{
  "jsonPath": "Rock/Rock En Espanol/Mecano/barco-a-venus.json",
  "path": "Rock\\Rock En Espanol\\Mecano\\Barco A Venus.mid",
  "name": "Barco A Venus",
  "difficulty": "Advanced",
  "bpm": 159.0002067002687,
  "notes": [
    {
      "midi": 69,
      "hit": false,
      "t": 23119.4668,
      "d": 82.54706250000163,
      "v": 105
    },
    {
      "midi": 65,
      "hit": false,
      "t": 23119.4668,
      "d": 102.20112500000323,
      "v": 102
    },
    {
      "midi": 74,
      "hit": false,
      "t": 23119.4668,
      "d": 106.9181000000026,
      "v": 111
    },
    {
      "midi": 69,
      "hit": false,
      "t": 23685.503800000002,
      "d": 60.53451249999853,
      "v": 104
    },
    {
      "midi": 72,
      "hit": false,
      "t": 23685.503800000002,
      "d": 72.32694999999876,
      "v": 108
    },
    {
      "midi": 65,
      "hit": false,
      "t": 23685.503800000002,
      "d": 77.04392499999813,
      "v": 105
    },
    {
      "midi": 69,
      "hit": false,
      "t": 23874.1828,
      "d": 75.47160000000076,
      "v": 108
    },
    {
      "midi": 65,
      "hit": false,
      "t": 23874.1828,
      "d": 89.6225250000025,
      "v": 106
    },
    {
      "midi": 72,
      "hit": false,
      "t": 23874.1828,
      "d": 105.3457750000016,
      "v": 109
    },
    {
      "midi": 69,
      "hit": false,
      "t": 24628.8988,
      "d": 69.9684625000009,
      "v": 111
    },
    {
      "midi": 65,
      "hit": false,
      "t": 24628.8988,
      "d": 91.98101250000036,
      "v": 107
    },
    {
      "midi": 74,
      "hit": false,
      "t": 24628.8988,
      "d": 91.98101250000036,
      "v": 115
    },
    {
      "midi": 69,
      "hit": false,
      "t": 25194.9358,
      "d": 66.0376499999984,
      "v": 109
    },
    {
      "midi": 72,
      "hit": false,
      "t": 25194.9358,
      "d": 72.32694999999876,
      "v": 111
    },
    {
      "midi": 65,
      "hit": false,
      "t": 25194.9358,
      "d": 77.04392499999813,
      "v": 108
    },
    {
      "midi": 69,
      "hit": false,
      "t": 25383.614799999996,
      "d": 77.83008749999863,
      "v": 111
    },
    {
      "midi": 65,
      "hit": false,
      "t": 25383.614799999996,
      "d": 83.33322499999849,
      "v": 107
    },
    {
      "midi": 72,
      "hit": false,
      "t": 25383.614799999996,
      "d": 96.69798749999973,
      "v": 111
    },
    {
      "midi": 64,
      "hit": false,
      "t": 26138.330799999996,
      "d": 159.59098749999976,
      "v": 111
    },
    {
      "midi": 60,
      "hit": false,
      "t": 26138.330799999996,
      "d": 165.88028750000012,
      "v": 113
    },
    {
      "midi": 55,
      "hit": false,
      "t": 26138.330799999996,
      "d": 173.7419125000015,
      "v": 106
    },
    {
      "midi": 59,
      "hit": false,
      "t": 26704.367799999996,
      "d": 77.04392500000176,
      "v": 108
    },
    {
      "midi": 62,
      "hit": false,
      "t": 26704.367799999996,
      "d": 77.83008750000226,
      "v": 109
    },
    {
      "midi": 57,
      "hit": false,
      "t": 26704.367799999996,
      "d": 88.0502000000015,
      "v": 99
    },
    {
      "midi": 62,
      "hit": false,
      "t": 26893.046799999996,
      "d": 131.28913749999992,
      "v": 111
    },
    {
      "midi": 59,
      "hit": false,
      "t": 26893.046799999996,
      "d": 136.0061124999993,
      "v": 109
    },
    {
      "midi": 57,
      "hit": false,
      "t": 26893.046799999996,
      "d": 139.93692499999815,
      "v": 99
    },
    {
      "midi": 60,
      "hit": false,
      "t": 27647.762799999993,
      "d": 106.91809999999896,
      "v": 111
    },
    {
      "midi": 55,
      "hit": false,
      "t": 27647.762799999993,
      "d": 112.42123749999882,
      "v": 106
    },
    {
      "midi": 64,
      "hit": false,
      "t": 27647.762799999993,
      "d": 127.35832499999742,
      "v": 111
    },
    {
      "midi": 61,
      "hit": false,
      "t": 28213.79979999999,
      "d": 72.32694999999876,
      "v": 92
    },
    {
      "midi": 57,
      "hit": false,
      "t": 28213.79979999999,
      "d": 92.76717499999722,
      "v": 93
    },
    {
      "midi": 67,
      "hit": false,
      "t": 28213.79979999999,
      "d": 99.05647499999759,
      "v": 99
    },
    {
      "midi": 61,
      "hit": false,
      "t": 28402.478799999986,
      "d": 95.91182499999923,
      "v": 103
    },
    {
      "midi": 57,
      "hit": false,
      "t": 28402.478799999986,
      "d": 102.20112499999959,
      "v": 97
    },
    {
      "midi": 67,
      "hit": false,
      "t": 28402.478799999986,
      "d": 132.86146250000093,
      "v": 104
    },
    {
      "midi": 81,
      "hit": false,
      "t": 29157.194799999987,
      "d": 82.54706250000163,
      "v": 105
    },
    {
      "midi": 77,
      "hit": false,
      "t": 29157.194799999987,
      "d": 102.20112500000323,
      "v": 102
    },
    {
      "midi": 86,
      "hit": false,
      "t": 29157.194799999987,
      "d": 106.9181000000026,
      "v": 111
    },
    {
      "midi": 81,
      "hit": false,
      "t": 29723.23179999999,
      "d": 60.53451249999853,
      "v": 104
    },
    {
      "midi": 84,
      "hit": false,
      "t": 29723.23179999999,
      "d": 72.32694999999876,
      "v": 108
    },
    {
      "midi": 77,
      "hit": false,
      "t": 29723.23179999999,
      "d": 77.04392499999813,
      "v": 105
    },
    {
      "midi": 81,
      "hit": false,
      "t": 29911.910799999987,
      "d": 75.47160000000076,
      "v": 108
    },
    {
      "midi": 77,
      "hit": false,
      "t": 29911.910799999987,
      "d": 89.6225250000025,
      "v": 106
    },
    {
      "midi": 84,
      "hit": false,
      "t": 29911.910799999987,
      "d": 105.3457750000016,
      "v": 109
    },
    {
      "midi": 81,
      "hit": false,
      "t": 30666.626799999987,
      "d": 69.9684625000009,
      "v": 111
    },
    {
      "midi": 77,
      "hit": false,
      "t": 30666.626799999987,
      "d": 91.98101250000036,
      "v": 107
    },
    {
      "midi": 86,
      "hit": false,
      "t": 30666.626799999987,
      "d": 91.98101250000036,
      "v": 115
    },
    {
      "midi": 81,
      "hit": false,
      "t": 31232.663799999988,
      "d": 66.0376499999984,
      "v": 109
    },
    {
      "midi": 84,
      "hit": false,
      "t": 31232.663799999988,
      "d": 72.32694999999876,
      "v": 111
    },
    {
      "midi": 77,
      "hit": false,
      "t": 31232.663799999988,
      "d": 77.04392499999813,
      "v": 108
    },
    {
      "midi": 81,
      "hit": false,
      "t": 31421.342799999984,
      "d": 77.83008749999863,
      "v": 111
    },
    {
      "midi": 77,
      "hit": false,
      "t": 31421.342799999984,
      "d": 83.33322499999849,
      "v": 107
    },
    {
      "midi": 84,
      "hit": false,
      "t": 31421.342799999984,
      "d": 96.69798749999973,
      "v": 111
    },
    {
      "midi": 84,
      "hit": false,
      "t": 32176.058799999984,
      "d": 88.83636249999836,
      "v": 114
    },
    {
      "midi": 81,
      "hit": false,
      "t": 32176.058799999984,
      "d": 102.20112499999959,
      "v": 109
    },
    {
      "midi": 88,
      "hit": false,
      "t": 32176.058799999984,
      "d": 105.34577499999796,
      "v": 114
    },
    {
      "midi": 86,
      "hit": false,
      "t": 32742.09579999998,
      "d": 71.5407875000019,
      "v": 113
    },
    {
      "midi": 83,
      "hit": false,
      "t": 32742.09579999998,
      "d": 73.1131125000029,
      "v": 111
    },
    {
      "midi": 81,
      "hit": false,
      "t": 32742.09579999998,
      "d": 74.6854375000039,
      "v": 104
    },
    {
      "midi": 86,
      "hit": false,
      "t": 32930.774799999985,
      "d": 97.48414999999659,
      "v": 113
    },
    {
      "midi": 81,
      "hit": false,
      "t": 32930.774799999985,
      "d": 100.62879999999859,
      "v": 105
    },
    {
      "midi": 83,
      "hit": false,
      "t": 32930.774799999985,
      "d": 100.62879999999859,
      "v": 111
    },
    {
      "midi": 81,
      "hit": false,
      "t": 33685.490799999985,
      "d": 106.9181000000026,
      "v": 111
    },
    {
      "midi": 76,
      "hit": false,
      "t": 33685.490799999985,
      "d": 117.13821250000183,
      "v": 108
    },
    {
      "midi": 84,
      "hit": false,
      "t": 33685.490799999985,
      "d": 126.57216250000056,
      "v": 113
    },
    {
      "midi": 81,
      "hit": false,
      "t": 34251.52779999999,
      "d": 74.68543749999662,
      "v": 111
    },
    {
      "midi": 79,
      "hit": false,
      "t": 34251.52779999999,
      "d": 80.97473749999335,
      "v": 105
    },
    {
      "midi": 85,
      "hit": false,
      "t": 34251.52779999999,
      "d": 81.76089999999385,
      "v": 113
    },
    {
      "midi": 81,
      "hit": false,
      "t": 34440.206799999985,
      "d": 91.98101250000036,
      "v": 111
    },
    {
      "midi": 79,
      "hit": false,
      "t": 34440.206799999985,
      "d": 102.9872875000001,
      "v": 107
    },
    {
      "midi": 85,
      "hit": false,
      "t": 34440.206799999985,
      "d": 123.42751249999856,
      "v": 113
    },
    {
      "midi": 69,
      "hit": false,
      "t": 35194.922799999986,
      "d": 82.54706250000163,
      "v": 105
    },
    {
      "midi": 81,
      "hit": false,
      "t": 35194.922799999986,
      "d": 82.54706250000163,
      "v": 105
    },
    {
      "midi": 65,
      "hit": false,
      "t": 35194.922799999986,
      "d": 102.20112499999959,
      "v": 102
    },
    {
      "midi": 77,
      "hit": false,
      "t": 35194.922799999986,
      "d": 102.20112499999959,
      "v": 102
    },
    {
      "midi": 74,
      "hit": false,
      "t": 35194.922799999986,
      "d": 106.9181000000026,
      "v": 111
    },
    {
      "midi": 86,
      "hit": false,
      "t": 35194.922799999986,
      "d": 106.9181000000026,
      "v": 111
    },
    {
      "midi": 69,
      "hit": false,
      "t": 35760.95979999999,
      "d": 60.534512500002165,
      "v": 104
    },
    {
      "midi": 81,
      "hit": false,
      "t": 35760.95979999999,
      "d": 60.534512500002165,
      "v": 104
    },
    {
      "midi": 72,
      "hit": false,
      "t": 35760.95979999999,
      "d": 72.3269500000024,
      "v": 108
    },
    {
      "midi": 84,
      "hit": false,
      "t": 35760.95979999999,
      "d": 72.3269500000024,
      "v": 108
    },
    {
      "midi": 65,
      "hit": false,
      "t": 35760.95979999999,
      "d": 77.0439250000054,
      "v": 105
    },
    {
      "midi": 77,
      "hit": false,
      "t": 35760.95979999999,
      "d": 77.0439250000054,
      "v": 105
    },
    {
      "midi": 69,
      "hit": false,
      "t": 35949.63879999999,
      "d": 75.47159999999712,
      "v": 108
    },
    {
      "midi": 81,
      "hit": false,
      "t": 35949.63879999999,
      "d": 75.47159999999712,
      "v": 108
    },
    {
      "midi": 65,
      "hit": false,
      "t": 35949.63879999999,
      "d": 89.62252499999886,
      "v": 106
    },
    {
      "midi": 77,
      "hit": false,
      "t": 35949.63879999999,
      "d": 89.62252499999886,
      "v": 106
    },
    {
      "midi": 72,
      "hit": false,
      "t": 35949.63879999999,
      "d": 105.3457750000016,
      "v": 109
    },
    {
      "midi": 84,
      "hit": false,
      "t": 35949.63879999999,
      "d": 105.3457750000016,
      "v": 109
    },
    {
      "midi": 69,
      "hit": false,
      "t": 36704.354799999994,
      "d": 69.9684625000009,
      "v": 111
    },
    {
      "midi": 81,
      "hit": false,
      "t": 36704.354799999994,
      "d": 69.9684625000009,
      "v": 111
    },
    {
      "midi": 65,
      "hit": false,
      "t": 36704.354799999994,
      "d": 91.98101250000036,
      "v": 107
    },
    {
      "midi": 74,
      "hit": false,
      "t": 36704.354799999994,
      "d": 91.98101250000036,
      "v": 115
    },
    {
      "midi": 77,
      "hit": false,
      "t": 36704.354799999994,
      "d": 91.98101250000036,
      "v": 107
    },
    {
      "midi": 86,
      "hit": false,
      "t": 36704.354799999994,
      "d": 91.98101250000036,
      "v": 115
    },
    {
      "midi": 69,
      "hit": false,
      "t": 37270.3918,
      "d": 66.0376499999984,
      "v": 109
    },
    {
      "midi": 81,
      "hit": false,
      "t": 37270.3918,
      "d": 66.0376499999984,
      "v": 109
    },
    {
      "midi": 72,
      "hit": false,
      "t": 37270.3918,
      "d": 72.32694999999512,
      "v": 111
    },
    {
      "midi": 84,
      "hit": false,
      "t": 37270.3918,
      "d": 72.32694999999512,
      "v": 111
    },
    {
      "midi": 65,
      "hit": false,
      "t": 37270.3918,
      "d": 77.04392499999813,
      "v": 108
    },
    {
      "midi": 77,
      "hit": false,
      "t": 37270.3918,
      "d": 77.04392499999813,
      "v": 108
    },
    {
      "midi": 69,
      "hit": false,
      "t": 37459.070799999994,
      "d": 77.83008749999863,
      "v": 111
    },
    {
      "midi": 81,
      "hit": false,
      "t": 37459.070799999994,
      "d": 77.83008749999863,
      "v": 111
    },
    {
      "midi": 65,
      "hit": false,
      "t": 37459.070799999994,
      "d": 83.33322500000213,
      "v": 107
    },
    {
      "midi": 77,
      "hit": false,
      "t": 37459.070799999994,
      "d": 83.33322500000213,
      "v": 107
    },
    {
      "midi": 72,
      "hit": false,
      "t": 37459.070799999994,
      "d": 96.69798750000336,
      "v": 111
    },
    {
      "midi": 84,
      "hit": false,
      "t": 37459.070799999994,
      "d": 96.69798750000336,
      "v": 111
    },
    {
      "midi": 72,
      "hit": false,
      "t": 38213.786799999994,
      "d": 88.83636249999836,
      "v": 114
    },
    {
      "midi": 84,
      "hit": false,
      "t": 38213.786799999994,
      "d": 88.83636249999836,
      "v": 114
    },
    {
      "midi": 69,
      "hit": false,
      "t": 38213.786799999994,
      "d": 102.20112499999959,
      "v": 109
    },
    {
      "midi": 81,
      "hit": false,
      "t": 38213.786799999994,
      "d": 102.20112499999959,
      "v": 109
    },
    {
      "midi": 76,
      "hit": false,
      "t": 38213.786799999994,
      "d": 105.3457750000016,
      "v": 114
    },
    {
      "midi": 88,
      "hit": false,
      "t": 38213.786799999994,
      "d": 105.3457750000016,
      "v": 114
    },
    {
      "midi": 74,
      "hit": false,
      "t": 38779.8238,
      "d": 71.5407875000019,
      "v": 113
    },
    {
      "midi": 86,
      "hit": false,
      "t": 38779.8238,
      "d": 71.5407875000019,
      "v": 113
    },
    {
      "midi": 71,
      "hit": false,
      "t": 38779.8238,
      "d": 73.1131125000029,
      "v": 111
    },
    {
      "midi": 83,
      "hit": false,
      "t": 38779.8238,
      "d": 73.1131125000029,
      "v": 111
    },
    {
      "midi": 69,
      "hit": false,
      "t": 38779.8238,
      "d": 74.6854375000039,
      "v": 104
    },
    {
      "midi": 81,
      "hit": false,
      "t": 38779.8238,
      "d": 74.6854375000039,
      "v": 104
    },
    {
      "midi": 74,
      "hit": false,
      "t": 38968.5028,
      "d": 97.48414999999659,
      "v": 113
    },
    {
      "midi": 86,
      "hit": false,
      "t": 38968.5028,
      "d": 97.48414999999659,
      "v": 113
    },
    {
      "midi": 69,
      "hit": false,
      "t": 38968.5028,
      "d": 100.62879999999859,
      "v": 105
    },
    {
      "midi": 71,
      "hit": false,
      "t": 38968.5028,
      "d": 100.62879999999859,
      "v": 111
    },
    {
      "midi": 81,
      "hit": false,
      "t": 38968.5028,
      "d": 100.62879999999859,
      "v": 105
    },
    {
      "midi": 83,
      "hit": false,
      "t": 38968.5028,
      "d": 100.62879999999859,
      "v": 111
    },
    {
      "midi": 69,
      "hit": false,
      "t": 39723.2188,
      "d": 106.9181000000026,
      "v": 111
    },
    {
      "midi": 81,
      "hit": false,
      "t": 39723.2188,
      "d": 106.9181000000026,
      "v": 111
    },
    {
      "midi": 64,
      "hit": false,
      "t": 39723.2188,
      "d": 117.13821250000183,
      "v": 108
    },
    {
      "midi": 76,
      "hit": false,
      "t": 39723.2188,
      "d": 117.13821250000183,
      "v": 108
    },
    {
      "midi": 72,
      "hit": false,
      "t": 39723.2188,
      "d": 126.57216250000056,
      "v": 113
    },
    {
      "midi": 84,
      "hit": false,
      "t": 39723.2188,
      "d": 126.57216250000056,
      "v": 113
    },
    {
      "midi": 69,
      "hit": false,
      "t": 40289.255800000006,
      "d": 74.68543749999662,
      "v": 111
    },
    {
      "midi": 81,
      "hit": false,
      "t": 40289.255800000006,
      "d": 74.68543749999662,
      "v": 111
    },
    {
      "midi": 67,
      "hit": false,
      "t": 40289.255800000006,
      "d": 80.97473749999335,
      "v": 105
    },
    {
      "midi": 79,
      "hit": false,
      "t": 40289.255800000006,
      "d": 80.97473749999335,
      "v": 105
    },
    {
      "midi": 73,
      "hit": false,
      "t": 40289.255800000006,
      "d": 81.76089999999385,
      "v": 113
    },
    {
      "midi": 85,
      "hit": false,
      "t": 40289.255800000006,
      "d": 81.76089999999385,
      "v": 113
    },
    {
      "midi": 69,
      "hit": false,
      "t": 40477.9348,
      "d": 91.98101250000036,
      "v": 111
    },
    {
      "midi": 81,
      "hit": false,
      "t": 40477.9348,
      "d": 91.98101250000036,
      "v": 111
    },
    {
      "midi": 67,
      "hit": false,
      "t": 40477.9348,
      "d": 102.9872875000001,
      "v": 107
    },
    {
      "midi": 79,
      "hit": false,
      "t": 40477.9348,
      "d": 102.9872875000001,
      "v": 107
    },
    {
      "midi": 73,
      "hit": false,
      "t": 40477.9348,
      "d": 123.42751249999856,
      "v": 113
    },
    {
      "midi": 85,
      "hit": false,
      "t": 40477.9348,
      "d": 123.42751249999856,
      "v": 113
    },
    {
      "midi": 69,
      "hit": false,
      "t": 41232.6508,
      "d": 82.54706250000163,
      "v": 105
    },
    {
      "midi": 81,
      "hit": false,
      "t": 41232.6508,
      "d": 82.54706250000163,
      "v": 105
    },
    {
      "midi": 65,
      "hit": false,
      "t": 41232.6508,
      "d": 102.20112499999959,
      "v": 102
    },
    {
      "midi": 77,
      "hit": false,
      "t": 41232.6508,
      "d": 102.20112499999959,
      "v": 102
    },
    {
      "midi": 74,
      "hit": false,
      "t": 41232.6508,
      "d": 106.9181000000026,
      "v": 111
    },
    {
      "midi": 86,
      "hit": false,
      "t": 41232.6508,
      "d": 106.9181000000026,
      "v": 111
    },
    {
      "midi": 69,
      "hit": false,
      "t": 41798.68780000001,
      "d": 60.534512500002165,
      "v": 104
    },
    {
      "midi": 81,
      "hit": false,
      "t": 41798.68780000001,
      "d": 60.534512500002165,
      "v": 104
    },
    {
      "midi": 72,
      "hit": false,
      "t": 41798.68780000001,
      "d": 72.3269500000024,
      "v": 108
    },
    {
      "midi": 84,
      "hit": false,
      "t": 41798.68780000001,
      "d": 72.3269500000024,
      "v": 108
    },
    {
      "midi": 65,
      "hit": false,
      "t": 41798.68780000001,
      "d": 77.0439250000054,
      "v": 105
    },
    {
      "midi": 77,
      "hit": false,
      "t": 41798.68780000001,
      "d": 77.0439250000054,
      "v": 105
    },
    {
      "midi": 69,
      "hit": false,
      "t": 41987.36680000001,
      "d": 75.47159999999712,
      "v": 108
    },
    {
      "midi": 81,
      "hit": false,
      "t": 41987.36680000001,
      "d": 75.47159999999712,
      "v": 108
    },
    {
      "midi": 65,
      "hit": false,
      "t": 41987.36680000001,
      "d": 89.62252499999886,
      "v": 106
    },
    {
      "midi": 77,
      "hit": false,
      "t": 41987.36680000001,
      "d": 89.62252499999886,
      "v": 106
    },
    {
      "midi": 72,
      "hit": false,
      "t": 41987.36680000001,
      "d": 105.3457750000016,
      "v": 109
    },
    {
      "midi": 84,
      "hit": false,
      "t": 41987.36680000001,
      "d": 105.3457750000016,
      "v": 109
    },
    {
      "midi": 69,
      "hit": false,
      "t": 42742.08280000001,
      "d": 69.9684625000009,
      "v": 111
    },
    {
      "midi": 81,
      "hit": false,
      "t": 42742.08280000001,
      "d": 69.9684625000009,
      "v": 111
    },
    {
      "midi": 65,
      "hit": false,
      "t": 42742.08280000001,
      "d": 91.98101250000036,
      "v": 107
    },
    {
      "midi": 74,
      "hit": false,
      "t": 42742.08280000001,
      "d": 91.98101250000036,
      "v": 115
    },
    {
      "midi": 77,
      "hit": false,
      "t": 42742.08280000001,
      "d": 91.98101250000036,
      "v": 107
    },
    {
      "midi": 86,
      "hit": false,
      "t": 42742.08280000001,
      "d": 91.98101250000036,
      "v": 115
    },
    {
      "midi": 69,
      "hit": false,
      "t": 43308.119800000015,
      "d": 66.0376499999984,
      "v": 109
    },
    {
      "midi": 81,
      "hit": false,
      "t": 43308.119800000015,
      "d": 66.0376499999984,
      "v": 109
    },
    {
      "midi": 72,
      "hit": false,
      "t": 43308.119800000015,
      "d": 72.32694999999512,
      "v": 111
    },
    {
      "midi": 84,
      "hit": false,
      "t": 43308.119800000015,
      "d": 72.32694999999512,
      "v": 111
    },
    {
      "midi": 65,
      "hit": false,
      "t": 43308.119800000015,
      "d": 77.04392499999813,
      "v": 108
    },
    {
      "midi": 77,
      "hit": false,
      "t": 43308.119800000015,
      "d": 77.04392499999813,
      "v": 108
    },
    {
      "midi": 69,
      "hit": false,
      "t": 43496.79880000001,
      "d": 77.83008749999863,
      "v": 111
    },
    {
      "midi": 81,
      "hit": false,
      "t": 43496.79880000001,
      "d": 77.83008749999863,
      "v": 111
    },
    {
      "midi": 65,
      "hit": false,
      "t": 43496.79880000001,
      "d": 83.33322500000213,
      "v": 107
    },
    {
      "midi": 77,
      "hit": false,
      "t": 43496.79880000001,
      "d": 83.33322500000213,
      "v": 107
    },
    {
      "midi": 72,
      "hit": false,
      "t": 43496.79880000001,
      "d": 96.69798750000336,
      "v": 111
    },
    {
      "midi": 84,
      "hit": false,
      "t": 43496.79880000001,
      "d": 96.69798750000336,
      "v": 111
    },
    {
      "midi": 72,
      "hit": false,
      "t": 44251.51480000001,
      "d": 88.83636249999836,
      "v": 114
    },
    {
      "midi": 84,
      "hit": false,
      "t": 44251.51480000001,
      "d": 88.83636249999836,
      "v": 114
    },
    {
      "midi": 69,
      "hit": false,
      "t": 44251.51480000001,
      "d": 102.20112499999959,
      "v": 109
    },
    {
      "midi": 81,
      "hit": false,
      "t": 44251.51480000001,
      "d": 102.20112499999959,
      "v": 109
    },
    {
      "midi": 76,
      "hit": false,
      "t": 44251.51480000001,
      "d": 105.3457750000016,
      "v": 114
    },
    {
      "midi": 88,
      "hit": false,
      "t": 44251.51480000001,
      "d": 105.3457750000016,
      "v": 114
    },
    {
      "midi": 74,
      "hit": false,
      "t": 44817.551800000016,
      "d": 71.5407875000019,
      "v": 113
    },
    {
      "midi": 86,
      "hit": false,
      "t": 44817.551800000016,
      "d": 71.5407875000019,
      "v": 113
    },
    {
      "midi": 71,
      "hit": false,
      "t": 44817.551800000016,
      "d": 73.1131125000029,
      "v": 111
    },
    {
      "midi": 83,
      "hit": false,
      "t": 44817.551800000016,
      "d": 73.1131125000029,
      "v": 111
    },
    {
      "midi": 69,
      "hit": false,
      "t": 44817.551800000016,
      "d": 74.6854375000039,
      "v": 104
    },
    {
      "midi": 81,
      "hit": false,
      "t": 44817.551800000016,
      "d": 74.6854375000039,
      "v": 104
    },
    {
      "midi": 74,
      "hit": false,
      "t": 45006.23080000002,
      "d": 97.48414999999659,
      "v": 113
    },
    {
      "midi": 86,
      "hit": false,
      "t": 45006.23080000002,
      "d": 97.48414999999659,
      "v": 113
    },
    {
      "midi": 69,
      "hit": false,
      "t": 45006.23080000002,
      "d": 100.62879999999859,
      "v": 105
    },
    {
      "midi": 71,
      "hit": false,
      "t": 45006.23080000002,
      "d": 100.62879999999859,
      "v": 111
    },
    {
      "midi": 81,
      "hit": false,
      "t": 45006.23080000002,
      "d": 100.62879999999859,
      "v": 105
    },
    {
      "midi": 83,
      "hit": false,
      "t": 45006.23080000002,
      "d": 100.62879999999859,
      "v": 111
    },
    {
      "midi": 69,
      "hit": false,
      "t": 45760.94680000002,
      "d": 106.9181000000026,
      "v": 111
    },
    {
      "midi": 81,
      "hit": false,
      "t": 45760.94680000002,
      "d": 106.9181000000026,
      "v": 111
    },
    {
      "midi": 64,
      "hit": false,
      "t": 45760.94680000002,
      "d": 117.13821250000183,
      "v": 108
    },
    {
      "midi": 76,
      "hit": false,
      "t": 45760.94680000002,
      "d": 117.13821250000183,
      "v": 108
    },
    {
      "midi": 72,
      "hit": false,
      "t": 45760.94680000002,
      "d": 126.57216250000056,
      "v": 113
    },
    {
      "midi": 84,
      "hit": false,
      "t": 45760.94680000002,
      "d": 126.57216250000056,
      "v": 113
    },
    {
      "midi": 69,
      "hit": false,
      "t": 46326.98380000002,
      "d": 74.68543749999662,
      "v": 111
    },
    {
      "midi": 81,
      "hit": false,
      "t": 46326.98380000002,
      "d": 74.68543749999662,
      "v": 111
    },
    {
      "midi": 67,
      "hit": false,
      "t": 46326.98380000002,
      "d": 80.97473749999335,
      "v": 105
    },
    {
      "midi": 79,
      "hit": false,
      "t": 46326.98380000002,
      "d": 80.97473749999335,
      "v": 105
    },
    {
      "midi": 73,
      "hit": false,
      "t": 46326.98380000002,
      "d": 81.76089999999385,
      "v": 113
    },
    {
      "midi": 85,
      "hit": false,
      "t": 46326.98380000002,
      "d": 81.76089999999385,
      "v": 113
    },
    {
      "midi": 69,
      "hit": false,
      "t": 46515.66280000002,
      "d": 91.98101250000036,
      "v": 111
    },
    {
      "midi": 81,
      "hit": false,
      "t": 46515.66280000002,
      "d": 91.98101250000036,
      "v": 111
    },
    {
      "midi": 67,
      "hit": false,
      "t": 46515.66280000002,
      "d": 102.9872875000001,
      "v": 107
    },
    {
      "midi": 79,
      "hit": false,
      "t": 46515.66280000002,
      "d": 102.9872875000001,
      "v": 107
    },
    {
      "midi": 73,
      "hit": false,
      "t": 46515.66280000002,
      "d": 123.42751249999856,
      "v": 113
    },
    {
      "midi": 85,
      "hit": false,
      "t": 46515.66280000002,
      "d": 123.42751249999856,
      "v": 113
    },
    {
      "midi": 81,
      "hit": false,
      "t": 68402.42680000002,
      "d": 82.54706250000163,
      "v": 105
    },
    {
      "midi": 77,
      "hit": false,
      "t": 68402.42680000002,
      "d": 102.20112500000687,
      "v": 102
    },
    {
      "midi": 86,
      "hit": false,
      "t": 68402.42680000002,
      "d": 106.91810000000987,
      "v": 111
    },
    {
      "midi": 81,
      "hit": false,
      "t": 68968.46380000003,
      "d": 60.534512500002165,
      "v": 104
    },
    {
      "midi": 84,
      "hit": false,
      "t": 68968.46380000003,
      "d": 72.3269500000024,
      "v": 108
    },
    {
      "midi": 77,
      "hit": false,
      "t": 68968.46380000003,
      "d": 77.0439250000054,
      "v": 105
    },
    {
      "midi": 81,
      "hit": false,
      "t": 69157.14280000003,
      "d": 75.4716000000044,
      "v": 108
    },
    {
      "midi": 77,
      "hit": false,
      "t": 69157.14280000003,
      "d": 89.62252499999886,
      "v": 106
    },
    {
      "midi": 84,
      "hit": false,
      "t": 69157.14280000003,
      "d": 105.34577499999432,
      "v": 109
    },
    {
      "midi": 81,
      "hit": false,
      "t": 69911.85880000003,
      "d": 69.96846249999362,
      "v": 111
    },
    {
      "midi": 77,
      "hit": false,
      "t": 69911.85880000003,
      "d": 91.98101249999308,
      "v": 107
    },
    {
      "midi": 86,
      "hit": false,
      "t": 69911.85880000003,
      "d": 91.98101249999308,
      "v": 115
    },
    {
      "midi": 81,
      "hit": false,
      "t": 70477.89580000003,
      "d": 66.0376499999984,
      "v": 109
    },
    {
      "midi": 84,
      "hit": false,
      "t": 70477.89580000003,
      "d": 72.3269500000024,
      "v": 111
    },
    {
      "midi": 77,
      "hit": false,
      "t": 70477.89580000003,
      "d": 77.0439250000054,
      "v": 108
    },
    {
      "midi": 81,
      "hit": false,
      "t": 70666.57480000003,
      "d": 77.83008749999863,
      "v": 111
    },
    {
      "midi": 77,
      "hit": false,
      "t": 70666.57480000003,
      "d": 83.33322499999485,
      "v": 107
    },
    {
      "midi": 84,
      "hit": false,
      "t": 70666.57480000003,
      "d": 96.69798749999609,
      "v": 111
    },
    {
      "midi": 84,
      "hit": false,
      "t": 71421.29080000003,
      "d": 88.83636250000563,
      "v": 114
    },
    {
      "midi": 81,
      "hit": false,
      "t": 71421.29080000003,
      "d": 102.20112500000687,
      "v": 109
    },
    {
      "midi": 88,
      "hit": false,
      "t": 71421.29080000003,
      "d": 105.34577500000887,
      "v": 114
    },
    {
      "midi": 86,
      "hit": false,
      "t": 71987.32780000004,
      "d": 71.54078749999462,
      "v": 113
    },
    {
      "midi": 83,
      "hit": false,
      "t": 71987.32780000004,
      "d": 73.11311249999562,
      "v": 111
    },
    {
      "midi": 81,
      "hit": false,
      "t": 71987.32780000004,
      "d": 74.68543749999662,
      "v": 104
    },
    {
      "midi": 86,
      "hit": false,
      "t": 72176.00680000005,
      "d": 97.48415000000386,
      "v": 113
    },
    {
      "midi": 81,
      "hit": false,
      "t": 72176.00680000005,
      "d": 100.62880000000587,
      "v": 105
    },
    {
      "midi": 83,
      "hit": false,
      "t": 72176.00680000005,
      "d": 100.62880000000587,
      "v": 111
    },
    {
      "midi": 81,
      "hit": false,
      "t": 72930.72280000005,
      "d": 106.91809999999532,
      "v": 111
    },
    {
      "midi": 76,
      "hit": false,
      "t": 72930.72280000005,
      "d": 117.13821249999455,
      "v": 108
    },
    {
      "midi": 84,
      "hit": false,
      "t": 72930.72280000005,
      "d": 126.57216250000056,
      "v": 113
    },
    {
      "midi": 81,
      "hit": false,
      "t": 73496.75980000004,
      "d": 74.68543749999662,
      "v": 111
    },
    {
      "midi": 79,
      "hit": false,
      "t": 73496.75980000004,
      "d": 80.97473750000063,
      "v": 105
    },
    {
      "midi": 85,
      "hit": false,
      "t": 73496.75980000004,
      "d": 81.76089999999385,
      "v": 113
    },
    {
      "midi": 81,
      "hit": false,
      "t": 73685.43880000003,
      "d": 91.98101249999308,
      "v": 111
    },
    {
      "midi": 79,
      "hit": false,
      "t": 73685.43880000003,
      "d": 102.9872875000001,
      "v": 107
    },
    {
      "midi": 85,
      "hit": false,
      "t": 73685.43880000003,
      "d": 123.42751249999856,
      "v": 113
    },
    {
      "midi": 81,
      "hit": false,
      "t": 74440.15480000003,
      "d": 82.54706250000163,
      "v": 105
    },
    {
      "midi": 77,
      "hit": false,
      "t": 74440.15480000003,
      "d": 102.20112500000687,
      "v": 102
    },
    {
      "midi": 86,
      "hit": false,
      "t": 74440.15480000003,
      "d": 106.91810000000987,
      "v": 111
    },
    {
      "midi": 81,
      "hit": false,
      "t": 75006.19180000004,
      "d": 60.534512500002165,
      "v": 104
    },
    {
      "midi": 84,
      "hit": false,
      "t": 75006.19180000004,
      "d": 72.3269500000024,
      "v": 108
    },
    {
      "midi": 77,
      "hit": false,
      "t": 75006.19180000004,
      "d": 77.0439250000054,
      "v": 105
    },
    {
      "midi": 81,
      "hit": false,
      "t": 75194.87080000005,
      "d": 75.4716000000044,
      "v": 108
    },
    {
      "midi": 77,
      "hit": false,
      "t": 75194.87080000005,
      "d": 89.62252499999886,
      "v": 106
    },
    {
      "midi": 84,
      "hit": false,
      "t": 75194.87080000005,
      "d": 105.34577499999432,
      "v": 109
    },
    {
      "midi": 81,
      "hit": false,
      "t": 75949.58680000005,
      "d": 69.96846249999362,
      "v": 111
    },
    {
      "midi": 77,
      "hit": false,
      "t": 75949.58680000005,
      "d": 91.98101249999308,
      "v": 107
    },
    {
      "midi": 86,
      "hit": false,
      "t": 75949.58680000005,
      "d": 91.98101249999308,
      "v": 115
    },
    {
      "midi": 81,
      "hit": false,
      "t": 76515.62380000004,
      "d": 66.0376499999984,
      "v": 109
    },
    {
      "midi": 84,
      "hit": false,
      "t": 76515.62380000004,
      "d": 72.3269500000024,
      "v": 111
    },
    {
      "midi": 77,
      "hit": false,
      "t": 76515.62380000004,
      "d": 77.0439250000054,
      "v": 108
    },
    {
      "midi": 81,
      "hit": false,
      "t": 76704.30280000005,
      "d": 77.83008749999863,
      "v": 111
    },
    {
      "midi": 77,
      "hit": false,
      "t": 76704.30280000005,
      "d": 83.33322499999485,
      "v": 107
    },
    {
      "midi": 84,
      "hit": false,
      "t": 76704.30280000005,
      "d": 96.69798749999609,
      "v": 111
    },
    {
      "midi": 84,
      "hit": false,
      "t": 77459.01880000005,
      "d": 88.83636250000563,
      "v": 114
    },
    {
      "midi": 81,
      "hit": false,
      "t": 77459.01880000005,
      "d": 102.20112500000687,
      "v": 109
    },
    {
      "midi": 88,
      "hit": false,
      "t": 77459.01880000005,
      "d": 105.34577500000887,
      "v": 114
    },
    {
      "midi": 86,
      "hit": false,
      "t": 78025.05580000006,
      "d": 71.54078749999462,
      "v": 113
    },
    {
      "midi": 83,
      "hit": false,
      "t": 78025.05580000006,
      "d": 73.11311249999562,
      "v": 111
    },
    {
      "midi": 81,
      "hit": false,
      "t": 78025.05580000006,
      "d": 74.68543749999662,
      "v": 104
    },
    {
      "midi": 86,
      "hit": false,
      "t": 78213.73480000006,
      "d": 97.48415000000386,
      "v": 113
    },
    {
      "midi": 81,
      "hit": false,
      "t": 78213.73480000006,
      "d": 100.62880000000587,
      "v": 105
    },
    {
      "midi": 83,
      "hit": false,
      "t": 78213.73480000006,
      "d": 100.62880000000587,
      "v": 111
    },
    {
      "midi": 81,
      "hit": false,
      "t": 78968.45080000006,
      "d": 106.91809999999532,
      "v": 111
    },
    {
      "midi": 76,
      "hit": false,
      "t": 78968.45080000006,
      "d": 117.13821249999455,
      "v": 108
    },
    {
      "midi": 84,
      "hit": false,
      "t": 78968.45080000006,
      "d": 126.57216250000056,
      "v": 113
    },
    {
      "midi": 81,
      "hit": false,
      "t": 79534.48780000006,
      "d": 74.68543749999662,
      "v": 111
    },
    {
      "midi": 79,
      "hit": false,
      "t": 79534.48780000006,
      "d": 80.97473750000063,
      "v": 105
    },
    {
      "midi": 85,
      "hit": false,
      "t": 79534.48780000006,
      "d": 81.76089999999385,
      "v": 113
    },
    {
      "midi": 81,
      "hit": false,
      "t": 79723.16680000005,
      "d": 91.98101249999308,
      "v": 111
    },
    {
      "midi": 79,
      "hit": false,
      "t": 79723.16680000005,
      "d": 102.9872875000001,
      "v": 107
    },
    {
      "midi": 85,
      "hit": false,
      "t": 79723.16680000005,
      "d": 123.42751249999856,
      "v": 113
    },
    {
      "midi": 69,
      "hit": false,
      "t": 80477.88280000005,
      "d": 82.54706250000163,
      "v": 105
    },
    {
      "midi": 81,
      "hit": false,
      "t": 80477.88280000005,
      "d": 82.54706250000163,
      "v": 105
    },
    {
      "midi": 65,
      "hit": false,
      "t": 80477.88280000005,
      "d": 102.20112500000687,
      "v": 102
    },
    {
      "midi": 77,
      "hit": false,
      "t": 80477.88280000005,
      "d": 102.20112500000687,
      "v": 102
    },
    {
      "midi": 74,
      "hit": false,
      "t": 80477.88280000005,
      "d": 106.91810000000987,
      "v": 111
    },
    {
      "midi": 86,
      "hit": false,
      "t": 80477.88280000005,
      "d": 106.91810000000987,
      "v": 111
    },
    {
      "midi": 69,
      "hit": false,
      "t": 81043.91980000006,
      "d": 60.534512500002165,
      "v": 104
    },
    {
      "midi": 81,
      "hit": false,
      "t": 81043.91980000006,
      "d": 60.534512500002165,
      "v": 104
    },
    {
      "midi": 72,
      "hit": false,
      "t": 81043.91980000006,
      "d": 72.3269500000024,
      "v": 108
    },
    {
      "midi": 84,
      "hit": false,
      "t": 81043.91980000006,
      "d": 72.3269500000024,
      "v": 108
    },
    {
      "midi": 65,
      "hit": false,
      "t": 81043.91980000006,
      "d": 77.0439250000054,
      "v": 105
    },
    {
      "midi": 77,
      "hit": false,
      "t": 81043.91980000006,
      "d": 77.0439250000054,
      "v": 105
    },
    {
      "midi": 69,
      "hit": false,
      "t": 81232.59880000007,
      "d": 75.4716000000044,
      "v": 108
    },
    {
      "midi": 81,
      "hit": false,
      "t": 81232.59880000007,
      "d": 75.4716000000044,
      "v": 108
    },
    {
      "midi": 65,
      "hit": false,
      "t": 81232.59880000007,
      "d": 89.62252499999886,
      "v": 106
    },
    {
      "midi": 77,
      "hit": false,
      "t": 81232.59880000007,
      "d": 89.62252499999886,
      "v": 106
    },
    {
      "midi": 72,
      "hit": false,
      "t": 81232.59880000007,
      "d": 105.34577499999432,
      "v": 109
    },
    {
      "midi": 84,
      "hit": false,
      "t": 81232.59880000007,
      "d": 105.34577499999432,
      "v": 109
    },
    {
      "midi": 69,
      "hit": false,
      "t": 81987.31480000007,
      "d": 69.96846249999362,
      "v": 111
    },
    {
      "midi": 81,
      "hit": false,
      "t": 81987.31480000007,
      "d": 69.96846249999362,
      "v": 111
    },
    {
      "midi": 65,
      "hit": false,
      "t": 81987.31480000007,
      "d": 91.98101249999308,
      "v": 107
    },
    {
      "midi": 74,
      "hit": false,
      "t": 81987.31480000007,
      "d": 91.98101249999308,
      "v": 115
    },
    {
      "midi": 77,
      "hit": false,
      "t": 81987.31480000007,
      "d": 91.98101249999308,
      "v": 107
    },
    {
      "midi": 86,
      "hit": false,
      "t": 81987.31480000007,
      "d": 91.98101249999308,
      "v": 115
    },
    {
      "midi": 69,
      "hit": false,
      "t": 82553.35180000006,
      "d": 66.0376499999984,
      "v": 109
    },
    {
      "midi": 81,
      "hit": false,
      "t": 82553.35180000006,
      "d": 66.0376499999984,
      "v": 109
    },
    {
      "midi": 72,
      "hit": false,
      "t": 82553.35180000006,
      "d": 72.3269500000024,
      "v": 111
    },
    {
      "midi": 84,
      "hit": false,
      "t": 82553.35180000006,
      "d": 72.3269500000024,
      "v": 111
    },
    {
      "midi": 65,
      "hit": false,
      "t": 82553.35180000006,
      "d": 77.0439250000054,
      "v": 108
    },
    {
      "midi": 77,
      "hit": false,
      "t": 82553.35180000006,
      "d": 77.0439250000054,
      "v": 108
    },
    {
      "midi": 69,
      "hit": false,
      "t": 82742.03080000007,
      "d": 77.83008749999863,
      "v": 111
    },
    {
      "midi": 81,
      "hit": false,
      "t": 82742.03080000007,
      "d": 77.83008749999863,
      "v": 111
    },
    {
      "midi": 65,
      "hit": false,
      "t": 82742.03080000007,
      "d": 83.33322499999485,
      "v": 107
    },
    {
      "midi": 77,
      "hit": false,
      "t": 82742.03080000007,
      "d": 83.33322499999485,
      "v": 107
    },
    {
      "midi": 72,
      "hit": false,
      "t": 82742.03080000007,
      "d": 96.69798749999609,
      "v": 111
    },
    {
      "midi": 84,
      "hit": false,
      "t": 82742.03080000007,
      "d": 96.69798749999609,
      "v": 111
    },
    {
      "midi": 72,
      "hit": false,
      "t": 83496.74680000007,
      "d": 88.83636250000563,
      "v": 114
    },
    {
      "midi": 84,
      "hit": false,
      "t": 83496.74680000007,
      "d": 88.83636250000563,
      "v": 114
    },
    {
      "midi": 69,
      "hit": false,
      "t": 83496.74680000007,
      "d": 102.20112500000687,
      "v": 109
    },
    {
      "midi": 81,
      "hit": false,
      "t": 83496.74680000007,
      "d": 102.20112500000687,
      "v": 109
    },
    {
      "midi": 76,
      "hit": false,
      "t": 83496.74680000007,
      "d": 105.34577500000887,
      "v": 114
    },
    {
      "midi": 88,
      "hit": false,
      "t": 83496.74680000007,
      "d": 105.34577500000887,
      "v": 114
    },
    {
      "midi": 74,
      "hit": false,
      "t": 84062.78380000008,
      "d": 71.54078749999462,
      "v": 113
    },
    {
      "midi": 86,
      "hit": false,
      "t": 84062.78380000008,
      "d": 71.54078749999462,
      "v": 113
    },
    {
      "midi": 71,
      "hit": false,
      "t": 84062.78380000008,
      "d": 73.11311249999562,
      "v": 111
    },
    {
      "midi": 83,
      "hit": false,
      "t": 84062.78380000008,
      "d": 73.11311249999562,
      "v": 111
    },
    {
      "midi": 69,
      "hit": false,
      "t": 84062.78380000008,
      "d": 74.68543749999662,
      "v": 104
    },
    {
      "midi": 81,
      "hit": false,
      "t": 84062.78380000008,
      "d": 74.68543749999662,
      "v": 104
    },
    {
      "midi": 74,
      "hit": false,
      "t": 84251.46280000008,
      "d": 97.48415000000386,
      "v": 113
    },
    {
      "midi": 86,
      "hit": false,
      "t": 84251.46280000008,
      "d": 97.48415000000386,
      "v": 113
    },
    {
      "midi": 69,
      "hit": false,
      "t": 84251.46280000008,
      "d": 100.62880000000587,
      "v": 105
    },
    {
      "midi": 71,
      "hit": false,
      "t": 84251.46280000008,
      "d": 100.62880000000587,
      "v": 111
    },
    {
      "midi": 81,
      "hit": false,
      "t": 84251.46280000008,
      "d": 100.62880000000587,
      "v": 105
    },
    {
      "midi": 83,
      "hit": false,
      "t": 84251.46280000008,
      "d": 100.62880000000587,
      "v": 111
    },
    {
      "midi": 69,
      "hit": false,
      "t": 85006.17880000008,
      "d": 106.91809999999532,
      "v": 111
    },
    {
      "midi": 81,
      "hit": false,
      "t": 85006.17880000008,
      "d": 106.91809999999532,
      "v": 111
    },
    {
      "midi": 64,
      "hit": false,
      "t": 85006.17880000008,
      "d": 117.13821249999455,
      "v": 108
    },
    {
      "midi": 76,
      "hit": false,
      "t": 85006.17880000008,
      "d": 117.13821249999455,
      "v": 108
    },
    {
      "midi": 72,
      "hit": false,
      "t": 85006.17880000008,
      "d": 126.57216250000056,
      "v": 113
    },
    {
      "midi": 84,
      "hit": false,
      "t": 85006.17880000008,
      "d": 126.57216250000056,
      "v": 113
    },
    {
      "midi": 69,
      "hit": false,
      "t": 85572.21580000008,
      "d": 74.68543749999662,
      "v": 111
    },
    {
      "midi": 81,
      "hit": false,
      "t": 85572.21580000008,
      "d": 74.68543749999662,
      "v": 111
    },
    {
      "midi": 67,
      "hit": false,
      "t": 85572.21580000008,
      "d": 80.97473750000063,
      "v": 105
    },
    {
      "midi": 79,
      "hit": false,
      "t": 85572.21580000008,
      "d": 80.97473750000063,
      "v": 105
    },
    {
      "midi": 73,
      "hit": false,
      "t": 85572.21580000008,
      "d": 81.76089999999385,
      "v": 113
    },
    {
      "midi": 85,
      "hit": false,
      "t": 85572.21580000008,
      "d": 81.76089999999385,
      "v": 113
    },
    {
      "midi": 69,
      "hit": false,
      "t": 85760.89480000007,
      "d": 91.98101249999308,
      "v": 111
    },
    {
      "midi": 81,
      "hit": false,
      "t": 85760.89480000007,
      "d": 91.98101249999308,
      "v": 111
    },
    {
      "midi": 67,
      "hit": false,
      "t": 85760.89480000007,
      "d": 102.9872875000001,
      "v": 107
    },
    {
      "midi": 79,
      "hit": false,
      "t": 85760.89480000007,
      "d": 102.9872875000001,
      "v": 107
    },
    {
      "midi": 73,
      "hit": false,
      "t": 85760.89480000007,
      "d": 123.42751249999856,
      "v": 113
    },
    {
      "midi": 85,
      "hit": false,
      "t": 85760.89480000007,
      "d": 123.42751249999856,
      "v": 113
    },
    {
      "midi": 69,
      "hit": false,
      "t": 86515.61080000007,
      "d": 82.54706250000163,
      "v": 105
    },
    {
      "midi": 81,
      "hit": false,
      "t": 86515.61080000007,
      "d": 82.54706250000163,
      "v": 105
    },
    {
      "midi": 65,
      "hit": false,
      "t": 86515.61080000007,
      "d": 102.20112500000687,
      "v": 102
    },
    {
      "midi": 77,
      "hit": false,
      "t": 86515.61080000007,
      "d": 102.20112500000687,
      "v": 102
    },
    {
      "midi": 74,
      "hit": false,
      "t": 86515.61080000007,
      "d": 106.91810000000987,
      "v": 111
    },
    {
      "midi": 86,
      "hit": false,
      "t": 86515.61080000007,
      "d": 106.91810000000987,
      "v": 111
    },
    {
      "midi": 69,
      "hit": false,
      "t": 87081.64780000008,
      "d": 60.534512500002165,
      "v": 104
    },
    {
      "midi": 81,
      "hit": false,
      "t": 87081.64780000008,
      "d": 60.534512500002165,
      "v": 104
    },
    {
      "midi": 72,
      "hit": false,
      "t": 87081.64780000008,
      "d": 72.3269500000024,
      "v": 108
    },
    {
      "midi": 84,
      "hit": false,
      "t": 87081.64780000008,
      "d": 72.3269500000024,
      "v": 108
    },
    {
      "midi": 65,
      "hit": false,
      "t": 87081.64780000008,
      "d": 77.0439250000054,
      "v": 105
    },
    {
      "midi": 77,
      "hit": false,
      "t": 87081.64780000008,
      "d": 77.0439250000054,
      "v": 105
    },
    {
      "midi": 69,
      "hit": false,
      "t": 87270.32680000008,
      "d": 75.4716000000044,
      "v": 108
    },
    {
      "midi": 81,
      "hit": false,
      "t": 87270.32680000008,
      "d": 75.4716000000044,
      "v": 108
    },
    {
      "midi": 65,
      "hit": false,
      "t": 87270.32680000008,
      "d": 89.62252499999886,
      "v": 106
    },
    {
      "midi": 77,
      "hit": false,
      "t": 87270.32680000008,
      "d": 89.62252499999886,
      "v": 106
    },
    {
      "midi": 72,
      "hit": false,
      "t": 87270.32680000008,
      "d": 105.34577499999432,
      "v": 109
    },
    {
      "midi": 84,
      "hit": false,
      "t": 87270.32680000008,
      "d": 105.34577499999432,
      "v": 109
    },
    {
      "midi": 69,
      "hit": false,
      "t": 88025.04280000008,
      "d": 69.96846249999362,
      "v": 111
    },
    {
      "midi": 81,
      "hit": false,
      "t": 88025.04280000008,
      "d": 69.96846249999362,
      "v": 111
    },
    {
      "midi": 65,
      "hit": false,
      "t": 88025.04280000008,
      "d": 91.98101249999308,
      "v": 107
    },
    {
      "midi": 74,
      "hit": false,
      "t": 88025.04280000008,
      "d": 91.98101249999308,
      "v": 115
    },
    {
      "midi": 77,
      "hit": false,
      "t": 88025.04280000008,
      "d": 91.98101249999308,
      "v": 107
    },
    {
      "midi": 86,
      "hit": false,
      "t": 88025.04280000008,
      "d": 91.98101249999308,
      "v": 115
    },
    {
      "midi": 69,
      "hit": false,
      "t": 88591.07980000008,
      "d": 66.0376499999984,
      "v": 109
    },
    {
      "midi": 81,
      "hit": false,
      "t": 88591.07980000008,
      "d": 66.0376499999984,
      "v": 109
    },
    {
      "midi": 72,
      "hit": false,
      "t": 88591.07980000008,
      "d": 72.3269500000024,
      "v": 111
    },
    {
      "midi": 84,
      "hit": false,
      "t": 88591.07980000008,
      "d": 72.3269500000024,
      "v": 111
    },
    {
      "midi": 65,
      "hit": false,
      "t": 88591.07980000008,
      "d": 77.0439250000054,
      "v": 108
    },
    {
      "midi": 77,
      "hit": false,
      "t": 88591.07980000008,
      "d": 77.0439250000054,
      "v": 108
    },
    {
      "midi": 69,
      "hit": false,
      "t": 88779.75880000008,
      "d": 77.83008749999863,
      "v": 111
    },
    {
      "midi": 81,
      "hit": false,
      "t": 88779.75880000008,
      "d": 77.83008749999863,
      "v": 111
    },
    {
      "midi": 65,
      "hit": false,
      "t": 88779.75880000008,
      "d": 83.33322499999485,
      "v": 107
    },
    {
      "midi": 77,
      "hit": false,
      "t": 88779.75880000008,
      "d": 83.33322499999485,
      "v": 107
    },
    {
      "midi": 72,
      "hit": false,
      "t": 88779.75880000008,
      "d": 96.69798749999609,
      "v": 111
    },
    {
      "midi": 84,
      "hit": false,
      "t": 88779.75880000008,
      "d": 96.69798749999609,
      "v": 111
    },
    {
      "midi": 72,
      "hit": false,
      "t": 89534.47480000008,
      "d": 88.83636250000563,
      "v": 114
    },
    {
      "midi": 84,
      "hit": false,
      "t": 89534.47480000008,
      "d": 88.83636250000563,
      "v": 114
    },
    {
      "midi": 69,
      "hit": false,
      "t": 89534.47480000008,
      "d": 102.20112500000687,
      "v": 109
    },
    {
      "midi": 81,
      "hit": false,
      "t": 89534.47480000008,
      "d": 102.20112500000687,
      "v": 109
    },
    {
      "midi": 76,
      "hit": false,
      "t": 89534.47480000008,
      "d": 105.34577500000887,
      "v": 114
    },
    {
      "midi": 88,
      "hit": false,
      "t": 89534.47480000008,
      "d": 105.34577500000887,
      "v": 114
    },
    {
      "midi": 74,
      "hit": false,
      "t": 90100.5118000001,
      "d": 71.54078749999462,
      "v": 113
    },
    {
      "midi": 86,
      "hit": false,
      "t": 90100.5118000001,
      "d": 71.54078749999462,
      "v": 113
    },
    {
      "midi": 71,
      "hit": false,
      "t": 90100.5118000001,
      "d": 73.11311249999562,
      "v": 111
    },
    {
      "midi": 83,
      "hit": false,
      "t": 90100.5118000001,
      "d": 73.11311249999562,
      "v": 111
    },
    {
      "midi": 69,
      "hit": false,
      "t": 90100.5118000001,
      "d": 74.68543749999662,
      "v": 104
    },
    {
      "midi": 81,
      "hit": false,
      "t": 90100.5118000001,
      "d": 74.68543749999662,
      "v": 104
    },
    {
      "midi": 74,
      "hit": false,
      "t": 90289.1908000001,
      "d": 97.48415000000386,
      "v": 113
    },
    {
      "midi": 86,
      "hit": false,
      "t": 90289.1908000001,
      "d": 97.48415000000386,
      "v": 113
    },
    {
      "midi": 69,
      "hit": false,
      "t": 90289.1908000001,
      "d": 100.62880000000587,
      "v": 105
    },
    {
      "midi": 71,
      "hit": false,
      "t": 90289.1908000001,
      "d": 100.62880000000587,
      "v": 111
    },
    {
      "midi": 81,
      "hit": false,
      "t": 90289.1908000001,
      "d": 100.62880000000587,
      "v": 105
    },
    {
      "midi": 83,
      "hit": false,
      "t": 90289.1908000001,
      "d": 100.62880000000587,
      "v": 111
    },
    {
      "midi": 69,
      "hit": false,
      "t": 91043.9068000001,
      "d": 106.91809999999532,
      "v": 111
    },
    {
      "midi": 81,
      "hit": false,
      "t": 91043.9068000001,
      "d": 106.91809999999532,
      "v": 111
    },
    {
      "midi": 64,
      "hit": false,
      "t": 91043.9068000001,
      "d": 117.13821249999455,
      "v": 108
    },
    {
      "midi": 76,
      "hit": false,
      "t": 91043.9068000001,
      "d": 117.13821249999455,
      "v": 108
    },
    {
      "midi": 72,
      "hit": false,
      "t": 91043.9068000001,
      "d": 126.57216250000056,
      "v": 113
    },
    {
      "midi": 84,
      "hit": false,
      "t": 91043.9068000001,
      "d": 126.57216250000056,
      "v": 113
    },
    {
      "midi": 69,
      "hit": false,
      "t": 91609.9438000001,
      "d": 74.68543749999662,
      "v": 111
    },
    {
      "midi": 81,
      "hit": false,
      "t": 91609.9438000001,
      "d": 74.68543749999662,
      "v": 111
    },
    {
      "midi": 67,
      "hit": false,
      "t": 91609.9438000001,
      "d": 80.97473750000063,
      "v": 105
    },
    {
      "midi": 79,
      "hit": false,
      "t": 91609.9438000001,
      "d": 80.97473750000063,
      "v": 105
    },
    {
      "midi": 73,
      "hit": false,
      "t": 91609.9438000001,
      "d": 81.76089999999385,
      "v": 113
    },
    {
      "midi": 85,
      "hit": false,
      "t": 91609.9438000001,
      "d": 81.76089999999385,
      "v": 113
    },
    {
      "midi": 69,
      "hit": false,
      "t": 91798.62280000008,
      "d": 91.98101249999308,
      "v": 111
    },
    {
      "midi": 81,
      "hit": false,
      "t": 91798.62280000008,
      "d": 91.98101249999308,
      "v": 111
    },
    {
      "midi": 67,
      "hit": false,
      "t": 91798.62280000008,
      "d": 102.9872875000001,
      "v": 107
    },
    {
      "midi": 79,
      "hit": false,
      "t": 91798.62280000008,
      "d": 102.9872875000001,
      "v": 107
    },
    {
      "midi": 73,
      "hit": false,
      "t": 91798.62280000008,
      "d": 123.42751249999856,
      "v": 113
    },
    {
      "midi": 85,
      "hit": false,
      "t": 91798.62280000008,
      "d": 123.42751249999856,
      "v": 113
    },
    {
      "midi": 81,
      "hit": false,
      "t": 113685.38680000008,
      "d": 82.54706250000163,
      "v": 105
    },
    {
      "midi": 77,
      "hit": false,
      "t": 113685.38680000008,
      "d": 102.20112500000687,
      "v": 102
    },
    {
      "midi": 86,
      "hit": false,
      "t": 113685.38680000008,
      "d": 106.91810000000987,
      "v": 111
    },
    {
      "midi": 81,
      "hit": false,
      "t": 114251.42380000009,
      "d": 60.534512500002165,
      "v": 104
    },
    {
      "midi": 84,
      "hit": false,
      "t": 114251.42380000009,
      "d": 72.3269500000024,
      "v": 108
    },
    {
      "midi": 77,
      "hit": false,
      "t": 114251.42380000009,
      "d": 77.0439250000054,
      "v": 105
    },
    {
      "midi": 81,
      "hit": false,
      "t": 114440.1028000001,
      "d": 75.4716000000044,
      "v": 108
    },
    {
      "midi": 77,
      "hit": false,
      "t": 114440.1028000001,
      "d": 89.62252499999886,
      "v": 106
    },
    {
      "midi": 84,
      "hit": false,
      "t": 114440.1028000001,
      "d": 105.34577499999432,
      "v": 109
    },
    {
      "midi": 81,
      "hit": false,
      "t": 115194.8188000001,
      "d": 69.96846249999362,
      "v": 111
    },
    {
      "midi": 77,
      "hit": false,
      "t": 115194.8188000001,
      "d": 91.98101249999308,
      "v": 107
    },
    {
      "midi": 86,
      "hit": false,
      "t": 115194.8188000001,
      "d": 91.98101249999308,
      "v": 115
    },
    {
      "midi": 81,
      "hit": false,
      "t": 115760.85580000009,
      "d": 66.0376499999984,
      "v": 109
    },
    {
      "midi": 84,
      "hit": false,
      "t": 115760.85580000009,
      "d": 72.3269500000024,
      "v": 111
    },
    {
      "midi": 77,
      "hit": false,
      "t": 115760.85580000009,
      "d": 77.0439250000054,
      "v": 108
    },
    {
      "midi": 81,
      "hit": false,
      "t": 115949.5348000001,
      "d": 77.83008749999863,
      "v": 111
    },
    {
      "midi": 77,
      "hit": false,
      "t": 115949.5348000001,
      "d": 83.33322499999485,
      "v": 107
    },
    {
      "midi": 84,
      "hit": false,
      "t": 115949.5348000001,
      "d": 96.69798749999609,
      "v": 111
    },
    {
      "midi": 84,
      "hit": false,
      "t": 116704.2508000001,
      "d": 88.83636250000563,
      "v": 114
    },
    {
      "midi": 81,
      "hit": false,
      "t": 116704.2508000001,
      "d": 102.20112500000687,
      "v": 109
    },
    {
      "midi": 88,
      "hit": false,
      "t": 116704.2508000001,
      "d": 105.34577500000887,
      "v": 114
    },
    {
      "midi": 86,
      "hit": false,
      "t": 117270.28780000011,
      "d": 71.54078749999462,
      "v": 113
    },
    {
      "midi": 83,
      "hit": false,
      "t": 117270.28780000011,
      "d": 73.11311249999562,
      "v": 111
    },
    {
      "midi": 81,
      "hit": false,
      "t": 117270.28780000011,
      "d": 74.68543749999662,
      "v": 104
    },
    {
      "midi": 86,
      "hit": false,
      "t": 117458.96680000011,
      "d": 97.48415000000386,
      "v": 113
    },
    {
      "midi": 81,
      "hit": false,
      "t": 117458.96680000011,
      "d": 100.62880000000587,
      "v": 105
    },
    {
      "midi": 83,
      "hit": false,
      "t": 117458.96680000011,
      "d": 100.62880000000587,
      "v": 111
    },
    {
      "midi": 81,
      "hit": false,
      "t": 118213.68280000011,
      "d": 106.91809999999532,
      "v": 111
    },
    {
      "midi": 76,
      "hit": false,
      "t": 118213.68280000011,
      "d": 117.13821249999455,
      "v": 108
    },
    {
      "midi": 84,
      "hit": false,
      "t": 118213.68280000011,
      "d": 126.57216250000056,
      "v": 113
    },
    {
      "midi": 81,
      "hit": false,
      "t": 118779.71980000011,
      "d": 74.68543749999662,
      "v": 111
    },
    {
      "midi": 79,
      "hit": false,
      "t": 118779.71980000011,
      "d": 80.97473750000063,
      "v": 105
    },
    {
      "midi": 85,
      "hit": false,
      "t": 118779.71980000011,
      "d": 81.76089999999385,
      "v": 113
    },
    {
      "midi": 81,
      "hit": false,
      "t": 118968.3988000001,
      "d": 91.98101249999308,
      "v": 111
    },
    {
      "midi": 79,
      "hit": false,
      "t": 118968.3988000001,
      "d": 102.9872875000001,
      "v": 107
    },
    {
      "midi": 85,
      "hit": false,
      "t": 118968.3988000001,
      "d": 123.42751249999856,
      "v": 113
    },
    {
      "midi": 81,
      "hit": false,
      "t": 119723.1148000001,
      "d": 82.54706250000163,
      "v": 105
    },
    {
      "midi": 77,
      "hit": false,
      "t": 119723.1148000001,
      "d": 102.20112500000687,
      "v": 102
    },
    {
      "midi": 86,
      "hit": false,
      "t": 119723.1148000001,
      "d": 106.91810000000987,
      "v": 111
    },
    {
      "midi": 81,
      "hit": false,
      "t": 120289.15180000011,
      "d": 60.534512500002165,
      "v": 104
    },
    {
      "midi": 84,
      "hit": false,
      "t": 120289.15180000011,
      "d": 72.3269500000024,
      "v": 108
    },
    {
      "midi": 77,
      "hit": false,
      "t": 120289.15180000011,
      "d": 77.0439250000054,
      "v": 105
    },
    {
      "midi": 81,
      "hit": false,
      "t": 120477.83080000011,
      "d": 75.4716000000044,
      "v": 108
    },
    {
      "midi": 77,
      "hit": false,
      "t": 120477.83080000011,
      "d": 89.62252499999886,
      "v": 106
    },
    {
      "midi": 84,
      "hit": false,
      "t": 120477.83080000011,
      "d": 105.34577499999432,
      "v": 109
    },
    {
      "midi": 81,
      "hit": false,
      "t": 121232.54680000011,
      "d": 69.96846249999362,
      "v": 111
    },
    {
      "midi": 77,
      "hit": false,
      "t": 121232.54680000011,
      "d": 91.98101249999308,
      "v": 107
    },
    {
      "midi": 86,
      "hit": false,
      "t": 121232.54680000011,
      "d": 91.98101249999308,
      "v": 115
    },
    {
      "midi": 81,
      "hit": false,
      "t": 121798.58380000011,
      "d": 66.0376499999984,
      "v": 109
    },
    {
      "midi": 84,
      "hit": false,
      "t": 121798.58380000011,
      "d": 72.3269500000024,
      "v": 111
    },
    {
      "midi": 77,
      "hit": false,
      "t": 121798.58380000011,
      "d": 77.0439250000054,
      "v": 108
    },
    {
      "midi": 81,
      "hit": false,
      "t": 121987.26280000011,
      "d": 77.83008749999863,
      "v": 111
    },
    {
      "midi": 77,
      "hit": false,
      "t": 121987.26280000011,
      "d": 83.33322499999485,
      "v": 107
    },
    {
      "midi": 84,
      "hit": false,
      "t": 121987.26280000011,
      "d": 96.69798749999609,
      "v": 111
    },
    {
      "midi": 84,
      "hit": false,
      "t": 122741.97880000011,
      "d": 88.83636250000563,
      "v": 114
    },
    {
      "midi": 81,
      "hit": false,
      "t": 122741.97880000011,
      "d": 102.20112500000687,
      "v": 109
    },
    {
      "midi": 88,
      "hit": false,
      "t": 122741.97880000011,
      "d": 105.34577500000887,
      "v": 114
    },
    {
      "midi": 86,
      "hit": false,
      "t": 123308.01580000012,
      "d": 71.54078749999462,
      "v": 113
    },
    {
      "midi": 83,
      "hit": false,
      "t": 123308.01580000012,
      "d": 73.11311249999562,
      "v": 111
    },
    {
      "midi": 81,
      "hit": false,
      "t": 123308.01580000012,
      "d": 74.68543749999662,
      "v": 104
    },
    {
      "midi": 86,
      "hit": false,
      "t": 123496.69480000013,
      "d": 97.48415000000386,
      "v": 113
    },
    {
      "midi": 81,
      "hit": false,
      "t": 123496.69480000013,
      "d": 100.62880000000587,
      "v": 105
    },
    {
      "midi": 83,
      "hit": false,
      "t": 123496.69480000013,
      "d": 100.62880000000587,
      "v": 111
    },
    {
      "midi": 81,
      "hit": false,
      "t": 124251.41080000013,
      "d": 106.91809999999532,
      "v": 111
    },
    {
      "midi": 76,
      "hit": false,
      "t": 124251.41080000013,
      "d": 117.13821249999455,
      "v": 108
    },
    {
      "midi": 84,
      "hit": false,
      "t": 124251.41080000013,
      "d": 126.57216250000056,
      "v": 113
    },
    {
      "midi": 81,
      "hit": false,
      "t": 124817.44780000013,
      "d": 74.68543749999662,
      "v": 111
    },
    {
      "midi": 79,
      "hit": false,
      "t": 124817.44780000013,
      "d": 80.97473750000063,
      "v": 105
    },
    {
      "midi": 85,
      "hit": false,
      "t": 124817.44780000013,
      "d": 81.76089999999385,
      "v": 113
    },
    {
      "midi": 81,
      "hit": false,
      "t": 125006.12680000011,
      "d": 91.98101249999308,
      "v": 111
    },
    {
      "midi": 79,
      "hit": false,
      "t": 125006.12680000011,
      "d": 102.9872875000001,
      "v": 107
    },
    {
      "midi": 85,
      "hit": false,
      "t": 125006.12680000011,
      "d": 123.42751249999856,
      "v": 113
    },
    {
      "midi": 81,
      "hit": false,
      "t": 149911.7548000001,
      "d": 82.54706250000163,
      "v": 105
    },
    {
      "midi": 77,
      "hit": false,
      "t": 149911.7548000001,
      "d": 102.20112499999232,
      "v": 102
    },
    {
      "midi": 86,
      "hit": false,
      "t": 149911.7548000001,
      "d": 106.91809999998077,
      "v": 111
    },
    {
      "midi": 81,
      "hit": false,
      "t": 150477.7918000001,
      "d": 60.53451249998761,
      "v": 104
    },
    {
      "midi": 84,
      "hit": false,
      "t": 150477.7918000001,
      "d": 72.32694999998785,
      "v": 108
    },
    {
      "midi": 77,
      "hit": false,
      "t": 150477.7918000001,
      "d": 77.0439249999763,
      "v": 105
    },
    {
      "midi": 81,
      "hit": false,
      "t": 150666.47080000007,
      "d": 75.47159999998985,
      "v": 108
    },
    {
      "midi": 77,
      "hit": false,
      "t": 150666.47080000007,
      "d": 89.62252499998431,
      "v": 106
    },
    {
      "midi": 84,
      "hit": false,
      "t": 150666.47080000007,
      "d": 105.34577499999432,
      "v": 109
    },
    {
      "midi": 81,
      "hit": false,
      "t": 151421.18680000005,
      "d": 69.96846249999362,
      "v": 111
    },
    {
      "midi": 77,
      "hit": false,
      "t": 151421.18680000005,
      "d": 91.98101250000764,
      "v": 107
    },
    {
      "midi": 86,
      "hit": false,
      "t": 151421.18680000005,
      "d": 91.98101250000764,
      "v": 115
    },
    {
      "midi": 81,
      "hit": false,
      "t": 151987.22380000007,
      "d": 66.03765000001295,
      "v": 109
    },
    {
      "midi": 84,
      "hit": false,
      "t": 151987.22380000007,
      "d": 72.32695000001695,
      "v": 111
    },
    {
      "midi": 77,
      "hit": false,
      "t": 151987.22380000007,
      "d": 77.0439250000054,
      "v": 108
    },
    {
      "midi": 81,
      "hit": false,
      "t": 152175.90280000007,
      "d": 77.83008750001318,
      "v": 111
    },
    {
      "midi": 77,
      "hit": false,
      "t": 152175.90280000007,
      "d": 83.3332250000094,
      "v": 107
    },
    {
      "midi": 84,
      "hit": false,
      "t": 152175.90280000007,
      "d": 96.69798749999609,
      "v": 111
    },
    {
      "midi": 84,
      "hit": false,
      "t": 152930.61880000005,
      "d": 88.83636250000563,
      "v": 114
    },
    {
      "midi": 81,
      "hit": false,
      "t": 152930.61880000005,
      "d": 102.20112499999232,
      "v": 109
    },
    {
      "midi": 88,
      "hit": false,
      "t": 152930.61880000005,
      "d": 105.34577499999432,
      "v": 114
    },
    {
      "midi": 86,
      "hit": false,
      "t": 153496.65580000004,
      "d": 71.54078750000917,
      "v": 113
    },
    {
      "midi": 83,
      "hit": false,
      "t": 153496.65580000004,
      "d": 73.11311249999562,
      "v": 111
    },
    {
      "midi": 81,
      "hit": false,
      "t": 153496.65580000004,
      "d": 74.68543749998207,
      "v": 104
    },
    {
      "midi": 86,
      "hit": false,
      "t": 153685.3348,
      "d": 97.48415000000386,
      "v": 113
    },
    {
      "midi": 81,
      "hit": false,
      "t": 153685.3348,
      "d": 100.62880000000587,
      "v": 105
    },
    {
      "midi": 83,
      "hit": false,
      "t": 153685.3348,
      "d": 100.62880000000587,
      "v": 111
    },
    {
      "midi": 81,
      "hit": false,
      "t": 154440.05080000003,
      "d": 106.91810000000987,
      "v": 111
    },
    {
      "midi": 76,
      "hit": false,
      "t": 154440.05080000003,
      "d": 117.13821250002366,
      "v": 108
    },
    {
      "midi": 84,
      "hit": false,
      "t": 154440.05080000003,
      "d": 126.57216250002966,
      "v": 113
    },
    {
      "midi": 81,
      "hit": false,
      "t": 155006.08780000007,
      "d": 74.68543750001118,
      "v": 111
    },
    {
      "midi": 79,
      "hit": false,
      "t": 155006.08780000007,
      "d": 80.97473750001518,
      "v": 105
    },
    {
      "midi": 85,
      "hit": false,
      "t": 155006.08780000007,
      "d": 81.76090000002296,
      "v": 113
    },
    {
      "midi": 81,
      "hit": false,
      "t": 155194.7668000001,
      "d": 91.98101250000764,
      "v": 111
    },
    {
      "midi": 79,
      "hit": false,
      "t": 155194.7668000001,
      "d": 102.9872875000001,
      "v": 107
    },
    {
      "midi": 85,
      "hit": false,
      "t": 155194.7668000001,
      "d": 123.42751249999856,
      "v": 113
    },
    {
      "midi": 81,
      "hit": false,
      "t": 155949.48280000009,
      "d": 82.54706250000163,
      "v": 105
    },
    {
      "midi": 77,
      "hit": false,
      "t": 155949.48280000009,
      "d": 102.20112499999232,
      "v": 102
    },
    {
      "midi": 86,
      "hit": false,
      "t": 155949.48280000009,
      "d": 106.91809999998077,
      "v": 111
    },
    {
      "midi": 81,
      "hit": false,
      "t": 156515.51980000007,
      "d": 60.53451249998761,
      "v": 104
    },
    {
      "midi": 84,
      "hit": false,
      "t": 156515.51980000007,
      "d": 72.32694999998785,
      "v": 108
    },
    {
      "midi": 77,
      "hit": false,
      "t": 156515.51980000007,
      "d": 77.0439249999763,
      "v": 105
    },
    {
      "midi": 81,
      "hit": false,
      "t": 156704.19880000004,
      "d": 75.47159999998985,
      "v": 108
    },
    {
      "midi": 77,
      "hit": false,
      "t": 156704.19880000004,
      "d": 89.62252499998431,
      "v": 106
    },
    {
      "midi": 84,
      "hit": false,
      "t": 156704.19880000004,
      "d": 105.34577499999432,
      "v": 109
    },
    {
      "midi": 81,
      "hit": false,
      "t": 157458.91480000003,
      "d": 69.96846249999362,
      "v": 111
    },
    {
      "midi": 77,
      "hit": false,
      "t": 157458.91480000003,
      "d": 91.98101250000764,
      "v": 107
    },
    {
      "midi": 86,
      "hit": false,
      "t": 157458.91480000003,
      "d": 91.98101250000764,
      "v": 115
    },
    {
      "midi": 81,
      "hit": false,
      "t": 158024.95180000004,
      "d": 66.03765000001295,
      "v": 109
    },
    {
      "midi": 84,
      "hit": false,
      "t": 158024.95180000004,
      "d": 72.32695000001695,
      "v": 111
    },
    {
      "midi": 77,
      "hit": false,
      "t": 158024.95180000004,
      "d": 77.0439250000054,
      "v": 108
    },
    {
      "midi": 81,
      "hit": false,
      "t": 158213.63080000004,
      "d": 77.83008750001318,
      "v": 111
    },
    {
      "midi": 77,
      "hit": false,
      "t": 158213.63080000004,
      "d": 83.3332250000094,
      "v": 107
    },
    {
      "midi": 84,
      "hit": false,
      "t": 158213.63080000004,
      "d": 96.69798749999609,
      "v": 111
    },
    {
      "midi": 84,
      "hit": false,
      "t": 158968.34680000003,
      "d": 88.83636250000563,
      "v": 114
    },
    {
      "midi": 81,
      "hit": false,
      "t": 158968.34680000003,
      "d": 102.20112499999232,
      "v": 109
    },
    {
      "midi": 88,
      "hit": false,
      "t": 158968.34680000003,
      "d": 105.34577499999432,
      "v": 114
    },
    {
      "midi": 86,
      "hit": false,
      "t": 159534.3838,
      "d": 71.54078750000917,
      "v": 113
    },
    {
      "midi": 83,
      "hit": false,
      "t": 159534.3838,
      "d": 73.11311249999562,
      "v": 111
    },
    {
      "midi": 81,
      "hit": false,
      "t": 159534.3838,
      "d": 74.68543749998207,
      "v": 104
    },
    {
      "midi": 86,
      "hit": false,
      "t": 159723.06279999999,
      "d": 97.48415000000386,
      "v": 113
    },
    {
      "midi": 81,
      "hit": false,
      "t": 159723.06279999999,
      "d": 100.62880000000587,
      "v": 105
    },
    {
      "midi": 83,
      "hit": false,
      "t": 159723.06279999999,
      "d": 100.62880000000587,
      "v": 111
    },
    {
      "midi": 81,
      "hit": false,
      "t": 160477.7788,
      "d": 106.91810000000987,
      "v": 111
    },
    {
      "midi": 76,
      "hit": false,
      "t": 160477.7788,
      "d": 117.13821250002366,
      "v": 108
    },
    {
      "midi": 84,
      "hit": false,
      "t": 160477.7788,
      "d": 126.57216250002966,
      "v": 113
    },
    {
      "midi": 81,
      "hit": false,
      "t": 161043.81580000004,
      "d": 74.68543750001118,
      "v": 111
    },
    {
      "midi": 79,
      "hit": false,
      "t": 161043.81580000004,
      "d": 80.97473750001518,
      "v": 105
    },
    {
      "midi": 85,
      "hit": false,
      "t": 161043.81580000004,
      "d": 81.76090000002296,
      "v": 113
    },
    {
      "midi": 81,
      "hit": false,
      "t": 161232.49480000007,
      "d": 91.98101250000764,
      "v": 111
    },
    {
      "midi": 79,
      "hit": false,
      "t": 161232.49480000007,
      "d": 102.9872875000001,
      "v": 107
    },
    {
      "midi": 85,
      "hit": false,
      "t": 161232.49480000007,
      "d": 123.42751249999856,
      "v": 113
    },
    {
      "midi": 81,
      "hit": false,
      "t": 161987.21080000006,
      "d": 82.54706250000163,
      "v": 105
    },
    {
      "midi": 77,
      "hit": false,
      "t": 161987.21080000006,
      "d": 102.20112499999232,
      "v": 102
    },
    {
      "midi": 86,
      "hit": false,
      "t": 161987.21080000006,
      "d": 106.91809999998077,
      "v": 111
    },
    {
      "midi": 81,
      "hit": false,
      "t": 162553.24780000004,
      "d": 60.53451249998761,
      "v": 104
    },
    {
      "midi": 84,
      "hit": false,
      "t": 162553.24780000004,
      "d": 72.32694999998785,
      "v": 108
    },
    {
      "midi": 77,
      "hit": false,
      "t": 162553.24780000004,
      "d": 77.0439249999763,
      "v": 105
    },
    {
      "midi": 81,
      "hit": false,
      "t": 162741.92680000002,
      "d": 75.47159999998985,
      "v": 108
    },
    {
      "midi": 77,
      "hit": false,
      "t": 162741.92680000002,
      "d": 89.62252499998431,
      "v": 106
    },
    {
      "midi": 84,
      "hit": false,
      "t": 162741.92680000002,
      "d": 105.34577499999432,
      "v": 109
    },
    {
      "midi": 81,
      "hit": false,
      "t": 163496.6428,
      "d": 69.96846249999362,
      "v": 111
    },
    {
      "midi": 77,
      "hit": false,
      "t": 163496.6428,
      "d": 91.98101250000764,
      "v": 107
    },
    {
      "midi": 86,
      "hit": false,
      "t": 163496.6428,
      "d": 91.98101250000764,
      "v": 115
    },
    {
      "midi": 81,
      "hit": false,
      "t": 164062.6798,
      "d": 66.03765000001295,
      "v": 109
    },
    {
      "midi": 84,
      "hit": false,
      "t": 164062.6798,
      "d": 72.32695000001695,
      "v": 111
    },
    {
      "midi": 77,
      "hit": false,
      "t": 164062.6798,
      "d": 77.0439250000054,
      "v": 108
    },
    {
      "midi": 81,
      "hit": false,
      "t": 164251.35880000002,
      "d": 77.83008750001318,
      "v": 111
    },
    {
      "midi": 77,
      "hit": false,
      "t": 164251.35880000002,
      "d": 83.3332250000094,
      "v": 107
    },
    {
      "midi": 84,
      "hit": false,
      "t": 164251.35880000002,
      "d": 96.69798749999609,
      "v": 111
    },
    {
      "midi": 84,
      "hit": false,
      "t": 165006.0748,
      "d": 88.83636250000563,
      "v": 114
    },
    {
      "midi": 81,
      "hit": false,
      "t": 165006.0748,
      "d": 102.20112499999232,
      "v": 109
    },
    {
      "midi": 88,
      "hit": false,
      "t": 165006.0748,
      "d": 105.34577499999432,
      "v": 114
    },
    {
      "midi": 86,
      "hit": false,
      "t": 165572.11179999998,
      "d": 71.54078750000917,
      "v": 113
    },
    {
      "midi": 83,
      "hit": false,
      "t": 165572.11179999998,
      "d": 73.11311249999562,
      "v": 111
    },
    {
      "midi": 81,
      "hit": false,
      "t": 165572.11179999998,
      "d": 74.68543749998207,
      "v": 104
    },
    {
      "midi": 86,
      "hit": false,
      "t": 165760.79079999996,
      "d": 97.48415000000386,
      "v": 113
    },
    {
      "midi": 81,
      "hit": false,
      "t": 165760.79079999996,
      "d": 100.62880000000587,
      "v": 105
    },
    {
      "midi": 83,
      "hit": false,
      "t": 165760.79079999996,
      "d": 100.62880000000587,
      "v": 111
    },
    {
      "midi": 81,
      "hit": false,
      "t": 166515.50679999997,
      "d": 106.91810000000987,
      "v": 111
    },
    {
      "midi": 76,
      "hit": false,
      "t": 166515.50679999997,
      "d": 117.13821250002366,
      "v": 108
    },
    {
      "midi": 84,
      "hit": false,
      "t": 166515.50679999997,
      "d": 126.57216250002966,
      "v": 113
    },
    {
      "midi": 81,
      "hit": false,
      "t": 167081.5438,
      "d": 74.68543750001118,
      "v": 111
    },
    {
      "midi": 79,
      "hit": false,
      "t": 167081.5438,
      "d": 80.97473750001518,
      "v": 105
    },
    {
      "midi": 85,
      "hit": false,
      "t": 167081.5438,
      "d": 81.76090000002296,
      "v": 113
    },
    {
      "midi": 81,
      "hit": false,
      "t": 167270.22280000005,
      "d": 91.98101250000764,
      "v": 111
    },
    {
      "midi": 79,
      "hit": false,
      "t": 167270.22280000005,
      "d": 102.9872875000001,
      "v": 107
    },
    {
      "midi": 85,
      "hit": false,
      "t": 167270.22280000005,
      "d": 123.42751249999856,
      "v": 113
    },
    {
      "midi": 81,
      "hit": false,
      "t": 168024.93880000003,
      "d": 82.54706250000163,
      "v": 105
    },
    {
      "midi": 77,
      "hit": false,
      "t": 168024.93880000003,
      "d": 102.20112499999232,
      "v": 102
    },
    {
      "midi": 86,
      "hit": false,
      "t": 168024.93880000003,
      "d": 106.91809999998077,
      "v": 111
    },
    {
      "midi": 81,
      "hit": false,
      "t": 168590.97580000001,
      "d": 60.53451249998761,
      "v": 104
    },
    {
      "midi": 84,
      "hit": false,
      "t": 168590.97580000001,
      "d": 72.32694999998785,
      "v": 108
    },
    {
      "midi": 77,
      "hit": false,
      "t": 168590.97580000001,
      "d": 77.0439249999763,
      "v": 105
    },
    {
      "midi": 81,
      "hit": false,
      "t": 168779.6548,
      "d": 75.47159999998985,
      "v": 108
    },
    {
      "midi": 77,
      "hit": false,
      "t": 168779.6548,
      "d": 89.62252499998431,
      "v": 106
    },
    {
      "midi": 84,
      "hit": false,
      "t": 168779.6548,
      "d": 105.34577499999432,
      "v": 109
    },
    {
      "midi": 81,
      "hit": false,
      "t": 169534.37079999998,
      "d": 69.96846249999362,
      "v": 111
    },
    {
      "midi": 77,
      "hit": false,
      "t": 169534.37079999998,
      "d": 91.98101250000764,
      "v": 107
    },
    {
      "midi": 86,
      "hit": false,
      "t": 169534.37079999998,
      "d": 91.98101250000764,
      "v": 115
    },
    {
      "midi": 81,
      "hit": false,
      "t": 170100.4078,
      "d": 66.03765000001295,
      "v": 109
    },
    {
      "midi": 84,
      "hit": false,
      "t": 170100.4078,
      "d": 72.32695000001695,
      "v": 111
    },
    {
      "midi": 77,
      "hit": false,
      "t": 170100.4078,
      "d": 77.0439250000054,
      "v": 108
    },
    {
      "midi": 81,
      "hit": false,
      "t": 170289.0868,
      "d": 77.83008750001318,
      "v": 111
    },
    {
      "midi": 77,
      "hit": false,
      "t": 170289.0868,
      "d": 83.3332250000094,
      "v": 107
    },
    {
      "midi": 84,
      "hit": false,
      "t": 170289.0868,
      "d": 96.69798749999609,
      "v": 111
    },
    {
      "midi": 84,
      "hit": false,
      "t": 171043.80279999998,
      "d": 88.83636250000563,
      "v": 114
    },
    {
      "midi": 81,
      "hit": false,
      "t": 171043.80279999998,
      "d": 102.20112499999232,
      "v": 109
    },
    {
      "midi": 88,
      "hit": false,
      "t": 171043.80279999998,
      "d": 105.34577499999432,
      "v": 114
    },
    {
      "midi": 86,
      "hit": false,
      "t": 171609.83979999996,
      "d": 71.54078750000917,
      "v": 113
    },
    {
      "midi": 83,
      "hit": false,
      "t": 171609.83979999996,
      "d": 73.11311249999562,
      "v": 111
    },
    {
      "midi": 81,
      "hit": false,
      "t": 171609.83979999996,
      "d": 74.68543749998207,
      "v": 104
    },
    {
      "midi": 86,
      "hit": false,
      "t": 171798.51879999993,
      "d": 97.48415000000386,
      "v": 113
    },
    {
      "midi": 81,
      "hit": false,
      "t": 171798.51879999993,
      "d": 100.62880000000587,
      "v": 105
    },
    {
      "midi": 83,
      "hit": false,
      "t": 171798.51879999993,
      "d": 100.62880000000587,
      "v": 111
    },
    {
      "midi": 81,
      "hit": false,
      "t": 172553.23479999995,
      "d": 106.91810000000987,
      "v": 111
    },
    {
      "midi": 76,
      "hit": false,
      "t": 172553.23479999995,
      "d": 117.13821250002366,
      "v": 108
    },
    {
      "midi": 84,
      "hit": false,
      "t": 172553.23479999995,
      "d": 126.57216250002966,
      "v": 113
    },
    {
      "midi": 81,
      "hit": false,
      "t": 173119.2718,
      "d": 74.68543750001118,
      "v": 111
    },
    {
      "midi": 79,
      "hit": false,
      "t": 173119.2718,
      "d": 80.97473750001518,
      "v": 105
    },
    {
      "midi": 85,
      "hit": false,
      "t": 173119.2718,
      "d": 81.76090000002296,
      "v": 113
    },
    {
      "midi": 81,
      "hit": false,
      "t": 173307.95080000002,
      "d": 91.98101250000764,
      "v": 111
    },
    {
      "midi": 79,
      "hit": false,
      "t": 173307.95080000002,
      "d": 102.9872875000001,
      "v": 107
    },
    {
      "midi": 85,
      "hit": false,
      "t": 173307.95080000002,
      "d": 123.42751249999856,
      "v": 113
    },
    {
      "midi": 62,
      "hit": false,
      "t": 173685.30880000003,
      "d": 157.2325000000128,
      "v": 127
    },
    {
      "midi": 50,
      "hit": false,
      "t": 173685.30880000003,
      "d": 183.96202500001527,
      "v": 127
    },
    {
      "midi": 50,
      "hit": false,
      "t": 174062.66680000004,
      "d": 176.10039999999572,
      "v": 127
    },
    {
      "midi": 62,
      "hit": false,
      "t": 174062.66680000004,
      "d": 189.4651625000115,
      "v": 127
    },
    {
      "midi": 45,
      "hit": false,
      "t": 174251.34580000004,
      "d": 169.02493750001304,
      "v": 122
    },
    {
      "midi": 57,
      "hit": false,
      "t": 174251.34580000004,
      "d": 181.60353750002105,
      "v": 122
    },
    {
      "midi": 41,
      "hit": false,
      "t": 174440.02480000007,
      "d": 160.3771499999857,
      "v": 127
    },
    {
      "midi": 53,
      "hit": false,
      "t": 174440.02480000007,
      "d": 175.31423749998794,
      "v": 121
    },
    {
      "midi": 55,
      "hit": false,
      "t": 174628.70380000005,
      "d": 84.11938749998808,
      "v": 127
    },
    {
      "midi": 43,
      "hit": false,
      "t": 174628.70380000005,
      "d": 95.91182499998831,
      "v": 127
    },
    {
      "midi": 55,
      "hit": false,
      "t": 174817.38280000002,
      "d": 179.24504999999772,
      "v": 127
    },
    {
      "midi": 43,
      "hit": false,
      "t": 174817.38280000002,
      "d": 213.83619999999064,
      "v": 126
    },
    {
      "midi": 41,
      "hit": false,
      "t": 175006.06180000002,
      "d": 173.7419125000015,
      "v": 127
    },
    {
      "midi": 53,
      "hit": false,
      "t": 175006.06180000002,
      "d": 205.9745750000002,
      "v": 126
    },
    {
      "midi": 50,
      "hit": false,
      "t": 175194.74080000003,
      "d": 227.20096250000643,
      "v": 127
    },
    {
      "midi": 38,
      "hit": false,
      "t": 175194.74080000003,
      "d": 284.59082499999204,
      "v": 127
    }
  ]
}