{
  "jsonPath": "Rock/Hardcore Hip Hop/Talib Kweli/say-something-instrumental.json",
  "path": "Rock\\Hardcore Hip Hop\\Talib Kweli\\Say Something Instrumental.mid",
  "name": "Say Something Instrumental",
  "difficulty": "Advanced",
  "bpm": 120,
  "notes": [
    {
      "midi": 60,
      "hit": false,
      "t": 39650,
      "d": 400,
      "v": 89
    },
    {
      "midi": 41,
      "hit": false,
      "t": 39650,
      "d": 466.66666666666424,
      "v": 79
    },
    {
      "midi": 56,
      "hit": false,
      "t": 39650,
      "d": 466.66666666666424,
      "v": 86
    },
    {
      "midi": 55,
      "hit": false,
      "t": 39650,
      "d": 500,
      "v": 79
    },
    {
      "midi": 56,
      "hit": false,
      "t": 40250,
      "d": 50,
      "v": 78
    },
    {
      "midi": 55,
      "hit": false,
      "t": 40250,
      "d": 66.66666666666424,
      "v": 79
    },
    {
      "midi": 60,
      "hit": false,
      "t": 40266.666666666664,
      "d": 33.33333333333576,
      "v": 72
    },
    {
      "midi": 56,
      "hit": false,
      "t": 40666.666666666664,
      "d": 66.66666666666424,
      "v": 76
    },
    {
      "midi": 60,
      "hit": false,
      "t": 40666.666666666664,
      "d": 66.66666666666424,
      "v": 79
    },
    {
      "midi": 55,
      "hit": false,
      "t": 40666.666666666664,
      "d": 100,
      "v": 79
    },
    {
      "midi": 56,
      "hit": false,
      "t": 41766.666666666664,
      "d": 50,
      "v": 66
    },
    {
      "midi": 55,
      "hit": false,
      "t": 41783.33333333333,
      "d": 50,
      "v": 65
    },
    {
      "midi": 56,
      "hit": false,
      "t": 42183.33333333333,
      "d": 433.33333333333576,
      "v": 74
    },
    {
      "midi": 55,
      "hit": false,
      "t": 42183.33333333333,
      "d": 450,
      "v": 75
    },
    {
      "midi": 60,
      "hit": false,
      "t": 42199.99999999999,
      "d": 333.33333333333576,
      "v": 75
    },
    {
      "midi": 56,
      "hit": false,
      "t": 44066.666666666664,
      "d": 49.999999999992724,
      "v": 78
    },
    {
      "midi": 58,
      "hit": false,
      "t": 44083.33333333333,
      "d": 16.66666666666424,
      "v": 47
    },
    {
      "midi": 58,
      "hit": false,
      "t": 44483.33333333332,
      "d": 766.6666666666642,
      "v": 70
    },
    {
      "midi": 56,
      "hit": false,
      "t": 44483.33333333332,
      "d": 783.3333333333285,
      "v": 78
    },
    {
      "midi": 53,
      "hit": false,
      "t": 44583.33333333332,
      "d": 666.6666666666642,
      "v": 7
    },
    {
      "midi": 61,
      "hit": false,
      "t": 45333.333333333314,
      "d": 100,
      "v": 68
    },
    {
      "midi": 56,
      "hit": false,
      "t": 45333.333333333314,
      "d": 166.66666666666424,
      "v": 72
    },
    {
      "midi": 53,
      "hit": false,
      "t": 45349.99999999998,
      "d": 250,
      "v": 67
    },
    {
      "midi": 58,
      "hit": false,
      "t": 45349.99999999998,
      "d": 266.66666666666424,
      "v": 74
    },
    {
      "midi": 56,
      "hit": false,
      "t": 47099.99999999998,
      "d": 50,
      "v": 68
    },
    {
      "midi": 55,
      "hit": false,
      "t": 47099.99999999998,
      "d": 66.66666666666424,
      "v": 68
    },
    {
      "midi": 60,
      "hit": false,
      "t": 47116.66666666664,
      "d": 33.33333333333576,
      "v": 48
    },
    {
      "midi": 56,
      "hit": false,
      "t": 47483.33333333331,
      "d": 900,
      "v": 74
    },
    {
      "midi": 55,
      "hit": false,
      "t": 47483.33333333331,
      "d": 983.3333333333358,
      "v": 72
    },
    {
      "midi": 60,
      "hit": false,
      "t": 47499.99999999997,
      "d": 933.3333333333358,
      "v": 63
    },
    {
      "midi": 46,
      "hit": false,
      "t": 48783.33333333331,
      "d": 900,
      "v": 74
    },
    {
      "midi": 58,
      "hit": false,
      "t": 50166.66666666664,
      "d": 66.66666666666424,
      "v": 76
    },
    {
      "midi": 61,
      "hit": false,
      "t": 50183.33333333331,
      "d": 33.33333333333576,
      "v": 56
    },
    {
      "midi": 56,
      "hit": false,
      "t": 50183.33333333331,
      "d": 50,
      "v": 78
    },
    {
      "midi": 53,
      "hit": false,
      "t": 50183.33333333331,
      "d": 66.66666666666424,
      "v": 72
    },
    {
      "midi": 56,
      "hit": false,
      "t": 50583.33333333331,
      "d": 783.3333333333358,
      "v": 74
    },
    {
      "midi": 61,
      "hit": false,
      "t": 50583.33333333331,
      "d": 783.3333333333358,
      "v": 74
    },
    {
      "midi": 53,
      "hit": false,
      "t": 50583.33333333331,
      "d": 800,
      "v": 73
    },
    {
      "midi": 58,
      "hit": false,
      "t": 50583.33333333331,
      "d": 816.6666666666642,
      "v": 68
    },
    {
      "midi": 56,
      "hit": false,
      "t": 54899.99999999997,
      "d": 66.66666666666424,
      "v": 66
    },
    {
      "midi": 55,
      "hit": false,
      "t": 54899.99999999997,
      "d": 83.33333333332848,
      "v": 72
    },
    {
      "midi": 60,
      "hit": false,
      "t": 54899.99999999997,
      "d": 83.33333333332848,
      "v": 75
    },
    {
      "midi": 56,
      "hit": false,
      "t": 55266.666666666635,
      "d": 83.33333333333576,
      "v": 59
    },
    {
      "midi": 60,
      "hit": false,
      "t": 55266.666666666635,
      "d": 100,
      "v": 75
    },
    {
      "midi": 55,
      "hit": false,
      "t": 55266.666666666635,
      "d": 116.66666666666424,
      "v": 65
    },
    {
      "midi": 55,
      "hit": false,
      "t": 55916.666666666635,
      "d": 133.33333333333576,
      "v": 79
    },
    {
      "midi": 60,
      "hit": false,
      "t": 55916.666666666635,
      "d": 483.33333333333576,
      "v": 84
    },
    {
      "midi": 56,
      "hit": false,
      "t": 56016.666666666635,
      "d": 383.33333333333576,
      "v": 68
    },
    {
      "midi": 41,
      "hit": false,
      "t": 56433.33333333331,
      "d": 33.33333333333576,
      "v": 27
    },
    {
      "midi": 58,
      "hit": false,
      "t": 57033.33333333331,
      "d": 66.66666666666424,
      "v": 68
    },
    {
      "midi": 55,
      "hit": false,
      "t": 57033.33333333331,
      "d": 83.33333333332848,
      "v": 61
    },
    {
      "midi": 51,
      "hit": false,
      "t": 57266.666666666635,
      "d": 33.33333333333576,
      "v": 39
    },
    {
      "midi": 58,
      "hit": false,
      "t": 57416.666666666635,
      "d": 366.66666666666424,
      "v": 74
    },
    {
      "midi": 55,
      "hit": false,
      "t": 57416.666666666635,
      "d": 416.66666666666424,
      "v": 72
    },
    {
      "midi": 58,
      "hit": false,
      "t": 58949.99999999996,
      "d": 50,
      "v": 70
    },
    {
      "midi": 55,
      "hit": false,
      "t": 58949.99999999996,
      "d": 83.33333333333576,
      "v": 70
    },
    {
      "midi": 58,
      "hit": false,
      "t": 59316.666666666635,
      "d": 66.66666666666424,
      "v": 54
    },
    {
      "midi": 55,
      "hit": false,
      "t": 59316.666666666635,
      "d": 83.33333333332848,
      "v": 65
    },
    {
      "midi": 60,
      "hit": false,
      "t": 59333.3333333333,
      "d": 50,
      "v": 72
    },
    {
      "midi": 56,
      "hit": false,
      "t": 61566.66666666663,
      "d": 50,
      "v": 59
    },
    {
      "midi": 61,
      "hit": false,
      "t": 61566.66666666663,
      "d": 66.66666666666424,
      "v": 59
    },
    {
      "midi": 53,
      "hit": false,
      "t": 61566.66666666663,
      "d": 83.33333333332848,
      "v": 58
    },
    {
      "midi": 53,
      "hit": false,
      "t": 61966.66666666662,
      "d": 483.33333333333576,
      "v": 67
    },
    {
      "midi": 56,
      "hit": false,
      "t": 61966.66666666662,
      "d": 500,
      "v": 66
    },
    {
      "midi": 61,
      "hit": false,
      "t": 61966.66666666662,
      "d": 500,
      "v": 74
    },
    {
      "midi": 58,
      "hit": false,
      "t": 63516.66666666662,
      "d": 50,
      "v": 66
    },
    {
      "midi": 63,
      "hit": false,
      "t": 63516.66666666662,
      "d": 50,
      "v": 64
    },
    {
      "midi": 55,
      "hit": false,
      "t": 63516.66666666662,
      "d": 83.33333333333576,
      "v": 77
    },
    {
      "midi": 55,
      "hit": false,
      "t": 63916.66666666662,
      "d": 50,
      "v": 17
    },
    {
      "midi": 44,
      "hit": false,
      "t": 64066.66666666662,
      "d": 333.33333333333576,
      "v": 64
    },
    {
      "midi": 56,
      "hit": false,
      "t": 64433.33333333329,
      "d": 83.33333333332848,
      "v": 66
    },
    {
      "midi": 63,
      "hit": false,
      "t": 64433.33333333329,
      "d": 83.33333333332848,
      "v": 70
    },
    {
      "midi": 60,
      "hit": false,
      "t": 64449.999999999956,
      "d": 66.66666666666424,
      "v": 61
    },
    {
      "midi": 56,
      "hit": false,
      "t": 65383.333333333285,
      "d": 83.33333333332848,
      "v": 66
    },
    {
      "midi": 60,
      "hit": false,
      "t": 65399.99999999995,
      "d": 50,
      "v": 61
    },
    {
      "midi": 63,
      "hit": false,
      "t": 65399.99999999995,
      "d": 50,
      "v": 48
    },
    {
      "midi": 56,
      "hit": false,
      "t": 65799.99999999994,
      "d": 66.66666666667152,
      "v": 57
    },
    {
      "midi": 60,
      "hit": false,
      "t": 65816.66666666661,
      "d": 33.33333333332848,
      "v": 55
    },
    {
      "midi": 63,
      "hit": false,
      "t": 65816.66666666661,
      "d": 50,
      "v": 56
    },
    {
      "midi": 63,
      "hit": false,
      "t": 66183.33333333328,
      "d": 333.3333333333285,
      "v": 62
    },
    {
      "midi": 60,
      "hit": false,
      "t": 66183.33333333328,
      "d": 350,
      "v": 70
    },
    {
      "midi": 56,
      "hit": false,
      "t": 66183.33333333328,
      "d": 416.6666666666715,
      "v": 70
    },
    {
      "midi": 56,
      "hit": false,
      "t": 66683.33333333328,
      "d": 83.33333333334303,
      "v": 54
    },
    {
      "midi": 63,
      "hit": false,
      "t": 66699.99999999996,
      "d": 50,
      "v": 70
    },
    {
      "midi": 60,
      "hit": false,
      "t": 66716.66666666663,
      "d": 33.33333333332848,
      "v": 57
    },
    {
      "midi": 61,
      "hit": false,
      "t": 67683.3333333333,
      "d": 50,
      "v": 70
    },
    {
      "midi": 60,
      "hit": false,
      "t": 67683.3333333333,
      "d": 66.66666666667152,
      "v": 72
    },
    {
      "midi": 65,
      "hit": false,
      "t": 67683.3333333333,
      "d": 66.66666666667152,
      "v": 63
    },
    {
      "midi": 61,
      "hit": false,
      "t": 68083.3333333333,
      "d": 400,
      "v": 68
    },
    {
      "midi": 65,
      "hit": false,
      "t": 68083.3333333333,
      "d": 400,
      "v": 67
    },
    {
      "midi": 60,
      "hit": false,
      "t": 68099.99999999997,
      "d": 416.66666666665697,
      "v": 48
    },
    {
      "midi": 60,
      "hit": false,
      "t": 69166.66666666663,
      "d": 100,
      "v": 67
    },
    {
      "midi": 65,
      "hit": false,
      "t": 69183.3333333333,
      "d": 50,
      "v": 58
    },
    {
      "midi": 67,
      "hit": false,
      "t": 69183.3333333333,
      "d": 50,
      "v": 63
    },
    {
      "midi": 65,
      "hit": false,
      "t": 69583.3333333333,
      "d": 350,
      "v": 72
    },
    {
      "midi": 67,
      "hit": false,
      "t": 69583.3333333333,
      "d": 366.6666666666715,
      "v": 72
    },
    {
      "midi": 60,
      "hit": false,
      "t": 69583.3333333333,
      "d": 416.6666666666715,
      "v": 67
    },
    {
      "midi": 59,
      "hit": false,
      "t": 70733.3333333333,
      "d": 100.00000000001455,
      "v": 65
    },
    {
      "midi": 62,
      "hit": false,
      "t": 70749.99999999997,
      "d": 66.66666666667152,
      "v": 44
    },
    {
      "midi": 65,
      "hit": false,
      "t": 70749.99999999997,
      "d": 83.33333333334303,
      "v": 63
    },
    {
      "midi": 59,
      "hit": false,
      "t": 71149.99999999999,
      "d": 383.3333333333285,
      "v": 70
    },
    {
      "midi": 65,
      "hit": false,
      "t": 71149.99999999999,
      "d": 383.3333333333285,
      "v": 75
    },
    {
      "midi": 62,
      "hit": false,
      "t": 71149.99999999999,
      "d": 400,
      "v": 68
    },
    {
      "midi": 66,
      "hit": false,
      "t": 72016.66666666666,
      "d": 66.66666666667152,
      "v": 92
    },
    {
      "midi": 72,
      "hit": false,
      "t": 72016.66666666666,
      "d": 200,
      "v": 89
    },
    {
      "midi": 60,
      "hit": false,
      "t": 72066.66666666666,
      "d": 166.66666666667152,
      "v": 18
    },
    {
      "midi": 67,
      "hit": false,
      "t": 72416.66666666666,
      "d": 133.33333333332848,
      "v": 82
    },
    {
      "midi": 70,
      "hit": false,
      "t": 72416.66666666666,
      "d": 150,
      "v": 76
    },
    {
      "midi": 67,
      "hit": false,
      "t": 73116.66666666666,
      "d": 83.33333333334303,
      "v": 77
    },
    {
      "midi": 72,
      "hit": false,
      "t": 73133.33333333333,
      "d": 50,
      "v": 65
    },
    {
      "midi": 64,
      "hit": false,
      "t": 73133.33333333333,
      "d": 66.66666666667152,
      "v": 64
    },
    {
      "midi": 48,
      "hit": false,
      "t": 75450,
      "d": 83.33333333334303,
      "v": 95
    },
    {
      "midi": 50,
      "hit": false,
      "t": 75516.66666666667,
      "d": 66.66666666667152,
      "v": 19
    },
    {
      "midi": 52,
      "hit": false,
      "t": 75566.66666666667,
      "d": 83.33333333332848,
      "v": 75
    },
    {
      "midi": 53,
      "hit": false,
      "t": 75616.66666666667,
      "d": 66.66666666667152,
      "v": 92
    },
    {
      "midi": 55,
      "hit": false,
      "t": 75666.66666666667,
      "d": 66.66666666667152,
      "v": 101
    },
    {
      "midi": 57,
      "hit": false,
      "t": 75716.66666666667,
      "d": 66.66666666667152,
      "v": 95
    },
    {
      "midi": 59,
      "hit": false,
      "t": 75783.33333333334,
      "d": 66.66666666667152,
      "v": 84
    },
    {
      "midi": 60,
      "hit": false,
      "t": 75833.33333333334,
      "d": 66.66666666667152,
      "v": 79
    },
    {
      "midi": 62,
      "hit": false,
      "t": 75883.33333333334,
      "d": 66.66666666667152,
      "v": 61
    },
    {
      "midi": 64,
      "hit": false,
      "t": 75933.33333333334,
      "d": 66.66666666667152,
      "v": 63
    },
    {
      "midi": 65,
      "hit": false,
      "t": 75983.33333333334,
      "d": 66.66666666667152,
      "v": 87
    },
    {
      "midi": 67,
      "hit": false,
      "t": 76033.33333333334,
      "d": 50,
      "v": 95
    },
    {
      "midi": 69,
      "hit": false,
      "t": 76083.33333333334,
      "d": 33.33333333332848,
      "v": 107
    },
    {
      "midi": 56,
      "hit": false,
      "t": 76250,
      "d": 1183.3333333333285,
      "v": 72
    },
    {
      "midi": 60,
      "hit": false,
      "t": 76250,
      "d": 1183.3333333333285,
      "v": 84
    },
    {
      "midi": 55,
      "hit": false,
      "t": 76250,
      "d": 1316.666666666657,
      "v": 77
    },
    {
      "midi": 51,
      "hit": false,
      "t": 77733.33333333333,
      "d": 216.66666666667152,
      "v": 28
    },
    {
      "midi": 58,
      "hit": false,
      "t": 78133.33333333333,
      "d": 116.66666666667152,
      "v": 74
    },
    {
      "midi": 55,
      "hit": false,
      "t": 78133.33333333333,
      "d": 150,
      "v": 72
    },
    {
      "midi": 51,
      "hit": false,
      "t": 78500,
      "d": 116.66666666667152,
      "v": 44
    },
    {
      "midi": 58,
      "hit": false,
      "t": 78766.66666666667,
      "d": 183.33333333334303,
      "v": 66
    },
    {
      "midi": 55,
      "hit": false,
      "t": 78766.66666666667,
      "d": 466.6666666666715,
      "v": 65
    },
    {
      "midi": 60,
      "hit": false,
      "t": 78933.33333333334,
      "d": 266.6666666666715,
      "v": 87
    },
    {
      "midi": 58,
      "hit": false,
      "t": 79300.00000000001,
      "d": 933.3333333333285,
      "v": 72
    },
    {
      "midi": 55,
      "hit": false,
      "t": 79300.00000000001,
      "d": 1083.3333333333285,
      "v": 68
    },
    {
      "midi": 51,
      "hit": false,
      "t": 79316.66666666669,
      "d": 833.3333333333285,
      "v": 56
    },
    {
      "midi": 41,
      "hit": false,
      "t": 80750.00000000001,
      "d": 466.66666666665697,
      "v": 72
    },
    {
      "midi": 56,
      "hit": false,
      "t": 80766.66666666669,
      "d": 383.3333333333285,
      "v": 66
    },
    {
      "midi": 60,
      "hit": false,
      "t": 80766.66666666669,
      "d": 383.3333333333285,
      "v": 75
    },
    {
      "midi": 55,
      "hit": false,
      "t": 80766.66666666669,
      "d": 533.3333333333285,
      "v": 73
    },
    {
      "midi": 60,
      "hit": false,
      "t": 81183.33333333334,
      "d": 83.33333333332848,
      "v": 55
    },
    {
      "midi": 56,
      "hit": false,
      "t": 81183.33333333334,
      "d": 100,
      "v": 62
    },
    {
      "midi": 55,
      "hit": false,
      "t": 82950.00000000001,
      "d": 50,
      "v": 67
    },
    {
      "midi": 56,
      "hit": false,
      "t": 82950.00000000001,
      "d": 50,
      "v": 60
    },
    {
      "midi": 60,
      "hit": false,
      "t": 82966.66666666669,
      "d": 33.33333333332848,
      "v": 63
    },
    {
      "midi": 51,
      "hit": false,
      "t": 83833.33333333334,
      "d": 583.3333333333285,
      "v": 64
    },
    {
      "midi": 58,
      "hit": false,
      "t": 83866.66666666667,
      "d": 433.33333333334303,
      "v": 57
    },
    {
      "midi": 55,
      "hit": false,
      "t": 83883.33333333334,
      "d": 450,
      "v": 48
    },
    {
      "midi": 58,
      "hit": false,
      "t": 84450,
      "d": 50,
      "v": 70
    },
    {
      "midi": 55,
      "hit": false,
      "t": 84450,
      "d": 66.66666666667152,
      "v": 67
    },
    {
      "midi": 56,
      "hit": false,
      "t": 85333.33333333334,
      "d": 466.6666666666715,
      "v": 70
    },
    {
      "midi": 60,
      "hit": false,
      "t": 85350.00000000001,
      "d": 450,
      "v": 72
    },
    {
      "midi": 44,
      "hit": false,
      "t": 85350.00000000001,
      "d": 533.3333333333285,
      "v": 62
    },
    {
      "midi": 51,
      "hit": false,
      "t": 85350.00000000001,
      "d": 533.3333333333285,
      "v": 59
    },
    {
      "midi": 56,
      "hit": false,
      "t": 85883.33333333334,
      "d": 66.66666666667152,
      "v": 74
    },
    {
      "midi": 60,
      "hit": false,
      "t": 85900.00000000001,
      "d": 50,
      "v": 79
    },
    {
      "midi": 56,
      "hit": false,
      "t": 86866.66666666669,
      "d": 500.00000000001455,
      "v": 60
    },
    {
      "midi": 41,
      "hit": false,
      "t": 86866.66666666669,
      "d": 533.333333333343,
      "v": 68
    },
    {
      "midi": 60,
      "hit": false,
      "t": 86883.33333333336,
      "d": 400,
      "v": 73
    },
    {
      "midi": 55,
      "hit": false,
      "t": 86883.33333333336,
      "d": 466.6666666666715,
      "v": 65
    },
    {
      "midi": 60,
      "hit": false,
      "t": 87450.00000000003,
      "d": 50,
      "v": 77
    },
    {
      "midi": 56,
      "hit": false,
      "t": 87450.00000000003,
      "d": 66.66666666667152,
      "v": 76
    },
    {
      "midi": 55,
      "hit": false,
      "t": 87450.00000000003,
      "d": 83.33333333334303,
      "v": 79
    },
    {
      "midi": 55,
      "hit": false,
      "t": 87983.33333333337,
      "d": 66.66666666667152,
      "v": 63
    },
    {
      "midi": 56,
      "hit": false,
      "t": 87983.33333333337,
      "d": 66.66666666667152,
      "v": 68
    },
    {
      "midi": 60,
      "hit": false,
      "t": 88000.00000000004,
      "d": 50,
      "v": 64
    },
    {
      "midi": 61,
      "hit": false,
      "t": 88433.33333333337,
      "d": 350,
      "v": 64
    },
    {
      "midi": 60,
      "hit": false,
      "t": 88450.00000000004,
      "d": 333.3333333333285,
      "v": 35
    },
    {
      "midi": 65,
      "hit": false,
      "t": 88450.00000000004,
      "d": 333.3333333333285,
      "v": 73
    },
    {
      "midi": 58,
      "hit": false,
      "t": 88450.00000000004,
      "d": 383.3333333333285,
      "v": 72
    },
    {
      "midi": 61,
      "hit": false,
      "t": 88850.00000000004,
      "d": 83.33333333334303,
      "v": 74
    },
    {
      "midi": 65,
      "hit": false,
      "t": 88866.66666666672,
      "d": 66.66666666667152,
      "v": 72
    },
    {
      "midi": 60,
      "hit": false,
      "t": 88866.66666666672,
      "d": 100,
      "v": 58
    },
    {
      "midi": 53,
      "hit": false,
      "t": 89916.66666666672,
      "d": 816.6666666666715,
      "v": 67
    },
    {
      "midi": 65,
      "hit": false,
      "t": 89933.33333333339,
      "d": 1000,
      "v": 65
    },
    {
      "midi": 60,
      "hit": false,
      "t": 89933.33333333339,
      "d": 1016.6666666666715,
      "v": 64
    },
    {
      "midi": 68,
      "hit": false,
      "t": 89950.00000000006,
      "d": 950,
      "v": 70
    },
    {
      "midi": 55,
      "hit": false,
      "t": 91466.66666666673,
      "d": 933.333333333343,
      "v": 79
    },
    {
      "midi": 59,
      "hit": false,
      "t": 91483.3333333334,
      "d": 1016.6666666666715,
      "v": 50
    },
    {
      "midi": 62,
      "hit": false,
      "t": 91483.3333333334,
      "d": 1083.333333333343,
      "v": 53
    },
    {
      "midi": 65,
      "hit": false,
      "t": 91483.3333333334,
      "d": 1083.333333333343,
      "v": 72
    },
    {
      "midi": 48,
      "hit": false,
      "t": 92983.33333333342,
      "d": 1883.333333333343,
      "v": 64
    },
    {
      "midi": 58,
      "hit": false,
      "t": 92983.33333333342,
      "d": 1933.333333333343,
      "v": 46
    },
    {
      "midi": 60,
      "hit": false,
      "t": 93000.00000000009,
      "d": 683.3333333333285,
      "v": 67
    },
    {
      "midi": 64,
      "hit": false,
      "t": 93000.00000000009,
      "d": 700,
      "v": 70
    },
    {
      "midi": 67,
      "hit": false,
      "t": 93000.00000000009,
      "d": 733.3333333333285,
      "v": 79
    },
    {
      "midi": 55,
      "hit": false,
      "t": 93000.00000000009,
      "d": 1150,
      "v": 75
    },
    {
      "midi": 64,
      "hit": false,
      "t": 94050.00000000009,
      "d": 100,
      "v": 70
    },
    {
      "midi": 67,
      "hit": false,
      "t": 94150.00000000009,
      "d": 283.3333333333285,
      "v": 75
    },
    {
      "midi": 64,
      "hit": false,
      "t": 94516.66666666674,
      "d": 333.33333333334303,
      "v": 73
    },
    {
      "midi": 67,
      "hit": false,
      "t": 94533.33333333342,
      "d": 300,
      "v": 73
    },
    {
      "midi": 72,
      "hit": false,
      "t": 94533.33333333342,
      "d": 300,
      "v": 79
    },
    {
      "midi": 60,
      "hit": false,
      "t": 96050.00000000009,
      "d": 400,
      "v": 89
    },
    {
      "midi": 41,
      "hit": false,
      "t": 96050.00000000009,
      "d": 466.6666666666715,
      "v": 79
    },
    {
      "midi": 56,
      "hit": false,
      "t": 96050.00000000009,
      "d": 466.6666666666715,
      "v": 86
    },
    {
      "midi": 55,
      "hit": false,
      "t": 96050.00000000009,
      "d": 500,
      "v": 79
    },
    {
      "midi": 56,
      "hit": false,
      "t": 96650.00000000009,
      "d": 50,
      "v": 78
    },
    {
      "midi": 60,
      "hit": false,
      "t": 96650.00000000009,
      "d": 50,
      "v": 72
    },
    {
      "midi": 55,
      "hit": false,
      "t": 96650.00000000009,
      "d": 66.66666666667152,
      "v": 79
    },
    {
      "midi": 56,
      "hit": false,
      "t": 97066.66666666676,
      "d": 66.66666666667152,
      "v": 76
    },
    {
      "midi": 60,
      "hit": false,
      "t": 97066.66666666676,
      "d": 66.66666666667152,
      "v": 79
    },
    {
      "midi": 55,
      "hit": false,
      "t": 97066.66666666676,
      "d": 100,
      "v": 79
    },
    {
      "midi": 56,
      "hit": false,
      "t": 98166.66666666676,
      "d": 33.333333333343035,
      "v": 66
    },
    {
      "midi": 55,
      "hit": false,
      "t": 98183.33333333343,
      "d": 50,
      "v": 65
    },
    {
      "midi": 56,
      "hit": false,
      "t": 98583.33333333343,
      "d": 433.3333333333285,
      "v": 74
    },
    {
      "midi": 55,
      "hit": false,
      "t": 98583.33333333343,
      "d": 450,
      "v": 75
    },
    {
      "midi": 60,
      "hit": false,
      "t": 98600.0000000001,
      "d": 333.3333333333285,
      "v": 75
    },
    {
      "midi": 58,
      "hit": false,
      "t": 100466.66666666676,
      "d": 33.33333333332848,
      "v": 47
    },
    {
      "midi": 56,
      "hit": false,
      "t": 100466.66666666676,
      "d": 50,
      "v": 78
    },
    {
      "midi": 58,
      "hit": false,
      "t": 100883.33333333343,
      "d": 766.6666666666715,
      "v": 70
    },
    {
      "midi": 56,
      "hit": false,
      "t": 100883.33333333343,
      "d": 783.333333333343,
      "v": 78
    },
    {
      "midi": 53,
      "hit": false,
      "t": 100983.33333333343,
      "d": 666.6666666666715,
      "v": 7
    },
    {
      "midi": 61,
      "hit": false,
      "t": 101733.33333333344,
      "d": 100,
      "v": 68
    },
    {
      "midi": 56,
      "hit": false,
      "t": 101733.33333333344,
      "d": 150,
      "v": 72
    },
    {
      "midi": 53,
      "hit": false,
      "t": 101750.00000000012,
      "d": 250,
      "v": 67
    },
    {
      "midi": 58,
      "hit": false,
      "t": 101750.00000000012,
      "d": 266.6666666666715,
      "v": 74
    },
    {
      "midi": 56,
      "hit": false,
      "t": 103500.00000000012,
      "d": 50,
      "v": 68
    },
    {
      "midi": 55,
      "hit": false,
      "t": 103500.00000000012,
      "d": 66.66666666667152,
      "v": 68
    },
    {
      "midi": 60,
      "hit": false,
      "t": 103516.66666666679,
      "d": 33.33333333332848,
      "v": 48
    },
    {
      "midi": 56,
      "hit": false,
      "t": 103883.33333333346,
      "d": 900,
      "v": 74
    },
    {
      "midi": 55,
      "hit": false,
      "t": 103883.33333333346,
      "d": 966.6666666666715,
      "v": 72
    },
    {
      "midi": 60,
      "hit": false,
      "t": 103900.00000000013,
      "d": 933.3333333333285,
      "v": 63
    },
    {
      "midi": 58,
      "hit": false,
      "t": 105216.6666666668,
      "d": 950,
      "v": 59
    },
    {
      "midi": 61,
      "hit": false,
      "t": 105216.6666666668,
      "d": 1000,
      "v": 66
    },
    {
      "midi": 65,
      "hit": false,
      "t": 105233.33333333347,
      "d": 1050,
      "v": 73
    },
    {
      "midi": 60,
      "hit": false,
      "t": 106716.6666666668,
      "d": 1016.6666666666715,
      "v": 64
    },
    {
      "midi": 65,
      "hit": false,
      "t": 106716.6666666668,
      "d": 1016.6666666666715,
      "v": 77
    },
    {
      "midi": 57,
      "hit": false,
      "t": 106716.6666666668,
      "d": 1033.333333333343,
      "v": 79
    },
    {
      "midi": 41,
      "hit": false,
      "t": 106716.6666666668,
      "d": 1166.666666666686,
      "v": 77
    },
    {
      "midi": 65,
      "hit": false,
      "t": 107866.66666666682,
      "d": 150,
      "v": 70
    },
    {
      "midi": 60,
      "hit": false,
      "t": 107883.33333333349,
      "d": 100,
      "v": 72
    },
    {
      "midi": 57,
      "hit": false,
      "t": 107883.33333333349,
      "d": 133.33333333332848,
      "v": 73
    },
    {
      "midi": 58,
      "hit": false,
      "t": 108300.00000000015,
      "d": 483.3333333333285,
      "v": 57
    },
    {
      "midi": 70,
      "hit": false,
      "t": 108300.00000000015,
      "d": 483.3333333333285,
      "v": 76
    },
    {
      "midi": 73,
      "hit": false,
      "t": 108300.00000000015,
      "d": 483.3333333333285,
      "v": 76
    },
    {
      "midi": 65,
      "hit": false,
      "t": 108300.00000000015,
      "d": 500,
      "v": 70
    },
    {
      "midi": 70,
      "hit": false,
      "t": 108883.33333333347,
      "d": 50.00000000001455,
      "v": 60
    },
    {
      "midi": 73,
      "hit": false,
      "t": 108900.00000000015,
      "d": 33.333333333343035,
      "v": 53
    },
    {
      "midi": 65,
      "hit": false,
      "t": 108916.66666666682,
      "d": 33.333333333343035,
      "v": 25
    },
    {
      "midi": 63,
      "hit": false,
      "t": 109766.66666666683,
      "d": 566.6666666666861,
      "v": 70
    },
    {
      "midi": 70,
      "hit": false,
      "t": 109783.3333333335,
      "d": 516.6666666666715,
      "v": 70
    },
    {
      "midi": 67,
      "hit": false,
      "t": 109783.3333333335,
      "d": 533.333333333343,
      "v": 72
    },
    {
      "midi": 75,
      "hit": false,
      "t": 109800.00000000017,
      "d": 466.6666666666715,
      "v": 59
    },
    {
      "midi": 70,
      "hit": false,
      "t": 110383.33333333352,
      "d": 50,
      "v": 70
    },
    {
      "midi": 67,
      "hit": false,
      "t": 110383.33333333352,
      "d": 100,
      "v": 70
    },
    {
      "midi": 75,
      "hit": false,
      "t": 110400.00000000019,
      "d": 33.33333333332848,
      "v": 49
    },
    {
      "midi": 72,
      "hit": false,
      "t": 111283.33333333352,
      "d": 133.33333333332848,
      "v": 64
    },
    {
      "midi": 68,
      "hit": false,
      "t": 111283.33333333352,
      "d": 283.3333333333285,
      "v": 62
    },
    {
      "midi": 67,
      "hit": false,
      "t": 111283.33333333352,
      "d": 300,
      "v": 49
    },
    {
      "midi": 56,
      "hit": false,
      "t": 111283.33333333352,
      "d": 400,
      "v": 59
    },
    {
      "midi": 63,
      "hit": false,
      "t": 111283.33333333352,
      "d": 400,
      "v": 66
    },
    {
      "midi": 68,
      "hit": false,
      "t": 111666.66666666685,
      "d": 83.33333333334303,
      "v": 76
    },
    {
      "midi": 72,
      "hit": false,
      "t": 111666.66666666685,
      "d": 83.33333333334303,
      "v": 77
    },
    {
      "midi": 67,
      "hit": false,
      "t": 111666.66666666685,
      "d": 100.00000000001455,
      "v": 54
    },
    {
      "midi": 61,
      "hit": false,
      "t": 112800.00000000019,
      "d": 500.00000000001455,
      "v": 64
    },
    {
      "midi": 73,
      "hit": false,
      "t": 112816.66666666686,
      "d": 400,
      "v": 68
    },
    {
      "midi": 68,
      "hit": false,
      "t": 112816.66666666686,
      "d": 466.6666666666715,
      "v": 51
    },
    {
      "midi": 65,
      "hit": false,
      "t": 112816.66666666686,
      "d": 483.33333333334303,
      "v": 38
    },
    {
      "midi": 73,
      "hit": false,
      "t": 113416.66666666688,
      "d": 50,
      "v": 56
    },
    {
      "midi": 68,
      "hit": false,
      "t": 113416.66666666688,
      "d": 66.66666666667152,
      "v": 56
    },
    {
      "midi": 65,
      "hit": false,
      "t": 113433.33333333355,
      "d": 66.66666666667152,
      "v": 36
    },
    {
      "midi": 65,
      "hit": false,
      "t": 113833.33333333355,
      "d": 116.66666666667152,
      "v": 55
    },
    {
      "midi": 68,
      "hit": false,
      "t": 113850.00000000022,
      "d": 66.66666666667152,
      "v": 57
    },
    {
      "midi": 73,
      "hit": false,
      "t": 113850.00000000022,
      "d": 100,
      "v": 66
    },
    {
      "midi": 58,
      "hit": false,
      "t": 114350.00000000022,
      "d": 766.6666666666715,
      "v": 74
    },
    {
      "midi": 46,
      "hit": false,
      "t": 114350.00000000022,
      "d": 800,
      "v": 66
    },
    {
      "midi": 61,
      "hit": false,
      "t": 114366.66666666689,
      "d": 750,
      "v": 66
    },
    {
      "midi": 53,
      "hit": false,
      "t": 114366.66666666689,
      "d": 816.666666666657,
      "v": 67
    },
    {
      "midi": 46,
      "hit": false,
      "t": 115450.00000000022,
      "d": 183.33333333334303,
      "v": 62
    },
    {
      "midi": 58,
      "hit": false,
      "t": 115483.33333333355,
      "d": 116.66666666667152,
      "v": 74
    },
    {
      "midi": 61,
      "hit": false,
      "t": 115483.33333333355,
      "d": 133.33333333334303,
      "v": 68
    },
    {
      "midi": 53,
      "hit": false,
      "t": 115500.00000000022,
      "d": 100,
      "v": 43
    },
    {
      "midi": 60,
      "hit": false,
      "t": 115900.00000000023,
      "d": 1000,
      "v": 75
    },
    {
      "midi": 48,
      "hit": false,
      "t": 117400.00000000023,
      "d": 983.333333333343,
      "v": 65
    },
    {
      "midi": 55,
      "hit": false,
      "t": 117400.00000000023,
      "d": 1050.0000000000146,
      "v": 79
    },
    {
      "midi": 58,
      "hit": false,
      "t": 117400.00000000023,
      "d": 1050.0000000000146,
      "v": 62
    },
    {
      "midi": 52,
      "hit": false,
      "t": 117416.6666666669,
      "d": 900,
      "v": 63
    },
    {
      "midi": 64,
      "hit": false,
      "t": 117416.6666666669,
      "d": 1116.6666666666715,
      "v": 63
    },
    {
      "midi": 60,
      "hit": false,
      "t": 117433.33333333358,
      "d": 1066.6666666666715,
      "v": 39
    },
    {
      "midi": 57,
      "hit": false,
      "t": 118900.00000000025,
      "d": 683.333333333343,
      "v": 79
    },
    {
      "midi": 63,
      "hit": false,
      "t": 118900.00000000025,
      "d": 683.333333333343,
      "v": 72
    },
    {
      "midi": 60,
      "hit": false,
      "t": 118900.00000000025,
      "d": 700.0000000000146,
      "v": 84
    },
    {
      "midi": 48,
      "hit": false,
      "t": 118900.00000000025,
      "d": 1233.3333333333721,
      "v": 72
    },
    {
      "midi": 41,
      "hit": false,
      "t": 118916.66666666692,
      "d": 1250.000000000029,
      "v": 61
    },
    {
      "midi": 57,
      "hit": false,
      "t": 119666.66666666693,
      "d": 433.33333333334303,
      "v": 64
    },
    {
      "midi": 60,
      "hit": false,
      "t": 119683.3333333336,
      "d": 416.6666666666715,
      "v": 77
    },
    {
      "midi": 65,
      "hit": false,
      "t": 119683.3333333336,
      "d": 433.33333333334303,
      "v": 67
    },
    {
      "midi": 63,
      "hit": false,
      "t": 119700.00000000028,
      "d": 50,
      "v": 62
    },
    {
      "midi": 58,
      "hit": false,
      "t": 120500.00000000028,
      "d": 483.3333333333285,
      "v": 57
    },
    {
      "midi": 70,
      "hit": false,
      "t": 120500.00000000028,
      "d": 483.3333333333285,
      "v": 76
    },
    {
      "midi": 73,
      "hit": false,
      "t": 120500.00000000028,
      "d": 483.3333333333285,
      "v": 76
    },
    {
      "midi": 65,
      "hit": false,
      "t": 120500.00000000028,
      "d": 500,
      "v": 70
    },
    {
      "midi": 70,
      "hit": false,
      "t": 121083.3333333336,
      "d": 50,
      "v": 60
    },
    {
      "midi": 73,
      "hit": false,
      "t": 121083.3333333336,
      "d": 50,
      "v": 53
    },
    {
      "midi": 65,
      "hit": false,
      "t": 121100.00000000028,
      "d": 50,
      "v": 25
    },
    {
      "midi": 63,
      "hit": false,
      "t": 121966.66666666695,
      "d": 566.6666666666715,
      "v": 70
    },
    {
      "midi": 67,
      "hit": false,
      "t": 121983.33333333362,
      "d": 516.6666666666715,
      "v": 72
    },
    {
      "midi": 70,
      "hit": false,
      "t": 121983.33333333362,
      "d": 516.6666666666715,
      "v": 70
    },
    {
      "midi": 75,
      "hit": false,
      "t": 122000.00000000029,
      "d": 450,
      "v": 59
    },
    {
      "midi": 70,
      "hit": false,
      "t": 122566.66666666695,
      "d": 66.66666666667152,
      "v": 70
    },
    {
      "midi": 67,
      "hit": false,
      "t": 122566.66666666695,
      "d": 100,
      "v": 70
    },
    {
      "midi": 75,
      "hit": false,
      "t": 122583.33333333362,
      "d": 33.33333333332848,
      "v": 49
    },
    {
      "midi": 56,
      "hit": false,
      "t": 123433.33333333362,
      "d": 1100,
      "v": 62
    },
    {
      "midi": 60,
      "hit": false,
      "t": 123433.33333333362,
      "d": 1116.6666666666715,
      "v": 84
    },
    {
      "midi": 44,
      "hit": false,
      "t": 123433.33333333362,
      "d": 1150,
      "v": 57
    },
    {
      "midi": 51,
      "hit": false,
      "t": 123433.33333333362,
      "d": 1216.6666666666715,
      "v": 68
    },
    {
      "midi": 63,
      "hit": false,
      "t": 123433.33333333362,
      "d": 1216.6666666666715,
      "v": 70
    },
    {
      "midi": 53,
      "hit": false,
      "t": 124950.00000000029,
      "d": 900,
      "v": 51
    },
    {
      "midi": 46,
      "hit": false,
      "t": 124966.66666666696,
      "d": 800,
      "v": 66
    },
    {
      "midi": 49,
      "hit": false,
      "t": 124966.66666666696,
      "d": 800,
      "v": 62
    },
    {
      "midi": 61,
      "hit": false,
      "t": 124966.66666666696,
      "d": 950,
      "v": 70
    },
    {
      "midi": 65,
      "hit": false,
      "t": 124966.66666666696,
      "d": 983.3333333333285,
      "v": 72
    },
    {
      "midi": 58,
      "hit": false,
      "t": 124983.33333333363,
      "d": 883.3333333333285,
      "v": 47
    },
    {
      "midi": 48,
      "hit": false,
      "t": 126483.33333333362,
      "d": 1016.6666666666715,
      "v": 68
    },
    {
      "midi": 58,
      "hit": false,
      "t": 126483.33333333362,
      "d": 1016.6666666666715,
      "v": 66
    },
    {
      "midi": 52,
      "hit": false,
      "t": 126500.00000000029,
      "d": 950,
      "v": 58
    },
    {
      "midi": 60,
      "hit": false,
      "t": 126500.00000000029,
      "d": 983.3333333333285,
      "v": 54
    },
    {
      "midi": 64,
      "hit": false,
      "t": 126500.00000000029,
      "d": 1000,
      "v": 57
    },
    {
      "midi": 55,
      "hit": false,
      "t": 126500.00000000029,
      "d": 1016.6666666666715,
      "v": 70
    },
    {
      "midi": 58,
      "hit": false,
      "t": 127850.00000000029,
      "d": 66.66666666667152,
      "v": 66
    },
    {
      "midi": 55,
      "hit": false,
      "t": 127850.00000000029,
      "d": 100,
      "v": 79
    },
    {
      "midi": 60,
      "hit": false,
      "t": 127866.66666666696,
      "d": 50,
      "v": 68
    },
    {
      "midi": 64,
      "hit": false,
      "t": 127866.66666666696,
      "d": 50,
      "v": 49
    },
    {
      "midi": 64,
      "hit": false,
      "t": 128316.66666666696,
      "d": 750,
      "v": 51
    },
    {
      "midi": 60,
      "hit": false,
      "t": 128316.66666666696,
      "d": 816.6666666666715,
      "v": 55
    },
    {
      "midi": 58,
      "hit": false,
      "t": 128316.66666666696,
      "d": 833.333333333343,
      "v": 56
    },
    {
      "midi": 55,
      "hit": false,
      "t": 128316.66666666696,
      "d": 866.6666666666715,
      "v": 68
    },
    {
      "midi": 55,
      "hit": false,
      "t": 129583.33333333363,
      "d": 750.0000000000146,
      "v": 73
    },
    {
      "midi": 56,
      "hit": false,
      "t": 129583.33333333363,
      "d": 750.0000000000146,
      "v": 76
    },
    {
      "midi": 41,
      "hit": false,
      "t": 129583.33333333363,
      "d": 816.6666666666861,
      "v": 68
    },
    {
      "midi": 60,
      "hit": false,
      "t": 129600.0000000003,
      "d": 716.6666666666715,
      "v": 73
    },
    {
      "midi": 56,
      "hit": false,
      "t": 130950.00000000032,
      "d": 66.66666666667152,
      "v": 57
    },
    {
      "midi": 55,
      "hit": false,
      "t": 130950.00000000032,
      "d": 100.00000000001455,
      "v": 53
    },
    {
      "midi": 60,
      "hit": false,
      "t": 130966.66666666699,
      "d": 66.66666666667152,
      "v": 64
    },
    {
      "midi": 56,
      "hit": false,
      "t": 131333.33333333366,
      "d": 83.33333333331393,
      "v": 64
    },
    {
      "midi": 55,
      "hit": false,
      "t": 131333.33333333366,
      "d": 99.9999999999709,
      "v": 46
    },
    {
      "midi": 60,
      "hit": false,
      "t": 131350.00000000032,
      "d": 66.66666666665697,
      "v": 64
    },
    {
      "midi": 56,
      "hit": false,
      "t": 132216.66666666698,
      "d": 166.66666666665697,
      "v": 66
    },
    {
      "midi": 55,
      "hit": false,
      "t": 132233.33333333363,
      "d": 150,
      "v": 58
    },
    {
      "midi": 60,
      "hit": false,
      "t": 132250.0000000003,
      "d": 133.33333333334303,
      "v": 61
    },
    {
      "midi": 60,
      "hit": false,
      "t": 157016.66666666698,
      "d": 400,
      "v": 89
    },
    {
      "midi": 41,
      "hit": false,
      "t": 157016.66666666698,
      "d": 466.66666666665697,
      "v": 79
    },
    {
      "midi": 56,
      "hit": false,
      "t": 157016.66666666698,
      "d": 466.66666666665697,
      "v": 86
    },
    {
      "midi": 55,
      "hit": false,
      "t": 157016.66666666698,
      "d": 500,
      "v": 79
    },
    {
      "midi": 56,
      "hit": false,
      "t": 157616.66666666698,
      "d": 50,
      "v": 78
    },
    {
      "midi": 55,
      "hit": false,
      "t": 157616.66666666698,
      "d": 83.33333333334303,
      "v": 79
    },
    {
      "midi": 60,
      "hit": false,
      "t": 157633.33333333363,
      "d": 33.333333333343035,
      "v": 72
    },
    {
      "midi": 56,
      "hit": false,
      "t": 158033.33333333366,
      "d": 66.66666666665697,
      "v": 76
    },
    {
      "midi": 60,
      "hit": false,
      "t": 158033.33333333366,
      "d": 66.66666666665697,
      "v": 79
    },
    {
      "midi": 55,
      "hit": false,
      "t": 158033.33333333366,
      "d": 100,
      "v": 79
    },
    {
      "midi": 56,
      "hit": false,
      "t": 159133.33333333366,
      "d": 50,
      "v": 66
    },
    {
      "midi": 55,
      "hit": false,
      "t": 159150.00000000032,
      "d": 50,
      "v": 65
    },
    {
      "midi": 60,
      "hit": false,
      "t": 159566.66666666698,
      "d": 333.33333333334303,
      "v": 75
    },
    {
      "midi": 56,
      "hit": false,
      "t": 159566.66666666698,
      "d": 416.66666666668607,
      "v": 74
    },
    {
      "midi": 55,
      "hit": false,
      "t": 159566.66666666698,
      "d": 433.33333333334303,
      "v": 75
    },
    {
      "midi": 56,
      "hit": false,
      "t": 161433.33333333366,
      "d": 49.999999999970896,
      "v": 78
    },
    {
      "midi": 58,
      "hit": false,
      "t": 161450.00000000032,
      "d": 16.666666666656965,
      "v": 47
    },
    {
      "midi": 58,
      "hit": false,
      "t": 161850.0000000003,
      "d": 766.666666666657,
      "v": 70
    },
    {
      "midi": 56,
      "hit": false,
      "t": 161850.0000000003,
      "d": 783.3333333333139,
      "v": 78
    },
    {
      "midi": 53,
      "hit": false,
      "t": 161966.66666666695,
      "d": 666.666666666657,
      "v": 7
    },
    {
      "midi": 61,
      "hit": false,
      "t": 162716.66666666695,
      "d": 83.33333333334303,
      "v": 68
    },
    {
      "midi": 56,
      "hit": false,
      "t": 162716.66666666695,
      "d": 150,
      "v": 72
    },
    {
      "midi": 53,
      "hit": false,
      "t": 162716.66666666695,
      "d": 250,
      "v": 67
    },
    {
      "midi": 58,
      "hit": false,
      "t": 162716.66666666695,
      "d": 266.66666666665697,
      "v": 74
    },
    {
      "midi": 56,
      "hit": false,
      "t": 164466.66666666695,
      "d": 50,
      "v": 68
    },
    {
      "midi": 55,
      "hit": false,
      "t": 164466.66666666695,
      "d": 66.66666666665697,
      "v": 68
    },
    {
      "midi": 60,
      "hit": false,
      "t": 164483.3333333336,
      "d": 33.333333333343035,
      "v": 48
    },
    {
      "midi": 56,
      "hit": false,
      "t": 164850.00000000026,
      "d": 900,
      "v": 74
    },
    {
      "midi": 55,
      "hit": false,
      "t": 164850.00000000026,
      "d": 983.333333333343,
      "v": 72
    },
    {
      "midi": 60,
      "hit": false,
      "t": 164866.66666666692,
      "d": 933.333333333343,
      "v": 63
    },
    {
      "midi": 46,
      "hit": false,
      "t": 166150.00000000026,
      "d": 916.666666666657,
      "v": 74
    },
    {
      "midi": 61,
      "hit": false,
      "t": 167550.00000000026,
      "d": 33.333333333343035,
      "v": 56
    },
    {
      "midi": 56,
      "hit": false,
      "t": 167550.00000000026,
      "d": 50,
      "v": 78
    },
    {
      "midi": 58,
      "hit": false,
      "t": 167550.00000000026,
      "d": 50,
      "v": 76
    },
    {
      "midi": 53,
      "hit": false,
      "t": 167550.00000000026,
      "d": 66.66666666665697,
      "v": 72
    },
    {
      "midi": 61,
      "hit": false,
      "t": 167950.00000000026,
      "d": 783.333333333343,
      "v": 74
    },
    {
      "midi": 53,
      "hit": false,
      "t": 167950.00000000026,
      "d": 800,
      "v": 73
    },
    {
      "midi": 56,
      "hit": false,
      "t": 167950.00000000026,
      "d": 800,
      "v": 74
    },
    {
      "midi": 58,
      "hit": false,
      "t": 167950.00000000026,
      "d": 816.666666666657,
      "v": 68
    },
    {
      "midi": 56,
      "hit": false,
      "t": 172266.66666666692,
      "d": 66.66666666665697,
      "v": 66
    },
    {
      "midi": 55,
      "hit": false,
      "t": 172266.66666666692,
      "d": 83.33333333331393,
      "v": 72
    },
    {
      "midi": 60,
      "hit": false,
      "t": 172266.66666666692,
      "d": 83.33333333331393,
      "v": 75
    },
    {
      "midi": 56,
      "hit": false,
      "t": 172633.33333333358,
      "d": 83.33333333334303,
      "v": 59
    },
    {
      "midi": 60,
      "hit": false,
      "t": 172633.33333333358,
      "d": 100,
      "v": 75
    },
    {
      "midi": 55,
      "hit": false,
      "t": 172633.33333333358,
      "d": 116.66666666665697,
      "v": 65
    },
    {
      "midi": 55,
      "hit": false,
      "t": 173283.33333333358,
      "d": 133.33333333334303,
      "v": 79
    },
    {
      "midi": 60,
      "hit": false,
      "t": 173283.33333333358,
      "d": 483.33333333334303,
      "v": 84
    },
    {
      "midi": 56,
      "hit": false,
      "t": 173383.33333333358,
      "d": 383.33333333334303,
      "v": 68
    },
    {
      "midi": 41,
      "hit": false,
      "t": 173800.00000000026,
      "d": 33.333333333343035,
      "v": 27
    },
    {
      "midi": 58,
      "hit": false,
      "t": 174400.00000000026,
      "d": 66.66666666665697,
      "v": 68
    },
    {
      "midi": 55,
      "hit": false,
      "t": 174400.00000000026,
      "d": 83.33333333331393,
      "v": 61
    },
    {
      "midi": 51,
      "hit": false,
      "t": 174633.33333333358,
      "d": 33.333333333343035,
      "v": 39
    },
    {
      "midi": 58,
      "hit": false,
      "t": 174783.33333333358,
      "d": 366.66666666665697,
      "v": 74
    },
    {
      "midi": 55,
      "hit": false,
      "t": 174783.33333333358,
      "d": 416.66666666665697,
      "v": 72
    },
    {
      "midi": 58,
      "hit": false,
      "t": 176316.6666666669,
      "d": 66.66666666665697,
      "v": 70
    },
    {
      "midi": 55,
      "hit": false,
      "t": 176316.6666666669,
      "d": 83.33333333331393,
      "v": 70
    },
    {
      "midi": 58,
      "hit": false,
      "t": 176683.33333333355,
      "d": 66.66666666665697,
      "v": 54
    },
    {
      "midi": 55,
      "hit": false,
      "t": 176683.33333333355,
      "d": 83.33333333331393,
      "v": 65
    },
    {
      "midi": 60,
      "hit": false,
      "t": 176700.0000000002,
      "d": 50,
      "v": 72
    },
    {
      "midi": 56,
      "hit": false,
      "t": 178950.0000000002,
      "d": 50,
      "v": 59
    },
    {
      "midi": 61,
      "hit": false,
      "t": 178950.0000000002,
      "d": 50,
      "v": 59
    },
    {
      "midi": 53,
      "hit": false,
      "t": 178950.0000000002,
      "d": 66.66666666665697,
      "v": 58
    },
    {
      "midi": 53,
      "hit": false,
      "t": 179333.33333333352,
      "d": 483.33333333334303,
      "v": 67
    },
    {
      "midi": 56,
      "hit": false,
      "t": 179333.33333333352,
      "d": 500,
      "v": 66
    },
    {
      "midi": 61,
      "hit": false,
      "t": 179333.33333333352,
      "d": 500,
      "v": 74
    },
    {
      "midi": 58,
      "hit": false,
      "t": 180883.33333333352,
      "d": 50,
      "v": 66
    },
    {
      "midi": 63,
      "hit": false,
      "t": 180883.33333333352,
      "d": 50,
      "v": 64
    },
    {
      "midi": 55,
      "hit": false,
      "t": 180883.33333333352,
      "d": 83.33333333334303,
      "v": 77
    },
    {
      "midi": 55,
      "hit": false,
      "t": 181283.33333333352,
      "d": 50,
      "v": 17
    },
    {
      "midi": 44,
      "hit": false,
      "t": 181433.33333333352,
      "d": 350,
      "v": 64
    },
    {
      "midi": 56,
      "hit": false,
      "t": 181800.00000000017,
      "d": 83.33333333331393,
      "v": 66
    },
    {
      "midi": 63,
      "hit": false,
      "t": 181800.00000000017,
      "d": 83.33333333331393,
      "v": 70
    },
    {
      "midi": 60,
      "hit": false,
      "t": 181816.66666666683,
      "d": 66.66666666665697,
      "v": 61
    },
    {
      "midi": 60,
      "hit": false,
      "t": 182766.66666666683,
      "d": 50,
      "v": 61
    },
    {
      "midi": 63,
      "hit": false,
      "t": 182766.66666666683,
      "d": 50,
      "v": 48
    },
    {
      "midi": 56,
      "hit": false,
      "t": 182766.66666666683,
      "d": 66.66666666665697,
      "v": 66
    },
    {
      "midi": 56,
      "hit": false,
      "t": 183166.66666666683,
      "d": 66.66666666665697,
      "v": 57
    },
    {
      "midi": 60,
      "hit": false,
      "t": 183183.3333333335,
      "d": 33.333333333343035,
      "v": 55
    },
    {
      "midi": 63,
      "hit": false,
      "t": 183183.3333333335,
      "d": 50,
      "v": 56
    },
    {
      "midi": 56,
      "hit": false,
      "t": 183550.00000000015,
      "d": 416.66666666662786,
      "v": 70
    },
    {
      "midi": 63,
      "hit": false,
      "t": 183566.6666666668,
      "d": 316.66666666665697,
      "v": 62
    },
    {
      "midi": 60,
      "hit": false,
      "t": 183566.6666666668,
      "d": 333.33333333331393,
      "v": 70
    },
    {
      "midi": 56,
      "hit": false,
      "t": 184050.00000000012,
      "d": 83.33333333331393,
      "v": 54
    },
    {
      "midi": 63,
      "hit": false,
      "t": 184066.66666666677,
      "d": 66.66666666665697,
      "v": 70
    },
    {
      "midi": 60,
      "hit": false,
      "t": 184083.33333333343,
      "d": 33.333333333343035,
      "v": 57
    },
    {
      "midi": 61,
      "hit": false,
      "t": 185050.0000000001,
      "d": 50,
      "v": 70
    },
    {
      "midi": 60,
      "hit": false,
      "t": 185050.0000000001,
      "d": 66.66666666665697,
      "v": 72
    },
    {
      "midi": 65,
      "hit": false,
      "t": 185050.0000000001,
      "d": 66.66666666665697,
      "v": 63
    },
    {
      "midi": 61,
      "hit": false,
      "t": 185466.66666666674,
      "d": 383.33333333334303,
      "v": 68
    },
    {
      "midi": 65,
      "hit": false,
      "t": 185466.66666666674,
      "d": 400,
      "v": 67
    },
    {
      "midi": 60,
      "hit": false,
      "t": 185466.66666666674,
      "d": 416.66666666665697,
      "v": 48
    },
    {
      "midi": 60,
      "hit": false,
      "t": 186533.3333333334,
      "d": 99.9999999999709,
      "v": 67
    },
    {
      "midi": 65,
      "hit": false,
      "t": 186550.00000000006,
      "d": 66.66666666665697,
      "v": 58
    },
    {
      "midi": 67,
      "hit": false,
      "t": 186550.00000000006,
      "d": 66.66666666665697,
      "v": 63
    },
    {
      "midi": 65,
      "hit": false,
      "t": 186950.00000000003,
      "d": 350,
      "v": 72
    },
    {
      "midi": 67,
      "hit": false,
      "t": 186950.00000000003,
      "d": 366.66666666665697,
      "v": 72
    },
    {
      "midi": 60,
      "hit": false,
      "t": 186950.00000000003,
      "d": 416.66666666665697,
      "v": 67
    },
    {
      "midi": 59,
      "hit": false,
      "t": 188100.00000000003,
      "d": 99.9999999999709,
      "v": 65
    },
    {
      "midi": 65,
      "hit": false,
      "t": 188116.6666666667,
      "d": 83.33333333331393,
      "v": 63
    },
    {
      "midi": 62,
      "hit": false,
      "t": 188133.33333333334,
      "d": 50,
      "v": 44
    },
    {
      "midi": 59,
      "hit": false,
      "t": 188516.66666666666,
      "d": 383.33333333334303,
      "v": 70
    },
    {
      "midi": 65,
      "hit": false,
      "t": 188516.66666666666,
      "d": 383.33333333334303,
      "v": 75
    },
    {
      "midi": 62,
      "hit": false,
      "t": 188516.66666666666,
      "d": 400,
      "v": 68
    },
    {
      "midi": 66,
      "hit": false,
      "t": 189383.3333333333,
      "d": 83.33333333334303,
      "v": 92
    },
    {
      "midi": 72,
      "hit": false,
      "t": 189383.3333333333,
      "d": 216.66666666668607,
      "v": 89
    },
    {
      "midi": 60,
      "hit": false,
      "t": 189433.3333333333,
      "d": 166.66666666668607,
      "v": 18
    },
    {
      "midi": 67,
      "hit": false,
      "t": 189783.33333333334,
      "d": 133.33333333334303,
      "v": 82
    },
    {
      "midi": 70,
      "hit": false,
      "t": 189783.33333333334,
      "d": 150,
      "v": 76
    },
    {
      "midi": 67,
      "hit": false,
      "t": 190483.33333333334,
      "d": 83.33333333331393,
      "v": 77
    },
    {
      "midi": 64,
      "hit": false,
      "t": 190500,
      "d": 66.66666666665697,
      "v": 64
    },
    {
      "midi": 72,
      "hit": false,
      "t": 190500,
      "d": 66.66666666665697,
      "v": 65
    },
    {
      "midi": 48,
      "hit": false,
      "t": 192833.3333333333,
      "d": 66.66666666665697,
      "v": 95
    },
    {
      "midi": 50,
      "hit": false,
      "t": 192883.3333333333,
      "d": 66.66666666665697,
      "v": 19
    },
    {
      "midi": 52,
      "hit": false,
      "t": 192933.3333333333,
      "d": 83.33333333334303,
      "v": 75
    },
    {
      "midi": 53,
      "hit": false,
      "t": 192983.3333333333,
      "d": 66.66666666668607,
      "v": 92
    },
    {
      "midi": 55,
      "hit": false,
      "t": 193050,
      "d": 50,
      "v": 101
    },
    {
      "midi": 57,
      "hit": false,
      "t": 193083.33333333334,
      "d": 66.66666666665697,
      "v": 95
    },
    {
      "midi": 59,
      "hit": false,
      "t": 193150,
      "d": 66.66666666665697,
      "v": 84
    },
    {
      "midi": 60,
      "hit": false,
      "t": 193200,
      "d": 66.66666666665697,
      "v": 79
    },
    {
      "midi": 62,
      "hit": false,
      "t": 193250,
      "d": 66.66666666665697,
      "v": 61
    },
    {
      "midi": 64,
      "hit": false,
      "t": 193300,
      "d": 66.66666666665697,
      "v": 63
    },
    {
      "midi": 65,
      "hit": false,
      "t": 193350,
      "d": 66.66666666665697,
      "v": 87
    },
    {
      "midi": 67,
      "hit": false,
      "t": 193400,
      "d": 50,
      "v": 95
    },
    {
      "midi": 69,
      "hit": false,
      "t": 193450,
      "d": 33.333333333343035,
      "v": 107
    },
    {
      "midi": 56,
      "hit": false,
      "t": 193616.6666666667,
      "d": 1183.333333333314,
      "v": 72
    },
    {
      "midi": 55,
      "hit": false,
      "t": 193616.6666666667,
      "d": 1316.666666666657,
      "v": 77
    },
    {
      "midi": 60,
      "hit": false,
      "t": 193633.33333333334,
      "d": 1166.666666666657,
      "v": 84
    },
    {
      "midi": 51,
      "hit": false,
      "t": 195100,
      "d": 216.66666666665697,
      "v": 28
    },
    {
      "midi": 58,
      "hit": false,
      "t": 195500,
      "d": 116.66666666665697,
      "v": 74
    },
    {
      "midi": 55,
      "hit": false,
      "t": 195500,
      "d": 150,
      "v": 72
    },
    {
      "midi": 51,
      "hit": false,
      "t": 195866.66666666666,
      "d": 116.66666666665697,
      "v": 44
    },
    {
      "midi": 58,
      "hit": false,
      "t": 196133.3333333333,
      "d": 183.33333333331393,
      "v": 66
    },
    {
      "midi": 55,
      "hit": false,
      "t": 196133.3333333333,
      "d": 466.66666666665697,
      "v": 65
    },
    {
      "midi": 60,
      "hit": false,
      "t": 196299.99999999997,
      "d": 266.66666666665697,
      "v": 87
    },
    {
      "midi": 58,
      "hit": false,
      "t": 196666.66666666663,
      "d": 950,
      "v": 72
    },
    {
      "midi": 55,
      "hit": false,
      "t": 196666.66666666663,
      "d": 1083.333333333343,
      "v": 68
    },
    {
      "midi": 51,
      "hit": false,
      "t": 196683.33333333328,
      "d": 833.333333333343,
      "v": 56
    },
    {
      "midi": 41,
      "hit": false,
      "t": 198116.66666666663,
      "d": 466.66666666665697,
      "v": 72
    },
    {
      "midi": 56,
      "hit": false,
      "t": 198133.33333333328,
      "d": 383.33333333331393,
      "v": 66
    },
    {
      "midi": 55,
      "hit": false,
      "t": 198133.33333333328,
      "d": 550,
      "v": 73
    },
    {
      "midi": 60,
      "hit": false,
      "t": 198149.99999999994,
      "d": 366.66666666665697,
      "v": 75
    },
    {
      "midi": 60,
      "hit": false,
      "t": 198549.99999999994,
      "d": 83.33333333334303,
      "v": 55
    },
    {
      "midi": 56,
      "hit": false,
      "t": 198549.99999999994,
      "d": 100,
      "v": 62
    },
    {
      "midi": 55,
      "hit": false,
      "t": 200316.66666666663,
      "d": 50,
      "v": 67
    },
    {
      "midi": 56,
      "hit": false,
      "t": 200316.66666666663,
      "d": 50,
      "v": 60
    },
    {
      "midi": 60,
      "hit": false,
      "t": 200333.33333333328,
      "d": 33.333333333343035,
      "v": 63
    },
    {
      "midi": 51,
      "hit": false,
      "t": 201216.66666666663,
      "d": 566.666666666657,
      "v": 64
    },
    {
      "midi": 58,
      "hit": false,
      "t": 201233.33333333328,
      "d": 433.33333333331393,
      "v": 57
    },
    {
      "midi": 55,
      "hit": false,
      "t": 201249.99999999994,
      "d": 450,
      "v": 48
    },
    {
      "midi": 55,
      "hit": false,
      "t": 201816.66666666663,
      "d": 66.66666666665697,
      "v": 67
    },
    {
      "midi": 58,
      "hit": false,
      "t": 201816.66666666663,
      "d": 66.66666666665697,
      "v": 70
    },
    {
      "midi": 56,
      "hit": false,
      "t": 202716.66666666663,
      "d": 450,
      "v": 70
    },
    {
      "midi": 60,
      "hit": false,
      "t": 202716.66666666663,
      "d": 450,
      "v": 72
    },
    {
      "midi": 44,
      "hit": false,
      "t": 202716.66666666663,
      "d": 533.333333333343,
      "v": 62
    },
    {
      "midi": 51,
      "hit": false,
      "t": 202716.66666666663,
      "d": 533.333333333343,
      "v": 59
    },
    {
      "midi": 56,
      "hit": false,
      "t": 203249.99999999997,
      "d": 66.66666666665697,
      "v": 74
    },
    {
      "midi": 60,
      "hit": false,
      "t": 203266.66666666663,
      "d": 50,
      "v": 79
    },
    {
      "midi": 56,
      "hit": false,
      "t": 204233.33333333328,
      "d": 499.9999999999709,
      "v": 60
    },
    {
      "midi": 41,
      "hit": false,
      "t": 204233.33333333328,
      "d": 533.3333333333139,
      "v": 68
    },
    {
      "midi": 60,
      "hit": false,
      "t": 204249.99999999994,
      "d": 400,
      "v": 73
    },
    {
      "midi": 55,
      "hit": false,
      "t": 204249.99999999994,
      "d": 466.66666666665697,
      "v": 65
    },
    {
      "midi": 60,
      "hit": false,
      "t": 204816.6666666666,
      "d": 50,
      "v": 77
    },
    {
      "midi": 56,
      "hit": false,
      "t": 204816.6666666666,
      "d": 66.66666666665697,
      "v": 76
    },
    {
      "midi": 55,
      "hit": false,
      "t": 204816.6666666666,
      "d": 83.33333333331393,
      "v": 79
    },
    {
      "midi": 55,
      "hit": false,
      "t": 205349.9999999999,
      "d": 66.66666666665697,
      "v": 63
    },
    {
      "midi": 56,
      "hit": false,
      "t": 205349.9999999999,
      "d": 66.66666666665697,
      "v": 68
    },
    {
      "midi": 60,
      "hit": false,
      "t": 205366.66666666657,
      "d": 50,
      "v": 64
    },
    {
      "midi": 61,
      "hit": false,
      "t": 205799.9999999999,
      "d": 350,
      "v": 64
    },
    {
      "midi": 60,
      "hit": false,
      "t": 205816.66666666657,
      "d": 333.33333333334303,
      "v": 35
    },
    {
      "midi": 65,
      "hit": false,
      "t": 205816.66666666657,
      "d": 333.33333333334303,
      "v": 73
    },
    {
      "midi": 58,
      "hit": false,
      "t": 205816.66666666657,
      "d": 383.33333333334303,
      "v": 72
    },
    {
      "midi": 61,
      "hit": false,
      "t": 206216.66666666657,
      "d": 100,
      "v": 74
    },
    {
      "midi": 65,
      "hit": false,
      "t": 206233.33333333323,
      "d": 83.33333333334303,
      "v": 72
    },
    {
      "midi": 60,
      "hit": false,
      "t": 206233.33333333323,
      "d": 100,
      "v": 58
    },
    {
      "midi": 53,
      "hit": false,
      "t": 207283.33333333323,
      "d": 816.666666666657,
      "v": 67
    },
    {
      "midi": 65,
      "hit": false,
      "t": 207299.99999999988,
      "d": 1000,
      "v": 65
    },
    {
      "midi": 60,
      "hit": false,
      "t": 207299.99999999988,
      "d": 1016.666666666657,
      "v": 64
    },
    {
      "midi": 68,
      "hit": false,
      "t": 207316.66666666654,
      "d": 950,
      "v": 70
    },
    {
      "midi": 55,
      "hit": false,
      "t": 208833.3333333332,
      "d": 933.3333333333139,
      "v": 79
    },
    {
      "midi": 59,
      "hit": false,
      "t": 208849.99999999985,
      "d": 1016.666666666657,
      "v": 50
    },
    {
      "midi": 62,
      "hit": false,
      "t": 208849.99999999985,
      "d": 1083.333333333314,
      "v": 53
    },
    {
      "midi": 65,
      "hit": false,
      "t": 208849.99999999985,
      "d": 1083.333333333314,
      "v": 72
    },
    {
      "midi": 48,
      "hit": false,
      "t": 210349.99999999983,
      "d": 1883.3333333332848,
      "v": 64
    },
    {
      "midi": 58,
      "hit": false,
      "t": 210349.99999999983,
      "d": 1933.3333333332848,
      "v": 46
    },
    {
      "midi": 60,
      "hit": false,
      "t": 210366.66666666648,
      "d": 700,
      "v": 67
    },
    {
      "midi": 64,
      "hit": false,
      "t": 210366.66666666648,
      "d": 700,
      "v": 70
    },
    {
      "midi": 67,
      "hit": false,
      "t": 210366.66666666648,
      "d": 733.333333333343,
      "v": 79
    },
    {
      "midi": 55,
      "hit": false,
      "t": 210366.66666666648,
      "d": 1150,
      "v": 75
    },
    {
      "midi": 64,
      "hit": false,
      "t": 211416.66666666648,
      "d": 100,
      "v": 70
    },
    {
      "midi": 67,
      "hit": false,
      "t": 211516.66666666648,
      "d": 300,
      "v": 75
    },
    {
      "midi": 64,
      "hit": false,
      "t": 211883.33333333314,
      "d": 333.33333333331393,
      "v": 73
    },
    {
      "midi": 67,
      "hit": false,
      "t": 211899.9999999998,
      "d": 300,
      "v": 73
    },
    {
      "midi": 72,
      "hit": false,
      "t": 211899.9999999998,
      "d": 300,
      "v": 79
    },
    {
      "midi": 60,
      "hit": false,
      "t": 213416.66666666645,
      "d": 400,
      "v": 89
    },
    {
      "midi": 41,
      "hit": false,
      "t": 213416.66666666645,
      "d": 466.66666666665697,
      "v": 79
    },
    {
      "midi": 56,
      "hit": false,
      "t": 213416.66666666645,
      "d": 466.66666666665697,
      "v": 86
    },
    {
      "midi": 55,
      "hit": false,
      "t": 213416.66666666645,
      "d": 500,
      "v": 79
    },
    {
      "midi": 56,
      "hit": false,
      "t": 214016.66666666645,
      "d": 50,
      "v": 78
    },
    {
      "midi": 55,
      "hit": false,
      "t": 214016.66666666645,
      "d": 66.66666666665697,
      "v": 79
    },
    {
      "midi": 60,
      "hit": false,
      "t": 214033.3333333331,
      "d": 33.333333333343035,
      "v": 72
    },
    {
      "midi": 56,
      "hit": false,
      "t": 214433.3333333331,
      "d": 66.66666666665697,
      "v": 76
    },
    {
      "midi": 60,
      "hit": false,
      "t": 214433.3333333331,
      "d": 66.66666666665697,
      "v": 79
    },
    {
      "midi": 55,
      "hit": false,
      "t": 214433.3333333331,
      "d": 100,
      "v": 79
    },
    {
      "midi": 56,
      "hit": false,
      "t": 215533.3333333331,
      "d": 50,
      "v": 66
    },
    {
      "midi": 55,
      "hit": false,
      "t": 215549.99999999977,
      "d": 50,
      "v": 65
    },
    {
      "midi": 56,
      "hit": false,
      "t": 215949.99999999977,
      "d": 433.33333333334303,
      "v": 74
    },
    {
      "midi": 55,
      "hit": false,
      "t": 215949.99999999977,
      "d": 450,
      "v": 75
    },
    {
      "midi": 60,
      "hit": false,
      "t": 215966.66666666642,
      "d": 333.33333333334303,
      "v": 75
    },
    {
      "midi": 56,
      "hit": false,
      "t": 217833.3333333331,
      "d": 49.999999999970896,
      "v": 78
    },
    {
      "midi": 58,
      "hit": false,
      "t": 217849.99999999977,
      "d": 16.666666666656965,
      "v": 47
    },
    {
      "midi": 58,
      "hit": false,
      "t": 218249.99999999974,
      "d": 766.666666666657,
      "v": 70
    },
    {
      "midi": 56,
      "hit": false,
      "t": 218249.99999999974,
      "d": 783.3333333333139,
      "v": 78
    },
    {
      "midi": 53,
      "hit": false,
      "t": 218349.99999999974,
      "d": 666.666666666657,
      "v": 7
    },
    {
      "midi": 61,
      "hit": false,
      "t": 219099.9999999997,
      "d": 100,
      "v": 68
    },
    {
      "midi": 56,
      "hit": false,
      "t": 219099.9999999997,
      "d": 166.66666666665697,
      "v": 72
    },
    {
      "midi": 53,
      "hit": false,
      "t": 219116.66666666637,
      "d": 250,
      "v": 67
    },
    {
      "midi": 58,
      "hit": false,
      "t": 219116.66666666637,
      "d": 266.66666666665697,
      "v": 74
    },
    {
      "midi": 56,
      "hit": false,
      "t": 220866.66666666637,
      "d": 50,
      "v": 68
    },
    {
      "midi": 55,
      "hit": false,
      "t": 220866.66666666637,
      "d": 66.66666666665697,
      "v": 68
    },
    {
      "midi": 60,
      "hit": false,
      "t": 220883.33333333302,
      "d": 33.333333333343035,
      "v": 48
    },
    {
      "midi": 56,
      "hit": false,
      "t": 221249.99999999968,
      "d": 900,
      "v": 74
    },
    {
      "midi": 55,
      "hit": false,
      "t": 221249.99999999968,
      "d": 983.333333333343,
      "v": 72
    },
    {
      "midi": 60,
      "hit": false,
      "t": 221266.66666666634,
      "d": 933.333333333343,
      "v": 63
    },
    {
      "midi": 58,
      "hit": false,
      "t": 222583.33333333302,
      "d": 950,
      "v": 59
    },
    {
      "midi": 61,
      "hit": false,
      "t": 222583.33333333302,
      "d": 1000,
      "v": 66
    },
    {
      "midi": 65,
      "hit": false,
      "t": 222599.99999999968,
      "d": 1050,
      "v": 73
    },
    {
      "midi": 65,
      "hit": false,
      "t": 224083.33333333302,
      "d": 1016.666666666657,
      "v": 77
    },
    {
      "midi": 57,
      "hit": false,
      "t": 224083.33333333302,
      "d": 1033.333333333314,
      "v": 79
    },
    {
      "midi": 41,
      "hit": false,
      "t": 224083.33333333302,
      "d": 1166.666666666657,
      "v": 77
    },
    {
      "midi": 60,
      "hit": false,
      "t": 224099.99999999968,
      "d": 1000,
      "v": 64
    },
    {
      "midi": 60,
      "hit": false,
      "t": 225249.99999999968,
      "d": 100,
      "v": 72
    },
    {
      "midi": 57,
      "hit": false,
      "t": 225249.99999999968,
      "d": 133.33333333334303,
      "v": 73
    },
    {
      "midi": 65,
      "hit": false,
      "t": 225249.99999999968,
      "d": 133.33333333334303,
      "v": 70
    },
    {
      "midi": 58,
      "hit": false,
      "t": 225666.66666666637,
      "d": 483.33333333334303,
      "v": 57
    },
    {
      "midi": 70,
      "hit": false,
      "t": 225666.66666666637,
      "d": 483.33333333334303,
      "v": 76
    },
    {
      "midi": 73,
      "hit": false,
      "t": 225666.66666666637,
      "d": 483.33333333334303,
      "v": 76
    },
    {
      "midi": 65,
      "hit": false,
      "t": 225666.66666666637,
      "d": 500,
      "v": 70
    },
    {
      "midi": 73,
      "hit": false,
      "t": 226266.66666666637,
      "d": 33.33333333331393,
      "v": 53
    },
    {
      "midi": 70,
      "hit": false,
      "t": 226266.66666666637,
      "d": 49.999999999970896,
      "v": 60
    },
    {
      "midi": 65,
      "hit": false,
      "t": 226283.33333333302,
      "d": 33.33333333331393,
      "v": 25
    },
    {
      "midi": 63,
      "hit": false,
      "t": 227133.333333333,
      "d": 566.6666666666279,
      "v": 70
    },
    {
      "midi": 70,
      "hit": false,
      "t": 227149.99999999965,
      "d": 516.666666666657,
      "v": 70
    },
    {
      "midi": 67,
      "hit": false,
      "t": 227149.99999999965,
      "d": 533.3333333333139,
      "v": 72
    },
    {
      "midi": 75,
      "hit": false,
      "t": 227166.6666666663,
      "d": 466.66666666665697,
      "v": 59
    },
    {
      "midi": 70,
      "hit": false,
      "t": 227749.99999999962,
      "d": 50,
      "v": 70
    },
    {
      "midi": 67,
      "hit": false,
      "t": 227749.99999999962,
      "d": 100,
      "v": 70
    },
    {
      "midi": 75,
      "hit": false,
      "t": 227766.66666666628,
      "d": 33.333333333343035,
      "v": 49
    },
    {
      "midi": 72,
      "hit": false,
      "t": 228649.99999999962,
      "d": 150,
      "v": 64
    },
    {
      "midi": 68,
      "hit": false,
      "t": 228649.99999999962,
      "d": 283.33333333334303,
      "v": 62
    },
    {
      "midi": 56,
      "hit": false,
      "t": 228649.99999999962,
      "d": 400,
      "v": 59
    },
    {
      "midi": 63,
      "hit": false,
      "t": 228649.99999999962,
      "d": 400,
      "v": 66
    },
    {
      "midi": 67,
      "hit": false,
      "t": 228666.66666666628,
      "d": 283.33333333334303,
      "v": 49
    },
    {
      "midi": 68,
      "hit": false,
      "t": 229033.33333333296,
      "d": 83.33333333331393,
      "v": 76
    },
    {
      "midi": 72,
      "hit": false,
      "t": 229033.33333333296,
      "d": 83.33333333331393,
      "v": 77
    },
    {
      "midi": 67,
      "hit": false,
      "t": 229033.33333333296,
      "d": 99.9999999999709,
      "v": 54
    },
    {
      "midi": 61,
      "hit": false,
      "t": 230166.66666666628,
      "d": 499.9999999999709,
      "v": 64
    },
    {
      "midi": 73,
      "hit": false,
      "t": 230183.33333333294,
      "d": 400,
      "v": 68
    },
    {
      "midi": 68,
      "hit": false,
      "t": 230183.33333333294,
      "d": 466.66666666665697,
      "v": 51
    },
    {
      "midi": 65,
      "hit": false,
      "t": 230183.33333333294,
      "d": 483.33333333331393,
      "v": 38
    },
    {
      "midi": 73,
      "hit": false,
      "t": 230799.9999999996,
      "d": 33.333333333343035,
      "v": 56
    },
    {
      "midi": 68,
      "hit": false,
      "t": 230799.9999999996,
      "d": 50,
      "v": 56
    },
    {
      "midi": 65,
      "hit": false,
      "t": 230799.9999999996,
      "d": 66.66666666665697,
      "v": 36
    },
    {
      "midi": 65,
      "hit": false,
      "t": 231199.9999999996,
      "d": 133.33333333331393,
      "v": 55
    },
    {
      "midi": 68,
      "hit": false,
      "t": 231216.66666666625,
      "d": 66.66666666665697,
      "v": 57
    },
    {
      "midi": 73,
      "hit": false,
      "t": 231216.66666666625,
      "d": 100,
      "v": 66
    },
    {
      "midi": 46,
      "hit": false,
      "t": 231716.66666666625,
      "d": 800,
      "v": 66
    },
    {
      "midi": 58,
      "hit": false,
      "t": 231733.3333333329,
      "d": 750,
      "v": 74
    },
    {
      "midi": 61,
      "hit": false,
      "t": 231733.3333333329,
      "d": 750,
      "v": 66
    },
    {
      "midi": 53,
      "hit": false,
      "t": 231733.3333333329,
      "d": 816.6666666666861,
      "v": 67
    },
    {
      "midi": 46,
      "hit": false,
      "t": 232833.33333333294,
      "d": 183.33333333331393,
      "v": 62
    },
    {
      "midi": 58,
      "hit": false,
      "t": 232849.9999999996,
      "d": 116.66666666665697,
      "v": 74
    },
    {
      "midi": 61,
      "hit": false,
      "t": 232849.9999999996,
      "d": 133.33333333331393,
      "v": 68
    },
    {
      "midi": 53,
      "hit": false,
      "t": 232866.66666666625,
      "d": 100,
      "v": 43
    },
    {
      "midi": 60,
      "hit": false,
      "t": 233266.66666666625,
      "d": 1000,
      "v": 75
    },
    {
      "midi": 48,
      "hit": false,
      "t": 234766.66666666625,
      "d": 1000,
      "v": 65
    },
    {
      "midi": 52,
      "hit": false,
      "t": 234783.3333333329,
      "d": 900,
      "v": 63
    },
    {
      "midi": 55,
      "hit": false,
      "t": 234783.3333333329,
      "d": 1033.333333333343,
      "v": 79
    },
    {
      "midi": 58,
      "hit": false,
      "t": 234783.3333333329,
      "d": 1033.333333333343,
      "v": 62
    },
    {
      "midi": 64,
      "hit": false,
      "t": 234783.3333333329,
      "d": 1116.666666666686,
      "v": 63
    },
    {
      "midi": 60,
      "hit": false,
      "t": 234799.99999999956,
      "d": 1066.666666666686,
      "v": 39
    },
    {
      "midi": 57,
      "hit": false,
      "t": 236266.66666666625,
      "d": 700,
      "v": 79
    },
    {
      "midi": 60,
      "hit": false,
      "t": 236266.66666666625,
      "d": 700,
      "v": 84
    },
    {
      "midi": 63,
      "hit": false,
      "t": 236266.66666666625,
      "d": 700,
      "v": 72
    },
    {
      "midi": 48,
      "hit": false,
      "t": 236266.66666666625,
      "d": 1233.333333333343,
      "v": 72
    },
    {
      "midi": 41,
      "hit": false,
      "t": 236283.3333333329,
      "d": 1250.000000000029,
      "v": 61
    },
    {
      "midi": 57,
      "hit": false,
      "t": 237049.9999999996,
      "d": 416.66666666665697,
      "v": 64
    },
    {
      "midi": 60,
      "hit": false,
      "t": 237049.9999999996,
      "d": 416.66666666665697,
      "v": 77
    },
    {
      "midi": 65,
      "hit": false,
      "t": 237049.9999999996,
      "d": 450,
      "v": 67
    },
    {
      "midi": 63,
      "hit": false,
      "t": 237066.66666666625,
      "d": 50,
      "v": 62
    },
    {
      "midi": 58,
      "hit": false,
      "t": 237866.66666666628,
      "d": 483.33333333334303,
      "v": 57
    },
    {
      "midi": 70,
      "hit": false,
      "t": 237866.66666666628,
      "d": 483.33333333334303,
      "v": 76
    },
    {
      "midi": 73,
      "hit": false,
      "t": 237866.66666666628,
      "d": 483.33333333334303,
      "v": 76
    },
    {
      "midi": 65,
      "hit": false,
      "t": 237866.66666666628,
      "d": 500,
      "v": 70
    },
    {
      "midi": 70,
      "hit": false,
      "t": 238449.99999999962,
      "d": 50,
      "v": 60
    },
    {
      "midi": 73,
      "hit": false,
      "t": 238466.66666666628,
      "d": 33.333333333343035,
      "v": 53
    },
    {
      "midi": 65,
      "hit": false,
      "t": 238466.66666666628,
      "d": 50,
      "v": 25
    },
    {
      "midi": 63,
      "hit": false,
      "t": 239333.33333333294,
      "d": 566.6666666666279,
      "v": 70
    },
    {
      "midi": 70,
      "hit": false,
      "t": 239349.9999999996,
      "d": 516.666666666657,
      "v": 70
    },
    {
      "midi": 67,
      "hit": false,
      "t": 239349.9999999996,
      "d": 533.3333333333139,
      "v": 72
    },
    {
      "midi": 75,
      "hit": false,
      "t": 239366.66666666625,
      "d": 450,
      "v": 59
    },
    {
      "midi": 70,
      "hit": false,
      "t": 239933.3333333329,
      "d": 66.66666666665697,
      "v": 70
    },
    {
      "midi": 67,
      "hit": false,
      "t": 239933.3333333329,
      "d": 100,
      "v": 70
    },
    {
      "midi": 75,
      "hit": false,
      "t": 239949.99999999956,
      "d": 33.333333333343035,
      "v": 49
    },
    {
      "midi": 44,
      "hit": false,
      "t": 240799.99999999956,
      "d": 1150,
      "v": 57
    },
    {
      "midi": 51,
      "hit": false,
      "t": 240799.99999999956,
      "d": 1216.666666666657,
      "v": 68
    },
    {
      "midi": 63,
      "hit": false,
      "t": 240799.99999999956,
      "d": 1216.666666666657,
      "v": 70
    },
    {
      "midi": 56,
      "hit": false,
      "t": 240816.66666666622,
      "d": 1083.333333333343,
      "v": 62
    },
    {
      "midi": 60,
      "hit": false,
      "t": 240816.66666666622,
      "d": 1100,
      "v": 84
    },
    {
      "midi": 46,
      "hit": false,
      "t": 242333.33333333288,
      "d": 800,
      "v": 66
    },
    {
      "midi": 49,
      "hit": false,
      "t": 242333.33333333288,
      "d": 800,
      "v": 62
    },
    {
      "midi": 53,
      "hit": false,
      "t": 242333.33333333288,
      "d": 883.333333333343,
      "v": 51
    },
    {
      "midi": 61,
      "hit": false,
      "t": 242333.33333333288,
      "d": 950,
      "v": 70
    },
    {
      "midi": 65,
      "hit": false,
      "t": 242333.33333333288,
      "d": 983.333333333343,
      "v": 72
    },
    {
      "midi": 58,
      "hit": false,
      "t": 242349.99999999953,
      "d": 883.333333333343,
      "v": 47
    },
    {
      "midi": 48,
      "hit": false,
      "t": 243849.99999999956,
      "d": 1016.666666666657,
      "v": 68
    },
    {
      "midi": 58,
      "hit": false,
      "t": 243849.99999999956,
      "d": 1016.666666666657,
      "v": 66
    },
    {
      "midi": 52,
      "hit": false,
      "t": 243866.66666666622,
      "d": 950,
      "v": 58
    },
    {
      "midi": 64,
      "hit": false,
      "t": 243866.66666666622,
      "d": 1000,
      "v": 57
    },
    {
      "midi": 55,
      "hit": false,
      "t": 243866.66666666622,
      "d": 1016.666666666657,
      "v": 70
    },
    {
      "midi": 60,
      "hit": false,
      "t": 243883.33333333288,
      "d": 966.6666666666861,
      "v": 54
    },
    {
      "midi": 58,
      "hit": false,
      "t": 245216.66666666622,
      "d": 83.33333333331393,
      "v": 66
    },
    {
      "midi": 55,
      "hit": false,
      "t": 245216.66666666622,
      "d": 99.9999999999709,
      "v": 79
    },
    {
      "midi": 60,
      "hit": false,
      "t": 245233.33333333288,
      "d": 50,
      "v": 68
    },
    {
      "midi": 64,
      "hit": false,
      "t": 245233.33333333288,
      "d": 50,
      "v": 49
    },
    {
      "midi": 60,
      "hit": false,
      "t": 245683.33333333285,
      "d": 816.666666666657,
      "v": 55
    },
    {
      "midi": 58,
      "hit": false,
      "t": 245683.33333333285,
      "d": 833.3333333333139,
      "v": 56
    },
    {
      "midi": 55,
      "hit": false,
      "t": 245683.33333333285,
      "d": 866.666666666657,
      "v": 68
    },
    {
      "midi": 64,
      "hit": false,
      "t": 245699.9999999995,
      "d": 733.333333333343,
      "v": 51
    },
    {
      "midi": 55,
      "hit": false,
      "t": 246949.9999999995,
      "d": 750,
      "v": 73
    },
    {
      "midi": 56,
      "hit": false,
      "t": 246949.9999999995,
      "d": 750,
      "v": 76
    },
    {
      "midi": 41,
      "hit": false,
      "t": 246949.9999999995,
      "d": 816.666666666657,
      "v": 68
    },
    {
      "midi": 60,
      "hit": false,
      "t": 246966.66666666616,
      "d": 733.333333333343,
      "v": 73
    },
    {
      "midi": 56,
      "hit": false,
      "t": 248316.66666666616,
      "d": 83.33333333331393,
      "v": 57
    },
    {
      "midi": 55,
      "hit": false,
      "t": 248316.66666666616,
      "d": 99.9999999999709,
      "v": 53
    },
    {
      "midi": 60,
      "hit": false,
      "t": 248333.33333333282,
      "d": 66.66666666665697,
      "v": 64
    },
    {
      "midi": 58,
      "hit": false,
      "t": 250049.99999999948,
      "d": 483.33333333331393,
      "v": 57
    },
    {
      "midi": 73,
      "hit": false,
      "t": 250066.66666666613,
      "d": 466.66666666665697,
      "v": 76
    },
    {
      "midi": 65,
      "hit": false,
      "t": 250066.66666666613,
      "d": 483.33333333331393,
      "v": 70
    },
    {
      "midi": 70,
      "hit": false,
      "t": 250066.66666666613,
      "d": 483.33333333331393,
      "v": 76
    },
    {
      "midi": 73,
      "hit": false,
      "t": 250649.99999999945,
      "d": 33.33333333331393,
      "v": 53
    },
    {
      "midi": 70,
      "hit": false,
      "t": 250649.99999999945,
      "d": 49.999999999970896,
      "v": 60
    },
    {
      "midi": 65,
      "hit": false,
      "t": 250666.6666666661,
      "d": 49.999999999970896,
      "v": 25
    },
    {
      "midi": 63,
      "hit": false,
      "t": 251516.66666666607,
      "d": 566.666666666657,
      "v": 70
    },
    {
      "midi": 75,
      "hit": false,
      "t": 251549.99999999942,
      "d": 466.66666666665697,
      "v": 59
    },
    {
      "midi": 70,
      "hit": false,
      "t": 251549.99999999942,
      "d": 500,
      "v": 70
    },
    {
      "midi": 67,
      "hit": false,
      "t": 251549.99999999942,
      "d": 516.666666666657,
      "v": 72
    },
    {
      "midi": 70,
      "hit": false,
      "t": 252133.33333333273,
      "d": 66.66666666665697,
      "v": 70
    },
    {
      "midi": 67,
      "hit": false,
      "t": 252133.33333333273,
      "d": 100,
      "v": 70
    },
    {
      "midi": 75,
      "hit": false,
      "t": 252149.9999999994,
      "d": 33.333333333343035,
      "v": 49
    },
    {
      "midi": 72,
      "hit": false,
      "t": 253033.33333333273,
      "d": 150,
      "v": 64
    },
    {
      "midi": 68,
      "hit": false,
      "t": 253033.33333333273,
      "d": 283.33333333334303,
      "v": 62
    },
    {
      "midi": 56,
      "hit": false,
      "t": 253033.33333333273,
      "d": 400,
      "v": 59
    },
    {
      "midi": 63,
      "hit": false,
      "t": 253033.33333333273,
      "d": 400,
      "v": 66
    },
    {
      "midi": 67,
      "hit": false,
      "t": 253049.9999999994,
      "d": 283.33333333334303,
      "v": 49
    },
    {
      "midi": 67,
      "hit": false,
      "t": 253416.66666666607,
      "d": 100,
      "v": 54
    },
    {
      "midi": 68,
      "hit": false,
      "t": 253416.66666666607,
      "d": 100,
      "v": 76
    },
    {
      "midi": 72,
      "hit": false,
      "t": 253433.33333333273,
      "d": 83.33333333334303,
      "v": 77
    },
    {
      "midi": 73,
      "hit": false,
      "t": 254566.66666666607,
      "d": 416.66666666665697,
      "v": 68
    },
    {
      "midi": 68,
      "hit": false,
      "t": 254566.66666666607,
      "d": 466.66666666665697,
      "v": 51
    },
    {
      "midi": 61,
      "hit": false,
      "t": 254566.66666666607,
      "d": 483.33333333331393,
      "v": 64
    },
    {
      "midi": 65,
      "hit": false,
      "t": 254566.66666666607,
      "d": 483.33333333331393,
      "v": 38
    },
    {
      "midi": 68,
      "hit": false,
      "t": 255183.33333333273,
      "d": 50,
      "v": 56
    },
    {
      "midi": 73,
      "hit": false,
      "t": 255183.33333333273,
      "d": 50,
      "v": 56
    },
    {
      "midi": 65,
      "hit": false,
      "t": 255183.33333333273,
      "d": 66.66666666665697,
      "v": 36
    },
    {
      "midi": 68,
      "hit": false,
      "t": 255599.9999999994,
      "d": 83.33333333334303,
      "v": 57
    },
    {
      "midi": 65,
      "hit": false,
      "t": 255599.9999999994,
      "d": 116.66666666668607,
      "v": 55
    },
    {
      "midi": 73,
      "hit": false,
      "t": 255599.9999999994,
      "d": 116.66666666668607,
      "v": 66
    },
    {
      "midi": 61,
      "hit": false,
      "t": 256116.66666666607,
      "d": 750,
      "v": 66
    },
    {
      "midi": 58,
      "hit": false,
      "t": 256116.66666666607,
      "d": 766.666666666657,
      "v": 74
    },
    {
      "midi": 46,
      "hit": false,
      "t": 256116.66666666607,
      "d": 783.3333333333139,
      "v": 66
    },
    {
      "midi": 53,
      "hit": false,
      "t": 256116.66666666607,
      "d": 816.666666666657,
      "v": 67
    },
    {
      "midi": 46,
      "hit": false,
      "t": 257216.66666666607,
      "d": 183.33333333331393,
      "v": 62
    },
    {
      "midi": 58,
      "hit": false,
      "t": 257233.33333333273,
      "d": 133.33333333331393,
      "v": 74
    },
    {
      "midi": 61,
      "hit": false,
      "t": 257233.33333333273,
      "d": 133.33333333331393,
      "v": 68
    },
    {
      "midi": 53,
      "hit": false,
      "t": 257249.9999999994,
      "d": 100,
      "v": 43
    },
    {
      "midi": 60,
      "hit": false,
      "t": 257649.9999999994,
      "d": 1016.666666666657,
      "v": 75
    },
    {
      "midi": 48,
      "hit": false,
      "t": 259149.9999999994,
      "d": 999.9999999999709,
      "v": 65
    },
    {
      "midi": 52,
      "hit": false,
      "t": 259166.66666666605,
      "d": 916.666666666657,
      "v": 63
    },
    {
      "midi": 55,
      "hit": false,
      "t": 259166.66666666605,
      "d": 1033.333333333314,
      "v": 79
    },
    {
      "midi": 58,
      "hit": false,
      "t": 259166.66666666605,
      "d": 1049.999999999971,
      "v": 62
    },
    {
      "midi": 60,
      "hit": false,
      "t": 259183.3333333327,
      "d": 1066.666666666657,
      "v": 39
    },
    {
      "midi": 64,
      "hit": false,
      "t": 259183.3333333327,
      "d": 1116.666666666657,
      "v": 63
    },
    {
      "midi": 57,
      "hit": false,
      "t": 260666.66666666602,
      "d": 683.333333333343,
      "v": 79
    },
    {
      "midi": 60,
      "hit": false,
      "t": 260666.66666666602,
      "d": 683.333333333343,
      "v": 84
    },
    {
      "midi": 63,
      "hit": false,
      "t": 260666.66666666602,
      "d": 683.333333333343,
      "v": 72
    },
    {
      "midi": 48,
      "hit": false,
      "t": 260666.66666666602,
      "d": 1233.333333333343,
      "v": 72
    },
    {
      "midi": 41,
      "hit": false,
      "t": 260666.66666666602,
      "d": 1250,
      "v": 61
    },
    {
      "midi": 57,
      "hit": false,
      "t": 261433.3333333327,
      "d": 416.66666666665697,
      "v": 64
    },
    {
      "midi": 65,
      "hit": false,
      "t": 261433.3333333327,
      "d": 450,
      "v": 67
    },
    {
      "midi": 60,
      "hit": false,
      "t": 261449.99999999936,
      "d": 400,
      "v": 77
    },
    {
      "midi": 63,
      "hit": false,
      "t": 261466.66666666602,
      "d": 33.333333333343035,
      "v": 62
    },
    {
      "midi": 58,
      "hit": false,
      "t": 262249.99999999936,
      "d": 483.33333333331393,
      "v": 57
    },
    {
      "midi": 70,
      "hit": false,
      "t": 262249.99999999936,
      "d": 483.33333333331393,
      "v": 76
    },
    {
      "midi": 73,
      "hit": false,
      "t": 262249.99999999936,
      "d": 483.33333333331393,
      "v": 76
    },
    {
      "midi": 65,
      "hit": false,
      "t": 262249.99999999936,
      "d": 500,
      "v": 70
    },
    {
      "midi": 70,
      "hit": false,
      "t": 262833.3333333327,
      "d": 50.00000000005821,
      "v": 60
    },
    {
      "midi": 73,
      "hit": false,
      "t": 262849.99999999936,
      "d": 33.33333333337214,
      "v": 53
    },
    {
      "midi": 65,
      "hit": false,
      "t": 262866.66666666605,
      "d": 33.33333333337214,
      "v": 25
    },
    {
      "midi": 63,
      "hit": false,
      "t": 263716.6666666661,
      "d": 566.6666666667443,
      "v": 70
    },
    {
      "midi": 70,
      "hit": false,
      "t": 263733.3333333328,
      "d": 516.6666666666861,
      "v": 70
    },
    {
      "midi": 67,
      "hit": false,
      "t": 263733.3333333328,
      "d": 533.3333333333721,
      "v": 72
    },
    {
      "midi": 75,
      "hit": false,
      "t": 263749.9999999995,
      "d": 466.66666666668607,
      "v": 59
    },
    {
      "midi": 70,
      "hit": false,
      "t": 264333.33333333285,
      "d": 50,
      "v": 70
    },
    {
      "midi": 67,
      "hit": false,
      "t": 264333.33333333285,
      "d": 100,
      "v": 70
    },
    {
      "midi": 75,
      "hit": false,
      "t": 264349.99999999953,
      "d": 33.33333333331393,
      "v": 49
    },
    {
      "midi": 44,
      "hit": false,
      "t": 265183.33333333285,
      "d": 1166.666666666686,
      "v": 57
    },
    {
      "midi": 51,
      "hit": false,
      "t": 265183.33333333285,
      "d": 1216.666666666686,
      "v": 68
    },
    {
      "midi": 63,
      "hit": false,
      "t": 265183.33333333285,
      "d": 1216.666666666686,
      "v": 70
    },
    {
      "midi": 56,
      "hit": false,
      "t": 265199.99999999953,
      "d": 1083.333333333314,
      "v": 62
    },
    {
      "midi": 60,
      "hit": false,
      "t": 265199.99999999953,
      "d": 1100,
      "v": 84
    },
    {
      "midi": 46,
      "hit": false,
      "t": 266716.6666666662,
      "d": 800,
      "v": 66
    },
    {
      "midi": 49,
      "hit": false,
      "t": 266716.6666666662,
      "d": 800,
      "v": 62
    },
    {
      "midi": 53,
      "hit": false,
      "t": 266716.6666666662,
      "d": 900,
      "v": 51
    },
    {
      "midi": 58,
      "hit": false,
      "t": 266733.3333333329,
      "d": 900,
      "v": 47
    },
    {
      "midi": 61,
      "hit": false,
      "t": 266733.3333333329,
      "d": 933.3333333333139,
      "v": 70
    },
    {
      "midi": 65,
      "hit": false,
      "t": 266733.3333333329,
      "d": 966.6666666666279,
      "v": 72
    },
    {
      "midi": 48,
      "hit": false,
      "t": 268233.33333333285,
      "d": 1016.6666666666861,
      "v": 68
    },
    {
      "midi": 52,
      "hit": false,
      "t": 268249.99999999953,
      "d": 966.6666666666861,
      "v": 58
    },
    {
      "midi": 58,
      "hit": false,
      "t": 268249.99999999953,
      "d": 1000,
      "v": 66
    },
    {
      "midi": 55,
      "hit": false,
      "t": 268249.99999999953,
      "d": 1016.6666666666861,
      "v": 70
    },
    {
      "midi": 64,
      "hit": false,
      "t": 268249.99999999953,
      "d": 1016.6666666666861,
      "v": 57
    },
    {
      "midi": 60,
      "hit": false,
      "t": 268266.6666666662,
      "d": 983.3333333333139,
      "v": 54
    },
    {
      "midi": 60,
      "hit": false,
      "t": 269616.6666666662,
      "d": 50,
      "v": 68
    },
    {
      "midi": 64,
      "hit": false,
      "t": 269616.6666666662,
      "d": 50,
      "v": 49
    },
    {
      "midi": 58,
      "hit": false,
      "t": 269616.6666666662,
      "d": 66.66666666668607,
      "v": 66
    },
    {
      "midi": 55,
      "hit": false,
      "t": 269616.6666666662,
      "d": 83.33333333337214,
      "v": 79
    },
    {
      "midi": 58,
      "hit": false,
      "t": 270066.6666666663,
      "d": 833.3333333333139,
      "v": 56
    },
    {
      "midi": 60,
      "hit": false,
      "t": 270066.6666666663,
      "d": 833.3333333333139,
      "v": 55
    },
    {
      "midi": 55,
      "hit": false,
      "t": 270066.6666666663,
      "d": 883.3333333333139,
      "v": 68
    },
    {
      "midi": 64,
      "hit": false,
      "t": 270083.33333333296,
      "d": 733.3333333333139,
      "v": 51
    },
    {
      "midi": 60,
      "hit": false,
      "t": 271333.3333333329,
      "d": 416.66666666668607,
      "v": 89
    },
    {
      "midi": 41,
      "hit": false,
      "t": 271333.3333333329,
      "d": 483.33333333337214,
      "v": 79
    },
    {
      "midi": 56,
      "hit": false,
      "t": 271333.3333333329,
      "d": 483.33333333337214,
      "v": 86
    },
    {
      "midi": 55,
      "hit": false,
      "t": 271349.9999999996,
      "d": 483.33333333337214,
      "v": 79
    },
    {
      "midi": 56,
      "hit": false,
      "t": 271933.33333333296,
      "d": 66.66666666668607,
      "v": 78
    },
    {
      "midi": 60,
      "hit": false,
      "t": 271949.99999999965,
      "d": 33.33333333331393,
      "v": 72
    },
    {
      "midi": 55,
      "hit": false,
      "t": 271949.99999999965,
      "d": 66.66666666668607,
      "v": 79
    },
    {
      "midi": 56,
      "hit": false,
      "t": 272349.99999999965,
      "d": 66.66666666668607,
      "v": 76
    },
    {
      "midi": 55,
      "hit": false,
      "t": 272349.99999999965,
      "d": 100,
      "v": 79
    },
    {
      "midi": 60,
      "hit": false,
      "t": 272366.66666666634,
      "d": 50,
      "v": 79
    },
    {
      "midi": 56,
      "hit": false,
      "t": 273466.66666666634,
      "d": 33.33333333331393,
      "v": 66
    },
    {
      "midi": 55,
      "hit": false,
      "t": 273466.66666666634,
      "d": 50,
      "v": 65
    },
    {
      "midi": 60,
      "hit": false,
      "t": 273883.333333333,
      "d": 333.33333333331393,
      "v": 75
    },
    {
      "midi": 55,
      "hit": false,
      "t": 273883.333333333,
      "d": 433.33333333331393,
      "v": 75
    },
    {
      "midi": 56,
      "hit": false,
      "t": 273883.333333333,
      "d": 433.33333333331393,
      "v": 74
    },
    {
      "midi": 56,
      "hit": false,
      "t": 275749.99999999965,
      "d": 50.00000000005821,
      "v": 78
    },
    {
      "midi": 58,
      "hit": false,
      "t": 275766.66666666634,
      "d": 16.66666666668607,
      "v": 47
    },
    {
      "midi": 58,
      "hit": false,
      "t": 276183.333333333,
      "d": 750,
      "v": 70
    },
    {
      "midi": 56,
      "hit": false,
      "t": 276183.333333333,
      "d": 783.3333333333721,
      "v": 78
    },
    {
      "midi": 53,
      "hit": false,
      "t": 276283.333333333,
      "d": 666.6666666666861,
      "v": 7
    },
    {
      "midi": 61,
      "hit": false,
      "t": 277033.3333333331,
      "d": 83.33333333337214,
      "v": 68
    },
    {
      "midi": 56,
      "hit": false,
      "t": 277033.3333333331,
      "d": 150.0000000000582,
      "v": 72
    },
    {
      "midi": 58,
      "hit": false,
      "t": 277033.3333333331,
      "d": 283.33333333337214,
      "v": 74
    },
    {
      "midi": 53,
      "hit": false,
      "t": 277049.99999999977,
      "d": 233.33333333337214,
      "v": 67
    },
    {
      "midi": 56,
      "hit": false,
      "t": 278783.33333333314,
      "d": 50,
      "v": 68
    },
    {
      "midi": 55,
      "hit": false,
      "t": 278783.33333333314,
      "d": 66.66666666668607,
      "v": 68
    },
    {
      "midi": 60,
      "hit": false,
      "t": 278799.9999999998,
      "d": 33.33333333331393,
      "v": 48
    },
    {
      "midi": 56,
      "hit": false,
      "t": 279183.33333333314,
      "d": 883.3333333333139,
      "v": 74
    },
    {
      "midi": 60,
      "hit": false,
      "t": 279183.33333333314,
      "d": 933.3333333333139,
      "v": 63
    },
    {
      "midi": 55,
      "hit": false,
      "t": 279183.33333333314,
      "d": 966.6666666666279,
      "v": 72
    },
    {
      "midi": 46,
      "hit": false,
      "t": 280483.3333333331,
      "d": 900,
      "v": 74
    },
    {
      "midi": 56,
      "hit": false,
      "t": 281866.6666666664,
      "d": 50.00000000005821,
      "v": 78
    },
    {
      "midi": 58,
      "hit": false,
      "t": 281866.6666666664,
      "d": 50.00000000005821,
      "v": 76
    },
    {
      "midi": 53,
      "hit": false,
      "t": 281866.6666666664,
      "d": 66.66666666674428,
      "v": 72
    },
    {
      "midi": 61,
      "hit": false,
      "t": 281883.3333333331,
      "d": 16.66666666668607,
      "v": 56
    },
    {
      "midi": 61,
      "hit": false,
      "t": 282283.33333333314,
      "d": 766.6666666666861,
      "v": 74
    },
    {
      "midi": 56,
      "hit": false,
      "t": 282283.33333333314,
      "d": 783.3333333333721,
      "v": 74
    },
    {
      "midi": 53,
      "hit": false,
      "t": 282283.33333333314,
      "d": 800.0000000000582,
      "v": 73
    },
    {
      "midi": 58,
      "hit": false,
      "t": 282283.33333333314,
      "d": 816.6666666667443,
      "v": 68
    },
    {
      "midi": 60,
      "hit": false,
      "t": 283533.3333333332,
      "d": 400,
      "v": 89
    },
    {
      "midi": 41,
      "hit": false,
      "t": 283533.3333333332,
      "d": 466.66666666668607,
      "v": 79
    },
    {
      "midi": 56,
      "hit": false,
      "t": 283533.3333333332,
      "d": 466.66666666668607,
      "v": 86
    },
    {
      "midi": 55,
      "hit": false,
      "t": 283533.3333333332,
      "d": 500,
      "v": 79
    },
    {
      "midi": 56,
      "hit": false,
      "t": 284133.3333333332,
      "d": 50,
      "v": 74
    },
    {
      "midi": 55,
      "hit": false,
      "t": 284133.3333333332,
      "d": 66.66666666668607,
      "v": 75
    },
    {
      "midi": 60,
      "hit": false,
      "t": 284149.9999999999,
      "d": 33.33333333331393,
      "v": 68
    },
    {
      "midi": 56,
      "hit": false,
      "t": 284549.9999999999,
      "d": 66.66666666668607,
      "v": 69
    },
    {
      "midi": 60,
      "hit": false,
      "t": 284549.9999999999,
      "d": 66.66666666668607,
      "v": 72
    },
    {
      "midi": 55,
      "hit": false,
      "t": 284549.9999999999,
      "d": 100,
      "v": 72
    },
    {
      "midi": 56,
      "hit": false,
      "t": 285649.9999999999,
      "d": 50,
      "v": 54
    },
    {
      "midi": 55,
      "hit": false,
      "t": 285666.66666666657,
      "d": 50,
      "v": 53
    },
    {
      "midi": 56,
      "hit": false,
      "t": 286066.66666666657,
      "d": 433.33333333331393,
      "v": 59
    },
    {
      "midi": 55,
      "hit": false,
      "t": 286066.66666666657,
      "d": 450,
      "v": 60
    },
    {
      "midi": 60,
      "hit": false,
      "t": 286083.33333333326,
      "d": 333.33333333331393,
      "v": 59
    },
    {
      "midi": 56,
      "hit": false,
      "t": 287949.9999999999,
      "d": 50.00000000005821,
      "v": 49
    },
    {
      "midi": 58,
      "hit": false,
      "t": 287966.66666666657,
      "d": 16.66666666668607,
      "v": 30
    },
    {
      "midi": 58,
      "hit": false,
      "t": 288366.6666666666,
      "d": 766.6666666666861,
      "v": 42
    },
    {
      "midi": 56,
      "hit": false,
      "t": 288366.6666666666,
      "d": 783.3333333333721,
      "v": 47
    },
    {
      "midi": 53,
      "hit": false,
      "t": 288466.6666666666,
      "d": 666.6666666666861,
      "v": 4
    },
    {
      "midi": 61,
      "hit": false,
      "t": 289216.6666666667,
      "d": 100,
      "v": 36
    },
    {
      "midi": 56,
      "hit": false,
      "t": 289216.6666666667,
      "d": 166.66666666668607,
      "v": 38
    },
    {
      "midi": 53,
      "hit": false,
      "t": 289233.3333333334,
      "d": 250,
      "v": 36
    },
    {
      "midi": 58,
      "hit": false,
      "t": 289233.3333333334,
      "d": 266.66666666668607,
      "v": 39
    },
    {
      "midi": 56,
      "hit": false,
      "t": 290983.3333333334,
      "d": 50,
      "v": 26
    },
    {
      "midi": 55,
      "hit": false,
      "t": 290983.3333333334,
      "d": 66.66666666668607,
      "v": 26
    },
    {
      "midi": 60,
      "hit": false,
      "t": 291000.00000000006,
      "d": 33.33333333331393,
      "v": 18
    },
    {
      "midi": 56,
      "hit": false,
      "t": 291366.66666666674,
      "d": 900,
      "v": 26
    },
    {
      "midi": 55,
      "hit": false,
      "t": 291366.66666666674,
      "d": 966.6666666666861,
      "v": 25
    },
    {
      "midi": 60,
      "hit": false,
      "t": 291383.33333333343,
      "d": 933.3333333333139,
      "v": 22
    },
    {
      "midi": 46,
      "hit": false,
      "t": 292666.66666666674,
      "d": 900,
      "v": 18
    },
    {
      "midi": 58,
      "hit": false,
      "t": 294050.00000000006,
      "d": 66.66666666668607,
      "v": 10
    },
    {
      "midi": 61,
      "hit": false,
      "t": 294066.66666666674,
      "d": 33.33333333331393,
      "v": 7
    },
    {
      "midi": 56,
      "hit": false,
      "t": 294066.66666666674,
      "d": 50,
      "v": 10
    },
    {
      "midi": 53,
      "hit": false,
      "t": 294066.66666666674,
      "d": 66.66666666668607,
      "v": 10
    },
    {
      "midi": 56,
      "hit": false,
      "t": 294466.66666666674,
      "d": 783.3333333333139,
      "v": 8
    },
    {
      "midi": 61,
      "hit": false,
      "t": 294466.66666666674,
      "d": 783.3333333333139,
      "v": 8
    },
    {
      "midi": 53,
      "hit": false,
      "t": 294466.66666666674,
      "d": 800,
      "v": 8
    },
    {
      "midi": 58,
      "hit": false,
      "t": 294466.66666666674,
      "d": 816.6666666666861,
      "v": 7
    }
  ]
}