{
  "jsonPath": "Jazz/Jazz Funk/Pieces Of A Dream/upside-down.json",
  "path": "Jazz\\Jazz Funk\\Pieces Of A Dream\\Upside Down.mid",
  "name": "Upside Down",
  "difficulty": "Advanced",
  "bpm": 85.00004250002125,
  "notes": [
    {
      "midi": 58,
      "hit": false,
      "t": 16941.168,
      "d": 136.0293437500004,
      "v": 81
    },
    {
      "midi": 62,
      "hit": false,
      "t": 16941.168,
      "d": 143.38228125000023,
      "v": 88
    },
    {
      "midi": 43,
      "hit": false,
      "t": 16941.168,
      "d": 183.82343749999927,
      "v": 55
    },
    {
      "midi": 43,
      "hit": false,
      "t": 17294.109,
      "d": 165.4410937499997,
      "v": 63
    },
    {
      "midi": 62,
      "hit": false,
      "t": 17297.78546875,
      "d": 143.38228125000023,
      "v": 81
    },
    {
      "midi": 58,
      "hit": false,
      "t": 17297.78546875,
      "d": 158.08815624999988,
      "v": 66
    },
    {
      "midi": 43,
      "hit": false,
      "t": 17647.05,
      "d": 183.82343749999927,
      "v": 72
    },
    {
      "midi": 58,
      "hit": false,
      "t": 17650.72646875,
      "d": 154.41168749999997,
      "v": 82
    },
    {
      "midi": 62,
      "hit": false,
      "t": 17650.72646875,
      "d": 161.7646249999998,
      "v": 97
    },
    {
      "midi": 43,
      "hit": false,
      "t": 17999.990999999998,
      "d": 183.82343749999927,
      "v": 81
    },
    {
      "midi": 58,
      "hit": false,
      "t": 18003.667468749998,
      "d": 143.38228125000023,
      "v": 92
    },
    {
      "midi": 62,
      "hit": false,
      "t": 18003.667468749998,
      "d": 150.73521875000006,
      "v": 98
    },
    {
      "midi": 43,
      "hit": false,
      "t": 18352.931999999997,
      "d": 169.11756249999962,
      "v": 89
    },
    {
      "midi": 58,
      "hit": false,
      "t": 18360.284937499997,
      "d": 136.0293437500004,
      "v": 93
    },
    {
      "midi": 62,
      "hit": false,
      "t": 18360.284937499997,
      "d": 143.38228125000023,
      "v": 98
    },
    {
      "midi": 43,
      "hit": false,
      "t": 18705.872999999996,
      "d": 176.47049999999945,
      "v": 98
    },
    {
      "midi": 58,
      "hit": false,
      "t": 18709.549468749996,
      "d": 124.99993750000067,
      "v": 93
    },
    {
      "midi": 62,
      "hit": false,
      "t": 18709.549468749996,
      "d": 132.3528750000005,
      "v": 100
    },
    {
      "midi": 43,
      "hit": false,
      "t": 19058.813999999995,
      "d": 169.11756249999962,
      "v": 107
    },
    {
      "midi": 58,
      "hit": false,
      "t": 19062.490468749995,
      "d": 124.99993750000067,
      "v": 101
    },
    {
      "midi": 62,
      "hit": false,
      "t": 19062.490468749995,
      "d": 143.38228125000023,
      "v": 106
    },
    {
      "midi": 43,
      "hit": false,
      "t": 19408.078531249994,
      "d": 191.1763749999991,
      "v": 117
    },
    {
      "midi": 58,
      "hit": false,
      "t": 19415.431468749994,
      "d": 194.852843749999,
      "v": 110
    },
    {
      "midi": 62,
      "hit": false,
      "t": 19415.431468749994,
      "d": 209.55871874999866,
      "v": 110
    },
    {
      "midi": 65,
      "hit": false,
      "t": 19415.431468749994,
      "d": 209.55871874999866,
      "v": 111
    },
    {
      "midi": 55,
      "hit": false,
      "t": 19764.695999999993,
      "d": 3.6764687499999127,
      "v": 104
    },
    {
      "midi": 60,
      "hit": false,
      "t": 19764.695999999993,
      "d": 341.91159374999916,
      "v": 110
    },
    {
      "midi": 64,
      "hit": false,
      "t": 19764.695999999993,
      "d": 356.6174687499988,
      "v": 105
    },
    {
      "midi": 36,
      "hit": false,
      "t": 19764.695999999993,
      "d": 397.05862499999785,
      "v": 105
    },
    {
      "midi": 55,
      "hit": false,
      "t": 20110.28406249999,
      "d": 301.4704375000001,
      "v": 107
    },
    {
      "midi": 67,
      "hit": false,
      "t": 20290.43103124999,
      "d": 143.38228125000023,
      "v": 117
    },
    {
      "midi": 55,
      "hit": false,
      "t": 20812.48959374999,
      "d": 253.67634375000125,
      "v": 32
    },
    {
      "midi": 67,
      "hit": false,
      "t": 20988.96009374999,
      "d": 139.70581250000032,
      "v": 44
    },
    {
      "midi": 57,
      "hit": false,
      "t": 22231.60653124999,
      "d": 84.55878125000163,
      "v": 115
    },
    {
      "midi": 41,
      "hit": false,
      "t": 22231.60653124999,
      "d": 113.97053125000093,
      "v": 114
    },
    {
      "midi": 53,
      "hit": false,
      "t": 22231.60653124999,
      "d": 117.64700000000084,
      "v": 111
    },
    {
      "midi": 55,
      "hit": false,
      "t": 22584.54753124999,
      "d": 84.55878125000163,
      "v": 115
    },
    {
      "midi": 58,
      "hit": false,
      "t": 22584.54753124999,
      "d": 95.58818750000137,
      "v": 114
    },
    {
      "midi": 43,
      "hit": false,
      "t": 22584.54753124999,
      "d": 99.26465625000128,
      "v": 117
    },
    {
      "midi": 55,
      "hit": false,
      "t": 22941.164999999994,
      "d": 95.58818750000137,
      "v": 48
    },
    {
      "midi": 55,
      "hit": false,
      "t": 23117.635499999997,
      "d": 117.64700000000084,
      "v": 38
    },
    {
      "midi": 36,
      "hit": false,
      "t": 25411.751999999997,
      "d": 397.05862499999785,
      "v": 104
    },
    {
      "midi": 55,
      "hit": false,
      "t": 25415.428468749997,
      "d": 294.1175000000003,
      "v": 105
    },
    {
      "midi": 60,
      "hit": false,
      "t": 25415.428468749997,
      "d": 345.58806249999907,
      "v": 111
    },
    {
      "midi": 64,
      "hit": false,
      "t": 25415.428468749997,
      "d": 360.2939374999987,
      "v": 104
    },
    {
      "midi": 55,
      "hit": false,
      "t": 25761.016531249996,
      "d": 301.4704375000001,
      "v": 106
    },
    {
      "midi": 67,
      "hit": false,
      "t": 25937.487031249995,
      "d": 147.05875000000015,
      "v": 117
    },
    {
      "midi": 55,
      "hit": false,
      "t": 26466.898531249994,
      "d": 253.67634375000125,
      "v": 32
    },
    {
      "midi": 67,
      "hit": false,
      "t": 26643.369031249993,
      "d": 139.70581250000032,
      "v": 45
    },
    {
      "midi": 57,
      "hit": false,
      "t": 27878.662531249993,
      "d": 84.55878125000163,
      "v": 115
    },
    {
      "midi": 41,
      "hit": false,
      "t": 27878.662531249993,
      "d": 113.97053125000093,
      "v": 114
    },
    {
      "midi": 53,
      "hit": false,
      "t": 27878.662531249993,
      "d": 117.64700000000084,
      "v": 110
    },
    {
      "midi": 55,
      "hit": false,
      "t": 28231.603531249995,
      "d": 84.55878125000163,
      "v": 114
    },
    {
      "midi": 58,
      "hit": false,
      "t": 28231.603531249995,
      "d": 95.58818750000137,
      "v": 115
    },
    {
      "midi": 43,
      "hit": false,
      "t": 28231.603531249995,
      "d": 99.26465625000128,
      "v": 117
    },
    {
      "midi": 55,
      "hit": false,
      "t": 28588.220999999998,
      "d": 95.58818750000137,
      "v": 74
    },
    {
      "midi": 55,
      "hit": false,
      "t": 28941.162,
      "d": 117.64700000000084,
      "v": 49
    },
    {
      "midi": 55,
      "hit": false,
      "t": 29294.103000000003,
      "d": 117.64700000000084,
      "v": 27
    },
    {
      "midi": 46,
      "hit": false,
      "t": 29647.044000000005,
      "d": 113.97053125000093,
      "v": 76
    },
    {
      "midi": 46,
      "hit": false,
      "t": 30176.455500000007,
      "d": 136.0293437500004,
      "v": 84
    },
    {
      "midi": 46,
      "hit": false,
      "t": 30529.396500000006,
      "d": 55.14703124999869,
      "v": 91
    },
    {
      "midi": 46,
      "hit": false,
      "t": 30874.984562500005,
      "d": 110.29406250000102,
      "v": 95
    },
    {
      "midi": 48,
      "hit": false,
      "t": 31058.808000000005,
      "d": 290.4410312500004,
      "v": 102
    },
    {
      "midi": 36,
      "hit": false,
      "t": 31411.749000000003,
      "d": 44.11762499999895,
      "v": 80
    },
    {
      "midi": 48,
      "hit": false,
      "t": 31588.219500000003,
      "d": 73.52937499999825,
      "v": 105
    },
    {
      "midi": 55,
      "hit": false,
      "t": 34235.277,
      "d": 95.58818749999773,
      "v": 49
    },
    {
      "midi": 55,
      "hit": false,
      "t": 34411.7475,
      "d": 117.6469999999972,
      "v": 38
    },
    {
      "midi": 46,
      "hit": false,
      "t": 35294.09999999999,
      "d": 113.97053125000093,
      "v": 76
    },
    {
      "midi": 46,
      "hit": false,
      "t": 35823.51149999999,
      "d": 136.0293437500004,
      "v": 84
    },
    {
      "midi": 46,
      "hit": false,
      "t": 36176.45249999999,
      "d": 55.14703125000233,
      "v": 91
    },
    {
      "midi": 46,
      "hit": false,
      "t": 36522.04056249999,
      "d": 110.29406249999738,
      "v": 94
    },
    {
      "midi": 36,
      "hit": false,
      "t": 36705.86399999999,
      "d": 397.0586250000124,
      "v": 105
    },
    {
      "midi": 55,
      "hit": false,
      "t": 36738.95221874999,
      "d": 3.6764687500035507,
      "v": 105
    },
    {
      "midi": 60,
      "hit": false,
      "t": 36742.62868749999,
      "d": 345.58806250000634,
      "v": 110
    },
    {
      "midi": 64,
      "hit": false,
      "t": 36746.30515625,
      "d": 360.293937500006,
      "v": 105
    },
    {
      "midi": 55,
      "hit": false,
      "t": 37051.4520625,
      "d": 301.4704375000001,
      "v": 106
    },
    {
      "midi": 67,
      "hit": false,
      "t": 37231.59903125,
      "d": 143.38228125000023,
      "v": 117
    },
    {
      "midi": 55,
      "hit": false,
      "t": 37753.65759375,
      "d": 253.6763437500049,
      "v": 32
    },
    {
      "midi": 67,
      "hit": false,
      "t": 37930.128093750005,
      "d": 139.70581250000396,
      "v": 45
    },
    {
      "midi": 57,
      "hit": false,
      "t": 39172.77453125001,
      "d": 84.55878125000163,
      "v": 114
    },
    {
      "midi": 41,
      "hit": false,
      "t": 39172.77453125001,
      "d": 113.97053125000093,
      "v": 114
    },
    {
      "midi": 53,
      "hit": false,
      "t": 39172.77453125001,
      "d": 117.64700000000448,
      "v": 111
    },
    {
      "midi": 55,
      "hit": false,
      "t": 39525.71553125002,
      "d": 84.55878125000163,
      "v": 115
    },
    {
      "midi": 58,
      "hit": false,
      "t": 39525.71553125002,
      "d": 95.588187500005,
      "v": 115
    },
    {
      "midi": 43,
      "hit": false,
      "t": 39525.71553125002,
      "d": 99.26465625000856,
      "v": 116
    },
    {
      "midi": 55,
      "hit": false,
      "t": 39882.33300000003,
      "d": 95.58818749999773,
      "v": 48
    },
    {
      "midi": 55,
      "hit": false,
      "t": 40058.80350000002,
      "d": 117.6469999999972,
      "v": 38
    },
    {
      "midi": 46,
      "hit": false,
      "t": 40941.15600000002,
      "d": 113.97053125000093,
      "v": 77
    },
    {
      "midi": 46,
      "hit": false,
      "t": 41470.56750000002,
      "d": 136.0293437500004,
      "v": 84
    },
    {
      "midi": 46,
      "hit": false,
      "t": 41823.50850000002,
      "d": 55.14703125000233,
      "v": 91
    },
    {
      "midi": 46,
      "hit": false,
      "t": 42169.09656250002,
      "d": 110.29406249999738,
      "v": 95
    },
    {
      "midi": 55,
      "hit": false,
      "t": 42352.92000000001,
      "d": 3.6764687500035507,
      "v": 105
    },
    {
      "midi": 60,
      "hit": false,
      "t": 42352.92000000001,
      "d": 341.9115937500028,
      "v": 110
    },
    {
      "midi": 64,
      "hit": false,
      "t": 42352.92000000001,
      "d": 356.6174687500097,
      "v": 104
    },
    {
      "midi": 36,
      "hit": false,
      "t": 42352.92000000001,
      "d": 397.0586250000124,
      "v": 104
    },
    {
      "midi": 43,
      "hit": false,
      "t": 42529.3905,
      "d": 33.08821875000285,
      "v": 51
    },
    {
      "midi": 55,
      "hit": false,
      "t": 42698.50806250002,
      "d": 301.4704375000074,
      "v": 107
    },
    {
      "midi": 55,
      "hit": false,
      "t": 42705.861000000004,
      "d": 36.76468749999913,
      "v": 82
    },
    {
      "midi": 67,
      "hit": false,
      "t": 42878.655031250026,
      "d": 143.38228125000023,
      "v": 117
    },
    {
      "midi": 55,
      "hit": false,
      "t": 42882.3315,
      "d": 36.76468749999913,
      "v": 83
    },
    {
      "midi": 43,
      "hit": false,
      "t": 43058.801999999996,
      "d": 33.08821875000285,
      "v": 51
    },
    {
      "midi": 55,
      "hit": false,
      "t": 43235.2725,
      "d": 36.76468749999913,
      "v": 82
    },
    {
      "midi": 55,
      "hit": false,
      "t": 43400.71359375003,
      "d": 253.6763437500049,
      "v": 32
    },
    {
      "midi": 55,
      "hit": false,
      "t": 43411.742999999995,
      "d": 36.76468749999913,
      "v": 83
    },
    {
      "midi": 67,
      "hit": false,
      "t": 43577.18409375003,
      "d": 139.70581250000396,
      "v": 44
    },
    {
      "midi": 43,
      "hit": false,
      "t": 43588.21349999999,
      "d": 33.08821875000285,
      "v": 50
    },
    {
      "midi": 55,
      "hit": false,
      "t": 43764.683999999994,
      "d": 36.76468749999913,
      "v": 82
    },
    {
      "midi": 55,
      "hit": false,
      "t": 43941.15449999999,
      "d": 36.76468749999913,
      "v": 83
    },
    {
      "midi": 43,
      "hit": false,
      "t": 44117.624999999985,
      "d": 33.08821875000285,
      "v": 51
    },
    {
      "midi": 55,
      "hit": false,
      "t": 44294.09549999999,
      "d": 36.76468749999913,
      "v": 82
    },
    {
      "midi": 55,
      "hit": false,
      "t": 44470.565999999984,
      "d": 36.76468749999913,
      "v": 82
    },
    {
      "midi": 43,
      "hit": false,
      "t": 44647.03649999998,
      "d": 33.08821875000285,
      "v": 51
    },
    {
      "midi": 55,
      "hit": false,
      "t": 44819.83053124998,
      "d": 36.7646875000064,
      "v": 83
    },
    {
      "midi": 57,
      "hit": false,
      "t": 44819.83053125004,
      "d": 84.55878125000163,
      "v": 115
    },
    {
      "midi": 41,
      "hit": false,
      "t": 44819.83053125004,
      "d": 113.97053125000093,
      "v": 115
    },
    {
      "midi": 53,
      "hit": false,
      "t": 44819.83053125004,
      "d": 117.64700000000448,
      "v": 110
    },
    {
      "midi": 55,
      "hit": false,
      "t": 44999.977499999986,
      "d": 36.76468749999913,
      "v": 82
    },
    {
      "midi": 55,
      "hit": false,
      "t": 45172.771531250044,
      "d": 84.55878125000163,
      "v": 114
    },
    {
      "midi": 58,
      "hit": false,
      "t": 45172.771531250044,
      "d": 95.588187500005,
      "v": 114
    },
    {
      "midi": 43,
      "hit": false,
      "t": 45172.771531250044,
      "d": 99.26465625000856,
      "v": 117
    },
    {
      "midi": 43,
      "hit": false,
      "t": 45176.44799999998,
      "d": 33.08821875000285,
      "v": 50
    },
    {
      "midi": 55,
      "hit": false,
      "t": 45352.918499999985,
      "d": 36.76468749999913,
      "v": 83
    },
    {
      "midi": 55,
      "hit": false,
      "t": 45529.38899999998,
      "d": 36.76468749999913,
      "v": 82
    },
    {
      "midi": 55,
      "hit": false,
      "t": 45529.389000000054,
      "d": 95.58818749999773,
      "v": 48
    },
    {
      "midi": 43,
      "hit": false,
      "t": 45705.85949999998,
      "d": 33.08821875000285,
      "v": 51
    },
    {
      "midi": 55,
      "hit": false,
      "t": 45705.85950000005,
      "d": 117.6469999999972,
      "v": 38
    },
    {
      "midi": 55,
      "hit": false,
      "t": 45882.32999999998,
      "d": 36.76468749999913,
      "v": 83
    },
    {
      "midi": 55,
      "hit": false,
      "t": 46058.800499999976,
      "d": 36.76468749999913,
      "v": 82
    },
    {
      "midi": 43,
      "hit": false,
      "t": 46235.27099999997,
      "d": 33.08821875000285,
      "v": 51
    },
    {
      "midi": 55,
      "hit": false,
      "t": 46411.741499999975,
      "d": 36.76468749999913,
      "v": 82
    },
    {
      "midi": 55,
      "hit": false,
      "t": 46584.535531249974,
      "d": 36.7646875000064,
      "v": 82
    },
    {
      "midi": 43,
      "hit": false,
      "t": 46764.68249999998,
      "d": 33.08821875000285,
      "v": 51
    },
    {
      "midi": 55,
      "hit": false,
      "t": 46937.47653124998,
      "d": 36.7646875000064,
      "v": 83
    },
    {
      "midi": 55,
      "hit": false,
      "t": 47117.62349999999,
      "d": 36.76468749999913,
      "v": 82
    },
    {
      "midi": 43,
      "hit": false,
      "t": 47294.09399999998,
      "d": 33.08821875000285,
      "v": 50
    },
    {
      "midi": 55,
      "hit": false,
      "t": 47470.564499999986,
      "d": 36.76468749999913,
      "v": 83
    },
    {
      "midi": 55,
      "hit": false,
      "t": 47647.03499999998,
      "d": 36.76468749999913,
      "v": 83
    },
    {
      "midi": 43,
      "hit": false,
      "t": 47823.50549999998,
      "d": 33.08821875000285,
      "v": 50
    },
    {
      "midi": 55,
      "hit": false,
      "t": 47996.29953124998,
      "d": 36.7646875000064,
      "v": 82
    },
    {
      "midi": 36,
      "hit": false,
      "t": 47999.976000000046,
      "d": 397.0586250000051,
      "v": 105
    },
    {
      "midi": 55,
      "hit": false,
      "t": 48003.65246875005,
      "d": 294.1175000000003,
      "v": 105
    },
    {
      "midi": 60,
      "hit": false,
      "t": 48003.65246875005,
      "d": 345.58806249999907,
      "v": 110
    },
    {
      "midi": 64,
      "hit": false,
      "t": 48003.65246875005,
      "d": 360.2939374999987,
      "v": 105
    },
    {
      "midi": 55,
      "hit": false,
      "t": 48176.446499999984,
      "d": 36.76468749999913,
      "v": 83
    },
    {
      "midi": 55,
      "hit": false,
      "t": 48349.24053125005,
      "d": 301.4704375000001,
      "v": 106
    },
    {
      "midi": 43,
      "hit": false,
      "t": 48352.91699999998,
      "d": 33.08821875000285,
      "v": 50
    },
    {
      "midi": 67,
      "hit": false,
      "t": 48525.71103125005,
      "d": 147.0587499999965,
      "v": 117
    },
    {
      "midi": 55,
      "hit": false,
      "t": 48529.38749999998,
      "d": 36.76468749999913,
      "v": 83
    },
    {
      "midi": 55,
      "hit": false,
      "t": 48705.85799999998,
      "d": 33.08821875000285,
      "v": 83
    },
    {
      "midi": 43,
      "hit": false,
      "t": 48882.32849999998,
      "d": 33.08821875000285,
      "v": 50
    },
    {
      "midi": 55,
      "hit": false,
      "t": 49055.12253124998,
      "d": 36.7646875000064,
      "v": 83
    },
    {
      "midi": 55,
      "hit": false,
      "t": 49055.12253125005,
      "d": 253.6763437500049,
      "v": 45
    },
    {
      "midi": 67,
      "hit": false,
      "t": 49231.59303125005,
      "d": 139.70581250000396,
      "v": 49
    },
    {
      "midi": 55,
      "hit": false,
      "t": 49235.26949999999,
      "d": 33.08821875000285,
      "v": 82
    },
    {
      "midi": 43,
      "hit": false,
      "t": 49411.73999999999,
      "d": 33.08821875000285,
      "v": 50
    },
    {
      "midi": 55,
      "hit": false,
      "t": 49588.210499999994,
      "d": 36.76468749999913,
      "v": 83
    },
    {
      "midi": 55,
      "hit": false,
      "t": 49764.68099999999,
      "d": 36.76468749999913,
      "v": 83
    },
    {
      "midi": 43,
      "hit": false,
      "t": 49941.151499999985,
      "d": 33.08821875000285,
      "v": 50
    },
    {
      "midi": 55,
      "hit": false,
      "t": 50117.62199999999,
      "d": 36.76468749999913,
      "v": 82
    },
    {
      "midi": 55,
      "hit": false,
      "t": 50294.092499999984,
      "d": 36.76468749999913,
      "v": 83
    },
    {
      "midi": 57,
      "hit": false,
      "t": 50466.88653125006,
      "d": 84.55878125000163,
      "v": 115
    },
    {
      "midi": 41,
      "hit": false,
      "t": 50466.88653125006,
      "d": 113.97053125000093,
      "v": 114
    },
    {
      "midi": 53,
      "hit": false,
      "t": 50466.88653125006,
      "d": 117.64700000000448,
      "v": 110
    },
    {
      "midi": 43,
      "hit": false,
      "t": 50470.56299999998,
      "d": 33.08821875000285,
      "v": 51
    },
    {
      "midi": 55,
      "hit": false,
      "t": 50647.03349999998,
      "d": 36.76468749999913,
      "v": 82
    },
    {
      "midi": 55,
      "hit": false,
      "t": 50819.82753125006,
      "d": 84.55878125000163,
      "v": 115
    },
    {
      "midi": 58,
      "hit": false,
      "t": 50819.82753125006,
      "d": 95.588187500005,
      "v": 114
    },
    {
      "midi": 43,
      "hit": false,
      "t": 50819.82753125006,
      "d": 99.26465625000856,
      "v": 116
    },
    {
      "midi": 55,
      "hit": false,
      "t": 50823.50399999998,
      "d": 36.76468749999913,
      "v": 82
    },
    {
      "midi": 43,
      "hit": false,
      "t": 50999.974499999975,
      "d": 33.08821875000285,
      "v": 51
    },
    {
      "midi": 55,
      "hit": false,
      "t": 51172.768531249974,
      "d": 36.7646875000064,
      "v": 82
    },
    {
      "midi": 55,
      "hit": false,
      "t": 51176.44500000007,
      "d": 95.58818749999773,
      "v": 75
    },
    {
      "midi": 55,
      "hit": false,
      "t": 51352.91549999998,
      "d": 36.76468749999913,
      "v": 83
    },
    {
      "midi": 43,
      "hit": false,
      "t": 51529.38599999998,
      "d": 33.08821875000285,
      "v": 51
    },
    {
      "midi": 55,
      "hit": false,
      "t": 51529.38600000007,
      "d": 117.6469999999972,
      "v": 48
    },
    {
      "midi": 55,
      "hit": false,
      "t": 51705.85649999998,
      "d": 33.08821875000285,
      "v": 82
    },
    {
      "midi": 55,
      "hit": false,
      "t": 51882.32699999998,
      "d": 36.76468749999913,
      "v": 83
    },
    {
      "midi": 55,
      "hit": false,
      "t": 51882.32700000007,
      "d": 117.6469999999972,
      "v": 27
    },
    {
      "midi": 43,
      "hit": false,
      "t": 52058.79749999998,
      "d": 33.08821875000285,
      "v": 50
    },
    {
      "midi": 55,
      "hit": false,
      "t": 52235.26799999998,
      "d": 36.76468749999913,
      "v": 82
    },
    {
      "midi": 46,
      "hit": false,
      "t": 52235.26800000007,
      "d": 113.97053125000093,
      "v": 77
    },
    {
      "midi": 55,
      "hit": false,
      "t": 52411.73849999998,
      "d": 36.76468749999913,
      "v": 83
    },
    {
      "midi": 43,
      "hit": false,
      "t": 52588.20899999997,
      "d": 33.08821875000285,
      "v": 51
    },
    {
      "midi": 55,
      "hit": false,
      "t": 52764.67949999998,
      "d": 36.76468749999913,
      "v": 82
    },
    {
      "midi": 46,
      "hit": false,
      "t": 52764.67950000007,
      "d": 136.0293437500004,
      "v": 85
    },
    {
      "midi": 55,
      "hit": false,
      "t": 52941.14999999997,
      "d": 36.76468749999913,
      "v": 82
    },
    {
      "midi": 43,
      "hit": false,
      "t": 53117.62049999997,
      "d": 33.08821875000285,
      "v": 51
    },
    {
      "midi": 46,
      "hit": false,
      "t": 53117.62050000007,
      "d": 55.14703125000233,
      "v": 90
    },
    {
      "midi": 55,
      "hit": false,
      "t": 53294.09099999997,
      "d": 36.76468749999913,
      "v": 83
    },
    {
      "midi": 46,
      "hit": false,
      "t": 53463.20856250007,
      "d": 110.29406249999738,
      "v": 95
    },
    {
      "midi": 55,
      "hit": false,
      "t": 53470.56149999997,
      "d": 36.76468749999913,
      "v": 82
    },
    {
      "midi": 43,
      "hit": false,
      "t": 53647.03199999996,
      "d": 33.08821875000285,
      "v": 50
    },
    {
      "midi": 60,
      "hit": false,
      "t": 53647.032000000065,
      "d": 341.9115937500028,
      "v": 111
    },
    {
      "midi": 55,
      "hit": false,
      "t": 53647.032000000065,
      "d": 352.94100000000617,
      "v": 104
    },
    {
      "midi": 64,
      "hit": false,
      "t": 53647.032000000065,
      "d": 356.6174687500097,
      "v": 105
    },
    {
      "midi": 36,
      "hit": false,
      "t": 53647.032000000065,
      "d": 397.0586250000124,
      "v": 104
    },
    {
      "midi": 55,
      "hit": false,
      "t": 53823.502499999966,
      "d": 33.08821875000285,
      "v": 83
    },
    {
      "midi": 55,
      "hit": false,
      "t": 53999.97299999997,
      "d": 33.08821875000285,
      "v": 82
    },
    {
      "midi": 48,
      "hit": false,
      "t": 53999.97300000007,
      "d": 227.94106250000186,
      "v": 90
    },
    {
      "midi": 43,
      "hit": false,
      "t": 54176.44349999997,
      "d": 33.08821875000285,
      "v": 51
    },
    {
      "midi": 55,
      "hit": false,
      "t": 54176.443500000074,
      "d": 154.41168749999633,
      "v": 117
    },
    {
      "midi": 55,
      "hit": false,
      "t": 54356.59046874998,
      "d": 33.08821875000285,
      "v": 83
    },
    {
      "midi": 55,
      "hit": false,
      "t": 54529.38449999998,
      "d": 33.08821875000285,
      "v": 82
    },
    {
      "midi": 43,
      "hit": false,
      "t": 54705.85499999998,
      "d": 33.08821875000285,
      "v": 51
    },
    {
      "midi": 55,
      "hit": false,
      "t": 54886.00196874998,
      "d": 33.08821875000285,
      "v": 82
    },
    {
      "midi": 55,
      "hit": false,
      "t": 55062.472468749984,
      "d": 33.08821875000285,
      "v": 82
    },
    {
      "midi": 43,
      "hit": false,
      "t": 55235.26649999998,
      "d": 33.08821875000285,
      "v": 51
    },
    {
      "midi": 55,
      "hit": false,
      "t": 55415.41346874999,
      "d": 33.08821875000285,
      "v": 83
    },
    {
      "midi": 55,
      "hit": false,
      "t": 55591.88396874999,
      "d": 33.08821875000285,
      "v": 82
    },
    {
      "midi": 43,
      "hit": false,
      "t": 55764.67799999999,
      "d": 33.08821875000285,
      "v": 50
    },
    {
      "midi": 55,
      "hit": false,
      "t": 55944.82496874999,
      "d": 33.08821875000285,
      "v": 83
    },
    {
      "midi": 57,
      "hit": false,
      "t": 56113.94253125007,
      "d": 84.55878125000163,
      "v": 114
    },
    {
      "midi": 41,
      "hit": false,
      "t": 56113.94253125007,
      "d": 113.97053125000093,
      "v": 115
    },
    {
      "midi": 53,
      "hit": false,
      "t": 56113.94253125007,
      "d": 117.64700000000448,
      "v": 111
    },
    {
      "midi": 55,
      "hit": false,
      "t": 56121.295468749995,
      "d": 33.08821875000285,
      "v": 83
    },
    {
      "midi": 43,
      "hit": false,
      "t": 56294.089499999995,
      "d": 33.08821875000285,
      "v": 50
    },
    {
      "midi": 55,
      "hit": false,
      "t": 56466.883531250074,
      "d": 84.55878125000163,
      "v": 114
    },
    {
      "midi": 58,
      "hit": false,
      "t": 56466.883531250074,
      "d": 95.588187500005,
      "v": 115
    },
    {
      "midi": 43,
      "hit": false,
      "t": 56466.883531250074,
      "d": 99.26465625000856,
      "v": 116
    },
    {
      "midi": 55,
      "hit": false,
      "t": 56474.23646875,
      "d": 33.08821875000285,
      "v": 82
    },
    {
      "midi": 55,
      "hit": false,
      "t": 56650.706968750004,
      "d": 33.08821875000285,
      "v": 83
    },
    {
      "midi": 43,
      "hit": false,
      "t": 56823.501000000004,
      "d": 33.08821875000285,
      "v": 50
    },
    {
      "midi": 55,
      "hit": false,
      "t": 56823.501000000084,
      "d": 95.58818749999773,
      "v": 49
    },
    {
      "midi": 55,
      "hit": false,
      "t": 56999.97150000008,
      "d": 117.6469999999972,
      "v": 38
    },
    {
      "midi": 55,
      "hit": false,
      "t": 57003.64796875,
      "d": 33.08821875000285,
      "v": 83
    },
    {
      "midi": 55,
      "hit": false,
      "t": 57180.118468750006,
      "d": 33.08821875000285,
      "v": 83
    },
    {
      "midi": 43,
      "hit": false,
      "t": 57352.912500000006,
      "d": 33.08821875000285,
      "v": 50
    },
    {
      "midi": 55,
      "hit": false,
      "t": 57533.05946875001,
      "d": 33.08821875000285,
      "v": 83
    },
    {
      "midi": 55,
      "hit": false,
      "t": 57705.85350000001,
      "d": 33.08821875000285,
      "v": 82
    },
    {
      "midi": 43,
      "hit": false,
      "t": 57882.324000000015,
      "d": 33.08821875000285,
      "v": 50
    },
    {
      "midi": 55,
      "hit": false,
      "t": 58058.79450000002,
      "d": 33.08821875000285,
      "v": 83
    },
    {
      "midi": 55,
      "hit": false,
      "t": 58235.26500000002,
      "d": 33.08821875000285,
      "v": 83
    },
    {
      "midi": 43,
      "hit": false,
      "t": 58411.735500000024,
      "d": 33.08821875000285,
      "v": 50
    },
    {
      "midi": 55,
      "hit": false,
      "t": 58588.20600000003,
      "d": 33.08821875000285,
      "v": 82
    },
    {
      "midi": 55,
      "hit": false,
      "t": 58764.67650000003,
      "d": 33.08821875000285,
      "v": 83
    },
    {
      "midi": 43,
      "hit": false,
      "t": 58941.14700000003,
      "d": 33.08821875000285,
      "v": 51
    },
    {
      "midi": 55,
      "hit": false,
      "t": 59117.61750000004,
      "d": 33.08821875000285,
      "v": 82
    },
    {
      "midi": 55,
      "hit": false,
      "t": 59294.08800000004,
      "d": 33.08821875000285,
      "v": 82
    },
    {
      "midi": 36,
      "hit": false,
      "t": 59294.088000000076,
      "d": 397.0586250000051,
      "v": 105
    },
    {
      "midi": 55,
      "hit": false,
      "t": 59297.76446875008,
      "d": 294.1175000000003,
      "v": 104
    },
    {
      "midi": 60,
      "hit": false,
      "t": 59297.76446875008,
      "d": 345.58806249999907,
      "v": 111
    },
    {
      "midi": 64,
      "hit": false,
      "t": 59297.76446875008,
      "d": 360.2939374999987,
      "v": 104
    },
    {
      "midi": 43,
      "hit": false,
      "t": 59470.55850000004,
      "d": 33.08821875000285,
      "v": 51
    },
    {
      "midi": 55,
      "hit": false,
      "t": 59643.35253125008,
      "d": 301.4704375000001,
      "v": 106
    },
    {
      "midi": 55,
      "hit": false,
      "t": 59647.029000000046,
      "d": 33.08821875000285,
      "v": 82
    },
    {
      "midi": 67,
      "hit": false,
      "t": 59819.82303125008,
      "d": 147.0587499999965,
      "v": 117
    },
    {
      "midi": 55,
      "hit": false,
      "t": 59823.49950000005,
      "d": 33.08821875000285,
      "v": 83
    },
    {
      "midi": 43,
      "hit": false,
      "t": 59999.97000000005,
      "d": 33.08821875000285,
      "v": 51
    },
    {
      "midi": 55,
      "hit": false,
      "t": 60176.440500000055,
      "d": 33.08821875000285,
      "v": 82
    },
    {
      "midi": 55,
      "hit": false,
      "t": 60349.23453125008,
      "d": 253.6763437500049,
      "v": 45
    },
    {
      "midi": 55,
      "hit": false,
      "t": 60352.91100000006,
      "d": 33.08821875000285,
      "v": 83
    },
    {
      "midi": 67,
      "hit": false,
      "t": 60525.70503125008,
      "d": 139.70581250000396,
      "v": 48
    },
    {
      "midi": 43,
      "hit": false,
      "t": 60529.38150000006,
      "d": 33.08821875000285,
      "v": 50
    },
    {
      "midi": 55,
      "hit": false,
      "t": 60705.852000000064,
      "d": 33.08821875000285,
      "v": 82
    },
    {
      "midi": 55,
      "hit": false,
      "t": 60882.32250000007,
      "d": 33.08821875000285,
      "v": 83
    },
    {
      "midi": 43,
      "hit": false,
      "t": 61058.79300000007,
      "d": 33.08821875000285,
      "v": 51
    },
    {
      "midi": 55,
      "hit": false,
      "t": 61235.263500000074,
      "d": 33.08821875000285,
      "v": 82
    },
    {
      "midi": 55,
      "hit": false,
      "t": 61411.73400000008,
      "d": 33.08821875000285,
      "v": 82
    },
    {
      "midi": 43,
      "hit": false,
      "t": 61588.20450000008,
      "d": 33.08821875000285,
      "v": 51
    },
    {
      "midi": 55,
      "hit": false,
      "t": 61760.99853125008,
      "d": 33.08821875000285,
      "v": 83
    },
    {
      "midi": 57,
      "hit": false,
      "t": 61760.99853125009,
      "d": 84.55878125000163,
      "v": 115
    },
    {
      "midi": 41,
      "hit": false,
      "t": 61760.99853125009,
      "d": 113.97053125000093,
      "v": 115
    },
    {
      "midi": 53,
      "hit": false,
      "t": 61760.99853125009,
      "d": 117.64700000000448,
      "v": 110
    },
    {
      "midi": 55,
      "hit": false,
      "t": 61937.46903125008,
      "d": 33.08821875000285,
      "v": 82
    },
    {
      "midi": 55,
      "hit": false,
      "t": 62113.93953125009,
      "d": 84.55878125000163,
      "v": 114
    },
    {
      "midi": 58,
      "hit": false,
      "t": 62113.93953125009,
      "d": 95.588187500005,
      "v": 114
    },
    {
      "midi": 43,
      "hit": false,
      "t": 62113.93953125009,
      "d": 99.26465625000856,
      "v": 117
    },
    {
      "midi": 43,
      "hit": false,
      "t": 62117.61600000008,
      "d": 33.08821875000285,
      "v": 50
    },
    {
      "midi": 55,
      "hit": false,
      "t": 62290.41003125008,
      "d": 33.08821875000285,
      "v": 83
    },
    {
      "midi": 55,
      "hit": false,
      "t": 62470.55700000008,
      "d": 33.08821875000285,
      "v": 82
    },
    {
      "midi": 55,
      "hit": false,
      "t": 62470.5570000001,
      "d": 95.58818749999773,
      "v": 74
    },
    {
      "midi": 43,
      "hit": false,
      "t": 62647.027500000084,
      "d": 33.08821875000285,
      "v": 51
    },
    {
      "midi": 55,
      "hit": false,
      "t": 62819.82153125008,
      "d": 36.7646875000064,
      "v": 83
    },
    {
      "midi": 55,
      "hit": false,
      "t": 62823.4980000001,
      "d": 117.6469999999972,
      "v": 49
    },
    {
      "midi": 55,
      "hit": false,
      "t": 62996.29203125009,
      "d": 33.08821875000285,
      "v": 82
    },
    {
      "midi": 43,
      "hit": false,
      "t": 63176.439000000086,
      "d": 33.08821875000285,
      "v": 51
    },
    {
      "midi": 55,
      "hit": false,
      "t": 63176.4390000001,
      "d": 117.6469999999972,
      "v": 27
    },
    {
      "midi": 55,
      "hit": false,
      "t": 63352.90950000009,
      "d": 33.08821875000285,
      "v": 82
    },
    {
      "midi": 43,
      "hit": false,
      "t": 63525.703531250096,
      "d": 584.5585312500043,
      "v": 117
    },
    {
      "midi": 55,
      "hit": false,
      "t": 63529.38000000009,
      "d": 33.08821875000285,
      "v": 82
    },
    {
      "midi": 58,
      "hit": false,
      "t": 63529.3800000001,
      "d": 488.9703437499993,
      "v": 116
    },
    {
      "midi": 62,
      "hit": false,
      "t": 63529.3800000001,
      "d": 551.4703125000015,
      "v": 117
    },
    {
      "midi": 43,
      "hit": false,
      "t": 63705.850500000095,
      "d": 33.08821875000285,
      "v": 51
    },
    {
      "midi": 55,
      "hit": false,
      "t": 63882.3210000001,
      "d": 33.08821875000285,
      "v": 83
    },
    {
      "midi": 55,
      "hit": false,
      "t": 64058.7915000001,
      "d": 33.08821875000285,
      "v": 82
    },
    {
      "midi": 44,
      "hit": false,
      "t": 64231.5855312501,
      "d": 231.6175312500054,
      "v": 117
    },
    {
      "midi": 63,
      "hit": false,
      "t": 64235.262000000104,
      "d": 139.70581249999668,
      "v": 117
    },
    {
      "midi": 59,
      "hit": false,
      "t": 64235.262000000104,
      "d": 172.79403124999953,
      "v": 117
    },
    {
      "midi": 43,
      "hit": false,
      "t": 64235.262000000104,
      "d": 33.08821875000285,
      "v": 50
    },
    {
      "midi": 55,
      "hit": false,
      "t": 64411.73250000011,
      "d": 33.08821875000285,
      "v": 83
    },
    {
      "midi": 60,
      "hit": false,
      "t": 64584.52653125011,
      "d": 154.4116875000036,
      "v": 117
    },
    {
      "midi": 64,
      "hit": false,
      "t": 64584.52653125011,
      "d": 161.76462500000343,
      "v": 117
    },
    {
      "midi": 45,
      "hit": false,
      "t": 64588.20300000011,
      "d": 183.8234375000029,
      "v": 112
    },
    {
      "midi": 55,
      "hit": false,
      "t": 64588.20300000011,
      "d": 33.08821875000285,
      "v": 83
    },
    {
      "midi": 43,
      "hit": false,
      "t": 64764.67350000011,
      "d": 33.08821875000285,
      "v": 50
    },
    {
      "midi": 46,
      "hit": false,
      "t": 64941.144,
      "d": 702.2055312500015,
      "v": 85
    },
    {
      "midi": 46,
      "hit": false,
      "t": 64941.14400000012,
      "d": 702.2055312500015,
      "v": 85
    },
    {
      "midi": 58,
      "hit": false,
      "t": 64941.14400000012,
      "d": 702.2055312500015,
      "v": 85
    },
    {
      "midi": 61,
      "hit": false,
      "t": 64941.14400000012,
      "d": 702.2055312500015,
      "v": 84
    },
    {
      "midi": 65,
      "hit": false,
      "t": 64941.14400000012,
      "d": 702.2055312500015,
      "v": 84
    },
    {
      "midi": 80,
      "hit": false,
      "t": 67713.2014375,
      "d": 2801.4691875000135,
      "v": 69
    },
    {
      "midi": 87,
      "hit": false,
      "t": 67812.46609375,
      "d": 2694.851593750005,
      "v": 80
    },
    {
      "midi": 82,
      "hit": false,
      "t": 70577.17059375001,
      "d": 2643.3810312499845,
      "v": 65
    },
    {
      "midi": 85,
      "hit": false,
      "t": 70610.2588125,
      "d": 2562.4987187499937,
      "v": 59
    },
    {
      "midi": 89,
      "hit": false,
      "t": 70624.9646875,
      "d": 2529.410499999998,
      "v": 76
    },
    {
      "midi": 77,
      "hit": false,
      "t": 73312.46334374999,
      "d": 2533.0869687499944,
      "v": 81
    },
    {
      "midi": 82,
      "hit": false,
      "t": 73345.55156249998,
      "d": 2470.5869999999995,
      "v": 82
    },
    {
      "midi": 85,
      "hit": false,
      "t": 73419.08093749998,
      "d": 2323.528250000003,
      "v": 58
    },
    {
      "midi": 82,
      "hit": false,
      "t": 76165.40309374998,
      "d": 2268.3812187500007,
      "v": 71
    },
    {
      "midi": 89,
      "hit": false,
      "t": 76257.31481249997,
      "d": 2154.4106874999998,
      "v": 87
    },
    {
      "midi": 80,
      "hit": false,
      "t": 79007.31343749998,
      "d": 2507.351687500006,
      "v": 62
    },
    {
      "midi": 82,
      "hit": false,
      "t": 79055.10753124997,
      "d": 2386.0282187500125,
      "v": 78
    },
    {
      "midi": 87,
      "hit": false,
      "t": 79106.57809374998,
      "d": 2323.528250000003,
      "v": 75
    },
    {
      "midi": 77,
      "hit": false,
      "t": 81808.78262499998,
      "d": 2330.8811874999956,
      "v": 77
    },
    {
      "midi": 82,
      "hit": false,
      "t": 81849.22378124998,
      "d": 2246.322406249994,
      "v": 86
    },
    {
      "midi": 85,
      "hit": false,
      "t": 81908.04728124998,
      "d": 2128.6754062499967,
      "v": 78
    },
    {
      "midi": 58,
      "hit": false,
      "t": 84672.75178124997,
      "d": 1617.6462500000052,
      "v": 83
    },
    {
      "midi": 73,
      "hit": false,
      "t": 84683.78118749998,
      "d": 2095.587187500001,
      "v": 84
    },
    {
      "midi": 82,
      "hit": false,
      "t": 84713.19293749997,
      "d": 2088.2342500000086,
      "v": 89
    },
    {
      "midi": 89,
      "hit": false,
      "t": 84738.92821874998,
      "d": 2018.381343749992,
      "v": 89
    },
    {
      "midi": 46,
      "hit": false,
      "t": 86279.36862499997,
      "d": 242.6469375000015,
      "v": 70
    },
    {
      "midi": 46,
      "hit": false,
      "t": 86830.83893749998,
      "d": 183.8234375000029,
      "v": 83
    },
    {
      "midi": 46,
      "hit": false,
      "t": 87356.57396874999,
      "d": 176.4704999999958,
      "v": 114
    },
    {
      "midi": 55,
      "hit": false,
      "t": 87529.36800000012,
      "d": 3.6764687499962747,
      "v": 105
    },
    {
      "midi": 60,
      "hit": false,
      "t": 87529.36800000012,
      "d": 341.9115937500028,
      "v": 111
    },
    {
      "midi": 64,
      "hit": false,
      "t": 87529.36800000012,
      "d": 356.61746875000244,
      "v": 104
    },
    {
      "midi": 36,
      "hit": false,
      "t": 87529.36800000012,
      "d": 397.0586250000051,
      "v": 104
    },
    {
      "midi": 43,
      "hit": false,
      "t": 87705.83850000011,
      "d": 33.088218749995576,
      "v": 50
    },
    {
      "midi": 55,
      "hit": false,
      "t": 87874.95606250012,
      "d": 301.4704375000001,
      "v": 106
    },
    {
      "midi": 55,
      "hit": false,
      "t": 87882.30900000011,
      "d": 36.7646875000064,
      "v": 83
    },
    {
      "midi": 67,
      "hit": false,
      "t": 88055.10303125012,
      "d": 143.38228125000023,
      "v": 117
    },
    {
      "midi": 55,
      "hit": false,
      "t": 88058.77950000012,
      "d": 36.7646875000064,
      "v": 82
    },
    {
      "midi": 43,
      "hit": false,
      "t": 88235.25000000013,
      "d": 33.088218749995576,
      "v": 51
    },
    {
      "midi": 55,
      "hit": false,
      "t": 88411.72050000013,
      "d": 36.7646875000064,
      "v": 83
    },
    {
      "midi": 55,
      "hit": false,
      "t": 88577.16159375012,
      "d": 253.67634374999034,
      "v": 32
    },
    {
      "midi": 55,
      "hit": false,
      "t": 88588.19100000014,
      "d": 36.7646875000064,
      "v": 82
    },
    {
      "midi": 67,
      "hit": false,
      "t": 88753.63209375012,
      "d": 139.7058124999894,
      "v": 45
    },
    {
      "midi": 43,
      "hit": false,
      "t": 88764.66150000015,
      "d": 33.088218749995576,
      "v": 51
    },
    {
      "midi": 55,
      "hit": false,
      "t": 88941.13200000014,
      "d": 36.7646875000064,
      "v": 82
    },
    {
      "midi": 55,
      "hit": false,
      "t": 89117.60250000015,
      "d": 36.7646875000064,
      "v": 82
    },
    {
      "midi": 43,
      "hit": false,
      "t": 89294.07300000016,
      "d": 33.088218749995576,
      "v": 51
    },
    {
      "midi": 55,
      "hit": false,
      "t": 89470.54350000016,
      "d": 36.7646875000064,
      "v": 83
    },
    {
      "midi": 55,
      "hit": false,
      "t": 89647.01400000017,
      "d": 36.7646875000064,
      "v": 82
    },
    {
      "midi": 43,
      "hit": false,
      "t": 89823.48450000018,
      "d": 33.088218749995576,
      "v": 50
    },
    {
      "midi": 57,
      "hit": false,
      "t": 89996.27853125011,
      "d": 84.55878125000163,
      "v": 115
    },
    {
      "midi": 41,
      "hit": false,
      "t": 89996.27853125011,
      "d": 113.97053125000093,
      "v": 114
    },
    {
      "midi": 53,
      "hit": false,
      "t": 89996.27853125011,
      "d": 117.6469999999972,
      "v": 110
    },
    {
      "midi": 55,
      "hit": false,
      "t": 89996.27853125018,
      "d": 36.76468749999185,
      "v": 83
    },
    {
      "midi": 55,
      "hit": false,
      "t": 90176.42550000017,
      "d": 36.7646875000064,
      "v": 83
    },
    {
      "midi": 55,
      "hit": false,
      "t": 90349.2195312501,
      "d": 84.55878125000163,
      "v": 114
    },
    {
      "midi": 58,
      "hit": false,
      "t": 90349.2195312501,
      "d": 95.588187500005,
      "v": 115
    },
    {
      "midi": 43,
      "hit": false,
      "t": 90349.2195312501,
      "d": 99.26465625000128,
      "v": 117
    },
    {
      "midi": 43,
      "hit": false,
      "t": 90352.89600000018,
      "d": 33.088218749995576,
      "v": 50
    },
    {
      "midi": 55,
      "hit": false,
      "t": 90529.36650000018,
      "d": 36.7646875000064,
      "v": 82
    },
    {
      "midi": 55,
      "hit": false,
      "t": 90705.8370000001,
      "d": 95.588187500005,
      "v": 48
    },
    {
      "midi": 55,
      "hit": false,
      "t": 90705.83700000019,
      "d": 36.7646875000064,
      "v": 83
    },
    {
      "midi": 55,
      "hit": false,
      "t": 90882.30750000011,
      "d": 117.6469999999972,
      "v": 38
    },
    {
      "midi": 43,
      "hit": false,
      "t": 90882.3075000002,
      "d": 33.088218749995576,
      "v": 50
    },
    {
      "midi": 55,
      "hit": false,
      "t": 91058.7780000002,
      "d": 36.7646875000064,
      "v": 83
    },
    {
      "midi": 55,
      "hit": false,
      "t": 91235.2485000002,
      "d": 36.7646875000064,
      "v": 83
    },
    {
      "midi": 43,
      "hit": false,
      "t": 91411.71900000022,
      "d": 33.088218749995576,
      "v": 50
    },
    {
      "midi": 55,
      "hit": false,
      "t": 91588.18950000021,
      "d": 36.7646875000064,
      "v": 83
    },
    {
      "midi": 55,
      "hit": false,
      "t": 91760.98353125021,
      "d": 36.76468749999185,
      "v": 82
    },
    {
      "midi": 43,
      "hit": false,
      "t": 91941.1305000002,
      "d": 33.088218749995576,
      "v": 50
    },
    {
      "midi": 55,
      "hit": false,
      "t": 92113.9245312502,
      "d": 36.76468749999185,
      "v": 83
    },
    {
      "midi": 55,
      "hit": false,
      "t": 92294.0715000002,
      "d": 36.7646875000064,
      "v": 83
    },
    {
      "midi": 43,
      "hit": false,
      "t": 92470.5420000002,
      "d": 33.088218749995576,
      "v": 50
    },
    {
      "midi": 55,
      "hit": false,
      "t": 92647.0125000002,
      "d": 36.7646875000064,
      "v": 82
    },
    {
      "midi": 55,
      "hit": false,
      "t": 92823.48300000021,
      "d": 36.7646875000064,
      "v": 83
    },
    {
      "midi": 43,
      "hit": false,
      "t": 92999.95350000022,
      "d": 33.088218749995576,
      "v": 51
    },
    {
      "midi": 55,
      "hit": false,
      "t": 93172.74753125022,
      "d": 36.76468749999185,
      "v": 82
    },
    {
      "midi": 36,
      "hit": false,
      "t": 93176.42400000012,
      "d": 397.05862499999057,
      "v": 105
    },
    {
      "midi": 55,
      "hit": false,
      "t": 93180.10046875011,
      "d": 294.117499999993,
      "v": 104
    },
    {
      "midi": 60,
      "hit": false,
      "t": 93180.10046875011,
      "d": 345.58806249999907,
      "v": 110
    },
    {
      "midi": 64,
      "hit": false,
      "t": 93180.10046875011,
      "d": 360.2939374999987,
      "v": 105
    },
    {
      "midi": 55,
      "hit": false,
      "t": 93352.89450000021,
      "d": 36.7646875000064,
      "v": 82
    },
    {
      "midi": 55,
      "hit": false,
      "t": 93525.68853125011,
      "d": 301.4704375000001,
      "v": 107
    },
    {
      "midi": 43,
      "hit": false,
      "t": 93529.36500000022,
      "d": 33.088218749995576,
      "v": 51
    },
    {
      "midi": 67,
      "hit": false,
      "t": 93702.1590312501,
      "d": 147.05875000001106,
      "v": 117
    },
    {
      "midi": 55,
      "hit": false,
      "t": 93705.83550000022,
      "d": 36.7646875000064,
      "v": 82
    },
    {
      "midi": 55,
      "hit": false,
      "t": 93882.30600000023,
      "d": 33.088218749995576,
      "v": 83
    },
    {
      "midi": 43,
      "hit": false,
      "t": 94058.77650000023,
      "d": 33.088218749995576,
      "v": 51
    },
    {
      "midi": 55,
      "hit": false,
      "t": 94231.57053125012,
      "d": 253.67634374999034,
      "v": 44
    },
    {
      "midi": 55,
      "hit": false,
      "t": 94231.57053125023,
      "d": 36.76468749999185,
      "v": 82
    },
    {
      "midi": 67,
      "hit": false,
      "t": 94408.04103125012,
      "d": 139.7058124999894,
      "v": 49
    },
    {
      "midi": 55,
      "hit": false,
      "t": 94411.71750000022,
      "d": 33.088218749995576,
      "v": 83
    },
    {
      "midi": 43,
      "hit": false,
      "t": 94588.18800000021,
      "d": 33.088218749995576,
      "v": 50
    },
    {
      "midi": 55,
      "hit": false,
      "t": 94764.65850000021,
      "d": 36.7646875000064,
      "v": 82
    },
    {
      "midi": 55,
      "hit": false,
      "t": 94941.12900000022,
      "d": 36.7646875000064,
      "v": 83
    },
    {
      "midi": 43,
      "hit": false,
      "t": 95117.59950000023,
      "d": 33.088218749995576,
      "v": 51
    },
    {
      "midi": 55,
      "hit": false,
      "t": 95294.07000000023,
      "d": 36.7646875000064,
      "v": 82
    },
    {
      "midi": 55,
      "hit": false,
      "t": 95470.54050000024,
      "d": 36.7646875000064,
      "v": 82
    },
    {
      "midi": 57,
      "hit": false,
      "t": 95643.3345312501,
      "d": 84.55878125000163,
      "v": 114
    },
    {
      "midi": 41,
      "hit": false,
      "t": 95643.3345312501,
      "d": 113.97053125000093,
      "v": 114
    },
    {
      "midi": 53,
      "hit": false,
      "t": 95643.3345312501,
      "d": 117.6469999999972,
      "v": 111
    },
    {
      "midi": 43,
      "hit": false,
      "t": 95647.01100000025,
      "d": 33.088218749995576,
      "v": 51
    },
    {
      "midi": 55,
      "hit": false,
      "t": 95823.48150000024,
      "d": 36.7646875000064,
      "v": 83
    },
    {
      "midi": 55,
      "hit": false,
      "t": 95999.9520000001,
      "d": 84.55878125000163,
      "v": 114
    },
    {
      "midi": 43,
      "hit": false,
      "t": 95999.9520000001,
      "d": 95.588187500005,
      "v": 117
    },
    {
      "midi": 58,
      "hit": false,
      "t": 95999.9520000001,
      "d": 95.588187500005,
      "v": 115
    },
    {
      "midi": 43,
      "hit": false,
      "t": 96176.42250000025,
      "d": 33.088218749995576,
      "v": 50
    },
    {
      "midi": 55,
      "hit": false,
      "t": 96349.21653125025,
      "d": 36.76468749999185,
      "v": 82
    },
    {
      "midi": 55,
      "hit": false,
      "t": 96352.89300000011,
      "d": 95.588187500005,
      "v": 75
    },
    {
      "midi": 55,
      "hit": false,
      "t": 96529.36350000024,
      "d": 36.7646875000064,
      "v": 83
    },
    {
      "midi": 55,
      "hit": false,
      "t": 96705.83400000012,
      "d": 117.6469999999972,
      "v": 48
    },
    {
      "midi": 43,
      "hit": false,
      "t": 96705.83400000025,
      "d": 33.088218749995576,
      "v": 50
    },
    {
      "midi": 55,
      "hit": false,
      "t": 96882.30450000025,
      "d": 33.088218749995576,
      "v": 83
    },
    {
      "midi": 55,
      "hit": false,
      "t": 97058.77500000011,
      "d": 117.6469999999972,
      "v": 27
    },
    {
      "midi": 55,
      "hit": false,
      "t": 97058.77500000024,
      "d": 36.7646875000064,
      "v": 83
    },
    {
      "midi": 43,
      "hit": false,
      "t": 97235.24550000025,
      "d": 33.088218749995576,
      "v": 50
    },
    {
      "midi": 46,
      "hit": false,
      "t": 97411.7160000001,
      "d": 113.97053125000093,
      "v": 77
    },
    {
      "midi": 55,
      "hit": false,
      "t": 97411.71600000025,
      "d": 36.7646875000064,
      "v": 83
    },
    {
      "midi": 55,
      "hit": false,
      "t": 97588.18650000026,
      "d": 36.7646875000064,
      "v": 82
    },
    {
      "midi": 43,
      "hit": false,
      "t": 97764.65700000027,
      "d": 33.088218749995576,
      "v": 50
    },
    {
      "midi": 46,
      "hit": false,
      "t": 97941.1275000001,
      "d": 136.02934374999313,
      "v": 84
    },
    {
      "midi": 55,
      "hit": false,
      "t": 97941.12750000026,
      "d": 36.7646875000064,
      "v": 83
    },
    {
      "midi": 55,
      "hit": false,
      "t": 98117.59800000027,
      "d": 36.7646875000064,
      "v": 83
    },
    {
      "midi": 46,
      "hit": false,
      "t": 98294.0685000001,
      "d": 55.14703125000233,
      "v": 90
    },
    {
      "midi": 43,
      "hit": false,
      "t": 98294.06850000028,
      "d": 33.088218749995576,
      "v": 50
    },
    {
      "midi": 55,
      "hit": false,
      "t": 98470.53900000028,
      "d": 36.7646875000064,
      "v": 82
    },
    {
      "midi": 46,
      "hit": false,
      "t": 98639.6565625001,
      "d": 110.29406250000466,
      "v": 95
    },
    {
      "midi": 55,
      "hit": false,
      "t": 98647.00950000029,
      "d": 36.7646875000064,
      "v": 83
    },
    {
      "midi": 60,
      "hit": false,
      "t": 98823.4800000001,
      "d": 341.9115937500028,
      "v": 110
    },
    {
      "midi": 55,
      "hit": false,
      "t": 98823.4800000001,
      "d": 352.94100000000617,
      "v": 104
    },
    {
      "midi": 64,
      "hit": false,
      "t": 98823.4800000001,
      "d": 356.61746875000244,
      "v": 105
    },
    {
      "midi": 36,
      "hit": false,
      "t": 98823.4800000001,
      "d": 397.0586250000051,
      "v": 105
    },
    {
      "midi": 43,
      "hit": false,
      "t": 98823.4800000003,
      "d": 33.088218749995576,
      "v": 51
    },
    {
      "midi": 55,
      "hit": false,
      "t": 98999.9505000003,
      "d": 33.088218749995576,
      "v": 82
    },
    {
      "midi": 48,
      "hit": false,
      "t": 99176.4210000001,
      "d": 227.94106250000186,
      "v": 91
    },
    {
      "midi": 55,
      "hit": false,
      "t": 99176.4210000003,
      "d": 33.088218749995576,
      "v": 82
    },
    {
      "midi": 55,
      "hit": false,
      "t": 99352.8915000001,
      "d": 154.4116875000036,
      "v": 117
    },
    {
      "midi": 43,
      "hit": false,
      "t": 99352.89150000029,
      "d": 33.088218749995576,
      "v": 51
    },
    {
      "midi": 55,
      "hit": false,
      "t": 99533.03846875028,
      "d": 33.088218749995576,
      "v": 82
    },
    {
      "midi": 55,
      "hit": false,
      "t": 99705.83250000028,
      "d": 33.088218749995576,
      "v": 83
    },
    {
      "midi": 43,
      "hit": false,
      "t": 99882.30300000028,
      "d": 33.088218749995576,
      "v": 51
    },
    {
      "midi": 55,
      "hit": false,
      "t": 100062.44996875027,
      "d": 33.088218749995576,
      "v": 82
    },
    {
      "midi": 55,
      "hit": false,
      "t": 100238.92046875026,
      "d": 33.088218749995576,
      "v": 83
    },
    {
      "midi": 43,
      "hit": false,
      "t": 100411.71450000026,
      "d": 33.088218749995576,
      "v": 50
    },
    {
      "midi": 55,
      "hit": false,
      "t": 100591.86146875026,
      "d": 33.088218749995576,
      "v": 82
    },
    {
      "midi": 55,
      "hit": false,
      "t": 100768.33196875025,
      "d": 33.088218749995576,
      "v": 83
    },
    {
      "midi": 43,
      "hit": false,
      "t": 100941.12600000025,
      "d": 33.088218749995576,
      "v": 51
    },
    {
      "midi": 55,
      "hit": false,
      "t": 101121.27296875024,
      "d": 33.088218749995576,
      "v": 82
    },
    {
      "midi": 57,
      "hit": false,
      "t": 101290.3905312501,
      "d": 84.55878125000163,
      "v": 114
    },
    {
      "midi": 41,
      "hit": false,
      "t": 101290.3905312501,
      "d": 113.97053125000093,
      "v": 115
    },
    {
      "midi": 53,
      "hit": false,
      "t": 101290.3905312501,
      "d": 117.6469999999972,
      "v": 110
    },
    {
      "midi": 55,
      "hit": false,
      "t": 101297.74346875024,
      "d": 33.088218749995576,
      "v": 82
    },
    {
      "midi": 43,
      "hit": false,
      "t": 101470.53750000024,
      "d": 33.088218749995576,
      "v": 51
    },
    {
      "midi": 55,
      "hit": false,
      "t": 101643.33153125009,
      "d": 84.55878125000163,
      "v": 115
    },
    {
      "midi": 58,
      "hit": false,
      "t": 101643.33153125009,
      "d": 95.588187500005,
      "v": 115
    },
    {
      "midi": 43,
      "hit": false,
      "t": 101643.33153125009,
      "d": 99.26465625000128,
      "v": 116
    },
    {
      "midi": 55,
      "hit": false,
      "t": 101650.68446875023,
      "d": 33.088218749995576,
      "v": 83
    },
    {
      "midi": 55,
      "hit": false,
      "t": 101827.15496875023,
      "d": 33.088218749995576,
      "v": 82
    },
    {
      "midi": 55,
      "hit": false,
      "t": 101999.9490000001,
      "d": 95.588187500005,
      "v": 49
    },
    {
      "midi": 43,
      "hit": false,
      "t": 101999.94900000023,
      "d": 33.088218749995576,
      "v": 50
    },
    {
      "midi": 55,
      "hit": false,
      "t": 102176.4195000001,
      "d": 117.6469999999972,
      "v": 38
    },
    {
      "midi": 55,
      "hit": false,
      "t": 102180.09596875022,
      "d": 33.088218749995576,
      "v": 83
    },
    {
      "midi": 55,
      "hit": false,
      "t": 102356.56646875021,
      "d": 33.088218749995576,
      "v": 82
    },
    {
      "midi": 43,
      "hit": false,
      "t": 102529.36050000021,
      "d": 33.088218749995576,
      "v": 51
    },
    {
      "midi": 55,
      "hit": false,
      "t": 102709.5074687502,
      "d": 33.088218749995576,
      "v": 83
    },
    {
      "midi": 55,
      "hit": false,
      "t": 102882.3015000002,
      "d": 33.088218749995576,
      "v": 82
    },
    {
      "midi": 43,
      "hit": false,
      "t": 103058.7720000002,
      "d": 33.088218749995576,
      "v": 51
    },
    {
      "midi": 55,
      "hit": false,
      "t": 103235.2425000002,
      "d": 33.088218749995576,
      "v": 82
    },
    {
      "midi": 55,
      "hit": false,
      "t": 103411.71300000019,
      "d": 33.088218749995576,
      "v": 82
    },
    {
      "midi": 43,
      "hit": false,
      "t": 103588.18350000019,
      "d": 33.088218749995576,
      "v": 51
    },
    {
      "midi": 55,
      "hit": false,
      "t": 103764.65400000018,
      "d": 33.088218749995576,
      "v": 83
    },
    {
      "midi": 55,
      "hit": false,
      "t": 103941.12450000018,
      "d": 33.088218749995576,
      "v": 82
    },
    {
      "midi": 43,
      "hit": false,
      "t": 104117.59500000018,
      "d": 33.088218749995576,
      "v": 50
    },
    {
      "midi": 55,
      "hit": false,
      "t": 104294.06550000017,
      "d": 33.088218749995576,
      "v": 83
    },
    {
      "midi": 36,
      "hit": false,
      "t": 104470.53600000011,
      "d": 397.05862499999057,
      "v": 104
    },
    {
      "midi": 55,
      "hit": false,
      "t": 104470.53600000017,
      "d": 33.088218749995576,
      "v": 83
    },
    {
      "midi": 55,
      "hit": false,
      "t": 104474.2124687501,
      "d": 294.117499999993,
      "v": 104
    },
    {
      "midi": 60,
      "hit": false,
      "t": 104474.2124687501,
      "d": 345.58806249999907,
      "v": 111
    },
    {
      "midi": 64,
      "hit": false,
      "t": 104474.2124687501,
      "d": 360.2939374999987,
      "v": 105
    },
    {
      "midi": 43,
      "hit": false,
      "t": 104647.00650000016,
      "d": 33.088218749995576,
      "v": 50
    },
    {
      "midi": 55,
      "hit": false,
      "t": 104819.8005312501,
      "d": 301.4704375000001,
      "v": 106
    },
    {
      "midi": 55,
      "hit": false,
      "t": 104823.47700000016,
      "d": 33.088218749995576,
      "v": 82
    },
    {
      "midi": 67,
      "hit": false,
      "t": 104996.2710312501,
      "d": 147.05875000001106,
      "v": 117
    },
    {
      "midi": 55,
      "hit": false,
      "t": 104999.94750000015,
      "d": 33.088218749995576,
      "v": 83
    },
    {
      "midi": 43,
      "hit": false,
      "t": 105176.41800000015,
      "d": 33.088218749995576,
      "v": 50
    },
    {
      "midi": 55,
      "hit": false,
      "t": 105352.88850000015,
      "d": 33.088218749995576,
      "v": 83
    },
    {
      "midi": 55,
      "hit": false,
      "t": 105525.68253125012,
      "d": 253.67634374999034,
      "v": 45
    },
    {
      "midi": 55,
      "hit": false,
      "t": 105529.35900000014,
      "d": 33.088218749995576,
      "v": 83
    },
    {
      "midi": 67,
      "hit": false,
      "t": 105702.15303125011,
      "d": 139.7058124999894,
      "v": 49
    },
    {
      "midi": 43,
      "hit": false,
      "t": 105705.82950000014,
      "d": 33.088218749995576,
      "v": 50
    },
    {
      "midi": 55,
      "hit": false,
      "t": 105882.30000000013,
      "d": 33.088218749995576,
      "v": 83
    },
    {
      "midi": 55,
      "hit": false,
      "t": 106058.77050000013,
      "d": 33.088218749995576,
      "v": 82
    },
    {
      "midi": 43,
      "hit": false,
      "t": 106235.24100000013,
      "d": 33.088218749995576,
      "v": 50
    },
    {
      "midi": 55,
      "hit": false,
      "t": 106411.71150000012,
      "d": 33.088218749995576,
      "v": 83
    },
    {
      "midi": 55,
      "hit": false,
      "t": 106588.18200000012,
      "d": 33.088218749995576,
      "v": 83
    },
    {
      "midi": 43,
      "hit": false,
      "t": 106764.65250000011,
      "d": 33.088218749995576,
      "v": 50
    },
    {
      "midi": 57,
      "hit": false,
      "t": 106937.4465312501,
      "d": 84.55878125000163,
      "v": 115
    },
    {
      "midi": 41,
      "hit": false,
      "t": 106937.4465312501,
      "d": 113.97053125000093,
      "v": 114
    },
    {
      "midi": 53,
      "hit": false,
      "t": 106937.4465312501,
      "d": 117.6469999999972,
      "v": 110
    },
    {
      "midi": 55,
      "hit": false,
      "t": 106937.44653125011,
      "d": 33.088218749995576,
      "v": 82
    },
    {
      "midi": 55,
      "hit": false,
      "t": 107113.91703125011,
      "d": 33.088218749995576,
      "v": 83
    },
    {
      "midi": 55,
      "hit": false,
      "t": 107290.38753125009,
      "d": 84.55878125000163,
      "v": 114
    },
    {
      "midi": 58,
      "hit": false,
      "t": 107290.38753125009,
      "d": 95.588187500005,
      "v": 115
    },
    {
      "midi": 43,
      "hit": false,
      "t": 107290.38753125009,
      "d": 99.26465625000128,
      "v": 117
    },
    {
      "midi": 55,
      "hit": false,
      "t": 107294.0640000001,
      "d": 33.088218749995576,
      "v": 83
    },
    {
      "midi": 43,
      "hit": false,
      "t": 107470.5345000001,
      "d": 33.088218749995576,
      "v": 50
    },
    {
      "midi": 55,
      "hit": false,
      "t": 107647.00500000009,
      "d": 95.588187500005,
      "v": 48
    },
    {
      "midi": 55,
      "hit": false,
      "t": 107647.00500000009,
      "d": 33.088218749995576,
      "v": 82
    },
    {
      "midi": 55,
      "hit": false,
      "t": 107823.47550000009,
      "d": 33.088218749995576,
      "v": 83
    },
    {
      "midi": 55,
      "hit": false,
      "t": 107823.4755000001,
      "d": 117.6469999999972,
      "v": 38
    },
    {
      "midi": 43,
      "hit": false,
      "t": 107999.94600000008,
      "d": 33.088218749995576,
      "v": 50
    },
    {
      "midi": 55,
      "hit": false,
      "t": 108176.41650000008,
      "d": 33.088218749995576,
      "v": 83
    },
    {
      "midi": 55,
      "hit": false,
      "t": 108352.88700000008,
      "d": 33.088218749995576,
      "v": 83
    },
    {
      "midi": 43,
      "hit": false,
      "t": 108529.35750000007,
      "d": 33.088218749995576,
      "v": 50
    },
    {
      "midi": 55,
      "hit": false,
      "t": 108705.82800000007,
      "d": 33.088218749995576,
      "v": 83
    },
    {
      "midi": 46,
      "hit": false,
      "t": 108705.8280000001,
      "d": 113.97053125000093,
      "v": 77
    },
    {
      "midi": 55,
      "hit": false,
      "t": 108882.29850000006,
      "d": 33.088218749995576,
      "v": 82
    },
    {
      "midi": 43,
      "hit": false,
      "t": 109058.76900000006,
      "d": 33.088218749995576,
      "v": 50
    },
    {
      "midi": 55,
      "hit": false,
      "t": 109235.23950000005,
      "d": 33.088218749995576,
      "v": 83
    },
    {
      "midi": 46,
      "hit": false,
      "t": 109235.2395000001,
      "d": 136.02934374999313,
      "v": 84
    },
    {
      "midi": 55,
      "hit": false,
      "t": 109411.71000000005,
      "d": 33.088218749995576,
      "v": 83
    },
    {
      "midi": 43,
      "hit": false,
      "t": 109588.18050000005,
      "d": 33.088218749995576,
      "v": 50
    },
    {
      "midi": 46,
      "hit": false,
      "t": 109588.18050000009,
      "d": 55.14703125000233,
      "v": 90
    },
    {
      "midi": 55,
      "hit": false,
      "t": 109760.97453125005,
      "d": 33.088218749995576,
      "v": 82
    },
    {
      "midi": 46,
      "hit": false,
      "t": 109933.76856250009,
      "d": 110.29406250000466,
      "v": 95
    },
    {
      "midi": 55,
      "hit": false,
      "t": 109937.44503125004,
      "d": 33.088218749995576,
      "v": 83
    },
    {
      "midi": 48,
      "hit": false,
      "t": 110117.59200000009,
      "d": 290.44103124999674,
      "v": 103
    },
    {
      "midi": 43,
      "hit": false,
      "t": 110294.06250000003,
      "d": 33.088218749995576,
      "v": 51
    },
    {
      "midi": 55,
      "hit": false,
      "t": 110470.53300000002,
      "d": 36.7646875000064,
      "v": 82
    },
    {
      "midi": 36,
      "hit": false,
      "t": 110470.53300000008,
      "d": 44.11762499999895,
      "v": 80
    },
    {
      "midi": 55,
      "hit": false,
      "t": 110647.00350000004,
      "d": 36.7646875000064,
      "v": 82
    },
    {
      "midi": 48,
      "hit": false,
      "t": 110647.00350000008,
      "d": 73.52937499999825,
      "v": 104
    },
    {
      "midi": 43,
      "hit": false,
      "t": 110823.47400000005,
      "d": 33.088218749995576,
      "v": 51
    },
    {
      "midi": 55,
      "hit": false,
      "t": 110999.94450000004,
      "d": 36.7646875000064,
      "v": 82
    },
    {
      "midi": 55,
      "hit": false,
      "t": 111176.41500000005,
      "d": 36.7646875000064,
      "v": 83
    },
    {
      "midi": 43,
      "hit": false,
      "t": 111352.88550000006,
      "d": 33.088218749995576,
      "v": 51
    },
    {
      "midi": 55,
      "hit": false,
      "t": 111529.35600000006,
      "d": 36.7646875000064,
      "v": 82
    },
    {
      "midi": 55,
      "hit": false,
      "t": 111705.82650000007,
      "d": 36.7646875000064,
      "v": 83
    },
    {
      "midi": 43,
      "hit": false,
      "t": 111882.29700000008,
      "d": 33.088218749995576,
      "v": 50
    },
    {
      "midi": 55,
      "hit": false,
      "t": 112058.76750000007,
      "d": 36.7646875000064,
      "v": 82
    },
    {
      "midi": 55,
      "hit": false,
      "t": 112235.23800000008,
      "d": 36.7646875000064,
      "v": 83
    },
    {
      "midi": 43,
      "hit": false,
      "t": 112411.7085000001,
      "d": 33.088218749995576,
      "v": 51
    },
    {
      "midi": 55,
      "hit": false,
      "t": 112584.5025312501,
      "d": 36.76468749999185,
      "v": 82
    },
    {
      "midi": 55,
      "hit": false,
      "t": 112764.64950000009,
      "d": 36.7646875000064,
      "v": 82
    },
    {
      "midi": 43,
      "hit": false,
      "t": 112941.1200000001,
      "d": 33.088218749995576,
      "v": 51
    },
    {
      "midi": 55,
      "hit": false,
      "t": 113117.5905000001,
      "d": 36.7646875000064,
      "v": 83
    },
    {
      "midi": 55,
      "hit": false,
      "t": 113294.06100000007,
      "d": 95.588187500005,
      "v": 49
    },
    {
      "midi": 55,
      "hit": false,
      "t": 113294.0610000001,
      "d": 36.7646875000064,
      "v": 82
    },
    {
      "midi": 55,
      "hit": false,
      "t": 113470.53150000008,
      "d": 117.6469999999972,
      "v": 38
    },
    {
      "midi": 43,
      "hit": false,
      "t": 113470.53150000011,
      "d": 33.088218749995576,
      "v": 50
    },
    {
      "midi": 55,
      "hit": false,
      "t": 113647.00200000011,
      "d": 36.7646875000064,
      "v": 83
    },
    {
      "midi": 55,
      "hit": false,
      "t": 113823.47250000012,
      "d": 36.7646875000064,
      "v": 82
    },
    {
      "midi": 43,
      "hit": false,
      "t": 113999.94300000013,
      "d": 33.088218749995576,
      "v": 51
    },
    {
      "midi": 55,
      "hit": false,
      "t": 114176.41350000013,
      "d": 36.7646875000064,
      "v": 83
    },
    {
      "midi": 55,
      "hit": false,
      "t": 114349.20753125013,
      "d": 36.76468749999185,
      "v": 82
    },
    {
      "midi": 46,
      "hit": false,
      "t": 114352.88400000008,
      "d": 113.97053125000093,
      "v": 77
    },
    {
      "midi": 43,
      "hit": false,
      "t": 114529.35450000012,
      "d": 33.088218749995576,
      "v": 51
    },
    {
      "midi": 55,
      "hit": false,
      "t": 114702.14853125012,
      "d": 36.76468749999185,
      "v": 82
    },
    {
      "midi": 46,
      "hit": false,
      "t": 114882.29550000008,
      "d": 136.02934374999313,
      "v": 84
    },
    {
      "midi": 55,
      "hit": false,
      "t": 114882.29550000011,
      "d": 36.7646875000064,
      "v": 82
    },
    {
      "midi": 43,
      "hit": false,
      "t": 115058.76600000012,
      "d": 33.088218749995576,
      "v": 51
    },
    {
      "midi": 46,
      "hit": false,
      "t": 115235.23650000007,
      "d": 55.14703125000233,
      "v": 90
    },
    {
      "midi": 55,
      "hit": false,
      "t": 115235.23650000012,
      "d": 36.7646875000064,
      "v": 83
    },
    {
      "midi": 55,
      "hit": false,
      "t": 115411.70700000013,
      "d": 36.7646875000064,
      "v": 82
    },
    {
      "midi": 46,
      "hit": false,
      "t": 115580.82456250007,
      "d": 110.29406250000466,
      "v": 95
    },
    {
      "midi": 43,
      "hit": false,
      "t": 115588.17750000014,
      "d": 33.088218749995576,
      "v": 50
    },
    {
      "midi": 55,
      "hit": false,
      "t": 115760.97153125014,
      "d": 36.76468749999185,
      "v": 83
    },
    {
      "midi": 36,
      "hit": false,
      "t": 115764.64800000007,
      "d": 397.05862499999057,
      "v": 104
    },
    {
      "midi": 55,
      "hit": false,
      "t": 115797.73621875007,
      "d": 3.6764687499962747,
      "v": 105
    },
    {
      "midi": 60,
      "hit": false,
      "t": 115801.41268750007,
      "d": 345.58806249999907,
      "v": 111
    },
    {
      "midi": 64,
      "hit": false,
      "t": 115805.08915625006,
      "d": 360.2939374999987,
      "v": 104
    },
    {
      "midi": 55,
      "hit": false,
      "t": 115941.11850000013,
      "d": 36.7646875000064,
      "v": 83
    },
    {
      "midi": 55,
      "hit": false,
      "t": 116110.23606250006,
      "d": 301.4704375000001,
      "v": 107
    },
    {
      "midi": 43,
      "hit": false,
      "t": 116117.58900000014,
      "d": 33.088218749995576,
      "v": 50
    },
    {
      "midi": 67,
      "hit": false,
      "t": 116290.38303125006,
      "d": 143.38228125000023,
      "v": 117
    },
    {
      "midi": 55,
      "hit": false,
      "t": 116294.05950000013,
      "d": 36.7646875000064,
      "v": 82
    },
    {
      "midi": 55,
      "hit": false,
      "t": 116470.53000000014,
      "d": 33.088218749995576,
      "v": 83
    },
    {
      "midi": 43,
      "hit": false,
      "t": 116647.00050000014,
      "d": 33.088218749995576,
      "v": 50
    },
    {
      "midi": 55,
      "hit": false,
      "t": 116812.44159375006,
      "d": 253.67634374999034,
      "v": 32
    },
    {
      "midi": 55,
      "hit": false,
      "t": 116819.79453125014,
      "d": 36.76468749999185,
      "v": 83
    },
    {
      "midi": 67,
      "hit": false,
      "t": 116988.91209375006,
      "d": 139.7058124999894,
      "v": 44
    },
    {
      "midi": 55,
      "hit": false,
      "t": 116999.94150000013,
      "d": 33.088218749995576,
      "v": 83
    },
    {
      "midi": 43,
      "hit": false,
      "t": 117176.41200000013,
      "d": 33.088218749995576,
      "v": 50
    },
    {
      "midi": 55,
      "hit": false,
      "t": 117352.88250000012,
      "d": 36.7646875000064,
      "v": 83
    },
    {
      "midi": 55,
      "hit": false,
      "t": 117529.35300000013,
      "d": 36.7646875000064,
      "v": 82
    },
    {
      "midi": 43,
      "hit": false,
      "t": 117705.82350000014,
      "d": 33.088218749995576,
      "v": 50
    },
    {
      "midi": 55,
      "hit": false,
      "t": 117882.29400000014,
      "d": 36.7646875000064,
      "v": 83
    },
    {
      "midi": 55,
      "hit": false,
      "t": 118058.76450000015,
      "d": 36.7646875000064,
      "v": 83
    },
    {
      "midi": 57,
      "hit": false,
      "t": 118231.55853125005,
      "d": 84.55878125000163,
      "v": 114
    },
    {
      "midi": 41,
      "hit": false,
      "t": 118231.55853125005,
      "d": 113.97053125000093,
      "v": 115
    },
    {
      "midi": 53,
      "hit": false,
      "t": 118231.55853125005,
      "d": 117.6469999999972,
      "v": 111
    },
    {
      "midi": 43,
      "hit": false,
      "t": 118235.23500000016,
      "d": 33.088218749995576,
      "v": 50
    },
    {
      "midi": 55,
      "hit": false,
      "t": 118411.70550000016,
      "d": 36.7646875000064,
      "v": 82
    },
    {
      "midi": 55,
      "hit": false,
      "t": 118584.49953125004,
      "d": 84.55878125000163,
      "v": 114
    },
    {
      "midi": 58,
      "hit": false,
      "t": 118584.49953125004,
      "d": 95.588187500005,
      "v": 115
    },
    {
      "midi": 43,
      "hit": false,
      "t": 118584.49953125004,
      "d": 99.26465625000128,
      "v": 117
    },
    {
      "midi": 43,
      "hit": false,
      "t": 118764.64650000016,
      "d": 33.088218749995576,
      "v": 51
    },
    {
      "midi": 55,
      "hit": false,
      "t": 118937.44053125016,
      "d": 36.76468749999185,
      "v": 83
    },
    {
      "midi": 55,
      "hit": false,
      "t": 118941.11700000004,
      "d": 95.588187500005,
      "v": 48
    },
    {
      "midi": 55,
      "hit": false,
      "t": 119117.58750000005,
      "d": 117.6469999999972,
      "v": 38
    },
    {
      "midi": 55,
      "hit": false,
      "t": 119117.58750000015,
      "d": 36.7646875000064,
      "v": 82
    },
    {
      "midi": 43,
      "hit": false,
      "t": 119294.05800000016,
      "d": 33.088218749995576,
      "v": 50
    },
    {
      "midi": 55,
      "hit": false,
      "t": 119470.52850000016,
      "d": 33.088218749995576,
      "v": 83
    },
    {
      "midi": 55,
      "hit": false,
      "t": 119646.99900000016,
      "d": 36.7646875000064,
      "v": 82
    },
    {
      "midi": 43,
      "hit": false,
      "t": 119823.46950000017,
      "d": 33.088218749995576,
      "v": 51
    },
    {
      "midi": 46,
      "hit": false,
      "t": 119999.94000000005,
      "d": 113.97053125000093,
      "v": 76
    },
    {
      "midi": 55,
      "hit": false,
      "t": 119999.94000000016,
      "d": 36.7646875000064,
      "v": 83
    },
    {
      "midi": 55,
      "hit": false,
      "t": 120176.41050000017,
      "d": 36.7646875000064,
      "v": 82
    },
    {
      "midi": 43,
      "hit": false,
      "t": 120352.88100000018,
      "d": 33.088218749995576,
      "v": 51
    },
    {
      "midi": 46,
      "hit": false,
      "t": 120529.35150000005,
      "d": 136.02934374999313,
      "v": 85
    },
    {
      "midi": 55,
      "hit": false,
      "t": 120529.35150000018,
      "d": 36.7646875000064,
      "v": 82
    },
    {
      "midi": 55,
      "hit": false,
      "t": 120705.82200000019,
      "d": 36.7646875000064,
      "v": 82
    },
    {
      "midi": 46,
      "hit": false,
      "t": 120882.29250000004,
      "d": 55.14703125000233,
      "v": 90
    },
    {
      "midi": 43,
      "hit": false,
      "t": 120882.2925000002,
      "d": 33.088218749995576,
      "v": 51
    },
    {
      "midi": 55,
      "hit": false,
      "t": 121058.7630000002,
      "d": 36.7646875000064,
      "v": 83
    },
    {
      "midi": 46,
      "hit": false,
      "t": 121227.88056250004,
      "d": 110.29406250000466,
      "v": 95
    },
    {
      "midi": 55,
      "hit": false,
      "t": 121235.2335000002,
      "d": 36.7646875000064,
      "v": 82
    },
    {
      "midi": 48,
      "hit": false,
      "t": 121411.70400000004,
      "d": 290.44103124999674,
      "v": 103
    },
    {
      "midi": 43,
      "hit": false,
      "t": 121411.70400000022,
      "d": 33.088218749995576,
      "v": 50
    },
    {
      "midi": 55,
      "hit": false,
      "t": 121588.17450000021,
      "d": 33.088218749995576,
      "v": 83
    },
    {
      "midi": 36,
      "hit": false,
      "t": 121764.64500000003,
      "d": 44.11762499999895,
      "v": 80
    },
    {
      "midi": 55,
      "hit": false,
      "t": 121764.64500000021,
      "d": 33.088218749995576,
      "v": 83
    },
    {
      "midi": 48,
      "hit": false,
      "t": 121941.11550000003,
      "d": 73.52937499999825,
      "v": 105
    },
    {
      "midi": 43,
      "hit": false,
      "t": 121941.1155000002,
      "d": 33.088218749995576,
      "v": 50
    },
    {
      "midi": 55,
      "hit": false,
      "t": 122121.2624687502,
      "d": 33.088218749995576,
      "v": 82
    },
    {
      "midi": 55,
      "hit": false,
      "t": 122294.0565000002,
      "d": 33.088218749995576,
      "v": 83
    },
    {
      "midi": 43,
      "hit": false,
      "t": 122470.52700000019,
      "d": 33.088218749995576,
      "v": 50
    },
    {
      "midi": 55,
      "hit": false,
      "t": 122650.67396875018,
      "d": 33.088218749995576,
      "v": 83
    },
    {
      "midi": 55,
      "hit": false,
      "t": 122827.14446875018,
      "d": 33.088218749995576,
      "v": 83
    },
    {
      "midi": 43,
      "hit": false,
      "t": 122999.93850000018,
      "d": 33.088218749995576,
      "v": 50
    },
    {
      "midi": 55,
      "hit": false,
      "t": 123180.08546875017,
      "d": 33.088218749995576,
      "v": 83
    },
    {
      "midi": 55,
      "hit": false,
      "t": 123356.55596875017,
      "d": 33.088218749995576,
      "v": 82
    },
    {
      "midi": 43,
      "hit": false,
      "t": 123529.35000000017,
      "d": 33.088218749995576,
      "v": 50
    },
    {
      "midi": 55,
      "hit": false,
      "t": 123709.49696875016,
      "d": 33.088218749995576,
      "v": 83
    },
    {
      "midi": 55,
      "hit": false,
      "t": 123885.96746875015,
      "d": 33.088218749995576,
      "v": 83
    },
    {
      "midi": 43,
      "hit": false,
      "t": 124058.76150000015,
      "d": 33.088218749995576,
      "v": 50
    },
    {
      "midi": 55,
      "hit": false,
      "t": 124238.90846875015,
      "d": 33.088218749995576,
      "v": 82
    },
    {
      "midi": 55,
      "hit": false,
      "t": 124415.37896875014,
      "d": 33.088218749995576,
      "v": 83
    },
    {
      "midi": 55,
      "hit": false,
      "t": 124588.17300000002,
      "d": 95.588187500005,
      "v": 48
    },
    {
      "midi": 43,
      "hit": false,
      "t": 124588.17300000014,
      "d": 33.088218749995576,
      "v": 51
    },
    {
      "midi": 55,
      "hit": false,
      "t": 124764.64350000003,
      "d": 117.6469999999972,
      "v": 38
    },
    {
      "midi": 55,
      "hit": false,
      "t": 124768.31996875013,
      "d": 33.088218749995576,
      "v": 82
    },
    {
      "midi": 55,
      "hit": false,
      "t": 124944.79046875013,
      "d": 33.088218749995576,
      "v": 82
    },
    {
      "midi": 43,
      "hit": false,
      "t": 125117.58450000013,
      "d": 33.088218749995576,
      "v": 51
    },
    {
      "midi": 55,
      "hit": false,
      "t": 125297.73146875012,
      "d": 33.088218749995576,
      "v": 82
    },
    {
      "midi": 55,
      "hit": false,
      "t": 125470.52550000012,
      "d": 33.088218749995576,
      "v": 83
    },
    {
      "midi": 46,
      "hit": false,
      "t": 125646.99600000003,
      "d": 113.97053125000093,
      "v": 76
    },
    {
      "midi": 43,
      "hit": false,
      "t": 125646.99600000012,
      "d": 33.088218749995576,
      "v": 51
    },
    {
      "midi": 55,
      "hit": false,
      "t": 125823.46650000011,
      "d": 33.088218749995576,
      "v": 82
    },
    {
      "midi": 55,
      "hit": false,
      "t": 125999.9370000001,
      "d": 33.088218749995576,
      "v": 83
    },
    {
      "midi": 46,
      "hit": false,
      "t": 126176.40750000003,
      "d": 136.02934374999313,
      "v": 85
    },
    {
      "midi": 43,
      "hit": false,
      "t": 126176.4075000001,
      "d": 33.088218749995576,
      "v": 50
    },
    {
      "midi": 55,
      "hit": false,
      "t": 126352.8780000001,
      "d": 33.088218749995576,
      "v": 82
    },
    {
      "midi": 46,
      "hit": false,
      "t": 126529.34850000002,
      "d": 55.14703125000233,
      "v": 91
    },
    {
      "midi": 55,
      "hit": false,
      "t": 126529.3485000001,
      "d": 33.088218749995576,
      "v": 83
    },
    {
      "midi": 43,
      "hit": false,
      "t": 126705.81900000009,
      "d": 33.088218749995576,
      "v": 51
    },
    {
      "midi": 46,
      "hit": false,
      "t": 126874.93656250002,
      "d": 110.29406250000466,
      "v": 94
    },
    {
      "midi": 55,
      "hit": false,
      "t": 126882.28950000009,
      "d": 33.088218749995576,
      "v": 82
    },
    {
      "midi": 36,
      "hit": false,
      "t": 127058.76000000002,
      "d": 397.05862499999057,
      "v": 104
    },
    {
      "midi": 55,
      "hit": false,
      "t": 127058.76000000008,
      "d": 33.088218749995576,
      "v": 82
    },
    {
      "midi": 55,
      "hit": false,
      "t": 127091.84821875002,
      "d": 3.6764687499962747,
      "v": 105
    },
    {
      "midi": 60,
      "hit": false,
      "t": 127095.52468750002,
      "d": 345.58806249999907,
      "v": 111
    },
    {
      "midi": 64,
      "hit": false,
      "t": 127099.20115625001,
      "d": 360.2939374999987,
      "v": 104
    },
    {
      "midi": 43,
      "hit": false,
      "t": 127235.23050000008,
      "d": 33.088218749995576,
      "v": 51
    },
    {
      "midi": 55,
      "hit": false,
      "t": 127404.34806250001,
      "d": 301.4704375000001,
      "v": 106
    },
    {
      "midi": 55,
      "hit": false,
      "t": 127411.70100000007,
      "d": 33.088218749995576,
      "v": 83
    },
    {
      "midi": 67,
      "hit": false,
      "t": 127584.49503125002,
      "d": 143.38228125000023,
      "v": 117
    },
    {
      "midi": 55,
      "hit": false,
      "t": 127588.17150000007,
      "d": 33.088218749995576,
      "v": 82
    },
    {
      "midi": 43,
      "hit": false,
      "t": 127764.64200000007,
      "d": 33.088218749995576,
      "v": 50
    },
    {
      "midi": 55,
      "hit": false,
      "t": 127941.11250000006,
      "d": 33.088218749995576,
      "v": 83
    },
    {
      "midi": 55,
      "hit": false,
      "t": 128106.55359375001,
      "d": 253.67634374999034,
      "v": 32
    },
    {
      "midi": 55,
      "hit": false,
      "t": 128117.58300000006,
      "d": 33.088218749995576,
      "v": 82
    },
    {
      "midi": 67,
      "hit": false,
      "t": 128283.02409375,
      "d": 139.7058124999894,
      "v": 44
    },
    {
      "midi": 43,
      "hit": false,
      "t": 128294.05350000005,
      "d": 33.088218749995576,
      "v": 51
    },
    {
      "midi": 55,
      "hit": false,
      "t": 128470.52400000005,
      "d": 33.088218749995576,
      "v": 83
    },
    {
      "midi": 55,
      "hit": false,
      "t": 128646.99450000004,
      "d": 33.088218749995576,
      "v": 82
    },
    {
      "midi": 43,
      "hit": false,
      "t": 128823.46500000004,
      "d": 33.088218749995576,
      "v": 51
    },
    {
      "midi": 55,
      "hit": false,
      "t": 128999.93550000004,
      "d": 33.088218749995576,
      "v": 82
    },
    {
      "midi": 55,
      "hit": false,
      "t": 129176.40600000003,
      "d": 33.088218749995576,
      "v": 82
    },
    {
      "midi": 43,
      "hit": false,
      "t": 129352.87650000003,
      "d": 33.088218749995576,
      "v": 51
    },
    {
      "midi": 57,
      "hit": false,
      "t": 129525.67053125,
      "d": 84.55878125000163,
      "v": 114
    },
    {
      "midi": 41,
      "hit": false,
      "t": 129525.67053125,
      "d": 113.97053125000093,
      "v": 115
    },
    {
      "midi": 53,
      "hit": false,
      "t": 129525.67053125,
      "d": 117.6469999999972,
      "v": 111
    },
    {
      "midi": 55,
      "hit": false,
      "t": 129525.67053125003,
      "d": 33.088218749995576,
      "v": 83
    },
    {
      "midi": 55,
      "hit": false,
      "t": 129702.14103125002,
      "d": 33.088218749995576,
      "v": 82
    },
    {
      "midi": 55,
      "hit": false,
      "t": 129878.61153124999,
      "d": 84.55878125000163,
      "v": 115
    },
    {
      "midi": 58,
      "hit": false,
      "t": 129878.61153124999,
      "d": 95.588187500005,
      "v": 114
    },
    {
      "midi": 43,
      "hit": false,
      "t": 129878.61153124999,
      "d": 99.26465625000128,
      "v": 116
    },
    {
      "midi": 43,
      "hit": false,
      "t": 129882.28800000002,
      "d": 33.088218749995576,
      "v": 50
    },
    {
      "midi": 55,
      "hit": false,
      "t": 129882.28800000002,
      "d": 33.088218749995576,
      "v": 83
    },
    {
      "midi": 55,
      "hit": false,
      "t": 130055.08203125001,
      "d": 33.088218749995576,
      "v": 83
    },
    {
      "midi": 43,
      "hit": false,
      "t": 130058.75850000001,
      "d": 33.088218749995576,
      "v": 50
    },
    {
      "midi": 55,
      "hit": false,
      "t": 130235.22899999999,
      "d": 95.588187500005,
      "v": 75
    },
    {
      "midi": 55,
      "hit": false,
      "t": 130235.229,
      "d": 33.088218749995576,
      "v": 82
    },
    {
      "midi": 43,
      "hit": false,
      "t": 130411.6995,
      "d": 33.088218749995576,
      "v": 51
    },
    {
      "midi": 55,
      "hit": false,
      "t": 130411.6995,
      "d": 33.088218749995576,
      "v": 82
    },
    {
      "midi": 55,
      "hit": false,
      "t": 130584.49353125,
      "d": 36.76468749999185,
      "v": 83
    },
    {
      "midi": 55,
      "hit": false,
      "t": 130588.17,
      "d": 117.6469999999972,
      "v": 49
    },
    {
      "midi": 43,
      "hit": false,
      "t": 130588.17,
      "d": 33.088218749995576,
      "v": 51
    },
    {
      "midi": 55,
      "hit": false,
      "t": 130760.96403125,
      "d": 3.6764687499962747,
      "v": 82
    },
    {
      "midi": 55,
      "hit": false,
      "t": 130764.6405,
      "d": 33.088218749995576,
      "v": 83
    },
    {
      "midi": 55,
      "hit": false,
      "t": 130941.11099999999,
      "d": 117.6469999999972,
      "v": 27
    },
    {
      "midi": 43,
      "hit": false,
      "t": 130941.11099999999,
      "d": 33.088218749995576,
      "v": 50
    },
    {
      "midi": 55,
      "hit": false,
      "t": 130941.11099999999,
      "d": 33.088218749995576,
      "v": 82
    },
    {
      "midi": 43,
      "hit": false,
      "t": 131117.58149999997,
      "d": 33.088218749995576,
      "v": 51
    },
    {
      "midi": 55,
      "hit": false,
      "t": 131117.58149999997,
      "d": 33.088218749995576,
      "v": 83
    },
    {
      "midi": 43,
      "hit": false,
      "t": 131290.37553125,
      "d": 584.5585312499898,
      "v": 116
    },
    {
      "midi": 55,
      "hit": false,
      "t": 131294.05199999997,
      "d": 33.088218749995576,
      "v": 82
    },
    {
      "midi": 58,
      "hit": false,
      "t": 131294.052,
      "d": 488.9703437499993,
      "v": 116
    },
    {
      "midi": 62,
      "hit": false,
      "t": 131294.052,
      "d": 551.4703124999942,
      "v": 117
    },
    {
      "midi": 43,
      "hit": false,
      "t": 131470.52249999996,
      "d": 33.088218749995576,
      "v": 50
    },
    {
      "midi": 55,
      "hit": false,
      "t": 131470.52249999996,
      "d": 33.088218749995576,
      "v": 83
    },
    {
      "midi": 43,
      "hit": false,
      "t": 131646.99299999996,
      "d": 33.088218749995576,
      "v": 51
    },
    {
      "midi": 55,
      "hit": false,
      "t": 131646.99299999996,
      "d": 33.088218749995576,
      "v": 82
    },
    {
      "midi": 55,
      "hit": false,
      "t": 131823.46349999995,
      "d": 33.088218749995576,
      "v": 82
    },
    {
      "midi": 44,
      "hit": false,
      "t": 131996.25753124998,
      "d": 231.61753124999814,
      "v": 117
    },
    {
      "midi": 43,
      "hit": false,
      "t": 131999.93399999995,
      "d": 33.088218749995576,
      "v": 51
    },
    {
      "midi": 55,
      "hit": false,
      "t": 131999.93399999995,
      "d": 33.088218749995576,
      "v": 82
    },
    {
      "midi": 63,
      "hit": false,
      "t": 131999.93399999998,
      "d": 139.70581250000396,
      "v": 117
    },
    {
      "midi": 59,
      "hit": false,
      "t": 131999.93399999998,
      "d": 172.79403124999953,
      "v": 117
    },
    {
      "midi": 43,
      "hit": false,
      "t": 132176.40449999995,
      "d": 33.088218749995576,
      "v": 51
    },
    {
      "midi": 55,
      "hit": false,
      "t": 132176.40449999995,
      "d": 33.088218749995576,
      "v": 83
    },
    {
      "midi": 55,
      "hit": false,
      "t": 132349.19853124995,
      "d": 3.6764687499962747,
      "v": 82
    },
    {
      "midi": 60,
      "hit": false,
      "t": 132349.19853124997,
      "d": 154.41168749998906,
      "v": 117
    },
    {
      "midi": 64,
      "hit": false,
      "t": 132349.19853124997,
      "d": 161.7646249999816,
      "v": 117
    },
    {
      "midi": 55,
      "hit": false,
      "t": 132352.87499999994,
      "d": 33.088218749995576,
      "v": 83
    },
    {
      "midi": 45,
      "hit": false,
      "t": 132352.87499999997,
      "d": 183.82343749998836,
      "v": 113
    },
    {
      "midi": 55,
      "hit": false,
      "t": 132525.66903124994,
      "d": 33.088218749995576,
      "v": 82
    },
    {
      "midi": 43,
      "hit": false,
      "t": 132529.34549999994,
      "d": 33.088218749995576,
      "v": 50
    },
    {
      "midi": 46,
      "hit": false,
      "t": 132705.81599999996,
      "d": 702.205531249987,
      "v": 85
    },
    {
      "midi": 58,
      "hit": false,
      "t": 132705.81599999996,
      "d": 702.205531249987,
      "v": 84
    },
    {
      "midi": 61,
      "hit": false,
      "t": 132705.81599999996,
      "d": 702.205531249987,
      "v": 85
    },
    {
      "midi": 65,
      "hit": false,
      "t": 132705.81599999996,
      "d": 702.205531249987,
      "v": 84
    },
    {
      "midi": 46,
      "hit": false,
      "t": 132705.816,
      "d": 702.205531249987,
      "v": 85
    },
    {
      "midi": 80,
      "hit": false,
      "t": 135477.87343749998,
      "d": 2801.4691874999844,
      "v": 68
    },
    {
      "midi": 87,
      "hit": false,
      "t": 135577.13809374996,
      "d": 2694.851593750005,
      "v": 81
    },
    {
      "midi": 82,
      "hit": false,
      "t": 138341.84259374996,
      "d": 2643.381031250028,
      "v": 65
    },
    {
      "midi": 85,
      "hit": false,
      "t": 138374.93081249995,
      "d": 2562.498718750023,
      "v": 58
    },
    {
      "midi": 89,
      "hit": false,
      "t": 138389.63668749997,
      "d": 2529.410499999998,
      "v": 76
    },
    {
      "midi": 77,
      "hit": false,
      "t": 141077.13534374998,
      "d": 2533.0869687500235,
      "v": 81
    },
    {
      "midi": 82,
      "hit": false,
      "t": 141110.22356249997,
      "d": 2470.5870000000286,
      "v": 83
    },
    {
      "midi": 85,
      "hit": false,
      "t": 141183.7529375,
      "d": 2323.528250000003,
      "v": 58
    },
    {
      "midi": 82,
      "hit": false,
      "t": 143930.07509375,
      "d": 2268.3812187500007,
      "v": 70
    },
    {
      "midi": 89,
      "hit": false,
      "t": 144021.9868125,
      "d": 2154.4106874999998,
      "v": 87
    },
    {
      "midi": 80,
      "hit": false,
      "t": 146771.9854375,
      "d": 2507.3516875000205,
      "v": 62
    },
    {
      "midi": 82,
      "hit": false,
      "t": 146819.77953125,
      "d": 2386.028218749998,
      "v": 79
    },
    {
      "midi": 87,
      "hit": false,
      "t": 146871.25009375002,
      "d": 2323.528250000003,
      "v": 75
    },
    {
      "midi": 77,
      "hit": false,
      "t": 149573.454625,
      "d": 2330.8811874999956,
      "v": 76
    },
    {
      "midi": 82,
      "hit": false,
      "t": 149613.89578125,
      "d": 2246.322406249994,
      "v": 87
    },
    {
      "midi": 85,
      "hit": false,
      "t": 149672.71928125,
      "d": 2128.6754062499967,
      "v": 78
    },
    {
      "midi": 85,
      "hit": false,
      "t": 152470.51200000002,
      "d": 124.99993749998976,
      "v": 85
    },
    {
      "midi": 80,
      "hit": false,
      "t": 152470.51200000002,
      "d": 128.67640624998603,
      "v": 84
    },
    {
      "midi": 89,
      "hit": false,
      "t": 152470.51200000002,
      "d": 136.02934374997858,
      "v": 85
    },
    {
      "midi": 85,
      "hit": false,
      "t": 152819.77653124998,
      "d": 106.61759374997928,
      "v": 88
    },
    {
      "midi": 80,
      "hit": false,
      "t": 152823.45299999998,
      "d": 95.58818749999045,
      "v": 88
    },
    {
      "midi": 89,
      "hit": false,
      "t": 152823.45299999998,
      "d": 102.941124999983,
      "v": 89
    },
    {
      "midi": 85,
      "hit": false,
      "t": 153172.71753124997,
      "d": 102.94112500001211,
      "v": 90
    },
    {
      "midi": 80,
      "hit": false,
      "t": 153172.71753124997,
      "d": 113.97053125000093,
      "v": 91
    },
    {
      "midi": 89,
      "hit": false,
      "t": 153172.71753124997,
      "d": 128.67640625001513,
      "v": 90
    },
    {
      "midi": 85,
      "hit": false,
      "t": 153525.65853125,
      "d": 386.0292187499872,
      "v": 95
    },
    {
      "midi": 89,
      "hit": false,
      "t": 153525.65853125,
      "d": 389.70568749998347,
      "v": 94
    },
    {
      "midi": 80,
      "hit": false,
      "t": 153529.335,
      "d": 374.99981249999837,
      "v": 95
    },
    {
      "midi": 80,
      "hit": false,
      "t": 154231.54053124998,
      "d": 106.61759375000838,
      "v": 101
    },
    {
      "midi": 85,
      "hit": false,
      "t": 154231.54053124998,
      "d": 117.6469999999972,
      "v": 100
    },
    {
      "midi": 89,
      "hit": false,
      "t": 154231.54053124998,
      "d": 132.3528750000114,
      "v": 101
    },
    {
      "midi": 89,
      "hit": false,
      "t": 154584.48153125,
      "d": 647.0585000000137,
      "v": 103
    },
    {
      "midi": 85,
      "hit": false,
      "t": 154584.48153125,
      "d": 669.1173125000205,
      "v": 102
    },
    {
      "midi": 80,
      "hit": false,
      "t": 154584.48153125,
      "d": 676.470250000013,
      "v": 102
    },
    {
      "midi": 55,
      "hit": false,
      "t": 155294.03999999995,
      "d": 283.0880937500042,
      "v": 104
    },
    {
      "midi": 60,
      "hit": false,
      "t": 155294.03999999995,
      "d": 341.9115937500028,
      "v": 110
    },
    {
      "midi": 64,
      "hit": false,
      "t": 155294.03999999995,
      "d": 356.6174687499879,
      "v": 105
    },
    {
      "midi": 36,
      "hit": false,
      "t": 155294.03999999995,
      "d": 397.058624999976,
      "v": 105
    },
    {
      "midi": 43,
      "hit": false,
      "t": 155470.51049999992,
      "d": 33.088218749995576,
      "v": 51
    },
    {
      "midi": 55,
      "hit": false,
      "t": 155639.62806249995,
      "d": 301.47043749995646,
      "v": 107
    },
    {
      "midi": 55,
      "hit": false,
      "t": 155646.9809999999,
      "d": 36.76468749999185,
      "v": 83
    },
    {
      "midi": 67,
      "hit": false,
      "t": 155819.7750312499,
      "d": 143.38228125000023,
      "v": 117
    },
    {
      "midi": 55,
      "hit": false,
      "t": 155823.4514999999,
      "d": 36.76468749999185,
      "v": 82
    },
    {
      "midi": 43,
      "hit": false,
      "t": 155999.9219999999,
      "d": 33.088218749995576,
      "v": 50
    },
    {
      "midi": 55,
      "hit": false,
      "t": 156176.3924999999,
      "d": 36.76468749999185,
      "v": 83
    },
    {
      "midi": 55,
      "hit": false,
      "t": 156341.8335937499,
      "d": 253.6763437500049,
      "v": 32
    },
    {
      "midi": 55,
      "hit": false,
      "t": 156352.8629999999,
      "d": 36.76468749999185,
      "v": 83
    },
    {
      "midi": 67,
      "hit": false,
      "t": 156518.3040937499,
      "d": 139.70581250000396,
      "v": 44
    },
    {
      "midi": 43,
      "hit": false,
      "t": 156529.3334999999,
      "d": 33.088218749995576,
      "v": 50
    },
    {
      "midi": 55,
      "hit": false,
      "t": 156705.8039999999,
      "d": 36.76468749999185,
      "v": 82
    },
    {
      "midi": 55,
      "hit": false,
      "t": 156882.27449999988,
      "d": 36.76468749999185,
      "v": 83
    },
    {
      "midi": 43,
      "hit": false,
      "t": 157058.74499999988,
      "d": 33.088218749995576,
      "v": 50
    },
    {
      "midi": 55,
      "hit": false,
      "t": 157235.21549999987,
      "d": 36.76468749999185,
      "v": 83
    },
    {
      "midi": 55,
      "hit": false,
      "t": 157411.68599999987,
      "d": 36.76468749999185,
      "v": 83
    },
    {
      "midi": 43,
      "hit": false,
      "t": 157588.15649999987,
      "d": 33.088218749995576,
      "v": 50
    },
    {
      "midi": 55,
      "hit": false,
      "t": 157760.95053124987,
      "d": 36.76468749999185,
      "v": 83
    },
    {
      "midi": 57,
      "hit": false,
      "t": 157760.9505312499,
      "d": 84.55878125000163,
      "v": 115
    },
    {
      "midi": 41,
      "hit": false,
      "t": 157760.9505312499,
      "d": 113.97053125000093,
      "v": 114
    },
    {
      "midi": 53,
      "hit": false,
      "t": 157760.9505312499,
      "d": 117.6469999999972,
      "v": 111
    },
    {
      "midi": 55,
      "hit": false,
      "t": 157941.09749999986,
      "d": 36.76468749999185,
      "v": 82
    },
    {
      "midi": 55,
      "hit": false,
      "t": 158113.8915312499,
      "d": 84.55878125000163,
      "v": 115
    },
    {
      "midi": 58,
      "hit": false,
      "t": 158113.8915312499,
      "d": 95.58818749999045,
      "v": 114
    },
    {
      "midi": 43,
      "hit": false,
      "t": 158113.8915312499,
      "d": 99.26465624998673,
      "v": 117
    },
    {
      "midi": 43,
      "hit": false,
      "t": 158117.56799999985,
      "d": 33.088218749995576,
      "v": 50
    },
    {
      "midi": 55,
      "hit": false,
      "t": 158294.03849999985,
      "d": 36.76468749999185,
      "v": 83
    },
    {
      "midi": 55,
      "hit": false,
      "t": 158470.50899999985,
      "d": 36.76468749999185,
      "v": 83
    },
    {
      "midi": 55,
      "hit": false,
      "t": 158470.50899999987,
      "d": 95.58818749999045,
      "v": 48
    },
    {
      "midi": 43,
      "hit": false,
      "t": 158646.97949999984,
      "d": 33.088218749995576,
      "v": 50
    },
    {
      "midi": 55,
      "hit": false,
      "t": 158646.97949999987,
      "d": 117.6469999999972,
      "v": 38
    },
    {
      "midi": 55,
      "hit": false,
      "t": 158823.44999999984,
      "d": 36.76468749999185,
      "v": 82
    },
    {
      "midi": 55,
      "hit": false,
      "t": 158999.92049999983,
      "d": 36.76468749999185,
      "v": 83
    },
    {
      "midi": 43,
      "hit": false,
      "t": 159176.39099999983,
      "d": 33.088218749995576,
      "v": 51
    },
    {
      "midi": 55,
      "hit": false,
      "t": 159352.86149999982,
      "d": 36.76468749999185,
      "v": 82
    },
    {
      "midi": 55,
      "hit": false,
      "t": 159525.65553124982,
      "d": 36.76468749999185,
      "v": 82
    },
    {
      "midi": 43,
      "hit": false,
      "t": 159705.80249999982,
      "d": 33.088218749995576,
      "v": 51
    },
    {
      "midi": 55,
      "hit": false,
      "t": 159878.59653124982,
      "d": 36.76468749999185,
      "v": 82
    },
    {
      "midi": 55,
      "hit": false,
      "t": 160058.7434999998,
      "d": 36.76468749999185,
      "v": 83
    },
    {
      "midi": 43,
      "hit": false,
      "t": 160235.2139999998,
      "d": 33.088218749995576,
      "v": 51
    },
    {
      "midi": 55,
      "hit": false,
      "t": 160411.6844999998,
      "d": 36.76468749999185,
      "v": 82
    },
    {
      "midi": 55,
      "hit": false,
      "t": 160588.1549999998,
      "d": 36.76468749999185,
      "v": 83
    },
    {
      "midi": 43,
      "hit": false,
      "t": 160764.6254999998,
      "d": 33.088218749995576,
      "v": 50
    },
    {
      "midi": 55,
      "hit": false,
      "t": 160937.4195312498,
      "d": 36.76468749999185,
      "v": 82
    },
    {
      "midi": 36,
      "hit": false,
      "t": 160941.09599999987,
      "d": 397.0586250000051,
      "v": 104
    },
    {
      "midi": 55,
      "hit": false,
      "t": 160944.77246874987,
      "d": 294.117499999993,
      "v": 105
    },
    {
      "midi": 60,
      "hit": false,
      "t": 160944.77246874987,
      "d": 345.58806249999907,
      "v": 111
    },
    {
      "midi": 64,
      "hit": false,
      "t": 160944.77246874987,
      "d": 360.29393750001327,
      "v": 104
    },
    {
      "midi": 55,
      "hit": false,
      "t": 161117.56649999978,
      "d": 36.76468749999185,
      "v": 83
    },
    {
      "midi": 55,
      "hit": false,
      "t": 161290.36053124987,
      "d": 301.47043749998556,
      "v": 106
    },
    {
      "midi": 43,
      "hit": false,
      "t": 161294.03699999978,
      "d": 33.088218749995576,
      "v": 51
    },
    {
      "midi": 67,
      "hit": false,
      "t": 161466.83103124987,
      "d": 147.0587499999965,
      "v": 117
    },
    {
      "midi": 55,
      "hit": false,
      "t": 161470.50749999977,
      "d": 36.76468749999185,
      "v": 82
    },
    {
      "midi": 55,
      "hit": false,
      "t": 161646.97799999977,
      "d": 33.088218749995576,
      "v": 82
    },
    {
      "midi": 43,
      "hit": false,
      "t": 161823.44849999977,
      "d": 33.088218749995576,
      "v": 51
    },
    {
      "midi": 55,
      "hit": false,
      "t": 161996.24253124977,
      "d": 36.76468749999185,
      "v": 83
    },
    {
      "midi": 55,
      "hit": false,
      "t": 161996.24253124985,
      "d": 253.6763437500049,
      "v": 45
    },
    {
      "midi": 67,
      "hit": false,
      "t": 162172.71303124985,
      "d": 139.70581250000396,
      "v": 48
    },
    {
      "midi": 55,
      "hit": false,
      "t": 162176.38949999976,
      "d": 33.088218749995576,
      "v": 82
    },
    {
      "midi": 43,
      "hit": false,
      "t": 162352.85999999975,
      "d": 33.088218749995576,
      "v": 50
    },
    {
      "midi": 55,
      "hit": false,
      "t": 162529.33049999975,
      "d": 36.76468749999185,
      "v": 83
    },
    {
      "midi": 55,
      "hit": false,
      "t": 162705.80099999974,
      "d": 36.76468749999185,
      "v": 82
    },
    {
      "midi": 43,
      "hit": false,
      "t": 162882.27149999974,
      "d": 33.088218749995576,
      "v": 51
    },
    {
      "midi": 55,
      "hit": false,
      "t": 163058.74199999974,
      "d": 36.76468749999185,
      "v": 83
    },
    {
      "midi": 55,
      "hit": false,
      "t": 163235.21249999973,
      "d": 36.76468749999185,
      "v": 82
    },
    {
      "midi": 57,
      "hit": false,
      "t": 163408.00653124985,
      "d": 84.55878125000163,
      "v": 114
    },
    {
      "midi": 41,
      "hit": false,
      "t": 163408.00653124985,
      "d": 113.97053125000093,
      "v": 115
    },
    {
      "midi": 53,
      "hit": false,
      "t": 163408.00653124985,
      "d": 117.6469999999972,
      "v": 110
    },
    {
      "midi": 43,
      "hit": false,
      "t": 163411.68299999973,
      "d": 33.088218749995576,
      "v": 51
    },
    {
      "midi": 55,
      "hit": false,
      "t": 163588.15349999972,
      "d": 36.76468749999185,
      "v": 82
    },
    {
      "midi": 55,
      "hit": false,
      "t": 163764.62399999972,
      "d": 36.76468749999185,
      "v": 82
    },
    {
      "midi": 55,
      "hit": false,
      "t": 163764.62399999984,
      "d": 84.55878125000163,
      "v": 115
    },
    {
      "midi": 43,
      "hit": false,
      "t": 163764.62399999984,
      "d": 95.58818749999045,
      "v": 117
    },
    {
      "midi": 58,
      "hit": false,
      "t": 163764.62399999984,
      "d": 95.58818749999045,
      "v": 114
    },
    {
      "midi": 43,
      "hit": false,
      "t": 163941.09449999972,
      "d": 33.088218749995576,
      "v": 51
    },
    {
      "midi": 55,
      "hit": false,
      "t": 164113.88853124972,
      "d": 36.76468749999185,
      "v": 83
    },
    {
      "midi": 55,
      "hit": false,
      "t": 164117.56499999983,
      "d": 95.58818749999045,
      "v": 75
    },
    {
      "midi": 55,
      "hit": false,
      "t": 164294.0354999997,
      "d": 36.76468749999185,
      "v": 82
    },
    {
      "midi": 43,
      "hit": false,
      "t": 164470.5059999997,
      "d": 33.088218749995576,
      "v": 50
    },
    {
      "midi": 55,
      "hit": false,
      "t": 164470.50599999982,
      "d": 117.6469999999972,
      "v": 48
    },
    {
      "midi": 55,
      "hit": false,
      "t": 164646.9764999997,
      "d": 33.088218749995576,
      "v": 83
    },
    {
      "midi": 55,
      "hit": false,
      "t": 164823.4469999997,
      "d": 36.76468749999185,
      "v": 83
    },
    {
      "midi": 55,
      "hit": false,
      "t": 164823.4469999998,
      "d": 117.6469999999972,
      "v": 27
    },
    {
      "midi": 43,
      "hit": false,
      "t": 164999.9174999997,
      "d": 33.088218749995576,
      "v": 50
    },
    {
      "midi": 55,
      "hit": false,
      "t": 165176.3879999997,
      "d": 36.76468749999185,
      "v": 82
    },
    {
      "midi": 46,
      "hit": false,
      "t": 165176.3879999998,
      "d": 113.97053125000093,
      "v": 76
    },
    {
      "midi": 55,
      "hit": false,
      "t": 165352.85849999968,
      "d": 36.76468749999185,
      "v": 83
    },
    {
      "midi": 43,
      "hit": false,
      "t": 165529.32899999968,
      "d": 33.088218749995576,
      "v": 50
    },
    {
      "midi": 55,
      "hit": false,
      "t": 165705.79949999967,
      "d": 36.76468749999185,
      "v": 83
    },
    {
      "midi": 46,
      "hit": false,
      "t": 165705.7994999998,
      "d": 136.02934375000768,
      "v": 85
    },
    {
      "midi": 55,
      "hit": false,
      "t": 165882.26999999967,
      "d": 36.76468749999185,
      "v": 83
    },
    {
      "midi": 43,
      "hit": false,
      "t": 166058.74049999967,
      "d": 33.088218749995576,
      "v": 50
    },
    {
      "midi": 46,
      "hit": false,
      "t": 166058.7404999998,
      "d": 55.14703125000233,
      "v": 91
    },
    {
      "midi": 55,
      "hit": false,
      "t": 166235.21099999966,
      "d": 36.76468749999185,
      "v": 83
    },
    {
      "midi": 46,
      "hit": false,
      "t": 166404.3285624998,
      "d": 110.29406250000466,
      "v": 94
    },
    {
      "midi": 55,
      "hit": false,
      "t": 166411.68149999966,
      "d": 36.76468749999185,
      "v": 82
    },
    {
      "midi": 43,
      "hit": false,
      "t": 166588.15199999965,
      "d": 33.088218749995576,
      "v": 50
    },
    {
      "midi": 60,
      "hit": false,
      "t": 166588.15199999983,
      "d": 341.9115937500028,
      "v": 111
    },
    {
      "midi": 55,
      "hit": false,
      "t": 166588.15199999983,
      "d": 352.9409999999916,
      "v": 105
    },
    {
      "midi": 64,
      "hit": false,
      "t": 166588.15199999983,
      "d": 356.6174687499879,
      "v": 104
    },
    {
      "midi": 36,
      "hit": false,
      "t": 166588.15199999983,
      "d": 397.058624999976,
      "v": 104
    },
    {
      "midi": 55,
      "hit": false,
      "t": 166764.62249999965,
      "d": 33.088218749995576,
      "v": 83
    },
    {
      "midi": 55,
      "hit": false,
      "t": 166941.09299999964,
      "d": 33.088218749995576,
      "v": 83
    },
    {
      "midi": 48,
      "hit": false,
      "t": 166941.09299999982,
      "d": 227.94106250000186,
      "v": 90
    },
    {
      "midi": 43,
      "hit": false,
      "t": 167117.56349999964,
      "d": 33.088218749995576,
      "v": 50
    },
    {
      "midi": 55,
      "hit": false,
      "t": 167117.56349999981,
      "d": 154.41168750001816,
      "v": 117
    },
    {
      "midi": 55,
      "hit": false,
      "t": 167297.71046874963,
      "d": 33.088218749995576,
      "v": 82
    },
    {
      "midi": 55,
      "hit": false,
      "t": 167470.50449999963,
      "d": 33.088218749995576,
      "v": 83
    },
    {
      "midi": 43,
      "hit": false,
      "t": 167646.97499999963,
      "d": 33.088218749995576,
      "v": 51
    },
    {
      "midi": 55,
      "hit": false,
      "t": 167827.12196874962,
      "d": 33.088218749995576,
      "v": 82
    },
    {
      "midi": 55,
      "hit": false,
      "t": 168003.59246874962,
      "d": 33.088218749995576,
      "v": 82
    },
    {
      "midi": 43,
      "hit": false,
      "t": 168176.38649999961,
      "d": 33.088218749995576,
      "v": 51
    },
    {
      "midi": 55,
      "hit": false,
      "t": 168356.5334687496,
      "d": 33.088218749995576,
      "v": 82
    },
    {
      "midi": 55,
      "hit": false,
      "t": 168533.0039687496,
      "d": 33.088218749995576,
      "v": 83
    },
    {
      "midi": 43,
      "hit": false,
      "t": 168705.7979999996,
      "d": 33.088218749995576,
      "v": 51
    },
    {
      "midi": 55,
      "hit": false,
      "t": 168885.9449687496,
      "d": 33.088218749995576,
      "v": 82
    },
    {
      "midi": 57,
      "hit": false,
      "t": 169055.06253124983,
      "d": 84.55878125000163,
      "v": 115
    },
    {
      "midi": 41,
      "hit": false,
      "t": 169055.06253124983,
      "d": 113.97053125000093,
      "v": 115
    },
    {
      "midi": 53,
      "hit": false,
      "t": 169055.06253124983,
      "d": 117.6469999999972,
      "v": 110
    },
    {
      "midi": 55,
      "hit": false,
      "t": 169062.4154687496,
      "d": 33.088218749995576,
      "v": 83
    },
    {
      "midi": 43,
      "hit": false,
      "t": 169235.2094999996,
      "d": 33.088218749995576,
      "v": 50
    },
    {
      "midi": 55,
      "hit": false,
      "t": 169408.00353124982,
      "d": 84.55878125000163,
      "v": 114
    },
    {
      "midi": 58,
      "hit": false,
      "t": 169408.00353124982,
      "d": 95.58818749999045,
      "v": 115
    },
    {
      "midi": 43,
      "hit": false,
      "t": 169408.00353124982,
      "d": 99.26465624998673,
      "v": 116
    },
    {
      "midi": 55,
      "hit": false,
      "t": 169415.35646874958,
      "d": 33.088218749995576,
      "v": 82
    },
    {
      "midi": 55,
      "hit": false,
      "t": 169591.82696874958,
      "d": 33.088218749995576,
      "v": 83
    },
    {
      "midi": 43,
      "hit": false,
      "t": 169764.62099999958,
      "d": 33.088218749995576,
      "v": 51
    },
    {
      "midi": 55,
      "hit": false,
      "t": 169764.6209999998,
      "d": 95.58818749999045,
      "v": 48
    },
    {
      "midi": 55,
      "hit": false,
      "t": 169941.0914999998,
      "d": 117.6469999999972,
      "v": 38
    },
    {
      "midi": 55,
      "hit": false,
      "t": 169944.76796874957,
      "d": 33.088218749995576,
      "v": 82
    },
    {
      "midi": 55,
      "hit": false,
      "t": 170121.23846874957,
      "d": 33.088218749995576,
      "v": 82
    },
    {
      "midi": 43,
      "hit": false,
      "t": 170294.03249999956,
      "d": 33.088218749995576,
      "v": 51
    },
    {
      "midi": 55,
      "hit": false,
      "t": 170474.17946874956,
      "d": 33.088218749995576,
      "v": 83
    },
    {
      "midi": 55,
      "hit": false,
      "t": 170646.97349999956,
      "d": 33.088218749995576,
      "v": 82
    },
    {
      "midi": 43,
      "hit": false,
      "t": 170823.44399999955,
      "d": 33.088218749995576,
      "v": 50
    },
    {
      "midi": 55,
      "hit": false,
      "t": 170999.91449999955,
      "d": 33.088218749995576,
      "v": 83
    },
    {
      "midi": 55,
      "hit": false,
      "t": 171176.38499999954,
      "d": 33.088218749995576,
      "v": 82
    },
    {
      "midi": 43,
      "hit": false,
      "t": 171352.85549999954,
      "d": 33.088218749995576,
      "v": 51
    },
    {
      "midi": 55,
      "hit": false,
      "t": 171529.32599999954,
      "d": 33.088218749995576,
      "v": 83
    },
    {
      "midi": 55,
      "hit": false,
      "t": 171705.79649999953,
      "d": 33.088218749995576,
      "v": 82
    },
    {
      "midi": 43,
      "hit": false,
      "t": 171882.26699999953,
      "d": 33.088218749995576,
      "v": 51
    },
    {
      "midi": 55,
      "hit": false,
      "t": 172058.73749999952,
      "d": 33.088218749995576,
      "v": 82
    },
    {
      "midi": 55,
      "hit": false,
      "t": 172235.20799999952,
      "d": 33.088218749995576,
      "v": 82
    },
    {
      "midi": 36,
      "hit": false,
      "t": 172235.2079999998,
      "d": 397.0586250000051,
      "v": 105
    },
    {
      "midi": 55,
      "hit": false,
      "t": 172238.8844687498,
      "d": 294.117499999993,
      "v": 105
    },
    {
      "midi": 60,
      "hit": false,
      "t": 172238.8844687498,
      "d": 345.58806249999907,
      "v": 110
    },
    {
      "midi": 64,
      "hit": false,
      "t": 172238.8844687498,
      "d": 360.29393750001327,
      "v": 104
    },
    {
      "midi": 43,
      "hit": false,
      "t": 172411.6784999995,
      "d": 33.088218749995576,
      "v": 51
    },
    {
      "midi": 55,
      "hit": false,
      "t": 172584.4725312498,
      "d": 301.47043749998556,
      "v": 107
    },
    {
      "midi": 55,
      "hit": false,
      "t": 172588.1489999995,
      "d": 33.088218749995576,
      "v": 83
    },
    {
      "midi": 67,
      "hit": false,
      "t": 172760.9430312498,
      "d": 147.0587499999965,
      "v": 117
    },
    {
      "midi": 55,
      "hit": false,
      "t": 172764.6194999995,
      "d": 33.088218749995576,
      "v": 82
    },
    {
      "midi": 43,
      "hit": false,
      "t": 172941.0899999995,
      "d": 33.088218749995576,
      "v": 50
    },
    {
      "midi": 55,
      "hit": false,
      "t": 173117.5604999995,
      "d": 33.088218749995576,
      "v": 83
    },
    {
      "midi": 55,
      "hit": false,
      "t": 173290.3545312498,
      "d": 253.6763437500049,
      "v": 44
    },
    {
      "midi": 55,
      "hit": false,
      "t": 173294.0309999995,
      "d": 33.088218749995576,
      "v": 83
    },
    {
      "midi": 67,
      "hit": false,
      "t": 173466.82503124978,
      "d": 139.70581250000396,
      "v": 48
    },
    {
      "midi": 43,
      "hit": false,
      "t": 173470.5014999995,
      "d": 33.088218749995576,
      "v": 50
    },
    {
      "midi": 55,
      "hit": false,
      "t": 173646.97199999948,
      "d": 33.088218749995576,
      "v": 82
    },
    {
      "midi": 55,
      "hit": false,
      "t": 173823.44249999948,
      "d": 33.088218749995576,
      "v": 83
    },
    {
      "midi": 43,
      "hit": false,
      "t": 173999.91299999948,
      "d": 33.088218749995576,
      "v": 50
    },
    {
      "midi": 55,
      "hit": false,
      "t": 174176.38349999947,
      "d": 33.088218749995576,
      "v": 83
    },
    {
      "midi": 55,
      "hit": false,
      "t": 174352.85399999947,
      "d": 33.088218749995576,
      "v": 83
    },
    {
      "midi": 43,
      "hit": false,
      "t": 174529.32449999946,
      "d": 33.088218749995576,
      "v": 50
    },
    {
      "midi": 55,
      "hit": false,
      "t": 174702.11853124946,
      "d": 33.088218749995576,
      "v": 83
    },
    {
      "midi": 57,
      "hit": false,
      "t": 174702.11853124978,
      "d": 84.55878125000163,
      "v": 115
    },
    {
      "midi": 41,
      "hit": false,
      "t": 174702.11853124978,
      "d": 113.97053125000093,
      "v": 114
    },
    {
      "midi": 53,
      "hit": false,
      "t": 174702.11853124978,
      "d": 117.6469999999972,
      "v": 111
    },
    {
      "midi": 55,
      "hit": false,
      "t": 174878.58903124946,
      "d": 33.088218749995576,
      "v": 82
    },
    {
      "midi": 55,
      "hit": false,
      "t": 175055.05953124978,
      "d": 84.55878125000163,
      "v": 115
    },
    {
      "midi": 58,
      "hit": false,
      "t": 175055.05953124978,
      "d": 95.58818749999045,
      "v": 114
    },
    {
      "midi": 43,
      "hit": false,
      "t": 175055.05953124978,
      "d": 99.26465624998673,
      "v": 117
    },
    {
      "midi": 55,
      "hit": false,
      "t": 175058.73599999945,
      "d": 33.088218749995576,
      "v": 82
    },
    {
      "midi": 43,
      "hit": false,
      "t": 175235.20649999945,
      "d": 33.088218749995576,
      "v": 51
    },
    {
      "midi": 55,
      "hit": false,
      "t": 175411.67699999944,
      "d": 33.088218749995576,
      "v": 83
    },
    {
      "midi": 55,
      "hit": false,
      "t": 175411.67699999976,
      "d": 95.58818749999045,
      "v": 48
    },
    {
      "midi": 55,
      "hit": false,
      "t": 175588.14749999944,
      "d": 33.088218749995576,
      "v": 82
    },
    {
      "midi": 55,
      "hit": false,
      "t": 175588.14749999976,
      "d": 117.6469999999972,
      "v": 38
    },
    {
      "midi": 43,
      "hit": false,
      "t": 175764.61799999943,
      "d": 33.088218749995576,
      "v": 50
    },
    {
      "midi": 55,
      "hit": false,
      "t": 175941.08849999943,
      "d": 33.088218749995576,
      "v": 83
    },
    {
      "midi": 55,
      "hit": false,
      "t": 176117.55899999943,
      "d": 33.088218749995576,
      "v": 83
    },
    {
      "midi": 43,
      "hit": false,
      "t": 176294.02949999942,
      "d": 33.088218749995576,
      "v": 50
    },
    {
      "midi": 55,
      "hit": false,
      "t": 176470.49999999942,
      "d": 33.088218749995576,
      "v": 82
    },
    {
      "midi": 46,
      "hit": false,
      "t": 176470.49999999977,
      "d": 113.97053125000093,
      "v": 76
    },
    {
      "midi": 55,
      "hit": false,
      "t": 176646.9704999994,
      "d": 33.088218749995576,
      "v": 83
    },
    {
      "midi": 43,
      "hit": false,
      "t": 176823.4409999994,
      "d": 33.088218749995576,
      "v": 50
    },
    {
      "midi": 55,
      "hit": false,
      "t": 176999.9114999994,
      "d": 33.088218749995576,
      "v": 83
    },
    {
      "midi": 46,
      "hit": false,
      "t": 176999.91149999975,
      "d": 136.02934375000768,
      "v": 85
    },
    {
      "midi": 55,
      "hit": false,
      "t": 177176.3819999994,
      "d": 33.088218749995576,
      "v": 83
    },
    {
      "midi": 43,
      "hit": false,
      "t": 177352.8524999994,
      "d": 33.088218749995576,
      "v": 50
    },
    {
      "midi": 46,
      "hit": false,
      "t": 177352.85249999978,
      "d": 55.14703125000233,
      "v": 91
    },
    {
      "midi": 55,
      "hit": false,
      "t": 177525.6465312494,
      "d": 33.088218749995576,
      "v": 83
    },
    {
      "midi": 46,
      "hit": false,
      "t": 177698.44056249977,
      "d": 110.29406250000466,
      "v": 94
    },
    {
      "midi": 55,
      "hit": false,
      "t": 177702.1170312494,
      "d": 33.088218749995576,
      "v": 82
    },
    {
      "midi": 48,
      "hit": false,
      "t": 177882.2639999998,
      "d": 290.44103124999674,
      "v": 102
    },
    {
      "midi": 43,
      "hit": false,
      "t": 178058.73449999938,
      "d": 33.088218749995576,
      "v": 50
    },
    {
      "midi": 55,
      "hit": false,
      "t": 178235.20499999938,
      "d": 36.76468749999185,
      "v": 83
    },
    {
      "midi": 36,
      "hit": false,
      "t": 178235.20499999978,
      "d": 44.117625000013504,
      "v": 81
    },
    {
      "midi": 55,
      "hit": false,
      "t": 178411.67549999937,
      "d": 36.76468749999185,
      "v": 83
    },
    {
      "midi": 48,
      "hit": false,
      "t": 178411.6754999998,
      "d": 73.5293750000128,
      "v": 105
    },
    {
      "midi": 43,
      "hit": false,
      "t": 178588.14599999937,
      "d": 33.088218749995576,
      "v": 50
    },
    {
      "midi": 55,
      "hit": false,
      "t": 178764.61649999936,
      "d": 36.76468749999185,
      "v": 82
    },
    {
      "midi": 55,
      "hit": false,
      "t": 178941.08699999936,
      "d": 36.76468749999185,
      "v": 83
    },
    {
      "midi": 43,
      "hit": false,
      "t": 179117.55749999936,
      "d": 33.088218749995576,
      "v": 51
    },
    {
      "midi": 55,
      "hit": false,
      "t": 179294.02799999935,
      "d": 36.76468749999185,
      "v": 82
    },
    {
      "midi": 55,
      "hit": false,
      "t": 179470.49849999935,
      "d": 36.76468749999185,
      "v": 82
    },
    {
      "midi": 43,
      "hit": false,
      "t": 179646.96899999934,
      "d": 33.088218749995576,
      "v": 51
    },
    {
      "midi": 55,
      "hit": false,
      "t": 179823.43949999934,
      "d": 36.76468749999185,
      "v": 82
    },
    {
      "midi": 55,
      "hit": false,
      "t": 179999.90999999933,
      "d": 36.76468749999185,
      "v": 83
    },
    {
      "midi": 43,
      "hit": false,
      "t": 180176.38049999933,
      "d": 33.088218749995576,
      "v": 51
    },
    {
      "midi": 55,
      "hit": false,
      "t": 180349.17453124933,
      "d": 36.76468749999185,
      "v": 82
    },
    {
      "midi": 55,
      "hit": false,
      "t": 180529.32149999932,
      "d": 36.76468749999185,
      "v": 83
    },
    {
      "midi": 43,
      "hit": false,
      "t": 180705.79199999932,
      "d": 33.088218749995576,
      "v": 50
    },
    {
      "midi": 55,
      "hit": false,
      "t": 180882.2624999993,
      "d": 36.76468749999185,
      "v": 82
    },
    {
      "midi": 55,
      "hit": false,
      "t": 181058.7329999993,
      "d": 36.76468749999185,
      "v": 83
    },
    {
      "midi": 55,
      "hit": false,
      "t": 181058.73299999983,
      "d": 95.58818749999045,
      "v": 48
    },
    {
      "midi": 43,
      "hit": false,
      "t": 181235.2034999993,
      "d": 33.088218749995576,
      "v": 51
    },
    {
      "midi": 55,
      "hit": false,
      "t": 181235.20349999983,
      "d": 117.6469999999972,
      "v": 38
    },
    {
      "midi": 55,
      "hit": false,
      "t": 181411.6739999993,
      "d": 36.76468749999185,
      "v": 82
    },
    {
      "midi": 55,
      "hit": false,
      "t": 181588.1444999993,
      "d": 36.76468749999185,
      "v": 82
    },
    {
      "midi": 43,
      "hit": false,
      "t": 181764.6149999993,
      "d": 33.088218749995576,
      "v": 51
    },
    {
      "midi": 55,
      "hit": false,
      "t": 181941.0854999993,
      "d": 36.76468749999185,
      "v": 83
    },
    {
      "midi": 55,
      "hit": false,
      "t": 182113.8795312493,
      "d": 36.76468749999185,
      "v": 82
    },
    {
      "midi": 46,
      "hit": false,
      "t": 182117.55599999984,
      "d": 113.97053125000093,
      "v": 76
    },
    {
      "midi": 43,
      "hit": false,
      "t": 182294.02649999928,
      "d": 33.088218749995576,
      "v": 50
    },
    {
      "midi": 55,
      "hit": false,
      "t": 182466.82053124928,
      "d": 36.76468749999185,
      "v": 83
    },
    {
      "midi": 55,
      "hit": false,
      "t": 182646.96749999927,
      "d": 36.76468749999185,
      "v": 82
    },
    {
      "midi": 46,
      "hit": false,
      "t": 182646.96749999982,
      "d": 136.02934375000768,
      "v": 85
    },
    {
      "midi": 43,
      "hit": false,
      "t": 182823.43799999927,
      "d": 33.088218749995576,
      "v": 51
    },
    {
      "midi": 55,
      "hit": false,
      "t": 182999.90849999926,
      "d": 36.76468749999185,
      "v": 83
    },
    {
      "midi": 46,
      "hit": false,
      "t": 182999.90849999984,
      "d": 55.14703125000233,
      "v": 90
    },
    {
      "midi": 55,
      "hit": false,
      "t": 183176.37899999926,
      "d": 36.76468749999185,
      "v": 82
    },
    {
      "midi": 46,
      "hit": false,
      "t": 183345.49656249984,
      "d": 110.29406250000466,
      "v": 95
    },
    {
      "midi": 43,
      "hit": false,
      "t": 183352.84949999925,
      "d": 33.088218749995576,
      "v": 51
    },
    {
      "midi": 55,
      "hit": false,
      "t": 183525.64353124925,
      "d": 36.76468749999185,
      "v": 82
    },
    {
      "midi": 36,
      "hit": false,
      "t": 183529.31999999986,
      "d": 397.0586250000051,
      "v": 105
    },
    {
      "midi": 55,
      "hit": false,
      "t": 183562.40821874986,
      "d": 3.6764687499962747,
      "v": 104
    },
    {
      "midi": 60,
      "hit": false,
      "t": 183566.08468749985,
      "d": 345.58806249999907,
      "v": 111
    },
    {
      "midi": 64,
      "hit": false,
      "t": 183569.76115624985,
      "d": 360.29393750001327,
      "v": 104
    },
    {
      "midi": 55,
      "hit": false,
      "t": 183705.79049999925,
      "d": 36.76468749999185,
      "v": 82
    },
    {
      "midi": 55,
      "hit": false,
      "t": 183874.90806249986,
      "d": 301.47043749998556,
      "v": 106
    },
    {
      "midi": 43,
      "hit": false,
      "t": 183882.26099999924,
      "d": 33.088218749995576,
      "v": 51
    },
    {
      "midi": 67,
      "hit": false,
      "t": 184055.05503124985,
      "d": 143.38228125000023,
      "v": 117
    },
    {
      "midi": 55,
      "hit": false,
      "t": 184058.73149999924,
      "d": 36.76468749999185,
      "v": 83
    },
    {
      "midi": 55,
      "hit": false,
      "t": 184235.20199999923,
      "d": 33.088218749995576,
      "v": 82
    },
    {
      "midi": 43,
      "hit": false,
      "t": 184411.67249999923,
      "d": 33.088218749995576,
      "v": 50
    },
    {
      "midi": 55,
      "hit": false,
      "t": 184577.11359374985,
      "d": 253.6763437500049,
      "v": 32
    },
    {
      "midi": 55,
      "hit": false,
      "t": 184584.46653124923,
      "d": 36.76468749999185,
      "v": 83
    },
    {
      "midi": 67,
      "hit": false,
      "t": 184753.58409374984,
      "d": 139.70581250000396,
      "v": 45
    },
    {
      "midi": 55,
      "hit": false,
      "t": 184764.61349999922,
      "d": 33.088218749995576,
      "v": 83
    },
    {
      "midi": 43,
      "hit": false,
      "t": 184941.08399999922,
      "d": 33.088218749995576,
      "v": 50
    },
    {
      "midi": 55,
      "hit": false,
      "t": 185117.5544999992,
      "d": 36.76468749999185,
      "v": 82
    },
    {
      "midi": 55,
      "hit": false,
      "t": 185294.0249999992,
      "d": 36.76468749999185,
      "v": 83
    },
    {
      "midi": 43,
      "hit": false,
      "t": 185470.4954999992,
      "d": 33.088218749995576,
      "v": 50
    },
    {
      "midi": 55,
      "hit": false,
      "t": 185646.9659999992,
      "d": 36.76468749999185,
      "v": 83
    },
    {
      "midi": 55,
      "hit": false,
      "t": 185823.4364999992,
      "d": 36.76468749999185,
      "v": 83
    },
    {
      "midi": 57,
      "hit": false,
      "t": 185996.23053124984,
      "d": 84.55878125000163,
      "v": 115
    },
    {
      "midi": 41,
      "hit": false,
      "t": 185996.23053124984,
      "d": 113.97053125000093,
      "v": 114
    },
    {
      "midi": 53,
      "hit": false,
      "t": 185996.23053124984,
      "d": 117.6469999999972,
      "v": 110
    },
    {
      "midi": 43,
      "hit": false,
      "t": 185999.9069999992,
      "d": 33.088218749995576,
      "v": 50
    },
    {
      "midi": 55,
      "hit": false,
      "t": 186176.3774999992,
      "d": 36.76468749999185,
      "v": 83
    },
    {
      "midi": 55,
      "hit": false,
      "t": 186349.17153124983,
      "d": 84.55878125000163,
      "v": 115
    },
    {
      "midi": 58,
      "hit": false,
      "t": 186349.17153124983,
      "d": 95.58818749999045,
      "v": 114
    },
    {
      "midi": 43,
      "hit": false,
      "t": 186349.17153124983,
      "d": 99.26465624998673,
      "v": 116
    },
    {
      "midi": 55,
      "hit": false,
      "t": 186352.84799999918,
      "d": 36.76468749999185,
      "v": 82
    },
    {
      "midi": 43,
      "hit": false,
      "t": 186529.31849999918,
      "d": 33.088218749995576,
      "v": 50
    },
    {
      "midi": 55,
      "hit": false,
      "t": 186702.11253124918,
      "d": 36.76468749999185,
      "v": 83
    },
    {
      "midi": 55,
      "hit": false,
      "t": 186705.78899999982,
      "d": 95.58818749999045,
      "v": 49
    },
    {
      "midi": 55,
      "hit": false,
      "t": 186882.25949999917,
      "d": 36.76468749999185,
      "v": 83
    },
    {
      "midi": 55,
      "hit": false,
      "t": 186882.2594999998,
      "d": 117.6469999999972,
      "v": 38
    },
    {
      "midi": 43,
      "hit": false,
      "t": 187058.72999999917,
      "d": 33.088218749995576,
      "v": 50
    },
    {
      "midi": 55,
      "hit": false,
      "t": 187235.20049999916,
      "d": 33.088218749995576,
      "v": 82
    },
    {
      "midi": 55,
      "hit": false,
      "t": 187411.67099999916,
      "d": 36.76468749999185,
      "v": 83
    },
    {
      "midi": 43,
      "hit": false,
      "t": 187588.14149999915,
      "d": 33.088218749995576,
      "v": 51
    },
    {
      "midi": 55,
      "hit": false,
      "t": 187764.61199999915,
      "d": 36.76468749999185,
      "v": 82
    },
    {
      "midi": 46,
      "hit": false,
      "t": 187764.61199999982,
      "d": 113.97053125000093,
      "v": 76
    },
    {
      "midi": 55,
      "hit": false,
      "t": 187941.08249999915,
      "d": 36.76468749999185,
      "v": 82
    },
    {
      "midi": 43,
      "hit": false,
      "t": 188117.55299999914,
      "d": 33.088218749995576,
      "v": 51
    },
    {
      "midi": 55,
      "hit": false,
      "t": 188294.02349999914,
      "d": 36.76468749999185,
      "v": 82
    },
    {
      "midi": 46,
      "hit": false,
      "t": 188294.0234999998,
      "d": 136.02934375000768,
      "v": 85
    },
    {
      "midi": 55,
      "hit": false,
      "t": 188470.49399999913,
      "d": 36.76468749999185,
      "v": 83
    },
    {
      "midi": 43,
      "hit": false,
      "t": 188646.96449999913,
      "d": 33.088218749995576,
      "v": 51
    },
    {
      "midi": 46,
      "hit": false,
      "t": 188646.96449999983,
      "d": 55.14703125000233,
      "v": 91
    },
    {
      "midi": 55,
      "hit": false,
      "t": 188823.43499999912,
      "d": 36.76468749999185,
      "v": 82
    },
    {
      "midi": 46,
      "hit": false,
      "t": 188992.55256249983,
      "d": 110.29406250000466,
      "v": 94
    },
    {
      "midi": 55,
      "hit": false,
      "t": 188999.90549999912,
      "d": 36.76468749999185,
      "v": 83
    },
    {
      "midi": 43,
      "hit": false,
      "t": 189176.37599999912,
      "d": 33.088218749995576,
      "v": 50
    },
    {
      "midi": 48,
      "hit": false,
      "t": 189176.37599999984,
      "d": 290.44103124999674,
      "v": 103
    },
    {
      "midi": 55,
      "hit": false,
      "t": 189352.8464999991,
      "d": 33.088218749995576,
      "v": 82
    },
    {
      "midi": 55,
      "hit": false,
      "t": 189529.3169999991,
      "d": 33.088218749995576,
      "v": 83
    },
    {
      "midi": 36,
      "hit": false,
      "t": 189529.31699999984,
      "d": 44.117625000013504,
      "v": 80
    },
    {
      "midi": 43,
      "hit": false,
      "t": 189705.7874999991,
      "d": 33.088218749995576,
      "v": 51
    },
    {
      "midi": 48,
      "hit": false,
      "t": 189705.78749999986,
      "d": 73.5293750000128,
      "v": 104
    },
    {
      "midi": 55,
      "hit": false,
      "t": 189885.9344687491,
      "d": 33.088218749995576,
      "v": 82
    },
    {
      "midi": 55,
      "hit": false,
      "t": 190058.7284999991,
      "d": 33.088218749995576,
      "v": 82
    },
    {
      "midi": 43,
      "hit": false,
      "t": 190235.1989999991,
      "d": 33.088218749995576,
      "v": 51
    },
    {
      "midi": 55,
      "hit": false,
      "t": 190415.34596874908,
      "d": 33.088218749995576,
      "v": 83
    },
    {
      "midi": 55,
      "hit": false,
      "t": 190591.81646874908,
      "d": 33.088218749995576,
      "v": 82
    },
    {
      "midi": 43,
      "hit": false,
      "t": 190764.61049999908,
      "d": 33.088218749995576,
      "v": 50
    },
    {
      "midi": 55,
      "hit": false,
      "t": 190944.75746874907,
      "d": 33.088218749995576,
      "v": 83
    },
    {
      "midi": 55,
      "hit": false,
      "t": 191121.22796874907,
      "d": 33.088218749995576,
      "v": 82
    },
    {
      "midi": 43,
      "hit": false,
      "t": 191294.02199999907,
      "d": 33.088218749995576,
      "v": 51
    },
    {
      "midi": 55,
      "hit": false,
      "t": 191474.16896874906,
      "d": 33.088218749995576,
      "v": 83
    },
    {
      "midi": 55,
      "hit": false,
      "t": 191650.63946874905,
      "d": 33.088218749995576,
      "v": 82
    },
    {
      "midi": 43,
      "hit": false,
      "t": 191823.43349999905,
      "d": 33.088218749995576,
      "v": 51
    },
    {
      "midi": 55,
      "hit": false,
      "t": 192003.58046874905,
      "d": 33.088218749995576,
      "v": 82
    },
    {
      "midi": 55,
      "hit": false,
      "t": 192180.05096874904,
      "d": 33.088218749995576,
      "v": 82
    },
    {
      "midi": 43,
      "hit": false,
      "t": 192352.84499999904,
      "d": 33.088218749995576,
      "v": 51
    },
    {
      "midi": 55,
      "hit": false,
      "t": 192352.84499999988,
      "d": 95.58818749999045,
      "v": 49
    },
    {
      "midi": 55,
      "hit": false,
      "t": 192529.31549999988,
      "d": 117.6469999999972,
      "v": 38
    },
    {
      "midi": 55,
      "hit": false,
      "t": 192532.99196874903,
      "d": 33.088218749995576,
      "v": 83
    },
    {
      "midi": 55,
      "hit": false,
      "t": 192709.46246874903,
      "d": 33.088218749995576,
      "v": 82
    },
    {
      "midi": 43,
      "hit": false,
      "t": 192882.25649999903,
      "d": 33.088218749995576,
      "v": 50
    },
    {
      "midi": 55,
      "hit": false,
      "t": 193062.40346874902,
      "d": 33.088218749995576,
      "v": 83
    },
    {
      "midi": 55,
      "hit": false,
      "t": 193235.19749999902,
      "d": 33.088218749995576,
      "v": 83
    },
    {
      "midi": 43,
      "hit": false,
      "t": 193411.66799999902,
      "d": 33.088218749995576,
      "v": 50
    },
    {
      "midi": 46,
      "hit": false,
      "t": 193411.6679999999,
      "d": 113.97053125000093,
      "v": 77
    },
    {
      "midi": 55,
      "hit": false,
      "t": 193588.138499999,
      "d": 33.088218749995576,
      "v": 82
    },
    {
      "midi": 55,
      "hit": false,
      "t": 193764.608999999,
      "d": 33.088218749995576,
      "v": 83
    },
    {
      "midi": 43,
      "hit": false,
      "t": 193941.079499999,
      "d": 33.088218749995576,
      "v": 50
    },
    {
      "midi": 46,
      "hit": false,
      "t": 193941.07949999988,
      "d": 136.02934375000768,
      "v": 84
    },
    {
      "midi": 55,
      "hit": false,
      "t": 194117.549999999,
      "d": 33.088218749995576,
      "v": 83
    },
    {
      "midi": 55,
      "hit": false,
      "t": 194294.020499999,
      "d": 33.088218749995576,
      "v": 83
    },
    {
      "midi": 46,
      "hit": false,
      "t": 194294.0204999999,
      "d": 55.14703125000233,
      "v": 90
    },
    {
      "midi": 43,
      "hit": false,
      "t": 194470.490999999,
      "d": 33.088218749995576,
      "v": 50
    },
    {
      "midi": 46,
      "hit": false,
      "t": 194639.6085624999,
      "d": 110.29406250000466,
      "v": 95
    },
    {
      "midi": 55,
      "hit": false,
      "t": 194646.961499999,
      "d": 33.088218749995576,
      "v": 83
    },
    {
      "midi": 55,
      "hit": false,
      "t": 194823.43199999898,
      "d": 33.088218749995576,
      "v": 82
    },
    {
      "midi": 36,
      "hit": false,
      "t": 194823.4319999999,
      "d": 397.0586250000051,
      "v": 105
    },
    {
      "midi": 55,
      "hit": false,
      "t": 194856.5202187499,
      "d": 3.6764687499962747,
      "v": 104
    },
    {
      "midi": 60,
      "hit": false,
      "t": 194860.1966874999,
      "d": 345.58806249999907,
      "v": 110
    },
    {
      "midi": 64,
      "hit": false,
      "t": 194863.8731562499,
      "d": 360.29393750001327,
      "v": 105
    },
    {
      "midi": 43,
      "hit": false,
      "t": 194999.90249999898,
      "d": 33.088218749995576,
      "v": 50
    },
    {
      "midi": 55,
      "hit": false,
      "t": 195169.0200624999,
      "d": 301.47043749998556,
      "v": 106
    },
    {
      "midi": 55,
      "hit": false,
      "t": 195176.37299999897,
      "d": 33.088218749995576,
      "v": 83
    },
    {
      "midi": 67,
      "hit": false,
      "t": 195349.1670312499,
      "d": 143.38228125000023,
      "v": 117
    },
    {
      "midi": 55,
      "hit": false,
      "t": 195352.84349999897,
      "d": 33.088218749995576,
      "v": 83
    },
    {
      "midi": 43,
      "hit": false,
      "t": 195529.31399999897,
      "d": 33.088218749995576,
      "v": 50
    },
    {
      "midi": 55,
      "hit": false,
      "t": 195705.78449999896,
      "d": 33.088218749995576,
      "v": 82
    },
    {
      "midi": 55,
      "hit": false,
      "t": 195871.2255937499,
      "d": 253.6763437500049,
      "v": 32
    },
    {
      "midi": 55,
      "hit": false,
      "t": 195882.25499999896,
      "d": 33.088218749995576,
      "v": 83
    },
    {
      "midi": 67,
      "hit": false,
      "t": 196047.6960937499,
      "d": 139.70581250000396,
      "v": 45
    },
    {
      "midi": 43,
      "hit": false,
      "t": 196058.72549999895,
      "d": 33.088218749995576,
      "v": 51
    },
    {
      "midi": 55,
      "hit": false,
      "t": 196235.19599999895,
      "d": 33.088218749995576,
      "v": 82
    },
    {
      "midi": 55,
      "hit": false,
      "t": 196411.66649999894,
      "d": 33.088218749995576,
      "v": 82
    },
    {
      "midi": 43,
      "hit": false,
      "t": 196588.13699999894,
      "d": 33.088218749995576,
      "v": 51
    },
    {
      "midi": 55,
      "hit": false,
      "t": 196764.60749999894,
      "d": 33.088218749995576,
      "v": 82
    },
    {
      "midi": 55,
      "hit": false,
      "t": 196941.07799999893,
      "d": 33.088218749995576,
      "v": 83
    },
    {
      "midi": 43,
      "hit": false,
      "t": 197117.54849999893,
      "d": 33.088218749995576,
      "v": 51
    },
    {
      "midi": 55,
      "hit": false,
      "t": 197290.34253124893,
      "d": 33.088218749995576,
      "v": 82
    },
    {
      "midi": 57,
      "hit": false,
      "t": 197290.3425312499,
      "d": 84.55878125000163,
      "v": 114
    },
    {
      "midi": 41,
      "hit": false,
      "t": 197290.3425312499,
      "d": 113.97053125000093,
      "v": 115
    },
    {
      "midi": 53,
      "hit": false,
      "t": 197290.3425312499,
      "d": 117.6469999999972,
      "v": 110
    },
    {
      "midi": 55,
      "hit": false,
      "t": 197466.81303124892,
      "d": 33.088218749995576,
      "v": 83
    },
    {
      "midi": 55,
      "hit": false,
      "t": 197643.28353124988,
      "d": 84.55878125000163,
      "v": 114
    },
    {
      "midi": 58,
      "hit": false,
      "t": 197643.28353124988,
      "d": 95.58818749999045,
      "v": 115
    },
    {
      "midi": 43,
      "hit": false,
      "t": 197643.28353124988,
      "d": 99.26465624998673,
      "v": 117
    },
    {
      "midi": 55,
      "hit": false,
      "t": 197646.95999999892,
      "d": 33.088218749995576,
      "v": 82
    },
    {
      "midi": 43,
      "hit": false,
      "t": 197823.4304999989,
      "d": 33.088218749995576,
      "v": 50
    },
    {
      "midi": 55,
      "hit": false,
      "t": 197999.9009999989,
      "d": 33.088218749995576,
      "v": 83
    },
    {
      "midi": 55,
      "hit": false,
      "t": 197999.90099999987,
      "d": 95.58818749999045,
      "v": 74
    },
    {
      "midi": 55,
      "hit": false,
      "t": 198176.3714999989,
      "d": 33.088218749995576,
      "v": 83
    },
    {
      "midi": 43,
      "hit": false,
      "t": 198352.8419999989,
      "d": 33.088218749995576,
      "v": 50
    },
    {
      "midi": 55,
      "hit": false,
      "t": 198352.84199999986,
      "d": 117.6469999999972,
      "v": 48
    },
    {
      "midi": 55,
      "hit": false,
      "t": 198529.3124999989,
      "d": 33.088218749995576,
      "v": 82
    },
    {
      "midi": 55,
      "hit": false,
      "t": 198705.7829999989,
      "d": 33.088218749995576,
      "v": 83
    },
    {
      "midi": 55,
      "hit": false,
      "t": 198705.78299999985,
      "d": 117.6469999999972,
      "v": 27
    },
    {
      "midi": 43,
      "hit": false,
      "t": 198882.2534999989,
      "d": 33.088218749995576,
      "v": 51
    },
    {
      "midi": 55,
      "hit": false,
      "t": 199058.72399999888,
      "d": 33.088218749995576,
      "v": 82
    },
    {
      "midi": 55,
      "hit": false,
      "t": 199235.19449999888,
      "d": 33.088218749995576,
      "v": 82
    },
    {
      "midi": 43,
      "hit": false,
      "t": 199411.66499999887,
      "d": 33.088218749995576,
      "v": 51
    },
    {
      "midi": 55,
      "hit": false,
      "t": 199588.13549999887,
      "d": 33.088218749995576,
      "v": 82
    },
    {
      "midi": 55,
      "hit": false,
      "t": 199764.60599999886,
      "d": 33.088218749995576,
      "v": 83
    },
    {
      "midi": 43,
      "hit": false,
      "t": 199941.07649999886,
      "d": 33.088218749995576,
      "v": 51
    },
    {
      "midi": 55,
      "hit": false,
      "t": 200113.87053124886,
      "d": 33.088218749995576,
      "v": 82
    },
    {
      "midi": 55,
      "hit": false,
      "t": 200290.34103124886,
      "d": 33.088218749995576,
      "v": 83
    },
    {
      "midi": 43,
      "hit": false,
      "t": 206117.54399999886,
      "d": 40.441156249988126,
      "v": 80
    },
    {
      "midi": 53,
      "hit": false,
      "t": 206117.54400000002,
      "d": 772.0584375000035,
      "v": 125
    },
    {
      "midi": 58,
      "hit": false,
      "t": 206117.54400000002,
      "d": 794.1172500000102,
      "v": 106
    },
    {
      "midi": 43,
      "hit": false,
      "t": 206117.54400000002,
      "d": 834.5584062499984,
      "v": 113
    },
    {
      "midi": 55,
      "hit": false,
      "t": 206294.01449999886,
      "d": 40.441156249988126,
      "v": 44
    },
    {
      "midi": 43,
      "hit": false,
      "t": 206470.48499999885,
      "d": 40.441156249988126,
      "v": 73
    },
    {
      "midi": 43,
      "hit": false,
      "t": 206646.95549999885,
      "d": 40.441156249988126,
      "v": 89
    },
    {
      "midi": 43,
      "hit": false,
      "t": 206823.42599999884,
      "d": 40.441156249988126,
      "v": 34
    },
    {
      "midi": 55,
      "hit": false,
      "t": 206999.89649999884,
      "d": 40.441156249988126,
      "v": 70
    },
    {
      "midi": 43,
      "hit": false,
      "t": 207176.36699999883,
      "d": 40.441156249988126,
      "v": 71
    },
    {
      "midi": 58,
      "hit": false,
      "t": 207176.36700000003,
      "d": 1705.8814999999886,
      "v": 106
    },
    {
      "midi": 36,
      "hit": false,
      "t": 207176.36700000003,
      "d": 1709.5579687499849,
      "v": 113
    },
    {
      "midi": 52,
      "hit": false,
      "t": 207176.36700000003,
      "d": 1716.9109062499774,
      "v": 108
    },
    {
      "midi": 43,
      "hit": false,
      "t": 207352.83749999883,
      "d": 40.441156249988126,
      "v": 69
    },
    {
      "midi": 43,
      "hit": false,
      "t": 207529.30799999883,
      "d": 40.441156249988126,
      "v": 50
    },
    {
      "midi": 55,
      "hit": false,
      "t": 207705.77849999882,
      "d": 40.441156249988126,
      "v": 82
    },
    {
      "midi": 55,
      "hit": false,
      "t": 207882.24899999882,
      "d": 40.441156249988126,
      "v": 69
    },
    {
      "midi": 43,
      "hit": false,
      "t": 208058.7194999988,
      "d": 40.441156249988126,
      "v": 70
    },
    {
      "midi": 55,
      "hit": false,
      "t": 208235.1899999988,
      "d": 40.441156249988126,
      "v": 57
    },
    {
      "midi": 43,
      "hit": false,
      "t": 208411.6604999988,
      "d": 40.441156249988126,
      "v": 61
    },
    {
      "midi": 55,
      "hit": false,
      "t": 208588.1309999988,
      "d": 40.441156249988126,
      "v": 52
    },
    {
      "midi": 43,
      "hit": false,
      "t": 208764.6014999988,
      "d": 40.441156249988126,
      "v": 51
    },
    {
      "midi": 55,
      "hit": false,
      "t": 208941.0719999988,
      "d": 40.441156249988126,
      "v": 46
    },
    {
      "midi": 53,
      "hit": false,
      "t": 208941.07200000001,
      "d": 713.2349375000049,
      "v": 121
    },
    {
      "midi": 60,
      "hit": false,
      "t": 208941.07200000001,
      "d": 727.9408125000191,
      "v": 112
    },
    {
      "midi": 38,
      "hit": false,
      "t": 208941.07200000001,
      "d": 749.9996250000258,
      "v": 101
    },
    {
      "midi": 43,
      "hit": false,
      "t": 209117.5424999988,
      "d": 40.441156249988126,
      "v": 40
    },
    {
      "midi": 43,
      "hit": false,
      "t": 209294.01299999878,
      "d": 40.441156249988126,
      "v": 69
    },
    {
      "midi": 43,
      "hit": false,
      "t": 209470.48349999878,
      "d": 40.441156249988126,
      "v": 79
    },
    {
      "midi": 43,
      "hit": false,
      "t": 209646.95399999878,
      "d": 40.441156249988126,
      "v": 70
    },
    {
      "midi": 55,
      "hit": false,
      "t": 209823.42449999877,
      "d": 40.441156249988126,
      "v": 68
    },
    {
      "midi": 53,
      "hit": false,
      "t": 209996.21853125005,
      "d": 1404.411062500003,
      "v": 108
    },
    {
      "midi": 58,
      "hit": false,
      "t": 209996.21853125005,
      "d": 1426.4698750000098,
      "v": 112
    },
    {
      "midi": 43,
      "hit": false,
      "t": 209996.21853125005,
      "d": 1448.5286875000165,
      "v": 111
    },
    {
      "midi": 43,
      "hit": false,
      "t": 209999.89499999877,
      "d": 40.441156249988126,
      "v": 77
    },
    {
      "midi": 43,
      "hit": false,
      "t": 210176.36549999876,
      "d": 40.441156249988126,
      "v": 57
    },
    {
      "midi": 55,
      "hit": false,
      "t": 210352.83599999876,
      "d": 40.441156249988126,
      "v": 72
    },
    {
      "midi": 43,
      "hit": false,
      "t": 210529.30649999875,
      "d": 40.441156249988126,
      "v": 86
    },
    {
      "midi": 43,
      "hit": false,
      "t": 210705.77699999875,
      "d": 40.441156249988126,
      "v": 73
    },
    {
      "midi": 55,
      "hit": false,
      "t": 210882.24749999875,
      "d": 40.441156249988126,
      "v": 70
    },
    {
      "midi": 43,
      "hit": false,
      "t": 211058.71799999874,
      "d": 40.441156249988126,
      "v": 73
    },
    {
      "midi": 55,
      "hit": false,
      "t": 211235.18849999874,
      "d": 40.441156249988126,
      "v": 71
    },
    {
      "midi": 43,
      "hit": false,
      "t": 211411.65899999873,
      "d": 40.441156249988126,
      "v": 82
    },
    {
      "midi": 43,
      "hit": false,
      "t": 211588.12949999873,
      "d": 40.441156249988126,
      "v": 63
    },
    {
      "midi": 58,
      "hit": false,
      "t": 211760.92353125007,
      "d": 849.2642812499835,
      "v": 101
    },
    {
      "midi": 43,
      "hit": false,
      "t": 211764.59999999873,
      "d": 40.441156249988126,
      "v": 80
    },
    {
      "midi": 43,
      "hit": false,
      "t": 211764.60000000006,
      "d": 816.1760624999879,
      "v": 109
    },
    {
      "midi": 53,
      "hit": false,
      "t": 211764.60000000006,
      "d": 827.2054687499767,
      "v": 112
    },
    {
      "midi": 55,
      "hit": false,
      "t": 211941.07049999872,
      "d": 40.441156249988126,
      "v": 44
    },
    {
      "midi": 43,
      "hit": false,
      "t": 212117.54099999872,
      "d": 40.441156249988126,
      "v": 73
    },
    {
      "midi": 43,
      "hit": false,
      "t": 212294.0114999987,
      "d": 40.441156249988126,
      "v": 89
    },
    {
      "midi": 43,
      "hit": false,
      "t": 212470.4819999987,
      "d": 40.441156249988126,
      "v": 34
    },
    {
      "midi": 55,
      "hit": false,
      "t": 212646.9524999987,
      "d": 40.441156249988126,
      "v": 70
    },
    {
      "midi": 52,
      "hit": false,
      "t": 212819.74653125004,
      "d": 1349.2640312500007,
      "v": 119
    },
    {
      "midi": 58,
      "hit": false,
      "t": 212819.74653125004,
      "d": 1389.7051874999888,
      "v": 113
    },
    {
      "midi": 36,
      "hit": false,
      "t": 212819.74653125004,
      "d": 1422.7934062499844,
      "v": 96
    },
    {
      "midi": 43,
      "hit": false,
      "t": 212823.4229999987,
      "d": 40.441156249988126,
      "v": 71
    },
    {
      "midi": 43,
      "hit": false,
      "t": 212999.8934999987,
      "d": 40.441156249988126,
      "v": 69
    },
    {
      "midi": 43,
      "hit": false,
      "t": 213176.3639999987,
      "d": 40.441156249988126,
      "v": 50
    },
    {
      "midi": 55,
      "hit": false,
      "t": 213352.8344999987,
      "d": 40.441156249988126,
      "v": 82
    },
    {
      "midi": 55,
      "hit": false,
      "t": 213529.30499999868,
      "d": 40.441156249988126,
      "v": 69
    },
    {
      "midi": 43,
      "hit": false,
      "t": 213705.77549999868,
      "d": 40.441156249988126,
      "v": 70
    },
    {
      "midi": 55,
      "hit": false,
      "t": 213882.24599999867,
      "d": 40.441156249988126,
      "v": 57
    },
    {
      "midi": 43,
      "hit": false,
      "t": 214058.71649999867,
      "d": 40.441156249988126,
      "v": 61
    },
    {
      "midi": 55,
      "hit": false,
      "t": 214235.18699999867,
      "d": 40.441156249988126,
      "v": 52
    },
    {
      "midi": 43,
      "hit": false,
      "t": 214411.65749999866,
      "d": 40.441156249988126,
      "v": 51
    },
    {
      "midi": 55,
      "hit": false,
      "t": 214588.12799999866,
      "d": 40.441156249988126,
      "v": 46
    },
    {
      "midi": 53,
      "hit": false,
      "t": 214588.12800000003,
      "d": 606.6173437499965,
      "v": 118
    },
    {
      "midi": 38,
      "hit": false,
      "t": 214588.12800000003,
      "d": 639.7055624999921,
      "v": 116
    },
    {
      "midi": 60,
      "hit": false,
      "t": 214588.12800000003,
      "d": 647.0584999999846,
      "v": 111
    },
    {
      "midi": 43,
      "hit": false,
      "t": 214764.59849999865,
      "d": 40.441156249988126,
      "v": 40
    },
    {
      "midi": 43,
      "hit": false,
      "t": 214941.06899999865,
      "d": 40.441156249988126,
      "v": 69
    },
    {
      "midi": 43,
      "hit": false,
      "t": 215117.53949999865,
      "d": 40.441156249988126,
      "v": 79
    },
    {
      "midi": 43,
      "hit": false,
      "t": 215294.00999999864,
      "d": 40.441156249988126,
      "v": 70
    },
    {
      "midi": 55,
      "hit": false,
      "t": 215470.48049999864,
      "d": 40.441156249988126,
      "v": 68
    },
    {
      "midi": 55,
      "hit": false,
      "t": 215643.27453125,
      "d": 1514.7051250000077,
      "v": 117
    },
    {
      "midi": 58,
      "hit": false,
      "t": 215643.27453125,
      "d": 1525.7345312499965,
      "v": 121
    },
    {
      "midi": 43,
      "hit": false,
      "t": 215643.27453125,
      "d": 1547.7933437500033,
      "v": 108
    },
    {
      "midi": 43,
      "hit": false,
      "t": 215646.95099999863,
      "d": 40.441156249988126,
      "v": 77
    },
    {
      "midi": 43,
      "hit": false,
      "t": 215823.42149999863,
      "d": 40.441156249988126,
      "v": 57
    },
    {
      "midi": 55,
      "hit": false,
      "t": 215999.89199999862,
      "d": 40.441156249988126,
      "v": 72
    },
    {
      "midi": 43,
      "hit": false,
      "t": 216176.36249999862,
      "d": 40.441156249988126,
      "v": 86
    },
    {
      "midi": 43,
      "hit": false,
      "t": 216352.83299999862,
      "d": 40.441156249988126,
      "v": 73
    },
    {
      "midi": 55,
      "hit": false,
      "t": 216529.3034999986,
      "d": 40.441156249988126,
      "v": 70
    },
    {
      "midi": 43,
      "hit": false,
      "t": 216705.7739999986,
      "d": 40.441156249988126,
      "v": 73
    },
    {
      "midi": 55,
      "hit": false,
      "t": 216882.2444999986,
      "d": 40.441156249988126,
      "v": 71
    },
    {
      "midi": 43,
      "hit": false,
      "t": 217058.7149999986,
      "d": 40.441156249988126,
      "v": 82
    },
    {
      "midi": 43,
      "hit": false,
      "t": 217235.1854999986,
      "d": 40.441156249988126,
      "v": 63
    },
    {
      "midi": 43,
      "hit": false,
      "t": 217411.6559999986,
      "d": 40.441156249988126,
      "v": 80
    },
    {
      "midi": 53,
      "hit": false,
      "t": 217411.65600000002,
      "d": 772.0584375000035,
      "v": 125
    },
    {
      "midi": 58,
      "hit": false,
      "t": 217411.65600000002,
      "d": 794.1172500000102,
      "v": 106
    },
    {
      "midi": 43,
      "hit": false,
      "t": 217411.65600000002,
      "d": 834.5584062499984,
      "v": 112
    },
    {
      "midi": 55,
      "hit": false,
      "t": 217588.1264999986,
      "d": 40.441156249988126,
      "v": 44
    },
    {
      "midi": 43,
      "hit": false,
      "t": 217764.59699999858,
      "d": 40.441156249988126,
      "v": 73
    },
    {
      "midi": 43,
      "hit": false,
      "t": 217941.06749999858,
      "d": 40.441156249988126,
      "v": 89
    },
    {
      "midi": 43,
      "hit": false,
      "t": 218117.53799999857,
      "d": 40.441156249988126,
      "v": 34
    },
    {
      "midi": 55,
      "hit": false,
      "t": 218294.00849999857,
      "d": 40.441156249988126,
      "v": 70
    },
    {
      "midi": 43,
      "hit": false,
      "t": 218470.47899999857,
      "d": 40.441156249988126,
      "v": 71
    },
    {
      "midi": 58,
      "hit": false,
      "t": 218470.47900000002,
      "d": 1705.8814999999886,
      "v": 107
    },
    {
      "midi": 36,
      "hit": false,
      "t": 218470.47900000002,
      "d": 1709.5579687499849,
      "v": 113
    },
    {
      "midi": 52,
      "hit": false,
      "t": 218470.47900000002,
      "d": 1716.9109062499774,
      "v": 108
    },
    {
      "midi": 43,
      "hit": false,
      "t": 218646.94949999856,
      "d": 40.441156249988126,
      "v": 69
    },
    {
      "midi": 43,
      "hit": false,
      "t": 218823.41999999856,
      "d": 40.441156249988126,
      "v": 50
    },
    {
      "midi": 55,
      "hit": false,
      "t": 218999.89049999855,
      "d": 40.441156249988126,
      "v": 82
    },
    {
      "midi": 55,
      "hit": false,
      "t": 219176.36099999855,
      "d": 40.441156249988126,
      "v": 69
    },
    {
      "midi": 43,
      "hit": false,
      "t": 219352.83149999855,
      "d": 40.441156249988126,
      "v": 70
    },
    {
      "midi": 55,
      "hit": false,
      "t": 219529.30199999854,
      "d": 40.441156249988126,
      "v": 57
    },
    {
      "midi": 43,
      "hit": false,
      "t": 219705.77249999854,
      "d": 40.441156249988126,
      "v": 61
    },
    {
      "midi": 55,
      "hit": false,
      "t": 219882.24299999853,
      "d": 40.441156249988126,
      "v": 52
    },
    {
      "midi": 43,
      "hit": false,
      "t": 220058.71349999853,
      "d": 40.441156249988126,
      "v": 51
    },
    {
      "midi": 55,
      "hit": false,
      "t": 220235.18399999852,
      "d": 40.441156249988126,
      "v": 46
    },
    {
      "midi": 53,
      "hit": false,
      "t": 220235.184,
      "d": 713.2349375000049,
      "v": 120
    },
    {
      "midi": 60,
      "hit": false,
      "t": 220235.184,
      "d": 727.9408125000191,
      "v": 113
    },
    {
      "midi": 38,
      "hit": false,
      "t": 220235.184,
      "d": 749.9996250000258,
      "v": 100
    },
    {
      "midi": 43,
      "hit": false,
      "t": 220411.65449999852,
      "d": 40.441156249988126,
      "v": 40
    },
    {
      "midi": 43,
      "hit": false,
      "t": 220588.12499999852,
      "d": 40.441156249988126,
      "v": 69
    },
    {
      "midi": 43,
      "hit": false,
      "t": 220764.5954999985,
      "d": 40.441156249988126,
      "v": 79
    },
    {
      "midi": 43,
      "hit": false,
      "t": 220941.0659999985,
      "d": 40.441156249988126,
      "v": 70
    },
    {
      "midi": 55,
      "hit": false,
      "t": 221117.5364999985,
      "d": 40.441156249988126,
      "v": 68
    },
    {
      "midi": 53,
      "hit": false,
      "t": 221290.33053125005,
      "d": 1404.411062500003,
      "v": 108
    },
    {
      "midi": 58,
      "hit": false,
      "t": 221290.33053125005,
      "d": 1426.4698750000098,
      "v": 112
    },
    {
      "midi": 43,
      "hit": false,
      "t": 221290.33053125005,
      "d": 1448.5286875000165,
      "v": 111
    },
    {
      "midi": 43,
      "hit": false,
      "t": 221294.0069999985,
      "d": 40.441156249988126,
      "v": 77
    },
    {
      "midi": 43,
      "hit": false,
      "t": 221470.4774999985,
      "d": 40.441156249988126,
      "v": 57
    },
    {
      "midi": 55,
      "hit": false,
      "t": 221646.9479999985,
      "d": 40.441156249988126,
      "v": 72
    },
    {
      "midi": 43,
      "hit": false,
      "t": 221823.4184999985,
      "d": 40.441156249988126,
      "v": 86
    },
    {
      "midi": 43,
      "hit": false,
      "t": 221999.88899999848,
      "d": 40.441156249988126,
      "v": 73
    },
    {
      "midi": 55,
      "hit": false,
      "t": 222176.35949999848,
      "d": 40.441156249988126,
      "v": 70
    },
    {
      "midi": 43,
      "hit": false,
      "t": 222352.82999999847,
      "d": 40.441156249988126,
      "v": 73
    },
    {
      "midi": 55,
      "hit": false,
      "t": 222529.30049999847,
      "d": 40.441156249988126,
      "v": 71
    },
    {
      "midi": 43,
      "hit": false,
      "t": 222705.77099999847,
      "d": 40.441156249988126,
      "v": 82
    },
    {
      "midi": 43,
      "hit": false,
      "t": 222882.24149999846,
      "d": 40.441156249988126,
      "v": 63
    },
    {
      "midi": 58,
      "hit": false,
      "t": 223055.03553125006,
      "d": 849.2642812499835,
      "v": 101
    },
    {
      "midi": 43,
      "hit": false,
      "t": 223058.71199999846,
      "d": 40.441156249988126,
      "v": 80
    },
    {
      "midi": 43,
      "hit": false,
      "t": 223058.71200000006,
      "d": 816.1760624999879,
      "v": 108
    },
    {
      "midi": 53,
      "hit": false,
      "t": 223058.71200000006,
      "d": 827.2054687499767,
      "v": 113
    },
    {
      "midi": 55,
      "hit": false,
      "t": 223235.18249999845,
      "d": 40.441156249988126,
      "v": 44
    },
    {
      "midi": 43,
      "hit": false,
      "t": 223411.65299999845,
      "d": 40.441156249988126,
      "v": 73
    },
    {
      "midi": 43,
      "hit": false,
      "t": 223588.12349999844,
      "d": 40.441156249988126,
      "v": 89
    },
    {
      "midi": 43,
      "hit": false,
      "t": 223764.59399999844,
      "d": 40.441156249988126,
      "v": 34
    },
    {
      "midi": 55,
      "hit": false,
      "t": 223941.06449999844,
      "d": 40.441156249988126,
      "v": 70
    },
    {
      "midi": 52,
      "hit": false,
      "t": 224113.85853125004,
      "d": 1349.2640312500007,
      "v": 118
    },
    {
      "midi": 58,
      "hit": false,
      "t": 224113.85853125004,
      "d": 1389.7051874999888,
      "v": 113
    },
    {
      "midi": 36,
      "hit": false,
      "t": 224113.85853125004,
      "d": 1422.7934062499844,
      "v": 97
    },
    {
      "midi": 43,
      "hit": false,
      "t": 224117.53499999843,
      "d": 40.441156249988126,
      "v": 71
    },
    {
      "midi": 43,
      "hit": false,
      "t": 224294.00549999843,
      "d": 40.441156249988126,
      "v": 69
    },
    {
      "midi": 43,
      "hit": false,
      "t": 224470.47599999842,
      "d": 40.441156249988126,
      "v": 50
    },
    {
      "midi": 55,
      "hit": false,
      "t": 224646.94649999842,
      "d": 40.441156249988126,
      "v": 82
    },
    {
      "midi": 55,
      "hit": false,
      "t": 224823.41699999842,
      "d": 40.441156249988126,
      "v": 69
    },
    {
      "midi": 43,
      "hit": false,
      "t": 224999.8874999984,
      "d": 40.441156249988126,
      "v": 70
    },
    {
      "midi": 55,
      "hit": false,
      "t": 225176.3579999984,
      "d": 40.441156249988126,
      "v": 57
    },
    {
      "midi": 43,
      "hit": false,
      "t": 225352.8284999984,
      "d": 40.441156249988126,
      "v": 61
    },
    {
      "midi": 55,
      "hit": false,
      "t": 225529.2989999984,
      "d": 40.441156249988126,
      "v": 52
    },
    {
      "midi": 43,
      "hit": false,
      "t": 225705.7694999984,
      "d": 40.441156249988126,
      "v": 51
    },
    {
      "midi": 55,
      "hit": false,
      "t": 225882.2399999984,
      "d": 40.441156249988126,
      "v": 46
    },
    {
      "midi": 53,
      "hit": false,
      "t": 225882.24000000002,
      "d": 606.6173437499965,
      "v": 118
    },
    {
      "midi": 38,
      "hit": false,
      "t": 225882.24000000002,
      "d": 639.7055624999921,
      "v": 116
    },
    {
      "midi": 60,
      "hit": false,
      "t": 225882.24000000002,
      "d": 647.0584999999846,
      "v": 111
    },
    {
      "midi": 43,
      "hit": false,
      "t": 226058.7104999984,
      "d": 40.441156249988126,
      "v": 40
    },
    {
      "midi": 43,
      "hit": false,
      "t": 226235.18099999838,
      "d": 40.441156249988126,
      "v": 69
    },
    {
      "midi": 43,
      "hit": false,
      "t": 226411.65149999838,
      "d": 40.441156249988126,
      "v": 79
    },
    {
      "midi": 43,
      "hit": false,
      "t": 226588.12199999837,
      "d": 40.441156249988126,
      "v": 70
    },
    {
      "midi": 55,
      "hit": false,
      "t": 226764.59249999837,
      "d": 40.441156249988126,
      "v": 68
    },
    {
      "midi": 55,
      "hit": false,
      "t": 226937.38653125,
      "d": 1514.7051250000077,
      "v": 116
    },
    {
      "midi": 58,
      "hit": false,
      "t": 226937.38653125,
      "d": 1525.7345312499965,
      "v": 120
    },
    {
      "midi": 43,
      "hit": false,
      "t": 226937.38653125,
      "d": 1547.7933437500033,
      "v": 109
    },
    {
      "midi": 43,
      "hit": false,
      "t": 226941.06299999836,
      "d": 40.441156249988126,
      "v": 77
    },
    {
      "midi": 43,
      "hit": false,
      "t": 227117.53349999836,
      "d": 40.441156249988126,
      "v": 57
    },
    {
      "midi": 55,
      "hit": false,
      "t": 227294.00399999836,
      "d": 40.441156249988126,
      "v": 72
    },
    {
      "midi": 43,
      "hit": false,
      "t": 227470.47449999835,
      "d": 40.441156249988126,
      "v": 86
    },
    {
      "midi": 43,
      "hit": false,
      "t": 227646.94499999835,
      "d": 40.441156249988126,
      "v": 73
    },
    {
      "midi": 55,
      "hit": false,
      "t": 227823.41549999834,
      "d": 40.441156249988126,
      "v": 70
    },
    {
      "midi": 43,
      "hit": false,
      "t": 227999.88599999834,
      "d": 40.441156249988126,
      "v": 73
    },
    {
      "midi": 55,
      "hit": false,
      "t": 228176.35649999834,
      "d": 40.441156249988126,
      "v": 71
    },
    {
      "midi": 43,
      "hit": false,
      "t": 228352.82699999833,
      "d": 40.441156249988126,
      "v": 82
    },
    {
      "midi": 43,
      "hit": false,
      "t": 228529.29749999833,
      "d": 40.441156249988126,
      "v": 63
    },
    {
      "midi": 43,
      "hit": false,
      "t": 228705.76799999832,
      "d": 40.441156249988126,
      "v": 80
    },
    {
      "midi": 43,
      "hit": false,
      "t": 228705.768,
      "d": 816.1760624999879,
      "v": 109
    },
    {
      "midi": 53,
      "hit": false,
      "t": 228705.768,
      "d": 827.2054687499767,
      "v": 113
    },
    {
      "midi": 55,
      "hit": false,
      "t": 228882.23849999832,
      "d": 40.441156249988126,
      "v": 44
    },
    {
      "midi": 43,
      "hit": false,
      "t": 229058.7089999983,
      "d": 40.441156249988126,
      "v": 73
    },
    {
      "midi": 43,
      "hit": false,
      "t": 229235.1794999983,
      "d": 40.441156249988126,
      "v": 89
    },
    {
      "midi": 43,
      "hit": false,
      "t": 229411.6499999983,
      "d": 40.441156249988126,
      "v": 34
    },
    {
      "midi": 55,
      "hit": false,
      "t": 229588.1204999983,
      "d": 40.441156249988126,
      "v": 70
    },
    {
      "midi": 52,
      "hit": false,
      "t": 229760.91453125,
      "d": 1349.2640312500007,
      "v": 118
    },
    {
      "midi": 58,
      "hit": false,
      "t": 229760.91453125,
      "d": 1389.7051874999888,
      "v": 113
    },
    {
      "midi": 36,
      "hit": false,
      "t": 229760.91453125,
      "d": 1422.7934062499844,
      "v": 96
    },
    {
      "midi": 43,
      "hit": false,
      "t": 229764.5909999983,
      "d": 40.441156249988126,
      "v": 71
    },
    {
      "midi": 43,
      "hit": false,
      "t": 229941.0614999983,
      "d": 40.441156249988126,
      "v": 69
    },
    {
      "midi": 43,
      "hit": false,
      "t": 230117.5319999983,
      "d": 40.441156249988126,
      "v": 50
    },
    {
      "midi": 55,
      "hit": false,
      "t": 230294.00249999829,
      "d": 40.441156249988126,
      "v": 82
    },
    {
      "midi": 55,
      "hit": false,
      "t": 230470.47299999828,
      "d": 40.441156249988126,
      "v": 69
    },
    {
      "midi": 43,
      "hit": false,
      "t": 230646.94349999828,
      "d": 40.441156249988126,
      "v": 70
    },
    {
      "midi": 55,
      "hit": false,
      "t": 230823.41399999827,
      "d": 40.441156249988126,
      "v": 57
    },
    {
      "midi": 43,
      "hit": false,
      "t": 230999.88449999827,
      "d": 40.441156249988126,
      "v": 61
    },
    {
      "midi": 55,
      "hit": false,
      "t": 231176.35499999826,
      "d": 40.441156249988126,
      "v": 52
    },
    {
      "midi": 43,
      "hit": false,
      "t": 231352.82549999826,
      "d": 40.441156249988126,
      "v": 51
    },
    {
      "midi": 55,
      "hit": false,
      "t": 231529.29599999826,
      "d": 40.441156249988126,
      "v": 46
    },
    {
      "midi": 53,
      "hit": false,
      "t": 231529.29599999997,
      "d": 606.6173437499965,
      "v": 119
    },
    {
      "midi": 38,
      "hit": false,
      "t": 231529.29599999997,
      "d": 639.7055624999921,
      "v": 116
    },
    {
      "midi": 60,
      "hit": false,
      "t": 231529.29599999997,
      "d": 647.0584999999846,
      "v": 111
    },
    {
      "midi": 43,
      "hit": false,
      "t": 231705.76649999825,
      "d": 40.441156249988126,
      "v": 40
    },
    {
      "midi": 43,
      "hit": false,
      "t": 231882.23699999825,
      "d": 40.441156249988126,
      "v": 69
    },
    {
      "midi": 43,
      "hit": false,
      "t": 232058.70749999824,
      "d": 40.441156249988126,
      "v": 79
    },
    {
      "midi": 43,
      "hit": false,
      "t": 232235.17799999824,
      "d": 40.441156249988126,
      "v": 70
    },
    {
      "midi": 55,
      "hit": false,
      "t": 232411.64849999823,
      "d": 40.441156249988126,
      "v": 68
    },
    {
      "midi": 55,
      "hit": false,
      "t": 232584.44253124995,
      "d": 1514.7051250000077,
      "v": 117
    },
    {
      "midi": 58,
      "hit": false,
      "t": 232584.44253124995,
      "d": 1525.7345312499965,
      "v": 120
    },
    {
      "midi": 43,
      "hit": false,
      "t": 232584.44253124995,
      "d": 1547.7933437500033,
      "v": 108
    },
    {
      "midi": 43,
      "hit": false,
      "t": 232588.11899999823,
      "d": 40.441156249988126,
      "v": 77
    },
    {
      "midi": 43,
      "hit": false,
      "t": 232764.58949999823,
      "d": 40.441156249988126,
      "v": 57
    },
    {
      "midi": 55,
      "hit": false,
      "t": 232941.05999999822,
      "d": 40.441156249988126,
      "v": 72
    },
    {
      "midi": 43,
      "hit": false,
      "t": 233117.53049999822,
      "d": 40.441156249988126,
      "v": 86
    },
    {
      "midi": 43,
      "hit": false,
      "t": 233294.0009999982,
      "d": 40.441156249988126,
      "v": 73
    },
    {
      "midi": 55,
      "hit": false,
      "t": 233470.4714999982,
      "d": 40.441156249988126,
      "v": 70
    },
    {
      "midi": 43,
      "hit": false,
      "t": 233646.9419999982,
      "d": 40.441156249988126,
      "v": 73
    },
    {
      "midi": 55,
      "hit": false,
      "t": 233823.4124999982,
      "d": 40.441156249988126,
      "v": 71
    },
    {
      "midi": 43,
      "hit": false,
      "t": 233999.8829999982,
      "d": 40.441156249988126,
      "v": 82
    },
    {
      "midi": 43,
      "hit": false,
      "t": 234176.3534999982,
      "d": 40.441156249988126,
      "v": 63
    },
    {
      "midi": 43,
      "hit": false,
      "t": 234352.8239999982,
      "d": 40.441156249988126,
      "v": 80
    },
    {
      "midi": 43,
      "hit": false,
      "t": 234352.82399999996,
      "d": 816.1760624999879,
      "v": 108
    },
    {
      "midi": 53,
      "hit": false,
      "t": 234352.82399999996,
      "d": 827.2054687499767,
      "v": 113
    },
    {
      "midi": 55,
      "hit": false,
      "t": 234529.29449999818,
      "d": 40.441156249988126,
      "v": 44
    },
    {
      "midi": 43,
      "hit": false,
      "t": 234705.76499999818,
      "d": 40.441156249988126,
      "v": 73
    },
    {
      "midi": 43,
      "hit": false,
      "t": 234882.23549999818,
      "d": 40.441156249988126,
      "v": 89
    },
    {
      "midi": 43,
      "hit": false,
      "t": 235058.70599999817,
      "d": 40.441156249988126,
      "v": 34
    },
    {
      "midi": 55,
      "hit": false,
      "t": 235235.17649999817,
      "d": 40.441156249988126,
      "v": 70
    },
    {
      "midi": 52,
      "hit": false,
      "t": 235407.97053124994,
      "d": 1349.2640312500007,
      "v": 118
    },
    {
      "midi": 58,
      "hit": false,
      "t": 235407.97053124994,
      "d": 1389.7051874999888,
      "v": 112
    },
    {
      "midi": 36,
      "hit": false,
      "t": 235407.97053124994,
      "d": 1422.7934062499844,
      "v": 97
    },
    {
      "midi": 43,
      "hit": false,
      "t": 235411.64699999816,
      "d": 40.441156249988126,
      "v": 71
    },
    {
      "midi": 43,
      "hit": false,
      "t": 235588.11749999816,
      "d": 40.441156249988126,
      "v": 69
    },
    {
      "midi": 43,
      "hit": false,
      "t": 235764.58799999816,
      "d": 40.441156249988126,
      "v": 50
    },
    {
      "midi": 55,
      "hit": false,
      "t": 235941.05849999815,
      "d": 40.441156249988126,
      "v": 82
    },
    {
      "midi": 55,
      "hit": false,
      "t": 236117.52899999815,
      "d": 40.441156249988126,
      "v": 69
    },
    {
      "midi": 43,
      "hit": false,
      "t": 236293.99949999814,
      "d": 40.441156249988126,
      "v": 70
    },
    {
      "midi": 55,
      "hit": false,
      "t": 236470.46999999814,
      "d": 40.441156249988126,
      "v": 57
    },
    {
      "midi": 43,
      "hit": false,
      "t": 236646.94049999813,
      "d": 40.441156249988126,
      "v": 61
    },
    {
      "midi": 55,
      "hit": false,
      "t": 236823.41099999813,
      "d": 40.441156249988126,
      "v": 52
    },
    {
      "midi": 43,
      "hit": false,
      "t": 236999.88149999813,
      "d": 40.441156249988126,
      "v": 51
    },
    {
      "midi": 55,
      "hit": false,
      "t": 237176.35199999812,
      "d": 40.441156249988126,
      "v": 46
    },
    {
      "midi": 53,
      "hit": false,
      "t": 237176.35199999993,
      "d": 606.6173437499965,
      "v": 119
    },
    {
      "midi": 38,
      "hit": false,
      "t": 237176.35199999993,
      "d": 639.7055624999921,
      "v": 117
    },
    {
      "midi": 60,
      "hit": false,
      "t": 237176.35199999993,
      "d": 647.0584999999846,
      "v": 110
    },
    {
      "midi": 43,
      "hit": false,
      "t": 237352.82249999812,
      "d": 40.441156249988126,
      "v": 40
    },
    {
      "midi": 43,
      "hit": false,
      "t": 237529.2929999981,
      "d": 40.441156249988126,
      "v": 69
    },
    {
      "midi": 43,
      "hit": false,
      "t": 237705.7634999981,
      "d": 40.441156249988126,
      "v": 79
    },
    {
      "midi": 43,
      "hit": false,
      "t": 237882.2339999981,
      "d": 40.441156249988126,
      "v": 70
    },
    {
      "midi": 55,
      "hit": false,
      "t": 238058.7044999981,
      "d": 40.441156249988126,
      "v": 68
    },
    {
      "midi": 55,
      "hit": false,
      "t": 238231.4985312499,
      "d": 1514.7051250000077,
      "v": 117
    },
    {
      "midi": 58,
      "hit": false,
      "t": 238231.4985312499,
      "d": 1525.7345312499965,
      "v": 120
    },
    {
      "midi": 43,
      "hit": false,
      "t": 238231.4985312499,
      "d": 1547.7933437500033,
      "v": 108
    },
    {
      "midi": 43,
      "hit": false,
      "t": 238235.1749999981,
      "d": 40.441156249988126,
      "v": 77
    },
    {
      "midi": 43,
      "hit": false,
      "t": 238411.6454999981,
      "d": 40.441156249988126,
      "v": 57
    },
    {
      "midi": 55,
      "hit": false,
      "t": 238588.1159999981,
      "d": 40.441156249988126,
      "v": 72
    },
    {
      "midi": 43,
      "hit": false,
      "t": 238764.58649999808,
      "d": 40.441156249988126,
      "v": 86
    },
    {
      "midi": 43,
      "hit": false,
      "t": 238941.05699999808,
      "d": 40.441156249988126,
      "v": 73
    },
    {
      "midi": 55,
      "hit": false,
      "t": 239117.52749999808,
      "d": 40.441156249988126,
      "v": 70
    },
    {
      "midi": 43,
      "hit": false,
      "t": 239293.99799999807,
      "d": 40.441156249988126,
      "v": 73
    },
    {
      "midi": 55,
      "hit": false,
      "t": 239470.46849999807,
      "d": 40.441156249988126,
      "v": 71
    },
    {
      "midi": 43,
      "hit": false,
      "t": 239646.93899999806,
      "d": 40.441156249988126,
      "v": 82
    },
    {
      "midi": 43,
      "hit": false,
      "t": 239823.40949999806,
      "d": 40.441156249988126,
      "v": 63
    },
    {
      "midi": 43,
      "hit": false,
      "t": 239999.87999999805,
      "d": 40.441156249988126,
      "v": 80
    },
    {
      "midi": 43,
      "hit": false,
      "t": 239999.87999999992,
      "d": 816.1760624999879,
      "v": 109
    },
    {
      "midi": 53,
      "hit": false,
      "t": 239999.87999999992,
      "d": 827.2054687499767,
      "v": 113
    },
    {
      "midi": 55,
      "hit": false,
      "t": 240176.35049999805,
      "d": 40.441156249988126,
      "v": 44
    },
    {
      "midi": 43,
      "hit": false,
      "t": 240352.82099999805,
      "d": 40.441156249988126,
      "v": 73
    },
    {
      "midi": 43,
      "hit": false,
      "t": 240529.29149999804,
      "d": 40.441156249988126,
      "v": 89
    },
    {
      "midi": 43,
      "hit": false,
      "t": 240705.76199999804,
      "d": 40.441156249988126,
      "v": 34
    },
    {
      "midi": 55,
      "hit": false,
      "t": 240882.23249999803,
      "d": 40.441156249988126,
      "v": 70
    },
    {
      "midi": 52,
      "hit": false,
      "t": 241055.0265312499,
      "d": 1349.2640312500007,
      "v": 119
    },
    {
      "midi": 58,
      "hit": false,
      "t": 241055.0265312499,
      "d": 1389.7051874999888,
      "v": 112
    },
    {
      "midi": 36,
      "hit": false,
      "t": 241055.0265312499,
      "d": 1422.7934062499844,
      "v": 96
    },
    {
      "midi": 43,
      "hit": false,
      "t": 241058.70299999803,
      "d": 40.441156249988126,
      "v": 71
    },
    {
      "midi": 43,
      "hit": false,
      "t": 241235.17349999803,
      "d": 40.441156249988126,
      "v": 69
    },
    {
      "midi": 43,
      "hit": false,
      "t": 241411.64399999802,
      "d": 40.441156249988126,
      "v": 50
    },
    {
      "midi": 55,
      "hit": false,
      "t": 241588.11449999802,
      "d": 40.441156249988126,
      "v": 82
    },
    {
      "midi": 55,
      "hit": false,
      "t": 241764.584999998,
      "d": 40.441156249988126,
      "v": 69
    },
    {
      "midi": 43,
      "hit": false,
      "t": 241941.055499998,
      "d": 40.441156249988126,
      "v": 70
    },
    {
      "midi": 55,
      "hit": false,
      "t": 242117.525999998,
      "d": 40.441156249988126,
      "v": 57
    },
    {
      "midi": 43,
      "hit": false,
      "t": 242293.996499998,
      "d": 40.441156249988126,
      "v": 61
    },
    {
      "midi": 55,
      "hit": false,
      "t": 242470.466999998,
      "d": 40.441156249988126,
      "v": 52
    },
    {
      "midi": 43,
      "hit": false,
      "t": 242646.937499998,
      "d": 40.441156249988126,
      "v": 51
    },
    {
      "midi": 55,
      "hit": false,
      "t": 242823.407999998,
      "d": 40.441156249988126,
      "v": 46
    },
    {
      "midi": 53,
      "hit": false,
      "t": 242823.40799999988,
      "d": 606.6173437499965,
      "v": 119
    },
    {
      "midi": 38,
      "hit": false,
      "t": 242823.40799999988,
      "d": 639.7055624999921,
      "v": 116
    },
    {
      "midi": 60,
      "hit": false,
      "t": 242823.40799999988,
      "d": 647.0584999999846,
      "v": 111
    },
    {
      "midi": 43,
      "hit": false,
      "t": 242999.87849999798,
      "d": 40.441156249988126,
      "v": 40
    },
    {
      "midi": 43,
      "hit": false,
      "t": 243176.34899999798,
      "d": 40.441156249988126,
      "v": 69
    },
    {
      "midi": 43,
      "hit": false,
      "t": 243352.81949999798,
      "d": 40.441156249988126,
      "v": 79
    },
    {
      "midi": 43,
      "hit": false,
      "t": 243529.28999999797,
      "d": 40.441156249988126,
      "v": 70
    },
    {
      "midi": 55,
      "hit": false,
      "t": 243705.76049999797,
      "d": 40.441156249988126,
      "v": 68
    },
    {
      "midi": 55,
      "hit": false,
      "t": 243878.55453124986,
      "d": 1514.7051250000077,
      "v": 116
    },
    {
      "midi": 58,
      "hit": false,
      "t": 243878.55453124986,
      "d": 1525.7345312499965,
      "v": 121
    },
    {
      "midi": 43,
      "hit": false,
      "t": 243878.55453124986,
      "d": 1547.7933437500033,
      "v": 108
    },
    {
      "midi": 43,
      "hit": false,
      "t": 243882.23099999796,
      "d": 40.441156249988126,
      "v": 77
    },
    {
      "midi": 43,
      "hit": false,
      "t": 244058.70149999796,
      "d": 40.441156249988126,
      "v": 57
    },
    {
      "midi": 55,
      "hit": false,
      "t": 244235.17199999795,
      "d": 40.441156249988126,
      "v": 72
    },
    {
      "midi": 43,
      "hit": false,
      "t": 244411.64249999795,
      "d": 40.441156249988126,
      "v": 86
    },
    {
      "midi": 43,
      "hit": false,
      "t": 244588.11299999795,
      "d": 40.441156249988126,
      "v": 73
    },
    {
      "midi": 55,
      "hit": false,
      "t": 244764.58349999794,
      "d": 40.441156249988126,
      "v": 70
    },
    {
      "midi": 43,
      "hit": false,
      "t": 244941.05399999794,
      "d": 40.441156249988126,
      "v": 73
    },
    {
      "midi": 55,
      "hit": false,
      "t": 245117.52449999793,
      "d": 40.441156249988126,
      "v": 71
    },
    {
      "midi": 43,
      "hit": false,
      "t": 245293.99499999793,
      "d": 40.441156249988126,
      "v": 82
    },
    {
      "midi": 43,
      "hit": false,
      "t": 245470.46549999792,
      "d": 40.441156249988126,
      "v": 63
    },
    {
      "midi": 43,
      "hit": false,
      "t": 245646.93599999792,
      "d": 40.441156249988126,
      "v": 80
    },
    {
      "midi": 53,
      "hit": false,
      "t": 245646.93599999987,
      "d": 775.7349062499998,
      "v": 124
    },
    {
      "midi": 58,
      "hit": false,
      "t": 245646.93599999987,
      "d": 794.1172500000102,
      "v": 106
    },
    {
      "midi": 43,
      "hit": false,
      "t": 245646.93599999987,
      "d": 834.5584062499984,
      "v": 113
    },
    {
      "midi": 55,
      "hit": false,
      "t": 245823.40649999792,
      "d": 40.441156249988126,
      "v": 44
    },
    {
      "midi": 43,
      "hit": false,
      "t": 245999.8769999979,
      "d": 40.441156249988126,
      "v": 73
    },
    {
      "midi": 43,
      "hit": false,
      "t": 246176.3474999979,
      "d": 40.441156249988126,
      "v": 89
    },
    {
      "midi": 43,
      "hit": false,
      "t": 246352.8179999979,
      "d": 40.441156249988126,
      "v": 34
    },
    {
      "midi": 55,
      "hit": false,
      "t": 246529.2884999979,
      "d": 40.441156249988126,
      "v": 70
    },
    {
      "midi": 43,
      "hit": false,
      "t": 246705.7589999979,
      "d": 40.441156249988126,
      "v": 71
    },
    {
      "midi": 58,
      "hit": false,
      "t": 246705.75899999987,
      "d": 1705.8814999999886,
      "v": 107
    },
    {
      "midi": 36,
      "hit": false,
      "t": 246705.75899999987,
      "d": 1709.5579687499849,
      "v": 112
    },
    {
      "midi": 52,
      "hit": false,
      "t": 246705.75899999987,
      "d": 1716.9109062499774,
      "v": 109
    },
    {
      "midi": 43,
      "hit": false,
      "t": 246882.2294999979,
      "d": 40.441156249988126,
      "v": 69
    },
    {
      "midi": 43,
      "hit": false,
      "t": 247058.6999999979,
      "d": 40.441156249988126,
      "v": 50
    },
    {
      "midi": 55,
      "hit": false,
      "t": 247235.17049999788,
      "d": 40.441156249988126,
      "v": 82
    },
    {
      "midi": 55,
      "hit": false,
      "t": 247411.64099999788,
      "d": 40.441156249988126,
      "v": 69
    },
    {
      "midi": 43,
      "hit": false,
      "t": 247588.11149999787,
      "d": 40.441156249988126,
      "v": 70
    },
    {
      "midi": 55,
      "hit": false,
      "t": 247764.58199999787,
      "d": 40.441156249988126,
      "v": 57
    },
    {
      "midi": 43,
      "hit": false,
      "t": 247941.05249999787,
      "d": 40.441156249988126,
      "v": 61
    },
    {
      "midi": 55,
      "hit": false,
      "t": 248117.52299999786,
      "d": 40.441156249988126,
      "v": 52
    },
    {
      "midi": 43,
      "hit": false,
      "t": 248293.99349999786,
      "d": 40.441156249988126,
      "v": 51
    },
    {
      "midi": 55,
      "hit": false,
      "t": 248470.46399999785,
      "d": 40.441156249988126,
      "v": 46
    },
    {
      "midi": 53,
      "hit": false,
      "t": 248470.46399999986,
      "d": 713.2349375000049,
      "v": 120
    },
    {
      "midi": 60,
      "hit": false,
      "t": 248470.46399999986,
      "d": 727.9408125000191,
      "v": 113
    },
    {
      "midi": 38,
      "hit": false,
      "t": 248470.46399999986,
      "d": 749.9996250000258,
      "v": 101
    },
    {
      "midi": 43,
      "hit": false,
      "t": 248646.93449999785,
      "d": 40.441156249988126,
      "v": 40
    },
    {
      "midi": 43,
      "hit": false,
      "t": 248823.40499999785,
      "d": 40.441156249988126,
      "v": 69
    },
    {
      "midi": 43,
      "hit": false,
      "t": 248999.87549999784,
      "d": 40.441156249988126,
      "v": 79
    },
    {
      "midi": 43,
      "hit": false,
      "t": 249176.34599999784,
      "d": 40.441156249988126,
      "v": 70
    },
    {
      "midi": 55,
      "hit": false,
      "t": 249352.81649999783,
      "d": 40.441156249988126,
      "v": 68
    },
    {
      "midi": 53,
      "hit": false,
      "t": 249525.6105312499,
      "d": 1404.411062500003,
      "v": 108
    },
    {
      "midi": 58,
      "hit": false,
      "t": 249525.6105312499,
      "d": 1426.4698750000098,
      "v": 113
    },
    {
      "midi": 43,
      "hit": false,
      "t": 249525.6105312499,
      "d": 1448.5286875000165,
      "v": 110
    },
    {
      "midi": 43,
      "hit": false,
      "t": 249529.28699999783,
      "d": 40.441156249988126,
      "v": 77
    },
    {
      "midi": 43,
      "hit": false,
      "t": 249705.75749999782,
      "d": 40.441156249988126,
      "v": 57
    },
    {
      "midi": 55,
      "hit": false,
      "t": 249882.22799999782,
      "d": 40.441156249988126,
      "v": 72
    },
    {
      "midi": 43,
      "hit": false,
      "t": 250058.69849999782,
      "d": 40.441156249988126,
      "v": 86
    },
    {
      "midi": 43,
      "hit": false,
      "t": 250235.1689999978,
      "d": 40.441156249988126,
      "v": 73
    },
    {
      "midi": 55,
      "hit": false,
      "t": 250411.6394999978,
      "d": 40.441156249988126,
      "v": 70
    },
    {
      "midi": 43,
      "hit": false,
      "t": 250588.1099999978,
      "d": 40.441156249988126,
      "v": 73
    },
    {
      "midi": 55,
      "hit": false,
      "t": 250764.5804999978,
      "d": 40.441156249988126,
      "v": 71
    },
    {
      "midi": 43,
      "hit": false,
      "t": 250941.0509999978,
      "d": 40.441156249988126,
      "v": 82
    },
    {
      "midi": 43,
      "hit": false,
      "t": 251117.5214999978,
      "d": 40.441156249988126,
      "v": 63
    },
    {
      "midi": 58,
      "hit": false,
      "t": 251290.31553124991,
      "d": 849.2642812499835,
      "v": 101
    },
    {
      "midi": 43,
      "hit": false,
      "t": 251293.9919999978,
      "d": 40.441156249988126,
      "v": 80
    },
    {
      "midi": 43,
      "hit": false,
      "t": 251293.9919999999,
      "d": 816.1760624999879,
      "v": 108
    },
    {
      "midi": 53,
      "hit": false,
      "t": 251293.9919999999,
      "d": 827.2054687499767,
      "v": 112
    },
    {
      "midi": 55,
      "hit": false,
      "t": 251470.46249999778,
      "d": 40.441156249988126,
      "v": 44
    },
    {
      "midi": 43,
      "hit": false,
      "t": 251646.93299999778,
      "d": 40.441156249988126,
      "v": 73
    },
    {
      "midi": 43,
      "hit": false,
      "t": 251823.40349999777,
      "d": 40.441156249988126,
      "v": 89
    },
    {
      "midi": 43,
      "hit": false,
      "t": 251999.87399999777,
      "d": 40.441156249988126,
      "v": 34
    },
    {
      "midi": 55,
      "hit": false,
      "t": 252176.34449999777,
      "d": 40.441156249988126,
      "v": 70
    },
    {
      "midi": 52,
      "hit": false,
      "t": 252349.1385312499,
      "d": 1349.2640312500007,
      "v": 119
    },
    {
      "midi": 58,
      "hit": false,
      "t": 252349.1385312499,
      "d": 1389.7051874999888,
      "v": 112
    },
    {
      "midi": 36,
      "hit": false,
      "t": 252349.1385312499,
      "d": 1422.7934062499844,
      "v": 97
    },
    {
      "midi": 43,
      "hit": false,
      "t": 252352.81499999776,
      "d": 40.441156249988126,
      "v": 71
    },
    {
      "midi": 43,
      "hit": false,
      "t": 252529.28549999776,
      "d": 40.441156249988126,
      "v": 69
    },
    {
      "midi": 43,
      "hit": false,
      "t": 252705.75599999775,
      "d": 40.441156249988126,
      "v": 50
    },
    {
      "midi": 55,
      "hit": false,
      "t": 252882.22649999775,
      "d": 40.441156249988126,
      "v": 82
    },
    {
      "midi": 55,
      "hit": false,
      "t": 253058.69699999774,
      "d": 40.441156249988126,
      "v": 69
    },
    {
      "midi": 43,
      "hit": false,
      "t": 253235.16749999774,
      "d": 40.441156249988126,
      "v": 70
    },
    {
      "midi": 55,
      "hit": false,
      "t": 253411.63799999774,
      "d": 40.441156249988126,
      "v": 57
    },
    {
      "midi": 43,
      "hit": false,
      "t": 253588.10849999773,
      "d": 40.441156249988126,
      "v": 61
    },
    {
      "midi": 55,
      "hit": false,
      "t": 253764.57899999773,
      "d": 40.441156249988126,
      "v": 52
    },
    {
      "midi": 43,
      "hit": false,
      "t": 253941.04949999772,
      "d": 40.441156249988126,
      "v": 51
    },
    {
      "midi": 55,
      "hit": false,
      "t": 254117.51999999772,
      "d": 40.441156249988126,
      "v": 46
    },
    {
      "midi": 53,
      "hit": false,
      "t": 254117.51999999987,
      "d": 606.6173437499965,
      "v": 119
    },
    {
      "midi": 38,
      "hit": false,
      "t": 254117.51999999987,
      "d": 639.7055624999921,
      "v": 116
    },
    {
      "midi": 60,
      "hit": false,
      "t": 254117.51999999987,
      "d": 647.0584999999846,
      "v": 110
    },
    {
      "midi": 43,
      "hit": false,
      "t": 254293.99049999772,
      "d": 40.441156249988126,
      "v": 40
    },
    {
      "midi": 43,
      "hit": false,
      "t": 254470.4609999977,
      "d": 40.441156249988126,
      "v": 69
    },
    {
      "midi": 43,
      "hit": false,
      "t": 254646.9314999977,
      "d": 40.441156249988126,
      "v": 79
    },
    {
      "midi": 43,
      "hit": false,
      "t": 254823.4019999977,
      "d": 40.441156249988126,
      "v": 70
    },
    {
      "midi": 55,
      "hit": false,
      "t": 254999.8724999977,
      "d": 40.441156249988126,
      "v": 68
    },
    {
      "midi": 55,
      "hit": false,
      "t": 255172.66653124985,
      "d": 1514.7051250000077,
      "v": 117
    },
    {
      "midi": 58,
      "hit": false,
      "t": 255172.66653124985,
      "d": 1525.7345312499965,
      "v": 120
    },
    {
      "midi": 43,
      "hit": false,
      "t": 255172.66653124985,
      "d": 1547.7933437500033,
      "v": 109
    },
    {
      "midi": 43,
      "hit": false,
      "t": 255176.3429999977,
      "d": 40.441156249988126,
      "v": 77
    },
    {
      "midi": 43,
      "hit": false,
      "t": 255352.8134999977,
      "d": 40.441156249988126,
      "v": 57
    },
    {
      "midi": 55,
      "hit": false,
      "t": 255529.2839999977,
      "d": 40.441156249988126,
      "v": 72
    },
    {
      "midi": 43,
      "hit": false,
      "t": 255705.75449999768,
      "d": 40.441156249988126,
      "v": 86
    },
    {
      "midi": 43,
      "hit": false,
      "t": 255882.22499999768,
      "d": 40.441156249988126,
      "v": 73
    },
    {
      "midi": 55,
      "hit": false,
      "t": 256058.69549999767,
      "d": 40.441156249988126,
      "v": 70
    },
    {
      "midi": 43,
      "hit": false,
      "t": 256235.16599999767,
      "d": 40.441156249988126,
      "v": 73
    },
    {
      "midi": 55,
      "hit": false,
      "t": 256411.63649999766,
      "d": 40.441156249988126,
      "v": 71
    },
    {
      "midi": 43,
      "hit": false,
      "t": 256588.10699999766,
      "d": 40.441156249988126,
      "v": 82
    },
    {
      "midi": 43,
      "hit": false,
      "t": 256764.57749999766,
      "d": 40.441156249988126,
      "v": 63
    },
    {
      "midi": 43,
      "hit": false,
      "t": 256941.04799999765,
      "d": 40.441156249988126,
      "v": 80
    },
    {
      "midi": 43,
      "hit": false,
      "t": 256941.04799999986,
      "d": 816.1760624999879,
      "v": 109
    },
    {
      "midi": 53,
      "hit": false,
      "t": 256941.04799999986,
      "d": 827.2054687499767,
      "v": 112
    },
    {
      "midi": 55,
      "hit": false,
      "t": 257117.51849999765,
      "d": 40.441156249988126,
      "v": 44
    },
    {
      "midi": 43,
      "hit": false,
      "t": 257293.98899999764,
      "d": 40.441156249988126,
      "v": 73
    },
    {
      "midi": 43,
      "hit": false,
      "t": 257470.45949999764,
      "d": 40.441156249988126,
      "v": 89
    },
    {
      "midi": 43,
      "hit": false,
      "t": 257646.92999999764,
      "d": 40.441156249988126,
      "v": 34
    },
    {
      "midi": 55,
      "hit": false,
      "t": 257823.40049999763,
      "d": 40.441156249988126,
      "v": 70
    },
    {
      "midi": 52,
      "hit": false,
      "t": 257996.19453124984,
      "d": 1349.2640312500007,
      "v": 119
    },
    {
      "midi": 58,
      "hit": false,
      "t": 257996.19453124984,
      "d": 1389.7051874999888,
      "v": 113
    },
    {
      "midi": 36,
      "hit": false,
      "t": 257996.19453124984,
      "d": 1422.7934062499844,
      "v": 96
    },
    {
      "midi": 43,
      "hit": false,
      "t": 257999.87099999763,
      "d": 40.441156249988126,
      "v": 71
    },
    {
      "midi": 43,
      "hit": false,
      "t": 258176.34149999762,
      "d": 40.441156249988126,
      "v": 69
    },
    {
      "midi": 43,
      "hit": false,
      "t": 258352.81199999762,
      "d": 40.441156249988126,
      "v": 50
    },
    {
      "midi": 55,
      "hit": false,
      "t": 258529.28249999761,
      "d": 40.441156249988126,
      "v": 82
    },
    {
      "midi": 55,
      "hit": false,
      "t": 258705.7529999976,
      "d": 40.441156249988126,
      "v": 69
    },
    {
      "midi": 43,
      "hit": false,
      "t": 258882.2234999976,
      "d": 40.441156249988126,
      "v": 70
    },
    {
      "midi": 55,
      "hit": false,
      "t": 259058.6939999976,
      "d": 40.441156249988126,
      "v": 57
    },
    {
      "midi": 43,
      "hit": false,
      "t": 259235.1644999976,
      "d": 40.441156249988126,
      "v": 61
    },
    {
      "midi": 55,
      "hit": false,
      "t": 259411.6349999976,
      "d": 40.441156249988126,
      "v": 52
    },
    {
      "midi": 43,
      "hit": false,
      "t": 259588.1054999976,
      "d": 40.441156249988126,
      "v": 51
    },
    {
      "midi": 55,
      "hit": false,
      "t": 259764.57599999759,
      "d": 40.441156249988126,
      "v": 46
    },
    {
      "midi": 53,
      "hit": false,
      "t": 259764.57599999983,
      "d": 606.6173437499965,
      "v": 118
    },
    {
      "midi": 38,
      "hit": false,
      "t": 259764.57599999983,
      "d": 639.7055624999921,
      "v": 116
    },
    {
      "midi": 60,
      "hit": false,
      "t": 259764.57599999983,
      "d": 647.0584999999846,
      "v": 111
    },
    {
      "midi": 43,
      "hit": false,
      "t": 259941.04649999758,
      "d": 40.441156249988126,
      "v": 40
    },
    {
      "midi": 43,
      "hit": false,
      "t": 260117.51699999758,
      "d": 40.441156249988126,
      "v": 69
    },
    {
      "midi": 43,
      "hit": false,
      "t": 260293.98749999757,
      "d": 40.441156249988126,
      "v": 79
    },
    {
      "midi": 43,
      "hit": false,
      "t": 260470.45799999757,
      "d": 40.441156249988126,
      "v": 70
    },
    {
      "midi": 55,
      "hit": false,
      "t": 260646.92849999756,
      "d": 40.441156249988126,
      "v": 68
    },
    {
      "midi": 55,
      "hit": false,
      "t": 260819.7225312498,
      "d": 1514.7051249999786,
      "v": 116
    },
    {
      "midi": 58,
      "hit": false,
      "t": 260819.7225312498,
      "d": 1525.7345312499674,
      "v": 120
    },
    {
      "midi": 43,
      "hit": false,
      "t": 260819.7225312498,
      "d": 1547.793343749945,
      "v": 109
    },
    {
      "midi": 43,
      "hit": false,
      "t": 260823.39899999756,
      "d": 40.441156249988126,
      "v": 77
    },
    {
      "midi": 43,
      "hit": false,
      "t": 260999.86949999756,
      "d": 40.441156249988126,
      "v": 57
    },
    {
      "midi": 55,
      "hit": false,
      "t": 261176.33999999755,
      "d": 40.441156249988126,
      "v": 72
    },
    {
      "midi": 43,
      "hit": false,
      "t": 261352.81049999755,
      "d": 40.441156249988126,
      "v": 86
    },
    {
      "midi": 43,
      "hit": false,
      "t": 261529.28099999754,
      "d": 40.441156249988126,
      "v": 73
    },
    {
      "midi": 55,
      "hit": false,
      "t": 261705.75149999754,
      "d": 40.441156249988126,
      "v": 70
    },
    {
      "midi": 43,
      "hit": false,
      "t": 261882.22199999754,
      "d": 40.441156249988126,
      "v": 73
    },
    {
      "midi": 55,
      "hit": false,
      "t": 262058.69249999753,
      "d": 40.441156249988126,
      "v": 71
    },
    {
      "midi": 43,
      "hit": false,
      "t": 262235.1629999975,
      "d": 40.44115625001723,
      "v": 82
    },
    {
      "midi": 43,
      "hit": false,
      "t": 262411.6334999975,
      "d": 40.44115625001723,
      "v": 63
    },
    {
      "midi": 43,
      "hit": false,
      "t": 262588.1039999975,
      "d": 40.44115625001723,
      "v": 80
    },
    {
      "midi": 43,
      "hit": false,
      "t": 262588.10399999976,
      "d": 816.1760624999879,
      "v": 109
    },
    {
      "midi": 53,
      "hit": false,
      "t": 262588.10399999976,
      "d": 827.2054687499767,
      "v": 112
    },
    {
      "midi": 55,
      "hit": false,
      "t": 262764.5744999975,
      "d": 40.44115625001723,
      "v": 44
    },
    {
      "midi": 43,
      "hit": false,
      "t": 262941.0449999975,
      "d": 40.44115625001723,
      "v": 73
    },
    {
      "midi": 43,
      "hit": false,
      "t": 263117.5154999975,
      "d": 40.44115625001723,
      "v": 89
    },
    {
      "midi": 43,
      "hit": false,
      "t": 263293.9859999975,
      "d": 40.44115625001723,
      "v": 34
    },
    {
      "midi": 55,
      "hit": false,
      "t": 263470.45649999747,
      "d": 40.44115625001723,
      "v": 70
    },
    {
      "midi": 52,
      "hit": false,
      "t": 263643.25053124974,
      "d": 1349.2640312499716,
      "v": 119
    },
    {
      "midi": 58,
      "hit": false,
      "t": 263643.25053124974,
      "d": 1389.7051874999888,
      "v": 112
    },
    {
      "midi": 36,
      "hit": false,
      "t": 263643.25053124974,
      "d": 1422.7934062500135,
      "v": 97
    },
    {
      "midi": 43,
      "hit": false,
      "t": 263646.92699999746,
      "d": 40.44115625001723,
      "v": 71
    },
    {
      "midi": 43,
      "hit": false,
      "t": 263823.39749999746,
      "d": 40.44115625001723,
      "v": 69
    },
    {
      "midi": 43,
      "hit": false,
      "t": 263999.86799999746,
      "d": 40.44115625001723,
      "v": 50
    },
    {
      "midi": 55,
      "hit": false,
      "t": 264176.33849999745,
      "d": 40.44115625001723,
      "v": 82
    },
    {
      "midi": 55,
      "hit": false,
      "t": 264352.80899999745,
      "d": 40.44115625001723,
      "v": 69
    },
    {
      "midi": 43,
      "hit": false,
      "t": 264529.27949999744,
      "d": 40.44115625001723,
      "v": 70
    },
    {
      "midi": 55,
      "hit": false,
      "t": 264705.74999999744,
      "d": 40.44115625001723,
      "v": 57
    },
    {
      "midi": 43,
      "hit": false,
      "t": 264882.22049999743,
      "d": 40.44115625001723,
      "v": 61
    },
    {
      "midi": 55,
      "hit": false,
      "t": 265058.69099999743,
      "d": 40.44115625001723,
      "v": 52
    },
    {
      "midi": 43,
      "hit": false,
      "t": 265235.1614999974,
      "d": 40.44115625001723,
      "v": 51
    },
    {
      "midi": 55,
      "hit": false,
      "t": 265411.6319999974,
      "d": 40.44115625001723,
      "v": 46
    },
    {
      "midi": 53,
      "hit": false,
      "t": 265411.63199999975,
      "d": 606.6173437500256,
      "v": 118
    },
    {
      "midi": 38,
      "hit": false,
      "t": 265411.63199999975,
      "d": 639.7055625000503,
      "v": 117
    },
    {
      "midi": 60,
      "hit": false,
      "t": 265411.63199999975,
      "d": 647.0585000000428,
      "v": 110
    },
    {
      "midi": 43,
      "hit": false,
      "t": 265588.1024999974,
      "d": 40.44115625001723,
      "v": 40
    },
    {
      "midi": 43,
      "hit": false,
      "t": 265764.5729999974,
      "d": 40.44115625001723,
      "v": 69
    },
    {
      "midi": 43,
      "hit": false,
      "t": 265941.0434999974,
      "d": 40.44115625001723,
      "v": 79
    },
    {
      "midi": 43,
      "hit": false,
      "t": 266117.5139999974,
      "d": 40.44115625001723,
      "v": 70
    },
    {
      "midi": 55,
      "hit": false,
      "t": 266293.9844999974,
      "d": 40.44115625001723,
      "v": 68
    },
    {
      "midi": 55,
      "hit": false,
      "t": 266466.7785312498,
      "d": 1514.7051249999786,
      "v": 117
    },
    {
      "midi": 58,
      "hit": false,
      "t": 266466.7785312498,
      "d": 1525.7345312499674,
      "v": 120
    },
    {
      "midi": 43,
      "hit": false,
      "t": 266466.7785312498,
      "d": 1547.793343749945,
      "v": 109
    },
    {
      "midi": 43,
      "hit": false,
      "t": 266470.4549999974,
      "d": 40.44115625001723,
      "v": 77
    },
    {
      "midi": 43,
      "hit": false,
      "t": 266646.9254999974,
      "d": 40.44115625001723,
      "v": 57
    },
    {
      "midi": 55,
      "hit": false,
      "t": 266823.3959999974,
      "d": 40.44115625001723,
      "v": 72
    },
    {
      "midi": 43,
      "hit": false,
      "t": 266999.8664999974,
      "d": 40.44115625001723,
      "v": 86
    },
    {
      "midi": 43,
      "hit": false,
      "t": 267176.3369999974,
      "d": 40.44115625001723,
      "v": 73
    },
    {
      "midi": 55,
      "hit": false,
      "t": 267352.8074999974,
      "d": 40.44115625001723,
      "v": 70
    },
    {
      "midi": 43,
      "hit": false,
      "t": 267529.2779999974,
      "d": 40.44115625001723,
      "v": 73
    },
    {
      "midi": 55,
      "hit": false,
      "t": 267705.74849999737,
      "d": 40.44115625001723,
      "v": 71
    },
    {
      "midi": 43,
      "hit": false,
      "t": 267882.21899999736,
      "d": 40.44115625001723,
      "v": 82
    },
    {
      "midi": 43,
      "hit": false,
      "t": 268058.68949999736,
      "d": 40.44115625001723,
      "v": 63
    },
    {
      "midi": 43,
      "hit": false,
      "t": 268235.15999999736,
      "d": 40.44115625001723,
      "v": 80
    },
    {
      "midi": 43,
      "hit": false,
      "t": 268235.15999999974,
      "d": 816.1760624999879,
      "v": 108
    },
    {
      "midi": 53,
      "hit": false,
      "t": 268235.15999999974,
      "d": 827.2054687499767,
      "v": 113
    },
    {
      "midi": 55,
      "hit": false,
      "t": 268411.63049999735,
      "d": 40.44115625001723,
      "v": 44
    },
    {
      "midi": 43,
      "hit": false,
      "t": 268588.10099999735,
      "d": 40.44115625001723,
      "v": 73
    },
    {
      "midi": 43,
      "hit": false,
      "t": 268764.57149999734,
      "d": 40.44115625001723,
      "v": 89
    },
    {
      "midi": 43,
      "hit": false,
      "t": 268941.04199999734,
      "d": 40.44115625001723,
      "v": 34
    },
    {
      "midi": 55,
      "hit": false,
      "t": 269117.51249999733,
      "d": 40.44115625001723,
      "v": 70
    },
    {
      "midi": 52,
      "hit": false,
      "t": 269290.3065312497,
      "d": 1349.2640312499716,
      "v": 118
    },
    {
      "midi": 58,
      "hit": false,
      "t": 269290.3065312497,
      "d": 1389.7051874999888,
      "v": 112
    },
    {
      "midi": 36,
      "hit": false,
      "t": 269290.3065312497,
      "d": 1422.7934062500135,
      "v": 97
    },
    {
      "midi": 43,
      "hit": false,
      "t": 269293.98299999733,
      "d": 40.44115625001723,
      "v": 71
    },
    {
      "midi": 43,
      "hit": false,
      "t": 269470.4534999973,
      "d": 40.44115625001723,
      "v": 69
    },
    {
      "midi": 43,
      "hit": false,
      "t": 269646.9239999973,
      "d": 40.44115625001723,
      "v": 50
    },
    {
      "midi": 55,
      "hit": false,
      "t": 269823.3944999973,
      "d": 40.44115625001723,
      "v": 82
    },
    {
      "midi": 55,
      "hit": false,
      "t": 269999.8649999973,
      "d": 40.44115625001723,
      "v": 69
    },
    {
      "midi": 43,
      "hit": false,
      "t": 270176.3354999973,
      "d": 40.44115625001723,
      "v": 70
    },
    {
      "midi": 55,
      "hit": false,
      "t": 270352.8059999973,
      "d": 40.44115625001723,
      "v": 57
    },
    {
      "midi": 43,
      "hit": false,
      "t": 270529.2764999973,
      "d": 40.44115625001723,
      "v": 61
    },
    {
      "midi": 55,
      "hit": false,
      "t": 270705.7469999973,
      "d": 40.44115625001723,
      "v": 52
    },
    {
      "midi": 43,
      "hit": false,
      "t": 270882.2174999973,
      "d": 40.44115625001723,
      "v": 51
    },
    {
      "midi": 55,
      "hit": false,
      "t": 271058.6879999973,
      "d": 40.44115625001723,
      "v": 46
    },
    {
      "midi": 53,
      "hit": false,
      "t": 271058.68799999973,
      "d": 606.6173437500256,
      "v": 118
    },
    {
      "midi": 38,
      "hit": false,
      "t": 271058.68799999973,
      "d": 639.7055625000503,
      "v": 117
    },
    {
      "midi": 60,
      "hit": false,
      "t": 271058.68799999973,
      "d": 647.0585000000428,
      "v": 111
    },
    {
      "midi": 43,
      "hit": false,
      "t": 271235.1584999973,
      "d": 40.44115625001723,
      "v": 40
    },
    {
      "midi": 43,
      "hit": false,
      "t": 271411.6289999973,
      "d": 40.44115625001723,
      "v": 69
    },
    {
      "midi": 43,
      "hit": false,
      "t": 271588.0994999973,
      "d": 40.44115625001723,
      "v": 79
    },
    {
      "midi": 43,
      "hit": false,
      "t": 271764.5699999973,
      "d": 40.44115625001723,
      "v": 70
    },
    {
      "midi": 55,
      "hit": false,
      "t": 271941.04049999727,
      "d": 40.44115625001723,
      "v": 68
    },
    {
      "midi": 55,
      "hit": false,
      "t": 272113.83453124977,
      "d": 1514.7051249999786,
      "v": 116
    },
    {
      "midi": 58,
      "hit": false,
      "t": 272113.83453124977,
      "d": 1525.7345312499674,
      "v": 121
    },
    {
      "midi": 43,
      "hit": false,
      "t": 272113.83453124977,
      "d": 1547.793343749945,
      "v": 109
    },
    {
      "midi": 43,
      "hit": false,
      "t": 272117.51099999726,
      "d": 40.44115625001723,
      "v": 77
    },
    {
      "midi": 43,
      "hit": false,
      "t": 272293.98149999726,
      "d": 40.44115625001723,
      "v": 57
    },
    {
      "midi": 55,
      "hit": false,
      "t": 272470.45199999725,
      "d": 40.44115625001723,
      "v": 72
    },
    {
      "midi": 43,
      "hit": false,
      "t": 272646.92249999725,
      "d": 40.44115625001723,
      "v": 86
    },
    {
      "midi": 43,
      "hit": false,
      "t": 272823.39299999725,
      "d": 40.44115625001723,
      "v": 73
    },
    {
      "midi": 55,
      "hit": false,
      "t": 272999.86349999724,
      "d": 40.44115625001723,
      "v": 70
    },
    {
      "midi": 43,
      "hit": false,
      "t": 273176.33399999724,
      "d": 40.44115625001723,
      "v": 73
    },
    {
      "midi": 55,
      "hit": false,
      "t": 273352.80449999723,
      "d": 40.44115625001723,
      "v": 71
    },
    {
      "midi": 43,
      "hit": false,
      "t": 273529.27499999723,
      "d": 40.44115625001723,
      "v": 82
    },
    {
      "midi": 43,
      "hit": false,
      "t": 273705.7454999972,
      "d": 40.44115625001723,
      "v": 63
    }
  ]
}