{
  "jsonPath": "Unknown/Unknown/Billy Vaughn And His Orchestra/blueberry-hill.json",
  "path": "Unknown\\Unknown\\Billy Vaughn And His Orchestra\\Blueberry Hill.mid",
  "name": "Blueberry Hill",
  "difficulty": "Advanced",
  "bpm": 100,
  "notes": [
    {
      "midi": 75,
      "hit": false,
      "t": 3000,
      "d": 590,
      "v": 90
    },
    {
      "midi": 51,
      "hit": false,
      "t": 3000,
      "d": 590,
      "v": 90
    },
    {
      "midi": 79,
      "hit": false,
      "t": 3600,
      "d": 590,
      "v": 90
    },
    {
      "midi": 55,
      "hit": false,
      "t": 3600,
      "d": 590,
      "v": 90
    },
    {
      "midi": 82,
      "hit": false,
      "t": 4200,
      "d": 590,
      "v": 90
    },
    {
      "midi": 58,
      "hit": false,
      "t": 4200,
      "d": 590,
      "v": 90
    },
    {
      "midi": 56,
      "hit": false,
      "t": 4800,
      "d": 3400,
      "v": 70
    },
    {
      "midi": 60,
      "hit": false,
      "t": 4800,
      "d": 3400,
      "v": 70
    },
    {
      "midi": 63,
      "hit": false,
      "t": 4800,
      "d": 3400,
      "v": 70
    },
    {
      "midi": 44,
      "hit": false,
      "t": 4800,
      "d": 4705,
      "v": 68
    },
    {
      "midi": 87,
      "hit": false,
      "t": 4800,
      "d": 2940,
      "v": 90
    },
    {
      "midi": 63,
      "hit": false,
      "t": 4800,
      "d": 2940,
      "v": 90
    },
    {
      "midi": 84,
      "hit": false,
      "t": 7800,
      "d": 590,
      "v": 90
    },
    {
      "midi": 60,
      "hit": false,
      "t": 7800,
      "d": 590,
      "v": 90
    },
    {
      "midi": 80,
      "hit": false,
      "t": 8400,
      "d": 390,
      "v": 90
    },
    {
      "midi": 56,
      "hit": false,
      "t": 8400,
      "d": 390,
      "v": 90
    },
    {
      "midi": 60,
      "hit": false,
      "t": 8800,
      "d": 800,
      "v": 57
    },
    {
      "midi": 75,
      "hit": false,
      "t": 8800,
      "d": 385,
      "v": 90
    },
    {
      "midi": 51,
      "hit": false,
      "t": 8800,
      "d": 385,
      "v": 90
    },
    {
      "midi": 68,
      "hit": false,
      "t": 9000,
      "d": 600,
      "v": 52
    },
    {
      "midi": 84,
      "hit": false,
      "t": 9200,
      "d": 390,
      "v": 90
    },
    {
      "midi": 60,
      "hit": false,
      "t": 9200,
      "d": 390,
      "v": 90
    },
    {
      "midi": 72,
      "hit": false,
      "t": 9400,
      "d": 200,
      "v": 58
    },
    {
      "midi": 39,
      "hit": false,
      "t": 9600,
      "d": 3785,
      "v": 57
    },
    {
      "midi": 55,
      "hit": false,
      "t": 9600,
      "d": 3815,
      "v": 49
    },
    {
      "midi": 82,
      "hit": false,
      "t": 9600,
      "d": 2940,
      "v": 90
    },
    {
      "midi": 58,
      "hit": false,
      "t": 9600,
      "d": 2940,
      "v": 90
    },
    {
      "midi": 63,
      "hit": false,
      "t": 9800,
      "d": 3650,
      "v": 57
    },
    {
      "midi": 67,
      "hit": false,
      "t": 10000,
      "d": 3415,
      "v": 60
    },
    {
      "midi": 70,
      "hit": false,
      "t": 10200,
      "d": 3225,
      "v": 70
    },
    {
      "midi": 79,
      "hit": false,
      "t": 12600,
      "d": 590,
      "v": 90
    },
    {
      "midi": 55,
      "hit": false,
      "t": 12600,
      "d": 590,
      "v": 90
    },
    {
      "midi": 75,
      "hit": false,
      "t": 13200,
      "d": 390,
      "v": 90
    },
    {
      "midi": 51,
      "hit": false,
      "t": 13200,
      "d": 390,
      "v": 90
    },
    {
      "midi": 39,
      "hit": false,
      "t": 13600,
      "d": 450,
      "v": 49
    },
    {
      "midi": 70,
      "hit": false,
      "t": 13600,
      "d": 390,
      "v": 90
    },
    {
      "midi": 46,
      "hit": false,
      "t": 13600,
      "d": 390,
      "v": 90
    },
    {
      "midi": 67,
      "hit": false,
      "t": 13800,
      "d": 170,
      "v": 60
    },
    {
      "midi": 63,
      "hit": false,
      "t": 13800,
      "d": 195,
      "v": 54
    },
    {
      "midi": 55,
      "hit": false,
      "t": 13800,
      "d": 235,
      "v": 56
    },
    {
      "midi": 80,
      "hit": false,
      "t": 14000,
      "d": 390,
      "v": 90
    },
    {
      "midi": 56,
      "hit": false,
      "t": 14000,
      "d": 390,
      "v": 90
    },
    {
      "midi": 46,
      "hit": false,
      "t": 14400,
      "d": 3785,
      "v": 57
    },
    {
      "midi": 56,
      "hit": false,
      "t": 14400,
      "d": 3815,
      "v": 49
    },
    {
      "midi": 77,
      "hit": false,
      "t": 14400,
      "d": 2940,
      "v": 90
    },
    {
      "midi": 53,
      "hit": false,
      "t": 14400,
      "d": 2940,
      "v": 90
    },
    {
      "midi": 62,
      "hit": false,
      "t": 14600,
      "d": 3650,
      "v": 57
    },
    {
      "midi": 65,
      "hit": false,
      "t": 14800,
      "d": 3415,
      "v": 60
    },
    {
      "midi": 70,
      "hit": false,
      "t": 15000,
      "d": 3225,
      "v": 70
    },
    {
      "midi": 77,
      "hit": false,
      "t": 17400,
      "d": 590,
      "v": 90
    },
    {
      "midi": 53,
      "hit": false,
      "t": 17400,
      "d": 590,
      "v": 90
    },
    {
      "midi": 75,
      "hit": false,
      "t": 18000,
      "d": 590,
      "v": 90
    },
    {
      "midi": 51,
      "hit": false,
      "t": 18000,
      "d": 590,
      "v": 90
    },
    {
      "midi": 46,
      "hit": false,
      "t": 18400,
      "d": 450,
      "v": 49
    },
    {
      "midi": 65,
      "hit": false,
      "t": 18600,
      "d": 170,
      "v": 60
    },
    {
      "midi": 62,
      "hit": false,
      "t": 18600,
      "d": 195,
      "v": 54
    },
    {
      "midi": 56,
      "hit": false,
      "t": 18600,
      "d": 235,
      "v": 56
    },
    {
      "midi": 77,
      "hit": false,
      "t": 18600,
      "d": 590,
      "v": 90
    },
    {
      "midi": 53,
      "hit": false,
      "t": 18600,
      "d": 590,
      "v": 90
    },
    {
      "midi": 58,
      "hit": false,
      "t": 19200,
      "d": 820,
      "v": 59
    },
    {
      "midi": 63,
      "hit": false,
      "t": 19200,
      "d": 820,
      "v": 59
    },
    {
      "midi": 79,
      "hit": false,
      "t": 19200,
      "d": 2940,
      "v": 90
    },
    {
      "midi": 55,
      "hit": false,
      "t": 19200,
      "d": 2940,
      "v": 90
    },
    {
      "midi": 55,
      "hit": false,
      "t": 20000,
      "d": 20,
      "v": 49
    },
    {
      "midi": 63,
      "hit": false,
      "t": 20200,
      "d": 200,
      "v": 62
    },
    {
      "midi": 58,
      "hit": false,
      "t": 20400,
      "d": 820,
      "v": 59
    },
    {
      "midi": 62,
      "hit": false,
      "t": 20400,
      "d": 820,
      "v": 59
    },
    {
      "midi": 65,
      "hit": false,
      "t": 20400,
      "d": 820,
      "v": 59
    },
    {
      "midi": 67,
      "hit": false,
      "t": 20400,
      "d": 820,
      "v": 59
    },
    {
      "midi": 55,
      "hit": false,
      "t": 21200,
      "d": 400,
      "v": 49
    },
    {
      "midi": 62,
      "hit": false,
      "t": 21400,
      "d": 200,
      "v": 62
    },
    {
      "midi": 58,
      "hit": false,
      "t": 21600,
      "d": 820,
      "v": 59
    },
    {
      "midi": 60,
      "hit": false,
      "t": 21600,
      "d": 820,
      "v": 59
    },
    {
      "midi": 63,
      "hit": false,
      "t": 21600,
      "d": 820,
      "v": 59
    },
    {
      "midi": 67,
      "hit": false,
      "t": 21600,
      "d": 820,
      "v": 59
    },
    {
      "midi": 75,
      "hit": false,
      "t": 22200,
      "d": 590,
      "v": 90
    },
    {
      "midi": 51,
      "hit": false,
      "t": 22200,
      "d": 590,
      "v": 90
    },
    {
      "midi": 55,
      "hit": false,
      "t": 22400,
      "d": 400,
      "v": 49
    },
    {
      "midi": 60,
      "hit": false,
      "t": 22600,
      "d": 200,
      "v": 62
    },
    {
      "midi": 61,
      "hit": false,
      "t": 22800,
      "d": 820,
      "v": 59
    },
    {
      "midi": 63,
      "hit": false,
      "t": 22800,
      "d": 820,
      "v": 59
    },
    {
      "midi": 67,
      "hit": false,
      "t": 22800,
      "d": 820,
      "v": 59
    },
    {
      "midi": 70,
      "hit": false,
      "t": 22800,
      "d": 820,
      "v": 59
    },
    {
      "midi": 79,
      "hit": false,
      "t": 22800,
      "d": 590,
      "v": 90
    },
    {
      "midi": 55,
      "hit": false,
      "t": 22800,
      "d": 590,
      "v": 90
    },
    {
      "midi": 82,
      "hit": false,
      "t": 23400,
      "d": 580,
      "v": 90
    },
    {
      "midi": 58,
      "hit": false,
      "t": 23400,
      "d": 580,
      "v": 90
    },
    {
      "midi": 55,
      "hit": false,
      "t": 23600,
      "d": 400,
      "v": 49
    },
    {
      "midi": 61,
      "hit": false,
      "t": 23800,
      "d": 200,
      "v": 62
    },
    {
      "midi": 80,
      "hit": false,
      "t": 24000,
      "d": 4800,
      "v": 61
    },
    {
      "midi": 87,
      "hit": false,
      "t": 24000,
      "d": 2940,
      "v": 90
    },
    {
      "midi": 63,
      "hit": false,
      "t": 24000,
      "d": 2940,
      "v": 90
    },
    {
      "midi": 72,
      "hit": false,
      "t": 24200,
      "d": 1810,
      "v": 62
    },
    {
      "midi": 63,
      "hit": false,
      "t": 24600,
      "d": 1400,
      "v": 51
    },
    {
      "midi": 60,
      "hit": false,
      "t": 26000,
      "d": 2800,
      "v": 70
    },
    {
      "midi": 63,
      "hit": false,
      "t": 26200,
      "d": 1690,
      "v": 66
    },
    {
      "midi": 72,
      "hit": false,
      "t": 26400,
      "d": 1870,
      "v": 51
    },
    {
      "midi": 84,
      "hit": false,
      "t": 27000,
      "d": 590,
      "v": 90
    },
    {
      "midi": 60,
      "hit": false,
      "t": 27000,
      "d": 590,
      "v": 90
    },
    {
      "midi": 80,
      "hit": false,
      "t": 27600,
      "d": 390,
      "v": 90
    },
    {
      "midi": 56,
      "hit": false,
      "t": 27600,
      "d": 390,
      "v": 90
    },
    {
      "midi": 75,
      "hit": false,
      "t": 28000,
      "d": 385,
      "v": 90
    },
    {
      "midi": 51,
      "hit": false,
      "t": 28000,
      "d": 385,
      "v": 90
    },
    {
      "midi": 63,
      "hit": false,
      "t": 28200,
      "d": 590,
      "v": 68
    },
    {
      "midi": 72,
      "hit": false,
      "t": 28400,
      "d": 20,
      "v": 64
    },
    {
      "midi": 84,
      "hit": false,
      "t": 28400,
      "d": 390,
      "v": 90
    },
    {
      "midi": 60,
      "hit": false,
      "t": 28400,
      "d": 390,
      "v": 90
    },
    {
      "midi": 72,
      "hit": false,
      "t": 28600,
      "d": 165,
      "v": 60
    },
    {
      "midi": 39,
      "hit": false,
      "t": 28800,
      "d": 3785,
      "v": 57
    },
    {
      "midi": 55,
      "hit": false,
      "t": 28800,
      "d": 3815,
      "v": 49
    },
    {
      "midi": 82,
      "hit": false,
      "t": 28800,
      "d": 2940,
      "v": 90
    },
    {
      "midi": 58,
      "hit": false,
      "t": 28800,
      "d": 2940,
      "v": 90
    },
    {
      "midi": 63,
      "hit": false,
      "t": 29000,
      "d": 3650,
      "v": 57
    },
    {
      "midi": 67,
      "hit": false,
      "t": 29200,
      "d": 3415,
      "v": 60
    },
    {
      "midi": 70,
      "hit": false,
      "t": 29400,
      "d": 3225,
      "v": 70
    },
    {
      "midi": 79,
      "hit": false,
      "t": 31800,
      "d": 590,
      "v": 90
    },
    {
      "midi": 55,
      "hit": false,
      "t": 31800,
      "d": 590,
      "v": 90
    },
    {
      "midi": 75,
      "hit": false,
      "t": 32400,
      "d": 390,
      "v": 90
    },
    {
      "midi": 51,
      "hit": false,
      "t": 32400,
      "d": 390,
      "v": 90
    },
    {
      "midi": 39,
      "hit": false,
      "t": 32800,
      "d": 450,
      "v": 49
    },
    {
      "midi": 70,
      "hit": false,
      "t": 32800,
      "d": 390,
      "v": 90
    },
    {
      "midi": 46,
      "hit": false,
      "t": 32800,
      "d": 390,
      "v": 90
    },
    {
      "midi": 67,
      "hit": false,
      "t": 33000,
      "d": 170,
      "v": 60
    },
    {
      "midi": 63,
      "hit": false,
      "t": 33000,
      "d": 195,
      "v": 54
    },
    {
      "midi": 55,
      "hit": false,
      "t": 33000,
      "d": 235,
      "v": 56
    },
    {
      "midi": 80,
      "hit": false,
      "t": 33200,
      "d": 390,
      "v": 90
    },
    {
      "midi": 56,
      "hit": false,
      "t": 33200,
      "d": 390,
      "v": 90
    },
    {
      "midi": 46,
      "hit": false,
      "t": 33600,
      "d": 3785,
      "v": 57
    },
    {
      "midi": 56,
      "hit": false,
      "t": 33600,
      "d": 3815,
      "v": 49
    },
    {
      "midi": 77,
      "hit": false,
      "t": 33600,
      "d": 2940,
      "v": 90
    },
    {
      "midi": 53,
      "hit": false,
      "t": 33600,
      "d": 2940,
      "v": 90
    },
    {
      "midi": 62,
      "hit": false,
      "t": 33800,
      "d": 3650,
      "v": 57
    },
    {
      "midi": 65,
      "hit": false,
      "t": 34000,
      "d": 3415,
      "v": 60
    },
    {
      "midi": 70,
      "hit": false,
      "t": 34200,
      "d": 3225,
      "v": 70
    },
    {
      "midi": 77,
      "hit": false,
      "t": 36600,
      "d": 590,
      "v": 90
    },
    {
      "midi": 53,
      "hit": false,
      "t": 36600,
      "d": 590,
      "v": 90
    },
    {
      "midi": 75,
      "hit": false,
      "t": 37200,
      "d": 590,
      "v": 90
    },
    {
      "midi": 51,
      "hit": false,
      "t": 37200,
      "d": 590,
      "v": 90
    },
    {
      "midi": 46,
      "hit": false,
      "t": 37600,
      "d": 450,
      "v": 49
    },
    {
      "midi": 65,
      "hit": false,
      "t": 37800,
      "d": 170,
      "v": 60
    },
    {
      "midi": 62,
      "hit": false,
      "t": 37800,
      "d": 195,
      "v": 54
    },
    {
      "midi": 56,
      "hit": false,
      "t": 37800,
      "d": 235,
      "v": 56
    },
    {
      "midi": 77,
      "hit": false,
      "t": 37800,
      "d": 590,
      "v": 90
    },
    {
      "midi": 53,
      "hit": false,
      "t": 37800,
      "d": 590,
      "v": 90
    },
    {
      "midi": 58,
      "hit": false,
      "t": 38400,
      "d": 820,
      "v": 59
    },
    {
      "midi": 63,
      "hit": false,
      "t": 38400,
      "d": 820,
      "v": 59
    },
    {
      "midi": 75,
      "hit": false,
      "t": 38400,
      "d": 2940,
      "v": 90
    },
    {
      "midi": 51,
      "hit": false,
      "t": 38400,
      "d": 2940,
      "v": 90
    },
    {
      "midi": 55,
      "hit": false,
      "t": 39200,
      "d": 20,
      "v": 49
    },
    {
      "midi": 63,
      "hit": false,
      "t": 39400,
      "d": 200,
      "v": 62
    },
    {
      "midi": 61,
      "hit": false,
      "t": 39600,
      "d": 820,
      "v": 59
    },
    {
      "midi": 65,
      "hit": false,
      "t": 39600,
      "d": 820,
      "v": 59
    },
    {
      "midi": 68,
      "hit": false,
      "t": 39600,
      "d": 820,
      "v": 59
    },
    {
      "midi": 59,
      "hit": false,
      "t": 40400,
      "d": 20,
      "v": 49
    },
    {
      "midi": 65,
      "hit": false,
      "t": 40600,
      "d": 200,
      "v": 62
    },
    {
      "midi": 58,
      "hit": false,
      "t": 40800,
      "d": 820,
      "v": 59
    },
    {
      "midi": 63,
      "hit": false,
      "t": 40800,
      "d": 820,
      "v": 59
    },
    {
      "midi": 82,
      "hit": false,
      "t": 41400,
      "d": 590,
      "v": 90
    },
    {
      "midi": 58,
      "hit": false,
      "t": 41400,
      "d": 590,
      "v": 90
    },
    {
      "midi": 55,
      "hit": false,
      "t": 41600,
      "d": 20,
      "v": 49
    },
    {
      "midi": 63,
      "hit": false,
      "t": 41800,
      "d": 200,
      "v": 62
    },
    {
      "midi": 63,
      "hit": false,
      "t": 42000,
      "d": 820,
      "v": 59
    },
    {
      "midi": 65,
      "hit": false,
      "t": 42000,
      "d": 820,
      "v": 59
    },
    {
      "midi": 68,
      "hit": false,
      "t": 42000,
      "d": 820,
      "v": 59
    },
    {
      "midi": 77,
      "hit": false,
      "t": 42000,
      "d": 390,
      "v": 90
    },
    {
      "midi": 53,
      "hit": false,
      "t": 42000,
      "d": 390,
      "v": 90
    },
    {
      "midi": 79,
      "hit": false,
      "t": 42400,
      "d": 390,
      "v": 90
    },
    {
      "midi": 55,
      "hit": false,
      "t": 42400,
      "d": 390,
      "v": 90
    },
    {
      "midi": 60,
      "hit": false,
      "t": 42800,
      "d": 20,
      "v": 49
    },
    {
      "midi": 80,
      "hit": false,
      "t": 42800,
      "d": 390,
      "v": 90
    },
    {
      "midi": 56,
      "hit": false,
      "t": 42800,
      "d": 390,
      "v": 90
    },
    {
      "midi": 65,
      "hit": false,
      "t": 43000,
      "d": 200,
      "v": 62
    },
    {
      "midi": 58,
      "hit": false,
      "t": 43200,
      "d": 820,
      "v": 59
    },
    {
      "midi": 63,
      "hit": false,
      "t": 43200,
      "d": 820,
      "v": 59
    },
    {
      "midi": 82,
      "hit": false,
      "t": 43200,
      "d": 980,
      "v": 90
    },
    {
      "midi": 58,
      "hit": false,
      "t": 43200,
      "d": 980,
      "v": 90
    },
    {
      "midi": 55,
      "hit": false,
      "t": 44000,
      "d": 20,
      "v": 49
    },
    {
      "midi": 63,
      "hit": false,
      "t": 44200,
      "d": 200,
      "v": 62
    },
    {
      "midi": 82,
      "hit": false,
      "t": 44200,
      "d": 195,
      "v": 90
    },
    {
      "midi": 58,
      "hit": false,
      "t": 44200,
      "d": 195,
      "v": 90
    },
    {
      "midi": 58,
      "hit": false,
      "t": 44400,
      "d": 820,
      "v": 59
    },
    {
      "midi": 60,
      "hit": false,
      "t": 44400,
      "d": 820,
      "v": 59
    },
    {
      "midi": 63,
      "hit": false,
      "t": 44400,
      "d": 820,
      "v": 59
    },
    {
      "midi": 67,
      "hit": false,
      "t": 44400,
      "d": 820,
      "v": 59
    },
    {
      "midi": 82,
      "hit": false,
      "t": 44400,
      "d": 1765,
      "v": 90
    },
    {
      "midi": 58,
      "hit": false,
      "t": 44400,
      "d": 1765,
      "v": 90
    },
    {
      "midi": 55,
      "hit": false,
      "t": 45200,
      "d": 400,
      "v": 49
    },
    {
      "midi": 60,
      "hit": false,
      "t": 45400,
      "d": 200,
      "v": 62
    },
    {
      "midi": 58,
      "hit": false,
      "t": 45600,
      "d": 820,
      "v": 59
    },
    {
      "midi": 62,
      "hit": false,
      "t": 45600,
      "d": 820,
      "v": 59
    },
    {
      "midi": 65,
      "hit": false,
      "t": 45600,
      "d": 820,
      "v": 59
    },
    {
      "midi": 67,
      "hit": false,
      "t": 45600,
      "d": 820,
      "v": 59
    },
    {
      "midi": 82,
      "hit": false,
      "t": 46200,
      "d": 590,
      "v": 90
    },
    {
      "midi": 58,
      "hit": false,
      "t": 46200,
      "d": 590,
      "v": 90
    },
    {
      "midi": 55,
      "hit": false,
      "t": 46400,
      "d": 400,
      "v": 49
    },
    {
      "midi": 62,
      "hit": false,
      "t": 46600,
      "d": 200,
      "v": 62
    },
    {
      "midi": 63,
      "hit": false,
      "t": 46800,
      "d": 820,
      "v": 59
    },
    {
      "midi": 65,
      "hit": false,
      "t": 46800,
      "d": 820,
      "v": 59
    },
    {
      "midi": 68,
      "hit": false,
      "t": 46800,
      "d": 820,
      "v": 59
    },
    {
      "midi": 77,
      "hit": false,
      "t": 46800,
      "d": 390,
      "v": 90
    },
    {
      "midi": 53,
      "hit": false,
      "t": 46800,
      "d": 390,
      "v": 90
    },
    {
      "midi": 79,
      "hit": false,
      "t": 47200,
      "d": 390,
      "v": 90
    },
    {
      "midi": 55,
      "hit": false,
      "t": 47200,
      "d": 390,
      "v": 90
    },
    {
      "midi": 60,
      "hit": false,
      "t": 47600,
      "d": 20,
      "v": 49
    },
    {
      "midi": 80,
      "hit": false,
      "t": 47600,
      "d": 390,
      "v": 90
    },
    {
      "midi": 56,
      "hit": false,
      "t": 47600,
      "d": 390,
      "v": 90
    },
    {
      "midi": 65,
      "hit": false,
      "t": 47800,
      "d": 200,
      "v": 62
    },
    {
      "midi": 58,
      "hit": false,
      "t": 48000,
      "d": 820,
      "v": 59
    },
    {
      "midi": 63,
      "hit": false,
      "t": 48000,
      "d": 820,
      "v": 59
    },
    {
      "midi": 82,
      "hit": false,
      "t": 48000,
      "d": 2940,
      "v": 90
    },
    {
      "midi": 58,
      "hit": false,
      "t": 48000,
      "d": 2940,
      "v": 90
    },
    {
      "midi": 55,
      "hit": false,
      "t": 48800,
      "d": 20,
      "v": 49
    },
    {
      "midi": 63,
      "hit": false,
      "t": 49000,
      "d": 200,
      "v": 62
    },
    {
      "midi": 58,
      "hit": false,
      "t": 49200,
      "d": 820,
      "v": 59
    },
    {
      "midi": 60,
      "hit": false,
      "t": 49200,
      "d": 820,
      "v": 59
    },
    {
      "midi": 63,
      "hit": false,
      "t": 49200,
      "d": 820,
      "v": 59
    },
    {
      "midi": 67,
      "hit": false,
      "t": 49200,
      "d": 820,
      "v": 59
    },
    {
      "midi": 55,
      "hit": false,
      "t": 50000,
      "d": 400,
      "v": 49
    },
    {
      "midi": 60,
      "hit": false,
      "t": 50200,
      "d": 200,
      "v": 62
    },
    {
      "midi": 61,
      "hit": false,
      "t": 50400,
      "d": 820,
      "v": 59
    },
    {
      "midi": 63,
      "hit": false,
      "t": 50400,
      "d": 820,
      "v": 59
    },
    {
      "midi": 67,
      "hit": false,
      "t": 50400,
      "d": 820,
      "v": 59
    },
    {
      "midi": 70,
      "hit": false,
      "t": 50400,
      "d": 820,
      "v": 59
    },
    {
      "midi": 82,
      "hit": false,
      "t": 51000,
      "d": 590,
      "v": 90
    },
    {
      "midi": 58,
      "hit": false,
      "t": 51000,
      "d": 590,
      "v": 90
    },
    {
      "midi": 55,
      "hit": false,
      "t": 51200,
      "d": 400,
      "v": 49
    },
    {
      "midi": 61,
      "hit": false,
      "t": 51400,
      "d": 200,
      "v": 62
    },
    {
      "midi": 62,
      "hit": false,
      "t": 51600,
      "d": 820,
      "v": 59
    },
    {
      "midi": 66,
      "hit": false,
      "t": 51600,
      "d": 820,
      "v": 59
    },
    {
      "midi": 69,
      "hit": false,
      "t": 51600,
      "d": 820,
      "v": 59
    },
    {
      "midi": 81,
      "hit": false,
      "t": 51600,
      "d": 390,
      "v": 90
    },
    {
      "midi": 57,
      "hit": false,
      "t": 51600,
      "d": 390,
      "v": 90
    },
    {
      "midi": 82,
      "hit": false,
      "t": 52000,
      "d": 390,
      "v": 90
    },
    {
      "midi": 58,
      "hit": false,
      "t": 52000,
      "d": 390,
      "v": 90
    },
    {
      "midi": 60,
      "hit": false,
      "t": 52400,
      "d": 20,
      "v": 49
    },
    {
      "midi": 84,
      "hit": false,
      "t": 52400,
      "d": 390,
      "v": 90
    },
    {
      "midi": 60,
      "hit": false,
      "t": 52400,
      "d": 390,
      "v": 90
    },
    {
      "midi": 66,
      "hit": false,
      "t": 52600,
      "d": 200,
      "v": 62
    },
    {
      "midi": 55,
      "hit": false,
      "t": 52800,
      "d": 820,
      "v": 59
    },
    {
      "midi": 62,
      "hit": false,
      "t": 52800,
      "d": 820,
      "v": 59
    },
    {
      "midi": 86,
      "hit": false,
      "t": 52800,
      "d": 980,
      "v": 90
    },
    {
      "midi": 62,
      "hit": false,
      "t": 52800,
      "d": 980,
      "v": 90
    },
    {
      "midi": 58,
      "hit": false,
      "t": 53600,
      "d": 20,
      "v": 49
    },
    {
      "midi": 67,
      "hit": false,
      "t": 53800,
      "d": 200,
      "v": 62
    },
    {
      "midi": 86,
      "hit": false,
      "t": 53800,
      "d": 195,
      "v": 90
    },
    {
      "midi": 62,
      "hit": false,
      "t": 53800,
      "d": 195,
      "v": 90
    },
    {
      "midi": 62,
      "hit": false,
      "t": 54000,
      "d": 820,
      "v": 59
    },
    {
      "midi": 66,
      "hit": false,
      "t": 54000,
      "d": 820,
      "v": 59
    },
    {
      "midi": 69,
      "hit": false,
      "t": 54000,
      "d": 820,
      "v": 59
    },
    {
      "midi": 86,
      "hit": false,
      "t": 54000,
      "d": 1765,
      "v": 90
    },
    {
      "midi": 62,
      "hit": false,
      "t": 54000,
      "d": 1765,
      "v": 90
    },
    {
      "midi": 60,
      "hit": false,
      "t": 54800,
      "d": 20,
      "v": 49
    },
    {
      "midi": 66,
      "hit": false,
      "t": 55000,
      "d": 200,
      "v": 62
    },
    {
      "midi": 55,
      "hit": false,
      "t": 55200,
      "d": 820,
      "v": 59
    },
    {
      "midi": 62,
      "hit": false,
      "t": 55200,
      "d": 820,
      "v": 59
    },
    {
      "midi": 86,
      "hit": false,
      "t": 55800,
      "d": 590,
      "v": 90
    },
    {
      "midi": 62,
      "hit": false,
      "t": 55800,
      "d": 590,
      "v": 90
    },
    {
      "midi": 58,
      "hit": false,
      "t": 56000,
      "d": 20,
      "v": 49
    },
    {
      "midi": 67,
      "hit": false,
      "t": 56200,
      "d": 200,
      "v": 62
    },
    {
      "midi": 62,
      "hit": false,
      "t": 56400,
      "d": 820,
      "v": 59
    },
    {
      "midi": 66,
      "hit": false,
      "t": 56400,
      "d": 820,
      "v": 59
    },
    {
      "midi": 69,
      "hit": false,
      "t": 56400,
      "d": 820,
      "v": 59
    },
    {
      "midi": 81,
      "hit": false,
      "t": 56400,
      "d": 390,
      "v": 90
    },
    {
      "midi": 57,
      "hit": false,
      "t": 56400,
      "d": 390,
      "v": 90
    },
    {
      "midi": 83,
      "hit": false,
      "t": 56800,
      "d": 390,
      "v": 90
    },
    {
      "midi": 59,
      "hit": false,
      "t": 56800,
      "d": 390,
      "v": 90
    },
    {
      "midi": 60,
      "hit": false,
      "t": 57200,
      "d": 20,
      "v": 49
    },
    {
      "midi": 84,
      "hit": false,
      "t": 57200,
      "d": 390,
      "v": 90
    },
    {
      "midi": 60,
      "hit": false,
      "t": 57200,
      "d": 390,
      "v": 90
    },
    {
      "midi": 66,
      "hit": false,
      "t": 57400,
      "d": 200,
      "v": 62
    },
    {
      "midi": 62,
      "hit": false,
      "t": 57600,
      "d": 1825,
      "v": 54
    },
    {
      "midi": 67,
      "hit": false,
      "t": 57600,
      "d": 1940,
      "v": 55
    },
    {
      "midi": 43,
      "hit": false,
      "t": 57600,
      "d": 2400,
      "v": 56
    },
    {
      "midi": 71,
      "hit": false,
      "t": 57600,
      "d": 2400,
      "v": 53
    },
    {
      "midi": 86,
      "hit": false,
      "t": 57600,
      "d": 2940,
      "v": 90
    },
    {
      "midi": 62,
      "hit": false,
      "t": 57600,
      "d": 2940,
      "v": 90
    },
    {
      "midi": 59,
      "hit": false,
      "t": 59400,
      "d": 600,
      "v": 78
    },
    {
      "midi": 62,
      "hit": false,
      "t": 59600,
      "d": 400,
      "v": 63
    },
    {
      "midi": 67,
      "hit": false,
      "t": 59800,
      "d": 165,
      "v": 58
    },
    {
      "midi": 62,
      "hit": false,
      "t": 60000,
      "d": 600,
      "v": 59
    },
    {
      "midi": 65,
      "hit": false,
      "t": 60000,
      "d": 600,
      "v": 59
    },
    {
      "midi": 68,
      "hit": false,
      "t": 60000,
      "d": 600,
      "v": 59
    },
    {
      "midi": 70,
      "hit": false,
      "t": 60000,
      "d": 600,
      "v": 59
    },
    {
      "midi": 58,
      "hit": false,
      "t": 60600,
      "d": 600,
      "v": 59
    },
    {
      "midi": 61,
      "hit": false,
      "t": 60600,
      "d": 600,
      "v": 59
    },
    {
      "midi": 63,
      "hit": false,
      "t": 60600,
      "d": 600,
      "v": 59
    },
    {
      "midi": 67,
      "hit": false,
      "t": 60600,
      "d": 600,
      "v": 59
    },
    {
      "midi": 75,
      "hit": false,
      "t": 60600,
      "d": 590,
      "v": 90
    },
    {
      "midi": 51,
      "hit": false,
      "t": 60600,
      "d": 590,
      "v": 90
    },
    {
      "midi": 58,
      "hit": false,
      "t": 61200,
      "d": 820,
      "v": 59
    },
    {
      "midi": 61,
      "hit": false,
      "t": 61200,
      "d": 820,
      "v": 59
    },
    {
      "midi": 63,
      "hit": false,
      "t": 61200,
      "d": 820,
      "v": 59
    },
    {
      "midi": 67,
      "hit": false,
      "t": 61200,
      "d": 820,
      "v": 59
    },
    {
      "midi": 79,
      "hit": false,
      "t": 61200,
      "d": 590,
      "v": 90
    },
    {
      "midi": 55,
      "hit": false,
      "t": 61200,
      "d": 590,
      "v": 90
    },
    {
      "midi": 82,
      "hit": false,
      "t": 61800,
      "d": 590,
      "v": 90
    },
    {
      "midi": 58,
      "hit": false,
      "t": 61800,
      "d": 590,
      "v": 90
    },
    {
      "midi": 55,
      "hit": false,
      "t": 62000,
      "d": 400,
      "v": 49
    },
    {
      "midi": 61,
      "hit": false,
      "t": 62200,
      "d": 200,
      "v": 62
    },
    {
      "midi": 80,
      "hit": false,
      "t": 62400,
      "d": 4800,
      "v": 61
    },
    {
      "midi": 87,
      "hit": false,
      "t": 62400,
      "d": 2940,
      "v": 90
    },
    {
      "midi": 63,
      "hit": false,
      "t": 62400,
      "d": 2940,
      "v": 90
    },
    {
      "midi": 72,
      "hit": false,
      "t": 62600,
      "d": 1810,
      "v": 62
    },
    {
      "midi": 63,
      "hit": false,
      "t": 63000,
      "d": 1400,
      "v": 51
    },
    {
      "midi": 60,
      "hit": false,
      "t": 64400,
      "d": 2800,
      "v": 70
    },
    {
      "midi": 63,
      "hit": false,
      "t": 64600,
      "d": 1690,
      "v": 66
    },
    {
      "midi": 72,
      "hit": false,
      "t": 64800,
      "d": 1870,
      "v": 51
    },
    {
      "midi": 84,
      "hit": false,
      "t": 65400,
      "d": 590,
      "v": 90
    },
    {
      "midi": 60,
      "hit": false,
      "t": 65400,
      "d": 590,
      "v": 90
    },
    {
      "midi": 80,
      "hit": false,
      "t": 66000,
      "d": 390,
      "v": 90
    },
    {
      "midi": 56,
      "hit": false,
      "t": 66000,
      "d": 390,
      "v": 90
    },
    {
      "midi": 75,
      "hit": false,
      "t": 66400,
      "d": 390,
      "v": 90
    },
    {
      "midi": 51,
      "hit": false,
      "t": 66400,
      "d": 390,
      "v": 90
    },
    {
      "midi": 63,
      "hit": false,
      "t": 66600,
      "d": 590,
      "v": 68
    },
    {
      "midi": 72,
      "hit": false,
      "t": 66800,
      "d": 20,
      "v": 64
    },
    {
      "midi": 84,
      "hit": false,
      "t": 66800,
      "d": 390,
      "v": 90
    },
    {
      "midi": 60,
      "hit": false,
      "t": 66800,
      "d": 390,
      "v": 90
    },
    {
      "midi": 72,
      "hit": false,
      "t": 67000,
      "d": 165,
      "v": 60
    },
    {
      "midi": 58,
      "hit": false,
      "t": 67200,
      "d": 3400,
      "v": 70
    },
    {
      "midi": 63,
      "hit": false,
      "t": 67200,
      "d": 3400,
      "v": 70
    },
    {
      "midi": 67,
      "hit": false,
      "t": 67200,
      "d": 3400,
      "v": 70
    },
    {
      "midi": 39,
      "hit": false,
      "t": 67200,
      "d": 4705,
      "v": 68
    },
    {
      "midi": 82,
      "hit": false,
      "t": 67200,
      "d": 2940,
      "v": 90
    },
    {
      "midi": 58,
      "hit": false,
      "t": 67200,
      "d": 2940,
      "v": 90
    },
    {
      "midi": 79,
      "hit": false,
      "t": 70200,
      "d": 590,
      "v": 90
    },
    {
      "midi": 55,
      "hit": false,
      "t": 70200,
      "d": 590,
      "v": 90
    },
    {
      "midi": 75,
      "hit": false,
      "t": 70800,
      "d": 390,
      "v": 90
    },
    {
      "midi": 51,
      "hit": false,
      "t": 70800,
      "d": 390,
      "v": 90
    },
    {
      "midi": 55,
      "hit": false,
      "t": 71200,
      "d": 800,
      "v": 57
    },
    {
      "midi": 70,
      "hit": false,
      "t": 71200,
      "d": 390,
      "v": 90
    },
    {
      "midi": 46,
      "hit": false,
      "t": 71200,
      "d": 390,
      "v": 90
    },
    {
      "midi": 63,
      "hit": false,
      "t": 71400,
      "d": 600,
      "v": 52
    },
    {
      "midi": 80,
      "hit": false,
      "t": 71600,
      "d": 390,
      "v": 90
    },
    {
      "midi": 56,
      "hit": false,
      "t": 71600,
      "d": 390,
      "v": 90
    },
    {
      "midi": 67,
      "hit": false,
      "t": 71800,
      "d": 200,
      "v": 58
    },
    {
      "midi": 70,
      "hit": false,
      "t": 72000,
      "d": 4800,
      "v": 61
    },
    {
      "midi": 77,
      "hit": false,
      "t": 72000,
      "d": 2940,
      "v": 90
    },
    {
      "midi": 53,
      "hit": false,
      "t": 72000,
      "d": 2940,
      "v": 90
    },
    {
      "midi": 65,
      "hit": false,
      "t": 72200,
      "d": 4220,
      "v": 62
    },
    {
      "midi": 62,
      "hit": false,
      "t": 72400,
      "d": 1610,
      "v": 49
    },
    {
      "midi": 56,
      "hit": false,
      "t": 72600,
      "d": 1400,
      "v": 51
    },
    {
      "midi": 53,
      "hit": false,
      "t": 74000,
      "d": 2800,
      "v": 70
    },
    {
      "midi": 56,
      "hit": false,
      "t": 74200,
      "d": 1690,
      "v": 66
    },
    {
      "midi": 62,
      "hit": false,
      "t": 74400,
      "d": 1870,
      "v": 51
    },
    {
      "midi": 77,
      "hit": false,
      "t": 75000,
      "d": 590,
      "v": 90
    },
    {
      "midi": 53,
      "hit": false,
      "t": 75000,
      "d": 590,
      "v": 90
    },
    {
      "midi": 77,
      "hit": false,
      "t": 75600,
      "d": 390,
      "v": 90
    },
    {
      "midi": 53,
      "hit": false,
      "t": 75600,
      "d": 390,
      "v": 90
    },
    {
      "midi": 75,
      "hit": false,
      "t": 76000,
      "d": 390,
      "v": 90
    },
    {
      "midi": 51,
      "hit": false,
      "t": 76000,
      "d": 390,
      "v": 90
    },
    {
      "midi": 56,
      "hit": false,
      "t": 76200,
      "d": 590,
      "v": 68
    },
    {
      "midi": 62,
      "hit": false,
      "t": 76400,
      "d": 375,
      "v": 64
    },
    {
      "midi": 74,
      "hit": false,
      "t": 76400,
      "d": 390,
      "v": 90
    },
    {
      "midi": 50,
      "hit": false,
      "t": 76400,
      "d": 390,
      "v": 90
    },
    {
      "midi": 65,
      "hit": false,
      "t": 76600,
      "d": 165,
      "v": 60
    },
    {
      "midi": 58,
      "hit": false,
      "t": 76800,
      "d": 820,
      "v": 59
    },
    {
      "midi": 63,
      "hit": false,
      "t": 76800,
      "d": 820,
      "v": 59
    },
    {
      "midi": 75,
      "hit": false,
      "t": 76800,
      "d": 2940,
      "v": 90
    },
    {
      "midi": 51,
      "hit": false,
      "t": 76800,
      "d": 2940,
      "v": 90
    },
    {
      "midi": 55,
      "hit": false,
      "t": 77600,
      "d": 20,
      "v": 49
    },
    {
      "midi": 63,
      "hit": false,
      "t": 77800,
      "d": 200,
      "v": 62
    },
    {
      "midi": 61,
      "hit": false,
      "t": 78000,
      "d": 820,
      "v": 59
    },
    {
      "midi": 65,
      "hit": false,
      "t": 78000,
      "d": 820,
      "v": 59
    },
    {
      "midi": 68,
      "hit": false,
      "t": 78000,
      "d": 820,
      "v": 59
    },
    {
      "midi": 59,
      "hit": false,
      "t": 78800,
      "d": 20,
      "v": 49
    },
    {
      "midi": 65,
      "hit": false,
      "t": 79000,
      "d": 200,
      "v": 62
    },
    {
      "midi": 55,
      "hit": false,
      "t": 79200,
      "d": 600,
      "v": 59
    },
    {
      "midi": 58,
      "hit": false,
      "t": 79200,
      "d": 600,
      "v": 59
    },
    {
      "midi": 63,
      "hit": false,
      "t": 79200,
      "d": 600,
      "v": 59
    },
    {
      "midi": 58,
      "hit": false,
      "t": 79800,
      "d": 600,
      "v": 59
    },
    {
      "midi": 61,
      "hit": false,
      "t": 79800,
      "d": 600,
      "v": 59
    },
    {
      "midi": 63,
      "hit": false,
      "t": 79800,
      "d": 600,
      "v": 59
    },
    {
      "midi": 67,
      "hit": false,
      "t": 79800,
      "d": 600,
      "v": 59
    },
    {
      "midi": 75,
      "hit": false,
      "t": 79800,
      "d": 590,
      "v": 90
    },
    {
      "midi": 51,
      "hit": false,
      "t": 79800,
      "d": 590,
      "v": 90
    },
    {
      "midi": 58,
      "hit": false,
      "t": 80400,
      "d": 820,
      "v": 59
    },
    {
      "midi": 61,
      "hit": false,
      "t": 80400,
      "d": 820,
      "v": 59
    },
    {
      "midi": 63,
      "hit": false,
      "t": 80400,
      "d": 820,
      "v": 59
    },
    {
      "midi": 67,
      "hit": false,
      "t": 80400,
      "d": 820,
      "v": 59
    },
    {
      "midi": 79,
      "hit": false,
      "t": 80400,
      "d": 590,
      "v": 90
    },
    {
      "midi": 55,
      "hit": false,
      "t": 80400,
      "d": 590,
      "v": 90
    },
    {
      "midi": 82,
      "hit": false,
      "t": 81000,
      "d": 590,
      "v": 90
    },
    {
      "midi": 58,
      "hit": false,
      "t": 81000,
      "d": 590,
      "v": 90
    },
    {
      "midi": 55,
      "hit": false,
      "t": 81200,
      "d": 400,
      "v": 49
    },
    {
      "midi": 61,
      "hit": false,
      "t": 81400,
      "d": 200,
      "v": 62
    },
    {
      "midi": 44,
      "hit": false,
      "t": 81600,
      "d": 3785,
      "v": 57
    },
    {
      "midi": 60,
      "hit": false,
      "t": 81600,
      "d": 3815,
      "v": 49
    },
    {
      "midi": 87,
      "hit": false,
      "t": 81600,
      "d": 2940,
      "v": 90
    },
    {
      "midi": 63,
      "hit": false,
      "t": 81600,
      "d": 2940,
      "v": 90
    },
    {
      "midi": 68,
      "hit": false,
      "t": 81800,
      "d": 3650,
      "v": 57
    },
    {
      "midi": 72,
      "hit": false,
      "t": 82000,
      "d": 3415,
      "v": 60
    },
    {
      "midi": 75,
      "hit": false,
      "t": 82200,
      "d": 3225,
      "v": 70
    },
    {
      "midi": 84,
      "hit": false,
      "t": 84600,
      "d": 590,
      "v": 90
    },
    {
      "midi": 60,
      "hit": false,
      "t": 84600,
      "d": 590,
      "v": 90
    },
    {
      "midi": 80,
      "hit": false,
      "t": 85200,
      "d": 390,
      "v": 90
    },
    {
      "midi": 56,
      "hit": false,
      "t": 85200,
      "d": 390,
      "v": 90
    },
    {
      "midi": 44,
      "hit": false,
      "t": 85600,
      "d": 450,
      "v": 49
    },
    {
      "midi": 75,
      "hit": false,
      "t": 85600,
      "d": 385,
      "v": 90
    },
    {
      "midi": 51,
      "hit": false,
      "t": 85600,
      "d": 385,
      "v": 90
    },
    {
      "midi": 72,
      "hit": false,
      "t": 85800,
      "d": 170,
      "v": 60
    },
    {
      "midi": 68,
      "hit": false,
      "t": 85800,
      "d": 195,
      "v": 54
    },
    {
      "midi": 60,
      "hit": false,
      "t": 85800,
      "d": 235,
      "v": 56
    },
    {
      "midi": 84,
      "hit": false,
      "t": 86000,
      "d": 390,
      "v": 90
    },
    {
      "midi": 60,
      "hit": false,
      "t": 86000,
      "d": 390,
      "v": 90
    },
    {
      "midi": 39,
      "hit": false,
      "t": 86400,
      "d": 3785,
      "v": 57
    },
    {
      "midi": 55,
      "hit": false,
      "t": 86400,
      "d": 3815,
      "v": 49
    },
    {
      "midi": 82,
      "hit": false,
      "t": 86400,
      "d": 2940,
      "v": 90
    },
    {
      "midi": 58,
      "hit": false,
      "t": 86400,
      "d": 2940,
      "v": 90
    },
    {
      "midi": 63,
      "hit": false,
      "t": 86600,
      "d": 3650,
      "v": 57
    },
    {
      "midi": 67,
      "hit": false,
      "t": 86800,
      "d": 3415,
      "v": 60
    },
    {
      "midi": 70,
      "hit": false,
      "t": 87000,
      "d": 3225,
      "v": 70
    },
    {
      "midi": 79,
      "hit": false,
      "t": 89400,
      "d": 590,
      "v": 90
    },
    {
      "midi": 55,
      "hit": false,
      "t": 89400,
      "d": 590,
      "v": 90
    },
    {
      "midi": 75,
      "hit": false,
      "t": 90000,
      "d": 390,
      "v": 90
    },
    {
      "midi": 51,
      "hit": false,
      "t": 90000,
      "d": 390,
      "v": 90
    },
    {
      "midi": 39,
      "hit": false,
      "t": 90400,
      "d": 450,
      "v": 49
    },
    {
      "midi": 70,
      "hit": false,
      "t": 90400,
      "d": 390,
      "v": 90
    },
    {
      "midi": 46,
      "hit": false,
      "t": 90400,
      "d": 390,
      "v": 90
    },
    {
      "midi": 67,
      "hit": false,
      "t": 90600,
      "d": 170,
      "v": 60
    },
    {
      "midi": 63,
      "hit": false,
      "t": 90600,
      "d": 195,
      "v": 54
    },
    {
      "midi": 55,
      "hit": false,
      "t": 90600,
      "d": 235,
      "v": 56
    },
    {
      "midi": 80,
      "hit": false,
      "t": 90800,
      "d": 390,
      "v": 90
    },
    {
      "midi": 56,
      "hit": false,
      "t": 90800,
      "d": 390,
      "v": 90
    },
    {
      "midi": 56,
      "hit": false,
      "t": 91200,
      "d": 3400,
      "v": 70
    },
    {
      "midi": 58,
      "hit": false,
      "t": 91200,
      "d": 3400,
      "v": 70
    },
    {
      "midi": 62,
      "hit": false,
      "t": 91200,
      "d": 3400,
      "v": 70
    },
    {
      "midi": 65,
      "hit": false,
      "t": 91200,
      "d": 3400,
      "v": 70
    },
    {
      "midi": 46,
      "hit": false,
      "t": 91200,
      "d": 4705,
      "v": 68
    },
    {
      "midi": 77,
      "hit": false,
      "t": 91200,
      "d": 2940,
      "v": 90
    },
    {
      "midi": 53,
      "hit": false,
      "t": 91200,
      "d": 2940,
      "v": 90
    },
    {
      "midi": 77,
      "hit": false,
      "t": 94200,
      "d": 590,
      "v": 90
    },
    {
      "midi": 53,
      "hit": false,
      "t": 94200,
      "d": 590,
      "v": 90
    },
    {
      "midi": 75,
      "hit": false,
      "t": 94800,
      "d": 590,
      "v": 90
    },
    {
      "midi": 51,
      "hit": false,
      "t": 94800,
      "d": 590,
      "v": 90
    },
    {
      "midi": 56,
      "hit": false,
      "t": 95200,
      "d": 800,
      "v": 57
    },
    {
      "midi": 62,
      "hit": false,
      "t": 95400,
      "d": 600,
      "v": 52
    },
    {
      "midi": 77,
      "hit": false,
      "t": 95400,
      "d": 590,
      "v": 90
    },
    {
      "midi": 53,
      "hit": false,
      "t": 95400,
      "d": 590,
      "v": 90
    },
    {
      "midi": 65,
      "hit": false,
      "t": 95800,
      "d": 200,
      "v": 58
    },
    {
      "midi": 58,
      "hit": false,
      "t": 96000,
      "d": 820,
      "v": 59
    },
    {
      "midi": 63,
      "hit": false,
      "t": 96000,
      "d": 820,
      "v": 59
    },
    {
      "midi": 79,
      "hit": false,
      "t": 96000,
      "d": 2940,
      "v": 90
    },
    {
      "midi": 55,
      "hit": false,
      "t": 96000,
      "d": 2940,
      "v": 90
    },
    {
      "midi": 55,
      "hit": false,
      "t": 96800,
      "d": 20,
      "v": 49
    },
    {
      "midi": 63,
      "hit": false,
      "t": 97000,
      "d": 200,
      "v": 62
    },
    {
      "midi": 58,
      "hit": false,
      "t": 97200,
      "d": 820,
      "v": 59
    },
    {
      "midi": 62,
      "hit": false,
      "t": 97200,
      "d": 820,
      "v": 59
    },
    {
      "midi": 65,
      "hit": false,
      "t": 97200,
      "d": 820,
      "v": 59
    },
    {
      "midi": 67,
      "hit": false,
      "t": 97200,
      "d": 820,
      "v": 59
    },
    {
      "midi": 55,
      "hit": false,
      "t": 98000,
      "d": 400,
      "v": 49
    },
    {
      "midi": 62,
      "hit": false,
      "t": 98200,
      "d": 200,
      "v": 62
    },
    {
      "midi": 58,
      "hit": false,
      "t": 98400,
      "d": 820,
      "v": 59
    },
    {
      "midi": 60,
      "hit": false,
      "t": 98400,
      "d": 820,
      "v": 59
    },
    {
      "midi": 63,
      "hit": false,
      "t": 98400,
      "d": 820,
      "v": 59
    },
    {
      "midi": 67,
      "hit": false,
      "t": 98400,
      "d": 820,
      "v": 59
    },
    {
      "midi": 75,
      "hit": false,
      "t": 99000,
      "d": 590,
      "v": 90
    },
    {
      "midi": 51,
      "hit": false,
      "t": 99000,
      "d": 590,
      "v": 90
    },
    {
      "midi": 55,
      "hit": false,
      "t": 99200,
      "d": 400,
      "v": 49
    },
    {
      "midi": 60,
      "hit": false,
      "t": 99400,
      "d": 200,
      "v": 62
    },
    {
      "midi": 58,
      "hit": false,
      "t": 99600,
      "d": 820,
      "v": 59
    },
    {
      "midi": 61,
      "hit": false,
      "t": 99600,
      "d": 820,
      "v": 59
    },
    {
      "midi": 63,
      "hit": false,
      "t": 99600,
      "d": 820,
      "v": 59
    },
    {
      "midi": 67,
      "hit": false,
      "t": 99600,
      "d": 820,
      "v": 59
    },
    {
      "midi": 79,
      "hit": false,
      "t": 99600,
      "d": 590,
      "v": 90
    },
    {
      "midi": 55,
      "hit": false,
      "t": 99600,
      "d": 590,
      "v": 90
    },
    {
      "midi": 82,
      "hit": false,
      "t": 100200,
      "d": 580,
      "v": 90
    },
    {
      "midi": 58,
      "hit": false,
      "t": 100200,
      "d": 580,
      "v": 90
    },
    {
      "midi": 55,
      "hit": false,
      "t": 100400,
      "d": 400,
      "v": 49
    },
    {
      "midi": 61,
      "hit": false,
      "t": 100600,
      "d": 200,
      "v": 62
    },
    {
      "midi": 44,
      "hit": false,
      "t": 100800,
      "d": 3785,
      "v": 57
    },
    {
      "midi": 60,
      "hit": false,
      "t": 100800,
      "d": 3815,
      "v": 49
    },
    {
      "midi": 87,
      "hit": false,
      "t": 100800,
      "d": 2940,
      "v": 90
    },
    {
      "midi": 63,
      "hit": false,
      "t": 100800,
      "d": 2940,
      "v": 90
    },
    {
      "midi": 68,
      "hit": false,
      "t": 101000,
      "d": 3650,
      "v": 57
    },
    {
      "midi": 72,
      "hit": false,
      "t": 101200,
      "d": 3415,
      "v": 60
    },
    {
      "midi": 75,
      "hit": false,
      "t": 101400,
      "d": 3225,
      "v": 70
    },
    {
      "midi": 84,
      "hit": false,
      "t": 103800,
      "d": 590,
      "v": 90
    },
    {
      "midi": 60,
      "hit": false,
      "t": 103800,
      "d": 590,
      "v": 90
    },
    {
      "midi": 80,
      "hit": false,
      "t": 104400,
      "d": 390,
      "v": 90
    },
    {
      "midi": 56,
      "hit": false,
      "t": 104400,
      "d": 390,
      "v": 90
    },
    {
      "midi": 44,
      "hit": false,
      "t": 104800,
      "d": 450,
      "v": 49
    },
    {
      "midi": 75,
      "hit": false,
      "t": 104800,
      "d": 385,
      "v": 90
    },
    {
      "midi": 51,
      "hit": false,
      "t": 104800,
      "d": 385,
      "v": 90
    },
    {
      "midi": 72,
      "hit": false,
      "t": 105000,
      "d": 170,
      "v": 60
    },
    {
      "midi": 68,
      "hit": false,
      "t": 105000,
      "d": 195,
      "v": 54
    },
    {
      "midi": 60,
      "hit": false,
      "t": 105000,
      "d": 235,
      "v": 56
    },
    {
      "midi": 84,
      "hit": false,
      "t": 105200,
      "d": 390,
      "v": 90
    },
    {
      "midi": 60,
      "hit": false,
      "t": 105200,
      "d": 390,
      "v": 90
    },
    {
      "midi": 39,
      "hit": false,
      "t": 105600,
      "d": 3785,
      "v": 57
    },
    {
      "midi": 55,
      "hit": false,
      "t": 105600,
      "d": 3815,
      "v": 49
    },
    {
      "midi": 82,
      "hit": false,
      "t": 105600,
      "d": 2940,
      "v": 90
    },
    {
      "midi": 58,
      "hit": false,
      "t": 105600,
      "d": 2940,
      "v": 90
    },
    {
      "midi": 63,
      "hit": false,
      "t": 105800,
      "d": 3650,
      "v": 57
    },
    {
      "midi": 67,
      "hit": false,
      "t": 106000,
      "d": 3415,
      "v": 60
    },
    {
      "midi": 70,
      "hit": false,
      "t": 106200,
      "d": 3225,
      "v": 70
    },
    {
      "midi": 79,
      "hit": false,
      "t": 108600,
      "d": 590,
      "v": 90
    },
    {
      "midi": 55,
      "hit": false,
      "t": 108600,
      "d": 590,
      "v": 90
    },
    {
      "midi": 75,
      "hit": false,
      "t": 109200,
      "d": 390,
      "v": 90
    },
    {
      "midi": 51,
      "hit": false,
      "t": 109200,
      "d": 390,
      "v": 90
    },
    {
      "midi": 39,
      "hit": false,
      "t": 109600,
      "d": 450,
      "v": 49
    },
    {
      "midi": 70,
      "hit": false,
      "t": 109600,
      "d": 390,
      "v": 90
    },
    {
      "midi": 46,
      "hit": false,
      "t": 109600,
      "d": 390,
      "v": 90
    },
    {
      "midi": 67,
      "hit": false,
      "t": 109800,
      "d": 170,
      "v": 60
    },
    {
      "midi": 63,
      "hit": false,
      "t": 109800,
      "d": 195,
      "v": 54
    },
    {
      "midi": 55,
      "hit": false,
      "t": 109800,
      "d": 235,
      "v": 56
    },
    {
      "midi": 80,
      "hit": false,
      "t": 110000,
      "d": 390,
      "v": 90
    },
    {
      "midi": 56,
      "hit": false,
      "t": 110000,
      "d": 390,
      "v": 90
    },
    {
      "midi": 70,
      "hit": false,
      "t": 110400,
      "d": 4800,
      "v": 61
    },
    {
      "midi": 77,
      "hit": false,
      "t": 110400,
      "d": 2940,
      "v": 90
    },
    {
      "midi": 53,
      "hit": false,
      "t": 110400,
      "d": 2940,
      "v": 90
    },
    {
      "midi": 65,
      "hit": false,
      "t": 110600,
      "d": 4220,
      "v": 62
    },
    {
      "midi": 62,
      "hit": false,
      "t": 110800,
      "d": 1610,
      "v": 49
    },
    {
      "midi": 56,
      "hit": false,
      "t": 111000,
      "d": 1400,
      "v": 51
    },
    {
      "midi": 53,
      "hit": false,
      "t": 112400,
      "d": 2800,
      "v": 70
    },
    {
      "midi": 56,
      "hit": false,
      "t": 112600,
      "d": 1690,
      "v": 66
    },
    {
      "midi": 62,
      "hit": false,
      "t": 112800,
      "d": 1870,
      "v": 51
    },
    {
      "midi": 77,
      "hit": false,
      "t": 113400,
      "d": 590,
      "v": 90
    },
    {
      "midi": 53,
      "hit": false,
      "t": 113400,
      "d": 590,
      "v": 90
    },
    {
      "midi": 75,
      "hit": false,
      "t": 114000,
      "d": 590,
      "v": 90
    },
    {
      "midi": 51,
      "hit": false,
      "t": 114000,
      "d": 590,
      "v": 90
    },
    {
      "midi": 56,
      "hit": false,
      "t": 114600,
      "d": 590,
      "v": 68
    },
    {
      "midi": 77,
      "hit": false,
      "t": 114600,
      "d": 590,
      "v": 90
    },
    {
      "midi": 53,
      "hit": false,
      "t": 114600,
      "d": 590,
      "v": 90
    },
    {
      "midi": 62,
      "hit": false,
      "t": 114800,
      "d": 375,
      "v": 64
    },
    {
      "midi": 65,
      "hit": false,
      "t": 115000,
      "d": 165,
      "v": 60
    },
    {
      "midi": 58,
      "hit": false,
      "t": 115200,
      "d": 820,
      "v": 59
    },
    {
      "midi": 63,
      "hit": false,
      "t": 115200,
      "d": 820,
      "v": 59
    },
    {
      "midi": 75,
      "hit": false,
      "t": 115200,
      "d": 2940,
      "v": 90
    },
    {
      "midi": 51,
      "hit": false,
      "t": 115200,
      "d": 2940,
      "v": 90
    },
    {
      "midi": 55,
      "hit": false,
      "t": 116000,
      "d": 20,
      "v": 49
    },
    {
      "midi": 63,
      "hit": false,
      "t": 116200,
      "d": 200,
      "v": 62
    },
    {
      "midi": 61,
      "hit": false,
      "t": 116400,
      "d": 820,
      "v": 59
    },
    {
      "midi": 65,
      "hit": false,
      "t": 116400,
      "d": 820,
      "v": 59
    },
    {
      "midi": 68,
      "hit": false,
      "t": 116400,
      "d": 820,
      "v": 59
    },
    {
      "midi": 59,
      "hit": false,
      "t": 117200,
      "d": 20,
      "v": 49
    },
    {
      "midi": 65,
      "hit": false,
      "t": 117400,
      "d": 200,
      "v": 62
    },
    {
      "midi": 58,
      "hit": false,
      "t": 117600,
      "d": 820,
      "v": 59
    },
    {
      "midi": 63,
      "hit": false,
      "t": 117600,
      "d": 820,
      "v": 59
    },
    {
      "midi": 82,
      "hit": false,
      "t": 118200,
      "d": 590,
      "v": 90
    },
    {
      "midi": 58,
      "hit": false,
      "t": 118200,
      "d": 590,
      "v": 90
    },
    {
      "midi": 55,
      "hit": false,
      "t": 118400,
      "d": 20,
      "v": 49
    },
    {
      "midi": 63,
      "hit": false,
      "t": 118600,
      "d": 200,
      "v": 62
    },
    {
      "midi": 63,
      "hit": false,
      "t": 118800,
      "d": 820,
      "v": 59
    },
    {
      "midi": 65,
      "hit": false,
      "t": 118800,
      "d": 820,
      "v": 59
    },
    {
      "midi": 68,
      "hit": false,
      "t": 118800,
      "d": 820,
      "v": 59
    },
    {
      "midi": 77,
      "hit": false,
      "t": 118800,
      "d": 390,
      "v": 90
    },
    {
      "midi": 53,
      "hit": false,
      "t": 118800,
      "d": 390,
      "v": 90
    },
    {
      "midi": 79,
      "hit": false,
      "t": 119200,
      "d": 390,
      "v": 90
    },
    {
      "midi": 55,
      "hit": false,
      "t": 119200,
      "d": 390,
      "v": 90
    },
    {
      "midi": 60,
      "hit": false,
      "t": 119600,
      "d": 20,
      "v": 49
    },
    {
      "midi": 80,
      "hit": false,
      "t": 119600,
      "d": 390,
      "v": 90
    },
    {
      "midi": 56,
      "hit": false,
      "t": 119600,
      "d": 390,
      "v": 90
    },
    {
      "midi": 65,
      "hit": false,
      "t": 119800,
      "d": 200,
      "v": 62
    },
    {
      "midi": 58,
      "hit": false,
      "t": 120000,
      "d": 820,
      "v": 59
    },
    {
      "midi": 63,
      "hit": false,
      "t": 120000,
      "d": 820,
      "v": 59
    },
    {
      "midi": 82,
      "hit": false,
      "t": 120000,
      "d": 980,
      "v": 90
    },
    {
      "midi": 58,
      "hit": false,
      "t": 120000,
      "d": 980,
      "v": 90
    },
    {
      "midi": 55,
      "hit": false,
      "t": 120800,
      "d": 20,
      "v": 49
    },
    {
      "midi": 63,
      "hit": false,
      "t": 121000,
      "d": 200,
      "v": 62
    },
    {
      "midi": 82,
      "hit": false,
      "t": 121000,
      "d": 195,
      "v": 90
    },
    {
      "midi": 58,
      "hit": false,
      "t": 121000,
      "d": 195,
      "v": 90
    },
    {
      "midi": 58,
      "hit": false,
      "t": 121200,
      "d": 820,
      "v": 59
    },
    {
      "midi": 60,
      "hit": false,
      "t": 121200,
      "d": 820,
      "v": 59
    },
    {
      "midi": 63,
      "hit": false,
      "t": 121200,
      "d": 820,
      "v": 59
    },
    {
      "midi": 67,
      "hit": false,
      "t": 121200,
      "d": 820,
      "v": 59
    },
    {
      "midi": 82,
      "hit": false,
      "t": 121200,
      "d": 1765,
      "v": 90
    },
    {
      "midi": 58,
      "hit": false,
      "t": 121200,
      "d": 1765,
      "v": 90
    },
    {
      "midi": 55,
      "hit": false,
      "t": 122000,
      "d": 400,
      "v": 49
    },
    {
      "midi": 60,
      "hit": false,
      "t": 122200,
      "d": 200,
      "v": 62
    },
    {
      "midi": 58,
      "hit": false,
      "t": 122400,
      "d": 820,
      "v": 59
    },
    {
      "midi": 62,
      "hit": false,
      "t": 122400,
      "d": 820,
      "v": 59
    },
    {
      "midi": 65,
      "hit": false,
      "t": 122400,
      "d": 820,
      "v": 59
    },
    {
      "midi": 67,
      "hit": false,
      "t": 122400,
      "d": 820,
      "v": 59
    },
    {
      "midi": 82,
      "hit": false,
      "t": 123000,
      "d": 590,
      "v": 90
    },
    {
      "midi": 58,
      "hit": false,
      "t": 123000,
      "d": 590,
      "v": 90
    },
    {
      "midi": 55,
      "hit": false,
      "t": 123200,
      "d": 400,
      "v": 49
    },
    {
      "midi": 62,
      "hit": false,
      "t": 123400,
      "d": 200,
      "v": 62
    },
    {
      "midi": 63,
      "hit": false,
      "t": 123600,
      "d": 820,
      "v": 59
    },
    {
      "midi": 65,
      "hit": false,
      "t": 123600,
      "d": 820,
      "v": 59
    },
    {
      "midi": 68,
      "hit": false,
      "t": 123600,
      "d": 820,
      "v": 59
    },
    {
      "midi": 77,
      "hit": false,
      "t": 123600,
      "d": 390,
      "v": 90
    },
    {
      "midi": 53,
      "hit": false,
      "t": 123600,
      "d": 390,
      "v": 90
    },
    {
      "midi": 79,
      "hit": false,
      "t": 124000,
      "d": 390,
      "v": 90
    },
    {
      "midi": 55,
      "hit": false,
      "t": 124000,
      "d": 390,
      "v": 90
    },
    {
      "midi": 60,
      "hit": false,
      "t": 124400,
      "d": 20,
      "v": 49
    },
    {
      "midi": 80,
      "hit": false,
      "t": 124400,
      "d": 390,
      "v": 90
    },
    {
      "midi": 56,
      "hit": false,
      "t": 124400,
      "d": 390,
      "v": 90
    },
    {
      "midi": 65,
      "hit": false,
      "t": 124600,
      "d": 200,
      "v": 62
    },
    {
      "midi": 58,
      "hit": false,
      "t": 124800,
      "d": 820,
      "v": 59
    },
    {
      "midi": 63,
      "hit": false,
      "t": 124800,
      "d": 820,
      "v": 59
    },
    {
      "midi": 67,
      "hit": false,
      "t": 124800,
      "d": 820,
      "v": 59
    },
    {
      "midi": 82,
      "hit": false,
      "t": 124800,
      "d": 2940,
      "v": 90
    },
    {
      "midi": 58,
      "hit": false,
      "t": 124800,
      "d": 2940,
      "v": 90
    },
    {
      "midi": 55,
      "hit": false,
      "t": 125600,
      "d": 400,
      "v": 49
    },
    {
      "midi": 63,
      "hit": false,
      "t": 125800,
      "d": 200,
      "v": 62
    },
    {
      "midi": 58,
      "hit": false,
      "t": 126000,
      "d": 820,
      "v": 59
    },
    {
      "midi": 60,
      "hit": false,
      "t": 126000,
      "d": 820,
      "v": 59
    },
    {
      "midi": 63,
      "hit": false,
      "t": 126000,
      "d": 820,
      "v": 59
    },
    {
      "midi": 67,
      "hit": false,
      "t": 126000,
      "d": 820,
      "v": 59
    },
    {
      "midi": 55,
      "hit": false,
      "t": 126800,
      "d": 400,
      "v": 49
    },
    {
      "midi": 60,
      "hit": false,
      "t": 127000,
      "d": 200,
      "v": 62
    },
    {
      "midi": 58,
      "hit": false,
      "t": 127200,
      "d": 820,
      "v": 59
    },
    {
      "midi": 61,
      "hit": false,
      "t": 127200,
      "d": 820,
      "v": 59
    },
    {
      "midi": 63,
      "hit": false,
      "t": 127200,
      "d": 820,
      "v": 59
    },
    {
      "midi": 67,
      "hit": false,
      "t": 127200,
      "d": 820,
      "v": 59
    },
    {
      "midi": 82,
      "hit": false,
      "t": 127800,
      "d": 590,
      "v": 90
    },
    {
      "midi": 58,
      "hit": false,
      "t": 127800,
      "d": 590,
      "v": 90
    },
    {
      "midi": 55,
      "hit": false,
      "t": 128000,
      "d": 400,
      "v": 49
    },
    {
      "midi": 61,
      "hit": false,
      "t": 128200,
      "d": 200,
      "v": 62
    },
    {
      "midi": 62,
      "hit": false,
      "t": 128400,
      "d": 820,
      "v": 59
    },
    {
      "midi": 66,
      "hit": false,
      "t": 128400,
      "d": 820,
      "v": 59
    },
    {
      "midi": 69,
      "hit": false,
      "t": 128400,
      "d": 820,
      "v": 59
    },
    {
      "midi": 81,
      "hit": false,
      "t": 128400,
      "d": 390,
      "v": 90
    },
    {
      "midi": 57,
      "hit": false,
      "t": 128400,
      "d": 390,
      "v": 90
    },
    {
      "midi": 82,
      "hit": false,
      "t": 128800,
      "d": 390,
      "v": 90
    },
    {
      "midi": 58,
      "hit": false,
      "t": 128800,
      "d": 390,
      "v": 90
    },
    {
      "midi": 60,
      "hit": false,
      "t": 129200,
      "d": 20,
      "v": 49
    },
    {
      "midi": 84,
      "hit": false,
      "t": 129200,
      "d": 390,
      "v": 90
    },
    {
      "midi": 60,
      "hit": false,
      "t": 129200,
      "d": 390,
      "v": 90
    },
    {
      "midi": 66,
      "hit": false,
      "t": 129400,
      "d": 200,
      "v": 62
    },
    {
      "midi": 62,
      "hit": false,
      "t": 129600,
      "d": 820,
      "v": 59
    },
    {
      "midi": 67,
      "hit": false,
      "t": 129600,
      "d": 820,
      "v": 59
    },
    {
      "midi": 86,
      "hit": false,
      "t": 129600,
      "d": 980,
      "v": 90
    },
    {
      "midi": 62,
      "hit": false,
      "t": 129600,
      "d": 980,
      "v": 90
    },
    {
      "midi": 58,
      "hit": false,
      "t": 130400,
      "d": 20,
      "v": 49
    },
    {
      "midi": 67,
      "hit": false,
      "t": 130600,
      "d": 200,
      "v": 62
    },
    {
      "midi": 86,
      "hit": false,
      "t": 130600,
      "d": 195,
      "v": 90
    },
    {
      "midi": 62,
      "hit": false,
      "t": 130600,
      "d": 195,
      "v": 90
    },
    {
      "midi": 62,
      "hit": false,
      "t": 130800,
      "d": 820,
      "v": 59
    },
    {
      "midi": 66,
      "hit": false,
      "t": 130800,
      "d": 820,
      "v": 59
    },
    {
      "midi": 69,
      "hit": false,
      "t": 130800,
      "d": 820,
      "v": 59
    },
    {
      "midi": 86,
      "hit": false,
      "t": 130800,
      "d": 1765,
      "v": 90
    },
    {
      "midi": 62,
      "hit": false,
      "t": 130800,
      "d": 1765,
      "v": 90
    },
    {
      "midi": 60,
      "hit": false,
      "t": 131600,
      "d": 20,
      "v": 49
    },
    {
      "midi": 66,
      "hit": false,
      "t": 131800,
      "d": 200,
      "v": 62
    },
    {
      "midi": 55,
      "hit": false,
      "t": 132000,
      "d": 820,
      "v": 59
    },
    {
      "midi": 62,
      "hit": false,
      "t": 132000,
      "d": 820,
      "v": 59
    },
    {
      "midi": 86,
      "hit": false,
      "t": 132600,
      "d": 590,
      "v": 90
    },
    {
      "midi": 62,
      "hit": false,
      "t": 132600,
      "d": 590,
      "v": 90
    },
    {
      "midi": 58,
      "hit": false,
      "t": 132800,
      "d": 20,
      "v": 49
    },
    {
      "midi": 67,
      "hit": false,
      "t": 133000,
      "d": 200,
      "v": 62
    },
    {
      "midi": 62,
      "hit": false,
      "t": 133200,
      "d": 820,
      "v": 59
    },
    {
      "midi": 66,
      "hit": false,
      "t": 133200,
      "d": 820,
      "v": 59
    },
    {
      "midi": 69,
      "hit": false,
      "t": 133200,
      "d": 820,
      "v": 59
    },
    {
      "midi": 81,
      "hit": false,
      "t": 133200,
      "d": 390,
      "v": 90
    },
    {
      "midi": 57,
      "hit": false,
      "t": 133200,
      "d": 390,
      "v": 90
    },
    {
      "midi": 83,
      "hit": false,
      "t": 133600,
      "d": 390,
      "v": 90
    },
    {
      "midi": 59,
      "hit": false,
      "t": 133600,
      "d": 390,
      "v": 90
    },
    {
      "midi": 60,
      "hit": false,
      "t": 134000,
      "d": 20,
      "v": 49
    },
    {
      "midi": 84,
      "hit": false,
      "t": 134000,
      "d": 390,
      "v": 90
    },
    {
      "midi": 60,
      "hit": false,
      "t": 134000,
      "d": 390,
      "v": 90
    },
    {
      "midi": 66,
      "hit": false,
      "t": 134200,
      "d": 200,
      "v": 62
    },
    {
      "midi": 62,
      "hit": false,
      "t": 134400,
      "d": 1825,
      "v": 54
    },
    {
      "midi": 67,
      "hit": false,
      "t": 134400,
      "d": 1940,
      "v": 55
    },
    {
      "midi": 43,
      "hit": false,
      "t": 134400,
      "d": 2400,
      "v": 56
    },
    {
      "midi": 71,
      "hit": false,
      "t": 134400,
      "d": 2400,
      "v": 53
    },
    {
      "midi": 86,
      "hit": false,
      "t": 134400,
      "d": 2940,
      "v": 90
    },
    {
      "midi": 62,
      "hit": false,
      "t": 134400,
      "d": 2940,
      "v": 90
    },
    {
      "midi": 59,
      "hit": false,
      "t": 136200,
      "d": 600,
      "v": 78
    },
    {
      "midi": 62,
      "hit": false,
      "t": 136400,
      "d": 400,
      "v": 63
    },
    {
      "midi": 67,
      "hit": false,
      "t": 136600,
      "d": 165,
      "v": 58
    },
    {
      "midi": 62,
      "hit": false,
      "t": 136800,
      "d": 600,
      "v": 59
    },
    {
      "midi": 65,
      "hit": false,
      "t": 136800,
      "d": 600,
      "v": 59
    },
    {
      "midi": 68,
      "hit": false,
      "t": 136800,
      "d": 600,
      "v": 59
    },
    {
      "midi": 70,
      "hit": false,
      "t": 136800,
      "d": 600,
      "v": 59
    },
    {
      "midi": 58,
      "hit": false,
      "t": 137400,
      "d": 600,
      "v": 59
    },
    {
      "midi": 61,
      "hit": false,
      "t": 137400,
      "d": 600,
      "v": 59
    },
    {
      "midi": 63,
      "hit": false,
      "t": 137400,
      "d": 600,
      "v": 59
    },
    {
      "midi": 67,
      "hit": false,
      "t": 137400,
      "d": 600,
      "v": 59
    },
    {
      "midi": 75,
      "hit": false,
      "t": 137400,
      "d": 590,
      "v": 90
    },
    {
      "midi": 51,
      "hit": false,
      "t": 137400,
      "d": 590,
      "v": 90
    },
    {
      "midi": 58,
      "hit": false,
      "t": 138000,
      "d": 820,
      "v": 59
    },
    {
      "midi": 61,
      "hit": false,
      "t": 138000,
      "d": 820,
      "v": 59
    },
    {
      "midi": 63,
      "hit": false,
      "t": 138000,
      "d": 820,
      "v": 59
    },
    {
      "midi": 67,
      "hit": false,
      "t": 138000,
      "d": 820,
      "v": 59
    },
    {
      "midi": 79,
      "hit": false,
      "t": 138000,
      "d": 590,
      "v": 90
    },
    {
      "midi": 55,
      "hit": false,
      "t": 138000,
      "d": 590,
      "v": 90
    },
    {
      "midi": 82,
      "hit": false,
      "t": 138600,
      "d": 590,
      "v": 90
    },
    {
      "midi": 58,
      "hit": false,
      "t": 138600,
      "d": 590,
      "v": 90
    },
    {
      "midi": 55,
      "hit": false,
      "t": 138800,
      "d": 400,
      "v": 49
    },
    {
      "midi": 61,
      "hit": false,
      "t": 139000,
      "d": 200,
      "v": 62
    },
    {
      "midi": 80,
      "hit": false,
      "t": 139200,
      "d": 4800,
      "v": 61
    },
    {
      "midi": 87,
      "hit": false,
      "t": 139200,
      "d": 2940,
      "v": 90
    },
    {
      "midi": 63,
      "hit": false,
      "t": 139200,
      "d": 2940,
      "v": 90
    },
    {
      "midi": 72,
      "hit": false,
      "t": 139400,
      "d": 1810,
      "v": 62
    },
    {
      "midi": 63,
      "hit": false,
      "t": 139800,
      "d": 1400,
      "v": 51
    },
    {
      "midi": 60,
      "hit": false,
      "t": 141200,
      "d": 2800,
      "v": 70
    },
    {
      "midi": 63,
      "hit": false,
      "t": 141400,
      "d": 1690,
      "v": 66
    },
    {
      "midi": 72,
      "hit": false,
      "t": 141600,
      "d": 1870,
      "v": 51
    },
    {
      "midi": 84,
      "hit": false,
      "t": 142200,
      "d": 590,
      "v": 90
    },
    {
      "midi": 60,
      "hit": false,
      "t": 142200,
      "d": 590,
      "v": 90
    },
    {
      "midi": 80,
      "hit": false,
      "t": 142800,
      "d": 390,
      "v": 90
    },
    {
      "midi": 56,
      "hit": false,
      "t": 142800,
      "d": 390,
      "v": 90
    },
    {
      "midi": 75,
      "hit": false,
      "t": 143200,
      "d": 390,
      "v": 90
    },
    {
      "midi": 51,
      "hit": false,
      "t": 143200,
      "d": 390,
      "v": 90
    },
    {
      "midi": 63,
      "hit": false,
      "t": 143400,
      "d": 590,
      "v": 68
    },
    {
      "midi": 72,
      "hit": false,
      "t": 143600,
      "d": 20,
      "v": 64
    },
    {
      "midi": 84,
      "hit": false,
      "t": 143600,
      "d": 390,
      "v": 90
    },
    {
      "midi": 60,
      "hit": false,
      "t": 143600,
      "d": 390,
      "v": 90
    },
    {
      "midi": 72,
      "hit": false,
      "t": 143800,
      "d": 165,
      "v": 60
    },
    {
      "midi": 75,
      "hit": false,
      "t": 144000,
      "d": 4800,
      "v": 61
    },
    {
      "midi": 82,
      "hit": false,
      "t": 144000,
      "d": 2940,
      "v": 90
    },
    {
      "midi": 58,
      "hit": false,
      "t": 144000,
      "d": 2940,
      "v": 90
    },
    {
      "midi": 67,
      "hit": false,
      "t": 144200,
      "d": 1810,
      "v": 62
    },
    {
      "midi": 58,
      "hit": false,
      "t": 144600,
      "d": 1400,
      "v": 51
    },
    {
      "midi": 55,
      "hit": false,
      "t": 146000,
      "d": 2800,
      "v": 70
    },
    {
      "midi": 58,
      "hit": false,
      "t": 146200,
      "d": 1690,
      "v": 66
    },
    {
      "midi": 67,
      "hit": false,
      "t": 146400,
      "d": 1870,
      "v": 51
    },
    {
      "midi": 79,
      "hit": false,
      "t": 147000,
      "d": 590,
      "v": 90
    },
    {
      "midi": 55,
      "hit": false,
      "t": 147000,
      "d": 590,
      "v": 90
    },
    {
      "midi": 75,
      "hit": false,
      "t": 147600,
      "d": 390,
      "v": 90
    },
    {
      "midi": 51,
      "hit": false,
      "t": 147600,
      "d": 390,
      "v": 90
    },
    {
      "midi": 70,
      "hit": false,
      "t": 148000,
      "d": 390,
      "v": 90
    },
    {
      "midi": 46,
      "hit": false,
      "t": 148000,
      "d": 390,
      "v": 90
    },
    {
      "midi": 58,
      "hit": false,
      "t": 148200,
      "d": 590,
      "v": 68
    },
    {
      "midi": 67,
      "hit": false,
      "t": 148400,
      "d": 20,
      "v": 64
    },
    {
      "midi": 80,
      "hit": false,
      "t": 148400,
      "d": 390,
      "v": 90
    },
    {
      "midi": 56,
      "hit": false,
      "t": 148400,
      "d": 390,
      "v": 90
    },
    {
      "midi": 67,
      "hit": false,
      "t": 148600,
      "d": 165,
      "v": 60
    },
    {
      "midi": 70,
      "hit": false,
      "t": 148800,
      "d": 4800,
      "v": 61
    },
    {
      "midi": 77,
      "hit": false,
      "t": 148800,
      "d": 2940,
      "v": 90
    },
    {
      "midi": 53,
      "hit": false,
      "t": 148800,
      "d": 2940,
      "v": 90
    },
    {
      "midi": 65,
      "hit": false,
      "t": 149000,
      "d": 4220,
      "v": 62
    },
    {
      "midi": 62,
      "hit": false,
      "t": 149200,
      "d": 1610,
      "v": 49
    },
    {
      "midi": 56,
      "hit": false,
      "t": 149400,
      "d": 1400,
      "v": 51
    },
    {
      "midi": 53,
      "hit": false,
      "t": 150800,
      "d": 2800,
      "v": 70
    },
    {
      "midi": 56,
      "hit": false,
      "t": 151000,
      "d": 1690,
      "v": 66
    },
    {
      "midi": 62,
      "hit": false,
      "t": 151200,
      "d": 1870,
      "v": 51
    },
    {
      "midi": 77,
      "hit": false,
      "t": 151800,
      "d": 590,
      "v": 90
    },
    {
      "midi": 53,
      "hit": false,
      "t": 151800,
      "d": 590,
      "v": 90
    },
    {
      "midi": 77,
      "hit": false,
      "t": 152400,
      "d": 390,
      "v": 90
    },
    {
      "midi": 53,
      "hit": false,
      "t": 152400,
      "d": 390,
      "v": 90
    },
    {
      "midi": 75,
      "hit": false,
      "t": 152800,
      "d": 390,
      "v": 90
    },
    {
      "midi": 51,
      "hit": false,
      "t": 152800,
      "d": 390,
      "v": 90
    },
    {
      "midi": 56,
      "hit": false,
      "t": 153000,
      "d": 590,
      "v": 68
    },
    {
      "midi": 62,
      "hit": false,
      "t": 153200,
      "d": 375,
      "v": 64
    },
    {
      "midi": 74,
      "hit": false,
      "t": 153200,
      "d": 390,
      "v": 90
    },
    {
      "midi": 50,
      "hit": false,
      "t": 153200,
      "d": 390,
      "v": 90
    },
    {
      "midi": 65,
      "hit": false,
      "t": 153400,
      "d": 165,
      "v": 60
    },
    {
      "midi": 58,
      "hit": false,
      "t": 153600,
      "d": 820,
      "v": 59
    },
    {
      "midi": 63,
      "hit": false,
      "t": 153600,
      "d": 820,
      "v": 59
    },
    {
      "midi": 75,
      "hit": false,
      "t": 153600,
      "d": 5905,
      "v": 90
    },
    {
      "midi": 51,
      "hit": false,
      "t": 153600,
      "d": 5905,
      "v": 90
    },
    {
      "midi": 55,
      "hit": false,
      "t": 154400,
      "d": 20,
      "v": 49
    },
    {
      "midi": 63,
      "hit": false,
      "t": 154600,
      "d": 200,
      "v": 62
    },
    {
      "midi": 63,
      "hit": false,
      "t": 154800,
      "d": 820,
      "v": 59
    },
    {
      "midi": 65,
      "hit": false,
      "t": 154800,
      "d": 820,
      "v": 59
    },
    {
      "midi": 68,
      "hit": false,
      "t": 154800,
      "d": 820,
      "v": 59
    },
    {
      "midi": 60,
      "hit": false,
      "t": 155600,
      "d": 20,
      "v": 49
    },
    {
      "midi": 65,
      "hit": false,
      "t": 155800,
      "d": 200,
      "v": 62
    },
    {
      "midi": 39,
      "hit": false,
      "t": 156200,
      "d": 1980,
      "v": 24
    },
    {
      "midi": 58,
      "hit": false,
      "t": 156400,
      "d": 1665,
      "v": 64
    },
    {
      "midi": 55,
      "hit": false,
      "t": 156400,
      "d": 1825,
      "v": 74
    },
    {
      "midi": 63,
      "hit": false,
      "t": 156600,
      "d": 1465,
      "v": 70
    },
    {
      "midi": 67,
      "hit": false,
      "t": 156600,
      "d": 1580,
      "v": 68
    },
    {
      "midi": 55,
      "hit": false,
      "t": 158400,
      "d": 2530,
      "v": 51
    },
    {
      "midi": 58,
      "hit": false,
      "t": 158400,
      "d": 2775,
      "v": 52
    },
    {
      "midi": 63,
      "hit": false,
      "t": 158400,
      "d": 2780,
      "v": 57
    },
    {
      "midi": 67,
      "hit": false,
      "t": 158400,
      "d": 2780,
      "v": 60
    },
    {
      "midi": 55,
      "hit": false,
      "t": 161400,
      "d": 155,
      "v": 91
    },
    {
      "midi": 58,
      "hit": false,
      "t": 161600,
      "d": 220,
      "v": 66
    },
    {
      "midi": 63,
      "hit": false,
      "t": 161800,
      "d": 145,
      "v": 68
    },
    {
      "midi": 63,
      "hit": false,
      "t": 162000,
      "d": 105,
      "v": 68
    },
    {
      "midi": 55,
      "hit": false,
      "t": 162000,
      "d": 180,
      "v": 68
    },
    {
      "midi": 58,
      "hit": false,
      "t": 162000,
      "d": 180,
      "v": 80
    },
    {
      "midi": 67,
      "hit": false,
      "t": 162000,
      "d": 180,
      "v": 76
    }
  ]
}