{
  "jsonPath": "Pop/New Wave Pop/Matthew Wilder/break-my-stride.json",
  "path": "Pop\\New Wave Pop\\Matthew Wilder\\Break My Stride.mid",
  "name": "Break My Stride",
  "difficulty": "Advanced",
  "bpm": 112.00089600716805,
  "notes": [
    {
      "midi": 39,
      "hit": false,
      "t": 4285.68,
      "d": 2.790156250000109,
      "v": 101
    },
    {
      "midi": 66,
      "hit": false,
      "t": 4553.535000000001,
      "d": 153.45859374999964,
      "v": 85
    },
    {
      "midi": 63,
      "hit": false,
      "t": 4553.535000000001,
      "d": 170.19953124999938,
      "v": 81
    },
    {
      "midi": 60,
      "hit": false,
      "t": 4553.535000000001,
      "d": 175.7798437499996,
      "v": 85
    },
    {
      "midi": 58,
      "hit": false,
      "t": 4553.535000000001,
      "d": 184.15031249999993,
      "v": 78
    },
    {
      "midi": 66,
      "hit": false,
      "t": 5089.245000000001,
      "d": 167.40937500000018,
      "v": 82
    },
    {
      "midi": 63,
      "hit": false,
      "t": 5089.245000000001,
      "d": 172.9896875000004,
      "v": 79
    },
    {
      "midi": 58,
      "hit": false,
      "t": 5089.245000000001,
      "d": 184.15031250000084,
      "v": 79
    },
    {
      "midi": 60,
      "hit": false,
      "t": 5089.245000000001,
      "d": 184.15031250000084,
      "v": 83
    },
    {
      "midi": 63,
      "hit": false,
      "t": 5624.955000000002,
      "d": 156.24874999999975,
      "v": 77
    },
    {
      "midi": 66,
      "hit": false,
      "t": 5624.955000000002,
      "d": 159.03890624999985,
      "v": 78
    },
    {
      "midi": 58,
      "hit": false,
      "t": 5624.955000000002,
      "d": 164.61921875000007,
      "v": 76
    },
    {
      "midi": 60,
      "hit": false,
      "t": 5624.955000000002,
      "d": 164.61921875000007,
      "v": 82
    },
    {
      "midi": 66,
      "hit": false,
      "t": 6160.665000000002,
      "d": 206.4715624999999,
      "v": 80
    },
    {
      "midi": 63,
      "hit": false,
      "t": 6160.665000000002,
      "d": 209.26171875,
      "v": 78
    },
    {
      "midi": 60,
      "hit": false,
      "t": 6160.665000000002,
      "d": 217.63218750000033,
      "v": 86
    },
    {
      "midi": 58,
      "hit": false,
      "t": 6160.665000000002,
      "d": 226.00265625000065,
      "v": 78
    },
    {
      "midi": 66,
      "hit": false,
      "t": 6696.375000000003,
      "d": 206.4715624999999,
      "v": 83
    },
    {
      "midi": 63,
      "hit": false,
      "t": 6696.375000000003,
      "d": 209.26171875,
      "v": 78
    },
    {
      "midi": 60,
      "hit": false,
      "t": 6696.375000000003,
      "d": 220.42234375000044,
      "v": 81
    },
    {
      "midi": 58,
      "hit": false,
      "t": 6696.375000000003,
      "d": 226.00265625000065,
      "v": 75
    },
    {
      "midi": 66,
      "hit": false,
      "t": 7232.085000000004,
      "d": 200.89124999999967,
      "v": 78
    },
    {
      "midi": 60,
      "hit": false,
      "t": 7232.085000000004,
      "d": 203.68140624999978,
      "v": 82
    },
    {
      "midi": 63,
      "hit": false,
      "t": 7232.085000000004,
      "d": 203.68140624999978,
      "v": 78
    },
    {
      "midi": 58,
      "hit": false,
      "t": 7232.085000000004,
      "d": 217.63218749999942,
      "v": 74
    },
    {
      "midi": 63,
      "hit": false,
      "t": 7767.795000000003,
      "d": 172.9896875000004,
      "v": 79
    },
    {
      "midi": 66,
      "hit": false,
      "t": 7767.795000000003,
      "d": 172.9896875000004,
      "v": 78
    },
    {
      "midi": 60,
      "hit": false,
      "t": 7767.795000000003,
      "d": 203.6814062500007,
      "v": 80
    },
    {
      "midi": 58,
      "hit": false,
      "t": 7767.795000000003,
      "d": 209.2617187500009,
      "v": 73
    },
    {
      "midi": 63,
      "hit": false,
      "t": 8303.505000000005,
      "d": 139.5078125,
      "v": 78
    },
    {
      "midi": 66,
      "hit": false,
      "t": 8303.505000000005,
      "d": 145.08812500000022,
      "v": 78
    },
    {
      "midi": 60,
      "hit": false,
      "t": 8303.505000000005,
      "d": 150.66843750000044,
      "v": 82
    },
    {
      "midi": 58,
      "hit": false,
      "t": 8303.505000000005,
      "d": 167.4093750000011,
      "v": 70
    },
    {
      "midi": 39,
      "hit": false,
      "t": 8571.360000000006,
      "d": 253.90421874999993,
      "v": 96
    },
    {
      "midi": 27,
      "hit": false,
      "t": 8571.360000000006,
      "d": 273.4353124999998,
      "v": 108
    },
    {
      "midi": 63,
      "hit": false,
      "t": 8839.215000000006,
      "d": 206.4715625000008,
      "v": 73
    },
    {
      "midi": 66,
      "hit": false,
      "t": 8839.215000000006,
      "d": 214.84203125000022,
      "v": 74
    },
    {
      "midi": 60,
      "hit": false,
      "t": 8839.215000000006,
      "d": 220.42234375000044,
      "v": 82
    },
    {
      "midi": 58,
      "hit": false,
      "t": 8839.215000000006,
      "d": 223.21249999999964,
      "v": 74
    },
    {
      "midi": 66,
      "hit": false,
      "t": 9374.925000000005,
      "d": 226.00265625000065,
      "v": 78
    },
    {
      "midi": 63,
      "hit": false,
      "t": 9374.925000000005,
      "d": 231.58296875000087,
      "v": 78
    },
    {
      "midi": 58,
      "hit": false,
      "t": 9374.925000000005,
      "d": 234.37312500000007,
      "v": 77
    },
    {
      "midi": 60,
      "hit": false,
      "t": 9374.925000000005,
      "d": 234.37312500000007,
      "v": 82
    },
    {
      "midi": 66,
      "hit": false,
      "t": 9910.635000000006,
      "d": 239.9534375000003,
      "v": 82
    },
    {
      "midi": 63,
      "hit": false,
      "t": 9910.635000000006,
      "d": 242.7435937499995,
      "v": 82
    },
    {
      "midi": 60,
      "hit": false,
      "t": 9910.635000000006,
      "d": 253.90421874999993,
      "v": 83
    },
    {
      "midi": 58,
      "hit": false,
      "t": 9910.635000000006,
      "d": 256.6943749999991,
      "v": 78
    },
    {
      "midi": 66,
      "hit": false,
      "t": 10446.345000000005,
      "d": 217.63218749999942,
      "v": 79
    },
    {
      "midi": 63,
      "hit": false,
      "t": 10446.345000000005,
      "d": 220.42234374999862,
      "v": 81
    },
    {
      "midi": 60,
      "hit": false,
      "t": 10446.345000000005,
      "d": 231.58296874999905,
      "v": 85
    },
    {
      "midi": 58,
      "hit": false,
      "t": 10446.345000000005,
      "d": 242.7435937499995,
      "v": 75
    },
    {
      "midi": 66,
      "hit": false,
      "t": 10982.055000000004,
      "d": 217.63218749999942,
      "v": 80
    },
    {
      "midi": 63,
      "hit": false,
      "t": 10982.055000000004,
      "d": 242.7435937499995,
      "v": 79
    },
    {
      "midi": 60,
      "hit": false,
      "t": 10982.055000000004,
      "d": 253.90421874999993,
      "v": 83
    },
    {
      "midi": 58,
      "hit": false,
      "t": 10982.055000000004,
      "d": 259.48453125000015,
      "v": 77
    },
    {
      "midi": 66,
      "hit": false,
      "t": 11517.765000000005,
      "d": 220.42234375000044,
      "v": 81
    },
    {
      "midi": 63,
      "hit": false,
      "t": 11517.765000000005,
      "d": 242.7435937500013,
      "v": 77
    },
    {
      "midi": 60,
      "hit": false,
      "t": 11517.765000000005,
      "d": 248.32390625000153,
      "v": 83
    },
    {
      "midi": 58,
      "hit": false,
      "t": 11517.765000000005,
      "d": 256.69437500000095,
      "v": 73
    },
    {
      "midi": 63,
      "hit": false,
      "t": 12053.475000000006,
      "d": 245.5337500000005,
      "v": 81
    },
    {
      "midi": 66,
      "hit": false,
      "t": 12053.475000000006,
      "d": 245.5337500000005,
      "v": 78
    },
    {
      "midi": 60,
      "hit": false,
      "t": 12053.475000000006,
      "d": 256.69437500000095,
      "v": 87
    },
    {
      "midi": 58,
      "hit": false,
      "t": 12053.475000000006,
      "d": 267.8550000000014,
      "v": 74
    },
    {
      "midi": 63,
      "hit": false,
      "t": 12589.185000000007,
      "d": 189.73062500000015,
      "v": 79
    },
    {
      "midi": 66,
      "hit": false,
      "t": 12589.185000000007,
      "d": 192.52078124999935,
      "v": 79
    },
    {
      "midi": 60,
      "hit": false,
      "t": 12589.185000000007,
      "d": 198.10109374999956,
      "v": 85
    },
    {
      "midi": 58,
      "hit": false,
      "t": 12589.185000000007,
      "d": 220.42234375000044,
      "v": 73
    },
    {
      "midi": 27,
      "hit": false,
      "t": 12857.040000000006,
      "d": 239.9534375000003,
      "v": 103
    },
    {
      "midi": 39,
      "hit": false,
      "t": 12857.040000000006,
      "d": 245.5337500000005,
      "v": 86
    },
    {
      "midi": 63,
      "hit": false,
      "t": 13124.895000000008,
      "d": 220.42234375000044,
      "v": 78
    },
    {
      "midi": 66,
      "hit": false,
      "t": 13124.895000000008,
      "d": 226.00265625000065,
      "v": 72
    },
    {
      "midi": 60,
      "hit": false,
      "t": 13124.895000000008,
      "d": 228.79281249999985,
      "v": 82
    },
    {
      "midi": 58,
      "hit": false,
      "t": 13124.895000000008,
      "d": 234.37312500000007,
      "v": 73
    },
    {
      "midi": 66,
      "hit": false,
      "t": 13660.605000000009,
      "d": 228.79281249999985,
      "v": 81
    },
    {
      "midi": 63,
      "hit": false,
      "t": 13660.605000000009,
      "d": 231.58296874999905,
      "v": 79
    },
    {
      "midi": 58,
      "hit": false,
      "t": 13660.605000000009,
      "d": 242.7435937499995,
      "v": 78
    },
    {
      "midi": 60,
      "hit": false,
      "t": 13660.605000000009,
      "d": 242.7435937499995,
      "v": 87
    },
    {
      "midi": 60,
      "hit": false,
      "t": 14196.315000000008,
      "d": 203.68140624999978,
      "v": 90
    },
    {
      "midi": 63,
      "hit": false,
      "t": 14196.315000000008,
      "d": 203.68140624999978,
      "v": 78
    },
    {
      "midi": 58,
      "hit": false,
      "t": 14196.315000000008,
      "d": 209.26171875,
      "v": 79
    },
    {
      "midi": 66,
      "hit": false,
      "t": 14196.315000000008,
      "d": 209.26171875,
      "v": 81
    },
    {
      "midi": 63,
      "hit": false,
      "t": 14732.025000000009,
      "d": 192.52078124999935,
      "v": 83
    },
    {
      "midi": 66,
      "hit": false,
      "t": 14732.025000000009,
      "d": 192.52078124999935,
      "v": 80
    },
    {
      "midi": 60,
      "hit": false,
      "t": 14732.025000000009,
      "d": 209.26171875,
      "v": 85
    },
    {
      "midi": 58,
      "hit": false,
      "t": 14732.025000000009,
      "d": 217.63218749999942,
      "v": 78
    },
    {
      "midi": 66,
      "hit": false,
      "t": 15267.735000000008,
      "d": 200.89125000000058,
      "v": 81
    },
    {
      "midi": 63,
      "hit": false,
      "t": 15267.735000000008,
      "d": 209.26171875,
      "v": 81
    },
    {
      "midi": 58,
      "hit": false,
      "t": 15267.735000000008,
      "d": 231.58296875000087,
      "v": 77
    },
    {
      "midi": 60,
      "hit": false,
      "t": 15267.735000000008,
      "d": 231.58296875000087,
      "v": 85
    },
    {
      "midi": 58,
      "hit": false,
      "t": 15803.445000000009,
      "d": 262.27468749999935,
      "v": 88
    },
    {
      "midi": 60,
      "hit": false,
      "t": 15803.445000000009,
      "d": 262.27468749999935,
      "v": 85
    },
    {
      "midi": 63,
      "hit": false,
      "t": 15803.445000000009,
      "d": 262.27468749999935,
      "v": 82
    },
    {
      "midi": 66,
      "hit": false,
      "t": 15803.445000000009,
      "d": 262.27468749999935,
      "v": 85
    },
    {
      "midi": 63,
      "hit": false,
      "t": 16339.155000000008,
      "d": 217.63218750000124,
      "v": 80
    },
    {
      "midi": 60,
      "hit": false,
      "t": 16339.155000000008,
      "d": 223.21249999999964,
      "v": 82
    },
    {
      "midi": 66,
      "hit": false,
      "t": 16339.155000000008,
      "d": 228.79281249999804,
      "v": 80
    },
    {
      "midi": 58,
      "hit": false,
      "t": 16339.155000000008,
      "d": 237.16328124999745,
      "v": 73
    },
    {
      "midi": 63,
      "hit": false,
      "t": 16874.865000000005,
      "d": 198.10109374999956,
      "v": 78
    },
    {
      "midi": 66,
      "hit": false,
      "t": 16874.865000000005,
      "d": 203.68140624999796,
      "v": 81
    },
    {
      "midi": 60,
      "hit": false,
      "t": 16874.865000000005,
      "d": 214.8420312499984,
      "v": 83
    },
    {
      "midi": 58,
      "hit": false,
      "t": 16874.865000000005,
      "d": 223.21249999999782,
      "v": 79
    },
    {
      "midi": 27,
      "hit": false,
      "t": 17142.720000000005,
      "d": 209.26171875,
      "v": 104
    },
    {
      "midi": 39,
      "hit": false,
      "t": 17142.720000000005,
      "d": 220.42234375000044,
      "v": 93
    },
    {
      "midi": 66,
      "hit": false,
      "t": 17410.575000000004,
      "d": 214.8420312499984,
      "v": 75
    },
    {
      "midi": 63,
      "hit": false,
      "t": 17410.575000000004,
      "d": 226.00265624999884,
      "v": 75
    },
    {
      "midi": 60,
      "hit": false,
      "t": 17410.575000000004,
      "d": 237.16328124999927,
      "v": 82
    },
    {
      "midi": 58,
      "hit": false,
      "t": 17410.575000000004,
      "d": 251.11406250000073,
      "v": 78
    },
    {
      "midi": 60,
      "hit": false,
      "t": 17946.285000000003,
      "d": 217.63218749999942,
      "v": 89
    },
    {
      "midi": 63,
      "hit": false,
      "t": 17946.285000000003,
      "d": 217.63218749999942,
      "v": 78
    },
    {
      "midi": 66,
      "hit": false,
      "t": 17946.285000000003,
      "d": 217.63218749999942,
      "v": 83
    },
    {
      "midi": 58,
      "hit": false,
      "t": 17946.285000000003,
      "d": 228.79281249999985,
      "v": 80
    },
    {
      "midi": 63,
      "hit": false,
      "t": 18481.995000000003,
      "d": 186.94046874999913,
      "v": 79
    },
    {
      "midi": 66,
      "hit": false,
      "t": 18481.995000000003,
      "d": 189.73062500000015,
      "v": 80
    },
    {
      "midi": 60,
      "hit": false,
      "t": 18481.995000000003,
      "d": 198.10109374999956,
      "v": 86
    },
    {
      "midi": 58,
      "hit": false,
      "t": 18481.995000000003,
      "d": 206.47156249999898,
      "v": 77
    },
    {
      "midi": 66,
      "hit": false,
      "t": 19017.705,
      "d": 192.52078125000116,
      "v": 79
    },
    {
      "midi": 63,
      "hit": false,
      "t": 19017.705,
      "d": 200.89125000000058,
      "v": 78
    },
    {
      "midi": 60,
      "hit": false,
      "t": 19017.705,
      "d": 217.63218749999942,
      "v": 83
    },
    {
      "midi": 58,
      "hit": false,
      "t": 19017.705,
      "d": 223.21249999999782,
      "v": 75
    },
    {
      "midi": 60,
      "hit": false,
      "t": 19553.415,
      "d": 217.63218749999942,
      "v": 88
    },
    {
      "midi": 63,
      "hit": false,
      "t": 19553.415,
      "d": 217.63218749999942,
      "v": 75
    },
    {
      "midi": 66,
      "hit": false,
      "t": 19553.415,
      "d": 217.63218749999942,
      "v": 80
    },
    {
      "midi": 58,
      "hit": false,
      "t": 19553.415,
      "d": 226.00265624999884,
      "v": 81
    },
    {
      "midi": 66,
      "hit": false,
      "t": 20089.125,
      "d": 217.63218749999942,
      "v": 79
    },
    {
      "midi": 63,
      "hit": false,
      "t": 20089.125,
      "d": 220.42234375000044,
      "v": 81
    },
    {
      "midi": 58,
      "hit": false,
      "t": 20089.125,
      "d": 234.3731250000019,
      "v": 78
    },
    {
      "midi": 60,
      "hit": false,
      "t": 20089.125,
      "d": 234.3731250000019,
      "v": 84
    },
    {
      "midi": 63,
      "hit": false,
      "t": 20624.835000000003,
      "d": 200.89125000000058,
      "v": 85
    },
    {
      "midi": 66,
      "hit": false,
      "t": 20624.835000000003,
      "d": 206.47156249999898,
      "v": 83
    },
    {
      "midi": 60,
      "hit": false,
      "t": 20624.835000000003,
      "d": 214.8420312499984,
      "v": 84
    },
    {
      "midi": 58,
      "hit": false,
      "t": 20624.835000000003,
      "d": 231.58296874999724,
      "v": 78
    },
    {
      "midi": 63,
      "hit": false,
      "t": 21160.545,
      "d": 164.61921874999825,
      "v": 79
    },
    {
      "midi": 58,
      "hit": false,
      "t": 21160.545,
      "d": 172.98968749999767,
      "v": 76
    },
    {
      "midi": 60,
      "hit": false,
      "t": 21160.545,
      "d": 172.98968749999767,
      "v": 82
    },
    {
      "midi": 66,
      "hit": false,
      "t": 21160.545,
      "d": 172.98968749999767,
      "v": 80
    },
    {
      "midi": 27,
      "hit": false,
      "t": 21428.399999999994,
      "d": 189.73062500000015,
      "v": 106
    },
    {
      "midi": 39,
      "hit": false,
      "t": 21428.399999999994,
      "d": 198.10109374999956,
      "v": 91
    },
    {
      "midi": 63,
      "hit": false,
      "t": 21696.254999999994,
      "d": 212.05187500000102,
      "v": 78
    },
    {
      "midi": 60,
      "hit": false,
      "t": 21696.254999999994,
      "d": 223.21250000000146,
      "v": 80
    },
    {
      "midi": 66,
      "hit": false,
      "t": 21696.254999999994,
      "d": 223.21250000000146,
      "v": 73
    },
    {
      "midi": 58,
      "hit": false,
      "t": 21696.254999999994,
      "d": 239.9534375000003,
      "v": 70
    },
    {
      "midi": 63,
      "hit": false,
      "t": 22231.964999999993,
      "d": 181.36015625000073,
      "v": 78
    },
    {
      "midi": 66,
      "hit": false,
      "t": 22231.964999999993,
      "d": 184.15031250000175,
      "v": 78
    },
    {
      "midi": 60,
      "hit": false,
      "t": 22231.964999999993,
      "d": 192.52078125000116,
      "v": 82
    },
    {
      "midi": 58,
      "hit": false,
      "t": 22231.964999999993,
      "d": 206.47156250000262,
      "v": 72
    },
    {
      "midi": 66,
      "hit": false,
      "t": 22767.674999999996,
      "d": 192.52078125000116,
      "v": 81
    },
    {
      "midi": 63,
      "hit": false,
      "t": 22767.674999999996,
      "d": 198.10109374999956,
      "v": 82
    },
    {
      "midi": 60,
      "hit": false,
      "t": 22767.674999999996,
      "d": 209.26171875,
      "v": 84
    },
    {
      "midi": 58,
      "hit": false,
      "t": 22767.674999999996,
      "d": 226.00265624999884,
      "v": 78
    },
    {
      "midi": 60,
      "hit": false,
      "t": 23303.384999999995,
      "d": 145.0881249999984,
      "v": 86
    },
    {
      "midi": 63,
      "hit": false,
      "t": 23303.384999999995,
      "d": 147.87828124999942,
      "v": 79
    },
    {
      "midi": 66,
      "hit": false,
      "t": 23303.384999999995,
      "d": 153.45859374999782,
      "v": 82
    },
    {
      "midi": 58,
      "hit": false,
      "t": 23303.384999999995,
      "d": 161.82906249999724,
      "v": 78
    },
    {
      "midi": 65,
      "hit": false,
      "t": 23839.094999999994,
      "d": 167.40937499999927,
      "v": 91
    },
    {
      "midi": 62,
      "hit": false,
      "t": 23839.094999999994,
      "d": 206.47156249999898,
      "v": 93
    },
    {
      "midi": 58,
      "hit": false,
      "t": 23839.094999999994,
      "d": 212.05187499999738,
      "v": 81
    },
    {
      "midi": 58,
      "hit": false,
      "t": 24374.804999999993,
      "d": 270.6451562500006,
      "v": 86
    },
    {
      "midi": 62,
      "hit": false,
      "t": 24374.804999999993,
      "d": 270.6451562500006,
      "v": 97
    },
    {
      "midi": 65,
      "hit": false,
      "t": 24374.804999999993,
      "d": 279.015625,
      "v": 86
    },
    {
      "midi": 65,
      "hit": false,
      "t": 24910.514999999992,
      "d": 262.27468750000116,
      "v": 88
    },
    {
      "midi": 62,
      "hit": false,
      "t": 24910.514999999992,
      "d": 279.015625,
      "v": 96
    },
    {
      "midi": 58,
      "hit": false,
      "t": 24910.514999999992,
      "d": 284.5959374999984,
      "v": 87
    },
    {
      "midi": 62,
      "hit": false,
      "t": 25446.22499999999,
      "d": 178.5699999999997,
      "v": 94
    },
    {
      "midi": 58,
      "hit": false,
      "t": 25446.22499999999,
      "d": 195.31093749999854,
      "v": 86
    },
    {
      "midi": 65,
      "hit": false,
      "t": 25446.22499999999,
      "d": 262.2746874999975,
      "v": 89
    },
    {
      "midi": 69,
      "hit": false,
      "t": 25981.93499999999,
      "d": 214.8420312499984,
      "v": 92
    },
    {
      "midi": 65,
      "hit": false,
      "t": 25981.93499999999,
      "d": 234.37312499999825,
      "v": 89
    },
    {
      "midi": 62,
      "hit": false,
      "t": 25981.93499999999,
      "d": 239.95343749999665,
      "v": 90
    },
    {
      "midi": 67,
      "hit": false,
      "t": 26517.644999999986,
      "d": 19.531093749999854,
      "v": 70
    },
    {
      "midi": 62,
      "hit": false,
      "t": 26517.644999999986,
      "d": 256.6943749999991,
      "v": 91
    },
    {
      "midi": 65,
      "hit": false,
      "t": 26517.644999999986,
      "d": 265.06484374999854,
      "v": 96
    },
    {
      "midi": 69,
      "hit": false,
      "t": 26517.644999999986,
      "d": 270.64515624999694,
      "v": 88
    },
    {
      "midi": 62,
      "hit": false,
      "t": 27053.35499999998,
      "d": 259.48453125000015,
      "v": 86
    },
    {
      "midi": 65,
      "hit": false,
      "t": 27053.35499999998,
      "d": 265.06484374999854,
      "v": 88
    },
    {
      "midi": 69,
      "hit": false,
      "t": 27053.35499999998,
      "d": 265.06484374999854,
      "v": 87
    },
    {
      "midi": 69,
      "hit": false,
      "t": 27589.06499999998,
      "d": 198.10109374999956,
      "v": 88
    },
    {
      "midi": 65,
      "hit": false,
      "t": 27589.06499999998,
      "d": 209.26171875,
      "v": 93
    },
    {
      "midi": 62,
      "hit": false,
      "t": 27589.06499999998,
      "d": 217.63218749999942,
      "v": 90
    },
    {
      "midi": 64,
      "hit": false,
      "t": 28124.77499999998,
      "d": 245.5337499999987,
      "v": 92
    },
    {
      "midi": 69,
      "hit": false,
      "t": 28124.77499999998,
      "d": 251.1140624999971,
      "v": 93
    },
    {
      "midi": 60,
      "hit": false,
      "t": 28124.77499999998,
      "d": 262.2746874999975,
      "v": 89
    },
    {
      "midi": 64,
      "hit": false,
      "t": 28660.48499999998,
      "d": 242.7435937500013,
      "v": 91
    },
    {
      "midi": 60,
      "hit": false,
      "t": 28660.48499999998,
      "d": 245.53375000000233,
      "v": 82
    },
    {
      "midi": 69,
      "hit": false,
      "t": 28660.48499999998,
      "d": 251.11406250000073,
      "v": 86
    },
    {
      "midi": 64,
      "hit": false,
      "t": 29196.194999999978,
      "d": 265.06484374999854,
      "v": 88
    },
    {
      "midi": 69,
      "hit": false,
      "t": 29196.194999999978,
      "d": 265.06484374999854,
      "v": 85
    },
    {
      "midi": 60,
      "hit": false,
      "t": 29196.194999999978,
      "d": 270.64515624999694,
      "v": 84
    },
    {
      "midi": 69,
      "hit": false,
      "t": 29731.904999999973,
      "d": 200.89125000000058,
      "v": 82
    },
    {
      "midi": 64,
      "hit": false,
      "t": 29731.904999999973,
      "d": 206.47156249999898,
      "v": 89
    },
    {
      "midi": 60,
      "hit": false,
      "t": 29731.904999999973,
      "d": 231.58296874999724,
      "v": 82
    },
    {
      "midi": 63,
      "hit": false,
      "t": 30267.61499999997,
      "d": 256.6943749999991,
      "v": 81
    },
    {
      "midi": 58,
      "hit": false,
      "t": 30267.61499999997,
      "d": 259.48453125000015,
      "v": 79
    },
    {
      "midi": 60,
      "hit": false,
      "t": 30267.61499999997,
      "d": 259.48453125000015,
      "v": 86
    },
    {
      "midi": 66,
      "hit": false,
      "t": 30267.61499999997,
      "d": 273.4353125000016,
      "v": 79
    },
    {
      "midi": 63,
      "hit": false,
      "t": 30803.32499999997,
      "d": 186.94046874999913,
      "v": 82
    },
    {
      "midi": 66,
      "hit": false,
      "t": 30803.32499999997,
      "d": 192.52078124999753,
      "v": 78
    },
    {
      "midi": 60,
      "hit": false,
      "t": 30803.32499999997,
      "d": 206.47156249999898,
      "v": 82
    },
    {
      "midi": 58,
      "hit": false,
      "t": 30803.32499999997,
      "d": 214.8420312499984,
      "v": 75
    },
    {
      "midi": 63,
      "hit": false,
      "t": 31339.03499999997,
      "d": 206.47156249999898,
      "v": 81
    },
    {
      "midi": 66,
      "hit": false,
      "t": 31339.03499999997,
      "d": 209.26171875,
      "v": 78
    },
    {
      "midi": 60,
      "hit": false,
      "t": 31339.03499999997,
      "d": 231.58296875000087,
      "v": 87
    },
    {
      "midi": 58,
      "hit": false,
      "t": 31339.03499999997,
      "d": 242.7435937500013,
      "v": 78
    },
    {
      "midi": 66,
      "hit": false,
      "t": 31874.744999999974,
      "d": 147.87828124999942,
      "v": 78
    },
    {
      "midi": 60,
      "hit": false,
      "t": 31874.744999999974,
      "d": 156.24874999999884,
      "v": 86
    },
    {
      "midi": 63,
      "hit": false,
      "t": 31874.744999999974,
      "d": 172.98968749999767,
      "v": 80
    },
    {
      "midi": 58,
      "hit": false,
      "t": 31874.744999999974,
      "d": 184.1503124999981,
      "v": 78
    },
    {
      "midi": 65,
      "hit": false,
      "t": 32410.454999999973,
      "d": 203.6814062500016,
      "v": 83
    },
    {
      "midi": 58,
      "hit": false,
      "t": 32410.454999999973,
      "d": 206.47156250000262,
      "v": 85
    },
    {
      "midi": 62,
      "hit": false,
      "t": 32410.454999999973,
      "d": 206.47156250000262,
      "v": 96
    },
    {
      "midi": 58,
      "hit": false,
      "t": 32946.16499999997,
      "d": 200.89125000000058,
      "v": 81
    },
    {
      "midi": 62,
      "hit": false,
      "t": 32946.16499999997,
      "d": 206.47156250000262,
      "v": 94
    },
    {
      "midi": 65,
      "hit": false,
      "t": 32946.16499999997,
      "d": 212.05187500000466,
      "v": 84
    },
    {
      "midi": 65,
      "hit": false,
      "t": 33481.87499999998,
      "d": 226.00265624999884,
      "v": 85
    },
    {
      "midi": 62,
      "hit": false,
      "t": 33481.87499999998,
      "d": 234.37312499999825,
      "v": 97
    },
    {
      "midi": 58,
      "hit": false,
      "t": 33481.87499999998,
      "d": 242.74359374999767,
      "v": 88
    },
    {
      "midi": 62,
      "hit": false,
      "t": 34017.58499999998,
      "d": 142.29796874999738,
      "v": 91
    },
    {
      "midi": 58,
      "hit": false,
      "t": 34017.58499999998,
      "d": 156.24874999999884,
      "v": 77
    },
    {
      "midi": 65,
      "hit": false,
      "t": 34017.58499999998,
      "d": 200.89125000000058,
      "v": 82
    },
    {
      "midi": 69,
      "hit": false,
      "t": 34553.29499999998,
      "d": 184.15031250000175,
      "v": 84
    },
    {
      "midi": 65,
      "hit": false,
      "t": 34553.29499999998,
      "d": 186.94046874999913,
      "v": 82
    },
    {
      "midi": 62,
      "hit": false,
      "t": 34553.29499999998,
      "d": 192.52078125000116,
      "v": 87
    },
    {
      "midi": 69,
      "hit": false,
      "t": 35089.004999999976,
      "d": 172.98968749999767,
      "v": 89
    },
    {
      "midi": 65,
      "hit": false,
      "t": 35089.004999999976,
      "d": 184.15031249999447,
      "v": 91
    },
    {
      "midi": 62,
      "hit": false,
      "t": 35089.004999999976,
      "d": 186.94046874999185,
      "v": 91
    },
    {
      "midi": 65,
      "hit": false,
      "t": 35624.71499999997,
      "d": 212.05187499999738,
      "v": 82
    },
    {
      "midi": 69,
      "hit": false,
      "t": 35624.71499999997,
      "d": 212.05187499999738,
      "v": 82
    },
    {
      "midi": 62,
      "hit": false,
      "t": 35624.71499999997,
      "d": 217.63218749999942,
      "v": 88
    },
    {
      "midi": 62,
      "hit": false,
      "t": 36160.42499999997,
      "d": 86.49484374999884,
      "v": 88
    },
    {
      "midi": 65,
      "hit": false,
      "t": 36160.42499999997,
      "d": 86.49484374999884,
      "v": 82
    },
    {
      "midi": 69,
      "hit": false,
      "t": 36160.42499999997,
      "d": 86.49484374999884,
      "v": 82
    },
    {
      "midi": 67,
      "hit": false,
      "t": 36428.27999999996,
      "d": 164.61921874999825,
      "v": 92
    },
    {
      "midi": 60,
      "hit": false,
      "t": 36428.27999999996,
      "d": 167.40937499999563,
      "v": 85
    },
    {
      "midi": 64,
      "hit": false,
      "t": 36428.27999999996,
      "d": 170.19953124999302,
      "v": 90
    },
    {
      "midi": 60,
      "hit": false,
      "t": 36696.13499999996,
      "d": 145.08812500000204,
      "v": 90
    },
    {
      "midi": 64,
      "hit": false,
      "t": 36696.13499999996,
      "d": 150.66843750000407,
      "v": 84
    },
    {
      "midi": 67,
      "hit": false,
      "t": 36696.13499999996,
      "d": 164.61921875000553,
      "v": 82
    },
    {
      "midi": 65,
      "hit": false,
      "t": 36963.98999999996,
      "d": 133.92749999999796,
      "v": 96
    },
    {
      "midi": 69,
      "hit": false,
      "t": 36963.98999999996,
      "d": 133.92749999999796,
      "v": 94
    },
    {
      "midi": 62,
      "hit": false,
      "t": 36963.98999999996,
      "d": 136.71765624999534,
      "v": 97
    },
    {
      "midi": 67,
      "hit": false,
      "t": 37231.84499999996,
      "d": 315.2876562500023,
      "v": 97
    },
    {
      "midi": 64,
      "hit": false,
      "t": 37231.84499999996,
      "d": 318.0778124999997,
      "v": 86
    },
    {
      "midi": 70,
      "hit": false,
      "t": 37231.84499999996,
      "d": 323.65812500000175,
      "v": 95
    },
    {
      "midi": 60,
      "hit": false,
      "t": 37767.55499999996,
      "d": 131.13734375000058,
      "v": 86
    },
    {
      "midi": 72,
      "hit": false,
      "t": 37767.55499999996,
      "d": 131.13734375000058,
      "v": 77
    },
    {
      "midi": 60,
      "hit": false,
      "t": 38035.40999999996,
      "d": 186.94046874999913,
      "v": 104
    },
    {
      "midi": 72,
      "hit": false,
      "t": 38035.40999999996,
      "d": 195.31093749999854,
      "v": 105
    },
    {
      "midi": 72,
      "hit": false,
      "t": 38303.264999999956,
      "d": 117.18656249999913,
      "v": 76
    },
    {
      "midi": 60,
      "hit": false,
      "t": 38303.264999999956,
      "d": 145.08812500000204,
      "v": 82
    },
    {
      "midi": 29,
      "hit": false,
      "t": 38571.11999999996,
      "d": 184.15031250000175,
      "v": 98
    },
    {
      "midi": 41,
      "hit": false,
      "t": 38571.11999999996,
      "d": 184.15031250000175,
      "v": 102
    },
    {
      "midi": 69,
      "hit": false,
      "t": 38838.975000000006,
      "d": 83.70468750000146,
      "v": 94
    },
    {
      "midi": 72,
      "hit": false,
      "t": 38838.975000000006,
      "d": 86.49484374999884,
      "v": 92
    },
    {
      "midi": 65,
      "hit": false,
      "t": 38838.975000000006,
      "d": 89.28499999999622,
      "v": 94
    },
    {
      "midi": 60,
      "hit": false,
      "t": 39106.82999999996,
      "d": 114.39640625000175,
      "v": 105
    },
    {
      "midi": 65,
      "hit": false,
      "t": 39106.82999999996,
      "d": 136.71765625000262,
      "v": 97
    },
    {
      "midi": 57,
      "hit": false,
      "t": 39106.82999999996,
      "d": 170.1995312500003,
      "v": 109
    },
    {
      "midi": 69,
      "hit": false,
      "t": 39106.83,
      "d": 133.92749999999796,
      "v": 97
    },
    {
      "midi": 72,
      "hit": false,
      "t": 39106.83,
      "d": 142.29796874999738,
      "v": 90
    },
    {
      "midi": 65,
      "hit": false,
      "t": 39106.83,
      "d": 147.87828124999942,
      "v": 89
    },
    {
      "midi": 29,
      "hit": false,
      "t": 39374.68499999996,
      "d": 78.12437499999942,
      "v": 90
    },
    {
      "midi": 41,
      "hit": false,
      "t": 39374.68499999996,
      "d": 78.12437499999942,
      "v": 86
    },
    {
      "midi": 65,
      "hit": false,
      "t": 39374.685,
      "d": 61.38343750000058,
      "v": 62
    },
    {
      "midi": 72,
      "hit": false,
      "t": 39374.685,
      "d": 66.96375000000262,
      "v": 54
    },
    {
      "midi": 46,
      "hit": false,
      "t": 39642.53999999996,
      "d": 220.4223437499968,
      "v": 95
    },
    {
      "midi": 34,
      "hit": false,
      "t": 39642.53999999996,
      "d": 231.5829687499936,
      "v": 99
    },
    {
      "midi": 70,
      "hit": false,
      "t": 39642.54,
      "d": 103.23578124999767,
      "v": 101
    },
    {
      "midi": 74,
      "hit": false,
      "t": 39642.54,
      "d": 111.60624999999709,
      "v": 101
    },
    {
      "midi": 65,
      "hit": false,
      "t": 39642.54,
      "d": 114.39640624999447,
      "v": 91
    },
    {
      "midi": 58,
      "hit": false,
      "t": 39910.39499999995,
      "d": 78.12437499999942,
      "v": 96
    },
    {
      "midi": 65,
      "hit": false,
      "t": 39910.39499999995,
      "d": 100.44562500000029,
      "v": 76
    },
    {
      "midi": 70,
      "hit": false,
      "t": 39910.395,
      "d": 41.85234374999709,
      "v": 58
    },
    {
      "midi": 65,
      "hit": false,
      "t": 39910.395,
      "d": 58.593281249995925,
      "v": 54
    },
    {
      "midi": 74,
      "hit": false,
      "t": 39910.395,
      "d": 58.593281249995925,
      "v": 58
    },
    {
      "midi": 38,
      "hit": false,
      "t": 40178.249999999956,
      "d": 83.70468750000146,
      "v": 90
    },
    {
      "midi": 60,
      "hit": false,
      "t": 40178.249999999956,
      "d": 242.74359375000495,
      "v": 96
    },
    {
      "midi": 64,
      "hit": false,
      "t": 40178.249999999956,
      "d": 251.11406250000437,
      "v": 96
    },
    {
      "midi": 67,
      "hit": false,
      "t": 40178.249999999956,
      "d": 276.2254687500026,
      "v": 97
    },
    {
      "midi": 48,
      "hit": false,
      "t": 40178.249999999956,
      "d": 281.80578125000466,
      "v": 94
    },
    {
      "midi": 36,
      "hit": false,
      "t": 40178.249999999956,
      "d": 304.12703125000553,
      "v": 91
    },
    {
      "midi": 72,
      "hit": false,
      "t": 40178.24999999999,
      "d": 167.4093750000029,
      "v": 100
    },
    {
      "midi": 76,
      "hit": false,
      "t": 40178.24999999999,
      "d": 178.5699999999997,
      "v": 96
    },
    {
      "midi": 67,
      "hit": false,
      "t": 40178.24999999999,
      "d": 186.94046874999913,
      "v": 96
    },
    {
      "midi": 60,
      "hit": false,
      "t": 40535.38999999996,
      "d": 39.06218749999971,
      "v": 69
    },
    {
      "midi": 45,
      "hit": false,
      "t": 40713.95999999996,
      "d": 256.6943749999991,
      "v": 102
    },
    {
      "midi": 33,
      "hit": false,
      "t": 40713.95999999996,
      "d": 273.43531249999796,
      "v": 102
    },
    {
      "midi": 72,
      "hit": false,
      "t": 40981.814999999995,
      "d": 78.12437499999942,
      "v": 92
    },
    {
      "midi": 76,
      "hit": false,
      "t": 40981.814999999995,
      "d": 78.12437499999942,
      "v": 91
    },
    {
      "midi": 67,
      "hit": false,
      "t": 40981.814999999995,
      "d": 92.07515625000087,
      "v": 93
    },
    {
      "midi": 60,
      "hit": false,
      "t": 41249.66999999996,
      "d": 172.98968749999767,
      "v": 101
    },
    {
      "midi": 64,
      "hit": false,
      "t": 41249.66999999996,
      "d": 172.98968749999767,
      "v": 102
    },
    {
      "midi": 67,
      "hit": false,
      "t": 41249.66999999996,
      "d": 181.3601562499971,
      "v": 107
    },
    {
      "midi": 33,
      "hit": false,
      "t": 41517.52499999996,
      "d": 89.28500000000349,
      "v": 89
    },
    {
      "midi": 45,
      "hit": false,
      "t": 41517.52499999996,
      "d": 106.02593750000233,
      "v": 96
    },
    {
      "midi": 72,
      "hit": false,
      "t": 41517.524999999994,
      "d": 80.9145312499968,
      "v": 85
    },
    {
      "midi": 76,
      "hit": false,
      "t": 41517.524999999994,
      "d": 86.49484374999884,
      "v": 83
    },
    {
      "midi": 67,
      "hit": false,
      "t": 41517.524999999994,
      "d": 92.07515625000087,
      "v": 82
    },
    {
      "midi": 69,
      "hit": false,
      "t": 41785.37999999996,
      "d": 295.75656249999884,
      "v": 97
    },
    {
      "midi": 50,
      "hit": false,
      "t": 41785.37999999996,
      "d": 301.3368750000009,
      "v": 107
    },
    {
      "midi": 65,
      "hit": false,
      "t": 41785.37999999996,
      "d": 306.9171875000029,
      "v": 97
    },
    {
      "midi": 38,
      "hit": false,
      "t": 41785.37999999996,
      "d": 323.65812500000175,
      "v": 100
    },
    {
      "midi": 60,
      "hit": false,
      "t": 41785.37999999996,
      "d": 326.4482812499991,
      "v": 91
    },
    {
      "midi": 77,
      "hit": false,
      "t": 41785.38,
      "d": 337.6089062500032,
      "v": 100
    },
    {
      "midi": 72,
      "hit": false,
      "t": 41785.38,
      "d": 345.9793750000026,
      "v": 93
    },
    {
      "midi": 69,
      "hit": false,
      "t": 41785.38,
      "d": 357.1399999999994,
      "v": 89
    },
    {
      "midi": 60,
      "hit": false,
      "t": 42321.08999999996,
      "d": 228.7928125000035,
      "v": 89
    },
    {
      "midi": 48,
      "hit": false,
      "t": 42321.08999999996,
      "d": 256.6943750000064,
      "v": 100
    },
    {
      "midi": 36,
      "hit": false,
      "t": 42321.08999999996,
      "d": 295.7565625000061,
      "v": 98
    },
    {
      "midi": 64,
      "hit": false,
      "t": 42321.08999999996,
      "d": 354.3498437500093,
      "v": 96
    },
    {
      "midi": 67,
      "hit": false,
      "t": 42321.08999999996,
      "d": 359.93015625001135,
      "v": 92
    },
    {
      "midi": 76,
      "hit": false,
      "t": 42321.09,
      "d": 326.4482812499991,
      "v": 92
    },
    {
      "midi": 72,
      "hit": false,
      "t": 42321.09,
      "d": 340.3990625000006,
      "v": 88
    },
    {
      "midi": 67,
      "hit": false,
      "t": 42321.09,
      "d": 354.34984375000204,
      "v": 92
    },
    {
      "midi": 60,
      "hit": false,
      "t": 42588.94499999996,
      "d": 108.81609375000698,
      "v": 78
    },
    {
      "midi": 43,
      "hit": false,
      "t": 42856.799999999974,
      "d": 217.63218749999942,
      "v": 97
    },
    {
      "midi": 31,
      "hit": false,
      "t": 42856.799999999974,
      "d": 239.9534375000003,
      "v": 104
    },
    {
      "midi": 70,
      "hit": false,
      "t": 42856.799999999996,
      "d": 295.75656249999884,
      "v": 95
    },
    {
      "midi": 74,
      "hit": false,
      "t": 42856.799999999996,
      "d": 304.12703124999825,
      "v": 93
    },
    {
      "midi": 65,
      "hit": false,
      "t": 42856.799999999996,
      "d": 309.7073437500003,
      "v": 88
    },
    {
      "midi": 58,
      "hit": false,
      "t": 43124.65499999998,
      "d": 66.96375000000262,
      "v": 70
    },
    {
      "midi": 62,
      "hit": false,
      "t": 43392.50999999998,
      "d": 184.15031250000175,
      "v": 112
    },
    {
      "midi": 58,
      "hit": false,
      "t": 43392.50999999998,
      "d": 186.94046874999913,
      "v": 106
    },
    {
      "midi": 65,
      "hit": false,
      "t": 43392.50999999998,
      "d": 195.31093749999854,
      "v": 97
    },
    {
      "midi": 43,
      "hit": false,
      "t": 43660.364999999976,
      "d": 142.29796874999738,
      "v": 93
    },
    {
      "midi": 31,
      "hit": false,
      "t": 43928.21999999997,
      "d": 318.0778124999997,
      "v": 105
    },
    {
      "midi": 70,
      "hit": false,
      "t": 43928.219999999994,
      "d": 262.27468750000116,
      "v": 101
    },
    {
      "midi": 65,
      "hit": false,
      "t": 43928.219999999994,
      "d": 265.06484374999854,
      "v": 98
    },
    {
      "midi": 74,
      "hit": false,
      "t": 43928.219999999994,
      "d": 270.6451562500006,
      "v": 97
    },
    {
      "midi": 43,
      "hit": false,
      "t": 44196.074999999975,
      "d": 86.49484374999884,
      "v": 92
    },
    {
      "midi": 58,
      "hit": false,
      "t": 44463.92999999997,
      "d": 172.98968749999767,
      "v": 110
    },
    {
      "midi": 62,
      "hit": false,
      "t": 44463.92999999997,
      "d": 172.98968749999767,
      "v": 112
    },
    {
      "midi": 65,
      "hit": false,
      "t": 44463.92999999997,
      "d": 172.98968749999767,
      "v": 105
    },
    {
      "midi": 43,
      "hit": false,
      "t": 44731.78499999997,
      "d": 128.3471875000032,
      "v": 98
    },
    {
      "midi": 31,
      "hit": false,
      "t": 44999.63999999997,
      "d": 343.18921875000524,
      "v": 112
    },
    {
      "midi": 70,
      "hit": false,
      "t": 44999.63999999999,
      "d": 284.59593750000204,
      "v": 103
    },
    {
      "midi": 65,
      "hit": false,
      "t": 44999.63999999999,
      "d": 287.3860937499994,
      "v": 93
    },
    {
      "midi": 74,
      "hit": false,
      "t": 44999.63999999999,
      "d": 290.1762499999968,
      "v": 98
    },
    {
      "midi": 43,
      "hit": false,
      "t": 45267.49499999997,
      "d": 156.24874999999884,
      "v": 97
    },
    {
      "midi": 58,
      "hit": false,
      "t": 45535.34999999997,
      "d": 167.4093750000029,
      "v": 103
    },
    {
      "midi": 62,
      "hit": false,
      "t": 45535.34999999997,
      "d": 167.4093750000029,
      "v": 112
    },
    {
      "midi": 65,
      "hit": false,
      "t": 45535.34999999997,
      "d": 189.73062500000378,
      "v": 102
    },
    {
      "midi": 31,
      "hit": false,
      "t": 45803.20499999997,
      "d": 111.60624999999709,
      "v": 91
    },
    {
      "midi": 43,
      "hit": false,
      "t": 45803.20499999997,
      "d": 119.97671874999651,
      "v": 98
    },
    {
      "midi": 33,
      "hit": false,
      "t": 46071.05999999997,
      "d": 301.3368750000009,
      "v": 102
    },
    {
      "midi": 72,
      "hit": false,
      "t": 46071.05999999999,
      "d": 292.96640625000146,
      "v": 98
    },
    {
      "midi": 76,
      "hit": false,
      "t": 46071.05999999999,
      "d": 292.96640625000146,
      "v": 97
    },
    {
      "midi": 67,
      "hit": false,
      "t": 46071.05999999999,
      "d": 301.3368750000009,
      "v": 98
    },
    {
      "midi": 55,
      "hit": false,
      "t": 46338.91499999997,
      "d": 139.5078125,
      "v": 101
    },
    {
      "midi": 60,
      "hit": false,
      "t": 46338.91499999997,
      "d": 147.87828124999942,
      "v": 102
    },
    {
      "midi": 64,
      "hit": false,
      "t": 46338.91499999997,
      "d": 150.6684374999968,
      "v": 100
    },
    {
      "midi": 45,
      "hit": false,
      "t": 46606.76999999997,
      "d": 212.05187499999738,
      "v": 90
    },
    {
      "midi": 33,
      "hit": false,
      "t": 46606.76999999997,
      "d": 234.37312499999825,
      "v": 107
    },
    {
      "midi": 55,
      "hit": false,
      "t": 46874.62499999996,
      "d": 103.23578124999767,
      "v": 101
    },
    {
      "midi": 60,
      "hit": false,
      "t": 46874.62499999996,
      "d": 117.18656249999913,
      "v": 105
    },
    {
      "midi": 64,
      "hit": false,
      "t": 46874.62499999996,
      "d": 142.29796874999738,
      "v": 105
    },
    {
      "midi": 29,
      "hit": false,
      "t": 47142.47999999996,
      "d": 410.1529687500006,
      "v": 105
    },
    {
      "midi": 65,
      "hit": false,
      "t": 47142.47999999999,
      "d": 248.3239062499997,
      "v": 84
    },
    {
      "midi": 69,
      "hit": false,
      "t": 47142.47999999999,
      "d": 248.3239062499997,
      "v": 86
    },
    {
      "midi": 72,
      "hit": false,
      "t": 47142.47999999999,
      "d": 248.3239062499997,
      "v": 88
    },
    {
      "midi": 41,
      "hit": false,
      "t": 47410.33499999996,
      "d": 156.24874999999884,
      "v": 97
    },
    {
      "midi": 65,
      "hit": false,
      "t": 47678.18999999996,
      "d": 164.61921874999825,
      "v": 107
    },
    {
      "midi": 69,
      "hit": false,
      "t": 47678.18999999996,
      "d": 164.61921874999825,
      "v": 109
    },
    {
      "midi": 60,
      "hit": false,
      "t": 47678.18999999996,
      "d": 198.10109374999593,
      "v": 97
    },
    {
      "midi": 46,
      "hit": false,
      "t": 47946.044999999955,
      "d": 136.71765625000262,
      "v": 70
    },
    {
      "midi": 69,
      "hit": false,
      "t": 47946.04499999999,
      "d": 72.54406249999738,
      "v": 74
    },
    {
      "midi": 72,
      "hit": false,
      "t": 47946.04499999999,
      "d": 80.9145312499968,
      "v": 76
    },
    {
      "midi": 65,
      "hit": false,
      "t": 47946.04499999999,
      "d": 83.70468749999418,
      "v": 71
    },
    {
      "midi": 53,
      "hit": false,
      "t": 48213.89999999996,
      "d": 203.68140624999796,
      "v": 85
    },
    {
      "midi": 58,
      "hit": false,
      "t": 48213.89999999996,
      "d": 214.84203124999476,
      "v": 87
    },
    {
      "midi": 62,
      "hit": false,
      "t": 48213.89999999996,
      "d": 237.16328124999563,
      "v": 89
    },
    {
      "midi": 34,
      "hit": false,
      "t": 48213.89999999996,
      "d": 262.2746874999939,
      "v": 106
    },
    {
      "midi": 70,
      "hit": false,
      "t": 48213.89999999999,
      "d": 228.7928125000035,
      "v": 98
    },
    {
      "midi": 65,
      "hit": false,
      "t": 48213.89999999999,
      "d": 245.53375000000233,
      "v": 86
    },
    {
      "midi": 74,
      "hit": false,
      "t": 48213.89999999999,
      "d": 253.90421875000175,
      "v": 98
    },
    {
      "midi": 46,
      "hit": false,
      "t": 48481.754999999954,
      "d": 47.43265624999913,
      "v": 86
    },
    {
      "midi": 55,
      "hit": false,
      "t": 48749.60999999995,
      "d": 284.59593750000204,
      "v": 109
    },
    {
      "midi": 60,
      "hit": false,
      "t": 48749.60999999995,
      "d": 284.59593750000204,
      "v": 109
    },
    {
      "midi": 64,
      "hit": false,
      "t": 48749.60999999995,
      "d": 284.59593750000204,
      "v": 114
    },
    {
      "midi": 36,
      "hit": false,
      "t": 48749.60999999995,
      "d": 354.34984375000204,
      "v": 102
    },
    {
      "midi": 76,
      "hit": false,
      "t": 48749.609999999986,
      "d": 253.90421875000175,
      "v": 98
    },
    {
      "midi": 72,
      "hit": false,
      "t": 48749.609999999986,
      "d": 256.6943749999991,
      "v": 96
    },
    {
      "midi": 67,
      "hit": false,
      "t": 48749.609999999986,
      "d": 270.6451562500006,
      "v": 91
    },
    {
      "midi": 48,
      "hit": false,
      "t": 49017.46499999995,
      "d": 80.9145312499968,
      "v": 80
    },
    {
      "midi": 33,
      "hit": false,
      "t": 49285.31999999995,
      "d": 460.37578125000437,
      "v": 107
    },
    {
      "midi": 76,
      "hit": false,
      "t": 49285.319999999985,
      "d": 284.59593750000204,
      "v": 100
    },
    {
      "midi": 67,
      "hit": false,
      "t": 49285.319999999985,
      "d": 292.96640625000146,
      "v": 96
    },
    {
      "midi": 72,
      "hit": false,
      "t": 49285.319999999985,
      "d": 292.96640625000146,
      "v": 88
    },
    {
      "midi": 45,
      "hit": false,
      "t": 49553.17499999995,
      "d": 175.77984375000233,
      "v": 98
    },
    {
      "midi": 55,
      "hit": false,
      "t": 49821.029999999955,
      "d": 147.87828124999942,
      "v": 93
    },
    {
      "midi": 60,
      "hit": false,
      "t": 49821.029999999955,
      "d": 156.24874999999884,
      "v": 97
    },
    {
      "midi": 64,
      "hit": false,
      "t": 49821.029999999955,
      "d": 161.82906250000087,
      "v": 93
    },
    {
      "midi": 33,
      "hit": false,
      "t": 50088.88499999996,
      "d": 80.9145312499968,
      "v": 100
    },
    {
      "midi": 45,
      "hit": false,
      "t": 50088.88499999996,
      "d": 86.49484374999884,
      "v": 94
    },
    {
      "midi": 57,
      "hit": false,
      "t": 50356.739999999954,
      "d": 334.81874999999854,
      "v": 91
    },
    {
      "midi": 60,
      "hit": false,
      "t": 50356.739999999954,
      "d": 334.81874999999854,
      "v": 97
    },
    {
      "midi": 38,
      "hit": false,
      "t": 50356.739999999954,
      "d": 343.18921874999796,
      "v": 112
    },
    {
      "midi": 65,
      "hit": false,
      "t": 50356.739999999954,
      "d": 351.5596874999974,
      "v": 100
    },
    {
      "midi": 77,
      "hit": false,
      "t": 50356.73999999998,
      "d": 251.1140624999971,
      "v": 97
    },
    {
      "midi": 72,
      "hit": false,
      "t": 50356.73999999998,
      "d": 256.6943749999991,
      "v": 98
    },
    {
      "midi": 69,
      "hit": false,
      "t": 50356.73999999998,
      "d": 273.43531249999796,
      "v": 96
    },
    {
      "midi": 36,
      "hit": false,
      "t": 50892.44999999995,
      "d": 242.74359374999767,
      "v": 101
    },
    {
      "midi": 64,
      "hit": false,
      "t": 50892.44999999995,
      "d": 343.18921874999796,
      "v": 101
    },
    {
      "midi": 55,
      "hit": false,
      "t": 50892.44999999995,
      "d": 345.97937499999534,
      "v": 102
    },
    {
      "midi": 60,
      "hit": false,
      "t": 50892.44999999995,
      "d": 345.97937499999534,
      "v": 104
    },
    {
      "midi": 72,
      "hit": false,
      "t": 50892.44999999998,
      "d": 295.75656249999884,
      "v": 98
    },
    {
      "midi": 76,
      "hit": false,
      "t": 50892.44999999998,
      "d": 295.75656249999884,
      "v": 97
    },
    {
      "midi": 67,
      "hit": false,
      "t": 50892.44999999998,
      "d": 320.8679687499971,
      "v": 97
    },
    {
      "midi": 31,
      "hit": false,
      "t": 51428.159999999945,
      "d": 421.31359375000466,
      "v": 107
    },
    {
      "midi": 70,
      "hit": false,
      "t": 51428.15999999998,
      "d": 251.1140624999971,
      "v": 99
    },
    {
      "midi": 74,
      "hit": false,
      "t": 51428.15999999998,
      "d": 265.06484374999854,
      "v": 101
    },
    {
      "midi": 65,
      "hit": false,
      "t": 51428.15999999998,
      "d": 284.59593750000204,
      "v": 97
    },
    {
      "midi": 43,
      "hit": false,
      "t": 51696.01499999995,
      "d": 94.86531249999825,
      "v": 98
    },
    {
      "midi": 62,
      "hit": false,
      "t": 51963.86999999995,
      "d": 206.47156250000262,
      "v": 112
    },
    {
      "midi": 65,
      "hit": false,
      "t": 51963.86999999995,
      "d": 212.05187500000466,
      "v": 102
    },
    {
      "midi": 58,
      "hit": false,
      "t": 51963.86999999995,
      "d": 214.84203125000204,
      "v": 103
    },
    {
      "midi": 43,
      "hit": false,
      "t": 52231.724999999955,
      "d": 139.5078125,
      "v": 102
    },
    {
      "midi": 31,
      "hit": false,
      "t": 52499.57999999996,
      "d": 371.0907812500009,
      "v": 107
    },
    {
      "midi": 70,
      "hit": false,
      "t": 52499.57999999999,
      "d": 270.6451562500006,
      "v": 106
    },
    {
      "midi": 65,
      "hit": false,
      "t": 52499.57999999999,
      "d": 276.2254687500026,
      "v": 91
    },
    {
      "midi": 74,
      "hit": false,
      "t": 52499.57999999999,
      "d": 276.2254687500026,
      "v": 100
    },
    {
      "midi": 43,
      "hit": false,
      "t": 52767.43499999996,
      "d": 133.92749999999796,
      "v": 92
    },
    {
      "midi": 58,
      "hit": false,
      "t": 53035.28999999996,
      "d": 198.1010937500032,
      "v": 103
    },
    {
      "midi": 62,
      "hit": false,
      "t": 53035.28999999996,
      "d": 198.1010937500032,
      "v": 109
    },
    {
      "midi": 65,
      "hit": false,
      "t": 53035.28999999996,
      "d": 209.26171875,
      "v": 101
    },
    {
      "midi": 43,
      "hit": false,
      "t": 53303.14499999996,
      "d": 161.82906250000087,
      "v": 102
    },
    {
      "midi": 31,
      "hit": false,
      "t": 53570.99999999996,
      "d": 393.41203125000175,
      "v": 111
    },
    {
      "midi": 70,
      "hit": false,
      "t": 53570.99999999999,
      "d": 265.06484374999854,
      "v": 104
    },
    {
      "midi": 65,
      "hit": false,
      "t": 53570.99999999999,
      "d": 267.8549999999959,
      "v": 90
    },
    {
      "midi": 74,
      "hit": false,
      "t": 53570.99999999999,
      "d": 284.59593749999476,
      "v": 97
    },
    {
      "midi": 43,
      "hit": false,
      "t": 53838.85499999997,
      "d": 156.24874999999884,
      "v": 96
    },
    {
      "midi": 58,
      "hit": false,
      "t": 54106.70999999996,
      "d": 223.21250000000146,
      "v": 101
    },
    {
      "midi": 62,
      "hit": false,
      "t": 54106.70999999996,
      "d": 223.21250000000146,
      "v": 112
    },
    {
      "midi": 65,
      "hit": false,
      "t": 54106.70999999996,
      "d": 265.06484374999854,
      "v": 101
    },
    {
      "midi": 31,
      "hit": false,
      "t": 54374.56499999996,
      "d": 100.44562500000029,
      "v": 97
    },
    {
      "midi": 43,
      "hit": false,
      "t": 54374.56499999996,
      "d": 111.60624999999709,
      "v": 100
    },
    {
      "midi": 33,
      "hit": false,
      "t": 54642.419999999955,
      "d": 449.2151562500003,
      "v": 104
    },
    {
      "midi": 76,
      "hit": false,
      "t": 54642.41999999999,
      "d": 276.2254687500026,
      "v": 98
    },
    {
      "midi": 67,
      "hit": false,
      "t": 54642.41999999999,
      "d": 279.015625,
      "v": 91
    },
    {
      "midi": 72,
      "hit": false,
      "t": 54642.41999999999,
      "d": 281.8057812499974,
      "v": 94
    },
    {
      "midi": 45,
      "hit": false,
      "t": 54910.27499999996,
      "d": 133.92749999999796,
      "v": 98
    },
    {
      "midi": 67,
      "hit": false,
      "t": 55178.129999999954,
      "d": 223.21250000000146,
      "v": 114
    },
    {
      "midi": 64,
      "hit": false,
      "t": 55178.129999999954,
      "d": 228.7928125000035,
      "v": 109
    },
    {
      "midi": 60,
      "hit": false,
      "t": 55178.129999999954,
      "d": 237.1632812500029,
      "v": 102
    },
    {
      "midi": 45,
      "hit": false,
      "t": 55445.98499999996,
      "d": 75.33421875000204,
      "v": 96
    },
    {
      "midi": 27,
      "hit": false,
      "t": 55713.83999999996,
      "d": 189.7306249999965,
      "v": 106
    },
    {
      "midi": 39,
      "hit": false,
      "t": 55713.83999999996,
      "d": 198.10109374999593,
      "v": 91
    },
    {
      "midi": 63,
      "hit": false,
      "t": 55981.694999999956,
      "d": 212.05187499999738,
      "v": 78
    },
    {
      "midi": 60,
      "hit": false,
      "t": 55981.694999999956,
      "d": 223.21249999999418,
      "v": 80
    },
    {
      "midi": 66,
      "hit": false,
      "t": 55981.694999999956,
      "d": 223.21249999999418,
      "v": 73
    },
    {
      "midi": 58,
      "hit": false,
      "t": 55981.694999999956,
      "d": 239.95343749999302,
      "v": 70
    },
    {
      "midi": 63,
      "hit": false,
      "t": 56517.40499999995,
      "d": 181.3601562499971,
      "v": 78
    },
    {
      "midi": 66,
      "hit": false,
      "t": 56517.40499999995,
      "d": 184.15031249999447,
      "v": 78
    },
    {
      "midi": 60,
      "hit": false,
      "t": 56517.40499999995,
      "d": 192.5207812499939,
      "v": 82
    },
    {
      "midi": 58,
      "hit": false,
      "t": 56517.40499999995,
      "d": 206.47156249999534,
      "v": 72
    },
    {
      "midi": 66,
      "hit": false,
      "t": 57053.11499999994,
      "d": 192.52078125000116,
      "v": 81
    },
    {
      "midi": 63,
      "hit": false,
      "t": 57053.11499999994,
      "d": 198.1010937500032,
      "v": 82
    },
    {
      "midi": 60,
      "hit": false,
      "t": 57053.11499999994,
      "d": 209.26171875,
      "v": 84
    },
    {
      "midi": 58,
      "hit": false,
      "t": 57053.11499999994,
      "d": 226.00265624999884,
      "v": 78
    },
    {
      "midi": 60,
      "hit": false,
      "t": 57588.82499999994,
      "d": 145.08812500000204,
      "v": 86
    },
    {
      "midi": 63,
      "hit": false,
      "t": 57588.82499999994,
      "d": 147.87828124999942,
      "v": 79
    },
    {
      "midi": 66,
      "hit": false,
      "t": 57588.82499999994,
      "d": 153.45859375000146,
      "v": 82
    },
    {
      "midi": 58,
      "hit": false,
      "t": 57588.82499999994,
      "d": 161.82906250000087,
      "v": 78
    },
    {
      "midi": 65,
      "hit": false,
      "t": 58124.53499999994,
      "d": 167.4093750000029,
      "v": 91
    },
    {
      "midi": 62,
      "hit": false,
      "t": 58124.53499999994,
      "d": 206.47156250000262,
      "v": 93
    },
    {
      "midi": 58,
      "hit": false,
      "t": 58124.53499999994,
      "d": 212.05187500000466,
      "v": 81
    },
    {
      "midi": 58,
      "hit": false,
      "t": 58660.244999999944,
      "d": 270.6451562500006,
      "v": 86
    },
    {
      "midi": 62,
      "hit": false,
      "t": 58660.244999999944,
      "d": 270.6451562500006,
      "v": 97
    },
    {
      "midi": 65,
      "hit": false,
      "t": 58660.244999999944,
      "d": 279.015625,
      "v": 86
    },
    {
      "midi": 65,
      "hit": false,
      "t": 59195.95499999994,
      "d": 262.27468750000116,
      "v": 88
    },
    {
      "midi": 62,
      "hit": false,
      "t": 59195.95499999994,
      "d": 279.015625,
      "v": 96
    },
    {
      "midi": 58,
      "hit": false,
      "t": 59195.95499999994,
      "d": 284.59593750000204,
      "v": 87
    },
    {
      "midi": 62,
      "hit": false,
      "t": 59731.66499999994,
      "d": 178.5699999999997,
      "v": 94
    },
    {
      "midi": 58,
      "hit": false,
      "t": 59731.66499999994,
      "d": 195.31093749999854,
      "v": 86
    },
    {
      "midi": 65,
      "hit": false,
      "t": 59731.66499999994,
      "d": 262.27468750000116,
      "v": 89
    },
    {
      "midi": 69,
      "hit": false,
      "t": 60267.37499999994,
      "d": 214.84203125000204,
      "v": 92
    },
    {
      "midi": 65,
      "hit": false,
      "t": 60267.37499999994,
      "d": 234.37312500000553,
      "v": 89
    },
    {
      "midi": 62,
      "hit": false,
      "t": 60267.37499999994,
      "d": 239.95343750000757,
      "v": 90
    },
    {
      "midi": 67,
      "hit": false,
      "t": 60803.08499999995,
      "d": 19.531093750003492,
      "v": 70
    },
    {
      "midi": 62,
      "hit": false,
      "t": 60803.08499999995,
      "d": 256.6943750000064,
      "v": 91
    },
    {
      "midi": 65,
      "hit": false,
      "t": 60803.08499999995,
      "d": 265.0648437500058,
      "v": 96
    },
    {
      "midi": 69,
      "hit": false,
      "t": 60803.08499999995,
      "d": 270.64515625000786,
      "v": 88
    },
    {
      "midi": 62,
      "hit": false,
      "t": 61338.794999999955,
      "d": 259.4845312499965,
      "v": 86
    },
    {
      "midi": 65,
      "hit": false,
      "t": 61338.794999999955,
      "d": 265.06484374999854,
      "v": 88
    },
    {
      "midi": 69,
      "hit": false,
      "t": 61338.794999999955,
      "d": 265.06484374999854,
      "v": 87
    },
    {
      "midi": 69,
      "hit": false,
      "t": 61874.504999999954,
      "d": 198.1010937500032,
      "v": 88
    },
    {
      "midi": 65,
      "hit": false,
      "t": 61874.504999999954,
      "d": 209.26171875,
      "v": 93
    },
    {
      "midi": 62,
      "hit": false,
      "t": 61874.504999999954,
      "d": 217.63218749999942,
      "v": 90
    },
    {
      "midi": 64,
      "hit": false,
      "t": 62410.21499999995,
      "d": 245.53375000000233,
      "v": 92
    },
    {
      "midi": 69,
      "hit": false,
      "t": 62410.21499999995,
      "d": 251.11406250000437,
      "v": 93
    },
    {
      "midi": 60,
      "hit": false,
      "t": 62410.21499999995,
      "d": 262.27468750000116,
      "v": 89
    },
    {
      "midi": 64,
      "hit": false,
      "t": 62945.92499999995,
      "d": 242.74359374999767,
      "v": 91
    },
    {
      "midi": 60,
      "hit": false,
      "t": 62945.92499999995,
      "d": 245.53374999999505,
      "v": 82
    },
    {
      "midi": 69,
      "hit": false,
      "t": 62945.92499999995,
      "d": 251.1140624999971,
      "v": 86
    },
    {
      "midi": 64,
      "hit": false,
      "t": 63481.63499999995,
      "d": 265.06484374999854,
      "v": 88
    },
    {
      "midi": 69,
      "hit": false,
      "t": 63481.63499999995,
      "d": 265.06484374999854,
      "v": 85
    },
    {
      "midi": 60,
      "hit": false,
      "t": 63481.63499999995,
      "d": 270.6451562500006,
      "v": 84
    },
    {
      "midi": 69,
      "hit": false,
      "t": 64017.34499999995,
      "d": 200.89125000000058,
      "v": 82
    },
    {
      "midi": 64,
      "hit": false,
      "t": 64017.34499999995,
      "d": 206.47156250000262,
      "v": 89
    },
    {
      "midi": 60,
      "hit": false,
      "t": 64017.34499999995,
      "d": 231.58296875000087,
      "v": 82
    },
    {
      "midi": 63,
      "hit": false,
      "t": 64553.05499999995,
      "d": 256.6943749999991,
      "v": 81
    },
    {
      "midi": 58,
      "hit": false,
      "t": 64553.05499999995,
      "d": 259.4845312499965,
      "v": 79
    },
    {
      "midi": 60,
      "hit": false,
      "t": 64553.05499999995,
      "d": 259.4845312499965,
      "v": 86
    },
    {
      "midi": 66,
      "hit": false,
      "t": 64553.05499999995,
      "d": 273.43531249999796,
      "v": 79
    },
    {
      "midi": 63,
      "hit": false,
      "t": 65088.76499999995,
      "d": 186.94046874999913,
      "v": 82
    },
    {
      "midi": 66,
      "hit": false,
      "t": 65088.76499999995,
      "d": 192.52078125000116,
      "v": 78
    },
    {
      "midi": 60,
      "hit": false,
      "t": 65088.76499999995,
      "d": 206.47156250000262,
      "v": 82
    },
    {
      "midi": 58,
      "hit": false,
      "t": 65088.76499999995,
      "d": 214.84203125000204,
      "v": 75
    },
    {
      "midi": 63,
      "hit": false,
      "t": 65624.47499999995,
      "d": 206.47156249999534,
      "v": 81
    },
    {
      "midi": 66,
      "hit": false,
      "t": 65624.47499999995,
      "d": 209.26171875,
      "v": 78
    },
    {
      "midi": 60,
      "hit": false,
      "t": 65624.47499999995,
      "d": 231.5829687499936,
      "v": 87
    },
    {
      "midi": 58,
      "hit": false,
      "t": 65624.47499999995,
      "d": 242.74359374999767,
      "v": 78
    },
    {
      "midi": 66,
      "hit": false,
      "t": 66160.18499999994,
      "d": 147.87828124999942,
      "v": 78
    },
    {
      "midi": 60,
      "hit": false,
      "t": 66160.18499999994,
      "d": 156.24874999999884,
      "v": 86
    },
    {
      "midi": 63,
      "hit": false,
      "t": 66160.18499999994,
      "d": 172.98968749999767,
      "v": 80
    },
    {
      "midi": 58,
      "hit": false,
      "t": 66160.18499999994,
      "d": 184.15031250000175,
      "v": 78
    },
    {
      "midi": 65,
      "hit": false,
      "t": 66695.89499999995,
      "d": 203.68140625000524,
      "v": 83
    },
    {
      "midi": 58,
      "hit": false,
      "t": 66695.89499999995,
      "d": 206.4715625000099,
      "v": 85
    },
    {
      "midi": 62,
      "hit": false,
      "t": 66695.89499999995,
      "d": 206.4715625000099,
      "v": 96
    },
    {
      "midi": 58,
      "hit": false,
      "t": 67231.60499999995,
      "d": 200.89125000000058,
      "v": 81
    },
    {
      "midi": 62,
      "hit": false,
      "t": 67231.60499999995,
      "d": 206.47156249999534,
      "v": 94
    },
    {
      "midi": 65,
      "hit": false,
      "t": 67231.60499999995,
      "d": 212.0518749999901,
      "v": 84
    },
    {
      "midi": 65,
      "hit": false,
      "t": 67767.31499999994,
      "d": 226.00265624999884,
      "v": 85
    },
    {
      "midi": 62,
      "hit": false,
      "t": 67767.31499999994,
      "d": 234.37312499999825,
      "v": 97
    },
    {
      "midi": 58,
      "hit": false,
      "t": 67767.31499999994,
      "d": 242.74359374999767,
      "v": 88
    },
    {
      "midi": 62,
      "hit": false,
      "t": 68303.02499999994,
      "d": 142.29796875000466,
      "v": 91
    },
    {
      "midi": 58,
      "hit": false,
      "t": 68303.02499999994,
      "d": 156.24874999999884,
      "v": 77
    },
    {
      "midi": 65,
      "hit": false,
      "t": 68303.02499999994,
      "d": 200.89125000000058,
      "v": 82
    },
    {
      "midi": 69,
      "hit": false,
      "t": 68838.73499999994,
      "d": 184.15031250000175,
      "v": 84
    },
    {
      "midi": 65,
      "hit": false,
      "t": 68838.73499999994,
      "d": 186.9404687500064,
      "v": 82
    },
    {
      "midi": 62,
      "hit": false,
      "t": 68838.73499999994,
      "d": 192.52078125000116,
      "v": 87
    },
    {
      "midi": 69,
      "hit": false,
      "t": 69374.44499999995,
      "d": 172.98968749999767,
      "v": 89
    },
    {
      "midi": 65,
      "hit": false,
      "t": 69374.44499999995,
      "d": 184.15031250000175,
      "v": 91
    },
    {
      "midi": 62,
      "hit": false,
      "t": 69374.44499999995,
      "d": 186.9404687500064,
      "v": 91
    },
    {
      "midi": 65,
      "hit": false,
      "t": 69910.15499999996,
      "d": 212.05187500000466,
      "v": 82
    },
    {
      "midi": 69,
      "hit": false,
      "t": 69910.15499999996,
      "d": 212.05187500000466,
      "v": 82
    },
    {
      "midi": 62,
      "hit": false,
      "t": 69910.15499999996,
      "d": 217.63218749999942,
      "v": 88
    },
    {
      "midi": 62,
      "hit": false,
      "t": 70445.86499999996,
      "d": 86.49484374999884,
      "v": 88
    },
    {
      "midi": 65,
      "hit": false,
      "t": 70445.86499999996,
      "d": 86.49484374999884,
      "v": 82
    },
    {
      "midi": 69,
      "hit": false,
      "t": 70445.86499999996,
      "d": 86.49484374999884,
      "v": 82
    },
    {
      "midi": 67,
      "hit": false,
      "t": 70713.71999999996,
      "d": 164.61921874999825,
      "v": 92
    },
    {
      "midi": 60,
      "hit": false,
      "t": 70713.71999999996,
      "d": 167.4093750000029,
      "v": 85
    },
    {
      "midi": 64,
      "hit": false,
      "t": 70713.71999999996,
      "d": 170.19953125000757,
      "v": 90
    },
    {
      "midi": 60,
      "hit": false,
      "t": 70981.57499999997,
      "d": 145.08812499999476,
      "v": 90
    },
    {
      "midi": 64,
      "hit": false,
      "t": 70981.57499999997,
      "d": 150.66843749998952,
      "v": 84
    },
    {
      "midi": 67,
      "hit": false,
      "t": 70981.57499999997,
      "d": 164.6192187499837,
      "v": 82
    },
    {
      "midi": 65,
      "hit": false,
      "t": 71249.42999999995,
      "d": 133.92750000000524,
      "v": 96
    },
    {
      "midi": 69,
      "hit": false,
      "t": 71249.42999999995,
      "d": 133.92750000000524,
      "v": 94
    },
    {
      "midi": 62,
      "hit": false,
      "t": 71249.42999999995,
      "d": 136.7176562500099,
      "v": 97
    },
    {
      "midi": 67,
      "hit": false,
      "t": 71517.28499999996,
      "d": 315.2876562500023,
      "v": 97
    },
    {
      "midi": 64,
      "hit": false,
      "t": 71517.28499999996,
      "d": 318.077812500007,
      "v": 86
    },
    {
      "midi": 70,
      "hit": false,
      "t": 71517.28499999996,
      "d": 323.65812500000175,
      "v": 95
    },
    {
      "midi": 60,
      "hit": false,
      "t": 72052.99499999997,
      "d": 131.13734375000058,
      "v": 86
    },
    {
      "midi": 72,
      "hit": false,
      "t": 72052.99499999997,
      "d": 131.13734375000058,
      "v": 77
    },
    {
      "midi": 60,
      "hit": false,
      "t": 72320.84999999996,
      "d": 186.9404687500064,
      "v": 104
    },
    {
      "midi": 72,
      "hit": false,
      "t": 72320.84999999996,
      "d": 195.31093750000582,
      "v": 105
    },
    {
      "midi": 72,
      "hit": false,
      "t": 72588.70499999997,
      "d": 117.1865625000064,
      "v": 76
    },
    {
      "midi": 60,
      "hit": false,
      "t": 72588.70499999997,
      "d": 145.0881250000093,
      "v": 82
    },
    {
      "midi": 29,
      "hit": false,
      "t": 72856.55999999998,
      "d": 184.15031250000175,
      "v": 98
    },
    {
      "midi": 41,
      "hit": false,
      "t": 72856.55999999998,
      "d": 184.15031250000175,
      "v": 102
    },
    {
      "midi": 69,
      "hit": false,
      "t": 73124.415,
      "d": 83.70468749999418,
      "v": 94
    },
    {
      "midi": 72,
      "hit": false,
      "t": 73124.415,
      "d": 86.49484374999884,
      "v": 92
    },
    {
      "midi": 65,
      "hit": false,
      "t": 73124.415,
      "d": 89.28500000000349,
      "v": 94
    },
    {
      "midi": 60,
      "hit": false,
      "t": 73392.26999999999,
      "d": 114.39640625000175,
      "v": 105
    },
    {
      "midi": 65,
      "hit": false,
      "t": 73392.26999999999,
      "d": 136.71765624999534,
      "v": 97
    },
    {
      "midi": 57,
      "hit": false,
      "t": 73392.26999999999,
      "d": 170.19953124999302,
      "v": 109
    },
    {
      "midi": 69,
      "hit": false,
      "t": 73392.27,
      "d": 133.92750000000524,
      "v": 97
    },
    {
      "midi": 72,
      "hit": false,
      "t": 73392.27,
      "d": 142.29796875000466,
      "v": 90
    },
    {
      "midi": 65,
      "hit": false,
      "t": 73392.27,
      "d": 147.87828124999942,
      "v": 89
    },
    {
      "midi": 29,
      "hit": false,
      "t": 73660.12499999999,
      "d": 78.12437499999942,
      "v": 90
    },
    {
      "midi": 41,
      "hit": false,
      "t": 73660.12499999999,
      "d": 78.12437499999942,
      "v": 86
    },
    {
      "midi": 65,
      "hit": false,
      "t": 73660.125,
      "d": 61.38343750000058,
      "v": 62
    },
    {
      "midi": 72,
      "hit": false,
      "t": 73660.125,
      "d": 66.96374999999534,
      "v": 54
    },
    {
      "midi": 46,
      "hit": false,
      "t": 73927.97999999998,
      "d": 220.42234375000407,
      "v": 95
    },
    {
      "midi": 34,
      "hit": false,
      "t": 73927.97999999998,
      "d": 231.58296875000815,
      "v": 99
    },
    {
      "midi": 70,
      "hit": false,
      "t": 73927.98,
      "d": 103.23578124999767,
      "v": 101
    },
    {
      "midi": 74,
      "hit": false,
      "t": 73927.98,
      "d": 111.60624999999709,
      "v": 101
    },
    {
      "midi": 65,
      "hit": false,
      "t": 73927.98,
      "d": 114.39640625000175,
      "v": 91
    },
    {
      "midi": 58,
      "hit": false,
      "t": 74195.83499999999,
      "d": 78.12437499999942,
      "v": 96
    },
    {
      "midi": 65,
      "hit": false,
      "t": 74195.83499999999,
      "d": 100.44562499999302,
      "v": 76
    },
    {
      "midi": 70,
      "hit": false,
      "t": 74195.83499999999,
      "d": 41.85234374999709,
      "v": 58
    },
    {
      "midi": 65,
      "hit": false,
      "t": 74195.83499999999,
      "d": 58.593281249995925,
      "v": 54
    },
    {
      "midi": 74,
      "hit": false,
      "t": 74195.83499999999,
      "d": 58.593281249995925,
      "v": 58
    },
    {
      "midi": 38,
      "hit": false,
      "t": 74463.68999999999,
      "d": 83.70468749999418,
      "v": 90
    },
    {
      "midi": 60,
      "hit": false,
      "t": 74463.68999999999,
      "d": 242.74359374999767,
      "v": 96
    },
    {
      "midi": 64,
      "hit": false,
      "t": 74463.68999999999,
      "d": 251.1140624999971,
      "v": 96
    },
    {
      "midi": 67,
      "hit": false,
      "t": 74463.68999999999,
      "d": 276.22546874999534,
      "v": 97
    },
    {
      "midi": 48,
      "hit": false,
      "t": 74463.68999999999,
      "d": 281.8057812499901,
      "v": 94
    },
    {
      "midi": 36,
      "hit": false,
      "t": 74463.68999999999,
      "d": 304.1270312499837,
      "v": 91
    },
    {
      "midi": 72,
      "hit": false,
      "t": 74463.68999999999,
      "d": 167.4093750000029,
      "v": 100
    },
    {
      "midi": 76,
      "hit": false,
      "t": 74463.68999999999,
      "d": 178.57000000000698,
      "v": 96
    },
    {
      "midi": 67,
      "hit": false,
      "t": 74463.68999999999,
      "d": 186.9404687500064,
      "v": 96
    },
    {
      "midi": 60,
      "hit": false,
      "t": 74820.82999999997,
      "d": 39.062187500006985,
      "v": 69
    },
    {
      "midi": 45,
      "hit": false,
      "t": 74999.39999999998,
      "d": 256.6943750000064,
      "v": 102
    },
    {
      "midi": 33,
      "hit": false,
      "t": 74999.39999999998,
      "d": 273.43531250000524,
      "v": 102
    },
    {
      "midi": 72,
      "hit": false,
      "t": 75267.25499999999,
      "d": 78.12437499999942,
      "v": 92
    },
    {
      "midi": 76,
      "hit": false,
      "t": 75267.25499999999,
      "d": 78.12437499999942,
      "v": 91
    },
    {
      "midi": 67,
      "hit": false,
      "t": 75267.25499999999,
      "d": 92.0751562499936,
      "v": 93
    },
    {
      "midi": 60,
      "hit": false,
      "t": 75535.10999999999,
      "d": 172.98968749999767,
      "v": 101
    },
    {
      "midi": 64,
      "hit": false,
      "t": 75535.10999999999,
      "d": 172.98968749999767,
      "v": 102
    },
    {
      "midi": 67,
      "hit": false,
      "t": 75535.10999999999,
      "d": 181.3601562499971,
      "v": 107
    },
    {
      "midi": 33,
      "hit": false,
      "t": 75802.96499999998,
      "d": 89.28500000000349,
      "v": 89
    },
    {
      "midi": 45,
      "hit": false,
      "t": 75802.96499999998,
      "d": 106.02593750000233,
      "v": 96
    },
    {
      "midi": 72,
      "hit": false,
      "t": 75802.96499999998,
      "d": 80.91453125000407,
      "v": 85
    },
    {
      "midi": 76,
      "hit": false,
      "t": 75802.96499999998,
      "d": 86.49484374999884,
      "v": 83
    },
    {
      "midi": 67,
      "hit": false,
      "t": 75802.96499999998,
      "d": 92.0751562499936,
      "v": 82
    },
    {
      "midi": 69,
      "hit": false,
      "t": 76070.81999999998,
      "d": 295.75656249999884,
      "v": 97
    },
    {
      "midi": 50,
      "hit": false,
      "t": 76070.81999999998,
      "d": 301.3368749999936,
      "v": 107
    },
    {
      "midi": 65,
      "hit": false,
      "t": 76070.81999999998,
      "d": 306.91718749998836,
      "v": 97
    },
    {
      "midi": 38,
      "hit": false,
      "t": 76070.81999999998,
      "d": 323.6581249999872,
      "v": 100
    },
    {
      "midi": 60,
      "hit": false,
      "t": 76070.81999999998,
      "d": 326.44828124999185,
      "v": 91
    },
    {
      "midi": 77,
      "hit": false,
      "t": 76070.81999999998,
      "d": 337.6089062499959,
      "v": 100
    },
    {
      "midi": 72,
      "hit": false,
      "t": 76070.81999999998,
      "d": 345.97937499999534,
      "v": 93
    },
    {
      "midi": 69,
      "hit": false,
      "t": 76070.81999999998,
      "d": 357.1399999999994,
      "v": 89
    },
    {
      "midi": 60,
      "hit": false,
      "t": 76606.52999999997,
      "d": 228.7928125000035,
      "v": 89
    },
    {
      "midi": 48,
      "hit": false,
      "t": 76606.52999999997,
      "d": 256.6943750000064,
      "v": 100
    },
    {
      "midi": 36,
      "hit": false,
      "t": 76606.52999999997,
      "d": 295.7565625000134,
      "v": 98
    },
    {
      "midi": 64,
      "hit": false,
      "t": 76606.52999999997,
      "d": 354.3498437500093,
      "v": 96
    },
    {
      "midi": 67,
      "hit": false,
      "t": 76606.52999999997,
      "d": 359.9301562500041,
      "v": 92
    },
    {
      "midi": 76,
      "hit": false,
      "t": 76606.52999999998,
      "d": 326.4482812500064,
      "v": 92
    },
    {
      "midi": 72,
      "hit": false,
      "t": 76606.52999999998,
      "d": 340.3990625000006,
      "v": 88
    },
    {
      "midi": 67,
      "hit": false,
      "t": 76606.52999999998,
      "d": 354.34984374999476,
      "v": 92
    },
    {
      "midi": 60,
      "hit": false,
      "t": 76874.38499999998,
      "d": 108.81609374999243,
      "v": 78
    },
    {
      "midi": 43,
      "hit": false,
      "t": 77142.23999999998,
      "d": 217.63218749999942,
      "v": 97
    },
    {
      "midi": 31,
      "hit": false,
      "t": 77142.23999999998,
      "d": 239.95343749999302,
      "v": 104
    },
    {
      "midi": 70,
      "hit": false,
      "t": 77142.23999999998,
      "d": 295.75656249999884,
      "v": 95
    },
    {
      "midi": 74,
      "hit": false,
      "t": 77142.23999999998,
      "d": 304.12703124999825,
      "v": 93
    },
    {
      "midi": 65,
      "hit": false,
      "t": 77142.23999999998,
      "d": 309.707343749993,
      "v": 88
    },
    {
      "midi": 58,
      "hit": false,
      "t": 77410.09499999997,
      "d": 66.96374999999534,
      "v": 70
    },
    {
      "midi": 62,
      "hit": false,
      "t": 77677.94999999997,
      "d": 184.15031250000175,
      "v": 112
    },
    {
      "midi": 58,
      "hit": false,
      "t": 77677.94999999997,
      "d": 186.9404687500064,
      "v": 106
    },
    {
      "midi": 65,
      "hit": false,
      "t": 77677.94999999997,
      "d": 195.31093750000582,
      "v": 97
    },
    {
      "midi": 43,
      "hit": false,
      "t": 77945.80499999998,
      "d": 142.29796875000466,
      "v": 93
    },
    {
      "midi": 70,
      "hit": false,
      "t": 78213.65999999997,
      "d": 262.27468750000116,
      "v": 101
    },
    {
      "midi": 65,
      "hit": false,
      "t": 78213.65999999997,
      "d": 265.0648437500058,
      "v": 98
    },
    {
      "midi": 74,
      "hit": false,
      "t": 78213.65999999997,
      "d": 270.6451562500006,
      "v": 97
    },
    {
      "midi": 31,
      "hit": false,
      "t": 78213.65999999999,
      "d": 318.07781249999243,
      "v": 105
    },
    {
      "midi": 43,
      "hit": false,
      "t": 78481.51499999998,
      "d": 86.49484374999884,
      "v": 92
    },
    {
      "midi": 58,
      "hit": false,
      "t": 78749.36999999998,
      "d": 172.98968749999767,
      "v": 110
    },
    {
      "midi": 62,
      "hit": false,
      "t": 78749.36999999998,
      "d": 172.98968749999767,
      "v": 112
    },
    {
      "midi": 65,
      "hit": false,
      "t": 78749.36999999998,
      "d": 172.98968749999767,
      "v": 105
    },
    {
      "midi": 43,
      "hit": false,
      "t": 79017.22499999998,
      "d": 128.34718749999593,
      "v": 98
    },
    {
      "midi": 31,
      "hit": false,
      "t": 79285.07999999997,
      "d": 343.1892187499907,
      "v": 112
    },
    {
      "midi": 70,
      "hit": false,
      "t": 79285.07999999997,
      "d": 284.59593749999476,
      "v": 103
    },
    {
      "midi": 65,
      "hit": false,
      "t": 79285.07999999997,
      "d": 287.3860937499994,
      "v": 93
    },
    {
      "midi": 74,
      "hit": false,
      "t": 79285.07999999997,
      "d": 290.1762500000041,
      "v": 98
    },
    {
      "midi": 43,
      "hit": false,
      "t": 79552.93499999997,
      "d": 156.24874999999884,
      "v": 97
    },
    {
      "midi": 58,
      "hit": false,
      "t": 79820.78999999996,
      "d": 167.4093750000029,
      "v": 103
    },
    {
      "midi": 62,
      "hit": false,
      "t": 79820.78999999996,
      "d": 167.4093750000029,
      "v": 112
    },
    {
      "midi": 65,
      "hit": false,
      "t": 79820.78999999996,
      "d": 189.7306249999965,
      "v": 102
    },
    {
      "midi": 31,
      "hit": false,
      "t": 80088.64499999996,
      "d": 111.60624999999709,
      "v": 91
    },
    {
      "midi": 43,
      "hit": false,
      "t": 80088.64499999996,
      "d": 119.97671874999651,
      "v": 98
    },
    {
      "midi": 33,
      "hit": false,
      "t": 80356.49999999996,
      "d": 301.3368749999936,
      "v": 102
    },
    {
      "midi": 72,
      "hit": false,
      "t": 80356.49999999997,
      "d": 292.9664062499942,
      "v": 98
    },
    {
      "midi": 76,
      "hit": false,
      "t": 80356.49999999997,
      "d": 292.9664062499942,
      "v": 97
    },
    {
      "midi": 67,
      "hit": false,
      "t": 80356.49999999997,
      "d": 301.3368749999936,
      "v": 98
    },
    {
      "midi": 55,
      "hit": false,
      "t": 80624.35499999995,
      "d": 139.5078125,
      "v": 101
    },
    {
      "midi": 60,
      "hit": false,
      "t": 80624.35499999995,
      "d": 147.87828124999942,
      "v": 102
    },
    {
      "midi": 64,
      "hit": false,
      "t": 80624.35499999995,
      "d": 150.66843750000407,
      "v": 100
    },
    {
      "midi": 45,
      "hit": false,
      "t": 80892.20999999996,
      "d": 212.05187500000466,
      "v": 90
    },
    {
      "midi": 33,
      "hit": false,
      "t": 80892.20999999996,
      "d": 234.37312499999825,
      "v": 107
    },
    {
      "midi": 55,
      "hit": false,
      "t": 81160.06499999996,
      "d": 103.23578124999767,
      "v": 101
    },
    {
      "midi": 60,
      "hit": false,
      "t": 81160.06499999996,
      "d": 117.18656249999185,
      "v": 105
    },
    {
      "midi": 64,
      "hit": false,
      "t": 81160.06499999996,
      "d": 142.2979687499901,
      "v": 105
    },
    {
      "midi": 29,
      "hit": false,
      "t": 81427.91999999995,
      "d": 410.1529687500006,
      "v": 105
    },
    {
      "midi": 65,
      "hit": false,
      "t": 81427.91999999997,
      "d": 248.32390625000698,
      "v": 84
    },
    {
      "midi": 69,
      "hit": false,
      "t": 81427.91999999997,
      "d": 248.32390625000698,
      "v": 86
    },
    {
      "midi": 72,
      "hit": false,
      "t": 81427.91999999997,
      "d": 248.32390625000698,
      "v": 88
    },
    {
      "midi": 41,
      "hit": false,
      "t": 81695.77499999995,
      "d": 156.24874999999884,
      "v": 97
    },
    {
      "midi": 65,
      "hit": false,
      "t": 81963.62999999995,
      "d": 164.61921874999825,
      "v": 107
    },
    {
      "midi": 69,
      "hit": false,
      "t": 81963.62999999995,
      "d": 164.61921874999825,
      "v": 109
    },
    {
      "midi": 60,
      "hit": false,
      "t": 81963.62999999995,
      "d": 198.10109374999593,
      "v": 97
    },
    {
      "midi": 46,
      "hit": false,
      "t": 82231.48499999994,
      "d": 136.71765624999534,
      "v": 70
    },
    {
      "midi": 69,
      "hit": false,
      "t": 82231.48499999997,
      "d": 72.54406250000466,
      "v": 74
    },
    {
      "midi": 72,
      "hit": false,
      "t": 82231.48499999997,
      "d": 80.91453125000407,
      "v": 76
    },
    {
      "midi": 65,
      "hit": false,
      "t": 82231.48499999997,
      "d": 83.70468750000873,
      "v": 71
    },
    {
      "midi": 53,
      "hit": false,
      "t": 82499.33999999994,
      "d": 203.68140625000524,
      "v": 85
    },
    {
      "midi": 58,
      "hit": false,
      "t": 82499.33999999994,
      "d": 214.8420312500093,
      "v": 87
    },
    {
      "midi": 62,
      "hit": false,
      "t": 82499.33999999994,
      "d": 237.1632812500029,
      "v": 89
    },
    {
      "midi": 34,
      "hit": false,
      "t": 82499.33999999994,
      "d": 262.27468750000116,
      "v": 106
    },
    {
      "midi": 70,
      "hit": false,
      "t": 82499.33999999998,
      "d": 228.7928125000035,
      "v": 98
    },
    {
      "midi": 65,
      "hit": false,
      "t": 82499.33999999998,
      "d": 245.53375000000233,
      "v": 86
    },
    {
      "midi": 74,
      "hit": false,
      "t": 82499.33999999998,
      "d": 253.90421875000175,
      "v": 98
    },
    {
      "midi": 46,
      "hit": false,
      "t": 82767.19499999993,
      "d": 47.4326562500064,
      "v": 86
    },
    {
      "midi": 55,
      "hit": false,
      "t": 83035.04999999994,
      "d": 284.59593749999476,
      "v": 109
    },
    {
      "midi": 60,
      "hit": false,
      "t": 83035.04999999994,
      "d": 284.59593749999476,
      "v": 109
    },
    {
      "midi": 64,
      "hit": false,
      "t": 83035.04999999994,
      "d": 284.59593749999476,
      "v": 114
    },
    {
      "midi": 36,
      "hit": false,
      "t": 83035.04999999994,
      "d": 354.34984374999476,
      "v": 102
    },
    {
      "midi": 76,
      "hit": false,
      "t": 83035.04999999999,
      "d": 253.90421875000175,
      "v": 98
    },
    {
      "midi": 72,
      "hit": false,
      "t": 83035.04999999999,
      "d": 256.6943750000064,
      "v": 96
    },
    {
      "midi": 67,
      "hit": false,
      "t": 83035.04999999999,
      "d": 270.6451562500006,
      "v": 91
    },
    {
      "midi": 48,
      "hit": false,
      "t": 83302.90499999994,
      "d": 80.91453125000407,
      "v": 80
    },
    {
      "midi": 33,
      "hit": false,
      "t": 83570.75999999994,
      "d": 460.3757812499971,
      "v": 107
    },
    {
      "midi": 76,
      "hit": false,
      "t": 83570.76,
      "d": 284.59593749999476,
      "v": 100
    },
    {
      "midi": 67,
      "hit": false,
      "t": 83570.76,
      "d": 292.9664062499942,
      "v": 96
    },
    {
      "midi": 72,
      "hit": false,
      "t": 83570.76,
      "d": 292.9664062499942,
      "v": 88
    },
    {
      "midi": 45,
      "hit": false,
      "t": 83838.61499999993,
      "d": 175.77984375000233,
      "v": 98
    },
    {
      "midi": 55,
      "hit": false,
      "t": 84106.46999999993,
      "d": 147.87828124999942,
      "v": 93
    },
    {
      "midi": 60,
      "hit": false,
      "t": 84106.46999999993,
      "d": 156.24874999999884,
      "v": 97
    },
    {
      "midi": 64,
      "hit": false,
      "t": 84106.46999999993,
      "d": 161.8290624999936,
      "v": 93
    },
    {
      "midi": 33,
      "hit": false,
      "t": 84374.32499999992,
      "d": 80.91453125000407,
      "v": 100
    },
    {
      "midi": 45,
      "hit": false,
      "t": 84374.32499999992,
      "d": 86.49484374999884,
      "v": 94
    },
    {
      "midi": 57,
      "hit": false,
      "t": 84642.17999999992,
      "d": 334.8187500000058,
      "v": 91
    },
    {
      "midi": 60,
      "hit": false,
      "t": 84642.17999999992,
      "d": 334.8187500000058,
      "v": 97
    },
    {
      "midi": 38,
      "hit": false,
      "t": 84642.17999999992,
      "d": 343.18921875000524,
      "v": 112
    },
    {
      "midi": 65,
      "hit": false,
      "t": 84642.17999999992,
      "d": 351.55968750000466,
      "v": 100
    },
    {
      "midi": 77,
      "hit": false,
      "t": 84642.18,
      "d": 251.1140624999971,
      "v": 97
    },
    {
      "midi": 72,
      "hit": false,
      "t": 84642.18,
      "d": 256.69437499999185,
      "v": 98
    },
    {
      "midi": 69,
      "hit": false,
      "t": 84642.18,
      "d": 273.4353124999907,
      "v": 96
    },
    {
      "midi": 36,
      "hit": false,
      "t": 85177.88999999993,
      "d": 242.74359374999767,
      "v": 101
    },
    {
      "midi": 64,
      "hit": false,
      "t": 85177.88999999993,
      "d": 343.1892187499907,
      "v": 101
    },
    {
      "midi": 55,
      "hit": false,
      "t": 85177.88999999993,
      "d": 345.97937499999534,
      "v": 102
    },
    {
      "midi": 60,
      "hit": false,
      "t": 85177.88999999993,
      "d": 345.97937499999534,
      "v": 104
    },
    {
      "midi": 72,
      "hit": false,
      "t": 85177.88999999998,
      "d": 295.75656249999884,
      "v": 98
    },
    {
      "midi": 76,
      "hit": false,
      "t": 85177.88999999998,
      "d": 295.75656249999884,
      "v": 97
    },
    {
      "midi": 67,
      "hit": false,
      "t": 85177.88999999998,
      "d": 320.8679687499971,
      "v": 97
    },
    {
      "midi": 31,
      "hit": false,
      "t": 85713.59999999992,
      "d": 421.3135937499901,
      "v": 107
    },
    {
      "midi": 70,
      "hit": false,
      "t": 85713.59999999998,
      "d": 251.1140624999971,
      "v": 99
    },
    {
      "midi": 74,
      "hit": false,
      "t": 85713.59999999998,
      "d": 265.06484374999127,
      "v": 101
    },
    {
      "midi": 65,
      "hit": false,
      "t": 85713.59999999998,
      "d": 284.59593749999476,
      "v": 97
    },
    {
      "midi": 43,
      "hit": false,
      "t": 85981.45499999991,
      "d": 94.86531249999825,
      "v": 98
    },
    {
      "midi": 62,
      "hit": false,
      "t": 86249.30999999991,
      "d": 206.47156249999534,
      "v": 112
    },
    {
      "midi": 65,
      "hit": false,
      "t": 86249.30999999991,
      "d": 212.0518749999901,
      "v": 102
    },
    {
      "midi": 58,
      "hit": false,
      "t": 86249.30999999991,
      "d": 214.84203124999476,
      "v": 103
    },
    {
      "midi": 43,
      "hit": false,
      "t": 86517.1649999999,
      "d": 139.5078125,
      "v": 102
    },
    {
      "midi": 31,
      "hit": false,
      "t": 86785.0199999999,
      "d": 371.0907812499936,
      "v": 107
    },
    {
      "midi": 70,
      "hit": false,
      "t": 86785.01999999997,
      "d": 270.6451562500006,
      "v": 106
    },
    {
      "midi": 65,
      "hit": false,
      "t": 86785.01999999997,
      "d": 276.22546874999534,
      "v": 91
    },
    {
      "midi": 74,
      "hit": false,
      "t": 86785.01999999997,
      "d": 276.22546874999534,
      "v": 100
    },
    {
      "midi": 43,
      "hit": false,
      "t": 87052.8749999999,
      "d": 133.9274999999907,
      "v": 92
    },
    {
      "midi": 58,
      "hit": false,
      "t": 87320.7299999999,
      "d": 198.10109374999593,
      "v": 103
    },
    {
      "midi": 62,
      "hit": false,
      "t": 87320.7299999999,
      "d": 198.10109374999593,
      "v": 109
    },
    {
      "midi": 65,
      "hit": false,
      "t": 87320.7299999999,
      "d": 209.26171875,
      "v": 101
    },
    {
      "midi": 43,
      "hit": false,
      "t": 87588.58499999989,
      "d": 161.8290624999936,
      "v": 102
    },
    {
      "midi": 31,
      "hit": false,
      "t": 87856.43999999989,
      "d": 393.41203125000175,
      "v": 111
    },
    {
      "midi": 70,
      "hit": false,
      "t": 87856.43999999997,
      "d": 265.0648437500058,
      "v": 104
    },
    {
      "midi": 65,
      "hit": false,
      "t": 87856.43999999997,
      "d": 267.8550000000105,
      "v": 90
    },
    {
      "midi": 74,
      "hit": false,
      "t": 87856.43999999997,
      "d": 284.5959375000093,
      "v": 97
    },
    {
      "midi": 43,
      "hit": false,
      "t": 88124.29499999988,
      "d": 156.24874999999884,
      "v": 96
    },
    {
      "midi": 58,
      "hit": false,
      "t": 88392.14999999988,
      "d": 223.21249999999418,
      "v": 101
    },
    {
      "midi": 62,
      "hit": false,
      "t": 88392.14999999988,
      "d": 223.21249999999418,
      "v": 112
    },
    {
      "midi": 65,
      "hit": false,
      "t": 88392.14999999988,
      "d": 265.06484374999127,
      "v": 101
    },
    {
      "midi": 31,
      "hit": false,
      "t": 88660.00499999987,
      "d": 100.44562499999302,
      "v": 97
    },
    {
      "midi": 43,
      "hit": false,
      "t": 88660.00499999987,
      "d": 111.60624999999709,
      "v": 100
    },
    {
      "midi": 33,
      "hit": false,
      "t": 88927.85999999987,
      "d": 449.21515625000757,
      "v": 104
    },
    {
      "midi": 76,
      "hit": false,
      "t": 88927.85999999999,
      "d": 276.22546874999534,
      "v": 98
    },
    {
      "midi": 67,
      "hit": false,
      "t": 88927.85999999999,
      "d": 279.015625,
      "v": 91
    },
    {
      "midi": 72,
      "hit": false,
      "t": 88927.85999999999,
      "d": 281.80578125000466,
      "v": 94
    },
    {
      "midi": 45,
      "hit": false,
      "t": 89195.71499999987,
      "d": 133.92750000000524,
      "v": 98
    },
    {
      "midi": 67,
      "hit": false,
      "t": 89463.56999999988,
      "d": 223.21249999999418,
      "v": 114
    },
    {
      "midi": 64,
      "hit": false,
      "t": 89463.56999999988,
      "d": 228.79281249998894,
      "v": 109
    },
    {
      "midi": 60,
      "hit": false,
      "t": 89463.56999999988,
      "d": 237.16328124998836,
      "v": 102
    },
    {
      "midi": 45,
      "hit": false,
      "t": 89731.42499999986,
      "d": 75.33421874999476,
      "v": 96
    },
    {
      "midi": 27,
      "hit": false,
      "t": 89999.27999999985,
      "d": 189.7306249999965,
      "v": 106
    },
    {
      "midi": 39,
      "hit": false,
      "t": 89999.27999999985,
      "d": 198.10109374999593,
      "v": 91
    },
    {
      "midi": 63,
      "hit": false,
      "t": 90267.13499999985,
      "d": 212.05187500000466,
      "v": 78
    },
    {
      "midi": 60,
      "hit": false,
      "t": 90267.13499999985,
      "d": 223.21250000000873,
      "v": 80
    },
    {
      "midi": 66,
      "hit": false,
      "t": 90267.13499999985,
      "d": 223.21250000000873,
      "v": 73
    },
    {
      "midi": 58,
      "hit": false,
      "t": 90267.13499999985,
      "d": 239.95343750000757,
      "v": 70
    },
    {
      "midi": 63,
      "hit": false,
      "t": 90802.84499999986,
      "d": 181.3601562499971,
      "v": 78
    },
    {
      "midi": 66,
      "hit": false,
      "t": 90802.84499999986,
      "d": 184.15031250000175,
      "v": 78
    },
    {
      "midi": 60,
      "hit": false,
      "t": 90802.84499999986,
      "d": 192.52078125000116,
      "v": 82
    },
    {
      "midi": 58,
      "hit": false,
      "t": 90802.84499999986,
      "d": 206.47156249999534,
      "v": 72
    },
    {
      "midi": 66,
      "hit": false,
      "t": 91338.55499999985,
      "d": 192.52078125000116,
      "v": 81
    },
    {
      "midi": 63,
      "hit": false,
      "t": 91338.55499999985,
      "d": 198.10109374999593,
      "v": 82
    },
    {
      "midi": 60,
      "hit": false,
      "t": 91338.55499999985,
      "d": 209.26171875,
      "v": 84
    },
    {
      "midi": 58,
      "hit": false,
      "t": 91338.55499999985,
      "d": 226.00265624999884,
      "v": 78
    },
    {
      "midi": 60,
      "hit": false,
      "t": 91874.26499999984,
      "d": 145.08812499999476,
      "v": 86
    },
    {
      "midi": 63,
      "hit": false,
      "t": 91874.26499999984,
      "d": 147.87828124999942,
      "v": 79
    },
    {
      "midi": 66,
      "hit": false,
      "t": 91874.26499999984,
      "d": 153.45859374999418,
      "v": 82
    },
    {
      "midi": 58,
      "hit": false,
      "t": 91874.26499999984,
      "d": 161.8290624999936,
      "v": 78
    },
    {
      "midi": 65,
      "hit": false,
      "t": 92409.97499999983,
      "d": 167.4093750000029,
      "v": 91
    },
    {
      "midi": 62,
      "hit": false,
      "t": 92409.97499999983,
      "d": 206.4715625000099,
      "v": 93
    },
    {
      "midi": 58,
      "hit": false,
      "t": 92409.97499999983,
      "d": 212.05187500000466,
      "v": 81
    },
    {
      "midi": 58,
      "hit": false,
      "t": 92945.68499999984,
      "d": 270.6451562500006,
      "v": 86
    },
    {
      "midi": 62,
      "hit": false,
      "t": 92945.68499999984,
      "d": 270.6451562500006,
      "v": 97
    },
    {
      "midi": 65,
      "hit": false,
      "t": 92945.68499999984,
      "d": 279.015625,
      "v": 86
    },
    {
      "midi": 65,
      "hit": false,
      "t": 93481.39499999984,
      "d": 262.27468750000116,
      "v": 88
    },
    {
      "midi": 62,
      "hit": false,
      "t": 93481.39499999984,
      "d": 279.015625,
      "v": 96
    },
    {
      "midi": 58,
      "hit": false,
      "t": 93481.39499999984,
      "d": 284.59593749999476,
      "v": 87
    },
    {
      "midi": 62,
      "hit": false,
      "t": 94017.10499999984,
      "d": 178.57000000000698,
      "v": 94
    },
    {
      "midi": 58,
      "hit": false,
      "t": 94017.10499999984,
      "d": 195.31093750000582,
      "v": 86
    },
    {
      "midi": 65,
      "hit": false,
      "t": 94017.10499999984,
      "d": 262.27468750000116,
      "v": 89
    },
    {
      "midi": 69,
      "hit": false,
      "t": 94552.81499999984,
      "d": 214.84203124999476,
      "v": 92
    },
    {
      "midi": 65,
      "hit": false,
      "t": 94552.81499999984,
      "d": 234.37312499999825,
      "v": 89
    },
    {
      "midi": 62,
      "hit": false,
      "t": 94552.81499999984,
      "d": 239.95343749999302,
      "v": 90
    },
    {
      "midi": 67,
      "hit": false,
      "t": 95088.52499999983,
      "d": 19.531093750003492,
      "v": 70
    },
    {
      "midi": 62,
      "hit": false,
      "t": 95088.52499999983,
      "d": 256.6943750000064,
      "v": 91
    },
    {
      "midi": 65,
      "hit": false,
      "t": 95088.52499999983,
      "d": 265.0648437500058,
      "v": 96
    },
    {
      "midi": 69,
      "hit": false,
      "t": 95088.52499999983,
      "d": 270.6451562500006,
      "v": 88
    },
    {
      "midi": 62,
      "hit": false,
      "t": 95624.23499999984,
      "d": 259.4845312499965,
      "v": 86
    },
    {
      "midi": 65,
      "hit": false,
      "t": 95624.23499999984,
      "d": 265.06484374999127,
      "v": 88
    },
    {
      "midi": 69,
      "hit": false,
      "t": 95624.23499999984,
      "d": 265.06484374999127,
      "v": 87
    },
    {
      "midi": 69,
      "hit": false,
      "t": 96159.94499999983,
      "d": 198.10109374999593,
      "v": 88
    },
    {
      "midi": 65,
      "hit": false,
      "t": 96159.94499999983,
      "d": 209.26171875,
      "v": 93
    },
    {
      "midi": 62,
      "hit": false,
      "t": 96159.94499999983,
      "d": 217.63218749999942,
      "v": 90
    },
    {
      "midi": 64,
      "hit": false,
      "t": 96695.65499999984,
      "d": 245.53375000000233,
      "v": 92
    },
    {
      "midi": 69,
      "hit": false,
      "t": 96695.65499999984,
      "d": 251.1140624999971,
      "v": 93
    },
    {
      "midi": 60,
      "hit": false,
      "t": 96695.65499999984,
      "d": 262.27468750000116,
      "v": 89
    },
    {
      "midi": 64,
      "hit": false,
      "t": 97231.36499999985,
      "d": 242.74359374999767,
      "v": 91
    },
    {
      "midi": 60,
      "hit": false,
      "t": 97231.36499999985,
      "d": 245.53375000000233,
      "v": 82
    },
    {
      "midi": 69,
      "hit": false,
      "t": 97231.36499999985,
      "d": 251.1140624999971,
      "v": 86
    },
    {
      "midi": 64,
      "hit": false,
      "t": 97767.07499999984,
      "d": 265.0648437500058,
      "v": 88
    },
    {
      "midi": 69,
      "hit": false,
      "t": 97767.07499999984,
      "d": 265.0648437500058,
      "v": 85
    },
    {
      "midi": 60,
      "hit": false,
      "t": 97767.07499999984,
      "d": 270.6451562500006,
      "v": 84
    },
    {
      "midi": 69,
      "hit": false,
      "t": 98302.78499999984,
      "d": 200.89125000000058,
      "v": 82
    },
    {
      "midi": 64,
      "hit": false,
      "t": 98302.78499999984,
      "d": 206.47156249999534,
      "v": 89
    },
    {
      "midi": 60,
      "hit": false,
      "t": 98302.78499999984,
      "d": 231.5829687499936,
      "v": 82
    },
    {
      "midi": 63,
      "hit": false,
      "t": 98838.49499999984,
      "d": 256.6943750000064,
      "v": 81
    },
    {
      "midi": 58,
      "hit": false,
      "t": 98838.49499999984,
      "d": 259.48453125001106,
      "v": 79
    },
    {
      "midi": 60,
      "hit": false,
      "t": 98838.49499999984,
      "d": 259.48453125001106,
      "v": 86
    },
    {
      "midi": 66,
      "hit": false,
      "t": 98838.49499999984,
      "d": 273.43531250000524,
      "v": 79
    },
    {
      "midi": 63,
      "hit": false,
      "t": 99374.20499999984,
      "d": 186.9404687500064,
      "v": 82
    },
    {
      "midi": 66,
      "hit": false,
      "t": 99374.20499999984,
      "d": 192.52078125000116,
      "v": 78
    },
    {
      "midi": 60,
      "hit": false,
      "t": 99374.20499999984,
      "d": 206.47156249999534,
      "v": 82
    },
    {
      "midi": 58,
      "hit": false,
      "t": 99374.20499999984,
      "d": 214.84203124999476,
      "v": 75
    },
    {
      "midi": 63,
      "hit": false,
      "t": 99909.91499999983,
      "d": 206.47156249999534,
      "v": 81
    },
    {
      "midi": 66,
      "hit": false,
      "t": 99909.91499999983,
      "d": 209.26171875,
      "v": 78
    },
    {
      "midi": 60,
      "hit": false,
      "t": 99909.91499999983,
      "d": 231.5829687499936,
      "v": 87
    },
    {
      "midi": 58,
      "hit": false,
      "t": 99909.91499999983,
      "d": 242.74359374999767,
      "v": 78
    },
    {
      "midi": 66,
      "hit": false,
      "t": 100445.62499999983,
      "d": 147.87828124999942,
      "v": 78
    },
    {
      "midi": 60,
      "hit": false,
      "t": 100445.62499999983,
      "d": 156.24874999999884,
      "v": 86
    },
    {
      "midi": 63,
      "hit": false,
      "t": 100445.62499999983,
      "d": 172.98968749999767,
      "v": 80
    },
    {
      "midi": 58,
      "hit": false,
      "t": 100445.62499999983,
      "d": 184.15031250000175,
      "v": 78
    },
    {
      "midi": 65,
      "hit": false,
      "t": 100981.33499999983,
      "d": 203.68140625000524,
      "v": 83
    },
    {
      "midi": 58,
      "hit": false,
      "t": 100981.33499999983,
      "d": 206.4715625000099,
      "v": 85
    },
    {
      "midi": 62,
      "hit": false,
      "t": 100981.33499999983,
      "d": 206.4715625000099,
      "v": 96
    },
    {
      "midi": 58,
      "hit": false,
      "t": 101517.04499999984,
      "d": 200.89125000000058,
      "v": 81
    },
    {
      "midi": 62,
      "hit": false,
      "t": 101517.04499999984,
      "d": 206.47156249999534,
      "v": 94
    },
    {
      "midi": 65,
      "hit": false,
      "t": 101517.04499999984,
      "d": 212.0518749999901,
      "v": 84
    },
    {
      "midi": 65,
      "hit": false,
      "t": 102052.75499999983,
      "d": 226.00265624999884,
      "v": 85
    },
    {
      "midi": 62,
      "hit": false,
      "t": 102052.75499999983,
      "d": 234.37312499999825,
      "v": 97
    },
    {
      "midi": 58,
      "hit": false,
      "t": 102052.75499999983,
      "d": 242.74359374999767,
      "v": 88
    },
    {
      "midi": 62,
      "hit": false,
      "t": 102588.46499999982,
      "d": 142.29796875000466,
      "v": 91
    },
    {
      "midi": 58,
      "hit": false,
      "t": 102588.46499999982,
      "d": 156.24874999999884,
      "v": 77
    },
    {
      "midi": 65,
      "hit": false,
      "t": 102588.46499999982,
      "d": 200.89125000000058,
      "v": 82
    },
    {
      "midi": 69,
      "hit": false,
      "t": 103124.17499999983,
      "d": 184.15031250000175,
      "v": 84
    },
    {
      "midi": 65,
      "hit": false,
      "t": 103124.17499999983,
      "d": 186.9404687500064,
      "v": 82
    },
    {
      "midi": 62,
      "hit": false,
      "t": 103124.17499999983,
      "d": 192.52078125000116,
      "v": 87
    },
    {
      "midi": 69,
      "hit": false,
      "t": 103659.88499999983,
      "d": 172.98968749999767,
      "v": 89
    },
    {
      "midi": 65,
      "hit": false,
      "t": 103659.88499999983,
      "d": 184.15031250000175,
      "v": 91
    },
    {
      "midi": 62,
      "hit": false,
      "t": 103659.88499999983,
      "d": 186.9404687500064,
      "v": 91
    },
    {
      "midi": 65,
      "hit": false,
      "t": 104195.59499999984,
      "d": 212.05187500000466,
      "v": 82
    },
    {
      "midi": 69,
      "hit": false,
      "t": 104195.59499999984,
      "d": 212.05187500000466,
      "v": 82
    },
    {
      "midi": 62,
      "hit": false,
      "t": 104195.59499999984,
      "d": 217.63218749999942,
      "v": 88
    },
    {
      "midi": 62,
      "hit": false,
      "t": 104731.30499999985,
      "d": 86.49484374999884,
      "v": 88
    },
    {
      "midi": 65,
      "hit": false,
      "t": 104731.30499999985,
      "d": 86.49484374999884,
      "v": 82
    },
    {
      "midi": 69,
      "hit": false,
      "t": 104731.30499999985,
      "d": 86.49484374999884,
      "v": 82
    },
    {
      "midi": 67,
      "hit": false,
      "t": 104999.15999999984,
      "d": 164.61921874999825,
      "v": 92
    },
    {
      "midi": 60,
      "hit": false,
      "t": 104999.15999999984,
      "d": 167.4093750000029,
      "v": 85
    },
    {
      "midi": 64,
      "hit": false,
      "t": 104999.15999999984,
      "d": 170.19953125000757,
      "v": 90
    },
    {
      "midi": 60,
      "hit": false,
      "t": 105267.01499999985,
      "d": 145.08812499999476,
      "v": 90
    },
    {
      "midi": 64,
      "hit": false,
      "t": 105267.01499999985,
      "d": 150.66843749998952,
      "v": 84
    },
    {
      "midi": 67,
      "hit": false,
      "t": 105267.01499999985,
      "d": 164.6192187499837,
      "v": 82
    },
    {
      "midi": 65,
      "hit": false,
      "t": 105534.86999999984,
      "d": 133.92750000000524,
      "v": 96
    },
    {
      "midi": 69,
      "hit": false,
      "t": 105534.86999999984,
      "d": 133.92750000000524,
      "v": 94
    },
    {
      "midi": 62,
      "hit": false,
      "t": 105534.86999999984,
      "d": 136.7176562500099,
      "v": 97
    },
    {
      "midi": 67,
      "hit": false,
      "t": 105802.72499999985,
      "d": 315.2876562500023,
      "v": 97
    },
    {
      "midi": 64,
      "hit": false,
      "t": 105802.72499999985,
      "d": 318.077812500007,
      "v": 86
    },
    {
      "midi": 70,
      "hit": false,
      "t": 105802.72499999985,
      "d": 323.65812500000175,
      "v": 95
    },
    {
      "midi": 60,
      "hit": false,
      "t": 106338.43499999985,
      "d": 131.13734375000058,
      "v": 86
    },
    {
      "midi": 72,
      "hit": false,
      "t": 106338.43499999985,
      "d": 131.13734375000058,
      "v": 77
    },
    {
      "midi": 60,
      "hit": false,
      "t": 106606.28999999985,
      "d": 186.9404687500064,
      "v": 104
    },
    {
      "midi": 72,
      "hit": false,
      "t": 106606.28999999985,
      "d": 195.31093750000582,
      "v": 105
    },
    {
      "midi": 72,
      "hit": false,
      "t": 106874.14499999986,
      "d": 117.1865625000064,
      "v": 76
    },
    {
      "midi": 60,
      "hit": false,
      "t": 106874.14499999986,
      "d": 145.0881250000093,
      "v": 82
    },
    {
      "midi": 60,
      "hit": false,
      "t": 106874.14499999999,
      "d": 2246.075781249994,
      "v": 97
    },
    {
      "midi": 63,
      "hit": false,
      "t": 106874.14499999999,
      "d": 2257.2364062499983,
      "v": 87
    },
    {
      "midi": 56,
      "hit": false,
      "t": 106874.14499999999,
      "d": 2276.7675000000017,
      "v": 95
    },
    {
      "midi": 53,
      "hit": false,
      "t": 106874.14499999999,
      "d": 2279.5576562500064,
      "v": 91
    },
    {
      "midi": 56,
      "hit": false,
      "t": 107141.99999999987,
      "d": 1961.4798437499994,
      "v": 78
    },
    {
      "midi": 63,
      "hit": false,
      "t": 107141.99999999987,
      "d": 2006.1223437500012,
      "v": 82
    },
    {
      "midi": 43,
      "hit": false,
      "t": 107677.70999999988,
      "d": 172.98968749999767,
      "v": 84
    },
    {
      "midi": 41,
      "hit": false,
      "t": 107677.70999999988,
      "d": 1113.2723437499953,
      "v": 72
    },
    {
      "midi": 41,
      "hit": false,
      "t": 109016.98499999987,
      "d": 212.05187500000466,
      "v": 72
    },
    {
      "midi": 46,
      "hit": false,
      "t": 109284.83999999988,
      "d": 1648.9823437500017,
      "v": 89
    },
    {
      "midi": 62,
      "hit": false,
      "t": 109284.83999999988,
      "d": 1874.9850000000006,
      "v": 109
    },
    {
      "midi": 56,
      "hit": false,
      "t": 109284.83999999988,
      "d": 1888.9357812499948,
      "v": 93
    },
    {
      "midi": 58,
      "hit": false,
      "t": 109284.84,
      "d": 1900.0964062499988,
      "v": 92
    },
    {
      "midi": 53,
      "hit": false,
      "t": 109284.84,
      "d": 1958.6896874999948,
      "v": 93
    },
    {
      "midi": 62,
      "hit": false,
      "t": 109284.84,
      "d": 1964.2699999999895,
      "v": 93
    },
    {
      "midi": 56,
      "hit": false,
      "t": 109284.84,
      "d": 1969.8503124999843,
      "v": 89
    },
    {
      "midi": 48,
      "hit": false,
      "t": 111159.82499999988,
      "d": 2165.16124999999,
      "v": 89
    },
    {
      "midi": 56,
      "hit": false,
      "t": 111427.67999999988,
      "d": 1752.2181249999994,
      "v": 87
    },
    {
      "midi": 63,
      "hit": false,
      "t": 111427.67999999988,
      "d": 1755.008281250004,
      "v": 96
    },
    {
      "midi": 41,
      "hit": false,
      "t": 111427.67999999988,
      "d": 1891.7259374999994,
      "v": 85
    },
    {
      "midi": 63,
      "hit": false,
      "t": 111427.67999999998,
      "d": 1944.7389062500006,
      "v": 91
    },
    {
      "midi": 56,
      "hit": false,
      "t": 111427.67999999998,
      "d": 1975.4306249999936,
      "v": 98
    },
    {
      "midi": 60,
      "hit": false,
      "t": 111427.67999999998,
      "d": 1981.0109374999884,
      "v": 98
    },
    {
      "midi": 53,
      "hit": false,
      "t": 111427.67999999998,
      "d": 1992.1715624999924,
      "v": 90
    },
    {
      "midi": 56,
      "hit": false,
      "t": 113302.66499999988,
      "d": 66.96374999999534,
      "v": 74
    },
    {
      "midi": 63,
      "hit": false,
      "t": 113302.66499999988,
      "d": 89.28499999998894,
      "v": 72
    },
    {
      "midi": 62,
      "hit": false,
      "t": 113570.51999999987,
      "d": 1676.8839062500047,
      "v": 97
    },
    {
      "midi": 56,
      "hit": false,
      "t": 113570.51999999987,
      "d": 1688.0445312500087,
      "v": 78
    },
    {
      "midi": 46,
      "hit": false,
      "t": 113570.51999999987,
      "d": 1788.4901562500017,
      "v": 96
    },
    {
      "midi": 56,
      "hit": false,
      "t": 113570.51999999997,
      "d": 1897.3062499999942,
      "v": 93
    },
    {
      "midi": 53,
      "hit": false,
      "t": 113570.51999999997,
      "d": 1905.6767187499936,
      "v": 89
    },
    {
      "midi": 62,
      "hit": false,
      "t": 113570.51999999997,
      "d": 1916.8373437499977,
      "v": 96
    },
    {
      "midi": 60,
      "hit": false,
      "t": 113570.51999999997,
      "d": 1919.6275000000023,
      "v": 87
    },
    {
      "midi": 65,
      "hit": false,
      "t": 115713.35999999987,
      "d": 1685.254375000004,
      "v": 92
    },
    {
      "midi": 58,
      "hit": false,
      "t": 115713.35999999987,
      "d": 1693.6248437500035,
      "v": 98
    },
    {
      "midi": 43,
      "hit": false,
      "t": 115713.35999999987,
      "d": 1900.0964062499988,
      "v": 107
    },
    {
      "midi": 58,
      "hit": false,
      "t": 115713.35999999997,
      "d": 1978.2207812499983,
      "v": 101
    },
    {
      "midi": 62,
      "hit": false,
      "t": 115713.35999999997,
      "d": 1986.5912499999977,
      "v": 102
    },
    {
      "midi": 65,
      "hit": false,
      "t": 115713.35999999997,
      "d": 1989.3814062500023,
      "v": 100
    },
    {
      "midi": 55,
      "hit": false,
      "t": 115713.35999999997,
      "d": 2008.9125000000058,
      "v": 101
    },
    {
      "midi": 58,
      "hit": false,
      "t": 117588.34499999987,
      "d": 75.33421874999476,
      "v": 76
    },
    {
      "midi": 65,
      "hit": false,
      "t": 117588.34499999987,
      "d": 108.81609374999243,
      "v": 87
    },
    {
      "midi": 48,
      "hit": false,
      "t": 117856.19999999987,
      "d": 1774.539374999993,
      "v": 92
    },
    {
      "midi": 64,
      "hit": false,
      "t": 117856.19999999987,
      "d": 1877.7751562499907,
      "v": 97
    },
    {
      "midi": 58,
      "hit": false,
      "t": 117856.19999999987,
      "d": 1905.6767187499936,
      "v": 88
    },
    {
      "midi": 58,
      "hit": false,
      "t": 117856.19999999998,
      "d": 1975.4306249999936,
      "v": 93
    },
    {
      "midi": 62,
      "hit": false,
      "t": 117856.19999999998,
      "d": 1983.801093749993,
      "v": 94
    },
    {
      "midi": 64,
      "hit": false,
      "t": 117856.19999999998,
      "d": 1983.801093749993,
      "v": 93
    },
    {
      "midi": 55,
      "hit": false,
      "t": 117856.19999999998,
      "d": 2003.3321874999965,
      "v": 87
    },
    {
      "midi": 50,
      "hit": false,
      "t": 119731.18499999985,
      "d": 103.23578125001222,
      "v": 79
    },
    {
      "midi": 65,
      "hit": false,
      "t": 119999.03999999986,
      "d": 1704.785468749993,
      "v": 92
    },
    {
      "midi": 58,
      "hit": false,
      "t": 119999.03999999986,
      "d": 1746.63781249999,
      "v": 92
    },
    {
      "midi": 43,
      "hit": false,
      "t": 119999.03999999986,
      "d": 1810.8114062499953,
      "v": 94
    },
    {
      "midi": 62,
      "hit": false,
      "t": 119999.03999999998,
      "d": 1916.8373437499977,
      "v": 97
    },
    {
      "midi": 58,
      "hit": false,
      "t": 119999.03999999998,
      "d": 1944.7389062500006,
      "v": 95
    },
    {
      "midi": 65,
      "hit": false,
      "t": 119999.03999999998,
      "d": 1947.5290625000052,
      "v": 93
    },
    {
      "midi": 55,
      "hit": false,
      "t": 119999.03999999998,
      "d": 1950.31921875001,
      "v": 92
    },
    {
      "midi": 66,
      "hit": false,
      "t": 122141.87999999986,
      "d": 94.86531249999825,
      "v": 74
    },
    {
      "midi": 62,
      "hit": false,
      "t": 122141.87999999986,
      "d": 156.24874999999884,
      "v": 91
    },
    {
      "midi": 58,
      "hit": false,
      "t": 122141.87999999986,
      "d": 172.98968749999767,
      "v": 82
    },
    {
      "midi": 46,
      "hit": false,
      "t": 122141.87999999986,
      "d": 184.15031250000175,
      "v": 91
    },
    {
      "midi": 55,
      "hit": false,
      "t": 122141.87999999999,
      "d": 78.12437499999942,
      "v": 80
    },
    {
      "midi": 58,
      "hit": false,
      "t": 122141.87999999999,
      "d": 78.12437499999942,
      "v": 73
    },
    {
      "midi": 62,
      "hit": false,
      "t": 122141.87999999999,
      "d": 78.12437499999942,
      "v": 85
    },
    {
      "midi": 48,
      "hit": false,
      "t": 122409.73499999986,
      "d": 133.92750000000524,
      "v": 89
    },
    {
      "midi": 64,
      "hit": false,
      "t": 122409.73499999986,
      "d": 150.66843750000407,
      "v": 97
    },
    {
      "midi": 60,
      "hit": false,
      "t": 122409.73499999986,
      "d": 156.24874999999884,
      "v": 88
    },
    {
      "midi": 67,
      "hit": false,
      "t": 122409.73499999986,
      "d": 178.56999999999243,
      "v": 85
    },
    {
      "midi": 62,
      "hit": false,
      "t": 122409.73499999999,
      "d": 39.062187500006985,
      "v": 82
    },
    {
      "midi": 55,
      "hit": false,
      "t": 122409.73499999999,
      "d": 80.91453125000407,
      "v": 78
    },
    {
      "midi": 60,
      "hit": false,
      "t": 122409.73499999999,
      "d": 80.91453125000407,
      "v": 78
    },
    {
      "midi": 64,
      "hit": false,
      "t": 122409.73499999999,
      "d": 86.49484374999884,
      "v": 91
    },
    {
      "midi": 64,
      "hit": false,
      "t": 122677.58999999985,
      "d": 103.23578124999767,
      "v": 101
    },
    {
      "midi": 60,
      "hit": false,
      "t": 122677.58999999985,
      "d": 111.60624999999709,
      "v": 102
    },
    {
      "midi": 67,
      "hit": false,
      "t": 122677.58999999985,
      "d": 139.5078125,
      "v": 100
    },
    {
      "midi": 48,
      "hit": false,
      "t": 122677.58999999985,
      "d": 150.66843750000407,
      "v": 98
    },
    {
      "midi": 64,
      "hit": false,
      "t": 122677.58999999998,
      "d": 172.98968749999767,
      "v": 98
    },
    {
      "midi": 60,
      "hit": false,
      "t": 122677.58999999998,
      "d": 178.56999999999243,
      "v": 104
    },
    {
      "midi": 55,
      "hit": false,
      "t": 122677.58999999998,
      "d": 186.94046874999185,
      "v": 98
    },
    {
      "midi": 62,
      "hit": false,
      "t": 123481.15499999985,
      "d": 128.34718749999593,
      "v": 72
    },
    {
      "midi": 50,
      "hit": false,
      "t": 123481.15499999985,
      "d": 139.50781249998545,
      "v": 92
    },
    {
      "midi": 74,
      "hit": false,
      "t": 123615.08249999984,
      "d": 53.012968750001164,
      "v": 41
    },
    {
      "midi": 50,
      "hit": false,
      "t": 123749.00999999985,
      "d": 164.61921874999825,
      "v": 114
    },
    {
      "midi": 62,
      "hit": false,
      "t": 123749.00999999985,
      "d": 172.98968749999767,
      "v": 111
    },
    {
      "midi": 74,
      "hit": false,
      "t": 123749.00999999985,
      "d": 351.5596874999901,
      "v": 109
    },
    {
      "midi": 66,
      "hit": false,
      "t": 123749.00999999998,
      "d": 262.27468750000116,
      "v": 108
    },
    {
      "midi": 69,
      "hit": false,
      "t": 123749.00999999998,
      "d": 265.0648437500058,
      "v": 105
    },
    {
      "midi": 62,
      "hit": false,
      "t": 123749.00999999998,
      "d": 270.6451562500006,
      "v": 112
    },
    {
      "midi": 50,
      "hit": false,
      "t": 124016.86499999985,
      "d": 75.33421874999476,
      "v": 91
    },
    {
      "midi": 62,
      "hit": false,
      "t": 124016.86499999985,
      "d": 106.02593749998778,
      "v": 101
    },
    {
      "midi": 31,
      "hit": false,
      "t": 124284.71999999983,
      "d": 184.15031250000175,
      "v": 98
    },
    {
      "midi": 43,
      "hit": false,
      "t": 124284.71999999983,
      "d": 184.15031250000175,
      "v": 102
    },
    {
      "midi": 71,
      "hit": false,
      "t": 124552.57499999998,
      "d": 83.70468749999418,
      "v": 94
    },
    {
      "midi": 74,
      "hit": false,
      "t": 124552.57499999998,
      "d": 86.49484374999884,
      "v": 92
    },
    {
      "midi": 67,
      "hit": false,
      "t": 124552.57499999998,
      "d": 89.28500000000349,
      "v": 94
    },
    {
      "midi": 62,
      "hit": false,
      "t": 124820.42999999983,
      "d": 114.39640625000175,
      "v": 105
    },
    {
      "midi": 67,
      "hit": false,
      "t": 124820.42999999983,
      "d": 136.71765624999534,
      "v": 97
    },
    {
      "midi": 59,
      "hit": false,
      "t": 124820.42999999983,
      "d": 170.19953124999302,
      "v": 109
    },
    {
      "midi": 71,
      "hit": false,
      "t": 124820.43,
      "d": 133.92750000000524,
      "v": 97
    },
    {
      "midi": 74,
      "hit": false,
      "t": 124820.43,
      "d": 142.29796875000466,
      "v": 90
    },
    {
      "midi": 67,
      "hit": false,
      "t": 124820.43,
      "d": 147.87828124999942,
      "v": 89
    },
    {
      "midi": 31,
      "hit": false,
      "t": 125088.28499999983,
      "d": 78.12437499999942,
      "v": 90
    },
    {
      "midi": 43,
      "hit": false,
      "t": 125088.28499999983,
      "d": 78.12437499999942,
      "v": 86
    },
    {
      "midi": 67,
      "hit": false,
      "t": 125088.28499999999,
      "d": 61.38343750000058,
      "v": 62
    },
    {
      "midi": 74,
      "hit": false,
      "t": 125088.28499999999,
      "d": 66.96374999999534,
      "v": 54
    },
    {
      "midi": 48,
      "hit": false,
      "t": 125356.13999999982,
      "d": 220.42234375000407,
      "v": 95
    },
    {
      "midi": 36,
      "hit": false,
      "t": 125356.13999999982,
      "d": 231.58296875000815,
      "v": 99
    },
    {
      "midi": 72,
      "hit": false,
      "t": 125356.13999999998,
      "d": 103.23578124999767,
      "v": 101
    },
    {
      "midi": 76,
      "hit": false,
      "t": 125356.13999999998,
      "d": 111.60624999999709,
      "v": 101
    },
    {
      "midi": 67,
      "hit": false,
      "t": 125356.13999999998,
      "d": 114.39640625000175,
      "v": 91
    },
    {
      "midi": 60,
      "hit": false,
      "t": 125623.99499999984,
      "d": 78.12437499999942,
      "v": 96
    },
    {
      "midi": 67,
      "hit": false,
      "t": 125623.99499999984,
      "d": 100.44562499999302,
      "v": 76
    },
    {
      "midi": 72,
      "hit": false,
      "t": 125623.99499999998,
      "d": 41.85234374999709,
      "v": 58
    },
    {
      "midi": 67,
      "hit": false,
      "t": 125623.99499999998,
      "d": 58.593281249995925,
      "v": 54
    },
    {
      "midi": 76,
      "hit": false,
      "t": 125623.99499999998,
      "d": 58.593281249995925,
      "v": 58
    },
    {
      "midi": 40,
      "hit": false,
      "t": 125891.84999999983,
      "d": 83.70468749999418,
      "v": 90
    },
    {
      "midi": 62,
      "hit": false,
      "t": 125891.84999999983,
      "d": 242.74359374999767,
      "v": 96
    },
    {
      "midi": 66,
      "hit": false,
      "t": 125891.84999999983,
      "d": 251.1140624999971,
      "v": 96
    },
    {
      "midi": 69,
      "hit": false,
      "t": 125891.84999999983,
      "d": 276.22546874999534,
      "v": 97
    },
    {
      "midi": 50,
      "hit": false,
      "t": 125891.84999999983,
      "d": 281.8057812499901,
      "v": 94
    },
    {
      "midi": 38,
      "hit": false,
      "t": 125891.84999999983,
      "d": 304.1270312499837,
      "v": 91
    },
    {
      "midi": 74,
      "hit": false,
      "t": 125891.84999999998,
      "d": 167.4093750000029,
      "v": 100
    },
    {
      "midi": 78,
      "hit": false,
      "t": 125891.84999999998,
      "d": 178.57000000000698,
      "v": 96
    },
    {
      "midi": 69,
      "hit": false,
      "t": 125891.84999999998,
      "d": 186.9404687500064,
      "v": 96
    },
    {
      "midi": 62,
      "hit": false,
      "t": 126248.98999999982,
      "d": 39.062187500006985,
      "v": 69
    },
    {
      "midi": 47,
      "hit": false,
      "t": 126427.55999999982,
      "d": 256.6943750000064,
      "v": 102
    },
    {
      "midi": 35,
      "hit": false,
      "t": 126427.55999999982,
      "d": 273.43531250000524,
      "v": 102
    },
    {
      "midi": 74,
      "hit": false,
      "t": 126695.41499999998,
      "d": 78.12437499999942,
      "v": 92
    },
    {
      "midi": 78,
      "hit": false,
      "t": 126695.41499999998,
      "d": 78.12437499999942,
      "v": 91
    },
    {
      "midi": 69,
      "hit": false,
      "t": 126695.41499999998,
      "d": 92.0751562499936,
      "v": 93
    },
    {
      "midi": 62,
      "hit": false,
      "t": 126963.26999999983,
      "d": 172.98968749999767,
      "v": 101
    },
    {
      "midi": 66,
      "hit": false,
      "t": 126963.26999999983,
      "d": 172.98968749999767,
      "v": 102
    },
    {
      "midi": 69,
      "hit": false,
      "t": 126963.26999999983,
      "d": 181.3601562499971,
      "v": 107
    },
    {
      "midi": 35,
      "hit": false,
      "t": 127231.12499999983,
      "d": 89.28500000000349,
      "v": 89
    },
    {
      "midi": 47,
      "hit": false,
      "t": 127231.12499999983,
      "d": 106.02593750000233,
      "v": 96
    },
    {
      "midi": 74,
      "hit": false,
      "t": 127231.12499999997,
      "d": 80.91453125000407,
      "v": 85
    },
    {
      "midi": 78,
      "hit": false,
      "t": 127231.12499999997,
      "d": 86.49484374999884,
      "v": 83
    },
    {
      "midi": 69,
      "hit": false,
      "t": 127231.12499999997,
      "d": 92.0751562499936,
      "v": 82
    },
    {
      "midi": 71,
      "hit": false,
      "t": 127498.97999999982,
      "d": 295.75656249999884,
      "v": 97
    },
    {
      "midi": 52,
      "hit": false,
      "t": 127498.97999999982,
      "d": 301.3368749999936,
      "v": 107
    },
    {
      "midi": 67,
      "hit": false,
      "t": 127498.97999999982,
      "d": 306.91718749998836,
      "v": 97
    },
    {
      "midi": 40,
      "hit": false,
      "t": 127498.97999999982,
      "d": 323.6581249999872,
      "v": 100
    },
    {
      "midi": 62,
      "hit": false,
      "t": 127498.97999999982,
      "d": 326.44828124999185,
      "v": 91
    },
    {
      "midi": 79,
      "hit": false,
      "t": 127498.97999999997,
      "d": 337.6089062499959,
      "v": 100
    },
    {
      "midi": 74,
      "hit": false,
      "t": 127498.97999999997,
      "d": 345.97937499999534,
      "v": 93
    },
    {
      "midi": 71,
      "hit": false,
      "t": 127498.97999999997,
      "d": 357.1399999999994,
      "v": 89
    },
    {
      "midi": 62,
      "hit": false,
      "t": 128034.68999999981,
      "d": 228.7928125000035,
      "v": 89
    },
    {
      "midi": 50,
      "hit": false,
      "t": 128034.68999999981,
      "d": 256.6943750000064,
      "v": 100
    },
    {
      "midi": 38,
      "hit": false,
      "t": 128034.68999999981,
      "d": 295.7565625000134,
      "v": 98
    },
    {
      "midi": 66,
      "hit": false,
      "t": 128034.68999999981,
      "d": 354.3498437500093,
      "v": 96
    },
    {
      "midi": 69,
      "hit": false,
      "t": 128034.68999999981,
      "d": 359.9301562500041,
      "v": 92
    },
    {
      "midi": 78,
      "hit": false,
      "t": 128034.68999999997,
      "d": 326.4482812500064,
      "v": 92
    },
    {
      "midi": 74,
      "hit": false,
      "t": 128034.68999999997,
      "d": 340.3990625000006,
      "v": 88
    },
    {
      "midi": 69,
      "hit": false,
      "t": 128034.68999999997,
      "d": 354.34984374999476,
      "v": 92
    },
    {
      "midi": 62,
      "hit": false,
      "t": 128302.54499999982,
      "d": 108.81609374999243,
      "v": 78
    },
    {
      "midi": 45,
      "hit": false,
      "t": 128570.39999999982,
      "d": 217.63218749999942,
      "v": 97
    },
    {
      "midi": 33,
      "hit": false,
      "t": 128570.39999999982,
      "d": 239.95343749999302,
      "v": 104
    },
    {
      "midi": 72,
      "hit": false,
      "t": 128570.39999999997,
      "d": 295.75656249999884,
      "v": 95
    },
    {
      "midi": 76,
      "hit": false,
      "t": 128570.39999999997,
      "d": 304.12703124999825,
      "v": 93
    },
    {
      "midi": 67,
      "hit": false,
      "t": 128570.39999999997,
      "d": 309.707343749993,
      "v": 88
    },
    {
      "midi": 60,
      "hit": false,
      "t": 128838.25499999982,
      "d": 66.96374999999534,
      "v": 70
    },
    {
      "midi": 64,
      "hit": false,
      "t": 129106.10999999981,
      "d": 184.15031250000175,
      "v": 112
    },
    {
      "midi": 60,
      "hit": false,
      "t": 129106.10999999981,
      "d": 186.9404687500064,
      "v": 106
    },
    {
      "midi": 67,
      "hit": false,
      "t": 129106.10999999981,
      "d": 195.31093750000582,
      "v": 97
    },
    {
      "midi": 45,
      "hit": false,
      "t": 129373.96499999982,
      "d": 142.29796875000466,
      "v": 93
    },
    {
      "midi": 33,
      "hit": false,
      "t": 129641.81999999983,
      "d": 318.07781249999243,
      "v": 105
    },
    {
      "midi": 72,
      "hit": false,
      "t": 129641.81999999996,
      "d": 262.27468750000116,
      "v": 101
    },
    {
      "midi": 67,
      "hit": false,
      "t": 129641.81999999996,
      "d": 265.0648437500058,
      "v": 98
    },
    {
      "midi": 76,
      "hit": false,
      "t": 129641.81999999996,
      "d": 270.6451562500006,
      "v": 97
    },
    {
      "midi": 45,
      "hit": false,
      "t": 129909.67499999983,
      "d": 86.49484374999884,
      "v": 92
    },
    {
      "midi": 60,
      "hit": false,
      "t": 130177.52999999982,
      "d": 172.98968749999767,
      "v": 110
    },
    {
      "midi": 64,
      "hit": false,
      "t": 130177.52999999982,
      "d": 172.98968749999767,
      "v": 112
    },
    {
      "midi": 67,
      "hit": false,
      "t": 130177.52999999982,
      "d": 172.98968749999767,
      "v": 105
    },
    {
      "midi": 45,
      "hit": false,
      "t": 130445.38499999982,
      "d": 128.34718749999593,
      "v": 98
    },
    {
      "midi": 33,
      "hit": false,
      "t": 130713.23999999982,
      "d": 343.1892187499907,
      "v": 112
    },
    {
      "midi": 72,
      "hit": false,
      "t": 130713.23999999996,
      "d": 284.59593749999476,
      "v": 103
    },
    {
      "midi": 67,
      "hit": false,
      "t": 130713.23999999996,
      "d": 287.3860937499994,
      "v": 93
    },
    {
      "midi": 76,
      "hit": false,
      "t": 130713.23999999996,
      "d": 290.1762500000041,
      "v": 98
    },
    {
      "midi": 45,
      "hit": false,
      "t": 130981.09499999981,
      "d": 156.24874999998428,
      "v": 97
    },
    {
      "midi": 60,
      "hit": false,
      "t": 131248.9499999998,
      "d": 167.40937499998836,
      "v": 103
    },
    {
      "midi": 64,
      "hit": false,
      "t": 131248.9499999998,
      "d": 167.40937499998836,
      "v": 112
    },
    {
      "midi": 67,
      "hit": false,
      "t": 131248.9499999998,
      "d": 189.7306249999965,
      "v": 102
    },
    {
      "midi": 33,
      "hit": false,
      "t": 131516.80499999982,
      "d": 111.60625000001164,
      "v": 91
    },
    {
      "midi": 45,
      "hit": false,
      "t": 131516.80499999982,
      "d": 119.97671875002561,
      "v": 98
    },
    {
      "midi": 35,
      "hit": false,
      "t": 131784.65999999986,
      "d": 301.33687500000815,
      "v": 102
    },
    {
      "midi": 74,
      "hit": false,
      "t": 131784.65999999997,
      "d": 292.9664062499942,
      "v": 98
    },
    {
      "midi": 78,
      "hit": false,
      "t": 131784.65999999997,
      "d": 292.9664062499942,
      "v": 97
    },
    {
      "midi": 69,
      "hit": false,
      "t": 131784.65999999997,
      "d": 301.33687500000815,
      "v": 98
    },
    {
      "midi": 57,
      "hit": false,
      "t": 132052.51499999987,
      "d": 139.5078125,
      "v": 101
    },
    {
      "midi": 62,
      "hit": false,
      "t": 132052.51499999987,
      "d": 147.87828125001397,
      "v": 102
    },
    {
      "midi": 66,
      "hit": false,
      "t": 132052.51499999987,
      "d": 150.66843750001863,
      "v": 100
    },
    {
      "midi": 47,
      "hit": false,
      "t": 132320.36999999988,
      "d": 212.05187500000466,
      "v": 90
    },
    {
      "midi": 35,
      "hit": false,
      "t": 132320.36999999988,
      "d": 234.3731250000128,
      "v": 107
    },
    {
      "midi": 57,
      "hit": false,
      "t": 132588.2249999999,
      "d": 103.23578124999767,
      "v": 101
    },
    {
      "midi": 62,
      "hit": false,
      "t": 132588.2249999999,
      "d": 117.18656249999185,
      "v": 105
    },
    {
      "midi": 66,
      "hit": false,
      "t": 132588.2249999999,
      "d": 142.29796875000466,
      "v": 105
    },
    {
      "midi": 31,
      "hit": false,
      "t": 132856.0799999999,
      "d": 410.15296875001513,
      "v": 105
    },
    {
      "midi": 67,
      "hit": false,
      "t": 132856.08,
      "d": 248.32390625000698,
      "v": 84
    },
    {
      "midi": 71,
      "hit": false,
      "t": 132856.08,
      "d": 248.32390625000698,
      "v": 86
    },
    {
      "midi": 74,
      "hit": false,
      "t": 132856.08,
      "d": 248.32390625000698,
      "v": 88
    },
    {
      "midi": 43,
      "hit": false,
      "t": 133123.9349999999,
      "d": 156.24874999999884,
      "v": 97
    },
    {
      "midi": 67,
      "hit": false,
      "t": 133391.78999999992,
      "d": 164.6192187500128,
      "v": 107
    },
    {
      "midi": 71,
      "hit": false,
      "t": 133391.78999999992,
      "d": 164.6192187500128,
      "v": 109
    },
    {
      "midi": 62,
      "hit": false,
      "t": 133391.78999999992,
      "d": 198.10109375001048,
      "v": 97
    },
    {
      "midi": 48,
      "hit": false,
      "t": 133659.64499999993,
      "d": 136.71765624999534,
      "v": 70
    },
    {
      "midi": 71,
      "hit": false,
      "t": 133659.645,
      "d": 72.54406250000466,
      "v": 74
    },
    {
      "midi": 74,
      "hit": false,
      "t": 133659.645,
      "d": 80.91453125001863,
      "v": 76
    },
    {
      "midi": 67,
      "hit": false,
      "t": 133659.645,
      "d": 83.70468750002328,
      "v": 71
    },
    {
      "midi": 55,
      "hit": false,
      "t": 133927.4999999999,
      "d": 203.6814062499907,
      "v": 85
    },
    {
      "midi": 60,
      "hit": false,
      "t": 133927.4999999999,
      "d": 214.8420312499802,
      "v": 87
    },
    {
      "midi": 64,
      "hit": false,
      "t": 133927.4999999999,
      "d": 237.16328124998836,
      "v": 89
    },
    {
      "midi": 36,
      "hit": false,
      "t": 133927.4999999999,
      "d": 262.27468750000116,
      "v": 106
    },
    {
      "midi": 72,
      "hit": false,
      "t": 133927.5,
      "d": 228.7928125000035,
      "v": 98
    },
    {
      "midi": 67,
      "hit": false,
      "t": 133927.5,
      "d": 245.53375000000233,
      "v": 86
    },
    {
      "midi": 76,
      "hit": false,
      "t": 133927.5,
      "d": 253.9042187500163,
      "v": 98
    },
    {
      "midi": 48,
      "hit": false,
      "t": 134195.35499999992,
      "d": 47.43265624999185,
      "v": 86
    },
    {
      "midi": 57,
      "hit": false,
      "t": 134463.2099999999,
      "d": 284.5959375000093,
      "v": 109
    },
    {
      "midi": 62,
      "hit": false,
      "t": 134463.2099999999,
      "d": 284.5959375000093,
      "v": 109
    },
    {
      "midi": 66,
      "hit": false,
      "t": 134463.2099999999,
      "d": 284.5959375000093,
      "v": 114
    },
    {
      "midi": 38,
      "hit": false,
      "t": 134463.2099999999,
      "d": 354.3498437500093,
      "v": 102
    },
    {
      "midi": 78,
      "hit": false,
      "t": 134463.21000000002,
      "d": 253.9042187499872,
      "v": 98
    },
    {
      "midi": 74,
      "hit": false,
      "t": 134463.21000000002,
      "d": 256.69437499999185,
      "v": 96
    },
    {
      "midi": 69,
      "hit": false,
      "t": 134463.21000000002,
      "d": 270.64515624998603,
      "v": 91
    },
    {
      "midi": 50,
      "hit": false,
      "t": 134731.06499999992,
      "d": 80.91453124998952,
      "v": 80
    },
    {
      "midi": 35,
      "hit": false,
      "t": 134998.91999999993,
      "d": 460.37578125001164,
      "v": 107
    },
    {
      "midi": 78,
      "hit": false,
      "t": 134998.92,
      "d": 284.5959375000093,
      "v": 100
    },
    {
      "midi": 69,
      "hit": false,
      "t": 134998.92,
      "d": 292.9664062500233,
      "v": 96
    },
    {
      "midi": 74,
      "hit": false,
      "t": 134998.92,
      "d": 292.9664062500233,
      "v": 88
    },
    {
      "midi": 47,
      "hit": false,
      "t": 135266.77499999994,
      "d": 175.77984375000233,
      "v": 98
    },
    {
      "midi": 57,
      "hit": false,
      "t": 135534.62999999995,
      "d": 147.87828125001397,
      "v": 93
    },
    {
      "midi": 62,
      "hit": false,
      "t": 135534.62999999995,
      "d": 156.24875000002794,
      "v": 97
    },
    {
      "midi": 66,
      "hit": false,
      "t": 135534.62999999995,
      "d": 161.82906250003725,
      "v": 93
    },
    {
      "midi": 35,
      "hit": false,
      "t": 135802.485,
      "d": 80.91453124998952,
      "v": 100
    },
    {
      "midi": 47,
      "hit": false,
      "t": 135802.485,
      "d": 86.49484374999884,
      "v": 94
    },
    {
      "midi": 59,
      "hit": false,
      "t": 136070.34,
      "d": 334.8187500000058,
      "v": 91
    },
    {
      "midi": 62,
      "hit": false,
      "t": 136070.34,
      "d": 334.8187500000058,
      "v": 97
    },
    {
      "midi": 40,
      "hit": false,
      "t": 136070.34,
      "d": 343.1892187500198,
      "v": 112
    },
    {
      "midi": 67,
      "hit": false,
      "t": 136070.34,
      "d": 351.55968750003376,
      "v": 100
    },
    {
      "midi": 79,
      "hit": false,
      "t": 136070.34000000003,
      "d": 251.11406250001164,
      "v": 97
    },
    {
      "midi": 74,
      "hit": false,
      "t": 136070.34000000003,
      "d": 256.69437500002095,
      "v": 98
    },
    {
      "midi": 71,
      "hit": false,
      "t": 136070.34000000003,
      "d": 273.4353125000198,
      "v": 96
    },
    {
      "midi": 38,
      "hit": false,
      "t": 136606.05000000002,
      "d": 242.74359374999767,
      "v": 101
    },
    {
      "midi": 66,
      "hit": false,
      "t": 136606.05000000002,
      "d": 343.1892187499907,
      "v": 101
    },
    {
      "midi": 57,
      "hit": false,
      "t": 136606.05000000002,
      "d": 345.97937499999534,
      "v": 102
    },
    {
      "midi": 62,
      "hit": false,
      "t": 136606.05000000002,
      "d": 345.97937499999534,
      "v": 104
    },
    {
      "midi": 74,
      "hit": false,
      "t": 136606.05000000005,
      "d": 295.75656249999884,
      "v": 98
    },
    {
      "midi": 78,
      "hit": false,
      "t": 136606.05000000005,
      "d": 295.75656249999884,
      "v": 97
    },
    {
      "midi": 69,
      "hit": false,
      "t": 136606.05000000005,
      "d": 320.86796875001164,
      "v": 97
    },
    {
      "midi": 33,
      "hit": false,
      "t": 137141.76,
      "d": 421.31359375003376,
      "v": 107
    },
    {
      "midi": 72,
      "hit": false,
      "t": 137141.76000000007,
      "d": 251.11406250001164,
      "v": 99
    },
    {
      "midi": 76,
      "hit": false,
      "t": 137141.76000000007,
      "d": 265.0648437500058,
      "v": 101
    },
    {
      "midi": 67,
      "hit": false,
      "t": 137141.76000000007,
      "d": 284.5959375000093,
      "v": 97
    },
    {
      "midi": 45,
      "hit": false,
      "t": 137409.61500000002,
      "d": 94.8653125000128,
      "v": 98
    },
    {
      "midi": 64,
      "hit": false,
      "t": 137677.47000000003,
      "d": 206.47156249999534,
      "v": 112
    },
    {
      "midi": 67,
      "hit": false,
      "t": 137677.47000000003,
      "d": 212.05187500000466,
      "v": 102
    },
    {
      "midi": 60,
      "hit": false,
      "t": 137677.47000000003,
      "d": 214.8420312500093,
      "v": 103
    },
    {
      "midi": 45,
      "hit": false,
      "t": 137945.32500000004,
      "d": 139.5078125,
      "v": 102
    },
    {
      "midi": 33,
      "hit": false,
      "t": 138213.18000000005,
      "d": 371.09078125000815,
      "v": 107
    },
    {
      "midi": 72,
      "hit": false,
      "t": 138213.18000000008,
      "d": 270.64515624998603,
      "v": 106
    },
    {
      "midi": 67,
      "hit": false,
      "t": 138213.18000000008,
      "d": 276.22546874999534,
      "v": 91
    },
    {
      "midi": 76,
      "hit": false,
      "t": 138213.18000000008,
      "d": 276.22546874999534,
      "v": 100
    },
    {
      "midi": 45,
      "hit": false,
      "t": 138481.03500000006,
      "d": 133.9274999999907,
      "v": 92
    },
    {
      "midi": 60,
      "hit": false,
      "t": 138748.89000000004,
      "d": 198.10109375001048,
      "v": 103
    },
    {
      "midi": 64,
      "hit": false,
      "t": 138748.89000000004,
      "d": 198.10109375001048,
      "v": 109
    },
    {
      "midi": 67,
      "hit": false,
      "t": 138748.89000000004,
      "d": 209.26171875,
      "v": 101
    },
    {
      "midi": 45,
      "hit": false,
      "t": 139016.74500000005,
      "d": 161.82906250000815,
      "v": 102
    },
    {
      "midi": 33,
      "hit": false,
      "t": 139284.60000000006,
      "d": 393.4120312500163,
      "v": 111
    },
    {
      "midi": 72,
      "hit": false,
      "t": 139284.60000000006,
      "d": 265.0648437500058,
      "v": 104
    },
    {
      "midi": 67,
      "hit": false,
      "t": 139284.60000000006,
      "d": 267.8550000000105,
      "v": 90
    },
    {
      "midi": 76,
      "hit": false,
      "t": 139284.60000000006,
      "d": 284.5959375000093,
      "v": 97
    },
    {
      "midi": 45,
      "hit": false,
      "t": 139552.45500000007,
      "d": 156.24874999999884,
      "v": 96
    },
    {
      "midi": 60,
      "hit": false,
      "t": 139820.31000000008,
      "d": 223.21249999999418,
      "v": 101
    },
    {
      "midi": 64,
      "hit": false,
      "t": 139820.31000000008,
      "d": 223.21249999999418,
      "v": 112
    },
    {
      "midi": 67,
      "hit": false,
      "t": 139820.31000000008,
      "d": 265.0648437500058,
      "v": 101
    },
    {
      "midi": 33,
      "hit": false,
      "t": 140088.1650000001,
      "d": 100.44562499999302,
      "v": 97
    },
    {
      "midi": 45,
      "hit": false,
      "t": 140088.1650000001,
      "d": 111.60624999998254,
      "v": 100
    },
    {
      "midi": 35,
      "hit": false,
      "t": 140356.02000000008,
      "d": 449.215156249993,
      "v": 104
    },
    {
      "midi": 78,
      "hit": false,
      "t": 140356.02000000008,
      "d": 276.22546874999534,
      "v": 98
    },
    {
      "midi": 69,
      "hit": false,
      "t": 140356.02000000008,
      "d": 279.015625,
      "v": 91
    },
    {
      "midi": 74,
      "hit": false,
      "t": 140356.02000000008,
      "d": 281.80578125000466,
      "v": 94
    },
    {
      "midi": 47,
      "hit": false,
      "t": 140623.8750000001,
      "d": 133.9274999999907,
      "v": 98
    },
    {
      "midi": 69,
      "hit": false,
      "t": 140891.73000000007,
      "d": 223.21249999999418,
      "v": 114
    },
    {
      "midi": 66,
      "hit": false,
      "t": 140891.73000000007,
      "d": 228.7928125000035,
      "v": 109
    },
    {
      "midi": 62,
      "hit": false,
      "t": 140891.73000000007,
      "d": 237.16328125001746,
      "v": 102
    },
    {
      "midi": 47,
      "hit": false,
      "t": 141159.58500000008,
      "d": 75.33421875000931,
      "v": 96
    },
    {
      "midi": 31,
      "hit": false,
      "t": 141427.4400000001,
      "d": 184.1503124999872,
      "v": 98
    },
    {
      "midi": 43,
      "hit": false,
      "t": 141427.4400000001,
      "d": 184.1503124999872,
      "v": 102
    },
    {
      "midi": 71,
      "hit": false,
      "t": 141695.29500000007,
      "d": 83.70468749999418,
      "v": 94
    },
    {
      "midi": 74,
      "hit": false,
      "t": 141695.29500000007,
      "d": 86.49484374999884,
      "v": 92
    },
    {
      "midi": 67,
      "hit": false,
      "t": 141695.29500000007,
      "d": 89.28500000000349,
      "v": 94
    },
    {
      "midi": 62,
      "hit": false,
      "t": 141963.15000000008,
      "d": 114.3964062499872,
      "v": 105
    },
    {
      "midi": 67,
      "hit": false,
      "t": 141963.15000000008,
      "d": 136.71765624999534,
      "v": 97
    },
    {
      "midi": 59,
      "hit": false,
      "t": 141963.15000000008,
      "d": 170.19953124999302,
      "v": 109
    },
    {
      "midi": 71,
      "hit": false,
      "t": 141963.15000000008,
      "d": 133.9274999999907,
      "v": 97
    },
    {
      "midi": 74,
      "hit": false,
      "t": 141963.15000000008,
      "d": 142.29796875000466,
      "v": 90
    },
    {
      "midi": 67,
      "hit": false,
      "t": 141963.15000000008,
      "d": 147.87828125001397,
      "v": 89
    },
    {
      "midi": 31,
      "hit": false,
      "t": 142231.00500000006,
      "d": 78.12437500001397,
      "v": 90
    },
    {
      "midi": 43,
      "hit": false,
      "t": 142231.00500000006,
      "d": 78.12437500001397,
      "v": 86
    },
    {
      "midi": 67,
      "hit": false,
      "t": 142231.0050000001,
      "d": 61.38343749998603,
      "v": 62
    },
    {
      "midi": 74,
      "hit": false,
      "t": 142231.0050000001,
      "d": 66.96374999999534,
      "v": 54
    },
    {
      "midi": 48,
      "hit": false,
      "t": 142498.86000000007,
      "d": 220.42234374998952,
      "v": 95
    },
    {
      "midi": 36,
      "hit": false,
      "t": 142498.86000000007,
      "d": 231.58296874997905,
      "v": 99
    },
    {
      "midi": 72,
      "hit": false,
      "t": 142498.86000000007,
      "d": 103.23578124999767,
      "v": 101
    },
    {
      "midi": 76,
      "hit": false,
      "t": 142498.86000000007,
      "d": 111.60625000001164,
      "v": 101
    },
    {
      "midi": 67,
      "hit": false,
      "t": 142498.86000000007,
      "d": 114.3964062500163,
      "v": 91
    },
    {
      "midi": 60,
      "hit": false,
      "t": 142766.71500000005,
      "d": 78.12437500001397,
      "v": 96
    },
    {
      "midi": 67,
      "hit": false,
      "t": 142766.71500000005,
      "d": 100.44562500002212,
      "v": 76
    },
    {
      "midi": 72,
      "hit": false,
      "t": 142766.71500000008,
      "d": 41.85234375001164,
      "v": 58
    },
    {
      "midi": 67,
      "hit": false,
      "t": 142766.71500000008,
      "d": 58.59328125001048,
      "v": 54
    },
    {
      "midi": 76,
      "hit": false,
      "t": 142766.71500000008,
      "d": 58.59328125001048,
      "v": 58
    },
    {
      "midi": 40,
      "hit": false,
      "t": 143034.57000000007,
      "d": 83.70468749999418,
      "v": 90
    },
    {
      "midi": 62,
      "hit": false,
      "t": 143034.57000000007,
      "d": 242.74359374999767,
      "v": 96
    },
    {
      "midi": 66,
      "hit": false,
      "t": 143034.57000000007,
      "d": 251.11406250001164,
      "v": 96
    },
    {
      "midi": 69,
      "hit": false,
      "t": 143034.57000000007,
      "d": 276.22546875002445,
      "v": 97
    },
    {
      "midi": 50,
      "hit": false,
      "t": 143034.57000000007,
      "d": 281.80578125003376,
      "v": 94
    },
    {
      "midi": 38,
      "hit": false,
      "t": 143034.57000000007,
      "d": 304.1270312500419,
      "v": 91
    },
    {
      "midi": 74,
      "hit": false,
      "t": 143034.5700000001,
      "d": 167.40937499998836,
      "v": 100
    },
    {
      "midi": 78,
      "hit": false,
      "t": 143034.5700000001,
      "d": 178.56999999997788,
      "v": 96
    },
    {
      "midi": 69,
      "hit": false,
      "t": 143034.5700000001,
      "d": 186.94046874999185,
      "v": 96
    },
    {
      "midi": 62,
      "hit": false,
      "t": 143391.7100000001,
      "d": 39.062187500006985,
      "v": 69
    },
    {
      "midi": 47,
      "hit": false,
      "t": 143570.28000000012,
      "d": 256.69437499999185,
      "v": 102
    },
    {
      "midi": 35,
      "hit": false,
      "t": 143570.28000000012,
      "d": 273.4353124999907,
      "v": 102
    },
    {
      "midi": 74,
      "hit": false,
      "t": 143838.1350000001,
      "d": 78.12437500001397,
      "v": 92
    },
    {
      "midi": 78,
      "hit": false,
      "t": 143838.1350000001,
      "d": 78.12437500001397,
      "v": 91
    },
    {
      "midi": 69,
      "hit": false,
      "t": 143838.1350000001,
      "d": 92.07515625000815,
      "v": 93
    },
    {
      "midi": 62,
      "hit": false,
      "t": 144105.9900000001,
      "d": 172.98968749999767,
      "v": 101
    },
    {
      "midi": 66,
      "hit": false,
      "t": 144105.9900000001,
      "d": 172.98968749999767,
      "v": 102
    },
    {
      "midi": 69,
      "hit": false,
      "t": 144105.9900000001,
      "d": 181.36015625001164,
      "v": 107
    },
    {
      "midi": 35,
      "hit": false,
      "t": 144373.84500000012,
      "d": 89.28500000000349,
      "v": 89
    },
    {
      "midi": 47,
      "hit": false,
      "t": 144373.84500000012,
      "d": 106.02593750000233,
      "v": 96
    },
    {
      "midi": 74,
      "hit": false,
      "t": 144373.84500000012,
      "d": 80.91453124998952,
      "v": 85
    },
    {
      "midi": 78,
      "hit": false,
      "t": 144373.84500000012,
      "d": 86.49484374999884,
      "v": 83
    },
    {
      "midi": 69,
      "hit": false,
      "t": 144373.84500000012,
      "d": 92.07515625000815,
      "v": 82
    },
    {
      "midi": 71,
      "hit": false,
      "t": 144641.70000000013,
      "d": 295.75656249999884,
      "v": 97
    },
    {
      "midi": 52,
      "hit": false,
      "t": 144641.70000000013,
      "d": 301.33687500000815,
      "v": 107
    },
    {
      "midi": 67,
      "hit": false,
      "t": 144641.70000000013,
      "d": 306.91718750001746,
      "v": 97
    },
    {
      "midi": 40,
      "hit": false,
      "t": 144641.70000000013,
      "d": 323.6581250000163,
      "v": 100
    },
    {
      "midi": 62,
      "hit": false,
      "t": 144641.70000000013,
      "d": 326.44828125002095,
      "v": 91
    },
    {
      "midi": 79,
      "hit": false,
      "t": 144641.70000000013,
      "d": 337.6089062500105,
      "v": 100
    },
    {
      "midi": 74,
      "hit": false,
      "t": 144641.70000000013,
      "d": 345.97937500002445,
      "v": 93
    },
    {
      "midi": 71,
      "hit": false,
      "t": 144641.70000000013,
      "d": 357.14000000001397,
      "v": 89
    },
    {
      "midi": 62,
      "hit": false,
      "t": 145177.41000000015,
      "d": 228.7928125000035,
      "v": 89
    },
    {
      "midi": 50,
      "hit": false,
      "t": 145177.41000000015,
      "d": 256.69437499999185,
      "v": 100
    },
    {
      "midi": 38,
      "hit": false,
      "t": 145177.41000000015,
      "d": 295.75656249996973,
      "v": 98
    },
    {
      "midi": 66,
      "hit": false,
      "t": 145177.41000000015,
      "d": 354.3498437499802,
      "v": 96
    },
    {
      "midi": 69,
      "hit": false,
      "t": 145177.41000000015,
      "d": 359.9301562499895,
      "v": 92
    },
    {
      "midi": 78,
      "hit": false,
      "t": 145177.41000000015,
      "d": 326.44828124999185,
      "v": 92
    },
    {
      "midi": 74,
      "hit": false,
      "t": 145177.41000000015,
      "d": 340.39906249998603,
      "v": 88
    },
    {
      "midi": 69,
      "hit": false,
      "t": 145177.41000000015,
      "d": 354.3498437499802,
      "v": 92
    },
    {
      "midi": 62,
      "hit": false,
      "t": 145445.26500000013,
      "d": 108.81609375000698,
      "v": 78
    },
    {
      "midi": 45,
      "hit": false,
      "t": 145713.12000000014,
      "d": 217.63218750001397,
      "v": 97
    },
    {
      "midi": 33,
      "hit": false,
      "t": 145713.12000000014,
      "d": 239.95343750002212,
      "v": 104
    },
    {
      "midi": 72,
      "hit": false,
      "t": 145713.12000000014,
      "d": 295.75656249999884,
      "v": 95
    },
    {
      "midi": 76,
      "hit": false,
      "t": 145713.12000000014,
      "d": 304.1270312500128,
      "v": 93
    },
    {
      "midi": 67,
      "hit": false,
      "t": 145713.12000000014,
      "d": 309.7073437500221,
      "v": 88
    },
    {
      "midi": 60,
      "hit": false,
      "t": 145980.97500000015,
      "d": 66.96374999999534,
      "v": 70
    },
    {
      "midi": 64,
      "hit": false,
      "t": 146248.83000000013,
      "d": 184.1503124999872,
      "v": 112
    },
    {
      "midi": 60,
      "hit": false,
      "t": 146248.83000000013,
      "d": 186.94046874999185,
      "v": 106
    },
    {
      "midi": 67,
      "hit": false,
      "t": 146248.83000000013,
      "d": 195.31093750000582,
      "v": 97
    },
    {
      "midi": 45,
      "hit": false,
      "t": 146516.68500000014,
      "d": 142.29796875000466,
      "v": 93
    },
    {
      "midi": 33,
      "hit": false,
      "t": 146784.54000000015,
      "d": 318.077812500007,
      "v": 105
    },
    {
      "midi": 72,
      "hit": false,
      "t": 146784.54000000015,
      "d": 262.27468750000116,
      "v": 101
    },
    {
      "midi": 67,
      "hit": false,
      "t": 146784.54000000015,
      "d": 265.0648437500058,
      "v": 98
    },
    {
      "midi": 76,
      "hit": false,
      "t": 146784.54000000015,
      "d": 270.64515625001513,
      "v": 97
    },
    {
      "midi": 45,
      "hit": false,
      "t": 147052.39500000016,
      "d": 86.49484374999884,
      "v": 92
    },
    {
      "midi": 60,
      "hit": false,
      "t": 147320.25000000017,
      "d": 172.98968749999767,
      "v": 110
    },
    {
      "midi": 64,
      "hit": false,
      "t": 147320.25000000017,
      "d": 172.98968749999767,
      "v": 112
    },
    {
      "midi": 67,
      "hit": false,
      "t": 147320.25000000017,
      "d": 172.98968749999767,
      "v": 105
    },
    {
      "midi": 45,
      "hit": false,
      "t": 147588.10500000019,
      "d": 128.34718750001048,
      "v": 98
    },
    {
      "midi": 72,
      "hit": false,
      "t": 147855.96000000017,
      "d": 284.5959375000093,
      "v": 103
    },
    {
      "midi": 67,
      "hit": false,
      "t": 147855.96000000017,
      "d": 287.38609375001397,
      "v": 93
    },
    {
      "midi": 76,
      "hit": false,
      "t": 147855.96000000017,
      "d": 290.1762500000186,
      "v": 98
    },
    {
      "midi": 33,
      "hit": false,
      "t": 147855.9600000002,
      "d": 343.1892187500198,
      "v": 112
    },
    {
      "midi": 45,
      "hit": false,
      "t": 148123.8150000002,
      "d": 156.24874999999884,
      "v": 97
    },
    {
      "midi": 60,
      "hit": false,
      "t": 148391.67000000022,
      "d": 167.40937499998836,
      "v": 103
    },
    {
      "midi": 64,
      "hit": false,
      "t": 148391.67000000022,
      "d": 167.40937499998836,
      "v": 112
    },
    {
      "midi": 67,
      "hit": false,
      "t": 148391.67000000022,
      "d": 189.7306249999965,
      "v": 102
    },
    {
      "midi": 33,
      "hit": false,
      "t": 148659.52500000023,
      "d": 111.60625000001164,
      "v": 91
    },
    {
      "midi": 45,
      "hit": false,
      "t": 148659.52500000023,
      "d": 119.97671875002561,
      "v": 98
    },
    {
      "midi": 74,
      "hit": false,
      "t": 148927.38000000018,
      "d": 292.9664062499942,
      "v": 98
    },
    {
      "midi": 78,
      "hit": false,
      "t": 148927.38000000018,
      "d": 292.9664062499942,
      "v": 97
    },
    {
      "midi": 69,
      "hit": false,
      "t": 148927.38000000018,
      "d": 301.33687500000815,
      "v": 98
    },
    {
      "midi": 35,
      "hit": false,
      "t": 148927.38000000027,
      "d": 301.33687500000815,
      "v": 102
    },
    {
      "midi": 57,
      "hit": false,
      "t": 149195.23500000028,
      "d": 139.5078125,
      "v": 101
    },
    {
      "midi": 62,
      "hit": false,
      "t": 149195.23500000028,
      "d": 147.87828125001397,
      "v": 102
    },
    {
      "midi": 66,
      "hit": false,
      "t": 149195.23500000028,
      "d": 150.66843750001863,
      "v": 100
    },
    {
      "midi": 47,
      "hit": false,
      "t": 149463.0900000003,
      "d": 212.05187500000466,
      "v": 90
    },
    {
      "midi": 35,
      "hit": false,
      "t": 149463.0900000003,
      "d": 234.3731250000128,
      "v": 107
    },
    {
      "midi": 57,
      "hit": false,
      "t": 149730.9450000003,
      "d": 103.23578124999767,
      "v": 101
    },
    {
      "midi": 62,
      "hit": false,
      "t": 149730.9450000003,
      "d": 117.18656249999185,
      "v": 105
    },
    {
      "midi": 66,
      "hit": false,
      "t": 149730.9450000003,
      "d": 142.29796875000466,
      "v": 105
    },
    {
      "midi": 67,
      "hit": false,
      "t": 149998.8000000002,
      "d": 248.32390625000698,
      "v": 84
    },
    {
      "midi": 71,
      "hit": false,
      "t": 149998.8000000002,
      "d": 248.32390625000698,
      "v": 86
    },
    {
      "midi": 74,
      "hit": false,
      "t": 149998.8000000002,
      "d": 248.32390625000698,
      "v": 88
    },
    {
      "midi": 31,
      "hit": false,
      "t": 149998.8000000003,
      "d": 410.15296875001513,
      "v": 105
    },
    {
      "midi": 43,
      "hit": false,
      "t": 150266.65500000032,
      "d": 156.24874999999884,
      "v": 97
    },
    {
      "midi": 67,
      "hit": false,
      "t": 150534.51000000033,
      "d": 164.6192187500128,
      "v": 107
    },
    {
      "midi": 71,
      "hit": false,
      "t": 150534.51000000033,
      "d": 164.6192187500128,
      "v": 109
    },
    {
      "midi": 62,
      "hit": false,
      "t": 150534.51000000033,
      "d": 198.10109375001048,
      "v": 97
    },
    {
      "midi": 71,
      "hit": false,
      "t": 150802.3650000002,
      "d": 72.54406250000466,
      "v": 74
    },
    {
      "midi": 74,
      "hit": false,
      "t": 150802.3650000002,
      "d": 80.91453125001863,
      "v": 76
    },
    {
      "midi": 67,
      "hit": false,
      "t": 150802.3650000002,
      "d": 83.70468750002328,
      "v": 71
    },
    {
      "midi": 48,
      "hit": false,
      "t": 150802.36500000034,
      "d": 136.71765624999534,
      "v": 70
    },
    {
      "midi": 72,
      "hit": false,
      "t": 151070.2200000002,
      "d": 228.7928125000035,
      "v": 98
    },
    {
      "midi": 67,
      "hit": false,
      "t": 151070.2200000002,
      "d": 245.53375000000233,
      "v": 86
    },
    {
      "midi": 76,
      "hit": false,
      "t": 151070.2200000002,
      "d": 253.9042187500163,
      "v": 98
    },
    {
      "midi": 55,
      "hit": false,
      "t": 151070.22000000032,
      "d": 203.6814062499907,
      "v": 85
    },
    {
      "midi": 60,
      "hit": false,
      "t": 151070.22000000032,
      "d": 214.8420312499802,
      "v": 87
    },
    {
      "midi": 64,
      "hit": false,
      "t": 151070.22000000032,
      "d": 237.16328124998836,
      "v": 89
    },
    {
      "midi": 36,
      "hit": false,
      "t": 151070.22000000032,
      "d": 262.27468750000116,
      "v": 106
    },
    {
      "midi": 48,
      "hit": false,
      "t": 151338.07500000033,
      "d": 47.43265624999185,
      "v": 86
    },
    {
      "midi": 78,
      "hit": false,
      "t": 151605.93000000023,
      "d": 253.9042187499872,
      "v": 98
    },
    {
      "midi": 74,
      "hit": false,
      "t": 151605.93000000023,
      "d": 256.69437499999185,
      "v": 96
    },
    {
      "midi": 69,
      "hit": false,
      "t": 151605.93000000023,
      "d": 270.64515624998603,
      "v": 91
    },
    {
      "midi": 57,
      "hit": false,
      "t": 151605.9300000003,
      "d": 284.5959375000093,
      "v": 109
    },
    {
      "midi": 62,
      "hit": false,
      "t": 151605.9300000003,
      "d": 284.5959375000093,
      "v": 109
    },
    {
      "midi": 66,
      "hit": false,
      "t": 151605.9300000003,
      "d": 284.5959375000093,
      "v": 114
    },
    {
      "midi": 38,
      "hit": false,
      "t": 151605.9300000003,
      "d": 354.3498437500093,
      "v": 102
    },
    {
      "midi": 50,
      "hit": false,
      "t": 151873.78500000032,
      "d": 80.91453124998952,
      "v": 80
    },
    {
      "midi": 78,
      "hit": false,
      "t": 152141.64000000022,
      "d": 284.5959375000093,
      "v": 100
    },
    {
      "midi": 69,
      "hit": false,
      "t": 152141.64000000022,
      "d": 292.9664062500233,
      "v": 96
    },
    {
      "midi": 74,
      "hit": false,
      "t": 152141.64000000022,
      "d": 292.9664062500233,
      "v": 88
    },
    {
      "midi": 35,
      "hit": false,
      "t": 152141.64000000033,
      "d": 460.37578125001164,
      "v": 107
    },
    {
      "midi": 47,
      "hit": false,
      "t": 152409.49500000034,
      "d": 175.77984375000233,
      "v": 98
    },
    {
      "midi": 57,
      "hit": false,
      "t": 152677.35000000036,
      "d": 147.87828125001397,
      "v": 93
    },
    {
      "midi": 62,
      "hit": false,
      "t": 152677.35000000036,
      "d": 156.24875000002794,
      "v": 97
    },
    {
      "midi": 66,
      "hit": false,
      "t": 152677.35000000036,
      "d": 161.82906250003725,
      "v": 93
    },
    {
      "midi": 35,
      "hit": false,
      "t": 152945.2050000004,
      "d": 80.91453124998952,
      "v": 100
    },
    {
      "midi": 47,
      "hit": false,
      "t": 152945.2050000004,
      "d": 86.49484374999884,
      "v": 94
    },
    {
      "midi": 79,
      "hit": false,
      "t": 153213.06000000023,
      "d": 251.11406250001164,
      "v": 97
    },
    {
      "midi": 74,
      "hit": false,
      "t": 153213.06000000023,
      "d": 256.69437500002095,
      "v": 98
    },
    {
      "midi": 71,
      "hit": false,
      "t": 153213.06000000023,
      "d": 273.4353125000198,
      "v": 96
    },
    {
      "midi": 59,
      "hit": false,
      "t": 153213.0600000004,
      "d": 334.8187500000058,
      "v": 91
    },
    {
      "midi": 62,
      "hit": false,
      "t": 153213.0600000004,
      "d": 334.8187500000058,
      "v": 97
    },
    {
      "midi": 40,
      "hit": false,
      "t": 153213.0600000004,
      "d": 343.1892187500198,
      "v": 112
    },
    {
      "midi": 67,
      "hit": false,
      "t": 153213.0600000004,
      "d": 351.55968750003376,
      "v": 100
    },
    {
      "midi": 74,
      "hit": false,
      "t": 153748.77000000025,
      "d": 295.75656249999884,
      "v": 98
    },
    {
      "midi": 78,
      "hit": false,
      "t": 153748.77000000025,
      "d": 295.75656249999884,
      "v": 97
    },
    {
      "midi": 69,
      "hit": false,
      "t": 153748.77000000025,
      "d": 320.86796875001164,
      "v": 97
    },
    {
      "midi": 38,
      "hit": false,
      "t": 153748.77000000043,
      "d": 242.74359374999767,
      "v": 101
    },
    {
      "midi": 66,
      "hit": false,
      "t": 153748.77000000043,
      "d": 343.1892187499907,
      "v": 101
    },
    {
      "midi": 57,
      "hit": false,
      "t": 153748.77000000043,
      "d": 345.97937499999534,
      "v": 102
    },
    {
      "midi": 62,
      "hit": false,
      "t": 153748.77000000043,
      "d": 345.97937499999534,
      "v": 104
    },
    {
      "midi": 72,
      "hit": false,
      "t": 154284.48000000027,
      "d": 251.11406250001164,
      "v": 99
    },
    {
      "midi": 76,
      "hit": false,
      "t": 154284.48000000027,
      "d": 265.0648437500058,
      "v": 101
    },
    {
      "midi": 67,
      "hit": false,
      "t": 154284.48000000027,
      "d": 284.5959375000093,
      "v": 97
    },
    {
      "midi": 33,
      "hit": false,
      "t": 154284.48000000042,
      "d": 421.31359375003376,
      "v": 107
    },
    {
      "midi": 45,
      "hit": false,
      "t": 154552.33500000043,
      "d": 94.8653125000128,
      "v": 98
    },
    {
      "midi": 64,
      "hit": false,
      "t": 154820.19000000044,
      "d": 206.47156249999534,
      "v": 112
    },
    {
      "midi": 67,
      "hit": false,
      "t": 154820.19000000044,
      "d": 212.05187500000466,
      "v": 102
    },
    {
      "midi": 60,
      "hit": false,
      "t": 154820.19000000044,
      "d": 214.8420312500093,
      "v": 103
    },
    {
      "midi": 45,
      "hit": false,
      "t": 155088.04500000045,
      "d": 139.5078125,
      "v": 102
    },
    {
      "midi": 72,
      "hit": false,
      "t": 155355.90000000029,
      "d": 270.64515624998603,
      "v": 106
    },
    {
      "midi": 67,
      "hit": false,
      "t": 155355.90000000029,
      "d": 276.22546874999534,
      "v": 91
    },
    {
      "midi": 76,
      "hit": false,
      "t": 155355.90000000029,
      "d": 276.22546874999534,
      "v": 100
    },
    {
      "midi": 33,
      "hit": false,
      "t": 155355.90000000046,
      "d": 371.09078125000815,
      "v": 107
    },
    {
      "midi": 45,
      "hit": false,
      "t": 155623.75500000047,
      "d": 133.9274999999907,
      "v": 92
    },
    {
      "midi": 60,
      "hit": false,
      "t": 155891.61000000045,
      "d": 198.10109375001048,
      "v": 103
    },
    {
      "midi": 64,
      "hit": false,
      "t": 155891.61000000045,
      "d": 198.10109375001048,
      "v": 109
    },
    {
      "midi": 67,
      "hit": false,
      "t": 155891.61000000045,
      "d": 209.26171875,
      "v": 101
    },
    {
      "midi": 45,
      "hit": false,
      "t": 156159.46500000046,
      "d": 161.82906250000815,
      "v": 102
    },
    {
      "midi": 72,
      "hit": false,
      "t": 156427.32000000027,
      "d": 265.0648437500058,
      "v": 104
    },
    {
      "midi": 67,
      "hit": false,
      "t": 156427.32000000027,
      "d": 267.8550000000105,
      "v": 90
    },
    {
      "midi": 76,
      "hit": false,
      "t": 156427.32000000027,
      "d": 284.5959375000093,
      "v": 97
    },
    {
      "midi": 33,
      "hit": false,
      "t": 156427.32000000047,
      "d": 393.4120312500163,
      "v": 111
    },
    {
      "midi": 45,
      "hit": false,
      "t": 156695.17500000048,
      "d": 156.24874999999884,
      "v": 96
    },
    {
      "midi": 60,
      "hit": false,
      "t": 156963.0300000005,
      "d": 223.21249999999418,
      "v": 101
    },
    {
      "midi": 64,
      "hit": false,
      "t": 156963.0300000005,
      "d": 223.21249999999418,
      "v": 112
    },
    {
      "midi": 67,
      "hit": false,
      "t": 156963.0300000005,
      "d": 265.0648437500058,
      "v": 101
    },
    {
      "midi": 33,
      "hit": false,
      "t": 157230.8850000005,
      "d": 100.44562499999302,
      "v": 97
    },
    {
      "midi": 45,
      "hit": false,
      "t": 157230.8850000005,
      "d": 111.60624999998254,
      "v": 100
    },
    {
      "midi": 78,
      "hit": false,
      "t": 157498.74000000028,
      "d": 276.22546874999534,
      "v": 98
    },
    {
      "midi": 69,
      "hit": false,
      "t": 157498.74000000028,
      "d": 279.015625,
      "v": 91
    },
    {
      "midi": 74,
      "hit": false,
      "t": 157498.74000000028,
      "d": 281.80578125000466,
      "v": 94
    },
    {
      "midi": 35,
      "hit": false,
      "t": 157498.7400000005,
      "d": 449.215156249993,
      "v": 104
    },
    {
      "midi": 47,
      "hit": false,
      "t": 157766.5950000005,
      "d": 133.9274999999907,
      "v": 98
    },
    {
      "midi": 69,
      "hit": false,
      "t": 158034.45000000048,
      "d": 223.21249999999418,
      "v": 114
    },
    {
      "midi": 66,
      "hit": false,
      "t": 158034.45000000048,
      "d": 228.7928125000035,
      "v": 109
    },
    {
      "midi": 62,
      "hit": false,
      "t": 158034.45000000048,
      "d": 237.16328125001746,
      "v": 102
    },
    {
      "midi": 47,
      "hit": false,
      "t": 158302.3050000005,
      "d": 75.33421875000931,
      "v": 96
    },
    {
      "midi": 31,
      "hit": false,
      "t": 158570.1600000005,
      "d": 184.1503124999872,
      "v": 98
    },
    {
      "midi": 43,
      "hit": false,
      "t": 158570.1600000005,
      "d": 184.1503124999872,
      "v": 102
    },
    {
      "midi": 71,
      "hit": false,
      "t": 158838.01500000028,
      "d": 83.70468749999418,
      "v": 94
    },
    {
      "midi": 74,
      "hit": false,
      "t": 158838.01500000028,
      "d": 86.49484374999884,
      "v": 92
    },
    {
      "midi": 67,
      "hit": false,
      "t": 158838.01500000028,
      "d": 89.28500000000349,
      "v": 94
    },
    {
      "midi": 71,
      "hit": false,
      "t": 159105.8700000003,
      "d": 133.9274999999907,
      "v": 97
    },
    {
      "midi": 74,
      "hit": false,
      "t": 159105.8700000003,
      "d": 142.29796875000466,
      "v": 90
    },
    {
      "midi": 67,
      "hit": false,
      "t": 159105.8700000003,
      "d": 147.87828125001397,
      "v": 89
    },
    {
      "midi": 62,
      "hit": false,
      "t": 159105.8700000005,
      "d": 114.3964062499872,
      "v": 105
    },
    {
      "midi": 67,
      "hit": false,
      "t": 159105.8700000005,
      "d": 136.71765624999534,
      "v": 97
    },
    {
      "midi": 59,
      "hit": false,
      "t": 159105.8700000005,
      "d": 170.19953124999302,
      "v": 109
    },
    {
      "midi": 67,
      "hit": false,
      "t": 159373.7250000003,
      "d": 61.38343749998603,
      "v": 62
    },
    {
      "midi": 74,
      "hit": false,
      "t": 159373.7250000003,
      "d": 66.96374999999534,
      "v": 54
    },
    {
      "midi": 31,
      "hit": false,
      "t": 159373.72500000047,
      "d": 78.12437500001397,
      "v": 90
    },
    {
      "midi": 43,
      "hit": false,
      "t": 159373.72500000047,
      "d": 78.12437500001397,
      "v": 86
    },
    {
      "midi": 72,
      "hit": false,
      "t": 159641.58000000028,
      "d": 103.23578124999767,
      "v": 101
    },
    {
      "midi": 76,
      "hit": false,
      "t": 159641.58000000028,
      "d": 111.60625000001164,
      "v": 101
    },
    {
      "midi": 67,
      "hit": false,
      "t": 159641.58000000028,
      "d": 114.3964062500163,
      "v": 91
    },
    {
      "midi": 48,
      "hit": false,
      "t": 159641.58000000048,
      "d": 220.42234374998952,
      "v": 95
    },
    {
      "midi": 36,
      "hit": false,
      "t": 159641.58000000048,
      "d": 231.58296874997905,
      "v": 99
    },
    {
      "midi": 72,
      "hit": false,
      "t": 159909.4350000003,
      "d": 41.85234375001164,
      "v": 58
    },
    {
      "midi": 67,
      "hit": false,
      "t": 159909.4350000003,
      "d": 58.59328125001048,
      "v": 54
    },
    {
      "midi": 76,
      "hit": false,
      "t": 159909.4350000003,
      "d": 58.59328125001048,
      "v": 58
    },
    {
      "midi": 60,
      "hit": false,
      "t": 159909.43500000046,
      "d": 78.12437500001397,
      "v": 96
    },
    {
      "midi": 67,
      "hit": false,
      "t": 159909.43500000046,
      "d": 100.44562500002212,
      "v": 76
    },
    {
      "midi": 74,
      "hit": false,
      "t": 160177.2900000003,
      "d": 167.40937499998836,
      "v": 100
    },
    {
      "midi": 78,
      "hit": false,
      "t": 160177.2900000003,
      "d": 178.56999999997788,
      "v": 96
    },
    {
      "midi": 69,
      "hit": false,
      "t": 160177.2900000003,
      "d": 186.94046874999185,
      "v": 96
    },
    {
      "midi": 40,
      "hit": false,
      "t": 160177.29000000047,
      "d": 83.70468749999418,
      "v": 90
    },
    {
      "midi": 62,
      "hit": false,
      "t": 160177.29000000047,
      "d": 242.74359374999767,
      "v": 96
    },
    {
      "midi": 66,
      "hit": false,
      "t": 160177.29000000047,
      "d": 251.11406250001164,
      "v": 96
    },
    {
      "midi": 69,
      "hit": false,
      "t": 160177.29000000047,
      "d": 276.22546875002445,
      "v": 97
    },
    {
      "midi": 50,
      "hit": false,
      "t": 160177.29000000047,
      "d": 281.80578125003376,
      "v": 94
    },
    {
      "midi": 38,
      "hit": false,
      "t": 160177.29000000047,
      "d": 304.1270312500419,
      "v": 91
    },
    {
      "midi": 62,
      "hit": false,
      "t": 160534.43000000052,
      "d": 39.062187500006985,
      "v": 69
    },
    {
      "midi": 47,
      "hit": false,
      "t": 160713.00000000052,
      "d": 256.69437499999185,
      "v": 102
    },
    {
      "midi": 35,
      "hit": false,
      "t": 160713.00000000052,
      "d": 273.4353124999907,
      "v": 102
    },
    {
      "midi": 74,
      "hit": false,
      "t": 160980.8550000003,
      "d": 78.12437500001397,
      "v": 92
    },
    {
      "midi": 78,
      "hit": false,
      "t": 160980.8550000003,
      "d": 78.12437500001397,
      "v": 91
    },
    {
      "midi": 69,
      "hit": false,
      "t": 160980.8550000003,
      "d": 92.07515625000815,
      "v": 93
    },
    {
      "midi": 62,
      "hit": false,
      "t": 161248.71000000052,
      "d": 172.98968749999767,
      "v": 101
    },
    {
      "midi": 66,
      "hit": false,
      "t": 161248.71000000052,
      "d": 172.98968749999767,
      "v": 102
    },
    {
      "midi": 69,
      "hit": false,
      "t": 161248.71000000052,
      "d": 181.36015625001164,
      "v": 107
    },
    {
      "midi": 74,
      "hit": false,
      "t": 161516.56500000032,
      "d": 80.91453124998952,
      "v": 85
    },
    {
      "midi": 78,
      "hit": false,
      "t": 161516.56500000032,
      "d": 86.49484374999884,
      "v": 83
    },
    {
      "midi": 69,
      "hit": false,
      "t": 161516.56500000032,
      "d": 92.07515625000815,
      "v": 82
    },
    {
      "midi": 35,
      "hit": false,
      "t": 161516.56500000053,
      "d": 89.28500000000349,
      "v": 89
    },
    {
      "midi": 47,
      "hit": false,
      "t": 161516.56500000053,
      "d": 106.02593750000233,
      "v": 96
    },
    {
      "midi": 79,
      "hit": false,
      "t": 161784.42000000033,
      "d": 337.6089062500105,
      "v": 100
    },
    {
      "midi": 74,
      "hit": false,
      "t": 161784.42000000033,
      "d": 345.97937500002445,
      "v": 93
    },
    {
      "midi": 71,
      "hit": false,
      "t": 161784.42000000033,
      "d": 357.14000000001397,
      "v": 89
    },
    {
      "midi": 71,
      "hit": false,
      "t": 161784.42000000054,
      "d": 295.75656249999884,
      "v": 97
    },
    {
      "midi": 52,
      "hit": false,
      "t": 161784.42000000054,
      "d": 301.33687500000815,
      "v": 107
    },
    {
      "midi": 67,
      "hit": false,
      "t": 161784.42000000054,
      "d": 306.91718750001746,
      "v": 97
    },
    {
      "midi": 40,
      "hit": false,
      "t": 161784.42000000054,
      "d": 323.6581250000163,
      "v": 100
    },
    {
      "midi": 62,
      "hit": false,
      "t": 161784.42000000054,
      "d": 326.44828125002095,
      "v": 91
    },
    {
      "midi": 78,
      "hit": false,
      "t": 162320.13000000035,
      "d": 326.44828124999185,
      "v": 92
    },
    {
      "midi": 74,
      "hit": false,
      "t": 162320.13000000035,
      "d": 340.39906249998603,
      "v": 88
    },
    {
      "midi": 69,
      "hit": false,
      "t": 162320.13000000035,
      "d": 354.3498437499802,
      "v": 92
    },
    {
      "midi": 62,
      "hit": false,
      "t": 162320.13000000056,
      "d": 228.7928125000035,
      "v": 89
    },
    {
      "midi": 50,
      "hit": false,
      "t": 162320.13000000056,
      "d": 256.69437499999185,
      "v": 100
    },
    {
      "midi": 38,
      "hit": false,
      "t": 162320.13000000056,
      "d": 295.75656249996973,
      "v": 98
    },
    {
      "midi": 66,
      "hit": false,
      "t": 162320.13000000056,
      "d": 354.3498437499802,
      "v": 96
    },
    {
      "midi": 69,
      "hit": false,
      "t": 162320.13000000056,
      "d": 359.9301562499895,
      "v": 92
    },
    {
      "midi": 62,
      "hit": false,
      "t": 162587.98500000054,
      "d": 108.81609375000698,
      "v": 78
    },
    {
      "midi": 72,
      "hit": false,
      "t": 162855.84000000035,
      "d": 295.75656249999884,
      "v": 95
    },
    {
      "midi": 76,
      "hit": false,
      "t": 162855.84000000035,
      "d": 304.1270312500128,
      "v": 93
    },
    {
      "midi": 67,
      "hit": false,
      "t": 162855.84000000035,
      "d": 309.7073437500221,
      "v": 88
    },
    {
      "midi": 45,
      "hit": false,
      "t": 162855.84000000055,
      "d": 217.63218750001397,
      "v": 97
    },
    {
      "midi": 33,
      "hit": false,
      "t": 162855.84000000055,
      "d": 239.95343750002212,
      "v": 104
    },
    {
      "midi": 60,
      "hit": false,
      "t": 163123.69500000056,
      "d": 66.96374999999534,
      "v": 70
    },
    {
      "midi": 64,
      "hit": false,
      "t": 163391.55000000054,
      "d": 184.1503124999872,
      "v": 112
    },
    {
      "midi": 60,
      "hit": false,
      "t": 163391.55000000054,
      "d": 186.94046874999185,
      "v": 106
    },
    {
      "midi": 67,
      "hit": false,
      "t": 163391.55000000054,
      "d": 195.31093750000582,
      "v": 97
    },
    {
      "midi": 45,
      "hit": false,
      "t": 163659.40500000055,
      "d": 142.29796875000466,
      "v": 93
    },
    {
      "midi": 72,
      "hit": false,
      "t": 163927.26000000036,
      "d": 262.27468750000116,
      "v": 101
    },
    {
      "midi": 67,
      "hit": false,
      "t": 163927.26000000036,
      "d": 265.0648437500058,
      "v": 98
    },
    {
      "midi": 76,
      "hit": false,
      "t": 163927.26000000036,
      "d": 270.64515625001513,
      "v": 97
    },
    {
      "midi": 33,
      "hit": false,
      "t": 163927.26000000056,
      "d": 318.077812500007,
      "v": 105
    },
    {
      "midi": 45,
      "hit": false,
      "t": 164195.11500000057,
      "d": 86.49484374999884,
      "v": 92
    },
    {
      "midi": 60,
      "hit": false,
      "t": 164462.97000000058,
      "d": 172.98968749999767,
      "v": 110
    },
    {
      "midi": 64,
      "hit": false,
      "t": 164462.97000000058,
      "d": 172.98968749999767,
      "v": 112
    },
    {
      "midi": 67,
      "hit": false,
      "t": 164462.97000000058,
      "d": 172.98968749999767,
      "v": 105
    },
    {
      "midi": 45,
      "hit": false,
      "t": 164730.8250000006,
      "d": 128.34718750001048,
      "v": 98
    },
    {
      "midi": 72,
      "hit": false,
      "t": 164998.68000000037,
      "d": 284.5959375000093,
      "v": 103
    },
    {
      "midi": 67,
      "hit": false,
      "t": 164998.68000000037,
      "d": 287.38609375001397,
      "v": 93
    },
    {
      "midi": 76,
      "hit": false,
      "t": 164998.68000000037,
      "d": 290.1762500000186,
      "v": 98
    },
    {
      "midi": 33,
      "hit": false,
      "t": 164998.6800000006,
      "d": 343.1892187500198,
      "v": 112
    },
    {
      "midi": 45,
      "hit": false,
      "t": 165266.53500000061,
      "d": 156.24874999999884,
      "v": 97
    },
    {
      "midi": 60,
      "hit": false,
      "t": 165534.39000000063,
      "d": 167.40937499998836,
      "v": 103
    },
    {
      "midi": 64,
      "hit": false,
      "t": 165534.39000000063,
      "d": 167.40937499998836,
      "v": 112
    },
    {
      "midi": 67,
      "hit": false,
      "t": 165534.39000000063,
      "d": 189.7306249999965,
      "v": 102
    },
    {
      "midi": 33,
      "hit": false,
      "t": 165802.24500000064,
      "d": 111.60625000001164,
      "v": 91
    },
    {
      "midi": 45,
      "hit": false,
      "t": 165802.24500000064,
      "d": 119.97671875002561,
      "v": 98
    },
    {
      "midi": 74,
      "hit": false,
      "t": 166070.10000000038,
      "d": 292.9664062499942,
      "v": 98
    },
    {
      "midi": 78,
      "hit": false,
      "t": 166070.10000000038,
      "d": 292.9664062499942,
      "v": 97
    },
    {
      "midi": 69,
      "hit": false,
      "t": 166070.10000000038,
      "d": 301.33687500000815,
      "v": 98
    },
    {
      "midi": 35,
      "hit": false,
      "t": 166070.10000000068,
      "d": 301.33687500000815,
      "v": 102
    },
    {
      "midi": 57,
      "hit": false,
      "t": 166337.9550000007,
      "d": 139.5078125,
      "v": 101
    },
    {
      "midi": 62,
      "hit": false,
      "t": 166337.9550000007,
      "d": 147.87828125001397,
      "v": 102
    },
    {
      "midi": 66,
      "hit": false,
      "t": 166337.9550000007,
      "d": 150.66843750001863,
      "v": 100
    },
    {
      "midi": 47,
      "hit": false,
      "t": 166605.8100000007,
      "d": 212.05187500000466,
      "v": 90
    },
    {
      "midi": 35,
      "hit": false,
      "t": 166605.8100000007,
      "d": 234.3731250000128,
      "v": 107
    },
    {
      "midi": 57,
      "hit": false,
      "t": 166873.6650000007,
      "d": 103.23578124999767,
      "v": 101
    },
    {
      "midi": 62,
      "hit": false,
      "t": 166873.6650000007,
      "d": 117.18656249999185,
      "v": 105
    },
    {
      "midi": 66,
      "hit": false,
      "t": 166873.6650000007,
      "d": 142.29796875000466,
      "v": 105
    },
    {
      "midi": 67,
      "hit": false,
      "t": 167141.5200000004,
      "d": 248.32390625000698,
      "v": 84
    },
    {
      "midi": 71,
      "hit": false,
      "t": 167141.5200000004,
      "d": 248.32390625000698,
      "v": 86
    },
    {
      "midi": 74,
      "hit": false,
      "t": 167141.5200000004,
      "d": 248.32390625000698,
      "v": 88
    },
    {
      "midi": 31,
      "hit": false,
      "t": 167141.52000000072,
      "d": 410.15296875001513,
      "v": 105
    },
    {
      "midi": 43,
      "hit": false,
      "t": 167409.37500000073,
      "d": 156.24874999999884,
      "v": 97
    },
    {
      "midi": 67,
      "hit": false,
      "t": 167677.23000000074,
      "d": 164.6192187500128,
      "v": 107
    },
    {
      "midi": 71,
      "hit": false,
      "t": 167677.23000000074,
      "d": 164.6192187500128,
      "v": 109
    },
    {
      "midi": 62,
      "hit": false,
      "t": 167677.23000000074,
      "d": 198.10109375001048,
      "v": 97
    },
    {
      "midi": 71,
      "hit": false,
      "t": 167945.0850000004,
      "d": 72.54406250000466,
      "v": 74
    },
    {
      "midi": 74,
      "hit": false,
      "t": 167945.0850000004,
      "d": 80.91453125001863,
      "v": 76
    },
    {
      "midi": 67,
      "hit": false,
      "t": 167945.0850000004,
      "d": 83.70468750002328,
      "v": 71
    },
    {
      "midi": 48,
      "hit": false,
      "t": 167945.08500000075,
      "d": 136.71765624999534,
      "v": 70
    },
    {
      "midi": 72,
      "hit": false,
      "t": 168212.9400000004,
      "d": 228.7928125000035,
      "v": 98
    },
    {
      "midi": 67,
      "hit": false,
      "t": 168212.9400000004,
      "d": 245.53375000000233,
      "v": 86
    },
    {
      "midi": 76,
      "hit": false,
      "t": 168212.9400000004,
      "d": 253.9042187500163,
      "v": 98
    },
    {
      "midi": 55,
      "hit": false,
      "t": 168212.94000000073,
      "d": 203.6814062499907,
      "v": 85
    },
    {
      "midi": 60,
      "hit": false,
      "t": 168212.94000000073,
      "d": 214.8420312499802,
      "v": 87
    },
    {
      "midi": 64,
      "hit": false,
      "t": 168212.94000000073,
      "d": 237.16328124998836,
      "v": 89
    },
    {
      "midi": 36,
      "hit": false,
      "t": 168212.94000000073,
      "d": 262.27468750000116,
      "v": 106
    },
    {
      "midi": 48,
      "hit": false,
      "t": 168480.79500000074,
      "d": 47.43265624999185,
      "v": 86
    },
    {
      "midi": 78,
      "hit": false,
      "t": 168748.65000000043,
      "d": 253.9042187499872,
      "v": 98
    },
    {
      "midi": 74,
      "hit": false,
      "t": 168748.65000000043,
      "d": 256.69437499999185,
      "v": 96
    },
    {
      "midi": 69,
      "hit": false,
      "t": 168748.65000000043,
      "d": 270.64515624998603,
      "v": 91
    },
    {
      "midi": 57,
      "hit": false,
      "t": 168748.65000000072,
      "d": 284.5959375000093,
      "v": 109
    },
    {
      "midi": 62,
      "hit": false,
      "t": 168748.65000000072,
      "d": 284.5959375000093,
      "v": 109
    },
    {
      "midi": 66,
      "hit": false,
      "t": 168748.65000000072,
      "d": 284.5959375000093,
      "v": 114
    },
    {
      "midi": 38,
      "hit": false,
      "t": 168748.65000000072,
      "d": 354.3498437500093,
      "v": 102
    },
    {
      "midi": 50,
      "hit": false,
      "t": 169016.50500000073,
      "d": 80.91453124998952,
      "v": 80
    },
    {
      "midi": 78,
      "hit": false,
      "t": 169284.36000000042,
      "d": 284.5959375000093,
      "v": 100
    },
    {
      "midi": 69,
      "hit": false,
      "t": 169284.36000000042,
      "d": 292.9664062500233,
      "v": 96
    },
    {
      "midi": 74,
      "hit": false,
      "t": 169284.36000000042,
      "d": 292.9664062500233,
      "v": 88
    },
    {
      "midi": 35,
      "hit": false,
      "t": 169284.36000000074,
      "d": 460.37578125001164,
      "v": 107
    },
    {
      "midi": 47,
      "hit": false,
      "t": 169552.21500000075,
      "d": 175.77984375000233,
      "v": 98
    },
    {
      "midi": 57,
      "hit": false,
      "t": 169820.07000000076,
      "d": 147.87828125001397,
      "v": 93
    },
    {
      "midi": 62,
      "hit": false,
      "t": 169820.07000000076,
      "d": 156.24875000002794,
      "v": 97
    },
    {
      "midi": 66,
      "hit": false,
      "t": 169820.07000000076,
      "d": 161.82906250003725,
      "v": 93
    },
    {
      "midi": 35,
      "hit": false,
      "t": 170087.9250000008,
      "d": 80.91453124998952,
      "v": 100
    },
    {
      "midi": 47,
      "hit": false,
      "t": 170087.9250000008,
      "d": 86.49484374999884,
      "v": 94
    },
    {
      "midi": 79,
      "hit": false,
      "t": 170355.78000000044,
      "d": 251.11406250001164,
      "v": 97
    },
    {
      "midi": 74,
      "hit": false,
      "t": 170355.78000000044,
      "d": 256.69437500002095,
      "v": 98
    },
    {
      "midi": 71,
      "hit": false,
      "t": 170355.78000000044,
      "d": 273.4353125000198,
      "v": 96
    },
    {
      "midi": 59,
      "hit": false,
      "t": 170355.7800000008,
      "d": 334.8187500000058,
      "v": 91
    },
    {
      "midi": 62,
      "hit": false,
      "t": 170355.7800000008,
      "d": 334.8187500000058,
      "v": 97
    },
    {
      "midi": 40,
      "hit": false,
      "t": 170355.7800000008,
      "d": 343.1892187500198,
      "v": 112
    },
    {
      "midi": 67,
      "hit": false,
      "t": 170355.7800000008,
      "d": 351.55968750003376,
      "v": 100
    },
    {
      "midi": 74,
      "hit": false,
      "t": 170891.49000000046,
      "d": 295.75656249999884,
      "v": 98
    },
    {
      "midi": 78,
      "hit": false,
      "t": 170891.49000000046,
      "d": 295.75656249999884,
      "v": 97
    },
    {
      "midi": 69,
      "hit": false,
      "t": 170891.49000000046,
      "d": 320.86796875001164,
      "v": 97
    },
    {
      "midi": 38,
      "hit": false,
      "t": 170891.49000000083,
      "d": 242.74359374999767,
      "v": 101
    },
    {
      "midi": 66,
      "hit": false,
      "t": 170891.49000000083,
      "d": 343.1892187499907,
      "v": 101
    },
    {
      "midi": 57,
      "hit": false,
      "t": 170891.49000000083,
      "d": 345.97937499999534,
      "v": 102
    },
    {
      "midi": 62,
      "hit": false,
      "t": 170891.49000000083,
      "d": 345.97937499999534,
      "v": 104
    },
    {
      "midi": 72,
      "hit": false,
      "t": 171427.20000000048,
      "d": 251.11406250001164,
      "v": 99
    },
    {
      "midi": 76,
      "hit": false,
      "t": 171427.20000000048,
      "d": 265.0648437500058,
      "v": 101
    },
    {
      "midi": 67,
      "hit": false,
      "t": 171427.20000000048,
      "d": 284.5959375000093,
      "v": 97
    },
    {
      "midi": 33,
      "hit": false,
      "t": 171427.20000000083,
      "d": 421.31359375003376,
      "v": 107
    },
    {
      "midi": 45,
      "hit": false,
      "t": 171695.05500000084,
      "d": 94.8653125000128,
      "v": 98
    },
    {
      "midi": 64,
      "hit": false,
      "t": 171962.91000000085,
      "d": 206.47156249999534,
      "v": 112
    },
    {
      "midi": 67,
      "hit": false,
      "t": 171962.91000000085,
      "d": 212.05187500000466,
      "v": 102
    },
    {
      "midi": 60,
      "hit": false,
      "t": 171962.91000000085,
      "d": 214.8420312500093,
      "v": 103
    },
    {
      "midi": 45,
      "hit": false,
      "t": 172230.76500000086,
      "d": 139.5078125,
      "v": 102
    },
    {
      "midi": 72,
      "hit": false,
      "t": 172498.6200000005,
      "d": 270.64515624998603,
      "v": 106
    },
    {
      "midi": 67,
      "hit": false,
      "t": 172498.6200000005,
      "d": 276.22546874999534,
      "v": 91
    },
    {
      "midi": 76,
      "hit": false,
      "t": 172498.6200000005,
      "d": 276.22546874999534,
      "v": 100
    },
    {
      "midi": 33,
      "hit": false,
      "t": 172498.62000000087,
      "d": 371.09078125000815,
      "v": 107
    },
    {
      "midi": 45,
      "hit": false,
      "t": 172766.47500000088,
      "d": 133.9274999999907,
      "v": 92
    },
    {
      "midi": 60,
      "hit": false,
      "t": 173034.33000000086,
      "d": 198.10109375001048,
      "v": 103
    },
    {
      "midi": 64,
      "hit": false,
      "t": 173034.33000000086,
      "d": 198.10109375001048,
      "v": 109
    },
    {
      "midi": 67,
      "hit": false,
      "t": 173034.33000000086,
      "d": 209.26171875,
      "v": 101
    },
    {
      "midi": 45,
      "hit": false,
      "t": 173302.18500000087,
      "d": 161.82906250000815,
      "v": 102
    },
    {
      "midi": 72,
      "hit": false,
      "t": 173570.04000000047,
      "d": 265.0648437500058,
      "v": 104
    },
    {
      "midi": 67,
      "hit": false,
      "t": 173570.04000000047,
      "d": 267.8550000000105,
      "v": 90
    },
    {
      "midi": 76,
      "hit": false,
      "t": 173570.04000000047,
      "d": 284.5959375000093,
      "v": 97
    },
    {
      "midi": 33,
      "hit": false,
      "t": 173570.04000000088,
      "d": 393.4120312500163,
      "v": 111
    },
    {
      "midi": 45,
      "hit": false,
      "t": 173837.8950000009,
      "d": 156.24874999999884,
      "v": 96
    },
    {
      "midi": 60,
      "hit": false,
      "t": 174105.7500000009,
      "d": 223.21249999999418,
      "v": 101
    },
    {
      "midi": 64,
      "hit": false,
      "t": 174105.7500000009,
      "d": 223.21249999999418,
      "v": 112
    },
    {
      "midi": 67,
      "hit": false,
      "t": 174105.7500000009,
      "d": 265.0648437500058,
      "v": 101
    },
    {
      "midi": 33,
      "hit": false,
      "t": 174373.6050000009,
      "d": 100.44562499999302,
      "v": 97
    },
    {
      "midi": 45,
      "hit": false,
      "t": 174373.6050000009,
      "d": 111.60624999998254,
      "v": 100
    },
    {
      "midi": 78,
      "hit": false,
      "t": 174641.4600000005,
      "d": 276.22546874999534,
      "v": 98
    },
    {
      "midi": 69,
      "hit": false,
      "t": 174641.4600000005,
      "d": 279.015625,
      "v": 91
    },
    {
      "midi": 74,
      "hit": false,
      "t": 174641.4600000005,
      "d": 281.80578125000466,
      "v": 94
    },
    {
      "midi": 35,
      "hit": false,
      "t": 174641.4600000009,
      "d": 449.215156249993,
      "v": 104
    },
    {
      "midi": 47,
      "hit": false,
      "t": 174909.3150000009,
      "d": 133.9274999999907,
      "v": 98
    },
    {
      "midi": 69,
      "hit": false,
      "t": 175177.1700000009,
      "d": 223.21249999999418,
      "v": 114
    },
    {
      "midi": 66,
      "hit": false,
      "t": 175177.1700000009,
      "d": 228.7928125000035,
      "v": 109
    },
    {
      "midi": 62,
      "hit": false,
      "t": 175177.1700000009,
      "d": 237.16328125001746,
      "v": 102
    },
    {
      "midi": 47,
      "hit": false,
      "t": 175445.0250000009,
      "d": 75.33421875000931,
      "v": 96
    },
    {
      "midi": 56,
      "hit": false,
      "t": 184016.3850000005,
      "d": 4338.692968749994,
      "v": 93
    },
    {
      "midi": 53,
      "hit": false,
      "t": 184016.3850000005,
      "d": 4355.433906249993,
      "v": 85
    },
    {
      "midi": 63,
      "hit": false,
      "t": 184016.3850000005,
      "d": 4355.433906249993,
      "v": 89
    },
    {
      "midi": 60,
      "hit": false,
      "t": 184016.3850000005,
      "d": 4366.5945312499825,
      "v": 96
    }
  ]
}