{
  "jsonPath": "Rock/Turkish Rock/Tarkan/bounce.json",
  "path": "Rock\\Turkish Rock\\Tarkan\\Bounce.mid",
  "name": "Bounce",
  "difficulty": "Advanced",
  "bpm": 140.00014000014,
  "notes": [
    {
      "midi": 35,
      "hit": false,
      "t": 1714.2840000000003,
      "d": 1674.1054687500002,
      "v": 70
    },
    {
      "midi": 47,
      "hit": false,
      "t": 1714.2840000000003,
      "d": 1683.03403125,
      "v": 35
    },
    {
      "midi": 54,
      "hit": false,
      "t": 1714.2840000000003,
      "d": 3285.7110000000002,
      "v": 35
    },
    {
      "midi": 62,
      "hit": false,
      "t": 1714.2840000000003,
      "d": 3361.60378125,
      "v": 35
    },
    {
      "midi": 59,
      "hit": false,
      "t": 1714.2840000000003,
      "d": 3441.96084375,
      "v": 35
    },
    {
      "midi": 78,
      "hit": false,
      "t": 2535.7117500000004,
      "d": 187.4998125000002,
      "v": 105
    },
    {
      "midi": 78,
      "hit": false,
      "t": 2772.3186562500005,
      "d": 339.28537499999993,
      "v": 105
    },
    {
      "midi": 78,
      "hit": false,
      "t": 3183.0325312500004,
      "d": 709.8207187500002,
      "v": 105
    },
    {
      "midi": 43,
      "hit": false,
      "t": 3366.0680625000005,
      "d": 1705.3554375000003,
      "v": 35
    },
    {
      "midi": 31,
      "hit": false,
      "t": 3428.5680000000007,
      "d": 1749.99825,
      "v": 70
    },
    {
      "midi": 79,
      "hit": false,
      "t": 3857.1390000000006,
      "d": 223.21406250000018,
      "v": 105
    },
    {
      "midi": 76,
      "hit": false,
      "t": 4089.281625000001,
      "d": 401.7853124999997,
      "v": 105
    },
    {
      "midi": 74,
      "hit": false,
      "t": 4513.388343750001,
      "d": 366.07106250000015,
      "v": 105
    },
    {
      "midi": 76,
      "hit": false,
      "t": 4937.495062500001,
      "d": 794.6420625000001,
      "v": 105
    },
    {
      "midi": 45,
      "hit": false,
      "t": 5075.88778125,
      "d": 1745.533968750001,
      "v": 35
    },
    {
      "midi": 61,
      "hit": false,
      "t": 5075.88778125,
      "d": 3495.5322187500014,
      "v": 35
    },
    {
      "midi": 64,
      "hit": false,
      "t": 5084.816343750001,
      "d": 3486.603656250001,
      "v": 35
    },
    {
      "midi": 57,
      "hit": false,
      "t": 5093.744906250001,
      "d": 1575.8912812500002,
      "v": 35
    },
    {
      "midi": 33,
      "hit": false,
      "t": 5142.852000000001,
      "d": 1683.0340312500002,
      "v": 70
    },
    {
      "midi": 76,
      "hit": false,
      "t": 5772.315656250001,
      "d": 147.32128124999963,
      "v": 105
    },
    {
      "midi": 76,
      "hit": false,
      "t": 5991.0654375,
      "d": 142.85699999999997,
      "v": 105
    },
    {
      "midi": 76,
      "hit": false,
      "t": 6214.279500000001,
      "d": 281.2497187500003,
      "v": 105
    },
    {
      "midi": 81,
      "hit": false,
      "t": 6580.350562500001,
      "d": 370.5353437499998,
      "v": 105
    },
    {
      "midi": 54,
      "hit": false,
      "t": 6776.778937500001,
      "d": 1758.9268124999999,
      "v": 35
    },
    {
      "midi": 58,
      "hit": false,
      "t": 6776.778937500001,
      "d": 1794.6410625000008,
      "v": 35
    },
    {
      "midi": 42,
      "hit": false,
      "t": 6785.707500000001,
      "d": 1785.7125000000005,
      "v": 35
    },
    {
      "midi": 30,
      "hit": false,
      "t": 6857.136000000001,
      "d": 1754.4625312500002,
      "v": 70
    },
    {
      "midi": 79,
      "hit": false,
      "t": 7017.850125000001,
      "d": 374.9996250000004,
      "v": 105
    },
    {
      "midi": 78,
      "hit": false,
      "t": 7441.956843750001,
      "d": 397.3210312500005,
      "v": 105
    },
    {
      "midi": 79,
      "hit": false,
      "t": 7892.849250000002,
      "d": 343.74965624999913,
      "v": 105
    },
    {
      "midi": 78,
      "hit": false,
      "t": 8312.491687500002,
      "d": 638.3922187499993,
      "v": 105
    },
    {
      "midi": 35,
      "hit": false,
      "t": 8571.420000000002,
      "d": 1674.10546875,
      "v": 70
    },
    {
      "midi": 47,
      "hit": false,
      "t": 8571.420000000002,
      "d": 1683.0340312500011,
      "v": 35
    },
    {
      "midi": 54,
      "hit": false,
      "t": 8571.420000000002,
      "d": 3285.711000000001,
      "v": 35
    },
    {
      "midi": 62,
      "hit": false,
      "t": 8571.420000000002,
      "d": 3361.6037812500017,
      "v": 35
    },
    {
      "midi": 59,
      "hit": false,
      "t": 8571.420000000002,
      "d": 3441.960843750001,
      "v": 35
    },
    {
      "midi": 74,
      "hit": false,
      "t": 9187.4908125,
      "d": 178.57125000000087,
      "v": 105
    },
    {
      "midi": 74,
      "hit": false,
      "t": 9424.097718750001,
      "d": 169.64268749999974,
      "v": 105
    },
    {
      "midi": 74,
      "hit": false,
      "t": 9651.776062500001,
      "d": 263.39259375000074,
      "v": 105
    },
    {
      "midi": 74,
      "hit": false,
      "t": 10062.489937500002,
      "d": 424.10671874999935,
      "v": 105
    },
    {
      "midi": 43,
      "hit": false,
      "t": 10223.204062500003,
      "d": 1705.3554375000003,
      "v": 35
    },
    {
      "midi": 31,
      "hit": false,
      "t": 10285.704000000002,
      "d": 1749.9982500000006,
      "v": 70
    },
    {
      "midi": 76,
      "hit": false,
      "t": 10495.525218750001,
      "d": 290.1782812500005,
      "v": 105
    },
    {
      "midi": 76,
      "hit": false,
      "t": 10928.560500000001,
      "d": 392.85675000000083,
      "v": 105
    },
    {
      "midi": 78,
      "hit": false,
      "t": 11339.274375000003,
      "d": 406.2495937500007,
      "v": 105
    },
    {
      "midi": 76,
      "hit": false,
      "t": 11794.631062500004,
      "d": 1857.1409999999996,
      "v": 105
    },
    {
      "midi": 45,
      "hit": false,
      "t": 11933.023781250004,
      "d": 1745.53396875,
      "v": 35
    },
    {
      "midi": 61,
      "hit": false,
      "t": 11933.023781250004,
      "d": 3495.5322187499987,
      "v": 35
    },
    {
      "midi": 64,
      "hit": false,
      "t": 11941.952343750003,
      "d": 3486.6036562499994,
      "v": 35
    },
    {
      "midi": 57,
      "hit": false,
      "t": 11950.880906250002,
      "d": 1575.8912812500002,
      "v": 35
    },
    {
      "midi": 33,
      "hit": false,
      "t": 11999.988000000001,
      "d": 1683.0340312500011,
      "v": 70
    },
    {
      "midi": 54,
      "hit": false,
      "t": 13633.914937500003,
      "d": 1772.3196562499998,
      "v": 35
    },
    {
      "midi": 58,
      "hit": false,
      "t": 13633.914937500003,
      "d": 1794.641062499999,
      "v": 35
    },
    {
      "midi": 42,
      "hit": false,
      "t": 13642.843500000003,
      "d": 1785.7124999999996,
      "v": 35
    },
    {
      "midi": 30,
      "hit": false,
      "t": 13714.272000000003,
      "d": 1754.4625312499993,
      "v": 70
    },
    {
      "midi": 78,
      "hit": false,
      "t": 14553.556875000004,
      "d": 245.5354687500003,
      "v": 105
    },
    {
      "midi": 76,
      "hit": false,
      "t": 14803.556625000005,
      "d": 352.67821874999936,
      "v": 105
    },
    {
      "midi": 78,
      "hit": false,
      "t": 15218.734781250005,
      "d": 544.6423125000001,
      "v": 105
    },
    {
      "midi": 35,
      "hit": false,
      "t": 15428.556000000002,
      "d": 1674.1054687499982,
      "v": 70
    },
    {
      "midi": 47,
      "hit": false,
      "t": 15428.556000000002,
      "d": 1683.0340312499993,
      "v": 35
    },
    {
      "midi": 54,
      "hit": false,
      "t": 15428.556000000002,
      "d": 3285.711000000001,
      "v": 35
    },
    {
      "midi": 62,
      "hit": false,
      "t": 15428.556000000002,
      "d": 3361.6037812500017,
      "v": 35
    },
    {
      "midi": 59,
      "hit": false,
      "t": 15428.556000000002,
      "d": 3441.9608437500046,
      "v": 35
    },
    {
      "midi": 78,
      "hit": false,
      "t": 16022.305406250005,
      "d": 169.64268749999974,
      "v": 105
    },
    {
      "midi": 78,
      "hit": false,
      "t": 16258.912312500004,
      "d": 183.03553124999962,
      "v": 105
    },
    {
      "midi": 78,
      "hit": false,
      "t": 16504.447781250004,
      "d": 267.8568750000013,
      "v": 105
    },
    {
      "midi": 78,
      "hit": false,
      "t": 16906.233093750005,
      "d": 433.03528124999866,
      "v": 105
    },
    {
      "midi": 43,
      "hit": false,
      "t": 17080.340062500003,
      "d": 1705.3554375000022,
      "v": 35
    },
    {
      "midi": 31,
      "hit": false,
      "t": 17142.84,
      "d": 1749.9982500000006,
      "v": 70
    },
    {
      "midi": 79,
      "hit": false,
      "t": 17357.125500000002,
      "d": 272.32115625000006,
      "v": 105
    },
    {
      "midi": 79,
      "hit": false,
      "t": 17781.232218750003,
      "d": 424.10671875000116,
      "v": 105
    },
    {
      "midi": 81,
      "hit": false,
      "t": 18218.731781250004,
      "d": 249.99974999999904,
      "v": 105
    },
    {
      "midi": 81,
      "hit": false,
      "t": 18647.302781250004,
      "d": 553.5708750000013,
      "v": 105
    },
    {
      "midi": 45,
      "hit": false,
      "t": 18790.159781250004,
      "d": 1745.5339687500054,
      "v": 35
    },
    {
      "midi": 61,
      "hit": false,
      "t": 18790.159781250004,
      "d": 3495.532218750006,
      "v": 35
    },
    {
      "midi": 64,
      "hit": false,
      "t": 18799.088343750005,
      "d": 3486.603656250005,
      "v": 35
    },
    {
      "midi": 57,
      "hit": false,
      "t": 18808.016906250006,
      "d": 1575.891281250002,
      "v": 35
    },
    {
      "midi": 33,
      "hit": false,
      "t": 18857.124,
      "d": 1683.0340312500011,
      "v": 70
    },
    {
      "midi": 81,
      "hit": false,
      "t": 19499.980500000005,
      "d": 116.0713125000002,
      "v": 105
    },
    {
      "midi": 81,
      "hit": false,
      "t": 19700.873156250007,
      "d": 174.1069687499985,
      "v": 105
    },
    {
      "midi": 81,
      "hit": false,
      "t": 19946.408625000007,
      "d": 424.10671875000116,
      "v": 105
    },
    {
      "midi": 86,
      "hit": false,
      "t": 20388.372468750007,
      "d": 406.2495937499989,
      "v": 105
    },
    {
      "midi": 54,
      "hit": false,
      "t": 20491.050937500007,
      "d": 1758.9268125000017,
      "v": 35
    },
    {
      "midi": 58,
      "hit": false,
      "t": 20491.050937500007,
      "d": 1794.6410625000026,
      "v": 35
    },
    {
      "midi": 42,
      "hit": false,
      "t": 20499.97950000001,
      "d": 1785.7125000000015,
      "v": 35
    },
    {
      "midi": 30,
      "hit": false,
      "t": 20571.408,
      "d": 1754.4625312499993,
      "v": 70
    },
    {
      "midi": 85,
      "hit": false,
      "t": 20790.157781250007,
      "d": 223.21406249999927,
      "v": 105
    },
    {
      "midi": 83,
      "hit": false,
      "t": 21017.836125000005,
      "d": 156.24984374999985,
      "v": 105
    },
    {
      "midi": 85,
      "hit": false,
      "t": 21209.800218750006,
      "d": 441.9638437499998,
      "v": 105
    },
    {
      "midi": 86,
      "hit": false,
      "t": 21647.299781250007,
      "d": 214.28549999999814,
      "v": 105
    },
    {
      "midi": 85,
      "hit": false,
      "t": 21839.263875000004,
      "d": 223.21406249999927,
      "v": 105
    },
    {
      "midi": 83,
      "hit": false,
      "t": 22071.406500000005,
      "d": 191.96409375000076,
      "v": 105
    },
    {
      "midi": 35,
      "hit": false,
      "t": 22285.692,
      "d": 1674.10546875,
      "v": 70
    },
    {
      "midi": 78,
      "hit": false,
      "t": 22285.692000000006,
      "d": 406.2495937499989,
      "v": 105
    },
    {
      "midi": 47,
      "hit": false,
      "t": 22285.69200000001,
      "d": 1683.0340312499975,
      "v": 35
    },
    {
      "midi": 54,
      "hit": false,
      "t": 22285.69200000001,
      "d": 3285.7109999999993,
      "v": 35
    },
    {
      "midi": 62,
      "hit": false,
      "t": 22285.69200000001,
      "d": 3361.60378125,
      "v": 35
    },
    {
      "midi": 59,
      "hit": false,
      "t": 22285.69200000001,
      "d": 3441.960843750003,
      "v": 35
    },
    {
      "midi": 74,
      "hit": false,
      "t": 22901.762812500005,
      "d": 200.89265624999825,
      "v": 105
    },
    {
      "midi": 74,
      "hit": false,
      "t": 23151.762562500004,
      "d": 165.178406250001,
      "v": 105
    },
    {
      "midi": 74,
      "hit": false,
      "t": 23366.048062500005,
      "d": 294.6425625000011,
      "v": 105
    },
    {
      "midi": 74,
      "hit": false,
      "t": 23794.619062500005,
      "d": 424.10671875000116,
      "v": 105
    },
    {
      "midi": 43,
      "hit": false,
      "t": 23937.47606250001,
      "d": 1705.3554375000022,
      "v": 35
    },
    {
      "midi": 31,
      "hit": false,
      "t": 23999.976,
      "d": 1749.9982500000006,
      "v": 70
    },
    {
      "midi": 76,
      "hit": false,
      "t": 24232.118625000006,
      "d": 294.6425625000011,
      "v": 105
    },
    {
      "midi": 76,
      "hit": false,
      "t": 24656.225343750008,
      "d": 419.6424374999988,
      "v": 105
    },
    {
      "midi": 78,
      "hit": false,
      "t": 25075.867781250006,
      "d": 392.856749999999,
      "v": 105
    },
    {
      "midi": 76,
      "hit": false,
      "t": 25513.367343750004,
      "d": 1642.8555000000015,
      "v": 105
    },
    {
      "midi": 45,
      "hit": false,
      "t": 25647.29578125001,
      "d": 1745.5339687500054,
      "v": 35
    },
    {
      "midi": 61,
      "hit": false,
      "t": 25647.29578125001,
      "d": 3495.532218750006,
      "v": 35
    },
    {
      "midi": 64,
      "hit": false,
      "t": 25656.22434375001,
      "d": 3486.603656250005,
      "v": 35
    },
    {
      "midi": 57,
      "hit": false,
      "t": 25665.152906250012,
      "d": 1575.891281250002,
      "v": 35
    },
    {
      "midi": 33,
      "hit": false,
      "t": 25714.26,
      "d": 1683.0340312500011,
      "v": 70
    },
    {
      "midi": 54,
      "hit": false,
      "t": 27348.186937500013,
      "d": 1772.3196562500016,
      "v": 35
    },
    {
      "midi": 58,
      "hit": false,
      "t": 27348.186937500013,
      "d": 1794.6410625000026,
      "v": 35
    },
    {
      "midi": 42,
      "hit": false,
      "t": 27357.115500000014,
      "d": 1785.7125000000015,
      "v": 35
    },
    {
      "midi": 30,
      "hit": false,
      "t": 27428.543999999998,
      "d": 1754.4625312499993,
      "v": 70
    },
    {
      "midi": 78,
      "hit": false,
      "t": 28285.686000000005,
      "d": 223.21406249999927,
      "v": 105
    },
    {
      "midi": 76,
      "hit": false,
      "t": 28513.364343750003,
      "d": 267.8568750000013,
      "v": 105
    },
    {
      "midi": 78,
      "hit": false,
      "t": 28897.292531250005,
      "d": 718.7492812499986,
      "v": 105
    },
    {
      "midi": 35,
      "hit": false,
      "t": 29142.827999999998,
      "d": 857.1419999999998,
      "v": 70
    },
    {
      "midi": 66,
      "hit": false,
      "t": 29142.828000000005,
      "d": 223.21406249999927,
      "v": 70
    },
    {
      "midi": 74,
      "hit": false,
      "t": 29142.828000000005,
      "d": 254.4640312499978,
      "v": 70
    },
    {
      "midi": 71,
      "hit": false,
      "t": 29142.828000000005,
      "d": 258.92831249999654,
      "v": 70
    },
    {
      "midi": 59,
      "hit": false,
      "t": 29142.828000000016,
      "d": 834.8205937499952,
      "v": 50
    },
    {
      "midi": 47,
      "hit": false,
      "t": 29142.828000000016,
      "d": 866.0705624999937,
      "v": 50
    },
    {
      "midi": 62,
      "hit": false,
      "t": 29142.828000000016,
      "d": 879.4634062499936,
      "v": 50
    },
    {
      "midi": 54,
      "hit": false,
      "t": 29142.828000000016,
      "d": 1428.5699999999924,
      "v": 50
    },
    {
      "midi": 73,
      "hit": false,
      "t": 29571.399,
      "d": 245.5354687500003,
      "v": 70
    },
    {
      "midi": 66,
      "hit": false,
      "t": 29571.399,
      "d": 254.46403125000143,
      "v": 70
    },
    {
      "midi": 71,
      "hit": false,
      "t": 29571.399,
      "d": 272.32115625000006,
      "v": 70
    },
    {
      "midi": 61,
      "hit": false,
      "t": 29950.862906250015,
      "d": 656.2493437499943,
      "v": 50
    },
    {
      "midi": 57,
      "hit": false,
      "t": 29968.720031250014,
      "d": 616.0708124999946,
      "v": 50
    },
    {
      "midi": 42,
      "hit": false,
      "t": 29973.184312500012,
      "d": 633.9279374999969,
      "v": 50
    },
    {
      "midi": 30,
      "hit": false,
      "t": 29999.969999999998,
      "d": 812.4991875000014,
      "v": 70
    },
    {
      "midi": 66,
      "hit": false,
      "t": 29999.97,
      "d": 151.7855625000011,
      "v": 70
    },
    {
      "midi": 74,
      "hit": false,
      "t": 29999.97,
      "d": 174.10696875000212,
      "v": 70
    },
    {
      "midi": 71,
      "hit": false,
      "t": 29999.97,
      "d": 178.57125000000087,
      "v": 70
    },
    {
      "midi": 66,
      "hit": false,
      "t": 30214.255500000003,
      "d": 174.1069687499985,
      "v": 70
    },
    {
      "midi": 71,
      "hit": false,
      "t": 30214.255500000003,
      "d": 187.49981249999837,
      "v": 70
    },
    {
      "midi": 73,
      "hit": false,
      "t": 30214.255500000003,
      "d": 187.49981249999837,
      "v": 70
    },
    {
      "midi": 55,
      "hit": false,
      "t": 30549.07659375001,
      "d": 2022.319406249997,
      "v": 50
    },
    {
      "midi": 59,
      "hit": false,
      "t": 30549.07659375001,
      "d": 2879.461406250004,
      "v": 50
    },
    {
      "midi": 62,
      "hit": false,
      "t": 30553.54087500001,
      "d": 2874.9971250000053,
      "v": 50
    },
    {
      "midi": 43,
      "hit": false,
      "t": 30580.32656250001,
      "d": 1071.427499999998,
      "v": 50
    },
    {
      "midi": 67,
      "hit": false,
      "t": 30642.826500000003,
      "d": 214.28550000000178,
      "v": 70
    },
    {
      "midi": 71,
      "hit": false,
      "t": 30642.826500000003,
      "d": 223.2140625000029,
      "v": 70
    },
    {
      "midi": 74,
      "hit": false,
      "t": 30642.826500000003,
      "d": 241.07118750000154,
      "v": 70
    },
    {
      "midi": 31,
      "hit": false,
      "t": 30857.111999999997,
      "d": 879.4634062500008,
      "v": 70
    },
    {
      "midi": 73,
      "hit": false,
      "t": 31071.397500000003,
      "d": 232.1426250000004,
      "v": 70
    },
    {
      "midi": 67,
      "hit": false,
      "t": 31071.397500000003,
      "d": 236.60690624999916,
      "v": 70
    },
    {
      "midi": 71,
      "hit": false,
      "t": 31071.397500000003,
      "d": 241.0711874999979,
      "v": 70
    },
    {
      "midi": 79,
      "hit": false,
      "t": 31071.397500000006,
      "d": 156.24984374999985,
      "v": 105
    },
    {
      "midi": 79,
      "hit": false,
      "t": 31290.147281250007,
      "d": 124.99987500000134,
      "v": 105
    },
    {
      "midi": 79,
      "hit": false,
      "t": 31482.111375000008,
      "d": 196.4283749999995,
      "v": 105
    },
    {
      "midi": 67,
      "hit": false,
      "t": 31499.9685,
      "d": 241.07118750000154,
      "v": 70
    },
    {
      "midi": 71,
      "hit": false,
      "t": 31499.9685,
      "d": 258.9283125000002,
      "v": 70
    },
    {
      "midi": 74,
      "hit": false,
      "t": 31499.9685,
      "d": 263.3925937499989,
      "v": 70
    },
    {
      "midi": 45,
      "hit": false,
      "t": 31633.89693750001,
      "d": 937.4990624999991,
      "v": 50
    },
    {
      "midi": 78,
      "hit": false,
      "t": 31709.789718750006,
      "d": 419.6424375000024,
      "v": 105
    },
    {
      "midi": 33,
      "hit": false,
      "t": 31714.253999999997,
      "d": 888.3919687499983,
      "v": 70
    },
    {
      "midi": 67,
      "hit": false,
      "t": 31928.5395,
      "d": 272.32115625000006,
      "v": 70
    },
    {
      "midi": 71,
      "hit": false,
      "t": 31928.5395,
      "d": 290.1782812499987,
      "v": 70
    },
    {
      "midi": 76,
      "hit": false,
      "t": 31928.5395,
      "d": 294.64256249999744,
      "v": 70
    },
    {
      "midi": 76,
      "hit": false,
      "t": 32120.503593750007,
      "d": 147.32128125000236,
      "v": 105
    },
    {
      "midi": 76,
      "hit": false,
      "t": 32352.64621875001,
      "d": 464.28525000000445,
      "v": 105
    },
    {
      "midi": 67,
      "hit": false,
      "t": 32357.110499999995,
      "d": 205.35693750000064,
      "v": 70
    },
    {
      "midi": 73,
      "hit": false,
      "t": 32357.110499999995,
      "d": 205.35693750000064,
      "v": 70
    },
    {
      "midi": 71,
      "hit": false,
      "t": 32357.110499999995,
      "d": 214.28550000000178,
      "v": 70
    },
    {
      "midi": 35,
      "hit": false,
      "t": 32571.395999999997,
      "d": 897.3205312499958,
      "v": 70
    },
    {
      "midi": 66,
      "hit": false,
      "t": 32571.395999999997,
      "d": 178.57125000000087,
      "v": 70
    },
    {
      "midi": 74,
      "hit": false,
      "t": 32571.395999999997,
      "d": 223.21406249999927,
      "v": 70
    },
    {
      "midi": 71,
      "hit": false,
      "t": 32571.395999999997,
      "d": 227.67834375000166,
      "v": 70
    },
    {
      "midi": 47,
      "hit": false,
      "t": 32571.396000000008,
      "d": 866.0705625000046,
      "v": 50
    },
    {
      "midi": 54,
      "hit": false,
      "t": 32571.396000000008,
      "d": 1428.570000000007,
      "v": 50
    },
    {
      "midi": 74,
      "hit": false,
      "t": 32812.46718750001,
      "d": 450.89240625000093,
      "v": 105
    },
    {
      "midi": 66,
      "hit": false,
      "t": 32999.967,
      "d": 191.96409375000076,
      "v": 70
    },
    {
      "midi": 73,
      "hit": false,
      "t": 32999.967,
      "d": 191.96409375000076,
      "v": 70
    },
    {
      "midi": 71,
      "hit": false,
      "t": 32999.967,
      "d": 214.28549999999814,
      "v": 70
    },
    {
      "midi": 61,
      "hit": false,
      "t": 33379.43090625001,
      "d": 656.2493437500016,
      "v": 50
    },
    {
      "midi": 57,
      "hit": false,
      "t": 33397.28803125001,
      "d": 616.0708125000019,
      "v": 50
    },
    {
      "midi": 42,
      "hit": false,
      "t": 33401.752312500015,
      "d": 633.9279374999969,
      "v": 50
    },
    {
      "midi": 30,
      "hit": false,
      "t": 33428.53799999999,
      "d": 830.3563125000001,
      "v": 70
    },
    {
      "midi": 66,
      "hit": false,
      "t": 33428.53799999999,
      "d": 142.8570000000036,
      "v": 70
    },
    {
      "midi": 74,
      "hit": false,
      "t": 33428.53799999999,
      "d": 160.71412500000588,
      "v": 70
    },
    {
      "midi": 71,
      "hit": false,
      "t": 33428.53799999999,
      "d": 174.10696875000576,
      "v": 70
    },
    {
      "midi": 66,
      "hit": false,
      "t": 33642.8235,
      "d": 160.7141249999986,
      "v": 70
    },
    {
      "midi": 73,
      "hit": false,
      "t": 33642.8235,
      "d": 178.57125000000087,
      "v": 70
    },
    {
      "midi": 71,
      "hit": false,
      "t": 33642.8235,
      "d": 187.49981249999837,
      "v": 70
    },
    {
      "midi": 55,
      "hit": false,
      "t": 33977.64459375001,
      "d": 2022.3194062500042,
      "v": 50
    },
    {
      "midi": 59,
      "hit": false,
      "t": 33977.64459375001,
      "d": 2879.4614062500114,
      "v": 50
    },
    {
      "midi": 62,
      "hit": false,
      "t": 33982.10887500001,
      "d": 2874.997125000009,
      "v": 50
    },
    {
      "midi": 43,
      "hit": false,
      "t": 34008.89456250001,
      "d": 1071.4275000000052,
      "v": 50
    },
    {
      "midi": 71,
      "hit": false,
      "t": 34071.394499999995,
      "d": 174.1069687499985,
      "v": 70
    },
    {
      "midi": 67,
      "hit": false,
      "t": 34071.394499999995,
      "d": 183.03553124999598,
      "v": 70
    },
    {
      "midi": 74,
      "hit": false,
      "t": 34071.394499999995,
      "d": 187.49981249999837,
      "v": 70
    },
    {
      "midi": 31,
      "hit": false,
      "t": 34285.67999999999,
      "d": 866.0705624999973,
      "v": 70
    },
    {
      "midi": 79,
      "hit": false,
      "t": 34495.50121875001,
      "d": 156.2498437500035,
      "v": 105
    },
    {
      "midi": 67,
      "hit": false,
      "t": 34499.96549999999,
      "d": 120.53559374999895,
      "v": 70
    },
    {
      "midi": 71,
      "hit": false,
      "t": 34499.96549999999,
      "d": 133.92843749999884,
      "v": 70
    },
    {
      "midi": 74,
      "hit": false,
      "t": 34499.96549999999,
      "d": 133.92843749999884,
      "v": 70
    },
    {
      "midi": 67,
      "hit": false,
      "t": 34714.25099999999,
      "d": 196.42837500000314,
      "v": 70
    },
    {
      "midi": 71,
      "hit": false,
      "t": 34714.25099999999,
      "d": 196.42837500000314,
      "v": 70
    },
    {
      "midi": 73,
      "hit": false,
      "t": 34714.25099999999,
      "d": 196.42837500000314,
      "v": 70
    },
    {
      "midi": 79,
      "hit": false,
      "t": 34714.25100000001,
      "d": 124.99987500000134,
      "v": 105
    },
    {
      "midi": 79,
      "hit": false,
      "t": 34915.14365625001,
      "d": 196.42837500000314,
      "v": 105
    },
    {
      "midi": 45,
      "hit": false,
      "t": 35062.464937500015,
      "d": 937.4990624999991,
      "v": 50
    },
    {
      "midi": 33,
      "hit": false,
      "t": 35142.82199999999,
      "d": 870.5348437499997,
      "v": 70
    },
    {
      "midi": 67,
      "hit": false,
      "t": 35142.82199999999,
      "d": 214.28549999999814,
      "v": 70
    },
    {
      "midi": 71,
      "hit": false,
      "t": 35142.82199999999,
      "d": 218.74978125000052,
      "v": 70
    },
    {
      "midi": 74,
      "hit": false,
      "t": 35142.82199999999,
      "d": 227.67834374999802,
      "v": 70
    },
    {
      "midi": 78,
      "hit": false,
      "t": 35151.75056250001,
      "d": 401.7853124999965,
      "v": 105
    },
    {
      "midi": 76,
      "hit": false,
      "t": 35562.464437500006,
      "d": 133.92843749999884,
      "v": 105
    },
    {
      "midi": 67,
      "hit": false,
      "t": 35571.39299999999,
      "d": 223.2140625000029,
      "v": 70
    },
    {
      "midi": 71,
      "hit": false,
      "t": 35571.39299999999,
      "d": 232.1426250000004,
      "v": 70
    },
    {
      "midi": 76,
      "hit": false,
      "t": 35571.39299999999,
      "d": 245.5354687500003,
      "v": 70
    },
    {
      "midi": 76,
      "hit": false,
      "t": 35781.21421875001,
      "d": 455.3566875000033,
      "v": 105
    },
    {
      "midi": 35,
      "hit": false,
      "t": 35999.96399999999,
      "d": 857.1419999999998,
      "v": 70
    },
    {
      "midi": 66,
      "hit": false,
      "t": 35999.96399999999,
      "d": 223.2140625000029,
      "v": 70
    },
    {
      "midi": 74,
      "hit": false,
      "t": 35999.96399999999,
      "d": 254.46403125000506,
      "v": 70
    },
    {
      "midi": 71,
      "hit": false,
      "t": 35999.96399999999,
      "d": 258.92831250000745,
      "v": 70
    },
    {
      "midi": 47,
      "hit": false,
      "t": 35999.964000000014,
      "d": 866.0705625000046,
      "v": 50
    },
    {
      "midi": 54,
      "hit": false,
      "t": 35999.964000000014,
      "d": 1428.570000000007,
      "v": 50
    },
    {
      "midi": 74,
      "hit": false,
      "t": 36232.10662500001,
      "d": 656.2493437500016,
      "v": 105
    },
    {
      "midi": 73,
      "hit": false,
      "t": 36428.535,
      "d": 245.5354687500003,
      "v": 70
    },
    {
      "midi": 66,
      "hit": false,
      "t": 36428.535,
      "d": 254.4640312499978,
      "v": 70
    },
    {
      "midi": 71,
      "hit": false,
      "t": 36428.535,
      "d": 272.32115625000006,
      "v": 70
    },
    {
      "midi": 61,
      "hit": false,
      "t": 36807.99890625002,
      "d": 656.2493437500016,
      "v": 50
    },
    {
      "midi": 57,
      "hit": false,
      "t": 36825.85603125002,
      "d": 616.0708125000019,
      "v": 50
    },
    {
      "midi": 42,
      "hit": false,
      "t": 36830.32031250002,
      "d": 633.9279374999969,
      "v": 50
    },
    {
      "midi": 30,
      "hit": false,
      "t": 36857.10599999999,
      "d": 812.4991874999978,
      "v": 70
    },
    {
      "midi": 66,
      "hit": false,
      "t": 36857.10600000001,
      "d": 151.7855625000011,
      "v": 70
    },
    {
      "midi": 74,
      "hit": false,
      "t": 36857.10600000001,
      "d": 174.1069687499985,
      "v": 70
    },
    {
      "midi": 71,
      "hit": false,
      "t": 36857.10600000001,
      "d": 178.57125000000087,
      "v": 70
    },
    {
      "midi": 66,
      "hit": false,
      "t": 37071.391500000005,
      "d": 174.1069687499985,
      "v": 70
    },
    {
      "midi": 71,
      "hit": false,
      "t": 37071.391500000005,
      "d": 187.49981249999837,
      "v": 70
    },
    {
      "midi": 73,
      "hit": false,
      "t": 37071.391500000005,
      "d": 187.49981249999837,
      "v": 70
    },
    {
      "midi": 55,
      "hit": false,
      "t": 37406.21259375002,
      "d": 2022.3194062500042,
      "v": 50
    },
    {
      "midi": 59,
      "hit": false,
      "t": 37406.21259375002,
      "d": 2879.4614062500114,
      "v": 50
    },
    {
      "midi": 62,
      "hit": false,
      "t": 37410.67687500002,
      "d": 2874.997125000009,
      "v": 50
    },
    {
      "midi": 43,
      "hit": false,
      "t": 37437.46256250002,
      "d": 1071.4275000000052,
      "v": 50
    },
    {
      "midi": 67,
      "hit": false,
      "t": 37499.9625,
      "d": 214.28549999999814,
      "v": 70
    },
    {
      "midi": 71,
      "hit": false,
      "t": 37499.9625,
      "d": 223.21406249999563,
      "v": 70
    },
    {
      "midi": 74,
      "hit": false,
      "t": 37499.9625,
      "d": 241.0711874999979,
      "v": 70
    },
    {
      "midi": 31,
      "hit": false,
      "t": 37714.24799999999,
      "d": 879.4634062499972,
      "v": 70
    },
    {
      "midi": 79,
      "hit": false,
      "t": 37919.60493750001,
      "d": 165.178406250001,
      "v": 105
    },
    {
      "midi": 73,
      "hit": false,
      "t": 37928.5335,
      "d": 232.1426250000004,
      "v": 70
    },
    {
      "midi": 67,
      "hit": false,
      "t": 37928.5335,
      "d": 236.6069062500028,
      "v": 70
    },
    {
      "midi": 71,
      "hit": false,
      "t": 37928.5335,
      "d": 241.07118750000518,
      "v": 70
    },
    {
      "midi": 79,
      "hit": false,
      "t": 38147.283281250006,
      "d": 138.39271875000122,
      "v": 105
    },
    {
      "midi": 79,
      "hit": false,
      "t": 38352.640218750006,
      "d": 209.82121875000303,
      "v": 105
    },
    {
      "midi": 67,
      "hit": false,
      "t": 38357.1045,
      "d": 241.0711874999979,
      "v": 70
    },
    {
      "midi": 71,
      "hit": false,
      "t": 38357.1045,
      "d": 258.9283125000002,
      "v": 70
    },
    {
      "midi": 74,
      "hit": false,
      "t": 38357.1045,
      "d": 263.39259375000256,
      "v": 70
    },
    {
      "midi": 45,
      "hit": false,
      "t": 38491.03293750002,
      "d": 937.4990624999991,
      "v": 50
    },
    {
      "midi": 33,
      "hit": false,
      "t": 38571.38999999999,
      "d": 888.391968750002,
      "v": 70
    },
    {
      "midi": 78,
      "hit": false,
      "t": 38589.24712500001,
      "d": 397.3210312500014,
      "v": 105
    },
    {
      "midi": 67,
      "hit": false,
      "t": 38785.675500000005,
      "d": 272.32115625000006,
      "v": 70
    },
    {
      "midi": 71,
      "hit": false,
      "t": 38785.675500000005,
      "d": 290.1782812500023,
      "v": 70
    },
    {
      "midi": 76,
      "hit": false,
      "t": 38785.675500000005,
      "d": 294.6425625000047,
      "v": 70
    },
    {
      "midi": 76,
      "hit": false,
      "t": 38995.49671875001,
      "d": 129.46415624999645,
      "v": 105
    },
    {
      "midi": 76,
      "hit": false,
      "t": 39214.2465,
      "d": 464.2852500000008,
      "v": 105
    },
    {
      "midi": 67,
      "hit": false,
      "t": 39214.24650000001,
      "d": 205.35693750000064,
      "v": 70
    },
    {
      "midi": 73,
      "hit": false,
      "t": 39214.24650000001,
      "d": 205.35693750000064,
      "v": 70
    },
    {
      "midi": 71,
      "hit": false,
      "t": 39214.24650000001,
      "d": 214.28549999999814,
      "v": 70
    },
    {
      "midi": 35,
      "hit": false,
      "t": 39428.53199999999,
      "d": 897.3205312499995,
      "v": 70
    },
    {
      "midi": 66,
      "hit": false,
      "t": 39428.53200000001,
      "d": 178.57125000000087,
      "v": 70
    },
    {
      "midi": 74,
      "hit": false,
      "t": 39428.53200000001,
      "d": 223.2140625000029,
      "v": 70
    },
    {
      "midi": 71,
      "hit": false,
      "t": 39428.53200000001,
      "d": 227.6783437500053,
      "v": 70
    },
    {
      "midi": 47,
      "hit": false,
      "t": 39428.53200000002,
      "d": 866.0705625000046,
      "v": 50
    },
    {
      "midi": 54,
      "hit": false,
      "t": 39428.53200000002,
      "d": 1428.570000000007,
      "v": 50
    },
    {
      "midi": 74,
      "hit": false,
      "t": 39682.996031250004,
      "d": 607.1422499999971,
      "v": 105
    },
    {
      "midi": 66,
      "hit": false,
      "t": 39857.10300000001,
      "d": 191.96409375000076,
      "v": 70
    },
    {
      "midi": 73,
      "hit": false,
      "t": 39857.10300000001,
      "d": 191.96409375000076,
      "v": 70
    },
    {
      "midi": 71,
      "hit": false,
      "t": 39857.10300000001,
      "d": 214.28549999999814,
      "v": 70
    },
    {
      "midi": 61,
      "hit": false,
      "t": 40236.566906250024,
      "d": 656.2493437500016,
      "v": 50
    },
    {
      "midi": 57,
      "hit": false,
      "t": 40254.424031250026,
      "d": 616.0708125000019,
      "v": 50
    },
    {
      "midi": 42,
      "hit": false,
      "t": 40258.88831250003,
      "d": 633.9279374999969,
      "v": 50
    },
    {
      "midi": 30,
      "hit": false,
      "t": 40285.67399999999,
      "d": 830.3563125000001,
      "v": 70
    },
    {
      "midi": 66,
      "hit": false,
      "t": 40285.674000000006,
      "d": 142.8570000000036,
      "v": 70
    },
    {
      "midi": 74,
      "hit": false,
      "t": 40285.674000000006,
      "d": 160.71412500000588,
      "v": 70
    },
    {
      "midi": 71,
      "hit": false,
      "t": 40285.674000000006,
      "d": 174.10696875000576,
      "v": 70
    },
    {
      "midi": 66,
      "hit": false,
      "t": 40499.95950000001,
      "d": 160.7141249999986,
      "v": 70
    },
    {
      "midi": 73,
      "hit": false,
      "t": 40499.95950000001,
      "d": 178.57125000000087,
      "v": 70
    },
    {
      "midi": 71,
      "hit": false,
      "t": 40499.95950000001,
      "d": 187.49981249999837,
      "v": 70
    },
    {
      "midi": 59,
      "hit": false,
      "t": 40834.78059375002,
      "d": 1964.2837500000096,
      "v": 50
    },
    {
      "midi": 55,
      "hit": false,
      "t": 40834.78059375002,
      "d": 2022.3194062500042,
      "v": 50
    },
    {
      "midi": 62,
      "hit": false,
      "t": 40839.244875000026,
      "d": 1982.1408750000046,
      "v": 50
    },
    {
      "midi": 43,
      "hit": false,
      "t": 40866.030562500026,
      "d": 1071.4275000000052,
      "v": 50
    },
    {
      "midi": 71,
      "hit": false,
      "t": 40928.53050000001,
      "d": 174.1069687499985,
      "v": 70
    },
    {
      "midi": 67,
      "hit": false,
      "t": 40928.53050000001,
      "d": 183.03553124999598,
      "v": 70
    },
    {
      "midi": 74,
      "hit": false,
      "t": 40928.53050000001,
      "d": 187.49981249999837,
      "v": 70
    },
    {
      "midi": 31,
      "hit": false,
      "t": 41142.81599999999,
      "d": 866.0705624999973,
      "v": 70
    },
    {
      "midi": 79,
      "hit": false,
      "t": 41343.708656250004,
      "d": 133.92843749999884,
      "v": 105
    },
    {
      "midi": 67,
      "hit": false,
      "t": 41357.101500000004,
      "d": 120.53559374999895,
      "v": 70
    },
    {
      "midi": 71,
      "hit": false,
      "t": 41357.101500000004,
      "d": 133.92843749999884,
      "v": 70
    },
    {
      "midi": 74,
      "hit": false,
      "t": 41357.101500000004,
      "d": 133.92843749999884,
      "v": 70
    },
    {
      "midi": 79,
      "hit": false,
      "t": 41557.99415625,
      "d": 133.92843749999884,
      "v": 105
    },
    {
      "midi": 67,
      "hit": false,
      "t": 41571.387,
      "d": 196.42837500000314,
      "v": 70
    },
    {
      "midi": 71,
      "hit": false,
      "t": 41571.387,
      "d": 196.42837500000314,
      "v": 70
    },
    {
      "midi": 73,
      "hit": false,
      "t": 41571.387,
      "d": 196.42837500000314,
      "v": 70
    },
    {
      "midi": 79,
      "hit": false,
      "t": 41758.8868125,
      "d": 187.49981249999837,
      "v": 105
    },
    {
      "midi": 45,
      "hit": false,
      "t": 41919.60093750003,
      "d": 937.4990624999991,
      "v": 50
    },
    {
      "midi": 33,
      "hit": false,
      "t": 41999.95799999999,
      "d": 870.5348437499997,
      "v": 70
    },
    {
      "midi": 78,
      "hit": false,
      "t": 41999.958,
      "d": 406.2495937499989,
      "v": 105
    },
    {
      "midi": 67,
      "hit": false,
      "t": 41999.958000000006,
      "d": 214.28549999999814,
      "v": 70
    },
    {
      "midi": 71,
      "hit": false,
      "t": 41999.958000000006,
      "d": 218.74978125000052,
      "v": 70
    },
    {
      "midi": 74,
      "hit": false,
      "t": 41999.958000000006,
      "d": 227.67834374999802,
      "v": 70
    },
    {
      "midi": 76,
      "hit": false,
      "t": 42410.671875,
      "d": 120.53559374999895,
      "v": 105
    },
    {
      "midi": 67,
      "hit": false,
      "t": 42428.529,
      "d": 223.2140625000029,
      "v": 70
    },
    {
      "midi": 71,
      "hit": false,
      "t": 42428.529,
      "d": 232.1426250000004,
      "v": 70
    },
    {
      "midi": 76,
      "hit": false,
      "t": 42428.529,
      "d": 245.5354687500003,
      "v": 70
    },
    {
      "midi": 76,
      "hit": false,
      "t": 42647.278781249996,
      "d": 455.3566875000033,
      "v": 105
    },
    {
      "midi": 35,
      "hit": false,
      "t": 42857.09999999999,
      "d": 857.1419999999998,
      "v": 70
    },
    {
      "midi": 66,
      "hit": false,
      "t": 42857.100000000006,
      "d": 223.2140625000029,
      "v": 70
    },
    {
      "midi": 74,
      "hit": false,
      "t": 42857.100000000006,
      "d": 254.46403125000506,
      "v": 70
    },
    {
      "midi": 71,
      "hit": false,
      "t": 42857.100000000006,
      "d": 258.92831250000745,
      "v": 70
    },
    {
      "midi": 23,
      "hit": false,
      "t": 42857.100000000006,
      "d": 214.28549999999814,
      "v": 127
    },
    {
      "midi": 59,
      "hit": false,
      "t": 42857.100000000006,
      "d": 901.7848124999946,
      "v": 65
    },
    {
      "midi": 59,
      "hit": false,
      "t": 42857.10000000003,
      "d": 834.8205937500097,
      "v": 50
    },
    {
      "midi": 47,
      "hit": false,
      "t": 42857.10000000003,
      "d": 866.0705625000119,
      "v": 50
    },
    {
      "midi": 62,
      "hit": false,
      "t": 42857.10000000003,
      "d": 879.4634062500118,
      "v": 50
    },
    {
      "midi": 54,
      "hit": false,
      "t": 42857.10000000003,
      "d": 1428.5700000000143,
      "v": 50
    },
    {
      "midi": 35,
      "hit": false,
      "t": 43071.385500000004,
      "d": 80.3570624999993,
      "v": 110
    },
    {
      "midi": 74,
      "hit": false,
      "t": 43107.09975,
      "d": 562.4994375000024,
      "v": 105
    },
    {
      "midi": 35,
      "hit": false,
      "t": 43178.52825,
      "d": 80.3570624999993,
      "v": 110
    },
    {
      "midi": 23,
      "hit": false,
      "t": 43285.671,
      "d": 214.28549999999814,
      "v": 127
    },
    {
      "midi": 73,
      "hit": false,
      "t": 43285.67100000002,
      "d": 245.5354687500003,
      "v": 70
    },
    {
      "midi": 66,
      "hit": false,
      "t": 43285.67100000002,
      "d": 254.4640312499978,
      "v": 70
    },
    {
      "midi": 71,
      "hit": false,
      "t": 43285.67100000002,
      "d": 272.32115625000006,
      "v": 70
    },
    {
      "midi": 35,
      "hit": false,
      "t": 43499.9565,
      "d": 80.3570624999993,
      "v": 110
    },
    {
      "midi": 35,
      "hit": false,
      "t": 43607.09925,
      "d": 84.82134375000169,
      "v": 110
    },
    {
      "midi": 61,
      "hit": false,
      "t": 43665.13490625003,
      "d": 656.2493437500088,
      "v": 50
    },
    {
      "midi": 57,
      "hit": false,
      "t": 43682.99203125003,
      "d": 616.0708125000092,
      "v": 50
    },
    {
      "midi": 42,
      "hit": false,
      "t": 43687.456312500035,
      "d": 633.9279375000042,
      "v": 50
    },
    {
      "midi": 57,
      "hit": false,
      "t": 43709.77771875,
      "d": 879.4634062499972,
      "v": 65
    },
    {
      "midi": 30,
      "hit": false,
      "t": 43714.24199999999,
      "d": 812.4991874999978,
      "v": 70
    },
    {
      "midi": 30,
      "hit": false,
      "t": 43714.242,
      "d": 214.28549999999814,
      "v": 127
    },
    {
      "midi": 66,
      "hit": false,
      "t": 43714.24200000002,
      "d": 151.7855625000011,
      "v": 70
    },
    {
      "midi": 74,
      "hit": false,
      "t": 43714.24200000002,
      "d": 174.1069687499985,
      "v": 70
    },
    {
      "midi": 71,
      "hit": false,
      "t": 43714.24200000002,
      "d": 178.57125000000087,
      "v": 70
    },
    {
      "midi": 42,
      "hit": false,
      "t": 43928.5275,
      "d": 66.96421874999942,
      "v": 110
    },
    {
      "midi": 66,
      "hit": false,
      "t": 43928.52750000002,
      "d": 174.1069687499985,
      "v": 70
    },
    {
      "midi": 71,
      "hit": false,
      "t": 43928.52750000002,
      "d": 187.49981249999837,
      "v": 70
    },
    {
      "midi": 73,
      "hit": false,
      "t": 43928.52750000002,
      "d": 187.49981249999837,
      "v": 70
    },
    {
      "midi": 42,
      "hit": false,
      "t": 44035.670249999996,
      "d": 93.74990624999919,
      "v": 110
    },
    {
      "midi": 30,
      "hit": false,
      "t": 44142.812999999995,
      "d": 214.28549999999814,
      "v": 127
    },
    {
      "midi": 55,
      "hit": false,
      "t": 44263.34859375004,
      "d": 2022.3194062500042,
      "v": 50
    },
    {
      "midi": 59,
      "hit": false,
      "t": 44263.34859375004,
      "d": 2879.4614062500114,
      "v": 50
    },
    {
      "midi": 62,
      "hit": false,
      "t": 44267.81287500004,
      "d": 2874.997125000009,
      "v": 50
    },
    {
      "midi": 43,
      "hit": false,
      "t": 44294.59856250004,
      "d": 1071.4275000000052,
      "v": 50
    },
    {
      "midi": 42,
      "hit": false,
      "t": 44357.09849999999,
      "d": 66.96421874999942,
      "v": 110
    },
    {
      "midi": 67,
      "hit": false,
      "t": 44357.098500000015,
      "d": 214.28549999999814,
      "v": 70
    },
    {
      "midi": 71,
      "hit": false,
      "t": 44357.098500000015,
      "d": 223.21406249999563,
      "v": 70
    },
    {
      "midi": 74,
      "hit": false,
      "t": 44357.098500000015,
      "d": 241.0711874999979,
      "v": 70
    },
    {
      "midi": 42,
      "hit": false,
      "t": 44464.24124999999,
      "d": 75.89278124999691,
      "v": 110
    },
    {
      "midi": 55,
      "hit": false,
      "t": 44535.66975,
      "d": 901.7848125000019,
      "v": 65
    },
    {
      "midi": 31,
      "hit": false,
      "t": 44571.38399999999,
      "d": 879.4634062499972,
      "v": 70
    },
    {
      "midi": 31,
      "hit": false,
      "t": 44571.38399999999,
      "d": 214.28549999999814,
      "v": 127
    },
    {
      "midi": 43,
      "hit": false,
      "t": 44785.66949999999,
      "d": 80.3570624999993,
      "v": 110
    },
    {
      "midi": 73,
      "hit": false,
      "t": 44785.66950000001,
      "d": 232.1426250000004,
      "v": 70
    },
    {
      "midi": 67,
      "hit": false,
      "t": 44785.66950000001,
      "d": 236.6069062500028,
      "v": 70
    },
    {
      "midi": 71,
      "hit": false,
      "t": 44785.66950000001,
      "d": 241.07118750000518,
      "v": 70
    },
    {
      "midi": 43,
      "hit": false,
      "t": 44892.81224999999,
      "d": 80.3570624999993,
      "v": 110
    },
    {
      "midi": 31,
      "hit": false,
      "t": 44999.95499999999,
      "d": 214.28549999999814,
      "v": 127
    },
    {
      "midi": 43,
      "hit": false,
      "t": 45214.240499999985,
      "d": 80.3570624999993,
      "v": 110
    },
    {
      "midi": 67,
      "hit": false,
      "t": 45214.240500000014,
      "d": 241.0711874999979,
      "v": 70
    },
    {
      "midi": 71,
      "hit": false,
      "t": 45214.240500000014,
      "d": 258.9283125000002,
      "v": 70
    },
    {
      "midi": 74,
      "hit": false,
      "t": 45214.240500000014,
      "d": 263.39259375000256,
      "v": 70
    },
    {
      "midi": 43,
      "hit": false,
      "t": 45321.383249999984,
      "d": 84.82134375000169,
      "v": 110
    },
    {
      "midi": 45,
      "hit": false,
      "t": 45348.16893750004,
      "d": 937.4990624999991,
      "v": 50
    },
    {
      "midi": 57,
      "hit": false,
      "t": 45406.20459375,
      "d": 861.6062812500022,
      "v": 65
    },
    {
      "midi": 33,
      "hit": false,
      "t": 45428.52599999998,
      "d": 214.28549999999814,
      "v": 127
    },
    {
      "midi": 33,
      "hit": false,
      "t": 45428.52599999999,
      "d": 888.391968750002,
      "v": 70
    },
    {
      "midi": 45,
      "hit": false,
      "t": 45642.81149999998,
      "d": 66.96421874999942,
      "v": 110
    },
    {
      "midi": 67,
      "hit": false,
      "t": 45642.81150000002,
      "d": 272.32115625000006,
      "v": 70
    },
    {
      "midi": 71,
      "hit": false,
      "t": 45642.81150000002,
      "d": 290.1782812500023,
      "v": 70
    },
    {
      "midi": 76,
      "hit": false,
      "t": 45642.81150000002,
      "d": 294.6425625000047,
      "v": 70
    },
    {
      "midi": 45,
      "hit": false,
      "t": 45749.95424999998,
      "d": 93.74990624999919,
      "v": 110
    },
    {
      "midi": 33,
      "hit": false,
      "t": 45857.09699999998,
      "d": 214.28549999999814,
      "v": 127
    },
    {
      "midi": 45,
      "hit": false,
      "t": 46071.38249999998,
      "d": 66.96421874999942,
      "v": 110
    },
    {
      "midi": 67,
      "hit": false,
      "t": 46071.38250000002,
      "d": 205.35693750000064,
      "v": 70
    },
    {
      "midi": 73,
      "hit": false,
      "t": 46071.38250000002,
      "d": 205.35693750000064,
      "v": 70
    },
    {
      "midi": 71,
      "hit": false,
      "t": 46071.38250000002,
      "d": 214.28549999999814,
      "v": 70
    },
    {
      "midi": 45,
      "hit": false,
      "t": 46178.52524999998,
      "d": 75.89278124999691,
      "v": 110
    },
    {
      "midi": 59,
      "hit": false,
      "t": 46241.0251875,
      "d": 901.7848124999946,
      "v": 65
    },
    {
      "midi": 23,
      "hit": false,
      "t": 46285.667999999976,
      "d": 214.28549999999814,
      "v": 127
    },
    {
      "midi": 35,
      "hit": false,
      "t": 46285.66799999999,
      "d": 897.3205312499995,
      "v": 70
    },
    {
      "midi": 66,
      "hit": false,
      "t": 46285.66800000002,
      "d": 178.57125000000087,
      "v": 70
    },
    {
      "midi": 74,
      "hit": false,
      "t": 46285.66800000002,
      "d": 223.2140625000029,
      "v": 70
    },
    {
      "midi": 71,
      "hit": false,
      "t": 46285.66800000002,
      "d": 227.6783437500053,
      "v": 70
    },
    {
      "midi": 47,
      "hit": false,
      "t": 46285.66800000004,
      "d": 866.0705625000046,
      "v": 50
    },
    {
      "midi": 54,
      "hit": false,
      "t": 46285.66800000004,
      "d": 1428.570000000007,
      "v": 50
    },
    {
      "midi": 35,
      "hit": false,
      "t": 46499.953499999974,
      "d": 80.3570624999993,
      "v": 110
    },
    {
      "midi": 35,
      "hit": false,
      "t": 46607.09624999997,
      "d": 80.3570624999993,
      "v": 110
    },
    {
      "midi": 23,
      "hit": false,
      "t": 46714.23899999997,
      "d": 214.28549999999814,
      "v": 127
    },
    {
      "midi": 66,
      "hit": false,
      "t": 46714.23900000002,
      "d": 191.96409375000076,
      "v": 70
    },
    {
      "midi": 73,
      "hit": false,
      "t": 46714.23900000002,
      "d": 191.96409375000076,
      "v": 70
    },
    {
      "midi": 71,
      "hit": false,
      "t": 46714.23900000002,
      "d": 214.28549999999814,
      "v": 70
    },
    {
      "midi": 35,
      "hit": false,
      "t": 46928.52449999997,
      "d": 80.3570624999993,
      "v": 110
    },
    {
      "midi": 35,
      "hit": false,
      "t": 47035.66724999997,
      "d": 84.82134375000169,
      "v": 110
    },
    {
      "midi": 61,
      "hit": false,
      "t": 47093.702906250044,
      "d": 656.2493437500016,
      "v": 50
    },
    {
      "midi": 57,
      "hit": false,
      "t": 47107.09575,
      "d": 879.4634062499972,
      "v": 65
    },
    {
      "midi": 57,
      "hit": false,
      "t": 47111.56003125005,
      "d": 616.0708125000019,
      "v": 50
    },
    {
      "midi": 42,
      "hit": false,
      "t": 47116.02431250005,
      "d": 633.9279374999969,
      "v": 50
    },
    {
      "midi": 30,
      "hit": false,
      "t": 47142.80999999997,
      "d": 214.28549999999814,
      "v": 127
    },
    {
      "midi": 30,
      "hit": false,
      "t": 47142.80999999999,
      "d": 830.3563125000001,
      "v": 70
    },
    {
      "midi": 66,
      "hit": false,
      "t": 47142.81000000002,
      "d": 142.8570000000036,
      "v": 70
    },
    {
      "midi": 74,
      "hit": false,
      "t": 47142.81000000002,
      "d": 160.71412500000588,
      "v": 70
    },
    {
      "midi": 71,
      "hit": false,
      "t": 47142.81000000002,
      "d": 174.10696875000576,
      "v": 70
    },
    {
      "midi": 42,
      "hit": false,
      "t": 47357.09549999997,
      "d": 66.96421874999942,
      "v": 110
    },
    {
      "midi": 66,
      "hit": false,
      "t": 47357.095500000025,
      "d": 160.7141249999986,
      "v": 70
    },
    {
      "midi": 73,
      "hit": false,
      "t": 47357.095500000025,
      "d": 178.57125000000087,
      "v": 70
    },
    {
      "midi": 71,
      "hit": false,
      "t": 47357.095500000025,
      "d": 187.49981249999837,
      "v": 70
    },
    {
      "midi": 42,
      "hit": false,
      "t": 47464.238249999966,
      "d": 93.74990624999919,
      "v": 110
    },
    {
      "midi": 30,
      "hit": false,
      "t": 47571.380999999965,
      "d": 214.28549999999814,
      "v": 127
    },
    {
      "midi": 55,
      "hit": false,
      "t": 47691.916593750044,
      "d": 2022.3194062500042,
      "v": 50
    },
    {
      "midi": 59,
      "hit": false,
      "t": 47691.916593750044,
      "d": 2879.4614062500114,
      "v": 50
    },
    {
      "midi": 62,
      "hit": false,
      "t": 47696.380875000046,
      "d": 2874.997125000009,
      "v": 50
    },
    {
      "midi": 43,
      "hit": false,
      "t": 47723.166562500046,
      "d": 1071.4275000000052,
      "v": 50
    },
    {
      "midi": 42,
      "hit": false,
      "t": 47785.66649999996,
      "d": 66.96421874999942,
      "v": 110
    },
    {
      "midi": 71,
      "hit": false,
      "t": 47785.66650000002,
      "d": 174.1069687499985,
      "v": 70
    },
    {
      "midi": 67,
      "hit": false,
      "t": 47785.66650000002,
      "d": 183.03553124999598,
      "v": 70
    },
    {
      "midi": 74,
      "hit": false,
      "t": 47785.66650000002,
      "d": 187.49981249999837,
      "v": 70
    },
    {
      "midi": 42,
      "hit": false,
      "t": 47892.80924999996,
      "d": 75.89278124999691,
      "v": 110
    },
    {
      "midi": 55,
      "hit": false,
      "t": 47955.309187499995,
      "d": 897.3205312499995,
      "v": 65
    },
    {
      "midi": 31,
      "hit": false,
      "t": 47999.95199999996,
      "d": 214.28549999999814,
      "v": 127
    },
    {
      "midi": 31,
      "hit": false,
      "t": 47999.95199999999,
      "d": 866.0705624999973,
      "v": 70
    },
    {
      "midi": 43,
      "hit": false,
      "t": 48214.23749999996,
      "d": 80.3570624999993,
      "v": 110
    },
    {
      "midi": 67,
      "hit": false,
      "t": 48214.23750000002,
      "d": 120.53559374999895,
      "v": 70
    },
    {
      "midi": 71,
      "hit": false,
      "t": 48214.23750000002,
      "d": 133.92843749999884,
      "v": 70
    },
    {
      "midi": 74,
      "hit": false,
      "t": 48214.23750000002,
      "d": 133.92843749999884,
      "v": 70
    },
    {
      "midi": 43,
      "hit": false,
      "t": 48321.38024999996,
      "d": 80.3570624999993,
      "v": 110
    },
    {
      "midi": 31,
      "hit": false,
      "t": 48428.52299999996,
      "d": 214.28549999999814,
      "v": 127
    },
    {
      "midi": 67,
      "hit": false,
      "t": 48428.523000000016,
      "d": 196.42837500000314,
      "v": 70
    },
    {
      "midi": 71,
      "hit": false,
      "t": 48428.523000000016,
      "d": 196.42837500000314,
      "v": 70
    },
    {
      "midi": 73,
      "hit": false,
      "t": 48428.523000000016,
      "d": 196.42837500000314,
      "v": 70
    },
    {
      "midi": 43,
      "hit": false,
      "t": 48642.808499999956,
      "d": 80.3570624999993,
      "v": 110
    },
    {
      "midi": 43,
      "hit": false,
      "t": 48749.951249999955,
      "d": 84.82134375000169,
      "v": 110
    },
    {
      "midi": 45,
      "hit": false,
      "t": 48776.73693750005,
      "d": 937.4990624999991,
      "v": 50
    },
    {
      "midi": 57,
      "hit": false,
      "t": 48830.3083125,
      "d": 892.8562499999971,
      "v": 65
    },
    {
      "midi": 33,
      "hit": false,
      "t": 48857.093999999954,
      "d": 214.28549999999814,
      "v": 127
    },
    {
      "midi": 33,
      "hit": false,
      "t": 48857.09399999999,
      "d": 870.5348437499997,
      "v": 70
    },
    {
      "midi": 67,
      "hit": false,
      "t": 48857.09400000002,
      "d": 214.28549999999814,
      "v": 70
    },
    {
      "midi": 71,
      "hit": false,
      "t": 48857.09400000002,
      "d": 218.74978125000052,
      "v": 70
    },
    {
      "midi": 74,
      "hit": false,
      "t": 48857.09400000002,
      "d": 227.67834374999802,
      "v": 70
    },
    {
      "midi": 45,
      "hit": false,
      "t": 49071.37949999995,
      "d": 66.96421874999942,
      "v": 110
    },
    {
      "midi": 45,
      "hit": false,
      "t": 49178.52224999995,
      "d": 93.74990624999919,
      "v": 110
    },
    {
      "midi": 33,
      "hit": false,
      "t": 49285.66499999995,
      "d": 214.28549999999814,
      "v": 127
    },
    {
      "midi": 67,
      "hit": false,
      "t": 49285.665000000015,
      "d": 223.2140625000029,
      "v": 70
    },
    {
      "midi": 71,
      "hit": false,
      "t": 49285.665000000015,
      "d": 232.1426250000004,
      "v": 70
    },
    {
      "midi": 76,
      "hit": false,
      "t": 49285.665000000015,
      "d": 245.5354687500003,
      "v": 70
    },
    {
      "midi": 45,
      "hit": false,
      "t": 49499.95049999995,
      "d": 66.96421874999942,
      "v": 110
    },
    {
      "midi": 45,
      "hit": false,
      "t": 49607.09324999995,
      "d": 75.89278124999691,
      "v": 110
    },
    {
      "midi": 59,
      "hit": false,
      "t": 49687.4503125,
      "d": 906.249093749997,
      "v": 65
    },
    {
      "midi": 23,
      "hit": false,
      "t": 49714.235999999946,
      "d": 214.28549999999814,
      "v": 127
    },
    {
      "midi": 35,
      "hit": false,
      "t": 49714.23599999999,
      "d": 857.1419999999998,
      "v": 70
    },
    {
      "midi": 66,
      "hit": false,
      "t": 49714.23600000002,
      "d": 223.2140625000029,
      "v": 70
    },
    {
      "midi": 74,
      "hit": false,
      "t": 49714.23600000002,
      "d": 254.46403125000506,
      "v": 70
    },
    {
      "midi": 71,
      "hit": false,
      "t": 49714.23600000002,
      "d": 258.92831250000745,
      "v": 70
    },
    {
      "midi": 47,
      "hit": false,
      "t": 49714.23600000005,
      "d": 866.0705625000046,
      "v": 50
    },
    {
      "midi": 54,
      "hit": false,
      "t": 49714.23600000005,
      "d": 1428.570000000007,
      "v": 50
    },
    {
      "midi": 35,
      "hit": false,
      "t": 49928.521499999944,
      "d": 80.3570624999993,
      "v": 110
    },
    {
      "midi": 35,
      "hit": false,
      "t": 50035.66424999994,
      "d": 80.3570624999993,
      "v": 110
    },
    {
      "midi": 23,
      "hit": false,
      "t": 50142.80699999994,
      "d": 214.28549999999814,
      "v": 127
    },
    {
      "midi": 73,
      "hit": false,
      "t": 50142.80700000003,
      "d": 245.5354687500003,
      "v": 70
    },
    {
      "midi": 66,
      "hit": false,
      "t": 50142.80700000003,
      "d": 254.4640312499978,
      "v": 70
    },
    {
      "midi": 71,
      "hit": false,
      "t": 50142.80700000003,
      "d": 272.32115625000006,
      "v": 70
    },
    {
      "midi": 35,
      "hit": false,
      "t": 50357.09249999994,
      "d": 80.3570624999993,
      "v": 110
    },
    {
      "midi": 35,
      "hit": false,
      "t": 50464.23524999994,
      "d": 84.82134375000169,
      "v": 110
    },
    {
      "midi": 61,
      "hit": false,
      "t": 50522.27090625005,
      "d": 656.2493437500016,
      "v": 50
    },
    {
      "midi": 57,
      "hit": false,
      "t": 50540.12803125005,
      "d": 616.0708125000019,
      "v": 50
    },
    {
      "midi": 42,
      "hit": false,
      "t": 50544.592312500055,
      "d": 633.9279374999969,
      "v": 50
    },
    {
      "midi": 57,
      "hit": false,
      "t": 50562.44943749999,
      "d": 883.9276875000069,
      "v": 65
    },
    {
      "midi": 30,
      "hit": false,
      "t": 50571.37799999994,
      "d": 214.28549999999814,
      "v": 127
    },
    {
      "midi": 30,
      "hit": false,
      "t": 50571.37799999999,
      "d": 812.4991874999978,
      "v": 70
    },
    {
      "midi": 66,
      "hit": false,
      "t": 50571.37800000003,
      "d": 151.7855625000011,
      "v": 70
    },
    {
      "midi": 74,
      "hit": false,
      "t": 50571.37800000003,
      "d": 174.1069687499985,
      "v": 70
    },
    {
      "midi": 71,
      "hit": false,
      "t": 50571.37800000003,
      "d": 178.57125000000087,
      "v": 70
    },
    {
      "midi": 42,
      "hit": false,
      "t": 50785.66349999994,
      "d": 66.96421874999942,
      "v": 110
    },
    {
      "midi": 66,
      "hit": false,
      "t": 50785.66350000003,
      "d": 174.1069687499985,
      "v": 70
    },
    {
      "midi": 71,
      "hit": false,
      "t": 50785.66350000003,
      "d": 187.49981249999837,
      "v": 70
    },
    {
      "midi": 73,
      "hit": false,
      "t": 50785.66350000003,
      "d": 187.49981249999837,
      "v": 70
    },
    {
      "midi": 42,
      "hit": false,
      "t": 50892.806249999936,
      "d": 93.74990624999919,
      "v": 110
    },
    {
      "midi": 30,
      "hit": false,
      "t": 50999.948999999935,
      "d": 214.28549999999814,
      "v": 127
    },
    {
      "midi": 55,
      "hit": false,
      "t": 51120.48459375005,
      "d": 2022.3194062500042,
      "v": 50
    },
    {
      "midi": 59,
      "hit": false,
      "t": 51120.48459375005,
      "d": 2879.4614062500114,
      "v": 50
    },
    {
      "midi": 62,
      "hit": false,
      "t": 51124.94887500005,
      "d": 2874.997125000009,
      "v": 50
    },
    {
      "midi": 43,
      "hit": false,
      "t": 51151.73456250005,
      "d": 1071.4275000000052,
      "v": 50
    },
    {
      "midi": 42,
      "hit": false,
      "t": 51214.23449999993,
      "d": 66.96421874999942,
      "v": 110
    },
    {
      "midi": 67,
      "hit": false,
      "t": 51214.23450000003,
      "d": 214.28549999999814,
      "v": 70
    },
    {
      "midi": 71,
      "hit": false,
      "t": 51214.23450000003,
      "d": 223.21406249999563,
      "v": 70
    },
    {
      "midi": 74,
      "hit": false,
      "t": 51214.23450000003,
      "d": 241.0711874999979,
      "v": 70
    },
    {
      "midi": 42,
      "hit": false,
      "t": 51321.37724999993,
      "d": 75.89278124999691,
      "v": 110
    },
    {
      "midi": 55,
      "hit": false,
      "t": 51415.12715625,
      "d": 870.5348437499997,
      "v": 65
    },
    {
      "midi": 31,
      "hit": false,
      "t": 51428.51999999993,
      "d": 214.28549999999814,
      "v": 127
    },
    {
      "midi": 31,
      "hit": false,
      "t": 51428.51999999999,
      "d": 879.4634062499972,
      "v": 70
    },
    {
      "midi": 43,
      "hit": false,
      "t": 51642.80549999993,
      "d": 80.3570624999993,
      "v": 110
    },
    {
      "midi": 73,
      "hit": false,
      "t": 51642.805500000024,
      "d": 232.1426250000004,
      "v": 70
    },
    {
      "midi": 67,
      "hit": false,
      "t": 51642.805500000024,
      "d": 236.6069062500028,
      "v": 70
    },
    {
      "midi": 71,
      "hit": false,
      "t": 51642.805500000024,
      "d": 241.07118750000518,
      "v": 70
    },
    {
      "midi": 43,
      "hit": false,
      "t": 51749.94824999993,
      "d": 80.3570624999993,
      "v": 110
    },
    {
      "midi": 31,
      "hit": false,
      "t": 51857.09099999993,
      "d": 214.28549999999814,
      "v": 127
    },
    {
      "midi": 43,
      "hit": false,
      "t": 52071.376499999926,
      "d": 80.3570624999993,
      "v": 110
    },
    {
      "midi": 67,
      "hit": false,
      "t": 52071.37650000003,
      "d": 241.0711874999979,
      "v": 70
    },
    {
      "midi": 71,
      "hit": false,
      "t": 52071.37650000003,
      "d": 258.9283125000002,
      "v": 70
    },
    {
      "midi": 74,
      "hit": false,
      "t": 52071.37650000003,
      "d": 263.39259375000256,
      "v": 70
    },
    {
      "midi": 43,
      "hit": false,
      "t": 52178.519249999925,
      "d": 84.82134375000169,
      "v": 110
    },
    {
      "midi": 45,
      "hit": false,
      "t": 52205.304937500056,
      "d": 937.4990624999991,
      "v": 50
    },
    {
      "midi": 57,
      "hit": false,
      "t": 52272.26915625,
      "d": 857.1419999999998,
      "v": 65
    },
    {
      "midi": 33,
      "hit": false,
      "t": 52285.661999999924,
      "d": 214.28549999999814,
      "v": 127
    },
    {
      "midi": 33,
      "hit": false,
      "t": 52285.66199999999,
      "d": 888.391968750002,
      "v": 70
    },
    {
      "midi": 45,
      "hit": false,
      "t": 52499.94749999992,
      "d": 66.96421874999942,
      "v": 110
    },
    {
      "midi": 67,
      "hit": false,
      "t": 52499.94750000003,
      "d": 272.32115625000006,
      "v": 70
    },
    {
      "midi": 71,
      "hit": false,
      "t": 52499.94750000003,
      "d": 290.1782812500023,
      "v": 70
    },
    {
      "midi": 76,
      "hit": false,
      "t": 52499.94750000003,
      "d": 294.6425625000047,
      "v": 70
    },
    {
      "midi": 45,
      "hit": false,
      "t": 52607.09024999992,
      "d": 93.74990624999919,
      "v": 110
    },
    {
      "midi": 33,
      "hit": false,
      "t": 52714.23299999992,
      "d": 214.28549999999814,
      "v": 127
    },
    {
      "midi": 45,
      "hit": false,
      "t": 52928.51849999992,
      "d": 66.96421874999942,
      "v": 110
    },
    {
      "midi": 67,
      "hit": false,
      "t": 52928.518500000035,
      "d": 205.35693750000064,
      "v": 70
    },
    {
      "midi": 73,
      "hit": false,
      "t": 52928.518500000035,
      "d": 205.35693750000064,
      "v": 70
    },
    {
      "midi": 71,
      "hit": false,
      "t": 52928.518500000035,
      "d": 214.28549999999814,
      "v": 70
    },
    {
      "midi": 45,
      "hit": false,
      "t": 53035.66124999992,
      "d": 75.89278124999691,
      "v": 110
    },
    {
      "midi": 59,
      "hit": false,
      "t": 53107.08975,
      "d": 879.4634062499972,
      "v": 65
    },
    {
      "midi": 23,
      "hit": false,
      "t": 53142.80399999992,
      "d": 214.28549999999814,
      "v": 127
    },
    {
      "midi": 35,
      "hit": false,
      "t": 53142.80399999999,
      "d": 897.3205312499995,
      "v": 70
    },
    {
      "midi": 66,
      "hit": false,
      "t": 53142.80400000003,
      "d": 178.57125000000087,
      "v": 70
    },
    {
      "midi": 74,
      "hit": false,
      "t": 53142.80400000003,
      "d": 223.2140625000029,
      "v": 70
    },
    {
      "midi": 71,
      "hit": false,
      "t": 53142.80400000003,
      "d": 227.6783437500053,
      "v": 70
    },
    {
      "midi": 47,
      "hit": false,
      "t": 53142.804000000055,
      "d": 866.0705625000046,
      "v": 50
    },
    {
      "midi": 54,
      "hit": false,
      "t": 53142.804000000055,
      "d": 1428.570000000007,
      "v": 50
    },
    {
      "midi": 35,
      "hit": false,
      "t": 53357.089499999915,
      "d": 80.3570624999993,
      "v": 110
    },
    {
      "midi": 35,
      "hit": false,
      "t": 53464.23224999991,
      "d": 80.3570624999993,
      "v": 110
    },
    {
      "midi": 23,
      "hit": false,
      "t": 53571.37499999991,
      "d": 214.28549999999814,
      "v": 127
    },
    {
      "midi": 66,
      "hit": false,
      "t": 53571.37500000004,
      "d": 191.96409375000076,
      "v": 70
    },
    {
      "midi": 73,
      "hit": false,
      "t": 53571.37500000004,
      "d": 191.96409375000076,
      "v": 70
    },
    {
      "midi": 71,
      "hit": false,
      "t": 53571.37500000004,
      "d": 214.28549999999814,
      "v": 70
    },
    {
      "midi": 35,
      "hit": false,
      "t": 53785.66049999991,
      "d": 80.3570624999993,
      "v": 110
    },
    {
      "midi": 35,
      "hit": false,
      "t": 53892.80324999991,
      "d": 84.82134375000169,
      "v": 110
    },
    {
      "midi": 61,
      "hit": false,
      "t": 53950.83890625006,
      "d": 656.2493437500016,
      "v": 50
    },
    {
      "midi": 57,
      "hit": false,
      "t": 53964.23175,
      "d": 883.9276874999996,
      "v": 65
    },
    {
      "midi": 57,
      "hit": false,
      "t": 53968.69603125006,
      "d": 616.0708125000019,
      "v": 50
    },
    {
      "midi": 42,
      "hit": false,
      "t": 53973.16031250006,
      "d": 633.9279374999969,
      "v": 50
    },
    {
      "midi": 30,
      "hit": false,
      "t": 53999.94599999991,
      "d": 214.28549999999814,
      "v": 127
    },
    {
      "midi": 30,
      "hit": false,
      "t": 53999.94599999999,
      "d": 830.3563125000001,
      "v": 70
    },
    {
      "midi": 66,
      "hit": false,
      "t": 53999.94600000003,
      "d": 142.8570000000036,
      "v": 70
    },
    {
      "midi": 74,
      "hit": false,
      "t": 53999.94600000003,
      "d": 160.71412500000588,
      "v": 70
    },
    {
      "midi": 71,
      "hit": false,
      "t": 53999.94600000003,
      "d": 174.10696875000576,
      "v": 70
    },
    {
      "midi": 42,
      "hit": false,
      "t": 54214.23149999991,
      "d": 66.96421874999942,
      "v": 110
    },
    {
      "midi": 66,
      "hit": false,
      "t": 54214.23150000004,
      "d": 160.7141249999986,
      "v": 70
    },
    {
      "midi": 73,
      "hit": false,
      "t": 54214.23150000004,
      "d": 178.57125000000087,
      "v": 70
    },
    {
      "midi": 71,
      "hit": false,
      "t": 54214.23150000004,
      "d": 187.49981249999837,
      "v": 70
    },
    {
      "midi": 42,
      "hit": false,
      "t": 54321.374249999906,
      "d": 93.74990624999919,
      "v": 110
    },
    {
      "midi": 30,
      "hit": false,
      "t": 54428.516999999905,
      "d": 214.28549999999814,
      "v": 127
    },
    {
      "midi": 59,
      "hit": false,
      "t": 54549.05259375006,
      "d": 1991.0694375000094,
      "v": 50
    },
    {
      "midi": 55,
      "hit": false,
      "t": 54549.05259375006,
      "d": 2022.3194062500115,
      "v": 50
    },
    {
      "midi": 62,
      "hit": false,
      "t": 54553.51687500006,
      "d": 1982.1408750000046,
      "v": 50
    },
    {
      "midi": 43,
      "hit": false,
      "t": 54580.30256250006,
      "d": 1071.4275000000052,
      "v": 50
    },
    {
      "midi": 42,
      "hit": false,
      "t": 54642.8024999999,
      "d": 66.96421874999942,
      "v": 110
    },
    {
      "midi": 71,
      "hit": false,
      "t": 54642.802500000034,
      "d": 174.1069687499985,
      "v": 70
    },
    {
      "midi": 67,
      "hit": false,
      "t": 54642.802500000034,
      "d": 183.03553124999598,
      "v": 70
    },
    {
      "midi": 74,
      "hit": false,
      "t": 54642.802500000034,
      "d": 187.49981249999837,
      "v": 70
    },
    {
      "midi": 42,
      "hit": false,
      "t": 54749.9452499999,
      "d": 75.89278124999691,
      "v": 110
    },
    {
      "midi": 55,
      "hit": false,
      "t": 54816.90946875,
      "d": 888.391968750002,
      "v": 65
    },
    {
      "midi": 31,
      "hit": false,
      "t": 54857.0879999999,
      "d": 214.28549999999814,
      "v": 127
    },
    {
      "midi": 31,
      "hit": false,
      "t": 54857.08799999999,
      "d": 866.0705624999973,
      "v": 70
    },
    {
      "midi": 43,
      "hit": false,
      "t": 55071.3734999999,
      "d": 80.3570624999993,
      "v": 110
    },
    {
      "midi": 67,
      "hit": false,
      "t": 55071.37350000003,
      "d": 120.53559374999895,
      "v": 70
    },
    {
      "midi": 71,
      "hit": false,
      "t": 55071.37350000003,
      "d": 133.92843749999884,
      "v": 70
    },
    {
      "midi": 74,
      "hit": false,
      "t": 55071.37350000003,
      "d": 133.92843749999884,
      "v": 70
    },
    {
      "midi": 43,
      "hit": false,
      "t": 55178.5162499999,
      "d": 80.3570624999993,
      "v": 110
    },
    {
      "midi": 31,
      "hit": false,
      "t": 55285.6589999999,
      "d": 214.28549999999814,
      "v": 127
    },
    {
      "midi": 67,
      "hit": false,
      "t": 55285.65900000003,
      "d": 196.42837500000314,
      "v": 70
    },
    {
      "midi": 71,
      "hit": false,
      "t": 55285.65900000003,
      "d": 196.42837500000314,
      "v": 70
    },
    {
      "midi": 73,
      "hit": false,
      "t": 55285.65900000003,
      "d": 196.42837500000314,
      "v": 70
    },
    {
      "midi": 43,
      "hit": false,
      "t": 55499.944499999896,
      "d": 80.3570624999993,
      "v": 110
    },
    {
      "midi": 43,
      "hit": false,
      "t": 55607.087249999895,
      "d": 84.82134375000169,
      "v": 110
    },
    {
      "midi": 45,
      "hit": false,
      "t": 55633.87293750006,
      "d": 937.4990625000064,
      "v": 50
    },
    {
      "midi": 57,
      "hit": false,
      "t": 55678.51575,
      "d": 892.8562499999971,
      "v": 65
    },
    {
      "midi": 33,
      "hit": false,
      "t": 55714.229999999894,
      "d": 214.28549999999814,
      "v": 127
    },
    {
      "midi": 33,
      "hit": false,
      "t": 55714.22999999999,
      "d": 870.5348437499997,
      "v": 70
    },
    {
      "midi": 67,
      "hit": false,
      "t": 55714.23000000003,
      "d": 214.28549999999814,
      "v": 70
    },
    {
      "midi": 71,
      "hit": false,
      "t": 55714.23000000003,
      "d": 218.74978125000052,
      "v": 70
    },
    {
      "midi": 74,
      "hit": false,
      "t": 55714.23000000003,
      "d": 227.67834374999802,
      "v": 70
    },
    {
      "midi": 45,
      "hit": false,
      "t": 55928.51549999989,
      "d": 66.96421874999942,
      "v": 110
    },
    {
      "midi": 45,
      "hit": false,
      "t": 56035.65824999989,
      "d": 93.74990624999919,
      "v": 110
    },
    {
      "midi": 33,
      "hit": false,
      "t": 56142.80099999989,
      "d": 214.28549999999814,
      "v": 127
    },
    {
      "midi": 67,
      "hit": false,
      "t": 56142.80100000003,
      "d": 223.2140625000029,
      "v": 70
    },
    {
      "midi": 71,
      "hit": false,
      "t": 56142.80100000003,
      "d": 232.1426250000004,
      "v": 70
    },
    {
      "midi": 76,
      "hit": false,
      "t": 56142.80100000003,
      "d": 245.5354687500003,
      "v": 70
    },
    {
      "midi": 45,
      "hit": false,
      "t": 56357.08649999989,
      "d": 66.96421874999942,
      "v": 110
    },
    {
      "midi": 45,
      "hit": false,
      "t": 56464.22924999989,
      "d": 75.89278124999691,
      "v": 110
    },
    {
      "midi": 23,
      "hit": false,
      "t": 56571.37199999989,
      "d": 214.28549999999814,
      "v": 127
    },
    {
      "midi": 35,
      "hit": false,
      "t": 56571.37199999999,
      "d": 223.21406249999563,
      "v": 65
    },
    {
      "midi": 66,
      "hit": false,
      "t": 56571.37200000007,
      "d": 6790.171781249999,
      "v": 35
    },
    {
      "midi": 59,
      "hit": false,
      "t": 56571.37200000007,
      "d": 6852.671718749996,
      "v": 35
    },
    {
      "midi": 62,
      "hit": false,
      "t": 56571.37200000007,
      "d": 6861.600281249994,
      "v": 35
    },
    {
      "midi": 35,
      "hit": false,
      "t": 56785.657499999885,
      "d": 80.3570624999993,
      "v": 110
    },
    {
      "midi": 47,
      "hit": false,
      "t": 56785.65749999999,
      "d": 223.21406249999563,
      "v": 65
    },
    {
      "midi": 35,
      "hit": false,
      "t": 56892.800249999884,
      "d": 80.3570624999993,
      "v": 110
    },
    {
      "midi": 23,
      "hit": false,
      "t": 56999.94299999988,
      "d": 214.28549999999814,
      "v": 127
    },
    {
      "midi": 35,
      "hit": false,
      "t": 56999.942999999985,
      "d": 196.42837499999587,
      "v": 65
    },
    {
      "midi": 35,
      "hit": false,
      "t": 57214.22849999988,
      "d": 80.3570624999993,
      "v": 110
    },
    {
      "midi": 47,
      "hit": false,
      "t": 57214.22849999998,
      "d": 218.74978125000052,
      "v": 65
    },
    {
      "midi": 35,
      "hit": false,
      "t": 57321.37124999988,
      "d": 84.82134375000169,
      "v": 110
    },
    {
      "midi": 23,
      "hit": false,
      "t": 57428.51399999988,
      "d": 214.28549999999814,
      "v": 127
    },
    {
      "midi": 35,
      "hit": false,
      "t": 57428.51399999998,
      "d": 196.42837500000314,
      "v": 65
    },
    {
      "midi": 78,
      "hit": false,
      "t": 57428.51400000001,
      "d": 120.53559374999895,
      "v": 105
    },
    {
      "midi": 78,
      "hit": false,
      "t": 57620.47809375001,
      "d": 111.60703125000146,
      "v": 105
    },
    {
      "midi": 35,
      "hit": false,
      "t": 57642.79949999988,
      "d": 80.3570624999993,
      "v": 110
    },
    {
      "midi": 47,
      "hit": false,
      "t": 57642.79949999999,
      "d": 214.28549999999814,
      "v": 65
    },
    {
      "midi": 35,
      "hit": false,
      "t": 57749.94224999988,
      "d": 80.3570624999993,
      "v": 110
    },
    {
      "midi": 23,
      "hit": false,
      "t": 57857.084999999875,
      "d": 214.28549999999814,
      "v": 127
    },
    {
      "midi": 35,
      "hit": false,
      "t": 57857.084999999985,
      "d": 196.42837500000314,
      "v": 65
    },
    {
      "midi": 78,
      "hit": false,
      "t": 57866.01356250001,
      "d": 84.82134375000169,
      "v": 105
    },
    {
      "midi": 35,
      "hit": false,
      "t": 58071.37049999987,
      "d": 80.3570624999993,
      "v": 110
    },
    {
      "midi": 47,
      "hit": false,
      "t": 58071.37049999999,
      "d": 223.21406249999563,
      "v": 65
    },
    {
      "midi": 78,
      "hit": false,
      "t": 58093.69190625002,
      "d": 441.96384375000343,
      "v": 105
    },
    {
      "midi": 35,
      "hit": false,
      "t": 58178.51324999987,
      "d": 84.82134375000169,
      "v": 110
    },
    {
      "midi": 23,
      "hit": false,
      "t": 58285.65599999987,
      "d": 214.28549999999814,
      "v": 127
    },
    {
      "midi": 35,
      "hit": false,
      "t": 58285.65599999999,
      "d": 183.03553124999598,
      "v": 65
    },
    {
      "midi": 35,
      "hit": false,
      "t": 58499.94149999987,
      "d": 80.3570624999993,
      "v": 110
    },
    {
      "midi": 47,
      "hit": false,
      "t": 58499.941499999986,
      "d": 218.74978125000052,
      "v": 65
    },
    {
      "midi": 79,
      "hit": false,
      "t": 58540.12003125002,
      "d": 370.53534375000163,
      "v": 105
    },
    {
      "midi": 35,
      "hit": false,
      "t": 58607.08424999987,
      "d": 80.3570624999993,
      "v": 110
    },
    {
      "midi": 23,
      "hit": false,
      "t": 58714.22699999987,
      "d": 214.28549999999814,
      "v": 127
    },
    {
      "midi": 35,
      "hit": false,
      "t": 58714.226999999984,
      "d": 196.42837500000314,
      "v": 65
    },
    {
      "midi": 35,
      "hit": false,
      "t": 58928.512499999866,
      "d": 80.3570624999993,
      "v": 110
    },
    {
      "midi": 47,
      "hit": false,
      "t": 58928.51249999999,
      "d": 214.28549999999814,
      "v": 65
    },
    {
      "midi": 76,
      "hit": false,
      "t": 58955.298187500026,
      "d": 419.6424374999988,
      "v": 105
    },
    {
      "midi": 35,
      "hit": false,
      "t": 59035.655249999865,
      "d": 84.82134375000169,
      "v": 110
    },
    {
      "midi": 23,
      "hit": false,
      "t": 59142.797999999864,
      "d": 214.28549999999814,
      "v": 127
    },
    {
      "midi": 35,
      "hit": false,
      "t": 59142.79799999999,
      "d": 191.96409375000076,
      "v": 65
    },
    {
      "midi": 35,
      "hit": false,
      "t": 59357.08349999986,
      "d": 80.3570624999993,
      "v": 110
    },
    {
      "midi": 47,
      "hit": false,
      "t": 59357.083499999986,
      "d": 218.74978125000052,
      "v": 65
    },
    {
      "midi": 74,
      "hit": false,
      "t": 59379.40490625003,
      "d": 370.53534375000163,
      "v": 105
    },
    {
      "midi": 35,
      "hit": false,
      "t": 59464.22624999986,
      "d": 80.3570624999993,
      "v": 110
    },
    {
      "midi": 23,
      "hit": false,
      "t": 59571.36899999986,
      "d": 214.28549999999814,
      "v": 127
    },
    {
      "midi": 35,
      "hit": false,
      "t": 59571.368999999984,
      "d": 196.42837500000314,
      "v": 65
    },
    {
      "midi": 35,
      "hit": false,
      "t": 59785.65449999986,
      "d": 80.3570624999993,
      "v": 110
    },
    {
      "midi": 47,
      "hit": false,
      "t": 59785.65449999999,
      "d": 236.60690624999552,
      "v": 65
    },
    {
      "midi": 78,
      "hit": false,
      "t": 59790.11878125003,
      "d": 620.535093749997,
      "v": 105
    },
    {
      "midi": 35,
      "hit": false,
      "t": 59892.79724999986,
      "d": 84.82134375000169,
      "v": 110
    },
    {
      "midi": 23,
      "hit": false,
      "t": 59999.93999999986,
      "d": 214.28549999999814,
      "v": 127
    },
    {
      "midi": 35,
      "hit": false,
      "t": 59999.93999999999,
      "d": 196.42837499999587,
      "v": 65
    },
    {
      "midi": 35,
      "hit": false,
      "t": 60214.225499999855,
      "d": 80.3570624999993,
      "v": 110
    },
    {
      "midi": 47,
      "hit": false,
      "t": 60214.225499999986,
      "d": 214.28549999999814,
      "v": 65
    },
    {
      "midi": 35,
      "hit": false,
      "t": 60321.368249999854,
      "d": 80.3570624999993,
      "v": 110
    },
    {
      "midi": 23,
      "hit": false,
      "t": 60428.51099999985,
      "d": 214.28549999999814,
      "v": 127
    },
    {
      "midi": 35,
      "hit": false,
      "t": 60428.510999999984,
      "d": 178.57125000000087,
      "v": 65
    },
    {
      "midi": 35,
      "hit": false,
      "t": 60642.79649999985,
      "d": 80.3570624999993,
      "v": 110
    },
    {
      "midi": 47,
      "hit": false,
      "t": 60642.79649999998,
      "d": 218.74978125000052,
      "v": 65
    },
    {
      "midi": 35,
      "hit": false,
      "t": 60749.93924999985,
      "d": 84.82134375000169,
      "v": 110
    },
    {
      "midi": 23,
      "hit": false,
      "t": 60857.08199999985,
      "d": 214.28549999999814,
      "v": 127
    },
    {
      "midi": 35,
      "hit": false,
      "t": 60857.08199999998,
      "d": 205.35693750000064,
      "v": 65
    },
    {
      "midi": 78,
      "hit": false,
      "t": 60861.54628125003,
      "d": 107.14274999999907,
      "v": 105
    },
    {
      "midi": 78,
      "hit": false,
      "t": 61057.97465625002,
      "d": 102.67846874999668,
      "v": 105
    },
    {
      "midi": 35,
      "hit": false,
      "t": 61071.36749999985,
      "d": 80.3570624999993,
      "v": 110
    },
    {
      "midi": 47,
      "hit": false,
      "t": 61071.36749999998,
      "d": 214.28549999999814,
      "v": 65
    },
    {
      "midi": 35,
      "hit": false,
      "t": 61178.51024999985,
      "d": 80.3570624999993,
      "v": 110
    },
    {
      "midi": 78,
      "hit": false,
      "t": 61267.79587500002,
      "d": 102.67846874999668,
      "v": 105
    },
    {
      "midi": 23,
      "hit": false,
      "t": 61285.652999999846,
      "d": 214.28549999999814,
      "v": 127
    },
    {
      "midi": 35,
      "hit": false,
      "t": 61285.65299999998,
      "d": 187.49981249999837,
      "v": 65
    },
    {
      "midi": 78,
      "hit": false,
      "t": 61491.00993750001,
      "d": 464.2852500000008,
      "v": 105
    },
    {
      "midi": 35,
      "hit": false,
      "t": 61499.938499999844,
      "d": 80.3570624999993,
      "v": 110
    },
    {
      "midi": 47,
      "hit": false,
      "t": 61499.938499999975,
      "d": 178.57125000000087,
      "v": 65
    },
    {
      "midi": 35,
      "hit": false,
      "t": 61607.08124999984,
      "d": 84.82134375000169,
      "v": 110
    },
    {
      "midi": 55,
      "hit": false,
      "t": 61647.25978125007,
      "d": 1741.0696874999994,
      "v": 35
    },
    {
      "midi": 31,
      "hit": false,
      "t": 61714.22399999984,
      "d": 214.28549999999814,
      "v": 127
    },
    {
      "midi": 31,
      "hit": false,
      "t": 61714.22399999997,
      "d": 205.35693750000064,
      "v": 65
    },
    {
      "midi": 43,
      "hit": false,
      "t": 61928.50949999984,
      "d": 80.3570624999993,
      "v": 110
    },
    {
      "midi": 43,
      "hit": false,
      "t": 61928.50949999997,
      "d": 232.1426250000004,
      "v": 65
    },
    {
      "midi": 79,
      "hit": false,
      "t": 61946.36662500002,
      "d": 205.35693750000064,
      "v": 105
    },
    {
      "midi": 43,
      "hit": false,
      "t": 62035.65224999984,
      "d": 80.3570624999993,
      "v": 110
    },
    {
      "midi": 31,
      "hit": false,
      "t": 62142.79499999984,
      "d": 214.28549999999814,
      "v": 127
    },
    {
      "midi": 31,
      "hit": false,
      "t": 62142.79499999997,
      "d": 196.42837500000314,
      "v": 65
    },
    {
      "midi": 78,
      "hit": false,
      "t": 62151.72356250002,
      "d": 205.35693750000064,
      "v": 105
    },
    {
      "midi": 43,
      "hit": false,
      "t": 62357.080499999836,
      "d": 80.3570624999993,
      "v": 110
    },
    {
      "midi": 43,
      "hit": false,
      "t": 62357.080499999975,
      "d": 209.82121875000303,
      "v": 65
    },
    {
      "midi": 76,
      "hit": false,
      "t": 62366.009062500016,
      "d": 437.49956250000105,
      "v": 105
    },
    {
      "midi": 43,
      "hit": false,
      "t": 62464.223249999835,
      "d": 84.82134375000169,
      "v": 110
    },
    {
      "midi": 31,
      "hit": false,
      "t": 62571.365999999834,
      "d": 214.28549999999814,
      "v": 127
    },
    {
      "midi": 31,
      "hit": false,
      "t": 62571.36599999998,
      "d": 196.42837500000314,
      "v": 65
    },
    {
      "midi": 43,
      "hit": false,
      "t": 62785.65149999983,
      "d": 80.3570624999993,
      "v": 110
    },
    {
      "midi": 43,
      "hit": false,
      "t": 62785.651499999985,
      "d": 241.0711874999979,
      "v": 65
    },
    {
      "midi": 78,
      "hit": false,
      "t": 62803.50862500002,
      "d": 374.99962499999674,
      "v": 105
    },
    {
      "midi": 43,
      "hit": false,
      "t": 62892.79424999983,
      "d": 80.3570624999993,
      "v": 110
    },
    {
      "midi": 31,
      "hit": false,
      "t": 62999.93699999983,
      "d": 214.28549999999814,
      "v": 127
    },
    {
      "midi": 31,
      "hit": false,
      "t": 62999.93699999998,
      "d": 205.35693750000064,
      "v": 65
    },
    {
      "midi": 43,
      "hit": false,
      "t": 63214.22249999983,
      "d": 80.3570624999993,
      "v": 110
    },
    {
      "midi": 43,
      "hit": false,
      "t": 63214.22249999998,
      "d": 209.82121875000303,
      "v": 65
    },
    {
      "midi": 76,
      "hit": false,
      "t": 63218.68678125001,
      "d": 665.1779062499991,
      "v": 105
    },
    {
      "midi": 43,
      "hit": false,
      "t": 63321.36524999983,
      "d": 84.82134375000169,
      "v": 110
    },
    {
      "midi": 64,
      "hit": false,
      "t": 63370.472343750065,
      "d": 6915.171656249993,
      "v": 35
    },
    {
      "midi": 57,
      "hit": false,
      "t": 63374.93662500007,
      "d": 1763.3910937499895,
      "v": 35
    },
    {
      "midi": 61,
      "hit": false,
      "t": 63379.40090625007,
      "d": 1736.6054062499898,
      "v": 35
    },
    {
      "midi": 33,
      "hit": false,
      "t": 63428.50799999983,
      "d": 214.28549999999814,
      "v": 127
    },
    {
      "midi": 33,
      "hit": false,
      "t": 63428.50799999999,
      "d": 214.28549999999814,
      "v": 65
    },
    {
      "midi": 45,
      "hit": false,
      "t": 63642.793499999825,
      "d": 80.3570624999993,
      "v": 110
    },
    {
      "midi": 45,
      "hit": false,
      "t": 63642.793499999985,
      "d": 232.1426250000004,
      "v": 65
    },
    {
      "midi": 45,
      "hit": false,
      "t": 63749.936249999824,
      "d": 80.3570624999993,
      "v": 110
    },
    {
      "midi": 33,
      "hit": false,
      "t": 63857.07899999982,
      "d": 214.28549999999814,
      "v": 127
    },
    {
      "midi": 33,
      "hit": false,
      "t": 63857.07899999998,
      "d": 218.7497812500078,
      "v": 65
    },
    {
      "midi": 45,
      "hit": false,
      "t": 64071.36449999982,
      "d": 80.3570624999993,
      "v": 110
    },
    {
      "midi": 45,
      "hit": false,
      "t": 64071.36449999999,
      "d": 236.6069062500028,
      "v": 65
    },
    {
      "midi": 45,
      "hit": false,
      "t": 64178.50724999982,
      "d": 84.82134375000169,
      "v": 110
    },
    {
      "midi": 33,
      "hit": false,
      "t": 64285.64999999982,
      "d": 214.28549999999814,
      "v": 127
    },
    {
      "midi": 33,
      "hit": false,
      "t": 64285.649999999994,
      "d": 200.89265624999825,
      "v": 65
    },
    {
      "midi": 76,
      "hit": false,
      "t": 64285.65000000001,
      "d": 214.28549999999814,
      "v": 105
    },
    {
      "midi": 78,
      "hit": false,
      "t": 64486.54265625001,
      "d": 214.28549999999814,
      "v": 105
    },
    {
      "midi": 45,
      "hit": false,
      "t": 64499.93549999982,
      "d": 80.3570624999993,
      "v": 110
    },
    {
      "midi": 45,
      "hit": false,
      "t": 64499.93549999999,
      "d": 209.82121875000303,
      "v": 65
    },
    {
      "midi": 45,
      "hit": false,
      "t": 64607.07824999982,
      "d": 80.3570624999993,
      "v": 110
    },
    {
      "midi": 79,
      "hit": false,
      "t": 64709.75671875,
      "d": 196.42837500000314,
      "v": 105
    },
    {
      "midi": 33,
      "hit": false,
      "t": 64714.220999999816,
      "d": 214.28549999999814,
      "v": 127
    },
    {
      "midi": 33,
      "hit": false,
      "t": 64714.221,
      "d": 187.49981249999837,
      "v": 65
    },
    {
      "midi": 81,
      "hit": false,
      "t": 64924.04221875001,
      "d": 531.2494687500002,
      "v": 105
    },
    {
      "midi": 45,
      "hit": false,
      "t": 64928.506499999814,
      "d": 80.3570624999993,
      "v": 110
    },
    {
      "midi": 45,
      "hit": false,
      "t": 64928.506499999996,
      "d": 209.82121875000303,
      "v": 65
    },
    {
      "midi": 45,
      "hit": false,
      "t": 65035.64924999981,
      "d": 84.82134375000169,
      "v": 110
    },
    {
      "midi": 55,
      "hit": false,
      "t": 65075.82778125006,
      "d": 1772.3196562499943,
      "v": 35
    },
    {
      "midi": 52,
      "hit": false,
      "t": 65084.75634375006,
      "d": 1758.9268125000017,
      "v": 35
    },
    {
      "midi": 59,
      "hit": false,
      "t": 65102.61346875006,
      "d": 1758.9268124999944,
      "v": 35
    },
    {
      "midi": 28,
      "hit": false,
      "t": 65142.79199999981,
      "d": 214.28549999999814,
      "v": 127
    },
    {
      "midi": 28,
      "hit": false,
      "t": 65142.792,
      "d": 227.67834374999802,
      "v": 65
    },
    {
      "midi": 40,
      "hit": false,
      "t": 65357.07749999981,
      "d": 80.3570624999993,
      "v": 110
    },
    {
      "midi": 40,
      "hit": false,
      "t": 65357.0775,
      "d": 214.28549999999814,
      "v": 65
    },
    {
      "midi": 40,
      "hit": false,
      "t": 65464.22024999981,
      "d": 80.3570624999993,
      "v": 110
    },
    {
      "midi": 28,
      "hit": false,
      "t": 65571.36299999981,
      "d": 214.28549999999814,
      "v": 127
    },
    {
      "midi": 28,
      "hit": false,
      "t": 65571.363,
      "d": 200.89265624999825,
      "v": 65
    },
    {
      "midi": 40,
      "hit": false,
      "t": 65785.6484999998,
      "d": 80.3570624999993,
      "v": 110
    },
    {
      "midi": 40,
      "hit": false,
      "t": 65785.6485,
      "d": 223.2140625000029,
      "v": 65
    },
    {
      "midi": 40,
      "hit": false,
      "t": 65892.7912499998,
      "d": 84.82134374999441,
      "v": 110
    },
    {
      "midi": 81,
      "hit": false,
      "t": 65973.14831250001,
      "d": 223.2140625000029,
      "v": 105
    },
    {
      "midi": 28,
      "hit": false,
      "t": 65999.9339999998,
      "d": 214.28549999999814,
      "v": 127
    },
    {
      "midi": 28,
      "hit": false,
      "t": 65999.934,
      "d": 200.89265624999825,
      "v": 65
    },
    {
      "midi": 79,
      "hit": false,
      "t": 66205.29093750002,
      "d": 205.35693750000792,
      "v": 105
    },
    {
      "midi": 40,
      "hit": false,
      "t": 66214.2194999998,
      "d": 80.3570624999993,
      "v": 110
    },
    {
      "midi": 40,
      "hit": false,
      "t": 66214.21949999999,
      "d": 223.2140625000029,
      "v": 65
    },
    {
      "midi": 40,
      "hit": false,
      "t": 66321.3622499998,
      "d": 80.3570624999993,
      "v": 110
    },
    {
      "midi": 78,
      "hit": false,
      "t": 66401.71931250002,
      "d": 124.99987500000861,
      "v": 105
    },
    {
      "midi": 28,
      "hit": false,
      "t": 66428.5049999998,
      "d": 214.28549999999814,
      "v": 127
    },
    {
      "midi": 28,
      "hit": false,
      "t": 66428.50499999999,
      "d": 174.1069687499985,
      "v": 65
    },
    {
      "midi": 78,
      "hit": false,
      "t": 66624.93337500002,
      "d": 437.49956250000105,
      "v": 105
    },
    {
      "midi": 40,
      "hit": false,
      "t": 66642.7904999998,
      "d": 80.3570624999993,
      "v": 110
    },
    {
      "midi": 40,
      "hit": false,
      "t": 66642.79049999999,
      "d": 205.35693749999336,
      "v": 65
    },
    {
      "midi": 40,
      "hit": false,
      "t": 66749.9332499998,
      "d": 84.82134374999441,
      "v": 110
    },
    {
      "midi": 57,
      "hit": false,
      "t": 66803.50462500006,
      "d": 1785.7124999999942,
      "v": 35
    },
    {
      "midi": 61,
      "hit": false,
      "t": 66807.96890625005,
      "d": 3477.6750937500037,
      "v": 35
    },
    {
      "midi": 33,
      "hit": false,
      "t": 66857.0759999998,
      "d": 214.28549999999814,
      "v": 127
    },
    {
      "midi": 33,
      "hit": false,
      "t": 66857.07599999999,
      "d": 245.53546874999302,
      "v": 65
    },
    {
      "midi": 76,
      "hit": false,
      "t": 67062.43293750002,
      "d": 321.4282499999972,
      "v": 105
    },
    {
      "midi": 45,
      "hit": false,
      "t": 67071.3614999998,
      "d": 80.3570624999993,
      "v": 110
    },
    {
      "midi": 45,
      "hit": false,
      "t": 67071.36149999998,
      "d": 236.6069062500028,
      "v": 65
    },
    {
      "midi": 45,
      "hit": false,
      "t": 67178.5042499998,
      "d": 80.3570624999993,
      "v": 110
    },
    {
      "midi": 33,
      "hit": false,
      "t": 67285.6469999998,
      "d": 214.28549999999814,
      "v": 127
    },
    {
      "midi": 33,
      "hit": false,
      "t": 67285.64699999998,
      "d": 205.35693750000792,
      "v": 65
    },
    {
      "midi": 45,
      "hit": false,
      "t": 67499.93249999979,
      "d": 80.3570624999993,
      "v": 110
    },
    {
      "midi": 45,
      "hit": false,
      "t": 67499.9325,
      "d": 191.96409374999348,
      "v": 65
    },
    {
      "midi": 45,
      "hit": false,
      "t": 67607.07524999979,
      "d": 84.82134374999441,
      "v": 110
    },
    {
      "midi": 76,
      "hit": false,
      "t": 67691.89659375002,
      "d": 205.35693749999336,
      "v": 105
    },
    {
      "midi": 33,
      "hit": false,
      "t": 67714.21799999979,
      "d": 214.28549999999814,
      "v": 127
    },
    {
      "midi": 33,
      "hit": false,
      "t": 67714.218,
      "d": 196.42837500000314,
      "v": 65
    },
    {
      "midi": 78,
      "hit": false,
      "t": 67879.39640625002,
      "d": 241.0711874999979,
      "v": 105
    },
    {
      "midi": 45,
      "hit": false,
      "t": 67928.50349999979,
      "d": 80.3570624999993,
      "v": 110
    },
    {
      "midi": 45,
      "hit": false,
      "t": 67928.50349999999,
      "d": 232.14262499999313,
      "v": 65
    },
    {
      "midi": 45,
      "hit": false,
      "t": 68035.64624999979,
      "d": 80.3570624999993,
      "v": 110
    },
    {
      "midi": 79,
      "hit": false,
      "t": 68120.46759375001,
      "d": 205.35693749999336,
      "v": 105
    },
    {
      "midi": 33,
      "hit": false,
      "t": 68142.78899999979,
      "d": 214.28549999999814,
      "v": 127
    },
    {
      "midi": 33,
      "hit": false,
      "t": 68142.78899999999,
      "d": 196.4283749999886,
      "v": 65
    },
    {
      "midi": 81,
      "hit": false,
      "t": 68334.75309375001,
      "d": 450.89240625000093,
      "v": 105
    },
    {
      "midi": 45,
      "hit": false,
      "t": 68357.07449999978,
      "d": 80.3570624999993,
      "v": 110
    },
    {
      "midi": 45,
      "hit": false,
      "t": 68357.07449999997,
      "d": 200.89265624999825,
      "v": 65
    },
    {
      "midi": 45,
      "hit": false,
      "t": 68464.21724999978,
      "d": 84.82134374999441,
      "v": 110
    },
    {
      "midi": 54,
      "hit": false,
      "t": 68513.32434375005,
      "d": 1772.3196562500088,
      "v": 35
    },
    {
      "midi": 58,
      "hit": false,
      "t": 68535.64575000005,
      "d": 1749.9982500000042,
      "v": 35
    },
    {
      "midi": 30,
      "hit": false,
      "t": 68571.35999999978,
      "d": 214.28549999999814,
      "v": 127
    },
    {
      "midi": 30,
      "hit": false,
      "t": 68571.35999999997,
      "d": 232.14262499999313,
      "v": 65
    },
    {
      "midi": 42,
      "hit": false,
      "t": 68785.64549999978,
      "d": 80.3570624999993,
      "v": 110
    },
    {
      "midi": 42,
      "hit": false,
      "t": 68785.64549999997,
      "d": 223.2140625000029,
      "v": 65
    },
    {
      "midi": 79,
      "hit": false,
      "t": 68790.10978125001,
      "d": 428.5709999999963,
      "v": 105
    },
    {
      "midi": 42,
      "hit": false,
      "t": 68892.78824999978,
      "d": 80.3570624999993,
      "v": 110
    },
    {
      "midi": 30,
      "hit": false,
      "t": 68999.93099999978,
      "d": 214.28549999999814,
      "v": 127
    },
    {
      "midi": 30,
      "hit": false,
      "t": 68999.93099999997,
      "d": 209.82121875000303,
      "v": 65
    },
    {
      "midi": 42,
      "hit": false,
      "t": 69214.21649999978,
      "d": 80.3570624999993,
      "v": 110
    },
    {
      "midi": 42,
      "hit": false,
      "t": 69214.21649999997,
      "d": 223.2140625000029,
      "v": 65
    },
    {
      "midi": 78,
      "hit": false,
      "t": 69241.00218750001,
      "d": 424.10671875000116,
      "v": 105
    },
    {
      "midi": 42,
      "hit": false,
      "t": 69321.35924999978,
      "d": 84.82134374999441,
      "v": 110
    },
    {
      "midi": 30,
      "hit": false,
      "t": 69428.50199999977,
      "d": 214.28549999999814,
      "v": 127
    },
    {
      "midi": 30,
      "hit": false,
      "t": 69428.50199999996,
      "d": 200.89265624999825,
      "v": 65
    },
    {
      "midi": 42,
      "hit": false,
      "t": 69642.78749999977,
      "d": 80.3570624999993,
      "v": 110
    },
    {
      "midi": 42,
      "hit": false,
      "t": 69642.78749999996,
      "d": 249.99975000000268,
      "v": 65
    },
    {
      "midi": 79,
      "hit": false,
      "t": 69678.50175000001,
      "d": 321.4282499999972,
      "v": 105
    },
    {
      "midi": 42,
      "hit": false,
      "t": 69749.93024999977,
      "d": 80.3570624999993,
      "v": 110
    },
    {
      "midi": 30,
      "hit": false,
      "t": 69857.07299999977,
      "d": 214.28549999999814,
      "v": 127
    },
    {
      "midi": 30,
      "hit": false,
      "t": 69857.07299999996,
      "d": 223.2140625000029,
      "v": 65
    },
    {
      "midi": 76,
      "hit": false,
      "t": 70026.71568750001,
      "d": 249.99975000000268,
      "v": 105
    },
    {
      "midi": 42,
      "hit": false,
      "t": 70071.35849999977,
      "d": 80.3570624999993,
      "v": 110
    },
    {
      "midi": 42,
      "hit": false,
      "t": 70071.35849999996,
      "d": 218.74978124999325,
      "v": 65
    },
    {
      "midi": 42,
      "hit": false,
      "t": 70178.50124999977,
      "d": 84.82134374999441,
      "v": 110
    },
    {
      "midi": 23,
      "hit": false,
      "t": 70285.64399999977,
      "d": 214.28549999999814,
      "v": 127
    },
    {
      "midi": 35,
      "hit": false,
      "t": 70285.64399999996,
      "d": 223.2140625000029,
      "v": 65
    },
    {
      "midi": 78,
      "hit": false,
      "t": 70285.64400000001,
      "d": 437.49956250000105,
      "v": 105
    },
    {
      "midi": 66,
      "hit": false,
      "t": 70285.64400000006,
      "d": 6790.171781249999,
      "v": 35
    },
    {
      "midi": 59,
      "hit": false,
      "t": 70285.64400000006,
      "d": 6852.6717187500035,
      "v": 35
    },
    {
      "midi": 62,
      "hit": false,
      "t": 70285.64400000006,
      "d": 6861.600281250008,
      "v": 35
    },
    {
      "midi": 35,
      "hit": false,
      "t": 70499.92949999977,
      "d": 80.3570624999993,
      "v": 110
    },
    {
      "midi": 47,
      "hit": false,
      "t": 70499.92949999995,
      "d": 223.2140625000029,
      "v": 65
    },
    {
      "midi": 78,
      "hit": false,
      "t": 70499.92950000001,
      "d": 196.42837500000314,
      "v": 60
    },
    {
      "midi": 35,
      "hit": false,
      "t": 70607.07224999976,
      "d": 80.3570624999993,
      "v": 110
    },
    {
      "midi": 23,
      "hit": false,
      "t": 70714.21499999976,
      "d": 214.28549999999814,
      "v": 127
    },
    {
      "midi": 35,
      "hit": false,
      "t": 70714.21499999995,
      "d": 196.42837500000314,
      "v": 65
    },
    {
      "midi": 35,
      "hit": false,
      "t": 70928.50049999976,
      "d": 80.3570624999993,
      "v": 110
    },
    {
      "midi": 47,
      "hit": false,
      "t": 70928.50049999995,
      "d": 218.74978124999325,
      "v": 65
    },
    {
      "midi": 78,
      "hit": false,
      "t": 70928.50050000001,
      "d": 191.96409374999348,
      "v": 60
    },
    {
      "midi": 35,
      "hit": false,
      "t": 71035.64324999976,
      "d": 84.82134374999441,
      "v": 110
    },
    {
      "midi": 23,
      "hit": false,
      "t": 71142.78599999976,
      "d": 214.28549999999814,
      "v": 127
    },
    {
      "midi": 35,
      "hit": false,
      "t": 71142.78599999995,
      "d": 196.4283749999886,
      "v": 65
    },
    {
      "midi": 78,
      "hit": false,
      "t": 71156.17884375002,
      "d": 142.8570000000036,
      "v": 105
    },
    {
      "midi": 35,
      "hit": false,
      "t": 71357.07149999976,
      "d": 80.3570624999993,
      "v": 110
    },
    {
      "midi": 47,
      "hit": false,
      "t": 71357.07149999993,
      "d": 214.28549999999814,
      "v": 65
    },
    {
      "midi": 78,
      "hit": false,
      "t": 71357.0715,
      "d": 196.42837500000314,
      "v": 60
    },
    {
      "midi": 78,
      "hit": false,
      "t": 71357.07150000002,
      "d": 129.46415625000373,
      "v": 105
    },
    {
      "midi": 35,
      "hit": false,
      "t": 71464.21424999976,
      "d": 80.3570624999993,
      "v": 110
    },
    {
      "midi": 78,
      "hit": false,
      "t": 71553.49987500002,
      "d": 124.99987499999406,
      "v": 105
    },
    {
      "midi": 23,
      "hit": false,
      "t": 71571.35699999976,
      "d": 214.28549999999814,
      "v": 127
    },
    {
      "midi": 35,
      "hit": false,
      "t": 71571.35699999993,
      "d": 196.42837500000314,
      "v": 65
    },
    {
      "midi": 78,
      "hit": false,
      "t": 71776.71393750001,
      "d": 459.8209687500057,
      "v": 105
    },
    {
      "midi": 35,
      "hit": false,
      "t": 71785.64249999975,
      "d": 80.3570624999993,
      "v": 110
    },
    {
      "midi": 47,
      "hit": false,
      "t": 71785.64249999993,
      "d": 223.2140625000029,
      "v": 65
    },
    {
      "midi": 78,
      "hit": false,
      "t": 71785.6425,
      "d": 191.96409374999348,
      "v": 60
    },
    {
      "midi": 35,
      "hit": false,
      "t": 71892.78524999975,
      "d": 84.82134374999441,
      "v": 110
    },
    {
      "midi": 23,
      "hit": false,
      "t": 71999.92799999975,
      "d": 214.28549999999814,
      "v": 127
    },
    {
      "midi": 35,
      "hit": false,
      "t": 71999.92799999993,
      "d": 183.03553125000326,
      "v": 65
    },
    {
      "midi": 35,
      "hit": false,
      "t": 72214.21349999975,
      "d": 80.3570624999993,
      "v": 110
    },
    {
      "midi": 47,
      "hit": false,
      "t": 72214.21349999993,
      "d": 218.74978124999325,
      "v": 65
    },
    {
      "midi": 78,
      "hit": false,
      "t": 72214.2135,
      "d": 187.49981249999837,
      "v": 60
    },
    {
      "midi": 79,
      "hit": false,
      "t": 72214.21350000001,
      "d": 214.28549999999814,
      "v": 105
    },
    {
      "midi": 35,
      "hit": false,
      "t": 72321.35624999975,
      "d": 80.3570624999993,
      "v": 110
    },
    {
      "midi": 23,
      "hit": false,
      "t": 72428.49899999975,
      "d": 214.28549999999814,
      "v": 127
    },
    {
      "midi": 35,
      "hit": false,
      "t": 72428.49899999992,
      "d": 196.4283749999886,
      "v": 65
    },
    {
      "midi": 78,
      "hit": false,
      "t": 72432.96328125,
      "d": 200.89265624999825,
      "v": 105
    },
    {
      "midi": 35,
      "hit": false,
      "t": 72642.78449999975,
      "d": 80.3570624999993,
      "v": 110
    },
    {
      "midi": 47,
      "hit": false,
      "t": 72642.7844999999,
      "d": 214.28549999999814,
      "v": 65
    },
    {
      "midi": 78,
      "hit": false,
      "t": 72642.7845,
      "d": 191.96409374999348,
      "v": 60
    },
    {
      "midi": 76,
      "hit": false,
      "t": 72642.78450000001,
      "d": 415.1781562499964,
      "v": 105
    },
    {
      "midi": 35,
      "hit": false,
      "t": 72749.92724999975,
      "d": 84.82134374999441,
      "v": 110
    },
    {
      "midi": 23,
      "hit": false,
      "t": 72857.06999999975,
      "d": 214.28549999999814,
      "v": 127
    },
    {
      "midi": 35,
      "hit": false,
      "t": 72857.0699999999,
      "d": 191.96409374999348,
      "v": 65
    },
    {
      "midi": 35,
      "hit": false,
      "t": 73071.35549999974,
      "d": 80.3570624999993,
      "v": 110
    },
    {
      "midi": 47,
      "hit": false,
      "t": 73071.3554999999,
      "d": 218.74978124999325,
      "v": 65
    },
    {
      "midi": 78,
      "hit": false,
      "t": 73071.35549999999,
      "d": 200.89265624999825,
      "v": 60
    },
    {
      "midi": 74,
      "hit": false,
      "t": 73071.3555,
      "d": 379.4639062500064,
      "v": 105
    },
    {
      "midi": 35,
      "hit": false,
      "t": 73178.49824999974,
      "d": 80.3570624999993,
      "v": 110
    },
    {
      "midi": 23,
      "hit": false,
      "t": 73285.64099999974,
      "d": 214.28549999999814,
      "v": 127
    },
    {
      "midi": 35,
      "hit": false,
      "t": 73285.6409999999,
      "d": 196.4283749999886,
      "v": 65
    },
    {
      "midi": 78,
      "hit": false,
      "t": 73490.99793750001,
      "d": 513.3923437500052,
      "v": 105
    },
    {
      "midi": 35,
      "hit": false,
      "t": 73499.92649999974,
      "d": 80.3570624999993,
      "v": 110
    },
    {
      "midi": 47,
      "hit": false,
      "t": 73499.92649999988,
      "d": 236.6069062500028,
      "v": 65
    },
    {
      "midi": 78,
      "hit": false,
      "t": 73499.92649999999,
      "d": 183.03553125000326,
      "v": 60
    },
    {
      "midi": 35,
      "hit": false,
      "t": 73607.06924999974,
      "d": 84.82134374999441,
      "v": 110
    },
    {
      "midi": 23,
      "hit": false,
      "t": 73714.21199999974,
      "d": 214.28549999999814,
      "v": 127
    },
    {
      "midi": 35,
      "hit": false,
      "t": 73714.21199999988,
      "d": 196.42837500000314,
      "v": 65
    },
    {
      "midi": 35,
      "hit": false,
      "t": 73928.49749999974,
      "d": 80.3570624999993,
      "v": 110
    },
    {
      "midi": 47,
      "hit": false,
      "t": 73928.49749999988,
      "d": 214.28549999999814,
      "v": 65
    },
    {
      "midi": 78,
      "hit": false,
      "t": 73928.49749999998,
      "d": 191.96409374999348,
      "v": 60
    },
    {
      "midi": 35,
      "hit": false,
      "t": 74035.64024999973,
      "d": 80.3570624999993,
      "v": 110
    },
    {
      "midi": 23,
      "hit": false,
      "t": 74142.78299999973,
      "d": 214.28549999999814,
      "v": 127
    },
    {
      "midi": 35,
      "hit": false,
      "t": 74142.78299999988,
      "d": 178.5712499999936,
      "v": 65
    },
    {
      "midi": 35,
      "hit": false,
      "t": 74357.06849999973,
      "d": 80.3570624999993,
      "v": 110
    },
    {
      "midi": 47,
      "hit": false,
      "t": 74357.06849999988,
      "d": 218.74978124999325,
      "v": 65
    },
    {
      "midi": 78,
      "hit": false,
      "t": 74357.06849999998,
      "d": 191.96409374999348,
      "v": 60
    },
    {
      "midi": 35,
      "hit": false,
      "t": 74464.21124999973,
      "d": 84.82134374999441,
      "v": 110
    },
    {
      "midi": 78,
      "hit": false,
      "t": 74562.42543750002,
      "d": 120.53559374999895,
      "v": 105
    },
    {
      "midi": 23,
      "hit": false,
      "t": 74571.35399999973,
      "d": 214.28549999999814,
      "v": 127
    },
    {
      "midi": 35,
      "hit": false,
      "t": 74571.35399999988,
      "d": 205.35693749999336,
      "v": 65
    },
    {
      "midi": 35,
      "hit": false,
      "t": 74785.63949999973,
      "d": 80.3570624999993,
      "v": 110
    },
    {
      "midi": 47,
      "hit": false,
      "t": 74785.63949999987,
      "d": 214.28549999999814,
      "v": 65
    },
    {
      "midi": 78,
      "hit": false,
      "t": 74785.63949999998,
      "d": 223.2140625000029,
      "v": 60
    },
    {
      "midi": 78,
      "hit": false,
      "t": 74785.63950000002,
      "d": 285.7140000000072,
      "v": 105
    },
    {
      "midi": 35,
      "hit": false,
      "t": 74892.78224999973,
      "d": 80.3570624999993,
      "v": 110
    },
    {
      "midi": 23,
      "hit": false,
      "t": 74999.92499999973,
      "d": 214.28549999999814,
      "v": 127
    },
    {
      "midi": 35,
      "hit": false,
      "t": 74999.92499999987,
      "d": 187.49981249999837,
      "v": 65
    },
    {
      "midi": 78,
      "hit": false,
      "t": 75205.28193750003,
      "d": 437.49956250000105,
      "v": 105
    },
    {
      "midi": 35,
      "hit": false,
      "t": 75214.21049999972,
      "d": 80.3570624999993,
      "v": 110
    },
    {
      "midi": 47,
      "hit": false,
      "t": 75214.21049999987,
      "d": 178.5712499999936,
      "v": 65
    },
    {
      "midi": 78,
      "hit": false,
      "t": 75214.21049999997,
      "d": 200.89265624999825,
      "v": 60
    },
    {
      "midi": 35,
      "hit": false,
      "t": 75321.35324999972,
      "d": 84.82134374999441,
      "v": 110
    },
    {
      "midi": 55,
      "hit": false,
      "t": 75361.53178125006,
      "d": 1741.0696874999994,
      "v": 35
    },
    {
      "midi": 31,
      "hit": false,
      "t": 75428.49599999972,
      "d": 214.28549999999814,
      "v": 127
    },
    {
      "midi": 31,
      "hit": false,
      "t": 75428.49599999987,
      "d": 205.35693749999336,
      "v": 65
    },
    {
      "midi": 43,
      "hit": false,
      "t": 75642.78149999972,
      "d": 80.3570624999993,
      "v": 110
    },
    {
      "midi": 43,
      "hit": false,
      "t": 75642.78149999987,
      "d": 232.14262499999313,
      "v": 65
    },
    {
      "midi": 78,
      "hit": false,
      "t": 75642.78149999997,
      "d": 191.96409374999348,
      "v": 60
    },
    {
      "midi": 79,
      "hit": false,
      "t": 75642.78150000003,
      "d": 218.74978124999325,
      "v": 105
    },
    {
      "midi": 43,
      "hit": false,
      "t": 75749.92424999972,
      "d": 80.3570624999993,
      "v": 110
    },
    {
      "midi": 31,
      "hit": false,
      "t": 75857.06699999972,
      "d": 214.28549999999814,
      "v": 127
    },
    {
      "midi": 31,
      "hit": false,
      "t": 75857.06699999986,
      "d": 196.4283749999886,
      "v": 65
    },
    {
      "midi": 78,
      "hit": false,
      "t": 75857.06700000002,
      "d": 174.1069687499985,
      "v": 105
    },
    {
      "midi": 43,
      "hit": false,
      "t": 76071.35249999972,
      "d": 80.3570624999993,
      "v": 110
    },
    {
      "midi": 43,
      "hit": false,
      "t": 76071.35249999985,
      "d": 209.82121875000303,
      "v": 65
    },
    {
      "midi": 78,
      "hit": false,
      "t": 76071.35249999996,
      "d": 187.49981249999837,
      "v": 60
    },
    {
      "midi": 76,
      "hit": false,
      "t": 76093.67390625003,
      "d": 357.14250000000175,
      "v": 105
    },
    {
      "midi": 43,
      "hit": false,
      "t": 76178.49524999972,
      "d": 84.82134374999441,
      "v": 110
    },
    {
      "midi": 31,
      "hit": false,
      "t": 76285.63799999972,
      "d": 214.28549999999814,
      "v": 127
    },
    {
      "midi": 31,
      "hit": false,
      "t": 76285.63799999985,
      "d": 196.42837500000314,
      "v": 65
    },
    {
      "midi": 43,
      "hit": false,
      "t": 76499.92349999971,
      "d": 80.3570624999993,
      "v": 110
    },
    {
      "midi": 43,
      "hit": false,
      "t": 76499.92349999984,
      "d": 241.0711874999979,
      "v": 65
    },
    {
      "midi": 78,
      "hit": false,
      "t": 76499.92349999996,
      "d": 187.49981249999837,
      "v": 60
    },
    {
      "midi": 78,
      "hit": false,
      "t": 76504.38778125003,
      "d": 330.356812500002,
      "v": 105
    },
    {
      "midi": 43,
      "hit": false,
      "t": 76607.06624999971,
      "d": 80.3570624999993,
      "v": 110
    },
    {
      "midi": 31,
      "hit": false,
      "t": 76714.20899999971,
      "d": 214.28549999999814,
      "v": 127
    },
    {
      "midi": 31,
      "hit": false,
      "t": 76714.20899999984,
      "d": 205.35693749999336,
      "v": 65
    },
    {
      "midi": 76,
      "hit": false,
      "t": 76910.63737500003,
      "d": 660.713625000004,
      "v": 105
    },
    {
      "midi": 43,
      "hit": false,
      "t": 76928.49449999971,
      "d": 80.3570624999993,
      "v": 110
    },
    {
      "midi": 43,
      "hit": false,
      "t": 76928.49449999984,
      "d": 209.82121875000303,
      "v": 65
    },
    {
      "midi": 78,
      "hit": false,
      "t": 76928.49449999996,
      "d": 187.49981249999837,
      "v": 60
    },
    {
      "midi": 43,
      "hit": false,
      "t": 77035.63724999971,
      "d": 84.82134374999441,
      "v": 110
    },
    {
      "midi": 64,
      "hit": false,
      "t": 77084.74434375006,
      "d": 6915.171656250008,
      "v": 35
    },
    {
      "midi": 57,
      "hit": false,
      "t": 77089.20862500006,
      "d": 1763.3910937500186,
      "v": 35
    },
    {
      "midi": 61,
      "hit": false,
      "t": 77093.67290625005,
      "d": 1736.6054062500189,
      "v": 35
    },
    {
      "midi": 33,
      "hit": false,
      "t": 77142.77999999971,
      "d": 214.28549999999814,
      "v": 127
    },
    {
      "midi": 33,
      "hit": false,
      "t": 77142.77999999984,
      "d": 214.28549999999814,
      "v": 65
    },
    {
      "midi": 45,
      "hit": false,
      "t": 77357.0654999997,
      "d": 80.3570624999993,
      "v": 110
    },
    {
      "midi": 45,
      "hit": false,
      "t": 77357.06549999984,
      "d": 232.14262499999313,
      "v": 65
    },
    {
      "midi": 76,
      "hit": false,
      "t": 77357.06549999995,
      "d": 191.96409374999348,
      "v": 60
    },
    {
      "midi": 45,
      "hit": false,
      "t": 77464.2082499997,
      "d": 80.3570624999993,
      "v": 110
    },
    {
      "midi": 33,
      "hit": false,
      "t": 77571.3509999997,
      "d": 214.28549999999814,
      "v": 127
    },
    {
      "midi": 33,
      "hit": false,
      "t": 77571.35099999984,
      "d": 218.74978124999325,
      "v": 65
    },
    {
      "midi": 45,
      "hit": false,
      "t": 77785.6364999997,
      "d": 80.3570624999993,
      "v": 110
    },
    {
      "midi": 45,
      "hit": false,
      "t": 77785.63649999983,
      "d": 236.6069062500028,
      "v": 65
    },
    {
      "midi": 76,
      "hit": false,
      "t": 77785.63649999995,
      "d": 209.82121875000303,
      "v": 60
    },
    {
      "midi": 45,
      "hit": false,
      "t": 77892.7792499997,
      "d": 84.82134374999441,
      "v": 110
    },
    {
      "midi": 76,
      "hit": false,
      "t": 77995.45771875004,
      "d": 227.67834374999802,
      "v": 105
    },
    {
      "midi": 33,
      "hit": false,
      "t": 77999.9219999997,
      "d": 214.28549999999814,
      "v": 127
    },
    {
      "midi": 33,
      "hit": false,
      "t": 77999.92199999983,
      "d": 200.89265624999825,
      "v": 65
    },
    {
      "midi": 45,
      "hit": false,
      "t": 78214.2074999997,
      "d": 80.3570624999993,
      "v": 110
    },
    {
      "midi": 45,
      "hit": false,
      "t": 78214.20749999983,
      "d": 209.82121875000303,
      "v": 65
    },
    {
      "midi": 76,
      "hit": false,
      "t": 78214.20749999995,
      "d": 200.89265624999825,
      "v": 60
    },
    {
      "midi": 78,
      "hit": false,
      "t": 78214.20750000003,
      "d": 209.82121875000303,
      "v": 105
    },
    {
      "midi": 45,
      "hit": false,
      "t": 78321.3502499997,
      "d": 80.3570624999993,
      "v": 110
    },
    {
      "midi": 33,
      "hit": false,
      "t": 78428.4929999997,
      "d": 214.28549999999814,
      "v": 127
    },
    {
      "midi": 33,
      "hit": false,
      "t": 78428.49299999983,
      "d": 187.49981249999837,
      "v": 65
    },
    {
      "midi": 79,
      "hit": false,
      "t": 78437.42156250004,
      "d": 169.64268750000338,
      "v": 105
    },
    {
      "midi": 45,
      "hit": false,
      "t": 78642.7784999997,
      "d": 80.3570624999993,
      "v": 110
    },
    {
      "midi": 45,
      "hit": false,
      "t": 78642.77849999983,
      "d": 209.82121875000303,
      "v": 65
    },
    {
      "midi": 76,
      "hit": false,
      "t": 78642.77849999994,
      "d": 165.1784062499937,
      "v": 60
    },
    {
      "midi": 81,
      "hit": false,
      "t": 78656.17134375004,
      "d": 531.2494687500002,
      "v": 105
    },
    {
      "midi": 45,
      "hit": false,
      "t": 78749.9212499997,
      "d": 84.82134374999441,
      "v": 110
    },
    {
      "midi": 55,
      "hit": false,
      "t": 78790.09978125007,
      "d": 1772.3196562499943,
      "v": 35
    },
    {
      "midi": 52,
      "hit": false,
      "t": 78799.02834375008,
      "d": 1758.9268124999944,
      "v": 35
    },
    {
      "midi": 59,
      "hit": false,
      "t": 78816.88546875007,
      "d": 1758.9268124999944,
      "v": 35
    },
    {
      "midi": 28,
      "hit": false,
      "t": 78857.0639999997,
      "d": 214.28549999999814,
      "v": 127
    },
    {
      "midi": 28,
      "hit": false,
      "t": 78857.06399999982,
      "d": 227.67834374999802,
      "v": 65
    },
    {
      "midi": 40,
      "hit": false,
      "t": 79071.34949999969,
      "d": 80.3570624999993,
      "v": 110
    },
    {
      "midi": 40,
      "hit": false,
      "t": 79071.34949999982,
      "d": 214.28549999999814,
      "v": 65
    },
    {
      "midi": 76,
      "hit": false,
      "t": 79071.34949999994,
      "d": 205.35693749999336,
      "v": 60
    },
    {
      "midi": 40,
      "hit": false,
      "t": 79178.49224999969,
      "d": 80.3570624999993,
      "v": 110
    },
    {
      "midi": 28,
      "hit": false,
      "t": 79285.63499999969,
      "d": 214.28549999999814,
      "v": 127
    },
    {
      "midi": 28,
      "hit": false,
      "t": 79285.63499999982,
      "d": 200.89265624999825,
      "v": 65
    },
    {
      "midi": 40,
      "hit": false,
      "t": 79499.92049999969,
      "d": 80.3570624999993,
      "v": 110
    },
    {
      "midi": 40,
      "hit": false,
      "t": 79499.92049999982,
      "d": 223.2140625000029,
      "v": 65
    },
    {
      "midi": 76,
      "hit": false,
      "t": 79499.92049999993,
      "d": 205.35693749999336,
      "v": 60
    },
    {
      "midi": 40,
      "hit": false,
      "t": 79607.06324999969,
      "d": 84.82134374999441,
      "v": 110
    },
    {
      "midi": 81,
      "hit": false,
      "t": 79696.34887500004,
      "d": 200.89265624999825,
      "v": 105
    },
    {
      "midi": 28,
      "hit": false,
      "t": 79714.20599999969,
      "d": 214.28549999999814,
      "v": 127
    },
    {
      "midi": 28,
      "hit": false,
      "t": 79714.20599999982,
      "d": 200.89265624999825,
      "v": 65
    },
    {
      "midi": 79,
      "hit": false,
      "t": 79915.09865625003,
      "d": 218.7497812500078,
      "v": 105
    },
    {
      "midi": 40,
      "hit": false,
      "t": 79928.49149999968,
      "d": 80.3570624999993,
      "v": 110
    },
    {
      "midi": 40,
      "hit": false,
      "t": 79928.49149999981,
      "d": 223.2140625000029,
      "v": 65
    },
    {
      "midi": 76,
      "hit": false,
      "t": 79928.49149999993,
      "d": 205.35693749999336,
      "v": 60
    },
    {
      "midi": 40,
      "hit": false,
      "t": 80035.63424999968,
      "d": 80.3570624999993,
      "v": 110
    },
    {
      "midi": 78,
      "hit": false,
      "t": 80124.91987500004,
      "d": 120.53559374999895,
      "v": 105
    },
    {
      "midi": 28,
      "hit": false,
      "t": 80142.77699999968,
      "d": 214.28549999999814,
      "v": 127
    },
    {
      "midi": 28,
      "hit": false,
      "t": 80142.77699999981,
      "d": 174.1069687499985,
      "v": 65
    },
    {
      "midi": 78,
      "hit": false,
      "t": 80348.13393750004,
      "d": 410.7138750000013,
      "v": 105
    },
    {
      "midi": 40,
      "hit": false,
      "t": 80357.06249999968,
      "d": 80.3570624999993,
      "v": 110
    },
    {
      "midi": 40,
      "hit": false,
      "t": 80357.06249999981,
      "d": 205.35693749999336,
      "v": 65
    },
    {
      "midi": 76,
      "hit": false,
      "t": 80357.06249999993,
      "d": 209.82121875000303,
      "v": 60
    },
    {
      "midi": 40,
      "hit": false,
      "t": 80464.20524999968,
      "d": 84.82134374999441,
      "v": 110
    },
    {
      "midi": 57,
      "hit": false,
      "t": 80517.77662500007,
      "d": 1785.7124999999942,
      "v": 35
    },
    {
      "midi": 61,
      "hit": false,
      "t": 80522.24090625007,
      "d": 3477.6750937500037,
      "v": 35
    },
    {
      "midi": 33,
      "hit": false,
      "t": 80571.34799999968,
      "d": 214.28549999999814,
      "v": 127
    },
    {
      "midi": 33,
      "hit": false,
      "t": 80571.34799999981,
      "d": 245.53546874999302,
      "v": 65
    },
    {
      "midi": 76,
      "hit": false,
      "t": 80767.77637500004,
      "d": 334.8210937499971,
      "v": 105
    },
    {
      "midi": 45,
      "hit": false,
      "t": 80785.63349999968,
      "d": 80.3570624999993,
      "v": 110
    },
    {
      "midi": 45,
      "hit": false,
      "t": 80785.6334999998,
      "d": 236.6069062500028,
      "v": 65
    },
    {
      "midi": 76,
      "hit": false,
      "t": 80785.63349999992,
      "d": 205.35693749999336,
      "v": 60
    },
    {
      "midi": 45,
      "hit": false,
      "t": 80892.77624999968,
      "d": 80.3570624999993,
      "v": 110
    },
    {
      "midi": 33,
      "hit": false,
      "t": 80999.91899999967,
      "d": 214.28549999999814,
      "v": 127
    },
    {
      "midi": 33,
      "hit": false,
      "t": 80999.9189999998,
      "d": 205.35693750000792,
      "v": 65
    },
    {
      "midi": 45,
      "hit": false,
      "t": 81214.20449999967,
      "d": 80.3570624999993,
      "v": 110
    },
    {
      "midi": 45,
      "hit": false,
      "t": 81214.20449999982,
      "d": 191.96409374999348,
      "v": 65
    },
    {
      "midi": 76,
      "hit": false,
      "t": 81214.20449999992,
      "d": 200.89265624999825,
      "v": 60
    },
    {
      "midi": 45,
      "hit": false,
      "t": 81321.34724999967,
      "d": 84.82134374999441,
      "v": 110
    },
    {
      "midi": 76,
      "hit": false,
      "t": 81419.56143750004,
      "d": 218.7497812500078,
      "v": 105
    },
    {
      "midi": 33,
      "hit": false,
      "t": 81428.48999999967,
      "d": 214.28549999999814,
      "v": 127
    },
    {
      "midi": 33,
      "hit": false,
      "t": 81428.48999999982,
      "d": 196.42837500000314,
      "v": 65
    },
    {
      "midi": 78,
      "hit": false,
      "t": 81629.38265625005,
      "d": 196.42837500000314,
      "v": 105
    },
    {
      "midi": 45,
      "hit": false,
      "t": 81642.77549999967,
      "d": 80.3570624999993,
      "v": 110
    },
    {
      "midi": 45,
      "hit": false,
      "t": 81642.77549999981,
      "d": 232.14262499999313,
      "v": 65
    },
    {
      "midi": 76,
      "hit": false,
      "t": 81642.77549999992,
      "d": 191.96409374999348,
      "v": 60
    },
    {
      "midi": 45,
      "hit": false,
      "t": 81749.91824999967,
      "d": 80.3570624999993,
      "v": 110
    },
    {
      "midi": 79,
      "hit": false,
      "t": 81834.73959375006,
      "d": 200.89265624999825,
      "v": 105
    },
    {
      "midi": 33,
      "hit": false,
      "t": 81857.06099999967,
      "d": 214.28549999999814,
      "v": 127
    },
    {
      "midi": 33,
      "hit": false,
      "t": 81857.06099999981,
      "d": 196.4283749999886,
      "v": 65
    },
    {
      "midi": 81,
      "hit": false,
      "t": 82062.41793750005,
      "d": 464.2852500000008,
      "v": 105
    },
    {
      "midi": 45,
      "hit": false,
      "t": 82071.34649999966,
      "d": 80.3570624999993,
      "v": 110
    },
    {
      "midi": 45,
      "hit": false,
      "t": 82071.3464999998,
      "d": 200.89265624999825,
      "v": 65
    },
    {
      "midi": 76,
      "hit": false,
      "t": 82071.34649999991,
      "d": 187.49981249999837,
      "v": 60
    },
    {
      "midi": 45,
      "hit": false,
      "t": 82178.48924999966,
      "d": 84.82134374999441,
      "v": 110
    },
    {
      "midi": 54,
      "hit": false,
      "t": 82227.59634375006,
      "d": 1772.3196562500088,
      "v": 35
    },
    {
      "midi": 58,
      "hit": false,
      "t": 82249.91775000007,
      "d": 1749.9982500000042,
      "v": 35
    },
    {
      "midi": 30,
      "hit": false,
      "t": 82285.63199999966,
      "d": 214.28549999999814,
      "v": 127
    },
    {
      "midi": 30,
      "hit": false,
      "t": 82285.6319999998,
      "d": 232.14262499999313,
      "v": 65
    },
    {
      "midi": 42,
      "hit": false,
      "t": 82499.91749999966,
      "d": 80.3570624999993,
      "v": 110
    },
    {
      "midi": 42,
      "hit": false,
      "t": 82499.91749999979,
      "d": 223.2140625000029,
      "v": 65
    },
    {
      "midi": 76,
      "hit": false,
      "t": 82499.91749999991,
      "d": 187.49981249999837,
      "v": 60
    },
    {
      "midi": 79,
      "hit": false,
      "t": 82504.38178125005,
      "d": 111.60703125000873,
      "v": 105
    },
    {
      "midi": 42,
      "hit": false,
      "t": 82607.06024999966,
      "d": 80.3570624999993,
      "v": 110
    },
    {
      "midi": 79,
      "hit": false,
      "t": 82696.34587500006,
      "d": 124.99987499999406,
      "v": 105
    },
    {
      "midi": 30,
      "hit": false,
      "t": 82714.20299999966,
      "d": 214.28549999999814,
      "v": 127
    },
    {
      "midi": 30,
      "hit": false,
      "t": 82714.20299999979,
      "d": 209.82121875000303,
      "v": 65
    },
    {
      "midi": 78,
      "hit": false,
      "t": 82919.55993750005,
      "d": 437.49956250000105,
      "v": 105
    },
    {
      "midi": 42,
      "hit": false,
      "t": 82928.48849999966,
      "d": 80.3570624999993,
      "v": 110
    },
    {
      "midi": 42,
      "hit": false,
      "t": 82928.48849999979,
      "d": 223.2140625000029,
      "v": 65
    },
    {
      "midi": 76,
      "hit": false,
      "t": 82928.4884999999,
      "d": 178.5712499999936,
      "v": 60
    },
    {
      "midi": 42,
      "hit": false,
      "t": 83035.63124999966,
      "d": 84.82134374999441,
      "v": 110
    },
    {
      "midi": 30,
      "hit": false,
      "t": 83142.77399999966,
      "d": 214.28549999999814,
      "v": 127
    },
    {
      "midi": 30,
      "hit": false,
      "t": 83142.77399999979,
      "d": 200.89265624999825,
      "v": 65
    },
    {
      "midi": 42,
      "hit": false,
      "t": 83357.05949999965,
      "d": 80.3570624999993,
      "v": 110
    },
    {
      "midi": 42,
      "hit": false,
      "t": 83357.05949999978,
      "d": 249.99975000000268,
      "v": 65
    },
    {
      "midi": 76,
      "hit": false,
      "t": 83357.0594999999,
      "d": 187.49981249999837,
      "v": 60
    },
    {
      "midi": 79,
      "hit": false,
      "t": 83357.05950000005,
      "d": 294.64256249999744,
      "v": 105
    },
    {
      "midi": 42,
      "hit": false,
      "t": 83464.20224999965,
      "d": 80.3570624999993,
      "v": 110
    },
    {
      "midi": 30,
      "hit": false,
      "t": 83571.34499999965,
      "d": 214.28549999999814,
      "v": 127
    },
    {
      "midi": 30,
      "hit": false,
      "t": 83571.34499999978,
      "d": 223.2140625000029,
      "v": 65
    },
    {
      "midi": 76,
      "hit": false,
      "t": 83678.48775000004,
      "d": 245.53546874999302,
      "v": 105
    },
    {
      "midi": 42,
      "hit": false,
      "t": 83785.63049999965,
      "d": 80.3570624999993,
      "v": 110
    },
    {
      "midi": 42,
      "hit": false,
      "t": 83785.63049999978,
      "d": 218.7497812500078,
      "v": 65
    },
    {
      "midi": 76,
      "hit": false,
      "t": 83785.6304999999,
      "d": 178.5712499999936,
      "v": 60
    },
    {
      "midi": 42,
      "hit": false,
      "t": 83892.77324999965,
      "d": 84.82134374999441,
      "v": 110
    },
    {
      "midi": 78,
      "hit": false,
      "t": 83995.45171875003,
      "d": 473.2138125000056,
      "v": 105
    },
    {
      "midi": 60,
      "hit": false,
      "t": 83999.91600000001,
      "d": 1718.7482812499948,
      "v": 60
    },
    {
      "midi": 81,
      "hit": false,
      "t": 84888.30796875004,
      "d": 245.53546874999302,
      "v": 105
    },
    {
      "midi": 83,
      "hit": false,
      "t": 85138.30771875003,
      "d": 415.1781562499964,
      "v": 105
    },
    {
      "midi": 78,
      "hit": false,
      "t": 85562.41443750003,
      "d": 638.3922187499993,
      "v": 105
    },
    {
      "midi": 23,
      "hit": false,
      "t": 85714.19999999965,
      "d": 214.28549999999814,
      "v": 127
    },
    {
      "midi": 74,
      "hit": false,
      "t": 85714.20000000001,
      "d": 98.2141874999943,
      "v": 127
    },
    {
      "midi": 86,
      "hit": false,
      "t": 85714.20000000001,
      "d": 852.6777187499974,
      "v": 127
    },
    {
      "midi": 59,
      "hit": false,
      "t": 85714.20000000007,
      "d": 834.8205937499879,
      "v": 50
    },
    {
      "midi": 47,
      "hit": false,
      "t": 85714.20000000007,
      "d": 866.0705624999828,
      "v": 50
    },
    {
      "midi": 62,
      "hit": false,
      "t": 85714.20000000007,
      "d": 879.4634062499827,
      "v": 50
    },
    {
      "midi": 54,
      "hit": false,
      "t": 85714.20000000007,
      "d": 1428.5699999999779,
      "v": 50
    },
    {
      "midi": 35,
      "hit": false,
      "t": 85928.48549999965,
      "d": 80.3570624999993,
      "v": 110
    },
    {
      "midi": 73,
      "hit": false,
      "t": 85928.48550000001,
      "d": 84.82134374999441,
      "v": 127
    },
    {
      "midi": 35,
      "hit": false,
      "t": 86035.62824999965,
      "d": 80.3570624999993,
      "v": 110
    },
    {
      "midi": 23,
      "hit": false,
      "t": 86142.77099999964,
      "d": 214.28549999999814,
      "v": 127
    },
    {
      "midi": 74,
      "hit": false,
      "t": 86142.77100000001,
      "d": 93.74990624999919,
      "v": 127
    },
    {
      "midi": 35,
      "hit": false,
      "t": 86357.05649999964,
      "d": 80.3570624999993,
      "v": 110
    },
    {
      "midi": 71,
      "hit": false,
      "t": 86357.0565,
      "d": 98.2141874999943,
      "v": 127
    },
    {
      "midi": 35,
      "hit": false,
      "t": 86464.19924999964,
      "d": 84.82134374999441,
      "v": 110
    },
    {
      "midi": 61,
      "hit": false,
      "t": 86522.23490625007,
      "d": 656.2493437499797,
      "v": 50
    },
    {
      "midi": 57,
      "hit": false,
      "t": 86540.09203125007,
      "d": 616.0708124999801,
      "v": 50
    },
    {
      "midi": 42,
      "hit": false,
      "t": 86544.55631250006,
      "d": 633.9279374999896,
      "v": 50
    },
    {
      "midi": 30,
      "hit": false,
      "t": 86571.34199999964,
      "d": 214.28549999999814,
      "v": 127
    },
    {
      "midi": 74,
      "hit": false,
      "t": 86571.342,
      "d": 98.2141874999943,
      "v": 127
    },
    {
      "midi": 85,
      "hit": false,
      "t": 86571.342,
      "d": 870.534843750007,
      "v": 127
    },
    {
      "midi": 42,
      "hit": false,
      "t": 86785.62749999964,
      "d": 66.96421874999942,
      "v": 110
    },
    {
      "midi": 73,
      "hit": false,
      "t": 86785.6275,
      "d": 89.28562500000407,
      "v": 127
    },
    {
      "midi": 42,
      "hit": false,
      "t": 86892.77024999964,
      "d": 93.74990624999919,
      "v": 110
    },
    {
      "midi": 30,
      "hit": false,
      "t": 86999.91299999964,
      "d": 214.28549999999814,
      "v": 127
    },
    {
      "midi": 74,
      "hit": false,
      "t": 86999.913,
      "d": 93.74990624999919,
      "v": 127
    },
    {
      "midi": 55,
      "hit": false,
      "t": 87120.44859375006,
      "d": 2022.3194062499824,
      "v": 50
    },
    {
      "midi": 59,
      "hit": false,
      "t": 87120.44859375006,
      "d": 2879.461406249975,
      "v": 50
    },
    {
      "midi": 62,
      "hit": false,
      "t": 87124.91287500005,
      "d": 2874.99712499998,
      "v": 50
    },
    {
      "midi": 43,
      "hit": false,
      "t": 87151.69856250005,
      "d": 1071.4274999999907,
      "v": 50
    },
    {
      "midi": 42,
      "hit": false,
      "t": 87214.19849999963,
      "d": 66.96421874999942,
      "v": 110
    },
    {
      "midi": 69,
      "hit": false,
      "t": 87214.1985,
      "d": 98.2141874999943,
      "v": 127
    },
    {
      "midi": 42,
      "hit": false,
      "t": 87321.34124999963,
      "d": 75.89278125000419,
      "v": 110
    },
    {
      "midi": 31,
      "hit": false,
      "t": 87428.48399999963,
      "d": 214.28549999999814,
      "v": 127
    },
    {
      "midi": 74,
      "hit": false,
      "t": 87428.484,
      "d": 98.2141874999943,
      "v": 127
    },
    {
      "midi": 83,
      "hit": false,
      "t": 87428.48400000001,
      "d": 857.1420000000071,
      "v": 127
    },
    {
      "midi": 79,
      "hit": false,
      "t": 87629.37665625004,
      "d": 124.99987499999406,
      "v": 105
    },
    {
      "midi": 43,
      "hit": false,
      "t": 87642.76949999963,
      "d": 80.3570624999993,
      "v": 110
    },
    {
      "midi": 73,
      "hit": false,
      "t": 87642.7695,
      "d": 84.82134374999441,
      "v": 127
    },
    {
      "midi": 43,
      "hit": false,
      "t": 87749.91224999963,
      "d": 80.3570624999993,
      "v": 110
    },
    {
      "midi": 79,
      "hit": false,
      "t": 87848.12643750003,
      "d": 120.53559374999895,
      "v": 105
    },
    {
      "midi": 31,
      "hit": false,
      "t": 87857.05499999963,
      "d": 214.28549999999814,
      "v": 127
    },
    {
      "midi": 74,
      "hit": false,
      "t": 87857.055,
      "d": 93.74990624999919,
      "v": 127
    },
    {
      "midi": 79,
      "hit": false,
      "t": 88040.09053125003,
      "d": 178.5712499999936,
      "v": 105
    },
    {
      "midi": 43,
      "hit": false,
      "t": 88071.34049999963,
      "d": 80.3570624999993,
      "v": 110
    },
    {
      "midi": 71,
      "hit": false,
      "t": 88071.34049999999,
      "d": 93.74990624999919,
      "v": 127
    },
    {
      "midi": 43,
      "hit": false,
      "t": 88178.48324999963,
      "d": 84.82134374999441,
      "v": 110
    },
    {
      "midi": 45,
      "hit": false,
      "t": 88205.26893750005,
      "d": 937.4990624999919,
      "v": 50
    },
    {
      "midi": 78,
      "hit": false,
      "t": 88276.69743750001,
      "d": 415.1781562499964,
      "v": 105
    },
    {
      "midi": 33,
      "hit": false,
      "t": 88285.62599999963,
      "d": 214.28549999999814,
      "v": 127
    },
    {
      "midi": 74,
      "hit": false,
      "t": 88285.62599999999,
      "d": 93.74990624999919,
      "v": 127
    },
    {
      "midi": 88,
      "hit": false,
      "t": 88285.62600000002,
      "d": 883.9276875000069,
      "v": 127
    },
    {
      "midi": 45,
      "hit": false,
      "t": 88499.91149999962,
      "d": 66.96421874999942,
      "v": 110
    },
    {
      "midi": 73,
      "hit": false,
      "t": 88499.91149999999,
      "d": 84.82134374999441,
      "v": 127
    },
    {
      "midi": 45,
      "hit": false,
      "t": 88607.05424999962,
      "d": 93.74990624999919,
      "v": 110
    },
    {
      "midi": 33,
      "hit": false,
      "t": 88714.19699999962,
      "d": 214.28549999999814,
      "v": 127
    },
    {
      "midi": 74,
      "hit": false,
      "t": 88714.19699999999,
      "d": 98.2141874999943,
      "v": 127
    },
    {
      "midi": 76,
      "hit": false,
      "t": 88723.1255625,
      "d": 124.99987499999406,
      "v": 105
    },
    {
      "midi": 45,
      "hit": false,
      "t": 88928.48249999962,
      "d": 66.96421874999942,
      "v": 110
    },
    {
      "midi": 76,
      "hit": false,
      "t": 88928.48249999998,
      "d": 93.74990624999919,
      "v": 127
    },
    {
      "midi": 76,
      "hit": false,
      "t": 88932.94678125,
      "d": 455.35668749999604,
      "v": 105
    },
    {
      "midi": 45,
      "hit": false,
      "t": 89035.62524999962,
      "d": 75.89278125000419,
      "v": 110
    },
    {
      "midi": 23,
      "hit": false,
      "t": 89142.76799999962,
      "d": 214.28549999999814,
      "v": 127
    },
    {
      "midi": 74,
      "hit": false,
      "t": 89142.76799999998,
      "d": 102.67846875000396,
      "v": 127
    },
    {
      "midi": 86,
      "hit": false,
      "t": 89142.76800000003,
      "d": 2540.1760312499973,
      "v": 127
    },
    {
      "midi": 47,
      "hit": false,
      "t": 89142.76800000004,
      "d": 866.0705624999973,
      "v": 50
    },
    {
      "midi": 54,
      "hit": false,
      "t": 89142.76800000004,
      "d": 1428.5699999999924,
      "v": 50
    },
    {
      "midi": 35,
      "hit": false,
      "t": 89357.05349999962,
      "d": 80.3570624999993,
      "v": 110
    },
    {
      "midi": 73,
      "hit": false,
      "t": 89357.05349999998,
      "d": 80.3570624999993,
      "v": 127
    },
    {
      "midi": 74,
      "hit": false,
      "t": 89401.69631249999,
      "d": 566.9637187500048,
      "v": 105
    },
    {
      "midi": 35,
      "hit": false,
      "t": 89464.19624999962,
      "d": 80.3570624999993,
      "v": 110
    },
    {
      "midi": 23,
      "hit": false,
      "t": 89571.33899999961,
      "d": 214.28549999999814,
      "v": 127
    },
    {
      "midi": 74,
      "hit": false,
      "t": 89571.33899999998,
      "d": 93.74990624999919,
      "v": 127
    },
    {
      "midi": 35,
      "hit": false,
      "t": 89785.62449999961,
      "d": 80.3570624999993,
      "v": 110
    },
    {
      "midi": 71,
      "hit": false,
      "t": 89785.62449999998,
      "d": 93.74990624999919,
      "v": 127
    },
    {
      "midi": 35,
      "hit": false,
      "t": 89892.76724999961,
      "d": 84.82134374999441,
      "v": 110
    },
    {
      "midi": 61,
      "hit": false,
      "t": 89950.80290625004,
      "d": 656.2493437499943,
      "v": 50
    },
    {
      "midi": 57,
      "hit": false,
      "t": 89968.66003125004,
      "d": 616.0708124999946,
      "v": 50
    },
    {
      "midi": 42,
      "hit": false,
      "t": 89973.12431250003,
      "d": 633.9279375000042,
      "v": 50
    },
    {
      "midi": 30,
      "hit": false,
      "t": 89999.90999999961,
      "d": 214.28549999999814,
      "v": 127
    },
    {
      "midi": 74,
      "hit": false,
      "t": 89999.90999999997,
      "d": 102.67846875000396,
      "v": 127
    },
    {
      "midi": 42,
      "hit": false,
      "t": 90214.19549999961,
      "d": 66.96421874999942,
      "v": 110
    },
    {
      "midi": 73,
      "hit": false,
      "t": 90214.19549999997,
      "d": 80.3570624999993,
      "v": 127
    },
    {
      "midi": 42,
      "hit": false,
      "t": 90321.33824999961,
      "d": 93.74990624999919,
      "v": 110
    },
    {
      "midi": 30,
      "hit": false,
      "t": 90428.4809999996,
      "d": 214.28549999999814,
      "v": 127
    },
    {
      "midi": 74,
      "hit": false,
      "t": 90428.48099999997,
      "d": 98.2141874999943,
      "v": 127
    },
    {
      "midi": 55,
      "hit": false,
      "t": 90549.01659375004,
      "d": 2022.3194062499824,
      "v": 50
    },
    {
      "midi": 59,
      "hit": false,
      "t": 90549.01659375004,
      "d": 2879.461406249975,
      "v": 50
    },
    {
      "midi": 62,
      "hit": false,
      "t": 90553.48087500004,
      "d": 2874.99712499998,
      "v": 50
    },
    {
      "midi": 43,
      "hit": false,
      "t": 90580.26656250004,
      "d": 1071.4274999999907,
      "v": 50
    },
    {
      "midi": 42,
      "hit": false,
      "t": 90642.7664999996,
      "d": 66.96421874999942,
      "v": 110
    },
    {
      "midi": 69,
      "hit": false,
      "t": 90642.76649999997,
      "d": 93.74990624999919,
      "v": 127
    },
    {
      "midi": 42,
      "hit": false,
      "t": 90749.9092499996,
      "d": 75.89278125000419,
      "v": 110
    },
    {
      "midi": 31,
      "hit": false,
      "t": 90857.0519999996,
      "d": 214.28549999999814,
      "v": 127
    },
    {
      "midi": 74,
      "hit": false,
      "t": 90857.05199999997,
      "d": 98.2141874999943,
      "v": 127
    },
    {
      "midi": 79,
      "hit": false,
      "t": 91057.94465625,
      "d": 107.14274999999907,
      "v": 105
    },
    {
      "midi": 43,
      "hit": false,
      "t": 91071.3374999996,
      "d": 80.3570624999993,
      "v": 110
    },
    {
      "midi": 73,
      "hit": false,
      "t": 91071.33749999997,
      "d": 66.96421874999942,
      "v": 127
    },
    {
      "midi": 43,
      "hit": false,
      "t": 91178.4802499996,
      "d": 80.3570624999993,
      "v": 110
    },
    {
      "midi": 79,
      "hit": false,
      "t": 91281.15871875,
      "d": 107.14274999999907,
      "v": 105
    },
    {
      "midi": 31,
      "hit": false,
      "t": 91285.6229999996,
      "d": 214.28549999999814,
      "v": 127
    },
    {
      "midi": 74,
      "hit": false,
      "t": 91285.62299999996,
      "d": 98.2141874999943,
      "v": 127
    },
    {
      "midi": 79,
      "hit": false,
      "t": 91477.58709375,
      "d": 196.42837500000314,
      "v": 105
    },
    {
      "midi": 43,
      "hit": false,
      "t": 91499.9084999996,
      "d": 80.3570624999993,
      "v": 110
    },
    {
      "midi": 71,
      "hit": false,
      "t": 91499.90849999996,
      "d": 89.28562500000407,
      "v": 127
    },
    {
      "midi": 43,
      "hit": false,
      "t": 91607.0512499996,
      "d": 84.82134374999441,
      "v": 110
    },
    {
      "midi": 45,
      "hit": false,
      "t": 91633.83693750003,
      "d": 937.4990624999919,
      "v": 50
    },
    {
      "midi": 33,
      "hit": false,
      "t": 91714.1939999996,
      "d": 214.28549999999814,
      "v": 127
    },
    {
      "midi": 74,
      "hit": false,
      "t": 91714.19399999996,
      "d": 84.82134374999441,
      "v": 127
    },
    {
      "midi": 78,
      "hit": false,
      "t": 91714.194,
      "d": 374.99962499999674,
      "v": 105
    },
    {
      "midi": 88,
      "hit": false,
      "t": 91714.19400000002,
      "d": 883.9276875000069,
      "v": 127
    },
    {
      "midi": 45,
      "hit": false,
      "t": 91928.4794999996,
      "d": 66.96421874999942,
      "v": 110
    },
    {
      "midi": 73,
      "hit": false,
      "t": 91928.47949999996,
      "d": 75.89278125000419,
      "v": 127
    },
    {
      "midi": 45,
      "hit": false,
      "t": 92035.6222499996,
      "d": 93.74990624999919,
      "v": 110
    },
    {
      "midi": 76,
      "hit": false,
      "t": 92093.65790625,
      "d": 120.53559374999895,
      "v": 105
    },
    {
      "midi": 33,
      "hit": false,
      "t": 92142.76499999959,
      "d": 214.28549999999814,
      "v": 127
    },
    {
      "midi": 74,
      "hit": false,
      "t": 92142.76499999996,
      "d": 102.67846875000396,
      "v": 127
    },
    {
      "midi": 76,
      "hit": false,
      "t": 92316.87196875,
      "d": 441.96384374999616,
      "v": 105
    },
    {
      "midi": 45,
      "hit": false,
      "t": 92357.05049999959,
      "d": 66.96421874999942,
      "v": 110
    },
    {
      "midi": 76,
      "hit": false,
      "t": 92357.05049999995,
      "d": 129.46415625000373,
      "v": 127
    },
    {
      "midi": 45,
      "hit": false,
      "t": 92464.19324999959,
      "d": 75.89278125000419,
      "v": 110
    },
    {
      "midi": 23,
      "hit": false,
      "t": 92571.33599999959,
      "d": 214.28549999999814,
      "v": 127
    },
    {
      "midi": 74,
      "hit": false,
      "t": 92571.33599999995,
      "d": 98.2141874999943,
      "v": 127
    },
    {
      "midi": 47,
      "hit": false,
      "t": 92571.33600000002,
      "d": 866.0705624999973,
      "v": 50
    },
    {
      "midi": 54,
      "hit": false,
      "t": 92571.33600000002,
      "d": 1428.5699999999924,
      "v": 50
    },
    {
      "midi": 86,
      "hit": false,
      "t": 92571.33600000002,
      "d": 852.6777187499974,
      "v": 127
    },
    {
      "midi": 74,
      "hit": false,
      "t": 92767.764375,
      "d": 589.2851249999949,
      "v": 105
    },
    {
      "midi": 35,
      "hit": false,
      "t": 92785.62149999959,
      "d": 80.3570624999993,
      "v": 110
    },
    {
      "midi": 73,
      "hit": false,
      "t": 92785.62149999995,
      "d": 84.82134374999441,
      "v": 127
    },
    {
      "midi": 35,
      "hit": false,
      "t": 92892.76424999959,
      "d": 80.3570624999993,
      "v": 110
    },
    {
      "midi": 23,
      "hit": false,
      "t": 92999.90699999958,
      "d": 214.28549999999814,
      "v": 127
    },
    {
      "midi": 74,
      "hit": false,
      "t": 92999.90699999995,
      "d": 93.74990624999919,
      "v": 127
    },
    {
      "midi": 35,
      "hit": false,
      "t": 93214.19249999958,
      "d": 80.3570624999993,
      "v": 110
    },
    {
      "midi": 71,
      "hit": false,
      "t": 93214.19249999995,
      "d": 98.2141874999943,
      "v": 127
    },
    {
      "midi": 35,
      "hit": false,
      "t": 93321.33524999958,
      "d": 84.82134374999441,
      "v": 110
    },
    {
      "midi": 61,
      "hit": false,
      "t": 93379.37090625003,
      "d": 656.2493437499943,
      "v": 50
    },
    {
      "midi": 57,
      "hit": false,
      "t": 93397.22803125002,
      "d": 616.0708124999946,
      "v": 50
    },
    {
      "midi": 42,
      "hit": false,
      "t": 93401.69231250002,
      "d": 633.9279375000042,
      "v": 50
    },
    {
      "midi": 30,
      "hit": false,
      "t": 93428.47799999958,
      "d": 214.28549999999814,
      "v": 127
    },
    {
      "midi": 74,
      "hit": false,
      "t": 93428.47799999994,
      "d": 98.2141874999943,
      "v": 127
    },
    {
      "midi": 85,
      "hit": false,
      "t": 93428.47800000002,
      "d": 870.534843750007,
      "v": 127
    },
    {
      "midi": 42,
      "hit": false,
      "t": 93642.76349999958,
      "d": 66.96421874999942,
      "v": 110
    },
    {
      "midi": 73,
      "hit": false,
      "t": 93642.76349999994,
      "d": 89.28562500000407,
      "v": 127
    },
    {
      "midi": 42,
      "hit": false,
      "t": 93749.90624999958,
      "d": 93.74990624999919,
      "v": 110
    },
    {
      "midi": 30,
      "hit": false,
      "t": 93857.04899999958,
      "d": 214.28549999999814,
      "v": 127
    },
    {
      "midi": 74,
      "hit": false,
      "t": 93857.04899999994,
      "d": 93.74990624999919,
      "v": 127
    },
    {
      "midi": 55,
      "hit": false,
      "t": 93977.58459375003,
      "d": 2022.3194062499824,
      "v": 50
    },
    {
      "midi": 59,
      "hit": false,
      "t": 93977.58459375003,
      "d": 2879.461406249975,
      "v": 50
    },
    {
      "midi": 62,
      "hit": false,
      "t": 93982.04887500002,
      "d": 2874.99712499998,
      "v": 50
    },
    {
      "midi": 43,
      "hit": false,
      "t": 94008.83456250002,
      "d": 1071.4274999999907,
      "v": 50
    },
    {
      "midi": 42,
      "hit": false,
      "t": 94071.33449999958,
      "d": 66.96421874999942,
      "v": 110
    },
    {
      "midi": 69,
      "hit": false,
      "t": 94071.33449999994,
      "d": 98.2141874999943,
      "v": 127
    },
    {
      "midi": 42,
      "hit": false,
      "t": 94178.47724999957,
      "d": 75.89278125000419,
      "v": 110
    },
    {
      "midi": 31,
      "hit": false,
      "t": 94285.61999999957,
      "d": 214.28549999999814,
      "v": 127
    },
    {
      "midi": 74,
      "hit": false,
      "t": 94285.61999999994,
      "d": 98.2141874999943,
      "v": 127
    },
    {
      "midi": 83,
      "hit": false,
      "t": 94285.62000000002,
      "d": 857.1420000000071,
      "v": 127
    },
    {
      "midi": 79,
      "hit": false,
      "t": 94482.048375,
      "d": 98.2141874999943,
      "v": 105
    },
    {
      "midi": 43,
      "hit": false,
      "t": 94499.90549999957,
      "d": 80.3570624999993,
      "v": 110
    },
    {
      "midi": 73,
      "hit": false,
      "t": 94499.90549999994,
      "d": 84.82134374999441,
      "v": 127
    },
    {
      "midi": 43,
      "hit": false,
      "t": 94607.04824999957,
      "d": 80.3570624999993,
      "v": 110
    },
    {
      "midi": 79,
      "hit": false,
      "t": 94700.79815624999,
      "d": 111.60703124999418,
      "v": 105
    },
    {
      "midi": 31,
      "hit": false,
      "t": 94714.19099999957,
      "d": 214.28549999999814,
      "v": 127
    },
    {
      "midi": 74,
      "hit": false,
      "t": 94714.19099999993,
      "d": 93.74990624999919,
      "v": 127
    },
    {
      "midi": 79,
      "hit": false,
      "t": 94906.15509374999,
      "d": 196.42837500000314,
      "v": 105
    },
    {
      "midi": 43,
      "hit": false,
      "t": 94928.47649999957,
      "d": 80.3570624999993,
      "v": 110
    },
    {
      "midi": 71,
      "hit": false,
      "t": 94928.47649999993,
      "d": 93.74990624999919,
      "v": 127
    },
    {
      "midi": 43,
      "hit": false,
      "t": 95035.61924999957,
      "d": 84.82134374999441,
      "v": 110
    },
    {
      "midi": 45,
      "hit": false,
      "t": 95062.40493750002,
      "d": 937.4990624999919,
      "v": 50
    },
    {
      "midi": 78,
      "hit": false,
      "t": 95138.29771875,
      "d": 406.24959375000617,
      "v": 105
    },
    {
      "midi": 33,
      "hit": false,
      "t": 95142.76199999957,
      "d": 214.28549999999814,
      "v": 127
    },
    {
      "midi": 74,
      "hit": false,
      "t": 95142.76199999993,
      "d": 93.74990624999919,
      "v": 127
    },
    {
      "midi": 88,
      "hit": false,
      "t": 95142.76200000003,
      "d": 883.9276875000069,
      "v": 127
    },
    {
      "midi": 45,
      "hit": false,
      "t": 95357.04749999956,
      "d": 66.96421874999942,
      "v": 110
    },
    {
      "midi": 73,
      "hit": false,
      "t": 95357.04749999993,
      "d": 84.82134374999441,
      "v": 127
    },
    {
      "midi": 45,
      "hit": false,
      "t": 95464.19024999956,
      "d": 93.74990624999919,
      "v": 110
    },
    {
      "midi": 76,
      "hit": false,
      "t": 95549.01159375,
      "d": 124.99987499999406,
      "v": 105
    },
    {
      "midi": 33,
      "hit": false,
      "t": 95571.33299999956,
      "d": 214.28549999999814,
      "v": 127
    },
    {
      "midi": 74,
      "hit": false,
      "t": 95571.33299999993,
      "d": 98.2141874999943,
      "v": 127
    },
    {
      "midi": 76,
      "hit": false,
      "t": 95763.29709374999,
      "d": 428.5709999999963,
      "v": 105
    },
    {
      "midi": 45,
      "hit": false,
      "t": 95785.61849999956,
      "d": 66.96421874999942,
      "v": 110
    },
    {
      "midi": 76,
      "hit": false,
      "t": 95785.61849999992,
      "d": 93.74990624999919,
      "v": 127
    },
    {
      "midi": 45,
      "hit": false,
      "t": 95892.76124999956,
      "d": 75.89278125000419,
      "v": 110
    },
    {
      "midi": 23,
      "hit": false,
      "t": 95999.90399999956,
      "d": 214.28549999999814,
      "v": 127
    },
    {
      "midi": 74,
      "hit": false,
      "t": 95999.90399999992,
      "d": 102.67846875000396,
      "v": 127
    },
    {
      "midi": 47,
      "hit": false,
      "t": 95999.90400000001,
      "d": 866.0705624999973,
      "v": 50
    },
    {
      "midi": 54,
      "hit": false,
      "t": 95999.90400000001,
      "d": 1428.5699999999924,
      "v": 50
    },
    {
      "midi": 86,
      "hit": false,
      "t": 95999.90400000004,
      "d": 2540.1760312499973,
      "v": 127
    },
    {
      "midi": 74,
      "hit": false,
      "t": 96205.26093749999,
      "d": 575.892281249995,
      "v": 105
    },
    {
      "midi": 35,
      "hit": false,
      "t": 96214.18949999956,
      "d": 80.3570624999993,
      "v": 110
    },
    {
      "midi": 73,
      "hit": false,
      "t": 96214.18949999992,
      "d": 80.3570624999993,
      "v": 127
    },
    {
      "midi": 35,
      "hit": false,
      "t": 96321.33224999956,
      "d": 80.3570624999993,
      "v": 110
    },
    {
      "midi": 23,
      "hit": false,
      "t": 96428.47499999955,
      "d": 214.28549999999814,
      "v": 127
    },
    {
      "midi": 74,
      "hit": false,
      "t": 96428.47499999992,
      "d": 93.74990624999919,
      "v": 127
    },
    {
      "midi": 35,
      "hit": false,
      "t": 96642.76049999955,
      "d": 80.3570624999993,
      "v": 110
    },
    {
      "midi": 71,
      "hit": false,
      "t": 96642.76049999992,
      "d": 93.74990624999919,
      "v": 127
    },
    {
      "midi": 35,
      "hit": false,
      "t": 96749.90324999955,
      "d": 84.82134374999441,
      "v": 110
    },
    {
      "midi": 61,
      "hit": false,
      "t": 96807.93890625001,
      "d": 656.2493437499943,
      "v": 50
    },
    {
      "midi": 57,
      "hit": false,
      "t": 96825.79603125,
      "d": 616.0708124999946,
      "v": 50
    },
    {
      "midi": 42,
      "hit": false,
      "t": 96830.2603125,
      "d": 633.9279375000042,
      "v": 50
    },
    {
      "midi": 30,
      "hit": false,
      "t": 96857.04599999955,
      "d": 214.28549999999814,
      "v": 127
    },
    {
      "midi": 74,
      "hit": false,
      "t": 96857.04599999991,
      "d": 102.67846875000396,
      "v": 127
    },
    {
      "midi": 42,
      "hit": false,
      "t": 97071.33149999955,
      "d": 66.96421874999942,
      "v": 110
    },
    {
      "midi": 73,
      "hit": false,
      "t": 97071.33149999991,
      "d": 80.3570624999993,
      "v": 127
    },
    {
      "midi": 42,
      "hit": false,
      "t": 97178.47424999955,
      "d": 93.74990624999919,
      "v": 110
    },
    {
      "midi": 30,
      "hit": false,
      "t": 97285.61699999955,
      "d": 214.28549999999814,
      "v": 127
    },
    {
      "midi": 74,
      "hit": false,
      "t": 97285.61699999991,
      "d": 98.2141874999943,
      "v": 127
    },
    {
      "midi": 59,
      "hit": false,
      "t": 97406.15259375001,
      "d": 1999.9979999999923,
      "v": 50
    },
    {
      "midi": 55,
      "hit": false,
      "t": 97406.15259375001,
      "d": 2022.319406249997,
      "v": 50
    },
    {
      "midi": 62,
      "hit": false,
      "t": 97410.616875,
      "d": 1982.1408749999973,
      "v": 50
    },
    {
      "midi": 43,
      "hit": false,
      "t": 97437.4025625,
      "d": 1071.4274999999907,
      "v": 50
    },
    {
      "midi": 42,
      "hit": false,
      "t": 97499.90249999955,
      "d": 66.96421874999942,
      "v": 110
    },
    {
      "midi": 69,
      "hit": false,
      "t": 97499.90249999991,
      "d": 93.74990624999919,
      "v": 127
    },
    {
      "midi": 42,
      "hit": false,
      "t": 97607.04524999954,
      "d": 75.89278125000419,
      "v": 110
    },
    {
      "midi": 31,
      "hit": false,
      "t": 97714.18799999954,
      "d": 214.28549999999814,
      "v": 127
    },
    {
      "midi": 74,
      "hit": false,
      "t": 97714.18799999991,
      "d": 98.2141874999943,
      "v": 127
    },
    {
      "midi": 79,
      "hit": false,
      "t": 97910.61637499998,
      "d": 93.74990624999919,
      "v": 105
    },
    {
      "midi": 43,
      "hit": false,
      "t": 97928.47349999954,
      "d": 80.3570624999993,
      "v": 110
    },
    {
      "midi": 73,
      "hit": false,
      "t": 97928.4734999999,
      "d": 66.96421874999942,
      "v": 127
    },
    {
      "midi": 43,
      "hit": false,
      "t": 98035.61624999954,
      "d": 80.3570624999993,
      "v": 110
    },
    {
      "midi": 79,
      "hit": false,
      "t": 98120.43759374999,
      "d": 89.28562500000407,
      "v": 105
    },
    {
      "midi": 31,
      "hit": false,
      "t": 98142.75899999954,
      "d": 214.28549999999814,
      "v": 127
    },
    {
      "midi": 74,
      "hit": false,
      "t": 98142.7589999999,
      "d": 98.2141874999943,
      "v": 127
    },
    {
      "midi": 79,
      "hit": false,
      "t": 98339.187375,
      "d": 218.74978124999325,
      "v": 105
    },
    {
      "midi": 43,
      "hit": false,
      "t": 98357.04449999954,
      "d": 80.3570624999993,
      "v": 110
    },
    {
      "midi": 71,
      "hit": false,
      "t": 98357.0444999999,
      "d": 89.28562500000407,
      "v": 127
    },
    {
      "midi": 43,
      "hit": false,
      "t": 98464.18724999954,
      "d": 84.82134374999441,
      "v": 110
    },
    {
      "midi": 45,
      "hit": false,
      "t": 98490.9729375,
      "d": 937.4990625000064,
      "v": 50
    },
    {
      "midi": 33,
      "hit": false,
      "t": 98571.32999999954,
      "d": 214.28549999999814,
      "v": 127
    },
    {
      "midi": 74,
      "hit": false,
      "t": 98571.3299999999,
      "d": 84.82134374999441,
      "v": 127
    },
    {
      "midi": 88,
      "hit": false,
      "t": 98571.33000000003,
      "d": 883.9276875000069,
      "v": 127
    },
    {
      "midi": 78,
      "hit": false,
      "t": 98580.25856249999,
      "d": 383.9281875000015,
      "v": 105
    },
    {
      "midi": 45,
      "hit": false,
      "t": 98785.61549999953,
      "d": 66.96421874999942,
      "v": 110
    },
    {
      "midi": 73,
      "hit": false,
      "t": 98785.6154999999,
      "d": 75.89278125000419,
      "v": 127
    },
    {
      "midi": 45,
      "hit": false,
      "t": 98892.75824999953,
      "d": 93.74990624999919,
      "v": 110
    },
    {
      "midi": 76,
      "hit": false,
      "t": 98982.04387499999,
      "d": 80.3570624999993,
      "v": 105
    },
    {
      "midi": 33,
      "hit": false,
      "t": 98999.90099999953,
      "d": 214.28549999999814,
      "v": 127
    },
    {
      "midi": 74,
      "hit": false,
      "t": 98999.9009999999,
      "d": 102.67846875000396,
      "v": 127
    },
    {
      "midi": 76,
      "hit": false,
      "t": 99205.25793749999,
      "d": 424.10671875000116,
      "v": 105
    },
    {
      "midi": 45,
      "hit": false,
      "t": 99214.18649999953,
      "d": 66.96421874999942,
      "v": 110
    },
    {
      "midi": 76,
      "hit": false,
      "t": 99214.1864999999,
      "d": 129.46415625000373,
      "v": 127
    },
    {
      "midi": 45,
      "hit": false,
      "t": 99321.32924999953,
      "d": 75.89278125000419,
      "v": 110
    },
    {
      "midi": 23,
      "hit": false,
      "t": 99428.47199999953,
      "d": 214.28549999999814,
      "v": 127
    },
    {
      "midi": 35,
      "hit": false,
      "t": 99428.47199999979,
      "d": 857.1420000000071,
      "v": 70
    },
    {
      "midi": 59,
      "hit": false,
      "t": 99428.47200000001,
      "d": 834.8205937499879,
      "v": 50
    },
    {
      "midi": 47,
      "hit": false,
      "t": 99428.47200000001,
      "d": 866.0705624999828,
      "v": 50
    },
    {
      "midi": 62,
      "hit": false,
      "t": 99428.47200000001,
      "d": 879.4634062499827,
      "v": 50
    },
    {
      "midi": 54,
      "hit": false,
      "t": 99428.47200000001,
      "d": 1428.5699999999779,
      "v": 50
    },
    {
      "midi": 59,
      "hit": false,
      "t": 99428.47200000001,
      "d": 901.7848125000019,
      "v": 65
    },
    {
      "midi": 66,
      "hit": false,
      "t": 99428.47200000004,
      "d": 223.2140625000029,
      "v": 70
    },
    {
      "midi": 74,
      "hit": false,
      "t": 99428.47200000004,
      "d": 254.4640312499978,
      "v": 70
    },
    {
      "midi": 71,
      "hit": false,
      "t": 99428.47200000004,
      "d": 258.9283124999929,
      "v": 70
    },
    {
      "midi": 35,
      "hit": false,
      "t": 99642.75749999953,
      "d": 80.3570624999993,
      "v": 110
    },
    {
      "midi": 74,
      "hit": false,
      "t": 99642.75749999999,
      "d": 571.4279999999999,
      "v": 105
    },
    {
      "midi": 35,
      "hit": false,
      "t": 99749.90024999953,
      "d": 80.3570624999993,
      "v": 110
    },
    {
      "midi": 23,
      "hit": false,
      "t": 99857.04299999952,
      "d": 214.28549999999814,
      "v": 127
    },
    {
      "midi": 73,
      "hit": false,
      "t": 99857.04300000003,
      "d": 245.53546874999302,
      "v": 70
    },
    {
      "midi": 66,
      "hit": false,
      "t": 99857.04300000003,
      "d": 254.4640312499978,
      "v": 70
    },
    {
      "midi": 71,
      "hit": false,
      "t": 99857.04300000003,
      "d": 272.3211562499928,
      "v": 70
    },
    {
      "midi": 35,
      "hit": false,
      "t": 100071.32849999952,
      "d": 80.3570624999993,
      "v": 110
    },
    {
      "midi": 35,
      "hit": false,
      "t": 100178.47124999952,
      "d": 84.82134374999441,
      "v": 110
    },
    {
      "midi": 61,
      "hit": false,
      "t": 100236.50690625001,
      "d": 656.2493437499797,
      "v": 50
    },
    {
      "midi": 57,
      "hit": false,
      "t": 100254.36403125,
      "d": 616.0708124999801,
      "v": 50
    },
    {
      "midi": 42,
      "hit": false,
      "t": 100258.8283125,
      "d": 633.9279374999896,
      "v": 50
    },
    {
      "midi": 57,
      "hit": false,
      "t": 100281.14971875,
      "d": 879.4634062499972,
      "v": 65
    },
    {
      "midi": 30,
      "hit": false,
      "t": 100285.61399999952,
      "d": 214.28549999999814,
      "v": 127
    },
    {
      "midi": 30,
      "hit": false,
      "t": 100285.6139999998,
      "d": 812.4991874999978,
      "v": 70
    },
    {
      "midi": 66,
      "hit": false,
      "t": 100285.61400000003,
      "d": 151.78556249999383,
      "v": 70
    },
    {
      "midi": 74,
      "hit": false,
      "t": 100285.61400000003,
      "d": 174.1069687499985,
      "v": 70
    },
    {
      "midi": 71,
      "hit": false,
      "t": 100285.61400000003,
      "d": 178.5712499999936,
      "v": 70
    },
    {
      "midi": 42,
      "hit": false,
      "t": 100499.89949999952,
      "d": 66.96421874999942,
      "v": 110
    },
    {
      "midi": 66,
      "hit": false,
      "t": 100499.89950000003,
      "d": 174.1069687499985,
      "v": 70
    },
    {
      "midi": 71,
      "hit": false,
      "t": 100499.89950000003,
      "d": 187.49981249999837,
      "v": 70
    },
    {
      "midi": 73,
      "hit": false,
      "t": 100499.89950000003,
      "d": 187.49981249999837,
      "v": 70
    },
    {
      "midi": 42,
      "hit": false,
      "t": 100607.04224999952,
      "d": 93.74990624999919,
      "v": 110
    },
    {
      "midi": 30,
      "hit": false,
      "t": 100714.18499999952,
      "d": 214.28549999999814,
      "v": 127
    },
    {
      "midi": 55,
      "hit": false,
      "t": 100834.72059375,
      "d": 2022.3194062499824,
      "v": 50
    },
    {
      "midi": 59,
      "hit": false,
      "t": 100834.72059375,
      "d": 2879.461406249975,
      "v": 50
    },
    {
      "midi": 62,
      "hit": false,
      "t": 100839.18487499999,
      "d": 2874.99712499998,
      "v": 50
    },
    {
      "midi": 43,
      "hit": false,
      "t": 100865.97056249999,
      "d": 1071.4274999999907,
      "v": 50
    },
    {
      "midi": 42,
      "hit": false,
      "t": 100928.47049999952,
      "d": 66.96421874999942,
      "v": 110
    },
    {
      "midi": 67,
      "hit": false,
      "t": 100928.47050000002,
      "d": 214.28549999999814,
      "v": 70
    },
    {
      "midi": 71,
      "hit": false,
      "t": 100928.47050000002,
      "d": 223.2140625000029,
      "v": 70
    },
    {
      "midi": 74,
      "hit": false,
      "t": 100928.47050000002,
      "d": 241.0711874999979,
      "v": 70
    },
    {
      "midi": 42,
      "hit": false,
      "t": 101035.61324999951,
      "d": 75.89278125000419,
      "v": 110
    },
    {
      "midi": 55,
      "hit": false,
      "t": 101107.04175,
      "d": 901.7848124999873,
      "v": 65
    },
    {
      "midi": 31,
      "hit": false,
      "t": 101142.75599999951,
      "d": 214.28549999999814,
      "v": 127
    },
    {
      "midi": 31,
      "hit": false,
      "t": 101142.75599999979,
      "d": 879.4634062500118,
      "v": 70
    },
    {
      "midi": 43,
      "hit": false,
      "t": 101357.04149999951,
      "d": 80.3570624999993,
      "v": 110
    },
    {
      "midi": 73,
      "hit": false,
      "t": 101357.04150000002,
      "d": 232.14262499999313,
      "v": 70
    },
    {
      "midi": 67,
      "hit": false,
      "t": 101357.04150000002,
      "d": 236.60690624998824,
      "v": 70
    },
    {
      "midi": 71,
      "hit": false,
      "t": 101357.04150000002,
      "d": 241.07118749998335,
      "v": 70
    },
    {
      "midi": 43,
      "hit": false,
      "t": 101464.18424999951,
      "d": 80.3570624999993,
      "v": 110
    },
    {
      "midi": 31,
      "hit": false,
      "t": 101571.32699999951,
      "d": 214.28549999999814,
      "v": 127
    },
    {
      "midi": 43,
      "hit": false,
      "t": 101785.61249999951,
      "d": 80.3570624999993,
      "v": 110
    },
    {
      "midi": 67,
      "hit": false,
      "t": 101785.6125,
      "d": 241.0711874999979,
      "v": 70
    },
    {
      "midi": 71,
      "hit": false,
      "t": 101785.6125,
      "d": 258.9283124999929,
      "v": 70
    },
    {
      "midi": 74,
      "hit": false,
      "t": 101785.6125,
      "d": 263.392593749988,
      "v": 70
    },
    {
      "midi": 43,
      "hit": false,
      "t": 101892.7552499995,
      "d": 84.82134374999441,
      "v": 110
    },
    {
      "midi": 45,
      "hit": false,
      "t": 101919.54093749999,
      "d": 937.4990624999919,
      "v": 50
    },
    {
      "midi": 57,
      "hit": false,
      "t": 101977.57659375,
      "d": 861.6062812499877,
      "v": 65
    },
    {
      "midi": 33,
      "hit": false,
      "t": 101999.8979999995,
      "d": 214.28549999999814,
      "v": 127
    },
    {
      "midi": 33,
      "hit": false,
      "t": 101999.8979999998,
      "d": 888.391968750002,
      "v": 70
    },
    {
      "midi": 45,
      "hit": false,
      "t": 102214.1834999995,
      "d": 66.96421874999942,
      "v": 110
    },
    {
      "midi": 67,
      "hit": false,
      "t": 102214.18349999998,
      "d": 272.3211562499928,
      "v": 70
    },
    {
      "midi": 71,
      "hit": false,
      "t": 102214.18349999998,
      "d": 290.1782812499878,
      "v": 70
    },
    {
      "midi": 76,
      "hit": false,
      "t": 102214.18349999998,
      "d": 294.6425624999829,
      "v": 70
    },
    {
      "midi": 45,
      "hit": false,
      "t": 102321.3262499995,
      "d": 93.74990624999919,
      "v": 110
    },
    {
      "midi": 33,
      "hit": false,
      "t": 102428.4689999995,
      "d": 214.28549999999814,
      "v": 127
    },
    {
      "midi": 45,
      "hit": false,
      "t": 102642.7544999995,
      "d": 66.96421874999942,
      "v": 110
    },
    {
      "midi": 67,
      "hit": false,
      "t": 102642.75449999997,
      "d": 205.35693749999336,
      "v": 70
    },
    {
      "midi": 73,
      "hit": false,
      "t": 102642.75449999997,
      "d": 205.35693749999336,
      "v": 70
    },
    {
      "midi": 71,
      "hit": false,
      "t": 102642.75449999997,
      "d": 214.28549999999814,
      "v": 70
    },
    {
      "midi": 45,
      "hit": false,
      "t": 102749.8972499995,
      "d": 75.89278125000419,
      "v": 110
    },
    {
      "midi": 59,
      "hit": false,
      "t": 102812.39718749998,
      "d": 901.7848125000019,
      "v": 65
    },
    {
      "midi": 23,
      "hit": false,
      "t": 102857.0399999995,
      "d": 214.28549999999814,
      "v": 127
    },
    {
      "midi": 35,
      "hit": false,
      "t": 102857.0399999998,
      "d": 897.3205312499922,
      "v": 70
    },
    {
      "midi": 66,
      "hit": false,
      "t": 102857.03999999996,
      "d": 178.5712499999936,
      "v": 70
    },
    {
      "midi": 74,
      "hit": false,
      "t": 102857.03999999996,
      "d": 223.21406249998836,
      "v": 70
    },
    {
      "midi": 71,
      "hit": false,
      "t": 102857.03999999996,
      "d": 227.67834374998347,
      "v": 70
    },
    {
      "midi": 47,
      "hit": false,
      "t": 102857.03999999998,
      "d": 866.0705624999973,
      "v": 50
    },
    {
      "midi": 54,
      "hit": false,
      "t": 102857.03999999998,
      "d": 1428.5699999999924,
      "v": 50
    },
    {
      "midi": 35,
      "hit": false,
      "t": 103071.3254999995,
      "d": 80.3570624999993,
      "v": 110
    },
    {
      "midi": 35,
      "hit": false,
      "t": 103178.4682499995,
      "d": 80.3570624999993,
      "v": 110
    },
    {
      "midi": 23,
      "hit": false,
      "t": 103285.6109999995,
      "d": 214.28549999999814,
      "v": 127
    },
    {
      "midi": 66,
      "hit": false,
      "t": 103285.61099999995,
      "d": 191.96409374999348,
      "v": 70
    },
    {
      "midi": 73,
      "hit": false,
      "t": 103285.61099999995,
      "d": 191.96409374999348,
      "v": 70
    },
    {
      "midi": 71,
      "hit": false,
      "t": 103285.61099999995,
      "d": 214.28549999999814,
      "v": 70
    },
    {
      "midi": 35,
      "hit": false,
      "t": 103499.8964999995,
      "d": 80.3570624999993,
      "v": 110
    },
    {
      "midi": 35,
      "hit": false,
      "t": 103607.03924999949,
      "d": 84.82134374999441,
      "v": 110
    },
    {
      "midi": 61,
      "hit": false,
      "t": 103665.07490624998,
      "d": 656.2493437499943,
      "v": 50
    },
    {
      "midi": 57,
      "hit": false,
      "t": 103678.46774999998,
      "d": 879.4634062499972,
      "v": 65
    },
    {
      "midi": 57,
      "hit": false,
      "t": 103682.93203124998,
      "d": 616.0708124999946,
      "v": 50
    },
    {
      "midi": 42,
      "hit": false,
      "t": 103687.39631249997,
      "d": 633.9279375000042,
      "v": 50
    },
    {
      "midi": 30,
      "hit": false,
      "t": 103714.18199999949,
      "d": 214.28549999999814,
      "v": 127
    },
    {
      "midi": 30,
      "hit": false,
      "t": 103714.1819999998,
      "d": 830.3563124999928,
      "v": 70
    },
    {
      "midi": 66,
      "hit": false,
      "t": 103714.18199999994,
      "d": 142.8570000000036,
      "v": 70
    },
    {
      "midi": 74,
      "hit": false,
      "t": 103714.18199999994,
      "d": 160.7141249999986,
      "v": 70
    },
    {
      "midi": 71,
      "hit": false,
      "t": 103714.18199999994,
      "d": 174.1069687499985,
      "v": 70
    },
    {
      "midi": 42,
      "hit": false,
      "t": 103928.46749999949,
      "d": 66.96421874999942,
      "v": 110
    },
    {
      "midi": 66,
      "hit": false,
      "t": 103928.46749999994,
      "d": 160.7141249999986,
      "v": 70
    },
    {
      "midi": 73,
      "hit": false,
      "t": 103928.46749999994,
      "d": 178.5712499999936,
      "v": 70
    },
    {
      "midi": 71,
      "hit": false,
      "t": 103928.46749999994,
      "d": 187.49981249999837,
      "v": 70
    },
    {
      "midi": 42,
      "hit": false,
      "t": 104035.61024999949,
      "d": 93.74990624999919,
      "v": 110
    },
    {
      "midi": 30,
      "hit": false,
      "t": 104142.75299999949,
      "d": 214.28549999999814,
      "v": 127
    },
    {
      "midi": 55,
      "hit": false,
      "t": 104263.28859374998,
      "d": 2022.3194062499824,
      "v": 50
    },
    {
      "midi": 59,
      "hit": false,
      "t": 104263.28859374998,
      "d": 2879.461406249975,
      "v": 50
    },
    {
      "midi": 62,
      "hit": false,
      "t": 104267.75287499998,
      "d": 2874.99712499998,
      "v": 50
    },
    {
      "midi": 43,
      "hit": false,
      "t": 104294.53856249998,
      "d": 1071.4274999999907,
      "v": 50
    },
    {
      "midi": 42,
      "hit": false,
      "t": 104357.03849999949,
      "d": 66.96421874999942,
      "v": 110
    },
    {
      "midi": 71,
      "hit": false,
      "t": 104357.03849999994,
      "d": 174.1069687499985,
      "v": 70
    },
    {
      "midi": 67,
      "hit": false,
      "t": 104357.03849999994,
      "d": 183.03553125000326,
      "v": 70
    },
    {
      "midi": 74,
      "hit": false,
      "t": 104357.03849999994,
      "d": 187.49981249999837,
      "v": 70
    },
    {
      "midi": 42,
      "hit": false,
      "t": 104464.18124999948,
      "d": 75.89278125000419,
      "v": 110
    },
    {
      "midi": 55,
      "hit": false,
      "t": 104526.68118749998,
      "d": 897.3205312500068,
      "v": 65
    },
    {
      "midi": 31,
      "hit": false,
      "t": 104571.32399999948,
      "d": 214.28549999999814,
      "v": 127
    },
    {
      "midi": 31,
      "hit": false,
      "t": 104571.32399999979,
      "d": 866.0705625000119,
      "v": 70
    },
    {
      "midi": 43,
      "hit": false,
      "t": 104785.60949999948,
      "d": 80.3570624999993,
      "v": 110
    },
    {
      "midi": 67,
      "hit": false,
      "t": 104785.60949999993,
      "d": 120.53559374999895,
      "v": 70
    },
    {
      "midi": 71,
      "hit": false,
      "t": 104785.60949999993,
      "d": 133.92843749999884,
      "v": 70
    },
    {
      "midi": 74,
      "hit": false,
      "t": 104785.60949999993,
      "d": 133.92843749999884,
      "v": 70
    },
    {
      "midi": 43,
      "hit": false,
      "t": 104892.75224999948,
      "d": 80.3570624999993,
      "v": 110
    },
    {
      "midi": 31,
      "hit": false,
      "t": 104999.89499999948,
      "d": 214.28549999999814,
      "v": 127
    },
    {
      "midi": 67,
      "hit": false,
      "t": 104999.89499999993,
      "d": 196.42837500000314,
      "v": 70
    },
    {
      "midi": 71,
      "hit": false,
      "t": 104999.89499999993,
      "d": 196.42837500000314,
      "v": 70
    },
    {
      "midi": 73,
      "hit": false,
      "t": 104999.89499999993,
      "d": 196.42837500000314,
      "v": 70
    },
    {
      "midi": 43,
      "hit": false,
      "t": 105214.18049999948,
      "d": 80.3570624999993,
      "v": 110
    },
    {
      "midi": 43,
      "hit": false,
      "t": 105321.32324999948,
      "d": 84.82134374999441,
      "v": 110
    },
    {
      "midi": 45,
      "hit": false,
      "t": 105348.10893749997,
      "d": 937.4990624999919,
      "v": 50
    },
    {
      "midi": 57,
      "hit": false,
      "t": 105401.68031249999,
      "d": 892.8562500000116,
      "v": 65
    },
    {
      "midi": 33,
      "hit": false,
      "t": 105428.46599999948,
      "d": 214.28549999999814,
      "v": 127
    },
    {
      "midi": 33,
      "hit": false,
      "t": 105428.4659999998,
      "d": 870.534843750007,
      "v": 70
    },
    {
      "midi": 67,
      "hit": false,
      "t": 105428.46599999993,
      "d": 214.28549999999814,
      "v": 70
    },
    {
      "midi": 71,
      "hit": false,
      "t": 105428.46599999993,
      "d": 218.74978124999325,
      "v": 70
    },
    {
      "midi": 74,
      "hit": false,
      "t": 105428.46599999993,
      "d": 227.67834374999802,
      "v": 70
    },
    {
      "midi": 45,
      "hit": false,
      "t": 105642.75149999947,
      "d": 66.96421874999942,
      "v": 110
    },
    {
      "midi": 45,
      "hit": false,
      "t": 105749.89424999947,
      "d": 93.74990624999919,
      "v": 110
    },
    {
      "midi": 33,
      "hit": false,
      "t": 105857.03699999947,
      "d": 214.28549999999814,
      "v": 127
    },
    {
      "midi": 67,
      "hit": false,
      "t": 105857.03699999992,
      "d": 223.2140625000029,
      "v": 70
    },
    {
      "midi": 71,
      "hit": false,
      "t": 105857.03699999992,
      "d": 232.14262500000768,
      "v": 70
    },
    {
      "midi": 76,
      "hit": false,
      "t": 105857.03699999992,
      "d": 245.53546875000757,
      "v": 70
    },
    {
      "midi": 45,
      "hit": false,
      "t": 106071.32249999947,
      "d": 66.96421874999942,
      "v": 110
    },
    {
      "midi": 45,
      "hit": false,
      "t": 106178.46524999947,
      "d": 75.89278125000419,
      "v": 110
    },
    {
      "midi": 59,
      "hit": false,
      "t": 106258.8223125,
      "d": 906.249093749997,
      "v": 65
    },
    {
      "midi": 23,
      "hit": false,
      "t": 106285.60799999947,
      "d": 214.28549999999814,
      "v": 127
    },
    {
      "midi": 35,
      "hit": false,
      "t": 106285.6079999998,
      "d": 857.1420000000071,
      "v": 70
    },
    {
      "midi": 66,
      "hit": false,
      "t": 106285.60799999993,
      "d": 223.2140625000029,
      "v": 70
    },
    {
      "midi": 74,
      "hit": false,
      "t": 106285.60799999993,
      "d": 254.4640312499978,
      "v": 70
    },
    {
      "midi": 71,
      "hit": false,
      "t": 106285.60799999993,
      "d": 258.9283124999929,
      "v": 70
    },
    {
      "midi": 47,
      "hit": false,
      "t": 106285.60799999996,
      "d": 866.0705624999973,
      "v": 50
    },
    {
      "midi": 54,
      "hit": false,
      "t": 106285.60799999996,
      "d": 1428.5699999999924,
      "v": 50
    },
    {
      "midi": 35,
      "hit": false,
      "t": 106499.89349999947,
      "d": 80.3570624999993,
      "v": 110
    },
    {
      "midi": 35,
      "hit": false,
      "t": 106607.03624999947,
      "d": 80.3570624999993,
      "v": 110
    },
    {
      "midi": 23,
      "hit": false,
      "t": 106714.17899999947,
      "d": 214.28549999999814,
      "v": 127
    },
    {
      "midi": 73,
      "hit": false,
      "t": 106714.17899999993,
      "d": 245.53546874999302,
      "v": 70
    },
    {
      "midi": 66,
      "hit": false,
      "t": 106714.17899999993,
      "d": 254.4640312499978,
      "v": 70
    },
    {
      "midi": 71,
      "hit": false,
      "t": 106714.17899999993,
      "d": 272.3211562499928,
      "v": 70
    },
    {
      "midi": 35,
      "hit": false,
      "t": 106928.46449999946,
      "d": 80.3570624999993,
      "v": 110
    },
    {
      "midi": 35,
      "hit": false,
      "t": 107035.60724999946,
      "d": 84.82134374999441,
      "v": 110
    },
    {
      "midi": 61,
      "hit": false,
      "t": 107093.64290624997,
      "d": 656.2493437499943,
      "v": 50
    },
    {
      "midi": 57,
      "hit": false,
      "t": 107111.50003124996,
      "d": 616.0708124999946,
      "v": 50
    },
    {
      "midi": 42,
      "hit": false,
      "t": 107115.96431249996,
      "d": 633.9279375000042,
      "v": 50
    },
    {
      "midi": 57,
      "hit": false,
      "t": 107133.8214375,
      "d": 883.9276874999923,
      "v": 65
    },
    {
      "midi": 30,
      "hit": false,
      "t": 107142.74999999946,
      "d": 214.28549999999814,
      "v": 127
    },
    {
      "midi": 30,
      "hit": false,
      "t": 107142.74999999981,
      "d": 812.4991874999978,
      "v": 70
    },
    {
      "midi": 66,
      "hit": false,
      "t": 107142.74999999993,
      "d": 151.78556249999383,
      "v": 70
    },
    {
      "midi": 74,
      "hit": false,
      "t": 107142.74999999993,
      "d": 174.1069687499985,
      "v": 70
    },
    {
      "midi": 71,
      "hit": false,
      "t": 107142.74999999993,
      "d": 178.5712499999936,
      "v": 70
    },
    {
      "midi": 42,
      "hit": false,
      "t": 107357.03549999946,
      "d": 66.96421874999942,
      "v": 110
    },
    {
      "midi": 66,
      "hit": false,
      "t": 107357.03549999993,
      "d": 174.1069687499985,
      "v": 70
    },
    {
      "midi": 71,
      "hit": false,
      "t": 107357.03549999993,
      "d": 187.49981249999837,
      "v": 70
    },
    {
      "midi": 73,
      "hit": false,
      "t": 107357.03549999993,
      "d": 187.49981249999837,
      "v": 70
    },
    {
      "midi": 42,
      "hit": false,
      "t": 107464.17824999946,
      "d": 93.74990624999919,
      "v": 110
    },
    {
      "midi": 30,
      "hit": false,
      "t": 107571.32099999946,
      "d": 214.28549999999814,
      "v": 127
    },
    {
      "midi": 55,
      "hit": false,
      "t": 107691.85659374997,
      "d": 2022.3194062499824,
      "v": 50
    },
    {
      "midi": 59,
      "hit": false,
      "t": 107691.85659374997,
      "d": 2879.461406249975,
      "v": 50
    },
    {
      "midi": 62,
      "hit": false,
      "t": 107696.32087499996,
      "d": 2874.99712499998,
      "v": 50
    },
    {
      "midi": 43,
      "hit": false,
      "t": 107723.10656249996,
      "d": 1071.4274999999907,
      "v": 50
    },
    {
      "midi": 42,
      "hit": false,
      "t": 107785.60649999946,
      "d": 66.96421874999942,
      "v": 110
    },
    {
      "midi": 67,
      "hit": false,
      "t": 107785.60649999992,
      "d": 214.28549999999814,
      "v": 70
    },
    {
      "midi": 71,
      "hit": false,
      "t": 107785.60649999992,
      "d": 223.2140625000029,
      "v": 70
    },
    {
      "midi": 74,
      "hit": false,
      "t": 107785.60649999992,
      "d": 241.0711874999979,
      "v": 70
    },
    {
      "midi": 42,
      "hit": false,
      "t": 107892.74924999946,
      "d": 75.89278125000419,
      "v": 110
    },
    {
      "midi": 55,
      "hit": false,
      "t": 107986.49915624999,
      "d": 870.5348437499924,
      "v": 65
    },
    {
      "midi": 31,
      "hit": false,
      "t": 107999.89199999945,
      "d": 214.28549999999814,
      "v": 127
    },
    {
      "midi": 31,
      "hit": false,
      "t": 107999.8919999998,
      "d": 879.4634062500118,
      "v": 70
    },
    {
      "midi": 43,
      "hit": false,
      "t": 108214.17749999945,
      "d": 80.3570624999993,
      "v": 110
    },
    {
      "midi": 73,
      "hit": false,
      "t": 108214.17749999992,
      "d": 232.14262499999313,
      "v": 70
    },
    {
      "midi": 67,
      "hit": false,
      "t": 108214.17749999992,
      "d": 236.60690624998824,
      "v": 70
    },
    {
      "midi": 71,
      "hit": false,
      "t": 108214.17749999992,
      "d": 241.07118749998335,
      "v": 70
    },
    {
      "midi": 43,
      "hit": false,
      "t": 108321.32024999945,
      "d": 80.3570624999993,
      "v": 110
    },
    {
      "midi": 31,
      "hit": false,
      "t": 108428.46299999945,
      "d": 214.28549999999814,
      "v": 127
    },
    {
      "midi": 43,
      "hit": false,
      "t": 108642.74849999945,
      "d": 80.3570624999993,
      "v": 110
    },
    {
      "midi": 67,
      "hit": false,
      "t": 108642.7484999999,
      "d": 241.0711874999979,
      "v": 70
    },
    {
      "midi": 71,
      "hit": false,
      "t": 108642.7484999999,
      "d": 258.9283124999929,
      "v": 70
    },
    {
      "midi": 74,
      "hit": false,
      "t": 108642.7484999999,
      "d": 263.392593749988,
      "v": 70
    },
    {
      "midi": 43,
      "hit": false,
      "t": 108749.89124999945,
      "d": 84.82134374999441,
      "v": 110
    },
    {
      "midi": 45,
      "hit": false,
      "t": 108776.67693749996,
      "d": 937.4990624999919,
      "v": 50
    },
    {
      "midi": 57,
      "hit": false,
      "t": 108843.64115624999,
      "d": 857.1420000000071,
      "v": 65
    },
    {
      "midi": 33,
      "hit": false,
      "t": 108857.03399999945,
      "d": 214.28549999999814,
      "v": 127
    },
    {
      "midi": 33,
      "hit": false,
      "t": 108857.03399999981,
      "d": 888.391968750002,
      "v": 70
    },
    {
      "midi": 45,
      "hit": false,
      "t": 109071.31949999944,
      "d": 66.96421874999942,
      "v": 110
    },
    {
      "midi": 67,
      "hit": false,
      "t": 109071.31949999988,
      "d": 272.32115625000733,
      "v": 70
    },
    {
      "midi": 71,
      "hit": false,
      "t": 109071.31949999988,
      "d": 290.1782812500023,
      "v": 70
    },
    {
      "midi": 76,
      "hit": false,
      "t": 109071.31949999988,
      "d": 294.64256249999744,
      "v": 70
    },
    {
      "midi": 45,
      "hit": false,
      "t": 109178.46224999944,
      "d": 93.74990624999919,
      "v": 110
    },
    {
      "midi": 33,
      "hit": false,
      "t": 109285.60499999944,
      "d": 214.28549999999814,
      "v": 127
    },
    {
      "midi": 45,
      "hit": false,
      "t": 109499.89049999944,
      "d": 66.96421874999942,
      "v": 110
    },
    {
      "midi": 67,
      "hit": false,
      "t": 109499.89049999988,
      "d": 205.35693749999336,
      "v": 70
    },
    {
      "midi": 73,
      "hit": false,
      "t": 109499.89049999988,
      "d": 205.35693749999336,
      "v": 70
    },
    {
      "midi": 71,
      "hit": false,
      "t": 109499.89049999988,
      "d": 214.28549999999814,
      "v": 70
    },
    {
      "midi": 45,
      "hit": false,
      "t": 109607.03324999944,
      "d": 75.89278125000419,
      "v": 110
    },
    {
      "midi": 59,
      "hit": false,
      "t": 109678.46174999999,
      "d": 879.4634062500118,
      "v": 65
    },
    {
      "midi": 23,
      "hit": false,
      "t": 109714.17599999944,
      "d": 214.28549999999814,
      "v": 127
    },
    {
      "midi": 35,
      "hit": false,
      "t": 109714.17599999982,
      "d": 897.3205312499922,
      "v": 70
    },
    {
      "midi": 66,
      "hit": false,
      "t": 109714.17599999988,
      "d": 178.5712499999936,
      "v": 70
    },
    {
      "midi": 74,
      "hit": false,
      "t": 109714.17599999988,
      "d": 223.21406249998836,
      "v": 70
    },
    {
      "midi": 71,
      "hit": false,
      "t": 109714.17599999988,
      "d": 227.67834374998347,
      "v": 70
    },
    {
      "midi": 47,
      "hit": false,
      "t": 109714.17599999995,
      "d": 866.0705624999973,
      "v": 50
    },
    {
      "midi": 54,
      "hit": false,
      "t": 109714.17599999995,
      "d": 1428.5699999999924,
      "v": 50
    },
    {
      "midi": 35,
      "hit": false,
      "t": 109928.46149999944,
      "d": 80.3570624999993,
      "v": 110
    },
    {
      "midi": 35,
      "hit": false,
      "t": 110035.60424999944,
      "d": 80.3570624999993,
      "v": 110
    },
    {
      "midi": 23,
      "hit": false,
      "t": 110142.74699999944,
      "d": 214.28549999999814,
      "v": 127
    },
    {
      "midi": 66,
      "hit": false,
      "t": 110142.74699999986,
      "d": 191.96409374999348,
      "v": 70
    },
    {
      "midi": 73,
      "hit": false,
      "t": 110142.74699999986,
      "d": 191.96409374999348,
      "v": 70
    },
    {
      "midi": 71,
      "hit": false,
      "t": 110142.74699999986,
      "d": 214.28549999999814,
      "v": 70
    },
    {
      "midi": 35,
      "hit": false,
      "t": 110357.03249999943,
      "d": 80.3570624999993,
      "v": 110
    },
    {
      "midi": 35,
      "hit": false,
      "t": 110464.17524999943,
      "d": 84.82134374999441,
      "v": 110
    },
    {
      "midi": 61,
      "hit": false,
      "t": 110522.21090624995,
      "d": 656.2493437499943,
      "v": 50
    },
    {
      "midi": 57,
      "hit": false,
      "t": 110535.60375,
      "d": 883.9276875000069,
      "v": 65
    },
    {
      "midi": 57,
      "hit": false,
      "t": 110540.06803124995,
      "d": 616.0708124999946,
      "v": 50
    },
    {
      "midi": 42,
      "hit": false,
      "t": 110544.53231249994,
      "d": 633.9279375000042,
      "v": 50
    },
    {
      "midi": 30,
      "hit": false,
      "t": 110571.31799999943,
      "d": 214.28549999999814,
      "v": 127
    },
    {
      "midi": 30,
      "hit": false,
      "t": 110571.31799999981,
      "d": 830.3563124999928,
      "v": 70
    },
    {
      "midi": 66,
      "hit": false,
      "t": 110571.31799999985,
      "d": 142.8570000000036,
      "v": 70
    },
    {
      "midi": 74,
      "hit": false,
      "t": 110571.31799999985,
      "d": 160.7141249999986,
      "v": 70
    },
    {
      "midi": 71,
      "hit": false,
      "t": 110571.31799999985,
      "d": 174.1069687499985,
      "v": 70
    },
    {
      "midi": 42,
      "hit": false,
      "t": 110785.60349999943,
      "d": 66.96421874999942,
      "v": 110
    },
    {
      "midi": 66,
      "hit": false,
      "t": 110785.60349999985,
      "d": 160.7141249999986,
      "v": 70
    },
    {
      "midi": 73,
      "hit": false,
      "t": 110785.60349999985,
      "d": 178.5712499999936,
      "v": 70
    },
    {
      "midi": 71,
      "hit": false,
      "t": 110785.60349999985,
      "d": 187.49981249999837,
      "v": 70
    },
    {
      "midi": 42,
      "hit": false,
      "t": 110892.74624999943,
      "d": 93.74990624999919,
      "v": 110
    },
    {
      "midi": 30,
      "hit": false,
      "t": 110999.88899999943,
      "d": 214.28549999999814,
      "v": 127
    },
    {
      "midi": 59,
      "hit": false,
      "t": 111120.42459374995,
      "d": 1999.9979999999923,
      "v": 50
    },
    {
      "midi": 55,
      "hit": false,
      "t": 111120.42459374995,
      "d": 2022.319406249997,
      "v": 50
    },
    {
      "midi": 62,
      "hit": false,
      "t": 111124.88887499995,
      "d": 1982.1408749999973,
      "v": 50
    },
    {
      "midi": 43,
      "hit": false,
      "t": 111151.67456249995,
      "d": 1071.4274999999907,
      "v": 50
    },
    {
      "midi": 42,
      "hit": false,
      "t": 111214.17449999943,
      "d": 66.96421874999942,
      "v": 110
    },
    {
      "midi": 71,
      "hit": false,
      "t": 111214.17449999985,
      "d": 174.1069687499985,
      "v": 70
    },
    {
      "midi": 67,
      "hit": false,
      "t": 111214.17449999985,
      "d": 183.03553125000326,
      "v": 70
    },
    {
      "midi": 74,
      "hit": false,
      "t": 111214.17449999985,
      "d": 187.49981249999837,
      "v": 70
    },
    {
      "midi": 42,
      "hit": false,
      "t": 111321.31724999943,
      "d": 75.89278125000419,
      "v": 110
    },
    {
      "midi": 55,
      "hit": false,
      "t": 111388.28146875,
      "d": 888.3919687499874,
      "v": 65
    },
    {
      "midi": 31,
      "hit": false,
      "t": 111428.45999999942,
      "d": 214.28549999999814,
      "v": 127
    },
    {
      "midi": 31,
      "hit": false,
      "t": 111428.4599999998,
      "d": 866.0705625000119,
      "v": 70
    },
    {
      "midi": 43,
      "hit": false,
      "t": 111642.74549999942,
      "d": 80.3570624999993,
      "v": 110
    },
    {
      "midi": 67,
      "hit": false,
      "t": 111642.74549999984,
      "d": 120.53559374999895,
      "v": 70
    },
    {
      "midi": 71,
      "hit": false,
      "t": 111642.74549999984,
      "d": 133.92843749999884,
      "v": 70
    },
    {
      "midi": 74,
      "hit": false,
      "t": 111642.74549999984,
      "d": 133.92843749999884,
      "v": 70
    },
    {
      "midi": 43,
      "hit": false,
      "t": 111749.88824999942,
      "d": 80.3570624999993,
      "v": 110
    },
    {
      "midi": 31,
      "hit": false,
      "t": 111857.03099999942,
      "d": 214.28549999999814,
      "v": 127
    },
    {
      "midi": 67,
      "hit": false,
      "t": 111857.03099999984,
      "d": 196.42837500000314,
      "v": 70
    },
    {
      "midi": 71,
      "hit": false,
      "t": 111857.03099999984,
      "d": 196.42837500000314,
      "v": 70
    },
    {
      "midi": 73,
      "hit": false,
      "t": 111857.03099999984,
      "d": 196.42837500000314,
      "v": 70
    },
    {
      "midi": 43,
      "hit": false,
      "t": 112071.31649999942,
      "d": 80.3570624999993,
      "v": 110
    },
    {
      "midi": 43,
      "hit": false,
      "t": 112178.45924999942,
      "d": 84.82134374999441,
      "v": 110
    },
    {
      "midi": 45,
      "hit": false,
      "t": 112205.24493749994,
      "d": 937.4990625000064,
      "v": 50
    },
    {
      "midi": 57,
      "hit": false,
      "t": 112249.88775,
      "d": 892.8562499999971,
      "v": 65
    },
    {
      "midi": 33,
      "hit": false,
      "t": 112285.60199999942,
      "d": 214.28549999999814,
      "v": 127
    },
    {
      "midi": 33,
      "hit": false,
      "t": 112285.60199999981,
      "d": 870.534843750007,
      "v": 70
    },
    {
      "midi": 67,
      "hit": false,
      "t": 112285.60199999984,
      "d": 214.28549999999814,
      "v": 70
    },
    {
      "midi": 71,
      "hit": false,
      "t": 112285.60199999984,
      "d": 218.74978124999325,
      "v": 70
    },
    {
      "midi": 74,
      "hit": false,
      "t": 112285.60199999984,
      "d": 227.67834374999802,
      "v": 70
    },
    {
      "midi": 45,
      "hit": false,
      "t": 112499.88749999942,
      "d": 66.96421874999942,
      "v": 110
    },
    {
      "midi": 45,
      "hit": false,
      "t": 112607.03024999941,
      "d": 93.74990624999919,
      "v": 110
    },
    {
      "midi": 33,
      "hit": false,
      "t": 112714.17299999941,
      "d": 214.28549999999814,
      "v": 127
    },
    {
      "midi": 67,
      "hit": false,
      "t": 112714.17299999984,
      "d": 223.2140625000029,
      "v": 70
    },
    {
      "midi": 71,
      "hit": false,
      "t": 112714.17299999984,
      "d": 232.14262500000768,
      "v": 70
    },
    {
      "midi": 76,
      "hit": false,
      "t": 112714.17299999984,
      "d": 245.53546875000757,
      "v": 70
    },
    {
      "midi": 45,
      "hit": false,
      "t": 112928.45849999941,
      "d": 66.96421874999942,
      "v": 110
    },
    {
      "midi": 45,
      "hit": false,
      "t": 113035.60124999941,
      "d": 75.89278125000419,
      "v": 110
    },
    {
      "midi": 23,
      "hit": false,
      "t": 113142.74399999941,
      "d": 214.28549999999814,
      "v": 127
    },
    {
      "midi": 35,
      "hit": false,
      "t": 113142.74399999982,
      "d": 223.2140625000029,
      "v": 65
    },
    {
      "midi": 66,
      "hit": false,
      "t": 113142.74399999995,
      "d": 6790.171781249999,
      "v": 35
    },
    {
      "midi": 59,
      "hit": false,
      "t": 113142.74399999995,
      "d": 6852.6717187500035,
      "v": 35
    },
    {
      "midi": 62,
      "hit": false,
      "t": 113142.74399999995,
      "d": 6861.600281250008,
      "v": 35
    },
    {
      "midi": 35,
      "hit": false,
      "t": 113357.02949999941,
      "d": 80.3570624999993,
      "v": 110
    },
    {
      "midi": 47,
      "hit": false,
      "t": 113357.02949999982,
      "d": 223.2140625000029,
      "v": 65
    },
    {
      "midi": 35,
      "hit": false,
      "t": 113464.1722499994,
      "d": 80.3570624999993,
      "v": 110
    },
    {
      "midi": 23,
      "hit": false,
      "t": 113571.3149999994,
      "d": 214.28549999999814,
      "v": 127
    },
    {
      "midi": 35,
      "hit": false,
      "t": 113571.31499999981,
      "d": 196.42837500000314,
      "v": 65
    },
    {
      "midi": 35,
      "hit": false,
      "t": 113785.6004999994,
      "d": 80.3570624999993,
      "v": 110
    },
    {
      "midi": 47,
      "hit": false,
      "t": 113785.60049999981,
      "d": 218.74978124999325,
      "v": 65
    },
    {
      "midi": 35,
      "hit": false,
      "t": 113892.7432499994,
      "d": 84.82134374999441,
      "v": 110
    },
    {
      "midi": 23,
      "hit": false,
      "t": 113999.8859999994,
      "d": 214.28549999999814,
      "v": 127
    },
    {
      "midi": 35,
      "hit": false,
      "t": 113999.88599999981,
      "d": 196.4283749999886,
      "v": 65
    },
    {
      "midi": 78,
      "hit": false,
      "t": 114004.35028125,
      "d": 124.99987499999406,
      "v": 105
    },
    {
      "midi": 35,
      "hit": false,
      "t": 114214.1714999994,
      "d": 80.3570624999993,
      "v": 110
    },
    {
      "midi": 47,
      "hit": false,
      "t": 114214.1714999998,
      "d": 214.28549999999814,
      "v": 65
    },
    {
      "midi": 78,
      "hit": false,
      "t": 114214.17149999998,
      "d": 111.60703124999418,
      "v": 105
    },
    {
      "midi": 35,
      "hit": false,
      "t": 114321.3142499994,
      "d": 80.3570624999993,
      "v": 110
    },
    {
      "midi": 23,
      "hit": false,
      "t": 114428.4569999994,
      "d": 214.28549999999814,
      "v": 127
    },
    {
      "midi": 35,
      "hit": false,
      "t": 114428.45699999979,
      "d": 196.42837500000314,
      "v": 65
    },
    {
      "midi": 78,
      "hit": false,
      "t": 114437.38556249997,
      "d": 84.82134374999441,
      "v": 105
    },
    {
      "midi": 35,
      "hit": false,
      "t": 114642.7424999994,
      "d": 80.3570624999993,
      "v": 110
    },
    {
      "midi": 47,
      "hit": false,
      "t": 114642.74249999979,
      "d": 223.2140625000029,
      "v": 65
    },
    {
      "midi": 78,
      "hit": false,
      "t": 114665.06390624997,
      "d": 410.7138750000013,
      "v": 105
    },
    {
      "midi": 35,
      "hit": false,
      "t": 114749.8852499994,
      "d": 84.82134374999441,
      "v": 110
    },
    {
      "midi": 23,
      "hit": false,
      "t": 114857.0279999994,
      "d": 214.28549999999814,
      "v": 127
    },
    {
      "midi": 35,
      "hit": false,
      "t": 114857.02799999979,
      "d": 183.03553125000326,
      "v": 65
    },
    {
      "midi": 35,
      "hit": false,
      "t": 115071.31349999939,
      "d": 80.3570624999993,
      "v": 110
    },
    {
      "midi": 47,
      "hit": false,
      "t": 115071.31349999979,
      "d": 218.74978124999325,
      "v": 65
    },
    {
      "midi": 79,
      "hit": false,
      "t": 115093.63490624996,
      "d": 165.1784062499937,
      "v": 105
    },
    {
      "midi": 35,
      "hit": false,
      "t": 115178.45624999939,
      "d": 80.3570624999993,
      "v": 110
    },
    {
      "midi": 78,
      "hit": false,
      "t": 115272.20615624996,
      "d": 187.49981249999837,
      "v": 105
    },
    {
      "midi": 23,
      "hit": false,
      "t": 115285.59899999939,
      "d": 214.28549999999814,
      "v": 127
    },
    {
      "midi": 35,
      "hit": false,
      "t": 115285.59899999978,
      "d": 196.4283749999886,
      "v": 65
    },
    {
      "midi": 76,
      "hit": false,
      "t": 115495.42021874996,
      "d": 415.1781562499964,
      "v": 105
    },
    {
      "midi": 35,
      "hit": false,
      "t": 115499.88449999939,
      "d": 80.3570624999993,
      "v": 110
    },
    {
      "midi": 47,
      "hit": false,
      "t": 115499.88449999977,
      "d": 214.28549999999814,
      "v": 65
    },
    {
      "midi": 35,
      "hit": false,
      "t": 115607.02724999939,
      "d": 84.82134374999441,
      "v": 110
    },
    {
      "midi": 23,
      "hit": false,
      "t": 115714.16999999939,
      "d": 214.28549999999814,
      "v": 127
    },
    {
      "midi": 35,
      "hit": false,
      "t": 115714.16999999977,
      "d": 191.96409374999348,
      "v": 65
    },
    {
      "midi": 35,
      "hit": false,
      "t": 115928.45549999939,
      "d": 80.3570624999993,
      "v": 110
    },
    {
      "midi": 47,
      "hit": false,
      "t": 115928.45549999976,
      "d": 218.74978124999325,
      "v": 65
    },
    {
      "midi": 74,
      "hit": false,
      "t": 115937.38406249996,
      "d": 352.67821875000664,
      "v": 105
    },
    {
      "midi": 35,
      "hit": false,
      "t": 116035.59824999938,
      "d": 80.3570624999993,
      "v": 110
    },
    {
      "midi": 23,
      "hit": false,
      "t": 116142.74099999938,
      "d": 214.28549999999814,
      "v": 127
    },
    {
      "midi": 35,
      "hit": false,
      "t": 116142.74099999976,
      "d": 196.4283749999886,
      "v": 65
    },
    {
      "midi": 35,
      "hit": false,
      "t": 116357.02649999938,
      "d": 80.3570624999993,
      "v": 110
    },
    {
      "midi": 47,
      "hit": false,
      "t": 116357.02649999975,
      "d": 236.6069062500028,
      "v": 65
    },
    {
      "midi": 78,
      "hit": false,
      "t": 116361.49078124996,
      "d": 504.46378125000047,
      "v": 105
    },
    {
      "midi": 35,
      "hit": false,
      "t": 116464.16924999938,
      "d": 84.82134374999441,
      "v": 110
    },
    {
      "midi": 23,
      "hit": false,
      "t": 116571.31199999938,
      "d": 214.28549999999814,
      "v": 127
    },
    {
      "midi": 35,
      "hit": false,
      "t": 116571.31199999974,
      "d": 196.42837500000314,
      "v": 65
    },
    {
      "midi": 35,
      "hit": false,
      "t": 116785.59749999938,
      "d": 80.3570624999993,
      "v": 110
    },
    {
      "midi": 47,
      "hit": false,
      "t": 116785.59749999974,
      "d": 214.28549999999814,
      "v": 65
    },
    {
      "midi": 35,
      "hit": false,
      "t": 116892.74024999938,
      "d": 80.3570624999993,
      "v": 110
    },
    {
      "midi": 23,
      "hit": false,
      "t": 116999.88299999938,
      "d": 214.28549999999814,
      "v": 127
    },
    {
      "midi": 35,
      "hit": false,
      "t": 116999.88299999974,
      "d": 178.5712499999936,
      "v": 65
    },
    {
      "midi": 35,
      "hit": false,
      "t": 117214.16849999937,
      "d": 80.3570624999993,
      "v": 110
    },
    {
      "midi": 47,
      "hit": false,
      "t": 117214.16849999974,
      "d": 218.74978124999325,
      "v": 65
    },
    {
      "midi": 35,
      "hit": false,
      "t": 117321.31124999937,
      "d": 84.82134374999441,
      "v": 110
    },
    {
      "midi": 23,
      "hit": false,
      "t": 117428.45399999937,
      "d": 214.28549999999814,
      "v": 127
    },
    {
      "midi": 35,
      "hit": false,
      "t": 117428.45399999974,
      "d": 205.35693749999336,
      "v": 65
    },
    {
      "midi": 78,
      "hit": false,
      "t": 117428.45399999995,
      "d": 111.60703124999418,
      "v": 105
    },
    {
      "midi": 78,
      "hit": false,
      "t": 117633.81093749995,
      "d": 93.74990624999919,
      "v": 105
    },
    {
      "midi": 35,
      "hit": false,
      "t": 117642.73949999937,
      "d": 80.3570624999993,
      "v": 110
    },
    {
      "midi": 47,
      "hit": false,
      "t": 117642.73949999973,
      "d": 214.28549999999814,
      "v": 65
    },
    {
      "midi": 35,
      "hit": false,
      "t": 117749.88224999937,
      "d": 80.3570624999993,
      "v": 110
    },
    {
      "midi": 78,
      "hit": false,
      "t": 117834.70359374995,
      "d": 93.74990624999919,
      "v": 105
    },
    {
      "midi": 23,
      "hit": false,
      "t": 117857.02499999937,
      "d": 214.28549999999814,
      "v": 127
    },
    {
      "midi": 35,
      "hit": false,
      "t": 117857.02499999973,
      "d": 187.49981249999837,
      "v": 65
    },
    {
      "midi": 35,
      "hit": false,
      "t": 118071.31049999937,
      "d": 80.3570624999993,
      "v": 110
    },
    {
      "midi": 47,
      "hit": false,
      "t": 118071.31049999973,
      "d": 178.5712499999936,
      "v": 65
    },
    {
      "midi": 78,
      "hit": false,
      "t": 118084.70334374995,
      "d": 428.5709999999963,
      "v": 105
    },
    {
      "midi": 35,
      "hit": false,
      "t": 118178.45324999937,
      "d": 84.82134374999441,
      "v": 110
    },
    {
      "midi": 55,
      "hit": false,
      "t": 118218.63178124995,
      "d": 1741.0696874999994,
      "v": 35
    },
    {
      "midi": 31,
      "hit": false,
      "t": 118285.59599999936,
      "d": 214.28549999999814,
      "v": 127
    },
    {
      "midi": 31,
      "hit": false,
      "t": 118285.59599999973,
      "d": 205.35693749999336,
      "v": 65
    },
    {
      "midi": 43,
      "hit": false,
      "t": 118499.88149999936,
      "d": 80.3570624999993,
      "v": 110
    },
    {
      "midi": 43,
      "hit": false,
      "t": 118499.88149999973,
      "d": 232.14262499999313,
      "v": 65
    },
    {
      "midi": 79,
      "hit": false,
      "t": 118522.20290624995,
      "d": 174.1069687499985,
      "v": 105
    },
    {
      "midi": 43,
      "hit": false,
      "t": 118607.02424999936,
      "d": 80.3570624999993,
      "v": 110
    },
    {
      "midi": 31,
      "hit": false,
      "t": 118714.16699999936,
      "d": 214.28549999999814,
      "v": 127
    },
    {
      "midi": 31,
      "hit": false,
      "t": 118714.16699999972,
      "d": 196.4283749999886,
      "v": 65
    },
    {
      "midi": 78,
      "hit": false,
      "t": 118727.55984374994,
      "d": 147.32128124999872,
      "v": 105
    },
    {
      "midi": 43,
      "hit": false,
      "t": 118928.45249999936,
      "d": 80.3570624999993,
      "v": 110
    },
    {
      "midi": 43,
      "hit": false,
      "t": 118928.45249999971,
      "d": 209.82121875000303,
      "v": 65
    },
    {
      "midi": 76,
      "hit": false,
      "t": 118937.38106249995,
      "d": 374.99962499999674,
      "v": 105
    },
    {
      "midi": 43,
      "hit": false,
      "t": 119035.59524999936,
      "d": 84.82134374999441,
      "v": 110
    },
    {
      "midi": 31,
      "hit": false,
      "t": 119142.73799999936,
      "d": 214.28549999999814,
      "v": 127
    },
    {
      "midi": 31,
      "hit": false,
      "t": 119142.7379999997,
      "d": 196.42837500000314,
      "v": 65
    },
    {
      "midi": 43,
      "hit": false,
      "t": 119357.02349999936,
      "d": 80.3570624999993,
      "v": 110
    },
    {
      "midi": 43,
      "hit": false,
      "t": 119357.0234999997,
      "d": 241.0711874999979,
      "v": 65
    },
    {
      "midi": 78,
      "hit": false,
      "t": 119361.48778124995,
      "d": 299.1068437500071,
      "v": 105
    },
    {
      "midi": 43,
      "hit": false,
      "t": 119464.16624999935,
      "d": 80.3570624999993,
      "v": 110
    },
    {
      "midi": 31,
      "hit": false,
      "t": 119571.30899999935,
      "d": 214.28549999999814,
      "v": 127
    },
    {
      "midi": 31,
      "hit": false,
      "t": 119571.3089999997,
      "d": 205.35693749999336,
      "v": 65
    },
    {
      "midi": 76,
      "hit": false,
      "t": 119772.20165624995,
      "d": 629.4636562499945,
      "v": 105
    },
    {
      "midi": 43,
      "hit": false,
      "t": 119785.59449999935,
      "d": 80.3570624999993,
      "v": 110
    },
    {
      "midi": 43,
      "hit": false,
      "t": 119785.5944999997,
      "d": 209.82121875000303,
      "v": 65
    },
    {
      "midi": 43,
      "hit": false,
      "t": 119892.73724999935,
      "d": 84.82134374999441,
      "v": 110
    },
    {
      "midi": 64,
      "hit": false,
      "t": 119941.84434374995,
      "d": 6915.171656250008,
      "v": 35
    },
    {
      "midi": 57,
      "hit": false,
      "t": 119946.30862499995,
      "d": 1763.3910937500186,
      "v": 35
    },
    {
      "midi": 61,
      "hit": false,
      "t": 119950.77290624994,
      "d": 1736.6054062500189,
      "v": 35
    },
    {
      "midi": 33,
      "hit": false,
      "t": 119999.87999999935,
      "d": 214.28549999999814,
      "v": 127
    },
    {
      "midi": 33,
      "hit": false,
      "t": 119999.8799999997,
      "d": 214.28549999999814,
      "v": 65
    },
    {
      "midi": 45,
      "hit": false,
      "t": 120214.16549999935,
      "d": 80.3570624999993,
      "v": 110
    },
    {
      "midi": 45,
      "hit": false,
      "t": 120214.1654999997,
      "d": 232.14262499999313,
      "v": 65
    },
    {
      "midi": 45,
      "hit": false,
      "t": 120321.30824999935,
      "d": 80.3570624999993,
      "v": 110
    },
    {
      "midi": 33,
      "hit": false,
      "t": 120428.45099999935,
      "d": 214.28549999999814,
      "v": 127
    },
    {
      "midi": 33,
      "hit": false,
      "t": 120428.4509999997,
      "d": 218.74978124999325,
      "v": 65
    },
    {
      "midi": 45,
      "hit": false,
      "t": 120642.73649999934,
      "d": 80.3570624999993,
      "v": 110
    },
    {
      "midi": 45,
      "hit": false,
      "t": 120642.7364999997,
      "d": 236.6069062500028,
      "v": 65
    },
    {
      "midi": 45,
      "hit": false,
      "t": 120749.87924999934,
      "d": 84.82134374999441,
      "v": 110
    },
    {
      "midi": 33,
      "hit": false,
      "t": 120857.02199999934,
      "d": 214.28549999999814,
      "v": 127
    },
    {
      "midi": 33,
      "hit": false,
      "t": 120857.02199999969,
      "d": 200.89265624999825,
      "v": 65
    },
    {
      "midi": 76,
      "hit": false,
      "t": 120865.95056249994,
      "d": 200.89265624999825,
      "v": 105
    },
    {
      "midi": 78,
      "hit": false,
      "t": 121062.37893749995,
      "d": 209.82121874998847,
      "v": 105
    },
    {
      "midi": 45,
      "hit": false,
      "t": 121071.30749999934,
      "d": 80.3570624999993,
      "v": 110
    },
    {
      "midi": 45,
      "hit": false,
      "t": 121071.30749999969,
      "d": 209.82121875000303,
      "v": 65
    },
    {
      "midi": 45,
      "hit": false,
      "t": 121178.45024999934,
      "d": 80.3570624999993,
      "v": 110
    },
    {
      "midi": 79,
      "hit": false,
      "t": 121276.66443749993,
      "d": 107.14274999999907,
      "v": 105
    },
    {
      "midi": 33,
      "hit": false,
      "t": 121285.59299999934,
      "d": 214.28549999999814,
      "v": 127
    },
    {
      "midi": 33,
      "hit": false,
      "t": 121285.59299999969,
      "d": 187.49981249999837,
      "v": 65
    },
    {
      "midi": 45,
      "hit": false,
      "t": 121499.87849999934,
      "d": 80.3570624999993,
      "v": 110
    },
    {
      "midi": 45,
      "hit": false,
      "t": 121499.87849999969,
      "d": 209.82121875000303,
      "v": 65
    },
    {
      "midi": 81,
      "hit": false,
      "t": 121499.87849999993,
      "d": 611.6065312499995,
      "v": 105
    },
    {
      "midi": 45,
      "hit": false,
      "t": 121607.02124999934,
      "d": 84.82134374999441,
      "v": 110
    },
    {
      "midi": 55,
      "hit": false,
      "t": 121647.19978124996,
      "d": 1772.3196562499943,
      "v": 35
    },
    {
      "midi": 52,
      "hit": false,
      "t": 121656.12834374997,
      "d": 1758.9268124999944,
      "v": 35
    },
    {
      "midi": 59,
      "hit": false,
      "t": 121673.98546874996,
      "d": 1758.9268124999944,
      "v": 35
    },
    {
      "midi": 28,
      "hit": false,
      "t": 121714.16399999933,
      "d": 214.28549999999814,
      "v": 127
    },
    {
      "midi": 28,
      "hit": false,
      "t": 121714.16399999968,
      "d": 227.67834374999802,
      "v": 65
    },
    {
      "midi": 40,
      "hit": false,
      "t": 121928.44949999933,
      "d": 80.3570624999993,
      "v": 110
    },
    {
      "midi": 40,
      "hit": false,
      "t": 121928.44949999968,
      "d": 214.28549999999814,
      "v": 65
    },
    {
      "midi": 40,
      "hit": false,
      "t": 122035.59224999933,
      "d": 80.3570624999993,
      "v": 110
    },
    {
      "midi": 28,
      "hit": false,
      "t": 122142.73499999933,
      "d": 214.28549999999814,
      "v": 127
    },
    {
      "midi": 28,
      "hit": false,
      "t": 122142.73499999968,
      "d": 200.89265624999825,
      "v": 65
    },
    {
      "midi": 40,
      "hit": false,
      "t": 122357.02049999933,
      "d": 80.3570624999993,
      "v": 110
    },
    {
      "midi": 40,
      "hit": false,
      "t": 122357.02049999968,
      "d": 223.2140625000029,
      "v": 65
    },
    {
      "midi": 40,
      "hit": false,
      "t": 122464.16324999933,
      "d": 84.82134374999441,
      "v": 110
    },
    {
      "midi": 81,
      "hit": false,
      "t": 122540.05603124993,
      "d": 205.35693749999336,
      "v": 105
    },
    {
      "midi": 28,
      "hit": false,
      "t": 122571.30599999933,
      "d": 214.28549999999814,
      "v": 127
    },
    {
      "midi": 28,
      "hit": false,
      "t": 122571.30599999968,
      "d": 200.89265624999825,
      "v": 65
    },
    {
      "midi": 79,
      "hit": false,
      "t": 122749.87724999992,
      "d": 232.14262499999313,
      "v": 105
    },
    {
      "midi": 40,
      "hit": false,
      "t": 122785.59149999933,
      "d": 80.3570624999993,
      "v": 110
    },
    {
      "midi": 40,
      "hit": false,
      "t": 122785.59149999967,
      "d": 223.2140625000029,
      "v": 65
    },
    {
      "midi": 40,
      "hit": false,
      "t": 122892.73424999932,
      "d": 80.3570624999993,
      "v": 110
    },
    {
      "midi": 78,
      "hit": false,
      "t": 122982.01987499991,
      "d": 124.99987499999406,
      "v": 105
    },
    {
      "midi": 28,
      "hit": false,
      "t": 122999.87699999932,
      "d": 214.28549999999814,
      "v": 127
    },
    {
      "midi": 28,
      "hit": false,
      "t": 122999.87699999967,
      "d": 174.1069687499985,
      "v": 65
    },
    {
      "midi": 78,
      "hit": false,
      "t": 123196.30537499991,
      "d": 245.53546874999302,
      "v": 105
    },
    {
      "midi": 40,
      "hit": false,
      "t": 123214.16249999932,
      "d": 80.3570624999993,
      "v": 110
    },
    {
      "midi": 40,
      "hit": false,
      "t": 123214.16249999967,
      "d": 205.35693749999336,
      "v": 65
    },
    {
      "midi": 40,
      "hit": false,
      "t": 123321.30524999932,
      "d": 84.82134374999441,
      "v": 110
    },
    {
      "midi": 57,
      "hit": false,
      "t": 123374.87662499996,
      "d": 1785.7124999999942,
      "v": 35
    },
    {
      "midi": 61,
      "hit": false,
      "t": 123379.34090624996,
      "d": 3477.6750937500037,
      "v": 35
    },
    {
      "midi": 76,
      "hit": false,
      "t": 123423.9837187499,
      "d": 544.6423125000001,
      "v": 105
    },
    {
      "midi": 33,
      "hit": false,
      "t": 123428.44799999932,
      "d": 214.28549999999814,
      "v": 127
    },
    {
      "midi": 33,
      "hit": false,
      "t": 123428.44799999967,
      "d": 245.53546874999302,
      "v": 65
    },
    {
      "midi": 45,
      "hit": false,
      "t": 123642.73349999932,
      "d": 80.3570624999993,
      "v": 110
    },
    {
      "midi": 45,
      "hit": false,
      "t": 123642.73349999967,
      "d": 236.6069062500028,
      "v": 65
    },
    {
      "midi": 45,
      "hit": false,
      "t": 123749.87624999932,
      "d": 80.3570624999993,
      "v": 110
    },
    {
      "midi": 33,
      "hit": false,
      "t": 123857.01899999932,
      "d": 214.28549999999814,
      "v": 127
    },
    {
      "midi": 33,
      "hit": false,
      "t": 123857.01899999967,
      "d": 205.35693750000792,
      "v": 65
    },
    {
      "midi": 45,
      "hit": false,
      "t": 124071.30449999931,
      "d": 80.3570624999993,
      "v": 110
    },
    {
      "midi": 45,
      "hit": false,
      "t": 124071.30449999968,
      "d": 191.96409374999348,
      "v": 65
    },
    {
      "midi": 45,
      "hit": false,
      "t": 124178.44724999931,
      "d": 84.82134374999441,
      "v": 110
    },
    {
      "midi": 33,
      "hit": false,
      "t": 124285.58999999931,
      "d": 214.28549999999814,
      "v": 127
    },
    {
      "midi": 33,
      "hit": false,
      "t": 124285.58999999968,
      "d": 196.42837500000314,
      "v": 65
    },
    {
      "midi": 76,
      "hit": false,
      "t": 124298.98284374991,
      "d": 187.49981249999837,
      "v": 105
    },
    {
      "midi": 78,
      "hit": false,
      "t": 124468.62553124991,
      "d": 249.99974999998813,
      "v": 105
    },
    {
      "midi": 45,
      "hit": false,
      "t": 124499.87549999931,
      "d": 80.3570624999993,
      "v": 110
    },
    {
      "midi": 45,
      "hit": false,
      "t": 124499.87549999967,
      "d": 232.14262499999313,
      "v": 65
    },
    {
      "midi": 45,
      "hit": false,
      "t": 124607.01824999931,
      "d": 80.3570624999993,
      "v": 110
    },
    {
      "midi": 79,
      "hit": false,
      "t": 124705.2324374999,
      "d": 232.14262499999313,
      "v": 105
    },
    {
      "midi": 33,
      "hit": false,
      "t": 124714.16099999931,
      "d": 214.28549999999814,
      "v": 127
    },
    {
      "midi": 33,
      "hit": false,
      "t": 124714.16099999967,
      "d": 196.4283749999886,
      "v": 65
    },
    {
      "midi": 45,
      "hit": false,
      "t": 124928.4464999993,
      "d": 80.3570624999993,
      "v": 110
    },
    {
      "midi": 45,
      "hit": false,
      "t": 124928.44649999966,
      "d": 200.89265624999825,
      "v": 65
    },
    {
      "midi": 81,
      "hit": false,
      "t": 124937.3750624999,
      "d": 428.5709999999963,
      "v": 105
    },
    {
      "midi": 45,
      "hit": false,
      "t": 125035.5892499993,
      "d": 84.82134374999441,
      "v": 110
    },
    {
      "midi": 54,
      "hit": false,
      "t": 125084.69634374995,
      "d": 1772.3196562500088,
      "v": 35
    },
    {
      "midi": 58,
      "hit": false,
      "t": 125107.01774999996,
      "d": 1749.9982500000042,
      "v": 35
    },
    {
      "midi": 30,
      "hit": false,
      "t": 125142.7319999993,
      "d": 214.28549999999814,
      "v": 127
    },
    {
      "midi": 30,
      "hit": false,
      "t": 125142.73199999965,
      "d": 232.14262499999313,
      "v": 65
    },
    {
      "midi": 42,
      "hit": false,
      "t": 125357.0174999993,
      "d": 80.3570624999993,
      "v": 110
    },
    {
      "midi": 42,
      "hit": false,
      "t": 125357.01749999965,
      "d": 223.2140625000029,
      "v": 65
    },
    {
      "midi": 79,
      "hit": false,
      "t": 125379.33890624989,
      "d": 366.0710625000065,
      "v": 105
    },
    {
      "midi": 42,
      "hit": false,
      "t": 125464.1602499993,
      "d": 80.3570624999993,
      "v": 110
    },
    {
      "midi": 30,
      "hit": false,
      "t": 125571.3029999993,
      "d": 214.28549999999814,
      "v": 127
    },
    {
      "midi": 30,
      "hit": false,
      "t": 125571.30299999965,
      "d": 209.82121875000303,
      "v": 65
    },
    {
      "midi": 42,
      "hit": false,
      "t": 125785.5884999993,
      "d": 80.3570624999993,
      "v": 110
    },
    {
      "midi": 42,
      "hit": false,
      "t": 125785.58849999965,
      "d": 223.2140625000029,
      "v": 65
    },
    {
      "midi": 78,
      "hit": false,
      "t": 125785.5884999999,
      "d": 428.5710000000108,
      "v": 105
    },
    {
      "midi": 42,
      "hit": false,
      "t": 125892.7312499993,
      "d": 84.82134374999441,
      "v": 110
    },
    {
      "midi": 30,
      "hit": false,
      "t": 125999.8739999993,
      "d": 214.28549999999814,
      "v": 127
    },
    {
      "midi": 30,
      "hit": false,
      "t": 125999.87399999965,
      "d": 200.89265624999825,
      "v": 65
    },
    {
      "midi": 79,
      "hit": false,
      "t": 126205.2309374999,
      "d": 325.89253125000687,
      "v": 105
    },
    {
      "midi": 42,
      "hit": false,
      "t": 126214.1594999993,
      "d": 80.3570624999993,
      "v": 110
    },
    {
      "midi": 42,
      "hit": false,
      "t": 126214.15949999965,
      "d": 249.99975000000268,
      "v": 65
    },
    {
      "midi": 42,
      "hit": false,
      "t": 126321.3022499993,
      "d": 80.3570624999993,
      "v": 110
    },
    {
      "midi": 30,
      "hit": false,
      "t": 126428.4449999993,
      "d": 214.28549999999814,
      "v": 127
    },
    {
      "midi": 30,
      "hit": false,
      "t": 126428.44499999964,
      "d": 223.2140625000029,
      "v": 65
    },
    {
      "midi": 76,
      "hit": false,
      "t": 126544.51631249991,
      "d": 312.499687500007,
      "v": 105
    },
    {
      "midi": 42,
      "hit": false,
      "t": 126642.73049999929,
      "d": 80.3570624999993,
      "v": 110
    },
    {
      "midi": 42,
      "hit": false,
      "t": 126642.73049999964,
      "d": 218.74978124999325,
      "v": 65
    },
    {
      "midi": 42,
      "hit": false,
      "t": 126749.87324999929,
      "d": 84.82134374999441,
      "v": 110
    },
    {
      "midi": 23,
      "hit": false,
      "t": 126857.01599999929,
      "d": 214.28549999999814,
      "v": 127
    },
    {
      "midi": 35,
      "hit": false,
      "t": 126857.01599999964,
      "d": 223.2140625000029,
      "v": 65
    },
    {
      "midi": 66,
      "hit": false,
      "t": 126857.01599999996,
      "d": 6790.171781250028,
      "v": 35
    },
    {
      "midi": 59,
      "hit": false,
      "t": 126857.01599999996,
      "d": 6852.671718749989,
      "v": 35
    },
    {
      "midi": 62,
      "hit": false,
      "t": 126857.01599999996,
      "d": 6861.600281249979,
      "v": 35
    },
    {
      "midi": 78,
      "hit": false,
      "t": 126861.48028124991,
      "d": 504.46378125000047,
      "v": 105
    },
    {
      "midi": 35,
      "hit": false,
      "t": 127071.30149999929,
      "d": 80.3570624999993,
      "v": 110
    },
    {
      "midi": 47,
      "hit": false,
      "t": 127071.30149999964,
      "d": 223.2140625000029,
      "v": 65
    },
    {
      "midi": 78,
      "hit": false,
      "t": 127071.3014999999,
      "d": 196.42837500000314,
      "v": 60
    },
    {
      "midi": 35,
      "hit": false,
      "t": 127178.44424999929,
      "d": 80.3570624999993,
      "v": 110
    },
    {
      "midi": 23,
      "hit": false,
      "t": 127285.58699999929,
      "d": 214.28549999999814,
      "v": 127
    },
    {
      "midi": 35,
      "hit": false,
      "t": 127285.58699999964,
      "d": 196.42837500000314,
      "v": 65
    },
    {
      "midi": 35,
      "hit": false,
      "t": 127499.87249999928,
      "d": 80.3570624999993,
      "v": 110
    },
    {
      "midi": 47,
      "hit": false,
      "t": 127499.87249999963,
      "d": 218.74978124999325,
      "v": 65
    },
    {
      "midi": 78,
      "hit": false,
      "t": 127499.8724999999,
      "d": 191.96409374999348,
      "v": 60
    },
    {
      "midi": 35,
      "hit": false,
      "t": 127607.01524999928,
      "d": 84.82134374999441,
      "v": 110
    },
    {
      "midi": 23,
      "hit": false,
      "t": 127714.15799999928,
      "d": 214.28549999999814,
      "v": 127
    },
    {
      "midi": 35,
      "hit": false,
      "t": 127714.15799999963,
      "d": 196.4283749999886,
      "v": 65
    },
    {
      "midi": 78,
      "hit": false,
      "t": 127718.62228124992,
      "d": 107.14274999999907,
      "v": 105
    },
    {
      "midi": 78,
      "hit": false,
      "t": 127919.51493749992,
      "d": 102.67846875000396,
      "v": 105
    },
    {
      "midi": 35,
      "hit": false,
      "t": 127928.44349999928,
      "d": 80.3570624999993,
      "v": 110
    },
    {
      "midi": 47,
      "hit": false,
      "t": 127928.44349999962,
      "d": 214.28549999999814,
      "v": 65
    },
    {
      "midi": 78,
      "hit": false,
      "t": 127928.44349999989,
      "d": 196.42837500000314,
      "v": 60
    },
    {
      "midi": 35,
      "hit": false,
      "t": 128035.58624999928,
      "d": 80.3570624999993,
      "v": 110
    },
    {
      "midi": 78,
      "hit": false,
      "t": 128129.33615624992,
      "d": 111.60703124999418,
      "v": 105
    },
    {
      "midi": 23,
      "hit": false,
      "t": 128142.72899999928,
      "d": 214.28549999999814,
      "v": 127
    },
    {
      "midi": 35,
      "hit": false,
      "t": 128142.72899999961,
      "d": 196.42837500000314,
      "v": 65
    },
    {
      "midi": 78,
      "hit": false,
      "t": 128339.15737499991,
      "d": 468.7495312500105,
      "v": 105
    },
    {
      "midi": 35,
      "hit": false,
      "t": 128357.01449999928,
      "d": 80.3570624999993,
      "v": 110
    },
    {
      "midi": 47,
      "hit": false,
      "t": 128357.01449999961,
      "d": 223.2140625000029,
      "v": 65
    },
    {
      "midi": 78,
      "hit": false,
      "t": 128357.01449999989,
      "d": 191.96409374999348,
      "v": 60
    },
    {
      "midi": 35,
      "hit": false,
      "t": 128464.15724999928,
      "d": 84.82134374999441,
      "v": 110
    },
    {
      "midi": 23,
      "hit": false,
      "t": 128571.29999999928,
      "d": 214.28549999999814,
      "v": 127
    },
    {
      "midi": 35,
      "hit": false,
      "t": 128571.29999999961,
      "d": 183.03553125000326,
      "v": 65
    },
    {
      "midi": 35,
      "hit": false,
      "t": 128785.58549999927,
      "d": 80.3570624999993,
      "v": 110
    },
    {
      "midi": 47,
      "hit": false,
      "t": 128785.58549999961,
      "d": 218.74978124999325,
      "v": 65
    },
    {
      "midi": 78,
      "hit": false,
      "t": 128785.58549999988,
      "d": 187.49981249999837,
      "v": 60
    },
    {
      "midi": 79,
      "hit": false,
      "t": 128798.97834374991,
      "d": 200.89265624999825,
      "v": 105
    },
    {
      "midi": 35,
      "hit": false,
      "t": 128892.72824999927,
      "d": 80.3570624999993,
      "v": 110
    },
    {
      "midi": 78,
      "hit": false,
      "t": 128995.40671874992,
      "d": 214.28549999999814,
      "v": 105
    },
    {
      "midi": 23,
      "hit": false,
      "t": 128999.87099999927,
      "d": 214.28549999999814,
      "v": 127
    },
    {
      "midi": 35,
      "hit": false,
      "t": 128999.8709999996,
      "d": 196.4283749999886,
      "v": 65
    },
    {
      "midi": 35,
      "hit": false,
      "t": 129214.15649999927,
      "d": 80.3570624999993,
      "v": 110
    },
    {
      "midi": 47,
      "hit": false,
      "t": 129214.15649999959,
      "d": 214.28549999999814,
      "v": 65
    },
    {
      "midi": 78,
      "hit": false,
      "t": 129214.15649999988,
      "d": 191.96409374999348,
      "v": 60
    },
    {
      "midi": 76,
      "hit": false,
      "t": 129232.01362499992,
      "d": 410.7138750000013,
      "v": 105
    },
    {
      "midi": 35,
      "hit": false,
      "t": 129321.29924999927,
      "d": 84.82134374999441,
      "v": 110
    },
    {
      "midi": 23,
      "hit": false,
      "t": 129428.44199999927,
      "d": 214.28549999999814,
      "v": 127
    },
    {
      "midi": 35,
      "hit": false,
      "t": 129428.44199999959,
      "d": 191.96409374999348,
      "v": 65
    },
    {
      "midi": 35,
      "hit": false,
      "t": 129642.72749999927,
      "d": 80.3570624999993,
      "v": 110
    },
    {
      "midi": 47,
      "hit": false,
      "t": 129642.72749999959,
      "d": 218.74978124999325,
      "v": 65
    },
    {
      "midi": 78,
      "hit": false,
      "t": 129642.72749999988,
      "d": 200.89265624999825,
      "v": 60
    },
    {
      "midi": 74,
      "hit": false,
      "t": 129656.12034374992,
      "d": 374.99962499999674,
      "v": 105
    },
    {
      "midi": 35,
      "hit": false,
      "t": 129749.87024999927,
      "d": 80.3570624999993,
      "v": 110
    },
    {
      "midi": 23,
      "hit": false,
      "t": 129857.01299999926,
      "d": 214.28549999999814,
      "v": 127
    },
    {
      "midi": 35,
      "hit": false,
      "t": 129857.01299999958,
      "d": 196.4283749999886,
      "v": 65
    },
    {
      "midi": 78,
      "hit": false,
      "t": 130066.83421874992,
      "d": 607.1422500000044,
      "v": 105
    },
    {
      "midi": 35,
      "hit": false,
      "t": 130071.29849999926,
      "d": 80.3570624999993,
      "v": 110
    },
    {
      "midi": 47,
      "hit": false,
      "t": 130071.29849999957,
      "d": 236.6069062500028,
      "v": 65
    },
    {
      "midi": 78,
      "hit": false,
      "t": 130071.29849999987,
      "d": 183.03553125000326,
      "v": 60
    },
    {
      "midi": 35,
      "hit": false,
      "t": 130178.44124999926,
      "d": 84.82134374999441,
      "v": 110
    },
    {
      "midi": 23,
      "hit": false,
      "t": 130285.58399999926,
      "d": 214.28549999999814,
      "v": 127
    },
    {
      "midi": 35,
      "hit": false,
      "t": 130285.58399999957,
      "d": 196.42837500000314,
      "v": 65
    },
    {
      "midi": 35,
      "hit": false,
      "t": 130499.86949999926,
      "d": 80.3570624999993,
      "v": 110
    },
    {
      "midi": 47,
      "hit": false,
      "t": 130499.86949999956,
      "d": 214.28549999999814,
      "v": 65
    },
    {
      "midi": 78,
      "hit": false,
      "t": 130499.86949999987,
      "d": 191.96409374999348,
      "v": 60
    },
    {
      "midi": 35,
      "hit": false,
      "t": 130607.01224999926,
      "d": 80.3570624999993,
      "v": 110
    },
    {
      "midi": 23,
      "hit": false,
      "t": 130714.15499999926,
      "d": 214.28549999999814,
      "v": 127
    },
    {
      "midi": 35,
      "hit": false,
      "t": 130714.15499999956,
      "d": 178.5712499999936,
      "v": 65
    },
    {
      "midi": 35,
      "hit": false,
      "t": 130928.44049999925,
      "d": 80.3570624999993,
      "v": 110
    },
    {
      "midi": 47,
      "hit": false,
      "t": 130928.44049999956,
      "d": 218.74978124999325,
      "v": 65
    },
    {
      "midi": 78,
      "hit": false,
      "t": 130928.44049999987,
      "d": 191.96409375000803,
      "v": 60
    },
    {
      "midi": 35,
      "hit": false,
      "t": 131035.58324999925,
      "d": 84.82134375000896,
      "v": 110
    },
    {
      "midi": 78,
      "hit": false,
      "t": 131129.33315624992,
      "d": 107.14274999999907,
      "v": 105
    },
    {
      "midi": 23,
      "hit": false,
      "t": 131142.72599999927,
      "d": 214.28549999999814,
      "v": 127
    },
    {
      "midi": 35,
      "hit": false,
      "t": 131142.72599999956,
      "d": 205.35693750000792,
      "v": 65
    },
    {
      "midi": 78,
      "hit": false,
      "t": 131343.61865624992,
      "d": 98.21418750000885,
      "v": 105
    },
    {
      "midi": 35,
      "hit": false,
      "t": 131357.01149999927,
      "d": 80.3570624999993,
      "v": 110
    },
    {
      "midi": 47,
      "hit": false,
      "t": 131357.01149999956,
      "d": 214.28549999999814,
      "v": 65
    },
    {
      "midi": 78,
      "hit": false,
      "t": 131357.01149999988,
      "d": 223.21406249998836,
      "v": 60
    },
    {
      "midi": 35,
      "hit": false,
      "t": 131464.15424999926,
      "d": 80.3570624999993,
      "v": 110
    },
    {
      "midi": 78,
      "hit": false,
      "t": 131553.43987499992,
      "d": 84.82134374999441,
      "v": 105
    },
    {
      "midi": 23,
      "hit": false,
      "t": 131571.29699999926,
      "d": 214.28549999999814,
      "v": 127
    },
    {
      "midi": 35,
      "hit": false,
      "t": 131571.29699999955,
      "d": 187.49981249999837,
      "v": 65
    },
    {
      "midi": 78,
      "hit": false,
      "t": 131772.18965624992,
      "d": 437.4995624999865,
      "v": 105
    },
    {
      "midi": 35,
      "hit": false,
      "t": 131785.58249999926,
      "d": 80.3570624999993,
      "v": 110
    },
    {
      "midi": 47,
      "hit": false,
      "t": 131785.58249999955,
      "d": 178.57125000000815,
      "v": 65
    },
    {
      "midi": 78,
      "hit": false,
      "t": 131785.58249999987,
      "d": 200.8926562500128,
      "v": 60
    },
    {
      "midi": 35,
      "hit": false,
      "t": 131892.72524999926,
      "d": 84.82134374999441,
      "v": 110
    },
    {
      "midi": 55,
      "hit": false,
      "t": 131932.90378124997,
      "d": 1741.0696874999849,
      "v": 35
    },
    {
      "midi": 31,
      "hit": false,
      "t": 131999.86799999926,
      "d": 214.28549999999814,
      "v": 127
    },
    {
      "midi": 31,
      "hit": false,
      "t": 131999.86799999955,
      "d": 205.35693750000792,
      "v": 65
    },
    {
      "midi": 43,
      "hit": false,
      "t": 132214.15349999926,
      "d": 80.3570624999993,
      "v": 110
    },
    {
      "midi": 43,
      "hit": false,
      "t": 132214.15349999955,
      "d": 232.14262500000768,
      "v": 65
    },
    {
      "midi": 78,
      "hit": false,
      "t": 132214.1534999999,
      "d": 191.96409374999348,
      "v": 60
    },
    {
      "midi": 79,
      "hit": false,
      "t": 132218.6177812499,
      "d": 200.8926562500128,
      "v": 105
    },
    {
      "midi": 43,
      "hit": false,
      "t": 132321.29624999926,
      "d": 80.3570624999993,
      "v": 110
    },
    {
      "midi": 78,
      "hit": false,
      "t": 132423.9747187499,
      "d": 200.8926562500128,
      "v": 105
    },
    {
      "midi": 31,
      "hit": false,
      "t": 132428.43899999926,
      "d": 214.28549999999814,
      "v": 127
    },
    {
      "midi": 31,
      "hit": false,
      "t": 132428.43899999955,
      "d": 196.4283750000177,
      "v": 65
    },
    {
      "midi": 43,
      "hit": false,
      "t": 132642.72449999925,
      "d": 80.3570624999993,
      "v": 110
    },
    {
      "midi": 43,
      "hit": false,
      "t": 132642.72449999957,
      "d": 209.82121875000303,
      "v": 65
    },
    {
      "midi": 78,
      "hit": false,
      "t": 132642.7244999999,
      "d": 187.49981249999837,
      "v": 60
    },
    {
      "midi": 76,
      "hit": false,
      "t": 132647.18878124992,
      "d": 433.0352812499914,
      "v": 105
    },
    {
      "midi": 43,
      "hit": false,
      "t": 132749.86724999925,
      "d": 84.82134374999441,
      "v": 110
    },
    {
      "midi": 31,
      "hit": false,
      "t": 132857.00999999925,
      "d": 214.28549999999814,
      "v": 127
    },
    {
      "midi": 31,
      "hit": false,
      "t": 132857.00999999957,
      "d": 196.4283749999886,
      "v": 65
    },
    {
      "midi": 43,
      "hit": false,
      "t": 133071.29549999925,
      "d": 80.3570624999993,
      "v": 110
    },
    {
      "midi": 43,
      "hit": false,
      "t": 133071.29549999957,
      "d": 241.0711874999979,
      "v": 65
    },
    {
      "midi": 78,
      "hit": false,
      "t": 133071.2954999999,
      "d": 187.49981249999837,
      "v": 60
    },
    {
      "midi": 78,
      "hit": false,
      "t": 133075.75978124992,
      "d": 406.2495937499916,
      "v": 105
    },
    {
      "midi": 43,
      "hit": false,
      "t": 133178.43824999925,
      "d": 80.3570624999993,
      "v": 110
    },
    {
      "midi": 31,
      "hit": false,
      "t": 133285.58099999925,
      "d": 214.28549999999814,
      "v": 127
    },
    {
      "midi": 31,
      "hit": false,
      "t": 133285.58099999957,
      "d": 205.35693750000792,
      "v": 65
    },
    {
      "midi": 43,
      "hit": false,
      "t": 133499.86649999925,
      "d": 80.3570624999993,
      "v": 110
    },
    {
      "midi": 43,
      "hit": false,
      "t": 133499.86649999957,
      "d": 209.82121875000303,
      "v": 65
    },
    {
      "midi": 78,
      "hit": false,
      "t": 133499.8664999999,
      "d": 187.49981249999837,
      "v": 60
    },
    {
      "midi": 76,
      "hit": false,
      "t": 133504.3307812499,
      "d": 691.9635937499988,
      "v": 105
    },
    {
      "midi": 43,
      "hit": false,
      "t": 133607.00924999925,
      "d": 84.82134374999441,
      "v": 110
    },
    {
      "midi": 64,
      "hit": false,
      "t": 133656.11634374998,
      "d": 6915.171656249993,
      "v": 35
    },
    {
      "midi": 57,
      "hit": false,
      "t": 133660.58062499997,
      "d": 1763.3910937499895,
      "v": 35
    },
    {
      "midi": 61,
      "hit": false,
      "t": 133665.04490624997,
      "d": 1736.6054062499898,
      "v": 35
    },
    {
      "midi": 33,
      "hit": false,
      "t": 133714.15199999925,
      "d": 214.28549999999814,
      "v": 127
    },
    {
      "midi": 33,
      "hit": false,
      "t": 133714.15199999957,
      "d": 214.28549999999814,
      "v": 65
    },
    {
      "midi": 45,
      "hit": false,
      "t": 133928.43749999924,
      "d": 80.3570624999993,
      "v": 110
    },
    {
      "midi": 45,
      "hit": false,
      "t": 133928.43749999956,
      "d": 232.14262500000768,
      "v": 65
    },
    {
      "midi": 76,
      "hit": false,
      "t": 133928.43749999988,
      "d": 191.96409374999348,
      "v": 60
    },
    {
      "midi": 45,
      "hit": false,
      "t": 134035.58024999924,
      "d": 80.3570624999993,
      "v": 110
    },
    {
      "midi": 33,
      "hit": false,
      "t": 134142.72299999924,
      "d": 214.28549999999814,
      "v": 127
    },
    {
      "midi": 33,
      "hit": false,
      "t": 134142.72299999956,
      "d": 218.74978124999325,
      "v": 65
    },
    {
      "midi": 45,
      "hit": false,
      "t": 134357.00849999924,
      "d": 80.3570624999993,
      "v": 110
    },
    {
      "midi": 45,
      "hit": false,
      "t": 134357.00849999956,
      "d": 236.6069062500028,
      "v": 65
    },
    {
      "midi": 76,
      "hit": false,
      "t": 134357.00849999988,
      "d": 209.82121875000303,
      "v": 60
    },
    {
      "midi": 45,
      "hit": false,
      "t": 134464.15124999924,
      "d": 84.82134374999441,
      "v": 110
    },
    {
      "midi": 76,
      "hit": false,
      "t": 134540.0440312499,
      "d": 236.6069062500028,
      "v": 105
    },
    {
      "midi": 33,
      "hit": false,
      "t": 134571.29399999924,
      "d": 214.28549999999814,
      "v": 127
    },
    {
      "midi": 33,
      "hit": false,
      "t": 134571.29399999956,
      "d": 200.8926562500128,
      "v": 65
    },
    {
      "midi": 78,
      "hit": false,
      "t": 134758.7938124999,
      "d": 245.53546875002212,
      "v": 105
    },
    {
      "midi": 45,
      "hit": false,
      "t": 134785.57949999924,
      "d": 80.3570624999993,
      "v": 110
    },
    {
      "midi": 45,
      "hit": false,
      "t": 134785.57949999959,
      "d": 209.82121875000303,
      "v": 65
    },
    {
      "midi": 76,
      "hit": false,
      "t": 134785.57949999988,
      "d": 200.8926562500128,
      "v": 60
    },
    {
      "midi": 45,
      "hit": false,
      "t": 134892.72224999923,
      "d": 80.3570624999993,
      "v": 110
    },
    {
      "midi": 33,
      "hit": false,
      "t": 134999.86499999923,
      "d": 214.28549999999814,
      "v": 127
    },
    {
      "midi": 33,
      "hit": false,
      "t": 134999.86499999958,
      "d": 187.49981249999837,
      "v": 65
    },
    {
      "midi": 79,
      "hit": false,
      "t": 135004.32928124993,
      "d": 205.35693750000792,
      "v": 105
    },
    {
      "midi": 45,
      "hit": false,
      "t": 135214.15049999923,
      "d": 80.3570624999993,
      "v": 110
    },
    {
      "midi": 45,
      "hit": false,
      "t": 135214.15049999958,
      "d": 209.82121875000303,
      "v": 65
    },
    {
      "midi": 76,
      "hit": false,
      "t": 135214.1504999999,
      "d": 165.1784062499937,
      "v": 60
    },
    {
      "midi": 81,
      "hit": false,
      "t": 135227.54334374995,
      "d": 504.46378125000047,
      "v": 105
    },
    {
      "midi": 45,
      "hit": false,
      "t": 135321.29324999923,
      "d": 84.82134374999441,
      "v": 110
    },
    {
      "midi": 55,
      "hit": false,
      "t": 135361.47178124994,
      "d": 1772.3196562500088,
      "v": 35
    },
    {
      "midi": 52,
      "hit": false,
      "t": 135370.40034374993,
      "d": 1758.9268125000235,
      "v": 35
    },
    {
      "midi": 59,
      "hit": false,
      "t": 135388.25746874994,
      "d": 1758.9268125000235,
      "v": 35
    },
    {
      "midi": 28,
      "hit": false,
      "t": 135428.43599999923,
      "d": 214.28549999999814,
      "v": 127
    },
    {
      "midi": 28,
      "hit": false,
      "t": 135428.43599999958,
      "d": 227.67834375001257,
      "v": 65
    },
    {
      "midi": 40,
      "hit": false,
      "t": 135642.72149999923,
      "d": 80.3570624999993,
      "v": 110
    },
    {
      "midi": 40,
      "hit": false,
      "t": 135642.72149999958,
      "d": 214.28550000002724,
      "v": 65
    },
    {
      "midi": 76,
      "hit": false,
      "t": 135642.7214999999,
      "d": 205.35693750000792,
      "v": 60
    },
    {
      "midi": 40,
      "hit": false,
      "t": 135749.86424999923,
      "d": 80.3570624999993,
      "v": 110
    },
    {
      "midi": 28,
      "hit": false,
      "t": 135857.00699999923,
      "d": 214.28549999999814,
      "v": 127
    },
    {
      "midi": 28,
      "hit": false,
      "t": 135857.0069999996,
      "d": 200.8926562500128,
      "v": 65
    },
    {
      "midi": 40,
      "hit": false,
      "t": 136071.29249999922,
      "d": 80.3570624999993,
      "v": 110
    },
    {
      "midi": 40,
      "hit": false,
      "t": 136071.29249999963,
      "d": 223.21406249998836,
      "v": 65
    },
    {
      "midi": 76,
      "hit": false,
      "t": 136071.2924999999,
      "d": 205.35693750000792,
      "v": 60
    },
    {
      "midi": 40,
      "hit": false,
      "t": 136178.43524999922,
      "d": 84.82134374999441,
      "v": 110
    },
    {
      "midi": 81,
      "hit": false,
      "t": 136267.72087499994,
      "d": 227.67834375001257,
      "v": 105
    },
    {
      "midi": 28,
      "hit": false,
      "t": 136285.57799999922,
      "d": 214.28549999999814,
      "v": 127
    },
    {
      "midi": 28,
      "hit": false,
      "t": 136285.57799999963,
      "d": 200.8926562499837,
      "v": 65
    },
    {
      "midi": 40,
      "hit": false,
      "t": 136499.86349999922,
      "d": 80.3570624999993,
      "v": 110
    },
    {
      "midi": 40,
      "hit": false,
      "t": 136499.86349999963,
      "d": 223.21406249998836,
      "v": 65
    },
    {
      "midi": 76,
      "hit": false,
      "t": 136499.8634999999,
      "d": 205.35693750000792,
      "v": 60
    },
    {
      "midi": 79,
      "hit": false,
      "t": 136504.32778124994,
      "d": 218.74978124999325,
      "v": 105
    },
    {
      "midi": 40,
      "hit": false,
      "t": 136607.00624999922,
      "d": 80.3570624999993,
      "v": 110
    },
    {
      "midi": 28,
      "hit": false,
      "t": 136714.14899999922,
      "d": 214.28549999999814,
      "v": 127
    },
    {
      "midi": 28,
      "hit": false,
      "t": 136714.14899999963,
      "d": 174.10696874998393,
      "v": 65
    },
    {
      "midi": 78,
      "hit": false,
      "t": 136723.07756249994,
      "d": 116.07131249998929,
      "v": 105
    },
    {
      "midi": 78,
      "hit": false,
      "t": 136923.97021874992,
      "d": 196.4283749999886,
      "v": 105
    },
    {
      "midi": 40,
      "hit": false,
      "t": 136928.43449999922,
      "d": 80.3570624999993,
      "v": 110
    },
    {
      "midi": 40,
      "hit": false,
      "t": 136928.43449999962,
      "d": 205.35693750000792,
      "v": 65
    },
    {
      "midi": 76,
      "hit": false,
      "t": 136928.4344999999,
      "d": 209.82121875000303,
      "v": 60
    },
    {
      "midi": 40,
      "hit": false,
      "t": 137035.57724999922,
      "d": 84.82134374999441,
      "v": 110
    },
    {
      "midi": 57,
      "hit": false,
      "t": 137089.14862499997,
      "d": 1785.7124999999942,
      "v": 35
    },
    {
      "midi": 61,
      "hit": false,
      "t": 137093.61290624997,
      "d": 3477.6750937500037,
      "v": 35
    },
    {
      "midi": 33,
      "hit": false,
      "t": 137142.71999999922,
      "d": 214.28549999999814,
      "v": 127
    },
    {
      "midi": 33,
      "hit": false,
      "t": 137142.71999999962,
      "d": 245.53546874999302,
      "v": 65
    },
    {
      "midi": 76,
      "hit": false,
      "t": 137142.7199999999,
      "d": 584.8208437499998,
      "v": 105
    },
    {
      "midi": 45,
      "hit": false,
      "t": 137357.0054999992,
      "d": 80.3570624999993,
      "v": 110
    },
    {
      "midi": 45,
      "hit": false,
      "t": 137357.00549999962,
      "d": 236.6069062500028,
      "v": 65
    },
    {
      "midi": 76,
      "hit": false,
      "t": 137357.00549999988,
      "d": 205.35693750000792,
      "v": 60
    },
    {
      "midi": 45,
      "hit": false,
      "t": 137464.1482499992,
      "d": 80.3570624999993,
      "v": 110
    },
    {
      "midi": 33,
      "hit": false,
      "t": 137571.2909999992,
      "d": 214.28549999999814,
      "v": 127
    },
    {
      "midi": 33,
      "hit": false,
      "t": 137571.29099999962,
      "d": 205.35693750000792,
      "v": 65
    },
    {
      "midi": 45,
      "hit": false,
      "t": 137785.5764999992,
      "d": 80.3570624999993,
      "v": 110
    },
    {
      "midi": 45,
      "hit": false,
      "t": 137785.57649999962,
      "d": 191.96409374999348,
      "v": 65
    },
    {
      "midi": 76,
      "hit": false,
      "t": 137785.57649999988,
      "d": 200.8926562500128,
      "v": 60
    },
    {
      "midi": 45,
      "hit": false,
      "t": 137892.7192499992,
      "d": 84.82134374999441,
      "v": 110
    },
    {
      "midi": 76,
      "hit": false,
      "t": 137977.5405937499,
      "d": 218.74978124999325,
      "v": 105
    },
    {
      "midi": 33,
      "hit": false,
      "t": 137999.8619999992,
      "d": 214.28549999999814,
      "v": 127
    },
    {
      "midi": 33,
      "hit": false,
      "t": 137999.86199999962,
      "d": 196.4283749999886,
      "v": 65
    },
    {
      "midi": 78,
      "hit": false,
      "t": 138196.2903749999,
      "d": 178.57125000000815,
      "v": 105
    },
    {
      "midi": 45,
      "hit": false,
      "t": 138214.1474999992,
      "d": 80.3570624999993,
      "v": 110
    },
    {
      "midi": 45,
      "hit": false,
      "t": 138214.1474999996,
      "d": 232.14262500000768,
      "v": 65
    },
    {
      "midi": 76,
      "hit": false,
      "t": 138214.1474999999,
      "d": 191.96409374999348,
      "v": 60
    },
    {
      "midi": 45,
      "hit": false,
      "t": 138321.2902499992,
      "d": 80.3570624999993,
      "v": 110
    },
    {
      "midi": 79,
      "hit": false,
      "t": 138388.25446874992,
      "d": 209.82121875000303,
      "v": 105
    },
    {
      "midi": 33,
      "hit": false,
      "t": 138428.4329999992,
      "d": 214.28549999999814,
      "v": 127
    },
    {
      "midi": 33,
      "hit": false,
      "t": 138428.4329999996,
      "d": 196.4283750000177,
      "v": 65
    },
    {
      "midi": 81,
      "hit": false,
      "t": 138615.93281249993,
      "d": 468.7495312499814,
      "v": 105
    },
    {
      "midi": 45,
      "hit": false,
      "t": 138642.7184999992,
      "d": 80.3570624999993,
      "v": 110
    },
    {
      "midi": 45,
      "hit": false,
      "t": 138642.71849999964,
      "d": 200.8926562500128,
      "v": 65
    },
    {
      "midi": 76,
      "hit": false,
      "t": 138642.7184999999,
      "d": 187.49981249999837,
      "v": 60
    },
    {
      "midi": 45,
      "hit": false,
      "t": 138749.8612499992,
      "d": 84.82134374999441,
      "v": 110
    },
    {
      "midi": 54,
      "hit": false,
      "t": 138798.96834374996,
      "d": 1772.3196562500088,
      "v": 35
    },
    {
      "midi": 58,
      "hit": false,
      "t": 138821.28974999997,
      "d": 1749.9982500000042,
      "v": 35
    },
    {
      "midi": 30,
      "hit": false,
      "t": 138857.0039999992,
      "d": 214.28549999999814,
      "v": 127
    },
    {
      "midi": 30,
      "hit": false,
      "t": 138857.00399999967,
      "d": 232.14262500000768,
      "v": 65
    },
    {
      "midi": 42,
      "hit": false,
      "t": 139071.2894999992,
      "d": 80.3570624999993,
      "v": 110
    },
    {
      "midi": 42,
      "hit": false,
      "t": 139071.28949999966,
      "d": 223.21406249998836,
      "v": 65
    },
    {
      "midi": 76,
      "hit": false,
      "t": 139071.2894999999,
      "d": 187.49981249999837,
      "v": 60
    },
    {
      "midi": 79,
      "hit": false,
      "t": 139075.75378124992,
      "d": 102.67846875000396,
      "v": 105
    },
    {
      "midi": 42,
      "hit": false,
      "t": 139178.4322499992,
      "d": 80.3570624999993,
      "v": 110
    },
    {
      "midi": 79,
      "hit": false,
      "t": 139276.64643749993,
      "d": 174.10696875001304,
      "v": 105
    },
    {
      "midi": 30,
      "hit": false,
      "t": 139285.5749999992,
      "d": 214.28549999999814,
      "v": 127
    },
    {
      "midi": 30,
      "hit": false,
      "t": 139285.57499999966,
      "d": 209.82121875000303,
      "v": 65
    },
    {
      "midi": 42,
      "hit": false,
      "t": 139499.8604999992,
      "d": 80.3570624999993,
      "v": 110
    },
    {
      "midi": 42,
      "hit": false,
      "t": 139499.86049999966,
      "d": 223.21406249998836,
      "v": 65
    },
    {
      "midi": 76,
      "hit": false,
      "t": 139499.8604999999,
      "d": 178.57125000000815,
      "v": 60
    },
    {
      "midi": 78,
      "hit": false,
      "t": 139504.32478124995,
      "d": 437.4995624999865,
      "v": 105
    },
    {
      "midi": 42,
      "hit": false,
      "t": 139607.0032499992,
      "d": 84.82134374999441,
      "v": 110
    },
    {
      "midi": 30,
      "hit": false,
      "t": 139714.1459999992,
      "d": 214.28549999999814,
      "v": 127
    },
    {
      "midi": 30,
      "hit": false,
      "t": 139714.14599999966,
      "d": 200.8926562499837,
      "v": 65
    },
    {
      "midi": 42,
      "hit": false,
      "t": 139928.4314999992,
      "d": 80.3570624999993,
      "v": 110
    },
    {
      "midi": 42,
      "hit": false,
      "t": 139928.43149999966,
      "d": 249.99974999998813,
      "v": 65
    },
    {
      "midi": 76,
      "hit": false,
      "t": 139928.4314999999,
      "d": 187.49981249999837,
      "v": 60
    },
    {
      "midi": 79,
      "hit": false,
      "t": 139937.36006249994,
      "d": 281.249718749983,
      "v": 105
    },
    {
      "midi": 42,
      "hit": false,
      "t": 140035.5742499992,
      "d": 80.3570624999993,
      "v": 110
    },
    {
      "midi": 30,
      "hit": false,
      "t": 140142.7169999992,
      "d": 214.28549999999814,
      "v": 127
    },
    {
      "midi": 30,
      "hit": false,
      "t": 140142.71699999965,
      "d": 223.21406249998836,
      "v": 65
    },
    {
      "midi": 76,
      "hit": false,
      "t": 140249.85974999992,
      "d": 308.0354062500119,
      "v": 105
    },
    {
      "midi": 42,
      "hit": false,
      "t": 140357.0024999992,
      "d": 80.3570624999993,
      "v": 110
    },
    {
      "midi": 42,
      "hit": false,
      "t": 140357.00249999965,
      "d": 218.74978124999325,
      "v": 65
    },
    {
      "midi": 76,
      "hit": false,
      "t": 140357.0024999999,
      "d": 178.57125000000815,
      "v": 60
    },
    {
      "midi": 42,
      "hit": false,
      "t": 140464.1452499992,
      "d": 84.82134374999441,
      "v": 110
    },
    {
      "midi": 78,
      "hit": false,
      "t": 140571.28799999994,
      "d": 401.7853124999965,
      "v": 105
    },
    {
      "midi": 60,
      "hit": false,
      "t": 140571.288,
      "d": 1718.7482812500093,
      "v": 60
    },
    {
      "midi": 81,
      "hit": false,
      "t": 141486.46565624993,
      "d": 254.46403124998324,
      "v": 105
    },
    {
      "midi": 83,
      "hit": false,
      "t": 141732.00112499992,
      "d": 401.7853124999965,
      "v": 105
    },
    {
      "midi": 78,
      "hit": false,
      "t": 142156.10784374992,
      "d": 638.3922187499993,
      "v": 105
    },
    {
      "midi": 23,
      "hit": false,
      "t": 142285.57199999917,
      "d": 214.28549999999814,
      "v": 127
    },
    {
      "midi": 74,
      "hit": false,
      "t": 142285.5719999999,
      "d": 98.21418750000885,
      "v": 127
    },
    {
      "midi": 59,
      "hit": false,
      "t": 142285.572,
      "d": 834.8205937499879,
      "v": 50
    },
    {
      "midi": 47,
      "hit": false,
      "t": 142285.572,
      "d": 866.0705624999828,
      "v": 50
    },
    {
      "midi": 62,
      "hit": false,
      "t": 142285.572,
      "d": 879.4634062499972,
      "v": 50
    },
    {
      "midi": 54,
      "hit": false,
      "t": 142285.572,
      "d": 1428.570000000007,
      "v": 50
    },
    {
      "midi": 86,
      "hit": false,
      "t": 142285.57200000004,
      "d": 852.6777187499974,
      "v": 127
    },
    {
      "midi": 35,
      "hit": false,
      "t": 142499.85749999917,
      "d": 80.3570624999993,
      "v": 110
    },
    {
      "midi": 73,
      "hit": false,
      "t": 142499.8574999999,
      "d": 84.82134374999441,
      "v": 127
    },
    {
      "midi": 35,
      "hit": false,
      "t": 142607.00024999917,
      "d": 80.3570624999993,
      "v": 110
    },
    {
      "midi": 23,
      "hit": false,
      "t": 142714.14299999917,
      "d": 214.28549999999814,
      "v": 127
    },
    {
      "midi": 74,
      "hit": false,
      "t": 142714.1429999999,
      "d": 93.74990625001374,
      "v": 127
    },
    {
      "midi": 35,
      "hit": false,
      "t": 142928.42849999917,
      "d": 80.3570624999993,
      "v": 110
    },
    {
      "midi": 71,
      "hit": false,
      "t": 142928.42849999992,
      "d": 98.21418750000885,
      "v": 127
    },
    {
      "midi": 35,
      "hit": false,
      "t": 143035.57124999916,
      "d": 84.82134374999441,
      "v": 110
    },
    {
      "midi": 61,
      "hit": false,
      "t": 143093.60690624997,
      "d": 656.2493437500088,
      "v": 50
    },
    {
      "midi": 57,
      "hit": false,
      "t": 143111.46403124998,
      "d": 616.0708124999946,
      "v": 50
    },
    {
      "midi": 42,
      "hit": false,
      "t": 143115.92831249998,
      "d": 633.9279375000042,
      "v": 50
    },
    {
      "midi": 30,
      "hit": false,
      "t": 143142.71399999916,
      "d": 214.28549999999814,
      "v": 127
    },
    {
      "midi": 74,
      "hit": false,
      "t": 143142.71399999992,
      "d": 98.21418750000885,
      "v": 127
    },
    {
      "midi": 85,
      "hit": false,
      "t": 143142.71400000004,
      "d": 870.534843750007,
      "v": 127
    },
    {
      "midi": 42,
      "hit": false,
      "t": 143356.99949999916,
      "d": 66.96421875001397,
      "v": 110
    },
    {
      "midi": 73,
      "hit": false,
      "t": 143356.99949999992,
      "d": 89.28562499998952,
      "v": 127
    },
    {
      "midi": 42,
      "hit": false,
      "t": 143464.1422499992,
      "d": 93.74990625001374,
      "v": 110
    },
    {
      "midi": 30,
      "hit": false,
      "t": 143571.28499999922,
      "d": 214.28549999999814,
      "v": 127
    },
    {
      "midi": 74,
      "hit": false,
      "t": 143571.28499999992,
      "d": 93.74990625001374,
      "v": 127
    },
    {
      "midi": 55,
      "hit": false,
      "t": 143691.82059375,
      "d": 2022.319406250026,
      "v": 50
    },
    {
      "midi": 59,
      "hit": false,
      "t": 143691.82059375,
      "d": 2879.4614062500186,
      "v": 50
    },
    {
      "midi": 62,
      "hit": false,
      "t": 143696.28487499998,
      "d": 2874.9971250000235,
      "v": 50
    },
    {
      "midi": 43,
      "hit": false,
      "t": 143723.07056249998,
      "d": 1071.4275000000198,
      "v": 50
    },
    {
      "midi": 42,
      "hit": false,
      "t": 143785.57049999922,
      "d": 66.96421875001397,
      "v": 110
    },
    {
      "midi": 69,
      "hit": false,
      "t": 143785.57049999994,
      "d": 98.21418750000885,
      "v": 127
    },
    {
      "midi": 42,
      "hit": false,
      "t": 143892.71324999924,
      "d": 75.89278125000419,
      "v": 110
    },
    {
      "midi": 31,
      "hit": false,
      "t": 143999.85599999924,
      "d": 214.28549999999814,
      "v": 127
    },
    {
      "midi": 74,
      "hit": false,
      "t": 143999.85599999994,
      "d": 98.21418750000885,
      "v": 127
    },
    {
      "midi": 83,
      "hit": false,
      "t": 143999.85600000003,
      "d": 857.1420000000217,
      "v": 127
    },
    {
      "midi": 79,
      "hit": false,
      "t": 144209.67721874992,
      "d": 102.67846875000396,
      "v": 105
    },
    {
      "midi": 43,
      "hit": false,
      "t": 144214.14149999924,
      "d": 80.3570624999993,
      "v": 110
    },
    {
      "midi": 73,
      "hit": false,
      "t": 144214.14149999994,
      "d": 84.82134374999441,
      "v": 127
    },
    {
      "midi": 43,
      "hit": false,
      "t": 144321.28424999924,
      "d": 80.3570624999993,
      "v": 110
    },
    {
      "midi": 79,
      "hit": false,
      "t": 144423.9627187499,
      "d": 107.14274999999907,
      "v": 105
    },
    {
      "midi": 31,
      "hit": false,
      "t": 144428.42699999924,
      "d": 214.28549999999814,
      "v": 127
    },
    {
      "midi": 74,
      "hit": false,
      "t": 144428.42699999994,
      "d": 93.74990625001374,
      "v": 127
    },
    {
      "midi": 79,
      "hit": false,
      "t": 144624.85537499993,
      "d": 196.4283749999886,
      "v": 105
    },
    {
      "midi": 43,
      "hit": false,
      "t": 144642.71249999924,
      "d": 80.3570624999993,
      "v": 110
    },
    {
      "midi": 71,
      "hit": false,
      "t": 144642.71249999997,
      "d": 93.74990625001374,
      "v": 127
    },
    {
      "midi": 43,
      "hit": false,
      "t": 144749.85524999924,
      "d": 84.82134374999441,
      "v": 110
    },
    {
      "midi": 45,
      "hit": false,
      "t": 144776.6409375,
      "d": 937.499062500021,
      "v": 50
    },
    {
      "midi": 78,
      "hit": false,
      "t": 144843.60515624992,
      "d": 424.10671875000116,
      "v": 105
    },
    {
      "midi": 33,
      "hit": false,
      "t": 144856.99799999924,
      "d": 214.28549999999814,
      "v": 127
    },
    {
      "midi": 74,
      "hit": false,
      "t": 144856.998,
      "d": 93.74990625001374,
      "v": 127
    },
    {
      "midi": 88,
      "hit": false,
      "t": 144856.99800000005,
      "d": 883.9276874999923,
      "v": 127
    },
    {
      "midi": 45,
      "hit": false,
      "t": 145071.28349999923,
      "d": 66.96421875001397,
      "v": 110
    },
    {
      "midi": 73,
      "hit": false,
      "t": 145071.28350000002,
      "d": 84.82134374999441,
      "v": 127
    },
    {
      "midi": 45,
      "hit": false,
      "t": 145178.42624999926,
      "d": 93.74990625001374,
      "v": 110
    },
    {
      "midi": 76,
      "hit": false,
      "t": 145263.24759374993,
      "d": 124.99987500000861,
      "v": 105
    },
    {
      "midi": 33,
      "hit": false,
      "t": 145285.5689999993,
      "d": 214.28549999999814,
      "v": 127
    },
    {
      "midi": 74,
      "hit": false,
      "t": 145285.56900000002,
      "d": 98.21418750000885,
      "v": 127
    },
    {
      "midi": 76,
      "hit": false,
      "t": 145486.46165624994,
      "d": 424.10671875000116,
      "v": 105
    },
    {
      "midi": 45,
      "hit": false,
      "t": 145499.8544999993,
      "d": 66.96421875001397,
      "v": 110
    },
    {
      "midi": 76,
      "hit": false,
      "t": 145499.85450000002,
      "d": 93.74990625001374,
      "v": 127
    },
    {
      "midi": 45,
      "hit": false,
      "t": 145606.99724999932,
      "d": 75.89278125000419,
      "v": 110
    },
    {
      "midi": 23,
      "hit": false,
      "t": 145714.13999999932,
      "d": 214.28549999999814,
      "v": 127
    },
    {
      "midi": 47,
      "hit": false,
      "t": 145714.14,
      "d": 866.0705624999828,
      "v": 50
    },
    {
      "midi": 54,
      "hit": false,
      "t": 145714.14,
      "d": 1428.5699999999779,
      "v": 50
    },
    {
      "midi": 74,
      "hit": false,
      "t": 145714.14000000004,
      "d": 102.67846875000396,
      "v": 127
    },
    {
      "midi": 86,
      "hit": false,
      "t": 145714.14000000004,
      "d": 2540.176031250012,
      "v": 127
    },
    {
      "midi": 74,
      "hit": false,
      "t": 145915.03265624994,
      "d": 495.53521875001024,
      "v": 105
    },
    {
      "midi": 35,
      "hit": false,
      "t": 145928.4254999993,
      "d": 80.3570624999993,
      "v": 110
    },
    {
      "midi": 73,
      "hit": false,
      "t": 145928.42550000004,
      "d": 80.3570624999993,
      "v": 127
    },
    {
      "midi": 35,
      "hit": false,
      "t": 146035.5682499993,
      "d": 80.3570624999993,
      "v": 110
    },
    {
      "midi": 23,
      "hit": false,
      "t": 146142.7109999993,
      "d": 214.28549999999814,
      "v": 127
    },
    {
      "midi": 74,
      "hit": false,
      "t": 146142.71100000004,
      "d": 93.74990625001374,
      "v": 127
    },
    {
      "midi": 35,
      "hit": false,
      "t": 146356.9964999993,
      "d": 80.3570624999993,
      "v": 110
    },
    {
      "midi": 71,
      "hit": false,
      "t": 146356.99650000007,
      "d": 93.74990625001374,
      "v": 127
    },
    {
      "midi": 35,
      "hit": false,
      "t": 146464.1392499993,
      "d": 84.82134374999441,
      "v": 110
    },
    {
      "midi": 61,
      "hit": false,
      "t": 146522.17490625,
      "d": 656.2493437499797,
      "v": 50
    },
    {
      "midi": 57,
      "hit": false,
      "t": 146540.03203125,
      "d": 616.0708124999655,
      "v": 50
    },
    {
      "midi": 42,
      "hit": false,
      "t": 146544.4963125,
      "d": 633.9279374999751,
      "v": 50
    },
    {
      "midi": 30,
      "hit": false,
      "t": 146571.2819999993,
      "d": 214.28549999999814,
      "v": 127
    },
    {
      "midi": 74,
      "hit": false,
      "t": 146571.2820000001,
      "d": 102.67846875000396,
      "v": 127
    },
    {
      "midi": 42,
      "hit": false,
      "t": 146785.5674999993,
      "d": 66.96421875001397,
      "v": 110
    },
    {
      "midi": 73,
      "hit": false,
      "t": 146785.5675000001,
      "d": 80.3570624999993,
      "v": 127
    },
    {
      "midi": 42,
      "hit": false,
      "t": 146892.71024999933,
      "d": 93.74990625001374,
      "v": 110
    },
    {
      "midi": 30,
      "hit": false,
      "t": 146999.85299999936,
      "d": 214.28549999999814,
      "v": 127
    },
    {
      "midi": 74,
      "hit": false,
      "t": 146999.8530000001,
      "d": 98.21418750000885,
      "v": 127
    },
    {
      "midi": 55,
      "hit": false,
      "t": 147120.38859375,
      "d": 2022.319406250026,
      "v": 50
    },
    {
      "midi": 59,
      "hit": false,
      "t": 147120.38859375,
      "d": 2879.4614062500186,
      "v": 50
    },
    {
      "midi": 62,
      "hit": false,
      "t": 147124.85287499998,
      "d": 2874.9971250000235,
      "v": 50
    },
    {
      "midi": 43,
      "hit": false,
      "t": 147151.63856249998,
      "d": 1071.4275000000198,
      "v": 50
    },
    {
      "midi": 42,
      "hit": false,
      "t": 147214.13849999936,
      "d": 66.96421875001397,
      "v": 110
    },
    {
      "midi": 69,
      "hit": false,
      "t": 147214.1385000001,
      "d": 93.74990625001374,
      "v": 127
    },
    {
      "midi": 42,
      "hit": false,
      "t": 147321.2812499994,
      "d": 75.89278125000419,
      "v": 110
    },
    {
      "midi": 31,
      "hit": false,
      "t": 147428.4239999994,
      "d": 214.28549999999814,
      "v": 127
    },
    {
      "midi": 74,
      "hit": false,
      "t": 147428.42400000012,
      "d": 98.21418750000885,
      "v": 127
    },
    {
      "midi": 79,
      "hit": false,
      "t": 147620.38809374996,
      "d": 84.82134374999441,
      "v": 105
    },
    {
      "midi": 43,
      "hit": false,
      "t": 147642.7094999994,
      "d": 80.3570624999993,
      "v": 110
    },
    {
      "midi": 73,
      "hit": false,
      "t": 147642.7095000001,
      "d": 66.96421875001397,
      "v": 127
    },
    {
      "midi": 43,
      "hit": false,
      "t": 147749.85224999939,
      "d": 80.3570624999993,
      "v": 110
    },
    {
      "midi": 79,
      "hit": false,
      "t": 147830.20931249997,
      "d": 98.21418750000885,
      "v": 105
    },
    {
      "midi": 31,
      "hit": false,
      "t": 147856.99499999938,
      "d": 214.28549999999814,
      "v": 127
    },
    {
      "midi": 74,
      "hit": false,
      "t": 147856.99500000014,
      "d": 98.21418750000885,
      "v": 127
    },
    {
      "midi": 79,
      "hit": false,
      "t": 148044.49481249996,
      "d": 214.28549999999814,
      "v": 105
    },
    {
      "midi": 43,
      "hit": false,
      "t": 148071.28049999938,
      "d": 80.3570624999993,
      "v": 110
    },
    {
      "midi": 71,
      "hit": false,
      "t": 148071.28050000014,
      "d": 89.28562499998952,
      "v": 127
    },
    {
      "midi": 43,
      "hit": false,
      "t": 148178.42324999938,
      "d": 84.82134374999441,
      "v": 110
    },
    {
      "midi": 45,
      "hit": false,
      "t": 148205.2089375,
      "d": 937.499062500021,
      "v": 50
    },
    {
      "midi": 78,
      "hit": false,
      "t": 148276.63743749997,
      "d": 392.8567500000063,
      "v": 105
    },
    {
      "midi": 33,
      "hit": false,
      "t": 148285.56599999938,
      "d": 214.28549999999814,
      "v": 127
    },
    {
      "midi": 88,
      "hit": false,
      "t": 148285.56600000005,
      "d": 883.9276874999923,
      "v": 127
    },
    {
      "midi": 74,
      "hit": false,
      "t": 148285.56600000014,
      "d": 84.82134374999441,
      "v": 127
    },
    {
      "midi": 45,
      "hit": false,
      "t": 148499.85149999938,
      "d": 66.96421875001397,
      "v": 110
    },
    {
      "midi": 73,
      "hit": false,
      "t": 148499.85150000014,
      "d": 75.89278125000419,
      "v": 127
    },
    {
      "midi": 45,
      "hit": false,
      "t": 148606.9942499994,
      "d": 93.74990625001374,
      "v": 110
    },
    {
      "midi": 76,
      "hit": false,
      "t": 148691.81559374998,
      "d": 111.60703124999418,
      "v": 105
    },
    {
      "midi": 33,
      "hit": false,
      "t": 148714.13699999943,
      "d": 214.28549999999814,
      "v": 127
    },
    {
      "midi": 74,
      "hit": false,
      "t": 148714.13700000013,
      "d": 102.67846875000396,
      "v": 127
    },
    {
      "midi": 76,
      "hit": false,
      "t": 148919.49393749997,
      "d": 388.3924687500112,
      "v": 105
    },
    {
      "midi": 45,
      "hit": false,
      "t": 148928.42249999943,
      "d": 66.96421875001397,
      "v": 110
    },
    {
      "midi": 76,
      "hit": false,
      "t": 148928.42250000013,
      "d": 129.46415625000373,
      "v": 127
    },
    {
      "midi": 45,
      "hit": false,
      "t": 149035.56524999946,
      "d": 75.89278125000419,
      "v": 110
    },
    {
      "midi": 23,
      "hit": false,
      "t": 149142.70799999946,
      "d": 214.28549999999814,
      "v": 127
    },
    {
      "midi": 47,
      "hit": false,
      "t": 149142.708,
      "d": 866.0705624999828,
      "v": 50
    },
    {
      "midi": 54,
      "hit": false,
      "t": 149142.708,
      "d": 1428.5699999999779,
      "v": 50
    },
    {
      "midi": 86,
      "hit": false,
      "t": 149142.70800000004,
      "d": 852.6777187499974,
      "v": 127
    },
    {
      "midi": 74,
      "hit": false,
      "t": 149142.70800000013,
      "d": 98.21418750000885,
      "v": 127
    },
    {
      "midi": 74,
      "hit": false,
      "t": 149339.13637499997,
      "d": 575.8922812500095,
      "v": 105
    },
    {
      "midi": 35,
      "hit": false,
      "t": 149356.99349999946,
      "d": 80.3570624999993,
      "v": 110
    },
    {
      "midi": 73,
      "hit": false,
      "t": 149356.99350000013,
      "d": 84.82134374999441,
      "v": 127
    },
    {
      "midi": 35,
      "hit": false,
      "t": 149464.13624999946,
      "d": 80.3570624999993,
      "v": 110
    },
    {
      "midi": 23,
      "hit": false,
      "t": 149571.27899999946,
      "d": 214.28549999999814,
      "v": 127
    },
    {
      "midi": 74,
      "hit": false,
      "t": 149571.27900000013,
      "d": 93.74990625001374,
      "v": 127
    },
    {
      "midi": 35,
      "hit": false,
      "t": 149785.56449999945,
      "d": 80.3570624999993,
      "v": 110
    },
    {
      "midi": 71,
      "hit": false,
      "t": 149785.56450000015,
      "d": 98.21418750000885,
      "v": 127
    },
    {
      "midi": 35,
      "hit": false,
      "t": 149892.70724999945,
      "d": 84.82134374999441,
      "v": 110
    },
    {
      "midi": 61,
      "hit": false,
      "t": 149950.74290625,
      "d": 656.2493437499797,
      "v": 50
    },
    {
      "midi": 57,
      "hit": false,
      "t": 149968.60003125,
      "d": 616.0708124999655,
      "v": 50
    },
    {
      "midi": 42,
      "hit": false,
      "t": 149973.0643125,
      "d": 633.9279374999751,
      "v": 50
    },
    {
      "midi": 30,
      "hit": false,
      "t": 149999.84999999945,
      "d": 214.28549999999814,
      "v": 127
    },
    {
      "midi": 85,
      "hit": false,
      "t": 149999.85000000003,
      "d": 870.534843750007,
      "v": 127
    },
    {
      "midi": 74,
      "hit": false,
      "t": 149999.85000000015,
      "d": 98.21418750000885,
      "v": 127
    },
    {
      "midi": 42,
      "hit": false,
      "t": 150214.13549999945,
      "d": 66.96421875001397,
      "v": 110
    },
    {
      "midi": 73,
      "hit": false,
      "t": 150214.13550000015,
      "d": 89.28562499998952,
      "v": 127
    },
    {
      "midi": 42,
      "hit": false,
      "t": 150321.27824999948,
      "d": 93.74990625001374,
      "v": 110
    },
    {
      "midi": 30,
      "hit": false,
      "t": 150428.4209999995,
      "d": 214.28549999999814,
      "v": 127
    },
    {
      "midi": 74,
      "hit": false,
      "t": 150428.42100000015,
      "d": 93.74990625001374,
      "v": 127
    },
    {
      "midi": 55,
      "hit": false,
      "t": 150548.95659375,
      "d": 2022.319406250026,
      "v": 50
    },
    {
      "midi": 59,
      "hit": false,
      "t": 150548.95659375,
      "d": 2879.4614062500186,
      "v": 50
    },
    {
      "midi": 62,
      "hit": false,
      "t": 150553.42087499998,
      "d": 2874.9971250000235,
      "v": 50
    },
    {
      "midi": 43,
      "hit": false,
      "t": 150580.20656249998,
      "d": 1071.4275000000198,
      "v": 50
    },
    {
      "midi": 42,
      "hit": false,
      "t": 150642.7064999995,
      "d": 66.96421875001397,
      "v": 110
    },
    {
      "midi": 69,
      "hit": false,
      "t": 150642.70650000017,
      "d": 98.21418750000885,
      "v": 127
    },
    {
      "midi": 42,
      "hit": false,
      "t": 150749.84924999953,
      "d": 75.89278125000419,
      "v": 110
    },
    {
      "midi": 31,
      "hit": false,
      "t": 150856.99199999953,
      "d": 214.28549999999814,
      "v": 127
    },
    {
      "midi": 83,
      "hit": false,
      "t": 150856.99200000003,
      "d": 857.1420000000217,
      "v": 127
    },
    {
      "midi": 74,
      "hit": false,
      "t": 150856.99200000017,
      "d": 98.21418750000885,
      "v": 127
    },
    {
      "midi": 79,
      "hit": false,
      "t": 151066.81321874997,
      "d": 93.74990625001374,
      "v": 105
    },
    {
      "midi": 43,
      "hit": false,
      "t": 151071.27749999953,
      "d": 80.3570624999993,
      "v": 110
    },
    {
      "midi": 73,
      "hit": false,
      "t": 151071.27750000017,
      "d": 84.82134374999441,
      "v": 127
    },
    {
      "midi": 43,
      "hit": false,
      "t": 151178.42024999953,
      "d": 80.3570624999993,
      "v": 110
    },
    {
      "midi": 31,
      "hit": false,
      "t": 151285.56299999953,
      "d": 214.28549999999814,
      "v": 127
    },
    {
      "midi": 74,
      "hit": false,
      "t": 151285.56300000017,
      "d": 93.74990625001374,
      "v": 127
    },
    {
      "midi": 79,
      "hit": false,
      "t": 151290.02728125,
      "d": 102.67846875000396,
      "v": 105
    },
    {
      "midi": 79,
      "hit": false,
      "t": 151486.45565625,
      "d": 209.82121875000303,
      "v": 105
    },
    {
      "midi": 43,
      "hit": false,
      "t": 151499.84849999953,
      "d": 80.3570624999993,
      "v": 110
    },
    {
      "midi": 71,
      "hit": false,
      "t": 151499.8485000002,
      "d": 93.74990625001374,
      "v": 127
    },
    {
      "midi": 43,
      "hit": false,
      "t": 151606.99124999953,
      "d": 84.82134374999441,
      "v": 110
    },
    {
      "midi": 45,
      "hit": false,
      "t": 151633.7769375,
      "d": 937.499062500021,
      "v": 50
    },
    {
      "midi": 33,
      "hit": false,
      "t": 151714.13399999953,
      "d": 214.28549999999814,
      "v": 127
    },
    {
      "midi": 88,
      "hit": false,
      "t": 151714.13400000005,
      "d": 883.9276874999923,
      "v": 127
    },
    {
      "midi": 74,
      "hit": false,
      "t": 151714.13400000022,
      "d": 93.74990625001374,
      "v": 127
    },
    {
      "midi": 78,
      "hit": false,
      "t": 151727.52684375,
      "d": 406.2495937499916,
      "v": 105
    },
    {
      "midi": 45,
      "hit": false,
      "t": 151928.41949999952,
      "d": 66.96421875001397,
      "v": 110
    },
    {
      "midi": 73,
      "hit": false,
      "t": 151928.41950000025,
      "d": 84.82134374999441,
      "v": 127
    },
    {
      "midi": 45,
      "hit": false,
      "t": 152035.56224999955,
      "d": 93.74990625001374,
      "v": 110
    },
    {
      "midi": 76,
      "hit": false,
      "t": 152138.24071875,
      "d": 124.99987500000861,
      "v": 105
    },
    {
      "midi": 33,
      "hit": false,
      "t": 152142.70499999958,
      "d": 214.28549999999814,
      "v": 127
    },
    {
      "midi": 74,
      "hit": false,
      "t": 152142.70500000025,
      "d": 98.21418750000885,
      "v": 127
    },
    {
      "midi": 45,
      "hit": false,
      "t": 152356.99049999958,
      "d": 66.96421875001397,
      "v": 110
    },
    {
      "midi": 76,
      "hit": false,
      "t": 152356.99050000025,
      "d": 93.74990625001374,
      "v": 127
    },
    {
      "midi": 76,
      "hit": false,
      "t": 152361.45478125,
      "d": 401.7853124999965,
      "v": 105
    },
    {
      "midi": 45,
      "hit": false,
      "t": 152464.1332499996,
      "d": 75.89278125000419,
      "v": 110
    },
    {
      "midi": 23,
      "hit": false,
      "t": 152571.2759999996,
      "d": 214.28549999999814,
      "v": 127
    },
    {
      "midi": 47,
      "hit": false,
      "t": 152571.276,
      "d": 866.0705624999828,
      "v": 50
    },
    {
      "midi": 54,
      "hit": false,
      "t": 152571.276,
      "d": 1428.5699999999779,
      "v": 50
    },
    {
      "midi": 86,
      "hit": false,
      "t": 152571.27600000004,
      "d": 2540.176031250012,
      "v": 127
    },
    {
      "midi": 74,
      "hit": false,
      "t": 152571.27600000027,
      "d": 102.67846875000396,
      "v": 127
    },
    {
      "midi": 74,
      "hit": false,
      "t": 152776.63293750002,
      "d": 562.4994374999951,
      "v": 105
    },
    {
      "midi": 35,
      "hit": false,
      "t": 152785.5614999996,
      "d": 80.3570624999993,
      "v": 110
    },
    {
      "midi": 73,
      "hit": false,
      "t": 152785.56150000027,
      "d": 80.3570624999993,
      "v": 127
    },
    {
      "midi": 35,
      "hit": false,
      "t": 152892.7042499996,
      "d": 80.3570624999993,
      "v": 110
    },
    {
      "midi": 23,
      "hit": false,
      "t": 152999.8469999996,
      "d": 214.28549999999814,
      "v": 127
    },
    {
      "midi": 74,
      "hit": false,
      "t": 152999.84700000027,
      "d": 93.74990625001374,
      "v": 127
    },
    {
      "midi": 35,
      "hit": false,
      "t": 153214.1324999996,
      "d": 80.3570624999993,
      "v": 110
    },
    {
      "midi": 71,
      "hit": false,
      "t": 153214.1325000003,
      "d": 93.74990625001374,
      "v": 127
    },
    {
      "midi": 35,
      "hit": false,
      "t": 153321.2752499996,
      "d": 84.82134374999441,
      "v": 110
    },
    {
      "midi": 61,
      "hit": false,
      "t": 153379.31090625,
      "d": 656.2493437499797,
      "v": 50
    },
    {
      "midi": 57,
      "hit": false,
      "t": 153397.16803125,
      "d": 616.0708124999655,
      "v": 50
    },
    {
      "midi": 42,
      "hit": false,
      "t": 153401.6323125,
      "d": 633.9279374999751,
      "v": 50
    },
    {
      "midi": 30,
      "hit": false,
      "t": 153428.4179999996,
      "d": 214.28549999999814,
      "v": 127
    },
    {
      "midi": 74,
      "hit": false,
      "t": 153428.41800000033,
      "d": 102.67846875000396,
      "v": 127
    },
    {
      "midi": 42,
      "hit": false,
      "t": 153642.7034999996,
      "d": 66.96421875001397,
      "v": 110
    },
    {
      "midi": 73,
      "hit": false,
      "t": 153642.70350000032,
      "d": 80.3570624999993,
      "v": 127
    },
    {
      "midi": 42,
      "hit": false,
      "t": 153749.84624999962,
      "d": 93.74990625001374,
      "v": 110
    },
    {
      "midi": 30,
      "hit": false,
      "t": 153856.98899999965,
      "d": 214.28549999999814,
      "v": 127
    },
    {
      "midi": 74,
      "hit": false,
      "t": 153856.98900000032,
      "d": 98.21418750000885,
      "v": 127
    },
    {
      "midi": 59,
      "hit": false,
      "t": 153977.52459375,
      "d": 1991.069437500002,
      "v": 50
    },
    {
      "midi": 55,
      "hit": false,
      "t": 153977.52459375,
      "d": 2022.319406249997,
      "v": 50
    },
    {
      "midi": 62,
      "hit": false,
      "t": 153981.98887499998,
      "d": 1991.069437500002,
      "v": 50
    },
    {
      "midi": 43,
      "hit": false,
      "t": 154008.77456249998,
      "d": 1071.4275000000198,
      "v": 50
    },
    {
      "midi": 42,
      "hit": false,
      "t": 154071.27449999965,
      "d": 66.96421875001397,
      "v": 110
    },
    {
      "midi": 69,
      "hit": false,
      "t": 154071.27450000032,
      "d": 93.74990625001374,
      "v": 127
    },
    {
      "midi": 42,
      "hit": false,
      "t": 154178.41724999968,
      "d": 75.89278125000419,
      "v": 110
    },
    {
      "midi": 31,
      "hit": false,
      "t": 154285.55999999968,
      "d": 214.28549999999814,
      "v": 127
    },
    {
      "midi": 74,
      "hit": false,
      "t": 154285.56000000035,
      "d": 98.21418750000885,
      "v": 127
    },
    {
      "midi": 79,
      "hit": false,
      "t": 154495.38121875003,
      "d": 98.21418750000885,
      "v": 105
    },
    {
      "midi": 43,
      "hit": false,
      "t": 154499.84549999968,
      "d": 80.3570624999993,
      "v": 110
    },
    {
      "midi": 73,
      "hit": false,
      "t": 154499.84550000035,
      "d": 66.96421875001397,
      "v": 127
    },
    {
      "midi": 43,
      "hit": false,
      "t": 154606.98824999967,
      "d": 80.3570624999993,
      "v": 110
    },
    {
      "midi": 79,
      "hit": false,
      "t": 154696.27387500004,
      "d": 120.5355937500135,
      "v": 105
    },
    {
      "midi": 31,
      "hit": false,
      "t": 154714.13099999967,
      "d": 214.28549999999814,
      "v": 127
    },
    {
      "midi": 74,
      "hit": false,
      "t": 154714.13100000037,
      "d": 98.21418750000885,
      "v": 127
    },
    {
      "midi": 79,
      "hit": false,
      "t": 154910.55937500007,
      "d": 200.8926562500128,
      "v": 105
    },
    {
      "midi": 43,
      "hit": false,
      "t": 154928.41649999967,
      "d": 80.3570624999993,
      "v": 110
    },
    {
      "midi": 71,
      "hit": false,
      "t": 154928.41650000037,
      "d": 89.28562499998952,
      "v": 127
    },
    {
      "midi": 43,
      "hit": false,
      "t": 155035.55924999967,
      "d": 84.82134374999441,
      "v": 110
    },
    {
      "midi": 45,
      "hit": false,
      "t": 155062.3449375,
      "d": 937.4990624999919,
      "v": 50
    },
    {
      "midi": 78,
      "hit": false,
      "t": 155138.23771875008,
      "d": 424.10671875000116,
      "v": 105
    },
    {
      "midi": 33,
      "hit": false,
      "t": 155142.70199999967,
      "d": 214.28549999999814,
      "v": 127
    },
    {
      "midi": 88,
      "hit": false,
      "t": 155142.70200000005,
      "d": 883.9276874999923,
      "v": 127
    },
    {
      "midi": 74,
      "hit": false,
      "t": 155142.70200000037,
      "d": 84.82134374999441,
      "v": 127
    },
    {
      "midi": 45,
      "hit": false,
      "t": 155356.98749999967,
      "d": 66.96421875001397,
      "v": 110
    },
    {
      "midi": 73,
      "hit": false,
      "t": 155356.98750000037,
      "d": 75.89278125000419,
      "v": 127
    },
    {
      "midi": 45,
      "hit": false,
      "t": 155464.1302499997,
      "d": 93.74990625001374,
      "v": 110
    },
    {
      "midi": 76,
      "hit": false,
      "t": 155557.8801562501,
      "d": 102.67846875000396,
      "v": 105
    },
    {
      "midi": 33,
      "hit": false,
      "t": 155571.27299999972,
      "d": 214.28549999999814,
      "v": 127
    },
    {
      "midi": 74,
      "hit": false,
      "t": 155571.27300000036,
      "d": 102.67846875000396,
      "v": 127
    },
    {
      "midi": 76,
      "hit": false,
      "t": 155776.62993750008,
      "d": 441.9638437500107,
      "v": 105
    },
    {
      "midi": 45,
      "hit": false,
      "t": 155785.55849999972,
      "d": 66.96421875001397,
      "v": 110
    },
    {
      "midi": 76,
      "hit": false,
      "t": 155785.55850000036,
      "d": 129.46415625000373,
      "v": 127
    },
    {
      "midi": 45,
      "hit": false,
      "t": 155892.70124999975,
      "d": 75.89278125000419,
      "v": 110
    },
    {
      "midi": 35,
      "hit": false,
      "t": 155999.84399999963,
      "d": 857.1419999999925,
      "v": 70
    },
    {
      "midi": 23,
      "hit": false,
      "t": 155999.84399999975,
      "d": 214.28549999999814,
      "v": 127
    },
    {
      "midi": 66,
      "hit": false,
      "t": 155999.84399999987,
      "d": 223.21406249998836,
      "v": 70
    },
    {
      "midi": 74,
      "hit": false,
      "t": 155999.84399999987,
      "d": 254.46403124998324,
      "v": 70
    },
    {
      "midi": 71,
      "hit": false,
      "t": 155999.84399999987,
      "d": 258.92831249997835,
      "v": 70
    },
    {
      "midi": 59,
      "hit": false,
      "t": 155999.84399999998,
      "d": 834.8205937499879,
      "v": 50
    },
    {
      "midi": 47,
      "hit": false,
      "t": 155999.84399999998,
      "d": 866.0705624999828,
      "v": 50
    },
    {
      "midi": 62,
      "hit": false,
      "t": 155999.84399999998,
      "d": 879.4634062499972,
      "v": 50
    },
    {
      "midi": 54,
      "hit": false,
      "t": 155999.84399999998,
      "d": 1428.570000000007,
      "v": 50
    },
    {
      "midi": 59,
      "hit": false,
      "t": 155999.84399999998,
      "d": 901.7848125000019,
      "v": 65
    },
    {
      "midi": 35,
      "hit": false,
      "t": 156214.12949999975,
      "d": 80.3570624999993,
      "v": 110
    },
    {
      "midi": 74,
      "hit": false,
      "t": 156218.5937812501,
      "d": 468.7495312500105,
      "v": 105
    },
    {
      "midi": 35,
      "hit": false,
      "t": 156321.27224999975,
      "d": 80.3570624999993,
      "v": 110
    },
    {
      "midi": 23,
      "hit": false,
      "t": 156428.41499999975,
      "d": 214.28549999999814,
      "v": 127
    },
    {
      "midi": 73,
      "hit": false,
      "t": 156428.41499999983,
      "d": 245.53546874999302,
      "v": 70
    },
    {
      "midi": 66,
      "hit": false,
      "t": 156428.41499999983,
      "d": 254.46403124998324,
      "v": 70
    },
    {
      "midi": 71,
      "hit": false,
      "t": 156428.41499999983,
      "d": 272.3211562499928,
      "v": 70
    },
    {
      "midi": 35,
      "hit": false,
      "t": 156642.70049999974,
      "d": 80.3570624999993,
      "v": 110
    },
    {
      "midi": 35,
      "hit": false,
      "t": 156749.84324999974,
      "d": 84.82134374999441,
      "v": 110
    },
    {
      "midi": 61,
      "hit": false,
      "t": 156807.87890624997,
      "d": 656.2493437500088,
      "v": 50
    },
    {
      "midi": 57,
      "hit": false,
      "t": 156825.73603124998,
      "d": 616.0708124999946,
      "v": 50
    },
    {
      "midi": 42,
      "hit": false,
      "t": 156830.20031249998,
      "d": 633.9279375000042,
      "v": 50
    },
    {
      "midi": 57,
      "hit": false,
      "t": 156852.52171874998,
      "d": 879.4634062499972,
      "v": 65
    },
    {
      "midi": 30,
      "hit": false,
      "t": 156856.98599999963,
      "d": 812.4991875000123,
      "v": 70
    },
    {
      "midi": 30,
      "hit": false,
      "t": 156856.98599999974,
      "d": 214.28549999999814,
      "v": 127
    },
    {
      "midi": 66,
      "hit": false,
      "t": 156856.98599999983,
      "d": 151.78556250000838,
      "v": 70
    },
    {
      "midi": 74,
      "hit": false,
      "t": 156856.98599999983,
      "d": 174.10696875001304,
      "v": 70
    },
    {
      "midi": 71,
      "hit": false,
      "t": 156856.98599999983,
      "d": 178.57125000000815,
      "v": 70
    },
    {
      "midi": 42,
      "hit": false,
      "t": 157071.27149999974,
      "d": 66.96421875001397,
      "v": 110
    },
    {
      "midi": 66,
      "hit": false,
      "t": 157071.27149999983,
      "d": 174.10696875001304,
      "v": 70
    },
    {
      "midi": 71,
      "hit": false,
      "t": 157071.27149999983,
      "d": 187.49981250002747,
      "v": 70
    },
    {
      "midi": 73,
      "hit": false,
      "t": 157071.27149999983,
      "d": 187.49981250002747,
      "v": 70
    },
    {
      "midi": 42,
      "hit": false,
      "t": 157178.41424999977,
      "d": 93.74990625001374,
      "v": 110
    },
    {
      "midi": 30,
      "hit": false,
      "t": 157285.5569999998,
      "d": 214.28549999999814,
      "v": 127
    },
    {
      "midi": 55,
      "hit": false,
      "t": 157406.09259374999,
      "d": 2022.319406250026,
      "v": 50
    },
    {
      "midi": 59,
      "hit": false,
      "t": 157406.09259374999,
      "d": 2879.4614062500186,
      "v": 50
    },
    {
      "midi": 62,
      "hit": false,
      "t": 157410.55687499998,
      "d": 2874.9971250000235,
      "v": 50
    },
    {
      "midi": 43,
      "hit": false,
      "t": 157437.34256249998,
      "d": 1071.4275000000198,
      "v": 50
    },
    {
      "midi": 42,
      "hit": false,
      "t": 157499.8424999998,
      "d": 66.96421875001397,
      "v": 110
    },
    {
      "midi": 67,
      "hit": false,
      "t": 157499.84249999985,
      "d": 214.28549999999814,
      "v": 70
    },
    {
      "midi": 71,
      "hit": false,
      "t": 157499.84249999985,
      "d": 223.21406249998836,
      "v": 70
    },
    {
      "midi": 74,
      "hit": false,
      "t": 157499.84249999985,
      "d": 241.0711874999979,
      "v": 70
    },
    {
      "midi": 42,
      "hit": false,
      "t": 157606.98524999982,
      "d": 75.89278125000419,
      "v": 110
    },
    {
      "midi": 55,
      "hit": false,
      "t": 157678.41374999998,
      "d": 901.7848125000019,
      "v": 65
    },
    {
      "midi": 31,
      "hit": false,
      "t": 157714.12799999965,
      "d": 879.4634062499972,
      "v": 70
    },
    {
      "midi": 31,
      "hit": false,
      "t": 157714.12799999982,
      "d": 214.28549999999814,
      "v": 127
    },
    {
      "midi": 43,
      "hit": false,
      "t": 157928.41349999982,
      "d": 80.3570624999993,
      "v": 110
    },
    {
      "midi": 73,
      "hit": false,
      "t": 157928.41349999985,
      "d": 232.14262500000768,
      "v": 70
    },
    {
      "midi": 67,
      "hit": false,
      "t": 157928.41349999985,
      "d": 236.6069062500028,
      "v": 70
    },
    {
      "midi": 71,
      "hit": false,
      "t": 157928.41349999985,
      "d": 241.0711874999979,
      "v": 70
    },
    {
      "midi": 43,
      "hit": false,
      "t": 158035.55624999982,
      "d": 80.3570624999993,
      "v": 110
    },
    {
      "midi": 31,
      "hit": false,
      "t": 158142.69899999982,
      "d": 214.28549999999814,
      "v": 127
    },
    {
      "midi": 43,
      "hit": false,
      "t": 158356.98449999982,
      "d": 80.3570624999993,
      "v": 110
    },
    {
      "midi": 67,
      "hit": false,
      "t": 158356.98449999985,
      "d": 241.0711874999979,
      "v": 70
    },
    {
      "midi": 71,
      "hit": false,
      "t": 158356.98449999985,
      "d": 258.92831250000745,
      "v": 70
    },
    {
      "midi": 74,
      "hit": false,
      "t": 158356.98449999985,
      "d": 263.39259375000256,
      "v": 70
    },
    {
      "midi": 43,
      "hit": false,
      "t": 158464.12724999982,
      "d": 84.82134374999441,
      "v": 110
    },
    {
      "midi": 45,
      "hit": false,
      "t": 158490.9129375,
      "d": 937.499062500021,
      "v": 50
    },
    {
      "midi": 57,
      "hit": false,
      "t": 158548.94859374998,
      "d": 861.6062812499877,
      "v": 65
    },
    {
      "midi": 33,
      "hit": false,
      "t": 158571.26999999964,
      "d": 888.3919687499874,
      "v": 70
    },
    {
      "midi": 33,
      "hit": false,
      "t": 158571.26999999981,
      "d": 214.28549999999814,
      "v": 127
    },
    {
      "midi": 45,
      "hit": false,
      "t": 158785.5554999998,
      "d": 66.96421875001397,
      "v": 110
    },
    {
      "midi": 67,
      "hit": false,
      "t": 158785.55549999984,
      "d": 272.3211562499928,
      "v": 70
    },
    {
      "midi": 71,
      "hit": false,
      "t": 158785.55549999984,
      "d": 290.1782812500023,
      "v": 70
    },
    {
      "midi": 76,
      "hit": false,
      "t": 158785.55549999984,
      "d": 294.64256249999744,
      "v": 70
    },
    {
      "midi": 45,
      "hit": false,
      "t": 158892.69824999984,
      "d": 93.74990625001374,
      "v": 110
    },
    {
      "midi": 33,
      "hit": false,
      "t": 158999.84099999987,
      "d": 214.28549999999814,
      "v": 127
    },
    {
      "midi": 67,
      "hit": false,
      "t": 159214.12649999984,
      "d": 205.35693750000792,
      "v": 70
    },
    {
      "midi": 73,
      "hit": false,
      "t": 159214.12649999984,
      "d": 205.35693750000792,
      "v": 70
    },
    {
      "midi": 71,
      "hit": false,
      "t": 159214.12649999984,
      "d": 214.28549999999814,
      "v": 70
    },
    {
      "midi": 45,
      "hit": false,
      "t": 159214.12649999987,
      "d": 66.96421875001397,
      "v": 110
    },
    {
      "midi": 45,
      "hit": false,
      "t": 159321.2692499999,
      "d": 75.89278125000419,
      "v": 110
    },
    {
      "midi": 59,
      "hit": false,
      "t": 159383.76918749997,
      "d": 901.7848125000019,
      "v": 65
    },
    {
      "midi": 35,
      "hit": false,
      "t": 159428.41199999963,
      "d": 897.3205312500068,
      "v": 70
    },
    {
      "midi": 66,
      "hit": false,
      "t": 159428.41199999984,
      "d": 178.57125000000815,
      "v": 70
    },
    {
      "midi": 74,
      "hit": false,
      "t": 159428.41199999984,
      "d": 223.21406250001746,
      "v": 70
    },
    {
      "midi": 71,
      "hit": false,
      "t": 159428.41199999984,
      "d": 227.67834375001257,
      "v": 70
    },
    {
      "midi": 23,
      "hit": false,
      "t": 159428.4119999999,
      "d": 214.28549999999814,
      "v": 127
    },
    {
      "midi": 47,
      "hit": false,
      "t": 159428.412,
      "d": 866.0705624999828,
      "v": 50
    },
    {
      "midi": 54,
      "hit": false,
      "t": 159428.412,
      "d": 1428.5699999999779,
      "v": 50
    },
    {
      "midi": 35,
      "hit": false,
      "t": 159642.6974999999,
      "d": 80.3570624999993,
      "v": 110
    },
    {
      "midi": 35,
      "hit": false,
      "t": 159749.8402499999,
      "d": 80.3570624999993,
      "v": 110
    },
    {
      "midi": 66,
      "hit": false,
      "t": 159856.98299999986,
      "d": 191.96409374999348,
      "v": 70
    },
    {
      "midi": 73,
      "hit": false,
      "t": 159856.98299999986,
      "d": 191.96409374999348,
      "v": 70
    },
    {
      "midi": 71,
      "hit": false,
      "t": 159856.98299999986,
      "d": 214.28549999999814,
      "v": 70
    },
    {
      "midi": 23,
      "hit": false,
      "t": 159856.9829999999,
      "d": 214.28549999999814,
      "v": 127
    },
    {
      "midi": 35,
      "hit": false,
      "t": 160071.2684999999,
      "d": 80.3570624999993,
      "v": 110
    },
    {
      "midi": 35,
      "hit": false,
      "t": 160178.4112499999,
      "d": 84.82134374999441,
      "v": 110
    },
    {
      "midi": 61,
      "hit": false,
      "t": 160236.44690625,
      "d": 656.2493437499797,
      "v": 50
    },
    {
      "midi": 57,
      "hit": false,
      "t": 160249.83974999998,
      "d": 879.4634062499972,
      "v": 65
    },
    {
      "midi": 57,
      "hit": false,
      "t": 160254.30403125,
      "d": 616.0708124999655,
      "v": 50
    },
    {
      "midi": 42,
      "hit": false,
      "t": 160258.7683125,
      "d": 633.9279374999751,
      "v": 50
    },
    {
      "midi": 30,
      "hit": false,
      "t": 160285.55399999963,
      "d": 830.3563125000219,
      "v": 70
    },
    {
      "midi": 66,
      "hit": false,
      "t": 160285.55399999986,
      "d": 142.85699999998906,
      "v": 70
    },
    {
      "midi": 74,
      "hit": false,
      "t": 160285.55399999986,
      "d": 160.7141249999986,
      "v": 70
    },
    {
      "midi": 71,
      "hit": false,
      "t": 160285.55399999986,
      "d": 174.10696875001304,
      "v": 70
    },
    {
      "midi": 30,
      "hit": false,
      "t": 160285.5539999999,
      "d": 214.28549999999814,
      "v": 127
    },
    {
      "midi": 66,
      "hit": false,
      "t": 160499.83949999989,
      "d": 160.7141249999986,
      "v": 70
    },
    {
      "midi": 73,
      "hit": false,
      "t": 160499.83949999989,
      "d": 178.57125000000815,
      "v": 70
    },
    {
      "midi": 71,
      "hit": false,
      "t": 160499.83949999989,
      "d": 187.49981249999837,
      "v": 70
    },
    {
      "midi": 42,
      "hit": false,
      "t": 160499.83949999989,
      "d": 66.96421875001397,
      "v": 110
    },
    {
      "midi": 42,
      "hit": false,
      "t": 160606.9822499999,
      "d": 93.74990625001374,
      "v": 110
    },
    {
      "midi": 30,
      "hit": false,
      "t": 160714.12499999994,
      "d": 214.28549999999814,
      "v": 127
    },
    {
      "midi": 55,
      "hit": false,
      "t": 160834.66059374998,
      "d": 2022.319406250026,
      "v": 50
    },
    {
      "midi": 59,
      "hit": false,
      "t": 160834.66059374998,
      "d": 2879.4614062500186,
      "v": 50
    },
    {
      "midi": 62,
      "hit": false,
      "t": 160839.12487499998,
      "d": 2874.9971250000235,
      "v": 50
    },
    {
      "midi": 43,
      "hit": false,
      "t": 160865.91056249998,
      "d": 1071.4275000000198,
      "v": 50
    },
    {
      "midi": 71,
      "hit": false,
      "t": 160928.41049999988,
      "d": 174.10696875001304,
      "v": 70
    },
    {
      "midi": 67,
      "hit": false,
      "t": 160928.41049999988,
      "d": 183.03553125000326,
      "v": 70
    },
    {
      "midi": 74,
      "hit": false,
      "t": 160928.41049999988,
      "d": 187.49981249999837,
      "v": 70
    },
    {
      "midi": 42,
      "hit": false,
      "t": 160928.41049999994,
      "d": 66.96421875001397,
      "v": 110
    },
    {
      "midi": 42,
      "hit": false,
      "t": 161035.55324999997,
      "d": 75.89278125000419,
      "v": 110
    },
    {
      "midi": 55,
      "hit": false,
      "t": 161098.0531875,
      "d": 897.3205312500068,
      "v": 65
    },
    {
      "midi": 31,
      "hit": false,
      "t": 161142.69599999965,
      "d": 866.0705624999828,
      "v": 70
    },
    {
      "midi": 31,
      "hit": false,
      "t": 161142.69599999997,
      "d": 214.28549999999814,
      "v": 127
    },
    {
      "midi": 67,
      "hit": false,
      "t": 161356.98149999988,
      "d": 120.5355937500135,
      "v": 70
    },
    {
      "midi": 71,
      "hit": false,
      "t": 161356.98149999988,
      "d": 133.92843750002794,
      "v": 70
    },
    {
      "midi": 74,
      "hit": false,
      "t": 161356.98149999988,
      "d": 133.92843750002794,
      "v": 70
    },
    {
      "midi": 43,
      "hit": false,
      "t": 161356.98149999997,
      "d": 80.3570624999993,
      "v": 110
    },
    {
      "midi": 43,
      "hit": false,
      "t": 161464.12424999996,
      "d": 80.3570624999993,
      "v": 110
    },
    {
      "midi": 67,
      "hit": false,
      "t": 161571.2669999999,
      "d": 196.4283749999886,
      "v": 70
    },
    {
      "midi": 71,
      "hit": false,
      "t": 161571.2669999999,
      "d": 196.4283749999886,
      "v": 70
    },
    {
      "midi": 73,
      "hit": false,
      "t": 161571.2669999999,
      "d": 196.4283749999886,
      "v": 70
    },
    {
      "midi": 31,
      "hit": false,
      "t": 161571.26699999996,
      "d": 214.28549999999814,
      "v": 127
    },
    {
      "midi": 43,
      "hit": false,
      "t": 161785.55249999996,
      "d": 80.3570624999993,
      "v": 110
    },
    {
      "midi": 43,
      "hit": false,
      "t": 161892.69524999996,
      "d": 84.82134374999441,
      "v": 110
    },
    {
      "midi": 45,
      "hit": false,
      "t": 161919.4809375,
      "d": 937.499062500021,
      "v": 50
    },
    {
      "midi": 57,
      "hit": false,
      "t": 161973.0523125,
      "d": 892.8562499999825,
      "v": 65
    },
    {
      "midi": 33,
      "hit": false,
      "t": 161999.83799999964,
      "d": 870.534843750007,
      "v": 70
    },
    {
      "midi": 67,
      "hit": false,
      "t": 161999.8379999999,
      "d": 214.28549999999814,
      "v": 70
    },
    {
      "midi": 71,
      "hit": false,
      "t": 161999.8379999999,
      "d": 218.74978124999325,
      "v": 70
    },
    {
      "midi": 74,
      "hit": false,
      "t": 161999.8379999999,
      "d": 227.67834374998347,
      "v": 70
    },
    {
      "midi": 33,
      "hit": false,
      "t": 161999.83799999996,
      "d": 214.28549999999814,
      "v": 127
    },
    {
      "midi": 45,
      "hit": false,
      "t": 162214.12349999996,
      "d": 66.96421875001397,
      "v": 110
    },
    {
      "midi": 45,
      "hit": false,
      "t": 162321.26625,
      "d": 93.74990625001374,
      "v": 110
    },
    {
      "midi": 67,
      "hit": false,
      "t": 162428.4089999999,
      "d": 223.21406249998836,
      "v": 70
    },
    {
      "midi": 71,
      "hit": false,
      "t": 162428.4089999999,
      "d": 232.14262499997858,
      "v": 70
    },
    {
      "midi": 76,
      "hit": false,
      "t": 162428.4089999999,
      "d": 245.53546874999302,
      "v": 70
    },
    {
      "midi": 33,
      "hit": false,
      "t": 162428.409,
      "d": 214.28549999999814,
      "v": 127
    },
    {
      "midi": 45,
      "hit": false,
      "t": 162642.6945,
      "d": 66.96421875001397,
      "v": 110
    },
    {
      "midi": 45,
      "hit": false,
      "t": 162749.83725000004,
      "d": 75.89278125000419,
      "v": 110
    },
    {
      "midi": 59,
      "hit": false,
      "t": 162830.19431249998,
      "d": 906.249093749997,
      "v": 65
    },
    {
      "midi": 35,
      "hit": false,
      "t": 162856.97999999963,
      "d": 857.1420000000217,
      "v": 70
    },
    {
      "midi": 66,
      "hit": false,
      "t": 162856.9799999999,
      "d": 223.21406249998836,
      "v": 70
    },
    {
      "midi": 74,
      "hit": false,
      "t": 162856.9799999999,
      "d": 254.46403124998324,
      "v": 70
    },
    {
      "midi": 71,
      "hit": false,
      "t": 162856.9799999999,
      "d": 258.92831249997835,
      "v": 70
    },
    {
      "midi": 47,
      "hit": false,
      "t": 162856.98,
      "d": 866.0705624999828,
      "v": 50
    },
    {
      "midi": 54,
      "hit": false,
      "t": 162856.98,
      "d": 1428.5699999999779,
      "v": 50
    },
    {
      "midi": 23,
      "hit": false,
      "t": 162856.98000000004,
      "d": 214.28549999999814,
      "v": 127
    },
    {
      "midi": 35,
      "hit": false,
      "t": 163071.26550000004,
      "d": 80.3570624999993,
      "v": 110
    },
    {
      "midi": 35,
      "hit": false,
      "t": 163178.40825000004,
      "d": 80.3570624999993,
      "v": 110
    },
    {
      "midi": 73,
      "hit": false,
      "t": 163285.55099999986,
      "d": 245.53546874999302,
      "v": 70
    },
    {
      "midi": 66,
      "hit": false,
      "t": 163285.55099999986,
      "d": 254.46403124998324,
      "v": 70
    },
    {
      "midi": 71,
      "hit": false,
      "t": 163285.55099999986,
      "d": 272.3211562499928,
      "v": 70
    },
    {
      "midi": 23,
      "hit": false,
      "t": 163285.55100000004,
      "d": 214.28549999999814,
      "v": 127
    },
    {
      "midi": 35,
      "hit": false,
      "t": 163499.83650000003,
      "d": 80.3570624999993,
      "v": 110
    },
    {
      "midi": 35,
      "hit": false,
      "t": 163606.97925000003,
      "d": 84.82134374999441,
      "v": 110
    },
    {
      "midi": 61,
      "hit": false,
      "t": 163665.01490625,
      "d": 656.2493437499797,
      "v": 50
    },
    {
      "midi": 57,
      "hit": false,
      "t": 163682.87203125,
      "d": 616.0708124999655,
      "v": 50
    },
    {
      "midi": 42,
      "hit": false,
      "t": 163687.3363125,
      "d": 633.9279374999751,
      "v": 50
    },
    {
      "midi": 57,
      "hit": false,
      "t": 163705.19343749998,
      "d": 883.9276874999923,
      "v": 65
    },
    {
      "midi": 30,
      "hit": false,
      "t": 163714.12199999965,
      "d": 812.4991875000123,
      "v": 70
    },
    {
      "midi": 66,
      "hit": false,
      "t": 163714.12199999986,
      "d": 151.78556250000838,
      "v": 70
    },
    {
      "midi": 74,
      "hit": false,
      "t": 163714.12199999986,
      "d": 174.10696875001304,
      "v": 70
    },
    {
      "midi": 71,
      "hit": false,
      "t": 163714.12199999986,
      "d": 178.57125000000815,
      "v": 70
    },
    {
      "midi": 30,
      "hit": false,
      "t": 163714.12200000003,
      "d": 214.28549999999814,
      "v": 127
    },
    {
      "midi": 66,
      "hit": false,
      "t": 163928.40749999986,
      "d": 174.10696875001304,
      "v": 70
    },
    {
      "midi": 71,
      "hit": false,
      "t": 163928.40749999986,
      "d": 187.49981250002747,
      "v": 70
    },
    {
      "midi": 73,
      "hit": false,
      "t": 163928.40749999986,
      "d": 187.49981250002747,
      "v": 70
    },
    {
      "midi": 42,
      "hit": false,
      "t": 163928.40750000003,
      "d": 66.96421875001397,
      "v": 110
    },
    {
      "midi": 42,
      "hit": false,
      "t": 164035.55025000006,
      "d": 93.74990625001374,
      "v": 110
    },
    {
      "midi": 30,
      "hit": false,
      "t": 164142.6930000001,
      "d": 214.28549999999814,
      "v": 127
    },
    {
      "midi": 55,
      "hit": false,
      "t": 164263.22859374998,
      "d": 2022.319406250026,
      "v": 50
    },
    {
      "midi": 59,
      "hit": false,
      "t": 164263.22859374998,
      "d": 2879.4614062500186,
      "v": 50
    },
    {
      "midi": 62,
      "hit": false,
      "t": 164267.69287499998,
      "d": 2874.9971250000235,
      "v": 50
    },
    {
      "midi": 43,
      "hit": false,
      "t": 164294.47856249998,
      "d": 1071.4275000000198,
      "v": 50
    },
    {
      "midi": 67,
      "hit": false,
      "t": 164356.97849999988,
      "d": 214.28549999999814,
      "v": 70
    },
    {
      "midi": 71,
      "hit": false,
      "t": 164356.97849999988,
      "d": 223.21406249998836,
      "v": 70
    },
    {
      "midi": 74,
      "hit": false,
      "t": 164356.97849999988,
      "d": 241.0711874999979,
      "v": 70
    },
    {
      "midi": 42,
      "hit": false,
      "t": 164356.97850000008,
      "d": 66.96421875001397,
      "v": 110
    },
    {
      "midi": 42,
      "hit": false,
      "t": 164464.1212500001,
      "d": 75.89278125000419,
      "v": 110
    },
    {
      "midi": 55,
      "hit": false,
      "t": 164557.87115624998,
      "d": 870.534843750007,
      "v": 65
    },
    {
      "midi": 31,
      "hit": false,
      "t": 164571.26399999968,
      "d": 879.4634062499972,
      "v": 70
    },
    {
      "midi": 31,
      "hit": false,
      "t": 164571.2640000001,
      "d": 214.28549999999814,
      "v": 127
    },
    {
      "midi": 73,
      "hit": false,
      "t": 164785.54949999988,
      "d": 232.14262500000768,
      "v": 70
    },
    {
      "midi": 67,
      "hit": false,
      "t": 164785.54949999988,
      "d": 236.6069062500028,
      "v": 70
    },
    {
      "midi": 71,
      "hit": false,
      "t": 164785.54949999988,
      "d": 241.0711874999979,
      "v": 70
    },
    {
      "midi": 43,
      "hit": false,
      "t": 164785.5495000001,
      "d": 80.3570624999993,
      "v": 110
    },
    {
      "midi": 43,
      "hit": false,
      "t": 164892.6922500001,
      "d": 80.3570624999993,
      "v": 110
    },
    {
      "midi": 31,
      "hit": false,
      "t": 164999.8350000001,
      "d": 214.28549999999814,
      "v": 127
    },
    {
      "midi": 67,
      "hit": false,
      "t": 165214.12049999987,
      "d": 241.0711874999979,
      "v": 70
    },
    {
      "midi": 71,
      "hit": false,
      "t": 165214.12049999987,
      "d": 258.92831250000745,
      "v": 70
    },
    {
      "midi": 74,
      "hit": false,
      "t": 165214.12049999987,
      "d": 263.39259375000256,
      "v": 70
    },
    {
      "midi": 43,
      "hit": false,
      "t": 165214.1205000001,
      "d": 80.3570624999993,
      "v": 110
    },
    {
      "midi": 43,
      "hit": false,
      "t": 165321.2632500001,
      "d": 84.82134374999441,
      "v": 110
    },
    {
      "midi": 45,
      "hit": false,
      "t": 165348.0489375,
      "d": 937.499062500021,
      "v": 50
    },
    {
      "midi": 57,
      "hit": false,
      "t": 165415.01315624997,
      "d": 857.1420000000217,
      "v": 65
    },
    {
      "midi": 33,
      "hit": false,
      "t": 165428.40599999967,
      "d": 888.3919687499874,
      "v": 70
    },
    {
      "midi": 33,
      "hit": false,
      "t": 165428.4060000001,
      "d": 214.28549999999814,
      "v": 127
    },
    {
      "midi": 67,
      "hit": false,
      "t": 165642.69149999987,
      "d": 272.3211562499928,
      "v": 70
    },
    {
      "midi": 71,
      "hit": false,
      "t": 165642.69149999987,
      "d": 290.1782812500023,
      "v": 70
    },
    {
      "midi": 76,
      "hit": false,
      "t": 165642.69149999987,
      "d": 294.64256249999744,
      "v": 70
    },
    {
      "midi": 45,
      "hit": false,
      "t": 165642.6915000001,
      "d": 66.96421875001397,
      "v": 110
    },
    {
      "midi": 45,
      "hit": false,
      "t": 165749.83425000013,
      "d": 93.74990625001374,
      "v": 110
    },
    {
      "midi": 33,
      "hit": false,
      "t": 165856.97700000016,
      "d": 214.28549999999814,
      "v": 127
    },
    {
      "midi": 67,
      "hit": false,
      "t": 166071.26249999987,
      "d": 205.35693750000792,
      "v": 70
    },
    {
      "midi": 73,
      "hit": false,
      "t": 166071.26249999987,
      "d": 205.35693750000792,
      "v": 70
    },
    {
      "midi": 71,
      "hit": false,
      "t": 166071.26249999987,
      "d": 214.28549999999814,
      "v": 70
    },
    {
      "midi": 45,
      "hit": false,
      "t": 166071.26250000016,
      "d": 66.96421875001397,
      "v": 110
    },
    {
      "midi": 45,
      "hit": false,
      "t": 166178.40525000019,
      "d": 75.89278125000419,
      "v": 110
    },
    {
      "midi": 59,
      "hit": false,
      "t": 166249.83375,
      "d": 879.4634062499972,
      "v": 65
    },
    {
      "midi": 35,
      "hit": false,
      "t": 166285.54799999966,
      "d": 897.3205312500068,
      "v": 70
    },
    {
      "midi": 66,
      "hit": false,
      "t": 166285.54799999986,
      "d": 178.57125000000815,
      "v": 70
    },
    {
      "midi": 74,
      "hit": false,
      "t": 166285.54799999986,
      "d": 223.21406250001746,
      "v": 70
    },
    {
      "midi": 71,
      "hit": false,
      "t": 166285.54799999986,
      "d": 227.67834375001257,
      "v": 70
    },
    {
      "midi": 47,
      "hit": false,
      "t": 166285.548,
      "d": 866.0705624999828,
      "v": 50
    },
    {
      "midi": 54,
      "hit": false,
      "t": 166285.548,
      "d": 1428.5699999999779,
      "v": 50
    },
    {
      "midi": 23,
      "hit": false,
      "t": 166285.54800000018,
      "d": 214.28549999999814,
      "v": 127
    },
    {
      "midi": 35,
      "hit": false,
      "t": 166499.83350000018,
      "d": 80.3570624999993,
      "v": 110
    },
    {
      "midi": 35,
      "hit": false,
      "t": 166606.97625000018,
      "d": 80.3570624999993,
      "v": 110
    },
    {
      "midi": 66,
      "hit": false,
      "t": 166714.1189999999,
      "d": 191.96409374999348,
      "v": 70
    },
    {
      "midi": 73,
      "hit": false,
      "t": 166714.1189999999,
      "d": 191.96409374999348,
      "v": 70
    },
    {
      "midi": 71,
      "hit": false,
      "t": 166714.1189999999,
      "d": 214.28549999999814,
      "v": 70
    },
    {
      "midi": 23,
      "hit": false,
      "t": 166714.11900000018,
      "d": 214.28549999999814,
      "v": 127
    },
    {
      "midi": 35,
      "hit": false,
      "t": 166928.40450000018,
      "d": 80.3570624999993,
      "v": 110
    },
    {
      "midi": 35,
      "hit": false,
      "t": 167035.54725000018,
      "d": 84.82134374999441,
      "v": 110
    },
    {
      "midi": 61,
      "hit": false,
      "t": 167093.58290625,
      "d": 656.2493437499797,
      "v": 50
    },
    {
      "midi": 57,
      "hit": false,
      "t": 167106.97574999998,
      "d": 883.9276874999923,
      "v": 65
    },
    {
      "midi": 57,
      "hit": false,
      "t": 167111.44003125,
      "d": 616.0708124999655,
      "v": 50
    },
    {
      "midi": 42,
      "hit": false,
      "t": 167115.9043125,
      "d": 633.9279374999751,
      "v": 50
    },
    {
      "midi": 30,
      "hit": false,
      "t": 167142.68999999965,
      "d": 830.3563125000219,
      "v": 70
    },
    {
      "midi": 66,
      "hit": false,
      "t": 167142.6899999999,
      "d": 142.85699999998906,
      "v": 70
    },
    {
      "midi": 74,
      "hit": false,
      "t": 167142.6899999999,
      "d": 160.7141249999986,
      "v": 70
    },
    {
      "midi": 71,
      "hit": false,
      "t": 167142.6899999999,
      "d": 174.10696875001304,
      "v": 70
    },
    {
      "midi": 30,
      "hit": false,
      "t": 167142.69000000018,
      "d": 214.28549999999814,
      "v": 127
    },
    {
      "midi": 66,
      "hit": false,
      "t": 167356.9754999999,
      "d": 160.7141249999986,
      "v": 70
    },
    {
      "midi": 73,
      "hit": false,
      "t": 167356.9754999999,
      "d": 178.57125000000815,
      "v": 70
    },
    {
      "midi": 71,
      "hit": false,
      "t": 167356.9754999999,
      "d": 187.49981249999837,
      "v": 70
    },
    {
      "midi": 42,
      "hit": false,
      "t": 167356.97550000018,
      "d": 66.96421875001397,
      "v": 110
    },
    {
      "midi": 42,
      "hit": false,
      "t": 167464.1182500002,
      "d": 93.74990625001374,
      "v": 110
    },
    {
      "midi": 30,
      "hit": false,
      "t": 167571.26100000023,
      "d": 214.28549999999814,
      "v": 127
    },
    {
      "midi": 55,
      "hit": false,
      "t": 167691.79659374998,
      "d": 2022.319406250026,
      "v": 50
    },
    {
      "midi": 59,
      "hit": false,
      "t": 167691.79659374998,
      "d": 2022.319406250026,
      "v": 50
    },
    {
      "midi": 62,
      "hit": false,
      "t": 167696.26087499998,
      "d": 2017.855125000031,
      "v": 50
    },
    {
      "midi": 43,
      "hit": false,
      "t": 167723.04656249998,
      "d": 1071.4275000000198,
      "v": 50
    },
    {
      "midi": 71,
      "hit": false,
      "t": 167785.5464999999,
      "d": 174.10696875001304,
      "v": 70
    },
    {
      "midi": 67,
      "hit": false,
      "t": 167785.5464999999,
      "d": 183.03553125000326,
      "v": 70
    },
    {
      "midi": 74,
      "hit": false,
      "t": 167785.5464999999,
      "d": 187.49981249999837,
      "v": 70
    },
    {
      "midi": 42,
      "hit": false,
      "t": 167785.54650000023,
      "d": 66.96421875001397,
      "v": 110
    },
    {
      "midi": 42,
      "hit": false,
      "t": 167892.68925000026,
      "d": 75.89278125000419,
      "v": 110
    },
    {
      "midi": 55,
      "hit": false,
      "t": 167959.65346874998,
      "d": 888.3919687499874,
      "v": 65
    },
    {
      "midi": 31,
      "hit": false,
      "t": 167999.83199999967,
      "d": 866.0705624999828,
      "v": 70
    },
    {
      "midi": 31,
      "hit": false,
      "t": 167999.83200000026,
      "d": 214.28549999999814,
      "v": 127
    },
    {
      "midi": 67,
      "hit": false,
      "t": 168214.1174999999,
      "d": 120.5355937500135,
      "v": 70
    },
    {
      "midi": 71,
      "hit": false,
      "t": 168214.1174999999,
      "d": 133.92843750002794,
      "v": 70
    },
    {
      "midi": 74,
      "hit": false,
      "t": 168214.1174999999,
      "d": 133.92843750002794,
      "v": 70
    },
    {
      "midi": 43,
      "hit": false,
      "t": 168214.11750000025,
      "d": 80.3570624999993,
      "v": 110
    },
    {
      "midi": 43,
      "hit": false,
      "t": 168321.26025000025,
      "d": 80.3570624999993,
      "v": 110
    },
    {
      "midi": 67,
      "hit": false,
      "t": 168428.40299999993,
      "d": 196.4283749999886,
      "v": 70
    },
    {
      "midi": 71,
      "hit": false,
      "t": 168428.40299999993,
      "d": 196.4283749999886,
      "v": 70
    },
    {
      "midi": 73,
      "hit": false,
      "t": 168428.40299999993,
      "d": 196.4283749999886,
      "v": 70
    },
    {
      "midi": 31,
      "hit": false,
      "t": 168428.40300000025,
      "d": 214.28549999999814,
      "v": 127
    },
    {
      "midi": 43,
      "hit": false,
      "t": 168642.68850000025,
      "d": 80.3570624999993,
      "v": 110
    },
    {
      "midi": 43,
      "hit": false,
      "t": 168749.83125000025,
      "d": 84.82134374999441,
      "v": 110
    },
    {
      "midi": 45,
      "hit": false,
      "t": 168776.6169375,
      "d": 937.499062500021,
      "v": 50
    },
    {
      "midi": 57,
      "hit": false,
      "t": 168821.25974999997,
      "d": 892.8562500000116,
      "v": 65
    },
    {
      "midi": 33,
      "hit": false,
      "t": 168856.97399999967,
      "d": 870.5348437499779,
      "v": 70
    },
    {
      "midi": 67,
      "hit": false,
      "t": 168856.97399999993,
      "d": 214.28549999999814,
      "v": 70
    },
    {
      "midi": 71,
      "hit": false,
      "t": 168856.97399999993,
      "d": 218.74978124999325,
      "v": 70
    },
    {
      "midi": 74,
      "hit": false,
      "t": 168856.97399999993,
      "d": 227.67834374998347,
      "v": 70
    },
    {
      "midi": 33,
      "hit": false,
      "t": 168856.97400000025,
      "d": 214.28549999999814,
      "v": 127
    },
    {
      "midi": 45,
      "hit": false,
      "t": 169071.25950000025,
      "d": 66.96421875001397,
      "v": 110
    },
    {
      "midi": 45,
      "hit": false,
      "t": 169178.40225000028,
      "d": 93.74990625001374,
      "v": 110
    },
    {
      "midi": 67,
      "hit": false,
      "t": 169285.54499999993,
      "d": 223.21406249998836,
      "v": 70
    },
    {
      "midi": 71,
      "hit": false,
      "t": 169285.54499999993,
      "d": 232.14262499997858,
      "v": 70
    },
    {
      "midi": 76,
      "hit": false,
      "t": 169285.54499999993,
      "d": 245.53546874999302,
      "v": 70
    },
    {
      "midi": 33,
      "hit": false,
      "t": 169285.5450000003,
      "d": 214.28549999999814,
      "v": 127
    },
    {
      "midi": 45,
      "hit": false,
      "t": 169499.8305000003,
      "d": 66.96421875001397,
      "v": 110
    },
    {
      "midi": 45,
      "hit": false,
      "t": 169606.97325000033,
      "d": 75.89278125000419,
      "v": 110
    },
    {
      "midi": 47,
      "hit": false,
      "t": 169714.11599999998,
      "d": 1683.0340312499902,
      "v": 30
    },
    {
      "midi": 54,
      "hit": false,
      "t": 169714.11599999998,
      "d": 3285.710999999981,
      "v": 30
    },
    {
      "midi": 62,
      "hit": false,
      "t": 169714.11599999998,
      "d": 3361.6037812499853,
      "v": 30
    },
    {
      "midi": 59,
      "hit": false,
      "t": 169714.11599999998,
      "d": 3441.9608437499555,
      "v": 30
    },
    {
      "midi": 78,
      "hit": false,
      "t": 170361.4367812501,
      "d": 129.46415625000373,
      "v": 105
    },
    {
      "midi": 78,
      "hit": false,
      "t": 170580.18656250008,
      "d": 129.46415625000373,
      "v": 105
    },
    {
      "midi": 78,
      "hit": false,
      "t": 170794.47206250008,
      "d": 236.6069062500028,
      "v": 105
    },
    {
      "midi": 78,
      "hit": false,
      "t": 171187.32881250008,
      "d": 450.89240625000093,
      "v": 105
    },
    {
      "midi": 43,
      "hit": false,
      "t": 171365.90006249998,
      "d": 1705.3554374999949,
      "v": 30
    },
    {
      "midi": 79,
      "hit": false,
      "t": 171642.68550000008,
      "d": 383.92818749998696,
      "v": 105
    },
    {
      "midi": 76,
      "hit": false,
      "t": 172075.72078125007,
      "d": 406.2495937499916,
      "v": 105
    },
    {
      "midi": 74,
      "hit": false,
      "t": 172490.89893750005,
      "d": 370.53534375000163,
      "v": 105
    },
    {
      "midi": 76,
      "hit": false,
      "t": 172901.61281250007,
      "d": 678.5707500000135,
      "v": 105
    },
    {
      "midi": 45,
      "hit": false,
      "t": 173075.71978124997,
      "d": 1745.5339687499509,
      "v": 30
    },
    {
      "midi": 61,
      "hit": false,
      "t": 173075.71978124997,
      "d": 3495.532218749955,
      "v": 30
    },
    {
      "midi": 64,
      "hit": false,
      "t": 173084.64834374996,
      "d": 3486.603656249965,
      "v": 30
    },
    {
      "midi": 57,
      "hit": false,
      "t": 173093.57690624995,
      "d": 1575.8912812499912,
      "v": 30
    },
    {
      "midi": 76,
      "hit": false,
      "t": 173781.0762187501,
      "d": 124.99987500000861,
      "v": 105
    },
    {
      "midi": 76,
      "hit": false,
      "t": 174004.2902812501,
      "d": 138.39271874999395,
      "v": 105
    },
    {
      "midi": 76,
      "hit": false,
      "t": 174218.5757812501,
      "d": 370.53534375000163,
      "v": 105
    },
    {
      "midi": 81,
      "hit": false,
      "t": 174620.3610937501,
      "d": 415.17815625001094,
      "v": 105
    },
    {
      "midi": 54,
      "hit": false,
      "t": 174776.61093749994,
      "d": 1758.9268124999944,
      "v": 30
    },
    {
      "midi": 58,
      "hit": false,
      "t": 174776.61093749994,
      "d": 1794.6410624999844,
      "v": 30
    },
    {
      "midi": 42,
      "hit": false,
      "t": 174785.53949999993,
      "d": 1785.7124999999942,
      "v": 30
    },
    {
      "midi": 79,
      "hit": false,
      "t": 175084.64634375012,
      "d": 366.0710625000065,
      "v": 105
    },
    {
      "midi": 78,
      "hit": false,
      "t": 175499.82450000013,
      "d": 374.99962499999674,
      "v": 105
    },
    {
      "midi": 79,
      "hit": false,
      "t": 175910.53837500012,
      "d": 366.0710625000065,
      "v": 105
    },
    {
      "midi": 78,
      "hit": false,
      "t": 176325.71653125013,
      "d": 723.2135624999937,
      "v": 105
    },
    {
      "midi": 47,
      "hit": false,
      "t": 176571.25199999992,
      "d": 1683.0340312499902,
      "v": 30
    },
    {
      "midi": 54,
      "hit": false,
      "t": 176571.25199999992,
      "d": 3285.710999999981,
      "v": 30
    },
    {
      "midi": 62,
      "hit": false,
      "t": 176571.25199999992,
      "d": 3361.6037812499853,
      "v": 30
    },
    {
      "midi": 59,
      "hit": false,
      "t": 176571.25199999992,
      "d": 3441.9608437499555,
      "v": 30
    },
    {
      "midi": 74,
      "hit": false,
      "t": 177205.17993750013,
      "d": 129.46415625000373,
      "v": 105
    },
    {
      "midi": 74,
      "hit": false,
      "t": 177419.46543750013,
      "d": 174.10696875001304,
      "v": 105
    },
    {
      "midi": 74,
      "hit": false,
      "t": 177669.46518750014,
      "d": 330.3568124999874,
      "v": 105
    },
    {
      "midi": 74,
      "hit": false,
      "t": 178089.10762500012,
      "d": 424.10671875000116,
      "v": 105
    },
    {
      "midi": 43,
      "hit": false,
      "t": 178223.03606249992,
      "d": 1705.3554374999949,
      "v": 30
    },
    {
      "midi": 76,
      "hit": false,
      "t": 178517.67862500012,
      "d": 276.7854374999879,
      "v": 105
    },
    {
      "midi": 76,
      "hit": false,
      "t": 178937.3210625001,
      "d": 410.71387499998673,
      "v": 105
    },
    {
      "midi": 78,
      "hit": false,
      "t": 179352.49921875008,
      "d": 401.7853124999965,
      "v": 105
    },
    {
      "midi": 76,
      "hit": false,
      "t": 179803.39162500008,
      "d": 1754.4625312499993,
      "v": 105
    },
    {
      "midi": 45,
      "hit": false,
      "t": 179932.8557812499,
      "d": 1745.5339687499509,
      "v": 30
    },
    {
      "midi": 61,
      "hit": false,
      "t": 179932.8557812499,
      "d": 3495.532218749955,
      "v": 30
    },
    {
      "midi": 64,
      "hit": false,
      "t": 179941.7843437499,
      "d": 3486.603656249965,
      "v": 30
    },
    {
      "midi": 57,
      "hit": false,
      "t": 179950.7129062499,
      "d": 1575.8912812499912,
      "v": 30
    },
    {
      "midi": 54,
      "hit": false,
      "t": 181633.74693749988,
      "d": 1772.3196562499797,
      "v": 30
    },
    {
      "midi": 58,
      "hit": false,
      "t": 181633.74693749988,
      "d": 1794.6410624999844,
      "v": 30
    },
    {
      "midi": 42,
      "hit": false,
      "t": 181642.67549999987,
      "d": 1785.7124999999942,
      "v": 30
    },
    {
      "midi": 78,
      "hit": false,
      "t": 182531.0674687501,
      "d": 249.99974999998813,
      "v": 105
    },
    {
      "midi": 76,
      "hit": false,
      "t": 182781.06721875007,
      "d": 343.74965625000186,
      "v": 105
    },
    {
      "midi": 78,
      "hit": false,
      "t": 183205.17393750008,
      "d": 562.4994374999951,
      "v": 105
    },
    {
      "midi": 47,
      "hit": false,
      "t": 183428.38799999986,
      "d": 1683.0340312499902,
      "v": 30
    },
    {
      "midi": 54,
      "hit": false,
      "t": 183428.38799999986,
      "d": 3285.710999999981,
      "v": 30
    },
    {
      "midi": 62,
      "hit": false,
      "t": 183428.38799999986,
      "d": 3361.6037812499853,
      "v": 30
    },
    {
      "midi": 59,
      "hit": false,
      "t": 183428.38799999986,
      "d": 3441.9608437499555,
      "v": 30
    },
    {
      "midi": 78,
      "hit": false,
      "t": 184053.38737500008,
      "d": 178.57125000000815,
      "v": 105
    },
    {
      "midi": 78,
      "hit": false,
      "t": 184289.99428125008,
      "d": 191.96409374999348,
      "v": 105
    },
    {
      "midi": 78,
      "hit": false,
      "t": 184526.60118750008,
      "d": 276.7854374999879,
      "v": 105
    },
    {
      "midi": 78,
      "hit": false,
      "t": 184941.77934375007,
      "d": 455.35668750002515,
      "v": 105
    },
    {
      "midi": 43,
      "hit": false,
      "t": 185080.17206249986,
      "d": 1705.3554374999949,
      "v": 30
    },
    {
      "midi": 79,
      "hit": false,
      "t": 185383.74318750008,
      "d": 258.92831250000745,
      "v": 105
    },
    {
      "midi": 79,
      "hit": false,
      "t": 185785.52850000007,
      "d": 410.71387499998673,
      "v": 105
    },
    {
      "midi": 81,
      "hit": false,
      "t": 186205.17093750005,
      "d": 245.53546874999302,
      "v": 105
    },
    {
      "midi": 81,
      "hit": false,
      "t": 186602.49196875005,
      "d": 642.8564999999944,
      "v": 105
    },
    {
      "midi": 45,
      "hit": false,
      "t": 186789.99178124985,
      "d": 1745.5339687499509,
      "v": 30
    },
    {
      "midi": 61,
      "hit": false,
      "t": 186789.99178124985,
      "d": 3495.532218749955,
      "v": 30
    },
    {
      "midi": 64,
      "hit": false,
      "t": 186798.92034374984,
      "d": 3486.603656249965,
      "v": 30
    },
    {
      "midi": 57,
      "hit": false,
      "t": 186807.84890624983,
      "d": 1575.8912812499912,
      "v": 30
    },
    {
      "midi": 81,
      "hit": false,
      "t": 187495.34821875003,
      "d": 133.92843749999884,
      "v": 105
    },
    {
      "midi": 81,
      "hit": false,
      "t": 187723.02656250005,
      "d": 174.10696875001304,
      "v": 105
    },
    {
      "midi": 81,
      "hit": false,
      "t": 187968.56203125007,
      "d": 406.2495937499916,
      "v": 105
    },
    {
      "midi": 86,
      "hit": false,
      "t": 188365.88306250007,
      "d": 419.64243749997695,
      "v": 105
    },
    {
      "midi": 54,
      "hit": false,
      "t": 188490.88293749982,
      "d": 1758.9268124999944,
      "v": 30
    },
    {
      "midi": 58,
      "hit": false,
      "t": 188490.88293749982,
      "d": 1794.6410624999844,
      "v": 30
    },
    {
      "midi": 42,
      "hit": false,
      "t": 188499.8114999998,
      "d": 1785.7124999999942,
      "v": 30
    },
    {
      "midi": 85,
      "hit": false,
      "t": 188781.06121875005,
      "d": 218.74978124999325,
      "v": 105
    },
    {
      "midi": 83,
      "hit": false,
      "t": 188999.81100000005,
      "d": 232.14262500000768,
      "v": 105
    },
    {
      "midi": 85,
      "hit": false,
      "t": 189205.16793750005,
      "d": 437.4995624999865,
      "v": 105
    },
    {
      "midi": 86,
      "hit": false,
      "t": 189633.73893750005,
      "d": 218.74978124999325,
      "v": 105
    },
    {
      "midi": 85,
      "hit": false,
      "t": 189843.56015625005,
      "d": 218.74978124999325,
      "v": 105
    },
    {
      "midi": 83,
      "hit": false,
      "t": 190057.84565625005,
      "d": 245.53546874999302,
      "v": 105
    },
    {
      "midi": 47,
      "hit": false,
      "t": 190285.5239999998,
      "d": 1683.0340312499902,
      "v": 30
    },
    {
      "midi": 54,
      "hit": false,
      "t": 190285.5239999998,
      "d": 3285.710999999981,
      "v": 30
    },
    {
      "midi": 62,
      "hit": false,
      "t": 190285.5239999998,
      "d": 3361.6037812499853,
      "v": 30
    },
    {
      "midi": 59,
      "hit": false,
      "t": 190285.5239999998,
      "d": 3441.9608437499555,
      "v": 30
    },
    {
      "midi": 78,
      "hit": false,
      "t": 190285.52400000003,
      "d": 486.60665625002,
      "v": 105
    },
    {
      "midi": 74,
      "hit": false,
      "t": 190910.52337500005,
      "d": 160.7141249999986,
      "v": 105
    },
    {
      "midi": 74,
      "hit": false,
      "t": 191129.27315625004,
      "d": 227.67834375001257,
      "v": 105
    },
    {
      "midi": 74,
      "hit": false,
      "t": 191410.52287500005,
      "d": 276.7854374999879,
      "v": 105
    },
    {
      "midi": 74,
      "hit": false,
      "t": 191781.05821875005,
      "d": 433.0352812499914,
      "v": 105
    },
    {
      "midi": 43,
      "hit": false,
      "t": 191937.3080624998,
      "d": 1705.3554374999949,
      "v": 30
    },
    {
      "midi": 76,
      "hit": false,
      "t": 192223.02206250004,
      "d": 312.499687500007,
      "v": 105
    },
    {
      "midi": 76,
      "hit": false,
      "t": 192647.12878125004,
      "d": 406.2495937500207,
      "v": 105
    },
    {
      "midi": 78,
      "hit": false,
      "t": 193039.98553125004,
      "d": 424.10671875000116,
      "v": 105
    },
    {
      "midi": 76,
      "hit": false,
      "t": 193477.48509375006,
      "d": 1977.6765937499877,
      "v": 105
    },
    {
      "midi": 45,
      "hit": false,
      "t": 193647.1277812498,
      "d": 1745.5339687499509,
      "v": 30
    },
    {
      "midi": 61,
      "hit": false,
      "t": 193647.1277812498,
      "d": 3495.532218749955,
      "v": 30
    },
    {
      "midi": 64,
      "hit": false,
      "t": 193656.05634374978,
      "d": 3486.603656249965,
      "v": 30
    },
    {
      "midi": 57,
      "hit": false,
      "t": 193664.98490624977,
      "d": 1575.8912812499912,
      "v": 30
    },
    {
      "midi": 54,
      "hit": false,
      "t": 195348.01893749976,
      "d": 1772.3196562499797,
      "v": 30
    },
    {
      "midi": 58,
      "hit": false,
      "t": 195348.01893749976,
      "d": 1794.6410624999844,
      "v": 30
    },
    {
      "midi": 42,
      "hit": false,
      "t": 195356.94749999975,
      "d": 1785.7124999999942,
      "v": 30
    },
    {
      "midi": 83,
      "hit": false,
      "t": 196289.98228125004,
      "d": 232.14262499997858,
      "v": 105
    },
    {
      "midi": 81,
      "hit": false,
      "t": 196513.19634375002,
      "d": 415.17815624998184,
      "v": 105
    },
    {
      "midi": 83,
      "hit": false,
      "t": 196928.3745,
      "d": 723.2135624999937,
      "v": 105
    },
    {
      "midi": 59,
      "hit": false,
      "t": 197142.66,
      "d": 834.8205937499879,
      "v": 50
    },
    {
      "midi": 47,
      "hit": false,
      "t": 197142.66,
      "d": 866.0705624999828,
      "v": 50
    },
    {
      "midi": 62,
      "hit": false,
      "t": 197142.66,
      "d": 879.4634062499972,
      "v": 50
    },
    {
      "midi": 54,
      "hit": false,
      "t": 197142.66,
      "d": 1428.570000000007,
      "v": 50
    },
    {
      "midi": 23,
      "hit": false,
      "t": 197142.66000000032,
      "d": 214.28549999999814,
      "v": 127
    },
    {
      "midi": 35,
      "hit": false,
      "t": 197356.94550000032,
      "d": 80.3570624999993,
      "v": 110
    },
    {
      "midi": 35,
      "hit": false,
      "t": 197464.08825000032,
      "d": 80.3570624999993,
      "v": 110
    },
    {
      "midi": 23,
      "hit": false,
      "t": 197571.23100000032,
      "d": 214.28549999999814,
      "v": 127
    },
    {
      "midi": 35,
      "hit": false,
      "t": 197785.51650000032,
      "d": 80.3570624999993,
      "v": 110
    },
    {
      "midi": 35,
      "hit": false,
      "t": 197892.65925000032,
      "d": 84.82134374999441,
      "v": 110
    },
    {
      "midi": 61,
      "hit": false,
      "t": 197950.69490625,
      "d": 656.2493437500088,
      "v": 50
    },
    {
      "midi": 57,
      "hit": false,
      "t": 197968.55203125,
      "d": 616.0708124999946,
      "v": 50
    },
    {
      "midi": 42,
      "hit": false,
      "t": 197973.0163125,
      "d": 633.9279375000042,
      "v": 50
    },
    {
      "midi": 30,
      "hit": false,
      "t": 197999.80200000032,
      "d": 214.28549999999814,
      "v": 127
    },
    {
      "midi": 76,
      "hit": false,
      "t": 198214.0875,
      "d": 227.67834375001257,
      "v": 105
    },
    {
      "midi": 42,
      "hit": false,
      "t": 198214.0875000003,
      "d": 66.96421875001397,
      "v": 110
    },
    {
      "midi": 42,
      "hit": false,
      "t": 198321.23025000034,
      "d": 93.74990625001374,
      "v": 110
    },
    {
      "midi": 74,
      "hit": false,
      "t": 198419.4444375,
      "d": 89.28562500001863,
      "v": 105
    },
    {
      "midi": 30,
      "hit": false,
      "t": 198428.37300000037,
      "d": 214.28549999999814,
      "v": 127
    },
    {
      "midi": 55,
      "hit": false,
      "t": 198548.90859375,
      "d": 2022.319406250026,
      "v": 50
    },
    {
      "midi": 59,
      "hit": false,
      "t": 198548.90859375,
      "d": 2879.4614062500186,
      "v": 50
    },
    {
      "midi": 62,
      "hit": false,
      "t": 198553.372875,
      "d": 2874.9971250000235,
      "v": 50
    },
    {
      "midi": 43,
      "hit": false,
      "t": 198580.1585625,
      "d": 1071.4275000000198,
      "v": 50
    },
    {
      "midi": 42,
      "hit": false,
      "t": 198642.65850000037,
      "d": 66.96421875001397,
      "v": 110
    },
    {
      "midi": 74,
      "hit": false,
      "t": 198647.12278125001,
      "d": 459.82096874999115,
      "v": 105
    },
    {
      "midi": 42,
      "hit": false,
      "t": 198749.8012500004,
      "d": 75.89278125000419,
      "v": 110
    },
    {
      "midi": 31,
      "hit": false,
      "t": 198856.9440000004,
      "d": 214.28549999999814,
      "v": 127
    },
    {
      "midi": 43,
      "hit": false,
      "t": 199071.2295000004,
      "d": 80.3570624999993,
      "v": 110
    },
    {
      "midi": 76,
      "hit": false,
      "t": 199080.1580625,
      "d": 218.74978124999325,
      "v": 105
    },
    {
      "midi": 43,
      "hit": false,
      "t": 199178.3722500004,
      "d": 80.3570624999993,
      "v": 110
    },
    {
      "midi": 31,
      "hit": false,
      "t": 199285.5150000004,
      "d": 214.28549999999814,
      "v": 127
    },
    {
      "midi": 43,
      "hit": false,
      "t": 199499.8005000004,
      "d": 80.3570624999993,
      "v": 110
    },
    {
      "midi": 43,
      "hit": false,
      "t": 199606.9432500004,
      "d": 84.82134374999441,
      "v": 110
    },
    {
      "midi": 45,
      "hit": false,
      "t": 199633.7289375,
      "d": 937.499062500021,
      "v": 50
    },
    {
      "midi": 33,
      "hit": false,
      "t": 199714.0860000004,
      "d": 214.28549999999814,
      "v": 127
    },
    {
      "midi": 45,
      "hit": false,
      "t": 199928.3715000004,
      "d": 66.96421875001397,
      "v": 110
    },
    {
      "midi": 74,
      "hit": false,
      "t": 199946.228625,
      "d": 285.7140000000072,
      "v": 105
    },
    {
      "midi": 45,
      "hit": false,
      "t": 200035.51425000041,
      "d": 93.74990625001374,
      "v": 110
    },
    {
      "midi": 33,
      "hit": false,
      "t": 200142.65700000044,
      "d": 214.28549999999814,
      "v": 127
    },
    {
      "midi": 76,
      "hit": false,
      "t": 200263.19259375,
      "d": 241.0711874999979,
      "v": 105
    },
    {
      "midi": 45,
      "hit": false,
      "t": 200356.94250000044,
      "d": 66.96421875001397,
      "v": 110
    },
    {
      "midi": 45,
      "hit": false,
      "t": 200464.08525000047,
      "d": 75.89278125000419,
      "v": 110
    },
    {
      "midi": 78,
      "hit": false,
      "t": 200571.228,
      "d": 357.1424999999872,
      "v": 105
    },
    {
      "midi": 47,
      "hit": false,
      "t": 200571.22800000003,
      "d": 866.0705624999828,
      "v": 50
    },
    {
      "midi": 54,
      "hit": false,
      "t": 200571.22800000003,
      "d": 1428.5699999999779,
      "v": 50
    },
    {
      "midi": 23,
      "hit": false,
      "t": 200571.22800000047,
      "d": 214.28549999999814,
      "v": 127
    },
    {
      "midi": 35,
      "hit": false,
      "t": 200785.51350000047,
      "d": 80.3570624999993,
      "v": 110
    },
    {
      "midi": 35,
      "hit": false,
      "t": 200892.65625000047,
      "d": 80.3570624999993,
      "v": 110
    },
    {
      "midi": 76,
      "hit": false,
      "t": 200981.941875,
      "d": 191.96409374999348,
      "v": 105
    },
    {
      "midi": 23,
      "hit": false,
      "t": 200999.79900000046,
      "d": 214.28549999999814,
      "v": 127
    },
    {
      "midi": 74,
      "hit": false,
      "t": 201173.90596874998,
      "d": 107.14274999999907,
      "v": 105
    },
    {
      "midi": 35,
      "hit": false,
      "t": 201214.08450000046,
      "d": 80.3570624999993,
      "v": 110
    },
    {
      "midi": 35,
      "hit": false,
      "t": 201321.22725000046,
      "d": 84.82134374999441,
      "v": 110
    },
    {
      "midi": 61,
      "hit": false,
      "t": 201379.26290625002,
      "d": 656.2493437499797,
      "v": 50
    },
    {
      "midi": 57,
      "hit": false,
      "t": 201397.12003125003,
      "d": 616.0708124999655,
      "v": 50
    },
    {
      "midi": 42,
      "hit": false,
      "t": 201401.58431250002,
      "d": 633.9279374999751,
      "v": 50
    },
    {
      "midi": 74,
      "hit": false,
      "t": 201406.04859375,
      "d": 428.5709999999963,
      "v": 105
    },
    {
      "midi": 30,
      "hit": false,
      "t": 201428.37000000046,
      "d": 214.28549999999814,
      "v": 127
    },
    {
      "midi": 42,
      "hit": false,
      "t": 201642.65550000046,
      "d": 66.96421875001397,
      "v": 110
    },
    {
      "midi": 42,
      "hit": false,
      "t": 201749.7982500005,
      "d": 93.74990625001374,
      "v": 110
    },
    {
      "midi": 76,
      "hit": false,
      "t": 201825.69103125,
      "d": 200.8926562499837,
      "v": 105
    },
    {
      "midi": 30,
      "hit": false,
      "t": 201856.94100000052,
      "d": 214.28549999999814,
      "v": 127
    },
    {
      "midi": 55,
      "hit": false,
      "t": 201977.47659375,
      "d": 2022.319406250026,
      "v": 50
    },
    {
      "midi": 59,
      "hit": false,
      "t": 201977.47659375,
      "d": 2879.4614062500186,
      "v": 50
    },
    {
      "midi": 62,
      "hit": false,
      "t": 201981.940875,
      "d": 2874.9971250000235,
      "v": 50
    },
    {
      "midi": 43,
      "hit": false,
      "t": 202008.7265625,
      "d": 1071.4275000000198,
      "v": 50
    },
    {
      "midi": 71,
      "hit": false,
      "t": 202053.36937499998,
      "d": 437.4995624999865,
      "v": 105
    },
    {
      "midi": 42,
      "hit": false,
      "t": 202071.2265000005,
      "d": 66.96421875001397,
      "v": 110
    },
    {
      "midi": 42,
      "hit": false,
      "t": 202178.36925000054,
      "d": 75.89278125000419,
      "v": 110
    },
    {
      "midi": 31,
      "hit": false,
      "t": 202285.51200000054,
      "d": 214.28549999999814,
      "v": 127
    },
    {
      "midi": 69,
      "hit": false,
      "t": 202495.33321874996,
      "d": 236.6069062500028,
      "v": 105
    },
    {
      "midi": 43,
      "hit": false,
      "t": 202499.79750000054,
      "d": 80.3570624999993,
      "v": 110
    },
    {
      "midi": 43,
      "hit": false,
      "t": 202606.94025000054,
      "d": 80.3570624999993,
      "v": 110
    },
    {
      "midi": 31,
      "hit": false,
      "t": 202714.08300000054,
      "d": 214.28549999999814,
      "v": 127
    },
    {
      "midi": 43,
      "hit": false,
      "t": 202928.36850000054,
      "d": 80.3570624999993,
      "v": 110
    },
    {
      "midi": 43,
      "hit": false,
      "t": 203035.51125000053,
      "d": 84.82134374999441,
      "v": 110
    },
    {
      "midi": 45,
      "hit": false,
      "t": 203062.2969375,
      "d": 937.499062500021,
      "v": 50
    },
    {
      "midi": 83,
      "hit": false,
      "t": 203098.01118749997,
      "d": 263.39259375000256,
      "v": 105
    },
    {
      "midi": 33,
      "hit": false,
      "t": 203142.65400000053,
      "d": 214.28549999999814,
      "v": 127
    },
    {
      "midi": 81,
      "hit": false,
      "t": 203343.54665624996,
      "d": 290.1782812500023,
      "v": 105
    },
    {
      "midi": 45,
      "hit": false,
      "t": 203356.93950000053,
      "d": 66.96421875001397,
      "v": 110
    },
    {
      "midi": 45,
      "hit": false,
      "t": 203464.08225000056,
      "d": 93.74990625001374,
      "v": 110
    },
    {
      "midi": 33,
      "hit": false,
      "t": 203571.2250000006,
      "d": 214.28549999999814,
      "v": 127
    },
    {
      "midi": 83,
      "hit": false,
      "t": 203745.33196874996,
      "d": 531.2494687500002,
      "v": 105
    },
    {
      "midi": 45,
      "hit": false,
      "t": 203785.5105000006,
      "d": 66.96421875001397,
      "v": 110
    },
    {
      "midi": 45,
      "hit": false,
      "t": 203892.6532500006,
      "d": 75.89278125000419,
      "v": 110
    },
    {
      "midi": 47,
      "hit": false,
      "t": 203999.79600000003,
      "d": 866.0705624999828,
      "v": 50
    },
    {
      "midi": 54,
      "hit": false,
      "t": 203999.79600000003,
      "d": 1428.5699999999779,
      "v": 50
    },
    {
      "midi": 23,
      "hit": false,
      "t": 203999.7960000006,
      "d": 214.28549999999814,
      "v": 127
    },
    {
      "midi": 35,
      "hit": false,
      "t": 204214.0815000006,
      "d": 80.3570624999993,
      "v": 110
    },
    {
      "midi": 35,
      "hit": false,
      "t": 204321.2242500006,
      "d": 80.3570624999993,
      "v": 110
    },
    {
      "midi": 23,
      "hit": false,
      "t": 204428.3670000006,
      "d": 214.28549999999814,
      "v": 127
    },
    {
      "midi": 35,
      "hit": false,
      "t": 204642.6525000006,
      "d": 80.3570624999993,
      "v": 110
    },
    {
      "midi": 35,
      "hit": false,
      "t": 204749.7952500006,
      "d": 84.82134374999441,
      "v": 110
    },
    {
      "midi": 61,
      "hit": false,
      "t": 204807.83090625002,
      "d": 656.2493437499797,
      "v": 50
    },
    {
      "midi": 57,
      "hit": false,
      "t": 204825.68803125003,
      "d": 616.0708124999655,
      "v": 50
    },
    {
      "midi": 42,
      "hit": false,
      "t": 204830.15231250002,
      "d": 633.9279374999751,
      "v": 50
    },
    {
      "midi": 30,
      "hit": false,
      "t": 204856.9380000006,
      "d": 214.28549999999814,
      "v": 127
    },
    {
      "midi": 42,
      "hit": false,
      "t": 205071.2235000006,
      "d": 66.96421875001397,
      "v": 110
    },
    {
      "midi": 76,
      "hit": false,
      "t": 205084.61634374995,
      "d": 187.49981249999837,
      "v": 105
    },
    {
      "midi": 42,
      "hit": false,
      "t": 205178.36625000063,
      "d": 93.74990625001374,
      "v": 110
    },
    {
      "midi": 74,
      "hit": false,
      "t": 205281.04471874994,
      "d": 75.89278125000419,
      "v": 105
    },
    {
      "midi": 30,
      "hit": false,
      "t": 205285.50900000066,
      "d": 214.28549999999814,
      "v": 127
    },
    {
      "midi": 55,
      "hit": false,
      "t": 205406.04459375,
      "d": 2022.319406250026,
      "v": 50
    },
    {
      "midi": 59,
      "hit": false,
      "t": 205406.04459375,
      "d": 2879.4614062500186,
      "v": 50
    },
    {
      "midi": 62,
      "hit": false,
      "t": 205410.508875,
      "d": 2874.9971250000235,
      "v": 50
    },
    {
      "midi": 43,
      "hit": false,
      "t": 205437.2945625,
      "d": 1071.4275000000198,
      "v": 50
    },
    {
      "midi": 42,
      "hit": false,
      "t": 205499.79450000066,
      "d": 66.96421875001397,
      "v": 110
    },
    {
      "midi": 74,
      "hit": false,
      "t": 205508.72306249995,
      "d": 383.92818749998696,
      "v": 105
    },
    {
      "midi": 42,
      "hit": false,
      "t": 205606.9372500007,
      "d": 75.89278125000419,
      "v": 110
    },
    {
      "midi": 31,
      "hit": false,
      "t": 205714.0800000007,
      "d": 214.28549999999814,
      "v": 127
    },
    {
      "midi": 76,
      "hit": false,
      "t": 205906.04409374995,
      "d": 205.35693750000792,
      "v": 105
    },
    {
      "midi": 43,
      "hit": false,
      "t": 205928.36550000068,
      "d": 80.3570624999993,
      "v": 110
    },
    {
      "midi": 43,
      "hit": false,
      "t": 206035.50825000068,
      "d": 80.3570624999993,
      "v": 110
    },
    {
      "midi": 31,
      "hit": false,
      "t": 206142.65100000068,
      "d": 214.28549999999814,
      "v": 127
    },
    {
      "midi": 43,
      "hit": false,
      "t": 206356.93650000068,
      "d": 80.3570624999993,
      "v": 110
    },
    {
      "midi": 43,
      "hit": false,
      "t": 206464.07925000068,
      "d": 84.82134374999441,
      "v": 110
    },
    {
      "midi": 45,
      "hit": false,
      "t": 206490.8649375,
      "d": 937.499062500021,
      "v": 50
    },
    {
      "midi": 33,
      "hit": false,
      "t": 206571.22200000068,
      "d": 214.28549999999814,
      "v": 127
    },
    {
      "midi": 71,
      "hit": false,
      "t": 206754.25753124995,
      "d": 98.21418750000885,
      "v": 105
    },
    {
      "midi": 45,
      "hit": false,
      "t": 206785.50750000068,
      "d": 66.96421875001397,
      "v": 110
    },
    {
      "midi": 74,
      "hit": false,
      "t": 206879.25740624996,
      "d": 75.89278125000419,
      "v": 105
    },
    {
      "midi": 45,
      "hit": false,
      "t": 206892.6502500007,
      "d": 93.74990625001374,
      "v": 110
    },
    {
      "midi": 33,
      "hit": false,
      "t": 206999.79300000073,
      "d": 214.28549999999814,
      "v": 127
    },
    {
      "midi": 74,
      "hit": false,
      "t": 207075.68578124998,
      "d": 102.67846875000396,
      "v": 105
    },
    {
      "midi": 76,
      "hit": false,
      "t": 207164.97140624997,
      "d": 120.5355937500135,
      "v": 105
    },
    {
      "midi": 45,
      "hit": false,
      "t": 207214.07850000073,
      "d": 66.96421875001397,
      "v": 110
    },
    {
      "midi": 45,
      "hit": false,
      "t": 207321.22125000076,
      "d": 75.89278125000419,
      "v": 110
    },
    {
      "midi": 78,
      "hit": false,
      "t": 207414.97115625,
      "d": 401.7853124999965,
      "v": 105
    },
    {
      "midi": 47,
      "hit": false,
      "t": 207428.36400000003,
      "d": 866.0705624999828,
      "v": 50
    },
    {
      "midi": 54,
      "hit": false,
      "t": 207428.36400000003,
      "d": 1428.5699999999779,
      "v": 50
    },
    {
      "midi": 23,
      "hit": false,
      "t": 207428.36400000076,
      "d": 214.28549999999814,
      "v": 127
    },
    {
      "midi": 35,
      "hit": false,
      "t": 207642.64950000076,
      "d": 80.3570624999993,
      "v": 110
    },
    {
      "midi": 35,
      "hit": false,
      "t": 207749.79225000076,
      "d": 80.3570624999993,
      "v": 110
    },
    {
      "midi": 76,
      "hit": false,
      "t": 207816.75646874998,
      "d": 227.67834375001257,
      "v": 105
    },
    {
      "midi": 23,
      "hit": false,
      "t": 207856.93500000075,
      "d": 214.28549999999814,
      "v": 127
    },
    {
      "midi": 74,
      "hit": false,
      "t": 208017.649125,
      "d": 84.82134374999441,
      "v": 105
    },
    {
      "midi": 35,
      "hit": false,
      "t": 208071.22050000075,
      "d": 80.3570624999993,
      "v": 110
    },
    {
      "midi": 35,
      "hit": false,
      "t": 208178.36325000075,
      "d": 84.82134374999441,
      "v": 110
    },
    {
      "midi": 61,
      "hit": false,
      "t": 208236.39890625002,
      "d": 656.2493437499797,
      "v": 50
    },
    {
      "midi": 74,
      "hit": false,
      "t": 208254.25603125,
      "d": 406.2495937499916,
      "v": 105
    },
    {
      "midi": 57,
      "hit": false,
      "t": 208254.25603125003,
      "d": 616.0708124999655,
      "v": 50
    },
    {
      "midi": 42,
      "hit": false,
      "t": 208258.72031250002,
      "d": 633.9279374999751,
      "v": 50
    },
    {
      "midi": 30,
      "hit": false,
      "t": 208285.50600000075,
      "d": 214.28549999999814,
      "v": 127
    },
    {
      "midi": 42,
      "hit": false,
      "t": 208499.79150000075,
      "d": 66.96421875001397,
      "v": 110
    },
    {
      "midi": 42,
      "hit": false,
      "t": 208606.93425000078,
      "d": 93.74990625001374,
      "v": 110
    },
    {
      "midi": 76,
      "hit": false,
      "t": 208669.43418749998,
      "d": 191.96409374999348,
      "v": 105
    },
    {
      "midi": 30,
      "hit": false,
      "t": 208714.0770000008,
      "d": 214.28549999999814,
      "v": 127
    },
    {
      "midi": 59,
      "hit": false,
      "t": 208834.61259375,
      "d": 1999.9980000000214,
      "v": 50
    },
    {
      "midi": 55,
      "hit": false,
      "t": 208834.61259375,
      "d": 2022.319406250026,
      "v": 50
    },
    {
      "midi": 62,
      "hit": false,
      "t": 208839.076875,
      "d": 1973.2123125000217,
      "v": 50
    },
    {
      "midi": 43,
      "hit": false,
      "t": 208865.8625625,
      "d": 1071.4275000000198,
      "v": 50
    },
    {
      "midi": 71,
      "hit": false,
      "t": 208897.11253124996,
      "d": 441.9638437500107,
      "v": 105
    },
    {
      "midi": 42,
      "hit": false,
      "t": 208928.3625000008,
      "d": 66.96421875001397,
      "v": 110
    },
    {
      "midi": 42,
      "hit": false,
      "t": 209035.50525000083,
      "d": 75.89278125000419,
      "v": 110
    },
    {
      "midi": 31,
      "hit": false,
      "t": 209142.64800000083,
      "d": 214.28549999999814,
      "v": 127
    },
    {
      "midi": 43,
      "hit": false,
      "t": 209356.93350000083,
      "d": 80.3570624999993,
      "v": 110
    },
    {
      "midi": 69,
      "hit": false,
      "t": 209370.32634374997,
      "d": 343.74965625000186,
      "v": 105
    },
    {
      "midi": 43,
      "hit": false,
      "t": 209464.07625000083,
      "d": 80.3570624999993,
      "v": 110
    },
    {
      "midi": 31,
      "hit": false,
      "t": 209571.21900000083,
      "d": 214.28549999999814,
      "v": 127
    },
    {
      "midi": 43,
      "hit": false,
      "t": 209785.50450000082,
      "d": 80.3570624999993,
      "v": 110
    },
    {
      "midi": 43,
      "hit": false,
      "t": 209892.64725000082,
      "d": 84.82134374999441,
      "v": 110
    },
    {
      "midi": 45,
      "hit": false,
      "t": 209919.4329375,
      "d": 937.499062500021,
      "v": 50
    },
    {
      "midi": 81,
      "hit": false,
      "t": 209955.14718749997,
      "d": 232.14262500000768,
      "v": 105
    },
    {
      "midi": 33,
      "hit": false,
      "t": 209999.79000000082,
      "d": 214.28549999999814,
      "v": 127
    },
    {
      "midi": 79,
      "hit": false,
      "t": 210200.68265625,
      "d": 254.46403125001234,
      "v": 105
    },
    {
      "midi": 45,
      "hit": false,
      "t": 210214.07550000082,
      "d": 66.96421875001397,
      "v": 110
    },
    {
      "midi": 45,
      "hit": false,
      "t": 210321.21825000085,
      "d": 93.74990625001374,
      "v": 110
    },
    {
      "midi": 33,
      "hit": false,
      "t": 210428.36100000088,
      "d": 214.28549999999814,
      "v": 127
    },
    {
      "midi": 78,
      "hit": false,
      "t": 210593.53940625,
      "d": 575.8922812500095,
      "v": 105
    },
    {
      "midi": 45,
      "hit": false,
      "t": 210642.64650000088,
      "d": 66.96421875001397,
      "v": 110
    },
    {
      "midi": 45,
      "hit": false,
      "t": 210749.7892500009,
      "d": 75.89278125000419,
      "v": 110
    },
    {
      "midi": 59,
      "hit": false,
      "t": 210856.93200000003,
      "d": 834.8205937499879,
      "v": 50
    },
    {
      "midi": 47,
      "hit": false,
      "t": 210856.93200000003,
      "d": 866.0705624999828,
      "v": 50
    },
    {
      "midi": 62,
      "hit": false,
      "t": 210856.93200000003,
      "d": 879.4634062499972,
      "v": 50
    },
    {
      "midi": 54,
      "hit": false,
      "t": 210856.93200000003,
      "d": 1428.570000000007,
      "v": 50
    },
    {
      "midi": 23,
      "hit": false,
      "t": 210856.9320000009,
      "d": 214.28549999999814,
      "v": 127
    },
    {
      "midi": 35,
      "hit": false,
      "t": 211071.2175000009,
      "d": 80.3570624999993,
      "v": 110
    },
    {
      "midi": 35,
      "hit": false,
      "t": 211178.3602500009,
      "d": 80.3570624999993,
      "v": 110
    },
    {
      "midi": 23,
      "hit": false,
      "t": 211285.5030000009,
      "d": 214.28549999999814,
      "v": 127
    },
    {
      "midi": 35,
      "hit": false,
      "t": 211499.7885000009,
      "d": 80.3570624999993,
      "v": 110
    },
    {
      "midi": 35,
      "hit": false,
      "t": 211606.9312500009,
      "d": 84.82134374999441,
      "v": 110
    },
    {
      "midi": 61,
      "hit": false,
      "t": 211664.96690625002,
      "d": 656.2493437500088,
      "v": 50
    },
    {
      "midi": 57,
      "hit": false,
      "t": 211682.82403125003,
      "d": 616.0708124999946,
      "v": 50
    },
    {
      "midi": 42,
      "hit": false,
      "t": 211687.28831250002,
      "d": 633.9279375000042,
      "v": 50
    },
    {
      "midi": 30,
      "hit": false,
      "t": 211714.0740000009,
      "d": 214.28549999999814,
      "v": 127
    },
    {
      "midi": 76,
      "hit": false,
      "t": 211914.96665625,
      "d": 232.14262500000768,
      "v": 105
    },
    {
      "midi": 42,
      "hit": false,
      "t": 211928.3595000009,
      "d": 66.96421875001397,
      "v": 110
    },
    {
      "midi": 42,
      "hit": false,
      "t": 212035.50225000092,
      "d": 93.74990625001374,
      "v": 110
    },
    {
      "midi": 74,
      "hit": false,
      "t": 212129.25215625,
      "d": 75.89278125000419,
      "v": 105
    },
    {
      "midi": 30,
      "hit": false,
      "t": 212142.64500000095,
      "d": 214.28549999999814,
      "v": 127
    },
    {
      "midi": 55,
      "hit": false,
      "t": 212263.18059375003,
      "d": 2022.319406250026,
      "v": 50
    },
    {
      "midi": 59,
      "hit": false,
      "t": 212263.18059375003,
      "d": 2879.4614062500186,
      "v": 50
    },
    {
      "midi": 62,
      "hit": false,
      "t": 212267.64487500003,
      "d": 2874.9971250000235,
      "v": 50
    },
    {
      "midi": 43,
      "hit": false,
      "t": 212294.43056250003,
      "d": 1071.4275000000198,
      "v": 50
    },
    {
      "midi": 74,
      "hit": false,
      "t": 212348.0019375,
      "d": 397.3210312500014,
      "v": 105
    },
    {
      "midi": 42,
      "hit": false,
      "t": 212356.93050000095,
      "d": 66.96421875001397,
      "v": 110
    },
    {
      "midi": 42,
      "hit": false,
      "t": 212464.07325000098,
      "d": 75.89278125000419,
      "v": 110
    },
    {
      "midi": 31,
      "hit": false,
      "t": 212571.21600000098,
      "d": 214.28549999999814,
      "v": 127
    },
    {
      "midi": 76,
      "hit": false,
      "t": 212749.78725,
      "d": 191.96409374999348,
      "v": 105
    },
    {
      "midi": 43,
      "hit": false,
      "t": 212785.50150000097,
      "d": 80.3570624999993,
      "v": 110
    },
    {
      "midi": 43,
      "hit": false,
      "t": 212892.64425000097,
      "d": 80.3570624999993,
      "v": 110
    },
    {
      "midi": 31,
      "hit": false,
      "t": 212999.78700000097,
      "d": 214.28549999999814,
      "v": 127
    },
    {
      "midi": 43,
      "hit": false,
      "t": 213214.07250000097,
      "d": 80.3570624999993,
      "v": 110
    },
    {
      "midi": 43,
      "hit": false,
      "t": 213321.21525000097,
      "d": 84.82134374999441,
      "v": 110
    },
    {
      "midi": 45,
      "hit": false,
      "t": 213348.00093750004,
      "d": 937.499062500021,
      "v": 50
    },
    {
      "midi": 33,
      "hit": false,
      "t": 213428.35800000097,
      "d": 214.28549999999814,
      "v": 127
    },
    {
      "midi": 71,
      "hit": false,
      "t": 213611.39353124998,
      "d": 107.14274999999907,
      "v": 105
    },
    {
      "midi": 45,
      "hit": false,
      "t": 213642.64350000097,
      "d": 66.96421875001397,
      "v": 110
    },
    {
      "midi": 74,
      "hit": false,
      "t": 213718.53628124998,
      "d": 80.3570624999993,
      "v": 105
    },
    {
      "midi": 45,
      "hit": false,
      "t": 213749.786250001,
      "d": 93.74990625001374,
      "v": 110
    },
    {
      "midi": 33,
      "hit": false,
      "t": 213856.92900000102,
      "d": 214.28549999999814,
      "v": 127
    },
    {
      "midi": 74,
      "hit": false,
      "t": 213932.82178124998,
      "d": 102.67846875000396,
      "v": 105
    },
    {
      "midi": 76,
      "hit": false,
      "t": 214026.5716875,
      "d": 138.39271874999395,
      "v": 105
    },
    {
      "midi": 45,
      "hit": false,
      "t": 214071.21450000102,
      "d": 66.96421875001397,
      "v": 110
    },
    {
      "midi": 45,
      "hit": false,
      "t": 214178.35725000105,
      "d": 75.89278125000419,
      "v": 110
    },
    {
      "midi": 78,
      "hit": false,
      "t": 214258.7143125,
      "d": 450.89240625000093,
      "v": 105
    },
    {
      "midi": 47,
      "hit": false,
      "t": 214285.50000000006,
      "d": 866.0705624999828,
      "v": 50
    },
    {
      "midi": 54,
      "hit": false,
      "t": 214285.50000000006,
      "d": 1428.5699999999779,
      "v": 50
    },
    {
      "midi": 23,
      "hit": false,
      "t": 214285.50000000105,
      "d": 214.28549999999814,
      "v": 127
    },
    {
      "midi": 35,
      "hit": false,
      "t": 214499.78550000105,
      "d": 80.3570624999993,
      "v": 110
    },
    {
      "midi": 35,
      "hit": false,
      "t": 214606.92825000104,
      "d": 80.3570624999993,
      "v": 110
    },
    {
      "midi": 76,
      "hit": false,
      "t": 214696.213875,
      "d": 214.28549999999814,
      "v": 105
    },
    {
      "midi": 23,
      "hit": false,
      "t": 214714.07100000104,
      "d": 214.28549999999814,
      "v": 127
    },
    {
      "midi": 74,
      "hit": false,
      "t": 214901.5708125,
      "d": 89.28562499998952,
      "v": 105
    },
    {
      "midi": 35,
      "hit": false,
      "t": 214928.35650000104,
      "d": 80.3570624999993,
      "v": 110
    },
    {
      "midi": 35,
      "hit": false,
      "t": 215035.49925000104,
      "d": 84.82134374999441,
      "v": 110
    },
    {
      "midi": 61,
      "hit": false,
      "t": 215093.53490625005,
      "d": 656.2493437499797,
      "v": 50
    },
    {
      "midi": 57,
      "hit": false,
      "t": 215111.39203125006,
      "d": 616.0708124999655,
      "v": 50
    },
    {
      "midi": 42,
      "hit": false,
      "t": 215115.85631250005,
      "d": 633.9279374999751,
      "v": 50
    },
    {
      "midi": 74,
      "hit": false,
      "t": 215124.78487499998,
      "d": 406.2495937499916,
      "v": 105
    },
    {
      "midi": 30,
      "hit": false,
      "t": 215142.64200000104,
      "d": 214.28549999999814,
      "v": 127
    },
    {
      "midi": 42,
      "hit": false,
      "t": 215356.92750000104,
      "d": 66.96421875001397,
      "v": 110
    },
    {
      "midi": 42,
      "hit": false,
      "t": 215464.07025000107,
      "d": 93.74990625001374,
      "v": 110
    },
    {
      "midi": 76,
      "hit": false,
      "t": 215539.96303124996,
      "d": 187.49981249999837,
      "v": 105
    },
    {
      "midi": 30,
      "hit": false,
      "t": 215571.2130000011,
      "d": 214.28549999999814,
      "v": 127
    },
    {
      "midi": 55,
      "hit": false,
      "t": 215691.74859375003,
      "d": 2022.319406250026,
      "v": 50
    },
    {
      "midi": 59,
      "hit": false,
      "t": 215691.74859375003,
      "d": 2879.4614062500186,
      "v": 50
    },
    {
      "midi": 62,
      "hit": false,
      "t": 215696.21287500003,
      "d": 2874.9971250000235,
      "v": 50
    },
    {
      "midi": 43,
      "hit": false,
      "t": 215722.99856250003,
      "d": 1071.4275000000198,
      "v": 50
    },
    {
      "midi": 71,
      "hit": false,
      "t": 215758.71281249996,
      "d": 424.10671875000116,
      "v": 105
    },
    {
      "midi": 42,
      "hit": false,
      "t": 215785.4985000011,
      "d": 66.96421875001397,
      "v": 110
    },
    {
      "midi": 42,
      "hit": false,
      "t": 215892.64125000112,
      "d": 75.89278125000419,
      "v": 110
    },
    {
      "midi": 31,
      "hit": false,
      "t": 215999.78400000112,
      "d": 214.28549999999814,
      "v": 127
    },
    {
      "midi": 69,
      "hit": false,
      "t": 216209.60521874996,
      "d": 316.9639687500021,
      "v": 105
    },
    {
      "midi": 43,
      "hit": false,
      "t": 216214.06950000112,
      "d": 80.3570624999993,
      "v": 110
    },
    {
      "midi": 43,
      "hit": false,
      "t": 216321.21225000112,
      "d": 80.3570624999993,
      "v": 110
    },
    {
      "midi": 31,
      "hit": false,
      "t": 216428.35500000112,
      "d": 214.28549999999814,
      "v": 127
    },
    {
      "midi": 43,
      "hit": false,
      "t": 216642.64050000111,
      "d": 80.3570624999993,
      "v": 110
    },
    {
      "midi": 43,
      "hit": false,
      "t": 216749.7832500011,
      "d": 84.82134374999441,
      "v": 110
    },
    {
      "midi": 45,
      "hit": false,
      "t": 216776.56893750004,
      "d": 937.499062500021,
      "v": 50
    },
    {
      "midi": 81,
      "hit": false,
      "t": 216830.14031249995,
      "d": 183.03553125000326,
      "v": 105
    },
    {
      "midi": 33,
      "hit": false,
      "t": 216856.9260000011,
      "d": 214.28549999999814,
      "v": 127
    },
    {
      "midi": 81,
      "hit": false,
      "t": 217053.35437499997,
      "d": 263.39259375000256,
      "v": 105
    },
    {
      "midi": 45,
      "hit": false,
      "t": 217071.2115000011,
      "d": 66.96421875001397,
      "v": 110
    },
    {
      "midi": 45,
      "hit": false,
      "t": 217178.35425000114,
      "d": 93.74990625001374,
      "v": 110
    },
    {
      "midi": 33,
      "hit": false,
      "t": 217285.49700000117,
      "d": 214.28549999999814,
      "v": 127
    },
    {
      "midi": 83,
      "hit": false,
      "t": 217459.60396874996,
      "d": 611.6065312499995,
      "v": 105
    },
    {
      "midi": 45,
      "hit": false,
      "t": 217499.78250000117,
      "d": 66.96421875001397,
      "v": 110
    },
    {
      "midi": 45,
      "hit": false,
      "t": 217606.9252500012,
      "d": 75.89278125000419,
      "v": 110
    },
    {
      "midi": 47,
      "hit": false,
      "t": 217714.06800000006,
      "d": 866.0705624999828,
      "v": 50
    },
    {
      "midi": 54,
      "hit": false,
      "t": 217714.06800000006,
      "d": 1428.5699999999779,
      "v": 50
    },
    {
      "midi": 23,
      "hit": false,
      "t": 217714.0680000012,
      "d": 214.28549999999814,
      "v": 127
    },
    {
      "midi": 35,
      "hit": false,
      "t": 217928.3535000012,
      "d": 80.3570624999993,
      "v": 110
    },
    {
      "midi": 35,
      "hit": false,
      "t": 218035.4962500012,
      "d": 80.3570624999993,
      "v": 110
    },
    {
      "midi": 23,
      "hit": false,
      "t": 218142.6390000012,
      "d": 214.28549999999814,
      "v": 127
    },
    {
      "midi": 35,
      "hit": false,
      "t": 218356.9245000012,
      "d": 80.3570624999993,
      "v": 110
    },
    {
      "midi": 35,
      "hit": false,
      "t": 218464.0672500012,
      "d": 84.82134374999441,
      "v": 110
    },
    {
      "midi": 61,
      "hit": false,
      "t": 218522.10290625005,
      "d": 656.2493437499797,
      "v": 50
    },
    {
      "midi": 57,
      "hit": false,
      "t": 218539.96003125006,
      "d": 616.0708124999655,
      "v": 50
    },
    {
      "midi": 42,
      "hit": false,
      "t": 218544.42431250005,
      "d": 633.9279374999751,
      "v": 50
    },
    {
      "midi": 30,
      "hit": false,
      "t": 218571.21000000119,
      "d": 214.28549999999814,
      "v": 127
    },
    {
      "midi": 76,
      "hit": false,
      "t": 218754.24553124997,
      "d": 249.99975000001723,
      "v": 105
    },
    {
      "midi": 42,
      "hit": false,
      "t": 218785.49550000118,
      "d": 66.96421875001397,
      "v": 110
    },
    {
      "midi": 42,
      "hit": false,
      "t": 218892.6382500012,
      "d": 93.74990625001374,
      "v": 110
    },
    {
      "midi": 74,
      "hit": false,
      "t": 218990.85243749997,
      "d": 62.49993750001886,
      "v": 105
    },
    {
      "midi": 30,
      "hit": false,
      "t": 218999.78100000124,
      "d": 214.28549999999814,
      "v": 127
    },
    {
      "midi": 55,
      "hit": false,
      "t": 219120.31659375003,
      "d": 2022.319406250026,
      "v": 50
    },
    {
      "midi": 59,
      "hit": false,
      "t": 219120.31659375003,
      "d": 2879.4614062500186,
      "v": 50
    },
    {
      "midi": 62,
      "hit": false,
      "t": 219124.78087500003,
      "d": 2874.9971250000235,
      "v": 50
    },
    {
      "midi": 43,
      "hit": false,
      "t": 219151.56656250003,
      "d": 1071.4275000000198,
      "v": 50
    },
    {
      "midi": 74,
      "hit": false,
      "t": 219205.1379375,
      "d": 441.9638437500107,
      "v": 105
    },
    {
      "midi": 42,
      "hit": false,
      "t": 219214.06650000124,
      "d": 66.96421875001397,
      "v": 110
    },
    {
      "midi": 42,
      "hit": false,
      "t": 219321.20925000127,
      "d": 75.89278125000419,
      "v": 110
    },
    {
      "midi": 31,
      "hit": false,
      "t": 219428.35200000126,
      "d": 214.28549999999814,
      "v": 127
    },
    {
      "midi": 76,
      "hit": false,
      "t": 219633.7089375,
      "d": 151.78556250000838,
      "v": 105
    },
    {
      "midi": 43,
      "hit": false,
      "t": 219642.63750000126,
      "d": 80.3570624999993,
      "v": 110
    },
    {
      "midi": 43,
      "hit": false,
      "t": 219749.78025000126,
      "d": 80.3570624999993,
      "v": 110
    },
    {
      "midi": 31,
      "hit": false,
      "t": 219856.92300000126,
      "d": 214.28549999999814,
      "v": 127
    },
    {
      "midi": 43,
      "hit": false,
      "t": 220071.20850000126,
      "d": 80.3570624999993,
      "v": 110
    },
    {
      "midi": 43,
      "hit": false,
      "t": 220178.35125000126,
      "d": 84.82134374999441,
      "v": 110
    },
    {
      "midi": 45,
      "hit": false,
      "t": 220205.13693750004,
      "d": 937.499062500021,
      "v": 50
    },
    {
      "midi": 33,
      "hit": false,
      "t": 220285.49400000126,
      "d": 214.28549999999814,
      "v": 127
    },
    {
      "midi": 71,
      "hit": false,
      "t": 220441.74384375,
      "d": 107.14274999999907,
      "v": 105
    },
    {
      "midi": 45,
      "hit": false,
      "t": 220499.77950000126,
      "d": 66.96421875001397,
      "v": 110
    },
    {
      "midi": 74,
      "hit": false,
      "t": 220562.27943750002,
      "d": 71.42850000000908,
      "v": 105
    },
    {
      "midi": 45,
      "hit": false,
      "t": 220606.92225000128,
      "d": 93.74990625001374,
      "v": 110
    },
    {
      "midi": 33,
      "hit": false,
      "t": 220714.0650000013,
      "d": 214.28549999999814,
      "v": 127
    },
    {
      "midi": 74,
      "hit": false,
      "t": 220772.10065625003,
      "d": 129.46415625000373,
      "v": 105
    },
    {
      "midi": 76,
      "hit": false,
      "t": 220879.24340625003,
      "d": 142.85700000001816,
      "v": 105
    },
    {
      "midi": 45,
      "hit": false,
      "t": 220928.3505000013,
      "d": 66.96421875001397,
      "v": 110
    },
    {
      "midi": 45,
      "hit": false,
      "t": 221035.49325000134,
      "d": 75.89278125000419,
      "v": 110
    },
    {
      "midi": 47,
      "hit": false,
      "t": 221142.63600000006,
      "d": 866.0705624999828,
      "v": 50
    },
    {
      "midi": 54,
      "hit": false,
      "t": 221142.63600000006,
      "d": 1428.5699999999779,
      "v": 50
    },
    {
      "midi": 23,
      "hit": false,
      "t": 221142.63600000134,
      "d": 214.28549999999814,
      "v": 127
    },
    {
      "midi": 78,
      "hit": false,
      "t": 221147.10028125005,
      "d": 441.9638437500107,
      "v": 105
    },
    {
      "midi": 35,
      "hit": false,
      "t": 221356.92150000134,
      "d": 80.3570624999993,
      "v": 110
    },
    {
      "midi": 35,
      "hit": false,
      "t": 221464.06425000133,
      "d": 80.3570624999993,
      "v": 110
    },
    {
      "midi": 76,
      "hit": false,
      "t": 221562.27843750006,
      "d": 223.21406250001746,
      "v": 105
    },
    {
      "midi": 23,
      "hit": false,
      "t": 221571.20700000133,
      "d": 214.28549999999814,
      "v": 127
    },
    {
      "midi": 74,
      "hit": false,
      "t": 221763.17109375008,
      "d": 93.74990625001374,
      "v": 105
    },
    {
      "midi": 35,
      "hit": false,
      "t": 221785.49250000133,
      "d": 80.3570624999993,
      "v": 110
    },
    {
      "midi": 35,
      "hit": false,
      "t": 221892.63525000133,
      "d": 84.82134374999441,
      "v": 110
    },
    {
      "midi": 61,
      "hit": false,
      "t": 221950.67090625004,
      "d": 656.2493437499797,
      "v": 50
    },
    {
      "midi": 57,
      "hit": false,
      "t": 221968.52803125005,
      "d": 616.0708124999655,
      "v": 50
    },
    {
      "midi": 42,
      "hit": false,
      "t": 221972.99231250005,
      "d": 633.9279374999751,
      "v": 50
    },
    {
      "midi": 74,
      "hit": false,
      "t": 221986.3851562501,
      "d": 450.89240625000093,
      "v": 105
    },
    {
      "midi": 30,
      "hit": false,
      "t": 221999.77800000133,
      "d": 214.28549999999814,
      "v": 127
    },
    {
      "midi": 42,
      "hit": false,
      "t": 222214.06350000133,
      "d": 66.96421875001397,
      "v": 110
    },
    {
      "midi": 42,
      "hit": false,
      "t": 222321.20625000136,
      "d": 93.74990625001374,
      "v": 110
    },
    {
      "midi": 76,
      "hit": false,
      "t": 222414.9561562501,
      "d": 191.96409374999348,
      "v": 105
    },
    {
      "midi": 30,
      "hit": false,
      "t": 222428.34900000138,
      "d": 214.28549999999814,
      "v": 127
    },
    {
      "midi": 59,
      "hit": false,
      "t": 222548.88459375003,
      "d": 1991.069437500002,
      "v": 50
    },
    {
      "midi": 55,
      "hit": false,
      "t": 222548.88459375003,
      "d": 2022.319406249997,
      "v": 50
    },
    {
      "midi": 62,
      "hit": false,
      "t": 222553.34887500003,
      "d": 1982.1408750000119,
      "v": 50
    },
    {
      "midi": 43,
      "hit": false,
      "t": 222580.13456250002,
      "d": 1071.4275000000198,
      "v": 50
    },
    {
      "midi": 71,
      "hit": false,
      "t": 222629.2416562501,
      "d": 424.10671875000116,
      "v": 105
    },
    {
      "midi": 42,
      "hit": false,
      "t": 222642.63450000138,
      "d": 66.96421875001397,
      "v": 110
    },
    {
      "midi": 42,
      "hit": false,
      "t": 222749.7772500014,
      "d": 75.89278125000419,
      "v": 110
    },
    {
      "midi": 31,
      "hit": false,
      "t": 222856.9200000014,
      "d": 214.28549999999814,
      "v": 127
    },
    {
      "midi": 69,
      "hit": false,
      "t": 223066.7412187501,
      "d": 428.5709999999963,
      "v": 105
    },
    {
      "midi": 43,
      "hit": false,
      "t": 223071.2055000014,
      "d": 80.3570624999993,
      "v": 110
    },
    {
      "midi": 43,
      "hit": false,
      "t": 223178.3482500014,
      "d": 80.3570624999993,
      "v": 110
    },
    {
      "midi": 31,
      "hit": false,
      "t": 223285.4910000014,
      "d": 214.28549999999814,
      "v": 127
    },
    {
      "midi": 43,
      "hit": false,
      "t": 223499.7765000014,
      "d": 80.3570624999993,
      "v": 110
    },
    {
      "midi": 43,
      "hit": false,
      "t": 223606.9192500014,
      "d": 84.82134374999441,
      "v": 110
    },
    {
      "midi": 45,
      "hit": false,
      "t": 223633.70493750004,
      "d": 937.4990624999919,
      "v": 50
    },
    {
      "midi": 81,
      "hit": false,
      "t": 223691.7405937501,
      "d": 249.99974999998813,
      "v": 105
    },
    {
      "midi": 33,
      "hit": false,
      "t": 223714.0620000014,
      "d": 214.28549999999814,
      "v": 127
    },
    {
      "midi": 45,
      "hit": false,
      "t": 223928.3475000014,
      "d": 66.96421875001397,
      "v": 110
    },
    {
      "midi": 83,
      "hit": false,
      "t": 223937.27606250008,
      "d": 401.7853124999965,
      "v": 105
    },
    {
      "midi": 45,
      "hit": false,
      "t": 224035.49025000143,
      "d": 93.74990625001374,
      "v": 110
    },
    {
      "midi": 33,
      "hit": false,
      "t": 224142.63300000146,
      "d": 214.28549999999814,
      "v": 127
    },
    {
      "midi": 45,
      "hit": false,
      "t": 224356.91850000145,
      "d": 66.96421875001397,
      "v": 110
    },
    {
      "midi": 78,
      "hit": false,
      "t": 224370.31134375007,
      "d": 611.6065312499995,
      "v": 105
    },
    {
      "midi": 45,
      "hit": false,
      "t": 224464.06125000148,
      "d": 75.89278125000419,
      "v": 110
    },
    {
      "midi": 59,
      "hit": false,
      "t": 224571.20400000003,
      "d": 834.8205937499879,
      "v": 50
    },
    {
      "midi": 47,
      "hit": false,
      "t": 224571.20400000003,
      "d": 866.0705624999828,
      "v": 50
    },
    {
      "midi": 62,
      "hit": false,
      "t": 224571.20400000003,
      "d": 879.4634062499972,
      "v": 50
    },
    {
      "midi": 54,
      "hit": false,
      "t": 224571.20400000003,
      "d": 1428.570000000007,
      "v": 50
    },
    {
      "midi": 86,
      "hit": false,
      "t": 224571.20400000006,
      "d": 852.6777187499974,
      "v": 127
    },
    {
      "midi": 74,
      "hit": false,
      "t": 224571.20400000038,
      "d": 98.21418750000885,
      "v": 127
    },
    {
      "midi": 23,
      "hit": false,
      "t": 224571.20400000148,
      "d": 214.28549999999814,
      "v": 127
    },
    {
      "midi": 73,
      "hit": false,
      "t": 224785.48950000037,
      "d": 84.82134374999441,
      "v": 127
    },
    {
      "midi": 35,
      "hit": false,
      "t": 224785.48950000148,
      "d": 80.3570624999993,
      "v": 110
    },
    {
      "midi": 35,
      "hit": false,
      "t": 224892.63225000148,
      "d": 80.3570624999993,
      "v": 110
    },
    {
      "midi": 74,
      "hit": false,
      "t": 224999.77500000037,
      "d": 93.74990625001374,
      "v": 127
    },
    {
      "midi": 23,
      "hit": false,
      "t": 224999.77500000148,
      "d": 214.28549999999814,
      "v": 127
    },
    {
      "midi": 71,
      "hit": false,
      "t": 225214.0605000004,
      "d": 98.21418750000885,
      "v": 127
    },
    {
      "midi": 35,
      "hit": false,
      "t": 225214.06050000148,
      "d": 80.3570624999993,
      "v": 110
    },
    {
      "midi": 35,
      "hit": false,
      "t": 225321.20325000148,
      "d": 84.82134374999441,
      "v": 110
    },
    {
      "midi": 61,
      "hit": false,
      "t": 225379.23890625002,
      "d": 656.2493437500088,
      "v": 50
    },
    {
      "midi": 57,
      "hit": false,
      "t": 225397.09603125002,
      "d": 616.0708124999946,
      "v": 50
    },
    {
      "midi": 42,
      "hit": false,
      "t": 225401.56031250002,
      "d": 633.9279375000042,
      "v": 50
    },
    {
      "midi": 85,
      "hit": false,
      "t": 225428.34600000005,
      "d": 870.534843750007,
      "v": 127
    },
    {
      "midi": 74,
      "hit": false,
      "t": 225428.3460000004,
      "d": 98.21418750000885,
      "v": 127
    },
    {
      "midi": 30,
      "hit": false,
      "t": 225428.34600000147,
      "d": 214.28549999999814,
      "v": 127
    },
    {
      "midi": 73,
      "hit": false,
      "t": 225642.6315000004,
      "d": 89.28562499998952,
      "v": 127
    },
    {
      "midi": 42,
      "hit": false,
      "t": 225642.63150000147,
      "d": 66.96421875001397,
      "v": 110
    },
    {
      "midi": 42,
      "hit": false,
      "t": 225749.7742500015,
      "d": 93.74990625001374,
      "v": 110
    },
    {
      "midi": 74,
      "hit": false,
      "t": 225856.9170000004,
      "d": 93.74990625001374,
      "v": 127
    },
    {
      "midi": 30,
      "hit": false,
      "t": 225856.91700000153,
      "d": 214.28549999999814,
      "v": 127
    },
    {
      "midi": 55,
      "hit": false,
      "t": 225977.45259375003,
      "d": 2022.319406250026,
      "v": 50
    },
    {
      "midi": 59,
      "hit": false,
      "t": 225977.45259375003,
      "d": 2879.4614062500186,
      "v": 50
    },
    {
      "midi": 62,
      "hit": false,
      "t": 225981.91687500002,
      "d": 2874.9971250000235,
      "v": 50
    },
    {
      "midi": 43,
      "hit": false,
      "t": 226008.70256250002,
      "d": 1071.4275000000198,
      "v": 50
    },
    {
      "midi": 69,
      "hit": false,
      "t": 226071.20250000042,
      "d": 98.21418750000885,
      "v": 127
    },
    {
      "midi": 42,
      "hit": false,
      "t": 226071.20250000153,
      "d": 66.96421875001397,
      "v": 110
    },
    {
      "midi": 42,
      "hit": false,
      "t": 226178.34525000156,
      "d": 75.89278125000419,
      "v": 110
    },
    {
      "midi": 83,
      "hit": false,
      "t": 226285.48800000004,
      "d": 857.1420000000217,
      "v": 127
    },
    {
      "midi": 74,
      "hit": false,
      "t": 226285.48800000042,
      "d": 98.21418750000885,
      "v": 127
    },
    {
      "midi": 31,
      "hit": false,
      "t": 226285.48800000155,
      "d": 214.28549999999814,
      "v": 127
    },
    {
      "midi": 79,
      "hit": false,
      "t": 226486.38065625008,
      "d": 160.7141249999986,
      "v": 105
    },
    {
      "midi": 73,
      "hit": false,
      "t": 226499.77350000042,
      "d": 84.82134374999441,
      "v": 127
    },
    {
      "midi": 43,
      "hit": false,
      "t": 226499.77350000155,
      "d": 80.3570624999993,
      "v": 110
    },
    {
      "midi": 43,
      "hit": false,
      "t": 226606.91625000155,
      "d": 80.3570624999993,
      "v": 110
    },
    {
      "midi": 79,
      "hit": false,
      "t": 226709.59471875007,
      "d": 133.92843749999884,
      "v": 105
    },
    {
      "midi": 74,
      "hit": false,
      "t": 226714.05900000042,
      "d": 93.74990625001374,
      "v": 127
    },
    {
      "midi": 31,
      "hit": false,
      "t": 226714.05900000155,
      "d": 214.28549999999814,
      "v": 127
    },
    {
      "midi": 79,
      "hit": false,
      "t": 226914.95165625008,
      "d": 214.28549999999814,
      "v": 105
    },
    {
      "midi": 71,
      "hit": false,
      "t": 226928.34450000044,
      "d": 93.74990625001374,
      "v": 127
    },
    {
      "midi": 43,
      "hit": false,
      "t": 226928.34450000155,
      "d": 80.3570624999993,
      "v": 110
    },
    {
      "midi": 43,
      "hit": false,
      "t": 227035.48725000155,
      "d": 84.82134374999441,
      "v": 110
    },
    {
      "midi": 45,
      "hit": false,
      "t": 227062.27293750003,
      "d": 937.499062500021,
      "v": 50
    },
    {
      "midi": 88,
      "hit": false,
      "t": 227142.63000000006,
      "d": 857.1419999999925,
      "v": 127
    },
    {
      "midi": 74,
      "hit": false,
      "t": 227142.63000000047,
      "d": 93.74990625001374,
      "v": 127
    },
    {
      "midi": 33,
      "hit": false,
      "t": 227142.63000000155,
      "d": 214.28549999999814,
      "v": 127
    },
    {
      "midi": 78,
      "hit": false,
      "t": 227169.4156875001,
      "d": 392.8567500000063,
      "v": 105
    },
    {
      "midi": 73,
      "hit": false,
      "t": 227356.9155000005,
      "d": 84.82134374999441,
      "v": 127
    },
    {
      "midi": 45,
      "hit": false,
      "t": 227356.91550000155,
      "d": 66.96421875001397,
      "v": 110
    },
    {
      "midi": 45,
      "hit": false,
      "t": 227464.05825000157,
      "d": 93.74990625001374,
      "v": 110
    },
    {
      "midi": 74,
      "hit": false,
      "t": 227571.2010000005,
      "d": 98.21418750000885,
      "v": 127
    },
    {
      "midi": 33,
      "hit": false,
      "t": 227571.2010000016,
      "d": 214.28549999999814,
      "v": 127
    },
    {
      "midi": 76,
      "hit": false,
      "t": 227575.6652812501,
      "d": 147.32128125001327,
      "v": 105
    },
    {
      "midi": 76,
      "hit": false,
      "t": 227785.4865000005,
      "d": 93.74990625001374,
      "v": 127
    },
    {
      "midi": 45,
      "hit": false,
      "t": 227785.4865000016,
      "d": 66.96421875001397,
      "v": 110
    },
    {
      "midi": 76,
      "hit": false,
      "t": 227789.95078125014,
      "d": 424.10671875000116,
      "v": 105
    },
    {
      "midi": 45,
      "hit": false,
      "t": 227892.62925000163,
      "d": 75.89278125000419,
      "v": 110
    },
    {
      "midi": 47,
      "hit": false,
      "t": 227999.77200000006,
      "d": 866.0705624999828,
      "v": 50
    },
    {
      "midi": 54,
      "hit": false,
      "t": 227999.77200000006,
      "d": 1428.5699999999779,
      "v": 50
    },
    {
      "midi": 86,
      "hit": false,
      "t": 227999.77200000006,
      "d": 2540.176031250012,
      "v": 127
    },
    {
      "midi": 74,
      "hit": false,
      "t": 227999.77200000052,
      "d": 102.67846875000396,
      "v": 127
    },
    {
      "midi": 23,
      "hit": false,
      "t": 227999.77200000163,
      "d": 214.28549999999814,
      "v": 127
    },
    {
      "midi": 73,
      "hit": false,
      "t": 228214.05750000052,
      "d": 80.3570624999993,
      "v": 127
    },
    {
      "midi": 35,
      "hit": false,
      "t": 228214.05750000163,
      "d": 80.3570624999993,
      "v": 110
    },
    {
      "midi": 74,
      "hit": false,
      "t": 228218.52178125014,
      "d": 611.6065312499995,
      "v": 105
    },
    {
      "midi": 35,
      "hit": false,
      "t": 228321.20025000162,
      "d": 80.3570624999993,
      "v": 110
    },
    {
      "midi": 74,
      "hit": false,
      "t": 228428.34300000052,
      "d": 93.74990625001374,
      "v": 127
    },
    {
      "midi": 23,
      "hit": false,
      "t": 228428.34300000162,
      "d": 214.28549999999814,
      "v": 127
    },
    {
      "midi": 71,
      "hit": false,
      "t": 228642.62850000054,
      "d": 93.74990625001374,
      "v": 127
    },
    {
      "midi": 35,
      "hit": false,
      "t": 228642.62850000162,
      "d": 80.3570624999993,
      "v": 110
    },
    {
      "midi": 35,
      "hit": false,
      "t": 228749.77125000162,
      "d": 84.82134374999441,
      "v": 110
    },
    {
      "midi": 61,
      "hit": false,
      "t": 228807.80690625004,
      "d": 656.2493437499797,
      "v": 50
    },
    {
      "midi": 57,
      "hit": false,
      "t": 228825.66403125005,
      "d": 616.0708124999655,
      "v": 50
    },
    {
      "midi": 42,
      "hit": false,
      "t": 228830.12831250005,
      "d": 633.9279374999751,
      "v": 50
    },
    {
      "midi": 74,
      "hit": false,
      "t": 228856.91400000057,
      "d": 102.67846875000396,
      "v": 127
    },
    {
      "midi": 30,
      "hit": false,
      "t": 228856.91400000162,
      "d": 214.28549999999814,
      "v": 127
    },
    {
      "midi": 73,
      "hit": false,
      "t": 229071.19950000057,
      "d": 80.3570624999993,
      "v": 127
    },
    {
      "midi": 42,
      "hit": false,
      "t": 229071.19950000162,
      "d": 66.96421875001397,
      "v": 110
    },
    {
      "midi": 42,
      "hit": false,
      "t": 229178.34225000165,
      "d": 93.74990625001374,
      "v": 110
    },
    {
      "midi": 74,
      "hit": false,
      "t": 229285.48500000057,
      "d": 98.21418750000885,
      "v": 127
    },
    {
      "midi": 30,
      "hit": false,
      "t": 229285.48500000167,
      "d": 214.28549999999814,
      "v": 127
    },
    {
      "midi": 55,
      "hit": false,
      "t": 229406.02059375003,
      "d": 2022.319406250026,
      "v": 50
    },
    {
      "midi": 59,
      "hit": false,
      "t": 229406.02059375003,
      "d": 2879.4614062500186,
      "v": 50
    },
    {
      "midi": 62,
      "hit": false,
      "t": 229410.48487500002,
      "d": 2874.9971250000235,
      "v": 50
    },
    {
      "midi": 43,
      "hit": false,
      "t": 229437.27056250002,
      "d": 1071.4275000000198,
      "v": 50
    },
    {
      "midi": 69,
      "hit": false,
      "t": 229499.77050000057,
      "d": 93.74990625001374,
      "v": 127
    },
    {
      "midi": 42,
      "hit": false,
      "t": 229499.77050000167,
      "d": 66.96421875001397,
      "v": 110
    },
    {
      "midi": 42,
      "hit": false,
      "t": 229606.9132500017,
      "d": 75.89278125000419,
      "v": 110
    },
    {
      "midi": 74,
      "hit": false,
      "t": 229714.0560000006,
      "d": 98.21418750000885,
      "v": 127
    },
    {
      "midi": 31,
      "hit": false,
      "t": 229714.0560000017,
      "d": 214.28549999999814,
      "v": 127
    },
    {
      "midi": 79,
      "hit": false,
      "t": 229914.94865625014,
      "d": 93.74990625001374,
      "v": 105
    },
    {
      "midi": 73,
      "hit": false,
      "t": 229928.3415000006,
      "d": 66.96421875001397,
      "v": 127
    },
    {
      "midi": 43,
      "hit": false,
      "t": 229928.3415000017,
      "d": 80.3570624999993,
      "v": 110
    },
    {
      "midi": 43,
      "hit": false,
      "t": 230035.4842500017,
      "d": 80.3570624999993,
      "v": 110
    },
    {
      "midi": 79,
      "hit": false,
      "t": 230115.84131250015,
      "d": 120.5355937500135,
      "v": 105
    },
    {
      "midi": 74,
      "hit": false,
      "t": 230142.62700000062,
      "d": 98.21418750000885,
      "v": 127
    },
    {
      "midi": 31,
      "hit": false,
      "t": 230142.6270000017,
      "d": 214.28549999999814,
      "v": 127
    },
    {
      "midi": 79,
      "hit": false,
      "t": 230330.12681250018,
      "d": 196.4283749999886,
      "v": 105
    },
    {
      "midi": 71,
      "hit": false,
      "t": 230356.91250000062,
      "d": 89.28562499998952,
      "v": 127
    },
    {
      "midi": 43,
      "hit": false,
      "t": 230356.9125000017,
      "d": 80.3570624999993,
      "v": 110
    },
    {
      "midi": 43,
      "hit": false,
      "t": 230464.0552500017,
      "d": 84.82134374999441,
      "v": 110
    },
    {
      "midi": 45,
      "hit": false,
      "t": 230490.84093750003,
      "d": 937.499062500021,
      "v": 50
    },
    {
      "midi": 78,
      "hit": false,
      "t": 230566.73371875018,
      "d": 401.7853124999965,
      "v": 105
    },
    {
      "midi": 88,
      "hit": false,
      "t": 230571.19800000006,
      "d": 883.9276874999923,
      "v": 127
    },
    {
      "midi": 74,
      "hit": false,
      "t": 230571.19800000062,
      "d": 84.82134374999441,
      "v": 127
    },
    {
      "midi": 33,
      "hit": false,
      "t": 230571.1980000017,
      "d": 214.28549999999814,
      "v": 127
    },
    {
      "midi": 73,
      "hit": false,
      "t": 230785.4835000006,
      "d": 75.89278125000419,
      "v": 127
    },
    {
      "midi": 45,
      "hit": false,
      "t": 230785.4835000017,
      "d": 66.96421875001397,
      "v": 110
    },
    {
      "midi": 45,
      "hit": false,
      "t": 230892.62625000172,
      "d": 93.74990625001374,
      "v": 110
    },
    {
      "midi": 76,
      "hit": false,
      "t": 230981.9118750002,
      "d": 116.07131249998929,
      "v": 105
    },
    {
      "midi": 74,
      "hit": false,
      "t": 230999.7690000006,
      "d": 102.67846875000396,
      "v": 127
    },
    {
      "midi": 33,
      "hit": false,
      "t": 230999.76900000175,
      "d": 214.28549999999814,
      "v": 127
    },
    {
      "midi": 76,
      "hit": false,
      "t": 231196.1973750002,
      "d": 424.10671875000116,
      "v": 105
    },
    {
      "midi": 76,
      "hit": false,
      "t": 231214.0545000006,
      "d": 129.46415625000373,
      "v": 127
    },
    {
      "midi": 45,
      "hit": false,
      "t": 231214.05450000174,
      "d": 66.96421875001397,
      "v": 110
    },
    {
      "midi": 45,
      "hit": false,
      "t": 231321.19725000177,
      "d": 75.89278125000419,
      "v": 110
    },
    {
      "midi": 47,
      "hit": false,
      "t": 231428.34000000005,
      "d": 866.0705624999828,
      "v": 50
    },
    {
      "midi": 54,
      "hit": false,
      "t": 231428.34000000005,
      "d": 1428.5699999999779,
      "v": 50
    },
    {
      "midi": 86,
      "hit": false,
      "t": 231428.34000000005,
      "d": 852.6777187499974,
      "v": 127
    },
    {
      "midi": 74,
      "hit": false,
      "t": 231428.3400000006,
      "d": 98.21418750000885,
      "v": 127
    },
    {
      "midi": 23,
      "hit": false,
      "t": 231428.34000000177,
      "d": 214.28549999999814,
      "v": 127
    },
    {
      "midi": 74,
      "hit": false,
      "t": 231615.8398125002,
      "d": 607.1422500000044,
      "v": 105
    },
    {
      "midi": 73,
      "hit": false,
      "t": 231642.6255000006,
      "d": 84.82134374999441,
      "v": 127
    },
    {
      "midi": 35,
      "hit": false,
      "t": 231642.62550000177,
      "d": 80.3570624999993,
      "v": 110
    },
    {
      "midi": 35,
      "hit": false,
      "t": 231749.76825000177,
      "d": 80.3570624999993,
      "v": 110
    },
    {
      "midi": 74,
      "hit": false,
      "t": 231856.9110000006,
      "d": 93.74990625001374,
      "v": 127
    },
    {
      "midi": 23,
      "hit": false,
      "t": 231856.91100000177,
      "d": 214.28549999999814,
      "v": 127
    },
    {
      "midi": 71,
      "hit": false,
      "t": 232071.19650000063,
      "d": 98.21418750000885,
      "v": 127
    },
    {
      "midi": 35,
      "hit": false,
      "t": 232071.19650000177,
      "d": 80.3570624999993,
      "v": 110
    },
    {
      "midi": 35,
      "hit": false,
      "t": 232178.33925000177,
      "d": 84.82134374999441,
      "v": 110
    },
    {
      "midi": 61,
      "hit": false,
      "t": 232236.37490625004,
      "d": 656.2493437499797,
      "v": 50
    },
    {
      "midi": 57,
      "hit": false,
      "t": 232254.23203125005,
      "d": 616.0708124999655,
      "v": 50
    },
    {
      "midi": 42,
      "hit": false,
      "t": 232258.69631250005,
      "d": 633.9279374999751,
      "v": 50
    },
    {
      "midi": 85,
      "hit": false,
      "t": 232285.48200000005,
      "d": 870.534843750007,
      "v": 127
    },
    {
      "midi": 74,
      "hit": false,
      "t": 232285.48200000063,
      "d": 98.21418750000885,
      "v": 127
    },
    {
      "midi": 30,
      "hit": false,
      "t": 232285.48200000176,
      "d": 214.28549999999814,
      "v": 127
    },
    {
      "midi": 73,
      "hit": false,
      "t": 232499.76750000063,
      "d": 89.28562499998952,
      "v": 127
    },
    {
      "midi": 42,
      "hit": false,
      "t": 232499.76750000176,
      "d": 66.96421875001397,
      "v": 110
    },
    {
      "midi": 42,
      "hit": false,
      "t": 232606.9102500018,
      "d": 93.74990625001374,
      "v": 110
    },
    {
      "midi": 74,
      "hit": false,
      "t": 232714.05300000063,
      "d": 93.74990625001374,
      "v": 127
    },
    {
      "midi": 30,
      "hit": false,
      "t": 232714.05300000182,
      "d": 214.28549999999814,
      "v": 127
    },
    {
      "midi": 55,
      "hit": false,
      "t": 232834.58859375003,
      "d": 2022.319406250026,
      "v": 50
    },
    {
      "midi": 59,
      "hit": false,
      "t": 232834.58859375003,
      "d": 2879.4614062500186,
      "v": 50
    },
    {
      "midi": 62,
      "hit": false,
      "t": 232839.05287500002,
      "d": 2874.9971250000235,
      "v": 50
    },
    {
      "midi": 43,
      "hit": false,
      "t": 232865.83856250002,
      "d": 1071.4275000000198,
      "v": 50
    },
    {
      "midi": 69,
      "hit": false,
      "t": 232928.33850000065,
      "d": 98.21418750000885,
      "v": 127
    },
    {
      "midi": 42,
      "hit": false,
      "t": 232928.33850000182,
      "d": 66.96421875001397,
      "v": 110
    },
    {
      "midi": 42,
      "hit": false,
      "t": 233035.48125000185,
      "d": 75.89278125000419,
      "v": 110
    },
    {
      "midi": 83,
      "hit": false,
      "t": 233142.62400000004,
      "d": 857.1420000000217,
      "v": 127
    },
    {
      "midi": 74,
      "hit": false,
      "t": 233142.62400000065,
      "d": 98.21418750000885,
      "v": 127
    },
    {
      "midi": 31,
      "hit": false,
      "t": 233142.62400000184,
      "d": 214.28549999999814,
      "v": 127
    },
    {
      "midi": 79,
      "hit": false,
      "t": 233334.5880937502,
      "d": 89.28562499998952,
      "v": 105
    },
    {
      "midi": 73,
      "hit": false,
      "t": 233356.90950000065,
      "d": 84.82134374999441,
      "v": 127
    },
    {
      "midi": 43,
      "hit": false,
      "t": 233356.90950000184,
      "d": 80.3570624999993,
      "v": 110
    },
    {
      "midi": 43,
      "hit": false,
      "t": 233464.05225000184,
      "d": 80.3570624999993,
      "v": 110
    },
    {
      "midi": 79,
      "hit": false,
      "t": 233553.3378750002,
      "d": 102.67846875000396,
      "v": 105
    },
    {
      "midi": 74,
      "hit": false,
      "t": 233571.19500000065,
      "d": 93.74990625001374,
      "v": 127
    },
    {
      "midi": 31,
      "hit": false,
      "t": 233571.19500000184,
      "d": 214.28549999999814,
      "v": 127
    },
    {
      "midi": 79,
      "hit": false,
      "t": 233754.2305312502,
      "d": 223.21406249998836,
      "v": 105
    },
    {
      "midi": 71,
      "hit": false,
      "t": 233785.48050000067,
      "d": 93.74990625001374,
      "v": 127
    },
    {
      "midi": 43,
      "hit": false,
      "t": 233785.48050000184,
      "d": 80.3570624999993,
      "v": 110
    },
    {
      "midi": 43,
      "hit": false,
      "t": 233892.62325000184,
      "d": 84.82134374999441,
      "v": 110
    },
    {
      "midi": 45,
      "hit": false,
      "t": 233919.40893750003,
      "d": 937.499062500021,
      "v": 50
    },
    {
      "midi": 78,
      "hit": false,
      "t": 233990.83743750022,
      "d": 397.3210312500014,
      "v": 105
    },
    {
      "midi": 88,
      "hit": false,
      "t": 233999.76600000006,
      "d": 883.9276874999923,
      "v": 127
    },
    {
      "midi": 74,
      "hit": false,
      "t": 233999.7660000007,
      "d": 93.74990625001374,
      "v": 127
    },
    {
      "midi": 33,
      "hit": false,
      "t": 233999.76600000184,
      "d": 214.28549999999814,
      "v": 127
    },
    {
      "midi": 73,
      "hit": false,
      "t": 234214.05150000073,
      "d": 84.82134374999441,
      "v": 127
    },
    {
      "midi": 45,
      "hit": false,
      "t": 234214.05150000183,
      "d": 66.96421875001397,
      "v": 110
    },
    {
      "midi": 45,
      "hit": false,
      "t": 234321.19425000186,
      "d": 93.74990625001374,
      "v": 110
    },
    {
      "midi": 76,
      "hit": false,
      "t": 234401.55131250023,
      "d": 120.5355937500135,
      "v": 105
    },
    {
      "midi": 74,
      "hit": false,
      "t": 234428.33700000073,
      "d": 98.21418750000885,
      "v": 127
    },
    {
      "midi": 33,
      "hit": false,
      "t": 234428.3370000019,
      "d": 214.28549999999814,
      "v": 127
    },
    {
      "midi": 76,
      "hit": false,
      "t": 234633.69393750024,
      "d": 406.2495937499916,
      "v": 105
    },
    {
      "midi": 76,
      "hit": false,
      "t": 234642.62250000073,
      "d": 93.74990625001374,
      "v": 127
    },
    {
      "midi": 45,
      "hit": false,
      "t": 234642.6225000019,
      "d": 66.96421875001397,
      "v": 110
    },
    {
      "midi": 45,
      "hit": false,
      "t": 234749.76525000192,
      "d": 75.89278125000419,
      "v": 110
    },
    {
      "midi": 47,
      "hit": false,
      "t": 234856.90800000005,
      "d": 866.0705624999828,
      "v": 50
    },
    {
      "midi": 54,
      "hit": false,
      "t": 234856.90800000005,
      "d": 1428.5699999999779,
      "v": 50
    },
    {
      "midi": 86,
      "hit": false,
      "t": 234856.90800000005,
      "d": 2540.176031250012,
      "v": 127
    },
    {
      "midi": 74,
      "hit": false,
      "t": 234856.90800000075,
      "d": 102.67846875000396,
      "v": 127
    },
    {
      "midi": 23,
      "hit": false,
      "t": 234856.90800000192,
      "d": 214.28549999999814,
      "v": 127
    },
    {
      "midi": 74,
      "hit": false,
      "t": 235044.40781250023,
      "d": 566.9637187499902,
      "v": 105
    },
    {
      "midi": 73,
      "hit": false,
      "t": 235071.19350000075,
      "d": 80.3570624999993,
      "v": 127
    },
    {
      "midi": 35,
      "hit": false,
      "t": 235071.19350000191,
      "d": 80.3570624999993,
      "v": 110
    },
    {
      "midi": 35,
      "hit": false,
      "t": 235178.3362500019,
      "d": 80.3570624999993,
      "v": 110
    },
    {
      "midi": 74,
      "hit": false,
      "t": 235285.47900000075,
      "d": 93.74990625001374,
      "v": 127
    },
    {
      "midi": 23,
      "hit": false,
      "t": 235285.4790000019,
      "d": 214.28549999999814,
      "v": 127
    },
    {
      "midi": 71,
      "hit": false,
      "t": 235499.76450000078,
      "d": 93.74990625001374,
      "v": 127
    },
    {
      "midi": 35,
      "hit": false,
      "t": 235499.7645000019,
      "d": 80.3570624999993,
      "v": 110
    },
    {
      "midi": 35,
      "hit": false,
      "t": 235606.9072500019,
      "d": 84.82134374999441,
      "v": 110
    },
    {
      "midi": 61,
      "hit": false,
      "t": 235664.94290625004,
      "d": 656.2493437499797,
      "v": 50
    },
    {
      "midi": 57,
      "hit": false,
      "t": 235682.80003125005,
      "d": 616.0708124999655,
      "v": 50
    },
    {
      "midi": 42,
      "hit": false,
      "t": 235687.26431250005,
      "d": 633.9279374999751,
      "v": 50
    },
    {
      "midi": 74,
      "hit": false,
      "t": 235714.0500000008,
      "d": 102.67846875000396,
      "v": 127
    },
    {
      "midi": 30,
      "hit": false,
      "t": 235714.0500000019,
      "d": 214.28549999999814,
      "v": 127
    },
    {
      "midi": 73,
      "hit": false,
      "t": 235928.3355000008,
      "d": 80.3570624999993,
      "v": 127
    },
    {
      "midi": 42,
      "hit": false,
      "t": 235928.3355000019,
      "d": 66.96421875001397,
      "v": 110
    },
    {
      "midi": 42,
      "hit": false,
      "t": 236035.47825000194,
      "d": 93.74990625001374,
      "v": 110
    },
    {
      "midi": 74,
      "hit": false,
      "t": 236142.6210000008,
      "d": 98.21418750000885,
      "v": 127
    },
    {
      "midi": 30,
      "hit": false,
      "t": 236142.62100000196,
      "d": 214.28549999999814,
      "v": 127
    },
    {
      "midi": 55,
      "hit": false,
      "t": 236263.15659375003,
      "d": 2022.319406250026,
      "v": 50
    },
    {
      "midi": 59,
      "hit": false,
      "t": 236263.15659375003,
      "d": 2879.4614062500186,
      "v": 50
    },
    {
      "midi": 62,
      "hit": false,
      "t": 236267.62087500002,
      "d": 2874.9971250000235,
      "v": 50
    },
    {
      "midi": 43,
      "hit": false,
      "t": 236294.40656250002,
      "d": 1071.4275000000198,
      "v": 50
    },
    {
      "midi": 69,
      "hit": false,
      "t": 236356.9065000008,
      "d": 93.74990625001374,
      "v": 127
    },
    {
      "midi": 42,
      "hit": false,
      "t": 236356.90650000196,
      "d": 66.96421875001397,
      "v": 110
    },
    {
      "midi": 42,
      "hit": false,
      "t": 236464.049250002,
      "d": 75.89278125000419,
      "v": 110
    },
    {
      "midi": 74,
      "hit": false,
      "t": 236571.19200000082,
      "d": 98.21418750000885,
      "v": 127
    },
    {
      "midi": 31,
      "hit": false,
      "t": 236571.192000002,
      "d": 214.28549999999814,
      "v": 127
    },
    {
      "midi": 79,
      "hit": false,
      "t": 236776.54893750022,
      "d": 98.21418750000885,
      "v": 105
    },
    {
      "midi": 73,
      "hit": false,
      "t": 236785.47750000082,
      "d": 66.96421875001397,
      "v": 127
    },
    {
      "midi": 43,
      "hit": false,
      "t": 236785.477500002,
      "d": 80.3570624999993,
      "v": 110
    },
    {
      "midi": 43,
      "hit": false,
      "t": 236892.620250002,
      "d": 80.3570624999993,
      "v": 110
    },
    {
      "midi": 79,
      "hit": false,
      "t": 236981.90587500023,
      "d": 102.67846875000396,
      "v": 105
    },
    {
      "midi": 74,
      "hit": false,
      "t": 236999.76300000085,
      "d": 98.21418750000885,
      "v": 127
    },
    {
      "midi": 31,
      "hit": false,
      "t": 236999.76300000199,
      "d": 214.28549999999814,
      "v": 127
    },
    {
      "midi": 79,
      "hit": false,
      "t": 237187.26281250024,
      "d": 200.8926562500128,
      "v": 105
    },
    {
      "midi": 71,
      "hit": false,
      "t": 237214.04850000085,
      "d": 89.28562499998952,
      "v": 127
    },
    {
      "midi": 43,
      "hit": false,
      "t": 237214.04850000198,
      "d": 80.3570624999993,
      "v": 110
    },
    {
      "midi": 43,
      "hit": false,
      "t": 237321.19125000198,
      "d": 84.82134374999441,
      "v": 110
    },
    {
      "midi": 45,
      "hit": false,
      "t": 237347.97693750003,
      "d": 937.499062500021,
      "v": 50
    },
    {
      "midi": 88,
      "hit": false,
      "t": 237428.33400000006,
      "d": 883.9276874999923,
      "v": 127
    },
    {
      "midi": 78,
      "hit": false,
      "t": 237428.33400000026,
      "d": 433.0352812499914,
      "v": 105
    },
    {
      "midi": 74,
      "hit": false,
      "t": 237428.33400000085,
      "d": 84.82134374999441,
      "v": 127
    },
    {
      "midi": 33,
      "hit": false,
      "t": 237428.33400000198,
      "d": 214.28549999999814,
      "v": 127
    },
    {
      "midi": 73,
      "hit": false,
      "t": 237642.61950000084,
      "d": 75.89278125000419,
      "v": 127
    },
    {
      "midi": 45,
      "hit": false,
      "t": 237642.61950000198,
      "d": 66.96421875001397,
      "v": 110
    },
    {
      "midi": 45,
      "hit": false,
      "t": 237749.762250002,
      "d": 93.74990625001374,
      "v": 110
    },
    {
      "midi": 74,
      "hit": false,
      "t": 237856.90500000084,
      "d": 102.67846875000396,
      "v": 127
    },
    {
      "midi": 33,
      "hit": false,
      "t": 237856.90500000204,
      "d": 214.28549999999814,
      "v": 127
    },
    {
      "midi": 76,
      "hit": false,
      "t": 237861.36928125026,
      "d": 93.74990625001374,
      "v": 105
    },
    {
      "midi": 76,
      "hit": false,
      "t": 238071.19050000084,
      "d": 129.46415625000373,
      "v": 127
    },
    {
      "midi": 45,
      "hit": false,
      "t": 238071.19050000203,
      "d": 66.96421875001397,
      "v": 110
    },
    {
      "midi": 76,
      "hit": false,
      "t": 238075.65478125028,
      "d": 446.4281250000058,
      "v": 105
    },
    {
      "midi": 45,
      "hit": false,
      "t": 238178.33325000206,
      "d": 75.89278125000419,
      "v": 110
    },
    {
      "midi": 47,
      "hit": false,
      "t": 238285.47600000005,
      "d": 866.0705624999828,
      "v": 50
    },
    {
      "midi": 54,
      "hit": false,
      "t": 238285.47600000005,
      "d": 1428.5699999999779,
      "v": 50
    },
    {
      "midi": 86,
      "hit": false,
      "t": 238285.47600000005,
      "d": 2540.176031250012,
      "v": 127
    },
    {
      "midi": 74,
      "hit": false,
      "t": 238285.47600000084,
      "d": 102.67846875000396,
      "v": 127
    },
    {
      "midi": 23,
      "hit": false,
      "t": 238285.47600000206,
      "d": 214.28549999999814,
      "v": 127
    },
    {
      "midi": 73,
      "hit": false,
      "t": 238499.76150000084,
      "d": 80.3570624999993,
      "v": 127
    },
    {
      "midi": 35,
      "hit": false,
      "t": 238499.76150000206,
      "d": 80.3570624999993,
      "v": 110
    },
    {
      "midi": 74,
      "hit": false,
      "t": 238526.54718750028,
      "d": 852.6777187499974,
      "v": 105
    },
    {
      "midi": 35,
      "hit": false,
      "t": 238606.90425000206,
      "d": 80.3570624999993,
      "v": 110
    },
    {
      "midi": 74,
      "hit": false,
      "t": 238714.04700000084,
      "d": 93.74990625001374,
      "v": 127
    },
    {
      "midi": 23,
      "hit": false,
      "t": 238714.04700000206,
      "d": 214.28549999999814,
      "v": 127
    },
    {
      "midi": 71,
      "hit": false,
      "t": 238928.33250000086,
      "d": 93.74990625001374,
      "v": 127
    },
    {
      "midi": 35,
      "hit": false,
      "t": 238928.33250000206,
      "d": 80.3570624999993,
      "v": 110
    },
    {
      "midi": 35,
      "hit": false,
      "t": 239035.47525000205,
      "d": 84.82134374999441,
      "v": 110
    },
    {
      "midi": 61,
      "hit": false,
      "t": 239093.51090625004,
      "d": 656.2493437499797,
      "v": 50
    },
    {
      "midi": 57,
      "hit": false,
      "t": 239111.36803125005,
      "d": 616.0708124999655,
      "v": 50
    },
    {
      "midi": 42,
      "hit": false,
      "t": 239115.83231250005,
      "d": 633.9279374999751,
      "v": 50
    },
    {
      "midi": 74,
      "hit": false,
      "t": 239142.6180000009,
      "d": 102.67846875000396,
      "v": 127
    },
    {
      "midi": 30,
      "hit": false,
      "t": 239142.61800000205,
      "d": 214.28549999999814,
      "v": 127
    },
    {
      "midi": 73,
      "hit": false,
      "t": 239356.9035000009,
      "d": 80.3570624999993,
      "v": 127
    },
    {
      "midi": 42,
      "hit": false,
      "t": 239356.90350000205,
      "d": 66.96421875001397,
      "v": 110
    },
    {
      "midi": 42,
      "hit": false,
      "t": 239464.04625000208,
      "d": 93.74990625001374,
      "v": 110
    },
    {
      "midi": 74,
      "hit": false,
      "t": 239571.1890000009,
      "d": 98.21418750000885,
      "v": 127
    },
    {
      "midi": 30,
      "hit": false,
      "t": 239571.1890000021,
      "d": 214.28549999999814,
      "v": 127
    },
    {
      "midi": 55,
      "hit": false,
      "t": 239691.72459375003,
      "d": 2022.319406250026,
      "v": 50
    },
    {
      "midi": 59,
      "hit": false,
      "t": 239691.72459375003,
      "d": 2879.4614062500186,
      "v": 50
    },
    {
      "midi": 62,
      "hit": false,
      "t": 239696.18887500002,
      "d": 2874.9971250000235,
      "v": 50
    },
    {
      "midi": 43,
      "hit": false,
      "t": 239722.97456250002,
      "d": 1071.4275000000198,
      "v": 50
    },
    {
      "midi": 69,
      "hit": false,
      "t": 239785.47450000088,
      "d": 93.74990625001374,
      "v": 127
    },
    {
      "midi": 42,
      "hit": false,
      "t": 239785.4745000021,
      "d": 66.96421875001397,
      "v": 110
    },
    {
      "midi": 42,
      "hit": false,
      "t": 239892.61725000213,
      "d": 75.89278125000419,
      "v": 110
    },
    {
      "midi": 74,
      "hit": false,
      "t": 239999.7600000009,
      "d": 98.21418750000885,
      "v": 127
    },
    {
      "midi": 31,
      "hit": false,
      "t": 239999.76000000213,
      "d": 214.28549999999814,
      "v": 127
    },
    {
      "midi": 73,
      "hit": false,
      "t": 240214.0455000009,
      "d": 66.96421875001397,
      "v": 127
    },
    {
      "midi": 43,
      "hit": false,
      "t": 240214.04550000213,
      "d": 80.3570624999993,
      "v": 110
    },
    {
      "midi": 43,
      "hit": false,
      "t": 240321.18825000213,
      "d": 80.3570624999993,
      "v": 110
    },
    {
      "midi": 74,
      "hit": false,
      "t": 240428.33100000094,
      "d": 98.21418750000885,
      "v": 127
    },
    {
      "midi": 31,
      "hit": false,
      "t": 240428.33100000213,
      "d": 214.28549999999814,
      "v": 127
    },
    {
      "midi": 71,
      "hit": false,
      "t": 240642.61650000094,
      "d": 89.28562499998952,
      "v": 127
    },
    {
      "midi": 43,
      "hit": false,
      "t": 240642.61650000213,
      "d": 80.3570624999993,
      "v": 110
    },
    {
      "midi": 43,
      "hit": false,
      "t": 240749.75925000213,
      "d": 84.82134374999441,
      "v": 110
    },
    {
      "midi": 45,
      "hit": false,
      "t": 240776.54493750003,
      "d": 937.499062500021,
      "v": 50
    },
    {
      "midi": 81,
      "hit": false,
      "t": 240807.7949062503,
      "d": 249.99974999998813,
      "v": 105
    },
    {
      "midi": 88,
      "hit": false,
      "t": 240856.90200000006,
      "d": 883.9276874999923,
      "v": 127
    },
    {
      "midi": 74,
      "hit": false,
      "t": 240856.90200000093,
      "d": 84.82134374999441,
      "v": 127
    },
    {
      "midi": 33,
      "hit": false,
      "t": 240856.90200000213,
      "d": 214.28549999999814,
      "v": 127
    },
    {
      "midi": 83,
      "hit": false,
      "t": 241071.1875000003,
      "d": 379.46390624999185,
      "v": 105
    },
    {
      "midi": 73,
      "hit": false,
      "t": 241071.18750000093,
      "d": 75.89278125000419,
      "v": 127
    },
    {
      "midi": 45,
      "hit": false,
      "t": 241071.18750000212,
      "d": 66.96421875001397,
      "v": 110
    },
    {
      "midi": 45,
      "hit": false,
      "t": 241178.33025000215,
      "d": 93.74990625001374,
      "v": 110
    },
    {
      "midi": 74,
      "hit": false,
      "t": 241285.47300000093,
      "d": 102.67846875000396,
      "v": 127
    },
    {
      "midi": 33,
      "hit": false,
      "t": 241285.47300000218,
      "d": 214.28549999999814,
      "v": 127
    },
    {
      "midi": 76,
      "hit": false,
      "t": 241499.75850000093,
      "d": 129.46415625000373,
      "v": 127
    },
    {
      "midi": 45,
      "hit": false,
      "t": 241499.75850000218,
      "d": 66.96421875001397,
      "v": 110
    },
    {
      "midi": 78,
      "hit": false,
      "t": 241508.68706250028,
      "d": 825.8920312499977,
      "v": 105
    },
    {
      "midi": 45,
      "hit": false,
      "t": 241606.9012500022,
      "d": 75.89278125000419,
      "v": 110
    },
    {
      "midi": 47,
      "hit": false,
      "t": 241714.04400000005,
      "d": 866.0705624999828,
      "v": 50
    },
    {
      "midi": 54,
      "hit": false,
      "t": 241714.04400000005,
      "d": 1428.5699999999779,
      "v": 50
    },
    {
      "midi": 86,
      "hit": false,
      "t": 241714.04400000005,
      "d": 852.6777187499974,
      "v": 127
    },
    {
      "midi": 74,
      "hit": false,
      "t": 241714.04400000093,
      "d": 98.21418750000885,
      "v": 127
    },
    {
      "midi": 23,
      "hit": false,
      "t": 241714.0440000022,
      "d": 214.28549999999814,
      "v": 127
    },
    {
      "midi": 73,
      "hit": false,
      "t": 241928.32950000092,
      "d": 84.82134374999441,
      "v": 127
    },
    {
      "midi": 35,
      "hit": false,
      "t": 241928.3295000022,
      "d": 80.3570624999993,
      "v": 110
    },
    {
      "midi": 35,
      "hit": false,
      "t": 242035.4722500022,
      "d": 80.3570624999993,
      "v": 110
    },
    {
      "midi": 74,
      "hit": false,
      "t": 242142.61500000092,
      "d": 93.74990625001374,
      "v": 127
    },
    {
      "midi": 23,
      "hit": false,
      "t": 242142.6150000022,
      "d": 214.28549999999814,
      "v": 127
    },
    {
      "midi": 71,
      "hit": false,
      "t": 242356.90050000095,
      "d": 98.21418750000885,
      "v": 127
    },
    {
      "midi": 35,
      "hit": false,
      "t": 242356.9005000022,
      "d": 80.3570624999993,
      "v": 110
    },
    {
      "midi": 35,
      "hit": false,
      "t": 242464.0432500022,
      "d": 84.82134374999441,
      "v": 110
    },
    {
      "midi": 61,
      "hit": false,
      "t": 242522.07890625004,
      "d": 656.2493437499797,
      "v": 50
    },
    {
      "midi": 57,
      "hit": false,
      "t": 242539.93603125005,
      "d": 616.0708124999655,
      "v": 50
    },
    {
      "midi": 42,
      "hit": false,
      "t": 242544.40031250005,
      "d": 633.9279374999751,
      "v": 50
    },
    {
      "midi": 85,
      "hit": false,
      "t": 242571.18600000005,
      "d": 870.534843750007,
      "v": 127
    },
    {
      "midi": 74,
      "hit": false,
      "t": 242571.18600000095,
      "d": 98.21418750000885,
      "v": 127
    },
    {
      "midi": 30,
      "hit": false,
      "t": 242571.1860000022,
      "d": 214.28549999999814,
      "v": 127
    },
    {
      "midi": 73,
      "hit": false,
      "t": 242785.47150000095,
      "d": 89.28562499998952,
      "v": 127
    },
    {
      "midi": 42,
      "hit": false,
      "t": 242785.4715000022,
      "d": 66.96421875001397,
      "v": 110
    },
    {
      "midi": 42,
      "hit": false,
      "t": 242892.61425000223,
      "d": 93.74990625001374,
      "v": 110
    },
    {
      "midi": 74,
      "hit": false,
      "t": 242999.75700000094,
      "d": 93.74990625001374,
      "v": 127
    },
    {
      "midi": 30,
      "hit": false,
      "t": 242999.75700000225,
      "d": 214.28549999999814,
      "v": 127
    },
    {
      "midi": 55,
      "hit": false,
      "t": 243120.29259375003,
      "d": 2022.319406250026,
      "v": 50
    },
    {
      "midi": 59,
      "hit": false,
      "t": 243120.29259375003,
      "d": 2879.4614062500186,
      "v": 50
    },
    {
      "midi": 62,
      "hit": false,
      "t": 243124.75687500002,
      "d": 2874.9971250000235,
      "v": 50
    },
    {
      "midi": 43,
      "hit": false,
      "t": 243151.54256250002,
      "d": 1071.4275000000198,
      "v": 50
    },
    {
      "midi": 69,
      "hit": false,
      "t": 243214.04250000097,
      "d": 98.21418750000885,
      "v": 127
    },
    {
      "midi": 42,
      "hit": false,
      "t": 243214.04250000225,
      "d": 66.96421875001397,
      "v": 110
    },
    {
      "midi": 42,
      "hit": false,
      "t": 243321.18525000228,
      "d": 75.89278125000419,
      "v": 110
    },
    {
      "midi": 83,
      "hit": false,
      "t": 243428.32800000004,
      "d": 857.1420000000217,
      "v": 127
    },
    {
      "midi": 74,
      "hit": false,
      "t": 243428.32800000097,
      "d": 98.21418750000885,
      "v": 127
    },
    {
      "midi": 31,
      "hit": false,
      "t": 243428.32800000228,
      "d": 214.28549999999814,
      "v": 127
    },
    {
      "midi": 73,
      "hit": false,
      "t": 243642.61350000097,
      "d": 84.82134374999441,
      "v": 127
    },
    {
      "midi": 43,
      "hit": false,
      "t": 243642.61350000228,
      "d": 80.3570624999993,
      "v": 110
    },
    {
      "midi": 43,
      "hit": false,
      "t": 243749.75625000228,
      "d": 80.3570624999993,
      "v": 110
    },
    {
      "midi": 74,
      "hit": false,
      "t": 243856.89900000097,
      "d": 93.74990625001374,
      "v": 127
    },
    {
      "midi": 31,
      "hit": false,
      "t": 243856.89900000227,
      "d": 214.28549999999814,
      "v": 127
    },
    {
      "midi": 71,
      "hit": false,
      "t": 244071.184500001,
      "d": 93.74990625001374,
      "v": 127
    },
    {
      "midi": 43,
      "hit": false,
      "t": 244071.18450000227,
      "d": 80.3570624999993,
      "v": 110
    },
    {
      "midi": 43,
      "hit": false,
      "t": 244178.32725000227,
      "d": 84.82134374999441,
      "v": 110
    },
    {
      "midi": 45,
      "hit": false,
      "t": 244205.11293750003,
      "d": 937.499062500021,
      "v": 50
    },
    {
      "midi": 88,
      "hit": false,
      "t": 244285.47000000006,
      "d": 883.9276874999923,
      "v": 127
    },
    {
      "midi": 74,
      "hit": false,
      "t": 244285.47000000102,
      "d": 93.74990625001374,
      "v": 127
    },
    {
      "midi": 33,
      "hit": false,
      "t": 244285.47000000227,
      "d": 214.28549999999814,
      "v": 127
    },
    {
      "midi": 73,
      "hit": false,
      "t": 244499.75550000105,
      "d": 84.82134374999441,
      "v": 127
    },
    {
      "midi": 45,
      "hit": false,
      "t": 244499.75550000227,
      "d": 66.96421875001397,
      "v": 110
    },
    {
      "midi": 45,
      "hit": false,
      "t": 244606.8982500023,
      "d": 93.74990625001374,
      "v": 110
    },
    {
      "midi": 74,
      "hit": false,
      "t": 244714.04100000105,
      "d": 98.21418750000885,
      "v": 127
    },
    {
      "midi": 33,
      "hit": false,
      "t": 244714.04100000233,
      "d": 214.28549999999814,
      "v": 127
    },
    {
      "midi": 76,
      "hit": false,
      "t": 244928.32650000104,
      "d": 93.74990625001374,
      "v": 127
    },
    {
      "midi": 45,
      "hit": false,
      "t": 244928.32650000232,
      "d": 66.96421875001397,
      "v": 110
    },
    {
      "midi": 45,
      "hit": false,
      "t": 245035.46925000235,
      "d": 75.89278125000419,
      "v": 110
    },
    {
      "midi": 47,
      "hit": false,
      "t": 245142.61200000005,
      "d": 866.0705624999828,
      "v": 50
    },
    {
      "midi": 54,
      "hit": false,
      "t": 245142.61200000005,
      "d": 1428.5699999999779,
      "v": 50
    },
    {
      "midi": 86,
      "hit": false,
      "t": 245142.61200000005,
      "d": 2540.176031250012,
      "v": 127
    },
    {
      "midi": 74,
      "hit": false,
      "t": 245142.61200000107,
      "d": 102.67846875000396,
      "v": 127
    },
    {
      "midi": 23,
      "hit": false,
      "t": 245142.61200000235,
      "d": 214.28549999999814,
      "v": 127
    },
    {
      "midi": 73,
      "hit": false,
      "t": 245356.89750000107,
      "d": 80.3570624999993,
      "v": 127
    },
    {
      "midi": 35,
      "hit": false,
      "t": 245356.89750000235,
      "d": 80.3570624999993,
      "v": 110
    },
    {
      "midi": 35,
      "hit": false,
      "t": 245464.04025000235,
      "d": 80.3570624999993,
      "v": 110
    },
    {
      "midi": 74,
      "hit": false,
      "t": 245571.18300000107,
      "d": 93.74990625001374,
      "v": 127
    },
    {
      "midi": 23,
      "hit": false,
      "t": 245571.18300000235,
      "d": 214.28549999999814,
      "v": 127
    },
    {
      "midi": 71,
      "hit": false,
      "t": 245785.4685000011,
      "d": 93.74990625001374,
      "v": 127
    },
    {
      "midi": 35,
      "hit": false,
      "t": 245785.46850000235,
      "d": 80.3570624999993,
      "v": 110
    },
    {
      "midi": 35,
      "hit": false,
      "t": 245892.61125000234,
      "d": 84.82134374999441,
      "v": 110
    },
    {
      "midi": 61,
      "hit": false,
      "t": 245950.64690625004,
      "d": 656.2493437499797,
      "v": 50
    },
    {
      "midi": 57,
      "hit": false,
      "t": 245968.50403125005,
      "d": 616.0708124999655,
      "v": 50
    },
    {
      "midi": 42,
      "hit": false,
      "t": 245972.96831250004,
      "d": 633.9279374999751,
      "v": 50
    },
    {
      "midi": 74,
      "hit": false,
      "t": 245999.75400000112,
      "d": 102.67846875000396,
      "v": 127
    },
    {
      "midi": 30,
      "hit": false,
      "t": 245999.75400000234,
      "d": 214.28549999999814,
      "v": 127
    },
    {
      "midi": 73,
      "hit": false,
      "t": 246214.03950000112,
      "d": 80.3570624999993,
      "v": 127
    },
    {
      "midi": 42,
      "hit": false,
      "t": 246214.03950000234,
      "d": 66.96421875001397,
      "v": 110
    },
    {
      "midi": 42,
      "hit": false,
      "t": 246321.18225000237,
      "d": 93.74990625001374,
      "v": 110
    },
    {
      "midi": 74,
      "hit": false,
      "t": 246428.32500000112,
      "d": 98.21418750000885,
      "v": 127
    },
    {
      "midi": 30,
      "hit": false,
      "t": 246428.3250000024,
      "d": 214.28549999999814,
      "v": 127
    },
    {
      "midi": 55,
      "hit": false,
      "t": 246548.86059375003,
      "d": 2022.319406250026,
      "v": 50
    },
    {
      "midi": 59,
      "hit": false,
      "t": 246548.86059375003,
      "d": 5450.887406250695,
      "v": 50
    },
    {
      "midi": 62,
      "hit": false,
      "t": 246553.32487500002,
      "d": 5446.4231250007,
      "v": 50
    },
    {
      "midi": 43,
      "hit": false,
      "t": 246580.11056250002,
      "d": 1071.4275000000198,
      "v": 50
    },
    {
      "midi": 69,
      "hit": false,
      "t": 246642.61050000112,
      "d": 93.74990625001374,
      "v": 127
    },
    {
      "midi": 42,
      "hit": false,
      "t": 246642.6105000024,
      "d": 66.96421875001397,
      "v": 110
    },
    {
      "midi": 42,
      "hit": false,
      "t": 246749.75325000242,
      "d": 75.89278125000419,
      "v": 110
    },
    {
      "midi": 74,
      "hit": false,
      "t": 246856.89600000114,
      "d": 98.21418750000885,
      "v": 127
    },
    {
      "midi": 31,
      "hit": false,
      "t": 246856.89600000242,
      "d": 214.28549999999814,
      "v": 127
    },
    {
      "midi": 73,
      "hit": false,
      "t": 247071.18150000114,
      "d": 66.96421875001397,
      "v": 127
    },
    {
      "midi": 43,
      "hit": false,
      "t": 247071.18150000242,
      "d": 80.3570624999993,
      "v": 110
    },
    {
      "midi": 43,
      "hit": false,
      "t": 247178.32425000242,
      "d": 80.3570624999993,
      "v": 110
    },
    {
      "midi": 74,
      "hit": false,
      "t": 247285.46700000117,
      "d": 98.21418750000885,
      "v": 127
    },
    {
      "midi": 31,
      "hit": false,
      "t": 247285.46700000242,
      "d": 214.28549999999814,
      "v": 127
    },
    {
      "midi": 71,
      "hit": false,
      "t": 247499.75250000117,
      "d": 89.28562499998952,
      "v": 127
    },
    {
      "midi": 43,
      "hit": false,
      "t": 247499.75250000242,
      "d": 80.3570624999993,
      "v": 110
    },
    {
      "midi": 43,
      "hit": false,
      "t": 247606.89525000242,
      "d": 84.82134374999441,
      "v": 110
    },
    {
      "midi": 45,
      "hit": false,
      "t": 247633.68093750003,
      "d": 937.499062500021,
      "v": 50
    },
    {
      "midi": 88,
      "hit": false,
      "t": 247714.03800000006,
      "d": 883.9276874999923,
      "v": 127
    },
    {
      "midi": 74,
      "hit": false,
      "t": 247714.03800000116,
      "d": 84.82134374999441,
      "v": 127
    },
    {
      "midi": 33,
      "hit": false,
      "t": 247714.03800000242,
      "d": 214.28549999999814,
      "v": 127
    },
    {
      "midi": 73,
      "hit": false,
      "t": 247928.32350000116,
      "d": 75.89278125000419,
      "v": 127
    },
    {
      "midi": 45,
      "hit": false,
      "t": 247928.3235000024,
      "d": 66.96421875001397,
      "v": 110
    },
    {
      "midi": 45,
      "hit": false,
      "t": 248035.46625000244,
      "d": 93.74990625001374,
      "v": 110
    },
    {
      "midi": 74,
      "hit": false,
      "t": 248142.60900000116,
      "d": 102.67846875000396,
      "v": 127
    },
    {
      "midi": 33,
      "hit": false,
      "t": 248142.60900000247,
      "d": 214.28549999999814,
      "v": 127
    },
    {
      "midi": 76,
      "hit": false,
      "t": 248356.89450000116,
      "d": 129.46415625000373,
      "v": 127
    },
    {
      "midi": 45,
      "hit": false,
      "t": 248356.89450000247,
      "d": 66.96421875001397,
      "v": 110
    },
    {
      "midi": 45,
      "hit": false,
      "t": 248464.0372500025,
      "d": 75.89278125000419,
      "v": 110
    },
    {
      "midi": 47,
      "hit": false,
      "t": 248571.18000000005,
      "d": 3428.5680000006687,
      "v": 50
    },
    {
      "midi": 54,
      "hit": false,
      "t": 248571.18000000005,
      "d": 3428.5680000006687,
      "v": 50
    },
    {
      "midi": 86,
      "hit": false,
      "t": 248571.18000000005,
      "d": 3428.56799999997,
      "v": 127
    },
    {
      "midi": 71,
      "hit": false,
      "t": 248571.18000000116,
      "d": 3267.8538749999716,
      "v": 100
    },
    {
      "midi": 23,
      "hit": false,
      "t": 248571.1800000025,
      "d": 3428.568000000698,
      "v": 127
    }
  ]
}