{
  "jsonPath": "Jazz/Vocal Jazz/Fred Astaire/pick-yourself.json",
  "path": "Jazz\\Vocal Jazz\\Fred Astaire\\Pick Yourself.mid",
  "name": "Pick Yourself",
  "difficulty": "Advanced",
  "bpm": 155.00031000062,
  "notes": [
    {
      "midi": 77,
      "hit": false,
      "t": 3096.768,
      "d": 100.80625000000009,
      "v": 64
    },
    {
      "midi": 77,
      "hit": false,
      "t": 3470.7591875000003,
      "d": 191.53187500000104,
      "v": 76
    },
    {
      "midi": 60,
      "hit": false,
      "t": 3483.8640000000005,
      "d": 36.29025000000047,
      "v": 50
    },
    {
      "midi": 50,
      "hit": false,
      "t": 3486.8881875000006,
      "d": 45.36281250000047,
      "v": 40
    },
    {
      "midi": 53,
      "hit": false,
      "t": 3490.920437500001,
      "d": 78.62887500000033,
      "v": 45
    },
    {
      "midi": 79,
      "hit": false,
      "t": 3734.8715625000013,
      "d": 85.68531249999978,
      "v": 57
    },
    {
      "midi": 77,
      "hit": false,
      "t": 3877.008375000001,
      "d": 214.71731249999948,
      "v": 55
    },
    {
      "midi": 64,
      "hit": false,
      "t": 3878.016437500001,
      "d": 197.58024999999952,
      "v": 39
    },
    {
      "midi": 59,
      "hit": false,
      "t": 3885.0728750000007,
      "d": 224.79793749999953,
      "v": 46
    },
    {
      "midi": 53,
      "hit": false,
      "t": 3890.1131875000005,
      "d": 419.3539999999989,
      "v": 29
    },
    {
      "midi": 76,
      "hit": false,
      "t": 4130.0320625,
      "d": 114.91912499999944,
      "v": 53
    },
    {
      "midi": 64,
      "hit": false,
      "t": 4158.2578125,
      "d": 104.83849999999984,
      "v": 40
    },
    {
      "midi": 59,
      "hit": false,
      "t": 4167.330375,
      "d": 255.03981250000015,
      "v": 22
    },
    {
      "midi": 74,
      "hit": false,
      "t": 4277.2091875,
      "d": 191.53187499999967,
      "v": 31
    },
    {
      "midi": 62,
      "hit": false,
      "t": 4498.982937499999,
      "d": 80.64500000000044,
      "v": 41
    },
    {
      "midi": 76,
      "hit": false,
      "t": 4502.007124999999,
      "d": 91.73368750000009,
      "v": 62
    },
    {
      "midi": 59,
      "hit": false,
      "t": 4504.023249999999,
      "d": 92.74175000000014,
      "v": 11
    },
    {
      "midi": 52,
      "hit": false,
      "t": 4521.160312499999,
      "d": 68.54824999999983,
      "v": 32
    },
    {
      "midi": 55,
      "hit": false,
      "t": 4529.2248125,
      "d": 59.47568749999937,
      "v": 34
    },
    {
      "midi": 62,
      "hit": false,
      "t": 4877.006375,
      "d": 72.58050000000003,
      "v": 47
    },
    {
      "midi": 59,
      "hit": false,
      "t": 4886.0789374999995,
      "d": 72.58050000000003,
      "v": 36
    },
    {
      "midi": 76,
      "hit": false,
      "t": 4891.11925,
      "d": 68.54824999999983,
      "v": 62
    },
    {
      "midi": 52,
      "hit": false,
      "t": 4892.1273125,
      "d": 43.34668750000037,
      "v": 33
    },
    {
      "midi": 55,
      "hit": false,
      "t": 4896.1595625,
      "d": 44.35475000000042,
      "v": 36
    },
    {
      "midi": 74,
      "hit": false,
      "t": 5250.9975625,
      "d": 77.62081250000028,
      "v": 52
    },
    {
      "midi": 69,
      "hit": false,
      "t": 5253.0136875,
      "d": 64.51599999999962,
      "v": 62
    },
    {
      "midi": 79,
      "hit": false,
      "t": 5256.037875,
      "d": 67.54018749999977,
      "v": 52
    },
    {
      "midi": 64,
      "hit": false,
      "t": 5256.037875,
      "d": 110.88687500000015,
      "v": 60
    },
    {
      "midi": 63,
      "hit": false,
      "t": 5391.11825,
      "d": 306.45100000000184,
      "v": 40
    },
    {
      "midi": 69,
      "hit": false,
      "t": 5649.182250000001,
      "d": 34.27412500000082,
      "v": 74
    },
    {
      "midi": 79,
      "hit": false,
      "t": 5651.198375000001,
      "d": 55.44343750000098,
      "v": 64
    },
    {
      "midi": 74,
      "hit": false,
      "t": 5659.262875000001,
      "d": 28.225750000000517,
      "v": 57
    },
    {
      "midi": 64,
      "hit": false,
      "t": 5662.287062500001,
      "d": 31.24993750000067,
      "v": 64
    },
    {
      "midi": 74,
      "hit": false,
      "t": 6044.342750000002,
      "d": 103.83043749999979,
      "v": 61
    },
    {
      "midi": 65,
      "hit": false,
      "t": 6045.350812500002,
      "d": 64.51599999999962,
      "v": 73
    },
    {
      "midi": 69,
      "hit": false,
      "t": 6055.431437500001,
      "d": 85.68531249999978,
      "v": 64
    },
    {
      "midi": 71,
      "hit": false,
      "t": 6064.504000000001,
      "d": 88.70950000000084,
      "v": 60
    },
    {
      "midi": 62,
      "hit": false,
      "t": 6087.689437500001,
      "d": 132.0561875000003,
      "v": 63
    },
    {
      "midi": 60,
      "hit": false,
      "t": 6236.882687500001,
      "d": 237.9027500000002,
      "v": 40
    },
    {
      "midi": 62,
      "hit": false,
      "t": 6441.519375000001,
      "d": 63.50793750000139,
      "v": 57
    },
    {
      "midi": 74,
      "hit": false,
      "t": 6442.527437500001,
      "d": 55.44343750000098,
      "v": 48
    },
    {
      "midi": 65,
      "hit": false,
      "t": 6445.551625000001,
      "d": 28.225750000000517,
      "v": 61
    },
    {
      "midi": 69,
      "hit": false,
      "t": 6449.583875000001,
      "d": 28.225750000000517,
      "v": 58
    },
    {
      "midi": 71,
      "hit": false,
      "t": 6460.672562500002,
      "d": 34.27412499999991,
      "v": 40
    },
    {
      "midi": 62,
      "hit": false,
      "t": 6934.461937500002,
      "d": 440.52331250000043,
      "v": 61
    },
    {
      "midi": 67,
      "hit": false,
      "t": 6940.510312500002,
      "d": 432.4588125,
      "v": 48
    },
    {
      "midi": 56,
      "hit": false,
      "t": 6940.510312500002,
      "d": 660.2809374999997,
      "v": 42
    },
    {
      "midi": 77,
      "hit": false,
      "t": 7321.5579375000025,
      "d": 198.58831250000003,
      "v": 92
    },
    {
      "midi": 74,
      "hit": false,
      "t": 7553.412312500002,
      "d": 145.16100000000006,
      "v": 66
    },
    {
      "midi": 55,
      "hit": false,
      "t": 7686.476562500002,
      "d": 557.4585625,
      "v": 42
    },
    {
      "midi": 64,
      "hit": false,
      "t": 7703.613625000003,
      "d": 566.5311249999986,
      "v": 24
    },
    {
      "midi": 60,
      "hit": false,
      "t": 7717.7265000000025,
      "d": 564.5149999999994,
      "v": 34
    },
    {
      "midi": 72,
      "hit": false,
      "t": 7878.008437500002,
      "d": 78.62887500000033,
      "v": 36
    },
    {
      "midi": 72,
      "hit": false,
      "t": 8130.024062500002,
      "d": 216.73343749999913,
      "v": 55
    },
    {
      "midi": 76,
      "hit": false,
      "t": 8370.951000000001,
      "d": 473.7893750000003,
      "v": 63
    },
    {
      "midi": 64,
      "hit": false,
      "t": 8753.006687500001,
      "d": 40.32250000000022,
      "v": 66
    },
    {
      "midi": 57,
      "hit": false,
      "t": 8759.055062500001,
      "d": 80.64500000000044,
      "v": 53
    },
    {
      "midi": 60,
      "hit": false,
      "t": 8771.151812500002,
      "d": 28.225749999999607,
      "v": 44
    },
    {
      "midi": 72,
      "hit": false,
      "t": 9143.126875,
      "d": 104.83849999999984,
      "v": 60
    },
    {
      "midi": 65,
      "hit": false,
      "t": 9260.062125,
      "d": 34.27412499999991,
      "v": 41
    },
    {
      "midi": 55,
      "hit": false,
      "t": 9285.2636875,
      "d": 58.467624999999316,
      "v": 20
    },
    {
      "midi": 60,
      "hit": false,
      "t": 9294.33625,
      "d": 48.387000000000626,
      "v": 20
    },
    {
      "midi": 57,
      "hit": false,
      "t": 9307.4410625,
      "d": 44.35475000000042,
      "v": 20
    },
    {
      "midi": 67,
      "hit": false,
      "t": 9310.46525,
      "d": 135.08037500000137,
      "v": 25
    },
    {
      "midi": 67,
      "hit": false,
      "t": 9529.2148125,
      "d": 66.53212499999972,
      "v": 33
    },
    {
      "midi": 67,
      "hit": false,
      "t": 9675.383875,
      "d": 272.1768749999992,
      "v": 36
    },
    {
      "midi": 67,
      "hit": false,
      "t": 10024.173499999999,
      "d": 144.15293750000092,
      "v": 57
    },
    {
      "midi": 55,
      "hit": false,
      "t": 10311.4713125,
      "d": 31.24993750000067,
      "v": 31
    },
    {
      "midi": 43,
      "hit": false,
      "t": 10428.4065625,
      "d": 2311.487312499996,
      "v": 54
    },
    {
      "midi": 56,
      "hit": false,
      "t": 10696.5511875,
      "d": 1170.3605625,
      "v": 45
    },
    {
      "midi": 67,
      "hit": false,
      "t": 10704.6156875,
      "d": 1189.51375,
      "v": 35
    },
    {
      "midi": 60,
      "hit": false,
      "t": 10706.6318125,
      "d": 1179.4331249999996,
      "v": 51
    },
    {
      "midi": 55,
      "hit": false,
      "t": 10709.655999999999,
      "d": 821.5709374999988,
      "v": 49
    },
    {
      "midi": 63,
      "hit": false,
      "t": 10714.696312499998,
      "d": 1204.6346875000017,
      "v": 36
    },
    {
      "midi": 50,
      "hit": false,
      "t": 11854.814999999999,
      "d": 85.6853125000016,
      "v": 39
    },
    {
      "midi": 67,
      "hit": false,
      "t": 11977.798625,
      "d": 475.80549999999675,
      "v": 49
    },
    {
      "midi": 55,
      "hit": false,
      "t": 11983.847,
      "d": 466.7329374999972,
      "v": 57
    },
    {
      "midi": 56,
      "hit": false,
      "t": 11991.9115,
      "d": 433.46687499999825,
      "v": 65
    },
    {
      "midi": 63,
      "hit": false,
      "t": 11992.9195625,
      "d": 492.9425624999967,
      "v": 48
    },
    {
      "midi": 60,
      "hit": false,
      "t": 11993.927624999998,
      "d": 438.5071874999994,
      "v": 60
    },
    {
      "midi": 67,
      "hit": false,
      "t": 12639.087624999996,
      "d": 227.82212499999878,
      "v": 60
    },
    {
      "midi": 57,
      "hit": false,
      "t": 12654.208562499996,
      "d": 127.01587499999914,
      "v": 62
    },
    {
      "midi": 60,
      "hit": false,
      "t": 12656.224687499996,
      "d": 166.3303124999984,
      "v": 57
    },
    {
      "midi": 55,
      "hit": false,
      "t": 12662.273062499997,
      "d": 175.40287499999795,
      "v": 64
    },
    {
      "midi": 65,
      "hit": false,
      "t": 12665.297249999996,
      "d": 163.30612499999916,
      "v": 49
    },
    {
      "midi": 68,
      "hit": false,
      "t": 13182.433312499996,
      "d": 176.4109374999971,
      "v": 79
    },
    {
      "midi": 74,
      "hit": false,
      "t": 13183.441374999995,
      "d": 153.22549999999865,
      "v": 74
    },
    {
      "midi": 71,
      "hit": false,
      "t": 13191.505874999995,
      "d": 110.88687499999833,
      "v": 66
    },
    {
      "midi": 59,
      "hit": false,
      "t": 13193.521999999995,
      "d": 237.90274999999747,
      "v": 67
    },
    {
      "midi": 64,
      "hit": false,
      "t": 13194.530062499995,
      "d": 149.19324999999844,
      "v": 79
    },
    {
      "midi": 72,
      "hit": false,
      "t": 13420.336062499993,
      "d": 81.65306249999958,
      "v": 47
    },
    {
      "midi": 64,
      "hit": false,
      "t": 13430.416687499994,
      "d": 61.49181249999856,
      "v": 44
    },
    {
      "midi": 67,
      "hit": false,
      "t": 13448.561812499993,
      "d": 32.25799999999981,
      "v": 36
    },
    {
      "midi": 57,
      "hit": false,
      "t": 13448.561812499993,
      "d": 101.8143125000006,
      "v": 51
    },
    {
      "midi": 56,
      "hit": false,
      "t": 13580.617999999993,
      "d": 219.7576250000002,
      "v": 19
    },
    {
      "midi": 72,
      "hit": false,
      "t": 13799.367562499994,
      "d": 61.49181249999674,
      "v": 57
    },
    {
      "midi": 62,
      "hit": false,
      "t": 13801.383687499992,
      "d": 50.40312499999891,
      "v": 60
    },
    {
      "midi": 67,
      "hit": false,
      "t": 13804.407874999992,
      "d": 57.459562499998356,
      "v": 58
    },
    {
      "midi": 57,
      "hit": false,
      "t": 13815.496562499991,
      "d": 58.467624999999316,
      "v": 44
    },
    {
      "midi": 67,
      "hit": false,
      "t": 14178.399062499991,
      "d": 78.62887499999852,
      "v": 53
    },
    {
      "midi": 59,
      "hit": false,
      "t": 14189.487749999991,
      "d": 49.39506249999977,
      "v": 47
    },
    {
      "midi": 62,
      "hit": false,
      "t": 14190.49581249999,
      "d": 41.33056250000118,
      "v": 51
    },
    {
      "midi": 55,
      "hit": false,
      "t": 14206.624812499991,
      "d": 799.3935624999995,
      "v": 67
    },
    {
      "midi": 64,
      "hit": false,
      "t": 15219.72762499999,
      "d": 114.91912499999853,
      "v": 47
    },
    {
      "midi": 65,
      "hit": false,
      "t": 15301.38068749999,
      "d": 76.61274999999841,
      "v": 41
    },
    {
      "midi": 66,
      "hit": false,
      "t": 15333.63868749999,
      "d": 102.82237499999974,
      "v": 56
    },
    {
      "midi": 67,
      "hit": false,
      "t": 15436.46106249999,
      "d": 618.9503750000003,
      "v": 64
    },
    {
      "midi": 62,
      "hit": false,
      "t": 15472.75131249999,
      "d": 438.5071874999994,
      "v": 48
    },
    {
      "midi": 55,
      "hit": false,
      "t": 15477.791624999989,
      "d": 504.03125,
      "v": 41
    },
    {
      "midi": 66,
      "hit": false,
      "t": 15504.001249999988,
      "d": 528.2247500000012,
      "v": 23
    },
    {
      "midi": 59,
      "hit": false,
      "t": 15511.057687499988,
      "d": 470.76518750000105,
      "v": 34
    },
    {
      "midi": 69,
      "hit": false,
      "t": 16101.78231249999,
      "d": 91.73368750000009,
      "v": 76
    },
    {
      "midi": 66,
      "hit": false,
      "t": 16193.51599999999,
      "d": 278.2252500000013,
      "v": 37
    },
    {
      "midi": 61,
      "hit": false,
      "t": 16212.66918749999,
      "d": 685.4825000000037,
      "v": 36
    },
    {
      "midi": 55,
      "hit": false,
      "t": 16250.97556249999,
      "d": 319.5558125000043,
      "v": 18
    },
    {
      "midi": 67,
      "hit": false,
      "t": 16251.98362499999,
      "d": 176.41093750000073,
      "v": 29
    },
    {
      "midi": 66,
      "hit": false,
      "t": 16494.926687499992,
      "d": 172.37868750000416,
      "v": 29
    },
    {
      "midi": 64,
      "hit": false,
      "t": 16632.023187499995,
      "d": 223.78987499999857,
      "v": 35
    },
    {
      "midi": 61,
      "hit": false,
      "t": 16981.820874999994,
      "d": 246.97531249999884,
      "v": 14
    },
    {
      "midi": 64,
      "hit": false,
      "t": 17000.974062499994,
      "d": 191.53187499999694,
      "v": 35
    },
    {
      "midi": 54,
      "hit": false,
      "t": 17012.062749999994,
      "d": 236.89468750000015,
      "v": 28
    },
    {
      "midi": 66,
      "hit": false,
      "t": 17018.111124999992,
      "d": 198.58831250000003,
      "v": 38
    },
    {
      "midi": 59,
      "hit": false,
      "t": 17032.22399999999,
      "d": 153.22550000000047,
      "v": 32
    },
    {
      "midi": 69,
      "hit": false,
      "t": 17795.327312499994,
      "d": 642.1358125000042,
      "v": 73
    },
    {
      "midi": 62,
      "hit": false,
      "t": 18188.471687499998,
      "d": 78.62887499999852,
      "v": 43
    },
    {
      "midi": 54,
      "hit": false,
      "t": 18188.471687499998,
      "d": 113.91106249999939,
      "v": 42
    },
    {
      "midi": 59,
      "hit": false,
      "t": 18204.6006875,
      "d": 55.443437499998254,
      "v": 33
    },
    {
      "midi": 49,
      "hit": false,
      "t": 18833.631687499997,
      "d": 69.55631250000442,
      "v": 59
    },
    {
      "midi": 59,
      "hit": false,
      "t": 18842.70425,
      "d": 41.330562500003,
      "v": 50
    },
    {
      "midi": 76,
      "hit": false,
      "t": 18984.841062500003,
      "d": 61.49181250000038,
      "v": 55
    },
    {
      "midi": 79,
      "hit": false,
      "t": 19238.872812500005,
      "d": 88.70950000000084,
      "v": 72
    },
    {
      "midi": 79,
      "hit": false,
      "t": 19455.606250000004,
      "d": 105.84656249999898,
      "v": 68
    },
    {
      "midi": 63,
      "hit": false,
      "t": 19612.864000000005,
      "d": 34.27412499999991,
      "v": 57
    },
    {
      "midi": 58,
      "hit": false,
      "t": 19618.912375000004,
      "d": 73.58856250000099,
      "v": 52
    },
    {
      "midi": 78,
      "hit": false,
      "t": 19714.678312500004,
      "d": 79.63693749999948,
      "v": 60
    },
    {
      "midi": 76,
      "hit": false,
      "t": 19947.540750000004,
      "d": 91.73368750000009,
      "v": 72
    },
    {
      "midi": 47,
      "hit": false,
      "t": 19995.927750000003,
      "d": 30.24187499999971,
      "v": 44
    },
    {
      "midi": 57,
      "hit": false,
      "t": 20021.1293125,
      "d": 34.27412500000355,
      "v": 33
    },
    {
      "midi": 74,
      "hit": false,
      "t": 20099.758187500003,
      "d": 270.16075000000274,
      "v": 60
    },
    {
      "midi": 76,
      "hit": false,
      "t": 20360.846375000005,
      "d": 85.6853125000016,
      "v": 57
    },
    {
      "midi": 74,
      "hit": false,
      "t": 20432.418812500007,
      "d": 107.86268749999726,
      "v": 53
    },
    {
      "midi": 66,
      "hit": false,
      "t": 20491.894500000006,
      "d": 175.40287499999977,
      "v": 42
    },
    {
      "midi": 73,
      "hit": false,
      "t": 20501.975125000004,
      "d": 233.8705000000009,
      "v": 45
    },
    {
      "midi": 57,
      "hit": false,
      "t": 20507.015437500006,
      "d": 190.52381249999962,
      "v": 38
    },
    {
      "midi": 62,
      "hit": false,
      "t": 20507.015437500006,
      "d": 232.86243749999994,
      "v": 33
    },
    {
      "midi": 74,
      "hit": false,
      "t": 20760.039125000007,
      "d": 88.70950000000084,
      "v": 62
    },
    {
      "midi": 67,
      "hit": false,
      "t": 20884.03081250001,
      "d": 490.92643750000207,
      "v": 53
    },
    {
      "midi": 56,
      "hit": false,
      "t": 20887.055000000008,
      "d": 843.7483125000035,
      "v": 39
    },
    {
      "midi": 78,
      "hit": false,
      "t": 20888.06306250001,
      "d": 573.5875625000008,
      "v": 64
    },
    {
      "midi": 62,
      "hit": false,
      "t": 20889.07112500001,
      "d": 523.1844375000001,
      "v": 42
    },
    {
      "midi": 74,
      "hit": false,
      "t": 21508.02150000001,
      "d": 211.6931250000016,
      "v": 58
    },
    {
      "midi": 69,
      "hit": false,
      "t": 22048.34300000001,
      "d": 157.25774999999703,
      "v": 48
    },
    {
      "midi": 55,
      "hit": false,
      "t": 22055.39943750001,
      "d": 110.88687500000015,
      "v": 34
    },
    {
      "midi": 66,
      "hit": false,
      "t": 22064.472000000012,
      "d": 127.01587499999732,
      "v": 18
    },
    {
      "midi": 61,
      "hit": false,
      "t": 22086.64937500001,
      "d": 141.12874999999622,
      "v": 19
    },
    {
      "midi": 69,
      "hit": false,
      "t": 22289.26993750001,
      "d": 77.6208125000012,
      "v": 54
    },
    {
      "midi": 66,
      "hit": false,
      "t": 22290.27800000001,
      "d": 71.57243749999907,
      "v": 36
    },
    {
      "midi": 55,
      "hit": false,
      "t": 22315.479562500008,
      "d": 33.26606249999895,
      "v": 30
    },
    {
      "midi": 61,
      "hit": false,
      "t": 22315.479562500008,
      "d": 77.6208125000012,
      "v": 31
    },
    {
      "midi": 66,
      "hit": false,
      "t": 22422.334187500008,
      "d": 183.46737500000017,
      "v": 33
    },
    {
      "midi": 69,
      "hit": false,
      "t": 22429.390625000007,
      "d": 168.34643750000032,
      "v": 54
    },
    {
      "midi": 55,
      "hit": false,
      "t": 22434.43093750001,
      "d": 135.08037499999773,
      "v": 40
    },
    {
      "midi": 61,
      "hit": false,
      "t": 22442.49543750001,
      "d": 183.46737500000017,
      "v": 14
    },
    {
      "midi": 69,
      "hit": false,
      "t": 22684.43043750001,
      "d": 637.0955000000067,
      "v": 69
    },
    {
      "midi": 66,
      "hit": false,
      "t": 22688.46268750001,
      "d": 498.9909375000025,
      "v": 53
    },
    {
      "midi": 55,
      "hit": false,
      "t": 22697.53525000001,
      "d": 408.2653124999997,
      "v": 62
    },
    {
      "midi": 61,
      "hit": false,
      "t": 22697.53525000001,
      "d": 538.3053750000036,
      "v": 43
    },
    {
      "midi": 62,
      "hit": false,
      "t": 23251.969625000016,
      "d": 1309.4731874999889,
      "v": 58
    },
    {
      "midi": 67,
      "hit": false,
      "t": 23265.074437500018,
      "d": 1238.908812499987,
      "v": 25
    },
    {
      "midi": 56,
      "hit": false,
      "t": 23277.17118750002,
      "d": 1431.4487499999886,
      "v": 21
    },
    {
      "midi": 70,
      "hit": false,
      "t": 23354.792000000016,
      "d": 56.451499999999214,
      "v": 59
    },
    {
      "midi": 74,
      "hit": false,
      "t": 23477.775625000017,
      "d": 97.78206249999857,
      "v": 67
    },
    {
      "midi": 77,
      "hit": false,
      "t": 23606.807625000016,
      "d": 82.66112499999872,
      "v": 51
    },
    {
      "midi": 81,
      "hit": false,
      "t": 23734.831562500014,
      "d": 63.50793749999866,
      "v": 71
    },
    {
      "midi": 84,
      "hit": false,
      "t": 23855.799062500013,
      "d": 198.5883124999964,
      "v": 89
    },
    {
      "midi": 72,
      "hit": false,
      "t": 23857.81518750001,
      "d": 202.6205624999966,
      "v": 83
    },
    {
      "midi": 74,
      "hit": false,
      "t": 23867.89581250001,
      "d": 30.24187499999971,
      "v": 71
    },
    {
      "midi": 82,
      "hit": false,
      "t": 24132.00818750001,
      "d": 206.65281250000044,
      "v": 74
    },
    {
      "midi": 81,
      "hit": false,
      "t": 24394.10443750001,
      "d": 198.5883124999964,
      "v": 66
    },
    {
      "midi": 83,
      "hit": false,
      "t": 24397.12862500001,
      "d": 65.52406249999694,
      "v": 65
    },
    {
      "midi": 79,
      "hit": false,
      "t": 24639.063625000006,
      "d": 174.3948124999988,
      "v": 64
    },
    {
      "midi": 81,
      "hit": false,
      "t": 24758.015000000007,
      "d": 53.42731249999997,
      "v": 3
    },
    {
      "midi": 76,
      "hit": false,
      "t": 24910.232437500006,
      "d": 201.61249999999563,
      "v": 71
    },
    {
      "midi": 62,
      "hit": false,
      "t": 24921.321125000006,
      "d": 319.5558124999952,
      "v": 47
    },
    {
      "midi": 59,
      "hit": false,
      "t": 24933.417875000006,
      "d": 242.943062499995,
      "v": 33
    },
    {
      "midi": 52,
      "hit": false,
      "t": 24935.434000000005,
      "d": 217.74149999999645,
      "v": 27
    },
    {
      "midi": 55,
      "hit": false,
      "t": 24937.450125000003,
      "d": 219.75762499999837,
      "v": 36
    },
    {
      "midi": 71,
      "hit": false,
      "t": 25159.223875,
      "d": 154.23356250000143,
      "v": 42
    },
    {
      "midi": 73,
      "hit": false,
      "t": 25374.94925,
      "d": 259.07206249999945,
      "v": 49
    },
    {
      "midi": 61,
      "hit": false,
      "t": 25386.0379375,
      "d": 643.1438750000016,
      "v": 53
    },
    {
      "midi": 55,
      "hit": false,
      "t": 25387.046000000002,
      "d": 498.99093749999884,
      "v": 51
    },
    {
      "midi": 65,
      "hit": false,
      "t": 25394.1024375,
      "d": 466.73293750000084,
      "v": 49
    },
    {
      "midi": 76,
      "hit": false,
      "t": 25623.940687500002,
      "d": 163.30612499999916,
      "v": 71
    },
    {
      "midi": 69,
      "hit": false,
      "t": 25883.01275,
      "d": 212.70118750000256,
      "v": 64
    },
    {
      "midi": 61,
      "hit": false,
      "t": 26155.189625000006,
      "d": 687.4986249999965,
      "v": 25
    },
    {
      "midi": 64,
      "hit": false,
      "t": 26156.197687500007,
      "d": 347.78156249999665,
      "v": 48
    },
    {
      "midi": 66,
      "hit": false,
      "t": 26158.213812500006,
      "d": 357.862187499999,
      "v": 48
    },
    {
      "midi": 54,
      "hit": false,
      "t": 26161.238000000005,
      "d": 1112.900999999998,
      "v": 31
    },
    {
      "midi": 64,
      "hit": false,
      "t": 26673.333750000005,
      "d": 159.27387499999895,
      "v": 40
    },
    {
      "midi": 66,
      "hit": false,
      "t": 26948.534812500002,
      "d": 604.8374999999978,
      "v": 46
    },
    {
      "midi": 61,
      "hit": false,
      "t": 26966.6799375,
      "d": 289.3139375000028,
      "v": 21
    },
    {
      "midi": 64,
      "hit": false,
      "t": 26971.720250000002,
      "d": 215.7253750000018,
      "v": 32
    },
    {
      "midi": 59,
      "hit": false,
      "t": 26986.841187500002,
      "d": 230.84631250000166,
      "v": 33
    },
    {
      "midi": 58,
      "hit": false,
      "t": 28217.6855,
      "d": 126.0078125,
      "v": 36
    },
    {
      "midi": 75,
      "hit": false,
      "t": 28219.701624999998,
      "d": 134.0723125000004,
      "v": 60
    },
    {
      "midi": 75,
      "hit": false,
      "t": 28499.943,
      "d": 38.306375000000116,
      "v": 42
    },
    {
      "midi": 68,
      "hit": false,
      "t": 28718.6925625,
      "d": 64.51599999999962,
      "v": 11
    },
    {
      "midi": 79,
      "hit": false,
      "t": 28718.6925625,
      "d": 142.13681250000081,
      "v": 24
    },
    {
      "midi": 78,
      "hit": false,
      "t": 28726.7570625,
      "d": 94.75787499999933,
      "v": 18
    },
    {
      "midi": 67,
      "hit": false,
      "t": 28762.03925,
      "d": 89.71756249999817,
      "v": 34
    },
    {
      "midi": 62,
      "hit": false,
      "t": 28874.94225,
      "d": 33.26606249999895,
      "v": 47
    },
    {
      "midi": 58,
      "hit": false,
      "t": 28902.1599375,
      "d": 111.8949375000011,
      "v": 33
    },
    {
      "midi": 82,
      "hit": false,
      "t": 28996.9178125,
      "d": 179.43512499999997,
      "v": 83
    },
    {
      "midi": 70,
      "hit": false,
      "t": 29000.9500625,
      "d": 220.76568749999933,
      "v": 81
    },
    {
      "midi": 66,
      "hit": false,
      "t": 29385.021875,
      "d": 79.63693749999948,
      "v": 49
    },
    {
      "midi": 79,
      "hit": false,
      "t": 29421.312124999997,
      "d": 130.0400625000002,
      "v": 25
    },
    {
      "midi": 67,
      "hit": false,
      "t": 29494.900687499998,
      "d": 131.04812499999753,
      "v": 25
    },
    {
      "midi": 75,
      "hit": false,
      "t": 29772.117874999996,
      "d": 205.64474999999948,
      "v": 50
    },
    {
      "midi": 63,
      "hit": false,
      "t": 29792.279124999997,
      "d": 105.84656249999898,
      "v": 44
    },
    {
      "midi": 51,
      "hit": false,
      "t": 30152.157437499995,
      "d": 164.31418750000012,
      "v": 37
    },
    {
      "midi": 59,
      "hit": false,
      "t": 30152.157437499995,
      "d": 168.34643750000032,
      "v": 30
    },
    {
      "midi": 55,
      "hit": false,
      "t": 30162.238062499993,
      "d": 146.16906250000102,
      "v": 45
    },
    {
      "midi": 51,
      "hit": false,
      "t": 30534.213124999995,
      "d": 116.93524999999863,
      "v": 31
    },
    {
      "midi": 60,
      "hit": false,
      "t": 30538.245374999995,
      "d": 165.32224999999744,
      "v": 45
    },
    {
      "midi": 55,
      "hit": false,
      "t": 30549.334062499995,
      "d": 91.73368750000009,
      "v": 42
    },
    {
      "midi": 60,
      "hit": false,
      "t": 30933.405874999993,
      "d": 577.619812500001,
      "v": 50
    },
    {
      "midi": 56,
      "hit": false,
      "t": 30934.413937499994,
      "d": 570.5633750000015,
      "v": 38
    },
    {
      "midi": 65,
      "hit": false,
      "t": 30935.421999999995,
      "d": 541.3295624999992,
      "v": 54
    },
    {
      "midi": 73,
      "hit": false,
      "t": 30942.478437499994,
      "d": 231.85437499999898,
      "v": 48
    },
    {
      "midi": 61,
      "hit": false,
      "t": 30948.526812499993,
      "d": 592.7407500000008,
      "v": 47
    },
    {
      "midi": 75,
      "hit": false,
      "t": 31191.469874999995,
      "d": 123.99168750000172,
      "v": 56
    },
    {
      "midi": 73,
      "hit": false,
      "t": 31319.493812499997,
      "d": 181.45124999999825,
      "v": 37
    },
    {
      "midi": 72,
      "hit": false,
      "t": 31586.630374999993,
      "d": 223.78987499999857,
      "v": 65
    },
    {
      "midi": 65,
      "hit": false,
      "t": 31598.727124999994,
      "d": 271.16881250000006,
      "v": 53
    },
    {
      "midi": 61,
      "hit": false,
      "t": 31605.783562499993,
      "d": 260.0801250000004,
      "v": 32
    },
    {
      "midi": 56,
      "hit": false,
      "t": 31608.807749999993,
      "d": 779.2323125000039,
      "v": 32
    },
    {
      "midi": 60,
      "hit": false,
      "t": 31610.82387499999,
      "d": 719.7566250000054,
      "v": 46
    },
    {
      "midi": 73,
      "hit": false,
      "t": 31838.645999999993,
      "d": 118.95137500000055,
      "v": 26
    },
    {
      "midi": 72,
      "hit": false,
      "t": 31915.258749999994,
      "d": 92.74175000000105,
      "v": 33
    },
    {
      "midi": 69,
      "hit": false,
      "t": 32038.242374999994,
      "d": 63.50793749999866,
      "v": 25
    },
    {
      "midi": 65,
      "hit": false,
      "t": 32125.943812499994,
      "d": 191.53187500000058,
      "v": 33
    },
    {
      "midi": 61,
      "hit": false,
      "t": 32130.984124999995,
      "d": 827.6193125000063,
      "v": 28
    },
    {
      "midi": 72,
      "hit": false,
      "t": 32378.967499999995,
      "d": 105.84656250000262,
      "v": 56
    },
    {
      "midi": 65,
      "hit": false,
      "t": 32408.201312499998,
      "d": 431.45075000000725,
      "v": 34
    },
    {
      "midi": 55,
      "hit": false,
      "t": 32417.273875,
      "d": 466.7329375000045,
      "v": 48
    },
    {
      "midi": 70,
      "hit": false,
      "t": 32572.515499999998,
      "d": 203.6286250000012,
      "v": 34
    },
    {
      "midi": 67,
      "hit": false,
      "t": 32800.337625,
      "d": 29.233812500002387,
      "v": 47
    },
    {
      "midi": 61,
      "hit": false,
      "t": 33281.1834375,
      "d": 104.83849999999802,
      "v": 48
    },
    {
      "midi": 65,
      "hit": false,
      "t": 33286.223750000005,
      "d": 31.24993749999703,
      "v": 57
    },
    {
      "midi": 61,
      "hit": false,
      "t": 33676.3439375,
      "d": 48.387000000002445,
      "v": 34
    },
    {
      "midi": 64,
      "hit": false,
      "t": 33942.4724375,
      "d": 864.9176250000019,
      "v": 51
    },
    {
      "midi": 59,
      "hit": false,
      "t": 33945.496625,
      "d": 701.6114999999991,
      "v": 51
    },
    {
      "midi": 54,
      "hit": false,
      "t": 33956.5853125,
      "d": 1057.4575624999998,
      "v": 27
    },
    {
      "midi": 59,
      "hit": false,
      "t": 34702.5515625,
      "d": 219.75762500000565,
      "v": 22
    },
    {
      "midi": 69,
      "hit": false,
      "t": 34797.3094375,
      "d": 91.73368750000373,
      "v": 61
    },
    {
      "midi": 70,
      "hit": false,
      "t": 34838.64,
      "d": 48.387000000002445,
      "v": 46
    },
    {
      "midi": 71,
      "hit": false,
      "t": 34897.107625000004,
      "d": 132.0561874999985,
      "v": 54
    },
    {
      "midi": 74,
      "hit": false,
      "t": 35088.639500000005,
      "d": 74.59662500000559,
      "v": 75
    },
    {
      "midi": 59,
      "hit": false,
      "t": 35095.69593750001,
      "d": 238.9108125000057,
      "v": 46
    },
    {
      "midi": 54,
      "hit": false,
      "t": 35108.80075000001,
      "d": 297.3784375000032,
      "v": 35
    },
    {
      "midi": 76,
      "hit": false,
      "t": 35212.63118750001,
      "d": 226.81406250000146,
      "v": 78
    },
    {
      "midi": 79,
      "hit": false,
      "t": 35583.59818750001,
      "d": 210.68506249999336,
      "v": 79
    },
    {
      "midi": 54,
      "hit": false,
      "t": 35587.6304375,
      "d": 231.85437499999534,
      "v": 57
    },
    {
      "midi": 67,
      "hit": false,
      "t": 35592.670750000005,
      "d": 202.62056249999296,
      "v": 80
    },
    {
      "midi": 64,
      "hit": false,
      "t": 35597.711062500006,
      "d": 214.71731249998993,
      "v": 75
    },
    {
      "midi": 59,
      "hit": false,
      "t": 35601.7433125,
      "d": 227.82212499999878,
      "v": 63
    },
    {
      "midi": 74,
      "hit": false,
      "t": 35602.751375,
      "d": 209.67699999999604,
      "v": 72
    },
    {
      "midi": 79,
      "hit": false,
      "t": 35864.847625,
      "d": 63.507937499991385,
      "v": 36
    },
    {
      "midi": 74,
      "hit": false,
      "t": 35870.896,
      "d": 64.51599999999598,
      "v": 68
    },
    {
      "midi": 67,
      "hit": false,
      "t": 35873.9201875,
      "d": 56.451499999995576,
      "v": 53
    },
    {
      "midi": 64,
      "hit": false,
      "t": 35874.92825,
      "d": 63.50793749999866,
      "v": 58
    },
    {
      "midi": 54,
      "hit": false,
      "t": 35884.000812499995,
      "d": 122.98362500000076,
      "v": 19
    },
    {
      "midi": 59,
      "hit": false,
      "t": 35887.024999999994,
      "d": 84.67725000000064,
      "v": 41
    },
    {
      "midi": 58,
      "hit": false,
      "t": 36359.8063125,
      "d": 81.65306249999412,
      "v": 52
    },
    {
      "midi": 74,
      "hit": false,
      "t": 36360.814374999994,
      "d": 150.20131250000122,
      "v": 58
    },
    {
      "midi": 67,
      "hit": false,
      "t": 36369.88693749999,
      "d": 121.97556250000343,
      "v": 58
    },
    {
      "midi": 59,
      "hit": false,
      "t": 36373.91918749999,
      "d": 101.81431250000605,
      "v": 65
    },
    {
      "midi": 71,
      "hit": false,
      "t": 36374.927249999986,
      "d": 123.99168750001263,
      "v": 36
    },
    {
      "midi": 62,
      "hit": false,
      "t": 36375.93531249998,
      "d": 75.60468750001019,
      "v": 64
    },
    {
      "midi": 79,
      "hit": false,
      "t": 36380.975624999985,
      "d": 145.1610000000146,
      "v": 30
    },
    {
      "midi": 72,
      "hit": false,
      "t": 36399.12074999999,
      "d": 34.27412500000355,
      "v": 36
    },
    {
      "midi": 55,
      "hit": false,
      "t": 36729.76525,
      "d": 119.95943749999424,
      "v": 58
    },
    {
      "midi": 67,
      "hit": false,
      "t": 36738.837812499994,
      "d": 110.88687499999651,
      "v": 58
    },
    {
      "midi": 71,
      "hit": false,
      "t": 36743.878124999996,
      "d": 138.10456249999697,
      "v": 36
    },
    {
      "midi": 74,
      "hit": false,
      "t": 36743.878124999996,
      "d": 145.16100000000006,
      "v": 72
    },
    {
      "midi": 62,
      "hit": false,
      "t": 36747.91037499999,
      "d": 77.62081249999756,
      "v": 61
    },
    {
      "midi": 59,
      "hit": false,
      "t": 37137.0225,
      "d": 364.9186249999984,
      "v": 66
    },
    {
      "midi": 62,
      "hit": false,
      "t": 37139.038625,
      "d": 482.86193749999074,
      "v": 78
    },
    {
      "midi": 79,
      "hit": false,
      "t": 37140.0466875,
      "d": 330.64450000000215,
      "v": 76
    },
    {
      "midi": 52,
      "hit": false,
      "t": 37140.0466875,
      "d": 338.70900000000256,
      "v": 65
    },
    {
      "midi": 74,
      "hit": false,
      "t": 37142.0628125,
      "d": 317.5396875000006,
      "v": 82
    },
    {
      "midi": 55,
      "hit": false,
      "t": 37149.11925,
      "d": 346.7734999999957,
      "v": 59
    },
    {
      "midi": 67,
      "hit": false,
      "t": 37150.1273125,
      "d": 297.3784375000032,
      "v": 75
    },
    {
      "midi": 74,
      "hit": false,
      "t": 37548.31199999999,
      "d": 117.94331249999959,
      "v": 50
    },
    {
      "midi": 61,
      "hit": false,
      "t": 37792.26312499999,
      "d": 119.95943749999424,
      "v": 59
    },
    {
      "midi": 55,
      "hit": false,
      "t": 37793.27118749999,
      "d": 73.58856249999371,
      "v": 71
    },
    {
      "midi": 65,
      "hit": false,
      "t": 37794.279249999985,
      "d": 63.50793749999866,
      "v": 74
    },
    {
      "midi": 73,
      "hit": false,
      "t": 37794.279249999985,
      "d": 85.68531249999796,
      "v": 59
    },
    {
      "midi": 76,
      "hit": false,
      "t": 37795.28731249998,
      "d": 93.74981249999837,
      "v": 69
    },
    {
      "midi": 67,
      "hit": false,
      "t": 37802.343749999985,
      "d": 51.41118750000169,
      "v": 79
    },
    {
      "midi": 79,
      "hit": false,
      "t": 37802.343749999985,
      "d": 102.8223749999961,
      "v": 68
    },
    {
      "midi": 80,
      "hit": false,
      "t": 38022.101374999984,
      "d": 36.290249999998196,
      "v": 23
    },
    {
      "midi": 83,
      "hit": false,
      "t": 38187.42362499998,
      "d": 72.58049999998912,
      "v": 71
    },
    {
      "midi": 76,
      "hit": false,
      "t": 38188.43168749998,
      "d": 72.58049999998912,
      "v": 71
    },
    {
      "midi": 71,
      "hit": false,
      "t": 38192.463937499975,
      "d": 57.4595624999929,
      "v": 71
    },
    {
      "midi": 61,
      "hit": false,
      "t": 38192.463937499975,
      "d": 109.87881249999191,
      "v": 62
    },
    {
      "midi": 79,
      "hit": false,
      "t": 38193.47199999997,
      "d": 58.4676249999975,
      "v": 55
    },
    {
      "midi": 55,
      "hit": false,
      "t": 38195.488124999974,
      "d": 37.29831249999552,
      "v": 70
    },
    {
      "midi": 65,
      "hit": false,
      "t": 38198.51231249997,
      "d": 42.33862499999668,
      "v": 71
    },
    {
      "midi": 58,
      "hit": false,
      "t": 38221.69774999997,
      "d": 60.48374999999942,
      "v": 27
    },
    {
      "midi": 79,
      "hit": false,
      "t": 38582.584124999965,
      "d": 159.27387499999168,
      "v": 82
    },
    {
      "midi": 72,
      "hit": false,
      "t": 38586.61637499996,
      "d": 193.54799999999523,
      "v": 88
    },
    {
      "midi": 64,
      "hit": false,
      "t": 38587.62443749996,
      "d": 376.0073124999908,
      "v": 91
    },
    {
      "midi": 69,
      "hit": false,
      "t": 38588.632499999956,
      "d": 214.7173124999972,
      "v": 82
    },
    {
      "midi": 71,
      "hit": false,
      "t": 38609.80181249996,
      "d": 27.217687500000466,
      "v": 46
    },
    {
      "midi": 78,
      "hit": false,
      "t": 38952.54306249995,
      "d": 144.15293749999546,
      "v": 70
    },
    {
      "midi": 63,
      "hit": false,
      "t": 38960.60756249995,
      "d": 140.12068749999162,
      "v": 69
    },
    {
      "midi": 73,
      "hit": false,
      "t": 38960.60756249995,
      "d": 219.75762499999837,
      "v": 61
    },
    {
      "midi": 69,
      "hit": false,
      "t": 38969.68012499995,
      "d": 79.63693749999948,
      "v": 71
    },
    {
      "midi": 77,
      "hit": false,
      "t": 39114.84112499994,
      "d": 119.95943750000879,
      "v": 44
    },
    {
      "midi": 62,
      "hit": false,
      "t": 39119.88143749994,
      "d": 218.74956250000832,
      "v": 44
    },
    {
      "midi": 67,
      "hit": false,
      "t": 39173.308749999946,
      "d": 147.17712500000198,
      "v": 24
    },
    {
      "midi": 69,
      "hit": false,
      "t": 39181.373249999946,
      "d": 29.233812500002387,
      "v": 18
    },
    {
      "midi": 58,
      "hit": false,
      "t": 39357.78418749995,
      "d": 105.84656249999534,
      "v": 44
    },
    {
      "midi": 76,
      "hit": false,
      "t": 39468.67106249995,
      "d": 124.99975000000268,
      "v": 65
    },
    {
      "midi": 65,
      "hit": false,
      "t": 39480.767812499944,
      "d": 157.2577500000043,
      "v": 60
    },
    {
      "midi": 69,
      "hit": false,
      "t": 39482.783937499946,
      "d": 163.3061250000028,
      "v": 57
    },
    {
      "midi": 60,
      "hit": false,
      "t": 39487.82424999995,
      "d": 230.84631249999802,
      "v": 47
    },
    {
      "midi": 75,
      "hit": false,
      "t": 39718.670562499945,
      "d": 95.76593750000757,
      "v": 71
    },
    {
      "midi": 65,
      "hit": false,
      "t": 39729.759249999945,
      "d": 64.51600000000326,
      "v": 54
    },
    {
      "midi": 69,
      "hit": false,
      "t": 39731.77537499995,
      "d": 85.68531250000524,
      "v": 51
    },
    {
      "midi": 59,
      "hit": false,
      "t": 39738.83181249995,
      "d": 83.66918750000332,
      "v": 53
    },
    {
      "midi": 58,
      "hit": false,
      "t": 39834.59774999995,
      "d": 145.16100000000006,
      "v": 50
    },
    {
      "midi": 65,
      "hit": false,
      "t": 39866.85574999995,
      "d": 51.41118750000169,
      "v": 20
    },
    {
      "midi": 73,
      "hit": false,
      "t": 40101.73431249995,
      "d": 97.78206250000221,
      "v": 37
    },
    {
      "midi": 68,
      "hit": false,
      "t": 40105.76656249995,
      "d": 119.95943750000879,
      "v": 65
    },
    {
      "midi": 51,
      "hit": false,
      "t": 40111.81493749995,
      "d": 82.661125000006,
      "v": 59
    },
    {
      "midi": 58,
      "hit": false,
      "t": 40129.96006249995,
      "d": 87.70143750000716,
      "v": 33
    },
    {
      "midi": 72,
      "hit": false,
      "t": 40276.129124999956,
      "d": 220.7656874999957,
      "v": 39
    },
    {
      "midi": 60,
      "hit": false,
      "t": 40280.16137499995,
      "d": 254.03175000000192,
      "v": 24
    },
    {
      "midi": 57,
      "hit": false,
      "t": 40297.29843749995,
      "d": 201.6125000000029,
      "v": 40
    },
    {
      "midi": 50,
      "hit": false,
      "t": 40303.34681249995,
      "d": 393.1443749999962,
      "v": 37
    },
    {
      "midi": 69,
      "hit": false,
      "t": 40306.37099999995,
      "d": 155.2416250000024,
      "v": 36
    },
    {
      "midi": 65,
      "hit": false,
      "t": 40314.43549999995,
      "d": 187.49962500000402,
      "v": 25
    },
    {
      "midi": 57,
      "hit": false,
      "t": 40543.26568749995,
      "d": 150.20131249999395,
      "v": 16
    },
    {
      "midi": 65,
      "hit": false,
      "t": 40632.98324999995,
      "d": 170.3625624999986,
      "v": 85
    },
    {
      "midi": 67,
      "hit": false,
      "t": 40854.75699999995,
      "d": 36.29025000000547,
      "v": 33
    },
    {
      "midi": 65,
      "hit": false,
      "t": 40889.03112499995,
      "d": 34.27412500000355,
      "v": 40
    },
    {
      "midi": 64,
      "hit": false,
      "t": 40911.20849999996,
      "d": 57.459562500000175,
      "v": 69
    },
    {
      "midi": 65,
      "hit": false,
      "t": 40999.917999999954,
      "d": 646.1680625000008,
      "v": 58
    },
    {
      "midi": 59,
      "hit": false,
      "t": 41018.06312499996,
      "d": 580.6440000000002,
      "v": 39
    },
    {
      "midi": 53,
      "hit": false,
      "t": 41032.175999999956,
      "d": 441.53137499999866,
      "v": 48
    },
    {
      "midi": 67,
      "hit": false,
      "t": 41670.279562499956,
      "d": 73.58856250000099,
      "v": 56
    },
    {
      "midi": 59,
      "hit": false,
      "t": 41690.44081249995,
      "d": 120.96750000000611,
      "v": 35
    },
    {
      "midi": 55,
      "hit": false,
      "t": 41733.787499999955,
      "d": 62.49987500000134,
      "v": 28
    },
    {
      "midi": 64,
      "hit": false,
      "t": 41850.72274999996,
      "d": 249.99949999999808,
      "v": 41
    },
    {
      "midi": 64,
      "hit": false,
      "t": 42181.36724999995,
      "d": 219.75762499999837,
      "v": 69
    },
    {
      "midi": 67,
      "hit": false,
      "t": 42438.42318749995,
      "d": 140.1206874999989,
      "v": 74
    },
    {
      "midi": 67,
      "hit": false,
      "t": 42689.43074999995,
      "d": 207.66087499999412,
      "v": 35
    },
    {
      "midi": 57,
      "hit": false,
      "t": 42712.616187499945,
      "d": 95.76593750000029,
      "v": 54
    },
    {
      "midi": 62,
      "hit": false,
      "t": 42721.68874999994,
      "d": 178.427062499999,
      "v": 61
    },
    {
      "midi": 48,
      "hit": false,
      "t": 42743.86612499994,
      "d": 159.27387499999895,
      "v": 30
    },
    {
      "midi": 41,
      "hit": false,
      "t": 42745.882249999944,
      "d": 126.0078125,
      "v": 28
    },
    {
      "midi": 64,
      "hit": false,
      "t": 42967.655999999944,
      "d": 107.86268749999726,
      "v": 58
    },
    {
      "midi": 62,
      "hit": false,
      "t": 43216.647437499945,
      "d": 90.72562499999913,
      "v": 62
    },
    {
      "midi": 57,
      "hit": false,
      "t": 43224.711937499946,
      "d": 38.306375000000116,
      "v": 44
    },
    {
      "midi": 47,
      "hit": false,
      "t": 43225.71999999994,
      "d": 35.28218750000087,
      "v": 50
    },
    {
      "midi": 74,
      "hit": false,
      "t": 43989.83137499994,
      "d": 86.69337499998801,
      "v": 54
    },
    {
      "midi": 57,
      "hit": false,
      "t": 43998.90393749994,
      "d": 32.257999999994354,
      "v": 30
    },
    {
      "midi": 62,
      "hit": false,
      "t": 44011.00068749994,
      "d": 33.26606249999895,
      "v": 37
    },
    {
      "midi": 68,
      "hit": false,
      "t": 44114.83112499993,
      "d": 188.50768750000134,
      "v": 78
    },
    {
      "midi": 77,
      "hit": false,
      "t": 44118.86337499993,
      "d": 187.49962500000402,
      "v": 70
    },
    {
      "midi": 74,
      "hit": false,
      "t": 44126.92787499993,
      "d": 202.6205625000075,
      "v": 61
    },
    {
      "midi": 71,
      "hit": false,
      "t": 44128.94399999993,
      "d": 187.49962500000402,
      "v": 66
    },
    {
      "midi": 67,
      "hit": false,
      "t": 44136.00043749993,
      "d": 175.40287499999977,
      "v": 71
    },
    {
      "midi": 77,
      "hit": false,
      "t": 44371.88706249993,
      "d": 91.73368749998917,
      "v": 61
    },
    {
      "midi": 68,
      "hit": false,
      "t": 44377.93543749993,
      "d": 79.6369374999922,
      "v": 43
    },
    {
      "midi": 67,
      "hit": false,
      "t": 44380.95962499993,
      "d": 72.58049999999639,
      "v": 60
    },
    {
      "midi": 71,
      "hit": false,
      "t": 44391.04024999993,
      "d": 73.58856249998644,
      "v": 52
    },
    {
      "midi": 74,
      "hit": false,
      "t": 44401.12087499993,
      "d": 47.378937499997846,
      "v": 38
    },
    {
      "midi": 76,
      "hit": false,
      "t": 44505.95937499992,
      "d": 86.69337499999529,
      "v": 42
    },
    {
      "midi": 68,
      "hit": false,
      "t": 44515.031937499916,
      "d": 105.84656249999534,
      "v": 29
    },
    {
      "midi": 65,
      "hit": false,
      "t": 44519.06418749991,
      "d": 40.32250000000204,
      "v": 46
    },
    {
      "midi": 71,
      "hit": false,
      "t": 44535.19318749991,
      "d": 87.70143749999988,
      "v": 37
    },
    {
      "midi": 56,
      "hit": false,
      "t": 44817.45068749991,
      "d": 97.78206249999494,
      "v": 27
    },
    {
      "midi": 68,
      "hit": false,
      "t": 44892.04731249991,
      "d": 237.90274999998655,
      "v": 63
    },
    {
      "midi": 58,
      "hit": false,
      "t": 44900.11181249991,
      "d": 247.98337499998888,
      "v": 54
    },
    {
      "midi": 64,
      "hit": false,
      "t": 44901.11987499991,
      "d": 183.4673749999929,
      "v": 62
    },
    {
      "midi": 74,
      "hit": false,
      "t": 44903.13599999991,
      "d": 153.2254999999932,
      "v": 51
    },
    {
      "midi": 72,
      "hit": false,
      "t": 45157.1677499999,
      "d": 86.69337499998801,
      "v": 54
    },
    {
      "midi": 62,
      "hit": false,
      "t": 45163.2161249999,
      "d": 57.4595624999929,
      "v": 55
    },
    {
      "midi": 67,
      "hit": false,
      "t": 45167.248374999894,
      "d": 70.56437499999447,
      "v": 51
    },
    {
      "midi": 57,
      "hit": false,
      "t": 45173.29674999989,
      "d": 92.74174999999377,
      "v": 50
    },
    {
      "midi": 76,
      "hit": false,
      "t": 45532.166999999885,
      "d": 464.7168124999953,
      "v": 59
    },
    {
      "midi": 68,
      "hit": false,
      "t": 45544.26374999989,
      "d": 405.2411249999932,
      "v": 50
    },
    {
      "midi": 64,
      "hit": false,
      "t": 45545.27181249989,
      "d": 395.16049999999814,
      "v": 58
    },
    {
      "midi": 72,
      "hit": false,
      "t": 45548.295999999886,
      "d": 356.854124999998,
      "v": 53
    },
    {
      "midi": 54,
      "hit": false,
      "t": 45552.32824999988,
      "d": 564.5149999999921,
      "v": 42
    },
    {
      "midi": 62,
      "hit": false,
      "t": 45557.36856249988,
      "d": 29.233812500002387,
      "v": 29
    },
    {
      "midi": 60,
      "hit": false,
      "t": 45562.408874999885,
      "d": 440.52331249999406,
      "v": 33
    },
    {
      "midi": 50,
      "hit": false,
      "t": 45954.54518749988,
      "d": 86.69337499999529,
      "v": 38
    },
    {
      "midi": 64,
      "hit": false,
      "t": 46042.246624999876,
      "d": 134.0723125000004,
      "v": 45
    },
    {
      "midi": 72,
      "hit": false,
      "t": 46042.246624999876,
      "d": 145.16100000000006,
      "v": 50
    },
    {
      "midi": 68,
      "hit": false,
      "t": 46050.31112499988,
      "d": 205.64474999999948,
      "v": 35
    },
    {
      "midi": 43,
      "hit": false,
      "t": 46412.205562499876,
      "d": 763.1033125000031,
      "v": 36
    },
    {
      "midi": 67,
      "hit": false,
      "t": 46702.527562499876,
      "d": 1410.2794375000012,
      "v": 35
    },
    {
      "midi": 65,
      "hit": false,
      "t": 46707.56787499988,
      "d": 1444.5535624999975,
      "v": 40
    },
    {
      "midi": 60,
      "hit": false,
      "t": 46713.616249999875,
      "d": 1390.1181875000038,
      "v": 38
    },
    {
      "midi": 57,
      "hit": false,
      "t": 46721.680749999876,
      "d": 1277.2151875000054,
      "v": 20
    },
    {
      "midi": 55,
      "hit": false,
      "t": 47207.56687499988,
      "d": 1043.3446874999936,
      "v": 95
    },
    {
      "midi": 54,
      "hit": false,
      "t": 48237.80674999987,
      "d": 58.46762500000477,
      "v": 31
    },
    {
      "midi": 67,
      "hit": false,
      "t": 48343.653312499875,
      "d": 1342.7392499999914,
      "v": 58
    },
    {
      "midi": 63,
      "hit": false,
      "t": 48349.70168749987,
      "d": 1318.5457499999902,
      "v": 44
    },
    {
      "midi": 56,
      "hit": false,
      "t": 48353.73393749987,
      "d": 1126.0058124999923,
      "v": 51
    },
    {
      "midi": 60,
      "hit": false,
      "t": 48353.73393749987,
      "d": 1144.150937499995,
      "v": 64
    },
    {
      "midi": 55,
      "hit": false,
      "t": 48620.87049999987,
      "d": 395.16049999999814,
      "v": 77
    },
    {
      "midi": 51,
      "hit": false,
      "t": 49015.022937499874,
      "d": 92.74174999999377,
      "v": 37
    },
    {
      "midi": 55,
      "hit": false,
      "t": 49177.320999999865,
      "d": 546.369875000004,
      "v": 77
    },
    {
      "midi": 67,
      "hit": false,
      "t": 49787.19881249987,
      "d": 385.07987499998853,
      "v": 57
    },
    {
      "midi": 60,
      "hit": false,
      "t": 49798.28749999987,
      "d": 300.4026249999879,
      "v": 60
    },
    {
      "midi": 57,
      "hit": false,
      "t": 49801.31168749987,
      "d": 236.89468749998923,
      "v": 51
    },
    {
      "midi": 65,
      "hit": false,
      "t": 49802.319749999864,
      "d": 296.3703749999913,
      "v": 41
    },
    {
      "midi": 55,
      "hit": false,
      "t": 49819.45681249986,
      "d": 91.73368749999645,
      "v": 45
    },
    {
      "midi": 43,
      "hit": false,
      "t": 50133.972312499856,
      "d": 62.49987500000134,
      "v": 65
    },
    {
      "midi": 68,
      "hit": false,
      "t": 50525.10056249986,
      "d": 196.57218749999447,
      "v": 57
    },
    {
      "midi": 74,
      "hit": false,
      "t": 50526.108624999855,
      "d": 149.19324999999662,
      "v": 69
    },
    {
      "midi": 65,
      "hit": false,
      "t": 50530.14087499985,
      "d": 113.91106250000303,
      "v": 68
    },
    {
      "midi": 71,
      "hit": false,
      "t": 50533.16506249985,
      "d": 150.20131250000122,
      "v": 45
    },
    {
      "midi": 64,
      "hit": false,
      "t": 50541.22956249985,
      "d": 69.55631250000442,
      "v": 67
    },
    {
      "midi": 59,
      "hit": false,
      "t": 50553.32631249985,
      "d": 88.70950000000448,
      "v": 53
    },
    {
      "midi": 53,
      "hit": false,
      "t": 50570.463374999854,
      "d": 104.83849999999802,
      "v": 24
    },
    {
      "midi": 54,
      "hit": false,
      "t": 50919.25299999985,
      "d": 129.03199999999924,
      "v": 64
    },
    {
      "midi": 55,
      "hit": false,
      "t": 50923.28524999985,
      "d": 1281.247437500002,
      "v": 74
    },
    {
      "midi": 64,
      "hit": false,
      "t": 51441.429374999854,
      "d": 184.4754374999975,
      "v": 58
    },
    {
      "midi": 67,
      "hit": false,
      "t": 51724.69493749985,
      "d": 37.298312500002794,
      "v": 42
    },
    {
      "midi": 71,
      "hit": false,
      "t": 51842.63824999985,
      "d": 272.1768749999974,
      "v": 88
    },
    {
      "midi": 70,
      "hit": false,
      "t": 52215.62137499985,
      "d": 298.3865000000005,
      "v": 75
    },
    {
      "midi": 57,
      "hit": false,
      "t": 52506.95143749985,
      "d": 63.50793750000594,
      "v": 27
    },
    {
      "midi": 69,
      "hit": false,
      "t": 52598.68512499985,
      "d": 285.28168749999895,
      "v": 71
    },
    {
      "midi": 65,
      "hit": false,
      "t": 52863.80556249985,
      "d": 88.7094999999972,
      "v": 64
    },
    {
      "midi": 62,
      "hit": false,
      "t": 53030.13587499985,
      "d": 217.74149999999645,
      "v": 24
    },
    {
      "midi": 65,
      "hit": false,
      "t": 53284.16762499984,
      "d": 441.53137499999866,
      "v": 74
    },
    {
      "midi": 50,
      "hit": false,
      "t": 53662.19106249984,
      "d": 57.459562500000175,
      "v": 42
    },
    {
      "midi": 62,
      "hit": false,
      "t": 54430.33468749984,
      "d": 39.31443750001199,
      "v": 64
    },
    {
      "midi": 59,
      "hit": false,
      "t": 54437.39112499984,
      "d": 113.9110625000103,
      "v": 52
    },
    {
      "midi": 60,
      "hit": false,
      "t": 54447.471749999844,
      "d": 29.233812500009662,
      "v": 41
    },
    {
      "midi": 52,
      "hit": false,
      "t": 54454.52818749985,
      "d": 36.29025000000547,
      "v": 35
    },
    {
      "midi": 55,
      "hit": false,
      "t": 54464.60881249985,
      "d": 127.0158750000046,
      "v": 42
    },
    {
      "midi": 71,
      "hit": false,
      "t": 54534.165124999854,
      "d": 199.596375000001,
      "v": 92
    },
    {
      "midi": 67,
      "hit": false,
      "t": 54803.31781249985,
      "d": 96.77399999999761,
      "v": 58
    },
    {
      "midi": 64,
      "hit": false,
      "t": 54944.44656249985,
      "d": 207.6608750000014,
      "v": 36
    },
    {
      "midi": 69,
      "hit": false,
      "t": 55186.38156249985,
      "d": 384.0718124999985,
      "v": 58
    },
    {
      "midi": 57,
      "hit": false,
      "t": 55200.49443749985,
      "d": 248.99143750000076,
      "v": 62
    },
    {
      "midi": 41,
      "hit": false,
      "t": 55202.510562499854,
      "d": 30.24187499999971,
      "v": 24
    },
    {
      "midi": 52,
      "hit": false,
      "t": 55210.575062499855,
      "d": 36.290249999998196,
      "v": 30
    },
    {
      "midi": 47,
      "hit": false,
      "t": 55557.34856249985,
      "d": 91.73368750000373,
      "v": 62
    },
    {
      "midi": 57,
      "hit": false,
      "t": 55960.57356249985,
      "d": 86.69337499999529,
      "v": 59
    },
    {
      "midi": 65,
      "hit": false,
      "t": 55980.734812499846,
      "d": 28.225749999997788,
      "v": 46
    },
    {
      "midi": 62,
      "hit": false,
      "t": 55980.734812499846,
      "d": 43.34668750000128,
      "v": 53
    },
    {
      "midi": 77,
      "hit": false,
      "t": 56087.589437499846,
      "d": 181.45124999999825,
      "v": 87
    },
    {
      "midi": 74,
      "hit": false,
      "t": 56335.57281249984,
      "d": 85.68531249999796,
      "v": 69
    },
    {
      "midi": 62,
      "hit": false,
      "t": 56455.532249999844,
      "d": 372.9831250000061,
      "v": 33
    },
    {
      "midi": 56,
      "hit": false,
      "t": 56462.58868749985,
      "d": 617.942312500003,
      "v": 23
    },
    {
      "midi": 65,
      "hit": false,
      "t": 56464.60481249985,
      "d": 400.2008124999993,
      "v": 32
    },
    {
      "midi": 71,
      "hit": false,
      "t": 56475.69349999985,
      "d": 223.7898750000022,
      "v": 38
    },
    {
      "midi": 74,
      "hit": false,
      "t": 56730.73331249985,
      "d": 441.53137499999866,
      "v": 77
    },
    {
      "midi": 72,
      "hit": false,
      "t": 57237.78874999985,
      "d": 78.62887500000215,
      "v": 64
    },
    {
      "midi": 55,
      "hit": false,
      "t": 57240.812937499846,
      "d": 786.2887499999924,
      "v": 33
    },
    {
      "midi": 57,
      "hit": false,
      "t": 57255.93387499985,
      "d": 802.417749999986,
      "v": 22
    },
    {
      "midi": 74,
      "hit": false,
      "t": 57324.48212499985,
      "d": 127.01587499999732,
      "v": 50
    },
    {
      "midi": 72,
      "hit": false,
      "t": 57424.280312499846,
      "d": 101.81431249999878,
      "v": 30
    },
    {
      "midi": 71,
      "hit": false,
      "t": 57558.35262499985,
      "d": 42.33862499999668,
      "v": 28
    },
    {
      "midi": 64,
      "hit": false,
      "t": 57614.80412499984,
      "d": 107.86268749999726,
      "v": 24
    },
    {
      "midi": 72,
      "hit": false,
      "t": 57665.20724999984,
      "d": 161.29000000000087,
      "v": 62
    },
    {
      "midi": 74,
      "hit": false,
      "t": 57904.11806249984,
      "d": 91.73368750000373,
      "v": 62
    },
    {
      "midi": 75,
      "hit": false,
      "t": 58052.30324999984,
      "d": 135.08037499999773,
      "v": 38
    },
    {
      "midi": 76,
      "hit": false,
      "t": 58283.149562499835,
      "d": 96.77399999999761,
      "v": 57
    },
    {
      "midi": 64,
      "hit": false,
      "t": 58292.22212499983,
      "d": 54.43537500000093,
      "v": 41
    },
    {
      "midi": 60,
      "hit": false,
      "t": 58310.367249999836,
      "d": 40.32249999999476,
      "v": 29
    },
    {
      "midi": 72,
      "hit": false,
      "t": 58434.358937499834,
      "d": 285.28168749999895,
      "v": 34
    },
    {
      "midi": 65,
      "hit": false,
      "t": 58792.221124999836,
      "d": 374.99925000000076,
      "v": 27
    },
    {
      "midi": 60,
      "hit": false,
      "t": 58804.31787499983,
      "d": 480.8458125000034,
      "v": 33
    },
    {
      "midi": 55,
      "hit": false,
      "t": 58805.32593749983,
      "d": 1286.2877500000031,
      "v": 18
    },
    {
      "midi": 57,
      "hit": false,
      "t": 58823.47106249983,
      "d": 1163.3041250000024,
      "v": 20
    },
    {
      "midi": 79,
      "hit": false,
      "t": 59182.34131249984,
      "d": 117.94331249999959,
      "v": 70
    },
    {
      "midi": 78,
      "hit": false,
      "t": 59226.69606249984,
      "d": 27.217687500000466,
      "v": 25
    },
    {
      "midi": 67,
      "hit": false,
      "t": 59443.42949999984,
      "d": 44.35475000000588,
      "v": 45
    },
    {
      "midi": 65,
      "hit": false,
      "t": 59458.55043749984,
      "d": 46.370875000000524,
      "v": 42
    },
    {
      "midi": 60,
      "hit": false,
      "t": 59476.695562499845,
      "d": 110.88687499999651,
      "v": 28
    },
    {
      "midi": 67,
      "hit": false,
      "t": 59584.55824999984,
      "d": 73.58856250000099,
      "v": 30
    },
    {
      "midi": 67,
      "hit": false,
      "t": 59711.57412499984,
      "d": 39.31443749999744,
      "v": 66
    },
    {
      "midi": 60,
      "hit": false,
      "t": 59907.138249999836,
      "d": 41.33056249999936,
      "v": 18
    },
    {
      "midi": 67,
      "hit": false,
      "t": 59958.54943749984,
      "d": 66.5321249999979,
      "v": 80
    },
    {
      "midi": 67,
      "hit": false,
      "t": 60086.57337499983,
      "d": 79.63693749999948,
      "v": 58
    },
    {
      "midi": 61,
      "hit": false,
      "t": 60268.02462499983,
      "d": 221.77374999999302,
      "v": 37
    },
    {
      "midi": 65,
      "hit": false,
      "t": 60278.10524999983,
      "d": 130.04006249999657,
      "v": 41
    },
    {
      "midi": 56,
      "hit": false,
      "t": 60281.12943749983,
      "d": 477.8216249999823,
      "v": 36
    },
    {
      "midi": 67,
      "hit": false,
      "t": 60291.21006249983,
      "d": 57.459562500000175,
      "v": 64
    },
    {
      "midi": 55,
      "hit": false,
      "t": 60300.282624999825,
      "d": 466.73293749998993,
      "v": 17
    },
    {
      "midi": 67,
      "hit": false,
      "t": 60417.21787499983,
      "d": 68.54824999999983,
      "v": 51
    },
    {
      "midi": 67,
      "hit": false,
      "t": 60585.564312499824,
      "d": 73.58856249999371,
      "v": 65
    },
    {
      "midi": 61,
      "hit": false,
      "t": 60616.81424999982,
      "d": 111.89493749999383,
      "v": 38
    },
    {
      "midi": 65,
      "hit": false,
      "t": 60627.90293749982,
      "d": 43.346687499994005,
      "v": 34
    },
    {
      "midi": 67,
      "hit": false,
      "t": 60704.515687499814,
      "d": 69.55631250000442,
      "v": 47
    },
    {
      "midi": 67,
      "hit": false,
      "t": 60844.63637499982,
      "d": 80.6449999999968,
      "v": 64
    },
    {
      "midi": 67,
      "hit": false,
      "t": 60956.531312499814,
      "d": 79.63693749999948,
      "v": 58
    },
    {
      "midi": 65,
      "hit": false,
      "t": 61004.918312499816,
      "d": 46.370875000000524,
      "v": 37
    },
    {
      "midi": 61,
      "hit": false,
      "t": 61007.942499999815,
      "d": 140.1206874999989,
      "v": 35
    },
    {
      "midi": 67,
      "hit": false,
      "t": 61093.62781249981,
      "d": 80.64500000000407,
      "v": 73
    },
    {
      "midi": 67,
      "hit": false,
      "t": 61214.59531249982,
      "d": 58.4676249999975,
      "v": 36
    },
    {
      "midi": 67,
      "hit": false,
      "t": 61387.98206249982,
      "d": 245.9672500000015,
      "v": 74
    },
    {
      "midi": 61,
      "hit": false,
      "t": 61401.08687499982,
      "d": 431.45074999999633,
      "v": 38
    },
    {
      "midi": 65,
      "hit": false,
      "t": 61406.12718749982,
      "d": 336.69287499999336,
      "v": 44
    },
    {
      "midi": 56,
      "hit": false,
      "t": 61420.24006249982,
      "d": 493.9506249999904,
      "v": 33
    },
    {
      "midi": 68,
      "hit": false,
      "t": 61643.02187499982,
      "d": 112.90299999999843,
      "v": 71
    },
    {
      "midi": 67,
      "hit": false,
      "t": 61775.078062499815,
      "d": 76.61275000000023,
      "v": 71
    },
    {
      "midi": 67,
      "hit": false,
      "t": 61924.27131249981,
      "d": 181.45125000000553,
      "v": 64
    },
    {
      "midi": 65,
      "hit": false,
      "t": 62166.20631249982,
      "d": 65.52406250000058,
      "v": 62
    },
    {
      "midi": 66,
      "hit": false,
      "t": 62294.23024999982,
      "d": 214.7173124999972,
      "v": 49
    },
    {
      "midi": 67,
      "hit": false,
      "t": 62546.24587499982,
      "d": 103.8304375000007,
      "v": 59
    },
    {
      "midi": 65,
      "hit": false,
      "t": 62699.47137499982,
      "d": 156.2496874999997,
      "v": 36
    },
    {
      "midi": 64,
      "hit": false,
      "t": 63043.22068749982,
      "d": 201.6125000000029,
      "v": 57
    },
    {
      "midi": 65,
      "hit": false,
      "t": 63292.21212499982,
      "d": 132.0561874999912,
      "v": 69
    },
    {
      "midi": 55,
      "hit": false,
      "t": 63293.22018749982,
      "d": 55.443437499998254,
      "v": 54
    },
    {
      "midi": 54,
      "hit": false,
      "t": 63324.47012499982,
      "d": 28.225749999997788,
      "v": 25
    },
    {
      "midi": 64,
      "hit": false,
      "t": 63434.34893749982,
      "d": 183.46737500000017,
      "v": 53
    },
    {
      "midi": 59,
      "hit": false,
      "t": 63698.461312499814,
      "d": 52.41924999999901,
      "v": 34
    },
    {
      "midi": 60,
      "hit": false,
      "t": 63708.54193749982,
      "d": 28.225749999997788,
      "v": 26
    },
    {
      "midi": 55,
      "hit": false,
      "t": 63823.46106249981,
      "d": 283.26556249999703,
      "v": 50
    },
    {
      "midi": 59,
      "hit": false,
      "t": 64184.347437499804,
      "d": 307.459062499991,
      "v": 40
    },
    {
      "midi": 46,
      "hit": false,
      "t": 64441.4033749998,
      "d": 27.217687500000466,
      "v": 36
    },
    {
      "midi": 60,
      "hit": false,
      "t": 64523.05643749979,
      "d": 270.16075000000274,
      "v": 53
    },
    {
      "midi": 62,
      "hit": false,
      "t": 64806.3219999998,
      "d": 333.6686875000014,
      "v": 62
    },
    {
      "midi": 61,
      "hit": false,
      "t": 64898.0556874998,
      "d": 143.14487499999814,
      "v": 25
    },
    {
      "midi": 64,
      "hit": false,
      "t": 65154.1035624998,
      "d": 68.54824999999983,
      "v": 60
    },
    {
      "midi": 66,
      "hit": false,
      "t": 65278.095249999795,
      "d": 114.91912500000035,
      "v": 53
    },
    {
      "midi": 67,
      "hit": false,
      "t": 65434.344937499794,
      "d": 130.04006249999657,
      "v": 53
    },
    {
      "midi": 61,
      "hit": false,
      "t": 65624.86874999979,
      "d": 84.67724999999336,
      "v": 35
    },
    {
      "midi": 69,
      "hit": false,
      "t": 65644.02193749978,
      "d": 85.68531250000524,
      "v": 55
    },
    {
      "midi": 70,
      "hit": false,
      "t": 65819.42481249978,
      "d": 146.16906250000466,
      "v": 36
    },
    {
      "midi": 61,
      "hit": false,
      "t": 66012.9728124998,
      "d": 702.6195624999673,
      "v": 35
    },
    {
      "midi": 66,
      "hit": false,
      "t": 66021.03731249979,
      "d": 503.0231874999736,
      "v": 35
    },
    {
      "midi": 55,
      "hit": false,
      "t": 66022.04537499978,
      "d": 476.813562499985,
      "v": 35
    },
    {
      "midi": 72,
      "hit": false,
      "t": 66035.15018749978,
      "d": 147.17712500000198,
      "v": 59
    },
    {
      "midi": 73,
      "hit": false,
      "t": 66217.60949999977,
      "d": 163.3061250000028,
      "v": 25
    },
    {
      "midi": 75,
      "hit": false,
      "t": 66415.18974999977,
      "d": 90.72562499999185,
      "v": 55
    },
    {
      "midi": 76,
      "hit": false,
      "t": 66562.36687499976,
      "d": 182.45931249999558,
      "v": 42
    },
    {
      "midi": 78,
      "hit": false,
      "t": 66786.15674999976,
      "d": 141.12874999998894,
      "v": 48
    },
    {
      "midi": 64,
      "hit": false,
      "t": 66890.99524999976,
      "d": 176.41093749998254,
      "v": 33
    },
    {
      "midi": 61,
      "hit": false,
      "t": 66895.02749999976,
      "d": 210.6850624999788,
      "v": 25
    },
    {
      "midi": 54,
      "hit": false,
      "t": 66919.22099999976,
      "d": 176.41093749998254,
      "v": 29
    },
    {
      "midi": 59,
      "hit": false,
      "t": 66925.26937499976,
      "d": 147.17712499998743,
      "v": 29
    },
    {
      "midi": 79,
      "hit": false,
      "t": 66946.43868749974,
      "d": 173.38675000000512,
      "v": 36
    },
    {
      "midi": 83,
      "hit": false,
      "t": 67181.31724999975,
      "d": 96.77400000000489,
      "v": 71
    },
    {
      "midi": 61,
      "hit": false,
      "t": 67183.33337499974,
      "d": 101.81431250000605,
      "v": 34
    },
    {
      "midi": 54,
      "hit": false,
      "t": 67190.38981249974,
      "d": 122.98362500000803,
      "v": 37
    },
    {
      "midi": 64,
      "hit": false,
      "t": 67191.39787499973,
      "d": 52.419250000006286,
      "v": 39
    },
    {
      "midi": 59,
      "hit": false,
      "t": 67211.55912499974,
      "d": 41.330562500006636,
      "v": 32
    },
    {
      "midi": 81,
      "hit": false,
      "t": 67362.76849999974,
      "d": 169.35450000000128,
      "v": 38
    },
    {
      "midi": 78,
      "hit": false,
      "t": 67689.38074999975,
      "d": 212.70118750000256,
      "v": 55
    },
    {
      "midi": 76,
      "hit": false,
      "t": 68064.37999999976,
      "d": 149.19324999999662,
      "v": 52
    },
    {
      "midi": 49,
      "hit": false,
      "t": 68418.20993749976,
      "d": 56.451499999995576,
      "v": 35
    },
    {
      "midi": 59,
      "hit": false,
      "t": 68427.28249999977,
      "d": 79.6369374999922,
      "v": 31
    },
    {
      "midi": 71,
      "hit": false,
      "t": 68456.51631249976,
      "d": 164.31418750000012,
      "v": 32
    },
    {
      "midi": 82,
      "hit": false,
      "t": 68826.47524999977,
      "d": 193.54800000000978,
      "v": 64
    },
    {
      "midi": 70,
      "hit": false,
      "t": 68830.50749999977,
      "d": 171.37062500001048,
      "v": 76
    },
    {
      "midi": 63,
      "hit": false,
      "t": 68831.51556249977,
      "d": 145.16100000000733,
      "v": 51
    },
    {
      "midi": 52,
      "hit": false,
      "t": 68846.63649999977,
      "d": 56.45150000001013,
      "v": 40
    },
    {
      "midi": 80,
      "hit": false,
      "t": 68877.88643749978,
      "d": 242.943062499995,
      "v": 25
    },
    {
      "midi": 71,
      "hit": false,
      "t": 69026.07162499978,
      "d": 51.41118749999441,
      "v": 32
    },
    {
      "midi": 58,
      "hit": false,
      "t": 69136.95849999978,
      "d": 64.51600000000326,
      "v": 36
    },
    {
      "midi": 82,
      "hit": false,
      "t": 69239.78087499978,
      "d": 174.39481250000244,
      "v": 55
    },
    {
      "midi": 70,
      "hit": false,
      "t": 69249.86149999978,
      "d": 202.62056250000023,
      "v": 42
    },
    {
      "midi": 66,
      "hit": false,
      "t": 69524.05449999978,
      "d": 583.6681874999922,
      "v": 37
    },
    {
      "midi": 62,
      "hit": false,
      "t": 69527.07868749979,
      "d": 542.3376249999856,
      "v": 44
    },
    {
      "midi": 81,
      "hit": false,
      "t": 69527.07868749979,
      "d": 568.5472499999887,
      "v": 57
    },
    {
      "midi": 57,
      "hit": false,
      "t": 69530.1028749998,
      "d": 548.385999999984,
      "v": 39
    },
    {
      "midi": 69,
      "hit": false,
      "t": 69547.23993749979,
      "d": 593.74881249998,
      "v": 34
    },
    {
      "midi": 78,
      "hit": false,
      "t": 70397.03662499978,
      "d": 287.2978124999936,
      "v": 75
    },
    {
      "midi": 56,
      "hit": false,
      "t": 70401.06887499978,
      "d": 619.9584374999686,
      "v": 42
    },
    {
      "midi": 67,
      "hit": false,
      "t": 70405.10112499978,
      "d": 376.00731249997625,
      "v": 54
    },
    {
      "midi": 62,
      "hit": false,
      "t": 70413.16562499978,
      "d": 421.37012499998673,
      "v": 48
    },
    {
      "midi": 77,
      "hit": false,
      "t": 70707.51987499977,
      "d": 60.48374999999942,
      "v": 32
    },
    {
      "midi": 76,
      "hit": false,
      "t": 70752.88268749976,
      "d": 50.40312499999709,
      "v": 58
    },
    {
      "midi": 75,
      "hit": false,
      "t": 70776.06812499976,
      "d": 110.88687499999651,
      "v": 69
    },
    {
      "midi": 74,
      "hit": false,
      "t": 70862.76149999976,
      "d": 290.32199999998556,
      "v": 56
    },
    {
      "midi": 69,
      "hit": false,
      "t": 71231.71237499974,
      "d": 170.3625624999986,
      "v": 31
    },
    {
      "midi": 69,
      "hit": false,
      "t": 71470.62318749975,
      "d": 67.54018749999523,
      "v": 53
    },
    {
      "midi": 65,
      "hit": false,
      "t": 71487.76024999974,
      "d": 59.475687500002095,
      "v": 48
    },
    {
      "midi": 61,
      "hit": false,
      "t": 71494.81668749974,
      "d": 114.91912500000035,
      "v": 39
    },
    {
      "midi": 69,
      "hit": false,
      "t": 71609.73581249974,
      "d": 140.12068750000617,
      "v": 51
    },
    {
      "midi": 68,
      "hit": false,
      "t": 71842.59824999975,
      "d": 48.387000000002445,
      "v": 49
    },
    {
      "midi": 61,
      "hit": false,
      "t": 71868.80787499975,
      "d": 115.92718749999767,
      "v": 31
    },
    {
      "midi": 68,
      "hit": false,
      "t": 71955.50124999975,
      "d": 63.507937499991385,
      "v": 46
    },
    {
      "midi": 69,
      "hit": false,
      "t": 71996.83181249975,
      "d": 127.01587500001187,
      "v": 60
    },
    {
      "midi": 61,
      "hit": false,
      "t": 72228.68618749976,
      "d": 103.8304374999716,
      "v": 53
    },
    {
      "midi": 65,
      "hit": false,
      "t": 72235.74262499975,
      "d": 32.25799999998708,
      "v": 54
    },
    {
      "midi": 55,
      "hit": false,
      "t": 72248.84743749975,
      "d": 32.25799999998708,
      "v": 35
    },
    {
      "midi": 64,
      "hit": false,
      "t": 72706.50781249972,
      "d": 78.62887500000943,
      "v": 54
    },
    {
      "midi": 62,
      "hit": false,
      "t": 72731.70937499973,
      "d": 42.33862500000396,
      "v": 44
    },
    {
      "midi": 58,
      "hit": false,
      "t": 72732.71743749973,
      "d": 84.67725000000792,
      "v": 34
    },
    {
      "midi": 69,
      "hit": false,
      "t": 73470.61918749975,
      "d": 258.0639999999985,
      "v": 92
    },
    {
      "midi": 68,
      "hit": false,
      "t": 73743.80412499975,
      "d": 59.475687500002095,
      "v": 39
    },
    {
      "midi": 69,
      "hit": false,
      "t": 73867.79581249975,
      "d": 180.44318750000093,
      "v": 54
    },
    {
      "midi": 62,
      "hit": false,
      "t": 74141.98881249975,
      "d": 78.62887500000943,
      "v": 46
    },
    {
      "midi": 56,
      "hit": false,
      "t": 74144.00493749975,
      "d": 149.19325000001118,
      "v": 38
    },
    {
      "midi": 70,
      "hit": false,
      "t": 74148.03718749975,
      "d": 158.26581250000163,
      "v": 68
    },
    {
      "midi": 67,
      "hit": false,
      "t": 74151.06137499976,
      "d": 36.29025000000547,
      "v": 35
    },
    {
      "midi": 61,
      "hit": false,
      "t": 74399.04474999975,
      "d": 142.13681249998626,
      "v": 38
    },
    {
      "midi": 69,
      "hit": false,
      "t": 74401.06087499975,
      "d": 206.65281249998952,
      "v": 65
    },
    {
      "midi": 55,
      "hit": false,
      "t": 74405.09312499975,
      "d": 111.89493749999383,
      "v": 47
    },
    {
      "midi": 68,
      "hit": false,
      "t": 74663.15712499974,
      "d": 171.37062499998137,
      "v": 55
    },
    {
      "midi": 61,
      "hit": false,
      "t": 74671.22162499973,
      "d": 119.95943749998696,
      "v": 33
    },
    {
      "midi": 55,
      "hit": false,
      "t": 74676.26193749973,
      "d": 47.37893749999057,
      "v": 36
    },
    {
      "midi": 69,
      "hit": false,
      "t": 74909.12437499972,
      "d": 157.25774999998976,
      "v": 64
    },
    {
      "midi": 61,
      "hit": false,
      "t": 74912.14856249973,
      "d": 131.0481249999866,
      "v": 37
    },
    {
      "midi": 55,
      "hit": false,
      "t": 74916.18081249973,
      "d": 81.65306249998685,
      "v": 43
    },
    {
      "midi": 65,
      "hit": false,
      "t": 74923.23724999973,
      "d": 56.451499999995576,
      "v": 40
    },
    {
      "midi": 76,
      "hit": false,
      "t": 75114.76912499972,
      "d": 181.45124999999825,
      "v": 64
    },
    {
      "midi": 61,
      "hit": false,
      "t": 75120.81749999971,
      "d": 140.12068750000617,
      "v": 44
    },
    {
      "midi": 55,
      "hit": false,
      "t": 75124.84974999972,
      "d": 91.73368750000373,
      "v": 37
    },
    {
      "midi": 65,
      "hit": false,
      "t": 75139.97068749972,
      "d": 47.37893750000512,
      "v": 39
    },
    {
      "midi": 61,
      "hit": false,
      "t": 75378.88149999971,
      "d": 184.47543750000477,
      "v": 45
    },
    {
      "midi": 74,
      "hit": false,
      "t": 75392.99437499972,
      "d": 188.50768749999406,
      "v": 60
    },
    {
      "midi": 55,
      "hit": false,
      "t": 75395.01049999971,
      "d": 34.27412500001083,
      "v": 38
    },
    {
      "midi": 61,
      "hit": false,
      "t": 75651.05837499972,
      "d": 635.0793750000303,
      "v": 28
    },
    {
      "midi": 69,
      "hit": false,
      "t": 75658.11481249973,
      "d": 830.6435000000201,
      "v": 49
    },
    {
      "midi": 54,
      "hit": false,
      "t": 75667.18737499973,
      "d": 581.6520625000121,
      "v": 29
    },
    {
      "midi": 64,
      "hit": false,
      "t": 75672.22768749973,
      "d": 514.1118750000169,
      "v": 36
    },
    {
      "midi": 59,
      "hit": false,
      "t": 75705.49374999973,
      "d": 444.55556250001246,
      "v": 27
    },
    {
      "midi": 66,
      "hit": false,
      "t": 76153.07349999975,
      "d": 416.3298125000001,
      "v": 45
    },
    {
      "midi": 64,
      "hit": false,
      "t": 76543.19368749975,
      "d": 472.78131250001024,
      "v": 46
    },
    {
      "midi": 61,
      "hit": false,
      "t": 76554.28237499975,
      "d": 459.67650000001595,
      "v": 28
    },
    {
      "midi": 54,
      "hit": false,
      "t": 76555.29043749975,
      "d": 428.42656250001164,
      "v": 31
    },
    {
      "midi": 59,
      "hit": false,
      "t": 76571.41943749975,
      "d": 373.9911875000107,
      "v": 41
    },
    {
      "midi": 62,
      "hit": false,
      "t": 77219.60362499976,
      "d": 894.151437499997,
      "v": 36
    },
    {
      "midi": 65,
      "hit": false,
      "t": 77227.66812499975,
      "d": 614.9181249999965,
      "v": 40
    },
    {
      "midi": 60,
      "hit": false,
      "t": 77241.78099999976,
      "d": 853.8289375000022,
      "v": 32
    },
    {
      "midi": 55,
      "hit": false,
      "t": 77249.84549999975,
      "d": 890.1191875000077,
      "v": 27
    },
    {
      "midi": 86,
      "hit": false,
      "t": 77620.81249999975,
      "d": 104.83849999999802,
      "v": 83
    },
    {
      "midi": 81,
      "hit": false,
      "t": 77772.02187499974,
      "d": 120.96750000001339,
      "v": 53
    },
    {
      "midi": 82,
      "hit": false,
      "t": 77883.91681249975,
      "d": 107.86268750000454,
      "v": 70
    },
    {
      "midi": 84,
      "hit": false,
      "t": 78020.00524999975,
      "d": 102.82237500000338,
      "v": 74
    },
    {
      "midi": 65,
      "hit": false,
      "t": 78395.00449999976,
      "d": 45.362812499995925,
      "v": 48
    },
    {
      "midi": 62,
      "hit": false,
      "t": 78402.06093749976,
      "d": 56.451499999995576,
      "v": 32
    },
    {
      "midi": 60,
      "hit": false,
      "t": 78417.18187499976,
      "d": 33.26606249999895,
      "v": 33
    },
    {
      "midi": 62,
      "hit": false,
      "t": 78787.14081249975,
      "d": 208.66893749998417,
      "v": 53
    },
    {
      "midi": 86,
      "hit": false,
      "t": 78796.21337499976,
      "d": 91.73368749997462,
      "v": 81
    },
    {
      "midi": 65,
      "hit": false,
      "t": 78804.27787499975,
      "d": 29.23381249999511,
      "v": 45
    },
    {
      "midi": 60,
      "hit": false,
      "t": 78804.27787499975,
      "d": 99.7981874999823,
      "v": 43
    },
    {
      "midi": 55,
      "hit": false,
      "t": 78834.51974999974,
      "d": 40.32249999999476,
      "v": 18
    },
    {
      "midi": 81,
      "hit": false,
      "t": 78935.32599999974,
      "d": 87.70143749999988,
      "v": 62
    },
    {
      "midi": 84,
      "hit": false,
      "t": 79059.31768749974,
      "d": 99.79818749999686,
      "v": 67
    },
    {
      "midi": 62,
      "hit": false,
      "t": 79199.43837499974,
      "d": 109.87881249999919,
      "v": 34
    },
    {
      "midi": 82,
      "hit": false,
      "t": 79202.46256249974,
      "d": 73.58856249999371,
      "v": 54
    },
    {
      "midi": 78,
      "hit": false,
      "t": 79350.64774999974,
      "d": 68.5482500000071,
      "v": 50
    },
    {
      "midi": 81,
      "hit": false,
      "t": 79485.72812499975,
      "d": 114.91912500000035,
      "v": 55
    },
    {
      "midi": 79,
      "hit": false,
      "t": 79595.60693749975,
      "d": 72.58049999999639,
      "v": 36
    },
    {
      "midi": 62,
      "hit": false,
      "t": 79640.96974999974,
      "d": 114.91912500000035,
      "v": 30
    },
    {
      "midi": 74,
      "hit": false,
      "t": 79732.70343749975,
      "d": 37.298312500002794,
      "v": 38
    },
    {
      "midi": 77,
      "hit": false,
      "t": 79841.57418749975,
      "d": 76.61275000000023,
      "v": 54
    },
    {
      "midi": 75,
      "hit": false,
      "t": 79960.52556249975,
      "d": 88.7094999999972,
      "v": 51
    },
    {
      "midi": 62,
      "hit": false,
      "t": 80039.15443749975,
      "d": 94.75787499999569,
      "v": 34
    },
    {
      "midi": 71,
      "hit": false,
      "t": 80100.64624999974,
      "d": 35.2821874999936,
      "v": 32
    },
    {
      "midi": 74,
      "hit": false,
      "t": 80208.50893749973,
      "d": 88.7094999999972,
      "v": 60
    },
    {
      "midi": 72,
      "hit": false,
      "t": 80349.63768749974,
      "d": 43.34668750000128,
      "v": 55
    },
    {
      "midi": 70,
      "hit": false,
      "t": 80493.79062499973,
      "d": 90.7256250000064,
      "v": 56
    },
    {
      "midi": 67,
      "hit": false,
      "t": 80761.93524999973,
      "d": 32.25800000000163,
      "v": 20
    },
    {
      "midi": 65,
      "hit": false,
      "t": 80915.16074999973,
      "d": 145.16099999999278,
      "v": 24
    },
    {
      "midi": 60,
      "hit": false,
      "t": 81148.02318749973,
      "d": 33.266062500013504,
      "v": 36
    },
    {
      "midi": 56,
      "hit": false,
      "t": 81151.04737499973,
      "d": 78.62887500000943,
      "v": 33
    },
    {
      "midi": 61,
      "hit": false,
      "t": 81290.15999999974,
      "d": 91.73368750000373,
      "v": 59
    },
    {
      "midi": 63,
      "hit": false,
      "t": 81376.85337499974,
      "d": 127.01587500001187,
      "v": 51
    },
    {
      "midi": 61,
      "hit": false,
      "t": 81461.53062499975,
      "d": 107.86268750000454,
      "v": 34
    },
    {
      "midi": 57,
      "hit": false,
      "t": 81596.61099999976,
      "d": 38.306375000000116,
      "v": 36
    },
    {
      "midi": 60,
      "hit": false,
      "t": 81683.30437499976,
      "d": 229.8382500000007,
      "v": 65
    },
    {
      "midi": 57,
      "hit": false,
      "t": 81952.45706249976,
      "d": 41.330562500006636,
      "v": 49
    },
    {
      "midi": 58,
      "hit": false,
      "t": 82052.25524999977,
      "d": 257.05593750000116,
      "v": 45
    },
    {
      "midi": 56,
      "hit": false,
      "t": 82690.35881249978,
      "d": 77.62081249999756,
      "v": 49
    },
    {
      "midi": 50,
      "hit": false,
      "t": 83083.50318749978,
      "d": 54.43537500000093,
      "v": 41
    },
    {
      "midi": 57,
      "hit": false,
      "t": 83208.50293749978,
      "d": 67.54018749999523,
      "v": 69
    },
    {
      "midi": 55,
      "hit": false,
      "t": 83314.34949999978,
      "d": 49.39506249999977,
      "v": 46
    },
    {
      "midi": 54,
      "hit": false,
      "t": 83393.98643749979,
      "d": 75.60468750000291,
      "v": 32
    },
    {
      "midi": 55,
      "hit": false,
      "t": 83507.89749999979,
      "d": 56.451499999995576,
      "v": 50
    },
    {
      "midi": 54,
      "hit": false,
      "t": 83575.43768749978,
      "d": 75.60468750000291,
      "v": 31
    },
    {
      "midi": 59,
      "hit": false,
      "t": 83636.92949999978,
      "d": 44.354750000013155,
      "v": 40
    },
    {
      "midi": 59,
      "hit": false,
      "t": 83729.6712499998,
      "d": 68.5482500000071,
      "v": 39
    },
    {
      "midi": 58,
      "hit": false,
      "t": 83815.3565624998,
      "d": 123.99168750000536,
      "v": 55
    },
    {
      "midi": 59,
      "hit": false,
      "t": 83906.08218749981,
      "d": 62.49987499999406,
      "v": 58
    },
    {
      "midi": 50,
      "hit": false,
      "t": 83962.5336874998,
      "d": 77.62081249999756,
      "v": 36
    },
    {
      "midi": 64,
      "hit": false,
      "t": 84045.1948124998,
      "d": 65.52406250000058,
      "v": 61
    },
    {
      "midi": 62,
      "hit": false,
      "t": 84142.9768749998,
      "d": 66.5321249999979,
      "v": 33
    },
    {
      "midi": 61,
      "hit": false,
      "t": 84234.71056249981,
      "d": 91.73368750000373,
      "v": 39
    },
    {
      "midi": 62,
      "hit": false,
      "t": 84298.21849999981,
      "d": 47.37893749999057,
      "v": 57
    },
    {
      "midi": 69,
      "hit": false,
      "t": 84436.32306249981,
      "d": 78.62887499999488,
      "v": 76
    },
    {
      "midi": 67,
      "hit": false,
      "t": 84525.03256249981,
      "d": 74.59662500000559,
      "v": 40
    },
    {
      "midi": 66,
      "hit": false,
      "t": 84629.87106249982,
      "d": 86.69337500000256,
      "v": 34
    },
    {
      "midi": 67,
      "hit": false,
      "t": 84720.59668749983,
      "d": 42.33862500000396,
      "v": 55
    },
    {
      "midi": 64,
      "hit": false,
      "t": 84766.96756249983,
      "d": 34.274124999996275,
      "v": 33
    },
    {
      "midi": 59,
      "hit": false,
      "t": 84789.14493749983,
      "d": 54.43537500000093,
      "v": 35
    },
    {
      "midi": 74,
      "hit": false,
      "t": 84853.66093749984,
      "d": 69.55631250000442,
      "v": 74
    },
    {
      "midi": 73,
      "hit": false,
      "t": 84908.09631249984,
      "d": 74.59662500000559,
      "v": 25
    },
    {
      "midi": 62,
      "hit": false,
      "t": 85425.23237499985,
      "d": 30.241875000006985,
      "v": 62
    },
    {
      "midi": 59,
      "hit": false,
      "t": 85440.35331249985,
      "d": 39.31443749999744,
      "v": 46
    },
    {
      "midi": 71,
      "hit": false,
      "t": 85838.53799999985,
      "d": 33.26606249999895,
      "v": 34
    },
    {
      "midi": 62,
      "hit": false,
      "t": 85839.54606249985,
      "d": 31.249937500004307,
      "v": 34
    },
    {
      "midi": 74,
      "hit": false,
      "t": 85856.68312499985,
      "d": 59.475687500002095,
      "v": 59
    },
    {
      "midi": 79,
      "hit": false,
      "t": 85971.60224999985,
      "d": 128.02393749999464,
      "v": 80
    },
    {
      "midi": 67,
      "hit": false,
      "t": 85977.65062499985,
      "d": 182.45931249999558,
      "v": 75
    },
    {
      "midi": 78,
      "hit": false,
      "t": 86199.42437499984,
      "d": 70.56437500000175,
      "v": 42
    },
    {
      "midi": 79,
      "hit": false,
      "t": 86323.41606249985,
      "d": 145.16099999999278,
      "v": 70
    },
    {
      "midi": 67,
      "hit": false,
      "t": 86336.52087499984,
      "d": 162.29806250000547,
      "v": 59
    },
    {
      "midi": 62,
      "hit": false,
      "t": 86556.27849999984,
      "d": 48.387000000002445,
      "v": 58
    },
    {
      "midi": 76,
      "hit": false,
      "t": 86570.39137499985,
      "d": 73.58856249999371,
      "v": 50
    },
    {
      "midi": 55,
      "hit": false,
      "t": 86594.58487499984,
      "d": 48.387000000002445,
      "v": 36
    },
    {
      "midi": 79,
      "hit": false,
      "t": 86700.43143749984,
      "d": 153.22550000000047,
      "v": 58
    },
    {
      "midi": 67,
      "hit": false,
      "t": 86703.45562499984,
      "d": 121.97556249999616,
      "v": 57
    },
    {
      "midi": 71,
      "hit": false,
      "t": 86959.50349999983,
      "d": 44.3547499999986,
      "v": 69
    },
    {
      "midi": 62,
      "hit": false,
      "t": 86959.50349999983,
      "d": 66.5321249999979,
      "v": 74
    },
    {
      "midi": 83,
      "hit": false,
      "t": 86959.50349999983,
      "d": 67.54018749999523,
      "v": 72
    },
    {
      "midi": 59,
      "hit": false,
      "t": 86969.58412499983,
      "d": 38.306375000000116,
      "v": 48
    },
    {
      "midi": 55,
      "hit": false,
      "t": 86970.59218749983,
      "d": 60.48374999999942,
      "v": 46
    },
    {
      "midi": 52,
      "hit": false,
      "t": 86983.69699999983,
      "d": 30.241875000006985,
      "v": 28
    },
    {
      "midi": 55,
      "hit": false,
      "t": 87308.29312499984,
      "d": 84.67724999999336,
      "v": 65
    },
    {
      "midi": 66,
      "hit": false,
      "t": 87316.35762499983,
      "d": 67.54018749999523,
      "v": 61
    },
    {
      "midi": 84,
      "hit": false,
      "t": 87317.36568749983,
      "d": 112.9030000000057,
      "v": 74
    },
    {
      "midi": 72,
      "hit": false,
      "t": 87319.38181249982,
      "d": 83.6691875000106,
      "v": 78
    },
    {
      "midi": 61,
      "hit": false,
      "t": 87319.38181249982,
      "d": 149.19325000001118,
      "v": 57
    },
    {
      "midi": 61,
      "hit": false,
      "t": 87693.37299999983,
      "d": 331.65256249997765,
      "v": 58
    },
    {
      "midi": 66,
      "hit": false,
      "t": 87695.38912499983,
      "d": 161.28999999997905,
      "v": 62
    },
    {
      "midi": 55,
      "hit": false,
      "t": 87702.44556249982,
      "d": 152.2174374999886,
      "v": 62
    },
    {
      "midi": 76,
      "hit": false,
      "t": 87707.48587499982,
      "d": 84.67724999999336,
      "v": 69
    },
    {
      "midi": 88,
      "hit": false,
      "t": 87709.50199999982,
      "d": 106.85462499999267,
      "v": 71
    },
    {
      "midi": 60,
      "hit": false,
      "t": 88081.4770624998,
      "d": 177.4189999999944,
      "v": 63
    },
    {
      "midi": 91,
      "hit": false,
      "t": 88082.4851249998,
      "d": 123.9916874999908,
      "v": 66
    },
    {
      "midi": 64,
      "hit": false,
      "t": 88083.4931874998,
      "d": 106.85462499999267,
      "v": 74
    },
    {
      "midi": 79,
      "hit": false,
      "t": 88085.5093124998,
      "d": 89.71756249999453,
      "v": 71
    },
    {
      "midi": 53,
      "hit": false,
      "t": 88095.5899374998,
      "d": 149.19324999999662,
      "v": 54
    },
    {
      "midi": 88,
      "hit": false,
      "t": 88100.6302499998,
      "d": 90.72562499999185,
      "v": 50
    },
    {
      "midi": 57,
      "hit": false,
      "t": 88102.6463749998,
      "d": 130.04006250000384,
      "v": 57
    },
    {
      "midi": 89,
      "hit": false,
      "t": 88104.66249999979,
      "d": 96.77400000000489,
      "v": 35
    },
    {
      "midi": 60,
      "hit": false,
      "t": 88463.5327499998,
      "d": 331.6525624999631,
      "v": 68
    },
    {
      "midi": 96,
      "hit": false,
      "t": 88465.54887499979,
      "d": 327.6203124999738,
      "v": 82
    },
    {
      "midi": 91,
      "hit": false,
      "t": 88470.58918749979,
      "d": 335.68481249996694,
      "v": 69
    },
    {
      "midi": 64,
      "hit": false,
      "t": 88471.59724999979,
      "d": 388.1040624999732,
      "v": 76
    },
    {
      "midi": 84,
      "hit": false,
      "t": 88473.61337499978,
      "d": 383.06374999997206,
      "v": 62
    },
    {
      "midi": 53,
      "hit": false,
      "t": 88475.62949999978,
      "d": 387.09599999999045,
      "v": 65
    },
    {
      "midi": 57,
      "hit": false,
      "t": 88475.62949999978,
      "d": 394.15243749998626,
      "v": 61
    },
    {
      "midi": 90,
      "hit": false,
      "t": 88992.76556249976,
      "d": 150.20131249999395,
      "v": 48
    },
    {
      "midi": 83,
      "hit": false,
      "t": 88993.77362499975,
      "d": 173.38674999999057,
      "v": 48
    },
    {
      "midi": 95,
      "hit": false,
      "t": 88994.78168749975,
      "d": 183.4673749999929,
      "v": 56
    },
    {
      "midi": 64,
      "hit": false,
      "t": 88995.78974999975,
      "d": 155.2416249999951,
      "v": 67
    },
    {
      "midi": 59,
      "hit": false,
      "t": 89000.83006249975,
      "d": 191.53187500000058,
      "v": 58
    },
    {
      "midi": 53,
      "hit": false,
      "t": 89007.88649999975,
      "d": 173.38675000000512,
      "v": 44
    },
    {
      "midi": 91,
      "hit": false,
      "t": 89112.72499999974,
      "d": 72.58050000001094,
      "v": 38
    },
    {
      "midi": 93,
      "hit": false,
      "t": 89387.92606249976,
      "d": 97.78206250001676,
      "v": 60
    },
    {
      "midi": 88,
      "hit": false,
      "t": 89388.93412499975,
      "d": 116.93525000000955,
      "v": 55
    },
    {
      "midi": 59,
      "hit": false,
      "t": 89391.95831249976,
      "d": 111.89493750000838,
      "v": 51
    },
    {
      "midi": 64,
      "hit": false,
      "t": 89395.99056249976,
      "d": 74.59662500000559,
      "v": 57
    },
    {
      "midi": 53,
      "hit": false,
      "t": 89402.03893749976,
      "d": 109.87881249999919,
      "v": 39
    },
    {
      "midi": 81,
      "hit": false,
      "t": 89406.07118749977,
      "d": 126.0078125,
      "v": 33
    },
    {
      "midi": 50,
      "hit": false,
      "t": 89762.92531249976,
      "d": 144.15293750001,
      "v": 39
    },
    {
      "midi": 60,
      "hit": false,
      "t": 89763.93337499976,
      "d": 180.44318750003004,
      "v": 40
    },
    {
      "midi": 57,
      "hit": false,
      "t": 89766.95756249977,
      "d": 143.1448750000127,
      "v": 39
    },
    {
      "midi": 89,
      "hit": false,
      "t": 89770.98981249977,
      "d": 173.38675000001967,
      "v": 48
    },
    {
      "midi": 77,
      "hit": false,
      "t": 89774.01399999978,
      "d": 122.98362499999348,
      "v": 35
    },
    {
      "midi": 84,
      "hit": false,
      "t": 89775.02206249977,
      "d": 139.11262500000885,
      "v": 43
    },
    {
      "midi": 53,
      "hit": false,
      "t": 89782.07849999977,
      "d": 117.94331250000687,
      "v": 34
    },
    {
      "midi": 87,
      "hit": false,
      "t": 90157.07774999978,
      "d": 98.79012499998498,
      "v": 80
    },
    {
      "midi": 93,
      "hit": false,
      "t": 90160.10193749978,
      "d": 248.99143749999348,
      "v": 82
    },
    {
      "midi": 54,
      "hit": false,
      "t": 90168.16643749978,
      "d": 329.63643749999756,
      "v": 80
    },
    {
      "midi": 81,
      "hit": false,
      "t": 90169.17449999978,
      "d": 277.2171875000058,
      "v": 65
    },
    {
      "midi": 65,
      "hit": false,
      "t": 90170.18256249977,
      "d": 264.112374999997,
      "v": 80
    },
    {
      "midi": 60,
      "hit": false,
      "t": 90171.19062499977,
      "d": 272.17687500000466,
      "v": 72
    },
    {
      "midi": 90,
      "hit": false,
      "t": 90183.28737499977,
      "d": 28.225749999997788,
      "v": 32
    },
    {
      "midi": 64,
      "hit": false,
      "t": 90203.44862499977,
      "d": 29.23381249999511,
      "v": 31
    },
    {
      "midi": 88,
      "hit": false,
      "t": 90269.98074999977,
      "d": 163.3061250000028,
      "v": 53
    },
    {
      "midi": 64,
      "hit": false,
      "t": 90553.24631249977,
      "d": 307.45906249999825,
      "v": 67
    },
    {
      "midi": 91,
      "hit": false,
      "t": 90557.27856249978,
      "d": 270.16074999999546,
      "v": 79
    },
    {
      "midi": 85,
      "hit": false,
      "t": 90561.31081249978,
      "d": 102.82237499998882,
      "v": 74
    },
    {
      "midi": 59,
      "hit": false,
      "t": 90562.31887499978,
      "d": 331.6525624999922,
      "v": 65
    },
    {
      "midi": 79,
      "hit": false,
      "t": 90563.32693749978,
      "d": 277.21718749999127,
      "v": 63
    },
    {
      "midi": 53,
      "hit": false,
      "t": 90564.33499999977,
      "d": 291.33006249999744,
      "v": 68
    },
    {
      "midi": 86,
      "hit": false,
      "t": 90689.33474999978,
      "d": 161.2899999999936,
      "v": 35
    },
    {
      "midi": 89,
      "hit": false,
      "t": 90932.27781249977,
      "d": 138.10456249999697,
      "v": 60
    },
    {
      "midi": 53,
      "hit": false,
      "t": 90937.31812499977,
      "d": 182.45931249999558,
      "v": 53
    },
    {
      "midi": 64,
      "hit": false,
      "t": 90938.32618749977,
      "d": 181.45124999999825,
      "v": 51
    },
    {
      "midi": 77,
      "hit": false,
      "t": 90941.35037499978,
      "d": 182.45931249999558,
      "v": 53
    },
    {
      "midi": 59,
      "hit": false,
      "t": 90945.38262499978,
      "d": 246.97531249999884,
      "v": 51
    },
    {
      "midi": 84,
      "hit": false,
      "t": 90952.43906249978,
      "d": 143.14487499999814,
      "v": 60
    },
    {
      "midi": 62,
      "hit": false,
      "t": 91324.41412499978,
      "d": 110.8868749999674,
      "v": 48
    },
    {
      "midi": 59,
      "hit": false,
      "t": 91331.47056249977,
      "d": 147.17712499997288,
      "v": 31
    },
    {
      "midi": 76,
      "hit": false,
      "t": 91337.51893749977,
      "d": 63.50793749997683,
      "v": 36
    },
    {
      "midi": 83,
      "hit": false,
      "t": 91344.57537499977,
      "d": 82.66112499998417,
      "v": 41
    },
    {
      "midi": 88,
      "hit": false,
      "t": 91344.57537499977,
      "d": 92.74174999997194,
      "v": 33
    },
    {
      "midi": 55,
      "hit": false,
      "t": 91357.68018749976,
      "d": 68.54824999999255,
      "v": 27
    },
    {
      "midi": 52,
      "hit": false,
      "t": 91357.68018749976,
      "d": 70.5643749999872,
      "v": 24
    },
    {
      "midi": 91,
      "hit": false,
      "t": 91618.76837499975,
      "d": 118.95137499998964,
      "v": 54
    },
    {
      "midi": 62,
      "hit": false,
      "t": 91619.77643749975,
      "d": 203.628624999983,
      "v": 58
    },
    {
      "midi": 59,
      "hit": false,
      "t": 91622.80062499976,
      "d": 143.14487499998359,
      "v": 47
    },
    {
      "midi": 79,
      "hit": false,
      "t": 91623.80868749975,
      "d": 116.935249999995,
      "v": 42
    },
    {
      "midi": 86,
      "hit": false,
      "t": 91627.84093749976,
      "d": 119.95943749998696,
      "v": 57
    },
    {
      "midi": 52,
      "hit": false,
      "t": 91633.88931249976,
      "d": 91.73368749998917,
      "v": 40
    },
    {
      "midi": 55,
      "hit": false,
      "t": 91634.89737499975,
      "d": 97.78206249998766,
      "v": 44
    },
    {
      "midi": 88,
      "hit": false,
      "t": 91986.71118749972,
      "d": 95.76593749997846,
      "v": 50
    },
    {
      "midi": 64,
      "hit": false,
      "t": 91987.71924999972,
      "d": 88.70949999998265,
      "v": 57
    },
    {
      "midi": 76,
      "hit": false,
      "t": 91990.74343749972,
      "d": 83.66918749998149,
      "v": 40
    },
    {
      "midi": 83,
      "hit": false,
      "t": 91991.75149999972,
      "d": 77.620812499983,
      "v": 44
    },
    {
      "midi": 53,
      "hit": false,
      "t": 91993.76762499972,
      "d": 96.77399999997579,
      "v": 40
    },
    {
      "midi": 57,
      "hit": false,
      "t": 91998.80793749972,
      "d": 103.8304374999716,
      "v": 50
    },
    {
      "midi": 60,
      "hit": false,
      "t": 91999.81599999972,
      "d": 105.84656249998079,
      "v": 49
    },
    {
      "midi": 85,
      "hit": false,
      "t": 92006.87243749971,
      "d": 29.23381249999511,
      "v": 36
    },
    {
      "midi": 84,
      "hit": false,
      "t": 92347.5975624997,
      "d": 101.8143124999915,
      "v": 48
    },
    {
      "midi": 79,
      "hit": false,
      "t": 92360.70237499969,
      "d": 105.84656249999534,
      "v": 44
    },
    {
      "midi": 64,
      "hit": false,
      "t": 92360.70237499969,
      "d": 303.4268124999944,
      "v": 55
    },
    {
      "midi": 72,
      "hit": false,
      "t": 92365.74268749969,
      "d": 95.76593749999302,
      "v": 43
    },
    {
      "midi": 57,
      "hit": false,
      "t": 92370.78299999969,
      "d": 115.92718749998312,
      "v": 49
    },
    {
      "midi": 53,
      "hit": false,
      "t": 92372.79912499968,
      "d": 83.66918749999604,
      "v": 33
    },
    {
      "midi": 60,
      "hit": false,
      "t": 92373.80718749968,
      "d": 116.935249999995,
      "v": 46
    },
    {
      "midi": 74,
      "hit": false,
      "t": 92832.47562499969,
      "d": 315.52356250000594,
      "v": 53
    },
    {
      "midi": 65,
      "hit": false,
      "t": 92842.55624999969,
      "d": 296.3703749999986,
      "v": 58
    },
    {
      "midi": 69,
      "hit": false,
      "t": 92846.58849999969,
      "d": 306.45100000000093,
      "v": 60
    },
    {
      "midi": 71,
      "hit": false,
      "t": 92863.72556249969,
      "d": 300.40262500000244,
      "v": 47
    },
    {
      "midi": 64,
      "hit": false,
      "t": 92864.73362499969,
      "d": 283.2655625000043,
      "v": 72
    },
    {
      "midi": 62,
      "hit": false,
      "t": 93162.1120624997,
      "d": 102.82237500000338,
      "v": 53
    },
    {
      "midi": 74,
      "hit": false,
      "t": 93244.7731874997,
      "d": 210.68506250000792,
      "v": 40
    },
    {
      "midi": 65,
      "hit": false,
      "t": 93253.8457499997,
      "d": 153.22550000000047,
      "v": 50
    },
    {
      "midi": 69,
      "hit": false,
      "t": 93253.8457499997,
      "d": 192.5399374999979,
      "v": 38
    },
    {
      "midi": 71,
      "hit": false,
      "t": 93262.9183124997,
      "d": 186.49156249999942,
      "v": 26
    },
    {
      "midi": 64,
      "hit": false,
      "t": 93265.9424999997,
      "d": 334.67675000001327,
      "v": 44
    },
    {
      "midi": 77,
      "hit": false,
      "t": 93641.94981249972,
      "d": 173.38674999997602,
      "v": 45
    },
    {
      "midi": 62,
      "hit": false,
      "t": 93642.95787499972,
      "d": 173.38674999997602,
      "v": 48
    },
    {
      "midi": 56,
      "hit": false,
      "t": 93650.01431249971,
      "d": 195.56412499998987,
      "v": 38
    },
    {
      "midi": 74,
      "hit": false,
      "t": 93652.0304374997,
      "d": 145.16099999999278,
      "v": 36
    },
    {
      "midi": 65,
      "hit": false,
      "t": 93658.0788124997,
      "d": 138.10456249999697,
      "v": 34
    },
    {
      "midi": 72,
      "hit": false,
      "t": 94416.1418124997,
      "d": 180.44318749998638,
      "v": 80
    },
    {
      "midi": 59,
      "hit": false,
      "t": 94418.1579374997,
      "d": 203.62862499999756,
      "v": 42
    },
    {
      "midi": 60,
      "hit": false,
      "t": 94427.2304999997,
      "d": 208.66893749999872,
      "v": 38
    },
    {
      "midi": 55,
      "hit": false,
      "t": 94435.29499999969,
      "d": 191.53187500000058,
      "v": 40
    },
    {
      "midi": 64,
      "hit": false,
      "t": 94443.35949999969,
      "d": 206.65281250000407,
      "v": 37
    },
    {
      "midi": 74,
      "hit": false,
      "t": 94649.00424999969,
      "d": 74.59662500000559,
      "v": 24
    },
    {
      "midi": 72,
      "hit": false,
      "t": 94676.2219374997,
      "d": 74.59662500000559,
      "v": 35
    },
    {
      "midi": 71,
      "hit": false,
      "t": 94740.7379374997,
      "d": 37.298312500002794,
      "v": 51
    },
    {
      "midi": 64,
      "hit": false,
      "t": 94800.2136249997,
      "d": 194.55606249999255,
      "v": 36
    },
    {
      "midi": 60,
      "hit": false,
      "t": 94817.3506874997,
      "d": 192.5399374999979,
      "v": 34
    },
    {
      "midi": 55,
      "hit": false,
      "t": 94818.3587499997,
      "d": 165.32224999999744,
      "v": 33
    },
    {
      "midi": 72,
      "hit": false,
      "t": 94818.3587499997,
      "d": 247.98337499999616,
      "v": 60
    },
    {
      "midi": 59,
      "hit": false,
      "t": 94826.42324999969,
      "d": 158.26581250000163,
      "v": 36
    },
    {
      "midi": 76,
      "hit": false,
      "t": 95092.5517499997,
      "d": 742.9420624999766,
      "v": 64
    },
    {
      "midi": 54,
      "hit": false,
      "t": 95108.6807499997,
      "d": 587.7004374999815,
      "v": 39
    },
    {
      "midi": 64,
      "hit": false,
      "t": 95116.74524999969,
      "d": 556.4504999999917,
      "v": 26
    },
    {
      "midi": 60,
      "hit": false,
      "t": 95118.76137499968,
      "d": 537.297312499999,
      "v": 36
    },
    {
      "midi": 65,
      "hit": false,
      "t": 95939.32424999967,
      "d": 205.6447499999922,
      "v": 37
    },
    {
      "midi": 60,
      "hit": false,
      "t": 95941.34037499967,
      "d": 389.11212499999965,
      "v": 42
    },
    {
      "midi": 55,
      "hit": false,
      "t": 95949.40487499966,
      "d": 428.42656250001164,
      "v": 24
    },
    {
      "midi": 57,
      "hit": false,
      "t": 95977.63062499966,
      "d": 242.94306250000955,
      "v": 24
    },
    {
      "midi": 79,
      "hit": false,
      "t": 96199.40437499966,
      "d": 95.76593750000757,
      "v": 68
    },
    {
      "midi": 67,
      "hit": false,
      "t": 96329.44443749967,
      "d": 70.56437500000175,
      "v": 37
    },
    {
      "midi": 67,
      "hit": false,
      "t": 96479.64574999968,
      "d": 79.63693750000675,
      "v": 34
    },
    {
      "midi": 79,
      "hit": false,
      "t": 96608.67774999968,
      "d": 103.8304375000007,
      "v": 62
    },
    {
      "midi": 60,
      "hit": false,
      "t": 96670.16956249968,
      "d": 47.37893750000512,
      "v": 19
    },
    {
      "midi": 67,
      "hit": false,
      "t": 96755.85487499968,
      "d": 37.298312500002794,
      "v": 36
    },
    {
      "midi": 67,
      "hit": false,
      "t": 96886.90299999969,
      "d": 75.60468750000291,
      "v": 36
    },
    {
      "midi": 79,
      "hit": false,
      "t": 97014.9269374997,
      "d": 101.81431250000605,
      "v": 62
    },
    {
      "midi": 67,
      "hit": false,
      "t": 97134.8863749997,
      "d": 36.29025000000547,
      "v": 34
    },
    {
      "midi": 67,
      "hit": false,
      "t": 97258.8780624997,
      "d": 83.66918749999604,
      "v": 34
    },
    {
      "midi": 79,
      "hit": false,
      "t": 97391.9423124997,
      "d": 104.83849999999802,
      "v": 58
    },
    {
      "midi": 56,
      "hit": false,
      "t": 97410.0874374997,
      "d": 119.95943750000151,
      "v": 47
    },
    {
      "midi": 55,
      "hit": false,
      "t": 97415.1277499997,
      "d": 36.29025000000547,
      "v": 36
    },
    {
      "midi": 65,
      "hit": false,
      "t": 97418.1519374997,
      "d": 39.31443749999744,
      "v": 49
    },
    {
      "midi": 61,
      "hit": false,
      "t": 97428.2325624997,
      "d": 107.86268749998999,
      "v": 28
    },
    {
      "midi": 67,
      "hit": false,
      "t": 97513.9178749997,
      "d": 45.362812499995925,
      "v": 36
    },
    {
      "midi": 67,
      "hit": false,
      "t": 97660.08693749968,
      "d": 82.66112499999872,
      "v": 33
    },
    {
      "midi": 79,
      "hit": false,
      "t": 97792.14312499968,
      "d": 94.75787500001024,
      "v": 62
    },
    {
      "midi": 65,
      "hit": false,
      "t": 97797.18343749968,
      "d": 36.29025000000547,
      "v": 67
    },
    {
      "midi": 61,
      "hit": false,
      "t": 97804.23987499968,
      "d": 88.70950000001176,
      "v": 46
    },
    {
      "midi": 56,
      "hit": false,
      "t": 97813.31243749968,
      "d": 41.330562500006636,
      "v": 33
    },
    {
      "midi": 67,
      "hit": false,
      "t": 97907.0622499997,
      "d": 52.419250000006286,
      "v": 36
    },
    {
      "midi": 67,
      "hit": false,
      "t": 98050.20712499971,
      "d": 80.64500000000407,
      "v": 43
    },
    {
      "midi": 45,
      "hit": false,
      "t": 98145.97306249972,
      "d": 28.225749999997788,
      "v": 70
    },
    {
      "midi": 79,
      "hit": false,
      "t": 98176.21493749971,
      "d": 104.83849999999802,
      "v": 68
    },
    {
      "midi": 67,
      "hit": false,
      "t": 98296.17437499971,
      "d": 42.33862500000396,
      "v": 28
    },
    {
      "midi": 67,
      "hit": false,
      "t": 98425.20637499972,
      "d": 85.68531250000524,
      "v": 38
    },
    {
      "midi": 79,
      "hit": false,
      "t": 98549.19806249972,
      "d": 101.81431249997695,
      "v": 68
    },
    {
      "midi": 65,
      "hit": false,
      "t": 98551.21418749972,
      "d": 71.57243749998452,
      "v": 73
    },
    {
      "midi": 56,
      "hit": false,
      "t": 98563.31093749971,
      "d": 152.21743750000314,
      "v": 44
    },
    {
      "midi": 55,
      "hit": false,
      "t": 98565.32706249971,
      "d": 84.67724999999336,
      "v": 51
    },
    {
      "midi": 61,
      "hit": false,
      "t": 98565.32706249971,
      "d": 135.080375000005,
      "v": 45
    },
    {
      "midi": 67,
      "hit": false,
      "t": 98665.1252499997,
      "d": 30.241875000006985,
      "v": 49
    },
    {
      "midi": 67,
      "hit": false,
      "t": 98817.34268749972,
      "d": 80.64500000000407,
      "v": 35
    },
    {
      "midi": 79,
      "hit": false,
      "t": 98928.22956249974,
      "d": 129.03199999997742,
      "v": 75
    },
    {
      "midi": 59,
      "hit": false,
      "t": 98974.60043749973,
      "d": 161.28999999997905,
      "v": 60
    },
    {
      "midi": 64,
      "hit": false,
      "t": 98976.61656249972,
      "d": 127.01587499998277,
      "v": 66
    },
    {
      "midi": 53,
      "hit": false,
      "t": 98994.76168749972,
      "d": 163.30612499998824,
      "v": 42
    },
    {
      "midi": 67,
      "hit": false,
      "t": 99063.30993749971,
      "d": 176.4109374999971,
      "v": 46
    },
    {
      "midi": 79,
      "hit": false,
      "t": 99168.14843749971,
      "d": 90.72562499999185,
      "v": 13
    },
    {
      "midi": 67,
      "hit": false,
      "t": 99309.2771874997,
      "d": 62.49987499999406,
      "v": 53
    },
    {
      "midi": 45,
      "hit": false,
      "t": 99370.7689999997,
      "d": 708.6679374999803,
      "v": 31
    },
    {
      "midi": 67,
      "hit": false,
      "t": 99796.17137499969,
      "d": 131.04812500000116,
      "v": 50
    },
    {
      "midi": 59,
      "hit": false,
      "t": 99797.17943749968,
      "d": 187.49962499999674,
      "v": 56
    },
    {
      "midi": 62,
      "hit": false,
      "t": 99802.21974999968,
      "d": 216.7334375000064,
      "v": 61
    },
    {
      "midi": 65,
      "hit": false,
      "t": 99934.27593749968,
      "d": 64.51600000000326,
      "v": 17
    },
    {
      "midi": 49,
      "hit": false,
      "t": 100048.18699999969,
      "d": 74.59662499999104,
      "v": 42
    },
    {
      "midi": 56,
      "hit": false,
      "t": 100175.20287499968,
      "d": 185.48349999998754,
      "v": 37
    },
    {
      "midi": 66,
      "hit": false,
      "t": 100176.21093749968,
      "d": 192.5399374999979,
      "v": 44
    },
    {
      "midi": 51,
      "hit": false,
      "t": 100177.21899999968,
      "d": 263.10431249999965,
      "v": 45
    },
    {
      "midi": 61,
      "hit": false,
      "t": 100181.25124999968,
      "d": 184.47543749999022,
      "v": 50
    },
    {
      "midi": 67,
      "hit": false,
      "t": 100440.32331249968,
      "d": 366.9347500000149,
      "v": 55
    },
    {
      "midi": 57,
      "hit": false,
      "t": 100441.33137499967,
      "d": 115.92718750001222,
      "v": 59
    },
    {
      "midi": 62,
      "hit": false,
      "t": 100444.35556249968,
      "d": 381.0476250000065,
      "v": 57
    },
    {
      "midi": 52,
      "hit": false,
      "t": 100454.43618749968,
      "d": 1159.2718750000204,
      "v": 60
    },
    {
      "midi": 64,
      "hit": false,
      "t": 100982.66093749969,
      "d": 327.6203125000029,
      "v": 123
    },
    {
      "midi": 67,
      "hit": false,
      "t": 101363.7085624997,
      "d": 169.35450000000128,
      "v": 81
    },
    {
      "midi": 67,
      "hit": false,
      "t": 101587.4984374997,
      "d": 92.74175000000105,
      "v": 46
    },
    {
      "midi": 64,
      "hit": false,
      "t": 101710.48206249971,
      "d": 192.5399374999979,
      "v": 58
    },
    {
      "midi": 60,
      "hit": false,
      "t": 101995.7637499997,
      "d": 27.217687499985914,
      "v": 58
    },
    {
      "midi": 57,
      "hit": false,
      "t": 102012.9008124997,
      "d": 80.64500000000407,
      "v": 47
    },
    {
      "midi": 64,
      "hit": false,
      "t": 102014.9169374997,
      "d": 41.330562500006636,
      "v": 34
    },
    {
      "midi": 53,
      "hit": false,
      "t": 102032.0539999997,
      "d": 41.330562500006636,
      "v": 37
    },
    {
      "midi": 65,
      "hit": false,
      "t": 102137.90056249971,
      "d": 184.47543750000477,
      "v": 78
    },
    {
      "midi": 65,
      "hit": false,
      "t": 102396.97262499972,
      "d": 66.5321249999979,
      "v": 52
    },
    {
      "midi": 69,
      "hit": false,
      "t": 102517.94012499972,
      "d": 196.57218750000175,
      "v": 88
    },
    {
      "midi": 69,
      "hit": false,
      "t": 102790.11699999972,
      "d": 110.88687500001106,
      "v": 58
    },
    {
      "midi": 64,
      "hit": false,
      "t": 102819.35081249972,
      "d": 33.266062500013504,
      "v": 51
    },
    {
      "midi": 59,
      "hit": false,
      "t": 102822.37499999972,
      "d": 73.58856250000827,
      "v": 43
    },
    {
      "midi": 67,
      "hit": false,
      "t": 102944.35056249973,
      "d": 248.99143750000803,
      "v": 24
    },
    {
      "midi": 71,
      "hit": false,
      "t": 103173.18074999974,
      "d": 532.2570000000123,
      "v": 79
    },
    {
      "midi": 59,
      "hit": false,
      "t": 103184.26943749974,
      "d": 697.5792500000098,
      "v": 40
    },
    {
      "midi": 64,
      "hit": false,
      "t": 103187.29362499974,
      "d": 297.3784374999959,
      "v": 67
    },
    {
      "midi": 53,
      "hit": false,
      "t": 103193.34199999974,
      "d": 307.45906249999825,
      "v": 53
    },
    {
      "midi": 62,
      "hit": false,
      "t": 103673.17974999975,
      "d": 172.37868749999325,
      "v": 39
    },
    {
      "midi": 67,
      "hit": false,
      "t": 103688.30068749975,
      "d": 187.49962499999674,
      "v": 48
    },
    {
      "midi": 64,
      "hit": false,
      "t": 104468.54106249975,
      "d": 446.57168749999255,
      "v": 57
    },
    {
      "midi": 74,
      "hit": false,
      "t": 104469.54912499974,
      "d": 335.6848125000106,
      "v": 84
    },
    {
      "midi": 60,
      "hit": false,
      "t": 104472.57331249975,
      "d": 457.6603749999922,
      "v": 46
    },
    {
      "midi": 53,
      "hit": false,
      "t": 104484.67006249975,
      "d": 421.3701250000013,
      "v": 42
    },
    {
      "midi": 57,
      "hit": false,
      "t": 104498.78293749975,
      "d": 415.32174999998824,
      "v": 40
    },
    {
      "midi": 71,
      "hit": false,
      "t": 104871.76606249975,
      "d": 248.99143749999348,
      "v": 57
    },
    {
      "midi": 62,
      "hit": false,
      "t": 105141.92681249975,
      "d": 36.29025000000547,
      "v": 54
    },
    {
      "midi": 57,
      "hit": false,
      "t": 105150.99937499975,
      "d": 37.298312500002794,
      "v": 35
    },
    {
      "midi": 67,
      "hit": false,
      "t": 105150.99937499975,
      "d": 54.43537500000093,
      "v": 54
    },
    {
      "midi": 76,
      "hit": false,
      "t": 105659.06287499976,
      "d": 294.35425000000396,
      "v": 96
    },
    {
      "midi": 64,
      "hit": false,
      "t": 105659.06287499976,
      "d": 317.5396875000006,
      "v": 87
    },
    {
      "midi": 62,
      "hit": false,
      "t": 106028.01374999977,
      "d": 323.5880625000136,
      "v": 44
    },
    {
      "midi": 71,
      "hit": false,
      "t": 106040.11049999976,
      "d": 242.94306250000955,
      "v": 55
    },
    {
      "midi": 56,
      "hit": false,
      "t": 106076.40074999977,
      "d": 147.17712500000198,
      "v": 28
    },
    {
      "midi": 67,
      "hit": false,
      "t": 106292.12612499978,
      "d": 62.499875000008615,
      "v": 55
    },
    {
      "midi": 56,
      "hit": false,
      "t": 106308.25512499978,
      "d": 127.01587500001187,
      "v": 46
    },
    {
      "midi": 55,
      "hit": false,
      "t": 106798.17349999977,
      "d": 385.0798750000249,
      "v": 60
    },
    {
      "midi": 64,
      "hit": false,
      "t": 106800.18962499977,
      "d": 396.16856250002456,
      "v": 66
    },
    {
      "midi": 77,
      "hit": false,
      "t": 106801.19768749976,
      "d": 326.61225000002014,
      "v": 78
    },
    {
      "midi": 60,
      "hit": false,
      "t": 106806.23799999976,
      "d": 354.8380000000179,
      "v": 53
    },
    {
      "midi": 57,
      "hit": false,
      "t": 106820.35087499977,
      "d": 349.79768750001676,
      "v": 41
    },
    {
      "midi": 76,
      "hit": false,
      "t": 107179.22112499979,
      "d": 200.60443749999104,
      "v": 63
    },
    {
      "midi": 75,
      "hit": false,
      "t": 107446.35768749978,
      "d": 462.70068749999336,
      "v": 53
    },
    {
      "midi": 61,
      "hit": false,
      "t": 107464.50281249978,
      "d": 555.442437500009,
      "v": 32
    },
    {
      "midi": 55,
      "hit": false,
      "t": 107465.51087499977,
      "d": 642.1358125000115,
      "v": 43
    },
    {
      "midi": 65,
      "hit": false,
      "t": 107466.51893749977,
      "d": 497.98287500001607,
      "v": 49
    },
    {
      "midi": 60,
      "hit": false,
      "t": 107467.52699999977,
      "d": 504.03125000001455,
      "v": 38
    },
    {
      "midi": 76,
      "hit": false,
      "t": 107961.47762499978,
      "d": 240.92693750000035,
      "v": 43
    },
    {
      "midi": 67,
      "hit": false,
      "t": 108349.58168749978,
      "d": 307.4590624999837,
      "v": 41
    },
    {
      "midi": 55,
      "hit": false,
      "t": 108351.59781249978,
      "d": 367.9428124999831,
      "v": 32
    },
    {
      "midi": 60,
      "hit": false,
      "t": 108364.70262499977,
      "d": 867.9418124999793,
      "v": 30
    },
    {
      "midi": 67,
      "hit": false,
      "t": 108770.95181249976,
      "d": 166.33031249999476,
      "v": 51
    },
    {
      "midi": 55,
      "hit": false,
      "t": 108783.04856249975,
      "d": 441.53137500000594,
      "v": 17
    },
    {
      "midi": 66,
      "hit": false,
      "t": 109029.01581249975,
      "d": 68.5482500000071,
      "v": 52
    },
    {
      "midi": 67,
      "hit": false,
      "t": 109156.03168749977,
      "d": 269.1526874999836,
      "v": 47
    },
    {
      "midi": 69,
      "hit": false,
      "t": 109430.22468749975,
      "d": 154.2335624999978,
      "v": 64
    },
    {
      "midi": 70,
      "hit": false,
      "t": 109614.70012499976,
      "d": 156.24968750000698,
      "v": 54
    },
    {
      "midi": 72,
      "hit": false,
      "t": 109825.38518749976,
      "d": 170.3625624999986,
      "v": 63
    },
    {
      "midi": 61,
      "hit": false,
      "t": 109845.54643749977,
      "d": 575.6036875000136,
      "v": 33
    },
    {
      "midi": 56,
      "hit": false,
      "t": 109847.56256249976,
      "d": 575.6036875000136,
      "v": 28
    },
    {
      "midi": 65,
      "hit": false,
      "t": 109853.61093749976,
      "d": 526.2086250000139,
      "v": 42
    },
    {
      "midi": 55,
      "hit": false,
      "t": 109880.82862499976,
      "d": 504.03125000001455,
      "v": 24
    },
    {
      "midi": 61,
      "hit": false,
      "t": 110533.04506249978,
      "d": 556.4504999999772,
      "v": 45
    },
    {
      "midi": 65,
      "hit": false,
      "t": 110535.06118749977,
      "d": 510.0796249999985,
      "v": 57
    },
    {
      "midi": 56,
      "hit": false,
      "t": 110542.11762499977,
      "d": 539.3134374999936,
      "v": 36
    },
    {
      "midi": 55,
      "hit": false,
      "t": 110546.14987499977,
      "d": 533.2650624999951,
      "v": 39
    },
    {
      "midi": 65,
      "hit": false,
      "t": 111705.42174999975,
      "d": 363.9105624999793,
      "v": 71
    },
    {
      "midi": 60,
      "hit": false,
      "t": 111713.48624999974,
      "d": 350.805749999985,
      "v": 54
    },
    {
      "midi": 57,
      "hit": false,
      "t": 111722.55881249974,
      "d": 365.9266874999739,
      "v": 44
    },
    {
      "midi": 55,
      "hit": false,
      "t": 111723.56687499974,
      "d": 365.9266874999739,
      "v": 44
    },
    {
      "midi": 64,
      "hit": false,
      "t": 112211.46912499971,
      "d": 233.87050000000454,
      "v": 72
    },
    {
      "midi": 59,
      "hit": false,
      "t": 112216.50943749971,
      "d": 243.95112500000687,
      "v": 65
    },
    {
      "midi": 87,
      "hit": false,
      "t": 112217.51749999971,
      "d": 170.3625624999986,
      "v": 84
    },
    {
      "midi": 91,
      "hit": false,
      "t": 112221.54974999971,
      "d": 191.53187500000058,
      "v": 84
    },
    {
      "midi": 79,
      "hit": false,
      "t": 112221.54974999971,
      "d": 195.56412500000442,
      "v": 82
    },
    {
      "midi": 53,
      "hit": false,
      "t": 112221.54974999971,
      "d": 216.7334375000064,
      "v": 68
    },
    {
      "midi": 88,
      "hit": false,
      "t": 112368.72687499972,
      "d": 30.241874999992433,
      "v": 53
    },
    {
      "midi": 87,
      "hit": false,
      "t": 112586.46837499972,
      "d": 134.07231249999313,
      "v": 75
    },
    {
      "midi": 75,
      "hit": false,
      "t": 112588.48449999971,
      "d": 119.95943750000151,
      "v": 77
    },
    {
      "midi": 64,
      "hit": false,
      "t": 112599.57318749971,
      "d": 220.76568749998114,
      "v": 58
    },
    {
      "midi": 53,
      "hit": false,
      "t": 112600.58124999971,
      "d": 214.71731249998265,
      "v": 60
    },
    {
      "midi": 59,
      "hit": false,
      "t": 112606.62962499971,
      "d": 286.2897499999817,
      "v": 52
    },
    {
      "midi": 88,
      "hit": false,
      "t": 112659.04887499972,
      "d": 108.87074999998731,
      "v": 38
    },
    {
      "midi": 86,
      "hit": false,
      "t": 112703.40362499972,
      "d": 52.419249999991735,
      "v": 24
    },
    {
      "midi": 76,
      "hit": false,
      "t": 112709.45199999971,
      "d": 87.70143749998533,
      "v": 39
    },
    {
      "midi": 83,
      "hit": false,
      "t": 112726.58906249971,
      "d": 76.61274999998568,
      "v": 18
    },
    {
      "midi": 81,
      "hit": false,
      "t": 112744.73418749971,
      "d": 64.51599999998871,
      "v": 19
    },
    {
      "midi": 82,
      "hit": false,
      "t": 112988.68531249969,
      "d": 211.6931249999907,
      "v": 67
    },
    {
      "midi": 59,
      "hit": false,
      "t": 112989.69337499968,
      "d": 321.5719374999899,
      "v": 47
    },
    {
      "midi": 70,
      "hit": false,
      "t": 112993.72562499969,
      "d": 59.475687500002095,
      "v": 74
    },
    {
      "midi": 62,
      "hit": false,
      "t": 113002.79818749969,
      "d": 271.1688124999928,
      "v": 55
    },
    {
      "midi": 52,
      "hit": false,
      "t": 113026.99168749969,
      "d": 236.8946874999965,
      "v": 29
    },
    {
      "midi": 55,
      "hit": false,
      "t": 113026.99168749969,
      "d": 264.112374999997,
      "v": 35
    },
    {
      "midi": 83,
      "hit": false,
      "t": 113052.19324999969,
      "d": 108.87074999998731,
      "v": 29
    },
    {
      "midi": 71,
      "hit": false,
      "t": 113099.57218749968,
      "d": 160.28193749999627,
      "v": 14
    },
    {
      "midi": 76,
      "hit": false,
      "t": 113100.58024999968,
      "d": 132.0561874999985,
      "v": 26
    },
    {
      "midi": 79,
      "hit": false,
      "t": 113123.76568749968,
      "d": 71.57243749999907,
      "v": 13
    },
    {
      "midi": 79,
      "hit": false,
      "t": 113376.78937499967,
      "d": 206.65281249998952,
      "v": 61
    },
    {
      "midi": 62,
      "hit": false,
      "t": 113381.82968749967,
      "d": 317.53968749998603,
      "v": 37
    },
    {
      "midi": 59,
      "hit": false,
      "t": 113391.91031249968,
      "d": 163.30612499998824,
      "v": 28
    },
    {
      "midi": 67,
      "hit": false,
      "t": 113393.92643749967,
      "d": 221.77374999999302,
      "v": 56
    },
    {
      "midi": 74,
      "hit": false,
      "t": 113410.05543749967,
      "d": 158.26581249998708,
      "v": 39
    },
    {
      "midi": 55,
      "hit": false,
      "t": 113434.24893749967,
      "d": 651.2083749999874,
      "v": 15
    },
    {
      "midi": 59,
      "hit": false,
      "t": 113656.02268749966,
      "d": 167.33837500000664,
      "v": 31
    },
    {
      "midi": 66,
      "hit": false,
      "t": 113938.28018749967,
      "d": 48.387000000002445,
      "v": 36
    },
    {
      "midi": 59,
      "hit": false,
      "t": 113971.54624999966,
      "d": 90.72562499999185,
      "v": 29
    },
    {
      "midi": 67,
      "hit": false,
      "t": 113993.72362499966,
      "d": 68.54824999999255,
      "v": 49
    },
    {
      "midi": 66,
      "hit": false,
      "t": 114054.20737499966,
      "d": 76.61274999998568,
      "v": 40
    },
    {
      "midi": 64,
      "hit": false,
      "t": 114129.81206249965,
      "d": 51.41118749999441,
      "v": 41
    },
    {
      "midi": 66,
      "hit": false,
      "t": 114199.36837499964,
      "d": 70.56437500000175,
      "v": 37
    },
    {
      "midi": 67,
      "hit": false,
      "t": 114312.27137499965,
      "d": 58.46762500000477,
      "v": 36
    },
    {
      "midi": 69,
      "hit": false,
      "t": 114385.85993749966,
      "d": 74.59662500000559,
      "v": 58
    },
    {
      "midi": 70,
      "hit": false,
      "t": 114470.53718749966,
      "d": 64.51600000000326,
      "v": 60
    },
    {
      "midi": 72,
      "hit": false,
      "t": 114561.26281249967,
      "d": 46.37087499999325,
      "v": 60
    },
    {
      "midi": 73,
      "hit": false,
      "t": 114711.46412499966,
      "d": 65.52406250000058,
      "v": 48
    },
    {
      "midi": 75,
      "hit": false,
      "t": 114843.52031249966,
      "d": 64.51600000000326,
      "v": 65
    },
    {
      "midi": 66,
      "hit": false,
      "t": 114956.42331249967,
      "d": 78.62887499999488,
      "v": 34
    },
    {
      "midi": 62,
      "hit": false,
      "t": 114960.45556249967,
      "d": 103.83043749998615,
      "v": 30
    },
    {
      "midi": 76,
      "hit": false,
      "t": 114962.47168749967,
      "d": 49.39506249999977,
      "v": 57
    },
    {
      "midi": 78,
      "hit": false,
      "t": 115084.44724999966,
      "d": 63.50793750000594,
      "v": 56
    },
    {
      "midi": 79,
      "hit": false,
      "t": 115197.35024999967,
      "d": 68.54824999999255,
      "v": 57
    },
    {
      "midi": 66,
      "hit": false,
      "t": 115201.38249999967,
      "d": 33.26606249999895,
      "v": 28
    },
    {
      "midi": 62,
      "hit": false,
      "t": 115213.47924999967,
      "d": 40.32249999999476,
      "v": 32
    },
    {
      "midi": 81,
      "hit": false,
      "t": 115327.39031249966,
      "d": 59.475687500002095,
      "v": 60
    },
    {
      "midi": 82,
      "hit": false,
      "t": 115553.19631249965,
      "d": 73.58856250000827,
      "v": 68
    },
    {
      "midi": 66,
      "hit": false,
      "t": 115556.22049999966,
      "d": 32.25800000000163,
      "v": 46
    },
    {
      "midi": 61,
      "hit": false,
      "t": 115557.22856249966,
      "d": 62.499875000008615,
      "v": 47
    },
    {
      "midi": 66,
      "hit": false,
      "t": 115686.26056249966,
      "d": 60.483749999984866,
      "v": 39
    },
    {
      "midi": 61,
      "hit": false,
      "t": 115699.36537499966,
      "d": 82.66112499998417,
      "v": 39
    },
    {
      "midi": 84,
      "hit": false,
      "t": 115705.41374999966,
      "d": 69.55631249998987,
      "v": 55
    },
    {
      "midi": 55,
      "hit": false,
      "t": 115707.42987499965,
      "d": 35.2821874999936,
      "v": 26
    },
    {
      "midi": 61,
      "hit": false,
      "t": 115926.17943749964,
      "d": 352.8218750000233,
      "v": 39
    },
    {
      "midi": 66,
      "hit": false,
      "t": 115936.26006249964,
      "d": 27.217687500000466,
      "v": 25
    },
    {
      "midi": 85,
      "hit": false,
      "t": 115940.29231249965,
      "d": 96.77400000000489,
      "v": 69
    },
    {
      "midi": 54,
      "hit": false,
      "t": 116062.26787499966,
      "d": 191.53187500000058,
      "v": 42
    },
    {
      "midi": 64,
      "hit": false,
      "t": 116075.37268749965,
      "d": 162.29806250000547,
      "v": 41
    },
    {
      "midi": 86,
      "hit": false,
      "t": 116078.39687499966,
      "d": 165.32224999999744,
      "v": 53
    },
    {
      "midi": 88,
      "hit": false,
      "t": 116312.26737499966,
      "d": 82.66112499999872,
      "v": 74
    },
    {
      "midi": 61,
      "hit": false,
      "t": 116332.42862499967,
      "d": 302.41874999998254,
      "v": 35
    },
    {
      "midi": 64,
      "hit": false,
      "t": 116336.46087499967,
      "d": 50.40312499999709,
      "v": 39
    },
    {
      "midi": 54,
      "hit": false,
      "t": 116346.54149999967,
      "d": 282.2574999999779,
      "v": 32
    },
    {
      "midi": 64,
      "hit": false,
      "t": 116455.41224999966,
      "d": 123.9916874999908,
      "v": 36
    },
    {
      "midi": 85,
      "hit": false,
      "t": 116456.42031249966,
      "d": 187.49962499999674,
      "v": 64
    },
    {
      "midi": 81,
      "hit": false,
      "t": 116701.37949999965,
      "d": 92.7417499999865,
      "v": 61
    },
    {
      "midi": 61,
      "hit": false,
      "t": 116717.50849999965,
      "d": 89.71756249997998,
      "v": 31
    },
    {
      "midi": 54,
      "hit": false,
      "t": 116720.53268749965,
      "d": 220.76568749998114,
      "v": 31
    },
    {
      "midi": 64,
      "hit": false,
      "t": 116733.63749999965,
      "d": 35.2821874999936,
      "v": 30
    },
    {
      "midi": 78,
      "hit": false,
      "t": 116856.62112499963,
      "d": 69.55631250000442,
      "v": 44
    },
    {
      "midi": 61,
      "hit": false,
      "t": 116865.69368749963,
      "d": 55.443437499998254,
      "v": 19
    },
    {
      "midi": 74,
      "hit": false,
      "t": 117210.45106249963,
      "d": 244.9591875000042,
      "v": 65
    },
    {
      "midi": 50,
      "hit": false,
      "t": 117228.59618749963,
      "d": 30.241875000006985,
      "v": 29
    },
    {
      "midi": 71,
      "hit": false,
      "t": 117622.74862499963,
      "d": 325.6041874999937,
      "v": 54
    },
    {
      "midi": 68,
      "hit": false,
      "t": 117976.57856249962,
      "d": 262.0962499999878,
      "v": 54
    },
    {
      "midi": 59,
      "hit": false,
      "t": 117980.61081249962,
      "d": 229.83824999998615,
      "v": 32
    },
    {
      "midi": 76,
      "hit": false,
      "t": 117981.61887499962,
      "d": 364.9186249999766,
      "v": 58
    },
    {
      "midi": 63,
      "hit": false,
      "t": 118010.85268749962,
      "d": 248.99143749999348,
      "v": 25
    },
    {
      "midi": 68,
      "hit": false,
      "t": 118368.7148749996,
      "d": 217.74150000000373,
      "v": 46
    },
    {
      "midi": 58,
      "hit": false,
      "t": 118376.77937499959,
      "d": 206.65281250000407,
      "v": 47
    },
    {
      "midi": 75,
      "hit": false,
      "t": 118391.9003124996,
      "d": 425.4023750000197,
      "v": 52
    },
    {
      "midi": 64,
      "hit": false,
      "t": 118411.05349999959,
      "d": 205.6447500000213,
      "v": 24
    },
    {
      "midi": 58,
      "hit": false,
      "t": 118761.85924999962,
      "d": 60.48374999999942,
      "v": 25
    },
    {
      "midi": 70,
      "hit": false,
      "t": 118768.91568749961,
      "d": 134.07231250000768,
      "v": 36
    },
    {
      "midi": 66,
      "hit": false,
      "t": 119429.19662499963,
      "d": 57.4595624999929,
      "v": 59
    },
    {
      "midi": 74,
      "hit": false,
      "t": 119431.21274999963,
      "d": 74.59662499999104,
      "v": 57
    },
    {
      "midi": 69,
      "hit": false,
      "t": 119437.26112499963,
      "d": 57.4595624999929,
      "v": 54
    },
    {
      "midi": 62,
      "hit": false,
      "t": 119438.26918749962,
      "d": 61.49181249999674,
      "v": 63
    },
    {
      "midi": 60,
      "hit": false,
      "t": 119583.43018749962,
      "d": 83.66918749999604,
      "v": 52
    },
    {
      "midi": 74,
      "hit": false,
      "t": 119687.26062499962,
      "d": 102.82237499998882,
      "v": 62
    },
    {
      "midi": 66,
      "hit": false,
      "t": 119690.28481249961,
      "d": 77.62081249999756,
      "v": 60
    },
    {
      "midi": 62,
      "hit": false,
      "t": 119700.36543749961,
      "d": 141.12874999998894,
      "v": 57
    },
    {
      "midi": 78,
      "hit": false,
      "t": 120002.7841874996,
      "d": 175.40287499998522,
      "v": 64
    },
    {
      "midi": 68,
      "hit": false,
      "t": 120006.8164374996,
      "d": 140.12068749999162,
      "v": 75
    },
    {
      "midi": 65,
      "hit": false,
      "t": 120011.8567499996,
      "d": 153.2254999999859,
      "v": 79
    },
    {
      "midi": 71,
      "hit": false,
      "t": 120017.9051249996,
      "d": 147.17712499998743,
      "v": 64
    },
    {
      "midi": 74,
      "hit": false,
      "t": 120021.9373749996,
      "d": 136.08843749998778,
      "v": 60
    },
    {
      "midi": 74,
      "hit": false,
      "t": 120306.21099999957,
      "d": 90.7256250000064,
      "v": 55
    },
    {
      "midi": 68,
      "hit": false,
      "t": 120310.24324999958,
      "d": 70.56437500000175,
      "v": 62
    },
    {
      "midi": 65,
      "hit": false,
      "t": 120322.33999999957,
      "d": 29.233812500009662,
      "v": 57
    },
    {
      "midi": 62,
      "hit": false,
      "t": 120322.33999999957,
      "d": 73.58856250000827,
      "v": 59
    },
    {
      "midi": 73,
      "hit": false,
      "t": 120331.41256249958,
      "d": 31.249937500004307,
      "v": 28
    },
    {
      "midi": 67,
      "hit": false,
      "t": 120640.88774999959,
      "d": 115.92718749998312,
      "v": 72
    },
    {
      "midi": 69,
      "hit": false,
      "t": 120642.90387499958,
      "d": 116.935249999995,
      "v": 47
    },
    {
      "midi": 62,
      "hit": false,
      "t": 120650.96837499957,
      "d": 162.29806250000547,
      "v": 63
    },
    {
      "midi": 69,
      "hit": false,
      "t": 121068.30624999959,
      "d": 113.91106250001758,
      "v": 40
    },
    {
      "midi": 64,
      "hit": false,
      "t": 121072.33849999959,
      "d": 73.58856250000827,
      "v": 58
    },
    {
      "midi": 61,
      "hit": false,
      "t": 121077.37881249959,
      "d": 47.37893750000512,
      "v": 35
    },
    {
      "midi": 57,
      "hit": false,
      "t": 121087.4594374996,
      "d": 51.411187500008964,
      "v": 47
    },
    {
      "midi": 45,
      "hit": false,
      "t": 121333.42668749961,
      "d": 59.475687500002095,
      "v": 51
    },
    {
      "midi": 61,
      "hit": false,
      "t": 121618.7083749996,
      "d": 82.66112499999872,
      "v": 45
    },
    {
      "midi": 64,
      "hit": false,
      "t": 121625.76481249959,
      "d": 39.31443749999744,
      "v": 50
    },
    {
      "midi": 57,
      "hit": false,
      "t": 121648.95024999959,
      "d": 41.330562500006636,
      "v": 28
    },
    {
      "midi": 45,
      "hit": false,
      "t": 121841.4901874996,
      "d": 36.29025000000547,
      "v": 50
    },
    {
      "midi": 58,
      "hit": false,
      "t": 121956.4093124996,
      "d": 156.24968749999243,
      "v": 62
    },
    {
      "midi": 62,
      "hit": false,
      "t": 121959.4334999996,
      "d": 124.99974999998813,
      "v": 57
    },
    {
      "midi": 57,
      "hit": false,
      "t": 121966.4899374996,
      "d": 78.62887499999488,
      "v": 59
    },
    {
      "midi": 33,
      "hit": false,
      "t": 122193.3039999996,
      "d": 32.25800000000163,
      "v": 51
    },
    {
      "midi": 62,
      "hit": false,
      "t": 122515.88399999958,
      "d": 105.84656250002445,
      "v": 66
    },
    {
      "midi": 58,
      "hit": false,
      "t": 122516.89206249958,
      "d": 95.76593750002212,
      "v": 65
    },
    {
      "midi": 65,
      "hit": false,
      "t": 122521.93237499958,
      "d": 76.61275000001478,
      "v": 53
    },
    {
      "midi": 57,
      "hit": false,
      "t": 122524.95656249959,
      "d": 36.29025000000547,
      "v": 67
    },
    {
      "midi": 57,
      "hit": false,
      "t": 122902.9799999996,
      "d": 397.17662500000733,
      "v": 82
    },
    {
      "midi": 62,
      "hit": false,
      "t": 122903.9880624996,
      "d": 309.475187500022,
      "v": 82
    },
    {
      "midi": 69,
      "hit": false,
      "t": 122909.0283749996,
      "d": 183.46737500000745,
      "v": 80
    },
    {
      "midi": 58,
      "hit": false,
      "t": 122909.0283749996,
      "d": 290.32200000001467,
      "v": 83
    },
    {
      "midi": 65,
      "hit": false,
      "t": 122914.0686874996,
      "d": 323.5880625000136,
      "v": 66
    },
    {
      "midi": 68,
      "hit": false,
      "t": 123298.14049999962,
      "d": 157.25774999998976,
      "v": 72
    },
    {
      "midi": 58,
      "hit": false,
      "t": 123316.28562499961,
      "d": 100.80624999999418,
      "v": 65
    },
    {
      "midi": 56,
      "hit": false,
      "t": 123316.28562499961,
      "d": 139.1126249999943,
      "v": 60
    },
    {
      "midi": 62,
      "hit": false,
      "t": 123317.29368749961,
      "d": 302.4187499999971,
      "v": 57
    },
    {
      "midi": 65,
      "hit": false,
      "t": 123336.4468749996,
      "d": 44.3547499999986,
      "v": 35
    },
    {
      "midi": 55,
      "hit": false,
      "t": 123486.64818749961,
      "d": 247.98337499999616,
      "v": 42
    },
    {
      "midi": 67,
      "hit": false,
      "t": 123494.7126874996,
      "d": 80.64500000000407,
      "v": 29
    },
    {
      "midi": 66,
      "hit": false,
      "t": 123734.6315624996,
      "d": 105.8465625000099,
      "v": 51
    },
    {
      "midi": 58,
      "hit": false,
      "t": 123740.6799374996,
      "d": 103.83043750001525,
      "v": 52
    },
    {
      "midi": 54,
      "hit": false,
      "t": 123744.71218749961,
      "d": 116.93525000000955,
      "v": 53
    },
    {
      "midi": 61,
      "hit": false,
      "t": 123750.7605624996,
      "d": 98.79012500001409,
      "v": 49
    },
    {
      "midi": 62,
      "hit": false,
      "t": 123979.59074999962,
      "d": 120.96750000001339,
      "v": 38
    },
    {
      "midi": 57,
      "hit": false,
      "t": 123986.64718749962,
      "d": 40.322500000023865,
      "v": 26
    },
    {
      "midi": 52,
      "hit": false,
      "t": 123989.67137499963,
      "d": 339.7170624999999,
      "v": 32
    },
    {
      "midi": 59,
      "hit": false,
      "t": 123993.70362499963,
      "d": 158.26581250000163,
      "v": 24
    },
    {
      "midi": 64,
      "hit": false,
      "t": 123997.73587499963,
      "d": 219.75762499999837,
      "v": 59
    },
    {
      "midi": 55,
      "hit": false,
      "t": 124000.76006249964,
      "d": 42.33862500000396,
      "v": 22
    },
    {
      "midi": 55,
      "hit": false,
      "t": 124252.77568749963,
      "d": 120.96749999999884,
      "v": 32
    },
    {
      "midi": 64,
      "hit": false,
      "t": 124484.63006249962,
      "d": 691.5308750000113,
      "v": 62
    },
    {
      "midi": 55,
      "hit": false,
      "t": 124485.63812499962,
      "d": 489.9183750000084,
      "v": 56
    },
    {
      "midi": 58,
      "hit": false,
      "t": 124492.69456249962,
      "d": 619.9584375000122,
      "v": 53
    },
    {
      "midi": 61,
      "hit": false,
      "t": 124494.71068749961,
      "d": 574.5956250000163,
      "v": 52
    },
    {
      "midi": 52,
      "hit": false,
      "t": 124861.64543749962,
      "d": 28.225749999997788,
      "v": 58
    },
    {
      "midi": 45,
      "hit": false,
      "t": 124863.66156249962,
      "d": 74.59662500000559,
      "v": 68
    },
    {
      "midi": 38,
      "hit": false,
      "t": 125213.45924999964,
      "d": 344.75737500000105,
      "v": 54
    },
    {
      "midi": 26,
      "hit": false,
      "t": 125221.52374999963,
      "d": 546.3698750000185,
      "v": 46
    },
    {
      "midi": 28,
      "hit": false,
      "t": 125230.59631249963,
      "d": 110.88687499999651,
      "v": 48
    },
    {
      "midi": 38,
      "hit": false,
      "t": 125639.86968749964,
      "d": 182.45931250001013,
      "v": 32
    },
    {
      "midi": 62,
      "hit": false,
      "t": 125741.68399999964,
      "d": 266.12850000000617,
      "v": 90
    },
    {
      "midi": 61,
      "hit": false,
      "t": 126014.86893749965,
      "d": 84.67724999999336,
      "v": 42
    },
    {
      "midi": 62,
      "hit": false,
      "t": 126143.90093749964,
      "d": 255.03981250000652,
      "v": 38
    },
    {
      "midi": 62,
      "hit": false,
      "t": 126515.87599999964,
      "d": 259.0720624999958,
      "v": 74
    },
    {
      "midi": 61,
      "hit": false,
      "t": 126776.96418749963,
      "d": 75.60468750000291,
      "v": 39
    },
    {
      "midi": 62,
      "hit": false,
      "t": 126880.79462499963,
      "d": 309.4751874999929,
      "v": 36
    },
    {
      "midi": 63,
      "hit": false,
      "t": 127266.88256249962,
      "d": 261.088187500005,
      "v": 62
    },
    {
      "midi": 62,
      "hit": false,
      "t": 127559.22068749963,
      "d": 101.8143124999915,
      "v": 36
    },
    {
      "midi": 58,
      "hit": false,
      "t": 127567.28518749963,
      "d": 46.37087499999325,
      "v": 26
    },
    {
      "midi": 63,
      "hit": false,
      "t": 127668.09143749962,
      "d": 229.8382500000007,
      "v": 59
    },
    {
      "midi": 62,
      "hit": false,
      "t": 127934.21993749963,
      "d": 33.266062500013504,
      "v": 51
    },
    {
      "midi": 65,
      "hit": false,
      "t": 127939.26024999963,
      "d": 86.69337500001711,
      "v": 51
    },
    {
      "midi": 58,
      "hit": false,
      "t": 127964.46181249963,
      "d": 121.97556250001071,
      "v": 29
    },
    {
      "midi": 67,
      "hit": false,
      "t": 128070.30837499964,
      "d": 186.49156249999942,
      "v": 37
    },
    {
      "midi": 70,
      "hit": false,
      "t": 128321.31593749965,
      "d": 327.6203125000029,
      "v": 59
    },
    {
      "midi": 72,
      "hit": false,
      "t": 128682.20231249965,
      "d": 81.65306249998685,
      "v": 54
    },
    {
      "midi": 65,
      "hit": false,
      "t": 128700.34743749964,
      "d": 31.249937499989755,
      "v": 51
    },
    {
      "midi": 58,
      "hit": false,
      "t": 128722.52481249964,
      "d": 118.95137500000419,
      "v": 25
    },
    {
      "midi": 60,
      "hit": false,
      "t": 128724.54093749964,
      "d": 43.34668750000128,
      "v": 34
    },
    {
      "midi": 74,
      "hit": false,
      "t": 128794.09724999964,
      "d": 76.61275000000023,
      "v": 48
    },
    {
      "midi": 77,
      "hit": false,
      "t": 128933.20987499964,
      "d": 105.84656249999534,
      "v": 55
    },
    {
      "midi": 79,
      "hit": false,
      "t": 129033.00806249963,
      "d": 113.91106250000303,
      "v": 53
    },
    {
      "midi": 82,
      "hit": false,
      "t": 129152.96749999964,
      "d": 99.79818749999686,
      "v": 59
    },
    {
      "midi": 86,
      "hit": false,
      "t": 129258.81406249963,
      "d": 127.01587499999732,
      "v": 76
    },
    {
      "midi": 62,
      "hit": false,
      "t": 129384.82187499963,
      "d": 29.23381249999511,
      "v": 25
    },
    {
      "midi": 82,
      "hit": false,
      "t": 129385.82993749963,
      "d": 79.6369374999922,
      "v": 55
    },
    {
      "midi": 65,
      "hit": false,
      "t": 130008.81256249962,
      "d": 74.59662499997648,
      "v": 56
    },
    {
      "midi": 62,
      "hit": false,
      "t": 130020.90931249961,
      "d": 91.73368749997462,
      "v": 50
    },
    {
      "midi": 60,
      "hit": false,
      "t": 130022.92543749961,
      "d": 84.67724999997881,
      "v": 37
    },
    {
      "midi": 55,
      "hit": false,
      "t": 130047.1189374996,
      "d": 68.54824999999255,
      "v": 31
    },
    {
      "midi": 58,
      "hit": false,
      "t": 130049.1350624996,
      "d": 112.90299999999115,
      "v": 25
    },
    {
      "midi": 62,
      "hit": false,
      "t": 130385.82793749959,
      "d": 55.443437499998254,
      "v": 43
    },
    {
      "midi": 65,
      "hit": false,
      "t": 130388.8521249996,
      "d": 37.298312500002794,
      "v": 56
    },
    {
      "midi": 60,
      "hit": false,
      "t": 130398.9327499996,
      "d": 34.274124999996275,
      "v": 38
    },
    {
      "midi": 62,
      "hit": false,
      "t": 130785.0206874996,
      "d": 301.4106875000143,
      "v": 47
    },
    {
      "midi": 58,
      "hit": false,
      "t": 130795.1013124996,
      "d": 400.20081250001385,
      "v": 37
    },
    {
      "midi": 51,
      "hit": false,
      "t": 130805.1819374996,
      "d": 280.2413749999978,
      "v": 27
    },
    {
      "midi": 55,
      "hit": false,
      "t": 130817.2786874996,
      "d": 419.35400000000664,
      "v": 37
    },
    {
      "midi": 85,
      "hit": false,
      "t": 131054.17337499959,
      "d": 135.080375000005,
      "v": 67
    },
    {
      "midi": 73,
      "hit": false,
      "t": 131054.17337499959,
      "d": 140.12068750000617,
      "v": 68
    },
    {
      "midi": 74,
      "hit": false,
      "t": 131199.3343749996,
      "d": 72.58050000001094,
      "v": 58
    },
    {
      "midi": 86,
      "hit": false,
      "t": 131297.11643749962,
      "d": 47.37893750000512,
      "v": 24
    },
    {
      "midi": 82,
      "hit": false,
      "t": 131311.2293124996,
      "d": 117.94331250002142,
      "v": 40
    },
    {
      "midi": 74,
      "hit": false,
      "t": 131414.05168749962,
      "d": 71.57243749999907,
      "v": 58
    },
    {
      "midi": 86,
      "hit": false,
      "t": 131429.17262499963,
      "d": 48.38699999998789,
      "v": 31
    },
    {
      "midi": 62,
      "hit": false,
      "t": 131514.85793749962,
      "d": 32.25800000000163,
      "v": 36
    },
    {
      "midi": 58,
      "hit": false,
      "t": 131524.93856249962,
      "d": 97.78206250001676,
      "v": 29
    },
    {
      "midi": 55,
      "hit": false,
      "t": 131541.0675624996,
      "d": 254.03175000002375,
      "v": 37
    },
    {
      "midi": 82,
      "hit": false,
      "t": 131582.39812499963,
      "d": 159.2738750000135,
      "v": 27
    },
    {
      "midi": 70,
      "hit": false,
      "t": 131582.39812499963,
      "d": 178.4270625000063,
      "v": 54
    },
    {
      "midi": 79,
      "hit": false,
      "t": 131865.66368749962,
      "d": 38.306374999985565,
      "v": 24
    },
    {
      "midi": 78,
      "hit": false,
      "t": 131881.7926874996,
      "d": 36.29024999999092,
      "v": 19
    },
    {
      "midi": 62,
      "hit": false,
      "t": 132235.62262499958,
      "d": 34.274124999996275,
      "v": 43
    },
    {
      "midi": 58,
      "hit": false,
      "t": 132237.63874999958,
      "d": 83.66918749999604,
      "v": 35
    },
    {
      "midi": 55,
      "hit": false,
      "t": 132249.73549999957,
      "d": 41.330562499992084,
      "v": 37
    },
    {
      "midi": 51,
      "hit": false,
      "t": 132601.54931249958,
      "d": 70.5643750000163,
      "v": 45
    },
    {
      "midi": 58,
      "hit": false,
      "t": 132611.6299374996,
      "d": 85.68531250001979,
      "v": 46
    },
    {
      "midi": 54,
      "hit": false,
      "t": 132996.70981249958,
      "d": 2553.4223124999844,
      "v": 42
    },
    {
      "midi": 64,
      "hit": false,
      "t": 133001.75012499958,
      "d": 1729.8352500000037,
      "v": 56
    },
    {
      "midi": 59,
      "hit": false,
      "t": 133007.7984999996,
      "d": 2030.2378749999625,
      "v": 53
    },
    {
      "midi": 86,
      "hit": false,
      "t": 133491.6684999996,
      "d": 119.95943749998696,
      "v": 94
    },
    {
      "midi": 82,
      "hit": false,
      "t": 133747.71637499958,
      "d": 118.95137500000419,
      "v": 75
    },
    {
      "midi": 83,
      "hit": false,
      "t": 133953.3611249996,
      "d": 89.71756250000908,
      "v": 62
    },
    {
      "midi": 78,
      "hit": false,
      "t": 134159.0058749996,
      "d": 75.60468749998836,
      "v": 54
    },
    {
      "midi": 76,
      "hit": false,
      "t": 134336.4248749996,
      "d": 158.26581250000163,
      "v": 39
    },
    {
      "midi": 71,
      "hit": false,
      "t": 134544.0857499996,
      "d": 72.58050000001094,
      "v": 54
    },
    {
      "midi": 66,
      "hit": false,
      "t": 134693.2789999996,
      "d": 164.31418749998556,
      "v": 37
    },
    {
      "midi": 66,
      "hit": false,
      "t": 134921.10112499958,
      "d": 114.9191249999858,
      "v": 57
    },
    {
      "midi": 64,
      "hit": false,
      "t": 135036.02024999956,
      "d": 172.37868749999325,
      "v": 38
    },
    {
      "midi": 64,
      "hit": false,
      "t": 135310.21324999956,
      "d": 75.60468750001746,
      "v": 36
    },
    {
      "midi": 59,
      "hit": false,
      "t": 135338.43899999958,
      "d": 158.26581250000163,
      "v": 22
    },
    {
      "midi": 66,
      "hit": false,
      "t": 135435.21299999958,
      "d": 364.91862499999115,
      "v": 63
    },
    {
      "midi": 59,
      "hit": false,
      "t": 135699.32537499958,
      "d": 52.419250000006286,
      "v": 41
    },
    {
      "midi": 54,
      "hit": false,
      "t": 135736.62368749958,
      "d": 80.64499999998952,
      "v": 23
    },
    {
      "midi": 62,
      "hit": false,
      "t": 135825.33318749958,
      "d": 170.3625624999986,
      "v": 51
    },
    {
      "midi": 66,
      "hit": false,
      "t": 136084.40524999957,
      "d": 79.63693750000675,
      "v": 45
    },
    {
      "midi": 62,
      "hit": false,
      "t": 136212.4291874996,
      "d": 246.97531250002794,
      "v": 63
    },
    {
      "midi": 67,
      "hit": false,
      "t": 136215.4533749996,
      "d": 211.6931249999907,
      "v": 56
    },
    {
      "midi": 59,
      "hit": false,
      "t": 136218.4775624996,
      "d": 228.83018749998882,
      "v": 52
    },
    {
      "midi": 55,
      "hit": false,
      "t": 136223.5178749996,
      "d": 224.79793749999953,
      "v": 57
    },
    {
      "midi": 54,
      "hit": false,
      "t": 136478.55768749962,
      "d": 105.84656249999534,
      "v": 32
    },
    {
      "midi": 55,
      "hit": false,
      "t": 136590.45262499963,
      "d": 105.84656250002445,
      "v": 54
    },
    {
      "midi": 67,
      "hit": false,
      "t": 136600.53324999963,
      "d": 33.266062500013504,
      "v": 31
    },
    {
      "midi": 59,
      "hit": false,
      "t": 136600.53324999963,
      "d": 87.70143750001444,
      "v": 44
    },
    {
      "midi": 62,
      "hit": false,
      "t": 136601.54131249964,
      "d": 47.37893750000512,
      "v": 42
    },
    {
      "midi": 71,
      "hit": false,
      "t": 136877.75043749966,
      "d": 347.781562499993,
      "v": 59
    },
    {
      "midi": 61,
      "hit": false,
      "t": 136878.75849999968,
      "d": 344.7573749999865,
      "v": 69
    },
    {
      "midi": 59,
      "hit": false,
      "t": 136880.77462499967,
      "d": 349.79768749998766,
      "v": 63
    },
    {
      "midi": 64,
      "hit": false,
      "t": 136884.80687499966,
      "d": 351.8138125000114,
      "v": 73
    },
    {
      "midi": 67,
      "hit": false,
      "t": 136897.91168749967,
      "d": 328.62837500000023,
      "v": 50
    },
    {
      "midi": 56,
      "hit": false,
      "t": 137265.85449999967,
      "d": 131.04812500000116,
      "v": 21
    },
    {
      "midi": 59,
      "hit": false,
      "t": 137376.74137499966,
      "d": 103.8304375000298,
      "v": 54
    },
    {
      "midi": 61,
      "hit": false,
      "t": 137379.76556249967,
      "d": 60.48375000001397,
      "v": 47
    },
    {
      "midi": 64,
      "hit": false,
      "t": 137381.78168749966,
      "d": 73.58856250002282,
      "v": 61
    },
    {
      "midi": 71,
      "hit": false,
      "t": 137397.91068749968,
      "d": 84.67725000000792,
      "v": 41
    },
    {
      "midi": 67,
      "hit": false,
      "t": 137417.06387499967,
      "d": 33.266062500013504,
      "v": 26
    },
    {
      "midi": 76,
      "hit": false,
      "t": 137649.92631249968,
      "d": 370.9670000000042,
      "v": 73
    },
    {
      "midi": 65,
      "hit": false,
      "t": 137655.9746874997,
      "d": 334.67674999998417,
      "v": 78
    },
    {
      "midi": 69,
      "hit": false,
      "t": 137662.0230624997,
      "d": 348.7896249999758,
      "v": 69
    },
    {
      "midi": 64,
      "hit": false,
      "t": 137662.0230624997,
      "d": 353.82993749997695,
      "v": 77
    },
    {
      "midi": 72,
      "hit": false,
      "t": 137666.0553124997,
      "d": 350.80574999999953,
      "v": 61
    },
    {
      "midi": 63,
      "hit": false,
      "t": 138031.9819999997,
      "d": 123.99168750000536,
      "v": 38
    },
    {
      "midi": 69,
      "hit": false,
      "t": 138145.8930624997,
      "d": 94.75787500001024,
      "v": 57
    },
    {
      "midi": 76,
      "hit": false,
      "t": 138161.0139999997,
      "d": 142.13681250001537,
      "v": 45
    },
    {
      "midi": 65,
      "hit": false,
      "t": 138164.0381874997,
      "d": 38.30637500001467,
      "v": 48
    },
    {
      "midi": 64,
      "hit": false,
      "t": 138164.0381874997,
      "d": 144.15293750001,
      "v": 61
    },
    {
      "midi": 72,
      "hit": false,
      "t": 138169.0784999997,
      "d": 64.51600000000326,
      "v": 39
    },
    {
      "midi": 79,
      "hit": false,
      "t": 138423.1102499997,
      "d": 354.83800000004703,
      "v": 70
    },
    {
      "midi": 75,
      "hit": false,
      "t": 138424.11831249972,
      "d": 90.72562500002095,
      "v": 67
    },
    {
      "midi": 64,
      "hit": false,
      "t": 138424.11831249972,
      "d": 378.0234375000291,
      "v": 57
    },
    {
      "midi": 59,
      "hit": false,
      "t": 138426.1344374997,
      "d": 285.2816875000426,
      "v": 51
    },
    {
      "midi": 67,
      "hit": false,
      "t": 138427.14249999973,
      "d": 302.41875000004075,
      "v": 64
    },
    {
      "midi": 53,
      "hit": false,
      "t": 138435.20699999973,
      "d": 272.17687500003376,
      "v": 50
    },
    {
      "midi": 76,
      "hit": false,
      "t": 138520.89231249975,
      "d": 291.33006249999744,
      "v": 37
    },
    {
      "midi": 59,
      "hit": false,
      "t": 138807.18206249975,
      "d": 238.91081250004936,
      "v": 40
    },
    {
      "midi": 53,
      "hit": false,
      "t": 138932.18181249977,
      "d": 116.93525000003865,
      "v": 33
    },
    {
      "midi": 64,
      "hit": false,
      "t": 138933.18987499978,
      "d": 104.83850000001257,
      "v": 53
    },
    {
      "midi": 80,
      "hit": false,
      "t": 138935.20599999977,
      "d": 197.58024999999907,
      "v": 64
    },
    {
      "midi": 68,
      "hit": false,
      "t": 138941.2543749998,
      "d": 178.4270625000063,
      "v": 69
    },
    {
      "midi": 75,
      "hit": false,
      "t": 138956.3753124998,
      "d": 167.33837499999208,
      "v": 51
    },
    {
      "midi": 81,
      "hit": false,
      "t": 139197.30224999978,
      "d": 102.82237499998882,
      "v": 64
    },
    {
      "midi": 64,
      "hit": false,
      "t": 139202.34256249978,
      "d": 99.7981874999823,
      "v": 61
    },
    {
      "midi": 69,
      "hit": false,
      "t": 139206.37481249977,
      "d": 53.42731249998906,
      "v": 58
    },
    {
      "midi": 57,
      "hit": false,
      "t": 139210.40706249975,
      "d": 116.93525000000955,
      "v": 57
    },
    {
      "midi": 76,
      "hit": false,
      "t": 139211.41512499977,
      "d": 80.64499999998952,
      "v": 60
    },
    {
      "midi": 60,
      "hit": false,
      "t": 139212.42318749978,
      "d": 107.86268749998999,
      "v": 49
    },
    {
      "midi": 53,
      "hit": false,
      "t": 139214.43931249977,
      "d": 87.70143749998533,
      "v": 40
    },
    {
      "midi": 71,
      "hit": false,
      "t": 139228.55218749976,
      "d": 32.25800000000163,
      "v": 40
    },
    {
      "midi": 84,
      "hit": false,
      "t": 139403.95506249976,
      "d": 166.3303124999802,
      "v": 71
    },
    {
      "midi": 64,
      "hit": false,
      "t": 139407.98731249975,
      "d": 148.1851874999993,
      "v": 52
    },
    {
      "midi": 72,
      "hit": false,
      "t": 139411.01149999976,
      "d": 100.80624999999418,
      "v": 63
    },
    {
      "midi": 79,
      "hit": false,
      "t": 139411.01149999976,
      "d": 144.1529374999809,
      "v": 61
    },
    {
      "midi": 53,
      "hit": false,
      "t": 139411.01149999976,
      "d": 154.23356249998324,
      "v": 44
    },
    {
      "midi": 57,
      "hit": false,
      "t": 139411.01149999976,
      "d": 168.34643749997485,
      "v": 49
    },
    {
      "midi": 60,
      "hit": false,
      "t": 139413.02762499976,
      "d": 172.37868749999325,
      "v": 51
    },
    {
      "midi": 53,
      "hit": false,
      "t": 139703.34962499974,
      "d": 129.03200000003562,
      "v": 53
    },
    {
      "midi": 76,
      "hit": false,
      "t": 139708.38993749974,
      "d": 86.69337500003166,
      "v": 63
    },
    {
      "midi": 64,
      "hit": false,
      "t": 139709.39799999975,
      "d": 78.62887500002398,
      "v": 57
    },
    {
      "midi": 60,
      "hit": false,
      "t": 139710.40606249977,
      "d": 81.6530625000014,
      "v": 49
    },
    {
      "midi": 88,
      "hit": false,
      "t": 139711.41412499978,
      "d": 126.0078125,
      "v": 65
    },
    {
      "midi": 83,
      "hit": false,
      "t": 139714.43831249978,
      "d": 95.76593749999302,
      "v": 60
    },
    {
      "midi": 57,
      "hit": false,
      "t": 139718.47056249977,
      "d": 124.99975000001723,
      "v": 60
    },
    {
      "midi": 93,
      "hit": false,
      "t": 139978.55068749978,
      "d": 158.26581250000163,
      "v": 82
    },
    {
      "midi": 87,
      "hit": false,
      "t": 139986.6151874998,
      "d": 112.90300000002026,
      "v": 78
    },
    {
      "midi": 81,
      "hit": false,
      "t": 139987.6232499998,
      "d": 143.14487499999814,
      "v": 73
    },
    {
      "midi": 59,
      "hit": false,
      "t": 139989.6393749998,
      "d": 180.44318750000093,
      "v": 71
    },
    {
      "midi": 53,
      "hit": false,
      "t": 139992.6635624998,
      "d": 131.04812500000116,
      "v": 77
    },
    {
      "midi": 64,
      "hit": false,
      "t": 139995.6877499998,
      "d": 127.01587499998277,
      "v": 80
    },
    {
      "midi": 88,
      "hit": false,
      "t": 140115.6471874998,
      "d": 34.274124999996275,
      "v": 46
    },
    {
      "midi": 90,
      "hit": false,
      "t": 140126.7358749998,
      "d": 29.23381249999511,
      "v": 30
    },
    {
      "midi": 92,
      "hit": false,
      "t": 140248.7114374998,
      "d": 166.3303125000093,
      "v": 71
    },
    {
      "midi": 87,
      "hit": false,
      "t": 140256.7759374998,
      "d": 159.2738750000135,
      "v": 68
    },
    {
      "midi": 59,
      "hit": false,
      "t": 140256.7759374998,
      "d": 167.3383750000212,
      "v": 44
    },
    {
      "midi": 80,
      "hit": false,
      "t": 140257.7839999998,
      "d": 164.31418750001467,
      "v": 51
    },
    {
      "midi": 53,
      "hit": false,
      "t": 140259.8001249998,
      "d": 126.0078125,
      "v": 62
    },
    {
      "midi": 64,
      "hit": false,
      "t": 140266.8565624998,
      "d": 90.72562499999185,
      "v": 64
    },
    {
      "midi": 53,
      "hit": false,
      "t": 140490.64643749982,
      "d": 132.05618750004214,
      "v": 55
    },
    {
      "midi": 59,
      "hit": false,
      "t": 140507.78349999982,
      "d": 137.0965000000433,
      "v": 59
    },
    {
      "midi": 64,
      "hit": false,
      "t": 140508.79156249983,
      "d": 101.81431250003516,
      "v": 61
    },
    {
      "midi": 86,
      "hit": false,
      "t": 140517.86412499985,
      "d": 77.62081250001211,
      "v": 63
    },
    {
      "midi": 91,
      "hit": false,
      "t": 140517.86412499985,
      "d": 80.64500000001863,
      "v": 50
    },
    {
      "midi": 79,
      "hit": false,
      "t": 140524.92056249984,
      "d": 113.91106250000303,
      "v": 52
    },
    {
      "midi": 90,
      "hit": false,
      "t": 140529.96087499984,
      "d": 28.22575000001234,
      "v": 30
    },
    {
      "midi": 88,
      "hit": false,
      "t": 140763.83137499986,
      "d": 91.73368750000373,
      "v": 69
    },
    {
      "midi": 62,
      "hit": false,
      "t": 140765.84749999986,
      "d": 103.8304375000007,
      "v": 63
    },
    {
      "midi": 76,
      "hit": false,
      "t": 140775.92812499986,
      "d": 75.60468750001746,
      "v": 58
    },
    {
      "midi": 83,
      "hit": false,
      "t": 140776.93618749987,
      "d": 63.507937499991385,
      "v": 60
    },
    {
      "midi": 52,
      "hit": false,
      "t": 140785.00068749988,
      "d": 94.75787499998114,
      "v": 31
    },
    {
      "midi": 59,
      "hit": false,
      "t": 140788.0248749999,
      "d": 82.66112499998417,
      "v": 41
    },
    {
      "midi": 55,
      "hit": false,
      "t": 140794.07324999987,
      "d": 89.71756249997998,
      "v": 46
    },
    {
      "midi": 83,
      "hit": false,
      "t": 141015.84699999983,
      "d": 143.14487499999814,
      "v": 49
    },
    {
      "midi": 62,
      "hit": false,
      "t": 141023.91149999984,
      "d": 91.73368750000373,
      "v": 43
    },
    {
      "midi": 71,
      "hit": false,
      "t": 141031.97599999985,
      "d": 108.87075000000186,
      "v": 43
    },
    {
      "midi": 52,
      "hit": false,
      "t": 141048.10499999984,
      "d": 277.2171874999476,
      "v": 22
    },
    {
      "midi": 76,
      "hit": false,
      "t": 141049.11306249985,
      "d": 107.86268749998999,
      "v": 43
    },
    {
      "midi": 59,
      "hit": false,
      "t": 141052.13724999985,
      "d": 85.68531249999069,
      "v": 27
    },
    {
      "midi": 55,
      "hit": false,
      "t": 141064.23399999985,
      "d": 60.483749999984866,
      "v": 25
    },
    {
      "midi": 62,
      "hit": false,
      "t": 141268.87068749982,
      "d": 118.95137499997509,
      "v": 46
    },
    {
      "midi": 59,
      "hit": false,
      "t": 141272.9029374998,
      "d": 80.64499999998952,
      "v": 35
    },
    {
      "midi": 79,
      "hit": false,
      "t": 141272.9029374998,
      "d": 98.79012499999953,
      "v": 32
    },
    {
      "midi": 67,
      "hit": false,
      "t": 141303.14481249978,
      "d": 68.54825000002165,
      "v": 18
    },
    {
      "midi": 81,
      "hit": false,
      "t": 141524.91856249978,
      "d": 725.804999999993,
      "v": 66
    },
    {
      "midi": 64,
      "hit": false,
      "t": 141531.97499999977,
      "d": 565.5230624999967,
      "v": 39
    },
    {
      "midi": 69,
      "hit": false,
      "t": 141537.01531249977,
      "d": 660.280937500007,
      "v": 40
    },
    {
      "midi": 57,
      "hit": false,
      "t": 141550.12012499978,
      "d": 444.5555624999979,
      "v": 53
    },
    {
      "midi": 60,
      "hit": false,
      "t": 141550.12012499978,
      "d": 451.6119999999937,
      "v": 43
    },
    {
      "midi": 53,
      "hit": false,
      "t": 141558.1846249998,
      "d": 434.4749374999956,
      "v": 17
    },
    {
      "midi": 57,
      "hit": false,
      "t": 142400.9248749998,
      "d": 532.2569999999541,
      "v": 36
    },
    {
      "midi": 65,
      "hit": false,
      "t": 142404.95712499978,
      "d": 466.7329374999972,
      "v": 30
    },
    {
      "midi": 62,
      "hit": false,
      "t": 142407.9813124998,
      "d": 511.0876874999667,
      "v": 30
    },
    {
      "midi": 74,
      "hit": false,
      "t": 142411.0054999998,
      "d": 62.499875000008615,
      "v": 64
    },
    {
      "midi": 76,
      "hit": false,
      "t": 142463.4247499998,
      "d": 118.95137500000419,
      "v": 62
    },
    {
      "midi": 74,
      "hit": false,
      "t": 142549.1100624998,
      "d": 101.81431250000605,
      "v": 40
    },
    {
      "midi": 73,
      "hit": false,
      "t": 142683.1823749998,
      "d": 38.306374999985565,
      "v": 25
    },
    {
      "midi": 74,
      "hit": false,
      "t": 142822.29499999978,
      "d": 92.7417499999865,
      "v": 81
    },
    {
      "midi": 77,
      "hit": false,
      "t": 143063.22193749974,
      "d": 118.95137500000419,
      "v": 78
    },
    {
      "midi": 67,
      "hit": false,
      "t": 143076.32674999975,
      "d": 372.98312499996973,
      "v": 60
    },
    {
      "midi": 62,
      "hit": false,
      "t": 143076.32674999975,
      "d": 581.6520624999539,
      "v": 64
    },
    {
      "midi": 56,
      "hit": false,
      "t": 143076.32674999975,
      "d": 747.9823749999632,
      "v": 55
    },
    {
      "midi": 76,
      "hit": false,
      "t": 143267.85862499973,
      "d": 102.82237499998882,
      "v": 53
    },
    {
      "midi": 74,
      "hit": false,
      "t": 143466.4469374997,
      "d": 103.8304375000007,
      "v": 68
    },
    {
      "midi": 72,
      "hit": false,
      "t": 143623.7046874997,
      "d": 123.99168750000536,
      "v": 30
    },
    {
      "midi": 71,
      "hit": false,
      "t": 143827.33331249972,
      "d": 108.87075000000186,
      "v": 60
    },
    {
      "midi": 64,
      "hit": false,
      "t": 143958.38143749972,
      "d": 378.0234375,
      "v": 24
    },
    {
      "midi": 57,
      "hit": false,
      "t": 143962.4136874997,
      "d": 462.7006875000079,
      "v": 32
    },
    {
      "midi": 60,
      "hit": false,
      "t": 143969.4701249997,
      "d": 439.51525000002584,
      "v": 35
    },
    {
      "midi": 68,
      "hit": false,
      "t": 143992.6555624997,
      "d": 170.3625624999986,
      "v": 40
    },
    {
      "midi": 71,
      "hit": false,
      "t": 144227.5341249997,
      "d": 106.85462500000722,
      "v": 55
    },
    {
      "midi": 69,
      "hit": false,
      "t": 144380.75962499972,
      "d": 168.34643750000396,
      "v": 55
    },
    {
      "midi": 64,
      "hit": false,
      "t": 144595.4769374997,
      "d": 96.77400000000489,
      "v": 62
    },
    {
      "midi": 55,
      "hit": false,
      "t": 144620.67849999972,
      "d": 67.54018750000978,
      "v": 55
    },
    {
      "midi": 62,
      "hit": false,
      "t": 144824.30712499973,
      "d": 193.54799999998068,
      "v": 8
    },
    {
      "midi": 61,
      "hit": false,
      "t": 145115.6371874997,
      "d": 302.41874999998254,
      "v": 49
    },
    {
      "midi": 62,
      "hit": false,
      "t": 145479.54774999968,
      "d": 202.62056250000023,
      "v": 55
    },
    {
      "midi": 55,
      "hit": false,
      "t": 145494.66868749968,
      "d": 163.3061250000028,
      "v": 36
    },
    {
      "midi": 55,
      "hit": false,
      "t": 145757.77299999967,
      "d": 432.45881250000093,
      "v": 64
    },
    {
      "midi": 43,
      "hit": false,
      "t": 145782.97456249967,
      "d": 631.0471250000119,
      "v": 46
    },
    {
      "midi": 50,
      "hit": false,
      "t": 146167.04637499966,
      "d": 90.72562500002095,
      "v": 34
    },
    {
      "midi": 55,
      "hit": false,
      "t": 146270.8768124997,
      "d": 301.41068749999977,
      "v": 48
    },
    {
      "midi": 43,
      "hit": false,
      "t": 146643.85993749968,
      "d": 313.50743749999674,
      "v": 31
    },
    {
      "midi": 57,
      "hit": false,
      "t": 146660.99699999968,
      "d": 579.6359374999884,
      "v": 50
    },
    {
      "midi": 55,
      "hit": false,
      "t": 146937.20612499968,
      "d": 30.241875000006985,
      "v": 45
    },
    {
      "midi": 58,
      "hit": false,
      "t": 147280.95543749968,
      "d": 237.90275000000838,
      "v": 67
    },
    {
      "midi": 43,
      "hit": false,
      "t": 147345.47143749968,
      "d": 25.20156250000582,
      "v": 22
    },
    {
      "midi": 60,
      "hit": false,
      "t": 147570.26937499968,
      "d": 102.82237499998882,
      "v": 57
    },
    {
      "midi": 63,
      "hit": false,
      "t": 147707.36587499967,
      "d": 84.67725000000792,
      "v": 51
    },
    {
      "midi": 65,
      "hit": false,
      "t": 147845.47043749967,
      "d": 76.61275000000023,
      "v": 40
    },
    {
      "midi": 67,
      "hit": false,
      "t": 147968.45406249966,
      "d": 121.97556250001071,
      "v": 55
    },
    {
      "midi": 70,
      "hit": false,
      "t": 148094.46187499966,
      "d": 52.419250000006286,
      "v": 61
    },
    {
      "midi": 65,
      "hit": false,
      "t": 148124.70374999967,
      "d": 238.91081249999115,
      "v": 34
    },
    {
      "midi": 56,
      "hit": false,
      "t": 148131.76018749966,
      "d": 336.6928750000079,
      "v": 32
    },
    {
      "midi": 61,
      "hit": false,
      "t": 148132.76824999967,
      "d": 282.2574999999779,
      "v": 36
    },
    {
      "midi": 55,
      "hit": false,
      "t": 148141.84081249966,
      "d": 265.12043749997974,
      "v": 24
    },
    {
      "midi": 72,
      "hit": false,
      "t": 148242.64706249966,
      "d": 38.306374999985565,
      "v": 32
    },
    {
      "midi": 73,
      "hit": false,
      "t": 148331.35656249966,
      "d": 95.76593749999302,
      "v": 30
    },
    {
      "midi": 75,
      "hit": false,
      "t": 148460.38856249966,
      "d": 67.54018750000978,
      "v": 43
    },
    {
      "midi": 79,
      "hit": false,
      "t": 148583.37218749968,
      "d": 165.32224999996834,
      "v": 77
    },
    {
      "midi": 77,
      "hit": false,
      "t": 148722.48481249966,
      "d": 112.90299999999115,
      "v": 55
    },
    {
      "midi": 64,
      "hit": false,
      "t": 149255.74987499966,
      "d": 37.298312500002794,
      "v": 65
    },
    {
      "midi": 59,
      "hit": false,
      "t": 149264.82243749965,
      "d": 48.387000000017,
      "v": 47
    },
    {
      "midi": 73,
      "hit": false,
      "t": 149494.66068749968,
      "d": 88.7094999999972,
      "v": 50
    },
    {
      "midi": 74,
      "hit": false,
      "t": 149509.78162499968,
      "d": 122.98362499999348,
      "v": 77
    },
    {
      "midi": 71,
      "hit": false,
      "t": 149790.0229999997,
      "d": 82.66112500001327,
      "v": 65
    },
    {
      "midi": 74,
      "hit": false,
      "t": 150051.11118749972,
      "d": 71.57243749999907,
      "v": 75
    },
    {
      "midi": 72,
      "hit": false,
      "t": 150302.1187499997,
      "d": 85.68531250001979,
      "v": 62
    },
    {
      "midi": 67,
      "hit": false,
      "t": 150310.1832499997,
      "d": 70.5643750000163,
      "v": 49
    },
    {
      "midi": 64,
      "hit": false,
      "t": 150321.27193749973,
      "d": 68.54824999999255,
      "v": 48
    },
    {
      "midi": 62,
      "hit": false,
      "t": 150322.27999999974,
      "d": 42.33862500000396,
      "v": 39
    },
    {
      "midi": 57,
      "hit": false,
      "t": 150334.37674999973,
      "d": 58.46762499999022,
      "v": 40
    },
    {
      "midi": 71,
      "hit": false,
      "t": 150545.06181249974,
      "d": 93.74981250002747,
      "v": 64
    },
    {
      "midi": 62,
      "hit": false,
      "t": 150560.18274999975,
      "d": 75.60468750001746,
      "v": 58
    },
    {
      "midi": 55,
      "hit": false,
      "t": 150570.26337499975,
      "d": 57.45956250000745,
      "v": 50
    },
    {
      "midi": 64,
      "hit": false,
      "t": 150578.32787499976,
      "d": 42.33862500000396,
      "v": 46
    },
    {
      "midi": 69,
      "hit": false,
      "t": 151042.03662499978,
      "d": 84.67725000000792,
      "v": 69
    },
    {
      "midi": 60,
      "hit": false,
      "t": 151053.1253124998,
      "d": 63.507937499991385,
      "v": 65
    },
    {
      "midi": 64,
      "hit": false,
      "t": 151055.14143749978,
      "d": 73.58856249999371,
      "v": 68
    },
    {
      "midi": 53,
      "hit": false,
      "t": 151079.33493749978,
      "d": 30.241875000006985,
      "v": 38
    },
    {
      "midi": 68,
      "hit": false,
      "t": 151319.25381249978,
      "d": 64.51600000000326,
      "v": 71
    },
    {
      "midi": 63,
      "hit": false,
      "t": 151331.35056249978,
      "d": 75.60468750001746,
      "v": 60
    },
    {
      "midi": 60,
      "hit": false,
      "t": 151332.3586249998,
      "d": 33.2660624999844,
      "v": 66
    },
    {
      "midi": 52,
      "hit": false,
      "t": 151339.4150624998,
      "d": 38.306374999985565,
      "v": 53
    },
    {
      "midi": 66,
      "hit": false,
      "t": 151559.17268749978,
      "d": 158.26581250003073,
      "v": 63
    },
    {
      "midi": 58,
      "hit": false,
      "t": 151567.2371874998,
      "d": 102.82237500001793,
      "v": 64
    },
    {
      "midi": 51,
      "hit": false,
      "t": 151580.3419999998,
      "d": 117.94331250002142,
      "v": 63
    },
    {
      "midi": 65,
      "hit": false,
      "t": 151740.62393749983,
      "d": 134.07231250000768,
      "v": 48
    },
    {
      "midi": 50,
      "hit": false,
      "t": 151746.67231249984,
      "d": 252.015625,
      "v": 40
    },
    {
      "midi": 57,
      "hit": false,
      "t": 151752.72068749985,
      "d": 182.45931249999558,
      "v": 46
    },
    {
      "midi": 60,
      "hit": false,
      "t": 152086.38937499982,
      "d": 183.46737499997835,
      "v": 53
    },
    {
      "midi": 45,
      "hit": false,
      "t": 152095.46193749981,
      "d": 51.41118749999441,
      "v": 46
    },
    {
      "midi": 53,
      "hit": false,
      "t": 152110.58287499982,
      "d": 128.02393749999464,
      "v": 28
    },
    {
      "midi": 57,
      "hit": false,
      "t": 152124.6957499998,
      "d": 103.8304375000007,
      "v": 32
    },
    {
      "midi": 56,
      "hit": false,
      "t": 152461.38862499982,
      "d": 66.53212500002701,
      "v": 38
    },
    {
      "midi": 43,
      "hit": false,
      "t": 152463.4047499998,
      "d": 43.34668750001583,
      "v": 40
    },
    {
      "midi": 59,
      "hit": false,
      "t": 152480.5418124998,
      "d": 36.29025000002002,
      "v": 33
    },
    {
      "midi": 52,
      "hit": false,
      "t": 152488.60631249982,
      "d": 46.37087500002235,
      "v": 31
    },
    {
      "midi": 64,
      "hit": false,
      "t": 152494.65468749983,
      "d": 53.42731250001816,
      "v": 24
    },
    {
      "midi": 70,
      "hit": false,
      "t": 152730.54131249984,
      "d": 98.79012499997043,
      "v": 74
    },
    {
      "midi": 58,
      "hit": false,
      "t": 152746.67031249983,
      "d": 39.31443749999744,
      "v": 62
    },
    {
      "midi": 59,
      "hit": false,
      "t": 152749.69449999984,
      "d": 80.64499999998952,
      "v": 38
    },
    {
      "midi": 63,
      "hit": false,
      "t": 152749.69449999984,
      "d": 91.73368750000373,
      "v": 57
    },
    {
      "midi": 60,
      "hit": false,
      "t": 152775.90412499983,
      "d": 26.20962499998859,
      "v": 30
    },
    {
      "midi": 54,
      "hit": false,
      "t": 152882.75874999983,
      "d": 114.9191250000149,
      "v": 46
    },
    {
      "midi": 68,
      "hit": false,
      "t": 152897.87968749984,
      "d": 143.14487500002724,
      "v": 44
    },
    {
      "midi": 59,
      "hit": false,
      "t": 152920.05706249984,
      "d": 110.88687500002561,
      "v": 31
    },
    {
      "midi": 63,
      "hit": false,
      "t": 152921.06512499985,
      "d": 172.37868750002235,
      "v": 28
    },
    {
      "midi": 52,
      "hit": false,
      "t": 153250.70156249986,
      "d": 215.72537500003818,
      "v": 34
    },
    {
      "midi": 67,
      "hit": false,
      "t": 153258.76606249987,
      "d": 75.60468750001746,
      "v": 49
    },
    {
      "midi": 57,
      "hit": false,
      "t": 153265.82249999986,
      "d": 69.55631250003353,
      "v": 44
    },
    {
      "midi": 62,
      "hit": false,
      "t": 153268.84668749987,
      "d": 106.85462500003632,
      "v": 45
    },
    {
      "midi": 56,
      "hit": false,
      "t": 153499.6929999999,
      "d": 72.58050000001094,
      "v": 47
    },
    {
      "midi": 66,
      "hit": false,
      "t": 153502.71718749992,
      "d": 49.39506249997066,
      "v": 38
    },
    {
      "midi": 51,
      "hit": false,
      "t": 153514.81393749992,
      "d": 95.76593749999302,
      "v": 37
    },
    {
      "midi": 61,
      "hit": false,
      "t": 153530.9429374999,
      "d": 33.266062500013504,
      "v": 28
    },
    {
      "midi": 52,
      "hit": false,
      "t": 153631.7491874999,
      "d": 39.31443749999744,
      "v": 46
    },
    {
      "midi": 67,
      "hit": false,
      "t": 153645.8620624999,
      "d": 47.37893750000512,
      "v": 55
    },
    {
      "midi": 74,
      "hit": false,
      "t": 153887.79706249989,
      "d": 295.36231250001583,
      "v": 79
    },
    {
      "midi": 67,
      "hit": false,
      "t": 153899.89381249988,
      "d": 306.45100000003004,
      "v": 74
    },
    {
      "midi": 59,
      "hit": false,
      "t": 153900.9018749999,
      "d": 424.39431250002235,
      "v": 80
    },
    {
      "midi": 64,
      "hit": false,
      "t": 153902.9179999999,
      "d": 302.41875000001164,
      "v": 82
    },
    {
      "midi": 64,
      "hit": false,
      "t": 154272.8769374999,
      "d": 143.14487500002724,
      "v": 68
    },
    {
      "midi": 67,
      "hit": false,
      "t": 154273.88499999992,
      "d": 188.50768750000861,
      "v": 62
    },
    {
      "midi": 72,
      "hit": false,
      "t": 154273.88499999992,
      "d": 194.55606250002165,
      "v": 65
    },
    {
      "midi": 57,
      "hit": false,
      "t": 154294.04624999993,
      "d": 181.4512500000128,
      "v": 69
    },
    {
      "midi": 76,
      "hit": false,
      "t": 154645.86006249994,
      "d": 345.76543749999837,
      "v": 76
    },
    {
      "midi": 69,
      "hit": false,
      "t": 154652.91649999993,
      "d": 347.781562499993,
      "v": 76
    },
    {
      "midi": 71,
      "hit": false,
      "t": 154655.94068749994,
      "d": 403.2249999999767,
      "v": 61
    },
    {
      "midi": 65,
      "hit": false,
      "t": 154658.96487499995,
      "d": 332.6606249999895,
      "v": 77
    },
    {
      "midi": 64,
      "hit": false,
      "t": 154659.97293749996,
      "d": 389.112124999956,
      "v": 78
    },
    {
      "midi": 62,
      "hit": false,
      "t": 155052.10924999992,
      "d": 145.161000000051,
      "v": 47
    },
    {
      "midi": 71,
      "hit": false,
      "t": 155158.96387499993,
      "d": 171.37062500006869,
      "v": 51
    },
    {
      "midi": 76,
      "hit": false,
      "t": 155165.01224999994,
      "d": 174.3948125000461,
      "v": 54
    },
    {
      "midi": 69,
      "hit": false,
      "t": 155171.06062499995,
      "d": 99.79818750004051,
      "v": 60
    },
    {
      "midi": 65,
      "hit": false,
      "t": 155177.10899999997,
      "d": 142.13681250001537,
      "v": 54
    },
    {
      "midi": 64,
      "hit": false,
      "t": 155178.11706249998,
      "d": 225.8060000000114,
      "v": 58
    },
    {
      "midi": 71,
      "hit": false,
      "t": 155452.31006249998,
      "d": 288.3058749999909,
      "v": 55
    },
    {
      "midi": 68,
      "hit": false,
      "t": 155452.31006249998,
      "d": 307.4590624999837,
      "v": 51
    },
    {
      "midi": 65,
      "hit": false,
      "t": 155457.35037499998,
      "d": 271.1688124999928,
      "v": 61
    },
    {
      "midi": 56,
      "hit": false,
      "t": 155465.414875,
      "d": 347.7815624999639,
      "v": 37
    },
    {
      "midi": 62,
      "hit": false,
      "t": 155475.4955,
      "d": 187.49962499999674,
      "v": 36
    },
    {
      "midi": 56,
      "hit": false,
      "t": 155851.50281249994,
      "d": 132.05618750001304,
      "v": 37
    },
    {
      "midi": 68,
      "hit": false,
      "t": 155965.41387499994,
      "d": 199.59637500005192,
      "v": 64
    },
    {
      "midi": 64,
      "hit": false,
      "t": 155970.45418749994,
      "d": 158.26581250003073,
      "v": 68
    },
    {
      "midi": 74,
      "hit": false,
      "t": 155976.50256249995,
      "d": 158.26581250003073,
      "v": 55
    },
    {
      "midi": 71,
      "hit": false,
      "t": 155980.53481249994,
      "d": 124.99975000001723,
      "v": 48
    },
    {
      "midi": 58,
      "hit": false,
      "t": 155986.58318749996,
      "d": 297.3784375000687,
      "v": 62
    },
    {
      "midi": 72,
      "hit": false,
      "t": 156243.63912500002,
      "d": 351.8138125000405,
      "v": 48
    },
    {
      "midi": 67,
      "hit": false,
      "t": 156257.752,
      "d": 290.3220000000438,
      "v": 46
    },
    {
      "midi": 62,
      "hit": false,
      "t": 156267.832625,
      "d": 244.9591875000333,
      "v": 36
    },
    {
      "midi": 57,
      "hit": false,
      "t": 156277.91325,
      "d": 290.3220000000438,
      "v": 49
    },
    {
      "midi": 60,
      "hit": false,
      "t": 156282.9535625,
      "d": 199.59637500002282,
      "v": 34
    },
    {
      "midi": 54,
      "hit": false,
      "t": 156600.49325000006,
      "d": 117.94331250002142,
      "v": 36
    },
    {
      "midi": 57,
      "hit": false,
      "t": 156708.35593750008,
      "d": 83.66918749999604,
      "v": 46
    },
    {
      "midi": 67,
      "hit": false,
      "t": 156718.43656250008,
      "d": 88.7094999999972,
      "v": 43
    },
    {
      "midi": 72,
      "hit": false,
      "t": 156741.6220000001,
      "d": 98.79012499999953,
      "v": 36
    },
    {
      "midi": 76,
      "hit": false,
      "t": 156987.58925000008,
      "d": 541.3295625000028,
      "v": 53
    },
    {
      "midi": 66,
      "hit": false,
      "t": 156990.61343750008,
      "d": 454.63618750000023,
      "v": 39
    },
    {
      "midi": 64,
      "hit": false,
      "t": 156997.66987500008,
      "d": 388.1040625000023,
      "v": 50
    },
    {
      "midi": 60,
      "hit": false,
      "t": 156997.66987500008,
      "d": 472.78131250001024,
      "v": 49
    },
    {
      "midi": 54,
      "hit": false,
      "t": 157001.70212500007,
      "d": 471.7732500000275,
      "v": 36
    },
    {
      "midi": 50,
      "hit": false,
      "t": 157380.73362500008,
      "d": 45.36281250001048,
      "v": 51
    },
    {
      "midi": 79,
      "hit": false,
      "t": 157886.78100000008,
      "d": 127.01587500001187,
      "v": 69
    },
    {
      "midi": 69,
      "hit": false,
      "t": 157892.8293750001,
      "d": 124.99974999998813,
      "v": 77
    },
    {
      "midi": 72,
      "hit": false,
      "t": 157894.84550000008,
      "d": 110.88687499999651,
      "v": 68
    },
    {
      "midi": 67,
      "hit": false,
      "t": 157899.88581250008,
      "d": 201.61249999998836,
      "v": 67
    },
    {
      "midi": 77,
      "hit": false,
      "t": 157907.9503125001,
      "d": 148.1851874999702,
      "v": 48
    },
    {
      "midi": 78,
      "hit": false,
      "t": 158129.72406250008,
      "d": 143.14487500002724,
      "v": 63
    },
    {
      "midi": 66,
      "hit": false,
      "t": 158140.8127500001,
      "d": 113.91106250000303,
      "v": 52
    },
    {
      "midi": 69,
      "hit": false,
      "t": 158157.9498125001,
      "d": 59.475687500002095,
      "v": 46
    },
    {
      "midi": 72,
      "hit": false,
      "t": 158165.0062500001,
      "d": 211.6931250000198,
      "v": 30
    },
    {
      "midi": 77,
      "hit": false,
      "t": 158288.9979375001,
      "d": 99.79818750001141,
      "v": 45
    },
    {
      "midi": 65,
      "hit": false,
      "t": 158297.0624375001,
      "d": 129.03200000000652,
      "v": 47
    },
    {
      "midi": 69,
      "hit": false,
      "t": 158298.07050000012,
      "d": 140.12068749999162,
      "v": 27
    },
    {
      "midi": 55,
      "hit": false,
      "t": 158542.0216250001,
      "d": 618.950375000044,
      "v": 41
    },
    {
      "midi": 76,
      "hit": false,
      "t": 158650.8923750001,
      "d": 122.98362500002258,
      "v": 70
    },
    {
      "midi": 65,
      "hit": false,
      "t": 158658.95687500012,
      "d": 142.13681250001537,
      "v": 67
    },
    {
      "midi": 69,
      "hit": false,
      "t": 158667.02137500013,
      "d": 152.2174375000177,
      "v": 60
    },
    {
      "midi": 64,
      "hit": false,
      "t": 158682.14231250013,
      "d": 167.3383750000212,
      "v": 60
    },
    {
      "midi": 75,
      "hit": false,
      "t": 158898.87575000015,
      "d": 133.0642499999958,
      "v": 72
    },
    {
      "midi": 63,
      "hit": false,
      "t": 158900.89187500015,
      "d": 116.93525000000955,
      "v": 53
    },
    {
      "midi": 65,
      "hit": false,
      "t": 158910.97250000015,
      "d": 76.61275000000023,
      "v": 49
    },
    {
      "midi": 69,
      "hit": false,
      "t": 158916.01281250015,
      "d": 119.95943749998696,
      "v": 52
    },
    {
      "midi": 65,
      "hit": false,
      "t": 159042.02062500015,
      "d": 197.58024999999907,
      "v": 29
    },
    {
      "midi": 62,
      "hit": false,
      "t": 159051.09318750014,
      "d": 167.3383750000212,
      "v": 43
    },
    {
      "midi": 70,
      "hit": false,
      "t": 159413.99568750014,
      "d": 171.37062500001048,
      "v": 69
    },
    {
      "midi": 63,
      "hit": false,
      "t": 159424.07631250014,
      "d": 211.6931249999907,
      "v": 62
    },
    {
      "midi": 58,
      "hit": false,
      "t": 159425.08437500015,
      "d": 233.87049999999,
      "v": 83
    },
    {
      "midi": 67,
      "hit": false,
      "t": 159430.12468750015,
      "d": 171.37062499998137,
      "v": 63
    },
    {
      "midi": 60,
      "hit": false,
      "t": 159431.13275000016,
      "d": 156.24968749997788,
      "v": 66
    },
    {
      "midi": 68,
      "hit": false,
      "t": 159673.06775000013,
      "d": 137.0964999999851,
      "v": 62
    },
    {
      "midi": 56,
      "hit": false,
      "t": 159678.10806250013,
      "d": 116.93524999998044,
      "v": 53
    },
    {
      "midi": 63,
      "hit": false,
      "t": 159678.10806250013,
      "d": 120.96749999996973,
      "v": 34
    },
    {
      "midi": 60,
      "hit": false,
      "t": 159686.17256250014,
      "d": 41.330562499992084,
      "v": 42
    },
    {
      "midi": 55,
      "hit": false,
      "t": 159811.17231250013,
      "d": 246.97531249999884,
      "v": 58
    },
    {
      "midi": 60,
      "hit": false,
      "t": 159838.39000000013,
      "d": 231.85437499999534,
      "v": 34
    },
    {
      "midi": 51,
      "hit": false,
      "t": 160084.35725000012,
      "d": 115.92718749999767,
      "v": 52
    },
    {
      "midi": 67,
      "hit": false,
      "t": 160195.2441250001,
      "d": 127.01587499998277,
      "v": 54
    },
    {
      "midi": 56,
      "hit": false,
      "t": 160215.40537500012,
      "d": 172.37868749999325,
      "v": 55
    },
    {
      "midi": 60,
      "hit": false,
      "t": 160220.44568750012,
      "d": 154.23356249998324,
      "v": 57
    },
    {
      "midi": 63,
      "hit": false,
      "t": 160230.52631250012,
      "d": 176.41093749998254,
      "v": 35
    },
    {
      "midi": 55,
      "hit": false,
      "t": 160232.54243750012,
      "d": 204.63668749999488,
      "v": 56
    },
    {
      "midi": 66,
      "hit": false,
      "t": 160451.2920000001,
      "d": 95.76593750002212,
      "v": 52
    },
    {
      "midi": 56,
      "hit": false,
      "t": 160464.3968125001,
      "d": 191.53187500001513,
      "v": 37
    },
    {
      "midi": 54,
      "hit": false,
      "t": 160469.4371250001,
      "d": 107.86268750001909,
      "v": 55
    },
    {
      "midi": 60,
      "hit": false,
      "t": 160474.4774375001,
      "d": 178.4270625000063,
      "v": 44
    },
    {
      "midi": 53,
      "hit": false,
      "t": 160606.53362500013,
      "d": 216.73343749999185,
      "v": 51
    },
    {
      "midi": 64,
      "hit": false,
      "t": 160850.48475000012,
      "d": 458.6684374999895,
      "v": 64
    },
    {
      "midi": 60,
      "hit": false,
      "t": 160851.49281250013,
      "d": 350.80574999999953,
      "v": 61
    },
    {
      "midi": 57,
      "hit": false,
      "t": 160857.54118750014,
      "d": 402.21693749996484,
      "v": 73
    },
    {
      "midi": 53,
      "hit": false,
      "t": 160860.56537500015,
      "d": 357.86218749996624,
      "v": 58
    },
    {
      "midi": 43,
      "hit": false,
      "t": 160869.63793750014,
      "d": 1317.5376875000075,
      "v": 60
    },
    {
      "midi": 50,
      "hit": false,
      "t": 161281.9355000001,
      "d": 332.6606250000186,
      "v": 38
    },
    {
      "midi": 53,
      "hit": false,
      "t": 161356.5321250001,
      "d": 147.17712500001653,
      "v": 55
    },
    {
      "midi": 57,
      "hit": false,
      "t": 161359.55631250012,
      "d": 141.1287500000035,
      "v": 40
    },
    {
      "midi": 60,
      "hit": false,
      "t": 161362.58050000013,
      "d": 147.17712500001653,
      "v": 48
    },
    {
      "midi": 56,
      "hit": false,
      "t": 161612.58000000013,
      "d": 289.3139375000319,
      "v": 57
    },
    {
      "midi": 64,
      "hit": false,
      "t": 161622.66062500014,
      "d": 185.4835000000312,
      "v": 53
    },
    {
      "midi": 59,
      "hit": false,
      "t": 161623.66868750015,
      "d": 331.65256250000675,
      "v": 47
    },
    {
      "midi": 53,
      "hit": false,
      "t": 161633.74931250015,
      "d": 386.0879375000077,
      "v": 58
    },
    {
      "midi": 62,
      "hit": false,
      "t": 161911.97456250017,
      "d": 117.94331249999232,
      "v": 1
    },
    {
      "midi": 63,
      "hit": false,
      "t": 162135.76443750015,
      "d": 169.35449999998673,
      "v": 47
    },
    {
      "midi": 58,
      "hit": false,
      "t": 162135.76443750015,
      "d": 214.7173124999972,
      "v": 59
    },
    {
      "midi": 54,
      "hit": false,
      "t": 162142.82087500015,
      "d": 175.40287499999977,
      "v": 44
    },
    {
      "midi": 51,
      "hit": false,
      "t": 162143.82893750016,
      "d": 274.1930000000284,
      "v": 47
    },
    {
      "midi": 64,
      "hit": false,
      "t": 162385.76393750016,
      "d": 108.87075000003097,
      "v": 59
    },
    {
      "midi": 55,
      "hit": false,
      "t": 162394.83650000018,
      "d": 64.51600000000326,
      "v": 55
    },
    {
      "midi": 59,
      "hit": false,
      "t": 162395.8445625002,
      "d": 81.6530625000014,
      "v": 53
    },
    {
      "midi": 52,
      "hit": false,
      "t": 162398.8687500002,
      "d": 191.53187499998603,
      "v": 54
    },
    {
      "midi": 67,
      "hit": false,
      "t": 162768.8276875002,
      "d": 404.2330625000468,
      "v": 68
    },
    {
      "midi": 62,
      "hit": false,
      "t": 162769.8357500002,
      "d": 369.9589375000214,
      "v": 79
    },
    {
      "midi": 57,
      "hit": false,
      "t": 162776.8921875002,
      "d": 72.58050000001094,
      "v": 68
    },
    {
      "midi": 53,
      "hit": false,
      "t": 162781.9325000002,
      "d": 876.0063125000161,
      "v": 71
    },
    {
      "midi": 51,
      "hit": false,
      "t": 163189.18975000022,
      "d": 226.81406249999418,
      "v": 36
    },
    {
      "midi": 57,
      "hit": false,
      "t": 163494.6326875002,
      "d": 37.298312500002794,
      "v": 56
    },
    {
      "midi": 62,
      "hit": false,
      "t": 163607.5356875002,
      "d": 106.85462500000722,
      "v": 61
    },
    {
      "midi": 66,
      "hit": false,
      "t": 163719.4306250002,
      "d": 69.55631250000442,
      "v": 51
    },
    {
      "midi": 69,
      "hit": false,
      "t": 163858.54325000022,
      "d": 72.58050000001094,
      "v": 65
    },
    {
      "midi": 74,
      "hit": false,
      "t": 163973.46237500024,
      "d": 84.67725000000792,
      "v": 58
    },
    {
      "midi": 78,
      "hit": false,
      "t": 164111.56693750023,
      "d": 65.52406249998603,
      "v": 37
    },
    {
      "midi": 79,
      "hit": false,
      "t": 164241.60700000022,
      "d": 69.55631250000442,
      "v": 58
    },
    {
      "midi": 78,
      "hit": false,
      "t": 164339.38906250024,
      "d": 83.66918749999604,
      "v": 56
    },
    {
      "midi": 62,
      "hit": false,
      "t": 164383.74381250024,
      "d": 385.0798750000249,
      "v": 35
    },
    {
      "midi": 66,
      "hit": false,
      "t": 164385.75993750023,
      "d": 421.37012500004494,
      "v": 42
    },
    {
      "midi": 55,
      "hit": false,
      "t": 164423.05825000023,
      "d": 469.75712500003283,
      "v": 18
    },
    {
      "midi": 79,
      "hit": false,
      "t": 164485.55812500024,
      "d": 66.5321249999979,
      "v": 56
    },
    {
      "midi": 78,
      "hit": false,
      "t": 164587.37243750025,
      "d": 67.54018750000978,
      "v": 37
    },
    {
      "midi": 79,
      "hit": false,
      "t": 164716.40443750026,
      "d": 75.60468750001746,
      "v": 63
    },
    {
      "midi": 78,
      "hit": false,
      "t": 164812.17037500028,
      "d": 80.64499999998952,
      "v": 44
    },
    {
      "midi": 79,
      "hit": false,
      "t": 164946.24268750026,
      "d": 76.61275000000023,
      "v": 51
    },
    {
      "midi": 66,
      "hit": false,
      "t": 165144.83100000027,
      "d": 346.77350000001024,
      "v": 52
    },
    {
      "midi": 81,
      "hit": false,
      "t": 165151.88743750026,
      "d": 52.419250000006286,
      "v": 54
    },
    {
      "midi": 61,
      "hit": false,
      "t": 165153.90356250026,
      "d": 1269.1506874999905,
      "v": 51
    },
    {
      "midi": 55,
      "hit": false,
      "t": 165161.96806250027,
      "d": 292.3381250000093,
      "v": 45
    },
    {
      "midi": 64,
      "hit": false,
      "t": 165637.77356250028,
      "d": 665.321249999979,
      "v": 45
    },
    {
      "midi": 54,
      "hit": false,
      "t": 165648.8622500003,
      "d": 860.8853749999544,
      "v": 37
    },
    {
      "midi": 59,
      "hit": false,
      "t": 165670.03156250028,
      "d": 681.4502499999653,
      "v": 31
    },
    {
      "midi": 78,
      "hit": false,
      "t": 166281.92550000027,
      "d": 70.5643749999872,
      "v": 44
    },
    {
      "midi": 79,
      "hit": false,
      "t": 166421.03812500025,
      "d": 59.475687500002095,
      "v": 74
    },
    {
      "midi": 79,
      "hit": false,
      "t": 166678.09406250025,
      "d": 60.483749999984866,
      "v": 69
    },
    {
      "midi": 62,
      "hit": false,
      "t": 166693.21500000026,
      "d": 349.79768749998766,
      "v": 45
    },
    {
      "midi": 54,
      "hit": false,
      "t": 166700.27143750025,
      "d": 449.59587499999907,
      "v": 32
    },
    {
      "midi": 59,
      "hit": false,
      "t": 166702.28756250025,
      "d": 343.7493125000037,
      "v": 38
    },
    {
      "midi": 76,
      "hit": false,
      "t": 166841.40018750023,
      "d": 106.85462500000722,
      "v": 48
    },
    {
      "midi": 76,
      "hit": false,
      "t": 167081.31906250026,
      "d": 74.59662500000559,
      "v": 57
    },
    {
      "midi": 71,
      "hit": false,
      "t": 167228.49618750028,
      "d": 112.90299999999115,
      "v": 45
    },
    {
      "midi": 49,
      "hit": false,
      "t": 167460.35056250027,
      "d": 38.30637500001467,
      "v": 42
    },
    {
      "midi": 71,
      "hit": false,
      "t": 167465.39087500027,
      "d": 49.39506249999977,
      "v": 50
    },
    {
      "midi": 59,
      "hit": false,
      "t": 167470.43118750027,
      "d": 42.33862500000396,
      "v": 40
    },
    {
      "midi": 76,
      "hit": false,
      "t": 167589.38256250028,
      "d": 76.61275000000023,
      "v": 58
    },
    {
      "midi": 76,
      "hit": false,
      "t": 167835.3498125003,
      "d": 36.29024999999092,
      "v": 58
    },
    {
      "midi": 63,
      "hit": false,
      "t": 167839.38206250028,
      "d": 50.40312500001164,
      "v": 67
    },
    {
      "midi": 58,
      "hit": false,
      "t": 167858.53525000028,
      "d": 56.45150000002468,
      "v": 38
    },
    {
      "midi": 78,
      "hit": false,
      "t": 167967.4060000003,
      "d": 136.08843750000233,
      "v": 56
    },
    {
      "midi": 66,
      "hit": false,
      "t": 167979.5027500003,
      "d": 153.22550000000047,
      "v": 45
    },
    {
      "midi": 78,
      "hit": false,
      "t": 168203.2926250003,
      "d": 38.306374999985565,
      "v": 39
    },
    {
      "midi": 66,
      "hit": false,
      "t": 168222.4458125003,
      "d": 29.23381249999511,
      "v": 33
    },
    {
      "midi": 54,
      "hit": false,
      "t": 168244.62318750028,
      "d": 33.2660624999844,
      "v": 37
    },
    {
      "midi": 75,
      "hit": false,
      "t": 168353.49393750026,
      "d": 98.79012499999953,
      "v": 36
    },
    {
      "midi": 63,
      "hit": false,
      "t": 168355.51006250025,
      "d": 126.0078125,
      "v": 53
    },
    {
      "midi": 75,
      "hit": false,
      "t": 168593.41281250023,
      "d": 69.55631250000442,
      "v": 56
    },
    {
      "midi": 63,
      "hit": false,
      "t": 168601.47731250024,
      "d": 77.62081250001211,
      "v": 60
    },
    {
      "midi": 57,
      "hit": false,
      "t": 168622.64662500023,
      "d": 43.34668750001583,
      "v": 62
    },
    {
      "midi": 47,
      "hit": false,
      "t": 168630.71112500023,
      "d": 93.74981250002747,
      "v": 58
    },
    {
      "midi": 62,
      "hit": false,
      "t": 168788.97693750027,
      "d": 123.99168750000536,
      "v": 22
    },
    {
      "midi": 74,
      "hit": false,
      "t": 168828.29137500026,
      "d": 57.45956250000745,
      "v": 12
    },
    {
      "midi": 74,
      "hit": false,
      "t": 168990.58943750028,
      "d": 42.33862500000396,
      "v": 29
    },
    {
      "midi": 62,
      "hit": false,
      "t": 169004.70231250027,
      "d": 30.241875000006985,
      "v": 34
    },
    {
      "midi": 66,
      "hit": false,
      "t": 169136.7585000003,
      "d": 132.05618749998393,
      "v": 52
    },
    {
      "midi": 78,
      "hit": false,
      "t": 169363.57256250028,
      "d": 69.55631250000442,
      "v": 55
    },
    {
      "midi": 66,
      "hit": false,
      "t": 169374.6612500003,
      "d": 66.5321249999979,
      "v": 51
    },
    {
      "midi": 62,
      "hit": false,
      "t": 169410.9515000003,
      "d": 34.274124999996275,
      "v": 39
    },
    {
      "midi": 76,
      "hit": false,
      "t": 169530.91093750027,
      "d": 113.91106250000303,
      "v": 38
    },
    {
      "midi": 64,
      "hit": false,
      "t": 169537.96737500027,
      "d": 79.63693750000675,
      "v": 34
    },
    {
      "midi": 76,
      "hit": false,
      "t": 169728.49118750027,
      "d": 67.54018750000978,
      "v": 49
    },
    {
      "midi": 64,
      "hit": false,
      "t": 169749.6605000003,
      "d": 41.330562499992084,
      "v": 51
    },
    {
      "midi": 62,
      "hit": false,
      "t": 169749.6605000003,
      "d": 46.37087499999325,
      "v": 68
    },
    {
      "midi": 56,
      "hit": false,
      "t": 169754.7008125003,
      "d": 73.58856249999371,
      "v": 47
    },
    {
      "midi": 65,
      "hit": false,
      "t": 169780.91043750028,
      "d": 28.22575000001234,
      "v": 24
    },
    {
      "midi": 62,
      "hit": false,
      "t": 169865.5876875003,
      "d": 129.03199999997742,
      "v": 64
    },
    {
      "midi": 56,
      "hit": false,
      "t": 169874.66025000028,
      "d": 294.35424999997485,
      "v": 35
    },
    {
      "midi": 74,
      "hit": false,
      "t": 169882.72475000028,
      "d": 153.22549999997136,
      "v": 24
    },
    {
      "midi": 61,
      "hit": false,
      "t": 171033.93212500022,
      "d": 154.23356250001234,
      "v": 47
    },
    {
      "midi": 55,
      "hit": false,
      "t": 171037.9643750002,
      "d": 132.05618750001304,
      "v": 64
    },
    {
      "midi": 65,
      "hit": false,
      "t": 171038.97243750023,
      "d": 124.99974999998813,
      "v": 70
    },
    {
      "midi": 60,
      "hit": false,
      "t": 171040.98856250022,
      "d": 126.0078125,
      "v": 52
    },
    {
      "midi": 93,
      "hit": false,
      "t": 171043.00468750022,
      "d": 139.11262500000885,
      "v": 75
    },
    {
      "midi": 81,
      "hit": false,
      "t": 171047.0369375002,
      "d": 101.81431250000605,
      "v": 70
    },
    {
      "midi": 88,
      "hit": false,
      "t": 171048.04500000022,
      "d": 105.84656249999534,
      "v": 73
    },
    {
      "midi": 58,
      "hit": false,
      "t": 171058.12562500022,
      "d": 130.0400625000184,
      "v": 39
    },
    {
      "midi": 60,
      "hit": false,
      "t": 171418.00393750024,
      "d": 191.53187500007334,
      "v": 57
    },
    {
      "midi": 61,
      "hit": false,
      "t": 171419.01200000025,
      "d": 173.38675000006333,
      "v": 50
    },
    {
      "midi": 65,
      "hit": false,
      "t": 171420.02006250026,
      "d": 160.28193750002538,
      "v": 73
    },
    {
      "midi": 93,
      "hit": false,
      "t": 171421.02812500027,
      "d": 165.32225000002654,
      "v": 68
    },
    {
      "midi": 81,
      "hit": false,
      "t": 171422.0361875003,
      "d": 148.1851874999993,
      "v": 68
    },
    {
      "midi": 88,
      "hit": false,
      "t": 171423.0442500003,
      "d": 186.49156250001397,
      "v": 71
    },
    {
      "midi": 55,
      "hit": false,
      "t": 171426.0684375003,
      "d": 136.08843749997322,
      "v": 60
    },
    {
      "midi": 62,
      "hit": false,
      "t": 171811.14831250033,
      "d": 201.61250000004657,
      "v": 66
    },
    {
      "midi": 94,
      "hit": false,
      "t": 171813.16443750032,
      "d": 170.3625625000277,
      "v": 74
    },
    {
      "midi": 82,
      "hit": false,
      "t": 171814.17250000034,
      "d": 172.37868750002235,
      "v": 70
    },
    {
      "midi": 56,
      "hit": false,
      "t": 171814.17250000034,
      "d": 180.44318750003004,
      "v": 65
    },
    {
      "midi": 67,
      "hit": false,
      "t": 171815.18056250035,
      "d": 162.29806249999092,
      "v": 71
    },
    {
      "midi": 60,
      "hit": false,
      "t": 171823.24506250035,
      "d": 164.31418750001467,
      "v": 57
    },
    {
      "midi": 88,
      "hit": false,
      "t": 171850.46275000036,
      "d": 51.41118749999441,
      "v": 41
    },
    {
      "midi": 96,
      "hit": false,
      "t": 172076.26875000037,
      "d": 48.38699999998789,
      "v": 69
    },
    {
      "midi": 84,
      "hit": false,
      "t": 172079.29293750037,
      "d": 30.24187499997788,
      "v": 62
    },
    {
      "midi": 56,
      "hit": false,
      "t": 172079.29293750037,
      "d": 67.54018749998068,
      "v": 37
    },
    {
      "midi": 62,
      "hit": false,
      "t": 172081.30906250037,
      "d": 89.71756249997998,
      "v": 64
    },
    {
      "midi": 60,
      "hit": false,
      "t": 172088.36550000036,
      "d": 33.2660624999844,
      "v": 36
    },
    {
      "midi": 67,
      "hit": false,
      "t": 172093.40581250036,
      "d": 29.23381249999511,
      "v": 25
    },
    {
      "midi": 67,
      "hit": false,
      "t": 172195.22012500034,
      "d": 104.83849999998347,
      "v": 40
    },
    {
      "midi": 56,
      "hit": false,
      "t": 172199.25237500033,
      "d": 176.41093750001164,
      "v": 33
    },
    {
      "midi": 62,
      "hit": false,
      "t": 172200.26043750034,
      "d": 102.82237499998882,
      "v": 19
    },
    {
      "midi": 82,
      "hit": false,
      "t": 172204.29268750033,
      "d": 153.22550000000047,
      "v": 55
    },
    {
      "midi": 94,
      "hit": false,
      "t": 172214.37331250033,
      "d": 135.08037499999045,
      "v": 38
    },
    {
      "midi": 60,
      "hit": false,
      "t": 172220.42168750035,
      "d": 119.95943749998696,
      "v": 40
    },
    {
      "midi": 93,
      "hit": false,
      "t": 172444.21156250034,
      "d": 368.95087500003865,
      "v": 59
    },
    {
      "midi": 65,
      "hit": false,
      "t": 172447.23575000034,
      "d": 404.2330625000468,
      "v": 58
    },
    {
      "midi": 60,
      "hit": false,
      "t": 172454.29218750034,
      "d": 415.321750000061,
      "v": 43
    },
    {
      "midi": 81,
      "hit": false,
      "t": 172455.30025000035,
      "d": 344.7573750000156,
      "v": 48
    },
    {
      "midi": 61,
      "hit": false,
      "t": 172463.36475000036,
      "d": 395.16050000002724,
      "v": 38
    },
    {
      "midi": 88,
      "hit": false,
      "t": 172464.37281250037,
      "d": 387.09600000001956,
      "v": 49
    },
    {
      "midi": 55,
      "hit": false,
      "t": 172477.47762500038,
      "d": 340.7251249999972,
      "v": 53
    },
    {
      "midi": 67,
      "hit": false,
      "t": 172965.3798750004,
      "d": 160.28193750002538,
      "v": 60
    },
    {
      "midi": 60,
      "hit": false,
      "t": 172965.3798750004,
      "d": 217.74150000000373,
      "v": 48
    },
    {
      "midi": 82,
      "hit": false,
      "t": 172967.3960000004,
      "d": 196.5721875000163,
      "v": 67
    },
    {
      "midi": 94,
      "hit": false,
      "t": 172968.4040625004,
      "d": 195.56412500000442,
      "v": 83
    },
    {
      "midi": 62,
      "hit": false,
      "t": 172973.4443750004,
      "d": 166.3303125000093,
      "v": 62
    },
    {
      "midi": 56,
      "hit": false,
      "t": 172974.4524375004,
      "d": 233.87049999999,
      "v": 49
    },
    {
      "midi": 65,
      "hit": false,
      "t": 173239.5728750004,
      "d": 150.20131250002305,
      "v": 70
    },
    {
      "midi": 96,
      "hit": false,
      "t": 173244.6131875004,
      "d": 120.96749999999884,
      "v": 77
    },
    {
      "midi": 55,
      "hit": false,
      "t": 173245.6212500004,
      "d": 170.3625625000277,
      "v": 62
    },
    {
      "midi": 60,
      "hit": false,
      "t": 173246.62931250042,
      "d": 167.3383750000212,
      "v": 58
    },
    {
      "midi": 95,
      "hit": false,
      "t": 173253.6857500004,
      "d": 41.330562499992084,
      "v": 56
    },
    {
      "midi": 83,
      "hit": false,
      "t": 173257.7180000004,
      "d": 102.82237499998882,
      "v": 49
    },
    {
      "midi": 84,
      "hit": false,
      "t": 173259.7341250004,
      "d": 131.04812500003027,
      "v": 51
    },
    {
      "midi": 58,
      "hit": false,
      "t": 173265.7825000004,
      "d": 196.5721875000163,
      "v": 20
    },
    {
      "midi": 93,
      "hit": false,
      "t": 173609.53181250044,
      "d": 229.8382500000589,
      "v": 69
    },
    {
      "midi": 61,
      "hit": false,
      "t": 173615.58018750045,
      "d": 221.77375000005122,
      "v": 49
    },
    {
      "midi": 65,
      "hit": false,
      "t": 173620.62050000046,
      "d": 172.37868750002235,
      "v": 65
    },
    {
      "midi": 60,
      "hit": false,
      "t": 173624.65275000044,
      "d": 176.41093750004075,
      "v": 32
    },
    {
      "midi": 81,
      "hit": false,
      "t": 173625.66081250046,
      "d": 266.12850000007893,
      "v": 47
    },
    {
      "midi": 55,
      "hit": false,
      "t": 173626.66887500047,
      "d": 218.7495625000447,
      "v": 52
    },
    {
      "midi": 88,
      "hit": false,
      "t": 173632.71725000048,
      "d": 169.35450000001583,
      "v": 51
    },
    {
      "midi": 58,
      "hit": false,
      "t": 173642.79787500048,
      "d": 203.6286250000412,
      "v": 31
    },
    {
      "midi": 91,
      "hit": false,
      "t": 174144.81300000052,
      "d": 78.62887500002398,
      "v": 62
    },
    {
      "midi": 55,
      "hit": false,
      "t": 174145.82106250053,
      "d": 74.59662500000559,
      "v": 74
    },
    {
      "midi": 85,
      "hit": false,
      "t": 174147.83718750053,
      "d": 71.57243749999907,
      "v": 59
    },
    {
      "midi": 65,
      "hit": false,
      "t": 174152.87750000053,
      "d": 27.217687500000466,
      "v": 69
    },
    {
      "midi": 79,
      "hit": false,
      "t": 174154.89362500052,
      "d": 64.51600000000326,
      "v": 48
    },
    {
      "midi": 88,
      "hit": false,
      "t": 174156.90975000052,
      "d": 37.298312500002794,
      "v": 52
    },
    {
      "midi": 55,
      "hit": false,
      "t": 174530.90093750056,
      "d": 113.91106250000303,
      "v": 50
    },
    {
      "midi": 61,
      "hit": false,
      "t": 174531.90900000057,
      "d": 265.12043750000885,
      "v": 46
    },
    {
      "midi": 65,
      "hit": false,
      "t": 174541.98962500057,
      "d": 117.94331249999232,
      "v": 42
    },
    {
      "midi": 54,
      "hit": false,
      "t": 174925.05337500057,
      "d": 1072.5785000000324,
      "v": 50
    },
    {
      "midi": 61,
      "hit": false,
      "t": 174926.06143750058,
      "d": 907.2562500000349,
      "v": 34
    },
    {
      "midi": 64,
      "hit": false,
      "t": 174930.09368750057,
      "d": 578.6278750000347,
      "v": 50
    },
    {
      "midi": 88,
      "hit": false,
      "t": 174952.27106250057,
      "d": 139.11262500000885,
      "v": 94
    },
    {
      "midi": 59,
      "hit": false,
      "t": 174957.31137500057,
      "d": 848.7886250000447,
      "v": 29
    },
    {
      "midi": 85,
      "hit": false,
      "t": 175150.85937500058,
      "d": 106.85462500000722,
      "v": 77
    },
    {
      "midi": 86,
      "hit": false,
      "t": 175275.8591250006,
      "d": 90.72562499999185,
      "v": 67
    },
    {
      "midi": 87,
      "hit": false,
      "t": 175305.0929375006,
      "d": 18.14512500001001,
      "v": 58
    },
    {
      "midi": 88,
      "hit": false,
      "t": 175354.4880000006,
      "d": 69.55631250000442,
      "v": 58
    },
    {
      "midi": 81,
      "hit": false,
      "t": 175557.1085625006,
      "d": 181.4512500000128,
      "v": 75
    },
    {
      "midi": 82,
      "hit": false,
      "t": 175725.4550000006,
      "d": 88.70950000002631,
      "v": 46
    },
    {
      "midi": 83,
      "hit": false,
      "t": 175787.9548750006,
      "d": 49.39506249999977,
      "v": 40
    },
    {
      "midi": 84,
      "hit": false,
      "t": 175835.3338125006,
      "d": 68.54824999999255,
      "v": 70
    },
    {
      "midi": 78,
      "hit": false,
      "t": 176005.6963750006,
      "d": 134.07231250000768,
      "v": 65
    },
    {
      "midi": 54,
      "hit": false,
      "t": 176047.0269375006,
      "d": 92.7417500000156,
      "v": 17
    },
    {
      "midi": 64,
      "hit": false,
      "t": 176048.03500000061,
      "d": 33.266062500013504,
      "v": 42
    },
    {
      "midi": 61,
      "hit": false,
      "t": 176051.05918750062,
      "d": 106.85462500000722,
      "v": 36
    },
    {
      "midi": 79,
      "hit": false,
      "t": 176165.97831250064,
      "d": 96.77399999997579,
      "v": 34
    },
    {
      "midi": 80,
      "hit": false,
      "t": 176219.40562500063,
      "d": 118.95137499997509,
      "v": 25
    },
    {
      "midi": 81,
      "hit": false,
      "t": 176298.0345000006,
      "d": 97.78206250001676,
      "v": 65
    },
    {
      "midi": 76,
      "hit": false,
      "t": 176454.2841875006,
      "d": 163.3061250000028,
      "v": 64
    },
    {
      "midi": 65,
      "hit": false,
      "t": 176749.6465000006,
      "d": 60.48375000001397,
      "v": 75
    },
    {
      "midi": 60,
      "hit": false,
      "t": 176755.69487500063,
      "d": 87.70143750001444,
      "v": 54
    },
    {
      "midi": 56,
      "hit": false,
      "t": 176757.71100000062,
      "d": 77.62081250001211,
      "v": 29
    },
    {
      "midi": 62,
      "hit": false,
      "t": 176760.73518750063,
      "d": 63.507937499991385,
      "v": 60
    },
    {
      "midi": 55,
      "hit": false,
      "t": 176767.79162500062,
      "d": 98.79012500002864,
      "v": 33
    },
    {
      "midi": 51,
      "hit": false,
      "t": 177107.50868750064,
      "d": 76.61275000002934,
      "v": 59
    },
    {
      "midi": 77,
      "hit": false,
      "t": 177110.53287500064,
      "d": 110.88687500002561,
      "v": 71
    },
    {
      "midi": 65,
      "hit": false,
      "t": 177116.58125000066,
      "d": 62.499875000008615,
      "v": 79
    },
    {
      "midi": 58,
      "hit": false,
      "t": 177118.59737500065,
      "d": 76.61275000002934,
      "v": 56
    },
    {
      "midi": 67,
      "hit": false,
      "t": 177135.73443750065,
      "d": 28.22575000001234,
      "v": 39
    },
    {
      "midi": 74,
      "hit": false,
      "t": 177269.80675000066,
      "d": 99.79818750001141,
      "v": 30
    },
    {
      "midi": 53,
      "hit": false,
      "t": 177528.87881250068,
      "d": 62.499875000008615,
      "v": 40
    },
    {
      "midi": 54,
      "hit": false,
      "t": 177596.4190000007,
      "d": 68.54825000002165,
      "v": 18
    },
    {
      "midi": 70,
      "hit": false,
      "t": 177614.5641250007,
      "d": 297.3784375000105,
      "v": 48
    },
    {
      "midi": 55,
      "hit": false,
      "t": 177621.6205625007,
      "d": 268.14462500001537,
      "v": 55
    },
    {
      "midi": 60,
      "hit": false,
      "t": 177631.7011875007,
      "d": 220.76568750001024,
      "v": 44
    },
    {
      "midi": 65,
      "hit": false,
      "t": 177634.7253750007,
      "d": 229.8382500000007,
      "v": 53
    },
    {
      "midi": 54,
      "hit": false,
      "t": 177902.87000000072,
      "d": 124.99974999998813,
      "v": 35
    },
    {
      "midi": 55,
      "hit": false,
      "t": 178017.7891250007,
      "d": 246.97531250002794,
      "v": 47
    },
    {
      "midi": 70,
      "hit": false,
      "t": 178017.7891250007,
      "d": 280.24137500004144,
      "v": 55
    },
    {
      "midi": 60,
      "hit": false,
      "t": 178027.8697500007,
      "d": 191.53187500001513,
      "v": 45
    },
    {
      "midi": 65,
      "hit": false,
      "t": 178028.87781250072,
      "d": 188.50768750000861,
      "v": 49
    },
    {
      "midi": 62,
      "hit": false,
      "t": 178396.82062500075,
      "d": 140.12068749999162,
      "v": 44
    },
    {
      "midi": 72,
      "hit": false,
      "t": 178401.86093750075,
      "d": 135.08037499999045,
      "v": 51
    },
    {
      "midi": 65,
      "hit": false,
      "t": 178410.93350000074,
      "d": 146.16906250000466,
      "v": 56
    },
    {
      "midi": 56,
      "hit": false,
      "t": 178416.98187500075,
      "d": 291.33006249999744,
      "v": 36
    },
    {
      "midi": 70,
      "hit": false,
      "t": 178661.94106250076,
      "d": 85.68531249999069,
      "v": 56
    },
    {
      "midi": 60,
      "hit": false,
      "t": 178667.98943750077,
      "d": 34.274124999996275,
      "v": 54
    },
    {
      "midi": 65,
      "hit": false,
      "t": 178673.02975000077,
      "d": 33.2660624999844,
      "v": 54
    },
    {
      "midi": 55,
      "hit": false,
      "t": 178682.10231250076,
      "d": 726.8130625000049,
      "v": 48
    },
    {
      "midi": 56,
      "hit": false,
      "t": 179060.12575000073,
      "d": 72.58050000001094,
      "v": 29
    },
    {
      "midi": 51,
      "hit": false,
      "t": 179390.77025000076,
      "d": 91.73368750000373,
      "v": 57
    },
    {
      "midi": 55,
      "hit": false,
      "t": 179525.85062500075,
      "d": 70.5643749999872,
      "v": 62
    },
    {
      "midi": 58,
      "hit": false,
      "t": 179616.57625000074,
      "d": 112.90300000002026,
      "v": 51
    },
    {
      "midi": 62,
      "hit": false,
      "t": 179728.47118750075,
      "d": 137.0965000000142,
      "v": 47
    },
    {
      "midi": 65,
      "hit": false,
      "t": 179832.30162500075,
      "d": 70.5643750000163,
      "v": 50
    },
    {
      "midi": 58,
      "hit": false,
      "t": 179898.83375000078,
      "d": 114.9191249999858,
      "v": 27
    },
    {
      "midi": 62,
      "hit": false,
      "t": 179937.14012500076,
      "d": 54.43537500000093,
      "v": 57
    },
    {
      "midi": 63,
      "hit": false,
      "t": 180035.93025000076,
      "d": 66.5321249999979,
      "v": 47
    },
    {
      "midi": 67,
      "hit": false,
      "t": 180166.97837500076,
      "d": 101.81431250000605,
      "v": 64
    },
    {
      "midi": 70,
      "hit": false,
      "t": 180267.78462500076,
      "d": 66.5321249999979,
      "v": 55
    },
    {
      "midi": 74,
      "hit": false,
      "t": 180388.75212500076,
      "d": 85.68531249999069,
      "v": 63
    },
    {
      "midi": 65,
      "hit": false,
      "t": 180637.74356250075,
      "d": 27.217687500000466,
      "v": 64
    },
    {
      "midi": 62,
      "hit": false,
      "t": 180637.74356250075,
      "d": 44.3547499999986,
      "v": 53
    },
    {
      "midi": 60,
      "hit": false,
      "t": 180649.84031250075,
      "d": 30.241875000006985,
      "v": 38
    },
    {
      "midi": 61,
      "hit": false,
      "t": 181081.29106250074,
      "d": 160.28193749999627,
      "v": 27
    },
    {
      "midi": 67,
      "hit": false,
      "t": 181091.37168750074,
      "d": 40.32249999998021,
      "v": 44
    },
    {
      "midi": 56,
      "hit": false,
      "t": 181094.39587500074,
      "d": 247.9833749999816,
      "v": 48
    },
    {
      "midi": 65,
      "hit": false,
      "t": 181098.42812500073,
      "d": 24.193499999993946,
      "v": 62
    },
    {
      "midi": 73,
      "hit": false,
      "t": 181104.47650000075,
      "d": 95.76593749999302,
      "v": 56
    },
    {
      "midi": 60,
      "hit": false,
      "t": 181108.50875000074,
      "d": 31.249937499989755,
      "v": 41
    },
    {
      "midi": 75,
      "hit": false,
      "t": 181204.27468750073,
      "d": 119.95943749998696,
      "v": 60
    },
    {
      "midi": 60,
      "hit": false,
      "t": 181204.27468750073,
      "d": 318.5477499999979,
      "v": 20
    },
    {
      "midi": 73,
      "hit": false,
      "t": 181303.06481250073,
      "d": 82.66112499998417,
      "v": 28
    },
    {
      "midi": 72,
      "hit": false,
      "t": 181404.8791250007,
      "d": 41.330562499992084,
      "v": 57
    },
    {
      "midi": 61,
      "hit": false,
      "t": 181421.0081250007,
      "d": 53.42731250001816,
      "v": 23
    },
    {
      "midi": 73,
      "hit": false,
      "t": 181521.81437500071,
      "d": 194.55606250002165,
      "v": 51
    },
    {
      "midi": 75,
      "hit": false,
      "t": 181760.72518750074,
      "d": 96.77399999997579,
      "v": 55
    },
    {
      "midi": 65,
      "hit": false,
      "t": 181779.87837500073,
      "d": 36.29024999999092,
      "v": 50
    },
    {
      "midi": 61,
      "hit": false,
      "t": 181779.87837500073,
      "d": 98.79012499997043,
      "v": 36
    },
    {
      "midi": 60,
      "hit": false,
      "t": 181794.99931250073,
      "d": 41.330562499992084,
      "v": 30
    },
    {
      "midi": 77,
      "hit": false,
      "t": 181932.0958125007,
      "d": 126.0078125,
      "v": 26
    },
    {
      "midi": 79,
      "hit": false,
      "t": 182141.77281250068,
      "d": 102.82237499998882,
      "v": 58
    },
    {
      "midi": 81,
      "hit": false,
      "t": 182297.01443750068,
      "d": 131.04812500000116,
      "v": 50
    },
    {
      "midi": 82,
      "hit": false,
      "t": 182517.7801250007,
      "d": 140.12068750002072,
      "v": 67
    },
    {
      "midi": 62,
      "hit": false,
      "t": 182537.9413750007,
      "d": 38.30637500001467,
      "v": 46
    },
    {
      "midi": 59,
      "hit": false,
      "t": 182537.9413750007,
      "d": 47.37893750000512,
      "v": 54
    },
    {
      "midi": 54,
      "hit": false,
      "t": 182551.0461875007,
      "d": 81.6530625000014,
      "v": 31
    },
    {
      "midi": 83,
      "hit": false,
      "t": 182706.2878125007,
      "d": 142.13681249998626,
      "v": 36
    },
    {
      "midi": 86,
      "hit": false,
      "t": 182917.9809375007,
      "d": 89.71756250000908,
      "v": 71
    },
    {
      "midi": 50,
      "hit": false,
      "t": 182926.0454375007,
      "d": 33.266062500013504,
      "v": 67
    },
    {
      "midi": 74,
      "hit": false,
      "t": 182927.0535000007,
      "d": 91.73368750000373,
      "v": 63
    },
    {
      "midi": 49,
      "hit": false,
      "t": 182954.2711875007,
      "d": 53.42731249998906,
      "v": 31
    },
    {
      "midi": 82,
      "hit": false,
      "t": 183093.38381250072,
      "d": 126.0078125,
      "v": 35
    },
    {
      "midi": 83,
      "hit": false,
      "t": 183227.45612500072,
      "d": 52.419250000006286,
      "v": 45
    },
    {
      "midi": 86,
      "hit": false,
      "t": 183316.16562500072,
      "d": 93.74981249999837,
      "v": 74
    },
    {
      "midi": 74,
      "hit": false,
      "t": 183335.31881250071,
      "d": 152.2174375000177,
      "v": 55
    },
    {
      "midi": 82,
      "hit": false,
      "t": 183510.72168750074,
      "d": 43.34668749998673,
      "v": 18
    },
    {
      "midi": 83,
      "hit": false,
      "t": 183586.32637500073,
      "d": 43.34668749998673,
      "v": 36
    },
    {
      "midi": 86,
      "hit": false,
      "t": 183672.01168750072,
      "d": 73.58856249999371,
      "v": 63
    },
    {
      "midi": 64,
      "hit": false,
      "t": 183728.46318750072,
      "d": 37.298312500002794,
      "v": 31
    },
    {
      "midi": 59,
      "hit": false,
      "t": 183748.62443750072,
      "d": 45.36281250001048,
      "v": 34
    },
    {
      "midi": 78,
      "hit": false,
      "t": 183797.01143750074,
      "d": 256.0478749999893,
      "v": 55
    },
    {
      "midi": 74,
      "hit": false,
      "t": 184063.13993750073,
      "d": 78.62887499999488,
      "v": 71
    },
    {
      "midi": 59,
      "hit": false,
      "t": 184078.26087500073,
      "d": 140.12068749999162,
      "v": 36
    },
    {
      "midi": 71,
      "hit": false,
      "t": 184226.44606250073,
      "d": 164.31418749998556,
      "v": 33
    },
    {
      "midi": 71,
      "hit": false,
      "t": 184457.29237500072,
      "d": 74.59662500000559,
      "v": 56
    },
    {
      "midi": 59,
      "hit": false,
      "t": 184477.45362500072,
      "d": 36.29024999999092,
      "v": 29
    },
    {
      "midi": 56,
      "hit": false,
      "t": 184523.82450000072,
      "d": 40.32250000000931,
      "v": 25
    },
    {
      "midi": 66,
      "hit": false,
      "t": 184586.32437500072,
      "d": 138.10456249999697,
      "v": 56
    },
    {
      "midi": 66,
      "hit": false,
      "t": 184840.35612500072,
      "d": 60.483749999984866,
      "v": 62
    },
    {
      "midi": 49,
      "hit": false,
      "t": 184842.3722500007,
      "d": 51.41118749999441,
      "v": 60
    },
    {
      "midi": 50,
      "hit": false,
      "t": 184858.5012500007,
      "d": 816.5306249999849,
      "v": 78
    },
    {
      "midi": 62,
      "hit": false,
      "t": 185017.7751250007,
      "d": 211.6931249999907,
      "v": 25
    },
    {
      "midi": 62,
      "hit": false,
      "t": 185305.0729375007,
      "d": 122.98362499999348,
      "v": 59
    },
    {
      "midi": 49,
      "hit": false,
      "t": 185629.66906250067,
      "d": 98.79012499999953,
      "v": 35
    },
    {
      "midi": 59,
      "hit": false,
      "t": 185654.87062500068,
      "d": 37.298312500002794,
      "v": 30
    },
    {
      "midi": 67,
      "hit": false,
      "t": 185746.60431250068,
      "d": 335.68481249999604,
      "v": 53
    },
    {
      "midi": 59,
      "hit": false,
      "t": 185753.66075000068,
      "d": 285.2816874999844,
      "v": 58
    },
    {
      "midi": 52,
      "hit": false,
      "t": 185753.66075000068,
      "d": 381.0476250000065,
      "v": 60
    },
    {
      "midi": 62,
      "hit": false,
      "t": 185757.69300000067,
      "d": 304.4348750000063,
      "v": 58
    },
    {
      "midi": 64,
      "hit": false,
      "t": 185783.90262500066,
      "d": 230.84631250001257,
      "v": 37
    },
    {
      "midi": 59,
      "hit": false,
      "t": 186131.68418750068,
      "d": 108.87075000000186,
      "v": 33
    },
    {
      "midi": 64,
      "hit": false,
      "t": 186136.72450000068,
      "d": 108.87075000000186,
      "v": 35
    },
    {
      "midi": 50,
      "hit": false,
      "t": 186148.82125000068,
      "d": 132.05618750001304,
      "v": 45
    },
    {
      "midi": 67,
      "hit": false,
      "t": 186394.7885000007,
      "d": 137.0965000000142,
      "v": 59
    },
    {
      "midi": 58,
      "hit": false,
      "t": 186404.8691250007,
      "d": 142.13681250001537,
      "v": 69
    },
    {
      "midi": 61,
      "hit": false,
      "t": 186416.9658750007,
      "d": 135.08037500001956,
      "v": 51
    },
    {
      "midi": 64,
      "hit": false,
      "t": 186417.9739375007,
      "d": 121.97556250001071,
      "v": 50
    },
    {
      "midi": 57,
      "hit": false,
      "t": 186439.14325000072,
      "d": 79.63693749997765,
      "v": 40
    },
    {
      "midi": 55,
      "hit": false,
      "t": 186443.1755000007,
      "d": 277.2171875000058,
      "v": 42
    },
    {
      "midi": 61,
      "hit": false,
      "t": 186798.01350000073,
      "d": 73.58856250002282,
      "v": 57
    },
    {
      "midi": 64,
      "hit": false,
      "t": 186801.03768750074,
      "d": 75.60468750001746,
      "v": 68
    },
    {
      "midi": 67,
      "hit": false,
      "t": 186806.07800000074,
      "d": 108.87075000000186,
      "v": 46
    },
    {
      "midi": 71,
      "hit": false,
      "t": 186816.15862500074,
      "d": 38.30637500001467,
      "v": 44
    },
    {
      "midi": 70,
      "hit": false,
      "t": 186821.19893750074,
      "d": 114.9191249999858,
      "v": 13
    },
    {
      "midi": 60,
      "hit": false,
      "t": 187162.93212500072,
      "d": 132.05618750001304,
      "v": 66
    },
    {
      "midi": 65,
      "hit": false,
      "t": 187167.97243750072,
      "d": 67.54018750000978,
      "v": 68
    },
    {
      "midi": 69,
      "hit": false,
      "t": 187172.0046875007,
      "d": 72.58050000001094,
      "v": 64
    },
    {
      "midi": 57,
      "hit": false,
      "t": 187174.0208125007,
      "d": 73.58856250002282,
      "v": 51
    },
    {
      "midi": 50,
      "hit": false,
      "t": 187177.0450000007,
      "d": 43.34668750001583,
      "v": 27
    },
    {
      "midi": 53,
      "hit": false,
      "t": 187187.1256250007,
      "d": 43.34668750001583,
      "v": 32
    },
    {
      "midi": 76,
      "hit": false,
      "t": 187550.02812500074,
      "d": 112.90299999999115,
      "v": 59
    },
    {
      "midi": 69,
      "hit": false,
      "t": 187552.04425000073,
      "d": 81.6530625000014,
      "v": 66
    },
    {
      "midi": 60,
      "hit": false,
      "t": 187555.06843750074,
      "d": 200.6044375000056,
      "v": 62
    },
    {
      "midi": 65,
      "hit": false,
      "t": 187559.10068750073,
      "d": 44.3547499999986,
      "v": 58
    },
    {
      "midi": 72,
      "hit": false,
      "t": 187560.10875000074,
      "d": 78.62887499999488,
      "v": 55
    },
    {
      "midi": 54,
      "hit": false,
      "t": 187564.14100000073,
      "d": 385.0798750000249,
      "v": 56
    },
    {
      "midi": 64,
      "hit": false,
      "t": 187938.13218750074,
      "d": 76.61275000002934,
      "v": 62
    },
    {
      "midi": 79,
      "hit": false,
      "t": 187939.14025000075,
      "d": 97.78206250001676,
      "v": 61
    },
    {
      "midi": 67,
      "hit": false,
      "t": 187943.17250000077,
      "d": 53.42731249998906,
      "v": 58
    },
    {
      "midi": 59,
      "hit": false,
      "t": 187947.20475000076,
      "d": 161.29000000000815,
      "v": 56
    },
    {
      "midi": 53,
      "hit": false,
      "t": 187952.24506250076,
      "d": 133.0642499999958,
      "v": 50
    },
    {
      "midi": 76,
      "hit": false,
      "t": 187964.34181250076,
      "d": 52.419250000006286,
      "v": 57
    },
    {
      "midi": 75,
      "hit": false,
      "t": 188314.13950000078,
      "d": 106.85462500003632,
      "v": 86
    },
    {
      "midi": 63,
      "hit": false,
      "t": 188325.2281875008,
      "d": 390.1201875000261,
      "v": 77
    },
    {
      "midi": 71,
      "hit": false,
      "t": 188326.2362500008,
      "d": 409.27337500001886,
      "v": 74
    },
    {
      "midi": 53,
      "hit": false,
      "t": 188327.2443125008,
      "d": 308.4671249999956,
      "v": 66
    },
    {
      "midi": 83,
      "hit": false,
      "t": 188329.2604375008,
      "d": 443.54750000001513,
      "v": 66
    },
    {
      "midi": 59,
      "hit": false,
      "t": 188334.3007500008,
      "d": 348.7896250000049,
      "v": 61
    },
    {
      "midi": 56,
      "hit": false,
      "t": 188342.36525000082,
      "d": 341.7331875000091,
      "v": 42
    },
    {
      "midi": 76,
      "hit": false,
      "t": 188442.1634375008,
      "d": 307.4590625000128,
      "v": 27
    },
    {
      "midi": 84,
      "hit": false,
      "t": 188855.46906250084,
      "d": 191.53187499998603,
      "v": 68
    },
    {
      "midi": 65,
      "hit": false,
      "t": 188859.50131250083,
      "d": 179.43512499998906,
      "v": 69
    },
    {
      "midi": 55,
      "hit": false,
      "t": 188861.51743750082,
      "d": 189.51574999999139,
      "v": 63
    },
    {
      "midi": 72,
      "hit": false,
      "t": 188862.52550000083,
      "d": 88.7094999999972,
      "v": 61
    },
    {
      "midi": 60,
      "hit": false,
      "t": 188864.54162500083,
      "d": 205.64475000000675,
      "v": 60
    },
    {
      "midi": 57,
      "hit": false,
      "t": 188874.62225000083,
      "d": 189.51574999999139,
      "v": 57
    },
    {
      "midi": 93,
      "hit": false,
      "t": 189243.5731250008,
      "d": 240.926937500044,
      "v": 90
    },
    {
      "midi": 81,
      "hit": false,
      "t": 189245.5892500008,
      "d": 263.1043125000433,
      "v": 79
    },
    {
      "midi": 55,
      "hit": false,
      "t": 189248.6134375008,
      "d": 253.02368750004098,
      "v": 71
    },
    {
      "midi": 65,
      "hit": false,
      "t": 189249.62150000082,
      "d": 234.87856250003097,
      "v": 81
    },
    {
      "midi": 90,
      "hit": false,
      "t": 189251.63762500082,
      "d": 224.79793750002864,
      "v": 60
    },
    {
      "midi": 88,
      "hit": false,
      "t": 189251.63762500082,
      "d": 233.8705000000482,
      "v": 80
    },
    {
      "midi": 60,
      "hit": false,
      "t": 189252.64568750083,
      "d": 249.99950000003446,
      "v": 67
    },
    {
      "midi": 57,
      "hit": false,
      "t": 189261.71825000082,
      "d": 244.9591875000333,
      "v": 55
    },
    {
      "midi": 83,
      "hit": false,
      "t": 189267.76662500083,
      "d": 28.22575000001234,
      "v": 46
    },
    {
      "midi": 59,
      "hit": false,
      "t": 189632.68525000085,
      "d": 145.16099999999278,
      "v": 51
    },
    {
      "midi": 64,
      "hit": false,
      "t": 189636.71750000084,
      "d": 126.0078125,
      "v": 55
    },
    {
      "midi": 53,
      "hit": false,
      "t": 189645.79006250083,
      "d": 102.82237500001793,
      "v": 45
    },
    {
      "midi": 91,
      "hit": false,
      "t": 189646.79812500085,
      "d": 92.7417500000156,
      "v": 53
    },
    {
      "midi": 79,
      "hit": false,
      "t": 189654.86262500085,
      "d": 48.387000000017,
      "v": 40
    },
    {
      "midi": 86,
      "hit": false,
      "t": 189662.92712500086,
      "d": 74.59662500000559,
      "v": 50
    },
    {
      "midi": 98,
      "hit": false,
      "t": 189919.98306250083,
      "d": 141.1287500000908,
      "v": 66
    },
    {
      "midi": 91,
      "hit": false,
      "t": 189928.04756250084,
      "d": 115.92718750005588,
      "v": 70
    },
    {
      "midi": 59,
      "hit": false,
      "t": 189929.05562500085,
      "d": 316.53162500006147,
      "v": 64
    },
    {
      "midi": 63,
      "hit": false,
      "t": 189934.09593750085,
      "d": 223.78987500007497,
      "v": 76
    },
    {
      "midi": 53,
      "hit": false,
      "t": 189935.10400000087,
      "d": 212.70118750006077,
      "v": 72
    },
    {
      "midi": 86,
      "hit": false,
      "t": 189938.12818750087,
      "d": 151.20937500006403,
      "v": 55
    },
    {
      "midi": 56,
      "hit": false,
      "t": 189939.13625000088,
      "d": 287.29781250003725,
      "v": 49
    },
    {
      "midi": 59,
      "hit": false,
      "t": 190293.9742500009,
      "d": 234.87856250003097,
      "v": 27
    },
    {
      "midi": 62,
      "hit": false,
      "t": 190301.0306875009,
      "d": 176.41093750001164,
      "v": 68
    },
    {
      "midi": 95,
      "hit": false,
      "t": 190302.0387500009,
      "d": 116.93525000000955,
      "v": 74
    },
    {
      "midi": 88,
      "hit": false,
      "t": 190307.0790625009,
      "d": 118.95137500000419,
      "v": 64
    },
    {
      "midi": 83,
      "hit": false,
      "t": 190308.08712500092,
      "d": 149.19324999998207,
      "v": 54
    },
    {
      "midi": 91,
      "hit": false,
      "t": 190312.1193750009,
      "d": 98.79012499999953,
      "v": 52
    },
    {
      "midi": 55,
      "hit": false,
      "t": 190312.1193750009,
      "d": 169.35450000001583,
      "v": 55
    },
    {
      "midi": 52,
      "hit": false,
      "t": 190327.24031250092,
      "d": 153.22550000000047,
      "v": 49
    },
    {
      "midi": 91,
      "hit": false,
      "t": 190682.07831250093,
      "d": 79.63693749997765,
      "v": 65
    },
    {
      "midi": 59,
      "hit": false,
      "t": 190682.07831250093,
      "d": 165.32224999996834,
      "v": 54
    },
    {
      "midi": 86,
      "hit": false,
      "t": 190692.15893750094,
      "d": 73.58856249996461,
      "v": 65
    },
    {
      "midi": 62,
      "hit": false,
      "t": 190692.15893750094,
      "d": 249.99949999997625,
      "v": 68
    },
    {
      "midi": 55,
      "hit": false,
      "t": 190694.17506250093,
      "d": 121.9755624999816,
      "v": 47
    },
    {
      "midi": 52,
      "hit": false,
      "t": 190698.20731250092,
      "d": 128.02393749999464,
      "v": 50
    },
    {
      "midi": 79,
      "hit": false,
      "t": 190702.2395625009,
      "d": 66.5321249999979,
      "v": 44
    },
    {
      "midi": 88,
      "hit": false,
      "t": 191061.10981250092,
      "d": 78.62887500005309,
      "v": 63
    },
    {
      "midi": 76,
      "hit": false,
      "t": 191067.15818750093,
      "d": 62.49987500003772,
      "v": 60
    },
    {
      "midi": 64,
      "hit": false,
      "t": 191070.18237500094,
      "d": 69.55631250003353,
      "v": 66
    },
    {
      "midi": 53,
      "hit": false,
      "t": 191071.19043750095,
      "d": 106.85462500000722,
      "v": 53
    },
    {
      "midi": 81,
      "hit": false,
      "t": 191075.22268750094,
      "d": 46.37087500002235,
      "v": 54
    },
    {
      "midi": 60,
      "hit": false,
      "t": 191082.27912500093,
      "d": 88.70950000002631,
      "v": 50
    },
    {
      "midi": 84,
      "hit": false,
      "t": 191085.30331250094,
      "d": 28.22575000001234,
      "v": 39
    },
    {
      "midi": 57,
      "hit": false,
      "t": 191085.30331250094,
      "d": 95.76593750002212,
      "v": 55
    },
    {
      "midi": 84,
      "hit": false,
      "t": 191442.15743750098,
      "d": 136.08843750000233,
      "v": 55
    },
    {
      "midi": 79,
      "hit": false,
      "t": 191450.221937501,
      "d": 160.28193749996717,
      "v": 50
    },
    {
      "midi": 64,
      "hit": false,
      "t": 191450.221937501,
      "d": 292.3381250000093,
      "v": 63
    },
    {
      "midi": 72,
      "hit": false,
      "t": 191452.23806250098,
      "d": 208.66893749998417,
      "v": 50
    },
    {
      "midi": 53,
      "hit": false,
      "t": 191459.29450000098,
      "d": 217.74150000000373,
      "v": 44
    },
    {
      "midi": 60,
      "hit": false,
      "t": 191459.29450000098,
      "d": 220.76568750001024,
      "v": 48
    },
    {
      "midi": 57,
      "hit": false,
      "t": 191460.302562501,
      "d": 211.6931249999907,
      "v": 48
    },
    {
      "midi": 61,
      "hit": false,
      "t": 191843.366312501,
      "d": 105.84656249999534,
      "v": 33
    },
    {
      "midi": 76,
      "hit": false,
      "t": 191944.172562501,
      "d": 143.14487500002724,
      "v": 58
    },
    {
      "midi": 69,
      "hit": false,
      "t": 191951.22900000098,
      "d": 167.3383750000212,
      "v": 59
    },
    {
      "midi": 65,
      "hit": false,
      "t": 191952.237062501,
      "d": 170.3625624999986,
      "v": 57
    },
    {
      "midi": 71,
      "hit": false,
      "t": 191953.245125001,
      "d": 178.42706249997718,
      "v": 50
    },
    {
      "midi": 64,
      "hit": false,
      "t": 191967.35800000103,
      "d": 230.84631249995437,
      "v": 68
    },
    {
      "midi": 63,
      "hit": false,
      "t": 192199.212375001,
      "d": 118.95137499997509,
      "v": 58
    },
    {
      "midi": 75,
      "hit": false,
      "t": 192208.28493750098,
      "d": 108.87074999997276,
      "v": 65
    },
    {
      "midi": 65,
      "hit": false,
      "t": 192209.293000001,
      "d": 344.7573749999865,
      "v": 58
    },
    {
      "midi": 71,
      "hit": false,
      "t": 192230.46231250098,
      "d": 45.36281249998137,
      "v": 24
    },
    {
      "midi": 69,
      "hit": false,
      "t": 192232.47843750098,
      "d": 220.76568749998114,
      "v": 34
    },
    {
      "midi": 62,
      "hit": false,
      "t": 192352.43787500096,
      "d": 183.46737500000745,
      "v": 32
    },
    {
      "midi": 56,
      "hit": false,
      "t": 192586.30837500098,
      "d": 91.73368750000373,
      "v": 37
    },
    {
      "midi": 72,
      "hit": false,
      "t": 192700.219437501,
      "d": 162.29806249996182,
      "v": 55
    },
    {
      "midi": 62,
      "hit": false,
      "t": 192707.27587500098,
      "d": 222.78181249997579,
      "v": 44
    },
    {
      "midi": 59,
      "hit": false,
      "t": 192707.27587500098,
      "d": 277.2171874999767,
      "v": 40
    },
    {
      "midi": 68,
      "hit": false,
      "t": 192711.30812500097,
      "d": 220.76568749998114,
      "v": 37
    },
    {
      "midi": 65,
      "hit": false,
      "t": 192732.47743750096,
      "d": 214.7173124999972,
      "v": 44
    },
    {
      "midi": 54,
      "hit": false,
      "t": 192998.60593750095,
      "d": 76.61275000000023,
      "v": 30
    },
    {
      "midi": 62,
      "hit": false,
      "t": 193090.33962500095,
      "d": 221.77375000002212,
      "v": 44
    },
    {
      "midi": 65,
      "hit": false,
      "t": 193091.34768750097,
      "d": 216.73343750002095,
      "v": 54
    },
    {
      "midi": 56,
      "hit": false,
      "t": 193092.35575000098,
      "d": 383.06374999997206,
      "v": 33
    },
    {
      "midi": 68,
      "hit": false,
      "t": 193095.37993750098,
      "d": 251.00756249998813,
      "v": 30
    },
    {
      "midi": 71,
      "hit": false,
      "t": 193100.42025000099,
      "d": 272.17687499997555,
      "v": 24
    },
    {
      "midi": 54,
      "hit": false,
      "t": 193355.46006250096,
      "d": 123.99168749997625,
      "v": 25
    },
    {
      "midi": 69,
      "hit": false,
      "t": 193485.50012500095,
      "d": 94.75787500001024,
      "v": 44
    },
    {
      "midi": 64,
      "hit": false,
      "t": 193486.50818750096,
      "d": 112.90299999999115,
      "v": 40
    },
    {
      "midi": 60,
      "hit": false,
      "t": 193499.61300000097,
      "d": 154.23356249998324,
      "v": 28
    },
    {
      "midi": 57,
      "hit": false,
      "t": 193503.64525000096,
      "d": 141.1287500000035,
      "v": 31
    },
    {
      "midi": 49,
      "hit": false,
      "t": 193734.49156250095,
      "d": 101.81431250000605,
      "v": 38
    },
    {
      "midi": 50,
      "hit": false,
      "t": 193812.11237500096,
      "d": 36.29024999999092,
      "v": 45
    },
    {
      "midi": 51,
      "hit": false,
      "t": 193867.55581250094,
      "d": 54.435375000030035,
      "v": 35
    },
    {
      "midi": 57,
      "hit": false,
      "t": 193877.63643750094,
      "d": 165.32225000002654,
      "v": 46
    },
    {
      "midi": 52,
      "hit": false,
      "t": 193878.64450000096,
      "d": 255.03981250000652,
      "v": 45
    },
    {
      "midi": 67,
      "hit": false,
      "t": 193886.70900000096,
      "d": 89.71756250000908,
      "v": 18
    },
    {
      "midi": 60,
      "hit": false,
      "t": 193886.70900000096,
      "d": 248.99143749999348,
      "v": 49
    },
    {
      "midi": 64,
      "hit": false,
      "t": 193896.78962500097,
      "d": 67.54018750000978,
      "v": 25
    },
    {
      "midi": 48,
      "hit": false,
      "t": 194158.88587500097,
      "d": 76.61275000000023,
      "v": 54
    },
    {
      "midi": 54,
      "hit": false,
      "t": 194257.67600000097,
      "d": 301.41068749999977,
      "v": 59
    },
    {
      "midi": 50,
      "hit": false,
      "t": 194271.78887500096,
      "d": 473.7893750000512,
      "v": 58
    },
    {
      "midi": 66,
      "hit": false,
      "t": 194274.81306250097,
      "d": 442.53943750003236,
      "v": 33
    },
    {
      "midi": 60,
      "hit": false,
      "t": 194278.84531250095,
      "d": 394.15243750004447,
      "v": 48
    },
    {
      "midi": 62,
      "hit": false,
      "t": 194291.95012500096,
      "d": 352.8218750000233,
      "v": 34
    },
    {
      "midi": 38,
      "hit": false,
      "t": 194529.85287500097,
      "d": 76.61275000000023,
      "v": 66
    },
    {
      "midi": 50,
      "hit": false,
      "t": 194927.02950000102,
      "d": 132.05618749998393,
      "v": 53
    },
    {
      "midi": 55,
      "hit": false,
      "t": 195042.95668750102,
      "d": 112.90299999999115,
      "v": 34
    },
    {
      "midi": 50,
      "hit": false,
      "t": 195322.19000000102,
      "d": 67.54018750000978,
      "v": 35
    },
    {
      "midi": 55,
      "hit": false,
      "t": 195424.00431250103,
      "d": 36.29024999999092,
      "v": 69
    },
    {
      "midi": 55,
      "hit": false,
      "t": 195509.68962500102,
      "d": 56.451499999995576,
      "v": 71
    },
    {
      "midi": 50,
      "hit": false,
      "t": 195734.48756250102,
      "d": 52.419250000006286,
      "v": 41
    },
    {
      "midi": 55,
      "hit": false,
      "t": 195829.24543750103,
      "d": 34.274124999996275,
      "v": 73
    },
    {
      "midi": 55,
      "hit": false,
      "t": 195927.02750000102,
      "d": 28.22575000001234,
      "v": 73
    },
    {
      "midi": 55,
      "hit": false,
      "t": 196115.53518750102,
      "d": 56.451499999995576,
      "v": 87
    },
    {
      "midi": 55,
      "hit": false,
      "t": 196335.29281250102,
      "d": 69.55631250000442,
      "v": 83
    },
    {
      "midi": 43,
      "hit": false,
      "t": 196528.84081250103,
      "d": 46.37087499999325,
      "v": 36
    },
    {
      "midi": 56,
      "hit": false,
      "t": 196607.46968750103,
      "d": 139.11262500000885,
      "v": 79
    },
    {
      "midi": 58,
      "hit": false,
      "t": 196625.61481250104,
      "d": 144.15293750001,
      "v": 62
    },
    {
      "midi": 56,
      "hit": false,
      "t": 196829.24343750105,
      "d": 81.6530625000014,
      "v": 62
    },
    {
      "midi": 58,
      "hit": false,
      "t": 196839.32406250105,
      "d": 118.95137500000419,
      "v": 53
    },
    {
      "midi": 43,
      "hit": false,
      "t": 197208.27493750106,
      "d": 36.29024999999092,
      "v": 55
    },
    {
      "midi": 55,
      "hit": false,
      "t": 197228.43618750107,
      "d": 29.23381249999511,
      "v": 67
    },
    {
      "midi": 55,
      "hit": false,
      "t": 197574.20162500106,
      "d": 414.3136874999909,
      "v": 68
    },
    {
      "midi": 56,
      "hit": false,
      "t": 197576.21775000106,
      "d": 442.53943750000326,
      "v": 62
    },
    {
      "midi": 65,
      "hit": false,
      "t": 197581.25806250106,
      "d": 422.3781874999986,
      "v": 74
    },
    {
      "midi": 61,
      "hit": false,
      "t": 197586.29837500106,
      "d": 445.5636250000098,
      "v": 55
    },
    {
      "midi": 65,
      "hit": false,
      "t": 198040.93456250106,
      "d": 68.54824999999255,
      "v": 35
    },
    {
      "midi": 55,
      "hit": false,
      "t": 198084.28125000105,
      "d": 74.59662500000559,
      "v": 29
    },
    {
      "midi": 60,
      "hit": false,
      "t": 198085.28931250106,
      "d": 90.72562499999185,
      "v": 32
    },
    {
      "midi": 67,
      "hit": false,
      "t": 198136.70050000105,
      "d": 67.54018750000978,
      "v": 81
    },
    {
      "midi": 67,
      "hit": false,
      "t": 198251.61962500107,
      "d": 93.74981249999837,
      "v": 60
    },
    {
      "midi": 67,
      "hit": false,
      "t": 198515.73200000107,
      "d": 155.2416249999951,
      "v": 69
    },
    {
      "midi": 60,
      "hit": false,
      "t": 198800.00562500107,
      "d": 38.306374999985565,
      "v": 29
    },
    {
      "midi": 81,
      "hit": false,
      "t": 198908.87637500104,
      "d": 221.77375000002212,
      "v": 62
    },
    {
      "midi": 79,
      "hit": false,
      "t": 198909.88443750105,
      "d": 273.1849374999874,
      "v": 55
    },
    {
      "midi": 64,
      "hit": false,
      "t": 199149.80331250106,
      "d": 342.74124999999185,
      "v": 74
    },
    {
      "midi": 59,
      "hit": false,
      "t": 199153.83556250104,
      "d": 432.45881250000093,
      "v": 61
    },
    {
      "midi": 53,
      "hit": false,
      "t": 199163.91618750105,
      "d": 326.6122500000056,
      "v": 60
    },
    {
      "midi": 62,
      "hit": false,
      "t": 199643.75393750105,
      "d": 31.249937499989755,
      "v": 34
    },
    {
      "midi": 74,
      "hit": false,
      "t": 199653.83456250106,
      "d": 310.4832500000193,
      "v": 64
    },
    {
      "midi": 79,
      "hit": false,
      "t": 199657.86681250104,
      "d": 286.2897500000254,
      "v": 46
    },
    {
      "midi": 52,
      "hit": false,
      "t": 199658.87487500106,
      "d": 93.74981249999837,
      "v": 38
    },
    {
      "midi": 67,
      "hit": false,
      "t": 199665.93131250105,
      "d": 300.402625000017,
      "v": 53
    },
    {
      "midi": 55,
      "hit": false,
      "t": 199936.09206250106,
      "d": 648.18418750001,
      "v": 80
    },
    {
      "midi": 54,
      "hit": false,
      "t": 199949.19687500107,
      "d": 64.51600000000326,
      "v": 46
    },
    {
      "midi": 74,
      "hit": false,
      "t": 200453.22812500107,
      "d": 93.74981249999837,
      "v": 52
    },
    {
      "midi": 67,
      "hit": false,
      "t": 200456.25231250108,
      "d": 50.40312499998254,
      "v": 47
    },
    {
      "midi": 79,
      "hit": false,
      "t": 200460.28456250107,
      "d": 76.61275000000023,
      "v": 36
    },
    {
      "midi": 51,
      "hit": false,
      "t": 200823.18706250106,
      "d": 269.15268750002724,
      "v": 37
    },
    {
      "midi": 66,
      "hit": false,
      "t": 200837.29993750105,
      "d": 216.73343750005006,
      "v": 62
    },
    {
      "midi": 78,
      "hit": false,
      "t": 200843.34831250107,
      "d": 191.53187500001513,
      "v": 56
    },
    {
      "midi": 73,
      "hit": false,
      "t": 200844.35637500108,
      "d": 203.6286250000121,
      "v": 38
    },
    {
      "midi": 72,
      "hit": false,
      "t": 201117.5413125011,
      "d": 352.8218749999942,
      "v": 55
    },
    {
      "midi": 57,
      "hit": false,
      "t": 201120.5655000011,
      "d": 248.99143749999348,
      "v": 43
    },
    {
      "midi": 50,
      "hit": false,
      "t": 201120.5655000011,
      "d": 252.015625,
      "v": 51
    },
    {
      "midi": 60,
      "hit": false,
      "t": 201121.57356250111,
      "d": 310.4832499999902,
      "v": 39
    },
    {
      "midi": 65,
      "hit": false,
      "t": 201123.5896875011,
      "d": 150.20131249999395,
      "v": 54
    },
    {
      "midi": 77,
      "hit": false,
      "t": 201123.5896875011,
      "d": 383.06374999997206,
      "v": 38
    },
    {
      "midi": 75,
      "hit": false,
      "t": 202031.85400000107,
      "d": 69.55631250000442,
      "v": 58
    },
    {
      "midi": 59,
      "hit": false,
      "t": 202031.85400000107,
      "d": 86.69337500000256,
      "v": 45
    },
    {
      "midi": 83,
      "hit": false,
      "t": 202031.85400000107,
      "d": 96.77400000000489,
      "v": 49
    },
    {
      "midi": 64,
      "hit": false,
      "t": 202036.89431250107,
      "d": 54.43537500000093,
      "v": 53
    },
    {
      "midi": 71,
      "hit": false,
      "t": 202044.95881250108,
      "d": 36.29024999999092,
      "v": 43
    },
    {
      "midi": 62,
      "hit": false,
      "t": 202677.01400000107,
      "d": 75.60468750007567,
      "v": 71
    },
    {
      "midi": 59,
      "hit": false,
      "t": 202685.07850000108,
      "d": 77.62081250007031,
      "v": 47
    },
    {
      "midi": 86,
      "hit": false,
      "t": 202685.07850000108,
      "d": 91.73368750009104,
      "v": 77
    },
    {
      "midi": 74,
      "hit": false,
      "t": 202688.1026875011,
      "d": 77.62081250007031,
      "v": 75
    },
    {
      "midi": 79,
      "hit": false,
      "t": 202691.1268750011,
      "d": 67.54018750006799,
      "v": 65
    },
    {
      "midi": 52,
      "hit": false,
      "t": 202694.1510625011,
      "d": 58.46762500004843,
      "v": 43
    },
    {
      "midi": 83,
      "hit": false,
      "t": 202700.1994375011,
      "d": 29.233812500024214,
      "v": 48
    },
    {
      "midi": 55,
      "hit": false,
      "t": 202701.20750000112,
      "d": 45.36281250001048,
      "v": 44
    },
    {
      "midi": 62,
      "hit": false,
      "t": 202927.01350000117,
      "d": 61.49181249996764,
      "v": 45
    },
    {
      "midi": 83,
      "hit": false,
      "t": 202934.06993750116,
      "d": 77.620812499983,
      "v": 43
    },
    {
      "midi": 59,
      "hit": false,
      "t": 202936.08606250116,
      "d": 55.4434374999837,
      "v": 33
    },
    {
      "midi": 76,
      "hit": false,
      "t": 202954.23118750117,
      "d": 47.37893749997602,
      "v": 29
    },
    {
      "midi": 79,
      "hit": false,
      "t": 202958.26343750115,
      "d": 36.29024999999092,
      "v": 32
    },
    {
      "midi": 71,
      "hit": false,
      "t": 202962.29568750114,
      "d": 50.40312500001164,
      "v": 19
    },
    {
      "midi": 79,
      "hit": false,
      "t": 203180.03718750115,
      "d": 80.64499999998952,
      "v": 29
    },
    {
      "midi": 62,
      "hit": false,
      "t": 203188.10168750116,
      "d": 58.46762499999022,
      "v": 35
    },
    {
      "midi": 59,
      "hit": false,
      "t": 203190.11781250115,
      "d": 61.49181249999674,
      "v": 34
    },
    {
      "midi": 67,
      "hit": false,
      "t": 203193.14200000116,
      "d": 44.3547499999986,
      "v": 39
    },
    {
      "midi": 76,
      "hit": false,
      "t": 203452.21406250112,
      "d": 831.6515624999884,
      "v": 41
    },
    {
      "midi": 64,
      "hit": false,
      "t": 203456.2463125011,
      "d": 566.5311250000086,
      "v": 58
    },
    {
      "midi": 60,
      "hit": false,
      "t": 203458.2624375011,
      "d": 515.1199375000142,
      "v": 33
    },
    {
      "midi": 57,
      "hit": false,
      "t": 203467.3350000011,
      "d": 501.0070625000226,
      "v": 30
    },
    {
      "midi": 53,
      "hit": false,
      "t": 203482.4559375011,
      "d": 462.7006875000079,
      "v": 24
    },
    {
      "midi": 64,
      "hit": false,
      "t": 204334.26875000112,
      "d": 519.1521874999744,
      "v": 41
    },
    {
      "midi": 57,
      "hit": false,
      "t": 204341.32518750112,
      "d": 530.2408749999886,
      "v": 37
    },
    {
      "midi": 62,
      "hit": false,
      "t": 204347.37356250113,
      "d": 512.0957499999786,
      "v": 33
    },
    {
      "midi": 69,
      "hit": false,
      "t": 204354.43000000113,
      "d": 44.3547499999986,
      "v": 59
    },
    {
      "midi": 71,
      "hit": false,
      "t": 204435.07500000112,
      "d": 67.54018750000978,
      "v": 62
    },
    {
      "midi": 71,
      "hit": false,
      "t": 204574.18762500113,
      "d": 119.95943749998696,
      "v": 54
    },
    {
      "midi": 72,
      "hit": false,
      "t": 204709.26800000112,
      "d": 64.51600000000326,
      "v": 74
    },
    {
      "midi": 72,
      "hit": false,
      "t": 204810.0742500011,
      "d": 54.43537500000093,
      "v": 61
    },
    {
      "midi": 74,
      "hit": false,
      "t": 204890.7192500011,
      "d": 38.306374999985565,
      "v": 60
    },
    {
      "midi": 74,
      "hit": false,
      "t": 204969.3481250011,
      "d": 46.37087499999325,
      "v": 58
    },
    {
      "midi": 76,
      "hit": false,
      "t": 205034.87218750108,
      "d": 42.33862500000396,
      "v": 67
    },
    {
      "midi": 76,
      "hit": false,
      "t": 205109.4688125011,
      "d": 63.50793750002049,
      "v": 54
    },
    {
      "midi": 62,
      "hit": false,
      "t": 205120.5575000011,
      "d": 524.1925000000047,
      "v": 30
    },
    {
      "midi": 56,
      "hit": false,
      "t": 205125.5978125011,
      "d": 533.2650624999951,
      "v": 20
    },
    {
      "midi": 77,
      "hit": false,
      "t": 205183.0573750011,
      "d": 43.34668749998673,
      "v": 58
    },
    {
      "midi": 77,
      "hit": false,
      "t": 205270.7588125011,
      "d": 61.49181249999674,
      "v": 43
    },
    {
      "midi": 79,
      "hit": false,
      "t": 205338.2990000011,
      "d": 35.28218750000815,
      "v": 59
    },
    {
      "midi": 79,
      "hit": false,
      "t": 205420.96012500112,
      "d": 36.29024999999092,
      "v": 54
    },
    {
      "midi": 56,
      "hit": false,
      "t": 205735.4756250011,
      "d": 131.04812500000116,
      "v": 44
    },
    {
      "midi": 62,
      "hit": false,
      "t": 205746.5643125011,
      "d": 32.25800000000163,
      "v": 32
    },
    {
      "midi": 81,
      "hit": false,
      "t": 205746.5643125011,
      "d": 136.08843749997322,
      "v": 44
    },
    {
      "midi": 83,
      "hit": false,
      "t": 205850.3947500011,
      "d": 61.49181249996764,
      "v": 45
    },
    {
      "midi": 86,
      "hit": false,
      "t": 205933.05587500107,
      "d": 82.66112500004238,
      "v": 74
    },
    {
      "midi": 64,
      "hit": false,
      "t": 205966.32193750108,
      "d": 201.61250000001746,
      "v": 39
    },
    {
      "midi": 55,
      "hit": false,
      "t": 205974.3864375011,
      "d": 406.24918750001234,
      "v": 24
    },
    {
      "midi": 57,
      "hit": false,
      "t": 205991.5235000011,
      "d": 387.09600000001956,
      "v": 32
    },
    {
      "midi": 60,
      "hit": false,
      "t": 206009.6686250011,
      "d": 342.74125000002095,
      "v": 24
    },
    {
      "midi": 84,
      "hit": false,
      "t": 206082.2491250011,
      "d": 73.58856249999371,
      "v": 76
    },
    {
      "midi": 84,
      "hit": false,
      "t": 206225.3940000011,
      "d": 77.62081250001211,
      "v": 71
    },
    {
      "midi": 57,
      "hit": false,
      "t": 206610.4738750011,
      "d": 80.64499999998952,
      "v": 44
    },
    {
      "midi": 65,
      "hit": false,
      "t": 206636.6835000011,
      "d": 26.20962499998859,
      "v": 24
    },
    {
      "midi": 76,
      "hit": false,
      "t": 206970.3521875011,
      "d": 67.54018749998068,
      "v": 72
    },
    {
      "midi": 65,
      "hit": false,
      "t": 206974.38443750108,
      "d": 29.23381249999511,
      "v": 62
    },
    {
      "midi": 88,
      "hit": false,
      "t": 206974.38443750108,
      "d": 78.62887499999488,
      "v": 74
    },
    {
      "midi": 80,
      "hit": false,
      "t": 206975.3925000011,
      "d": 78.62887499999488,
      "v": 55
    },
    {
      "midi": 61,
      "hit": false,
      "t": 206982.4489375011,
      "d": 342.74125000002095,
      "v": 29
    },
    {
      "midi": 84,
      "hit": false,
      "t": 206986.48118750108,
      "d": 74.59662500000559,
      "v": 40
    },
    {
      "midi": 55,
      "hit": false,
      "t": 207079.2229375011,
      "d": 254.03175000002375,
      "v": 2
    },
    {
      "midi": 65,
      "hit": false,
      "t": 207097.3680625011,
      "d": 178.4270625000063,
      "v": 40
    },
    {
      "midi": 86,
      "hit": false,
      "t": 207121.5615625011,
      "d": 178.4270625000063,
      "v": 46
    },
    {
      "midi": 74,
      "hit": false,
      "t": 207148.7792500011,
      "d": 170.3625624999986,
      "v": 34
    },
    {
      "midi": 55,
      "hit": false,
      "t": 207457.24637500112,
      "d": 95.76593749999302,
      "v": 32
    },
    {
      "midi": 65,
      "hit": false,
      "t": 207465.31087500113,
      "d": 36.29024999999092,
      "v": 35
    },
    {
      "midi": 57,
      "hit": false,
      "t": 207484.46406250112,
      "d": 70.5643749999872,
      "v": 27
    },
    {
      "midi": 60,
      "hit": false,
      "t": 207496.56081250112,
      "d": 32.25800000000163,
      "v": 22
    },
    {
      "midi": 60,
      "hit": false,
      "t": 208079.22093750112,
      "d": 28.22575000001234,
      "v": 37
    },
    {
      "midi": 79,
      "hit": false,
      "t": 208191.11587500112,
      "d": 65.52406250001513,
      "v": 66
    },
    {
      "midi": 67,
      "hit": false,
      "t": 208194.14006250113,
      "d": 52.419250000006286,
      "v": 75
    },
    {
      "midi": 79,
      "hit": false,
      "t": 208302.00275000115,
      "d": 69.55631250000442,
      "v": 38
    },
    {
      "midi": 67,
      "hit": false,
      "t": 208307.04306250115,
      "d": 54.43537500000093,
      "v": 63
    },
    {
      "midi": 60,
      "hit": false,
      "t": 208465.30887500115,
      "d": 33.266062500013504,
      "v": 37
    },
    {
      "midi": 67,
      "hit": false,
      "t": 208585.26831250117,
      "d": 41.33056250002119,
      "v": 76
    },
    {
      "midi": 79,
      "hit": false,
      "t": 208587.28443750116,
      "d": 33.266062500013504,
      "v": 50
    },
    {
      "midi": 78,
      "hit": false,
      "t": 208594.34087500116,
      "d": 34.27412500002538,
      "v": 32
    },
    {
      "midi": 73,
      "hit": false,
      "t": 208597.36506250117,
      "d": 32.258000000030734,
      "v": 25
    },
    {
      "midi": 79,
      "hit": false,
      "t": 208696.1551875012,
      "d": 58.46762499999022,
      "v": 29
    },
    {
      "midi": 67,
      "hit": false,
      "t": 208700.18743750118,
      "d": 42.33862500000396,
      "v": 49
    },
    {
      "midi": 65,
      "hit": false,
      "t": 208843.33231250118,
      "d": 30.241875000006985,
      "v": 58
    },
    {
      "midi": 61,
      "hit": false,
      "t": 208848.37262500118,
      "d": 108.87075000000186,
      "v": 46
    },
    {
      "midi": 56,
      "hit": false,
      "t": 208855.42906250118,
      "d": 65.52406250001513,
      "v": 33
    },
    {
      "midi": 68,
      "hit": false,
      "t": 208983.45300000117,
      "d": 28.225749999983236,
      "v": 68
    },
    {
      "midi": 80,
      "hit": false,
      "t": 208987.48525000116,
      "d": 29.23381249999511,
      "v": 46
    },
    {
      "midi": 75,
      "hit": false,
      "t": 208992.52556250116,
      "d": 27.217687500000466,
      "v": 51
    },
    {
      "midi": 80,
      "hit": false,
      "t": 209103.41243750116,
      "d": 67.54018750000978,
      "v": 46
    },
    {
      "midi": 68,
      "hit": false,
      "t": 209107.44468750115,
      "d": 36.29025000002002,
      "v": 44
    },
    {
      "midi": 75,
      "hit": false,
      "t": 209125.58981250116,
      "d": 37.298312500002794,
      "v": 38
    },
    {
      "midi": 61,
      "hit": false,
      "t": 209230.42831250117,
      "d": 119.95943750001607,
      "v": 49
    },
    {
      "midi": 56,
      "hit": false,
      "t": 209231.43637500118,
      "d": 112.90299999999115,
      "v": 37
    },
    {
      "midi": 55,
      "hit": false,
      "t": 209262.68631250117,
      "d": 29.23381249999511,
      "v": 24
    },
    {
      "midi": 82,
      "hit": false,
      "t": 209358.4522500012,
      "d": 71.57243749999907,
      "v": 59
    },
    {
      "midi": 68,
      "hit": false,
      "t": 209363.4925625012,
      "d": 46.37087499999325,
      "v": 68
    },
    {
      "midi": 68,
      "hit": false,
      "t": 209477.4036250012,
      "d": 75.60468749998836,
      "v": 47
    },
    {
      "midi": 82,
      "hit": false,
      "t": 209481.4358750012,
      "d": 77.62081250001211,
      "v": 34
    },
    {
      "midi": 75,
      "hit": false,
      "t": 209520.7503125012,
      "d": 28.22575000001234,
      "v": 25
    },
    {
      "midi": 61,
      "hit": false,
      "t": 209611.4759375012,
      "d": 126.0078124999709,
      "v": 44
    },
    {
      "midi": 65,
      "hit": false,
      "t": 209612.48400000122,
      "d": 28.225749999983236,
      "v": 57
    },
    {
      "midi": 56,
      "hit": false,
      "t": 209616.5162500012,
      "d": 104.83849999998347,
      "v": 33
    },
    {
      "midi": 68,
      "hit": false,
      "t": 209745.5482500012,
      "d": 48.38699999998789,
      "v": 72
    },
    {
      "midi": 82,
      "hit": false,
      "t": 209745.5482500012,
      "d": 49.39506249999977,
      "v": 56
    },
    {
      "midi": 68,
      "hit": false,
      "t": 209858.45125000118,
      "d": 62.499875000008615,
      "v": 46
    },
    {
      "midi": 82,
      "hit": false,
      "t": 209865.50768750117,
      "d": 81.6530625000014,
      "v": 43
    },
    {
      "midi": 75,
      "hit": false,
      "t": 209875.58831250118,
      "d": 59.475687500002095,
      "v": 38
    },
    {
      "midi": 61,
      "hit": false,
      "t": 210009.66062500118,
      "d": 149.19325000004028,
      "v": 64
    },
    {
      "midi": 65,
      "hit": false,
      "t": 210014.70093750118,
      "d": 34.27412500002538,
      "v": 76
    },
    {
      "midi": 56,
      "hit": false,
      "t": 210014.70093750118,
      "d": 77.62081250001211,
      "v": 51
    },
    {
      "midi": 55,
      "hit": false,
      "t": 210025.7896250012,
      "d": 30.241875000006985,
      "v": 54
    },
    {
      "midi": 82,
      "hit": false,
      "t": 210139.7006875012,
      "d": 67.54018750000978,
      "v": 69
    },
    {
      "midi": 68,
      "hit": false,
      "t": 210142.7248750012,
      "d": 54.43537500000093,
      "v": 73
    },
    {
      "midi": 75,
      "hit": false,
      "t": 210145.7490625012,
      "d": 70.5643749999872,
      "v": 69
    },
    {
      "midi": 81,
      "hit": false,
      "t": 210402.80500000122,
      "d": 228.83018750001793,
      "v": 65
    },
    {
      "midi": 74,
      "hit": false,
      "t": 210403.81306250123,
      "d": 253.02368750001187,
      "v": 71
    },
    {
      "midi": 59,
      "hit": false,
      "t": 210406.83725000123,
      "d": 314.5154999999795,
      "v": 64
    },
    {
      "midi": 64,
      "hit": false,
      "t": 210407.84531250125,
      "d": 279.23331249997136,
      "v": 75
    },
    {
      "midi": 53,
      "hit": false,
      "t": 210412.88562500125,
      "d": 265.12043749997974,
      "v": 70
    },
    {
      "midi": 69,
      "hit": false,
      "t": 210414.90175000124,
      "d": 229.8382500000007,
      "v": 63
    },
    {
      "midi": 67,
      "hit": false,
      "t": 210417.92593750125,
      "d": 150.20131249999395,
      "v": 61
    },
    {
      "midi": 80,
      "hit": false,
      "t": 210801.9977500012,
      "d": 144.15293750001,
      "v": 60
    },
    {
      "midi": 68,
      "hit": false,
      "t": 210807.0380625012,
      "d": 104.83850000001257,
      "v": 74
    },
    {
      "midi": 75,
      "hit": false,
      "t": 210812.0783750012,
      "d": 140.12068750002072,
      "v": 70
    },
    {
      "midi": 59,
      "hit": false,
      "t": 210812.0783750012,
      "d": 259.0720624999958,
      "v": 54
    },
    {
      "midi": 64,
      "hit": false,
      "t": 210820.1428750012,
      "d": 70.5643750000163,
      "v": 74
    },
    {
      "midi": 53,
      "hit": false,
      "t": 210830.22350000122,
      "d": 278.2252499999886,
      "v": 47
    },
    {
      "midi": 79,
      "hit": false,
      "t": 210964.29581250122,
      "d": 98.79012499997043,
      "v": 46
    },
    {
      "midi": 64,
      "hit": false,
      "t": 210964.29581250122,
      "d": 160.28193749996717,
      "v": 50
    },
    {
      "midi": 78,
      "hit": false,
      "t": 210980.4248125012,
      "d": 61.49181249999674,
      "v": 35
    },
    {
      "midi": 67,
      "hit": false,
      "t": 210985.4651250012,
      "d": 143.14487499996903,
      "v": 31
    },
    {
      "midi": 72,
      "hit": false,
      "t": 211223.3678750012,
      "d": 86.69337500003166,
      "v": 70
    },
    {
      "midi": 67,
      "hit": false,
      "t": 211223.3678750012,
      "d": 116.93525000003865,
      "v": 44
    },
    {
      "midi": 77,
      "hit": false,
      "t": 211228.4081875012,
      "d": 87.70143750004354,
      "v": 62
    },
    {
      "midi": 64,
      "hit": false,
      "t": 211229.4162500012,
      "d": 74.59662500000559,
      "v": 62
    },
    {
      "midi": 69,
      "hit": false,
      "t": 211236.4726875012,
      "d": 32.25800000000163,
      "v": 46
    },
    {
      "midi": 76,
      "hit": false,
      "t": 211446.14968750122,
      "d": 136.08843750000233,
      "v": 64
    },
    {
      "midi": 64,
      "hit": false,
      "t": 211447.15775000124,
      "d": 131.04812500000116,
      "v": 54
    },
    {
      "midi": 65,
      "hit": false,
      "t": 211463.28675000122,
      "d": 148.1851874999993,
      "v": 54
    },
    {
      "midi": 69,
      "hit": false,
      "t": 211474.37543750124,
      "d": 155.2416249999951,
      "v": 52
    },
    {
      "midi": 62,
      "hit": false,
      "t": 211705.22175000122,
      "d": 79.63693750000675,
      "v": 56
    },
    {
      "midi": 74,
      "hit": false,
      "t": 211712.27818750122,
      "d": 88.7094999999972,
      "v": 44
    },
    {
      "midi": 65,
      "hit": false,
      "t": 211713.28625000123,
      "d": 104.83849999998347,
      "v": 53
    },
    {
      "midi": 69,
      "hit": false,
      "t": 211717.31850000122,
      "d": 52.419250000006286,
      "v": 39
    },
    {
      "midi": 72,
      "hit": false,
      "t": 211961.2696250012,
      "d": 112.90300000007846,
      "v": 62
    },
    {
      "midi": 64,
      "hit": false,
      "t": 211966.3099375012,
      "d": 117.94331250007963,
      "v": 62
    },
    {
      "midi": 67,
      "hit": false,
      "t": 211972.35831250122,
      "d": 76.61275000005844,
      "v": 53
    },
    {
      "midi": 69,
      "hit": false,
      "t": 211983.44700000124,
      "d": 41.33056250002119,
      "v": 53
    },
    {
      "midi": 57,
      "hit": false,
      "t": 211994.53568750125,
      "d": 41.33056250002119,
      "v": 42
    },
    {
      "midi": 57,
      "hit": false,
      "t": 212321.1479375013,
      "d": 525.2005625000747,
      "v": 64
    },
    {
      "midi": 64,
      "hit": false,
      "t": 212327.1963125013,
      "d": 364.91862500002026,
      "v": 51
    },
    {
      "midi": 56,
      "hit": false,
      "t": 212328.2043750013,
      "d": 62.499875000008615,
      "v": 45
    },
    {
      "midi": 62,
      "hit": false,
      "t": 212329.21243750132,
      "d": 358.8702500000072,
      "v": 43
    },
    {
      "midi": 69,
      "hit": false,
      "t": 212333.2446875013,
      "d": 437.4991250000312,
      "v": 34
    },
    {
      "midi": 60,
      "hit": false,
      "t": 212336.26887500132,
      "d": 69.55631250000442,
      "v": 34
    },
    {
      "midi": 67,
      "hit": false,
      "t": 212358.44625000132,
      "d": 334.67675000001327,
      "v": 37
    },
    {
      "midi": 55,
      "hit": false,
      "t": 212841.30818750136,
      "d": 339.7170624999562,
      "v": 64
    },
    {
      "midi": 67,
      "hit": false,
      "t": 212847.35656250137,
      "d": 1096.7719999998808,
      "v": 50
    },
    {
      "midi": 64,
      "hit": false,
      "t": 212850.38075000138,
      "d": 224.79793749997043,
      "v": 52
    },
    {
      "midi": 60,
      "hit": false,
      "t": 212858.4452500014,
      "d": 168.34643749997485,
      "v": 44
    },
    {
      "midi": 57,
      "hit": false,
      "t": 213128.60600000134,
      "d": 33.2660624999844,
      "v": 40
    },
    {
      "midi": 59,
      "hit": false,
      "t": 213637.6775625013,
      "d": 52.41924999997718,
      "v": 31
    },
    {
      "midi": 55,
      "hit": false,
      "t": 213641.7098125013,
      "d": 66.5321249999688,
      "v": 32
    },
    {
      "midi": 52,
      "hit": false,
      "t": 213660.8630000013,
      "d": 38.306374999985565,
      "v": 20
    },
    {
      "midi": 66,
      "hit": false,
      "t": 213900.78187500127,
      "d": 136.08843749997322,
      "v": 44
    },
    {
      "midi": 62,
      "hit": false,
      "t": 214068.12025000123,
      "d": 201.61249999998836,
      "v": 22
    },
    {
      "midi": 64,
      "hit": false,
      "t": 214273.7650000012,
      "d": 126.0078125,
      "v": 54
    },
    {
      "midi": 56,
      "hit": false,
      "t": 214290.9020625012,
      "d": 60.48375000001397,
      "v": 32
    },
    {
      "midi": 66,
      "hit": false,
      "t": 214453.2001250012,
      "d": 168.34643750000396,
      "v": 23
    },
    {
      "midi": 67,
      "hit": false,
      "t": 214661.8690625012,
      "d": 101.81431250000605,
      "v": 57
    },
    {
      "midi": 55,
      "hit": false,
      "t": 214687.07062500122,
      "d": 312.49937500001397,
      "v": 60
    },
    {
      "midi": 66,
      "hit": false,
      "t": 214689.0867500012,
      "d": 347.7815625000221,
      "v": 49
    },
    {
      "midi": 61,
      "hit": false,
      "t": 214708.2399375012,
      "d": 1015.1189375000249,
      "v": 34
    },
    {
      "midi": 69,
      "hit": false,
      "t": 214862.47350000122,
      "d": 127.01587500001187,
      "v": 20
    },
    {
      "midi": 70,
      "hit": false,
      "t": 215062.06987500124,
      "d": 57.45956250000745,
      "v": 57
    },
    {
      "midi": 64,
      "hit": false,
      "t": 215186.06156250124,
      "d": 447.5797499999753,
      "v": 48
    },
    {
      "midi": 73,
      "hit": false,
      "t": 215201.18250000125,
      "d": 195.56412499997532,
      "v": 42
    },
    {
      "midi": 54,
      "hit": false,
      "t": 215208.23893750124,
      "d": 735.8856249999953,
      "v": 30
    },
    {
      "midi": 59,
      "hit": false,
      "t": 215224.36793750123,
      "d": 385.0798749999958,
      "v": 28
    },
    {
      "midi": 76,
      "hit": false,
      "t": 215431.02075000122,
      "d": 99.79818750001141,
      "v": 65
    },
    {
      "midi": 69,
      "hit": false,
      "t": 215583.23818750124,
      "d": 255.03981249997742,
      "v": 36
    },
    {
      "midi": 61,
      "hit": false,
      "t": 215824.16512500122,
      "d": 91.73368750000373,
      "v": 21
    },
    {
      "midi": 62,
      "hit": false,
      "t": 216193.11600000123,
      "d": 42.33862500003306,
      "v": 68
    },
    {
      "midi": 59,
      "hit": false,
      "t": 216206.22081250124,
      "d": 67.54018750000978,
      "v": 46
    },
    {
      "midi": 54,
      "hit": false,
      "t": 216234.44656250125,
      "d": 83.66918749999604,
      "v": 18
    },
    {
      "midi": 66,
      "hit": false,
      "t": 216295.93837500125,
      "d": 223.78987499998766,
      "v": 60
    },
    {
      "midi": 69,
      "hit": false,
      "t": 216561.05881250123,
      "d": 89.71756250000908,
      "v": 59
    },
    {
      "midi": 64,
      "hit": false,
      "t": 216740.49393750125,
      "d": 613.9100625000137,
      "v": 35
    },
    {
      "midi": 49,
      "hit": false,
      "t": 216954.20318750126,
      "d": 69.55631250000442,
      "v": 55
    },
    {
      "midi": 59,
      "hit": false,
      "t": 217351.37981250125,
      "d": 361.89443750001374,
      "v": 68
    },
    {
      "midi": 66,
      "hit": false,
      "t": 217730.41131250127,
      "d": 112.90299999999115,
      "v": 50
    },
    {
      "midi": 55,
      "hit": false,
      "t": 217921.94318750125,
      "d": 59.475687500002095,
      "v": 40
    },
    {
      "midi": 57,
      "hit": false,
      "t": 217937.06412500126,
      "d": 350.80574999999953,
      "v": 24
    },
    {
      "midi": 47,
      "hit": false,
      "t": 218140.69275000127,
      "d": 29.23381249999511,
      "v": 47
    },
    {
      "midi": 57,
      "hit": false,
      "t": 218505.61137500126,
      "d": 163.3061249999737,
      "v": 66
    },
    {
      "midi": 62,
      "hit": false,
      "t": 218507.62750000125,
      "d": 145.16099999999278,
      "v": 63
    },
    {
      "midi": 50,
      "hit": false,
      "t": 218546.94193750125,
      "d": 96.77400000000489,
      "v": 54
    },
    {
      "midi": 49,
      "hit": false,
      "t": 218642.70787500124,
      "d": 345.76543749996927,
      "v": 35
    },
    {
      "midi": 50,
      "hit": false,
      "t": 218909.84443750122,
      "d": 86.69337500000256,
      "v": 56
    },
    {
      "midi": 56,
      "hit": false,
      "t": 219028.79581250122,
      "d": 301.41068749999977,
      "v": 62
    },
    {
      "midi": 66,
      "hit": false,
      "t": 219030.81193750122,
      "d": 349.79768750001676,
      "v": 48
    },
    {
      "midi": 62,
      "hit": false,
      "t": 219036.86031250123,
      "d": 281.2494374999951,
      "v": 50
    },
    {
      "midi": 59,
      "hit": false,
      "t": 219046.94093750123,
      "d": 283.26556249998976,
      "v": 55
    },
    {
      "midi": 54,
      "hit": false,
      "t": 219062.06187500124,
      "d": 243.95112499999232,
      "v": 69
    },
    {
      "midi": 62,
      "hit": false,
      "t": 219411.85956250122,
      "d": 245.96725000001607,
      "v": 55
    },
    {
      "midi": 56,
      "hit": false,
      "t": 219420.9321250012,
      "d": 189.5157500000205,
      "v": 36
    },
    {
      "midi": 59,
      "hit": false,
      "t": 219436.05306250122,
      "d": 86.69337500000256,
      "v": 36
    },
    {
      "midi": 52,
      "hit": false,
      "t": 219440.0853125012,
      "d": 255.03981250003562,
      "v": 49
    },
    {
      "midi": 45,
      "hit": false,
      "t": 219784.84268750122,
      "d": 28.22575000001234,
      "v": 56
    },
    {
      "midi": 66,
      "hit": false,
      "t": 220599.3571875012,
      "d": 113.91106250000303,
      "v": 57
    },
    {
      "midi": 96,
      "hit": false,
      "t": 220606.4136250012,
      "d": 116.93525000003865,
      "v": 65
    },
    {
      "midi": 61,
      "hit": false,
      "t": 220609.43781250122,
      "d": 107.86268750001909,
      "v": 50
    },
    {
      "midi": 84,
      "hit": false,
      "t": 220611.4539375012,
      "d": 76.61275000000023,
      "v": 44
    },
    {
      "midi": 56,
      "hit": false,
      "t": 220621.5345625012,
      "d": 90.72562499999185,
      "v": 14
    },
    {
      "midi": 91,
      "hit": false,
      "t": 220626.5748750012,
      "d": 87.70143750001444,
      "v": 43
    },
    {
      "midi": 67,
      "hit": false,
      "t": 220974.35643750124,
      "d": 140.12068750004983,
      "v": 60
    },
    {
      "midi": 62,
      "hit": false,
      "t": 220981.41287500123,
      "d": 153.22550000005867,
      "v": 53
    },
    {
      "midi": 97,
      "hit": false,
      "t": 220982.42093750124,
      "d": 215.72537500003818,
      "v": 62
    },
    {
      "midi": 56,
      "hit": false,
      "t": 220983.42900000126,
      "d": 218.7495625000156,
      "v": 42
    },
    {
      "midi": 92,
      "hit": false,
      "t": 220984.43706250127,
      "d": 183.46737500000745,
      "v": 57
    },
    {
      "midi": 85,
      "hit": false,
      "t": 220992.50156250127,
      "d": 154.23356250001234,
      "v": 44
    },
    {
      "midi": 66,
      "hit": false,
      "t": 221351.37181250128,
      "d": 220.76568749998114,
      "v": 55
    },
    {
      "midi": 55,
      "hit": false,
      "t": 221367.50081250127,
      "d": 127.01587500001187,
      "v": 50
    },
    {
      "midi": 61,
      "hit": false,
      "t": 221374.55725000126,
      "d": 229.8382500000007,
      "v": 45
    },
    {
      "midi": 96,
      "hit": false,
      "t": 221377.58143750127,
      "d": 165.32224999999744,
      "v": 66
    },
    {
      "midi": 84,
      "hit": false,
      "t": 221385.64593750128,
      "d": 237.90274999997928,
      "v": 51
    },
    {
      "midi": 91,
      "hit": false,
      "t": 221387.66206250127,
      "d": 212.70118750000256,
      "v": 54
    },
    {
      "midi": 65,
      "hit": false,
      "t": 221755.60487500127,
      "d": 151.20937499997672,
      "v": 50
    },
    {
      "midi": 95,
      "hit": false,
      "t": 221764.67743750126,
      "d": 159.2738749999844,
      "v": 45
    },
    {
      "midi": 90,
      "hit": false,
      "t": 221768.70968750125,
      "d": 191.53187499998603,
      "v": 37
    },
    {
      "midi": 83,
      "hit": false,
      "t": 221776.77418750126,
      "d": 118.95137500000419,
      "v": 33
    },
    {
      "midi": 54,
      "hit": false,
      "t": 221779.79837500126,
      "d": 122.98362499999348,
      "v": 26
    },
    {
      "midi": 60,
      "hit": false,
      "t": 221782.82256250127,
      "d": 148.1851874999702,
      "v": 38
    },
    {
      "midi": 96,
      "hit": false,
      "t": 222029.79787500124,
      "d": 655.2406250000058,
      "v": 64
    },
    {
      "midi": 66,
      "hit": false,
      "t": 222029.79787500124,
      "d": 711.6921250000305,
      "v": 56
    },
    {
      "midi": 55,
      "hit": false,
      "t": 222032.82206250125,
      "d": 685.4825000000128,
      "v": 57
    },
    {
      "midi": 91,
      "hit": false,
      "t": 222037.86237500125,
      "d": 669.3534999999974,
      "v": 49
    },
    {
      "midi": 84,
      "hit": false,
      "t": 222038.87043750126,
      "d": 666.3293124999909,
      "v": 37
    },
    {
      "midi": 61,
      "hit": false,
      "t": 222054.99943750125,
      "d": 696.571187500027,
      "v": 47
    },
    {
      "midi": 95,
      "hit": false,
      "t": 222809.03018750128,
      "d": 134.07231249994948,
      "v": 66
    },
    {
      "midi": 90,
      "hit": false,
      "t": 222818.10275000127,
      "d": 130.0400624999602,
      "v": 50
    },
    {
      "midi": 83,
      "hit": false,
      "t": 222819.11081250128,
      "d": 92.74174999995739,
      "v": 55
    },
    {
      "midi": 60,
      "hit": false,
      "t": 222823.14306250127,
      "d": 97.78206249995856,
      "v": 62
    },
    {
      "midi": 65,
      "hit": false,
      "t": 222842.29625000127,
      "d": 65.52406249998603,
      "v": 31
    },
    {
      "midi": 54,
      "hit": false,
      "t": 222842.29625000127,
      "d": 87.70143749995623,
      "v": 34
    },
    {
      "midi": 66,
      "hit": false,
      "t": 223028.78781250122,
      "d": 162.29806250002002,
      "v": 60
    },
    {
      "midi": 61,
      "hit": false,
      "t": 223037.8603750012,
      "d": 170.3625625000277,
      "v": 51
    },
    {
      "midi": 55,
      "hit": false,
      "t": 223039.8765000012,
      "d": 104.83850000004168,
      "v": 54
    },
    {
      "midi": 96,
      "hit": false,
      "t": 223040.88456250122,
      "d": 111.89493750003749,
      "v": 69
    },
    {
      "midi": 84,
      "hit": false,
      "t": 223043.90875000122,
      "d": 87.70143750001444,
      "v": 52
    },
    {
      "midi": 91,
      "hit": false,
      "t": 223043.90875000122,
      "d": 130.0400625000184,
      "v": 59
    },
    {
      "midi": 97,
      "hit": false,
      "t": 223255.60187500124,
      "d": 114.919125000044,
      "v": 75
    },
    {
      "midi": 62,
      "hit": false,
      "t": 223256.60993750126,
      "d": 84.67725000000792,
      "v": 66
    },
    {
      "midi": 85,
      "hit": false,
      "t": 223258.62606250125,
      "d": 96.774000000034,
      "v": 69
    },
    {
      "midi": 67,
      "hit": false,
      "t": 223263.66637500125,
      "d": 57.45956250000745,
      "v": 48
    },
    {
      "midi": 56,
      "hit": false,
      "t": 223268.70668750125,
      "d": 90.72562500002095,
      "v": 46
    },
    {
      "midi": 91,
      "hit": false,
      "t": 223286.85181250126,
      "d": 67.54018750000978,
      "v": 31
    },
    {
      "midi": 94,
      "hit": false,
      "t": 223294.91631250127,
      "d": 31.249937499989755,
      "v": 25
    },
    {
      "midi": 55,
      "hit": false,
      "t": 223429.9966875013,
      "d": 112.90299999999115,
      "v": 59
    },
    {
      "midi": 66,
      "hit": false,
      "t": 223437.0531250013,
      "d": 118.95137499997509,
      "v": 56
    },
    {
      "midi": 96,
      "hit": false,
      "t": 223440.0773125013,
      "d": 54.43537500000093,
      "v": 54
    },
    {
      "midi": 91,
      "hit": false,
      "t": 223443.1015000013,
      "d": 105.84656249996624,
      "v": 53
    },
    {
      "midi": 61,
      "hit": false,
      "t": 223450.1579375013,
      "d": 121.9755624999525,
      "v": 52
    },
    {
      "midi": 84,
      "hit": false,
      "t": 223458.2224375013,
      "d": 88.7094999999681,
      "v": 50
    },
    {
      "midi": 83,
      "hit": false,
      "t": 223649.75431250126,
      "d": 36.29025000002002,
      "v": 59
    },
    {
      "midi": 95,
      "hit": false,
      "t": 223650.76237500127,
      "d": 64.51600000003236,
      "v": 66
    },
    {
      "midi": 54,
      "hit": false,
      "t": 223667.89943750127,
      "d": 29.233812500024214,
      "v": 31
    },
    {
      "midi": 66,
      "hit": false,
      "t": 223815.07656250132,
      "d": 133.0642499999958,
      "v": 71
    },
    {
      "midi": 84,
      "hit": false,
      "t": 223818.10075000132,
      "d": 85.68531249999069,
      "v": 51
    },
    {
      "midi": 55,
      "hit": false,
      "t": 223820.11687500132,
      "d": 103.8304375000007,
      "v": 68
    },
    {
      "midi": 96,
      "hit": false,
      "t": 223822.1330000013,
      "d": 66.5321249999979,
      "v": 50
    },
    {
      "midi": 91,
      "hit": false,
      "t": 223826.1652500013,
      "d": 80.64500000001863,
      "v": 45
    },
    {
      "midi": 61,
      "hit": false,
      "t": 224071.1244375013,
      "d": 173.38675000000512,
      "v": 53
    },
    {
      "midi": 66,
      "hit": false,
      "t": 224072.13250000132,
      "d": 76.61275000000023,
      "v": 58
    },
    {
      "midi": 97,
      "hit": false,
      "t": 224075.15668750132,
      "d": 164.31418749998556,
      "v": 63
    },
    {
      "midi": 85,
      "hit": false,
      "t": 224080.19700000132,
      "d": 138.10456249999697,
      "v": 57
    },
    {
      "midi": 92,
      "hit": false,
      "t": 224099.35018750132,
      "d": 38.306374999985565,
      "v": 34
    },
    {
      "midi": 61,
      "hit": false,
      "t": 224325.1561875013,
      "d": 633.0632500000065,
      "v": 50
    },
    {
      "midi": 98,
      "hit": false,
      "t": 224330.1965000013,
      "d": 583.6681875000068,
      "v": 61
    },
    {
      "midi": 86,
      "hit": false,
      "t": 224339.2690625013,
      "d": 690.522812500014,
      "v": 51
    },
    {
      "midi": 64,
      "hit": false,
      "t": 224341.2851875013,
      "d": 570.563375000027,
      "v": 62
    },
    {
      "midi": 54,
      "hit": false,
      "t": 224350.35775000128,
      "d": 592.7407500000263,
      "v": 40
    },
    {
      "midi": 59,
      "hit": false,
      "t": 224351.3658125013,
      "d": 514.1118750000314,
      "v": 58
    },
    {
      "midi": 96,
      "hit": false,
      "t": 224857.4131875013,
      "d": 95.76593749999302,
      "v": 1
    },
    {
      "midi": 54,
      "hit": false,
      "t": 225093.2998125013,
      "d": 520.1602500000154,
      "v": 48
    },
    {
      "midi": 61,
      "hit": false,
      "t": 225107.4126875013,
      "d": 542.3376250000147,
      "v": 39
    },
    {
      "midi": 64,
      "hit": false,
      "t": 225107.4126875013,
      "d": 554.4343750000116,
      "v": 50
    },
    {
      "midi": 59,
      "hit": false,
      "t": 225125.5578125013,
      "d": 457.66037500000675,
      "v": 40
    },
    {
      "midi": 65,
      "hit": false,
      "t": 226033.8221250013,
      "d": 316.53162500003236,
      "v": 60
    },
    {
      "midi": 62,
      "hit": false,
      "t": 226039.8705000013,
      "d": 467.7410000000091,
      "v": 36
    },
    {
      "midi": 89,
      "hit": false,
      "t": 226041.8866250013,
      "d": 92.7417500000156,
      "v": 101
    },
    {
      "midi": 60,
      "hit": false,
      "t": 226046.9269375013,
      "d": 494.95868750000955,
      "v": 48
    },
    {
      "midi": 55,
      "hit": false,
      "t": 226046.9269375013,
      "d": 1592.7387500000186,
      "v": 44
    },
    {
      "midi": 86,
      "hit": false,
      "t": 226317.0876875013,
      "d": 90.72562500002095,
      "v": 76
    },
    {
      "midi": 82,
      "hit": false,
      "t": 226491.48250000132,
      "d": 174.3948124999879,
      "v": 33
    },
    {
      "midi": 79,
      "hit": false,
      "t": 226687.0466250013,
      "d": 87.70143749998533,
      "v": 61
    },
    {
      "midi": 62,
      "hit": false,
      "t": 226723.3368750013,
      "d": 170.3625624999986,
      "v": 22
    },
    {
      "midi": 60,
      "hit": false,
      "t": 226749.54650000128,
      "d": 141.1287500000035,
      "v": 17
    },
    {
      "midi": 77,
      "hit": false,
      "t": 226848.33662500128,
      "d": 202.62056250002934,
      "v": 32
    },
    {
      "midi": 77,
      "hit": false,
      "t": 227202.1665625013,
      "d": 239.91887500000303,
      "v": 72
    },
    {
      "midi": 74,
      "hit": false,
      "t": 227472.32731250132,
      "d": 47.37893750000512,
      "v": 38
    },
    {
      "midi": 77,
      "hit": false,
      "t": 227600.35125000132,
      "d": 312.49937499998487,
      "v": 73
    },
    {
      "midi": 76,
      "hit": false,
      "t": 227812.0443750013,
      "d": 85.68531249999069,
      "v": 48
    },
    {
      "midi": 75,
      "hit": false,
      "t": 227860.4313750013,
      "d": 127.01587499998277,
      "v": 60
    },
    {
      "midi": 62,
      "hit": false,
      "t": 227889.6651875013,
      "d": 173.38675000000512,
      "v": 17
    },
    {
      "midi": 74,
      "hit": false,
      "t": 227951.1570000013,
      "d": 148.1851874999993,
      "v": 50
    },
    {
      "midi": 70,
      "hit": false,
      "t": 228200.14843750128,
      "d": 457.66037500000675,
      "v": 47
    },
    {
      "midi": 62,
      "hit": false,
      "t": 228226.35806250127,
      "d": 286.2897499999963,
      "v": 32
    },
    {
      "midi": 65,
      "hit": false,
      "t": 228231.39837500127,
      "d": 356.85412499998347,
      "v": 22
    },
    {
      "midi": 55,
      "hit": false,
      "t": 228361.43843750126,
      "d": 418.3459375000093,
      "v": 1
    },
    {
      "midi": 62,
      "hit": false,
      "t": 228639.66368750128,
      "d": 217.74150000000373,
      "v": 22
    },
    {
      "midi": 69,
      "hit": false,
      "t": 228694.09906250128,
      "d": 193.54800000000978,
      "v": 61
    },
    {
      "midi": 70,
      "hit": false,
      "t": 228820.10687500128,
      "d": 214.7173125000263,
      "v": 37
    },
    {
      "midi": 71,
      "hit": false,
      "t": 228944.09856250128,
      "d": 89.71756250000908,
      "v": 43
    },
    {
      "midi": 72,
      "hit": false,
      "t": 229035.83225000132,
      "d": 42.33862500000396,
      "v": 45
    },
    {
      "midi": 65,
      "hit": false,
      "t": 229368.4928750013,
      "d": 33.266062500013504,
      "v": 40
    },
    {
      "midi": 62,
      "hit": false,
      "t": 229369.50093750132,
      "d": 64.51600000000326,
      "v": 43
    },
    {
      "midi": 62,
      "hit": false,
      "t": 229742.48406250132,
      "d": 39.31443749999744,
      "v": 44
    },
    {
      "midi": 65,
      "hit": false,
      "t": 229866.47575000132,
      "d": 252.015625,
      "v": 80
    },
    {
      "midi": 67,
      "hit": false,
      "t": 229875.5483125013,
      "d": 78.62887499999488,
      "v": 74
    },
    {
      "midi": 62,
      "hit": false,
      "t": 230085.2253125013,
      "d": 73.58856250002282,
      "v": 66
    },
    {
      "midi": 63,
      "hit": false,
      "t": 230180.99125000133,
      "d": 70.5643749999872,
      "v": 42
    },
    {
      "midi": 64,
      "hit": false,
      "t": 230241.47500000132,
      "d": 61.49181249999674,
      "v": 53
    },
    {
      "midi": 65,
      "hit": false,
      "t": 230341.2731875013,
      "d": 39.31443749999744,
      "v": 30
    },
    {
      "midi": 62,
      "hit": false,
      "t": 230479.3777500013,
      "d": 69.55631250000442,
      "v": 57
    },
    {
      "midi": 58,
      "hit": false,
      "t": 230676.9580000013,
      "d": 123.99168750000536,
      "v": 60
    },
    {
      "midi": 55,
      "hit": false,
      "t": 230804.9819375013,
      "d": 67.54018750000978,
      "v": 37
    },
    {
      "midi": 55,
      "hit": false,
      "t": 231045.9088750013,
      "d": 168.34643749997485,
      "v": 62
    },
    {
      "midi": 51,
      "hit": false,
      "t": 231699.1333750013,
      "d": 61.49181249999674,
      "v": 51
    },
    {
      "midi": 55,
      "hit": false,
      "t": 231942.0764375013,
      "d": 36.29024999999092,
      "v": 31
    },
    {
      "midi": 58,
      "hit": false,
      "t": 232093.28581250127,
      "d": 40.32250000000931,
      "v": 25
    },
    {
      "midi": 43,
      "hit": false,
      "t": 232198.12431250128,
      "d": 218.7495624999865,
      "v": 50
    },
    {
      "midi": 59,
      "hit": false,
      "t": 232225.34200000128,
      "d": 230.84631249998347,
      "v": 58
    },
    {
      "midi": 55,
      "hit": false,
      "t": 232512.63981250126,
      "d": 35.28218750000815,
      "v": 39
    },
    {
      "midi": 43,
      "hit": false,
      "t": 232821.10693750126,
      "d": 44.3547499999986,
      "v": 58
    },
    {
      "midi": 50,
      "hit": false,
      "t": 232830.17950000125,
      "d": 68.54825000002165,
      "v": 58
    },
    {
      "midi": 54,
      "hit": false,
      "t": 233207.19487500127,
      "d": 1934.4719374999695,
      "v": 57
    },
    {
      "midi": 64,
      "hit": false,
      "t": 233218.28356250128,
      "d": 1855.8430624999746,
      "v": 66
    },
    {
      "midi": 59,
      "hit": false,
      "t": 233225.34000000128,
      "d": 1842.7382499999658,
      "v": 51
    },
    {
      "midi": 78,
      "hit": false,
      "t": 234006.58843750128,
      "d": 50.40312500001164,
      "v": 42
    },
    {
      "midi": 81,
      "hit": false,
      "t": 234136.62850000127,
      "d": 116.93525000000955,
      "v": 75
    },
    {
      "midi": 78,
      "hit": false,
      "t": 234269.69275000127,
      "d": 56.451499999995576,
      "v": 37
    },
    {
      "midi": 79,
      "hit": false,
      "t": 234393.68443750127,
      "d": 201.61249999998836,
      "v": 70
    },
    {
      "midi": 73,
      "hit": false,
      "t": 234715.25637500125,
      "d": 72.58050000001094,
      "v": 39
    },
    {
      "midi": 76,
      "hit": false,
      "t": 234853.36093750125,
      "d": 101.81431250000605,
      "v": 44
    },
    {
      "midi": 74,
      "hit": false,
      "t": 234863.44156250125,
      "d": 88.7094999999972,
      "v": 41
    },
    {
      "midi": 73,
      "hit": false,
      "t": 234988.44131250127,
      "d": 31.249937499989755,
      "v": 27
    },
    {
      "midi": 74,
      "hit": false,
      "t": 235090.25562500124,
      "d": 140.12068749999162,
      "v": 71
    },
    {
      "midi": 67,
      "hit": false,
      "t": 235275.73912500124,
      "d": 623.990687499987,
      "v": 48
    },
    {
      "midi": 62,
      "hit": false,
      "t": 235285.81975000125,
      "d": 43.34668749998673,
      "v": 37
    },
    {
      "midi": 55,
      "hit": false,
      "t": 235331.18256250123,
      "d": 43.34668749998673,
      "v": 22
    },
    {
      "midi": 69,
      "hit": false,
      "t": 235967.27000000124,
      "d": 104.83850000001257,
      "v": 47
    },
    {
      "midi": 65,
      "hit": false,
      "t": 236082.18912500126,
      "d": 330.6444999999949,
      "v": 42
    },
    {
      "midi": 61,
      "hit": false,
      "t": 236083.19718750127,
      "d": 392.1363125000207,
      "v": 37
    },
    {
      "midi": 55,
      "hit": false,
      "t": 236092.26975000126,
      "d": 321.5719375000044,
      "v": 32
    },
    {
      "midi": 70,
      "hit": false,
      "t": 236111.42293750125,
      "d": 199.5963749999937,
      "v": 55
    },
    {
      "midi": 72,
      "hit": false,
      "t": 236362.43050000124,
      "d": 80.64500000004773,
      "v": 53
    },
    {
      "midi": 62,
      "hit": false,
      "t": 236711.2201250013,
      "d": 108.87075000000186,
      "v": 52
    },
    {
      "midi": 76,
      "hit": false,
      "t": 236735.4136250013,
      "d": 104.83850000001257,
      "v": 63
    },
    {
      "midi": 64,
      "hit": false,
      "t": 236855.3730625013,
      "d": 223.78987500001676,
      "v": 48
    },
    {
      "midi": 79,
      "hit": false,
      "t": 236873.51818750132,
      "d": 133.0642499999958,
      "v": 44
    },
    {
      "midi": 69,
      "hit": false,
      "t": 236878.55850000132,
      "d": 148.1851874999993,
      "v": 46
    },
    {
      "midi": 77,
      "hit": false,
      "t": 237130.57412500132,
      "d": 57.459562500036554,
      "v": 44
    },
    {
      "midi": 63,
      "hit": false,
      "t": 237133.59831250133,
      "d": 114.919125000044,
      "v": 47
    },
    {
      "midi": 69,
      "hit": false,
      "t": 237143.67893750133,
      "d": 38.30637500001467,
      "v": 30
    },
    {
      "midi": 62,
      "hit": false,
      "t": 237306.98506250136,
      "d": 139.11262500000885,
      "v": 28
    },
    {
      "midi": 76,
      "hit": false,
      "t": 237513.63787500138,
      "d": 46.37087499999325,
      "v": 46
    },
    {
      "midi": 69,
      "hit": false,
      "t": 237513.63787500138,
      "d": 54.43537500000093,
      "v": 62
    },
    {
      "midi": 65,
      "hit": false,
      "t": 237521.7023750014,
      "d": 50.40312499998254,
      "v": 49
    },
    {
      "midi": 60,
      "hit": false,
      "t": 237552.95231250138,
      "d": 147.17712499998743,
      "v": 44
    },
    {
      "midi": 72,
      "hit": false,
      "t": 237731.37937500136,
      "d": 122.98362499999348,
      "v": 46
    },
    {
      "midi": 65,
      "hit": false,
      "t": 237748.51643750136,
      "d": 93.74981249999837,
      "v": 47
    },
    {
      "midi": 57,
      "hit": false,
      "t": 237773.71800000136,
      "d": 154.23356249998324,
      "v": 45
    },
    {
      "midi": 69,
      "hit": false,
      "t": 237775.73412500136,
      "d": 38.306374999985565,
      "v": 32
    },
    {
      "midi": 63,
      "hit": false,
      "t": 238007.58850000135,
      "d": 169.35450000004494,
      "v": 43
    },
    {
      "midi": 53,
      "hit": false,
      "t": 238013.63687500136,
      "d": 63.50793750002049,
      "v": 42
    },
    {
      "midi": 65,
      "hit": false,
      "t": 238478.3536875014,
      "d": 176.41093749998254,
      "v": 56
    },
    {
      "midi": 57,
      "hit": false,
      "t": 238481.3778750014,
      "d": 177.4189999999653,
      "v": 59
    },
    {
      "midi": 60,
      "hit": false,
      "t": 238483.3940000014,
      "d": 179.43512499995995,
      "v": 54
    },
    {
      "midi": 62,
      "hit": false,
      "t": 238487.4262500014,
      "d": 194.55606249999255,
      "v": 55
    },
    {
      "midi": 65,
      "hit": false,
      "t": 238796.90143750136,
      "d": 134.0723125000368,
      "v": 57
    },
    {
      "midi": 60,
      "hit": false,
      "t": 238802.94981250138,
      "d": 94.75787500001024,
      "v": 53
    },
    {
      "midi": 57,
      "hit": false,
      "t": 238810.0062500014,
      "d": 80.64499999998952,
      "v": 57
    },
    {
      "midi": 50,
      "hit": false,
      "t": 238810.0062500014,
      "d": 380.03956249999464,
      "v": 52
    },
    {
      "midi": 62,
      "hit": false,
      "t": 238817.0626875014,
      "d": 77.620812499983,
      "v": 34
    },
    {
      "midi": 67,
      "hit": false,
      "t": 239057.9896250014,
      "d": 72.58050000001094,
      "v": 71
    },
    {
      "midi": 53,
      "hit": false,
      "t": 239071.09443750142,
      "d": 66.5321249999979,
      "v": 60
    },
    {
      "midi": 59,
      "hit": false,
      "t": 239072.10250000143,
      "d": 70.5643749999872,
      "v": 63
    },
    {
      "midi": 62,
      "hit": false,
      "t": 239075.12668750144,
      "d": 31.249937499989755,
      "v": 57
    },
    {
      "midi": 65,
      "hit": false,
      "t": 239230.3683125014,
      "d": 209.67699999999604,
      "v": 63
    },
    {
      "midi": 43,
      "hit": false,
      "t": 239239.4408750014,
      "d": 597.7810625000566,
      "v": 36
    },
    {
      "midi": 57,
      "hit": false,
      "t": 239249.5215000014,
      "d": 128.02393749999464,
      "v": 50
    },
    {
      "midi": 53,
      "hit": false,
      "t": 239257.5860000014,
      "d": 120.96749999999884,
      "v": 34
    },
    {
      "midi": 64,
      "hit": false,
      "t": 239453.1501250014,
      "d": 48.38699999998789,
      "v": 48
    },
    {
      "midi": 56,
      "hit": false,
      "t": 239562.0208750014,
      "d": 182.45931250002468,
      "v": 37
    },
    {
      "midi": 50,
      "hit": false,
      "t": 239572.10150000142,
      "d": 112.90300000002026,
      "v": 45
    },
    {
      "midi": 62,
      "hit": false,
      "t": 239577.14181250142,
      "d": 185.4835000000312,
      "v": 44
    },
    {
      "midi": 59,
      "hit": false,
      "t": 239579.1579375014,
      "d": 104.83850000001257,
      "v": 37
    },
    {
      "midi": 64,
      "hit": false,
      "t": 239829.15743750145,
      "d": 267.1365624999744,
      "v": 59
    },
    {
      "midi": 48,
      "hit": false,
      "t": 239836.21387500144,
      "d": 363.9105624999793,
      "v": 48
    },
    {
      "midi": 55,
      "hit": false,
      "t": 239837.22193750145,
      "d": 141.1287499999744,
      "v": 48
    },
    {
      "midi": 59,
      "hit": false,
      "t": 239839.23806250145,
      "d": 138.10456249996787,
      "v": 42
    },
    {
      "midi": 67,
      "hit": false,
      "t": 240204.1566875014,
      "d": 322.5799999999872,
      "v": 62
    },
    {
      "midi": 62,
      "hit": false,
      "t": 240212.22118750142,
      "d": 293.3461874999921,
      "v": 60
    },
    {
      "midi": 57,
      "hit": false,
      "t": 240214.2373125014,
      "d": 184.47543749999022,
      "v": 58
    },
    {
      "midi": 52,
      "hit": false,
      "t": 240218.2695625014,
      "d": 276.20912499999395,
      "v": 57
    },
    {
      "midi": 75,
      "hit": false,
      "t": 240690.0428125014,
      "d": 65.52406250001513,
      "v": 18
    },
    {
      "midi": 64,
      "hit": false,
      "t": 240749.5185000014,
      "d": 311.4913125000021,
      "v": 74
    },
    {
      "midi": 79,
      "hit": false,
      "t": 240754.5588125014,
      "d": 549.3940625000687,
      "v": 58
    },
    {
      "midi": 69,
      "hit": false,
      "t": 240757.5830000014,
      "d": 427.41850000002887,
      "v": 70
    },
    {
      "midi": 60,
      "hit": false,
      "t": 240764.6394375014,
      "d": 314.5155000000086,
      "v": 49
    },
    {
      "midi": 57,
      "hit": false,
      "t": 240768.6716875014,
      "d": 447.57975000006263,
      "v": 42
    },
    {
      "midi": 72,
      "hit": false,
      "t": 240773.7120000014,
      "d": 377.01537500001723,
      "v": 45
    },
    {
      "midi": 76,
      "hit": false,
      "t": 240779.7603750014,
      "d": 263.1043124999851,
      "v": 44
    },
    {
      "midi": 53,
      "hit": false,
      "t": 240818.0667500014,
      "d": 380.03956250005285,
      "v": 32
    },
    {
      "midi": 64,
      "hit": false,
      "t": 241156.77575000143,
      "d": 48.387000000017,
      "v": 36
    },
    {
      "midi": 76,
      "hit": false,
      "t": 241381.57368750148,
      "d": 108.87075000000186,
      "v": 80
    },
    {
      "midi": 74,
      "hit": false,
      "t": 241512.6218125015,
      "d": 156.24968749997788,
      "v": 66
    },
    {
      "midi": 65,
      "hit": false,
      "t": 241516.65406250147,
      "d": 159.2738749999844,
      "v": 39
    },
    {
      "midi": 62,
      "hit": false,
      "t": 241522.7024375015,
      "d": 603.8294374999241,
      "v": 31
    },
    {
      "midi": 57,
      "hit": false,
      "t": 241526.73468750148,
      "d": 520.1602499999572,
      "v": 31
    },
    {
      "midi": 76,
      "hit": false,
      "t": 241678.95212500147,
      "d": 93.74981249999837,
      "v": 54
    },
    {
      "midi": 74,
      "hit": false,
      "t": 241749.51650000145,
      "d": 84.67725000000792,
      "v": 46
    },
    {
      "midi": 73,
      "hit": false,
      "t": 241824.11312500146,
      "d": 46.37087499999325,
      "v": 31
    },
    {
      "midi": 65,
      "hit": false,
      "t": 241874.51625000144,
      "d": 210.6850624999788,
      "v": 36
    },
    {
      "midi": 74,
      "hit": false,
      "t": 241901.73393750144,
      "d": 294.35424999994575,
      "v": 56
    },
    {
      "midi": 77,
      "hit": false,
      "t": 242157.7818125014,
      "d": 850.8047500000102,
      "v": 74
    },
    {
      "midi": 56,
      "hit": false,
      "t": 242164.8382500014,
      "d": 1079.6349375000282,
      "v": 55
    },
    {
      "midi": 67,
      "hit": false,
      "t": 242170.8866250014,
      "d": 777.2161874999874,
      "v": 60
    },
    {
      "midi": 62,
      "hit": false,
      "t": 242174.9188750014,
      "d": 823.5870625000098,
      "v": 34
    },
    {
      "midi": 74,
      "hit": false,
      "t": 242912.8206250014,
      "d": 128.02393750002375,
      "v": 64
    },
    {
      "midi": 72,
      "hit": false,
      "t": 243096.28800000143,
      "d": 145.16099999999278,
      "v": 30
    },
    {
      "midi": 64,
      "hit": false,
      "t": 243441.0453750014,
      "d": 116.93524999998044,
      "v": 40
    },
    {
      "midi": 72,
      "hit": false,
      "t": 243441.0453750014,
      "d": 192.5399374999688,
      "v": 49
    },
    {
      "midi": 55,
      "hit": false,
      "t": 243492.4565625014,
      "d": 101.81431249997695,
      "v": 26
    },
    {
      "midi": 65,
      "hit": false,
      "t": 243836.20587500138,
      "d": 435.48300000000745,
      "v": 40
    },
    {
      "midi": 76,
      "hit": false,
      "t": 243839.2300625014,
      "d": 638.1035625000368,
      "v": 53
    },
    {
      "midi": 54,
      "hit": false,
      "t": 243850.3187500014,
      "d": 501.0070625000226,
      "v": 29
    },
    {
      "midi": 60,
      "hit": false,
      "t": 243852.3348750014,
      "d": 452.6200625000056,
      "v": 31
    },
    {
      "midi": 58,
      "hit": false,
      "t": 243872.4961250014,
      "d": 460.68456250001327,
      "v": 30
    },
    {
      "midi": 72,
      "hit": false,
      "t": 244443.05950000143,
      "d": 34.274124999996275,
      "v": 56
    },
    {
      "midi": 79,
      "hit": false,
      "t": 244757.5750000014,
      "d": 50.40312500001164,
      "v": 35
    },
    {
      "midi": 65,
      "hit": false,
      "t": 244765.63950000142,
      "d": 31.249937499989755,
      "v": 34
    },
    {
      "midi": 91,
      "hit": false,
      "t": 244766.64756250143,
      "d": 50.40312500001164,
      "v": 34
    },
    {
      "midi": 60,
      "hit": false,
      "t": 244770.67981250142,
      "d": 38.30637500001467,
      "v": 30
    },
    {
      "midi": 57,
      "hit": false,
      "t": 244777.7362500014,
      "d": 49.39506250002887,
      "v": 34
    },
    {
      "midi": 79,
      "hit": false,
      "t": 245018.66318750143,
      "d": 44.3547499999986,
      "v": 42
    },
    {
      "midi": 91,
      "hit": false,
      "t": 245024.71156250144,
      "d": 58.46762499999022,
      "v": 39
    },
    {
      "midi": 57,
      "hit": false,
      "t": 245026.72768750144,
      "d": 64.51600000000326,
      "v": 33
    },
    {
      "midi": 60,
      "hit": false,
      "t": 245043.86475000143,
      "d": 38.306374999985565,
      "v": 31
    },
    {
      "midi": 65,
      "hit": false,
      "t": 245259.59012500144,
      "d": 51.41118749996531,
      "v": 54
    },
    {
      "midi": 57,
      "hit": false,
      "t": 245263.62237500143,
      "d": 101.81431249997695,
      "v": 33
    },
    {
      "midi": 91,
      "hit": false,
      "t": 245265.63850000143,
      "d": 75.60468749998836,
      "v": 51
    },
    {
      "midi": 79,
      "hit": false,
      "t": 245268.66268750143,
      "d": 53.42731249998906,
      "v": 45
    },
    {
      "midi": 60,
      "hit": false,
      "t": 245272.69493750142,
      "d": 82.66112499998417,
      "v": 40
    },
    {
      "midi": 65,
      "hit": false,
      "t": 245509.58962500142,
      "d": 66.5321249999979,
      "v": 51
    },
    {
      "midi": 57,
      "hit": false,
      "t": 245519.67025000142,
      "d": 87.70143750001444,
      "v": 32
    },
    {
      "midi": 60,
      "hit": false,
      "t": 245522.69443750143,
      "d": 85.68531250001979,
      "v": 40
    },
    {
      "midi": 91,
      "hit": false,
      "t": 245526.72668750142,
      "d": 77.62081250001211,
      "v": 57
    },
    {
      "midi": 79,
      "hit": false,
      "t": 245535.7992500014,
      "d": 50.40312500001164,
      "v": 44
    },
    {
      "midi": 65,
      "hit": false,
      "t": 245774.71006250146,
      "d": 64.51600000000326,
      "v": 51
    },
    {
      "midi": 60,
      "hit": false,
      "t": 245791.84712500146,
      "d": 48.387000000017,
      "v": 37
    },
    {
      "midi": 57,
      "hit": false,
      "t": 245791.84712500146,
      "d": 57.45956250000745,
      "v": 35
    },
    {
      "midi": 91,
      "hit": false,
      "t": 245791.84712500146,
      "d": 75.60468750001746,
      "v": 60
    },
    {
      "midi": 55,
      "hit": false,
      "t": 245793.86325000145,
      "d": 38.30637500001467,
      "v": 24
    },
    {
      "midi": 79,
      "hit": false,
      "t": 245799.91162500146,
      "d": 52.419250000006286,
      "v": 46
    },
    {
      "midi": 55,
      "hit": false,
      "t": 246040.83856250148,
      "d": 44.3547499999986,
      "v": 33
    },
    {
      "midi": 91,
      "hit": false,
      "t": 246040.83856250148,
      "d": 73.58856250002282,
      "v": 61
    },
    {
      "midi": 79,
      "hit": false,
      "t": 246042.85468750147,
      "d": 65.52406250001513,
      "v": 54
    },
    {
      "midi": 65,
      "hit": false,
      "t": 246052.93531250147,
      "d": 30.241875000006985,
      "v": 45
    },
    {
      "midi": 60,
      "hit": false,
      "t": 246055.95950000148,
      "d": 35.28218750000815,
      "v": 39
    },
    {
      "midi": 57,
      "hit": false,
      "t": 246066.04012500148,
      "d": 38.30637500001467,
      "v": 34
    },
    {
      "midi": 79,
      "hit": false,
      "t": 246293.8622500015,
      "d": 64.51600000000326,
      "v": 54
    },
    {
      "midi": 65,
      "hit": false,
      "t": 246295.87837500148,
      "d": 42.33862500000396,
      "v": 67
    },
    {
      "midi": 61,
      "hit": false,
      "t": 246299.91062500147,
      "d": 62.49987500003772,
      "v": 46
    },
    {
      "midi": 55,
      "hit": false,
      "t": 246299.91062500147,
      "d": 66.53212500002701,
      "v": 60
    },
    {
      "midi": 91,
      "hit": false,
      "t": 246302.93481250148,
      "d": 56.45150000002468,
      "v": 38
    },
    {
      "midi": 56,
      "hit": false,
      "t": 246543.8617500015,
      "d": 111.89493750000838,
      "v": 43
    },
    {
      "midi": 91,
      "hit": false,
      "t": 246546.8859375015,
      "d": 81.6530625000014,
      "v": 60
    },
    {
      "midi": 65,
      "hit": false,
      "t": 246549.9101250015,
      "d": 63.507937499991385,
      "v": 54
    },
    {
      "midi": 79,
      "hit": false,
      "t": 246549.9101250015,
      "d": 71.57243749999907,
      "v": 54
    },
    {
      "midi": 61,
      "hit": false,
      "t": 246549.9101250015,
      "d": 75.60468749998836,
      "v": 38
    },
    {
      "midi": 55,
      "hit": false,
      "t": 246557.97462500152,
      "d": 39.31443749999744,
      "v": 36
    },
    {
      "midi": 56,
      "hit": false,
      "t": 246807.9741250015,
      "d": 97.78206250004587,
      "v": 39
    },
    {
      "midi": 65,
      "hit": false,
      "t": 246808.9821875015,
      "d": 56.45150000002468,
      "v": 62
    },
    {
      "midi": 61,
      "hit": false,
      "t": 246808.9821875015,
      "d": 79.63693750003586,
      "v": 46
    },
    {
      "midi": 91,
      "hit": false,
      "t": 246808.9821875015,
      "d": 80.64500000004773,
      "v": 58
    },
    {
      "midi": 79,
      "hit": false,
      "t": 246809.99025000152,
      "d": 65.52406250001513,
      "v": 53
    },
    {
      "midi": 55,
      "hit": false,
      "t": 246830.15150000152,
      "d": 32.25800000000163,
      "v": 31
    },
    {
      "midi": 91,
      "hit": false,
      "t": 247048.90106250154,
      "d": 85.68531250001979,
      "v": 52
    },
    {
      "midi": 56,
      "hit": false,
      "t": 247049.90912500155,
      "d": 113.91106250000303,
      "v": 37
    },
    {
      "midi": 61,
      "hit": false,
      "t": 247050.91718750156,
      "d": 95.76593749999302,
      "v": 42
    },
    {
      "midi": 65,
      "hit": false,
      "t": 247054.94943750155,
      "d": 61.49181249999674,
      "v": 48
    },
    {
      "midi": 79,
      "hit": false,
      "t": 247057.97362500156,
      "d": 69.55631250000442,
      "v": 42
    },
    {
      "midi": 61,
      "hit": false,
      "t": 247290.83606250156,
      "d": 102.82237499998882,
      "v": 35
    },
    {
      "midi": 56,
      "hit": false,
      "t": 247293.86025000157,
      "d": 115.92718749996857,
      "v": 26
    },
    {
      "midi": 65,
      "hit": false,
      "t": 247297.89250000156,
      "d": 54.43537500000093,
      "v": 44
    },
    {
      "midi": 91,
      "hit": false,
      "t": 247297.89250000156,
      "d": 77.620812499983,
      "v": 52
    },
    {
      "midi": 79,
      "hit": false,
      "t": 247300.91668750157,
      "d": 70.5643749999872,
      "v": 44
    },
    {
      "midi": 65,
      "hit": false,
      "t": 247537.81137500153,
      "d": 68.54825000002165,
      "v": 63
    },
    {
      "midi": 91,
      "hit": false,
      "t": 247543.85975000155,
      "d": 79.63693749997765,
      "v": 55
    },
    {
      "midi": 79,
      "hit": false,
      "t": 247546.88393750155,
      "d": 68.54824999999255,
      "v": 50
    },
    {
      "midi": 57,
      "hit": false,
      "t": 247550.91618750154,
      "d": 84.67724999997881,
      "v": 42
    },
    {
      "midi": 60,
      "hit": false,
      "t": 247553.94037500155,
      "d": 65.52406249998603,
      "v": 48
    },
    {
      "midi": 55,
      "hit": false,
      "t": 247562.00487500156,
      "d": 37.298312500002794,
      "v": 37
    },
    {
      "midi": 91,
      "hit": false,
      "t": 247787.8108750015,
      "d": 94.75787499998114,
      "v": 57
    },
    {
      "midi": 79,
      "hit": false,
      "t": 247794.8673125015,
      "d": 78.62887499999488,
      "v": 48
    },
    {
      "midi": 65,
      "hit": false,
      "t": 247796.8834375015,
      "d": 60.48375000001397,
      "v": 44
    },
    {
      "midi": 57,
      "hit": false,
      "t": 247797.8915000015,
      "d": 80.64499999998952,
      "v": 34
    },
    {
      "midi": 60,
      "hit": false,
      "t": 247806.9640625015,
      "d": 77.620812499983,
      "v": 44
    },
    {
      "midi": 65,
      "hit": false,
      "t": 248037.81037500149,
      "d": 44.3547499999986,
      "v": 51
    },
    {
      "midi": 60,
      "hit": false,
      "t": 248045.8748750015,
      "d": 67.54018749998068,
      "v": 41
    },
    {
      "midi": 79,
      "hit": false,
      "t": 248055.9555000015,
      "d": 53.42731249998906,
      "v": 51
    },
    {
      "midi": 91,
      "hit": false,
      "t": 248055.9555000015,
      "d": 85.68531249999069,
      "v": 57
    },
    {
      "midi": 55,
      "hit": false,
      "t": 248059.98775000148,
      "d": 57.45956250000745,
      "v": 30
    },
    {
      "midi": 57,
      "hit": false,
      "t": 248069.06031250147,
      "d": 45.36281250001048,
      "v": 32
    },
    {
      "midi": 95,
      "hit": false,
      "t": 248309.9872500015,
      "d": 382.0556875000184,
      "v": 84
    },
    {
      "midi": 64,
      "hit": false,
      "t": 248316.0356250015,
      "d": 377.01537500001723,
      "v": 80
    },
    {
      "midi": 83,
      "hit": false,
      "t": 248317.04368750151,
      "d": 378.0234375,
      "v": 68
    },
    {
      "midi": 59,
      "hit": false,
      "t": 248319.0598125015,
      "d": 420.36206250000396,
      "v": 69
    },
    {
      "midi": 53,
      "hit": false,
      "t": 248321.0759375015,
      "d": 364.91862499999115,
      "v": 76
    },
    {
      "midi": 59,
      "hit": false,
      "t": 248794.86531250153,
      "d": 128.02393749999464,
      "v": 40
    },
    {
      "midi": 64,
      "hit": false,
      "t": 248795.87337500154,
      "d": 74.59662499997648,
      "v": 46
    },
    {
      "midi": 53,
      "hit": false,
      "t": 248799.90562500153,
      "d": 93.74981249999837,
      "v": 49
    },
    {
      "midi": 95,
      "hit": false,
      "t": 248808.97818750152,
      "d": 149.19325000001118,
      "v": 69
    },
    {
      "midi": 83,
      "hit": false,
      "t": 248813.0104375015,
      "d": 101.81431250000605,
      "v": 62
    },
    {
      "midi": 96,
      "hit": false,
      "t": 249078.13087500152,
      "d": 71.57243750002817,
      "v": 80
    },
    {
      "midi": 84,
      "hit": false,
      "t": 249084.17925000153,
      "d": 76.61275000002934,
      "v": 63
    },
    {
      "midi": 91,
      "hit": false,
      "t": 249085.18731250154,
      "d": 47.37893750000512,
      "v": 70
    },
    {
      "midi": 54,
      "hit": false,
      "t": 249450.10593750156,
      "d": 58.467625000019325,
      "v": 79
    },
    {
      "midi": 55,
      "hit": false,
      "t": 249458.17043750157,
      "d": 848.7886250000156,
      "v": 79
    },
    {
      "midi": 49,
      "hit": false,
      "t": 250259.58012500158,
      "d": 114.9191250000149,
      "v": 40
    },
    {
      "midi": 58,
      "hit": false,
      "t": 250370.46700000158,
      "d": 354.8380000000179,
      "v": 46
    },
    {
      "midi": 66,
      "hit": false,
      "t": 250373.49118750158,
      "d": 297.3784375000105,
      "v": 45
    },
    {
      "midi": 51,
      "hit": false,
      "t": 250381.5556875016,
      "d": 359.87831249999,
      "v": 43
    },
    {
      "midi": 61,
      "hit": false,
      "t": 250384.5798750016,
      "d": 326.6122500000056,
      "v": 50
    },
    {
      "midi": 49,
      "hit": false,
      "t": 250703.1276250016,
      "d": 51.41118749999441,
      "v": 21
    },
    {
      "midi": 57,
      "hit": false,
      "t": 250782.7645625016,
      "d": 642.1358125000261,
      "v": 50
    },
    {
      "midi": 65,
      "hit": false,
      "t": 250783.7726250016,
      "d": 609.8778124999953,
      "v": 49
    },
    {
      "midi": 50,
      "hit": false,
      "t": 250792.8451875016,
      "d": 626.0068125000107,
      "v": 38
    },
    {
      "midi": 60,
      "hit": false,
      "t": 250793.85325000162,
      "d": 636.087437500013,
      "v": 40
    },
    {
      "midi": 57,
      "hit": false,
      "t": 251559.98075000162,
      "d": 419.3539999999921,
      "v": 48
    },
    {
      "midi": 65,
      "hit": false,
      "t": 251561.9968750016,
      "d": 338.70900000000256,
      "v": 44
    },
    {
      "midi": 50,
      "hit": false,
      "t": 251574.0936250016,
      "d": 421.37012500001583,
      "v": 36
    },
    {
      "midi": 60,
      "hit": false,
      "t": 251580.14200000162,
      "d": 405.24112500000047,
      "v": 34
    },
    {
      "midi": 56,
      "hit": false,
      "t": 252332.15662500163,
      "d": 271.1688124999928,
      "v": 48
    },
    {
      "midi": 60,
      "hit": false,
      "t": 252343.24531250165,
      "d": 245.96724999998696,
      "v": 50
    },
    {
      "midi": 55,
      "hit": false,
      "t": 252348.28562500165,
      "d": 437.4991249999439,
      "v": 60
    },
    {
      "midi": 67,
      "hit": false,
      "t": 252351.30981250165,
      "d": 233.87049999999,
      "v": 30
    },
    {
      "midi": 43,
      "hit": false,
      "t": 252612.39800000162,
      "d": 502.01512499997625,
      "v": 44
    },
    {
      "midi": 56,
      "hit": false,
      "t": 252982.35693750158,
      "d": 539.3134375000081,
      "v": 37
    },
    {
      "midi": 67,
      "hit": false,
      "t": 252992.43756250158,
      "d": 470.7651874999865,
      "v": 32
    },
    {
      "midi": 55,
      "hit": false,
      "t": 252992.43756250158,
      "d": 748.9904375000042,
      "v": 45
    },
    {
      "midi": 60,
      "hit": false,
      "t": 252993.4456250016,
      "d": 532.2569999999832,
      "v": 50
    },
    {
      "midi": 43,
      "hit": false,
      "t": 253333.16268750158,
      "d": 1340.7231250000477,
      "v": 66
    },
    {
      "midi": 50,
      "hit": false,
      "t": 253780.74243750158,
      "d": 46.37087499999325,
      "v": 26
    },
    {
      "midi": 59,
      "hit": false,
      "t": 253879.53256250158,
      "d": 40.32250000000931,
      "v": 51
    },
    {
      "midi": 62,
      "hit": false,
      "t": 253890.6212500016,
      "d": 46.37087499999325,
      "v": 44
    },
    {
      "midi": 53,
      "hit": false,
      "t": 253897.6776875016,
      "d": 39.31443749999744,
      "v": 38
    },
    {
      "midi": 50,
      "hit": false,
      "t": 254207.1528750016,
      "d": 45.36281250001048,
      "v": 24
    },
    {
      "midi": 56,
      "hit": false,
      "t": 254253.52375000162,
      "d": 146.16906250000466,
      "v": 37
    },
    {
      "midi": 59,
      "hit": false,
      "t": 254257.5560000016,
      "d": 150.20131250002305,
      "v": 49
    },
    {
      "midi": 62,
      "hit": false,
      "t": 254263.60437500163,
      "d": 149.19325000001118,
      "v": 43
    },
    {
      "midi": 53,
      "hit": false,
      "t": 254265.62050000162,
      "d": 261.08818750001956,
      "v": 48
    },
    {
      "midi": 63,
      "hit": false,
      "t": 254905.74018750162,
      "d": 263.1043125000142,
      "v": 61
    },
    {
      "midi": 71,
      "hit": false,
      "t": 254906.74825000163,
      "d": 335.68481249999604,
      "v": 50
    },
    {
      "midi": 68,
      "hit": false,
      "t": 254915.82081250162,
      "d": 262.0962500000023,
      "v": 44
    },
    {
      "midi": 59,
      "hit": false,
      "t": 254917.83693750162,
      "d": 144.15293750001,
      "v": 53
    },
    {
      "midi": 67,
      "hit": false,
      "t": 255304.93293750164,
      "d": 503.02318750004633,
      "v": 41
    },
    {
      "midi": 52,
      "hit": false,
      "t": 255309.97325000164,
      "d": 162.29806250002002,
      "v": 48
    },
    {
      "midi": 64,
      "hit": false,
      "t": 255310.98131250165,
      "d": 479.83775000003516,
      "v": 52
    },
    {
      "midi": 60,
      "hit": false,
      "t": 255314.00550000166,
      "d": 446.57168750002165,
      "v": 33
    },
    {
      "midi": 57,
      "hit": false,
      "t": 255328.11837500165,
      "d": 359.8783125000191,
      "v": 36
    },
    {
      "midi": 52,
      "hit": false,
      "t": 255677.91606250167,
      "d": 107.86268750001909,
      "v": 57
    },
    {
      "midi": 79,
      "hit": false,
      "t": 256076.10075000167,
      "d": 116.93524999998044,
      "v": 71
    },
    {
      "midi": 78,
      "hit": false,
      "t": 256090.21362500166,
      "d": 75.60468749998836,
      "v": 48
    },
    {
      "midi": 79,
      "hit": false,
      "t": 256434.97100000165,
      "d": 367.9428124999977,
      "v": 71
    },
    {
      "midi": 67,
      "hit": false,
      "t": 256595.25293750165,
      "d": 228.83018749998882,
      "v": 36
    },
    {
      "midi": 79,
      "hit": false,
      "t": 256955.13125000164,
      "d": 153.22550000005867,
      "v": 50
    },
    {
      "midi": 65,
      "hit": false,
      "t": 256966.21993750165,
      "d": 117.94331250002142,
      "v": 35
    },
    {
      "midi": 55,
      "hit": false,
      "t": 256973.27637500165,
      "d": 129.03200000003562,
      "v": 33
    },
    {
      "midi": 56,
      "hit": false,
      "t": 256978.31668750165,
      "d": 173.38675000003423,
      "v": 33
    },
    {
      "midi": 61,
      "hit": false,
      "t": 256979.32475000166,
      "d": 143.14487500002724,
      "v": 35
    },
    {
      "midi": 79,
      "hit": false,
      "t": 257607.3476875017,
      "d": 2311.487312500074,
      "v": 47
    },
    {
      "midi": 67,
      "hit": false,
      "t": 257620.4525000017,
      "d": 1967.7380000000703,
      "v": 42
    },
    {
      "midi": 56,
      "hit": false,
      "t": 257626.50087500172,
      "d": 336.6928749999788,
      "v": 28
    },
    {
      "midi": 55,
      "hit": false,
      "t": 257630.5331250017,
      "d": 281.2494374999951,
      "v": 26
    },
    {
      "midi": 65,
      "hit": false,
      "t": 257632.5492500017,
      "d": 228.83018750001793,
      "v": 35
    },
    {
      "midi": 61,
      "hit": false,
      "t": 257636.58150000172,
      "d": 273.1849374999874,
      "v": 31
    },
    {
      "midi": 55,
      "hit": false,
      "t": 258173.8788125017,
      "d": 166.3303125000093,
      "v": 62
    },
    {
      "midi": 45,
      "hit": false,
      "t": 258197.0642500017,
      "d": 69.55631250000442,
      "v": 37
    },
    {
      "midi": 43,
      "hit": false,
      "t": 258198.07231250172,
      "d": 82.66112499998417,
      "v": 31
    },
    {
      "midi": 43,
      "hit": false,
      "t": 258410.7735000017,
      "d": 499.9990000000398,
      "v": 66
    },
    {
      "midi": 55,
      "hit": false,
      "t": 258411.7815625017,
      "d": 508.0635000000184,
      "v": 61
    },
    {
      "midi": 43,
      "hit": false,
      "t": 259166.82037500173,
      "d": 267.1365625000326,
      "v": 57
    },
    {
      "midi": 55,
      "hit": false,
      "t": 259174.88487500174,
      "d": 269.15268750002724,
      "v": 66
    },
    {
      "midi": 67,
      "hit": false,
      "t": 259696.05318750176,
      "d": 79.63693750000675,
      "v": 41
    },
    {
      "midi": 79,
      "hit": false,
      "t": 260069.03631250176,
      "d": 173.38675000006333,
      "v": 54
    },
    {
      "midi": 56,
      "hit": false,
      "t": 260072.06050000177,
      "d": 162.29806250004913,
      "v": 46
    },
    {
      "midi": 65,
      "hit": false,
      "t": 260076.09275000176,
      "d": 87.70143750004354,
      "v": 49
    },
    {
      "midi": 55,
      "hit": false,
      "t": 260076.09275000176,
      "d": 97.78206250004587,
      "v": 40
    },
    {
      "midi": 67,
      "hit": false,
      "t": 260093.22981250176,
      "d": 67.54018750003888,
      "v": 45
    },
    {
      "midi": 61,
      "hit": false,
      "t": 260094.23787500177,
      "d": 109.87881250004284,
      "v": 32
    },
    {
      "midi": 72,
      "hit": false,
      "t": 260099.27818750177,
      "d": 46.37087500002235,
      "v": 43
    },
    {
      "midi": 79,
      "hit": false,
      "t": 260694.03506250185,
      "d": 145.1610000000219,
      "v": 42
    },
    {
      "midi": 56,
      "hit": false,
      "t": 260707.13987500186,
      "d": 131.04812500000116,
      "v": 27
    },
    {
      "midi": 65,
      "hit": false,
      "t": 260710.16406250186,
      "d": 33.266062500013504,
      "v": 44
    },
    {
      "midi": 67,
      "hit": false,
      "t": 260710.16406250186,
      "d": 69.55631250000442,
      "v": 40
    },
    {
      "midi": 72,
      "hit": false,
      "t": 260713.18825000187,
      "d": 69.55631250000442,
      "v": 41
    },
    {
      "midi": 61,
      "hit": false,
      "t": 260721.25275000188,
      "d": 58.46762499999022,
      "v": 30
    },
    {
      "midi": 55,
      "hit": false,
      "t": 260738.38981250187,
      "d": 53.42731249998906,
      "v": 20
    },
    {
      "midi": 43,
      "hit": false,
      "t": 261076.09075000187,
      "d": 61.49181249999674,
      "v": 68
    },
    {
      "midi": 43,
      "hit": false,
      "t": 261225.28400000188,
      "d": 431.45075000001816,
      "v": 19
    },
    {
      "midi": 31,
      "hit": false,
      "t": 261243.4291250019,
      "d": 138.10456249999697,
      "v": 35
    },
    {
      "midi": 31,
      "hit": false,
      "t": 261484.3560625019,
      "d": 120.96749999999884,
      "v": 73
    },
    {
      "midi": 50,
      "hit": false,
      "t": 261921.8551875019,
      "d": 56.451499999995576,
      "v": 24
    },
    {
      "midi": 56,
      "hit": false,
      "t": 261984.3550625019,
      "d": 189.5157500000205,
      "v": 50
    },
    {
      "midi": 67,
      "hit": false,
      "t": 261991.4115000019,
      "d": 160.28193749999627,
      "v": 39
    },
    {
      "midi": 60,
      "hit": false,
      "t": 261995.4437500019,
      "d": 184.47543750004843,
      "v": 57
    },
    {
      "midi": 55,
      "hit": false,
      "t": 261995.4437500019,
      "d": 191.53187500004424,
      "v": 52
    },
    {
      "midi": 63,
      "hit": false,
      "t": 261998.4679375019,
      "d": 212.70118750003166,
      "v": 47
    },
    {
      "midi": 67,
      "hit": false,
      "t": 262257.54000000196,
      "d": 420.36206250009127,
      "v": 47
    },
    {
      "midi": 56,
      "hit": false,
      "t": 262259.556125002,
      "d": 382.0556875000475,
      "v": 47
    },
    {
      "midi": 63,
      "hit": false,
      "t": 262264.59643750195,
      "d": 364.91862500004936,
      "v": 27
    },
    {
      "midi": 55,
      "hit": false,
      "t": 262264.59643750195,
      "d": 587.7004375001416,
      "v": 53
    },
    {
      "midi": 60,
      "hit": false,
      "t": 262270.64481250197,
      "d": 355.8460625000298,
      "v": 48
    },
    {
      "midi": 56,
      "hit": false,
      "t": 262765.60350000206,
      "d": 139.11262500000885,
      "v": 45
    },
    {
      "midi": 43,
      "hit": false,
      "t": 262768.62768750207,
      "d": 131.04812500003027,
      "v": 51
    },
    {
      "midi": 63,
      "hit": false,
      "t": 262775.68412500207,
      "d": 166.3303125000093,
      "v": 38
    },
    {
      "midi": 60,
      "hit": false,
      "t": 262804.9179375021,
      "d": 45.36281249998137,
      "v": 33
    },
    {
      "midi": 67,
      "hit": false,
      "t": 263413.78768750204,
      "d": 87.70143749995623,
      "v": 56
    },
    {
      "midi": 43,
      "hit": false,
      "t": 263427.90056250204,
      "d": 86.69337499997346,
      "v": 53
    },
    {
      "midi": 57,
      "hit": false,
      "t": 263428.908625002,
      "d": 31.249937499989755,
      "v": 52
    },
    {
      "midi": 60,
      "hit": false,
      "t": 263431.932812502,
      "d": 43.346687499957625,
      "v": 53
    },
    {
      "midi": 67,
      "hit": false,
      "t": 263918.827000002,
      "d": 555.4424374999362,
      "v": 37
    },
    {
      "midi": 57,
      "hit": false,
      "t": 263925.883437502,
      "d": 488.9103124999674,
      "v": 48
    },
    {
      "midi": 43,
      "hit": false,
      "t": 263930.923750002,
      "d": 73.58856250002282,
      "v": 50
    },
    {
      "midi": 60,
      "hit": false,
      "t": 263930.923750002,
      "d": 497.98287499998696,
      "v": 51
    },
    {
      "midi": 65,
      "hit": false,
      "t": 263932.939875002,
      "d": 614.9181249999674,
      "v": 43
    },
    {
      "midi": 56,
      "hit": false,
      "t": 264707.13187500194,
      "d": 588.7084999999497,
      "v": 32
    },
    {
      "midi": 59,
      "hit": false,
      "t": 264711.16412500193,
      "d": 528.2247499999357,
      "v": 50
    },
    {
      "midi": 43,
      "hit": false,
      "t": 264711.16412500193,
      "d": 773.1839374999981,
      "v": 45
    },
    {
      "midi": 64,
      "hit": false,
      "t": 264712.1721875019,
      "d": 631.0471249999828,
      "v": 57
    },
    {
      "midi": 56,
      "hit": false,
      "t": 265370.4370000019,
      "d": 329.6364375000703,
      "v": 33
    },
    {
      "midi": 62,
      "hit": false,
      "t": 265377.4934375019,
      "d": 474.797437500034,
      "v": 51
    },
    {
      "midi": 59,
      "hit": false,
      "t": 265389.5901875019,
      "d": 386.0879375000368,
      "v": 43
    },
    {
      "midi": 31,
      "hit": false,
      "t": 265402.6950000019,
      "d": 178.4270625000354,
      "v": 36
    },
    {
      "midi": 62,
      "hit": false,
      "t": 266149.6693125019,
      "d": 196.5721875000163,
      "v": 41
    },
    {
      "midi": 59,
      "hit": false,
      "t": 266159.7499375019,
      "d": 149.19325000001118,
      "v": 46
    },
    {
      "midi": 57,
      "hit": false,
      "t": 266162.7741250019,
      "d": 89.71756249997998,
      "v": 40
    },
    {
      "midi": 36,
      "hit": false,
      "t": 266166.8063750019,
      "d": 2899.1877499999828,
      "v": 43
    },
    {
      "midi": 24,
      "hit": false,
      "t": 266179.9111875019,
      "d": 1640.1176874999655,
      "v": 38
    },
    {
      "midi": 69,
      "hit": false,
      "t": 266557.9346250019,
      "d": 63.50793750002049,
      "v": 50
    },
    {
      "midi": 74,
      "hit": false,
      "t": 266681.92631250195,
      "d": 86.69337499997346,
      "v": 54
    },
    {
      "midi": 78,
      "hit": false,
      "t": 266776.6841875019,
      "d": 40.32250000000931,
      "v": 39
    },
    {
      "midi": 81,
      "hit": false,
      "t": 266889.5871875019,
      "d": 85.68531249999069,
      "v": 64
    },
    {
      "midi": 86,
      "hit": false,
      "t": 267001.4821250019,
      "d": 73.58856250002282,
      "v": 43
    },
    {
      "midi": 90,
      "hit": false,
      "t": 267086.1593750019,
      "d": 48.38699999998789,
      "v": 49
    },
    {
      "midi": 93,
      "hit": false,
      "t": 267217.2075000019,
      "d": 133.0642499999958,
      "v": 58
    },
    {
      "midi": 98,
      "hit": false,
      "t": 267312.9734375019,
      "d": 161.29000000003725,
      "v": 38
    },
    {
      "midi": 102,
      "hit": false,
      "t": 267406.7232500019,
      "d": 71.57243749999907,
      "v": 59
    },
    {
      "midi": 103,
      "hit": false,
      "t": 267506.5214375019,
      "d": 123.99168749997625,
      "v": 61
    },
    {
      "midi": 102,
      "hit": false,
      "t": 267619.4244375019,
      "d": 58.46762499999022,
      "v": 60
    },
    {
      "midi": 103,
      "hit": false,
      "t": 267725.27100000187,
      "d": 119.95943749998696,
      "v": 55
    },
    {
      "midi": 102,
      "hit": false,
      "t": 267803.89987500187,
      "d": 77.62081250001211,
      "v": 59
    },
    {
      "midi": 24,
      "hit": false,
      "t": 268037.7703750019,
      "d": 439.51524999999674,
      "v": 62
    },
    {
      "midi": 24,
      "hit": false,
      "t": 268571.0354375019,
      "d": 489.9183750000084,
      "v": 54
    }
  ]
}