{
  "jsonPath": "Pop/Candy Pop/Tiffany Giardina/eternal-flame.json",
  "path": "Pop\\Candy Pop\\Tiffany Giardina\\Eternal Flame.mid",
  "name": "Eternal Flame",
  "difficulty": "Advanced",
  "bpm": 79.00038183517887,
  "notes": [
    {
      "midi": 62,
      "hit": false,
      "t": 66835.12,
      "d": 387.6563541666692,
      "v": 96
    },
    {
      "midi": 69,
      "hit": false,
      "t": 66835.12,
      "d": 411.3904166666762,
      "v": 105
    },
    {
      "midi": 66,
      "hit": false,
      "t": 66835.12,
      "d": 423.25744791667967,
      "v": 103
    },
    {
      "midi": 57,
      "hit": false,
      "t": 67214.86499999999,
      "d": 450.94718750003085,
      "v": 83
    },
    {
      "midi": 62,
      "hit": false,
      "t": 67594.61000000002,
      "d": 276.8973958333372,
      "v": 110
    },
    {
      "midi": 69,
      "hit": false,
      "t": 67594.61000000002,
      "d": 403.4790625000169,
      "v": 107
    },
    {
      "midi": 66,
      "hit": false,
      "t": 67594.61000000002,
      "d": 431.1688020833535,
      "v": 105
    },
    {
      "midi": 57,
      "hit": false,
      "t": 67974.35500000003,
      "d": 142.4043750000128,
      "v": 71
    },
    {
      "midi": 57,
      "hit": false,
      "t": 68164.22750000004,
      "d": 174.04979166666453,
      "v": 96
    },
    {
      "midi": 60,
      "hit": false,
      "t": 68164.22750000004,
      "d": 577.5288541666669,
      "v": 98
    },
    {
      "midi": 65,
      "hit": false,
      "t": 68164.22750000004,
      "d": 656.6423958333326,
      "v": 105
    },
    {
      "midi": 69,
      "hit": false,
      "t": 68164.22750000004,
      "d": 680.3764583333395,
      "v": 85
    },
    {
      "midi": 57,
      "hit": false,
      "t": 68733.84500000003,
      "d": 458.8585416666756,
      "v": 90
    },
    {
      "midi": 60,
      "hit": false,
      "t": 69113.59000000004,
      "d": 411.3904166666616,
      "v": 90
    },
    {
      "midi": 65,
      "hit": false,
      "t": 69113.59000000004,
      "d": 435.1244791666686,
      "v": 79
    },
    {
      "midi": 69,
      "hit": false,
      "t": 69113.59000000004,
      "d": 466.7698958333349,
      "v": 73
    },
    {
      "midi": 57,
      "hit": false,
      "t": 69493.33500000004,
      "d": 245.25197916667094,
      "v": 73
    },
    {
      "midi": 62,
      "hit": false,
      "t": 69873.08000000005,
      "d": 387.6563541666692,
      "v": 96
    },
    {
      "midi": 71,
      "hit": false,
      "t": 69873.08000000005,
      "d": 411.3904166666762,
      "v": 105
    },
    {
      "midi": 67,
      "hit": false,
      "t": 69873.08000000005,
      "d": 423.25744791667967,
      "v": 103
    },
    {
      "midi": 55,
      "hit": false,
      "t": 70252.82500000004,
      "d": 450.94718750003085,
      "v": 83
    },
    {
      "midi": 62,
      "hit": false,
      "t": 70632.57000000007,
      "d": 276.8973958333372,
      "v": 110
    },
    {
      "midi": 71,
      "hit": false,
      "t": 70632.57000000007,
      "d": 403.4790625000169,
      "v": 107
    },
    {
      "midi": 67,
      "hit": false,
      "t": 70632.57000000007,
      "d": 431.1688020833535,
      "v": 105
    },
    {
      "midi": 55,
      "hit": false,
      "t": 71012.31500000008,
      "d": 142.4043750000128,
      "v": 71
    },
    {
      "midi": 57,
      "hit": false,
      "t": 71202.18750000009,
      "d": 174.04979166666453,
      "v": 96
    },
    {
      "midi": 62,
      "hit": false,
      "t": 71202.18750000009,
      "d": 577.5288541666669,
      "v": 98
    },
    {
      "midi": 66,
      "hit": false,
      "t": 71202.18750000009,
      "d": 656.6423958333326,
      "v": 105
    },
    {
      "midi": 69,
      "hit": false,
      "t": 71202.18750000009,
      "d": 680.3764583333395,
      "v": 85
    },
    {
      "midi": 57,
      "hit": false,
      "t": 71771.80500000008,
      "d": 458.8585416666756,
      "v": 90
    },
    {
      "midi": 62,
      "hit": false,
      "t": 72151.55000000009,
      "d": 411.3904166666616,
      "v": 90
    },
    {
      "midi": 66,
      "hit": false,
      "t": 72151.55000000009,
      "d": 435.1244791666686,
      "v": 79
    },
    {
      "midi": 69,
      "hit": false,
      "t": 72151.55000000009,
      "d": 466.7698958333349,
      "v": 73
    },
    {
      "midi": 57,
      "hit": false,
      "t": 72531.29500000009,
      "d": 245.25197916667094,
      "v": 73
    },
    {
      "midi": 65,
      "hit": false,
      "t": 72911.0400000001,
      "d": 379.74499999999534,
      "v": 81
    },
    {
      "midi": 62,
      "hit": false,
      "t": 72911.0400000001,
      "d": 399.52338541665813,
      "v": 82
    },
    {
      "midi": 69,
      "hit": false,
      "t": 72911.0400000001,
      "d": 423.2574479166651,
      "v": 87
    },
    {
      "midi": 60,
      "hit": false,
      "t": 73290.78500000009,
      "d": 419.30177083335,
      "v": 81
    },
    {
      "midi": 65,
      "hit": false,
      "t": 73670.5300000001,
      "d": 403.4790625000169,
      "v": 78
    },
    {
      "midi": 62,
      "hit": false,
      "t": 73670.5300000001,
      "d": 415.3460937500204,
      "v": 82
    },
    {
      "midi": 69,
      "hit": false,
      "t": 73670.5300000001,
      "d": 415.3460937500204,
      "v": 83
    },
    {
      "midi": 60,
      "hit": false,
      "t": 74050.27500000011,
      "d": 446.9915104166721,
      "v": 78
    },
    {
      "midi": 67,
      "hit": false,
      "t": 74430.02000000012,
      "d": 387.6563541666692,
      "v": 81
    },
    {
      "midi": 71,
      "hit": false,
      "t": 74430.02000000012,
      "d": 387.6563541666692,
      "v": 86
    },
    {
      "midi": 62,
      "hit": false,
      "t": 74430.02000000012,
      "d": 399.5233854166727,
      "v": 84
    },
    {
      "midi": 59,
      "hit": false,
      "t": 74809.76500000012,
      "d": 439.0801562500128,
      "v": 78
    },
    {
      "midi": 71,
      "hit": false,
      "t": 75189.51000000013,
      "d": 375.7893229166657,
      "v": 82
    },
    {
      "midi": 67,
      "hit": false,
      "t": 75189.51000000013,
      "d": 387.6563541666692,
      "v": 79
    },
    {
      "midi": 62,
      "hit": false,
      "t": 75189.51000000013,
      "d": 395.56770833334303,
      "v": 84
    },
    {
      "midi": 59,
      "hit": false,
      "t": 75569.25500000012,
      "d": 387.65635416668374,
      "v": 79
    },
    {
      "midi": 64,
      "hit": false,
      "t": 75949.00000000013,
      "d": 478.6369270833384,
      "v": 93
    },
    {
      "midi": 72,
      "hit": false,
      "t": 75949.00000000013,
      "d": 478.6369270833384,
      "v": 93
    },
    {
      "midi": 62,
      "hit": false,
      "t": 76708.49000000014,
      "d": 458.85854166666104,
      "v": 89
    },
    {
      "midi": 71,
      "hit": false,
      "t": 76708.49000000014,
      "d": 458.85854166666104,
      "v": 89
    },
    {
      "midi": 64,
      "hit": false,
      "t": 77467.98000000013,
      "d": 387.6563541666692,
      "v": 89
    },
    {
      "midi": 69,
      "hit": false,
      "t": 77467.98000000013,
      "d": 387.6563541666692,
      "v": 89
    },
    {
      "midi": 60,
      "hit": false,
      "t": 78227.47000000013,
      "d": 407.434739583332,
      "v": 90
    },
    {
      "midi": 67,
      "hit": false,
      "t": 78227.47000000013,
      "d": 407.434739583332,
      "v": 90
    },
    {
      "midi": 66,
      "hit": false,
      "t": 78986.96000000014,
      "d": 268.98604166666337,
      "v": 74
    },
    {
      "midi": 74,
      "hit": false,
      "t": 78986.96000000014,
      "d": 387.6563541666692,
      "v": 79
    },
    {
      "midi": 69,
      "hit": false,
      "t": 78986.96000000014,
      "d": 407.434739583332,
      "v": 84
    },
    {
      "midi": 62,
      "hit": false,
      "t": 79366.70500000013,
      "d": 423.25744791667967,
      "v": 77
    },
    {
      "midi": 66,
      "hit": false,
      "t": 79746.45000000014,
      "d": 399.5233854166727,
      "v": 81
    },
    {
      "midi": 69,
      "hit": false,
      "t": 79746.45000000014,
      "d": 399.5233854166727,
      "v": 81
    },
    {
      "midi": 74,
      "hit": false,
      "t": 79746.45000000014,
      "d": 415.3460937500058,
      "v": 82
    },
    {
      "midi": 62,
      "hit": false,
      "t": 80126.19500000015,
      "d": 359.96661458333256,
      "v": 76
    },
    {
      "midi": 74,
      "hit": false,
      "t": 80505.94000000015,
      "d": 363.9222916666622,
      "v": 81
    },
    {
      "midi": 66,
      "hit": false,
      "t": 80505.94000000015,
      "d": 431.1688020833244,
      "v": 80
    },
    {
      "midi": 71,
      "hit": false,
      "t": 80505.94000000015,
      "d": 431.1688020833244,
      "v": 80
    },
    {
      "midi": 62,
      "hit": false,
      "t": 80885.68500000014,
      "d": 446.99151041665755,
      "v": 78
    },
    {
      "midi": 74,
      "hit": false,
      "t": 81265.43000000014,
      "d": 439.08015624999825,
      "v": 87
    },
    {
      "midi": 66,
      "hit": false,
      "t": 81265.43000000014,
      "d": 482.592604166668,
      "v": 82
    },
    {
      "midi": 71,
      "hit": false,
      "t": 81265.43000000014,
      "d": 482.592604166668,
      "v": 82
    },
    {
      "midi": 62,
      "hit": false,
      "t": 81645.17500000013,
      "d": 435.12447916668316,
      "v": 79
    },
    {
      "midi": 65,
      "hit": false,
      "t": 82024.92000000014,
      "d": 383.70067708333954,
      "v": 84
    },
    {
      "midi": 69,
      "hit": false,
      "t": 82024.92000000014,
      "d": 383.70067708333954,
      "v": 84
    },
    {
      "midi": 74,
      "hit": false,
      "t": 82024.92000000014,
      "d": 534.0164062500116,
      "v": 79
    },
    {
      "midi": 60,
      "hit": false,
      "t": 82404.66500000015,
      "d": 450.94718750000175,
      "v": 84
    },
    {
      "midi": 55,
      "hit": false,
      "t": 82784.41000000015,
      "d": 158.22708333334594,
      "v": 83
    },
    {
      "midi": 74,
      "hit": false,
      "t": 82784.41000000015,
      "d": 490.50395833334187,
      "v": 86
    },
    {
      "midi": 60,
      "hit": false,
      "t": 82974.28250000016,
      "d": 154.27140625000175,
      "v": 78
    },
    {
      "midi": 65,
      "hit": false,
      "t": 83164.15500000016,
      "d": 146.3600520833279,
      "v": 83
    },
    {
      "midi": 72,
      "hit": false,
      "t": 83354.02750000016,
      "d": 371.83364583333605,
      "v": 79
    },
    {
      "midi": 64,
      "hit": false,
      "t": 83354.02750000016,
      "d": 747.6229687500017,
      "v": 79
    },
    {
      "midi": 67,
      "hit": false,
      "t": 83354.02750000016,
      "d": 933.5397916666698,
      "v": 79
    },
    {
      "midi": 60,
      "hit": false,
      "t": 83923.64500000016,
      "d": 443.0358333333279,
      "v": 80
    },
    {
      "midi": 72,
      "hit": false,
      "t": 84303.39000000016,
      "d": 407.434739583332,
      "v": 84
    },
    {
      "midi": 64,
      "hit": false,
      "t": 84303.39000000016,
      "d": 415.3460937500058,
      "v": 88
    },
    {
      "midi": 67,
      "hit": false,
      "t": 84303.39000000016,
      "d": 415.3460937500058,
      "v": 88
    },
    {
      "midi": 60,
      "hit": false,
      "t": 84683.13500000015,
      "d": 268.9860416666779,
      "v": 77
    },
    {
      "midi": 62,
      "hit": false,
      "t": 85442.62500000016,
      "d": 747.6229687499872,
      "v": 118
    },
    {
      "midi": 67,
      "hit": false,
      "t": 85632.49750000016,
      "d": 632.9083333333256,
      "v": 81
    },
    {
      "midi": 69,
      "hit": false,
      "t": 85822.37000000016,
      "d": 411.3904166666616,
      "v": 100
    },
    {
      "midi": 74,
      "hit": false,
      "t": 86012.24250000015,
      "d": 1012.6533333333209,
      "v": 110
    },
    {
      "midi": 62,
      "hit": false,
      "t": 86202.11500000015,
      "d": 822.7808333333232,
      "v": 107
    },
    {
      "midi": 79,
      "hit": false,
      "t": 86391.98750000015,
      "d": 632.9083333333256,
      "v": 81
    },
    {
      "midi": 81,
      "hit": false,
      "t": 86581.86000000015,
      "d": 411.3904166666616,
      "v": 100
    },
    {
      "midi": 86,
      "hit": false,
      "t": 86771.73250000014,
      "d": 233.38494791666744,
      "v": 110
    },
    {
      "midi": 62,
      "hit": false,
      "t": 103290.64000000014,
      "d": 387.6563541666692,
      "v": 96
    },
    {
      "midi": 69,
      "hit": false,
      "t": 103290.64000000014,
      "d": 411.3904166666762,
      "v": 105
    },
    {
      "midi": 66,
      "hit": false,
      "t": 103290.64000000014,
      "d": 423.25744791667967,
      "v": 103
    },
    {
      "midi": 57,
      "hit": false,
      "t": 103670.38500000014,
      "d": 450.94718750003085,
      "v": 83
    },
    {
      "midi": 62,
      "hit": false,
      "t": 104050.13000000016,
      "d": 276.8973958333372,
      "v": 110
    },
    {
      "midi": 69,
      "hit": false,
      "t": 104050.13000000016,
      "d": 403.4790625000169,
      "v": 107
    },
    {
      "midi": 66,
      "hit": false,
      "t": 104050.13000000016,
      "d": 431.1688020833535,
      "v": 105
    },
    {
      "midi": 57,
      "hit": false,
      "t": 104429.87500000017,
      "d": 142.4043750000128,
      "v": 71
    },
    {
      "midi": 57,
      "hit": false,
      "t": 104619.74750000019,
      "d": 174.04979166666453,
      "v": 96
    },
    {
      "midi": 60,
      "hit": false,
      "t": 104619.74750000019,
      "d": 577.5288541666669,
      "v": 98
    },
    {
      "midi": 65,
      "hit": false,
      "t": 104619.74750000019,
      "d": 656.6423958333326,
      "v": 105
    },
    {
      "midi": 69,
      "hit": false,
      "t": 104619.74750000019,
      "d": 680.3764583333395,
      "v": 85
    },
    {
      "midi": 57,
      "hit": false,
      "t": 105189.36500000018,
      "d": 458.8585416666756,
      "v": 90
    },
    {
      "midi": 60,
      "hit": false,
      "t": 105569.11000000019,
      "d": 411.3904166666616,
      "v": 90
    },
    {
      "midi": 65,
      "hit": false,
      "t": 105569.11000000019,
      "d": 435.1244791666686,
      "v": 79
    },
    {
      "midi": 69,
      "hit": false,
      "t": 105569.11000000019,
      "d": 466.7698958333349,
      "v": 73
    },
    {
      "midi": 57,
      "hit": false,
      "t": 105948.85500000019,
      "d": 245.25197916667094,
      "v": 73
    },
    {
      "midi": 62,
      "hit": false,
      "t": 106328.6000000002,
      "d": 387.6563541666692,
      "v": 96
    },
    {
      "midi": 71,
      "hit": false,
      "t": 106328.6000000002,
      "d": 411.3904166666762,
      "v": 105
    },
    {
      "midi": 67,
      "hit": false,
      "t": 106328.6000000002,
      "d": 423.25744791667967,
      "v": 103
    },
    {
      "midi": 55,
      "hit": false,
      "t": 106708.34500000019,
      "d": 450.94718750003085,
      "v": 83
    },
    {
      "midi": 62,
      "hit": false,
      "t": 107088.09000000021,
      "d": 276.8973958333372,
      "v": 110
    },
    {
      "midi": 71,
      "hit": false,
      "t": 107088.09000000021,
      "d": 403.4790625000169,
      "v": 107
    },
    {
      "midi": 67,
      "hit": false,
      "t": 107088.09000000021,
      "d": 431.1688020833535,
      "v": 105
    },
    {
      "midi": 55,
      "hit": false,
      "t": 107467.83500000022,
      "d": 142.4043750000128,
      "v": 71
    },
    {
      "midi": 57,
      "hit": false,
      "t": 107657.70750000024,
      "d": 174.04979166666453,
      "v": 96
    },
    {
      "midi": 62,
      "hit": false,
      "t": 107657.70750000024,
      "d": 577.5288541666669,
      "v": 98
    },
    {
      "midi": 66,
      "hit": false,
      "t": 107657.70750000024,
      "d": 656.6423958333326,
      "v": 105
    },
    {
      "midi": 69,
      "hit": false,
      "t": 107657.70750000024,
      "d": 680.3764583333395,
      "v": 85
    },
    {
      "midi": 57,
      "hit": false,
      "t": 108227.32500000023,
      "d": 458.8585416666756,
      "v": 90
    },
    {
      "midi": 62,
      "hit": false,
      "t": 108607.07000000024,
      "d": 411.3904166666616,
      "v": 90
    },
    {
      "midi": 66,
      "hit": false,
      "t": 108607.07000000024,
      "d": 435.1244791666686,
      "v": 79
    },
    {
      "midi": 69,
      "hit": false,
      "t": 108607.07000000024,
      "d": 466.7698958333349,
      "v": 73
    },
    {
      "midi": 57,
      "hit": false,
      "t": 108986.81500000024,
      "d": 245.25197916667094,
      "v": 73
    },
    {
      "midi": 65,
      "hit": false,
      "t": 109366.56000000025,
      "d": 379.74499999999534,
      "v": 81
    },
    {
      "midi": 62,
      "hit": false,
      "t": 109366.56000000025,
      "d": 399.52338541665813,
      "v": 82
    },
    {
      "midi": 69,
      "hit": false,
      "t": 109366.56000000025,
      "d": 423.2574479166651,
      "v": 87
    },
    {
      "midi": 60,
      "hit": false,
      "t": 109746.30500000024,
      "d": 419.30177083335,
      "v": 81
    },
    {
      "midi": 65,
      "hit": false,
      "t": 110126.05000000025,
      "d": 403.4790625000169,
      "v": 78
    },
    {
      "midi": 62,
      "hit": false,
      "t": 110126.05000000025,
      "d": 415.3460937500204,
      "v": 82
    },
    {
      "midi": 69,
      "hit": false,
      "t": 110126.05000000025,
      "d": 415.3460937500204,
      "v": 83
    },
    {
      "midi": 60,
      "hit": false,
      "t": 110505.79500000026,
      "d": 446.9915104166721,
      "v": 78
    },
    {
      "midi": 67,
      "hit": false,
      "t": 110885.54000000027,
      "d": 387.6563541666692,
      "v": 81
    },
    {
      "midi": 71,
      "hit": false,
      "t": 110885.54000000027,
      "d": 387.6563541666692,
      "v": 86
    },
    {
      "midi": 62,
      "hit": false,
      "t": 110885.54000000027,
      "d": 399.5233854166727,
      "v": 84
    },
    {
      "midi": 59,
      "hit": false,
      "t": 111265.28500000027,
      "d": 439.0801562500128,
      "v": 78
    },
    {
      "midi": 71,
      "hit": false,
      "t": 111645.03000000028,
      "d": 375.7893229166657,
      "v": 82
    },
    {
      "midi": 67,
      "hit": false,
      "t": 111645.03000000028,
      "d": 387.6563541666692,
      "v": 79
    },
    {
      "midi": 62,
      "hit": false,
      "t": 111645.03000000028,
      "d": 395.56770833334303,
      "v": 84
    },
    {
      "midi": 59,
      "hit": false,
      "t": 112024.77500000027,
      "d": 387.65635416668374,
      "v": 79
    },
    {
      "midi": 64,
      "hit": false,
      "t": 112404.52000000028,
      "d": 478.6369270833384,
      "v": 93
    },
    {
      "midi": 72,
      "hit": false,
      "t": 112404.52000000028,
      "d": 478.6369270833384,
      "v": 93
    },
    {
      "midi": 62,
      "hit": false,
      "t": 113164.01000000029,
      "d": 458.85854166666104,
      "v": 89
    },
    {
      "midi": 71,
      "hit": false,
      "t": 113164.01000000029,
      "d": 458.85854166666104,
      "v": 89
    },
    {
      "midi": 64,
      "hit": false,
      "t": 113923.50000000028,
      "d": 387.6563541666692,
      "v": 89
    },
    {
      "midi": 69,
      "hit": false,
      "t": 113923.50000000028,
      "d": 387.6563541666692,
      "v": 89
    },
    {
      "midi": 60,
      "hit": false,
      "t": 114682.99000000028,
      "d": 407.434739583332,
      "v": 90
    },
    {
      "midi": 67,
      "hit": false,
      "t": 114682.99000000028,
      "d": 407.434739583332,
      "v": 90
    },
    {
      "midi": 66,
      "hit": false,
      "t": 115442.48000000029,
      "d": 268.98604166666337,
      "v": 74
    },
    {
      "midi": 74,
      "hit": false,
      "t": 115442.48000000029,
      "d": 387.6563541666692,
      "v": 79
    },
    {
      "midi": 69,
      "hit": false,
      "t": 115442.48000000029,
      "d": 407.434739583332,
      "v": 84
    },
    {
      "midi": 62,
      "hit": false,
      "t": 115822.22500000028,
      "d": 423.25744791667967,
      "v": 77
    },
    {
      "midi": 66,
      "hit": false,
      "t": 116201.97000000029,
      "d": 399.5233854166727,
      "v": 81
    },
    {
      "midi": 69,
      "hit": false,
      "t": 116201.97000000029,
      "d": 399.5233854166727,
      "v": 81
    },
    {
      "midi": 74,
      "hit": false,
      "t": 116201.97000000029,
      "d": 415.3460937500058,
      "v": 82
    },
    {
      "midi": 62,
      "hit": false,
      "t": 116581.7150000003,
      "d": 359.96661458333256,
      "v": 76
    },
    {
      "midi": 74,
      "hit": false,
      "t": 116961.4600000003,
      "d": 363.9222916666622,
      "v": 81
    },
    {
      "midi": 66,
      "hit": false,
      "t": 116961.4600000003,
      "d": 431.1688020833244,
      "v": 80
    },
    {
      "midi": 71,
      "hit": false,
      "t": 116961.4600000003,
      "d": 431.1688020833244,
      "v": 80
    },
    {
      "midi": 62,
      "hit": false,
      "t": 117341.2050000003,
      "d": 446.99151041665755,
      "v": 78
    },
    {
      "midi": 74,
      "hit": false,
      "t": 117720.95000000029,
      "d": 439.08015624999825,
      "v": 87
    },
    {
      "midi": 66,
      "hit": false,
      "t": 117720.95000000029,
      "d": 482.592604166668,
      "v": 82
    },
    {
      "midi": 71,
      "hit": false,
      "t": 117720.95000000029,
      "d": 482.592604166668,
      "v": 82
    },
    {
      "midi": 62,
      "hit": false,
      "t": 118100.69500000028,
      "d": 435.12447916668316,
      "v": 79
    },
    {
      "midi": 65,
      "hit": false,
      "t": 118480.4400000003,
      "d": 383.70067708333954,
      "v": 84
    },
    {
      "midi": 69,
      "hit": false,
      "t": 118480.4400000003,
      "d": 383.70067708333954,
      "v": 84
    },
    {
      "midi": 74,
      "hit": false,
      "t": 118480.4400000003,
      "d": 534.0164062500116,
      "v": 79
    },
    {
      "midi": 60,
      "hit": false,
      "t": 118860.1850000003,
      "d": 450.94718750000175,
      "v": 84
    },
    {
      "midi": 55,
      "hit": false,
      "t": 119239.9300000003,
      "d": 158.22708333334594,
      "v": 83
    },
    {
      "midi": 74,
      "hit": false,
      "t": 119239.9300000003,
      "d": 490.50395833334187,
      "v": 86
    },
    {
      "midi": 60,
      "hit": false,
      "t": 119429.80250000031,
      "d": 154.27140625000175,
      "v": 78
    },
    {
      "midi": 65,
      "hit": false,
      "t": 119619.67500000031,
      "d": 146.3600520833279,
      "v": 83
    },
    {
      "midi": 72,
      "hit": false,
      "t": 119809.5475000003,
      "d": 371.83364583333605,
      "v": 79
    },
    {
      "midi": 64,
      "hit": false,
      "t": 119809.5475000003,
      "d": 747.6229687500017,
      "v": 79
    },
    {
      "midi": 67,
      "hit": false,
      "t": 119809.5475000003,
      "d": 933.5397916666698,
      "v": 79
    },
    {
      "midi": 60,
      "hit": false,
      "t": 120379.16500000031,
      "d": 443.0358333333279,
      "v": 80
    },
    {
      "midi": 72,
      "hit": false,
      "t": 120758.91000000031,
      "d": 407.434739583332,
      "v": 84
    },
    {
      "midi": 64,
      "hit": false,
      "t": 120758.91000000031,
      "d": 415.3460937500058,
      "v": 88
    },
    {
      "midi": 67,
      "hit": false,
      "t": 120758.91000000031,
      "d": 415.3460937500058,
      "v": 88
    },
    {
      "midi": 60,
      "hit": false,
      "t": 121138.6550000003,
      "d": 268.9860416666779,
      "v": 77
    },
    {
      "midi": 62,
      "hit": false,
      "t": 121898.14500000031,
      "d": 747.6229687499872,
      "v": 118
    },
    {
      "midi": 67,
      "hit": false,
      "t": 122088.01750000031,
      "d": 632.9083333333256,
      "v": 81
    },
    {
      "midi": 69,
      "hit": false,
      "t": 122277.8900000003,
      "d": 411.3904166666616,
      "v": 100
    },
    {
      "midi": 74,
      "hit": false,
      "t": 122467.7625000003,
      "d": 1012.6533333333209,
      "v": 110
    },
    {
      "midi": 62,
      "hit": false,
      "t": 122657.6350000003,
      "d": 822.7808333333232,
      "v": 107
    },
    {
      "midi": 79,
      "hit": false,
      "t": 122847.5075000003,
      "d": 632.9083333333256,
      "v": 81
    },
    {
      "midi": 81,
      "hit": false,
      "t": 123037.3800000003,
      "d": 411.3904166666616,
      "v": 100
    },
    {
      "midi": 86,
      "hit": false,
      "t": 123227.2525000003,
      "d": 233.38494791666744,
      "v": 110
    },
    {
      "midi": 67,
      "hit": false,
      "t": 151898.0000000003,
      "d": 664.5537499999919,
      "v": 115
    },
    {
      "midi": 59,
      "hit": false,
      "t": 151898.0000000003,
      "d": 676.4207812499953,
      "v": 117
    },
    {
      "midi": 62,
      "hit": false,
      "t": 151898.0000000003,
      "d": 676.4207812499953,
      "v": 117
    },
    {
      "midi": 59,
      "hit": false,
      "t": 152649.57864583362,
      "d": 573.5731770833372,
      "v": 110
    },
    {
      "midi": 67,
      "hit": false,
      "t": 152653.53432291697,
      "d": 545.883437499986,
      "v": 111
    },
    {
      "midi": 62,
      "hit": false,
      "t": 152653.53432291697,
      "d": 573.5731770833372,
      "v": 116
    },
    {
      "midi": 59,
      "hit": false,
      "t": 153413.02432291696,
      "d": 530.0607291666383,
      "v": 109
    },
    {
      "midi": 64,
      "hit": false,
      "t": 153413.02432291696,
      "d": 549.8391145833011,
      "v": 114
    },
    {
      "midi": 67,
      "hit": false,
      "t": 153420.93567708362,
      "d": 514.2380208333198,
      "v": 111
    },
    {
      "midi": 64,
      "hit": false,
      "t": 154168.5586458336,
      "d": 581.4845312500256,
      "v": 117
    },
    {
      "midi": 67,
      "hit": false,
      "t": 154180.4256770836,
      "d": 549.8391145833302,
      "v": 114
    },
    {
      "midi": 59,
      "hit": false,
      "t": 154180.4256770836,
      "d": 565.6618229166779,
      "v": 116
    },
    {
      "midi": 67,
      "hit": false,
      "t": 154939.91567708363,
      "d": 585.4402083333407,
      "v": 112
    },
    {
      "midi": 60,
      "hit": false,
      "t": 154939.91567708363,
      "d": 621.0413020833512,
      "v": 116
    },
    {
      "midi": 64,
      "hit": false,
      "t": 154939.91567708363,
      "d": 624.9969791666954,
      "v": 116
    },
    {
      "midi": 60,
      "hit": false,
      "t": 155687.53864583364,
      "d": 478.6369270833384,
      "v": 116
    },
    {
      "midi": 67,
      "hit": false,
      "t": 155695.4500000003,
      "d": 530.0607291666674,
      "v": 115
    },
    {
      "midi": 64,
      "hit": false,
      "t": 155699.40567708365,
      "d": 498.41531250000116,
      "v": 116
    },
    {
      "midi": 66,
      "hit": false,
      "t": 156447.02864583363,
      "d": 474.6812499999942,
      "v": 116
    },
    {
      "midi": 57,
      "hit": false,
      "t": 156454.9400000003,
      "d": 668.509427083336,
      "v": 114
    },
    {
      "midi": 62,
      "hit": false,
      "t": 156458.89567708364,
      "d": 470.72557291665,
      "v": 118
    },
    {
      "midi": 66,
      "hit": false,
      "t": 157016.64614583363,
      "d": 225.47359375000815,
      "v": 120
    },
    {
      "midi": 62,
      "hit": false,
      "t": 157028.51317708363,
      "d": 229.42927083335235,
      "v": 121
    },
    {
      "midi": 57,
      "hit": false,
      "t": 157210.47432291697,
      "d": 336.2325520833547,
      "v": 108
    },
    {
      "midi": 62,
      "hit": false,
      "t": 157400.346822917,
      "d": 237.34062499998254,
      "v": 120
    },
    {
      "midi": 66,
      "hit": false,
      "t": 157408.25817708366,
      "d": 514.2380208333198,
      "v": 116
    },
    {
      "midi": 57,
      "hit": false,
      "t": 157586.26364583365,
      "d": 348.09958333332906,
      "v": 117
    },
    {
      "midi": 67,
      "hit": false,
      "t": 157973.9200000003,
      "d": 664.5537499999919,
      "v": 115
    },
    {
      "midi": 62,
      "hit": false,
      "t": 157973.9200000003,
      "d": 676.4207812499953,
      "v": 117
    },
    {
      "midi": 59,
      "hit": false,
      "t": 157973.9200000003,
      "d": 743.6672916666721,
      "v": 117
    },
    {
      "midi": 59,
      "hit": false,
      "t": 158725.49864583364,
      "d": 573.5731770833372,
      "v": 110
    },
    {
      "midi": 67,
      "hit": false,
      "t": 158729.45432291698,
      "d": 545.883437499986,
      "v": 111
    },
    {
      "midi": 62,
      "hit": false,
      "t": 158729.45432291698,
      "d": 573.5731770833372,
      "v": 116
    },
    {
      "midi": 59,
      "hit": false,
      "t": 159488.94432291697,
      "d": 530.0607291666383,
      "v": 109
    },
    {
      "midi": 64,
      "hit": false,
      "t": 159488.94432291697,
      "d": 549.8391145833011,
      "v": 114
    },
    {
      "midi": 67,
      "hit": false,
      "t": 159496.85567708363,
      "d": 514.2380208333198,
      "v": 111
    },
    {
      "midi": 64,
      "hit": false,
      "t": 160244.47864583362,
      "d": 581.4845312500256,
      "v": 117
    },
    {
      "midi": 67,
      "hit": false,
      "t": 160256.34567708362,
      "d": 549.8391145833302,
      "v": 114
    },
    {
      "midi": 59,
      "hit": false,
      "t": 160256.34567708362,
      "d": 565.6618229166779,
      "v": 116
    },
    {
      "midi": 67,
      "hit": false,
      "t": 161015.83567708364,
      "d": 585.4402083333407,
      "v": 112
    },
    {
      "midi": 60,
      "hit": false,
      "t": 161015.83567708364,
      "d": 621.0413020833512,
      "v": 116
    },
    {
      "midi": 64,
      "hit": false,
      "t": 161015.83567708364,
      "d": 624.9969791666954,
      "v": 116
    },
    {
      "midi": 60,
      "hit": false,
      "t": 161763.45864583366,
      "d": 478.6369270833384,
      "v": 116
    },
    {
      "midi": 67,
      "hit": false,
      "t": 161771.37000000032,
      "d": 530.0607291666674,
      "v": 115
    },
    {
      "midi": 64,
      "hit": false,
      "t": 161775.32567708366,
      "d": 498.41531250000116,
      "v": 116
    },
    {
      "midi": 66,
      "hit": false,
      "t": 162522.94864583365,
      "d": 474.6812499999942,
      "v": 116
    },
    {
      "midi": 57,
      "hit": false,
      "t": 162530.8600000003,
      "d": 668.509427083336,
      "v": 114
    },
    {
      "midi": 62,
      "hit": false,
      "t": 162534.81567708365,
      "d": 470.72557291665,
      "v": 118
    },
    {
      "midi": 66,
      "hit": false,
      "t": 163092.56614583364,
      "d": 225.47359375000815,
      "v": 120
    },
    {
      "midi": 62,
      "hit": false,
      "t": 163104.43317708364,
      "d": 229.42927083335235,
      "v": 121
    },
    {
      "midi": 57,
      "hit": false,
      "t": 163286.39432291698,
      "d": 336.2325520833547,
      "v": 108
    },
    {
      "midi": 62,
      "hit": false,
      "t": 163476.266822917,
      "d": 237.34062499998254,
      "v": 120
    },
    {
      "midi": 66,
      "hit": false,
      "t": 163484.17817708367,
      "d": 514.2380208333198,
      "v": 116
    },
    {
      "midi": 57,
      "hit": false,
      "t": 163662.18364583366,
      "d": 348.09958333332906,
      "v": 117
    },
    {
      "midi": 67,
      "hit": false,
      "t": 164041.92864583366,
      "d": 474.6812499999942,
      "v": 116
    },
    {
      "midi": 59,
      "hit": false,
      "t": 164049.84000000032,
      "d": 668.509427083336,
      "v": 114
    },
    {
      "midi": 64,
      "hit": false,
      "t": 164053.79567708366,
      "d": 470.72557291665,
      "v": 118
    },
    {
      "midi": 66,
      "hit": false,
      "t": 164611.54614583365,
      "d": 225.47359375000815,
      "v": 120
    },
    {
      "midi": 64,
      "hit": false,
      "t": 164623.41317708365,
      "d": 229.42927083335235,
      "v": 121
    },
    {
      "midi": 59,
      "hit": false,
      "t": 164805.374322917,
      "d": 336.2325520833547,
      "v": 108
    },
    {
      "midi": 64,
      "hit": false,
      "t": 164995.24682291702,
      "d": 237.34062499998254,
      "v": 120
    },
    {
      "midi": 67,
      "hit": false,
      "t": 165003.15817708368,
      "d": 514.2380208333198,
      "v": 116
    },
    {
      "midi": 59,
      "hit": false,
      "t": 165181.16364583367,
      "d": 348.09958333332906,
      "v": 117
    },
    {
      "midi": 66,
      "hit": false,
      "t": 165572.77567708367,
      "d": 585.4402083333407,
      "v": 112
    },
    {
      "midi": 59,
      "hit": false,
      "t": 165572.77567708367,
      "d": 621.0413020833512,
      "v": 116
    },
    {
      "midi": 63,
      "hit": false,
      "t": 165572.77567708367,
      "d": 624.9969791666954,
      "v": 116
    },
    {
      "midi": 59,
      "hit": false,
      "t": 166320.3986458337,
      "d": 478.6369270833384,
      "v": 116
    },
    {
      "midi": 66,
      "hit": false,
      "t": 166328.31000000035,
      "d": 530.0607291666674,
      "v": 115
    },
    {
      "midi": 63,
      "hit": false,
      "t": 166332.2656770837,
      "d": 498.41531250000116,
      "v": 116
    },
    {
      "midi": 67,
      "hit": false,
      "t": 167079.88864583368,
      "d": 474.6812499999942,
      "v": 116
    },
    {
      "midi": 59,
      "hit": false,
      "t": 167087.80000000034,
      "d": 668.509427083336,
      "v": 114
    },
    {
      "midi": 64,
      "hit": false,
      "t": 167091.75567708368,
      "d": 470.72557291665,
      "v": 118
    },
    {
      "midi": 66,
      "hit": false,
      "t": 167649.50614583367,
      "d": 225.47359375000815,
      "v": 120
    },
    {
      "midi": 64,
      "hit": false,
      "t": 167661.37317708367,
      "d": 229.42927083335235,
      "v": 121
    },
    {
      "midi": 59,
      "hit": false,
      "t": 167843.334322917,
      "d": 336.2325520833547,
      "v": 108
    },
    {
      "midi": 64,
      "hit": false,
      "t": 168033.20682291704,
      "d": 237.34062499998254,
      "v": 120
    },
    {
      "midi": 67,
      "hit": false,
      "t": 168041.1181770837,
      "d": 514.2380208333198,
      "v": 116
    },
    {
      "midi": 59,
      "hit": false,
      "t": 168219.1236458337,
      "d": 348.09958333332906,
      "v": 117
    },
    {
      "midi": 64,
      "hit": false,
      "t": 168598.8686458337,
      "d": 474.6812499999942,
      "v": 116
    },
    {
      "midi": 57,
      "hit": false,
      "t": 168606.78000000035,
      "d": 668.509427083336,
      "v": 114
    },
    {
      "midi": 61,
      "hit": false,
      "t": 168610.7356770837,
      "d": 470.72557291665,
      "v": 118
    },
    {
      "midi": 62,
      "hit": false,
      "t": 169168.48614583368,
      "d": 225.47359375000815,
      "v": 120
    },
    {
      "midi": 61,
      "hit": false,
      "t": 169180.35317708369,
      "d": 229.42927083335235,
      "v": 121
    },
    {
      "midi": 57,
      "hit": false,
      "t": 169362.31432291702,
      "d": 336.2325520833547,
      "v": 108
    },
    {
      "midi": 61,
      "hit": false,
      "t": 169552.18682291705,
      "d": 237.34062499998254,
      "v": 120
    },
    {
      "midi": 64,
      "hit": false,
      "t": 169560.0981770837,
      "d": 514.2380208333198,
      "v": 116
    },
    {
      "midi": 57,
      "hit": false,
      "t": 169738.1036458337,
      "d": 348.09958333332906,
      "v": 117
    },
    {
      "midi": 66,
      "hit": false,
      "t": 170117.8486458337,
      "d": 474.6812499999942,
      "v": 116
    },
    {
      "midi": 57,
      "hit": false,
      "t": 170125.76000000036,
      "d": 668.509427083336,
      "v": 114
    },
    {
      "midi": 62,
      "hit": false,
      "t": 170129.7156770837,
      "d": 470.72557291665,
      "v": 118
    },
    {
      "midi": 66,
      "hit": false,
      "t": 170687.4661458337,
      "d": 225.47359375000815,
      "v": 120
    },
    {
      "midi": 62,
      "hit": false,
      "t": 170699.3331770837,
      "d": 229.42927083335235,
      "v": 121
    },
    {
      "midi": 57,
      "hit": false,
      "t": 170881.29432291703,
      "d": 336.2325520833547,
      "v": 108
    },
    {
      "midi": 62,
      "hit": false,
      "t": 171071.16682291706,
      "d": 237.34062499998254,
      "v": 120
    },
    {
      "midi": 66,
      "hit": false,
      "t": 171079.07817708372,
      "d": 514.2380208333198,
      "v": 116
    },
    {
      "midi": 57,
      "hit": false,
      "t": 171257.0836458337,
      "d": 348.09958333332906,
      "v": 117
    },
    {
      "midi": 66,
      "hit": false,
      "t": 171636.8286458337,
      "d": 474.6812499999942,
      "v": 116
    },
    {
      "midi": 59,
      "hit": false,
      "t": 171644.74000000037,
      "d": 668.509427083336,
      "v": 114
    },
    {
      "midi": 62,
      "hit": false,
      "t": 171648.6956770837,
      "d": 470.72557291665,
      "v": 118
    },
    {
      "midi": 66,
      "hit": false,
      "t": 172206.4461458337,
      "d": 225.47359375000815,
      "v": 120
    },
    {
      "midi": 62,
      "hit": false,
      "t": 172218.3131770837,
      "d": 229.42927083335235,
      "v": 121
    },
    {
      "midi": 59,
      "hit": false,
      "t": 172400.27432291704,
      "d": 336.2325520833547,
      "v": 108
    },
    {
      "midi": 62,
      "hit": false,
      "t": 172590.14682291707,
      "d": 237.34062499998254,
      "v": 120
    },
    {
      "midi": 66,
      "hit": false,
      "t": 172598.05817708373,
      "d": 514.2380208333198,
      "v": 116
    },
    {
      "midi": 59,
      "hit": false,
      "t": 172776.06364583372,
      "d": 348.09958333332906,
      "v": 117
    },
    {
      "midi": 67,
      "hit": false,
      "t": 173155.80864583372,
      "d": 474.6812499999942,
      "v": 116
    },
    {
      "midi": 57,
      "hit": false,
      "t": 173163.72000000038,
      "d": 668.509427083336,
      "v": 114
    },
    {
      "midi": 62,
      "hit": false,
      "t": 173167.67567708372,
      "d": 470.72557291665,
      "v": 118
    },
    {
      "midi": 67,
      "hit": false,
      "t": 173725.4261458337,
      "d": 225.47359375000815,
      "v": 120
    },
    {
      "midi": 62,
      "hit": false,
      "t": 173737.29317708372,
      "d": 229.42927083335235,
      "v": 121
    },
    {
      "midi": 57,
      "hit": false,
      "t": 173919.25432291706,
      "d": 336.2325520833547,
      "v": 108
    },
    {
      "midi": 62,
      "hit": false,
      "t": 174109.12682291708,
      "d": 237.34062499998254,
      "v": 120
    },
    {
      "midi": 67,
      "hit": false,
      "t": 174117.03817708374,
      "d": 514.2380208333198,
      "v": 116
    },
    {
      "midi": 57,
      "hit": false,
      "t": 174295.04364583374,
      "d": 348.09958333332906,
      "v": 117
    },
    {
      "midi": 67,
      "hit": false,
      "t": 174674.78864583373,
      "d": 474.6812499999942,
      "v": 116
    },
    {
      "midi": 57,
      "hit": false,
      "t": 174682.7000000004,
      "d": 668.509427083336,
      "v": 114
    },
    {
      "midi": 62,
      "hit": false,
      "t": 174686.65567708373,
      "d": 470.72557291665,
      "v": 118
    },
    {
      "midi": 67,
      "hit": false,
      "t": 175244.40614583372,
      "d": 225.47359375000815,
      "v": 120
    },
    {
      "midi": 62,
      "hit": false,
      "t": 175256.27317708373,
      "d": 229.42927083335235,
      "v": 121
    },
    {
      "midi": 57,
      "hit": false,
      "t": 175438.23432291707,
      "d": 336.2325520833547,
      "v": 108
    },
    {
      "midi": 62,
      "hit": false,
      "t": 175628.1068229171,
      "d": 237.34062499998254,
      "v": 120
    },
    {
      "midi": 67,
      "hit": false,
      "t": 175636.01817708375,
      "d": 514.2380208333198,
      "v": 116
    },
    {
      "midi": 57,
      "hit": false,
      "t": 175814.02364583375,
      "d": 348.09958333332906,
      "v": 117
    },
    {
      "midi": 67,
      "hit": false,
      "t": 176193.76864583374,
      "d": 474.6812499999942,
      "v": 116
    },
    {
      "midi": 57,
      "hit": false,
      "t": 176201.6800000004,
      "d": 668.509427083336,
      "v": 114
    },
    {
      "midi": 62,
      "hit": false,
      "t": 176205.63567708374,
      "d": 470.72557291665,
      "v": 118
    },
    {
      "midi": 67,
      "hit": false,
      "t": 176763.38614583373,
      "d": 225.47359375000815,
      "v": 120
    },
    {
      "midi": 62,
      "hit": false,
      "t": 176775.25317708374,
      "d": 229.42927083335235,
      "v": 121
    },
    {
      "midi": 57,
      "hit": false,
      "t": 176957.21432291708,
      "d": 336.2325520833547,
      "v": 108
    },
    {
      "midi": 62,
      "hit": false,
      "t": 177147.0868229171,
      "d": 237.34062499998254,
      "v": 120
    },
    {
      "midi": 67,
      "hit": false,
      "t": 177154.99817708376,
      "d": 514.2380208333198,
      "v": 116
    },
    {
      "midi": 57,
      "hit": false,
      "t": 177333.00364583376,
      "d": 348.09958333332906,
      "v": 117
    },
    {
      "midi": 67,
      "hit": false,
      "t": 177712.74864583375,
      "d": 474.6812499999942,
      "v": 116
    },
    {
      "midi": 57,
      "hit": false,
      "t": 177720.6600000004,
      "d": 668.509427083336,
      "v": 114
    },
    {
      "midi": 62,
      "hit": false,
      "t": 177724.61567708376,
      "d": 470.72557291665,
      "v": 118
    },
    {
      "midi": 67,
      "hit": false,
      "t": 178282.36614583374,
      "d": 225.47359375000815,
      "v": 120
    },
    {
      "midi": 62,
      "hit": false,
      "t": 178294.23317708375,
      "d": 229.42927083335235,
      "v": 121
    },
    {
      "midi": 57,
      "hit": false,
      "t": 178476.1943229171,
      "d": 336.2325520833547,
      "v": 108
    },
    {
      "midi": 62,
      "hit": false,
      "t": 178666.0668229171,
      "d": 237.34062499998254,
      "v": 120
    },
    {
      "midi": 67,
      "hit": false,
      "t": 178673.97817708377,
      "d": 514.2380208333198,
      "v": 116
    },
    {
      "midi": 57,
      "hit": false,
      "t": 178851.98364583377,
      "d": 348.09958333332906,
      "v": 117
    },
    {
      "midi": 67,
      "hit": false,
      "t": 179239.64000000042,
      "d": 664.5537499999919,
      "v": 115
    },
    {
      "midi": 59,
      "hit": false,
      "t": 179239.64000000042,
      "d": 676.4207812499953,
      "v": 117
    },
    {
      "midi": 62,
      "hit": false,
      "t": 179239.64000000042,
      "d": 676.4207812499953,
      "v": 117
    },
    {
      "midi": 59,
      "hit": false,
      "t": 179991.21864583375,
      "d": 573.5731770833372,
      "v": 110
    },
    {
      "midi": 67,
      "hit": false,
      "t": 179995.1743229171,
      "d": 545.883437499986,
      "v": 111
    },
    {
      "midi": 62,
      "hit": false,
      "t": 179995.1743229171,
      "d": 573.5731770833372,
      "v": 116
    },
    {
      "midi": 59,
      "hit": false,
      "t": 180754.6643229171,
      "d": 530.0607291666383,
      "v": 109
    },
    {
      "midi": 64,
      "hit": false,
      "t": 180754.6643229171,
      "d": 549.8391145833011,
      "v": 114
    },
    {
      "midi": 67,
      "hit": false,
      "t": 180762.57567708375,
      "d": 514.2380208333198,
      "v": 111
    },
    {
      "midi": 64,
      "hit": false,
      "t": 181510.19864583373,
      "d": 581.4845312500256,
      "v": 117
    },
    {
      "midi": 67,
      "hit": false,
      "t": 181522.06567708374,
      "d": 549.8391145833302,
      "v": 114
    },
    {
      "midi": 59,
      "hit": false,
      "t": 181522.06567708374,
      "d": 565.6618229166779,
      "v": 116
    },
    {
      "midi": 67,
      "hit": false,
      "t": 182281.55567708376,
      "d": 585.4402083333407,
      "v": 112
    },
    {
      "midi": 60,
      "hit": false,
      "t": 182281.55567708376,
      "d": 621.0413020833512,
      "v": 116
    },
    {
      "midi": 64,
      "hit": false,
      "t": 182281.55567708376,
      "d": 624.9969791666954,
      "v": 116
    },
    {
      "midi": 60,
      "hit": false,
      "t": 183029.17864583377,
      "d": 478.6369270833384,
      "v": 116
    },
    {
      "midi": 67,
      "hit": false,
      "t": 183037.09000000043,
      "d": 530.0607291666674,
      "v": 115
    },
    {
      "midi": 64,
      "hit": false,
      "t": 183041.04567708378,
      "d": 498.41531250000116,
      "v": 116
    },
    {
      "midi": 66,
      "hit": false,
      "t": 183788.66864583376,
      "d": 474.6812499999942,
      "v": 116
    },
    {
      "midi": 57,
      "hit": false,
      "t": 183796.58000000042,
      "d": 668.509427083336,
      "v": 114
    },
    {
      "midi": 62,
      "hit": false,
      "t": 183800.53567708377,
      "d": 470.72557291665,
      "v": 118
    },
    {
      "midi": 66,
      "hit": false,
      "t": 184358.28614583376,
      "d": 225.47359375000815,
      "v": 120
    },
    {
      "midi": 62,
      "hit": false,
      "t": 184370.15317708376,
      "d": 229.42927083335235,
      "v": 121
    },
    {
      "midi": 57,
      "hit": false,
      "t": 184552.1143229171,
      "d": 336.2325520833547,
      "v": 108
    },
    {
      "midi": 62,
      "hit": false,
      "t": 184741.98682291713,
      "d": 237.34062499998254,
      "v": 120
    },
    {
      "midi": 66,
      "hit": false,
      "t": 184749.89817708379,
      "d": 514.2380208333198,
      "v": 116
    },
    {
      "midi": 57,
      "hit": false,
      "t": 184927.90364583378,
      "d": 348.09958333332906,
      "v": 117
    },
    {
      "midi": 67,
      "hit": false,
      "t": 185315.56000000043,
      "d": 664.5537499999919,
      "v": 115
    },
    {
      "midi": 62,
      "hit": false,
      "t": 185315.56000000043,
      "d": 676.4207812499953,
      "v": 117
    },
    {
      "midi": 59,
      "hit": false,
      "t": 185315.56000000043,
      "d": 743.6672916666721,
      "v": 117
    },
    {
      "midi": 59,
      "hit": false,
      "t": 186067.13864583377,
      "d": 573.5731770833372,
      "v": 110
    },
    {
      "midi": 67,
      "hit": false,
      "t": 186071.0943229171,
      "d": 545.883437499986,
      "v": 111
    },
    {
      "midi": 62,
      "hit": false,
      "t": 186071.0943229171,
      "d": 573.5731770833372,
      "v": 116
    },
    {
      "midi": 59,
      "hit": false,
      "t": 186830.5843229171,
      "d": 530.0607291666383,
      "v": 109
    },
    {
      "midi": 64,
      "hit": false,
      "t": 186830.5843229171,
      "d": 549.8391145833011,
      "v": 114
    },
    {
      "midi": 67,
      "hit": false,
      "t": 186838.49567708376,
      "d": 514.2380208333198,
      "v": 111
    },
    {
      "midi": 64,
      "hit": false,
      "t": 187586.11864583375,
      "d": 581.4845312500256,
      "v": 117
    },
    {
      "midi": 67,
      "hit": false,
      "t": 187597.98567708375,
      "d": 549.8391145833302,
      "v": 114
    },
    {
      "midi": 59,
      "hit": false,
      "t": 187597.98567708375,
      "d": 565.6618229166779,
      "v": 116
    },
    {
      "midi": 67,
      "hit": false,
      "t": 188357.47567708377,
      "d": 585.4402083333407,
      "v": 112
    },
    {
      "midi": 60,
      "hit": false,
      "t": 188357.47567708377,
      "d": 621.0413020833512,
      "v": 116
    },
    {
      "midi": 64,
      "hit": false,
      "t": 188357.47567708377,
      "d": 624.9969791666954,
      "v": 116
    },
    {
      "midi": 60,
      "hit": false,
      "t": 189105.0986458338,
      "d": 478.6369270833384,
      "v": 116
    },
    {
      "midi": 67,
      "hit": false,
      "t": 189113.01000000045,
      "d": 530.0607291666674,
      "v": 115
    },
    {
      "midi": 64,
      "hit": false,
      "t": 189116.9656770838,
      "d": 498.41531250000116,
      "v": 116
    },
    {
      "midi": 66,
      "hit": false,
      "t": 189864.58864583378,
      "d": 474.6812499999942,
      "v": 116
    },
    {
      "midi": 57,
      "hit": false,
      "t": 189872.50000000044,
      "d": 668.509427083336,
      "v": 114
    },
    {
      "midi": 62,
      "hit": false,
      "t": 189876.45567708378,
      "d": 470.72557291665,
      "v": 118
    },
    {
      "midi": 66,
      "hit": false,
      "t": 190434.20614583377,
      "d": 225.47359375000815,
      "v": 120
    },
    {
      "midi": 62,
      "hit": false,
      "t": 190446.07317708377,
      "d": 229.42927083335235,
      "v": 121
    },
    {
      "midi": 57,
      "hit": false,
      "t": 190628.0343229171,
      "d": 336.2325520833547,
      "v": 108
    },
    {
      "midi": 62,
      "hit": false,
      "t": 190817.90682291714,
      "d": 237.34062499998254,
      "v": 120
    },
    {
      "midi": 66,
      "hit": false,
      "t": 190825.8181770838,
      "d": 514.2380208333198,
      "v": 116
    },
    {
      "midi": 57,
      "hit": false,
      "t": 191003.8236458338,
      "d": 348.09958333332906,
      "v": 117
    },
    {
      "midi": 67,
      "hit": false,
      "t": 191383.5686458338,
      "d": 474.6812499999942,
      "v": 116
    },
    {
      "midi": 59,
      "hit": false,
      "t": 191391.48000000045,
      "d": 668.509427083336,
      "v": 114
    },
    {
      "midi": 64,
      "hit": false,
      "t": 191395.4356770838,
      "d": 470.72557291665,
      "v": 118
    },
    {
      "midi": 66,
      "hit": false,
      "t": 191953.18614583378,
      "d": 225.47359375000815,
      "v": 120
    },
    {
      "midi": 64,
      "hit": false,
      "t": 191965.05317708378,
      "d": 229.42927083335235,
      "v": 121
    },
    {
      "midi": 59,
      "hit": false,
      "t": 192147.01432291712,
      "d": 336.2325520833547,
      "v": 108
    },
    {
      "midi": 64,
      "hit": false,
      "t": 192336.88682291715,
      "d": 237.34062499998254,
      "v": 120
    },
    {
      "midi": 67,
      "hit": false,
      "t": 192344.7981770838,
      "d": 514.2380208333198,
      "v": 116
    },
    {
      "midi": 59,
      "hit": false,
      "t": 192522.8036458338,
      "d": 348.09958333332906,
      "v": 117
    },
    {
      "midi": 66,
      "hit": false,
      "t": 192914.4156770838,
      "d": 585.4402083333407,
      "v": 112
    },
    {
      "midi": 59,
      "hit": false,
      "t": 192914.4156770838,
      "d": 621.0413020833512,
      "v": 116
    },
    {
      "midi": 63,
      "hit": false,
      "t": 192914.4156770838,
      "d": 624.9969791666954,
      "v": 116
    },
    {
      "midi": 59,
      "hit": false,
      "t": 193662.03864583382,
      "d": 478.6369270833384,
      "v": 116
    },
    {
      "midi": 66,
      "hit": false,
      "t": 193669.95000000048,
      "d": 530.0607291666674,
      "v": 115
    },
    {
      "midi": 63,
      "hit": false,
      "t": 193673.90567708382,
      "d": 498.41531250000116,
      "v": 116
    },
    {
      "midi": 67,
      "hit": false,
      "t": 194421.5286458338,
      "d": 474.6812499999942,
      "v": 116
    },
    {
      "midi": 59,
      "hit": false,
      "t": 194429.44000000047,
      "d": 668.509427083336,
      "v": 114
    },
    {
      "midi": 64,
      "hit": false,
      "t": 194433.3956770838,
      "d": 470.72557291665,
      "v": 118
    },
    {
      "midi": 66,
      "hit": false,
      "t": 194991.1461458338,
      "d": 225.47359375000815,
      "v": 120
    },
    {
      "midi": 64,
      "hit": false,
      "t": 195003.0131770838,
      "d": 229.42927083335235,
      "v": 121
    },
    {
      "midi": 59,
      "hit": false,
      "t": 195184.97432291714,
      "d": 336.2325520833547,
      "v": 108
    },
    {
      "midi": 64,
      "hit": false,
      "t": 195374.84682291717,
      "d": 237.34062499998254,
      "v": 120
    },
    {
      "midi": 67,
      "hit": false,
      "t": 195382.75817708383,
      "d": 514.2380208333198,
      "v": 116
    },
    {
      "midi": 59,
      "hit": false,
      "t": 195560.76364583382,
      "d": 348.09958333332906,
      "v": 117
    },
    {
      "midi": 64,
      "hit": false,
      "t": 195940.50864583382,
      "d": 474.6812499999942,
      "v": 116
    },
    {
      "midi": 57,
      "hit": false,
      "t": 195948.42000000048,
      "d": 668.509427083336,
      "v": 114
    },
    {
      "midi": 61,
      "hit": false,
      "t": 195952.37567708382,
      "d": 470.72557291665,
      "v": 118
    },
    {
      "midi": 62,
      "hit": false,
      "t": 196510.1261458338,
      "d": 225.47359375000815,
      "v": 120
    },
    {
      "midi": 61,
      "hit": false,
      "t": 196521.99317708382,
      "d": 229.42927083335235,
      "v": 121
    },
    {
      "midi": 57,
      "hit": false,
      "t": 196703.95432291715,
      "d": 336.2325520833547,
      "v": 108
    },
    {
      "midi": 61,
      "hit": false,
      "t": 196893.82682291718,
      "d": 237.34062499998254,
      "v": 120
    },
    {
      "midi": 64,
      "hit": false,
      "t": 196901.73817708384,
      "d": 514.2380208333198,
      "v": 116
    },
    {
      "midi": 57,
      "hit": false,
      "t": 197079.74364583383,
      "d": 348.09958333332906,
      "v": 117
    },
    {
      "midi": 66,
      "hit": false,
      "t": 197459.48864583383,
      "d": 474.6812499999942,
      "v": 116
    },
    {
      "midi": 57,
      "hit": false,
      "t": 197467.4000000005,
      "d": 668.509427083336,
      "v": 114
    },
    {
      "midi": 62,
      "hit": false,
      "t": 197471.35567708383,
      "d": 470.72557291665,
      "v": 118
    },
    {
      "midi": 66,
      "hit": false,
      "t": 198029.10614583382,
      "d": 225.47359375000815,
      "v": 120
    },
    {
      "midi": 62,
      "hit": false,
      "t": 198040.97317708383,
      "d": 229.42927083335235,
      "v": 121
    },
    {
      "midi": 57,
      "hit": false,
      "t": 198222.93432291716,
      "d": 336.2325520833547,
      "v": 108
    },
    {
      "midi": 62,
      "hit": false,
      "t": 198412.8068229172,
      "d": 237.34062499998254,
      "v": 120
    },
    {
      "midi": 66,
      "hit": false,
      "t": 198420.71817708385,
      "d": 514.2380208333198,
      "v": 116
    },
    {
      "midi": 57,
      "hit": false,
      "t": 198598.72364583384,
      "d": 348.09958333332906,
      "v": 117
    },
    {
      "midi": 66,
      "hit": false,
      "t": 198978.46864583384,
      "d": 474.6812499999942,
      "v": 116
    },
    {
      "midi": 59,
      "hit": false,
      "t": 198986.3800000005,
      "d": 668.509427083336,
      "v": 114
    },
    {
      "midi": 62,
      "hit": false,
      "t": 198990.33567708384,
      "d": 470.72557291665,
      "v": 118
    },
    {
      "midi": 66,
      "hit": false,
      "t": 199548.08614583383,
      "d": 225.47359375000815,
      "v": 120
    },
    {
      "midi": 62,
      "hit": false,
      "t": 199559.95317708384,
      "d": 229.42927083335235,
      "v": 121
    },
    {
      "midi": 59,
      "hit": false,
      "t": 199741.91432291718,
      "d": 336.2325520833547,
      "v": 108
    },
    {
      "midi": 62,
      "hit": false,
      "t": 199931.7868229172,
      "d": 237.34062499998254,
      "v": 120
    },
    {
      "midi": 66,
      "hit": false,
      "t": 199939.69817708386,
      "d": 514.2380208333198,
      "v": 116
    },
    {
      "midi": 59,
      "hit": false,
      "t": 200117.70364583386,
      "d": 348.09958333332906,
      "v": 117
    },
    {
      "midi": 67,
      "hit": false,
      "t": 200497.44864583385,
      "d": 474.6812499999942,
      "v": 116
    },
    {
      "midi": 57,
      "hit": false,
      "t": 200505.3600000005,
      "d": 668.509427083336,
      "v": 114
    },
    {
      "midi": 62,
      "hit": false,
      "t": 200509.31567708385,
      "d": 470.72557291665,
      "v": 118
    },
    {
      "midi": 67,
      "hit": false,
      "t": 201067.06614583384,
      "d": 225.47359375000815,
      "v": 120
    },
    {
      "midi": 62,
      "hit": false,
      "t": 201078.93317708385,
      "d": 229.42927083335235,
      "v": 121
    },
    {
      "midi": 57,
      "hit": false,
      "t": 201260.8943229172,
      "d": 336.2325520833547,
      "v": 108
    },
    {
      "midi": 62,
      "hit": false,
      "t": 201450.7668229172,
      "d": 237.34062499998254,
      "v": 120
    },
    {
      "midi": 67,
      "hit": false,
      "t": 201458.67817708387,
      "d": 514.2380208333198,
      "v": 116
    },
    {
      "midi": 57,
      "hit": false,
      "t": 201636.68364583387,
      "d": 348.09958333332906,
      "v": 117
    },
    {
      "midi": 67,
      "hit": false,
      "t": 202016.42864583386,
      "d": 474.6812499999942,
      "v": 116
    },
    {
      "midi": 57,
      "hit": false,
      "t": 202024.34000000052,
      "d": 668.509427083336,
      "v": 114
    },
    {
      "midi": 62,
      "hit": false,
      "t": 202028.29567708386,
      "d": 470.72557291665,
      "v": 118
    },
    {
      "midi": 67,
      "hit": false,
      "t": 202586.04614583385,
      "d": 225.47359375000815,
      "v": 120
    },
    {
      "midi": 62,
      "hit": false,
      "t": 202597.91317708386,
      "d": 229.42927083335235,
      "v": 121
    },
    {
      "midi": 57,
      "hit": false,
      "t": 202779.8743229172,
      "d": 336.2325520833547,
      "v": 108
    },
    {
      "midi": 62,
      "hit": false,
      "t": 202969.74682291722,
      "d": 237.34062499998254,
      "v": 120
    },
    {
      "midi": 67,
      "hit": false,
      "t": 202977.65817708388,
      "d": 514.2380208333198,
      "v": 116
    },
    {
      "midi": 57,
      "hit": false,
      "t": 203155.66364583388,
      "d": 348.09958333332906,
      "v": 117
    },
    {
      "midi": 67,
      "hit": false,
      "t": 203535.40864583387,
      "d": 474.6812499999942,
      "v": 116
    },
    {
      "midi": 57,
      "hit": false,
      "t": 203543.32000000053,
      "d": 668.509427083336,
      "v": 114
    },
    {
      "midi": 62,
      "hit": false,
      "t": 203547.27567708388,
      "d": 470.72557291665,
      "v": 118
    },
    {
      "midi": 67,
      "hit": false,
      "t": 204105.02614583386,
      "d": 225.47359375000815,
      "v": 120
    },
    {
      "midi": 62,
      "hit": false,
      "t": 204116.89317708387,
      "d": 229.42927083335235,
      "v": 121
    },
    {
      "midi": 57,
      "hit": false,
      "t": 204298.8543229172,
      "d": 336.2325520833547,
      "v": 108
    },
    {
      "midi": 62,
      "hit": false,
      "t": 204488.72682291723,
      "d": 237.34062499998254,
      "v": 120
    },
    {
      "midi": 67,
      "hit": false,
      "t": 204496.6381770839,
      "d": 514.2380208333198,
      "v": 116
    },
    {
      "midi": 57,
      "hit": false,
      "t": 204674.6436458339,
      "d": 348.09958333332906,
      "v": 117
    },
    {
      "midi": 67,
      "hit": false,
      "t": 205054.38864583388,
      "d": 474.6812499999942,
      "v": 116
    },
    {
      "midi": 57,
      "hit": false,
      "t": 205062.30000000054,
      "d": 668.509427083336,
      "v": 114
    },
    {
      "midi": 62,
      "hit": false,
      "t": 205066.2556770839,
      "d": 470.72557291665,
      "v": 118
    },
    {
      "midi": 67,
      "hit": false,
      "t": 205624.00614583388,
      "d": 225.47359375000815,
      "v": 120
    },
    {
      "midi": 62,
      "hit": false,
      "t": 205635.87317708388,
      "d": 229.42927083335235,
      "v": 121
    },
    {
      "midi": 57,
      "hit": false,
      "t": 205817.83432291722,
      "d": 336.2325520833547,
      "v": 108
    },
    {
      "midi": 62,
      "hit": false,
      "t": 206007.70682291724,
      "d": 237.34062499998254,
      "v": 120
    },
    {
      "midi": 67,
      "hit": false,
      "t": 206015.6181770839,
      "d": 514.2380208333198,
      "v": 116
    },
    {
      "midi": 57,
      "hit": false,
      "t": 206193.6236458339,
      "d": 348.09958333332906,
      "v": 117
    },
    {
      "midi": 67,
      "hit": false,
      "t": 206581.28000000055,
      "d": 664.5537499999919,
      "v": 115
    },
    {
      "midi": 59,
      "hit": false,
      "t": 206581.28000000055,
      "d": 676.4207812499953,
      "v": 117
    },
    {
      "midi": 62,
      "hit": false,
      "t": 206581.28000000055,
      "d": 676.4207812499953,
      "v": 117
    },
    {
      "midi": 59,
      "hit": false,
      "t": 207332.85864583388,
      "d": 573.5731770833372,
      "v": 110
    },
    {
      "midi": 67,
      "hit": false,
      "t": 207336.81432291723,
      "d": 545.883437499986,
      "v": 111
    },
    {
      "midi": 62,
      "hit": false,
      "t": 207336.81432291723,
      "d": 573.5731770833372,
      "v": 116
    },
    {
      "midi": 59,
      "hit": false,
      "t": 208096.30432291722,
      "d": 530.0607291666383,
      "v": 109
    },
    {
      "midi": 64,
      "hit": false,
      "t": 208096.30432291722,
      "d": 549.8391145833011,
      "v": 114
    },
    {
      "midi": 67,
      "hit": false,
      "t": 208104.21567708388,
      "d": 514.2380208333198,
      "v": 111
    },
    {
      "midi": 64,
      "hit": false,
      "t": 208851.83864583386,
      "d": 581.4845312500256,
      "v": 117
    },
    {
      "midi": 67,
      "hit": false,
      "t": 208863.70567708387,
      "d": 549.8391145833302,
      "v": 114
    },
    {
      "midi": 59,
      "hit": false,
      "t": 208863.70567708387,
      "d": 565.6618229166779,
      "v": 116
    },
    {
      "midi": 67,
      "hit": false,
      "t": 209623.1956770839,
      "d": 585.4402083333116,
      "v": 112
    },
    {
      "midi": 60,
      "hit": false,
      "t": 209623.1956770839,
      "d": 621.0413020833221,
      "v": 116
    },
    {
      "midi": 64,
      "hit": false,
      "t": 209623.1956770839,
      "d": 624.9969791666663,
      "v": 116
    },
    {
      "midi": 60,
      "hit": false,
      "t": 210370.81864583388,
      "d": 478.6369270833384,
      "v": 116
    },
    {
      "midi": 67,
      "hit": false,
      "t": 210378.73000000053,
      "d": 530.0607291666674,
      "v": 115
    },
    {
      "midi": 64,
      "hit": false,
      "t": 210382.68567708388,
      "d": 498.41531250000116,
      "v": 116
    },
    {
      "midi": 66,
      "hit": false,
      "t": 211130.30864583387,
      "d": 474.6812500000233,
      "v": 116
    },
    {
      "midi": 57,
      "hit": false,
      "t": 211138.22000000053,
      "d": 668.5094270833652,
      "v": 114
    },
    {
      "midi": 62,
      "hit": false,
      "t": 211142.17567708387,
      "d": 470.7255729166791,
      "v": 118
    },
    {
      "midi": 66,
      "hit": false,
      "t": 211699.9261458339,
      "d": 225.47359375000815,
      "v": 120
    },
    {
      "midi": 62,
      "hit": false,
      "t": 211711.7931770839,
      "d": 229.42927083335235,
      "v": 121
    },
    {
      "midi": 57,
      "hit": false,
      "t": 211893.75432291723,
      "d": 336.2325520833547,
      "v": 108
    },
    {
      "midi": 62,
      "hit": false,
      "t": 212083.62682291726,
      "d": 237.34062499998254,
      "v": 120
    },
    {
      "midi": 66,
      "hit": false,
      "t": 212091.53817708392,
      "d": 514.2380208333198,
      "v": 116
    },
    {
      "midi": 57,
      "hit": false,
      "t": 212269.5436458339,
      "d": 348.09958333332906,
      "v": 117
    },
    {
      "midi": 67,
      "hit": false,
      "t": 212657.20000000056,
      "d": 664.5537499999919,
      "v": 115
    },
    {
      "midi": 62,
      "hit": false,
      "t": 212657.20000000056,
      "d": 676.4207812499953,
      "v": 117
    },
    {
      "midi": 59,
      "hit": false,
      "t": 212657.20000000056,
      "d": 743.6672916666721,
      "v": 117
    },
    {
      "midi": 59,
      "hit": false,
      "t": 213408.7786458339,
      "d": 573.5731770833663,
      "v": 110
    },
    {
      "midi": 67,
      "hit": false,
      "t": 213412.73432291724,
      "d": 545.8834375000151,
      "v": 111
    },
    {
      "midi": 62,
      "hit": false,
      "t": 213412.73432291724,
      "d": 573.5731770833663,
      "v": 116
    },
    {
      "midi": 59,
      "hit": false,
      "t": 214172.22432291726,
      "d": 530.0607291666383,
      "v": 109
    },
    {
      "midi": 64,
      "hit": false,
      "t": 214172.22432291726,
      "d": 549.8391145833011,
      "v": 114
    },
    {
      "midi": 67,
      "hit": false,
      "t": 214180.13567708392,
      "d": 514.2380208333198,
      "v": 111
    },
    {
      "midi": 64,
      "hit": false,
      "t": 214927.7586458339,
      "d": 581.4845312500256,
      "v": 117
    },
    {
      "midi": 67,
      "hit": false,
      "t": 214939.6256770839,
      "d": 549.8391145833302,
      "v": 114
    },
    {
      "midi": 59,
      "hit": false,
      "t": 214939.6256770839,
      "d": 565.6618229166779,
      "v": 116
    },
    {
      "midi": 67,
      "hit": false,
      "t": 215699.11567708393,
      "d": 585.4402083333407,
      "v": 112
    },
    {
      "midi": 60,
      "hit": false,
      "t": 215699.11567708393,
      "d": 621.0413020833512,
      "v": 116
    },
    {
      "midi": 64,
      "hit": false,
      "t": 215699.11567708393,
      "d": 624.9969791666954,
      "v": 116
    },
    {
      "midi": 60,
      "hit": false,
      "t": 216446.73864583395,
      "d": 478.6369270833093,
      "v": 116
    },
    {
      "midi": 67,
      "hit": false,
      "t": 216454.6500000006,
      "d": 530.0607291666383,
      "v": 115
    },
    {
      "midi": 64,
      "hit": false,
      "t": 216458.60567708395,
      "d": 498.41531249997206,
      "v": 116
    },
    {
      "midi": 66,
      "hit": false,
      "t": 217206.2286458339,
      "d": 474.6812500000233,
      "v": 116
    },
    {
      "midi": 57,
      "hit": false,
      "t": 217214.14000000057,
      "d": 668.5094270833652,
      "v": 114
    },
    {
      "midi": 62,
      "hit": false,
      "t": 217218.0956770839,
      "d": 470.7255729166791,
      "v": 118
    },
    {
      "midi": 66,
      "hit": false,
      "t": 217775.84614583393,
      "d": 225.47359375000815,
      "v": 120
    },
    {
      "midi": 62,
      "hit": false,
      "t": 217787.71317708393,
      "d": 229.42927083335235,
      "v": 121
    },
    {
      "midi": 57,
      "hit": false,
      "t": 217969.67432291727,
      "d": 336.2325520833256,
      "v": 108
    },
    {
      "midi": 62,
      "hit": false,
      "t": 218159.54682291727,
      "d": 237.34062499998254,
      "v": 120
    },
    {
      "midi": 66,
      "hit": false,
      "t": 218167.45817708393,
      "d": 514.2380208333198,
      "v": 116
    },
    {
      "midi": 57,
      "hit": false,
      "t": 218345.46364583392,
      "d": 348.09958333332906,
      "v": 117
    },
    {
      "midi": 67,
      "hit": false,
      "t": 218725.20864583392,
      "d": 474.6812499999942,
      "v": 116
    },
    {
      "midi": 59,
      "hit": false,
      "t": 218733.12000000058,
      "d": 668.509427083336,
      "v": 114
    },
    {
      "midi": 64,
      "hit": false,
      "t": 218737.07567708392,
      "d": 470.72557291665,
      "v": 118
    },
    {
      "midi": 66,
      "hit": false,
      "t": 219294.8261458339,
      "d": 225.47359375000815,
      "v": 120
    },
    {
      "midi": 64,
      "hit": false,
      "t": 219306.69317708391,
      "d": 229.42927083335235,
      "v": 121
    },
    {
      "midi": 59,
      "hit": false,
      "t": 219488.65432291725,
      "d": 336.2325520833547,
      "v": 108
    },
    {
      "midi": 64,
      "hit": false,
      "t": 219678.52682291728,
      "d": 237.34062499998254,
      "v": 120
    },
    {
      "midi": 67,
      "hit": false,
      "t": 219686.43817708394,
      "d": 514.2380208333198,
      "v": 116
    },
    {
      "midi": 59,
      "hit": false,
      "t": 219864.44364583393,
      "d": 348.09958333332906,
      "v": 117
    },
    {
      "midi": 66,
      "hit": false,
      "t": 220256.05567708393,
      "d": 585.4402083333116,
      "v": 112
    },
    {
      "midi": 59,
      "hit": false,
      "t": 220256.05567708393,
      "d": 621.0413020833221,
      "v": 116
    },
    {
      "midi": 63,
      "hit": false,
      "t": 220256.05567708393,
      "d": 624.9969791666663,
      "v": 116
    },
    {
      "midi": 59,
      "hit": false,
      "t": 221003.67864583392,
      "d": 478.6369270833384,
      "v": 116
    },
    {
      "midi": 66,
      "hit": false,
      "t": 221011.59000000058,
      "d": 530.0607291666674,
      "v": 115
    },
    {
      "midi": 63,
      "hit": false,
      "t": 221015.54567708392,
      "d": 498.41531250000116,
      "v": 116
    },
    {
      "midi": 67,
      "hit": false,
      "t": 221763.1686458339,
      "d": 474.6812499999942,
      "v": 116
    },
    {
      "midi": 59,
      "hit": false,
      "t": 221771.08000000057,
      "d": 668.509427083336,
      "v": 114
    },
    {
      "midi": 64,
      "hit": false,
      "t": 221775.0356770839,
      "d": 470.72557291665,
      "v": 118
    },
    {
      "midi": 66,
      "hit": false,
      "t": 222332.7861458339,
      "d": 225.47359375000815,
      "v": 120
    },
    {
      "midi": 64,
      "hit": false,
      "t": 222344.6531770839,
      "d": 229.42927083335235,
      "v": 121
    },
    {
      "midi": 59,
      "hit": false,
      "t": 222526.61432291724,
      "d": 336.2325520833547,
      "v": 108
    },
    {
      "midi": 64,
      "hit": false,
      "t": 222716.48682291727,
      "d": 237.34062500001164,
      "v": 120
    },
    {
      "midi": 67,
      "hit": false,
      "t": 222724.39817708393,
      "d": 514.2380208333489,
      "v": 116
    },
    {
      "midi": 59,
      "hit": false,
      "t": 222902.40364583395,
      "d": 348.09958333332906,
      "v": 117
    },
    {
      "midi": 64,
      "hit": false,
      "t": 223282.14864583395,
      "d": 474.6812499999942,
      "v": 116
    },
    {
      "midi": 57,
      "hit": false,
      "t": 223290.0600000006,
      "d": 668.509427083336,
      "v": 114
    },
    {
      "midi": 61,
      "hit": false,
      "t": 223294.01567708395,
      "d": 470.72557291665,
      "v": 118
    },
    {
      "midi": 62,
      "hit": false,
      "t": 223851.76614583394,
      "d": 225.47359375000815,
      "v": 120
    },
    {
      "midi": 61,
      "hit": false,
      "t": 223863.63317708395,
      "d": 229.42927083335235,
      "v": 121
    },
    {
      "midi": 57,
      "hit": false,
      "t": 224045.59432291728,
      "d": 336.2325520833547,
      "v": 108
    },
    {
      "midi": 61,
      "hit": false,
      "t": 224235.4668229173,
      "d": 237.34062499998254,
      "v": 120
    },
    {
      "midi": 64,
      "hit": false,
      "t": 224243.37817708397,
      "d": 514.2380208333198,
      "v": 116
    },
    {
      "midi": 57,
      "hit": false,
      "t": 224421.38364583396,
      "d": 348.09958333332906,
      "v": 117
    },
    {
      "midi": 66,
      "hit": false,
      "t": 224801.12864583396,
      "d": 474.6812500000233,
      "v": 116
    },
    {
      "midi": 57,
      "hit": false,
      "t": 224809.04000000062,
      "d": 668.5094270833652,
      "v": 114
    },
    {
      "midi": 62,
      "hit": false,
      "t": 224812.99567708396,
      "d": 470.7255729166791,
      "v": 118
    },
    {
      "midi": 66,
      "hit": false,
      "t": 225370.74614583398,
      "d": 225.47359375000815,
      "v": 120
    },
    {
      "midi": 62,
      "hit": false,
      "t": 225382.613177084,
      "d": 229.42927083335235,
      "v": 121
    },
    {
      "midi": 57,
      "hit": false,
      "t": 225564.57432291732,
      "d": 336.2325520833547,
      "v": 108
    },
    {
      "midi": 62,
      "hit": false,
      "t": 225754.44682291735,
      "d": 237.34062500001164,
      "v": 120
    },
    {
      "midi": 66,
      "hit": false,
      "t": 225762.358177084,
      "d": 514.2380208333489,
      "v": 116
    },
    {
      "midi": 57,
      "hit": false,
      "t": 225940.36364583403,
      "d": 348.09958333332906,
      "v": 117
    },
    {
      "midi": 66,
      "hit": false,
      "t": 226320.10864583403,
      "d": 474.6812499999942,
      "v": 116
    },
    {
      "midi": 59,
      "hit": false,
      "t": 226328.0200000007,
      "d": 668.509427083336,
      "v": 114
    },
    {
      "midi": 62,
      "hit": false,
      "t": 226331.97567708403,
      "d": 470.72557291665,
      "v": 118
    },
    {
      "midi": 66,
      "hit": false,
      "t": 226889.72614583402,
      "d": 225.47359375000815,
      "v": 120
    },
    {
      "midi": 62,
      "hit": false,
      "t": 226901.59317708403,
      "d": 229.42927083335235,
      "v": 121
    },
    {
      "midi": 59,
      "hit": false,
      "t": 227083.55432291736,
      "d": 336.2325520833547,
      "v": 108
    },
    {
      "midi": 62,
      "hit": false,
      "t": 227273.4268229174,
      "d": 237.34062499998254,
      "v": 120
    },
    {
      "midi": 66,
      "hit": false,
      "t": 227281.33817708405,
      "d": 514.2380208333198,
      "v": 116
    },
    {
      "midi": 59,
      "hit": false,
      "t": 227459.34364583404,
      "d": 348.09958333332906,
      "v": 117
    },
    {
      "midi": 67,
      "hit": false,
      "t": 227839.08864583404,
      "d": 474.6812500000233,
      "v": 116
    },
    {
      "midi": 57,
      "hit": false,
      "t": 227847.0000000007,
      "d": 668.5094270833652,
      "v": 114
    },
    {
      "midi": 62,
      "hit": false,
      "t": 227850.95567708404,
      "d": 470.7255729166791,
      "v": 118
    },
    {
      "midi": 67,
      "hit": false,
      "t": 228408.70614583406,
      "d": 225.47359375000815,
      "v": 120
    },
    {
      "midi": 62,
      "hit": false,
      "t": 228420.57317708406,
      "d": 229.42927083335235,
      "v": 121
    },
    {
      "midi": 57,
      "hit": false,
      "t": 228602.5343229174,
      "d": 336.2325520833256,
      "v": 108
    },
    {
      "midi": 62,
      "hit": false,
      "t": 228792.4068229174,
      "d": 237.34062499998254,
      "v": 120
    },
    {
      "midi": 67,
      "hit": false,
      "t": 228800.31817708406,
      "d": 514.2380208333198,
      "v": 116
    },
    {
      "midi": 57,
      "hit": false,
      "t": 228978.32364583405,
      "d": 348.09958333332906,
      "v": 117
    },
    {
      "midi": 67,
      "hit": false,
      "t": 229358.06864583405,
      "d": 474.6812500000233,
      "v": 116
    },
    {
      "midi": 57,
      "hit": false,
      "t": 229365.9800000007,
      "d": 668.5094270833652,
      "v": 114
    },
    {
      "midi": 62,
      "hit": false,
      "t": 229369.93567708405,
      "d": 470.7255729166791,
      "v": 118
    },
    {
      "midi": 67,
      "hit": false,
      "t": 229927.68614583407,
      "d": 225.47359375000815,
      "v": 120
    },
    {
      "midi": 62,
      "hit": false,
      "t": 229939.55317708408,
      "d": 229.42927083335235,
      "v": 121
    },
    {
      "midi": 57,
      "hit": false,
      "t": 230121.5143229174,
      "d": 336.2325520833547,
      "v": 108
    },
    {
      "midi": 62,
      "hit": false,
      "t": 230311.38682291744,
      "d": 237.34062499998254,
      "v": 120
    },
    {
      "midi": 67,
      "hit": false,
      "t": 230319.2981770841,
      "d": 514.2380208333198,
      "v": 116
    },
    {
      "midi": 57,
      "hit": false,
      "t": 230497.3036458341,
      "d": 348.09958333332906,
      "v": 117
    },
    {
      "midi": 67,
      "hit": false,
      "t": 230877.0486458341,
      "d": 474.6812499999942,
      "v": 116
    },
    {
      "midi": 57,
      "hit": false,
      "t": 230884.96000000075,
      "d": 668.509427083336,
      "v": 114
    },
    {
      "midi": 62,
      "hit": false,
      "t": 230888.9156770841,
      "d": 470.72557291665,
      "v": 118
    },
    {
      "midi": 67,
      "hit": false,
      "t": 231446.66614583408,
      "d": 225.47359375000815,
      "v": 120
    },
    {
      "midi": 62,
      "hit": false,
      "t": 231458.5331770841,
      "d": 229.42927083335235,
      "v": 121
    },
    {
      "midi": 57,
      "hit": false,
      "t": 231640.49432291742,
      "d": 336.2325520833547,
      "v": 108
    },
    {
      "midi": 62,
      "hit": false,
      "t": 231830.36682291745,
      "d": 237.34062499998254,
      "v": 120
    },
    {
      "midi": 67,
      "hit": false,
      "t": 231838.2781770841,
      "d": 514.2380208333198,
      "v": 116
    },
    {
      "midi": 57,
      "hit": false,
      "t": 232016.2836458341,
      "d": 348.09958333332906,
      "v": 117
    },
    {
      "midi": 67,
      "hit": false,
      "t": 232396.0286458341,
      "d": 474.6812500000233,
      "v": 116
    },
    {
      "midi": 57,
      "hit": false,
      "t": 232403.94000000076,
      "d": 668.5094270833652,
      "v": 114
    },
    {
      "midi": 62,
      "hit": false,
      "t": 232407.8956770841,
      "d": 470.7255729166791,
      "v": 118
    },
    {
      "midi": 67,
      "hit": false,
      "t": 232965.64614583412,
      "d": 225.47359375000815,
      "v": 120
    },
    {
      "midi": 62,
      "hit": false,
      "t": 232977.51317708413,
      "d": 229.42927083335235,
      "v": 121
    }
  ]
}