{
  "jsonPath": "Unknown/Unknown/E.Macdowell,Op.39,No.1/hunting-song.json",
  "path": "Unknown\\Unknown\\E.Macdowell,Op.39,No.1\\Hunting Song.mid",
  "name": "Hunting Song",
  "difficulty": "Advanced",
  "bpm": 120,
  "notes": [
    {
      "midi": 60,
      "hit": false,
      "t": 750,
      "d": 250,
      "v": 100
    },
    {
      "midi": 65,
      "hit": false,
      "t": 1000,
      "d": 375,
      "v": 100
    },
    {
      "midi": 64,
      "hit": false,
      "t": 1375,
      "d": 125,
      "v": 100
    },
    {
      "midi": 65,
      "hit": false,
      "t": 1500,
      "d": 250,
      "v": 100
    },
    {
      "midi": 69,
      "hit": false,
      "t": 1750,
      "d": 250,
      "v": 100
    },
    {
      "midi": 72,
      "hit": false,
      "t": 2000,
      "d": 500,
      "v": 100
    },
    {
      "midi": 64,
      "hit": false,
      "t": 2500,
      "d": 166.66666666666652,
      "v": 100
    },
    {
      "midi": 69,
      "hit": false,
      "t": 2500,
      "d": 166.66666666666652,
      "v": 100
    },
    {
      "midi": 48,
      "hit": false,
      "t": 2500,
      "d": 500,
      "v": 100
    },
    {
      "midi": 58,
      "hit": false,
      "t": 2500,
      "d": 500,
      "v": 100
    },
    {
      "midi": 67,
      "hit": false,
      "t": 2666.6666666666665,
      "d": 166.66666666666652,
      "v": 100
    },
    {
      "midi": 69,
      "hit": false,
      "t": 2833.333333333333,
      "d": 166.66666666666652,
      "v": 100
    },
    {
      "midi": 65,
      "hit": false,
      "t": 2999.9999999999995,
      "d": 375,
      "v": 100
    },
    {
      "midi": 50,
      "hit": false,
      "t": 3000,
      "d": 500,
      "v": 100
    },
    {
      "midi": 57,
      "hit": false,
      "t": 3000,
      "d": 500,
      "v": 100
    },
    {
      "midi": 64,
      "hit": false,
      "t": 3374.9999999999995,
      "d": 125,
      "v": 100
    },
    {
      "midi": 65,
      "hit": false,
      "t": 3499.9999999999995,
      "d": 250,
      "v": 100
    },
    {
      "midi": 69,
      "hit": false,
      "t": 3749.9999999999995,
      "d": 250,
      "v": 100
    },
    {
      "midi": 72,
      "hit": false,
      "t": 3999.9999999999995,
      "d": 250.00000000000045,
      "v": 100
    },
    {
      "midi": 76,
      "hit": false,
      "t": 4250,
      "d": 250,
      "v": 100
    },
    {
      "midi": 65,
      "hit": false,
      "t": 4500,
      "d": 166.66666666666697,
      "v": 100
    },
    {
      "midi": 76,
      "hit": false,
      "t": 4500,
      "d": 166.66666666666697,
      "v": 100
    },
    {
      "midi": 47,
      "hit": false,
      "t": 4500,
      "d": 500,
      "v": 100
    },
    {
      "midi": 56,
      "hit": false,
      "t": 4500,
      "d": 500,
      "v": 100
    },
    {
      "midi": 74,
      "hit": false,
      "t": 4666.666666666667,
      "d": 166.66666666666697,
      "v": 100
    },
    {
      "midi": 76,
      "hit": false,
      "t": 4833.333333333334,
      "d": 166.66666666666697,
      "v": 100
    },
    {
      "midi": 48,
      "hit": false,
      "t": 5000,
      "d": 500,
      "v": 100
    },
    {
      "midi": 57,
      "hit": false,
      "t": 5000,
      "d": 500,
      "v": 100
    },
    {
      "midi": 65,
      "hit": false,
      "t": 5000.000000000001,
      "d": 375,
      "v": 100
    },
    {
      "midi": 74,
      "hit": false,
      "t": 5000.000000000001,
      "d": 375,
      "v": 100
    },
    {
      "midi": 72,
      "hit": false,
      "t": 5375.000000000001,
      "d": 125,
      "v": 100
    },
    {
      "midi": 69,
      "hit": false,
      "t": 5500.000000000001,
      "d": 250,
      "v": 100
    },
    {
      "midi": 65,
      "hit": false,
      "t": 5750.000000000001,
      "d": 250,
      "v": 100
    },
    {
      "midi": 43,
      "hit": false,
      "t": 6000,
      "d": 1000,
      "v": 100
    },
    {
      "midi": 53,
      "hit": false,
      "t": 6000,
      "d": 1000,
      "v": 100
    },
    {
      "midi": 59,
      "hit": false,
      "t": 6000.000000000001,
      "d": 500,
      "v": 100
    },
    {
      "midi": 62,
      "hit": false,
      "t": 6000.000000000001,
      "d": 500,
      "v": 100
    },
    {
      "midi": 69,
      "hit": false,
      "t": 6500.000000000001,
      "d": 500,
      "v": 100
    },
    {
      "midi": 48,
      "hit": false,
      "t": 7000,
      "d": 2000,
      "v": 100
    },
    {
      "midi": 58,
      "hit": false,
      "t": 7000,
      "d": 2000,
      "v": 100
    },
    {
      "midi": 64,
      "hit": false,
      "t": 7000.000000000001,
      "d": 1000,
      "v": 100
    },
    {
      "midi": 69,
      "hit": false,
      "t": 7000.000000000001,
      "d": 1000,
      "v": 100
    },
    {
      "midi": 72,
      "hit": false,
      "t": 7000.000000000001,
      "d": 1000,
      "v": 100
    },
    {
      "midi": 67,
      "hit": false,
      "t": 8000.000000000001,
      "d": 499.9999999999991,
      "v": 100
    },
    {
      "midi": 60,
      "hit": false,
      "t": 8500,
      "d": 500,
      "v": 100
    },
    {
      "midi": 65,
      "hit": false,
      "t": 9000,
      "d": 375,
      "v": 100
    },
    {
      "midi": 53,
      "hit": false,
      "t": 9000,
      "d": 500,
      "v": 100
    },
    {
      "midi": 57,
      "hit": false,
      "t": 9000,
      "d": 500,
      "v": 100
    },
    {
      "midi": 64,
      "hit": false,
      "t": 9375,
      "d": 125,
      "v": 100
    },
    {
      "midi": 65,
      "hit": false,
      "t": 9500,
      "d": 250,
      "v": 100
    },
    {
      "midi": 69,
      "hit": false,
      "t": 9750,
      "d": 250,
      "v": 100
    },
    {
      "midi": 72,
      "hit": false,
      "t": 10000,
      "d": 500,
      "v": 100
    },
    {
      "midi": 61,
      "hit": false,
      "t": 10500,
      "d": 166.66666666666606,
      "v": 100
    },
    {
      "midi": 69,
      "hit": false,
      "t": 10500,
      "d": 166.66666666666606,
      "v": 100
    },
    {
      "midi": 46,
      "hit": false,
      "t": 10500,
      "d": 500,
      "v": 100
    },
    {
      "midi": 52,
      "hit": false,
      "t": 10500,
      "d": 500,
      "v": 100
    },
    {
      "midi": 67,
      "hit": false,
      "t": 10666.666666666666,
      "d": 166.66666666666606,
      "v": 100
    },
    {
      "midi": 69,
      "hit": false,
      "t": 10833.333333333332,
      "d": 166.66666666666606,
      "v": 100
    },
    {
      "midi": 65,
      "hit": false,
      "t": 10999.999999999998,
      "d": 375,
      "v": 100
    },
    {
      "midi": 45,
      "hit": false,
      "t": 11000,
      "d": 500,
      "v": 100
    },
    {
      "midi": 53,
      "hit": false,
      "t": 11000,
      "d": 500,
      "v": 100
    },
    {
      "midi": 64,
      "hit": false,
      "t": 11374.999999999998,
      "d": 125,
      "v": 100
    },
    {
      "midi": 65,
      "hit": false,
      "t": 11499.999999999998,
      "d": 375,
      "v": 100
    },
    {
      "midi": 69,
      "hit": false,
      "t": 11874.999999999998,
      "d": 125,
      "v": 100
    },
    {
      "midi": 72,
      "hit": false,
      "t": 11999.999999999998,
      "d": 250,
      "v": 100
    },
    {
      "midi": 77,
      "hit": false,
      "t": 12249.999999999998,
      "d": 250,
      "v": 100
    },
    {
      "midi": 69,
      "hit": false,
      "t": 12499.999999999998,
      "d": 166.66666666666606,
      "v": 100
    },
    {
      "midi": 77,
      "hit": false,
      "t": 12499.999999999998,
      "d": 166.66666666666606,
      "v": 100
    },
    {
      "midi": 60,
      "hit": false,
      "t": 12500,
      "d": 500,
      "v": 100
    },
    {
      "midi": 63,
      "hit": false,
      "t": 12500,
      "d": 500,
      "v": 100
    },
    {
      "midi": 79,
      "hit": false,
      "t": 12666.666666666664,
      "d": 166.66666666666606,
      "v": 100
    },
    {
      "midi": 77,
      "hit": false,
      "t": 12833.33333333333,
      "d": 166.66666666666606,
      "v": 100
    },
    {
      "midi": 79,
      "hit": false,
      "t": 12999.999999999996,
      "d": 375,
      "v": 100
    },
    {
      "midi": 58,
      "hit": false,
      "t": 13000,
      "d": 1000,
      "v": 100
    },
    {
      "midi": 62,
      "hit": false,
      "t": 13000,
      "d": 1000,
      "v": 100
    },
    {
      "midi": 77,
      "hit": false,
      "t": 13374.999999999996,
      "d": 125,
      "v": 100
    },
    {
      "midi": 74,
      "hit": false,
      "t": 13499.999999999996,
      "d": 250,
      "v": 100
    },
    {
      "midi": 70,
      "hit": false,
      "t": 13749.999999999996,
      "d": 250,
      "v": 100
    },
    {
      "midi": 69,
      "hit": false,
      "t": 13999.999999999996,
      "d": 375,
      "v": 100
    },
    {
      "midi": 57,
      "hit": false,
      "t": 14000,
      "d": 375,
      "v": 100
    },
    {
      "midi": 67,
      "hit": false,
      "t": 14374.999999999996,
      "d": 125,
      "v": 100
    },
    {
      "midi": 55,
      "hit": false,
      "t": 14375,
      "d": 125,
      "v": 100
    },
    {
      "midi": 70,
      "hit": false,
      "t": 14499.999999999996,
      "d": 250,
      "v": 100
    },
    {
      "midi": 58,
      "hit": false,
      "t": 14500,
      "d": 250,
      "v": 100
    },
    {
      "midi": 74,
      "hit": false,
      "t": 14749.999999999996,
      "d": 250,
      "v": 100
    },
    {
      "midi": 62,
      "hit": false,
      "t": 14750,
      "d": 250,
      "v": 100
    },
    {
      "midi": 79,
      "hit": false,
      "t": 14999.999999999996,
      "d": 375,
      "v": 100
    },
    {
      "midi": 67,
      "hit": false,
      "t": 15000,
      "d": 375,
      "v": 100
    },
    {
      "midi": 77,
      "hit": false,
      "t": 15374.999999999996,
      "d": 125,
      "v": 100
    },
    {
      "midi": 65,
      "hit": false,
      "t": 15375,
      "d": 125,
      "v": 100
    },
    {
      "midi": 74,
      "hit": false,
      "t": 15499.999999999996,
      "d": 250,
      "v": 100
    },
    {
      "midi": 62,
      "hit": false,
      "t": 15500,
      "d": 250,
      "v": 100
    },
    {
      "midi": 70,
      "hit": false,
      "t": 15749.999999999996,
      "d": 250,
      "v": 100
    },
    {
      "midi": 58,
      "hit": false,
      "t": 15750,
      "d": 250,
      "v": 100
    },
    {
      "midi": 69,
      "hit": false,
      "t": 15999.999999999996,
      "d": 375,
      "v": 100
    },
    {
      "midi": 57,
      "hit": false,
      "t": 16000,
      "d": 375,
      "v": 100
    },
    {
      "midi": 67,
      "hit": false,
      "t": 16374.999999999996,
      "d": 125,
      "v": 100
    },
    {
      "midi": 55,
      "hit": false,
      "t": 16375,
      "d": 125,
      "v": 100
    },
    {
      "midi": 70,
      "hit": false,
      "t": 16499.999999999996,
      "d": 166.66666666666788,
      "v": 100
    },
    {
      "midi": 58,
      "hit": false,
      "t": 16500,
      "d": 166.66666666666788,
      "v": 100
    },
    {
      "midi": 74,
      "hit": false,
      "t": 16666.666666666664,
      "d": 166.66666666666788,
      "v": 100
    },
    {
      "midi": 62,
      "hit": false,
      "t": 16666.666666666668,
      "d": 166.66666666666788,
      "v": 100
    },
    {
      "midi": 77,
      "hit": false,
      "t": 16833.333333333332,
      "d": 166.66666666666788,
      "v": 100
    },
    {
      "midi": 65,
      "hit": false,
      "t": 16833.333333333336,
      "d": 166.66666666666788,
      "v": 100
    },
    {
      "midi": 81,
      "hit": false,
      "t": 17000,
      "d": 166.66666666666788,
      "v": 100
    },
    {
      "midi": 69,
      "hit": false,
      "t": 17000.000000000004,
      "d": 250,
      "v": 100
    },
    {
      "midi": 79,
      "hit": false,
      "t": 17166.666666666668,
      "d": 166.66666666666788,
      "v": 100
    },
    {
      "midi": 77,
      "hit": false,
      "t": 17333.333333333336,
      "d": 166.66666666666788,
      "v": 100
    },
    {
      "midi": 74,
      "hit": false,
      "t": 17500.000000000004,
      "d": 166.66666666666788,
      "v": 100
    },
    {
      "midi": 70,
      "hit": false,
      "t": 17666.66666666667,
      "d": 166.66666666666788,
      "v": 100
    },
    {
      "midi": 67,
      "hit": false,
      "t": 17833.33333333334,
      "d": 166.66666666666788,
      "v": 100
    },
    {
      "midi": 77,
      "hit": false,
      "t": 18000.000000000004,
      "d": 166.66666666666788,
      "v": 100
    },
    {
      "midi": 74,
      "hit": false,
      "t": 18166.66666666667,
      "d": 166.66666666666788,
      "v": 100
    },
    {
      "midi": 70,
      "hit": false,
      "t": 18333.33333333334,
      "d": 166.66666666666788,
      "v": 100
    },
    {
      "midi": 67,
      "hit": false,
      "t": 18500.000000000007,
      "d": 166.66666666666788,
      "v": 100
    },
    {
      "midi": 65,
      "hit": false,
      "t": 18666.666666666675,
      "d": 166.66666666666788,
      "v": 100
    },
    {
      "midi": 62,
      "hit": false,
      "t": 18833.333333333343,
      "d": 166.66666666666788,
      "v": 100
    },
    {
      "midi": 74,
      "hit": false,
      "t": 19000.000000000007,
      "d": 166.66666666666788,
      "v": 100
    },
    {
      "midi": 70,
      "hit": false,
      "t": 19166.666666666675,
      "d": 166.66666666666788,
      "v": 100
    },
    {
      "midi": 67,
      "hit": false,
      "t": 19333.333333333343,
      "d": 166.66666666666788,
      "v": 100
    },
    {
      "midi": 65,
      "hit": false,
      "t": 19500.00000000001,
      "d": 166.66666666666788,
      "v": 100
    },
    {
      "midi": 62,
      "hit": false,
      "t": 19666.66666666668,
      "d": 166.66666666666788,
      "v": 100
    },
    {
      "midi": 58,
      "hit": false,
      "t": 19833.333333333347,
      "d": 166.66666666666788,
      "v": 100
    },
    {
      "midi": 70,
      "hit": false,
      "t": 20000.00000000001,
      "d": 166.66666666666788,
      "v": 100
    },
    {
      "midi": 67,
      "hit": false,
      "t": 20166.66666666668,
      "d": 166.66666666666788,
      "v": 100
    },
    {
      "midi": 65,
      "hit": false,
      "t": 20333.333333333347,
      "d": 166.66666666666788,
      "v": 100
    },
    {
      "midi": 62,
      "hit": false,
      "t": 20500.000000000015,
      "d": 166.66666666666788,
      "v": 100
    },
    {
      "midi": 58,
      "hit": false,
      "t": 20666.666666666682,
      "d": 166.66666666666788,
      "v": 100
    },
    {
      "midi": 55,
      "hit": false,
      "t": 20833.33333333335,
      "d": 166.66666666666788,
      "v": 100
    },
    {
      "midi": 64,
      "hit": false,
      "t": 21000.000000000015,
      "d": 750,
      "v": 100
    },
    {
      "midi": 69,
      "hit": false,
      "t": 21000.000000000015,
      "d": 750,
      "v": 100
    },
    {
      "midi": 48,
      "hit": false,
      "t": 21000.00000000002,
      "d": 1000,
      "v": 100
    },
    {
      "midi": 58,
      "hit": false,
      "t": 21000.00000000002,
      "d": 1000,
      "v": 100
    },
    {
      "midi": 60,
      "hit": false,
      "t": 21750.000000000015,
      "d": 250,
      "v": 100
    },
    {
      "midi": 57,
      "hit": false,
      "t": 22000.000000000015,
      "d": 250,
      "v": 100
    },
    {
      "midi": 65,
      "hit": false,
      "t": 22000.000000000015,
      "d": 250,
      "v": 100
    },
    {
      "midi": 53,
      "hit": false,
      "t": 22000.00000000002,
      "d": 375,
      "v": 100
    },
    {
      "midi": 64,
      "hit": false,
      "t": 23500.000000000015,
      "d": 166.66666666666788,
      "v": 100
    },
    {
      "midi": 69,
      "hit": false,
      "t": 23500.000000000015,
      "d": 166.66666666666788,
      "v": 100
    },
    {
      "midi": 67,
      "hit": false,
      "t": 23666.666666666682,
      "d": 166.66666666666788,
      "v": 100
    },
    {
      "midi": 69,
      "hit": false,
      "t": 23833.33333333335,
      "d": 166.66666666666788,
      "v": 100
    },
    {
      "midi": 65,
      "hit": false,
      "t": 24000.00000000002,
      "d": 250,
      "v": 100
    },
    {
      "midi": 60,
      "hit": false,
      "t": 25500.00000000002,
      "d": 250,
      "v": 100
    },
    {
      "midi": 65,
      "hit": false,
      "t": 26000.00000000002,
      "d": 250,
      "v": 100
    },
    {
      "midi": 60,
      "hit": false,
      "t": 26500.00000000002,
      "d": 250,
      "v": 100
    },
    {
      "midi": 65,
      "hit": false,
      "t": 27000.00000000002,
      "d": 250,
      "v": 100
    },
    {
      "midi": 60,
      "hit": false,
      "t": 27500.00000000002,
      "d": 250,
      "v": 100
    },
    {
      "midi": 65,
      "hit": false,
      "t": 28000.00000000002,
      "d": 250,
      "v": 100
    },
    {
      "midi": 64,
      "hit": false,
      "t": 29000.00000000002,
      "d": 250,
      "v": 100
    },
    {
      "midi": 70,
      "hit": false,
      "t": 29000.00000000002,
      "d": 250,
      "v": 100
    },
    {
      "midi": 72,
      "hit": false,
      "t": 29000.00000000002,
      "d": 250,
      "v": 100
    },
    {
      "midi": 69,
      "hit": false,
      "t": 30000.00000000002,
      "d": 250,
      "v": 100
    },
    {
      "midi": 72,
      "hit": false,
      "t": 30000.00000000002,
      "d": 250,
      "v": 100
    },
    {
      "midi": 77,
      "hit": false,
      "t": 30000.00000000002,
      "d": 250,
      "v": 100
    }
  ]
}