{
  "jsonPath": "Country/Country/Mindy McCready/ten-thousand-angels.json",
  "path": "Country\\Country\\Mindy McCready\\Ten Thousand Angels.mid",
  "name": "Ten Thousand Angels",
  "difficulty": "Advanced",
  "bpm": 101.00006901671382,
  "notes": [
    {
      "midi": 65,
      "hit": false,
      "t": 19190,
      "d": 1265,
      "v": 127
    },
    {
      "midi": 72,
      "hit": false,
      "t": 19195,
      "d": 845,
      "v": 127
    },
    {
      "midi": 74,
      "hit": false,
      "t": 20085,
      "d": 350,
      "v": 98
    },
    {
      "midi": 70,
      "hit": false,
      "t": 20975,
      "d": 1875,
      "v": 127
    },
    {
      "midi": 67,
      "hit": false,
      "t": 22800,
      "d": 1140,
      "v": 111
    },
    {
      "midi": 65,
      "hit": false,
      "t": 23960,
      "d": 3275,
      "v": 81
    },
    {
      "midi": 60,
      "hit": false,
      "t": 24570,
      "d": 785,
      "v": 98
    },
    {
      "midi": 60,
      "hit": false,
      "t": 24570,
      "d": 785,
      "v": 98
    },
    {
      "midi": 53,
      "hit": false,
      "t": 24580,
      "d": 695,
      "v": 91
    },
    {
      "midi": 53,
      "hit": false,
      "t": 24580,
      "d": 695,
      "v": 91
    },
    {
      "midi": 62,
      "hit": false,
      "t": 25475,
      "d": 425,
      "v": 76
    },
    {
      "midi": 62,
      "hit": false,
      "t": 25475,
      "d": 425,
      "v": 76
    },
    {
      "midi": 53,
      "hit": false,
      "t": 25495,
      "d": 560,
      "v": 69
    },
    {
      "midi": 53,
      "hit": false,
      "t": 25495,
      "d": 560,
      "v": 69
    },
    {
      "midi": 60,
      "hit": false,
      "t": 26395,
      "d": 855,
      "v": 81
    },
    {
      "midi": 60,
      "hit": false,
      "t": 26395,
      "d": 855,
      "v": 81
    },
    {
      "midi": 53,
      "hit": false,
      "t": 26405,
      "d": 1880,
      "v": 71
    },
    {
      "midi": 53,
      "hit": false,
      "t": 26405,
      "d": 1880,
      "v": 71
    },
    {
      "midi": 58,
      "hit": false,
      "t": 27365,
      "d": 850,
      "v": 94
    },
    {
      "midi": 58,
      "hit": false,
      "t": 27365,
      "d": 850,
      "v": 94
    },
    {
      "midi": 55,
      "hit": false,
      "t": 28200,
      "d": 605,
      "v": 71
    },
    {
      "midi": 55,
      "hit": false,
      "t": 28200,
      "d": 605,
      "v": 71
    },
    {
      "midi": 58,
      "hit": false,
      "t": 28835,
      "d": 1445,
      "v": 55
    },
    {
      "midi": 58,
      "hit": false,
      "t": 28835,
      "d": 1445,
      "v": 55
    },
    {
      "midi": 53,
      "hit": false,
      "t": 28845,
      "d": 1450,
      "v": 65
    },
    {
      "midi": 53,
      "hit": false,
      "t": 28845,
      "d": 1450,
      "v": 65
    },
    {
      "midi": 62,
      "hit": false,
      "t": 28850,
      "d": 1275,
      "v": 81
    },
    {
      "midi": 62,
      "hit": false,
      "t": 28850,
      "d": 1275,
      "v": 81
    },
    {
      "midi": 58,
      "hit": false,
      "t": 30590,
      "d": 2080,
      "v": 47
    },
    {
      "midi": 58,
      "hit": false,
      "t": 30590,
      "d": 2080,
      "v": 47
    },
    {
      "midi": 53,
      "hit": false,
      "t": 30610,
      "d": 880,
      "v": 67
    },
    {
      "midi": 53,
      "hit": false,
      "t": 30610,
      "d": 880,
      "v": 67
    },
    {
      "midi": 60,
      "hit": false,
      "t": 30620,
      "d": 2005,
      "v": 56
    },
    {
      "midi": 60,
      "hit": false,
      "t": 30620,
      "d": 2005,
      "v": 56
    },
    {
      "midi": 58,
      "hit": false,
      "t": 33595,
      "d": 1365,
      "v": 63
    },
    {
      "midi": 58,
      "hit": false,
      "t": 33595,
      "d": 1365,
      "v": 63
    },
    {
      "midi": 53,
      "hit": false,
      "t": 33610,
      "d": 1330,
      "v": 65
    },
    {
      "midi": 53,
      "hit": false,
      "t": 33610,
      "d": 1330,
      "v": 65
    },
    {
      "midi": 62,
      "hit": false,
      "t": 33635,
      "d": 1010,
      "v": 49
    },
    {
      "midi": 62,
      "hit": false,
      "t": 33635,
      "d": 1010,
      "v": 49
    },
    {
      "midi": 58,
      "hit": false,
      "t": 35400,
      "d": 2060,
      "v": 66
    },
    {
      "midi": 58,
      "hit": false,
      "t": 35400,
      "d": 2060,
      "v": 66
    },
    {
      "midi": 60,
      "hit": false,
      "t": 35420,
      "d": 1995,
      "v": 67
    },
    {
      "midi": 60,
      "hit": false,
      "t": 35420,
      "d": 1995,
      "v": 67
    },
    {
      "midi": 53,
      "hit": false,
      "t": 35430,
      "d": 2000,
      "v": 58
    },
    {
      "midi": 53,
      "hit": false,
      "t": 35430,
      "d": 2000,
      "v": 58
    },
    {
      "midi": 58,
      "hit": false,
      "t": 38395,
      "d": 1420,
      "v": 66
    },
    {
      "midi": 58,
      "hit": false,
      "t": 38395,
      "d": 1420,
      "v": 66
    },
    {
      "midi": 53,
      "hit": false,
      "t": 38410,
      "d": 1420,
      "v": 63
    },
    {
      "midi": 53,
      "hit": false,
      "t": 38410,
      "d": 1420,
      "v": 63
    },
    {
      "midi": 62,
      "hit": false,
      "t": 38435,
      "d": 1115,
      "v": 47
    },
    {
      "midi": 62,
      "hit": false,
      "t": 38435,
      "d": 1115,
      "v": 47
    },
    {
      "midi": 58,
      "hit": false,
      "t": 40175,
      "d": 2470,
      "v": 40
    },
    {
      "midi": 58,
      "hit": false,
      "t": 40175,
      "d": 2470,
      "v": 40
    },
    {
      "midi": 53,
      "hit": false,
      "t": 40195,
      "d": 2440,
      "v": 58
    },
    {
      "midi": 53,
      "hit": false,
      "t": 40195,
      "d": 2440,
      "v": 58
    },
    {
      "midi": 60,
      "hit": false,
      "t": 40205,
      "d": 2115,
      "v": 50
    },
    {
      "midi": 60,
      "hit": false,
      "t": 40205,
      "d": 2115,
      "v": 50
    },
    {
      "midi": 58,
      "hit": false,
      "t": 43150,
      "d": 1485,
      "v": 63
    },
    {
      "midi": 58,
      "hit": false,
      "t": 43150,
      "d": 1485,
      "v": 63
    },
    {
      "midi": 53,
      "hit": false,
      "t": 43165,
      "d": 1455,
      "v": 67
    },
    {
      "midi": 53,
      "hit": false,
      "t": 43165,
      "d": 1455,
      "v": 67
    },
    {
      "midi": 62,
      "hit": false,
      "t": 43185,
      "d": 925,
      "v": 57
    },
    {
      "midi": 62,
      "hit": false,
      "t": 43185,
      "d": 925,
      "v": 57
    },
    {
      "midi": 58,
      "hit": false,
      "t": 44985,
      "d": 2090,
      "v": 58
    },
    {
      "midi": 58,
      "hit": false,
      "t": 44985,
      "d": 2090,
      "v": 58
    },
    {
      "midi": 60,
      "hit": false,
      "t": 45010,
      "d": 1960,
      "v": 60
    },
    {
      "midi": 60,
      "hit": false,
      "t": 45010,
      "d": 1960,
      "v": 60
    },
    {
      "midi": 53,
      "hit": false,
      "t": 45015,
      "d": 2050,
      "v": 61
    },
    {
      "midi": 53,
      "hit": false,
      "t": 45015,
      "d": 2050,
      "v": 61
    },
    {
      "midi": 58,
      "hit": false,
      "t": 48010,
      "d": 1390,
      "v": 66
    },
    {
      "midi": 58,
      "hit": false,
      "t": 48010,
      "d": 1390,
      "v": 66
    },
    {
      "midi": 53,
      "hit": false,
      "t": 48025,
      "d": 1360,
      "v": 67
    },
    {
      "midi": 53,
      "hit": false,
      "t": 48025,
      "d": 1360,
      "v": 67
    },
    {
      "midi": 62,
      "hit": false,
      "t": 48055,
      "d": 970,
      "v": 52
    },
    {
      "midi": 62,
      "hit": false,
      "t": 48055,
      "d": 970,
      "v": 52
    },
    {
      "midi": 58,
      "hit": false,
      "t": 49790,
      "d": 2085,
      "v": 70
    },
    {
      "midi": 58,
      "hit": false,
      "t": 49790,
      "d": 2085,
      "v": 70
    },
    {
      "midi": 53,
      "hit": false,
      "t": 49810,
      "d": 2025,
      "v": 69
    },
    {
      "midi": 53,
      "hit": false,
      "t": 49810,
      "d": 2025,
      "v": 69
    },
    {
      "midi": 60,
      "hit": false,
      "t": 49815,
      "d": 1980,
      "v": 69
    },
    {
      "midi": 60,
      "hit": false,
      "t": 49815,
      "d": 1980,
      "v": 69
    },
    {
      "midi": 58,
      "hit": false,
      "t": 52745,
      "d": 1425,
      "v": 61
    },
    {
      "midi": 58,
      "hit": false,
      "t": 52745,
      "d": 1425,
      "v": 61
    },
    {
      "midi": 53,
      "hit": false,
      "t": 52760,
      "d": 1395,
      "v": 65
    },
    {
      "midi": 53,
      "hit": false,
      "t": 52760,
      "d": 1395,
      "v": 65
    },
    {
      "midi": 62,
      "hit": false,
      "t": 52780,
      "d": 1410,
      "v": 53
    },
    {
      "midi": 62,
      "hit": false,
      "t": 52780,
      "d": 1410,
      "v": 53
    },
    {
      "midi": 58,
      "hit": false,
      "t": 54535,
      "d": 2450,
      "v": 63
    },
    {
      "midi": 58,
      "hit": false,
      "t": 54535,
      "d": 2450,
      "v": 63
    },
    {
      "midi": 60,
      "hit": false,
      "t": 54550,
      "d": 2035,
      "v": 69
    },
    {
      "midi": 60,
      "hit": false,
      "t": 54550,
      "d": 2035,
      "v": 69
    },
    {
      "midi": 53,
      "hit": false,
      "t": 54560,
      "d": 2435,
      "v": 63
    },
    {
      "midi": 53,
      "hit": false,
      "t": 54560,
      "d": 2435,
      "v": 63
    },
    {
      "midi": 58,
      "hit": false,
      "t": 57565,
      "d": 1370,
      "v": 77
    },
    {
      "midi": 58,
      "hit": false,
      "t": 57565,
      "d": 1370,
      "v": 77
    },
    {
      "midi": 53,
      "hit": false,
      "t": 57570,
      "d": 1365,
      "v": 73
    },
    {
      "midi": 53,
      "hit": false,
      "t": 57570,
      "d": 1365,
      "v": 73
    },
    {
      "midi": 62,
      "hit": false,
      "t": 57585,
      "d": 1260,
      "v": 71
    },
    {
      "midi": 62,
      "hit": false,
      "t": 57585,
      "d": 1260,
      "v": 71
    },
    {
      "midi": 58,
      "hit": false,
      "t": 59355,
      "d": 2270,
      "v": 77
    },
    {
      "midi": 58,
      "hit": false,
      "t": 59355,
      "d": 2270,
      "v": 77
    },
    {
      "midi": 60,
      "hit": false,
      "t": 59375,
      "d": 2065,
      "v": 78
    },
    {
      "midi": 60,
      "hit": false,
      "t": 59375,
      "d": 2065,
      "v": 78
    },
    {
      "midi": 53,
      "hit": false,
      "t": 59385,
      "d": 2060,
      "v": 69
    },
    {
      "midi": 53,
      "hit": false,
      "t": 59385,
      "d": 2060,
      "v": 69
    },
    {
      "midi": 58,
      "hit": false,
      "t": 62320,
      "d": 1475,
      "v": 73
    },
    {
      "midi": 58,
      "hit": false,
      "t": 62320,
      "d": 1475,
      "v": 73
    },
    {
      "midi": 53,
      "hit": false,
      "t": 62335,
      "d": 1405,
      "v": 69
    },
    {
      "midi": 53,
      "hit": false,
      "t": 62335,
      "d": 1405,
      "v": 69
    },
    {
      "midi": 62,
      "hit": false,
      "t": 62340,
      "d": 1210,
      "v": 65
    },
    {
      "midi": 62,
      "hit": false,
      "t": 62340,
      "d": 1210,
      "v": 65
    },
    {
      "midi": 58,
      "hit": false,
      "t": 64150,
      "d": 2950,
      "v": 61
    },
    {
      "midi": 58,
      "hit": false,
      "t": 64150,
      "d": 2950,
      "v": 61
    },
    {
      "midi": 60,
      "hit": false,
      "t": 64165,
      "d": 2960,
      "v": 65
    },
    {
      "midi": 60,
      "hit": false,
      "t": 64165,
      "d": 2960,
      "v": 65
    },
    {
      "midi": 53,
      "hit": false,
      "t": 64175,
      "d": 2910,
      "v": 71
    },
    {
      "midi": 53,
      "hit": false,
      "t": 64175,
      "d": 2910,
      "v": 71
    },
    {
      "midi": 60,
      "hit": false,
      "t": 67175,
      "d": 1515,
      "v": 94
    },
    {
      "midi": 60,
      "hit": false,
      "t": 67175,
      "d": 1515,
      "v": 94
    },
    {
      "midi": 57,
      "hit": false,
      "t": 67185,
      "d": 1750,
      "v": 103
    },
    {
      "midi": 53,
      "hit": false,
      "t": 67185,
      "d": 1805,
      "v": 94
    },
    {
      "midi": 57,
      "hit": false,
      "t": 67185,
      "d": 1750,
      "v": 103
    },
    {
      "midi": 53,
      "hit": false,
      "t": 67185,
      "d": 1805,
      "v": 94
    },
    {
      "midi": 55,
      "hit": false,
      "t": 69595,
      "d": 635,
      "v": 94
    },
    {
      "midi": 55,
      "hit": false,
      "t": 69595,
      "d": 635,
      "v": 94
    },
    {
      "midi": 62,
      "hit": false,
      "t": 69600,
      "d": 645,
      "v": 76
    },
    {
      "midi": 58,
      "hit": false,
      "t": 69600,
      "d": 760,
      "v": 85
    },
    {
      "midi": 62,
      "hit": false,
      "t": 69600,
      "d": 645,
      "v": 76
    },
    {
      "midi": 58,
      "hit": false,
      "t": 69600,
      "d": 760,
      "v": 85
    },
    {
      "midi": 60,
      "hit": false,
      "t": 70830,
      "d": 340,
      "v": 87
    },
    {
      "midi": 60,
      "hit": false,
      "t": 70830,
      "d": 340,
      "v": 87
    },
    {
      "midi": 57,
      "hit": false,
      "t": 70835,
      "d": 340,
      "v": 98
    },
    {
      "midi": 57,
      "hit": false,
      "t": 70835,
      "d": 340,
      "v": 98
    },
    {
      "midi": 53,
      "hit": false,
      "t": 70840,
      "d": 450,
      "v": 98
    },
    {
      "midi": 53,
      "hit": false,
      "t": 70840,
      "d": 450,
      "v": 98
    },
    {
      "midi": 58,
      "hit": false,
      "t": 71975,
      "d": 1050,
      "v": 53
    },
    {
      "midi": 58,
      "hit": false,
      "t": 71975,
      "d": 1050,
      "v": 53
    },
    {
      "midi": 51,
      "hit": false,
      "t": 71980,
      "d": 1050,
      "v": 73
    },
    {
      "midi": 51,
      "hit": false,
      "t": 71980,
      "d": 1050,
      "v": 73
    },
    {
      "midi": 55,
      "hit": false,
      "t": 71985,
      "d": 1085,
      "v": 117
    },
    {
      "midi": 55,
      "hit": false,
      "t": 71985,
      "d": 1085,
      "v": 117
    },
    {
      "midi": 58,
      "hit": false,
      "t": 73775,
      "d": 2270,
      "v": 66
    },
    {
      "midi": 58,
      "hit": false,
      "t": 73775,
      "d": 2270,
      "v": 66
    },
    {
      "midi": 62,
      "hit": false,
      "t": 73785,
      "d": 2100,
      "v": 73
    },
    {
      "midi": 62,
      "hit": false,
      "t": 73785,
      "d": 2100,
      "v": 73
    },
    {
      "midi": 53,
      "hit": false,
      "t": 73790,
      "d": 2190,
      "v": 78
    },
    {
      "midi": 53,
      "hit": false,
      "t": 73790,
      "d": 2190,
      "v": 78
    },
    {
      "midi": 58,
      "hit": false,
      "t": 74970,
      "d": 565,
      "v": 114
    },
    {
      "midi": 63,
      "hit": false,
      "t": 74975,
      "d": 400,
      "v": 114
    },
    {
      "midi": 55,
      "hit": false,
      "t": 74980,
      "d": 410,
      "v": 123
    },
    {
      "midi": 58,
      "hit": false,
      "t": 75575,
      "d": 1025,
      "v": 57
    },
    {
      "midi": 62,
      "hit": false,
      "t": 75585,
      "d": 1055,
      "v": 123
    },
    {
      "midi": 53,
      "hit": false,
      "t": 75590,
      "d": 1085,
      "v": 114
    },
    {
      "midi": 58,
      "hit": false,
      "t": 76760,
      "d": 2135,
      "v": 90
    },
    {
      "midi": 58,
      "hit": false,
      "t": 76760,
      "d": 2135,
      "v": 90
    },
    {
      "midi": 63,
      "hit": false,
      "t": 76765,
      "d": 1900,
      "v": 81
    },
    {
      "midi": 63,
      "hit": false,
      "t": 76765,
      "d": 1900,
      "v": 81
    },
    {
      "midi": 55,
      "hit": false,
      "t": 76775,
      "d": 2130,
      "v": 87
    },
    {
      "midi": 55,
      "hit": false,
      "t": 76775,
      "d": 2130,
      "v": 87
    },
    {
      "midi": 62,
      "hit": false,
      "t": 79215,
      "d": 1835,
      "v": 81
    },
    {
      "midi": 62,
      "hit": false,
      "t": 79215,
      "d": 1835,
      "v": 81
    },
    {
      "midi": 58,
      "hit": false,
      "t": 79220,
      "d": 1980,
      "v": 85
    },
    {
      "midi": 58,
      "hit": false,
      "t": 79220,
      "d": 1980,
      "v": 85
    },
    {
      "midi": 53,
      "hit": false,
      "t": 79230,
      "d": 1940,
      "v": 73
    },
    {
      "midi": 53,
      "hit": false,
      "t": 79230,
      "d": 1940,
      "v": 73
    },
    {
      "midi": 60,
      "hit": false,
      "t": 81575,
      "d": 3655,
      "v": 71
    },
    {
      "midi": 60,
      "hit": false,
      "t": 81575,
      "d": 3655,
      "v": 71
    },
    {
      "midi": 57,
      "hit": false,
      "t": 81585,
      "d": 3675,
      "v": 91
    },
    {
      "midi": 57,
      "hit": false,
      "t": 81585,
      "d": 3675,
      "v": 91
    },
    {
      "midi": 53,
      "hit": false,
      "t": 81590,
      "d": 3715,
      "v": 69
    },
    {
      "midi": 53,
      "hit": false,
      "t": 81590,
      "d": 3715,
      "v": 69
    },
    {
      "midi": 58,
      "hit": false,
      "t": 84035,
      "d": 535,
      "v": 127
    },
    {
      "midi": 57,
      "hit": false,
      "t": 84595,
      "d": 625,
      "v": 127
    },
    {
      "midi": 53,
      "hit": false,
      "t": 85215,
      "d": 625,
      "v": 127
    },
    {
      "midi": 48,
      "hit": false,
      "t": 85790,
      "d": 695,
      "v": 127
    },
    {
      "midi": 58,
      "hit": false,
      "t": 86390,
      "d": 1275,
      "v": 77
    },
    {
      "midi": 58,
      "hit": false,
      "t": 86390,
      "d": 1275,
      "v": 77
    },
    {
      "midi": 53,
      "hit": false,
      "t": 86405,
      "d": 1410,
      "v": 98
    },
    {
      "midi": 53,
      "hit": false,
      "t": 86405,
      "d": 1410,
      "v": 98
    },
    {
      "midi": 50,
      "hit": false,
      "t": 86410,
      "d": 1455,
      "v": 87
    },
    {
      "midi": 50,
      "hit": false,
      "t": 86410,
      "d": 1455,
      "v": 87
    },
    {
      "midi": 51,
      "hit": false,
      "t": 88745,
      "d": 1630,
      "v": 70
    },
    {
      "midi": 51,
      "hit": false,
      "t": 88745,
      "d": 1630,
      "v": 70
    },
    {
      "midi": 55,
      "hit": false,
      "t": 88750,
      "d": 1545,
      "v": 94
    },
    {
      "midi": 55,
      "hit": false,
      "t": 88750,
      "d": 1545,
      "v": 94
    },
    {
      "midi": 48,
      "hit": false,
      "t": 88760,
      "d": 1585,
      "v": 94
    },
    {
      "midi": 48,
      "hit": false,
      "t": 88760,
      "d": 1585,
      "v": 94
    },
    {
      "midi": 58,
      "hit": false,
      "t": 91155,
      "d": 1545,
      "v": 66
    },
    {
      "midi": 58,
      "hit": false,
      "t": 91155,
      "d": 1545,
      "v": 66
    },
    {
      "midi": 50,
      "hit": false,
      "t": 91165,
      "d": 1445,
      "v": 84
    },
    {
      "midi": 50,
      "hit": false,
      "t": 91165,
      "d": 1445,
      "v": 84
    },
    {
      "midi": 53,
      "hit": false,
      "t": 91175,
      "d": 1480,
      "v": 94
    },
    {
      "midi": 53,
      "hit": false,
      "t": 91175,
      "d": 1480,
      "v": 94
    },
    {
      "midi": 58,
      "hit": false,
      "t": 93590,
      "d": 1275,
      "v": 47
    },
    {
      "midi": 58,
      "hit": false,
      "t": 93590,
      "d": 1275,
      "v": 47
    },
    {
      "midi": 51,
      "hit": false,
      "t": 93595,
      "d": 1195,
      "v": 70
    },
    {
      "midi": 51,
      "hit": false,
      "t": 93595,
      "d": 1195,
      "v": 70
    },
    {
      "midi": 55,
      "hit": false,
      "t": 93600,
      "d": 1165,
      "v": 112
    },
    {
      "midi": 55,
      "hit": false,
      "t": 93600,
      "d": 1165,
      "v": 112
    },
    {
      "midi": 60,
      "hit": false,
      "t": 95955,
      "d": 2635,
      "v": 63
    },
    {
      "midi": 60,
      "hit": false,
      "t": 95955,
      "d": 2635,
      "v": 63
    },
    {
      "midi": 57,
      "hit": false,
      "t": 95965,
      "d": 2635,
      "v": 63
    },
    {
      "midi": 57,
      "hit": false,
      "t": 95965,
      "d": 2635,
      "v": 63
    },
    {
      "midi": 53,
      "hit": false,
      "t": 95990,
      "d": 2595,
      "v": 67
    },
    {
      "midi": 53,
      "hit": false,
      "t": 95990,
      "d": 2595,
      "v": 67
    },
    {
      "midi": 62,
      "hit": false,
      "t": 100780,
      "d": 780,
      "v": 107
    },
    {
      "midi": 62,
      "hit": false,
      "t": 100780,
      "d": 780,
      "v": 107
    },
    {
      "midi": 58,
      "hit": false,
      "t": 100800,
      "d": 735,
      "v": 81
    },
    {
      "midi": 58,
      "hit": false,
      "t": 100800,
      "d": 735,
      "v": 81
    },
    {
      "midi": 53,
      "hit": false,
      "t": 100820,
      "d": 730,
      "v": 112
    },
    {
      "midi": 53,
      "hit": false,
      "t": 100820,
      "d": 730,
      "v": 112
    },
    {
      "midi": 60,
      "hit": false,
      "t": 101670,
      "d": 335,
      "v": 103
    },
    {
      "midi": 60,
      "hit": false,
      "t": 101670,
      "d": 335,
      "v": 103
    },
    {
      "midi": 57,
      "hit": false,
      "t": 101675,
      "d": 310,
      "v": 91
    },
    {
      "midi": 57,
      "hit": false,
      "t": 101675,
      "d": 310,
      "v": 91
    },
    {
      "midi": 53,
      "hit": false,
      "t": 101700,
      "d": 375,
      "v": 112
    },
    {
      "midi": 53,
      "hit": false,
      "t": 101700,
      "d": 375,
      "v": 112
    },
    {
      "midi": 62,
      "hit": false,
      "t": 101710,
      "d": 115,
      "v": 67
    },
    {
      "midi": 62,
      "hit": false,
      "t": 101710,
      "d": 115,
      "v": 67
    },
    {
      "midi": 57,
      "hit": false,
      "t": 102535,
      "d": 520,
      "v": 94
    },
    {
      "midi": 57,
      "hit": false,
      "t": 102535,
      "d": 520,
      "v": 94
    },
    {
      "midi": 60,
      "hit": false,
      "t": 102545,
      "d": 610,
      "v": 117
    },
    {
      "midi": 60,
      "hit": false,
      "t": 102545,
      "d": 610,
      "v": 117
    },
    {
      "midi": 53,
      "hit": false,
      "t": 102550,
      "d": 535,
      "v": 107
    },
    {
      "midi": 53,
      "hit": false,
      "t": 102550,
      "d": 535,
      "v": 107
    },
    {
      "midi": 62,
      "hit": false,
      "t": 103170,
      "d": 510,
      "v": 117
    },
    {
      "midi": 62,
      "hit": false,
      "t": 103170,
      "d": 510,
      "v": 117
    },
    {
      "midi": 58,
      "hit": false,
      "t": 103175,
      "d": 500,
      "v": 85
    },
    {
      "midi": 58,
      "hit": false,
      "t": 103175,
      "d": 500,
      "v": 85
    },
    {
      "midi": 53,
      "hit": false,
      "t": 103210,
      "d": 480,
      "v": 117
    },
    {
      "midi": 53,
      "hit": false,
      "t": 103210,
      "d": 480,
      "v": 117
    },
    {
      "midi": 63,
      "hit": false,
      "t": 105600,
      "d": 2840,
      "v": 100
    },
    {
      "midi": 58,
      "hit": false,
      "t": 105600,
      "d": 2860,
      "v": 94
    },
    {
      "midi": 55,
      "hit": false,
      "t": 105600,
      "d": 3125,
      "v": 117
    },
    {
      "midi": 51,
      "hit": false,
      "t": 105600,
      "d": 3230,
      "v": 94
    },
    {
      "midi": 63,
      "hit": false,
      "t": 105600,
      "d": 2840,
      "v": 100
    },
    {
      "midi": 58,
      "hit": false,
      "t": 105600,
      "d": 2860,
      "v": 94
    },
    {
      "midi": 55,
      "hit": false,
      "t": 105600,
      "d": 3125,
      "v": 117
    },
    {
      "midi": 51,
      "hit": false,
      "t": 105600,
      "d": 3230,
      "v": 94
    },
    {
      "midi": 58,
      "hit": false,
      "t": 109215,
      "d": 1095,
      "v": 66
    },
    {
      "midi": 58,
      "hit": false,
      "t": 109215,
      "d": 1095,
      "v": 66
    },
    {
      "midi": 53,
      "hit": false,
      "t": 109225,
      "d": 825,
      "v": 91
    },
    {
      "midi": 53,
      "hit": false,
      "t": 109225,
      "d": 825,
      "v": 91
    },
    {
      "midi": 62,
      "hit": false,
      "t": 109230,
      "d": 830,
      "v": 81
    },
    {
      "midi": 62,
      "hit": false,
      "t": 109230,
      "d": 830,
      "v": 81
    },
    {
      "midi": 50,
      "hit": false,
      "t": 109240,
      "d": 1220,
      "v": 94
    },
    {
      "midi": 50,
      "hit": false,
      "t": 109240,
      "d": 1220,
      "v": 94
    },
    {
      "midi": 60,
      "hit": false,
      "t": 110375,
      "d": 3465,
      "v": 76
    },
    {
      "midi": 60,
      "hit": false,
      "t": 110375,
      "d": 3465,
      "v": 76
    },
    {
      "midi": 63,
      "hit": false,
      "t": 110380,
      "d": 3425,
      "v": 90
    },
    {
      "midi": 63,
      "hit": false,
      "t": 110380,
      "d": 3425,
      "v": 90
    },
    {
      "midi": 55,
      "hit": false,
      "t": 110390,
      "d": 3595,
      "v": 84
    },
    {
      "midi": 48,
      "hit": false,
      "t": 110390,
      "d": 4720,
      "v": 87
    },
    {
      "midi": 55,
      "hit": false,
      "t": 110390,
      "d": 3595,
      "v": 84
    },
    {
      "midi": 48,
      "hit": false,
      "t": 110390,
      "d": 4720,
      "v": 87
    },
    {
      "midi": 58,
      "hit": false,
      "t": 115185,
      "d": 2095,
      "v": 85
    },
    {
      "midi": 58,
      "hit": false,
      "t": 115185,
      "d": 2095,
      "v": 85
    },
    {
      "midi": 62,
      "hit": false,
      "t": 115195,
      "d": 1875,
      "v": 84
    },
    {
      "midi": 62,
      "hit": false,
      "t": 115195,
      "d": 1875,
      "v": 84
    },
    {
      "midi": 53,
      "hit": false,
      "t": 115200,
      "d": 2025,
      "v": 91
    },
    {
      "midi": 53,
      "hit": false,
      "t": 115200,
      "d": 2025,
      "v": 91
    },
    {
      "midi": 46,
      "hit": false,
      "t": 115205,
      "d": 7520,
      "v": 90
    },
    {
      "midi": 46,
      "hit": false,
      "t": 115205,
      "d": 7520,
      "v": 90
    },
    {
      "midi": 63,
      "hit": false,
      "t": 117590,
      "d": 1750,
      "v": 81
    },
    {
      "midi": 63,
      "hit": false,
      "t": 117590,
      "d": 1750,
      "v": 81
    },
    {
      "midi": 55,
      "hit": false,
      "t": 117595,
      "d": 2040,
      "v": 91
    },
    {
      "midi": 55,
      "hit": false,
      "t": 117595,
      "d": 2040,
      "v": 91
    },
    {
      "midi": 58,
      "hit": false,
      "t": 117605,
      "d": 2055,
      "v": 73
    },
    {
      "midi": 58,
      "hit": false,
      "t": 117605,
      "d": 2055,
      "v": 73
    },
    {
      "midi": 58,
      "hit": false,
      "t": 119985,
      "d": 3045,
      "v": 85
    },
    {
      "midi": 58,
      "hit": false,
      "t": 119985,
      "d": 3045,
      "v": 85
    },
    {
      "midi": 62,
      "hit": false,
      "t": 119995,
      "d": 2725,
      "v": 94
    },
    {
      "midi": 62,
      "hit": false,
      "t": 119995,
      "d": 2725,
      "v": 94
    },
    {
      "midi": 53,
      "hit": false,
      "t": 120000,
      "d": 2670,
      "v": 91
    },
    {
      "midi": 53,
      "hit": false,
      "t": 120000,
      "d": 2670,
      "v": 91
    },
    {
      "midi": 62,
      "hit": false,
      "t": 123565,
      "d": 740,
      "v": 117
    },
    {
      "midi": 62,
      "hit": false,
      "t": 123565,
      "d": 740,
      "v": 117
    },
    {
      "midi": 58,
      "hit": false,
      "t": 123580,
      "d": 850,
      "v": 117
    },
    {
      "midi": 58,
      "hit": false,
      "t": 123580,
      "d": 850,
      "v": 117
    },
    {
      "midi": 53,
      "hit": false,
      "t": 123585,
      "d": 805,
      "v": 112
    },
    {
      "midi": 53,
      "hit": false,
      "t": 123585,
      "d": 805,
      "v": 112
    },
    {
      "midi": 38,
      "hit": false,
      "t": 123590,
      "d": 1320,
      "v": 117
    },
    {
      "midi": 38,
      "hit": false,
      "t": 123590,
      "d": 1320,
      "v": 117
    },
    {
      "midi": 58,
      "hit": false,
      "t": 124800,
      "d": 2645,
      "v": 90
    },
    {
      "midi": 58,
      "hit": false,
      "t": 124800,
      "d": 2645,
      "v": 90
    },
    {
      "midi": 55,
      "hit": false,
      "t": 124805,
      "d": 2755,
      "v": 103
    },
    {
      "midi": 55,
      "hit": false,
      "t": 124805,
      "d": 2755,
      "v": 103
    },
    {
      "midi": 63,
      "hit": false,
      "t": 124810,
      "d": 2645,
      "v": 94
    },
    {
      "midi": 63,
      "hit": false,
      "t": 124810,
      "d": 2645,
      "v": 94
    },
    {
      "midi": 39,
      "hit": false,
      "t": 124830,
      "d": 3580,
      "v": 90
    },
    {
      "midi": 39,
      "hit": false,
      "t": 124830,
      "d": 3580,
      "v": 90
    },
    {
      "midi": 61,
      "hit": false,
      "t": 124840,
      "d": 30,
      "v": 70
    },
    {
      "midi": 61,
      "hit": false,
      "t": 124840,
      "d": 30,
      "v": 70
    },
    {
      "midi": 58,
      "hit": false,
      "t": 128370,
      "d": 1290,
      "v": 81
    },
    {
      "midi": 58,
      "hit": false,
      "t": 128370,
      "d": 1290,
      "v": 81
    },
    {
      "midi": 62,
      "hit": false,
      "t": 128375,
      "d": 905,
      "v": 103
    },
    {
      "midi": 62,
      "hit": false,
      "t": 128375,
      "d": 905,
      "v": 103
    },
    {
      "midi": 53,
      "hit": false,
      "t": 128380,
      "d": 880,
      "v": 91
    },
    {
      "midi": 53,
      "hit": false,
      "t": 128380,
      "d": 880,
      "v": 91
    },
    {
      "midi": 38,
      "hit": false,
      "t": 128420,
      "d": 1280,
      "v": 73
    },
    {
      "midi": 38,
      "hit": false,
      "t": 128420,
      "d": 1280,
      "v": 73
    },
    {
      "midi": 60,
      "hit": false,
      "t": 129570,
      "d": 3625,
      "v": 69
    },
    {
      "midi": 60,
      "hit": false,
      "t": 129570,
      "d": 3625,
      "v": 69
    },
    {
      "midi": 63,
      "hit": false,
      "t": 129580,
      "d": 3560,
      "v": 90
    },
    {
      "midi": 63,
      "hit": false,
      "t": 129580,
      "d": 3560,
      "v": 90
    },
    {
      "midi": 36,
      "hit": false,
      "t": 129590,
      "d": 4810,
      "v": 71
    },
    {
      "midi": 36,
      "hit": false,
      "t": 129590,
      "d": 4810,
      "v": 71
    },
    {
      "midi": 55,
      "hit": false,
      "t": 129610,
      "d": 3645,
      "v": 67
    },
    {
      "midi": 55,
      "hit": false,
      "t": 129610,
      "d": 3645,
      "v": 67
    },
    {
      "midi": 53,
      "hit": false,
      "t": 134340,
      "d": 1980,
      "v": 78
    },
    {
      "midi": 53,
      "hit": false,
      "t": 134340,
      "d": 1980,
      "v": 78
    },
    {
      "midi": 57,
      "hit": false,
      "t": 134345,
      "d": 2015,
      "v": 98
    },
    {
      "midi": 57,
      "hit": false,
      "t": 134345,
      "d": 2015,
      "v": 98
    },
    {
      "midi": 60,
      "hit": false,
      "t": 134350,
      "d": 1820,
      "v": 98
    },
    {
      "midi": 60,
      "hit": false,
      "t": 134350,
      "d": 1820,
      "v": 98
    },
    {
      "midi": 41,
      "hit": false,
      "t": 134395,
      "d": 4580,
      "v": 91
    },
    {
      "midi": 41,
      "hit": false,
      "t": 134395,
      "d": 4580,
      "v": 91
    },
    {
      "midi": 58,
      "hit": false,
      "t": 136775,
      "d": 2070,
      "v": 90
    },
    {
      "midi": 58,
      "hit": false,
      "t": 136775,
      "d": 2070,
      "v": 90
    },
    {
      "midi": 62,
      "hit": false,
      "t": 136780,
      "d": 1815,
      "v": 76
    },
    {
      "midi": 62,
      "hit": false,
      "t": 136780,
      "d": 1815,
      "v": 76
    },
    {
      "midi": 53,
      "hit": false,
      "t": 136790,
      "d": 2010,
      "v": 84
    },
    {
      "midi": 53,
      "hit": false,
      "t": 136790,
      "d": 2010,
      "v": 84
    },
    {
      "midi": 60,
      "hit": false,
      "t": 139145,
      "d": 3195,
      "v": 73
    },
    {
      "midi": 60,
      "hit": false,
      "t": 139145,
      "d": 3195,
      "v": 73
    },
    {
      "midi": 53,
      "hit": false,
      "t": 139155,
      "d": 3240,
      "v": 71
    },
    {
      "midi": 53,
      "hit": false,
      "t": 139155,
      "d": 3240,
      "v": 71
    },
    {
      "midi": 57,
      "hit": false,
      "t": 139165,
      "d": 3235,
      "v": 94
    },
    {
      "midi": 57,
      "hit": false,
      "t": 139165,
      "d": 3235,
      "v": 94
    },
    {
      "midi": 41,
      "hit": false,
      "t": 139195,
      "d": 3530,
      "v": 76
    },
    {
      "midi": 41,
      "hit": false,
      "t": 139195,
      "d": 3530,
      "v": 76
    },
    {
      "midi": 38,
      "hit": false,
      "t": 142790,
      "d": 1400,
      "v": 117
    },
    {
      "midi": 38,
      "hit": false,
      "t": 142790,
      "d": 1400,
      "v": 117
    },
    {
      "midi": 58,
      "hit": false,
      "t": 142815,
      "d": 3140,
      "v": 117
    },
    {
      "midi": 58,
      "hit": false,
      "t": 142815,
      "d": 3140,
      "v": 117
    },
    {
      "midi": 62,
      "hit": false,
      "t": 142820,
      "d": 885,
      "v": 117
    },
    {
      "midi": 62,
      "hit": false,
      "t": 142820,
      "d": 885,
      "v": 117
    },
    {
      "midi": 53,
      "hit": false,
      "t": 142825,
      "d": 970,
      "v": 107
    },
    {
      "midi": 53,
      "hit": false,
      "t": 142825,
      "d": 970,
      "v": 107
    },
    {
      "midi": 63,
      "hit": false,
      "t": 144050,
      "d": 1895,
      "v": 94
    },
    {
      "midi": 63,
      "hit": false,
      "t": 144050,
      "d": 1895,
      "v": 94
    },
    {
      "midi": 55,
      "hit": false,
      "t": 144060,
      "d": 1855,
      "v": 84
    },
    {
      "midi": 55,
      "hit": false,
      "t": 144060,
      "d": 1855,
      "v": 84
    },
    {
      "midi": 39,
      "hit": false,
      "t": 144070,
      "d": 3685,
      "v": 94
    },
    {
      "midi": 39,
      "hit": false,
      "t": 144070,
      "d": 3685,
      "v": 94
    },
    {
      "midi": 63,
      "hit": false,
      "t": 146335,
      "d": 870,
      "v": 90
    },
    {
      "midi": 63,
      "hit": false,
      "t": 146335,
      "d": 870,
      "v": 90
    },
    {
      "midi": 58,
      "hit": false,
      "t": 146340,
      "d": 1080,
      "v": 85
    },
    {
      "midi": 58,
      "hit": false,
      "t": 146340,
      "d": 1080,
      "v": 85
    },
    {
      "midi": 55,
      "hit": false,
      "t": 146360,
      "d": 950,
      "v": 91
    },
    {
      "midi": 55,
      "hit": false,
      "t": 146360,
      "d": 950,
      "v": 91
    },
    {
      "midi": 58,
      "hit": false,
      "t": 147625,
      "d": 875,
      "v": 63
    },
    {
      "midi": 58,
      "hit": false,
      "t": 147625,
      "d": 875,
      "v": 63
    },
    {
      "midi": 62,
      "hit": false,
      "t": 147630,
      "d": 935,
      "v": 84
    },
    {
      "midi": 62,
      "hit": false,
      "t": 147630,
      "d": 935,
      "v": 84
    },
    {
      "midi": 53,
      "hit": false,
      "t": 147635,
      "d": 895,
      "v": 84
    },
    {
      "midi": 53,
      "hit": false,
      "t": 147635,
      "d": 895,
      "v": 84
    },
    {
      "midi": 38,
      "hit": false,
      "t": 147655,
      "d": 1360,
      "v": 73
    },
    {
      "midi": 38,
      "hit": false,
      "t": 147655,
      "d": 1360,
      "v": 73
    },
    {
      "midi": 55,
      "hit": false,
      "t": 148785,
      "d": 1625,
      "v": 73
    },
    {
      "midi": 55,
      "hit": false,
      "t": 148785,
      "d": 1625,
      "v": 73
    },
    {
      "midi": 63,
      "hit": false,
      "t": 148795,
      "d": 1595,
      "v": 81
    },
    {
      "midi": 63,
      "hit": false,
      "t": 148795,
      "d": 1595,
      "v": 81
    },
    {
      "midi": 60,
      "hit": false,
      "t": 148800,
      "d": 1670,
      "v": 73
    },
    {
      "midi": 60,
      "hit": false,
      "t": 148800,
      "d": 1670,
      "v": 73
    },
    {
      "midi": 36,
      "hit": false,
      "t": 148820,
      "d": 1430,
      "v": 78
    },
    {
      "midi": 36,
      "hit": false,
      "t": 148820,
      "d": 1430,
      "v": 78
    },
    {
      "midi": 36,
      "hit": false,
      "t": 150430,
      "d": 2335,
      "v": 73
    },
    {
      "midi": 36,
      "hit": false,
      "t": 150430,
      "d": 2335,
      "v": 73
    },
    {
      "midi": 63,
      "hit": false,
      "t": 150540,
      "d": 1560,
      "v": 77
    },
    {
      "midi": 63,
      "hit": false,
      "t": 150540,
      "d": 1560,
      "v": 77
    },
    {
      "midi": 55,
      "hit": false,
      "t": 150545,
      "d": 1495,
      "v": 94
    },
    {
      "midi": 55,
      "hit": false,
      "t": 150545,
      "d": 1495,
      "v": 94
    },
    {
      "midi": 60,
      "hit": false,
      "t": 150550,
      "d": 1605,
      "v": 84
    },
    {
      "midi": 60,
      "hit": false,
      "t": 150550,
      "d": 1605,
      "v": 84
    },
    {
      "midi": 63,
      "hit": false,
      "t": 152360,
      "d": 475,
      "v": 77
    },
    {
      "midi": 63,
      "hit": false,
      "t": 152360,
      "d": 475,
      "v": 77
    },
    {
      "midi": 60,
      "hit": false,
      "t": 152365,
      "d": 570,
      "v": 78
    },
    {
      "midi": 60,
      "hit": false,
      "t": 152365,
      "d": 570,
      "v": 78
    },
    {
      "midi": 55,
      "hit": false,
      "t": 152370,
      "d": 780,
      "v": 87
    },
    {
      "midi": 55,
      "hit": false,
      "t": 152370,
      "d": 780,
      "v": 87
    },
    {
      "midi": 53,
      "hit": false,
      "t": 153585,
      "d": 3160,
      "v": 91
    },
    {
      "midi": 53,
      "hit": false,
      "t": 153585,
      "d": 3160,
      "v": 91
    },
    {
      "midi": 58,
      "hit": false,
      "t": 153595,
      "d": 3140,
      "v": 61
    },
    {
      "midi": 58,
      "hit": false,
      "t": 153595,
      "d": 3140,
      "v": 61
    },
    {
      "midi": 46,
      "hit": false,
      "t": 153600,
      "d": 3650,
      "v": 53
    },
    {
      "midi": 46,
      "hit": false,
      "t": 153600,
      "d": 3650,
      "v": 53
    },
    {
      "midi": 62,
      "hit": false,
      "t": 153605,
      "d": 2995,
      "v": 73
    },
    {
      "midi": 62,
      "hit": false,
      "t": 153605,
      "d": 2995,
      "v": 73
    },
    {
      "midi": 62,
      "hit": false,
      "t": 157195,
      "d": 655,
      "v": 98
    },
    {
      "midi": 62,
      "hit": false,
      "t": 157195,
      "d": 655,
      "v": 98
    },
    {
      "midi": 53,
      "hit": false,
      "t": 157200,
      "d": 670,
      "v": 94
    },
    {
      "midi": 53,
      "hit": false,
      "t": 157200,
      "d": 670,
      "v": 94
    },
    {
      "midi": 58,
      "hit": false,
      "t": 157205,
      "d": 1060,
      "v": 85
    },
    {
      "midi": 58,
      "hit": false,
      "t": 157205,
      "d": 1060,
      "v": 85
    },
    {
      "midi": 38,
      "hit": false,
      "t": 157215,
      "d": 1345,
      "v": 91
    },
    {
      "midi": 38,
      "hit": false,
      "t": 157215,
      "d": 1345,
      "v": 91
    },
    {
      "midi": 58,
      "hit": false,
      "t": 158385,
      "d": 3500,
      "v": 55
    },
    {
      "midi": 58,
      "hit": false,
      "t": 158385,
      "d": 3500,
      "v": 55
    },
    {
      "midi": 63,
      "hit": false,
      "t": 158390,
      "d": 3250,
      "v": 81
    },
    {
      "midi": 63,
      "hit": false,
      "t": 158390,
      "d": 3250,
      "v": 81
    },
    {
      "midi": 55,
      "hit": false,
      "t": 158410,
      "d": 3485,
      "v": 76
    },
    {
      "midi": 55,
      "hit": false,
      "t": 158410,
      "d": 3485,
      "v": 76
    },
    {
      "midi": 39,
      "hit": false,
      "t": 158450,
      "d": 3450,
      "v": 63
    },
    {
      "midi": 39,
      "hit": false,
      "t": 158450,
      "d": 3450,
      "v": 63
    },
    {
      "midi": 62,
      "hit": false,
      "t": 163175,
      "d": 1370,
      "v": 94
    },
    {
      "midi": 62,
      "hit": false,
      "t": 163175,
      "d": 1370,
      "v": 94
    },
    {
      "midi": 58,
      "hit": false,
      "t": 163185,
      "d": 1455,
      "v": 81
    },
    {
      "midi": 58,
      "hit": false,
      "t": 163185,
      "d": 1455,
      "v": 81
    },
    {
      "midi": 53,
      "hit": false,
      "t": 163195,
      "d": 1525,
      "v": 84
    },
    {
      "midi": 53,
      "hit": false,
      "t": 163195,
      "d": 1525,
      "v": 84
    },
    {
      "midi": 34,
      "hit": false,
      "t": 163200,
      "d": 2485,
      "v": 81
    },
    {
      "midi": 34,
      "hit": false,
      "t": 163200,
      "d": 2485,
      "v": 81
    },
    {
      "midi": 60,
      "hit": false,
      "t": 165575,
      "d": 1625,
      "v": 84
    },
    {
      "midi": 60,
      "hit": false,
      "t": 165575,
      "d": 1625,
      "v": 84
    },
    {
      "midi": 55,
      "hit": false,
      "t": 165585,
      "d": 1685,
      "v": 112
    },
    {
      "midi": 55,
      "hit": false,
      "t": 165585,
      "d": 1685,
      "v": 112
    },
    {
      "midi": 51,
      "hit": false,
      "t": 165600,
      "d": 1610,
      "v": 77
    },
    {
      "midi": 51,
      "hit": false,
      "t": 165600,
      "d": 1610,
      "v": 77
    },
    {
      "midi": 36,
      "hit": false,
      "t": 165620,
      "d": 2510,
      "v": 76
    },
    {
      "midi": 36,
      "hit": false,
      "t": 165620,
      "d": 2510,
      "v": 76
    },
    {
      "midi": 62,
      "hit": false,
      "t": 167985,
      "d": 1605,
      "v": 81
    },
    {
      "midi": 62,
      "hit": false,
      "t": 167985,
      "d": 1605,
      "v": 81
    },
    {
      "midi": 58,
      "hit": false,
      "t": 167990,
      "d": 1580,
      "v": 81
    },
    {
      "midi": 58,
      "hit": false,
      "t": 167990,
      "d": 1580,
      "v": 81
    },
    {
      "midi": 53,
      "hit": false,
      "t": 167995,
      "d": 1915,
      "v": 87
    },
    {
      "midi": 53,
      "hit": false,
      "t": 167995,
      "d": 1915,
      "v": 87
    },
    {
      "midi": 38,
      "hit": false,
      "t": 168000,
      "d": 2465,
      "v": 91
    },
    {
      "midi": 38,
      "hit": false,
      "t": 168000,
      "d": 2465,
      "v": 91
    },
    {
      "midi": 63,
      "hit": false,
      "t": 170370,
      "d": 1610,
      "v": 85
    },
    {
      "midi": 63,
      "hit": false,
      "t": 170370,
      "d": 1610,
      "v": 85
    },
    {
      "midi": 58,
      "hit": false,
      "t": 170375,
      "d": 1610,
      "v": 81
    },
    {
      "midi": 58,
      "hit": false,
      "t": 170375,
      "d": 1610,
      "v": 81
    },
    {
      "midi": 39,
      "hit": false,
      "t": 170385,
      "d": 2195,
      "v": 81
    },
    {
      "midi": 39,
      "hit": false,
      "t": 170385,
      "d": 2195,
      "v": 81
    },
    {
      "midi": 55,
      "hit": false,
      "t": 170390,
      "d": 1770,
      "v": 87
    },
    {
      "midi": 55,
      "hit": false,
      "t": 170390,
      "d": 1770,
      "v": 87
    },
    {
      "midi": 60,
      "hit": false,
      "t": 172790,
      "d": 740,
      "v": 103
    },
    {
      "midi": 60,
      "hit": false,
      "t": 172790,
      "d": 740,
      "v": 103
    },
    {
      "midi": 57,
      "hit": false,
      "t": 172795,
      "d": 810,
      "v": 107
    },
    {
      "midi": 57,
      "hit": false,
      "t": 172795,
      "d": 810,
      "v": 107
    },
    {
      "midi": 53,
      "hit": false,
      "t": 172805,
      "d": 705,
      "v": 87
    },
    {
      "midi": 53,
      "hit": false,
      "t": 172805,
      "d": 705,
      "v": 87
    },
    {
      "midi": 41,
      "hit": false,
      "t": 172810,
      "d": 785,
      "v": 69
    },
    {
      "midi": 41,
      "hit": false,
      "t": 172810,
      "d": 785,
      "v": 69
    },
    {
      "midi": 62,
      "hit": false,
      "t": 173705,
      "d": 290,
      "v": 71
    },
    {
      "midi": 62,
      "hit": false,
      "t": 173705,
      "d": 290,
      "v": 71
    },
    {
      "midi": 53,
      "hit": false,
      "t": 173715,
      "d": 370,
      "v": 69
    },
    {
      "midi": 53,
      "hit": false,
      "t": 173715,
      "d": 370,
      "v": 69
    },
    {
      "midi": 58,
      "hit": false,
      "t": 173720,
      "d": 280,
      "v": 70
    },
    {
      "midi": 58,
      "hit": false,
      "t": 173720,
      "d": 280,
      "v": 70
    },
    {
      "midi": 41,
      "hit": false,
      "t": 173725,
      "d": 370,
      "v": 78
    },
    {
      "midi": 41,
      "hit": false,
      "t": 173725,
      "d": 370,
      "v": 78
    },
    {
      "midi": 60,
      "hit": false,
      "t": 174550,
      "d": 2735,
      "v": 60
    },
    {
      "midi": 60,
      "hit": false,
      "t": 174550,
      "d": 2735,
      "v": 60
    },
    {
      "midi": 57,
      "hit": false,
      "t": 174560,
      "d": 2740,
      "v": 76
    },
    {
      "midi": 57,
      "hit": false,
      "t": 174560,
      "d": 2740,
      "v": 76
    },
    {
      "midi": 53,
      "hit": false,
      "t": 174570,
      "d": 2675,
      "v": 65
    },
    {
      "midi": 53,
      "hit": false,
      "t": 174570,
      "d": 2675,
      "v": 65
    },
    {
      "midi": 41,
      "hit": false,
      "t": 174585,
      "d": 2685,
      "v": 81
    },
    {
      "midi": 41,
      "hit": false,
      "t": 174585,
      "d": 2685,
      "v": 81
    },
    {
      "midi": 46,
      "hit": false,
      "t": 177580,
      "d": 1945,
      "v": 81
    },
    {
      "midi": 46,
      "hit": false,
      "t": 177580,
      "d": 1945,
      "v": 81
    },
    {
      "midi": 58,
      "hit": false,
      "t": 177590,
      "d": 1630,
      "v": 73
    },
    {
      "midi": 58,
      "hit": false,
      "t": 177590,
      "d": 1630,
      "v": 73
    },
    {
      "midi": 53,
      "hit": false,
      "t": 177595,
      "d": 1560,
      "v": 78
    },
    {
      "midi": 53,
      "hit": false,
      "t": 177595,
      "d": 1560,
      "v": 78
    },
    {
      "midi": 62,
      "hit": false,
      "t": 177600,
      "d": 1525,
      "v": 58
    },
    {
      "midi": 62,
      "hit": false,
      "t": 177600,
      "d": 1525,
      "v": 58
    },
    {
      "midi": 58,
      "hit": false,
      "t": 179375,
      "d": 2765,
      "v": 21
    },
    {
      "midi": 58,
      "hit": false,
      "t": 179375,
      "d": 2765,
      "v": 21
    },
    {
      "midi": 53,
      "hit": false,
      "t": 179395,
      "d": 2690,
      "v": 69
    },
    {
      "midi": 53,
      "hit": false,
      "t": 179395,
      "d": 2690,
      "v": 69
    },
    {
      "midi": 60,
      "hit": false,
      "t": 179405,
      "d": 2705,
      "v": 67
    },
    {
      "midi": 60,
      "hit": false,
      "t": 179405,
      "d": 2705,
      "v": 67
    },
    {
      "midi": 43,
      "hit": false,
      "t": 179460,
      "d": 2890,
      "v": 67
    },
    {
      "midi": 43,
      "hit": false,
      "t": 179460,
      "d": 2890,
      "v": 67
    },
    {
      "midi": 72,
      "hit": false,
      "t": 182405,
      "d": 880,
      "v": 127
    },
    {
      "midi": 58,
      "hit": false,
      "t": 182405,
      "d": 1535,
      "v": 77
    },
    {
      "midi": 58,
      "hit": false,
      "t": 182405,
      "d": 1535,
      "v": 77
    },
    {
      "midi": 72,
      "hit": false,
      "t": 182410,
      "d": 1265,
      "v": 94
    },
    {
      "midi": 72,
      "hit": false,
      "t": 182410,
      "d": 1265,
      "v": 94
    },
    {
      "midi": 46,
      "hit": false,
      "t": 182420,
      "d": 1880,
      "v": 51
    },
    {
      "midi": 46,
      "hit": false,
      "t": 182420,
      "d": 1880,
      "v": 51
    },
    {
      "midi": 53,
      "hit": false,
      "t": 182425,
      "d": 1420,
      "v": 71
    },
    {
      "midi": 53,
      "hit": false,
      "t": 182425,
      "d": 1420,
      "v": 71
    },
    {
      "midi": 62,
      "hit": false,
      "t": 182430,
      "d": 1240,
      "v": 73
    },
    {
      "midi": 62,
      "hit": false,
      "t": 182430,
      "d": 1240,
      "v": 73
    },
    {
      "midi": 65,
      "hit": false,
      "t": 183270,
      "d": 895,
      "v": 127
    },
    {
      "midi": 65,
      "hit": false,
      "t": 183320,
      "d": 350,
      "v": 98
    },
    {
      "midi": 65,
      "hit": false,
      "t": 183320,
      "d": 350,
      "v": 98
    },
    {
      "midi": 70,
      "hit": false,
      "t": 184150,
      "d": 985,
      "v": 120
    },
    {
      "midi": 70,
      "hit": false,
      "t": 184175,
      "d": 950,
      "v": 100
    },
    {
      "midi": 70,
      "hit": false,
      "t": 184175,
      "d": 950,
      "v": 100
    },
    {
      "midi": 58,
      "hit": false,
      "t": 184200,
      "d": 2685,
      "v": 63
    },
    {
      "midi": 58,
      "hit": false,
      "t": 184200,
      "d": 2685,
      "v": 63
    },
    {
      "midi": 68,
      "hit": false,
      "t": 184205,
      "d": 45,
      "v": 73
    },
    {
      "midi": 68,
      "hit": false,
      "t": 184205,
      "d": 45,
      "v": 73
    },
    {
      "midi": 53,
      "hit": false,
      "t": 184210,
      "d": 2620,
      "v": 81
    },
    {
      "midi": 53,
      "hit": false,
      "t": 184210,
      "d": 2620,
      "v": 81
    },
    {
      "midi": 60,
      "hit": false,
      "t": 184215,
      "d": 2665,
      "v": 78
    },
    {
      "midi": 60,
      "hit": false,
      "t": 184215,
      "d": 2665,
      "v": 78
    },
    {
      "midi": 43,
      "hit": false,
      "t": 184235,
      "d": 2895,
      "v": 73
    },
    {
      "midi": 43,
      "hit": false,
      "t": 184235,
      "d": 2895,
      "v": 73
    },
    {
      "midi": 62,
      "hit": false,
      "t": 185155,
      "d": 430,
      "v": 73
    },
    {
      "midi": 62,
      "hit": false,
      "t": 185155,
      "d": 430,
      "v": 73
    },
    {
      "midi": 62,
      "hit": false,
      "t": 185190,
      "d": 800,
      "v": 127
    },
    {
      "midi": 67,
      "hit": false,
      "t": 185985,
      "d": 1280,
      "v": 127
    },
    {
      "midi": 67,
      "hit": false,
      "t": 186010,
      "d": 1260,
      "v": 94
    },
    {
      "midi": 67,
      "hit": false,
      "t": 186010,
      "d": 1260,
      "v": 94
    },
    {
      "midi": 46,
      "hit": false,
      "t": 187200,
      "d": 1810,
      "v": 94
    },
    {
      "midi": 46,
      "hit": false,
      "t": 187200,
      "d": 1810,
      "v": 94
    },
    {
      "midi": 65,
      "hit": false,
      "t": 187210,
      "d": 3615,
      "v": 104
    },
    {
      "midi": 58,
      "hit": false,
      "t": 187210,
      "d": 1550,
      "v": 94
    },
    {
      "midi": 58,
      "hit": false,
      "t": 187210,
      "d": 1550,
      "v": 94
    },
    {
      "midi": 62,
      "hit": false,
      "t": 187215,
      "d": 1390,
      "v": 87
    },
    {
      "midi": 62,
      "hit": false,
      "t": 187215,
      "d": 1390,
      "v": 87
    },
    {
      "midi": 53,
      "hit": false,
      "t": 187225,
      "d": 1455,
      "v": 87
    },
    {
      "midi": 53,
      "hit": false,
      "t": 187225,
      "d": 1455,
      "v": 87
    },
    {
      "midi": 53,
      "hit": false,
      "t": 189005,
      "d": 2685,
      "v": 91
    },
    {
      "midi": 53,
      "hit": false,
      "t": 189005,
      "d": 2685,
      "v": 91
    },
    {
      "midi": 60,
      "hit": false,
      "t": 189020,
      "d": 1875,
      "v": 107
    },
    {
      "midi": 60,
      "hit": false,
      "t": 189020,
      "d": 1875,
      "v": 107
    },
    {
      "midi": 43,
      "hit": false,
      "t": 189025,
      "d": 3020,
      "v": 78
    },
    {
      "midi": 43,
      "hit": false,
      "t": 189025,
      "d": 3020,
      "v": 78
    },
    {
      "midi": 58,
      "hit": false,
      "t": 190800,
      "d": 960,
      "v": 81
    },
    {
      "midi": 58,
      "hit": false,
      "t": 190800,
      "d": 960,
      "v": 81
    },
    {
      "midi": 46,
      "hit": false,
      "t": 191970,
      "d": 1925,
      "v": 85
    },
    {
      "midi": 46,
      "hit": false,
      "t": 191970,
      "d": 1925,
      "v": 85
    },
    {
      "midi": 58,
      "hit": false,
      "t": 191975,
      "d": 1470,
      "v": 100
    },
    {
      "midi": 58,
      "hit": false,
      "t": 191975,
      "d": 1470,
      "v": 100
    },
    {
      "midi": 62,
      "hit": false,
      "t": 191980,
      "d": 1310,
      "v": 91
    },
    {
      "midi": 62,
      "hit": false,
      "t": 191980,
      "d": 1310,
      "v": 91
    },
    {
      "midi": 53,
      "hit": false,
      "t": 191985,
      "d": 1415,
      "v": 81
    },
    {
      "midi": 53,
      "hit": false,
      "t": 191985,
      "d": 1415,
      "v": 81
    },
    {
      "midi": 53,
      "hit": false,
      "t": 193770,
      "d": 2840,
      "v": 103
    },
    {
      "midi": 53,
      "hit": false,
      "t": 193770,
      "d": 2840,
      "v": 103
    },
    {
      "midi": 60,
      "hit": false,
      "t": 193775,
      "d": 1935,
      "v": 112
    },
    {
      "midi": 60,
      "hit": false,
      "t": 193775,
      "d": 1935,
      "v": 112
    },
    {
      "midi": 43,
      "hit": false,
      "t": 193780,
      "d": 3165,
      "v": 81
    },
    {
      "midi": 43,
      "hit": false,
      "t": 193780,
      "d": 3165,
      "v": 81
    },
    {
      "midi": 58,
      "hit": false,
      "t": 193810,
      "d": 30,
      "v": 58
    },
    {
      "midi": 58,
      "hit": false,
      "t": 193810,
      "d": 30,
      "v": 58
    },
    {
      "midi": 58,
      "hit": false,
      "t": 195600,
      "d": 1060,
      "v": 94
    },
    {
      "midi": 58,
      "hit": false,
      "t": 195600,
      "d": 1060,
      "v": 94
    },
    {
      "midi": 58,
      "hit": false,
      "t": 196795,
      "d": 1500,
      "v": 70
    },
    {
      "midi": 58,
      "hit": false,
      "t": 196795,
      "d": 1500,
      "v": 70
    },
    {
      "midi": 53,
      "hit": false,
      "t": 196805,
      "d": 1475,
      "v": 87
    },
    {
      "midi": 53,
      "hit": false,
      "t": 196805,
      "d": 1475,
      "v": 87
    },
    {
      "midi": 62,
      "hit": false,
      "t": 196810,
      "d": 1380,
      "v": 91
    },
    {
      "midi": 62,
      "hit": false,
      "t": 196810,
      "d": 1380,
      "v": 91
    },
    {
      "midi": 46,
      "hit": false,
      "t": 196815,
      "d": 1945,
      "v": 85
    },
    {
      "midi": 46,
      "hit": false,
      "t": 196815,
      "d": 1945,
      "v": 85
    },
    {
      "midi": 53,
      "hit": false,
      "t": 198600,
      "d": 2700,
      "v": 91
    },
    {
      "midi": 53,
      "hit": false,
      "t": 198600,
      "d": 2700,
      "v": 91
    },
    {
      "midi": 60,
      "hit": false,
      "t": 198610,
      "d": 1735,
      "v": 91
    },
    {
      "midi": 60,
      "hit": false,
      "t": 198610,
      "d": 1735,
      "v": 91
    },
    {
      "midi": 58,
      "hit": false,
      "t": 198615,
      "d": 120,
      "v": 70
    },
    {
      "midi": 58,
      "hit": false,
      "t": 198615,
      "d": 120,
      "v": 70
    },
    {
      "midi": 43,
      "hit": false,
      "t": 198620,
      "d": 3080,
      "v": 81
    },
    {
      "midi": 43,
      "hit": false,
      "t": 198620,
      "d": 3080,
      "v": 81
    },
    {
      "midi": 58,
      "hit": false,
      "t": 200370,
      "d": 1040,
      "v": 81
    },
    {
      "midi": 58,
      "hit": false,
      "t": 200370,
      "d": 1040,
      "v": 81
    },
    {
      "midi": 46,
      "hit": false,
      "t": 201575,
      "d": 1940,
      "v": 81
    },
    {
      "midi": 46,
      "hit": false,
      "t": 201575,
      "d": 1940,
      "v": 81
    },
    {
      "midi": 58,
      "hit": false,
      "t": 201580,
      "d": 1660,
      "v": 70
    },
    {
      "midi": 58,
      "hit": false,
      "t": 201580,
      "d": 1660,
      "v": 70
    },
    {
      "midi": 62,
      "hit": false,
      "t": 201590,
      "d": 1420,
      "v": 78
    },
    {
      "midi": 62,
      "hit": false,
      "t": 201590,
      "d": 1420,
      "v": 78
    },
    {
      "midi": 53,
      "hit": false,
      "t": 201595,
      "d": 1535,
      "v": 84
    },
    {
      "midi": 53,
      "hit": false,
      "t": 201595,
      "d": 1535,
      "v": 84
    },
    {
      "midi": 43,
      "hit": false,
      "t": 203350,
      "d": 3225,
      "v": 84
    },
    {
      "midi": 43,
      "hit": false,
      "t": 203350,
      "d": 3225,
      "v": 84
    },
    {
      "midi": 60,
      "hit": false,
      "t": 203365,
      "d": 1935,
      "v": 84
    },
    {
      "midi": 53,
      "hit": false,
      "t": 203365,
      "d": 2725,
      "v": 78
    },
    {
      "midi": 60,
      "hit": false,
      "t": 203365,
      "d": 1935,
      "v": 84
    },
    {
      "midi": 53,
      "hit": false,
      "t": 203365,
      "d": 2725,
      "v": 78
    },
    {
      "midi": 58,
      "hit": false,
      "t": 205190,
      "d": 1055,
      "v": 85
    },
    {
      "midi": 58,
      "hit": false,
      "t": 205190,
      "d": 1055,
      "v": 85
    },
    {
      "midi": 58,
      "hit": false,
      "t": 206390,
      "d": 1600,
      "v": 63
    },
    {
      "midi": 58,
      "hit": false,
      "t": 206390,
      "d": 1600,
      "v": 63
    },
    {
      "midi": 62,
      "hit": false,
      "t": 206395,
      "d": 1430,
      "v": 81
    },
    {
      "midi": 62,
      "hit": false,
      "t": 206395,
      "d": 1430,
      "v": 81
    },
    {
      "midi": 53,
      "hit": false,
      "t": 206405,
      "d": 1520,
      "v": 81
    },
    {
      "midi": 53,
      "hit": false,
      "t": 206405,
      "d": 1520,
      "v": 81
    },
    {
      "midi": 46,
      "hit": false,
      "t": 206420,
      "d": 1905,
      "v": 81
    },
    {
      "midi": 46,
      "hit": false,
      "t": 206420,
      "d": 1905,
      "v": 81
    },
    {
      "midi": 60,
      "hit": false,
      "t": 208185,
      "d": 1910,
      "v": 78
    },
    {
      "midi": 60,
      "hit": false,
      "t": 208185,
      "d": 1910,
      "v": 78
    },
    {
      "midi": 53,
      "hit": false,
      "t": 208195,
      "d": 2690,
      "v": 81
    },
    {
      "midi": 53,
      "hit": false,
      "t": 208195,
      "d": 2690,
      "v": 81
    },
    {
      "midi": 43,
      "hit": false,
      "t": 208205,
      "d": 3080,
      "v": 87
    },
    {
      "midi": 43,
      "hit": false,
      "t": 208205,
      "d": 3080,
      "v": 87
    },
    {
      "midi": 58,
      "hit": false,
      "t": 208225,
      "d": 60,
      "v": 35
    },
    {
      "midi": 58,
      "hit": false,
      "t": 208225,
      "d": 60,
      "v": 35
    },
    {
      "midi": 58,
      "hit": false,
      "t": 209990,
      "d": 1050,
      "v": 94
    },
    {
      "midi": 58,
      "hit": false,
      "t": 209990,
      "d": 1050,
      "v": 94
    },
    {
      "midi": 58,
      "hit": false,
      "t": 211160,
      "d": 1635,
      "v": 61
    },
    {
      "midi": 58,
      "hit": false,
      "t": 211160,
      "d": 1635,
      "v": 61
    },
    {
      "midi": 62,
      "hit": false,
      "t": 211175,
      "d": 1365,
      "v": 81
    },
    {
      "midi": 62,
      "hit": false,
      "t": 211175,
      "d": 1365,
      "v": 81
    },
    {
      "midi": 46,
      "hit": false,
      "t": 211180,
      "d": 1935,
      "v": 90
    },
    {
      "midi": 46,
      "hit": false,
      "t": 211180,
      "d": 1935,
      "v": 90
    },
    {
      "midi": 53,
      "hit": false,
      "t": 211190,
      "d": 1505,
      "v": 87
    },
    {
      "midi": 53,
      "hit": false,
      "t": 211190,
      "d": 1505,
      "v": 87
    },
    {
      "midi": 60,
      "hit": false,
      "t": 212950,
      "d": 1810,
      "v": 76
    },
    {
      "midi": 60,
      "hit": false,
      "t": 212950,
      "d": 1810,
      "v": 76
    },
    {
      "midi": 53,
      "hit": false,
      "t": 212970,
      "d": 2780,
      "v": 76
    },
    {
      "midi": 53,
      "hit": false,
      "t": 212970,
      "d": 2780,
      "v": 76
    },
    {
      "midi": 58,
      "hit": false,
      "t": 212985,
      "d": 65,
      "v": 36
    },
    {
      "midi": 58,
      "hit": false,
      "t": 212985,
      "d": 65,
      "v": 36
    },
    {
      "midi": 43,
      "hit": false,
      "t": 212995,
      "d": 3095,
      "v": 87
    },
    {
      "midi": 43,
      "hit": false,
      "t": 212995,
      "d": 3095,
      "v": 87
    },
    {
      "midi": 58,
      "hit": false,
      "t": 214800,
      "d": 1105,
      "v": 85
    },
    {
      "midi": 58,
      "hit": false,
      "t": 214800,
      "d": 1105,
      "v": 85
    },
    {
      "midi": 58,
      "hit": false,
      "t": 215985,
      "d": 1600,
      "v": 63
    },
    {
      "midi": 58,
      "hit": false,
      "t": 215985,
      "d": 1600,
      "v": 63
    },
    {
      "midi": 62,
      "hit": false,
      "t": 215995,
      "d": 1385,
      "v": 84
    },
    {
      "midi": 62,
      "hit": false,
      "t": 215995,
      "d": 1385,
      "v": 84
    },
    {
      "midi": 46,
      "hit": false,
      "t": 216005,
      "d": 1905,
      "v": 94
    },
    {
      "midi": 46,
      "hit": false,
      "t": 216005,
      "d": 1905,
      "v": 94
    },
    {
      "midi": 53,
      "hit": false,
      "t": 216010,
      "d": 1490,
      "v": 87
    },
    {
      "midi": 53,
      "hit": false,
      "t": 216010,
      "d": 1490,
      "v": 87
    },
    {
      "midi": 60,
      "hit": false,
      "t": 217785,
      "d": 1930,
      "v": 94
    },
    {
      "midi": 60,
      "hit": false,
      "t": 217785,
      "d": 1930,
      "v": 94
    },
    {
      "midi": 53,
      "hit": false,
      "t": 217790,
      "d": 2685,
      "v": 91
    },
    {
      "midi": 53,
      "hit": false,
      "t": 217790,
      "d": 2685,
      "v": 91
    },
    {
      "midi": 43,
      "hit": false,
      "t": 217800,
      "d": 3095,
      "v": 87
    },
    {
      "midi": 43,
      "hit": false,
      "t": 217800,
      "d": 3095,
      "v": 87
    },
    {
      "midi": 58,
      "hit": false,
      "t": 217815,
      "d": 55,
      "v": 55
    },
    {
      "midi": 58,
      "hit": false,
      "t": 217815,
      "d": 55,
      "v": 55
    },
    {
      "midi": 58,
      "hit": false,
      "t": 219575,
      "d": 1010,
      "v": 100
    },
    {
      "midi": 58,
      "hit": false,
      "t": 219575,
      "d": 1010,
      "v": 100
    },
    {
      "midi": 62,
      "hit": false,
      "t": 220745,
      "d": 1485,
      "v": 78
    },
    {
      "midi": 62,
      "hit": false,
      "t": 220745,
      "d": 1485,
      "v": 78
    },
    {
      "midi": 46,
      "hit": false,
      "t": 220755,
      "d": 1955,
      "v": 85
    },
    {
      "midi": 46,
      "hit": false,
      "t": 220755,
      "d": 1955,
      "v": 85
    },
    {
      "midi": 58,
      "hit": false,
      "t": 220765,
      "d": 1635,
      "v": 66
    },
    {
      "midi": 58,
      "hit": false,
      "t": 220765,
      "d": 1635,
      "v": 66
    },
    {
      "midi": 53,
      "hit": false,
      "t": 220770,
      "d": 1590,
      "v": 78
    },
    {
      "midi": 53,
      "hit": false,
      "t": 220770,
      "d": 1590,
      "v": 78
    },
    {
      "midi": 60,
      "hit": false,
      "t": 222560,
      "d": 1935,
      "v": 87
    },
    {
      "midi": 60,
      "hit": false,
      "t": 222560,
      "d": 1935,
      "v": 87
    },
    {
      "midi": 53,
      "hit": false,
      "t": 222570,
      "d": 1625,
      "v": 73
    },
    {
      "midi": 53,
      "hit": false,
      "t": 222570,
      "d": 1625,
      "v": 73
    },
    {
      "midi": 43,
      "hit": false,
      "t": 222575,
      "d": 3005,
      "v": 78
    },
    {
      "midi": 43,
      "hit": false,
      "t": 222575,
      "d": 3005,
      "v": 78
    },
    {
      "midi": 58,
      "hit": false,
      "t": 222610,
      "d": 50,
      "v": 34
    },
    {
      "midi": 58,
      "hit": false,
      "t": 222610,
      "d": 50,
      "v": 34
    },
    {
      "midi": 58,
      "hit": false,
      "t": 224415,
      "d": 1185,
      "v": 81
    },
    {
      "midi": 58,
      "hit": false,
      "t": 224415,
      "d": 1185,
      "v": 81
    },
    {
      "midi": 60,
      "hit": false,
      "t": 225590,
      "d": 1505,
      "v": 112
    },
    {
      "midi": 60,
      "hit": false,
      "t": 225590,
      "d": 1505,
      "v": 112
    },
    {
      "midi": 57,
      "hit": false,
      "t": 225595,
      "d": 1900,
      "v": 117
    },
    {
      "midi": 57,
      "hit": false,
      "t": 225595,
      "d": 1900,
      "v": 117
    },
    {
      "midi": 53,
      "hit": false,
      "t": 225600,
      "d": 1830,
      "v": 103
    },
    {
      "midi": 53,
      "hit": false,
      "t": 225600,
      "d": 1830,
      "v": 103
    },
    {
      "midi": 41,
      "hit": false,
      "t": 225605,
      "d": 2295,
      "v": 112
    },
    {
      "midi": 41,
      "hit": false,
      "t": 225605,
      "d": 2295,
      "v": 112
    },
    {
      "midi": 62,
      "hit": false,
      "t": 227995,
      "d": 750,
      "v": 91
    },
    {
      "midi": 62,
      "hit": false,
      "t": 227995,
      "d": 750,
      "v": 91
    },
    {
      "midi": 58,
      "hit": false,
      "t": 228000,
      "d": 925,
      "v": 100
    },
    {
      "midi": 58,
      "hit": false,
      "t": 228000,
      "d": 925,
      "v": 100
    },
    {
      "midi": 55,
      "hit": false,
      "t": 228005,
      "d": 865,
      "v": 112
    },
    {
      "midi": 55,
      "hit": false,
      "t": 228005,
      "d": 865,
      "v": 112
    },
    {
      "midi": 43,
      "hit": false,
      "t": 228010,
      "d": 1285,
      "v": 117
    },
    {
      "midi": 43,
      "hit": false,
      "t": 228010,
      "d": 1285,
      "v": 117
    },
    {
      "midi": 60,
      "hit": false,
      "t": 229205,
      "d": 390,
      "v": 107
    },
    {
      "midi": 60,
      "hit": false,
      "t": 229205,
      "d": 390,
      "v": 107
    },
    {
      "midi": 57,
      "hit": false,
      "t": 229210,
      "d": 390,
      "v": 112
    },
    {
      "midi": 57,
      "hit": false,
      "t": 229210,
      "d": 390,
      "v": 112
    },
    {
      "midi": 53,
      "hit": false,
      "t": 229215,
      "d": 540,
      "v": 94
    },
    {
      "midi": 53,
      "hit": false,
      "t": 229215,
      "d": 540,
      "v": 94
    },
    {
      "midi": 41,
      "hit": false,
      "t": 229240,
      "d": 1185,
      "v": 91
    },
    {
      "midi": 41,
      "hit": false,
      "t": 229240,
      "d": 1185,
      "v": 91
    },
    {
      "midi": 58,
      "hit": false,
      "t": 229245,
      "d": 25,
      "v": 49
    },
    {
      "midi": 58,
      "hit": false,
      "t": 229245,
      "d": 25,
      "v": 49
    },
    {
      "midi": 58,
      "hit": false,
      "t": 230380,
      "d": 1340,
      "v": 70
    },
    {
      "midi": 58,
      "hit": false,
      "t": 230380,
      "d": 1340,
      "v": 70
    },
    {
      "midi": 55,
      "hit": false,
      "t": 230395,
      "d": 1420,
      "v": 117
    },
    {
      "midi": 55,
      "hit": false,
      "t": 230395,
      "d": 1420,
      "v": 117
    },
    {
      "midi": 51,
      "hit": false,
      "t": 230400,
      "d": 1330,
      "v": 94
    },
    {
      "midi": 51,
      "hit": false,
      "t": 230400,
      "d": 1330,
      "v": 94
    },
    {
      "midi": 39,
      "hit": false,
      "t": 230435,
      "d": 2130,
      "v": 94
    },
    {
      "midi": 39,
      "hit": false,
      "t": 230435,
      "d": 2130,
      "v": 94
    },
    {
      "midi": 62,
      "hit": false,
      "t": 232760,
      "d": 1400,
      "v": 81
    },
    {
      "midi": 62,
      "hit": false,
      "t": 232760,
      "d": 1400,
      "v": 81
    },
    {
      "midi": 58,
      "hit": false,
      "t": 232770,
      "d": 1565,
      "v": 90
    },
    {
      "midi": 58,
      "hit": false,
      "t": 232770,
      "d": 1565,
      "v": 90
    },
    {
      "midi": 53,
      "hit": false,
      "t": 232780,
      "d": 1510,
      "v": 91
    },
    {
      "midi": 53,
      "hit": false,
      "t": 232780,
      "d": 1510,
      "v": 91
    },
    {
      "midi": 46,
      "hit": false,
      "t": 232800,
      "d": 2470,
      "v": 90
    },
    {
      "midi": 46,
      "hit": false,
      "t": 232800,
      "d": 2470,
      "v": 90
    },
    {
      "midi": 58,
      "hit": false,
      "t": 233370,
      "d": 565,
      "v": 114
    },
    {
      "midi": 63,
      "hit": false,
      "t": 233375,
      "d": 400,
      "v": 114
    },
    {
      "midi": 55,
      "hit": false,
      "t": 233380,
      "d": 410,
      "v": 123
    },
    {
      "midi": 58,
      "hit": false,
      "t": 233975,
      "d": 1025,
      "v": 57
    },
    {
      "midi": 62,
      "hit": false,
      "t": 233985,
      "d": 1055,
      "v": 123
    },
    {
      "midi": 53,
      "hit": false,
      "t": 233990,
      "d": 1085,
      "v": 114
    },
    {
      "midi": 58,
      "hit": false,
      "t": 235190,
      "d": 1560,
      "v": 73
    },
    {
      "midi": 58,
      "hit": false,
      "t": 235190,
      "d": 1560,
      "v": 73
    },
    {
      "midi": 55,
      "hit": false,
      "t": 235200,
      "d": 1555,
      "v": 117
    },
    {
      "midi": 55,
      "hit": false,
      "t": 235200,
      "d": 1555,
      "v": 117
    },
    {
      "midi": 51,
      "hit": false,
      "t": 235205,
      "d": 1490,
      "v": 90
    },
    {
      "midi": 51,
      "hit": false,
      "t": 235205,
      "d": 1490,
      "v": 90
    },
    {
      "midi": 39,
      "hit": false,
      "t": 235210,
      "d": 2435,
      "v": 100
    },
    {
      "midi": 39,
      "hit": false,
      "t": 235210,
      "d": 2435,
      "v": 100
    },
    {
      "midi": 58,
      "hit": false,
      "t": 237575,
      "d": 2075,
      "v": 94
    },
    {
      "midi": 58,
      "hit": false,
      "t": 237575,
      "d": 2075,
      "v": 94
    },
    {
      "midi": 62,
      "hit": false,
      "t": 237585,
      "d": 1910,
      "v": 91
    },
    {
      "midi": 62,
      "hit": false,
      "t": 237585,
      "d": 1910,
      "v": 91
    },
    {
      "midi": 38,
      "hit": false,
      "t": 237590,
      "d": 2510,
      "v": 98
    },
    {
      "midi": 38,
      "hit": false,
      "t": 237590,
      "d": 2510,
      "v": 98
    },
    {
      "midi": 53,
      "hit": false,
      "t": 237595,
      "d": 2000,
      "v": 94
    },
    {
      "midi": 53,
      "hit": false,
      "t": 237595,
      "d": 2000,
      "v": 94
    },
    {
      "midi": 60,
      "hit": false,
      "t": 239990,
      "d": 1540,
      "v": 98
    },
    {
      "midi": 60,
      "hit": false,
      "t": 239990,
      "d": 1540,
      "v": 98
    },
    {
      "midi": 53,
      "hit": false,
      "t": 240000,
      "d": 1545,
      "v": 91
    },
    {
      "midi": 53,
      "hit": false,
      "t": 240000,
      "d": 1545,
      "v": 91
    },
    {
      "midi": 57,
      "hit": false,
      "t": 240005,
      "d": 1545,
      "v": 112
    },
    {
      "midi": 57,
      "hit": false,
      "t": 240005,
      "d": 1545,
      "v": 112
    },
    {
      "midi": 41,
      "hit": false,
      "t": 240010,
      "d": 1430,
      "v": 117
    },
    {
      "midi": 41,
      "hit": false,
      "t": 240010,
      "d": 1430,
      "v": 117
    },
    {
      "midi": 41,
      "hit": false,
      "t": 241580,
      "d": 2785,
      "v": 94
    },
    {
      "midi": 41,
      "hit": false,
      "t": 241580,
      "d": 2785,
      "v": 94
    },
    {
      "midi": 60,
      "hit": false,
      "t": 241770,
      "d": 1590,
      "v": 91
    },
    {
      "midi": 60,
      "hit": false,
      "t": 241770,
      "d": 1590,
      "v": 91
    },
    {
      "midi": 57,
      "hit": false,
      "t": 241775,
      "d": 1565,
      "v": 98
    },
    {
      "midi": 57,
      "hit": false,
      "t": 241775,
      "d": 1565,
      "v": 98
    },
    {
      "midi": 53,
      "hit": false,
      "t": 241780,
      "d": 1485,
      "v": 91
    },
    {
      "midi": 53,
      "hit": false,
      "t": 241780,
      "d": 1485,
      "v": 91
    },
    {
      "midi": 58,
      "hit": false,
      "t": 242435,
      "d": 535,
      "v": 127
    },
    {
      "midi": 57,
      "hit": false,
      "t": 242995,
      "d": 625,
      "v": 127
    },
    {
      "midi": 60,
      "hit": false,
      "t": 243585,
      "d": 605,
      "v": 87
    },
    {
      "midi": 60,
      "hit": false,
      "t": 243585,
      "d": 605,
      "v": 87
    },
    {
      "midi": 57,
      "hit": false,
      "t": 243590,
      "d": 630,
      "v": 107
    },
    {
      "midi": 57,
      "hit": false,
      "t": 243590,
      "d": 630,
      "v": 107
    },
    {
      "midi": 53,
      "hit": false,
      "t": 243595,
      "d": 380,
      "v": 103
    },
    {
      "midi": 53,
      "hit": false,
      "t": 243595,
      "d": 380,
      "v": 103
    },
    {
      "midi": 53,
      "hit": false,
      "t": 243615,
      "d": 625,
      "v": 127
    },
    {
      "midi": 48,
      "hit": false,
      "t": 244190,
      "d": 695,
      "v": 127
    },
    {
      "midi": 53,
      "hit": false,
      "t": 244245,
      "d": 270,
      "v": 61
    },
    {
      "midi": 53,
      "hit": false,
      "t": 244245,
      "d": 270,
      "v": 61
    },
    {
      "midi": 62,
      "hit": false,
      "t": 244810,
      "d": 1300,
      "v": 103
    },
    {
      "midi": 62,
      "hit": false,
      "t": 244810,
      "d": 1300,
      "v": 103
    },
    {
      "midi": 58,
      "hit": false,
      "t": 244815,
      "d": 1440,
      "v": 117
    },
    {
      "midi": 58,
      "hit": false,
      "t": 244815,
      "d": 1440,
      "v": 117
    },
    {
      "midi": 53,
      "hit": false,
      "t": 244825,
      "d": 1465,
      "v": 98
    },
    {
      "midi": 34,
      "hit": false,
      "t": 244825,
      "d": 2310,
      "v": 90
    },
    {
      "midi": 53,
      "hit": false,
      "t": 244825,
      "d": 1465,
      "v": 98
    },
    {
      "midi": 34,
      "hit": false,
      "t": 244825,
      "d": 2310,
      "v": 90
    },
    {
      "midi": 60,
      "hit": false,
      "t": 247145,
      "d": 1510,
      "v": 107
    },
    {
      "midi": 60,
      "hit": false,
      "t": 247145,
      "d": 1510,
      "v": 107
    },
    {
      "midi": 51,
      "hit": false,
      "t": 247160,
      "d": 1570,
      "v": 90
    },
    {
      "midi": 51,
      "hit": false,
      "t": 247160,
      "d": 1570,
      "v": 90
    },
    {
      "midi": 55,
      "hit": false,
      "t": 247165,
      "d": 1545,
      "v": 117
    },
    {
      "midi": 55,
      "hit": false,
      "t": 247165,
      "d": 1545,
      "v": 117
    },
    {
      "midi": 36,
      "hit": false,
      "t": 247185,
      "d": 2510,
      "v": 107
    },
    {
      "midi": 36,
      "hit": false,
      "t": 247185,
      "d": 2510,
      "v": 107
    },
    {
      "midi": 34,
      "hit": false,
      "t": 247190,
      "d": 125,
      "v": 27
    },
    {
      "midi": 34,
      "hit": false,
      "t": 247190,
      "d": 125,
      "v": 27
    },
    {
      "midi": 38,
      "hit": false,
      "t": 249575,
      "d": 2385,
      "v": 117
    },
    {
      "midi": 38,
      "hit": false,
      "t": 249575,
      "d": 2385,
      "v": 117
    },
    {
      "midi": 62,
      "hit": false,
      "t": 249580,
      "d": 1510,
      "v": 94
    },
    {
      "midi": 62,
      "hit": false,
      "t": 249580,
      "d": 1510,
      "v": 94
    },
    {
      "midi": 58,
      "hit": false,
      "t": 249585,
      "d": 1685,
      "v": 100
    },
    {
      "midi": 58,
      "hit": false,
      "t": 249585,
      "d": 1685,
      "v": 100
    },
    {
      "midi": 53,
      "hit": false,
      "t": 249595,
      "d": 1650,
      "v": 94
    },
    {
      "midi": 53,
      "hit": false,
      "t": 249595,
      "d": 1650,
      "v": 94
    },
    {
      "midi": 39,
      "hit": false,
      "t": 252000,
      "d": 2215,
      "v": 100
    },
    {
      "midi": 39,
      "hit": false,
      "t": 252000,
      "d": 2215,
      "v": 100
    },
    {
      "midi": 51,
      "hit": false,
      "t": 252005,
      "d": 1470,
      "v": 90
    },
    {
      "midi": 51,
      "hit": false,
      "t": 252005,
      "d": 1470,
      "v": 90
    },
    {
      "midi": 58,
      "hit": false,
      "t": 252010,
      "d": 1475,
      "v": 77
    },
    {
      "midi": 58,
      "hit": false,
      "t": 252010,
      "d": 1475,
      "v": 77
    },
    {
      "midi": 55,
      "hit": false,
      "t": 252020,
      "d": 1410,
      "v": 117
    },
    {
      "midi": 55,
      "hit": false,
      "t": 252020,
      "d": 1410,
      "v": 117
    },
    {
      "midi": 60,
      "hit": false,
      "t": 254435,
      "d": 2520,
      "v": 78
    },
    {
      "midi": 60,
      "hit": false,
      "t": 254435,
      "d": 2520,
      "v": 78
    },
    {
      "midi": 57,
      "hit": false,
      "t": 254445,
      "d": 2485,
      "v": 94
    },
    {
      "midi": 57,
      "hit": false,
      "t": 254445,
      "d": 2485,
      "v": 94
    },
    {
      "midi": 53,
      "hit": false,
      "t": 254450,
      "d": 2500,
      "v": 81
    },
    {
      "midi": 53,
      "hit": false,
      "t": 254450,
      "d": 2500,
      "v": 81
    },
    {
      "midi": 41,
      "hit": false,
      "t": 254480,
      "d": 2465,
      "v": 67
    },
    {
      "midi": 41,
      "hit": false,
      "t": 254480,
      "d": 2465,
      "v": 67
    },
    {
      "midi": 58,
      "hit": false,
      "t": 259140,
      "d": 735,
      "v": 100
    },
    {
      "midi": 58,
      "hit": false,
      "t": 259140,
      "d": 735,
      "v": 100
    },
    {
      "midi": 62,
      "hit": false,
      "t": 259150,
      "d": 635,
      "v": 91
    },
    {
      "midi": 62,
      "hit": false,
      "t": 259150,
      "d": 635,
      "v": 91
    },
    {
      "midi": 46,
      "hit": false,
      "t": 259155,
      "d": 740,
      "v": 100
    },
    {
      "midi": 46,
      "hit": false,
      "t": 259155,
      "d": 740,
      "v": 100
    },
    {
      "midi": 53,
      "hit": false,
      "t": 259160,
      "d": 670,
      "v": 98
    },
    {
      "midi": 53,
      "hit": false,
      "t": 259160,
      "d": 670,
      "v": 98
    },
    {
      "midi": 53,
      "hit": false,
      "t": 260020,
      "d": 605,
      "v": 98
    },
    {
      "midi": 53,
      "hit": false,
      "t": 260020,
      "d": 605,
      "v": 98
    },
    {
      "midi": 62,
      "hit": false,
      "t": 260030,
      "d": 570,
      "v": 94
    },
    {
      "midi": 62,
      "hit": false,
      "t": 260030,
      "d": 570,
      "v": 94
    },
    {
      "midi": 58,
      "hit": false,
      "t": 260035,
      "d": 725,
      "v": 90
    },
    {
      "midi": 58,
      "hit": false,
      "t": 260035,
      "d": 725,
      "v": 90
    },
    {
      "midi": 46,
      "hit": false,
      "t": 260065,
      "d": 465,
      "v": 100
    },
    {
      "midi": 46,
      "hit": false,
      "t": 260065,
      "d": 465,
      "v": 100
    },
    {
      "midi": 46,
      "hit": false,
      "t": 260635,
      "d": 240,
      "v": 73
    },
    {
      "midi": 46,
      "hit": false,
      "t": 260635,
      "d": 240,
      "v": 73
    },
    {
      "midi": 41,
      "hit": false,
      "t": 260815,
      "d": 760,
      "v": 91
    },
    {
      "midi": 41,
      "hit": false,
      "t": 260815,
      "d": 760,
      "v": 91
    },
    {
      "midi": 53,
      "hit": false,
      "t": 260915,
      "d": 475,
      "v": 84
    },
    {
      "midi": 53,
      "hit": false,
      "t": 260915,
      "d": 475,
      "v": 84
    },
    {
      "midi": 60,
      "hit": false,
      "t": 260925,
      "d": 530,
      "v": 107
    },
    {
      "midi": 60,
      "hit": false,
      "t": 260925,
      "d": 530,
      "v": 107
    },
    {
      "midi": 57,
      "hit": false,
      "t": 260930,
      "d": 520,
      "v": 112
    },
    {
      "midi": 57,
      "hit": false,
      "t": 260930,
      "d": 520,
      "v": 112
    },
    {
      "midi": 62,
      "hit": false,
      "t": 261560,
      "d": 400,
      "v": 98
    },
    {
      "midi": 62,
      "hit": false,
      "t": 261560,
      "d": 400,
      "v": 98
    },
    {
      "midi": 58,
      "hit": false,
      "t": 261565,
      "d": 490,
      "v": 94
    },
    {
      "midi": 58,
      "hit": false,
      "t": 261565,
      "d": 490,
      "v": 94
    },
    {
      "midi": 53,
      "hit": false,
      "t": 261570,
      "d": 515,
      "v": 107
    },
    {
      "midi": 53,
      "hit": false,
      "t": 261570,
      "d": 515,
      "v": 107
    },
    {
      "midi": 46,
      "hit": false,
      "t": 261590,
      "d": 410,
      "v": 100
    },
    {
      "midi": 46,
      "hit": false,
      "t": 261590,
      "d": 410,
      "v": 100
    },
    {
      "midi": 60,
      "hit": false,
      "t": 261595,
      "d": 80,
      "v": 98
    },
    {
      "midi": 60,
      "hit": false,
      "t": 261595,
      "d": 80,
      "v": 98
    },
    {
      "midi": 38,
      "hit": false,
      "t": 262800,
      "d": 1190,
      "v": 117
    },
    {
      "midi": 38,
      "hit": false,
      "t": 262800,
      "d": 1190,
      "v": 117
    },
    {
      "midi": 62,
      "hit": false,
      "t": 262810,
      "d": 1200,
      "v": 107
    },
    {
      "midi": 62,
      "hit": false,
      "t": 262810,
      "d": 1200,
      "v": 107
    },
    {
      "midi": 53,
      "hit": false,
      "t": 262825,
      "d": 1245,
      "v": 112
    },
    {
      "midi": 53,
      "hit": false,
      "t": 262825,
      "d": 1245,
      "v": 112
    },
    {
      "midi": 58,
      "hit": false,
      "t": 264000,
      "d": 60,
      "v": 94
    },
    {
      "midi": 63,
      "hit": false,
      "t": 264000,
      "d": 2840,
      "v": 100
    },
    {
      "midi": 55,
      "hit": false,
      "t": 264000,
      "d": 3125,
      "v": 117
    },
    {
      "midi": 51,
      "hit": false,
      "t": 264000,
      "d": 3230,
      "v": 94
    },
    {
      "midi": 58,
      "hit": false,
      "t": 264000,
      "d": 60,
      "v": 94
    },
    {
      "midi": 63,
      "hit": false,
      "t": 264000,
      "d": 2840,
      "v": 100
    },
    {
      "midi": 55,
      "hit": false,
      "t": 264000,
      "d": 3125,
      "v": 117
    },
    {
      "midi": 51,
      "hit": false,
      "t": 264000,
      "d": 3230,
      "v": 94
    },
    {
      "midi": 58,
      "hit": false,
      "t": 267615,
      "d": 1095,
      "v": 66
    },
    {
      "midi": 58,
      "hit": false,
      "t": 267615,
      "d": 1095,
      "v": 66
    },
    {
      "midi": 53,
      "hit": false,
      "t": 267625,
      "d": 825,
      "v": 91
    },
    {
      "midi": 53,
      "hit": false,
      "t": 267625,
      "d": 825,
      "v": 91
    },
    {
      "midi": 62,
      "hit": false,
      "t": 267630,
      "d": 830,
      "v": 81
    },
    {
      "midi": 62,
      "hit": false,
      "t": 267630,
      "d": 830,
      "v": 81
    },
    {
      "midi": 50,
      "hit": false,
      "t": 267640,
      "d": 1220,
      "v": 94
    },
    {
      "midi": 50,
      "hit": false,
      "t": 267640,
      "d": 1220,
      "v": 94
    },
    {
      "midi": 60,
      "hit": false,
      "t": 268775,
      "d": 3465,
      "v": 76
    },
    {
      "midi": 60,
      "hit": false,
      "t": 268775,
      "d": 3465,
      "v": 76
    },
    {
      "midi": 63,
      "hit": false,
      "t": 268780,
      "d": 3425,
      "v": 90
    },
    {
      "midi": 63,
      "hit": false,
      "t": 268780,
      "d": 3425,
      "v": 90
    },
    {
      "midi": 55,
      "hit": false,
      "t": 268790,
      "d": 3595,
      "v": 84
    },
    {
      "midi": 48,
      "hit": false,
      "t": 268790,
      "d": 4720,
      "v": 87
    },
    {
      "midi": 55,
      "hit": false,
      "t": 268790,
      "d": 3595,
      "v": 84
    },
    {
      "midi": 48,
      "hit": false,
      "t": 268790,
      "d": 4720,
      "v": 87
    },
    {
      "midi": 58,
      "hit": false,
      "t": 273585,
      "d": 2095,
      "v": 85
    },
    {
      "midi": 58,
      "hit": false,
      "t": 273585,
      "d": 2095,
      "v": 85
    },
    {
      "midi": 62,
      "hit": false,
      "t": 273595,
      "d": 1875,
      "v": 84
    },
    {
      "midi": 62,
      "hit": false,
      "t": 273595,
      "d": 1875,
      "v": 84
    },
    {
      "midi": 53,
      "hit": false,
      "t": 273600,
      "d": 2025,
      "v": 91
    },
    {
      "midi": 53,
      "hit": false,
      "t": 273600,
      "d": 2025,
      "v": 91
    },
    {
      "midi": 46,
      "hit": false,
      "t": 273605,
      "d": 7520,
      "v": 90
    },
    {
      "midi": 46,
      "hit": false,
      "t": 273605,
      "d": 7520,
      "v": 90
    },
    {
      "midi": 63,
      "hit": false,
      "t": 275990,
      "d": 1750,
      "v": 81
    },
    {
      "midi": 63,
      "hit": false,
      "t": 275990,
      "d": 1750,
      "v": 81
    },
    {
      "midi": 55,
      "hit": false,
      "t": 275995,
      "d": 2040,
      "v": 91
    },
    {
      "midi": 55,
      "hit": false,
      "t": 275995,
      "d": 2040,
      "v": 91
    },
    {
      "midi": 58,
      "hit": false,
      "t": 276005,
      "d": 2055,
      "v": 73
    },
    {
      "midi": 58,
      "hit": false,
      "t": 276005,
      "d": 2055,
      "v": 73
    },
    {
      "midi": 58,
      "hit": false,
      "t": 278385,
      "d": 3045,
      "v": 85
    },
    {
      "midi": 58,
      "hit": false,
      "t": 278385,
      "d": 3045,
      "v": 85
    },
    {
      "midi": 62,
      "hit": false,
      "t": 278395,
      "d": 2725,
      "v": 94
    },
    {
      "midi": 62,
      "hit": false,
      "t": 278395,
      "d": 2725,
      "v": 94
    },
    {
      "midi": 53,
      "hit": false,
      "t": 278400,
      "d": 2670,
      "v": 91
    },
    {
      "midi": 53,
      "hit": false,
      "t": 278400,
      "d": 2670,
      "v": 91
    },
    {
      "midi": 62,
      "hit": false,
      "t": 281965,
      "d": 740,
      "v": 117
    },
    {
      "midi": 62,
      "hit": false,
      "t": 281965,
      "d": 740,
      "v": 117
    },
    {
      "midi": 58,
      "hit": false,
      "t": 281980,
      "d": 850,
      "v": 117
    },
    {
      "midi": 58,
      "hit": false,
      "t": 281980,
      "d": 850,
      "v": 117
    },
    {
      "midi": 53,
      "hit": false,
      "t": 281985,
      "d": 805,
      "v": 112
    },
    {
      "midi": 53,
      "hit": false,
      "t": 281985,
      "d": 805,
      "v": 112
    },
    {
      "midi": 38,
      "hit": false,
      "t": 281990,
      "d": 1320,
      "v": 117
    },
    {
      "midi": 38,
      "hit": false,
      "t": 281990,
      "d": 1320,
      "v": 117
    },
    {
      "midi": 58,
      "hit": false,
      "t": 283200,
      "d": 2645,
      "v": 90
    },
    {
      "midi": 58,
      "hit": false,
      "t": 283200,
      "d": 2645,
      "v": 90
    },
    {
      "midi": 55,
      "hit": false,
      "t": 283205,
      "d": 2755,
      "v": 103
    },
    {
      "midi": 55,
      "hit": false,
      "t": 283205,
      "d": 2755,
      "v": 103
    },
    {
      "midi": 63,
      "hit": false,
      "t": 283210,
      "d": 2645,
      "v": 94
    },
    {
      "midi": 63,
      "hit": false,
      "t": 283210,
      "d": 2645,
      "v": 94
    },
    {
      "midi": 39,
      "hit": false,
      "t": 283230,
      "d": 3580,
      "v": 90
    },
    {
      "midi": 39,
      "hit": false,
      "t": 283230,
      "d": 3580,
      "v": 90
    },
    {
      "midi": 61,
      "hit": false,
      "t": 283240,
      "d": 30,
      "v": 70
    },
    {
      "midi": 61,
      "hit": false,
      "t": 283240,
      "d": 30,
      "v": 70
    },
    {
      "midi": 58,
      "hit": false,
      "t": 286770,
      "d": 1290,
      "v": 81
    },
    {
      "midi": 58,
      "hit": false,
      "t": 286770,
      "d": 1290,
      "v": 81
    },
    {
      "midi": 62,
      "hit": false,
      "t": 286775,
      "d": 905,
      "v": 103
    },
    {
      "midi": 62,
      "hit": false,
      "t": 286775,
      "d": 905,
      "v": 103
    },
    {
      "midi": 53,
      "hit": false,
      "t": 286780,
      "d": 880,
      "v": 91
    },
    {
      "midi": 53,
      "hit": false,
      "t": 286780,
      "d": 880,
      "v": 91
    },
    {
      "midi": 38,
      "hit": false,
      "t": 286820,
      "d": 1280,
      "v": 73
    },
    {
      "midi": 38,
      "hit": false,
      "t": 286820,
      "d": 1280,
      "v": 73
    },
    {
      "midi": 60,
      "hit": false,
      "t": 287970,
      "d": 3625,
      "v": 89
    },
    {
      "midi": 60,
      "hit": false,
      "t": 287970,
      "d": 3625,
      "v": 89
    },
    {
      "midi": 63,
      "hit": false,
      "t": 287980,
      "d": 3560,
      "v": 90
    },
    {
      "midi": 63,
      "hit": false,
      "t": 287980,
      "d": 3560,
      "v": 90
    },
    {
      "midi": 36,
      "hit": false,
      "t": 287990,
      "d": 4810,
      "v": 91
    },
    {
      "midi": 36,
      "hit": false,
      "t": 287990,
      "d": 4810,
      "v": 91
    },
    {
      "midi": 55,
      "hit": false,
      "t": 288010,
      "d": 3645,
      "v": 97
    },
    {
      "midi": 55,
      "hit": false,
      "t": 288010,
      "d": 3645,
      "v": 97
    },
    {
      "midi": 53,
      "hit": false,
      "t": 292740,
      "d": 1980,
      "v": 78
    },
    {
      "midi": 53,
      "hit": false,
      "t": 292740,
      "d": 1980,
      "v": 78
    },
    {
      "midi": 57,
      "hit": false,
      "t": 292745,
      "d": 2015,
      "v": 98
    },
    {
      "midi": 57,
      "hit": false,
      "t": 292745,
      "d": 2015,
      "v": 98
    },
    {
      "midi": 60,
      "hit": false,
      "t": 292750,
      "d": 1820,
      "v": 98
    },
    {
      "midi": 60,
      "hit": false,
      "t": 292750,
      "d": 1820,
      "v": 98
    },
    {
      "midi": 41,
      "hit": false,
      "t": 292795,
      "d": 4580,
      "v": 91
    },
    {
      "midi": 41,
      "hit": false,
      "t": 292795,
      "d": 4580,
      "v": 91
    },
    {
      "midi": 58,
      "hit": false,
      "t": 295175,
      "d": 2070,
      "v": 90
    },
    {
      "midi": 58,
      "hit": false,
      "t": 295175,
      "d": 2070,
      "v": 90
    },
    {
      "midi": 62,
      "hit": false,
      "t": 295180,
      "d": 1815,
      "v": 76
    },
    {
      "midi": 62,
      "hit": false,
      "t": 295180,
      "d": 1815,
      "v": 76
    },
    {
      "midi": 53,
      "hit": false,
      "t": 295190,
      "d": 2010,
      "v": 84
    },
    {
      "midi": 53,
      "hit": false,
      "t": 295190,
      "d": 2010,
      "v": 84
    },
    {
      "midi": 60,
      "hit": false,
      "t": 297545,
      "d": 3195,
      "v": 73
    },
    {
      "midi": 60,
      "hit": false,
      "t": 297545,
      "d": 3195,
      "v": 73
    },
    {
      "midi": 53,
      "hit": false,
      "t": 297555,
      "d": 3240,
      "v": 71
    },
    {
      "midi": 53,
      "hit": false,
      "t": 297555,
      "d": 3240,
      "v": 71
    },
    {
      "midi": 57,
      "hit": false,
      "t": 297565,
      "d": 3235,
      "v": 94
    },
    {
      "midi": 57,
      "hit": false,
      "t": 297565,
      "d": 3235,
      "v": 94
    },
    {
      "midi": 41,
      "hit": false,
      "t": 297595,
      "d": 3530,
      "v": 76
    },
    {
      "midi": 41,
      "hit": false,
      "t": 297595,
      "d": 3530,
      "v": 76
    },
    {
      "midi": 38,
      "hit": false,
      "t": 301190,
      "d": 1400,
      "v": 117
    },
    {
      "midi": 38,
      "hit": false,
      "t": 301190,
      "d": 1400,
      "v": 117
    },
    {
      "midi": 58,
      "hit": false,
      "t": 301215,
      "d": 3140,
      "v": 117
    },
    {
      "midi": 58,
      "hit": false,
      "t": 301215,
      "d": 3140,
      "v": 117
    },
    {
      "midi": 62,
      "hit": false,
      "t": 301220,
      "d": 885,
      "v": 117
    },
    {
      "midi": 62,
      "hit": false,
      "t": 301220,
      "d": 885,
      "v": 117
    },
    {
      "midi": 53,
      "hit": false,
      "t": 301225,
      "d": 970,
      "v": 107
    },
    {
      "midi": 53,
      "hit": false,
      "t": 301225,
      "d": 970,
      "v": 107
    },
    {
      "midi": 55,
      "hit": false,
      "t": 302400,
      "d": 1855,
      "v": 84
    },
    {
      "midi": 63,
      "hit": false,
      "t": 302400,
      "d": 1895,
      "v": 94
    },
    {
      "midi": 39,
      "hit": false,
      "t": 302400,
      "d": 3685,
      "v": 94
    },
    {
      "midi": 55,
      "hit": false,
      "t": 302400,
      "d": 1855,
      "v": 84
    },
    {
      "midi": 63,
      "hit": false,
      "t": 302400,
      "d": 1895,
      "v": 94
    },
    {
      "midi": 39,
      "hit": false,
      "t": 302400,
      "d": 3685,
      "v": 94
    },
    {
      "midi": 63,
      "hit": false,
      "t": 304800,
      "d": 870,
      "v": 90
    },
    {
      "midi": 55,
      "hit": false,
      "t": 304800,
      "d": 950,
      "v": 91
    },
    {
      "midi": 58,
      "hit": false,
      "t": 304800,
      "d": 1080,
      "v": 85
    },
    {
      "midi": 63,
      "hit": false,
      "t": 304800,
      "d": 870,
      "v": 90
    },
    {
      "midi": 55,
      "hit": false,
      "t": 304800,
      "d": 950,
      "v": 91
    },
    {
      "midi": 58,
      "hit": false,
      "t": 304800,
      "d": 1080,
      "v": 85
    },
    {
      "midi": 58,
      "hit": false,
      "t": 306000,
      "d": 875,
      "v": 63
    },
    {
      "midi": 53,
      "hit": false,
      "t": 306000,
      "d": 895,
      "v": 84
    },
    {
      "midi": 62,
      "hit": false,
      "t": 306000,
      "d": 935,
      "v": 84
    },
    {
      "midi": 38,
      "hit": false,
      "t": 306000,
      "d": 1360,
      "v": 73
    },
    {
      "midi": 58,
      "hit": false,
      "t": 306000,
      "d": 875,
      "v": 63
    },
    {
      "midi": 53,
      "hit": false,
      "t": 306000,
      "d": 895,
      "v": 84
    },
    {
      "midi": 62,
      "hit": false,
      "t": 306000,
      "d": 935,
      "v": 84
    },
    {
      "midi": 38,
      "hit": false,
      "t": 306000,
      "d": 1360,
      "v": 73
    },
    {
      "midi": 55,
      "hit": false,
      "t": 307185,
      "d": 1625,
      "v": 73
    },
    {
      "midi": 55,
      "hit": false,
      "t": 307185,
      "d": 1625,
      "v": 73
    },
    {
      "midi": 63,
      "hit": false,
      "t": 307195,
      "d": 1595,
      "v": 81
    },
    {
      "midi": 63,
      "hit": false,
      "t": 307195,
      "d": 1595,
      "v": 81
    },
    {
      "midi": 60,
      "hit": false,
      "t": 307200,
      "d": 1670,
      "v": 73
    },
    {
      "midi": 60,
      "hit": false,
      "t": 307200,
      "d": 1670,
      "v": 73
    },
    {
      "midi": 36,
      "hit": false,
      "t": 307220,
      "d": 1430,
      "v": 78
    },
    {
      "midi": 36,
      "hit": false,
      "t": 307220,
      "d": 1430,
      "v": 78
    },
    {
      "midi": 36,
      "hit": false,
      "t": 308830,
      "d": 2335,
      "v": 73
    },
    {
      "midi": 36,
      "hit": false,
      "t": 308830,
      "d": 2335,
      "v": 73
    },
    {
      "midi": 63,
      "hit": false,
      "t": 308940,
      "d": 1560,
      "v": 77
    },
    {
      "midi": 63,
      "hit": false,
      "t": 308940,
      "d": 1560,
      "v": 77
    },
    {
      "midi": 55,
      "hit": false,
      "t": 308945,
      "d": 1495,
      "v": 94
    },
    {
      "midi": 55,
      "hit": false,
      "t": 308945,
      "d": 1495,
      "v": 94
    },
    {
      "midi": 60,
      "hit": false,
      "t": 308950,
      "d": 1605,
      "v": 84
    },
    {
      "midi": 60,
      "hit": false,
      "t": 308950,
      "d": 1605,
      "v": 84
    },
    {
      "midi": 63,
      "hit": false,
      "t": 310760,
      "d": 475,
      "v": 77
    },
    {
      "midi": 63,
      "hit": false,
      "t": 310760,
      "d": 475,
      "v": 77
    },
    {
      "midi": 60,
      "hit": false,
      "t": 310765,
      "d": 570,
      "v": 78
    },
    {
      "midi": 60,
      "hit": false,
      "t": 310765,
      "d": 570,
      "v": 78
    },
    {
      "midi": 55,
      "hit": false,
      "t": 310770,
      "d": 780,
      "v": 87
    },
    {
      "midi": 55,
      "hit": false,
      "t": 310770,
      "d": 780,
      "v": 87
    },
    {
      "midi": 53,
      "hit": false,
      "t": 311985,
      "d": 3160,
      "v": 91
    },
    {
      "midi": 53,
      "hit": false,
      "t": 311985,
      "d": 3160,
      "v": 91
    },
    {
      "midi": 58,
      "hit": false,
      "t": 311995,
      "d": 3140,
      "v": 61
    },
    {
      "midi": 58,
      "hit": false,
      "t": 311995,
      "d": 3140,
      "v": 61
    },
    {
      "midi": 46,
      "hit": false,
      "t": 312000,
      "d": 3650,
      "v": 53
    },
    {
      "midi": 46,
      "hit": false,
      "t": 312000,
      "d": 3650,
      "v": 53
    },
    {
      "midi": 62,
      "hit": false,
      "t": 312005,
      "d": 2995,
      "v": 73
    },
    {
      "midi": 62,
      "hit": false,
      "t": 312005,
      "d": 2995,
      "v": 73
    },
    {
      "midi": 62,
      "hit": false,
      "t": 315595,
      "d": 655,
      "v": 98
    },
    {
      "midi": 62,
      "hit": false,
      "t": 315595,
      "d": 655,
      "v": 98
    },
    {
      "midi": 53,
      "hit": false,
      "t": 315600,
      "d": 670,
      "v": 94
    },
    {
      "midi": 53,
      "hit": false,
      "t": 315600,
      "d": 670,
      "v": 94
    },
    {
      "midi": 58,
      "hit": false,
      "t": 315605,
      "d": 1060,
      "v": 85
    },
    {
      "midi": 58,
      "hit": false,
      "t": 315605,
      "d": 1060,
      "v": 85
    },
    {
      "midi": 38,
      "hit": false,
      "t": 315615,
      "d": 1345,
      "v": 91
    },
    {
      "midi": 38,
      "hit": false,
      "t": 315615,
      "d": 1345,
      "v": 91
    },
    {
      "midi": 58,
      "hit": false,
      "t": 316785,
      "d": 3500,
      "v": 55
    },
    {
      "midi": 58,
      "hit": false,
      "t": 316785,
      "d": 3500,
      "v": 55
    },
    {
      "midi": 63,
      "hit": false,
      "t": 316790,
      "d": 3250,
      "v": 81
    },
    {
      "midi": 63,
      "hit": false,
      "t": 316790,
      "d": 3250,
      "v": 81
    },
    {
      "midi": 55,
      "hit": false,
      "t": 316810,
      "d": 3485,
      "v": 76
    },
    {
      "midi": 55,
      "hit": false,
      "t": 316810,
      "d": 3485,
      "v": 76
    },
    {
      "midi": 39,
      "hit": false,
      "t": 316850,
      "d": 3450,
      "v": 63
    },
    {
      "midi": 39,
      "hit": false,
      "t": 316850,
      "d": 3450,
      "v": 63
    },
    {
      "midi": 62,
      "hit": false,
      "t": 321575,
      "d": 1370,
      "v": 94
    },
    {
      "midi": 62,
      "hit": false,
      "t": 321575,
      "d": 1370,
      "v": 94
    },
    {
      "midi": 58,
      "hit": false,
      "t": 321585,
      "d": 1455,
      "v": 81
    },
    {
      "midi": 58,
      "hit": false,
      "t": 321585,
      "d": 1455,
      "v": 81
    },
    {
      "midi": 53,
      "hit": false,
      "t": 321595,
      "d": 1525,
      "v": 84
    },
    {
      "midi": 53,
      "hit": false,
      "t": 321595,
      "d": 1525,
      "v": 84
    },
    {
      "midi": 34,
      "hit": false,
      "t": 321600,
      "d": 2485,
      "v": 81
    },
    {
      "midi": 34,
      "hit": false,
      "t": 321600,
      "d": 2485,
      "v": 81
    },
    {
      "midi": 60,
      "hit": false,
      "t": 323975,
      "d": 1625,
      "v": 84
    },
    {
      "midi": 60,
      "hit": false,
      "t": 323975,
      "d": 1625,
      "v": 84
    },
    {
      "midi": 55,
      "hit": false,
      "t": 323985,
      "d": 1685,
      "v": 112
    },
    {
      "midi": 55,
      "hit": false,
      "t": 323985,
      "d": 1685,
      "v": 112
    },
    {
      "midi": 51,
      "hit": false,
      "t": 324000,
      "d": 1610,
      "v": 77
    },
    {
      "midi": 51,
      "hit": false,
      "t": 324000,
      "d": 1610,
      "v": 77
    },
    {
      "midi": 36,
      "hit": false,
      "t": 324020,
      "d": 2510,
      "v": 76
    },
    {
      "midi": 36,
      "hit": false,
      "t": 324020,
      "d": 2510,
      "v": 76
    },
    {
      "midi": 62,
      "hit": false,
      "t": 326385,
      "d": 1605,
      "v": 81
    },
    {
      "midi": 62,
      "hit": false,
      "t": 326385,
      "d": 1605,
      "v": 81
    },
    {
      "midi": 58,
      "hit": false,
      "t": 326390,
      "d": 1580,
      "v": 81
    },
    {
      "midi": 58,
      "hit": false,
      "t": 326390,
      "d": 1580,
      "v": 81
    },
    {
      "midi": 53,
      "hit": false,
      "t": 326395,
      "d": 1915,
      "v": 87
    },
    {
      "midi": 53,
      "hit": false,
      "t": 326395,
      "d": 1915,
      "v": 87
    },
    {
      "midi": 38,
      "hit": false,
      "t": 326400,
      "d": 2465,
      "v": 91
    },
    {
      "midi": 38,
      "hit": false,
      "t": 326400,
      "d": 2465,
      "v": 91
    },
    {
      "midi": 63,
      "hit": false,
      "t": 328770,
      "d": 1610,
      "v": 85
    },
    {
      "midi": 63,
      "hit": false,
      "t": 328770,
      "d": 1610,
      "v": 85
    },
    {
      "midi": 58,
      "hit": false,
      "t": 328775,
      "d": 1610,
      "v": 81
    },
    {
      "midi": 58,
      "hit": false,
      "t": 328775,
      "d": 1610,
      "v": 81
    },
    {
      "midi": 39,
      "hit": false,
      "t": 328785,
      "d": 2195,
      "v": 81
    },
    {
      "midi": 39,
      "hit": false,
      "t": 328785,
      "d": 2195,
      "v": 81
    },
    {
      "midi": 55,
      "hit": false,
      "t": 328790,
      "d": 1770,
      "v": 87
    },
    {
      "midi": 55,
      "hit": false,
      "t": 328790,
      "d": 1770,
      "v": 87
    },
    {
      "midi": 60,
      "hit": false,
      "t": 331190,
      "d": 740,
      "v": 103
    },
    {
      "midi": 60,
      "hit": false,
      "t": 331190,
      "d": 740,
      "v": 103
    },
    {
      "midi": 57,
      "hit": false,
      "t": 331195,
      "d": 810,
      "v": 107
    },
    {
      "midi": 57,
      "hit": false,
      "t": 331195,
      "d": 810,
      "v": 107
    },
    {
      "midi": 53,
      "hit": false,
      "t": 331205,
      "d": 705,
      "v": 87
    },
    {
      "midi": 53,
      "hit": false,
      "t": 331205,
      "d": 705,
      "v": 87
    },
    {
      "midi": 41,
      "hit": false,
      "t": 331210,
      "d": 785,
      "v": 69
    },
    {
      "midi": 41,
      "hit": false,
      "t": 331210,
      "d": 785,
      "v": 69
    },
    {
      "midi": 62,
      "hit": false,
      "t": 332105,
      "d": 290,
      "v": 71
    },
    {
      "midi": 62,
      "hit": false,
      "t": 332105,
      "d": 290,
      "v": 71
    },
    {
      "midi": 53,
      "hit": false,
      "t": 332115,
      "d": 370,
      "v": 69
    },
    {
      "midi": 53,
      "hit": false,
      "t": 332115,
      "d": 370,
      "v": 69
    },
    {
      "midi": 58,
      "hit": false,
      "t": 332120,
      "d": 280,
      "v": 70
    },
    {
      "midi": 58,
      "hit": false,
      "t": 332120,
      "d": 280,
      "v": 70
    },
    {
      "midi": 41,
      "hit": false,
      "t": 332125,
      "d": 370,
      "v": 78
    },
    {
      "midi": 41,
      "hit": false,
      "t": 332125,
      "d": 370,
      "v": 78
    },
    {
      "midi": 60,
      "hit": false,
      "t": 332950,
      "d": 2735,
      "v": 60
    },
    {
      "midi": 60,
      "hit": false,
      "t": 332950,
      "d": 2735,
      "v": 60
    },
    {
      "midi": 57,
      "hit": false,
      "t": 332960,
      "d": 2740,
      "v": 76
    },
    {
      "midi": 57,
      "hit": false,
      "t": 332960,
      "d": 2740,
      "v": 76
    },
    {
      "midi": 53,
      "hit": false,
      "t": 332970,
      "d": 2675,
      "v": 65
    },
    {
      "midi": 53,
      "hit": false,
      "t": 332970,
      "d": 2675,
      "v": 65
    },
    {
      "midi": 41,
      "hit": false,
      "t": 332985,
      "d": 2685,
      "v": 81
    },
    {
      "midi": 41,
      "hit": false,
      "t": 332985,
      "d": 2685,
      "v": 81
    },
    {
      "midi": 46,
      "hit": false,
      "t": 335980,
      "d": 1945,
      "v": 81
    },
    {
      "midi": 46,
      "hit": false,
      "t": 335980,
      "d": 1945,
      "v": 81
    },
    {
      "midi": 58,
      "hit": false,
      "t": 335990,
      "d": 1630,
      "v": 73
    },
    {
      "midi": 58,
      "hit": false,
      "t": 335990,
      "d": 1630,
      "v": 73
    },
    {
      "midi": 53,
      "hit": false,
      "t": 335995,
      "d": 1560,
      "v": 78
    },
    {
      "midi": 53,
      "hit": false,
      "t": 335995,
      "d": 1560,
      "v": 78
    },
    {
      "midi": 62,
      "hit": false,
      "t": 336000,
      "d": 1525,
      "v": 58
    },
    {
      "midi": 62,
      "hit": false,
      "t": 336000,
      "d": 1525,
      "v": 58
    },
    {
      "midi": 62,
      "hit": false,
      "t": 340795,
      "d": 1325,
      "v": 98
    },
    {
      "midi": 62,
      "hit": false,
      "t": 340795,
      "d": 1325,
      "v": 98
    },
    {
      "midi": 72,
      "hit": false,
      "t": 340805,
      "d": 880,
      "v": 127
    },
    {
      "midi": 58,
      "hit": false,
      "t": 340805,
      "d": 1525,
      "v": 117
    },
    {
      "midi": 58,
      "hit": false,
      "t": 340805,
      "d": 1525,
      "v": 117
    },
    {
      "midi": 34,
      "hit": false,
      "t": 340810,
      "d": 2330,
      "v": 100
    },
    {
      "midi": 34,
      "hit": false,
      "t": 340810,
      "d": 2330,
      "v": 100
    },
    {
      "midi": 53,
      "hit": false,
      "t": 340815,
      "d": 1485,
      "v": 107
    },
    {
      "midi": 53,
      "hit": false,
      "t": 340815,
      "d": 1485,
      "v": 107
    },
    {
      "midi": 65,
      "hit": false,
      "t": 341670,
      "d": 895,
      "v": 127
    },
    {
      "midi": 70,
      "hit": false,
      "t": 342550,
      "d": 985,
      "v": 120
    },
    {
      "midi": 60,
      "hit": false,
      "t": 343150,
      "d": 1445,
      "v": 94
    },
    {
      "midi": 60,
      "hit": false,
      "t": 343150,
      "d": 1445,
      "v": 94
    },
    {
      "midi": 51,
      "hit": false,
      "t": 343175,
      "d": 1485,
      "v": 81
    },
    {
      "midi": 51,
      "hit": false,
      "t": 343175,
      "d": 1485,
      "v": 81
    },
    {
      "midi": 55,
      "hit": false,
      "t": 343180,
      "d": 1400,
      "v": 117
    },
    {
      "midi": 55,
      "hit": false,
      "t": 343180,
      "d": 1400,
      "v": 117
    },
    {
      "midi": 36,
      "hit": false,
      "t": 343195,
      "d": 2505,
      "v": 112
    },
    {
      "midi": 36,
      "hit": false,
      "t": 343195,
      "d": 2505,
      "v": 112
    },
    {
      "midi": 62,
      "hit": false,
      "t": 343590,
      "d": 800,
      "v": 127
    },
    {
      "midi": 67,
      "hit": false,
      "t": 344385,
      "d": 1280,
      "v": 127
    },
    {
      "midi": 58,
      "hit": false,
      "t": 345570,
      "d": 1420,
      "v": 94
    },
    {
      "midi": 58,
      "hit": false,
      "t": 345570,
      "d": 1420,
      "v": 94
    },
    {
      "midi": 38,
      "hit": false,
      "t": 345580,
      "d": 2515,
      "v": 117
    },
    {
      "midi": 38,
      "hit": false,
      "t": 345580,
      "d": 2515,
      "v": 117
    },
    {
      "midi": 53,
      "hit": false,
      "t": 345585,
      "d": 1330,
      "v": 112
    },
    {
      "midi": 53,
      "hit": false,
      "t": 345585,
      "d": 1330,
      "v": 112
    },
    {
      "midi": 50,
      "hit": false,
      "t": 345595,
      "d": 1275,
      "v": 107
    },
    {
      "midi": 50,
      "hit": false,
      "t": 345595,
      "d": 1275,
      "v": 107
    },
    {
      "midi": 65,
      "hit": false,
      "t": 345610,
      "d": 3615,
      "v": 104
    },
    {
      "midi": 58,
      "hit": false,
      "t": 347985,
      "d": 3810,
      "v": 94
    },
    {
      "midi": 58,
      "hit": false,
      "t": 347985,
      "d": 3810,
      "v": 94
    },
    {
      "midi": 63,
      "hit": false,
      "t": 347995,
      "d": 3545,
      "v": 90
    },
    {
      "midi": 63,
      "hit": false,
      "t": 347995,
      "d": 3545,
      "v": 90
    },
    {
      "midi": 55,
      "hit": false,
      "t": 348000,
      "d": 3810,
      "v": 103
    },
    {
      "midi": 55,
      "hit": false,
      "t": 348000,
      "d": 3810,
      "v": 103
    },
    {
      "midi": 39,
      "hit": false,
      "t": 348015,
      "d": 4330,
      "v": 100
    },
    {
      "midi": 39,
      "hit": false,
      "t": 348015,
      "d": 4330,
      "v": 100
    },
    {
      "midi": 60,
      "hit": false,
      "t": 352820,
      "d": 715,
      "v": 94
    },
    {
      "midi": 60,
      "hit": false,
      "t": 352820,
      "d": 715,
      "v": 94
    },
    {
      "midi": 57,
      "hit": false,
      "t": 352830,
      "d": 750,
      "v": 98
    },
    {
      "midi": 57,
      "hit": false,
      "t": 352830,
      "d": 750,
      "v": 98
    },
    {
      "midi": 53,
      "hit": false,
      "t": 352835,
      "d": 650,
      "v": 81
    },
    {
      "midi": 53,
      "hit": false,
      "t": 352835,
      "d": 650,
      "v": 81
    },
    {
      "midi": 41,
      "hit": false,
      "t": 352845,
      "d": 680,
      "v": 84
    },
    {
      "midi": 41,
      "hit": false,
      "t": 352845,
      "d": 680,
      "v": 84
    },
    {
      "midi": 41,
      "hit": false,
      "t": 353675,
      "d": 685,
      "v": 78
    },
    {
      "midi": 41,
      "hit": false,
      "t": 353675,
      "d": 685,
      "v": 78
    },
    {
      "midi": 58,
      "hit": false,
      "t": 353680,
      "d": 725,
      "v": 77
    },
    {
      "midi": 58,
      "hit": false,
      "t": 353680,
      "d": 725,
      "v": 77
    },
    {
      "midi": 62,
      "hit": false,
      "t": 353690,
      "d": 570,
      "v": 78
    },
    {
      "midi": 62,
      "hit": false,
      "t": 353690,
      "d": 570,
      "v": 78
    },
    {
      "midi": 53,
      "hit": false,
      "t": 353695,
      "d": 555,
      "v": 76
    },
    {
      "midi": 53,
      "hit": false,
      "t": 353695,
      "d": 555,
      "v": 76
    },
    {
      "midi": 60,
      "hit": false,
      "t": 354530,
      "d": 3100,
      "v": 81
    },
    {
      "midi": 60,
      "hit": false,
      "t": 354530,
      "d": 3100,
      "v": 81
    },
    {
      "midi": 53,
      "hit": false,
      "t": 354540,
      "d": 3055,
      "v": 81
    },
    {
      "midi": 53,
      "hit": false,
      "t": 354540,
      "d": 3055,
      "v": 81
    },
    {
      "midi": 57,
      "hit": false,
      "t": 354555,
      "d": 3055,
      "v": 98
    },
    {
      "midi": 57,
      "hit": false,
      "t": 354555,
      "d": 3055,
      "v": 98
    },
    {
      "midi": 41,
      "hit": false,
      "t": 354560,
      "d": 3050,
      "v": 87
    },
    {
      "midi": 41,
      "hit": false,
      "t": 354560,
      "d": 3050,
      "v": 87
    },
    {
      "midi": 53,
      "hit": false,
      "t": 357605,
      "d": 1500,
      "v": 76
    },
    {
      "midi": 53,
      "hit": false,
      "t": 357605,
      "d": 1500,
      "v": 76
    },
    {
      "midi": 58,
      "hit": false,
      "t": 357615,
      "d": 1485,
      "v": 90
    },
    {
      "midi": 58,
      "hit": false,
      "t": 357615,
      "d": 1485,
      "v": 90
    },
    {
      "midi": 62,
      "hit": false,
      "t": 357620,
      "d": 1340,
      "v": 73
    },
    {
      "midi": 62,
      "hit": false,
      "t": 357620,
      "d": 1340,
      "v": 73
    },
    {
      "midi": 60,
      "hit": false,
      "t": 359400,
      "d": 1370,
      "v": 94
    },
    {
      "midi": 60,
      "hit": false,
      "t": 359400,
      "d": 1370,
      "v": 94
    },
    {
      "midi": 53,
      "hit": false,
      "t": 359410,
      "d": 1350,
      "v": 87
    },
    {
      "midi": 53,
      "hit": false,
      "t": 359410,
      "d": 1350,
      "v": 87
    },
    {
      "midi": 53,
      "hit": false,
      "t": 361200,
      "d": 1195,
      "v": 67
    },
    {
      "midi": 58,
      "hit": false,
      "t": 361200,
      "d": 1195,
      "v": 70
    },
    {
      "midi": 53,
      "hit": false,
      "t": 361200,
      "d": 1195,
      "v": 67
    },
    {
      "midi": 58,
      "hit": false,
      "t": 361200,
      "d": 1195,
      "v": 70
    },
    {
      "midi": 53,
      "hit": false,
      "t": 362405,
      "d": 1500,
      "v": 76
    },
    {
      "midi": 53,
      "hit": false,
      "t": 362405,
      "d": 1500,
      "v": 76
    },
    {
      "midi": 58,
      "hit": false,
      "t": 362415,
      "d": 1485,
      "v": 90
    },
    {
      "midi": 58,
      "hit": false,
      "t": 362415,
      "d": 1485,
      "v": 90
    },
    {
      "midi": 62,
      "hit": false,
      "t": 362420,
      "d": 1340,
      "v": 73
    },
    {
      "midi": 62,
      "hit": false,
      "t": 362420,
      "d": 1340,
      "v": 73
    },
    {
      "midi": 60,
      "hit": false,
      "t": 364200,
      "d": 1370,
      "v": 94
    },
    {
      "midi": 60,
      "hit": false,
      "t": 364200,
      "d": 1370,
      "v": 94
    },
    {
      "midi": 53,
      "hit": false,
      "t": 364210,
      "d": 1350,
      "v": 87
    },
    {
      "midi": 53,
      "hit": false,
      "t": 364210,
      "d": 1350,
      "v": 87
    },
    {
      "midi": 53,
      "hit": false,
      "t": 366000,
      "d": 1195,
      "v": 67
    },
    {
      "midi": 58,
      "hit": false,
      "t": 366000,
      "d": 1195,
      "v": 70
    },
    {
      "midi": 53,
      "hit": false,
      "t": 366000,
      "d": 1195,
      "v": 67
    },
    {
      "midi": 58,
      "hit": false,
      "t": 366000,
      "d": 1195,
      "v": 70
    },
    {
      "midi": 53,
      "hit": false,
      "t": 367205,
      "d": 1500,
      "v": 76
    },
    {
      "midi": 53,
      "hit": false,
      "t": 367205,
      "d": 1500,
      "v": 76
    },
    {
      "midi": 58,
      "hit": false,
      "t": 367215,
      "d": 1485,
      "v": 90
    },
    {
      "midi": 58,
      "hit": false,
      "t": 367215,
      "d": 1485,
      "v": 90
    },
    {
      "midi": 62,
      "hit": false,
      "t": 367220,
      "d": 1340,
      "v": 73
    },
    {
      "midi": 62,
      "hit": false,
      "t": 367220,
      "d": 1340,
      "v": 73
    },
    {
      "midi": 60,
      "hit": false,
      "t": 369000,
      "d": 1370,
      "v": 94
    },
    {
      "midi": 60,
      "hit": false,
      "t": 369000,
      "d": 1370,
      "v": 94
    },
    {
      "midi": 53,
      "hit": false,
      "t": 369010,
      "d": 1350,
      "v": 87
    },
    {
      "midi": 53,
      "hit": false,
      "t": 369010,
      "d": 1350,
      "v": 87
    },
    {
      "midi": 53,
      "hit": false,
      "t": 370800,
      "d": 1195,
      "v": 67
    },
    {
      "midi": 58,
      "hit": false,
      "t": 370800,
      "d": 1195,
      "v": 70
    },
    {
      "midi": 53,
      "hit": false,
      "t": 370800,
      "d": 1195,
      "v": 67
    },
    {
      "midi": 58,
      "hit": false,
      "t": 370800,
      "d": 1195,
      "v": 70
    },
    {
      "midi": 53,
      "hit": false,
      "t": 372005,
      "d": 1500,
      "v": 76
    },
    {
      "midi": 53,
      "hit": false,
      "t": 372005,
      "d": 1500,
      "v": 76
    },
    {
      "midi": 58,
      "hit": false,
      "t": 372015,
      "d": 1485,
      "v": 90
    },
    {
      "midi": 58,
      "hit": false,
      "t": 372015,
      "d": 1485,
      "v": 90
    },
    {
      "midi": 62,
      "hit": false,
      "t": 372020,
      "d": 1340,
      "v": 73
    },
    {
      "midi": 62,
      "hit": false,
      "t": 372020,
      "d": 1340,
      "v": 73
    },
    {
      "midi": 60,
      "hit": false,
      "t": 373800,
      "d": 1370,
      "v": 94
    },
    {
      "midi": 60,
      "hit": false,
      "t": 373800,
      "d": 1370,
      "v": 94
    },
    {
      "midi": 53,
      "hit": false,
      "t": 373810,
      "d": 1350,
      "v": 87
    },
    {
      "midi": 53,
      "hit": false,
      "t": 373810,
      "d": 1350,
      "v": 87
    },
    {
      "midi": 53,
      "hit": false,
      "t": 375600,
      "d": 1195,
      "v": 67
    },
    {
      "midi": 58,
      "hit": false,
      "t": 375600,
      "d": 1195,
      "v": 70
    },
    {
      "midi": 53,
      "hit": false,
      "t": 375600,
      "d": 1195,
      "v": 67
    },
    {
      "midi": 58,
      "hit": false,
      "t": 375600,
      "d": 1195,
      "v": 70
    },
    {
      "midi": 53,
      "hit": false,
      "t": 376805,
      "d": 1500,
      "v": 76
    },
    {
      "midi": 53,
      "hit": false,
      "t": 376805,
      "d": 1500,
      "v": 76
    },
    {
      "midi": 58,
      "hit": false,
      "t": 376815,
      "d": 1485,
      "v": 90
    },
    {
      "midi": 58,
      "hit": false,
      "t": 376815,
      "d": 1485,
      "v": 90
    },
    {
      "midi": 62,
      "hit": false,
      "t": 376820,
      "d": 1340,
      "v": 73
    },
    {
      "midi": 62,
      "hit": false,
      "t": 376820,
      "d": 1340,
      "v": 73
    },
    {
      "midi": 60,
      "hit": false,
      "t": 378600,
      "d": 1370,
      "v": 94
    },
    {
      "midi": 60,
      "hit": false,
      "t": 378600,
      "d": 1370,
      "v": 94
    },
    {
      "midi": 53,
      "hit": false,
      "t": 378610,
      "d": 1350,
      "v": 87
    },
    {
      "midi": 53,
      "hit": false,
      "t": 378610,
      "d": 1350,
      "v": 87
    },
    {
      "midi": 53,
      "hit": false,
      "t": 380400,
      "d": 1195,
      "v": 67
    },
    {
      "midi": 58,
      "hit": false,
      "t": 380400,
      "d": 1195,
      "v": 70
    },
    {
      "midi": 53,
      "hit": false,
      "t": 380400,
      "d": 1195,
      "v": 67
    },
    {
      "midi": 58,
      "hit": false,
      "t": 380400,
      "d": 1195,
      "v": 70
    },
    {
      "midi": 53,
      "hit": false,
      "t": 381605,
      "d": 1500,
      "v": 76
    },
    {
      "midi": 53,
      "hit": false,
      "t": 381605,
      "d": 1500,
      "v": 76
    },
    {
      "midi": 58,
      "hit": false,
      "t": 381615,
      "d": 1485,
      "v": 90
    },
    {
      "midi": 58,
      "hit": false,
      "t": 381615,
      "d": 1485,
      "v": 90
    },
    {
      "midi": 62,
      "hit": false,
      "t": 381620,
      "d": 1340,
      "v": 73
    },
    {
      "midi": 62,
      "hit": false,
      "t": 381620,
      "d": 1340,
      "v": 73
    },
    {
      "midi": 60,
      "hit": false,
      "t": 383400,
      "d": 1370,
      "v": 94
    },
    {
      "midi": 60,
      "hit": false,
      "t": 383400,
      "d": 1370,
      "v": 94
    },
    {
      "midi": 53,
      "hit": false,
      "t": 383410,
      "d": 1350,
      "v": 87
    },
    {
      "midi": 53,
      "hit": false,
      "t": 383410,
      "d": 1350,
      "v": 87
    },
    {
      "midi": 53,
      "hit": false,
      "t": 385200,
      "d": 1195,
      "v": 67
    },
    {
      "midi": 58,
      "hit": false,
      "t": 385200,
      "d": 1195,
      "v": 70
    },
    {
      "midi": 53,
      "hit": false,
      "t": 385200,
      "d": 1195,
      "v": 67
    },
    {
      "midi": 58,
      "hit": false,
      "t": 385200,
      "d": 1195,
      "v": 70
    },
    {
      "midi": 53,
      "hit": false,
      "t": 386405,
      "d": 1500,
      "v": 76
    },
    {
      "midi": 53,
      "hit": false,
      "t": 386405,
      "d": 1500,
      "v": 76
    },
    {
      "midi": 58,
      "hit": false,
      "t": 386415,
      "d": 1485,
      "v": 90
    },
    {
      "midi": 58,
      "hit": false,
      "t": 386415,
      "d": 1485,
      "v": 90
    },
    {
      "midi": 62,
      "hit": false,
      "t": 386420,
      "d": 1340,
      "v": 73
    },
    {
      "midi": 62,
      "hit": false,
      "t": 386420,
      "d": 1340,
      "v": 73
    },
    {
      "midi": 60,
      "hit": false,
      "t": 388200,
      "d": 1370,
      "v": 94
    },
    {
      "midi": 60,
      "hit": false,
      "t": 388200,
      "d": 1370,
      "v": 94
    },
    {
      "midi": 53,
      "hit": false,
      "t": 388210,
      "d": 1350,
      "v": 87
    },
    {
      "midi": 53,
      "hit": false,
      "t": 388210,
      "d": 1350,
      "v": 87
    },
    {
      "midi": 53,
      "hit": false,
      "t": 390000,
      "d": 1195,
      "v": 67
    },
    {
      "midi": 58,
      "hit": false,
      "t": 390000,
      "d": 1195,
      "v": 70
    },
    {
      "midi": 53,
      "hit": false,
      "t": 390000,
      "d": 1195,
      "v": 67
    },
    {
      "midi": 58,
      "hit": false,
      "t": 390000,
      "d": 1195,
      "v": 70
    },
    {
      "midi": 53,
      "hit": false,
      "t": 391205,
      "d": 1500,
      "v": 76
    },
    {
      "midi": 53,
      "hit": false,
      "t": 391205,
      "d": 1500,
      "v": 76
    },
    {
      "midi": 58,
      "hit": false,
      "t": 391215,
      "d": 1485,
      "v": 90
    },
    {
      "midi": 58,
      "hit": false,
      "t": 391215,
      "d": 1485,
      "v": 90
    },
    {
      "midi": 62,
      "hit": false,
      "t": 391220,
      "d": 1340,
      "v": 73
    },
    {
      "midi": 62,
      "hit": false,
      "t": 391220,
      "d": 1340,
      "v": 73
    },
    {
      "midi": 60,
      "hit": false,
      "t": 393000,
      "d": 1370,
      "v": 94
    },
    {
      "midi": 60,
      "hit": false,
      "t": 393000,
      "d": 1370,
      "v": 94
    },
    {
      "midi": 53,
      "hit": false,
      "t": 393010,
      "d": 1350,
      "v": 87
    },
    {
      "midi": 53,
      "hit": false,
      "t": 393010,
      "d": 1350,
      "v": 87
    },
    {
      "midi": 53,
      "hit": false,
      "t": 394800,
      "d": 1195,
      "v": 67
    },
    {
      "midi": 58,
      "hit": false,
      "t": 394800,
      "d": 1195,
      "v": 70
    },
    {
      "midi": 53,
      "hit": false,
      "t": 394800,
      "d": 1195,
      "v": 67
    },
    {
      "midi": 58,
      "hit": false,
      "t": 394800,
      "d": 1195,
      "v": 70
    },
    {
      "midi": 53,
      "hit": false,
      "t": 396005,
      "d": 1500,
      "v": 76
    },
    {
      "midi": 53,
      "hit": false,
      "t": 396005,
      "d": 1500,
      "v": 76
    },
    {
      "midi": 58,
      "hit": false,
      "t": 396015,
      "d": 1485,
      "v": 90
    },
    {
      "midi": 58,
      "hit": false,
      "t": 396015,
      "d": 1485,
      "v": 90
    },
    {
      "midi": 62,
      "hit": false,
      "t": 396020,
      "d": 1340,
      "v": 73
    },
    {
      "midi": 62,
      "hit": false,
      "t": 396020,
      "d": 1340,
      "v": 73
    },
    {
      "midi": 60,
      "hit": false,
      "t": 397800,
      "d": 1370,
      "v": 94
    },
    {
      "midi": 60,
      "hit": false,
      "t": 397800,
      "d": 1370,
      "v": 94
    },
    {
      "midi": 53,
      "hit": false,
      "t": 397810,
      "d": 1350,
      "v": 87
    },
    {
      "midi": 53,
      "hit": false,
      "t": 397810,
      "d": 1350,
      "v": 87
    },
    {
      "midi": 53,
      "hit": false,
      "t": 399600,
      "d": 1195,
      "v": 67
    },
    {
      "midi": 58,
      "hit": false,
      "t": 399600,
      "d": 1195,
      "v": 70
    },
    {
      "midi": 53,
      "hit": false,
      "t": 399600,
      "d": 1195,
      "v": 67
    },
    {
      "midi": 58,
      "hit": false,
      "t": 399600,
      "d": 1195,
      "v": 70
    },
    {
      "midi": 53,
      "hit": false,
      "t": 400805,
      "d": 1500,
      "v": 76
    },
    {
      "midi": 53,
      "hit": false,
      "t": 400805,
      "d": 1500,
      "v": 76
    },
    {
      "midi": 58,
      "hit": false,
      "t": 400815,
      "d": 1485,
      "v": 90
    },
    {
      "midi": 58,
      "hit": false,
      "t": 400815,
      "d": 1485,
      "v": 90
    },
    {
      "midi": 62,
      "hit": false,
      "t": 400820,
      "d": 1340,
      "v": 73
    },
    {
      "midi": 62,
      "hit": false,
      "t": 400820,
      "d": 1340,
      "v": 73
    },
    {
      "midi": 60,
      "hit": false,
      "t": 402600,
      "d": 1370,
      "v": 94
    },
    {
      "midi": 60,
      "hit": false,
      "t": 402600,
      "d": 1370,
      "v": 94
    },
    {
      "midi": 53,
      "hit": false,
      "t": 402610,
      "d": 1350,
      "v": 87
    },
    {
      "midi": 53,
      "hit": false,
      "t": 402610,
      "d": 1350,
      "v": 87
    },
    {
      "midi": 53,
      "hit": false,
      "t": 404400,
      "d": 1195,
      "v": 67
    },
    {
      "midi": 58,
      "hit": false,
      "t": 404400,
      "d": 1195,
      "v": 70
    },
    {
      "midi": 53,
      "hit": false,
      "t": 404400,
      "d": 1195,
      "v": 67
    },
    {
      "midi": 58,
      "hit": false,
      "t": 404400,
      "d": 1195,
      "v": 70
    },
    {
      "midi": 53,
      "hit": false,
      "t": 405605,
      "d": 1500,
      "v": 76
    },
    {
      "midi": 53,
      "hit": false,
      "t": 405605,
      "d": 1500,
      "v": 76
    },
    {
      "midi": 58,
      "hit": false,
      "t": 405615,
      "d": 1485,
      "v": 90
    },
    {
      "midi": 58,
      "hit": false,
      "t": 405615,
      "d": 1485,
      "v": 90
    },
    {
      "midi": 62,
      "hit": false,
      "t": 405620,
      "d": 1340,
      "v": 73
    },
    {
      "midi": 62,
      "hit": false,
      "t": 405620,
      "d": 1340,
      "v": 73
    },
    {
      "midi": 60,
      "hit": false,
      "t": 407400,
      "d": 1370,
      "v": 94
    },
    {
      "midi": 60,
      "hit": false,
      "t": 407400,
      "d": 1370,
      "v": 94
    },
    {
      "midi": 53,
      "hit": false,
      "t": 407410,
      "d": 1350,
      "v": 87
    },
    {
      "midi": 53,
      "hit": false,
      "t": 407410,
      "d": 1350,
      "v": 87
    },
    {
      "midi": 53,
      "hit": false,
      "t": 409200,
      "d": 1195,
      "v": 67
    },
    {
      "midi": 58,
      "hit": false,
      "t": 409200,
      "d": 1195,
      "v": 70
    },
    {
      "midi": 53,
      "hit": false,
      "t": 409200,
      "d": 1195,
      "v": 67
    },
    {
      "midi": 58,
      "hit": false,
      "t": 409200,
      "d": 1195,
      "v": 70
    },
    {
      "midi": 53,
      "hit": false,
      "t": 410405,
      "d": 1500,
      "v": 76
    },
    {
      "midi": 53,
      "hit": false,
      "t": 410405,
      "d": 1500,
      "v": 76
    },
    {
      "midi": 58,
      "hit": false,
      "t": 410415,
      "d": 1485,
      "v": 90
    },
    {
      "midi": 58,
      "hit": false,
      "t": 410415,
      "d": 1485,
      "v": 90
    },
    {
      "midi": 62,
      "hit": false,
      "t": 410420,
      "d": 1340,
      "v": 73
    },
    {
      "midi": 62,
      "hit": false,
      "t": 410420,
      "d": 1340,
      "v": 73
    },
    {
      "midi": 60,
      "hit": false,
      "t": 412200,
      "d": 1370,
      "v": 94
    },
    {
      "midi": 60,
      "hit": false,
      "t": 412200,
      "d": 1370,
      "v": 94
    },
    {
      "midi": 53,
      "hit": false,
      "t": 412210,
      "d": 1350,
      "v": 87
    },
    {
      "midi": 53,
      "hit": false,
      "t": 412210,
      "d": 1350,
      "v": 87
    },
    {
      "midi": 53,
      "hit": false,
      "t": 414000,
      "d": 1195,
      "v": 67
    },
    {
      "midi": 58,
      "hit": false,
      "t": 414000,
      "d": 1195,
      "v": 70
    },
    {
      "midi": 53,
      "hit": false,
      "t": 414000,
      "d": 1195,
      "v": 67
    },
    {
      "midi": 58,
      "hit": false,
      "t": 414000,
      "d": 1195,
      "v": 70
    },
    {
      "midi": 53,
      "hit": false,
      "t": 415205,
      "d": 1500,
      "v": 76
    },
    {
      "midi": 53,
      "hit": false,
      "t": 415205,
      "d": 1500,
      "v": 76
    },
    {
      "midi": 58,
      "hit": false,
      "t": 415215,
      "d": 1485,
      "v": 90
    },
    {
      "midi": 58,
      "hit": false,
      "t": 415215,
      "d": 1485,
      "v": 90
    },
    {
      "midi": 62,
      "hit": false,
      "t": 415220,
      "d": 1340,
      "v": 73
    },
    {
      "midi": 62,
      "hit": false,
      "t": 415220,
      "d": 1340,
      "v": 73
    },
    {
      "midi": 60,
      "hit": false,
      "t": 417000,
      "d": 1370,
      "v": 94
    },
    {
      "midi": 60,
      "hit": false,
      "t": 417000,
      "d": 1370,
      "v": 94
    },
    {
      "midi": 53,
      "hit": false,
      "t": 417010,
      "d": 1350,
      "v": 87
    },
    {
      "midi": 53,
      "hit": false,
      "t": 417010,
      "d": 1350,
      "v": 87
    },
    {
      "midi": 53,
      "hit": false,
      "t": 418800,
      "d": 1195,
      "v": 67
    },
    {
      "midi": 58,
      "hit": false,
      "t": 418800,
      "d": 1195,
      "v": 70
    },
    {
      "midi": 53,
      "hit": false,
      "t": 418800,
      "d": 1195,
      "v": 67
    },
    {
      "midi": 58,
      "hit": false,
      "t": 418800,
      "d": 1195,
      "v": 70
    },
    {
      "midi": 53,
      "hit": false,
      "t": 420005,
      "d": 1500,
      "v": 76
    },
    {
      "midi": 53,
      "hit": false,
      "t": 420005,
      "d": 1500,
      "v": 76
    },
    {
      "midi": 58,
      "hit": false,
      "t": 420015,
      "d": 1485,
      "v": 90
    },
    {
      "midi": 58,
      "hit": false,
      "t": 420015,
      "d": 1485,
      "v": 90
    },
    {
      "midi": 62,
      "hit": false,
      "t": 420020,
      "d": 1340,
      "v": 73
    },
    {
      "midi": 62,
      "hit": false,
      "t": 420020,
      "d": 1340,
      "v": 73
    },
    {
      "midi": 60,
      "hit": false,
      "t": 421800,
      "d": 1370,
      "v": 94
    },
    {
      "midi": 60,
      "hit": false,
      "t": 421800,
      "d": 1370,
      "v": 94
    },
    {
      "midi": 53,
      "hit": false,
      "t": 421810,
      "d": 1350,
      "v": 87
    },
    {
      "midi": 53,
      "hit": false,
      "t": 421810,
      "d": 1350,
      "v": 87
    },
    {
      "midi": 53,
      "hit": false,
      "t": 423600,
      "d": 1195,
      "v": 67
    },
    {
      "midi": 58,
      "hit": false,
      "t": 423600,
      "d": 1195,
      "v": 70
    },
    {
      "midi": 53,
      "hit": false,
      "t": 423600,
      "d": 1195,
      "v": 67
    },
    {
      "midi": 58,
      "hit": false,
      "t": 423600,
      "d": 1195,
      "v": 70
    },
    {
      "midi": 53,
      "hit": false,
      "t": 424805,
      "d": 1500,
      "v": 76
    },
    {
      "midi": 53,
      "hit": false,
      "t": 424805,
      "d": 1500,
      "v": 76
    },
    {
      "midi": 58,
      "hit": false,
      "t": 424815,
      "d": 1485,
      "v": 90
    },
    {
      "midi": 58,
      "hit": false,
      "t": 424815,
      "d": 1485,
      "v": 90
    },
    {
      "midi": 62,
      "hit": false,
      "t": 424820,
      "d": 1340,
      "v": 73
    },
    {
      "midi": 62,
      "hit": false,
      "t": 424820,
      "d": 1340,
      "v": 73
    },
    {
      "midi": 60,
      "hit": false,
      "t": 426600,
      "d": 1370,
      "v": 94
    },
    {
      "midi": 60,
      "hit": false,
      "t": 426600,
      "d": 1370,
      "v": 94
    },
    {
      "midi": 53,
      "hit": false,
      "t": 426610,
      "d": 1350,
      "v": 87
    },
    {
      "midi": 53,
      "hit": false,
      "t": 426610,
      "d": 1350,
      "v": 87
    },
    {
      "midi": 53,
      "hit": false,
      "t": 428400,
      "d": 1195,
      "v": 67
    },
    {
      "midi": 58,
      "hit": false,
      "t": 428400,
      "d": 1195,
      "v": 70
    },
    {
      "midi": 53,
      "hit": false,
      "t": 428400,
      "d": 1195,
      "v": 67
    },
    {
      "midi": 58,
      "hit": false,
      "t": 428400,
      "d": 1195,
      "v": 70
    },
    {
      "midi": 53,
      "hit": false,
      "t": 429605,
      "d": 1500,
      "v": 76
    },
    {
      "midi": 53,
      "hit": false,
      "t": 429605,
      "d": 1500,
      "v": 76
    },
    {
      "midi": 58,
      "hit": false,
      "t": 429615,
      "d": 1485,
      "v": 90
    },
    {
      "midi": 58,
      "hit": false,
      "t": 429615,
      "d": 1485,
      "v": 90
    },
    {
      "midi": 62,
      "hit": false,
      "t": 429620,
      "d": 1340,
      "v": 73
    },
    {
      "midi": 62,
      "hit": false,
      "t": 429620,
      "d": 1340,
      "v": 73
    },
    {
      "midi": 60,
      "hit": false,
      "t": 431400,
      "d": 1370,
      "v": 94
    },
    {
      "midi": 60,
      "hit": false,
      "t": 431400,
      "d": 1370,
      "v": 94
    },
    {
      "midi": 53,
      "hit": false,
      "t": 431410,
      "d": 1350,
      "v": 87
    },
    {
      "midi": 53,
      "hit": false,
      "t": 431410,
      "d": 1350,
      "v": 87
    },
    {
      "midi": 58,
      "hit": false,
      "t": 433200,
      "d": 1195,
      "v": 70
    },
    {
      "midi": 58,
      "hit": false,
      "t": 433200,
      "d": 1195,
      "v": 70
    },
    {
      "midi": 46,
      "hit": false,
      "t": 434060,
      "d": 5210,
      "v": 77
    },
    {
      "midi": 46,
      "hit": false,
      "t": 434060,
      "d": 5210,
      "v": 77
    },
    {
      "midi": 50,
      "hit": false,
      "t": 434215,
      "d": 5145,
      "v": 54
    },
    {
      "midi": 50,
      "hit": false,
      "t": 434215,
      "d": 5145,
      "v": 54
    },
    {
      "midi": 53,
      "hit": false,
      "t": 434295,
      "d": 100,
      "v": 76
    },
    {
      "midi": 53,
      "hit": false,
      "t": 434295,
      "d": 100,
      "v": 76
    },
    {
      "midi": 58,
      "hit": false,
      "t": 434450,
      "d": 4795,
      "v": 90
    },
    {
      "midi": 58,
      "hit": false,
      "t": 434450,
      "d": 4795,
      "v": 90
    }
  ]
}