{
  "jsonPath": "Animes/Samurai X MIDI Collection/until-we-meet-again.json",
  "path": "Animes\\Samurai X MIDI Collection\\Until We Meet Again.mid",
  "name": "Until We Meet Again",
  "difficulty": "Advanced",
  "bpm": 104.00001386666851,
  "notes": [
    {
      "midi": 67,
      "hit": false,
      "t": 0,
      "d": 1009.6152500000001,
      "v": 110
    },
    {
      "midi": 60,
      "hit": false,
      "t": 0,
      "d": 480.76916666666665,
      "v": 110
    },
    {
      "midi": 63,
      "hit": false,
      "t": 0,
      "d": 1586.53825,
      "v": 110
    },
    {
      "midi": 58,
      "hit": false,
      "t": 576.923,
      "d": 480.7691666666667,
      "v": 110
    },
    {
      "midi": 72,
      "hit": false,
      "t": 1153.846,
      "d": 480.7691666666667,
      "v": 110
    },
    {
      "midi": 57,
      "hit": false,
      "t": 1153.846,
      "d": 480.7691666666667,
      "v": 110
    },
    {
      "midi": 66,
      "hit": false,
      "t": 1730.769,
      "d": 480.7691666666667,
      "v": 110
    },
    {
      "midi": 74,
      "hit": false,
      "t": 1730.769,
      "d": 1009.6152500000001,
      "v": 110
    },
    {
      "midi": 56,
      "hit": false,
      "t": 1730.769,
      "d": 480.7691666666667,
      "v": 110
    },
    {
      "midi": 60,
      "hit": false,
      "t": 1730.769,
      "d": 1009.6152500000001,
      "v": 110
    },
    {
      "midi": 65,
      "hit": false,
      "t": 2307.692,
      "d": 480.76916666666693,
      "v": 110
    },
    {
      "midi": 55,
      "hit": false,
      "t": 2307.692,
      "d": 480.76916666666693,
      "v": 110
    },
    {
      "midi": 75,
      "hit": false,
      "t": 2884.6150000000002,
      "d": 480.7691666666665,
      "v": 110
    },
    {
      "midi": 59,
      "hit": false,
      "t": 2884.6150000000002,
      "d": 480.7691666666665,
      "v": 110
    },
    {
      "midi": 67,
      "hit": false,
      "t": 3461.538,
      "d": 1586.53825,
      "v": 110
    },
    {
      "midi": 75,
      "hit": false,
      "t": 3461.538,
      "d": 1586.53825,
      "v": 110
    },
    {
      "midi": 48,
      "hit": false,
      "t": 3461.538,
      "d": 1586.53825,
      "v": 110
    },
    {
      "midi": 55,
      "hit": false,
      "t": 3461.538,
      "d": 1586.53825,
      "v": 110
    },
    {
      "midi": 62,
      "hit": false,
      "t": 5192.307,
      "d": 2211.5381666666663,
      "v": 110
    },
    {
      "midi": 67,
      "hit": false,
      "t": 5192.307,
      "d": 2211.5381666666663,
      "v": 110
    },
    {
      "midi": 48,
      "hit": false,
      "t": 5192.307,
      "d": 8509.614249999999,
      "v": 110
    },
    {
      "midi": 56,
      "hit": false,
      "t": 5192.307,
      "d": 8509.614249999999,
      "v": 110
    },
    {
      "midi": 65,
      "hit": false,
      "t": 7499.999,
      "d": 480.76916666666693,
      "v": 110
    },
    {
      "midi": 74,
      "hit": false,
      "t": 8076.9220000000005,
      "d": 480.76916666666693,
      "v": 110
    },
    {
      "midi": 72,
      "hit": false,
      "t": 8653.845000000001,
      "d": 480.76916666666693,
      "v": 110
    },
    {
      "midi": 67,
      "hit": false,
      "t": 9230.768000000002,
      "d": 1009.6152500000007,
      "v": 110
    },
    {
      "midi": 62,
      "hit": false,
      "t": 10384.614000000003,
      "d": 480.76916666666693,
      "v": 110
    },
    {
      "midi": 56,
      "hit": false,
      "t": 10961.537000000004,
      "d": 186.29805208333346,
      "v": 110
    },
    {
      "midi": 58,
      "hit": false,
      "t": 11153.844666666671,
      "d": 186.29805208333346,
      "v": 110
    },
    {
      "midi": 60,
      "hit": false,
      "t": 11346.152333333339,
      "d": 186.29805208333346,
      "v": 110
    },
    {
      "midi": 62,
      "hit": false,
      "t": 11538.460000000006,
      "d": 186.29805208333346,
      "v": 110
    },
    {
      "midi": 63,
      "hit": false,
      "t": 11730.767666666674,
      "d": 186.29805208333346,
      "v": 110
    },
    {
      "midi": 65,
      "hit": false,
      "t": 11923.075333333341,
      "d": 186.29805208333346,
      "v": 110
    },
    {
      "midi": 67,
      "hit": false,
      "t": 12115.383000000009,
      "d": 1586.5382499999996,
      "v": 110
    },
    {
      "midi": 60,
      "hit": false,
      "t": 13846.152,
      "d": 480.76916666666693,
      "v": 110
    },
    {
      "midi": 63,
      "hit": false,
      "t": 13846.152,
      "d": 1586.5382500000014,
      "v": 110
    },
    {
      "midi": 67,
      "hit": false,
      "t": 13846.15200000001,
      "d": 1009.6152500000007,
      "v": 110
    },
    {
      "midi": 58,
      "hit": false,
      "t": 14423.075,
      "d": 480.76916666666693,
      "v": 110
    },
    {
      "midi": 57,
      "hit": false,
      "t": 14999.998000000001,
      "d": 480.76916666666693,
      "v": 110
    },
    {
      "midi": 72,
      "hit": false,
      "t": 14999.99800000001,
      "d": 480.76916666666693,
      "v": 110
    },
    {
      "midi": 56,
      "hit": false,
      "t": 15576.921000000002,
      "d": 480.76916666666693,
      "v": 110
    },
    {
      "midi": 60,
      "hit": false,
      "t": 15576.921000000002,
      "d": 1009.6152499999989,
      "v": 110
    },
    {
      "midi": 66,
      "hit": false,
      "t": 15576.921000000011,
      "d": 480.76916666666693,
      "v": 110
    },
    {
      "midi": 74,
      "hit": false,
      "t": 15576.921000000011,
      "d": 1009.6152500000007,
      "v": 110
    },
    {
      "midi": 55,
      "hit": false,
      "t": 16153.844000000003,
      "d": 480.7691666666633,
      "v": 110
    },
    {
      "midi": 65,
      "hit": false,
      "t": 16153.844000000012,
      "d": 480.7691666666651,
      "v": 110
    },
    {
      "midi": 59,
      "hit": false,
      "t": 16730.767,
      "d": 480.7691666666651,
      "v": 110
    },
    {
      "midi": 75,
      "hit": false,
      "t": 16730.76700000001,
      "d": 480.7691666666651,
      "v": 110
    },
    {
      "midi": 48,
      "hit": false,
      "t": 17307.69,
      "d": 1586.5382500000014,
      "v": 110
    },
    {
      "midi": 55,
      "hit": false,
      "t": 17307.69,
      "d": 1586.5382500000014,
      "v": 110
    },
    {
      "midi": 67,
      "hit": false,
      "t": 17307.69000000001,
      "d": 1586.5382500000014,
      "v": 110
    },
    {
      "midi": 75,
      "hit": false,
      "t": 17307.69000000001,
      "d": 1586.5382500000014,
      "v": 110
    },
    {
      "midi": 46,
      "hit": false,
      "t": 19038.459,
      "d": 1586.5382500000014,
      "v": 110
    },
    {
      "midi": 53,
      "hit": false,
      "t": 19038.459,
      "d": 2211.5381666666653,
      "v": 110
    },
    {
      "midi": 62,
      "hit": false,
      "t": 19038.45900000001,
      "d": 2211.5381666666653,
      "v": 110
    },
    {
      "midi": 68,
      "hit": false,
      "t": 19038.45900000001,
      "d": 2211.5381666666653,
      "v": 110
    },
    {
      "midi": 48,
      "hit": false,
      "t": 20769.228,
      "d": 1586.5382499999978,
      "v": 110
    },
    {
      "midi": 55,
      "hit": false,
      "t": 21346.150999999998,
      "d": 6201.922249999996,
      "v": 110
    },
    {
      "midi": 67,
      "hit": false,
      "t": 21346.15100000001,
      "d": 480.7691666666651,
      "v": 110
    },
    {
      "midi": 74,
      "hit": false,
      "t": 21923.074000000008,
      "d": 480.7691666666651,
      "v": 110
    },
    {
      "midi": 48,
      "hit": false,
      "t": 22499.996999999996,
      "d": 5048.076249999998,
      "v": 110
    },
    {
      "midi": 75,
      "hit": false,
      "t": 22499.997000000007,
      "d": 1009.6152499999989,
      "v": 110
    },
    {
      "midi": 62,
      "hit": false,
      "t": 23653.843000000004,
      "d": 186.29805208333346,
      "v": 110
    },
    {
      "midi": 63,
      "hit": false,
      "t": 23846.150666666672,
      "d": 186.29805208333346,
      "v": 110
    },
    {
      "midi": 65,
      "hit": false,
      "t": 24038.45833333334,
      "d": 186.29805208333346,
      "v": 110
    },
    {
      "midi": 67,
      "hit": false,
      "t": 24230.766000000007,
      "d": 1009.6152499999989,
      "v": 110
    },
    {
      "midi": 72,
      "hit": false,
      "t": 25384.612000000005,
      "d": 186.29805208333346,
      "v": 110
    },
    {
      "midi": 72,
      "hit": false,
      "t": 25576.919666666672,
      "d": 186.29805208333346,
      "v": 110
    },
    {
      "midi": 74,
      "hit": false,
      "t": 25769.22733333334,
      "d": 186.29805208333346,
      "v": 110
    },
    {
      "midi": 74,
      "hit": false,
      "t": 25961.535000000007,
      "d": 282.4518854166672,
      "v": 110
    },
    {
      "midi": 67,
      "hit": false,
      "t": 26249.99650000001,
      "d": 1298.0767500000002,
      "v": 110
    },
    {
      "midi": 48,
      "hit": false,
      "t": 27692.303999999993,
      "d": 480.7691666666651,
      "v": 110
    },
    {
      "midi": 67,
      "hit": false,
      "t": 27692.304000000007,
      "d": 1009.6152499999989,
      "v": 110
    },
    {
      "midi": 51,
      "hit": false,
      "t": 28269.22699999999,
      "d": 480.7691666666651,
      "v": 110
    },
    {
      "midi": 55,
      "hit": false,
      "t": 28846.14999999999,
      "d": 480.7691666666651,
      "v": 110
    },
    {
      "midi": 72,
      "hit": false,
      "t": 28846.150000000005,
      "d": 480.7691666666651,
      "v": 110
    },
    {
      "midi": 48,
      "hit": false,
      "t": 29423.07299999999,
      "d": 480.7691666666651,
      "v": 110
    },
    {
      "midi": 74,
      "hit": false,
      "t": 29423.073000000004,
      "d": 1009.6152499999989,
      "v": 110
    },
    {
      "midi": 51,
      "hit": false,
      "t": 29999.99599999999,
      "d": 480.7691666666651,
      "v": 110
    },
    {
      "midi": 55,
      "hit": false,
      "t": 30576.918999999987,
      "d": 480.7691666666651,
      "v": 110
    },
    {
      "midi": 75,
      "hit": false,
      "t": 30576.919,
      "d": 480.7691666666651,
      "v": 110
    },
    {
      "midi": 48,
      "hit": false,
      "t": 31153.841999999986,
      "d": 480.7691666666651,
      "v": 110
    },
    {
      "midi": 75,
      "hit": false,
      "t": 31153.842,
      "d": 1586.5382500000014,
      "v": 110
    },
    {
      "midi": 51,
      "hit": false,
      "t": 31730.764999999985,
      "d": 480.7691666666651,
      "v": 110
    },
    {
      "midi": 56,
      "hit": false,
      "t": 32307.687999999984,
      "d": 480.76916666666875,
      "v": 110
    },
    {
      "midi": 48,
      "hit": false,
      "t": 32884.61099999998,
      "d": 480.7691666666651,
      "v": 110
    },
    {
      "midi": 68,
      "hit": false,
      "t": 32884.611000000004,
      "d": 1586.5382499999978,
      "v": 110
    },
    {
      "midi": 51,
      "hit": false,
      "t": 33461.53399999998,
      "d": 480.7691666666651,
      "v": 110
    },
    {
      "midi": 56,
      "hit": false,
      "t": 34038.45699999997,
      "d": 480.7691666666651,
      "v": 110
    },
    {
      "midi": 50,
      "hit": false,
      "t": 34615.37999999997,
      "d": 480.7691666666651,
      "v": 110
    },
    {
      "midi": 70,
      "hit": false,
      "t": 34615.380000000005,
      "d": 1009.6152500000026,
      "v": 110
    },
    {
      "midi": 53,
      "hit": false,
      "t": 35192.30299999996,
      "d": 480.7691666666651,
      "v": 110
    },
    {
      "midi": 58,
      "hit": false,
      "t": 35769.22599999996,
      "d": 480.7691666666651,
      "v": 110
    },
    {
      "midi": 77,
      "hit": false,
      "t": 35769.22600000001,
      "d": 480.7691666666651,
      "v": 110
    },
    {
      "midi": 50,
      "hit": false,
      "t": 36346.148999999954,
      "d": 480.7691666666651,
      "v": 110
    },
    {
      "midi": 79,
      "hit": false,
      "t": 36346.149000000005,
      "d": 1009.6152500000026,
      "v": 110
    },
    {
      "midi": 53,
      "hit": false,
      "t": 36923.07199999995,
      "d": 480.7691666666651,
      "v": 110
    },
    {
      "midi": 58,
      "hit": false,
      "t": 37499.994999999944,
      "d": 480.7691666666651,
      "v": 110
    },
    {
      "midi": 80,
      "hit": false,
      "t": 37499.99500000001,
      "d": 480.7691666666651,
      "v": 110
    },
    {
      "midi": 51,
      "hit": false,
      "t": 38076.91799999994,
      "d": 480.7691666666651,
      "v": 110
    },
    {
      "midi": 79,
      "hit": false,
      "t": 38076.918000000005,
      "d": 2211.5381666666653,
      "v": 110
    },
    {
      "midi": 55,
      "hit": false,
      "t": 38653.840999999935,
      "d": 480.7691666666651,
      "v": 110
    },
    {
      "midi": 58,
      "hit": false,
      "t": 39230.76399999993,
      "d": 480.7691666666651,
      "v": 110
    },
    {
      "midi": 51,
      "hit": false,
      "t": 39807.686999999925,
      "d": 480.7691666666651,
      "v": 110
    },
    {
      "midi": 55,
      "hit": false,
      "t": 40384.60999999992,
      "d": 480.7691666666651,
      "v": 110
    },
    {
      "midi": 82,
      "hit": false,
      "t": 40384.61,
      "d": 480.7691666666651,
      "v": 110
    },
    {
      "midi": 58,
      "hit": false,
      "t": 40961.532999999916,
      "d": 480.7691666666651,
      "v": 110
    },
    {
      "midi": 80,
      "hit": false,
      "t": 40961.532999999996,
      "d": 480.7691666666651,
      "v": 110
    },
    {
      "midi": 47,
      "hit": false,
      "t": 41538.45599999991,
      "d": 480.7691666666651,
      "v": 110
    },
    {
      "midi": 79,
      "hit": false,
      "t": 41538.45599999999,
      "d": 1009.6152500000026,
      "v": 110
    },
    {
      "midi": 50,
      "hit": false,
      "t": 42115.378999999906,
      "d": 480.7691666666651,
      "v": 110
    },
    {
      "midi": 56,
      "hit": false,
      "t": 42692.3019999999,
      "d": 480.7691666666651,
      "v": 110
    },
    {
      "midi": 77,
      "hit": false,
      "t": 42692.301999999996,
      "d": 1057.6921666666676,
      "v": 110
    },
    {
      "midi": 47,
      "hit": false,
      "t": 43269.2249999999,
      "d": 480.7691666666651,
      "v": 110
    },
    {
      "midi": 50,
      "hit": false,
      "t": 43846.14799999989,
      "d": 480.7691666666651,
      "v": 110
    },
    {
      "midi": 80,
      "hit": false,
      "t": 43846.147999999994,
      "d": 480.7691666666651,
      "v": 110
    },
    {
      "midi": 56,
      "hit": false,
      "t": 44423.07099999989,
      "d": 480.7691666666651,
      "v": 110
    },
    {
      "midi": 79,
      "hit": false,
      "t": 44423.07099999999,
      "d": 480.7691666666651,
      "v": 110
    },
    {
      "midi": 48,
      "hit": false,
      "t": 44999.99399999988,
      "d": 480.7691666666651,
      "v": 110
    },
    {
      "midi": 77,
      "hit": false,
      "t": 44999.993999999984,
      "d": 1009.6152500000026,
      "v": 110
    },
    {
      "midi": 51,
      "hit": false,
      "t": 45576.91699999988,
      "d": 480.7691666666651,
      "v": 110
    },
    {
      "midi": 55,
      "hit": false,
      "t": 46153.83999999987,
      "d": 480.7691666666651,
      "v": 110
    },
    {
      "midi": 75,
      "hit": false,
      "t": 46153.83999999999,
      "d": 1057.6921666666676,
      "v": 110
    },
    {
      "midi": 48,
      "hit": false,
      "t": 46730.76299999987,
      "d": 480.7691666666651,
      "v": 110
    },
    {
      "midi": 51,
      "hit": false,
      "t": 47307.68599999986,
      "d": 480.7691666666651,
      "v": 110
    },
    {
      "midi": 79,
      "hit": false,
      "t": 47307.68599999999,
      "d": 480.7691666666651,
      "v": 110
    },
    {
      "midi": 55,
      "hit": false,
      "t": 47884.60899999986,
      "d": 480.7691666666651,
      "v": 110
    },
    {
      "midi": 77,
      "hit": false,
      "t": 47884.60899999998,
      "d": 480.7691666666651,
      "v": 110
    },
    {
      "midi": 50,
      "hit": false,
      "t": 48461.531999999854,
      "d": 480.7691666666651,
      "v": 110
    },
    {
      "midi": 75,
      "hit": false,
      "t": 48461.53199999998,
      "d": 480.7691666666651,
      "v": 110
    },
    {
      "midi": 53,
      "hit": false,
      "t": 49038.45499999985,
      "d": 480.7691666666651,
      "v": 110
    },
    {
      "midi": 73,
      "hit": false,
      "t": 49038.45499999997,
      "d": 480.7691666666651,
      "v": 110
    },
    {
      "midi": 61,
      "hit": false,
      "t": 49615.377999999844,
      "d": 480.7691666666651,
      "v": 110
    },
    {
      "midi": 80,
      "hit": false,
      "t": 49615.37799999997,
      "d": 1057.6921666666676,
      "v": 110
    },
    {
      "midi": 50,
      "hit": false,
      "t": 50192.30099999984,
      "d": 480.7691666666651,
      "v": 110
    },
    {
      "midi": 53,
      "hit": false,
      "t": 50769.223999999835,
      "d": 480.7691666666651,
      "v": 110
    },
    {
      "midi": 77,
      "hit": false,
      "t": 50769.223999999966,
      "d": 480.7691666666651,
      "v": 110
    },
    {
      "midi": 61,
      "hit": false,
      "t": 51346.14699999983,
      "d": 480.7691666666651,
      "v": 110
    },
    {
      "midi": 73,
      "hit": false,
      "t": 51346.14699999996,
      "d": 480.7691666666651,
      "v": 110
    },
    {
      "midi": 55,
      "hit": false,
      "t": 51923.069999999825,
      "d": 480.7691666666651,
      "v": 110
    },
    {
      "midi": 72,
      "hit": false,
      "t": 51923.069999999956,
      "d": 1586.5382499999978,
      "v": 110
    },
    {
      "midi": 60,
      "hit": false,
      "t": 52499.99299999982,
      "d": 480.7691666666651,
      "v": 110
    },
    {
      "midi": 63,
      "hit": false,
      "t": 53076.915999999816,
      "d": 480.7691666666651,
      "v": 110
    },
    {
      "midi": 55,
      "hit": false,
      "t": 53653.83899999981,
      "d": 1586.5382499999978,
      "v": 110
    },
    {
      "midi": 62,
      "hit": false,
      "t": 53653.83899999981,
      "d": 1586.5382499999978,
      "v": 110
    },
    {
      "midi": 71,
      "hit": false,
      "t": 53653.838999999956,
      "d": 1586.5382499999978,
      "v": 110
    },
    {
      "midi": 43,
      "hit": false,
      "t": 55384.60799999981,
      "d": 480.7691666666651,
      "v": 110
    },
    {
      "midi": 68,
      "hit": false,
      "t": 55384.60799999996,
      "d": 1586.5382499999978,
      "v": 110
    },
    {
      "midi": 47,
      "hit": false,
      "t": 55961.530999999806,
      "d": 480.7691666666651,
      "v": 110
    },
    {
      "midi": 53,
      "hit": false,
      "t": 56538.4539999998,
      "d": 480.7691666666651,
      "v": 110
    },
    {
      "midi": 43,
      "hit": false,
      "t": 57115.3769999998,
      "d": 480.7691666666651,
      "v": 110
    },
    {
      "midi": 67,
      "hit": false,
      "t": 57115.37699999996,
      "d": 2740.384250000003,
      "v": 110
    },
    {
      "midi": 47,
      "hit": false,
      "t": 57692.29999999979,
      "d": 480.7691666666651,
      "v": 110
    },
    {
      "midi": 53,
      "hit": false,
      "t": 58269.22299999979,
      "d": 480.7691666666651,
      "v": 110
    },
    {
      "midi": 48,
      "hit": false,
      "t": 58846.14599999978,
      "d": 480.7691666666651,
      "v": 110
    },
    {
      "midi": 51,
      "hit": false,
      "t": 59423.06899999978,
      "d": 480.7691666666651,
      "v": 110
    },
    {
      "midi": 55,
      "hit": false,
      "t": 59999.99199999977,
      "d": 480.7691666666651,
      "v": 110
    },
    {
      "midi": 74,
      "hit": false,
      "t": 59999.99199999996,
      "d": 480.7691666666651,
      "v": 110
    },
    {
      "midi": 48,
      "hit": false,
      "t": 60576.91499999977,
      "d": 480.7691666666651,
      "v": 110
    },
    {
      "midi": 75,
      "hit": false,
      "t": 60576.91499999996,
      "d": 1009.6152500000026,
      "v": 110
    },
    {
      "midi": 51,
      "hit": false,
      "t": 61153.83799999976,
      "d": 480.7691666666651,
      "v": 110
    },
    {
      "midi": 55,
      "hit": false,
      "t": 61730.76099999976,
      "d": 480.7691666666651,
      "v": 110
    },
    {
      "midi": 67,
      "hit": false,
      "t": 61730.76099999996,
      "d": 480.7691666666651,
      "v": 110
    },
    {
      "midi": 48,
      "hit": false,
      "t": 62307.683999999754,
      "d": 480.7691666666651,
      "v": 110
    },
    {
      "midi": 74,
      "hit": false,
      "t": 62307.68399999996,
      "d": 1586.5382499999978,
      "v": 110
    },
    {
      "midi": 53,
      "hit": false,
      "t": 62884.60699999975,
      "d": 480.7691666666651,
      "v": 110
    },
    {
      "midi": 56,
      "hit": false,
      "t": 63461.529999999744,
      "d": 480.7691666666651,
      "v": 110
    },
    {
      "midi": 48,
      "hit": false,
      "t": 64038.45299999974,
      "d": 480.7691666666651,
      "v": 110
    },
    {
      "midi": 65,
      "hit": false,
      "t": 64038.45299999996,
      "d": 1586.538250000005,
      "v": 110
    },
    {
      "midi": 53,
      "hit": false,
      "t": 64615.375999999735,
      "d": 480.7691666666651,
      "v": 110
    },
    {
      "midi": 56,
      "hit": false,
      "t": 65192.29899999973,
      "d": 480.7691666666724,
      "v": 110
    },
    {
      "midi": 48,
      "hit": false,
      "t": 65769.22199999973,
      "d": 480.7691666666651,
      "v": 110
    },
    {
      "midi": 67,
      "hit": false,
      "t": 65769.22199999997,
      "d": 1009.6152500000026,
      "v": 110
    },
    {
      "midi": 51,
      "hit": false,
      "t": 66346.14499999973,
      "d": 480.7691666666651,
      "v": 110
    },
    {
      "midi": 55,
      "hit": false,
      "t": 66923.06799999972,
      "d": 480.7691666666651,
      "v": 110
    },
    {
      "midi": 72,
      "hit": false,
      "t": 66923.06799999997,
      "d": 480.7691666666651,
      "v": 110
    },
    {
      "midi": 48,
      "hit": false,
      "t": 67499.99099999972,
      "d": 480.7691666666651,
      "v": 110
    },
    {
      "midi": 74,
      "hit": false,
      "t": 67499.99099999997,
      "d": 1009.6152500000026,
      "v": 110
    },
    {
      "midi": 51,
      "hit": false,
      "t": 68076.91399999971,
      "d": 480.7691666666651,
      "v": 110
    },
    {
      "midi": 55,
      "hit": false,
      "t": 68653.83699999971,
      "d": 480.7691666666651,
      "v": 110
    },
    {
      "midi": 75,
      "hit": false,
      "t": 68653.83699999997,
      "d": 480.7691666666651,
      "v": 110
    },
    {
      "midi": 48,
      "hit": false,
      "t": 69230.7599999997,
      "d": 480.7691666666651,
      "v": 110
    },
    {
      "midi": 75,
      "hit": false,
      "t": 69230.75999999997,
      "d": 1586.5382499999978,
      "v": 110
    },
    {
      "midi": 51,
      "hit": false,
      "t": 69807.6829999997,
      "d": 480.7691666666651,
      "v": 110
    },
    {
      "midi": 56,
      "hit": false,
      "t": 70384.6059999997,
      "d": 480.7691666666651,
      "v": 110
    },
    {
      "midi": 48,
      "hit": false,
      "t": 70961.52899999969,
      "d": 480.7691666666651,
      "v": 110
    },
    {
      "midi": 68,
      "hit": false,
      "t": 70961.52899999997,
      "d": 1586.5382499999978,
      "v": 110
    },
    {
      "midi": 50,
      "hit": false,
      "t": 71538.45199999968,
      "d": 480.7691666666651,
      "v": 110
    },
    {
      "midi": 53,
      "hit": false,
      "t": 72115.37499999968,
      "d": 480.7691666666651,
      "v": 110
    },
    {
      "midi": 48,
      "hit": false,
      "t": 72692.29799999968,
      "d": 480.7691666666651,
      "v": 110
    },
    {
      "midi": 67,
      "hit": false,
      "t": 72692.29799999997,
      "d": 1009.6152500000026,
      "v": 110
    },
    {
      "midi": 51,
      "hit": false,
      "t": 73269.22099999967,
      "d": 480.7691666666651,
      "v": 110
    },
    {
      "midi": 55,
      "hit": false,
      "t": 73846.14399999967,
      "d": 480.7691666666651,
      "v": 110
    },
    {
      "midi": 72,
      "hit": false,
      "t": 73846.14399999997,
      "d": 480.7691666666651,
      "v": 110
    },
    {
      "midi": 48,
      "hit": false,
      "t": 74423.06699999966,
      "d": 480.7691666666651,
      "v": 110
    },
    {
      "midi": 74,
      "hit": false,
      "t": 74423.06699999997,
      "d": 1009.6152500000026,
      "v": 110
    },
    {
      "midi": 51,
      "hit": false,
      "t": 74999.98999999966,
      "d": 480.7691666666651,
      "v": 110
    },
    {
      "midi": 55,
      "hit": false,
      "t": 75576.91299999965,
      "d": 480.7691666666651,
      "v": 110
    },
    {
      "midi": 75,
      "hit": false,
      "t": 75576.91299999997,
      "d": 480.7691666666651,
      "v": 110
    },
    {
      "midi": 48,
      "hit": false,
      "t": 76153.83599999965,
      "d": 480.7691666666651,
      "v": 110
    },
    {
      "midi": 75,
      "hit": false,
      "t": 76153.83599999997,
      "d": 1586.5382499999978,
      "v": 110
    },
    {
      "midi": 51,
      "hit": false,
      "t": 76730.75899999964,
      "d": 480.7691666666651,
      "v": 110
    },
    {
      "midi": 56,
      "hit": false,
      "t": 77307.68199999964,
      "d": 480.7691666666651,
      "v": 110
    },
    {
      "midi": 48,
      "hit": false,
      "t": 77884.60499999963,
      "d": 480.7691666666651,
      "v": 110
    },
    {
      "midi": 68,
      "hit": false,
      "t": 77884.60499999997,
      "d": 1586.5382499999978,
      "v": 110
    },
    {
      "midi": 50,
      "hit": false,
      "t": 78461.52799999963,
      "d": 480.7691666666651,
      "v": 110
    },
    {
      "midi": 53,
      "hit": false,
      "t": 79038.45099999962,
      "d": 480.7691666666651,
      "v": 110
    },
    {
      "midi": 48,
      "hit": false,
      "t": 79615.37399999962,
      "d": 1586.5382499999978,
      "v": 110
    },
    {
      "midi": 55,
      "hit": false,
      "t": 79615.37399999962,
      "d": 1586.5382499999978,
      "v": 110
    },
    {
      "midi": 63,
      "hit": false,
      "t": 79615.37399999997,
      "d": 1586.5382499999978,
      "v": 110
    },
    {
      "midi": 67,
      "hit": false,
      "t": 79615.37399999997,
      "d": 1586.5382499999978,
      "v": 110
    },
    {
      "midi": 48,
      "hit": false,
      "t": 81346.14299999962,
      "d": 1586.5382499999978,
      "v": 110
    },
    {
      "midi": 55,
      "hit": false,
      "t": 81346.14299999962,
      "d": 1586.5382499999978,
      "v": 110
    },
    {
      "midi": 63,
      "hit": false,
      "t": 81346.14299999997,
      "d": 1586.5382499999978,
      "v": 110
    },
    {
      "midi": 67,
      "hit": false,
      "t": 81346.14299999997,
      "d": 1586.5382499999978,
      "v": 110
    },
    {
      "midi": 48,
      "hit": false,
      "t": 83076.91199999962,
      "d": 3317.307249999998,
      "v": 110
    },
    {
      "midi": 55,
      "hit": false,
      "t": 83076.91199999962,
      "d": 3317.307249999998,
      "v": 110
    },
    {
      "midi": 63,
      "hit": false,
      "t": 83076.91199999997,
      "d": 3317.307249999998,
      "v": 110
    },
    {
      "midi": 67,
      "hit": false,
      "t": 83076.91199999997,
      "d": 3317.307249999998,
      "v": 110
    }
  ]
}