{
  "jsonPath": "Pop/Italian Pop/Paolo Meneguzzi/mi-sei-mancata.json",
  "path": "Pop\\Italian Pop\\Paolo Meneguzzi\\Mi Sei Mancata.mid",
  "name": "Mi Sei Mancata",
  "difficulty": "Advanced",
  "bpm": 90.00009000009,
  "notes": [
    {
      "midi": 42,
      "hit": false,
      "t": 15999.984,
      "d": 27.777749999999287,
      "v": 85
    },
    {
      "midi": 57,
      "hit": false,
      "t": 15999.984,
      "d": 27.777749999999287,
      "v": 90
    },
    {
      "midi": 42,
      "hit": false,
      "t": 16166.6505,
      "d": 27.777749999999287,
      "v": 50
    },
    {
      "midi": 42,
      "hit": false,
      "t": 16333.317,
      "d": 27.777749999999287,
      "v": 70
    },
    {
      "midi": 42,
      "hit": false,
      "t": 16499.9835,
      "d": 27.777750000001106,
      "v": 50
    },
    {
      "midi": 42,
      "hit": false,
      "t": 16666.649999999998,
      "d": 27.777750000001106,
      "v": 85
    },
    {
      "midi": 42,
      "hit": false,
      "t": 16833.316499999997,
      "d": 27.777750000001106,
      "v": 50
    },
    {
      "midi": 42,
      "hit": false,
      "t": 16999.982999999997,
      "d": 27.777750000001106,
      "v": 70
    },
    {
      "midi": 42,
      "hit": false,
      "t": 17166.649499999996,
      "d": 27.777750000001106,
      "v": 50
    },
    {
      "midi": 42,
      "hit": false,
      "t": 17333.315999999995,
      "d": 27.777750000001106,
      "v": 85
    },
    {
      "midi": 42,
      "hit": false,
      "t": 17499.982499999995,
      "d": 27.777750000001106,
      "v": 50
    },
    {
      "midi": 42,
      "hit": false,
      "t": 17666.648999999994,
      "d": 27.777750000001106,
      "v": 70
    },
    {
      "midi": 42,
      "hit": false,
      "t": 17833.315499999993,
      "d": 27.777750000001106,
      "v": 50
    },
    {
      "midi": 42,
      "hit": false,
      "t": 17999.981999999993,
      "d": 27.777750000001106,
      "v": 85
    },
    {
      "midi": 42,
      "hit": false,
      "t": 18166.648499999992,
      "d": 27.777750000001106,
      "v": 50
    },
    {
      "midi": 42,
      "hit": false,
      "t": 18333.31499999999,
      "d": 27.777750000001106,
      "v": 70
    },
    {
      "midi": 42,
      "hit": false,
      "t": 18499.98149999999,
      "d": 27.777750000001106,
      "v": 50
    },
    {
      "midi": 42,
      "hit": false,
      "t": 18666.64799999999,
      "d": 27.777750000001106,
      "v": 85
    },
    {
      "midi": 42,
      "hit": false,
      "t": 18833.31449999999,
      "d": 27.777750000001106,
      "v": 50
    },
    {
      "midi": 42,
      "hit": false,
      "t": 18999.98099999999,
      "d": 27.777750000001106,
      "v": 70
    },
    {
      "midi": 42,
      "hit": false,
      "t": 19166.64749999999,
      "d": 27.777750000001106,
      "v": 50
    },
    {
      "midi": 42,
      "hit": false,
      "t": 19333.313999999988,
      "d": 27.777750000001106,
      "v": 85
    },
    {
      "midi": 42,
      "hit": false,
      "t": 19499.980499999987,
      "d": 27.777750000001106,
      "v": 50
    },
    {
      "midi": 42,
      "hit": false,
      "t": 19666.646999999986,
      "d": 27.777750000001106,
      "v": 70
    },
    {
      "midi": 42,
      "hit": false,
      "t": 19833.313499999986,
      "d": 27.777750000001106,
      "v": 50
    },
    {
      "midi": 42,
      "hit": false,
      "t": 19999.979999999985,
      "d": 27.777750000001106,
      "v": 85
    },
    {
      "midi": 42,
      "hit": false,
      "t": 20166.646499999984,
      "d": 27.777750000001106,
      "v": 50
    },
    {
      "midi": 42,
      "hit": false,
      "t": 20333.312999999984,
      "d": 27.777750000001106,
      "v": 70
    },
    {
      "midi": 42,
      "hit": false,
      "t": 20499.979499999983,
      "d": 27.777750000001106,
      "v": 50
    },
    {
      "midi": 42,
      "hit": false,
      "t": 20666.645999999982,
      "d": 27.777750000001106,
      "v": 85
    },
    {
      "midi": 42,
      "hit": false,
      "t": 20833.31249999998,
      "d": 27.777750000001106,
      "v": 50
    },
    {
      "midi": 42,
      "hit": false,
      "t": 20999.97899999998,
      "d": 27.777750000001106,
      "v": 70
    },
    {
      "midi": 42,
      "hit": false,
      "t": 21166.64549999998,
      "d": 27.777750000001106,
      "v": 50
    },
    {
      "midi": 42,
      "hit": false,
      "t": 21333.31199999998,
      "d": 27.777750000001106,
      "v": 85
    },
    {
      "midi": 42,
      "hit": false,
      "t": 21499.97849999998,
      "d": 27.777750000001106,
      "v": 50
    },
    {
      "midi": 42,
      "hit": false,
      "t": 21666.64499999998,
      "d": 27.777750000001106,
      "v": 70
    },
    {
      "midi": 42,
      "hit": false,
      "t": 21833.311499999978,
      "d": 27.777750000001106,
      "v": 50
    },
    {
      "midi": 42,
      "hit": false,
      "t": 21999.977999999977,
      "d": 27.777750000001106,
      "v": 85
    },
    {
      "midi": 42,
      "hit": false,
      "t": 22166.644499999977,
      "d": 27.777750000001106,
      "v": 50
    },
    {
      "midi": 42,
      "hit": false,
      "t": 22333.310999999976,
      "d": 27.777750000001106,
      "v": 70
    },
    {
      "midi": 42,
      "hit": false,
      "t": 22499.977499999975,
      "d": 27.777750000001106,
      "v": 50
    },
    {
      "midi": 42,
      "hit": false,
      "t": 22666.643999999975,
      "d": 27.777750000001106,
      "v": 85
    },
    {
      "midi": 42,
      "hit": false,
      "t": 22833.310499999974,
      "d": 27.777750000001106,
      "v": 50
    },
    {
      "midi": 42,
      "hit": false,
      "t": 22999.976999999973,
      "d": 27.777750000001106,
      "v": 70
    },
    {
      "midi": 42,
      "hit": false,
      "t": 23166.643499999973,
      "d": 27.777750000001106,
      "v": 50
    },
    {
      "midi": 42,
      "hit": false,
      "t": 23333.309999999972,
      "d": 27.777750000001106,
      "v": 85
    },
    {
      "midi": 42,
      "hit": false,
      "t": 23499.97649999997,
      "d": 27.777750000001106,
      "v": 50
    },
    {
      "midi": 42,
      "hit": false,
      "t": 23666.64299999997,
      "d": 27.777750000001106,
      "v": 70
    },
    {
      "midi": 42,
      "hit": false,
      "t": 23833.30949999997,
      "d": 27.777750000001106,
      "v": 50
    },
    {
      "midi": 42,
      "hit": false,
      "t": 23999.97599999997,
      "d": 27.777750000001106,
      "v": 85
    },
    {
      "midi": 42,
      "hit": false,
      "t": 24166.64249999997,
      "d": 27.777750000001106,
      "v": 50
    },
    {
      "midi": 42,
      "hit": false,
      "t": 24333.30899999997,
      "d": 27.777750000001106,
      "v": 70
    },
    {
      "midi": 42,
      "hit": false,
      "t": 24499.975499999968,
      "d": 27.777750000001106,
      "v": 50
    },
    {
      "midi": 42,
      "hit": false,
      "t": 24666.641999999967,
      "d": 27.777750000001106,
      "v": 85
    },
    {
      "midi": 42,
      "hit": false,
      "t": 24833.308499999966,
      "d": 27.777750000001106,
      "v": 50
    },
    {
      "midi": 42,
      "hit": false,
      "t": 24999.974999999966,
      "d": 27.777750000001106,
      "v": 70
    },
    {
      "midi": 42,
      "hit": false,
      "t": 25166.641499999965,
      "d": 27.777750000001106,
      "v": 50
    },
    {
      "midi": 42,
      "hit": false,
      "t": 25333.307999999965,
      "d": 27.777750000001106,
      "v": 85
    },
    {
      "midi": 42,
      "hit": false,
      "t": 25499.974499999964,
      "d": 27.777750000001106,
      "v": 50
    },
    {
      "midi": 42,
      "hit": false,
      "t": 25666.640999999963,
      "d": 27.777750000001106,
      "v": 70
    },
    {
      "midi": 42,
      "hit": false,
      "t": 25833.307499999963,
      "d": 27.777750000001106,
      "v": 50
    },
    {
      "midi": 42,
      "hit": false,
      "t": 25999.973999999962,
      "d": 27.777750000001106,
      "v": 85
    },
    {
      "midi": 42,
      "hit": false,
      "t": 26166.64049999996,
      "d": 27.777750000001106,
      "v": 50
    },
    {
      "midi": 42,
      "hit": false,
      "t": 26333.30699999996,
      "d": 27.777750000001106,
      "v": 70
    },
    {
      "midi": 42,
      "hit": false,
      "t": 26499.97349999996,
      "d": 27.777750000001106,
      "v": 50
    },
    {
      "midi": 42,
      "hit": false,
      "t": 26666.63999999996,
      "d": 27.777750000001106,
      "v": 85
    },
    {
      "midi": 42,
      "hit": false,
      "t": 26833.30649999996,
      "d": 27.777750000001106,
      "v": 50
    },
    {
      "midi": 42,
      "hit": false,
      "t": 26999.972999999958,
      "d": 27.777750000001106,
      "v": 70
    },
    {
      "midi": 42,
      "hit": false,
      "t": 27166.639499999957,
      "d": 27.777750000001106,
      "v": 50
    },
    {
      "midi": 42,
      "hit": false,
      "t": 27333.305999999957,
      "d": 27.777750000001106,
      "v": 85
    },
    {
      "midi": 42,
      "hit": false,
      "t": 27499.972499999956,
      "d": 27.777750000001106,
      "v": 50
    },
    {
      "midi": 42,
      "hit": false,
      "t": 27666.638999999956,
      "d": 27.777750000001106,
      "v": 70
    },
    {
      "midi": 42,
      "hit": false,
      "t": 27833.305499999955,
      "d": 27.777750000001106,
      "v": 50
    },
    {
      "midi": 42,
      "hit": false,
      "t": 27999.971999999954,
      "d": 27.777750000001106,
      "v": 85
    },
    {
      "midi": 42,
      "hit": false,
      "t": 28166.638499999954,
      "d": 27.777750000001106,
      "v": 50
    },
    {
      "midi": 42,
      "hit": false,
      "t": 28333.304999999953,
      "d": 27.777750000001106,
      "v": 70
    },
    {
      "midi": 42,
      "hit": false,
      "t": 28499.971499999952,
      "d": 27.777750000001106,
      "v": 50
    },
    {
      "midi": 42,
      "hit": false,
      "t": 28666.63799999995,
      "d": 27.777750000001106,
      "v": 85
    },
    {
      "midi": 42,
      "hit": false,
      "t": 28833.30449999995,
      "d": 27.777750000001106,
      "v": 50
    },
    {
      "midi": 42,
      "hit": false,
      "t": 28999.97099999995,
      "d": 27.777750000001106,
      "v": 70
    },
    {
      "midi": 42,
      "hit": false,
      "t": 29166.63749999995,
      "d": 27.777750000001106,
      "v": 50
    },
    {
      "midi": 42,
      "hit": false,
      "t": 29333.30399999995,
      "d": 27.777750000001106,
      "v": 85
    },
    {
      "midi": 42,
      "hit": false,
      "t": 29499.97049999995,
      "d": 27.777750000001106,
      "v": 50
    },
    {
      "midi": 42,
      "hit": false,
      "t": 29666.636999999948,
      "d": 27.777750000001106,
      "v": 70
    },
    {
      "midi": 42,
      "hit": false,
      "t": 29833.303499999947,
      "d": 27.777750000001106,
      "v": 50
    },
    {
      "midi": 42,
      "hit": false,
      "t": 29999.969999999947,
      "d": 27.777750000001106,
      "v": 85
    },
    {
      "midi": 42,
      "hit": false,
      "t": 30166.636499999946,
      "d": 27.777750000001106,
      "v": 50
    },
    {
      "midi": 42,
      "hit": false,
      "t": 30333.302999999945,
      "d": 27.777750000001106,
      "v": 70
    },
    {
      "midi": 42,
      "hit": false,
      "t": 30499.969499999945,
      "d": 27.777750000001106,
      "v": 50
    },
    {
      "midi": 42,
      "hit": false,
      "t": 30666.635999999944,
      "d": 27.777750000001106,
      "v": 85
    },
    {
      "midi": 42,
      "hit": false,
      "t": 30833.302499999943,
      "d": 27.777750000001106,
      "v": 50
    },
    {
      "midi": 42,
      "hit": false,
      "t": 30999.968999999943,
      "d": 27.777750000001106,
      "v": 70
    },
    {
      "midi": 42,
      "hit": false,
      "t": 31166.635499999942,
      "d": 27.777750000001106,
      "v": 50
    },
    {
      "midi": 42,
      "hit": false,
      "t": 31333.30199999994,
      "d": 27.777750000001106,
      "v": 85
    },
    {
      "midi": 42,
      "hit": false,
      "t": 31499.96849999994,
      "d": 27.777750000001106,
      "v": 50
    },
    {
      "midi": 42,
      "hit": false,
      "t": 31666.63499999994,
      "d": 27.777750000001106,
      "v": 70
    },
    {
      "midi": 42,
      "hit": false,
      "t": 31833.30149999994,
      "d": 27.777750000001106,
      "v": 50
    },
    {
      "midi": 42,
      "hit": false,
      "t": 31999.96799999994,
      "d": 27.777750000001106,
      "v": 85
    },
    {
      "midi": 42,
      "hit": false,
      "t": 32166.63449999994,
      "d": 27.777750000001106,
      "v": 50
    },
    {
      "midi": 42,
      "hit": false,
      "t": 32333.300999999938,
      "d": 27.777750000001106,
      "v": 70
    },
    {
      "midi": 42,
      "hit": false,
      "t": 32499.967499999937,
      "d": 27.777750000001106,
      "v": 50
    },
    {
      "midi": 42,
      "hit": false,
      "t": 32666.633999999936,
      "d": 27.777750000001106,
      "v": 85
    },
    {
      "midi": 42,
      "hit": false,
      "t": 32833.30049999994,
      "d": 27.777750000001106,
      "v": 50
    },
    {
      "midi": 42,
      "hit": false,
      "t": 32999.96699999994,
      "d": 27.777750000001106,
      "v": 70
    },
    {
      "midi": 42,
      "hit": false,
      "t": 33166.63349999994,
      "d": 27.777750000001106,
      "v": 50
    },
    {
      "midi": 42,
      "hit": false,
      "t": 33333.29999999994,
      "d": 27.777750000001106,
      "v": 85
    },
    {
      "midi": 42,
      "hit": false,
      "t": 33499.96649999994,
      "d": 27.777750000001106,
      "v": 50
    },
    {
      "midi": 42,
      "hit": false,
      "t": 33666.632999999936,
      "d": 27.777750000001106,
      "v": 70
    },
    {
      "midi": 42,
      "hit": false,
      "t": 33833.299499999936,
      "d": 27.777750000001106,
      "v": 50
    },
    {
      "midi": 42,
      "hit": false,
      "t": 33999.965999999935,
      "d": 27.777750000001106,
      "v": 85
    },
    {
      "midi": 42,
      "hit": false,
      "t": 34166.632499999934,
      "d": 27.777750000001106,
      "v": 50
    },
    {
      "midi": 42,
      "hit": false,
      "t": 34333.29899999993,
      "d": 27.777750000001106,
      "v": 70
    },
    {
      "midi": 42,
      "hit": false,
      "t": 34499.96549999993,
      "d": 27.777750000001106,
      "v": 50
    },
    {
      "midi": 42,
      "hit": false,
      "t": 34666.63199999993,
      "d": 27.777750000001106,
      "v": 85
    },
    {
      "midi": 42,
      "hit": false,
      "t": 34833.29849999993,
      "d": 27.777750000001106,
      "v": 50
    },
    {
      "midi": 42,
      "hit": false,
      "t": 34999.96499999993,
      "d": 27.777750000001106,
      "v": 70
    },
    {
      "midi": 42,
      "hit": false,
      "t": 35166.63149999993,
      "d": 27.777750000001106,
      "v": 50
    },
    {
      "midi": 42,
      "hit": false,
      "t": 35333.29799999993,
      "d": 27.777750000001106,
      "v": 85
    },
    {
      "midi": 42,
      "hit": false,
      "t": 35499.96449999993,
      "d": 27.777750000001106,
      "v": 50
    },
    {
      "midi": 42,
      "hit": false,
      "t": 35666.63099999993,
      "d": 27.777750000001106,
      "v": 70
    },
    {
      "midi": 42,
      "hit": false,
      "t": 35833.29749999993,
      "d": 27.777750000001106,
      "v": 50
    },
    {
      "midi": 42,
      "hit": false,
      "t": 35999.96399999993,
      "d": 27.777750000001106,
      "v": 85
    },
    {
      "midi": 42,
      "hit": false,
      "t": 36166.63049999993,
      "d": 27.777750000001106,
      "v": 50
    },
    {
      "midi": 42,
      "hit": false,
      "t": 36333.296999999926,
      "d": 27.777750000001106,
      "v": 70
    },
    {
      "midi": 42,
      "hit": false,
      "t": 36499.963499999925,
      "d": 27.777750000001106,
      "v": 50
    },
    {
      "midi": 42,
      "hit": false,
      "t": 36666.629999999925,
      "d": 27.777750000001106,
      "v": 85
    },
    {
      "midi": 42,
      "hit": false,
      "t": 36833.296499999924,
      "d": 27.777750000001106,
      "v": 50
    },
    {
      "midi": 42,
      "hit": false,
      "t": 36999.96299999992,
      "d": 27.777750000001106,
      "v": 70
    },
    {
      "midi": 55,
      "hit": false,
      "t": 36999.96299999992,
      "d": 27.777750000001106,
      "v": 77
    },
    {
      "midi": 59,
      "hit": false,
      "t": 36999.96299999992,
      "d": 27.777750000001106,
      "v": 80
    },
    {
      "midi": 42,
      "hit": false,
      "t": 37166.62949999992,
      "d": 27.777750000001106,
      "v": 50
    },
    {
      "midi": 42,
      "hit": false,
      "t": 37333.29599999992,
      "d": 27.777750000001106,
      "v": 85
    },
    {
      "midi": 57,
      "hit": false,
      "t": 37333.29599999992,
      "d": 27.777750000001106,
      "v": 90
    },
    {
      "midi": 42,
      "hit": false,
      "t": 37499.96249999992,
      "d": 27.777750000001106,
      "v": 50
    },
    {
      "midi": 42,
      "hit": false,
      "t": 37666.62899999992,
      "d": 27.777750000001106,
      "v": 70
    },
    {
      "midi": 42,
      "hit": false,
      "t": 37833.29549999992,
      "d": 27.777750000001106,
      "v": 50
    },
    {
      "midi": 42,
      "hit": false,
      "t": 37999.96199999992,
      "d": 27.777750000001106,
      "v": 85
    },
    {
      "midi": 42,
      "hit": false,
      "t": 38166.62849999992,
      "d": 27.777750000001106,
      "v": 50
    },
    {
      "midi": 42,
      "hit": false,
      "t": 38333.29499999992,
      "d": 27.777750000001106,
      "v": 70
    },
    {
      "midi": 42,
      "hit": false,
      "t": 38499.96149999992,
      "d": 27.777750000001106,
      "v": 50
    },
    {
      "midi": 42,
      "hit": false,
      "t": 38666.62799999992,
      "d": 27.777750000001106,
      "v": 85
    },
    {
      "midi": 42,
      "hit": false,
      "t": 38833.294499999916,
      "d": 27.777750000001106,
      "v": 50
    },
    {
      "midi": 42,
      "hit": false,
      "t": 38999.960999999916,
      "d": 27.777750000001106,
      "v": 70
    },
    {
      "midi": 42,
      "hit": false,
      "t": 39166.627499999915,
      "d": 27.777750000001106,
      "v": 50
    },
    {
      "midi": 42,
      "hit": false,
      "t": 39333.293999999914,
      "d": 27.777750000001106,
      "v": 85
    },
    {
      "midi": 42,
      "hit": false,
      "t": 39499.960499999914,
      "d": 27.777750000001106,
      "v": 50
    },
    {
      "midi": 42,
      "hit": false,
      "t": 39666.62699999991,
      "d": 27.777750000001106,
      "v": 70
    },
    {
      "midi": 42,
      "hit": false,
      "t": 39833.29349999991,
      "d": 27.777750000001106,
      "v": 50
    },
    {
      "midi": 42,
      "hit": false,
      "t": 39999.95999999991,
      "d": 27.777750000001106,
      "v": 85
    },
    {
      "midi": 42,
      "hit": false,
      "t": 40166.62649999991,
      "d": 27.777750000001106,
      "v": 50
    },
    {
      "midi": 42,
      "hit": false,
      "t": 40333.29299999991,
      "d": 27.777750000001106,
      "v": 70
    },
    {
      "midi": 42,
      "hit": false,
      "t": 40499.95949999991,
      "d": 27.777750000001106,
      "v": 50
    },
    {
      "midi": 42,
      "hit": false,
      "t": 40666.62599999991,
      "d": 27.777750000001106,
      "v": 85
    },
    {
      "midi": 42,
      "hit": false,
      "t": 40833.29249999991,
      "d": 27.777750000001106,
      "v": 50
    },
    {
      "midi": 42,
      "hit": false,
      "t": 40999.95899999991,
      "d": 27.777750000001106,
      "v": 70
    },
    {
      "midi": 42,
      "hit": false,
      "t": 41166.62549999991,
      "d": 27.777750000001106,
      "v": 50
    },
    {
      "midi": 42,
      "hit": false,
      "t": 41333.29199999991,
      "d": 27.777750000001106,
      "v": 85
    },
    {
      "midi": 42,
      "hit": false,
      "t": 41499.958499999906,
      "d": 27.777750000001106,
      "v": 50
    },
    {
      "midi": 42,
      "hit": false,
      "t": 41666.624999999905,
      "d": 27.777750000001106,
      "v": 70
    },
    {
      "midi": 42,
      "hit": false,
      "t": 41833.291499999905,
      "d": 27.777750000001106,
      "v": 50
    },
    {
      "midi": 42,
      "hit": false,
      "t": 41999.957999999904,
      "d": 27.777750000001106,
      "v": 85
    },
    {
      "midi": 42,
      "hit": false,
      "t": 42166.6244999999,
      "d": 27.777750000001106,
      "v": 50
    },
    {
      "midi": 42,
      "hit": false,
      "t": 42333.2909999999,
      "d": 27.777750000001106,
      "v": 70
    },
    {
      "midi": 42,
      "hit": false,
      "t": 42499.9574999999,
      "d": 27.777750000001106,
      "v": 50
    },
    {
      "midi": 42,
      "hit": false,
      "t": 42666.6239999999,
      "d": 27.777750000001106,
      "v": 85
    },
    {
      "midi": 42,
      "hit": false,
      "t": 42833.2904999999,
      "d": 27.777750000001106,
      "v": 50
    },
    {
      "midi": 42,
      "hit": false,
      "t": 42999.9569999999,
      "d": 27.777750000001106,
      "v": 70
    },
    {
      "midi": 42,
      "hit": false,
      "t": 43166.6234999999,
      "d": 27.777750000001106,
      "v": 50
    },
    {
      "midi": 42,
      "hit": false,
      "t": 43333.2899999999,
      "d": 27.777750000001106,
      "v": 85
    },
    {
      "midi": 42,
      "hit": false,
      "t": 43499.9564999999,
      "d": 27.777750000001106,
      "v": 50
    },
    {
      "midi": 42,
      "hit": false,
      "t": 43666.6229999999,
      "d": 27.777750000001106,
      "v": 70
    },
    {
      "midi": 42,
      "hit": false,
      "t": 43833.2894999999,
      "d": 27.777750000001106,
      "v": 50
    },
    {
      "midi": 42,
      "hit": false,
      "t": 43999.9559999999,
      "d": 27.777750000001106,
      "v": 85
    },
    {
      "midi": 42,
      "hit": false,
      "t": 44166.622499999896,
      "d": 27.777750000001106,
      "v": 50
    },
    {
      "midi": 42,
      "hit": false,
      "t": 44333.288999999895,
      "d": 27.777750000001106,
      "v": 70
    },
    {
      "midi": 42,
      "hit": false,
      "t": 44499.955499999895,
      "d": 27.777750000001106,
      "v": 50
    },
    {
      "midi": 42,
      "hit": false,
      "t": 44666.621999999894,
      "d": 27.777750000001106,
      "v": 85
    },
    {
      "midi": 42,
      "hit": false,
      "t": 44833.28849999989,
      "d": 27.777750000001106,
      "v": 50
    },
    {
      "midi": 42,
      "hit": false,
      "t": 44999.95499999989,
      "d": 27.777750000001106,
      "v": 70
    },
    {
      "midi": 42,
      "hit": false,
      "t": 45166.62149999989,
      "d": 27.777750000001106,
      "v": 50
    },
    {
      "midi": 42,
      "hit": false,
      "t": 45333.28799999989,
      "d": 27.777750000001106,
      "v": 85
    },
    {
      "midi": 42,
      "hit": false,
      "t": 45499.95449999989,
      "d": 27.777750000001106,
      "v": 50
    },
    {
      "midi": 42,
      "hit": false,
      "t": 45666.62099999989,
      "d": 27.777750000001106,
      "v": 70
    },
    {
      "midi": 42,
      "hit": false,
      "t": 45833.28749999989,
      "d": 27.777750000001106,
      "v": 50
    },
    {
      "midi": 42,
      "hit": false,
      "t": 45999.95399999989,
      "d": 27.777750000001106,
      "v": 85
    },
    {
      "midi": 42,
      "hit": false,
      "t": 46166.62049999989,
      "d": 27.777750000001106,
      "v": 50
    },
    {
      "midi": 42,
      "hit": false,
      "t": 46333.28699999989,
      "d": 27.777750000001106,
      "v": 70
    },
    {
      "midi": 42,
      "hit": false,
      "t": 46499.95349999989,
      "d": 27.777750000001106,
      "v": 50
    },
    {
      "midi": 42,
      "hit": false,
      "t": 46666.619999999886,
      "d": 27.777750000001106,
      "v": 85
    },
    {
      "midi": 42,
      "hit": false,
      "t": 46833.286499999886,
      "d": 27.777750000001106,
      "v": 50
    },
    {
      "midi": 42,
      "hit": false,
      "t": 46999.952999999885,
      "d": 27.777750000001106,
      "v": 70
    },
    {
      "midi": 42,
      "hit": false,
      "t": 47166.619499999884,
      "d": 27.777750000001106,
      "v": 50
    },
    {
      "midi": 42,
      "hit": false,
      "t": 47333.285999999884,
      "d": 27.777750000001106,
      "v": 85
    },
    {
      "midi": 42,
      "hit": false,
      "t": 47499.95249999988,
      "d": 27.777750000001106,
      "v": 50
    },
    {
      "midi": 42,
      "hit": false,
      "t": 47666.61899999988,
      "d": 27.777750000001106,
      "v": 70
    },
    {
      "midi": 42,
      "hit": false,
      "t": 47833.28549999988,
      "d": 27.777750000001106,
      "v": 50
    },
    {
      "midi": 42,
      "hit": false,
      "t": 47999.95199999988,
      "d": 27.777750000001106,
      "v": 85
    },
    {
      "midi": 42,
      "hit": false,
      "t": 48166.61849999988,
      "d": 27.777750000001106,
      "v": 50
    },
    {
      "midi": 42,
      "hit": false,
      "t": 48333.28499999988,
      "d": 27.777750000001106,
      "v": 70
    },
    {
      "midi": 42,
      "hit": false,
      "t": 48499.95149999988,
      "d": 27.777750000001106,
      "v": 50
    },
    {
      "midi": 42,
      "hit": false,
      "t": 48666.61799999988,
      "d": 27.777750000001106,
      "v": 85
    },
    {
      "midi": 42,
      "hit": false,
      "t": 48833.28449999988,
      "d": 27.777750000001106,
      "v": 50
    },
    {
      "midi": 42,
      "hit": false,
      "t": 48999.95099999988,
      "d": 27.777750000001106,
      "v": 70
    },
    {
      "midi": 42,
      "hit": false,
      "t": 49166.61749999988,
      "d": 27.777750000001106,
      "v": 50
    },
    {
      "midi": 42,
      "hit": false,
      "t": 49333.283999999876,
      "d": 27.777750000001106,
      "v": 85
    },
    {
      "midi": 42,
      "hit": false,
      "t": 49499.950499999875,
      "d": 27.777750000001106,
      "v": 50
    },
    {
      "midi": 42,
      "hit": false,
      "t": 49666.616999999875,
      "d": 27.777750000001106,
      "v": 70
    },
    {
      "midi": 42,
      "hit": false,
      "t": 49833.283499999874,
      "d": 27.777750000001106,
      "v": 50
    },
    {
      "midi": 42,
      "hit": false,
      "t": 49999.94999999987,
      "d": 27.777750000001106,
      "v": 85
    },
    {
      "midi": 42,
      "hit": false,
      "t": 50166.61649999987,
      "d": 27.777750000001106,
      "v": 50
    },
    {
      "midi": 42,
      "hit": false,
      "t": 50333.28299999987,
      "d": 27.777750000001106,
      "v": 70
    },
    {
      "midi": 42,
      "hit": false,
      "t": 50499.94949999987,
      "d": 27.777750000001106,
      "v": 50
    },
    {
      "midi": 42,
      "hit": false,
      "t": 50666.61599999987,
      "d": 27.777750000001106,
      "v": 85
    },
    {
      "midi": 42,
      "hit": false,
      "t": 50833.28249999987,
      "d": 27.777750000001106,
      "v": 50
    },
    {
      "midi": 42,
      "hit": false,
      "t": 50999.94899999987,
      "d": 27.777750000001106,
      "v": 70
    },
    {
      "midi": 42,
      "hit": false,
      "t": 51166.61549999987,
      "d": 27.777750000001106,
      "v": 50
    },
    {
      "midi": 42,
      "hit": false,
      "t": 51333.28199999987,
      "d": 27.777750000001106,
      "v": 85
    },
    {
      "midi": 42,
      "hit": false,
      "t": 51499.94849999987,
      "d": 27.777750000001106,
      "v": 50
    },
    {
      "midi": 42,
      "hit": false,
      "t": 51666.61499999987,
      "d": 27.777750000001106,
      "v": 70
    },
    {
      "midi": 42,
      "hit": false,
      "t": 51833.281499999866,
      "d": 27.777750000001106,
      "v": 50
    },
    {
      "midi": 42,
      "hit": false,
      "t": 51999.947999999866,
      "d": 27.777750000001106,
      "v": 85
    },
    {
      "midi": 42,
      "hit": false,
      "t": 52166.614499999865,
      "d": 27.777750000001106,
      "v": 50
    },
    {
      "midi": 42,
      "hit": false,
      "t": 52333.280999999864,
      "d": 27.777750000001106,
      "v": 70
    },
    {
      "midi": 42,
      "hit": false,
      "t": 52499.947499999864,
      "d": 27.777750000001106,
      "v": 50
    },
    {
      "midi": 42,
      "hit": false,
      "t": 52666.61399999986,
      "d": 27.777750000001106,
      "v": 85
    },
    {
      "midi": 42,
      "hit": false,
      "t": 52833.28049999986,
      "d": 27.777750000001106,
      "v": 50
    },
    {
      "midi": 42,
      "hit": false,
      "t": 52999.94699999986,
      "d": 27.777750000001106,
      "v": 70
    },
    {
      "midi": 42,
      "hit": false,
      "t": 53166.61349999986,
      "d": 27.777750000001106,
      "v": 50
    },
    {
      "midi": 42,
      "hit": false,
      "t": 53333.27999999986,
      "d": 27.777750000001106,
      "v": 85
    },
    {
      "midi": 42,
      "hit": false,
      "t": 53499.94649999986,
      "d": 27.777750000001106,
      "v": 50
    },
    {
      "midi": 42,
      "hit": false,
      "t": 53666.61299999986,
      "d": 27.777750000001106,
      "v": 70
    },
    {
      "midi": 42,
      "hit": false,
      "t": 53833.27949999986,
      "d": 27.777750000001106,
      "v": 50
    },
    {
      "midi": 42,
      "hit": false,
      "t": 53999.94599999986,
      "d": 27.777750000001106,
      "v": 85
    },
    {
      "midi": 42,
      "hit": false,
      "t": 54166.61249999986,
      "d": 27.777750000001106,
      "v": 50
    },
    {
      "midi": 42,
      "hit": false,
      "t": 54333.27899999986,
      "d": 27.777750000001106,
      "v": 70
    },
    {
      "midi": 42,
      "hit": false,
      "t": 54499.945499999856,
      "d": 27.777750000001106,
      "v": 50
    },
    {
      "midi": 42,
      "hit": false,
      "t": 54666.611999999855,
      "d": 27.777750000001106,
      "v": 85
    },
    {
      "midi": 42,
      "hit": false,
      "t": 54833.278499999855,
      "d": 27.777750000001106,
      "v": 50
    },
    {
      "midi": 42,
      "hit": false,
      "t": 54999.944999999854,
      "d": 27.777750000001106,
      "v": 70
    },
    {
      "midi": 42,
      "hit": false,
      "t": 55166.61149999985,
      "d": 27.777750000001106,
      "v": 50
    },
    {
      "midi": 42,
      "hit": false,
      "t": 55333.27799999985,
      "d": 27.777750000001106,
      "v": 85
    },
    {
      "midi": 42,
      "hit": false,
      "t": 55499.94449999985,
      "d": 27.777750000001106,
      "v": 50
    },
    {
      "midi": 46,
      "hit": false,
      "t": 55666.61099999985,
      "d": 27.777750000001106,
      "v": 80
    },
    {
      "midi": 57,
      "hit": false,
      "t": 55999.94399999985,
      "d": 27.777750000001106,
      "v": 89
    },
    {
      "midi": 44,
      "hit": false,
      "t": 56666.609999999855,
      "d": 27.777750000001106,
      "v": 93
    },
    {
      "midi": 48,
      "hit": false,
      "t": 57479.10918749985,
      "d": 27.777750000001106,
      "v": 95
    },
    {
      "midi": 50,
      "hit": false,
      "t": 57499.94249999985,
      "d": 27.777750000001106,
      "v": 95
    },
    {
      "midi": 47,
      "hit": false,
      "t": 57833.27549999985,
      "d": 27.777750000001106,
      "v": 91
    },
    {
      "midi": 45,
      "hit": false,
      "t": 58166.60849999985,
      "d": 27.777750000001106,
      "v": 81
    },
    {
      "midi": 45,
      "hit": false,
      "t": 58333.27499999985,
      "d": 27.777750000001106,
      "v": 91
    },
    {
      "midi": 45,
      "hit": false,
      "t": 58499.94149999985,
      "d": 27.777750000001106,
      "v": 95
    },
    {
      "midi": 42,
      "hit": false,
      "t": 58666.60799999985,
      "d": 27.777750000001106,
      "v": 85
    },
    {
      "midi": 57,
      "hit": false,
      "t": 58666.60799999985,
      "d": 27.777750000001106,
      "v": 90
    },
    {
      "midi": 42,
      "hit": false,
      "t": 58833.27449999985,
      "d": 27.777750000001106,
      "v": 50
    },
    {
      "midi": 42,
      "hit": false,
      "t": 58999.940999999846,
      "d": 27.777750000001106,
      "v": 70
    },
    {
      "midi": 54,
      "hit": false,
      "t": 58999.940999999846,
      "d": 27.777750000001106,
      "v": 80
    },
    {
      "midi": 42,
      "hit": false,
      "t": 59166.607499999845,
      "d": 27.777750000001106,
      "v": 50
    },
    {
      "midi": 42,
      "hit": false,
      "t": 59333.273999999845,
      "d": 27.777750000001106,
      "v": 85
    },
    {
      "midi": 49,
      "hit": false,
      "t": 59333.273999999845,
      "d": 27.777750000001106,
      "v": 90
    },
    {
      "midi": 42,
      "hit": false,
      "t": 59499.940499999844,
      "d": 27.777750000001106,
      "v": 50
    },
    {
      "midi": 42,
      "hit": false,
      "t": 59666.60699999984,
      "d": 27.777750000001106,
      "v": 70
    },
    {
      "midi": 54,
      "hit": false,
      "t": 59666.60699999984,
      "d": 27.777750000001106,
      "v": 80
    },
    {
      "midi": 42,
      "hit": false,
      "t": 59833.27349999984,
      "d": 27.777750000001106,
      "v": 50
    },
    {
      "midi": 42,
      "hit": false,
      "t": 59999.93999999984,
      "d": 27.777750000001106,
      "v": 85
    },
    {
      "midi": 42,
      "hit": false,
      "t": 60166.60649999984,
      "d": 27.777750000001106,
      "v": 50
    },
    {
      "midi": 42,
      "hit": false,
      "t": 60333.27299999984,
      "d": 27.777750000001106,
      "v": 70
    },
    {
      "midi": 54,
      "hit": false,
      "t": 60333.27299999984,
      "d": 27.777750000001106,
      "v": 80
    },
    {
      "midi": 42,
      "hit": false,
      "t": 60499.93949999984,
      "d": 27.777750000001106,
      "v": 50
    },
    {
      "midi": 42,
      "hit": false,
      "t": 60666.60599999984,
      "d": 27.777750000001106,
      "v": 85
    },
    {
      "midi": 59,
      "hit": false,
      "t": 60666.60599999984,
      "d": 27.777750000001106,
      "v": 90
    },
    {
      "midi": 42,
      "hit": false,
      "t": 60833.27249999984,
      "d": 27.777750000001106,
      "v": 50
    },
    {
      "midi": 42,
      "hit": false,
      "t": 60999.93899999984,
      "d": 27.777750000001106,
      "v": 70
    },
    {
      "midi": 54,
      "hit": false,
      "t": 60999.93899999984,
      "d": 27.777750000001106,
      "v": 80
    },
    {
      "midi": 42,
      "hit": false,
      "t": 61166.60549999984,
      "d": 27.777750000001106,
      "v": 50
    },
    {
      "midi": 42,
      "hit": false,
      "t": 61333.27199999984,
      "d": 27.777750000001106,
      "v": 85
    },
    {
      "midi": 42,
      "hit": false,
      "t": 61499.93849999984,
      "d": 27.777750000001106,
      "v": 50
    },
    {
      "midi": 42,
      "hit": false,
      "t": 61666.604999999836,
      "d": 27.777750000001106,
      "v": 70
    },
    {
      "midi": 54,
      "hit": false,
      "t": 61666.604999999836,
      "d": 27.777750000001106,
      "v": 80
    },
    {
      "midi": 42,
      "hit": false,
      "t": 61833.271499999835,
      "d": 27.777750000001106,
      "v": 50
    },
    {
      "midi": 42,
      "hit": false,
      "t": 61999.937999999835,
      "d": 27.777750000001106,
      "v": 85
    },
    {
      "midi": 59,
      "hit": false,
      "t": 61999.937999999835,
      "d": 27.777750000001106,
      "v": 89
    },
    {
      "midi": 42,
      "hit": false,
      "t": 62166.604499999834,
      "d": 27.777750000001106,
      "v": 50
    },
    {
      "midi": 42,
      "hit": false,
      "t": 62333.27099999983,
      "d": 27.777750000001106,
      "v": 70
    },
    {
      "midi": 54,
      "hit": false,
      "t": 62333.27099999983,
      "d": 27.777750000001106,
      "v": 80
    },
    {
      "midi": 42,
      "hit": false,
      "t": 62499.93749999983,
      "d": 27.777750000001106,
      "v": 50
    },
    {
      "midi": 42,
      "hit": false,
      "t": 62666.60399999983,
      "d": 27.777750000001106,
      "v": 85
    },
    {
      "midi": 42,
      "hit": false,
      "t": 62833.27049999983,
      "d": 27.777750000001106,
      "v": 50
    },
    {
      "midi": 42,
      "hit": false,
      "t": 62999.93699999983,
      "d": 27.777750000001106,
      "v": 70
    },
    {
      "midi": 54,
      "hit": false,
      "t": 62999.93699999983,
      "d": 27.777750000001106,
      "v": 80
    },
    {
      "midi": 42,
      "hit": false,
      "t": 63166.60349999983,
      "d": 27.777750000001106,
      "v": 50
    },
    {
      "midi": 42,
      "hit": false,
      "t": 63333.26999999983,
      "d": 27.777750000001106,
      "v": 85
    },
    {
      "midi": 59,
      "hit": false,
      "t": 63333.26999999983,
      "d": 27.777750000001106,
      "v": 89
    },
    {
      "midi": 42,
      "hit": false,
      "t": 63499.93649999983,
      "d": 27.777750000001106,
      "v": 50
    },
    {
      "midi": 42,
      "hit": false,
      "t": 63666.60299999983,
      "d": 27.777750000001106,
      "v": 70
    },
    {
      "midi": 54,
      "hit": false,
      "t": 63666.60299999983,
      "d": 27.777750000001106,
      "v": 80
    },
    {
      "midi": 42,
      "hit": false,
      "t": 63833.26949999983,
      "d": 27.777750000001106,
      "v": 50
    },
    {
      "midi": 42,
      "hit": false,
      "t": 63999.93599999983,
      "d": 27.777750000001106,
      "v": 85
    },
    {
      "midi": 42,
      "hit": false,
      "t": 64166.602499999826,
      "d": 27.777750000001106,
      "v": 50
    },
    {
      "midi": 42,
      "hit": false,
      "t": 64333.268999999826,
      "d": 27.777750000001106,
      "v": 70
    },
    {
      "midi": 54,
      "hit": false,
      "t": 64333.268999999826,
      "d": 27.777750000001106,
      "v": 80
    },
    {
      "midi": 42,
      "hit": false,
      "t": 64499.935499999825,
      "d": 27.777750000001106,
      "v": 50
    },
    {
      "midi": 42,
      "hit": false,
      "t": 64666.601999999824,
      "d": 27.777750000001106,
      "v": 85
    },
    {
      "midi": 49,
      "hit": false,
      "t": 64666.601999999824,
      "d": 27.777750000001106,
      "v": 85
    },
    {
      "midi": 42,
      "hit": false,
      "t": 64833.268499999824,
      "d": 27.777750000001106,
      "v": 50
    },
    {
      "midi": 42,
      "hit": false,
      "t": 64999.93499999982,
      "d": 27.777750000001106,
      "v": 70
    },
    {
      "midi": 54,
      "hit": false,
      "t": 64999.93499999982,
      "d": 27.777750000001106,
      "v": 80
    },
    {
      "midi": 42,
      "hit": false,
      "t": 65166.60149999982,
      "d": 27.777750000001106,
      "v": 50
    },
    {
      "midi": 42,
      "hit": false,
      "t": 65333.26799999982,
      "d": 27.777750000001106,
      "v": 85
    },
    {
      "midi": 42,
      "hit": false,
      "t": 65499.93449999982,
      "d": 27.777750000001106,
      "v": 50
    },
    {
      "midi": 42,
      "hit": false,
      "t": 65666.60099999982,
      "d": 27.77774999999383,
      "v": 70
    },
    {
      "midi": 54,
      "hit": false,
      "t": 65666.60099999982,
      "d": 27.77774999999383,
      "v": 80
    },
    {
      "midi": 42,
      "hit": false,
      "t": 65833.26749999981,
      "d": 27.77774999999383,
      "v": 50
    },
    {
      "midi": 42,
      "hit": false,
      "t": 65999.9339999998,
      "d": 27.77774999999383,
      "v": 85
    },
    {
      "midi": 59,
      "hit": false,
      "t": 65999.9339999998,
      "d": 27.77774999999383,
      "v": 83
    },
    {
      "midi": 42,
      "hit": false,
      "t": 66166.6004999998,
      "d": 27.77774999999383,
      "v": 50
    },
    {
      "midi": 42,
      "hit": false,
      "t": 66333.26699999979,
      "d": 27.77774999999383,
      "v": 70
    },
    {
      "midi": 54,
      "hit": false,
      "t": 66333.26699999979,
      "d": 27.77774999999383,
      "v": 80
    },
    {
      "midi": 42,
      "hit": false,
      "t": 66499.93349999978,
      "d": 27.77774999999383,
      "v": 50
    },
    {
      "midi": 42,
      "hit": false,
      "t": 66666.59999999977,
      "d": 27.77774999999383,
      "v": 85
    },
    {
      "midi": 42,
      "hit": false,
      "t": 66833.26649999977,
      "d": 27.77774999999383,
      "v": 50
    },
    {
      "midi": 42,
      "hit": false,
      "t": 66999.93299999976,
      "d": 27.77774999999383,
      "v": 70
    },
    {
      "midi": 54,
      "hit": false,
      "t": 66999.93299999976,
      "d": 27.77774999999383,
      "v": 80
    },
    {
      "midi": 42,
      "hit": false,
      "t": 67166.59949999975,
      "d": 27.77774999999383,
      "v": 50
    },
    {
      "midi": 42,
      "hit": false,
      "t": 67333.26599999974,
      "d": 27.77774999999383,
      "v": 85
    },
    {
      "midi": 59,
      "hit": false,
      "t": 67333.26599999974,
      "d": 27.77774999999383,
      "v": 80
    },
    {
      "midi": 42,
      "hit": false,
      "t": 67499.93249999973,
      "d": 27.77774999999383,
      "v": 50
    },
    {
      "midi": 42,
      "hit": false,
      "t": 67666.59899999973,
      "d": 27.77774999999383,
      "v": 70
    },
    {
      "midi": 54,
      "hit": false,
      "t": 67666.59899999973,
      "d": 27.77774999999383,
      "v": 80
    },
    {
      "midi": 42,
      "hit": false,
      "t": 67833.26549999972,
      "d": 27.77774999999383,
      "v": 50
    },
    {
      "midi": 42,
      "hit": false,
      "t": 67999.93199999971,
      "d": 27.77774999999383,
      "v": 85
    },
    {
      "midi": 42,
      "hit": false,
      "t": 68166.5984999997,
      "d": 27.77774999999383,
      "v": 50
    },
    {
      "midi": 42,
      "hit": false,
      "t": 68333.2649999997,
      "d": 27.77774999999383,
      "v": 70
    },
    {
      "midi": 54,
      "hit": false,
      "t": 68333.2649999997,
      "d": 27.77774999999383,
      "v": 80
    },
    {
      "midi": 42,
      "hit": false,
      "t": 68499.93149999969,
      "d": 27.77774999999383,
      "v": 50
    },
    {
      "midi": 42,
      "hit": false,
      "t": 68666.59799999968,
      "d": 27.77774999999383,
      "v": 85
    },
    {
      "midi": 59,
      "hit": false,
      "t": 68666.59799999968,
      "d": 27.77774999999383,
      "v": 89
    },
    {
      "midi": 42,
      "hit": false,
      "t": 68833.26449999967,
      "d": 27.77774999999383,
      "v": 50
    },
    {
      "midi": 42,
      "hit": false,
      "t": 68999.93099999966,
      "d": 27.77774999999383,
      "v": 70
    },
    {
      "midi": 54,
      "hit": false,
      "t": 68999.93099999966,
      "d": 27.77774999999383,
      "v": 80
    },
    {
      "midi": 42,
      "hit": false,
      "t": 69166.59749999965,
      "d": 27.77774999999383,
      "v": 50
    },
    {
      "midi": 42,
      "hit": false,
      "t": 69333.26399999965,
      "d": 27.77774999999383,
      "v": 85
    },
    {
      "midi": 42,
      "hit": false,
      "t": 69499.93049999964,
      "d": 27.77774999999383,
      "v": 50
    },
    {
      "midi": 42,
      "hit": false,
      "t": 69666.59699999963,
      "d": 27.77774999999383,
      "v": 70
    },
    {
      "midi": 54,
      "hit": false,
      "t": 69666.59699999963,
      "d": 27.77774999999383,
      "v": 80
    },
    {
      "midi": 42,
      "hit": false,
      "t": 69833.26349999962,
      "d": 27.77774999999383,
      "v": 50
    },
    {
      "midi": 42,
      "hit": false,
      "t": 69999.92999999961,
      "d": 27.77774999999383,
      "v": 85
    },
    {
      "midi": 59,
      "hit": false,
      "t": 69999.92999999961,
      "d": 27.77774999999383,
      "v": 83
    },
    {
      "midi": 42,
      "hit": false,
      "t": 70166.5964999996,
      "d": 27.77774999999383,
      "v": 50
    },
    {
      "midi": 42,
      "hit": false,
      "t": 70333.2629999996,
      "d": 27.77774999999383,
      "v": 70
    },
    {
      "midi": 54,
      "hit": false,
      "t": 70333.2629999996,
      "d": 27.77774999999383,
      "v": 80
    },
    {
      "midi": 42,
      "hit": false,
      "t": 70499.92949999959,
      "d": 27.77774999999383,
      "v": 50
    },
    {
      "midi": 42,
      "hit": false,
      "t": 70666.59599999958,
      "d": 27.77774999999383,
      "v": 85
    },
    {
      "midi": 42,
      "hit": false,
      "t": 70833.26249999958,
      "d": 27.77774999999383,
      "v": 50
    },
    {
      "midi": 42,
      "hit": false,
      "t": 70999.92899999957,
      "d": 27.77774999999383,
      "v": 70
    },
    {
      "midi": 54,
      "hit": false,
      "t": 70999.92899999957,
      "d": 27.77774999999383,
      "v": 80
    },
    {
      "midi": 42,
      "hit": false,
      "t": 71166.59549999956,
      "d": 27.77774999999383,
      "v": 50
    },
    {
      "midi": 42,
      "hit": false,
      "t": 71333.26199999955,
      "d": 27.77774999999383,
      "v": 85
    },
    {
      "midi": 59,
      "hit": false,
      "t": 71333.26199999955,
      "d": 27.77774999999383,
      "v": 90
    },
    {
      "midi": 42,
      "hit": false,
      "t": 71499.92849999954,
      "d": 27.77774999999383,
      "v": 50
    },
    {
      "midi": 42,
      "hit": false,
      "t": 71666.59499999954,
      "d": 27.77774999999383,
      "v": 70
    },
    {
      "midi": 54,
      "hit": false,
      "t": 71666.59499999954,
      "d": 27.77774999999383,
      "v": 80
    },
    {
      "midi": 42,
      "hit": false,
      "t": 71833.26149999953,
      "d": 27.77774999999383,
      "v": 50
    },
    {
      "midi": 42,
      "hit": false,
      "t": 71999.92799999952,
      "d": 27.77774999999383,
      "v": 85
    },
    {
      "midi": 42,
      "hit": false,
      "t": 72166.59449999951,
      "d": 27.77774999999383,
      "v": 50
    },
    {
      "midi": 42,
      "hit": false,
      "t": 72333.2609999995,
      "d": 27.77774999999383,
      "v": 70
    },
    {
      "midi": 54,
      "hit": false,
      "t": 72333.2609999995,
      "d": 27.77774999999383,
      "v": 80
    },
    {
      "midi": 42,
      "hit": false,
      "t": 72499.9274999995,
      "d": 27.77774999999383,
      "v": 50
    },
    {
      "midi": 42,
      "hit": false,
      "t": 72666.59399999949,
      "d": 27.77774999999383,
      "v": 85
    },
    {
      "midi": 59,
      "hit": false,
      "t": 72666.59399999949,
      "d": 27.77774999999383,
      "v": 80
    },
    {
      "midi": 42,
      "hit": false,
      "t": 72833.26049999948,
      "d": 27.77774999999383,
      "v": 50
    },
    {
      "midi": 42,
      "hit": false,
      "t": 72999.92699999947,
      "d": 27.77774999999383,
      "v": 70
    },
    {
      "midi": 54,
      "hit": false,
      "t": 72999.92699999947,
      "d": 27.77774999999383,
      "v": 80
    },
    {
      "midi": 42,
      "hit": false,
      "t": 73166.59349999946,
      "d": 27.77774999999383,
      "v": 50
    },
    {
      "midi": 42,
      "hit": false,
      "t": 73333.25999999946,
      "d": 27.77774999999383,
      "v": 85
    },
    {
      "midi": 42,
      "hit": false,
      "t": 73499.92649999945,
      "d": 27.77774999999383,
      "v": 50
    },
    {
      "midi": 42,
      "hit": false,
      "t": 73666.59299999944,
      "d": 27.77774999999383,
      "v": 70
    },
    {
      "midi": 54,
      "hit": false,
      "t": 73666.59299999944,
      "d": 27.77774999999383,
      "v": 80
    },
    {
      "midi": 42,
      "hit": false,
      "t": 73833.25949999943,
      "d": 27.77774999999383,
      "v": 50
    },
    {
      "midi": 42,
      "hit": false,
      "t": 73999.92599999942,
      "d": 27.77774999999383,
      "v": 85
    },
    {
      "midi": 59,
      "hit": false,
      "t": 73999.92599999942,
      "d": 27.77774999999383,
      "v": 80
    },
    {
      "midi": 42,
      "hit": false,
      "t": 74166.59249999942,
      "d": 27.77774999999383,
      "v": 50
    },
    {
      "midi": 42,
      "hit": false,
      "t": 74333.25899999941,
      "d": 27.77774999999383,
      "v": 70
    },
    {
      "midi": 54,
      "hit": false,
      "t": 74333.25899999941,
      "d": 27.77774999999383,
      "v": 80
    },
    {
      "midi": 42,
      "hit": false,
      "t": 74499.9254999994,
      "d": 27.77774999999383,
      "v": 50
    },
    {
      "midi": 42,
      "hit": false,
      "t": 74666.5919999994,
      "d": 27.77774999999383,
      "v": 85
    },
    {
      "midi": 42,
      "hit": false,
      "t": 74833.25849999939,
      "d": 27.77774999999383,
      "v": 50
    },
    {
      "midi": 42,
      "hit": false,
      "t": 74999.92499999938,
      "d": 27.77774999999383,
      "v": 70
    },
    {
      "midi": 54,
      "hit": false,
      "t": 74999.92499999938,
      "d": 27.77774999999383,
      "v": 80
    },
    {
      "midi": 42,
      "hit": false,
      "t": 75166.59149999937,
      "d": 27.77774999999383,
      "v": 50
    },
    {
      "midi": 42,
      "hit": false,
      "t": 75333.25799999936,
      "d": 27.77774999999383,
      "v": 85
    },
    {
      "midi": 59,
      "hit": false,
      "t": 75333.25799999936,
      "d": 27.77774999999383,
      "v": 78
    },
    {
      "midi": 42,
      "hit": false,
      "t": 75499.92449999935,
      "d": 27.77774999999383,
      "v": 50
    },
    {
      "midi": 42,
      "hit": false,
      "t": 75666.59099999935,
      "d": 27.77774999999383,
      "v": 70
    },
    {
      "midi": 54,
      "hit": false,
      "t": 75666.59099999935,
      "d": 27.77774999999383,
      "v": 80
    },
    {
      "midi": 42,
      "hit": false,
      "t": 75833.25749999934,
      "d": 27.77774999999383,
      "v": 50
    },
    {
      "midi": 42,
      "hit": false,
      "t": 75999.92399999933,
      "d": 27.77774999999383,
      "v": 85
    },
    {
      "midi": 42,
      "hit": false,
      "t": 76166.59049999932,
      "d": 27.77774999999383,
      "v": 50
    },
    {
      "midi": 42,
      "hit": false,
      "t": 76333.25699999931,
      "d": 27.77774999999383,
      "v": 70
    },
    {
      "midi": 54,
      "hit": false,
      "t": 76333.25699999931,
      "d": 27.77774999999383,
      "v": 80
    },
    {
      "midi": 42,
      "hit": false,
      "t": 76499.9234999993,
      "d": 27.77774999999383,
      "v": 50
    },
    {
      "midi": 42,
      "hit": false,
      "t": 76666.5899999993,
      "d": 27.77774999999383,
      "v": 85
    },
    {
      "midi": 59,
      "hit": false,
      "t": 76666.5899999993,
      "d": 27.77774999999383,
      "v": 74
    },
    {
      "midi": 42,
      "hit": false,
      "t": 76833.25649999929,
      "d": 27.77774999999383,
      "v": 50
    },
    {
      "midi": 42,
      "hit": false,
      "t": 76999.92299999928,
      "d": 27.77774999999383,
      "v": 70
    },
    {
      "midi": 54,
      "hit": false,
      "t": 76999.92299999928,
      "d": 27.77774999999383,
      "v": 80
    },
    {
      "midi": 42,
      "hit": false,
      "t": 77166.58949999927,
      "d": 27.77774999999383,
      "v": 50
    },
    {
      "midi": 42,
      "hit": false,
      "t": 77333.25599999927,
      "d": 27.77774999999383,
      "v": 85
    },
    {
      "midi": 42,
      "hit": false,
      "t": 77499.92249999926,
      "d": 27.77774999999383,
      "v": 50
    },
    {
      "midi": 42,
      "hit": false,
      "t": 77666.58899999925,
      "d": 27.77774999999383,
      "v": 70
    },
    {
      "midi": 54,
      "hit": false,
      "t": 77666.58899999925,
      "d": 27.77774999999383,
      "v": 80
    },
    {
      "midi": 42,
      "hit": false,
      "t": 77833.25549999924,
      "d": 27.77774999999383,
      "v": 50
    },
    {
      "midi": 42,
      "hit": false,
      "t": 77999.92199999923,
      "d": 27.77774999999383,
      "v": 85
    },
    {
      "midi": 59,
      "hit": false,
      "t": 77999.92199999923,
      "d": 27.77774999999383,
      "v": 89
    },
    {
      "midi": 42,
      "hit": false,
      "t": 78166.58849999923,
      "d": 27.77774999999383,
      "v": 50
    },
    {
      "midi": 42,
      "hit": false,
      "t": 78333.25499999922,
      "d": 27.77774999999383,
      "v": 70
    },
    {
      "midi": 54,
      "hit": false,
      "t": 78333.25499999922,
      "d": 27.77774999999383,
      "v": 80
    },
    {
      "midi": 42,
      "hit": false,
      "t": 78499.92149999921,
      "d": 27.77774999999383,
      "v": 50
    },
    {
      "midi": 42,
      "hit": false,
      "t": 78666.5879999992,
      "d": 27.77774999999383,
      "v": 85
    },
    {
      "midi": 42,
      "hit": false,
      "t": 78833.2544999992,
      "d": 27.77774999999383,
      "v": 50
    },
    {
      "midi": 42,
      "hit": false,
      "t": 78999.92099999919,
      "d": 27.77774999999383,
      "v": 70
    },
    {
      "midi": 54,
      "hit": false,
      "t": 78999.92099999919,
      "d": 27.77774999999383,
      "v": 80
    },
    {
      "midi": 42,
      "hit": false,
      "t": 79166.58749999918,
      "d": 27.77774999999383,
      "v": 50
    },
    {
      "midi": 42,
      "hit": false,
      "t": 79333.25399999917,
      "d": 27.77774999999383,
      "v": 85
    },
    {
      "midi": 59,
      "hit": false,
      "t": 79333.25399999917,
      "d": 27.77774999999383,
      "v": 89
    },
    {
      "midi": 42,
      "hit": false,
      "t": 79499.92049999916,
      "d": 27.77774999999383,
      "v": 50
    },
    {
      "midi": 45,
      "hit": false,
      "t": 79499.92049999916,
      "d": 27.77774999999383,
      "v": 73
    },
    {
      "midi": 42,
      "hit": false,
      "t": 79666.58699999916,
      "d": 27.77774999999383,
      "v": 70
    },
    {
      "midi": 45,
      "hit": false,
      "t": 79666.58699999916,
      "d": 27.77774999999383,
      "v": 78
    },
    {
      "midi": 54,
      "hit": false,
      "t": 79666.58699999916,
      "d": 27.77774999999383,
      "v": 80
    },
    {
      "midi": 42,
      "hit": false,
      "t": 79833.25349999915,
      "d": 27.77774999999383,
      "v": 50
    },
    {
      "midi": 45,
      "hit": false,
      "t": 79833.25349999915,
      "d": 27.77774999999383,
      "v": 95
    },
    {
      "midi": 33,
      "hit": false,
      "t": 79999.91999999914,
      "d": 27.77774999999383,
      "v": 66
    },
    {
      "midi": 57,
      "hit": false,
      "t": 79999.91999999914,
      "d": 27.77774999999383,
      "v": 90
    },
    {
      "midi": 33,
      "hit": false,
      "t": 80166.58649999913,
      "d": 27.77774999999383,
      "v": 30
    },
    {
      "midi": 33,
      "hit": false,
      "t": 80333.25299999912,
      "d": 27.77774999999383,
      "v": 80
    },
    {
      "midi": 33,
      "hit": false,
      "t": 80499.91949999912,
      "d": 27.77774999999383,
      "v": 44
    },
    {
      "midi": 33,
      "hit": false,
      "t": 80666.58599999911,
      "d": 27.77774999999383,
      "v": 66
    },
    {
      "midi": 33,
      "hit": false,
      "t": 80833.2524999991,
      "d": 27.77774999999383,
      "v": 30
    },
    {
      "midi": 33,
      "hit": false,
      "t": 80999.91899999909,
      "d": 27.77774999999383,
      "v": 80
    },
    {
      "midi": 33,
      "hit": false,
      "t": 81166.58549999908,
      "d": 27.77774999999383,
      "v": 44
    },
    {
      "midi": 33,
      "hit": false,
      "t": 81333.25199999908,
      "d": 27.77774999999383,
      "v": 66
    },
    {
      "midi": 33,
      "hit": false,
      "t": 81499.91849999907,
      "d": 27.77774999999383,
      "v": 30
    },
    {
      "midi": 33,
      "hit": false,
      "t": 81666.58499999906,
      "d": 27.77774999999383,
      "v": 80
    },
    {
      "midi": 33,
      "hit": false,
      "t": 81833.25149999905,
      "d": 27.77774999999383,
      "v": 44
    },
    {
      "midi": 33,
      "hit": false,
      "t": 81999.91799999904,
      "d": 27.77774999999383,
      "v": 66
    },
    {
      "midi": 33,
      "hit": false,
      "t": 82166.58449999904,
      "d": 27.77774999999383,
      "v": 30
    },
    {
      "midi": 33,
      "hit": false,
      "t": 82333.25099999903,
      "d": 27.77774999999383,
      "v": 80
    },
    {
      "midi": 33,
      "hit": false,
      "t": 82499.91749999902,
      "d": 27.77774999999383,
      "v": 44
    },
    {
      "midi": 33,
      "hit": false,
      "t": 82666.58399999901,
      "d": 27.77774999999383,
      "v": 66
    },
    {
      "midi": 33,
      "hit": false,
      "t": 82833.250499999,
      "d": 27.77774999999383,
      "v": 30
    },
    {
      "midi": 50,
      "hit": false,
      "t": 82979.083687499,
      "d": 17.36109375000524,
      "v": 55
    },
    {
      "midi": 33,
      "hit": false,
      "t": 82999.91699999901,
      "d": 27.77774999999383,
      "v": 80
    },
    {
      "midi": 50,
      "hit": false,
      "t": 82999.91699999901,
      "d": 27.77774999999383,
      "v": 90
    },
    {
      "midi": 33,
      "hit": false,
      "t": 83166.583499999,
      "d": 27.77774999999383,
      "v": 44
    },
    {
      "midi": 33,
      "hit": false,
      "t": 83333.249999999,
      "d": 27.77774999999383,
      "v": 66
    },
    {
      "midi": 47,
      "hit": false,
      "t": 83479.083187499,
      "d": 17.36109375000524,
      "v": 55
    },
    {
      "midi": 33,
      "hit": false,
      "t": 83499.916499999,
      "d": 27.77774999999383,
      "v": 30
    },
    {
      "midi": 47,
      "hit": false,
      "t": 83499.916499999,
      "d": 27.77774999999383,
      "v": 90
    },
    {
      "midi": 33,
      "hit": false,
      "t": 83666.582999999,
      "d": 27.77774999999383,
      "v": 80
    },
    {
      "midi": 33,
      "hit": false,
      "t": 83833.24949999899,
      "d": 27.77774999999383,
      "v": 44
    },
    {
      "midi": 43,
      "hit": false,
      "t": 83979.08268749899,
      "d": 17.36109375000524,
      "v": 60
    },
    {
      "midi": 33,
      "hit": false,
      "t": 83999.915999999,
      "d": 27.77774999999383,
      "v": 66
    },
    {
      "midi": 43,
      "hit": false,
      "t": 83999.915999999,
      "d": 27.77774999999383,
      "v": 95
    },
    {
      "midi": 33,
      "hit": false,
      "t": 84166.58249999899,
      "d": 27.77774999999383,
      "v": 30
    },
    {
      "midi": 33,
      "hit": false,
      "t": 84333.24899999898,
      "d": 27.77774999999383,
      "v": 80
    },
    {
      "midi": 33,
      "hit": false,
      "t": 84499.91549999897,
      "d": 27.77774999999383,
      "v": 44
    },
    {
      "midi": 50,
      "hit": false,
      "t": 84499.91549999897,
      "d": 27.77774999999383,
      "v": 100
    },
    {
      "midi": 62,
      "hit": false,
      "t": 84499.91549999897,
      "d": 27.77774999999383,
      "v": 96
    },
    {
      "midi": 50,
      "hit": false,
      "t": 84583.24874999897,
      "d": 27.77774999999383,
      "v": 70
    },
    {
      "midi": 62,
      "hit": false,
      "t": 84583.24874999897,
      "d": 27.77774999999383,
      "v": 66
    },
    {
      "midi": 33,
      "hit": false,
      "t": 84666.58199999896,
      "d": 27.77774999999383,
      "v": 66
    },
    {
      "midi": 50,
      "hit": false,
      "t": 84666.58199999896,
      "d": 27.77774999999383,
      "v": 100
    },
    {
      "midi": 62,
      "hit": false,
      "t": 84666.58199999896,
      "d": 27.77774999999383,
      "v": 96
    },
    {
      "midi": 33,
      "hit": false,
      "t": 84833.24849999895,
      "d": 27.77774999999383,
      "v": 30
    },
    {
      "midi": 50,
      "hit": false,
      "t": 84833.24849999895,
      "d": 27.77774999999383,
      "v": 77
    },
    {
      "midi": 62,
      "hit": false,
      "t": 84833.24849999895,
      "d": 27.77774999999383,
      "v": 73
    },
    {
      "midi": 33,
      "hit": false,
      "t": 84999.91499999895,
      "d": 27.77774999999383,
      "v": 80
    },
    {
      "midi": 50,
      "hit": false,
      "t": 84999.91499999895,
      "d": 27.77774999999383,
      "v": 88
    },
    {
      "midi": 62,
      "hit": false,
      "t": 84999.91499999895,
      "d": 27.77774999999383,
      "v": 84
    },
    {
      "midi": 33,
      "hit": false,
      "t": 85166.58149999894,
      "d": 27.77774999999383,
      "v": 44
    },
    {
      "midi": 50,
      "hit": false,
      "t": 85166.58149999894,
      "d": 27.77774999999383,
      "v": 59
    },
    {
      "midi": 62,
      "hit": false,
      "t": 85166.58149999894,
      "d": 27.77774999999383,
      "v": 55
    },
    {
      "midi": 42,
      "hit": false,
      "t": 85333.24799999893,
      "d": 27.77774999999383,
      "v": 85
    },
    {
      "midi": 57,
      "hit": false,
      "t": 85333.24799999893,
      "d": 27.77774999999383,
      "v": 83
    },
    {
      "midi": 42,
      "hit": false,
      "t": 85499.91449999892,
      "d": 27.77774999999383,
      "v": 50
    },
    {
      "midi": 42,
      "hit": false,
      "t": 85666.58099999891,
      "d": 27.77774999999383,
      "v": 70
    },
    {
      "midi": 42,
      "hit": false,
      "t": 85833.2474999989,
      "d": 27.77774999999383,
      "v": 50
    },
    {
      "midi": 42,
      "hit": false,
      "t": 85999.9139999989,
      "d": 27.77774999999383,
      "v": 85
    },
    {
      "midi": 42,
      "hit": false,
      "t": 86166.58049999889,
      "d": 27.77774999999383,
      "v": 50
    },
    {
      "midi": 42,
      "hit": false,
      "t": 86333.24699999888,
      "d": 27.77774999999383,
      "v": 70
    },
    {
      "midi": 42,
      "hit": false,
      "t": 86499.91349999887,
      "d": 27.77774999999383,
      "v": 50
    },
    {
      "midi": 42,
      "hit": false,
      "t": 86666.57999999887,
      "d": 27.77774999999383,
      "v": 85
    },
    {
      "midi": 42,
      "hit": false,
      "t": 86833.24649999886,
      "d": 27.77774999999383,
      "v": 50
    },
    {
      "midi": 42,
      "hit": false,
      "t": 86999.91299999885,
      "d": 27.77774999999383,
      "v": 70
    },
    {
      "midi": 42,
      "hit": false,
      "t": 87166.57949999884,
      "d": 27.77774999999383,
      "v": 50
    },
    {
      "midi": 42,
      "hit": false,
      "t": 87333.24599999884,
      "d": 27.77774999999383,
      "v": 85
    },
    {
      "midi": 42,
      "hit": false,
      "t": 87499.91249999883,
      "d": 27.77774999999383,
      "v": 50
    },
    {
      "midi": 42,
      "hit": false,
      "t": 87666.57899999882,
      "d": 27.77774999999383,
      "v": 70
    },
    {
      "midi": 42,
      "hit": false,
      "t": 87833.24549999881,
      "d": 27.77774999999383,
      "v": 50
    },
    {
      "midi": 42,
      "hit": false,
      "t": 87999.9119999988,
      "d": 27.77774999999383,
      "v": 85
    },
    {
      "midi": 42,
      "hit": false,
      "t": 88166.5784999988,
      "d": 27.77774999999383,
      "v": 50
    },
    {
      "midi": 42,
      "hit": false,
      "t": 88333.24499999879,
      "d": 27.77774999999383,
      "v": 70
    },
    {
      "midi": 42,
      "hit": false,
      "t": 88499.91149999878,
      "d": 27.77774999999383,
      "v": 50
    },
    {
      "midi": 42,
      "hit": false,
      "t": 88666.57799999877,
      "d": 27.77774999999383,
      "v": 85
    },
    {
      "midi": 42,
      "hit": false,
      "t": 88833.24449999876,
      "d": 27.77774999999383,
      "v": 50
    },
    {
      "midi": 42,
      "hit": false,
      "t": 88999.91099999876,
      "d": 27.77774999999383,
      "v": 70
    },
    {
      "midi": 42,
      "hit": false,
      "t": 89166.57749999875,
      "d": 27.77774999999383,
      "v": 50
    },
    {
      "midi": 42,
      "hit": false,
      "t": 89333.24399999874,
      "d": 27.77774999999383,
      "v": 85
    },
    {
      "midi": 42,
      "hit": false,
      "t": 89499.91049999873,
      "d": 27.77774999999383,
      "v": 50
    },
    {
      "midi": 42,
      "hit": false,
      "t": 89666.57699999872,
      "d": 27.77774999999383,
      "v": 70
    },
    {
      "midi": 42,
      "hit": false,
      "t": 89833.24349999872,
      "d": 27.77774999999383,
      "v": 50
    },
    {
      "midi": 42,
      "hit": false,
      "t": 89999.90999999871,
      "d": 27.77774999999383,
      "v": 85
    },
    {
      "midi": 42,
      "hit": false,
      "t": 90166.5764999987,
      "d": 27.77774999999383,
      "v": 50
    },
    {
      "midi": 42,
      "hit": false,
      "t": 90333.24299999869,
      "d": 27.77774999999383,
      "v": 70
    },
    {
      "midi": 42,
      "hit": false,
      "t": 90499.90949999868,
      "d": 27.77774999999383,
      "v": 50
    },
    {
      "midi": 42,
      "hit": false,
      "t": 90666.57599999868,
      "d": 27.77774999999383,
      "v": 85
    },
    {
      "midi": 42,
      "hit": false,
      "t": 90833.24249999867,
      "d": 27.77774999999383,
      "v": 50
    },
    {
      "midi": 42,
      "hit": false,
      "t": 90999.90899999866,
      "d": 27.77774999999383,
      "v": 70
    },
    {
      "midi": 42,
      "hit": false,
      "t": 91166.57549999865,
      "d": 27.77774999999383,
      "v": 50
    },
    {
      "midi": 42,
      "hit": false,
      "t": 91333.24199999865,
      "d": 27.77774999999383,
      "v": 85
    },
    {
      "midi": 42,
      "hit": false,
      "t": 91499.90849999864,
      "d": 27.77774999999383,
      "v": 50
    },
    {
      "midi": 42,
      "hit": false,
      "t": 91666.57499999863,
      "d": 27.77774999999383,
      "v": 70
    },
    {
      "midi": 42,
      "hit": false,
      "t": 91833.24149999862,
      "d": 27.77774999999383,
      "v": 50
    },
    {
      "midi": 42,
      "hit": false,
      "t": 91999.90799999861,
      "d": 27.77774999999383,
      "v": 85
    },
    {
      "midi": 42,
      "hit": false,
      "t": 92166.5744999986,
      "d": 27.77774999999383,
      "v": 50
    },
    {
      "midi": 42,
      "hit": false,
      "t": 92333.2409999986,
      "d": 27.77774999999383,
      "v": 70
    },
    {
      "midi": 42,
      "hit": false,
      "t": 92499.90749999859,
      "d": 27.77774999999383,
      "v": 50
    },
    {
      "midi": 42,
      "hit": false,
      "t": 92666.57399999858,
      "d": 27.77774999999383,
      "v": 85
    },
    {
      "midi": 42,
      "hit": false,
      "t": 92833.24049999857,
      "d": 27.77774999999383,
      "v": 50
    },
    {
      "midi": 42,
      "hit": false,
      "t": 92999.90699999857,
      "d": 27.77774999999383,
      "v": 70
    },
    {
      "midi": 42,
      "hit": false,
      "t": 93166.57349999856,
      "d": 27.77774999999383,
      "v": 50
    },
    {
      "midi": 42,
      "hit": false,
      "t": 93333.23999999855,
      "d": 27.77774999999383,
      "v": 85
    },
    {
      "midi": 42,
      "hit": false,
      "t": 93499.90649999854,
      "d": 27.77774999999383,
      "v": 50
    },
    {
      "midi": 42,
      "hit": false,
      "t": 93666.57299999853,
      "d": 27.77774999999383,
      "v": 70
    },
    {
      "midi": 42,
      "hit": false,
      "t": 93833.23949999853,
      "d": 27.77774999999383,
      "v": 50
    },
    {
      "midi": 42,
      "hit": false,
      "t": 93999.90599999852,
      "d": 27.77774999999383,
      "v": 85
    },
    {
      "midi": 42,
      "hit": false,
      "t": 94166.57249999851,
      "d": 27.77774999999383,
      "v": 50
    },
    {
      "midi": 42,
      "hit": false,
      "t": 94333.2389999985,
      "d": 27.77774999999383,
      "v": 70
    },
    {
      "midi": 42,
      "hit": false,
      "t": 94499.9054999985,
      "d": 27.77774999999383,
      "v": 50
    },
    {
      "midi": 42,
      "hit": false,
      "t": 94666.57199999849,
      "d": 27.77774999999383,
      "v": 85
    },
    {
      "midi": 42,
      "hit": false,
      "t": 94833.23849999848,
      "d": 27.77774999999383,
      "v": 50
    },
    {
      "midi": 42,
      "hit": false,
      "t": 94999.90499999847,
      "d": 27.77774999999383,
      "v": 70
    },
    {
      "midi": 42,
      "hit": false,
      "t": 95166.57149999846,
      "d": 27.77774999999383,
      "v": 50
    },
    {
      "midi": 42,
      "hit": false,
      "t": 95333.23799999846,
      "d": 27.77774999999383,
      "v": 85
    },
    {
      "midi": 42,
      "hit": false,
      "t": 95499.90449999845,
      "d": 27.77774999999383,
      "v": 50
    },
    {
      "midi": 42,
      "hit": false,
      "t": 95666.57099999844,
      "d": 27.77774999999383,
      "v": 70
    },
    {
      "midi": 42,
      "hit": false,
      "t": 95833.23749999843,
      "d": 27.77774999999383,
      "v": 50
    },
    {
      "midi": 42,
      "hit": false,
      "t": 95999.90399999842,
      "d": 27.77774999999383,
      "v": 85
    },
    {
      "midi": 42,
      "hit": false,
      "t": 96166.57049999842,
      "d": 27.77774999999383,
      "v": 50
    },
    {
      "midi": 42,
      "hit": false,
      "t": 96333.23699999841,
      "d": 27.77774999999383,
      "v": 70
    },
    {
      "midi": 42,
      "hit": false,
      "t": 96499.9034999984,
      "d": 27.77774999999383,
      "v": 50
    },
    {
      "midi": 42,
      "hit": false,
      "t": 96666.56999999839,
      "d": 27.77774999999383,
      "v": 85
    },
    {
      "midi": 42,
      "hit": false,
      "t": 96833.23649999838,
      "d": 27.77774999999383,
      "v": 50
    },
    {
      "midi": 42,
      "hit": false,
      "t": 96999.90299999838,
      "d": 27.77774999999383,
      "v": 70
    },
    {
      "midi": 42,
      "hit": false,
      "t": 97166.56949999837,
      "d": 27.77774999999383,
      "v": 50
    },
    {
      "midi": 42,
      "hit": false,
      "t": 97333.23599999836,
      "d": 27.77774999999383,
      "v": 85
    },
    {
      "midi": 42,
      "hit": false,
      "t": 97499.90249999835,
      "d": 27.77774999999383,
      "v": 50
    },
    {
      "midi": 42,
      "hit": false,
      "t": 97666.56899999834,
      "d": 27.77774999999383,
      "v": 70
    },
    {
      "midi": 42,
      "hit": false,
      "t": 97833.23549999834,
      "d": 27.77774999999383,
      "v": 50
    },
    {
      "midi": 42,
      "hit": false,
      "t": 97999.90199999833,
      "d": 27.77774999999383,
      "v": 85
    },
    {
      "midi": 42,
      "hit": false,
      "t": 98166.56849999832,
      "d": 27.77774999999383,
      "v": 50
    },
    {
      "midi": 42,
      "hit": false,
      "t": 98333.23499999831,
      "d": 27.77774999999383,
      "v": 70
    },
    {
      "midi": 42,
      "hit": false,
      "t": 98499.9014999983,
      "d": 27.77774999999383,
      "v": 50
    },
    {
      "midi": 42,
      "hit": false,
      "t": 98666.5679999983,
      "d": 27.77774999999383,
      "v": 85
    },
    {
      "midi": 42,
      "hit": false,
      "t": 98833.23449999829,
      "d": 27.77774999999383,
      "v": 50
    },
    {
      "midi": 42,
      "hit": false,
      "t": 98999.90099999828,
      "d": 27.77774999999383,
      "v": 70
    },
    {
      "midi": 42,
      "hit": false,
      "t": 99166.56749999827,
      "d": 27.77774999999383,
      "v": 50
    },
    {
      "midi": 42,
      "hit": false,
      "t": 99333.23399999827,
      "d": 27.77774999999383,
      "v": 85
    },
    {
      "midi": 42,
      "hit": false,
      "t": 99499.90049999826,
      "d": 27.77774999999383,
      "v": 50
    },
    {
      "midi": 42,
      "hit": false,
      "t": 99666.56699999825,
      "d": 27.77774999999383,
      "v": 70
    },
    {
      "midi": 42,
      "hit": false,
      "t": 99833.23349999824,
      "d": 27.77774999999383,
      "v": 50
    },
    {
      "midi": 42,
      "hit": false,
      "t": 99999.89999999823,
      "d": 27.77774999999383,
      "v": 85
    },
    {
      "midi": 42,
      "hit": false,
      "t": 100166.56649999823,
      "d": 27.77774999999383,
      "v": 50
    },
    {
      "midi": 42,
      "hit": false,
      "t": 100333.23299999822,
      "d": 27.77774999999383,
      "v": 70
    },
    {
      "midi": 42,
      "hit": false,
      "t": 100499.89949999821,
      "d": 27.77774999999383,
      "v": 50
    },
    {
      "midi": 42,
      "hit": false,
      "t": 100666.5659999982,
      "d": 27.77774999999383,
      "v": 85
    },
    {
      "midi": 42,
      "hit": false,
      "t": 100833.2324999982,
      "d": 27.77774999999383,
      "v": 50
    },
    {
      "midi": 42,
      "hit": false,
      "t": 100999.89899999819,
      "d": 27.77774999999383,
      "v": 70
    },
    {
      "midi": 42,
      "hit": false,
      "t": 101166.56549999818,
      "d": 27.77774999999383,
      "v": 50
    },
    {
      "midi": 42,
      "hit": false,
      "t": 101333.23199999817,
      "d": 27.77774999999383,
      "v": 85
    },
    {
      "midi": 42,
      "hit": false,
      "t": 101499.89849999816,
      "d": 27.77774999999383,
      "v": 50
    },
    {
      "midi": 42,
      "hit": false,
      "t": 101666.56499999815,
      "d": 27.77774999999383,
      "v": 70
    },
    {
      "midi": 42,
      "hit": false,
      "t": 101833.23149999815,
      "d": 27.77774999999383,
      "v": 50
    },
    {
      "midi": 42,
      "hit": false,
      "t": 101999.89799999814,
      "d": 27.77774999999383,
      "v": 85
    },
    {
      "midi": 42,
      "hit": false,
      "t": 102166.56449999813,
      "d": 27.77774999999383,
      "v": 50
    },
    {
      "midi": 42,
      "hit": false,
      "t": 102333.23099999812,
      "d": 27.77774999999383,
      "v": 70
    },
    {
      "midi": 42,
      "hit": false,
      "t": 102499.89749999811,
      "d": 27.77774999999383,
      "v": 50
    },
    {
      "midi": 42,
      "hit": false,
      "t": 102666.5639999981,
      "d": 27.77774999999383,
      "v": 85
    },
    {
      "midi": 42,
      "hit": false,
      "t": 102833.2304999981,
      "d": 27.77774999999383,
      "v": 50
    },
    {
      "midi": 42,
      "hit": false,
      "t": 102999.89699999809,
      "d": 27.77774999999383,
      "v": 70
    },
    {
      "midi": 42,
      "hit": false,
      "t": 103166.56349999808,
      "d": 27.77774999999383,
      "v": 50
    },
    {
      "midi": 42,
      "hit": false,
      "t": 103333.22999999808,
      "d": 27.77774999999383,
      "v": 85
    },
    {
      "midi": 42,
      "hit": false,
      "t": 103499.89649999807,
      "d": 27.77774999999383,
      "v": 50
    },
    {
      "midi": 42,
      "hit": false,
      "t": 103666.56299999806,
      "d": 27.77774999999383,
      "v": 70
    },
    {
      "midi": 42,
      "hit": false,
      "t": 103833.22949999805,
      "d": 27.77774999999383,
      "v": 50
    },
    {
      "midi": 42,
      "hit": false,
      "t": 103999.89599999804,
      "d": 27.77774999999383,
      "v": 85
    },
    {
      "midi": 42,
      "hit": false,
      "t": 104166.56249999804,
      "d": 27.77774999999383,
      "v": 50
    },
    {
      "midi": 42,
      "hit": false,
      "t": 104333.22899999803,
      "d": 27.77774999999383,
      "v": 70
    },
    {
      "midi": 42,
      "hit": false,
      "t": 104499.89549999802,
      "d": 27.77774999999383,
      "v": 50
    },
    {
      "midi": 42,
      "hit": false,
      "t": 104666.56199999801,
      "d": 27.77774999999383,
      "v": 85
    },
    {
      "midi": 42,
      "hit": false,
      "t": 104833.228499998,
      "d": 27.77774999999383,
      "v": 50
    },
    {
      "midi": 42,
      "hit": false,
      "t": 104999.894999998,
      "d": 27.77774999999383,
      "v": 70
    },
    {
      "midi": 42,
      "hit": false,
      "t": 105166.56149999799,
      "d": 27.77774999999383,
      "v": 50
    },
    {
      "midi": 42,
      "hit": false,
      "t": 105333.22799999798,
      "d": 27.77774999999383,
      "v": 85
    },
    {
      "midi": 42,
      "hit": false,
      "t": 105499.89449999797,
      "d": 27.77774999999383,
      "v": 50
    },
    {
      "midi": 42,
      "hit": false,
      "t": 105666.56099999796,
      "d": 27.77774999999383,
      "v": 70
    },
    {
      "midi": 42,
      "hit": false,
      "t": 105833.22749999796,
      "d": 27.77774999999383,
      "v": 50
    },
    {
      "midi": 42,
      "hit": false,
      "t": 105999.89399999795,
      "d": 27.77774999999383,
      "v": 85
    },
    {
      "midi": 42,
      "hit": false,
      "t": 106166.56049999794,
      "d": 27.77774999999383,
      "v": 50
    },
    {
      "midi": 42,
      "hit": false,
      "t": 106333.22699999793,
      "d": 27.77774999999383,
      "v": 70
    },
    {
      "midi": 55,
      "hit": false,
      "t": 106333.22699999793,
      "d": 27.77774999999383,
      "v": 78
    },
    {
      "midi": 59,
      "hit": false,
      "t": 106333.22699999793,
      "d": 27.77774999999383,
      "v": 80
    },
    {
      "midi": 42,
      "hit": false,
      "t": 106499.89349999792,
      "d": 27.77774999999383,
      "v": 50
    },
    {
      "midi": 42,
      "hit": false,
      "t": 106666.55999999792,
      "d": 27.77774999999383,
      "v": 85
    },
    {
      "midi": 57,
      "hit": false,
      "t": 106666.55999999792,
      "d": 27.77774999999383,
      "v": 90
    },
    {
      "midi": 42,
      "hit": false,
      "t": 106833.22649999791,
      "d": 27.77774999999383,
      "v": 50
    },
    {
      "midi": 42,
      "hit": false,
      "t": 106999.8929999979,
      "d": 27.77774999999383,
      "v": 70
    },
    {
      "midi": 42,
      "hit": false,
      "t": 107166.5594999979,
      "d": 27.77774999999383,
      "v": 50
    },
    {
      "midi": 42,
      "hit": false,
      "t": 107333.22599999789,
      "d": 27.77774999999383,
      "v": 85
    },
    {
      "midi": 42,
      "hit": false,
      "t": 107499.89249999788,
      "d": 27.77774999999383,
      "v": 50
    },
    {
      "midi": 42,
      "hit": false,
      "t": 107666.55899999787,
      "d": 27.77774999999383,
      "v": 70
    },
    {
      "midi": 42,
      "hit": false,
      "t": 107833.22549999786,
      "d": 27.77774999999383,
      "v": 50
    },
    {
      "midi": 42,
      "hit": false,
      "t": 107999.89199999785,
      "d": 27.77774999999383,
      "v": 85
    },
    {
      "midi": 42,
      "hit": false,
      "t": 108166.55849999785,
      "d": 27.77774999999383,
      "v": 50
    },
    {
      "midi": 42,
      "hit": false,
      "t": 108333.22499999784,
      "d": 27.77774999999383,
      "v": 70
    },
    {
      "midi": 42,
      "hit": false,
      "t": 108499.89149999783,
      "d": 27.77774999999383,
      "v": 50
    },
    {
      "midi": 42,
      "hit": false,
      "t": 108666.55799999782,
      "d": 27.77774999999383,
      "v": 85
    },
    {
      "midi": 42,
      "hit": false,
      "t": 108833.22449999781,
      "d": 27.77774999999383,
      "v": 50
    },
    {
      "midi": 42,
      "hit": false,
      "t": 108999.8909999978,
      "d": 27.77774999999383,
      "v": 70
    },
    {
      "midi": 42,
      "hit": false,
      "t": 109166.5574999978,
      "d": 27.77774999999383,
      "v": 50
    },
    {
      "midi": 42,
      "hit": false,
      "t": 109333.22399999779,
      "d": 27.77774999999383,
      "v": 85
    },
    {
      "midi": 42,
      "hit": false,
      "t": 109499.89049999778,
      "d": 27.77774999999383,
      "v": 50
    },
    {
      "midi": 42,
      "hit": false,
      "t": 109666.55699999777,
      "d": 27.77774999999383,
      "v": 70
    },
    {
      "midi": 42,
      "hit": false,
      "t": 109833.22349999777,
      "d": 27.77774999999383,
      "v": 50
    },
    {
      "midi": 42,
      "hit": false,
      "t": 109999.88999999776,
      "d": 27.77774999999383,
      "v": 85
    },
    {
      "midi": 42,
      "hit": false,
      "t": 110166.55649999775,
      "d": 27.77774999999383,
      "v": 50
    },
    {
      "midi": 42,
      "hit": false,
      "t": 110333.22299999774,
      "d": 27.77774999999383,
      "v": 70
    },
    {
      "midi": 42,
      "hit": false,
      "t": 110499.88949999773,
      "d": 27.77774999999383,
      "v": 50
    },
    {
      "midi": 42,
      "hit": false,
      "t": 110666.55599999773,
      "d": 27.77774999999383,
      "v": 85
    },
    {
      "midi": 42,
      "hit": false,
      "t": 110833.22249999772,
      "d": 27.77774999999383,
      "v": 50
    },
    {
      "midi": 42,
      "hit": false,
      "t": 110999.88899999771,
      "d": 27.77774999999383,
      "v": 70
    },
    {
      "midi": 42,
      "hit": false,
      "t": 111166.5554999977,
      "d": 27.77774999999383,
      "v": 50
    },
    {
      "midi": 42,
      "hit": false,
      "t": 111333.2219999977,
      "d": 27.77774999999383,
      "v": 85
    },
    {
      "midi": 42,
      "hit": false,
      "t": 111499.88849999769,
      "d": 27.77774999999383,
      "v": 50
    },
    {
      "midi": 42,
      "hit": false,
      "t": 111666.55499999768,
      "d": 27.77774999999383,
      "v": 70
    },
    {
      "midi": 42,
      "hit": false,
      "t": 111833.22149999767,
      "d": 27.77774999999383,
      "v": 50
    },
    {
      "midi": 42,
      "hit": false,
      "t": 111999.88799999766,
      "d": 27.77774999999383,
      "v": 85
    },
    {
      "midi": 42,
      "hit": false,
      "t": 112166.55449999766,
      "d": 27.77774999999383,
      "v": 50
    },
    {
      "midi": 42,
      "hit": false,
      "t": 112333.22099999765,
      "d": 27.77774999999383,
      "v": 70
    },
    {
      "midi": 42,
      "hit": false,
      "t": 112499.88749999764,
      "d": 27.77774999999383,
      "v": 50
    },
    {
      "midi": 42,
      "hit": false,
      "t": 112666.55399999763,
      "d": 27.77774999999383,
      "v": 85
    },
    {
      "midi": 42,
      "hit": false,
      "t": 112833.22049999762,
      "d": 27.77774999999383,
      "v": 50
    },
    {
      "midi": 42,
      "hit": false,
      "t": 112999.88699999762,
      "d": 27.77774999999383,
      "v": 70
    },
    {
      "midi": 42,
      "hit": false,
      "t": 113166.55349999761,
      "d": 27.77774999999383,
      "v": 50
    },
    {
      "midi": 42,
      "hit": false,
      "t": 113333.2199999976,
      "d": 27.77774999999383,
      "v": 85
    },
    {
      "midi": 42,
      "hit": false,
      "t": 113499.88649999759,
      "d": 27.77774999999383,
      "v": 50
    },
    {
      "midi": 42,
      "hit": false,
      "t": 113666.55299999758,
      "d": 27.77774999999383,
      "v": 70
    },
    {
      "midi": 42,
      "hit": false,
      "t": 113833.21949999758,
      "d": 27.77774999999383,
      "v": 50
    },
    {
      "midi": 42,
      "hit": false,
      "t": 113999.88599999757,
      "d": 27.77774999999383,
      "v": 85
    },
    {
      "midi": 42,
      "hit": false,
      "t": 114166.55249999756,
      "d": 27.77774999999383,
      "v": 50
    },
    {
      "midi": 42,
      "hit": false,
      "t": 114333.21899999755,
      "d": 27.77774999999383,
      "v": 70
    },
    {
      "midi": 42,
      "hit": false,
      "t": 114499.88549999754,
      "d": 27.77774999999383,
      "v": 50
    },
    {
      "midi": 42,
      "hit": false,
      "t": 114666.55199999754,
      "d": 27.77774999999383,
      "v": 85
    },
    {
      "midi": 42,
      "hit": false,
      "t": 114833.21849999753,
      "d": 27.77774999999383,
      "v": 50
    },
    {
      "midi": 42,
      "hit": false,
      "t": 114999.88499999752,
      "d": 27.77774999999383,
      "v": 70
    },
    {
      "midi": 42,
      "hit": false,
      "t": 115166.55149999751,
      "d": 27.77774999999383,
      "v": 50
    },
    {
      "midi": 42,
      "hit": false,
      "t": 115333.2179999975,
      "d": 27.77774999999383,
      "v": 85
    },
    {
      "midi": 42,
      "hit": false,
      "t": 115499.8844999975,
      "d": 27.77774999999383,
      "v": 50
    },
    {
      "midi": 42,
      "hit": false,
      "t": 115666.55099999749,
      "d": 27.77774999999383,
      "v": 70
    },
    {
      "midi": 42,
      "hit": false,
      "t": 115833.21749999748,
      "d": 27.77774999999383,
      "v": 50
    },
    {
      "midi": 42,
      "hit": false,
      "t": 115999.88399999747,
      "d": 27.77774999999383,
      "v": 85
    },
    {
      "midi": 42,
      "hit": false,
      "t": 116166.55049999747,
      "d": 27.77774999999383,
      "v": 50
    },
    {
      "midi": 42,
      "hit": false,
      "t": 116333.21699999746,
      "d": 27.77774999999383,
      "v": 70
    },
    {
      "midi": 42,
      "hit": false,
      "t": 116499.88349999745,
      "d": 27.77774999999383,
      "v": 50
    },
    {
      "midi": 42,
      "hit": false,
      "t": 116666.54999999744,
      "d": 27.77774999999383,
      "v": 85
    },
    {
      "midi": 42,
      "hit": false,
      "t": 116833.21649999743,
      "d": 27.77774999999383,
      "v": 50
    },
    {
      "midi": 42,
      "hit": false,
      "t": 116999.88299999743,
      "d": 27.77774999999383,
      "v": 70
    },
    {
      "midi": 42,
      "hit": false,
      "t": 117166.54949999742,
      "d": 27.77774999999383,
      "v": 50
    },
    {
      "midi": 42,
      "hit": false,
      "t": 117333.21599999741,
      "d": 27.77774999999383,
      "v": 85
    },
    {
      "midi": 42,
      "hit": false,
      "t": 117499.8824999974,
      "d": 27.77774999999383,
      "v": 50
    },
    {
      "midi": 42,
      "hit": false,
      "t": 117666.5489999974,
      "d": 27.77774999999383,
      "v": 70
    },
    {
      "midi": 42,
      "hit": false,
      "t": 117833.21549999739,
      "d": 27.77774999999383,
      "v": 50
    },
    {
      "midi": 42,
      "hit": false,
      "t": 117999.88199999738,
      "d": 27.77774999999383,
      "v": 85
    },
    {
      "midi": 42,
      "hit": false,
      "t": 118166.54849999737,
      "d": 27.77774999999383,
      "v": 50
    },
    {
      "midi": 42,
      "hit": false,
      "t": 118333.21499999736,
      "d": 27.77774999999383,
      "v": 70
    },
    {
      "midi": 42,
      "hit": false,
      "t": 118499.88149999735,
      "d": 27.77774999999383,
      "v": 50
    },
    {
      "midi": 42,
      "hit": false,
      "t": 118666.54799999735,
      "d": 27.77774999999383,
      "v": 85
    },
    {
      "midi": 42,
      "hit": false,
      "t": 118833.21449999734,
      "d": 27.77774999999383,
      "v": 50
    },
    {
      "midi": 42,
      "hit": false,
      "t": 118999.88099999733,
      "d": 27.77774999999383,
      "v": 70
    },
    {
      "midi": 42,
      "hit": false,
      "t": 119166.54749999732,
      "d": 27.77774999999383,
      "v": 50
    },
    {
      "midi": 42,
      "hit": false,
      "t": 119333.21399999732,
      "d": 27.77774999999383,
      "v": 85
    },
    {
      "midi": 42,
      "hit": false,
      "t": 119499.8804999973,
      "d": 27.77774999999383,
      "v": 50
    },
    {
      "midi": 42,
      "hit": false,
      "t": 119666.5469999973,
      "d": 27.77774999999383,
      "v": 70
    },
    {
      "midi": 42,
      "hit": false,
      "t": 119833.21349999729,
      "d": 27.77774999999383,
      "v": 50
    },
    {
      "midi": 42,
      "hit": false,
      "t": 119999.87999999728,
      "d": 27.77774999999383,
      "v": 85
    },
    {
      "midi": 42,
      "hit": false,
      "t": 120166.54649999728,
      "d": 27.77774999999383,
      "v": 50
    },
    {
      "midi": 42,
      "hit": false,
      "t": 120333.21299999727,
      "d": 27.77774999999383,
      "v": 70
    },
    {
      "midi": 42,
      "hit": false,
      "t": 120499.87949999726,
      "d": 27.77774999999383,
      "v": 50
    },
    {
      "midi": 42,
      "hit": false,
      "t": 120666.54599999725,
      "d": 27.77774999999383,
      "v": 85
    },
    {
      "midi": 42,
      "hit": false,
      "t": 120833.21249999724,
      "d": 27.77774999999383,
      "v": 50
    },
    {
      "midi": 42,
      "hit": false,
      "t": 120999.87899999724,
      "d": 27.77774999999383,
      "v": 70
    },
    {
      "midi": 42,
      "hit": false,
      "t": 121166.54549999723,
      "d": 27.77774999999383,
      "v": 50
    },
    {
      "midi": 42,
      "hit": false,
      "t": 121333.21199999722,
      "d": 27.77774999999383,
      "v": 85
    },
    {
      "midi": 42,
      "hit": false,
      "t": 121499.87849999721,
      "d": 27.77774999999383,
      "v": 50
    },
    {
      "midi": 42,
      "hit": false,
      "t": 121666.5449999972,
      "d": 27.77774999999383,
      "v": 70
    },
    {
      "midi": 42,
      "hit": false,
      "t": 121833.2114999972,
      "d": 27.77774999999383,
      "v": 50
    },
    {
      "midi": 42,
      "hit": false,
      "t": 121999.87799999719,
      "d": 27.77774999999383,
      "v": 85
    },
    {
      "midi": 42,
      "hit": false,
      "t": 122166.54449999718,
      "d": 27.77774999999383,
      "v": 50
    },
    {
      "midi": 46,
      "hit": false,
      "t": 122333.21099999717,
      "d": 27.77774999999383,
      "v": 70
    },
    {
      "midi": 55,
      "hit": false,
      "t": 122333.21099999717,
      "d": 27.77774999999383,
      "v": 83
    },
    {
      "midi": 57,
      "hit": false,
      "t": 122666.54399999717,
      "d": 27.77774999999383,
      "v": 86
    },
    {
      "midi": 52,
      "hit": false,
      "t": 125124.874875,
      "d": 2833.3304999999964,
      "v": 76
    },
    {
      "midi": 55,
      "hit": false,
      "t": 125166.54149999999,
      "d": 2833.3304999999964,
      "v": 65
    },
    {
      "midi": 59,
      "hit": false,
      "t": 125208.20812499999,
      "d": 2784.7194374999963,
      "v": 78
    },
    {
      "midi": 62,
      "hit": false,
      "t": 125291.54137499999,
      "d": 2666.6640000000043,
      "v": 74
    },
    {
      "midi": 40,
      "hit": false,
      "t": 125333.20799999998,
      "d": 2666.6640000000043,
      "v": 83
    },
    {
      "midi": 66,
      "hit": false,
      "t": 127999.87199999999,
      "d": 659.7215624999953,
      "v": 73
    },
    {
      "midi": 54,
      "hit": false,
      "t": 127999.87199999999,
      "d": 1326.3875624999928,
      "v": 69
    },
    {
      "midi": 59,
      "hit": false,
      "t": 127999.87199999999,
      "d": 1326.3875624999928,
      "v": 63
    },
    {
      "midi": 62,
      "hit": false,
      "t": 127999.87199999999,
      "d": 1326.3875624999928,
      "v": 75
    },
    {
      "midi": 64,
      "hit": false,
      "t": 128666.53799999999,
      "d": 572.9160937499983,
      "v": 88
    },
    {
      "midi": 57,
      "hit": false,
      "t": 129333.20399999998,
      "d": 659.7215624999953,
      "v": 77
    },
    {
      "midi": 61,
      "hit": false,
      "t": 129333.20399999998,
      "d": 659.7215624999953,
      "v": 74
    },
    {
      "midi": 64,
      "hit": false,
      "t": 129333.20399999998,
      "d": 659.7215624999953,
      "v": 82
    },
    {
      "midi": 48,
      "hit": false,
      "t": 129479.03718749716,
      "d": 27.777750000008382,
      "v": 95
    },
    {
      "midi": 50,
      "hit": false,
      "t": 129499.87049999717,
      "d": 27.777750000008382,
      "v": 95
    },
    {
      "midi": 47,
      "hit": false,
      "t": 129833.20349999718,
      "d": 27.77774999999383,
      "v": 91
    },
    {
      "midi": 59,
      "hit": false,
      "t": 129999.86999999998,
      "d": 621.5271562499984,
      "v": 56
    },
    {
      "midi": 63,
      "hit": false,
      "t": 129999.86999999998,
      "d": 624.9993749999994,
      "v": 56
    },
    {
      "midi": 56,
      "hit": false,
      "t": 129999.86999999998,
      "d": 638.8882500000036,
      "v": 62
    },
    {
      "midi": 45,
      "hit": false,
      "t": 130166.53649999718,
      "d": 27.77774999999383,
      "v": 81
    },
    {
      "midi": 45,
      "hit": false,
      "t": 130333.20299999717,
      "d": 27.77774999999383,
      "v": 91
    },
    {
      "midi": 45,
      "hit": false,
      "t": 130499.86949999716,
      "d": 27.77774999999383,
      "v": 95
    },
    {
      "midi": 42,
      "hit": false,
      "t": 130666.53599999716,
      "d": 27.77774999999383,
      "v": 85
    },
    {
      "midi": 57,
      "hit": false,
      "t": 130666.53599999716,
      "d": 27.77774999999383,
      "v": 90
    },
    {
      "midi": 42,
      "hit": false,
      "t": 130833.20249999715,
      "d": 27.77774999999383,
      "v": 50
    },
    {
      "midi": 42,
      "hit": false,
      "t": 130999.86899999714,
      "d": 27.77774999999383,
      "v": 70
    },
    {
      "midi": 54,
      "hit": false,
      "t": 130999.86899999714,
      "d": 27.77774999999383,
      "v": 80
    },
    {
      "midi": 42,
      "hit": false,
      "t": 131166.53549999715,
      "d": 27.777750000008382,
      "v": 50
    },
    {
      "midi": 42,
      "hit": false,
      "t": 131333.20199999717,
      "d": 27.777750000008382,
      "v": 85
    },
    {
      "midi": 49,
      "hit": false,
      "t": 131333.20199999717,
      "d": 27.777750000008382,
      "v": 90
    },
    {
      "midi": 42,
      "hit": false,
      "t": 131499.8684999972,
      "d": 27.777750000008382,
      "v": 50
    },
    {
      "midi": 42,
      "hit": false,
      "t": 131666.5349999972,
      "d": 27.777750000008382,
      "v": 70
    },
    {
      "midi": 54,
      "hit": false,
      "t": 131666.5349999972,
      "d": 27.777750000008382,
      "v": 80
    },
    {
      "midi": 42,
      "hit": false,
      "t": 131833.20149999723,
      "d": 27.777750000008382,
      "v": 50
    },
    {
      "midi": 42,
      "hit": false,
      "t": 131999.86799999725,
      "d": 27.777750000008382,
      "v": 85
    },
    {
      "midi": 42,
      "hit": false,
      "t": 132166.53449999727,
      "d": 27.777750000008382,
      "v": 50
    },
    {
      "midi": 42,
      "hit": false,
      "t": 132333.2009999973,
      "d": 27.777750000008382,
      "v": 70
    },
    {
      "midi": 54,
      "hit": false,
      "t": 132333.2009999973,
      "d": 27.777750000008382,
      "v": 80
    },
    {
      "midi": 42,
      "hit": false,
      "t": 132499.86749999732,
      "d": 27.777750000008382,
      "v": 50
    },
    {
      "midi": 42,
      "hit": false,
      "t": 132666.53399999734,
      "d": 27.777750000008382,
      "v": 85
    },
    {
      "midi": 59,
      "hit": false,
      "t": 132666.53399999734,
      "d": 27.777750000008382,
      "v": 86
    },
    {
      "midi": 42,
      "hit": false,
      "t": 132833.20049999736,
      "d": 27.777750000008382,
      "v": 50
    },
    {
      "midi": 42,
      "hit": false,
      "t": 132999.86699999738,
      "d": 27.777750000008382,
      "v": 70
    },
    {
      "midi": 54,
      "hit": false,
      "t": 132999.86699999738,
      "d": 27.777750000008382,
      "v": 80
    },
    {
      "midi": 42,
      "hit": false,
      "t": 133166.5334999974,
      "d": 27.777750000008382,
      "v": 50
    },
    {
      "midi": 42,
      "hit": false,
      "t": 133333.19999999742,
      "d": 27.777750000008382,
      "v": 85
    },
    {
      "midi": 42,
      "hit": false,
      "t": 133499.86649999744,
      "d": 27.777750000008382,
      "v": 50
    },
    {
      "midi": 42,
      "hit": false,
      "t": 133666.53299999746,
      "d": 27.777750000008382,
      "v": 70
    },
    {
      "midi": 54,
      "hit": false,
      "t": 133666.53299999746,
      "d": 27.777750000008382,
      "v": 80
    },
    {
      "midi": 42,
      "hit": false,
      "t": 133833.19949999748,
      "d": 27.777750000008382,
      "v": 50
    },
    {
      "midi": 42,
      "hit": false,
      "t": 133999.8659999975,
      "d": 27.777750000008382,
      "v": 85
    },
    {
      "midi": 59,
      "hit": false,
      "t": 133999.8659999975,
      "d": 27.777750000008382,
      "v": 78
    },
    {
      "midi": 42,
      "hit": false,
      "t": 134166.53249999753,
      "d": 27.777750000008382,
      "v": 50
    },
    {
      "midi": 42,
      "hit": false,
      "t": 134333.19899999755,
      "d": 27.777750000008382,
      "v": 70
    },
    {
      "midi": 54,
      "hit": false,
      "t": 134333.19899999755,
      "d": 27.777750000008382,
      "v": 80
    },
    {
      "midi": 42,
      "hit": false,
      "t": 134499.86549999757,
      "d": 27.777750000008382,
      "v": 50
    },
    {
      "midi": 42,
      "hit": false,
      "t": 134666.5319999976,
      "d": 27.777750000008382,
      "v": 85
    },
    {
      "midi": 42,
      "hit": false,
      "t": 134833.1984999976,
      "d": 27.777750000008382,
      "v": 50
    },
    {
      "midi": 42,
      "hit": false,
      "t": 134999.86499999763,
      "d": 27.777750000008382,
      "v": 70
    },
    {
      "midi": 54,
      "hit": false,
      "t": 134999.86499999763,
      "d": 27.777750000008382,
      "v": 80
    },
    {
      "midi": 42,
      "hit": false,
      "t": 135166.53149999765,
      "d": 27.777750000008382,
      "v": 50
    },
    {
      "midi": 42,
      "hit": false,
      "t": 135333.19799999768,
      "d": 27.777750000008382,
      "v": 85
    },
    {
      "midi": 59,
      "hit": false,
      "t": 135333.19799999768,
      "d": 27.777750000008382,
      "v": 76
    },
    {
      "midi": 42,
      "hit": false,
      "t": 135499.8644999977,
      "d": 27.777750000008382,
      "v": 50
    },
    {
      "midi": 42,
      "hit": false,
      "t": 135666.53099999772,
      "d": 27.777750000008382,
      "v": 70
    },
    {
      "midi": 54,
      "hit": false,
      "t": 135666.53099999772,
      "d": 27.777750000008382,
      "v": 80
    },
    {
      "midi": 42,
      "hit": false,
      "t": 135833.19749999774,
      "d": 27.777750000008382,
      "v": 50
    },
    {
      "midi": 42,
      "hit": false,
      "t": 135999.86399999776,
      "d": 27.777750000008382,
      "v": 85
    },
    {
      "midi": 42,
      "hit": false,
      "t": 136166.53049999778,
      "d": 27.777750000008382,
      "v": 50
    },
    {
      "midi": 42,
      "hit": false,
      "t": 136333.1969999978,
      "d": 27.777750000008382,
      "v": 70
    },
    {
      "midi": 54,
      "hit": false,
      "t": 136333.1969999978,
      "d": 27.777750000008382,
      "v": 80
    },
    {
      "midi": 42,
      "hit": false,
      "t": 136499.86349999782,
      "d": 27.777750000008382,
      "v": 50
    },
    {
      "midi": 42,
      "hit": false,
      "t": 136666.52999999785,
      "d": 27.777750000008382,
      "v": 85
    },
    {
      "midi": 49,
      "hit": false,
      "t": 136666.52999999785,
      "d": 27.777750000008382,
      "v": 78
    },
    {
      "midi": 42,
      "hit": false,
      "t": 136833.19649999787,
      "d": 27.777750000008382,
      "v": 50
    },
    {
      "midi": 42,
      "hit": false,
      "t": 136999.8629999979,
      "d": 27.777750000008382,
      "v": 70
    },
    {
      "midi": 54,
      "hit": false,
      "t": 136999.8629999979,
      "d": 27.777750000008382,
      "v": 80
    },
    {
      "midi": 42,
      "hit": false,
      "t": 137166.5294999979,
      "d": 27.777750000008382,
      "v": 50
    },
    {
      "midi": 42,
      "hit": false,
      "t": 137333.19599999793,
      "d": 27.777750000008382,
      "v": 85
    },
    {
      "midi": 42,
      "hit": false,
      "t": 137499.86249999795,
      "d": 27.777750000008382,
      "v": 50
    },
    {
      "midi": 42,
      "hit": false,
      "t": 137666.52899999797,
      "d": 27.777750000008382,
      "v": 70
    },
    {
      "midi": 54,
      "hit": false,
      "t": 137666.52899999797,
      "d": 27.777750000008382,
      "v": 80
    },
    {
      "midi": 42,
      "hit": false,
      "t": 137833.195499998,
      "d": 27.777750000008382,
      "v": 50
    },
    {
      "midi": 42,
      "hit": false,
      "t": 137999.86199999801,
      "d": 27.777750000008382,
      "v": 85
    },
    {
      "midi": 59,
      "hit": false,
      "t": 137999.86199999801,
      "d": 27.777750000008382,
      "v": 86
    },
    {
      "midi": 42,
      "hit": false,
      "t": 138166.52849999804,
      "d": 27.777750000008382,
      "v": 50
    },
    {
      "midi": 42,
      "hit": false,
      "t": 138333.19499999806,
      "d": 27.777750000008382,
      "v": 70
    },
    {
      "midi": 54,
      "hit": false,
      "t": 138333.19499999806,
      "d": 27.777750000008382,
      "v": 80
    },
    {
      "midi": 42,
      "hit": false,
      "t": 138499.86149999808,
      "d": 27.777750000008382,
      "v": 50
    },
    {
      "midi": 42,
      "hit": false,
      "t": 138666.5279999981,
      "d": 27.777750000008382,
      "v": 85
    },
    {
      "midi": 42,
      "hit": false,
      "t": 138833.19449999812,
      "d": 27.777750000008382,
      "v": 50
    },
    {
      "midi": 42,
      "hit": false,
      "t": 138999.86099999814,
      "d": 27.777750000008382,
      "v": 70
    },
    {
      "midi": 54,
      "hit": false,
      "t": 138999.86099999814,
      "d": 27.777750000008382,
      "v": 80
    },
    {
      "midi": 42,
      "hit": false,
      "t": 139166.52749999816,
      "d": 27.777750000008382,
      "v": 50
    },
    {
      "midi": 42,
      "hit": false,
      "t": 139333.19399999818,
      "d": 27.777750000008382,
      "v": 85
    },
    {
      "midi": 59,
      "hit": false,
      "t": 139333.19399999818,
      "d": 27.777750000008382,
      "v": 83
    },
    {
      "midi": 42,
      "hit": false,
      "t": 139499.8604999982,
      "d": 27.777750000008382,
      "v": 50
    },
    {
      "midi": 42,
      "hit": false,
      "t": 139666.52699999823,
      "d": 27.777750000008382,
      "v": 70
    },
    {
      "midi": 54,
      "hit": false,
      "t": 139666.52699999823,
      "d": 27.777750000008382,
      "v": 80
    },
    {
      "midi": 42,
      "hit": false,
      "t": 139833.19349999825,
      "d": 27.777750000008382,
      "v": 50
    },
    {
      "midi": 42,
      "hit": false,
      "t": 139999.85999999827,
      "d": 27.777750000008382,
      "v": 85
    },
    {
      "midi": 42,
      "hit": false,
      "t": 140166.5264999983,
      "d": 27.777750000008382,
      "v": 50
    },
    {
      "midi": 42,
      "hit": false,
      "t": 140333.1929999983,
      "d": 27.777750000008382,
      "v": 70
    },
    {
      "midi": 54,
      "hit": false,
      "t": 140333.1929999983,
      "d": 27.777750000008382,
      "v": 80
    },
    {
      "midi": 42,
      "hit": false,
      "t": 140499.85949999833,
      "d": 27.777750000008382,
      "v": 50
    },
    {
      "midi": 42,
      "hit": false,
      "t": 140666.52599999835,
      "d": 27.777750000008382,
      "v": 85
    },
    {
      "midi": 59,
      "hit": false,
      "t": 140666.52599999835,
      "d": 27.777750000008382,
      "v": 83
    },
    {
      "midi": 42,
      "hit": false,
      "t": 140833.19249999837,
      "d": 27.777750000008382,
      "v": 50
    },
    {
      "midi": 42,
      "hit": false,
      "t": 140999.8589999984,
      "d": 27.777750000008382,
      "v": 70
    },
    {
      "midi": 54,
      "hit": false,
      "t": 140999.8589999984,
      "d": 27.777750000008382,
      "v": 80
    },
    {
      "midi": 42,
      "hit": false,
      "t": 141166.52549999842,
      "d": 27.777750000008382,
      "v": 50
    },
    {
      "midi": 42,
      "hit": false,
      "t": 141333.19199999844,
      "d": 27.777750000008382,
      "v": 85
    },
    {
      "midi": 42,
      "hit": false,
      "t": 141499.85849999846,
      "d": 27.777750000008382,
      "v": 50
    },
    {
      "midi": 42,
      "hit": false,
      "t": 141666.52499999848,
      "d": 27.777750000008382,
      "v": 70
    },
    {
      "midi": 54,
      "hit": false,
      "t": 141666.52499999848,
      "d": 27.777750000008382,
      "v": 80
    },
    {
      "midi": 42,
      "hit": false,
      "t": 141833.1914999985,
      "d": 27.777750000008382,
      "v": 50
    },
    {
      "midi": 42,
      "hit": false,
      "t": 141999.85799999852,
      "d": 27.777750000008382,
      "v": 85
    },
    {
      "midi": 59,
      "hit": false,
      "t": 141999.85799999852,
      "d": 27.777750000008382,
      "v": 86
    },
    {
      "midi": 42,
      "hit": false,
      "t": 142166.52449999854,
      "d": 27.777750000008382,
      "v": 50
    },
    {
      "midi": 42,
      "hit": false,
      "t": 142333.19099999857,
      "d": 27.777750000008382,
      "v": 70
    },
    {
      "midi": 54,
      "hit": false,
      "t": 142333.19099999857,
      "d": 27.777750000008382,
      "v": 80
    },
    {
      "midi": 42,
      "hit": false,
      "t": 142499.8574999986,
      "d": 27.777750000008382,
      "v": 50
    },
    {
      "midi": 42,
      "hit": false,
      "t": 142666.5239999986,
      "d": 27.777750000008382,
      "v": 85
    },
    {
      "midi": 42,
      "hit": false,
      "t": 142833.19049999863,
      "d": 27.777750000008382,
      "v": 50
    },
    {
      "midi": 42,
      "hit": false,
      "t": 142999.85699999865,
      "d": 27.777750000008382,
      "v": 70
    },
    {
      "midi": 54,
      "hit": false,
      "t": 142999.85699999865,
      "d": 27.777750000008382,
      "v": 80
    },
    {
      "midi": 42,
      "hit": false,
      "t": 143166.52349999867,
      "d": 27.777750000008382,
      "v": 50
    },
    {
      "midi": 42,
      "hit": false,
      "t": 143333.1899999987,
      "d": 27.777750000008382,
      "v": 85
    },
    {
      "midi": 59,
      "hit": false,
      "t": 143333.1899999987,
      "d": 27.777750000008382,
      "v": 83
    },
    {
      "midi": 42,
      "hit": false,
      "t": 143499.8564999987,
      "d": 27.777750000008382,
      "v": 50
    },
    {
      "midi": 42,
      "hit": false,
      "t": 143666.52299999874,
      "d": 27.777750000008382,
      "v": 70
    },
    {
      "midi": 54,
      "hit": false,
      "t": 143666.52299999874,
      "d": 27.777750000008382,
      "v": 80
    },
    {
      "midi": 42,
      "hit": false,
      "t": 143833.18949999876,
      "d": 27.777750000008382,
      "v": 50
    },
    {
      "midi": 42,
      "hit": false,
      "t": 143999.85599999878,
      "d": 27.777750000008382,
      "v": 85
    },
    {
      "midi": 42,
      "hit": false,
      "t": 144166.5224999988,
      "d": 27.777750000008382,
      "v": 50
    },
    {
      "midi": 42,
      "hit": false,
      "t": 144333.18899999882,
      "d": 27.777750000008382,
      "v": 70
    },
    {
      "midi": 54,
      "hit": false,
      "t": 144333.18899999882,
      "d": 27.777750000008382,
      "v": 80
    },
    {
      "midi": 42,
      "hit": false,
      "t": 144499.85549999884,
      "d": 27.777750000008382,
      "v": 50
    },
    {
      "midi": 42,
      "hit": false,
      "t": 144666.52199999886,
      "d": 27.777750000008382,
      "v": 85
    },
    {
      "midi": 59,
      "hit": false,
      "t": 144666.52199999886,
      "d": 27.777750000008382,
      "v": 83
    },
    {
      "midi": 42,
      "hit": false,
      "t": 144833.18849999888,
      "d": 27.777750000008382,
      "v": 50
    },
    {
      "midi": 42,
      "hit": false,
      "t": 144999.8549999989,
      "d": 27.777750000008382,
      "v": 70
    },
    {
      "midi": 54,
      "hit": false,
      "t": 144999.8549999989,
      "d": 27.777750000008382,
      "v": 80
    },
    {
      "midi": 42,
      "hit": false,
      "t": 145166.52149999893,
      "d": 27.777750000008382,
      "v": 50
    },
    {
      "midi": 42,
      "hit": false,
      "t": 145333.18799999895,
      "d": 27.777750000008382,
      "v": 85
    },
    {
      "midi": 42,
      "hit": false,
      "t": 145499.85449999897,
      "d": 27.777750000008382,
      "v": 50
    },
    {
      "midi": 42,
      "hit": false,
      "t": 145666.520999999,
      "d": 27.777750000008382,
      "v": 70
    },
    {
      "midi": 54,
      "hit": false,
      "t": 145666.520999999,
      "d": 27.777750000008382,
      "v": 80
    },
    {
      "midi": 42,
      "hit": false,
      "t": 145833.187499999,
      "d": 27.777750000008382,
      "v": 50
    },
    {
      "midi": 42,
      "hit": false,
      "t": 145999.85399999903,
      "d": 27.777750000008382,
      "v": 85
    },
    {
      "midi": 59,
      "hit": false,
      "t": 145999.85399999903,
      "d": 27.777750000008382,
      "v": 83
    },
    {
      "midi": 42,
      "hit": false,
      "t": 146166.52049999905,
      "d": 27.777750000008382,
      "v": 50
    },
    {
      "midi": 42,
      "hit": false,
      "t": 146333.18699999907,
      "d": 27.777750000008382,
      "v": 70
    },
    {
      "midi": 54,
      "hit": false,
      "t": 146333.18699999907,
      "d": 27.777750000008382,
      "v": 80
    },
    {
      "midi": 42,
      "hit": false,
      "t": 146499.8534999991,
      "d": 27.777750000008382,
      "v": 50
    },
    {
      "midi": 42,
      "hit": false,
      "t": 146666.51999999912,
      "d": 27.777750000008382,
      "v": 85
    },
    {
      "midi": 42,
      "hit": false,
      "t": 146833.18649999914,
      "d": 27.777750000008382,
      "v": 50
    },
    {
      "midi": 42,
      "hit": false,
      "t": 146999.85299999916,
      "d": 27.777750000008382,
      "v": 70
    },
    {
      "midi": 54,
      "hit": false,
      "t": 146999.85299999916,
      "d": 27.777750000008382,
      "v": 80
    },
    {
      "midi": 42,
      "hit": false,
      "t": 147166.51949999918,
      "d": 27.777750000008382,
      "v": 50
    },
    {
      "midi": 42,
      "hit": false,
      "t": 147333.1859999992,
      "d": 27.777750000008382,
      "v": 85
    },
    {
      "midi": 59,
      "hit": false,
      "t": 147333.1859999992,
      "d": 27.777750000008382,
      "v": 83
    },
    {
      "midi": 42,
      "hit": false,
      "t": 147499.85249999922,
      "d": 27.777750000008382,
      "v": 50
    },
    {
      "midi": 42,
      "hit": false,
      "t": 147666.51899999924,
      "d": 27.777750000008382,
      "v": 70
    },
    {
      "midi": 54,
      "hit": false,
      "t": 147666.51899999924,
      "d": 27.777750000008382,
      "v": 80
    },
    {
      "midi": 42,
      "hit": false,
      "t": 147833.18549999926,
      "d": 27.777750000008382,
      "v": 50
    },
    {
      "midi": 42,
      "hit": false,
      "t": 147999.8519999993,
      "d": 27.777750000008382,
      "v": 85
    },
    {
      "midi": 42,
      "hit": false,
      "t": 148166.5184999993,
      "d": 27.777750000008382,
      "v": 50
    },
    {
      "midi": 42,
      "hit": false,
      "t": 148333.18499999933,
      "d": 27.777750000008382,
      "v": 70
    },
    {
      "midi": 54,
      "hit": false,
      "t": 148333.18499999933,
      "d": 27.777750000008382,
      "v": 80
    },
    {
      "midi": 42,
      "hit": false,
      "t": 148499.85149999935,
      "d": 27.777750000008382,
      "v": 50
    },
    {
      "midi": 42,
      "hit": false,
      "t": 148666.51799999937,
      "d": 27.777750000008382,
      "v": 85
    },
    {
      "midi": 59,
      "hit": false,
      "t": 148666.51799999937,
      "d": 27.777750000008382,
      "v": 83
    },
    {
      "midi": 42,
      "hit": false,
      "t": 148833.1844999994,
      "d": 27.777750000008382,
      "v": 50
    },
    {
      "midi": 42,
      "hit": false,
      "t": 148999.8509999994,
      "d": 27.777750000008382,
      "v": 70
    },
    {
      "midi": 54,
      "hit": false,
      "t": 148999.8509999994,
      "d": 27.777750000008382,
      "v": 80
    },
    {
      "midi": 42,
      "hit": false,
      "t": 149166.51749999943,
      "d": 27.777750000008382,
      "v": 50
    },
    {
      "midi": 42,
      "hit": false,
      "t": 149333.18399999946,
      "d": 27.777750000008382,
      "v": 85
    },
    {
      "midi": 42,
      "hit": false,
      "t": 149499.85049999948,
      "d": 27.777750000008382,
      "v": 50
    },
    {
      "midi": 42,
      "hit": false,
      "t": 149666.5169999995,
      "d": 27.777750000008382,
      "v": 70
    },
    {
      "midi": 54,
      "hit": false,
      "t": 149666.5169999995,
      "d": 27.777750000008382,
      "v": 80
    },
    {
      "midi": 42,
      "hit": false,
      "t": 149833.18349999952,
      "d": 27.777750000008382,
      "v": 50
    },
    {
      "midi": 42,
      "hit": false,
      "t": 149999.84999999954,
      "d": 27.777750000008382,
      "v": 85
    },
    {
      "midi": 59,
      "hit": false,
      "t": 149999.84999999954,
      "d": 27.777750000008382,
      "v": 86
    },
    {
      "midi": 42,
      "hit": false,
      "t": 150166.51649999956,
      "d": 27.777750000008382,
      "v": 50
    },
    {
      "midi": 42,
      "hit": false,
      "t": 150333.18299999958,
      "d": 27.777750000008382,
      "v": 70
    },
    {
      "midi": 54,
      "hit": false,
      "t": 150333.18299999958,
      "d": 27.777750000008382,
      "v": 80
    },
    {
      "midi": 42,
      "hit": false,
      "t": 150499.8494999996,
      "d": 27.777750000008382,
      "v": 50
    },
    {
      "midi": 42,
      "hit": false,
      "t": 150666.51599999962,
      "d": 27.777750000008382,
      "v": 85
    },
    {
      "midi": 42,
      "hit": false,
      "t": 150833.18249999965,
      "d": 27.777750000008382,
      "v": 50
    },
    {
      "midi": 42,
      "hit": false,
      "t": 150999.84899999967,
      "d": 27.777750000008382,
      "v": 70
    },
    {
      "midi": 54,
      "hit": false,
      "t": 150999.84899999967,
      "d": 27.777750000008382,
      "v": 80
    },
    {
      "midi": 42,
      "hit": false,
      "t": 151166.5154999997,
      "d": 27.777750000008382,
      "v": 50
    },
    {
      "midi": 42,
      "hit": false,
      "t": 151333.1819999997,
      "d": 27.777750000008382,
      "v": 85
    },
    {
      "midi": 59,
      "hit": false,
      "t": 151333.1819999997,
      "d": 27.777750000008382,
      "v": 83
    },
    {
      "midi": 42,
      "hit": false,
      "t": 151499.84849999973,
      "d": 27.777750000008382,
      "v": 50
    },
    {
      "midi": 42,
      "hit": false,
      "t": 151666.51499999975,
      "d": 27.777750000008382,
      "v": 70
    },
    {
      "midi": 54,
      "hit": false,
      "t": 151666.51499999975,
      "d": 27.777750000008382,
      "v": 80
    },
    {
      "midi": 42,
      "hit": false,
      "t": 151833.18149999977,
      "d": 27.777750000008382,
      "v": 50
    },
    {
      "midi": 42,
      "hit": false,
      "t": 151999.8479999998,
      "d": 27.777750000008382,
      "v": 85
    },
    {
      "midi": 42,
      "hit": false,
      "t": 152166.51449999982,
      "d": 27.777750000008382,
      "v": 50
    },
    {
      "midi": 42,
      "hit": false,
      "t": 152333.18099999984,
      "d": 27.777750000008382,
      "v": 70
    },
    {
      "midi": 54,
      "hit": false,
      "t": 152333.18099999984,
      "d": 27.777750000008382,
      "v": 80
    },
    {
      "midi": 42,
      "hit": false,
      "t": 152499.84749999986,
      "d": 27.777750000008382,
      "v": 50
    },
    {
      "midi": 42,
      "hit": false,
      "t": 152666.51399999988,
      "d": 27.777750000008382,
      "v": 85
    },
    {
      "midi": 57,
      "hit": false,
      "t": 152666.51399999988,
      "d": 27.777750000008382,
      "v": 90
    },
    {
      "midi": 42,
      "hit": false,
      "t": 152833.1804999999,
      "d": 27.777750000008382,
      "v": 50
    },
    {
      "midi": 42,
      "hit": false,
      "t": 152999.84699999992,
      "d": 27.777750000008382,
      "v": 70
    },
    {
      "midi": 54,
      "hit": false,
      "t": 152999.84699999992,
      "d": 27.777750000008382,
      "v": 80
    },
    {
      "midi": 42,
      "hit": false,
      "t": 153166.51349999994,
      "d": 27.777750000008382,
      "v": 50
    },
    {
      "midi": 42,
      "hit": false,
      "t": 153333.17999999996,
      "d": 27.777750000008382,
      "v": 85
    },
    {
      "midi": 42,
      "hit": false,
      "t": 153499.84649999999,
      "d": 27.777750000008382,
      "v": 50
    },
    {
      "midi": 42,
      "hit": false,
      "t": 153666.513,
      "d": 27.777750000008382,
      "v": 70
    },
    {
      "midi": 54,
      "hit": false,
      "t": 153666.513,
      "d": 27.777750000008382,
      "v": 80
    },
    {
      "midi": 42,
      "hit": false,
      "t": 153833.17950000003,
      "d": 27.777750000008382,
      "v": 50
    },
    {
      "midi": 42,
      "hit": false,
      "t": 153999.84600000005,
      "d": 27.777750000008382,
      "v": 85
    },
    {
      "midi": 59,
      "hit": false,
      "t": 153999.84600000005,
      "d": 27.777750000008382,
      "v": 76
    },
    {
      "midi": 42,
      "hit": false,
      "t": 154166.51250000007,
      "d": 27.777750000008382,
      "v": 50
    },
    {
      "midi": 42,
      "hit": false,
      "t": 154333.1790000001,
      "d": 27.777750000008382,
      "v": 70
    },
    {
      "midi": 54,
      "hit": false,
      "t": 154333.1790000001,
      "d": 27.777750000008382,
      "v": 80
    },
    {
      "midi": 42,
      "hit": false,
      "t": 154499.8455000001,
      "d": 27.777750000008382,
      "v": 50
    },
    {
      "midi": 42,
      "hit": false,
      "t": 154666.51200000013,
      "d": 27.777750000008382,
      "v": 85
    },
    {
      "midi": 42,
      "hit": false,
      "t": 154833.17850000015,
      "d": 27.777750000008382,
      "v": 50
    },
    {
      "midi": 42,
      "hit": false,
      "t": 154999.84500000018,
      "d": 27.777750000008382,
      "v": 70
    },
    {
      "midi": 54,
      "hit": false,
      "t": 154999.84500000018,
      "d": 27.777750000008382,
      "v": 80
    },
    {
      "midi": 42,
      "hit": false,
      "t": 155166.5115000002,
      "d": 27.777750000008382,
      "v": 50
    },
    {
      "midi": 42,
      "hit": false,
      "t": 155333.17800000022,
      "d": 27.777750000008382,
      "v": 85
    },
    {
      "midi": 59,
      "hit": false,
      "t": 155333.17800000022,
      "d": 27.777750000008382,
      "v": 63
    },
    {
      "midi": 42,
      "hit": false,
      "t": 155499.84450000024,
      "d": 27.777750000008382,
      "v": 50
    },
    {
      "midi": 42,
      "hit": false,
      "t": 155666.51100000026,
      "d": 27.777750000008382,
      "v": 70
    },
    {
      "midi": 54,
      "hit": false,
      "t": 155666.51100000026,
      "d": 27.777750000008382,
      "v": 80
    },
    {
      "midi": 42,
      "hit": false,
      "t": 155833.17750000028,
      "d": 27.777750000008382,
      "v": 50
    },
    {
      "midi": 42,
      "hit": false,
      "t": 155999.8440000003,
      "d": 27.777750000008382,
      "v": 85
    },
    {
      "midi": 42,
      "hit": false,
      "t": 156166.51050000032,
      "d": 27.777750000008382,
      "v": 50
    },
    {
      "midi": 42,
      "hit": false,
      "t": 156333.17700000035,
      "d": 27.777750000008382,
      "v": 70
    },
    {
      "midi": 54,
      "hit": false,
      "t": 156333.17700000035,
      "d": 27.777750000008382,
      "v": 80
    },
    {
      "midi": 42,
      "hit": false,
      "t": 156499.84350000037,
      "d": 27.777750000008382,
      "v": 50
    },
    {
      "midi": 42,
      "hit": false,
      "t": 156666.5100000004,
      "d": 27.777750000008382,
      "v": 85
    },
    {
      "midi": 59,
      "hit": false,
      "t": 156666.5100000004,
      "d": 27.777750000008382,
      "v": 83
    },
    {
      "midi": 42,
      "hit": false,
      "t": 156833.1765000004,
      "d": 27.777750000008382,
      "v": 50
    },
    {
      "midi": 42,
      "hit": false,
      "t": 156999.84300000043,
      "d": 27.777750000008382,
      "v": 70
    },
    {
      "midi": 54,
      "hit": false,
      "t": 156999.84300000043,
      "d": 27.777750000008382,
      "v": 80
    },
    {
      "midi": 42,
      "hit": false,
      "t": 157166.50950000045,
      "d": 27.777750000008382,
      "v": 50
    },
    {
      "midi": 42,
      "hit": false,
      "t": 157333.17600000047,
      "d": 27.777750000008382,
      "v": 85
    },
    {
      "midi": 42,
      "hit": false,
      "t": 157499.8425000005,
      "d": 27.777750000008382,
      "v": 50
    },
    {
      "midi": 42,
      "hit": false,
      "t": 157666.50900000051,
      "d": 27.777750000008382,
      "v": 70
    },
    {
      "midi": 54,
      "hit": false,
      "t": 157666.50900000051,
      "d": 27.777750000008382,
      "v": 80
    },
    {
      "midi": 42,
      "hit": false,
      "t": 157833.17550000054,
      "d": 27.777750000008382,
      "v": 50
    },
    {
      "midi": 42,
      "hit": false,
      "t": 157999.84200000056,
      "d": 27.777750000008382,
      "v": 85
    },
    {
      "midi": 57,
      "hit": false,
      "t": 157999.84200000056,
      "d": 27.777750000008382,
      "v": 90
    },
    {
      "midi": 42,
      "hit": false,
      "t": 158166.50850000058,
      "d": 27.777750000008382,
      "v": 50
    },
    {
      "midi": 42,
      "hit": false,
      "t": 158333.1750000006,
      "d": 27.777750000008382,
      "v": 70
    },
    {
      "midi": 54,
      "hit": false,
      "t": 158333.1750000006,
      "d": 27.777750000008382,
      "v": 80
    },
    {
      "midi": 42,
      "hit": false,
      "t": 158499.84150000062,
      "d": 27.777750000008382,
      "v": 50
    },
    {
      "midi": 42,
      "hit": false,
      "t": 158666.50800000064,
      "d": 27.777750000008382,
      "v": 85
    },
    {
      "midi": 42,
      "hit": false,
      "t": 158833.17450000066,
      "d": 27.777750000008382,
      "v": 50
    },
    {
      "midi": 42,
      "hit": false,
      "t": 158999.84100000068,
      "d": 27.777750000008382,
      "v": 70
    },
    {
      "midi": 54,
      "hit": false,
      "t": 158999.84100000068,
      "d": 27.777750000008382,
      "v": 80
    },
    {
      "midi": 42,
      "hit": false,
      "t": 159166.5075000007,
      "d": 27.777750000008382,
      "v": 50
    },
    {
      "midi": 42,
      "hit": false,
      "t": 159333.17400000073,
      "d": 27.777750000008382,
      "v": 85
    },
    {
      "midi": 59,
      "hit": false,
      "t": 159333.17400000073,
      "d": 27.777750000008382,
      "v": 83
    },
    {
      "midi": 42,
      "hit": false,
      "t": 159499.84050000075,
      "d": 27.777750000008382,
      "v": 50
    },
    {
      "midi": 42,
      "hit": false,
      "t": 159666.50700000077,
      "d": 27.777750000008382,
      "v": 70
    },
    {
      "midi": 54,
      "hit": false,
      "t": 159666.50700000077,
      "d": 27.777750000008382,
      "v": 80
    },
    {
      "midi": 42,
      "hit": false,
      "t": 159833.1735000008,
      "d": 27.777750000008382,
      "v": 50
    },
    {
      "midi": 42,
      "hit": false,
      "t": 159999.8400000008,
      "d": 27.777750000008382,
      "v": 85
    },
    {
      "midi": 42,
      "hit": false,
      "t": 160166.50650000083,
      "d": 27.777750000008382,
      "v": 50
    },
    {
      "midi": 42,
      "hit": false,
      "t": 160333.17300000085,
      "d": 27.777750000008382,
      "v": 70
    },
    {
      "midi": 54,
      "hit": false,
      "t": 160333.17300000085,
      "d": 27.777750000008382,
      "v": 80
    },
    {
      "midi": 42,
      "hit": false,
      "t": 160499.83950000087,
      "d": 27.777750000008382,
      "v": 50
    },
    {
      "midi": 42,
      "hit": false,
      "t": 160666.5060000009,
      "d": 27.777750000008382,
      "v": 85
    },
    {
      "midi": 59,
      "hit": false,
      "t": 160666.5060000009,
      "d": 27.777750000008382,
      "v": 80
    },
    {
      "midi": 42,
      "hit": false,
      "t": 160833.17250000092,
      "d": 27.777750000008382,
      "v": 50
    },
    {
      "midi": 42,
      "hit": false,
      "t": 160999.83900000094,
      "d": 27.777750000008382,
      "v": 70
    },
    {
      "midi": 54,
      "hit": false,
      "t": 160999.83900000094,
      "d": 27.777750000008382,
      "v": 80
    },
    {
      "midi": 42,
      "hit": false,
      "t": 161166.50550000096,
      "d": 27.777750000008382,
      "v": 50
    },
    {
      "midi": 42,
      "hit": false,
      "t": 161333.17200000098,
      "d": 27.777750000008382,
      "v": 85
    },
    {
      "midi": 42,
      "hit": false,
      "t": 161499.838500001,
      "d": 27.777750000008382,
      "v": 50
    },
    {
      "midi": 42,
      "hit": false,
      "t": 161666.50500000102,
      "d": 27.777750000008382,
      "v": 70
    },
    {
      "midi": 54,
      "hit": false,
      "t": 161666.50500000102,
      "d": 27.777750000008382,
      "v": 80
    },
    {
      "midi": 42,
      "hit": false,
      "t": 161833.17150000104,
      "d": 27.777750000008382,
      "v": 50
    },
    {
      "midi": 42,
      "hit": false,
      "t": 161999.83800000107,
      "d": 27.777750000008382,
      "v": 85
    },
    {
      "midi": 59,
      "hit": false,
      "t": 161999.83800000107,
      "d": 27.777750000008382,
      "v": 76
    },
    {
      "midi": 42,
      "hit": false,
      "t": 162166.5045000011,
      "d": 27.777750000008382,
      "v": 50
    },
    {
      "midi": 42,
      "hit": false,
      "t": 162333.1710000011,
      "d": 27.777750000008382,
      "v": 70
    },
    {
      "midi": 54,
      "hit": false,
      "t": 162333.1710000011,
      "d": 27.777750000008382,
      "v": 80
    },
    {
      "midi": 42,
      "hit": false,
      "t": 162499.83750000113,
      "d": 27.777750000008382,
      "v": 50
    },
    {
      "midi": 42,
      "hit": false,
      "t": 162666.50400000115,
      "d": 27.777750000008382,
      "v": 85
    },
    {
      "midi": 42,
      "hit": false,
      "t": 162833.17050000117,
      "d": 27.777750000008382,
      "v": 50
    },
    {
      "midi": 42,
      "hit": false,
      "t": 162999.8370000012,
      "d": 27.777750000008382,
      "v": 70
    },
    {
      "midi": 54,
      "hit": false,
      "t": 162999.8370000012,
      "d": 27.777750000008382,
      "v": 80
    },
    {
      "midi": 42,
      "hit": false,
      "t": 163166.5035000012,
      "d": 27.777750000008382,
      "v": 50
    },
    {
      "midi": 42,
      "hit": false,
      "t": 163333.17000000124,
      "d": 27.777750000008382,
      "v": 85
    },
    {
      "midi": 59,
      "hit": false,
      "t": 163333.17000000124,
      "d": 27.777750000008382,
      "v": 80
    },
    {
      "midi": 42,
      "hit": false,
      "t": 163499.83650000126,
      "d": 27.777750000008382,
      "v": 50
    },
    {
      "midi": 42,
      "hit": false,
      "t": 163666.50300000128,
      "d": 27.777750000008382,
      "v": 70
    },
    {
      "midi": 54,
      "hit": false,
      "t": 163666.50300000128,
      "d": 27.777750000008382,
      "v": 80
    },
    {
      "midi": 42,
      "hit": false,
      "t": 163833.1695000013,
      "d": 27.777750000008382,
      "v": 50
    },
    {
      "midi": 42,
      "hit": false,
      "t": 163999.83600000132,
      "d": 27.777750000008382,
      "v": 85
    },
    {
      "midi": 42,
      "hit": false,
      "t": 164166.50250000134,
      "d": 27.777750000008382,
      "v": 50
    },
    {
      "midi": 42,
      "hit": false,
      "t": 164333.16900000136,
      "d": 27.777750000008382,
      "v": 70
    },
    {
      "midi": 54,
      "hit": false,
      "t": 164333.16900000136,
      "d": 27.777750000008382,
      "v": 80
    },
    {
      "midi": 42,
      "hit": false,
      "t": 164499.83550000138,
      "d": 27.777750000008382,
      "v": 50
    },
    {
      "midi": 42,
      "hit": false,
      "t": 164666.5020000014,
      "d": 27.777750000008382,
      "v": 85
    },
    {
      "midi": 59,
      "hit": false,
      "t": 164666.5020000014,
      "d": 27.777750000008382,
      "v": 76
    },
    {
      "midi": 42,
      "hit": false,
      "t": 164833.16850000143,
      "d": 27.777750000008382,
      "v": 50
    },
    {
      "midi": 42,
      "hit": false,
      "t": 164999.83500000145,
      "d": 27.777750000008382,
      "v": 70
    },
    {
      "midi": 54,
      "hit": false,
      "t": 164999.83500000145,
      "d": 27.777750000008382,
      "v": 80
    },
    {
      "midi": 42,
      "hit": false,
      "t": 165166.50150000147,
      "d": 27.777750000008382,
      "v": 50
    },
    {
      "midi": 42,
      "hit": false,
      "t": 165333.1680000015,
      "d": 27.777750000008382,
      "v": 85
    },
    {
      "midi": 42,
      "hit": false,
      "t": 165499.8345000015,
      "d": 27.777750000008382,
      "v": 50
    },
    {
      "midi": 42,
      "hit": false,
      "t": 165666.50100000153,
      "d": 27.777750000008382,
      "v": 70
    },
    {
      "midi": 54,
      "hit": false,
      "t": 165666.50100000153,
      "d": 27.777750000008382,
      "v": 80
    },
    {
      "midi": 42,
      "hit": false,
      "t": 165833.16750000155,
      "d": 27.777750000008382,
      "v": 50
    },
    {
      "midi": 42,
      "hit": false,
      "t": 165999.83400000157,
      "d": 27.777750000008382,
      "v": 85
    },
    {
      "midi": 59,
      "hit": false,
      "t": 165999.83400000157,
      "d": 27.777750000008382,
      "v": 80
    },
    {
      "midi": 42,
      "hit": false,
      "t": 166166.5005000016,
      "d": 27.777750000008382,
      "v": 50
    },
    {
      "midi": 42,
      "hit": false,
      "t": 166333.16700000162,
      "d": 27.777750000008382,
      "v": 70
    },
    {
      "midi": 54,
      "hit": false,
      "t": 166333.16700000162,
      "d": 27.777750000008382,
      "v": 80
    },
    {
      "midi": 42,
      "hit": false,
      "t": 166499.83350000164,
      "d": 27.777750000008382,
      "v": 50
    },
    {
      "midi": 42,
      "hit": false,
      "t": 166666.50000000166,
      "d": 27.777750000008382,
      "v": 85
    },
    {
      "midi": 42,
      "hit": false,
      "t": 166833.16650000168,
      "d": 27.777750000008382,
      "v": 50
    },
    {
      "midi": 42,
      "hit": false,
      "t": 166999.8330000017,
      "d": 27.777750000008382,
      "v": 70
    },
    {
      "midi": 54,
      "hit": false,
      "t": 166999.8330000017,
      "d": 27.777750000008382,
      "v": 80
    },
    {
      "midi": 42,
      "hit": false,
      "t": 167166.49950000172,
      "d": 27.777750000008382,
      "v": 50
    },
    {
      "midi": 42,
      "hit": false,
      "t": 167333.16600000174,
      "d": 27.777750000008382,
      "v": 85
    },
    {
      "midi": 59,
      "hit": false,
      "t": 167333.16600000174,
      "d": 27.777750000008382,
      "v": 76
    },
    {
      "midi": 42,
      "hit": false,
      "t": 167499.83250000176,
      "d": 27.777750000008382,
      "v": 50
    },
    {
      "midi": 42,
      "hit": false,
      "t": 167666.4990000018,
      "d": 27.777750000008382,
      "v": 70
    },
    {
      "midi": 54,
      "hit": false,
      "t": 167666.4990000018,
      "d": 27.777750000008382,
      "v": 80
    },
    {
      "midi": 42,
      "hit": false,
      "t": 167833.1655000018,
      "d": 27.777750000008382,
      "v": 50
    },
    {
      "midi": 42,
      "hit": false,
      "t": 167999.83200000183,
      "d": 27.777750000008382,
      "v": 85
    },
    {
      "midi": 42,
      "hit": false,
      "t": 168166.49850000185,
      "d": 27.777750000008382,
      "v": 50
    },
    {
      "midi": 42,
      "hit": false,
      "t": 168333.16500000187,
      "d": 27.777750000008382,
      "v": 70
    },
    {
      "midi": 54,
      "hit": false,
      "t": 168333.16500000187,
      "d": 27.777750000008382,
      "v": 80
    },
    {
      "midi": 42,
      "hit": false,
      "t": 168499.8315000019,
      "d": 27.777750000008382,
      "v": 50
    },
    {
      "midi": 42,
      "hit": false,
      "t": 168666.4980000019,
      "d": 27.777750000008382,
      "v": 85
    },
    {
      "midi": 59,
      "hit": false,
      "t": 168666.4980000019,
      "d": 27.777750000008382,
      "v": 80
    },
    {
      "midi": 42,
      "hit": false,
      "t": 168833.16450000193,
      "d": 27.777750000008382,
      "v": 50
    },
    {
      "midi": 42,
      "hit": false,
      "t": 168999.83100000196,
      "d": 27.777750000008382,
      "v": 70
    },
    {
      "midi": 54,
      "hit": false,
      "t": 168999.83100000196,
      "d": 27.777750000008382,
      "v": 80
    },
    {
      "midi": 42,
      "hit": false,
      "t": 169166.49750000198,
      "d": 27.777750000008382,
      "v": 50
    },
    {
      "midi": 42,
      "hit": false,
      "t": 169333.164000002,
      "d": 27.777750000008382,
      "v": 85
    },
    {
      "midi": 42,
      "hit": false,
      "t": 169499.83050000202,
      "d": 27.777750000008382,
      "v": 50
    },
    {
      "midi": 42,
      "hit": false,
      "t": 169666.49700000204,
      "d": 27.777750000008382,
      "v": 70
    },
    {
      "midi": 54,
      "hit": false,
      "t": 169666.49700000204,
      "d": 27.777750000008382,
      "v": 80
    },
    {
      "midi": 42,
      "hit": false,
      "t": 169833.16350000206,
      "d": 27.777750000008382,
      "v": 50
    },
    {
      "midi": 42,
      "hit": false,
      "t": 169999.83000000208,
      "d": 27.777750000008382,
      "v": 85
    },
    {
      "midi": 59,
      "hit": false,
      "t": 169999.83000000208,
      "d": 27.777750000008382,
      "v": 76
    },
    {
      "midi": 42,
      "hit": false,
      "t": 170166.4965000021,
      "d": 27.777750000008382,
      "v": 50
    },
    {
      "midi": 42,
      "hit": false,
      "t": 170333.16300000213,
      "d": 27.777750000008382,
      "v": 70
    },
    {
      "midi": 54,
      "hit": false,
      "t": 170333.16300000213,
      "d": 27.777750000008382,
      "v": 80
    },
    {
      "midi": 42,
      "hit": false,
      "t": 170499.82950000215,
      "d": 27.777750000008382,
      "v": 50
    },
    {
      "midi": 42,
      "hit": false,
      "t": 170666.49600000217,
      "d": 27.777750000008382,
      "v": 85
    },
    {
      "midi": 42,
      "hit": false,
      "t": 170833.1625000022,
      "d": 27.777750000008382,
      "v": 50
    },
    {
      "midi": 42,
      "hit": false,
      "t": 170999.8290000022,
      "d": 27.777750000008382,
      "v": 70
    },
    {
      "midi": 54,
      "hit": false,
      "t": 170999.8290000022,
      "d": 27.777750000008382,
      "v": 80
    },
    {
      "midi": 42,
      "hit": false,
      "t": 171166.49550000223,
      "d": 27.777750000008382,
      "v": 50
    },
    {
      "midi": 42,
      "hit": false,
      "t": 171333.16200000225,
      "d": 27.777750000008382,
      "v": 85
    },
    {
      "midi": 59,
      "hit": false,
      "t": 171333.16200000225,
      "d": 27.777750000008382,
      "v": 80
    },
    {
      "midi": 42,
      "hit": false,
      "t": 171499.82850000227,
      "d": 27.777750000008382,
      "v": 50
    },
    {
      "midi": 42,
      "hit": false,
      "t": 171666.4950000023,
      "d": 27.777750000008382,
      "v": 70
    },
    {
      "midi": 54,
      "hit": false,
      "t": 171666.4950000023,
      "d": 27.777750000008382,
      "v": 80
    },
    {
      "midi": 42,
      "hit": false,
      "t": 171833.16150000232,
      "d": 27.777750000008382,
      "v": 50
    },
    {
      "midi": 42,
      "hit": false,
      "t": 171999.82800000234,
      "d": 27.777750000008382,
      "v": 85
    },
    {
      "midi": 42,
      "hit": false,
      "t": 172166.49450000236,
      "d": 27.777750000008382,
      "v": 50
    },
    {
      "midi": 42,
      "hit": false,
      "t": 172333.16100000238,
      "d": 27.777750000008382,
      "v": 70
    },
    {
      "midi": 54,
      "hit": false,
      "t": 172333.16100000238,
      "d": 27.777750000008382,
      "v": 80
    },
    {
      "midi": 42,
      "hit": false,
      "t": 172499.8275000024,
      "d": 27.777750000008382,
      "v": 50
    },
    {
      "midi": 42,
      "hit": false,
      "t": 172666.49400000242,
      "d": 27.777750000008382,
      "v": 85
    },
    {
      "midi": 59,
      "hit": false,
      "t": 172666.49400000242,
      "d": 27.777750000008382,
      "v": 76
    },
    {
      "midi": 42,
      "hit": false,
      "t": 172833.16050000244,
      "d": 27.777750000008382,
      "v": 50
    },
    {
      "midi": 42,
      "hit": false,
      "t": 172999.82700000246,
      "d": 27.777750000008382,
      "v": 70
    },
    {
      "midi": 54,
      "hit": false,
      "t": 172999.82700000246,
      "d": 27.777750000008382,
      "v": 80
    },
    {
      "midi": 55,
      "hit": false,
      "t": 172999.82700000246,
      "d": 27.777750000008382,
      "v": 83
    },
    {
      "midi": 42,
      "hit": false,
      "t": 173166.49350000249,
      "d": 27.777750000008382,
      "v": 50
    },
    {
      "midi": 46,
      "hit": false,
      "t": 173333.1600000025,
      "d": 27.777750000008382,
      "v": 70
    },
    {
      "midi": 57,
      "hit": false,
      "t": 173333.1600000025,
      "d": 27.777750000008382,
      "v": 90
    },
    {
      "midi": 46,
      "hit": false,
      "t": 173666.49300000252,
      "d": 27.777750000008382,
      "v": 55
    },
    {
      "midi": 54,
      "hit": false,
      "t": 173666.49300000252,
      "d": 27.777750000008382,
      "v": 80
    },
    {
      "midi": 46,
      "hit": false,
      "t": 173999.82600000253,
      "d": 27.777750000008382,
      "v": 70
    },
    {
      "midi": 49,
      "hit": false,
      "t": 173999.82600000253,
      "d": 27.777750000008382,
      "v": 74
    },
    {
      "midi": 46,
      "hit": false,
      "t": 174333.15900000255,
      "d": 27.777750000008382,
      "v": 55
    },
    {
      "midi": 54,
      "hit": false,
      "t": 174333.15900000255,
      "d": 27.777750000008382,
      "v": 80
    },
    {
      "midi": 46,
      "hit": false,
      "t": 174666.49200000256,
      "d": 27.777750000008382,
      "v": 70
    },
    {
      "midi": 46,
      "hit": false,
      "t": 174999.82500000257,
      "d": 27.777750000008382,
      "v": 55
    },
    {
      "midi": 54,
      "hit": false,
      "t": 174999.82500000257,
      "d": 27.777750000008382,
      "v": 80
    },
    {
      "midi": 46,
      "hit": false,
      "t": 175333.1580000026,
      "d": 27.777750000008382,
      "v": 70
    },
    {
      "midi": 46,
      "hit": false,
      "t": 175666.4910000026,
      "d": 27.777750000008382,
      "v": 55
    },
    {
      "midi": 54,
      "hit": false,
      "t": 175666.4910000026,
      "d": 27.777750000008382,
      "v": 80
    },
    {
      "midi": 46,
      "hit": false,
      "t": 175999.8240000026,
      "d": 27.777750000008382,
      "v": 70
    },
    {
      "midi": 46,
      "hit": false,
      "t": 176333.15700000263,
      "d": 27.777750000008382,
      "v": 55
    },
    {
      "midi": 54,
      "hit": false,
      "t": 176333.15700000263,
      "d": 27.777750000008382,
      "v": 80
    },
    {
      "midi": 46,
      "hit": false,
      "t": 176666.49000000264,
      "d": 27.777750000008382,
      "v": 70
    },
    {
      "midi": 46,
      "hit": false,
      "t": 176999.82300000265,
      "d": 27.777750000008382,
      "v": 55
    },
    {
      "midi": 54,
      "hit": false,
      "t": 176999.82300000265,
      "d": 27.777750000008382,
      "v": 80
    },
    {
      "midi": 46,
      "hit": false,
      "t": 177333.15600000267,
      "d": 27.777750000008382,
      "v": 70
    },
    {
      "midi": 46,
      "hit": false,
      "t": 177666.48900000268,
      "d": 27.777750000008382,
      "v": 55
    },
    {
      "midi": 54,
      "hit": false,
      "t": 177666.48900000268,
      "d": 27.777750000008382,
      "v": 80
    },
    {
      "midi": 46,
      "hit": false,
      "t": 177999.8220000027,
      "d": 27.777750000008382,
      "v": 70
    },
    {
      "midi": 46,
      "hit": false,
      "t": 178333.1550000027,
      "d": 27.777750000008382,
      "v": 55
    },
    {
      "midi": 54,
      "hit": false,
      "t": 178333.1550000027,
      "d": 27.777750000008382,
      "v": 80
    },
    {
      "midi": 46,
      "hit": false,
      "t": 178666.48800000272,
      "d": 27.777750000008382,
      "v": 70
    },
    {
      "midi": 46,
      "hit": false,
      "t": 178999.82100000273,
      "d": 27.777750000008382,
      "v": 55
    },
    {
      "midi": 54,
      "hit": false,
      "t": 178999.82100000273,
      "d": 27.777750000008382,
      "v": 80
    },
    {
      "midi": 46,
      "hit": false,
      "t": 179333.15400000275,
      "d": 27.777750000008382,
      "v": 70
    },
    {
      "midi": 49,
      "hit": false,
      "t": 179333.15400000275,
      "d": 27.777750000008382,
      "v": 85
    },
    {
      "midi": 46,
      "hit": false,
      "t": 179666.48700000276,
      "d": 27.777750000008382,
      "v": 55
    },
    {
      "midi": 54,
      "hit": false,
      "t": 179666.48700000276,
      "d": 27.777750000008382,
      "v": 80
    },
    {
      "midi": 46,
      "hit": false,
      "t": 179999.82000000277,
      "d": 27.777750000008382,
      "v": 70
    },
    {
      "midi": 46,
      "hit": false,
      "t": 180333.15300000279,
      "d": 27.777750000008382,
      "v": 55
    },
    {
      "midi": 54,
      "hit": false,
      "t": 180333.15300000279,
      "d": 27.777750000008382,
      "v": 80
    },
    {
      "midi": 46,
      "hit": false,
      "t": 180666.4860000028,
      "d": 27.777750000008382,
      "v": 70
    },
    {
      "midi": 46,
      "hit": false,
      "t": 180999.8190000028,
      "d": 27.777750000008382,
      "v": 55
    },
    {
      "midi": 54,
      "hit": false,
      "t": 180999.8190000028,
      "d": 27.777750000008382,
      "v": 80
    },
    {
      "midi": 46,
      "hit": false,
      "t": 181333.15200000282,
      "d": 27.777750000008382,
      "v": 70
    },
    {
      "midi": 46,
      "hit": false,
      "t": 181666.48500000284,
      "d": 27.777750000008382,
      "v": 55
    },
    {
      "midi": 54,
      "hit": false,
      "t": 181666.48500000284,
      "d": 27.777750000008382,
      "v": 80
    },
    {
      "midi": 46,
      "hit": false,
      "t": 181999.81800000285,
      "d": 27.777750000008382,
      "v": 70
    },
    {
      "midi": 46,
      "hit": false,
      "t": 182333.15100000286,
      "d": 27.777750000008382,
      "v": 55
    },
    {
      "midi": 54,
      "hit": false,
      "t": 182333.15100000286,
      "d": 27.777750000008382,
      "v": 80
    },
    {
      "midi": 46,
      "hit": false,
      "t": 182666.48400000288,
      "d": 27.777750000008382,
      "v": 70
    },
    {
      "midi": 46,
      "hit": false,
      "t": 182999.8170000029,
      "d": 27.777750000008382,
      "v": 55
    },
    {
      "midi": 54,
      "hit": false,
      "t": 182999.8170000029,
      "d": 27.777750000008382,
      "v": 80
    },
    {
      "midi": 46,
      "hit": false,
      "t": 183333.1500000029,
      "d": 27.777750000008382,
      "v": 70
    },
    {
      "midi": 46,
      "hit": false,
      "t": 183666.48300000292,
      "d": 27.777750000008382,
      "v": 55
    },
    {
      "midi": 54,
      "hit": false,
      "t": 183666.48300000292,
      "d": 27.777750000008382,
      "v": 80
    },
    {
      "midi": 46,
      "hit": false,
      "t": 183999.81600000293,
      "d": 27.777750000008382,
      "v": 70
    },
    {
      "midi": 46,
      "hit": false,
      "t": 184333.14900000294,
      "d": 27.777750000008382,
      "v": 55
    },
    {
      "midi": 54,
      "hit": false,
      "t": 184333.14900000294,
      "d": 27.777750000008382,
      "v": 80
    },
    {
      "midi": 46,
      "hit": false,
      "t": 184666.48200000296,
      "d": 27.777750000008382,
      "v": 70
    },
    {
      "midi": 46,
      "hit": false,
      "t": 184999.81500000297,
      "d": 27.777750000008382,
      "v": 55
    },
    {
      "midi": 54,
      "hit": false,
      "t": 184999.81500000297,
      "d": 27.777750000008382,
      "v": 80
    },
    {
      "midi": 46,
      "hit": false,
      "t": 185333.14800000298,
      "d": 27.777750000008382,
      "v": 70
    },
    {
      "midi": 46,
      "hit": false,
      "t": 185666.481000003,
      "d": 27.777750000008382,
      "v": 55
    },
    {
      "midi": 54,
      "hit": false,
      "t": 185666.481000003,
      "d": 27.777750000008382,
      "v": 80
    },
    {
      "midi": 46,
      "hit": false,
      "t": 185999.814000003,
      "d": 27.777750000008382,
      "v": 70
    },
    {
      "midi": 46,
      "hit": false,
      "t": 186333.14700000302,
      "d": 27.777750000008382,
      "v": 55
    },
    {
      "midi": 54,
      "hit": false,
      "t": 186333.14700000302,
      "d": 27.777750000008382,
      "v": 80
    },
    {
      "midi": 46,
      "hit": false,
      "t": 186666.48000000304,
      "d": 27.777750000008382,
      "v": 70
    },
    {
      "midi": 46,
      "hit": false,
      "t": 186999.81300000305,
      "d": 27.777750000008382,
      "v": 55
    },
    {
      "midi": 54,
      "hit": false,
      "t": 186999.81300000305,
      "d": 27.777750000008382,
      "v": 80
    },
    {
      "midi": 46,
      "hit": false,
      "t": 187333.14600000306,
      "d": 27.777750000008382,
      "v": 70
    },
    {
      "midi": 46,
      "hit": false,
      "t": 187666.47900000308,
      "d": 27.777750000008382,
      "v": 55
    },
    {
      "midi": 54,
      "hit": false,
      "t": 187666.47900000308,
      "d": 27.777750000008382,
      "v": 80
    },
    {
      "midi": 46,
      "hit": false,
      "t": 187999.8120000031,
      "d": 27.777750000008382,
      "v": 70
    },
    {
      "midi": 46,
      "hit": false,
      "t": 188333.1450000031,
      "d": 27.777750000008382,
      "v": 55
    },
    {
      "midi": 54,
      "hit": false,
      "t": 188333.1450000031,
      "d": 27.777750000008382,
      "v": 80
    },
    {
      "midi": 46,
      "hit": false,
      "t": 188666.47800000312,
      "d": 27.777750000008382,
      "v": 70
    },
    {
      "midi": 46,
      "hit": false,
      "t": 188999.81100000313,
      "d": 27.777750000008382,
      "v": 55
    },
    {
      "midi": 54,
      "hit": false,
      "t": 188999.81100000313,
      "d": 27.777750000008382,
      "v": 80
    },
    {
      "midi": 46,
      "hit": false,
      "t": 189333.14400000314,
      "d": 27.777750000008382,
      "v": 70
    },
    {
      "midi": 46,
      "hit": false,
      "t": 189666.47700000316,
      "d": 27.777750000008382,
      "v": 55
    },
    {
      "midi": 54,
      "hit": false,
      "t": 189666.47700000316,
      "d": 27.777750000008382,
      "v": 80
    },
    {
      "midi": 46,
      "hit": false,
      "t": 189999.81000000317,
      "d": 27.777750000008382,
      "v": 70
    },
    {
      "midi": 46,
      "hit": false,
      "t": 190333.14300000318,
      "d": 27.777750000008382,
      "v": 55
    },
    {
      "midi": 54,
      "hit": false,
      "t": 190333.14300000318,
      "d": 27.777750000008382,
      "v": 80
    },
    {
      "midi": 46,
      "hit": false,
      "t": 190666.4760000032,
      "d": 27.777750000008382,
      "v": 70
    },
    {
      "midi": 46,
      "hit": false,
      "t": 190999.8090000032,
      "d": 27.777750000008382,
      "v": 55
    },
    {
      "midi": 54,
      "hit": false,
      "t": 190999.8090000032,
      "d": 27.777750000008382,
      "v": 80
    },
    {
      "midi": 46,
      "hit": false,
      "t": 191333.14200000322,
      "d": 27.777750000008382,
      "v": 70
    },
    {
      "midi": 46,
      "hit": false,
      "t": 191666.47500000324,
      "d": 27.777750000008382,
      "v": 55
    },
    {
      "midi": 54,
      "hit": false,
      "t": 191666.47500000324,
      "d": 27.777750000008382,
      "v": 80
    },
    {
      "midi": 46,
      "hit": false,
      "t": 191999.80800000325,
      "d": 27.777750000008382,
      "v": 70
    },
    {
      "midi": 46,
      "hit": false,
      "t": 192333.14100000326,
      "d": 27.777750000008382,
      "v": 55
    },
    {
      "midi": 54,
      "hit": false,
      "t": 192333.14100000326,
      "d": 27.777750000008382,
      "v": 80
    },
    {
      "midi": 46,
      "hit": false,
      "t": 192666.47400000328,
      "d": 27.777750000008382,
      "v": 70
    },
    {
      "midi": 46,
      "hit": false,
      "t": 192999.8070000033,
      "d": 27.777750000008382,
      "v": 55
    },
    {
      "midi": 54,
      "hit": false,
      "t": 192999.8070000033,
      "d": 27.777750000008382,
      "v": 80
    },
    {
      "midi": 46,
      "hit": false,
      "t": 193333.1400000033,
      "d": 27.777750000008382,
      "v": 70
    },
    {
      "midi": 46,
      "hit": false,
      "t": 193666.47300000332,
      "d": 27.777750000008382,
      "v": 55
    },
    {
      "midi": 54,
      "hit": false,
      "t": 193666.47300000332,
      "d": 27.777750000008382,
      "v": 80
    },
    {
      "midi": 46,
      "hit": false,
      "t": 193999.80600000333,
      "d": 27.777750000008382,
      "v": 70
    },
    {
      "midi": 46,
      "hit": false,
      "t": 194333.13900000334,
      "d": 27.777750000008382,
      "v": 55
    },
    {
      "midi": 54,
      "hit": false,
      "t": 194333.13900000334,
      "d": 27.777750000008382,
      "v": 80
    },
    {
      "midi": 42,
      "hit": false,
      "t": 194666.47200000336,
      "d": 27.777750000008382,
      "v": 85
    },
    {
      "midi": 57,
      "hit": false,
      "t": 194666.47200000336,
      "d": 27.777750000008382,
      "v": 90
    },
    {
      "midi": 42,
      "hit": false,
      "t": 194833.13850000338,
      "d": 27.777750000008382,
      "v": 50
    },
    {
      "midi": 42,
      "hit": false,
      "t": 194999.8050000034,
      "d": 27.777750000008382,
      "v": 70
    },
    {
      "midi": 54,
      "hit": false,
      "t": 194999.8050000034,
      "d": 27.777750000008382,
      "v": 80
    },
    {
      "midi": 42,
      "hit": false,
      "t": 195166.47150000342,
      "d": 27.777750000008382,
      "v": 50
    },
    {
      "midi": 42,
      "hit": false,
      "t": 195333.13800000344,
      "d": 27.777750000008382,
      "v": 85
    },
    {
      "midi": 49,
      "hit": false,
      "t": 195333.13800000344,
      "d": 27.777750000008382,
      "v": 85
    },
    {
      "midi": 42,
      "hit": false,
      "t": 195499.80450000346,
      "d": 27.777750000008382,
      "v": 50
    },
    {
      "midi": 42,
      "hit": false,
      "t": 195666.47100000348,
      "d": 27.777750000008382,
      "v": 70
    },
    {
      "midi": 54,
      "hit": false,
      "t": 195666.47100000348,
      "d": 27.777750000008382,
      "v": 80
    },
    {
      "midi": 42,
      "hit": false,
      "t": 195833.1375000035,
      "d": 27.777750000008382,
      "v": 50
    },
    {
      "midi": 42,
      "hit": false,
      "t": 195999.80400000353,
      "d": 27.777750000008382,
      "v": 85
    },
    {
      "midi": 42,
      "hit": false,
      "t": 196166.47050000355,
      "d": 27.777750000008382,
      "v": 50
    },
    {
      "midi": 42,
      "hit": false,
      "t": 196333.13700000357,
      "d": 27.777750000008382,
      "v": 70
    },
    {
      "midi": 54,
      "hit": false,
      "t": 196333.13700000357,
      "d": 27.777750000008382,
      "v": 80
    },
    {
      "midi": 42,
      "hit": false,
      "t": 196499.8035000036,
      "d": 27.777750000008382,
      "v": 50
    },
    {
      "midi": 42,
      "hit": false,
      "t": 196666.4700000036,
      "d": 27.777750000008382,
      "v": 85
    },
    {
      "midi": 59,
      "hit": false,
      "t": 196666.4700000036,
      "d": 27.777750000008382,
      "v": 80
    },
    {
      "midi": 42,
      "hit": false,
      "t": 196833.13650000363,
      "d": 27.777750000008382,
      "v": 50
    },
    {
      "midi": 42,
      "hit": false,
      "t": 196999.80300000365,
      "d": 27.777750000008382,
      "v": 70
    },
    {
      "midi": 54,
      "hit": false,
      "t": 196999.80300000365,
      "d": 27.777750000008382,
      "v": 80
    },
    {
      "midi": 42,
      "hit": false,
      "t": 197166.46950000367,
      "d": 27.777750000008382,
      "v": 50
    },
    {
      "midi": 42,
      "hit": false,
      "t": 197333.1360000037,
      "d": 27.777750000008382,
      "v": 85
    },
    {
      "midi": 42,
      "hit": false,
      "t": 197499.80250000372,
      "d": 27.777750000008382,
      "v": 50
    },
    {
      "midi": 42,
      "hit": false,
      "t": 197666.46900000374,
      "d": 27.777750000008382,
      "v": 70
    },
    {
      "midi": 54,
      "hit": false,
      "t": 197666.46900000374,
      "d": 27.777750000008382,
      "v": 80
    },
    {
      "midi": 42,
      "hit": false,
      "t": 197833.13550000376,
      "d": 27.777750000008382,
      "v": 50
    },
    {
      "midi": 42,
      "hit": false,
      "t": 197999.80200000378,
      "d": 27.777750000008382,
      "v": 85
    },
    {
      "midi": 59,
      "hit": false,
      "t": 197999.80200000378,
      "d": 27.777750000008382,
      "v": 80
    },
    {
      "midi": 42,
      "hit": false,
      "t": 198166.4685000038,
      "d": 27.777750000008382,
      "v": 50
    },
    {
      "midi": 42,
      "hit": false,
      "t": 198333.13500000382,
      "d": 27.777750000008382,
      "v": 70
    },
    {
      "midi": 54,
      "hit": false,
      "t": 198333.13500000382,
      "d": 27.777750000008382,
      "v": 80
    },
    {
      "midi": 42,
      "hit": false,
      "t": 198499.80150000384,
      "d": 27.777750000008382,
      "v": 50
    },
    {
      "midi": 42,
      "hit": false,
      "t": 198666.46800000386,
      "d": 27.777750000008382,
      "v": 85
    },
    {
      "midi": 42,
      "hit": false,
      "t": 198833.1345000039,
      "d": 27.777750000008382,
      "v": 50
    },
    {
      "midi": 42,
      "hit": false,
      "t": 198999.8010000039,
      "d": 27.777750000008382,
      "v": 70
    },
    {
      "midi": 54,
      "hit": false,
      "t": 198999.8010000039,
      "d": 27.777750000008382,
      "v": 80
    },
    {
      "midi": 42,
      "hit": false,
      "t": 199166.46750000393,
      "d": 27.777750000008382,
      "v": 50
    },
    {
      "midi": 42,
      "hit": false,
      "t": 199333.13400000395,
      "d": 27.777750000008382,
      "v": 85
    },
    {
      "midi": 59,
      "hit": false,
      "t": 199333.13400000395,
      "d": 27.777750000008382,
      "v": 78
    },
    {
      "midi": 42,
      "hit": false,
      "t": 199499.80050000397,
      "d": 27.777750000008382,
      "v": 50
    },
    {
      "midi": 42,
      "hit": false,
      "t": 199666.467000004,
      "d": 27.777750000008382,
      "v": 70
    },
    {
      "midi": 54,
      "hit": false,
      "t": 199666.467000004,
      "d": 27.777750000008382,
      "v": 80
    },
    {
      "midi": 42,
      "hit": false,
      "t": 199833.133500004,
      "d": 27.777750000008382,
      "v": 50
    },
    {
      "midi": 42,
      "hit": false,
      "t": 199999.80000000403,
      "d": 27.777750000008382,
      "v": 85
    },
    {
      "midi": 42,
      "hit": false,
      "t": 200166.46650000405,
      "d": 27.777750000008382,
      "v": 50
    },
    {
      "midi": 42,
      "hit": false,
      "t": 200333.13300000408,
      "d": 27.777750000008382,
      "v": 70
    },
    {
      "midi": 54,
      "hit": false,
      "t": 200333.13300000408,
      "d": 27.777750000008382,
      "v": 80
    },
    {
      "midi": 42,
      "hit": false,
      "t": 200499.7995000041,
      "d": 27.777750000008382,
      "v": 50
    },
    {
      "midi": 42,
      "hit": false,
      "t": 200666.46600000412,
      "d": 27.777750000008382,
      "v": 85
    },
    {
      "midi": 49,
      "hit": false,
      "t": 200666.46600000412,
      "d": 27.777750000008382,
      "v": 90
    },
    {
      "midi": 42,
      "hit": false,
      "t": 200833.13250000414,
      "d": 27.777750000008382,
      "v": 50
    },
    {
      "midi": 42,
      "hit": false,
      "t": 200999.79900000416,
      "d": 27.777750000008382,
      "v": 70
    },
    {
      "midi": 54,
      "hit": false,
      "t": 200999.79900000416,
      "d": 27.777750000008382,
      "v": 80
    },
    {
      "midi": 42,
      "hit": false,
      "t": 201166.46550000418,
      "d": 27.777750000008382,
      "v": 50
    },
    {
      "midi": 42,
      "hit": false,
      "t": 201333.1320000042,
      "d": 27.777750000008382,
      "v": 85
    },
    {
      "midi": 42,
      "hit": false,
      "t": 201499.79850000422,
      "d": 27.777750000008382,
      "v": 50
    },
    {
      "midi": 42,
      "hit": false,
      "t": 201666.46500000425,
      "d": 27.777750000008382,
      "v": 70
    },
    {
      "midi": 54,
      "hit": false,
      "t": 201666.46500000425,
      "d": 27.777750000008382,
      "v": 80
    },
    {
      "midi": 42,
      "hit": false,
      "t": 201833.13150000427,
      "d": 27.777750000008382,
      "v": 50
    },
    {
      "midi": 42,
      "hit": false,
      "t": 201999.7980000043,
      "d": 27.777750000008382,
      "v": 85
    },
    {
      "midi": 59,
      "hit": false,
      "t": 201999.7980000043,
      "d": 27.777750000008382,
      "v": 83
    },
    {
      "midi": 42,
      "hit": false,
      "t": 202166.4645000043,
      "d": 27.777750000008382,
      "v": 50
    },
    {
      "midi": 42,
      "hit": false,
      "t": 202333.13100000433,
      "d": 27.777750000008382,
      "v": 70
    },
    {
      "midi": 54,
      "hit": false,
      "t": 202333.13100000433,
      "d": 27.777750000008382,
      "v": 80
    },
    {
      "midi": 42,
      "hit": false,
      "t": 202499.79750000435,
      "d": 27.777750000008382,
      "v": 50
    },
    {
      "midi": 42,
      "hit": false,
      "t": 202666.46400000437,
      "d": 27.777750000008382,
      "v": 85
    },
    {
      "midi": 42,
      "hit": false,
      "t": 202833.1305000044,
      "d": 27.777750000008382,
      "v": 50
    },
    {
      "midi": 42,
      "hit": false,
      "t": 202999.79700000442,
      "d": 27.777750000008382,
      "v": 70
    },
    {
      "midi": 54,
      "hit": false,
      "t": 202999.79700000442,
      "d": 27.777750000008382,
      "v": 80
    },
    {
      "midi": 42,
      "hit": false,
      "t": 203166.46350000444,
      "d": 27.777750000008382,
      "v": 50
    },
    {
      "midi": 42,
      "hit": false,
      "t": 203333.13000000446,
      "d": 27.777750000008382,
      "v": 85
    },
    {
      "midi": 59,
      "hit": false,
      "t": 203333.13000000446,
      "d": 27.777750000008382,
      "v": 78
    },
    {
      "midi": 42,
      "hit": false,
      "t": 203499.79650000448,
      "d": 27.777750000008382,
      "v": 50
    },
    {
      "midi": 42,
      "hit": false,
      "t": 203666.4630000045,
      "d": 27.777750000008382,
      "v": 70
    },
    {
      "midi": 54,
      "hit": false,
      "t": 203666.4630000045,
      "d": 27.777750000008382,
      "v": 80
    },
    {
      "midi": 42,
      "hit": false,
      "t": 203833.12950000452,
      "d": 27.777750000008382,
      "v": 50
    },
    {
      "midi": 42,
      "hit": false,
      "t": 203999.79600000454,
      "d": 27.777750000008382,
      "v": 85
    },
    {
      "midi": 42,
      "hit": false,
      "t": 204166.46250000456,
      "d": 27.777750000008382,
      "v": 50
    },
    {
      "midi": 42,
      "hit": false,
      "t": 204333.12900000458,
      "d": 27.777750000008382,
      "v": 70
    },
    {
      "midi": 54,
      "hit": false,
      "t": 204333.12900000458,
      "d": 27.777750000008382,
      "v": 80
    },
    {
      "midi": 42,
      "hit": false,
      "t": 204499.7955000046,
      "d": 27.777750000008382,
      "v": 50
    },
    {
      "midi": 42,
      "hit": false,
      "t": 204666.46200000463,
      "d": 27.777750000008382,
      "v": 85
    },
    {
      "midi": 59,
      "hit": false,
      "t": 204666.46200000463,
      "d": 27.777750000008382,
      "v": 89
    },
    {
      "midi": 42,
      "hit": false,
      "t": 204833.12850000465,
      "d": 27.777750000008382,
      "v": 50
    },
    {
      "midi": 42,
      "hit": false,
      "t": 204999.79500000467,
      "d": 27.777750000008382,
      "v": 70
    },
    {
      "midi": 54,
      "hit": false,
      "t": 204999.79500000467,
      "d": 27.777750000008382,
      "v": 80
    },
    {
      "midi": 42,
      "hit": false,
      "t": 205166.4615000047,
      "d": 27.777750000008382,
      "v": 50
    },
    {
      "midi": 42,
      "hit": false,
      "t": 205333.1280000047,
      "d": 27.777750000008382,
      "v": 85
    },
    {
      "midi": 42,
      "hit": false,
      "t": 205499.79450000473,
      "d": 27.777750000008382,
      "v": 50
    },
    {
      "midi": 42,
      "hit": false,
      "t": 205666.46100000475,
      "d": 27.777750000008382,
      "v": 70
    },
    {
      "midi": 54,
      "hit": false,
      "t": 205666.46100000475,
      "d": 27.777750000008382,
      "v": 80
    },
    {
      "midi": 42,
      "hit": false,
      "t": 205833.12750000478,
      "d": 27.777750000008382,
      "v": 50
    },
    {
      "midi": 42,
      "hit": false,
      "t": 205999.7940000048,
      "d": 27.777750000008382,
      "v": 85
    },
    {
      "midi": 59,
      "hit": false,
      "t": 205999.7940000048,
      "d": 27.777750000008382,
      "v": 80
    },
    {
      "midi": 42,
      "hit": false,
      "t": 206166.46050000482,
      "d": 27.777750000008382,
      "v": 50
    },
    {
      "midi": 42,
      "hit": false,
      "t": 206333.12700000484,
      "d": 27.777750000008382,
      "v": 70
    },
    {
      "midi": 54,
      "hit": false,
      "t": 206333.12700000484,
      "d": 27.777750000008382,
      "v": 80
    },
    {
      "midi": 42,
      "hit": false,
      "t": 206499.79350000486,
      "d": 27.777750000008382,
      "v": 50
    },
    {
      "midi": 42,
      "hit": false,
      "t": 206666.46000000488,
      "d": 27.777750000008382,
      "v": 85
    },
    {
      "midi": 42,
      "hit": false,
      "t": 206833.1265000049,
      "d": 27.777750000008382,
      "v": 50
    },
    {
      "midi": 42,
      "hit": false,
      "t": 206999.79300000492,
      "d": 27.777750000008382,
      "v": 70
    },
    {
      "midi": 54,
      "hit": false,
      "t": 206999.79300000492,
      "d": 27.777750000008382,
      "v": 80
    },
    {
      "midi": 42,
      "hit": false,
      "t": 207166.45950000494,
      "d": 27.777750000008382,
      "v": 50
    },
    {
      "midi": 42,
      "hit": false,
      "t": 207333.12600000497,
      "d": 27.777750000008382,
      "v": 85
    },
    {
      "midi": 59,
      "hit": false,
      "t": 207333.12600000497,
      "d": 27.777750000008382,
      "v": 80
    },
    {
      "midi": 42,
      "hit": false,
      "t": 207499.792500005,
      "d": 27.777750000008382,
      "v": 50
    },
    {
      "midi": 42,
      "hit": false,
      "t": 207666.459000005,
      "d": 27.777750000008382,
      "v": 70
    },
    {
      "midi": 54,
      "hit": false,
      "t": 207666.459000005,
      "d": 27.777750000008382,
      "v": 80
    },
    {
      "midi": 42,
      "hit": false,
      "t": 207833.12550000503,
      "d": 27.777750000008382,
      "v": 50
    },
    {
      "midi": 42,
      "hit": false,
      "t": 207999.79200000505,
      "d": 27.777750000008382,
      "v": 85
    },
    {
      "midi": 42,
      "hit": false,
      "t": 208166.45850000507,
      "d": 27.777750000008382,
      "v": 50
    },
    {
      "midi": 42,
      "hit": false,
      "t": 208333.1250000051,
      "d": 27.777750000008382,
      "v": 70
    },
    {
      "midi": 54,
      "hit": false,
      "t": 208333.1250000051,
      "d": 27.777750000008382,
      "v": 80
    },
    {
      "midi": 42,
      "hit": false,
      "t": 208499.7915000051,
      "d": 27.777750000008382,
      "v": 50
    },
    {
      "midi": 42,
      "hit": false,
      "t": 208666.45800000514,
      "d": 27.777750000008382,
      "v": 85
    },
    {
      "midi": 59,
      "hit": false,
      "t": 208666.45800000514,
      "d": 27.777750000008382,
      "v": 80
    },
    {
      "midi": 42,
      "hit": false,
      "t": 208833.12450000516,
      "d": 27.777750000008382,
      "v": 50
    },
    {
      "midi": 42,
      "hit": false,
      "t": 208999.79100000518,
      "d": 27.777750000008382,
      "v": 70
    },
    {
      "midi": 54,
      "hit": false,
      "t": 208999.79100000518,
      "d": 27.777750000008382,
      "v": 80
    },
    {
      "midi": 42,
      "hit": false,
      "t": 209166.4575000052,
      "d": 27.777750000008382,
      "v": 50
    },
    {
      "midi": 42,
      "hit": false,
      "t": 209333.12400000522,
      "d": 27.777750000008382,
      "v": 85
    },
    {
      "midi": 42,
      "hit": false,
      "t": 209499.79050000524,
      "d": 27.777750000008382,
      "v": 50
    },
    {
      "midi": 42,
      "hit": false,
      "t": 209666.45700000526,
      "d": 27.777750000008382,
      "v": 70
    },
    {
      "midi": 54,
      "hit": false,
      "t": 209666.45700000526,
      "d": 27.777750000008382,
      "v": 80
    },
    {
      "midi": 42,
      "hit": false,
      "t": 209833.12350000528,
      "d": 27.777750000008382,
      "v": 50
    },
    {
      "midi": 42,
      "hit": false,
      "t": 209999.7900000053,
      "d": 27.777750000008382,
      "v": 85
    },
    {
      "midi": 59,
      "hit": false,
      "t": 209999.7900000053,
      "d": 27.777750000008382,
      "v": 78
    },
    {
      "midi": 42,
      "hit": false,
      "t": 210166.45650000533,
      "d": 27.777750000008382,
      "v": 50
    },
    {
      "midi": 42,
      "hit": false,
      "t": 210333.12300000535,
      "d": 27.777750000008382,
      "v": 70
    },
    {
      "midi": 54,
      "hit": false,
      "t": 210333.12300000535,
      "d": 27.777750000008382,
      "v": 80
    },
    {
      "midi": 42,
      "hit": false,
      "t": 210499.78950000537,
      "d": 27.777750000008382,
      "v": 50
    },
    {
      "midi": 42,
      "hit": false,
      "t": 210666.4560000054,
      "d": 27.777750000008382,
      "v": 85
    },
    {
      "midi": 42,
      "hit": false,
      "t": 210833.1225000054,
      "d": 27.777750000008382,
      "v": 50
    },
    {
      "midi": 42,
      "hit": false,
      "t": 210999.78900000543,
      "d": 27.777750000008382,
      "v": 70
    },
    {
      "midi": 54,
      "hit": false,
      "t": 210999.78900000543,
      "d": 27.777750000008382,
      "v": 80
    },
    {
      "midi": 42,
      "hit": false,
      "t": 211166.45550000545,
      "d": 27.777750000008382,
      "v": 50
    },
    {
      "midi": 42,
      "hit": false,
      "t": 211333.12200000547,
      "d": 27.777750000008382,
      "v": 85
    },
    {
      "midi": 59,
      "hit": false,
      "t": 211333.12200000547,
      "d": 27.777750000008382,
      "v": 83
    },
    {
      "midi": 42,
      "hit": false,
      "t": 211499.7885000055,
      "d": 27.777750000008382,
      "v": 50
    },
    {
      "midi": 42,
      "hit": false,
      "t": 211666.45500000552,
      "d": 27.777750000008382,
      "v": 70
    },
    {
      "midi": 54,
      "hit": false,
      "t": 211666.45500000552,
      "d": 27.777750000008382,
      "v": 80
    },
    {
      "midi": 42,
      "hit": false,
      "t": 211833.12150000554,
      "d": 27.777750000008382,
      "v": 50
    },
    {
      "midi": 42,
      "hit": false,
      "t": 211999.78800000556,
      "d": 27.777750000008382,
      "v": 85
    },
    {
      "midi": 42,
      "hit": false,
      "t": 212166.45450000558,
      "d": 27.777750000008382,
      "v": 50
    },
    {
      "midi": 42,
      "hit": false,
      "t": 212333.1210000056,
      "d": 27.777750000008382,
      "v": 70
    },
    {
      "midi": 54,
      "hit": false,
      "t": 212333.1210000056,
      "d": 27.777750000008382,
      "v": 80
    },
    {
      "midi": 42,
      "hit": false,
      "t": 212499.78750000562,
      "d": 27.777750000008382,
      "v": 50
    },
    {
      "midi": 42,
      "hit": false,
      "t": 212666.45400000564,
      "d": 27.777750000008382,
      "v": 85
    },
    {
      "midi": 59,
      "hit": false,
      "t": 212666.45400000564,
      "d": 27.777750000008382,
      "v": 83
    },
    {
      "midi": 42,
      "hit": false,
      "t": 212833.12050000567,
      "d": 27.777750000008382,
      "v": 50
    },
    {
      "midi": 42,
      "hit": false,
      "t": 212999.7870000057,
      "d": 27.777750000008382,
      "v": 70
    },
    {
      "midi": 54,
      "hit": false,
      "t": 212999.7870000057,
      "d": 27.777750000008382,
      "v": 80
    },
    {
      "midi": 42,
      "hit": false,
      "t": 213166.4535000057,
      "d": 27.777750000008382,
      "v": 50
    },
    {
      "midi": 42,
      "hit": false,
      "t": 213333.12000000573,
      "d": 27.777750000008382,
      "v": 85
    },
    {
      "midi": 42,
      "hit": false,
      "t": 213499.78650000575,
      "d": 27.777750000008382,
      "v": 50
    },
    {
      "midi": 42,
      "hit": false,
      "t": 213666.45300000577,
      "d": 27.777750000008382,
      "v": 70
    },
    {
      "midi": 54,
      "hit": false,
      "t": 213666.45300000577,
      "d": 27.777750000008382,
      "v": 80
    },
    {
      "midi": 42,
      "hit": false,
      "t": 213833.1195000058,
      "d": 27.777750000008382,
      "v": 50
    },
    {
      "midi": 42,
      "hit": false,
      "t": 213999.7860000058,
      "d": 27.777750000008382,
      "v": 85
    },
    {
      "midi": 59,
      "hit": false,
      "t": 213999.7860000058,
      "d": 27.777750000008382,
      "v": 78
    },
    {
      "midi": 42,
      "hit": false,
      "t": 214166.45250000583,
      "d": 27.777750000008382,
      "v": 50
    },
    {
      "midi": 42,
      "hit": false,
      "t": 214333.11900000586,
      "d": 27.777750000008382,
      "v": 70
    },
    {
      "midi": 54,
      "hit": false,
      "t": 214333.11900000586,
      "d": 27.777750000008382,
      "v": 80
    },
    {
      "midi": 42,
      "hit": false,
      "t": 214499.78550000588,
      "d": 27.777750000008382,
      "v": 50
    },
    {
      "midi": 42,
      "hit": false,
      "t": 214666.4520000059,
      "d": 27.777750000008382,
      "v": 85
    },
    {
      "midi": 42,
      "hit": false,
      "t": 214833.11850000592,
      "d": 27.777750000008382,
      "v": 50
    },
    {
      "midi": 48,
      "hit": false,
      "t": 214833.11850000592,
      "d": 27.777750000008382,
      "v": 87
    },
    {
      "midi": 42,
      "hit": false,
      "t": 214999.78500000594,
      "d": 27.777750000008382,
      "v": 70
    },
    {
      "midi": 48,
      "hit": false,
      "t": 214999.78500000594,
      "d": 27.777750000008382,
      "v": 95
    },
    {
      "midi": 54,
      "hit": false,
      "t": 214999.78500000594,
      "d": 27.777750000008382,
      "v": 80
    },
    {
      "midi": 42,
      "hit": false,
      "t": 215166.45150000596,
      "d": 27.777750000008382,
      "v": 50
    },
    {
      "midi": 48,
      "hit": false,
      "t": 215166.45150000596,
      "d": 27.777750000008382,
      "v": 95
    },
    {
      "midi": 42,
      "hit": false,
      "t": 215333.11800000598,
      "d": 27.777750000008382,
      "v": 85
    },
    {
      "midi": 59,
      "hit": false,
      "t": 215333.11800000598,
      "d": 27.777750000008382,
      "v": 89
    },
    {
      "midi": 42,
      "hit": false,
      "t": 215499.784500006,
      "d": 27.777750000008382,
      "v": 50
    },
    {
      "midi": 45,
      "hit": false,
      "t": 215499.784500006,
      "d": 27.777750000008382,
      "v": 95
    },
    {
      "midi": 42,
      "hit": false,
      "t": 215666.45100000603,
      "d": 27.777750000008382,
      "v": 70
    },
    {
      "midi": 45,
      "hit": false,
      "t": 215666.45100000603,
      "d": 27.777750000008382,
      "v": 95
    },
    {
      "midi": 54,
      "hit": false,
      "t": 215666.45100000603,
      "d": 27.777750000008382,
      "v": 80
    },
    {
      "midi": 42,
      "hit": false,
      "t": 215833.11750000605,
      "d": 27.777750000008382,
      "v": 50
    },
    {
      "midi": 57,
      "hit": false,
      "t": 215999.78400000607,
      "d": 27.777750000008382,
      "v": 90
    }
  ]
}