{
  "jsonPath": "Unknown/Unknown/Ernst Anschütz/o-christmas-tree.json",
  "path": "Unknown\\Unknown\\Ernst Anschütz\\O Christmas Tree.mid",
  "name": "O Christmas Tree",
  "difficulty": "Intermediate",
  "bpm": 120,
  "notes": [
    {
      "midi": 60,
      "hit": false,
      "t": 1000,
      "d": 500,
      "v": 64
    },
    {
      "midi": 65,
      "hit": false,
      "t": 1500,
      "d": 250,
      "v": 63
    },
    {
      "midi": 53,
      "hit": false,
      "t": 1500,
      "d": 500,
      "v": 68
    },
    {
      "midi": 65,
      "hit": false,
      "t": 1750,
      "d": 250,
      "v": 63
    },
    {
      "midi": 65,
      "hit": false,
      "t": 2000,
      "d": 500,
      "v": 75
    },
    {
      "midi": 57,
      "hit": false,
      "t": 2000,
      "d": 500,
      "v": 64
    },
    {
      "midi": 67,
      "hit": false,
      "t": 2500,
      "d": 500,
      "v": 75
    },
    {
      "midi": 60,
      "hit": false,
      "t": 2500,
      "d": 500,
      "v": 66
    },
    {
      "midi": 69,
      "hit": false,
      "t": 3000,
      "d": 250,
      "v": 63
    },
    {
      "midi": 53,
      "hit": false,
      "t": 3000,
      "d": 500,
      "v": 68
    },
    {
      "midi": 69,
      "hit": false,
      "t": 3250,
      "d": 250,
      "v": 63
    },
    {
      "midi": 69,
      "hit": false,
      "t": 3500,
      "d": 500,
      "v": 70
    },
    {
      "midi": 57,
      "hit": false,
      "t": 3500,
      "d": 500,
      "v": 64
    },
    {
      "midi": 60,
      "hit": false,
      "t": 4000,
      "d": 250,
      "v": 66
    },
    {
      "midi": 65,
      "hit": false,
      "t": 4250,
      "d": 250,
      "v": 75
    },
    {
      "midi": 67,
      "hit": false,
      "t": 4500,
      "d": 250,
      "v": 75
    },
    {
      "midi": 52,
      "hit": false,
      "t": 4500,
      "d": 500,
      "v": 68
    },
    {
      "midi": 69,
      "hit": false,
      "t": 4750,
      "d": 250,
      "v": 75
    },
    {
      "midi": 70,
      "hit": false,
      "t": 5000,
      "d": 500,
      "v": 75
    },
    {
      "midi": 55,
      "hit": false,
      "t": 5000,
      "d": 500,
      "v": 64
    },
    {
      "midi": 64,
      "hit": false,
      "t": 5500,
      "d": 500,
      "v": 75
    },
    {
      "midi": 60,
      "hit": false,
      "t": 5500,
      "d": 500,
      "v": 66
    },
    {
      "midi": 67,
      "hit": false,
      "t": 6000,
      "d": 500,
      "v": 75
    },
    {
      "midi": 53,
      "hit": false,
      "t": 6000,
      "d": 500,
      "v": 68
    },
    {
      "midi": 65,
      "hit": false,
      "t": 6500,
      "d": 500,
      "v": 70
    },
    {
      "midi": 57,
      "hit": false,
      "t": 6500,
      "d": 500,
      "v": 64
    },
    {
      "midi": 60,
      "hit": false,
      "t": 7000,
      "d": 250,
      "v": 66
    },
    {
      "midi": 69,
      "hit": false,
      "t": 7250,
      "d": 250,
      "v": 75
    },
    {
      "midi": 72,
      "hit": false,
      "t": 7500,
      "d": 250,
      "v": 75
    },
    {
      "midi": 53,
      "hit": false,
      "t": 7500,
      "d": 500,
      "v": 68
    },
    {
      "midi": 69,
      "hit": false,
      "t": 7750,
      "d": 250,
      "v": 75
    },
    {
      "midi": 74,
      "hit": false,
      "t": 8000,
      "d": 500,
      "v": 75
    },
    {
      "midi": 57,
      "hit": false,
      "t": 8000,
      "d": 500,
      "v": 64
    },
    {
      "midi": 60,
      "hit": false,
      "t": 8500,
      "d": 250,
      "v": 66
    },
    {
      "midi": 72,
      "hit": false,
      "t": 8750,
      "d": 250,
      "v": 75
    },
    {
      "midi": 72,
      "hit": false,
      "t": 9000,
      "d": 250,
      "v": 75
    },
    {
      "midi": 52,
      "hit": false,
      "t": 9000,
      "d": 500,
      "v": 68
    },
    {
      "midi": 70,
      "hit": false,
      "t": 9250,
      "d": 250,
      "v": 75
    },
    {
      "midi": 70,
      "hit": false,
      "t": 9500,
      "d": 500,
      "v": 70
    },
    {
      "midi": 55,
      "hit": false,
      "t": 9500,
      "d": 500,
      "v": 64
    },
    {
      "midi": 60,
      "hit": false,
      "t": 10000,
      "d": 250,
      "v": 66
    },
    {
      "midi": 70,
      "hit": false,
      "t": 10250,
      "d": 250,
      "v": 63
    },
    {
      "midi": 70,
      "hit": false,
      "t": 10500,
      "d": 250,
      "v": 63
    },
    {
      "midi": 52,
      "hit": false,
      "t": 10500,
      "d": 500,
      "v": 68
    },
    {
      "midi": 67,
      "hit": false,
      "t": 10750,
      "d": 250,
      "v": 63
    },
    {
      "midi": 72,
      "hit": false,
      "t": 11000,
      "d": 500,
      "v": 75
    },
    {
      "midi": 55,
      "hit": false,
      "t": 11000,
      "d": 500,
      "v": 64
    },
    {
      "midi": 60,
      "hit": false,
      "t": 11500,
      "d": 250,
      "v": 66
    },
    {
      "midi": 70,
      "hit": false,
      "t": 11750,
      "d": 250,
      "v": 75
    },
    {
      "midi": 70,
      "hit": false,
      "t": 12000,
      "d": 250,
      "v": 75
    },
    {
      "midi": 53,
      "hit": false,
      "t": 12000,
      "d": 1000,
      "v": 75
    },
    {
      "midi": 69,
      "hit": false,
      "t": 12250,
      "d": 250,
      "v": 75
    },
    {
      "midi": 69,
      "hit": false,
      "t": 12500,
      "d": 500,
      "v": 70
    },
    {
      "midi": 60,
      "hit": false,
      "t": 13000,
      "d": 500,
      "v": 75
    },
    {
      "midi": 65,
      "hit": false,
      "t": 13500,
      "d": 250,
      "v": 63
    },
    {
      "midi": 53,
      "hit": false,
      "t": 13500,
      "d": 500,
      "v": 68
    },
    {
      "midi": 65,
      "hit": false,
      "t": 13750,
      "d": 250,
      "v": 63
    },
    {
      "midi": 65,
      "hit": false,
      "t": 14000,
      "d": 500,
      "v": 75
    },
    {
      "midi": 57,
      "hit": false,
      "t": 14000,
      "d": 500,
      "v": 64
    },
    {
      "midi": 67,
      "hit": false,
      "t": 14500,
      "d": 500,
      "v": 75
    },
    {
      "midi": 60,
      "hit": false,
      "t": 14500,
      "d": 500,
      "v": 66
    },
    {
      "midi": 69,
      "hit": false,
      "t": 15000,
      "d": 250,
      "v": 63
    },
    {
      "midi": 53,
      "hit": false,
      "t": 15000,
      "d": 500,
      "v": 68
    },
    {
      "midi": 69,
      "hit": false,
      "t": 15250,
      "d": 250,
      "v": 63
    },
    {
      "midi": 69,
      "hit": false,
      "t": 15500,
      "d": 500,
      "v": 70
    },
    {
      "midi": 57,
      "hit": false,
      "t": 15500,
      "d": 500,
      "v": 64
    },
    {
      "midi": 60,
      "hit": false,
      "t": 16000,
      "d": 250,
      "v": 66
    },
    {
      "midi": 65,
      "hit": false,
      "t": 16250,
      "d": 250,
      "v": 75
    },
    {
      "midi": 67,
      "hit": false,
      "t": 16500,
      "d": 250,
      "v": 75
    },
    {
      "midi": 52,
      "hit": false,
      "t": 16500,
      "d": 500,
      "v": 68
    },
    {
      "midi": 69,
      "hit": false,
      "t": 16750,
      "d": 250,
      "v": 75
    },
    {
      "midi": 70,
      "hit": false,
      "t": 17000,
      "d": 500,
      "v": 75
    },
    {
      "midi": 55,
      "hit": false,
      "t": 17000,
      "d": 500,
      "v": 64
    },
    {
      "midi": 64,
      "hit": false,
      "t": 17500,
      "d": 500,
      "v": 75
    },
    {
      "midi": 60,
      "hit": false,
      "t": 17500,
      "d": 500,
      "v": 66
    },
    {
      "midi": 67,
      "hit": false,
      "t": 18000,
      "d": 500,
      "v": 75
    },
    {
      "midi": 53,
      "hit": false,
      "t": 18000,
      "d": 1000,
      "v": 67
    },
    {
      "midi": 57,
      "hit": false,
      "t": 18000,
      "d": 1000,
      "v": 81
    },
    {
      "midi": 65,
      "hit": false,
      "t": 18500,
      "d": 500,
      "v": 70
    }
  ]
}