{
  "jsonPath": "Soul/R&B/Mariah Carey/dreamlover.json",
  "path": "Soul\\R&B\\Mariah Carey\\Dreamlover.mid",
  "name": "Dreamlover",
  "difficulty": "Advanced",
  "bpm": 102.0000510000255,
  "notes": [
    {
      "midi": 69,
      "hit": false,
      "t": 2352.94,
      "d": 289.2155416666669,
      "v": 82
    },
    {
      "midi": 60,
      "hit": false,
      "t": 2352.94,
      "d": 583.3330416666668,
      "v": 58
    },
    {
      "midi": 65,
      "hit": false,
      "t": 2352.94,
      "d": 583.3330416666668,
      "v": 83
    },
    {
      "midi": 67,
      "hit": false,
      "t": 2352.94,
      "d": 583.3330416666668,
      "v": 94
    },
    {
      "midi": 41,
      "hit": false,
      "t": 2352.94,
      "d": 2053.920541666666,
      "v": 80
    },
    {
      "midi": 53,
      "hit": false,
      "t": 2352.94,
      "d": 2053.920541666666,
      "v": 73
    },
    {
      "midi": 69,
      "hit": false,
      "t": 2941.175,
      "d": 289.21554166666647,
      "v": 65
    },
    {
      "midi": 72,
      "hit": false,
      "t": 2941.175,
      "d": 289.21554166666647,
      "v": 93
    },
    {
      "midi": 70,
      "hit": false,
      "t": 3529.41,
      "d": 289.21554166666647,
      "v": 108
    },
    {
      "midi": 69,
      "hit": false,
      "t": 3823.5274999999997,
      "d": 289.2155416666669,
      "v": 99
    },
    {
      "midi": 67,
      "hit": false,
      "t": 4117.6449999999995,
      "d": 289.21554166666647,
      "v": 81
    },
    {
      "midi": 65,
      "hit": false,
      "t": 4411.762499999999,
      "d": 289.21554166666647,
      "v": 83
    },
    {
      "midi": 43,
      "hit": false,
      "t": 4705.879999999998,
      "d": 1465.6855416666667,
      "v": 76
    },
    {
      "midi": 55,
      "hit": false,
      "t": 4705.879999999998,
      "d": 1465.6855416666667,
      "v": 70
    },
    {
      "midi": 58,
      "hit": false,
      "t": 4705.879999999998,
      "d": 1465.6855416666667,
      "v": 66
    },
    {
      "midi": 62,
      "hit": false,
      "t": 4705.879999999998,
      "d": 1465.6855416666667,
      "v": 82
    },
    {
      "midi": 65,
      "hit": false,
      "t": 4705.879999999998,
      "d": 1465.6855416666667,
      "v": 82
    },
    {
      "midi": 67,
      "hit": false,
      "t": 4705.879999999998,
      "d": 1465.6855416666667,
      "v": 64
    },
    {
      "midi": 60,
      "hit": false,
      "t": 7058.819999999998,
      "d": 583.3330416666668,
      "v": 71
    },
    {
      "midi": 65,
      "hit": false,
      "t": 7058.819999999998,
      "d": 583.3330416666668,
      "v": 86
    },
    {
      "midi": 67,
      "hit": false,
      "t": 7058.819999999998,
      "d": 583.3330416666668,
      "v": 84
    },
    {
      "midi": 41,
      "hit": false,
      "t": 7058.819999999998,
      "d": 2053.9205416666664,
      "v": 86
    },
    {
      "midi": 53,
      "hit": false,
      "t": 7058.819999999998,
      "d": 2053.9205416666664,
      "v": 80
    },
    {
      "midi": 72,
      "hit": false,
      "t": 7647.054999999998,
      "d": 289.21554166666647,
      "v": 101
    },
    {
      "midi": 70,
      "hit": false,
      "t": 8235.289999999997,
      "d": 289.21554166666647,
      "v": 101
    },
    {
      "midi": 69,
      "hit": false,
      "t": 8529.407499999998,
      "d": 289.21554166666647,
      "v": 97
    },
    {
      "midi": 67,
      "hit": false,
      "t": 8823.524999999998,
      "d": 289.21554166666647,
      "v": 88
    },
    {
      "midi": 65,
      "hit": false,
      "t": 9117.642499999998,
      "d": 289.21554166666647,
      "v": 79
    },
    {
      "midi": 65,
      "hit": false,
      "t": 9411.759999999998,
      "d": 877.450541666667,
      "v": 58
    },
    {
      "midi": 58,
      "hit": false,
      "t": 9411.759999999998,
      "d": 1171.5680416666673,
      "v": 83
    },
    {
      "midi": 62,
      "hit": false,
      "t": 9411.759999999998,
      "d": 1171.5680416666673,
      "v": 85
    },
    {
      "midi": 67,
      "hit": false,
      "t": 9411.759999999998,
      "d": 1171.5680416666673,
      "v": 90
    },
    {
      "midi": 43,
      "hit": false,
      "t": 9411.759999999998,
      "d": 1759.803041666668,
      "v": 83
    },
    {
      "midi": 55,
      "hit": false,
      "t": 9411.759999999998,
      "d": 1759.803041666668,
      "v": 76
    },
    {
      "midi": 60,
      "hit": false,
      "t": 11764.699999999999,
      "d": 289.21554166666647,
      "v": 81
    },
    {
      "midi": 65,
      "hit": false,
      "t": 11764.699999999999,
      "d": 583.3330416666668,
      "v": 91
    },
    {
      "midi": 67,
      "hit": false,
      "t": 11764.699999999999,
      "d": 583.3330416666668,
      "v": 80
    },
    {
      "midi": 41,
      "hit": false,
      "t": 11764.699999999999,
      "d": 2053.920541666668,
      "v": 76
    },
    {
      "midi": 53,
      "hit": false,
      "t": 11764.699999999999,
      "d": 2053.920541666668,
      "v": 83
    },
    {
      "midi": 72,
      "hit": false,
      "t": 12352.935,
      "d": 289.21554166666647,
      "v": 101
    },
    {
      "midi": 70,
      "hit": false,
      "t": 12941.17,
      "d": 289.21554166666647,
      "v": 105
    },
    {
      "midi": 69,
      "hit": false,
      "t": 13235.2875,
      "d": 289.21554166666647,
      "v": 97
    },
    {
      "midi": 67,
      "hit": false,
      "t": 13529.405,
      "d": 289.21554166666647,
      "v": 84
    },
    {
      "midi": 65,
      "hit": false,
      "t": 13823.522500000001,
      "d": 289.21554166666647,
      "v": 82
    },
    {
      "midi": 58,
      "hit": false,
      "t": 14117.640000000001,
      "d": 877.450541666667,
      "v": 76
    },
    {
      "midi": 62,
      "hit": false,
      "t": 14117.640000000001,
      "d": 877.450541666667,
      "v": 90
    },
    {
      "midi": 65,
      "hit": false,
      "t": 14117.640000000001,
      "d": 877.450541666667,
      "v": 14
    },
    {
      "midi": 67,
      "hit": false,
      "t": 14117.640000000001,
      "d": 877.450541666667,
      "v": 90
    },
    {
      "midi": 43,
      "hit": false,
      "t": 14117.640000000001,
      "d": 1465.6855416666676,
      "v": 68
    },
    {
      "midi": 55,
      "hit": false,
      "t": 14117.640000000001,
      "d": 1759.803041666668,
      "v": 57
    },
    {
      "midi": 60,
      "hit": false,
      "t": 16470.58,
      "d": 583.3330416666686,
      "v": 65
    },
    {
      "midi": 65,
      "hit": false,
      "t": 16470.58,
      "d": 583.3330416666686,
      "v": 88
    },
    {
      "midi": 67,
      "hit": false,
      "t": 16470.58,
      "d": 583.3330416666686,
      "v": 85
    },
    {
      "midi": 41,
      "hit": false,
      "t": 16470.58,
      "d": 2053.92054166667,
      "v": 70
    },
    {
      "midi": 53,
      "hit": false,
      "t": 16470.58,
      "d": 2053.92054166667,
      "v": 74
    },
    {
      "midi": 72,
      "hit": false,
      "t": 17058.815000000002,
      "d": 289.2155416666683,
      "v": 97
    },
    {
      "midi": 72,
      "hit": false,
      "t": 17352.932500000003,
      "d": 289.2155416666683,
      "v": 45
    },
    {
      "midi": 70,
      "hit": false,
      "t": 17647.050000000003,
      "d": 289.2155416666683,
      "v": 110
    },
    {
      "midi": 69,
      "hit": false,
      "t": 17941.167500000003,
      "d": 289.2155416666683,
      "v": 108
    },
    {
      "midi": 67,
      "hit": false,
      "t": 18235.285000000003,
      "d": 289.2155416666683,
      "v": 97
    },
    {
      "midi": 65,
      "hit": false,
      "t": 18529.402500000004,
      "d": 289.2155416666683,
      "v": 79
    },
    {
      "midi": 43,
      "hit": false,
      "t": 18823.520000000004,
      "d": 877.4505416666689,
      "v": 72
    },
    {
      "midi": 55,
      "hit": false,
      "t": 18823.520000000004,
      "d": 877.4505416666689,
      "v": 78
    },
    {
      "midi": 58,
      "hit": false,
      "t": 18823.520000000004,
      "d": 1171.5680416666692,
      "v": 73
    },
    {
      "midi": 62,
      "hit": false,
      "t": 18823.520000000004,
      "d": 1171.5680416666692,
      "v": 80
    },
    {
      "midi": 65,
      "hit": false,
      "t": 18823.520000000004,
      "d": 1171.5680416666692,
      "v": 101
    },
    {
      "midi": 67,
      "hit": false,
      "t": 18823.520000000004,
      "d": 1171.5680416666692,
      "v": 73
    },
    {
      "midi": 72,
      "hit": false,
      "t": 21764.695000000007,
      "d": 553.9212916666656,
      "v": 93
    },
    {
      "midi": 70,
      "hit": false,
      "t": 22352.930000000008,
      "d": 333.33316666666724,
      "v": 82
    },
    {
      "midi": 69,
      "hit": false,
      "t": 22647.047500000008,
      "d": 338.23512499999924,
      "v": 83
    },
    {
      "midi": 67,
      "hit": false,
      "t": 22941.165000000008,
      "d": 259.80379166666535,
      "v": 102
    },
    {
      "midi": 65,
      "hit": false,
      "t": 23235.28250000001,
      "d": 323.5292499999996,
      "v": 108
    },
    {
      "midi": 67,
      "hit": false,
      "t": 23529.40000000001,
      "d": 2230.391041666666,
      "v": 117
    },
    {
      "midi": 72,
      "hit": false,
      "t": 26470.575000000008,
      "d": 553.9212916666656,
      "v": 93
    },
    {
      "midi": 70,
      "hit": false,
      "t": 27058.81000000001,
      "d": 333.33316666666724,
      "v": 82
    },
    {
      "midi": 69,
      "hit": false,
      "t": 27352.92750000001,
      "d": 338.23512499999924,
      "v": 83
    },
    {
      "midi": 67,
      "hit": false,
      "t": 27647.04500000001,
      "d": 259.80379166666535,
      "v": 102
    },
    {
      "midi": 65,
      "hit": false,
      "t": 27941.16250000001,
      "d": 323.5292499999996,
      "v": 108
    },
    {
      "midi": 67,
      "hit": false,
      "t": 28235.28000000001,
      "d": 2230.391041666666,
      "v": 117
    },
    {
      "midi": 72,
      "hit": false,
      "t": 31176.45500000001,
      "d": 553.9212916666656,
      "v": 93
    },
    {
      "midi": 70,
      "hit": false,
      "t": 31764.69000000001,
      "d": 333.33316666666724,
      "v": 82
    },
    {
      "midi": 69,
      "hit": false,
      "t": 32058.80750000001,
      "d": 338.23512499999924,
      "v": 83
    },
    {
      "midi": 67,
      "hit": false,
      "t": 32352.92500000001,
      "d": 259.80379166666535,
      "v": 102
    },
    {
      "midi": 65,
      "hit": false,
      "t": 32647.04250000001,
      "d": 323.5292499999996,
      "v": 108
    },
    {
      "midi": 67,
      "hit": false,
      "t": 32941.16000000001,
      "d": 2230.3910416666695,
      "v": 117
    },
    {
      "midi": 72,
      "hit": false,
      "t": 35882.335000000014,
      "d": 553.9212916666656,
      "v": 93
    },
    {
      "midi": 70,
      "hit": false,
      "t": 36470.570000000014,
      "d": 333.3331666666636,
      "v": 82
    },
    {
      "midi": 69,
      "hit": false,
      "t": 36764.687500000015,
      "d": 338.23512499999197,
      "v": 83
    },
    {
      "midi": 67,
      "hit": false,
      "t": 37058.80500000001,
      "d": 259.80379166666535,
      "v": 102
    },
    {
      "midi": 65,
      "hit": false,
      "t": 37352.92250000001,
      "d": 323.5292499999996,
      "v": 108
    },
    {
      "midi": 67,
      "hit": false,
      "t": 37647.04000000001,
      "d": 2230.391041666662,
      "v": 117
    },
    {
      "midi": 72,
      "hit": false,
      "t": 59411.735,
      "d": 553.9212916666656,
      "v": 93
    },
    {
      "midi": 70,
      "hit": false,
      "t": 59999.97,
      "d": 333.3331666666636,
      "v": 82
    },
    {
      "midi": 69,
      "hit": false,
      "t": 60294.0875,
      "d": 338.23512499999924,
      "v": 83
    },
    {
      "midi": 67,
      "hit": false,
      "t": 60588.205,
      "d": 259.80379166666535,
      "v": 102
    },
    {
      "midi": 65,
      "hit": false,
      "t": 60882.3225,
      "d": 323.5292499999996,
      "v": 108
    },
    {
      "midi": 67,
      "hit": false,
      "t": 61176.44,
      "d": 2230.391041666662,
      "v": 117
    },
    {
      "midi": 72,
      "hit": false,
      "t": 78235.255,
      "d": 553.9212916666729,
      "v": 93
    },
    {
      "midi": 70,
      "hit": false,
      "t": 78823.49,
      "d": 333.3331666666636,
      "v": 82
    },
    {
      "midi": 69,
      "hit": false,
      "t": 79117.6075,
      "d": 338.2351250000065,
      "v": 83
    },
    {
      "midi": 67,
      "hit": false,
      "t": 79411.725,
      "d": 259.80379166666535,
      "v": 102
    },
    {
      "midi": 65,
      "hit": false,
      "t": 79705.8425,
      "d": 323.5292499999923,
      "v": 108
    },
    {
      "midi": 67,
      "hit": false,
      "t": 79999.95999999999,
      "d": 2230.391041666662,
      "v": 117
    },
    {
      "midi": 72,
      "hit": false,
      "t": 82941.13499999998,
      "d": 553.9212916666729,
      "v": 93
    },
    {
      "midi": 70,
      "hit": false,
      "t": 83529.36999999998,
      "d": 333.3331666666636,
      "v": 82
    },
    {
      "midi": 69,
      "hit": false,
      "t": 83823.48749999997,
      "d": 338.2351250000065,
      "v": 83
    },
    {
      "midi": 67,
      "hit": false,
      "t": 84117.60499999998,
      "d": 259.80379166666535,
      "v": 102
    },
    {
      "midi": 65,
      "hit": false,
      "t": 84411.72249999997,
      "d": 323.5292499999923,
      "v": 108
    },
    {
      "midi": 67,
      "hit": false,
      "t": 84705.83999999997,
      "d": 2230.391041666662,
      "v": 117
    },
    {
      "midi": 72,
      "hit": false,
      "t": 87647.01499999996,
      "d": 553.9212916666729,
      "v": 93
    },
    {
      "midi": 70,
      "hit": false,
      "t": 88235.24999999996,
      "d": 333.3331666666636,
      "v": 82
    },
    {
      "midi": 69,
      "hit": false,
      "t": 88529.36749999995,
      "d": 338.2351250000065,
      "v": 83
    },
    {
      "midi": 67,
      "hit": false,
      "t": 88823.48499999996,
      "d": 259.80379166666535,
      "v": 102
    },
    {
      "midi": 65,
      "hit": false,
      "t": 89117.60249999995,
      "d": 323.5292499999923,
      "v": 108
    },
    {
      "midi": 67,
      "hit": false,
      "t": 89411.71999999994,
      "d": 2230.391041666662,
      "v": 117
    },
    {
      "midi": 72,
      "hit": false,
      "t": 92352.89499999993,
      "d": 553.9212916666729,
      "v": 93
    },
    {
      "midi": 70,
      "hit": false,
      "t": 92941.12999999993,
      "d": 333.3331666666636,
      "v": 82
    },
    {
      "midi": 69,
      "hit": false,
      "t": 93235.24749999992,
      "d": 338.2351250000065,
      "v": 83
    },
    {
      "midi": 67,
      "hit": false,
      "t": 93529.36499999993,
      "d": 259.80379166666535,
      "v": 102
    },
    {
      "midi": 65,
      "hit": false,
      "t": 93823.48249999993,
      "d": 323.5292499999923,
      "v": 108
    },
    {
      "midi": 67,
      "hit": false,
      "t": 94117.59999999992,
      "d": 2230.391041666662,
      "v": 117
    },
    {
      "midi": 72,
      "hit": false,
      "t": 125294.05499999992,
      "d": 553.9212916666729,
      "v": 93
    },
    {
      "midi": 70,
      "hit": false,
      "t": 125882.28999999992,
      "d": 333.3331666666636,
      "v": 82
    },
    {
      "midi": 69,
      "hit": false,
      "t": 126176.40749999991,
      "d": 338.2351250000065,
      "v": 83
    },
    {
      "midi": 67,
      "hit": false,
      "t": 126470.52499999992,
      "d": 259.80379166666535,
      "v": 102
    },
    {
      "midi": 65,
      "hit": false,
      "t": 126764.64249999991,
      "d": 323.5292499999923,
      "v": 108
    },
    {
      "midi": 67,
      "hit": false,
      "t": 127058.75999999991,
      "d": 2230.391041666662,
      "v": 117
    },
    {
      "midi": 72,
      "hit": false,
      "t": 144117.5749999999,
      "d": 553.9212916666584,
      "v": 93
    },
    {
      "midi": 70,
      "hit": false,
      "t": 144705.80999999988,
      "d": 333.33316666664905,
      "v": 82
    },
    {
      "midi": 69,
      "hit": false,
      "t": 144999.92749999987,
      "d": 338.2351250000065,
      "v": 83
    },
    {
      "midi": 67,
      "hit": false,
      "t": 145294.04499999987,
      "d": 259.80379166669445,
      "v": 102
    },
    {
      "midi": 65,
      "hit": false,
      "t": 145588.1624999999,
      "d": 323.5292499999923,
      "v": 108
    },
    {
      "midi": 67,
      "hit": false,
      "t": 145882.27999999988,
      "d": 2230.3910416666768,
      "v": 117
    },
    {
      "midi": 72,
      "hit": false,
      "t": 148823.4549999999,
      "d": 553.9212916666584,
      "v": 93
    },
    {
      "midi": 70,
      "hit": false,
      "t": 149411.6899999999,
      "d": 333.33316666664905,
      "v": 82
    },
    {
      "midi": 69,
      "hit": false,
      "t": 149705.80749999988,
      "d": 338.2351250000065,
      "v": 83
    },
    {
      "midi": 67,
      "hit": false,
      "t": 149999.92499999987,
      "d": 259.80379166669445,
      "v": 102
    },
    {
      "midi": 65,
      "hit": false,
      "t": 150294.0424999999,
      "d": 323.5292499999923,
      "v": 108
    },
    {
      "midi": 67,
      "hit": false,
      "t": 150588.1599999999,
      "d": 2230.3910416666768,
      "v": 117
    },
    {
      "midi": 72,
      "hit": false,
      "t": 153529.3349999999,
      "d": 553.9212916666584,
      "v": 93
    },
    {
      "midi": 70,
      "hit": false,
      "t": 154117.5699999999,
      "d": 333.33316666664905,
      "v": 82
    },
    {
      "midi": 69,
      "hit": false,
      "t": 154411.68749999988,
      "d": 338.2351250000065,
      "v": 83
    },
    {
      "midi": 67,
      "hit": false,
      "t": 154705.80499999988,
      "d": 259.80379166669445,
      "v": 102
    },
    {
      "midi": 65,
      "hit": false,
      "t": 154999.9224999999,
      "d": 323.5292499999923,
      "v": 108
    },
    {
      "midi": 67,
      "hit": false,
      "t": 155294.0399999999,
      "d": 2230.3910416666768,
      "v": 117
    },
    {
      "midi": 72,
      "hit": false,
      "t": 158235.2149999999,
      "d": 553.9212916666584,
      "v": 93
    },
    {
      "midi": 70,
      "hit": false,
      "t": 158823.4499999999,
      "d": 333.33316666664905,
      "v": 82
    },
    {
      "midi": 69,
      "hit": false,
      "t": 159117.5674999999,
      "d": 338.2351250000065,
      "v": 83
    },
    {
      "midi": 67,
      "hit": false,
      "t": 159411.68499999988,
      "d": 259.80379166669445,
      "v": 102
    },
    {
      "midi": 65,
      "hit": false,
      "t": 159705.8024999999,
      "d": 323.5292499999923,
      "v": 108
    },
    {
      "midi": 67,
      "hit": false,
      "t": 159999.9199999999,
      "d": 2230.3910416666768,
      "v": 117
    },
    {
      "midi": 72,
      "hit": false,
      "t": 181764.6149999999,
      "d": 553.9212916666584,
      "v": 93
    },
    {
      "midi": 70,
      "hit": false,
      "t": 182352.8499999999,
      "d": 333.33316666664905,
      "v": 82
    },
    {
      "midi": 69,
      "hit": false,
      "t": 182646.96749999988,
      "d": 338.2351250000065,
      "v": 83
    },
    {
      "midi": 67,
      "hit": false,
      "t": 182941.08499999988,
      "d": 259.80379166669445,
      "v": 102
    },
    {
      "midi": 65,
      "hit": false,
      "t": 183235.2024999999,
      "d": 323.5292499999923,
      "v": 108
    },
    {
      "midi": 67,
      "hit": false,
      "t": 183529.3199999999,
      "d": 2230.3910416666768,
      "v": 117
    },
    {
      "midi": 72,
      "hit": false,
      "t": 186470.4949999999,
      "d": 553.9212916666584,
      "v": 93
    },
    {
      "midi": 70,
      "hit": false,
      "t": 187058.7299999999,
      "d": 333.33316666664905,
      "v": 82
    },
    {
      "midi": 69,
      "hit": false,
      "t": 187352.8474999999,
      "d": 338.2351250000065,
      "v": 83
    },
    {
      "midi": 67,
      "hit": false,
      "t": 187646.96499999988,
      "d": 259.80379166669445,
      "v": 102
    },
    {
      "midi": 65,
      "hit": false,
      "t": 187941.0824999999,
      "d": 323.5292499999923,
      "v": 108
    },
    {
      "midi": 67,
      "hit": false,
      "t": 188235.1999999999,
      "d": 2230.3910416666768,
      "v": 117
    },
    {
      "midi": 72,
      "hit": false,
      "t": 191176.3749999999,
      "d": 553.9212916666584,
      "v": 93
    },
    {
      "midi": 70,
      "hit": false,
      "t": 191764.6099999999,
      "d": 333.33316666664905,
      "v": 82
    },
    {
      "midi": 69,
      "hit": false,
      "t": 192058.7274999999,
      "d": 338.2351250000065,
      "v": 83
    },
    {
      "midi": 67,
      "hit": false,
      "t": 192352.84499999988,
      "d": 259.80379166669445,
      "v": 102
    },
    {
      "midi": 65,
      "hit": false,
      "t": 192646.9624999999,
      "d": 323.5292499999923,
      "v": 108
    },
    {
      "midi": 67,
      "hit": false,
      "t": 192941.0799999999,
      "d": 2230.3910416666768,
      "v": 117
    },
    {
      "midi": 72,
      "hit": false,
      "t": 195882.25499999992,
      "d": 553.9212916666584,
      "v": 93
    },
    {
      "midi": 70,
      "hit": false,
      "t": 196470.4899999999,
      "d": 333.33316666664905,
      "v": 82
    },
    {
      "midi": 69,
      "hit": false,
      "t": 196764.6074999999,
      "d": 338.2351250000065,
      "v": 83
    },
    {
      "midi": 67,
      "hit": false,
      "t": 197058.7249999999,
      "d": 259.80379166669445,
      "v": 102
    },
    {
      "midi": 65,
      "hit": false,
      "t": 197352.8424999999,
      "d": 323.5292499999923,
      "v": 108
    },
    {
      "midi": 67,
      "hit": false,
      "t": 197646.9599999999,
      "d": 2230.3910416666768,
      "v": 117
    },
    {
      "midi": 72,
      "hit": false,
      "t": 209999.8949999999,
      "d": 553.9212916666584,
      "v": 93
    },
    {
      "midi": 70,
      "hit": false,
      "t": 210588.1299999999,
      "d": 333.33316666664905,
      "v": 82
    },
    {
      "midi": 69,
      "hit": false,
      "t": 210882.24749999988,
      "d": 338.2351250000065,
      "v": 83
    },
    {
      "midi": 67,
      "hit": false,
      "t": 211176.36499999987,
      "d": 259.80379166669445,
      "v": 102
    },
    {
      "midi": 65,
      "hit": false,
      "t": 211470.4824999999,
      "d": 323.5292499999923,
      "v": 108
    },
    {
      "midi": 67,
      "hit": false,
      "t": 211764.5999999999,
      "d": 2230.3910416666768,
      "v": 117
    },
    {
      "midi": 72,
      "hit": false,
      "t": 214705.7749999999,
      "d": 553.9212916666584,
      "v": 93
    },
    {
      "midi": 70,
      "hit": false,
      "t": 215294.0099999999,
      "d": 333.33316666664905,
      "v": 82
    },
    {
      "midi": 69,
      "hit": false,
      "t": 215588.1274999999,
      "d": 338.2351250000065,
      "v": 83
    },
    {
      "midi": 67,
      "hit": false,
      "t": 215882.24499999988,
      "d": 259.80379166669445,
      "v": 102
    },
    {
      "midi": 65,
      "hit": false,
      "t": 216176.3624999999,
      "d": 323.5292499999923,
      "v": 108
    },
    {
      "midi": 67,
      "hit": false,
      "t": 216470.4799999999,
      "d": 2230.3910416666768,
      "v": 117
    },
    {
      "midi": 72,
      "hit": false,
      "t": 219411.6549999999,
      "d": 553.9212916666584,
      "v": 93
    },
    {
      "midi": 70,
      "hit": false,
      "t": 219999.8899999999,
      "d": 333.33316666664905,
      "v": 82
    },
    {
      "midi": 69,
      "hit": false,
      "t": 220294.0074999999,
      "d": 338.2351250000065,
      "v": 83
    },
    {
      "midi": 67,
      "hit": false,
      "t": 220588.12499999988,
      "d": 259.80379166669445,
      "v": 102
    },
    {
      "midi": 65,
      "hit": false,
      "t": 220882.2424999999,
      "d": 323.5292499999923,
      "v": 108
    },
    {
      "midi": 67,
      "hit": false,
      "t": 221176.3599999999,
      "d": 2230.3910416666768,
      "v": 117
    }
  ]
}