{
  "jsonPath": "Soul/R&B/Mariah Carey/melt-away.json",
  "path": "Soul\\R&B\\Mariah Carey\\Melt Away.mid",
  "name": "Melt Away",
  "difficulty": "Advanced",
  "bpm": 130.00041166797027,
  "notes": [
    {
      "midi": 62,
      "hit": false,
      "t": 0,
      "d": 461.53700000000003,
      "v": 100
    },
    {
      "midi": 61,
      "hit": false,
      "t": 461.53700000000003,
      "d": 461.53700000000003,
      "v": 100
    },
    {
      "midi": 59,
      "hit": false,
      "t": 923.0740000000001,
      "d": 461.53700000000003,
      "v": 100
    },
    {
      "midi": 57,
      "hit": false,
      "t": 1384.611,
      "d": 461.53700000000003,
      "v": 100
    },
    {
      "midi": 59,
      "hit": false,
      "t": 1846.1480000000001,
      "d": 692.3054999999999,
      "v": 100
    },
    {
      "midi": 62,
      "hit": false,
      "t": 1846.1480000000001,
      "d": 692.3054999999999,
      "v": 100
    },
    {
      "midi": 67,
      "hit": false,
      "t": 1846.1480000000001,
      "d": 692.3054999999999,
      "v": 100
    },
    {
      "midi": 40,
      "hit": false,
      "t": 1846.1480000000001,
      "d": 1384.6109999999999,
      "v": 100
    },
    {
      "midi": 62,
      "hit": false,
      "t": 2538.4535,
      "d": 692.3054999999999,
      "v": 100
    },
    {
      "midi": 67,
      "hit": false,
      "t": 2538.4535,
      "d": 692.3054999999999,
      "v": 100
    },
    {
      "midi": 71,
      "hit": false,
      "t": 2538.4535,
      "d": 692.3054999999999,
      "v": 100
    },
    {
      "midi": 45,
      "hit": false,
      "t": 3230.759,
      "d": 923.0740000000005,
      "v": 100
    },
    {
      "midi": 61,
      "hit": false,
      "t": 3230.759,
      "d": 1846.148000000001,
      "v": 100
    },
    {
      "midi": 67,
      "hit": false,
      "t": 3230.759,
      "d": 1846.148000000001,
      "v": 100
    },
    {
      "midi": 69,
      "hit": false,
      "t": 3230.759,
      "d": 1846.148000000001,
      "v": 100
    },
    {
      "midi": 45,
      "hit": false,
      "t": 4153.8330000000005,
      "d": 1384.6110000000008,
      "v": 100
    },
    {
      "midi": 57,
      "hit": false,
      "t": 5076.907000000001,
      "d": 230.76850000000013,
      "v": 100
    },
    {
      "midi": 62,
      "hit": false,
      "t": 5076.907000000001,
      "d": 230.76850000000013,
      "v": 100
    },
    {
      "midi": 59,
      "hit": false,
      "t": 5307.675500000001,
      "d": 230.76850000000013,
      "v": 100
    },
    {
      "midi": 64,
      "hit": false,
      "t": 5307.675500000001,
      "d": 230.76850000000013,
      "v": 100
    },
    {
      "midi": 57,
      "hit": false,
      "t": 5538.444000000001,
      "d": 692.3055000000004,
      "v": 100
    },
    {
      "midi": 61,
      "hit": false,
      "t": 5538.444000000001,
      "d": 692.3055000000004,
      "v": 100
    },
    {
      "midi": 66,
      "hit": false,
      "t": 5538.444000000001,
      "d": 692.3055000000004,
      "v": 100
    },
    {
      "midi": 38,
      "hit": false,
      "t": 5538.444000000001,
      "d": 1384.6110000000008,
      "v": 100
    },
    {
      "midi": 69,
      "hit": false,
      "t": 6230.749500000002,
      "d": 692.3055000000004,
      "v": 100
    },
    {
      "midi": 59,
      "hit": false,
      "t": 6923.055000000002,
      "d": 1846.1479999999992,
      "v": 100
    },
    {
      "midi": 62,
      "hit": false,
      "t": 6923.055000000002,
      "d": 1846.1479999999992,
      "v": 100
    },
    {
      "midi": 66,
      "hit": false,
      "t": 6923.055000000002,
      "d": 1846.1479999999992,
      "v": 100
    },
    {
      "midi": 43,
      "hit": false,
      "t": 6923.055000000002,
      "d": 2307.6849999999995,
      "v": 100
    },
    {
      "midi": 67,
      "hit": false,
      "t": 8769.203000000001,
      "d": 230.76850000000013,
      "v": 100
    },
    {
      "midi": 66,
      "hit": false,
      "t": 8999.971500000001,
      "d": 230.76850000000013,
      "v": 100
    },
    {
      "midi": 59,
      "hit": false,
      "t": 9230.740000000002,
      "d": 692.3055000000004,
      "v": 100
    },
    {
      "midi": 62,
      "hit": false,
      "t": 9230.740000000002,
      "d": 692.3055000000004,
      "v": 100
    },
    {
      "midi": 64,
      "hit": false,
      "t": 9230.740000000002,
      "d": 692.3055000000004,
      "v": 100
    },
    {
      "midi": 40,
      "hit": false,
      "t": 9230.740000000002,
      "d": 1384.6110000000008,
      "v": 100
    },
    {
      "midi": 62,
      "hit": false,
      "t": 9923.045500000002,
      "d": 692.3055000000004,
      "v": 100
    },
    {
      "midi": 67,
      "hit": false,
      "t": 9923.045500000002,
      "d": 692.3055000000004,
      "v": 100
    },
    {
      "midi": 71,
      "hit": false,
      "t": 9923.045500000002,
      "d": 692.3055000000004,
      "v": 100
    },
    {
      "midi": 61,
      "hit": false,
      "t": 10615.351000000002,
      "d": 1384.6110000000008,
      "v": 100
    },
    {
      "midi": 67,
      "hit": false,
      "t": 10615.351000000002,
      "d": 1384.6110000000008,
      "v": 100
    },
    {
      "midi": 69,
      "hit": false,
      "t": 10615.351000000002,
      "d": 1384.6110000000008,
      "v": 100
    },
    {
      "midi": 45,
      "hit": false,
      "t": 10615.351000000002,
      "d": 2307.6850000000013,
      "v": 100
    },
    {
      "midi": 71,
      "hit": false,
      "t": 11999.962000000003,
      "d": 230.76850000000013,
      "v": 100
    },
    {
      "midi": 69,
      "hit": false,
      "t": 12230.730500000003,
      "d": 230.76850000000013,
      "v": 100
    },
    {
      "midi": 71,
      "hit": false,
      "t": 12461.499000000003,
      "d": 230.76850000000013,
      "v": 100
    },
    {
      "midi": 69,
      "hit": false,
      "t": 12692.267500000004,
      "d": 230.76850000000013,
      "v": 100
    },
    {
      "midi": 57,
      "hit": false,
      "t": 12923.036000000004,
      "d": 1384.6110000000008,
      "v": 100
    },
    {
      "midi": 61,
      "hit": false,
      "t": 12923.036000000004,
      "d": 1384.6110000000008,
      "v": 100
    },
    {
      "midi": 38,
      "hit": false,
      "t": 12923.036000000004,
      "d": 1846.148000000001,
      "v": 100
    },
    {
      "midi": 66,
      "hit": false,
      "t": 12923.036000000004,
      "d": 3230.759000000002,
      "v": 100
    },
    {
      "midi": 59,
      "hit": false,
      "t": 14307.647000000004,
      "d": 1846.148000000001,
      "v": 100
    },
    {
      "midi": 62,
      "hit": false,
      "t": 14307.647000000004,
      "d": 1846.148000000001,
      "v": 100
    },
    {
      "midi": 43,
      "hit": false,
      "t": 14769.184000000005,
      "d": 1846.148000000001,
      "v": 100
    },
    {
      "midi": 59,
      "hit": false,
      "t": 16615.332000000006,
      "d": 692.3054999999986,
      "v": 100
    },
    {
      "midi": 62,
      "hit": false,
      "t": 16615.332000000006,
      "d": 692.3054999999986,
      "v": 100
    },
    {
      "midi": 66,
      "hit": false,
      "t": 16615.332000000006,
      "d": 692.3054999999986,
      "v": 100
    },
    {
      "midi": 62,
      "hit": false,
      "t": 17307.637500000004,
      "d": 692.3054999999986,
      "v": 100
    },
    {
      "midi": 66,
      "hit": false,
      "t": 17307.637500000004,
      "d": 692.3054999999986,
      "v": 100
    },
    {
      "midi": 69,
      "hit": false,
      "t": 17307.637500000004,
      "d": 692.3054999999986,
      "v": 100
    },
    {
      "midi": 61,
      "hit": false,
      "t": 17999.943000000003,
      "d": 1846.148000000001,
      "v": 100
    },
    {
      "midi": 64,
      "hit": false,
      "t": 17999.943000000003,
      "d": 1846.148000000001,
      "v": 100
    },
    {
      "midi": 67,
      "hit": false,
      "t": 17999.943000000003,
      "d": 1846.148000000001,
      "v": 100
    },
    {
      "midi": 71,
      "hit": false,
      "t": 17999.943000000003,
      "d": 1846.148000000001,
      "v": 100
    },
    {
      "midi": 61,
      "hit": false,
      "t": 20307.628000000004,
      "d": 692.3054999999986,
      "v": 100
    },
    {
      "midi": 66,
      "hit": false,
      "t": 20307.628000000004,
      "d": 692.3054999999986,
      "v": 100
    },
    {
      "midi": 61,
      "hit": false,
      "t": 20999.933500000003,
      "d": 692.3054999999986,
      "v": 100
    },
    {
      "midi": 66,
      "hit": false,
      "t": 20999.933500000003,
      "d": 692.3054999999986,
      "v": 100
    },
    {
      "midi": 71,
      "hit": false,
      "t": 20999.933500000003,
      "d": 692.3054999999986,
      "v": 100
    },
    {
      "midi": 54,
      "hit": false,
      "t": 22153.776,
      "d": 1384.6110000000008,
      "v": 100
    },
    {
      "midi": 59,
      "hit": false,
      "t": 22153.776,
      "d": 1384.6110000000008,
      "v": 100
    },
    {
      "midi": 62,
      "hit": false,
      "t": 22153.776,
      "d": 1384.6110000000008,
      "v": 100
    },
    {
      "midi": 59,
      "hit": false,
      "t": 23999.924000000003,
      "d": 692.3054999999986,
      "v": 100
    },
    {
      "midi": 62,
      "hit": false,
      "t": 23999.924000000003,
      "d": 692.3054999999986,
      "v": 100
    },
    {
      "midi": 66,
      "hit": false,
      "t": 23999.924000000003,
      "d": 692.3054999999986,
      "v": 100
    },
    {
      "midi": 62,
      "hit": false,
      "t": 24692.2295,
      "d": 692.3054999999986,
      "v": 100
    },
    {
      "midi": 66,
      "hit": false,
      "t": 24692.2295,
      "d": 692.3054999999986,
      "v": 100
    },
    {
      "midi": 69,
      "hit": false,
      "t": 24692.2295,
      "d": 692.3054999999986,
      "v": 100
    },
    {
      "midi": 61,
      "hit": false,
      "t": 25384.535,
      "d": 1846.148000000001,
      "v": 100
    },
    {
      "midi": 64,
      "hit": false,
      "t": 25384.535,
      "d": 1846.148000000001,
      "v": 100
    },
    {
      "midi": 67,
      "hit": false,
      "t": 25384.535,
      "d": 1846.148000000001,
      "v": 100
    },
    {
      "midi": 71,
      "hit": false,
      "t": 25384.535,
      "d": 1846.148000000001,
      "v": 100
    },
    {
      "midi": 66,
      "hit": false,
      "t": 27692.22,
      "d": 692.3054999999986,
      "v": 100
    },
    {
      "midi": 69,
      "hit": false,
      "t": 27692.22,
      "d": 692.3054999999986,
      "v": 100
    },
    {
      "midi": 73,
      "hit": false,
      "t": 27692.22,
      "d": 692.3054999999986,
      "v": 100
    },
    {
      "midi": 61,
      "hit": false,
      "t": 28384.5255,
      "d": 1153.8424999999988,
      "v": 100
    },
    {
      "midi": 66,
      "hit": false,
      "t": 28384.5255,
      "d": 1153.8424999999988,
      "v": 100
    },
    {
      "midi": 69,
      "hit": false,
      "t": 28384.5255,
      "d": 1153.8424999999988,
      "v": 100
    },
    {
      "midi": 55,
      "hit": false,
      "t": 29538.368,
      "d": 923.0740000000005,
      "v": 100
    },
    {
      "midi": 60,
      "hit": false,
      "t": 29538.368,
      "d": 923.0740000000005,
      "v": 100
    },
    {
      "midi": 64,
      "hit": false,
      "t": 29538.368,
      "d": 923.0740000000005,
      "v": 100
    },
    {
      "midi": 54,
      "hit": false,
      "t": 30461.442,
      "d": 923.0740000000005,
      "v": 100
    },
    {
      "midi": 57,
      "hit": false,
      "t": 30461.442,
      "d": 923.0740000000005,
      "v": 100
    },
    {
      "midi": 60,
      "hit": false,
      "t": 30461.442,
      "d": 923.0740000000005,
      "v": 100
    },
    {
      "midi": 62,
      "hit": false,
      "t": 30461.442,
      "d": 923.0740000000005,
      "v": 100
    },
    {
      "midi": 59,
      "hit": false,
      "t": 31384.516,
      "d": 692.3054999999986,
      "v": 100
    },
    {
      "midi": 62,
      "hit": false,
      "t": 31384.516,
      "d": 692.3054999999986,
      "v": 100
    },
    {
      "midi": 66,
      "hit": false,
      "t": 31384.516,
      "d": 692.3054999999986,
      "v": 100
    },
    {
      "midi": 62,
      "hit": false,
      "t": 32076.8215,
      "d": 692.3055000000022,
      "v": 100
    },
    {
      "midi": 66,
      "hit": false,
      "t": 32076.8215,
      "d": 692.3055000000022,
      "v": 100
    },
    {
      "midi": 69,
      "hit": false,
      "t": 32076.8215,
      "d": 692.3055000000022,
      "v": 100
    },
    {
      "midi": 61,
      "hit": false,
      "t": 32769.127,
      "d": 1846.148000000001,
      "v": 100
    },
    {
      "midi": 64,
      "hit": false,
      "t": 32769.127,
      "d": 1846.148000000001,
      "v": 100
    },
    {
      "midi": 67,
      "hit": false,
      "t": 32769.127,
      "d": 1846.148000000001,
      "v": 100
    },
    {
      "midi": 71,
      "hit": false,
      "t": 32769.127,
      "d": 1846.148000000001,
      "v": 100
    },
    {
      "midi": 61,
      "hit": false,
      "t": 35076.812,
      "d": 692.3055000000022,
      "v": 100
    },
    {
      "midi": 66,
      "hit": false,
      "t": 35076.812,
      "d": 692.3055000000022,
      "v": 100
    },
    {
      "midi": 61,
      "hit": false,
      "t": 35769.1175,
      "d": 692.3055000000022,
      "v": 100
    },
    {
      "midi": 66,
      "hit": false,
      "t": 35769.1175,
      "d": 692.3055000000022,
      "v": 100
    },
    {
      "midi": 71,
      "hit": false,
      "t": 35769.1175,
      "d": 692.3055000000022,
      "v": 100
    },
    {
      "midi": 54,
      "hit": false,
      "t": 36922.96,
      "d": 1384.6109999999971,
      "v": 100
    },
    {
      "midi": 59,
      "hit": false,
      "t": 36922.96,
      "d": 1384.6109999999971,
      "v": 100
    },
    {
      "midi": 62,
      "hit": false,
      "t": 36922.96,
      "d": 1384.6109999999971,
      "v": 100
    },
    {
      "midi": 59,
      "hit": false,
      "t": 38769.10799999999,
      "d": 692.3055000000022,
      "v": 100
    },
    {
      "midi": 62,
      "hit": false,
      "t": 38769.10799999999,
      "d": 692.3055000000022,
      "v": 100
    },
    {
      "midi": 66,
      "hit": false,
      "t": 38769.10799999999,
      "d": 692.3055000000022,
      "v": 100
    },
    {
      "midi": 62,
      "hit": false,
      "t": 39461.413499999995,
      "d": 692.3055000000022,
      "v": 100
    },
    {
      "midi": 66,
      "hit": false,
      "t": 39461.413499999995,
      "d": 692.3055000000022,
      "v": 100
    },
    {
      "midi": 69,
      "hit": false,
      "t": 39461.413499999995,
      "d": 692.3055000000022,
      "v": 100
    },
    {
      "midi": 61,
      "hit": false,
      "t": 40153.719,
      "d": 1846.148000000001,
      "v": 100
    },
    {
      "midi": 64,
      "hit": false,
      "t": 40153.719,
      "d": 1846.148000000001,
      "v": 100
    },
    {
      "midi": 67,
      "hit": false,
      "t": 40153.719,
      "d": 1846.148000000001,
      "v": 100
    },
    {
      "midi": 71,
      "hit": false,
      "t": 40153.719,
      "d": 1846.148000000001,
      "v": 100
    },
    {
      "midi": 64,
      "hit": false,
      "t": 42461.403999999995,
      "d": 692.3055000000022,
      "v": 100
    },
    {
      "midi": 69,
      "hit": false,
      "t": 42461.403999999995,
      "d": 692.3055000000022,
      "v": 100
    },
    {
      "midi": 71,
      "hit": false,
      "t": 42461.403999999995,
      "d": 692.3055000000022,
      "v": 100
    },
    {
      "midi": 68,
      "hit": false,
      "t": 43153.7095,
      "d": 692.3055000000022,
      "v": 100
    },
    {
      "midi": 71,
      "hit": false,
      "t": 43153.7095,
      "d": 692.3055000000022,
      "v": 100
    },
    {
      "midi": 76,
      "hit": false,
      "t": 43153.7095,
      "d": 692.3055000000022,
      "v": 100
    },
    {
      "midi": 68,
      "hit": false,
      "t": 43846.015,
      "d": 461.5369999999966,
      "v": 100
    },
    {
      "midi": 71,
      "hit": false,
      "t": 43846.015,
      "d": 461.5369999999966,
      "v": 100
    },
    {
      "midi": 74,
      "hit": false,
      "t": 43846.015,
      "d": 461.5369999999966,
      "v": 100
    },
    {
      "midi": 78,
      "hit": false,
      "t": 43846.015,
      "d": 461.5369999999966,
      "v": 100
    },
    {
      "midi": 64,
      "hit": false,
      "t": 44307.551999999996,
      "d": 461.5369999999966,
      "v": 100
    },
    {
      "midi": 67,
      "hit": false,
      "t": 44307.551999999996,
      "d": 461.5369999999966,
      "v": 100
    },
    {
      "midi": 72,
      "hit": false,
      "t": 44307.551999999996,
      "d": 461.5369999999966,
      "v": 100
    },
    {
      "midi": 62,
      "hit": false,
      "t": 46153.69999999999,
      "d": 692.3055000000022,
      "v": 100
    },
    {
      "midi": 66,
      "hit": false,
      "t": 46153.69999999999,
      "d": 692.3055000000022,
      "v": 100
    },
    {
      "midi": 71,
      "hit": false,
      "t": 46153.69999999999,
      "d": 692.3055000000022,
      "v": 100
    },
    {
      "midi": 71,
      "hit": false,
      "t": 46846.00549999999,
      "d": 692.3055000000022,
      "v": 100
    },
    {
      "midi": 74,
      "hit": false,
      "t": 46846.00549999999,
      "d": 692.3055000000022,
      "v": 100
    },
    {
      "midi": 78,
      "hit": false,
      "t": 46846.00549999999,
      "d": 692.3055000000022,
      "v": 100
    },
    {
      "midi": 67,
      "hit": false,
      "t": 47538.310999999994,
      "d": 923.0740000000005,
      "v": 100
    },
    {
      "midi": 71,
      "hit": false,
      "t": 47538.310999999994,
      "d": 923.0740000000005,
      "v": 100
    },
    {
      "midi": 73,
      "hit": false,
      "t": 47538.310999999994,
      "d": 923.0740000000005,
      "v": 100
    },
    {
      "midi": 76,
      "hit": false,
      "t": 47538.310999999994,
      "d": 923.0740000000005,
      "v": 100
    },
    {
      "midi": 67,
      "hit": false,
      "t": 48461.384999999995,
      "d": 1384.6109999999971,
      "v": 100
    },
    {
      "midi": 71,
      "hit": false,
      "t": 48461.384999999995,
      "d": 1384.6109999999971,
      "v": 100
    },
    {
      "midi": 73,
      "hit": false,
      "t": 48461.384999999995,
      "d": 1384.6109999999971,
      "v": 100
    },
    {
      "midi": 76,
      "hit": false,
      "t": 48461.384999999995,
      "d": 1384.6109999999971,
      "v": 100
    },
    {
      "midi": 61,
      "hit": false,
      "t": 49845.99599999999,
      "d": 692.3055000000022,
      "v": 100
    },
    {
      "midi": 64,
      "hit": false,
      "t": 49845.99599999999,
      "d": 692.3055000000022,
      "v": 100
    },
    {
      "midi": 69,
      "hit": false,
      "t": 49845.99599999999,
      "d": 692.3055000000022,
      "v": 100
    },
    {
      "midi": 69,
      "hit": false,
      "t": 50538.301499999994,
      "d": 692.3055000000022,
      "v": 100
    },
    {
      "midi": 73,
      "hit": false,
      "t": 50538.301499999994,
      "d": 692.3055000000022,
      "v": 100
    },
    {
      "midi": 76,
      "hit": false,
      "t": 50538.301499999994,
      "d": 692.3055000000022,
      "v": 100
    },
    {
      "midi": 66,
      "hit": false,
      "t": 51230.606999999996,
      "d": 2307.6849999999977,
      "v": 100
    },
    {
      "midi": 69,
      "hit": false,
      "t": 51230.606999999996,
      "d": 2307.6849999999977,
      "v": 100
    },
    {
      "midi": 74,
      "hit": false,
      "t": 51230.606999999996,
      "d": 2307.6849999999977,
      "v": 100
    },
    {
      "midi": 62,
      "hit": false,
      "t": 53538.291999999994,
      "d": 692.3055000000022,
      "v": 100
    },
    {
      "midi": 66,
      "hit": false,
      "t": 53538.291999999994,
      "d": 692.3055000000022,
      "v": 100
    },
    {
      "midi": 71,
      "hit": false,
      "t": 53538.291999999994,
      "d": 692.3055000000022,
      "v": 100
    },
    {
      "midi": 71,
      "hit": false,
      "t": 54230.597499999996,
      "d": 692.3055000000022,
      "v": 100
    },
    {
      "midi": 74,
      "hit": false,
      "t": 54230.597499999996,
      "d": 692.3055000000022,
      "v": 100
    },
    {
      "midi": 78,
      "hit": false,
      "t": 54230.597499999996,
      "d": 692.3055000000022,
      "v": 100
    },
    {
      "midi": 67,
      "hit": false,
      "t": 54922.903,
      "d": 923.0740000000005,
      "v": 100
    },
    {
      "midi": 71,
      "hit": false,
      "t": 54922.903,
      "d": 923.0740000000005,
      "v": 100
    },
    {
      "midi": 73,
      "hit": false,
      "t": 54922.903,
      "d": 923.0740000000005,
      "v": 100
    },
    {
      "midi": 76,
      "hit": false,
      "t": 54922.903,
      "d": 923.0740000000005,
      "v": 100
    },
    {
      "midi": 67,
      "hit": false,
      "t": 55845.977,
      "d": 1384.6109999999971,
      "v": 100
    },
    {
      "midi": 71,
      "hit": false,
      "t": 55845.977,
      "d": 1384.6109999999971,
      "v": 100
    },
    {
      "midi": 73,
      "hit": false,
      "t": 55845.977,
      "d": 1384.6109999999971,
      "v": 100
    },
    {
      "midi": 76,
      "hit": false,
      "t": 55845.977,
      "d": 1384.6109999999971,
      "v": 100
    },
    {
      "midi": 61,
      "hit": false,
      "t": 57230.587999999996,
      "d": 692.3055000000022,
      "v": 100
    },
    {
      "midi": 64,
      "hit": false,
      "t": 57230.587999999996,
      "d": 692.3055000000022,
      "v": 100
    },
    {
      "midi": 69,
      "hit": false,
      "t": 57230.587999999996,
      "d": 692.3055000000022,
      "v": 100
    },
    {
      "midi": 61,
      "hit": false,
      "t": 57922.8935,
      "d": 1153.8424999999988,
      "v": 100
    },
    {
      "midi": 64,
      "hit": false,
      "t": 57922.8935,
      "d": 1153.8424999999988,
      "v": 100
    },
    {
      "midi": 69,
      "hit": false,
      "t": 57922.8935,
      "d": 1153.8424999999988,
      "v": 100
    },
    {
      "midi": 67,
      "hit": false,
      "t": 59076.736,
      "d": 692.3055000000022,
      "v": 100
    },
    {
      "midi": 72,
      "hit": false,
      "t": 59076.736,
      "d": 692.3055000000022,
      "v": 100
    },
    {
      "midi": 76,
      "hit": false,
      "t": 59076.736,
      "d": 692.3055000000022,
      "v": 100
    },
    {
      "midi": 62,
      "hit": false,
      "t": 60922.884,
      "d": 692.3055000000022,
      "v": 100
    },
    {
      "midi": 66,
      "hit": false,
      "t": 60922.884,
      "d": 692.3055000000022,
      "v": 100
    },
    {
      "midi": 71,
      "hit": false,
      "t": 60922.884,
      "d": 692.3055000000022,
      "v": 100
    },
    {
      "midi": 71,
      "hit": false,
      "t": 61615.1895,
      "d": 692.3055000000022,
      "v": 100
    },
    {
      "midi": 74,
      "hit": false,
      "t": 61615.1895,
      "d": 692.3055000000022,
      "v": 100
    },
    {
      "midi": 78,
      "hit": false,
      "t": 61615.1895,
      "d": 692.3055000000022,
      "v": 100
    },
    {
      "midi": 67,
      "hit": false,
      "t": 62307.495,
      "d": 923.0740000000005,
      "v": 100
    },
    {
      "midi": 71,
      "hit": false,
      "t": 62307.495,
      "d": 923.0740000000005,
      "v": 100
    },
    {
      "midi": 73,
      "hit": false,
      "t": 62307.495,
      "d": 923.0740000000005,
      "v": 100
    },
    {
      "midi": 76,
      "hit": false,
      "t": 62307.495,
      "d": 923.0740000000005,
      "v": 100
    },
    {
      "midi": 67,
      "hit": false,
      "t": 63230.569,
      "d": 1384.6109999999971,
      "v": 100
    },
    {
      "midi": 71,
      "hit": false,
      "t": 63230.569,
      "d": 1384.6109999999971,
      "v": 100
    },
    {
      "midi": 73,
      "hit": false,
      "t": 63230.569,
      "d": 1384.6109999999971,
      "v": 100
    },
    {
      "midi": 76,
      "hit": false,
      "t": 63230.569,
      "d": 1384.6109999999971,
      "v": 100
    },
    {
      "midi": 61,
      "hit": false,
      "t": 64615.18,
      "d": 692.3055000000022,
      "v": 100
    },
    {
      "midi": 64,
      "hit": false,
      "t": 64615.18,
      "d": 692.3055000000022,
      "v": 100
    },
    {
      "midi": 69,
      "hit": false,
      "t": 64615.18,
      "d": 692.3055000000022,
      "v": 100
    },
    {
      "midi": 69,
      "hit": false,
      "t": 65307.4855,
      "d": 692.3054999999949,
      "v": 100
    },
    {
      "midi": 73,
      "hit": false,
      "t": 65307.4855,
      "d": 692.3054999999949,
      "v": 100
    },
    {
      "midi": 76,
      "hit": false,
      "t": 65307.4855,
      "d": 692.3054999999949,
      "v": 100
    },
    {
      "midi": 66,
      "hit": false,
      "t": 65999.791,
      "d": 2307.6849999999977,
      "v": 100
    },
    {
      "midi": 69,
      "hit": false,
      "t": 65999.791,
      "d": 2307.6849999999977,
      "v": 100
    },
    {
      "midi": 74,
      "hit": false,
      "t": 65999.791,
      "d": 2307.6849999999977,
      "v": 100
    },
    {
      "midi": 62,
      "hit": false,
      "t": 68307.476,
      "d": 692.3055000000022,
      "v": 100
    },
    {
      "midi": 66,
      "hit": false,
      "t": 68307.476,
      "d": 692.3055000000022,
      "v": 100
    },
    {
      "midi": 71,
      "hit": false,
      "t": 68307.476,
      "d": 692.3055000000022,
      "v": 100
    },
    {
      "midi": 71,
      "hit": false,
      "t": 68999.7815,
      "d": 692.3055000000022,
      "v": 100
    },
    {
      "midi": 74,
      "hit": false,
      "t": 68999.7815,
      "d": 692.3055000000022,
      "v": 100
    },
    {
      "midi": 78,
      "hit": false,
      "t": 68999.7815,
      "d": 692.3055000000022,
      "v": 100
    },
    {
      "midi": 62,
      "hit": false,
      "t": 69692.087,
      "d": 3692.296000000002,
      "v": 100
    },
    {
      "midi": 66,
      "hit": false,
      "t": 69692.087,
      "d": 3692.296000000002,
      "v": 100
    },
    {
      "midi": 69,
      "hit": false,
      "t": 69692.087,
      "d": 3692.296000000002,
      "v": 100
    },
    {
      "midi": 71,
      "hit": false,
      "t": 69692.087,
      "d": 3692.296000000002,
      "v": 100
    },
    {
      "midi": 59,
      "hit": false,
      "t": 75692.068,
      "d": 692.3055000000022,
      "v": 100
    },
    {
      "midi": 62,
      "hit": false,
      "t": 75692.068,
      "d": 692.3055000000022,
      "v": 100
    },
    {
      "midi": 66,
      "hit": false,
      "t": 75692.068,
      "d": 692.3055000000022,
      "v": 100
    },
    {
      "midi": 62,
      "hit": false,
      "t": 76384.3735,
      "d": 692.3055000000022,
      "v": 100
    },
    {
      "midi": 66,
      "hit": false,
      "t": 76384.3735,
      "d": 692.3055000000022,
      "v": 100
    },
    {
      "midi": 69,
      "hit": false,
      "t": 76384.3735,
      "d": 692.3055000000022,
      "v": 100
    },
    {
      "midi": 61,
      "hit": false,
      "t": 77076.679,
      "d": 1846.148000000001,
      "v": 100
    },
    {
      "midi": 64,
      "hit": false,
      "t": 77076.679,
      "d": 1846.148000000001,
      "v": 100
    },
    {
      "midi": 67,
      "hit": false,
      "t": 77076.679,
      "d": 1846.148000000001,
      "v": 100
    },
    {
      "midi": 71,
      "hit": false,
      "t": 77076.679,
      "d": 1846.148000000001,
      "v": 100
    },
    {
      "midi": 61,
      "hit": false,
      "t": 79384.364,
      "d": 692.3055000000022,
      "v": 100
    },
    {
      "midi": 66,
      "hit": false,
      "t": 79384.364,
      "d": 692.3055000000022,
      "v": 100
    },
    {
      "midi": 61,
      "hit": false,
      "t": 80076.6695,
      "d": 692.3055000000022,
      "v": 100
    },
    {
      "midi": 66,
      "hit": false,
      "t": 80076.6695,
      "d": 692.3055000000022,
      "v": 100
    },
    {
      "midi": 71,
      "hit": false,
      "t": 80076.6695,
      "d": 692.3055000000022,
      "v": 100
    },
    {
      "midi": 54,
      "hit": false,
      "t": 81230.512,
      "d": 1384.6110000000044,
      "v": 100
    },
    {
      "midi": 59,
      "hit": false,
      "t": 81230.512,
      "d": 1384.6110000000044,
      "v": 100
    },
    {
      "midi": 62,
      "hit": false,
      "t": 81230.512,
      "d": 1384.6110000000044,
      "v": 100
    },
    {
      "midi": 59,
      "hit": false,
      "t": 83076.66,
      "d": 692.3055000000022,
      "v": 100
    },
    {
      "midi": 62,
      "hit": false,
      "t": 83076.66,
      "d": 692.3055000000022,
      "v": 100
    },
    {
      "midi": 66,
      "hit": false,
      "t": 83076.66,
      "d": 692.3055000000022,
      "v": 100
    },
    {
      "midi": 62,
      "hit": false,
      "t": 83768.9655,
      "d": 692.3055000000022,
      "v": 100
    },
    {
      "midi": 66,
      "hit": false,
      "t": 83768.9655,
      "d": 692.3055000000022,
      "v": 100
    },
    {
      "midi": 69,
      "hit": false,
      "t": 83768.9655,
      "d": 692.3055000000022,
      "v": 100
    },
    {
      "midi": 61,
      "hit": false,
      "t": 84461.27100000001,
      "d": 1846.148000000001,
      "v": 100
    },
    {
      "midi": 64,
      "hit": false,
      "t": 84461.27100000001,
      "d": 1846.148000000001,
      "v": 100
    },
    {
      "midi": 67,
      "hit": false,
      "t": 84461.27100000001,
      "d": 1846.148000000001,
      "v": 100
    },
    {
      "midi": 71,
      "hit": false,
      "t": 84461.27100000001,
      "d": 1846.148000000001,
      "v": 100
    },
    {
      "midi": 66,
      "hit": false,
      "t": 86768.956,
      "d": 692.3055000000022,
      "v": 100
    },
    {
      "midi": 69,
      "hit": false,
      "t": 86768.956,
      "d": 692.3055000000022,
      "v": 100
    },
    {
      "midi": 73,
      "hit": false,
      "t": 86768.956,
      "d": 692.3055000000022,
      "v": 100
    },
    {
      "midi": 61,
      "hit": false,
      "t": 87461.26150000001,
      "d": 1153.8424999999988,
      "v": 100
    },
    {
      "midi": 66,
      "hit": false,
      "t": 87461.26150000001,
      "d": 1153.8424999999988,
      "v": 100
    },
    {
      "midi": 69,
      "hit": false,
      "t": 87461.26150000001,
      "d": 1153.8424999999988,
      "v": 100
    },
    {
      "midi": 55,
      "hit": false,
      "t": 88615.104,
      "d": 923.0739999999932,
      "v": 100
    },
    {
      "midi": 60,
      "hit": false,
      "t": 88615.104,
      "d": 923.0739999999932,
      "v": 100
    },
    {
      "midi": 64,
      "hit": false,
      "t": 88615.104,
      "d": 923.0739999999932,
      "v": 100
    },
    {
      "midi": 54,
      "hit": false,
      "t": 89538.178,
      "d": 923.0739999999932,
      "v": 100
    },
    {
      "midi": 57,
      "hit": false,
      "t": 89538.178,
      "d": 923.0739999999932,
      "v": 100
    },
    {
      "midi": 60,
      "hit": false,
      "t": 89538.178,
      "d": 923.0739999999932,
      "v": 100
    },
    {
      "midi": 62,
      "hit": false,
      "t": 89538.178,
      "d": 923.0739999999932,
      "v": 100
    },
    {
      "midi": 59,
      "hit": false,
      "t": 90461.252,
      "d": 692.3055000000022,
      "v": 100
    },
    {
      "midi": 62,
      "hit": false,
      "t": 90461.252,
      "d": 692.3055000000022,
      "v": 100
    },
    {
      "midi": 66,
      "hit": false,
      "t": 90461.252,
      "d": 692.3055000000022,
      "v": 100
    },
    {
      "midi": 62,
      "hit": false,
      "t": 91153.5575,
      "d": 692.3055000000022,
      "v": 100
    },
    {
      "midi": 66,
      "hit": false,
      "t": 91153.5575,
      "d": 692.3055000000022,
      "v": 100
    },
    {
      "midi": 69,
      "hit": false,
      "t": 91153.5575,
      "d": 692.3055000000022,
      "v": 100
    },
    {
      "midi": 61,
      "hit": false,
      "t": 91845.863,
      "d": 1846.148000000001,
      "v": 100
    },
    {
      "midi": 64,
      "hit": false,
      "t": 91845.863,
      "d": 1846.148000000001,
      "v": 100
    },
    {
      "midi": 67,
      "hit": false,
      "t": 91845.863,
      "d": 1846.148000000001,
      "v": 100
    },
    {
      "midi": 71,
      "hit": false,
      "t": 91845.863,
      "d": 1846.148000000001,
      "v": 100
    },
    {
      "midi": 61,
      "hit": false,
      "t": 94153.548,
      "d": 692.3055000000022,
      "v": 100
    },
    {
      "midi": 66,
      "hit": false,
      "t": 94153.548,
      "d": 692.3055000000022,
      "v": 100
    },
    {
      "midi": 61,
      "hit": false,
      "t": 94845.8535,
      "d": 692.3055000000022,
      "v": 100
    },
    {
      "midi": 66,
      "hit": false,
      "t": 94845.8535,
      "d": 692.3055000000022,
      "v": 100
    },
    {
      "midi": 71,
      "hit": false,
      "t": 94845.8535,
      "d": 692.3055000000022,
      "v": 100
    },
    {
      "midi": 54,
      "hit": false,
      "t": 95999.696,
      "d": 1384.6110000000044,
      "v": 100
    },
    {
      "midi": 59,
      "hit": false,
      "t": 95999.696,
      "d": 1384.6110000000044,
      "v": 100
    },
    {
      "midi": 62,
      "hit": false,
      "t": 95999.696,
      "d": 1384.6110000000044,
      "v": 100
    },
    {
      "midi": 59,
      "hit": false,
      "t": 97845.844,
      "d": 692.3055000000022,
      "v": 100
    },
    {
      "midi": 62,
      "hit": false,
      "t": 97845.844,
      "d": 692.3055000000022,
      "v": 100
    },
    {
      "midi": 66,
      "hit": false,
      "t": 97845.844,
      "d": 692.3055000000022,
      "v": 100
    },
    {
      "midi": 62,
      "hit": false,
      "t": 98538.1495,
      "d": 692.3055000000022,
      "v": 100
    },
    {
      "midi": 66,
      "hit": false,
      "t": 98538.1495,
      "d": 692.3055000000022,
      "v": 100
    },
    {
      "midi": 69,
      "hit": false,
      "t": 98538.1495,
      "d": 692.3055000000022,
      "v": 100
    },
    {
      "midi": 61,
      "hit": false,
      "t": 99230.455,
      "d": 1846.148000000001,
      "v": 100
    },
    {
      "midi": 64,
      "hit": false,
      "t": 99230.455,
      "d": 1846.148000000001,
      "v": 100
    },
    {
      "midi": 67,
      "hit": false,
      "t": 99230.455,
      "d": 1846.148000000001,
      "v": 100
    },
    {
      "midi": 71,
      "hit": false,
      "t": 99230.455,
      "d": 1846.148000000001,
      "v": 100
    },
    {
      "midi": 64,
      "hit": false,
      "t": 101538.14,
      "d": 692.3055000000022,
      "v": 100
    },
    {
      "midi": 69,
      "hit": false,
      "t": 101538.14,
      "d": 692.3055000000022,
      "v": 100
    },
    {
      "midi": 71,
      "hit": false,
      "t": 101538.14,
      "d": 692.3055000000022,
      "v": 100
    },
    {
      "midi": 68,
      "hit": false,
      "t": 102230.4455,
      "d": 692.3055000000022,
      "v": 100
    },
    {
      "midi": 71,
      "hit": false,
      "t": 102230.4455,
      "d": 692.3055000000022,
      "v": 100
    },
    {
      "midi": 76,
      "hit": false,
      "t": 102230.4455,
      "d": 692.3055000000022,
      "v": 100
    },
    {
      "midi": 68,
      "hit": false,
      "t": 102922.751,
      "d": 461.5369999999966,
      "v": 100
    },
    {
      "midi": 71,
      "hit": false,
      "t": 102922.751,
      "d": 461.5369999999966,
      "v": 100
    },
    {
      "midi": 74,
      "hit": false,
      "t": 102922.751,
      "d": 461.5369999999966,
      "v": 100
    },
    {
      "midi": 78,
      "hit": false,
      "t": 102922.751,
      "d": 461.5369999999966,
      "v": 100
    },
    {
      "midi": 64,
      "hit": false,
      "t": 103384.288,
      "d": 461.5369999999966,
      "v": 100
    },
    {
      "midi": 67,
      "hit": false,
      "t": 103384.288,
      "d": 461.5369999999966,
      "v": 100
    },
    {
      "midi": 72,
      "hit": false,
      "t": 103384.288,
      "d": 461.5369999999966,
      "v": 100
    },
    {
      "midi": 62,
      "hit": false,
      "t": 105230.436,
      "d": 692.3055000000022,
      "v": 100
    },
    {
      "midi": 66,
      "hit": false,
      "t": 105230.436,
      "d": 692.3055000000022,
      "v": 100
    },
    {
      "midi": 71,
      "hit": false,
      "t": 105230.436,
      "d": 692.3055000000022,
      "v": 100
    },
    {
      "midi": 71,
      "hit": false,
      "t": 105922.7415,
      "d": 692.3055000000022,
      "v": 100
    },
    {
      "midi": 74,
      "hit": false,
      "t": 105922.7415,
      "d": 692.3055000000022,
      "v": 100
    },
    {
      "midi": 78,
      "hit": false,
      "t": 105922.7415,
      "d": 692.3055000000022,
      "v": 100
    },
    {
      "midi": 67,
      "hit": false,
      "t": 106615.047,
      "d": 923.0739999999932,
      "v": 100
    },
    {
      "midi": 71,
      "hit": false,
      "t": 106615.047,
      "d": 923.0739999999932,
      "v": 100
    },
    {
      "midi": 73,
      "hit": false,
      "t": 106615.047,
      "d": 923.0739999999932,
      "v": 100
    },
    {
      "midi": 76,
      "hit": false,
      "t": 106615.047,
      "d": 923.0739999999932,
      "v": 100
    },
    {
      "midi": 67,
      "hit": false,
      "t": 107538.121,
      "d": 1384.6110000000044,
      "v": 100
    },
    {
      "midi": 71,
      "hit": false,
      "t": 107538.121,
      "d": 1384.6110000000044,
      "v": 100
    },
    {
      "midi": 73,
      "hit": false,
      "t": 107538.121,
      "d": 1384.6110000000044,
      "v": 100
    },
    {
      "midi": 76,
      "hit": false,
      "t": 107538.121,
      "d": 1384.6110000000044,
      "v": 100
    },
    {
      "midi": 61,
      "hit": false,
      "t": 108922.732,
      "d": 692.3055000000022,
      "v": 100
    },
    {
      "midi": 64,
      "hit": false,
      "t": 108922.732,
      "d": 692.3055000000022,
      "v": 100
    },
    {
      "midi": 69,
      "hit": false,
      "t": 108922.732,
      "d": 692.3055000000022,
      "v": 100
    },
    {
      "midi": 69,
      "hit": false,
      "t": 109615.0375,
      "d": 692.3055000000022,
      "v": 100
    },
    {
      "midi": 73,
      "hit": false,
      "t": 109615.0375,
      "d": 692.3055000000022,
      "v": 100
    },
    {
      "midi": 76,
      "hit": false,
      "t": 109615.0375,
      "d": 692.3055000000022,
      "v": 100
    },
    {
      "midi": 66,
      "hit": false,
      "t": 110307.34300000001,
      "d": 2307.6849999999977,
      "v": 100
    },
    {
      "midi": 69,
      "hit": false,
      "t": 110307.34300000001,
      "d": 2307.6849999999977,
      "v": 100
    },
    {
      "midi": 74,
      "hit": false,
      "t": 110307.34300000001,
      "d": 2307.6849999999977,
      "v": 100
    },
    {
      "midi": 62,
      "hit": false,
      "t": 112615.028,
      "d": 692.3055000000022,
      "v": 100
    },
    {
      "midi": 66,
      "hit": false,
      "t": 112615.028,
      "d": 692.3055000000022,
      "v": 100
    },
    {
      "midi": 71,
      "hit": false,
      "t": 112615.028,
      "d": 692.3055000000022,
      "v": 100
    },
    {
      "midi": 71,
      "hit": false,
      "t": 113307.33350000001,
      "d": 692.3055000000022,
      "v": 100
    },
    {
      "midi": 74,
      "hit": false,
      "t": 113307.33350000001,
      "d": 692.3055000000022,
      "v": 100
    },
    {
      "midi": 78,
      "hit": false,
      "t": 113307.33350000001,
      "d": 692.3055000000022,
      "v": 100
    },
    {
      "midi": 67,
      "hit": false,
      "t": 113999.63900000001,
      "d": 923.0739999999932,
      "v": 100
    },
    {
      "midi": 71,
      "hit": false,
      "t": 113999.63900000001,
      "d": 923.0739999999932,
      "v": 100
    },
    {
      "midi": 73,
      "hit": false,
      "t": 113999.63900000001,
      "d": 923.0739999999932,
      "v": 100
    },
    {
      "midi": 76,
      "hit": false,
      "t": 113999.63900000001,
      "d": 923.0739999999932,
      "v": 100
    },
    {
      "midi": 67,
      "hit": false,
      "t": 114922.713,
      "d": 1384.6110000000044,
      "v": 100
    },
    {
      "midi": 71,
      "hit": false,
      "t": 114922.713,
      "d": 1384.6110000000044,
      "v": 100
    },
    {
      "midi": 73,
      "hit": false,
      "t": 114922.713,
      "d": 1384.6110000000044,
      "v": 100
    },
    {
      "midi": 76,
      "hit": false,
      "t": 114922.713,
      "d": 1384.6110000000044,
      "v": 100
    },
    {
      "midi": 61,
      "hit": false,
      "t": 116307.32400000001,
      "d": 692.3055000000022,
      "v": 100
    },
    {
      "midi": 64,
      "hit": false,
      "t": 116307.32400000001,
      "d": 692.3055000000022,
      "v": 100
    },
    {
      "midi": 69,
      "hit": false,
      "t": 116307.32400000001,
      "d": 692.3055000000022,
      "v": 100
    },
    {
      "midi": 61,
      "hit": false,
      "t": 116999.62950000001,
      "d": 1153.8424999999988,
      "v": 100
    },
    {
      "midi": 64,
      "hit": false,
      "t": 116999.62950000001,
      "d": 1153.8424999999988,
      "v": 100
    },
    {
      "midi": 69,
      "hit": false,
      "t": 116999.62950000001,
      "d": 1153.8424999999988,
      "v": 100
    },
    {
      "midi": 67,
      "hit": false,
      "t": 118153.47200000001,
      "d": 692.3055000000022,
      "v": 100
    },
    {
      "midi": 72,
      "hit": false,
      "t": 118153.47200000001,
      "d": 692.3055000000022,
      "v": 100
    },
    {
      "midi": 76,
      "hit": false,
      "t": 118153.47200000001,
      "d": 692.3055000000022,
      "v": 100
    },
    {
      "midi": 62,
      "hit": false,
      "t": 119999.62000000001,
      "d": 692.3055000000022,
      "v": 100
    },
    {
      "midi": 66,
      "hit": false,
      "t": 119999.62000000001,
      "d": 692.3055000000022,
      "v": 100
    },
    {
      "midi": 71,
      "hit": false,
      "t": 119999.62000000001,
      "d": 692.3055000000022,
      "v": 100
    },
    {
      "midi": 71,
      "hit": false,
      "t": 120691.92550000001,
      "d": 692.3055000000022,
      "v": 100
    },
    {
      "midi": 74,
      "hit": false,
      "t": 120691.92550000001,
      "d": 692.3055000000022,
      "v": 100
    },
    {
      "midi": 78,
      "hit": false,
      "t": 120691.92550000001,
      "d": 692.3055000000022,
      "v": 100
    },
    {
      "midi": 67,
      "hit": false,
      "t": 121384.23100000001,
      "d": 923.0739999999932,
      "v": 100
    },
    {
      "midi": 71,
      "hit": false,
      "t": 121384.23100000001,
      "d": 923.0739999999932,
      "v": 100
    },
    {
      "midi": 73,
      "hit": false,
      "t": 121384.23100000001,
      "d": 923.0739999999932,
      "v": 100
    },
    {
      "midi": 76,
      "hit": false,
      "t": 121384.23100000001,
      "d": 923.0739999999932,
      "v": 100
    },
    {
      "midi": 67,
      "hit": false,
      "t": 122307.30500000001,
      "d": 1384.6110000000044,
      "v": 100
    },
    {
      "midi": 71,
      "hit": false,
      "t": 122307.30500000001,
      "d": 1384.6110000000044,
      "v": 100
    },
    {
      "midi": 73,
      "hit": false,
      "t": 122307.30500000001,
      "d": 1384.6110000000044,
      "v": 100
    },
    {
      "midi": 76,
      "hit": false,
      "t": 122307.30500000001,
      "d": 1384.6110000000044,
      "v": 100
    },
    {
      "midi": 61,
      "hit": false,
      "t": 123691.91600000001,
      "d": 692.3055000000022,
      "v": 100
    },
    {
      "midi": 64,
      "hit": false,
      "t": 123691.91600000001,
      "d": 692.3055000000022,
      "v": 100
    },
    {
      "midi": 69,
      "hit": false,
      "t": 123691.91600000001,
      "d": 692.3055000000022,
      "v": 100
    },
    {
      "midi": 69,
      "hit": false,
      "t": 124384.22150000001,
      "d": 692.3055000000022,
      "v": 100
    },
    {
      "midi": 73,
      "hit": false,
      "t": 124384.22150000001,
      "d": 692.3055000000022,
      "v": 100
    },
    {
      "midi": 76,
      "hit": false,
      "t": 124384.22150000001,
      "d": 692.3055000000022,
      "v": 100
    },
    {
      "midi": 66,
      "hit": false,
      "t": 125076.52700000002,
      "d": 2307.6849999999977,
      "v": 100
    },
    {
      "midi": 69,
      "hit": false,
      "t": 125076.52700000002,
      "d": 2307.6849999999977,
      "v": 100
    },
    {
      "midi": 74,
      "hit": false,
      "t": 125076.52700000002,
      "d": 2307.6849999999977,
      "v": 100
    },
    {
      "midi": 62,
      "hit": false,
      "t": 127384.21200000001,
      "d": 692.3055000000022,
      "v": 100
    },
    {
      "midi": 66,
      "hit": false,
      "t": 127384.21200000001,
      "d": 692.3055000000022,
      "v": 100
    },
    {
      "midi": 71,
      "hit": false,
      "t": 127384.21200000001,
      "d": 692.3055000000022,
      "v": 100
    },
    {
      "midi": 71,
      "hit": false,
      "t": 128076.51750000002,
      "d": 692.3055000000022,
      "v": 100
    },
    {
      "midi": 74,
      "hit": false,
      "t": 128076.51750000002,
      "d": 692.3055000000022,
      "v": 100
    },
    {
      "midi": 78,
      "hit": false,
      "t": 128076.51750000002,
      "d": 692.3055000000022,
      "v": 100
    },
    {
      "midi": 62,
      "hit": false,
      "t": 128768.82300000002,
      "d": 3692.2959999999875,
      "v": 100
    },
    {
      "midi": 66,
      "hit": false,
      "t": 128768.82300000002,
      "d": 3692.2959999999875,
      "v": 100
    },
    {
      "midi": 69,
      "hit": false,
      "t": 128768.82300000002,
      "d": 3692.2959999999875,
      "v": 100
    },
    {
      "midi": 71,
      "hit": false,
      "t": 128768.82300000002,
      "d": 3692.2959999999875,
      "v": 100
    },
    {
      "midi": 62,
      "hit": false,
      "t": 134768.804,
      "d": 923.0739999999932,
      "v": 100
    },
    {
      "midi": 67,
      "hit": false,
      "t": 134768.804,
      "d": 923.0739999999932,
      "v": 100
    },
    {
      "midi": 69,
      "hit": false,
      "t": 134768.804,
      "d": 923.0739999999932,
      "v": 100
    },
    {
      "midi": 62,
      "hit": false,
      "t": 135691.878,
      "d": 923.0739999999932,
      "v": 100
    },
    {
      "midi": 67,
      "hit": false,
      "t": 135691.878,
      "d": 923.0739999999932,
      "v": 100
    },
    {
      "midi": 71,
      "hit": false,
      "t": 135691.878,
      "d": 923.0739999999932,
      "v": 100
    },
    {
      "midi": 62,
      "hit": false,
      "t": 136614.952,
      "d": 1846.1479999999865,
      "v": 100
    },
    {
      "midi": 67,
      "hit": false,
      "t": 136614.952,
      "d": 1846.1479999999865,
      "v": 100
    },
    {
      "midi": 69,
      "hit": false,
      "t": 136614.952,
      "d": 1846.1479999999865,
      "v": 100
    },
    {
      "midi": 62,
      "hit": false,
      "t": 138461.09999999998,
      "d": 923.0739999999932,
      "v": 100
    },
    {
      "midi": 66,
      "hit": false,
      "t": 138461.09999999998,
      "d": 923.0739999999932,
      "v": 100
    },
    {
      "midi": 69,
      "hit": false,
      "t": 138461.09999999998,
      "d": 923.0739999999932,
      "v": 100
    },
    {
      "midi": 62,
      "hit": false,
      "t": 139384.17399999997,
      "d": 692.3054999999877,
      "v": 100
    },
    {
      "midi": 66,
      "hit": false,
      "t": 139384.17399999997,
      "d": 692.3054999999877,
      "v": 100
    },
    {
      "midi": 69,
      "hit": false,
      "t": 139384.17399999997,
      "d": 692.3054999999877,
      "v": 100
    },
    {
      "midi": 62,
      "hit": false,
      "t": 140076.47949999996,
      "d": 1615.37950000001,
      "v": 100
    },
    {
      "midi": 66,
      "hit": false,
      "t": 140076.47949999996,
      "d": 1615.37950000001,
      "v": 100
    },
    {
      "midi": 69,
      "hit": false,
      "t": 140076.47949999996,
      "d": 1615.37950000001,
      "v": 100
    },
    {
      "midi": 62,
      "hit": false,
      "t": 142153.39599999998,
      "d": 923.0739999999932,
      "v": 100
    },
    {
      "midi": 67,
      "hit": false,
      "t": 142153.39599999998,
      "d": 923.0739999999932,
      "v": 100
    },
    {
      "midi": 69,
      "hit": false,
      "t": 142153.39599999998,
      "d": 923.0739999999932,
      "v": 100
    },
    {
      "midi": 62,
      "hit": false,
      "t": 143076.46999999997,
      "d": 923.0739999999932,
      "v": 100
    },
    {
      "midi": 67,
      "hit": false,
      "t": 143076.46999999997,
      "d": 923.0739999999932,
      "v": 100
    },
    {
      "midi": 71,
      "hit": false,
      "t": 143076.46999999997,
      "d": 923.0739999999932,
      "v": 100
    },
    {
      "midi": 62,
      "hit": false,
      "t": 143999.54399999997,
      "d": 1846.1479999999865,
      "v": 100
    },
    {
      "midi": 67,
      "hit": false,
      "t": 143999.54399999997,
      "d": 1846.1479999999865,
      "v": 100
    },
    {
      "midi": 69,
      "hit": false,
      "t": 143999.54399999997,
      "d": 1846.1479999999865,
      "v": 100
    },
    {
      "midi": 62,
      "hit": false,
      "t": 146307.22899999996,
      "d": 1384.6110000000044,
      "v": 100
    },
    {
      "midi": 66,
      "hit": false,
      "t": 146307.22899999996,
      "d": 1384.6110000000044,
      "v": 100
    },
    {
      "midi": 69,
      "hit": false,
      "t": 146307.22899999996,
      "d": 1384.6110000000044,
      "v": 100
    },
    {
      "midi": 57,
      "hit": false,
      "t": 147691.83999999997,
      "d": 1846.1479999999865,
      "v": 100
    },
    {
      "midi": 62,
      "hit": false,
      "t": 147691.83999999997,
      "d": 1846.1479999999865,
      "v": 100
    },
    {
      "midi": 66,
      "hit": false,
      "t": 147691.83999999997,
      "d": 1846.1479999999865,
      "v": 100
    },
    {
      "midi": 62,
      "hit": false,
      "t": 149537.98799999995,
      "d": 923.0739999999932,
      "v": 100
    },
    {
      "midi": 67,
      "hit": false,
      "t": 149537.98799999995,
      "d": 923.0739999999932,
      "v": 100
    },
    {
      "midi": 69,
      "hit": false,
      "t": 149537.98799999995,
      "d": 923.0739999999932,
      "v": 100
    },
    {
      "midi": 62,
      "hit": false,
      "t": 150461.06199999995,
      "d": 923.0739999999932,
      "v": 100
    },
    {
      "midi": 67,
      "hit": false,
      "t": 150461.06199999995,
      "d": 923.0739999999932,
      "v": 100
    },
    {
      "midi": 71,
      "hit": false,
      "t": 150461.06199999995,
      "d": 923.0739999999932,
      "v": 100
    },
    {
      "midi": 62,
      "hit": false,
      "t": 151384.13599999994,
      "d": 1846.1479999999865,
      "v": 100
    },
    {
      "midi": 67,
      "hit": false,
      "t": 151384.13599999994,
      "d": 1846.1479999999865,
      "v": 100
    },
    {
      "midi": 69,
      "hit": false,
      "t": 151384.13599999994,
      "d": 1846.1479999999865,
      "v": 100
    },
    {
      "midi": 62,
      "hit": false,
      "t": 153230.28399999993,
      "d": 923.0739999999932,
      "v": 100
    },
    {
      "midi": 66,
      "hit": false,
      "t": 153230.28399999993,
      "d": 923.0739999999932,
      "v": 100
    },
    {
      "midi": 69,
      "hit": false,
      "t": 153230.28399999993,
      "d": 923.0739999999932,
      "v": 100
    },
    {
      "midi": 62,
      "hit": false,
      "t": 154153.35799999992,
      "d": 692.3054999999877,
      "v": 100
    },
    {
      "midi": 66,
      "hit": false,
      "t": 154153.35799999992,
      "d": 692.3054999999877,
      "v": 100
    },
    {
      "midi": 69,
      "hit": false,
      "t": 154153.35799999992,
      "d": 692.3054999999877,
      "v": 100
    },
    {
      "midi": 62,
      "hit": false,
      "t": 154845.6634999999,
      "d": 1615.37950000001,
      "v": 100
    },
    {
      "midi": 66,
      "hit": false,
      "t": 154845.6634999999,
      "d": 1615.37950000001,
      "v": 100
    },
    {
      "midi": 69,
      "hit": false,
      "t": 154845.6634999999,
      "d": 1615.37950000001,
      "v": 100
    },
    {
      "midi": 71,
      "hit": false,
      "t": 156922.57999999993,
      "d": 1846.1479999999865,
      "v": 100
    },
    {
      "midi": 74,
      "hit": false,
      "t": 156922.57999999993,
      "d": 1846.1479999999865,
      "v": 100
    },
    {
      "midi": 78,
      "hit": false,
      "t": 156922.57999999993,
      "d": 1846.1479999999865,
      "v": 100
    },
    {
      "midi": 68,
      "hit": false,
      "t": 158768.72799999992,
      "d": 1384.6110000000044,
      "v": 100
    },
    {
      "midi": 71,
      "hit": false,
      "t": 158768.72799999992,
      "d": 1384.6110000000044,
      "v": 100
    },
    {
      "midi": 74,
      "hit": false,
      "t": 158768.72799999992,
      "d": 1384.6110000000044,
      "v": 100
    },
    {
      "midi": 67,
      "hit": false,
      "t": 160153.33899999992,
      "d": 2307.6849999999977,
      "v": 100
    },
    {
      "midi": 71,
      "hit": false,
      "t": 160153.33899999992,
      "d": 2307.6849999999977,
      "v": 100
    },
    {
      "midi": 74,
      "hit": false,
      "t": 160153.33899999992,
      "d": 2307.6849999999977,
      "v": 100
    },
    {
      "midi": 78,
      "hit": false,
      "t": 160153.33899999992,
      "d": 2307.6849999999977,
      "v": 100
    },
    {
      "midi": 64,
      "hit": false,
      "t": 162461.02399999992,
      "d": 461.5370000000112,
      "v": 100
    },
    {
      "midi": 67,
      "hit": false,
      "t": 162461.02399999992,
      "d": 461.5370000000112,
      "v": 100
    },
    {
      "midi": 72,
      "hit": false,
      "t": 162461.02399999992,
      "d": 461.5370000000112,
      "v": 100
    },
    {
      "midi": 62,
      "hit": false,
      "t": 164307.17199999993,
      "d": 692.3054999999877,
      "v": 100
    },
    {
      "midi": 66,
      "hit": false,
      "t": 164307.17199999993,
      "d": 692.3054999999877,
      "v": 100
    },
    {
      "midi": 71,
      "hit": false,
      "t": 164307.17199999993,
      "d": 692.3054999999877,
      "v": 100
    },
    {
      "midi": 71,
      "hit": false,
      "t": 164999.47749999992,
      "d": 692.3054999999877,
      "v": 100
    },
    {
      "midi": 74,
      "hit": false,
      "t": 164999.47749999992,
      "d": 692.3054999999877,
      "v": 100
    },
    {
      "midi": 78,
      "hit": false,
      "t": 164999.47749999992,
      "d": 692.3054999999877,
      "v": 100
    },
    {
      "midi": 67,
      "hit": false,
      "t": 165691.7829999999,
      "d": 923.0739999999932,
      "v": 100
    },
    {
      "midi": 71,
      "hit": false,
      "t": 165691.7829999999,
      "d": 923.0739999999932,
      "v": 100
    },
    {
      "midi": 73,
      "hit": false,
      "t": 165691.7829999999,
      "d": 923.0739999999932,
      "v": 100
    },
    {
      "midi": 76,
      "hit": false,
      "t": 165691.7829999999,
      "d": 923.0739999999932,
      "v": 100
    },
    {
      "midi": 67,
      "hit": false,
      "t": 166614.8569999999,
      "d": 1384.6110000000044,
      "v": 100
    },
    {
      "midi": 71,
      "hit": false,
      "t": 166614.8569999999,
      "d": 1384.6110000000044,
      "v": 100
    },
    {
      "midi": 73,
      "hit": false,
      "t": 166614.8569999999,
      "d": 1384.6110000000044,
      "v": 100
    },
    {
      "midi": 76,
      "hit": false,
      "t": 166614.8569999999,
      "d": 1384.6110000000044,
      "v": 100
    },
    {
      "midi": 61,
      "hit": false,
      "t": 167999.4679999999,
      "d": 692.3054999999877,
      "v": 100
    },
    {
      "midi": 64,
      "hit": false,
      "t": 167999.4679999999,
      "d": 692.3054999999877,
      "v": 100
    },
    {
      "midi": 69,
      "hit": false,
      "t": 167999.4679999999,
      "d": 692.3054999999877,
      "v": 100
    },
    {
      "midi": 69,
      "hit": false,
      "t": 168691.7734999999,
      "d": 692.3054999999877,
      "v": 100
    },
    {
      "midi": 73,
      "hit": false,
      "t": 168691.7734999999,
      "d": 692.3054999999877,
      "v": 100
    },
    {
      "midi": 76,
      "hit": false,
      "t": 168691.7734999999,
      "d": 692.3054999999877,
      "v": 100
    },
    {
      "midi": 66,
      "hit": false,
      "t": 169384.07899999988,
      "d": 2307.6849999999977,
      "v": 100
    },
    {
      "midi": 69,
      "hit": false,
      "t": 169384.07899999988,
      "d": 2307.6849999999977,
      "v": 100
    },
    {
      "midi": 74,
      "hit": false,
      "t": 169384.07899999988,
      "d": 2307.6849999999977,
      "v": 100
    },
    {
      "midi": 62,
      "hit": false,
      "t": 171691.76399999988,
      "d": 692.3054999999877,
      "v": 100
    },
    {
      "midi": 66,
      "hit": false,
      "t": 171691.76399999988,
      "d": 692.3054999999877,
      "v": 100
    },
    {
      "midi": 71,
      "hit": false,
      "t": 171691.76399999988,
      "d": 692.3054999999877,
      "v": 100
    },
    {
      "midi": 71,
      "hit": false,
      "t": 172384.06949999987,
      "d": 692.3054999999877,
      "v": 100
    },
    {
      "midi": 74,
      "hit": false,
      "t": 172384.06949999987,
      "d": 692.3054999999877,
      "v": 100
    },
    {
      "midi": 78,
      "hit": false,
      "t": 172384.06949999987,
      "d": 692.3054999999877,
      "v": 100
    },
    {
      "midi": 67,
      "hit": false,
      "t": 173076.37499999985,
      "d": 923.0739999999932,
      "v": 100
    },
    {
      "midi": 71,
      "hit": false,
      "t": 173076.37499999985,
      "d": 923.0739999999932,
      "v": 100
    },
    {
      "midi": 73,
      "hit": false,
      "t": 173076.37499999985,
      "d": 923.0739999999932,
      "v": 100
    },
    {
      "midi": 76,
      "hit": false,
      "t": 173076.37499999985,
      "d": 923.0739999999932,
      "v": 100
    },
    {
      "midi": 67,
      "hit": false,
      "t": 173999.44899999985,
      "d": 1384.6110000000044,
      "v": 100
    },
    {
      "midi": 71,
      "hit": false,
      "t": 173999.44899999985,
      "d": 1384.6110000000044,
      "v": 100
    },
    {
      "midi": 73,
      "hit": false,
      "t": 173999.44899999985,
      "d": 1384.6110000000044,
      "v": 100
    },
    {
      "midi": 76,
      "hit": false,
      "t": 173999.44899999985,
      "d": 1384.6110000000044,
      "v": 100
    },
    {
      "midi": 61,
      "hit": false,
      "t": 175384.05999999985,
      "d": 692.3054999999877,
      "v": 100
    },
    {
      "midi": 64,
      "hit": false,
      "t": 175384.05999999985,
      "d": 692.3054999999877,
      "v": 100
    },
    {
      "midi": 69,
      "hit": false,
      "t": 175384.05999999985,
      "d": 692.3054999999877,
      "v": 100
    },
    {
      "midi": 61,
      "hit": false,
      "t": 176076.36549999984,
      "d": 1153.8424999999988,
      "v": 100
    },
    {
      "midi": 64,
      "hit": false,
      "t": 176076.36549999984,
      "d": 1153.8424999999988,
      "v": 100
    },
    {
      "midi": 69,
      "hit": false,
      "t": 176076.36549999984,
      "d": 1153.8424999999988,
      "v": 100
    },
    {
      "midi": 67,
      "hit": false,
      "t": 177230.20799999984,
      "d": 692.3054999999877,
      "v": 100
    },
    {
      "midi": 72,
      "hit": false,
      "t": 177230.20799999984,
      "d": 692.3054999999877,
      "v": 100
    },
    {
      "midi": 76,
      "hit": false,
      "t": 177230.20799999984,
      "d": 692.3054999999877,
      "v": 100
    },
    {
      "midi": 62,
      "hit": false,
      "t": 179076.35599999983,
      "d": 692.3054999999877,
      "v": 100
    },
    {
      "midi": 66,
      "hit": false,
      "t": 179076.35599999983,
      "d": 692.3054999999877,
      "v": 100
    },
    {
      "midi": 71,
      "hit": false,
      "t": 179076.35599999983,
      "d": 692.3054999999877,
      "v": 100
    },
    {
      "midi": 71,
      "hit": false,
      "t": 179768.6614999998,
      "d": 692.3054999999877,
      "v": 100
    },
    {
      "midi": 74,
      "hit": false,
      "t": 179768.6614999998,
      "d": 692.3054999999877,
      "v": 100
    },
    {
      "midi": 78,
      "hit": false,
      "t": 179768.6614999998,
      "d": 692.3054999999877,
      "v": 100
    },
    {
      "midi": 67,
      "hit": false,
      "t": 180460.9669999998,
      "d": 923.0739999999932,
      "v": 100
    },
    {
      "midi": 71,
      "hit": false,
      "t": 180460.9669999998,
      "d": 923.0739999999932,
      "v": 100
    },
    {
      "midi": 73,
      "hit": false,
      "t": 180460.9669999998,
      "d": 923.0739999999932,
      "v": 100
    },
    {
      "midi": 76,
      "hit": false,
      "t": 180460.9669999998,
      "d": 923.0739999999932,
      "v": 100
    },
    {
      "midi": 67,
      "hit": false,
      "t": 181384.0409999998,
      "d": 1384.6110000000044,
      "v": 100
    },
    {
      "midi": 71,
      "hit": false,
      "t": 181384.0409999998,
      "d": 1384.6110000000044,
      "v": 100
    },
    {
      "midi": 73,
      "hit": false,
      "t": 181384.0409999998,
      "d": 1384.6110000000044,
      "v": 100
    },
    {
      "midi": 76,
      "hit": false,
      "t": 181384.0409999998,
      "d": 1384.6110000000044,
      "v": 100
    },
    {
      "midi": 61,
      "hit": false,
      "t": 182768.6519999998,
      "d": 692.3054999999877,
      "v": 100
    },
    {
      "midi": 64,
      "hit": false,
      "t": 182768.6519999998,
      "d": 692.3054999999877,
      "v": 100
    },
    {
      "midi": 69,
      "hit": false,
      "t": 182768.6519999998,
      "d": 692.3054999999877,
      "v": 100
    },
    {
      "midi": 69,
      "hit": false,
      "t": 183460.9574999998,
      "d": 692.3054999999877,
      "v": 100
    },
    {
      "midi": 73,
      "hit": false,
      "t": 183460.9574999998,
      "d": 692.3054999999877,
      "v": 100
    },
    {
      "midi": 76,
      "hit": false,
      "t": 183460.9574999998,
      "d": 692.3054999999877,
      "v": 100
    },
    {
      "midi": 66,
      "hit": false,
      "t": 184153.26299999977,
      "d": 2307.6849999999977,
      "v": 100
    },
    {
      "midi": 69,
      "hit": false,
      "t": 184153.26299999977,
      "d": 2307.6849999999977,
      "v": 100
    },
    {
      "midi": 74,
      "hit": false,
      "t": 184153.26299999977,
      "d": 2307.6849999999977,
      "v": 100
    },
    {
      "midi": 62,
      "hit": false,
      "t": 186460.94799999977,
      "d": 692.3054999999877,
      "v": 100
    },
    {
      "midi": 66,
      "hit": false,
      "t": 186460.94799999977,
      "d": 692.3054999999877,
      "v": 100
    },
    {
      "midi": 71,
      "hit": false,
      "t": 186460.94799999977,
      "d": 692.3054999999877,
      "v": 100
    },
    {
      "midi": 71,
      "hit": false,
      "t": 187153.25349999976,
      "d": 692.3054999999877,
      "v": 100
    },
    {
      "midi": 74,
      "hit": false,
      "t": 187153.25349999976,
      "d": 692.3054999999877,
      "v": 100
    },
    {
      "midi": 78,
      "hit": false,
      "t": 187153.25349999976,
      "d": 692.3054999999877,
      "v": 100
    },
    {
      "midi": 62,
      "hit": false,
      "t": 187845.55899999975,
      "d": 2307.6849999999977,
      "v": 100
    },
    {
      "midi": 66,
      "hit": false,
      "t": 187845.55899999975,
      "d": 2307.6849999999977,
      "v": 100
    },
    {
      "midi": 69,
      "hit": false,
      "t": 187845.55899999975,
      "d": 2307.6849999999977,
      "v": 100
    },
    {
      "midi": 71,
      "hit": false,
      "t": 187845.55899999975,
      "d": 2307.6849999999977,
      "v": 100
    },
    {
      "midi": 64,
      "hit": false,
      "t": 190153.24399999974,
      "d": 461.5370000000112,
      "v": 100
    },
    {
      "midi": 67,
      "hit": false,
      "t": 190153.24399999974,
      "d": 461.5370000000112,
      "v": 100
    },
    {
      "midi": 72,
      "hit": false,
      "t": 190153.24399999974,
      "d": 461.5370000000112,
      "v": 100
    },
    {
      "midi": 62,
      "hit": false,
      "t": 191999.39199999976,
      "d": 692.3054999999877,
      "v": 100
    },
    {
      "midi": 66,
      "hit": false,
      "t": 191999.39199999976,
      "d": 692.3054999999877,
      "v": 100
    },
    {
      "midi": 71,
      "hit": false,
      "t": 191999.39199999976,
      "d": 692.3054999999877,
      "v": 100
    },
    {
      "midi": 71,
      "hit": false,
      "t": 192691.69749999975,
      "d": 692.3054999999877,
      "v": 100
    },
    {
      "midi": 74,
      "hit": false,
      "t": 192691.69749999975,
      "d": 692.3054999999877,
      "v": 100
    },
    {
      "midi": 78,
      "hit": false,
      "t": 192691.69749999975,
      "d": 692.3054999999877,
      "v": 100
    },
    {
      "midi": 67,
      "hit": false,
      "t": 193384.00299999974,
      "d": 923.0739999999932,
      "v": 100
    },
    {
      "midi": 71,
      "hit": false,
      "t": 193384.00299999974,
      "d": 923.0739999999932,
      "v": 100
    },
    {
      "midi": 73,
      "hit": false,
      "t": 193384.00299999974,
      "d": 923.0739999999932,
      "v": 100
    },
    {
      "midi": 76,
      "hit": false,
      "t": 193384.00299999974,
      "d": 923.0739999999932,
      "v": 100
    },
    {
      "midi": 67,
      "hit": false,
      "t": 194307.07699999973,
      "d": 1384.6110000000044,
      "v": 100
    },
    {
      "midi": 71,
      "hit": false,
      "t": 194307.07699999973,
      "d": 1384.6110000000044,
      "v": 100
    },
    {
      "midi": 73,
      "hit": false,
      "t": 194307.07699999973,
      "d": 1384.6110000000044,
      "v": 100
    },
    {
      "midi": 76,
      "hit": false,
      "t": 194307.07699999973,
      "d": 1384.6110000000044,
      "v": 100
    },
    {
      "midi": 61,
      "hit": false,
      "t": 195691.68799999973,
      "d": 692.3054999999877,
      "v": 100
    },
    {
      "midi": 64,
      "hit": false,
      "t": 195691.68799999973,
      "d": 692.3054999999877,
      "v": 100
    },
    {
      "midi": 69,
      "hit": false,
      "t": 195691.68799999973,
      "d": 692.3054999999877,
      "v": 100
    },
    {
      "midi": 69,
      "hit": false,
      "t": 196383.99349999972,
      "d": 692.3054999999877,
      "v": 100
    },
    {
      "midi": 73,
      "hit": false,
      "t": 196383.99349999972,
      "d": 692.3054999999877,
      "v": 100
    },
    {
      "midi": 76,
      "hit": false,
      "t": 196383.99349999972,
      "d": 692.3054999999877,
      "v": 100
    },
    {
      "midi": 66,
      "hit": false,
      "t": 197076.2989999997,
      "d": 2307.6849999999977,
      "v": 100
    },
    {
      "midi": 69,
      "hit": false,
      "t": 197076.2989999997,
      "d": 2307.6849999999977,
      "v": 100
    },
    {
      "midi": 74,
      "hit": false,
      "t": 197076.2989999997,
      "d": 2307.6849999999977,
      "v": 100
    },
    {
      "midi": 62,
      "hit": false,
      "t": 199383.9839999997,
      "d": 692.3054999999877,
      "v": 100
    },
    {
      "midi": 66,
      "hit": false,
      "t": 199383.9839999997,
      "d": 692.3054999999877,
      "v": 100
    },
    {
      "midi": 71,
      "hit": false,
      "t": 199383.9839999997,
      "d": 692.3054999999877,
      "v": 100
    },
    {
      "midi": 71,
      "hit": false,
      "t": 200076.2894999997,
      "d": 692.3054999999877,
      "v": 100
    },
    {
      "midi": 74,
      "hit": false,
      "t": 200076.2894999997,
      "d": 692.3054999999877,
      "v": 100
    },
    {
      "midi": 78,
      "hit": false,
      "t": 200076.2894999997,
      "d": 692.3054999999877,
      "v": 100
    },
    {
      "midi": 67,
      "hit": false,
      "t": 200768.59499999968,
      "d": 923.0739999999932,
      "v": 100
    },
    {
      "midi": 71,
      "hit": false,
      "t": 200768.59499999968,
      "d": 923.0739999999932,
      "v": 100
    },
    {
      "midi": 73,
      "hit": false,
      "t": 200768.59499999968,
      "d": 923.0739999999932,
      "v": 100
    },
    {
      "midi": 76,
      "hit": false,
      "t": 200768.59499999968,
      "d": 923.0739999999932,
      "v": 100
    },
    {
      "midi": 67,
      "hit": false,
      "t": 201691.66899999967,
      "d": 1384.6110000000044,
      "v": 100
    },
    {
      "midi": 71,
      "hit": false,
      "t": 201691.66899999967,
      "d": 1384.6110000000044,
      "v": 100
    },
    {
      "midi": 73,
      "hit": false,
      "t": 201691.66899999967,
      "d": 1384.6110000000044,
      "v": 100
    },
    {
      "midi": 76,
      "hit": false,
      "t": 201691.66899999967,
      "d": 1384.6110000000044,
      "v": 100
    },
    {
      "midi": 61,
      "hit": false,
      "t": 203076.27999999968,
      "d": 692.3054999999877,
      "v": 100
    },
    {
      "midi": 64,
      "hit": false,
      "t": 203076.27999999968,
      "d": 692.3054999999877,
      "v": 100
    },
    {
      "midi": 69,
      "hit": false,
      "t": 203076.27999999968,
      "d": 692.3054999999877,
      "v": 100
    },
    {
      "midi": 61,
      "hit": false,
      "t": 203768.58549999967,
      "d": 1153.8424999999988,
      "v": 100
    },
    {
      "midi": 64,
      "hit": false,
      "t": 203768.58549999967,
      "d": 1153.8424999999988,
      "v": 100
    },
    {
      "midi": 69,
      "hit": false,
      "t": 203768.58549999967,
      "d": 1153.8424999999988,
      "v": 100
    },
    {
      "midi": 67,
      "hit": false,
      "t": 204922.42799999967,
      "d": 692.3054999999877,
      "v": 100
    },
    {
      "midi": 72,
      "hit": false,
      "t": 204922.42799999967,
      "d": 692.3054999999877,
      "v": 100
    },
    {
      "midi": 76,
      "hit": false,
      "t": 204922.42799999967,
      "d": 692.3054999999877,
      "v": 100
    },
    {
      "midi": 62,
      "hit": false,
      "t": 206768.57599999965,
      "d": 692.3054999999877,
      "v": 100
    },
    {
      "midi": 66,
      "hit": false,
      "t": 206768.57599999965,
      "d": 692.3054999999877,
      "v": 100
    },
    {
      "midi": 71,
      "hit": false,
      "t": 206768.57599999965,
      "d": 692.3054999999877,
      "v": 100
    },
    {
      "midi": 71,
      "hit": false,
      "t": 207460.88149999964,
      "d": 692.3054999999877,
      "v": 100
    },
    {
      "midi": 74,
      "hit": false,
      "t": 207460.88149999964,
      "d": 692.3054999999877,
      "v": 100
    },
    {
      "midi": 78,
      "hit": false,
      "t": 207460.88149999964,
      "d": 692.3054999999877,
      "v": 100
    },
    {
      "midi": 67,
      "hit": false,
      "t": 208153.18699999963,
      "d": 923.0739999999932,
      "v": 100
    },
    {
      "midi": 71,
      "hit": false,
      "t": 208153.18699999963,
      "d": 923.0739999999932,
      "v": 100
    },
    {
      "midi": 73,
      "hit": false,
      "t": 208153.18699999963,
      "d": 923.0739999999932,
      "v": 100
    },
    {
      "midi": 76,
      "hit": false,
      "t": 208153.18699999963,
      "d": 923.0739999999932,
      "v": 100
    },
    {
      "midi": 67,
      "hit": false,
      "t": 209076.26099999962,
      "d": 1384.6110000000044,
      "v": 100
    },
    {
      "midi": 71,
      "hit": false,
      "t": 209076.26099999962,
      "d": 1384.6110000000044,
      "v": 100
    },
    {
      "midi": 73,
      "hit": false,
      "t": 209076.26099999962,
      "d": 1384.6110000000044,
      "v": 100
    },
    {
      "midi": 76,
      "hit": false,
      "t": 209076.26099999962,
      "d": 1384.6110000000044,
      "v": 100
    },
    {
      "midi": 61,
      "hit": false,
      "t": 210460.87199999962,
      "d": 692.3054999999877,
      "v": 100
    },
    {
      "midi": 64,
      "hit": false,
      "t": 210460.87199999962,
      "d": 692.3054999999877,
      "v": 100
    },
    {
      "midi": 69,
      "hit": false,
      "t": 210460.87199999962,
      "d": 692.3054999999877,
      "v": 100
    },
    {
      "midi": 69,
      "hit": false,
      "t": 211153.1774999996,
      "d": 692.3054999999877,
      "v": 100
    },
    {
      "midi": 73,
      "hit": false,
      "t": 211153.1774999996,
      "d": 692.3054999999877,
      "v": 100
    },
    {
      "midi": 76,
      "hit": false,
      "t": 211153.1774999996,
      "d": 692.3054999999877,
      "v": 100
    },
    {
      "midi": 66,
      "hit": false,
      "t": 211845.4829999996,
      "d": 2307.6849999999977,
      "v": 100
    },
    {
      "midi": 69,
      "hit": false,
      "t": 211845.4829999996,
      "d": 2307.6849999999977,
      "v": 100
    },
    {
      "midi": 74,
      "hit": false,
      "t": 211845.4829999996,
      "d": 2307.6849999999977,
      "v": 100
    },
    {
      "midi": 62,
      "hit": false,
      "t": 214153.1679999996,
      "d": 692.3054999999877,
      "v": 100
    },
    {
      "midi": 66,
      "hit": false,
      "t": 214153.1679999996,
      "d": 692.3054999999877,
      "v": 100
    },
    {
      "midi": 71,
      "hit": false,
      "t": 214153.1679999996,
      "d": 692.3054999999877,
      "v": 100
    },
    {
      "midi": 71,
      "hit": false,
      "t": 214845.47349999959,
      "d": 692.3054999999877,
      "v": 100
    },
    {
      "midi": 74,
      "hit": false,
      "t": 214845.47349999959,
      "d": 692.3054999999877,
      "v": 100
    },
    {
      "midi": 78,
      "hit": false,
      "t": 214845.47349999959,
      "d": 692.3054999999877,
      "v": 100
    },
    {
      "midi": 62,
      "hit": false,
      "t": 215537.77899999957,
      "d": 3692.296000000002,
      "v": 100
    },
    {
      "midi": 66,
      "hit": false,
      "t": 215537.77899999957,
      "d": 3692.296000000002,
      "v": 100
    },
    {
      "midi": 69,
      "hit": false,
      "t": 215537.77899999957,
      "d": 3692.296000000002,
      "v": 100
    },
    {
      "midi": 71,
      "hit": false,
      "t": 215537.77899999957,
      "d": 3692.296000000002,
      "v": 100
    }
  ]
}