{
  "jsonPath": "Soul/R&B/Mariah Carey/the-roof.json",
  "path": "Soul\\R&B\\Mariah Carey\\The Roof.mid",
  "name": "The Roof",
  "difficulty": "Advanced",
  "bpm": 90.00009000009,
  "notes": [
    {
      "midi": 59,
      "hit": false,
      "t": 1499.9985000000001,
      "d": 166.66650000000004,
      "v": 100
    },
    {
      "midi": 62,
      "hit": false,
      "t": 1666.6650000000002,
      "d": 166.66650000000004,
      "v": 100
    },
    {
      "midi": 59,
      "hit": false,
      "t": 1833.3315000000002,
      "d": 166.66650000000004,
      "v": 100
    },
    {
      "midi": 62,
      "hit": false,
      "t": 1999.9980000000003,
      "d": 333.33299999999986,
      "v": 100
    },
    {
      "midi": 59,
      "hit": false,
      "t": 2333.331,
      "d": 333.3330000000001,
      "v": 100
    },
    {
      "midi": 62,
      "hit": false,
      "t": 2666.664,
      "d": 666.6660000000002,
      "v": 100
    },
    {
      "midi": 64,
      "hit": false,
      "t": 2666.664,
      "d": 666.6660000000002,
      "v": 100
    },
    {
      "midi": 47,
      "hit": false,
      "t": 2666.664,
      "d": 666.6660000000002,
      "v": 100
    },
    {
      "midi": 54,
      "hit": false,
      "t": 3333.3300000000004,
      "d": 666.6660000000002,
      "v": 100
    },
    {
      "midi": 59,
      "hit": false,
      "t": 3999.9960000000005,
      "d": 999.9990000000003,
      "v": 100
    },
    {
      "midi": 59,
      "hit": false,
      "t": 4166.6625,
      "d": 166.66650000000027,
      "v": 100
    },
    {
      "midi": 62,
      "hit": false,
      "t": 4333.329000000001,
      "d": 166.66650000000027,
      "v": 100
    },
    {
      "midi": 59,
      "hit": false,
      "t": 4499.995500000001,
      "d": 166.66650000000027,
      "v": 100
    },
    {
      "midi": 62,
      "hit": false,
      "t": 4666.662000000001,
      "d": 166.66650000000027,
      "v": 100
    },
    {
      "midi": 59,
      "hit": false,
      "t": 4833.328500000001,
      "d": 166.66650000000027,
      "v": 100
    },
    {
      "midi": 59,
      "hit": false,
      "t": 4999.995000000001,
      "d": 333.33299999999963,
      "v": 100
    },
    {
      "midi": 62,
      "hit": false,
      "t": 4999.995000000002,
      "d": 333.33299999999963,
      "v": 100
    },
    {
      "midi": 64,
      "hit": false,
      "t": 4999.995000000002,
      "d": 333.33299999999963,
      "v": 100
    },
    {
      "midi": 43,
      "hit": false,
      "t": 5333.328,
      "d": 666.6660000000002,
      "v": 100
    },
    {
      "midi": 59,
      "hit": false,
      "t": 5666.661000000001,
      "d": 333.33299999999963,
      "v": 100
    },
    {
      "midi": 66,
      "hit": false,
      "t": 5666.661000000001,
      "d": 333.33299999999963,
      "v": 100
    },
    {
      "midi": 50,
      "hit": false,
      "t": 5999.994000000001,
      "d": 666.6660000000002,
      "v": 100
    },
    {
      "midi": 55,
      "hit": false,
      "t": 6666.660000000001,
      "d": 999.9989999999998,
      "v": 100
    },
    {
      "midi": 62,
      "hit": false,
      "t": 6999.993,
      "d": 333.33299999999963,
      "v": 100
    },
    {
      "midi": 64,
      "hit": false,
      "t": 7333.326,
      "d": 333.33299999999963,
      "v": 100
    },
    {
      "midi": 59,
      "hit": false,
      "t": 7666.659,
      "d": 333.33299999999963,
      "v": 100
    },
    {
      "midi": 62,
      "hit": false,
      "t": 7666.659,
      "d": 333.33299999999963,
      "v": 100
    },
    {
      "midi": 55,
      "hit": false,
      "t": 7666.659000000001,
      "d": 333.33299999999963,
      "v": 100
    },
    {
      "midi": 62,
      "hit": false,
      "t": 7999.991999999999,
      "d": 333.33299999999963,
      "v": 100
    },
    {
      "midi": 66,
      "hit": false,
      "t": 7999.991999999999,
      "d": 333.33299999999963,
      "v": 100
    },
    {
      "midi": 47,
      "hit": false,
      "t": 7999.992,
      "d": 666.6659999999993,
      "v": 100
    },
    {
      "midi": 67,
      "hit": false,
      "t": 8333.324999999999,
      "d": 333.33300000000054,
      "v": 100
    },
    {
      "midi": 66,
      "hit": false,
      "t": 8666.658,
      "d": 333.33300000000054,
      "v": 100
    },
    {
      "midi": 54,
      "hit": false,
      "t": 8666.658,
      "d": 666.6659999999993,
      "v": 100
    },
    {
      "midi": 64,
      "hit": false,
      "t": 8999.991,
      "d": 333.33300000000054,
      "v": 100
    },
    {
      "midi": 59,
      "hit": false,
      "t": 9333.323999999999,
      "d": 999.9989999999998,
      "v": 100
    },
    {
      "midi": 62,
      "hit": false,
      "t": 9333.324,
      "d": 333.33300000000054,
      "v": 100
    },
    {
      "midi": 59,
      "hit": false,
      "t": 9666.657000000001,
      "d": 333.33300000000054,
      "v": 100
    },
    {
      "midi": 57,
      "hit": false,
      "t": 9999.990000000002,
      "d": 333.33300000000054,
      "v": 100
    },
    {
      "midi": 59,
      "hit": false,
      "t": 10333.322999999999,
      "d": 333.33300000000054,
      "v": 100
    },
    {
      "midi": 62,
      "hit": false,
      "t": 10333.323000000002,
      "d": 333.33300000000054,
      "v": 100
    },
    {
      "midi": 66,
      "hit": false,
      "t": 10333.323000000002,
      "d": 333.33300000000054,
      "v": 100
    },
    {
      "midi": 43,
      "hit": false,
      "t": 10666.655999999999,
      "d": 666.6659999999993,
      "v": 100
    },
    {
      "midi": 59,
      "hit": false,
      "t": 10666.656000000003,
      "d": 499.9994999999999,
      "v": 100
    },
    {
      "midi": 66,
      "hit": false,
      "t": 10666.656000000003,
      "d": 499.9994999999999,
      "v": 100
    },
    {
      "midi": 64,
      "hit": false,
      "t": 11166.655500000003,
      "d": 166.66649999999936,
      "v": 100
    },
    {
      "midi": 50,
      "hit": false,
      "t": 11333.321999999998,
      "d": 666.6659999999993,
      "v": 100
    },
    {
      "midi": 62,
      "hit": false,
      "t": 11333.322000000002,
      "d": 666.6659999999993,
      "v": 100
    },
    {
      "midi": 55,
      "hit": false,
      "t": 11999.987999999998,
      "d": 999.9989999999998,
      "v": 100
    },
    {
      "midi": 59,
      "hit": false,
      "t": 12333.321000000002,
      "d": 166.66649999999936,
      "v": 100
    },
    {
      "midi": 59,
      "hit": false,
      "t": 12499.987500000001,
      "d": 166.66649999999936,
      "v": 100
    },
    {
      "midi": 62,
      "hit": false,
      "t": 12666.654,
      "d": 166.66649999999936,
      "v": 100
    },
    {
      "midi": 59,
      "hit": false,
      "t": 12833.3205,
      "d": 166.66649999999936,
      "v": 100
    },
    {
      "midi": 55,
      "hit": false,
      "t": 12999.986999999997,
      "d": 333.33300000000054,
      "v": 100
    },
    {
      "midi": 62,
      "hit": false,
      "t": 12999.987,
      "d": 333.33300000000054,
      "v": 100
    },
    {
      "midi": 64,
      "hit": false,
      "t": 12999.987,
      "d": 333.33300000000054,
      "v": 100
    },
    {
      "midi": 47,
      "hit": false,
      "t": 13333.319999999998,
      "d": 666.6659999999993,
      "v": 100
    },
    {
      "midi": 59,
      "hit": false,
      "t": 13666.653,
      "d": 333.33300000000054,
      "v": 100
    },
    {
      "midi": 66,
      "hit": false,
      "t": 13666.653,
      "d": 333.33300000000054,
      "v": 100
    },
    {
      "midi": 54,
      "hit": false,
      "t": 13999.985999999997,
      "d": 666.6659999999993,
      "v": 100
    },
    {
      "midi": 64,
      "hit": false,
      "t": 13999.986,
      "d": 666.6659999999993,
      "v": 100
    },
    {
      "midi": 59,
      "hit": false,
      "t": 14666.651999999996,
      "d": 999.9989999999998,
      "v": 100
    },
    {
      "midi": 59,
      "hit": false,
      "t": 14833.3185,
      "d": 166.66649999999936,
      "v": 100
    },
    {
      "midi": 62,
      "hit": false,
      "t": 14999.984999999999,
      "d": 166.66649999999936,
      "v": 100
    },
    {
      "midi": 59,
      "hit": false,
      "t": 15166.651499999998,
      "d": 166.66649999999936,
      "v": 100
    },
    {
      "midi": 62,
      "hit": false,
      "t": 15333.317999999997,
      "d": 166.66649999999936,
      "v": 100
    },
    {
      "midi": 59,
      "hit": false,
      "t": 15499.984499999997,
      "d": 166.66649999999936,
      "v": 100
    },
    {
      "midi": 62,
      "hit": false,
      "t": 15666.650999999996,
      "d": 333.33300000000054,
      "v": 100
    },
    {
      "midi": 64,
      "hit": false,
      "t": 15666.650999999996,
      "d": 333.33300000000054,
      "v": 100
    },
    {
      "midi": 59,
      "hit": false,
      "t": 15666.650999999996,
      "d": 333.33300000000054,
      "v": 100
    },
    {
      "midi": 43,
      "hit": false,
      "t": 15999.983999999997,
      "d": 666.6660000000011,
      "v": 100
    },
    {
      "midi": 66,
      "hit": false,
      "t": 16333.316999999997,
      "d": 333.33300000000054,
      "v": 100
    },
    {
      "midi": 59,
      "hit": false,
      "t": 16666.649999999998,
      "d": 666.6660000000011,
      "v": 100
    },
    {
      "midi": 64,
      "hit": false,
      "t": 16666.649999999998,
      "d": 666.6660000000011,
      "v": 100
    },
    {
      "midi": 50,
      "hit": false,
      "t": 16666.649999999998,
      "d": 666.6660000000011,
      "v": 100
    },
    {
      "midi": 55,
      "hit": false,
      "t": 17333.316,
      "d": 999.9989999999998,
      "v": 100
    },
    {
      "midi": 62,
      "hit": false,
      "t": 17999.982,
      "d": 333.3329999999987,
      "v": 100
    },
    {
      "midi": 64,
      "hit": false,
      "t": 18333.315,
      "d": 333.3329999999987,
      "v": 100
    },
    {
      "midi": 55,
      "hit": false,
      "t": 18333.315,
      "d": 333.3329999999987,
      "v": 100
    },
    {
      "midi": 62,
      "hit": false,
      "t": 18666.647999999997,
      "d": 333.3329999999987,
      "v": 100
    },
    {
      "midi": 66,
      "hit": false,
      "t": 18666.647999999997,
      "d": 333.3329999999987,
      "v": 100
    },
    {
      "midi": 47,
      "hit": false,
      "t": 18666.647999999997,
      "d": 666.6660000000011,
      "v": 100
    },
    {
      "midi": 67,
      "hit": false,
      "t": 18999.980999999996,
      "d": 333.3329999999987,
      "v": 100
    },
    {
      "midi": 59,
      "hit": false,
      "t": 19333.313999999995,
      "d": 333.3329999999987,
      "v": 100
    },
    {
      "midi": 66,
      "hit": false,
      "t": 19333.313999999995,
      "d": 333.3329999999987,
      "v": 100
    },
    {
      "midi": 54,
      "hit": false,
      "t": 19333.314,
      "d": 666.6660000000011,
      "v": 100
    },
    {
      "midi": 69,
      "hit": false,
      "t": 19666.646999999994,
      "d": 333.3329999999987,
      "v": 100
    },
    {
      "midi": 62,
      "hit": false,
      "t": 19999.979999999992,
      "d": 333.3329999999987,
      "v": 100
    },
    {
      "midi": 66,
      "hit": false,
      "t": 19999.979999999992,
      "d": 333.3329999999987,
      "v": 100
    },
    {
      "midi": 59,
      "hit": false,
      "t": 19999.98,
      "d": 999.9989999999998,
      "v": 100
    },
    {
      "midi": 59,
      "hit": false,
      "t": 20333.31299999999,
      "d": 166.66649999999936,
      "v": 100
    },
    {
      "midi": 62,
      "hit": false,
      "t": 20499.97949999999,
      "d": 499.9995000000017,
      "v": 100
    },
    {
      "midi": 64,
      "hit": false,
      "t": 20999.978999999992,
      "d": 333.3329999999987,
      "v": 100
    },
    {
      "midi": 59,
      "hit": false,
      "t": 20999.979,
      "d": 333.3329999999987,
      "v": 100
    },
    {
      "midi": 59,
      "hit": false,
      "t": 21333.31199999999,
      "d": 333.3329999999987,
      "v": 100
    },
    {
      "midi": 66,
      "hit": false,
      "t": 21333.31199999999,
      "d": 333.3329999999987,
      "v": 100
    },
    {
      "midi": 43,
      "hit": false,
      "t": 21333.311999999998,
      "d": 666.6660000000011,
      "v": 100
    },
    {
      "midi": 67,
      "hit": false,
      "t": 21666.64499999999,
      "d": 166.66649999999936,
      "v": 100
    },
    {
      "midi": 66,
      "hit": false,
      "t": 21833.31149999999,
      "d": 499.9995000000017,
      "v": 100
    },
    {
      "midi": 50,
      "hit": false,
      "t": 21999.978,
      "d": 666.6660000000011,
      "v": 100
    },
    {
      "midi": 64,
      "hit": false,
      "t": 22333.31099999999,
      "d": 333.3329999999987,
      "v": 100
    },
    {
      "midi": 62,
      "hit": false,
      "t": 22666.64399999999,
      "d": 333.3329999999987,
      "v": 100
    },
    {
      "midi": 64,
      "hit": false,
      "t": 22666.64399999999,
      "d": 333.3329999999987,
      "v": 100
    },
    {
      "midi": 55,
      "hit": false,
      "t": 22666.644,
      "d": 999.9989999999998,
      "v": 100
    },
    {
      "midi": 59,
      "hit": false,
      "t": 22999.976999999988,
      "d": 333.3329999999987,
      "v": 100
    },
    {
      "midi": 62,
      "hit": false,
      "t": 22999.976999999988,
      "d": 333.3329999999987,
      "v": 100
    },
    {
      "midi": 62,
      "hit": false,
      "t": 23333.309999999987,
      "d": 333.3329999999987,
      "v": 100
    },
    {
      "midi": 59,
      "hit": false,
      "t": 23666.642999999985,
      "d": 333.3329999999987,
      "v": 100
    },
    {
      "midi": 61,
      "hit": false,
      "t": 23666.642999999985,
      "d": 333.3329999999987,
      "v": 100
    },
    {
      "midi": 55,
      "hit": false,
      "t": 23666.643,
      "d": 333.3329999999987,
      "v": 100
    },
    {
      "midi": 61,
      "hit": false,
      "t": 23999.975999999984,
      "d": 666.6660000000011,
      "v": 100
    },
    {
      "midi": 43,
      "hit": false,
      "t": 23999.976,
      "d": 666.6660000000011,
      "v": 100
    },
    {
      "midi": 59,
      "hit": false,
      "t": 24666.641999999985,
      "d": 666.6660000000011,
      "v": 100
    },
    {
      "midi": 50,
      "hit": false,
      "t": 24666.642,
      "d": 666.6660000000011,
      "v": 100
    },
    {
      "midi": 55,
      "hit": false,
      "t": 25333.308,
      "d": 999.9989999999998,
      "v": 100
    },
    {
      "midi": 59,
      "hit": false,
      "t": 25666.640999999985,
      "d": 333.3329999999987,
      "v": 100
    },
    {
      "midi": 62,
      "hit": false,
      "t": 25666.640999999985,
      "d": 333.3329999999987,
      "v": 100
    },
    {
      "midi": 66,
      "hit": false,
      "t": 25999.973999999984,
      "d": 333.3329999999987,
      "v": 100
    },
    {
      "midi": 59,
      "hit": false,
      "t": 26333.306999999983,
      "d": 333.3329999999987,
      "v": 100
    },
    {
      "midi": 64,
      "hit": false,
      "t": 26333.306999999983,
      "d": 333.3329999999987,
      "v": 100
    },
    {
      "midi": 55,
      "hit": false,
      "t": 26333.307,
      "d": 333.3329999999987,
      "v": 100
    },
    {
      "midi": 57,
      "hit": false,
      "t": 26666.63999999998,
      "d": 333.3329999999987,
      "v": 100
    },
    {
      "midi": 61,
      "hit": false,
      "t": 26666.63999999998,
      "d": 333.3329999999987,
      "v": 100
    },
    {
      "midi": 42,
      "hit": false,
      "t": 26666.64,
      "d": 666.6660000000011,
      "v": 100
    },
    {
      "midi": 61,
      "hit": false,
      "t": 26999.97299999998,
      "d": 166.66649999999936,
      "v": 100
    },
    {
      "midi": 61,
      "hit": false,
      "t": 27166.63949999998,
      "d": 166.66649999999936,
      "v": 100
    },
    {
      "midi": 49,
      "hit": false,
      "t": 27333.306,
      "d": 666.6660000000011,
      "v": 100
    },
    {
      "midi": 54,
      "hit": false,
      "t": 27666.638999999977,
      "d": 333.3329999999987,
      "v": 100
    },
    {
      "midi": 61,
      "hit": false,
      "t": 27999.971999999976,
      "d": 333.3329999999987,
      "v": 100
    },
    {
      "midi": 54,
      "hit": false,
      "t": 27999.972,
      "d": 999.9989999999998,
      "v": 100
    },
    {
      "midi": 62,
      "hit": false,
      "t": 28333.304999999975,
      "d": 166.66649999999936,
      "v": 100
    },
    {
      "midi": 61,
      "hit": false,
      "t": 28499.971499999974,
      "d": 666.6660000000011,
      "v": 100
    },
    {
      "midi": 64,
      "hit": false,
      "t": 28499.971499999974,
      "d": 666.6660000000011,
      "v": 100
    },
    {
      "midi": 54,
      "hit": false,
      "t": 28999.971,
      "d": 333.3329999999987,
      "v": 100
    },
    {
      "midi": 59,
      "hit": false,
      "t": 29333.303999999975,
      "d": 666.6660000000011,
      "v": 100
    },
    {
      "midi": 62,
      "hit": false,
      "t": 29333.303999999975,
      "d": 666.6660000000011,
      "v": 100
    },
    {
      "midi": 43,
      "hit": false,
      "t": 29333.304,
      "d": 666.6660000000011,
      "v": 100
    },
    {
      "midi": 50,
      "hit": false,
      "t": 29999.97,
      "d": 666.6660000000011,
      "v": 100
    },
    {
      "midi": 55,
      "hit": false,
      "t": 30666.636000000002,
      "d": 999.9989999999998,
      "v": 100
    },
    {
      "midi": 59,
      "hit": false,
      "t": 30999.968999999975,
      "d": 333.3329999999987,
      "v": 100
    },
    {
      "midi": 66,
      "hit": false,
      "t": 31333.301999999974,
      "d": 333.3329999999987,
      "v": 100
    },
    {
      "midi": 59,
      "hit": false,
      "t": 31666.634999999973,
      "d": 333.3329999999987,
      "v": 100
    },
    {
      "midi": 64,
      "hit": false,
      "t": 31666.634999999973,
      "d": 333.3329999999987,
      "v": 100
    },
    {
      "midi": 55,
      "hit": false,
      "t": 31666.635000000002,
      "d": 333.3329999999987,
      "v": 100
    },
    {
      "midi": 57,
      "hit": false,
      "t": 31999.96799999997,
      "d": 333.3329999999987,
      "v": 100
    },
    {
      "midi": 61,
      "hit": false,
      "t": 31999.96799999997,
      "d": 333.3329999999987,
      "v": 100
    },
    {
      "midi": 42,
      "hit": false,
      "t": 31999.968,
      "d": 666.6660000000011,
      "v": 100
    },
    {
      "midi": 61,
      "hit": false,
      "t": 32333.30099999997,
      "d": 166.66649999999936,
      "v": 100
    },
    {
      "midi": 61,
      "hit": false,
      "t": 32499.96749999997,
      "d": 166.66649999999936,
      "v": 100
    },
    {
      "midi": 49,
      "hit": false,
      "t": 32666.634000000002,
      "d": 666.6660000000011,
      "v": 100
    },
    {
      "midi": 54,
      "hit": false,
      "t": 32999.96699999997,
      "d": 333.3329999999987,
      "v": 100
    },
    {
      "midi": 57,
      "hit": false,
      "t": 33333.29999999997,
      "d": 333.3329999999987,
      "v": 100
    },
    {
      "midi": 61,
      "hit": false,
      "t": 33333.29999999997,
      "d": 333.3329999999987,
      "v": 100
    },
    {
      "midi": 54,
      "hit": false,
      "t": 33333.3,
      "d": 999.9990000000034,
      "v": 100
    },
    {
      "midi": 62,
      "hit": false,
      "t": 33666.632999999965,
      "d": 333.3329999999987,
      "v": 100
    },
    {
      "midi": 61,
      "hit": false,
      "t": 33999.965999999964,
      "d": 333.3329999999987,
      "v": 100
    },
    {
      "midi": 64,
      "hit": false,
      "t": 33999.965999999964,
      "d": 333.3329999999987,
      "v": 100
    },
    {
      "midi": 62,
      "hit": false,
      "t": 34333.29899999996,
      "d": 333.3329999999987,
      "v": 100
    },
    {
      "midi": 54,
      "hit": false,
      "t": 34333.299000000006,
      "d": 333.3329999999987,
      "v": 100
    },
    {
      "midi": 57,
      "hit": false,
      "t": 34666.63199999996,
      "d": 499.9994999999981,
      "v": 100
    },
    {
      "midi": 61,
      "hit": false,
      "t": 34666.63199999996,
      "d": 499.9994999999981,
      "v": 100
    },
    {
      "midi": 43,
      "hit": false,
      "t": 34666.632000000005,
      "d": 666.6659999999974,
      "v": 100
    },
    {
      "midi": 62,
      "hit": false,
      "t": 35166.63149999996,
      "d": 166.66649999999936,
      "v": 100
    },
    {
      "midi": 62,
      "hit": false,
      "t": 35333.29799999996,
      "d": 666.6659999999974,
      "v": 100
    },
    {
      "midi": 50,
      "hit": false,
      "t": 35333.298,
      "d": 666.6659999999974,
      "v": 100
    },
    {
      "midi": 55,
      "hit": false,
      "t": 35999.964,
      "d": 999.9990000000034,
      "v": 100
    },
    {
      "midi": 59,
      "hit": false,
      "t": 36333.296999999955,
      "d": 333.3329999999987,
      "v": 100
    },
    {
      "midi": 66,
      "hit": false,
      "t": 36666.629999999954,
      "d": 333.3329999999987,
      "v": 100
    },
    {
      "midi": 64,
      "hit": false,
      "t": 36999.96299999995,
      "d": 333.3329999999987,
      "v": 100
    },
    {
      "midi": 55,
      "hit": false,
      "t": 36999.963,
      "d": 333.3329999999987,
      "v": 100
    },
    {
      "midi": 57,
      "hit": false,
      "t": 37333.29599999995,
      "d": 333.3329999999987,
      "v": 100
    },
    {
      "midi": 61,
      "hit": false,
      "t": 37333.29599999995,
      "d": 333.3329999999987,
      "v": 100
    },
    {
      "midi": 42,
      "hit": false,
      "t": 37333.296,
      "d": 666.6659999999974,
      "v": 100
    },
    {
      "midi": 61,
      "hit": false,
      "t": 37666.62899999995,
      "d": 333.3329999999987,
      "v": 100
    },
    {
      "midi": 61,
      "hit": false,
      "t": 37999.96199999995,
      "d": 166.66649999999936,
      "v": 100
    },
    {
      "midi": 49,
      "hit": false,
      "t": 37999.962,
      "d": 666.6659999999974,
      "v": 100
    },
    {
      "midi": 66,
      "hit": false,
      "t": 38166.62849999995,
      "d": 333.3329999999987,
      "v": 100
    },
    {
      "midi": 61,
      "hit": false,
      "t": 38499.96149999995,
      "d": 499.9994999999981,
      "v": 100
    },
    {
      "midi": 54,
      "hit": false,
      "t": 38666.628,
      "d": 999.9990000000034,
      "v": 100
    },
    {
      "midi": 62,
      "hit": false,
      "t": 38999.960999999945,
      "d": 333.3329999999987,
      "v": 100
    },
    {
      "midi": 64,
      "hit": false,
      "t": 39333.29399999994,
      "d": 333.3329999999987,
      "v": 100
    },
    {
      "midi": 57,
      "hit": false,
      "t": 39666.62699999994,
      "d": 333.3329999999987,
      "v": 100
    },
    {
      "midi": 62,
      "hit": false,
      "t": 39666.62699999994,
      "d": 333.3329999999987,
      "v": 100
    },
    {
      "midi": 54,
      "hit": false,
      "t": 39666.627,
      "d": 333.3329999999987,
      "v": 100
    },
    {
      "midi": 59,
      "hit": false,
      "t": 39999.95999999994,
      "d": 499.9994999999981,
      "v": 100
    },
    {
      "midi": 61,
      "hit": false,
      "t": 39999.95999999994,
      "d": 499.9994999999981,
      "v": 100
    },
    {
      "midi": 43,
      "hit": false,
      "t": 39999.96,
      "d": 666.6659999999974,
      "v": 100
    },
    {
      "midi": 62,
      "hit": false,
      "t": 40499.95949999994,
      "d": 166.66649999999936,
      "v": 100
    },
    {
      "midi": 64,
      "hit": false,
      "t": 40666.62599999994,
      "d": 333.3329999999987,
      "v": 100
    },
    {
      "midi": 50,
      "hit": false,
      "t": 40666.626,
      "d": 666.6659999999974,
      "v": 100
    },
    {
      "midi": 62,
      "hit": false,
      "t": 40999.95899999994,
      "d": 666.6659999999974,
      "v": 100
    },
    {
      "midi": 55,
      "hit": false,
      "t": 41333.291999999994,
      "d": 999.9990000000034,
      "v": 100
    },
    {
      "midi": 59,
      "hit": false,
      "t": 41666.624999999935,
      "d": 333.3329999999987,
      "v": 100
    },
    {
      "midi": 66,
      "hit": false,
      "t": 41999.95799999993,
      "d": 333.3329999999987,
      "v": 100
    },
    {
      "midi": 59,
      "hit": false,
      "t": 42333.29099999993,
      "d": 333.3329999999987,
      "v": 100
    },
    {
      "midi": 64,
      "hit": false,
      "t": 42333.29099999993,
      "d": 333.3329999999987,
      "v": 100
    },
    {
      "midi": 55,
      "hit": false,
      "t": 42333.291,
      "d": 333.3329999999987,
      "v": 100
    },
    {
      "midi": 61,
      "hit": false,
      "t": 42666.62399999993,
      "d": 333.3329999999987,
      "v": 100
    },
    {
      "midi": 66,
      "hit": false,
      "t": 42666.62399999993,
      "d": 333.3329999999987,
      "v": 100
    },
    {
      "midi": 42,
      "hit": false,
      "t": 42666.623999999996,
      "d": 666.6659999999974,
      "v": 100
    },
    {
      "midi": 67,
      "hit": false,
      "t": 42999.95699999993,
      "d": 333.3329999999987,
      "v": 100
    },
    {
      "midi": 57,
      "hit": false,
      "t": 43333.28999999993,
      "d": 333.3329999999987,
      "v": 100
    },
    {
      "midi": 64,
      "hit": false,
      "t": 43333.28999999993,
      "d": 333.3329999999987,
      "v": 100
    },
    {
      "midi": 49,
      "hit": false,
      "t": 43333.28999999999,
      "d": 666.6659999999974,
      "v": 100
    },
    {
      "midi": 66,
      "hit": false,
      "t": 43666.62299999993,
      "d": 166.66649999999936,
      "v": 100
    },
    {
      "midi": 62,
      "hit": false,
      "t": 43833.289499999926,
      "d": 499.9994999999981,
      "v": 100
    },
    {
      "midi": 54,
      "hit": false,
      "t": 43999.95599999999,
      "d": 999.9990000000034,
      "v": 100
    },
    {
      "midi": 66,
      "hit": false,
      "t": 44333.288999999924,
      "d": 166.66649999999936,
      "v": 100
    },
    {
      "midi": 61,
      "hit": false,
      "t": 44499.95549999992,
      "d": 333.3329999999987,
      "v": 100
    },
    {
      "midi": 62,
      "hit": false,
      "t": 44833.28849999992,
      "d": 166.66649999999936,
      "v": 100
    },
    {
      "midi": 59,
      "hit": false,
      "t": 44999.95499999992,
      "d": 333.3329999999987,
      "v": 100
    },
    {
      "midi": 54,
      "hit": false,
      "t": 44999.954999999994,
      "d": 333.3329999999987,
      "v": 100
    },
    {
      "midi": 54,
      "hit": false,
      "t": 45333.28799999992,
      "d": 666.6659999999974,
      "v": 100
    },
    {
      "midi": 59,
      "hit": false,
      "t": 45333.28799999992,
      "d": 666.6659999999974,
      "v": 100
    },
    {
      "midi": 47,
      "hit": false,
      "t": 45333.28799999999,
      "d": 333.3329999999987,
      "v": 100
    },
    {
      "midi": 47,
      "hit": false,
      "t": 45666.62099999999,
      "d": 999.9990000000034,
      "v": 100
    },
    {
      "midi": 61,
      "hit": false,
      "t": 45999.95399999992,
      "d": 499.9994999999981,
      "v": 100
    },
    {
      "midi": 59,
      "hit": false,
      "t": 46499.953499999916,
      "d": 666.6659999999974,
      "v": 100
    },
    {
      "midi": 62,
      "hit": false,
      "t": 46499.953499999916,
      "d": 666.6659999999974,
      "v": 100
    },
    {
      "midi": 64,
      "hit": false,
      "t": 47666.61899999991,
      "d": 333.3329999999987,
      "v": 100
    },
    {
      "midi": 59,
      "hit": false,
      "t": 47999.95199999991,
      "d": 666.6659999999974,
      "v": 100
    },
    {
      "midi": 61,
      "hit": false,
      "t": 47999.95199999991,
      "d": 666.6659999999974,
      "v": 100
    },
    {
      "midi": 43,
      "hit": false,
      "t": 47999.952,
      "d": 333.3329999999987,
      "v": 100
    },
    {
      "midi": 43,
      "hit": false,
      "t": 48333.284999999996,
      "d": 999.9990000000034,
      "v": 100
    },
    {
      "midi": 62,
      "hit": false,
      "t": 48666.61799999991,
      "d": 333.3329999999987,
      "v": 100
    },
    {
      "midi": 64,
      "hit": false,
      "t": 48999.950999999906,
      "d": 666.6659999999974,
      "v": 100
    },
    {
      "midi": 62,
      "hit": false,
      "t": 49666.616999999904,
      "d": 333.3329999999987,
      "v": 100
    },
    {
      "midi": 66,
      "hit": false,
      "t": 49666.616999999904,
      "d": 333.3329999999987,
      "v": 100
    },
    {
      "midi": 59,
      "hit": false,
      "t": 49999.9499999999,
      "d": 666.6659999999974,
      "v": 100
    },
    {
      "midi": 62,
      "hit": false,
      "t": 49999.9499999999,
      "d": 666.6659999999974,
      "v": 100
    },
    {
      "midi": 42,
      "hit": false,
      "t": 49999.95,
      "d": 666.6659999999974,
      "v": 100
    },
    {
      "midi": 54,
      "hit": false,
      "t": 50666.6159999999,
      "d": 666.6659999999974,
      "v": 100
    },
    {
      "midi": 61,
      "hit": false,
      "t": 50666.6159999999,
      "d": 666.6659999999974,
      "v": 100
    },
    {
      "midi": 47,
      "hit": false,
      "t": 50666.615999999995,
      "d": 333.3329999999987,
      "v": 100
    },
    {
      "midi": 47,
      "hit": false,
      "t": 50999.94899999999,
      "d": 999.9990000000034,
      "v": 100
    },
    {
      "midi": 64,
      "hit": false,
      "t": 51333.2819999999,
      "d": 333.3329999999987,
      "v": 100
    },
    {
      "midi": 59,
      "hit": false,
      "t": 51666.614999999896,
      "d": 999.9990000000034,
      "v": 100
    },
    {
      "midi": 62,
      "hit": false,
      "t": 51666.614999999896,
      "d": 999.9990000000034,
      "v": 100
    },
    {
      "midi": 54,
      "hit": false,
      "t": 52999.9469999999,
      "d": 333.3329999999987,
      "v": 100
    },
    {
      "midi": 59,
      "hit": false,
      "t": 53333.2799999999,
      "d": 666.6659999999974,
      "v": 100
    },
    {
      "midi": 61,
      "hit": false,
      "t": 53333.2799999999,
      "d": 666.6659999999974,
      "v": 100
    },
    {
      "midi": 43,
      "hit": false,
      "t": 53333.28,
      "d": 333.3329999999987,
      "v": 100
    },
    {
      "midi": 43,
      "hit": false,
      "t": 53666.613,
      "d": 999.9990000000034,
      "v": 100
    },
    {
      "midi": 62,
      "hit": false,
      "t": 53999.945999999894,
      "d": 333.3329999999987,
      "v": 100
    },
    {
      "midi": 64,
      "hit": false,
      "t": 54333.27899999989,
      "d": 666.6659999999974,
      "v": 100
    },
    {
      "midi": 61,
      "hit": false,
      "t": 54999.94499999989,
      "d": 666.6659999999974,
      "v": 100
    },
    {
      "midi": 42,
      "hit": false,
      "t": 55333.278,
      "d": 666.6659999999974,
      "v": 100
    },
    {
      "midi": 62,
      "hit": false,
      "t": 55666.61099999989,
      "d": 333.3329999999987,
      "v": 100
    },
    {
      "midi": 54,
      "hit": false,
      "t": 55999.94399999989,
      "d": 666.6659999999974,
      "v": 100
    },
    {
      "midi": 61,
      "hit": false,
      "t": 55999.94399999989,
      "d": 666.6659999999974,
      "v": 100
    },
    {
      "midi": 47,
      "hit": false,
      "t": 55999.943999999996,
      "d": 333.3329999999987,
      "v": 100
    },
    {
      "midi": 47,
      "hit": false,
      "t": 56333.276999999995,
      "d": 999.9990000000034,
      "v": 100
    },
    {
      "midi": 62,
      "hit": false,
      "t": 56666.609999999884,
      "d": 333.3329999999987,
      "v": 100
    },
    {
      "midi": 59,
      "hit": false,
      "t": 56999.94299999988,
      "d": 999.9990000000034,
      "v": 100
    },
    {
      "midi": 54,
      "hit": false,
      "t": 58333.274999999885,
      "d": 166.66649999999936,
      "v": 100
    },
    {
      "midi": 54,
      "hit": false,
      "t": 58499.941499999884,
      "d": 166.66649999999936,
      "v": 100
    },
    {
      "midi": 59,
      "hit": false,
      "t": 58666.607999999884,
      "d": 666.6659999999974,
      "v": 100
    },
    {
      "midi": 61,
      "hit": false,
      "t": 58666.607999999884,
      "d": 666.6659999999974,
      "v": 100
    },
    {
      "midi": 43,
      "hit": false,
      "t": 58666.608,
      "d": 333.3329999999987,
      "v": 100
    },
    {
      "midi": 43,
      "hit": false,
      "t": 58999.941,
      "d": 999.9990000000034,
      "v": 100
    },
    {
      "midi": 62,
      "hit": false,
      "t": 59333.27399999988,
      "d": 333.3329999999987,
      "v": 100
    },
    {
      "midi": 59,
      "hit": false,
      "t": 59666.60699999988,
      "d": 666.6659999999974,
      "v": 100
    },
    {
      "midi": 62,
      "hit": false,
      "t": 59666.60699999988,
      "d": 666.6659999999974,
      "v": 100
    },
    {
      "midi": 64,
      "hit": false,
      "t": 59666.60699999988,
      "d": 666.6659999999974,
      "v": 100
    },
    {
      "midi": 66,
      "hit": false,
      "t": 60333.27299999988,
      "d": 333.3329999999987,
      "v": 100
    },
    {
      "midi": 62,
      "hit": false,
      "t": 60666.605999999876,
      "d": 333.3329999999987,
      "v": 100
    },
    {
      "midi": 42,
      "hit": false,
      "t": 60666.606,
      "d": 666.6659999999974,
      "v": 100
    },
    {
      "midi": 59,
      "hit": false,
      "t": 60999.938999999875,
      "d": 333.3329999999987,
      "v": 100
    },
    {
      "midi": 61,
      "hit": false,
      "t": 60999.938999999875,
      "d": 333.3329999999987,
      "v": 100
    },
    {
      "midi": 47,
      "hit": false,
      "t": 61333.272,
      "d": 333.3329999999987,
      "v": 100
    },
    {
      "midi": 47,
      "hit": false,
      "t": 61666.604999999996,
      "d": 999.9990000000034,
      "v": 100
    },
    {
      "midi": 54,
      "hit": false,
      "t": 61999.93799999987,
      "d": 333.3329999999987,
      "v": 100
    },
    {
      "midi": 62,
      "hit": false,
      "t": 61999.93799999987,
      "d": 333.3329999999987,
      "v": 100
    },
    {
      "midi": 64,
      "hit": false,
      "t": 62333.27099999987,
      "d": 333.3329999999987,
      "v": 100
    },
    {
      "midi": 62,
      "hit": false,
      "t": 62666.60399999987,
      "d": 666.6659999999974,
      "v": 100
    },
    {
      "midi": 54,
      "hit": false,
      "t": 63666.602999999865,
      "d": 166.66649999999936,
      "v": 100
    },
    {
      "midi": 54,
      "hit": false,
      "t": 63833.269499999864,
      "d": 166.66649999999936,
      "v": 100
    },
    {
      "midi": 59,
      "hit": false,
      "t": 63999.93599999986,
      "d": 666.6659999999974,
      "v": 100
    },
    {
      "midi": 61,
      "hit": false,
      "t": 63999.93599999986,
      "d": 666.6659999999974,
      "v": 100
    },
    {
      "midi": 43,
      "hit": false,
      "t": 63999.936,
      "d": 333.3329999999987,
      "v": 100
    },
    {
      "midi": 43,
      "hit": false,
      "t": 64333.269,
      "d": 999.9990000000034,
      "v": 100
    },
    {
      "midi": 62,
      "hit": false,
      "t": 64666.60199999986,
      "d": 333.3329999999987,
      "v": 100
    },
    {
      "midi": 62,
      "hit": false,
      "t": 64999.93499999986,
      "d": 666.6660000000047,
      "v": 100
    },
    {
      "midi": 64,
      "hit": false,
      "t": 64999.93499999986,
      "d": 666.6660000000047,
      "v": 100
    },
    {
      "midi": 66,
      "hit": false,
      "t": 65666.60099999986,
      "d": 333.3329999999987,
      "v": 100
    },
    {
      "midi": 59,
      "hit": false,
      "t": 65999.93399999986,
      "d": 333.3329999999987,
      "v": 100
    },
    {
      "midi": 62,
      "hit": false,
      "t": 65999.93399999986,
      "d": 333.3329999999987,
      "v": 100
    },
    {
      "midi": 42,
      "hit": false,
      "t": 65999.93400000001,
      "d": 666.6659999999974,
      "v": 100
    },
    {
      "midi": 54,
      "hit": false,
      "t": 66333.26699999986,
      "d": 333.3329999999987,
      "v": 100
    },
    {
      "midi": 61,
      "hit": false,
      "t": 66333.26699999986,
      "d": 333.3329999999987,
      "v": 100
    },
    {
      "midi": 47,
      "hit": false,
      "t": 66666.6,
      "d": 666.6659999999974,
      "v": 100
    },
    {
      "midi": 54,
      "hit": false,
      "t": 67333.266,
      "d": 666.6659999999974,
      "v": 100
    },
    {
      "midi": 62,
      "hit": false,
      "t": 67666.59899999986,
      "d": 166.66650000000664,
      "v": 100
    },
    {
      "midi": 61,
      "hit": false,
      "t": 67833.26549999986,
      "d": 166.66650000000664,
      "v": 100
    },
    {
      "midi": 59,
      "hit": false,
      "t": 67999.93199999987,
      "d": 666.6659999999974,
      "v": 100
    },
    {
      "midi": 57,
      "hit": false,
      "t": 67999.932,
      "d": 333.3329999999987,
      "v": 100
    },
    {
      "midi": 54,
      "hit": false,
      "t": 68333.265,
      "d": 333.3329999999987,
      "v": 100
    },
    {
      "midi": 47,
      "hit": false,
      "t": 68666.598,
      "d": 666.6659999999974,
      "v": 100
    },
    {
      "midi": 66,
      "hit": false,
      "t": 68999.93099999987,
      "d": 166.66650000000664,
      "v": 100
    },
    {
      "midi": 67,
      "hit": false,
      "t": 69166.59749999987,
      "d": 166.66650000000664,
      "v": 100
    },
    {
      "midi": 59,
      "hit": false,
      "t": 69333.26399999988,
      "d": 333.3329999999987,
      "v": 100
    },
    {
      "midi": 62,
      "hit": false,
      "t": 69333.26399999988,
      "d": 333.3329999999987,
      "v": 100
    },
    {
      "midi": 69,
      "hit": false,
      "t": 69333.26399999988,
      "d": 333.3329999999987,
      "v": 100
    },
    {
      "midi": 43,
      "hit": false,
      "t": 69333.264,
      "d": 1999.9980000000069,
      "v": 100
    },
    {
      "midi": 69,
      "hit": false,
      "t": 69666.59699999988,
      "d": 166.66650000000664,
      "v": 100
    },
    {
      "midi": 67,
      "hit": false,
      "t": 69833.26349999988,
      "d": 333.3329999999987,
      "v": 100
    },
    {
      "midi": 66,
      "hit": false,
      "t": 70166.59649999988,
      "d": 166.66650000000664,
      "v": 100
    },
    {
      "midi": 69,
      "hit": false,
      "t": 70333.26299999989,
      "d": 333.3329999999987,
      "v": 100
    },
    {
      "midi": 59,
      "hit": false,
      "t": 70666.59599999989,
      "d": 666.6659999999974,
      "v": 100
    },
    {
      "midi": 62,
      "hit": false,
      "t": 70666.59599999989,
      "d": 666.6659999999974,
      "v": 100
    },
    {
      "midi": 67,
      "hit": false,
      "t": 70666.59599999989,
      "d": 666.6659999999974,
      "v": 100
    },
    {
      "midi": 42,
      "hit": false,
      "t": 71333.262,
      "d": 666.6659999999974,
      "v": 100
    },
    {
      "midi": 71,
      "hit": false,
      "t": 71499.92849999989,
      "d": 166.66650000000664,
      "v": 100
    },
    {
      "midi": 71,
      "hit": false,
      "t": 71666.5949999999,
      "d": 166.66650000000664,
      "v": 100
    },
    {
      "midi": 73,
      "hit": false,
      "t": 71833.2614999999,
      "d": 166.66650000000664,
      "v": 100
    },
    {
      "midi": 66,
      "hit": false,
      "t": 71999.92799999991,
      "d": 333.3329999999987,
      "v": 100
    },
    {
      "midi": 71,
      "hit": false,
      "t": 71999.92799999991,
      "d": 333.3329999999987,
      "v": 100
    },
    {
      "midi": 74,
      "hit": false,
      "t": 71999.92799999991,
      "d": 333.3329999999987,
      "v": 100
    },
    {
      "midi": 47,
      "hit": false,
      "t": 71999.928,
      "d": 666.6659999999974,
      "v": 100
    },
    {
      "midi": 73,
      "hit": false,
      "t": 72333.26099999991,
      "d": 166.66650000000664,
      "v": 100
    },
    {
      "midi": 71,
      "hit": false,
      "t": 72499.92749999992,
      "d": 499.99950000000536,
      "v": 100
    },
    {
      "midi": 54,
      "hit": false,
      "t": 72666.594,
      "d": 666.6659999999974,
      "v": 100
    },
    {
      "midi": 69,
      "hit": false,
      "t": 72999.92699999992,
      "d": 333.3329999999987,
      "v": 100
    },
    {
      "midi": 64,
      "hit": false,
      "t": 73333.25999999992,
      "d": 333.3329999999987,
      "v": 100
    },
    {
      "midi": 59,
      "hit": false,
      "t": 73333.26,
      "d": 999.9989999999962,
      "v": 100
    },
    {
      "midi": 62,
      "hit": false,
      "t": 73666.59299999992,
      "d": 333.3329999999987,
      "v": 100
    },
    {
      "midi": 62,
      "hit": false,
      "t": 73999.92599999992,
      "d": 333.3329999999987,
      "v": 100
    },
    {
      "midi": 62,
      "hit": false,
      "t": 74333.25899999992,
      "d": 333.3329999999987,
      "v": 100
    },
    {
      "midi": 66,
      "hit": false,
      "t": 74333.25899999992,
      "d": 333.3329999999987,
      "v": 100
    },
    {
      "midi": 59,
      "hit": false,
      "t": 74333.25899999999,
      "d": 333.3329999999987,
      "v": 100
    },
    {
      "midi": 59,
      "hit": false,
      "t": 74666.59199999992,
      "d": 499.99950000000536,
      "v": 100
    },
    {
      "midi": 66,
      "hit": false,
      "t": 74666.59199999992,
      "d": 499.99950000000536,
      "v": 100
    },
    {
      "midi": 43,
      "hit": false,
      "t": 74666.59199999999,
      "d": 1999.9980000000069,
      "v": 100
    },
    {
      "midi": 62,
      "hit": false,
      "t": 75166.59149999992,
      "d": 666.6659999999974,
      "v": 100
    },
    {
      "midi": 64,
      "hit": false,
      "t": 75166.59149999992,
      "d": 666.6659999999974,
      "v": 100
    },
    {
      "midi": 69,
      "hit": false,
      "t": 76333.25699999993,
      "d": 333.3329999999987,
      "v": 100
    },
    {
      "midi": 71,
      "hit": false,
      "t": 76666.58999999992,
      "d": 333.3329999999987,
      "v": 100
    },
    {
      "midi": 42,
      "hit": false,
      "t": 76666.59,
      "d": 666.6659999999974,
      "v": 100
    },
    {
      "midi": 76,
      "hit": false,
      "t": 76999.92299999992,
      "d": 333.3329999999987,
      "v": 100
    },
    {
      "midi": 73,
      "hit": false,
      "t": 77333.25599999992,
      "d": 333.3329999999987,
      "v": 100
    },
    {
      "midi": 47,
      "hit": false,
      "t": 77333.256,
      "d": 666.6659999999974,
      "v": 100
    },
    {
      "midi": 66,
      "hit": false,
      "t": 77666.58899999992,
      "d": 333.3329999999987,
      "v": 100
    },
    {
      "midi": 73,
      "hit": false,
      "t": 77999.92199999992,
      "d": 499.99950000000536,
      "v": 100
    },
    {
      "midi": 54,
      "hit": false,
      "t": 77999.92199999999,
      "d": 666.6659999999974,
      "v": 100
    },
    {
      "midi": 66,
      "hit": false,
      "t": 78499.92149999992,
      "d": 166.66650000000664,
      "v": 100
    },
    {
      "midi": 66,
      "hit": false,
      "t": 78666.58799999993,
      "d": 333.3329999999987,
      "v": 100
    },
    {
      "midi": 69,
      "hit": false,
      "t": 78666.58799999993,
      "d": 333.3329999999987,
      "v": 100
    },
    {
      "midi": 73,
      "hit": false,
      "t": 78666.58799999993,
      "d": 333.3329999999987,
      "v": 100
    },
    {
      "midi": 59,
      "hit": false,
      "t": 78666.58799999999,
      "d": 999.9989999999962,
      "v": 100
    },
    {
      "midi": 74,
      "hit": false,
      "t": 78999.92099999993,
      "d": 333.3329999999987,
      "v": 100
    },
    {
      "midi": 62,
      "hit": false,
      "t": 79666.58699999993,
      "d": 166.66650000000664,
      "v": 100
    },
    {
      "midi": 59,
      "hit": false,
      "t": 79666.58699999998,
      "d": 333.3329999999987,
      "v": 100
    },
    {
      "midi": 64,
      "hit": false,
      "t": 79833.25349999993,
      "d": 166.66650000000664,
      "v": 100
    },
    {
      "midi": 59,
      "hit": false,
      "t": 79999.91999999994,
      "d": 333.3329999999987,
      "v": 100
    },
    {
      "midi": 62,
      "hit": false,
      "t": 79999.91999999994,
      "d": 333.3329999999987,
      "v": 100
    },
    {
      "midi": 66,
      "hit": false,
      "t": 79999.91999999994,
      "d": 333.3329999999987,
      "v": 100
    },
    {
      "midi": 43,
      "hit": false,
      "t": 79999.91999999998,
      "d": 1999.9980000000069,
      "v": 100
    },
    {
      "midi": 66,
      "hit": false,
      "t": 80333.25299999994,
      "d": 166.66650000000664,
      "v": 100
    },
    {
      "midi": 62,
      "hit": false,
      "t": 80499.91949999995,
      "d": 333.3329999999987,
      "v": 100
    },
    {
      "midi": 69,
      "hit": false,
      "t": 80499.91949999995,
      "d": 333.3329999999987,
      "v": 100
    },
    {
      "midi": 69,
      "hit": false,
      "t": 80833.25249999994,
      "d": 166.66650000000664,
      "v": 100
    },
    {
      "midi": 64,
      "hit": false,
      "t": 80999.91899999995,
      "d": 166.66650000000664,
      "v": 100
    },
    {
      "midi": 62,
      "hit": false,
      "t": 81166.58549999996,
      "d": 166.66650000000664,
      "v": 100
    },
    {
      "midi": 64,
      "hit": false,
      "t": 81333.25199999996,
      "d": 666.6659999999974,
      "v": 100
    },
    {
      "midi": 42,
      "hit": false,
      "t": 81999.91799999999,
      "d": 666.6659999999974,
      "v": 100
    },
    {
      "midi": 74,
      "hit": false,
      "t": 82166.58449999997,
      "d": 166.66650000000664,
      "v": 100
    },
    {
      "midi": 74,
      "hit": false,
      "t": 82333.25099999997,
      "d": 166.66650000000664,
      "v": 100
    },
    {
      "midi": 74,
      "hit": false,
      "t": 82499.91749999998,
      "d": 166.66650000000664,
      "v": 100
    },
    {
      "midi": 62,
      "hit": false,
      "t": 82666.58399999999,
      "d": 333.3329999999987,
      "v": 100
    },
    {
      "midi": 66,
      "hit": false,
      "t": 82666.58399999999,
      "d": 333.3329999999987,
      "v": 100
    },
    {
      "midi": 73,
      "hit": false,
      "t": 82666.58399999999,
      "d": 333.3329999999987,
      "v": 100
    },
    {
      "midi": 47,
      "hit": false,
      "t": 82666.58399999999,
      "d": 666.6659999999974,
      "v": 100
    },
    {
      "midi": 76,
      "hit": false,
      "t": 82999.91699999999,
      "d": 166.66650000000664,
      "v": 100
    },
    {
      "midi": 73,
      "hit": false,
      "t": 83166.5835,
      "d": 499.99950000000536,
      "v": 100
    },
    {
      "midi": 54,
      "hit": false,
      "t": 83333.24999999999,
      "d": 666.6659999999974,
      "v": 100
    },
    {
      "midi": 73,
      "hit": false,
      "t": 83666.583,
      "d": 333.3329999999987,
      "v": 100
    },
    {
      "midi": 59,
      "hit": false,
      "t": 83999.91599999998,
      "d": 999.9989999999962,
      "v": 100
    },
    {
      "midi": 66,
      "hit": false,
      "t": 83999.916,
      "d": 333.3329999999987,
      "v": 100
    },
    {
      "midi": 71,
      "hit": false,
      "t": 83999.916,
      "d": 333.3329999999987,
      "v": 100
    },
    {
      "midi": 62,
      "hit": false,
      "t": 84333.249,
      "d": 333.3329999999987,
      "v": 100
    },
    {
      "midi": 66,
      "hit": false,
      "t": 84333.249,
      "d": 333.3329999999987,
      "v": 100
    },
    {
      "midi": 71,
      "hit": false,
      "t": 84666.582,
      "d": 333.3329999999987,
      "v": 100
    },
    {
      "midi": 59,
      "hit": false,
      "t": 84999.91499999998,
      "d": 333.3329999999987,
      "v": 100
    },
    {
      "midi": 62,
      "hit": false,
      "t": 84999.915,
      "d": 333.3329999999987,
      "v": 100
    },
    {
      "midi": 66,
      "hit": false,
      "t": 84999.915,
      "d": 333.3329999999987,
      "v": 100
    },
    {
      "midi": 43,
      "hit": false,
      "t": 85333.24799999998,
      "d": 333.3329999999987,
      "v": 100
    },
    {
      "midi": 59,
      "hit": false,
      "t": 85333.24799999999,
      "d": 333.3329999999987,
      "v": 100
    },
    {
      "midi": 66,
      "hit": false,
      "t": 85333.24799999999,
      "d": 333.3329999999987,
      "v": 100
    },
    {
      "midi": 43,
      "hit": false,
      "t": 85666.58099999998,
      "d": 999.9989999999962,
      "v": 100
    },
    {
      "midi": 64,
      "hit": false,
      "t": 85666.58099999999,
      "d": 333.3329999999987,
      "v": 100
    },
    {
      "midi": 62,
      "hit": false,
      "t": 85999.91399999999,
      "d": 333.3329999999987,
      "v": 100
    },
    {
      "midi": 59,
      "hit": false,
      "t": 86333.24699999999,
      "d": 333.3329999999987,
      "v": 100
    },
    {
      "midi": 62,
      "hit": false,
      "t": 86666.57999999999,
      "d": 333.3329999999987,
      "v": 100
    },
    {
      "midi": 64,
      "hit": false,
      "t": 86999.91299999999,
      "d": 333.3329999999987,
      "v": 100
    },
    {
      "midi": 42,
      "hit": false,
      "t": 87333.24599999997,
      "d": 666.6659999999974,
      "v": 100
    },
    {
      "midi": 66,
      "hit": false,
      "t": 87333.24599999998,
      "d": 333.3329999999987,
      "v": 100
    },
    {
      "midi": 67,
      "hit": false,
      "t": 87666.57899999998,
      "d": 333.3329999999987,
      "v": 100
    },
    {
      "midi": 71,
      "hit": false,
      "t": 87666.57899999998,
      "d": 333.3329999999987,
      "v": 100
    },
    {
      "midi": 43,
      "hit": false,
      "t": 87999.91199999997,
      "d": 333.3329999999987,
      "v": 100
    },
    {
      "midi": 43,
      "hit": false,
      "t": 88333.24499999997,
      "d": 1999.9980000000069,
      "v": 100
    },
    {
      "midi": 59,
      "hit": false,
      "t": 89666.57699999998,
      "d": 333.3329999999987,
      "v": 100
    },
    {
      "midi": 66,
      "hit": false,
      "t": 89999.90999999997,
      "d": 333.3329999999987,
      "v": 100
    },
    {
      "midi": 64,
      "hit": false,
      "t": 90333.24299999997,
      "d": 333.3329999999987,
      "v": 100
    },
    {
      "midi": 61,
      "hit": false,
      "t": 90666.57599999997,
      "d": 333.3329999999987,
      "v": 100
    },
    {
      "midi": 42,
      "hit": false,
      "t": 90666.57599999997,
      "d": 333.3329999999987,
      "v": 100
    },
    {
      "midi": 57,
      "hit": false,
      "t": 90999.90899999997,
      "d": 333.3329999999987,
      "v": 100
    },
    {
      "midi": 61,
      "hit": false,
      "t": 90999.90899999997,
      "d": 333.3329999999987,
      "v": 100
    },
    {
      "midi": 42,
      "hit": false,
      "t": 90999.90899999997,
      "d": 1999.9980000000069,
      "v": 100
    },
    {
      "midi": 61,
      "hit": false,
      "t": 91333.24199999997,
      "d": 333.3329999999987,
      "v": 100
    },
    {
      "midi": 57,
      "hit": false,
      "t": 91666.57499999997,
      "d": 333.3329999999987,
      "v": 100
    },
    {
      "midi": 61,
      "hit": false,
      "t": 91666.57499999997,
      "d": 333.3329999999987,
      "v": 100
    },
    {
      "midi": 61,
      "hit": false,
      "t": 91999.90799999997,
      "d": 333.3329999999987,
      "v": 100
    },
    {
      "midi": 62,
      "hit": false,
      "t": 92333.24099999997,
      "d": 333.3329999999987,
      "v": 100
    },
    {
      "midi": 57,
      "hit": false,
      "t": 92666.57399999996,
      "d": 666.6659999999974,
      "v": 100
    },
    {
      "midi": 61,
      "hit": false,
      "t": 92666.57399999996,
      "d": 666.6659999999974,
      "v": 100
    },
    {
      "midi": 64,
      "hit": false,
      "t": 92666.57399999996,
      "d": 666.6659999999974,
      "v": 100
    },
    {
      "midi": 59,
      "hit": false,
      "t": 93333.23999999996,
      "d": 666.6659999999974,
      "v": 100
    },
    {
      "midi": 62,
      "hit": false,
      "t": 93333.23999999996,
      "d": 666.6659999999974,
      "v": 100
    },
    {
      "midi": 43,
      "hit": false,
      "t": 93333.23999999998,
      "d": 333.3329999999987,
      "v": 100
    },
    {
      "midi": 43,
      "hit": false,
      "t": 93666.57299999997,
      "d": 1999.9980000000069,
      "v": 100
    },
    {
      "midi": 62,
      "hit": false,
      "t": 94999.90499999996,
      "d": 333.3329999999987,
      "v": 100
    },
    {
      "midi": 69,
      "hit": false,
      "t": 95333.23799999995,
      "d": 333.3329999999987,
      "v": 100
    },
    {
      "midi": 62,
      "hit": false,
      "t": 95666.57099999995,
      "d": 333.3329999999987,
      "v": 100
    },
    {
      "midi": 67,
      "hit": false,
      "t": 95666.57099999995,
      "d": 333.3329999999987,
      "v": 100
    },
    {
      "midi": 61,
      "hit": false,
      "t": 95999.90399999995,
      "d": 333.3329999999987,
      "v": 100
    },
    {
      "midi": 42,
      "hit": false,
      "t": 95999.90399999998,
      "d": 333.3329999999987,
      "v": 100
    },
    {
      "midi": 57,
      "hit": false,
      "t": 96333.23699999995,
      "d": 333.3329999999987,
      "v": 100
    },
    {
      "midi": 61,
      "hit": false,
      "t": 96333.23699999995,
      "d": 333.3329999999987,
      "v": 100
    },
    {
      "midi": 42,
      "hit": false,
      "t": 96333.23699999998,
      "d": 1999.9980000000069,
      "v": 100
    },
    {
      "midi": 61,
      "hit": false,
      "t": 96666.56999999995,
      "d": 333.3329999999987,
      "v": 100
    },
    {
      "midi": 57,
      "hit": false,
      "t": 96999.90299999995,
      "d": 333.3329999999987,
      "v": 100
    },
    {
      "midi": 61,
      "hit": false,
      "t": 96999.90299999995,
      "d": 333.3329999999987,
      "v": 100
    },
    {
      "midi": 61,
      "hit": false,
      "t": 97333.23599999995,
      "d": 333.3329999999987,
      "v": 100
    },
    {
      "midi": 62,
      "hit": false,
      "t": 97666.56899999994,
      "d": 333.3329999999987,
      "v": 100
    },
    {
      "midi": 57,
      "hit": false,
      "t": 97999.90199999994,
      "d": 333.3329999999987,
      "v": 100
    },
    {
      "midi": 61,
      "hit": false,
      "t": 97999.90199999994,
      "d": 333.3329999999987,
      "v": 100
    },
    {
      "midi": 64,
      "hit": false,
      "t": 97999.90199999994,
      "d": 333.3329999999987,
      "v": 100
    },
    {
      "midi": 66,
      "hit": false,
      "t": 98333.23499999994,
      "d": 166.66650000000664,
      "v": 100
    },
    {
      "midi": 57,
      "hit": false,
      "t": 98499.90149999995,
      "d": 166.66650000000664,
      "v": 100
    },
    {
      "midi": 64,
      "hit": false,
      "t": 98499.90149999995,
      "d": 166.66650000000664,
      "v": 100
    },
    {
      "midi": 59,
      "hit": false,
      "t": 98666.56799999996,
      "d": 333.3329999999987,
      "v": 100
    },
    {
      "midi": 43,
      "hit": false,
      "t": 98666.56799999998,
      "d": 333.3329999999987,
      "v": 100
    },
    {
      "midi": 62,
      "hit": false,
      "t": 98999.90099999995,
      "d": 333.3329999999987,
      "v": 100
    },
    {
      "midi": 43,
      "hit": false,
      "t": 98999.90099999998,
      "d": 1999.9980000000069,
      "v": 100
    },
    {
      "midi": 59,
      "hit": false,
      "t": 99333.23399999995,
      "d": 666.6659999999974,
      "v": 100
    },
    {
      "midi": 62,
      "hit": false,
      "t": 99333.23399999995,
      "d": 666.6659999999974,
      "v": 100
    },
    {
      "midi": 62,
      "hit": false,
      "t": 100333.23299999995,
      "d": 333.3329999999987,
      "v": 100
    },
    {
      "midi": 66,
      "hit": false,
      "t": 100666.56599999995,
      "d": 333.3329999999987,
      "v": 100
    },
    {
      "midi": 59,
      "hit": false,
      "t": 100999.89899999995,
      "d": 333.3329999999987,
      "v": 100
    },
    {
      "midi": 62,
      "hit": false,
      "t": 100999.89899999995,
      "d": 333.3329999999987,
      "v": 100
    },
    {
      "midi": 57,
      "hit": false,
      "t": 101333.23199999995,
      "d": 499.99950000000536,
      "v": 100
    },
    {
      "midi": 61,
      "hit": false,
      "t": 101333.23199999995,
      "d": 499.99950000000536,
      "v": 100
    },
    {
      "midi": 42,
      "hit": false,
      "t": 101333.23199999999,
      "d": 333.3329999999987,
      "v": 100
    },
    {
      "midi": 42,
      "hit": false,
      "t": 101666.56499999999,
      "d": 1999.9980000000069,
      "v": 100
    },
    {
      "midi": 64,
      "hit": false,
      "t": 101833.23149999995,
      "d": 499.99950000000536,
      "v": 100
    },
    {
      "midi": 61,
      "hit": false,
      "t": 102333.23099999996,
      "d": 333.3329999999987,
      "v": 100
    },
    {
      "midi": 57,
      "hit": false,
      "t": 102666.56399999995,
      "d": 333.3329999999987,
      "v": 100
    },
    {
      "midi": 61,
      "hit": false,
      "t": 102666.56399999995,
      "d": 333.3329999999987,
      "v": 100
    },
    {
      "midi": 61,
      "hit": false,
      "t": 102999.89699999995,
      "d": 333.3329999999987,
      "v": 100
    },
    {
      "midi": 61,
      "hit": false,
      "t": 103333.22999999995,
      "d": 499.99950000000536,
      "v": 100
    },
    {
      "midi": 64,
      "hit": false,
      "t": 103333.22999999995,
      "d": 499.99950000000536,
      "v": 100
    },
    {
      "midi": 61,
      "hit": false,
      "t": 103833.22949999996,
      "d": 166.66650000000664,
      "v": 100
    },
    {
      "midi": 59,
      "hit": false,
      "t": 103999.89599999996,
      "d": 499.99950000000536,
      "v": 100
    },
    {
      "midi": 62,
      "hit": false,
      "t": 103999.89599999996,
      "d": 499.99950000000536,
      "v": 100
    },
    {
      "midi": 43,
      "hit": false,
      "t": 103999.896,
      "d": 333.3329999999987,
      "v": 100
    },
    {
      "midi": 43,
      "hit": false,
      "t": 104333.22899999999,
      "d": 1999.9980000000069,
      "v": 100
    },
    {
      "midi": 59,
      "hit": false,
      "t": 104499.89549999997,
      "d": 166.66650000000664,
      "v": 100
    },
    {
      "midi": 62,
      "hit": false,
      "t": 104666.56199999998,
      "d": 666.6659999999974,
      "v": 100
    },
    {
      "midi": 59,
      "hit": false,
      "t": 105666.56099999997,
      "d": 333.3329999999987,
      "v": 100
    },
    {
      "midi": 62,
      "hit": false,
      "t": 105666.56099999997,
      "d": 333.3329999999987,
      "v": 100
    },
    {
      "midi": 69,
      "hit": false,
      "t": 105999.89399999997,
      "d": 333.3329999999987,
      "v": 100
    },
    {
      "midi": 67,
      "hit": false,
      "t": 106333.22699999997,
      "d": 333.3329999999987,
      "v": 100
    },
    {
      "midi": 57,
      "hit": false,
      "t": 106666.55999999997,
      "d": 333.3329999999987,
      "v": 100
    },
    {
      "midi": 61,
      "hit": false,
      "t": 106666.55999999997,
      "d": 333.3329999999987,
      "v": 100
    },
    {
      "midi": 66,
      "hit": false,
      "t": 106666.55999999997,
      "d": 333.3329999999987,
      "v": 100
    },
    {
      "midi": 42,
      "hit": false,
      "t": 106666.56,
      "d": 333.3329999999987,
      "v": 100
    },
    {
      "midi": 67,
      "hit": false,
      "t": 106999.89299999997,
      "d": 333.3329999999987,
      "v": 100
    },
    {
      "midi": 42,
      "hit": false,
      "t": 106999.893,
      "d": 1999.9980000000069,
      "v": 100
    },
    {
      "midi": 61,
      "hit": false,
      "t": 107333.22599999997,
      "d": 333.3329999999987,
      "v": 100
    },
    {
      "midi": 64,
      "hit": false,
      "t": 107333.22599999997,
      "d": 333.3329999999987,
      "v": 100
    },
    {
      "midi": 66,
      "hit": false,
      "t": 107666.55899999996,
      "d": 333.3329999999987,
      "v": 100
    },
    {
      "midi": 57,
      "hit": false,
      "t": 107999.89199999996,
      "d": 333.3329999999987,
      "v": 100
    },
    {
      "midi": 62,
      "hit": false,
      "t": 107999.89199999996,
      "d": 333.3329999999987,
      "v": 100
    },
    {
      "midi": 64,
      "hit": false,
      "t": 108333.22499999996,
      "d": 166.66650000000664,
      "v": 100
    },
    {
      "midi": 61,
      "hit": false,
      "t": 108499.89149999997,
      "d": 333.3329999999987,
      "v": 100
    },
    {
      "midi": 57,
      "hit": false,
      "t": 108833.22449999997,
      "d": 333.3329999999987,
      "v": 100
    },
    {
      "midi": 62,
      "hit": false,
      "t": 108833.22449999997,
      "d": 333.3329999999987,
      "v": 100
    },
    {
      "midi": 59,
      "hit": false,
      "t": 109166.55749999997,
      "d": 166.66650000000664,
      "v": 100
    },
    {
      "midi": 54,
      "hit": false,
      "t": 109333.22399999997,
      "d": 666.6659999999974,
      "v": 100
    },
    {
      "midi": 59,
      "hit": false,
      "t": 109333.22399999997,
      "d": 666.6659999999974,
      "v": 100
    },
    {
      "midi": 47,
      "hit": false,
      "t": 109333.224,
      "d": 333.3329999999987,
      "v": 100
    },
    {
      "midi": 47,
      "hit": false,
      "t": 109666.557,
      "d": 999.9989999999962,
      "v": 100
    },
    {
      "midi": 61,
      "hit": false,
      "t": 109999.88999999997,
      "d": 499.99950000000536,
      "v": 100
    },
    {
      "midi": 59,
      "hit": false,
      "t": 110499.88949999998,
      "d": 666.6659999999974,
      "v": 100
    },
    {
      "midi": 62,
      "hit": false,
      "t": 110499.88949999998,
      "d": 666.6659999999974,
      "v": 100
    },
    {
      "midi": 64,
      "hit": false,
      "t": 111666.55499999998,
      "d": 333.3329999999987,
      "v": 100
    },
    {
      "midi": 59,
      "hit": false,
      "t": 111999.88799999998,
      "d": 666.6659999999974,
      "v": 100
    },
    {
      "midi": 61,
      "hit": false,
      "t": 111999.88799999998,
      "d": 666.6659999999974,
      "v": 100
    },
    {
      "midi": 43,
      "hit": false,
      "t": 111999.88799999999,
      "d": 333.3329999999987,
      "v": 100
    },
    {
      "midi": 43,
      "hit": false,
      "t": 112333.22099999999,
      "d": 999.9989999999962,
      "v": 100
    },
    {
      "midi": 62,
      "hit": false,
      "t": 112666.55399999997,
      "d": 333.3329999999987,
      "v": 100
    },
    {
      "midi": 62,
      "hit": false,
      "t": 112999.88699999997,
      "d": 666.6659999999974,
      "v": 100
    },
    {
      "midi": 64,
      "hit": false,
      "t": 112999.88699999997,
      "d": 666.6659999999974,
      "v": 100
    },
    {
      "midi": 66,
      "hit": false,
      "t": 113666.55299999997,
      "d": 333.3329999999987,
      "v": 100
    },
    {
      "midi": 62,
      "hit": false,
      "t": 113999.88599999997,
      "d": 666.6659999999974,
      "v": 100
    },
    {
      "midi": 42,
      "hit": false,
      "t": 113999.88599999998,
      "d": 666.6659999999974,
      "v": 100
    },
    {
      "midi": 57,
      "hit": false,
      "t": 114666.55199999997,
      "d": 666.6659999999974,
      "v": 100
    },
    {
      "midi": 61,
      "hit": false,
      "t": 114666.55199999997,
      "d": 666.6659999999974,
      "v": 100
    },
    {
      "midi": 47,
      "hit": false,
      "t": 114666.55199999998,
      "d": 333.3329999999987,
      "v": 100
    },
    {
      "midi": 47,
      "hit": false,
      "t": 114999.88499999998,
      "d": 999.9989999999962,
      "v": 100
    },
    {
      "midi": 64,
      "hit": false,
      "t": 115333.21799999996,
      "d": 333.3329999999987,
      "v": 100
    },
    {
      "midi": 59,
      "hit": false,
      "t": 115666.55099999996,
      "d": 999.9989999999962,
      "v": 100
    },
    {
      "midi": 62,
      "hit": false,
      "t": 115666.55099999996,
      "d": 999.9989999999962,
      "v": 100
    },
    {
      "midi": 54,
      "hit": false,
      "t": 116999.88299999996,
      "d": 333.3329999999987,
      "v": 100
    },
    {
      "midi": 59,
      "hit": false,
      "t": 117333.21599999996,
      "d": 666.6659999999974,
      "v": 100
    },
    {
      "midi": 61,
      "hit": false,
      "t": 117333.21599999996,
      "d": 666.6659999999974,
      "v": 100
    },
    {
      "midi": 43,
      "hit": false,
      "t": 117333.21599999997,
      "d": 333.3329999999987,
      "v": 100
    },
    {
      "midi": 43,
      "hit": false,
      "t": 117666.54899999997,
      "d": 999.9989999999962,
      "v": 100
    },
    {
      "midi": 62,
      "hit": false,
      "t": 117999.88199999995,
      "d": 333.3329999999987,
      "v": 100
    },
    {
      "midi": 62,
      "hit": false,
      "t": 118333.21499999995,
      "d": 666.6659999999974,
      "v": 100
    },
    {
      "midi": 64,
      "hit": false,
      "t": 118333.21499999995,
      "d": 666.6659999999974,
      "v": 100
    },
    {
      "midi": 59,
      "hit": false,
      "t": 118999.88099999995,
      "d": 666.6659999999974,
      "v": 100
    },
    {
      "midi": 61,
      "hit": false,
      "t": 118999.88099999995,
      "d": 666.6659999999974,
      "v": 100
    },
    {
      "midi": 42,
      "hit": false,
      "t": 119333.21399999996,
      "d": 666.6659999999974,
      "v": 100
    },
    {
      "midi": 62,
      "hit": false,
      "t": 119666.54699999995,
      "d": 333.3329999999987,
      "v": 100
    },
    {
      "midi": 54,
      "hit": false,
      "t": 119999.87999999995,
      "d": 666.6659999999974,
      "v": 100
    },
    {
      "midi": 61,
      "hit": false,
      "t": 119999.87999999995,
      "d": 666.6659999999974,
      "v": 100
    },
    {
      "midi": 47,
      "hit": false,
      "t": 119999.87999999996,
      "d": 333.3329999999987,
      "v": 100
    },
    {
      "midi": 47,
      "hit": false,
      "t": 120333.21299999996,
      "d": 999.9989999999962,
      "v": 100
    },
    {
      "midi": 59,
      "hit": false,
      "t": 120666.54599999994,
      "d": 333.3329999999987,
      "v": 100
    },
    {
      "midi": 62,
      "hit": false,
      "t": 120666.54599999994,
      "d": 333.3329999999987,
      "v": 100
    },
    {
      "midi": 59,
      "hit": false,
      "t": 120999.87899999994,
      "d": 999.9989999999962,
      "v": 100
    },
    {
      "midi": 54,
      "hit": false,
      "t": 122333.21099999994,
      "d": 166.66650000000664,
      "v": 100
    },
    {
      "midi": 54,
      "hit": false,
      "t": 122499.87749999994,
      "d": 166.66650000000664,
      "v": 100
    },
    {
      "midi": 59,
      "hit": false,
      "t": 122666.54399999995,
      "d": 666.6659999999974,
      "v": 100
    },
    {
      "midi": 61,
      "hit": false,
      "t": 122666.54399999995,
      "d": 666.6659999999974,
      "v": 100
    },
    {
      "midi": 43,
      "hit": false,
      "t": 122666.54399999995,
      "d": 333.3329999999987,
      "v": 100
    },
    {
      "midi": 43,
      "hit": false,
      "t": 122999.87699999995,
      "d": 999.9989999999962,
      "v": 100
    },
    {
      "midi": 62,
      "hit": false,
      "t": 123333.20999999995,
      "d": 333.3329999999987,
      "v": 100
    },
    {
      "midi": 64,
      "hit": false,
      "t": 123666.54299999995,
      "d": 666.6659999999974,
      "v": 100
    },
    {
      "midi": 62,
      "hit": false,
      "t": 124333.20899999994,
      "d": 333.3329999999987,
      "v": 100
    },
    {
      "midi": 66,
      "hit": false,
      "t": 124333.20899999994,
      "d": 333.3329999999987,
      "v": 100
    },
    {
      "midi": 62,
      "hit": false,
      "t": 124666.54199999994,
      "d": 333.3329999999987,
      "v": 100
    },
    {
      "midi": 42,
      "hit": false,
      "t": 124666.54199999994,
      "d": 666.6659999999974,
      "v": 100
    },
    {
      "midi": 59,
      "hit": false,
      "t": 124999.87499999994,
      "d": 333.3329999999987,
      "v": 100
    },
    {
      "midi": 61,
      "hit": false,
      "t": 124999.87499999994,
      "d": 333.3329999999987,
      "v": 100
    },
    {
      "midi": 54,
      "hit": false,
      "t": 125333.20799999994,
      "d": 666.6659999999974,
      "v": 100
    },
    {
      "midi": 47,
      "hit": false,
      "t": 125333.20799999994,
      "d": 333.3329999999987,
      "v": 100
    },
    {
      "midi": 47,
      "hit": false,
      "t": 125666.54099999994,
      "d": 999.9989999999962,
      "v": 100
    },
    {
      "midi": 62,
      "hit": false,
      "t": 125999.87399999994,
      "d": 333.3329999999987,
      "v": 100
    },
    {
      "midi": 64,
      "hit": false,
      "t": 126333.20699999994,
      "d": 333.3329999999987,
      "v": 100
    },
    {
      "midi": 59,
      "hit": false,
      "t": 126666.53999999994,
      "d": 666.6659999999974,
      "v": 100
    },
    {
      "midi": 62,
      "hit": false,
      "t": 126666.53999999994,
      "d": 666.6659999999974,
      "v": 100
    },
    {
      "midi": 54,
      "hit": false,
      "t": 127666.53899999993,
      "d": 166.66650000000664,
      "v": 100
    },
    {
      "midi": 54,
      "hit": false,
      "t": 127833.20549999994,
      "d": 166.66650000000664,
      "v": 100
    },
    {
      "midi": 43,
      "hit": false,
      "t": 127999.87199999993,
      "d": 333.3329999999987,
      "v": 100
    },
    {
      "midi": 59,
      "hit": false,
      "t": 127999.87199999994,
      "d": 666.6659999999974,
      "v": 100
    },
    {
      "midi": 61,
      "hit": false,
      "t": 127999.87199999994,
      "d": 666.6659999999974,
      "v": 100
    },
    {
      "midi": 43,
      "hit": false,
      "t": 128333.20499999993,
      "d": 999.9989999999962,
      "v": 100
    },
    {
      "midi": 62,
      "hit": false,
      "t": 128666.53799999994,
      "d": 333.3329999999987,
      "v": 100
    },
    {
      "midi": 59,
      "hit": false,
      "t": 128999.87099999994,
      "d": 666.6659999999974,
      "v": 100
    },
    {
      "midi": 64,
      "hit": false,
      "t": 128999.87099999994,
      "d": 666.6659999999974,
      "v": 100
    },
    {
      "midi": 66,
      "hit": false,
      "t": 129666.53699999994,
      "d": 333.3329999999987,
      "v": 100
    },
    {
      "midi": 42,
      "hit": false,
      "t": 129999.86999999992,
      "d": 666.6659999999974,
      "v": 100
    },
    {
      "midi": 62,
      "hit": false,
      "t": 129999.86999999994,
      "d": 333.3329999999987,
      "v": 100
    },
    {
      "midi": 64,
      "hit": false,
      "t": 130333.20299999994,
      "d": 333.3329999999987,
      "v": 100
    },
    {
      "midi": 43,
      "hit": false,
      "t": 130666.53599999992,
      "d": 333.3329999999987,
      "v": 100
    },
    {
      "midi": 59,
      "hit": false,
      "t": 130666.53599999993,
      "d": 666.6659999999974,
      "v": 100
    },
    {
      "midi": 43,
      "hit": false,
      "t": 130999.86899999992,
      "d": 999.9990000000107,
      "v": 100
    },
    {
      "midi": 59,
      "hit": false,
      "t": 131333.20199999993,
      "d": 666.6659999999974,
      "v": 100
    },
    {
      "midi": 62,
      "hit": false,
      "t": 131999.86799999993,
      "d": 666.6659999999974,
      "v": 100
    },
    {
      "midi": 69,
      "hit": false,
      "t": 132666.53399999993,
      "d": 666.6659999999974,
      "v": 100
    },
    {
      "midi": 42,
      "hit": false,
      "t": 132666.53399999993,
      "d": 666.6659999999974,
      "v": 100
    },
    {
      "midi": 58,
      "hit": false,
      "t": 133333.19999999992,
      "d": 666.6659999999974,
      "v": 100
    },
    {
      "midi": 62,
      "hit": false,
      "t": 133333.19999999992,
      "d": 666.6659999999974,
      "v": 100
    },
    {
      "midi": 64,
      "hit": false,
      "t": 133333.19999999992,
      "d": 666.6659999999974,
      "v": 100
    },
    {
      "midi": 67,
      "hit": false,
      "t": 133333.19999999992,
      "d": 666.6659999999974,
      "v": 100
    },
    {
      "midi": 42,
      "hit": false,
      "t": 133333.19999999992,
      "d": 333.33300000001327,
      "v": 100
    },
    {
      "midi": 42,
      "hit": false,
      "t": 133666.53299999994,
      "d": 1999.9979999999923,
      "v": 100
    },
    {
      "midi": 58,
      "hit": false,
      "t": 133999.86599999992,
      "d": 666.6659999999974,
      "v": 100
    },
    {
      "midi": 61,
      "hit": false,
      "t": 133999.86599999992,
      "d": 666.6659999999974,
      "v": 100
    },
    {
      "midi": 67,
      "hit": false,
      "t": 133999.86599999992,
      "d": 666.6659999999974,
      "v": 100
    },
    {
      "midi": 66,
      "hit": false,
      "t": 134666.53199999992,
      "d": 166.66649999999208,
      "v": 100
    },
    {
      "midi": 64,
      "hit": false,
      "t": 134833.1984999999,
      "d": 166.66649999999208,
      "v": 100
    },
    {
      "midi": 62,
      "hit": false,
      "t": 134999.8649999999,
      "d": 999.9990000000107,
      "v": 100
    },
    {
      "midi": 47,
      "hit": false,
      "t": 135999.86399999994,
      "d": 333.33300000001327,
      "v": 100
    },
    {
      "midi": 47,
      "hit": false,
      "t": 136333.19699999996,
      "d": 1333.3319999999949,
      "v": 100
    },
    {
      "midi": 59,
      "hit": false,
      "t": 136666.5299999999,
      "d": 666.6659999999974,
      "v": 100
    },
    {
      "midi": 62,
      "hit": false,
      "t": 136666.5299999999,
      "d": 666.6659999999974,
      "v": 100
    },
    {
      "midi": 66,
      "hit": false,
      "t": 136666.5299999999,
      "d": 666.6659999999974,
      "v": 100
    },
    {
      "midi": 64,
      "hit": false,
      "t": 137333.1959999999,
      "d": 333.33300000001327,
      "v": 100
    },
    {
      "midi": 62,
      "hit": false,
      "t": 137666.52899999992,
      "d": 333.33300000001327,
      "v": 100
    },
    {
      "midi": 62,
      "hit": false,
      "t": 137999.86199999994,
      "d": 333.33300000001327,
      "v": 100
    },
    {
      "midi": 47,
      "hit": false,
      "t": 137999.86199999996,
      "d": 666.6659999999974,
      "v": 100
    },
    {
      "midi": 59,
      "hit": false,
      "t": 138333.19499999995,
      "d": 333.33300000001327,
      "v": 100
    },
    {
      "midi": 62,
      "hit": false,
      "t": 138333.19499999995,
      "d": 333.33300000001327,
      "v": 100
    },
    {
      "midi": 66,
      "hit": false,
      "t": 138333.19499999995,
      "d": 333.33300000001327,
      "v": 100
    },
    {
      "midi": 62,
      "hit": false,
      "t": 138666.52799999996,
      "d": 666.6659999999974,
      "v": 100
    },
    {
      "midi": 66,
      "hit": false,
      "t": 138666.52799999996,
      "d": 666.6659999999974,
      "v": 100
    },
    {
      "midi": 47,
      "hit": false,
      "t": 138666.52799999996,
      "d": 333.33300000001327,
      "v": 100
    },
    {
      "midi": 47,
      "hit": false,
      "t": 138999.86099999998,
      "d": 1333.3319999999949,
      "v": 100
    },
    {
      "midi": 67,
      "hit": false,
      "t": 139333.19399999996,
      "d": 666.6659999999974,
      "v": 100
    },
    {
      "midi": 62,
      "hit": false,
      "t": 139999.85999999996,
      "d": 666.6659999999974,
      "v": 100
    },
    {
      "midi": 64,
      "hit": false,
      "t": 139999.85999999996,
      "d": 666.6659999999974,
      "v": 100
    },
    {
      "midi": 59,
      "hit": false,
      "t": 140666.52599999995,
      "d": 666.6659999999974,
      "v": 100
    },
    {
      "midi": 62,
      "hit": false,
      "t": 140666.52599999995,
      "d": 666.6659999999974,
      "v": 100
    },
    {
      "midi": 47,
      "hit": false,
      "t": 140666.52599999998,
      "d": 666.6659999999974,
      "v": 100
    },
    {
      "midi": 43,
      "hit": false,
      "t": 141333.19199999998,
      "d": 333.33300000001327,
      "v": 100
    },
    {
      "midi": 43,
      "hit": false,
      "t": 141666.525,
      "d": 999.9990000000107,
      "v": 100
    },
    {
      "midi": 59,
      "hit": false,
      "t": 141999.85799999995,
      "d": 666.6659999999974,
      "v": 100
    },
    {
      "midi": 62,
      "hit": false,
      "t": 142666.52399999995,
      "d": 666.6659999999974,
      "v": 100
    },
    {
      "midi": 59,
      "hit": false,
      "t": 143333.18999999994,
      "d": 666.6659999999974,
      "v": 100
    },
    {
      "midi": 62,
      "hit": false,
      "t": 143333.18999999994,
      "d": 666.6659999999974,
      "v": 100
    },
    {
      "midi": 66,
      "hit": false,
      "t": 143333.18999999994,
      "d": 666.6659999999974,
      "v": 100
    },
    {
      "midi": 47,
      "hit": false,
      "t": 143333.19,
      "d": 666.6659999999974,
      "v": 100
    },
    {
      "midi": 58,
      "hit": false,
      "t": 143999.85599999994,
      "d": 333.33300000001327,
      "v": 100
    },
    {
      "midi": 64,
      "hit": false,
      "t": 143999.85599999994,
      "d": 333.33300000001327,
      "v": 100
    },
    {
      "midi": 42,
      "hit": false,
      "t": 143999.856,
      "d": 333.33300000001327,
      "v": 100
    },
    {
      "midi": 42,
      "hit": false,
      "t": 144333.189,
      "d": 999.9990000000107,
      "v": 100
    },
    {
      "midi": 58,
      "hit": false,
      "t": 144666.52199999997,
      "d": 666.6659999999974,
      "v": 100
    },
    {
      "midi": 62,
      "hit": false,
      "t": 144666.52199999997,
      "d": 666.6659999999974,
      "v": 100
    },
    {
      "midi": 64,
      "hit": false,
      "t": 144666.52199999997,
      "d": 666.6659999999974,
      "v": 100
    },
    {
      "midi": 67,
      "hit": false,
      "t": 144666.52199999997,
      "d": 666.6659999999974,
      "v": 100
    },
    {
      "midi": 58,
      "hit": false,
      "t": 145333.18799999997,
      "d": 666.6659999999974,
      "v": 100
    },
    {
      "midi": 61,
      "hit": false,
      "t": 145333.18799999997,
      "d": 666.6659999999974,
      "v": 100
    },
    {
      "midi": 66,
      "hit": false,
      "t": 145333.18799999997,
      "d": 666.6659999999974,
      "v": 100
    },
    {
      "midi": 61,
      "hit": false,
      "t": 145999.85399999996,
      "d": 666.6659999999974,
      "v": 100
    },
    {
      "midi": 64,
      "hit": false,
      "t": 145999.85399999996,
      "d": 666.6659999999974,
      "v": 100
    },
    {
      "midi": 42,
      "hit": false,
      "t": 145999.85400000002,
      "d": 666.6659999999974,
      "v": 100
    },
    {
      "midi": 55,
      "hit": false,
      "t": 146666.51999999996,
      "d": 666.6659999999974,
      "v": 100
    },
    {
      "midi": 59,
      "hit": false,
      "t": 146666.51999999996,
      "d": 666.6659999999974,
      "v": 100
    },
    {
      "midi": 62,
      "hit": false,
      "t": 146666.51999999996,
      "d": 666.6659999999974,
      "v": 100
    },
    {
      "midi": 66,
      "hit": false,
      "t": 146666.51999999996,
      "d": 666.6659999999974,
      "v": 100
    },
    {
      "midi": 40,
      "hit": false,
      "t": 146666.52000000002,
      "d": 333.33300000001327,
      "v": 100
    },
    {
      "midi": 40,
      "hit": false,
      "t": 146999.85300000003,
      "d": 999.9990000000107,
      "v": 100
    },
    {
      "midi": 59,
      "hit": false,
      "t": 147333.18599999996,
      "d": 333.33300000001327,
      "v": 100
    },
    {
      "midi": 62,
      "hit": false,
      "t": 147333.18599999996,
      "d": 333.33300000001327,
      "v": 100
    },
    {
      "midi": 67,
      "hit": false,
      "t": 147333.18599999996,
      "d": 333.33300000001327,
      "v": 100
    },
    {
      "midi": 64,
      "hit": false,
      "t": 147666.51899999997,
      "d": 666.6659999999974,
      "v": 100
    },
    {
      "midi": 55,
      "hit": false,
      "t": 148666.51799999998,
      "d": 666.6659999999974,
      "v": 100
    },
    {
      "midi": 62,
      "hit": false,
      "t": 148666.51799999998,
      "d": 666.6659999999974,
      "v": 100
    },
    {
      "midi": 64,
      "hit": false,
      "t": 148666.51799999998,
      "d": 666.6659999999974,
      "v": 100
    },
    {
      "midi": 40,
      "hit": false,
      "t": 148666.51800000004,
      "d": 666.6659999999974,
      "v": 100
    },
    {
      "midi": 58,
      "hit": false,
      "t": 149333.18399999998,
      "d": 666.6659999999974,
      "v": 100
    },
    {
      "midi": 62,
      "hit": false,
      "t": 149333.18399999998,
      "d": 666.6659999999974,
      "v": 100
    },
    {
      "midi": 66,
      "hit": false,
      "t": 149333.18399999998,
      "d": 666.6659999999974,
      "v": 100
    },
    {
      "midi": 42,
      "hit": false,
      "t": 149333.18400000004,
      "d": 2666.6639999999898,
      "v": 100
    },
    {
      "midi": 58,
      "hit": false,
      "t": 149999.84999999998,
      "d": 333.33300000001327,
      "v": 100
    },
    {
      "midi": 61,
      "hit": false,
      "t": 149999.84999999998,
      "d": 333.33300000001327,
      "v": 100
    },
    {
      "midi": 67,
      "hit": false,
      "t": 149999.84999999998,
      "d": 333.33300000001327,
      "v": 100
    },
    {
      "midi": 64,
      "hit": false,
      "t": 150333.183,
      "d": 666.6659999999974,
      "v": 100
    },
    {
      "midi": 62,
      "hit": false,
      "t": 150999.849,
      "d": 333.33300000001327,
      "v": 100
    },
    {
      "midi": 58,
      "hit": false,
      "t": 151333.182,
      "d": 666.6659999999974,
      "v": 100
    },
    {
      "midi": 61,
      "hit": false,
      "t": 151333.182,
      "d": 666.6659999999974,
      "v": 100
    },
    {
      "midi": 61,
      "hit": false,
      "t": 151999.848,
      "d": 999.9990000000107,
      "v": 100
    },
    {
      "midi": 47,
      "hit": false,
      "t": 151999.84800000003,
      "d": 666.6659999999974,
      "v": 100
    },
    {
      "midi": 54,
      "hit": false,
      "t": 152666.51400000002,
      "d": 666.6659999999974,
      "v": 100
    },
    {
      "midi": 62,
      "hit": false,
      "t": 152999.847,
      "d": 1333.3319999999949,
      "v": 100
    },
    {
      "midi": 59,
      "hit": false,
      "t": 153333.18000000002,
      "d": 999.9990000000107,
      "v": 100
    },
    {
      "midi": 59,
      "hit": false,
      "t": 154333.17900000003,
      "d": 333.33300000001327,
      "v": 100
    },
    {
      "midi": 59,
      "hit": false,
      "t": 154666.51200000002,
      "d": 2666.6639999999898,
      "v": 100
    },
    {
      "midi": 62,
      "hit": false,
      "t": 154666.51200000002,
      "d": 2666.6639999999898,
      "v": 100
    },
    {
      "midi": 43,
      "hit": false,
      "t": 154666.51200000005,
      "d": 999.9990000000107,
      "v": 100
    },
    {
      "midi": 50,
      "hit": false,
      "t": 155666.51100000006,
      "d": 333.33300000001327,
      "v": 100
    },
    {
      "midi": 55,
      "hit": false,
      "t": 155999.84400000007,
      "d": 999.9990000000107,
      "v": 100
    },
    {
      "midi": 55,
      "hit": false,
      "t": 156999.84300000008,
      "d": 333.33300000001327,
      "v": 100
    },
    {
      "midi": 59,
      "hit": false,
      "t": 157333.176,
      "d": 2666.6639999999898,
      "v": 100
    },
    {
      "midi": 62,
      "hit": false,
      "t": 157333.176,
      "d": 2666.6639999999898,
      "v": 100
    },
    {
      "midi": 66,
      "hit": false,
      "t": 157333.176,
      "d": 2666.6639999999898,
      "v": 100
    },
    {
      "midi": 47,
      "hit": false,
      "t": 157333.1760000001,
      "d": 2666.6639999999898,
      "v": 100
    }
  ]
}