{
  "jsonPath": "Soul/R&B/Mariah Carey/till-the-end-of-time.json",
  "path": "Soul\\R&B\\Mariah Carey\\Till The End Of Time.mid",
  "name": "Till The End Of Time",
  "difficulty": "Advanced",
  "bpm": 64.00996848575885,
  "notes": [
    {
      "midi": 46,
      "hit": false,
      "t": 114357.188,
      "d": 492.1108499999973,
      "v": 75
    },
    {
      "midi": 60,
      "hit": false,
      "t": 114357.188,
      "d": 507.73341666666965,
      "v": 82
    },
    {
      "midi": 63,
      "hit": false,
      "t": 114357.188,
      "d": 531.1672666666709,
      "v": 75
    },
    {
      "midi": 53,
      "hit": false,
      "t": 114825.86499999999,
      "d": 703.0155000000086,
      "v": 40
    },
    {
      "midi": 63,
      "hit": false,
      "t": 115294.542,
      "d": 390.56416666666337,
      "v": 74
    },
    {
      "midi": 60,
      "hit": false,
      "t": 115294.542,
      "d": 413.9980166666646,
      "v": 79
    },
    {
      "midi": 53,
      "hit": false,
      "t": 115763.219,
      "d": 585.8462499999878,
      "v": 80
    },
    {
      "midi": 62,
      "hit": false,
      "t": 116231.896,
      "d": 507.73341666666965,
      "v": 57
    },
    {
      "midi": 58,
      "hit": false,
      "t": 116231.896,
      "d": 546.7898333333433,
      "v": 61
    },
    {
      "midi": 53,
      "hit": false,
      "t": 116700.57299999999,
      "d": 609.2801000000036,
      "v": 77
    },
    {
      "midi": 58,
      "hit": false,
      "t": 117169.25,
      "d": 507.73341666666965,
      "v": 55
    },
    {
      "midi": 62,
      "hit": false,
      "t": 117169.25,
      "d": 531.1672666666709,
      "v": 82
    },
    {
      "midi": 53,
      "hit": false,
      "t": 117637.927,
      "d": 468.6770000000106,
      "v": 77
    },
    {
      "midi": 60,
      "hit": false,
      "t": 118106.604,
      "d": 453.05443333333824,
      "v": 74
    },
    {
      "midi": 63,
      "hit": false,
      "t": 118106.604,
      "d": 492.11085000001185,
      "v": 76
    },
    {
      "midi": 53,
      "hit": false,
      "t": 118575.28100000002,
      "d": 468.67699999999604,
      "v": 62
    },
    {
      "midi": 60,
      "hit": false,
      "t": 119043.95800000001,
      "d": 351.5077500000043,
      "v": 70
    },
    {
      "midi": 63,
      "hit": false,
      "t": 119043.95800000001,
      "d": 351.5077500000043,
      "v": 64
    },
    {
      "midi": 53,
      "hit": false,
      "t": 119512.63500000002,
      "d": 413.9980166666646,
      "v": 90
    },
    {
      "midi": 63,
      "hit": false,
      "t": 119981.31200000002,
      "d": 234.33849999999802,
      "v": 75
    },
    {
      "midi": 58,
      "hit": false,
      "t": 119981.31200000002,
      "d": 296.82876666665834,
      "v": 76
    },
    {
      "midi": 62,
      "hit": false,
      "t": 120449.98900000002,
      "d": 351.5077500000043,
      "v": 76
    },
    {
      "midi": 60,
      "hit": false,
      "t": 120918.66600000003,
      "d": 492.1108499999973,
      "v": 91
    },
    {
      "midi": 58,
      "hit": false,
      "t": 121387.34300000002,
      "d": 413.9980166666646,
      "v": 92
    },
    {
      "midi": 58,
      "hit": false,
      "t": 121856.02000000002,
      "d": 429.620583333337,
      "v": 91
    },
    {
      "midi": 62,
      "hit": false,
      "t": 121856.02000000002,
      "d": 453.05443333333824,
      "v": 95
    },
    {
      "midi": 44,
      "hit": false,
      "t": 121856.02000000002,
      "d": 7498.832000000097,
      "v": 65
    },
    {
      "midi": 51,
      "hit": false,
      "t": 122324.69700000003,
      "d": 492.1108499999973,
      "v": 59
    },
    {
      "midi": 62,
      "hit": false,
      "t": 122793.37400000003,
      "d": 390.56416666666337,
      "v": 84
    },
    {
      "midi": 58,
      "hit": false,
      "t": 122793.37400000003,
      "d": 429.620583333337,
      "v": 67
    },
    {
      "midi": 51,
      "hit": false,
      "t": 123262.05100000004,
      "d": 413.9980166666646,
      "v": 90
    },
    {
      "midi": 60,
      "hit": false,
      "t": 123730.72800000003,
      "d": 531.1672666666709,
      "v": 56
    },
    {
      "midi": 56,
      "hit": false,
      "t": 123730.72800000003,
      "d": 546.7898333333433,
      "v": 42
    },
    {
      "midi": 51,
      "hit": false,
      "t": 124199.40500000004,
      "d": 492.1108499999973,
      "v": 39
    },
    {
      "midi": 56,
      "hit": false,
      "t": 124668.08200000004,
      "d": 413.9980166666646,
      "v": 67
    },
    {
      "midi": 60,
      "hit": false,
      "t": 124668.08200000004,
      "d": 429.620583333337,
      "v": 72
    },
    {
      "midi": 51,
      "hit": false,
      "t": 125136.75900000005,
      "d": 468.6770000000106,
      "v": 84
    },
    {
      "midi": 58,
      "hit": false,
      "t": 125605.43600000006,
      "d": 507.7334166666842,
      "v": 83
    },
    {
      "midi": 62,
      "hit": false,
      "t": 125605.43600000006,
      "d": 507.7334166666842,
      "v": 89
    },
    {
      "midi": 51,
      "hit": false,
      "t": 126074.11300000007,
      "d": 453.05443333333824,
      "v": 86
    },
    {
      "midi": 62,
      "hit": false,
      "t": 126542.79000000008,
      "d": 507.73341666666965,
      "v": 89
    },
    {
      "midi": 58,
      "hit": false,
      "t": 126542.79000000008,
      "d": 531.1672666666709,
      "v": 83
    },
    {
      "midi": 51,
      "hit": false,
      "t": 127011.46700000008,
      "d": 390.5641666666779,
      "v": 58
    },
    {
      "midi": 60,
      "hit": false,
      "t": 127480.14400000009,
      "d": 507.7334166666842,
      "v": 69
    },
    {
      "midi": 56,
      "hit": false,
      "t": 127480.14400000009,
      "d": 531.1672666666855,
      "v": 65
    },
    {
      "midi": 51,
      "hit": false,
      "t": 127948.8210000001,
      "d": 492.11085000001185,
      "v": 92
    },
    {
      "midi": 58,
      "hit": false,
      "t": 128417.49800000011,
      "d": 468.67699999999604,
      "v": 104
    },
    {
      "midi": 51,
      "hit": false,
      "t": 128886.1750000001,
      "d": 453.05443333333824,
      "v": 82
    },
    {
      "midi": 46,
      "hit": false,
      "t": 129354.85200000012,
      "d": 492.1108499999973,
      "v": 75
    },
    {
      "midi": 60,
      "hit": false,
      "t": 129354.85200000012,
      "d": 507.73341666666965,
      "v": 82
    },
    {
      "midi": 63,
      "hit": false,
      "t": 129354.85200000012,
      "d": 531.1672666666709,
      "v": 75
    },
    {
      "midi": 53,
      "hit": false,
      "t": 129823.52900000011,
      "d": 703.0155000000086,
      "v": 40
    },
    {
      "midi": 63,
      "hit": false,
      "t": 130292.20600000012,
      "d": 390.56416666666337,
      "v": 74
    },
    {
      "midi": 60,
      "hit": false,
      "t": 130292.20600000012,
      "d": 413.9980166666646,
      "v": 79
    },
    {
      "midi": 53,
      "hit": false,
      "t": 130760.88300000012,
      "d": 585.8462500000023,
      "v": 80
    },
    {
      "midi": 62,
      "hit": false,
      "t": 131229.5600000001,
      "d": 507.7334166666551,
      "v": 57
    },
    {
      "midi": 58,
      "hit": false,
      "t": 131229.5600000001,
      "d": 546.7898333333142,
      "v": 61
    },
    {
      "midi": 53,
      "hit": false,
      "t": 131698.2370000001,
      "d": 609.2801000000036,
      "v": 77
    },
    {
      "midi": 58,
      "hit": false,
      "t": 132166.9140000001,
      "d": 507.7334166666551,
      "v": 55
    },
    {
      "midi": 62,
      "hit": false,
      "t": 132166.9140000001,
      "d": 531.1672666666564,
      "v": 82
    },
    {
      "midi": 53,
      "hit": false,
      "t": 132635.5910000001,
      "d": 468.67699999999604,
      "v": 77
    },
    {
      "midi": 60,
      "hit": false,
      "t": 133104.2680000001,
      "d": 453.05443333333824,
      "v": 74
    },
    {
      "midi": 63,
      "hit": false,
      "t": 133104.2680000001,
      "d": 492.1108499999973,
      "v": 76
    },
    {
      "midi": 53,
      "hit": false,
      "t": 133572.9450000001,
      "d": 468.67699999999604,
      "v": 62
    },
    {
      "midi": 60,
      "hit": false,
      "t": 134041.6220000001,
      "d": 351.50774999998976,
      "v": 70
    },
    {
      "midi": 63,
      "hit": false,
      "t": 134041.6220000001,
      "d": 351.50774999998976,
      "v": 64
    },
    {
      "midi": 53,
      "hit": false,
      "t": 134510.2990000001,
      "d": 413.9980166666501,
      "v": 90
    },
    {
      "midi": 63,
      "hit": false,
      "t": 134978.97600000008,
      "d": 234.33850000001257,
      "v": 75
    },
    {
      "midi": 58,
      "hit": false,
      "t": 134978.97600000008,
      "d": 296.8287666666729,
      "v": 76
    },
    {
      "midi": 62,
      "hit": false,
      "t": 135447.65300000008,
      "d": 351.50774999998976,
      "v": 76
    },
    {
      "midi": 60,
      "hit": false,
      "t": 135916.33000000007,
      "d": 492.1108499999973,
      "v": 91
    },
    {
      "midi": 58,
      "hit": false,
      "t": 136385.00700000007,
      "d": 413.9980166666792,
      "v": 92
    },
    {
      "midi": 58,
      "hit": false,
      "t": 136853.6840000001,
      "d": 429.620583333337,
      "v": 91
    },
    {
      "midi": 62,
      "hit": false,
      "t": 136853.6840000001,
      "d": 453.05443333333824,
      "v": 95
    },
    {
      "midi": 44,
      "hit": false,
      "t": 136853.6840000001,
      "d": 7498.831999999966,
      "v": 65
    },
    {
      "midi": 51,
      "hit": false,
      "t": 137322.3610000001,
      "d": 492.1108499999973,
      "v": 59
    },
    {
      "midi": 62,
      "hit": false,
      "t": 137791.0380000001,
      "d": 390.5641666666779,
      "v": 84
    },
    {
      "midi": 58,
      "hit": false,
      "t": 137791.0380000001,
      "d": 429.620583333337,
      "v": 67
    },
    {
      "midi": 51,
      "hit": false,
      "t": 138259.71500000008,
      "d": 413.9980166666792,
      "v": 90
    },
    {
      "midi": 60,
      "hit": false,
      "t": 138728.3920000001,
      "d": 531.1672666666564,
      "v": 56
    },
    {
      "midi": 56,
      "hit": false,
      "t": 138728.3920000001,
      "d": 546.7898333333142,
      "v": 42
    },
    {
      "midi": 51,
      "hit": false,
      "t": 139197.0690000001,
      "d": 492.1108499999973,
      "v": 39
    },
    {
      "midi": 56,
      "hit": false,
      "t": 139665.7460000001,
      "d": 413.9980166666792,
      "v": 67
    },
    {
      "midi": 60,
      "hit": false,
      "t": 139665.7460000001,
      "d": 429.620583333337,
      "v": 72
    },
    {
      "midi": 51,
      "hit": false,
      "t": 140134.4230000001,
      "d": 468.67699999999604,
      "v": 84
    },
    {
      "midi": 58,
      "hit": false,
      "t": 140603.1000000001,
      "d": 507.7334166666551,
      "v": 83
    },
    {
      "midi": 62,
      "hit": false,
      "t": 140603.1000000001,
      "d": 507.7334166666551,
      "v": 89
    },
    {
      "midi": 51,
      "hit": false,
      "t": 141071.7770000001,
      "d": 453.05443333333824,
      "v": 86
    },
    {
      "midi": 62,
      "hit": false,
      "t": 141540.45400000009,
      "d": 507.7334166666551,
      "v": 89
    },
    {
      "midi": 58,
      "hit": false,
      "t": 141540.45400000009,
      "d": 531.1672666666564,
      "v": 83
    },
    {
      "midi": 51,
      "hit": false,
      "t": 142009.13100000008,
      "d": 390.5641666666779,
      "v": 58
    },
    {
      "midi": 60,
      "hit": false,
      "t": 142477.8080000001,
      "d": 507.7334166666551,
      "v": 69
    },
    {
      "midi": 56,
      "hit": false,
      "t": 142477.8080000001,
      "d": 531.1672666666564,
      "v": 65
    },
    {
      "midi": 51,
      "hit": false,
      "t": 142946.4850000001,
      "d": 492.1108499999973,
      "v": 92
    },
    {
      "midi": 58,
      "hit": false,
      "t": 143415.1620000001,
      "d": 468.67699999999604,
      "v": 104
    },
    {
      "midi": 51,
      "hit": false,
      "t": 143883.8390000001,
      "d": 453.05443333330913,
      "v": 82
    },
    {
      "midi": 63,
      "hit": false,
      "t": 144352.51600000006,
      "d": 492.1108500000264,
      "v": 89
    },
    {
      "midi": 67,
      "hit": false,
      "t": 144352.51600000006,
      "d": 492.1108500000264,
      "v": 89
    },
    {
      "midi": 51,
      "hit": false,
      "t": 144352.51600000006,
      "d": 3515.077499999985,
      "v": 83
    },
    {
      "midi": 58,
      "hit": false,
      "t": 144821.1930000001,
      "d": 531.1672666666564,
      "v": 90
    },
    {
      "midi": 67,
      "hit": false,
      "t": 145289.87000000008,
      "d": 492.1108499999973,
      "v": 82
    },
    {
      "midi": 63,
      "hit": false,
      "t": 145289.87000000008,
      "d": 507.7334166666551,
      "v": 74
    },
    {
      "midi": 58,
      "hit": false,
      "t": 145758.54700000008,
      "d": 453.05443333333824,
      "v": 54
    },
    {
      "midi": 67,
      "hit": false,
      "t": 146227.22400000007,
      "d": 453.05443333333824,
      "v": 87
    },
    {
      "midi": 63,
      "hit": false,
      "t": 146227.22400000007,
      "d": 507.7334166666551,
      "v": 82
    },
    {
      "midi": 58,
      "hit": false,
      "t": 146695.90100000007,
      "d": 570.2236833333154,
      "v": 36
    },
    {
      "midi": 63,
      "hit": false,
      "t": 147164.57800000007,
      "d": 374.941599999991,
      "v": 79
    },
    {
      "midi": 67,
      "hit": false,
      "t": 147164.57800000007,
      "d": 374.941599999991,
      "v": 82
    },
    {
      "midi": 58,
      "hit": false,
      "t": 147633.25500000006,
      "d": 413.9980166666501,
      "v": 78
    },
    {
      "midi": 69,
      "hit": false,
      "t": 148101.93200000006,
      "d": 413.9980166666792,
      "v": 95
    },
    {
      "midi": 65,
      "hit": false,
      "t": 148101.93200000006,
      "d": 453.05443333333824,
      "v": 92
    },
    {
      "midi": 51,
      "hit": false,
      "t": 148101.93200000006,
      "d": 3655.6806000000215,
      "v": 28
    },
    {
      "midi": 58,
      "hit": false,
      "t": 148570.60900000005,
      "d": 468.67699999999604,
      "v": 82
    },
    {
      "midi": 69,
      "hit": false,
      "t": 149039.28600000005,
      "d": 413.9980166666792,
      "v": 69
    },
    {
      "midi": 65,
      "hit": false,
      "t": 149039.28600000005,
      "d": 468.67700000002515,
      "v": 81
    },
    {
      "midi": 58,
      "hit": false,
      "t": 149507.96300000008,
      "d": 492.1108499999973,
      "v": 62
    },
    {
      "midi": 69,
      "hit": false,
      "t": 149976.64000000007,
      "d": 468.67699999999604,
      "v": 70
    },
    {
      "midi": 65,
      "hit": false,
      "t": 149976.64000000007,
      "d": 507.7334166666551,
      "v": 88
    },
    {
      "midi": 58,
      "hit": false,
      "t": 150445.31700000007,
      "d": 531.1672666666564,
      "v": 51
    },
    {
      "midi": 69,
      "hit": false,
      "t": 150913.99400000006,
      "d": 453.05443333333824,
      "v": 90
    },
    {
      "midi": 65,
      "hit": false,
      "t": 150913.99400000006,
      "d": 468.67699999999604,
      "v": 100
    },
    {
      "midi": 58,
      "hit": false,
      "t": 151382.67100000006,
      "d": 413.9980166666792,
      "v": 86
    },
    {
      "midi": 60,
      "hit": false,
      "t": 151851.3480000001,
      "d": 492.1108500000264,
      "v": 82
    },
    {
      "midi": 63,
      "hit": false,
      "t": 151851.3480000001,
      "d": 492.1108500000264,
      "v": 71
    },
    {
      "midi": 50,
      "hit": false,
      "t": 151851.3480000001,
      "d": 3788.472416666744,
      "v": 95
    },
    {
      "midi": 54,
      "hit": false,
      "t": 152320.0250000001,
      "d": 390.5641666666779,
      "v": 63
    },
    {
      "midi": 60,
      "hit": false,
      "t": 152788.70200000014,
      "d": 492.1108499999973,
      "v": 71
    },
    {
      "midi": 63,
      "hit": false,
      "t": 152788.70200000014,
      "d": 492.1108499999973,
      "v": 68
    },
    {
      "midi": 54,
      "hit": false,
      "t": 153257.37900000013,
      "d": 413.9980166666792,
      "v": 67
    },
    {
      "midi": 60,
      "hit": false,
      "t": 153726.05600000016,
      "d": 468.67699999999604,
      "v": 84
    },
    {
      "midi": 57,
      "hit": false,
      "t": 153726.05600000016,
      "d": 492.1108499999973,
      "v": 85
    },
    {
      "midi": 54,
      "hit": false,
      "t": 154194.73300000015,
      "d": 390.5641666666779,
      "v": 75
    },
    {
      "midi": 57,
      "hit": false,
      "t": 154663.41000000018,
      "d": 507.7334166666551,
      "v": 84
    },
    {
      "midi": 60,
      "hit": false,
      "t": 154663.41000000018,
      "d": 507.7334166666551,
      "v": 89
    },
    {
      "midi": 54,
      "hit": false,
      "t": 155132.08700000017,
      "d": 429.620583333337,
      "v": 98
    },
    {
      "midi": 58,
      "hit": false,
      "t": 155600.76400000017,
      "d": 507.7334166666551,
      "v": 68
    },
    {
      "midi": 62,
      "hit": false,
      "t": 155600.76400000017,
      "d": 531.1672666666564,
      "v": 89
    },
    {
      "midi": 43,
      "hit": false,
      "t": 155600.76400000017,
      "d": 3632.246749999991,
      "v": 84
    },
    {
      "midi": 55,
      "hit": false,
      "t": 156069.44100000017,
      "d": 507.7334166666551,
      "v": 53
    },
    {
      "midi": 58,
      "hit": false,
      "t": 156538.11800000016,
      "d": 351.50774999998976,
      "v": 87
    },
    {
      "midi": 62,
      "hit": false,
      "t": 156538.11800000016,
      "d": 390.5641666666488,
      "v": 91
    },
    {
      "midi": 55,
      "hit": false,
      "t": 157006.79500000016,
      "d": 2265.272166666662,
      "v": 85
    },
    {
      "midi": 70,
      "hit": false,
      "t": 157475.47200000015,
      "d": 273.39491666667163,
      "v": 71
    },
    {
      "midi": 67,
      "hit": false,
      "t": 157475.47200000015,
      "d": 296.8287666666729,
      "v": 94
    },
    {
      "midi": 62,
      "hit": false,
      "t": 157475.47200000015,
      "d": 351.50775000001886,
      "v": 91
    },
    {
      "midi": 62,
      "hit": false,
      "t": 157944.14900000018,
      "d": 179.6595166666666,
      "v": 45
    },
    {
      "midi": 69,
      "hit": false,
      "t": 157944.14900000018,
      "d": 195.2820833333244,
      "v": 67
    },
    {
      "midi": 65,
      "hit": false,
      "t": 158412.82600000018,
      "d": 765.5057666666689,
      "v": 92
    },
    {
      "midi": 60,
      "hit": false,
      "t": 158412.82600000018,
      "d": 781.1283333333267,
      "v": 73
    },
    {
      "midi": 63,
      "hit": false,
      "t": 159350.18000000014,
      "d": 492.1108500000264,
      "v": 89
    },
    {
      "midi": 67,
      "hit": false,
      "t": 159350.18000000014,
      "d": 492.1108500000264,
      "v": 89
    },
    {
      "midi": 51,
      "hit": false,
      "t": 159350.18000000014,
      "d": 3515.077499999985,
      "v": 83
    },
    {
      "midi": 58,
      "hit": false,
      "t": 159818.85700000016,
      "d": 531.1672666666564,
      "v": 90
    },
    {
      "midi": 67,
      "hit": false,
      "t": 160287.53400000016,
      "d": 492.1108499999973,
      "v": 82
    },
    {
      "midi": 63,
      "hit": false,
      "t": 160287.53400000016,
      "d": 507.7334166666551,
      "v": 74
    },
    {
      "midi": 58,
      "hit": false,
      "t": 160756.21100000016,
      "d": 453.05443333333824,
      "v": 54
    },
    {
      "midi": 67,
      "hit": false,
      "t": 161224.88800000015,
      "d": 453.05443333333824,
      "v": 87
    },
    {
      "midi": 63,
      "hit": false,
      "t": 161224.88800000015,
      "d": 507.7334166666551,
      "v": 82
    },
    {
      "midi": 58,
      "hit": false,
      "t": 161693.56500000015,
      "d": 570.2236833333154,
      "v": 36
    },
    {
      "midi": 63,
      "hit": false,
      "t": 162162.24200000014,
      "d": 374.941599999991,
      "v": 79
    },
    {
      "midi": 67,
      "hit": false,
      "t": 162162.24200000014,
      "d": 374.941599999991,
      "v": 82
    },
    {
      "midi": 58,
      "hit": false,
      "t": 162630.91900000014,
      "d": 413.9980166666501,
      "v": 78
    },
    {
      "midi": 69,
      "hit": false,
      "t": 163099.59600000014,
      "d": 413.9980166666792,
      "v": 95
    },
    {
      "midi": 65,
      "hit": false,
      "t": 163099.59600000014,
      "d": 453.05443333333824,
      "v": 92
    },
    {
      "midi": 51,
      "hit": false,
      "t": 163099.59600000014,
      "d": 3655.6806000000215,
      "v": 28
    },
    {
      "midi": 58,
      "hit": false,
      "t": 163568.27300000013,
      "d": 468.67699999999604,
      "v": 82
    },
    {
      "midi": 69,
      "hit": false,
      "t": 164036.95000000013,
      "d": 413.9980166666792,
      "v": 69
    },
    {
      "midi": 65,
      "hit": false,
      "t": 164036.95000000013,
      "d": 468.67700000002515,
      "v": 81
    },
    {
      "midi": 58,
      "hit": false,
      "t": 164505.62700000015,
      "d": 492.1108499999973,
      "v": 62
    },
    {
      "midi": 69,
      "hit": false,
      "t": 164974.30400000015,
      "d": 468.67699999999604,
      "v": 70
    },
    {
      "midi": 65,
      "hit": false,
      "t": 164974.30400000015,
      "d": 507.7334166666551,
      "v": 88
    },
    {
      "midi": 58,
      "hit": false,
      "t": 165442.98100000015,
      "d": 531.1672666666564,
      "v": 51
    },
    {
      "midi": 69,
      "hit": false,
      "t": 165911.65800000014,
      "d": 453.05443333333824,
      "v": 90
    },
    {
      "midi": 65,
      "hit": false,
      "t": 165911.65800000014,
      "d": 468.67699999999604,
      "v": 100
    },
    {
      "midi": 58,
      "hit": false,
      "t": 166380.33500000014,
      "d": 413.9980166666792,
      "v": 86
    },
    {
      "midi": 60,
      "hit": false,
      "t": 166849.01200000016,
      "d": 492.1108500000264,
      "v": 82
    },
    {
      "midi": 63,
      "hit": false,
      "t": 166849.01200000016,
      "d": 492.1108500000264,
      "v": 71
    },
    {
      "midi": 50,
      "hit": false,
      "t": 166849.01200000016,
      "d": 3788.472416666744,
      "v": 95
    },
    {
      "midi": 54,
      "hit": false,
      "t": 167317.6890000002,
      "d": 390.5641666666779,
      "v": 63
    },
    {
      "midi": 60,
      "hit": false,
      "t": 167786.3660000002,
      "d": 492.1108499999973,
      "v": 71
    },
    {
      "midi": 63,
      "hit": false,
      "t": 167786.3660000002,
      "d": 492.1108499999973,
      "v": 68
    },
    {
      "midi": 54,
      "hit": false,
      "t": 168255.0430000002,
      "d": 413.9980166666792,
      "v": 67
    },
    {
      "midi": 60,
      "hit": false,
      "t": 168723.72000000023,
      "d": 468.67699999999604,
      "v": 84
    },
    {
      "midi": 57,
      "hit": false,
      "t": 168723.72000000023,
      "d": 492.1108499999973,
      "v": 85
    },
    {
      "midi": 54,
      "hit": false,
      "t": 169192.39700000023,
      "d": 390.5641666666779,
      "v": 75
    },
    {
      "midi": 57,
      "hit": false,
      "t": 169661.07400000026,
      "d": 507.7334166666551,
      "v": 84
    },
    {
      "midi": 60,
      "hit": false,
      "t": 169661.07400000026,
      "d": 507.7334166666551,
      "v": 89
    },
    {
      "midi": 54,
      "hit": false,
      "t": 170129.75100000025,
      "d": 429.620583333337,
      "v": 98
    },
    {
      "midi": 62,
      "hit": false,
      "t": 170598.42800000025,
      "d": 492.1108499999973,
      "v": 88
    },
    {
      "midi": 58,
      "hit": false,
      "t": 170598.42800000025,
      "d": 531.1672666666564,
      "v": 74
    },
    {
      "midi": 43,
      "hit": false,
      "t": 170598.42800000025,
      "d": 3515.0774999999558,
      "v": 79
    },
    {
      "midi": 55,
      "hit": false,
      "t": 171067.10500000024,
      "d": 468.67699999999604,
      "v": 66
    },
    {
      "midi": 58,
      "hit": false,
      "t": 171535.78200000024,
      "d": 570.2236833333154,
      "v": 84
    },
    {
      "midi": 62,
      "hit": false,
      "t": 171535.78200000024,
      "d": 585.8462499999732,
      "v": 92
    },
    {
      "midi": 55,
      "hit": false,
      "t": 172004.45900000024,
      "d": 531.1672666666273,
      "v": 68
    },
    {
      "midi": 58,
      "hit": false,
      "t": 172473.1360000002,
      "d": 546.7898333333433,
      "v": 71
    },
    {
      "midi": 62,
      "hit": false,
      "t": 172473.1360000002,
      "d": 546.7898333333433,
      "v": 92
    },
    {
      "midi": 55,
      "hit": false,
      "t": 172941.8130000002,
      "d": 507.7334166666842,
      "v": 66
    },
    {
      "midi": 58,
      "hit": false,
      "t": 173410.49000000022,
      "d": 374.941599999991,
      "v": 74
    },
    {
      "midi": 62,
      "hit": false,
      "t": 173410.49000000022,
      "d": 507.7334166666551,
      "v": 92
    },
    {
      "midi": 55,
      "hit": false,
      "t": 173879.16700000022,
      "d": 351.50774999998976,
      "v": 89
    },
    {
      "midi": 61,
      "hit": false,
      "t": 174347.8440000002,
      "d": 492.1108500000264,
      "v": 89
    },
    {
      "midi": 58,
      "hit": false,
      "t": 174347.8440000002,
      "d": 546.7898333333724,
      "v": 82
    },
    {
      "midi": 66,
      "hit": false,
      "t": 174347.8440000002,
      "d": 585.8462500000314,
      "v": 86
    },
    {
      "midi": 42,
      "hit": false,
      "t": 174347.8440000002,
      "d": 1117.0135166666878,
      "v": 84
    },
    {
      "midi": 61,
      "hit": false,
      "t": 175285.1980000002,
      "d": 570.2236833333154,
      "v": 84
    },
    {
      "midi": 66,
      "hit": false,
      "t": 175285.1980000002,
      "d": 585.8462499999732,
      "v": 90
    },
    {
      "midi": 58,
      "hit": false,
      "t": 175285.1980000002,
      "d": 609.2800999999745,
      "v": 78
    },
    {
      "midi": 42,
      "hit": false,
      "t": 175753.8750000002,
      "d": 1585.6905166666547,
      "v": 107
    },
    {
      "midi": 61,
      "hit": false,
      "t": 176222.5520000002,
      "d": 687.3929333333217,
      "v": 82
    },
    {
      "midi": 66,
      "hit": false,
      "t": 176222.5520000002,
      "d": 687.3929333333217,
      "v": 84
    },
    {
      "midi": 58,
      "hit": false,
      "t": 176222.5520000002,
      "d": 742.0719166666677,
      "v": 71
    },
    {
      "midi": 61,
      "hit": false,
      "t": 177159.9060000002,
      "d": 624.9026666666614,
      "v": 80
    },
    {
      "midi": 58,
      "hit": false,
      "t": 177159.9060000002,
      "d": 687.3929333333217,
      "v": 86
    },
    {
      "midi": 66,
      "hit": false,
      "t": 177159.9060000002,
      "d": 703.0154999999795,
      "v": 85
    },
    {
      "midi": 42,
      "hit": false,
      "t": 177628.5830000002,
      "d": 4202.470433333307,
      "v": 86
    },
    {
      "midi": 58,
      "hit": false,
      "t": 178097.26000000018,
      "d": 648.3365166666918,
      "v": 72
    },
    {
      "midi": 61,
      "hit": false,
      "t": 178097.26000000018,
      "d": 648.3365166666918,
      "v": 86
    },
    {
      "midi": 66,
      "hit": false,
      "t": 178097.26000000018,
      "d": 648.3365166666918,
      "v": 75
    },
    {
      "midi": 54,
      "hit": false,
      "t": 178097.26000000018,
      "d": 1132.6360833333456,
      "v": 91
    },
    {
      "midi": 58,
      "hit": false,
      "t": 179034.6140000002,
      "d": 765.5057666666689,
      "v": 82
    },
    {
      "midi": 61,
      "hit": false,
      "t": 179034.6140000002,
      "d": 765.5057666666689,
      "v": 88
    },
    {
      "midi": 66,
      "hit": false,
      "t": 179034.6140000002,
      "d": 765.5057666666689,
      "v": 90
    },
    {
      "midi": 54,
      "hit": false,
      "t": 179503.2910000002,
      "d": 335.88518333333195,
      "v": 61
    },
    {
      "midi": 70,
      "hit": false,
      "t": 179971.9680000002,
      "d": 531.1672666666564,
      "v": 63
    },
    {
      "midi": 61,
      "hit": false,
      "t": 179971.9680000002,
      "d": 687.3929333333217,
      "v": 84
    },
    {
      "midi": 58,
      "hit": false,
      "t": 179971.9680000002,
      "d": 703.0154999999795,
      "v": 78
    },
    {
      "midi": 66,
      "hit": false,
      "t": 179971.9680000002,
      "d": 703.0154999999795,
      "v": 76
    },
    {
      "midi": 54,
      "hit": false,
      "t": 179971.9680000002,
      "d": 1234.1827666666359,
      "v": 49
    },
    {
      "midi": 68,
      "hit": false,
      "t": 180440.6450000002,
      "d": 429.6205833333079,
      "v": 91
    },
    {
      "midi": 66,
      "hit": false,
      "t": 180909.32200000016,
      "d": 585.8462500000023,
      "v": 88
    },
    {
      "midi": 58,
      "hit": false,
      "t": 180909.32200000016,
      "d": 609.2801000000036,
      "v": 89
    },
    {
      "midi": 61,
      "hit": false,
      "t": 180909.32200000016,
      "d": 609.2801000000036,
      "v": 88
    },
    {
      "midi": 63,
      "hit": false,
      "t": 181377.99900000016,
      "d": 296.8287666666729,
      "v": 86
    },
    {
      "midi": 54,
      "hit": false,
      "t": 181377.99900000016,
      "d": 429.620583333337,
      "v": 71
    },
    {
      "midi": 53,
      "hit": false,
      "t": 181846.67600000015,
      "d": 742.0719166666677,
      "v": 90
    },
    {
      "midi": 62,
      "hit": false,
      "t": 181846.67600000015,
      "d": 742.0719166666677,
      "v": 97
    },
    {
      "midi": 58,
      "hit": false,
      "t": 181846.67600000015,
      "d": 765.5057666666689,
      "v": 78
    },
    {
      "midi": 46,
      "hit": false,
      "t": 181846.67600000015,
      "d": 1288.8617499999818,
      "v": 86
    },
    {
      "midi": 62,
      "hit": false,
      "t": 182784.03000000014,
      "d": 507.7334166666551,
      "v": 102
    },
    {
      "midi": 53,
      "hit": false,
      "t": 182784.03000000014,
      "d": 585.8462500000023,
      "v": 95
    },
    {
      "midi": 58,
      "hit": false,
      "t": 182784.03000000014,
      "d": 624.9026666666614,
      "v": 84
    },
    {
      "midi": 46,
      "hit": false,
      "t": 183252.70700000014,
      "d": 257.77235000001383,
      "v": 67
    },
    {
      "midi": 53,
      "hit": false,
      "t": 183721.38400000017,
      "d": 257.77235000001383,
      "v": 92
    },
    {
      "midi": 58,
      "hit": false,
      "t": 183721.38400000017,
      "d": 335.88518333336106,
      "v": 87
    },
    {
      "midi": 46,
      "hit": false,
      "t": 183721.38400000017,
      "d": 1820.0290166666382,
      "v": 80
    },
    {
      "midi": 58,
      "hit": false,
      "t": 184190.0610000002,
      "d": 156.22566666666535,
      "v": 87
    },
    {
      "midi": 60,
      "hit": false,
      "t": 184190.0610000002,
      "d": 156.22566666666535,
      "v": 82
    },
    {
      "midi": 58,
      "hit": false,
      "t": 184658.7380000002,
      "d": 195.2820833333244,
      "v": 102
    },
    {
      "midi": 62,
      "hit": false,
      "t": 184658.7380000002,
      "d": 257.7723499999847,
      "v": 97
    },
    {
      "midi": 62,
      "hit": false,
      "t": 185127.41500000015,
      "d": 374.941599999991,
      "v": 126
    },
    {
      "midi": 65,
      "hit": false,
      "t": 185127.41500000015,
      "d": 374.941599999991,
      "v": 126
    },
    {
      "midi": 41,
      "hit": false,
      "t": 185596.09200000015,
      "d": 140.60310000000754,
      "v": 102
    },
    {
      "midi": 63,
      "hit": false,
      "t": 185596.09200000015,
      "d": 453.05443333333824,
      "v": 84
    },
    {
      "midi": 60,
      "hit": false,
      "t": 185596.09200000015,
      "d": 492.1108499999973,
      "v": 95
    },
    {
      "midi": 56,
      "hit": false,
      "t": 186064.76900000015,
      "d": 492.1108499999973,
      "v": 77
    },
    {
      "midi": 60,
      "hit": false,
      "t": 186533.44600000014,
      "d": 507.7334166666551,
      "v": 99
    },
    {
      "midi": 63,
      "hit": false,
      "t": 186533.44600000014,
      "d": 531.1672666666564,
      "v": 81
    },
    {
      "midi": 41,
      "hit": false,
      "t": 187002.12300000014,
      "d": 195.2820833333244,
      "v": 116
    },
    {
      "midi": 63,
      "hit": false,
      "t": 187470.80000000013,
      "d": 468.67699999999604,
      "v": 79
    },
    {
      "midi": 60,
      "hit": false,
      "t": 187470.80000000013,
      "d": 507.7334166666551,
      "v": 80
    },
    {
      "midi": 56,
      "hit": false,
      "t": 187939.47700000013,
      "d": 507.7334166666551,
      "v": 74
    },
    {
      "midi": 60,
      "hit": false,
      "t": 188408.15400000013,
      "d": 531.1672666666564,
      "v": 103
    },
    {
      "midi": 63,
      "hit": false,
      "t": 188408.15400000013,
      "d": 531.1672666666564,
      "v": 88
    },
    {
      "midi": 56,
      "hit": false,
      "t": 188876.83100000012,
      "d": 335.88518333333195,
      "v": 107
    },
    {
      "midi": 37,
      "hit": false,
      "t": 189345.50800000012,
      "d": 117.16925000000629,
      "v": 98
    },
    {
      "midi": 61,
      "hit": false,
      "t": 189345.50800000012,
      "d": 312.4513333333307,
      "v": 91
    },
    {
      "midi": 56,
      "hit": false,
      "t": 189345.50800000012,
      "d": 351.50774999998976,
      "v": 97
    },
    {
      "midi": 53,
      "hit": false,
      "t": 189814.1850000001,
      "d": 374.941599999991,
      "v": 84
    },
    {
      "midi": 61,
      "hit": false,
      "t": 190282.8620000001,
      "d": 195.2820833333244,
      "v": 47
    },
    {
      "midi": 56,
      "hit": false,
      "t": 190282.8620000001,
      "d": 296.8287666666438,
      "v": 74
    },
    {
      "midi": 37,
      "hit": false,
      "t": 190751.53900000008,
      "d": 179.6595166666666,
      "v": 104
    },
    {
      "midi": 61,
      "hit": false,
      "t": 191220.21600000007,
      "d": 390.5641666666779,
      "v": 58
    },
    {
      "midi": 56,
      "hit": false,
      "t": 191220.21600000007,
      "d": 429.620583333337,
      "v": 81
    },
    {
      "midi": 53,
      "hit": false,
      "t": 191688.89300000007,
      "d": 390.5641666666779,
      "v": 99
    },
    {
      "midi": 56,
      "hit": false,
      "t": 192157.5700000001,
      "d": 507.7334166666551,
      "v": 109
    },
    {
      "midi": 61,
      "hit": false,
      "t": 192157.5700000001,
      "d": 507.7334166666551,
      "v": 104
    },
    {
      "midi": 53,
      "hit": false,
      "t": 192626.2470000001,
      "d": 390.5641666666488,
      "v": 127
    },
    {
      "midi": 61,
      "hit": false,
      "t": 193094.9240000001,
      "d": 468.67699999999604,
      "v": 87
    },
    {
      "midi": 58,
      "hit": false,
      "t": 193094.9240000001,
      "d": 507.7334166666551,
      "v": 92
    },
    {
      "midi": 46,
      "hit": false,
      "t": 193094.9240000001,
      "d": 999.8442666666524,
      "v": 90
    },
    {
      "midi": 54,
      "hit": false,
      "t": 193563.60100000008,
      "d": 648.3365166666626,
      "v": 101
    },
    {
      "midi": 61,
      "hit": false,
      "t": 194032.27800000008,
      "d": 453.05443333333824,
      "v": 82
    },
    {
      "midi": 58,
      "hit": false,
      "t": 194032.27800000008,
      "d": 468.67699999999604,
      "v": 94
    },
    {
      "midi": 46,
      "hit": false,
      "t": 194500.95500000007,
      "d": 2304.3285833333503,
      "v": 114
    },
    {
      "midi": 61,
      "hit": false,
      "t": 194969.6320000001,
      "d": 468.67699999999604,
      "v": 85
    },
    {
      "midi": 58,
      "hit": false,
      "t": 194969.6320000001,
      "d": 507.7334166666551,
      "v": 94
    },
    {
      "midi": 54,
      "hit": false,
      "t": 195438.3090000001,
      "d": 507.7334166666551,
      "v": 104
    },
    {
      "midi": 58,
      "hit": false,
      "t": 195906.9860000001,
      "d": 492.1108499999973,
      "v": 117
    },
    {
      "midi": 61,
      "hit": false,
      "t": 195906.9860000001,
      "d": 492.1108499999973,
      "v": 99
    },
    {
      "midi": 54,
      "hit": false,
      "t": 196375.6630000001,
      "d": 413.9980166666792,
      "v": 117
    },
    {
      "midi": 39,
      "hit": false,
      "t": 196844.34000000008,
      "d": 156.22566666669445,
      "v": 87
    },
    {
      "midi": 58,
      "hit": false,
      "t": 196844.34000000008,
      "d": 492.1108500000264,
      "v": 92
    },
    {
      "midi": 54,
      "hit": false,
      "t": 196844.34000000008,
      "d": 507.7334166666842,
      "v": 91
    },
    {
      "midi": 51,
      "hit": false,
      "t": 197313.0170000001,
      "d": 546.7898333333433,
      "v": 97
    },
    {
      "midi": 54,
      "hit": false,
      "t": 197781.6940000001,
      "d": 468.67700000002515,
      "v": 98
    },
    {
      "midi": 58,
      "hit": false,
      "t": 197781.6940000001,
      "d": 468.67700000002515,
      "v": 94
    },
    {
      "midi": 39,
      "hit": false,
      "t": 198250.37100000013,
      "d": 296.8287666666729,
      "v": 125
    },
    {
      "midi": 58,
      "hit": false,
      "t": 198719.04800000013,
      "d": 507.7334166666551,
      "v": 85
    },
    {
      "midi": 54,
      "hit": false,
      "t": 198719.04800000013,
      "d": 531.1672666666564,
      "v": 91
    },
    {
      "midi": 51,
      "hit": false,
      "t": 199187.72500000012,
      "d": 468.67699999999604,
      "v": 114
    },
    {
      "midi": 58,
      "hit": false,
      "t": 199656.40200000012,
      "d": 531.1672666666564,
      "v": 114
    },
    {
      "midi": 54,
      "hit": false,
      "t": 199656.40200000012,
      "d": 546.7898333333142,
      "v": 122
    },
    {
      "midi": 51,
      "hit": false,
      "t": 200125.0790000001,
      "d": 468.67699999999604,
      "v": 90
    },
    {
      "midi": 41,
      "hit": false,
      "t": 200593.7560000001,
      "d": 140.60310000000754,
      "v": 102
    },
    {
      "midi": 63,
      "hit": false,
      "t": 200593.7560000001,
      "d": 453.05443333333824,
      "v": 84
    },
    {
      "midi": 60,
      "hit": false,
      "t": 200593.7560000001,
      "d": 492.1108499999973,
      "v": 95
    },
    {
      "midi": 56,
      "hit": false,
      "t": 201062.4330000001,
      "d": 492.1108499999973,
      "v": 77
    },
    {
      "midi": 60,
      "hit": false,
      "t": 201531.1100000001,
      "d": 507.7334166666551,
      "v": 99
    },
    {
      "midi": 63,
      "hit": false,
      "t": 201531.1100000001,
      "d": 531.1672666666564,
      "v": 81
    },
    {
      "midi": 41,
      "hit": false,
      "t": 201999.7870000001,
      "d": 195.2820833333244,
      "v": 116
    },
    {
      "midi": 63,
      "hit": false,
      "t": 202468.4640000001,
      "d": 468.67699999999604,
      "v": 79
    },
    {
      "midi": 60,
      "hit": false,
      "t": 202468.4640000001,
      "d": 507.7334166666551,
      "v": 80
    },
    {
      "midi": 56,
      "hit": false,
      "t": 202937.1410000001,
      "d": 507.7334166666551,
      "v": 74
    },
    {
      "midi": 60,
      "hit": false,
      "t": 203405.8180000001,
      "d": 531.1672666666564,
      "v": 103
    },
    {
      "midi": 63,
      "hit": false,
      "t": 203405.8180000001,
      "d": 531.1672666666564,
      "v": 88
    },
    {
      "midi": 56,
      "hit": false,
      "t": 203874.49500000008,
      "d": 335.88518333333195,
      "v": 107
    },
    {
      "midi": 37,
      "hit": false,
      "t": 204343.17200000008,
      "d": 117.16925000000629,
      "v": 98
    },
    {
      "midi": 61,
      "hit": false,
      "t": 204343.17200000008,
      "d": 312.4513333333307,
      "v": 91
    },
    {
      "midi": 56,
      "hit": false,
      "t": 204343.17200000008,
      "d": 351.50774999998976,
      "v": 97
    },
    {
      "midi": 53,
      "hit": false,
      "t": 204811.84900000007,
      "d": 374.941599999991,
      "v": 84
    },
    {
      "midi": 61,
      "hit": false,
      "t": 205280.52600000007,
      "d": 195.2820833333244,
      "v": 47
    },
    {
      "midi": 56,
      "hit": false,
      "t": 205280.52600000007,
      "d": 296.8287666666438,
      "v": 74
    },
    {
      "midi": 37,
      "hit": false,
      "t": 205749.20300000004,
      "d": 179.6595166666666,
      "v": 104
    },
    {
      "midi": 61,
      "hit": false,
      "t": 206217.88000000003,
      "d": 390.5641666666779,
      "v": 58
    },
    {
      "midi": 56,
      "hit": false,
      "t": 206217.88000000003,
      "d": 429.620583333337,
      "v": 81
    },
    {
      "midi": 53,
      "hit": false,
      "t": 206686.55700000003,
      "d": 390.5641666666779,
      "v": 99
    },
    {
      "midi": 56,
      "hit": false,
      "t": 207155.23400000005,
      "d": 507.7334166666551,
      "v": 109
    },
    {
      "midi": 61,
      "hit": false,
      "t": 207155.23400000005,
      "d": 507.7334166666551,
      "v": 104
    },
    {
      "midi": 53,
      "hit": false,
      "t": 207623.91100000005,
      "d": 390.5641666666488,
      "v": 127
    },
    {
      "midi": 61,
      "hit": false,
      "t": 208092.58800000005,
      "d": 468.67699999999604,
      "v": 87
    },
    {
      "midi": 58,
      "hit": false,
      "t": 208092.58800000005,
      "d": 507.7334166666551,
      "v": 92
    },
    {
      "midi": 46,
      "hit": false,
      "t": 208092.58800000005,
      "d": 999.8442666666524,
      "v": 90
    },
    {
      "midi": 54,
      "hit": false,
      "t": 208561.26500000004,
      "d": 648.3365166666626,
      "v": 101
    },
    {
      "midi": 61,
      "hit": false,
      "t": 209029.94200000004,
      "d": 453.05443333333824,
      "v": 82
    },
    {
      "midi": 58,
      "hit": false,
      "t": 209029.94200000004,
      "d": 468.67699999999604,
      "v": 94
    },
    {
      "midi": 46,
      "hit": false,
      "t": 209498.61900000004,
      "d": 2304.3285833333503,
      "v": 114
    },
    {
      "midi": 61,
      "hit": false,
      "t": 209967.29600000006,
      "d": 468.67699999999604,
      "v": 85
    },
    {
      "midi": 58,
      "hit": false,
      "t": 209967.29600000006,
      "d": 507.7334166666551,
      "v": 94
    },
    {
      "midi": 54,
      "hit": false,
      "t": 210435.97300000006,
      "d": 507.7334166666551,
      "v": 104
    },
    {
      "midi": 58,
      "hit": false,
      "t": 210904.65000000005,
      "d": 492.1108499999973,
      "v": 117
    },
    {
      "midi": 61,
      "hit": false,
      "t": 210904.65000000005,
      "d": 492.1108499999973,
      "v": 99
    },
    {
      "midi": 54,
      "hit": false,
      "t": 211373.32700000005,
      "d": 413.9980166666792,
      "v": 117
    },
    {
      "midi": 41,
      "hit": false,
      "t": 211842.00400000004,
      "d": 101.54668333334848,
      "v": 99
    },
    {
      "midi": 63,
      "hit": false,
      "t": 211842.00400000004,
      "d": 179.6595166666957,
      "v": 85
    },
    {
      "midi": 58,
      "hit": false,
      "t": 211842.00400000004,
      "d": 218.71593333335477,
      "v": 94
    },
    {
      "midi": 55,
      "hit": false,
      "t": 212310.68100000007,
      "d": 585.8462500000023,
      "v": 98
    },
    {
      "midi": 63,
      "hit": false,
      "t": 212779.35800000007,
      "d": 335.88518333333195,
      "v": 79
    },
    {
      "midi": 58,
      "hit": false,
      "t": 212779.35800000007,
      "d": 351.50774999998976,
      "v": 99
    },
    {
      "midi": 41,
      "hit": false,
      "t": 213248.03500000006,
      "d": 257.77235000001383,
      "v": 96
    },
    {
      "midi": 58,
      "hit": false,
      "t": 213716.7120000001,
      "d": 507.7334166666551,
      "v": 109
    },
    {
      "midi": 63,
      "hit": false,
      "t": 213716.7120000001,
      "d": 507.7334166666551,
      "v": 92
    },
    {
      "midi": 55,
      "hit": false,
      "t": 214185.38900000008,
      "d": 140.60309999997844,
      "v": 108
    },
    {
      "midi": 58,
      "hit": false,
      "t": 214654.06600000005,
      "d": 937.3539999999921,
      "v": 102
    },
    {
      "midi": 63,
      "hit": false,
      "t": 214654.06600000005,
      "d": 937.3539999999921,
      "v": 90
    },
    {
      "midi": 55,
      "hit": false,
      "t": 214654.06600000005,
      "d": 960.7878499999933,
      "v": 116
    },
    {
      "midi": 63,
      "hit": false,
      "t": 215591.42000000004,
      "d": 492.1108500000264,
      "v": 89
    },
    {
      "midi": 67,
      "hit": false,
      "t": 215591.42000000004,
      "d": 492.1108500000264,
      "v": 89
    },
    {
      "midi": 51,
      "hit": false,
      "t": 215591.42000000004,
      "d": 3515.077499999985,
      "v": 83
    },
    {
      "midi": 58,
      "hit": false,
      "t": 216060.09700000007,
      "d": 531.1672666666564,
      "v": 90
    },
    {
      "midi": 67,
      "hit": false,
      "t": 216528.77400000006,
      "d": 492.1108499999973,
      "v": 82
    },
    {
      "midi": 63,
      "hit": false,
      "t": 216528.77400000006,
      "d": 507.7334166666551,
      "v": 74
    },
    {
      "midi": 58,
      "hit": false,
      "t": 216997.45100000006,
      "d": 453.05443333333824,
      "v": 54
    },
    {
      "midi": 67,
      "hit": false,
      "t": 217466.12800000006,
      "d": 453.05443333333824,
      "v": 87
    },
    {
      "midi": 63,
      "hit": false,
      "t": 217466.12800000006,
      "d": 507.7334166666551,
      "v": 82
    },
    {
      "midi": 58,
      "hit": false,
      "t": 217934.80500000005,
      "d": 570.2236833333154,
      "v": 36
    },
    {
      "midi": 63,
      "hit": false,
      "t": 218403.48200000005,
      "d": 374.941599999991,
      "v": 79
    },
    {
      "midi": 67,
      "hit": false,
      "t": 218403.48200000005,
      "d": 374.941599999991,
      "v": 82
    },
    {
      "midi": 58,
      "hit": false,
      "t": 218872.15900000004,
      "d": 413.9980166666501,
      "v": 78
    },
    {
      "midi": 69,
      "hit": false,
      "t": 219340.83600000004,
      "d": 413.9980166666792,
      "v": 95
    },
    {
      "midi": 65,
      "hit": false,
      "t": 219340.83600000004,
      "d": 453.05443333333824,
      "v": 92
    },
    {
      "midi": 51,
      "hit": false,
      "t": 219340.83600000004,
      "d": 3655.6806000000215,
      "v": 28
    },
    {
      "midi": 58,
      "hit": false,
      "t": 219809.51300000004,
      "d": 468.67699999999604,
      "v": 82
    },
    {
      "midi": 69,
      "hit": false,
      "t": 220278.19000000003,
      "d": 413.9980166666792,
      "v": 69
    },
    {
      "midi": 65,
      "hit": false,
      "t": 220278.19000000003,
      "d": 468.67700000002515,
      "v": 81
    },
    {
      "midi": 58,
      "hit": false,
      "t": 220746.86700000006,
      "d": 492.1108499999973,
      "v": 62
    },
    {
      "midi": 69,
      "hit": false,
      "t": 221215.54400000005,
      "d": 468.67699999999604,
      "v": 70
    },
    {
      "midi": 65,
      "hit": false,
      "t": 221215.54400000005,
      "d": 507.7334166666551,
      "v": 88
    },
    {
      "midi": 58,
      "hit": false,
      "t": 221684.22100000005,
      "d": 531.1672666666564,
      "v": 51
    },
    {
      "midi": 69,
      "hit": false,
      "t": 222152.89800000004,
      "d": 453.05443333333824,
      "v": 90
    },
    {
      "midi": 65,
      "hit": false,
      "t": 222152.89800000004,
      "d": 468.67699999999604,
      "v": 100
    },
    {
      "midi": 58,
      "hit": false,
      "t": 222621.57500000004,
      "d": 413.9980166666792,
      "v": 86
    },
    {
      "midi": 60,
      "hit": false,
      "t": 223090.25200000007,
      "d": 492.1108500000264,
      "v": 82
    },
    {
      "midi": 63,
      "hit": false,
      "t": 223090.25200000007,
      "d": 492.1108500000264,
      "v": 71
    },
    {
      "midi": 50,
      "hit": false,
      "t": 223090.25200000007,
      "d": 3788.472416666744,
      "v": 95
    },
    {
      "midi": 54,
      "hit": false,
      "t": 223558.9290000001,
      "d": 390.5641666666779,
      "v": 63
    },
    {
      "midi": 60,
      "hit": false,
      "t": 224027.60600000012,
      "d": 492.1108499999973,
      "v": 71
    },
    {
      "midi": 63,
      "hit": false,
      "t": 224027.60600000012,
      "d": 492.1108499999973,
      "v": 68
    },
    {
      "midi": 54,
      "hit": false,
      "t": 224496.2830000001,
      "d": 413.9980166666792,
      "v": 67
    },
    {
      "midi": 60,
      "hit": false,
      "t": 224964.96000000014,
      "d": 468.67699999999604,
      "v": 84
    },
    {
      "midi": 57,
      "hit": false,
      "t": 224964.96000000014,
      "d": 492.1108499999973,
      "v": 85
    },
    {
      "midi": 54,
      "hit": false,
      "t": 225433.63700000013,
      "d": 390.5641666666779,
      "v": 75
    },
    {
      "midi": 57,
      "hit": false,
      "t": 225902.31400000016,
      "d": 507.7334166666551,
      "v": 84
    },
    {
      "midi": 60,
      "hit": false,
      "t": 225902.31400000016,
      "d": 507.7334166666551,
      "v": 89
    },
    {
      "midi": 54,
      "hit": false,
      "t": 226370.99100000015,
      "d": 429.620583333337,
      "v": 98
    },
    {
      "midi": 62,
      "hit": false,
      "t": 226839.66800000015,
      "d": 492.1108499999973,
      "v": 88
    },
    {
      "midi": 58,
      "hit": false,
      "t": 226839.66800000015,
      "d": 531.1672666666564,
      "v": 74
    },
    {
      "midi": 43,
      "hit": false,
      "t": 226839.66800000015,
      "d": 3515.0774999999558,
      "v": 79
    },
    {
      "midi": 55,
      "hit": false,
      "t": 227308.34500000015,
      "d": 468.67699999999604,
      "v": 66
    },
    {
      "midi": 58,
      "hit": false,
      "t": 227777.02200000014,
      "d": 570.2236833333154,
      "v": 84
    },
    {
      "midi": 62,
      "hit": false,
      "t": 227777.02200000014,
      "d": 585.8462499999732,
      "v": 92
    },
    {
      "midi": 55,
      "hit": false,
      "t": 228245.69900000014,
      "d": 531.1672666666273,
      "v": 68
    },
    {
      "midi": 74,
      "hit": false,
      "t": 228714.3760000001,
      "d": 429.620583333337,
      "v": 95
    },
    {
      "midi": 58,
      "hit": false,
      "t": 228714.3760000001,
      "d": 546.7898333333433,
      "v": 71
    },
    {
      "midi": 62,
      "hit": false,
      "t": 228714.3760000001,
      "d": 546.7898333333433,
      "v": 92
    },
    {
      "midi": 72,
      "hit": false,
      "t": 229159.6191500001,
      "d": 492.1108500000264,
      "v": 77
    },
    {
      "midi": 55,
      "hit": false,
      "t": 229183.0530000001,
      "d": 507.7334166666842,
      "v": 66
    },
    {
      "midi": 70,
      "hit": false,
      "t": 229628.29615000013,
      "d": 468.67699999999604,
      "v": 79
    },
    {
      "midi": 58,
      "hit": false,
      "t": 229651.73000000013,
      "d": 374.941599999991,
      "v": 74
    },
    {
      "midi": 62,
      "hit": false,
      "t": 229651.73000000013,
      "d": 507.7334166666551,
      "v": 92
    },
    {
      "midi": 69,
      "hit": false,
      "t": 230096.97315000012,
      "d": 374.941599999991,
      "v": 82
    },
    {
      "midi": 55,
      "hit": false,
      "t": 230120.40700000012,
      "d": 351.50774999998976,
      "v": 89
    },
    {
      "midi": 63,
      "hit": false,
      "t": 230589.0840000001,
      "d": 492.1108500000264,
      "v": 89
    },
    {
      "midi": 67,
      "hit": false,
      "t": 230589.0840000001,
      "d": 492.1108500000264,
      "v": 89
    },
    {
      "midi": 51,
      "hit": false,
      "t": 230589.0840000001,
      "d": 3515.077499999985,
      "v": 83
    },
    {
      "midi": 58,
      "hit": false,
      "t": 231057.76100000012,
      "d": 531.1672666666564,
      "v": 90
    },
    {
      "midi": 67,
      "hit": false,
      "t": 231526.4380000001,
      "d": 492.1108499999973,
      "v": 82
    },
    {
      "midi": 63,
      "hit": false,
      "t": 231526.4380000001,
      "d": 507.7334166666551,
      "v": 74
    },
    {
      "midi": 58,
      "hit": false,
      "t": 231995.1150000001,
      "d": 453.05443333333824,
      "v": 54
    },
    {
      "midi": 67,
      "hit": false,
      "t": 232463.7920000001,
      "d": 453.05443333333824,
      "v": 87
    },
    {
      "midi": 63,
      "hit": false,
      "t": 232463.7920000001,
      "d": 507.7334166666551,
      "v": 82
    },
    {
      "midi": 58,
      "hit": false,
      "t": 232932.4690000001,
      "d": 570.2236833333154,
      "v": 36
    },
    {
      "midi": 63,
      "hit": false,
      "t": 233401.1460000001,
      "d": 374.941599999991,
      "v": 79
    },
    {
      "midi": 67,
      "hit": false,
      "t": 233401.1460000001,
      "d": 374.941599999991,
      "v": 82
    },
    {
      "midi": 58,
      "hit": false,
      "t": 233869.8230000001,
      "d": 413.9980166666501,
      "v": 78
    },
    {
      "midi": 69,
      "hit": false,
      "t": 234338.5000000001,
      "d": 413.9980166666792,
      "v": 95
    },
    {
      "midi": 65,
      "hit": false,
      "t": 234338.5000000001,
      "d": 453.05443333333824,
      "v": 92
    },
    {
      "midi": 51,
      "hit": false,
      "t": 234338.5000000001,
      "d": 3655.6806000000215,
      "v": 28
    },
    {
      "midi": 58,
      "hit": false,
      "t": 234807.17700000008,
      "d": 468.67699999999604,
      "v": 82
    },
    {
      "midi": 69,
      "hit": false,
      "t": 235275.85400000008,
      "d": 413.9980166666792,
      "v": 69
    },
    {
      "midi": 65,
      "hit": false,
      "t": 235275.85400000008,
      "d": 468.67700000002515,
      "v": 81
    },
    {
      "midi": 58,
      "hit": false,
      "t": 235744.5310000001,
      "d": 492.1108499999973,
      "v": 62
    },
    {
      "midi": 69,
      "hit": false,
      "t": 236213.2080000001,
      "d": 468.67699999999604,
      "v": 70
    },
    {
      "midi": 65,
      "hit": false,
      "t": 236213.2080000001,
      "d": 507.7334166666551,
      "v": 88
    },
    {
      "midi": 58,
      "hit": false,
      "t": 236681.8850000001,
      "d": 531.1672666666564,
      "v": 51
    },
    {
      "midi": 69,
      "hit": false,
      "t": 237150.5620000001,
      "d": 453.05443333333824,
      "v": 90
    },
    {
      "midi": 65,
      "hit": false,
      "t": 237150.5620000001,
      "d": 468.67699999999604,
      "v": 100
    },
    {
      "midi": 58,
      "hit": false,
      "t": 237619.2390000001,
      "d": 413.9980166666792,
      "v": 86
    },
    {
      "midi": 60,
      "hit": false,
      "t": 238087.9160000001,
      "d": 492.1108500000264,
      "v": 82
    },
    {
      "midi": 63,
      "hit": false,
      "t": 238087.9160000001,
      "d": 492.1108500000264,
      "v": 71
    },
    {
      "midi": 50,
      "hit": false,
      "t": 238087.9160000001,
      "d": 3788.472416666744,
      "v": 95
    },
    {
      "midi": 54,
      "hit": false,
      "t": 238556.59300000014,
      "d": 390.5641666666779,
      "v": 63
    },
    {
      "midi": 60,
      "hit": false,
      "t": 239025.27000000016,
      "d": 492.1108499999973,
      "v": 71
    },
    {
      "midi": 63,
      "hit": false,
      "t": 239025.27000000016,
      "d": 492.1108499999973,
      "v": 68
    },
    {
      "midi": 54,
      "hit": false,
      "t": 239493.94700000016,
      "d": 413.9980166666792,
      "v": 67
    },
    {
      "midi": 60,
      "hit": false,
      "t": 239962.62400000019,
      "d": 468.67699999999604,
      "v": 84
    },
    {
      "midi": 57,
      "hit": false,
      "t": 239962.62400000019,
      "d": 492.1108499999973,
      "v": 85
    },
    {
      "midi": 54,
      "hit": false,
      "t": 240431.30100000018,
      "d": 390.5641666666779,
      "v": 75
    },
    {
      "midi": 57,
      "hit": false,
      "t": 240899.9780000002,
      "d": 507.7334166666551,
      "v": 84
    },
    {
      "midi": 60,
      "hit": false,
      "t": 240899.9780000002,
      "d": 507.7334166666551,
      "v": 89
    },
    {
      "midi": 54,
      "hit": false,
      "t": 241368.6550000002,
      "d": 429.620583333337,
      "v": 98
    },
    {
      "midi": 62,
      "hit": false,
      "t": 241837.3320000002,
      "d": 492.1108499999973,
      "v": 88
    },
    {
      "midi": 58,
      "hit": false,
      "t": 241837.3320000002,
      "d": 531.1672666666564,
      "v": 74
    },
    {
      "midi": 43,
      "hit": false,
      "t": 241837.3320000002,
      "d": 3515.0774999999558,
      "v": 79
    },
    {
      "midi": 55,
      "hit": false,
      "t": 242306.0090000002,
      "d": 468.67699999999604,
      "v": 66
    },
    {
      "midi": 58,
      "hit": false,
      "t": 242774.6860000002,
      "d": 570.2236833333154,
      "v": 84
    },
    {
      "midi": 62,
      "hit": false,
      "t": 242774.6860000002,
      "d": 585.8462499999732,
      "v": 92
    },
    {
      "midi": 55,
      "hit": false,
      "t": 243243.3630000002,
      "d": 531.1672666666273,
      "v": 68
    },
    {
      "midi": 58,
      "hit": false,
      "t": 243712.04000000015,
      "d": 546.7898333333433,
      "v": 71
    },
    {
      "midi": 62,
      "hit": false,
      "t": 243712.04000000015,
      "d": 546.7898333333433,
      "v": 92
    },
    {
      "midi": 55,
      "hit": false,
      "t": 244180.71700000015,
      "d": 507.7334166666842,
      "v": 66
    },
    {
      "midi": 58,
      "hit": false,
      "t": 244649.39400000017,
      "d": 374.941599999991,
      "v": 74
    },
    {
      "midi": 62,
      "hit": false,
      "t": 244649.39400000017,
      "d": 507.7334166666551,
      "v": 92
    },
    {
      "midi": 55,
      "hit": false,
      "t": 245118.07100000017,
      "d": 351.50774999998976,
      "v": 89
    },
    {
      "midi": 58,
      "hit": false,
      "t": 245586.74800000014,
      "d": 585.8462500000314,
      "v": 88
    },
    {
      "midi": 66,
      "hit": false,
      "t": 245586.74800000014,
      "d": 585.8462500000314,
      "v": 88
    },
    {
      "midi": 61,
      "hit": false,
      "t": 245586.74800000014,
      "d": 648.3365166666918,
      "v": 91
    },
    {
      "midi": 42,
      "hit": false,
      "t": 245586.74800000014,
      "d": 3343.229266666691,
      "v": 84
    },
    {
      "midi": 54,
      "hit": false,
      "t": 246055.42500000016,
      "d": 687.3929333333217,
      "v": 72
    },
    {
      "midi": 61,
      "hit": false,
      "t": 246524.10200000016,
      "d": 585.8462500000023,
      "v": 88
    },
    {
      "midi": 66,
      "hit": false,
      "t": 246524.10200000016,
      "d": 585.8462500000023,
      "v": 90
    },
    {
      "midi": 58,
      "hit": false,
      "t": 246524.10200000016,
      "d": 609.2801000000036,
      "v": 91
    },
    {
      "midi": 54,
      "hit": false,
      "t": 246992.77900000016,
      "d": 687.3929333333217,
      "v": 64
    },
    {
      "midi": 58,
      "hit": false,
      "t": 247461.45600000015,
      "d": 585.8462500000023,
      "v": 82
    },
    {
      "midi": 61,
      "hit": false,
      "t": 247461.45600000015,
      "d": 624.9026666666614,
      "v": 85
    },
    {
      "midi": 66,
      "hit": false,
      "t": 247461.45600000015,
      "d": 648.3365166666626,
      "v": 79
    },
    {
      "midi": 54,
      "hit": false,
      "t": 247930.13300000015,
      "d": 492.1108499999973,
      "v": 72
    },
    {
      "midi": 61,
      "hit": false,
      "t": 248398.81000000014,
      "d": 257.77235000001383,
      "v": 84
    },
    {
      "midi": 58,
      "hit": false,
      "t": 248398.81000000014,
      "d": 335.88518333336106,
      "v": 79
    },
    {
      "midi": 66,
      "hit": false,
      "t": 248398.81000000014,
      "d": 335.88518333336106,
      "v": 79
    },
    {
      "midi": 54,
      "hit": false,
      "t": 248867.48700000017,
      "d": 117.16925000000629,
      "v": 54
    },
    {
      "midi": 63,
      "hit": false,
      "t": 249336.16400000016,
      "d": 781.1283333333558,
      "v": 79
    },
    {
      "midi": 65,
      "hit": false,
      "t": 249336.16400000016,
      "d": 921.7314333333634,
      "v": 86
    },
    {
      "midi": 53,
      "hit": false,
      "t": 249336.16400000016,
      "d": 960.7878500000224,
      "v": 80
    },
    {
      "midi": 58,
      "hit": false,
      "t": 249336.16400000016,
      "d": 960.7878500000224,
      "v": 62
    },
    {
      "midi": 41,
      "hit": false,
      "t": 249336.16400000016,
      "d": 1077.9571000000287,
      "v": 54
    },
    {
      "midi": 65,
      "hit": false,
      "t": 250742.19500000018,
      "d": 335.88518333333195,
      "v": 89
    },
    {
      "midi": 58,
      "hit": false,
      "t": 250742.19500000018,
      "d": 351.50774999998976,
      "v": 53
    },
    {
      "midi": 62,
      "hit": false,
      "t": 250742.19500000018,
      "d": 453.05443333330913,
      "v": 101
    },
    {
      "midi": 53,
      "hit": false,
      "t": 250742.19500000018,
      "d": 2523.044516666676,
      "v": 71
    },
    {
      "midi": 41,
      "hit": false,
      "t": 250742.19500000018,
      "d": 2538.6670833333337,
      "v": 85
    },
    {
      "midi": 58,
      "hit": false,
      "t": 251210.87200000015,
      "d": 257.77235000001383,
      "v": 93
    },
    {
      "midi": 60,
      "hit": false,
      "t": 251679.54900000017,
      "d": 374.941599999991,
      "v": 78
    },
    {
      "midi": 62,
      "hit": false,
      "t": 252148.22600000017,
      "d": 413.9980166666792,
      "v": 95
    },
    {
      "midi": 65,
      "hit": false,
      "t": 252616.9030000002,
      "d": 374.941599999991,
      "v": 119
    },
    {
      "midi": 70,
      "hit": false,
      "t": 253085.5800000002,
      "d": 1132.6360833333165,
      "v": 78
    },
    {
      "midi": 61,
      "hit": false,
      "t": 253085.5800000002,
      "d": 1210.7489166666637,
      "v": 85
    },
    {
      "midi": 65,
      "hit": false,
      "t": 253085.5800000002,
      "d": 1210.7489166666637,
      "v": 107
    },
    {
      "midi": 49,
      "hit": false,
      "t": 253085.5800000002,
      "d": 1234.182766666665,
      "v": 84
    },
    {
      "midi": 73,
      "hit": false,
      "t": 253085.5800000002,
      "d": 1234.182766666665,
      "v": 79
    },
    {
      "midi": 42,
      "hit": false,
      "t": 253085.5800000002,
      "d": 1249.8053333333228,
      "v": 87
    },
    {
      "midi": 73,
      "hit": false,
      "t": 254491.61100000018,
      "d": 843.6186000000162,
      "v": 88
    },
    {
      "midi": 63,
      "hit": false,
      "t": 254491.61100000018,
      "d": 1015.4668333333393,
      "v": 84
    },
    {
      "midi": 68,
      "hit": false,
      "t": 254491.61100000018,
      "d": 1015.4668333333393,
      "v": 85
    },
    {
      "midi": 48,
      "hit": false,
      "t": 254491.61100000018,
      "d": 1038.9006833333406,
      "v": 90
    },
    {
      "midi": 44,
      "hit": false,
      "t": 254491.61100000018,
      "d": 1117.0135166666878,
      "v": 77
    },
    {
      "midi": 63,
      "hit": false,
      "t": 255897.6420000002,
      "d": 781.1283333333267,
      "v": 76
    },
    {
      "midi": 68,
      "hit": false,
      "t": 255897.6420000002,
      "d": 781.1283333333267,
      "v": 76
    },
    {
      "midi": 72,
      "hit": false,
      "t": 255897.6420000002,
      "d": 804.562183333328,
      "v": 90
    },
    {
      "midi": 63,
      "hit": false,
      "t": 256834.9960000002,
      "d": 999.8442666666815,
      "v": 75
    },
    {
      "midi": 53,
      "hit": false,
      "t": 256834.9960000002,
      "d": 1093.5796666666865,
      "v": 85
    },
    {
      "midi": 58,
      "hit": false,
      "t": 256834.9960000002,
      "d": 1093.5796666666865,
      "v": 71
    },
    {
      "midi": 46,
      "hit": false,
      "t": 256834.9960000002,
      "d": 3788.4724166666565,
      "v": 82
    },
    {
      "midi": 53,
      "hit": false,
      "t": 258241.0270000002,
      "d": 804.562183333328,
      "v": 76
    },
    {
      "midi": 58,
      "hit": false,
      "t": 258241.0270000002,
      "d": 804.562183333328,
      "v": 42
    },
    {
      "midi": 62,
      "hit": false,
      "t": 258241.0270000002,
      "d": 859.241166666674,
      "v": 86
    },
    {
      "midi": 53,
      "hit": false,
      "t": 259412.7195000002,
      "d": 117.16925000000629,
      "v": 114
    },
    {
      "midi": 62,
      "hit": false,
      "t": 259647.05800000022,
      "d": 218.71593333332567,
      "v": 97
    },
    {
      "midi": 63,
      "hit": false,
      "t": 259881.3965000002,
      "d": 101.54668333331938,
      "v": 70
    },
    {
      "midi": 62,
      "hit": false,
      "t": 260115.7350000002,
      "d": 117.16925000000629,
      "v": 102
    },
    {
      "midi": 58,
      "hit": false,
      "t": 260350.0735000002,
      "d": 62.49026666666032,
      "v": 122
    },
    {
      "midi": 58,
      "hit": false,
      "t": 260584.4120000002,
      "d": 843.618599999987,
      "v": 67
    },
    {
      "midi": 53,
      "hit": false,
      "t": 260584.4120000002,
      "d": 882.6750166666461,
      "v": 71
    },
    {
      "midi": 61,
      "hit": false,
      "t": 260584.4120000002,
      "d": 882.6750166666461,
      "v": 65
    },
    {
      "midi": 42,
      "hit": false,
      "t": 260584.4120000002,
      "d": 1038.9006833333115,
      "v": 50
    },
    {
      "midi": 56,
      "hit": false,
      "t": 261990.44300000017,
      "d": 1234.182766666665,
      "v": 71
    },
    {
      "midi": 60,
      "hit": false,
      "t": 261990.44300000017,
      "d": 1273.239183333324,
      "v": 80
    },
    {
      "midi": 53,
      "hit": false,
      "t": 261990.44300000017,
      "d": 2054.3675166666217,
      "v": 75
    },
    {
      "midi": 44,
      "hit": false,
      "t": 261990.44300000017,
      "d": 2226.215749999945,
      "v": 84
    },
    {
      "midi": 58,
      "hit": false,
      "t": 263396.47400000016,
      "d": 140.60310000000754,
      "v": 95
    },
    {
      "midi": 60,
      "hit": false,
      "t": 263396.47400000016,
      "d": 351.50774999998976,
      "v": 18
    },
    {
      "midi": 56,
      "hit": false,
      "t": 263396.47400000016,
      "d": 648.3365166666335,
      "v": 8
    },
    {
      "midi": 60,
      "hit": false,
      "t": 263865.1510000001,
      "d": 39.05641666665906,
      "v": 51
    },
    {
      "midi": 58,
      "hit": false,
      "t": 263865.1510000001,
      "d": 140.60310000000754,
      "v": 106
    },
    {
      "midi": 63,
      "hit": false,
      "t": 264333.8280000001,
      "d": 1054.5232500000275,
      "v": 70
    },
    {
      "midi": 53,
      "hit": false,
      "t": 264333.8280000001,
      "d": 1234.182766666694,
      "v": 75
    },
    {
      "midi": 58,
      "hit": false,
      "t": 264333.8280000001,
      "d": 1234.182766666694,
      "v": 71
    },
    {
      "midi": 46,
      "hit": false,
      "t": 264333.8280000001,
      "d": 3710.3595833333093,
      "v": 71
    },
    {
      "midi": 62,
      "hit": false,
      "t": 265739.8590000001,
      "d": 843.618599999987,
      "v": 77
    },
    {
      "midi": 58,
      "hit": false,
      "t": 265739.8590000001,
      "d": 898.297583333333,
      "v": 60
    },
    {
      "midi": 53,
      "hit": false,
      "t": 265739.8590000001,
      "d": 1132.6360833333456,
      "v": 71
    },
    {
      "midi": 61,
      "hit": false,
      "t": 267145.89000000013,
      "d": 62.49026666668942,
      "v": 68
    },
    {
      "midi": 53,
      "hit": false,
      "t": 267145.89000000013,
      "d": 101.54668333334848,
      "v": 85
    },
    {
      "midi": 56,
      "hit": false,
      "t": 267145.89000000013,
      "d": 140.60310000000754,
      "v": 89
    },
    {
      "midi": 56,
      "hit": false,
      "t": 267614.5670000001,
      "d": 273.39491666667163,
      "v": 90
    },
    {
      "midi": 51,
      "hit": false,
      "t": 267614.5670000001,
      "d": 296.8287666666438,
      "v": 77
    },
    {
      "midi": 60,
      "hit": false,
      "t": 267614.5670000001,
      "d": 296.8287666666438,
      "v": 84
    },
    {
      "midi": 54,
      "hit": false,
      "t": 268083.24400000006,
      "d": 507.733416666626,
      "v": 87
    },
    {
      "midi": 49,
      "hit": false,
      "t": 268083.24400000006,
      "d": 531.1672666665982,
      "v": 86
    },
    {
      "midi": 58,
      "hit": false,
      "t": 268083.24400000006,
      "d": 570.2236833332572,
      "v": 85
    },
    {
      "midi": 42,
      "hit": false,
      "t": 268083.24400000006,
      "d": 1171.6924999999464,
      "v": 87
    },
    {
      "midi": 58,
      "hit": false,
      "t": 269489.275,
      "d": 781.1283333333558,
      "v": 90
    },
    {
      "midi": 61,
      "hit": false,
      "t": 269489.275,
      "d": 820.1847500000149,
      "v": 93
    },
    {
      "midi": 54,
      "hit": false,
      "t": 269489.275,
      "d": 843.618599999987,
      "v": 95
    },
    {
      "midi": 42,
      "hit": false,
      "t": 269489.275,
      "d": 2444.9316833332996,
      "v": 86
    },
    {
      "midi": 60,
      "hit": false,
      "t": 270895.306,
      "d": 273.39491666667163,
      "v": 113
    },
    {
      "midi": 58,
      "hit": false,
      "t": 271129.6445,
      "d": 179.6595166666666,
      "v": 53
    },
    {
      "midi": 56,
      "hit": false,
      "t": 271363.983,
      "d": 257.7723499999847,
      "v": 122
    },
    {
      "midi": 63,
      "hit": false,
      "t": 271832.66,
      "d": 999.8442666666815,
      "v": 75
    },
    {
      "midi": 53,
      "hit": false,
      "t": 271832.66,
      "d": 1093.5796666666865,
      "v": 85
    },
    {
      "midi": 58,
      "hit": false,
      "t": 271832.66,
      "d": 1093.5796666666865,
      "v": 71
    },
    {
      "midi": 46,
      "hit": false,
      "t": 271832.66,
      "d": 3788.4724166666856,
      "v": 82
    },
    {
      "midi": 53,
      "hit": false,
      "t": 273238.691,
      "d": 804.562183333328,
      "v": 76
    },
    {
      "midi": 58,
      "hit": false,
      "t": 273238.691,
      "d": 804.562183333328,
      "v": 42
    },
    {
      "midi": 62,
      "hit": false,
      "t": 273238.691,
      "d": 859.241166666674,
      "v": 86
    },
    {
      "midi": 53,
      "hit": false,
      "t": 274410.3835,
      "d": 117.16924999997718,
      "v": 114
    },
    {
      "midi": 62,
      "hit": false,
      "t": 274644.72199999995,
      "d": 218.71593333332567,
      "v": 97
    },
    {
      "midi": 63,
      "hit": false,
      "t": 274879.06049999996,
      "d": 101.54668333334848,
      "v": 70
    },
    {
      "midi": 62,
      "hit": false,
      "t": 275113.399,
      "d": 117.16924999997718,
      "v": 102
    },
    {
      "midi": 58,
      "hit": false,
      "t": 275347.73749999993,
      "d": 62.49026666668942,
      "v": 122
    },
    {
      "midi": 58,
      "hit": false,
      "t": 275582.076,
      "d": 843.618599999987,
      "v": 67
    },
    {
      "midi": 53,
      "hit": false,
      "t": 275582.076,
      "d": 882.6750166666461,
      "v": 71
    },
    {
      "midi": 61,
      "hit": false,
      "t": 275582.076,
      "d": 882.6750166666461,
      "v": 65
    },
    {
      "midi": 42,
      "hit": false,
      "t": 275582.076,
      "d": 1038.9006833333406,
      "v": 50
    },
    {
      "midi": 56,
      "hit": false,
      "t": 276988.107,
      "d": 1234.182766666694,
      "v": 71
    },
    {
      "midi": 60,
      "hit": false,
      "t": 276988.107,
      "d": 1273.2391833333531,
      "v": 80
    },
    {
      "midi": 53,
      "hit": false,
      "t": 276988.107,
      "d": 1874.7079999999842,
      "v": 75
    },
    {
      "midi": 44,
      "hit": false,
      "t": 276988.107,
      "d": 2226.215749999974,
      "v": 84
    },
    {
      "midi": 61,
      "hit": false,
      "t": 278159.7995,
      "d": 234.33850000001257,
      "v": 99
    },
    {
      "midi": 60,
      "hit": false,
      "t": 278394.13800000004,
      "d": 351.50774999998976,
      "v": 93
    },
    {
      "midi": 56,
      "hit": false,
      "t": 278628.47650000005,
      "d": 234.33849999995437,
      "v": 89
    },
    {
      "midi": 60,
      "hit": false,
      "t": 278862.815,
      "d": 39.05641666665906,
      "v": 51
    },
    {
      "midi": 53,
      "hit": false,
      "t": 278862.815,
      "d": 312.4513333333307,
      "v": 108
    },
    {
      "midi": 63,
      "hit": false,
      "t": 279331.49199999997,
      "d": 1054.5232500000275,
      "v": 70
    },
    {
      "midi": 53,
      "hit": false,
      "t": 279331.49199999997,
      "d": 1234.182766666694,
      "v": 75
    },
    {
      "midi": 58,
      "hit": false,
      "t": 279331.49199999997,
      "d": 1234.182766666694,
      "v": 71
    },
    {
      "midi": 46,
      "hit": false,
      "t": 279331.49199999997,
      "d": 3710.3595833333093,
      "v": 71
    },
    {
      "midi": 62,
      "hit": false,
      "t": 280737.523,
      "d": 843.618599999987,
      "v": 77
    },
    {
      "midi": 58,
      "hit": false,
      "t": 280737.523,
      "d": 898.297583333333,
      "v": 60
    },
    {
      "midi": 53,
      "hit": false,
      "t": 280737.523,
      "d": 1132.6360833333456,
      "v": 71
    },
    {
      "midi": 61,
      "hit": false,
      "t": 282143.554,
      "d": 62.49026666668942,
      "v": 68
    },
    {
      "midi": 53,
      "hit": false,
      "t": 282143.554,
      "d": 101.54668333334848,
      "v": 85
    },
    {
      "midi": 56,
      "hit": false,
      "t": 282143.554,
      "d": 140.60310000000754,
      "v": 89
    },
    {
      "midi": 56,
      "hit": false,
      "t": 282612.23099999997,
      "d": 273.39491666667163,
      "v": 90
    },
    {
      "midi": 51,
      "hit": false,
      "t": 282612.23099999997,
      "d": 296.8287666666438,
      "v": 77
    },
    {
      "midi": 60,
      "hit": false,
      "t": 282612.23099999997,
      "d": 296.8287666666438,
      "v": 84
    },
    {
      "midi": 51,
      "hit": false,
      "t": 283080.90799999994,
      "d": 609.2800999999745,
      "v": 67
    },
    {
      "midi": 54,
      "hit": false,
      "t": 283080.90799999994,
      "d": 624.9026666666614,
      "v": 90
    },
    {
      "midi": 58,
      "hit": false,
      "t": 283080.90799999994,
      "d": 648.3365166666335,
      "v": 78
    },
    {
      "midi": 42,
      "hit": false,
      "t": 283080.90799999994,
      "d": 1077.9570999999414,
      "v": 71
    },
    {
      "midi": 54,
      "hit": false,
      "t": 284486.9389999999,
      "d": 234.33850000001257,
      "v": 79
    },
    {
      "midi": 58,
      "hit": false,
      "t": 284486.9389999999,
      "d": 234.33850000001257,
      "v": 85
    },
    {
      "midi": 61,
      "hit": false,
      "t": 284486.9389999999,
      "d": 257.7723499999847,
      "v": 79
    },
    {
      "midi": 42,
      "hit": false,
      "t": 284486.9389999999,
      "d": 1312.2956000000122,
      "v": 81
    },
    {
      "midi": 58,
      "hit": false,
      "t": 285892.9699999999,
      "d": 101.54668333334848,
      "v": 97
    },
    {
      "midi": 61,
      "hit": false,
      "t": 285892.9699999999,
      "d": 117.16925000003539,
      "v": 84
    },
    {
      "midi": 66,
      "hit": false,
      "t": 285892.9699999999,
      "d": 117.16925000003539,
      "v": 91
    },
    {
      "midi": 42,
      "hit": false,
      "t": 285892.9699999999,
      "d": 921.7314333334216,
      "v": 84
    },
    {
      "midi": 58,
      "hit": false,
      "t": 286127.3084999999,
      "d": 62.49026666668942,
      "v": 112
    },
    {
      "midi": 56,
      "hit": false,
      "t": 286361.64699999994,
      "d": 156.22566666669445,
      "v": 127
    },
    {
      "midi": 63,
      "hit": false,
      "t": 286830.324,
      "d": 999.8442666666815,
      "v": 75
    },
    {
      "midi": 53,
      "hit": false,
      "t": 286830.324,
      "d": 1093.5796666666865,
      "v": 85
    },
    {
      "midi": 58,
      "hit": false,
      "t": 286830.324,
      "d": 1093.5796666666865,
      "v": 71
    },
    {
      "midi": 46,
      "hit": false,
      "t": 286830.324,
      "d": 3788.4724166666856,
      "v": 82
    },
    {
      "midi": 53,
      "hit": false,
      "t": 288236.35500000004,
      "d": 804.562183333328,
      "v": 76
    },
    {
      "midi": 58,
      "hit": false,
      "t": 288236.35500000004,
      "d": 804.562183333328,
      "v": 42
    },
    {
      "midi": 62,
      "hit": false,
      "t": 288236.35500000004,
      "d": 859.241166666674,
      "v": 86
    },
    {
      "midi": 53,
      "hit": false,
      "t": 289408.04750000004,
      "d": 117.16924999997718,
      "v": 114
    },
    {
      "midi": 62,
      "hit": false,
      "t": 289642.386,
      "d": 218.71593333332567,
      "v": 97
    },
    {
      "midi": 63,
      "hit": false,
      "t": 289876.7245,
      "d": 101.54668333334848,
      "v": 70
    },
    {
      "midi": 62,
      "hit": false,
      "t": 290111.063,
      "d": 117.16924999997718,
      "v": 102
    },
    {
      "midi": 58,
      "hit": false,
      "t": 290345.4015,
      "d": 62.49026666668942,
      "v": 122
    },
    {
      "midi": 82,
      "hit": false,
      "t": 290579.73999999947,
      "d": 39.05641666665906,
      "v": 98
    },
    {
      "midi": 58,
      "hit": false,
      "t": 290579.74000000005,
      "d": 843.618599999987,
      "v": 67
    },
    {
      "midi": 53,
      "hit": false,
      "t": 290579.74000000005,
      "d": 882.6750166666461,
      "v": 71
    },
    {
      "midi": 61,
      "hit": false,
      "t": 290579.74000000005,
      "d": 882.6750166666461,
      "v": 65
    },
    {
      "midi": 42,
      "hit": false,
      "t": 290579.74000000005,
      "d": 1038.9006833333406,
      "v": 50
    },
    {
      "midi": 82,
      "hit": false,
      "t": 291337.4344833328,
      "d": 39.05641666665906,
      "v": 98
    },
    {
      "midi": 56,
      "hit": false,
      "t": 291985.77100000007,
      "d": 1234.182766666694,
      "v": 71
    },
    {
      "midi": 60,
      "hit": false,
      "t": 291985.77100000007,
      "d": 1273.2391833333531,
      "v": 80
    },
    {
      "midi": 53,
      "hit": false,
      "t": 291985.77100000007,
      "d": 2054.3675166666508,
      "v": 75
    },
    {
      "midi": 44,
      "hit": false,
      "t": 291985.77100000007,
      "d": 2226.215749999974,
      "v": 84
    },
    {
      "midi": 82,
      "hit": false,
      "t": 292001.3935666661,
      "d": 62.49026666668942,
      "v": 98
    },
    {
      "midi": 58,
      "hit": false,
      "t": 293391.8020000001,
      "d": 140.60310000000754,
      "v": 95
    },
    {
      "midi": 60,
      "hit": false,
      "t": 293391.8020000001,
      "d": 351.50774999998976,
      "v": 18
    },
    {
      "midi": 56,
      "hit": false,
      "t": 293391.8020000001,
      "d": 648.3365166666335,
      "v": 8
    },
    {
      "midi": 60,
      "hit": false,
      "t": 293860.47900000005,
      "d": 39.05641666665906,
      "v": 51
    },
    {
      "midi": 58,
      "hit": false,
      "t": 293860.47900000005,
      "d": 140.60310000000754,
      "v": 106
    },
    {
      "midi": 55,
      "hit": false,
      "t": 294329.156,
      "d": 687.3929333332926,
      "v": 33
    },
    {
      "midi": 60,
      "hit": false,
      "t": 294329.156,
      "d": 703.0154999999795,
      "v": 81
    },
    {
      "midi": 63,
      "hit": false,
      "t": 294329.156,
      "d": 726.4493499999517,
      "v": 43
    },
    {
      "midi": 46,
      "hit": false,
      "t": 294329.156,
      "d": 859.2411666666158,
      "v": 40
    },
    {
      "midi": 53,
      "hit": false,
      "t": 295735.187,
      "d": 1132.6360833333456,
      "v": 81
    },
    {
      "midi": 58,
      "hit": false,
      "t": 295735.187,
      "d": 1312.2956000000122,
      "v": 67
    },
    {
      "midi": 46,
      "hit": false,
      "t": 295735.187,
      "d": 1484.1438333333354,
      "v": 62
    },
    {
      "midi": 62,
      "hit": false,
      "t": 295735.187,
      "d": 1663.803350000002,
      "v": 85
    },
    {
      "midi": 53,
      "hit": false,
      "t": 297141.218,
      "d": 507.733416666626,
      "v": 89
    },
    {
      "midi": 58,
      "hit": false,
      "t": 297375.5565,
      "d": 351.50774999993155,
      "v": 34
    },
    {
      "midi": 62,
      "hit": false,
      "t": 297609.89499999996,
      "d": 140.60309999994934,
      "v": 100
    },
    {
      "midi": 54,
      "hit": false,
      "t": 298078.5719999999,
      "d": 609.2800999999745,
      "v": 63
    },
    {
      "midi": 58,
      "hit": false,
      "t": 298078.5719999999,
      "d": 765.5057666666689,
      "v": 80
    },
    {
      "midi": 61,
      "hit": false,
      "t": 298078.5719999999,
      "d": 820.1847500000149,
      "v": 79
    },
    {
      "midi": 42,
      "hit": false,
      "t": 298078.5719999999,
      "d": 999.8442666666815,
      "v": 73
    },
    {
      "midi": 82,
      "hit": false,
      "t": 298117.6284166661,
      "d": 39.05641666665906,
      "v": 119
    },
    {
      "midi": 82,
      "hit": false,
      "t": 298820.6439166661,
      "d": 62.49026666668942,
      "v": 125
    },
    {
      "midi": 54,
      "hit": false,
      "t": 299015.9259999999,
      "d": 78.11283333337633,
      "v": 75
    },
    {
      "midi": 58,
      "hit": false,
      "t": 299015.9259999999,
      "d": 78.11283333337633,
      "v": 82
    },
    {
      "midi": 61,
      "hit": false,
      "t": 299015.9259999999,
      "d": 101.54668333334848,
      "v": 75
    },
    {
      "midi": 60,
      "hit": false,
      "t": 299484.60299999994,
      "d": 351.50774999998976,
      "v": 93
    },
    {
      "midi": 56,
      "hit": false,
      "t": 299484.60299999994,
      "d": 374.9415999999619,
      "v": 71
    },
    {
      "midi": 63,
      "hit": false,
      "t": 299484.60299999994,
      "d": 663.9590833333205,
      "v": 72
    },
    {
      "midi": 44,
      "hit": false,
      "t": 299484.60299999994,
      "d": 1468.5212666666484,
      "v": 63
    },
    {
      "midi": 82,
      "hit": false,
      "t": 299500.2255666661,
      "d": 62.49026666668942,
      "v": 127
    },
    {
      "midi": 56,
      "hit": false,
      "t": 299953.2799999999,
      "d": 570.2236833333736,
      "v": 72
    },
    {
      "midi": 60,
      "hit": false,
      "t": 300187.6184999999,
      "d": 335.88518333336106,
      "v": 96
    },
    {
      "midi": 56,
      "hit": false,
      "t": 300656.29549999995,
      "d": 492.1108499999391,
      "v": 71
    },
    {
      "midi": 60,
      "hit": false,
      "t": 300656.29549999995,
      "d": 648.3365166666335,
      "v": 102
    },
    {
      "midi": 63,
      "hit": false,
      "t": 300656.29549999995,
      "d": 1015.466833333252,
      "v": 88
    },
    {
      "midi": 44,
      "hit": false,
      "t": 301124.9724999999,
      "d": 585.8462499999441,
      "v": 87
    },
    {
      "midi": 60,
      "hit": false,
      "t": 301359.3109999999,
      "d": 218.71593333332567,
      "v": 47
    },
    {
      "midi": 56,
      "hit": false,
      "t": 301359.3109999999,
      "d": 351.50774999993155,
      "v": 79
    },
    {
      "midi": 63,
      "hit": false,
      "t": 301827.98799999984,
      "d": 999.8442666666815,
      "v": 75
    },
    {
      "midi": 53,
      "hit": false,
      "t": 301827.98799999984,
      "d": 1093.5796666666865,
      "v": 85
    },
    {
      "midi": 58,
      "hit": false,
      "t": 301827.98799999984,
      "d": 1093.5796666666865,
      "v": 71
    },
    {
      "midi": 46,
      "hit": false,
      "t": 301827.98799999984,
      "d": 3788.4724166666856,
      "v": 82
    },
    {
      "midi": 53,
      "hit": false,
      "t": 303234.01899999985,
      "d": 804.562183333328,
      "v": 76
    },
    {
      "midi": 58,
      "hit": false,
      "t": 303234.01899999985,
      "d": 804.562183333328,
      "v": 42
    },
    {
      "midi": 62,
      "hit": false,
      "t": 303234.01899999985,
      "d": 859.241166666674,
      "v": 86
    },
    {
      "midi": 53,
      "hit": false,
      "t": 304405.71149999986,
      "d": 117.16924999997718,
      "v": 114
    },
    {
      "midi": 62,
      "hit": false,
      "t": 304640.0499999998,
      "d": 218.71593333332567,
      "v": 97
    },
    {
      "midi": 63,
      "hit": false,
      "t": 304874.3884999998,
      "d": 101.54668333334848,
      "v": 70
    },
    {
      "midi": 62,
      "hit": false,
      "t": 305108.72699999984,
      "d": 117.16924999997718,
      "v": 102
    },
    {
      "midi": 58,
      "hit": false,
      "t": 305343.0654999998,
      "d": 62.49026666668942,
      "v": 122
    },
    {
      "midi": 82,
      "hit": false,
      "t": 305577.40399999946,
      "d": 62.49026666668942,
      "v": 114
    },
    {
      "midi": 58,
      "hit": false,
      "t": 305577.40399999986,
      "d": 843.618599999987,
      "v": 67
    },
    {
      "midi": 53,
      "hit": false,
      "t": 305577.40399999986,
      "d": 882.6750166666461,
      "v": 71
    },
    {
      "midi": 61,
      "hit": false,
      "t": 305577.40399999986,
      "d": 882.6750166666461,
      "v": 65
    },
    {
      "midi": 42,
      "hit": false,
      "t": 305577.40399999986,
      "d": 1038.9006833333406,
      "v": 50
    },
    {
      "midi": 82,
      "hit": false,
      "t": 306280.4194999995,
      "d": 39.05641666665906,
      "v": 106
    },
    {
      "midi": 82,
      "hit": false,
      "t": 306960.0011499995,
      "d": 39.05641666665906,
      "v": 119
    },
    {
      "midi": 56,
      "hit": false,
      "t": 306983.4349999999,
      "d": 1234.182766666694,
      "v": 71
    },
    {
      "midi": 60,
      "hit": false,
      "t": 306983.4349999999,
      "d": 1273.2391833333531,
      "v": 80
    },
    {
      "midi": 53,
      "hit": false,
      "t": 306983.4349999999,
      "d": 1874.7080000000424,
      "v": 75
    },
    {
      "midi": 44,
      "hit": false,
      "t": 306983.4349999999,
      "d": 2226.215750000032,
      "v": 84
    },
    {
      "midi": 53,
      "hit": false,
      "t": 308858.1429999999,
      "d": 312.4513333333307,
      "v": 108
    },
    {
      "midi": 55,
      "hit": false,
      "t": 309326.8199999999,
      "d": 820.1847499999567,
      "v": 84
    },
    {
      "midi": 60,
      "hit": false,
      "t": 309326.8199999999,
      "d": 843.6185999999288,
      "v": 86
    },
    {
      "midi": 63,
      "hit": false,
      "t": 309326.8199999999,
      "d": 843.6185999999288,
      "v": 75
    },
    {
      "midi": 46,
      "hit": false,
      "t": 309326.8199999999,
      "d": 1132.6360833332292,
      "v": 73
    },
    {
      "midi": 63,
      "hit": false,
      "t": 310264.1739999998,
      "d": 78.11283333331812,
      "v": 61
    },
    {
      "midi": 55,
      "hit": false,
      "t": 310264.1739999998,
      "d": 101.54668333329028,
      "v": 89
    },
    {
      "midi": 60,
      "hit": false,
      "t": 310264.1739999998,
      "d": 101.54668333329028,
      "v": 94
    },
    {
      "midi": 53,
      "hit": false,
      "t": 310732.8509999998,
      "d": 1288.86175000004,
      "v": 87
    },
    {
      "midi": 58,
      "hit": false,
      "t": 310732.8509999998,
      "d": 1429.4648499999894,
      "v": 80
    },
    {
      "midi": 62,
      "hit": false,
      "t": 310732.8509999998,
      "d": 1624.746933333343,
      "v": 92
    },
    {
      "midi": 46,
      "hit": false,
      "t": 310732.8509999998,
      "d": 2069.9900833333377,
      "v": 80
    },
    {
      "midi": 53,
      "hit": false,
      "t": 312138.8819999998,
      "d": 507.7334166666842,
      "v": 100
    },
    {
      "midi": 58,
      "hit": false,
      "t": 312373.2204999998,
      "d": 351.50774999998976,
      "v": 74
    },
    {
      "midi": 62,
      "hit": false,
      "t": 312607.55899999983,
      "d": 140.60309999994934,
      "v": 95
    },
    {
      "midi": 82,
      "hit": false,
      "t": 313076.2359999995,
      "d": 39.05641666665906,
      "v": 102
    },
    {
      "midi": 54,
      "hit": false,
      "t": 313076.2359999998,
      "d": 687.3929333333508,
      "v": 84
    },
    {
      "midi": 58,
      "hit": false,
      "t": 313076.2359999998,
      "d": 703.0155000000377,
      "v": 87
    },
    {
      "midi": 61,
      "hit": false,
      "t": 313076.2359999998,
      "d": 703.0155000000377,
      "v": 79
    },
    {
      "midi": 42,
      "hit": false,
      "t": 313076.2359999998,
      "d": 1195.1263500000932,
      "v": 86
    },
    {
      "midi": 82,
      "hit": false,
      "t": 313755.8176499995,
      "d": 62.49026666668942,
      "v": 89
    },
    {
      "midi": 54,
      "hit": false,
      "t": 314013.58999999985,
      "d": 62.49026666668942,
      "v": 69
    },
    {
      "midi": 58,
      "hit": false,
      "t": 314013.58999999985,
      "d": 78.11283333337633,
      "v": 81
    },
    {
      "midi": 61,
      "hit": false,
      "t": 314013.58999999985,
      "d": 78.11283333337633,
      "v": 74
    },
    {
      "midi": 82,
      "hit": false,
      "t": 314482.2669999995,
      "d": 62.49026666668942,
      "v": 104
    },
    {
      "midi": 60,
      "hit": false,
      "t": 314482.26699999993,
      "d": 765.5057666666689,
      "v": 94
    },
    {
      "midi": 56,
      "hit": false,
      "t": 314482.26699999993,
      "d": 820.1847500000149,
      "v": 80
    },
    {
      "midi": 63,
      "hit": false,
      "t": 314482.26699999993,
      "d": 898.297583333333,
      "v": 83
    },
    {
      "midi": 44,
      "hit": false,
      "t": 314482.26699999993,
      "d": 2226.215749999974,
      "v": 87
    },
    {
      "midi": 63,
      "hit": false,
      "t": 315653.95949999994,
      "d": 257.7723499999847,
      "v": 101
    },
    {
      "midi": 62,
      "hit": false,
      "t": 315888.29799999995,
      "d": 117.16924999997718,
      "v": 113
    },
    {
      "midi": 58,
      "hit": false,
      "t": 316122.6364999999,
      "d": 62.49026666668942,
      "v": 102
    },
    {
      "midi": 53,
      "hit": false,
      "t": 316356.9749999999,
      "d": 257.7723499999847,
      "v": 121
    },
    {
      "midi": 63,
      "hit": false,
      "t": 316825.6519999999,
      "d": 999.8442666666815,
      "v": 75
    },
    {
      "midi": 53,
      "hit": false,
      "t": 316825.6519999999,
      "d": 1093.5796666666865,
      "v": 85
    },
    {
      "midi": 58,
      "hit": false,
      "t": 316825.6519999999,
      "d": 1093.5796666666865,
      "v": 71
    },
    {
      "midi": 46,
      "hit": false,
      "t": 316825.6519999999,
      "d": 3788.4724166666856,
      "v": 82
    },
    {
      "midi": 53,
      "hit": false,
      "t": 318231.6829999999,
      "d": 804.562183333328,
      "v": 76
    },
    {
      "midi": 58,
      "hit": false,
      "t": 318231.6829999999,
      "d": 804.562183333328,
      "v": 42
    },
    {
      "midi": 62,
      "hit": false,
      "t": 318231.6829999999,
      "d": 859.241166666674,
      "v": 86
    },
    {
      "midi": 53,
      "hit": false,
      "t": 319403.3754999999,
      "d": 117.16924999997718,
      "v": 114
    },
    {
      "midi": 62,
      "hit": false,
      "t": 319637.71399999986,
      "d": 218.71593333332567,
      "v": 97
    },
    {
      "midi": 63,
      "hit": false,
      "t": 319872.0524999999,
      "d": 101.54668333334848,
      "v": 70
    },
    {
      "midi": 62,
      "hit": false,
      "t": 320106.3909999999,
      "d": 117.16924999997718,
      "v": 102
    },
    {
      "midi": 58,
      "hit": false,
      "t": 320340.72949999984,
      "d": 62.49026666668942,
      "v": 122
    },
    {
      "midi": 58,
      "hit": false,
      "t": 320575.0679999999,
      "d": 843.618599999987,
      "v": 67
    },
    {
      "midi": 53,
      "hit": false,
      "t": 320575.0679999999,
      "d": 882.6750166666461,
      "v": 71
    },
    {
      "midi": 61,
      "hit": false,
      "t": 320575.0679999999,
      "d": 882.6750166666461,
      "v": 65
    },
    {
      "midi": 42,
      "hit": false,
      "t": 320575.0679999999,
      "d": 1038.9006833333406,
      "v": 50
    },
    {
      "midi": 82,
      "hit": false,
      "t": 320614.1244166662,
      "d": 39.05641666665906,
      "v": 119
    },
    {
      "midi": 82,
      "hit": false,
      "t": 321293.70606666623,
      "d": 62.49026666668942,
      "v": 107
    },
    {
      "midi": 56,
      "hit": false,
      "t": 321981.09899999993,
      "d": 1234.1827666665777,
      "v": 71
    },
    {
      "midi": 60,
      "hit": false,
      "t": 321981.09899999993,
      "d": 1273.2391833332367,
      "v": 80
    },
    {
      "midi": 53,
      "hit": false,
      "t": 321981.09899999993,
      "d": 2054.3675166665926,
      "v": 75
    },
    {
      "midi": 44,
      "hit": false,
      "t": 321981.09899999993,
      "d": 2226.215749999974,
      "v": 84
    },
    {
      "midi": 82,
      "hit": false,
      "t": 321996.72156666627,
      "d": 39.05641666665906,
      "v": 98
    },
    {
      "midi": 58,
      "hit": false,
      "t": 323387.12999999983,
      "d": 140.60310000000754,
      "v": 95
    },
    {
      "midi": 60,
      "hit": false,
      "t": 323387.12999999983,
      "d": 351.50775000004796,
      "v": 18
    },
    {
      "midi": 56,
      "hit": false,
      "t": 323387.12999999983,
      "d": 648.3365166666918,
      "v": 8
    },
    {
      "midi": 60,
      "hit": false,
      "t": 323855.80699999986,
      "d": 39.05641666665906,
      "v": 51
    },
    {
      "midi": 58,
      "hit": false,
      "t": 323855.80699999986,
      "d": 140.60310000000754,
      "v": 106
    },
    {
      "midi": 55,
      "hit": false,
      "t": 324324.4839999999,
      "d": 687.3929333333508,
      "v": 33
    },
    {
      "midi": 60,
      "hit": false,
      "t": 324324.4839999999,
      "d": 703.0155000000377,
      "v": 81
    },
    {
      "midi": 63,
      "hit": false,
      "t": 324324.4839999999,
      "d": 726.4493500000099,
      "v": 43
    },
    {
      "midi": 46,
      "hit": false,
      "t": 324324.4839999999,
      "d": 859.241166666674,
      "v": 40
    },
    {
      "midi": 53,
      "hit": false,
      "t": 325730.51499999996,
      "d": 1132.6360833332874,
      "v": 81
    },
    {
      "midi": 58,
      "hit": false,
      "t": 325730.51499999996,
      "d": 1312.295599999954,
      "v": 67
    },
    {
      "midi": 46,
      "hit": false,
      "t": 325730.51499999996,
      "d": 1484.1438333332771,
      "v": 62
    },
    {
      "midi": 62,
      "hit": false,
      "t": 325730.51499999996,
      "d": 1663.8033499999437,
      "v": 85
    },
    {
      "midi": 53,
      "hit": false,
      "t": 327136.5459999999,
      "d": 507.733416666626,
      "v": 89
    },
    {
      "midi": 58,
      "hit": false,
      "t": 327370.8844999999,
      "d": 351.50774999993155,
      "v": 34
    },
    {
      "midi": 62,
      "hit": false,
      "t": 327605.2229999999,
      "d": 140.60309999994934,
      "v": 100
    },
    {
      "midi": 54,
      "hit": false,
      "t": 328073.89999999985,
      "d": 609.2801000000327,
      "v": 63
    },
    {
      "midi": 58,
      "hit": false,
      "t": 328073.89999999985,
      "d": 765.5057666667271,
      "v": 80
    },
    {
      "midi": 61,
      "hit": false,
      "t": 328073.89999999985,
      "d": 820.1847500000731,
      "v": 79
    },
    {
      "midi": 42,
      "hit": false,
      "t": 328073.89999999985,
      "d": 999.8442666667397,
      "v": 73
    },
    {
      "midi": 82,
      "hit": false,
      "t": 328089.52256666636,
      "d": 62.49026666668942,
      "v": 117
    },
    {
      "midi": 82,
      "hit": false,
      "t": 328792.5380666664,
      "d": 39.05641666665906,
      "v": 122
    },
    {
      "midi": 54,
      "hit": false,
      "t": 329011.2539999999,
      "d": 78.11283333337633,
      "v": 75
    },
    {
      "midi": 58,
      "hit": false,
      "t": 329011.2539999999,
      "d": 78.11283333337633,
      "v": 82
    },
    {
      "midi": 61,
      "hit": false,
      "t": 329011.2539999999,
      "d": 101.54668333334848,
      "v": 75
    },
    {
      "midi": 60,
      "hit": false,
      "t": 329479.9309999999,
      "d": 351.50774999998976,
      "v": 93
    },
    {
      "midi": 56,
      "hit": false,
      "t": 329479.9309999999,
      "d": 374.9415999999619,
      "v": 71
    },
    {
      "midi": 63,
      "hit": false,
      "t": 329479.9309999999,
      "d": 663.9590833333205,
      "v": 72
    },
    {
      "midi": 44,
      "hit": false,
      "t": 329479.9309999999,
      "d": 1468.5212666666484,
      "v": 63
    },
    {
      "midi": 82,
      "hit": false,
      "t": 329495.5535666664,
      "d": 39.05641666665906,
      "v": 98
    },
    {
      "midi": 56,
      "hit": false,
      "t": 329948.6079999999,
      "d": 570.2236833333736,
      "v": 72
    },
    {
      "midi": 60,
      "hit": false,
      "t": 330182.9464999999,
      "d": 335.88518333336106,
      "v": 96
    },
    {
      "midi": 56,
      "hit": false,
      "t": 330651.6234999999,
      "d": 492.1108499999391,
      "v": 71
    },
    {
      "midi": 60,
      "hit": false,
      "t": 330651.6234999999,
      "d": 648.3365166666335,
      "v": 102
    },
    {
      "midi": 63,
      "hit": false,
      "t": 330651.6234999999,
      "d": 1015.466833333252,
      "v": 88
    },
    {
      "midi": 44,
      "hit": false,
      "t": 331120.3004999999,
      "d": 585.8462499999441,
      "v": 87
    },
    {
      "midi": 60,
      "hit": false,
      "t": 331354.6389999999,
      "d": 218.71593333332567,
      "v": 47
    },
    {
      "midi": 56,
      "hit": false,
      "t": 331354.6389999999,
      "d": 351.50774999993155,
      "v": 79
    },
    {
      "midi": 63,
      "hit": false,
      "t": 331823.3159999998,
      "d": 999.8442666666815,
      "v": 75
    },
    {
      "midi": 53,
      "hit": false,
      "t": 331823.3159999998,
      "d": 1093.5796666666865,
      "v": 85
    },
    {
      "midi": 58,
      "hit": false,
      "t": 331823.3159999998,
      "d": 1093.5796666666865,
      "v": 71
    },
    {
      "midi": 46,
      "hit": false,
      "t": 331823.3159999998,
      "d": 3788.4724166663946,
      "v": 82
    },
    {
      "midi": 53,
      "hit": false,
      "t": 333229.34699999983,
      "d": 804.562183333328,
      "v": 76
    },
    {
      "midi": 58,
      "hit": false,
      "t": 333229.34699999983,
      "d": 804.562183333328,
      "v": 42
    },
    {
      "midi": 62,
      "hit": false,
      "t": 333229.34699999983,
      "d": 859.2411666666158,
      "v": 86
    },
    {
      "midi": 53,
      "hit": false,
      "t": 334401.0394999997,
      "d": 117.16924999997718,
      "v": 114
    },
    {
      "midi": 62,
      "hit": false,
      "t": 334635.3779999997,
      "d": 218.71593333326746,
      "v": 97
    },
    {
      "midi": 63,
      "hit": false,
      "t": 334869.71649999963,
      "d": 101.54668333329028,
      "v": 70
    },
    {
      "midi": 62,
      "hit": false,
      "t": 335104.0549999996,
      "d": 117.16924999997718,
      "v": 102
    },
    {
      "midi": 58,
      "hit": false,
      "t": 335338.39349999954,
      "d": 62.49026666668942,
      "v": 122
    },
    {
      "midi": 58,
      "hit": false,
      "t": 335572.73199999955,
      "d": 843.618599999987,
      "v": 67
    },
    {
      "midi": 53,
      "hit": false,
      "t": 335572.73199999955,
      "d": 882.6750166666461,
      "v": 71
    },
    {
      "midi": 61,
      "hit": false,
      "t": 335572.73199999955,
      "d": 882.6750166666461,
      "v": 65
    },
    {
      "midi": 42,
      "hit": false,
      "t": 335572.73199999955,
      "d": 1038.9006833332824,
      "v": 50
    },
    {
      "midi": 82,
      "hit": false,
      "t": 335611.78841666644,
      "d": 39.05641666665906,
      "v": 98
    },
    {
      "midi": 82,
      "hit": false,
      "t": 336291.3700666664,
      "d": 39.05641666665906,
      "v": 98
    },
    {
      "midi": 56,
      "hit": false,
      "t": 336978.7629999995,
      "d": 1234.1827666667523,
      "v": 71
    },
    {
      "midi": 60,
      "hit": false,
      "t": 336978.7629999995,
      "d": 1273.2391833334113,
      "v": 80
    },
    {
      "midi": 53,
      "hit": false,
      "t": 336978.7629999995,
      "d": 1874.7080000001006,
      "v": 75
    },
    {
      "midi": 44,
      "hit": false,
      "t": 336978.7629999995,
      "d": 2226.2157500001485,
      "v": 84
    },
    {
      "midi": 82,
      "hit": false,
      "t": 336994.38556666643,
      "d": 62.49026666668942,
      "v": 98
    },
    {
      "midi": 53,
      "hit": false,
      "t": 338853.4709999996,
      "d": 312.4513333333889,
      "v": 108
    }
  ]
}