{
  "jsonPath": "Soul/R&B/Mariah Carey/we-belong-together.json",
  "path": "Soul\\R&B\\Mariah Carey\\We Belong Together.mid",
  "name": "We Belong Together",
  "difficulty": "Advanced",
  "bpm": 120,
  "notes": [
    {
      "midi": 69,
      "hit": false,
      "t": 6864.286858333333,
      "d": 225.00003749999905,
      "v": 94
    },
    {
      "midi": 81,
      "hit": false,
      "t": 6864.286858333333,
      "d": 225.00003749999905,
      "v": 94
    },
    {
      "midi": 83,
      "hit": false,
      "t": 7073.2154645833325,
      "d": 242.8571833333326,
      "v": 88
    },
    {
      "midi": 71,
      "hit": false,
      "t": 7076.786893749999,
      "d": 242.8571833333326,
      "v": 88
    },
    {
      "midi": 84,
      "hit": false,
      "t": 7285.715499999998,
      "d": 225.00003749999996,
      "v": 98
    },
    {
      "midi": 72,
      "hit": false,
      "t": 7291.072643749999,
      "d": 225.00003749999996,
      "v": 98
    },
    {
      "midi": 86,
      "hit": false,
      "t": 7500.001249999998,
      "d": 225.00003749999905,
      "v": 92
    },
    {
      "midi": 77,
      "hit": false,
      "t": 7642.858416666665,
      "d": 1201.7859145833309,
      "v": 91
    },
    {
      "midi": 81,
      "hit": false,
      "t": 7678.572708333331,
      "d": 419.6429270833323,
      "v": 82
    },
    {
      "midi": 69,
      "hit": false,
      "t": 7721.429858333331,
      "d": 1425.0002374999967,
      "v": 94
    },
    {
      "midi": 65,
      "hit": false,
      "t": 7721.429858333331,
      "d": 1457.1430999999957,
      "v": 76
    },
    {
      "midi": 72,
      "hit": false,
      "t": 7723.215572916664,
      "d": 1432.1430958333294,
      "v": 83
    },
    {
      "midi": 84,
      "hit": false,
      "t": 7742.858433333331,
      "d": 319.6429104166664,
      "v": 96
    },
    {
      "midi": 88,
      "hit": false,
      "t": 7764.287008333331,
      "d": 1073.2144645833323,
      "v": 106
    },
    {
      "midi": 84,
      "hit": false,
      "t": 8142.858499999997,
      "d": 758.9286979166664,
      "v": 94
    },
    {
      "midi": 81,
      "hit": false,
      "t": 8575.001429166663,
      "d": 301.78576458333373,
      "v": 101
    },
    {
      "midi": 77,
      "hit": false,
      "t": 8903.572912499996,
      "d": 366.0714895833298,
      "v": 78
    },
    {
      "midi": 81,
      "hit": false,
      "t": 8958.93006458333,
      "d": 296.42862083333057,
      "v": 92
    },
    {
      "midi": 84,
      "hit": false,
      "t": 8985.71578333333,
      "d": 300.0000499999969,
      "v": 106
    },
    {
      "midi": 88,
      "hit": false,
      "t": 9014.287216666662,
      "d": 248.21432708333123,
      "v": 101
    },
    {
      "midi": 76,
      "hit": false,
      "t": 9342.858699999993,
      "d": 1196.4287708333304,
      "v": 85
    },
    {
      "midi": 79,
      "hit": false,
      "t": 9367.85870416666,
      "d": 744.6429812499991,
      "v": 97
    },
    {
      "midi": 83,
      "hit": false,
      "t": 9417.858712499992,
      "d": 350.0000583333349,
      "v": 75
    },
    {
      "midi": 67,
      "hit": false,
      "t": 9432.14442916666,
      "d": 1441.071668749999,
      "v": 88
    },
    {
      "midi": 71,
      "hit": false,
      "t": 9432.14442916666,
      "d": 1444.6430979166653,
      "v": 73
    },
    {
      "midi": 64,
      "hit": false,
      "t": 9432.14442916666,
      "d": 1469.6431020833315,
      "v": 78
    },
    {
      "midi": 86,
      "hit": false,
      "t": 9442.85871666666,
      "d": 1126.7859020833293,
      "v": 94
    },
    {
      "midi": 83,
      "hit": false,
      "t": 9858.930214583326,
      "d": 748.2144104166637,
      "v": 88
    },
    {
      "midi": 79,
      "hit": false,
      "t": 10285.715999999991,
      "d": 355.3572020833326,
      "v": 93
    },
    {
      "midi": 76,
      "hit": false,
      "t": 10630.358914583323,
      "d": 376.7857770833343,
      "v": 93
    },
    {
      "midi": 79,
      "hit": false,
      "t": 10692.858924999991,
      "d": 341.0714854166654,
      "v": 88
    },
    {
      "midi": 86,
      "hit": false,
      "t": 10730.358931249992,
      "d": 283.92861874999835,
      "v": 101
    },
    {
      "midi": 83,
      "hit": false,
      "t": 10733.930360416658,
      "d": 326.78576874999817,
      "v": 83
    },
    {
      "midi": 74,
      "hit": false,
      "t": 11108.930422916656,
      "d": 1323.2145062500003,
      "v": 82
    },
    {
      "midi": 77,
      "hit": false,
      "t": 11141.073285416656,
      "d": 748.2144104166655,
      "v": 94
    },
    {
      "midi": 65,
      "hit": false,
      "t": 11146.430429166656,
      "d": 1291.0716437499996,
      "v": 86
    },
    {
      "midi": 69,
      "hit": false,
      "t": 11146.430429166656,
      "d": 1301.7859312500004,
      "v": 67
    },
    {
      "midi": 62,
      "hit": false,
      "t": 11146.430429166656,
      "d": 1317.8573625000008,
      "v": 82
    },
    {
      "midi": 81,
      "hit": false,
      "t": 11164.28757499999,
      "d": 310.7143374999996,
      "v": 98
    },
    {
      "midi": 84,
      "hit": false,
      "t": 11169.644718749989,
      "d": 1262.500210416667,
      "v": 94
    },
    {
      "midi": 81,
      "hit": false,
      "t": 11592.85907499999,
      "d": 839.2858541666665,
      "v": 91
    },
    {
      "midi": 77,
      "hit": false,
      "t": 12005.359143749989,
      "d": 426.78578541666684,
      "v": 92
    },
    {
      "midi": 72,
      "hit": false,
      "t": 12435.716358333322,
      "d": 437.5000729166659,
      "v": 92
    },
    {
      "midi": 41,
      "hit": false,
      "t": 12850.002141666657,
      "d": 1678.5717083333311,
      "v": 86
    },
    {
      "midi": 29,
      "hit": false,
      "t": 12855.359285416656,
      "d": 1669.6431354166652,
      "v": 75
    },
    {
      "midi": 57,
      "hit": false,
      "t": 12855.359285416656,
      "d": 1685.7145666666656,
      "v": 83
    },
    {
      "midi": 60,
      "hit": false,
      "t": 12858.930714583323,
      "d": 1685.7145666666656,
      "v": 91
    },
    {
      "midi": 53,
      "hit": false,
      "t": 12866.073572916655,
      "d": 1676.7859937499998,
      "v": 91
    },
    {
      "midi": 76,
      "hit": false,
      "t": 14578.573858333322,
      "d": 1105.357327083333,
      "v": 93
    },
    {
      "midi": 60,
      "hit": false,
      "t": 14580.359572916655,
      "d": 1153.5716208333324,
      "v": 91
    },
    {
      "midi": 64,
      "hit": false,
      "t": 14582.145287499989,
      "d": 1105.357327083333,
      "v": 93
    },
    {
      "midi": 57,
      "hit": false,
      "t": 14582.145287499989,
      "d": 1153.5716208333324,
      "v": 97
    },
    {
      "midi": 53,
      "hit": false,
      "t": 14583.931002083322,
      "d": 1107.1430416666662,
      "v": 91
    },
    {
      "midi": 41,
      "hit": false,
      "t": 14585.716716666655,
      "d": 1207.143058333333,
      "v": 94
    },
    {
      "midi": 43,
      "hit": false,
      "t": 15855.359785416655,
      "d": 2117.85749583333,
      "v": 82
    },
    {
      "midi": 59,
      "hit": false,
      "t": 15857.145499999988,
      "d": 2082.143204166663,
      "v": 94
    },
    {
      "midi": 55,
      "hit": false,
      "t": 15858.931214583321,
      "d": 2066.0717729166645,
      "v": 96
    },
    {
      "midi": 62,
      "hit": false,
      "t": 15860.716929166654,
      "d": 1928.5717499999992,
      "v": 91
    },
    {
      "midi": 74,
      "hit": false,
      "t": 15864.28835833332,
      "d": 1928.5717499999992,
      "v": 91
    },
    {
      "midi": 62,
      "hit": false,
      "t": 17792.86010833332,
      "d": 1137.5001895833338,
      "v": 94
    },
    {
      "midi": 59,
      "hit": false,
      "t": 18005.360143749986,
      "d": 1194.6430562500027,
      "v": 88
    },
    {
      "midi": 40,
      "hit": false,
      "t": 18005.360143749986,
      "d": 1258.9287812500042,
      "v": 93
    },
    {
      "midi": 55,
      "hit": false,
      "t": 18007.14585833332,
      "d": 1191.0716270833364,
      "v": 91
    },
    {
      "midi": 52,
      "hit": false,
      "t": 18008.931572916652,
      "d": 1150.0001916666697,
      "v": 93
    },
    {
      "midi": 41,
      "hit": false,
      "t": 19285.71749999999,
      "d": 2119.643210416667,
      "v": 91
    },
    {
      "midi": 60,
      "hit": false,
      "t": 19287.503214583325,
      "d": 2085.714633333333,
      "v": 98
    },
    {
      "midi": 57,
      "hit": false,
      "t": 19289.288929166658,
      "d": 2080.3574895833335,
      "v": 94
    },
    {
      "midi": 53,
      "hit": false,
      "t": 19291.07464374999,
      "d": 2080.3574895833335,
      "v": 91
    },
    {
      "midi": 76,
      "hit": false,
      "t": 21435.717858333326,
      "d": 1105.357327083333,
      "v": 93
    },
    {
      "midi": 60,
      "hit": false,
      "t": 21437.50357291666,
      "d": 1153.5716208333324,
      "v": 91
    },
    {
      "midi": 64,
      "hit": false,
      "t": 21439.289287499992,
      "d": 1105.357327083333,
      "v": 93
    },
    {
      "midi": 57,
      "hit": false,
      "t": 21439.289287499992,
      "d": 1153.5716208333324,
      "v": 97
    },
    {
      "midi": 53,
      "hit": false,
      "t": 21441.075002083326,
      "d": 1107.1430416666662,
      "v": 91
    },
    {
      "midi": 41,
      "hit": false,
      "t": 21442.86071666666,
      "d": 1207.1430583333313,
      "v": 94
    },
    {
      "midi": 43,
      "hit": false,
      "t": 22712.50378541666,
      "d": 2117.85749583333,
      "v": 82
    },
    {
      "midi": 59,
      "hit": false,
      "t": 22714.28949999999,
      "d": 2082.143204166663,
      "v": 94
    },
    {
      "midi": 55,
      "hit": false,
      "t": 22716.075214583325,
      "d": 2066.0717729166645,
      "v": 96
    },
    {
      "midi": 62,
      "hit": false,
      "t": 22717.860929166658,
      "d": 1928.5717499999992,
      "v": 91
    },
    {
      "midi": 74,
      "hit": false,
      "t": 22721.432358333324,
      "d": 1928.5717499999992,
      "v": 91
    },
    {
      "midi": 62,
      "hit": false,
      "t": 24650.004108333324,
      "d": 1137.5001895833338,
      "v": 94
    },
    {
      "midi": 59,
      "hit": false,
      "t": 24862.50414374999,
      "d": 1194.6430562500027,
      "v": 88
    },
    {
      "midi": 40,
      "hit": false,
      "t": 24862.50414374999,
      "d": 1258.9287812500042,
      "v": 93
    },
    {
      "midi": 55,
      "hit": false,
      "t": 24864.289858333323,
      "d": 1191.0716270833364,
      "v": 91
    },
    {
      "midi": 52,
      "hit": false,
      "t": 24866.075572916656,
      "d": 1150.0001916666697,
      "v": 93
    },
    {
      "midi": 41,
      "hit": false,
      "t": 26142.861499999995,
      "d": 2119.643210416667,
      "v": 91
    },
    {
      "midi": 60,
      "hit": false,
      "t": 26144.64721458333,
      "d": 2085.714633333333,
      "v": 98
    },
    {
      "midi": 57,
      "hit": false,
      "t": 26146.43292916666,
      "d": 2080.3574895833335,
      "v": 94
    },
    {
      "midi": 53,
      "hit": false,
      "t": 26148.218643749995,
      "d": 2080.3574895833335,
      "v": 91
    },
    {
      "midi": 41,
      "hit": false,
      "t": 28292.86185833333,
      "d": 1107.1430416666662,
      "v": 93
    },
    {
      "midi": 53,
      "hit": false,
      "t": 28292.86185833333,
      "d": 1107.1430416666662,
      "v": 93
    },
    {
      "midi": 64,
      "hit": false,
      "t": 28292.86185833333,
      "d": 1108.9287562499994,
      "v": 93
    },
    {
      "midi": 76,
      "hit": false,
      "t": 28292.86185833333,
      "d": 1110.7144708333326,
      "v": 98
    },
    {
      "midi": 60,
      "hit": false,
      "t": 28292.86185833333,
      "d": 1148.214477083333,
      "v": 97
    },
    {
      "midi": 57,
      "hit": false,
      "t": 28292.86185833333,
      "d": 1158.928764583332,
      "v": 94
    },
    {
      "midi": 43,
      "hit": false,
      "t": 29578.57635833333,
      "d": 1937.500322916665,
      "v": 90
    },
    {
      "midi": 55,
      "hit": false,
      "t": 29578.57635833333,
      "d": 1937.500322916665,
      "v": 90
    },
    {
      "midi": 59,
      "hit": false,
      "t": 29578.57635833333,
      "d": 1978.5717583333317,
      "v": 88
    },
    {
      "midi": 74,
      "hit": false,
      "t": 29578.57635833333,
      "d": 2007.143191666666,
      "v": 98
    },
    {
      "midi": 62,
      "hit": false,
      "t": 29578.57635833333,
      "d": 2010.7146208333324,
      "v": 96
    },
    {
      "midi": 40,
      "hit": false,
      "t": 31721.433858333326,
      "d": 1167.8573375000014,
      "v": 94
    },
    {
      "midi": 52,
      "hit": false,
      "t": 31721.433858333326,
      "d": 1167.8573375000014,
      "v": 94
    },
    {
      "midi": 74,
      "hit": false,
      "t": 31721.433858333326,
      "d": 1171.4287666666678,
      "v": 99
    },
    {
      "midi": 62,
      "hit": false,
      "t": 31721.433858333326,
      "d": 1196.4287708333322,
      "v": 90
    },
    {
      "midi": 55,
      "hit": false,
      "t": 31721.433858333326,
      "d": 1214.285916666664,
      "v": 91
    },
    {
      "midi": 59,
      "hit": false,
      "t": 31721.433858333326,
      "d": 1228.5716333333294,
      "v": 93
    },
    {
      "midi": 60,
      "hit": false,
      "t": 33007.148358333325,
      "d": 1975.0003291666653,
      "v": 96
    },
    {
      "midi": 72,
      "hit": false,
      "t": 33007.148358333325,
      "d": 1983.9289020833312,
      "v": 93
    },
    {
      "midi": 41,
      "hit": false,
      "t": 33007.148358333325,
      "d": 2003.571762499996,
      "v": 94
    },
    {
      "midi": 53,
      "hit": false,
      "t": 33007.148358333325,
      "d": 2003.571762499996,
      "v": 94
    },
    {
      "midi": 57,
      "hit": false,
      "t": 33007.148358333325,
      "d": 2010.7146208333288,
      "v": 96
    },
    {
      "midi": 41,
      "hit": false,
      "t": 35150.00585833332,
      "d": 1107.14304166667,
      "v": 93
    },
    {
      "midi": 53,
      "hit": false,
      "t": 35150.00585833332,
      "d": 1107.14304166667,
      "v": 93
    },
    {
      "midi": 64,
      "hit": false,
      "t": 35150.00585833332,
      "d": 1108.928756250003,
      "v": 93
    },
    {
      "midi": 76,
      "hit": false,
      "t": 35150.00585833332,
      "d": 1110.7144708333362,
      "v": 98
    },
    {
      "midi": 60,
      "hit": false,
      "t": 35150.00585833332,
      "d": 1148.214477083333,
      "v": 97
    },
    {
      "midi": 57,
      "hit": false,
      "t": 35150.00585833332,
      "d": 1158.928764583332,
      "v": 94
    },
    {
      "midi": 43,
      "hit": false,
      "t": 36435.720358333325,
      "d": 1937.5003229166687,
      "v": 90
    },
    {
      "midi": 55,
      "hit": false,
      "t": 36435.720358333325,
      "d": 1937.5003229166687,
      "v": 90
    },
    {
      "midi": 59,
      "hit": false,
      "t": 36435.720358333325,
      "d": 1978.571758333339,
      "v": 88
    },
    {
      "midi": 74,
      "hit": false,
      "t": 36435.720358333325,
      "d": 2007.1431916666697,
      "v": 98
    },
    {
      "midi": 62,
      "hit": false,
      "t": 36435.720358333325,
      "d": 2010.714620833336,
      "v": 96
    },
    {
      "midi": 40,
      "hit": false,
      "t": 38578.57785833333,
      "d": 1167.8573374999978,
      "v": 94
    },
    {
      "midi": 52,
      "hit": false,
      "t": 38578.57785833333,
      "d": 1167.8573374999978,
      "v": 94
    },
    {
      "midi": 74,
      "hit": false,
      "t": 38578.57785833333,
      "d": 1171.4287666666642,
      "v": 99
    },
    {
      "midi": 62,
      "hit": false,
      "t": 38578.57785833333,
      "d": 1196.4287708333286,
      "v": 90
    },
    {
      "midi": 55,
      "hit": false,
      "t": 38578.57785833333,
      "d": 1214.2859166666603,
      "v": 91
    },
    {
      "midi": 59,
      "hit": false,
      "t": 38578.57785833333,
      "d": 1228.5716333333257,
      "v": 93
    },
    {
      "midi": 60,
      "hit": false,
      "t": 39864.292358333325,
      "d": 1975.0003291666653,
      "v": 96
    },
    {
      "midi": 72,
      "hit": false,
      "t": 39864.292358333325,
      "d": 1983.9289020833312,
      "v": 93
    },
    {
      "midi": 41,
      "hit": false,
      "t": 39864.292358333325,
      "d": 2003.571762499996,
      "v": 94
    },
    {
      "midi": 53,
      "hit": false,
      "t": 39864.292358333325,
      "d": 2003.571762499996,
      "v": 94
    },
    {
      "midi": 57,
      "hit": false,
      "t": 39864.292358333325,
      "d": 2010.7146208333288,
      "v": 96
    },
    {
      "midi": 41,
      "hit": false,
      "t": 42007.14985833332,
      "d": 1107.14304166667,
      "v": 93
    },
    {
      "midi": 53,
      "hit": false,
      "t": 42007.14985833332,
      "d": 1107.14304166667,
      "v": 93
    },
    {
      "midi": 64,
      "hit": false,
      "t": 42007.14985833332,
      "d": 1108.928756250003,
      "v": 93
    },
    {
      "midi": 76,
      "hit": false,
      "t": 42007.14985833332,
      "d": 1110.7144708333362,
      "v": 98
    },
    {
      "midi": 60,
      "hit": false,
      "t": 42007.14985833332,
      "d": 1148.214477083333,
      "v": 97
    },
    {
      "midi": 57,
      "hit": false,
      "t": 42007.14985833332,
      "d": 1158.928764583332,
      "v": 94
    },
    {
      "midi": 43,
      "hit": false,
      "t": 43292.864358333325,
      "d": 1937.5003229166687,
      "v": 90
    },
    {
      "midi": 55,
      "hit": false,
      "t": 43292.864358333325,
      "d": 1937.5003229166687,
      "v": 90
    },
    {
      "midi": 59,
      "hit": false,
      "t": 43292.864358333325,
      "d": 1978.571758333339,
      "v": 88
    },
    {
      "midi": 74,
      "hit": false,
      "t": 43292.864358333325,
      "d": 2007.1431916666697,
      "v": 98
    },
    {
      "midi": 62,
      "hit": false,
      "t": 43292.864358333325,
      "d": 2010.714620833336,
      "v": 96
    },
    {
      "midi": 40,
      "hit": false,
      "t": 45435.72185833333,
      "d": 1167.8573374999978,
      "v": 94
    },
    {
      "midi": 52,
      "hit": false,
      "t": 45435.72185833333,
      "d": 1167.8573374999978,
      "v": 94
    },
    {
      "midi": 74,
      "hit": false,
      "t": 45435.72185833333,
      "d": 1171.4287666666642,
      "v": 99
    },
    {
      "midi": 62,
      "hit": false,
      "t": 45435.72185833333,
      "d": 1196.4287708333286,
      "v": 90
    },
    {
      "midi": 55,
      "hit": false,
      "t": 45435.72185833333,
      "d": 1214.2859166666603,
      "v": 91
    },
    {
      "midi": 59,
      "hit": false,
      "t": 45435.72185833333,
      "d": 1228.5716333333257,
      "v": 93
    },
    {
      "midi": 60,
      "hit": false,
      "t": 46721.436358333325,
      "d": 1975.0003291666653,
      "v": 96
    },
    {
      "midi": 72,
      "hit": false,
      "t": 46721.436358333325,
      "d": 1983.9289020833312,
      "v": 93
    },
    {
      "midi": 41,
      "hit": false,
      "t": 46721.436358333325,
      "d": 2003.571762499996,
      "v": 94
    },
    {
      "midi": 53,
      "hit": false,
      "t": 46721.436358333325,
      "d": 2003.571762499996,
      "v": 94
    },
    {
      "midi": 57,
      "hit": false,
      "t": 46721.436358333325,
      "d": 2010.7146208333288,
      "v": 96
    },
    {
      "midi": 41,
      "hit": false,
      "t": 48864.29385833332,
      "d": 1107.14304166667,
      "v": 93
    },
    {
      "midi": 53,
      "hit": false,
      "t": 48864.29385833332,
      "d": 1107.14304166667,
      "v": 93
    },
    {
      "midi": 64,
      "hit": false,
      "t": 48864.29385833332,
      "d": 1108.928756250003,
      "v": 93
    },
    {
      "midi": 76,
      "hit": false,
      "t": 48864.29385833332,
      "d": 1110.7144708333362,
      "v": 98
    },
    {
      "midi": 60,
      "hit": false,
      "t": 48864.29385833332,
      "d": 1148.214477083333,
      "v": 97
    },
    {
      "midi": 57,
      "hit": false,
      "t": 48864.29385833332,
      "d": 1158.928764583332,
      "v": 94
    },
    {
      "midi": 43,
      "hit": false,
      "t": 50150.008358333325,
      "d": 1937.5003229166687,
      "v": 90
    },
    {
      "midi": 55,
      "hit": false,
      "t": 50150.008358333325,
      "d": 1937.5003229166687,
      "v": 90
    },
    {
      "midi": 59,
      "hit": false,
      "t": 50150.008358333325,
      "d": 1978.571758333339,
      "v": 88
    },
    {
      "midi": 74,
      "hit": false,
      "t": 50150.008358333325,
      "d": 2007.1431916666697,
      "v": 98
    },
    {
      "midi": 62,
      "hit": false,
      "t": 50150.008358333325,
      "d": 2010.714620833336,
      "v": 96
    },
    {
      "midi": 40,
      "hit": false,
      "t": 52292.86585833333,
      "d": 1167.8573374999978,
      "v": 94
    },
    {
      "midi": 52,
      "hit": false,
      "t": 52292.86585833333,
      "d": 1167.8573374999978,
      "v": 94
    },
    {
      "midi": 74,
      "hit": false,
      "t": 52292.86585833333,
      "d": 1171.4287666666642,
      "v": 99
    },
    {
      "midi": 62,
      "hit": false,
      "t": 52292.86585833333,
      "d": 1196.4287708333286,
      "v": 90
    },
    {
      "midi": 55,
      "hit": false,
      "t": 52292.86585833333,
      "d": 1214.2859166666603,
      "v": 91
    },
    {
      "midi": 59,
      "hit": false,
      "t": 52292.86585833333,
      "d": 1228.5716333333257,
      "v": 93
    },
    {
      "midi": 60,
      "hit": false,
      "t": 53578.580358333325,
      "d": 1975.0003291666653,
      "v": 96
    },
    {
      "midi": 72,
      "hit": false,
      "t": 53578.580358333325,
      "d": 1983.9289020833312,
      "v": 93
    },
    {
      "midi": 41,
      "hit": false,
      "t": 53578.580358333325,
      "d": 2003.571762499996,
      "v": 94
    },
    {
      "midi": 53,
      "hit": false,
      "t": 53578.580358333325,
      "d": 2003.571762499996,
      "v": 94
    },
    {
      "midi": 57,
      "hit": false,
      "t": 53578.580358333325,
      "d": 2010.7146208333288,
      "v": 96
    },
    {
      "midi": 41,
      "hit": false,
      "t": 55721.437858333324,
      "d": 1107.14304166667,
      "v": 93
    },
    {
      "midi": 53,
      "hit": false,
      "t": 55721.437858333324,
      "d": 1107.14304166667,
      "v": 93
    },
    {
      "midi": 64,
      "hit": false,
      "t": 55721.437858333324,
      "d": 1108.928756250003,
      "v": 93
    },
    {
      "midi": 76,
      "hit": false,
      "t": 55721.437858333324,
      "d": 1110.7144708333362,
      "v": 98
    },
    {
      "midi": 60,
      "hit": false,
      "t": 55721.437858333324,
      "d": 1148.214477083333,
      "v": 97
    },
    {
      "midi": 57,
      "hit": false,
      "t": 55721.437858333324,
      "d": 1158.928764583332,
      "v": 94
    },
    {
      "midi": 43,
      "hit": false,
      "t": 57007.152358333326,
      "d": 1937.5003229166687,
      "v": 90
    },
    {
      "midi": 55,
      "hit": false,
      "t": 57007.152358333326,
      "d": 1937.5003229166687,
      "v": 90
    },
    {
      "midi": 59,
      "hit": false,
      "t": 57007.152358333326,
      "d": 1978.571758333339,
      "v": 88
    },
    {
      "midi": 74,
      "hit": false,
      "t": 57007.152358333326,
      "d": 2007.1431916666697,
      "v": 98
    },
    {
      "midi": 62,
      "hit": false,
      "t": 57007.152358333326,
      "d": 2010.714620833336,
      "v": 96
    },
    {
      "midi": 40,
      "hit": false,
      "t": 59150.00985833333,
      "d": 1167.8573374999978,
      "v": 94
    },
    {
      "midi": 52,
      "hit": false,
      "t": 59150.00985833333,
      "d": 1167.8573374999978,
      "v": 94
    },
    {
      "midi": 74,
      "hit": false,
      "t": 59150.00985833333,
      "d": 1171.4287666666642,
      "v": 99
    },
    {
      "midi": 62,
      "hit": false,
      "t": 59150.00985833333,
      "d": 1196.4287708333286,
      "v": 90
    },
    {
      "midi": 55,
      "hit": false,
      "t": 59150.00985833333,
      "d": 1214.2859166666603,
      "v": 91
    },
    {
      "midi": 59,
      "hit": false,
      "t": 59150.00985833333,
      "d": 1228.5716333333257,
      "v": 93
    },
    {
      "midi": 60,
      "hit": false,
      "t": 60435.724358333326,
      "d": 1975.0003291666653,
      "v": 96
    },
    {
      "midi": 72,
      "hit": false,
      "t": 60435.724358333326,
      "d": 1983.9289020833312,
      "v": 93
    },
    {
      "midi": 41,
      "hit": false,
      "t": 60435.724358333326,
      "d": 2003.571762499996,
      "v": 94
    },
    {
      "midi": 53,
      "hit": false,
      "t": 60435.724358333326,
      "d": 2003.571762499996,
      "v": 94
    },
    {
      "midi": 57,
      "hit": false,
      "t": 60435.724358333326,
      "d": 2010.7146208333288,
      "v": 96
    },
    {
      "midi": 41,
      "hit": false,
      "t": 62578.581858333324,
      "d": 1107.14304166667,
      "v": 93
    },
    {
      "midi": 53,
      "hit": false,
      "t": 62578.581858333324,
      "d": 1107.14304166667,
      "v": 93
    },
    {
      "midi": 64,
      "hit": false,
      "t": 62578.581858333324,
      "d": 1108.928756250003,
      "v": 93
    },
    {
      "midi": 76,
      "hit": false,
      "t": 62578.581858333324,
      "d": 1110.7144708333362,
      "v": 98
    },
    {
      "midi": 60,
      "hit": false,
      "t": 62578.581858333324,
      "d": 1148.214477083333,
      "v": 97
    },
    {
      "midi": 57,
      "hit": false,
      "t": 62578.581858333324,
      "d": 1158.928764583332,
      "v": 94
    },
    {
      "midi": 43,
      "hit": false,
      "t": 63864.296358333326,
      "d": 1937.5003229166687,
      "v": 90
    },
    {
      "midi": 55,
      "hit": false,
      "t": 63864.296358333326,
      "d": 1937.5003229166687,
      "v": 90
    },
    {
      "midi": 59,
      "hit": false,
      "t": 63864.296358333326,
      "d": 1978.571758333339,
      "v": 88
    },
    {
      "midi": 74,
      "hit": false,
      "t": 63864.296358333326,
      "d": 2007.1431916666697,
      "v": 98
    },
    {
      "midi": 62,
      "hit": false,
      "t": 63864.296358333326,
      "d": 2010.714620833336,
      "v": 96
    },
    {
      "midi": 40,
      "hit": false,
      "t": 66007.15385833333,
      "d": 1167.8573374999978,
      "v": 94
    },
    {
      "midi": 52,
      "hit": false,
      "t": 66007.15385833333,
      "d": 1167.8573374999978,
      "v": 94
    },
    {
      "midi": 74,
      "hit": false,
      "t": 66007.15385833333,
      "d": 1171.4287666666642,
      "v": 99
    },
    {
      "midi": 62,
      "hit": false,
      "t": 66007.15385833333,
      "d": 1196.4287708333286,
      "v": 90
    },
    {
      "midi": 55,
      "hit": false,
      "t": 66007.15385833333,
      "d": 1214.2859166666603,
      "v": 91
    },
    {
      "midi": 59,
      "hit": false,
      "t": 66007.15385833333,
      "d": 1228.5716333333257,
      "v": 93
    },
    {
      "midi": 60,
      "hit": false,
      "t": 67292.86835833332,
      "d": 1975.0003291666653,
      "v": 96
    },
    {
      "midi": 72,
      "hit": false,
      "t": 67292.86835833332,
      "d": 1983.9289020833385,
      "v": 93
    },
    {
      "midi": 41,
      "hit": false,
      "t": 67292.86835833332,
      "d": 2003.5717625000107,
      "v": 94
    },
    {
      "midi": 53,
      "hit": false,
      "t": 67292.86835833332,
      "d": 2003.5717625000107,
      "v": 94
    },
    {
      "midi": 57,
      "hit": false,
      "t": 67292.86835833332,
      "d": 2010.7146208333434,
      "v": 96
    },
    {
      "midi": 41,
      "hit": false,
      "t": 69435.72585833333,
      "d": 1107.14304166667,
      "v": 93
    },
    {
      "midi": 53,
      "hit": false,
      "t": 69435.72585833333,
      "d": 1107.14304166667,
      "v": 93
    },
    {
      "midi": 64,
      "hit": false,
      "t": 69435.72585833333,
      "d": 1108.9287562500103,
      "v": 93
    },
    {
      "midi": 76,
      "hit": false,
      "t": 69435.72585833333,
      "d": 1110.7144708333508,
      "v": 98
    },
    {
      "midi": 60,
      "hit": false,
      "t": 69435.72585833333,
      "d": 1148.2144770833547,
      "v": 97
    },
    {
      "midi": 57,
      "hit": false,
      "t": 69435.72585833333,
      "d": 1158.9287645833538,
      "v": 94
    },
    {
      "midi": 43,
      "hit": false,
      "t": 70721.44035833335,
      "d": 1937.5003229166614,
      "v": 90
    },
    {
      "midi": 55,
      "hit": false,
      "t": 70721.44035833335,
      "d": 1937.5003229166614,
      "v": 90
    },
    {
      "midi": 59,
      "hit": false,
      "t": 70721.44035833335,
      "d": 1978.5717583333317,
      "v": 88
    },
    {
      "midi": 74,
      "hit": false,
      "t": 70721.44035833335,
      "d": 2007.1431916666625,
      "v": 98
    },
    {
      "midi": 62,
      "hit": false,
      "t": 70721.44035833335,
      "d": 2010.7146208333288,
      "v": 96
    },
    {
      "midi": 40,
      "hit": false,
      "t": 72864.29785833335,
      "d": 1167.8573374999978,
      "v": 94
    },
    {
      "midi": 52,
      "hit": false,
      "t": 72864.29785833335,
      "d": 1167.8573374999978,
      "v": 94
    },
    {
      "midi": 74,
      "hit": false,
      "t": 72864.29785833335,
      "d": 1171.4287666666642,
      "v": 99
    },
    {
      "midi": 62,
      "hit": false,
      "t": 72864.29785833335,
      "d": 1196.4287708333286,
      "v": 90
    },
    {
      "midi": 55,
      "hit": false,
      "t": 72864.29785833335,
      "d": 1214.2859166666603,
      "v": 91
    },
    {
      "midi": 59,
      "hit": false,
      "t": 72864.29785833335,
      "d": 1228.5716333333257,
      "v": 93
    },
    {
      "midi": 60,
      "hit": false,
      "t": 74150.01235833333,
      "d": 1975.0003291666653,
      "v": 96
    },
    {
      "midi": 72,
      "hit": false,
      "t": 74150.01235833333,
      "d": 1983.9289020833385,
      "v": 93
    },
    {
      "midi": 41,
      "hit": false,
      "t": 74150.01235833333,
      "d": 2003.5717625000107,
      "v": 94
    },
    {
      "midi": 53,
      "hit": false,
      "t": 74150.01235833333,
      "d": 2003.5717625000107,
      "v": 94
    },
    {
      "midi": 57,
      "hit": false,
      "t": 74150.01235833333,
      "d": 2010.7146208333434,
      "v": 96
    },
    {
      "midi": 41,
      "hit": false,
      "t": 76292.86985833335,
      "d": 1107.14304166667,
      "v": 93
    },
    {
      "midi": 53,
      "hit": false,
      "t": 76292.86985833335,
      "d": 1107.14304166667,
      "v": 93
    },
    {
      "midi": 64,
      "hit": false,
      "t": 76292.86985833335,
      "d": 1108.9287562500103,
      "v": 93
    },
    {
      "midi": 76,
      "hit": false,
      "t": 76292.86985833335,
      "d": 1110.7144708333508,
      "v": 98
    },
    {
      "midi": 60,
      "hit": false,
      "t": 76292.86985833335,
      "d": 1148.2144770833547,
      "v": 97
    },
    {
      "midi": 57,
      "hit": false,
      "t": 76292.86985833335,
      "d": 1158.9287645833538,
      "v": 94
    },
    {
      "midi": 43,
      "hit": false,
      "t": 77578.58435833336,
      "d": 1937.5003229166614,
      "v": 90
    },
    {
      "midi": 55,
      "hit": false,
      "t": 77578.58435833336,
      "d": 1937.5003229166614,
      "v": 90
    },
    {
      "midi": 59,
      "hit": false,
      "t": 77578.58435833336,
      "d": 1978.5717583333317,
      "v": 88
    },
    {
      "midi": 74,
      "hit": false,
      "t": 77578.58435833336,
      "d": 2007.1431916666625,
      "v": 98
    },
    {
      "midi": 62,
      "hit": false,
      "t": 77578.58435833336,
      "d": 2010.7146208333288,
      "v": 96
    },
    {
      "midi": 40,
      "hit": false,
      "t": 79721.44185833336,
      "d": 1167.8573374999978,
      "v": 94
    },
    {
      "midi": 52,
      "hit": false,
      "t": 79721.44185833336,
      "d": 1167.8573374999978,
      "v": 94
    },
    {
      "midi": 74,
      "hit": false,
      "t": 79721.44185833336,
      "d": 1171.4287666666642,
      "v": 99
    },
    {
      "midi": 62,
      "hit": false,
      "t": 79721.44185833336,
      "d": 1196.4287708333286,
      "v": 90
    },
    {
      "midi": 55,
      "hit": false,
      "t": 79721.44185833336,
      "d": 1214.2859166666603,
      "v": 91
    },
    {
      "midi": 59,
      "hit": false,
      "t": 79721.44185833336,
      "d": 1228.5716333333257,
      "v": 93
    },
    {
      "midi": 60,
      "hit": false,
      "t": 81007.15635833335,
      "d": 1975.0003291666653,
      "v": 96
    },
    {
      "midi": 72,
      "hit": false,
      "t": 81007.15635833335,
      "d": 1983.9289020833385,
      "v": 93
    },
    {
      "midi": 41,
      "hit": false,
      "t": 81007.15635833335,
      "d": 2003.5717625000107,
      "v": 94
    },
    {
      "midi": 53,
      "hit": false,
      "t": 81007.15635833335,
      "d": 2003.5717625000107,
      "v": 94
    },
    {
      "midi": 57,
      "hit": false,
      "t": 81007.15635833335,
      "d": 2010.7146208333434,
      "v": 96
    },
    {
      "midi": 41,
      "hit": false,
      "t": 83150.01385833336,
      "d": 1107.14304166667,
      "v": 93
    },
    {
      "midi": 53,
      "hit": false,
      "t": 83150.01385833336,
      "d": 1107.14304166667,
      "v": 93
    },
    {
      "midi": 64,
      "hit": false,
      "t": 83150.01385833336,
      "d": 1108.9287562500103,
      "v": 93
    },
    {
      "midi": 76,
      "hit": false,
      "t": 83150.01385833336,
      "d": 1110.7144708333508,
      "v": 98
    },
    {
      "midi": 60,
      "hit": false,
      "t": 83150.01385833336,
      "d": 1148.2144770833547,
      "v": 97
    },
    {
      "midi": 57,
      "hit": false,
      "t": 83150.01385833336,
      "d": 1158.9287645833538,
      "v": 94
    },
    {
      "midi": 43,
      "hit": false,
      "t": 84435.72835833338,
      "d": 1937.5003229166614,
      "v": 90
    },
    {
      "midi": 55,
      "hit": false,
      "t": 84435.72835833338,
      "d": 1937.5003229166614,
      "v": 90
    },
    {
      "midi": 59,
      "hit": false,
      "t": 84435.72835833338,
      "d": 1978.5717583333317,
      "v": 88
    },
    {
      "midi": 74,
      "hit": false,
      "t": 84435.72835833338,
      "d": 2007.1431916666625,
      "v": 98
    },
    {
      "midi": 62,
      "hit": false,
      "t": 84435.72835833338,
      "d": 2010.7146208333288,
      "v": 96
    },
    {
      "midi": 40,
      "hit": false,
      "t": 86578.58585833338,
      "d": 1167.8573374999978,
      "v": 94
    },
    {
      "midi": 52,
      "hit": false,
      "t": 86578.58585833338,
      "d": 1167.8573374999978,
      "v": 94
    },
    {
      "midi": 74,
      "hit": false,
      "t": 86578.58585833338,
      "d": 1171.4287666666642,
      "v": 99
    },
    {
      "midi": 62,
      "hit": false,
      "t": 86578.58585833338,
      "d": 1196.4287708333286,
      "v": 90
    },
    {
      "midi": 55,
      "hit": false,
      "t": 86578.58585833338,
      "d": 1214.2859166666603,
      "v": 91
    },
    {
      "midi": 59,
      "hit": false,
      "t": 86578.58585833338,
      "d": 1228.5716333333257,
      "v": 93
    },
    {
      "midi": 60,
      "hit": false,
      "t": 87864.30035833336,
      "d": 1975.0003291666653,
      "v": 96
    },
    {
      "midi": 72,
      "hit": false,
      "t": 87864.30035833336,
      "d": 1983.9289020833385,
      "v": 93
    },
    {
      "midi": 41,
      "hit": false,
      "t": 87864.30035833336,
      "d": 2003.5717625000107,
      "v": 94
    },
    {
      "midi": 53,
      "hit": false,
      "t": 87864.30035833336,
      "d": 2003.5717625000107,
      "v": 94
    },
    {
      "midi": 57,
      "hit": false,
      "t": 87864.30035833336,
      "d": 2010.7146208333434,
      "v": 96
    },
    {
      "midi": 41,
      "hit": false,
      "t": 90007.15785833338,
      "d": 1107.14304166667,
      "v": 93
    },
    {
      "midi": 53,
      "hit": false,
      "t": 90007.15785833338,
      "d": 1107.14304166667,
      "v": 93
    },
    {
      "midi": 64,
      "hit": false,
      "t": 90007.15785833338,
      "d": 1108.9287562500103,
      "v": 93
    },
    {
      "midi": 76,
      "hit": false,
      "t": 90007.15785833338,
      "d": 1110.7144708333508,
      "v": 98
    },
    {
      "midi": 60,
      "hit": false,
      "t": 90007.15785833338,
      "d": 1148.2144770833547,
      "v": 97
    },
    {
      "midi": 57,
      "hit": false,
      "t": 90007.15785833338,
      "d": 1158.9287645833538,
      "v": 94
    },
    {
      "midi": 43,
      "hit": false,
      "t": 91292.87235833339,
      "d": 1937.5003229166614,
      "v": 90
    },
    {
      "midi": 55,
      "hit": false,
      "t": 91292.87235833339,
      "d": 1937.5003229166614,
      "v": 90
    },
    {
      "midi": 59,
      "hit": false,
      "t": 91292.87235833339,
      "d": 1978.5717583333317,
      "v": 88
    },
    {
      "midi": 74,
      "hit": false,
      "t": 91292.87235833339,
      "d": 2007.1431916666625,
      "v": 98
    },
    {
      "midi": 62,
      "hit": false,
      "t": 91292.87235833339,
      "d": 2010.7146208333288,
      "v": 96
    },
    {
      "midi": 40,
      "hit": false,
      "t": 93435.72985833339,
      "d": 1167.8573374999978,
      "v": 94
    },
    {
      "midi": 52,
      "hit": false,
      "t": 93435.72985833339,
      "d": 1167.8573374999978,
      "v": 94
    },
    {
      "midi": 74,
      "hit": false,
      "t": 93435.72985833339,
      "d": 1171.4287666666642,
      "v": 99
    },
    {
      "midi": 62,
      "hit": false,
      "t": 93435.72985833339,
      "d": 1196.4287708333286,
      "v": 90
    },
    {
      "midi": 55,
      "hit": false,
      "t": 93435.72985833339,
      "d": 1214.2859166666603,
      "v": 91
    },
    {
      "midi": 59,
      "hit": false,
      "t": 93435.72985833339,
      "d": 1228.5716333333257,
      "v": 93
    },
    {
      "midi": 60,
      "hit": false,
      "t": 94721.44435833338,
      "d": 1975.0003291666653,
      "v": 96
    },
    {
      "midi": 72,
      "hit": false,
      "t": 94721.44435833338,
      "d": 1983.9289020833385,
      "v": 93
    },
    {
      "midi": 41,
      "hit": false,
      "t": 94721.44435833338,
      "d": 2003.5717625000107,
      "v": 94
    },
    {
      "midi": 53,
      "hit": false,
      "t": 94721.44435833338,
      "d": 2003.5717625000107,
      "v": 94
    },
    {
      "midi": 57,
      "hit": false,
      "t": 94721.44435833338,
      "d": 2010.7146208333434,
      "v": 96
    },
    {
      "midi": 41,
      "hit": false,
      "t": 96864.30185833339,
      "d": 1107.14304166667,
      "v": 93
    },
    {
      "midi": 53,
      "hit": false,
      "t": 96864.30185833339,
      "d": 1107.14304166667,
      "v": 93
    },
    {
      "midi": 64,
      "hit": false,
      "t": 96864.30185833339,
      "d": 1108.9287562500103,
      "v": 93
    },
    {
      "midi": 76,
      "hit": false,
      "t": 96864.30185833339,
      "d": 1110.7144708333508,
      "v": 98
    },
    {
      "midi": 60,
      "hit": false,
      "t": 96864.30185833339,
      "d": 1148.2144770833547,
      "v": 97
    },
    {
      "midi": 57,
      "hit": false,
      "t": 96864.30185833339,
      "d": 1158.9287645833538,
      "v": 94
    },
    {
      "midi": 43,
      "hit": false,
      "t": 98150.0163583334,
      "d": 1937.5003229166614,
      "v": 90
    },
    {
      "midi": 55,
      "hit": false,
      "t": 98150.0163583334,
      "d": 1937.5003229166614,
      "v": 90
    },
    {
      "midi": 59,
      "hit": false,
      "t": 98150.0163583334,
      "d": 1978.5717583333317,
      "v": 88
    },
    {
      "midi": 74,
      "hit": false,
      "t": 98150.0163583334,
      "d": 2007.1431916666625,
      "v": 98
    },
    {
      "midi": 62,
      "hit": false,
      "t": 98150.0163583334,
      "d": 2010.7146208333288,
      "v": 96
    },
    {
      "midi": 40,
      "hit": false,
      "t": 100292.8738583334,
      "d": 1167.8573374999978,
      "v": 94
    },
    {
      "midi": 52,
      "hit": false,
      "t": 100292.8738583334,
      "d": 1167.8573374999978,
      "v": 94
    },
    {
      "midi": 74,
      "hit": false,
      "t": 100292.8738583334,
      "d": 1171.4287666666642,
      "v": 99
    },
    {
      "midi": 62,
      "hit": false,
      "t": 100292.8738583334,
      "d": 1196.4287708333286,
      "v": 90
    },
    {
      "midi": 55,
      "hit": false,
      "t": 100292.8738583334,
      "d": 1214.2859166666603,
      "v": 91
    },
    {
      "midi": 59,
      "hit": false,
      "t": 100292.8738583334,
      "d": 1228.5716333333257,
      "v": 93
    },
    {
      "midi": 60,
      "hit": false,
      "t": 101578.58835833339,
      "d": 1975.0003291666653,
      "v": 96
    },
    {
      "midi": 72,
      "hit": false,
      "t": 101578.58835833339,
      "d": 1983.9289020833385,
      "v": 93
    },
    {
      "midi": 41,
      "hit": false,
      "t": 101578.58835833339,
      "d": 2003.5717625000107,
      "v": 94
    },
    {
      "midi": 53,
      "hit": false,
      "t": 101578.58835833339,
      "d": 2003.5717625000107,
      "v": 94
    },
    {
      "midi": 57,
      "hit": false,
      "t": 101578.58835833339,
      "d": 2010.7146208333434,
      "v": 96
    },
    {
      "midi": 41,
      "hit": false,
      "t": 103721.4458583334,
      "d": 1107.14304166667,
      "v": 93
    },
    {
      "midi": 53,
      "hit": false,
      "t": 103721.4458583334,
      "d": 1107.14304166667,
      "v": 93
    },
    {
      "midi": 64,
      "hit": false,
      "t": 103721.4458583334,
      "d": 1108.9287562500103,
      "v": 93
    },
    {
      "midi": 76,
      "hit": false,
      "t": 103721.4458583334,
      "d": 1110.7144708333508,
      "v": 98
    },
    {
      "midi": 60,
      "hit": false,
      "t": 103721.4458583334,
      "d": 1148.2144770833547,
      "v": 97
    },
    {
      "midi": 57,
      "hit": false,
      "t": 103721.4458583334,
      "d": 1158.9287645833538,
      "v": 94
    },
    {
      "midi": 43,
      "hit": false,
      "t": 105007.16035833342,
      "d": 1282.1430708333355,
      "v": 90
    },
    {
      "midi": 55,
      "hit": false,
      "t": 105007.16035833342,
      "d": 1282.1430708333355,
      "v": 90
    },
    {
      "midi": 59,
      "hit": false,
      "t": 105007.16035833342,
      "d": 1282.1430708333355,
      "v": 88
    },
    {
      "midi": 62,
      "hit": false,
      "t": 105007.16035833342,
      "d": 1282.1430708333355,
      "v": 96
    },
    {
      "midi": 74,
      "hit": false,
      "t": 105007.16035833342,
      "d": 1282.1430708333355,
      "v": 98
    },
    {
      "midi": 41,
      "hit": false,
      "t": 110578.58985833342,
      "d": 1107.14304166667,
      "v": 93
    },
    {
      "midi": 53,
      "hit": false,
      "t": 110578.58985833342,
      "d": 1107.14304166667,
      "v": 93
    },
    {
      "midi": 64,
      "hit": false,
      "t": 110578.58985833342,
      "d": 1108.9287562500103,
      "v": 93
    },
    {
      "midi": 76,
      "hit": false,
      "t": 110578.58985833342,
      "d": 1110.7144708333508,
      "v": 98
    },
    {
      "midi": 60,
      "hit": false,
      "t": 110578.58985833342,
      "d": 1148.2144770833547,
      "v": 97
    },
    {
      "midi": 57,
      "hit": false,
      "t": 110578.58985833342,
      "d": 1158.9287645833538,
      "v": 94
    },
    {
      "midi": 43,
      "hit": false,
      "t": 111864.30435833344,
      "d": 1937.5003229166614,
      "v": 90
    },
    {
      "midi": 55,
      "hit": false,
      "t": 111864.30435833344,
      "d": 1937.5003229166614,
      "v": 90
    },
    {
      "midi": 59,
      "hit": false,
      "t": 111864.30435833344,
      "d": 1978.5717583333317,
      "v": 88
    },
    {
      "midi": 74,
      "hit": false,
      "t": 111864.30435833344,
      "d": 2007.1431916666625,
      "v": 98
    },
    {
      "midi": 62,
      "hit": false,
      "t": 111864.30435833344,
      "d": 2010.7146208333288,
      "v": 96
    },
    {
      "midi": 40,
      "hit": false,
      "t": 114007.16185833343,
      "d": 1167.8573374999978,
      "v": 94
    },
    {
      "midi": 52,
      "hit": false,
      "t": 114007.16185833343,
      "d": 1167.8573374999978,
      "v": 94
    },
    {
      "midi": 74,
      "hit": false,
      "t": 114007.16185833343,
      "d": 1171.4287666666642,
      "v": 99
    },
    {
      "midi": 62,
      "hit": false,
      "t": 114007.16185833343,
      "d": 1196.4287708333286,
      "v": 90
    },
    {
      "midi": 55,
      "hit": false,
      "t": 114007.16185833343,
      "d": 1214.2859166666603,
      "v": 91
    },
    {
      "midi": 59,
      "hit": false,
      "t": 114007.16185833343,
      "d": 1228.5716333333257,
      "v": 93
    },
    {
      "midi": 60,
      "hit": false,
      "t": 115292.87635833342,
      "d": 1975.0003291666653,
      "v": 96
    },
    {
      "midi": 72,
      "hit": false,
      "t": 115292.87635833342,
      "d": 1983.9289020833385,
      "v": 93
    },
    {
      "midi": 41,
      "hit": false,
      "t": 115292.87635833342,
      "d": 2003.5717625000107,
      "v": 94
    },
    {
      "midi": 53,
      "hit": false,
      "t": 115292.87635833342,
      "d": 2003.5717625000107,
      "v": 94
    },
    {
      "midi": 57,
      "hit": false,
      "t": 115292.87635833342,
      "d": 2010.7146208333434,
      "v": 96
    },
    {
      "midi": 41,
      "hit": false,
      "t": 117435.73385833343,
      "d": 1107.14304166667,
      "v": 93
    },
    {
      "midi": 53,
      "hit": false,
      "t": 117435.73385833343,
      "d": 1107.14304166667,
      "v": 93
    },
    {
      "midi": 64,
      "hit": false,
      "t": 117435.73385833343,
      "d": 1108.9287562500103,
      "v": 93
    },
    {
      "midi": 76,
      "hit": false,
      "t": 117435.73385833343,
      "d": 1110.7144708333508,
      "v": 98
    },
    {
      "midi": 60,
      "hit": false,
      "t": 117435.73385833343,
      "d": 1148.2144770833547,
      "v": 97
    },
    {
      "midi": 57,
      "hit": false,
      "t": 117435.73385833343,
      "d": 1158.9287645833538,
      "v": 94
    },
    {
      "midi": 43,
      "hit": false,
      "t": 118721.44835833345,
      "d": 1937.5003229166614,
      "v": 90
    },
    {
      "midi": 55,
      "hit": false,
      "t": 118721.44835833345,
      "d": 1937.5003229166614,
      "v": 90
    },
    {
      "midi": 59,
      "hit": false,
      "t": 118721.44835833345,
      "d": 1978.5717583333317,
      "v": 88
    },
    {
      "midi": 74,
      "hit": false,
      "t": 118721.44835833345,
      "d": 2007.1431916666625,
      "v": 98
    },
    {
      "midi": 62,
      "hit": false,
      "t": 118721.44835833345,
      "d": 2010.7146208333288,
      "v": 96
    },
    {
      "midi": 40,
      "hit": false,
      "t": 120864.30585833345,
      "d": 1167.8573374999978,
      "v": 94
    },
    {
      "midi": 52,
      "hit": false,
      "t": 120864.30585833345,
      "d": 1167.8573374999978,
      "v": 94
    },
    {
      "midi": 74,
      "hit": false,
      "t": 120864.30585833345,
      "d": 1171.4287666666642,
      "v": 99
    },
    {
      "midi": 62,
      "hit": false,
      "t": 120864.30585833345,
      "d": 1196.4287708333286,
      "v": 90
    },
    {
      "midi": 55,
      "hit": false,
      "t": 120864.30585833345,
      "d": 1214.2859166666603,
      "v": 91
    },
    {
      "midi": 59,
      "hit": false,
      "t": 120864.30585833345,
      "d": 1228.5716333333257,
      "v": 93
    },
    {
      "midi": 60,
      "hit": false,
      "t": 122150.02035833344,
      "d": 1975.0003291666653,
      "v": 96
    },
    {
      "midi": 72,
      "hit": false,
      "t": 122150.02035833344,
      "d": 1983.9289020833385,
      "v": 93
    },
    {
      "midi": 41,
      "hit": false,
      "t": 122150.02035833344,
      "d": 2003.5717625000107,
      "v": 94
    },
    {
      "midi": 53,
      "hit": false,
      "t": 122150.02035833344,
      "d": 2003.5717625000107,
      "v": 94
    },
    {
      "midi": 57,
      "hit": false,
      "t": 122150.02035833344,
      "d": 2010.7146208333434,
      "v": 96
    },
    {
      "midi": 41,
      "hit": false,
      "t": 124292.87785833345,
      "d": 1107.14304166667,
      "v": 93
    },
    {
      "midi": 53,
      "hit": false,
      "t": 124292.87785833345,
      "d": 1107.14304166667,
      "v": 93
    },
    {
      "midi": 64,
      "hit": false,
      "t": 124292.87785833345,
      "d": 1108.9287562500103,
      "v": 93
    },
    {
      "midi": 76,
      "hit": false,
      "t": 124292.87785833345,
      "d": 1110.7144708333508,
      "v": 98
    },
    {
      "midi": 60,
      "hit": false,
      "t": 124292.87785833345,
      "d": 1148.2144770833547,
      "v": 97
    },
    {
      "midi": 57,
      "hit": false,
      "t": 124292.87785833345,
      "d": 1158.9287645833538,
      "v": 94
    },
    {
      "midi": 43,
      "hit": false,
      "t": 125578.59235833347,
      "d": 1937.5003229166614,
      "v": 90
    },
    {
      "midi": 55,
      "hit": false,
      "t": 125578.59235833347,
      "d": 1937.5003229166614,
      "v": 90
    },
    {
      "midi": 59,
      "hit": false,
      "t": 125578.59235833347,
      "d": 1978.5717583333317,
      "v": 88
    },
    {
      "midi": 74,
      "hit": false,
      "t": 125578.59235833347,
      "d": 2007.1431916666625,
      "v": 98
    },
    {
      "midi": 62,
      "hit": false,
      "t": 125578.59235833347,
      "d": 2010.7146208333288,
      "v": 96
    },
    {
      "midi": 40,
      "hit": false,
      "t": 127721.44985833346,
      "d": 1167.8573374999978,
      "v": 94
    },
    {
      "midi": 52,
      "hit": false,
      "t": 127721.44985833346,
      "d": 1167.8573374999978,
      "v": 94
    },
    {
      "midi": 74,
      "hit": false,
      "t": 127721.44985833346,
      "d": 1171.4287666666642,
      "v": 99
    },
    {
      "midi": 62,
      "hit": false,
      "t": 127721.44985833346,
      "d": 1196.4287708333286,
      "v": 90
    },
    {
      "midi": 55,
      "hit": false,
      "t": 127721.44985833346,
      "d": 1214.2859166666603,
      "v": 91
    },
    {
      "midi": 59,
      "hit": false,
      "t": 127721.44985833346,
      "d": 1228.5716333333257,
      "v": 93
    },
    {
      "midi": 60,
      "hit": false,
      "t": 129007.16435833345,
      "d": 1975.0003291666653,
      "v": 96
    },
    {
      "midi": 72,
      "hit": false,
      "t": 129007.16435833345,
      "d": 1983.9289020833385,
      "v": 93
    },
    {
      "midi": 41,
      "hit": false,
      "t": 129007.16435833345,
      "d": 2003.5717625000107,
      "v": 94
    },
    {
      "midi": 53,
      "hit": false,
      "t": 129007.16435833345,
      "d": 2003.5717625000107,
      "v": 94
    },
    {
      "midi": 57,
      "hit": false,
      "t": 129007.16435833345,
      "d": 2010.7146208333434,
      "v": 96
    },
    {
      "midi": 41,
      "hit": false,
      "t": 131150.02185833346,
      "d": 1107.1430416666553,
      "v": 93
    },
    {
      "midi": 53,
      "hit": false,
      "t": 131150.02185833346,
      "d": 1107.1430416666553,
      "v": 93
    },
    {
      "midi": 64,
      "hit": false,
      "t": 131150.02185833346,
      "d": 1108.9287562499812,
      "v": 93
    },
    {
      "midi": 76,
      "hit": false,
      "t": 131150.02185833346,
      "d": 1110.7144708333071,
      "v": 98
    },
    {
      "midi": 60,
      "hit": false,
      "t": 131150.02185833346,
      "d": 1148.2144770832965,
      "v": 97
    },
    {
      "midi": 57,
      "hit": false,
      "t": 131150.02185833346,
      "d": 1158.92876458331,
      "v": 94
    },
    {
      "midi": 43,
      "hit": false,
      "t": 132435.73635833344,
      "d": 1937.5003229166614,
      "v": 90
    },
    {
      "midi": 55,
      "hit": false,
      "t": 132435.73635833344,
      "d": 1937.5003229166614,
      "v": 90
    },
    {
      "midi": 59,
      "hit": false,
      "t": 132435.73635833344,
      "d": 1978.5717583333317,
      "v": 88
    },
    {
      "midi": 74,
      "hit": false,
      "t": 132435.73635833344,
      "d": 2007.1431916666625,
      "v": 98
    },
    {
      "midi": 62,
      "hit": false,
      "t": 132435.73635833344,
      "d": 2010.7146208333434,
      "v": 96
    },
    {
      "midi": 40,
      "hit": false,
      "t": 134578.59385833345,
      "d": 1167.8573374999978,
      "v": 94
    },
    {
      "midi": 52,
      "hit": false,
      "t": 134578.59385833345,
      "d": 1167.8573374999978,
      "v": 94
    },
    {
      "midi": 74,
      "hit": false,
      "t": 134578.59385833345,
      "d": 1171.4287666666787,
      "v": 99
    },
    {
      "midi": 62,
      "hit": false,
      "t": 134578.59385833345,
      "d": 1196.4287708333577,
      "v": 90
    },
    {
      "midi": 55,
      "hit": false,
      "t": 134578.59385833345,
      "d": 1214.285916666704,
      "v": 91
    },
    {
      "midi": 59,
      "hit": false,
      "t": 134578.59385833345,
      "d": 1228.5716333333694,
      "v": 93
    },
    {
      "midi": 60,
      "hit": false,
      "t": 135864.30835833348,
      "d": 1975.0003291666799,
      "v": 96
    },
    {
      "midi": 72,
      "hit": false,
      "t": 135864.30835833348,
      "d": 1983.9289020833385,
      "v": 93
    },
    {
      "midi": 41,
      "hit": false,
      "t": 135864.30835833348,
      "d": 2003.5717625000107,
      "v": 94
    },
    {
      "midi": 53,
      "hit": false,
      "t": 135864.30835833348,
      "d": 2003.5717625000107,
      "v": 94
    },
    {
      "midi": 57,
      "hit": false,
      "t": 135864.30835833348,
      "d": 2010.7146208333434,
      "v": 96
    },
    {
      "midi": 41,
      "hit": false,
      "t": 138007.1658583335,
      "d": 1107.1430416666553,
      "v": 93
    },
    {
      "midi": 53,
      "hit": false,
      "t": 138007.1658583335,
      "d": 1107.1430416666553,
      "v": 93
    },
    {
      "midi": 64,
      "hit": false,
      "t": 138007.1658583335,
      "d": 1108.9287562499812,
      "v": 93
    },
    {
      "midi": 76,
      "hit": false,
      "t": 138007.1658583335,
      "d": 1110.7144708333071,
      "v": 98
    },
    {
      "midi": 60,
      "hit": false,
      "t": 138007.1658583335,
      "d": 1148.2144770832965,
      "v": 97
    },
    {
      "midi": 57,
      "hit": false,
      "t": 138007.1658583335,
      "d": 1158.92876458331,
      "v": 94
    },
    {
      "midi": 43,
      "hit": false,
      "t": 139292.88035833347,
      "d": 1937.5003229166614,
      "v": 90
    },
    {
      "midi": 55,
      "hit": false,
      "t": 139292.88035833347,
      "d": 1937.5003229166614,
      "v": 90
    },
    {
      "midi": 59,
      "hit": false,
      "t": 139292.88035833347,
      "d": 1978.5717583333317,
      "v": 88
    },
    {
      "midi": 74,
      "hit": false,
      "t": 139292.88035833347,
      "d": 2007.1431916666625,
      "v": 98
    },
    {
      "midi": 62,
      "hit": false,
      "t": 139292.88035833347,
      "d": 2010.7146208333434,
      "v": 96
    },
    {
      "midi": 40,
      "hit": false,
      "t": 141435.73785833348,
      "d": 1167.8573374999978,
      "v": 94
    },
    {
      "midi": 52,
      "hit": false,
      "t": 141435.73785833348,
      "d": 1167.8573374999978,
      "v": 94
    },
    {
      "midi": 74,
      "hit": false,
      "t": 141435.73785833348,
      "d": 1171.4287666666787,
      "v": 99
    },
    {
      "midi": 62,
      "hit": false,
      "t": 141435.73785833348,
      "d": 1196.4287708333577,
      "v": 90
    },
    {
      "midi": 55,
      "hit": false,
      "t": 141435.73785833348,
      "d": 1214.285916666704,
      "v": 91
    },
    {
      "midi": 59,
      "hit": false,
      "t": 141435.73785833348,
      "d": 1228.5716333333694,
      "v": 93
    },
    {
      "midi": 60,
      "hit": false,
      "t": 142721.4523583335,
      "d": 1975.0003291666799,
      "v": 96
    },
    {
      "midi": 72,
      "hit": false,
      "t": 142721.4523583335,
      "d": 1983.9289020833385,
      "v": 93
    },
    {
      "midi": 41,
      "hit": false,
      "t": 142721.4523583335,
      "d": 2003.5717625000107,
      "v": 94
    },
    {
      "midi": 53,
      "hit": false,
      "t": 142721.4523583335,
      "d": 2003.5717625000107,
      "v": 94
    },
    {
      "midi": 57,
      "hit": false,
      "t": 142721.4523583335,
      "d": 2010.7146208333434,
      "v": 96
    },
    {
      "midi": 41,
      "hit": false,
      "t": 144864.30985833352,
      "d": 1107.1430416666553,
      "v": 93
    },
    {
      "midi": 53,
      "hit": false,
      "t": 144864.30985833352,
      "d": 1107.1430416666553,
      "v": 93
    },
    {
      "midi": 64,
      "hit": false,
      "t": 144864.30985833352,
      "d": 1108.9287562499812,
      "v": 93
    },
    {
      "midi": 76,
      "hit": false,
      "t": 144864.30985833352,
      "d": 1110.7144708333071,
      "v": 98
    },
    {
      "midi": 60,
      "hit": false,
      "t": 144864.30985833352,
      "d": 1148.2144770832965,
      "v": 97
    },
    {
      "midi": 57,
      "hit": false,
      "t": 144864.30985833352,
      "d": 1158.92876458331,
      "v": 94
    },
    {
      "midi": 43,
      "hit": false,
      "t": 146150.0243583335,
      "d": 1937.5003229166614,
      "v": 90
    },
    {
      "midi": 55,
      "hit": false,
      "t": 146150.0243583335,
      "d": 1937.5003229166614,
      "v": 90
    },
    {
      "midi": 59,
      "hit": false,
      "t": 146150.0243583335,
      "d": 1978.5717583333317,
      "v": 88
    },
    {
      "midi": 74,
      "hit": false,
      "t": 146150.0243583335,
      "d": 2007.1431916666625,
      "v": 98
    },
    {
      "midi": 62,
      "hit": false,
      "t": 146150.0243583335,
      "d": 2010.7146208333434,
      "v": 96
    },
    {
      "midi": 40,
      "hit": false,
      "t": 148292.8818583335,
      "d": 1167.8573374999978,
      "v": 94
    },
    {
      "midi": 52,
      "hit": false,
      "t": 148292.8818583335,
      "d": 1167.8573374999978,
      "v": 94
    },
    {
      "midi": 74,
      "hit": false,
      "t": 148292.8818583335,
      "d": 1171.4287666666787,
      "v": 99
    },
    {
      "midi": 62,
      "hit": false,
      "t": 148292.8818583335,
      "d": 1196.4287708333577,
      "v": 90
    },
    {
      "midi": 55,
      "hit": false,
      "t": 148292.8818583335,
      "d": 1214.285916666704,
      "v": 91
    },
    {
      "midi": 59,
      "hit": false,
      "t": 148292.8818583335,
      "d": 1228.5716333333694,
      "v": 93
    },
    {
      "midi": 60,
      "hit": false,
      "t": 149578.59635833354,
      "d": 1975.0003291666799,
      "v": 96
    },
    {
      "midi": 72,
      "hit": false,
      "t": 149578.59635833354,
      "d": 1983.9289020833385,
      "v": 93
    },
    {
      "midi": 41,
      "hit": false,
      "t": 149578.59635833354,
      "d": 2003.5717625000107,
      "v": 94
    },
    {
      "midi": 53,
      "hit": false,
      "t": 149578.59635833354,
      "d": 2003.5717625000107,
      "v": 94
    },
    {
      "midi": 57,
      "hit": false,
      "t": 149578.59635833354,
      "d": 2010.7146208333434,
      "v": 96
    },
    {
      "midi": 41,
      "hit": false,
      "t": 151721.45385833355,
      "d": 1107.1430416666553,
      "v": 93
    },
    {
      "midi": 53,
      "hit": false,
      "t": 151721.45385833355,
      "d": 1107.1430416666553,
      "v": 93
    },
    {
      "midi": 64,
      "hit": false,
      "t": 151721.45385833355,
      "d": 1108.9287562499812,
      "v": 93
    },
    {
      "midi": 76,
      "hit": false,
      "t": 151721.45385833355,
      "d": 1110.7144708333071,
      "v": 98
    },
    {
      "midi": 60,
      "hit": false,
      "t": 151721.45385833355,
      "d": 1148.2144770832965,
      "v": 97
    },
    {
      "midi": 57,
      "hit": false,
      "t": 151721.45385833355,
      "d": 1158.92876458331,
      "v": 94
    },
    {
      "midi": 43,
      "hit": false,
      "t": 153007.16835833353,
      "d": 1937.5003229166614,
      "v": 90
    },
    {
      "midi": 55,
      "hit": false,
      "t": 153007.16835833353,
      "d": 1937.5003229166614,
      "v": 90
    },
    {
      "midi": 59,
      "hit": false,
      "t": 153007.16835833353,
      "d": 1978.5717583333317,
      "v": 88
    },
    {
      "midi": 74,
      "hit": false,
      "t": 153007.16835833353,
      "d": 2007.1431916666625,
      "v": 98
    },
    {
      "midi": 62,
      "hit": false,
      "t": 153007.16835833353,
      "d": 2010.7146208333434,
      "v": 96
    },
    {
      "midi": 40,
      "hit": false,
      "t": 155150.02585833354,
      "d": 1167.8573374999978,
      "v": 94
    },
    {
      "midi": 52,
      "hit": false,
      "t": 155150.02585833354,
      "d": 1167.8573374999978,
      "v": 94
    },
    {
      "midi": 74,
      "hit": false,
      "t": 155150.02585833354,
      "d": 1171.4287666666787,
      "v": 99
    },
    {
      "midi": 62,
      "hit": false,
      "t": 155150.02585833354,
      "d": 1196.4287708333577,
      "v": 90
    },
    {
      "midi": 55,
      "hit": false,
      "t": 155150.02585833354,
      "d": 1214.285916666704,
      "v": 91
    },
    {
      "midi": 59,
      "hit": false,
      "t": 155150.02585833354,
      "d": 1228.5716333333694,
      "v": 93
    },
    {
      "midi": 60,
      "hit": false,
      "t": 156435.74035833357,
      "d": 1975.0003291666799,
      "v": 96
    },
    {
      "midi": 72,
      "hit": false,
      "t": 156435.74035833357,
      "d": 1983.9289020833385,
      "v": 93
    },
    {
      "midi": 41,
      "hit": false,
      "t": 156435.74035833357,
      "d": 2003.5717625000107,
      "v": 94
    },
    {
      "midi": 53,
      "hit": false,
      "t": 156435.74035833357,
      "d": 2003.5717625000107,
      "v": 94
    },
    {
      "midi": 57,
      "hit": false,
      "t": 156435.74035833357,
      "d": 2010.7146208333434,
      "v": 96
    },
    {
      "midi": 41,
      "hit": false,
      "t": 158578.59785833358,
      "d": 1107.1430416666553,
      "v": 93
    },
    {
      "midi": 53,
      "hit": false,
      "t": 158578.59785833358,
      "d": 1107.1430416666553,
      "v": 93
    },
    {
      "midi": 64,
      "hit": false,
      "t": 158578.59785833358,
      "d": 1108.9287562499812,
      "v": 93
    },
    {
      "midi": 76,
      "hit": false,
      "t": 158578.59785833358,
      "d": 1110.7144708333071,
      "v": 98
    },
    {
      "midi": 60,
      "hit": false,
      "t": 158578.59785833358,
      "d": 1148.2144770832965,
      "v": 97
    },
    {
      "midi": 57,
      "hit": false,
      "t": 158578.59785833358,
      "d": 1158.92876458331,
      "v": 94
    },
    {
      "midi": 43,
      "hit": false,
      "t": 159864.31235833355,
      "d": 1937.5003229166614,
      "v": 90
    },
    {
      "midi": 55,
      "hit": false,
      "t": 159864.31235833355,
      "d": 1937.5003229166614,
      "v": 90
    },
    {
      "midi": 59,
      "hit": false,
      "t": 159864.31235833355,
      "d": 1978.5717583333317,
      "v": 88
    },
    {
      "midi": 74,
      "hit": false,
      "t": 159864.31235833355,
      "d": 2007.1431916666625,
      "v": 98
    },
    {
      "midi": 62,
      "hit": false,
      "t": 159864.31235833355,
      "d": 2010.7146208333434,
      "v": 96
    },
    {
      "midi": 40,
      "hit": false,
      "t": 162007.16985833357,
      "d": 1167.8573374999978,
      "v": 94
    },
    {
      "midi": 52,
      "hit": false,
      "t": 162007.16985833357,
      "d": 1167.8573374999978,
      "v": 94
    },
    {
      "midi": 74,
      "hit": false,
      "t": 162007.16985833357,
      "d": 1171.4287666666787,
      "v": 99
    },
    {
      "midi": 62,
      "hit": false,
      "t": 162007.16985833357,
      "d": 1196.4287708333577,
      "v": 90
    },
    {
      "midi": 55,
      "hit": false,
      "t": 162007.16985833357,
      "d": 1214.285916666704,
      "v": 91
    },
    {
      "midi": 59,
      "hit": false,
      "t": 162007.16985833357,
      "d": 1228.5716333333694,
      "v": 93
    },
    {
      "midi": 60,
      "hit": false,
      "t": 163292.8843583336,
      "d": 1975.0003291666799,
      "v": 96
    },
    {
      "midi": 72,
      "hit": false,
      "t": 163292.8843583336,
      "d": 1983.9289020833385,
      "v": 93
    },
    {
      "midi": 41,
      "hit": false,
      "t": 163292.8843583336,
      "d": 2003.5717625000107,
      "v": 94
    },
    {
      "midi": 53,
      "hit": false,
      "t": 163292.8843583336,
      "d": 2003.5717625000107,
      "v": 94
    },
    {
      "midi": 57,
      "hit": false,
      "t": 163292.8843583336,
      "d": 2010.7146208333434,
      "v": 96
    },
    {
      "midi": 41,
      "hit": false,
      "t": 165435.7418583336,
      "d": 1107.1430416666553,
      "v": 93
    },
    {
      "midi": 53,
      "hit": false,
      "t": 165435.7418583336,
      "d": 1107.1430416666553,
      "v": 93
    },
    {
      "midi": 64,
      "hit": false,
      "t": 165435.7418583336,
      "d": 1108.9287562499812,
      "v": 93
    },
    {
      "midi": 76,
      "hit": false,
      "t": 165435.7418583336,
      "d": 1110.7144708333071,
      "v": 98
    },
    {
      "midi": 60,
      "hit": false,
      "t": 165435.7418583336,
      "d": 1148.2144770832965,
      "v": 97
    },
    {
      "midi": 57,
      "hit": false,
      "t": 165435.7418583336,
      "d": 1158.92876458331,
      "v": 94
    },
    {
      "midi": 43,
      "hit": false,
      "t": 166721.45635833358,
      "d": 1937.5003229166614,
      "v": 90
    },
    {
      "midi": 55,
      "hit": false,
      "t": 166721.45635833358,
      "d": 1937.5003229166614,
      "v": 90
    },
    {
      "midi": 59,
      "hit": false,
      "t": 166721.45635833358,
      "d": 1978.5717583333317,
      "v": 88
    },
    {
      "midi": 74,
      "hit": false,
      "t": 166721.45635833358,
      "d": 2007.1431916666625,
      "v": 98
    },
    {
      "midi": 62,
      "hit": false,
      "t": 166721.45635833358,
      "d": 2010.7146208333434,
      "v": 96
    },
    {
      "midi": 40,
      "hit": false,
      "t": 168864.3138583336,
      "d": 1167.8573374999978,
      "v": 94
    },
    {
      "midi": 52,
      "hit": false,
      "t": 168864.3138583336,
      "d": 1167.8573374999978,
      "v": 94
    },
    {
      "midi": 74,
      "hit": false,
      "t": 168864.3138583336,
      "d": 1171.4287666666787,
      "v": 99
    },
    {
      "midi": 62,
      "hit": false,
      "t": 168864.3138583336,
      "d": 1196.4287708333577,
      "v": 90
    },
    {
      "midi": 55,
      "hit": false,
      "t": 168864.3138583336,
      "d": 1214.285916666704,
      "v": 91
    },
    {
      "midi": 59,
      "hit": false,
      "t": 168864.3138583336,
      "d": 1228.5716333333694,
      "v": 93
    },
    {
      "midi": 60,
      "hit": false,
      "t": 170150.02835833363,
      "d": 1975.0003291666799,
      "v": 96
    },
    {
      "midi": 72,
      "hit": false,
      "t": 170150.02835833363,
      "d": 1983.9289020833385,
      "v": 93
    },
    {
      "midi": 41,
      "hit": false,
      "t": 170150.02835833363,
      "d": 2003.5717625000107,
      "v": 94
    },
    {
      "midi": 53,
      "hit": false,
      "t": 170150.02835833363,
      "d": 2003.5717625000107,
      "v": 94
    },
    {
      "midi": 57,
      "hit": false,
      "t": 170150.02835833363,
      "d": 2010.7146208333434,
      "v": 96
    },
    {
      "midi": 41,
      "hit": false,
      "t": 172292.88585833364,
      "d": 1107.1430416666553,
      "v": 93
    },
    {
      "midi": 53,
      "hit": false,
      "t": 172292.88585833364,
      "d": 1107.1430416666553,
      "v": 93
    },
    {
      "midi": 64,
      "hit": false,
      "t": 172292.88585833364,
      "d": 1108.9287562499812,
      "v": 93
    },
    {
      "midi": 76,
      "hit": false,
      "t": 172292.88585833364,
      "d": 1110.7144708333071,
      "v": 98
    },
    {
      "midi": 60,
      "hit": false,
      "t": 172292.88585833364,
      "d": 1148.2144770832965,
      "v": 97
    },
    {
      "midi": 57,
      "hit": false,
      "t": 172292.88585833364,
      "d": 1158.92876458331,
      "v": 94
    },
    {
      "midi": 43,
      "hit": false,
      "t": 173578.6003583336,
      "d": 1937.5003229166614,
      "v": 90
    },
    {
      "midi": 55,
      "hit": false,
      "t": 173578.6003583336,
      "d": 1937.5003229166614,
      "v": 90
    },
    {
      "midi": 59,
      "hit": false,
      "t": 173578.6003583336,
      "d": 1978.5717583333317,
      "v": 88
    },
    {
      "midi": 74,
      "hit": false,
      "t": 173578.6003583336,
      "d": 2007.1431916666625,
      "v": 98
    },
    {
      "midi": 62,
      "hit": false,
      "t": 173578.6003583336,
      "d": 2010.7146208333434,
      "v": 96
    },
    {
      "midi": 40,
      "hit": false,
      "t": 175721.45785833363,
      "d": 1167.8573374999978,
      "v": 94
    },
    {
      "midi": 52,
      "hit": false,
      "t": 175721.45785833363,
      "d": 1167.8573374999978,
      "v": 94
    },
    {
      "midi": 74,
      "hit": false,
      "t": 175721.45785833363,
      "d": 1171.4287666666787,
      "v": 99
    },
    {
      "midi": 62,
      "hit": false,
      "t": 175721.45785833363,
      "d": 1196.4287708333577,
      "v": 90
    },
    {
      "midi": 55,
      "hit": false,
      "t": 175721.45785833363,
      "d": 1214.285916666704,
      "v": 91
    },
    {
      "midi": 59,
      "hit": false,
      "t": 175721.45785833363,
      "d": 1228.5716333333694,
      "v": 93
    },
    {
      "midi": 60,
      "hit": false,
      "t": 177007.17235833366,
      "d": 1975.0003291666799,
      "v": 96
    },
    {
      "midi": 72,
      "hit": false,
      "t": 177007.17235833366,
      "d": 1983.9289020833385,
      "v": 93
    },
    {
      "midi": 41,
      "hit": false,
      "t": 177007.17235833366,
      "d": 2003.5717625000107,
      "v": 94
    },
    {
      "midi": 53,
      "hit": false,
      "t": 177007.17235833366,
      "d": 2003.5717625000107,
      "v": 94
    },
    {
      "midi": 57,
      "hit": false,
      "t": 177007.17235833366,
      "d": 2010.7146208333434,
      "v": 96
    },
    {
      "midi": 41,
      "hit": false,
      "t": 179150.02985833367,
      "d": 1107.1430416666553,
      "v": 93
    },
    {
      "midi": 53,
      "hit": false,
      "t": 179150.02985833367,
      "d": 1107.1430416666553,
      "v": 93
    },
    {
      "midi": 64,
      "hit": false,
      "t": 179150.02985833367,
      "d": 1108.9287562499812,
      "v": 93
    },
    {
      "midi": 76,
      "hit": false,
      "t": 179150.02985833367,
      "d": 1110.7144708333071,
      "v": 98
    },
    {
      "midi": 60,
      "hit": false,
      "t": 179150.02985833367,
      "d": 1148.2144770832965,
      "v": 97
    },
    {
      "midi": 57,
      "hit": false,
      "t": 179150.02985833367,
      "d": 1158.92876458331,
      "v": 94
    },
    {
      "midi": 43,
      "hit": false,
      "t": 180435.74435833364,
      "d": 1937.5003229166614,
      "v": 90
    },
    {
      "midi": 55,
      "hit": false,
      "t": 180435.74435833364,
      "d": 1937.5003229166614,
      "v": 90
    },
    {
      "midi": 59,
      "hit": false,
      "t": 180435.74435833364,
      "d": 1978.5717583333317,
      "v": 88
    },
    {
      "midi": 74,
      "hit": false,
      "t": 180435.74435833364,
      "d": 2007.1431916666625,
      "v": 98
    },
    {
      "midi": 62,
      "hit": false,
      "t": 180435.74435833364,
      "d": 2010.7146208333434,
      "v": 96
    },
    {
      "midi": 40,
      "hit": false,
      "t": 182578.60185833366,
      "d": 1167.8573374999978,
      "v": 94
    },
    {
      "midi": 52,
      "hit": false,
      "t": 182578.60185833366,
      "d": 1167.8573374999978,
      "v": 94
    },
    {
      "midi": 74,
      "hit": false,
      "t": 182578.60185833366,
      "d": 1171.4287666666787,
      "v": 99
    },
    {
      "midi": 62,
      "hit": false,
      "t": 182578.60185833366,
      "d": 1196.4287708333577,
      "v": 90
    },
    {
      "midi": 55,
      "hit": false,
      "t": 182578.60185833366,
      "d": 1214.285916666704,
      "v": 91
    },
    {
      "midi": 59,
      "hit": false,
      "t": 182578.60185833366,
      "d": 1228.5716333333694,
      "v": 93
    },
    {
      "midi": 60,
      "hit": false,
      "t": 183864.3163583337,
      "d": 1975.0003291666799,
      "v": 96
    },
    {
      "midi": 72,
      "hit": false,
      "t": 183864.3163583337,
      "d": 1983.9289020833385,
      "v": 93
    },
    {
      "midi": 41,
      "hit": false,
      "t": 183864.3163583337,
      "d": 2003.5717625000107,
      "v": 94
    },
    {
      "midi": 53,
      "hit": false,
      "t": 183864.3163583337,
      "d": 2003.5717625000107,
      "v": 94
    },
    {
      "midi": 57,
      "hit": false,
      "t": 183864.3163583337,
      "d": 2010.7146208333434,
      "v": 96
    },
    {
      "midi": 41,
      "hit": false,
      "t": 186007.1738583337,
      "d": 1107.1430416666553,
      "v": 93
    },
    {
      "midi": 53,
      "hit": false,
      "t": 186007.1738583337,
      "d": 1107.1430416666553,
      "v": 93
    },
    {
      "midi": 64,
      "hit": false,
      "t": 186007.1738583337,
      "d": 1108.9287562499812,
      "v": 93
    },
    {
      "midi": 76,
      "hit": false,
      "t": 186007.1738583337,
      "d": 1110.7144708333071,
      "v": 98
    },
    {
      "midi": 60,
      "hit": false,
      "t": 186007.1738583337,
      "d": 1148.2144770832965,
      "v": 97
    },
    {
      "midi": 57,
      "hit": false,
      "t": 186007.1738583337,
      "d": 1158.92876458331,
      "v": 94
    },
    {
      "midi": 43,
      "hit": false,
      "t": 187292.88835833367,
      "d": 1937.5003229166614,
      "v": 90
    },
    {
      "midi": 55,
      "hit": false,
      "t": 187292.88835833367,
      "d": 1937.5003229166614,
      "v": 90
    },
    {
      "midi": 59,
      "hit": false,
      "t": 187292.88835833367,
      "d": 1978.5717583333317,
      "v": 88
    },
    {
      "midi": 74,
      "hit": false,
      "t": 187292.88835833367,
      "d": 2007.1431916666625,
      "v": 98
    },
    {
      "midi": 62,
      "hit": false,
      "t": 187292.88835833367,
      "d": 2010.7146208333434,
      "v": 96
    },
    {
      "midi": 40,
      "hit": false,
      "t": 189435.74585833368,
      "d": 1167.8573374999978,
      "v": 94
    },
    {
      "midi": 52,
      "hit": false,
      "t": 189435.74585833368,
      "d": 1167.8573374999978,
      "v": 94
    },
    {
      "midi": 74,
      "hit": false,
      "t": 189435.74585833368,
      "d": 1171.4287666666787,
      "v": 99
    },
    {
      "midi": 62,
      "hit": false,
      "t": 189435.74585833368,
      "d": 1196.4287708333577,
      "v": 90
    },
    {
      "midi": 55,
      "hit": false,
      "t": 189435.74585833368,
      "d": 1214.285916666704,
      "v": 91
    },
    {
      "midi": 59,
      "hit": false,
      "t": 189435.74585833368,
      "d": 1228.5716333333694,
      "v": 93
    },
    {
      "midi": 60,
      "hit": false,
      "t": 190721.46035833372,
      "d": 1975.0003291666799,
      "v": 96
    },
    {
      "midi": 72,
      "hit": false,
      "t": 190721.46035833372,
      "d": 1983.9289020833385,
      "v": 93
    },
    {
      "midi": 41,
      "hit": false,
      "t": 190721.46035833372,
      "d": 2003.5717625000107,
      "v": 94
    },
    {
      "midi": 53,
      "hit": false,
      "t": 190721.46035833372,
      "d": 2003.5717625000107,
      "v": 94
    },
    {
      "midi": 57,
      "hit": false,
      "t": 190721.46035833372,
      "d": 2010.7146208333434,
      "v": 96
    },
    {
      "midi": 76,
      "hit": false,
      "t": 192864.31785833373,
      "d": 1105.3573270833003,
      "v": 93
    },
    {
      "midi": 60,
      "hit": false,
      "t": 192866.10357291705,
      "d": 1153.5716208333324,
      "v": 91
    },
    {
      "midi": 64,
      "hit": false,
      "t": 192867.88928750038,
      "d": 1105.3573270833294,
      "v": 93
    },
    {
      "midi": 57,
      "hit": false,
      "t": 192867.88928750038,
      "d": 1153.5716208333324,
      "v": 97
    },
    {
      "midi": 53,
      "hit": false,
      "t": 192869.6750020837,
      "d": 1107.1430416666844,
      "v": 91
    },
    {
      "midi": 41,
      "hit": false,
      "t": 192871.46071666703,
      "d": 1207.1430583333422,
      "v": 94
    },
    {
      "midi": 43,
      "hit": false,
      "t": 194141.10378541704,
      "d": 2117.857495833334,
      "v": 82
    },
    {
      "midi": 59,
      "hit": false,
      "t": 194142.88950000037,
      "d": 2082.1432041666703,
      "v": 94
    },
    {
      "midi": 55,
      "hit": false,
      "t": 194144.6752145837,
      "d": 2066.071772916679,
      "v": 96
    },
    {
      "midi": 62,
      "hit": false,
      "t": 194146.46092916702,
      "d": 1928.5717500000028,
      "v": 91
    },
    {
      "midi": 74,
      "hit": false,
      "t": 194150.0323583337,
      "d": 1928.5717500000028,
      "v": 91
    },
    {
      "midi": 62,
      "hit": false,
      "t": 196078.6041083337,
      "d": 1137.5001895833411,
      "v": 94
    },
    {
      "midi": 59,
      "hit": false,
      "t": 196291.1041437504,
      "d": 1194.6430562500027,
      "v": 88
    },
    {
      "midi": 40,
      "hit": false,
      "t": 196291.1041437504,
      "d": 1258.928781249997,
      "v": 93
    },
    {
      "midi": 55,
      "hit": false,
      "t": 196292.8898583337,
      "d": 1191.071627083351,
      "v": 91
    },
    {
      "midi": 52,
      "hit": false,
      "t": 196294.67557291704,
      "d": 1150.0001916666806,
      "v": 93
    },
    {
      "midi": 41,
      "hit": false,
      "t": 197571.46150000038,
      "d": 2119.6432104166306,
      "v": 91
    },
    {
      "midi": 60,
      "hit": false,
      "t": 197573.2472145837,
      "d": 2085.714633333293,
      "v": 98
    },
    {
      "midi": 57,
      "hit": false,
      "t": 197575.03292916704,
      "d": 2080.3574895833153,
      "v": 94
    },
    {
      "midi": 53,
      "hit": false,
      "t": 197576.81864375036,
      "d": 2080.3574895833153,
      "v": 91
    },
    {
      "midi": 76,
      "hit": false,
      "t": 199721.46185833367,
      "d": 1105.3573270833003,
      "v": 93
    },
    {
      "midi": 60,
      "hit": false,
      "t": 199723.247572917,
      "d": 1153.5716208333324,
      "v": 91
    },
    {
      "midi": 64,
      "hit": false,
      "t": 199725.03328750032,
      "d": 1105.3573270833294,
      "v": 93
    },
    {
      "midi": 57,
      "hit": false,
      "t": 199725.03328750032,
      "d": 1153.5716208333324,
      "v": 97
    },
    {
      "midi": 53,
      "hit": false,
      "t": 199726.81900208365,
      "d": 1107.1430416666844,
      "v": 91
    },
    {
      "midi": 41,
      "hit": false,
      "t": 199728.60471666697,
      "d": 1207.1430583333422,
      "v": 94
    },
    {
      "midi": 43,
      "hit": false,
      "t": 200998.24778541698,
      "d": 5362.500893749995,
      "v": 82
    },
    {
      "midi": 59,
      "hit": false,
      "t": 201000.0335000003,
      "d": 5360.715179166669,
      "v": 94
    },
    {
      "midi": 55,
      "hit": false,
      "t": 201001.81921458364,
      "d": 5358.929464583343,
      "v": 96
    },
    {
      "midi": 62,
      "hit": false,
      "t": 201003.60492916696,
      "d": 5357.1437500000175,
      "v": 91
    },
    {
      "midi": 74,
      "hit": false,
      "t": 201007.17635833364,
      "d": 5353.572320833337,
      "v": 91
    }
  ]
}