{
  "jsonPath": "Pop/Bubblegum Pop/The New Seekers/ive-got-your-number.json",
  "path": "Pop\\Bubblegum Pop\\The New Seekers\\Ive Got Your Number.mid",
  "name": "Ive Got Your Number",
  "difficulty": "Advanced",
  "bpm": 115.00201253521936,
  "notes": [
    {
      "midi": 66,
      "hit": false,
      "t": 4800,
      "d": 2168.75,
      "v": 102
    },
    {
      "midi": 62,
      "hit": false,
      "t": 5400,
      "d": 2316.25,
      "v": 81
    },
    {
      "midi": 69,
      "hit": false,
      "t": 5700,
      "d": 2187.5,
      "v": 99
    },
    {
      "midi": 66,
      "hit": false,
      "t": 7200,
      "d": 1700,
      "v": 102
    },
    {
      "midi": 61,
      "hit": false,
      "t": 7800,
      "d": 1781.25,
      "v": 74
    },
    {
      "midi": 69,
      "hit": false,
      "t": 8100,
      "d": 993.75,
      "v": 107
    },
    {
      "midi": 66,
      "hit": false,
      "t": 9000,
      "d": 543.75,
      "v": 95
    },
    {
      "midi": 67,
      "hit": false,
      "t": 9600,
      "d": 1803.75,
      "v": 98
    },
    {
      "midi": 57,
      "hit": false,
      "t": 11750,
      "d": 2478.75,
      "v": 88
    },
    {
      "midi": 61,
      "hit": false,
      "t": 11850,
      "d": 2368.75,
      "v": 93
    },
    {
      "midi": 64,
      "hit": false,
      "t": 11950,
      "d": 2262.5,
      "v": 90
    },
    {
      "midi": 69,
      "hit": false,
      "t": 12000,
      "d": 2206.25,
      "v": 92
    },
    {
      "midi": 66,
      "hit": false,
      "t": 14400,
      "d": 3903.75,
      "v": 95
    },
    {
      "midi": 62,
      "hit": false,
      "t": 14400,
      "d": 4781.25,
      "v": 92
    },
    {
      "midi": 57,
      "hit": false,
      "t": 14400,
      "d": 4787.5,
      "v": 92
    },
    {
      "midi": 50,
      "hit": false,
      "t": 14400,
      "d": 2456.25,
      "v": 98
    },
    {
      "midi": 57,
      "hit": false,
      "t": 14700,
      "d": 2125,
      "v": 92
    },
    {
      "midi": 62,
      "hit": false,
      "t": 15000,
      "d": 1760,
      "v": 99
    },
    {
      "midi": 66,
      "hit": false,
      "t": 15300,
      "d": 1478.75,
      "v": 105
    },
    {
      "midi": 69,
      "hit": false,
      "t": 18300,
      "d": 372.5,
      "v": 102
    },
    {
      "midi": 64,
      "hit": false,
      "t": 18600,
      "d": 253.75,
      "v": 120
    },
    {
      "midi": 78,
      "hit": false,
      "t": 18600,
      "d": 575,
      "v": 102
    },
    {
      "midi": 66,
      "hit": false,
      "t": 18900,
      "d": 247.5,
      "v": 102
    },
    {
      "midi": 59,
      "hit": false,
      "t": 19200,
      "d": 425,
      "v": 92
    },
    {
      "midi": 62,
      "hit": false,
      "t": 19200,
      "d": 462.5,
      "v": 102
    },
    {
      "midi": 67,
      "hit": false,
      "t": 19200,
      "d": 468.75,
      "v": 92
    },
    {
      "midi": 79,
      "hit": false,
      "t": 19200,
      "d": 1966.25,
      "v": 94
    },
    {
      "midi": 67,
      "hit": false,
      "t": 20700,
      "d": 150,
      "v": 90
    },
    {
      "midi": 67,
      "hit": false,
      "t": 21000,
      "d": 200,
      "v": 102
    },
    {
      "midi": 74,
      "hit": false,
      "t": 21600,
      "d": 266.25,
      "v": 95
    },
    {
      "midi": 79,
      "hit": false,
      "t": 21600,
      "d": 281.25,
      "v": 90
    },
    {
      "midi": 71,
      "hit": false,
      "t": 21600,
      "d": 285,
      "v": 88
    },
    {
      "midi": 71,
      "hit": false,
      "t": 21900,
      "d": 291.25,
      "v": 92
    },
    {
      "midi": 74,
      "hit": false,
      "t": 22200,
      "d": 212.5,
      "v": 113
    },
    {
      "midi": 79,
      "hit": false,
      "t": 22200,
      "d": 231.25,
      "v": 104
    },
    {
      "midi": 74,
      "hit": false,
      "t": 22500,
      "d": 291.25,
      "v": 98
    },
    {
      "midi": 67,
      "hit": false,
      "t": 22500,
      "d": 297.5,
      "v": 86
    },
    {
      "midi": 71,
      "hit": false,
      "t": 22500,
      "d": 300,
      "v": 94
    },
    {
      "midi": 74,
      "hit": false,
      "t": 22500,
      "d": 843.75,
      "v": 110
    },
    {
      "midi": 69,
      "hit": false,
      "t": 22500,
      "d": 856.25,
      "v": 94
    },
    {
      "midi": 62,
      "hit": false,
      "t": 23400,
      "d": 287.5,
      "v": 98
    },
    {
      "midi": 67,
      "hit": false,
      "t": 23400,
      "d": 306.25,
      "v": 98
    },
    {
      "midi": 71,
      "hit": false,
      "t": 23400,
      "d": 310,
      "v": 84
    },
    {
      "midi": 71,
      "hit": false,
      "t": 23400,
      "d": 453.75,
      "v": 72
    },
    {
      "midi": 67,
      "hit": false,
      "t": 23400,
      "d": 491.25,
      "v": 67
    },
    {
      "midi": 64,
      "hit": false,
      "t": 24000,
      "d": 281.25,
      "v": 90
    },
    {
      "midi": 69,
      "hit": false,
      "t": 24000,
      "d": 281.25,
      "v": 94
    },
    {
      "midi": 73,
      "hit": false,
      "t": 24000,
      "d": 297.5,
      "v": 81
    },
    {
      "midi": 73,
      "hit": false,
      "t": 24000,
      "d": 1631.25,
      "v": 78
    },
    {
      "midi": 64,
      "hit": false,
      "t": 24000,
      "d": 1635,
      "v": 84
    },
    {
      "midi": 69,
      "hit": false,
      "t": 24000,
      "d": 1703.75,
      "v": 86
    },
    {
      "midi": 73,
      "hit": false,
      "t": 25500,
      "d": 168.75,
      "v": 93
    },
    {
      "midi": 69,
      "hit": false,
      "t": 25800,
      "d": 150,
      "v": 94
    },
    {
      "midi": 64,
      "hit": false,
      "t": 26100,
      "d": 147.5,
      "v": 71
    },
    {
      "midi": 76,
      "hit": false,
      "t": 26400,
      "d": 287.5,
      "v": 102
    },
    {
      "midi": 76,
      "hit": false,
      "t": 27000,
      "d": 297.5,
      "v": 116
    },
    {
      "midi": 73,
      "hit": false,
      "t": 27300,
      "d": 297.5,
      "v": 105
    },
    {
      "midi": 71,
      "hit": false,
      "t": 27600,
      "d": 628.75,
      "v": 90
    },
    {
      "midi": 69,
      "hit": false,
      "t": 28200,
      "d": 593.75,
      "v": 98
    },
    {
      "midi": 55,
      "hit": false,
      "t": 28800,
      "d": 268.75,
      "v": 104
    },
    {
      "midi": 59,
      "hit": false,
      "t": 28800,
      "d": 2403.75,
      "v": 95
    },
    {
      "midi": 62,
      "hit": false,
      "t": 28800,
      "d": 2406.25,
      "v": 94
    },
    {
      "midi": 67,
      "hit": false,
      "t": 28800,
      "d": 2416.25,
      "v": 94
    },
    {
      "midi": 62,
      "hit": false,
      "t": 29100,
      "d": 178.75,
      "v": 102
    },
    {
      "midi": 67,
      "hit": false,
      "t": 29400,
      "d": 143.75,
      "v": 102
    },
    {
      "midi": 71,
      "hit": false,
      "t": 29700,
      "d": 156.25,
      "v": 113
    },
    {
      "midi": 71,
      "hit": false,
      "t": 30000,
      "d": 1193.75,
      "v": 94
    },
    {
      "midi": 79,
      "hit": false,
      "t": 30000,
      "d": 1216.25,
      "v": 92
    },
    {
      "midi": 74,
      "hit": false,
      "t": 30000,
      "d": 1222.5,
      "v": 104
    },
    {
      "midi": 79,
      "hit": false,
      "t": 32400,
      "d": 325,
      "v": 105
    },
    {
      "midi": 71,
      "hit": false,
      "t": 32400,
      "d": 328.75,
      "v": 93
    },
    {
      "midi": 71,
      "hit": false,
      "t": 32400,
      "d": 328.75,
      "v": 107
    },
    {
      "midi": 79,
      "hit": false,
      "t": 32400,
      "d": 328.75,
      "v": 107
    },
    {
      "midi": 69,
      "hit": false,
      "t": 32700,
      "d": 325,
      "v": 100
    },
    {
      "midi": 78,
      "hit": false,
      "t": 32700,
      "d": 325,
      "v": 103
    },
    {
      "midi": 69,
      "hit": false,
      "t": 32700,
      "d": 328.75,
      "v": 84
    },
    {
      "midi": 78,
      "hit": false,
      "t": 32700,
      "d": 328.75,
      "v": 84
    },
    {
      "midi": 66,
      "hit": false,
      "t": 33000,
      "d": 322.5,
      "v": 102
    },
    {
      "midi": 74,
      "hit": false,
      "t": 33000,
      "d": 331.25,
      "v": 106
    },
    {
      "midi": 66,
      "hit": false,
      "t": 33000,
      "d": 328.75,
      "v": 107
    },
    {
      "midi": 74,
      "hit": false,
      "t": 33000,
      "d": 328.75,
      "v": 107
    },
    {
      "midi": 62,
      "hit": false,
      "t": 33300,
      "d": 293.75,
      "v": 95
    },
    {
      "midi": 71,
      "hit": false,
      "t": 33300,
      "d": 322.5,
      "v": 106
    },
    {
      "midi": 62,
      "hit": false,
      "t": 33300,
      "d": 293.75,
      "v": 102
    },
    {
      "midi": 71,
      "hit": false,
      "t": 33300,
      "d": 328.75,
      "v": 102
    },
    {
      "midi": 62,
      "hit": false,
      "t": 33600,
      "d": 25,
      "v": 102
    },
    {
      "midi": 69,
      "hit": false,
      "t": 33600,
      "d": 3622.5,
      "v": 107
    },
    {
      "midi": 66,
      "hit": false,
      "t": 33600,
      "d": 3628.75,
      "v": 95
    },
    {
      "midi": 62,
      "hit": false,
      "t": 33600,
      "d": 28.75,
      "v": 102
    },
    {
      "midi": 69,
      "hit": false,
      "t": 33600,
      "d": 2712.5,
      "v": 99
    },
    {
      "midi": 66,
      "hit": false,
      "t": 33600,
      "d": 4731.25,
      "v": 95
    },
    {
      "midi": 69,
      "hit": false,
      "t": 36600,
      "d": 916.25,
      "v": 104
    },
    {
      "midi": 78,
      "hit": false,
      "t": 36900,
      "d": 1381.25,
      "v": 102
    },
    {
      "midi": 69,
      "hit": false,
      "t": 37800,
      "d": 566.25,
      "v": 104
    },
    {
      "midi": 71,
      "hit": false,
      "t": 38400,
      "d": 2762.5,
      "v": 110
    },
    {
      "midi": 67,
      "hit": false,
      "t": 38400,
      "d": 4737.5,
      "v": 92
    },
    {
      "midi": 62,
      "hit": false,
      "t": 38400,
      "d": 4756.25,
      "v": 92
    },
    {
      "midi": 67,
      "hit": false,
      "t": 41400,
      "d": 303.75,
      "v": 110
    },
    {
      "midi": 74,
      "hit": false,
      "t": 41400,
      "d": 1703.75,
      "v": 120
    },
    {
      "midi": 79,
      "hit": false,
      "t": 41400,
      "d": 1706.25,
      "v": 107
    },
    {
      "midi": 69,
      "hit": false,
      "t": 41700,
      "d": 300,
      "v": 108
    },
    {
      "midi": 69,
      "hit": false,
      "t": 41700,
      "d": 331.25,
      "v": 98
    },
    {
      "midi": 71,
      "hit": false,
      "t": 42000,
      "d": 675,
      "v": 110
    },
    {
      "midi": 71,
      "hit": false,
      "t": 42000,
      "d": 1100,
      "v": 99
    },
    {
      "midi": 74,
      "hit": false,
      "t": 42600,
      "d": 703.75,
      "v": 105
    },
    {
      "midi": 64,
      "hit": false,
      "t": 43200,
      "d": 297.5,
      "v": 93
    },
    {
      "midi": 69,
      "hit": false,
      "t": 43200,
      "d": 297.5,
      "v": 101
    },
    {
      "midi": 73,
      "hit": false,
      "t": 43200,
      "d": 297.5,
      "v": 107
    },
    {
      "midi": 73,
      "hit": false,
      "t": 44700,
      "d": 100,
      "v": 89
    },
    {
      "midi": 69,
      "hit": false,
      "t": 44700,
      "d": 135,
      "v": 98
    },
    {
      "midi": 76,
      "hit": false,
      "t": 44700,
      "d": 147.5,
      "v": 95
    },
    {
      "midi": 76,
      "hit": false,
      "t": 45600,
      "d": 175,
      "v": 102
    },
    {
      "midi": 73,
      "hit": false,
      "t": 45600,
      "d": 181.25,
      "v": 81
    },
    {
      "midi": 81,
      "hit": false,
      "t": 45600,
      "d": 197.5,
      "v": 104
    },
    {
      "midi": 73,
      "hit": false,
      "t": 46800,
      "d": 103.75,
      "v": 78
    },
    {
      "midi": 69,
      "hit": false,
      "t": 46800,
      "d": 118.75,
      "v": 92
    },
    {
      "midi": 76,
      "hit": false,
      "t": 46800,
      "d": 128.75,
      "v": 98
    },
    {
      "midi": 76,
      "hit": false,
      "t": 47400,
      "d": 97.5,
      "v": 104
    },
    {
      "midi": 73,
      "hit": false,
      "t": 47400,
      "d": 106.25,
      "v": 89
    },
    {
      "midi": 81,
      "hit": false,
      "t": 47400,
      "d": 128.75,
      "v": 102
    },
    {
      "midi": 62,
      "hit": false,
      "t": 48000,
      "d": 1187.5,
      "v": 102
    },
    {
      "midi": 67,
      "hit": false,
      "t": 48000,
      "d": 1187.5,
      "v": 107
    },
    {
      "midi": 71,
      "hit": false,
      "t": 48000,
      "d": 1187.5,
      "v": 104
    },
    {
      "midi": 67,
      "hit": false,
      "t": 48000,
      "d": 1072.5,
      "v": 104
    },
    {
      "midi": 71,
      "hit": false,
      "t": 48000,
      "d": 1085,
      "v": 99
    },
    {
      "midi": 62,
      "hit": false,
      "t": 48000,
      "d": 1185,
      "v": 104
    },
    {
      "midi": 64,
      "hit": false,
      "t": 49200,
      "d": 1187.5,
      "v": 99
    },
    {
      "midi": 69,
      "hit": false,
      "t": 49200,
      "d": 1187.5,
      "v": 110
    },
    {
      "midi": 73,
      "hit": false,
      "t": 49200,
      "d": 1187.5,
      "v": 95
    },
    {
      "midi": 73,
      "hit": false,
      "t": 49200,
      "d": 1125,
      "v": 102
    },
    {
      "midi": 64,
      "hit": false,
      "t": 49200,
      "d": 1160,
      "v": 107
    },
    {
      "midi": 69,
      "hit": false,
      "t": 49200,
      "d": 1166.25,
      "v": 107
    },
    {
      "midi": 66,
      "hit": false,
      "t": 50400,
      "d": 353.75,
      "v": 95
    },
    {
      "midi": 69,
      "hit": false,
      "t": 50400,
      "d": 362.5,
      "v": 107
    },
    {
      "midi": 74,
      "hit": false,
      "t": 50400,
      "d": 368.75,
      "v": 103
    },
    {
      "midi": 74,
      "hit": false,
      "t": 50400,
      "d": 437.5,
      "v": 110
    },
    {
      "midi": 66,
      "hit": false,
      "t": 50400,
      "d": 450,
      "v": 89
    },
    {
      "midi": 69,
      "hit": false,
      "t": 50400,
      "d": 450,
      "v": 113
    },
    {
      "midi": 61,
      "hit": false,
      "t": 51000,
      "d": 587.5,
      "v": 86
    },
    {
      "midi": 64,
      "hit": false,
      "t": 51000,
      "d": 587.5,
      "v": 113
    },
    {
      "midi": 69,
      "hit": false,
      "t": 51000,
      "d": 587.5,
      "v": 107
    },
    {
      "midi": 52,
      "hit": false,
      "t": 51000,
      "d": 518.75,
      "v": 104
    },
    {
      "midi": 57,
      "hit": false,
      "t": 51000,
      "d": 518.75,
      "v": 110
    },
    {
      "midi": 61,
      "hit": false,
      "t": 51000,
      "d": 518.75,
      "v": 93
    },
    {
      "midi": 62,
      "hit": false,
      "t": 51600,
      "d": 587.5,
      "v": 107
    },
    {
      "midi": 67,
      "hit": false,
      "t": 51600,
      "d": 587.5,
      "v": 104
    },
    {
      "midi": 71,
      "hit": false,
      "t": 51600,
      "d": 587.5,
      "v": 102
    },
    {
      "midi": 55,
      "hit": false,
      "t": 51600,
      "d": 518.75,
      "v": 107
    },
    {
      "midi": 59,
      "hit": false,
      "t": 51600,
      "d": 518.75,
      "v": 104
    },
    {
      "midi": 62,
      "hit": false,
      "t": 51600,
      "d": 518.75,
      "v": 107
    },
    {
      "midi": 59,
      "hit": false,
      "t": 51600,
      "d": 1197.5,
      "v": 1
    },
    {
      "midi": 62,
      "hit": false,
      "t": 51600,
      "d": 1197.5,
      "v": 1
    },
    {
      "midi": 67,
      "hit": false,
      "t": 51600,
      "d": 1197.5,
      "v": 1
    },
    {
      "midi": 64,
      "hit": false,
      "t": 52200,
      "d": 587.5,
      "v": 98
    },
    {
      "midi": 69,
      "hit": false,
      "t": 52200,
      "d": 587.5,
      "v": 99
    },
    {
      "midi": 73,
      "hit": false,
      "t": 52200,
      "d": 587.5,
      "v": 95
    },
    {
      "midi": 57,
      "hit": false,
      "t": 52200,
      "d": 518.75,
      "v": 99
    },
    {
      "midi": 61,
      "hit": false,
      "t": 52200,
      "d": 518.75,
      "v": 95
    },
    {
      "midi": 64,
      "hit": false,
      "t": 52200,
      "d": 518.75,
      "v": 102
    },
    {
      "midi": 57,
      "hit": false,
      "t": 52800,
      "d": 375,
      "v": 104
    },
    {
      "midi": 62,
      "hit": false,
      "t": 52800,
      "d": 375,
      "v": 110
    },
    {
      "midi": 66,
      "hit": false,
      "t": 52800,
      "d": 385,
      "v": 89
    },
    {
      "midi": 57,
      "hit": false,
      "t": 52800,
      "d": 5097.5,
      "v": 1
    },
    {
      "midi": 62,
      "hit": false,
      "t": 52800,
      "d": 5097.5,
      "v": 1
    },
    {
      "midi": 66,
      "hit": false,
      "t": 52800,
      "d": 5097.5,
      "v": 1
    },
    {
      "midi": 57,
      "hit": false,
      "t": 53400,
      "d": 581.25,
      "v": 113
    },
    {
      "midi": 66,
      "hit": false,
      "t": 53400,
      "d": 581.25,
      "v": 99
    },
    {
      "midi": 62,
      "hit": false,
      "t": 53400,
      "d": 593.75,
      "v": 116
    },
    {
      "midi": 57,
      "hit": false,
      "t": 54300,
      "d": 60,
      "v": 104
    },
    {
      "midi": 61,
      "hit": false,
      "t": 54300,
      "d": 60,
      "v": 102
    },
    {
      "midi": 66,
      "hit": false,
      "t": 54300,
      "d": 62.5,
      "v": 99
    },
    {
      "midi": 57,
      "hit": false,
      "t": 54600,
      "d": 528.75,
      "v": 104
    },
    {
      "midi": 66,
      "hit": false,
      "t": 54600,
      "d": 543.75,
      "v": 93
    },
    {
      "midi": 61,
      "hit": false,
      "t": 54600,
      "d": 553.75,
      "v": 102
    },
    {
      "midi": 62,
      "hit": false,
      "t": 55800,
      "d": 572.5,
      "v": 116
    },
    {
      "midi": 66,
      "hit": false,
      "t": 55800,
      "d": 572.5,
      "v": 95
    },
    {
      "midi": 57,
      "hit": false,
      "t": 55800,
      "d": 578.75,
      "v": 107
    },
    {
      "midi": 62,
      "hit": false,
      "t": 56700,
      "d": 56.25,
      "v": 113
    },
    {
      "midi": 57,
      "hit": false,
      "t": 56700,
      "d": 68.75,
      "v": 107
    },
    {
      "midi": 66,
      "hit": false,
      "t": 56700,
      "d": 75,
      "v": 93
    },
    {
      "midi": 57,
      "hit": false,
      "t": 57000,
      "d": 562.5,
      "v": 110
    },
    {
      "midi": 62,
      "hit": false,
      "t": 57000,
      "d": 566.25,
      "v": 120
    },
    {
      "midi": 66,
      "hit": false,
      "t": 57000,
      "d": 587.5,
      "v": 95
    },
    {
      "midi": 59,
      "hit": false,
      "t": 57900,
      "d": 6897.5,
      "v": 1
    },
    {
      "midi": 62,
      "hit": false,
      "t": 57900,
      "d": 6897.5,
      "v": 1
    },
    {
      "midi": 67,
      "hit": false,
      "t": 57900,
      "d": 6897.5,
      "v": 1
    },
    {
      "midi": 59,
      "hit": false,
      "t": 58200,
      "d": 578.75,
      "v": 102
    },
    {
      "midi": 62,
      "hit": false,
      "t": 58200,
      "d": 581.25,
      "v": 120
    },
    {
      "midi": 67,
      "hit": false,
      "t": 58200,
      "d": 581.25,
      "v": 99
    },
    {
      "midi": 62,
      "hit": false,
      "t": 59100,
      "d": 62.5,
      "v": 104
    },
    {
      "midi": 59,
      "hit": false,
      "t": 59100,
      "d": 66.25,
      "v": 98
    },
    {
      "midi": 67,
      "hit": false,
      "t": 59100,
      "d": 85,
      "v": 94
    },
    {
      "midi": 62,
      "hit": false,
      "t": 59400,
      "d": 528.75,
      "v": 113
    },
    {
      "midi": 59,
      "hit": false,
      "t": 59400,
      "d": 531.25,
      "v": 107
    },
    {
      "midi": 67,
      "hit": false,
      "t": 59400,
      "d": 537.5,
      "v": 107
    },
    {
      "midi": 59,
      "hit": false,
      "t": 60600,
      "d": 600,
      "v": 104
    },
    {
      "midi": 64,
      "hit": false,
      "t": 60600,
      "d": 600,
      "v": 113
    },
    {
      "midi": 67,
      "hit": false,
      "t": 60600,
      "d": 610,
      "v": 107
    },
    {
      "midi": 64,
      "hit": false,
      "t": 61500,
      "d": 43.75,
      "v": 110
    },
    {
      "midi": 67,
      "hit": false,
      "t": 61500,
      "d": 47.5,
      "v": 95
    },
    {
      "midi": 59,
      "hit": false,
      "t": 61500,
      "d": 53.75,
      "v": 104
    },
    {
      "midi": 64,
      "hit": false,
      "t": 61800,
      "d": 587.5,
      "v": 116
    },
    {
      "midi": 59,
      "hit": false,
      "t": 61800,
      "d": 603.75,
      "v": 107
    },
    {
      "midi": 67,
      "hit": false,
      "t": 61800,
      "d": 603.75,
      "v": 107
    },
    {
      "midi": 59,
      "hit": false,
      "t": 63000,
      "d": 562.5,
      "v": 98
    },
    {
      "midi": 62,
      "hit": false,
      "t": 63000,
      "d": 562.5,
      "v": 110
    },
    {
      "midi": 67,
      "hit": false,
      "t": 63000,
      "d": 581.25,
      "v": 98
    },
    {
      "midi": 62,
      "hit": false,
      "t": 63900,
      "d": 31.25,
      "v": 104
    },
    {
      "midi": 59,
      "hit": false,
      "t": 63900,
      "d": 37.5,
      "v": 99
    },
    {
      "midi": 67,
      "hit": false,
      "t": 63900,
      "d": 60,
      "v": 95
    },
    {
      "midi": 59,
      "hit": false,
      "t": 64200,
      "d": 493.75,
      "v": 110
    },
    {
      "midi": 62,
      "hit": false,
      "t": 64200,
      "d": 493.75,
      "v": 116
    },
    {
      "midi": 67,
      "hit": false,
      "t": 64200,
      "d": 512.5,
      "v": 107
    },
    {
      "midi": 57,
      "hit": false,
      "t": 64800,
      "d": 2697.5,
      "v": 1
    },
    {
      "midi": 61,
      "hit": false,
      "t": 64800,
      "d": 2697.5,
      "v": 1
    },
    {
      "midi": 67,
      "hit": false,
      "t": 64800,
      "d": 2697.5,
      "v": 1
    },
    {
      "midi": 61,
      "hit": false,
      "t": 65400,
      "d": 525,
      "v": 105
    },
    {
      "midi": 64,
      "hit": false,
      "t": 65400,
      "d": 537.5,
      "v": 113
    },
    {
      "midi": 57,
      "hit": false,
      "t": 65400,
      "d": 541.25,
      "v": 116
    },
    {
      "midi": 67,
      "hit": false,
      "t": 65400,
      "d": 568.75,
      "v": 110
    },
    {
      "midi": 64,
      "hit": false,
      "t": 66300,
      "d": 62.5,
      "v": 84
    },
    {
      "midi": 61,
      "hit": false,
      "t": 66300,
      "d": 68.75,
      "v": 84
    },
    {
      "midi": 57,
      "hit": false,
      "t": 66300,
      "d": 75,
      "v": 90
    },
    {
      "midi": 67,
      "hit": false,
      "t": 66300,
      "d": 106.25,
      "v": 98
    },
    {
      "midi": 61,
      "hit": false,
      "t": 66600,
      "d": 478.75,
      "v": 99
    },
    {
      "midi": 64,
      "hit": false,
      "t": 66600,
      "d": 481.25,
      "v": 110
    },
    {
      "midi": 57,
      "hit": false,
      "t": 66600,
      "d": 491.25,
      "v": 110
    },
    {
      "midi": 67,
      "hit": false,
      "t": 66600,
      "d": 497.5,
      "v": 102
    },
    {
      "midi": 62,
      "hit": false,
      "t": 67200,
      "d": 993.75,
      "v": 116
    },
    {
      "midi": 57,
      "hit": false,
      "t": 67200,
      "d": 1003.75,
      "v": 113
    },
    {
      "midi": 54,
      "hit": false,
      "t": 67200,
      "d": 1016.25,
      "v": 99
    },
    {
      "midi": 57,
      "hit": false,
      "t": 67500,
      "d": 2097.5,
      "v": 1
    },
    {
      "midi": 62,
      "hit": false,
      "t": 67500,
      "d": 2097.5,
      "v": 1
    },
    {
      "midi": 66,
      "hit": false,
      "t": 67500,
      "d": 2097.5,
      "v": 1
    },
    {
      "midi": 57,
      "hit": false,
      "t": 68400,
      "d": 893.75,
      "v": 116
    },
    {
      "midi": 61,
      "hit": false,
      "t": 68400,
      "d": 900,
      "v": 105
    },
    {
      "midi": 54,
      "hit": false,
      "t": 68400,
      "d": 903.75,
      "v": 99
    },
    {
      "midi": 50,
      "hit": false,
      "t": 69600,
      "d": 1462.5,
      "v": 107
    },
    {
      "midi": 55,
      "hit": false,
      "t": 69600,
      "d": 1493.75,
      "v": 120
    },
    {
      "midi": 59,
      "hit": false,
      "t": 69600,
      "d": 1500,
      "v": 110
    },
    {
      "midi": 59,
      "hit": false,
      "t": 70800,
      "d": 1197.5,
      "v": 1
    },
    {
      "midi": 62,
      "hit": false,
      "t": 70800,
      "d": 1197.5,
      "v": 1
    },
    {
      "midi": 67,
      "hit": false,
      "t": 70800,
      "d": 1197.5,
      "v": 1
    },
    {
      "midi": 52,
      "hit": false,
      "t": 71400,
      "d": 475,
      "v": 110
    },
    {
      "midi": 61,
      "hit": false,
      "t": 71400,
      "d": 481.25,
      "v": 105
    },
    {
      "midi": 57,
      "hit": false,
      "t": 71400,
      "d": 491.25,
      "v": 124
    },
    {
      "midi": 57,
      "hit": false,
      "t": 72000,
      "d": 375,
      "v": 104
    },
    {
      "midi": 62,
      "hit": false,
      "t": 72000,
      "d": 375,
      "v": 110
    },
    {
      "midi": 66,
      "hit": false,
      "t": 72000,
      "d": 385,
      "v": 89
    },
    {
      "midi": 57,
      "hit": false,
      "t": 72000,
      "d": 5097.5,
      "v": 1
    },
    {
      "midi": 62,
      "hit": false,
      "t": 72000,
      "d": 5097.5,
      "v": 1
    },
    {
      "midi": 66,
      "hit": false,
      "t": 72000,
      "d": 5097.5,
      "v": 1
    },
    {
      "midi": 57,
      "hit": false,
      "t": 72600,
      "d": 581.25,
      "v": 113
    },
    {
      "midi": 66,
      "hit": false,
      "t": 72600,
      "d": 581.25,
      "v": 99
    },
    {
      "midi": 62,
      "hit": false,
      "t": 72600,
      "d": 593.75,
      "v": 116
    },
    {
      "midi": 57,
      "hit": false,
      "t": 73500,
      "d": 60,
      "v": 104
    },
    {
      "midi": 61,
      "hit": false,
      "t": 73500,
      "d": 60,
      "v": 102
    },
    {
      "midi": 66,
      "hit": false,
      "t": 73500,
      "d": 62.5,
      "v": 99
    },
    {
      "midi": 57,
      "hit": false,
      "t": 73800,
      "d": 528.75,
      "v": 104
    },
    {
      "midi": 66,
      "hit": false,
      "t": 73800,
      "d": 543.75,
      "v": 93
    },
    {
      "midi": 61,
      "hit": false,
      "t": 73800,
      "d": 553.75,
      "v": 102
    },
    {
      "midi": 62,
      "hit": false,
      "t": 75000,
      "d": 572.5,
      "v": 116
    },
    {
      "midi": 66,
      "hit": false,
      "t": 75000,
      "d": 572.5,
      "v": 95
    },
    {
      "midi": 57,
      "hit": false,
      "t": 75000,
      "d": 578.75,
      "v": 107
    },
    {
      "midi": 62,
      "hit": false,
      "t": 75900,
      "d": 56.25,
      "v": 113
    },
    {
      "midi": 57,
      "hit": false,
      "t": 75900,
      "d": 68.75,
      "v": 107
    },
    {
      "midi": 66,
      "hit": false,
      "t": 75900,
      "d": 75,
      "v": 93
    },
    {
      "midi": 57,
      "hit": false,
      "t": 76200,
      "d": 562.5,
      "v": 110
    },
    {
      "midi": 62,
      "hit": false,
      "t": 76200,
      "d": 566.25,
      "v": 120
    },
    {
      "midi": 66,
      "hit": false,
      "t": 76200,
      "d": 587.5,
      "v": 95
    },
    {
      "midi": 59,
      "hit": false,
      "t": 77100,
      "d": 6897.5,
      "v": 1
    },
    {
      "midi": 62,
      "hit": false,
      "t": 77100,
      "d": 6897.5,
      "v": 1
    },
    {
      "midi": 67,
      "hit": false,
      "t": 77100,
      "d": 6897.5,
      "v": 1
    },
    {
      "midi": 59,
      "hit": false,
      "t": 77400,
      "d": 578.75,
      "v": 102
    },
    {
      "midi": 62,
      "hit": false,
      "t": 77400,
      "d": 581.25,
      "v": 120
    },
    {
      "midi": 67,
      "hit": false,
      "t": 77400,
      "d": 581.25,
      "v": 99
    },
    {
      "midi": 74,
      "hit": false,
      "t": 77700,
      "d": 281.25,
      "v": 98
    },
    {
      "midi": 79,
      "hit": false,
      "t": 78000,
      "d": 331.25,
      "v": 107
    },
    {
      "midi": 74,
      "hit": false,
      "t": 78300,
      "d": 268.75,
      "v": 90
    },
    {
      "midi": 62,
      "hit": false,
      "t": 78300,
      "d": 62.5,
      "v": 104
    },
    {
      "midi": 59,
      "hit": false,
      "t": 78300,
      "d": 66.25,
      "v": 98
    },
    {
      "midi": 67,
      "hit": false,
      "t": 78300,
      "d": 85,
      "v": 94
    },
    {
      "midi": 71,
      "hit": false,
      "t": 78600,
      "d": 318.75,
      "v": 94
    },
    {
      "midi": 62,
      "hit": false,
      "t": 78600,
      "d": 528.75,
      "v": 113
    },
    {
      "midi": 59,
      "hit": false,
      "t": 78600,
      "d": 531.25,
      "v": 107
    },
    {
      "midi": 67,
      "hit": false,
      "t": 78600,
      "d": 537.5,
      "v": 107
    },
    {
      "midi": 69,
      "hit": false,
      "t": 78900,
      "d": 268.75,
      "v": 99
    },
    {
      "midi": 67,
      "hit": false,
      "t": 79200,
      "d": 310,
      "v": 79
    },
    {
      "midi": 69,
      "hit": false,
      "t": 79500,
      "d": 293.75,
      "v": 95
    },
    {
      "midi": 71,
      "hit": false,
      "t": 79800,
      "d": 1478.75,
      "v": 99
    },
    {
      "midi": 59,
      "hit": false,
      "t": 79800,
      "d": 600,
      "v": 104
    },
    {
      "midi": 64,
      "hit": false,
      "t": 79800,
      "d": 600,
      "v": 113
    },
    {
      "midi": 67,
      "hit": false,
      "t": 79800,
      "d": 610,
      "v": 107
    },
    {
      "midi": 64,
      "hit": false,
      "t": 80700,
      "d": 43.75,
      "v": 110
    },
    {
      "midi": 67,
      "hit": false,
      "t": 80700,
      "d": 47.5,
      "v": 95
    },
    {
      "midi": 59,
      "hit": false,
      "t": 80700,
      "d": 53.75,
      "v": 104
    },
    {
      "midi": 64,
      "hit": false,
      "t": 81000,
      "d": 587.5,
      "v": 116
    },
    {
      "midi": 59,
      "hit": false,
      "t": 81000,
      "d": 603.75,
      "v": 107
    },
    {
      "midi": 67,
      "hit": false,
      "t": 81000,
      "d": 603.75,
      "v": 107
    },
    {
      "midi": 59,
      "hit": false,
      "t": 82200,
      "d": 562.5,
      "v": 98
    },
    {
      "midi": 62,
      "hit": false,
      "t": 82200,
      "d": 562.5,
      "v": 110
    },
    {
      "midi": 67,
      "hit": false,
      "t": 82200,
      "d": 581.25,
      "v": 98
    },
    {
      "midi": 62,
      "hit": false,
      "t": 83100,
      "d": 31.25,
      "v": 104
    },
    {
      "midi": 59,
      "hit": false,
      "t": 83100,
      "d": 37.5,
      "v": 99
    },
    {
      "midi": 67,
      "hit": false,
      "t": 83100,
      "d": 60,
      "v": 95
    },
    {
      "midi": 59,
      "hit": false,
      "t": 83400,
      "d": 493.75,
      "v": 110
    },
    {
      "midi": 62,
      "hit": false,
      "t": 83400,
      "d": 493.75,
      "v": 116
    },
    {
      "midi": 67,
      "hit": false,
      "t": 83400,
      "d": 512.5,
      "v": 107
    },
    {
      "midi": 57,
      "hit": false,
      "t": 84000,
      "d": 2847.5,
      "v": 1
    },
    {
      "midi": 61,
      "hit": false,
      "t": 84000,
      "d": 2847.5,
      "v": 1
    },
    {
      "midi": 67,
      "hit": false,
      "t": 84000,
      "d": 2847.5,
      "v": 1
    },
    {
      "midi": 61,
      "hit": false,
      "t": 84600,
      "d": 525,
      "v": 105
    },
    {
      "midi": 64,
      "hit": false,
      "t": 84600,
      "d": 537.5,
      "v": 113
    },
    {
      "midi": 57,
      "hit": false,
      "t": 84600,
      "d": 541.25,
      "v": 116
    },
    {
      "midi": 67,
      "hit": false,
      "t": 84600,
      "d": 568.75,
      "v": 110
    },
    {
      "midi": 64,
      "hit": false,
      "t": 85500,
      "d": 62.5,
      "v": 84
    },
    {
      "midi": 61,
      "hit": false,
      "t": 85500,
      "d": 68.75,
      "v": 84
    },
    {
      "midi": 57,
      "hit": false,
      "t": 85500,
      "d": 75,
      "v": 90
    },
    {
      "midi": 67,
      "hit": false,
      "t": 85500,
      "d": 106.25,
      "v": 98
    },
    {
      "midi": 61,
      "hit": false,
      "t": 85800,
      "d": 478.75,
      "v": 99
    },
    {
      "midi": 64,
      "hit": false,
      "t": 85800,
      "d": 481.25,
      "v": 110
    },
    {
      "midi": 57,
      "hit": false,
      "t": 85800,
      "d": 491.25,
      "v": 110
    },
    {
      "midi": 67,
      "hit": false,
      "t": 85800,
      "d": 497.5,
      "v": 102
    },
    {
      "midi": 57,
      "hit": false,
      "t": 86850,
      "d": 1947.5,
      "v": 1
    },
    {
      "midi": 62,
      "hit": false,
      "t": 86850,
      "d": 1947.5,
      "v": 1
    },
    {
      "midi": 66,
      "hit": false,
      "t": 86850,
      "d": 1947.5,
      "v": 1
    },
    {
      "midi": 57,
      "hit": false,
      "t": 87000,
      "d": 572.5,
      "v": 110
    },
    {
      "midi": 62,
      "hit": false,
      "t": 87000,
      "d": 575,
      "v": 113
    },
    {
      "midi": 66,
      "hit": false,
      "t": 87000,
      "d": 578.75,
      "v": 93
    },
    {
      "midi": 57,
      "hit": false,
      "t": 87900,
      "d": 41.25,
      "v": 95
    },
    {
      "midi": 62,
      "hit": false,
      "t": 87900,
      "d": 41.25,
      "v": 98
    },
    {
      "midi": 66,
      "hit": false,
      "t": 87900,
      "d": 47.5,
      "v": 74
    },
    {
      "midi": 57,
      "hit": false,
      "t": 88200,
      "d": 400,
      "v": 116
    },
    {
      "midi": 66,
      "hit": false,
      "t": 88200,
      "d": 412.5,
      "v": 99
    },
    {
      "midi": 62,
      "hit": false,
      "t": 88200,
      "d": 435,
      "v": 124
    },
    {
      "midi": 61,
      "hit": false,
      "t": 88800,
      "d": 2056.25,
      "v": 95
    },
    {
      "midi": 64,
      "hit": false,
      "t": 88800,
      "d": 2060,
      "v": 120
    },
    {
      "midi": 69,
      "hit": false,
      "t": 88800,
      "d": 2066.25,
      "v": 113
    },
    {
      "midi": 57,
      "hit": false,
      "t": 91200,
      "d": 3316.25,
      "v": 104
    },
    {
      "midi": 66,
      "hit": false,
      "t": 91200,
      "d": 3453.75,
      "v": 93
    },
    {
      "midi": 62,
      "hit": false,
      "t": 91200,
      "d": 3485,
      "v": 107
    },
    {
      "midi": 69,
      "hit": false,
      "t": 93900,
      "d": 2072.5,
      "v": 107
    },
    {
      "midi": 74,
      "hit": false,
      "t": 94200,
      "d": 122.5,
      "v": 79
    },
    {
      "midi": 76,
      "hit": false,
      "t": 94500,
      "d": 503.75,
      "v": 113
    },
    {
      "midi": 74,
      "hit": false,
      "t": 94500,
      "d": 1428.75,
      "v": 107
    },
    {
      "midi": 57,
      "hit": false,
      "t": 94800,
      "d": 1153.75,
      "v": 110
    },
    {
      "midi": 62,
      "hit": false,
      "t": 95100,
      "d": 822.5,
      "v": 110
    },
    {
      "midi": 78,
      "hit": false,
      "t": 95100,
      "d": 860,
      "v": 95
    },
    {
      "midi": 66,
      "hit": false,
      "t": 95400,
      "d": 512.5,
      "v": 109
    },
    {
      "midi": 67,
      "hit": false,
      "t": 96000,
      "d": 2785,
      "v": 104
    },
    {
      "midi": 62,
      "hit": false,
      "t": 96000,
      "d": 2791.25,
      "v": 113
    },
    {
      "midi": 59,
      "hit": false,
      "t": 96000,
      "d": 2806.25,
      "v": 99
    },
    {
      "midi": 81,
      "hit": false,
      "t": 98700,
      "d": 222.5,
      "v": 86
    },
    {
      "midi": 55,
      "hit": false,
      "t": 99000,
      "d": 291.25,
      "v": 107
    },
    {
      "midi": 83,
      "hit": false,
      "t": 99000,
      "d": 156.25,
      "v": 88
    },
    {
      "midi": 57,
      "hit": false,
      "t": 99300,
      "d": 306.25,
      "v": 102
    },
    {
      "midi": 91,
      "hit": false,
      "t": 99300,
      "d": 293.75,
      "v": 110
    },
    {
      "midi": 59,
      "hit": false,
      "t": 99600,
      "d": 597.5,
      "v": 107
    },
    {
      "midi": 86,
      "hit": false,
      "t": 99600,
      "d": 166.25,
      "v": 76
    },
    {
      "midi": 79,
      "hit": false,
      "t": 99900,
      "d": 166.25,
      "v": 73
    },
    {
      "midi": 62,
      "hit": false,
      "t": 100200,
      "d": 531.25,
      "v": 113
    },
    {
      "midi": 74,
      "hit": false,
      "t": 100200,
      "d": 322.5,
      "v": 76
    },
    {
      "midi": 52,
      "hit": false,
      "t": 100800,
      "d": 3760,
      "v": 94
    },
    {
      "midi": 61,
      "hit": false,
      "t": 100800,
      "d": 3772.5,
      "v": 89
    },
    {
      "midi": 57,
      "hit": false,
      "t": 100800,
      "d": 3787.5,
      "v": 104
    },
    {
      "midi": 76,
      "hit": false,
      "t": 103500,
      "d": 193.75,
      "v": 104
    },
    {
      "midi": 83,
      "hit": false,
      "t": 103800,
      "d": 100,
      "v": 95
    },
    {
      "midi": 81,
      "hit": false,
      "t": 103800,
      "d": 372.5,
      "v": 110
    },
    {
      "midi": 88,
      "hit": false,
      "t": 103800,
      "d": 431.25,
      "v": 124
    },
    {
      "midi": 85,
      "hit": false,
      "t": 103913.75,
      "d": 240,
      "v": 103
    },
    {
      "midi": 86,
      "hit": false,
      "t": 104400,
      "d": 218.75,
      "v": 113
    },
    {
      "midi": 83,
      "hit": false,
      "t": 104400,
      "d": 222.5,
      "v": 104
    },
    {
      "midi": 81,
      "hit": false,
      "t": 104700,
      "d": 185,
      "v": 99
    },
    {
      "midi": 85,
      "hit": false,
      "t": 104700,
      "d": 193.75,
      "v": 95
    },
    {
      "midi": 76,
      "hit": false,
      "t": 105000,
      "d": 356.25,
      "v": 92
    },
    {
      "midi": 81,
      "hit": false,
      "t": 105000,
      "d": 393.75,
      "v": 98
    },
    {
      "midi": 50,
      "hit": false,
      "t": 105600,
      "d": 2335,
      "v": 98
    },
    {
      "midi": 55,
      "hit": false,
      "t": 105600,
      "d": 2381.25,
      "v": 104
    },
    {
      "midi": 59,
      "hit": false,
      "t": 105600,
      "d": 2387.5,
      "v": 102
    },
    {
      "midi": 62,
      "hit": false,
      "t": 108000,
      "d": 1025,
      "v": 104
    },
    {
      "midi": 57,
      "hit": false,
      "t": 108000,
      "d": 1100,
      "v": 113
    },
    {
      "midi": 54,
      "hit": false,
      "t": 108000,
      "d": 1106.25,
      "v": 89
    },
    {
      "midi": 79,
      "hit": false,
      "t": 109200,
      "d": 287.5,
      "v": 116
    },
    {
      "midi": 59,
      "hit": false,
      "t": 109200,
      "d": 1175,
      "v": 116
    },
    {
      "midi": 62,
      "hit": false,
      "t": 109200,
      "d": 1175,
      "v": 99
    },
    {
      "midi": 55,
      "hit": false,
      "t": 109200,
      "d": 1185,
      "v": 98
    },
    {
      "midi": 67,
      "hit": false,
      "t": 109200,
      "d": 1162.5,
      "v": 110
    },
    {
      "midi": 59,
      "hit": false,
      "t": 109200,
      "d": 1172.5,
      "v": 104
    },
    {
      "midi": 62,
      "hit": false,
      "t": 109200,
      "d": 1185,
      "v": 116
    },
    {
      "midi": 78,
      "hit": false,
      "t": 109500,
      "d": 275,
      "v": 99
    },
    {
      "midi": 74,
      "hit": false,
      "t": 109800,
      "d": 260,
      "v": 113
    },
    {
      "midi": 71,
      "hit": false,
      "t": 110100,
      "d": 243.75,
      "v": 107
    },
    {
      "midi": 69,
      "hit": false,
      "t": 110400,
      "d": 2118.75,
      "v": 113
    },
    {
      "midi": 62,
      "hit": false,
      "t": 110400,
      "d": 2456.25,
      "v": 104
    },
    {
      "midi": 57,
      "hit": false,
      "t": 110400,
      "d": 2481.25,
      "v": 98
    },
    {
      "midi": 66,
      "hit": false,
      "t": 110400,
      "d": 2528.75,
      "v": 86
    },
    {
      "midi": 62,
      "hit": false,
      "t": 110400,
      "d": 2381.25,
      "v": 113
    },
    {
      "midi": 57,
      "hit": false,
      "t": 110400,
      "d": 2385,
      "v": 110
    },
    {
      "midi": 66,
      "hit": false,
      "t": 110400,
      "d": 2385,
      "v": 99
    },
    {
      "midi": 62,
      "hit": false,
      "t": 113700,
      "d": 616.25,
      "v": 98
    },
    {
      "midi": 64,
      "hit": false,
      "t": 114300,
      "d": 262.5,
      "v": 94
    },
    {
      "midi": 66,
      "hit": false,
      "t": 114600,
      "d": 497.5,
      "v": 95
    },
    {
      "midi": 59,
      "hit": false,
      "t": 115200,
      "d": 3912.5,
      "v": 86
    },
    {
      "midi": 62,
      "hit": false,
      "t": 115200,
      "d": 3931.25,
      "v": 104
    },
    {
      "midi": 67,
      "hit": false,
      "t": 115200,
      "d": 3935,
      "v": 92
    },
    {
      "midi": 62,
      "hit": false,
      "t": 118200,
      "d": 1768.75,
      "v": 116
    },
    {
      "midi": 67,
      "hit": false,
      "t": 118500,
      "d": 1437.5,
      "v": 110
    },
    {
      "midi": 71,
      "hit": false,
      "t": 118800,
      "d": 1047.5,
      "v": 110
    },
    {
      "midi": 74,
      "hit": false,
      "t": 119400,
      "d": 450,
      "v": 107
    },
    {
      "midi": 69,
      "hit": false,
      "t": 120000,
      "d": 4556.25,
      "v": 102
    },
    {
      "midi": 64,
      "hit": false,
      "t": 120000,
      "d": 4603.75,
      "v": 95
    },
    {
      "midi": 61,
      "hit": false,
      "t": 120000,
      "d": 4616.25,
      "v": 84
    },
    {
      "midi": 69,
      "hit": false,
      "t": 120000,
      "d": 1768.75,
      "v": 120
    },
    {
      "midi": 73,
      "hit": false,
      "t": 120000,
      "d": 1768.75,
      "v": 105
    },
    {
      "midi": 64,
      "hit": false,
      "t": 120000,
      "d": 1787.5,
      "v": 86
    },
    {
      "midi": 76,
      "hit": false,
      "t": 123000,
      "d": 285,
      "v": 106
    },
    {
      "midi": 73,
      "hit": false,
      "t": 123300,
      "d": 731.25,
      "v": 109
    },
    {
      "midi": 76,
      "hit": false,
      "t": 123900,
      "d": 262.5,
      "v": 107
    },
    {
      "midi": 73,
      "hit": false,
      "t": 123900,
      "d": 278.75,
      "v": 105
    },
    {
      "midi": 73,
      "hit": false,
      "t": 124200,
      "d": 485,
      "v": 93
    },
    {
      "midi": 69,
      "hit": false,
      "t": 124200,
      "d": 516.25,
      "v": 95
    },
    {
      "midi": 50,
      "hit": false,
      "t": 124800,
      "d": 960,
      "v": 104
    },
    {
      "midi": 59,
      "hit": false,
      "t": 124800,
      "d": 960,
      "v": 107
    },
    {
      "midi": 55,
      "hit": false,
      "t": 124800,
      "d": 981.25,
      "v": 110
    },
    {
      "midi": 52,
      "hit": false,
      "t": 126000,
      "d": 931.25,
      "v": 98
    },
    {
      "midi": 57,
      "hit": false,
      "t": 126000,
      "d": 956.25,
      "v": 110
    },
    {
      "midi": 61,
      "hit": false,
      "t": 126000,
      "d": 966.25,
      "v": 102
    },
    {
      "midi": 62,
      "hit": false,
      "t": 127200,
      "d": 203.75,
      "v": 113
    },
    {
      "midi": 57,
      "hit": false,
      "t": 127200,
      "d": 212.5,
      "v": 120
    },
    {
      "midi": 54,
      "hit": false,
      "t": 127200,
      "d": 218.75,
      "v": 99
    },
    {
      "midi": 52,
      "hit": false,
      "t": 127800,
      "d": 531.25,
      "v": 104
    },
    {
      "midi": 57,
      "hit": false,
      "t": 127800,
      "d": 560,
      "v": 106
    },
    {
      "midi": 61,
      "hit": false,
      "t": 127800,
      "d": 560,
      "v": 99
    },
    {
      "midi": 54,
      "hit": false,
      "t": 128400,
      "d": 497.5,
      "v": 86
    },
    {
      "midi": 62,
      "hit": false,
      "t": 128400,
      "d": 556.25,
      "v": 108
    },
    {
      "midi": 57,
      "hit": false,
      "t": 128400,
      "d": 562.5,
      "v": 110
    },
    {
      "midi": 59,
      "hit": false,
      "t": 128400,
      "d": 1197.5,
      "v": 1
    },
    {
      "midi": 62,
      "hit": false,
      "t": 128400,
      "d": 1197.5,
      "v": 1
    },
    {
      "midi": 67,
      "hit": false,
      "t": 128400,
      "d": 1197.5,
      "v": 1
    },
    {
      "midi": 61,
      "hit": false,
      "t": 129000,
      "d": 556.25,
      "v": 95
    },
    {
      "midi": 57,
      "hit": false,
      "t": 129000,
      "d": 572.5,
      "v": 104
    },
    {
      "midi": 64,
      "hit": false,
      "t": 129000,
      "d": 587.5,
      "v": 102
    },
    {
      "midi": 57,
      "hit": false,
      "t": 129600,
      "d": 375,
      "v": 104
    },
    {
      "midi": 62,
      "hit": false,
      "t": 129600,
      "d": 375,
      "v": 110
    },
    {
      "midi": 66,
      "hit": false,
      "t": 129600,
      "d": 385,
      "v": 89
    },
    {
      "midi": 57,
      "hit": false,
      "t": 129600,
      "d": 5097.5,
      "v": 1
    },
    {
      "midi": 62,
      "hit": false,
      "t": 129600,
      "d": 5097.5,
      "v": 1
    },
    {
      "midi": 66,
      "hit": false,
      "t": 129600,
      "d": 5097.5,
      "v": 1
    },
    {
      "midi": 57,
      "hit": false,
      "t": 130200,
      "d": 581.25,
      "v": 113
    },
    {
      "midi": 66,
      "hit": false,
      "t": 130200,
      "d": 581.25,
      "v": 99
    },
    {
      "midi": 62,
      "hit": false,
      "t": 130200,
      "d": 593.75,
      "v": 116
    },
    {
      "midi": 57,
      "hit": false,
      "t": 131100,
      "d": 60,
      "v": 104
    },
    {
      "midi": 61,
      "hit": false,
      "t": 131100,
      "d": 60,
      "v": 102
    },
    {
      "midi": 66,
      "hit": false,
      "t": 131100,
      "d": 62.5,
      "v": 99
    },
    {
      "midi": 57,
      "hit": false,
      "t": 131400,
      "d": 528.75,
      "v": 104
    },
    {
      "midi": 66,
      "hit": false,
      "t": 131400,
      "d": 543.75,
      "v": 93
    },
    {
      "midi": 61,
      "hit": false,
      "t": 131400,
      "d": 553.75,
      "v": 102
    },
    {
      "midi": 62,
      "hit": false,
      "t": 132600,
      "d": 572.5,
      "v": 116
    },
    {
      "midi": 66,
      "hit": false,
      "t": 132600,
      "d": 572.5,
      "v": 95
    },
    {
      "midi": 57,
      "hit": false,
      "t": 132600,
      "d": 578.75,
      "v": 107
    },
    {
      "midi": 62,
      "hit": false,
      "t": 133500,
      "d": 56.25,
      "v": 113
    },
    {
      "midi": 57,
      "hit": false,
      "t": 133500,
      "d": 68.75,
      "v": 107
    },
    {
      "midi": 66,
      "hit": false,
      "t": 133500,
      "d": 75,
      "v": 93
    },
    {
      "midi": 57,
      "hit": false,
      "t": 133800,
      "d": 562.5,
      "v": 110
    },
    {
      "midi": 62,
      "hit": false,
      "t": 133800,
      "d": 566.25,
      "v": 120
    },
    {
      "midi": 66,
      "hit": false,
      "t": 133800,
      "d": 587.5,
      "v": 95
    },
    {
      "midi": 59,
      "hit": false,
      "t": 134700,
      "d": 6897.5,
      "v": 1
    },
    {
      "midi": 62,
      "hit": false,
      "t": 134700,
      "d": 6897.5,
      "v": 1
    },
    {
      "midi": 67,
      "hit": false,
      "t": 134700,
      "d": 6897.5,
      "v": 1
    },
    {
      "midi": 59,
      "hit": false,
      "t": 135000,
      "d": 578.75,
      "v": 102
    },
    {
      "midi": 62,
      "hit": false,
      "t": 135000,
      "d": 581.25,
      "v": 120
    },
    {
      "midi": 67,
      "hit": false,
      "t": 135000,
      "d": 581.25,
      "v": 99
    },
    {
      "midi": 62,
      "hit": false,
      "t": 135900,
      "d": 62.5,
      "v": 104
    },
    {
      "midi": 59,
      "hit": false,
      "t": 135900,
      "d": 66.25,
      "v": 98
    },
    {
      "midi": 67,
      "hit": false,
      "t": 135900,
      "d": 85,
      "v": 94
    },
    {
      "midi": 62,
      "hit": false,
      "t": 136200,
      "d": 528.75,
      "v": 113
    },
    {
      "midi": 59,
      "hit": false,
      "t": 136200,
      "d": 531.25,
      "v": 107
    },
    {
      "midi": 67,
      "hit": false,
      "t": 136200,
      "d": 537.5,
      "v": 107
    },
    {
      "midi": 59,
      "hit": false,
      "t": 137400,
      "d": 600,
      "v": 104
    },
    {
      "midi": 64,
      "hit": false,
      "t": 137400,
      "d": 600,
      "v": 113
    },
    {
      "midi": 67,
      "hit": false,
      "t": 137400,
      "d": 610,
      "v": 107
    },
    {
      "midi": 64,
      "hit": false,
      "t": 138300,
      "d": 43.75,
      "v": 110
    },
    {
      "midi": 67,
      "hit": false,
      "t": 138300,
      "d": 47.5,
      "v": 95
    },
    {
      "midi": 59,
      "hit": false,
      "t": 138300,
      "d": 53.75,
      "v": 104
    },
    {
      "midi": 64,
      "hit": false,
      "t": 138600,
      "d": 587.5,
      "v": 116
    },
    {
      "midi": 59,
      "hit": false,
      "t": 138600,
      "d": 603.75,
      "v": 107
    },
    {
      "midi": 67,
      "hit": false,
      "t": 138600,
      "d": 603.75,
      "v": 107
    },
    {
      "midi": 59,
      "hit": false,
      "t": 139800,
      "d": 562.5,
      "v": 98
    },
    {
      "midi": 62,
      "hit": false,
      "t": 139800,
      "d": 562.5,
      "v": 110
    },
    {
      "midi": 67,
      "hit": false,
      "t": 139800,
      "d": 581.25,
      "v": 98
    },
    {
      "midi": 62,
      "hit": false,
      "t": 140700,
      "d": 31.25,
      "v": 104
    },
    {
      "midi": 59,
      "hit": false,
      "t": 140700,
      "d": 37.5,
      "v": 99
    },
    {
      "midi": 67,
      "hit": false,
      "t": 140700,
      "d": 60,
      "v": 95
    },
    {
      "midi": 59,
      "hit": false,
      "t": 141000,
      "d": 493.75,
      "v": 110
    },
    {
      "midi": 62,
      "hit": false,
      "t": 141000,
      "d": 493.75,
      "v": 116
    },
    {
      "midi": 67,
      "hit": false,
      "t": 141000,
      "d": 512.5,
      "v": 107
    },
    {
      "midi": 57,
      "hit": false,
      "t": 141600,
      "d": 2697.5,
      "v": 1
    },
    {
      "midi": 61,
      "hit": false,
      "t": 141600,
      "d": 2697.5,
      "v": 1
    },
    {
      "midi": 67,
      "hit": false,
      "t": 141600,
      "d": 2697.5,
      "v": 1
    },
    {
      "midi": 61,
      "hit": false,
      "t": 142200,
      "d": 525,
      "v": 105
    },
    {
      "midi": 64,
      "hit": false,
      "t": 142200,
      "d": 537.5,
      "v": 113
    },
    {
      "midi": 57,
      "hit": false,
      "t": 142200,
      "d": 541.25,
      "v": 116
    },
    {
      "midi": 67,
      "hit": false,
      "t": 142200,
      "d": 568.75,
      "v": 110
    },
    {
      "midi": 64,
      "hit": false,
      "t": 143100,
      "d": 62.5,
      "v": 84
    },
    {
      "midi": 61,
      "hit": false,
      "t": 143100,
      "d": 68.75,
      "v": 84
    },
    {
      "midi": 57,
      "hit": false,
      "t": 143100,
      "d": 75,
      "v": 90
    },
    {
      "midi": 67,
      "hit": false,
      "t": 143100,
      "d": 106.25,
      "v": 98
    },
    {
      "midi": 61,
      "hit": false,
      "t": 143400,
      "d": 478.75,
      "v": 99
    },
    {
      "midi": 64,
      "hit": false,
      "t": 143400,
      "d": 481.25,
      "v": 110
    },
    {
      "midi": 57,
      "hit": false,
      "t": 143400,
      "d": 491.25,
      "v": 110
    },
    {
      "midi": 67,
      "hit": false,
      "t": 143400,
      "d": 497.5,
      "v": 102
    },
    {
      "midi": 62,
      "hit": false,
      "t": 144000,
      "d": 993.75,
      "v": 116
    },
    {
      "midi": 57,
      "hit": false,
      "t": 144000,
      "d": 1003.75,
      "v": 113
    },
    {
      "midi": 54,
      "hit": false,
      "t": 144000,
      "d": 1016.25,
      "v": 99
    },
    {
      "midi": 57,
      "hit": false,
      "t": 144300,
      "d": 2097.5,
      "v": 1
    },
    {
      "midi": 62,
      "hit": false,
      "t": 144300,
      "d": 2097.5,
      "v": 1
    },
    {
      "midi": 66,
      "hit": false,
      "t": 144300,
      "d": 2097.5,
      "v": 1
    },
    {
      "midi": 57,
      "hit": false,
      "t": 145200,
      "d": 893.75,
      "v": 116
    },
    {
      "midi": 61,
      "hit": false,
      "t": 145200,
      "d": 900,
      "v": 105
    },
    {
      "midi": 54,
      "hit": false,
      "t": 145200,
      "d": 903.75,
      "v": 99
    },
    {
      "midi": 50,
      "hit": false,
      "t": 146400,
      "d": 1462.5,
      "v": 107
    },
    {
      "midi": 55,
      "hit": false,
      "t": 146400,
      "d": 1493.75,
      "v": 120
    },
    {
      "midi": 59,
      "hit": false,
      "t": 146400,
      "d": 1500,
      "v": 110
    },
    {
      "midi": 59,
      "hit": false,
      "t": 147600,
      "d": 1197.5,
      "v": 1
    },
    {
      "midi": 62,
      "hit": false,
      "t": 147600,
      "d": 1197.5,
      "v": 1
    },
    {
      "midi": 67,
      "hit": false,
      "t": 147600,
      "d": 1197.5,
      "v": 1
    },
    {
      "midi": 52,
      "hit": false,
      "t": 148200,
      "d": 475,
      "v": 110
    },
    {
      "midi": 61,
      "hit": false,
      "t": 148200,
      "d": 481.25,
      "v": 105
    },
    {
      "midi": 57,
      "hit": false,
      "t": 148200,
      "d": 491.25,
      "v": 124
    },
    {
      "midi": 57,
      "hit": false,
      "t": 148800,
      "d": 375,
      "v": 104
    },
    {
      "midi": 62,
      "hit": false,
      "t": 148800,
      "d": 375,
      "v": 110
    },
    {
      "midi": 66,
      "hit": false,
      "t": 148800,
      "d": 385,
      "v": 89
    },
    {
      "midi": 57,
      "hit": false,
      "t": 148800,
      "d": 5097.5,
      "v": 1
    },
    {
      "midi": 62,
      "hit": false,
      "t": 148800,
      "d": 5097.5,
      "v": 1
    },
    {
      "midi": 66,
      "hit": false,
      "t": 148800,
      "d": 5097.5,
      "v": 1
    },
    {
      "midi": 57,
      "hit": false,
      "t": 149400,
      "d": 581.25,
      "v": 113
    },
    {
      "midi": 66,
      "hit": false,
      "t": 149400,
      "d": 581.25,
      "v": 99
    },
    {
      "midi": 62,
      "hit": false,
      "t": 149400,
      "d": 593.75,
      "v": 116
    },
    {
      "midi": 57,
      "hit": false,
      "t": 150300,
      "d": 60,
      "v": 104
    },
    {
      "midi": 61,
      "hit": false,
      "t": 150300,
      "d": 60,
      "v": 102
    },
    {
      "midi": 66,
      "hit": false,
      "t": 150300,
      "d": 62.5,
      "v": 99
    },
    {
      "midi": 57,
      "hit": false,
      "t": 150600,
      "d": 528.75,
      "v": 104
    },
    {
      "midi": 66,
      "hit": false,
      "t": 150600,
      "d": 543.75,
      "v": 93
    },
    {
      "midi": 61,
      "hit": false,
      "t": 150600,
      "d": 553.75,
      "v": 102
    },
    {
      "midi": 62,
      "hit": false,
      "t": 151800,
      "d": 572.5,
      "v": 116
    },
    {
      "midi": 66,
      "hit": false,
      "t": 151800,
      "d": 572.5,
      "v": 95
    },
    {
      "midi": 57,
      "hit": false,
      "t": 151800,
      "d": 578.75,
      "v": 107
    },
    {
      "midi": 62,
      "hit": false,
      "t": 152700,
      "d": 56.25,
      "v": 113
    },
    {
      "midi": 57,
      "hit": false,
      "t": 152700,
      "d": 68.75,
      "v": 107
    },
    {
      "midi": 66,
      "hit": false,
      "t": 152700,
      "d": 75,
      "v": 93
    },
    {
      "midi": 57,
      "hit": false,
      "t": 153000,
      "d": 562.5,
      "v": 110
    },
    {
      "midi": 62,
      "hit": false,
      "t": 153000,
      "d": 566.25,
      "v": 120
    },
    {
      "midi": 66,
      "hit": false,
      "t": 153000,
      "d": 587.5,
      "v": 95
    },
    {
      "midi": 59,
      "hit": false,
      "t": 153900,
      "d": 6897.5,
      "v": 1
    },
    {
      "midi": 62,
      "hit": false,
      "t": 153900,
      "d": 6897.5,
      "v": 1
    },
    {
      "midi": 67,
      "hit": false,
      "t": 153900,
      "d": 6897.5,
      "v": 1
    },
    {
      "midi": 59,
      "hit": false,
      "t": 154200,
      "d": 578.75,
      "v": 102
    },
    {
      "midi": 62,
      "hit": false,
      "t": 154200,
      "d": 581.25,
      "v": 120
    },
    {
      "midi": 67,
      "hit": false,
      "t": 154200,
      "d": 581.25,
      "v": 99
    },
    {
      "midi": 74,
      "hit": false,
      "t": 154500,
      "d": 281.25,
      "v": 98
    },
    {
      "midi": 79,
      "hit": false,
      "t": 154800,
      "d": 331.25,
      "v": 107
    },
    {
      "midi": 74,
      "hit": false,
      "t": 155100,
      "d": 268.75,
      "v": 90
    },
    {
      "midi": 62,
      "hit": false,
      "t": 155100,
      "d": 62.5,
      "v": 104
    },
    {
      "midi": 59,
      "hit": false,
      "t": 155100,
      "d": 66.25,
      "v": 98
    },
    {
      "midi": 67,
      "hit": false,
      "t": 155100,
      "d": 85,
      "v": 94
    },
    {
      "midi": 71,
      "hit": false,
      "t": 155400,
      "d": 318.75,
      "v": 94
    },
    {
      "midi": 62,
      "hit": false,
      "t": 155400,
      "d": 528.75,
      "v": 113
    },
    {
      "midi": 59,
      "hit": false,
      "t": 155400,
      "d": 531.25,
      "v": 107
    },
    {
      "midi": 67,
      "hit": false,
      "t": 155400,
      "d": 537.5,
      "v": 107
    },
    {
      "midi": 69,
      "hit": false,
      "t": 155700,
      "d": 268.75,
      "v": 99
    },
    {
      "midi": 67,
      "hit": false,
      "t": 156000,
      "d": 310,
      "v": 79
    },
    {
      "midi": 69,
      "hit": false,
      "t": 156300,
      "d": 293.75,
      "v": 95
    },
    {
      "midi": 71,
      "hit": false,
      "t": 156600,
      "d": 1478.75,
      "v": 99
    },
    {
      "midi": 59,
      "hit": false,
      "t": 156600,
      "d": 600,
      "v": 104
    },
    {
      "midi": 64,
      "hit": false,
      "t": 156600,
      "d": 600,
      "v": 113
    },
    {
      "midi": 67,
      "hit": false,
      "t": 156600,
      "d": 610,
      "v": 107
    },
    {
      "midi": 64,
      "hit": false,
      "t": 157500,
      "d": 43.75,
      "v": 110
    },
    {
      "midi": 67,
      "hit": false,
      "t": 157500,
      "d": 47.5,
      "v": 95
    },
    {
      "midi": 59,
      "hit": false,
      "t": 157500,
      "d": 53.75,
      "v": 104
    },
    {
      "midi": 64,
      "hit": false,
      "t": 157800,
      "d": 587.5,
      "v": 116
    },
    {
      "midi": 59,
      "hit": false,
      "t": 157800,
      "d": 603.75,
      "v": 107
    },
    {
      "midi": 67,
      "hit": false,
      "t": 157800,
      "d": 603.75,
      "v": 107
    },
    {
      "midi": 59,
      "hit": false,
      "t": 159000,
      "d": 562.5,
      "v": 98
    },
    {
      "midi": 62,
      "hit": false,
      "t": 159000,
      "d": 562.5,
      "v": 110
    },
    {
      "midi": 67,
      "hit": false,
      "t": 159000,
      "d": 581.25,
      "v": 98
    },
    {
      "midi": 62,
      "hit": false,
      "t": 159900,
      "d": 31.25,
      "v": 104
    },
    {
      "midi": 59,
      "hit": false,
      "t": 159900,
      "d": 37.5,
      "v": 99
    },
    {
      "midi": 67,
      "hit": false,
      "t": 159900,
      "d": 60,
      "v": 95
    },
    {
      "midi": 59,
      "hit": false,
      "t": 160200,
      "d": 493.75,
      "v": 110
    },
    {
      "midi": 62,
      "hit": false,
      "t": 160200,
      "d": 493.75,
      "v": 116
    },
    {
      "midi": 67,
      "hit": false,
      "t": 160200,
      "d": 512.5,
      "v": 107
    },
    {
      "midi": 57,
      "hit": false,
      "t": 160800,
      "d": 2847.5,
      "v": 1
    },
    {
      "midi": 61,
      "hit": false,
      "t": 160800,
      "d": 2847.5,
      "v": 1
    },
    {
      "midi": 67,
      "hit": false,
      "t": 160800,
      "d": 2847.5,
      "v": 1
    },
    {
      "midi": 61,
      "hit": false,
      "t": 161400,
      "d": 525,
      "v": 105
    },
    {
      "midi": 64,
      "hit": false,
      "t": 161400,
      "d": 537.5,
      "v": 113
    },
    {
      "midi": 57,
      "hit": false,
      "t": 161400,
      "d": 541.25,
      "v": 116
    },
    {
      "midi": 67,
      "hit": false,
      "t": 161400,
      "d": 568.75,
      "v": 110
    },
    {
      "midi": 64,
      "hit": false,
      "t": 162300,
      "d": 62.5,
      "v": 84
    },
    {
      "midi": 61,
      "hit": false,
      "t": 162300,
      "d": 68.75,
      "v": 84
    },
    {
      "midi": 57,
      "hit": false,
      "t": 162300,
      "d": 75,
      "v": 90
    },
    {
      "midi": 67,
      "hit": false,
      "t": 162300,
      "d": 106.25,
      "v": 98
    },
    {
      "midi": 61,
      "hit": false,
      "t": 162600,
      "d": 478.75,
      "v": 99
    },
    {
      "midi": 64,
      "hit": false,
      "t": 162600,
      "d": 481.25,
      "v": 110
    },
    {
      "midi": 57,
      "hit": false,
      "t": 162600,
      "d": 491.25,
      "v": 110
    },
    {
      "midi": 67,
      "hit": false,
      "t": 162600,
      "d": 497.5,
      "v": 102
    },
    {
      "midi": 57,
      "hit": false,
      "t": 163650,
      "d": 1947.5,
      "v": 1
    },
    {
      "midi": 62,
      "hit": false,
      "t": 163650,
      "d": 1947.5,
      "v": 1
    },
    {
      "midi": 66,
      "hit": false,
      "t": 163650,
      "d": 1947.5,
      "v": 1
    },
    {
      "midi": 57,
      "hit": false,
      "t": 163800,
      "d": 572.5,
      "v": 110
    },
    {
      "midi": 62,
      "hit": false,
      "t": 163800,
      "d": 575,
      "v": 113
    },
    {
      "midi": 66,
      "hit": false,
      "t": 163800,
      "d": 578.75,
      "v": 93
    },
    {
      "midi": 57,
      "hit": false,
      "t": 164700,
      "d": 41.25,
      "v": 95
    },
    {
      "midi": 62,
      "hit": false,
      "t": 164700,
      "d": 41.25,
      "v": 98
    },
    {
      "midi": 66,
      "hit": false,
      "t": 164700,
      "d": 47.5,
      "v": 74
    },
    {
      "midi": 57,
      "hit": false,
      "t": 165000,
      "d": 400,
      "v": 116
    },
    {
      "midi": 66,
      "hit": false,
      "t": 165000,
      "d": 412.5,
      "v": 99
    },
    {
      "midi": 62,
      "hit": false,
      "t": 165000,
      "d": 435,
      "v": 124
    },
    {
      "midi": 62,
      "hit": false,
      "t": 165600,
      "d": 2056.25,
      "v": 95
    },
    {
      "midi": 65,
      "hit": false,
      "t": 165600,
      "d": 2060,
      "v": 120
    },
    {
      "midi": 70,
      "hit": false,
      "t": 165600,
      "d": 2066.25,
      "v": 113
    },
    {
      "midi": 60,
      "hit": false,
      "t": 166800,
      "d": 1197.5,
      "v": 1
    },
    {
      "midi": 63,
      "hit": false,
      "t": 166800,
      "d": 1197.5,
      "v": 1
    },
    {
      "midi": 68,
      "hit": false,
      "t": 166800,
      "d": 1197.5,
      "v": 1
    },
    {
      "midi": 58,
      "hit": false,
      "t": 168000,
      "d": 375,
      "v": 104
    },
    {
      "midi": 63,
      "hit": false,
      "t": 168000,
      "d": 375,
      "v": 110
    },
    {
      "midi": 67,
      "hit": false,
      "t": 168000,
      "d": 385,
      "v": 89
    },
    {
      "midi": 58,
      "hit": false,
      "t": 168000,
      "d": 5097.5,
      "v": 1
    },
    {
      "midi": 63,
      "hit": false,
      "t": 168000,
      "d": 5097.5,
      "v": 1
    },
    {
      "midi": 67,
      "hit": false,
      "t": 168000,
      "d": 5097.5,
      "v": 1
    },
    {
      "midi": 58,
      "hit": false,
      "t": 168600,
      "d": 581.25,
      "v": 113
    },
    {
      "midi": 67,
      "hit": false,
      "t": 168600,
      "d": 581.25,
      "v": 99
    },
    {
      "midi": 63,
      "hit": false,
      "t": 168600,
      "d": 593.75,
      "v": 116
    },
    {
      "midi": 58,
      "hit": false,
      "t": 169500,
      "d": 60,
      "v": 104
    },
    {
      "midi": 62,
      "hit": false,
      "t": 169500,
      "d": 60,
      "v": 102
    },
    {
      "midi": 67,
      "hit": false,
      "t": 169500,
      "d": 62.5,
      "v": 99
    },
    {
      "midi": 58,
      "hit": false,
      "t": 169800,
      "d": 528.75,
      "v": 104
    },
    {
      "midi": 67,
      "hit": false,
      "t": 169800,
      "d": 543.75,
      "v": 93
    },
    {
      "midi": 62,
      "hit": false,
      "t": 169800,
      "d": 553.75,
      "v": 102
    },
    {
      "midi": 63,
      "hit": false,
      "t": 171000,
      "d": 572.5,
      "v": 116
    },
    {
      "midi": 67,
      "hit": false,
      "t": 171000,
      "d": 572.5,
      "v": 95
    },
    {
      "midi": 58,
      "hit": false,
      "t": 171000,
      "d": 578.75,
      "v": 107
    },
    {
      "midi": 63,
      "hit": false,
      "t": 171900,
      "d": 56.25,
      "v": 113
    },
    {
      "midi": 58,
      "hit": false,
      "t": 171900,
      "d": 68.75,
      "v": 107
    },
    {
      "midi": 67,
      "hit": false,
      "t": 171900,
      "d": 75,
      "v": 93
    },
    {
      "midi": 58,
      "hit": false,
      "t": 172200,
      "d": 562.5,
      "v": 110
    },
    {
      "midi": 63,
      "hit": false,
      "t": 172200,
      "d": 566.25,
      "v": 120
    },
    {
      "midi": 67,
      "hit": false,
      "t": 172200,
      "d": 587.5,
      "v": 95
    },
    {
      "midi": 60,
      "hit": false,
      "t": 173100,
      "d": 6897.5,
      "v": 1
    },
    {
      "midi": 63,
      "hit": false,
      "t": 173100,
      "d": 6897.5,
      "v": 1
    },
    {
      "midi": 68,
      "hit": false,
      "t": 173100,
      "d": 6897.5,
      "v": 1
    },
    {
      "midi": 60,
      "hit": false,
      "t": 173400,
      "d": 578.75,
      "v": 102
    },
    {
      "midi": 63,
      "hit": false,
      "t": 173400,
      "d": 581.25,
      "v": 120
    },
    {
      "midi": 68,
      "hit": false,
      "t": 173400,
      "d": 581.25,
      "v": 99
    },
    {
      "midi": 63,
      "hit": false,
      "t": 174300,
      "d": 62.5,
      "v": 104
    },
    {
      "midi": 60,
      "hit": false,
      "t": 174300,
      "d": 66.25,
      "v": 98
    },
    {
      "midi": 68,
      "hit": false,
      "t": 174300,
      "d": 85,
      "v": 94
    },
    {
      "midi": 63,
      "hit": false,
      "t": 174600,
      "d": 528.75,
      "v": 113
    },
    {
      "midi": 60,
      "hit": false,
      "t": 174600,
      "d": 531.25,
      "v": 107
    },
    {
      "midi": 68,
      "hit": false,
      "t": 174600,
      "d": 537.5,
      "v": 107
    },
    {
      "midi": 60,
      "hit": false,
      "t": 175800,
      "d": 600,
      "v": 104
    },
    {
      "midi": 65,
      "hit": false,
      "t": 175800,
      "d": 600,
      "v": 113
    },
    {
      "midi": 68,
      "hit": false,
      "t": 175800,
      "d": 610,
      "v": 107
    },
    {
      "midi": 65,
      "hit": false,
      "t": 176700,
      "d": 43.75,
      "v": 110
    },
    {
      "midi": 68,
      "hit": false,
      "t": 176700,
      "d": 47.5,
      "v": 95
    },
    {
      "midi": 60,
      "hit": false,
      "t": 176700,
      "d": 53.75,
      "v": 104
    },
    {
      "midi": 65,
      "hit": false,
      "t": 177000,
      "d": 587.5,
      "v": 116
    },
    {
      "midi": 60,
      "hit": false,
      "t": 177000,
      "d": 603.75,
      "v": 107
    },
    {
      "midi": 68,
      "hit": false,
      "t": 177000,
      "d": 603.75,
      "v": 107
    },
    {
      "midi": 60,
      "hit": false,
      "t": 178200,
      "d": 562.5,
      "v": 98
    },
    {
      "midi": 63,
      "hit": false,
      "t": 178200,
      "d": 562.5,
      "v": 110
    },
    {
      "midi": 68,
      "hit": false,
      "t": 178200,
      "d": 581.25,
      "v": 98
    },
    {
      "midi": 63,
      "hit": false,
      "t": 179100,
      "d": 31.25,
      "v": 104
    },
    {
      "midi": 60,
      "hit": false,
      "t": 179100,
      "d": 37.5,
      "v": 99
    },
    {
      "midi": 68,
      "hit": false,
      "t": 179100,
      "d": 60,
      "v": 95
    },
    {
      "midi": 60,
      "hit": false,
      "t": 179400,
      "d": 493.75,
      "v": 110
    },
    {
      "midi": 63,
      "hit": false,
      "t": 179400,
      "d": 493.75,
      "v": 116
    },
    {
      "midi": 68,
      "hit": false,
      "t": 179400,
      "d": 512.5,
      "v": 107
    },
    {
      "midi": 58,
      "hit": false,
      "t": 180000,
      "d": 2697.5,
      "v": 1
    },
    {
      "midi": 62,
      "hit": false,
      "t": 180000,
      "d": 2697.5,
      "v": 1
    },
    {
      "midi": 68,
      "hit": false,
      "t": 180000,
      "d": 2697.5,
      "v": 1
    },
    {
      "midi": 62,
      "hit": false,
      "t": 180600,
      "d": 525,
      "v": 105
    },
    {
      "midi": 65,
      "hit": false,
      "t": 180600,
      "d": 537.5,
      "v": 113
    },
    {
      "midi": 58,
      "hit": false,
      "t": 180600,
      "d": 541.25,
      "v": 116
    },
    {
      "midi": 68,
      "hit": false,
      "t": 180600,
      "d": 568.75,
      "v": 110
    },
    {
      "midi": 65,
      "hit": false,
      "t": 181500,
      "d": 62.5,
      "v": 84
    },
    {
      "midi": 62,
      "hit": false,
      "t": 181500,
      "d": 68.75,
      "v": 84
    },
    {
      "midi": 58,
      "hit": false,
      "t": 181500,
      "d": 75,
      "v": 90
    },
    {
      "midi": 68,
      "hit": false,
      "t": 181500,
      "d": 106.25,
      "v": 98
    },
    {
      "midi": 62,
      "hit": false,
      "t": 181800,
      "d": 478.75,
      "v": 99
    },
    {
      "midi": 65,
      "hit": false,
      "t": 181800,
      "d": 481.25,
      "v": 110
    },
    {
      "midi": 58,
      "hit": false,
      "t": 181800,
      "d": 491.25,
      "v": 110
    },
    {
      "midi": 68,
      "hit": false,
      "t": 181800,
      "d": 497.5,
      "v": 102
    },
    {
      "midi": 63,
      "hit": false,
      "t": 182400,
      "d": 993.75,
      "v": 116
    },
    {
      "midi": 58,
      "hit": false,
      "t": 182400,
      "d": 1003.75,
      "v": 113
    },
    {
      "midi": 55,
      "hit": false,
      "t": 182400,
      "d": 1016.25,
      "v": 99
    },
    {
      "midi": 58,
      "hit": false,
      "t": 182700,
      "d": 2097.5,
      "v": 1
    },
    {
      "midi": 63,
      "hit": false,
      "t": 182700,
      "d": 2097.5,
      "v": 1
    },
    {
      "midi": 67,
      "hit": false,
      "t": 182700,
      "d": 2097.5,
      "v": 1
    },
    {
      "midi": 58,
      "hit": false,
      "t": 183600,
      "d": 893.75,
      "v": 116
    },
    {
      "midi": 62,
      "hit": false,
      "t": 183600,
      "d": 900,
      "v": 105
    },
    {
      "midi": 55,
      "hit": false,
      "t": 183600,
      "d": 903.75,
      "v": 99
    },
    {
      "midi": 51,
      "hit": false,
      "t": 184800,
      "d": 1462.5,
      "v": 107
    },
    {
      "midi": 56,
      "hit": false,
      "t": 184800,
      "d": 1493.75,
      "v": 120
    },
    {
      "midi": 60,
      "hit": false,
      "t": 184800,
      "d": 1500,
      "v": 110
    },
    {
      "midi": 60,
      "hit": false,
      "t": 186000,
      "d": 1197.5,
      "v": 1
    },
    {
      "midi": 63,
      "hit": false,
      "t": 186000,
      "d": 1197.5,
      "v": 1
    },
    {
      "midi": 68,
      "hit": false,
      "t": 186000,
      "d": 1197.5,
      "v": 1
    },
    {
      "midi": 53,
      "hit": false,
      "t": 186600,
      "d": 475,
      "v": 110
    },
    {
      "midi": 62,
      "hit": false,
      "t": 186600,
      "d": 481.25,
      "v": 105
    },
    {
      "midi": 58,
      "hit": false,
      "t": 186600,
      "d": 491.25,
      "v": 124
    },
    {
      "midi": 58,
      "hit": false,
      "t": 187200,
      "d": 375,
      "v": 104
    },
    {
      "midi": 63,
      "hit": false,
      "t": 187200,
      "d": 375,
      "v": 110
    },
    {
      "midi": 67,
      "hit": false,
      "t": 187200,
      "d": 385,
      "v": 89
    },
    {
      "midi": 58,
      "hit": false,
      "t": 187200,
      "d": 5097.5,
      "v": 1
    },
    {
      "midi": 63,
      "hit": false,
      "t": 187200,
      "d": 5097.5,
      "v": 1
    },
    {
      "midi": 67,
      "hit": false,
      "t": 187200,
      "d": 5097.5,
      "v": 1
    },
    {
      "midi": 58,
      "hit": false,
      "t": 187800,
      "d": 581.25,
      "v": 113
    },
    {
      "midi": 67,
      "hit": false,
      "t": 187800,
      "d": 581.25,
      "v": 99
    },
    {
      "midi": 63,
      "hit": false,
      "t": 187800,
      "d": 593.75,
      "v": 116
    },
    {
      "midi": 58,
      "hit": false,
      "t": 188700,
      "d": 60,
      "v": 104
    },
    {
      "midi": 62,
      "hit": false,
      "t": 188700,
      "d": 60,
      "v": 102
    },
    {
      "midi": 67,
      "hit": false,
      "t": 188700,
      "d": 62.5,
      "v": 99
    },
    {
      "midi": 58,
      "hit": false,
      "t": 189000,
      "d": 528.75,
      "v": 104
    },
    {
      "midi": 67,
      "hit": false,
      "t": 189000,
      "d": 543.75,
      "v": 93
    },
    {
      "midi": 62,
      "hit": false,
      "t": 189000,
      "d": 553.75,
      "v": 102
    },
    {
      "midi": 63,
      "hit": false,
      "t": 190200,
      "d": 572.5,
      "v": 116
    },
    {
      "midi": 67,
      "hit": false,
      "t": 190200,
      "d": 572.5,
      "v": 95
    },
    {
      "midi": 58,
      "hit": false,
      "t": 190200,
      "d": 578.75,
      "v": 107
    },
    {
      "midi": 63,
      "hit": false,
      "t": 191100,
      "d": 56.25,
      "v": 113
    },
    {
      "midi": 58,
      "hit": false,
      "t": 191100,
      "d": 68.75,
      "v": 107
    },
    {
      "midi": 67,
      "hit": false,
      "t": 191100,
      "d": 75,
      "v": 93
    },
    {
      "midi": 58,
      "hit": false,
      "t": 191400,
      "d": 562.5,
      "v": 110
    },
    {
      "midi": 63,
      "hit": false,
      "t": 191400,
      "d": 566.25,
      "v": 120
    },
    {
      "midi": 67,
      "hit": false,
      "t": 191400,
      "d": 587.5,
      "v": 95
    },
    {
      "midi": 60,
      "hit": false,
      "t": 192300,
      "d": 6897.5,
      "v": 1
    },
    {
      "midi": 63,
      "hit": false,
      "t": 192300,
      "d": 6897.5,
      "v": 1
    },
    {
      "midi": 68,
      "hit": false,
      "t": 192300,
      "d": 6897.5,
      "v": 1
    },
    {
      "midi": 60,
      "hit": false,
      "t": 192600,
      "d": 578.75,
      "v": 102
    },
    {
      "midi": 63,
      "hit": false,
      "t": 192600,
      "d": 581.25,
      "v": 120
    },
    {
      "midi": 68,
      "hit": false,
      "t": 192600,
      "d": 581.25,
      "v": 99
    },
    {
      "midi": 75,
      "hit": false,
      "t": 192900,
      "d": 281.25,
      "v": 98
    },
    {
      "midi": 80,
      "hit": false,
      "t": 193200,
      "d": 331.25,
      "v": 107
    },
    {
      "midi": 75,
      "hit": false,
      "t": 193500,
      "d": 268.75,
      "v": 90
    },
    {
      "midi": 63,
      "hit": false,
      "t": 193500,
      "d": 62.5,
      "v": 104
    },
    {
      "midi": 60,
      "hit": false,
      "t": 193500,
      "d": 66.25,
      "v": 98
    },
    {
      "midi": 68,
      "hit": false,
      "t": 193500,
      "d": 85,
      "v": 94
    },
    {
      "midi": 72,
      "hit": false,
      "t": 193800,
      "d": 318.75,
      "v": 94
    },
    {
      "midi": 63,
      "hit": false,
      "t": 193800,
      "d": 528.75,
      "v": 113
    },
    {
      "midi": 60,
      "hit": false,
      "t": 193800,
      "d": 531.25,
      "v": 107
    },
    {
      "midi": 68,
      "hit": false,
      "t": 193800,
      "d": 537.5,
      "v": 107
    },
    {
      "midi": 70,
      "hit": false,
      "t": 194100,
      "d": 268.75,
      "v": 99
    },
    {
      "midi": 68,
      "hit": false,
      "t": 194400,
      "d": 310,
      "v": 79
    },
    {
      "midi": 70,
      "hit": false,
      "t": 194700,
      "d": 293.75,
      "v": 95
    },
    {
      "midi": 72,
      "hit": false,
      "t": 195000,
      "d": 1478.75,
      "v": 99
    },
    {
      "midi": 60,
      "hit": false,
      "t": 195000,
      "d": 600,
      "v": 104
    },
    {
      "midi": 65,
      "hit": false,
      "t": 195000,
      "d": 600,
      "v": 113
    },
    {
      "midi": 68,
      "hit": false,
      "t": 195000,
      "d": 610,
      "v": 107
    },
    {
      "midi": 65,
      "hit": false,
      "t": 195900,
      "d": 43.75,
      "v": 110
    },
    {
      "midi": 68,
      "hit": false,
      "t": 195900,
      "d": 47.5,
      "v": 95
    },
    {
      "midi": 60,
      "hit": false,
      "t": 195900,
      "d": 53.75,
      "v": 104
    },
    {
      "midi": 65,
      "hit": false,
      "t": 196200,
      "d": 587.5,
      "v": 116
    },
    {
      "midi": 60,
      "hit": false,
      "t": 196200,
      "d": 603.75,
      "v": 107
    },
    {
      "midi": 68,
      "hit": false,
      "t": 196200,
      "d": 603.75,
      "v": 107
    },
    {
      "midi": 60,
      "hit": false,
      "t": 197400,
      "d": 562.5,
      "v": 98
    },
    {
      "midi": 63,
      "hit": false,
      "t": 197400,
      "d": 562.5,
      "v": 110
    },
    {
      "midi": 68,
      "hit": false,
      "t": 197400,
      "d": 581.25,
      "v": 98
    },
    {
      "midi": 63,
      "hit": false,
      "t": 198300,
      "d": 31.25,
      "v": 104
    },
    {
      "midi": 60,
      "hit": false,
      "t": 198300,
      "d": 37.5,
      "v": 99
    },
    {
      "midi": 68,
      "hit": false,
      "t": 198300,
      "d": 60,
      "v": 95
    },
    {
      "midi": 60,
      "hit": false,
      "t": 198600,
      "d": 493.75,
      "v": 110
    },
    {
      "midi": 63,
      "hit": false,
      "t": 198600,
      "d": 493.75,
      "v": 116
    },
    {
      "midi": 68,
      "hit": false,
      "t": 198600,
      "d": 512.5,
      "v": 107
    },
    {
      "midi": 58,
      "hit": false,
      "t": 199200,
      "d": 2847.5,
      "v": 1
    },
    {
      "midi": 62,
      "hit": false,
      "t": 199200,
      "d": 2847.5,
      "v": 1
    },
    {
      "midi": 68,
      "hit": false,
      "t": 199200,
      "d": 2847.5,
      "v": 1
    },
    {
      "midi": 62,
      "hit": false,
      "t": 199800,
      "d": 525,
      "v": 105
    },
    {
      "midi": 65,
      "hit": false,
      "t": 199800,
      "d": 537.5,
      "v": 113
    },
    {
      "midi": 58,
      "hit": false,
      "t": 199800,
      "d": 541.25,
      "v": 116
    },
    {
      "midi": 68,
      "hit": false,
      "t": 199800,
      "d": 568.75,
      "v": 110
    },
    {
      "midi": 65,
      "hit": false,
      "t": 200700,
      "d": 62.5,
      "v": 84
    },
    {
      "midi": 62,
      "hit": false,
      "t": 200700,
      "d": 68.75,
      "v": 84
    },
    {
      "midi": 58,
      "hit": false,
      "t": 200700,
      "d": 75,
      "v": 90
    },
    {
      "midi": 68,
      "hit": false,
      "t": 200700,
      "d": 106.25,
      "v": 98
    },
    {
      "midi": 62,
      "hit": false,
      "t": 201000,
      "d": 478.75,
      "v": 99
    },
    {
      "midi": 65,
      "hit": false,
      "t": 201000,
      "d": 481.25,
      "v": 110
    },
    {
      "midi": 58,
      "hit": false,
      "t": 201000,
      "d": 491.25,
      "v": 110
    },
    {
      "midi": 68,
      "hit": false,
      "t": 201000,
      "d": 497.5,
      "v": 102
    },
    {
      "midi": 63,
      "hit": false,
      "t": 201600,
      "d": 1278.75,
      "v": 99
    },
    {
      "midi": 55,
      "hit": false,
      "t": 201600,
      "d": 3491.25,
      "v": 110
    },
    {
      "midi": 58,
      "hit": false,
      "t": 201600,
      "d": 3516.25,
      "v": 105
    },
    {
      "midi": 58,
      "hit": false,
      "t": 202050,
      "d": 1947.5,
      "v": 1
    },
    {
      "midi": 63,
      "hit": false,
      "t": 202050,
      "d": 1947.5,
      "v": 1
    },
    {
      "midi": 67,
      "hit": false,
      "t": 202050,
      "d": 1947.5,
      "v": 1
    },
    {
      "midi": 63,
      "hit": false,
      "t": 203100,
      "d": 2025,
      "v": 95
    },
    {
      "midi": 65,
      "hit": false,
      "t": 203400,
      "d": 1687.5,
      "v": 116
    },
    {
      "midi": 67,
      "hit": false,
      "t": 203700,
      "d": 1425,
      "v": 99
    },
    {
      "midi": 70,
      "hit": false,
      "t": 204000,
      "d": 1116.25,
      "v": 105
    },
    {
      "midi": 60,
      "hit": false,
      "t": 205200,
      "d": 1203.75,
      "v": 120
    },
    {
      "midi": 63,
      "hit": false,
      "t": 205200,
      "d": 1206.25,
      "v": 95
    },
    {
      "midi": 56,
      "hit": false,
      "t": 205200,
      "d": 1225,
      "v": 102
    },
    {
      "midi": 55,
      "hit": false,
      "t": 206226.25,
      "d": 2183.75,
      "v": 110
    },
    {
      "midi": 58,
      "hit": false,
      "t": 206337.5,
      "d": 2168.75,
      "v": 89
    },
    {
      "midi": 63,
      "hit": false,
      "t": 206362.5,
      "d": 2097.5,
      "v": 105
    },
    {
      "midi": 67,
      "hit": false,
      "t": 206400,
      "d": 2187.5,
      "v": 116
    },
    {
      "midi": 63,
      "hit": false,
      "t": 207000,
      "d": 1843.75,
      "v": 93
    },
    {
      "midi": 70,
      "hit": false,
      "t": 207300,
      "d": 2068.75,
      "v": 109
    },
    {
      "midi": 55,
      "hit": false,
      "t": 208607.5,
      "d": 1936.25,
      "v": 104
    },
    {
      "midi": 58,
      "hit": false,
      "t": 208720,
      "d": 1867.5,
      "v": 95
    },
    {
      "midi": 67,
      "hit": false,
      "t": 208800,
      "d": 2566.25,
      "v": 120
    },
    {
      "midi": 62,
      "hit": false,
      "t": 208813.75,
      "d": 1740,
      "v": 98
    },
    {
      "midi": 62,
      "hit": false,
      "t": 209400,
      "d": 1603.75,
      "v": 104
    },
    {
      "midi": 70,
      "hit": false,
      "t": 209700,
      "d": 1616.25,
      "v": 109
    },
    {
      "midi": 56,
      "hit": false,
      "t": 210988.75,
      "d": 2165,
      "v": 102
    },
    {
      "midi": 60,
      "hit": false,
      "t": 211107.5,
      "d": 2021.25,
      "v": 110
    },
    {
      "midi": 63,
      "hit": false,
      "t": 211175,
      "d": 1947.5,
      "v": 95
    },
    {
      "midi": 63,
      "hit": false,
      "t": 211200,
      "d": 1287.5,
      "v": 105
    },
    {
      "midi": 60,
      "hit": false,
      "t": 211800,
      "d": 1656.25,
      "v": 84
    },
    {
      "midi": 68,
      "hit": false,
      "t": 212100,
      "d": 1253.75,
      "v": 109
    },
    {
      "midi": 63,
      "hit": false,
      "t": 212700,
      "d": 766.25,
      "v": 81
    },
    {
      "midi": 67,
      "hit": false,
      "t": 213000,
      "d": 441.25,
      "v": 104
    },
    {
      "midi": 60,
      "hit": false,
      "t": 213600,
      "d": 2147.5,
      "v": 94
    },
    {
      "midi": 56,
      "hit": false,
      "t": 213600,
      "d": 2172.5,
      "v": 93
    },
    {
      "midi": 65,
      "hit": false,
      "t": 213600,
      "d": 2172.5,
      "v": 99
    },
    {
      "midi": 65,
      "hit": false,
      "t": 213606.25,
      "d": 641.25,
      "v": 95
    },
    {
      "midi": 56,
      "hit": false,
      "t": 213607.5,
      "d": 2090,
      "v": 74
    },
    {
      "midi": 60,
      "hit": false,
      "t": 213613.75,
      "d": 421.25,
      "v": 110
    },
    {
      "midi": 60,
      "hit": false,
      "t": 214175,
      "d": 1531.25,
      "v": 107
    },
    {
      "midi": 65,
      "hit": false,
      "t": 214493.75,
      "d": 1206.25,
      "v": 120
    },
    {
      "midi": 63,
      "hit": false,
      "t": 216000,
      "d": 2031.25,
      "v": 74
    },
    {
      "midi": 56,
      "hit": false,
      "t": 216000,
      "d": 2053.75,
      "v": 102
    },
    {
      "midi": 60,
      "hit": false,
      "t": 216000,
      "d": 2066.25,
      "v": 116
    },
    {
      "midi": 53,
      "hit": false,
      "t": 216000,
      "d": 2135,
      "v": 88
    },
    {
      "midi": 63,
      "hit": false,
      "t": 216000,
      "d": 2047.5,
      "v": 95
    },
    {
      "midi": 56,
      "hit": false,
      "t": 216000,
      "d": 2053.75,
      "v": 86
    },
    {
      "midi": 60,
      "hit": false,
      "t": 216000,
      "d": 2056.25,
      "v": 113
    },
    {
      "midi": 53,
      "hit": false,
      "t": 218400,
      "d": 2168.75,
      "v": 84
    },
    {
      "midi": 62,
      "hit": false,
      "t": 218400,
      "d": 2175,
      "v": 102
    },
    {
      "midi": 58,
      "hit": false,
      "t": 218400,
      "d": 2191.25,
      "v": 89
    },
    {
      "midi": 53,
      "hit": false,
      "t": 218400,
      "d": 2066.25,
      "v": 104
    },
    {
      "midi": 58,
      "hit": false,
      "t": 218400,
      "d": 2097.5,
      "v": 95
    },
    {
      "midi": 62,
      "hit": false,
      "t": 218400,
      "d": 2097.5,
      "v": 110
    },
    {
      "midi": 75,
      "hit": false,
      "t": 220800,
      "d": 525,
      "v": 99
    },
    {
      "midi": 63,
      "hit": false,
      "t": 220800,
      "d": 1118.75,
      "v": 102
    },
    {
      "midi": 60,
      "hit": false,
      "t": 220800,
      "d": 1122.5,
      "v": 116
    },
    {
      "midi": 56,
      "hit": false,
      "t": 220800,
      "d": 1143.75,
      "v": 89
    },
    {
      "midi": 68,
      "hit": false,
      "t": 221400,
      "d": 278.75,
      "v": 102
    },
    {
      "midi": 75,
      "hit": false,
      "t": 221700,
      "d": 266.25,
      "v": 102
    },
    {
      "midi": 62,
      "hit": false,
      "t": 222000,
      "d": 587.5,
      "v": 95
    },
    {
      "midi": 65,
      "hit": false,
      "t": 222000,
      "d": 587.5,
      "v": 104
    },
    {
      "midi": 70,
      "hit": false,
      "t": 222000,
      "d": 587.5,
      "v": 95
    },
    {
      "midi": 62,
      "hit": false,
      "t": 222000,
      "d": 462.5,
      "v": 110
    },
    {
      "midi": 53,
      "hit": false,
      "t": 222000,
      "d": 510,
      "v": 107
    },
    {
      "midi": 58,
      "hit": false,
      "t": 222000,
      "d": 512.5,
      "v": 99
    },
    {
      "midi": 60,
      "hit": false,
      "t": 222600,
      "d": 522.5,
      "v": 90
    },
    {
      "midi": 63,
      "hit": false,
      "t": 222600,
      "d": 522.5,
      "v": 86
    },
    {
      "midi": 68,
      "hit": false,
      "t": 222600,
      "d": 522.5,
      "v": 86
    },
    {
      "midi": 60,
      "hit": false,
      "t": 222600,
      "d": 478.75,
      "v": 110
    },
    {
      "midi": 51,
      "hit": false,
      "t": 222600,
      "d": 510,
      "v": 99
    },
    {
      "midi": 56,
      "hit": false,
      "t": 222600,
      "d": 543.75,
      "v": 99
    },
    {
      "midi": 58,
      "hit": false,
      "t": 223132.5,
      "d": 205,
      "v": 93
    },
    {
      "midi": 51,
      "hit": false,
      "t": 223138.75,
      "d": 4865,
      "v": 81
    },
    {
      "midi": 63,
      "hit": false,
      "t": 223163.75,
      "d": 173.75,
      "v": 99
    },
    {
      "midi": 55,
      "hit": false,
      "t": 223170,
      "d": 4840,
      "v": 102
    },
    {
      "midi": 58,
      "hit": false,
      "t": 223200,
      "d": 4787.5,
      "v": 99
    },
    {
      "midi": 67,
      "hit": false,
      "t": 223220,
      "d": 292.5,
      "v": 94
    },
    {
      "midi": 63,
      "hit": false,
      "t": 223776.25,
      "d": 236.25,
      "v": 86
    },
    {
      "midi": 65,
      "hit": false,
      "t": 224025,
      "d": 256.25,
      "v": 92
    },
    {
      "midi": 67,
      "hit": false,
      "t": 224312.5,
      "d": 181.25,
      "v": 102
    },
    {
      "midi": 70,
      "hit": false,
      "t": 224581.25,
      "d": 193.75,
      "v": 78
    },
    {
      "midi": 75,
      "hit": false,
      "t": 224845,
      "d": 180,
      "v": 99
    },
    {
      "midi": 77,
      "hit": false,
      "t": 225143.75,
      "d": 162.5,
      "v": 92
    },
    {
      "midi": 79,
      "hit": false,
      "t": 225557.5,
      "d": 115,
      "v": 95
    }
  ]
}