{
  "jsonPath": "Soundtracks/Hollywood/Damiano/la-canzone-dellamor-perduto.json",
  "path": "Soundtracks\\Hollywood\\Damiano\\La Canzone DellAmor Perduto.mid",
  "name": "La Canzone DellAmor Perduto",
  "difficulty": "Advanced",
  "bpm": 91.99998773333498,
  "notes": [
    {
      "midi": 60,
      "hit": false,
      "t": 6781.25,
      "d": 609.375,
      "v": 84
    },
    {
      "midi": 64,
      "hit": false,
      "t": 6781.25,
      "d": 609.375,
      "v": 84
    },
    {
      "midi": 67,
      "hit": false,
      "t": 6781.25,
      "d": 1609.375,
      "v": 82
    },
    {
      "midi": 48,
      "hit": false,
      "t": 6781.25,
      "d": 2226.5625,
      "v": 94
    },
    {
      "midi": 52,
      "hit": false,
      "t": 6781.25,
      "d": 2226.5625,
      "v": 93
    },
    {
      "midi": 55,
      "hit": false,
      "t": 7281.25,
      "d": 1304.6875,
      "v": 78
    },
    {
      "midi": 64,
      "hit": false,
      "t": 7531.25,
      "d": 601.5625,
      "v": 84
    },
    {
      "midi": 60,
      "hit": false,
      "t": 7531.25,
      "d": 609.375,
      "v": 85
    },
    {
      "midi": 64,
      "hit": false,
      "t": 8281.25,
      "d": 648.4375,
      "v": 84
    },
    {
      "midi": 60,
      "hit": false,
      "t": 8281.25,
      "d": 1257.8125,
      "v": 84
    },
    {
      "midi": 55,
      "hit": false,
      "t": 8781.25,
      "d": 312.5,
      "v": 79
    },
    {
      "midi": 62,
      "hit": false,
      "t": 8781.25,
      "d": 367.1875,
      "v": 85
    },
    {
      "midi": 45,
      "hit": false,
      "t": 9031.25,
      "d": 2257.8125,
      "v": 76
    },
    {
      "midi": 57,
      "hit": false,
      "t": 9531.25,
      "d": 1890.625,
      "v": 83
    },
    {
      "midi": 60,
      "hit": false,
      "t": 9781.25,
      "d": 609.375,
      "v": 78
    },
    {
      "midi": 64,
      "hit": false,
      "t": 9781.25,
      "d": 640.625,
      "v": 78
    },
    {
      "midi": 62,
      "hit": false,
      "t": 9781.25,
      "d": 750,
      "v": 92
    },
    {
      "midi": 64,
      "hit": false,
      "t": 10531.25,
      "d": 820.3125,
      "v": 91
    },
    {
      "midi": 60,
      "hit": false,
      "t": 10531.25,
      "d": 1140.625,
      "v": 93
    },
    {
      "midi": 62,
      "hit": false,
      "t": 11281.25,
      "d": 1367.1875,
      "v": 86
    },
    {
      "midi": 50,
      "hit": false,
      "t": 11281.25,
      "d": 2296.875,
      "v": 76
    },
    {
      "midi": 57,
      "hit": false,
      "t": 11781.25,
      "d": 1585.9375,
      "v": 77
    },
    {
      "midi": 65,
      "hit": false,
      "t": 12031.25,
      "d": 613.28125,
      "v": 85
    },
    {
      "midi": 62,
      "hit": false,
      "t": 12781.25,
      "d": 93.75,
      "v": 84
    },
    {
      "midi": 65,
      "hit": false,
      "t": 12781.25,
      "d": 507.8125,
      "v": 84
    },
    {
      "midi": 60,
      "hit": false,
      "t": 12781.25,
      "d": 750,
      "v": 84
    },
    {
      "midi": 59,
      "hit": false,
      "t": 13531.25,
      "d": 757.8125,
      "v": 79
    },
    {
      "midi": 43,
      "hit": false,
      "t": 13531.25,
      "d": 765.625,
      "v": 81
    },
    {
      "midi": 62,
      "hit": false,
      "t": 13531.25,
      "d": 2039.0625,
      "v": 92
    },
    {
      "midi": 55,
      "hit": false,
      "t": 13531.25,
      "d": 3757.8125,
      "v": 94
    },
    {
      "midi": 60,
      "hit": false,
      "t": 14281.25,
      "d": 757.8125,
      "v": 90
    },
    {
      "midi": 45,
      "hit": false,
      "t": 14281.25,
      "d": 796.875,
      "v": 92
    },
    {
      "midi": 47,
      "hit": false,
      "t": 15031.25,
      "d": 789.0625,
      "v": 84
    },
    {
      "midi": 60,
      "hit": false,
      "t": 15781.25,
      "d": 1382.8125,
      "v": 93
    },
    {
      "midi": 48,
      "hit": false,
      "t": 15781.25,
      "d": 2242.1875,
      "v": 87
    },
    {
      "midi": 64,
      "hit": false,
      "t": 16531.25,
      "d": 601.5625,
      "v": 84
    },
    {
      "midi": 60,
      "hit": false,
      "t": 17281.25,
      "d": 507.8125,
      "v": 83
    },
    {
      "midi": 64,
      "hit": false,
      "t": 17281.25,
      "d": 1320.3125,
      "v": 94
    },
    {
      "midi": 62,
      "hit": false,
      "t": 17781.25,
      "d": 343.75,
      "v": 76
    },
    {
      "midi": 55,
      "hit": false,
      "t": 17781.25,
      "d": 375,
      "v": 75
    },
    {
      "midi": 40,
      "hit": false,
      "t": 18031.25,
      "d": 2273.4375,
      "v": 92
    },
    {
      "midi": 55,
      "hit": false,
      "t": 18531.25,
      "d": 1187.5,
      "v": 91
    },
    {
      "midi": 59,
      "hit": false,
      "t": 18781.25,
      "d": 656.25,
      "v": 85
    },
    {
      "midi": 64,
      "hit": false,
      "t": 18781.25,
      "d": 695.3125,
      "v": 90
    },
    {
      "midi": 64,
      "hit": false,
      "t": 19531.25,
      "d": 804.6875,
      "v": 85
    },
    {
      "midi": 59,
      "hit": false,
      "t": 19531.25,
      "d": 812.5,
      "v": 74
    },
    {
      "midi": 55,
      "hit": false,
      "t": 20031.25,
      "d": 335.9375,
      "v": 74
    },
    {
      "midi": 65,
      "hit": false,
      "t": 20281.25,
      "d": 2210.9375,
      "v": 83
    },
    {
      "midi": 41,
      "hit": false,
      "t": 20281.25,
      "d": 2289.0625,
      "v": 84
    },
    {
      "midi": 53,
      "hit": false,
      "t": 20781.25,
      "d": 1195.3125,
      "v": 90
    },
    {
      "midi": 60,
      "hit": false,
      "t": 21031.25,
      "d": 632.8125,
      "v": 81
    },
    {
      "midi": 57,
      "hit": false,
      "t": 21031.25,
      "d": 671.875,
      "v": 86
    },
    {
      "midi": 60,
      "hit": false,
      "t": 21781.25,
      "d": 921.875,
      "v": 76
    },
    {
      "midi": 57,
      "hit": false,
      "t": 21781.25,
      "d": 945.3125,
      "v": 90
    },
    {
      "midi": 43,
      "hit": false,
      "t": 22531.25,
      "d": 2093.75,
      "v": 90
    },
    {
      "midi": 67,
      "hit": false,
      "t": 22531.25,
      "d": 2281.25,
      "v": 75
    },
    {
      "midi": 55,
      "hit": false,
      "t": 23031.25,
      "d": 1210.9375,
      "v": 92
    },
    {
      "midi": 59,
      "hit": false,
      "t": 23281.25,
      "d": 644.53125,
      "v": 91
    },
    {
      "midi": 62,
      "hit": false,
      "t": 23281.25,
      "d": 644.53125,
      "v": 84
    },
    {
      "midi": 62,
      "hit": false,
      "t": 24031.25,
      "d": 796.875,
      "v": 76
    },
    {
      "midi": 59,
      "hit": false,
      "t": 24031.25,
      "d": 804.6875,
      "v": 90
    },
    {
      "midi": 55,
      "hit": false,
      "t": 24531.25,
      "d": 421.875,
      "v": 77
    },
    {
      "midi": 60,
      "hit": false,
      "t": 24781.25,
      "d": 1328.125,
      "v": 94
    },
    {
      "midi": 48,
      "hit": false,
      "t": 24781.25,
      "d": 2257.8125,
      "v": 92
    },
    {
      "midi": 55,
      "hit": false,
      "t": 25281.25,
      "d": 1195.3125,
      "v": 84
    },
    {
      "midi": 64,
      "hit": false,
      "t": 25531.25,
      "d": 531.25,
      "v": 90
    },
    {
      "midi": 60,
      "hit": false,
      "t": 26281.25,
      "d": 351.5625,
      "v": 84
    },
    {
      "midi": 64,
      "hit": false,
      "t": 26281.25,
      "d": 882.8125,
      "v": 93
    },
    {
      "midi": 55,
      "hit": false,
      "t": 26781.25,
      "d": 343.75,
      "v": 85
    },
    {
      "midi": 62,
      "hit": false,
      "t": 26781.25,
      "d": 343.75,
      "v": 92
    },
    {
      "midi": 40,
      "hit": false,
      "t": 27031.25,
      "d": 2234.375,
      "v": 91
    },
    {
      "midi": 55,
      "hit": false,
      "t": 27531.25,
      "d": 1179.6875,
      "v": 85
    },
    {
      "midi": 64,
      "hit": false,
      "t": 27781.25,
      "d": 593.75,
      "v": 92
    },
    {
      "midi": 59,
      "hit": false,
      "t": 27781.25,
      "d": 636.71875,
      "v": 83
    },
    {
      "midi": 67,
      "hit": false,
      "t": 27781.25,
      "d": 1457.03125,
      "v": 74
    },
    {
      "midi": 59,
      "hit": false,
      "t": 28531.25,
      "d": 820.3125,
      "v": 92
    },
    {
      "midi": 64,
      "hit": false,
      "t": 28531.25,
      "d": 820.3125,
      "v": 85
    },
    {
      "midi": 55,
      "hit": false,
      "t": 29031.25,
      "d": 367.1875,
      "v": 90
    },
    {
      "midi": 69,
      "hit": false,
      "t": 29281.25,
      "d": 773.4375,
      "v": 92
    },
    {
      "midi": 41,
      "hit": false,
      "t": 29281.25,
      "d": 2257.8125,
      "v": 84
    },
    {
      "midi": 53,
      "hit": false,
      "t": 29781.25,
      "d": 1140.625,
      "v": 84
    },
    {
      "midi": 60,
      "hit": false,
      "t": 30031.25,
      "d": 621.09375,
      "v": 85
    },
    {
      "midi": 57,
      "hit": false,
      "t": 30031.25,
      "d": 628.90625,
      "v": 93
    },
    {
      "midi": 65,
      "hit": false,
      "t": 30031.25,
      "d": 769.53125,
      "v": 84
    },
    {
      "midi": 64,
      "hit": false,
      "t": 30781.25,
      "d": 750,
      "v": 82
    },
    {
      "midi": 60,
      "hit": false,
      "t": 30781.25,
      "d": 882.8125,
      "v": 75
    },
    {
      "midi": 57,
      "hit": false,
      "t": 30781.25,
      "d": 898.4375,
      "v": 76
    },
    {
      "midi": 62,
      "hit": false,
      "t": 31531.25,
      "d": 804.6875,
      "v": 90
    },
    {
      "midi": 43,
      "hit": false,
      "t": 31531.25,
      "d": 2265.625,
      "v": 80
    },
    {
      "midi": 55,
      "hit": false,
      "t": 32031.25,
      "d": 1742.1875,
      "v": 75
    },
    {
      "midi": 60,
      "hit": false,
      "t": 32281.25,
      "d": 742.1875,
      "v": 78
    },
    {
      "midi": 59,
      "hit": false,
      "t": 32281.25,
      "d": 921.875,
      "v": 83
    },
    {
      "midi": 62,
      "hit": false,
      "t": 33031.25,
      "d": 781.25,
      "v": 76
    },
    {
      "midi": 59,
      "hit": false,
      "t": 33531.25,
      "d": 351.5625,
      "v": 91
    },
    {
      "midi": 60,
      "hit": false,
      "t": 33781.25,
      "d": 578.125,
      "v": 78
    },
    {
      "midi": 48,
      "hit": false,
      "t": 33781.25,
      "d": 2195.3125,
      "v": 86
    },
    {
      "midi": 55,
      "hit": false,
      "t": 34281.25,
      "d": 1281.25,
      "v": 85
    },
    {
      "midi": 60,
      "hit": false,
      "t": 34531.25,
      "d": 718.75,
      "v": 88
    },
    {
      "midi": 64,
      "hit": false,
      "t": 35281.25,
      "d": 1078.125,
      "v": 76
    },
    {
      "midi": 60,
      "hit": false,
      "t": 35531.25,
      "d": 164.0625,
      "v": 83
    },
    {
      "midi": 55,
      "hit": false,
      "t": 35781.25,
      "d": 304.6875,
      "v": 86
    },
    {
      "midi": 62,
      "hit": false,
      "t": 35781.25,
      "d": 351.5625,
      "v": 93
    },
    {
      "midi": 40,
      "hit": false,
      "t": 36031.25,
      "d": 2210.9375,
      "v": 93
    },
    {
      "midi": 55,
      "hit": false,
      "t": 36531.25,
      "d": 1226.5625,
      "v": 90
    },
    {
      "midi": 59,
      "hit": false,
      "t": 36781.25,
      "d": 625,
      "v": 75
    },
    {
      "midi": 64,
      "hit": false,
      "t": 36781.25,
      "d": 625,
      "v": 75
    },
    {
      "midi": 67,
      "hit": false,
      "t": 36781.25,
      "d": 1515.625,
      "v": 85
    },
    {
      "midi": 64,
      "hit": false,
      "t": 37531.25,
      "d": 750,
      "v": 93
    },
    {
      "midi": 59,
      "hit": false,
      "t": 37531.25,
      "d": 781.25,
      "v": 76
    },
    {
      "midi": 55,
      "hit": false,
      "t": 38031.25,
      "d": 390.625,
      "v": 76
    },
    {
      "midi": 65,
      "hit": false,
      "t": 38281.25,
      "d": 726.5625,
      "v": 77
    },
    {
      "midi": 41,
      "hit": false,
      "t": 38281.25,
      "d": 2078.125,
      "v": 92
    },
    {
      "midi": 53,
      "hit": false,
      "t": 38781.25,
      "d": 2085.9375,
      "v": 93
    },
    {
      "midi": 60,
      "hit": false,
      "t": 39031.25,
      "d": 613.28125,
      "v": 75
    },
    {
      "midi": 57,
      "hit": false,
      "t": 39031.25,
      "d": 644.53125,
      "v": 86
    },
    {
      "midi": 64,
      "hit": false,
      "t": 39031.25,
      "d": 691.40625,
      "v": 83
    },
    {
      "midi": 57,
      "hit": false,
      "t": 39781.25,
      "d": 570.3125,
      "v": 75
    },
    {
      "midi": 65,
      "hit": false,
      "t": 39781.25,
      "d": 734.375,
      "v": 93
    },
    {
      "midi": 60,
      "hit": false,
      "t": 39781.25,
      "d": 1398.4375,
      "v": 74
    },
    {
      "midi": 56,
      "hit": false,
      "t": 40531.25,
      "d": 578.125,
      "v": 90
    },
    {
      "midi": 62,
      "hit": false,
      "t": 40531.25,
      "d": 1621.09375,
      "v": 84
    },
    {
      "midi": 41,
      "hit": false,
      "t": 40531.25,
      "d": 2273.4375,
      "v": 82
    },
    {
      "midi": 56,
      "hit": false,
      "t": 41281.25,
      "d": 933.59375,
      "v": 92
    },
    {
      "midi": 60,
      "hit": false,
      "t": 41281.25,
      "d": 1007.8125,
      "v": 90
    },
    {
      "midi": 53,
      "hit": false,
      "t": 42031.25,
      "d": 726.5625,
      "v": 86
    },
    {
      "midi": 65,
      "hit": false,
      "t": 42031.25,
      "d": 742.1875,
      "v": 76
    },
    {
      "midi": 56,
      "hit": false,
      "t": 42531.25,
      "d": 273.4375,
      "v": 90
    },
    {
      "midi": 60,
      "hit": false,
      "t": 42531.25,
      "d": 328.125,
      "v": 80
    },
    {
      "midi": 67,
      "hit": false,
      "t": 42781.25,
      "d": 1437.5,
      "v": 84
    },
    {
      "midi": 48,
      "hit": false,
      "t": 42781.25,
      "d": 2226.5625,
      "v": 83
    },
    {
      "midi": 55,
      "hit": false,
      "t": 43281.25,
      "d": 1304.6875,
      "v": 79
    },
    {
      "midi": 64,
      "hit": false,
      "t": 43531.25,
      "d": 601.5625,
      "v": 89
    },
    {
      "midi": 60,
      "hit": false,
      "t": 43531.25,
      "d": 609.375,
      "v": 74
    },
    {
      "midi": 64,
      "hit": false,
      "t": 44281.25,
      "d": 468.75,
      "v": 85
    },
    {
      "midi": 60,
      "hit": false,
      "t": 44281.25,
      "d": 1257.8125,
      "v": 78
    },
    {
      "midi": 55,
      "hit": false,
      "t": 44781.25,
      "d": 312.5,
      "v": 75
    },
    {
      "midi": 62,
      "hit": false,
      "t": 44781.25,
      "d": 375,
      "v": 74
    },
    {
      "midi": 45,
      "hit": false,
      "t": 45031.25,
      "d": 2257.8125,
      "v": 77
    },
    {
      "midi": 57,
      "hit": false,
      "t": 45531.25,
      "d": 1890.625,
      "v": 78
    },
    {
      "midi": 60,
      "hit": false,
      "t": 45781.25,
      "d": 19.53125,
      "v": 74
    },
    {
      "midi": 64,
      "hit": false,
      "t": 45781.25,
      "d": 640.625,
      "v": 90
    },
    {
      "midi": 62,
      "hit": false,
      "t": 45781.25,
      "d": 742.1875,
      "v": 78
    },
    {
      "midi": 64,
      "hit": false,
      "t": 46531.25,
      "d": 781.25,
      "v": 75
    },
    {
      "midi": 60,
      "hit": false,
      "t": 46531.25,
      "d": 1148.4375,
      "v": 80
    },
    {
      "midi": 62,
      "hit": false,
      "t": 47281.25,
      "d": 1367.1875,
      "v": 85
    },
    {
      "midi": 50,
      "hit": false,
      "t": 47281.25,
      "d": 2250,
      "v": 74
    },
    {
      "midi": 57,
      "hit": false,
      "t": 47781.25,
      "d": 1585.9375,
      "v": 85
    },
    {
      "midi": 65,
      "hit": false,
      "t": 48031.25,
      "d": 613.28125,
      "v": 74
    },
    {
      "midi": 62,
      "hit": false,
      "t": 48781.25,
      "d": 31.25,
      "v": 94
    },
    {
      "midi": 65,
      "hit": false,
      "t": 48781.25,
      "d": 507.8125,
      "v": 74
    },
    {
      "midi": 60,
      "hit": false,
      "t": 48781.25,
      "d": 750,
      "v": 93
    },
    {
      "midi": 59,
      "hit": false,
      "t": 49531.25,
      "d": 757.8125,
      "v": 88
    },
    {
      "midi": 43,
      "hit": false,
      "t": 49531.25,
      "d": 765.625,
      "v": 85
    },
    {
      "midi": 62,
      "hit": false,
      "t": 49531.25,
      "d": 2039.0625,
      "v": 75
    },
    {
      "midi": 55,
      "hit": false,
      "t": 49531.25,
      "d": 3757.8125,
      "v": 94
    },
    {
      "midi": 60,
      "hit": false,
      "t": 50281.25,
      "d": 757.8125,
      "v": 78
    },
    {
      "midi": 45,
      "hit": false,
      "t": 50281.25,
      "d": 796.875,
      "v": 85
    },
    {
      "midi": 47,
      "hit": false,
      "t": 51031.25,
      "d": 789.0625,
      "v": 78
    },
    {
      "midi": 60,
      "hit": false,
      "t": 51781.25,
      "d": 1382.8125,
      "v": 77
    },
    {
      "midi": 48,
      "hit": false,
      "t": 51781.25,
      "d": 2242.1875,
      "v": 75
    },
    {
      "midi": 64,
      "hit": false,
      "t": 52531.25,
      "d": 601.5625,
      "v": 85
    },
    {
      "midi": 60,
      "hit": false,
      "t": 53281.25,
      "d": 507.8125,
      "v": 83
    },
    {
      "midi": 64,
      "hit": false,
      "t": 53281.25,
      "d": 1320.3125,
      "v": 83
    },
    {
      "midi": 62,
      "hit": false,
      "t": 53781.25,
      "d": 343.75,
      "v": 78
    },
    {
      "midi": 55,
      "hit": false,
      "t": 53781.25,
      "d": 375,
      "v": 83
    },
    {
      "midi": 40,
      "hit": false,
      "t": 54031.25,
      "d": 2273.4375,
      "v": 93
    },
    {
      "midi": 55,
      "hit": false,
      "t": 54531.25,
      "d": 1187.5,
      "v": 84
    },
    {
      "midi": 59,
      "hit": false,
      "t": 54781.25,
      "d": 656.25,
      "v": 91
    },
    {
      "midi": 64,
      "hit": false,
      "t": 54781.25,
      "d": 695.3125,
      "v": 76
    },
    {
      "midi": 64,
      "hit": false,
      "t": 55531.25,
      "d": 804.6875,
      "v": 74
    },
    {
      "midi": 59,
      "hit": false,
      "t": 55531.25,
      "d": 812.5,
      "v": 91
    },
    {
      "midi": 55,
      "hit": false,
      "t": 56031.25,
      "d": 335.9375,
      "v": 93
    },
    {
      "midi": 65,
      "hit": false,
      "t": 56281.25,
      "d": 2210.9375,
      "v": 75
    },
    {
      "midi": 41,
      "hit": false,
      "t": 56281.25,
      "d": 2289.0625,
      "v": 84
    },
    {
      "midi": 53,
      "hit": false,
      "t": 56781.25,
      "d": 1195.3125,
      "v": 76
    },
    {
      "midi": 60,
      "hit": false,
      "t": 57031.25,
      "d": 632.8125,
      "v": 75
    },
    {
      "midi": 57,
      "hit": false,
      "t": 57031.25,
      "d": 671.875,
      "v": 83
    },
    {
      "midi": 60,
      "hit": false,
      "t": 57781.25,
      "d": 921.875,
      "v": 94
    },
    {
      "midi": 57,
      "hit": false,
      "t": 57781.25,
      "d": 945.3125,
      "v": 75
    },
    {
      "midi": 43,
      "hit": false,
      "t": 58531.25,
      "d": 2093.75,
      "v": 84
    },
    {
      "midi": 67,
      "hit": false,
      "t": 58531.25,
      "d": 2281.25,
      "v": 76
    },
    {
      "midi": 55,
      "hit": false,
      "t": 59031.25,
      "d": 1210.9375,
      "v": 79
    },
    {
      "midi": 59,
      "hit": false,
      "t": 59281.25,
      "d": 644.53125,
      "v": 83
    },
    {
      "midi": 62,
      "hit": false,
      "t": 59281.25,
      "d": 644.53125,
      "v": 83
    },
    {
      "midi": 62,
      "hit": false,
      "t": 60031.25,
      "d": 796.875,
      "v": 75
    },
    {
      "midi": 59,
      "hit": false,
      "t": 60031.25,
      "d": 804.6875,
      "v": 94
    },
    {
      "midi": 55,
      "hit": false,
      "t": 60531.25,
      "d": 421.875,
      "v": 74
    },
    {
      "midi": 60,
      "hit": false,
      "t": 60781.25,
      "d": 1328.125,
      "v": 94
    },
    {
      "midi": 48,
      "hit": false,
      "t": 60781.25,
      "d": 2257.8125,
      "v": 84
    },
    {
      "midi": 55,
      "hit": false,
      "t": 61281.25,
      "d": 1195.3125,
      "v": 84
    },
    {
      "midi": 64,
      "hit": false,
      "t": 61531.25,
      "d": 531.25,
      "v": 92
    },
    {
      "midi": 60,
      "hit": false,
      "t": 62281.25,
      "d": 351.5625,
      "v": 88
    },
    {
      "midi": 64,
      "hit": false,
      "t": 62281.25,
      "d": 882.8125,
      "v": 84
    },
    {
      "midi": 55,
      "hit": false,
      "t": 62781.25,
      "d": 343.75,
      "v": 80
    },
    {
      "midi": 62,
      "hit": false,
      "t": 62781.25,
      "d": 343.75,
      "v": 91
    },
    {
      "midi": 40,
      "hit": false,
      "t": 63031.25,
      "d": 2234.375,
      "v": 78
    },
    {
      "midi": 55,
      "hit": false,
      "t": 63531.25,
      "d": 1179.6875,
      "v": 90
    },
    {
      "midi": 64,
      "hit": false,
      "t": 63781.25,
      "d": 593.75,
      "v": 83
    },
    {
      "midi": 59,
      "hit": false,
      "t": 63781.25,
      "d": 636.71875,
      "v": 74
    },
    {
      "midi": 67,
      "hit": false,
      "t": 63781.25,
      "d": 1457.03125,
      "v": 76
    },
    {
      "midi": 59,
      "hit": false,
      "t": 64531.25,
      "d": 820.3125,
      "v": 91
    },
    {
      "midi": 64,
      "hit": false,
      "t": 64531.25,
      "d": 820.3125,
      "v": 88
    },
    {
      "midi": 55,
      "hit": false,
      "t": 65031.25,
      "d": 367.1875,
      "v": 75
    },
    {
      "midi": 69,
      "hit": false,
      "t": 65281.25,
      "d": 773.4375,
      "v": 84
    },
    {
      "midi": 41,
      "hit": false,
      "t": 65281.25,
      "d": 2257.8125,
      "v": 88
    },
    {
      "midi": 53,
      "hit": false,
      "t": 65781.25,
      "d": 1140.625,
      "v": 78
    },
    {
      "midi": 60,
      "hit": false,
      "t": 66031.25,
      "d": 621.09375,
      "v": 82
    },
    {
      "midi": 57,
      "hit": false,
      "t": 66031.25,
      "d": 628.90625,
      "v": 74
    },
    {
      "midi": 65,
      "hit": false,
      "t": 66031.25,
      "d": 769.53125,
      "v": 82
    },
    {
      "midi": 64,
      "hit": false,
      "t": 66781.25,
      "d": 750,
      "v": 76
    },
    {
      "midi": 60,
      "hit": false,
      "t": 66781.25,
      "d": 882.8125,
      "v": 83
    },
    {
      "midi": 57,
      "hit": false,
      "t": 66781.25,
      "d": 898.4375,
      "v": 76
    },
    {
      "midi": 62,
      "hit": false,
      "t": 67531.25,
      "d": 804.6875,
      "v": 80
    },
    {
      "midi": 43,
      "hit": false,
      "t": 67531.25,
      "d": 2265.625,
      "v": 85
    },
    {
      "midi": 55,
      "hit": false,
      "t": 68031.25,
      "d": 1742.1875,
      "v": 80
    },
    {
      "midi": 60,
      "hit": false,
      "t": 68281.25,
      "d": 742.1875,
      "v": 78
    },
    {
      "midi": 59,
      "hit": false,
      "t": 68281.25,
      "d": 921.875,
      "v": 94
    },
    {
      "midi": 62,
      "hit": false,
      "t": 69031.25,
      "d": 781.25,
      "v": 90
    },
    {
      "midi": 59,
      "hit": false,
      "t": 69531.25,
      "d": 351.5625,
      "v": 80
    },
    {
      "midi": 60,
      "hit": false,
      "t": 69781.25,
      "d": 578.125,
      "v": 77
    },
    {
      "midi": 48,
      "hit": false,
      "t": 69781.25,
      "d": 2195.3125,
      "v": 78
    },
    {
      "midi": 55,
      "hit": false,
      "t": 70281.25,
      "d": 1281.25,
      "v": 86
    },
    {
      "midi": 60,
      "hit": false,
      "t": 70531.25,
      "d": 718.75,
      "v": 92
    },
    {
      "midi": 64,
      "hit": false,
      "t": 71281.25,
      "d": 1078.125,
      "v": 76
    },
    {
      "midi": 60,
      "hit": false,
      "t": 71531.25,
      "d": 164.0625,
      "v": 86
    },
    {
      "midi": 55,
      "hit": false,
      "t": 71781.25,
      "d": 304.6875,
      "v": 93
    },
    {
      "midi": 62,
      "hit": false,
      "t": 71781.25,
      "d": 351.5625,
      "v": 84
    },
    {
      "midi": 40,
      "hit": false,
      "t": 72031.25,
      "d": 2210.9375,
      "v": 76
    },
    {
      "midi": 55,
      "hit": false,
      "t": 72531.25,
      "d": 1226.5625,
      "v": 84
    },
    {
      "midi": 59,
      "hit": false,
      "t": 72781.25,
      "d": 625,
      "v": 87
    },
    {
      "midi": 64,
      "hit": false,
      "t": 72781.25,
      "d": 625,
      "v": 77
    },
    {
      "midi": 67,
      "hit": false,
      "t": 72781.25,
      "d": 1515.625,
      "v": 83
    },
    {
      "midi": 64,
      "hit": false,
      "t": 73531.25,
      "d": 750,
      "v": 93
    },
    {
      "midi": 59,
      "hit": false,
      "t": 73531.25,
      "d": 781.25,
      "v": 85
    },
    {
      "midi": 55,
      "hit": false,
      "t": 74031.25,
      "d": 390.625,
      "v": 92
    },
    {
      "midi": 65,
      "hit": false,
      "t": 74281.25,
      "d": 726.5625,
      "v": 93
    },
    {
      "midi": 41,
      "hit": false,
      "t": 74281.25,
      "d": 2078.125,
      "v": 92
    },
    {
      "midi": 53,
      "hit": false,
      "t": 74781.25,
      "d": 2085.9375,
      "v": 93
    },
    {
      "midi": 60,
      "hit": false,
      "t": 75031.25,
      "d": 613.28125,
      "v": 90
    },
    {
      "midi": 57,
      "hit": false,
      "t": 75031.25,
      "d": 644.53125,
      "v": 74
    },
    {
      "midi": 64,
      "hit": false,
      "t": 75031.25,
      "d": 691.40625,
      "v": 75
    },
    {
      "midi": 57,
      "hit": false,
      "t": 75781.25,
      "d": 570.3125,
      "v": 94
    },
    {
      "midi": 65,
      "hit": false,
      "t": 75781.25,
      "d": 734.375,
      "v": 74
    },
    {
      "midi": 60,
      "hit": false,
      "t": 75781.25,
      "d": 1398.4375,
      "v": 78
    },
    {
      "midi": 56,
      "hit": false,
      "t": 76531.25,
      "d": 578.125,
      "v": 92
    },
    {
      "midi": 62,
      "hit": false,
      "t": 76531.25,
      "d": 1621.09375,
      "v": 80
    },
    {
      "midi": 41,
      "hit": false,
      "t": 76531.25,
      "d": 2273.4375,
      "v": 93
    },
    {
      "midi": 56,
      "hit": false,
      "t": 77281.25,
      "d": 933.59375,
      "v": 75
    },
    {
      "midi": 60,
      "hit": false,
      "t": 77281.25,
      "d": 1007.8125,
      "v": 94
    },
    {
      "midi": 53,
      "hit": false,
      "t": 78031.25,
      "d": 726.5625,
      "v": 75
    },
    {
      "midi": 65,
      "hit": false,
      "t": 78031.25,
      "d": 742.1875,
      "v": 83
    },
    {
      "midi": 56,
      "hit": false,
      "t": 78531.25,
      "d": 273.4375,
      "v": 74
    },
    {
      "midi": 60,
      "hit": false,
      "t": 78531.25,
      "d": 328.125,
      "v": 83
    },
    {
      "midi": 67,
      "hit": false,
      "t": 78781.25,
      "d": 1437.5,
      "v": 92
    },
    {
      "midi": 48,
      "hit": false,
      "t": 78781.25,
      "d": 2226.5625,
      "v": 79
    },
    {
      "midi": 55,
      "hit": false,
      "t": 79281.25,
      "d": 1304.6875,
      "v": 83
    },
    {
      "midi": 64,
      "hit": false,
      "t": 79531.25,
      "d": 601.5625,
      "v": 75
    },
    {
      "midi": 60,
      "hit": false,
      "t": 79531.25,
      "d": 609.375,
      "v": 92
    },
    {
      "midi": 64,
      "hit": false,
      "t": 80281.25,
      "d": 468.75,
      "v": 85
    },
    {
      "midi": 60,
      "hit": false,
      "t": 80281.25,
      "d": 1257.8125,
      "v": 85
    },
    {
      "midi": 55,
      "hit": false,
      "t": 80781.25,
      "d": 312.5,
      "v": 82
    },
    {
      "midi": 62,
      "hit": false,
      "t": 80781.25,
      "d": 375,
      "v": 78
    },
    {
      "midi": 45,
      "hit": false,
      "t": 81031.25,
      "d": 2257.8125,
      "v": 85
    },
    {
      "midi": 57,
      "hit": false,
      "t": 81531.25,
      "d": 1890.625,
      "v": 93
    },
    {
      "midi": 60,
      "hit": false,
      "t": 81781.25,
      "d": 19.53125,
      "v": 90
    },
    {
      "midi": 64,
      "hit": false,
      "t": 81781.25,
      "d": 640.625,
      "v": 87
    },
    {
      "midi": 62,
      "hit": false,
      "t": 81781.25,
      "d": 742.1875,
      "v": 87
    },
    {
      "midi": 64,
      "hit": false,
      "t": 82531.25,
      "d": 781.25,
      "v": 74
    },
    {
      "midi": 60,
      "hit": false,
      "t": 82531.25,
      "d": 1148.4375,
      "v": 75
    },
    {
      "midi": 62,
      "hit": false,
      "t": 83281.25,
      "d": 1367.1875,
      "v": 85
    },
    {
      "midi": 50,
      "hit": false,
      "t": 83281.25,
      "d": 2296.875,
      "v": 81
    },
    {
      "midi": 57,
      "hit": false,
      "t": 83781.25,
      "d": 1585.9375,
      "v": 86
    },
    {
      "midi": 65,
      "hit": false,
      "t": 84031.25,
      "d": 613.28125,
      "v": 87
    },
    {
      "midi": 62,
      "hit": false,
      "t": 84781.25,
      "d": 31.25,
      "v": 93
    },
    {
      "midi": 65,
      "hit": false,
      "t": 84781.25,
      "d": 507.8125,
      "v": 78
    },
    {
      "midi": 60,
      "hit": false,
      "t": 84781.25,
      "d": 835.9375,
      "v": 91
    },
    {
      "midi": 59,
      "hit": false,
      "t": 85531.25,
      "d": 820.3125,
      "v": 85
    },
    {
      "midi": 43,
      "hit": false,
      "t": 85531.25,
      "d": 2234.375,
      "v": 94
    },
    {
      "midi": 55,
      "hit": false,
      "t": 86031.25,
      "d": 1101.5625,
      "v": 74
    },
    {
      "midi": 60,
      "hit": false,
      "t": 86281.25,
      "d": 789.0625,
      "v": 76
    },
    {
      "midi": 62,
      "hit": false,
      "t": 86781.25,
      "d": 1242.1875,
      "v": 92
    },
    {
      "midi": 64,
      "hit": false,
      "t": 87031.25,
      "d": 445.3125,
      "v": 85
    },
    {
      "midi": 59,
      "hit": false,
      "t": 87031.25,
      "d": 875,
      "v": 90
    },
    {
      "midi": 55,
      "hit": false,
      "t": 87531.25,
      "d": 445.3125,
      "v": 89
    },
    {
      "midi": 41,
      "hit": false,
      "t": 87781.25,
      "d": 2265.625,
      "v": 84
    },
    {
      "midi": 65,
      "hit": false,
      "t": 88031.25,
      "d": 367.1875,
      "v": 75
    },
    {
      "midi": 53,
      "hit": false,
      "t": 88281.25,
      "d": 1164.0625,
      "v": 78
    },
    {
      "midi": 57,
      "hit": false,
      "t": 88531.25,
      "d": 585.9375,
      "v": 81
    },
    {
      "midi": 60,
      "hit": false,
      "t": 88531.25,
      "d": 1609.375,
      "v": 74
    },
    {
      "midi": 57,
      "hit": false,
      "t": 89281.25,
      "d": 890.625,
      "v": 84
    },
    {
      "midi": 53,
      "hit": false,
      "t": 89781.25,
      "d": 335.9375,
      "v": 83
    },
    {
      "midi": 43,
      "hit": false,
      "t": 90031.25,
      "d": 2289.0625,
      "v": 75
    },
    {
      "midi": 55,
      "hit": false,
      "t": 90531.25,
      "d": 1257.8125,
      "v": 94
    },
    {
      "midi": 59,
      "hit": false,
      "t": 90781.25,
      "d": 566.40625,
      "v": 88
    },
    {
      "midi": 62,
      "hit": false,
      "t": 90781.25,
      "d": 636.71875,
      "v": 75
    },
    {
      "midi": 59,
      "hit": false,
      "t": 91531.25,
      "d": 812.5,
      "v": 93
    },
    {
      "midi": 62,
      "hit": false,
      "t": 91531.25,
      "d": 851.5625,
      "v": 85
    },
    {
      "midi": 55,
      "hit": false,
      "t": 92031.25,
      "d": 343.75,
      "v": 75
    },
    {
      "midi": 40,
      "hit": false,
      "t": 92281.25,
      "d": 2039.0625,
      "v": 77
    },
    {
      "midi": 64,
      "hit": false,
      "t": 92281.25,
      "d": 2726.5625,
      "v": 85
    },
    {
      "midi": 50,
      "hit": false,
      "t": 92781.25,
      "d": 171.875,
      "v": 78
    },
    {
      "midi": 52,
      "hit": false,
      "t": 92781.25,
      "d": 1242.1875,
      "v": 92
    },
    {
      "midi": 55,
      "hit": false,
      "t": 93031.25,
      "d": 593.75,
      "v": 87
    },
    {
      "midi": 59,
      "hit": false,
      "t": 93031.25,
      "d": 1898.4375,
      "v": 80
    },
    {
      "midi": 55,
      "hit": false,
      "t": 93781.25,
      "d": 1023.4375,
      "v": 77
    },
    {
      "midi": 52,
      "hit": false,
      "t": 94281.25,
      "d": 320.3125,
      "v": 74
    },
    {
      "midi": 40,
      "hit": false,
      "t": 94531.25,
      "d": 2304.6875,
      "v": 93
    },
    {
      "midi": 52,
      "hit": false,
      "t": 94781.25,
      "d": 1359.375,
      "v": 78
    },
    {
      "midi": 67,
      "hit": false,
      "t": 94781.25,
      "d": 1359.375,
      "v": 86
    },
    {
      "midi": 55,
      "hit": false,
      "t": 95031.25,
      "d": 312.5,
      "v": 83
    },
    {
      "midi": 59,
      "hit": false,
      "t": 95281.25,
      "d": 1664.0625,
      "v": 83
    },
    {
      "midi": 64,
      "hit": false,
      "t": 96031.25,
      "d": 476.5625,
      "v": 84
    },
    {
      "midi": 55,
      "hit": false,
      "t": 96031.25,
      "d": 875,
      "v": 84
    },
    {
      "midi": 67,
      "hit": false,
      "t": 96531.25,
      "d": 320.3125,
      "v": 84
    },
    {
      "midi": 52,
      "hit": false,
      "t": 96531.25,
      "d": 335.9375,
      "v": 75
    },
    {
      "midi": 65,
      "hit": false,
      "t": 96781.25,
      "d": 1523.4375,
      "v": 82
    },
    {
      "midi": 41,
      "hit": false,
      "t": 96781.25,
      "d": 2218.75,
      "v": 84
    },
    {
      "midi": 60,
      "hit": false,
      "t": 97281.25,
      "d": 85.9375,
      "v": 93
    },
    {
      "midi": 53,
      "hit": false,
      "t": 97281.25,
      "d": 1132.8125,
      "v": 77
    },
    {
      "midi": 57,
      "hit": false,
      "t": 97531.25,
      "d": 617.1875,
      "v": 89
    },
    {
      "midi": 60,
      "hit": false,
      "t": 97531.25,
      "d": 1617.1875,
      "v": 78
    },
    {
      "midi": 69,
      "hit": false,
      "t": 98281.25,
      "d": 734.375,
      "v": 75
    },
    {
      "midi": 57,
      "hit": false,
      "t": 98281.25,
      "d": 937.5,
      "v": 78
    },
    {
      "midi": 53,
      "hit": false,
      "t": 98781.25,
      "d": 375,
      "v": 91
    },
    {
      "midi": 67,
      "hit": false,
      "t": 99031.25,
      "d": 2046.875,
      "v": 78
    },
    {
      "midi": 43,
      "hit": false,
      "t": 99031.25,
      "d": 2234.375,
      "v": 94
    },
    {
      "midi": 55,
      "hit": false,
      "t": 99531.25,
      "d": 1132.8125,
      "v": 76
    },
    {
      "midi": 59,
      "hit": false,
      "t": 99781.25,
      "d": 593.75,
      "v": 85
    },
    {
      "midi": 62,
      "hit": false,
      "t": 99781.25,
      "d": 609.375,
      "v": 84
    },
    {
      "midi": 59,
      "hit": false,
      "t": 100531.25,
      "d": 757.8125,
      "v": 89
    },
    {
      "midi": 62,
      "hit": false,
      "t": 100531.25,
      "d": 812.5,
      "v": 90
    },
    {
      "midi": 65,
      "hit": false,
      "t": 101031.25,
      "d": 328.125,
      "v": 75
    },
    {
      "midi": 55,
      "hit": false,
      "t": 101031.25,
      "d": 351.5625,
      "v": 93
    },
    {
      "midi": 40,
      "hit": false,
      "t": 101281.25,
      "d": 2007.8125,
      "v": 85
    },
    {
      "midi": 64,
      "hit": false,
      "t": 101281.25,
      "d": 3210.9375,
      "v": 76
    },
    {
      "midi": 52,
      "hit": false,
      "t": 101781.25,
      "d": 1187.5,
      "v": 78
    },
    {
      "midi": 55,
      "hit": false,
      "t": 102031.25,
      "d": 562.5,
      "v": 92
    },
    {
      "midi": 59,
      "hit": false,
      "t": 102031.25,
      "d": 597.65625,
      "v": 83
    },
    {
      "midi": 55,
      "hit": false,
      "t": 102781.25,
      "d": 1343.75,
      "v": 86
    },
    {
      "midi": 59,
      "hit": false,
      "t": 102781.25,
      "d": 1398.4375,
      "v": 76
    },
    {
      "midi": 52,
      "hit": false,
      "t": 103281.25,
      "d": 367.1875,
      "v": 83
    },
    {
      "midi": 67,
      "hit": false,
      "t": 103531.25,
      "d": 820.3125,
      "v": 76
    },
    {
      "midi": 40,
      "hit": false,
      "t": 103531.25,
      "d": 2289.0625,
      "v": 84
    },
    {
      "midi": 52,
      "hit": false,
      "t": 104031.25,
      "d": 1148.4375,
      "v": 89
    },
    {
      "midi": 55,
      "hit": false,
      "t": 104281.25,
      "d": 523.4375,
      "v": 81
    },
    {
      "midi": 71,
      "hit": false,
      "t": 104281.25,
      "d": 753.90625,
      "v": 91
    },
    {
      "midi": 59,
      "hit": false,
      "t": 104281.25,
      "d": 1664.0625,
      "v": 82
    },
    {
      "midi": 67,
      "hit": false,
      "t": 105031.25,
      "d": 773.4375,
      "v": 75
    },
    {
      "midi": 55,
      "hit": false,
      "t": 105031.25,
      "d": 875,
      "v": 83
    },
    {
      "midi": 52,
      "hit": false,
      "t": 105531.25,
      "d": 328.125,
      "v": 94
    },
    {
      "midi": 41,
      "hit": false,
      "t": 105781.25,
      "d": 2296.875,
      "v": 84
    },
    {
      "midi": 65,
      "hit": false,
      "t": 105781.25,
      "d": 2367.1875,
      "v": 92
    },
    {
      "midi": 53,
      "hit": false,
      "t": 106281.25,
      "d": 867.1875,
      "v": 84
    },
    {
      "midi": 57,
      "hit": false,
      "t": 106531.25,
      "d": 640.625,
      "v": 83
    },
    {
      "midi": 60,
      "hit": false,
      "t": 106531.25,
      "d": 1703.125,
      "v": 88
    },
    {
      "midi": 53,
      "hit": false,
      "t": 107281.25,
      "d": 304.6875,
      "v": 76
    },
    {
      "midi": 57,
      "hit": false,
      "t": 107281.25,
      "d": 960.9375,
      "v": 94
    },
    {
      "midi": 53,
      "hit": false,
      "t": 107781.25,
      "d": 375,
      "v": 83
    },
    {
      "midi": 67,
      "hit": false,
      "t": 108031.25,
      "d": 1046.875,
      "v": 77
    },
    {
      "midi": 43,
      "hit": false,
      "t": 108031.25,
      "d": 2257.8125,
      "v": 74
    },
    {
      "midi": 55,
      "hit": false,
      "t": 108531.25,
      "d": 1195.3125,
      "v": 84
    },
    {
      "midi": 59,
      "hit": false,
      "t": 108781.25,
      "d": 535.15625,
      "v": 81
    },
    {
      "midi": 62,
      "hit": false,
      "t": 108781.25,
      "d": 648.4375,
      "v": 86
    },
    {
      "midi": 67,
      "hit": false,
      "t": 109531.25,
      "d": 453.125,
      "v": 82
    },
    {
      "midi": 59,
      "hit": false,
      "t": 109531.25,
      "d": 765.625,
      "v": 94
    },
    {
      "midi": 62,
      "hit": false,
      "t": 109531.25,
      "d": 773.4375,
      "v": 91
    },
    {
      "midi": 55,
      "hit": false,
      "t": 110031.25,
      "d": 320.3125,
      "v": 78
    },
    {
      "midi": 65,
      "hit": false,
      "t": 110031.25,
      "d": 359.375,
      "v": 91
    },
    {
      "midi": 64,
      "hit": false,
      "t": 110281.25,
      "d": 1484.375,
      "v": 85
    },
    {
      "midi": 40,
      "hit": false,
      "t": 110281.25,
      "d": 2210.9375,
      "v": 85
    },
    {
      "midi": 52,
      "hit": false,
      "t": 110781.25,
      "d": 1132.8125,
      "v": 83
    },
    {
      "midi": 55,
      "hit": false,
      "t": 111031.25,
      "d": 585.9375,
      "v": 83
    },
    {
      "midi": 59,
      "hit": false,
      "t": 111031.25,
      "d": 1546.875,
      "v": 84
    },
    {
      "midi": 67,
      "hit": false,
      "t": 111781.25,
      "d": 710.9375,
      "v": 93
    },
    {
      "midi": 55,
      "hit": false,
      "t": 111781.25,
      "d": 789.0625,
      "v": 80
    },
    {
      "midi": 52,
      "hit": false,
      "t": 112281.25,
      "d": 476.5625,
      "v": 84
    },
    {
      "midi": 69,
      "hit": false,
      "t": 112539.0625,
      "d": 2234.375,
      "v": 92
    },
    {
      "midi": 45,
      "hit": false,
      "t": 112539.0625,
      "d": 2312.5,
      "v": 86
    },
    {
      "midi": 52,
      "hit": false,
      "t": 113031.25,
      "d": 1132.8125,
      "v": 80
    },
    {
      "midi": 57,
      "hit": false,
      "t": 113281.25,
      "d": 531.25,
      "v": 80
    },
    {
      "midi": 60,
      "hit": false,
      "t": 113281.25,
      "d": 2015.625,
      "v": 77
    },
    {
      "midi": 57,
      "hit": false,
      "t": 114031.25,
      "d": 1156.25,
      "v": 86
    },
    {
      "midi": 52,
      "hit": false,
      "t": 114531.25,
      "d": 296.875,
      "v": 81
    },
    {
      "midi": 65,
      "hit": false,
      "t": 114781.25,
      "d": 1687.5,
      "v": 83
    },
    {
      "midi": 41,
      "hit": false,
      "t": 114781.25,
      "d": 2023.4375,
      "v": 78
    },
    {
      "midi": 53,
      "hit": false,
      "t": 115281.25,
      "d": 1031.25,
      "v": 81
    },
    {
      "midi": 57,
      "hit": false,
      "t": 115531.25,
      "d": 507.8125,
      "v": 87
    },
    {
      "midi": 60,
      "hit": false,
      "t": 115531.25,
      "d": 2093.75,
      "v": 78
    },
    {
      "midi": 57,
      "hit": false,
      "t": 116281.25,
      "d": 1343.75,
      "v": 94
    },
    {
      "midi": 53,
      "hit": false,
      "t": 116781.25,
      "d": 398.4375,
      "v": 93
    },
    {
      "midi": 65,
      "hit": false,
      "t": 117031.25,
      "d": 679.6875,
      "v": 76
    },
    {
      "midi": 41,
      "hit": false,
      "t": 117031.25,
      "d": 2328.125,
      "v": 74
    },
    {
      "midi": 53,
      "hit": false,
      "t": 117531.25,
      "d": 617.1875,
      "v": 90
    },
    {
      "midi": 57,
      "hit": false,
      "t": 117781.25,
      "d": 968.75,
      "v": 90
    },
    {
      "midi": 64,
      "hit": false,
      "t": 117781.25,
      "d": 1554.6875,
      "v": 85
    },
    {
      "midi": 60,
      "hit": false,
      "t": 117781.25,
      "d": 1648.4375,
      "v": 82
    },
    {
      "midi": 53,
      "hit": false,
      "t": 118531.25,
      "d": 757.8125,
      "v": 86
    },
    {
      "midi": 57,
      "hit": false,
      "t": 119031.25,
      "d": 437.5,
      "v": 92
    },
    {
      "midi": 43,
      "hit": false,
      "t": 119281.25,
      "d": 1296.875,
      "v": 76
    },
    {
      "midi": 55,
      "hit": false,
      "t": 119781.25,
      "d": 1109.375,
      "v": 76
    },
    {
      "midi": 59,
      "hit": false,
      "t": 120031.25,
      "d": 1097.65625,
      "v": 74
    },
    {
      "midi": 62,
      "hit": false,
      "t": 120031.25,
      "d": 1121.09375,
      "v": 83
    },
    {
      "midi": 43,
      "hit": false,
      "t": 120781.25,
      "d": 2960.9375,
      "v": 85
    },
    {
      "midi": 55,
      "hit": false,
      "t": 121031.25,
      "d": 1351.5625,
      "v": 78
    },
    {
      "midi": 59,
      "hit": false,
      "t": 121281.25,
      "d": 343.75,
      "v": 93
    },
    {
      "midi": 62,
      "hit": false,
      "t": 121531.25,
      "d": 1562.5,
      "v": 90
    },
    {
      "midi": 59,
      "hit": false,
      "t": 122281.25,
      "d": 1179.6875,
      "v": 90
    },
    {
      "midi": 55,
      "hit": false,
      "t": 123031.25,
      "d": 734.375,
      "v": 89
    },
    {
      "midi": 64,
      "hit": false,
      "t": 123031.25,
      "d": 765.625,
      "v": 78
    },
    {
      "midi": 46,
      "hit": false,
      "t": 123781.25,
      "d": 1960.9375,
      "v": 87
    },
    {
      "midi": 65,
      "hit": false,
      "t": 123781.25,
      "d": 1992.1875,
      "v": 78
    },
    {
      "midi": 53,
      "hit": false,
      "t": 124281.25,
      "d": 929.6875,
      "v": 83
    },
    {
      "midi": 58,
      "hit": false,
      "t": 124531.25,
      "d": 593.75,
      "v": 84
    },
    {
      "midi": 62,
      "hit": false,
      "t": 124531.25,
      "d": 2101.5625,
      "v": 80
    },
    {
      "midi": 58,
      "hit": false,
      "t": 125281.25,
      "d": 1328.125,
      "v": 74
    },
    {
      "midi": 53,
      "hit": false,
      "t": 125781.25,
      "d": 398.4375,
      "v": 94
    },
    {
      "midi": 65,
      "hit": false,
      "t": 126031.25,
      "d": 812.5,
      "v": 90
    },
    {
      "midi": 46,
      "hit": false,
      "t": 126031.25,
      "d": 2281.25,
      "v": 85
    },
    {
      "midi": 53,
      "hit": false,
      "t": 126531.25,
      "d": 1828.125,
      "v": 76
    },
    {
      "midi": 64,
      "hit": false,
      "t": 126781.25,
      "d": 742.1875,
      "v": 78
    },
    {
      "midi": 58,
      "hit": false,
      "t": 126781.25,
      "d": 1023.4375,
      "v": 85
    },
    {
      "midi": 62,
      "hit": false,
      "t": 127531.25,
      "d": 796.875,
      "v": 93
    },
    {
      "midi": 58,
      "hit": false,
      "t": 128031.25,
      "d": 359.375,
      "v": 83
    },
    {
      "midi": 41,
      "hit": false,
      "t": 128281.25,
      "d": 2003.90625,
      "v": 78
    },
    {
      "midi": 60,
      "hit": false,
      "t": 128281.25,
      "d": 2335.9375,
      "v": 90
    },
    {
      "midi": 53,
      "hit": false,
      "t": 128781.25,
      "d": 1148.4375,
      "v": 90
    },
    {
      "midi": 57,
      "hit": false,
      "t": 129031.25,
      "d": 433.59375,
      "v": 80
    },
    {
      "midi": 57,
      "hit": false,
      "t": 129781.25,
      "d": 1304.6875,
      "v": 77
    },
    {
      "midi": 53,
      "hit": false,
      "t": 130281.25,
      "d": 382.8125,
      "v": 94
    },
    {
      "midi": 65,
      "hit": false,
      "t": 130531.25,
      "d": 765.625,
      "v": 78
    },
    {
      "midi": 41,
      "hit": false,
      "t": 130531.25,
      "d": 2265.625,
      "v": 82
    },
    {
      "midi": 53,
      "hit": false,
      "t": 131031.25,
      "d": 1664.0625,
      "v": 94
    },
    {
      "midi": 57,
      "hit": false,
      "t": 131281.25,
      "d": 714.84375,
      "v": 88
    },
    {
      "midi": 64,
      "hit": false,
      "t": 131281.25,
      "d": 761.71875,
      "v": 94
    },
    {
      "midi": 62,
      "hit": false,
      "t": 132031.25,
      "d": 460.9375,
      "v": 85
    },
    {
      "midi": 60,
      "hit": false,
      "t": 132031.25,
      "d": 859.375,
      "v": 78
    },
    {
      "midi": 57,
      "hit": false,
      "t": 132531.25,
      "d": 515.625,
      "v": 76
    },
    {
      "midi": 48,
      "hit": false,
      "t": 132781.25,
      "d": 2242.1875,
      "v": 74
    },
    {
      "midi": 55,
      "hit": false,
      "t": 133281.25,
      "d": 1257.8125,
      "v": 75
    },
    {
      "midi": 64,
      "hit": false,
      "t": 133531.25,
      "d": 609.375,
      "v": 90
    },
    {
      "midi": 60,
      "hit": false,
      "t": 133531.25,
      "d": 632.8125,
      "v": 92
    },
    {
      "midi": 60,
      "hit": false,
      "t": 134281.25,
      "d": 507.8125,
      "v": 92
    },
    {
      "midi": 64,
      "hit": false,
      "t": 134281.25,
      "d": 1320.3125,
      "v": 84
    },
    {
      "midi": 62,
      "hit": false,
      "t": 134781.25,
      "d": 343.75,
      "v": 93
    },
    {
      "midi": 55,
      "hit": false,
      "t": 134781.25,
      "d": 367.1875,
      "v": 76
    },
    {
      "midi": 40,
      "hit": false,
      "t": 135031.25,
      "d": 2273.4375,
      "v": 84
    },
    {
      "midi": 55,
      "hit": false,
      "t": 135531.25,
      "d": 1187.5,
      "v": 94
    },
    {
      "midi": 64,
      "hit": false,
      "t": 135781.25,
      "d": 125,
      "v": 87
    },
    {
      "midi": 59,
      "hit": false,
      "t": 135781.25,
      "d": 656.25,
      "v": 85
    },
    {
      "midi": 67,
      "hit": false,
      "t": 135781.25,
      "d": 1386.71875,
      "v": 77
    },
    {
      "midi": 64,
      "hit": false,
      "t": 136531.25,
      "d": 804.6875,
      "v": 81
    },
    {
      "midi": 59,
      "hit": false,
      "t": 136531.25,
      "d": 812.5,
      "v": 91
    },
    {
      "midi": 55,
      "hit": false,
      "t": 137031.25,
      "d": 335.9375,
      "v": 83
    },
    {
      "midi": 65,
      "hit": false,
      "t": 137281.25,
      "d": 757.8125,
      "v": 82
    },
    {
      "midi": 41,
      "hit": false,
      "t": 137281.25,
      "d": 2289.0625,
      "v": 90
    },
    {
      "midi": 53,
      "hit": false,
      "t": 137781.25,
      "d": 1191.40625,
      "v": 84
    },
    {
      "midi": 60,
      "hit": false,
      "t": 138031.25,
      "d": 632.8125,
      "v": 85
    },
    {
      "midi": 67,
      "hit": false,
      "t": 138031.25,
      "d": 671.875,
      "v": 84
    },
    {
      "midi": 57,
      "hit": false,
      "t": 138031.25,
      "d": 675.78125,
      "v": 90
    },
    {
      "midi": 69,
      "hit": false,
      "t": 138781.25,
      "d": 742.1875,
      "v": 74
    },
    {
      "midi": 60,
      "hit": false,
      "t": 138781.25,
      "d": 921.875,
      "v": 78
    },
    {
      "midi": 57,
      "hit": false,
      "t": 138781.25,
      "d": 945.3125,
      "v": 83
    },
    {
      "midi": 64,
      "hit": false,
      "t": 139531.25,
      "d": 1570.3125,
      "v": 86
    },
    {
      "midi": 43,
      "hit": false,
      "t": 139531.25,
      "d": 2093.75,
      "v": 76
    },
    {
      "midi": 55,
      "hit": false,
      "t": 140031.25,
      "d": 1210.9375,
      "v": 91
    },
    {
      "midi": 59,
      "hit": false,
      "t": 140281.25,
      "d": 644.53125,
      "v": 84
    },
    {
      "midi": 62,
      "hit": false,
      "t": 140281.25,
      "d": 644.53125,
      "v": 94
    },
    {
      "midi": 62,
      "hit": false,
      "t": 141031.25,
      "d": 726.5625,
      "v": 91
    },
    {
      "midi": 59,
      "hit": false,
      "t": 141031.25,
      "d": 804.6875,
      "v": 84
    },
    {
      "midi": 55,
      "hit": false,
      "t": 141531.25,
      "d": 421.875,
      "v": 81
    },
    {
      "midi": 60,
      "hit": false,
      "t": 141781.25,
      "d": 1328.125,
      "v": 83
    },
    {
      "midi": 48,
      "hit": false,
      "t": 141781.25,
      "d": 2257.8125,
      "v": 76
    },
    {
      "midi": 55,
      "hit": false,
      "t": 142281.25,
      "d": 1195.3125,
      "v": 90
    },
    {
      "midi": 64,
      "hit": false,
      "t": 142531.25,
      "d": 523.4375,
      "v": 92
    },
    {
      "midi": 60,
      "hit": false,
      "t": 143281.25,
      "d": 437.5,
      "v": 75
    },
    {
      "midi": 64,
      "hit": false,
      "t": 143281.25,
      "d": 882.8125,
      "v": 85
    },
    {
      "midi": 62,
      "hit": false,
      "t": 143781.25,
      "d": 304.6875,
      "v": 89
    },
    {
      "midi": 55,
      "hit": false,
      "t": 143781.25,
      "d": 343.75,
      "v": 75
    },
    {
      "midi": 40,
      "hit": false,
      "t": 144031.25,
      "d": 2234.375,
      "v": 76
    },
    {
      "midi": 55,
      "hit": false,
      "t": 144531.25,
      "d": 1179.6875,
      "v": 93
    },
    {
      "midi": 64,
      "hit": false,
      "t": 144781.25,
      "d": 3.90625,
      "v": 78
    },
    {
      "midi": 59,
      "hit": false,
      "t": 144781.25,
      "d": 636.71875,
      "v": 84
    },
    {
      "midi": 67,
      "hit": false,
      "t": 144781.25,
      "d": 1546.875,
      "v": 90
    },
    {
      "midi": 59,
      "hit": false,
      "t": 145531.25,
      "d": 820.3125,
      "v": 79
    },
    {
      "midi": 64,
      "hit": false,
      "t": 145531.25,
      "d": 820.3125,
      "v": 83
    },
    {
      "midi": 55,
      "hit": false,
      "t": 146031.25,
      "d": 367.1875,
      "v": 85
    },
    {
      "midi": 69,
      "hit": false,
      "t": 146281.25,
      "d": 882.8125,
      "v": 84
    },
    {
      "midi": 41,
      "hit": false,
      "t": 146281.25,
      "d": 2250,
      "v": 84
    },
    {
      "midi": 53,
      "hit": false,
      "t": 146781.25,
      "d": 1136.71875,
      "v": 83
    },
    {
      "midi": 60,
      "hit": false,
      "t": 147031.25,
      "d": 621.09375,
      "v": 86
    },
    {
      "midi": 57,
      "hit": false,
      "t": 147031.25,
      "d": 628.90625,
      "v": 75
    },
    {
      "midi": 65,
      "hit": false,
      "t": 147031.25,
      "d": 785.15625,
      "v": 80
    },
    {
      "midi": 64,
      "hit": false,
      "t": 147781.25,
      "d": 781.25,
      "v": 74
    },
    {
      "midi": 60,
      "hit": false,
      "t": 147781.25,
      "d": 882.8125,
      "v": 75
    },
    {
      "midi": 57,
      "hit": false,
      "t": 147781.25,
      "d": 898.4375,
      "v": 83
    },
    {
      "midi": 62,
      "hit": false,
      "t": 148531.25,
      "d": 765.625,
      "v": 85
    },
    {
      "midi": 43,
      "hit": false,
      "t": 148531.25,
      "d": 2265.625,
      "v": 94
    },
    {
      "midi": 55,
      "hit": false,
      "t": 149031.25,
      "d": 1742.1875,
      "v": 92
    },
    {
      "midi": 60,
      "hit": false,
      "t": 149281.25,
      "d": 796.875,
      "v": 84
    },
    {
      "midi": 59,
      "hit": false,
      "t": 149281.25,
      "d": 921.875,
      "v": 90
    },
    {
      "midi": 62,
      "hit": false,
      "t": 150031.25,
      "d": 781.25,
      "v": 74
    },
    {
      "midi": 59,
      "hit": false,
      "t": 150531.25,
      "d": 335.9375,
      "v": 86
    },
    {
      "midi": 60,
      "hit": false,
      "t": 150781.25,
      "d": 1468.75,
      "v": 80
    },
    {
      "midi": 48,
      "hit": false,
      "t": 150781.25,
      "d": 2195.3125,
      "v": 91
    },
    {
      "midi": 55,
      "hit": false,
      "t": 151281.25,
      "d": 1281.25,
      "v": 92
    },
    {
      "midi": 64,
      "hit": false,
      "t": 152281.25,
      "d": 1078.125,
      "v": 77
    },
    {
      "midi": 60,
      "hit": false,
      "t": 152531.25,
      "d": 242.1875,
      "v": 89
    },
    {
      "midi": 55,
      "hit": false,
      "t": 152781.25,
      "d": 304.6875,
      "v": 77
    },
    {
      "midi": 62,
      "hit": false,
      "t": 152781.25,
      "d": 367.1875,
      "v": 76
    },
    {
      "midi": 40,
      "hit": false,
      "t": 153031.25,
      "d": 2207.03125,
      "v": 76
    },
    {
      "midi": 55,
      "hit": false,
      "t": 153531.25,
      "d": 1226.5625,
      "v": 89
    },
    {
      "midi": 59,
      "hit": false,
      "t": 153781.25,
      "d": 625,
      "v": 84
    },
    {
      "midi": 64,
      "hit": false,
      "t": 153781.25,
      "d": 625,
      "v": 84
    },
    {
      "midi": 67,
      "hit": false,
      "t": 153781.25,
      "d": 1488.28125,
      "v": 93
    },
    {
      "midi": 64,
      "hit": false,
      "t": 154531.25,
      "d": 750,
      "v": 75
    },
    {
      "midi": 59,
      "hit": false,
      "t": 154531.25,
      "d": 781.25,
      "v": 75
    },
    {
      "midi": 55,
      "hit": false,
      "t": 155031.25,
      "d": 390.625,
      "v": 74
    },
    {
      "midi": 65,
      "hit": false,
      "t": 155281.25,
      "d": 796.875,
      "v": 80
    },
    {
      "midi": 41,
      "hit": false,
      "t": 155281.25,
      "d": 2078.125,
      "v": 90
    },
    {
      "midi": 53,
      "hit": false,
      "t": 155781.25,
      "d": 2085.9375,
      "v": 86
    },
    {
      "midi": 60,
      "hit": false,
      "t": 156031.25,
      "d": 613.28125,
      "v": 94
    },
    {
      "midi": 57,
      "hit": false,
      "t": 156031.25,
      "d": 644.53125,
      "v": 76
    },
    {
      "midi": 64,
      "hit": false,
      "t": 156031.25,
      "d": 742.1875,
      "v": 75
    },
    {
      "midi": 57,
      "hit": false,
      "t": 156781.25,
      "d": 570.3125,
      "v": 87
    },
    {
      "midi": 65,
      "hit": false,
      "t": 156781.25,
      "d": 773.4375,
      "v": 83
    },
    {
      "midi": 60,
      "hit": false,
      "t": 156781.25,
      "d": 1398.4375,
      "v": 94
    },
    {
      "midi": 56,
      "hit": false,
      "t": 157531.25,
      "d": 578.125,
      "v": 88
    },
    {
      "midi": 64,
      "hit": false,
      "t": 157531.25,
      "d": 617.1875,
      "v": 84
    },
    {
      "midi": 41,
      "hit": false,
      "t": 157531.25,
      "d": 2265.625,
      "v": 91
    },
    {
      "midi": 56,
      "hit": false,
      "t": 158281.25,
      "d": 933.59375,
      "v": 77
    },
    {
      "midi": 60,
      "hit": false,
      "t": 158281.25,
      "d": 1007.8125,
      "v": 76
    },
    {
      "midi": 53,
      "hit": false,
      "t": 159031.25,
      "d": 726.5625,
      "v": 77
    },
    {
      "midi": 62,
      "hit": false,
      "t": 159031.25,
      "d": 750,
      "v": 78
    },
    {
      "midi": 56,
      "hit": false,
      "t": 159531.25,
      "d": 257.8125,
      "v": 93
    },
    {
      "midi": 60,
      "hit": false,
      "t": 159531.25,
      "d": 328.125,
      "v": 86
    },
    {
      "midi": 67,
      "hit": false,
      "t": 159781.25,
      "d": 1335.9375,
      "v": 79
    },
    {
      "midi": 48,
      "hit": false,
      "t": 159781.25,
      "d": 2226.5625,
      "v": 75
    },
    {
      "midi": 55,
      "hit": false,
      "t": 160281.25,
      "d": 1304.6875,
      "v": 93
    },
    {
      "midi": 60,
      "hit": false,
      "t": 160531.25,
      "d": 609.375,
      "v": 94
    },
    {
      "midi": 64,
      "hit": false,
      "t": 160531.25,
      "d": 609.375,
      "v": 93
    },
    {
      "midi": 64,
      "hit": false,
      "t": 161281.25,
      "d": 398.4375,
      "v": 84
    },
    {
      "midi": 60,
      "hit": false,
      "t": 161281.25,
      "d": 1257.8125,
      "v": 92
    },
    {
      "midi": 55,
      "hit": false,
      "t": 161781.25,
      "d": 312.5,
      "v": 93
    },
    {
      "midi": 62,
      "hit": false,
      "t": 162031.25,
      "d": 906.25,
      "v": 92
    },
    {
      "midi": 45,
      "hit": false,
      "t": 162031.25,
      "d": 2257.8125,
      "v": 92
    },
    {
      "midi": 57,
      "hit": false,
      "t": 162531.25,
      "d": 1890.625,
      "v": 84
    },
    {
      "midi": 60,
      "hit": false,
      "t": 162781.25,
      "d": 609.375,
      "v": 91
    },
    {
      "midi": 64,
      "hit": false,
      "t": 162781.25,
      "d": 640.625,
      "v": 94
    },
    {
      "midi": 64,
      "hit": false,
      "t": 163531.25,
      "d": 687.5,
      "v": 77
    },
    {
      "midi": 60,
      "hit": false,
      "t": 163531.25,
      "d": 1148.4375,
      "v": 80
    },
    {
      "midi": 62,
      "hit": false,
      "t": 164281.25,
      "d": 1363.28125,
      "v": 78
    },
    {
      "midi": 50,
      "hit": false,
      "t": 164281.25,
      "d": 2289.0625,
      "v": 93
    },
    {
      "midi": 57,
      "hit": false,
      "t": 164781.25,
      "d": 1585.9375,
      "v": 76
    },
    {
      "midi": 65,
      "hit": false,
      "t": 165031.25,
      "d": 617.1875,
      "v": 90
    },
    {
      "midi": 62,
      "hit": false,
      "t": 165781.25,
      "d": 93.75,
      "v": 77
    },
    {
      "midi": 65,
      "hit": false,
      "t": 165781.25,
      "d": 500,
      "v": 93
    },
    {
      "midi": 60,
      "hit": false,
      "t": 165781.25,
      "d": 757.8125,
      "v": 85
    },
    {
      "midi": 59,
      "hit": false,
      "t": 166531.25,
      "d": 1296.875,
      "v": 78
    },
    {
      "midi": 43,
      "hit": false,
      "t": 166531.25,
      "d": 2234.375,
      "v": 82
    },
    {
      "midi": 55,
      "hit": false,
      "t": 167031.25,
      "d": 1097.65625,
      "v": 78
    },
    {
      "midi": 62,
      "hit": false,
      "t": 167781.25,
      "d": 1250,
      "v": 80
    },
    {
      "midi": 59,
      "hit": false,
      "t": 168031.25,
      "d": 875,
      "v": 82
    },
    {
      "midi": 65,
      "hit": false,
      "t": 168531.25,
      "d": 23.4375,
      "v": 78
    },
    {
      "midi": 55,
      "hit": false,
      "t": 168531.25,
      "d": 445.3125,
      "v": 81
    },
    {
      "midi": 69,
      "hit": false,
      "t": 168781.25,
      "d": 1371.09375,
      "v": 74
    },
    {
      "midi": 65,
      "hit": false,
      "t": 168781.25,
      "d": 1417.96875,
      "v": 84
    },
    {
      "midi": 41,
      "hit": false,
      "t": 168781.25,
      "d": 2265.625,
      "v": 83
    },
    {
      "midi": 53,
      "hit": false,
      "t": 169281.25,
      "d": 1164.0625,
      "v": 93
    },
    {
      "midi": 57,
      "hit": false,
      "t": 169531.25,
      "d": 585.9375,
      "v": 90
    },
    {
      "midi": 60,
      "hit": false,
      "t": 169531.25,
      "d": 1609.375,
      "v": 76
    },
    {
      "midi": 65,
      "hit": false,
      "t": 170281.25,
      "d": 484.375,
      "v": 90
    },
    {
      "midi": 69,
      "hit": false,
      "t": 170281.25,
      "d": 750,
      "v": 93
    },
    {
      "midi": 57,
      "hit": false,
      "t": 170281.25,
      "d": 890.625,
      "v": 77
    },
    {
      "midi": 53,
      "hit": false,
      "t": 170781.25,
      "d": 335.9375,
      "v": 92
    },
    {
      "midi": 71,
      "hit": false,
      "t": 171031.25,
      "d": 578.125,
      "v": 79
    },
    {
      "midi": 67,
      "hit": false,
      "t": 171031.25,
      "d": 1289.0625,
      "v": 81
    },
    {
      "midi": 43,
      "hit": false,
      "t": 171031.25,
      "d": 2289.0625,
      "v": 75
    },
    {
      "midi": 55,
      "hit": false,
      "t": 171531.25,
      "d": 1257.8125,
      "v": 82
    },
    {
      "midi": 59,
      "hit": false,
      "t": 171781.25,
      "d": 566.40625,
      "v": 83
    },
    {
      "midi": 62,
      "hit": false,
      "t": 171781.25,
      "d": 636.71875,
      "v": 93
    },
    {
      "midi": 71,
      "hit": false,
      "t": 171781.25,
      "d": 960.9375,
      "v": 76
    },
    {
      "midi": 67,
      "hit": false,
      "t": 172531.25,
      "d": 414.0625,
      "v": 84
    },
    {
      "midi": 59,
      "hit": false,
      "t": 172531.25,
      "d": 812.5,
      "v": 78
    },
    {
      "midi": 62,
      "hit": false,
      "t": 172531.25,
      "d": 851.5625,
      "v": 92
    },
    {
      "midi": 55,
      "hit": false,
      "t": 173031.25,
      "d": 343.75,
      "v": 92
    },
    {
      "midi": 40,
      "hit": false,
      "t": 173281.25,
      "d": 2039.0625,
      "v": 84
    },
    {
      "midi": 64,
      "hit": false,
      "t": 173281.25,
      "d": 2929.6875,
      "v": 84
    },
    {
      "midi": 50,
      "hit": false,
      "t": 173781.25,
      "d": 171.875,
      "v": 93
    },
    {
      "midi": 52,
      "hit": false,
      "t": 173781.25,
      "d": 1238.28125,
      "v": 90
    },
    {
      "midi": 55,
      "hit": false,
      "t": 174031.25,
      "d": 593.75,
      "v": 75
    },
    {
      "midi": 59,
      "hit": false,
      "t": 174031.25,
      "d": 1898.4375,
      "v": 83
    },
    {
      "midi": 67,
      "hit": false,
      "t": 174781.25,
      "d": 781.25,
      "v": 83
    },
    {
      "midi": 55,
      "hit": false,
      "t": 174781.25,
      "d": 1023.4375,
      "v": 79
    },
    {
      "midi": 52,
      "hit": false,
      "t": 175281.25,
      "d": 320.3125,
      "v": 81
    },
    {
      "midi": 71,
      "hit": false,
      "t": 175531.25,
      "d": 1332.03125,
      "v": 75
    },
    {
      "midi": 40,
      "hit": false,
      "t": 175531.25,
      "d": 2304.6875,
      "v": 85
    },
    {
      "midi": 52,
      "hit": false,
      "t": 175781.25,
      "d": 1359.375,
      "v": 92
    },
    {
      "midi": 55,
      "hit": false,
      "t": 176031.25,
      "d": 312.5,
      "v": 77
    },
    {
      "midi": 67,
      "hit": false,
      "t": 176281.25,
      "d": 824.21875,
      "v": 83
    },
    {
      "midi": 59,
      "hit": false,
      "t": 176281.25,
      "d": 1671.875,
      "v": 75
    },
    {
      "midi": 64,
      "hit": false,
      "t": 177031.25,
      "d": 492.1875,
      "v": 79
    },
    {
      "midi": 55,
      "hit": false,
      "t": 177031.25,
      "d": 875,
      "v": 75
    },
    {
      "midi": 67,
      "hit": false,
      "t": 177531.25,
      "d": 218.75,
      "v": 78
    },
    {
      "midi": 52,
      "hit": false,
      "t": 177531.25,
      "d": 335.9375,
      "v": 78
    },
    {
      "midi": 65,
      "hit": false,
      "t": 177781.25,
      "d": 1562.5,
      "v": 87
    },
    {
      "midi": 41,
      "hit": false,
      "t": 177781.25,
      "d": 2218.75,
      "v": 83
    },
    {
      "midi": 60,
      "hit": false,
      "t": 178281.25,
      "d": 85.9375,
      "v": 90
    },
    {
      "midi": 53,
      "hit": false,
      "t": 178281.25,
      "d": 1132.8125,
      "v": 74
    },
    {
      "midi": 57,
      "hit": false,
      "t": 178531.25,
      "d": 617.1875,
      "v": 79
    },
    {
      "midi": 60,
      "hit": false,
      "t": 178531.25,
      "d": 1617.1875,
      "v": 84
    },
    {
      "midi": 69,
      "hit": false,
      "t": 179281.25,
      "d": 539.0625,
      "v": 82
    },
    {
      "midi": 57,
      "hit": false,
      "t": 179281.25,
      "d": 937.5,
      "v": 93
    },
    {
      "midi": 53,
      "hit": false,
      "t": 179781.25,
      "d": 375,
      "v": 78
    },
    {
      "midi": 69,
      "hit": false,
      "t": 180031.25,
      "d": 718.75,
      "v": 90
    },
    {
      "midi": 43,
      "hit": false,
      "t": 180031.25,
      "d": 2230.46875,
      "v": 88
    },
    {
      "midi": 55,
      "hit": false,
      "t": 180531.25,
      "d": 1132.8125,
      "v": 91
    },
    {
      "midi": 59,
      "hit": false,
      "t": 180781.25,
      "d": 593.75,
      "v": 94
    },
    {
      "midi": 62,
      "hit": false,
      "t": 180781.25,
      "d": 609.375,
      "v": 90
    },
    {
      "midi": 67,
      "hit": false,
      "t": 180781.25,
      "d": 1238.28125,
      "v": 90
    },
    {
      "midi": 59,
      "hit": false,
      "t": 181531.25,
      "d": 765.625,
      "v": 94
    },
    {
      "midi": 62,
      "hit": false,
      "t": 181531.25,
      "d": 812.5,
      "v": 86
    },
    {
      "midi": 65,
      "hit": false,
      "t": 182031.25,
      "d": 117.1875,
      "v": 76
    },
    {
      "midi": 55,
      "hit": false,
      "t": 182031.25,
      "d": 351.5625,
      "v": 93
    },
    {
      "midi": 40,
      "hit": false,
      "t": 182281.25,
      "d": 2007.8125,
      "v": 75
    },
    {
      "midi": 64,
      "hit": false,
      "t": 182281.25,
      "d": 3796.875,
      "v": 77
    },
    {
      "midi": 52,
      "hit": false,
      "t": 182781.25,
      "d": 1187.5,
      "v": 92
    },
    {
      "midi": 55,
      "hit": false,
      "t": 183031.25,
      "d": 562.5,
      "v": 81
    },
    {
      "midi": 59,
      "hit": false,
      "t": 183031.25,
      "d": 597.65625,
      "v": 93
    },
    {
      "midi": 55,
      "hit": false,
      "t": 183781.25,
      "d": 1343.75,
      "v": 92
    },
    {
      "midi": 59,
      "hit": false,
      "t": 183781.25,
      "d": 1398.4375,
      "v": 86
    },
    {
      "midi": 52,
      "hit": false,
      "t": 184281.25,
      "d": 367.1875,
      "v": 83
    },
    {
      "midi": 67,
      "hit": false,
      "t": 184539.0625,
      "d": 750,
      "v": 74
    },
    {
      "midi": 40,
      "hit": false,
      "t": 184539.0625,
      "d": 2281.25,
      "v": 89
    },
    {
      "midi": 52,
      "hit": false,
      "t": 185031.25,
      "d": 1148.4375,
      "v": 91
    },
    {
      "midi": 55,
      "hit": false,
      "t": 185281.25,
      "d": 523.4375,
      "v": 86
    },
    {
      "midi": 71,
      "hit": false,
      "t": 185281.25,
      "d": 785.15625,
      "v": 83
    },
    {
      "midi": 59,
      "hit": false,
      "t": 185281.25,
      "d": 1664.0625,
      "v": 94
    },
    {
      "midi": 67,
      "hit": false,
      "t": 186031.25,
      "d": 703.125,
      "v": 84
    },
    {
      "midi": 55,
      "hit": false,
      "t": 186031.25,
      "d": 875,
      "v": 91
    },
    {
      "midi": 52,
      "hit": false,
      "t": 186531.25,
      "d": 328.125,
      "v": 78
    },
    {
      "midi": 69,
      "hit": false,
      "t": 186781.25,
      "d": 1296.875,
      "v": 85
    },
    {
      "midi": 65,
      "hit": false,
      "t": 186781.25,
      "d": 1492.1875,
      "v": 75
    },
    {
      "midi": 41,
      "hit": false,
      "t": 186781.25,
      "d": 2304.6875,
      "v": 74
    },
    {
      "midi": 53,
      "hit": false,
      "t": 187281.25,
      "d": 867.1875,
      "v": 78
    },
    {
      "midi": 57,
      "hit": false,
      "t": 187531.25,
      "d": 640.625,
      "v": 94
    },
    {
      "midi": 60,
      "hit": false,
      "t": 187531.25,
      "d": 1695.3125,
      "v": 90
    },
    {
      "midi": 53,
      "hit": false,
      "t": 188281.25,
      "d": 304.6875,
      "v": 76
    },
    {
      "midi": 65,
      "hit": false,
      "t": 188281.25,
      "d": 429.6875,
      "v": 87
    },
    {
      "midi": 69,
      "hit": false,
      "t": 188281.25,
      "d": 664.0625,
      "v": 76
    },
    {
      "midi": 57,
      "hit": false,
      "t": 188281.25,
      "d": 960.9375,
      "v": 75
    },
    {
      "midi": 53,
      "hit": false,
      "t": 188781.25,
      "d": 375,
      "v": 93
    },
    {
      "midi": 67,
      "hit": false,
      "t": 189031.25,
      "d": 1234.375,
      "v": 75
    },
    {
      "midi": 71,
      "hit": false,
      "t": 189031.25,
      "d": 1257.8125,
      "v": 82
    },
    {
      "midi": 43,
      "hit": false,
      "t": 189031.25,
      "d": 2257.8125,
      "v": 85
    },
    {
      "midi": 55,
      "hit": false,
      "t": 189531.25,
      "d": 1195.3125,
      "v": 82
    },
    {
      "midi": 59,
      "hit": false,
      "t": 189781.25,
      "d": 535.15625,
      "v": 89
    },
    {
      "midi": 62,
      "hit": false,
      "t": 189781.25,
      "d": 648.4375,
      "v": 75
    },
    {
      "midi": 67,
      "hit": false,
      "t": 190531.25,
      "d": 218.75,
      "v": 89
    },
    {
      "midi": 71,
      "hit": false,
      "t": 190531.25,
      "d": 492.1875,
      "v": 76
    },
    {
      "midi": 59,
      "hit": false,
      "t": 190531.25,
      "d": 765.625,
      "v": 77
    },
    {
      "midi": 62,
      "hit": false,
      "t": 190531.25,
      "d": 773.4375,
      "v": 94
    },
    {
      "midi": 55,
      "hit": false,
      "t": 191031.25,
      "d": 320.3125,
      "v": 91
    },
    {
      "midi": 40,
      "hit": false,
      "t": 191281.25,
      "d": 2210.9375,
      "v": 94
    },
    {
      "midi": 64,
      "hit": false,
      "t": 191281.25,
      "d": 2320.3125,
      "v": 74
    },
    {
      "midi": 52,
      "hit": false,
      "t": 191781.25,
      "d": 1140.625,
      "v": 88
    },
    {
      "midi": 55,
      "hit": false,
      "t": 192031.25,
      "d": 585.9375,
      "v": 92
    },
    {
      "midi": 59,
      "hit": false,
      "t": 192031.25,
      "d": 1546.875,
      "v": 82
    },
    {
      "midi": 67,
      "hit": false,
      "t": 192031.25,
      "d": 1593.75,
      "v": 91
    },
    {
      "midi": 55,
      "hit": false,
      "t": 192781.25,
      "d": 796.875,
      "v": 74
    },
    {
      "midi": 52,
      "hit": false,
      "t": 193281.25,
      "d": 476.5625,
      "v": 91
    },
    {
      "midi": 69,
      "hit": false,
      "t": 193539.0625,
      "d": 1410.15625,
      "v": 85
    },
    {
      "midi": 45,
      "hit": false,
      "t": 193539.0625,
      "d": 2320.3125,
      "v": 74
    },
    {
      "midi": 52,
      "hit": false,
      "t": 194031.25,
      "d": 1132.8125,
      "v": 87
    },
    {
      "midi": 57,
      "hit": false,
      "t": 194281.25,
      "d": 531.25,
      "v": 75
    },
    {
      "midi": 60,
      "hit": false,
      "t": 194281.25,
      "d": 2015.625,
      "v": 81
    },
    {
      "midi": 67,
      "hit": false,
      "t": 195031.25,
      "d": 773.4375,
      "v": 83
    },
    {
      "midi": 57,
      "hit": false,
      "t": 195031.25,
      "d": 1156.25,
      "v": 93
    },
    {
      "midi": 52,
      "hit": false,
      "t": 195531.25,
      "d": 289.0625,
      "v": 83
    },
    {
      "midi": 65,
      "hit": false,
      "t": 195781.25,
      "d": 1296.875,
      "v": 94
    },
    {
      "midi": 41,
      "hit": false,
      "t": 195781.25,
      "d": 2023.4375,
      "v": 94
    },
    {
      "midi": 53,
      "hit": false,
      "t": 196281.25,
      "d": 1031.25,
      "v": 92
    },
    {
      "midi": 57,
      "hit": false,
      "t": 196531.25,
      "d": 507.8125,
      "v": 84
    },
    {
      "midi": 60,
      "hit": false,
      "t": 196531.25,
      "d": 2093.75,
      "v": 84
    },
    {
      "midi": 65,
      "hit": false,
      "t": 197281.25,
      "d": 320.3125,
      "v": 74
    },
    {
      "midi": 57,
      "hit": false,
      "t": 197281.25,
      "d": 1343.75,
      "v": 88
    },
    {
      "midi": 65,
      "hit": false,
      "t": 197781.25,
      "d": 140.625,
      "v": 84
    },
    {
      "midi": 53,
      "hit": false,
      "t": 197781.25,
      "d": 398.4375,
      "v": 84
    },
    {
      "midi": 65,
      "hit": false,
      "t": 198031.25,
      "d": 707.03125,
      "v": 88
    },
    {
      "midi": 41,
      "hit": false,
      "t": 198031.25,
      "d": 2328.125,
      "v": 79
    },
    {
      "midi": 53,
      "hit": false,
      "t": 198531.25,
      "d": 617.1875,
      "v": 88
    },
    {
      "midi": 64,
      "hit": false,
      "t": 198781.25,
      "d": 835.9375,
      "v": 88
    },
    {
      "midi": 57,
      "hit": false,
      "t": 198781.25,
      "d": 968.75,
      "v": 84
    },
    {
      "midi": 60,
      "hit": false,
      "t": 198781.25,
      "d": 1531.25,
      "v": 84
    },
    {
      "midi": 53,
      "hit": false,
      "t": 199531.25,
      "d": 757.8125,
      "v": 90
    },
    {
      "midi": 57,
      "hit": false,
      "t": 200031.25,
      "d": 437.5,
      "v": 94
    },
    {
      "midi": 43,
      "hit": false,
      "t": 200281.25,
      "d": 1296.875,
      "v": 81
    },
    {
      "midi": 62,
      "hit": false,
      "t": 200281.25,
      "d": 1875,
      "v": 76
    },
    {
      "midi": 55,
      "hit": false,
      "t": 200781.25,
      "d": 1109.375,
      "v": 81
    },
    {
      "midi": 59,
      "hit": false,
      "t": 201031.25,
      "d": 1097.65625,
      "v": 92
    },
    {
      "midi": 43,
      "hit": false,
      "t": 201781.25,
      "d": 2960.9375,
      "v": 88
    },
    {
      "midi": 55,
      "hit": false,
      "t": 202031.25,
      "d": 1351.5625,
      "v": 84
    },
    {
      "midi": 59,
      "hit": false,
      "t": 202281.25,
      "d": 343.75,
      "v": 91
    },
    {
      "midi": 62,
      "hit": false,
      "t": 202531.25,
      "d": 1554.6875,
      "v": 74
    },
    {
      "midi": 59,
      "hit": false,
      "t": 203281.25,
      "d": 1179.6875,
      "v": 85
    },
    {
      "midi": 64,
      "hit": false,
      "t": 204031.25,
      "d": 726.5625,
      "v": 94
    },
    {
      "midi": 55,
      "hit": false,
      "t": 204031.25,
      "d": 734.375,
      "v": 90
    },
    {
      "midi": 65,
      "hit": false,
      "t": 204781.25,
      "d": 1375,
      "v": 76
    },
    {
      "midi": 46,
      "hit": false,
      "t": 204781.25,
      "d": 1960.9375,
      "v": 85
    },
    {
      "midi": 53,
      "hit": false,
      "t": 205281.25,
      "d": 929.6875,
      "v": 86
    },
    {
      "midi": 58,
      "hit": false,
      "t": 205531.25,
      "d": 593.75,
      "v": 90
    },
    {
      "midi": 62,
      "hit": false,
      "t": 205531.25,
      "d": 2101.5625,
      "v": 78
    },
    {
      "midi": 65,
      "hit": false,
      "t": 206281.25,
      "d": 132.8125,
      "v": 93
    },
    {
      "midi": 58,
      "hit": false,
      "t": 206281.25,
      "d": 1328.125,
      "v": 93
    },
    {
      "midi": 65,
      "hit": false,
      "t": 206781.25,
      "d": 101.5625,
      "v": 94
    },
    {
      "midi": 53,
      "hit": false,
      "t": 206781.25,
      "d": 398.4375,
      "v": 86
    },
    {
      "midi": 65,
      "hit": false,
      "t": 207031.25,
      "d": 718.75,
      "v": 85
    },
    {
      "midi": 46,
      "hit": false,
      "t": 207031.25,
      "d": 2281.25,
      "v": 86
    },
    {
      "midi": 53,
      "hit": false,
      "t": 207531.25,
      "d": 1828.125,
      "v": 92
    },
    {
      "midi": 64,
      "hit": false,
      "t": 207781.25,
      "d": 804.6875,
      "v": 75
    },
    {
      "midi": 58,
      "hit": false,
      "t": 207781.25,
      "d": 1023.4375,
      "v": 94
    },
    {
      "midi": 62,
      "hit": false,
      "t": 208531.25,
      "d": 898.4375,
      "v": 78
    },
    {
      "midi": 58,
      "hit": false,
      "t": 209031.25,
      "d": 359.375,
      "v": 93
    },
    {
      "midi": 48,
      "hit": false,
      "t": 209281.25,
      "d": 390.625,
      "v": 78
    },
    {
      "midi": 41,
      "hit": false,
      "t": 209281.25,
      "d": 2007.8125,
      "v": 85
    },
    {
      "midi": 53,
      "hit": false,
      "t": 209781.25,
      "d": 1148.4375,
      "v": 92
    },
    {
      "midi": 57,
      "hit": false,
      "t": 210031.25,
      "d": 433.59375,
      "v": 84
    },
    {
      "midi": 60,
      "hit": false,
      "t": 210031.25,
      "d": 2289.0625,
      "v": 84
    },
    {
      "midi": 57,
      "hit": false,
      "t": 210781.25,
      "d": 1304.6875,
      "v": 84
    },
    {
      "midi": 53,
      "hit": false,
      "t": 211281.25,
      "d": 382.8125,
      "v": 75
    },
    {
      "midi": 65,
      "hit": false,
      "t": 211531.25,
      "d": 742.1875,
      "v": 83
    },
    {
      "midi": 41,
      "hit": false,
      "t": 211531.25,
      "d": 2250,
      "v": 93
    },
    {
      "midi": 53,
      "hit": false,
      "t": 212031.25,
      "d": 1664.0625,
      "v": 93
    },
    {
      "midi": 57,
      "hit": false,
      "t": 212281.25,
      "d": 714.84375,
      "v": 80
    },
    {
      "midi": 64,
      "hit": false,
      "t": 212281.25,
      "d": 765.625,
      "v": 90
    },
    {
      "midi": 62,
      "hit": false,
      "t": 213031.25,
      "d": 398.4375,
      "v": 75
    },
    {
      "midi": 60,
      "hit": false,
      "t": 213031.25,
      "d": 750,
      "v": 75
    },
    {
      "midi": 57,
      "hit": false,
      "t": 213531.25,
      "d": 250,
      "v": 85
    },
    {
      "midi": 57,
      "hit": false,
      "t": 213781.25,
      "d": 265.625,
      "v": 74
    },
    {
      "midi": 48,
      "hit": false,
      "t": 213781.25,
      "d": 2242.1875,
      "v": 78
    },
    {
      "midi": 55,
      "hit": false,
      "t": 214281.25,
      "d": 1257.8125,
      "v": 87
    },
    {
      "midi": 64,
      "hit": false,
      "t": 214531.25,
      "d": 605.46875,
      "v": 93
    },
    {
      "midi": 60,
      "hit": false,
      "t": 214531.25,
      "d": 632.8125,
      "v": 76
    },
    {
      "midi": 60,
      "hit": false,
      "t": 215281.25,
      "d": 421.875,
      "v": 83
    },
    {
      "midi": 64,
      "hit": false,
      "t": 215281.25,
      "d": 1320.3125,
      "v": 74
    },
    {
      "midi": 62,
      "hit": false,
      "t": 215781.25,
      "d": 335.9375,
      "v": 81
    },
    {
      "midi": 55,
      "hit": false,
      "t": 215781.25,
      "d": 375,
      "v": 94
    },
    {
      "midi": 40,
      "hit": false,
      "t": 216031.25,
      "d": 2273.4375,
      "v": 85
    },
    {
      "midi": 55,
      "hit": false,
      "t": 216531.25,
      "d": 1187.5,
      "v": 84
    },
    {
      "midi": 59,
      "hit": false,
      "t": 216781.25,
      "d": 656.25,
      "v": 85
    },
    {
      "midi": 64,
      "hit": false,
      "t": 216781.25,
      "d": 695.3125,
      "v": 91
    },
    {
      "midi": 67,
      "hit": false,
      "t": 216781.25,
      "d": 1500,
      "v": 84
    },
    {
      "midi": 64,
      "hit": false,
      "t": 217531.25,
      "d": 804.6875,
      "v": 91
    },
    {
      "midi": 59,
      "hit": false,
      "t": 217531.25,
      "d": 812.5,
      "v": 78
    },
    {
      "midi": 55,
      "hit": false,
      "t": 218031.25,
      "d": 335.9375,
      "v": 85
    },
    {
      "midi": 65,
      "hit": false,
      "t": 218281.25,
      "d": 781.25,
      "v": 90
    },
    {
      "midi": 41,
      "hit": false,
      "t": 218281.25,
      "d": 2289.0625,
      "v": 83
    },
    {
      "midi": 53,
      "hit": false,
      "t": 218781.25,
      "d": 1195.3125,
      "v": 83
    },
    {
      "midi": 67,
      "hit": false,
      "t": 219031.25,
      "d": 605.46875,
      "v": 75
    },
    {
      "midi": 60,
      "hit": false,
      "t": 219031.25,
      "d": 632.8125,
      "v": 75
    },
    {
      "midi": 57,
      "hit": false,
      "t": 219031.25,
      "d": 675.78125,
      "v": 85
    },
    {
      "midi": 60,
      "hit": false,
      "t": 219781.25,
      "d": 921.875,
      "v": 82
    },
    {
      "midi": 57,
      "hit": false,
      "t": 219781.25,
      "d": 945.3125,
      "v": 84
    },
    {
      "midi": 69,
      "hit": false,
      "t": 219781.25,
      "d": 960.9375,
      "v": 83
    },
    {
      "midi": 64,
      "hit": false,
      "t": 220531.25,
      "d": 1453.125,
      "v": 84
    },
    {
      "midi": 43,
      "hit": false,
      "t": 220531.25,
      "d": 2093.75,
      "v": 94
    },
    {
      "midi": 55,
      "hit": false,
      "t": 221031.25,
      "d": 1210.9375,
      "v": 74
    },
    {
      "midi": 59,
      "hit": false,
      "t": 221281.25,
      "d": 644.53125,
      "v": 93
    },
    {
      "midi": 62,
      "hit": false,
      "t": 221281.25,
      "d": 644.53125,
      "v": 92
    },
    {
      "midi": 62,
      "hit": false,
      "t": 222031.25,
      "d": 796.875,
      "v": 83
    },
    {
      "midi": 59,
      "hit": false,
      "t": 222031.25,
      "d": 804.6875,
      "v": 82
    },
    {
      "midi": 55,
      "hit": false,
      "t": 222531.25,
      "d": 421.875,
      "v": 79
    },
    {
      "midi": 60,
      "hit": false,
      "t": 222781.25,
      "d": 523.4375,
      "v": 83
    },
    {
      "midi": 48,
      "hit": false,
      "t": 222781.25,
      "d": 2265.625,
      "v": 86
    },
    {
      "midi": 55,
      "hit": false,
      "t": 223281.25,
      "d": 1195.3125,
      "v": 75
    },
    {
      "midi": 64,
      "hit": false,
      "t": 223531.25,
      "d": 523.4375,
      "v": 92
    },
    {
      "midi": 60,
      "hit": false,
      "t": 223531.25,
      "d": 578.125,
      "v": 85
    },
    {
      "midi": 60,
      "hit": false,
      "t": 224281.25,
      "d": 390.625,
      "v": 93
    },
    {
      "midi": 64,
      "hit": false,
      "t": 224281.25,
      "d": 882.8125,
      "v": 76
    },
    {
      "midi": 62,
      "hit": false,
      "t": 224781.25,
      "d": 281.25,
      "v": 92
    },
    {
      "midi": 55,
      "hit": false,
      "t": 224781.25,
      "d": 343.75,
      "v": 92
    },
    {
      "midi": 40,
      "hit": false,
      "t": 225031.25,
      "d": 2234.375,
      "v": 77
    },
    {
      "midi": 55,
      "hit": false,
      "t": 225531.25,
      "d": 1179.6875,
      "v": 91
    },
    {
      "midi": 64,
      "hit": false,
      "t": 225781.25,
      "d": 593.75,
      "v": 88
    },
    {
      "midi": 59,
      "hit": false,
      "t": 225781.25,
      "d": 636.71875,
      "v": 90
    },
    {
      "midi": 67,
      "hit": false,
      "t": 225781.25,
      "d": 750,
      "v": 90
    },
    {
      "midi": 59,
      "hit": false,
      "t": 226531.25,
      "d": 820.3125,
      "v": 93
    },
    {
      "midi": 64,
      "hit": false,
      "t": 226531.25,
      "d": 820.3125,
      "v": 85
    },
    {
      "midi": 67,
      "hit": false,
      "t": 227031.25,
      "d": 304.6875,
      "v": 85
    },
    {
      "midi": 55,
      "hit": false,
      "t": 227031.25,
      "d": 367.1875,
      "v": 79
    },
    {
      "midi": 69,
      "hit": false,
      "t": 227281.25,
      "d": 675.78125,
      "v": 76
    },
    {
      "midi": 41,
      "hit": false,
      "t": 227281.25,
      "d": 2250,
      "v": 93
    },
    {
      "midi": 53,
      "hit": false,
      "t": 227781.25,
      "d": 1140.625,
      "v": 74
    },
    {
      "midi": 60,
      "hit": false,
      "t": 228031.25,
      "d": 621.09375,
      "v": 76
    },
    {
      "midi": 57,
      "hit": false,
      "t": 228031.25,
      "d": 628.90625,
      "v": 91
    },
    {
      "midi": 65,
      "hit": false,
      "t": 228031.25,
      "d": 816.40625,
      "v": 78
    },
    {
      "midi": 64,
      "hit": false,
      "t": 228781.25,
      "d": 804.6875,
      "v": 75
    },
    {
      "midi": 60,
      "hit": false,
      "t": 228781.25,
      "d": 882.8125,
      "v": 86
    },
    {
      "midi": 57,
      "hit": false,
      "t": 228781.25,
      "d": 898.4375,
      "v": 94
    },
    {
      "midi": 62,
      "hit": false,
      "t": 229531.25,
      "d": 726.5625,
      "v": 87
    },
    {
      "midi": 43,
      "hit": false,
      "t": 229531.25,
      "d": 2273.4375,
      "v": 91
    },
    {
      "midi": 55,
      "hit": false,
      "t": 230031.25,
      "d": 1742.1875,
      "v": 84
    },
    {
      "midi": 60,
      "hit": false,
      "t": 230281.25,
      "d": 750,
      "v": 84
    },
    {
      "midi": 59,
      "hit": false,
      "t": 230281.25,
      "d": 921.875,
      "v": 74
    },
    {
      "midi": 62,
      "hit": false,
      "t": 231031.25,
      "d": 781.25,
      "v": 84
    },
    {
      "midi": 59,
      "hit": false,
      "t": 231531.25,
      "d": 382.8125,
      "v": 83
    },
    {
      "midi": 60,
      "hit": false,
      "t": 231781.25,
      "d": 531.25,
      "v": 78
    },
    {
      "midi": 48,
      "hit": false,
      "t": 231781.25,
      "d": 2195.3125,
      "v": 85
    },
    {
      "midi": 55,
      "hit": false,
      "t": 232281.25,
      "d": 1281.25,
      "v": 76
    },
    {
      "midi": 60,
      "hit": false,
      "t": 232531.25,
      "d": 726.5625,
      "v": 87
    },
    {
      "midi": 64,
      "hit": false,
      "t": 233281.25,
      "d": 1078.125,
      "v": 74
    },
    {
      "midi": 60,
      "hit": false,
      "t": 233531.25,
      "d": 195.3125,
      "v": 88
    },
    {
      "midi": 62,
      "hit": false,
      "t": 233781.25,
      "d": 289.0625,
      "v": 92
    },
    {
      "midi": 55,
      "hit": false,
      "t": 233781.25,
      "d": 312.5,
      "v": 84
    },
    {
      "midi": 40,
      "hit": false,
      "t": 234031.25,
      "d": 2210.9375,
      "v": 91
    },
    {
      "midi": 55,
      "hit": false,
      "t": 234531.25,
      "d": 1226.5625,
      "v": 74
    },
    {
      "midi": 59,
      "hit": false,
      "t": 234781.25,
      "d": 625,
      "v": 85
    },
    {
      "midi": 64,
      "hit": false,
      "t": 234781.25,
      "d": 625,
      "v": 80
    },
    {
      "midi": 67,
      "hit": false,
      "t": 234781.25,
      "d": 1515.625,
      "v": 82
    },
    {
      "midi": 64,
      "hit": false,
      "t": 235531.25,
      "d": 750,
      "v": 90
    },
    {
      "midi": 59,
      "hit": false,
      "t": 235531.25,
      "d": 781.25,
      "v": 79
    },
    {
      "midi": 55,
      "hit": false,
      "t": 236031.25,
      "d": 390.625,
      "v": 74
    },
    {
      "midi": 65,
      "hit": false,
      "t": 236281.25,
      "d": 820.3125,
      "v": 82
    },
    {
      "midi": 41,
      "hit": false,
      "t": 236281.25,
      "d": 2078.125,
      "v": 90
    },
    {
      "midi": 53,
      "hit": false,
      "t": 236781.25,
      "d": 2085.9375,
      "v": 92
    },
    {
      "midi": 60,
      "hit": false,
      "t": 237031.25,
      "d": 613.28125,
      "v": 75
    },
    {
      "midi": 57,
      "hit": false,
      "t": 237031.25,
      "d": 644.53125,
      "v": 91
    },
    {
      "midi": 64,
      "hit": false,
      "t": 237031.25,
      "d": 726.5625,
      "v": 93
    },
    {
      "midi": 57,
      "hit": false,
      "t": 237781.25,
      "d": 570.3125,
      "v": 92
    },
    {
      "midi": 65,
      "hit": false,
      "t": 237781.25,
      "d": 781.25,
      "v": 94
    },
    {
      "midi": 60,
      "hit": false,
      "t": 237781.25,
      "d": 1398.4375,
      "v": 84
    },
    {
      "midi": 56,
      "hit": false,
      "t": 238531.25,
      "d": 578.125,
      "v": 85
    },
    {
      "midi": 62,
      "hit": false,
      "t": 238531.25,
      "d": 1593.75,
      "v": 91
    },
    {
      "midi": 41,
      "hit": false,
      "t": 238531.25,
      "d": 2273.4375,
      "v": 78
    },
    {
      "midi": 56,
      "hit": false,
      "t": 239281.25,
      "d": 933.59375,
      "v": 83
    },
    {
      "midi": 60,
      "hit": false,
      "t": 239281.25,
      "d": 1007.8125,
      "v": 74
    },
    {
      "midi": 65,
      "hit": false,
      "t": 240031.25,
      "d": 695.3125,
      "v": 75
    },
    {
      "midi": 53,
      "hit": false,
      "t": 240031.25,
      "d": 726.5625,
      "v": 84
    },
    {
      "midi": 56,
      "hit": false,
      "t": 240531.25,
      "d": 273.4375,
      "v": 85
    },
    {
      "midi": 60,
      "hit": false,
      "t": 240531.25,
      "d": 328.125,
      "v": 74
    },
    {
      "midi": 67,
      "hit": false,
      "t": 240781.25,
      "d": 1367.1875,
      "v": 85
    },
    {
      "midi": 48,
      "hit": false,
      "t": 240781.25,
      "d": 2226.5625,
      "v": 76
    },
    {
      "midi": 55,
      "hit": false,
      "t": 241281.25,
      "d": 1304.6875,
      "v": 85
    },
    {
      "midi": 60,
      "hit": false,
      "t": 241531.25,
      "d": 609.375,
      "v": 79
    },
    {
      "midi": 64,
      "hit": false,
      "t": 241531.25,
      "d": 609.375,
      "v": 83
    },
    {
      "midi": 64,
      "hit": false,
      "t": 242281.25,
      "d": 640.625,
      "v": 87
    },
    {
      "midi": 60,
      "hit": false,
      "t": 242281.25,
      "d": 1257.8125,
      "v": 74
    },
    {
      "midi": 55,
      "hit": false,
      "t": 242781.25,
      "d": 312.5,
      "v": 94
    },
    {
      "midi": 62,
      "hit": false,
      "t": 242781.25,
      "d": 375,
      "v": 74
    },
    {
      "midi": 45,
      "hit": false,
      "t": 243031.25,
      "d": 2257.8125,
      "v": 74
    },
    {
      "midi": 57,
      "hit": false,
      "t": 243531.25,
      "d": 1890.625,
      "v": 76
    },
    {
      "midi": 60,
      "hit": false,
      "t": 243781.25,
      "d": 609.375,
      "v": 94
    },
    {
      "midi": 64,
      "hit": false,
      "t": 243781.25,
      "d": 640.625,
      "v": 83
    },
    {
      "midi": 62,
      "hit": false,
      "t": 243781.25,
      "d": 738.28125,
      "v": 87
    },
    {
      "midi": 64,
      "hit": false,
      "t": 244531.25,
      "d": 726.5625,
      "v": 84
    },
    {
      "midi": 60,
      "hit": false,
      "t": 244531.25,
      "d": 1148.4375,
      "v": 85
    },
    {
      "midi": 62,
      "hit": false,
      "t": 245281.25,
      "d": 1363.28125,
      "v": 83
    },
    {
      "midi": 50,
      "hit": false,
      "t": 245281.25,
      "d": 2296.875,
      "v": 91
    },
    {
      "midi": 57,
      "hit": false,
      "t": 245781.25,
      "d": 1585.9375,
      "v": 88
    },
    {
      "midi": 65,
      "hit": false,
      "t": 246031.25,
      "d": 613.28125,
      "v": 77
    },
    {
      "midi": 62,
      "hit": false,
      "t": 246781.25,
      "d": 476.5625,
      "v": 88
    },
    {
      "midi": 65,
      "hit": false,
      "t": 246781.25,
      "d": 507.8125,
      "v": 84
    },
    {
      "midi": 62,
      "hit": false,
      "t": 247531.25,
      "d": 3.90625,
      "v": 80
    },
    {
      "midi": 60,
      "hit": false,
      "t": 247531.25,
      "d": 359.375,
      "v": 75
    },
    {
      "midi": 43,
      "hit": false,
      "t": 247531.25,
      "d": 742.1875,
      "v": 84
    },
    {
      "midi": 59,
      "hit": false,
      "t": 247531.25,
      "d": 812.5,
      "v": 87
    },
    {
      "midi": 55,
      "hit": false,
      "t": 247531.25,
      "d": 1734.375,
      "v": 90
    },
    {
      "midi": 45,
      "hit": false,
      "t": 248281.25,
      "d": 796.875,
      "v": 92
    },
    {
      "midi": 60,
      "hit": false,
      "t": 248312.5,
      "d": 734.375,
      "v": 82
    },
    {
      "midi": 62,
      "hit": false,
      "t": 248992.1875,
      "d": 292.96875,
      "v": 75
    },
    {
      "midi": 47,
      "hit": false,
      "t": 249046.875,
      "d": 734.375,
      "v": 80
    },
    {
      "midi": 60,
      "hit": false,
      "t": 249765.625,
      "d": 2796.875,
      "v": 75
    },
    {
      "midi": 55,
      "hit": false,
      "t": 249781.25,
      "d": 2796.875,
      "v": 93
    },
    {
      "midi": 48,
      "hit": false,
      "t": 249796.875,
      "d": 2835.9375,
      "v": 90
    },
    {
      "midi": 64,
      "hit": false,
      "t": 249828.125,
      "d": 2796.875,
      "v": 87
    }
  ]
}