{
  "jsonPath": "Rock/Album Rock/The Guess Who/laughing.json",
  "path": "Rock\\Album Rock\\The Guess Who\\Laughing.mid",
  "name": "Laughing",
  "difficulty": "Advanced",
  "bpm": 79.00006978339498,
  "notes": [
    {
      "midi": 40,
      "hit": false,
      "t": 31421.099531249998,
      "d": 119.04750000000058,
      "v": 118
    },
    {
      "midi": 40,
      "hit": false,
      "t": 31592.2303125,
      "d": 223.21406249999927,
      "v": 94
    },
    {
      "midi": 40,
      "hit": false,
      "t": 31956.81328125,
      "d": 104.16656249999869,
      "v": 105
    },
    {
      "midi": 40,
      "hit": false,
      "t": 32135.384531249998,
      "d": 208.33312500000102,
      "v": 108
    },
    {
      "midi": 40,
      "hit": false,
      "t": 32492.52703125,
      "d": 104.16656249999869,
      "v": 103
    },
    {
      "midi": 40,
      "hit": false,
      "t": 32678.53875,
      "d": 223.2140625000029,
      "v": 114
    },
    {
      "midi": 40,
      "hit": false,
      "t": 33028.24078125,
      "d": 104.16656250000233,
      "v": 100
    },
    {
      "midi": 40,
      "hit": false,
      "t": 33214.2525,
      "d": 171.13078125000175,
      "v": 110
    },
    {
      "midi": 40,
      "hit": false,
      "t": 33571.395000000004,
      "d": 148.8093749999971,
      "v": 118
    },
    {
      "midi": 40,
      "hit": false,
      "t": 33906.21609375,
      "d": 163.69031250000262,
      "v": 106
    },
    {
      "midi": 64,
      "hit": false,
      "t": 34278.23953125,
      "d": 2388.390468749996,
      "v": 96
    },
    {
      "midi": 57,
      "hit": false,
      "t": 34278.23953125,
      "d": 2433.0332812499983,
      "v": 96
    },
    {
      "midi": 61,
      "hit": false,
      "t": 34278.23953125,
      "d": 2619.0449999999983,
      "v": 121
    },
    {
      "midi": 33,
      "hit": false,
      "t": 34285.68,
      "d": 2492.5570312499985,
      "v": 108
    },
    {
      "midi": 61,
      "hit": false,
      "t": 37142.82,
      "d": 2589.2831250000017,
      "v": 115
    },
    {
      "midi": 65,
      "hit": false,
      "t": 37150.26046875,
      "d": 2299.1048437499994,
      "v": 98
    },
    {
      "midi": 57,
      "hit": false,
      "t": 37150.26046875,
      "d": 2336.3071875000023,
      "v": 103
    },
    {
      "midi": 33,
      "hit": false,
      "t": 37150.26046875,
      "d": 2499.997500000005,
      "v": 98
    },
    {
      "midi": 66,
      "hit": false,
      "t": 39992.51953125,
      "d": 2284.223906250001,
      "v": 93
    },
    {
      "midi": 57,
      "hit": false,
      "t": 39992.51953125,
      "d": 2291.6643750000003,
      "v": 100
    },
    {
      "midi": 61,
      "hit": false,
      "t": 39992.51953125,
      "d": 2306.5453124999985,
      "v": 107
    },
    {
      "midi": 33,
      "hit": false,
      "t": 40007.40046875,
      "d": 2299.1048437499994,
      "v": 95
    },
    {
      "midi": 57,
      "hit": false,
      "t": 42842.2190625,
      "d": 1852.6767187500009,
      "v": 106
    },
    {
      "midi": 61,
      "hit": false,
      "t": 42842.2190625,
      "d": 1882.4385937499974,
      "v": 118
    },
    {
      "midi": 67,
      "hit": false,
      "t": 42842.2190625,
      "d": 1897.3195312499956,
      "v": 102
    },
    {
      "midi": 33,
      "hit": false,
      "t": 42842.2190625,
      "d": 2194.938281249997,
      "v": 98
    },
    {
      "midi": 66,
      "hit": false,
      "t": 45706.79953125,
      "d": 2261.9024999999965,
      "v": 109
    },
    {
      "midi": 69,
      "hit": false,
      "t": 45706.79953125,
      "d": 2261.9024999999965,
      "v": 108
    },
    {
      "midi": 73,
      "hit": false,
      "t": 45706.79953125,
      "d": 2261.9024999999965,
      "v": 107
    },
    {
      "midi": 38,
      "hit": false,
      "t": 45721.68046875,
      "d": 2328.866718749996,
      "v": 116
    },
    {
      "midi": 72,
      "hit": false,
      "t": 48571.37999999999,
      "d": 2306.5453124999985,
      "v": 103
    },
    {
      "midi": 38,
      "hit": false,
      "t": 48571.37999999999,
      "d": 2313.9857812499977,
      "v": 114
    },
    {
      "midi": 69,
      "hit": false,
      "t": 48571.37999999999,
      "d": 2321.426249999997,
      "v": 103
    },
    {
      "midi": 65,
      "hit": false,
      "t": 48571.37999999999,
      "d": 2343.747656249994,
      "v": 110
    },
    {
      "midi": 64,
      "hit": false,
      "t": 51443.40093749999,
      "d": 1696.4268749999974,
      "v": 94
    },
    {
      "midi": 68,
      "hit": false,
      "t": 51443.40093749999,
      "d": 1696.4268749999974,
      "v": 103
    },
    {
      "midi": 71,
      "hit": false,
      "t": 51443.40093749999,
      "d": 1696.4268749999974,
      "v": 101
    },
    {
      "midi": 37,
      "hit": false,
      "t": 51443.40093749999,
      "d": 1941.9623437499977,
      "v": 112
    },
    {
      "midi": 61,
      "hit": false,
      "t": 53206.792031249985,
      "d": 319.94015624999884,
      "v": 121
    },
    {
      "midi": 64,
      "hit": false,
      "t": 53563.934531249986,
      "d": 364.5829687499936,
      "v": 100
    },
    {
      "midi": 68,
      "hit": false,
      "t": 53898.75562499998,
      "d": 156.24984374999622,
      "v": 103
    },
    {
      "midi": 66,
      "hit": false,
      "t": 54270.779062499976,
      "d": 401.7853124999965,
      "v": 107
    },
    {
      "midi": 62,
      "hit": false,
      "t": 54270.779062499976,
      "d": 438.9876562499994,
      "v": 99
    },
    {
      "midi": 69,
      "hit": false,
      "t": 54270.779062499976,
      "d": 513.392343749998,
      "v": 95
    },
    {
      "midi": 69,
      "hit": false,
      "t": 54278.21953125,
      "d": 528.2732812500035,
      "v": 73
    },
    {
      "midi": 62,
      "hit": false,
      "t": 54278.21953125,
      "d": 535.7137500000026,
      "v": 87
    },
    {
      "midi": 66,
      "hit": false,
      "t": 54278.21953125,
      "d": 535.7137500000026,
      "v": 82
    },
    {
      "midi": 61,
      "hit": false,
      "t": 54813.93328125,
      "d": 171.13078125000175,
      "v": 70
    },
    {
      "midi": 64,
      "hit": false,
      "t": 54813.93328125,
      "d": 171.13078125000175,
      "v": 75
    },
    {
      "midi": 69,
      "hit": false,
      "t": 54813.93328125,
      "d": 171.13078125000175,
      "v": 61
    },
    {
      "midi": 61,
      "hit": false,
      "t": 54977.62359374997,
      "d": 416.66625000000204,
      "v": 107
    },
    {
      "midi": 69,
      "hit": false,
      "t": 54977.62359374997,
      "d": 416.66625000000204,
      "v": 92
    },
    {
      "midi": 64,
      "hit": false,
      "t": 54977.62359374997,
      "d": 438.9876562499994,
      "v": 98
    },
    {
      "midi": 61,
      "hit": false,
      "t": 54992.50453125,
      "d": 334.8210937499971,
      "v": 77
    },
    {
      "midi": 64,
      "hit": false,
      "t": 54992.50453125,
      "d": 334.8210937499971,
      "v": 77
    },
    {
      "midi": 69,
      "hit": false,
      "t": 54992.50453125,
      "d": 334.8210937499971,
      "v": 66
    },
    {
      "midi": 66,
      "hit": false,
      "t": 55699.349062499976,
      "d": 1249.9987499999988,
      "v": 99
    },
    {
      "midi": 71,
      "hit": false,
      "t": 55706.789531249975,
      "d": 1116.0703125,
      "v": 95
    },
    {
      "midi": 62,
      "hit": false,
      "t": 55706.789531249975,
      "d": 1227.6773437500015,
      "v": 92
    },
    {
      "midi": 66,
      "hit": false,
      "t": 57127.919062499976,
      "d": 468.7495312499959,
      "v": 101
    },
    {
      "midi": 62,
      "hit": false,
      "t": 57135.359531249975,
      "d": 483.6304687499942,
      "v": 96
    },
    {
      "midi": 69,
      "hit": false,
      "t": 57135.359531249975,
      "d": 595.2374999999956,
      "v": 96
    },
    {
      "midi": 69,
      "hit": false,
      "t": 57135.35953125,
      "d": 528.2732812500035,
      "v": 73
    },
    {
      "midi": 62,
      "hit": false,
      "t": 57135.35953125,
      "d": 535.7137500000026,
      "v": 88
    },
    {
      "midi": 66,
      "hit": false,
      "t": 57135.35953125,
      "d": 535.7137500000026,
      "v": 85
    },
    {
      "midi": 61,
      "hit": false,
      "t": 57671.07328125,
      "d": 171.13078125000175,
      "v": 49
    },
    {
      "midi": 64,
      "hit": false,
      "t": 57671.07328125,
      "d": 171.13078125000175,
      "v": 73
    },
    {
      "midi": 69,
      "hit": false,
      "t": 57671.07328125,
      "d": 171.13078125000175,
      "v": 59
    },
    {
      "midi": 61,
      "hit": false,
      "t": 57849.64453125,
      "d": 171.13078125000175,
      "v": 67
    },
    {
      "midi": 64,
      "hit": false,
      "t": 57849.64453125,
      "d": 171.13078125000175,
      "v": 73
    },
    {
      "midi": 69,
      "hit": false,
      "t": 57849.64453125,
      "d": 171.13078125000175,
      "v": 62
    },
    {
      "midi": 64,
      "hit": false,
      "t": 57857.08499999997,
      "d": 349.70203124999534,
      "v": 96
    },
    {
      "midi": 69,
      "hit": false,
      "t": 57857.08499999997,
      "d": 349.70203124999534,
      "v": 100
    },
    {
      "midi": 61,
      "hit": false,
      "t": 57864.52546874997,
      "d": 319.94015624999884,
      "v": 107
    },
    {
      "midi": 66,
      "hit": false,
      "t": 58563.92953124997,
      "d": 1279.7606249999953,
      "v": 107
    },
    {
      "midi": 71,
      "hit": false,
      "t": 58571.369999999966,
      "d": 1019.3442187499968,
      "v": 91
    },
    {
      "midi": 62,
      "hit": false,
      "t": 58571.369999999966,
      "d": 1108.6298437499936,
      "v": 95
    },
    {
      "midi": 61,
      "hit": false,
      "t": 59821.36875,
      "d": 171.13078125000175,
      "v": 67
    },
    {
      "midi": 64,
      "hit": false,
      "t": 59821.36875,
      "d": 171.13078125000175,
      "v": 67
    },
    {
      "midi": 52,
      "hit": false,
      "t": 59821.36875,
      "d": 178.57125000000087,
      "v": 67
    },
    {
      "midi": 66,
      "hit": false,
      "t": 59992.49953124996,
      "d": 930.05859375,
      "v": 105
    },
    {
      "midi": 62,
      "hit": false,
      "t": 59999.93999999996,
      "d": 1004.4632812499985,
      "v": 105
    },
    {
      "midi": 69,
      "hit": false,
      "t": 59999.93999999996,
      "d": 1049.1060937500006,
      "v": 92
    },
    {
      "midi": 54,
      "hit": false,
      "t": 59999.94,
      "d": 178.57125000000087,
      "v": 85
    },
    {
      "midi": 61,
      "hit": false,
      "t": 59999.94,
      "d": 178.57125000000087,
      "v": 85
    },
    {
      "midi": 64,
      "hit": false,
      "t": 59999.94,
      "d": 178.57125000000087,
      "v": 85
    },
    {
      "midi": 57,
      "hit": false,
      "t": 60178.51125,
      "d": 171.13078125000175,
      "v": 93
    },
    {
      "midi": 62,
      "hit": false,
      "t": 60178.51125,
      "d": 171.13078125000175,
      "v": 93
    },
    {
      "midi": 66,
      "hit": false,
      "t": 60178.51125,
      "d": 171.13078125000175,
      "v": 93
    },
    {
      "midi": 57,
      "hit": false,
      "t": 60357.082500000004,
      "d": 349.7020312500026,
      "v": 89
    },
    {
      "midi": 62,
      "hit": false,
      "t": 60357.082500000004,
      "d": 349.7020312500026,
      "v": 89
    },
    {
      "midi": 66,
      "hit": false,
      "t": 60357.082500000004,
      "d": 349.7020312500026,
      "v": 89
    },
    {
      "midi": 62,
      "hit": false,
      "t": 60714.225000000006,
      "d": 171.13078125000175,
      "v": 95
    },
    {
      "midi": 66,
      "hit": false,
      "t": 60714.225000000006,
      "d": 171.13078125000175,
      "v": 95
    },
    {
      "midi": 57,
      "hit": false,
      "t": 60714.225000000006,
      "d": 178.57125000000087,
      "v": 95
    },
    {
      "midi": 62,
      "hit": false,
      "t": 60892.79625000001,
      "d": 171.13078125000175,
      "v": 72
    },
    {
      "midi": 66,
      "hit": false,
      "t": 60892.79625000001,
      "d": 171.13078125000175,
      "v": 72
    },
    {
      "midi": 54,
      "hit": false,
      "t": 60892.79625000001,
      "d": 178.57125000000087,
      "v": 72
    },
    {
      "midi": 62,
      "hit": false,
      "t": 61071.36750000001,
      "d": 171.13078125000175,
      "v": 92
    },
    {
      "midi": 66,
      "hit": false,
      "t": 61071.36750000001,
      "d": 171.13078125000175,
      "v": 92
    },
    {
      "midi": 57,
      "hit": false,
      "t": 61071.36750000001,
      "d": 178.57125000000087,
      "v": 92
    },
    {
      "midi": 54,
      "hit": false,
      "t": 61249.93875000001,
      "d": 178.57125000000087,
      "v": 78
    },
    {
      "midi": 62,
      "hit": false,
      "t": 61249.93875000001,
      "d": 178.57125000000087,
      "v": 78
    },
    {
      "midi": 66,
      "hit": false,
      "t": 61249.93875000001,
      "d": 178.57125000000087,
      "v": 78
    },
    {
      "midi": 59,
      "hit": false,
      "t": 61413.62906249996,
      "d": 1034.2251562500023,
      "v": 103
    },
    {
      "midi": 68,
      "hit": false,
      "t": 61413.62906249996,
      "d": 1049.1060937500006,
      "v": 99
    },
    {
      "midi": 64,
      "hit": false,
      "t": 61413.62906249996,
      "d": 1071.427499999998,
      "v": 112
    },
    {
      "midi": 64,
      "hit": false,
      "t": 61428.51000000001,
      "d": 171.13078125000175,
      "v": 96
    },
    {
      "midi": 68,
      "hit": false,
      "t": 61428.51000000001,
      "d": 171.13078125000175,
      "v": 96
    },
    {
      "midi": 59,
      "hit": false,
      "t": 61428.51000000001,
      "d": 178.57125000000087,
      "v": 96
    },
    {
      "midi": 64,
      "hit": false,
      "t": 61607.08125000001,
      "d": 171.13078125000175,
      "v": 83
    },
    {
      "midi": 68,
      "hit": false,
      "t": 61607.08125000001,
      "d": 171.13078125000175,
      "v": 83
    },
    {
      "midi": 56,
      "hit": false,
      "t": 61607.08125000001,
      "d": 178.57125000000087,
      "v": 83
    },
    {
      "midi": 64,
      "hit": false,
      "t": 61785.65250000001,
      "d": 171.13078125000175,
      "v": 89
    },
    {
      "midi": 68,
      "hit": false,
      "t": 61785.65250000001,
      "d": 171.13078125000175,
      "v": 89
    },
    {
      "midi": 59,
      "hit": false,
      "t": 61785.65250000001,
      "d": 178.57125000000087,
      "v": 89
    },
    {
      "midi": 64,
      "hit": false,
      "t": 61964.22375000001,
      "d": 171.13078125000175,
      "v": 76
    },
    {
      "midi": 68,
      "hit": false,
      "t": 61964.22375000001,
      "d": 171.13078125000175,
      "v": 76
    },
    {
      "midi": 52,
      "hit": false,
      "t": 61964.22375000001,
      "d": 178.57125000000087,
      "v": 76
    },
    {
      "midi": 64,
      "hit": false,
      "t": 62142.79500000001,
      "d": 171.13078125000175,
      "v": 82
    },
    {
      "midi": 68,
      "hit": false,
      "t": 62142.79500000001,
      "d": 171.13078125000175,
      "v": 82
    },
    {
      "midi": 54,
      "hit": false,
      "t": 62142.79500000001,
      "d": 178.57125000000087,
      "v": 82
    },
    {
      "midi": 64,
      "hit": false,
      "t": 62321.366250000014,
      "d": 528.2732812500035,
      "v": 96
    },
    {
      "midi": 57,
      "hit": false,
      "t": 62321.366250000014,
      "d": 535.7137500000026,
      "v": 96
    },
    {
      "midi": 68,
      "hit": false,
      "t": 62321.366250000014,
      "d": 535.7137500000026,
      "v": 96
    },
    {
      "midi": 69,
      "hit": false,
      "t": 62849.63953124996,
      "d": 2061.0098437499983,
      "v": 30
    },
    {
      "midi": 61,
      "hit": false,
      "t": 62849.63953124996,
      "d": 2224.700156250001,
      "v": 107
    },
    {
      "midi": 64,
      "hit": false,
      "t": 62849.63953124996,
      "d": 2232.140625,
      "v": 103
    },
    {
      "midi": 61,
      "hit": false,
      "t": 62857.080000000016,
      "d": 535.7137500000026,
      "v": 90
    },
    {
      "midi": 64,
      "hit": false,
      "t": 62857.080000000016,
      "d": 535.7137500000026,
      "v": 90
    },
    {
      "midi": 69,
      "hit": false,
      "t": 62857.080000000016,
      "d": 535.7137500000026,
      "v": 90
    },
    {
      "midi": 59,
      "hit": false,
      "t": 63392.79375000002,
      "d": 178.57125000000087,
      "v": 80
    },
    {
      "midi": 62,
      "hit": false,
      "t": 63392.79375000002,
      "d": 178.57125000000087,
      "v": 80
    },
    {
      "midi": 66,
      "hit": false,
      "t": 63392.79375000002,
      "d": 178.57125000000087,
      "v": 80
    },
    {
      "midi": 57,
      "hit": false,
      "t": 63571.36500000002,
      "d": 535.7137500000026,
      "v": 82
    },
    {
      "midi": 61,
      "hit": false,
      "t": 63571.36500000002,
      "d": 535.7137500000026,
      "v": 82
    },
    {
      "midi": 64,
      "hit": false,
      "t": 63571.36500000002,
      "d": 535.7137500000026,
      "v": 82
    },
    {
      "midi": 54,
      "hit": false,
      "t": 64107.07875000002,
      "d": 178.57125000000087,
      "v": 79
    },
    {
      "midi": 59,
      "hit": false,
      "t": 64107.07875000002,
      "d": 178.57125000000087,
      "v": 79
    },
    {
      "midi": 62,
      "hit": false,
      "t": 64107.07875000002,
      "d": 178.57125000000087,
      "v": 79
    },
    {
      "midi": 52,
      "hit": false,
      "t": 64285.65000000002,
      "d": 1071.427499999998,
      "v": 74
    },
    {
      "midi": 57,
      "hit": false,
      "t": 64285.65000000002,
      "d": 1071.427499999998,
      "v": 74
    },
    {
      "midi": 61,
      "hit": false,
      "t": 64285.65000000002,
      "d": 1071.427499999998,
      "v": 74
    },
    {
      "midi": 66,
      "hit": false,
      "t": 65706.77953124997,
      "d": 349.70203124999534,
      "v": 115
    },
    {
      "midi": 62,
      "hit": false,
      "t": 65706.77953124997,
      "d": 394.3448437499901,
      "v": 103
    },
    {
      "midi": 69,
      "hit": false,
      "t": 65706.77953124997,
      "d": 520.8328124999971,
      "v": 102
    },
    {
      "midi": 69,
      "hit": false,
      "t": 65706.77953125002,
      "d": 528.2732812500035,
      "v": 73
    },
    {
      "midi": 62,
      "hit": false,
      "t": 65706.77953125002,
      "d": 535.7137500000099,
      "v": 80
    },
    {
      "midi": 66,
      "hit": false,
      "t": 65706.77953125002,
      "d": 535.7137500000099,
      "v": 81
    },
    {
      "midi": 61,
      "hit": false,
      "t": 66242.49328125003,
      "d": 171.13078125000175,
      "v": 56
    },
    {
      "midi": 64,
      "hit": false,
      "t": 66242.49328125003,
      "d": 171.13078125000175,
      "v": 64
    },
    {
      "midi": 69,
      "hit": false,
      "t": 66242.49328125003,
      "d": 171.13078125000175,
      "v": 57
    },
    {
      "midi": 64,
      "hit": false,
      "t": 66413.62406249996,
      "d": 379.4639062500064,
      "v": 99
    },
    {
      "midi": 61,
      "hit": false,
      "t": 66413.62406249996,
      "d": 409.2257812500029,
      "v": 109
    },
    {
      "midi": 69,
      "hit": false,
      "t": 66413.62406249996,
      "d": 416.6662500000093,
      "v": 105
    },
    {
      "midi": 61,
      "hit": false,
      "t": 66421.06453125004,
      "d": 334.8210937499971,
      "v": 77
    },
    {
      "midi": 64,
      "hit": false,
      "t": 66421.06453125004,
      "d": 334.8210937499971,
      "v": 80
    },
    {
      "midi": 69,
      "hit": false,
      "t": 66421.06453125004,
      "d": 349.70203124999534,
      "v": 65
    },
    {
      "midi": 66,
      "hit": false,
      "t": 67127.90906249997,
      "d": 1220.2368750000023,
      "v": 95
    },
    {
      "midi": 71,
      "hit": false,
      "t": 67135.34953124997,
      "d": 974.7014062499948,
      "v": 95
    },
    {
      "midi": 62,
      "hit": false,
      "t": 67135.34953124997,
      "d": 1086.308437499989,
      "v": 102
    },
    {
      "midi": 66,
      "hit": false,
      "t": 68549.03859374997,
      "d": 349.70203124999534,
      "v": 103
    },
    {
      "midi": 62,
      "hit": false,
      "t": 68549.03859374997,
      "d": 394.3448437499901,
      "v": 102
    },
    {
      "midi": 69,
      "hit": false,
      "t": 68549.03859374997,
      "d": 550.5946874999936,
      "v": 96
    },
    {
      "midi": 69,
      "hit": false,
      "t": 68563.91953125004,
      "d": 528.2732812500035,
      "v": 70
    },
    {
      "midi": 62,
      "hit": false,
      "t": 68563.91953125004,
      "d": 535.7137500000099,
      "v": 84
    },
    {
      "midi": 66,
      "hit": false,
      "t": 68563.91953125004,
      "d": 535.7137500000099,
      "v": 79
    },
    {
      "midi": 61,
      "hit": false,
      "t": 69099.63328125005,
      "d": 171.13078125000175,
      "v": 39
    },
    {
      "midi": 64,
      "hit": false,
      "t": 69099.63328125005,
      "d": 171.13078125000175,
      "v": 68
    },
    {
      "midi": 69,
      "hit": false,
      "t": 69099.63328125005,
      "d": 171.13078125000175,
      "v": 59
    },
    {
      "midi": 69,
      "hit": false,
      "t": 69255.88312499996,
      "d": 364.58296875000815,
      "v": 91
    },
    {
      "midi": 61,
      "hit": false,
      "t": 69255.88312499996,
      "d": 379.4639062500064,
      "v": 107
    },
    {
      "midi": 64,
      "hit": false,
      "t": 69263.32359374997,
      "d": 342.2615625000035,
      "v": 95
    },
    {
      "midi": 61,
      "hit": false,
      "t": 69278.20453125006,
      "d": 163.69031249999534,
      "v": 70
    },
    {
      "midi": 64,
      "hit": false,
      "t": 69278.20453125006,
      "d": 163.69031249999534,
      "v": 80
    },
    {
      "midi": 69,
      "hit": false,
      "t": 69278.20453125006,
      "d": 163.69031249999534,
      "v": 61
    },
    {
      "midi": 71,
      "hit": false,
      "t": 69992.48953124997,
      "d": 1108.6298437499936,
      "v": 95
    },
    {
      "midi": 62,
      "hit": false,
      "t": 69992.48953124997,
      "d": 1212.796406249996,
      "v": 100
    },
    {
      "midi": 66,
      "hit": false,
      "t": 69992.48953124997,
      "d": 1242.5582812499924,
      "v": 97
    },
    {
      "midi": 61,
      "hit": false,
      "t": 71249.92875000005,
      "d": 171.13078125000175,
      "v": 67
    },
    {
      "midi": 64,
      "hit": false,
      "t": 71249.92875000005,
      "d": 171.13078125000175,
      "v": 67
    },
    {
      "midi": 52,
      "hit": false,
      "t": 71249.92875000005,
      "d": 178.57125000000815,
      "v": 67
    },
    {
      "midi": 66,
      "hit": false,
      "t": 71421.05953124996,
      "d": 944.9395312500128,
      "v": 99
    },
    {
      "midi": 62,
      "hit": false,
      "t": 71428.49999999997,
      "d": 1011.9037500000122,
      "v": 103
    },
    {
      "midi": 69,
      "hit": false,
      "t": 71428.49999999997,
      "d": 1116.0703125000146,
      "v": 98
    },
    {
      "midi": 54,
      "hit": false,
      "t": 71428.50000000006,
      "d": 178.5712499999936,
      "v": 85
    },
    {
      "midi": 61,
      "hit": false,
      "t": 71428.50000000006,
      "d": 178.5712499999936,
      "v": 85
    },
    {
      "midi": 64,
      "hit": false,
      "t": 71428.50000000006,
      "d": 178.5712499999936,
      "v": 85
    },
    {
      "midi": 57,
      "hit": false,
      "t": 71607.07125000005,
      "d": 171.13078125000175,
      "v": 93
    },
    {
      "midi": 62,
      "hit": false,
      "t": 71607.07125000005,
      "d": 171.13078125000175,
      "v": 93
    },
    {
      "midi": 66,
      "hit": false,
      "t": 71607.07125000005,
      "d": 171.13078125000175,
      "v": 93
    },
    {
      "midi": 57,
      "hit": false,
      "t": 71785.64250000006,
      "d": 349.70203124999534,
      "v": 89
    },
    {
      "midi": 62,
      "hit": false,
      "t": 71785.64250000006,
      "d": 349.70203124999534,
      "v": 89
    },
    {
      "midi": 66,
      "hit": false,
      "t": 71785.64250000006,
      "d": 349.70203124999534,
      "v": 89
    },
    {
      "midi": 62,
      "hit": false,
      "t": 72142.78500000006,
      "d": 171.13078125000175,
      "v": 95
    },
    {
      "midi": 66,
      "hit": false,
      "t": 72142.78500000006,
      "d": 171.13078125000175,
      "v": 95
    },
    {
      "midi": 57,
      "hit": false,
      "t": 72142.78500000006,
      "d": 178.57125000000815,
      "v": 95
    },
    {
      "midi": 62,
      "hit": false,
      "t": 72321.35625000007,
      "d": 171.13078125000175,
      "v": 72
    },
    {
      "midi": 66,
      "hit": false,
      "t": 72321.35625000007,
      "d": 171.13078125000175,
      "v": 72
    },
    {
      "midi": 54,
      "hit": false,
      "t": 72321.35625000007,
      "d": 178.57125000000815,
      "v": 72
    },
    {
      "midi": 62,
      "hit": false,
      "t": 72499.92750000008,
      "d": 171.13078125000175,
      "v": 92
    },
    {
      "midi": 66,
      "hit": false,
      "t": 72499.92750000008,
      "d": 171.13078125000175,
      "v": 92
    },
    {
      "midi": 57,
      "hit": false,
      "t": 72499.92750000008,
      "d": 178.57125000000815,
      "v": 92
    },
    {
      "midi": 54,
      "hit": false,
      "t": 72678.49875000009,
      "d": 178.5712499999936,
      "v": 78
    },
    {
      "midi": 62,
      "hit": false,
      "t": 72678.49875000009,
      "d": 178.5712499999936,
      "v": 78
    },
    {
      "midi": 66,
      "hit": false,
      "t": 72678.49875000009,
      "d": 178.5712499999936,
      "v": 78
    },
    {
      "midi": 59,
      "hit": false,
      "t": 72849.62953124999,
      "d": 825.8920312499977,
      "v": 103
    },
    {
      "midi": 68,
      "hit": false,
      "t": 72849.62953124999,
      "d": 825.8920312499977,
      "v": 109
    },
    {
      "midi": 64,
      "hit": false,
      "t": 72849.62953124999,
      "d": 885.4157812499907,
      "v": 112
    },
    {
      "midi": 64,
      "hit": false,
      "t": 72857.07000000008,
      "d": 171.13078125000175,
      "v": 96
    },
    {
      "midi": 68,
      "hit": false,
      "t": 72857.07000000008,
      "d": 171.13078125000175,
      "v": 96
    },
    {
      "midi": 59,
      "hit": false,
      "t": 72857.07000000008,
      "d": 178.57125000000815,
      "v": 96
    },
    {
      "midi": 64,
      "hit": false,
      "t": 73035.64125000009,
      "d": 171.13078125000175,
      "v": 83
    },
    {
      "midi": 68,
      "hit": false,
      "t": 73035.64125000009,
      "d": 171.13078125000175,
      "v": 83
    },
    {
      "midi": 56,
      "hit": false,
      "t": 73035.64125000009,
      "d": 178.57125000000815,
      "v": 83
    },
    {
      "midi": 64,
      "hit": false,
      "t": 73214.2125000001,
      "d": 171.13078125000175,
      "v": 89
    },
    {
      "midi": 68,
      "hit": false,
      "t": 73214.2125000001,
      "d": 171.13078125000175,
      "v": 89
    },
    {
      "midi": 59,
      "hit": false,
      "t": 73214.2125000001,
      "d": 178.57125000000815,
      "v": 89
    },
    {
      "midi": 64,
      "hit": false,
      "t": 73392.7837500001,
      "d": 171.13078125000175,
      "v": 76
    },
    {
      "midi": 68,
      "hit": false,
      "t": 73392.7837500001,
      "d": 171.13078125000175,
      "v": 76
    },
    {
      "midi": 52,
      "hit": false,
      "t": 73392.7837500001,
      "d": 178.57125000000815,
      "v": 76
    },
    {
      "midi": 64,
      "hit": false,
      "t": 73571.35500000011,
      "d": 171.13078125000175,
      "v": 82
    },
    {
      "midi": 68,
      "hit": false,
      "t": 73571.35500000011,
      "d": 171.13078125000175,
      "v": 82
    },
    {
      "midi": 54,
      "hit": false,
      "t": 73571.35500000011,
      "d": 178.57125000000815,
      "v": 82
    },
    {
      "midi": 64,
      "hit": false,
      "t": 73749.92625000012,
      "d": 528.2732812500035,
      "v": 96
    },
    {
      "midi": 57,
      "hit": false,
      "t": 73749.92625000012,
      "d": 535.7137500000099,
      "v": 96
    },
    {
      "midi": 68,
      "hit": false,
      "t": 73749.92625000012,
      "d": 535.7137500000099,
      "v": 96
    },
    {
      "midi": 69,
      "hit": false,
      "t": 73898.73562499997,
      "d": 156.24984374998894,
      "v": 55
    },
    {
      "midi": 64,
      "hit": false,
      "t": 73913.61656249997,
      "d": 111.60703124999418,
      "v": 31
    },
    {
      "midi": 61,
      "hit": false,
      "t": 74278.19953124996,
      "d": 2142.854999999996,
      "v": 112
    },
    {
      "midi": 64,
      "hit": false,
      "t": 74278.19953124996,
      "d": 2165.1764062500006,
      "v": 108
    },
    {
      "midi": 69,
      "hit": false,
      "t": 74278.19953124996,
      "d": 2202.3787500000035,
      "v": 98
    },
    {
      "midi": 61,
      "hit": false,
      "t": 74285.64000000013,
      "d": 535.7137499999953,
      "v": 90
    },
    {
      "midi": 64,
      "hit": false,
      "t": 74285.64000000013,
      "d": 535.7137499999953,
      "v": 90
    },
    {
      "midi": 69,
      "hit": false,
      "t": 74285.64000000013,
      "d": 535.7137499999953,
      "v": 90
    },
    {
      "midi": 59,
      "hit": false,
      "t": 74821.35375000013,
      "d": 178.5712499999936,
      "v": 80
    },
    {
      "midi": 62,
      "hit": false,
      "t": 74821.35375000013,
      "d": 178.5712499999936,
      "v": 80
    },
    {
      "midi": 66,
      "hit": false,
      "t": 74821.35375000013,
      "d": 178.5712499999936,
      "v": 80
    },
    {
      "midi": 57,
      "hit": false,
      "t": 74999.92500000012,
      "d": 535.7137499999953,
      "v": 82
    },
    {
      "midi": 61,
      "hit": false,
      "t": 74999.92500000012,
      "d": 535.7137499999953,
      "v": 82
    },
    {
      "midi": 64,
      "hit": false,
      "t": 74999.92500000012,
      "d": 535.7137499999953,
      "v": 82
    },
    {
      "midi": 54,
      "hit": false,
      "t": 75535.63875000011,
      "d": 178.5712499999936,
      "v": 79
    },
    {
      "midi": 59,
      "hit": false,
      "t": 75535.63875000011,
      "d": 178.5712499999936,
      "v": 79
    },
    {
      "midi": 62,
      "hit": false,
      "t": 75535.63875000011,
      "d": 178.5712499999936,
      "v": 79
    },
    {
      "midi": 52,
      "hit": false,
      "t": 75714.21000000011,
      "d": 1071.4275000000052,
      "v": 74
    },
    {
      "midi": 57,
      "hit": false,
      "t": 75714.21000000011,
      "d": 1071.4275000000052,
      "v": 74
    },
    {
      "midi": 61,
      "hit": false,
      "t": 75714.21000000011,
      "d": 1071.4275000000052,
      "v": 74
    },
    {
      "midi": 66,
      "hit": false,
      "t": 91428.47999999997,
      "d": 2492.557031250006,
      "v": 101
    },
    {
      "midi": 69,
      "hit": false,
      "t": 91428.47999999997,
      "d": 2514.8784375000105,
      "v": 100
    },
    {
      "midi": 73,
      "hit": false,
      "t": 91428.47999999997,
      "d": 2514.8784375000105,
      "v": 87
    },
    {
      "midi": 50,
      "hit": false,
      "t": 91428.47999999997,
      "d": 2589.2831250000163,
      "v": 91
    },
    {
      "midi": 72,
      "hit": false,
      "t": 94307.94140624999,
      "d": 1852.6767187500081,
      "v": 96
    },
    {
      "midi": 69,
      "hit": false,
      "t": 94307.94140624999,
      "d": 1860.1171875000146,
      "v": 99
    },
    {
      "midi": 65,
      "hit": false,
      "t": 94307.94140624999,
      "d": 1874.9981250000274,
      "v": 91
    },
    {
      "midi": 50,
      "hit": false,
      "t": 94315.38187499999,
      "d": 1860.1171875000146,
      "v": 96
    },
    {
      "midi": 69,
      "hit": false,
      "t": 96421.03453125001,
      "d": 364.5829687499936,
      "v": 99
    },
    {
      "midi": 65,
      "hit": false,
      "t": 96421.03453125001,
      "d": 409.22578124998836,
      "v": 95
    },
    {
      "midi": 72,
      "hit": false,
      "t": 96421.03453125001,
      "d": 416.66624999999476,
      "v": 103
    },
    {
      "midi": 50,
      "hit": false,
      "t": 96421.03453125001,
      "d": 505.95187499999884,
      "v": 94
    },
    {
      "midi": 64,
      "hit": false,
      "t": 97135.31953125002,
      "d": 1882.43859374999,
      "v": 88
    },
    {
      "midi": 68,
      "hit": false,
      "t": 97135.31953125002,
      "d": 1882.43859374999,
      "v": 99
    },
    {
      "midi": 71,
      "hit": false,
      "t": 97135.31953125002,
      "d": 1882.43859374999,
      "v": 103
    },
    {
      "midi": 49,
      "hit": false,
      "t": 97150.20046875002,
      "d": 1852.6767187499936,
      "v": 107
    },
    {
      "midi": 40,
      "hit": false,
      "t": 99992.45953125,
      "d": 119.04750000000058,
      "v": 118
    },
    {
      "midi": 40,
      "hit": false,
      "t": 100163.5903125,
      "d": 223.2140625000029,
      "v": 94
    },
    {
      "midi": 40,
      "hit": false,
      "t": 100528.17328125001,
      "d": 104.16656250000233,
      "v": 105
    },
    {
      "midi": 40,
      "hit": false,
      "t": 100706.74453125002,
      "d": 208.33312500000466,
      "v": 108
    },
    {
      "midi": 40,
      "hit": false,
      "t": 101063.88703125002,
      "d": 104.16656250000233,
      "v": 103
    },
    {
      "midi": 40,
      "hit": false,
      "t": 101249.89875000002,
      "d": 223.2140625000029,
      "v": 114
    },
    {
      "midi": 40,
      "hit": false,
      "t": 101599.60078125003,
      "d": 104.16656250000233,
      "v": 100
    },
    {
      "midi": 40,
      "hit": false,
      "t": 101785.61250000003,
      "d": 171.13078125000175,
      "v": 110
    },
    {
      "midi": 40,
      "hit": false,
      "t": 102142.75500000003,
      "d": 148.8093749999971,
      "v": 118
    },
    {
      "midi": 40,
      "hit": false,
      "t": 102477.57609375003,
      "d": 163.69031249999534,
      "v": 106
    },
    {
      "midi": 64,
      "hit": false,
      "t": 102849.59953125003,
      "d": 2388.3904687500035,
      "v": 96
    },
    {
      "midi": 57,
      "hit": false,
      "t": 102849.59953125003,
      "d": 2433.0332812499983,
      "v": 96
    },
    {
      "midi": 61,
      "hit": false,
      "t": 102849.59953125003,
      "d": 2619.0449999999983,
      "v": 121
    },
    {
      "midi": 33,
      "hit": false,
      "t": 102857.04000000004,
      "d": 2492.5570312499913,
      "v": 108
    },
    {
      "midi": 61,
      "hit": false,
      "t": 105714.18000000002,
      "d": 2589.2831250000017,
      "v": 115
    },
    {
      "midi": 65,
      "hit": false,
      "t": 105721.62046875003,
      "d": 2299.1048437499994,
      "v": 98
    },
    {
      "midi": 57,
      "hit": false,
      "t": 105721.62046875003,
      "d": 2336.3071875000023,
      "v": 103
    },
    {
      "midi": 33,
      "hit": false,
      "t": 105721.62046875003,
      "d": 2499.9974999999977,
      "v": 98
    },
    {
      "midi": 66,
      "hit": false,
      "t": 108563.87953125003,
      "d": 2284.223906250001,
      "v": 93
    },
    {
      "midi": 57,
      "hit": false,
      "t": 108563.87953125003,
      "d": 2291.6643750000076,
      "v": 100
    },
    {
      "midi": 61,
      "hit": false,
      "t": 108563.87953125003,
      "d": 2306.545312500006,
      "v": 107
    },
    {
      "midi": 33,
      "hit": false,
      "t": 108578.76046875003,
      "d": 2299.104843750014,
      "v": 95
    },
    {
      "midi": 57,
      "hit": false,
      "t": 111413.57906250004,
      "d": 1852.6767187499936,
      "v": 106
    },
    {
      "midi": 61,
      "hit": false,
      "t": 111413.57906250004,
      "d": 1882.43859374999,
      "v": 118
    },
    {
      "midi": 67,
      "hit": false,
      "t": 111413.57906250004,
      "d": 1897.3195312499884,
      "v": 102
    },
    {
      "midi": 33,
      "hit": false,
      "t": 111413.57906250004,
      "d": 2194.9382812499825,
      "v": 98
    },
    {
      "midi": 66,
      "hit": false,
      "t": 114278.15953125001,
      "d": 2261.9024999999965,
      "v": 109
    },
    {
      "midi": 69,
      "hit": false,
      "t": 114278.15953125001,
      "d": 2261.9024999999965,
      "v": 108
    },
    {
      "midi": 73,
      "hit": false,
      "t": 114278.15953125001,
      "d": 2261.9024999999965,
      "v": 107
    },
    {
      "midi": 38,
      "hit": false,
      "t": 114293.04046875001,
      "d": 2328.866718749996,
      "v": 116
    },
    {
      "midi": 72,
      "hit": false,
      "t": 117142.74,
      "d": 2306.545312500006,
      "v": 103
    },
    {
      "midi": 38,
      "hit": false,
      "t": 117142.74,
      "d": 2313.985781250012,
      "v": 114
    },
    {
      "midi": 69,
      "hit": false,
      "t": 117142.74,
      "d": 2321.4262500000186,
      "v": 103
    },
    {
      "midi": 65,
      "hit": false,
      "t": 117142.74,
      "d": 2343.7476562500233,
      "v": 110
    },
    {
      "midi": 64,
      "hit": false,
      "t": 120014.76093750003,
      "d": 1696.4268750000047,
      "v": 94
    },
    {
      "midi": 68,
      "hit": false,
      "t": 120014.76093750003,
      "d": 1696.4268750000047,
      "v": 103
    },
    {
      "midi": 71,
      "hit": false,
      "t": 120014.76093750003,
      "d": 1696.4268750000047,
      "v": 101
    },
    {
      "midi": 37,
      "hit": false,
      "t": 120014.76093750003,
      "d": 1941.9623437499977,
      "v": 112
    },
    {
      "midi": 61,
      "hit": false,
      "t": 121778.15203125004,
      "d": 319.94015624999884,
      "v": 121
    },
    {
      "midi": 64,
      "hit": false,
      "t": 122135.29453125004,
      "d": 364.5829687499936,
      "v": 100
    },
    {
      "midi": 68,
      "hit": false,
      "t": 122470.11562500003,
      "d": 156.2498437500035,
      "v": 103
    },
    {
      "midi": 66,
      "hit": false,
      "t": 122842.13906250003,
      "d": 401.7853124999965,
      "v": 107
    },
    {
      "midi": 62,
      "hit": false,
      "t": 122842.13906250003,
      "d": 438.9876562499994,
      "v": 99
    },
    {
      "midi": 69,
      "hit": false,
      "t": 122842.13906250003,
      "d": 513.3923437500052,
      "v": 95
    },
    {
      "midi": 69,
      "hit": false,
      "t": 122849.57953125011,
      "d": 520.8328124999971,
      "v": 73
    },
    {
      "midi": 62,
      "hit": false,
      "t": 122849.57953125011,
      "d": 535.7137499999953,
      "v": 87
    },
    {
      "midi": 66,
      "hit": false,
      "t": 122849.57953125011,
      "d": 535.7137499999953,
      "v": 82
    },
    {
      "midi": 61,
      "hit": false,
      "t": 123385.29328125011,
      "d": 171.13078125000175,
      "v": 70
    },
    {
      "midi": 64,
      "hit": false,
      "t": 123385.29328125011,
      "d": 171.13078125000175,
      "v": 75
    },
    {
      "midi": 69,
      "hit": false,
      "t": 123385.29328125011,
      "d": 171.13078125000175,
      "v": 61
    },
    {
      "midi": 61,
      "hit": false,
      "t": 123548.98359375005,
      "d": 416.66624999999476,
      "v": 107
    },
    {
      "midi": 69,
      "hit": false,
      "t": 123548.98359375005,
      "d": 416.66624999999476,
      "v": 92
    },
    {
      "midi": 64,
      "hit": false,
      "t": 123548.98359375005,
      "d": 438.9876562499994,
      "v": 98
    },
    {
      "midi": 61,
      "hit": false,
      "t": 123563.86453125012,
      "d": 334.8210937499971,
      "v": 77
    },
    {
      "midi": 64,
      "hit": false,
      "t": 123563.86453125012,
      "d": 334.8210937499971,
      "v": 77
    },
    {
      "midi": 69,
      "hit": false,
      "t": 123563.86453125012,
      "d": 334.8210937499971,
      "v": 66
    },
    {
      "midi": 66,
      "hit": false,
      "t": 124270.70906250004,
      "d": 1249.9987499999988,
      "v": 99
    },
    {
      "midi": 71,
      "hit": false,
      "t": 124278.14953125005,
      "d": 1116.0703125,
      "v": 95
    },
    {
      "midi": 62,
      "hit": false,
      "t": 124278.14953125005,
      "d": 1227.6773437499942,
      "v": 92
    },
    {
      "midi": 66,
      "hit": false,
      "t": 125699.27906250003,
      "d": 468.7495312500105,
      "v": 101
    },
    {
      "midi": 62,
      "hit": false,
      "t": 125706.71953125004,
      "d": 483.63046875000873,
      "v": 96
    },
    {
      "midi": 69,
      "hit": false,
      "t": 125706.71953125004,
      "d": 595.2375000000029,
      "v": 96
    },
    {
      "midi": 69,
      "hit": false,
      "t": 125706.71953125011,
      "d": 528.2732812500035,
      "v": 73
    },
    {
      "midi": 62,
      "hit": false,
      "t": 125706.71953125011,
      "d": 535.7137500000099,
      "v": 88
    },
    {
      "midi": 66,
      "hit": false,
      "t": 125706.71953125011,
      "d": 535.7137500000099,
      "v": 85
    },
    {
      "midi": 61,
      "hit": false,
      "t": 126242.43328125012,
      "d": 171.13078125000175,
      "v": 49
    },
    {
      "midi": 64,
      "hit": false,
      "t": 126242.43328125012,
      "d": 171.13078125000175,
      "v": 73
    },
    {
      "midi": 69,
      "hit": false,
      "t": 126242.43328125012,
      "d": 171.13078125000175,
      "v": 59
    },
    {
      "midi": 61,
      "hit": false,
      "t": 126421.00453125013,
      "d": 163.69031249999534,
      "v": 67
    },
    {
      "midi": 64,
      "hit": false,
      "t": 126421.00453125013,
      "d": 163.69031249999534,
      "v": 73
    },
    {
      "midi": 69,
      "hit": false,
      "t": 126421.00453125013,
      "d": 163.69031249999534,
      "v": 62
    },
    {
      "midi": 64,
      "hit": false,
      "t": 126428.44500000005,
      "d": 349.7020312500099,
      "v": 96
    },
    {
      "midi": 69,
      "hit": false,
      "t": 126428.44500000005,
      "d": 349.7020312500099,
      "v": 100
    },
    {
      "midi": 61,
      "hit": false,
      "t": 126435.88546875006,
      "d": 319.94015624999884,
      "v": 107
    },
    {
      "midi": 66,
      "hit": false,
      "t": 127135.28953125006,
      "d": 1279.76062500001,
      "v": 107
    },
    {
      "midi": 71,
      "hit": false,
      "t": 127142.73000000007,
      "d": 1019.3442187500041,
      "v": 91
    },
    {
      "midi": 62,
      "hit": false,
      "t": 127142.73000000007,
      "d": 1108.6298437500081,
      "v": 95
    },
    {
      "midi": 61,
      "hit": false,
      "t": 128392.72875000013,
      "d": 171.13078125000175,
      "v": 67
    },
    {
      "midi": 64,
      "hit": false,
      "t": 128392.72875000013,
      "d": 171.13078125000175,
      "v": 67
    },
    {
      "midi": 52,
      "hit": false,
      "t": 128392.72875000013,
      "d": 178.57125000000815,
      "v": 67
    },
    {
      "midi": 66,
      "hit": false,
      "t": 128563.85953125007,
      "d": 930.05859375,
      "v": 105
    },
    {
      "midi": 62,
      "hit": false,
      "t": 128571.30000000008,
      "d": 1004.4632812499913,
      "v": 105
    },
    {
      "midi": 69,
      "hit": false,
      "t": 128571.30000000008,
      "d": 1049.106093749986,
      "v": 92
    },
    {
      "midi": 54,
      "hit": false,
      "t": 128571.30000000013,
      "d": 178.5712499999936,
      "v": 85
    },
    {
      "midi": 61,
      "hit": false,
      "t": 128571.30000000013,
      "d": 178.5712499999936,
      "v": 85
    },
    {
      "midi": 64,
      "hit": false,
      "t": 128571.30000000013,
      "d": 178.5712499999936,
      "v": 85
    },
    {
      "midi": 57,
      "hit": false,
      "t": 128749.87125000013,
      "d": 171.13078125000175,
      "v": 93
    },
    {
      "midi": 62,
      "hit": false,
      "t": 128749.87125000013,
      "d": 171.13078125000175,
      "v": 93
    },
    {
      "midi": 66,
      "hit": false,
      "t": 128749.87125000013,
      "d": 171.13078125000175,
      "v": 93
    },
    {
      "midi": 57,
      "hit": false,
      "t": 128928.44250000014,
      "d": 349.70203124999534,
      "v": 89
    },
    {
      "midi": 62,
      "hit": false,
      "t": 128928.44250000014,
      "d": 349.70203124999534,
      "v": 89
    },
    {
      "midi": 66,
      "hit": false,
      "t": 128928.44250000014,
      "d": 349.70203124999534,
      "v": 89
    },
    {
      "midi": 62,
      "hit": false,
      "t": 129285.58500000014,
      "d": 171.13078125000175,
      "v": 95
    },
    {
      "midi": 66,
      "hit": false,
      "t": 129285.58500000014,
      "d": 171.13078125000175,
      "v": 95
    },
    {
      "midi": 57,
      "hit": false,
      "t": 129285.58500000014,
      "d": 178.57125000000815,
      "v": 95
    },
    {
      "midi": 62,
      "hit": false,
      "t": 129464.15625000015,
      "d": 171.13078125000175,
      "v": 72
    },
    {
      "midi": 66,
      "hit": false,
      "t": 129464.15625000015,
      "d": 171.13078125000175,
      "v": 72
    },
    {
      "midi": 54,
      "hit": false,
      "t": 129464.15625000015,
      "d": 178.57125000000815,
      "v": 72
    },
    {
      "midi": 62,
      "hit": false,
      "t": 129642.72750000015,
      "d": 171.13078125000175,
      "v": 92
    },
    {
      "midi": 66,
      "hit": false,
      "t": 129642.72750000015,
      "d": 171.13078125000175,
      "v": 92
    },
    {
      "midi": 57,
      "hit": false,
      "t": 129642.72750000015,
      "d": 178.57125000000815,
      "v": 92
    },
    {
      "midi": 54,
      "hit": false,
      "t": 129821.29875000016,
      "d": 178.5712499999936,
      "v": 78
    },
    {
      "midi": 62,
      "hit": false,
      "t": 129821.29875000016,
      "d": 178.5712499999936,
      "v": 78
    },
    {
      "midi": 66,
      "hit": false,
      "t": 129821.29875000016,
      "d": 178.5712499999936,
      "v": 78
    },
    {
      "midi": 59,
      "hit": false,
      "t": 129984.98906250006,
      "d": 1034.2251562500023,
      "v": 103
    },
    {
      "midi": 68,
      "hit": false,
      "t": 129984.98906250006,
      "d": 1049.1060937500006,
      "v": 99
    },
    {
      "midi": 64,
      "hit": false,
      "t": 129984.98906250006,
      "d": 1071.4275000000052,
      "v": 112
    },
    {
      "midi": 64,
      "hit": false,
      "t": 129999.87000000016,
      "d": 171.13078125000175,
      "v": 96
    },
    {
      "midi": 68,
      "hit": false,
      "t": 129999.87000000016,
      "d": 171.13078125000175,
      "v": 96
    },
    {
      "midi": 59,
      "hit": false,
      "t": 129999.87000000016,
      "d": 178.57125000000815,
      "v": 96
    },
    {
      "midi": 64,
      "hit": false,
      "t": 130178.44125000016,
      "d": 171.13078125000175,
      "v": 83
    },
    {
      "midi": 68,
      "hit": false,
      "t": 130178.44125000016,
      "d": 171.13078125000175,
      "v": 83
    },
    {
      "midi": 56,
      "hit": false,
      "t": 130178.44125000016,
      "d": 178.57125000000815,
      "v": 83
    },
    {
      "midi": 64,
      "hit": false,
      "t": 130357.01250000017,
      "d": 171.13078125000175,
      "v": 89
    },
    {
      "midi": 68,
      "hit": false,
      "t": 130357.01250000017,
      "d": 171.13078125000175,
      "v": 89
    },
    {
      "midi": 59,
      "hit": false,
      "t": 130357.01250000017,
      "d": 178.57125000000815,
      "v": 89
    },
    {
      "midi": 64,
      "hit": false,
      "t": 130535.58375000018,
      "d": 171.13078125000175,
      "v": 76
    },
    {
      "midi": 68,
      "hit": false,
      "t": 130535.58375000018,
      "d": 171.13078125000175,
      "v": 76
    },
    {
      "midi": 52,
      "hit": false,
      "t": 130535.58375000018,
      "d": 178.57125000000815,
      "v": 76
    },
    {
      "midi": 64,
      "hit": false,
      "t": 130714.15500000019,
      "d": 171.13078125000175,
      "v": 82
    },
    {
      "midi": 68,
      "hit": false,
      "t": 130714.15500000019,
      "d": 171.13078125000175,
      "v": 82
    },
    {
      "midi": 54,
      "hit": false,
      "t": 130714.15500000019,
      "d": 178.57125000000815,
      "v": 82
    },
    {
      "midi": 64,
      "hit": false,
      "t": 130892.7262500002,
      "d": 528.2732812499889,
      "v": 96
    },
    {
      "midi": 57,
      "hit": false,
      "t": 130892.7262500002,
      "d": 535.7137499999808,
      "v": 96
    },
    {
      "midi": 68,
      "hit": false,
      "t": 130892.7262500002,
      "d": 535.7137499999808,
      "v": 96
    },
    {
      "midi": 69,
      "hit": false,
      "t": 131420.99953125007,
      "d": 2061.009843750013,
      "v": 30
    },
    {
      "midi": 61,
      "hit": false,
      "t": 131420.99953125007,
      "d": 2224.700156250008,
      "v": 107
    },
    {
      "midi": 64,
      "hit": false,
      "t": 131420.99953125007,
      "d": 2232.140625,
      "v": 103
    },
    {
      "midi": 61,
      "hit": false,
      "t": 131428.44000000018,
      "d": 535.7137499999953,
      "v": 90
    },
    {
      "midi": 64,
      "hit": false,
      "t": 131428.44000000018,
      "d": 535.7137499999953,
      "v": 90
    },
    {
      "midi": 69,
      "hit": false,
      "t": 131428.44000000018,
      "d": 535.7137499999953,
      "v": 90
    },
    {
      "midi": 59,
      "hit": false,
      "t": 131964.15375000017,
      "d": 178.57125000000815,
      "v": 80
    },
    {
      "midi": 62,
      "hit": false,
      "t": 131964.15375000017,
      "d": 178.57125000000815,
      "v": 80
    },
    {
      "midi": 66,
      "hit": false,
      "t": 131964.15375000017,
      "d": 178.57125000000815,
      "v": 80
    },
    {
      "midi": 57,
      "hit": false,
      "t": 132142.72500000018,
      "d": 535.7137499999953,
      "v": 82
    },
    {
      "midi": 61,
      "hit": false,
      "t": 132142.72500000018,
      "d": 535.7137499999953,
      "v": 82
    },
    {
      "midi": 64,
      "hit": false,
      "t": 132142.72500000018,
      "d": 535.7137499999953,
      "v": 82
    },
    {
      "midi": 54,
      "hit": false,
      "t": 132678.43875000018,
      "d": 178.57125000000815,
      "v": 79
    },
    {
      "midi": 59,
      "hit": false,
      "t": 132678.43875000018,
      "d": 178.57125000000815,
      "v": 79
    },
    {
      "midi": 62,
      "hit": false,
      "t": 132678.43875000018,
      "d": 178.57125000000815,
      "v": 79
    },
    {
      "midi": 52,
      "hit": false,
      "t": 132857.01000000018,
      "d": 1071.4274999999907,
      "v": 74
    },
    {
      "midi": 57,
      "hit": false,
      "t": 132857.01000000018,
      "d": 1071.4274999999907,
      "v": 74
    },
    {
      "midi": 61,
      "hit": false,
      "t": 132857.01000000018,
      "d": 1071.4274999999907,
      "v": 74
    },
    {
      "midi": 66,
      "hit": false,
      "t": 134278.13953125008,
      "d": 349.70203124999534,
      "v": 115
    },
    {
      "midi": 62,
      "hit": false,
      "t": 134278.13953125008,
      "d": 394.34484375000466,
      "v": 103
    },
    {
      "midi": 69,
      "hit": false,
      "t": 134278.13953125008,
      "d": 520.8328125000116,
      "v": 102
    },
    {
      "midi": 69,
      "hit": false,
      "t": 134278.13953125017,
      "d": 520.8328125000116,
      "v": 73
    },
    {
      "midi": 62,
      "hit": false,
      "t": 134278.13953125017,
      "d": 535.7137500000244,
      "v": 87
    },
    {
      "midi": 66,
      "hit": false,
      "t": 134278.13953125017,
      "d": 535.7137500000244,
      "v": 82
    },
    {
      "midi": 61,
      "hit": false,
      "t": 134813.8532812502,
      "d": 171.1307812499872,
      "v": 70
    },
    {
      "midi": 64,
      "hit": false,
      "t": 134813.8532812502,
      "d": 171.1307812499872,
      "v": 75
    },
    {
      "midi": 69,
      "hit": false,
      "t": 134813.8532812502,
      "d": 171.1307812499872,
      "v": 61
    },
    {
      "midi": 64,
      "hit": false,
      "t": 134984.9840625001,
      "d": 379.46390624999185,
      "v": 99
    },
    {
      "midi": 61,
      "hit": false,
      "t": 134984.9840625001,
      "d": 409.22578124998836,
      "v": 109
    },
    {
      "midi": 69,
      "hit": false,
      "t": 134984.9840625001,
      "d": 416.6662499999802,
      "v": 105
    },
    {
      "midi": 61,
      "hit": false,
      "t": 134992.42453125017,
      "d": 334.82109375001164,
      "v": 77
    },
    {
      "midi": 64,
      "hit": false,
      "t": 134992.42453125017,
      "d": 334.82109375001164,
      "v": 77
    },
    {
      "midi": 69,
      "hit": false,
      "t": 134992.42453125017,
      "d": 334.82109375001164,
      "v": 66
    },
    {
      "midi": 66,
      "hit": false,
      "t": 135699.26906250007,
      "d": 1220.2368750000023,
      "v": 95
    },
    {
      "midi": 71,
      "hit": false,
      "t": 135706.70953125006,
      "d": 974.7014062500093,
      "v": 95
    },
    {
      "midi": 62,
      "hit": false,
      "t": 135706.70953125006,
      "d": 1086.3084375000035,
      "v": 102
    },
    {
      "midi": 66,
      "hit": false,
      "t": 137120.39859375008,
      "d": 349.70203124999534,
      "v": 103
    },
    {
      "midi": 62,
      "hit": false,
      "t": 137120.39859375008,
      "d": 394.34484375000466,
      "v": 102
    },
    {
      "midi": 69,
      "hit": false,
      "t": 137120.39859375008,
      "d": 550.5946875000081,
      "v": 96
    },
    {
      "midi": 69,
      "hit": false,
      "t": 137135.27953125018,
      "d": 528.2732812500035,
      "v": 73
    },
    {
      "midi": 62,
      "hit": false,
      "t": 137135.27953125018,
      "d": 535.7137499999953,
      "v": 88
    },
    {
      "midi": 66,
      "hit": false,
      "t": 137135.27953125018,
      "d": 535.7137499999953,
      "v": 85
    },
    {
      "midi": 61,
      "hit": false,
      "t": 137670.99328125018,
      "d": 171.1307812499872,
      "v": 49
    },
    {
      "midi": 64,
      "hit": false,
      "t": 137670.99328125018,
      "d": 171.1307812499872,
      "v": 73
    },
    {
      "midi": 69,
      "hit": false,
      "t": 137670.99328125018,
      "d": 171.1307812499872,
      "v": 59
    },
    {
      "midi": 69,
      "hit": false,
      "t": 137827.2431250001,
      "d": 364.58296875000815,
      "v": 91
    },
    {
      "midi": 61,
      "hit": false,
      "t": 137827.2431250001,
      "d": 379.46390625002095,
      "v": 107
    },
    {
      "midi": 64,
      "hit": false,
      "t": 137834.6835937501,
      "d": 342.2615625000035,
      "v": 95
    },
    {
      "midi": 61,
      "hit": false,
      "t": 137849.56453125016,
      "d": 163.69031249999534,
      "v": 67
    },
    {
      "midi": 64,
      "hit": false,
      "t": 137849.56453125016,
      "d": 163.69031249999534,
      "v": 73
    },
    {
      "midi": 69,
      "hit": false,
      "t": 137849.56453125016,
      "d": 163.69031249999534,
      "v": 62
    },
    {
      "midi": 71,
      "hit": false,
      "t": 138563.8495312501,
      "d": 1108.6298437500081,
      "v": 95
    },
    {
      "midi": 62,
      "hit": false,
      "t": 138563.8495312501,
      "d": 1212.7964062500105,
      "v": 100
    },
    {
      "midi": 66,
      "hit": false,
      "t": 138563.8495312501,
      "d": 1242.558281250007,
      "v": 97
    },
    {
      "midi": 61,
      "hit": false,
      "t": 139821.28875000015,
      "d": 171.1307812499872,
      "v": 67
    },
    {
      "midi": 64,
      "hit": false,
      "t": 139821.28875000015,
      "d": 171.1307812499872,
      "v": 67
    },
    {
      "midi": 52,
      "hit": false,
      "t": 139821.28875000015,
      "d": 178.57124999997905,
      "v": 67
    },
    {
      "midi": 66,
      "hit": false,
      "t": 139992.4195312501,
      "d": 944.9395312499837,
      "v": 99
    },
    {
      "midi": 62,
      "hit": false,
      "t": 139999.8600000001,
      "d": 1011.9037499999977,
      "v": 103
    },
    {
      "midi": 69,
      "hit": false,
      "t": 139999.8600000001,
      "d": 1116.0703125,
      "v": 98
    },
    {
      "midi": 54,
      "hit": false,
      "t": 139999.86000000013,
      "d": 178.57125000000815,
      "v": 85
    },
    {
      "midi": 61,
      "hit": false,
      "t": 139999.86000000013,
      "d": 178.57125000000815,
      "v": 85
    },
    {
      "midi": 64,
      "hit": false,
      "t": 139999.86000000013,
      "d": 178.57125000000815,
      "v": 85
    },
    {
      "midi": 57,
      "hit": false,
      "t": 140178.43125000014,
      "d": 171.1307812499872,
      "v": 93
    },
    {
      "midi": 62,
      "hit": false,
      "t": 140178.43125000014,
      "d": 171.1307812499872,
      "v": 93
    },
    {
      "midi": 66,
      "hit": false,
      "t": 140178.43125000014,
      "d": 171.1307812499872,
      "v": 93
    },
    {
      "midi": 57,
      "hit": false,
      "t": 140357.00250000012,
      "d": 349.70203124999534,
      "v": 89
    },
    {
      "midi": 62,
      "hit": false,
      "t": 140357.00250000012,
      "d": 349.70203124999534,
      "v": 89
    },
    {
      "midi": 66,
      "hit": false,
      "t": 140357.00250000012,
      "d": 349.70203124999534,
      "v": 89
    },
    {
      "midi": 62,
      "hit": false,
      "t": 140714.1450000001,
      "d": 171.1307812499872,
      "v": 95
    },
    {
      "midi": 66,
      "hit": false,
      "t": 140714.1450000001,
      "d": 171.1307812499872,
      "v": 95
    },
    {
      "midi": 57,
      "hit": false,
      "t": 140714.1450000001,
      "d": 178.57124999997905,
      "v": 95
    },
    {
      "midi": 62,
      "hit": false,
      "t": 140892.71625000008,
      "d": 171.1307812499872,
      "v": 72
    },
    {
      "midi": 66,
      "hit": false,
      "t": 140892.71625000008,
      "d": 171.1307812499872,
      "v": 72
    },
    {
      "midi": 54,
      "hit": false,
      "t": 140892.71625000008,
      "d": 178.57124999997905,
      "v": 72
    },
    {
      "midi": 62,
      "hit": false,
      "t": 141071.28750000006,
      "d": 171.1307812499872,
      "v": 92
    },
    {
      "midi": 66,
      "hit": false,
      "t": 141071.28750000006,
      "d": 171.1307812499872,
      "v": 92
    },
    {
      "midi": 57,
      "hit": false,
      "t": 141071.28750000006,
      "d": 178.57124999997905,
      "v": 92
    },
    {
      "midi": 54,
      "hit": false,
      "t": 141249.85875000004,
      "d": 178.57125000000815,
      "v": 78
    },
    {
      "midi": 62,
      "hit": false,
      "t": 141249.85875000004,
      "d": 178.57125000000815,
      "v": 78
    },
    {
      "midi": 66,
      "hit": false,
      "t": 141249.85875000004,
      "d": 178.57125000000815,
      "v": 78
    },
    {
      "midi": 59,
      "hit": false,
      "t": 141420.9895312501,
      "d": 825.8920312499977,
      "v": 103
    },
    {
      "midi": 68,
      "hit": false,
      "t": 141420.9895312501,
      "d": 825.8920312499977,
      "v": 109
    },
    {
      "midi": 64,
      "hit": false,
      "t": 141420.9895312501,
      "d": 885.4157812499907,
      "v": 112
    },
    {
      "midi": 64,
      "hit": false,
      "t": 141428.43000000005,
      "d": 171.1307812499872,
      "v": 96
    },
    {
      "midi": 68,
      "hit": false,
      "t": 141428.43000000005,
      "d": 171.1307812499872,
      "v": 96
    },
    {
      "midi": 59,
      "hit": false,
      "t": 141428.43000000005,
      "d": 178.57124999997905,
      "v": 96
    },
    {
      "midi": 64,
      "hit": false,
      "t": 141607.00125000003,
      "d": 171.1307812499872,
      "v": 83
    },
    {
      "midi": 68,
      "hit": false,
      "t": 141607.00125000003,
      "d": 171.1307812499872,
      "v": 83
    },
    {
      "midi": 56,
      "hit": false,
      "t": 141607.00125000003,
      "d": 178.57124999997905,
      "v": 83
    },
    {
      "midi": 64,
      "hit": false,
      "t": 141785.5725,
      "d": 171.1307812499872,
      "v": 89
    },
    {
      "midi": 68,
      "hit": false,
      "t": 141785.5725,
      "d": 171.1307812499872,
      "v": 89
    },
    {
      "midi": 59,
      "hit": false,
      "t": 141785.5725,
      "d": 178.57124999997905,
      "v": 89
    },
    {
      "midi": 64,
      "hit": false,
      "t": 141964.14375,
      "d": 171.1307812499872,
      "v": 76
    },
    {
      "midi": 68,
      "hit": false,
      "t": 141964.14375,
      "d": 171.1307812499872,
      "v": 76
    },
    {
      "midi": 52,
      "hit": false,
      "t": 141964.14375,
      "d": 178.57124999997905,
      "v": 76
    },
    {
      "midi": 64,
      "hit": false,
      "t": 142142.71499999997,
      "d": 171.1307812499872,
      "v": 82
    },
    {
      "midi": 68,
      "hit": false,
      "t": 142142.71499999997,
      "d": 171.1307812499872,
      "v": 82
    },
    {
      "midi": 54,
      "hit": false,
      "t": 142142.71499999997,
      "d": 178.57124999997905,
      "v": 82
    },
    {
      "midi": 64,
      "hit": false,
      "t": 142321.28624999995,
      "d": 528.2732812500035,
      "v": 96
    },
    {
      "midi": 57,
      "hit": false,
      "t": 142321.28624999995,
      "d": 535.7137499999953,
      "v": 96
    },
    {
      "midi": 68,
      "hit": false,
      "t": 142321.28624999995,
      "d": 535.7137499999953,
      "v": 96
    },
    {
      "midi": 69,
      "hit": false,
      "t": 142470.09562500007,
      "d": 156.2498437500035,
      "v": 55
    },
    {
      "midi": 64,
      "hit": false,
      "t": 142484.9765625001,
      "d": 111.60703124999418,
      "v": 31
    },
    {
      "midi": 61,
      "hit": false,
      "t": 142849.55953125007,
      "d": 2142.8550000000105,
      "v": 112
    },
    {
      "midi": 64,
      "hit": false,
      "t": 142849.55953125007,
      "d": 2165.176406250015,
      "v": 108
    },
    {
      "midi": 69,
      "hit": false,
      "t": 142849.55953125007,
      "d": 2202.3787500000035,
      "v": 98
    },
    {
      "midi": 61,
      "hit": false,
      "t": 142856.99999999994,
      "d": 535.7137499999953,
      "v": 90
    },
    {
      "midi": 64,
      "hit": false,
      "t": 142856.99999999994,
      "d": 535.7137499999953,
      "v": 90
    },
    {
      "midi": 69,
      "hit": false,
      "t": 142856.99999999994,
      "d": 535.7137499999953,
      "v": 90
    },
    {
      "midi": 59,
      "hit": false,
      "t": 143392.71374999994,
      "d": 178.57125000000815,
      "v": 80
    },
    {
      "midi": 62,
      "hit": false,
      "t": 143392.71374999994,
      "d": 178.57125000000815,
      "v": 80
    },
    {
      "midi": 66,
      "hit": false,
      "t": 143392.71374999994,
      "d": 178.57125000000815,
      "v": 80
    },
    {
      "midi": 57,
      "hit": false,
      "t": 143571.28499999995,
      "d": 535.7137499999953,
      "v": 82
    },
    {
      "midi": 61,
      "hit": false,
      "t": 143571.28499999995,
      "d": 535.7137499999953,
      "v": 82
    },
    {
      "midi": 64,
      "hit": false,
      "t": 143571.28499999995,
      "d": 535.7137499999953,
      "v": 82
    },
    {
      "midi": 54,
      "hit": false,
      "t": 144106.99874999994,
      "d": 178.57125000000815,
      "v": 79
    },
    {
      "midi": 59,
      "hit": false,
      "t": 144106.99874999994,
      "d": 178.57125000000815,
      "v": 79
    },
    {
      "midi": 62,
      "hit": false,
      "t": 144106.99874999994,
      "d": 178.57125000000815,
      "v": 79
    },
    {
      "midi": 52,
      "hit": false,
      "t": 144285.56999999995,
      "d": 1071.4274999999907,
      "v": 74
    },
    {
      "midi": 57,
      "hit": false,
      "t": 144285.56999999995,
      "d": 1071.4274999999907,
      "v": 74
    },
    {
      "midi": 61,
      "hit": false,
      "t": 144285.56999999995,
      "d": 1071.4274999999907,
      "v": 74
    },
    {
      "midi": 66,
      "hit": false,
      "t": 145699.25906250006,
      "d": 401.7853124999965,
      "v": 107
    },
    {
      "midi": 62,
      "hit": false,
      "t": 145699.25906250006,
      "d": 438.98765624998487,
      "v": 99
    },
    {
      "midi": 69,
      "hit": false,
      "t": 145699.25906250006,
      "d": 513.3923437499907,
      "v": 95
    },
    {
      "midi": 69,
      "hit": false,
      "t": 145706.69953124993,
      "d": 528.2732812500035,
      "v": 73
    },
    {
      "midi": 62,
      "hit": false,
      "t": 145706.69953124993,
      "d": 535.7137499999953,
      "v": 87
    },
    {
      "midi": 66,
      "hit": false,
      "t": 145706.69953124993,
      "d": 535.7137499999953,
      "v": 82
    },
    {
      "midi": 61,
      "hit": false,
      "t": 146242.41328124993,
      "d": 171.1307812499872,
      "v": 70
    },
    {
      "midi": 64,
      "hit": false,
      "t": 146242.41328124993,
      "d": 171.1307812499872,
      "v": 75
    },
    {
      "midi": 69,
      "hit": false,
      "t": 146242.41328124993,
      "d": 171.1307812499872,
      "v": 61
    },
    {
      "midi": 61,
      "hit": false,
      "t": 146406.10359375004,
      "d": 416.6662500000093,
      "v": 107
    },
    {
      "midi": 69,
      "hit": false,
      "t": 146406.10359375004,
      "d": 416.6662500000093,
      "v": 92
    },
    {
      "midi": 64,
      "hit": false,
      "t": 146406.10359375004,
      "d": 438.98765625001397,
      "v": 98
    },
    {
      "midi": 61,
      "hit": false,
      "t": 146420.9845312499,
      "d": 319.94015624999884,
      "v": 77
    },
    {
      "midi": 64,
      "hit": false,
      "t": 146420.9845312499,
      "d": 319.94015624999884,
      "v": 77
    },
    {
      "midi": 69,
      "hit": false,
      "t": 146420.9845312499,
      "d": 319.94015624999884,
      "v": 66
    },
    {
      "midi": 66,
      "hit": false,
      "t": 147127.82906250007,
      "d": 1249.9987499999988,
      "v": 99
    },
    {
      "midi": 71,
      "hit": false,
      "t": 147135.26953125006,
      "d": 1116.0703125,
      "v": 95
    },
    {
      "midi": 62,
      "hit": false,
      "t": 147135.26953125006,
      "d": 1227.6773437499942,
      "v": 92
    },
    {
      "midi": 66,
      "hit": false,
      "t": 148556.39906250007,
      "d": 468.7495312499814,
      "v": 101
    },
    {
      "midi": 69,
      "hit": false,
      "t": 148563.83953124992,
      "d": 528.2732812500035,
      "v": 73
    },
    {
      "midi": 62,
      "hit": false,
      "t": 148563.83953124992,
      "d": 535.7137499999953,
      "v": 88
    },
    {
      "midi": 66,
      "hit": false,
      "t": 148563.83953124992,
      "d": 535.7137499999953,
      "v": 85
    },
    {
      "midi": 62,
      "hit": false,
      "t": 148563.83953125007,
      "d": 483.6304687499942,
      "v": 96
    },
    {
      "midi": 69,
      "hit": false,
      "t": 148563.83953125007,
      "d": 595.2374999999884,
      "v": 96
    },
    {
      "midi": 61,
      "hit": false,
      "t": 149099.55328124992,
      "d": 171.1307812499872,
      "v": 49
    },
    {
      "midi": 64,
      "hit": false,
      "t": 149099.55328124992,
      "d": 171.1307812499872,
      "v": 73
    },
    {
      "midi": 69,
      "hit": false,
      "t": 149099.55328124992,
      "d": 171.1307812499872,
      "v": 59
    },
    {
      "midi": 61,
      "hit": false,
      "t": 149278.1245312499,
      "d": 156.2498437500035,
      "v": 67
    },
    {
      "midi": 64,
      "hit": false,
      "t": 149278.1245312499,
      "d": 156.2498437500035,
      "v": 73
    },
    {
      "midi": 69,
      "hit": false,
      "t": 149278.1245312499,
      "d": 156.2498437500035,
      "v": 62
    },
    {
      "midi": 64,
      "hit": false,
      "t": 149285.56500000006,
      "d": 349.70203124999534,
      "v": 96
    },
    {
      "midi": 69,
      "hit": false,
      "t": 149285.56500000006,
      "d": 349.70203124999534,
      "v": 100
    },
    {
      "midi": 61,
      "hit": false,
      "t": 149293.00546875005,
      "d": 319.94015624999884,
      "v": 107
    },
    {
      "midi": 66,
      "hit": false,
      "t": 149992.40953125004,
      "d": 1279.7606249999662,
      "v": 107
    },
    {
      "midi": 71,
      "hit": false,
      "t": 149999.85000000003,
      "d": 1019.3442187499895,
      "v": 91
    },
    {
      "midi": 62,
      "hit": false,
      "t": 149999.85000000003,
      "d": 1108.629843749979,
      "v": 95
    },
    {
      "midi": 66,
      "hit": false,
      "t": 151413.5390625,
      "d": 401.7853124999965,
      "v": 107
    },
    {
      "midi": 62,
      "hit": false,
      "t": 151413.5390625,
      "d": 438.98765624998487,
      "v": 99
    },
    {
      "midi": 69,
      "hit": false,
      "t": 151413.5390625,
      "d": 513.3923437499907,
      "v": 95
    },
    {
      "midi": 69,
      "hit": false,
      "t": 151420.9795312499,
      "d": 528.2732812500035,
      "v": 73
    },
    {
      "midi": 62,
      "hit": false,
      "t": 151420.9795312499,
      "d": 535.7137499999953,
      "v": 87
    },
    {
      "midi": 66,
      "hit": false,
      "t": 151420.9795312499,
      "d": 535.7137499999953,
      "v": 82
    },
    {
      "midi": 61,
      "hit": false,
      "t": 151956.6932812499,
      "d": 171.1307812499872,
      "v": 70
    },
    {
      "midi": 64,
      "hit": false,
      "t": 151956.6932812499,
      "d": 171.1307812499872,
      "v": 75
    },
    {
      "midi": 69,
      "hit": false,
      "t": 151956.6932812499,
      "d": 171.1307812499872,
      "v": 61
    },
    {
      "midi": 61,
      "hit": false,
      "t": 152120.38359374998,
      "d": 416.6662500000093,
      "v": 107
    },
    {
      "midi": 69,
      "hit": false,
      "t": 152120.38359374998,
      "d": 416.6662500000093,
      "v": 92
    },
    {
      "midi": 64,
      "hit": false,
      "t": 152120.38359374998,
      "d": 438.98765625001397,
      "v": 98
    },
    {
      "midi": 61,
      "hit": false,
      "t": 152135.26453124988,
      "d": 319.94015624999884,
      "v": 77
    },
    {
      "midi": 64,
      "hit": false,
      "t": 152135.26453124988,
      "d": 319.94015624999884,
      "v": 77
    },
    {
      "midi": 69,
      "hit": false,
      "t": 152135.26453124988,
      "d": 319.94015624999884,
      "v": 66
    },
    {
      "midi": 66,
      "hit": false,
      "t": 152842.1090625,
      "d": 1249.9987499999988,
      "v": 99
    },
    {
      "midi": 71,
      "hit": false,
      "t": 152849.54953125,
      "d": 1116.0703125,
      "v": 95
    },
    {
      "midi": 62,
      "hit": false,
      "t": 152849.54953125,
      "d": 1227.6773437499942,
      "v": 92
    },
    {
      "midi": 66,
      "hit": false,
      "t": 154270.6790625,
      "d": 468.7495312499814,
      "v": 101
    },
    {
      "midi": 69,
      "hit": false,
      "t": 154278.1195312499,
      "d": 528.2732812500035,
      "v": 73
    },
    {
      "midi": 62,
      "hit": false,
      "t": 154278.1195312499,
      "d": 535.7137499999953,
      "v": 88
    },
    {
      "midi": 66,
      "hit": false,
      "t": 154278.1195312499,
      "d": 535.7137499999953,
      "v": 85
    },
    {
      "midi": 62,
      "hit": false,
      "t": 154278.11953125,
      "d": 483.6304687499942,
      "v": 96
    },
    {
      "midi": 69,
      "hit": false,
      "t": 154278.11953125,
      "d": 595.2374999999884,
      "v": 96
    },
    {
      "midi": 61,
      "hit": false,
      "t": 154813.83328124988,
      "d": 171.1307812499872,
      "v": 49
    },
    {
      "midi": 64,
      "hit": false,
      "t": 154813.83328124988,
      "d": 171.1307812499872,
      "v": 73
    },
    {
      "midi": 69,
      "hit": false,
      "t": 154813.83328124988,
      "d": 171.1307812499872,
      "v": 59
    },
    {
      "midi": 61,
      "hit": false,
      "t": 154992.40453124986,
      "d": 319.94015624999884,
      "v": 67
    },
    {
      "midi": 64,
      "hit": false,
      "t": 154992.40453124986,
      "d": 319.94015624999884,
      "v": 73
    },
    {
      "midi": 69,
      "hit": false,
      "t": 154992.40453124986,
      "d": 319.94015624999884,
      "v": 62
    },
    {
      "midi": 64,
      "hit": false,
      "t": 154999.845,
      "d": 349.70203124999534,
      "v": 96
    },
    {
      "midi": 69,
      "hit": false,
      "t": 154999.845,
      "d": 349.70203124999534,
      "v": 100
    },
    {
      "midi": 61,
      "hit": false,
      "t": 155007.28546875,
      "d": 319.94015624999884,
      "v": 107
    },
    {
      "midi": 66,
      "hit": false,
      "t": 155706.68953124998,
      "d": 1279.7606249999662,
      "v": 107
    },
    {
      "midi": 71,
      "hit": false,
      "t": 155714.12999999998,
      "d": 1019.3442187499895,
      "v": 91
    },
    {
      "midi": 62,
      "hit": false,
      "t": 155714.12999999998,
      "d": 1108.629843749979,
      "v": 95
    },
    {
      "midi": 66,
      "hit": false,
      "t": 157127.81906249994,
      "d": 401.7853124999965,
      "v": 107
    },
    {
      "midi": 62,
      "hit": false,
      "t": 157127.81906249994,
      "d": 438.98765624998487,
      "v": 99
    },
    {
      "midi": 69,
      "hit": false,
      "t": 157127.81906249994,
      "d": 513.3923437499907,
      "v": 95
    },
    {
      "midi": 69,
      "hit": false,
      "t": 157135.25953124987,
      "d": 528.2732812500035,
      "v": 73
    },
    {
      "midi": 62,
      "hit": false,
      "t": 157135.25953124987,
      "d": 535.7137499999953,
      "v": 87
    },
    {
      "midi": 66,
      "hit": false,
      "t": 157135.25953124987,
      "d": 535.7137499999953,
      "v": 82
    },
    {
      "midi": 61,
      "hit": false,
      "t": 157670.97328124987,
      "d": 171.1307812499872,
      "v": 70
    },
    {
      "midi": 64,
      "hit": false,
      "t": 157670.97328124987,
      "d": 171.1307812499872,
      "v": 75
    },
    {
      "midi": 69,
      "hit": false,
      "t": 157670.97328124987,
      "d": 171.1307812499872,
      "v": 61
    },
    {
      "midi": 61,
      "hit": false,
      "t": 157834.66359374992,
      "d": 416.6662500000093,
      "v": 107
    },
    {
      "midi": 69,
      "hit": false,
      "t": 157834.66359374992,
      "d": 416.6662500000093,
      "v": 92
    },
    {
      "midi": 64,
      "hit": false,
      "t": 157834.66359374992,
      "d": 438.98765625001397,
      "v": 98
    },
    {
      "midi": 61,
      "hit": false,
      "t": 157849.54453124985,
      "d": 156.2498437500035,
      "v": 77
    },
    {
      "midi": 64,
      "hit": false,
      "t": 157849.54453124985,
      "d": 156.2498437500035,
      "v": 77
    },
    {
      "midi": 69,
      "hit": false,
      "t": 157849.54453124985,
      "d": 156.2498437500035,
      "v": 66
    },
    {
      "midi": 66,
      "hit": false,
      "t": 158556.38906249995,
      "d": 1249.9987499999988,
      "v": 99
    },
    {
      "midi": 71,
      "hit": false,
      "t": 158563.82953124994,
      "d": 1116.0703125,
      "v": 95
    },
    {
      "midi": 62,
      "hit": false,
      "t": 158563.82953124994,
      "d": 1227.6773437499942,
      "v": 92
    },
    {
      "midi": 66,
      "hit": false,
      "t": 159984.95906249995,
      "d": 468.7495312499814,
      "v": 101
    },
    {
      "midi": 69,
      "hit": false,
      "t": 159992.39953124986,
      "d": 528.2732812500035,
      "v": 73
    },
    {
      "midi": 62,
      "hit": false,
      "t": 159992.39953124986,
      "d": 535.7137499999953,
      "v": 88
    },
    {
      "midi": 66,
      "hit": false,
      "t": 159992.39953124986,
      "d": 535.7137499999953,
      "v": 85
    },
    {
      "midi": 62,
      "hit": false,
      "t": 159992.39953124995,
      "d": 483.6304687499942,
      "v": 96
    },
    {
      "midi": 69,
      "hit": false,
      "t": 159992.39953124995,
      "d": 595.2374999999884,
      "v": 96
    },
    {
      "midi": 61,
      "hit": false,
      "t": 160528.11328124985,
      "d": 171.1307812499872,
      "v": 48
    },
    {
      "midi": 64,
      "hit": false,
      "t": 160528.11328124985,
      "d": 171.1307812499872,
      "v": 71
    },
    {
      "midi": 69,
      "hit": false,
      "t": 160528.11328124985,
      "d": 171.1307812499872,
      "v": 57
    },
    {
      "midi": 61,
      "hit": false,
      "t": 160706.68453124983,
      "d": 319.94015624999884,
      "v": 64
    },
    {
      "midi": 64,
      "hit": false,
      "t": 160706.68453124983,
      "d": 319.94015624999884,
      "v": 70
    },
    {
      "midi": 69,
      "hit": false,
      "t": 160706.68453124983,
      "d": 319.94015624999884,
      "v": 60
    },
    {
      "midi": 64,
      "hit": false,
      "t": 160714.12499999994,
      "d": 349.70203124999534,
      "v": 91
    },
    {
      "midi": 69,
      "hit": false,
      "t": 160714.12499999994,
      "d": 349.70203124999534,
      "v": 95
    },
    {
      "midi": 61,
      "hit": false,
      "t": 160721.56546874993,
      "d": 319.94015624999884,
      "v": 101
    },
    {
      "midi": 66,
      "hit": false,
      "t": 161420.96953124992,
      "d": 1279.7606249999662,
      "v": 95
    },
    {
      "midi": 71,
      "hit": false,
      "t": 161428.40999999992,
      "d": 1019.3442187499895,
      "v": 80
    },
    {
      "midi": 62,
      "hit": false,
      "t": 161428.40999999992,
      "d": 1108.629843749979,
      "v": 84
    },
    {
      "midi": 66,
      "hit": false,
      "t": 162842.09906249988,
      "d": 401.7853124999965,
      "v": 82
    },
    {
      "midi": 62,
      "hit": false,
      "t": 162842.09906249988,
      "d": 438.98765624998487,
      "v": 76
    },
    {
      "midi": 69,
      "hit": false,
      "t": 162842.09906249988,
      "d": 513.3923437499907,
      "v": 73
    },
    {
      "midi": 69,
      "hit": false,
      "t": 162849.53953124984,
      "d": 528.2732812500035,
      "v": 59
    },
    {
      "midi": 62,
      "hit": false,
      "t": 162849.53953124984,
      "d": 535.7137499999953,
      "v": 71
    },
    {
      "midi": 66,
      "hit": false,
      "t": 162849.53953124984,
      "d": 535.7137499999953,
      "v": 67
    },
    {
      "midi": 61,
      "hit": false,
      "t": 163385.25328124984,
      "d": 171.1307812499872,
      "v": 54
    },
    {
      "midi": 64,
      "hit": false,
      "t": 163385.25328124984,
      "d": 171.1307812499872,
      "v": 58
    },
    {
      "midi": 69,
      "hit": false,
      "t": 163385.25328124984,
      "d": 171.1307812499872,
      "v": 47
    },
    {
      "midi": 61,
      "hit": false,
      "t": 163548.94359374986,
      "d": 416.6662500000093,
      "v": 74
    },
    {
      "midi": 69,
      "hit": false,
      "t": 163548.94359374986,
      "d": 416.6662500000093,
      "v": 64
    },
    {
      "midi": 64,
      "hit": false,
      "t": 163548.94359374986,
      "d": 438.98765625001397,
      "v": 68
    },
    {
      "midi": 61,
      "hit": false,
      "t": 163563.82453124982,
      "d": 349.70203124999534,
      "v": 59
    },
    {
      "midi": 64,
      "hit": false,
      "t": 163563.82453124982,
      "d": 349.70203124999534,
      "v": 59
    },
    {
      "midi": 69,
      "hit": false,
      "t": 163563.82453124982,
      "d": 349.70203124999534,
      "v": 50
    },
    {
      "midi": 66,
      "hit": false,
      "t": 164270.6690624999,
      "d": 1249.9987499999988,
      "v": 63
    },
    {
      "midi": 71,
      "hit": false,
      "t": 164278.10953124988,
      "d": 1116.0703125,
      "v": 60
    },
    {
      "midi": 62,
      "hit": false,
      "t": 164278.10953124988,
      "d": 1227.6773437499942,
      "v": 58
    },
    {
      "midi": 66,
      "hit": false,
      "t": 165699.2390624999,
      "d": 468.7495312499814,
      "v": 52
    },
    {
      "midi": 69,
      "hit": false,
      "t": 165706.6795312498,
      "d": 528.2732812500035,
      "v": 45
    },
    {
      "midi": 62,
      "hit": false,
      "t": 165706.6795312498,
      "d": 535.7137499999953,
      "v": 54
    },
    {
      "midi": 66,
      "hit": false,
      "t": 165706.6795312498,
      "d": 535.7137499999953,
      "v": 52
    },
    {
      "midi": 62,
      "hit": false,
      "t": 165706.6795312499,
      "d": 483.6304687499942,
      "v": 49
    },
    {
      "midi": 69,
      "hit": false,
      "t": 165706.6795312499,
      "d": 595.2374999999884,
      "v": 49
    },
    {
      "midi": 61,
      "hit": false,
      "t": 166242.3932812498,
      "d": 171.1307812499872,
      "v": 28
    },
    {
      "midi": 64,
      "hit": false,
      "t": 166242.3932812498,
      "d": 171.1307812499872,
      "v": 42
    },
    {
      "midi": 69,
      "hit": false,
      "t": 166242.3932812498,
      "d": 171.1307812499872,
      "v": 34
    },
    {
      "midi": 61,
      "hit": false,
      "t": 166420.96453124977,
      "d": 535.7137499999953,
      "v": 38
    },
    {
      "midi": 64,
      "hit": false,
      "t": 166420.96453124977,
      "d": 535.7137499999953,
      "v": 41
    },
    {
      "midi": 69,
      "hit": false,
      "t": 166420.96453124977,
      "d": 535.7137499999953,
      "v": 35
    },
    {
      "midi": 64,
      "hit": false,
      "t": 166428.40499999988,
      "d": 349.70203124999534,
      "v": 43
    },
    {
      "midi": 69,
      "hit": false,
      "t": 166428.40499999988,
      "d": 349.70203124999534,
      "v": 45
    },
    {
      "midi": 61,
      "hit": false,
      "t": 166435.84546874987,
      "d": 319.94015624999884,
      "v": 48
    },
    {
      "midi": 66,
      "hit": false,
      "t": 167135.24953124986,
      "d": 1279.7606249999662,
      "v": 41
    },
    {
      "midi": 71,
      "hit": false,
      "t": 167142.68999999986,
      "d": 1019.3442187499895,
      "v": 35
    },
    {
      "midi": 62,
      "hit": false,
      "t": 167142.68999999986,
      "d": 1108.629843749979,
      "v": 37
    },
    {
      "midi": 66,
      "hit": false,
      "t": 168556.37906249982,
      "d": 401.7853124999965,
      "v": 28
    },
    {
      "midi": 62,
      "hit": false,
      "t": 168556.37906249982,
      "d": 438.98765624998487,
      "v": 26
    },
    {
      "midi": 69,
      "hit": false,
      "t": 168556.37906249982,
      "d": 513.3923437499907,
      "v": 25
    },
    {
      "midi": 69,
      "hit": false,
      "t": 168563.81953124976,
      "d": 528.2732812500035,
      "v": 30
    },
    {
      "midi": 62,
      "hit": false,
      "t": 168563.81953124976,
      "d": 535.7137499999953,
      "v": 36
    },
    {
      "midi": 66,
      "hit": false,
      "t": 168563.81953124976,
      "d": 535.7137499999953,
      "v": 34
    },
    {
      "midi": 61,
      "hit": false,
      "t": 169099.53328124975,
      "d": 171.1307812499872,
      "v": 26
    },
    {
      "midi": 64,
      "hit": false,
      "t": 169099.53328124975,
      "d": 171.1307812499872,
      "v": 28
    },
    {
      "midi": 69,
      "hit": false,
      "t": 169099.53328124975,
      "d": 171.1307812499872,
      "v": 23
    },
    {
      "midi": 61,
      "hit": false,
      "t": 169263.2235937498,
      "d": 416.6662500000093,
      "v": 21
    },
    {
      "midi": 69,
      "hit": false,
      "t": 169263.2235937498,
      "d": 416.6662500000093,
      "v": 18
    },
    {
      "midi": 64,
      "hit": false,
      "t": 169263.2235937498,
      "d": 438.98765625001397,
      "v": 19
    },
    {
      "midi": 61,
      "hit": false,
      "t": 169278.10453124973,
      "d": 535.7137499999953,
      "v": 28
    },
    {
      "midi": 64,
      "hit": false,
      "t": 169278.10453124973,
      "d": 535.7137499999953,
      "v": 28
    },
    {
      "midi": 69,
      "hit": false,
      "t": 169278.10453124973,
      "d": 535.7137499999953,
      "v": 24
    },
    {
      "midi": 66,
      "hit": false,
      "t": 169984.94906249983,
      "d": 1249.9987499999988,
      "v": 13
    },
    {
      "midi": 71,
      "hit": false,
      "t": 169992.38953124982,
      "d": 1116.0703125,
      "v": 13
    },
    {
      "midi": 62,
      "hit": false,
      "t": 169992.38953124982,
      "d": 1227.6773437499942,
      "v": 12
    },
    {
      "midi": 66,
      "hit": false,
      "t": 171413.51906249984,
      "d": 468.7495312500105,
      "v": 2
    }
  ]
}