{
  "jsonPath": "Rock/Folk Rock/Jay  The Americans/she-cried.json",
  "path": "Rock\\Folk Rock\\Jay  The Americans\\She Cried.mid",
  "name": "She Cried",
  "difficulty": "Advanced",
  "bpm": 100,
  "notes": [
    {
      "midi": 56,
      "hit": false,
      "t": 2400,
      "d": 4800,
      "v": 63
    },
    {
      "midi": 60,
      "hit": false,
      "t": 2400,
      "d": 4800,
      "v": 63
    },
    {
      "midi": 63,
      "hit": false,
      "t": 2400,
      "d": 4800,
      "v": 63
    },
    {
      "midi": 53,
      "hit": false,
      "t": 7200,
      "d": 1340,
      "v": 75
    },
    {
      "midi": 58,
      "hit": false,
      "t": 7200,
      "d": 1550,
      "v": 42
    },
    {
      "midi": 62,
      "hit": false,
      "t": 7200,
      "d": 1680,
      "v": 57
    },
    {
      "midi": 65,
      "hit": false,
      "t": 7200,
      "d": 1810,
      "v": 63
    },
    {
      "midi": 53,
      "hit": false,
      "t": 8700,
      "d": 2235,
      "v": 75
    },
    {
      "midi": 62,
      "hit": false,
      "t": 9000,
      "d": 2555,
      "v": 86
    },
    {
      "midi": 65,
      "hit": false,
      "t": 9300,
      "d": 2300,
      "v": 76
    },
    {
      "midi": 70,
      "hit": false,
      "t": 9600,
      "d": 2020,
      "v": 63
    },
    {
      "midi": 53,
      "hit": false,
      "t": 12000,
      "d": 2545,
      "v": 52
    },
    {
      "midi": 58,
      "hit": false,
      "t": 12000,
      "d": 2805,
      "v": 47
    },
    {
      "midi": 62,
      "hit": false,
      "t": 12000,
      "d": 3045,
      "v": 61
    },
    {
      "midi": 65,
      "hit": false,
      "t": 12000,
      "d": 4105,
      "v": 57
    },
    {
      "midi": 46,
      "hit": false,
      "t": 12000,
      "d": 4450,
      "v": 29
    },
    {
      "midi": 53,
      "hit": false,
      "t": 14700,
      "d": 1750,
      "v": 60
    },
    {
      "midi": 58,
      "hit": false,
      "t": 15300,
      "d": 1150,
      "v": 55
    },
    {
      "midi": 62,
      "hit": false,
      "t": 15900,
      "d": 550,
      "v": 29
    },
    {
      "midi": 65,
      "hit": false,
      "t": 16500,
      "d": 100,
      "v": 63
    },
    {
      "midi": 58,
      "hit": false,
      "t": 16500,
      "d": 5090,
      "v": 63
    },
    {
      "midi": 62,
      "hit": false,
      "t": 16500,
      "d": 5090,
      "v": 63
    },
    {
      "midi": 56,
      "hit": false,
      "t": 21600,
      "d": 4800,
      "v": 63
    },
    {
      "midi": 60,
      "hit": false,
      "t": 21600,
      "d": 4800,
      "v": 63
    },
    {
      "midi": 63,
      "hit": false,
      "t": 21600,
      "d": 4800,
      "v": 63
    },
    {
      "midi": 60,
      "hit": false,
      "t": 26400,
      "d": 1340,
      "v": 75
    },
    {
      "midi": 63,
      "hit": false,
      "t": 26400,
      "d": 1550,
      "v": 42
    },
    {
      "midi": 68,
      "hit": false,
      "t": 26400,
      "d": 1680,
      "v": 57
    },
    {
      "midi": 72,
      "hit": false,
      "t": 26400,
      "d": 1810,
      "v": 63
    },
    {
      "midi": 60,
      "hit": false,
      "t": 27900,
      "d": 2235,
      "v": 75
    },
    {
      "midi": 68,
      "hit": false,
      "t": 28200,
      "d": 2555,
      "v": 86
    },
    {
      "midi": 72,
      "hit": false,
      "t": 28500,
      "d": 2300,
      "v": 76
    },
    {
      "midi": 75,
      "hit": false,
      "t": 28800,
      "d": 2020,
      "v": 63
    },
    {
      "midi": 53,
      "hit": false,
      "t": 31200,
      "d": 4800,
      "v": 63
    },
    {
      "midi": 58,
      "hit": false,
      "t": 31200,
      "d": 4800,
      "v": 63
    },
    {
      "midi": 62,
      "hit": false,
      "t": 31200,
      "d": 4800,
      "v": 63
    },
    {
      "midi": 53,
      "hit": false,
      "t": 36000,
      "d": 2545,
      "v": 52
    },
    {
      "midi": 58,
      "hit": false,
      "t": 36000,
      "d": 2805,
      "v": 47
    },
    {
      "midi": 62,
      "hit": false,
      "t": 36000,
      "d": 3045,
      "v": 61
    },
    {
      "midi": 65,
      "hit": false,
      "t": 36000,
      "d": 4105,
      "v": 57
    },
    {
      "midi": 46,
      "hit": false,
      "t": 36000,
      "d": 4450,
      "v": 29
    },
    {
      "midi": 53,
      "hit": false,
      "t": 38700,
      "d": 1750,
      "v": 60
    },
    {
      "midi": 58,
      "hit": false,
      "t": 39300,
      "d": 1150,
      "v": 55
    },
    {
      "midi": 62,
      "hit": false,
      "t": 39900,
      "d": 550,
      "v": 29
    },
    {
      "midi": 60,
      "hit": false,
      "t": 40500,
      "d": 1630,
      "v": 75
    },
    {
      "midi": 63,
      "hit": false,
      "t": 40500,
      "d": 1840,
      "v": 42
    },
    {
      "midi": 68,
      "hit": false,
      "t": 40500,
      "d": 1970,
      "v": 57
    },
    {
      "midi": 72,
      "hit": false,
      "t": 40500,
      "d": 2100,
      "v": 63
    },
    {
      "midi": 60,
      "hit": false,
      "t": 42300,
      "d": 2235,
      "v": 75
    },
    {
      "midi": 68,
      "hit": false,
      "t": 42600,
      "d": 2555,
      "v": 86
    },
    {
      "midi": 72,
      "hit": false,
      "t": 42900,
      "d": 2300,
      "v": 76
    },
    {
      "midi": 75,
      "hit": false,
      "t": 43200,
      "d": 2020,
      "v": 63
    },
    {
      "midi": 56,
      "hit": false,
      "t": 45300,
      "d": 5090,
      "v": 63
    },
    {
      "midi": 60,
      "hit": false,
      "t": 45300,
      "d": 5090,
      "v": 63
    },
    {
      "midi": 63,
      "hit": false,
      "t": 45300,
      "d": 5090,
      "v": 63
    },
    {
      "midi": 58,
      "hit": false,
      "t": 50400,
      "d": 4800,
      "v": 63
    },
    {
      "midi": 61,
      "hit": false,
      "t": 50400,
      "d": 4800,
      "v": 63
    },
    {
      "midi": 66,
      "hit": false,
      "t": 50400,
      "d": 4800,
      "v": 63
    },
    {
      "midi": 56,
      "hit": false,
      "t": 55200,
      "d": 4800,
      "v": 63
    },
    {
      "midi": 60,
      "hit": false,
      "t": 55200,
      "d": 4800,
      "v": 63
    },
    {
      "midi": 63,
      "hit": false,
      "t": 55200,
      "d": 4800,
      "v": 63
    },
    {
      "midi": 58,
      "hit": false,
      "t": 60000,
      "d": 2545,
      "v": 52
    },
    {
      "midi": 61,
      "hit": false,
      "t": 60000,
      "d": 2805,
      "v": 47
    },
    {
      "midi": 66,
      "hit": false,
      "t": 60000,
      "d": 3045,
      "v": 61
    },
    {
      "midi": 70,
      "hit": false,
      "t": 60000,
      "d": 4105,
      "v": 57
    },
    {
      "midi": 42,
      "hit": false,
      "t": 60000,
      "d": 4765,
      "v": 29
    },
    {
      "midi": 58,
      "hit": false,
      "t": 62700,
      "d": 2100,
      "v": 60
    },
    {
      "midi": 61,
      "hit": false,
      "t": 63300,
      "d": 1500,
      "v": 55
    },
    {
      "midi": 66,
      "hit": false,
      "t": 63900,
      "d": 900,
      "v": 29
    },
    {
      "midi": 70,
      "hit": false,
      "t": 64500,
      "d": 300,
      "v": 56
    },
    {
      "midi": 56,
      "hit": false,
      "t": 64800,
      "d": 4800,
      "v": 63
    },
    {
      "midi": 60,
      "hit": false,
      "t": 64800,
      "d": 4800,
      "v": 63
    },
    {
      "midi": 63,
      "hit": false,
      "t": 64800,
      "d": 4800,
      "v": 63
    },
    {
      "midi": 58,
      "hit": false,
      "t": 69600,
      "d": 4800,
      "v": 63
    },
    {
      "midi": 62,
      "hit": false,
      "t": 69600,
      "d": 4800,
      "v": 63
    },
    {
      "midi": 65,
      "hit": false,
      "t": 69600,
      "d": 4800,
      "v": 63
    },
    {
      "midi": 53,
      "hit": false,
      "t": 74400,
      "d": 2545,
      "v": 52
    },
    {
      "midi": 58,
      "hit": false,
      "t": 74400,
      "d": 2805,
      "v": 47
    },
    {
      "midi": 62,
      "hit": false,
      "t": 74400,
      "d": 3045,
      "v": 61
    },
    {
      "midi": 65,
      "hit": false,
      "t": 74400,
      "d": 4105,
      "v": 57
    },
    {
      "midi": 46,
      "hit": false,
      "t": 74400,
      "d": 4765,
      "v": 29
    },
    {
      "midi": 53,
      "hit": false,
      "t": 77100,
      "d": 2100,
      "v": 60
    },
    {
      "midi": 58,
      "hit": false,
      "t": 77700,
      "d": 1500,
      "v": 55
    },
    {
      "midi": 62,
      "hit": false,
      "t": 78300,
      "d": 900,
      "v": 29
    },
    {
      "midi": 65,
      "hit": false,
      "t": 78900,
      "d": 300,
      "v": 56
    },
    {
      "midi": 60,
      "hit": false,
      "t": 79200,
      "d": 2545,
      "v": 52
    },
    {
      "midi": 63,
      "hit": false,
      "t": 79200,
      "d": 2805,
      "v": 47
    },
    {
      "midi": 68,
      "hit": false,
      "t": 79200,
      "d": 3045,
      "v": 61
    },
    {
      "midi": 72,
      "hit": false,
      "t": 79200,
      "d": 4105,
      "v": 57
    },
    {
      "midi": 44,
      "hit": false,
      "t": 79200,
      "d": 4765,
      "v": 29
    },
    {
      "midi": 60,
      "hit": false,
      "t": 81900,
      "d": 2100,
      "v": 60
    },
    {
      "midi": 63,
      "hit": false,
      "t": 82500,
      "d": 1500,
      "v": 55
    },
    {
      "midi": 68,
      "hit": false,
      "t": 83100,
      "d": 900,
      "v": 29
    },
    {
      "midi": 72,
      "hit": false,
      "t": 83700,
      "d": 300,
      "v": 56
    },
    {
      "midi": 72,
      "hit": false,
      "t": 84005,
      "d": 3290,
      "v": 59
    },
    {
      "midi": 60,
      "hit": false,
      "t": 84015,
      "d": 2515,
      "v": 69
    },
    {
      "midi": 63,
      "hit": false,
      "t": 84015,
      "d": 2800,
      "v": 47
    },
    {
      "midi": 68,
      "hit": false,
      "t": 84015,
      "d": 2980,
      "v": 61
    },
    {
      "midi": 60,
      "hit": false,
      "t": 86690,
      "d": 1795,
      "v": 76
    },
    {
      "midi": 63,
      "hit": false,
      "t": 87320,
      "d": 1180,
      "v": 44
    },
    {
      "midi": 68,
      "hit": false,
      "t": 87895,
      "d": 580,
      "v": 52
    },
    {
      "midi": 72,
      "hit": false,
      "t": 88205,
      "d": 295,
      "v": 64
    },
    {
      "midi": 53,
      "hit": false,
      "t": 88800,
      "d": 1340,
      "v": 75
    },
    {
      "midi": 58,
      "hit": false,
      "t": 88800,
      "d": 1550,
      "v": 42
    },
    {
      "midi": 62,
      "hit": false,
      "t": 88800,
      "d": 1680,
      "v": 57
    },
    {
      "midi": 65,
      "hit": false,
      "t": 88800,
      "d": 1810,
      "v": 63
    },
    {
      "midi": 53,
      "hit": false,
      "t": 90300,
      "d": 2235,
      "v": 75
    },
    {
      "midi": 62,
      "hit": false,
      "t": 90600,
      "d": 2555,
      "v": 86
    },
    {
      "midi": 65,
      "hit": false,
      "t": 90900,
      "d": 2300,
      "v": 76
    },
    {
      "midi": 70,
      "hit": false,
      "t": 91200,
      "d": 2020,
      "v": 63
    },
    {
      "midi": 58,
      "hit": false,
      "t": 93600,
      "d": 4800,
      "v": 63
    },
    {
      "midi": 62,
      "hit": false,
      "t": 93600,
      "d": 4800,
      "v": 63
    },
    {
      "midi": 65,
      "hit": false,
      "t": 93600,
      "d": 4800,
      "v": 63
    },
    {
      "midi": 60,
      "hit": false,
      "t": 98400,
      "d": 1245,
      "v": 68
    },
    {
      "midi": 68,
      "hit": false,
      "t": 98400,
      "d": 3330,
      "v": 41
    },
    {
      "midi": 72,
      "hit": false,
      "t": 98400,
      "d": 3405,
      "v": 58
    },
    {
      "midi": 60,
      "hit": false,
      "t": 99900,
      "d": 1575,
      "v": 67
    },
    {
      "midi": 75,
      "hit": false,
      "t": 100500,
      "d": 2410,
      "v": 56
    },
    {
      "midi": 60,
      "hit": false,
      "t": 101700,
      "d": 1090,
      "v": 61
    },
    {
      "midi": 68,
      "hit": false,
      "t": 102000,
      "d": 910,
      "v": 47
    },
    {
      "midi": 72,
      "hit": false,
      "t": 102600,
      "d": 270,
      "v": 63
    },
    {
      "midi": 72,
      "hit": false,
      "t": 103205,
      "d": 3290,
      "v": 59
    },
    {
      "midi": 60,
      "hit": false,
      "t": 103215,
      "d": 2515,
      "v": 69
    },
    {
      "midi": 63,
      "hit": false,
      "t": 103215,
      "d": 2800,
      "v": 47
    },
    {
      "midi": 68,
      "hit": false,
      "t": 103215,
      "d": 2980,
      "v": 61
    },
    {
      "midi": 60,
      "hit": false,
      "t": 105890,
      "d": 1795,
      "v": 76
    },
    {
      "midi": 63,
      "hit": false,
      "t": 106520,
      "d": 1180,
      "v": 44
    },
    {
      "midi": 68,
      "hit": false,
      "t": 107095,
      "d": 580,
      "v": 52
    },
    {
      "midi": 72,
      "hit": false,
      "t": 107405,
      "d": 295,
      "v": 64
    },
    {
      "midi": 53,
      "hit": false,
      "t": 108000,
      "d": 2545,
      "v": 52
    },
    {
      "midi": 58,
      "hit": false,
      "t": 108000,
      "d": 2805,
      "v": 47
    },
    {
      "midi": 62,
      "hit": false,
      "t": 108000,
      "d": 3045,
      "v": 61
    },
    {
      "midi": 65,
      "hit": false,
      "t": 108000,
      "d": 4105,
      "v": 57
    },
    {
      "midi": 46,
      "hit": false,
      "t": 108000,
      "d": 4765,
      "v": 29
    },
    {
      "midi": 53,
      "hit": false,
      "t": 110700,
      "d": 2100,
      "v": 60
    },
    {
      "midi": 58,
      "hit": false,
      "t": 111300,
      "d": 1500,
      "v": 55
    },
    {
      "midi": 62,
      "hit": false,
      "t": 111900,
      "d": 900,
      "v": 29
    },
    {
      "midi": 65,
      "hit": false,
      "t": 112500,
      "d": 300,
      "v": 56
    },
    {
      "midi": 53,
      "hit": false,
      "t": 112800,
      "d": 600,
      "v": 67
    },
    {
      "midi": 62,
      "hit": false,
      "t": 112800,
      "d": 600,
      "v": 63
    }
  ]
}