{
  "jsonPath": "Rock/Folk Rock/Jay  The Americans/this-magic-moment.json",
  "path": "Rock\\Folk Rock\\Jay  The Americans\\This Magic Moment.mid",
  "name": "This Magic Moment",
  "difficulty": "Advanced",
  "bpm": 126.00039060121087,
  "notes": [
    {
      "midi": 55,
      "hit": false,
      "t": 19047.56,
      "d": 386.9035624999997,
      "v": 97
    },
    {
      "midi": 64,
      "hit": false,
      "t": 19047.56,
      "d": 389.3837135416652,
      "v": 92
    },
    {
      "midi": 60,
      "hit": false,
      "t": 19047.56,
      "d": 396.8241666666654,
      "v": 99
    },
    {
      "midi": 55,
      "hit": false,
      "t": 19523.749,
      "d": 257.93570833333433,
      "v": 71
    },
    {
      "midi": 60,
      "hit": false,
      "t": 19523.749,
      "d": 285.217369791666,
      "v": 82
    },
    {
      "midi": 64,
      "hit": false,
      "t": 19523.749,
      "d": 290.17767187500067,
      "v": 78
    },
    {
      "midi": 48,
      "hit": false,
      "t": 19761.8435,
      "d": 376.98295833333395,
      "v": 117
    },
    {
      "midi": 55,
      "hit": false,
      "t": 20238.0325,
      "d": 138.8884583333347,
      "v": 83
    },
    {
      "midi": 55,
      "hit": false,
      "t": 20476.127000000004,
      "d": 89.2854374999988,
      "v": 85
    },
    {
      "midi": 60,
      "hit": false,
      "t": 20476.127000000004,
      "d": 96.72589062499901,
      "v": 99
    },
    {
      "midi": 64,
      "hit": false,
      "t": 20476.127000000004,
      "d": 111.60679687499942,
      "v": 88
    },
    {
      "midi": 62,
      "hit": false,
      "t": 20714.221500000003,
      "d": 128.96785416666535,
      "v": 104
    },
    {
      "midi": 65,
      "hit": false,
      "t": 20714.221500000003,
      "d": 128.96785416666535,
      "v": 94
    },
    {
      "midi": 55,
      "hit": false,
      "t": 20714.221500000003,
      "d": 138.88845833333107,
      "v": 92
    },
    {
      "midi": 48,
      "hit": false,
      "t": 20952.316000000003,
      "d": 689.4819895833316,
      "v": 88
    },
    {
      "midi": 55,
      "hit": false,
      "t": 20952.316000000003,
      "d": 761.4063697916645,
      "v": 88
    },
    {
      "midi": 64,
      "hit": false,
      "t": 20952.316000000003,
      "d": 761.4063697916645,
      "v": 88
    },
    {
      "midi": 60,
      "hit": false,
      "t": 20952.316000000003,
      "d": 793.6483333333308,
      "v": 94
    },
    {
      "midi": 48,
      "hit": false,
      "t": 21666.5995,
      "d": 188.49147916666698,
      "v": 99
    },
    {
      "midi": 55,
      "hit": false,
      "t": 21904.694,
      "d": 317.4593333333323,
      "v": 88
    },
    {
      "midi": 64,
      "hit": false,
      "t": 21904.694,
      "d": 329.8600885416672,
      "v": 88
    },
    {
      "midi": 60,
      "hit": false,
      "t": 21904.694,
      "d": 347.22114583333314,
      "v": 92
    },
    {
      "midi": 48,
      "hit": false,
      "t": 22142.7885,
      "d": 84.32513541666776,
      "v": 99
    },
    {
      "midi": 55,
      "hit": false,
      "t": 22380.882999999998,
      "d": 190.9716302083325,
      "v": 90
    },
    {
      "midi": 64,
      "hit": false,
      "t": 22380.882999999998,
      "d": 314.9791822916668,
      "v": 88
    },
    {
      "midi": 60,
      "hit": false,
      "t": 22380.882999999998,
      "d": 319.9394843750015,
      "v": 99
    },
    {
      "midi": 45,
      "hit": false,
      "t": 22618.977499999997,
      "d": 101.68619270833733,
      "v": 59
    },
    {
      "midi": 57,
      "hit": false,
      "t": 22857.072,
      "d": 818.449843749997,
      "v": 88
    },
    {
      "midi": 64,
      "hit": false,
      "t": 22857.072,
      "d": 835.8109010416629,
      "v": 88
    },
    {
      "midi": 60,
      "hit": false,
      "t": 22857.072,
      "d": 843.2513541666631,
      "v": 94
    },
    {
      "midi": 45,
      "hit": false,
      "t": 22857.072,
      "d": 868.0528645833328,
      "v": 92
    },
    {
      "midi": 52,
      "hit": false,
      "t": 23571.355499999998,
      "d": 148.80906250000044,
      "v": 74
    },
    {
      "midi": 57,
      "hit": false,
      "t": 23809.45,
      "d": 94.24573958333349,
      "v": 66
    },
    {
      "midi": 60,
      "hit": false,
      "t": 23809.45,
      "d": 106.64649479166837,
      "v": 68
    },
    {
      "midi": 64,
      "hit": false,
      "t": 23809.45,
      "d": 138.8884583333347,
      "v": 70
    },
    {
      "midi": 45,
      "hit": false,
      "t": 24047.544500000004,
      "d": 334.8203906250019,
      "v": 73
    },
    {
      "midi": 57,
      "hit": false,
      "t": 24523.733500000006,
      "d": 71.92438020833288,
      "v": 85
    },
    {
      "midi": 60,
      "hit": false,
      "t": 24523.733500000006,
      "d": 71.92438020833288,
      "v": 99
    },
    {
      "midi": 64,
      "hit": false,
      "t": 24523.733500000006,
      "d": 94.24573958333349,
      "v": 85
    },
    {
      "midi": 57,
      "hit": false,
      "t": 24761.828000000005,
      "d": 845.7315052083322,
      "v": 82
    },
    {
      "midi": 64,
      "hit": false,
      "t": 24761.828000000005,
      "d": 845.7315052083322,
      "v": 79
    },
    {
      "midi": 60,
      "hit": false,
      "t": 24761.828000000005,
      "d": 855.652109374998,
      "v": 88
    },
    {
      "midi": 45,
      "hit": false,
      "t": 24999.922500000004,
      "d": 1190.4724999999999,
      "v": 57
    },
    {
      "midi": 52,
      "hit": false,
      "t": 25476.111500000003,
      "d": 292.6578229166662,
      "v": 97
    },
    {
      "midi": 57,
      "hit": false,
      "t": 25714.206000000002,
      "d": 362.10205208333355,
      "v": 78
    },
    {
      "midi": 64,
      "hit": false,
      "t": 25714.206000000002,
      "d": 372.0226562499993,
      "v": 80
    },
    {
      "midi": 60,
      "hit": false,
      "t": 25714.206000000002,
      "d": 384.42341145833416,
      "v": 82
    },
    {
      "midi": 52,
      "hit": false,
      "t": 25952.3005,
      "d": 116.5670989583341,
      "v": 75
    },
    {
      "midi": 60,
      "hit": false,
      "t": 26190.395000000004,
      "d": 99.20604166666817,
      "v": 92
    },
    {
      "midi": 64,
      "hit": false,
      "t": 26190.395000000004,
      "d": 114.08694791666858,
      "v": 83
    },
    {
      "midi": 57,
      "hit": false,
      "t": 26190.395000000004,
      "d": 128.96785416666899,
      "v": 86
    },
    {
      "midi": 48,
      "hit": false,
      "t": 26428.489500000007,
      "d": 96.72589062499901,
      "v": 73
    },
    {
      "midi": 53,
      "hit": false,
      "t": 26666.584000000006,
      "d": 550.5935312499969,
      "v": 78
    },
    {
      "midi": 57,
      "hit": false,
      "t": 26666.584000000006,
      "d": 786.2078802083306,
      "v": 86
    },
    {
      "midi": 60,
      "hit": false,
      "t": 26666.584000000006,
      "d": 989.580265624998,
      "v": 80
    },
    {
      "midi": 41,
      "hit": false,
      "t": 26666.584000000006,
      "d": 1904.755999999994,
      "v": 88
    },
    {
      "midi": 48,
      "hit": false,
      "t": 27142.773000000005,
      "d": 128.96785416666535,
      "v": 85
    },
    {
      "midi": 53,
      "hit": false,
      "t": 27380.867500000004,
      "d": 245.53495312499945,
      "v": 63
    },
    {
      "midi": 57,
      "hit": false,
      "t": 27499.914750000004,
      "d": 104.16634374999921,
      "v": 40
    },
    {
      "midi": 48,
      "hit": false,
      "t": 27618.962000000003,
      "d": 163.68996875000084,
      "v": 88
    },
    {
      "midi": 53,
      "hit": false,
      "t": 27857.056500000002,
      "d": 94.24573958333349,
      "v": 83
    },
    {
      "midi": 57,
      "hit": false,
      "t": 28095.151,
      "d": 148.80906250000044,
      "v": 92
    },
    {
      "midi": 53,
      "hit": false,
      "t": 28095.151,
      "d": 163.68996875000084,
      "v": 85
    },
    {
      "midi": 60,
      "hit": false,
      "t": 28095.151,
      "d": 163.68996875000084,
      "v": 83
    },
    {
      "midi": 62,
      "hit": false,
      "t": 28333.2455,
      "d": 119.04724999999962,
      "v": 85
    },
    {
      "midi": 59,
      "hit": false,
      "t": 28333.2455,
      "d": 126.48770312499983,
      "v": 90
    },
    {
      "midi": 53,
      "hit": false,
      "t": 28333.2455,
      "d": 141.36860937500023,
      "v": 66
    },
    {
      "midi": 53,
      "hit": false,
      "t": 28571.34,
      "d": 624.9980624999989,
      "v": 73
    },
    {
      "midi": 60,
      "hit": false,
      "t": 28571.34,
      "d": 751.4857656249987,
      "v": 82
    },
    {
      "midi": 57,
      "hit": false,
      "t": 28571.34,
      "d": 761.4063697916645,
      "v": 90
    },
    {
      "midi": 41,
      "hit": false,
      "t": 28809.4345,
      "d": 1195.4328020833345,
      "v": 86
    },
    {
      "midi": 48,
      "hit": false,
      "t": 29285.623499999998,
      "d": 121.52740104166514,
      "v": 97
    },
    {
      "midi": 53,
      "hit": false,
      "t": 29523.717999999997,
      "d": 275.29676562500026,
      "v": 80
    },
    {
      "midi": 57,
      "hit": false,
      "t": 29523.717999999997,
      "d": 295.13797395833535,
      "v": 86
    },
    {
      "midi": 60,
      "hit": false,
      "t": 29523.717999999997,
      "d": 295.13797395833535,
      "v": 80
    },
    {
      "midi": 48,
      "hit": false,
      "t": 29761.812499999996,
      "d": 183.53117708333593,
      "v": 97
    },
    {
      "midi": 53,
      "hit": false,
      "t": 29999.907,
      "d": 193.45178125000166,
      "v": 76
    },
    {
      "midi": 57,
      "hit": false,
      "t": 29999.907,
      "d": 267.8563125000037,
      "v": 88
    },
    {
      "midi": 60,
      "hit": false,
      "t": 29999.907,
      "d": 302.57842708333555,
      "v": 79
    },
    {
      "midi": 43,
      "hit": false,
      "t": 30238.001500000002,
      "d": 843.2513541666631,
      "v": 97
    },
    {
      "midi": 55,
      "hit": false,
      "t": 30476.096,
      "d": 314.9791822916668,
      "v": 83
    },
    {
      "midi": 62,
      "hit": false,
      "t": 30476.096,
      "d": 337.3005416666674,
      "v": 79
    },
    {
      "midi": 59,
      "hit": false,
      "t": 30476.096,
      "d": 347.22114583333314,
      "v": 88
    },
    {
      "midi": 50,
      "hit": false,
      "t": 30714.1905,
      "d": 255.45555729166517,
      "v": 80
    },
    {
      "midi": 60,
      "hit": false,
      "t": 30952.285,
      "d": 272.8166145833311,
      "v": 90
    },
    {
      "midi": 64,
      "hit": false,
      "t": 30952.285,
      "d": 272.8166145833311,
      "v": 82
    },
    {
      "midi": 55,
      "hit": false,
      "t": 30952.285,
      "d": 280.2570677083313,
      "v": 82
    },
    {
      "midi": 43,
      "hit": false,
      "t": 31190.3795,
      "d": 858.1322604166671,
      "v": 75
    },
    {
      "midi": 55,
      "hit": false,
      "t": 31428.474,
      "d": 297.6181250000009,
      "v": 85
    },
    {
      "midi": 59,
      "hit": false,
      "t": 31428.474,
      "d": 312.4990312500013,
      "v": 92
    },
    {
      "midi": 62,
      "hit": false,
      "t": 31428.474,
      "d": 317.45933333333596,
      "v": 85
    },
    {
      "midi": 50,
      "hit": false,
      "t": 31666.568499999998,
      "d": 285.2173697916696,
      "v": 94
    },
    {
      "midi": 55,
      "hit": false,
      "t": 31904.663,
      "d": 285.217369791666,
      "v": 86
    },
    {
      "midi": 60,
      "hit": false,
      "t": 31904.663,
      "d": 287.6975208333315,
      "v": 94
    },
    {
      "midi": 64,
      "hit": false,
      "t": 31904.663,
      "d": 297.61812499999724,
      "v": 88
    },
    {
      "midi": 50,
      "hit": false,
      "t": 32142.7575,
      "d": 99.20604166666453,
      "v": 101
    },
    {
      "midi": 55,
      "hit": false,
      "t": 32380.851999999995,
      "d": 173.61057291666657,
      "v": 97
    },
    {
      "midi": 59,
      "hit": false,
      "t": 32380.851999999995,
      "d": 173.61057291666657,
      "v": 107
    },
    {
      "midi": 62,
      "hit": false,
      "t": 32380.851999999995,
      "d": 173.61057291666657,
      "v": 97
    },
    {
      "midi": 43,
      "hit": false,
      "t": 32380.851999999995,
      "d": 193.45178125000166,
      "v": 104
    },
    {
      "midi": 55,
      "hit": false,
      "t": 34285.608,
      "d": 575.3950416666703,
      "v": 97
    },
    {
      "midi": 60,
      "hit": false,
      "t": 34285.608,
      "d": 823.4101458333389,
      "v": 94
    },
    {
      "midi": 64,
      "hit": false,
      "t": 34285.608,
      "d": 989.5802656250016,
      "v": 107
    },
    {
      "midi": 67,
      "hit": false,
      "t": 34285.608,
      "d": 1029.2626822916718,
      "v": 97
    },
    {
      "midi": 48,
      "hit": false,
      "t": 34285.608,
      "d": 1068.945098958342,
      "v": 104
    },
    {
      "midi": 55,
      "hit": false,
      "t": 34999.891500000005,
      "d": 138.8884583333347,
      "v": 92
    },
    {
      "midi": 60,
      "hit": false,
      "t": 35237.986000000004,
      "d": 208.3326875000057,
      "v": 67
    },
    {
      "midi": 55,
      "hit": false,
      "t": 35476.08050000001,
      "d": 79.36483333333308,
      "v": 94
    },
    {
      "midi": 48,
      "hit": false,
      "t": 35714.17500000001,
      "d": 339.7806927083293,
      "v": 97
    },
    {
      "midi": 69,
      "hit": false,
      "t": 35714.17500000001,
      "d": 347.22114583332586,
      "v": 97
    },
    {
      "midi": 60,
      "hit": false,
      "t": 35714.17500000001,
      "d": 362.10205208332627,
      "v": 94
    },
    {
      "midi": 65,
      "hit": false,
      "t": 35714.17500000001,
      "d": 362.10205208332627,
      "v": 110
    },
    {
      "midi": 55,
      "hit": false,
      "t": 36190.364,
      "d": 560.5141354166626,
      "v": 85
    },
    {
      "midi": 67,
      "hit": false,
      "t": 36190.364,
      "d": 1329.360958333331,
      "v": 83
    },
    {
      "midi": 60,
      "hit": false,
      "t": 36190.364,
      "d": 1339.2815625000003,
      "v": 79
    },
    {
      "midi": 64,
      "hit": false,
      "t": 36190.364,
      "d": 1339.2815625000003,
      "v": 88
    },
    {
      "midi": 48,
      "hit": false,
      "t": 36190.364,
      "d": 1488.0906250000044,
      "v": 88
    },
    {
      "midi": 55,
      "hit": false,
      "t": 36904.6475,
      "d": 285.217369791666,
      "v": 86
    },
    {
      "midi": 55,
      "hit": false,
      "t": 37380.8365,
      "d": 166.17011979167,
      "v": 90
    },
    {
      "midi": 64,
      "hit": false,
      "t": 37618.931000000004,
      "d": 151.2892135416696,
      "v": 104
    },
    {
      "midi": 60,
      "hit": false,
      "t": 37618.931000000004,
      "d": 163.68996875000448,
      "v": 94
    },
    {
      "midi": 67,
      "hit": false,
      "t": 37618.931000000004,
      "d": 163.68996875000448,
      "v": 94
    },
    {
      "midi": 45,
      "hit": false,
      "t": 38095.12000000001,
      "d": 1760.9072395833282,
      "v": 94
    },
    {
      "midi": 57,
      "hit": false,
      "t": 38095.12000000001,
      "d": 1790.669052083329,
      "v": 86
    },
    {
      "midi": 60,
      "hit": false,
      "t": 38095.12000000001,
      "d": 1795.62935416666,
      "v": 94
    },
    {
      "midi": 64,
      "hit": false,
      "t": 38095.12000000001,
      "d": 1795.62935416666,
      "v": 88
    },
    {
      "midi": 52,
      "hit": false,
      "t": 39404.63975000001,
      "d": 94.24573958333349,
      "v": 78
    },
    {
      "midi": 52,
      "hit": false,
      "t": 39761.781500000005,
      "d": 71.92438020833652,
      "v": 85
    },
    {
      "midi": 52,
      "hit": false,
      "t": 39999.876000000004,
      "d": 567.9545885416665,
      "v": 88
    },
    {
      "midi": 45,
      "hit": false,
      "t": 39999.876000000004,
      "d": 607.6370052083366,
      "v": 90
    },
    {
      "midi": 57,
      "hit": false,
      "t": 39999.876000000004,
      "d": 830.8505989583355,
      "v": 76
    },
    {
      "midi": 64,
      "hit": false,
      "t": 39999.876000000004,
      "d": 840.7712031250048,
      "v": 79
    },
    {
      "midi": 60,
      "hit": false,
      "t": 39999.876000000004,
      "d": 853.1719583333397,
      "v": 83
    },
    {
      "midi": 45,
      "hit": false,
      "t": 40714.15950000001,
      "d": 81.8449843749986,
      "v": 78
    },
    {
      "midi": 52,
      "hit": false,
      "t": 40714.15950000001,
      "d": 81.8449843749986,
      "v": 76
    },
    {
      "midi": 52,
      "hit": false,
      "t": 40952.25400000001,
      "d": 324.89978645833617,
      "v": 83
    },
    {
      "midi": 45,
      "hit": false,
      "t": 40952.25400000001,
      "d": 357.1417500000025,
      "v": 85
    },
    {
      "midi": 57,
      "hit": false,
      "t": 40952.25400000001,
      "d": 372.0226562500029,
      "v": 86
    },
    {
      "midi": 60,
      "hit": false,
      "t": 40952.25400000001,
      "d": 372.0226562500029,
      "v": 94
    },
    {
      "midi": 64,
      "hit": false,
      "t": 40952.25400000001,
      "d": 386.9035625000033,
      "v": 88
    },
    {
      "midi": 52,
      "hit": false,
      "t": 41428.443000000014,
      "d": 248.0151041666686,
      "v": 86
    },
    {
      "midi": 64,
      "hit": false,
      "t": 41428.443000000014,
      "d": 310.01888020833576,
      "v": 82
    },
    {
      "midi": 45,
      "hit": false,
      "t": 41428.443000000014,
      "d": 319.93948437499785,
      "v": 90
    },
    {
      "midi": 55,
      "hit": false,
      "t": 41428.443000000014,
      "d": 334.82039062499825,
      "v": 88
    },
    {
      "midi": 59,
      "hit": false,
      "t": 41428.443000000014,
      "d": 334.82039062499825,
      "v": 94
    },
    {
      "midi": 60,
      "hit": false,
      "t": 41904.63200000001,
      "d": 753.9659166666679,
      "v": 90
    },
    {
      "midi": 53,
      "hit": false,
      "t": 41904.63200000001,
      "d": 761.4063697916645,
      "v": 86
    },
    {
      "midi": 57,
      "hit": false,
      "t": 41904.63200000001,
      "d": 766.3666718749955,
      "v": 101
    },
    {
      "midi": 41,
      "hit": false,
      "t": 41904.63200000001,
      "d": 3469.7313072916368,
      "v": 88
    },
    {
      "midi": 48,
      "hit": false,
      "t": 42618.91550000001,
      "d": 136.4083072916619,
      "v": 85
    },
    {
      "midi": 53,
      "hit": false,
      "t": 42857.01,
      "d": 337.3005416666638,
      "v": 70
    },
    {
      "midi": 57,
      "hit": false,
      "t": 42857.01,
      "d": 429.06613020833174,
      "v": 79
    },
    {
      "midi": 60,
      "hit": false,
      "t": 42857.01,
      "d": 456.34779166666704,
      "v": 75
    },
    {
      "midi": 48,
      "hit": false,
      "t": 43095.1045,
      "d": 240.57465104167204,
      "v": 83
    },
    {
      "midi": 53,
      "hit": false,
      "t": 43333.19900000001,
      "d": 96.72589062499901,
      "v": 74
    },
    {
      "midi": 62,
      "hit": false,
      "t": 43571.29350000001,
      "d": 99.20604166666453,
      "v": 83
    },
    {
      "midi": 53,
      "hit": false,
      "t": 43571.29350000001,
      "d": 101.68619270833005,
      "v": 85
    },
    {
      "midi": 59,
      "hit": false,
      "t": 43571.29350000001,
      "d": 121.5274010416615,
      "v": 92
    },
    {
      "midi": 53,
      "hit": false,
      "t": 43809.388,
      "d": 575.395041666663,
      "v": 71
    },
    {
      "midi": 60,
      "hit": false,
      "t": 43809.388,
      "d": 1054.064192708327,
      "v": 82
    },
    {
      "midi": 57,
      "hit": false,
      "t": 43809.388,
      "d": 1068.9450989583202,
      "v": 88
    },
    {
      "midi": 48,
      "hit": false,
      "t": 44285.577,
      "d": 198.41208333332906,
      "v": 92
    },
    {
      "midi": 53,
      "hit": false,
      "t": 44523.6715,
      "d": 347.22114583332586,
      "v": 83
    },
    {
      "midi": 48,
      "hit": false,
      "t": 44761.765999999996,
      "d": 195.93193229166354,
      "v": 92
    },
    {
      "midi": 53,
      "hit": false,
      "t": 44999.860499999995,
      "d": 337.3005416666638,
      "v": 83
    },
    {
      "midi": 57,
      "hit": false,
      "t": 44999.860499999995,
      "d": 359.62190104166075,
      "v": 92
    },
    {
      "midi": 60,
      "hit": false,
      "t": 44999.860499999995,
      "d": 367.0623541666573,
      "v": 90
    },
    {
      "midi": 48,
      "hit": false,
      "t": 45237.954999999994,
      "d": 133.92815624998912,
      "v": 85
    },
    {
      "midi": 57,
      "hit": false,
      "t": 45476.04949999998,
      "d": 74.40453125000204,
      "v": 79
    },
    {
      "midi": 53,
      "hit": false,
      "t": 45476.04949999998,
      "d": 79.36483333333308,
      "v": 63
    },
    {
      "midi": 60,
      "hit": false,
      "t": 45476.04949999998,
      "d": 101.68619270833005,
      "v": 74
    },
    {
      "midi": 55,
      "hit": false,
      "t": 45714.14399999998,
      "d": 394.3440156249999,
      "v": 85
    },
    {
      "midi": 62,
      "hit": false,
      "t": 45714.14399999998,
      "d": 394.3440156249999,
      "v": 82
    },
    {
      "midi": 59,
      "hit": false,
      "t": 45714.14399999998,
      "d": 404.26461979166925,
      "v": 88
    },
    {
      "midi": 50,
      "hit": false,
      "t": 45714.14399999998,
      "d": 523.3118697916725,
      "v": 72
    },
    {
      "midi": 43,
      "hit": false,
      "t": 45714.14399999998,
      "d": 540.6729270833384,
      "v": 85
    },
    {
      "midi": 55,
      "hit": false,
      "t": 46190.332999999984,
      "d": 305.05857812499744,
      "v": 80
    },
    {
      "midi": 62,
      "hit": false,
      "t": 46190.332999999984,
      "d": 317.4593333333323,
      "v": 80
    },
    {
      "midi": 59,
      "hit": false,
      "t": 46190.332999999984,
      "d": 329.8600885416672,
      "v": 86
    },
    {
      "midi": 43,
      "hit": false,
      "t": 46428.42749999998,
      "d": 585.3156458333324,
      "v": 92
    },
    {
      "midi": 50,
      "hit": false,
      "t": 46428.42749999998,
      "d": 585.3156458333324,
      "v": 88
    },
    {
      "midi": 59,
      "hit": false,
      "t": 46666.52199999998,
      "d": 79.36483333333308,
      "v": 90
    },
    {
      "midi": 55,
      "hit": false,
      "t": 46666.52199999998,
      "d": 84.32513541666412,
      "v": 80
    },
    {
      "midi": 62,
      "hit": false,
      "t": 46666.52199999998,
      "d": 96.72589062499901,
      "v": 80
    },
    {
      "midi": 59,
      "hit": false,
      "t": 46904.61649999998,
      "d": 153.76936458333512,
      "v": 101
    },
    {
      "midi": 62,
      "hit": false,
      "t": 46904.61649999998,
      "d": 171.13042187500105,
      "v": 90
    },
    {
      "midi": 55,
      "hit": false,
      "t": 46904.61649999998,
      "d": 176.0907239583321,
      "v": 86
    },
    {
      "midi": 64,
      "hit": false,
      "t": 47142.71099999998,
      "d": 312.4990312500013,
      "v": 88
    },
    {
      "midi": 55,
      "hit": false,
      "t": 47142.71099999998,
      "d": 317.4593333333323,
      "v": 79
    },
    {
      "midi": 60,
      "hit": false,
      "t": 47142.71099999998,
      "d": 317.4593333333323,
      "v": 99
    },
    {
      "midi": 50,
      "hit": false,
      "t": 47618.89999999998,
      "d": 186.01132812500146,
      "v": 104
    },
    {
      "midi": 43,
      "hit": false,
      "t": 47618.89999999998,
      "d": 190.9716302083325,
      "v": 104
    },
    {
      "midi": 59,
      "hit": false,
      "t": 47618.89999999998,
      "d": 200.89223437500186,
      "v": 107
    },
    {
      "midi": 55,
      "hit": false,
      "t": 47618.89999999998,
      "d": 213.29298958333675,
      "v": 94
    },
    {
      "midi": 62,
      "hit": false,
      "t": 47618.89999999998,
      "d": 230.65404687500268,
      "v": 94
    },
    {
      "midi": 57,
      "hit": false,
      "t": 49523.65599999998,
      "d": 555.5538333333316,
      "v": 88
    },
    {
      "midi": 60,
      "hit": false,
      "t": 49523.65599999998,
      "d": 567.9545885416665,
      "v": 99
    },
    {
      "midi": 64,
      "hit": false,
      "t": 49523.65599999998,
      "d": 567.9545885416665,
      "v": 86
    },
    {
      "midi": 45,
      "hit": false,
      "t": 49523.65599999998,
      "d": 610.1171562500022,
      "v": 92
    },
    {
      "midi": 52,
      "hit": false,
      "t": 49999.84499999998,
      "d": 74.40453125000204,
      "v": 76
    },
    {
      "midi": 60,
      "hit": false,
      "t": 50237.939499999986,
      "d": 57.04347395833611,
      "v": 90
    },
    {
      "midi": 64,
      "hit": false,
      "t": 50237.939499999986,
      "d": 57.04347395833611,
      "v": 78
    },
    {
      "midi": 57,
      "hit": false,
      "t": 50237.939499999986,
      "d": 62.00377604166715,
      "v": 80
    },
    {
      "midi": 57,
      "hit": false,
      "t": 50714.128499999984,
      "d": 69.44422916666372,
      "v": 101
    },
    {
      "midi": 60,
      "hit": false,
      "t": 50714.128499999984,
      "d": 76.88468229166028,
      "v": 110
    },
    {
      "midi": 64,
      "hit": false,
      "t": 50714.128499999984,
      "d": 94.24573958332621,
      "v": 92
    },
    {
      "midi": 45,
      "hit": false,
      "t": 50952.222999999976,
      "d": 91.76558854166797,
      "v": 76
    },
    {
      "midi": 57,
      "hit": false,
      "t": 51190.317499999976,
      "d": 66.96407812500547,
      "v": 79
    },
    {
      "midi": 60,
      "hit": false,
      "t": 51190.317499999976,
      "d": 69.444229166671,
      "v": 88
    },
    {
      "midi": 64,
      "hit": false,
      "t": 51190.317499999976,
      "d": 96.72589062500629,
      "v": 82
    },
    {
      "midi": 57,
      "hit": false,
      "t": 51428.41199999998,
      "d": 590.2759479166634,
      "v": 88
    },
    {
      "midi": 60,
      "hit": false,
      "t": 51428.41199999998,
      "d": 590.2759479166634,
      "v": 99
    },
    {
      "midi": 64,
      "hit": false,
      "t": 51428.41199999998,
      "d": 590.2759479166634,
      "v": 90
    },
    {
      "midi": 45,
      "hit": false,
      "t": 51428.41199999998,
      "d": 1552.574552083337,
      "v": 92
    },
    {
      "midi": 57,
      "hit": false,
      "t": 52142.69549999998,
      "d": 79.36483333333308,
      "v": 86
    },
    {
      "midi": 60,
      "hit": false,
      "t": 52142.69549999998,
      "d": 79.36483333333308,
      "v": 99
    },
    {
      "midi": 64,
      "hit": false,
      "t": 52142.69549999998,
      "d": 99.20604166666453,
      "v": 86
    },
    {
      "midi": 52,
      "hit": false,
      "t": 52380.78999999998,
      "d": 86.80528645833692,
      "v": 66
    },
    {
      "midi": 57,
      "hit": false,
      "t": 52618.884499999986,
      "d": 74.40453125000204,
      "v": 85
    },
    {
      "midi": 60,
      "hit": false,
      "t": 52618.884499999986,
      "d": 86.80528645833692,
      "v": 97
    },
    {
      "midi": 64,
      "hit": false,
      "t": 52618.884499999986,
      "d": 109.1266458333339,
      "v": 88
    },
    {
      "midi": 52,
      "hit": false,
      "t": 52856.978999999985,
      "d": 89.28543750000244,
      "v": 83
    },
    {
      "midi": 60,
      "hit": false,
      "t": 53095.073499999984,
      "d": 66.9640781249982,
      "v": 82
    },
    {
      "midi": 57,
      "hit": false,
      "t": 53095.073499999984,
      "d": 74.40453124999476,
      "v": 78
    },
    {
      "midi": 64,
      "hit": false,
      "t": 53095.073499999984,
      "d": 89.28543749999517,
      "v": 80
    },
    {
      "midi": 60,
      "hit": false,
      "t": 53333.16799999998,
      "d": 364.58220312499907,
      "v": 78
    },
    {
      "midi": 53,
      "hit": false,
      "t": 53333.16799999998,
      "d": 367.0623541666646,
      "v": 79
    },
    {
      "midi": 57,
      "hit": false,
      "t": 53333.16799999998,
      "d": 372.02265624999563,
      "v": 88
    },
    {
      "midi": 41,
      "hit": false,
      "t": 53333.16799999998,
      "d": 543.1530781249967,
      "v": 85
    },
    {
      "midi": 53,
      "hit": false,
      "t": 53809.35699999998,
      "d": 190.9716302083325,
      "v": 76
    },
    {
      "midi": 60,
      "hit": false,
      "t": 53809.35699999998,
      "d": 198.41208333332906,
      "v": 80
    },
    {
      "midi": 57,
      "hit": false,
      "t": 53809.35699999998,
      "d": 215.773140624995,
      "v": 85
    },
    {
      "midi": 41,
      "hit": false,
      "t": 54047.451499999974,
      "d": 138.8884583333347,
      "v": 97
    },
    {
      "midi": 57,
      "hit": false,
      "t": 54285.54599999997,
      "d": 69.44422916666372,
      "v": 92
    },
    {
      "midi": 53,
      "hit": false,
      "t": 54285.54599999997,
      "d": 71.92438020832924,
      "v": 83
    },
    {
      "midi": 60,
      "hit": false,
      "t": 54285.54599999997,
      "d": 84.32513541666412,
      "v": 83
    },
    {
      "midi": 53,
      "hit": false,
      "t": 54523.64049999997,
      "d": 210.81283854166395,
      "v": 86
    },
    {
      "midi": 60,
      "hit": false,
      "t": 54523.64049999997,
      "d": 210.81283854166395,
      "v": 90
    },
    {
      "midi": 57,
      "hit": false,
      "t": 54523.64049999997,
      "d": 218.25329166666052,
      "v": 99
    },
    {
      "midi": 41,
      "hit": false,
      "t": 54761.734999999964,
      "d": 1019.3420781249879,
      "v": 83
    },
    {
      "midi": 53,
      "hit": false,
      "t": 54999.82949999996,
      "d": 555.5538333333316,
      "v": 86
    },
    {
      "midi": 60,
      "hit": false,
      "t": 54999.82949999996,
      "d": 560.5141354166626,
      "v": 88
    },
    {
      "midi": 57,
      "hit": false,
      "t": 54999.82949999996,
      "d": 567.9545885416592,
      "v": 104
    },
    {
      "midi": 53,
      "hit": false,
      "t": 55714.112999999954,
      "d": 302.5784270833319,
      "v": 78
    },
    {
      "midi": 57,
      "hit": false,
      "t": 55714.112999999954,
      "d": 314.9791822916668,
      "v": 90
    },
    {
      "midi": 60,
      "hit": false,
      "t": 55714.112999999954,
      "d": 317.4593333333323,
      "v": 82
    },
    {
      "midi": 41,
      "hit": false,
      "t": 55952.20749999995,
      "d": 158.72966666666616,
      "v": 107
    },
    {
      "midi": 53,
      "hit": false,
      "t": 56190.30199999995,
      "d": 89.28543750000244,
      "v": 79
    },
    {
      "midi": 57,
      "hit": false,
      "t": 56190.30199999995,
      "d": 89.28543750000244,
      "v": 88
    },
    {
      "midi": 60,
      "hit": false,
      "t": 56190.30199999995,
      "d": 99.20604166667181,
      "v": 80
    },
    {
      "midi": 53,
      "hit": false,
      "t": 56428.39649999996,
      "d": 267.85631250000006,
      "v": 85
    },
    {
      "midi": 60,
      "hit": false,
      "t": 56428.39649999996,
      "d": 275.2967656249966,
      "v": 85
    },
    {
      "midi": 57,
      "hit": false,
      "t": 56428.39649999996,
      "d": 287.6975208333315,
      "v": 97
    },
    {
      "midi": 53,
      "hit": false,
      "t": 56904.58549999996,
      "d": 76.88468229166756,
      "v": 73
    },
    {
      "midi": 57,
      "hit": false,
      "t": 56904.58549999996,
      "d": 91.76558854166797,
      "v": 86
    },
    {
      "midi": 60,
      "hit": false,
      "t": 56904.58549999996,
      "d": 109.1266458333339,
      "v": 82
    },
    {
      "midi": 55,
      "hit": false,
      "t": 57142.67999999996,
      "d": 332.34023958333273,
      "v": 66
    },
    {
      "midi": 64,
      "hit": false,
      "t": 57142.67999999996,
      "d": 337.3005416666638,
      "v": 79
    },
    {
      "midi": 60,
      "hit": false,
      "t": 57142.67999999996,
      "d": 344.74099479166034,
      "v": 88
    },
    {
      "midi": 48,
      "hit": false,
      "t": 57142.67999999996,
      "d": 548.1133802083277,
      "v": 94
    },
    {
      "midi": 62,
      "hit": false,
      "t": 57618.86899999995,
      "d": 220.7334427083333,
      "v": 78
    },
    {
      "midi": 55,
      "hit": false,
      "t": 57618.86899999995,
      "d": 245.5349531249958,
      "v": 85
    },
    {
      "midi": 65,
      "hit": false,
      "t": 57618.86899999995,
      "d": 272.8166145833311,
      "v": 92
    },
    {
      "midi": 48,
      "hit": false,
      "t": 57856.96349999995,
      "d": 223.21359374999884,
      "v": 101
    },
    {
      "midi": 55,
      "hit": false,
      "t": 58095.057999999946,
      "d": 262.896010416669,
      "v": 80
    },
    {
      "midi": 60,
      "hit": false,
      "t": 58095.057999999946,
      "d": 267.85631250000006,
      "v": 79
    },
    {
      "midi": 64,
      "hit": false,
      "t": 58095.057999999946,
      "d": 267.85631250000006,
      "v": 78
    },
    {
      "midi": 48,
      "hit": false,
      "t": 58333.152499999946,
      "d": 218.2532916666678,
      "v": 107
    },
    {
      "midi": 62,
      "hit": false,
      "t": 58571.246999999945,
      "d": 218.2532916666678,
      "v": 90
    },
    {
      "midi": 65,
      "hit": false,
      "t": 58571.246999999945,
      "d": 240.57465104166477,
      "v": 85
    },
    {
      "midi": 55,
      "hit": false,
      "t": 58571.246999999945,
      "d": 248.01510416666133,
      "v": 75
    },
    {
      "midi": 48,
      "hit": false,
      "t": 58809.341499999944,
      "d": 116.56709895833046,
      "v": 113
    },
    {
      "midi": 55,
      "hit": false,
      "t": 59047.43599999994,
      "d": 81.8449843749986,
      "v": 80
    },
    {
      "midi": 60,
      "hit": false,
      "t": 59047.43599999994,
      "d": 81.8449843749986,
      "v": 90
    },
    {
      "midi": 64,
      "hit": false,
      "t": 59047.43599999994,
      "d": 101.68619270833005,
      "v": 85
    },
    {
      "midi": 55,
      "hit": false,
      "t": 59285.53049999994,
      "d": 282.73721875000047,
      "v": 83
    },
    {
      "midi": 60,
      "hit": false,
      "t": 59285.53049999994,
      "d": 292.65782291666983,
      "v": 92
    },
    {
      "midi": 64,
      "hit": false,
      "t": 59285.53049999994,
      "d": 297.6181250000009,
      "v": 85
    },
    {
      "midi": 48,
      "hit": false,
      "t": 59523.62499999994,
      "d": 109.1266458333339,
      "v": 104
    },
    {
      "midi": 55,
      "hit": false,
      "t": 59761.71949999994,
      "d": 285.217369791666,
      "v": 83
    },
    {
      "midi": 60,
      "hit": false,
      "t": 59761.71949999994,
      "d": 285.217369791666,
      "v": 92
    },
    {
      "midi": 64,
      "hit": false,
      "t": 59761.71949999994,
      "d": 290.17767187499703,
      "v": 85
    },
    {
      "midi": 48,
      "hit": false,
      "t": 59999.81399999994,
      "d": 104.16634374999558,
      "v": 107
    },
    {
      "midi": 55,
      "hit": false,
      "t": 60237.90849999993,
      "d": 119.04725000000326,
      "v": 78
    },
    {
      "midi": 60,
      "hit": false,
      "t": 60237.90849999993,
      "d": 126.48770312499983,
      "v": 88
    },
    {
      "midi": 64,
      "hit": false,
      "t": 60237.90849999993,
      "d": 131.44800520833087,
      "v": 80
    },
    {
      "midi": 64,
      "hit": false,
      "t": 60476.00299999993,
      "d": 243.0548020833303,
      "v": 82
    },
    {
      "midi": 60,
      "hit": false,
      "t": 60476.00299999993,
      "d": 248.01510416666133,
      "v": 90
    },
    {
      "midi": 55,
      "hit": false,
      "t": 60476.00299999993,
      "d": 260.4158593749962,
      "v": 80
    },
    {
      "midi": 43,
      "hit": false,
      "t": 60714.09749999993,
      "d": 324.89978645833617,
      "v": 99
    },
    {
      "midi": 55,
      "hit": false,
      "t": 60952.19199999993,
      "d": 305.0585781250047,
      "v": 79
    },
    {
      "midi": 59,
      "hit": false,
      "t": 60952.19199999993,
      "d": 305.0585781250047,
      "v": 88
    },
    {
      "midi": 62,
      "hit": false,
      "t": 60952.19199999993,
      "d": 317.4593333333396,
      "v": 82
    },
    {
      "midi": 43,
      "hit": false,
      "t": 61190.28649999994,
      "d": 240.57465104166477,
      "v": 94
    },
    {
      "midi": 55,
      "hit": false,
      "t": 61428.380999999936,
      "d": 265.37616145833454,
      "v": 80
    },
    {
      "midi": 60,
      "hit": false,
      "t": 61428.380999999936,
      "d": 277.7769166666694,
      "v": 94
    },
    {
      "midi": 64,
      "hit": false,
      "t": 61428.380999999936,
      "d": 277.7769166666694,
      "v": 85
    },
    {
      "midi": 43,
      "hit": false,
      "t": 61666.475499999935,
      "d": 238.09450000000652,
      "v": 107
    },
    {
      "midi": 55,
      "hit": false,
      "t": 61904.56999999994,
      "d": 280.25706770833494,
      "v": 83
    },
    {
      "midi": 59,
      "hit": false,
      "t": 61904.56999999994,
      "d": 290.1776718750043,
      "v": 92
    },
    {
      "midi": 62,
      "hit": false,
      "t": 61904.56999999994,
      "d": 295.13797395833535,
      "v": 85
    },
    {
      "midi": 43,
      "hit": false,
      "t": 62142.66449999994,
      "d": 240.57465104166477,
      "v": 110
    },
    {
      "midi": 55,
      "hit": false,
      "t": 62380.75899999994,
      "d": 275.2967656249966,
      "v": 85
    },
    {
      "midi": 60,
      "hit": false,
      "t": 62380.75899999994,
      "d": 285.217369791666,
      "v": 97
    },
    {
      "midi": 64,
      "hit": false,
      "t": 62380.75899999994,
      "d": 285.217369791666,
      "v": 88
    },
    {
      "midi": 43,
      "hit": false,
      "t": 62618.85349999994,
      "d": 138.8884583333347,
      "v": 113
    },
    {
      "midi": 43,
      "hit": false,
      "t": 62856.94799999994,
      "d": 198.41208333333634,
      "v": 113
    },
    {
      "midi": 55,
      "hit": false,
      "t": 62856.94799999994,
      "d": 198.41208333333634,
      "v": 99
    },
    {
      "midi": 59,
      "hit": false,
      "t": 62856.94799999994,
      "d": 213.29298958333675,
      "v": 107
    },
    {
      "midi": 62,
      "hit": false,
      "t": 62856.94799999994,
      "d": 228.17389583333716,
      "v": 97
    },
    {
      "midi": 55,
      "hit": false,
      "t": 64761.70399999994,
      "d": 575.3950416666703,
      "v": 97
    },
    {
      "midi": 60,
      "hit": false,
      "t": 64761.70399999994,
      "d": 823.4101458333316,
      "v": 94
    },
    {
      "midi": 64,
      "hit": false,
      "t": 64761.70399999994,
      "d": 989.5802656250016,
      "v": 107
    },
    {
      "midi": 67,
      "hit": false,
      "t": 64761.70399999994,
      "d": 1029.2626822916645,
      "v": 97
    },
    {
      "midi": 48,
      "hit": false,
      "t": 64761.70399999994,
      "d": 1068.9450989583274,
      "v": 104
    },
    {
      "midi": 55,
      "hit": false,
      "t": 65475.987499999945,
      "d": 138.88845833332743,
      "v": 92
    },
    {
      "midi": 60,
      "hit": false,
      "t": 65714.08199999994,
      "d": 208.33268749999115,
      "v": 67
    },
    {
      "midi": 55,
      "hit": false,
      "t": 65952.17649999993,
      "d": 79.36483333334036,
      "v": 94
    },
    {
      "midi": 48,
      "hit": false,
      "t": 66190.27099999994,
      "d": 339.7806927083293,
      "v": 97
    },
    {
      "midi": 69,
      "hit": false,
      "t": 66190.27099999994,
      "d": 347.22114583333314,
      "v": 97
    },
    {
      "midi": 60,
      "hit": false,
      "t": 66190.27099999994,
      "d": 362.10205208332627,
      "v": 94
    },
    {
      "midi": 65,
      "hit": false,
      "t": 66190.27099999994,
      "d": 362.10205208332627,
      "v": 110
    },
    {
      "midi": 55,
      "hit": false,
      "t": 66666.45999999993,
      "d": 560.5141354166699,
      "v": 85
    },
    {
      "midi": 67,
      "hit": false,
      "t": 66666.45999999993,
      "d": 1329.360958333331,
      "v": 83
    },
    {
      "midi": 60,
      "hit": false,
      "t": 66666.45999999993,
      "d": 1339.281562499993,
      "v": 79
    },
    {
      "midi": 64,
      "hit": false,
      "t": 66666.45999999993,
      "d": 1339.281562499993,
      "v": 88
    },
    {
      "midi": 48,
      "hit": false,
      "t": 66666.45999999993,
      "d": 1488.090624999997,
      "v": 88
    },
    {
      "midi": 55,
      "hit": false,
      "t": 67380.74349999994,
      "d": 285.21736979167326,
      "v": 86
    },
    {
      "midi": 55,
      "hit": false,
      "t": 67856.93249999994,
      "d": 166.17011979165545,
      "v": 90
    },
    {
      "midi": 64,
      "hit": false,
      "t": 68095.02699999993,
      "d": 151.28921354166232,
      "v": 104
    },
    {
      "midi": 60,
      "hit": false,
      "t": 68095.02699999993,
      "d": 163.6899687499972,
      "v": 94
    },
    {
      "midi": 67,
      "hit": false,
      "t": 68095.02699999993,
      "d": 163.6899687499972,
      "v": 94
    },
    {
      "midi": 45,
      "hit": false,
      "t": 68571.21599999993,
      "d": 1760.907239583321,
      "v": 94
    },
    {
      "midi": 57,
      "hit": false,
      "t": 68571.21599999993,
      "d": 1790.6690520833217,
      "v": 86
    },
    {
      "midi": 60,
      "hit": false,
      "t": 68571.21599999993,
      "d": 1795.6293541666528,
      "v": 94
    },
    {
      "midi": 64,
      "hit": false,
      "t": 68571.21599999993,
      "d": 1795.6293541666528,
      "v": 88
    },
    {
      "midi": 52,
      "hit": false,
      "t": 69880.73574999992,
      "d": 94.24573958333349,
      "v": 78
    },
    {
      "midi": 52,
      "hit": false,
      "t": 70237.87749999992,
      "d": 71.92438020833652,
      "v": 85
    },
    {
      "midi": 52,
      "hit": false,
      "t": 70475.9719999999,
      "d": 567.9545885416592,
      "v": 88
    },
    {
      "midi": 45,
      "hit": false,
      "t": 70475.9719999999,
      "d": 607.6370052083221,
      "v": 90
    },
    {
      "midi": 57,
      "hit": false,
      "t": 70475.9719999999,
      "d": 830.8505989583209,
      "v": 76
    },
    {
      "midi": 64,
      "hit": false,
      "t": 70475.9719999999,
      "d": 840.771203124983,
      "v": 79
    },
    {
      "midi": 60,
      "hit": false,
      "t": 70475.9719999999,
      "d": 853.1719583333179,
      "v": 83
    },
    {
      "midi": 45,
      "hit": false,
      "t": 71190.2554999999,
      "d": 81.8449843749986,
      "v": 78
    },
    {
      "midi": 52,
      "hit": false,
      "t": 71190.2554999999,
      "d": 81.8449843749986,
      "v": 76
    },
    {
      "midi": 52,
      "hit": false,
      "t": 71428.34999999989,
      "d": 324.89978645833617,
      "v": 83
    },
    {
      "midi": 45,
      "hit": false,
      "t": 71428.34999999989,
      "d": 357.1417500000098,
      "v": 85
    },
    {
      "midi": 57,
      "hit": false,
      "t": 71428.34999999989,
      "d": 372.0226562500029,
      "v": 86
    },
    {
      "midi": 60,
      "hit": false,
      "t": 71428.34999999989,
      "d": 372.0226562500029,
      "v": 94
    },
    {
      "midi": 64,
      "hit": false,
      "t": 71428.34999999989,
      "d": 386.90356249999604,
      "v": 88
    },
    {
      "midi": 52,
      "hit": false,
      "t": 71904.53899999989,
      "d": 248.01510416668316,
      "v": 86
    },
    {
      "midi": 64,
      "hit": false,
      "t": 71904.53899999989,
      "d": 310.01888020834303,
      "v": 82
    },
    {
      "midi": 45,
      "hit": false,
      "t": 71904.53899999989,
      "d": 319.9394843750051,
      "v": 90
    },
    {
      "midi": 55,
      "hit": false,
      "t": 71904.53899999989,
      "d": 334.82039062499825,
      "v": 88
    },
    {
      "midi": 59,
      "hit": false,
      "t": 71904.53899999989,
      "d": 334.82039062499825,
      "v": 94
    },
    {
      "midi": 60,
      "hit": false,
      "t": 72380.72799999989,
      "d": 753.9659166666679,
      "v": 90
    },
    {
      "midi": 53,
      "hit": false,
      "t": 72380.72799999989,
      "d": 761.4063697916718,
      "v": 86
    },
    {
      "midi": 57,
      "hit": false,
      "t": 72380.72799999989,
      "d": 766.3666718750028,
      "v": 101
    },
    {
      "midi": 41,
      "hit": false,
      "t": 72380.72799999989,
      "d": 3469.7313072917023,
      "v": 88
    },
    {
      "midi": 48,
      "hit": false,
      "t": 73095.01149999989,
      "d": 136.4083072916692,
      "v": 85
    },
    {
      "midi": 53,
      "hit": false,
      "t": 73333.1059999999,
      "d": 337.30054166667105,
      "v": 70
    },
    {
      "midi": 57,
      "hit": false,
      "t": 73333.1059999999,
      "d": 429.06613020833174,
      "v": 79
    },
    {
      "midi": 60,
      "hit": false,
      "t": 73333.1059999999,
      "d": 456.34779166665976,
      "v": 75
    },
    {
      "midi": 48,
      "hit": false,
      "t": 73571.2004999999,
      "d": 240.5746510416502,
      "v": 83
    },
    {
      "midi": 53,
      "hit": false,
      "t": 73809.29499999988,
      "d": 96.72589062500629,
      "v": 74
    },
    {
      "midi": 62,
      "hit": false,
      "t": 74047.38949999989,
      "d": 99.20604166666453,
      "v": 83
    },
    {
      "midi": 53,
      "hit": false,
      "t": 74047.38949999989,
      "d": 101.68619270833733,
      "v": 85
    },
    {
      "midi": 59,
      "hit": false,
      "t": 74047.38949999989,
      "d": 121.52740104167606,
      "v": 92
    },
    {
      "midi": 53,
      "hit": false,
      "t": 74285.4839999999,
      "d": 575.395041666663,
      "v": 71
    },
    {
      "midi": 60,
      "hit": false,
      "t": 74285.4839999999,
      "d": 1054.0641927083489,
      "v": 82
    },
    {
      "midi": 57,
      "hit": false,
      "t": 74285.4839999999,
      "d": 1068.9450989583565,
      "v": 88
    },
    {
      "midi": 48,
      "hit": false,
      "t": 74761.6729999999,
      "d": 198.41208333332906,
      "v": 92
    },
    {
      "midi": 53,
      "hit": false,
      "t": 74999.76749999989,
      "d": 347.22114583336224,
      "v": 83
    },
    {
      "midi": 48,
      "hit": false,
      "t": 75237.86199999989,
      "d": 195.93193229168537,
      "v": 92
    },
    {
      "midi": 53,
      "hit": false,
      "t": 75475.95649999991,
      "d": 337.30054166667105,
      "v": 83
    },
    {
      "midi": 57,
      "hit": false,
      "t": 75475.95649999991,
      "d": 359.621901041668,
      "v": 92
    },
    {
      "midi": 60,
      "hit": false,
      "t": 75475.95649999991,
      "d": 367.06235416667187,
      "v": 90
    },
    {
      "midi": 48,
      "hit": false,
      "t": 75714.05099999992,
      "d": 133.9281562499964,
      "v": 85
    },
    {
      "midi": 57,
      "hit": false,
      "t": 75952.14549999993,
      "d": 74.40453124999476,
      "v": 79
    },
    {
      "midi": 53,
      "hit": false,
      "t": 75952.14549999993,
      "d": 79.3648333333258,
      "v": 63
    },
    {
      "midi": 60,
      "hit": false,
      "t": 75952.14549999993,
      "d": 101.68619270832278,
      "v": 74
    },
    {
      "midi": 55,
      "hit": false,
      "t": 76190.23999999992,
      "d": 357.1417499999952,
      "v": 88
    },
    {
      "midi": 62,
      "hit": false,
      "t": 76190.23999999992,
      "d": 357.1417499999952,
      "v": 85
    },
    {
      "midi": 59,
      "hit": false,
      "t": 76190.23999999992,
      "d": 364.58220312499907,
      "v": 94
    },
    {
      "midi": 43,
      "hit": false,
      "t": 76190.23999999992,
      "d": 503.4706614583265,
      "v": 97
    },
    {
      "midi": 55,
      "hit": false,
      "t": 76666.42899999992,
      "d": 280.25706770832767,
      "v": 78
    },
    {
      "midi": 64,
      "hit": false,
      "t": 76666.42899999992,
      "d": 280.25706770832767,
      "v": 82
    },
    {
      "midi": 60,
      "hit": false,
      "t": 76666.42899999992,
      "d": 290.17767187498976,
      "v": 88
    },
    {
      "midi": 43,
      "hit": false,
      "t": 76904.52349999991,
      "d": 220.73344270832604,
      "v": 107
    },
    {
      "midi": 55,
      "hit": false,
      "t": 77142.6179999999,
      "d": 267.85631250000733,
      "v": 86
    },
    {
      "midi": 62,
      "hit": false,
      "t": 77142.6179999999,
      "d": 282.73721875000047,
      "v": 90
    },
    {
      "midi": 59,
      "hit": false,
      "t": 77142.6179999999,
      "d": 287.6975208333315,
      "v": 97
    },
    {
      "midi": 43,
      "hit": false,
      "t": 77380.7124999999,
      "d": 267.8563124999928,
      "v": 113
    },
    {
      "midi": 55,
      "hit": false,
      "t": 77618.8069999999,
      "d": 305.058578125012,
      "v": 90
    },
    {
      "midi": 64,
      "hit": false,
      "t": 77618.8069999999,
      "d": 307.5387291666848,
      "v": 90
    },
    {
      "midi": 60,
      "hit": false,
      "t": 77618.8069999999,
      "d": 314.97918229168863,
      "v": 104
    },
    {
      "midi": 43,
      "hit": false,
      "t": 77856.9014999999,
      "d": 438.98673437502293,
      "v": 113
    },
    {
      "midi": 55,
      "hit": false,
      "t": 78094.99599999993,
      "d": 195.93193229167082,
      "v": 104
    },
    {
      "midi": 59,
      "hit": false,
      "t": 78094.99599999993,
      "d": 208.3326875000057,
      "v": 113
    },
    {
      "midi": 62,
      "hit": false,
      "t": 78094.99599999993,
      "d": 218.2532916666678,
      "v": 101
    },
    {
      "midi": 55,
      "hit": false,
      "t": 79999.75199999992,
      "d": 386.90356249999604,
      "v": 97
    },
    {
      "midi": 64,
      "hit": false,
      "t": 79999.75199999992,
      "d": 389.38371354166884,
      "v": 92
    },
    {
      "midi": 60,
      "hit": false,
      "t": 79999.75199999992,
      "d": 396.8241666666727,
      "v": 99
    },
    {
      "midi": 55,
      "hit": false,
      "t": 80475.94099999993,
      "d": 257.93570833334525,
      "v": 71
    },
    {
      "midi": 60,
      "hit": false,
      "t": 80475.94099999993,
      "d": 285.21736979167326,
      "v": 82
    },
    {
      "midi": 64,
      "hit": false,
      "t": 80475.94099999993,
      "d": 290.1776718750043,
      "v": 78
    },
    {
      "midi": 48,
      "hit": false,
      "t": 80714.03549999994,
      "d": 376.98295833333395,
      "v": 117
    },
    {
      "midi": 55,
      "hit": false,
      "t": 81190.22449999994,
      "d": 138.88845833332743,
      "v": 83
    },
    {
      "midi": 55,
      "hit": false,
      "t": 81428.31899999993,
      "d": 89.28543750000244,
      "v": 85
    },
    {
      "midi": 60,
      "hit": false,
      "t": 81428.31899999993,
      "d": 96.72589062500629,
      "v": 99
    },
    {
      "midi": 64,
      "hit": false,
      "t": 81428.31899999993,
      "d": 111.60679687499942,
      "v": 88
    },
    {
      "midi": 62,
      "hit": false,
      "t": 81666.41349999994,
      "d": 128.96785416666535,
      "v": 104
    },
    {
      "midi": 65,
      "hit": false,
      "t": 81666.41349999994,
      "d": 128.96785416666535,
      "v": 94
    },
    {
      "midi": 55,
      "hit": false,
      "t": 81666.41349999994,
      "d": 138.88845833332743,
      "v": 92
    },
    {
      "midi": 48,
      "hit": false,
      "t": 81904.50799999993,
      "d": 689.4819895833498,
      "v": 88
    },
    {
      "midi": 55,
      "hit": false,
      "t": 81904.50799999993,
      "d": 761.4063697916863,
      "v": 88
    },
    {
      "midi": 64,
      "hit": false,
      "t": 81904.50799999993,
      "d": 761.4063697916863,
      "v": 88
    },
    {
      "midi": 60,
      "hit": false,
      "t": 81904.50799999993,
      "d": 793.6483333333599,
      "v": 94
    },
    {
      "midi": 48,
      "hit": false,
      "t": 82618.79149999995,
      "d": 188.49147916666698,
      "v": 99
    },
    {
      "midi": 55,
      "hit": false,
      "t": 82856.88599999995,
      "d": 317.4593333333469,
      "v": 88
    },
    {
      "midi": 64,
      "hit": false,
      "t": 82856.88599999995,
      "d": 329.86008854168176,
      "v": 88
    },
    {
      "midi": 60,
      "hit": false,
      "t": 82856.88599999995,
      "d": 347.2211458333477,
      "v": 92
    },
    {
      "midi": 48,
      "hit": false,
      "t": 83094.98049999996,
      "d": 84.3251354166714,
      "v": 99
    },
    {
      "midi": 55,
      "hit": false,
      "t": 83333.07499999997,
      "d": 190.97163020833977,
      "v": 90
    },
    {
      "midi": 64,
      "hit": false,
      "t": 83333.07499999997,
      "d": 314.9791822916741,
      "v": 88
    },
    {
      "midi": 60,
      "hit": false,
      "t": 83333.07499999997,
      "d": 319.9394843750051,
      "v": 99
    },
    {
      "midi": 45,
      "hit": false,
      "t": 83571.16949999997,
      "d": 101.68619270833733,
      "v": 59
    },
    {
      "midi": 57,
      "hit": false,
      "t": 83809.26399999998,
      "d": 818.449843749986,
      "v": 88
    },
    {
      "midi": 64,
      "hit": false,
      "t": 83809.26399999998,
      "d": 835.810901041652,
      "v": 88
    },
    {
      "midi": 60,
      "hit": false,
      "t": 83809.26399999998,
      "d": 843.2513541666558,
      "v": 94
    },
    {
      "midi": 45,
      "hit": false,
      "t": 83809.26399999998,
      "d": 868.0528645833256,
      "v": 92
    },
    {
      "midi": 52,
      "hit": false,
      "t": 84523.54749999997,
      "d": 148.80906250000407,
      "v": 74
    },
    {
      "midi": 57,
      "hit": false,
      "t": 84761.64199999998,
      "d": 94.24573958333349,
      "v": 66
    },
    {
      "midi": 60,
      "hit": false,
      "t": 84761.64199999998,
      "d": 106.64649479166837,
      "v": 68
    },
    {
      "midi": 64,
      "hit": false,
      "t": 84761.64199999998,
      "d": 138.888458333342,
      "v": 70
    },
    {
      "midi": 45,
      "hit": false,
      "t": 84999.73649999998,
      "d": 334.82039062499825,
      "v": 73
    },
    {
      "midi": 57,
      "hit": false,
      "t": 85475.92549999998,
      "d": 71.92438020833652,
      "v": 85
    },
    {
      "midi": 60,
      "hit": false,
      "t": 85475.92549999998,
      "d": 71.92438020833652,
      "v": 99
    },
    {
      "midi": 64,
      "hit": false,
      "t": 85475.92549999998,
      "d": 94.24573958333349,
      "v": 85
    },
    {
      "midi": 57,
      "hit": false,
      "t": 85714.01999999999,
      "d": 845.7315052083286,
      "v": 82
    },
    {
      "midi": 64,
      "hit": false,
      "t": 85714.01999999999,
      "d": 845.7315052083286,
      "v": 79
    },
    {
      "midi": 60,
      "hit": false,
      "t": 85714.01999999999,
      "d": 855.6521093749907,
      "v": 88
    },
    {
      "midi": 45,
      "hit": false,
      "t": 85952.11449999998,
      "d": 1190.4725000000035,
      "v": 57
    },
    {
      "midi": 52,
      "hit": false,
      "t": 86428.30349999998,
      "d": 292.6578229166771,
      "v": 97
    },
    {
      "midi": 57,
      "hit": false,
      "t": 86666.39799999999,
      "d": 362.1020520833408,
      "v": 78
    },
    {
      "midi": 64,
      "hit": false,
      "t": 86666.39799999999,
      "d": 372.0226562500029,
      "v": 80
    },
    {
      "midi": 60,
      "hit": false,
      "t": 86666.39799999999,
      "d": 384.4234114583378,
      "v": 82
    },
    {
      "midi": 52,
      "hit": false,
      "t": 86904.4925,
      "d": 116.56709895833046,
      "v": 75
    },
    {
      "midi": 60,
      "hit": false,
      "t": 87142.58699999998,
      "d": 99.20604166666453,
      "v": 92
    },
    {
      "midi": 64,
      "hit": false,
      "t": 87142.58699999998,
      "d": 114.08694791665766,
      "v": 83
    },
    {
      "midi": 57,
      "hit": false,
      "t": 87142.58699999998,
      "d": 128.9678541666508,
      "v": 86
    },
    {
      "midi": 48,
      "hit": false,
      "t": 87380.68149999996,
      "d": 96.72589062500629,
      "v": 73
    },
    {
      "midi": 53,
      "hit": false,
      "t": 87618.77599999997,
      "d": 550.5935312499932,
      "v": 78
    },
    {
      "midi": 57,
      "hit": false,
      "t": 87618.77599999997,
      "d": 786.207880208327,
      "v": 86
    },
    {
      "midi": 60,
      "hit": false,
      "t": 87618.77599999997,
      "d": 989.5802656249871,
      "v": 80
    },
    {
      "midi": 41,
      "hit": false,
      "t": 87618.77599999997,
      "d": 1904.7559999999794,
      "v": 88
    },
    {
      "midi": 48,
      "hit": false,
      "t": 88094.96499999997,
      "d": 128.96785416666535,
      "v": 85
    },
    {
      "midi": 53,
      "hit": false,
      "t": 88333.05949999996,
      "d": 245.5349531249958,
      "v": 63
    },
    {
      "midi": 57,
      "hit": false,
      "t": 88452.10674999996,
      "d": 104.16634374999558,
      "v": 40
    },
    {
      "midi": 48,
      "hit": false,
      "t": 88571.15399999995,
      "d": 163.68996875001176,
      "v": 88
    },
    {
      "midi": 53,
      "hit": false,
      "t": 88809.24849999996,
      "d": 94.24573958333349,
      "v": 83
    },
    {
      "midi": 57,
      "hit": false,
      "t": 89047.34299999995,
      "d": 148.80906250000407,
      "v": 92
    },
    {
      "midi": 53,
      "hit": false,
      "t": 89047.34299999995,
      "d": 163.6899687499972,
      "v": 85
    },
    {
      "midi": 60,
      "hit": false,
      "t": 89047.34299999995,
      "d": 163.6899687499972,
      "v": 83
    },
    {
      "midi": 62,
      "hit": false,
      "t": 89285.43749999994,
      "d": 119.04725000000326,
      "v": 85
    },
    {
      "midi": 59,
      "hit": false,
      "t": 89285.43749999994,
      "d": 126.4877031250071,
      "v": 90
    },
    {
      "midi": 53,
      "hit": false,
      "t": 89285.43749999994,
      "d": 141.36860937500023,
      "v": 66
    },
    {
      "midi": 53,
      "hit": false,
      "t": 89523.53199999995,
      "d": 624.9980625000026,
      "v": 73
    },
    {
      "midi": 60,
      "hit": false,
      "t": 89523.53199999995,
      "d": 751.4857656250097,
      "v": 82
    },
    {
      "midi": 57,
      "hit": false,
      "t": 89523.53199999995,
      "d": 761.4063697916718,
      "v": 90
    },
    {
      "midi": 41,
      "hit": false,
      "t": 89761.62649999995,
      "d": 1195.4328020833636,
      "v": 86
    },
    {
      "midi": 48,
      "hit": false,
      "t": 90237.81549999995,
      "d": 121.5274010416615,
      "v": 97
    },
    {
      "midi": 53,
      "hit": false,
      "t": 90475.90999999996,
      "d": 275.2967656250112,
      "v": 80
    },
    {
      "midi": 57,
      "hit": false,
      "t": 90475.90999999996,
      "d": 295.1379739583499,
      "v": 86
    },
    {
      "midi": 60,
      "hit": false,
      "t": 90475.90999999996,
      "d": 295.1379739583499,
      "v": 80
    },
    {
      "midi": 48,
      "hit": false,
      "t": 90714.00449999997,
      "d": 183.53117708335049,
      "v": 97
    },
    {
      "midi": 53,
      "hit": false,
      "t": 90952.09899999999,
      "d": 193.45178124999802,
      "v": 76
    },
    {
      "midi": 57,
      "hit": false,
      "t": 90952.09899999999,
      "d": 267.8563124999928,
      "v": 88
    },
    {
      "midi": 60,
      "hit": false,
      "t": 90952.09899999999,
      "d": 302.57842708332464,
      "v": 79
    },
    {
      "midi": 43,
      "hit": false,
      "t": 91190.19349999998,
      "d": 843.2513541666558,
      "v": 97
    },
    {
      "midi": 55,
      "hit": false,
      "t": 91428.28799999997,
      "d": 314.9791822916741,
      "v": 83
    },
    {
      "midi": 62,
      "hit": false,
      "t": 91428.28799999997,
      "d": 337.30054166667105,
      "v": 79
    },
    {
      "midi": 59,
      "hit": false,
      "t": 91428.28799999997,
      "d": 347.22114583333314,
      "v": 88
    },
    {
      "midi": 50,
      "hit": false,
      "t": 91666.38249999998,
      "d": 255.4555572916579,
      "v": 80
    },
    {
      "midi": 60,
      "hit": false,
      "t": 91904.47699999997,
      "d": 272.8166145833238,
      "v": 90
    },
    {
      "midi": 64,
      "hit": false,
      "t": 91904.47699999997,
      "d": 272.8166145833238,
      "v": 82
    },
    {
      "midi": 55,
      "hit": false,
      "t": 91904.47699999997,
      "d": 280.25706770832767,
      "v": 82
    },
    {
      "midi": 43,
      "hit": false,
      "t": 92142.57149999996,
      "d": 858.132260416678,
      "v": 75
    },
    {
      "midi": 55,
      "hit": false,
      "t": 92380.66599999997,
      "d": 297.61812500000815,
      "v": 85
    },
    {
      "midi": 59,
      "hit": false,
      "t": 92380.66599999997,
      "d": 312.4990312500013,
      "v": 92
    },
    {
      "midi": 62,
      "hit": false,
      "t": 92380.66599999997,
      "d": 317.4593333333323,
      "v": 85
    },
    {
      "midi": 50,
      "hit": false,
      "t": 92618.76049999997,
      "d": 285.2173697916587,
      "v": 94
    },
    {
      "midi": 55,
      "hit": false,
      "t": 92856.85499999997,
      "d": 285.21736979167326,
      "v": 86
    },
    {
      "midi": 60,
      "hit": false,
      "t": 92856.85499999997,
      "d": 287.69752083334606,
      "v": 94
    },
    {
      "midi": 64,
      "hit": false,
      "t": 92856.85499999997,
      "d": 297.61812500000815,
      "v": 88
    },
    {
      "midi": 50,
      "hit": false,
      "t": 93094.94949999997,
      "d": 99.20604166666453,
      "v": 101
    },
    {
      "midi": 55,
      "hit": false,
      "t": 93333.04399999997,
      "d": 173.61057291667385,
      "v": 97
    },
    {
      "midi": 59,
      "hit": false,
      "t": 93333.04399999997,
      "d": 173.61057291667385,
      "v": 107
    },
    {
      "midi": 62,
      "hit": false,
      "t": 93333.04399999997,
      "d": 173.61057291667385,
      "v": 97
    },
    {
      "midi": 43,
      "hit": false,
      "t": 93333.04399999997,
      "d": 193.45178125001257,
      "v": 104
    },
    {
      "midi": 57,
      "hit": false,
      "t": 104761.57999999997,
      "d": 555.5538333333388,
      "v": 88
    },
    {
      "midi": 60,
      "hit": false,
      "t": 104761.57999999997,
      "d": 567.9545885416737,
      "v": 99
    },
    {
      "midi": 64,
      "hit": false,
      "t": 104761.57999999997,
      "d": 567.9545885416737,
      "v": 86
    },
    {
      "midi": 45,
      "hit": false,
      "t": 104761.57999999997,
      "d": 610.1171562500094,
      "v": 92
    },
    {
      "midi": 52,
      "hit": false,
      "t": 105237.76899999999,
      "d": 74.40453124999476,
      "v": 76
    },
    {
      "midi": 60,
      "hit": false,
      "t": 105475.86349999998,
      "d": 57.04347395832883,
      "v": 90
    },
    {
      "midi": 64,
      "hit": false,
      "t": 105475.86349999998,
      "d": 57.04347395832883,
      "v": 78
    },
    {
      "midi": 57,
      "hit": false,
      "t": 105475.86349999998,
      "d": 62.003776041659876,
      "v": 80
    },
    {
      "midi": 57,
      "hit": false,
      "t": 105952.05249999998,
      "d": 69.44422916666372,
      "v": 101
    },
    {
      "midi": 60,
      "hit": false,
      "t": 105952.05249999998,
      "d": 76.88468229166756,
      "v": 110
    },
    {
      "midi": 64,
      "hit": false,
      "t": 105952.05249999998,
      "d": 94.24573958333349,
      "v": 92
    },
    {
      "midi": 45,
      "hit": false,
      "t": 106190.14699999998,
      "d": 91.76558854166069,
      "v": 76
    },
    {
      "midi": 57,
      "hit": false,
      "t": 106428.24149999997,
      "d": 66.96407812500547,
      "v": 79
    },
    {
      "midi": 60,
      "hit": false,
      "t": 106428.24149999997,
      "d": 69.44422916667827,
      "v": 88
    },
    {
      "midi": 64,
      "hit": false,
      "t": 106428.24149999997,
      "d": 96.72589062500629,
      "v": 82
    },
    {
      "midi": 57,
      "hit": false,
      "t": 106666.33599999998,
      "d": 590.2759479166853,
      "v": 88
    },
    {
      "midi": 60,
      "hit": false,
      "t": 106666.33599999998,
      "d": 590.2759479166853,
      "v": 99
    },
    {
      "midi": 64,
      "hit": false,
      "t": 106666.33599999998,
      "d": 590.2759479166853,
      "v": 90
    },
    {
      "midi": 45,
      "hit": false,
      "t": 106666.33599999998,
      "d": 1552.5745520833589,
      "v": 92
    },
    {
      "midi": 57,
      "hit": false,
      "t": 107380.6195,
      "d": 79.36483333334036,
      "v": 86
    },
    {
      "midi": 60,
      "hit": false,
      "t": 107380.6195,
      "d": 79.36483333334036,
      "v": 99
    },
    {
      "midi": 64,
      "hit": false,
      "t": 107380.6195,
      "d": 99.20604166667908,
      "v": 86
    },
    {
      "midi": 52,
      "hit": false,
      "t": 107618.714,
      "d": 86.80528645832965,
      "v": 66
    },
    {
      "midi": 57,
      "hit": false,
      "t": 107856.8085,
      "d": 74.40453124999476,
      "v": 85
    },
    {
      "midi": 60,
      "hit": false,
      "t": 107856.8085,
      "d": 86.80528645832965,
      "v": 97
    },
    {
      "midi": 64,
      "hit": false,
      "t": 107856.8085,
      "d": 109.12664583332662,
      "v": 88
    },
    {
      "midi": 52,
      "hit": false,
      "t": 108094.90299999999,
      "d": 89.28543750000244,
      "v": 83
    },
    {
      "midi": 60,
      "hit": false,
      "t": 108332.99750000001,
      "d": 66.96407812500547,
      "v": 82
    },
    {
      "midi": 57,
      "hit": false,
      "t": 108332.99750000001,
      "d": 74.40453125000931,
      "v": 78
    },
    {
      "midi": 64,
      "hit": false,
      "t": 108332.99750000001,
      "d": 89.28543750000244,
      "v": 80
    },
    {
      "midi": 60,
      "hit": false,
      "t": 108571.09200000002,
      "d": 364.58220312499907,
      "v": 78
    },
    {
      "midi": 53,
      "hit": false,
      "t": 108571.09200000002,
      "d": 367.06235416667187,
      "v": 79
    },
    {
      "midi": 57,
      "hit": false,
      "t": 108571.09200000002,
      "d": 372.0226562500029,
      "v": 88
    },
    {
      "midi": 41,
      "hit": false,
      "t": 108571.09200000002,
      "d": 543.153078125004,
      "v": 85
    },
    {
      "midi": 53,
      "hit": false,
      "t": 109047.28100000002,
      "d": 190.97163020833977,
      "v": 76
    },
    {
      "midi": 60,
      "hit": false,
      "t": 109047.28100000002,
      "d": 198.41208333334362,
      "v": 80
    },
    {
      "midi": 57,
      "hit": false,
      "t": 109047.28100000002,
      "d": 215.77314062500955,
      "v": 85
    },
    {
      "midi": 41,
      "hit": false,
      "t": 109285.37550000002,
      "d": 138.88845833332743,
      "v": 97
    },
    {
      "midi": 57,
      "hit": false,
      "t": 109523.47000000002,
      "d": 69.44422916666372,
      "v": 92
    },
    {
      "midi": 53,
      "hit": false,
      "t": 109523.47000000002,
      "d": 71.92438020833652,
      "v": 83
    },
    {
      "midi": 60,
      "hit": false,
      "t": 109523.47000000002,
      "d": 84.3251354166714,
      "v": 83
    },
    {
      "midi": 53,
      "hit": false,
      "t": 109761.56450000002,
      "d": 210.81283854166395,
      "v": 86
    },
    {
      "midi": 60,
      "hit": false,
      "t": 109761.56450000002,
      "d": 210.81283854166395,
      "v": 90
    },
    {
      "midi": 57,
      "hit": false,
      "t": 109761.56450000002,
      "d": 218.2532916666678,
      "v": 99
    },
    {
      "midi": 41,
      "hit": false,
      "t": 109999.65900000003,
      "d": 1019.342078125017,
      "v": 83
    },
    {
      "midi": 53,
      "hit": false,
      "t": 110237.75350000004,
      "d": 555.5538333333388,
      "v": 86
    },
    {
      "midi": 60,
      "hit": false,
      "t": 110237.75350000004,
      "d": 560.5141354166699,
      "v": 88
    },
    {
      "midi": 57,
      "hit": false,
      "t": 110237.75350000004,
      "d": 567.9545885416737,
      "v": 104
    },
    {
      "midi": 53,
      "hit": false,
      "t": 110952.03700000004,
      "d": 302.5784270833392,
      "v": 78
    },
    {
      "midi": 57,
      "hit": false,
      "t": 110952.03700000004,
      "d": 314.9791822916741,
      "v": 90
    },
    {
      "midi": 60,
      "hit": false,
      "t": 110952.03700000004,
      "d": 317.4593333333469,
      "v": 82
    },
    {
      "midi": 41,
      "hit": false,
      "t": 111190.13150000005,
      "d": 158.7296666666807,
      "v": 107
    },
    {
      "midi": 53,
      "hit": false,
      "t": 111428.22600000007,
      "d": 89.28543750000244,
      "v": 79
    },
    {
      "midi": 57,
      "hit": false,
      "t": 111428.22600000007,
      "d": 89.28543750000244,
      "v": 88
    },
    {
      "midi": 60,
      "hit": false,
      "t": 111428.22600000007,
      "d": 99.20604166666453,
      "v": 80
    },
    {
      "midi": 53,
      "hit": false,
      "t": 111666.32050000006,
      "d": 267.8563124999928,
      "v": 85
    },
    {
      "midi": 60,
      "hit": false,
      "t": 111666.32050000006,
      "d": 275.2967656249966,
      "v": 85
    },
    {
      "midi": 57,
      "hit": false,
      "t": 111666.32050000006,
      "d": 287.6975208333315,
      "v": 97
    },
    {
      "midi": 53,
      "hit": false,
      "t": 112142.50950000006,
      "d": 76.88468229166756,
      "v": 73
    },
    {
      "midi": 57,
      "hit": false,
      "t": 112142.50950000006,
      "d": 91.76558854166069,
      "v": 86
    },
    {
      "midi": 60,
      "hit": false,
      "t": 112142.50950000006,
      "d": 109.12664583332662,
      "v": 82
    },
    {
      "midi": 55,
      "hit": false,
      "t": 112380.60400000005,
      "d": 332.34023958334,
      "v": 66
    },
    {
      "midi": 64,
      "hit": false,
      "t": 112380.60400000005,
      "d": 337.30054166667105,
      "v": 79
    },
    {
      "midi": 60,
      "hit": false,
      "t": 112380.60400000005,
      "d": 344.7409947916749,
      "v": 88
    },
    {
      "midi": 48,
      "hit": false,
      "t": 112380.60400000005,
      "d": 548.1133802083496,
      "v": 94
    },
    {
      "midi": 62,
      "hit": false,
      "t": 112856.79300000006,
      "d": 220.7334427083406,
      "v": 78
    },
    {
      "midi": 55,
      "hit": false,
      "t": 112856.79300000006,
      "d": 245.53495312501036,
      "v": 85
    },
    {
      "midi": 65,
      "hit": false,
      "t": 112856.79300000006,
      "d": 272.8166145833384,
      "v": 92
    },
    {
      "midi": 48,
      "hit": false,
      "t": 113094.88750000007,
      "d": 223.21359374999884,
      "v": 101
    },
    {
      "midi": 55,
      "hit": false,
      "t": 113332.98200000006,
      "d": 262.8960104166763,
      "v": 80
    },
    {
      "midi": 60,
      "hit": false,
      "t": 113332.98200000006,
      "d": 267.85631250000733,
      "v": 79
    },
    {
      "midi": 64,
      "hit": false,
      "t": 113332.98200000006,
      "d": 267.85631250000733,
      "v": 78
    },
    {
      "midi": 48,
      "hit": false,
      "t": 113571.07650000007,
      "d": 218.2532916666678,
      "v": 107
    },
    {
      "midi": 62,
      "hit": false,
      "t": 113809.17100000007,
      "d": 218.2532916666678,
      "v": 90
    },
    {
      "midi": 65,
      "hit": false,
      "t": 113809.17100000007,
      "d": 240.57465104167932,
      "v": 85
    },
    {
      "midi": 55,
      "hit": false,
      "t": 113809.17100000007,
      "d": 248.01510416668316,
      "v": 75
    },
    {
      "midi": 48,
      "hit": false,
      "t": 114047.26550000008,
      "d": 116.56709895834501,
      "v": 113
    },
    {
      "midi": 55,
      "hit": false,
      "t": 114285.36000000009,
      "d": 81.8449843749986,
      "v": 80
    },
    {
      "midi": 60,
      "hit": false,
      "t": 114285.36000000009,
      "d": 81.8449843749986,
      "v": 90
    },
    {
      "midi": 64,
      "hit": false,
      "t": 114285.36000000009,
      "d": 101.68619270833733,
      "v": 85
    },
    {
      "midi": 55,
      "hit": false,
      "t": 114523.4545000001,
      "d": 282.73721875000047,
      "v": 83
    },
    {
      "midi": 60,
      "hit": false,
      "t": 114523.4545000001,
      "d": 292.65782291666255,
      "v": 92
    },
    {
      "midi": 64,
      "hit": false,
      "t": 114523.4545000001,
      "d": 297.6181249999936,
      "v": 85
    },
    {
      "midi": 48,
      "hit": false,
      "t": 114761.5490000001,
      "d": 109.12664583332662,
      "v": 104
    },
    {
      "midi": 55,
      "hit": false,
      "t": 114999.6435000001,
      "d": 285.21736979167326,
      "v": 83
    },
    {
      "midi": 60,
      "hit": false,
      "t": 114999.6435000001,
      "d": 285.21736979167326,
      "v": 92
    },
    {
      "midi": 64,
      "hit": false,
      "t": 114999.6435000001,
      "d": 290.1776718750043,
      "v": 85
    },
    {
      "midi": 48,
      "hit": false,
      "t": 115237.7380000001,
      "d": 104.16634374999558,
      "v": 107
    },
    {
      "midi": 55,
      "hit": false,
      "t": 115475.83250000009,
      "d": 119.04725000000326,
      "v": 78
    },
    {
      "midi": 60,
      "hit": false,
      "t": 115475.83250000009,
      "d": 126.4877031250071,
      "v": 88
    },
    {
      "midi": 64,
      "hit": false,
      "t": 115475.83250000009,
      "d": 131.44800520833815,
      "v": 80
    },
    {
      "midi": 64,
      "hit": false,
      "t": 115713.9270000001,
      "d": 243.05480208333756,
      "v": 82
    },
    {
      "midi": 60,
      "hit": false,
      "t": 115713.9270000001,
      "d": 248.0151041666686,
      "v": 90
    },
    {
      "midi": 55,
      "hit": false,
      "t": 115713.9270000001,
      "d": 260.4158593750035,
      "v": 80
    },
    {
      "midi": 43,
      "hit": false,
      "t": 115952.0215000001,
      "d": 324.8997864583216,
      "v": 99
    },
    {
      "midi": 55,
      "hit": false,
      "t": 116190.1160000001,
      "d": 305.05857812499744,
      "v": 79
    },
    {
      "midi": 59,
      "hit": false,
      "t": 116190.1160000001,
      "d": 305.05857812499744,
      "v": 88
    },
    {
      "midi": 62,
      "hit": false,
      "t": 116190.1160000001,
      "d": 317.4593333333323,
      "v": 82
    },
    {
      "midi": 43,
      "hit": false,
      "t": 116428.21050000009,
      "d": 240.57465104167932,
      "v": 94
    },
    {
      "midi": 55,
      "hit": false,
      "t": 116666.3050000001,
      "d": 265.37616145833454,
      "v": 80
    },
    {
      "midi": 60,
      "hit": false,
      "t": 116666.3050000001,
      "d": 277.7769166666694,
      "v": 94
    },
    {
      "midi": 64,
      "hit": false,
      "t": 116666.3050000001,
      "d": 277.7769166666694,
      "v": 85
    },
    {
      "midi": 43,
      "hit": false,
      "t": 116904.3995000001,
      "d": 238.09449999999197,
      "v": 107
    },
    {
      "midi": 55,
      "hit": false,
      "t": 117142.4940000001,
      "d": 280.2570677083422,
      "v": 83
    },
    {
      "midi": 59,
      "hit": false,
      "t": 117142.4940000001,
      "d": 290.1776718750043,
      "v": 92
    },
    {
      "midi": 62,
      "hit": false,
      "t": 117142.4940000001,
      "d": 295.13797395833535,
      "v": 85
    },
    {
      "midi": 43,
      "hit": false,
      "t": 117380.5885000001,
      "d": 240.57465104166477,
      "v": 110
    },
    {
      "midi": 55,
      "hit": false,
      "t": 117618.68300000009,
      "d": 275.2967656250112,
      "v": 85
    },
    {
      "midi": 60,
      "hit": false,
      "t": 117618.68300000009,
      "d": 285.21736979167326,
      "v": 97
    },
    {
      "midi": 64,
      "hit": false,
      "t": 117618.68300000009,
      "d": 285.21736979167326,
      "v": 88
    },
    {
      "midi": 43,
      "hit": false,
      "t": 117856.7775000001,
      "d": 138.88845833332743,
      "v": 113
    },
    {
      "midi": 43,
      "hit": false,
      "t": 118094.87200000009,
      "d": 198.41208333332906,
      "v": 113
    },
    {
      "midi": 55,
      "hit": false,
      "t": 118094.87200000009,
      "d": 198.41208333332906,
      "v": 99
    },
    {
      "midi": 59,
      "hit": false,
      "t": 118094.87200000009,
      "d": 213.2929895833222,
      "v": 107
    },
    {
      "midi": 62,
      "hit": false,
      "t": 118094.87200000009,
      "d": 228.17389583331533,
      "v": 97
    },
    {
      "midi": 55,
      "hit": false,
      "t": 119999.62800000007,
      "d": 575.395041666663,
      "v": 97
    },
    {
      "midi": 60,
      "hit": false,
      "t": 119999.62800000007,
      "d": 823.4101458333171,
      "v": 94
    },
    {
      "midi": 64,
      "hit": false,
      "t": 119999.62800000007,
      "d": 989.5802656249871,
      "v": 107
    },
    {
      "midi": 67,
      "hit": false,
      "t": 119999.62800000007,
      "d": 1029.26268229165,
      "v": 97
    },
    {
      "midi": 48,
      "hit": false,
      "t": 119999.62800000007,
      "d": 1068.9450989583129,
      "v": 104
    },
    {
      "midi": 55,
      "hit": false,
      "t": 120713.91150000006,
      "d": 138.88845833332743,
      "v": 92
    },
    {
      "midi": 60,
      "hit": false,
      "t": 120952.00600000005,
      "d": 208.33268749999115,
      "v": 67
    },
    {
      "midi": 55,
      "hit": false,
      "t": 121190.10050000004,
      "d": 79.36483333334036,
      "v": 94
    },
    {
      "midi": 48,
      "hit": false,
      "t": 121428.19500000005,
      "d": 339.7806927083293,
      "v": 97
    },
    {
      "midi": 69,
      "hit": false,
      "t": 121428.19500000005,
      "d": 347.22114583333314,
      "v": 97
    },
    {
      "midi": 60,
      "hit": false,
      "t": 121428.19500000005,
      "d": 362.10205208332627,
      "v": 94
    },
    {
      "midi": 65,
      "hit": false,
      "t": 121428.19500000005,
      "d": 362.10205208332627,
      "v": 110
    },
    {
      "midi": 55,
      "hit": false,
      "t": 121904.38400000005,
      "d": 560.5141354166699,
      "v": 85
    },
    {
      "midi": 67,
      "hit": false,
      "t": 121904.38400000005,
      "d": 1329.360958333331,
      "v": 83
    },
    {
      "midi": 60,
      "hit": false,
      "t": 121904.38400000005,
      "d": 1339.281562499993,
      "v": 79
    },
    {
      "midi": 64,
      "hit": false,
      "t": 121904.38400000005,
      "d": 1339.281562499993,
      "v": 88
    },
    {
      "midi": 48,
      "hit": false,
      "t": 121904.38400000005,
      "d": 1488.090624999997,
      "v": 88
    },
    {
      "midi": 55,
      "hit": false,
      "t": 122618.66750000005,
      "d": 285.21736979167326,
      "v": 86
    },
    {
      "midi": 55,
      "hit": false,
      "t": 123094.85650000005,
      "d": 166.17011979165545,
      "v": 90
    },
    {
      "midi": 64,
      "hit": false,
      "t": 123332.95100000004,
      "d": 151.28921354166232,
      "v": 104
    },
    {
      "midi": 60,
      "hit": false,
      "t": 123332.95100000004,
      "d": 163.6899687499972,
      "v": 94
    },
    {
      "midi": 67,
      "hit": false,
      "t": 123332.95100000004,
      "d": 163.6899687499972,
      "v": 94
    },
    {
      "midi": 45,
      "hit": false,
      "t": 123809.14000000004,
      "d": 1760.907239583321,
      "v": 94
    },
    {
      "midi": 57,
      "hit": false,
      "t": 123809.14000000004,
      "d": 1790.6690520833217,
      "v": 86
    },
    {
      "midi": 60,
      "hit": false,
      "t": 123809.14000000004,
      "d": 1795.6293541666528,
      "v": 94
    },
    {
      "midi": 64,
      "hit": false,
      "t": 123809.14000000004,
      "d": 1795.6293541666528,
      "v": 88
    },
    {
      "midi": 52,
      "hit": false,
      "t": 125118.65975000004,
      "d": 94.24573958333349,
      "v": 78
    },
    {
      "midi": 52,
      "hit": false,
      "t": 125475.80150000003,
      "d": 71.92438020833652,
      "v": 85
    },
    {
      "midi": 52,
      "hit": false,
      "t": 125713.89600000002,
      "d": 567.9545885416592,
      "v": 88
    },
    {
      "midi": 45,
      "hit": false,
      "t": 125713.89600000002,
      "d": 607.6370052083221,
      "v": 90
    },
    {
      "midi": 57,
      "hit": false,
      "t": 125713.89600000002,
      "d": 830.8505989583209,
      "v": 76
    },
    {
      "midi": 64,
      "hit": false,
      "t": 125713.89600000002,
      "d": 840.771203124983,
      "v": 79
    },
    {
      "midi": 60,
      "hit": false,
      "t": 125713.89600000002,
      "d": 853.1719583333179,
      "v": 83
    },
    {
      "midi": 45,
      "hit": false,
      "t": 126428.17950000001,
      "d": 81.8449843749986,
      "v": 78
    },
    {
      "midi": 52,
      "hit": false,
      "t": 126428.17950000001,
      "d": 81.8449843749986,
      "v": 76
    },
    {
      "midi": 52,
      "hit": false,
      "t": 126666.274,
      "d": 324.89978645833617,
      "v": 83
    },
    {
      "midi": 45,
      "hit": false,
      "t": 126666.274,
      "d": 357.1417500000098,
      "v": 85
    },
    {
      "midi": 57,
      "hit": false,
      "t": 126666.274,
      "d": 372.0226562500029,
      "v": 86
    },
    {
      "midi": 60,
      "hit": false,
      "t": 126666.274,
      "d": 372.0226562500029,
      "v": 94
    },
    {
      "midi": 64,
      "hit": false,
      "t": 126666.274,
      "d": 386.90356249999604,
      "v": 88
    },
    {
      "midi": 52,
      "hit": false,
      "t": 127142.463,
      "d": 248.01510416668316,
      "v": 86
    },
    {
      "midi": 64,
      "hit": false,
      "t": 127142.463,
      "d": 310.01888020834303,
      "v": 82
    },
    {
      "midi": 45,
      "hit": false,
      "t": 127142.463,
      "d": 319.9394843750051,
      "v": 90
    },
    {
      "midi": 55,
      "hit": false,
      "t": 127142.463,
      "d": 334.82039062499825,
      "v": 88
    },
    {
      "midi": 59,
      "hit": false,
      "t": 127142.463,
      "d": 334.82039062499825,
      "v": 94
    },
    {
      "midi": 60,
      "hit": false,
      "t": 127618.652,
      "d": 753.9659166666679,
      "v": 90
    },
    {
      "midi": 53,
      "hit": false,
      "t": 127618.652,
      "d": 761.4063697916718,
      "v": 86
    },
    {
      "midi": 57,
      "hit": false,
      "t": 127618.652,
      "d": 766.3666718750028,
      "v": 101
    },
    {
      "midi": 41,
      "hit": false,
      "t": 127618.652,
      "d": 3469.731307291717,
      "v": 88
    },
    {
      "midi": 48,
      "hit": false,
      "t": 128332.9355,
      "d": 136.4083072916692,
      "v": 85
    },
    {
      "midi": 53,
      "hit": false,
      "t": 128571.03000000001,
      "d": 337.30054166667105,
      "v": 70
    },
    {
      "midi": 57,
      "hit": false,
      "t": 128571.03000000001,
      "d": 429.06613020833174,
      "v": 79
    },
    {
      "midi": 60,
      "hit": false,
      "t": 128571.03000000001,
      "d": 456.34779166665976,
      "v": 75
    },
    {
      "midi": 48,
      "hit": false,
      "t": 128809.12450000002,
      "d": 240.5746510416502,
      "v": 83
    },
    {
      "midi": 53,
      "hit": false,
      "t": 129047.219,
      "d": 96.72589062500629,
      "v": 74
    },
    {
      "midi": 62,
      "hit": false,
      "t": 129285.3135,
      "d": 99.20604166666453,
      "v": 83
    },
    {
      "midi": 53,
      "hit": false,
      "t": 129285.3135,
      "d": 101.68619270833733,
      "v": 85
    },
    {
      "midi": 59,
      "hit": false,
      "t": 129285.3135,
      "d": 121.52740104167606,
      "v": 92
    },
    {
      "midi": 53,
      "hit": false,
      "t": 129523.40800000001,
      "d": 575.395041666663,
      "v": 71
    },
    {
      "midi": 60,
      "hit": false,
      "t": 129523.40800000001,
      "d": 1054.0641927083489,
      "v": 82
    },
    {
      "midi": 57,
      "hit": false,
      "t": 129523.40800000001,
      "d": 1068.9450989583565,
      "v": 88
    },
    {
      "midi": 48,
      "hit": false,
      "t": 129999.59700000001,
      "d": 198.41208333332906,
      "v": 92
    },
    {
      "midi": 53,
      "hit": false,
      "t": 130237.6915,
      "d": 347.22114583336224,
      "v": 83
    },
    {
      "midi": 48,
      "hit": false,
      "t": 130475.78600000001,
      "d": 195.93193229168537,
      "v": 92
    },
    {
      "midi": 53,
      "hit": false,
      "t": 130713.88050000003,
      "d": 337.30054166667105,
      "v": 83
    },
    {
      "midi": 57,
      "hit": false,
      "t": 130713.88050000003,
      "d": 359.6219010416826,
      "v": 92
    },
    {
      "midi": 60,
      "hit": false,
      "t": 130713.88050000003,
      "d": 367.06235416667187,
      "v": 90
    },
    {
      "midi": 48,
      "hit": false,
      "t": 130951.97500000003,
      "d": 133.92815625001094,
      "v": 85
    },
    {
      "midi": 57,
      "hit": false,
      "t": 131190.06950000004,
      "d": 74.40453125000931,
      "v": 79
    },
    {
      "midi": 53,
      "hit": false,
      "t": 131190.06950000004,
      "d": 79.36483333335491,
      "v": 63
    },
    {
      "midi": 60,
      "hit": false,
      "t": 131190.06950000004,
      "d": 101.68619270835188,
      "v": 74
    },
    {
      "midi": 55,
      "hit": false,
      "t": 131428.16400000008,
      "d": 357.1417500000098,
      "v": 88
    },
    {
      "midi": 62,
      "hit": false,
      "t": 131428.16400000008,
      "d": 357.1417500000098,
      "v": 85
    },
    {
      "midi": 59,
      "hit": false,
      "t": 131428.16400000008,
      "d": 364.58220312499907,
      "v": 94
    },
    {
      "midi": 43,
      "hit": false,
      "t": 131428.16400000008,
      "d": 503.4706614583556,
      "v": 97
    },
    {
      "midi": 55,
      "hit": false,
      "t": 131904.3530000001,
      "d": 280.25706770832767,
      "v": 78
    },
    {
      "midi": 64,
      "hit": false,
      "t": 131904.3530000001,
      "d": 280.25706770832767,
      "v": 82
    },
    {
      "midi": 60,
      "hit": false,
      "t": 131904.3530000001,
      "d": 290.17767187498976,
      "v": 88
    },
    {
      "midi": 43,
      "hit": false,
      "t": 132142.4475000001,
      "d": 220.73344270832604,
      "v": 107
    },
    {
      "midi": 55,
      "hit": false,
      "t": 132380.5420000001,
      "d": 267.8563124999928,
      "v": 86
    },
    {
      "midi": 62,
      "hit": false,
      "t": 132380.5420000001,
      "d": 282.73721875000047,
      "v": 90
    },
    {
      "midi": 59,
      "hit": false,
      "t": 132380.5420000001,
      "d": 287.69752083334606,
      "v": 97
    },
    {
      "midi": 43,
      "hit": false,
      "t": 132618.6365000001,
      "d": 267.8563124999928,
      "v": 113
    },
    {
      "midi": 55,
      "hit": false,
      "t": 132856.73100000012,
      "d": 305.05857812496834,
      "v": 90
    },
    {
      "midi": 64,
      "hit": false,
      "t": 132856.73100000012,
      "d": 307.53872916664113,
      "v": 90
    },
    {
      "midi": 60,
      "hit": false,
      "t": 132856.73100000012,
      "d": 314.9791822916304,
      "v": 104
    },
    {
      "midi": 43,
      "hit": false,
      "t": 133332.92000000007,
      "d": 1.240075520821847,
      "v": 97
    },
    {
      "midi": 55,
      "hit": false,
      "t": 133332.92000000007,
      "d": 357.1417499999807,
      "v": 88
    },
    {
      "midi": 62,
      "hit": false,
      "t": 133332.92000000007,
      "d": 357.1417499999807,
      "v": 85
    },
    {
      "midi": 59,
      "hit": false,
      "t": 133332.92000000007,
      "d": 364.58220312496996,
      "v": 94
    },
    {
      "midi": 55,
      "hit": false,
      "t": 133809.10900000005,
      "d": 280.25706770832767,
      "v": 78
    },
    {
      "midi": 64,
      "hit": false,
      "t": 133809.10900000005,
      "d": 280.25706770832767,
      "v": 82
    },
    {
      "midi": 60,
      "hit": false,
      "t": 133809.10900000005,
      "d": 290.17767187498976,
      "v": 88
    },
    {
      "midi": 43,
      "hit": false,
      "t": 134047.20350000006,
      "d": 220.73344270832604,
      "v": 107
    },
    {
      "midi": 55,
      "hit": false,
      "t": 134285.29800000007,
      "d": 267.8563124999928,
      "v": 86
    },
    {
      "midi": 62,
      "hit": false,
      "t": 134285.29800000007,
      "d": 282.73721875000047,
      "v": 90
    },
    {
      "midi": 59,
      "hit": false,
      "t": 134285.29800000007,
      "d": 287.69752083334606,
      "v": 97
    },
    {
      "midi": 43,
      "hit": false,
      "t": 134523.39250000007,
      "d": 267.8563124999928,
      "v": 113
    },
    {
      "midi": 55,
      "hit": false,
      "t": 134761.48700000008,
      "d": 305.05857812496834,
      "v": 90
    },
    {
      "midi": 64,
      "hit": false,
      "t": 134761.48700000008,
      "d": 307.53872916664113,
      "v": 90
    },
    {
      "midi": 60,
      "hit": false,
      "t": 134761.48700000008,
      "d": 314.9791822916304,
      "v": 104
    },
    {
      "midi": 43,
      "hit": false,
      "t": 134999.58150000006,
      "d": 238.09449999997742,
      "v": 113
    },
    {
      "midi": 55,
      "hit": false,
      "t": 135237.67600000004,
      "d": 575.395041666663,
      "v": 97
    },
    {
      "midi": 60,
      "hit": false,
      "t": 135237.67600000004,
      "d": 823.4101458333316,
      "v": 94
    },
    {
      "midi": 64,
      "hit": false,
      "t": 135237.67600000004,
      "d": 989.5802656250016,
      "v": 107
    },
    {
      "midi": 67,
      "hit": false,
      "t": 135237.67600000004,
      "d": 1029.262682291679,
      "v": 97
    },
    {
      "midi": 48,
      "hit": false,
      "t": 135237.67600000004,
      "d": 1068.9450989583565,
      "v": 104
    },
    {
      "midi": 55,
      "hit": false,
      "t": 135951.95950000003,
      "d": 138.88845833332743,
      "v": 92
    },
    {
      "midi": 60,
      "hit": false,
      "t": 136190.05400000003,
      "d": 208.33268750002026,
      "v": 67
    },
    {
      "midi": 55,
      "hit": false,
      "t": 136428.14850000004,
      "d": 79.3648333333258,
      "v": 94
    },
    {
      "midi": 48,
      "hit": false,
      "t": 136666.24300000005,
      "d": 339.7806927083293,
      "v": 97
    },
    {
      "midi": 69,
      "hit": false,
      "t": 136666.24300000005,
      "d": 347.2211458333186,
      "v": 97
    },
    {
      "midi": 60,
      "hit": false,
      "t": 136666.24300000005,
      "d": 362.10205208332627,
      "v": 94
    },
    {
      "midi": 65,
      "hit": false,
      "t": 136666.24300000005,
      "d": 362.10205208332627,
      "v": 110
    },
    {
      "midi": 55,
      "hit": false,
      "t": 137142.43200000003,
      "d": 560.5141354166553,
      "v": 85
    },
    {
      "midi": 67,
      "hit": false,
      "t": 137142.43200000003,
      "d": 1329.3609583333018,
      "v": 83
    },
    {
      "midi": 60,
      "hit": false,
      "t": 137142.43200000003,
      "d": 1339.281562499964,
      "v": 79
    },
    {
      "midi": 64,
      "hit": false,
      "t": 137142.43200000003,
      "d": 1339.281562499964,
      "v": 88
    },
    {
      "midi": 48,
      "hit": false,
      "t": 137142.43200000003,
      "d": 1488.0906249999825,
      "v": 88
    },
    {
      "midi": 55,
      "hit": false,
      "t": 137856.71550000002,
      "d": 285.21736979164416,
      "v": 86
    },
    {
      "midi": 55,
      "hit": false,
      "t": 138332.9045,
      "d": 166.17011979167,
      "v": 90
    },
    {
      "midi": 64,
      "hit": false,
      "t": 138570.999,
      "d": 151.28921354166232,
      "v": 104
    },
    {
      "midi": 60,
      "hit": false,
      "t": 138570.999,
      "d": 163.6899687499972,
      "v": 94
    },
    {
      "midi": 67,
      "hit": false,
      "t": 138570.999,
      "d": 163.6899687499972,
      "v": 94
    },
    {
      "midi": 45,
      "hit": false,
      "t": 139047.18800000002,
      "d": 1760.90723958335,
      "v": 94
    },
    {
      "midi": 57,
      "hit": false,
      "t": 139047.18800000002,
      "d": 1790.6690520833363,
      "v": 86
    },
    {
      "midi": 60,
      "hit": false,
      "t": 139047.18800000002,
      "d": 1795.6293541666819,
      "v": 94
    },
    {
      "midi": 64,
      "hit": false,
      "t": 139047.18800000002,
      "d": 1795.6293541666819,
      "v": 88
    },
    {
      "midi": 52,
      "hit": false,
      "t": 140356.70775000003,
      "d": 94.24573958333349,
      "v": 78
    },
    {
      "midi": 52,
      "hit": false,
      "t": 140713.84950000004,
      "d": 71.92438020833652,
      "v": 85
    },
    {
      "midi": 52,
      "hit": false,
      "t": 140951.94400000005,
      "d": 567.9545885416737,
      "v": 88
    },
    {
      "midi": 45,
      "hit": false,
      "t": 140951.94400000005,
      "d": 607.6370052083512,
      "v": 90
    },
    {
      "midi": 57,
      "hit": false,
      "t": 140951.94400000005,
      "d": 830.85059895835,
      "v": 76
    },
    {
      "midi": 64,
      "hit": false,
      "t": 140951.94400000005,
      "d": 840.7712031250121,
      "v": 79
    },
    {
      "midi": 60,
      "hit": false,
      "t": 140951.94400000005,
      "d": 853.171958333347,
      "v": 83
    },
    {
      "midi": 45,
      "hit": false,
      "t": 141666.22750000007,
      "d": 81.8449843749986,
      "v": 78
    },
    {
      "midi": 52,
      "hit": false,
      "t": 141666.22750000007,
      "d": 81.8449843749986,
      "v": 76
    },
    {
      "midi": 52,
      "hit": false,
      "t": 141904.32200000007,
      "d": 324.8997864583216,
      "v": 83
    },
    {
      "midi": 45,
      "hit": false,
      "t": 141904.32200000007,
      "d": 357.1417499999807,
      "v": 85
    },
    {
      "midi": 57,
      "hit": false,
      "t": 141904.32200000007,
      "d": 372.02265624998836,
      "v": 86
    },
    {
      "midi": 60,
      "hit": false,
      "t": 141904.32200000007,
      "d": 372.02265624998836,
      "v": 94
    },
    {
      "midi": 64,
      "hit": false,
      "t": 141904.32200000007,
      "d": 386.90356249999604,
      "v": 88
    },
    {
      "midi": 52,
      "hit": false,
      "t": 142380.51100000006,
      "d": 248.0151041666686,
      "v": 86
    },
    {
      "midi": 64,
      "hit": false,
      "t": 142380.51100000006,
      "d": 310.01888020834303,
      "v": 82
    },
    {
      "midi": 45,
      "hit": false,
      "t": 142380.51100000006,
      "d": 319.9394843750342,
      "v": 90
    },
    {
      "midi": 55,
      "hit": false,
      "t": 142380.51100000006,
      "d": 334.8203906250419,
      "v": 88
    },
    {
      "midi": 59,
      "hit": false,
      "t": 142380.51100000006,
      "d": 334.8203906250419,
      "v": 94
    },
    {
      "midi": 60,
      "hit": false,
      "t": 142856.7000000001,
      "d": 753.965916666697,
      "v": 90
    },
    {
      "midi": 53,
      "hit": false,
      "t": 142856.7000000001,
      "d": 761.4063697916863,
      "v": 86
    },
    {
      "midi": 57,
      "hit": false,
      "t": 142856.7000000001,
      "d": 766.3666718750319,
      "v": 101
    },
    {
      "midi": 41,
      "hit": false,
      "t": 142856.7000000001,
      "d": 3469.7313072916877,
      "v": 88
    },
    {
      "midi": 48,
      "hit": false,
      "t": 143570.98350000012,
      "d": 136.40830729168374,
      "v": 85
    },
    {
      "midi": 53,
      "hit": false,
      "t": 143809.07800000013,
      "d": 337.3005416666565,
      "v": 70
    },
    {
      "midi": 57,
      "hit": false,
      "t": 143809.07800000013,
      "d": 429.0661302083172,
      "v": 79
    },
    {
      "midi": 60,
      "hit": false,
      "t": 143809.07800000013,
      "d": 456.34779166665976,
      "v": 75
    },
    {
      "midi": 48,
      "hit": false,
      "t": 144047.1725000001,
      "d": 240.57465104167932,
      "v": 83
    },
    {
      "midi": 53,
      "hit": false,
      "t": 144285.2670000001,
      "d": 96.72589062500629,
      "v": 74
    },
    {
      "midi": 62,
      "hit": false,
      "t": 144523.36150000012,
      "d": 99.20604166664998,
      "v": 83
    },
    {
      "midi": 53,
      "hit": false,
      "t": 144523.36150000012,
      "d": 101.68619270832278,
      "v": 85
    },
    {
      "midi": 59,
      "hit": false,
      "t": 144523.36150000012,
      "d": 121.52740104164695,
      "v": 92
    },
    {
      "midi": 53,
      "hit": false,
      "t": 144761.4560000001,
      "d": 575.3950416666921,
      "v": 71
    },
    {
      "midi": 60,
      "hit": false,
      "t": 144761.4560000001,
      "d": 1054.064192708378,
      "v": 82
    },
    {
      "midi": 57,
      "hit": false,
      "t": 144761.4560000001,
      "d": 1068.9450989583565,
      "v": 88
    },
    {
      "midi": 48,
      "hit": false,
      "t": 145237.6450000001,
      "d": 198.41208333335817,
      "v": 92
    },
    {
      "midi": 53,
      "hit": false,
      "t": 145475.73950000014,
      "d": 347.2211458333186,
      "v": 83
    },
    {
      "midi": 48,
      "hit": false,
      "t": 145713.83400000015,
      "d": 195.93193229165627,
      "v": 92
    },
    {
      "midi": 53,
      "hit": false,
      "t": 145951.92850000013,
      "d": 337.3005416666565,
      "v": 83
    },
    {
      "midi": 57,
      "hit": false,
      "t": 145951.92850000013,
      "d": 359.6219010416535,
      "v": 92
    },
    {
      "midi": 60,
      "hit": false,
      "t": 145951.92850000013,
      "d": 367.06235416664276,
      "v": 90
    },
    {
      "midi": 48,
      "hit": false,
      "t": 146190.02300000013,
      "d": 133.92815624998184,
      "v": 85
    },
    {
      "midi": 57,
      "hit": false,
      "t": 146428.1175000001,
      "d": 74.40453125000931,
      "v": 79
    },
    {
      "midi": 53,
      "hit": false,
      "t": 146428.1175000001,
      "d": 79.36483333335491,
      "v": 63
    },
    {
      "midi": 60,
      "hit": false,
      "t": 146428.1175000001,
      "d": 101.68619270835188,
      "v": 74
    },
    {
      "midi": 55,
      "hit": false,
      "t": 146666.21200000015,
      "d": 357.1417500000098,
      "v": 88
    },
    {
      "midi": 62,
      "hit": false,
      "t": 146666.21200000015,
      "d": 357.1417500000098,
      "v": 85
    },
    {
      "midi": 59,
      "hit": false,
      "t": 146666.21200000015,
      "d": 364.58220312499907,
      "v": 94
    },
    {
      "midi": 43,
      "hit": false,
      "t": 146666.21200000015,
      "d": 503.4706614583556,
      "v": 97
    },
    {
      "midi": 55,
      "hit": false,
      "t": 147142.40100000016,
      "d": 280.25706770832767,
      "v": 78
    },
    {
      "midi": 64,
      "hit": false,
      "t": 147142.40100000016,
      "d": 280.25706770832767,
      "v": 82
    },
    {
      "midi": 60,
      "hit": false,
      "t": 147142.40100000016,
      "d": 290.17767187498976,
      "v": 88
    },
    {
      "midi": 43,
      "hit": false,
      "t": 147380.49550000016,
      "d": 220.73344270832604,
      "v": 107
    },
    {
      "midi": 55,
      "hit": false,
      "t": 147618.59000000017,
      "d": 267.8563124999928,
      "v": 86
    },
    {
      "midi": 62,
      "hit": false,
      "t": 147618.59000000017,
      "d": 282.73721875000047,
      "v": 90
    },
    {
      "midi": 59,
      "hit": false,
      "t": 147618.59000000017,
      "d": 287.69752083334606,
      "v": 97
    },
    {
      "midi": 43,
      "hit": false,
      "t": 147856.68450000018,
      "d": 267.8563124999928,
      "v": 113
    },
    {
      "midi": 55,
      "hit": false,
      "t": 148094.77900000018,
      "d": 305.05857812496834,
      "v": 90
    },
    {
      "midi": 64,
      "hit": false,
      "t": 148094.77900000018,
      "d": 307.53872916664113,
      "v": 90
    },
    {
      "midi": 60,
      "hit": false,
      "t": 148094.77900000018,
      "d": 314.9791822916304,
      "v": 104
    },
    {
      "midi": 43,
      "hit": false,
      "t": 148570.96800000014,
      "d": 1.240075520821847,
      "v": 97
    },
    {
      "midi": 55,
      "hit": false,
      "t": 148570.96800000014,
      "d": 357.1417499999807,
      "v": 88
    },
    {
      "midi": 62,
      "hit": false,
      "t": 148570.96800000014,
      "d": 357.1417499999807,
      "v": 85
    },
    {
      "midi": 59,
      "hit": false,
      "t": 148570.96800000014,
      "d": 364.58220312496996,
      "v": 94
    },
    {
      "midi": 55,
      "hit": false,
      "t": 149047.15700000012,
      "d": 280.25706770832767,
      "v": 78
    },
    {
      "midi": 64,
      "hit": false,
      "t": 149047.15700000012,
      "d": 280.25706770832767,
      "v": 82
    },
    {
      "midi": 60,
      "hit": false,
      "t": 149047.15700000012,
      "d": 290.17767187498976,
      "v": 88
    },
    {
      "midi": 43,
      "hit": false,
      "t": 149285.25150000013,
      "d": 220.73344270832604,
      "v": 107
    },
    {
      "midi": 55,
      "hit": false,
      "t": 149523.34600000014,
      "d": 267.8563124999928,
      "v": 86
    },
    {
      "midi": 62,
      "hit": false,
      "t": 149523.34600000014,
      "d": 282.73721875000047,
      "v": 90
    },
    {
      "midi": 59,
      "hit": false,
      "t": 149523.34600000014,
      "d": 287.69752083334606,
      "v": 97
    },
    {
      "midi": 43,
      "hit": false,
      "t": 149761.44050000014,
      "d": 267.8563124999928,
      "v": 113
    },
    {
      "midi": 55,
      "hit": false,
      "t": 149999.53500000015,
      "d": 305.05857812496834,
      "v": 90
    },
    {
      "midi": 64,
      "hit": false,
      "t": 149999.53500000015,
      "d": 307.53872916664113,
      "v": 90
    },
    {
      "midi": 60,
      "hit": false,
      "t": 149999.53500000015,
      "d": 314.9791822916304,
      "v": 104
    },
    {
      "midi": 43,
      "hit": false,
      "t": 150237.62950000013,
      "d": 238.09449999997742,
      "v": 113
    },
    {
      "midi": 55,
      "hit": false,
      "t": 150475.7240000001,
      "d": 575.395041666663,
      "v": 97
    },
    {
      "midi": 60,
      "hit": false,
      "t": 150475.7240000001,
      "d": 823.4101458333316,
      "v": 94
    },
    {
      "midi": 64,
      "hit": false,
      "t": 150475.7240000001,
      "d": 989.5802656250016,
      "v": 107
    },
    {
      "midi": 67,
      "hit": false,
      "t": 150475.7240000001,
      "d": 1029.262682291679,
      "v": 97
    },
    {
      "midi": 48,
      "hit": false,
      "t": 150475.7240000001,
      "d": 1068.9450989583565,
      "v": 104
    },
    {
      "midi": 55,
      "hit": false,
      "t": 151190.0075000001,
      "d": 138.88845833332743,
      "v": 92
    },
    {
      "midi": 60,
      "hit": false,
      "t": 151428.1020000001,
      "d": 208.33268750002026,
      "v": 67
    },
    {
      "midi": 55,
      "hit": false,
      "t": 151666.1965000001,
      "d": 79.3648333333258,
      "v": 94
    },
    {
      "midi": 48,
      "hit": false,
      "t": 151904.2910000001,
      "d": 339.7806927083293,
      "v": 97
    },
    {
      "midi": 69,
      "hit": false,
      "t": 151904.2910000001,
      "d": 347.2211458333186,
      "v": 97
    },
    {
      "midi": 60,
      "hit": false,
      "t": 151904.2910000001,
      "d": 362.10205208332627,
      "v": 94
    },
    {
      "midi": 65,
      "hit": false,
      "t": 151904.2910000001,
      "d": 362.10205208332627,
      "v": 110
    },
    {
      "midi": 55,
      "hit": false,
      "t": 152380.4800000001,
      "d": 560.5141354166553,
      "v": 85
    },
    {
      "midi": 67,
      "hit": false,
      "t": 152380.4800000001,
      "d": 1329.3609583333018,
      "v": 83
    },
    {
      "midi": 60,
      "hit": false,
      "t": 152380.4800000001,
      "d": 1339.281562499964,
      "v": 79
    },
    {
      "midi": 64,
      "hit": false,
      "t": 152380.4800000001,
      "d": 1339.281562499964,
      "v": 88
    },
    {
      "midi": 48,
      "hit": false,
      "t": 152380.4800000001,
      "d": 1488.0906249999825,
      "v": 88
    },
    {
      "midi": 55,
      "hit": false,
      "t": 153094.7635000001,
      "d": 285.21736979164416,
      "v": 86
    },
    {
      "midi": 55,
      "hit": false,
      "t": 153570.95250000007,
      "d": 166.17011979167,
      "v": 90
    },
    {
      "midi": 64,
      "hit": false,
      "t": 153809.04700000008,
      "d": 151.28921354166232,
      "v": 104
    },
    {
      "midi": 60,
      "hit": false,
      "t": 153809.04700000008,
      "d": 163.6899687499972,
      "v": 94
    },
    {
      "midi": 67,
      "hit": false,
      "t": 153809.04700000008,
      "d": 163.6899687499972,
      "v": 94
    },
    {
      "midi": 45,
      "hit": false,
      "t": 154285.2360000001,
      "d": 1760.90723958335,
      "v": 94
    },
    {
      "midi": 57,
      "hit": false,
      "t": 154285.2360000001,
      "d": 1790.6690520833363,
      "v": 86
    },
    {
      "midi": 60,
      "hit": false,
      "t": 154285.2360000001,
      "d": 1795.6293541666819,
      "v": 94
    },
    {
      "midi": 64,
      "hit": false,
      "t": 154285.2360000001,
      "d": 1795.6293541666819,
      "v": 88
    },
    {
      "midi": 52,
      "hit": false,
      "t": 155594.7557500001,
      "d": 94.24573958333349,
      "v": 78
    },
    {
      "midi": 52,
      "hit": false,
      "t": 155951.8975000001,
      "d": 71.92438020833652,
      "v": 85
    },
    {
      "midi": 52,
      "hit": false,
      "t": 156189.99200000011,
      "d": 567.9545885416737,
      "v": 88
    },
    {
      "midi": 45,
      "hit": false,
      "t": 156189.99200000011,
      "d": 607.6370052083512,
      "v": 90
    },
    {
      "midi": 57,
      "hit": false,
      "t": 156189.99200000011,
      "d": 830.85059895835,
      "v": 76
    },
    {
      "midi": 64,
      "hit": false,
      "t": 156189.99200000011,
      "d": 840.7712031250121,
      "v": 79
    },
    {
      "midi": 60,
      "hit": false,
      "t": 156189.99200000011,
      "d": 853.171958333347,
      "v": 83
    },
    {
      "midi": 45,
      "hit": false,
      "t": 156904.27550000013,
      "d": 81.8449843749986,
      "v": 78
    },
    {
      "midi": 52,
      "hit": false,
      "t": 156904.27550000013,
      "d": 81.8449843749986,
      "v": 76
    },
    {
      "midi": 52,
      "hit": false,
      "t": 157142.37000000014,
      "d": 324.8997864583216,
      "v": 83
    },
    {
      "midi": 45,
      "hit": false,
      "t": 157142.37000000014,
      "d": 357.1417499999807,
      "v": 85
    },
    {
      "midi": 57,
      "hit": false,
      "t": 157142.37000000014,
      "d": 372.02265624998836,
      "v": 86
    },
    {
      "midi": 60,
      "hit": false,
      "t": 157142.37000000014,
      "d": 372.02265624998836,
      "v": 94
    },
    {
      "midi": 64,
      "hit": false,
      "t": 157142.37000000014,
      "d": 386.90356249999604,
      "v": 88
    },
    {
      "midi": 52,
      "hit": false,
      "t": 157618.55900000012,
      "d": 248.0151041666686,
      "v": 86
    },
    {
      "midi": 64,
      "hit": false,
      "t": 157618.55900000012,
      "d": 310.01888020834303,
      "v": 82
    },
    {
      "midi": 45,
      "hit": false,
      "t": 157618.55900000012,
      "d": 319.9394843750342,
      "v": 90
    },
    {
      "midi": 55,
      "hit": false,
      "t": 157618.55900000012,
      "d": 334.8203906250419,
      "v": 88
    },
    {
      "midi": 59,
      "hit": false,
      "t": 157618.55900000012,
      "d": 334.8203906250419,
      "v": 94
    },
    {
      "midi": 60,
      "hit": false,
      "t": 158094.74800000017,
      "d": 753.965916666697,
      "v": 90
    },
    {
      "midi": 53,
      "hit": false,
      "t": 158094.74800000017,
      "d": 761.4063697916863,
      "v": 86
    },
    {
      "midi": 57,
      "hit": false,
      "t": 158094.74800000017,
      "d": 766.3666718750319,
      "v": 101
    },
    {
      "midi": 41,
      "hit": false,
      "t": 158094.74800000017,
      "d": 3469.7313072916877,
      "v": 88
    },
    {
      "midi": 48,
      "hit": false,
      "t": 158809.0315000002,
      "d": 136.40830729168374,
      "v": 85
    },
    {
      "midi": 53,
      "hit": false,
      "t": 159047.1260000002,
      "d": 337.3005416666565,
      "v": 70
    },
    {
      "midi": 57,
      "hit": false,
      "t": 159047.1260000002,
      "d": 429.0661302083172,
      "v": 79
    },
    {
      "midi": 60,
      "hit": false,
      "t": 159047.1260000002,
      "d": 456.34779166665976,
      "v": 75
    },
    {
      "midi": 48,
      "hit": false,
      "t": 159285.22050000017,
      "d": 240.57465104167932,
      "v": 83
    },
    {
      "midi": 53,
      "hit": false,
      "t": 159523.31500000018,
      "d": 96.72589062500629,
      "v": 74
    },
    {
      "midi": 62,
      "hit": false,
      "t": 159761.40950000018,
      "d": 99.20604166664998,
      "v": 83
    },
    {
      "midi": 53,
      "hit": false,
      "t": 159761.40950000018,
      "d": 101.68619270832278,
      "v": 85
    },
    {
      "midi": 59,
      "hit": false,
      "t": 159761.40950000018,
      "d": 121.52740104164695,
      "v": 92
    },
    {
      "midi": 53,
      "hit": false,
      "t": 159999.50400000016,
      "d": 575.3950416666921,
      "v": 71
    },
    {
      "midi": 60,
      "hit": false,
      "t": 159999.50400000016,
      "d": 1054.064192708378,
      "v": 82
    },
    {
      "midi": 57,
      "hit": false,
      "t": 159999.50400000016,
      "d": 1068.9450989583565,
      "v": 88
    },
    {
      "midi": 48,
      "hit": false,
      "t": 160475.69300000017,
      "d": 198.41208333335817,
      "v": 92
    },
    {
      "midi": 53,
      "hit": false,
      "t": 160713.7875000002,
      "d": 347.2211458333186,
      "v": 83
    },
    {
      "midi": 48,
      "hit": false,
      "t": 160951.88200000022,
      "d": 195.93193229165627,
      "v": 92
    },
    {
      "midi": 53,
      "hit": false,
      "t": 161189.9765000002,
      "d": 337.3005416666565,
      "v": 83
    },
    {
      "midi": 57,
      "hit": false,
      "t": 161189.9765000002,
      "d": 359.6219010416535,
      "v": 92
    },
    {
      "midi": 60,
      "hit": false,
      "t": 161189.9765000002,
      "d": 367.06235416664276,
      "v": 90
    },
    {
      "midi": 48,
      "hit": false,
      "t": 161428.0710000002,
      "d": 133.92815624998184,
      "v": 85
    },
    {
      "midi": 57,
      "hit": false,
      "t": 161666.16550000018,
      "d": 74.40453125000931,
      "v": 79
    },
    {
      "midi": 53,
      "hit": false,
      "t": 161666.16550000018,
      "d": 79.36483333335491,
      "v": 63
    },
    {
      "midi": 60,
      "hit": false,
      "t": 161666.16550000018,
      "d": 101.68619270835188,
      "v": 74
    },
    {
      "midi": 55,
      "hit": false,
      "t": 161904.2600000002,
      "d": 357.1417500000098,
      "v": 88
    },
    {
      "midi": 62,
      "hit": false,
      "t": 161904.2600000002,
      "d": 357.1417500000098,
      "v": 85
    },
    {
      "midi": 59,
      "hit": false,
      "t": 161904.2600000002,
      "d": 364.58220312499907,
      "v": 94
    },
    {
      "midi": 43,
      "hit": false,
      "t": 161904.2600000002,
      "d": 503.4706614583556,
      "v": 97
    },
    {
      "midi": 55,
      "hit": false,
      "t": 162380.44900000023,
      "d": 280.25706770832767,
      "v": 78
    },
    {
      "midi": 64,
      "hit": false,
      "t": 162380.44900000023,
      "d": 280.25706770832767,
      "v": 82
    },
    {
      "midi": 60,
      "hit": false,
      "t": 162380.44900000023,
      "d": 290.17767187498976,
      "v": 88
    },
    {
      "midi": 43,
      "hit": false,
      "t": 162618.54350000023,
      "d": 220.73344270832604,
      "v": 107
    },
    {
      "midi": 55,
      "hit": false,
      "t": 162856.63800000024,
      "d": 267.8563124999928,
      "v": 86
    },
    {
      "midi": 62,
      "hit": false,
      "t": 162856.63800000024,
      "d": 282.73721875000047,
      "v": 90
    },
    {
      "midi": 59,
      "hit": false,
      "t": 162856.63800000024,
      "d": 287.69752083334606,
      "v": 97
    },
    {
      "midi": 43,
      "hit": false,
      "t": 163094.73250000025,
      "d": 267.8563124999928,
      "v": 113
    },
    {
      "midi": 55,
      "hit": false,
      "t": 163332.82700000025,
      "d": 305.05857812496834,
      "v": 90
    },
    {
      "midi": 64,
      "hit": false,
      "t": 163332.82700000025,
      "d": 307.53872916664113,
      "v": 90
    },
    {
      "midi": 60,
      "hit": false,
      "t": 163332.82700000025,
      "d": 314.9791822916304,
      "v": 104
    },
    {
      "midi": 43,
      "hit": false,
      "t": 163809.0160000002,
      "d": 1.240075520821847,
      "v": 97
    },
    {
      "midi": 55,
      "hit": false,
      "t": 163809.0160000002,
      "d": 357.1417499999807,
      "v": 88
    },
    {
      "midi": 62,
      "hit": false,
      "t": 163809.0160000002,
      "d": 357.1417499999807,
      "v": 85
    },
    {
      "midi": 59,
      "hit": false,
      "t": 163809.0160000002,
      "d": 364.58220312496996,
      "v": 94
    },
    {
      "midi": 55,
      "hit": false,
      "t": 164285.2050000002,
      "d": 280.25706770832767,
      "v": 78
    },
    {
      "midi": 64,
      "hit": false,
      "t": 164285.2050000002,
      "d": 280.25706770832767,
      "v": 82
    },
    {
      "midi": 60,
      "hit": false,
      "t": 164285.2050000002,
      "d": 290.17767187498976,
      "v": 88
    },
    {
      "midi": 43,
      "hit": false,
      "t": 164523.2995000002,
      "d": 220.73344270832604,
      "v": 107
    },
    {
      "midi": 55,
      "hit": false,
      "t": 164761.3940000002,
      "d": 267.8563124999928,
      "v": 86
    },
    {
      "midi": 62,
      "hit": false,
      "t": 164761.3940000002,
      "d": 282.73721875000047,
      "v": 90
    },
    {
      "midi": 59,
      "hit": false,
      "t": 164761.3940000002,
      "d": 287.69752083334606,
      "v": 97
    },
    {
      "midi": 43,
      "hit": false,
      "t": 164999.4885000002,
      "d": 267.8563124999928,
      "v": 113
    },
    {
      "midi": 55,
      "hit": false,
      "t": 165237.58300000022,
      "d": 305.05857812496834,
      "v": 90
    },
    {
      "midi": 64,
      "hit": false,
      "t": 165237.58300000022,
      "d": 307.53872916664113,
      "v": 90
    },
    {
      "midi": 60,
      "hit": false,
      "t": 165237.58300000022,
      "d": 314.9791822916304,
      "v": 104
    },
    {
      "midi": 43,
      "hit": false,
      "t": 165475.6775000002,
      "d": 238.09449999997742,
      "v": 113
    },
    {
      "midi": 55,
      "hit": false,
      "t": 165713.77200000017,
      "d": 3970.7218177083414,
      "v": 97
    },
    {
      "midi": 36,
      "hit": false,
      "t": 165713.77200000017,
      "d": 3988.082875000022,
      "v": 90
    },
    {
      "midi": 48,
      "hit": false,
      "t": 165713.77200000017,
      "d": 3990.5630260416947,
      "v": 90
    },
    {
      "midi": 60,
      "hit": false,
      "t": 165713.77200000017,
      "d": 4002.9637812500296,
      "v": 101
    },
    {
      "midi": 64,
      "hit": false,
      "t": 165713.77200000017,
      "d": 4022.8049895833537,
      "v": 92
    }
  ]
}