{
  "jsonPath": "Soul/Funk/Gerald Levert/men-like-us-lp-version.json",
  "path": "Soul\\Funk\\Gerald Levert\\Men Like Us (LP Version).mid",
  "name": "Men Like Us (LP Version)",
  "difficulty": "Advanced",
  "bpm": 122.00180562672328,
  "notes": [
    {
      "midi": 59,
      "hit": false,
      "t": 2945.653125,
      "d": 493.07671875000005,
      "v": 113
    },
    {
      "midi": 61,
      "hit": false,
      "t": 3447.6948749999997,
      "d": 188.26565625000012,
      "v": 113
    },
    {
      "midi": 59,
      "hit": false,
      "t": 3929.245125,
      "d": 521.2525312499997,
      "v": 111
    },
    {
      "midi": 54,
      "hit": false,
      "t": 3931.8065624999995,
      "d": 667.2544687499999,
      "v": 108
    },
    {
      "midi": 63,
      "hit": false,
      "t": 3939.4908749999995,
      "d": 569.9198437499999,
      "v": 109
    },
    {
      "midi": 35,
      "hit": false,
      "t": 3939.4908749999995,
      "d": 1187.2262812499994,
      "v": 110
    },
    {
      "midi": 47,
      "hit": false,
      "t": 3939.4908749999995,
      "d": 1574.0033437499997,
      "v": 109
    },
    {
      "midi": 54,
      "hit": false,
      "t": 4912.837124999999,
      "d": 549.4283437499998,
      "v": 109
    },
    {
      "midi": 59,
      "hit": false,
      "t": 4915.398562499999,
      "d": 508.4453437500006,
      "v": 110
    },
    {
      "midi": 63,
      "hit": false,
      "t": 4920.521437499999,
      "d": 523.8139687500006,
      "v": 109
    },
    {
      "midi": 45,
      "hit": false,
      "t": 5896.429124999999,
      "d": 1210.27921875,
      "v": 108
    },
    {
      "midi": 57,
      "hit": false,
      "t": 5898.990562499998,
      "d": 628.8329062499997,
      "v": 110
    },
    {
      "midi": 54,
      "hit": false,
      "t": 5906.674874999998,
      "d": 367.5662812499995,
      "v": 107
    },
    {
      "midi": 61,
      "hit": false,
      "t": 5906.674874999998,
      "d": 534.0597187499998,
      "v": 109
    },
    {
      "midi": 33,
      "hit": false,
      "t": 5906.674874999998,
      "d": 1594.4948437499997,
      "v": 108
    },
    {
      "midi": 54,
      "hit": false,
      "t": 6388.225124999997,
      "d": 160.0898437500009,
      "v": 104
    },
    {
      "midi": 57,
      "hit": false,
      "t": 6885.143999999998,
      "d": 487.9538437499996,
      "v": 110
    },
    {
      "midi": 61,
      "hit": false,
      "t": 6890.266874999998,
      "d": 459.7780312499999,
      "v": 107
    },
    {
      "midi": 54,
      "hit": false,
      "t": 6890.266874999998,
      "d": 480.26953125,
      "v": 110
    },
    {
      "midi": 45,
      "hit": false,
      "t": 7376.939999999998,
      "d": 113.9839687499998,
      "v": 107
    },
    {
      "midi": 54,
      "hit": false,
      "t": 7866.174562499998,
      "d": 395.7420937499983,
      "v": 106
    },
    {
      "midi": 56,
      "hit": false,
      "t": 7866.174562499998,
      "d": 667.2544687499967,
      "v": 108
    },
    {
      "midi": 61,
      "hit": false,
      "t": 7868.735999999997,
      "d": 628.8329062499979,
      "v": 109
    },
    {
      "midi": 32,
      "hit": false,
      "t": 7871.297437499998,
      "d": 1607.3020312499957,
      "v": 107
    },
    {
      "midi": 44,
      "hit": false,
      "t": 7873.858874999997,
      "d": 1123.190343749996,
      "v": 107
    },
    {
      "midi": 54,
      "hit": false,
      "t": 8360.531999999996,
      "d": 180.58134374999827,
      "v": 106
    },
    {
      "midi": 56,
      "hit": false,
      "t": 8849.766562499994,
      "d": 498.1995937499996,
      "v": 110
    },
    {
      "midi": 61,
      "hit": false,
      "t": 8852.327999999994,
      "d": 485.3924062499991,
      "v": 110
    },
    {
      "midi": 54,
      "hit": false,
      "t": 8857.450874999993,
      "d": 485.3924062499991,
      "v": 110
    },
    {
      "midi": 44,
      "hit": false,
      "t": 9344.123999999993,
      "d": 2327.0659687499992,
      "v": 107
    },
    {
      "midi": 54,
      "hit": false,
      "t": 9830.797124999994,
      "d": 828.6250312499978,
      "v": 107
    },
    {
      "midi": 60,
      "hit": false,
      "t": 9835.919999999993,
      "d": 841.4322187499984,
      "v": 109
    },
    {
      "midi": 56,
      "hit": false,
      "t": 9841.042874999992,
      "d": 846.5550937499993,
      "v": 108
    },
    {
      "midi": 32,
      "hit": false,
      "t": 9841.042874999992,
      "d": 1889.0601562499996,
      "v": 106
    },
    {
      "midi": 60,
      "hit": false,
      "t": 10816.950562499991,
      "d": 951.574031250002,
      "v": 110
    },
    {
      "midi": 56,
      "hit": false,
      "t": 10819.511999999992,
      "d": 936.205406250001,
      "v": 107
    },
    {
      "midi": 54,
      "hit": false,
      "t": 10824.63487499999,
      "d": 918.2753437500014,
      "v": 107
    },
    {
      "midi": 61,
      "hit": false,
      "t": 11306.18512499999,
      "d": 231.8100937500003,
      "v": 112
    },
    {
      "midi": 63,
      "hit": false,
      "t": 11559.767437499992,
      "d": 229.24865625000166,
      "v": 114
    },
    {
      "midi": 64,
      "hit": false,
      "t": 11797.981124999993,
      "d": 464.90090625000084,
      "v": 112
    },
    {
      "midi": 37,
      "hit": false,
      "t": 11797.981124999993,
      "d": 1087.3302187500012,
      "v": 109
    },
    {
      "midi": 61,
      "hit": false,
      "t": 11803.103999999992,
      "d": 511.00678125000195,
      "v": 110
    },
    {
      "midi": 49,
      "hit": false,
      "t": 11803.103999999992,
      "d": 1095.0145312500026,
      "v": 108
    },
    {
      "midi": 56,
      "hit": false,
      "t": 11805.665437499993,
      "d": 382.9349062500005,
      "v": 108
    },
    {
      "midi": 56,
      "hit": false,
      "t": 12292.338562499994,
      "d": 147.2826562499995,
      "v": 107
    },
    {
      "midi": 61,
      "hit": false,
      "t": 12784.134562499994,
      "d": 534.0597187500007,
      "v": 111
    },
    {
      "midi": 56,
      "hit": false,
      "t": 12789.257437499993,
      "d": 472.58521875000224,
      "v": 109
    },
    {
      "midi": 64,
      "hit": false,
      "t": 12791.818874999994,
      "d": 408.5492812500015,
      "v": 113
    },
    {
      "midi": 37,
      "hit": false,
      "t": 13273.369124999996,
      "d": 162.65128124999865,
      "v": 107
    },
    {
      "midi": 49,
      "hit": false,
      "t": 13278.491999999995,
      "d": 147.2826562499995,
      "v": 106
    },
    {
      "midi": 49,
      "hit": false,
      "t": 13767.726562499993,
      "d": 1159.0504687500015,
      "v": 110
    },
    {
      "midi": 60,
      "hit": false,
      "t": 13772.849437499992,
      "d": 582.7270312500004,
      "v": 111
    },
    {
      "midi": 56,
      "hit": false,
      "t": 13775.410874999992,
      "d": 341.9519062500003,
      "v": 109
    },
    {
      "midi": 64,
      "hit": false,
      "t": 13775.410874999992,
      "d": 692.8688437500005,
      "v": 111
    },
    {
      "midi": 37,
      "hit": false,
      "t": 13775.410874999992,
      "d": 1666.215093750001,
      "v": 110
    },
    {
      "midi": 56,
      "hit": false,
      "t": 14264.645437499992,
      "d": 267.67021875000137,
      "v": 104
    },
    {
      "midi": 56,
      "hit": false,
      "t": 14753.879999999994,
      "d": 480.26953125,
      "v": 109
    },
    {
      "midi": 60,
      "hit": false,
      "t": 14753.879999999994,
      "d": 485.3924062499991,
      "v": 111
    },
    {
      "midi": 64,
      "hit": false,
      "t": 14753.879999999994,
      "d": 495.63815624999916,
      "v": 111
    },
    {
      "midi": 49,
      "hit": false,
      "t": 15248.237437499993,
      "d": 111.42253125000025,
      "v": 109
    },
    {
      "midi": 64,
      "hit": false,
      "t": 15732.349124999993,
      "d": 562.2355312500003,
      "v": 111
    },
    {
      "midi": 47,
      "hit": false,
      "t": 15732.349124999993,
      "d": 1448.492906250005,
      "v": 109
    },
    {
      "midi": 59,
      "hit": false,
      "t": 15734.910562499994,
      "d": 562.2355312500003,
      "v": 111
    },
    {
      "midi": 56,
      "hit": false,
      "t": 15740.033437499993,
      "d": 336.8290312500012,
      "v": 109
    },
    {
      "midi": 35,
      "hit": false,
      "t": 15740.033437499993,
      "d": 1036.1014687500046,
      "v": 110
    },
    {
      "midi": 56,
      "hit": false,
      "t": 16234.390874999994,
      "d": 160.08984375,
      "v": 104
    },
    {
      "midi": 64,
      "hit": false,
      "t": 16718.502562499994,
      "d": 426.4793437500048,
      "v": 111
    },
    {
      "midi": 56,
      "hit": false,
      "t": 16721.063999999995,
      "d": 446.97084375000486,
      "v": 108
    },
    {
      "midi": 59,
      "hit": false,
      "t": 16726.186874999996,
      "d": 426.4793437500048,
      "v": 109
    },
    {
      "midi": 35,
      "hit": false,
      "t": 17210.2985625,
      "d": 85.80815625000105,
      "v": 110
    },
    {
      "midi": 61,
      "hit": false,
      "t": 17699.533125,
      "d": 557.112656250003,
      "v": 107
    },
    {
      "midi": 58,
      "hit": false,
      "t": 17699.533125,
      "d": 603.2185312500042,
      "v": 108
    },
    {
      "midi": 54,
      "hit": false,
      "t": 17704.656000000003,
      "d": 557.112656250003,
      "v": 108
    },
    {
      "midi": 42,
      "hit": false,
      "t": 17704.656000000003,
      "d": 964.3812187500043,
      "v": 108
    },
    {
      "midi": 30,
      "hit": false,
      "t": 17704.656000000003,
      "d": 987.4341562500049,
      "v": 109
    },
    {
      "midi": 61,
      "hit": false,
      "t": 18683.125125000006,
      "d": 429.0407812500016,
      "v": 112
    },
    {
      "midi": 58,
      "hit": false,
      "t": 18688.248000000007,
      "d": 405.98784375000105,
      "v": 109
    },
    {
      "midi": 54,
      "hit": false,
      "t": 18690.809437500007,
      "d": 408.5492812500015,
      "v": 109
    },
    {
      "midi": 40,
      "hit": false,
      "t": 18693.370875000008,
      "d": 964.3812187499971,
      "v": 108
    },
    {
      "midi": 68,
      "hit": false,
      "t": 19185.166875000006,
      "d": 55.0709062499991,
      "v": 110
    },
    {
      "midi": 54,
      "hit": false,
      "t": 19666.717125000006,
      "d": 920.8367812500037,
      "v": 107
    },
    {
      "midi": 39,
      "hit": false,
      "t": 19666.717125000006,
      "d": 1612.4249062500057,
      "v": 107
    },
    {
      "midi": 66,
      "hit": false,
      "t": 19669.278562500007,
      "d": 920.8367812500037,
      "v": 107
    },
    {
      "midi": 61,
      "hit": false,
      "t": 19674.401437500008,
      "d": 920.8367812500037,
      "v": 109
    },
    {
      "midi": 63,
      "hit": false,
      "t": 19674.401437500008,
      "d": 920.8367812500037,
      "v": 109
    },
    {
      "midi": 66,
      "hit": false,
      "t": 20652.87056250001,
      "d": 951.574031250002,
      "v": 105
    },
    {
      "midi": 63,
      "hit": false,
      "t": 20655.43200000001,
      "d": 951.574031250002,
      "v": 104
    },
    {
      "midi": 59,
      "hit": false,
      "t": 20660.554875000013,
      "d": 951.574031250002,
      "v": 110
    },
    {
      "midi": 63,
      "hit": false,
      "t": 21636.462562500015,
      "d": 946.4511562500011,
      "v": 108
    },
    {
      "midi": 66,
      "hit": false,
      "t": 21639.024000000016,
      "d": 972.0655312500021,
      "v": 106
    },
    {
      "midi": 58,
      "hit": false,
      "t": 21641.585437500016,
      "d": 946.4511562500011,
      "v": 108
    },
    {
      "midi": 39,
      "hit": false,
      "t": 21644.146875000017,
      "d": 1901.8673437500001,
      "v": 105
    },
    {
      "midi": 63,
      "hit": false,
      "t": 22620.05456250002,
      "d": 913.1524687499987,
      "v": 105
    },
    {
      "midi": 66,
      "hit": false,
      "t": 22620.05456250002,
      "d": 928.5210937499978,
      "v": 106
    },
    {
      "midi": 57,
      "hit": false,
      "t": 22622.61600000002,
      "d": 913.1524687499987,
      "v": 109
    },
    {
      "midi": 56,
      "hit": false,
      "t": 23603.646562500016,
      "d": 551.9897812500021,
      "v": 110
    },
    {
      "midi": 54,
      "hit": false,
      "t": 23606.208000000017,
      "d": 549.4283437500017,
      "v": 107
    },
    {
      "midi": 61,
      "hit": false,
      "t": 23606.208000000017,
      "d": 549.4283437500017,
      "v": 106
    },
    {
      "midi": 51,
      "hit": false,
      "t": 23608.769437500017,
      "d": 641.6400937500002,
      "v": 107
    },
    {
      "midi": 32,
      "hit": false,
      "t": 23608.769437500017,
      "d": 1663.6536562500005,
      "v": 106
    },
    {
      "midi": 44,
      "hit": false,
      "t": 23611.330875000018,
      "d": 946.4511562500011,
      "v": 107
    },
    {
      "midi": 54,
      "hit": false,
      "t": 24584.67712500002,
      "d": 434.1636562499989,
      "v": 110
    },
    {
      "midi": 51,
      "hit": false,
      "t": 24587.23856250002,
      "d": 318.89896874999977,
      "v": 109
    },
    {
      "midi": 56,
      "hit": false,
      "t": 24589.80000000002,
      "d": 439.2865312499962,
      "v": 110
    },
    {
      "midi": 61,
      "hit": false,
      "t": 24592.36143750002,
      "d": 416.2335937499993,
      "v": 110
    },
    {
      "midi": 44,
      "hit": false,
      "t": 25079.03456250002,
      "d": 1376.7726562499993,
      "v": 108
    },
    {
      "midi": 51,
      "hit": false,
      "t": 25573.392000000018,
      "d": 308.65321875000154,
      "v": 108
    },
    {
      "midi": 56,
      "hit": false,
      "t": 25573.392000000018,
      "d": 541.7440312500003,
      "v": 109
    },
    {
      "midi": 32,
      "hit": false,
      "t": 25573.392000000018,
      "d": 1571.4419062499983,
      "v": 107
    },
    {
      "midi": 60,
      "hit": false,
      "t": 25575.95343750002,
      "d": 500.7610312500001,
      "v": 109
    },
    {
      "midi": 54,
      "hit": false,
      "t": 25575.95343750002,
      "d": 531.4982812499984,
      "v": 109
    },
    {
      "midi": 51,
      "hit": false,
      "t": 26060.06512500002,
      "d": 93.4924687499988,
      "v": 108
    },
    {
      "midi": 51,
      "hit": false,
      "t": 26308.524562500017,
      "d": 285.600281250001,
      "v": 100
    },
    {
      "midi": 56,
      "hit": false,
      "t": 26554.422562500018,
      "d": 178.01990624999962,
      "v": 110
    },
    {
      "midi": 60,
      "hit": false,
      "t": 26554.422562500018,
      "d": 188.26565624999785,
      "v": 111
    },
    {
      "midi": 54,
      "hit": false,
      "t": 26562.10687500002,
      "d": 160.08984375,
      "v": 110
    },
    {
      "midi": 61,
      "hit": false,
      "t": 27051.341437500017,
      "d": 19.210781249999854,
      "v": 113
    },
    {
      "midi": 63,
      "hit": false,
      "t": 27289.555125000017,
      "d": 103.73821875000067,
      "v": 114
    },
    {
      "midi": 64,
      "hit": false,
      "t": 27535.45312500002,
      "d": 523.8139687500006,
      "v": 110
    },
    {
      "midi": 61,
      "hit": false,
      "t": 27538.01456250002,
      "d": 526.3754062500011,
      "v": 109
    },
    {
      "midi": 49,
      "hit": false,
      "t": 27538.01456250002,
      "d": 1118.0674687500032,
      "v": 109
    },
    {
      "midi": 37,
      "hit": false,
      "t": 27543.13743750002,
      "d": 1522.7745937500003,
      "v": 109
    },
    {
      "midi": 56,
      "hit": false,
      "t": 27545.69887500002,
      "d": 377.81203124999956,
      "v": 109
    },
    {
      "midi": 56,
      "hit": false,
      "t": 28034.933437500018,
      "d": 162.65128125000047,
      "v": 107
    },
    {
      "midi": 56,
      "hit": false,
      "t": 28524.16800000002,
      "d": 395.7420937500028,
      "v": 111
    },
    {
      "midi": 64,
      "hit": false,
      "t": 28529.29087500002,
      "d": 421.3564687500002,
      "v": 112
    },
    {
      "midi": 61,
      "hit": false,
      "t": 28529.29087500002,
      "d": 557.1126562499958,
      "v": 112
    },
    {
      "midi": 49,
      "hit": false,
      "t": 29010.84112500002,
      "d": 65.31665624999732,
      "v": 109
    },
    {
      "midi": 63,
      "hit": false,
      "t": 29256.739125000015,
      "d": 213.88003124999886,
      "v": 111
    },
    {
      "midi": 45,
      "hit": false,
      "t": 29502.637125000012,
      "d": 1166.734781250001,
      "v": 110
    },
    {
      "midi": 33,
      "hit": false,
      "t": 29502.637125000012,
      "d": 1530.4589062500017,
      "v": 111
    },
    {
      "midi": 64,
      "hit": false,
      "t": 29505.198562500012,
      "d": 531.4982812499984,
      "v": 111
    },
    {
      "midi": 56,
      "hit": false,
      "t": 29507.760000000013,
      "d": 370.12771874999817,
      "v": 110
    },
    {
      "midi": 61,
      "hit": false,
      "t": 29510.321437500013,
      "d": 526.3754062499975,
      "v": 109
    },
    {
      "midi": 56,
      "hit": false,
      "t": 29996.99456250001,
      "d": 180.5813437500001,
      "v": 106
    },
    {
      "midi": 61,
      "hit": false,
      "t": 30486.229125000013,
      "d": 628.8329062500015,
      "v": 113
    },
    {
      "midi": 56,
      "hit": false,
      "t": 30493.913437500014,
      "d": 762.0276562500003,
      "v": 111
    },
    {
      "midi": 64,
      "hit": false,
      "t": 30496.474875000014,
      "d": 618.5871562499997,
      "v": 112
    },
    {
      "midi": 45,
      "hit": false,
      "t": 30978.025125000015,
      "d": 60.19378125000003,
      "v": 111
    },
    {
      "midi": 63,
      "hit": false,
      "t": 31234.168875000014,
      "d": 121.66828125000029,
      "v": 109
    },
    {
      "midi": 30,
      "hit": false,
      "t": 31469.821125000013,
      "d": 1666.2150937500082,
      "v": 110
    },
    {
      "midi": 59,
      "hit": false,
      "t": 31472.382562500014,
      "d": 498.19959375000326,
      "v": 111
    },
    {
      "midi": 61,
      "hit": false,
      "t": 31477.505437500015,
      "d": 513.5682187500024,
      "v": 109
    },
    {
      "midi": 42,
      "hit": false,
      "t": 31477.505437500015,
      "d": 954.1354687500025,
      "v": 110
    },
    {
      "midi": 54,
      "hit": false,
      "t": 31480.066875000015,
      "d": 395.7420937500028,
      "v": 109
    },
    {
      "midi": 64,
      "hit": false,
      "t": 31480.066875000015,
      "d": 472.58521875000224,
      "v": 111
    },
    {
      "midi": 54,
      "hit": false,
      "t": 31971.862875000017,
      "d": 198.5114062499997,
      "v": 106
    },
    {
      "midi": 64,
      "hit": false,
      "t": 32453.413125000017,
      "d": 426.47934375000114,
      "v": 111
    },
    {
      "midi": 54,
      "hit": false,
      "t": 32455.974562500018,
      "d": 449.5322812500053,
      "v": 108
    },
    {
      "midi": 59,
      "hit": false,
      "t": 32458.53600000002,
      "d": 431.60221875000207,
      "v": 109
    },
    {
      "midi": 61,
      "hit": false,
      "t": 32458.53600000002,
      "d": 518.6910937500033,
      "v": 109
    },
    {
      "midi": 42,
      "hit": false,
      "t": 32952.893437500024,
      "d": 1668.7765312499978,
      "v": 108
    },
    {
      "midi": 54,
      "hit": false,
      "t": 33201.35287500002,
      "d": 618.5871562500033,
      "v": 109
    },
    {
      "midi": 61,
      "hit": false,
      "t": 33437.00512500002,
      "d": 546.8669062500048,
      "v": 108
    },
    {
      "midi": 30,
      "hit": false,
      "t": 33437.00512500002,
      "d": 1881.3758437500146,
      "v": 110
    },
    {
      "midi": 66,
      "hit": false,
      "t": 33439.56656250002,
      "d": 500.7610312500037,
      "v": 108
    },
    {
      "midi": 59,
      "hit": false,
      "t": 33444.68943750002,
      "d": 598.0956562500069,
      "v": 109
    },
    {
      "midi": 54,
      "hit": false,
      "t": 33928.80112500002,
      "d": 380.37346875000367,
      "v": 106
    },
    {
      "midi": 61,
      "hit": false,
      "t": 34423.15856250002,
      "d": 664.6930312500044,
      "v": 106
    },
    {
      "midi": 58,
      "hit": false,
      "t": 34428.28143750002,
      "d": 669.8159062500054,
      "v": 106
    },
    {
      "midi": 66,
      "hit": false,
      "t": 34428.28143750002,
      "d": 700.5531562500109,
      "v": 105
    },
    {
      "midi": 54,
      "hit": false,
      "t": 34430.842875000024,
      "d": 685.1845312500081,
      "v": 107
    },
    {
      "midi": 42,
      "hit": false,
      "t": 34917.516000000025,
      "d": 434.16365625000617,
      "v": 104
    },
    {
      "midi": 35,
      "hit": false,
      "t": 35406.750562500034,
      "d": 1955.657531249999,
      "v": 110
    },
    {
      "midi": 63,
      "hit": false,
      "t": 35406.750562500034,
      "d": 1955.657531249999,
      "v": 107
    },
    {
      "midi": 47,
      "hit": false,
      "t": 35409.312000000034,
      "d": 1955.657531249999,
      "v": 110
    },
    {
      "midi": 59,
      "hit": false,
      "t": 35409.312000000034,
      "d": 1955.657531249999,
      "v": 111
    },
    {
      "midi": 54,
      "hit": false,
      "t": 35411.873437500035,
      "d": 1955.657531249999,
      "v": 108
    },
    {
      "midi": 55,
      "hit": false,
      "t": 37371.373125000035,
      "d": 1955.657531249999,
      "v": 110
    },
    {
      "midi": 39,
      "hit": false,
      "t": 37373.934562500035,
      "d": 1955.657531249999,
      "v": 108
    },
    {
      "midi": 58,
      "hit": false,
      "t": 37373.934562500035,
      "d": 1955.657531249999,
      "v": 107
    },
    {
      "midi": 51,
      "hit": false,
      "t": 37379.057437500036,
      "d": 1955.657531249999,
      "v": 107
    },
    {
      "midi": 27,
      "hit": false,
      "t": 37381.61887500004,
      "d": 1955.657531249999,
      "v": 108
    },
    {
      "midi": 61,
      "hit": false,
      "t": 37381.61887500004,
      "d": 1955.657531249999,
      "v": 106
    },
    {
      "midi": 32,
      "hit": false,
      "t": 39343.68000000004,
      "d": 1955.657531249999,
      "v": 110
    },
    {
      "midi": 54,
      "hit": false,
      "t": 39343.68000000004,
      "d": 1955.657531249999,
      "v": 109
    },
    {
      "midi": 51,
      "hit": false,
      "t": 39346.24143750004,
      "d": 1955.657531249999,
      "v": 109
    },
    {
      "midi": 61,
      "hit": false,
      "t": 39346.24143750004,
      "d": 1955.657531249999,
      "v": 108
    },
    {
      "midi": 56,
      "hit": false,
      "t": 39348.80287500004,
      "d": 1955.657531249999,
      "v": 110
    },
    {
      "midi": 32,
      "hit": false,
      "t": 41308.30256250004,
      "d": 1955.657531249999,
      "v": 110
    },
    {
      "midi": 60,
      "hit": false,
      "t": 41310.86400000004,
      "d": 1955.657531249999,
      "v": 111
    },
    {
      "midi": 51,
      "hit": false,
      "t": 41313.42543750004,
      "d": 1955.657531249999,
      "v": 109
    },
    {
      "midi": 54,
      "hit": false,
      "t": 41313.42543750004,
      "d": 1955.657531249999,
      "v": 109
    },
    {
      "midi": 37,
      "hit": false,
      "t": 43275.48656250004,
      "d": 1955.657531249999,
      "v": 111
    },
    {
      "midi": 56,
      "hit": false,
      "t": 43278.04800000004,
      "d": 1955.657531249999,
      "v": 111
    },
    {
      "midi": 61,
      "hit": false,
      "t": 43278.04800000004,
      "d": 1955.657531249999,
      "v": 112
    },
    {
      "midi": 49,
      "hit": false,
      "t": 43280.60943750004,
      "d": 1955.657531249999,
      "v": 110
    },
    {
      "midi": 64,
      "hit": false,
      "t": 43283.17087500004,
      "d": 1950.534656249998,
      "v": 113
    },
    {
      "midi": 64,
      "hit": false,
      "t": 45242.67056250004,
      "d": 1955.657531249999,
      "v": 111
    },
    {
      "midi": 56,
      "hit": false,
      "t": 45245.23200000004,
      "d": 1955.657531249999,
      "v": 110
    },
    {
      "midi": 37,
      "hit": false,
      "t": 45250.35487500004,
      "d": 1955.657531249999,
      "v": 110
    },
    {
      "midi": 60,
      "hit": false,
      "t": 45250.35487500004,
      "d": 1955.657531249999,
      "v": 111
    },
    {
      "midi": 59,
      "hit": false,
      "t": 47209.85456250004,
      "d": 1955.657531249999,
      "v": 111
    },
    {
      "midi": 30,
      "hit": false,
      "t": 47214.97743750004,
      "d": 3671.820656249998,
      "v": 110
    },
    {
      "midi": 61,
      "hit": false,
      "t": 47217.53887500004,
      "d": 1947.9732187499976,
      "v": 109
    },
    {
      "midi": 54,
      "hit": false,
      "t": 47217.53887500004,
      "d": 1953.0960937499985,
      "v": 110
    },
    {
      "midi": 64,
      "hit": false,
      "t": 47217.53887500004,
      "d": 1955.657531249999,
      "v": 111
    },
    {
      "midi": 61,
      "hit": false,
      "t": 49174.47712500004,
      "d": 1955.657531249999,
      "v": 107
    },
    {
      "midi": 42,
      "hit": false,
      "t": 49177.03856250004,
      "d": 1955.657531249999,
      "v": 109
    },
    {
      "midi": 54,
      "hit": false,
      "t": 49179.60000000004,
      "d": 1955.657531249999,
      "v": 108
    },
    {
      "midi": 58,
      "hit": false,
      "t": 49184.72287500004,
      "d": 1955.657531249999,
      "v": 109
    },
    {
      "midi": 39,
      "hit": false,
      "t": 51141.66112500004,
      "d": 3922.84153125,
      "v": 110
    },
    {
      "midi": 54,
      "hit": false,
      "t": 51144.22256250004,
      "d": 1955.657531249999,
      "v": 112
    },
    {
      "midi": 61,
      "hit": false,
      "t": 51146.78400000004,
      "d": 1955.657531249999,
      "v": 111
    },
    {
      "midi": 27,
      "hit": false,
      "t": 51149.345437500044,
      "d": 3751.225218749998,
      "v": 110
    },
    {
      "midi": 51,
      "hit": false,
      "t": 51151.906875000044,
      "d": 1947.9732187499976,
      "v": 111
    },
    {
      "midi": 51,
      "hit": false,
      "t": 53108.84512500004,
      "d": 1955.657531249999,
      "v": 110
    },
    {
      "midi": 59,
      "hit": false,
      "t": 53108.84512500004,
      "d": 1955.657531249999,
      "v": 111
    },
    {
      "midi": 54,
      "hit": false,
      "t": 53119.090875000045,
      "d": 1955.657531249999,
      "v": 110
    },
    {
      "midi": 61,
      "hit": false,
      "t": 55076.029125000045,
      "d": 1955.657531249999,
      "v": 110
    },
    {
      "midi": 32,
      "hit": false,
      "t": 55076.029125000045,
      "d": 3715.365093750006,
      "v": 110
    },
    {
      "midi": 51,
      "hit": false,
      "t": 55083.713437500046,
      "d": 1955.657531249999,
      "v": 110
    },
    {
      "midi": 56,
      "hit": false,
      "t": 55086.27487500005,
      "d": 1950.534656249998,
      "v": 110
    },
    {
      "midi": 44,
      "hit": false,
      "t": 55086.27487500005,
      "d": 3694.8735937500023,
      "v": 109
    },
    {
      "midi": 56,
      "hit": false,
      "t": 57045.774562500046,
      "d": 1955.6575312500063,
      "v": 110
    },
    {
      "midi": 51,
      "hit": false,
      "t": 57048.33600000005,
      "d": 1955.6575312500063,
      "v": 110
    },
    {
      "midi": 60,
      "hit": false,
      "t": 57053.45887500005,
      "d": 1955.6575312500063,
      "v": 111
    },
    {
      "midi": 61,
      "hit": false,
      "t": 58526.285437500046,
      "d": 234.37153124999895,
      "v": 113
    },
    {
      "midi": 63,
      "hit": false,
      "t": 58769.62200000005,
      "d": 234.37153125000623,
      "v": 110
    },
    {
      "midi": 56,
      "hit": false,
      "t": 59012.958562500055,
      "d": 1955.657531249999,
      "v": 110
    },
    {
      "midi": 25,
      "hit": false,
      "t": 59015.520000000055,
      "d": 3674.3820937499986,
      "v": 110
    },
    {
      "midi": 37,
      "hit": false,
      "t": 59018.081437500055,
      "d": 1950.534656249998,
      "v": 109
    },
    {
      "midi": 64,
      "hit": false,
      "t": 59018.081437500055,
      "d": 1953.0960937499985,
      "v": 111
    },
    {
      "midi": 59,
      "hit": false,
      "t": 59020.642875000056,
      "d": 1947.9732187499976,
      "v": 109
    },
    {
      "midi": 37,
      "hit": false,
      "t": 60977.581125000055,
      "d": 1955.657531249999,
      "v": 107
    },
    {
      "midi": 52,
      "hit": false,
      "t": 60977.581125000055,
      "d": 1955.657531249999,
      "v": 108
    },
    {
      "midi": 59,
      "hit": false,
      "t": 60977.581125000055,
      "d": 1955.657531249999,
      "v": 109
    },
    {
      "midi": 64,
      "hit": false,
      "t": 60980.142562500056,
      "d": 1955.657531249999,
      "v": 109
    },
    {
      "midi": 56,
      "hit": false,
      "t": 60987.82687500006,
      "d": 1955.657531249999,
      "v": 109
    },
    {
      "midi": 42,
      "hit": false,
      "t": 62944.765125000056,
      "d": 1955.657531249999,
      "v": 110
    },
    {
      "midi": 30,
      "hit": false,
      "t": 62944.765125000056,
      "d": 3802.45396875,
      "v": 111
    },
    {
      "midi": 59,
      "hit": false,
      "t": 62947.32656250006,
      "d": 1955.657531249999,
      "v": 111
    },
    {
      "midi": 61,
      "hit": false,
      "t": 62955.01087500006,
      "d": 1947.9732187499976,
      "v": 110
    },
    {
      "midi": 54,
      "hit": false,
      "t": 62955.01087500006,
      "d": 1955.657531249999,
      "v": 109
    },
    {
      "midi": 66,
      "hit": false,
      "t": 62955.01087500006,
      "d": 1955.657531249999,
      "v": 109
    },
    {
      "midi": 61,
      "hit": false,
      "t": 64911.94912500006,
      "d": 1955.6575312499917,
      "v": 109
    },
    {
      "midi": 42,
      "hit": false,
      "t": 64914.51056250006,
      "d": 1955.6575312499917,
      "v": 109
    },
    {
      "midi": 58,
      "hit": false,
      "t": 64914.51056250006,
      "d": 1955.6575312499917,
      "v": 109
    },
    {
      "midi": 49,
      "hit": false,
      "t": 64917.07200000006,
      "d": 1955.6575312499917,
      "v": 108
    },
    {
      "midi": 54,
      "hit": false,
      "t": 64922.19487500006,
      "d": 1955.6575312499917,
      "v": 109
    },
    {
      "midi": 54,
      "hit": false,
      "t": 65403.745124999994,
      "d": 495.6381562499955,
      "v": 1
    },
    {
      "midi": 59,
      "hit": false,
      "t": 65903.22543749999,
      "d": 482.83096875000047,
      "v": 1
    },
    {
      "midi": 63,
      "hit": false,
      "t": 66389.89856249999,
      "d": 4422.321843750004,
      "v": 1
    },
    {
      "midi": 47,
      "hit": false,
      "t": 66879.13312500005,
      "d": 1574.003343749995,
      "v": 109
    },
    {
      "midi": 35,
      "hit": false,
      "t": 66881.69456250005,
      "d": 1187.2262812499976,
      "v": 110
    },
    {
      "midi": 63,
      "hit": false,
      "t": 66886.81743750005,
      "d": 569.9198437500017,
      "v": 109
    },
    {
      "midi": 54,
      "hit": false,
      "t": 66886.81743750005,
      "d": 667.2544687500049,
      "v": 108
    },
    {
      "midi": 59,
      "hit": false,
      "t": 66889.37887500005,
      "d": 521.2525312500075,
      "v": 111
    },
    {
      "midi": 59,
      "hit": false,
      "t": 67862.72512500006,
      "d": 508.44534374999057,
      "v": 110
    },
    {
      "midi": 54,
      "hit": false,
      "t": 67862.72512500006,
      "d": 549.428343749998,
      "v": 109
    },
    {
      "midi": 63,
      "hit": false,
      "t": 67865.28656250006,
      "d": 523.8139687499934,
      "v": 109
    },
    {
      "midi": 54,
      "hit": false,
      "t": 68848.87856250005,
      "d": 367.56628124999406,
      "v": 107
    },
    {
      "midi": 57,
      "hit": false,
      "t": 68848.87856250005,
      "d": 628.8329062499834,
      "v": 110
    },
    {
      "midi": 45,
      "hit": false,
      "t": 68848.87856250005,
      "d": 1210.2792187499872,
      "v": 108
    },
    {
      "midi": 33,
      "hit": false,
      "t": 68848.87856250005,
      "d": 1594.4948437499988,
      "v": 108
    },
    {
      "midi": 61,
      "hit": false,
      "t": 68851.44000000005,
      "d": 534.0597187499807,
      "v": 109
    },
    {
      "midi": 54,
      "hit": false,
      "t": 69338.11312500003,
      "d": 160.08984375,
      "v": 104
    },
    {
      "midi": 61,
      "hit": false,
      "t": 69829.90912500003,
      "d": 459.7780312499963,
      "v": 107
    },
    {
      "midi": 54,
      "hit": false,
      "t": 69832.47056250004,
      "d": 480.26953125,
      "v": 110
    },
    {
      "midi": 57,
      "hit": false,
      "t": 69840.15487500004,
      "d": 487.9538437500014,
      "v": 110
    },
    {
      "midi": 45,
      "hit": false,
      "t": 70329.38943750004,
      "d": 113.98396875000617,
      "v": 107
    },
    {
      "midi": 61,
      "hit": false,
      "t": 70816.0625625,
      "d": 249.74015625000175,
      "v": 1
    },
    {
      "midi": 32,
      "hit": false,
      "t": 70816.06256250004,
      "d": 1607.3020312500157,
      "v": 107
    },
    {
      "midi": 54,
      "hit": false,
      "t": 70818.62400000004,
      "d": 395.74209375001374,
      "v": 106
    },
    {
      "midi": 61,
      "hit": false,
      "t": 70823.74687500004,
      "d": 628.8329062500125,
      "v": 109
    },
    {
      "midi": 56,
      "hit": false,
      "t": 70823.74687500004,
      "d": 667.2544687500194,
      "v": 108
    },
    {
      "midi": 44,
      "hit": false,
      "t": 70823.74687500004,
      "d": 1123.190343750015,
      "v": 107
    },
    {
      "midi": 60,
      "hit": false,
      "t": 71069.644875,
      "d": 234.37153124999895,
      "v": 1
    },
    {
      "midi": 61,
      "hit": false,
      "t": 71305.297125,
      "d": 244.61728125000081,
      "v": 1
    },
    {
      "midi": 54,
      "hit": false,
      "t": 71315.54287500006,
      "d": 180.58134375000373,
      "v": 106
    },
    {
      "midi": 60,
      "hit": false,
      "t": 71553.7565625,
      "d": 247.17871875000128,
      "v": 1
    },
    {
      "midi": 56,
      "hit": false,
      "t": 71799.65456250006,
      "d": 498.19959375000326,
      "v": 110
    },
    {
      "midi": 54,
      "hit": false,
      "t": 71802.21600000006,
      "d": 485.39240625000093,
      "v": 110
    },
    {
      "midi": 61,
      "hit": false,
      "t": 71804.7774375,
      "d": 485.39240625000093,
      "v": 1
    },
    {
      "midi": 61,
      "hit": false,
      "t": 71804.77743750006,
      "d": 485.39240625000093,
      "v": 110
    },
    {
      "midi": 44,
      "hit": false,
      "t": 72291.45056250006,
      "d": 2327.0659687500156,
      "v": 107
    },
    {
      "midi": 63,
      "hit": false,
      "t": 72294.012,
      "d": 482.83096875000047,
      "v": 1
    },
    {
      "midi": 60,
      "hit": false,
      "t": 72780.685125,
      "d": 989.9955937500054,
      "v": 1
    },
    {
      "midi": 60,
      "hit": false,
      "t": 72780.68512500006,
      "d": 841.4322187500075,
      "v": 109
    },
    {
      "midi": 32,
      "hit": false,
      "t": 72780.68512500006,
      "d": 1889.0601562500087,
      "v": 106
    },
    {
      "midi": 54,
      "hit": false,
      "t": 72783.24656250006,
      "d": 828.6250312500051,
      "v": 107
    },
    {
      "midi": 56,
      "hit": false,
      "t": 72790.93087500006,
      "d": 846.5550937500084,
      "v": 108
    },
    {
      "midi": 60,
      "hit": false,
      "t": 73766.83856250007,
      "d": 951.5740312500129,
      "v": 110
    },
    {
      "midi": 56,
      "hit": false,
      "t": 73769.40000000007,
      "d": 936.2054062500101,
      "v": 107
    },
    {
      "midi": 54,
      "hit": false,
      "t": 73771.96143750007,
      "d": 918.2753437500069,
      "v": 107
    },
    {
      "midi": 61,
      "hit": false,
      "t": 73774.52287500001,
      "d": 487.9538437500014,
      "v": 1
    },
    {
      "midi": 61,
      "hit": false,
      "t": 74258.63456250007,
      "d": 231.8100937499985,
      "v": 112
    },
    {
      "midi": 63,
      "hit": false,
      "t": 74266.31887500001,
      "d": 482.83096875000047,
      "v": 1
    },
    {
      "midi": 63,
      "hit": false,
      "t": 74512.21687500007,
      "d": 229.24865625001257,
      "v": 114
    },
    {
      "midi": 37,
      "hit": false,
      "t": 74747.86912500008,
      "d": 1087.3302187500085,
      "v": 109
    },
    {
      "midi": 56,
      "hit": false,
      "t": 74750.43056250009,
      "d": 382.93490624999686,
      "v": 108
    },
    {
      "midi": 61,
      "hit": false,
      "t": 74750.43056250009,
      "d": 511.0067812500056,
      "v": 110
    },
    {
      "midi": 64,
      "hit": false,
      "t": 74752.99200000001,
      "d": 4181.5467187500035,
      "v": 1
    },
    {
      "midi": 49,
      "hit": false,
      "t": 74752.99200000009,
      "d": 1095.01453125001,
      "v": 108
    },
    {
      "midi": 64,
      "hit": false,
      "t": 74755.55343750009,
      "d": 464.9009062499972,
      "v": 112
    },
    {
      "midi": 56,
      "hit": false,
      "t": 75244.78800000009,
      "d": 147.28265624999767,
      "v": 107
    },
    {
      "midi": 56,
      "hit": false,
      "t": 75734.02256250009,
      "d": 472.5852187499986,
      "v": 109
    },
    {
      "midi": 64,
      "hit": false,
      "t": 75736.58400000009,
      "d": 408.5492812500015,
      "v": 113
    },
    {
      "midi": 61,
      "hit": false,
      "t": 75739.14543750009,
      "d": 534.0597187499952,
      "v": 111
    },
    {
      "midi": 49,
      "hit": false,
      "t": 76223.25712500009,
      "d": 147.28265624999767,
      "v": 106
    },
    {
      "midi": 37,
      "hit": false,
      "t": 76223.25712500009,
      "d": 162.65128125000047,
      "v": 107
    },
    {
      "midi": 60,
      "hit": false,
      "t": 76715.0531250001,
      "d": 582.7270312500041,
      "v": 111
    },
    {
      "midi": 49,
      "hit": false,
      "t": 76717.6145625001,
      "d": 1159.0504687499924,
      "v": 110
    },
    {
      "midi": 37,
      "hit": false,
      "t": 76722.7374375001,
      "d": 1666.2150937499973,
      "v": 110
    },
    {
      "midi": 56,
      "hit": false,
      "t": 76725.2988750001,
      "d": 341.95190625000396,
      "v": 109
    },
    {
      "midi": 64,
      "hit": false,
      "t": 76725.2988750001,
      "d": 692.868843749995,
      "v": 111
    },
    {
      "midi": 56,
      "hit": false,
      "t": 77217.0948750001,
      "d": 267.67021874999045,
      "v": 104
    },
    {
      "midi": 60,
      "hit": false,
      "t": 77698.64512500008,
      "d": 485.39240625000093,
      "v": 111
    },
    {
      "midi": 56,
      "hit": false,
      "t": 77703.76800000008,
      "d": 480.26953125,
      "v": 109
    },
    {
      "midi": 64,
      "hit": false,
      "t": 77706.32943750008,
      "d": 495.6381562500028,
      "v": 111
    },
    {
      "midi": 49,
      "hit": false,
      "t": 78190.44112500008,
      "d": 111.4225312500057,
      "v": 109
    },
    {
      "midi": 56,
      "hit": false,
      "t": 78682.23712500009,
      "d": 336.829031250003,
      "v": 109
    },
    {
      "midi": 35,
      "hit": false,
      "t": 78684.79856250009,
      "d": 1036.1014687499992,
      "v": 110
    },
    {
      "midi": 59,
      "hit": false,
      "t": 78687.36000000009,
      "d": 562.2355312500003,
      "v": 111
    },
    {
      "midi": 64,
      "hit": false,
      "t": 78689.92143750009,
      "d": 562.2355312500003,
      "v": 111
    },
    {
      "midi": 47,
      "hit": false,
      "t": 78689.92143750009,
      "d": 1448.4929062500014,
      "v": 109
    },
    {
      "midi": 63,
      "hit": false,
      "t": 78938.38087500002,
      "d": 482.83096875000047,
      "v": 1
    },
    {
      "midi": 56,
      "hit": false,
      "t": 79181.71743750009,
      "d": 160.08984375,
      "v": 104
    },
    {
      "midi": 61,
      "hit": false,
      "t": 79425.05400000002,
      "d": 236.93296874999942,
      "v": 1
    },
    {
      "midi": 59,
      "hit": false,
      "t": 79665.82912500002,
      "d": 495.6381562500028,
      "v": 1
    },
    {
      "midi": 59,
      "hit": false,
      "t": 79668.39056250009,
      "d": 426.4793437499902,
      "v": 109
    },
    {
      "midi": 56,
      "hit": false,
      "t": 79668.39056250009,
      "d": 446.97084374999395,
      "v": 108
    },
    {
      "midi": 64,
      "hit": false,
      "t": 79673.51343750009,
      "d": 426.4793437499902,
      "v": 111
    },
    {
      "midi": 63,
      "hit": false,
      "t": 80165.30943750002,
      "d": 490.51528125000186,
      "v": 1
    },
    {
      "midi": 35,
      "hit": false,
      "t": 80165.3094375001,
      "d": 85.80815625000105,
      "v": 110
    },
    {
      "midi": 61,
      "hit": false,
      "t": 80649.4211250001,
      "d": 557.1126562499994,
      "v": 107
    },
    {
      "midi": 58,
      "hit": false,
      "t": 80651.9825625001,
      "d": 603.2185312499932,
      "v": 108
    },
    {
      "midi": 30,
      "hit": false,
      "t": 80651.9825625001,
      "d": 987.4341562499903,
      "v": 109
    },
    {
      "midi": 54,
      "hit": false,
      "t": 80657.1054375001,
      "d": 557.1126562499994,
      "v": 108
    },
    {
      "midi": 42,
      "hit": false,
      "t": 80657.1054375001,
      "d": 964.3812187499861,
      "v": 108
    },
    {
      "midi": 61,
      "hit": false,
      "t": 80659.66687500002,
      "d": 977.188406250003,
      "v": 1
    },
    {
      "midi": 40,
      "hit": false,
      "t": 81635.57456250009,
      "d": 964.3812187500007,
      "v": 108
    },
    {
      "midi": 61,
      "hit": false,
      "t": 81638.13600000009,
      "d": 429.04078125000524,
      "v": 112
    },
    {
      "midi": 63,
      "hit": false,
      "t": 81640.69743750003,
      "d": 480.26953125,
      "v": 1
    },
    {
      "midi": 54,
      "hit": false,
      "t": 81640.69743750009,
      "d": 408.5492812500015,
      "v": 109
    },
    {
      "midi": 58,
      "hit": false,
      "t": 81643.25887500009,
      "d": 405.98784375000105,
      "v": 109
    },
    {
      "midi": 64,
      "hit": false,
      "t": 82124.80912500003,
      "d": 490.51528125000186,
      "v": 1
    },
    {
      "midi": 68,
      "hit": false,
      "t": 82132.49343750009,
      "d": 55.07090624999546,
      "v": 110
    },
    {
      "midi": 61,
      "hit": false,
      "t": 82616.60512500009,
      "d": 920.8367812500073,
      "v": 109
    },
    {
      "midi": 66,
      "hit": false,
      "t": 82619.16656250003,
      "d": 4422.321843750004,
      "v": 1
    },
    {
      "midi": 63,
      "hit": false,
      "t": 82619.16656250009,
      "d": 920.8367812500073,
      "v": 109
    },
    {
      "midi": 66,
      "hit": false,
      "t": 82624.28943750009,
      "d": 920.8367812500073,
      "v": 107
    },
    {
      "midi": 39,
      "hit": false,
      "t": 82624.28943750009,
      "d": 1612.424906250002,
      "v": 107
    },
    {
      "midi": 54,
      "hit": false,
      "t": 82626.85087500009,
      "d": 920.8367812500073,
      "v": 107
    },
    {
      "midi": 59,
      "hit": false,
      "t": 83607.8814375001,
      "d": 951.5740312499984,
      "v": 110
    },
    {
      "midi": 66,
      "hit": false,
      "t": 83607.8814375001,
      "d": 951.5740312499984,
      "v": 105
    },
    {
      "midi": 63,
      "hit": false,
      "t": 83610.4428750001,
      "d": 951.5740312499984,
      "v": 104
    },
    {
      "midi": 58,
      "hit": false,
      "t": 84583.7891250001,
      "d": 946.4511562499974,
      "v": 108
    },
    {
      "midi": 63,
      "hit": false,
      "t": 84586.3505625001,
      "d": 946.4511562499974,
      "v": 108
    },
    {
      "midi": 39,
      "hit": false,
      "t": 84591.4734375001,
      "d": 1901.8673437499965,
      "v": 105
    },
    {
      "midi": 66,
      "hit": false,
      "t": 84594.0348750001,
      "d": 972.0655312500021,
      "v": 106
    },
    {
      "midi": 57,
      "hit": false,
      "t": 85572.5040000001,
      "d": 913.1524687499914,
      "v": 109
    },
    {
      "midi": 63,
      "hit": false,
      "t": 85572.5040000001,
      "d": 913.1524687499914,
      "v": 105
    },
    {
      "midi": 66,
      "hit": false,
      "t": 85577.6268750001,
      "d": 928.5210937499942,
      "v": 106
    },
    {
      "midi": 44,
      "hit": false,
      "t": 86550.97312500009,
      "d": 946.4511562499974,
      "v": 107
    },
    {
      "midi": 54,
      "hit": false,
      "t": 86553.53456250009,
      "d": 549.428343749998,
      "v": 107
    },
    {
      "midi": 56,
      "hit": false,
      "t": 86553.53456250009,
      "d": 551.9897812499985,
      "v": 110
    },
    {
      "midi": 51,
      "hit": false,
      "t": 86553.53456250009,
      "d": 641.6400937500002,
      "v": 107
    },
    {
      "midi": 61,
      "hit": false,
      "t": 86556.09600000009,
      "d": 549.428343749998,
      "v": 106
    },
    {
      "midi": 32,
      "hit": false,
      "t": 86558.6574375001,
      "d": 1663.6536562500114,
      "v": 106
    },
    {
      "midi": 63,
      "hit": false,
      "t": 87045.33056250004,
      "d": 2455.137843749995,
      "v": 1
    },
    {
      "midi": 54,
      "hit": false,
      "t": 87534.5651250001,
      "d": 434.16365625000617,
      "v": 110
    },
    {
      "midi": 61,
      "hit": false,
      "t": 87537.1265625001,
      "d": 416.2335937500029,
      "v": 110
    },
    {
      "midi": 56,
      "hit": false,
      "t": 87537.1265625001,
      "d": 439.2865312500071,
      "v": 110
    },
    {
      "midi": 51,
      "hit": false,
      "t": 87544.8108750001,
      "d": 318.89896874999977,
      "v": 109
    },
    {
      "midi": 44,
      "hit": false,
      "t": 88028.9225625001,
      "d": 1376.7726562500175,
      "v": 108
    },
    {
      "midi": 60,
      "hit": false,
      "t": 88520.7185625001,
      "d": 500.7610312500037,
      "v": 109
    },
    {
      "midi": 51,
      "hit": false,
      "t": 88523.2800000001,
      "d": 308.6532187499979,
      "v": 108
    },
    {
      "midi": 56,
      "hit": false,
      "t": 88525.8414375001,
      "d": 541.7440312500112,
      "v": 109
    },
    {
      "midi": 54,
      "hit": false,
      "t": 88528.4028750001,
      "d": 531.4982812500093,
      "v": 109
    },
    {
      "midi": 32,
      "hit": false,
      "t": 88528.4028750001,
      "d": 1571.4419062500237,
      "v": 107
    },
    {
      "midi": 51,
      "hit": false,
      "t": 89009.9531250001,
      "d": 93.492468750017,
      "v": 108
    },
    {
      "midi": 51,
      "hit": false,
      "t": 89263.53543750012,
      "d": 285.6002812499937,
      "v": 100
    },
    {
      "midi": 60,
      "hit": false,
      "t": 89501.74912500012,
      "d": 188.26565625000512,
      "v": 111
    },
    {
      "midi": 64,
      "hit": false,
      "t": 89504.31056250003,
      "d": 984.8727187500335,
      "v": 1
    },
    {
      "midi": 56,
      "hit": false,
      "t": 89504.31056250012,
      "d": 178.01990625000326,
      "v": 110
    },
    {
      "midi": 54,
      "hit": false,
      "t": 89506.87200000012,
      "d": 160.08984375,
      "v": 110
    },
    {
      "midi": 61,
      "hit": false,
      "t": 89993.54512500012,
      "d": 19.210781250003492,
      "v": 113
    },
    {
      "midi": 63,
      "hit": false,
      "t": 90247.12743750012,
      "d": 103.73821875000431,
      "v": 114
    },
    {
      "midi": 56,
      "hit": false,
      "t": 90485.34112500012,
      "d": 377.8120312499959,
      "v": 109
    },
    {
      "midi": 61,
      "hit": false,
      "t": 90485.34112500012,
      "d": 526.3754062500084,
      "v": 109
    },
    {
      "midi": 37,
      "hit": false,
      "t": 90487.90256250012,
      "d": 1522.7745937500003,
      "v": 109
    },
    {
      "midi": 64,
      "hit": false,
      "t": 90490.46400000012,
      "d": 523.8139687500079,
      "v": 110
    },
    {
      "midi": 49,
      "hit": false,
      "t": 90490.46400000012,
      "d": 1118.0674687499995,
      "v": 109
    },
    {
      "midi": 61,
      "hit": false,
      "t": 90493.02543750007,
      "d": 1346.0354062499973,
      "v": 1
    },
    {
      "midi": 56,
      "hit": false,
      "t": 90977.13712500012,
      "d": 162.65128125000047,
      "v": 107
    },
    {
      "midi": 64,
      "hit": false,
      "t": 91474.05600000013,
      "d": 421.35646875000384,
      "v": 112
    },
    {
      "midi": 56,
      "hit": false,
      "t": 91476.61743750013,
      "d": 395.7420937499992,
      "v": 111
    },
    {
      "midi": 61,
      "hit": false,
      "t": 91476.61743750013,
      "d": 557.1126562499994,
      "v": 112
    },
    {
      "midi": 49,
      "hit": false,
      "t": 91965.85200000013,
      "d": 65.31665624999732,
      "v": 109
    },
    {
      "midi": 63,
      "hit": false,
      "t": 92216.87287500013,
      "d": 213.88003124999523,
      "v": 111
    },
    {
      "midi": 61,
      "hit": false,
      "t": 92455.08656250013,
      "d": 526.3754062499938,
      "v": 109
    },
    {
      "midi": 33,
      "hit": false,
      "t": 92455.08656250013,
      "d": 1530.4589062499872,
      "v": 111
    },
    {
      "midi": 56,
      "hit": false,
      "t": 92460.20943750013,
      "d": 370.12771874999453,
      "v": 110
    },
    {
      "midi": 45,
      "hit": false,
      "t": 92460.20943750013,
      "d": 1166.7347812499938,
      "v": 110
    },
    {
      "midi": 64,
      "hit": false,
      "t": 92462.77087500013,
      "d": 531.4982812499948,
      "v": 111
    },
    {
      "midi": 56,
      "hit": false,
      "t": 92952.00543750012,
      "d": 180.58134375000373,
      "v": 106
    },
    {
      "midi": 59,
      "hit": false,
      "t": 93190.21912500006,
      "d": 495.6381562500028,
      "v": 1
    },
    {
      "midi": 61,
      "hit": false,
      "t": 93436.11712500012,
      "d": 628.8329062499979,
      "v": 113
    },
    {
      "midi": 56,
      "hit": false,
      "t": 93436.11712500012,
      "d": 762.0276562500076,
      "v": 111
    },
    {
      "midi": 64,
      "hit": false,
      "t": 93438.67856250012,
      "d": 618.587156249996,
      "v": 112
    },
    {
      "midi": 61,
      "hit": false,
      "t": 93689.69943750006,
      "d": 236.93296874999942,
      "v": 1
    },
    {
      "midi": 63,
      "hit": false,
      "t": 93930.47456250007,
      "d": 490.51528125000186,
      "v": 1
    },
    {
      "midi": 45,
      "hit": false,
      "t": 93935.59743750012,
      "d": 60.19378124999639,
      "v": 111
    },
    {
      "midi": 63,
      "hit": false,
      "t": 94184.05687500013,
      "d": 121.66828125000757,
      "v": 109
    },
    {
      "midi": 42,
      "hit": false,
      "t": 94419.70912500014,
      "d": 954.1354687500134,
      "v": 110
    },
    {
      "midi": 59,
      "hit": false,
      "t": 94422.27056250014,
      "d": 498.19959375000326,
      "v": 111
    },
    {
      "midi": 61,
      "hit": false,
      "t": 94422.27056250014,
      "d": 513.568218750006,
      "v": 109
    },
    {
      "midi": 61,
      "hit": false,
      "t": 94424.83200000007,
      "d": 1594.4948437499988,
      "v": 1
    },
    {
      "midi": 30,
      "hit": false,
      "t": 94424.83200000014,
      "d": 1666.2150937500264,
      "v": 110
    },
    {
      "midi": 64,
      "hit": false,
      "t": 94427.39343750014,
      "d": 472.5852187499986,
      "v": 111
    },
    {
      "midi": 54,
      "hit": false,
      "t": 94429.95487500014,
      "d": 395.7420937499992,
      "v": 109
    },
    {
      "midi": 54,
      "hit": false,
      "t": 94921.75087500014,
      "d": 198.51140625000698,
      "v": 106
    },
    {
      "midi": 59,
      "hit": false,
      "t": 95403.30112500016,
      "d": 431.6022187500057,
      "v": 109
    },
    {
      "midi": 54,
      "hit": false,
      "t": 95403.30112500016,
      "d": 449.53228125000896,
      "v": 108
    },
    {
      "midi": 61,
      "hit": false,
      "t": 95403.30112500016,
      "d": 518.691093750007,
      "v": 109
    },
    {
      "midi": 64,
      "hit": false,
      "t": 95408.42400000016,
      "d": 426.4793437500048,
      "v": 111
    },
    {
      "midi": 42,
      "hit": false,
      "t": 95905.34287500016,
      "d": 1668.776531250027,
      "v": 108
    },
    {
      "midi": 54,
      "hit": false,
      "t": 96146.11800000016,
      "d": 618.587156249996,
      "v": 109
    },
    {
      "midi": 61,
      "hit": false,
      "t": 96386.89312500016,
      "d": 546.8669062500121,
      "v": 108
    },
    {
      "midi": 59,
      "hit": false,
      "t": 96389.45456250016,
      "d": 598.0956562500069,
      "v": 109
    },
    {
      "midi": 66,
      "hit": false,
      "t": 96397.13887500016,
      "d": 500.7610312500037,
      "v": 108
    },
    {
      "midi": 30,
      "hit": false,
      "t": 96397.13887500016,
      "d": 1881.3758437500219,
      "v": 110
    },
    {
      "midi": 54,
      "hit": false,
      "t": 96881.25056250016,
      "d": 380.37346875001094,
      "v": 106
    },
    {
      "midi": 58,
      "hit": false,
      "t": 97370.48512500018,
      "d": 669.8159062500054,
      "v": 106
    },
    {
      "midi": 54,
      "hit": false,
      "t": 97370.48512500018,
      "d": 685.1845312500081,
      "v": 107
    },
    {
      "midi": 66,
      "hit": false,
      "t": 97370.48512500018,
      "d": 700.5531562500109,
      "v": 105
    },
    {
      "midi": 61,
      "hit": false,
      "t": 97380.73087500018,
      "d": 664.6930312500044,
      "v": 106
    },
    {
      "midi": 42,
      "hit": false,
      "t": 97862.28112500018,
      "d": 434.16365625000617,
      "v": 104
    },
    {
      "midi": 35,
      "hit": false,
      "t": 98354.07712500019,
      "d": 1955.6575312500063,
      "v": 110
    },
    {
      "midi": 59,
      "hit": false,
      "t": 98354.07712500019,
      "d": 1955.6575312500063,
      "v": 111
    },
    {
      "midi": 54,
      "hit": false,
      "t": 98361.76143750019,
      "d": 1955.6575312500063,
      "v": 108
    },
    {
      "midi": 63,
      "hit": false,
      "t": 98361.76143750019,
      "d": 1955.6575312500063,
      "v": 107
    },
    {
      "midi": 47,
      "hit": false,
      "t": 98364.32287500019,
      "d": 1955.6575312500063,
      "v": 110
    },
    {
      "midi": 39,
      "hit": false,
      "t": 100321.2611250002,
      "d": 1955.6575312500063,
      "v": 108
    },
    {
      "midi": 58,
      "hit": false,
      "t": 100323.8225625002,
      "d": 1955.6575312500063,
      "v": 107
    },
    {
      "midi": 61,
      "hit": false,
      "t": 100323.8225625002,
      "d": 1955.6575312500063,
      "v": 106
    },
    {
      "midi": 27,
      "hit": false,
      "t": 100326.3840000002,
      "d": 1955.6575312500063,
      "v": 108
    },
    {
      "midi": 51,
      "hit": false,
      "t": 100331.5068750002,
      "d": 1953.0960937500058,
      "v": 107
    },
    {
      "midi": 55,
      "hit": false,
      "t": 100331.5068750002,
      "d": 1955.6575312500063,
      "v": 110
    },
    {
      "midi": 51,
      "hit": false,
      "t": 102293.5680000002,
      "d": 1953.0960937500058,
      "v": 109
    },
    {
      "midi": 56,
      "hit": false,
      "t": 102293.5680000002,
      "d": 1955.6575312500063,
      "v": 110
    },
    {
      "midi": 32,
      "hit": false,
      "t": 102296.1294375002,
      "d": 1955.6575312500063,
      "v": 110
    },
    {
      "midi": 54,
      "hit": false,
      "t": 102296.1294375002,
      "d": 1955.6575312500063,
      "v": 109
    },
    {
      "midi": 61,
      "hit": false,
      "t": 102298.6908750002,
      "d": 1955.6575312500063,
      "v": 108
    },
    {
      "midi": 51,
      "hit": false,
      "t": 104255.62912500021,
      "d": 1955.6575312500063,
      "v": 109
    },
    {
      "midi": 54,
      "hit": false,
      "t": 104260.75200000021,
      "d": 1955.6575312500063,
      "v": 109
    },
    {
      "midi": 60,
      "hit": false,
      "t": 104260.75200000021,
      "d": 1955.6575312500063,
      "v": 111
    },
    {
      "midi": 32,
      "hit": false,
      "t": 104263.31343750021,
      "d": 1955.6575312500063,
      "v": 110
    },
    {
      "midi": 61,
      "hit": false,
      "t": 106222.81312500022,
      "d": 1955.6575312500063,
      "v": 112
    },
    {
      "midi": 64,
      "hit": false,
      "t": 106225.37456250022,
      "d": 1955.6575312500063,
      "v": 113
    },
    {
      "midi": 37,
      "hit": false,
      "t": 106227.93600000022,
      "d": 1955.6575312500063,
      "v": 111
    },
    {
      "midi": 49,
      "hit": false,
      "t": 106227.93600000022,
      "d": 1955.6575312500063,
      "v": 110
    },
    {
      "midi": 56,
      "hit": false,
      "t": 106227.93600000022,
      "d": 1955.6575312500063,
      "v": 111
    },
    {
      "midi": 60,
      "hit": false,
      "t": 108189.99712500023,
      "d": 1955.6575312500063,
      "v": 111
    },
    {
      "midi": 64,
      "hit": false,
      "t": 108192.55856250023,
      "d": 1955.6575312500063,
      "v": 111
    },
    {
      "midi": 37,
      "hit": false,
      "t": 108195.12000000023,
      "d": 1955.6575312500063,
      "v": 110
    },
    {
      "midi": 56,
      "hit": false,
      "t": 108200.24287500023,
      "d": 1955.6575312500063,
      "v": 110
    },
    {
      "midi": 64,
      "hit": false,
      "t": 110157.18112500024,
      "d": 1955.6575312500063,
      "v": 111
    },
    {
      "midi": 54,
      "hit": false,
      "t": 110159.74256250024,
      "d": 1955.6575312500063,
      "v": 110
    },
    {
      "midi": 59,
      "hit": false,
      "t": 110159.74256250024,
      "d": 1955.6575312500063,
      "v": 111
    },
    {
      "midi": 30,
      "hit": false,
      "t": 110164.86543750024,
      "d": 3671.8206562500127,
      "v": 110
    },
    {
      "midi": 61,
      "hit": false,
      "t": 110167.42687500024,
      "d": 1953.0960937500058,
      "v": 109
    },
    {
      "midi": 42,
      "hit": false,
      "t": 112124.36512500024,
      "d": 1955.6575312500063,
      "v": 109
    },
    {
      "midi": 61,
      "hit": false,
      "t": 112129.48800000024,
      "d": 1953.0960937500058,
      "v": 107
    },
    {
      "midi": 54,
      "hit": false,
      "t": 112129.48800000024,
      "d": 1955.6575312500063,
      "v": 108
    },
    {
      "midi": 58,
      "hit": false,
      "t": 112132.04943750025,
      "d": 1955.6575312500063,
      "v": 109
    },
    {
      "midi": 61,
      "hit": false,
      "t": 114091.54912500025,
      "d": 1955.6575312500063,
      "v": 111
    },
    {
      "midi": 27,
      "hit": false,
      "t": 114096.67200000025,
      "d": 3751.2252187500126,
      "v": 110
    },
    {
      "midi": 39,
      "hit": false,
      "t": 114099.23343750025,
      "d": 3922.8415312500147,
      "v": 110
    },
    {
      "midi": 54,
      "hit": false,
      "t": 114101.79487500025,
      "d": 1953.0960937500058,
      "v": 112
    },
    {
      "midi": 51,
      "hit": false,
      "t": 114101.79487500025,
      "d": 1955.6575312500063,
      "v": 111
    },
    {
      "midi": 54,
      "hit": false,
      "t": 116063.85600000026,
      "d": 1955.6575312500063,
      "v": 110
    },
    {
      "midi": 51,
      "hit": false,
      "t": 116066.41743750026,
      "d": 1955.6575312500063,
      "v": 110
    },
    {
      "midi": 59,
      "hit": false,
      "t": 116066.41743750026,
      "d": 1955.6575312500063,
      "v": 111
    },
    {
      "midi": 61,
      "hit": false,
      "t": 118028.47856250027,
      "d": 1955.6575312500063,
      "v": 110
    },
    {
      "midi": 44,
      "hit": false,
      "t": 118028.47856250027,
      "d": 3694.873593750017,
      "v": 109
    },
    {
      "midi": 51,
      "hit": false,
      "t": 118031.04000000027,
      "d": 1955.6575312500063,
      "v": 110
    },
    {
      "midi": 32,
      "hit": false,
      "t": 118033.60143750027,
      "d": 3715.3650937500206,
      "v": 110
    },
    {
      "midi": 56,
      "hit": false,
      "t": 118036.16287500027,
      "d": 1953.0960937500058,
      "v": 110
    },
    {
      "midi": 56,
      "hit": false,
      "t": 119998.22400000028,
      "d": 1955.6575312500208,
      "v": 110
    },
    {
      "midi": 51,
      "hit": false,
      "t": 120003.34687500028,
      "d": 1955.6575312500208,
      "v": 110
    },
    {
      "midi": 60,
      "hit": false,
      "t": 120003.34687500028,
      "d": 1955.6575312500208,
      "v": 111
    },
    {
      "midi": 61,
      "hit": false,
      "t": 121478.73487500029,
      "d": 234.37153124999895,
      "v": 113
    },
    {
      "midi": 63,
      "hit": false,
      "t": 121714.38712500028,
      "d": 234.3715312500135,
      "v": 110
    },
    {
      "midi": 64,
      "hit": false,
      "t": 121960.2851250003,
      "d": 1955.6575312500063,
      "v": 111
    },
    {
      "midi": 37,
      "hit": false,
      "t": 121962.8465625003,
      "d": 1955.6575312500063,
      "v": 109
    },
    {
      "midi": 59,
      "hit": false,
      "t": 121962.8465625003,
      "d": 1955.6575312500063,
      "v": 109
    },
    {
      "midi": 25,
      "hit": false,
      "t": 121962.8465625003,
      "d": 3674.382093750013,
      "v": 110
    },
    {
      "midi": 56,
      "hit": false,
      "t": 121967.9694375003,
      "d": 1955.6575312500063,
      "v": 110
    },
    {
      "midi": 52,
      "hit": false,
      "t": 123927.46912500031,
      "d": 1955.6575312500063,
      "v": 108
    },
    {
      "midi": 59,
      "hit": false,
      "t": 123930.03056250031,
      "d": 1955.6575312500063,
      "v": 109
    },
    {
      "midi": 64,
      "hit": false,
      "t": 123930.03056250031,
      "d": 1955.6575312500063,
      "v": 109
    },
    {
      "midi": 56,
      "hit": false,
      "t": 123935.15343750031,
      "d": 1955.6575312500063,
      "v": 109
    },
    {
      "midi": 37,
      "hit": false,
      "t": 123937.71487500031,
      "d": 1955.6575312500063,
      "v": 107
    },
    {
      "midi": 42,
      "hit": false,
      "t": 125894.65312500032,
      "d": 1955.6575312500063,
      "v": 110
    },
    {
      "midi": 66,
      "hit": false,
      "t": 125894.65312500032,
      "d": 1955.6575312500063,
      "v": 109
    },
    {
      "midi": 54,
      "hit": false,
      "t": 125897.21456250032,
      "d": 1955.6575312500063,
      "v": 109
    },
    {
      "midi": 30,
      "hit": false,
      "t": 125897.21456250032,
      "d": 3802.4539687500073,
      "v": 111
    },
    {
      "midi": 59,
      "hit": false,
      "t": 125902.33743750032,
      "d": 1955.6575312500063,
      "v": 111
    },
    {
      "midi": 61,
      "hit": false,
      "t": 125902.33743750032,
      "d": 1955.6575312500063,
      "v": 110
    },
    {
      "midi": 49,
      "hit": false,
      "t": 127861.83712500033,
      "d": 1955.6575312500063,
      "v": 108
    },
    {
      "midi": 42,
      "hit": false,
      "t": 127864.39856250033,
      "d": 1955.6575312500063,
      "v": 109
    },
    {
      "midi": 58,
      "hit": false,
      "t": 127864.39856250033,
      "d": 1955.6575312500063,
      "v": 109
    },
    {
      "midi": 61,
      "hit": false,
      "t": 127866.96000000033,
      "d": 1955.6575312500063,
      "v": 109
    },
    {
      "midi": 54,
      "hit": false,
      "t": 127869.52143750033,
      "d": 1955.6575312500063,
      "v": 109
    },
    {
      "midi": 54,
      "hit": false,
      "t": 128353.63312500007,
      "d": 495.6381562500028,
      "v": 1
    },
    {
      "midi": 59,
      "hit": false,
      "t": 128853.11343750007,
      "d": 482.83096875000047,
      "v": 1
    },
    {
      "midi": 63,
      "hit": false,
      "t": 129339.78656250007,
      "d": 4422.321843750004,
      "v": 1
    },
    {
      "midi": 35,
      "hit": false,
      "t": 129829.02112500033,
      "d": 1187.226281250012,
      "v": 110
    },
    {
      "midi": 63,
      "hit": false,
      "t": 129831.58256250033,
      "d": 569.9198437500017,
      "v": 109
    },
    {
      "midi": 47,
      "hit": false,
      "t": 129831.58256250033,
      "d": 1574.0033437500388,
      "v": 109
    },
    {
      "midi": 54,
      "hit": false,
      "t": 129834.14400000033,
      "d": 667.2544687500049,
      "v": 108
    },
    {
      "midi": 59,
      "hit": false,
      "t": 129836.70543750034,
      "d": 521.2525312500075,
      "v": 111
    },
    {
      "midi": 54,
      "hit": false,
      "t": 130812.61312500034,
      "d": 549.4283437500271,
      "v": 109
    },
    {
      "midi": 63,
      "hit": false,
      "t": 130815.17456250034,
      "d": 523.8139687500225,
      "v": 109
    },
    {
      "midi": 59,
      "hit": false,
      "t": 130817.73600000034,
      "d": 508.4453437500197,
      "v": 110
    },
    {
      "midi": 61,
      "hit": false,
      "t": 131796.2051250004,
      "d": 534.0597187500098,
      "v": 109
    },
    {
      "midi": 54,
      "hit": false,
      "t": 131798.7665625004,
      "d": 367.5662812500086,
      "v": 107
    },
    {
      "midi": 33,
      "hit": false,
      "t": 131798.7665625004,
      "d": 1594.494843750028,
      "v": 108
    },
    {
      "midi": 57,
      "hit": false,
      "t": 131801.3280000004,
      "d": 628.8329062499979,
      "v": 110
    },
    {
      "midi": 45,
      "hit": false,
      "t": 131806.4508750004,
      "d": 1210.2792187500163,
      "v": 108
    },
    {
      "midi": 54,
      "hit": false,
      "t": 132295.6854375004,
      "d": 160.08984375,
      "v": 104
    },
    {
      "midi": 61,
      "hit": false,
      "t": 132782.3585625004,
      "d": 459.7780312500254,
      "v": 107
    },
    {
      "midi": 54,
      "hit": false,
      "t": 132782.3585625004,
      "d": 480.2695312500291,
      "v": 110
    },
    {
      "midi": 57,
      "hit": false,
      "t": 132782.3585625004,
      "d": 487.9538437500305,
      "v": 110
    },
    {
      "midi": 45,
      "hit": false,
      "t": 133271.59312500042,
      "d": 113.98396874999162,
      "v": 107
    },
    {
      "midi": 56,
      "hit": false,
      "t": 133763.38912500042,
      "d": 667.2544687499758,
      "v": 108
    },
    {
      "midi": 61,
      "hit": false,
      "t": 133765.95056250007,
      "d": 249.7401562499872,
      "v": 1
    },
    {
      "midi": 54,
      "hit": false,
      "t": 133765.95056250042,
      "d": 395.74209374998463,
      "v": 106
    },
    {
      "midi": 61,
      "hit": false,
      "t": 133765.95056250042,
      "d": 628.8329062499688,
      "v": 109
    },
    {
      "midi": 44,
      "hit": false,
      "t": 133765.95056250042,
      "d": 1123.1903437499714,
      "v": 107
    },
    {
      "midi": 32,
      "hit": false,
      "t": 133768.51200000042,
      "d": 1607.302031249972,
      "v": 107
    },
    {
      "midi": 60,
      "hit": false,
      "t": 134019.53287500006,
      "d": 234.3715312500135,
      "v": 1
    },
    {
      "midi": 61,
      "hit": false,
      "t": 134255.18512500008,
      "d": 244.61728124998626,
      "v": 1
    },
    {
      "midi": 54,
      "hit": false,
      "t": 134255.1851250004,
      "d": 180.58134375000373,
      "v": 106
    },
    {
      "midi": 60,
      "hit": false,
      "t": 134503.64456250006,
      "d": 247.17871874998673,
      "v": 1
    },
    {
      "midi": 61,
      "hit": false,
      "t": 134749.5425625004,
      "d": 485.39240625000093,
      "v": 110
    },
    {
      "midi": 56,
      "hit": false,
      "t": 134752.1040000004,
      "d": 498.19959375000326,
      "v": 110
    },
    {
      "midi": 61,
      "hit": false,
      "t": 134754.66543750005,
      "d": 485.39240625000093,
      "v": 1
    },
    {
      "midi": 54,
      "hit": false,
      "t": 134754.6654375004,
      "d": 485.39240625000093,
      "v": 110
    },
    {
      "midi": 63,
      "hit": false,
      "t": 135243.90000000005,
      "d": 482.83096875000047,
      "v": 1
    },
    {
      "midi": 44,
      "hit": false,
      "t": 135243.9000000004,
      "d": 2327.0659687500156,
      "v": 107
    },
    {
      "midi": 60,
      "hit": false,
      "t": 135730.57312500005,
      "d": 989.9955937500054,
      "v": 1
    },
    {
      "midi": 54,
      "hit": false,
      "t": 135738.2574375004,
      "d": 828.6250312500051,
      "v": 107
    },
    {
      "midi": 56,
      "hit": false,
      "t": 135738.2574375004,
      "d": 846.5550937500084,
      "v": 108
    },
    {
      "midi": 32,
      "hit": false,
      "t": 135738.2574375004,
      "d": 1889.0601562500233,
      "v": 106
    },
    {
      "midi": 60,
      "hit": false,
      "t": 135740.8188750004,
      "d": 841.4322187500075,
      "v": 109
    },
    {
      "midi": 56,
      "hit": false,
      "t": 136716.7265625004,
      "d": 936.2054062500247,
      "v": 107
    },
    {
      "midi": 54,
      "hit": false,
      "t": 136719.2880000004,
      "d": 918.2753437500214,
      "v": 107
    },
    {
      "midi": 60,
      "hit": false,
      "t": 136719.2880000004,
      "d": 951.5740312500275,
      "v": 110
    },
    {
      "midi": 61,
      "hit": false,
      "t": 136724.41087500006,
      "d": 487.9538437500014,
      "v": 1
    },
    {
      "midi": 61,
      "hit": false,
      "t": 137205.9611250004,
      "d": 231.81009375001304,
      "v": 112
    },
    {
      "midi": 63,
      "hit": false,
      "t": 137216.20687500006,
      "d": 482.83096875000047,
      "v": 1
    },
    {
      "midi": 63,
      "hit": false,
      "t": 137459.54343750043,
      "d": 229.24865625001257,
      "v": 114
    },
    {
      "midi": 37,
      "hit": false,
      "t": 137697.75712500044,
      "d": 1087.3302187499648,
      "v": 109
    },
    {
      "midi": 61,
      "hit": false,
      "t": 137700.31856250044,
      "d": 511.0067812499765,
      "v": 110
    },
    {
      "midi": 64,
      "hit": false,
      "t": 137702.88000000006,
      "d": 4181.5467187500035,
      "v": 1
    },
    {
      "midi": 56,
      "hit": false,
      "t": 137702.88000000044,
      "d": 382.9349062499823,
      "v": 108
    },
    {
      "midi": 64,
      "hit": false,
      "t": 137702.88000000044,
      "d": 464.9009062499681,
      "v": 112
    },
    {
      "midi": 49,
      "hit": false,
      "t": 137702.88000000044,
      "d": 1095.0145312499662,
      "v": 108
    },
    {
      "midi": 56,
      "hit": false,
      "t": 138199.79887500042,
      "d": 147.28265624999767,
      "v": 107
    },
    {
      "midi": 56,
      "hit": false,
      "t": 138683.91056250042,
      "d": 472.5852187499986,
      "v": 109
    },
    {
      "midi": 61,
      "hit": false,
      "t": 138686.47200000042,
      "d": 534.0597187500098,
      "v": 111
    },
    {
      "midi": 64,
      "hit": false,
      "t": 138689.03343750042,
      "d": 408.54928124998696,
      "v": 113
    },
    {
      "midi": 49,
      "hit": false,
      "t": 139173.14512500042,
      "d": 147.28265624999767,
      "v": 106
    },
    {
      "midi": 37,
      "hit": false,
      "t": 139173.14512500042,
      "d": 162.65128125000047,
      "v": 107
    },
    {
      "midi": 49,
      "hit": false,
      "t": 139670.06400000042,
      "d": 1159.0504687499779,
      "v": 110
    },
    {
      "midi": 56,
      "hit": false,
      "t": 139672.62543750042,
      "d": 341.95190624997485,
      "v": 109
    },
    {
      "midi": 60,
      "hit": false,
      "t": 139672.62543750042,
      "d": 582.7270312499604,
      "v": 111
    },
    {
      "midi": 37,
      "hit": false,
      "t": 139672.62543750042,
      "d": 1666.2150937499828,
      "v": 110
    },
    {
      "midi": 64,
      "hit": false,
      "t": 139675.18687500042,
      "d": 692.8688437499513,
      "v": 111
    },
    {
      "midi": 56,
      "hit": false,
      "t": 140159.2985625004,
      "d": 267.67021874999045,
      "v": 104
    },
    {
      "midi": 64,
      "hit": false,
      "t": 140651.0945625004,
      "d": 495.6381562500028,
      "v": 111
    },
    {
      "midi": 60,
      "hit": false,
      "t": 140653.6560000004,
      "d": 485.39240625000093,
      "v": 111
    },
    {
      "midi": 56,
      "hit": false,
      "t": 140658.7788750004,
      "d": 480.26953125,
      "v": 109
    },
    {
      "midi": 49,
      "hit": false,
      "t": 141150.5748750004,
      "d": 111.42253124999115,
      "v": 109
    },
    {
      "midi": 56,
      "hit": false,
      "t": 141632.1251250004,
      "d": 336.829031250003,
      "v": 109
    },
    {
      "midi": 47,
      "hit": false,
      "t": 141632.1251250004,
      "d": 1448.4929062500305,
      "v": 109
    },
    {
      "midi": 59,
      "hit": false,
      "t": 141634.6865625004,
      "d": 562.2355312500149,
      "v": 111
    },
    {
      "midi": 35,
      "hit": false,
      "t": 141639.8094375004,
      "d": 1036.1014687500137,
      "v": 110
    },
    {
      "midi": 64,
      "hit": false,
      "t": 141642.3708750004,
      "d": 562.2355312500149,
      "v": 111
    },
    {
      "midi": 63,
      "hit": false,
      "t": 141888.26887500007,
      "d": 482.83096875000047,
      "v": 1
    },
    {
      "midi": 56,
      "hit": false,
      "t": 142126.4825625004,
      "d": 160.08984375,
      "v": 104
    },
    {
      "midi": 61,
      "hit": false,
      "t": 142374.94200000007,
      "d": 236.93296875001397,
      "v": 1
    },
    {
      "midi": 59,
      "hit": false,
      "t": 142615.71712500008,
      "d": 495.6381562500028,
      "v": 1
    },
    {
      "midi": 59,
      "hit": false,
      "t": 142623.4014375004,
      "d": 426.4793437500193,
      "v": 109
    },
    {
      "midi": 64,
      "hit": false,
      "t": 142623.4014375004,
      "d": 426.4793437500193,
      "v": 111
    },
    {
      "midi": 56,
      "hit": false,
      "t": 142623.4014375004,
      "d": 446.97084375002305,
      "v": 108
    },
    {
      "midi": 63,
      "hit": false,
      "t": 143115.1974375001,
      "d": 490.51528125000186,
      "v": 1
    },
    {
      "midi": 35,
      "hit": false,
      "t": 143115.19743750044,
      "d": 85.8081562499865,
      "v": 110
    },
    {
      "midi": 30,
      "hit": false,
      "t": 143599.30912500044,
      "d": 987.434156250034,
      "v": 109
    },
    {
      "midi": 54,
      "hit": false,
      "t": 143601.87056250044,
      "d": 557.112656250014,
      "v": 108
    },
    {
      "midi": 61,
      "hit": false,
      "t": 143606.99343750044,
      "d": 557.112656250014,
      "v": 107
    },
    {
      "midi": 58,
      "hit": false,
      "t": 143606.99343750044,
      "d": 603.2185312500224,
      "v": 108
    },
    {
      "midi": 61,
      "hit": false,
      "t": 143609.5548750001,
      "d": 977.188406250003,
      "v": 1
    },
    {
      "midi": 42,
      "hit": false,
      "t": 143609.55487500044,
      "d": 964.3812187500298,
      "v": 108
    },
    {
      "midi": 58,
      "hit": false,
      "t": 144582.90112500047,
      "d": 405.9878437499865,
      "v": 109
    },
    {
      "midi": 54,
      "hit": false,
      "t": 144582.90112500047,
      "d": 408.54928124998696,
      "v": 109
    },
    {
      "midi": 61,
      "hit": false,
      "t": 144582.90112500047,
      "d": 429.0407812499907,
      "v": 112
    },
    {
      "midi": 63,
      "hit": false,
      "t": 144590.5854375001,
      "d": 480.26953125,
      "v": 1
    },
    {
      "midi": 40,
      "hit": false,
      "t": 144590.58543750047,
      "d": 964.3812187500007,
      "v": 108
    },
    {
      "midi": 64,
      "hit": false,
      "t": 145074.6971250001,
      "d": 490.51528125000186,
      "v": 1
    },
    {
      "midi": 68,
      "hit": false,
      "t": 145082.38143750047,
      "d": 55.07090625001001,
      "v": 110
    },
    {
      "midi": 66,
      "hit": false,
      "t": 145569.0545625001,
      "d": 4422.321843749989,
      "v": 1
    },
    {
      "midi": 54,
      "hit": false,
      "t": 145569.05456250047,
      "d": 920.8367812499928,
      "v": 107
    },
    {
      "midi": 63,
      "hit": false,
      "t": 145569.05456250047,
      "d": 920.8367812499928,
      "v": 109
    },
    {
      "midi": 61,
      "hit": false,
      "t": 145571.61600000047,
      "d": 920.8367812499928,
      "v": 109
    },
    {
      "midi": 66,
      "hit": false,
      "t": 145574.17743750048,
      "d": 920.8367812499928,
      "v": 107
    },
    {
      "midi": 39,
      "hit": false,
      "t": 145576.73887500048,
      "d": 1612.424906250002,
      "v": 107
    },
    {
      "midi": 66,
      "hit": false,
      "t": 146550.08512500048,
      "d": 951.5740312499984,
      "v": 105
    },
    {
      "midi": 59,
      "hit": false,
      "t": 146555.20800000048,
      "d": 951.5740312499984,
      "v": 110
    },
    {
      "midi": 63,
      "hit": false,
      "t": 146557.76943750048,
      "d": 951.5740312499984,
      "v": 104
    },
    {
      "midi": 63,
      "hit": false,
      "t": 147533.67712500048,
      "d": 946.4511562499974,
      "v": 108
    },
    {
      "midi": 39,
      "hit": false,
      "t": 147538.80000000048,
      "d": 1901.8673437500256,
      "v": 105
    },
    {
      "midi": 58,
      "hit": false,
      "t": 147541.36143750048,
      "d": 946.4511562499974,
      "v": 108
    },
    {
      "midi": 66,
      "hit": false,
      "t": 147543.92287500048,
      "d": 964.3812187500007,
      "v": 106
    },
    {
      "midi": 66,
      "hit": false,
      "t": 148517.2691250005,
      "d": 928.5210937500233,
      "v": 106
    },
    {
      "midi": 57,
      "hit": false,
      "t": 148519.8305625005,
      "d": 913.1524687500205,
      "v": 109
    },
    {
      "midi": 63,
      "hit": false,
      "t": 148522.3920000005,
      "d": 913.1524687500205,
      "v": 105
    },
    {
      "midi": 54,
      "hit": false,
      "t": 149500.86112500052,
      "d": 549.4283437500126,
      "v": 107
    },
    {
      "midi": 51,
      "hit": false,
      "t": 149500.86112500052,
      "d": 641.6400937500002,
      "v": 107
    },
    {
      "midi": 61,
      "hit": false,
      "t": 149503.42256250052,
      "d": 549.4283437500126,
      "v": 106
    },
    {
      "midi": 56,
      "hit": false,
      "t": 149503.42256250052,
      "d": 551.989781250013,
      "v": 110
    },
    {
      "midi": 44,
      "hit": false,
      "t": 149503.42256250052,
      "d": 946.4511562499974,
      "v": 107
    },
    {
      "midi": 32,
      "hit": false,
      "t": 149505.98400000052,
      "d": 1663.6536562500114,
      "v": 106
    },
    {
      "midi": 63,
      "hit": false,
      "t": 149995.2185625001,
      "d": 2455.13784375001,
      "v": 1
    },
    {
      "midi": 61,
      "hit": false,
      "t": 150484.45312500052,
      "d": 416.23359374998836,
      "v": 110
    },
    {
      "midi": 51,
      "hit": false,
      "t": 150487.01456250052,
      "d": 318.89896874999977,
      "v": 109
    },
    {
      "midi": 56,
      "hit": false,
      "t": 150492.13743750053,
      "d": 439.28653124999255,
      "v": 110
    },
    {
      "midi": 54,
      "hit": false,
      "t": 150494.69887500053,
      "d": 434.1636562499916,
      "v": 110
    },
    {
      "midi": 44,
      "hit": false,
      "t": 150986.49487500053,
      "d": 1376.7726562500175,
      "v": 108
    },
    {
      "midi": 51,
      "hit": false,
      "t": 151470.60656250053,
      "d": 308.6532187499979,
      "v": 108
    },
    {
      "midi": 54,
      "hit": false,
      "t": 151470.60656250053,
      "d": 531.4982812500093,
      "v": 109
    },
    {
      "midi": 56,
      "hit": false,
      "t": 151470.60656250053,
      "d": 541.7440312500112,
      "v": 109
    },
    {
      "midi": 32,
      "hit": false,
      "t": 151470.60656250053,
      "d": 1571.4419062500237,
      "v": 107
    },
    {
      "midi": 60,
      "hit": false,
      "t": 151478.29087500053,
      "d": 500.7610312500037,
      "v": 109
    },
    {
      "midi": 51,
      "hit": false,
      "t": 151964.96400000053,
      "d": 93.492468750017,
      "v": 108
    },
    {
      "midi": 51,
      "hit": false,
      "t": 152215.98487500055,
      "d": 285.6002812499937,
      "v": 100
    },
    {
      "midi": 64,
      "hit": false,
      "t": 152454.1985625001,
      "d": 984.8727187500335,
      "v": 1
    },
    {
      "midi": 60,
      "hit": false,
      "t": 152454.19856250053,
      "d": 188.26565625000512,
      "v": 111
    },
    {
      "midi": 56,
      "hit": false,
      "t": 152459.32143750053,
      "d": 178.01990625000326,
      "v": 110
    },
    {
      "midi": 54,
      "hit": false,
      "t": 152461.88287500053,
      "d": 160.08984375,
      "v": 110
    },
    {
      "midi": 61,
      "hit": false,
      "t": 152951.11743750054,
      "d": 19.210781250003492,
      "v": 113
    },
    {
      "midi": 63,
      "hit": false,
      "t": 153197.01543750055,
      "d": 103.73821874998976,
      "v": 114
    },
    {
      "midi": 49,
      "hit": false,
      "t": 153435.22912500054,
      "d": 1118.0674687499995,
      "v": 109
    },
    {
      "midi": 37,
      "hit": false,
      "t": 153437.79056250054,
      "d": 1522.774593750015,
      "v": 109
    },
    {
      "midi": 61,
      "hit": false,
      "t": 153440.35200000054,
      "d": 526.3754062500084,
      "v": 109
    },
    {
      "midi": 61,
      "hit": false,
      "t": 153442.91343750013,
      "d": 1346.0354062500119,
      "v": 1
    },
    {
      "midi": 64,
      "hit": false,
      "t": 153442.91343750054,
      "d": 523.8139687500079,
      "v": 110
    },
    {
      "midi": 56,
      "hit": false,
      "t": 153445.47487500054,
      "d": 377.8120312500105,
      "v": 109
    },
    {
      "midi": 56,
      "hit": false,
      "t": 153927.02512500054,
      "d": 162.65128125000047,
      "v": 107
    },
    {
      "midi": 56,
      "hit": false,
      "t": 154421.38256250054,
      "d": 395.74209374998463,
      "v": 111
    },
    {
      "midi": 64,
      "hit": false,
      "t": 154423.94400000054,
      "d": 421.3564687499893,
      "v": 112
    },
    {
      "midi": 61,
      "hit": false,
      "t": 154429.06687500054,
      "d": 557.112656250014,
      "v": 112
    },
    {
      "midi": 49,
      "hit": false,
      "t": 154920.86287500054,
      "d": 65.31665625001187,
      "v": 109
    },
    {
      "midi": 63,
      "hit": false,
      "t": 155166.76087500056,
      "d": 213.88003125000978,
      "v": 111
    },
    {
      "midi": 56,
      "hit": false,
      "t": 155402.41312500057,
      "d": 370.1277187500091,
      "v": 110
    },
    {
      "midi": 64,
      "hit": false,
      "t": 155402.41312500057,
      "d": 531.4982812500093,
      "v": 111
    },
    {
      "midi": 61,
      "hit": false,
      "t": 155404.97456250057,
      "d": 526.3754062500084,
      "v": 109
    },
    {
      "midi": 33,
      "hit": false,
      "t": 155410.09743750058,
      "d": 1530.4589062500163,
      "v": 111
    },
    {
      "midi": 45,
      "hit": false,
      "t": 155412.65887500058,
      "d": 1166.7347812500084,
      "v": 110
    },
    {
      "midi": 56,
      "hit": false,
      "t": 155894.20912500058,
      "d": 180.58134375000373,
      "v": 106
    },
    {
      "midi": 59,
      "hit": false,
      "t": 156140.10712500016,
      "d": 495.6381562500028,
      "v": 1
    },
    {
      "midi": 56,
      "hit": false,
      "t": 156388.56656250058,
      "d": 762.0276562500221,
      "v": 111
    },
    {
      "midi": 64,
      "hit": false,
      "t": 156393.68943750058,
      "d": 618.5871562500251,
      "v": 112
    },
    {
      "midi": 61,
      "hit": false,
      "t": 156396.25087500058,
      "d": 628.832906250027,
      "v": 113
    },
    {
      "midi": 61,
      "hit": false,
      "t": 156639.58743750016,
      "d": 236.93296875001397,
      "v": 1
    },
    {
      "midi": 63,
      "hit": false,
      "t": 156880.36256250017,
      "d": 490.51528125000186,
      "v": 1
    },
    {
      "midi": 45,
      "hit": false,
      "t": 156882.92400000058,
      "d": 60.19378125001094,
      "v": 111
    },
    {
      "midi": 63,
      "hit": false,
      "t": 157126.2605625006,
      "d": 121.66828124999302,
      "v": 109
    },
    {
      "midi": 54,
      "hit": false,
      "t": 157369.59712500058,
      "d": 395.74209375001374,
      "v": 109
    },
    {
      "midi": 59,
      "hit": false,
      "t": 157369.59712500058,
      "d": 498.19959375000326,
      "v": 111
    },
    {
      "midi": 61,
      "hit": false,
      "t": 157369.59712500058,
      "d": 513.568218750006,
      "v": 109
    },
    {
      "midi": 42,
      "hit": false,
      "t": 157372.15856250058,
      "d": 954.1354687499988,
      "v": 110
    },
    {
      "midi": 61,
      "hit": false,
      "t": 157374.72000000018,
      "d": 1594.4948437499988,
      "v": 1
    },
    {
      "midi": 64,
      "hit": false,
      "t": 157374.72000000058,
      "d": 472.5852187499986,
      "v": 111
    },
    {
      "midi": 30,
      "hit": false,
      "t": 157374.72000000058,
      "d": 1666.2150937500119,
      "v": 110
    },
    {
      "midi": 54,
      "hit": false,
      "t": 157869.0774375006,
      "d": 198.51140625000698,
      "v": 106
    },
    {
      "midi": 54,
      "hit": false,
      "t": 158355.7505625006,
      "d": 449.5322812499944,
      "v": 108
    },
    {
      "midi": 64,
      "hit": false,
      "t": 158358.3120000006,
      "d": 426.4793437499902,
      "v": 111
    },
    {
      "midi": 59,
      "hit": false,
      "t": 158358.3120000006,
      "d": 431.60221874999115,
      "v": 109
    },
    {
      "midi": 61,
      "hit": false,
      "t": 158363.4348750006,
      "d": 518.691093750007,
      "v": 109
    },
    {
      "midi": 42,
      "hit": false,
      "t": 158852.6694375006,
      "d": 1668.7765312500123,
      "v": 108
    },
    {
      "midi": 54,
      "hit": false,
      "t": 159096.0060000006,
      "d": 618.587156249996,
      "v": 109
    },
    {
      "midi": 30,
      "hit": false,
      "t": 159336.7811250006,
      "d": 1881.3758437500219,
      "v": 110
    },
    {
      "midi": 66,
      "hit": false,
      "t": 159347.0268750006,
      "d": 500.7610312500037,
      "v": 108
    },
    {
      "midi": 61,
      "hit": false,
      "t": 159347.0268750006,
      "d": 546.8669062500121,
      "v": 108
    },
    {
      "midi": 59,
      "hit": false,
      "t": 159347.0268750006,
      "d": 598.0956562500214,
      "v": 109
    },
    {
      "midi": 54,
      "hit": false,
      "t": 159838.8228750006,
      "d": 380.37346875001094,
      "v": 106
    },
    {
      "midi": 58,
      "hit": false,
      "t": 160325.4960000006,
      "d": 669.8159062500054,
      "v": 106
    },
    {
      "midi": 66,
      "hit": false,
      "t": 160325.4960000006,
      "d": 700.5531562500109,
      "v": 105
    },
    {
      "midi": 61,
      "hit": false,
      "t": 160330.6188750006,
      "d": 664.6930312500044,
      "v": 106
    },
    {
      "midi": 54,
      "hit": false,
      "t": 160330.6188750006,
      "d": 685.1845312500081,
      "v": 107
    },
    {
      "midi": 42,
      "hit": false,
      "t": 160814.7305625006,
      "d": 434.1636562500207,
      "v": 104
    },
    {
      "midi": 56,
      "hit": false,
      "t": 161303.96512500063,
      "d": 1955.6575312500063,
      "v": 110
    },
    {
      "midi": 63,
      "hit": false,
      "t": 161303.96512500063,
      "d": 1955.6575312500063,
      "v": 111
    },
    {
      "midi": 59,
      "hit": false,
      "t": 161309.08800000063,
      "d": 1955.6575312500063,
      "v": 108
    },
    {
      "midi": 32,
      "hit": false,
      "t": 161314.21087500063,
      "d": 1955.6575312500063,
      "v": 110
    },
    {
      "midi": 68,
      "hit": false,
      "t": 161314.21087500063,
      "d": 1955.6575312500063,
      "v": 107
    },
    {
      "midi": 58,
      "hit": false,
      "t": 163273.71056250064,
      "d": 1955.6575312500063,
      "v": 107
    },
    {
      "midi": 46,
      "hit": false,
      "t": 163278.83343750064,
      "d": 1955.6575312500063,
      "v": 108
    },
    {
      "midi": 63,
      "hit": false,
      "t": 163278.83343750064,
      "d": 1955.6575312500063,
      "v": 110
    },
    {
      "midi": 70,
      "hit": false,
      "t": 163278.83343750064,
      "d": 1955.6575312500063,
      "v": 106
    },
    {
      "midi": 34,
      "hit": false,
      "t": 163281.39487500064,
      "d": 1955.6575312500063,
      "v": 108
    },
    {
      "midi": 67,
      "hit": false,
      "t": 163281.39487500064,
      "d": 1955.6575312500063,
      "v": 107
    },
    {
      "midi": 59,
      "hit": false,
      "t": 165238.33312500064,
      "d": 1955.6575312500063,
      "v": 109
    },
    {
      "midi": 63,
      "hit": false,
      "t": 165243.45600000065,
      "d": 1955.6575312500063,
      "v": 109
    },
    {
      "midi": 68,
      "hit": false,
      "t": 165243.45600000065,
      "d": 1955.6575312500063,
      "v": 110
    },
    {
      "midi": 71,
      "hit": false,
      "t": 165243.45600000065,
      "d": 1955.6575312500063,
      "v": 108
    },
    {
      "midi": 35,
      "hit": false,
      "t": 165246.01743750065,
      "d": 1955.6575312500063,
      "v": 110
    },
    {
      "midi": 47,
      "hit": false,
      "t": 165246.01743750065,
      "d": 1955.6575312500063,
      "v": 108
    },
    {
      "midi": 60,
      "hit": false,
      "t": 167205.51712500065,
      "d": 1955.6575312500354,
      "v": 109
    },
    {
      "midi": 72,
      "hit": false,
      "t": 167205.51712500065,
      "d": 1955.6575312500354,
      "v": 108
    },
    {
      "midi": 63,
      "hit": false,
      "t": 167208.07856250065,
      "d": 1955.6575312500354,
      "v": 109
    },
    {
      "midi": 68,
      "hit": false,
      "t": 167210.64000000065,
      "d": 1955.6575312500354,
      "v": 111
    },
    {
      "midi": 48,
      "hit": false,
      "t": 167213.20143750065,
      "d": 1955.6575312500354,
      "v": 110
    },
    {
      "midi": 36,
      "hit": false,
      "t": 167215.76287500066,
      "d": 1955.6575312500354,
      "v": 110
    },
    {
      "midi": 73,
      "hit": false,
      "t": 168849.96000000066,
      "d": 234.3715312500135,
      "v": 110
    },
    {
      "midi": 75,
      "hit": false,
      "t": 169019.01487500066,
      "d": 234.3715312500426,
      "v": 110
    },
    {
      "midi": 73,
      "hit": false,
      "t": 169172.7011250007,
      "d": 972.0655312500021,
      "v": 110
    },
    {
      "midi": 49,
      "hit": false,
      "t": 169172.7011250007,
      "d": 1955.6575312500063,
      "v": 108
    },
    {
      "midi": 61,
      "hit": false,
      "t": 169177.8240000007,
      "d": 972.0655312500021,
      "v": 109
    },
    {
      "midi": 37,
      "hit": false,
      "t": 169177.8240000007,
      "d": 1955.6575312500063,
      "v": 108
    },
    {
      "midi": 64,
      "hit": false,
      "t": 169180.3854375007,
      "d": 969.5040937500016,
      "v": 109
    },
    {
      "midi": 71,
      "hit": false,
      "t": 169182.9468750007,
      "d": 972.0655312500021,
      "v": 109
    },
    {
      "midi": 76,
      "hit": false,
      "t": 169182.9468750007,
      "d": 972.0655312500021,
      "v": 110
    },
    {
      "midi": 56,
      "hit": false,
      "t": 169182.9468750007,
      "d": 1947.973218750005,
      "v": 108
    },
    {
      "midi": 73,
      "hit": false,
      "t": 170156.2931250007,
      "d": 972.0655312500021,
      "v": 111
    },
    {
      "midi": 64,
      "hit": false,
      "t": 170158.8545625007,
      "d": 972.0655312500021,
      "v": 113
    },
    {
      "midi": 61,
      "hit": false,
      "t": 170161.4160000007,
      "d": 969.5040937500016,
      "v": 108
    },
    {
      "midi": 71,
      "hit": false,
      "t": 170163.9774375007,
      "d": 972.0655312500021,
      "v": 113
    },
    {
      "midi": 61,
      "hit": false,
      "t": 171139.8851250007,
      "d": 972.0655312500021,
      "v": 111
    },
    {
      "midi": 73,
      "hit": false,
      "t": 171139.8851250007,
      "d": 972.0655312500021,
      "v": 111
    },
    {
      "midi": 56,
      "hit": false,
      "t": 171139.8851250007,
      "d": 1955.6575312500063,
      "v": 110
    },
    {
      "midi": 37,
      "hit": false,
      "t": 171142.4465625007,
      "d": 1955.6575312500063,
      "v": 110
    },
    {
      "midi": 64,
      "hit": false,
      "t": 171145.0080000007,
      "d": 972.0655312500021,
      "v": 111
    },
    {
      "midi": 71,
      "hit": false,
      "t": 171150.1308750007,
      "d": 972.0655312500021,
      "v": 111
    },
    {
      "midi": 61,
      "hit": false,
      "t": 172126.0385625007,
      "d": 972.0655312500021,
      "v": 111
    },
    {
      "midi": 73,
      "hit": false,
      "t": 172128.6000000007,
      "d": 972.0655312500021,
      "v": 111
    },
    {
      "midi": 71,
      "hit": false,
      "t": 172131.1614375007,
      "d": 972.0655312500021,
      "v": 111
    },
    {
      "midi": 64,
      "hit": false,
      "t": 172133.7228750007,
      "d": 969.5040937500016,
      "v": 111
    },
    {
      "midi": 61,
      "hit": false,
      "t": 173109.6305625007,
      "d": 972.0655312500021,
      "v": 109
    },
    {
      "midi": 66,
      "hit": false,
      "t": 173109.6305625007,
      "d": 972.0655312500021,
      "v": 111
    },
    {
      "midi": 30,
      "hit": false,
      "t": 173109.6305625007,
      "d": 3671.8206562500272,
      "v": 110
    },
    {
      "midi": 59,
      "hit": false,
      "t": 173112.1920000007,
      "d": 969.5040937500016,
      "v": 111
    },
    {
      "midi": 64,
      "hit": false,
      "t": 173112.1920000007,
      "d": 969.5040937500016,
      "v": 111
    },
    {
      "midi": 54,
      "hit": false,
      "t": 173114.7534375007,
      "d": 1955.6575312500063,
      "v": 110
    },
    {
      "midi": 59,
      "hit": false,
      "t": 174090.6611250007,
      "d": 972.0655312500021,
      "v": 111
    },
    {
      "midi": 64,
      "hit": false,
      "t": 174090.6611250007,
      "d": 972.0655312500021,
      "v": 111
    },
    {
      "midi": 66,
      "hit": false,
      "t": 174093.2225625007,
      "d": 972.0655312500021,
      "v": 111
    },
    {
      "midi": 61,
      "hit": false,
      "t": 174098.3454375007,
      "d": 972.0655312500021,
      "v": 111
    },
    {
      "midi": 58,
      "hit": false,
      "t": 175076.81456250072,
      "d": 972.0655312500021,
      "v": 109
    },
    {
      "midi": 66,
      "hit": false,
      "t": 175076.81456250072,
      "d": 972.0655312500021,
      "v": 107
    },
    {
      "midi": 61,
      "hit": false,
      "t": 175081.93743750072,
      "d": 966.9426562500012,
      "v": 107
    },
    {
      "midi": 54,
      "hit": false,
      "t": 175081.93743750072,
      "d": 1955.6575312500063,
      "v": 108
    },
    {
      "midi": 42,
      "hit": false,
      "t": 175084.49887500072,
      "d": 1955.6575312500063,
      "v": 109
    },
    {
      "midi": 61,
      "hit": false,
      "t": 176057.84512500072,
      "d": 972.0655312500021,
      "v": 109
    },
    {
      "midi": 58,
      "hit": false,
      "t": 176062.96800000072,
      "d": 972.0655312500021,
      "v": 109
    },
    {
      "midi": 66,
      "hit": false,
      "t": 176068.09087500072,
      "d": 969.5040937500016,
      "v": 109
    },
    {
      "midi": 32,
      "hit": false,
      "t": 177041.43712500072,
      "d": 3671.8206562500272,
      "v": 110
    },
    {
      "midi": 66,
      "hit": false,
      "t": 177046.56000000073,
      "d": 972.0655312500021,
      "v": 111
    },
    {
      "midi": 56,
      "hit": false,
      "t": 177046.56000000073,
      "d": 1955.6575312500063,
      "v": 110
    },
    {
      "midi": 61,
      "hit": false,
      "t": 177049.12143750073,
      "d": 972.0655312500021,
      "v": 111
    },
    {
      "midi": 68,
      "hit": false,
      "t": 177049.12143750073,
      "d": 972.0655312500021,
      "v": 111
    },
    {
      "midi": 63,
      "hit": false,
      "t": 177051.68287500073,
      "d": 966.9426562500012,
      "v": 109
    },
    {
      "midi": 63,
      "hit": false,
      "t": 178027.59056250073,
      "d": 972.0655312500021,
      "v": 111
    },
    {
      "midi": 66,
      "hit": false,
      "t": 178027.59056250073,
      "d": 972.0655312500021,
      "v": 111
    },
    {
      "midi": 68,
      "hit": false,
      "t": 178030.15200000073,
      "d": 972.0655312500021,
      "v": 111
    },
    {
      "midi": 61,
      "hit": false,
      "t": 178035.27487500073,
      "d": 972.0655312500021,
      "v": 111
    },
    {
      "midi": 60,
      "hit": false,
      "t": 179011.18256250073,
      "d": 972.0655312500021,
      "v": 109
    },
    {
      "midi": 68,
      "hit": false,
      "t": 179011.18256250073,
      "d": 972.0655312500021,
      "v": 107
    },
    {
      "midi": 63,
      "hit": false,
      "t": 179016.30543750073,
      "d": 972.0655312500021,
      "v": 107
    },
    {
      "midi": 56,
      "hit": false,
      "t": 179016.30543750073,
      "d": 1953.0960937500058,
      "v": 108
    },
    {
      "midi": 44,
      "hit": false,
      "t": 179016.30543750073,
      "d": 1955.6575312500063,
      "v": 109
    },
    {
      "midi": 56,
      "hit": false,
      "t": 179505.54000000018,
      "d": 487.9538437500014,
      "v": 1
    },
    {
      "midi": 60,
      "hit": false,
      "t": 179505.54000000018,
      "d": 487.9538437500014,
      "v": 1
    },
    {
      "midi": 68,
      "hit": false,
      "t": 179992.21312500074,
      "d": 972.0655312500021,
      "v": 109
    },
    {
      "midi": 61,
      "hit": false,
      "t": 179997.33600000018,
      "d": 487.9538437500014,
      "v": 1
    },
    {
      "midi": 65,
      "hit": false,
      "t": 179997.33600000018,
      "d": 487.9538437500014,
      "v": 1
    },
    {
      "midi": 60,
      "hit": false,
      "t": 180002.45887500074,
      "d": 972.0655312500021,
      "v": 109
    },
    {
      "midi": 63,
      "hit": false,
      "t": 180002.45887500074,
      "d": 972.0655312500021,
      "v": 109
    },
    {
      "midi": 65,
      "hit": false,
      "t": 180489.1320000002,
      "d": 4422.321843749989,
      "v": 1
    },
    {
      "midi": 68,
      "hit": false,
      "t": 180489.1320000002,
      "d": 4422.321843749989,
      "v": 1
    },
    {
      "midi": 65,
      "hit": false,
      "t": 180978.36656250074,
      "d": 569.9198437499872,
      "v": 109
    },
    {
      "midi": 56,
      "hit": false,
      "t": 180978.36656250074,
      "d": 667.2544687499758,
      "v": 108
    },
    {
      "midi": 49,
      "hit": false,
      "t": 180978.36656250074,
      "d": 1574.003343749995,
      "v": 109
    },
    {
      "midi": 61,
      "hit": false,
      "t": 180980.92800000074,
      "d": 521.2525312499783,
      "v": 111
    },
    {
      "midi": 37,
      "hit": false,
      "t": 180983.48943750074,
      "d": 1187.226281249983,
      "v": 110
    },
    {
      "midi": 65,
      "hit": false,
      "t": 181961.95856250072,
      "d": 523.8139687500079,
      "v": 109
    },
    {
      "midi": 61,
      "hit": false,
      "t": 181967.08143750072,
      "d": 508.4453437500051,
      "v": 110
    },
    {
      "midi": 56,
      "hit": false,
      "t": 181969.64287500072,
      "d": 549.4283437500126,
      "v": 109
    },
    {
      "midi": 47,
      "hit": false,
      "t": 182942.98912500075,
      "d": 1210.2792187500163,
      "v": 108
    },
    {
      "midi": 59,
      "hit": false,
      "t": 182948.11200000075,
      "d": 628.8329062499979,
      "v": 110
    },
    {
      "midi": 56,
      "hit": false,
      "t": 182953.23487500075,
      "d": 367.5662812500086,
      "v": 107
    },
    {
      "midi": 63,
      "hit": false,
      "t": 182953.23487500075,
      "d": 534.0597187500098,
      "v": 109
    },
    {
      "midi": 35,
      "hit": false,
      "t": 182953.23487500075,
      "d": 1594.4948437499988,
      "v": 108
    },
    {
      "midi": 56,
      "hit": false,
      "t": 183442.46943750075,
      "d": 160.08984375,
      "v": 104
    },
    {
      "midi": 56,
      "hit": false,
      "t": 183926.58112500075,
      "d": 480.26953125,
      "v": 110
    },
    {
      "midi": 63,
      "hit": false,
      "t": 183934.26543750076,
      "d": 459.7780312499963,
      "v": 107
    },
    {
      "midi": 59,
      "hit": false,
      "t": 183936.82687500076,
      "d": 487.9538437500014,
      "v": 110
    },
    {
      "midi": 47,
      "hit": false,
      "t": 184420.93856250076,
      "d": 113.98396874999162,
      "v": 107
    },
    {
      "midi": 56,
      "hit": false,
      "t": 184910.17312500076,
      "d": 490.51528124997276,
      "v": 106
    },
    {
      "midi": 63,
      "hit": false,
      "t": 184915.29600000018,
      "d": 242.0558437499858,
      "v": 1
    },
    {
      "midi": 66,
      "hit": false,
      "t": 184915.29600000018,
      "d": 242.0558437499858,
      "v": 1
    },
    {
      "midi": 58,
      "hit": false,
      "t": 184915.29600000076,
      "d": 395.74209374998463,
      "v": 108
    },
    {
      "midi": 63,
      "hit": false,
      "t": 184915.29600000076,
      "d": 628.8329062499688,
      "v": 109
    },
    {
      "midi": 46,
      "hit": false,
      "t": 184915.29600000076,
      "d": 1123.1903437499714,
      "v": 107
    },
    {
      "midi": 34,
      "hit": false,
      "t": 184915.29600000076,
      "d": 1607.302031249972,
      "v": 107
    },
    {
      "midi": 62,
      "hit": false,
      "t": 185161.19400000016,
      "d": 242.0558437499858,
      "v": 1
    },
    {
      "midi": 65,
      "hit": false,
      "t": 185161.19400000016,
      "d": 242.0558437499858,
      "v": 1
    },
    {
      "midi": 63,
      "hit": false,
      "t": 185407.09200000015,
      "d": 242.0558437499858,
      "v": 1
    },
    {
      "midi": 66,
      "hit": false,
      "t": 185407.09200000015,
      "d": 242.0558437499858,
      "v": 1
    },
    {
      "midi": 56,
      "hit": false,
      "t": 185407.09200000073,
      "d": 175.4584687500028,
      "v": 106
    },
    {
      "midi": 62,
      "hit": false,
      "t": 185652.99000000014,
      "d": 242.0558437499858,
      "v": 1
    },
    {
      "midi": 65,
      "hit": false,
      "t": 185652.99000000014,
      "d": 242.0558437499858,
      "v": 1
    },
    {
      "midi": 58,
      "hit": false,
      "t": 185896.32656250073,
      "d": 485.39240625000093,
      "v": 110
    },
    {
      "midi": 63,
      "hit": false,
      "t": 185898.88800000012,
      "d": 487.9538437500014,
      "v": 1
    },
    {
      "midi": 66,
      "hit": false,
      "t": 185898.88800000012,
      "d": 487.9538437500014,
      "v": 1
    },
    {
      "midi": 56,
      "hit": false,
      "t": 185898.88800000073,
      "d": 498.19959375000326,
      "v": 110
    },
    {
      "midi": 63,
      "hit": false,
      "t": 185904.01087500073,
      "d": 485.39240625000093,
      "v": 110
    },
    {
      "midi": 65,
      "hit": false,
      "t": 186390.68400000012,
      "d": 487.9538437500014,
      "v": 1
    },
    {
      "midi": 68,
      "hit": false,
      "t": 186390.68400000012,
      "d": 487.9538437500014,
      "v": 1
    },
    {
      "midi": 46,
      "hit": false,
      "t": 186395.80687500074,
      "d": 2327.0659687500156,
      "v": 107
    },
    {
      "midi": 58,
      "hit": false,
      "t": 186877.35712500074,
      "d": 828.6250312500051,
      "v": 108
    },
    {
      "midi": 62,
      "hit": false,
      "t": 186882.48000000013,
      "d": 979.7498437500035,
      "v": 1
    },
    {
      "midi": 65,
      "hit": false,
      "t": 186882.48000000013,
      "d": 979.7498437500035,
      "v": 1
    },
    {
      "midi": 62,
      "hit": false,
      "t": 186885.04143750074,
      "d": 841.4322187500075,
      "v": 109
    },
    {
      "midi": 56,
      "hit": false,
      "t": 186887.60287500074,
      "d": 846.5550937500084,
      "v": 107
    },
    {
      "midi": 34,
      "hit": false,
      "t": 186887.60287500074,
      "d": 1889.0601562500233,
      "v": 106
    },
    {
      "midi": 56,
      "hit": false,
      "t": 187860.94912500074,
      "d": 936.2054062500247,
      "v": 107
    },
    {
      "midi": 63,
      "hit": false,
      "t": 187866.07200000013,
      "d": 487.9538437500014,
      "v": 1
    },
    {
      "midi": 66,
      "hit": false,
      "t": 187866.07200000013,
      "d": 487.9538437500014,
      "v": 1
    },
    {
      "midi": 58,
      "hit": false,
      "t": 187866.07200000074,
      "d": 918.2753437500214,
      "v": 107
    },
    {
      "midi": 62,
      "hit": false,
      "t": 187866.07200000074,
      "d": 951.5740312500275,
      "v": 110
    },
    {
      "midi": 63,
      "hit": false,
      "t": 188352.74512500074,
      "d": 231.81009375001304,
      "v": 112
    },
    {
      "midi": 65,
      "hit": false,
      "t": 188357.86800000013,
      "d": 487.9538437500014,
      "v": 1
    },
    {
      "midi": 68,
      "hit": false,
      "t": 188357.86800000013,
      "d": 487.9538437500014,
      "v": 1
    },
    {
      "midi": 65,
      "hit": false,
      "t": 188608.88887500076,
      "d": 229.24865625001257,
      "v": 114
    },
    {
      "midi": 63,
      "hit": false,
      "t": 188844.54112500077,
      "d": 511.0067812499765,
      "v": 110
    },
    {
      "midi": 58,
      "hit": false,
      "t": 188847.10256250078,
      "d": 382.9349062499823,
      "v": 108
    },
    {
      "midi": 66,
      "hit": false,
      "t": 188849.66400000014,
      "d": 4176.423843750003,
      "v": 1
    },
    {
      "midi": 70,
      "hit": false,
      "t": 188849.66400000014,
      "d": 4176.423843750003,
      "v": 1
    },
    {
      "midi": 66,
      "hit": false,
      "t": 188849.66400000078,
      "d": 464.9009062499681,
      "v": 112
    },
    {
      "midi": 39,
      "hit": false,
      "t": 188849.66400000078,
      "d": 1087.3302187499648,
      "v": 109
    },
    {
      "midi": 51,
      "hit": false,
      "t": 188852.22543750078,
      "d": 1095.0145312499662,
      "v": 108
    },
    {
      "midi": 58,
      "hit": false,
      "t": 189344.02143750075,
      "d": 147.28265624999767,
      "v": 107
    },
    {
      "midi": 63,
      "hit": false,
      "t": 189830.69456250075,
      "d": 534.0597187500098,
      "v": 111
    },
    {
      "midi": 66,
      "hit": false,
      "t": 189833.25600000075,
      "d": 408.54928124998696,
      "v": 113
    },
    {
      "midi": 58,
      "hit": false,
      "t": 189835.81743750075,
      "d": 472.5852187499986,
      "v": 109
    },
    {
      "midi": 39,
      "hit": false,
      "t": 190322.49056250075,
      "d": 162.65128125000047,
      "v": 107
    },
    {
      "midi": 51,
      "hit": false,
      "t": 190327.61343750075,
      "d": 147.28265624999767,
      "v": 106
    },
    {
      "midi": 62,
      "hit": false,
      "t": 190814.28656250075,
      "d": 582.7270312499604,
      "v": 111
    },
    {
      "midi": 51,
      "hit": false,
      "t": 190814.28656250075,
      "d": 1159.0504687499779,
      "v": 110
    },
    {
      "midi": 39,
      "hit": false,
      "t": 190814.28656250075,
      "d": 1666.2150937499828,
      "v": 110
    },
    {
      "midi": 58,
      "hit": false,
      "t": 190816.84800000075,
      "d": 341.95190624997485,
      "v": 109
    },
    {
      "midi": 66,
      "hit": false,
      "t": 190816.84800000075,
      "d": 692.8688437499513,
      "v": 111
    },
    {
      "midi": 58,
      "hit": false,
      "t": 191311.20543750073,
      "d": 267.67021874999045,
      "v": 104
    },
    {
      "midi": 66,
      "hit": false,
      "t": 191800.44000000073,
      "d": 495.6381562500028,
      "v": 111
    },
    {
      "midi": 58,
      "hit": false,
      "t": 191803.00143750073,
      "d": 480.26953125,
      "v": 109
    },
    {
      "midi": 62,
      "hit": false,
      "t": 191803.00143750073,
      "d": 485.39240625000093,
      "v": 111
    },
    {
      "midi": 51,
      "hit": false,
      "t": 192289.67456250073,
      "d": 111.42253124999115,
      "v": 109
    },
    {
      "midi": 58,
      "hit": false,
      "t": 192778.90912500073,
      "d": 336.829031250003,
      "v": 109
    },
    {
      "midi": 66,
      "hit": false,
      "t": 192778.90912500073,
      "d": 562.2355312500149,
      "v": 111
    },
    {
      "midi": 49,
      "hit": false,
      "t": 192778.90912500073,
      "d": 1448.4929062500305,
      "v": 109
    },
    {
      "midi": 61,
      "hit": false,
      "t": 192789.15487500074,
      "d": 562.2355312500149,
      "v": 111
    },
    {
      "midi": 37,
      "hit": false,
      "t": 192789.15487500074,
      "d": 1036.1014687500137,
      "v": 110
    },
    {
      "midi": 65,
      "hit": false,
      "t": 193029.93000000014,
      "d": 487.9538437500014,
      "v": 1
    },
    {
      "midi": 68,
      "hit": false,
      "t": 193029.93000000014,
      "d": 487.9538437500014,
      "v": 1
    },
    {
      "midi": 58,
      "hit": false,
      "t": 193278.38943750074,
      "d": 160.08984375,
      "v": 104
    },
    {
      "midi": 63,
      "hit": false,
      "t": 193521.72600000014,
      "d": 242.0558437499858,
      "v": 1
    },
    {
      "midi": 66,
      "hit": false,
      "t": 193521.72600000014,
      "d": 242.0558437499858,
      "v": 1
    },
    {
      "midi": 61,
      "hit": false,
      "t": 193767.62400000013,
      "d": 487.9538437500014,
      "v": 1
    },
    {
      "midi": 65,
      "hit": false,
      "t": 193767.62400000013,
      "d": 487.9538437500014,
      "v": 1
    },
    {
      "midi": 61,
      "hit": false,
      "t": 193767.62400000074,
      "d": 426.4793437500193,
      "v": 109
    },
    {
      "midi": 58,
      "hit": false,
      "t": 193767.62400000074,
      "d": 446.97084375002305,
      "v": 108
    },
    {
      "midi": 66,
      "hit": false,
      "t": 193772.74687500074,
      "d": 426.4793437500193,
      "v": 111
    },
    {
      "midi": 65,
      "hit": false,
      "t": 194259.42000000013,
      "d": 487.9538437500014,
      "v": 1
    },
    {
      "midi": 68,
      "hit": false,
      "t": 194259.42000000013,
      "d": 487.9538437500014,
      "v": 1
    },
    {
      "midi": 37,
      "hit": false,
      "t": 194261.98143750077,
      "d": 85.8081562499865,
      "v": 110
    },
    {
      "midi": 60,
      "hit": false,
      "t": 194746.09312500077,
      "d": 603.2185312500224,
      "v": 108
    },
    {
      "midi": 56,
      "hit": false,
      "t": 194748.65456250077,
      "d": 557.112656250014,
      "v": 108
    },
    {
      "midi": 44,
      "hit": false,
      "t": 194748.65456250077,
      "d": 964.3812187500298,
      "v": 108
    },
    {
      "midi": 63,
      "hit": false,
      "t": 194751.21600000013,
      "d": 979.7498437500035,
      "v": 1
    },
    {
      "midi": 66,
      "hit": false,
      "t": 194751.21600000013,
      "d": 979.7498437500035,
      "v": 1
    },
    {
      "midi": 32,
      "hit": false,
      "t": 194751.21600000077,
      "d": 987.434156250034,
      "v": 109
    },
    {
      "midi": 63,
      "hit": false,
      "t": 194756.33887500077,
      "d": 557.112656250014,
      "v": 107
    },
    {
      "midi": 60,
      "hit": false,
      "t": 195732.2465625008,
      "d": 405.9878437499865,
      "v": 109
    },
    {
      "midi": 65,
      "hit": false,
      "t": 195734.80800000014,
      "d": 487.9538437500014,
      "v": 1
    },
    {
      "midi": 68,
      "hit": false,
      "t": 195734.80800000014,
      "d": 487.9538437500014,
      "v": 1
    },
    {
      "midi": 56,
      "hit": false,
      "t": 195739.9308750008,
      "d": 408.54928124998696,
      "v": 109
    },
    {
      "midi": 63,
      "hit": false,
      "t": 195739.9308750008,
      "d": 429.0407812499907,
      "v": 112
    },
    {
      "midi": 42,
      "hit": false,
      "t": 195739.9308750008,
      "d": 964.3812187500007,
      "v": 108
    },
    {
      "midi": 70,
      "hit": false,
      "t": 196221.4811250008,
      "d": 55.07090625001001,
      "v": 110
    },
    {
      "midi": 66,
      "hit": false,
      "t": 196226.60400000014,
      "d": 487.9538437500014,
      "v": 1
    },
    {
      "midi": 70,
      "hit": false,
      "t": 196226.60400000014,
      "d": 487.9538437500014,
      "v": 1
    },
    {
      "midi": 63,
      "hit": false,
      "t": 196713.2771250008,
      "d": 920.8367812499928,
      "v": 109
    },
    {
      "midi": 41,
      "hit": false,
      "t": 196715.8385625008,
      "d": 1612.424906250002,
      "v": 107
    },
    {
      "midi": 68,
      "hit": false,
      "t": 196718.40000000014,
      "d": 4422.321843749989,
      "v": 1
    },
    {
      "midi": 72,
      "hit": false,
      "t": 196718.40000000014,
      "d": 4422.321843749989,
      "v": 1
    },
    {
      "midi": 56,
      "hit": false,
      "t": 196718.4000000008,
      "d": 920.8367812499928,
      "v": 107
    },
    {
      "midi": 68,
      "hit": false,
      "t": 196720.9614375008,
      "d": 920.8367812499928,
      "v": 107
    },
    {
      "midi": 65,
      "hit": false,
      "t": 196723.5228750008,
      "d": 920.8367812499928,
      "v": 109
    },
    {
      "midi": 61,
      "hit": false,
      "t": 197699.4305625008,
      "d": 951.5740312499984,
      "v": 110
    },
    {
      "midi": 65,
      "hit": false,
      "t": 197704.5534375008,
      "d": 951.5740312499984,
      "v": 104
    },
    {
      "midi": 68,
      "hit": false,
      "t": 197707.1148750008,
      "d": 951.5740312499984,
      "v": 105
    },
    {
      "midi": 65,
      "hit": false,
      "t": 198680.46112500082,
      "d": 946.4511562499974,
      "v": 108
    },
    {
      "midi": 41,
      "hit": false,
      "t": 198680.46112500082,
      "d": 1901.8673437500256,
      "v": 105
    },
    {
      "midi": 60,
      "hit": false,
      "t": 198683.02256250082,
      "d": 946.4511562499974,
      "v": 108
    },
    {
      "midi": 68,
      "hit": false,
      "t": 198688.14543750082,
      "d": 966.9426562500012,
      "v": 106
    },
    {
      "midi": 68,
      "hit": false,
      "t": 199664.05312500082,
      "d": 928.5210937500233,
      "v": 106
    },
    {
      "midi": 59,
      "hit": false,
      "t": 199669.17600000082,
      "d": 913.1524687500205,
      "v": 109
    },
    {
      "midi": 65,
      "hit": false,
      "t": 199674.29887500082,
      "d": 913.1524687500205,
      "v": 105
    },
    {
      "midi": 53,
      "hit": false,
      "t": 200647.64512500085,
      "d": 641.6400937499711,
      "v": 107
    },
    {
      "midi": 63,
      "hit": false,
      "t": 200652.76800000085,
      "d": 549.4283437499835,
      "v": 106
    },
    {
      "midi": 46,
      "hit": false,
      "t": 200652.76800000085,
      "d": 946.4511562499683,
      "v": 107
    },
    {
      "midi": 34,
      "hit": false,
      "t": 200652.76800000085,
      "d": 1663.6536562499823,
      "v": 106
    },
    {
      "midi": 58,
      "hit": false,
      "t": 200655.32943750086,
      "d": 549.4283437499835,
      "v": 110
    },
    {
      "midi": 56,
      "hit": false,
      "t": 200655.32943750086,
      "d": 551.9897812499839,
      "v": 107
    },
    {
      "midi": 65,
      "hit": false,
      "t": 201144.56400000013,
      "d": 2455.13784375001,
      "v": 1
    },
    {
      "midi": 68,
      "hit": false,
      "t": 201144.56400000013,
      "d": 2455.13784375001,
      "v": 1
    },
    {
      "midi": 53,
      "hit": false,
      "t": 201638.92143750083,
      "d": 318.89896874999977,
      "v": 109
    },
    {
      "midi": 63,
      "hit": false,
      "t": 201638.92143750083,
      "d": 416.23359374998836,
      "v": 110
    },
    {
      "midi": 58,
      "hit": false,
      "t": 201641.48287500083,
      "d": 434.1636562499916,
      "v": 110
    },
    {
      "midi": 56,
      "hit": false,
      "t": 201641.48287500083,
      "d": 439.28653124999255,
      "v": 110
    },
    {
      "midi": 46,
      "hit": false,
      "t": 202123.03312500083,
      "d": 1376.7726562500175,
      "v": 108
    },
    {
      "midi": 53,
      "hit": false,
      "t": 202614.82912500083,
      "d": 308.6532187499979,
      "v": 108
    },
    {
      "midi": 62,
      "hit": false,
      "t": 202617.39056250083,
      "d": 500.7610312500037,
      "v": 109
    },
    {
      "midi": 58,
      "hit": false,
      "t": 202619.95200000083,
      "d": 531.4982812500093,
      "v": 109
    },
    {
      "midi": 56,
      "hit": false,
      "t": 202622.51343750083,
      "d": 541.7440312500112,
      "v": 109
    },
    {
      "midi": 34,
      "hit": false,
      "t": 202622.51343750083,
      "d": 1571.4419062499946,
      "v": 107
    },
    {
      "midi": 53,
      "hit": false,
      "t": 203109.18656250084,
      "d": 93.492468750017,
      "v": 108
    },
    {
      "midi": 53,
      "hit": false,
      "t": 203362.76887500085,
      "d": 285.6002812499937,
      "v": 100
    },
    {
      "midi": 58,
      "hit": false,
      "t": 203600.98256250084,
      "d": 160.08984375,
      "v": 110
    },
    {
      "midi": 66,
      "hit": false,
      "t": 203603.54400000014,
      "d": 979.7498437500326,
      "v": 1
    },
    {
      "midi": 70,
      "hit": false,
      "t": 203603.54400000014,
      "d": 979.7498437500326,
      "v": 1
    },
    {
      "midi": 56,
      "hit": false,
      "t": 203603.54400000084,
      "d": 178.01990625000326,
      "v": 110
    },
    {
      "midi": 62,
      "hit": false,
      "t": 203608.66687500084,
      "d": 188.26565625000512,
      "v": 111
    },
    {
      "midi": 63,
      "hit": false,
      "t": 204090.21712500084,
      "d": 19.210781250003492,
      "v": 113
    },
    {
      "midi": 65,
      "hit": false,
      "t": 204336.11512500083,
      "d": 103.73821874998976,
      "v": 114
    },
    {
      "midi": 63,
      "hit": false,
      "t": 204582.0131250008,
      "d": 526.3754062500084,
      "v": 109
    },
    {
      "midi": 51,
      "hit": false,
      "t": 204582.0131250008,
      "d": 1118.0674687499995,
      "v": 109
    },
    {
      "midi": 66,
      "hit": false,
      "t": 204584.5745625008,
      "d": 523.8139687500079,
      "v": 110
    },
    {
      "midi": 63,
      "hit": false,
      "t": 204587.13600000017,
      "d": 2701.0358437499963,
      "v": 1
    },
    {
      "midi": 66,
      "hit": false,
      "t": 204587.13600000017,
      "d": 2701.0358437499963,
      "v": 1
    },
    {
      "midi": 39,
      "hit": false,
      "t": 204587.1360000008,
      "d": 1522.774593750015,
      "v": 109
    },
    {
      "midi": 58,
      "hit": false,
      "t": 204589.6974375008,
      "d": 377.8120312500105,
      "v": 109
    },
    {
      "midi": 58,
      "hit": false,
      "t": 205081.49343750082,
      "d": 162.65128125000047,
      "v": 107
    },
    {
      "midi": 58,
      "hit": false,
      "t": 205573.28943750082,
      "d": 395.74209374998463,
      "v": 111
    },
    {
      "midi": 66,
      "hit": false,
      "t": 205575.85087500082,
      "d": 421.3564687499893,
      "v": 112
    },
    {
      "midi": 63,
      "hit": false,
      "t": 205575.85087500082,
      "d": 557.112656250014,
      "v": 112
    },
    {
      "midi": 51,
      "hit": false,
      "t": 206067.64687500082,
      "d": 65.31665625001187,
      "v": 109
    },
    {
      "midi": 65,
      "hit": false,
      "t": 206305.86056250083,
      "d": 213.88003125000978,
      "v": 111
    },
    {
      "midi": 47,
      "hit": false,
      "t": 206551.75856250085,
      "d": 1166.7347812500084,
      "v": 110
    },
    {
      "midi": 63,
      "hit": false,
      "t": 206554.32000000085,
      "d": 526.3754062500084,
      "v": 109
    },
    {
      "midi": 58,
      "hit": false,
      "t": 206556.88143750085,
      "d": 370.1277187500091,
      "v": 110
    },
    {
      "midi": 66,
      "hit": false,
      "t": 206556.88143750085,
      "d": 531.4982812500093,
      "v": 111
    },
    {
      "midi": 35,
      "hit": false,
      "t": 206556.88143750085,
      "d": 1530.4589062500163,
      "v": 111
    },
    {
      "midi": 58,
      "hit": false,
      "t": 207048.67743750085,
      "d": 180.58134375000373,
      "v": 106
    },
    {
      "midi": 61,
      "hit": false,
      "t": 207292.01400000017,
      "d": 487.9538437500014,
      "v": 1
    },
    {
      "midi": 65,
      "hit": false,
      "t": 207292.01400000017,
      "d": 487.9538437500014,
      "v": 1
    },
    {
      "midi": 63,
      "hit": false,
      "t": 207532.78912500085,
      "d": 628.832906250027,
      "v": 113
    },
    {
      "midi": 66,
      "hit": false,
      "t": 207540.47343750086,
      "d": 618.5871562500251,
      "v": 112
    },
    {
      "midi": 58,
      "hit": false,
      "t": 207540.47343750086,
      "d": 762.0276562500221,
      "v": 111
    },
    {
      "midi": 63,
      "hit": false,
      "t": 207783.81000000017,
      "d": 242.0558437499858,
      "v": 1
    },
    {
      "midi": 66,
      "hit": false,
      "t": 207783.81000000017,
      "d": 242.0558437499858,
      "v": 1
    },
    {
      "midi": 47,
      "hit": false,
      "t": 208027.14656250086,
      "d": 60.19378125001094,
      "v": 111
    },
    {
      "midi": 65,
      "hit": false,
      "t": 208029.70800000016,
      "d": 487.9538437500014,
      "v": 1
    },
    {
      "midi": 68,
      "hit": false,
      "t": 208029.70800000016,
      "d": 487.9538437500014,
      "v": 1
    },
    {
      "midi": 65,
      "hit": false,
      "t": 208273.04456250087,
      "d": 121.66828124999302,
      "v": 109
    },
    {
      "midi": 61,
      "hit": false,
      "t": 208518.94256250086,
      "d": 513.5682187500352,
      "v": 111
    },
    {
      "midi": 44,
      "hit": false,
      "t": 208518.94256250086,
      "d": 954.1354687500279,
      "v": 110
    },
    {
      "midi": 32,
      "hit": false,
      "t": 208518.94256250086,
      "d": 1666.215093750041,
      "v": 110
    },
    {
      "midi": 63,
      "hit": false,
      "t": 208521.50400000016,
      "d": 2450.014968750009,
      "v": 1
    },
    {
      "midi": 66,
      "hit": false,
      "t": 208521.50400000016,
      "d": 2450.014968750009,
      "v": 1
    },
    {
      "midi": 56,
      "hit": false,
      "t": 208521.50400000086,
      "d": 395.74209375001374,
      "v": 109
    },
    {
      "midi": 66,
      "hit": false,
      "t": 208521.50400000086,
      "d": 472.5852187500277,
      "v": 111
    },
    {
      "midi": 63,
      "hit": false,
      "t": 208524.06543750086,
      "d": 498.19959375003236,
      "v": 109
    },
    {
      "midi": 56,
      "hit": false,
      "t": 209018.4228750009,
      "d": 198.51140625000698,
      "v": 106
    },
    {
      "midi": 56,
      "hit": false,
      "t": 209499.9731250009,
      "d": 449.5322812499944,
      "v": 108
    },
    {
      "midi": 61,
      "hit": false,
      "t": 209502.5345625009,
      "d": 518.691093750007,
      "v": 109
    },
    {
      "midi": 66,
      "hit": false,
      "t": 209507.6574375009,
      "d": 426.4793437499902,
      "v": 111
    },
    {
      "midi": 63,
      "hit": false,
      "t": 209510.2188750009,
      "d": 431.60221874999115,
      "v": 109
    },
    {
      "midi": 44,
      "hit": false,
      "t": 209994.3305625009,
      "d": 1668.7765312500414,
      "v": 108
    },
    {
      "midi": 56,
      "hit": false,
      "t": 210247.9128750009,
      "d": 618.5871562500251,
      "v": 109
    },
    {
      "midi": 32,
      "hit": false,
      "t": 210483.56512500093,
      "d": 1881.3758437500219,
      "v": 110
    },
    {
      "midi": 61,
      "hit": false,
      "t": 210488.68800000093,
      "d": 598.0956562500214,
      "v": 109
    },
    {
      "midi": 68,
      "hit": false,
      "t": 210491.24943750093,
      "d": 500.7610312500037,
      "v": 108
    },
    {
      "midi": 63,
      "hit": false,
      "t": 210493.81087500093,
      "d": 546.8669062500121,
      "v": 108
    },
    {
      "midi": 56,
      "hit": false,
      "t": 210980.48400000017,
      "d": 487.9538437500014,
      "v": 1
    },
    {
      "midi": 60,
      "hit": false,
      "t": 210980.48400000017,
      "d": 487.9538437500014,
      "v": 1
    },
    {
      "midi": 56,
      "hit": false,
      "t": 210980.48400000093,
      "d": 380.37346875001094,
      "v": 106
    },
    {
      "midi": 60,
      "hit": false,
      "t": 211467.15712500093,
      "d": 669.8159062500054,
      "v": 106
    },
    {
      "midi": 56,
      "hit": false,
      "t": 211467.15712500093,
      "d": 685.1845312500081,
      "v": 107
    },
    {
      "midi": 61,
      "hit": false,
      "t": 211472.28000000017,
      "d": 487.9538437500014,
      "v": 1
    },
    {
      "midi": 65,
      "hit": false,
      "t": 211472.28000000017,
      "d": 487.9538437500014,
      "v": 1
    },
    {
      "midi": 63,
      "hit": false,
      "t": 211474.84143750093,
      "d": 664.6930312500044,
      "v": 106
    },
    {
      "midi": 68,
      "hit": false,
      "t": 211474.84143750093,
      "d": 700.5531562500109,
      "v": 105
    },
    {
      "midi": 65,
      "hit": false,
      "t": 211964.07600000018,
      "d": 4422.321843749989,
      "v": 1
    },
    {
      "midi": 68,
      "hit": false,
      "t": 211964.07600000018,
      "d": 4422.321843749989,
      "v": 1
    },
    {
      "midi": 44,
      "hit": false,
      "t": 211969.19887500093,
      "d": 434.1636562500207,
      "v": 104
    },
    {
      "midi": 56,
      "hit": false,
      "t": 212450.74912500096,
      "d": 667.2544687499758,
      "v": 108
    },
    {
      "midi": 65,
      "hit": false,
      "t": 212453.31056250096,
      "d": 569.9198437499872,
      "v": 109
    },
    {
      "midi": 49,
      "hit": false,
      "t": 212453.31056250096,
      "d": 1574.003343749995,
      "v": 109
    },
    {
      "midi": 61,
      "hit": false,
      "t": 212455.87200000096,
      "d": 521.2525312499783,
      "v": 111
    },
    {
      "midi": 37,
      "hit": false,
      "t": 212455.87200000096,
      "d": 1187.226281249983,
      "v": 110
    },
    {
      "midi": 61,
      "hit": false,
      "t": 213439.46400000094,
      "d": 508.4453437500051,
      "v": 110
    },
    {
      "midi": 65,
      "hit": false,
      "t": 213439.46400000094,
      "d": 523.8139687500079,
      "v": 109
    },
    {
      "midi": 56,
      "hit": false,
      "t": 213439.46400000094,
      "d": 549.4283437500126,
      "v": 109
    },
    {
      "midi": 35,
      "hit": false,
      "t": 214420.49456250097,
      "d": 1594.494843750028,
      "v": 108
    },
    {
      "midi": 56,
      "hit": false,
      "t": 214425.61743750097,
      "d": 367.5662812500086,
      "v": 107
    },
    {
      "midi": 59,
      "hit": false,
      "t": 214425.61743750097,
      "d": 628.8329062499979,
      "v": 110
    },
    {
      "midi": 63,
      "hit": false,
      "t": 214428.17887500097,
      "d": 534.0597187500098,
      "v": 109
    },
    {
      "midi": 47,
      "hit": false,
      "t": 214428.17887500097,
      "d": 1210.2792187500163,
      "v": 108
    },
    {
      "midi": 56,
      "hit": false,
      "t": 214914.85200000097,
      "d": 160.08984375,
      "v": 104
    },
    {
      "midi": 59,
      "hit": false,
      "t": 215401.52512500098,
      "d": 487.9538437500305,
      "v": 110
    },
    {
      "midi": 56,
      "hit": false,
      "t": 215406.64800000098,
      "d": 480.2695312500291,
      "v": 110
    },
    {
      "midi": 63,
      "hit": false,
      "t": 215409.20943750098,
      "d": 459.7780312500254,
      "v": 107
    },
    {
      "midi": 47,
      "hit": false,
      "t": 215895.882562501,
      "d": 113.98396874999162,
      "v": 107
    },
    {
      "midi": 56,
      "hit": false,
      "t": 216387.678562501,
      "d": 490.51528124997276,
      "v": 106
    },
    {
      "midi": 34,
      "hit": false,
      "t": 216387.678562501,
      "d": 1607.302031249972,
      "v": 107
    },
    {
      "midi": 63,
      "hit": false,
      "t": 216390.24000000017,
      "d": 242.0558437499858,
      "v": 1
    },
    {
      "midi": 66,
      "hit": false,
      "t": 216390.24000000017,
      "d": 242.0558437499858,
      "v": 1
    },
    {
      "midi": 46,
      "hit": false,
      "t": 216392.801437501,
      "d": 1123.1903437499714,
      "v": 107
    },
    {
      "midi": 58,
      "hit": false,
      "t": 216395.362875001,
      "d": 395.74209374998463,
      "v": 108
    },
    {
      "midi": 63,
      "hit": false,
      "t": 216395.362875001,
      "d": 628.8329062499688,
      "v": 109
    },
    {
      "midi": 62,
      "hit": false,
      "t": 216636.13800000015,
      "d": 242.0558437499858,
      "v": 1
    },
    {
      "midi": 65,
      "hit": false,
      "t": 216636.13800000015,
      "d": 242.0558437499858,
      "v": 1
    },
    {
      "midi": 63,
      "hit": false,
      "t": 216882.03600000014,
      "d": 242.0558437499858,
      "v": 1
    },
    {
      "midi": 66,
      "hit": false,
      "t": 216882.03600000014,
      "d": 242.0558437499858,
      "v": 1
    },
    {
      "midi": 56,
      "hit": false,
      "t": 216884.59743750098,
      "d": 175.4584687500028,
      "v": 106
    },
    {
      "midi": 62,
      "hit": false,
      "t": 217127.93400000012,
      "d": 242.0558437499858,
      "v": 1
    },
    {
      "midi": 65,
      "hit": false,
      "t": 217127.93400000012,
      "d": 242.0558437499858,
      "v": 1
    },
    {
      "midi": 56,
      "hit": false,
      "t": 217371.27056250098,
      "d": 498.19959375000326,
      "v": 110
    },
    {
      "midi": 63,
      "hit": false,
      "t": 217373.8320000001,
      "d": 487.9538437500014,
      "v": 1
    },
    {
      "midi": 66,
      "hit": false,
      "t": 217373.8320000001,
      "d": 487.9538437500014,
      "v": 1
    },
    {
      "midi": 58,
      "hit": false,
      "t": 217378.95487500099,
      "d": 485.39240625000093,
      "v": 110
    },
    {
      "midi": 63,
      "hit": false,
      "t": 217378.95487500099,
      "d": 485.39240625000093,
      "v": 110
    },
    {
      "midi": 65,
      "hit": false,
      "t": 217865.6280000001,
      "d": 487.9538437500014,
      "v": 1
    },
    {
      "midi": 68,
      "hit": false,
      "t": 217865.6280000001,
      "d": 487.9538437500014,
      "v": 1
    },
    {
      "midi": 46,
      "hit": false,
      "t": 217865.628000001,
      "d": 2327.0659687500156,
      "v": 107
    },
    {
      "midi": 62,
      "hit": false,
      "t": 218354.862562501,
      "d": 841.4322187500075,
      "v": 109
    },
    {
      "midi": 62,
      "hit": false,
      "t": 218357.42400000012,
      "d": 979.7498437500035,
      "v": 1
    },
    {
      "midi": 65,
      "hit": false,
      "t": 218357.42400000012,
      "d": 979.7498437500035,
      "v": 1
    },
    {
      "midi": 58,
      "hit": false,
      "t": 218359.985437501,
      "d": 828.6250312500051,
      "v": 108
    },
    {
      "midi": 34,
      "hit": false,
      "t": 218359.985437501,
      "d": 1889.0601562500233,
      "v": 106
    },
    {
      "midi": 56,
      "hit": false,
      "t": 218362.546875001,
      "d": 846.5550937500084,
      "v": 107
    },
    {
      "midi": 56,
      "hit": false,
      "t": 219335.893125001,
      "d": 936.2054062500247,
      "v": 107
    },
    {
      "midi": 62,
      "hit": false,
      "t": 219338.454562501,
      "d": 951.5740312500275,
      "v": 110
    },
    {
      "midi": 63,
      "hit": false,
      "t": 219341.01600000012,
      "d": 487.9538437500014,
      "v": 1
    },
    {
      "midi": 66,
      "hit": false,
      "t": 219341.01600000012,
      "d": 487.9538437500014,
      "v": 1
    },
    {
      "midi": 58,
      "hit": false,
      "t": 219346.138875001,
      "d": 918.2753437500214,
      "v": 107
    },
    {
      "midi": 63,
      "hit": false,
      "t": 219830.250562501,
      "d": 231.81009375001304,
      "v": 112
    },
    {
      "midi": 65,
      "hit": false,
      "t": 219832.81200000012,
      "d": 487.9538437500014,
      "v": 1
    },
    {
      "midi": 68,
      "hit": false,
      "t": 219832.81200000012,
      "d": 487.9538437500014,
      "v": 1
    },
    {
      "midi": 65,
      "hit": false,
      "t": 220081.271437501,
      "d": 229.24865625001257,
      "v": 114
    },
    {
      "midi": 63,
      "hit": false,
      "t": 220319.48512500103,
      "d": 511.0067812499765,
      "v": 110
    },
    {
      "midi": 39,
      "hit": false,
      "t": 220322.04656250103,
      "d": 1087.3302187499648,
      "v": 109
    },
    {
      "midi": 66,
      "hit": false,
      "t": 220324.60800000012,
      "d": 4176.423843750003,
      "v": 1
    },
    {
      "midi": 70,
      "hit": false,
      "t": 220324.60800000012,
      "d": 4176.423843750003,
      "v": 1
    },
    {
      "midi": 58,
      "hit": false,
      "t": 220327.16943750103,
      "d": 382.9349062499823,
      "v": 108
    },
    {
      "midi": 66,
      "hit": false,
      "t": 220327.16943750103,
      "d": 464.9009062499681,
      "v": 112
    },
    {
      "midi": 51,
      "hit": false,
      "t": 220329.73087500103,
      "d": 1095.0145312499662,
      "v": 108
    },
    {
      "midi": 58,
      "hit": false,
      "t": 220813.842562501,
      "d": 147.28265624999767,
      "v": 107
    },
    {
      "midi": 58,
      "hit": false,
      "t": 221303.077125001,
      "d": 472.5852187499986,
      "v": 109
    },
    {
      "midi": 63,
      "hit": false,
      "t": 221303.077125001,
      "d": 534.0597187500098,
      "v": 111
    },
    {
      "midi": 66,
      "hit": false,
      "t": 221310.761437501,
      "d": 408.54928124998696,
      "v": 113
    },
    {
      "midi": 39,
      "hit": false,
      "t": 221797.434562501,
      "d": 162.65128125000047,
      "v": 107
    },
    {
      "midi": 51,
      "hit": false,
      "t": 221799.996000001,
      "d": 147.28265624999767,
      "v": 106
    },
    {
      "midi": 66,
      "hit": false,
      "t": 222286.669125001,
      "d": 692.8688437499513,
      "v": 111
    },
    {
      "midi": 51,
      "hit": false,
      "t": 222286.669125001,
      "d": 1159.0504687499779,
      "v": 110
    },
    {
      "midi": 62,
      "hit": false,
      "t": 222291.792000001,
      "d": 582.7270312499604,
      "v": 111
    },
    {
      "midi": 39,
      "hit": false,
      "t": 222294.353437501,
      "d": 1666.2150937499537,
      "v": 110
    },
    {
      "midi": 58,
      "hit": false,
      "t": 222296.914875001,
      "d": 341.95190624997485,
      "v": 109
    },
    {
      "midi": 58,
      "hit": false,
      "t": 222788.71087500098,
      "d": 267.67021874999045,
      "v": 104
    },
    {
      "midi": 58,
      "hit": false,
      "t": 223270.26112500098,
      "d": 480.26953125,
      "v": 109
    },
    {
      "midi": 66,
      "hit": false,
      "t": 223270.26112500098,
      "d": 495.6381562500028,
      "v": 111
    },
    {
      "midi": 62,
      "hit": false,
      "t": 223272.82256250098,
      "d": 485.39240625000093,
      "v": 111
    },
    {
      "midi": 51,
      "hit": false,
      "t": 223762.05712500098,
      "d": 111.42253124999115,
      "v": 109
    },
    {
      "midi": 61,
      "hit": false,
      "t": 224253.85312500095,
      "d": 562.2355312500149,
      "v": 111
    },
    {
      "midi": 66,
      "hit": false,
      "t": 224253.85312500095,
      "d": 562.2355312500149,
      "v": 111
    },
    {
      "midi": 37,
      "hit": false,
      "t": 224261.53743750096,
      "d": 1036.1014687500137,
      "v": 110
    },
    {
      "midi": 49,
      "hit": false,
      "t": 224261.53743750096,
      "d": 1448.4929062500305,
      "v": 109
    },
    {
      "midi": 58,
      "hit": false,
      "t": 224264.09887500096,
      "d": 336.829031250003,
      "v": 109
    },
    {
      "midi": 65,
      "hit": false,
      "t": 224504.87400000013,
      "d": 487.9538437500014,
      "v": 1
    },
    {
      "midi": 68,
      "hit": false,
      "t": 224504.87400000013,
      "d": 487.9538437500014,
      "v": 1
    },
    {
      "midi": 58,
      "hit": false,
      "t": 224745.64912500096,
      "d": 160.08984375,
      "v": 104
    },
    {
      "midi": 63,
      "hit": false,
      "t": 224996.67000000013,
      "d": 242.0558437499858,
      "v": 1
    },
    {
      "midi": 66,
      "hit": false,
      "t": 224996.67000000013,
      "d": 242.0558437499858,
      "v": 1
    },
    {
      "midi": 61,
      "hit": false,
      "t": 225242.56800000012,
      "d": 487.9538437500014,
      "v": 1
    },
    {
      "midi": 65,
      "hit": false,
      "t": 225242.56800000012,
      "d": 487.9538437500014,
      "v": 1
    },
    {
      "midi": 61,
      "hit": false,
      "t": 225242.56800000096,
      "d": 426.4793437500193,
      "v": 109
    },
    {
      "midi": 58,
      "hit": false,
      "t": 225242.56800000096,
      "d": 446.97084375002305,
      "v": 108
    },
    {
      "midi": 66,
      "hit": false,
      "t": 225245.12943750096,
      "d": 426.4793437500193,
      "v": 111
    },
    {
      "midi": 37,
      "hit": false,
      "t": 225731.802562501,
      "d": 85.8081562499865,
      "v": 110
    },
    {
      "midi": 65,
      "hit": false,
      "t": 225734.36400000012,
      "d": 487.9538437500014,
      "v": 1
    },
    {
      "midi": 68,
      "hit": false,
      "t": 225734.36400000012,
      "d": 487.9538437500014,
      "v": 1
    },
    {
      "midi": 56,
      "hit": false,
      "t": 226221.03712500096,
      "d": 557.112656250014,
      "v": 108
    },
    {
      "midi": 63,
      "hit": false,
      "t": 226226.16000000012,
      "d": 979.7498437500035,
      "v": 1
    },
    {
      "midi": 66,
      "hit": false,
      "t": 226226.16000000012,
      "d": 979.7498437500035,
      "v": 1
    },
    {
      "midi": 63,
      "hit": false,
      "t": 226226.16000000096,
      "d": 557.112656250014,
      "v": 107
    },
    {
      "midi": 44,
      "hit": false,
      "t": 226226.16000000096,
      "d": 964.3812187500298,
      "v": 108
    },
    {
      "midi": 60,
      "hit": false,
      "t": 226231.28287500096,
      "d": 603.2185312500224,
      "v": 108
    },
    {
      "midi": 32,
      "hit": false,
      "t": 226231.28287500096,
      "d": 987.434156250034,
      "v": 109
    },
    {
      "midi": 60,
      "hit": false,
      "t": 227204.629125001,
      "d": 405.9878437499865,
      "v": 109
    },
    {
      "midi": 65,
      "hit": false,
      "t": 227209.75200000012,
      "d": 487.9538437500014,
      "v": 1
    },
    {
      "midi": 68,
      "hit": false,
      "t": 227209.75200000012,
      "d": 487.9538437500014,
      "v": 1
    },
    {
      "midi": 56,
      "hit": false,
      "t": 227209.752000001,
      "d": 408.54928124998696,
      "v": 109
    },
    {
      "midi": 42,
      "hit": false,
      "t": 227212.313437501,
      "d": 964.3812187500007,
      "v": 108
    },
    {
      "midi": 63,
      "hit": false,
      "t": 227214.874875001,
      "d": 429.0407812499907,
      "v": 112
    },
    {
      "midi": 66,
      "hit": false,
      "t": 227701.54800000013,
      "d": 487.9538437500014,
      "v": 1
    },
    {
      "midi": 70,
      "hit": false,
      "t": 227701.54800000013,
      "d": 487.9538437500014,
      "v": 1
    },
    {
      "midi": 70,
      "hit": false,
      "t": 227701.548000001,
      "d": 55.07090625001001,
      "v": 110
    },
    {
      "midi": 65,
      "hit": false,
      "t": 228188.221125001,
      "d": 920.8367812499928,
      "v": 109
    },
    {
      "midi": 41,
      "hit": false,
      "t": 228188.221125001,
      "d": 1612.424906250002,
      "v": 107
    },
    {
      "midi": 68,
      "hit": false,
      "t": 228193.34400000013,
      "d": 4422.321843749989,
      "v": 1
    },
    {
      "midi": 72,
      "hit": false,
      "t": 228193.34400000013,
      "d": 4422.321843749989,
      "v": 1
    },
    {
      "midi": 56,
      "hit": false,
      "t": 228193.344000001,
      "d": 920.8367812499928,
      "v": 107
    },
    {
      "midi": 63,
      "hit": false,
      "t": 228195.905437501,
      "d": 920.8367812499928,
      "v": 109
    },
    {
      "midi": 68,
      "hit": false,
      "t": 228198.466875001,
      "d": 920.8367812499928,
      "v": 107
    },
    {
      "midi": 61,
      "hit": false,
      "t": 229176.936000001,
      "d": 951.5740312499984,
      "v": 110
    },
    {
      "midi": 65,
      "hit": false,
      "t": 229179.497437501,
      "d": 951.5740312499984,
      "v": 104
    },
    {
      "midi": 68,
      "hit": false,
      "t": 229179.497437501,
      "d": 951.5740312499984,
      "v": 105
    },
    {
      "midi": 65,
      "hit": false,
      "t": 230155.405125001,
      "d": 946.4511562499974,
      "v": 108
    },
    {
      "midi": 60,
      "hit": false,
      "t": 230157.966562501,
      "d": 946.4511562499974,
      "v": 108
    },
    {
      "midi": 68,
      "hit": false,
      "t": 230165.650875001,
      "d": 969.5040937500016,
      "v": 106
    },
    {
      "midi": 41,
      "hit": false,
      "t": 230165.650875001,
      "d": 1901.8673437500256,
      "v": 105
    },
    {
      "midi": 59,
      "hit": false,
      "t": 231141.558562501,
      "d": 913.1524687500205,
      "v": 109
    },
    {
      "midi": 65,
      "hit": false,
      "t": 231141.558562501,
      "d": 913.1524687500205,
      "v": 105
    },
    {
      "midi": 68,
      "hit": false,
      "t": 231144.120000001,
      "d": 928.5210937500233,
      "v": 106
    },
    {
      "midi": 53,
      "hit": false,
      "t": 232122.58912500105,
      "d": 641.6400937500002,
      "v": 107
    },
    {
      "midi": 58,
      "hit": false,
      "t": 232125.15056250105,
      "d": 549.4283437500126,
      "v": 110
    },
    {
      "midi": 46,
      "hit": false,
      "t": 232125.15056250105,
      "d": 946.4511562499974,
      "v": 107
    },
    {
      "midi": 34,
      "hit": false,
      "t": 232125.15056250105,
      "d": 1663.6536562500114,
      "v": 106
    },
    {
      "midi": 56,
      "hit": false,
      "t": 232127.71200000105,
      "d": 551.989781250013,
      "v": 107
    },
    {
      "midi": 63,
      "hit": false,
      "t": 232132.83487500105,
      "d": 549.4283437500126,
      "v": 106
    },
    {
      "midi": 65,
      "hit": false,
      "t": 232619.50800000012,
      "d": 2455.13784375001,
      "v": 1
    },
    {
      "midi": 68,
      "hit": false,
      "t": 232619.50800000012,
      "d": 2455.13784375001,
      "v": 1
    },
    {
      "midi": 58,
      "hit": false,
      "t": 233111.30400000105,
      "d": 434.1636562499916,
      "v": 110
    },
    {
      "midi": 53,
      "hit": false,
      "t": 233113.86543750105,
      "d": 318.89896874999977,
      "v": 109
    },
    {
      "midi": 56,
      "hit": false,
      "t": 233113.86543750105,
      "d": 439.28653124999255,
      "v": 110
    },
    {
      "midi": 63,
      "hit": false,
      "t": 233116.42687500105,
      "d": 416.23359374998836,
      "v": 110
    },
    {
      "midi": 46,
      "hit": false,
      "t": 233605.66143750105,
      "d": 1376.7726562500175,
      "v": 108
    },
    {
      "midi": 53,
      "hit": false,
      "t": 234092.33456250106,
      "d": 308.6532187499979,
      "v": 108
    },
    {
      "midi": 58,
      "hit": false,
      "t": 234092.33456250106,
      "d": 531.4982812500093,
      "v": 109
    },
    {
      "midi": 56,
      "hit": false,
      "t": 234097.45743750106,
      "d": 541.7440312500112,
      "v": 109
    },
    {
      "midi": 34,
      "hit": false,
      "t": 234097.45743750106,
      "d": 1571.4419062500237,
      "v": 107
    },
    {
      "midi": 62,
      "hit": false,
      "t": 234100.01887500106,
      "d": 500.7610312500037,
      "v": 109
    },
    {
      "midi": 53,
      "hit": false,
      "t": 234581.56912500106,
      "d": 93.492468750017,
      "v": 108
    },
    {
      "midi": 53,
      "hit": false,
      "t": 234832.59000000107,
      "d": 285.6002812499937,
      "v": 100
    },
    {
      "midi": 56,
      "hit": false,
      "t": 235073.36512500106,
      "d": 178.01990625000326,
      "v": 110
    },
    {
      "midi": 62,
      "hit": false,
      "t": 235075.92656250106,
      "d": 188.26565625000512,
      "v": 111
    },
    {
      "midi": 66,
      "hit": false,
      "t": 235078.48800000013,
      "d": 979.7498437500326,
      "v": 1
    },
    {
      "midi": 70,
      "hit": false,
      "t": 235078.48800000013,
      "d": 979.7498437500326,
      "v": 1
    },
    {
      "midi": 58,
      "hit": false,
      "t": 235081.04943750106,
      "d": 160.08984375,
      "v": 110
    },
    {
      "midi": 63,
      "hit": false,
      "t": 235572.84543750106,
      "d": 19.210781250003492,
      "v": 113
    },
    {
      "midi": 65,
      "hit": false,
      "t": 235816.18200000108,
      "d": 103.73821874998976,
      "v": 114
    },
    {
      "midi": 66,
      "hit": false,
      "t": 236056.95712500106,
      "d": 523.8139687500079,
      "v": 110
    },
    {
      "midi": 63,
      "hit": false,
      "t": 236056.95712500106,
      "d": 526.3754062500084,
      "v": 109
    },
    {
      "midi": 51,
      "hit": false,
      "t": 236056.95712500106,
      "d": 1118.0674687499995,
      "v": 109
    },
    {
      "midi": 63,
      "hit": false,
      "t": 236062.08000000016,
      "d": 2701.0358437499963,
      "v": 1
    },
    {
      "midi": 66,
      "hit": false,
      "t": 236062.08000000016,
      "d": 2701.0358437499963,
      "v": 1
    },
    {
      "midi": 58,
      "hit": false,
      "t": 236067.20287500106,
      "d": 377.8120312500105,
      "v": 109
    },
    {
      "midi": 39,
      "hit": false,
      "t": 236067.20287500106,
      "d": 1522.774593750015,
      "v": 109
    },
    {
      "midi": 58,
      "hit": false,
      "t": 236553.87600000107,
      "d": 162.65128125000047,
      "v": 107
    },
    {
      "midi": 58,
      "hit": false,
      "t": 237043.11056250107,
      "d": 395.74209374998463,
      "v": 111
    },
    {
      "midi": 63,
      "hit": false,
      "t": 237043.11056250107,
      "d": 557.112656250014,
      "v": 112
    },
    {
      "midi": 66,
      "hit": false,
      "t": 237045.67200000107,
      "d": 421.3564687499893,
      "v": 112
    },
    {
      "midi": 51,
      "hit": false,
      "t": 237542.59087500107,
      "d": 65.31665625001187,
      "v": 109
    },
    {
      "midi": 65,
      "hit": false,
      "t": 237785.9274375011,
      "d": 213.88003125000978,
      "v": 111
    },
    {
      "midi": 63,
      "hit": false,
      "t": 238024.1411250011,
      "d": 526.3754062500084,
      "v": 109
    },
    {
      "midi": 47,
      "hit": false,
      "t": 238024.1411250011,
      "d": 1166.7347812500084,
      "v": 110
    },
    {
      "midi": 58,
      "hit": false,
      "t": 238031.8254375011,
      "d": 370.1277187500091,
      "v": 110
    },
    {
      "midi": 66,
      "hit": false,
      "t": 238034.3868750011,
      "d": 531.4982812500093,
      "v": 111
    },
    {
      "midi": 35,
      "hit": false,
      "t": 238034.3868750011,
      "d": 1530.4589062500163,
      "v": 111
    },
    {
      "midi": 58,
      "hit": false,
      "t": 238518.4985625011,
      "d": 180.58134375000373,
      "v": 106
    },
    {
      "midi": 61,
      "hit": false,
      "t": 238766.95800000016,
      "d": 487.9538437500014,
      "v": 1
    },
    {
      "midi": 65,
      "hit": false,
      "t": 238766.95800000016,
      "d": 487.9538437500014,
      "v": 1
    },
    {
      "midi": 58,
      "hit": false,
      "t": 239010.2945625011,
      "d": 762.0276562500221,
      "v": 111
    },
    {
      "midi": 63,
      "hit": false,
      "t": 239012.8560000011,
      "d": 628.832906250027,
      "v": 113
    },
    {
      "midi": 66,
      "hit": false,
      "t": 239015.4174375011,
      "d": 618.5871562500251,
      "v": 112
    },
    {
      "midi": 63,
      "hit": false,
      "t": 239258.75400000016,
      "d": 242.0558437499858,
      "v": 1
    },
    {
      "midi": 66,
      "hit": false,
      "t": 239258.75400000016,
      "d": 242.0558437499858,
      "v": 1
    },
    {
      "midi": 47,
      "hit": false,
      "t": 239502.0905625011,
      "d": 60.19378125001094,
      "v": 111
    },
    {
      "midi": 65,
      "hit": false,
      "t": 239504.65200000015,
      "d": 487.9538437500014,
      "v": 1
    },
    {
      "midi": 68,
      "hit": false,
      "t": 239504.65200000015,
      "d": 487.9538437500014,
      "v": 1
    },
    {
      "midi": 65,
      "hit": false,
      "t": 239753.11143750112,
      "d": 121.66828124999302,
      "v": 109
    },
    {
      "midi": 56,
      "hit": false,
      "t": 239993.8865625011,
      "d": 395.74209375001374,
      "v": 109
    },
    {
      "midi": 32,
      "hit": false,
      "t": 239993.8865625011,
      "d": 1666.2150937500119,
      "v": 110
    },
    {
      "midi": 63,
      "hit": false,
      "t": 239996.44800000015,
      "d": 2450.014968750009,
      "v": 1
    },
    {
      "midi": 66,
      "hit": false,
      "t": 239996.44800000015,
      "d": 2450.014968750009,
      "v": 1
    },
    {
      "midi": 61,
      "hit": false,
      "t": 239996.4480000011,
      "d": 513.568218750006,
      "v": 111
    },
    {
      "midi": 44,
      "hit": false,
      "t": 239999.0094375011,
      "d": 954.1354687499988,
      "v": 110
    },
    {
      "midi": 66,
      "hit": false,
      "t": 240001.5708750011,
      "d": 472.5852187499986,
      "v": 111
    },
    {
      "midi": 63,
      "hit": false,
      "t": 240001.5708750011,
      "d": 498.19959375000326,
      "v": 109
    },
    {
      "midi": 56,
      "hit": false,
      "t": 240493.3668750011,
      "d": 198.51140625000698,
      "v": 106
    },
    {
      "midi": 63,
      "hit": false,
      "t": 240974.9171250011,
      "d": 431.60221874999115,
      "v": 109
    },
    {
      "midi": 56,
      "hit": false,
      "t": 240977.4785625011,
      "d": 449.5322812499944,
      "v": 108
    },
    {
      "midi": 66,
      "hit": false,
      "t": 240982.60143750111,
      "d": 426.4793437499902,
      "v": 111
    },
    {
      "midi": 61,
      "hit": false,
      "t": 240985.16287500112,
      "d": 518.691093750007,
      "v": 109
    },
    {
      "midi": 44,
      "hit": false,
      "t": 241476.95887500112,
      "d": 1668.7765312500123,
      "v": 108
    },
    {
      "midi": 56,
      "hit": false,
      "t": 241717.73400000113,
      "d": 618.587156249996,
      "v": 109
    },
    {
      "midi": 61,
      "hit": false,
      "t": 241958.50912500112,
      "d": 598.0956562500214,
      "v": 109
    },
    {
      "midi": 32,
      "hit": false,
      "t": 241963.63200000112,
      "d": 1881.3758437500219,
      "v": 110
    },
    {
      "midi": 63,
      "hit": false,
      "t": 241966.19343750112,
      "d": 546.8669062500121,
      "v": 108
    },
    {
      "midi": 68,
      "hit": false,
      "t": 241968.75487500112,
      "d": 500.7610312500037,
      "v": 108
    },
    {
      "midi": 56,
      "hit": false,
      "t": 242455.42800000016,
      "d": 487.9538437500014,
      "v": 1
    },
    {
      "midi": 60,
      "hit": false,
      "t": 242455.42800000016,
      "d": 487.9538437500014,
      "v": 1
    },
    {
      "midi": 56,
      "hit": false,
      "t": 242460.55087500112,
      "d": 380.37346875001094,
      "v": 106
    },
    {
      "midi": 68,
      "hit": false,
      "t": 242944.66256250112,
      "d": 700.5531562500109,
      "v": 105
    },
    {
      "midi": 61,
      "hit": false,
      "t": 242947.22400000016,
      "d": 487.9538437500014,
      "v": 1
    },
    {
      "midi": 65,
      "hit": false,
      "t": 242947.22400000016,
      "d": 487.9538437500014,
      "v": 1
    },
    {
      "midi": 63,
      "hit": false,
      "t": 242952.34687500112,
      "d": 664.6930312500044,
      "v": 106
    },
    {
      "midi": 60,
      "hit": false,
      "t": 242952.34687500112,
      "d": 669.8159062500054,
      "v": 106
    },
    {
      "midi": 56,
      "hit": false,
      "t": 242952.34687500112,
      "d": 685.1845312500081,
      "v": 107
    },
    {
      "midi": 44,
      "hit": false,
      "t": 243433.89712500112,
      "d": 434.1636562500207,
      "v": 104
    },
    {
      "midi": 65,
      "hit": false,
      "t": 243439.02000000016,
      "d": 4422.321843749989,
      "v": 1
    },
    {
      "midi": 68,
      "hit": false,
      "t": 243439.02000000016,
      "d": 4422.321843749989,
      "v": 1
    },
    {
      "midi": 61,
      "hit": false,
      "t": 243928.25456250116,
      "d": 521.2525312499783,
      "v": 111
    },
    {
      "midi": 65,
      "hit": false,
      "t": 243928.25456250116,
      "d": 569.9198437499872,
      "v": 109
    },
    {
      "midi": 56,
      "hit": false,
      "t": 243930.81600000116,
      "d": 667.2544687499758,
      "v": 108
    },
    {
      "midi": 37,
      "hit": false,
      "t": 243930.81600000116,
      "d": 1187.226281249983,
      "v": 110
    },
    {
      "midi": 49,
      "hit": false,
      "t": 243935.93887500116,
      "d": 1574.003343749995,
      "v": 109
    },
    {
      "midi": 65,
      "hit": false,
      "t": 244914.40800000113,
      "d": 523.8139687500079,
      "v": 109
    },
    {
      "midi": 56,
      "hit": false,
      "t": 244914.40800000113,
      "d": 549.4283437500126,
      "v": 109
    },
    {
      "midi": 61,
      "hit": false,
      "t": 244916.96943750113,
      "d": 508.4453437500051,
      "v": 110
    },
    {
      "midi": 63,
      "hit": false,
      "t": 245892.87712500116,
      "d": 534.0597187500098,
      "v": 109
    },
    {
      "midi": 59,
      "hit": false,
      "t": 245892.87712500116,
      "d": 628.8329062499979,
      "v": 110
    },
    {
      "midi": 47,
      "hit": false,
      "t": 245892.87712500116,
      "d": 1210.2792187500163,
      "v": 108
    },
    {
      "midi": 56,
      "hit": false,
      "t": 245900.56143750116,
      "d": 367.5662812500086,
      "v": 107
    },
    {
      "midi": 35,
      "hit": false,
      "t": 245903.12287500117,
      "d": 1594.4948437499988,
      "v": 108
    },
    {
      "midi": 56,
      "hit": false,
      "t": 246392.35743750117,
      "d": 160.08984375,
      "v": 104
    },
    {
      "midi": 59,
      "hit": false,
      "t": 246876.46912500117,
      "d": 487.9538437500014,
      "v": 110
    },
    {
      "midi": 56,
      "hit": false,
      "t": 246881.59200000117,
      "d": 480.26953125,
      "v": 110
    },
    {
      "midi": 63,
      "hit": false,
      "t": 246884.15343750117,
      "d": 459.7780312499963,
      "v": 107
    },
    {
      "midi": 47,
      "hit": false,
      "t": 247378.51087500117,
      "d": 113.98396874999162,
      "v": 107
    },
    {
      "midi": 63,
      "hit": false,
      "t": 247860.06112500117,
      "d": 628.8329062499688,
      "v": 109
    },
    {
      "midi": 58,
      "hit": false,
      "t": 247862.62256250117,
      "d": 395.74209374998463,
      "v": 108
    },
    {
      "midi": 56,
      "hit": false,
      "t": 247862.62256250117,
      "d": 482.83096874997136,
      "v": 106
    },
    {
      "midi": 34,
      "hit": false,
      "t": 247862.62256250117,
      "d": 1607.302031249972,
      "v": 107
    },
    {
      "midi": 63,
      "hit": false,
      "t": 247865.18400000015,
      "d": 242.0558437499858,
      "v": 1
    },
    {
      "midi": 66,
      "hit": false,
      "t": 247865.18400000015,
      "d": 242.0558437499858,
      "v": 1
    },
    {
      "midi": 46,
      "hit": false,
      "t": 247870.30687500117,
      "d": 1123.1903437499714,
      "v": 107
    },
    {
      "midi": 62,
      "hit": false,
      "t": 248111.08200000014,
      "d": 242.0558437499858,
      "v": 1
    },
    {
      "midi": 65,
      "hit": false,
      "t": 248111.08200000014,
      "d": 242.0558437499858,
      "v": 1
    },
    {
      "midi": 56,
      "hit": false,
      "t": 248351.85712500114,
      "d": 175.4584687500028,
      "v": 106
    },
    {
      "midi": 63,
      "hit": false,
      "t": 248356.98000000013,
      "d": 242.0558437499858,
      "v": 1
    },
    {
      "midi": 66,
      "hit": false,
      "t": 248356.98000000013,
      "d": 242.0558437499858,
      "v": 1
    },
    {
      "midi": 62,
      "hit": false,
      "t": 248602.8780000001,
      "d": 242.0558437499858,
      "v": 1
    },
    {
      "midi": 65,
      "hit": false,
      "t": 248602.8780000001,
      "d": 242.0558437499858,
      "v": 1
    },
    {
      "midi": 63,
      "hit": false,
      "t": 248843.65312500115,
      "d": 485.39240625000093,
      "v": 110
    },
    {
      "midi": 63,
      "hit": false,
      "t": 248848.7760000001,
      "d": 487.9538437500014,
      "v": 1
    },
    {
      "midi": 66,
      "hit": false,
      "t": 248848.7760000001,
      "d": 487.9538437500014,
      "v": 1
    },
    {
      "midi": 58,
      "hit": false,
      "t": 248851.33743750115,
      "d": 485.39240625000093,
      "v": 110
    },
    {
      "midi": 56,
      "hit": false,
      "t": 248853.89887500115,
      "d": 498.19959375000326,
      "v": 110
    },
    {
      "midi": 65,
      "hit": false,
      "t": 249340.5720000001,
      "d": 487.9538437500014,
      "v": 1
    },
    {
      "midi": 68,
      "hit": false,
      "t": 249340.5720000001,
      "d": 487.9538437500014,
      "v": 1
    },
    {
      "midi": 46,
      "hit": false,
      "t": 249340.57200000115,
      "d": 2327.0659687500156,
      "v": 107
    },
    {
      "midi": 56,
      "hit": false,
      "t": 249829.80656250115,
      "d": 846.5550937500084,
      "v": 107
    },
    {
      "midi": 62,
      "hit": false,
      "t": 249832.3680000001,
      "d": 979.7498437500035,
      "v": 1
    },
    {
      "midi": 65,
      "hit": false,
      "t": 249832.3680000001,
      "d": 979.7498437500035,
      "v": 1
    },
    {
      "midi": 62,
      "hit": false,
      "t": 249832.36800000115,
      "d": 841.4322187500075,
      "v": 109
    },
    {
      "midi": 34,
      "hit": false,
      "t": 249834.92943750115,
      "d": 1889.0601562500233,
      "v": 106
    },
    {
      "midi": 58,
      "hit": false,
      "t": 249837.49087500115,
      "d": 828.6250312500051,
      "v": 108
    },
    {
      "midi": 56,
      "hit": false,
      "t": 250813.39856250116,
      "d": 936.2054062500247,
      "v": 107
    },
    {
      "midi": 63,
      "hit": false,
      "t": 250815.9600000001,
      "d": 487.9538437500014,
      "v": 1
    },
    {
      "midi": 66,
      "hit": false,
      "t": 250815.9600000001,
      "d": 487.9538437500014,
      "v": 1
    },
    {
      "midi": 62,
      "hit": false,
      "t": 250815.96000000116,
      "d": 951.5740312500275,
      "v": 110
    },
    {
      "midi": 58,
      "hit": false,
      "t": 250818.52143750116,
      "d": 918.2753437500214,
      "v": 107
    },
    {
      "midi": 65,
      "hit": false,
      "t": 251307.7560000001,
      "d": 487.9538437500014,
      "v": 1
    },
    {
      "midi": 68,
      "hit": false,
      "t": 251307.7560000001,
      "d": 487.9538437500014,
      "v": 1
    },
    {
      "midi": 63,
      "hit": false,
      "t": 251312.87887500116,
      "d": 231.81009375001304,
      "v": 112
    },
    {
      "midi": 65,
      "hit": false,
      "t": 251553.65400000117,
      "d": 229.24865625001257,
      "v": 114
    },
    {
      "midi": 58,
      "hit": false,
      "t": 251794.4291250012,
      "d": 382.9349062499823,
      "v": 108
    },
    {
      "midi": 66,
      "hit": false,
      "t": 251794.4291250012,
      "d": 464.9009062499681,
      "v": 112
    },
    {
      "midi": 63,
      "hit": false,
      "t": 251794.4291250012,
      "d": 511.0067812499765,
      "v": 110
    },
    {
      "midi": 39,
      "hit": false,
      "t": 251794.4291250012,
      "d": 1087.330218749994,
      "v": 109
    },
    {
      "midi": 51,
      "hit": false,
      "t": 251796.9905625012,
      "d": 1095.0145312499953,
      "v": 108
    },
    {
      "midi": 66,
      "hit": false,
      "t": 251799.5520000001,
      "d": 4176.423843750003,
      "v": 1
    },
    {
      "midi": 70,
      "hit": false,
      "t": 251799.5520000001,
      "d": 4176.423843750003,
      "v": 1
    },
    {
      "midi": 58,
      "hit": false,
      "t": 252286.22512500116,
      "d": 147.28265624999767,
      "v": 107
    },
    {
      "midi": 58,
      "hit": false,
      "t": 252778.02112500116,
      "d": 472.5852187500277,
      "v": 109
    },
    {
      "midi": 66,
      "hit": false,
      "t": 252783.14400000116,
      "d": 408.54928125001607,
      "v": 113
    },
    {
      "midi": 63,
      "hit": false,
      "t": 252788.26687500117,
      "d": 534.0597187500389,
      "v": 111
    },
    {
      "midi": 51,
      "hit": false,
      "t": 253272.3785625012,
      "d": 147.28265624999767,
      "v": 106
    },
    {
      "midi": 39,
      "hit": false,
      "t": 253277.5014375012,
      "d": 162.65128125000047,
      "v": 107
    },
    {
      "midi": 51,
      "hit": false,
      "t": 253761.6131250012,
      "d": 1159.0504687499779,
      "v": 110
    },
    {
      "midi": 39,
      "hit": false,
      "t": 253761.6131250012,
      "d": 1666.2150937500119,
      "v": 110
    },
    {
      "midi": 58,
      "hit": false,
      "t": 253766.7360000012,
      "d": 341.95190624997485,
      "v": 109
    },
    {
      "midi": 66,
      "hit": false,
      "t": 253766.7360000012,
      "d": 692.8688437499513,
      "v": 111
    },
    {
      "midi": 62,
      "hit": false,
      "t": 253769.2974375012,
      "d": 582.7270312499604,
      "v": 111
    },
    {
      "midi": 58,
      "hit": false,
      "t": 254255.97056250117,
      "d": 267.67021874999045,
      "v": 104
    },
    {
      "midi": 66,
      "hit": false,
      "t": 254747.76656250117,
      "d": 495.6381562500319,
      "v": 111
    },
    {
      "midi": 58,
      "hit": false,
      "t": 254752.88943750117,
      "d": 480.2695312500291,
      "v": 109
    },
    {
      "midi": 62,
      "hit": false,
      "t": 254755.45087500117,
      "d": 485.39240625003004,
      "v": 111
    },
    {
      "midi": 51,
      "hit": false,
      "t": 255247.2468750012,
      "d": 111.42253124999115,
      "v": 109
    },
    {
      "midi": 61,
      "hit": false,
      "t": 255728.7971250012,
      "d": 562.2355312500149,
      "v": 111
    },
    {
      "midi": 66,
      "hit": false,
      "t": 255731.3585625012,
      "d": 562.2355312500149,
      "v": 111
    },
    {
      "midi": 58,
      "hit": false,
      "t": 255733.9200000012,
      "d": 336.829031250003,
      "v": 109
    },
    {
      "midi": 49,
      "hit": false,
      "t": 255733.9200000012,
      "d": 1448.4929062500305,
      "v": 109
    },
    {
      "midi": 37,
      "hit": false,
      "t": 255736.4814375012,
      "d": 1036.1014687500137,
      "v": 110
    },
    {
      "midi": 65,
      "hit": false,
      "t": 255979.81800000012,
      "d": 487.9538437500014,
      "v": 1
    },
    {
      "midi": 68,
      "hit": false,
      "t": 255979.81800000012,
      "d": 487.9538437500014,
      "v": 1
    },
    {
      "midi": 58,
      "hit": false,
      "t": 256225.7160000012,
      "d": 160.08984375,
      "v": 104
    },
    {
      "midi": 63,
      "hit": false,
      "t": 256471.61400000012,
      "d": 242.0558437499858,
      "v": 1
    },
    {
      "midi": 66,
      "hit": false,
      "t": 256471.61400000012,
      "d": 242.0558437499858,
      "v": 1
    },
    {
      "midi": 66,
      "hit": false,
      "t": 256714.9505625012,
      "d": 426.4793437500193,
      "v": 111
    },
    {
      "midi": 61,
      "hit": false,
      "t": 256717.5120000001,
      "d": 487.9538437500014,
      "v": 1
    },
    {
      "midi": 65,
      "hit": false,
      "t": 256717.5120000001,
      "d": 487.9538437500014,
      "v": 1
    },
    {
      "midi": 61,
      "hit": false,
      "t": 256722.6348750012,
      "d": 426.4793437500193,
      "v": 109
    },
    {
      "midi": 58,
      "hit": false,
      "t": 256722.6348750012,
      "d": 446.97084375002305,
      "v": 108
    },
    {
      "midi": 65,
      "hit": false,
      "t": 257209.3080000001,
      "d": 487.9538437500014,
      "v": 1
    },
    {
      "midi": 68,
      "hit": false,
      "t": 257209.3080000001,
      "d": 487.9538437500014,
      "v": 1
    },
    {
      "midi": 37,
      "hit": false,
      "t": 257214.43087500124,
      "d": 85.8081562499865,
      "v": 110
    },
    {
      "midi": 56,
      "hit": false,
      "t": 257695.9811250012,
      "d": 557.1126562499849,
      "v": 108
    },
    {
      "midi": 44,
      "hit": false,
      "t": 257695.9811250012,
      "d": 964.3812187500007,
      "v": 108
    },
    {
      "midi": 32,
      "hit": false,
      "t": 257695.9811250012,
      "d": 987.4341562500049,
      "v": 109
    },
    {
      "midi": 63,
      "hit": false,
      "t": 257701.1040000001,
      "d": 979.7498437500035,
      "v": 1
    },
    {
      "midi": 66,
      "hit": false,
      "t": 257701.1040000001,
      "d": 979.7498437500035,
      "v": 1
    },
    {
      "midi": 63,
      "hit": false,
      "t": 257703.66543750121,
      "d": 557.1126562499849,
      "v": 107
    },
    {
      "midi": 60,
      "hit": false,
      "t": 257706.22687500122,
      "d": 603.2185312499932,
      "v": 108
    },
    {
      "midi": 60,
      "hit": false,
      "t": 258682.13456250122,
      "d": 405.9878437499865,
      "v": 109
    },
    {
      "midi": 63,
      "hit": false,
      "t": 258682.13456250122,
      "d": 429.0407812499907,
      "v": 112
    },
    {
      "midi": 65,
      "hit": false,
      "t": 258684.6960000001,
      "d": 487.9538437500014,
      "v": 1
    },
    {
      "midi": 68,
      "hit": false,
      "t": 258684.6960000001,
      "d": 487.9538437500014,
      "v": 1
    },
    {
      "midi": 56,
      "hit": false,
      "t": 258687.25743750122,
      "d": 408.54928124998696,
      "v": 109
    },
    {
      "midi": 42,
      "hit": false,
      "t": 258689.81887500122,
      "d": 964.3812187500007,
      "v": 108
    },
    {
      "midi": 70,
      "hit": false,
      "t": 259173.93056250122,
      "d": 55.07090625001001,
      "v": 110
    },
    {
      "midi": 66,
      "hit": false,
      "t": 259176.49200000011,
      "d": 487.9538437500014,
      "v": 1
    },
    {
      "midi": 70,
      "hit": false,
      "t": 259176.49200000011,
      "d": 487.9538437500014,
      "v": 1
    },
    {
      "midi": 65,
      "hit": false,
      "t": 259663.16512500122,
      "d": 920.8367812500219,
      "v": 109
    },
    {
      "midi": 56,
      "hit": false,
      "t": 259665.72656250122,
      "d": 920.8367812500219,
      "v": 107
    },
    {
      "midi": 68,
      "hit": false,
      "t": 259665.72656250122,
      "d": 920.8367812500219,
      "v": 107
    },
    {
      "midi": 68,
      "hit": false,
      "t": 259668.28800000012,
      "d": 4422.321843750018,
      "v": 1
    },
    {
      "midi": 72,
      "hit": false,
      "t": 259668.28800000012,
      "d": 4422.321843750018,
      "v": 1
    },
    {
      "midi": 63,
      "hit": false,
      "t": 259670.84943750122,
      "d": 920.8367812500219,
      "v": 109
    },
    {
      "midi": 41,
      "hit": false,
      "t": 259673.41087500122,
      "d": 1612.4249062500312,
      "v": 107
    },
    {
      "midi": 61,
      "hit": false,
      "t": 260646.75712500126,
      "d": 951.5740312499984,
      "v": 110
    },
    {
      "midi": 68,
      "hit": false,
      "t": 260649.31856250126,
      "d": 951.5740312499984,
      "v": 105
    },
    {
      "midi": 65,
      "hit": false,
      "t": 260654.44143750126,
      "d": 951.5740312499984,
      "v": 104
    },
    {
      "midi": 65,
      "hit": false,
      "t": 261630.34912500126,
      "d": 946.4511562499974,
      "v": 108
    },
    {
      "midi": 41,
      "hit": false,
      "t": 261630.34912500126,
      "d": 1901.8673437499965,
      "v": 105
    },
    {
      "midi": 68,
      "hit": false,
      "t": 261632.91056250126,
      "d": 972.0655312500021,
      "v": 106
    },
    {
      "midi": 60,
      "hit": false,
      "t": 261638.03343750126,
      "d": 946.4511562499974,
      "v": 108
    },
    {
      "midi": 59,
      "hit": false,
      "t": 262613.94112500123,
      "d": 913.1524687500205,
      "v": 109
    },
    {
      "midi": 68,
      "hit": false,
      "t": 262616.50256250123,
      "d": 928.5210937500233,
      "v": 106
    },
    {
      "midi": 65,
      "hit": false,
      "t": 262619.06400000124,
      "d": 913.1524687500205,
      "v": 105
    },
    {
      "midi": 58,
      "hit": false,
      "t": 263597.53312500124,
      "d": 549.4283437499544,
      "v": 110
    },
    {
      "midi": 46,
      "hit": false,
      "t": 263600.09456250124,
      "d": 946.4511562500265,
      "v": 107
    },
    {
      "midi": 63,
      "hit": false,
      "t": 263605.21743750124,
      "d": 549.4283437499544,
      "v": 106
    },
    {
      "midi": 56,
      "hit": false,
      "t": 263605.21743750124,
      "d": 551.9897812499548,
      "v": 107
    },
    {
      "midi": 53,
      "hit": false,
      "t": 263605.21743750124,
      "d": 641.6400937499711,
      "v": 107
    },
    {
      "midi": 34,
      "hit": false,
      "t": 263607.77887500124,
      "d": 1663.6536562500405,
      "v": 106
    },
    {
      "midi": 65,
      "hit": false,
      "t": 264094.4520000001,
      "d": 2455.13784375001,
      "v": 1
    },
    {
      "midi": 68,
      "hit": false,
      "t": 264094.4520000001,
      "d": 2455.13784375001,
      "v": 1
    },
    {
      "midi": 63,
      "hit": false,
      "t": 264581.12512500124,
      "d": 416.23359375004657,
      "v": 110
    },
    {
      "midi": 53,
      "hit": false,
      "t": 264583.68656250124,
      "d": 318.89896875002887,
      "v": 109
    },
    {
      "midi": 56,
      "hit": false,
      "t": 264583.68656250124,
      "d": 439.28653125005076,
      "v": 110
    },
    {
      "midi": 58,
      "hit": false,
      "t": 264586.24800000124,
      "d": 434.1636562500498,
      "v": 110
    }
  ]
}