{
  "jsonPath": "Unknown/Unknown/Dare/we-were-friends.json",
  "path": "Unknown\\Unknown\\Dare\\We Were Friends.mid",
  "name": "We Were Friends",
  "difficulty": "Advanced",
  "bpm": 60,
  "notes": [
    {
      "midi": 52,
      "hit": false,
      "t": 4000,
      "d": 1864.5833333333321,
      "v": 79
    },
    {
      "midi": 64,
      "hit": false,
      "t": 4020.833333333333,
      "d": 218.75,
      "v": 82
    },
    {
      "midi": 56,
      "hit": false,
      "t": 4270.833333333333,
      "d": 229.16666666666697,
      "v": 42
    },
    {
      "midi": 59,
      "hit": false,
      "t": 4520.833333333333,
      "d": 229.16666666666697,
      "v": 59
    },
    {
      "midi": 64,
      "hit": false,
      "t": 4781.25,
      "d": 83.33333333333303,
      "v": 91
    },
    {
      "midi": 71,
      "hit": false,
      "t": 5291.666666666666,
      "d": 83.33333333333303,
      "v": 110
    },
    {
      "midi": 66,
      "hit": false,
      "t": 5802.083333333332,
      "d": 187.5,
      "v": 59
    },
    {
      "midi": 52,
      "hit": false,
      "t": 6052.083333333332,
      "d": 1166.666666666667,
      "v": 73
    },
    {
      "midi": 56,
      "hit": false,
      "t": 6281.249999999999,
      "d": 239.58333333333303,
      "v": 43
    },
    {
      "midi": 59,
      "hit": false,
      "t": 6520.833333333332,
      "d": 270.83333333333303,
      "v": 67
    },
    {
      "midi": 64,
      "hit": false,
      "t": 6802.083333333332,
      "d": 229.16666666666697,
      "v": 73
    },
    {
      "midi": 66,
      "hit": false,
      "t": 8156.249999999999,
      "d": 364.58333333333303,
      "v": 82
    },
    {
      "midi": 49,
      "hit": false,
      "t": 8156.249999999999,
      "d": 1791.666666666667,
      "v": 79
    },
    {
      "midi": 56,
      "hit": false,
      "t": 8447.916666666666,
      "d": 260.41666666666606,
      "v": 48
    },
    {
      "midi": 59,
      "hit": false,
      "t": 8677.083333333332,
      "d": 104.16666666666606,
      "v": 77
    },
    {
      "midi": 64,
      "hit": false,
      "t": 8947.916666666664,
      "d": 177.08333333333394,
      "v": 100
    },
    {
      "midi": 71,
      "hit": false,
      "t": 9416.666666666664,
      "d": 83.33333333333394,
      "v": 103
    },
    {
      "midi": 66,
      "hit": false,
      "t": 9895.833333333332,
      "d": 187.5,
      "v": 107
    },
    {
      "midi": 49,
      "hit": false,
      "t": 10145.833333333332,
      "d": 1437.5000000000018,
      "v": 73
    },
    {
      "midi": 56,
      "hit": false,
      "t": 10385.416666666666,
      "d": 260.41666666666606,
      "v": 42
    },
    {
      "midi": 59,
      "hit": false,
      "t": 10635.416666666666,
      "d": 218.75,
      "v": 53
    },
    {
      "midi": 64,
      "hit": false,
      "t": 10906.25,
      "d": 177.08333333333394,
      "v": 88
    },
    {
      "midi": 66,
      "hit": false,
      "t": 12114.583333333334,
      "d": 364.5833333333321,
      "v": 82
    },
    {
      "midi": 45,
      "hit": false,
      "t": 12114.583333333334,
      "d": 1666.666666666666,
      "v": 56
    },
    {
      "midi": 59,
      "hit": false,
      "t": 12125,
      "d": 322.91666666666606,
      "v": 56
    },
    {
      "midi": 56,
      "hit": false,
      "t": 12458.333333333332,
      "d": 197.91666666666788,
      "v": 62
    },
    {
      "midi": 59,
      "hit": false,
      "t": 12687.5,
      "d": 302.0833333333321,
      "v": 65
    },
    {
      "midi": 64,
      "hit": false,
      "t": 12947.916666666666,
      "d": 104.16666666666606,
      "v": 98
    },
    {
      "midi": 71,
      "hit": false,
      "t": 13489.583333333332,
      "d": 83.33333333333394,
      "v": 108
    },
    {
      "midi": 66,
      "hit": false,
      "t": 14041.666666666666,
      "d": 583.3333333333339,
      "v": 67
    },
    {
      "midi": 47,
      "hit": false,
      "t": 14312.5,
      "d": 2239.5833333333358,
      "v": 65
    },
    {
      "midi": 56,
      "hit": false,
      "t": 14562.5,
      "d": 322.91666666666606,
      "v": 42
    },
    {
      "midi": 59,
      "hit": false,
      "t": 14875,
      "d": 166.66666666666606,
      "v": 41
    },
    {
      "midi": 64,
      "hit": false,
      "t": 15218.75,
      "d": 1291.6666666666679,
      "v": 79
    },
    {
      "midi": 54,
      "hit": false,
      "t": 15791.666666666666,
      "d": 729.1666666666697,
      "v": 42
    },
    {
      "midi": 57,
      "hit": false,
      "t": 16156.25,
      "d": 375.00000000000364,
      "v": 43
    },
    {
      "midi": 52,
      "hit": false,
      "t": 18677.083333333336,
      "d": 2833.3333333333394,
      "v": 43
    },
    {
      "midi": 64,
      "hit": false,
      "t": 18687.500000000004,
      "d": 385.4166666666679,
      "v": 50
    },
    {
      "midi": 56,
      "hit": false,
      "t": 18927.08333333334,
      "d": 239.58333333333212,
      "v": 44
    },
    {
      "midi": 59,
      "hit": false,
      "t": 19156.250000000004,
      "d": 229.16666666666788,
      "v": 91
    },
    {
      "midi": 64,
      "hit": false,
      "t": 19427.08333333334,
      "d": 93.75,
      "v": 77
    },
    {
      "midi": 71,
      "hit": false,
      "t": 19937.500000000007,
      "d": 187.5,
      "v": 79
    },
    {
      "midi": 66,
      "hit": false,
      "t": 20468.750000000007,
      "d": 125,
      "v": 56
    },
    {
      "midi": 64,
      "hit": false,
      "t": 21500.000000000007,
      "d": 520.8333333333358,
      "v": 88
    },
    {
      "midi": 56,
      "hit": false,
      "t": 21979.166666666675,
      "d": 250.00000000000364,
      "v": 22
    },
    {
      "midi": 59,
      "hit": false,
      "t": 22218.75000000001,
      "d": 197.91666666666788,
      "v": 91
    },
    {
      "midi": 56,
      "hit": false,
      "t": 22437.50000000001,
      "d": 364.58333333333576,
      "v": 56
    },
    {
      "midi": 59,
      "hit": false,
      "t": 22718.75000000001,
      "d": 250.00000000000364,
      "v": 19
    },
    {
      "midi": 66,
      "hit": false,
      "t": 22718.75000000001,
      "d": 343.75000000000364,
      "v": 67
    },
    {
      "midi": 52,
      "hit": false,
      "t": 22718.75000000001,
      "d": 3468.7500000000036,
      "v": 62
    },
    {
      "midi": 56,
      "hit": false,
      "t": 22958.333333333347,
      "d": 229.16666666666788,
      "v": 42
    },
    {
      "midi": 59,
      "hit": false,
      "t": 23187.500000000015,
      "d": 312.5,
      "v": 56
    },
    {
      "midi": 64,
      "hit": false,
      "t": 23458.333333333347,
      "d": 83.33333333333576,
      "v": 91
    },
    {
      "midi": 71,
      "hit": false,
      "t": 24000.000000000015,
      "d": 229.16666666666788,
      "v": 102
    },
    {
      "midi": 64,
      "hit": false,
      "t": 24500.000000000015,
      "d": 145.83333333333212,
      "v": 53
    },
    {
      "midi": 66,
      "hit": false,
      "t": 24500.000000000015,
      "d": 145.83333333333212,
      "v": 42
    },
    {
      "midi": 56,
      "hit": false,
      "t": 25208.333333333347,
      "d": 312.5,
      "v": 62
    },
    {
      "midi": 66,
      "hit": false,
      "t": 25458.333333333347,
      "d": 239.58333333333212,
      "v": 82
    },
    {
      "midi": 56,
      "hit": false,
      "t": 25708.333333333347,
      "d": 229.16666666666788,
      "v": 73
    },
    {
      "midi": 59,
      "hit": false,
      "t": 25927.083333333347,
      "d": 302.08333333333576,
      "v": 71
    },
    {
      "midi": 64,
      "hit": false,
      "t": 26197.916666666682,
      "d": 114.58333333333212,
      "v": 82
    },
    {
      "midi": 56,
      "hit": false,
      "t": 26416.666666666682,
      "d": 104.16666666666788,
      "v": 44
    },
    {
      "midi": 49,
      "hit": false,
      "t": 26666.666666666686,
      "d": 3500,
      "v": 62
    },
    {
      "midi": 59,
      "hit": false,
      "t": 26687.50000000002,
      "d": 218.75,
      "v": 95
    },
    {
      "midi": 66,
      "hit": false,
      "t": 26687.50000000002,
      "d": 333.33333333333576,
      "v": 94
    },
    {
      "midi": 56,
      "hit": false,
      "t": 26916.666666666686,
      "d": 239.58333333333576,
      "v": 50
    },
    {
      "midi": 59,
      "hit": false,
      "t": 27166.66666666669,
      "d": 312.5,
      "v": 59
    },
    {
      "midi": 64,
      "hit": false,
      "t": 27427.083333333358,
      "d": 135.41666666666424,
      "v": 102
    },
    {
      "midi": 71,
      "hit": false,
      "t": 27979.16666666669,
      "d": 166.66666666666788,
      "v": 67
    },
    {
      "midi": 66,
      "hit": false,
      "t": 28447.91666666669,
      "d": 83.33333333333212,
      "v": 91
    },
    {
      "midi": 64,
      "hit": false,
      "t": 28447.91666666669,
      "d": 93.75,
      "v": 56
    },
    {
      "midi": 56,
      "hit": false,
      "t": 29156.250000000022,
      "d": 260.41666666666424,
      "v": 24
    },
    {
      "midi": 64,
      "hit": false,
      "t": 29395.833333333354,
      "d": 437.49999999999636,
      "v": 77
    },
    {
      "midi": 56,
      "hit": false,
      "t": 29625.00000000002,
      "d": 239.58333333333212,
      "v": 38
    },
    {
      "midi": 59,
      "hit": false,
      "t": 29875.00000000002,
      "d": 250,
      "v": 73
    },
    {
      "midi": 56,
      "hit": false,
      "t": 30135.416666666686,
      "d": 83.33333333333212,
      "v": 56
    },
    {
      "midi": 49,
      "hit": false,
      "t": 30375.00000000002,
      "d": 125,
      "v": 62
    },
    {
      "midi": 66,
      "hit": false,
      "t": 30625.00000000002,
      "d": 354.1666666666679,
      "v": 100
    },
    {
      "midi": 49,
      "hit": false,
      "t": 30625.00000000002,
      "d": 3604.1666666666606,
      "v": 79
    },
    {
      "midi": 59,
      "hit": false,
      "t": 30635.416666666686,
      "d": 218.75,
      "v": 91
    },
    {
      "midi": 56,
      "hit": false,
      "t": 30885.416666666686,
      "d": 250,
      "v": 42
    },
    {
      "midi": 59,
      "hit": false,
      "t": 31135.416666666686,
      "d": 312.5,
      "v": 67
    },
    {
      "midi": 64,
      "hit": false,
      "t": 31406.25000000002,
      "d": 156.25,
      "v": 95
    },
    {
      "midi": 71,
      "hit": false,
      "t": 31937.50000000002,
      "d": 156.25,
      "v": 91
    },
    {
      "midi": 66,
      "hit": false,
      "t": 32427.08333333335,
      "d": 125,
      "v": 36
    },
    {
      "midi": 56,
      "hit": false,
      "t": 33177.08333333335,
      "d": 322.91666666666424,
      "v": 34
    },
    {
      "midi": 56,
      "hit": false,
      "t": 33697.91666666668,
      "d": 208.33333333333576,
      "v": 1
    },
    {
      "midi": 59,
      "hit": false,
      "t": 33937.500000000015,
      "d": 250,
      "v": 30
    },
    {
      "midi": 64,
      "hit": false,
      "t": 34187.500000000015,
      "d": 177.08333333332848,
      "v": 100
    },
    {
      "midi": 56,
      "hit": false,
      "t": 34427.08333333334,
      "d": 177.08333333333576,
      "v": 24
    },
    {
      "midi": 45,
      "hit": false,
      "t": 34687.50000000001,
      "d": 2562.5,
      "v": 95
    },
    {
      "midi": 61,
      "hit": false,
      "t": 34718.75000000001,
      "d": 281.25,
      "v": 102
    },
    {
      "midi": 59,
      "hit": false,
      "t": 34750.00000000001,
      "d": 20.83333333333576,
      "v": 36
    },
    {
      "midi": 57,
      "hit": false,
      "t": 34968.75000000001,
      "d": 197.91666666666424,
      "v": 44
    },
    {
      "midi": 59,
      "hit": false,
      "t": 35187.50000000001,
      "d": 447.91666666666424,
      "v": 56
    },
    {
      "midi": 57,
      "hit": false,
      "t": 35687.50000000001,
      "d": 125,
      "v": 26
    },
    {
      "midi": 64,
      "hit": false,
      "t": 35916.66666666667,
      "d": 135.41666666666424,
      "v": 85
    },
    {
      "midi": 57,
      "hit": false,
      "t": 36166.66666666667,
      "d": 72.91666666666424,
      "v": 44
    },
    {
      "midi": 69,
      "hit": false,
      "t": 36406.25,
      "d": 145.83333333333576,
      "v": 67
    },
    {
      "midi": 61,
      "hit": false,
      "t": 36833.333333333336,
      "d": 114.58333333333576,
      "v": 38
    },
    {
      "midi": 57,
      "hit": false,
      "t": 37416.66666666667,
      "d": 187.5,
      "v": 16
    },
    {
      "midi": 59,
      "hit": false,
      "t": 37645.833333333336,
      "d": 239.58333333332848,
      "v": 67
    },
    {
      "midi": 61,
      "hit": false,
      "t": 37875,
      "d": 156.25,
      "v": 94
    },
    {
      "midi": 57,
      "hit": false,
      "t": 38135.416666666664,
      "d": 104.16666666666424,
      "v": 53
    },
    {
      "midi": 52,
      "hit": false,
      "t": 38145.83333333333,
      "d": 104.16666666666424,
      "v": 48
    },
    {
      "midi": 59,
      "hit": false,
      "t": 38374.99999999999,
      "d": 562.4999999999927,
      "v": 94
    },
    {
      "midi": 45,
      "hit": false,
      "t": 38624.99999999999,
      "d": 677.0833333333285,
      "v": 85
    },
    {
      "midi": 64,
      "hit": false,
      "t": 38635.41666666666,
      "d": 395.8333333333285,
      "v": 100
    },
    {
      "midi": 57,
      "hit": false,
      "t": 38645.83333333332,
      "d": 166.66666666666424,
      "v": 79
    },
    {
      "midi": 57,
      "hit": false,
      "t": 38895.83333333332,
      "d": 135.41666666666424,
      "v": 19
    },
    {
      "midi": 57,
      "hit": false,
      "t": 39302.08333333332,
      "d": 62.5,
      "v": 36
    },
    {
      "midi": 52,
      "hit": false,
      "t": 39583.33333333332,
      "d": 520.8333333333358,
      "v": 44
    },
    {
      "midi": 61,
      "hit": false,
      "t": 39812.499999999985,
      "d": 156.25,
      "v": 30
    },
    {
      "midi": 64,
      "hit": false,
      "t": 40052.08333333332,
      "d": 520.8333333333358,
      "v": 48
    },
    {
      "midi": 61,
      "hit": false,
      "t": 40333.33333333332,
      "d": 114.58333333333576,
      "v": 13
    },
    {
      "midi": 69,
      "hit": false,
      "t": 40614.58333333332,
      "d": 458.33333333333576,
      "v": 48
    },
    {
      "midi": 61,
      "hit": false,
      "t": 41166.66666666666,
      "d": 52.08333333333576,
      "v": 38
    },
    {
      "midi": 52,
      "hit": false,
      "t": 41656.24999999999,
      "d": 156.25,
      "v": 43
    },
    {
      "midi": 57,
      "hit": false,
      "t": 41812.49999999999,
      "d": 145.83333333333576,
      "v": 31
    },
    {
      "midi": 59,
      "hit": false,
      "t": 42062.49999999999,
      "d": 166.66666666666424,
      "v": 53
    },
    {
      "midi": 57,
      "hit": false,
      "t": 42322.91666666666,
      "d": 395.8333333333285,
      "v": 22
    },
    {
      "midi": 68,
      "hit": false,
      "t": 42635.41666666666,
      "d": 291.66666666665697,
      "v": 42
    },
    {
      "midi": 42,
      "hit": false,
      "t": 42645.83333333332,
      "d": 447.91666666665697,
      "v": 59
    },
    {
      "midi": 61,
      "hit": false,
      "t": 42656.249999999985,
      "d": 93.75,
      "v": 41
    },
    {
      "midi": 57,
      "hit": false,
      "t": 42885.41666666665,
      "d": 166.66666666666424,
      "v": 56
    },
    {
      "midi": 61,
      "hit": false,
      "t": 43135.41666666664,
      "d": 104.16666666666424,
      "v": 91
    },
    {
      "midi": 54,
      "hit": false,
      "t": 43374.99999999997,
      "d": 135.41666666666424,
      "v": 88
    },
    {
      "midi": 57,
      "hit": false,
      "t": 43635.416666666635,
      "d": 218.75,
      "v": 20
    },
    {
      "midi": 61,
      "hit": false,
      "t": 43874.99999999997,
      "d": 250,
      "v": 94
    },
    {
      "midi": 57,
      "hit": false,
      "t": 44156.24999999997,
      "d": 93.75,
      "v": 48
    },
    {
      "midi": 54,
      "hit": false,
      "t": 44510.416666666635,
      "d": 395.83333333333576,
      "v": 42
    },
    {
      "midi": 64,
      "hit": false,
      "t": 44635.416666666635,
      "d": 416.6666666666715,
      "v": 107
    },
    {
      "midi": 57,
      "hit": false,
      "t": 45166.66666666664,
      "d": 187.5,
      "v": 26
    },
    {
      "midi": 54,
      "hit": false,
      "t": 45406.24999999998,
      "d": 156.25,
      "v": 67
    },
    {
      "midi": 57,
      "hit": false,
      "t": 45645.833333333314,
      "d": 218.75,
      "v": 38
    },
    {
      "midi": 42,
      "hit": false,
      "t": 45687.49999999998,
      "d": 145.83333333333576,
      "v": 44
    },
    {
      "midi": 61,
      "hit": false,
      "t": 45885.41666666665,
      "d": 260.41666666666424,
      "v": 43
    },
    {
      "midi": 64,
      "hit": false,
      "t": 46156.24999999998,
      "d": 135.41666666666424,
      "v": 98
    },
    {
      "midi": 47,
      "hit": false,
      "t": 46656.24999999998,
      "d": 635.4166666666715,
      "v": 48
    },
    {
      "midi": 64,
      "hit": false,
      "t": 46666.66666666664,
      "d": 354.1666666666715,
      "v": 95
    },
    {
      "midi": 57,
      "hit": false,
      "t": 46677.08333333331,
      "d": 322.9166666666715,
      "v": 62
    },
    {
      "midi": 59,
      "hit": false,
      "t": 46677.08333333331,
      "d": 322.9166666666715,
      "v": 56
    },
    {
      "midi": 54,
      "hit": false,
      "t": 47395.833333333314,
      "d": 72.91666666666424,
      "v": 79
    },
    {
      "midi": 59,
      "hit": false,
      "t": 47906.24999999998,
      "d": 135.41666666666424,
      "v": 36
    },
    {
      "midi": 57,
      "hit": false,
      "t": 47916.66666666664,
      "d": 114.58333333333576,
      "v": 36
    },
    {
      "midi": 61,
      "hit": false,
      "t": 48156.24999999998,
      "d": 218.75,
      "v": 62
    },
    {
      "midi": 64,
      "hit": false,
      "t": 48406.24999999998,
      "d": 208.33333333333576,
      "v": 56
    },
    {
      "midi": 63,
      "hit": false,
      "t": 48697.91666666665,
      "d": 218.75,
      "v": 38
    },
    {
      "midi": 54,
      "hit": false,
      "t": 48718.749999999985,
      "d": 333.3333333333285,
      "v": 41
    },
    {
      "midi": 57,
      "hit": false,
      "t": 48729.16666666665,
      "d": 156.25,
      "v": 38
    },
    {
      "midi": 59,
      "hit": false,
      "t": 48729.16666666665,
      "d": 166.66666666666424,
      "v": 36
    },
    {
      "midi": 71,
      "hit": false,
      "t": 49718.74999999998,
      "d": 135.41666666666424,
      "v": 65
    },
    {
      "midi": 56,
      "hit": false,
      "t": 51687.49999999998,
      "d": 458.3333333333285,
      "v": 53
    },
    {
      "midi": 40,
      "hit": false,
      "t": 51687.49999999998,
      "d": 999.9999999999927,
      "v": 62
    },
    {
      "midi": 59,
      "hit": false,
      "t": 51697.91666666664,
      "d": 552.0833333333358,
      "v": 67
    },
    {
      "midi": 64,
      "hit": false,
      "t": 51697.91666666664,
      "d": 645.8333333333358,
      "v": 79
    },
    {
      "midi": 56,
      "hit": false,
      "t": 52229.16666666664,
      "d": 145.83333333333576,
      "v": 43
    },
    {
      "midi": 59,
      "hit": false,
      "t": 52437.49999999998,
      "d": 104.16666666666424,
      "v": 79
    },
    {
      "midi": 56,
      "hit": false,
      "t": 52677.08333333331,
      "d": 229.16666666666424,
      "v": 48
    },
    {
      "midi": 66,
      "hit": false,
      "t": 52927.08333333331,
      "d": 177.08333333333576,
      "v": 62
    },
    {
      "midi": 56,
      "hit": false,
      "t": 53177.08333333331,
      "d": 135.41666666666424,
      "v": 59
    },
    {
      "midi": 59,
      "hit": false,
      "t": 53395.83333333331,
      "d": 41.66666666666424,
      "v": 85
    },
    {
      "midi": 52,
      "hit": false,
      "t": 53635.416666666635,
      "d": 156.25,
      "v": 43
    },
    {
      "midi": 64,
      "hit": false,
      "t": 53874.99999999997,
      "d": 104.16666666666424,
      "v": 48
    },
    {
      "midi": 66,
      "hit": false,
      "t": 54406.24999999997,
      "d": 166.66666666666424,
      "v": 19
    },
    {
      "midi": 64,
      "hit": false,
      "t": 54656.24999999997,
      "d": 135.41666666666424,
      "v": 12
    },
    {
      "midi": 71,
      "hit": false,
      "t": 54906.24999999997,
      "d": 250,
      "v": 98
    },
    {
      "midi": 66,
      "hit": false,
      "t": 55166.666666666635,
      "d": 166.66666666666424,
      "v": 41
    },
    {
      "midi": 64,
      "hit": false,
      "t": 55416.666666666635,
      "d": 52.08333333333576,
      "v": 31
    },
    {
      "midi": 64,
      "hit": false,
      "t": 55718.74999999997,
      "d": 437.5,
      "v": 53
    },
    {
      "midi": 40,
      "hit": false,
      "t": 55718.74999999997,
      "d": 645.8333333333285,
      "v": 73
    },
    {
      "midi": 56,
      "hit": false,
      "t": 55739.58333333331,
      "d": 260.41666666666424,
      "v": 56
    },
    {
      "midi": 59,
      "hit": false,
      "t": 55739.58333333331,
      "d": 479.16666666666424,
      "v": 73
    },
    {
      "midi": 56,
      "hit": false,
      "t": 56218.74999999997,
      "d": 72.91666666666424,
      "v": 62
    },
    {
      "midi": 52,
      "hit": false,
      "t": 56458.3333333333,
      "d": 187.5,
      "v": 38
    },
    {
      "midi": 64,
      "hit": false,
      "t": 56687.49999999996,
      "d": 208.33333333333576,
      "v": 29
    },
    {
      "midi": 71,
      "hit": false,
      "t": 56927.0833333333,
      "d": 239.58333333333576,
      "v": 95
    },
    {
      "midi": 64,
      "hit": false,
      "t": 57177.0833333333,
      "d": 104.16666666666424,
      "v": 50
    },
    {
      "midi": 66,
      "hit": false,
      "t": 57416.66666666663,
      "d": 104.16666666666424,
      "v": 48
    },
    {
      "midi": 40,
      "hit": false,
      "t": 57656.249999999956,
      "d": 270.83333333333576,
      "v": 82
    },
    {
      "midi": 56,
      "hit": false,
      "t": 57895.83333333329,
      "d": 135.41666666666424,
      "v": 67
    },
    {
      "midi": 59,
      "hit": false,
      "t": 58135.41666666662,
      "d": 302.08333333333576,
      "v": 31
    },
    {
      "midi": 52,
      "hit": false,
      "t": 58416.66666666662,
      "d": 395.83333333333576,
      "v": 59
    },
    {
      "midi": 56,
      "hit": false,
      "t": 58677.08333333329,
      "d": 208.33333333332848,
      "v": 73
    },
    {
      "midi": 64,
      "hit": false,
      "t": 58916.66666666662,
      "d": 354.1666666666715,
      "v": 73
    },
    {
      "midi": 59,
      "hit": false,
      "t": 59187.499999999956,
      "d": 979.1666666666642,
      "v": 100
    },
    {
      "midi": 56,
      "hit": false,
      "t": 59427.08333333329,
      "d": 510.41666666666424,
      "v": 100
    },
    {
      "midi": 61,
      "hit": false,
      "t": 59677.08333333329,
      "d": 458.3333333333285,
      "v": 56
    },
    {
      "midi": 37,
      "hit": false,
      "t": 59687.499999999956,
      "d": 479.16666666666424,
      "v": 73
    },
    {
      "midi": 56,
      "hit": false,
      "t": 60166.66666666662,
      "d": 62.5,
      "v": 53
    },
    {
      "midi": 49,
      "hit": false,
      "t": 60406.249999999956,
      "d": 104.16666666666424,
      "v": 41
    },
    {
      "midi": 71,
      "hit": false,
      "t": 60895.833333333285,
      "d": 239.58333333333576,
      "v": 88
    },
    {
      "midi": 64,
      "hit": false,
      "t": 61156.249999999956,
      "d": 145.83333333333576,
      "v": 30
    },
    {
      "midi": 66,
      "hit": false,
      "t": 61385.41666666663,
      "d": 114.58333333333576,
      "v": 42
    },
    {
      "midi": 49,
      "hit": false,
      "t": 61677.0833333333,
      "d": 291.66666666666424,
      "v": 41
    },
    {
      "midi": 56,
      "hit": false,
      "t": 61895.8333333333,
      "d": 229.16666666666424,
      "v": 38
    },
    {
      "midi": 59,
      "hit": false,
      "t": 62145.8333333333,
      "d": 291.6666666666715,
      "v": 38
    },
    {
      "midi": 61,
      "hit": false,
      "t": 62385.416666666635,
      "d": 260.4166666666715,
      "v": 73
    },
    {
      "midi": 56,
      "hit": false,
      "t": 62656.24999999997,
      "d": 187.5,
      "v": 53
    },
    {
      "midi": 59,
      "hit": false,
      "t": 62927.08333333331,
      "d": 208.33333333333576,
      "v": 77
    },
    {
      "midi": 64,
      "hit": false,
      "t": 63177.08333333331,
      "d": 72.91666666666424,
      "v": 91
    },
    {
      "midi": 66,
      "hit": false,
      "t": 63677.08333333331,
      "d": 500,
      "v": 67
    },
    {
      "midi": 37,
      "hit": false,
      "t": 63677.08333333331,
      "d": 531.25,
      "v": 73
    },
    {
      "midi": 64,
      "hit": false,
      "t": 63697.91666666664,
      "d": 354.16666666666424,
      "v": 82
    },
    {
      "midi": 49,
      "hit": false,
      "t": 64416.66666666664,
      "d": 114.58333333333576,
      "v": 62
    },
    {
      "midi": 64,
      "hit": false,
      "t": 64656.24999999998,
      "d": 145.83333333333576,
      "v": 65
    },
    {
      "midi": 71,
      "hit": false,
      "t": 64906.24999999998,
      "d": 270.83333333333576,
      "v": 100
    },
    {
      "midi": 66,
      "hit": false,
      "t": 65156.24999999998,
      "d": 197.91666666667152,
      "v": 62
    },
    {
      "midi": 64,
      "hit": false,
      "t": 65385.41666666665,
      "d": 52.08333333333576,
      "v": 44
    },
    {
      "midi": 49,
      "hit": false,
      "t": 65656.24999999999,
      "d": 552.083333333343,
      "v": 59
    },
    {
      "midi": 56,
      "hit": false,
      "t": 65906.24999999999,
      "d": 322.9166666666715,
      "v": 42
    },
    {
      "midi": 59,
      "hit": false,
      "t": 66197.91666666666,
      "d": 760.416666666657,
      "v": 42
    },
    {
      "midi": 64,
      "hit": false,
      "t": 66468.74999999999,
      "d": 708.3333333333285,
      "v": 85
    },
    {
      "midi": 47,
      "hit": false,
      "t": 66708.33333333331,
      "d": 500,
      "v": 56
    },
    {
      "midi": 56,
      "hit": false,
      "t": 66968.74999999999,
      "d": 218.75,
      "v": 102
    },
    {
      "midi": 59,
      "hit": false,
      "t": 67249.99999999999,
      "d": 343.75,
      "v": 108
    },
    {
      "midi": 64,
      "hit": false,
      "t": 67520.83333333331,
      "d": 708.3333333333285,
      "v": 108
    },
    {
      "midi": 45,
      "hit": false,
      "t": 67770.83333333331,
      "d": 708.333333333343,
      "v": 71
    },
    {
      "midi": 59,
      "hit": false,
      "t": 67781.24999999999,
      "d": 260.41666666665697,
      "v": 7
    },
    {
      "midi": 57,
      "hit": false,
      "t": 68041.66666666664,
      "d": 218.75,
      "v": 43
    },
    {
      "midi": 59,
      "hit": false,
      "t": 68270.83333333331,
      "d": 197.91666666667152,
      "v": 48
    },
    {
      "midi": 57,
      "hit": false,
      "t": 68520.83333333333,
      "d": 104.16666666667152,
      "v": 53
    },
    {
      "midi": 61,
      "hit": false,
      "t": 69020.83333333333,
      "d": 187.5,
      "v": 43
    },
    {
      "midi": 64,
      "hit": false,
      "t": 69229.16666666666,
      "d": 302.0833333333285,
      "v": 67
    },
    {
      "midi": 69,
      "hit": false,
      "t": 69479.16666666666,
      "d": 281.25,
      "v": 98
    },
    {
      "midi": 33,
      "hit": false,
      "t": 69697.91666666666,
      "d": 489.5833333333285,
      "v": 56
    },
    {
      "midi": 61,
      "hit": false,
      "t": 69937.49999999999,
      "d": 83.33333333332848,
      "v": 20
    },
    {
      "midi": 57,
      "hit": false,
      "t": 70229.16666666666,
      "d": 187.5,
      "v": 42
    },
    {
      "midi": 59,
      "hit": false,
      "t": 70510.41666666666,
      "d": 177.08333333332848,
      "v": 1
    },
    {
      "midi": 57,
      "hit": false,
      "t": 70697.91666666666,
      "d": 208.33333333332848,
      "v": 44
    },
    {
      "midi": 45,
      "hit": false,
      "t": 70729.16666666666,
      "d": 395.8333333333285,
      "v": 36
    },
    {
      "midi": 61,
      "hit": false,
      "t": 70916.66666666666,
      "d": 302.0833333333285,
      "v": 42
    },
    {
      "midi": 59,
      "hit": false,
      "t": 71177.08333333331,
      "d": 979.1666666666715,
      "v": 88
    },
    {
      "midi": 57,
      "hit": false,
      "t": 71416.66666666666,
      "d": 500,
      "v": 59
    },
    {
      "midi": 45,
      "hit": false,
      "t": 71666.66666666666,
      "d": 416.6666666666715,
      "v": 59
    },
    {
      "midi": 64,
      "hit": false,
      "t": 71677.08333333333,
      "d": 458.3333333333285,
      "v": 91
    },
    {
      "midi": 57,
      "hit": false,
      "t": 72166.66666666666,
      "d": 62.5,
      "v": 67
    },
    {
      "midi": 61,
      "hit": false,
      "t": 72666.66666666666,
      "d": 52.08333333332848,
      "v": 23
    },
    {
      "midi": 69,
      "hit": false,
      "t": 72906.24999999999,
      "d": 375,
      "v": 102
    },
    {
      "midi": 61,
      "hit": false,
      "t": 73135.41666666666,
      "d": 177.08333333332848,
      "v": 35
    },
    {
      "midi": 64,
      "hit": false,
      "t": 73395.83333333331,
      "d": 166.66666666667152,
      "v": 82
    },
    {
      "midi": 45,
      "hit": false,
      "t": 73635.41666666666,
      "d": 624.9999999999854,
      "v": 79
    },
    {
      "midi": 57,
      "hit": false,
      "t": 73874.99999999999,
      "d": 177.08333333332848,
      "v": 73
    },
    {
      "midi": 59,
      "hit": false,
      "t": 74145.83333333331,
      "d": 520.8333333333285,
      "v": 77
    },
    {
      "midi": 64,
      "hit": false,
      "t": 74385.41666666664,
      "d": 739.583333333343,
      "v": 91
    },
    {
      "midi": 57,
      "hit": false,
      "t": 74697.91666666664,
      "d": 72.91666666667152,
      "v": 34
    },
    {
      "midi": 59,
      "hit": false,
      "t": 74906.24999999999,
      "d": 250,
      "v": 95
    },
    {
      "midi": 57,
      "hit": false,
      "t": 75156.24999999999,
      "d": 125,
      "v": 67
    },
    {
      "midi": 45,
      "hit": false,
      "t": 75416.66666666666,
      "d": 270.8333333333285,
      "v": 48
    },
    {
      "midi": 42,
      "hit": false,
      "t": 75697.91666666666,
      "d": 479.16666666665697,
      "v": 73
    },
    {
      "midi": 57,
      "hit": false,
      "t": 75718.74999999999,
      "d": 354.16666666665697,
      "v": 79
    },
    {
      "midi": 61,
      "hit": false,
      "t": 76041.66666666664,
      "d": 125,
      "v": 2
    },
    {
      "midi": 57,
      "hit": false,
      "t": 76260.41666666664,
      "d": 166.66666666667152,
      "v": 42
    },
    {
      "midi": 68,
      "hit": false,
      "t": 76499.99999999999,
      "d": 208.33333333332848,
      "v": 88
    },
    {
      "midi": 57,
      "hit": false,
      "t": 76729.16666666664,
      "d": 218.75,
      "v": 41
    },
    {
      "midi": 61,
      "hit": false,
      "t": 76968.74999999997,
      "d": 250,
      "v": 50
    },
    {
      "midi": 57,
      "hit": false,
      "t": 77239.5833333333,
      "d": 197.91666666667152,
      "v": 37
    },
    {
      "midi": 54,
      "hit": false,
      "t": 77697.91666666664,
      "d": 500,
      "v": 41
    },
    {
      "midi": 64,
      "hit": false,
      "t": 77729.16666666664,
      "d": 447.9166666666715,
      "v": 53
    },
    {
      "midi": 57,
      "hit": false,
      "t": 77739.58333333331,
      "d": 302.0833333333285,
      "v": 56
    },
    {
      "midi": 57,
      "hit": false,
      "t": 78208.33333333331,
      "d": 135.41666666667152,
      "v": 53
    },
    {
      "midi": 54,
      "hit": false,
      "t": 78458.33333333331,
      "d": 333.3333333333285,
      "v": 88
    },
    {
      "midi": 57,
      "hit": false,
      "t": 78791.66666666664,
      "d": 270.8333333333285,
      "v": 44
    },
    {
      "midi": 61,
      "hit": false,
      "t": 79010.41666666664,
      "d": 322.91666666665697,
      "v": 79
    },
    {
      "midi": 64,
      "hit": false,
      "t": 79302.0833333333,
      "d": 250,
      "v": 88
    },
    {
      "midi": 61,
      "hit": false,
      "t": 79572.91666666663,
      "d": 770.833333333343,
      "v": 36
    },
    {
      "midi": 57,
      "hit": false,
      "t": 79833.3333333333,
      "d": 395.83333333334303,
      "v": 65
    },
    {
      "midi": 59,
      "hit": false,
      "t": 79833.3333333333,
      "d": 395.83333333334303,
      "v": 56
    },
    {
      "midi": 64,
      "hit": false,
      "t": 79833.3333333333,
      "d": 520.833333333343,
      "v": 71
    },
    {
      "midi": 47,
      "hit": false,
      "t": 79843.74999999997,
      "d": 2000.0000000000146,
      "v": 53
    },
    {
      "midi": 57,
      "hit": false,
      "t": 80374.99999999997,
      "d": 114.58333333332848,
      "v": 38
    },
    {
      "midi": 59,
      "hit": false,
      "t": 80374.99999999997,
      "d": 114.58333333332848,
      "v": 35
    },
    {
      "midi": 57,
      "hit": false,
      "t": 80999.99999999997,
      "d": 239.58333333332848,
      "v": 1
    },
    {
      "midi": 59,
      "hit": false,
      "t": 81010.41666666664,
      "d": 229.16666666665697,
      "v": 1
    },
    {
      "midi": 61,
      "hit": false,
      "t": 81187.49999999997,
      "d": 416.6666666666715,
      "v": 50
    },
    {
      "midi": 64,
      "hit": false,
      "t": 81499.99999999997,
      "d": 260.4166666666715,
      "v": 71
    },
    {
      "midi": 54,
      "hit": false,
      "t": 81833.33333333331,
      "d": 83.33333333334303,
      "v": 82
    },
    {
      "midi": 57,
      "hit": false,
      "t": 82218.74999999999,
      "d": 385.4166666666715,
      "v": 42
    },
    {
      "midi": 63,
      "hit": false,
      "t": 82218.74999999999,
      "d": 395.83333333334303,
      "v": 35
    },
    {
      "midi": 59,
      "hit": false,
      "t": 82229.16666666666,
      "d": 385.4166666666715,
      "v": 41
    },
    {
      "midi": 47,
      "hit": false,
      "t": 82229.16666666666,
      "d": 1583.333333333343,
      "v": 71
    },
    {
      "midi": 54,
      "hit": false,
      "t": 82812.5,
      "d": 1000,
      "v": 38
    },
    {
      "midi": 63,
      "hit": false,
      "t": 83104.16666666667,
      "d": 1125,
      "v": 42
    },
    {
      "midi": 59,
      "hit": false,
      "t": 83468.75,
      "d": 354.1666666666715,
      "v": 31
    },
    {
      "midi": 71,
      "hit": false,
      "t": 83479.16666666667,
      "d": 760.4166666666715,
      "v": 53
    },
    {
      "midi": 56,
      "hit": false,
      "t": 86000.00000000001,
      "d": 343.75,
      "v": 102
    },
    {
      "midi": 64,
      "hit": false,
      "t": 86000.00000000001,
      "d": 479.16666666665697,
      "v": 100
    },
    {
      "midi": 59,
      "hit": false,
      "t": 86000.00000000001,
      "d": 510.41666666665697,
      "v": 114
    },
    {
      "midi": 28,
      "hit": false,
      "t": 86000.00000000001,
      "d": 645.8333333333285,
      "v": 77
    },
    {
      "midi": 56,
      "hit": false,
      "t": 86458.33333333334,
      "d": 83.33333333332848,
      "v": 53
    },
    {
      "midi": 40,
      "hit": false,
      "t": 86697.91666666667,
      "d": 593.75,
      "v": 91
    },
    {
      "midi": 64,
      "hit": false,
      "t": 86947.91666666667,
      "d": 145.83333333332848,
      "v": 53
    },
    {
      "midi": 66,
      "hit": false,
      "t": 87177.08333333333,
      "d": 104.16666666667152,
      "v": 44
    },
    {
      "midi": 64,
      "hit": false,
      "t": 87458.33333333334,
      "d": 93.75,
      "v": 44
    },
    {
      "midi": 71,
      "hit": false,
      "t": 87677.08333333334,
      "d": 208.33333333332848,
      "v": 100
    },
    {
      "midi": 68,
      "hit": false,
      "t": 87906.25,
      "d": 187.5,
      "v": 62
    },
    {
      "midi": 64,
      "hit": false,
      "t": 87916.66666666667,
      "d": 145.83333333332848,
      "v": 85
    },
    {
      "midi": 66,
      "hit": false,
      "t": 88145.83333333333,
      "d": 187.5,
      "v": 62
    },
    {
      "midi": 64,
      "hit": false,
      "t": 88406.25,
      "d": 62.5,
      "v": 41
    },
    {
      "midi": 40,
      "hit": false,
      "t": 88687.5,
      "d": 312.5,
      "v": 94
    },
    {
      "midi": 56,
      "hit": false,
      "t": 88895.83333333333,
      "d": 177.08333333334303,
      "v": 98
    },
    {
      "midi": 59,
      "hit": false,
      "t": 89114.58333333334,
      "d": 239.58333333332848,
      "v": 107
    },
    {
      "midi": 64,
      "hit": false,
      "t": 89364.58333333334,
      "d": 104.16666666667152,
      "v": 113
    },
    {
      "midi": 35,
      "hit": false,
      "t": 89562.50000000001,
      "d": 156.25,
      "v": 42
    },
    {
      "midi": 66,
      "hit": false,
      "t": 89635.41666666669,
      "d": 52.08333333332848,
      "v": 48
    },
    {
      "midi": 59,
      "hit": false,
      "t": 89895.83333333334,
      "d": 354.1666666666715,
      "v": 29
    },
    {
      "midi": 40,
      "hit": false,
      "t": 89895.83333333334,
      "d": 500,
      "v": 44
    },
    {
      "midi": 28,
      "hit": false,
      "t": 89906.25000000001,
      "d": 375,
      "v": 73
    },
    {
      "midi": 68,
      "hit": false,
      "t": 89906.25000000001,
      "d": 468.75,
      "v": 107
    },
    {
      "midi": 64,
      "hit": false,
      "t": 90166.66666666669,
      "d": 208.33333333332848,
      "v": 53
    },
    {
      "midi": 59,
      "hit": false,
      "t": 90416.66666666667,
      "d": 72.91666666667152,
      "v": 59
    },
    {
      "midi": 64,
      "hit": false,
      "t": 90833.33333333334,
      "d": 114.58333333332848,
      "v": 59
    },
    {
      "midi": 66,
      "hit": false,
      "t": 91031.25,
      "d": 218.75,
      "v": 38
    },
    {
      "midi": 64,
      "hit": false,
      "t": 91322.91666666667,
      "d": 83.33333333332848,
      "v": 26
    },
    {
      "midi": 52,
      "hit": false,
      "t": 91541.66666666667,
      "d": 343.75,
      "v": 77
    },
    {
      "midi": 64,
      "hit": false,
      "t": 91760.41666666667,
      "d": 187.5,
      "v": 79
    },
    {
      "midi": 71,
      "hit": false,
      "t": 91760.41666666667,
      "d": 250,
      "v": 98
    },
    {
      "midi": 68,
      "hit": false,
      "t": 91760.41666666667,
      "d": 291.6666666666715,
      "v": 94
    },
    {
      "midi": 66,
      "hit": false,
      "t": 91989.58333333334,
      "d": 239.58333333332848,
      "v": 42
    },
    {
      "midi": 64,
      "hit": false,
      "t": 92239.58333333334,
      "d": 156.25,
      "v": 56
    },
    {
      "midi": 66,
      "hit": false,
      "t": 92468.75000000001,
      "d": 510.4166666666715,
      "v": 79
    },
    {
      "midi": 39,
      "hit": false,
      "t": 92739.58333333336,
      "d": 541.666666666657,
      "v": 114
    },
    {
      "midi": 64,
      "hit": false,
      "t": 92947.91666666669,
      "d": 177.08333333332848,
      "v": 79
    },
    {
      "midi": 66,
      "hit": false,
      "t": 93208.33333333334,
      "d": 83.33333333334303,
      "v": 65
    },
    {
      "midi": 60,
      "hit": false,
      "t": 93520.83333333336,
      "d": 20.833333333328483,
      "v": 56
    },
    {
      "midi": 59,
      "hit": false,
      "t": 93520.83333333336,
      "d": 812.5,
      "v": 71
    },
    {
      "midi": 37,
      "hit": false,
      "t": 93760.41666666669,
      "d": 729.1666666666715,
      "v": 98
    },
    {
      "midi": 56,
      "hit": false,
      "t": 93770.83333333336,
      "d": 375,
      "v": 91
    },
    {
      "midi": 61,
      "hit": false,
      "t": 93770.83333333336,
      "d": 562.5,
      "v": 88
    },
    {
      "midi": 64,
      "hit": false,
      "t": 93791.66666666669,
      "d": 510.4166666666715,
      "v": 95
    },
    {
      "midi": 56,
      "hit": false,
      "t": 94281.25000000003,
      "d": 104.16666666665697,
      "v": 59
    },
    {
      "midi": 59,
      "hit": false,
      "t": 94697.91666666669,
      "d": 218.75,
      "v": 65
    },
    {
      "midi": 64,
      "hit": false,
      "t": 94937.50000000001,
      "d": 197.91666666667152,
      "v": 31
    },
    {
      "midi": 59,
      "hit": false,
      "t": 95177.08333333336,
      "d": 270.8333333333285,
      "v": 67
    },
    {
      "midi": 66,
      "hit": false,
      "t": 95187.50000000003,
      "d": 83.33333333332848,
      "v": 44
    },
    {
      "midi": 66,
      "hit": false,
      "t": 95354.16666666669,
      "d": 229.16666666667152,
      "v": 42
    },
    {
      "midi": 49,
      "hit": false,
      "t": 95593.75000000003,
      "d": 343.75,
      "v": 98
    },
    {
      "midi": 59,
      "hit": false,
      "t": 95854.1666666667,
      "d": 177.08333333332848,
      "v": 59
    },
    {
      "midi": 64,
      "hit": false,
      "t": 96072.9166666667,
      "d": 218.75,
      "v": 95
    },
    {
      "midi": 68,
      "hit": false,
      "t": 96322.9166666667,
      "d": 270.8333333333285,
      "v": 91
    },
    {
      "midi": 59,
      "hit": false,
      "t": 96541.6666666667,
      "d": 250,
      "v": 113
    },
    {
      "midi": 66,
      "hit": false,
      "t": 96541.6666666667,
      "d": 260.4166666666715,
      "v": 108
    },
    {
      "midi": 64,
      "hit": false,
      "t": 96750.00000000003,
      "d": 208.33333333334303,
      "v": 91
    },
    {
      "midi": 59,
      "hit": false,
      "t": 96989.58333333337,
      "d": 83.33333333332848,
      "v": 85
    },
    {
      "midi": 59,
      "hit": false,
      "t": 97208.33333333337,
      "d": 833.333333333343,
      "v": 50
    },
    {
      "midi": 37,
      "hit": false,
      "t": 97260.4166666667,
      "d": 104.16666666667152,
      "v": 44
    },
    {
      "midi": 61,
      "hit": false,
      "t": 97489.58333333337,
      "d": 604.1666666666715,
      "v": 91
    },
    {
      "midi": 56,
      "hit": false,
      "t": 97510.4166666667,
      "d": 302.08333333334303,
      "v": 88
    },
    {
      "midi": 64,
      "hit": false,
      "t": 97510.4166666667,
      "d": 760.4166666666861,
      "v": 95
    },
    {
      "midi": 37,
      "hit": false,
      "t": 97520.83333333337,
      "d": 1031.250000000029,
      "v": 100
    },
    {
      "midi": 56,
      "hit": false,
      "t": 98010.41666666672,
      "d": 208.33333333332848,
      "v": 50
    },
    {
      "midi": 59,
      "hit": false,
      "t": 98229.16666666672,
      "d": 208.33333333334303,
      "v": 59
    },
    {
      "midi": 56,
      "hit": false,
      "t": 98447.91666666673,
      "d": 145.83333333334303,
      "v": 43
    },
    {
      "midi": 59,
      "hit": false,
      "t": 98677.0833333334,
      "d": 145.83333333332848,
      "v": 34
    },
    {
      "midi": 25,
      "hit": false,
      "t": 99354.16666666673,
      "d": 343.75,
      "v": 65
    },
    {
      "midi": 59,
      "hit": false,
      "t": 99572.91666666673,
      "d": 291.6666666666715,
      "v": 48
    },
    {
      "midi": 64,
      "hit": false,
      "t": 99833.3333333334,
      "d": 156.25,
      "v": 71
    },
    {
      "midi": 68,
      "hit": false,
      "t": 100062.50000000007,
      "d": 562.5,
      "v": 79
    },
    {
      "midi": 59,
      "hit": false,
      "t": 100312.50000000007,
      "d": 343.75,
      "v": 95
    },
    {
      "midi": 66,
      "hit": false,
      "t": 100312.50000000007,
      "d": 437.5,
      "v": 94
    },
    {
      "midi": 33,
      "hit": false,
      "t": 100322.91666666674,
      "d": 458.3333333333285,
      "v": 53
    },
    {
      "midi": 64,
      "hit": false,
      "t": 100562.50000000007,
      "d": 218.75,
      "v": 77
    },
    {
      "midi": 59,
      "hit": false,
      "t": 100791.66666666674,
      "d": 114.58333333332848,
      "v": 73
    },
    {
      "midi": 59,
      "hit": false,
      "t": 100979.16666666674,
      "d": 760.4166666666715,
      "v": 100
    },
    {
      "midi": 64,
      "hit": false,
      "t": 101260.41666666674,
      "d": 489.58333333334303,
      "v": 103
    },
    {
      "midi": 61,
      "hit": false,
      "t": 101260.41666666674,
      "d": 500.00000000001455,
      "v": 102
    },
    {
      "midi": 57,
      "hit": false,
      "t": 101270.83333333342,
      "d": 343.75,
      "v": 107
    },
    {
      "midi": 33,
      "hit": false,
      "t": 101270.83333333342,
      "d": 1343.7500000000146,
      "v": 100
    },
    {
      "midi": 57,
      "hit": false,
      "t": 101739.58333333342,
      "d": 93.75000000001455,
      "v": 73
    },
    {
      "midi": 45,
      "hit": false,
      "t": 102177.08333333343,
      "d": 447.9166666666715,
      "v": 82
    },
    {
      "midi": 69,
      "hit": false,
      "t": 102197.91666666676,
      "d": 166.66666666667152,
      "v": 73
    },
    {
      "midi": 71,
      "hit": false,
      "t": 102395.83333333343,
      "d": 229.16666666667152,
      "v": 50
    },
    {
      "midi": 69,
      "hit": false,
      "t": 102645.83333333343,
      "d": 72.91666666667152,
      "v": 42
    },
    {
      "midi": 73,
      "hit": false,
      "t": 102843.7500000001,
      "d": 104.16666666667152,
      "v": 62
    },
    {
      "midi": 76,
      "hit": false,
      "t": 103072.91666666677,
      "d": 218.75,
      "v": 102
    },
    {
      "midi": 69,
      "hit": false,
      "t": 103083.33333333344,
      "d": 208.33333333332848,
      "v": 65
    },
    {
      "midi": 73,
      "hit": false,
      "t": 103291.66666666677,
      "d": 187.5,
      "v": 65
    },
    {
      "midi": 71,
      "hit": false,
      "t": 103510.41666666677,
      "d": 93.75,
      "v": 82
    },
    {
      "midi": 45,
      "hit": false,
      "t": 104010.41666666677,
      "d": 468.74999999998545,
      "v": 91
    },
    {
      "midi": 57,
      "hit": false,
      "t": 104250.0000000001,
      "d": 177.08333333332848,
      "v": 77
    },
    {
      "midi": 59,
      "hit": false,
      "t": 104479.16666666676,
      "d": 156.25,
      "v": 95
    },
    {
      "midi": 40,
      "hit": false,
      "t": 104708.33333333343,
      "d": 260.4166666666715,
      "v": 62
    },
    {
      "midi": 61,
      "hit": false,
      "t": 104708.33333333343,
      "d": 833.3333333333576,
      "v": 108
    },
    {
      "midi": 33,
      "hit": false,
      "t": 104979.16666666677,
      "d": 604.1666666666861,
      "v": 71
    },
    {
      "midi": 57,
      "hit": false,
      "t": 104989.58333333344,
      "d": 333.33333333334303,
      "v": 95
    },
    {
      "midi": 64,
      "hit": false,
      "t": 104989.58333333344,
      "d": 500,
      "v": 98
    },
    {
      "midi": 59,
      "hit": false,
      "t": 104989.58333333344,
      "d": 541.6666666666715,
      "v": 95
    },
    {
      "midi": 57,
      "hit": false,
      "t": 105468.75000000012,
      "d": 104.16666666667152,
      "v": 50
    },
    {
      "midi": 45,
      "hit": false,
      "t": 105687.50000000013,
      "d": 697.9166666666715,
      "v": 44
    },
    {
      "midi": 61,
      "hit": false,
      "t": 105916.6666666668,
      "d": 187.5,
      "v": 62
    },
    {
      "midi": 64,
      "hit": false,
      "t": 106135.4166666668,
      "d": 166.66666666667152,
      "v": 28
    },
    {
      "midi": 61,
      "hit": false,
      "t": 106354.1666666668,
      "d": 104.16666666667152,
      "v": 42
    },
    {
      "midi": 45,
      "hit": false,
      "t": 106593.75000000015,
      "d": 739.5833333333576,
      "v": 82
    },
    {
      "midi": 64,
      "hit": false,
      "t": 106822.91666666682,
      "d": 427.08333333334303,
      "v": 110
    },
    {
      "midi": 61,
      "hit": false,
      "t": 106833.33333333349,
      "d": 281.25,
      "v": 110
    },
    {
      "midi": 69,
      "hit": false,
      "t": 106833.33333333349,
      "d": 427.08333333334303,
      "v": 103
    },
    {
      "midi": 61,
      "hit": false,
      "t": 107250.00000000016,
      "d": 145.83333333334303,
      "v": 56
    },
    {
      "midi": 45,
      "hit": false,
      "t": 107468.75000000017,
      "d": 260.4166666666715,
      "v": 50
    },
    {
      "midi": 64,
      "hit": false,
      "t": 107479.16666666685,
      "d": 770.833333333343,
      "v": 77
    },
    {
      "midi": 61,
      "hit": false,
      "t": 107739.58333333352,
      "d": 187.5,
      "v": 98
    },
    {
      "midi": 68,
      "hit": false,
      "t": 107739.58333333352,
      "d": 385.4166666666715,
      "v": 79
    },
    {
      "midi": 44,
      "hit": false,
      "t": 107739.58333333352,
      "d": 479.1666666666715,
      "v": 98
    },
    {
      "midi": 61,
      "hit": false,
      "t": 107979.16666666686,
      "d": 125,
      "v": 38
    },
    {
      "midi": 61,
      "hit": false,
      "t": 108270.83333333352,
      "d": 72.91666666667152,
      "v": 100
    },
    {
      "midi": 61,
      "hit": false,
      "t": 108458.33333333352,
      "d": 770.8333333333285,
      "v": 73
    },
    {
      "midi": 42,
      "hit": false,
      "t": 108739.58333333352,
      "d": 520.8333333333285,
      "v": 91
    },
    {
      "midi": 30,
      "hit": false,
      "t": 108739.58333333352,
      "d": 531.25,
      "v": 67
    },
    {
      "midi": 57,
      "hit": false,
      "t": 108750.00000000019,
      "d": 333.3333333333285,
      "v": 85
    },
    {
      "midi": 68,
      "hit": false,
      "t": 108750.00000000019,
      "d": 458.3333333333285,
      "v": 108
    },
    {
      "midi": 57,
      "hit": false,
      "t": 109208.33333333352,
      "d": 166.66666666667152,
      "v": 77
    },
    {
      "midi": 61,
      "hit": false,
      "t": 109406.25000000019,
      "d": 52.08333333332848,
      "v": 79
    },
    {
      "midi": 42,
      "hit": false,
      "t": 109677.08333333352,
      "d": 468.75,
      "v": 82
    },
    {
      "midi": 57,
      "hit": false,
      "t": 109895.83333333352,
      "d": 156.25,
      "v": 50
    },
    {
      "midi": 61,
      "hit": false,
      "t": 110125.00000000019,
      "d": 187.5,
      "v": 53
    },
    {
      "midi": 57,
      "hit": false,
      "t": 110385.41666666686,
      "d": 83.33333333332848,
      "v": 19
    },
    {
      "midi": 57,
      "hit": false,
      "t": 110614.58333333352,
      "d": 354.1666666666715,
      "v": 88
    },
    {
      "midi": 64,
      "hit": false,
      "t": 110614.58333333352,
      "d": 437.5,
      "v": 103
    },
    {
      "midi": 57,
      "hit": false,
      "t": 111072.91666666685,
      "d": 166.66666666667152,
      "v": 42
    },
    {
      "midi": 42,
      "hit": false,
      "t": 111312.50000000019,
      "d": 510.4166666666715,
      "v": 73
    },
    {
      "midi": 57,
      "hit": false,
      "t": 111583.33333333352,
      "d": 270.83333333334303,
      "v": 59
    },
    {
      "midi": 61,
      "hit": false,
      "t": 111812.50000000019,
      "d": 281.25,
      "v": 100
    },
    {
      "midi": 64,
      "hit": false,
      "t": 112041.66666666686,
      "d": 135.41666666665697,
      "v": 82
    },
    {
      "midi": 30,
      "hit": false,
      "t": 112239.58333333352,
      "d": 166.66666666667152,
      "v": 41
    },
    {
      "midi": 61,
      "hit": false,
      "t": 112531.25000000019,
      "d": 1197.9166666667006,
      "v": 65
    },
    {
      "midi": 64,
      "hit": false,
      "t": 112541.66666666686,
      "d": 1093.7500000000146,
      "v": 50
    },
    {
      "midi": 59,
      "hit": false,
      "t": 112552.08333333353,
      "d": 1125.0000000000146,
      "v": 67
    },
    {
      "midi": 57,
      "hit": false,
      "t": 112552.08333333353,
      "d": 1135.416666666686,
      "v": 79
    },
    {
      "midi": 35,
      "hit": false,
      "t": 112562.5000000002,
      "d": 3656.25,
      "v": 62
    },
    {
      "midi": 63,
      "hit": false,
      "t": 114468.75000000022,
      "d": 354.16666666665697,
      "v": 13
    },
    {
      "midi": 71,
      "hit": false,
      "t": 114500.00000000022,
      "d": 343.74999999998545,
      "v": 14
    },
    {
      "midi": 47,
      "hit": false,
      "t": 114520.83333333355,
      "d": 1645.8333333333285,
      "v": 12
    },
    {
      "midi": 71,
      "hit": false,
      "t": 115729.16666666688,
      "d": 312.5,
      "v": 1
    },
    {
      "midi": 83,
      "hit": false,
      "t": 115750.0000000002,
      "d": 260.4166666666715,
      "v": 22
    },
    {
      "midi": 40,
      "hit": false,
      "t": 118875.0000000002,
      "d": 1916.666666666686,
      "v": 85
    },
    {
      "midi": 66,
      "hit": false,
      "t": 118885.41666666688,
      "d": 364.5833333333285,
      "v": 108
    },
    {
      "midi": 56,
      "hit": false,
      "t": 118895.83333333355,
      "d": 177.08333333332848,
      "v": 98
    },
    {
      "midi": 59,
      "hit": false,
      "t": 118895.83333333355,
      "d": 291.66666666665697,
      "v": 108
    },
    {
      "midi": 56,
      "hit": false,
      "t": 119135.41666666688,
      "d": 208.33333333332848,
      "v": 56
    },
    {
      "midi": 59,
      "hit": false,
      "t": 119395.83333333353,
      "d": 322.9166666666715,
      "v": 82
    },
    {
      "midi": 64,
      "hit": false,
      "t": 119645.83333333353,
      "d": 208.33333333334303,
      "v": 95
    },
    {
      "midi": 56,
      "hit": false,
      "t": 119885.41666666688,
      "d": 72.91666666667152,
      "v": 62
    },
    {
      "midi": 71,
      "hit": false,
      "t": 120156.25000000022,
      "d": 197.91666666667152,
      "v": 42
    },
    {
      "midi": 66,
      "hit": false,
      "t": 120635.41666666689,
      "d": 125,
      "v": 62
    },
    {
      "midi": 56,
      "hit": false,
      "t": 121395.83333333356,
      "d": 62.5,
      "v": 41
    },
    {
      "midi": 59,
      "hit": false,
      "t": 121604.16666666689,
      "d": 531.25,
      "v": 85
    },
    {
      "midi": 56,
      "hit": false,
      "t": 122041.66666666689,
      "d": 166.66666666667152,
      "v": 67
    },
    {
      "midi": 64,
      "hit": false,
      "t": 122052.08333333356,
      "d": 218.75,
      "v": 73
    },
    {
      "midi": 59,
      "hit": false,
      "t": 122281.25000000023,
      "d": 177.08333333332848,
      "v": 95
    },
    {
      "midi": 56,
      "hit": false,
      "t": 122500.00000000023,
      "d": 104.16666666665697,
      "v": 102
    },
    {
      "midi": 59,
      "hit": false,
      "t": 122520.83333333356,
      "d": 31.25,
      "v": 29
    },
    {
      "midi": 28,
      "hit": false,
      "t": 122760.41666666689,
      "d": 625.0000000000146,
      "v": 77
    },
    {
      "midi": 56,
      "hit": false,
      "t": 122770.83333333356,
      "d": 333.33333333334303,
      "v": 65
    },
    {
      "midi": 59,
      "hit": false,
      "t": 122770.83333333356,
      "d": 510.4166666666715,
      "v": 103
    },
    {
      "midi": 66,
      "hit": false,
      "t": 122781.25000000023,
      "d": 479.1666666666715,
      "v": 102
    },
    {
      "midi": 56,
      "hit": false,
      "t": 123250.00000000023,
      "d": 145.83333333334303,
      "v": 82
    },
    {
      "midi": 64,
      "hit": false,
      "t": 123479.1666666669,
      "d": 156.25,
      "v": 107
    },
    {
      "midi": 56,
      "hit": false,
      "t": 123718.75000000023,
      "d": 72.91666666667152,
      "v": 34
    },
    {
      "midi": 64,
      "hit": false,
      "t": 124208.33333333358,
      "d": 72.91666666667152,
      "v": 56
    },
    {
      "midi": 71,
      "hit": false,
      "t": 124395.83333333358,
      "d": 208.33333333332848,
      "v": 103
    },
    {
      "midi": 66,
      "hit": false,
      "t": 124625.00000000023,
      "d": 93.75,
      "v": 43
    },
    {
      "midi": 64,
      "hit": false,
      "t": 124656.25000000023,
      "d": 104.16666666667152,
      "v": 53
    },
    {
      "midi": 40,
      "hit": false,
      "t": 124656.25000000023,
      "d": 395.83333333334303,
      "v": 77
    },
    {
      "midi": 56,
      "hit": false,
      "t": 125125.00000000025,
      "d": 177.08333333332848,
      "v": 36
    },
    {
      "midi": 59,
      "hit": false,
      "t": 125354.1666666669,
      "d": 385.4166666666715,
      "v": 65
    },
    {
      "midi": 56,
      "hit": false,
      "t": 125614.58333333358,
      "d": 250,
      "v": 108
    },
    {
      "midi": 39,
      "hit": false,
      "t": 125614.58333333358,
      "d": 583.3333333333285,
      "v": 108
    },
    {
      "midi": 59,
      "hit": false,
      "t": 125822.9166666669,
      "d": 302.0833333333285,
      "v": 53
    },
    {
      "midi": 64,
      "hit": false,
      "t": 126062.50000000023,
      "d": 239.58333333334303,
      "v": 107
    },
    {
      "midi": 59,
      "hit": false,
      "t": 126302.08333333358,
      "d": 687.5000000000146,
      "v": 103
    },
    {
      "midi": 56,
      "hit": false,
      "t": 126312.50000000025,
      "d": 72.91666666667152,
      "v": 41
    },
    {
      "midi": 56,
      "hit": false,
      "t": 126531.25000000026,
      "d": 187.5,
      "v": 82
    },
    {
      "midi": 61,
      "hit": false,
      "t": 126531.25000000026,
      "d": 395.8333333333285,
      "v": 102
    },
    {
      "midi": 37,
      "hit": false,
      "t": 126541.66666666693,
      "d": 2125,
      "v": 110
    },
    {
      "midi": 56,
      "hit": false,
      "t": 127031.25000000026,
      "d": 52.08333333332848,
      "v": 20
    },
    {
      "midi": 68,
      "hit": false,
      "t": 127239.58333333359,
      "d": 166.66666666667152,
      "v": 38
    },
    {
      "midi": 59,
      "hit": false,
      "t": 127468.75000000026,
      "d": 281.25,
      "v": 71
    },
    {
      "midi": 64,
      "hit": false,
      "t": 127708.33333333359,
      "d": 156.25,
      "v": 85
    },
    {
      "midi": 75,
      "hit": false,
      "t": 128218.75000000026,
      "d": 187.5,
      "v": 110
    },
    {
      "midi": 64,
      "hit": false,
      "t": 128437.50000000026,
      "d": 156.25,
      "v": 43
    },
    {
      "midi": 68,
      "hit": false,
      "t": 128656.25000000026,
      "d": 177.08333333334303,
      "v": 35
    },
    {
      "midi": 71,
      "hit": false,
      "t": 129125.00000000028,
      "d": 260.4166666666715,
      "v": 95
    },
    {
      "midi": 64,
      "hit": false,
      "t": 129416.66666666695,
      "d": 104.16666666667152,
      "v": 6
    },
    {
      "midi": 49,
      "hit": false,
      "t": 129458.33333333362,
      "d": 41.66666666667152,
      "v": 12
    },
    {
      "midi": 68,
      "hit": false,
      "t": 129572.91666666695,
      "d": 62.5,
      "v": 59
    },
    {
      "midi": 49,
      "hit": false,
      "t": 129833.33333333362,
      "d": 125,
      "v": 62
    },
    {
      "midi": 44,
      "hit": false,
      "t": 130041.66666666695,
      "d": 270.83333333334303,
      "v": 44
    },
    {
      "midi": 59,
      "hit": false,
      "t": 130114.58333333362,
      "d": 708.3333333333576,
      "v": 22
    },
    {
      "midi": 61,
      "hit": false,
      "t": 130322.91666666696,
      "d": 510.41666666668607,
      "v": 102
    },
    {
      "midi": 56,
      "hit": false,
      "t": 130333.33333333363,
      "d": 343.75,
      "v": 62
    },
    {
      "midi": 37,
      "hit": false,
      "t": 130333.33333333363,
      "d": 500.00000000001455,
      "v": 73
    },
    {
      "midi": 64,
      "hit": false,
      "t": 130343.7500000003,
      "d": 468.75,
      "v": 91
    },
    {
      "midi": 49,
      "hit": false,
      "t": 130364.58333333363,
      "d": 322.9166666666715,
      "v": 88
    },
    {
      "midi": 56,
      "hit": false,
      "t": 130812.5000000003,
      "d": 156.25000000001455,
      "v": 44
    },
    {
      "midi": 59,
      "hit": false,
      "t": 131031.25000000032,
      "d": 187.4999999999709,
      "v": 82
    },
    {
      "midi": 37,
      "hit": false,
      "t": 131104.16666666698,
      "d": 41.666666666656965,
      "v": 19
    },
    {
      "midi": 56,
      "hit": false,
      "t": 131260.41666666695,
      "d": 62.5,
      "v": 38
    },
    {
      "midi": 68,
      "hit": false,
      "t": 131489.5833333336,
      "d": 250,
      "v": 53
    },
    {
      "midi": 59,
      "hit": false,
      "t": 131687.50000000026,
      "d": 604.1666666666861,
      "v": 59
    },
    {
      "midi": 64,
      "hit": false,
      "t": 131916.66666666695,
      "d": 406.25,
      "v": 98
    },
    {
      "midi": 37,
      "hit": false,
      "t": 132156.2500000003,
      "d": 479.16666666662786,
      "v": 107
    },
    {
      "midi": 25,
      "hit": false,
      "t": 132166.66666666695,
      "d": 312.5,
      "v": 91
    },
    {
      "midi": 59,
      "hit": false,
      "t": 132395.8333333336,
      "d": 229.16666666665697,
      "v": 59
    },
    {
      "midi": 64,
      "hit": false,
      "t": 132614.5833333336,
      "d": 187.4999999999709,
      "v": 35
    },
    {
      "midi": 68,
      "hit": false,
      "t": 132854.16666666692,
      "d": 510.41666666668607,
      "v": 43
    },
    {
      "midi": 66,
      "hit": false,
      "t": 133093.75000000026,
      "d": 354.16666666665697,
      "v": 31
    },
    {
      "midi": 35,
      "hit": false,
      "t": 133093.75000000026,
      "d": 531.2499999999709,
      "v": 71
    },
    {
      "midi": 59,
      "hit": false,
      "t": 133104.16666666692,
      "d": 270.83333333334303,
      "v": 73
    },
    {
      "midi": 64,
      "hit": false,
      "t": 133312.50000000026,
      "d": 208.33333333331393,
      "v": 82
    },
    {
      "midi": 59,
      "hit": false,
      "t": 133552.08333333358,
      "d": 104.16666666665697,
      "v": 88
    },
    {
      "midi": 59,
      "hit": false,
      "t": 133750.00000000023,
      "d": 281.25,
      "v": 98
    },
    {
      "midi": 33,
      "hit": false,
      "t": 134052.08333333358,
      "d": 3156.249999999971,
      "v": 103
    },
    {
      "midi": 57,
      "hit": false,
      "t": 134062.50000000023,
      "d": 260.41666666665697,
      "v": 77
    },
    {
      "midi": 59,
      "hit": false,
      "t": 134062.50000000023,
      "d": 447.91666666665697,
      "v": 65
    },
    {
      "midi": 57,
      "hit": false,
      "t": 134531.25000000023,
      "d": 197.91666666665697,
      "v": 50
    },
    {
      "midi": 64,
      "hit": false,
      "t": 134760.4166666669,
      "d": 229.16666666665697,
      "v": 107
    },
    {
      "midi": 57,
      "hit": false,
      "t": 134979.1666666669,
      "d": 135.41666666665697,
      "v": 56
    },
    {
      "midi": 61,
      "hit": false,
      "t": 135197.9166666669,
      "d": 281.25,
      "v": 79
    },
    {
      "midi": 57,
      "hit": false,
      "t": 135218.75000000023,
      "d": 250,
      "v": 53
    },
    {
      "midi": 59,
      "hit": false,
      "t": 135437.50000000023,
      "d": 197.91666666665697,
      "v": 98
    },
    {
      "midi": 57,
      "hit": false,
      "t": 135666.6666666669,
      "d": 83.33333333334303,
      "v": 88
    },
    {
      "midi": 45,
      "hit": false,
      "t": 135916.6666666669,
      "d": 1156.25,
      "v": 94
    },
    {
      "midi": 61,
      "hit": false,
      "t": 136114.58333333355,
      "d": 156.25,
      "v": 59
    },
    {
      "midi": 64,
      "hit": false,
      "t": 136333.33333333355,
      "d": 302.08333333334303,
      "v": 43
    },
    {
      "midi": 69,
      "hit": false,
      "t": 136572.9166666669,
      "d": 416.66666666665697,
      "v": 102
    },
    {
      "midi": 64,
      "hit": false,
      "t": 137020.83333333355,
      "d": 208.33333333334303,
      "v": 59
    },
    {
      "midi": 61,
      "hit": false,
      "t": 137250.00000000023,
      "d": 93.75,
      "v": 73
    },
    {
      "midi": 59,
      "hit": false,
      "t": 137468.75000000023,
      "d": 750,
      "v": 100
    },
    {
      "midi": 57,
      "hit": false,
      "t": 137708.33333333358,
      "d": 333.33333333331393,
      "v": 102
    },
    {
      "midi": 64,
      "hit": false,
      "t": 137708.33333333358,
      "d": 468.75,
      "v": 107
    },
    {
      "midi": 61,
      "hit": false,
      "t": 137708.33333333358,
      "d": 520.8333333333139,
      "v": 98
    },
    {
      "midi": 33,
      "hit": false,
      "t": 137718.75000000023,
      "d": 2156.25,
      "v": 100
    },
    {
      "midi": 57,
      "hit": false,
      "t": 138156.25000000023,
      "d": 197.91666666665697,
      "v": 59
    },
    {
      "midi": 45,
      "hit": false,
      "t": 138385.4166666669,
      "d": 1385.416666666686,
      "v": 94
    },
    {
      "midi": 57,
      "hit": false,
      "t": 138583.33333333355,
      "d": 218.75,
      "v": 44
    },
    {
      "midi": 59,
      "hit": false,
      "t": 138854.1666666669,
      "d": 239.58333333334303,
      "v": 48
    },
    {
      "midi": 57,
      "hit": false,
      "t": 139093.75000000023,
      "d": 166.66666666665697,
      "v": 62
    },
    {
      "midi": 61,
      "hit": false,
      "t": 139343.75000000023,
      "d": 260.41666666668607,
      "v": 113
    },
    {
      "midi": 57,
      "hit": false,
      "t": 139583.33333333358,
      "d": 177.08333333334303,
      "v": 65
    },
    {
      "midi": 59,
      "hit": false,
      "t": 139802.08333333358,
      "d": 166.66666666665697,
      "v": 94
    },
    {
      "midi": 57,
      "hit": false,
      "t": 140020.83333333358,
      "d": 72.91666666665697,
      "v": 82
    },
    {
      "midi": 45,
      "hit": false,
      "t": 140260.4166666669,
      "d": 489.58333333331393,
      "v": 94
    },
    {
      "midi": 69,
      "hit": false,
      "t": 140479.1666666669,
      "d": 197.91666666665697,
      "v": 79
    },
    {
      "midi": 61,
      "hit": false,
      "t": 140489.58333333355,
      "d": 52.083333333343035,
      "v": 35
    },
    {
      "midi": 64,
      "hit": false,
      "t": 140687.5000000002,
      "d": 218.75,
      "v": 100
    },
    {
      "midi": 61,
      "hit": false,
      "t": 140927.08333333355,
      "d": 104.16666666665697,
      "v": 113
    },
    {
      "midi": 33,
      "hit": false,
      "t": 141125.0000000002,
      "d": 239.58333333334303,
      "v": 71
    },
    {
      "midi": 35,
      "hit": false,
      "t": 141406.2500000002,
      "d": 2718.7499999999127,
      "v": 71
    },
    {
      "midi": 57,
      "hit": false,
      "t": 141416.66666666686,
      "d": 437.5,
      "v": 110
    },
    {
      "midi": 59,
      "hit": false,
      "t": 141416.66666666686,
      "d": 447.91666666665697,
      "v": 103
    },
    {
      "midi": 64,
      "hit": false,
      "t": 141416.66666666686,
      "d": 510.41666666665697,
      "v": 100
    },
    {
      "midi": 57,
      "hit": false,
      "t": 141927.08333333352,
      "d": 72.91666666665697,
      "v": 17
    },
    {
      "midi": 59,
      "hit": false,
      "t": 141937.50000000017,
      "d": 62.5,
      "v": 10
    },
    {
      "midi": 59,
      "hit": false,
      "t": 142322.91666666683,
      "d": 104.16666666665697,
      "v": 44
    },
    {
      "midi": 57,
      "hit": false,
      "t": 142322.91666666683,
      "d": 114.58333333331393,
      "v": 53
    },
    {
      "midi": 61,
      "hit": false,
      "t": 142541.6666666668,
      "d": 197.91666666665697,
      "v": 82
    },
    {
      "midi": 64,
      "hit": false,
      "t": 143010.4166666668,
      "d": 239.58333333331393,
      "v": 88
    },
    {
      "midi": 57,
      "hit": false,
      "t": 143239.58333333346,
      "d": 177.08333333331393,
      "v": 20
    },
    {
      "midi": 61,
      "hit": false,
      "t": 143416.66666666677,
      "d": 229.16666666665697,
      "v": 79
    },
    {
      "midi": 57,
      "hit": false,
      "t": 143666.66666666677,
      "d": 93.75,
      "v": 42
    },
    {
      "midi": 59,
      "hit": false,
      "t": 143666.66666666677,
      "d": 93.75,
      "v": 36
    },
    {
      "midi": 64,
      "hit": false,
      "t": 143916.66666666677,
      "d": 83.33333333334303,
      "v": 56
    },
    {
      "midi": 47,
      "hit": false,
      "t": 144166.66666666677,
      "d": 520.833333333343,
      "v": 65
    },
    {
      "midi": 71,
      "hit": false,
      "t": 144385.41666666677,
      "d": 125,
      "v": 94
    },
    {
      "midi": 61,
      "hit": false,
      "t": 144854.16666666677,
      "d": 291.66666666665697,
      "v": 62
    },
    {
      "midi": 42,
      "hit": false,
      "t": 144864.58333333343,
      "d": 229.16666666665697,
      "v": 43
    },
    {
      "midi": 35,
      "hit": false,
      "t": 145145.83333333343,
      "d": 468.7499999999418,
      "v": 53
    },
    {
      "midi": 63,
      "hit": false,
      "t": 145145.83333333343,
      "d": 468.7499999999418,
      "v": 56
    },
    {
      "midi": 47,
      "hit": false,
      "t": 145145.83333333343,
      "d": 541.6666666665988,
      "v": 44
    },
    {
      "midi": 57,
      "hit": false,
      "t": 145156.2500000001,
      "d": 374.9999999999709,
      "v": 59
    },
    {
      "midi": 59,
      "hit": false,
      "t": 145156.2500000001,
      "d": 385.41666666662786,
      "v": 50
    },
    {
      "midi": 57,
      "hit": false,
      "t": 145604.16666666672,
      "d": 72.91666666665697,
      "v": 41
    },
    {
      "midi": 59,
      "hit": false,
      "t": 145604.16666666672,
      "d": 83.33333333331393,
      "v": 31
    },
    {
      "midi": 47,
      "hit": false,
      "t": 145833.33333333337,
      "d": 458.33333333334303,
      "v": 34
    },
    {
      "midi": 47,
      "hit": false,
      "t": 146572.91666666672,
      "d": 1291.666666666657,
      "v": 26
    },
    {
      "midi": 83,
      "hit": false,
      "t": 147104.16666666672,
      "d": 343.75,
      "v": 50
    },
    {
      "midi": 75,
      "hit": false,
      "t": 147145.83333333337,
      "d": 364.58333333334303,
      "v": 29
    },
    {
      "midi": 78,
      "hit": false,
      "t": 147604.16666666672,
      "d": 322.91666666665697,
      "v": 1
    },
    {
      "midi": 75,
      "hit": false,
      "t": 148197.91666666672,
      "d": 145.83333333334303,
      "v": 14
    },
    {
      "midi": 40,
      "hit": false,
      "t": 149802.0833333334,
      "d": 625,
      "v": 82
    },
    {
      "midi": 52,
      "hit": false,
      "t": 149802.0833333334,
      "d": 770.8333333333139,
      "v": 98
    },
    {
      "midi": 59,
      "hit": false,
      "t": 150072.91666666672,
      "d": 416.66666666668607,
      "v": 38
    },
    {
      "midi": 64,
      "hit": false,
      "t": 150312.50000000006,
      "d": 177.08333333334303,
      "v": 53
    },
    {
      "midi": 68,
      "hit": false,
      "t": 150562.50000000006,
      "d": 197.91666666665697,
      "v": 62
    },
    {
      "midi": 59,
      "hit": false,
      "t": 150843.75000000006,
      "d": 270.83333333334303,
      "v": 16
    },
    {
      "midi": 66,
      "hit": false,
      "t": 151020.8333333334,
      "d": 291.66666666668607,
      "v": 41
    },
    {
      "midi": 59,
      "hit": false,
      "t": 151291.66666666674,
      "d": 104.16666666668607,
      "v": 41
    },
    {
      "midi": 71,
      "hit": false,
      "t": 151562.5000000001,
      "d": 218.75,
      "v": 71
    },
    {
      "midi": 64,
      "hit": false,
      "t": 152062.5000000001,
      "d": 197.91666666665697,
      "v": 37
    },
    {
      "midi": 66,
      "hit": false,
      "t": 152364.5833333334,
      "d": 177.08333333334303,
      "v": 36
    },
    {
      "midi": 52,
      "hit": false,
      "t": 152916.66666666674,
      "d": 322.91666666668607,
      "v": 35
    },
    {
      "midi": 59,
      "hit": false,
      "t": 153125.0000000001,
      "d": 1114.583333333343,
      "v": 35
    },
    {
      "midi": 64,
      "hit": false,
      "t": 153375.0000000001,
      "d": 989.583333333343,
      "v": 42
    },
    {
      "midi": 66,
      "hit": false,
      "t": 153645.83333333343,
      "d": 1000,
      "v": 44
    },
    {
      "midi": 68,
      "hit": false,
      "t": 153947.91666666677,
      "d": 489.58333333331393,
      "v": 59
    },
    {
      "midi": 40,
      "hit": false,
      "t": 153958.33333333343,
      "d": 614.583333333343,
      "v": 62
    },
    {
      "midi": 59,
      "hit": false,
      "t": 154291.66666666677,
      "d": 239.58333333331393,
      "v": 42
    },
    {
      "midi": 64,
      "hit": false,
      "t": 154552.08333333343,
      "d": 218.75,
      "v": 48
    },
    {
      "midi": 59,
      "hit": false,
      "t": 154802.08333333343,
      "d": 83.33333333334303,
      "v": 48
    },
    {
      "midi": 52,
      "hit": false,
      "t": 155052.08333333343,
      "d": 1197.916666666686,
      "v": 62
    },
    {
      "midi": 64,
      "hit": false,
      "t": 155260.41666666677,
      "d": 250,
      "v": 22
    },
    {
      "midi": 71,
      "hit": false,
      "t": 155510.41666666677,
      "d": 260.41666666665697,
      "v": 85
    },
    {
      "midi": 66,
      "hit": false,
      "t": 155760.41666666677,
      "d": 270.83333333334303,
      "v": 62
    },
    {
      "midi": 64,
      "hit": false,
      "t": 156010.41666666677,
      "d": 135.41666666668607,
      "v": 56
    },
    {
      "midi": 66,
      "hit": false,
      "t": 156239.58333333346,
      "d": 62.5,
      "v": 59
    },
    {
      "midi": 52,
      "hit": false,
      "t": 156520.83333333346,
      "d": 895.833333333343,
      "v": 42
    },
    {
      "midi": 68,
      "hit": false,
      "t": 156729.1666666668,
      "d": 500,
      "v": 43
    },
    {
      "midi": 76,
      "hit": false,
      "t": 157020.83333333346,
      "d": 312.5,
      "v": 79
    },
    {
      "midi": 71,
      "hit": false,
      "t": 157291.6666666668,
      "d": 270.83333333331393,
      "v": 65
    },
    {
      "midi": 68,
      "hit": false,
      "t": 157552.08333333346,
      "d": 93.75,
      "v": 62
    },
    {
      "midi": 49,
      "hit": false,
      "t": 158197.9166666668,
      "d": 2343.750000000058,
      "v": 102
    },
    {
      "midi": 56,
      "hit": false,
      "t": 158468.75000000015,
      "d": 291.66666666665697,
      "v": 41
    },
    {
      "midi": 59,
      "hit": false,
      "t": 158718.75000000015,
      "d": 322.91666666665697,
      "v": 36
    },
    {
      "midi": 64,
      "hit": false,
      "t": 158979.1666666668,
      "d": 593.7500000000291,
      "v": 98
    },
    {
      "midi": 56,
      "hit": false,
      "t": 159250.00000000015,
      "d": 239.58333333334303,
      "v": 41
    },
    {
      "midi": 61,
      "hit": false,
      "t": 159541.66666666683,
      "d": 260.41666666668607,
      "v": 26
    },
    {
      "midi": 59,
      "hit": false,
      "t": 159781.25000000017,
      "d": 270.83333333334303,
      "v": 56
    },
    {
      "midi": 56,
      "hit": false,
      "t": 160062.50000000017,
      "d": 145.83333333334303,
      "v": 29
    },
    {
      "midi": 68,
      "hit": false,
      "t": 160416.66666666686,
      "d": 125,
      "v": 10
    },
    {
      "midi": 61,
      "hit": false,
      "t": 160697.91666666686,
      "d": 156.25,
      "v": 1
    },
    {
      "midi": 64,
      "hit": false,
      "t": 160937.5000000002,
      "d": 229.16666666665697,
      "v": 16
    },
    {
      "midi": 61,
      "hit": false,
      "t": 161208.33333333352,
      "d": 322.91666666665697,
      "v": 19
    },
    {
      "midi": 61,
      "hit": false,
      "t": 161958.33333333352,
      "d": 83.33333333334303,
      "v": 19
    },
    {
      "midi": 57,
      "hit": false,
      "t": 162333.33333333352,
      "d": 562.5,
      "v": 13
    },
    {
      "midi": 45,
      "hit": false,
      "t": 162718.75000000017,
      "d": 4177.083333333372,
      "v": 65
    },
    {
      "midi": 57,
      "hit": false,
      "t": 163010.41666666686,
      "d": 354.16666666665697,
      "v": 38
    },
    {
      "midi": 59,
      "hit": false,
      "t": 163333.33333333352,
      "d": 218.75,
      "v": 14
    },
    {
      "midi": 64,
      "hit": false,
      "t": 163697.91666666686,
      "d": 72.91666666665697,
      "v": 59
    },
    {
      "midi": 69,
      "hit": false,
      "t": 164322.91666666686,
      "d": 614.583333333343,
      "v": 19
    },
    {
      "midi": 71,
      "hit": false,
      "t": 164656.2500000002,
      "d": 427.08333333334303,
      "v": 31
    },
    {
      "midi": 76,
      "hit": false,
      "t": 165020.83333333355,
      "d": 114.58333333334303,
      "v": 13
    },
    {
      "midi": 81,
      "hit": false,
      "t": 165656.25000000023,
      "d": 927.083333333343,
      "v": 20
    },
    {
      "midi": 83,
      "hit": false,
      "t": 166052.08333333358,
      "d": 635.416666666657,
      "v": 12
    },
    {
      "midi": 88,
      "hit": false,
      "t": 166479.16666666692,
      "d": 218.7499999999709,
      "v": 1
    }
  ]
}