{
  "jsonPath": "Rock/Alternative Rock/New Order/bizarre-love-triangle.json",
  "path": "Rock\\Alternative Rock\\New Order\\Bizarre Love Triangle.mid",
  "name": "Bizarre Love Triangle",
  "difficulty": "Advanced",
  "bpm": 116.99988885010559,
  "notes": [
    {
      "midi": 77,
      "hit": false,
      "t": 32820.544,
      "d": 32.05131249999977,
      "v": 106
    },
    {
      "midi": 80,
      "hit": false,
      "t": 32820.544,
      "d": 32.05131249999977,
      "v": 78
    },
    {
      "midi": 82,
      "hit": false,
      "t": 32820.544,
      "d": 32.05131249999977,
      "v": 127
    },
    {
      "midi": 86,
      "hit": false,
      "t": 32820.544,
      "d": 32.05131249999977,
      "v": 80
    },
    {
      "midi": 89,
      "hit": false,
      "t": 32820.544,
      "d": 32.05131249999977,
      "v": 93
    },
    {
      "midi": 77,
      "hit": false,
      "t": 32916.6979375,
      "d": 32.05131249999977,
      "v": 56
    },
    {
      "midi": 80,
      "hit": false,
      "t": 32916.6979375,
      "d": 32.05131249999977,
      "v": 41
    },
    {
      "midi": 82,
      "hit": false,
      "t": 32916.6979375,
      "d": 32.05131249999977,
      "v": 67
    },
    {
      "midi": 86,
      "hit": false,
      "t": 32916.6979375,
      "d": 32.05131249999977,
      "v": 42
    },
    {
      "midi": 89,
      "hit": false,
      "t": 32916.6979375,
      "d": 32.05131249999977,
      "v": 50
    },
    {
      "midi": 77,
      "hit": false,
      "t": 32948.74925,
      "d": 32.05131249999977,
      "v": 98
    },
    {
      "midi": 82,
      "hit": false,
      "t": 32948.74925,
      "d": 32.05131249999977,
      "v": 127
    },
    {
      "midi": 86,
      "hit": false,
      "t": 32948.74925,
      "d": 32.05131249999977,
      "v": 89
    },
    {
      "midi": 89,
      "hit": false,
      "t": 32948.74925,
      "d": 32.05131249999977,
      "v": 93
    },
    {
      "midi": 77,
      "hit": false,
      "t": 32991.484333333334,
      "d": 32.05131249999977,
      "v": 29
    },
    {
      "midi": 80,
      "hit": false,
      "t": 32991.484333333334,
      "d": 32.05131249999977,
      "v": 21
    },
    {
      "midi": 82,
      "hit": false,
      "t": 32991.484333333334,
      "d": 32.05131249999977,
      "v": 34
    },
    {
      "midi": 86,
      "hit": false,
      "t": 32991.484333333334,
      "d": 32.05131249999977,
      "v": 21
    },
    {
      "midi": 89,
      "hit": false,
      "t": 32991.484333333334,
      "d": 32.05131249999977,
      "v": 25
    },
    {
      "midi": 77,
      "hit": false,
      "t": 33044.9031875,
      "d": 32.05131249999977,
      "v": 52
    },
    {
      "midi": 82,
      "hit": false,
      "t": 33044.9031875,
      "d": 32.05131249999977,
      "v": 67
    },
    {
      "midi": 86,
      "hit": false,
      "t": 33044.9031875,
      "d": 32.05131249999977,
      "v": 48
    },
    {
      "midi": 89,
      "hit": false,
      "t": 33044.9031875,
      "d": 32.05131249999977,
      "v": 50
    },
    {
      "midi": 77,
      "hit": false,
      "t": 33119.68958333333,
      "d": 32.05131249999977,
      "v": 27
    },
    {
      "midi": 82,
      "hit": false,
      "t": 33119.68958333333,
      "d": 32.05131249999977,
      "v": 34
    },
    {
      "midi": 86,
      "hit": false,
      "t": 33119.68958333333,
      "d": 32.05131249999977,
      "v": 25
    },
    {
      "midi": 89,
      "hit": false,
      "t": 33119.68958333333,
      "d": 32.05131249999977,
      "v": 25
    },
    {
      "midi": 77,
      "hit": false,
      "t": 33205.15975,
      "d": 32.05131249999977,
      "v": 117
    },
    {
      "midi": 82,
      "hit": false,
      "t": 33205.15975,
      "d": 32.05131249999977,
      "v": 127
    },
    {
      "midi": 86,
      "hit": false,
      "t": 33205.15975,
      "d": 32.05131249999977,
      "v": 86
    },
    {
      "midi": 89,
      "hit": false,
      "t": 33205.15975,
      "d": 32.05131249999977,
      "v": 93
    },
    {
      "midi": 77,
      "hit": false,
      "t": 33301.3136875,
      "d": 32.05131249999977,
      "v": 62
    },
    {
      "midi": 82,
      "hit": false,
      "t": 33301.3136875,
      "d": 32.05131249999977,
      "v": 67
    },
    {
      "midi": 86,
      "hit": false,
      "t": 33301.3136875,
      "d": 32.05131249999977,
      "v": 46
    },
    {
      "midi": 89,
      "hit": false,
      "t": 33301.3136875,
      "d": 32.05131249999977,
      "v": 50
    },
    {
      "midi": 77,
      "hit": false,
      "t": 33376.10008333333,
      "d": 32.05131249999977,
      "v": 32
    },
    {
      "midi": 82,
      "hit": false,
      "t": 33376.10008333333,
      "d": 32.05131249999977,
      "v": 34
    },
    {
      "midi": 86,
      "hit": false,
      "t": 33376.10008333333,
      "d": 32.05131249999977,
      "v": 23
    },
    {
      "midi": 89,
      "hit": false,
      "t": 33376.10008333333,
      "d": 32.05131249999977,
      "v": 25
    },
    {
      "midi": 77,
      "hit": false,
      "t": 33461.57025,
      "d": 32.05131249999977,
      "v": 106
    },
    {
      "midi": 82,
      "hit": false,
      "t": 33461.57025,
      "d": 32.05131249999977,
      "v": 127
    },
    {
      "midi": 86,
      "hit": false,
      "t": 33461.57025,
      "d": 32.05131249999977,
      "v": 80
    },
    {
      "midi": 89,
      "hit": false,
      "t": 33461.57025,
      "d": 32.05131249999977,
      "v": 93
    },
    {
      "midi": 77,
      "hit": false,
      "t": 33557.724187499996,
      "d": 32.05131249999977,
      "v": 56
    },
    {
      "midi": 82,
      "hit": false,
      "t": 33557.724187499996,
      "d": 32.05131249999977,
      "v": 67
    },
    {
      "midi": 86,
      "hit": false,
      "t": 33557.724187499996,
      "d": 32.05131249999977,
      "v": 42
    },
    {
      "midi": 89,
      "hit": false,
      "t": 33557.724187499996,
      "d": 32.05131249999977,
      "v": 50
    },
    {
      "midi": 77,
      "hit": false,
      "t": 33589.775499999996,
      "d": 32.05131249999977,
      "v": 89
    },
    {
      "midi": 82,
      "hit": false,
      "t": 33589.775499999996,
      "d": 32.05131249999977,
      "v": 127
    },
    {
      "midi": 86,
      "hit": false,
      "t": 33589.775499999996,
      "d": 32.05131249999977,
      "v": 83
    },
    {
      "midi": 89,
      "hit": false,
      "t": 33589.775499999996,
      "d": 32.05131249999977,
      "v": 93
    },
    {
      "midi": 77,
      "hit": false,
      "t": 33632.51058333333,
      "d": 32.05131249999977,
      "v": 29
    },
    {
      "midi": 82,
      "hit": false,
      "t": 33632.51058333333,
      "d": 32.05131249999977,
      "v": 34
    },
    {
      "midi": 86,
      "hit": false,
      "t": 33632.51058333333,
      "d": 32.05131249999977,
      "v": 21
    },
    {
      "midi": 89,
      "hit": false,
      "t": 33632.51058333333,
      "d": 32.05131249999977,
      "v": 25
    },
    {
      "midi": 77,
      "hit": false,
      "t": 33685.929437499995,
      "d": 32.05131249999977,
      "v": 48
    },
    {
      "midi": 82,
      "hit": false,
      "t": 33685.929437499995,
      "d": 32.05131249999977,
      "v": 67
    },
    {
      "midi": 86,
      "hit": false,
      "t": 33685.929437499995,
      "d": 32.05131249999977,
      "v": 44
    },
    {
      "midi": 89,
      "hit": false,
      "t": 33685.929437499995,
      "d": 32.05131249999977,
      "v": 50
    },
    {
      "midi": 77,
      "hit": false,
      "t": 33717.980749999995,
      "d": 32.05131249999977,
      "v": 103
    },
    {
      "midi": 82,
      "hit": false,
      "t": 33717.980749999995,
      "d": 32.05131249999977,
      "v": 127
    },
    {
      "midi": 86,
      "hit": false,
      "t": 33717.980749999995,
      "d": 32.05131249999977,
      "v": 98
    },
    {
      "midi": 89,
      "hit": false,
      "t": 33717.980749999995,
      "d": 32.05131249999977,
      "v": 93
    },
    {
      "midi": 77,
      "hit": false,
      "t": 33760.71583333333,
      "d": 32.05131249999977,
      "v": 25
    },
    {
      "midi": 82,
      "hit": false,
      "t": 33760.71583333333,
      "d": 32.05131249999977,
      "v": 34
    },
    {
      "midi": 86,
      "hit": false,
      "t": 33760.71583333333,
      "d": 32.05131249999977,
      "v": 22
    },
    {
      "midi": 89,
      "hit": false,
      "t": 33760.71583333333,
      "d": 32.05131249999977,
      "v": 25
    },
    {
      "midi": 77,
      "hit": false,
      "t": 33814.134687499994,
      "d": 32.05131249999977,
      "v": 55
    },
    {
      "midi": 82,
      "hit": false,
      "t": 33814.134687499994,
      "d": 32.05131249999977,
      "v": 67
    },
    {
      "midi": 86,
      "hit": false,
      "t": 33814.134687499994,
      "d": 32.05131249999977,
      "v": 52
    },
    {
      "midi": 89,
      "hit": false,
      "t": 33814.134687499994,
      "d": 32.05131249999977,
      "v": 50
    },
    {
      "midi": 77,
      "hit": false,
      "t": 33888.92108333333,
      "d": 32.05131249999977,
      "v": 27
    },
    {
      "midi": 82,
      "hit": false,
      "t": 33888.92108333333,
      "d": 32.05131249999977,
      "v": 34
    },
    {
      "midi": 86,
      "hit": false,
      "t": 33888.92108333333,
      "d": 32.05131249999977,
      "v": 27
    },
    {
      "midi": 89,
      "hit": false,
      "t": 33888.92108333333,
      "d": 32.05131249999977,
      "v": 25
    },
    {
      "midi": 77,
      "hit": false,
      "t": 33974.39124999999,
      "d": 32.05131249999977,
      "v": 111
    },
    {
      "midi": 82,
      "hit": false,
      "t": 33974.39124999999,
      "d": 32.05131249999977,
      "v": 127
    },
    {
      "midi": 86,
      "hit": false,
      "t": 33974.39124999999,
      "d": 32.05131249999977,
      "v": 93
    },
    {
      "midi": 89,
      "hit": false,
      "t": 33974.39124999999,
      "d": 32.05131249999977,
      "v": 93
    },
    {
      "midi": 77,
      "hit": false,
      "t": 34070.54518749999,
      "d": 32.05131249999977,
      "v": 59
    },
    {
      "midi": 82,
      "hit": false,
      "t": 34070.54518749999,
      "d": 32.05131249999977,
      "v": 67
    },
    {
      "midi": 86,
      "hit": false,
      "t": 34070.54518749999,
      "d": 32.05131249999977,
      "v": 50
    },
    {
      "midi": 89,
      "hit": false,
      "t": 34070.54518749999,
      "d": 32.05131249999977,
      "v": 50
    },
    {
      "midi": 77,
      "hit": false,
      "t": 34145.331583333325,
      "d": 32.05131249999977,
      "v": 29
    },
    {
      "midi": 82,
      "hit": false,
      "t": 34145.331583333325,
      "d": 32.05131249999977,
      "v": 34
    },
    {
      "midi": 86,
      "hit": false,
      "t": 34145.331583333325,
      "d": 32.05131249999977,
      "v": 25
    },
    {
      "midi": 89,
      "hit": false,
      "t": 34145.331583333325,
      "d": 32.05131249999977,
      "v": 25
    },
    {
      "midi": 77,
      "hit": false,
      "t": 34230.80174999999,
      "d": 32.05131249999977,
      "v": 117
    },
    {
      "midi": 82,
      "hit": false,
      "t": 34230.80174999999,
      "d": 32.05131249999977,
      "v": 127
    },
    {
      "midi": 86,
      "hit": false,
      "t": 34230.80174999999,
      "d": 32.05131249999977,
      "v": 91
    },
    {
      "midi": 89,
      "hit": false,
      "t": 34230.80174999999,
      "d": 32.05131249999977,
      "v": 93
    },
    {
      "midi": 77,
      "hit": false,
      "t": 34326.95568749999,
      "d": 32.05131249999977,
      "v": 62
    },
    {
      "midi": 82,
      "hit": false,
      "t": 34326.95568749999,
      "d": 32.05131249999977,
      "v": 67
    },
    {
      "midi": 86,
      "hit": false,
      "t": 34326.95568749999,
      "d": 32.05131249999977,
      "v": 48
    },
    {
      "midi": 89,
      "hit": false,
      "t": 34326.95568749999,
      "d": 32.05131249999977,
      "v": 50
    },
    {
      "midi": 77,
      "hit": false,
      "t": 34359.00699999999,
      "d": 32.05131249999977,
      "v": 89
    },
    {
      "midi": 82,
      "hit": false,
      "t": 34359.00699999999,
      "d": 32.05131249999977,
      "v": 127
    },
    {
      "midi": 86,
      "hit": false,
      "t": 34359.00699999999,
      "d": 32.05131249999977,
      "v": 91
    },
    {
      "midi": 89,
      "hit": false,
      "t": 34359.00699999999,
      "d": 32.05131249999977,
      "v": 93
    },
    {
      "midi": 77,
      "hit": false,
      "t": 34401.74208333332,
      "d": 32.05131249999977,
      "v": 32
    },
    {
      "midi": 82,
      "hit": false,
      "t": 34401.74208333332,
      "d": 32.05131249999977,
      "v": 34
    },
    {
      "midi": 86,
      "hit": false,
      "t": 34401.74208333332,
      "d": 32.05131249999977,
      "v": 25
    },
    {
      "midi": 89,
      "hit": false,
      "t": 34401.74208333332,
      "d": 32.05131249999977,
      "v": 25
    },
    {
      "midi": 77,
      "hit": false,
      "t": 34455.16093749999,
      "d": 32.05131249999977,
      "v": 48
    },
    {
      "midi": 82,
      "hit": false,
      "t": 34455.16093749999,
      "d": 32.05131249999977,
      "v": 67
    },
    {
      "midi": 86,
      "hit": false,
      "t": 34455.16093749999,
      "d": 32.05131249999977,
      "v": 48
    },
    {
      "midi": 89,
      "hit": false,
      "t": 34455.16093749999,
      "d": 32.05131249999977,
      "v": 50
    },
    {
      "midi": 77,
      "hit": false,
      "t": 34529.94733333332,
      "d": 32.05131249999977,
      "v": 25
    },
    {
      "midi": 82,
      "hit": false,
      "t": 34529.94733333332,
      "d": 32.05131249999977,
      "v": 34
    },
    {
      "midi": 86,
      "hit": false,
      "t": 34529.94733333332,
      "d": 32.05131249999977,
      "v": 25
    },
    {
      "midi": 89,
      "hit": false,
      "t": 34529.94733333332,
      "d": 32.05131249999977,
      "v": 25
    },
    {
      "midi": 77,
      "hit": false,
      "t": 34615.41749999999,
      "d": 32.05131249999977,
      "v": 120
    },
    {
      "midi": 82,
      "hit": false,
      "t": 34615.41749999999,
      "d": 32.05131249999977,
      "v": 127
    },
    {
      "midi": 86,
      "hit": false,
      "t": 34615.41749999999,
      "d": 32.05131249999977,
      "v": 98
    },
    {
      "midi": 89,
      "hit": false,
      "t": 34615.41749999999,
      "d": 32.05131249999977,
      "v": 93
    },
    {
      "midi": 77,
      "hit": false,
      "t": 34711.57143749999,
      "d": 32.05131249999977,
      "v": 63
    },
    {
      "midi": 82,
      "hit": false,
      "t": 34711.57143749999,
      "d": 32.05131249999977,
      "v": 67
    },
    {
      "midi": 86,
      "hit": false,
      "t": 34711.57143749999,
      "d": 32.05131249999977,
      "v": 52
    },
    {
      "midi": 89,
      "hit": false,
      "t": 34711.57143749999,
      "d": 32.05131249999977,
      "v": 50
    },
    {
      "midi": 77,
      "hit": false,
      "t": 34743.62274999999,
      "d": 32.05131249999977,
      "v": 77
    },
    {
      "midi": 82,
      "hit": false,
      "t": 34743.62274999999,
      "d": 32.05131249999977,
      "v": 107
    },
    {
      "midi": 86,
      "hit": false,
      "t": 34743.62274999999,
      "d": 32.05131249999977,
      "v": 89
    },
    {
      "midi": 89,
      "hit": false,
      "t": 34743.62274999999,
      "d": 32.05131249999977,
      "v": 93
    },
    {
      "midi": 77,
      "hit": false,
      "t": 34786.35783333332,
      "d": 32.05131249999977,
      "v": 32
    },
    {
      "midi": 82,
      "hit": false,
      "t": 34786.35783333332,
      "d": 32.05131249999977,
      "v": 34
    },
    {
      "midi": 86,
      "hit": false,
      "t": 34786.35783333332,
      "d": 32.05131249999977,
      "v": 27
    },
    {
      "midi": 89,
      "hit": false,
      "t": 34786.35783333332,
      "d": 32.05131249999977,
      "v": 25
    },
    {
      "midi": 77,
      "hit": false,
      "t": 34839.77668749999,
      "d": 32.05131249999977,
      "v": 41
    },
    {
      "midi": 82,
      "hit": false,
      "t": 34839.77668749999,
      "d": 32.05131249999977,
      "v": 57
    },
    {
      "midi": 86,
      "hit": false,
      "t": 34839.77668749999,
      "d": 32.05131249999977,
      "v": 48
    },
    {
      "midi": 89,
      "hit": false,
      "t": 34839.77668749999,
      "d": 32.05131249999977,
      "v": 50
    },
    {
      "midi": 77,
      "hit": false,
      "t": 34871.82799999999,
      "d": 32.05131249999977,
      "v": 96
    },
    {
      "midi": 82,
      "hit": false,
      "t": 34871.82799999999,
      "d": 32.05131249999977,
      "v": 125
    },
    {
      "midi": 84,
      "hit": false,
      "t": 34871.82799999999,
      "d": 32.05131249999977,
      "v": 103
    },
    {
      "midi": 89,
      "hit": false,
      "t": 34871.82799999999,
      "d": 32.05131249999977,
      "v": 93
    },
    {
      "midi": 77,
      "hit": false,
      "t": 34914.56308333332,
      "d": 32.05131249999977,
      "v": 21
    },
    {
      "midi": 82,
      "hit": false,
      "t": 34914.56308333332,
      "d": 32.05131249999977,
      "v": 29
    },
    {
      "midi": 86,
      "hit": false,
      "t": 34914.56308333332,
      "d": 32.05131249999977,
      "v": 25
    },
    {
      "midi": 89,
      "hit": false,
      "t": 34914.56308333332,
      "d": 32.05131249999977,
      "v": 25
    },
    {
      "midi": 77,
      "hit": false,
      "t": 34967.981937499986,
      "d": 32.05131249999977,
      "v": 50
    },
    {
      "midi": 82,
      "hit": false,
      "t": 34967.981937499986,
      "d": 32.05131249999977,
      "v": 67
    },
    {
      "midi": 84,
      "hit": false,
      "t": 34967.981937499986,
      "d": 32.05131249999977,
      "v": 55
    },
    {
      "midi": 89,
      "hit": false,
      "t": 34967.981937499986,
      "d": 32.05131249999977,
      "v": 50
    },
    {
      "midi": 77,
      "hit": false,
      "t": 35000.033249999986,
      "d": 32.05131249999977,
      "v": 91
    },
    {
      "midi": 82,
      "hit": false,
      "t": 35000.033249999986,
      "d": 32.05131249999977,
      "v": 125
    },
    {
      "midi": 84,
      "hit": false,
      "t": 35000.033249999986,
      "d": 32.05131249999977,
      "v": 100
    },
    {
      "midi": 89,
      "hit": false,
      "t": 35000.033249999986,
      "d": 32.05131249999977,
      "v": 93
    },
    {
      "midi": 77,
      "hit": false,
      "t": 35042.76833333332,
      "d": 32.05131249999977,
      "v": 25
    },
    {
      "midi": 82,
      "hit": false,
      "t": 35042.76833333332,
      "d": 32.05131249999977,
      "v": 34
    },
    {
      "midi": 84,
      "hit": false,
      "t": 35042.76833333332,
      "d": 32.05131249999977,
      "v": 27
    },
    {
      "midi": 89,
      "hit": false,
      "t": 35042.76833333332,
      "d": 32.05131249999977,
      "v": 25
    },
    {
      "midi": 77,
      "hit": false,
      "t": 35096.187187499985,
      "d": 32.05131249999977,
      "v": 48
    },
    {
      "midi": 82,
      "hit": false,
      "t": 35096.187187499985,
      "d": 32.05131249999977,
      "v": 67
    },
    {
      "midi": 84,
      "hit": false,
      "t": 35096.187187499985,
      "d": 32.05131249999977,
      "v": 53
    },
    {
      "midi": 89,
      "hit": false,
      "t": 35096.187187499985,
      "d": 32.05131249999977,
      "v": 50
    },
    {
      "midi": 77,
      "hit": false,
      "t": 35170.97358333332,
      "d": 32.05131249999977,
      "v": 25
    },
    {
      "midi": 82,
      "hit": false,
      "t": 35170.97358333332,
      "d": 32.05131249999977,
      "v": 34
    },
    {
      "midi": 84,
      "hit": false,
      "t": 35170.97358333332,
      "d": 32.05131249999977,
      "v": 27
    },
    {
      "midi": 89,
      "hit": false,
      "t": 35170.97358333332,
      "d": 32.05131249999977,
      "v": 25
    },
    {
      "midi": 77,
      "hit": false,
      "t": 35256.443749999984,
      "d": 32.05131249999977,
      "v": 106
    },
    {
      "midi": 82,
      "hit": false,
      "t": 35256.443749999984,
      "d": 32.05131249999977,
      "v": 127
    },
    {
      "midi": 84,
      "hit": false,
      "t": 35256.443749999984,
      "d": 32.05131249999977,
      "v": 117
    },
    {
      "midi": 89,
      "hit": false,
      "t": 35256.443749999984,
      "d": 32.05131249999977,
      "v": 93
    },
    {
      "midi": 77,
      "hit": false,
      "t": 35352.59768749998,
      "d": 32.05131249999977,
      "v": 56
    },
    {
      "midi": 82,
      "hit": false,
      "t": 35352.59768749998,
      "d": 32.05131249999977,
      "v": 67
    },
    {
      "midi": 84,
      "hit": false,
      "t": 35352.59768749998,
      "d": 32.05131249999977,
      "v": 62
    },
    {
      "midi": 89,
      "hit": false,
      "t": 35352.59768749998,
      "d": 32.05131249999977,
      "v": 50
    },
    {
      "midi": 77,
      "hit": false,
      "t": 35384.64899999998,
      "d": 32.05131249999977,
      "v": 91
    },
    {
      "midi": 82,
      "hit": false,
      "t": 35384.64899999998,
      "d": 32.05131249999977,
      "v": 127
    },
    {
      "midi": 84,
      "hit": false,
      "t": 35384.64899999998,
      "d": 32.05131249999977,
      "v": 111
    },
    {
      "midi": 89,
      "hit": false,
      "t": 35384.64899999998,
      "d": 32.05131249999977,
      "v": 93
    },
    {
      "midi": 77,
      "hit": false,
      "t": 35427.384083333316,
      "d": 32.05131249999977,
      "v": 29
    },
    {
      "midi": 82,
      "hit": false,
      "t": 35427.384083333316,
      "d": 32.05131249999977,
      "v": 34
    },
    {
      "midi": 84,
      "hit": false,
      "t": 35427.384083333316,
      "d": 32.05131249999977,
      "v": 32
    },
    {
      "midi": 89,
      "hit": false,
      "t": 35427.384083333316,
      "d": 32.05131249999977,
      "v": 25
    },
    {
      "midi": 77,
      "hit": false,
      "t": 35480.80293749998,
      "d": 32.05131249999977,
      "v": 48
    },
    {
      "midi": 82,
      "hit": false,
      "t": 35480.80293749998,
      "d": 32.05131249999977,
      "v": 67
    },
    {
      "midi": 84,
      "hit": false,
      "t": 35480.80293749998,
      "d": 32.05131249999977,
      "v": 59
    },
    {
      "midi": 89,
      "hit": false,
      "t": 35480.80293749998,
      "d": 32.05131249999977,
      "v": 50
    },
    {
      "midi": 77,
      "hit": false,
      "t": 35555.589333333315,
      "d": 32.05131249999977,
      "v": 25
    },
    {
      "midi": 82,
      "hit": false,
      "t": 35555.589333333315,
      "d": 32.05131249999977,
      "v": 34
    },
    {
      "midi": 84,
      "hit": false,
      "t": 35555.589333333315,
      "d": 32.05131249999977,
      "v": 29
    },
    {
      "midi": 89,
      "hit": false,
      "t": 35555.589333333315,
      "d": 32.05131249999977,
      "v": 25
    },
    {
      "midi": 77,
      "hit": false,
      "t": 35641.05949999998,
      "d": 32.05131249999977,
      "v": 113
    },
    {
      "midi": 82,
      "hit": false,
      "t": 35641.05949999998,
      "d": 32.05131249999977,
      "v": 127
    },
    {
      "midi": 84,
      "hit": false,
      "t": 35641.05949999998,
      "d": 32.05131249999977,
      "v": 123
    },
    {
      "midi": 89,
      "hit": false,
      "t": 35641.05949999998,
      "d": 32.05131249999977,
      "v": 93
    },
    {
      "midi": 77,
      "hit": false,
      "t": 35737.21343749998,
      "d": 32.05131249999977,
      "v": 60
    },
    {
      "midi": 82,
      "hit": false,
      "t": 35737.21343749998,
      "d": 32.05131249999977,
      "v": 67
    },
    {
      "midi": 84,
      "hit": false,
      "t": 35737.21343749998,
      "d": 32.05131249999977,
      "v": 65
    },
    {
      "midi": 89,
      "hit": false,
      "t": 35737.21343749998,
      "d": 32.05131249999977,
      "v": 50
    },
    {
      "midi": 77,
      "hit": false,
      "t": 35769.26474999998,
      "d": 32.05131249999977,
      "v": 89
    },
    {
      "midi": 82,
      "hit": false,
      "t": 35769.26474999998,
      "d": 32.05131249999977,
      "v": 127
    },
    {
      "midi": 84,
      "hit": false,
      "t": 35769.26474999998,
      "d": 32.05131249999977,
      "v": 117
    },
    {
      "midi": 89,
      "hit": false,
      "t": 35769.26474999998,
      "d": 32.05131249999977,
      "v": 93
    },
    {
      "midi": 77,
      "hit": false,
      "t": 35811.99983333331,
      "d": 32.05131249999977,
      "v": 31
    },
    {
      "midi": 82,
      "hit": false,
      "t": 35811.99983333331,
      "d": 32.05131249999977,
      "v": 34
    },
    {
      "midi": 84,
      "hit": false,
      "t": 35811.99983333331,
      "d": 32.05131249999977,
      "v": 33
    },
    {
      "midi": 89,
      "hit": false,
      "t": 35811.99983333331,
      "d": 32.05131249999977,
      "v": 25
    },
    {
      "midi": 77,
      "hit": false,
      "t": 35865.41868749998,
      "d": 32.05131249999977,
      "v": 48
    },
    {
      "midi": 82,
      "hit": false,
      "t": 35865.41868749998,
      "d": 32.05131249999977,
      "v": 67
    },
    {
      "midi": 84,
      "hit": false,
      "t": 35865.41868749998,
      "d": 32.05131249999977,
      "v": 62
    },
    {
      "midi": 89,
      "hit": false,
      "t": 35865.41868749998,
      "d": 32.05131249999977,
      "v": 50
    },
    {
      "midi": 77,
      "hit": false,
      "t": 35940.20508333331,
      "d": 32.05131249999977,
      "v": 25
    },
    {
      "midi": 82,
      "hit": false,
      "t": 35940.20508333331,
      "d": 32.05131249999977,
      "v": 34
    },
    {
      "midi": 84,
      "hit": false,
      "t": 35940.20508333331,
      "d": 32.05131249999977,
      "v": 32
    },
    {
      "midi": 89,
      "hit": false,
      "t": 35940.20508333331,
      "d": 32.05131249999977,
      "v": 25
    },
    {
      "midi": 77,
      "hit": false,
      "t": 36025.67524999998,
      "d": 32.05131249999977,
      "v": 108
    },
    {
      "midi": 82,
      "hit": false,
      "t": 36025.67524999998,
      "d": 32.05131249999977,
      "v": 127
    },
    {
      "midi": 84,
      "hit": false,
      "t": 36025.67524999998,
      "d": 32.05131249999977,
      "v": 113
    },
    {
      "midi": 89,
      "hit": false,
      "t": 36025.67524999998,
      "d": 32.05131249999977,
      "v": 93
    },
    {
      "midi": 77,
      "hit": false,
      "t": 36121.82918749998,
      "d": 32.05131249999977,
      "v": 57
    },
    {
      "midi": 82,
      "hit": false,
      "t": 36121.82918749998,
      "d": 32.05131249999977,
      "v": 67
    },
    {
      "midi": 84,
      "hit": false,
      "t": 36121.82918749998,
      "d": 32.05131249999977,
      "v": 60
    },
    {
      "midi": 89,
      "hit": false,
      "t": 36121.82918749998,
      "d": 32.05131249999977,
      "v": 50
    },
    {
      "midi": 77,
      "hit": false,
      "t": 36196.61558333331,
      "d": 32.05131249999977,
      "v": 29
    },
    {
      "midi": 82,
      "hit": false,
      "t": 36196.61558333331,
      "d": 32.05131249999977,
      "v": 34
    },
    {
      "midi": 84,
      "hit": false,
      "t": 36196.61558333331,
      "d": 32.05131249999977,
      "v": 31
    },
    {
      "midi": 89,
      "hit": false,
      "t": 36196.61558333331,
      "d": 32.05131249999977,
      "v": 25
    },
    {
      "midi": 77,
      "hit": false,
      "t": 36282.08574999998,
      "d": 32.05131249999977,
      "v": 93
    },
    {
      "midi": 82,
      "hit": false,
      "t": 36282.08574999998,
      "d": 32.05131249999977,
      "v": 111
    },
    {
      "midi": 84,
      "hit": false,
      "t": 36282.08574999998,
      "d": 32.05131249999977,
      "v": 83
    },
    {
      "midi": 89,
      "hit": false,
      "t": 36282.08574999998,
      "d": 32.05131249999977,
      "v": 93
    },
    {
      "midi": 77,
      "hit": false,
      "t": 36378.239687499976,
      "d": 32.05131249999977,
      "v": 50
    },
    {
      "midi": 82,
      "hit": false,
      "t": 36378.239687499976,
      "d": 32.05131249999977,
      "v": 59
    },
    {
      "midi": 84,
      "hit": false,
      "t": 36378.239687499976,
      "d": 32.05131249999977,
      "v": 44
    },
    {
      "midi": 89,
      "hit": false,
      "t": 36378.239687499976,
      "d": 32.05131249999977,
      "v": 50
    },
    {
      "midi": 77,
      "hit": false,
      "t": 36410.290999999976,
      "d": 32.05131249999977,
      "v": 98
    },
    {
      "midi": 82,
      "hit": false,
      "t": 36410.290999999976,
      "d": 32.05131249999977,
      "v": 127
    },
    {
      "midi": 84,
      "hit": false,
      "t": 36410.290999999976,
      "d": 32.05131249999977,
      "v": 103
    },
    {
      "midi": 89,
      "hit": false,
      "t": 36410.290999999976,
      "d": 32.05131249999977,
      "v": 93
    },
    {
      "midi": 77,
      "hit": false,
      "t": 36453.02608333331,
      "d": 32.05131249999977,
      "v": 25
    },
    {
      "midi": 82,
      "hit": false,
      "t": 36453.02608333331,
      "d": 32.05131249999977,
      "v": 29
    },
    {
      "midi": 84,
      "hit": false,
      "t": 36453.02608333331,
      "d": 32.05131249999977,
      "v": 22
    },
    {
      "midi": 89,
      "hit": false,
      "t": 36453.02608333331,
      "d": 32.05131249999977,
      "v": 25
    },
    {
      "midi": 77,
      "hit": false,
      "t": 36506.444937499975,
      "d": 32.05131249999977,
      "v": 52
    },
    {
      "midi": 82,
      "hit": false,
      "t": 36506.444937499975,
      "d": 32.05131249999977,
      "v": 67
    },
    {
      "midi": 84,
      "hit": false,
      "t": 36506.444937499975,
      "d": 32.05131249999977,
      "v": 55
    },
    {
      "midi": 89,
      "hit": false,
      "t": 36506.444937499975,
      "d": 32.05131249999977,
      "v": 50
    },
    {
      "midi": 77,
      "hit": false,
      "t": 36581.23133333331,
      "d": 32.05131249999977,
      "v": 27
    },
    {
      "midi": 82,
      "hit": false,
      "t": 36581.23133333331,
      "d": 32.05131249999977,
      "v": 34
    },
    {
      "midi": 84,
      "hit": false,
      "t": 36581.23133333331,
      "d": 32.05131249999977,
      "v": 27
    },
    {
      "midi": 89,
      "hit": false,
      "t": 36581.23133333331,
      "d": 32.05131249999977,
      "v": 25
    },
    {
      "midi": 77,
      "hit": false,
      "t": 36666.701499999974,
      "d": 32.05131249999977,
      "v": 93
    },
    {
      "midi": 82,
      "hit": false,
      "t": 36666.701499999974,
      "d": 32.05131249999977,
      "v": 127
    },
    {
      "midi": 84,
      "hit": false,
      "t": 36666.701499999974,
      "d": 32.05131249999977,
      "v": 113
    },
    {
      "midi": 89,
      "hit": false,
      "t": 36666.701499999974,
      "d": 32.05131249999977,
      "v": 93
    },
    {
      "midi": 77,
      "hit": false,
      "t": 36762.85543749997,
      "d": 32.05131249999977,
      "v": 50
    },
    {
      "midi": 82,
      "hit": false,
      "t": 36762.85543749997,
      "d": 32.05131249999977,
      "v": 67
    },
    {
      "midi": 84,
      "hit": false,
      "t": 36762.85543749997,
      "d": 32.05131249999977,
      "v": 60
    },
    {
      "midi": 89,
      "hit": false,
      "t": 36762.85543749997,
      "d": 32.05131249999977,
      "v": 50
    },
    {
      "midi": 77,
      "hit": false,
      "t": 36794.90674999997,
      "d": 32.05131249999977,
      "v": 82
    },
    {
      "midi": 82,
      "hit": false,
      "t": 36794.90674999997,
      "d": 32.05131249999977,
      "v": 125
    },
    {
      "midi": 84,
      "hit": false,
      "t": 36794.90674999997,
      "d": 32.05131249999977,
      "v": 106
    },
    {
      "midi": 89,
      "hit": false,
      "t": 36794.90674999997,
      "d": 32.05131249999977,
      "v": 93
    },
    {
      "midi": 77,
      "hit": false,
      "t": 36837.641833333306,
      "d": 32.05131249999977,
      "v": 25
    },
    {
      "midi": 82,
      "hit": false,
      "t": 36837.641833333306,
      "d": 32.05131249999977,
      "v": 34
    },
    {
      "midi": 84,
      "hit": false,
      "t": 36837.641833333306,
      "d": 32.05131249999977,
      "v": 31
    },
    {
      "midi": 89,
      "hit": false,
      "t": 36837.641833333306,
      "d": 32.05131249999977,
      "v": 25
    },
    {
      "midi": 77,
      "hit": false,
      "t": 36891.06068749997,
      "d": 32.05131249999977,
      "v": 43
    },
    {
      "midi": 82,
      "hit": false,
      "t": 36891.06068749997,
      "d": 32.05131249999977,
      "v": 67
    },
    {
      "midi": 84,
      "hit": false,
      "t": 36891.06068749997,
      "d": 32.05131249999977,
      "v": 56
    },
    {
      "midi": 89,
      "hit": false,
      "t": 36891.06068749997,
      "d": 32.05131249999977,
      "v": 50
    },
    {
      "midi": 77,
      "hit": false,
      "t": 36923.11199999997,
      "d": 32.05131249999977,
      "v": 100
    },
    {
      "midi": 81,
      "hit": false,
      "t": 36923.11199999997,
      "d": 32.05131249999977,
      "v": 96
    },
    {
      "midi": 86,
      "hit": false,
      "t": 36923.11199999997,
      "d": 32.05131249999977,
      "v": 100
    },
    {
      "midi": 77,
      "hit": false,
      "t": 36965.847083333305,
      "d": 32.05131249999977,
      "v": 22
    },
    {
      "midi": 82,
      "hit": false,
      "t": 36965.847083333305,
      "d": 32.05131249999977,
      "v": 34
    },
    {
      "midi": 84,
      "hit": false,
      "t": 36965.847083333305,
      "d": 32.05131249999977,
      "v": 29
    },
    {
      "midi": 89,
      "hit": false,
      "t": 36965.847083333305,
      "d": 32.05131249999977,
      "v": 25
    },
    {
      "midi": 77,
      "hit": false,
      "t": 37019.26593749997,
      "d": 32.05131249999977,
      "v": 53
    },
    {
      "midi": 81,
      "hit": false,
      "t": 37019.26593749997,
      "d": 32.05131249999977,
      "v": 50
    },
    {
      "midi": 86,
      "hit": false,
      "t": 37019.26593749997,
      "d": 32.05131249999977,
      "v": 53
    },
    {
      "midi": 77,
      "hit": false,
      "t": 37051.31724999997,
      "d": 32.05131249999977,
      "v": 71
    },
    {
      "midi": 81,
      "hit": false,
      "t": 37051.31724999997,
      "d": 32.05131249999977,
      "v": 108
    },
    {
      "midi": 86,
      "hit": false,
      "t": 37051.31724999997,
      "d": 32.05131249999977,
      "v": 93
    },
    {
      "midi": 77,
      "hit": false,
      "t": 37094.052333333304,
      "d": 32.05131249999977,
      "v": 27
    },
    {
      "midi": 81,
      "hit": false,
      "t": 37094.052333333304,
      "d": 32.05131249999977,
      "v": 25
    },
    {
      "midi": 86,
      "hit": false,
      "t": 37094.052333333304,
      "d": 32.05131249999977,
      "v": 27
    },
    {
      "midi": 77,
      "hit": false,
      "t": 37147.47118749997,
      "d": 32.05131249999977,
      "v": 38
    },
    {
      "midi": 81,
      "hit": false,
      "t": 37147.47118749997,
      "d": 32.05131249999977,
      "v": 57
    },
    {
      "midi": 86,
      "hit": false,
      "t": 37147.47118749997,
      "d": 32.05131249999977,
      "v": 50
    },
    {
      "midi": 77,
      "hit": false,
      "t": 37222.2575833333,
      "d": 32.05131249999977,
      "v": 19
    },
    {
      "midi": 81,
      "hit": false,
      "t": 37222.2575833333,
      "d": 32.05131249999977,
      "v": 29
    },
    {
      "midi": 86,
      "hit": false,
      "t": 37222.2575833333,
      "d": 32.05131249999977,
      "v": 25
    },
    {
      "midi": 77,
      "hit": false,
      "t": 37307.72774999997,
      "d": 32.05131249999977,
      "v": 93
    },
    {
      "midi": 81,
      "hit": false,
      "t": 37307.72774999997,
      "d": 32.05131249999977,
      "v": 123
    },
    {
      "midi": 86,
      "hit": false,
      "t": 37307.72774999997,
      "d": 32.05131249999977,
      "v": 78
    },
    {
      "midi": 77,
      "hit": false,
      "t": 37403.88168749997,
      "d": 32.05131249999977,
      "v": 50
    },
    {
      "midi": 81,
      "hit": false,
      "t": 37403.88168749997,
      "d": 32.05131249999977,
      "v": 65
    },
    {
      "midi": 86,
      "hit": false,
      "t": 37403.88168749997,
      "d": 32.05131249999977,
      "v": 41
    },
    {
      "midi": 77,
      "hit": false,
      "t": 37435.93299999997,
      "d": 32.05131249999977,
      "v": 111
    },
    {
      "midi": 81,
      "hit": false,
      "t": 37435.93299999997,
      "d": 32.05131249999977,
      "v": 127
    },
    {
      "midi": 86,
      "hit": false,
      "t": 37435.93299999997,
      "d": 32.05131249999977,
      "v": 106
    },
    {
      "midi": 77,
      "hit": false,
      "t": 37478.6680833333,
      "d": 32.05131249999977,
      "v": 25
    },
    {
      "midi": 81,
      "hit": false,
      "t": 37478.6680833333,
      "d": 32.05131249999977,
      "v": 33
    },
    {
      "midi": 86,
      "hit": false,
      "t": 37478.6680833333,
      "d": 32.05131249999977,
      "v": 21
    },
    {
      "midi": 77,
      "hit": false,
      "t": 37532.08693749997,
      "d": 32.05131249999977,
      "v": 59
    },
    {
      "midi": 81,
      "hit": false,
      "t": 37532.08693749997,
      "d": 32.05131249999977,
      "v": 67
    },
    {
      "midi": 86,
      "hit": false,
      "t": 37532.08693749997,
      "d": 32.05131249999977,
      "v": 56
    },
    {
      "midi": 77,
      "hit": false,
      "t": 37606.8733333333,
      "d": 32.05131249999977,
      "v": 29
    },
    {
      "midi": 81,
      "hit": false,
      "t": 37606.8733333333,
      "d": 32.05131249999977,
      "v": 34
    },
    {
      "midi": 86,
      "hit": false,
      "t": 37606.8733333333,
      "d": 32.05131249999977,
      "v": 29
    },
    {
      "midi": 77,
      "hit": false,
      "t": 37692.343499999966,
      "d": 32.05131249999977,
      "v": 117
    },
    {
      "midi": 81,
      "hit": false,
      "t": 37692.343499999966,
      "d": 32.05131249999977,
      "v": 127
    },
    {
      "midi": 86,
      "hit": false,
      "t": 37692.343499999966,
      "d": 32.05131249999977,
      "v": 93
    },
    {
      "midi": 77,
      "hit": false,
      "t": 37788.497437499966,
      "d": 32.05131249999977,
      "v": 62
    },
    {
      "midi": 81,
      "hit": false,
      "t": 37788.497437499966,
      "d": 32.05131249999977,
      "v": 67
    },
    {
      "midi": 86,
      "hit": false,
      "t": 37788.497437499966,
      "d": 32.05131249999977,
      "v": 50
    },
    {
      "midi": 77,
      "hit": false,
      "t": 37820.548749999965,
      "d": 32.05131249999977,
      "v": 108
    },
    {
      "midi": 81,
      "hit": false,
      "t": 37820.548749999965,
      "d": 32.05131249999977,
      "v": 127
    },
    {
      "midi": 86,
      "hit": false,
      "t": 37820.548749999965,
      "d": 32.05131249999977,
      "v": 100
    },
    {
      "midi": 77,
      "hit": false,
      "t": 37863.2838333333,
      "d": 32.05131249999977,
      "v": 32
    },
    {
      "midi": 81,
      "hit": false,
      "t": 37863.2838333333,
      "d": 32.05131249999977,
      "v": 34
    },
    {
      "midi": 86,
      "hit": false,
      "t": 37863.2838333333,
      "d": 32.05131249999977,
      "v": 25
    },
    {
      "midi": 77,
      "hit": false,
      "t": 37916.702687499965,
      "d": 32.05131249999977,
      "v": 57
    },
    {
      "midi": 81,
      "hit": false,
      "t": 37916.702687499965,
      "d": 32.05131249999977,
      "v": 67
    },
    {
      "midi": 86,
      "hit": false,
      "t": 37916.702687499965,
      "d": 32.05131249999977,
      "v": 53
    },
    {
      "midi": 77,
      "hit": false,
      "t": 37991.4890833333,
      "d": 32.05131249999977,
      "v": 29
    },
    {
      "midi": 81,
      "hit": false,
      "t": 37991.4890833333,
      "d": 32.05131249999977,
      "v": 34
    },
    {
      "midi": 86,
      "hit": false,
      "t": 37991.4890833333,
      "d": 32.05131249999977,
      "v": 27
    },
    {
      "midi": 77,
      "hit": false,
      "t": 38076.95924999996,
      "d": 32.05131249999977,
      "v": 120
    },
    {
      "midi": 81,
      "hit": false,
      "t": 38076.95924999996,
      "d": 32.05131249999977,
      "v": 127
    },
    {
      "midi": 86,
      "hit": false,
      "t": 38076.95924999996,
      "d": 32.05131249999977,
      "v": 100
    },
    {
      "midi": 77,
      "hit": false,
      "t": 38173.11318749996,
      "d": 32.05131249999977,
      "v": 63
    },
    {
      "midi": 81,
      "hit": false,
      "t": 38173.11318749996,
      "d": 32.05131249999977,
      "v": 67
    },
    {
      "midi": 86,
      "hit": false,
      "t": 38173.11318749996,
      "d": 32.05131249999977,
      "v": 53
    },
    {
      "midi": 77,
      "hit": false,
      "t": 38247.899583333296,
      "d": 32.05131249999977,
      "v": 32
    },
    {
      "midi": 81,
      "hit": false,
      "t": 38247.899583333296,
      "d": 32.05131249999977,
      "v": 34
    },
    {
      "midi": 86,
      "hit": false,
      "t": 38247.899583333296,
      "d": 32.05131249999977,
      "v": 27
    },
    {
      "midi": 77,
      "hit": false,
      "t": 38333.36974999996,
      "d": 32.05131249999977,
      "v": 98
    },
    {
      "midi": 81,
      "hit": false,
      "t": 38333.36974999996,
      "d": 32.05131249999977,
      "v": 127
    },
    {
      "midi": 86,
      "hit": false,
      "t": 38333.36974999996,
      "d": 32.05131249999977,
      "v": 89
    },
    {
      "midi": 77,
      "hit": false,
      "t": 38429.52368749996,
      "d": 32.05131249999977,
      "v": 52
    },
    {
      "midi": 81,
      "hit": false,
      "t": 38429.52368749996,
      "d": 32.05131249999977,
      "v": 67
    },
    {
      "midi": 86,
      "hit": false,
      "t": 38429.52368749996,
      "d": 32.05131249999977,
      "v": 48
    },
    {
      "midi": 77,
      "hit": false,
      "t": 38461.57499999996,
      "d": 32.05131249999977,
      "v": 113
    },
    {
      "midi": 81,
      "hit": false,
      "t": 38461.57499999996,
      "d": 32.05131249999977,
      "v": 127
    },
    {
      "midi": 86,
      "hit": false,
      "t": 38461.57499999996,
      "d": 32.05131249999977,
      "v": 100
    },
    {
      "midi": 77,
      "hit": false,
      "t": 38504.310083333294,
      "d": 32.05131249999977,
      "v": 27
    },
    {
      "midi": 81,
      "hit": false,
      "t": 38504.310083333294,
      "d": 32.05131249999977,
      "v": 34
    },
    {
      "midi": 86,
      "hit": false,
      "t": 38504.310083333294,
      "d": 32.05131249999977,
      "v": 25
    },
    {
      "midi": 77,
      "hit": false,
      "t": 38557.72893749996,
      "d": 32.05131249999977,
      "v": 60
    },
    {
      "midi": 81,
      "hit": false,
      "t": 38557.72893749996,
      "d": 32.05131249999977,
      "v": 67
    },
    {
      "midi": 86,
      "hit": false,
      "t": 38557.72893749996,
      "d": 32.05131249999977,
      "v": 53
    },
    {
      "midi": 77,
      "hit": false,
      "t": 38589.78024999996,
      "d": 32.05131249999977,
      "v": 106
    },
    {
      "midi": 81,
      "hit": false,
      "t": 38589.78024999996,
      "d": 32.05131249999977,
      "v": 126
    },
    {
      "midi": 86,
      "hit": false,
      "t": 38589.78024999996,
      "d": 32.05131249999977,
      "v": 98
    },
    {
      "midi": 77,
      "hit": false,
      "t": 38632.51533333329,
      "d": 32.05131249999977,
      "v": 31
    },
    {
      "midi": 81,
      "hit": false,
      "t": 38632.51533333329,
      "d": 32.05131249999977,
      "v": 34
    },
    {
      "midi": 86,
      "hit": false,
      "t": 38632.51533333329,
      "d": 32.05131249999977,
      "v": 27
    },
    {
      "midi": 77,
      "hit": false,
      "t": 38685.93418749996,
      "d": 32.05131249999977,
      "v": 56
    },
    {
      "midi": 81,
      "hit": false,
      "t": 38685.93418749996,
      "d": 32.05131249999977,
      "v": 67
    },
    {
      "midi": 86,
      "hit": false,
      "t": 38685.93418749996,
      "d": 32.05131249999977,
      "v": 52
    },
    {
      "midi": 77,
      "hit": false,
      "t": 38760.72058333329,
      "d": 32.05131249999977,
      "v": 29
    },
    {
      "midi": 81,
      "hit": false,
      "t": 38760.72058333329,
      "d": 32.05131249999977,
      "v": 34
    },
    {
      "midi": 86,
      "hit": false,
      "t": 38760.72058333329,
      "d": 32.05131249999977,
      "v": 27
    },
    {
      "midi": 77,
      "hit": false,
      "t": 38846.19074999996,
      "d": 32.05131249999977,
      "v": 113
    },
    {
      "midi": 79,
      "hit": false,
      "t": 38846.19074999996,
      "d": 32.05131249999977,
      "v": 127
    },
    {
      "midi": 86,
      "hit": false,
      "t": 38846.19074999996,
      "d": 32.05131249999977,
      "v": 86
    },
    {
      "midi": 77,
      "hit": false,
      "t": 38942.34468749996,
      "d": 32.05131249999977,
      "v": 60
    },
    {
      "midi": 79,
      "hit": false,
      "t": 38942.34468749996,
      "d": 32.05131249999977,
      "v": 67
    },
    {
      "midi": 86,
      "hit": false,
      "t": 38942.34468749996,
      "d": 32.05131249999977,
      "v": 46
    },
    {
      "midi": 77,
      "hit": false,
      "t": 38974.39599999996,
      "d": 32.05131249999977,
      "v": 111
    },
    {
      "midi": 79,
      "hit": false,
      "t": 38974.39599999996,
      "d": 32.05131249999977,
      "v": 127
    },
    {
      "midi": 86,
      "hit": false,
      "t": 38974.39599999996,
      "d": 32.05131249999977,
      "v": 93
    },
    {
      "midi": 77,
      "hit": false,
      "t": 39017.13108333329,
      "d": 32.05131249999977,
      "v": 31
    },
    {
      "midi": 79,
      "hit": false,
      "t": 39017.13108333329,
      "d": 32.05131249999977,
      "v": 34
    },
    {
      "midi": 86,
      "hit": false,
      "t": 39017.13108333329,
      "d": 32.05131249999977,
      "v": 23
    },
    {
      "midi": 77,
      "hit": false,
      "t": 39070.549937499956,
      "d": 32.05131249999977,
      "v": 59
    },
    {
      "midi": 79,
      "hit": false,
      "t": 39070.549937499956,
      "d": 32.05131249999977,
      "v": 67
    },
    {
      "midi": 86,
      "hit": false,
      "t": 39070.549937499956,
      "d": 32.05131249999977,
      "v": 50
    },
    {
      "midi": 77,
      "hit": false,
      "t": 39145.33633333329,
      "d": 32.05131249999977,
      "v": 29
    },
    {
      "midi": 79,
      "hit": false,
      "t": 39145.33633333329,
      "d": 32.05131249999977,
      "v": 34
    },
    {
      "midi": 86,
      "hit": false,
      "t": 39145.33633333329,
      "d": 32.05131249999977,
      "v": 25
    },
    {
      "midi": 77,
      "hit": false,
      "t": 39230.806499999955,
      "d": 32.05131249999977,
      "v": 113
    },
    {
      "midi": 79,
      "hit": false,
      "t": 39230.806499999955,
      "d": 32.05131249999977,
      "v": 127
    },
    {
      "midi": 86,
      "hit": false,
      "t": 39230.806499999955,
      "d": 32.05131249999977,
      "v": 91
    },
    {
      "midi": 77,
      "hit": false,
      "t": 39326.960437499954,
      "d": 32.05131249999977,
      "v": 60
    },
    {
      "midi": 79,
      "hit": false,
      "t": 39326.960437499954,
      "d": 32.05131249999977,
      "v": 67
    },
    {
      "midi": 86,
      "hit": false,
      "t": 39326.960437499954,
      "d": 32.05131249999977,
      "v": 48
    },
    {
      "midi": 77,
      "hit": false,
      "t": 39359.011749999954,
      "d": 32.05131249999977,
      "v": 117
    },
    {
      "midi": 79,
      "hit": false,
      "t": 39359.011749999954,
      "d": 32.05131249999977,
      "v": 127
    },
    {
      "midi": 86,
      "hit": false,
      "t": 39359.011749999954,
      "d": 32.05131249999977,
      "v": 103
    },
    {
      "midi": 77,
      "hit": false,
      "t": 39401.74683333329,
      "d": 32.05131249999977,
      "v": 31
    },
    {
      "midi": 79,
      "hit": false,
      "t": 39401.74683333329,
      "d": 32.05131249999977,
      "v": 34
    },
    {
      "midi": 86,
      "hit": false,
      "t": 39401.74683333329,
      "d": 32.05131249999977,
      "v": 25
    },
    {
      "midi": 77,
      "hit": false,
      "t": 39455.16568749995,
      "d": 32.05131249999977,
      "v": 62
    },
    {
      "midi": 79,
      "hit": false,
      "t": 39455.16568749995,
      "d": 32.05131249999977,
      "v": 67
    },
    {
      "midi": 86,
      "hit": false,
      "t": 39455.16568749995,
      "d": 32.05131249999977,
      "v": 55
    },
    {
      "midi": 77,
      "hit": false,
      "t": 39529.952083333286,
      "d": 32.05131249999977,
      "v": 32
    },
    {
      "midi": 79,
      "hit": false,
      "t": 39529.952083333286,
      "d": 32.05131249999977,
      "v": 34
    },
    {
      "midi": 86,
      "hit": false,
      "t": 39529.952083333286,
      "d": 32.05131249999977,
      "v": 27
    },
    {
      "midi": 77,
      "hit": false,
      "t": 39743.62749999995,
      "d": 32.05131249999977,
      "v": 117
    },
    {
      "midi": 79,
      "hit": false,
      "t": 39743.62749999995,
      "d": 32.05131249999977,
      "v": 127
    },
    {
      "midi": 86,
      "hit": false,
      "t": 39743.62749999995,
      "d": 32.05131249999977,
      "v": 85
    },
    {
      "midi": 77,
      "hit": false,
      "t": 39839.78143749995,
      "d": 32.05131249999977,
      "v": 62
    },
    {
      "midi": 79,
      "hit": false,
      "t": 39839.78143749995,
      "d": 32.05131249999977,
      "v": 67
    },
    {
      "midi": 86,
      "hit": false,
      "t": 39839.78143749995,
      "d": 32.05131249999977,
      "v": 46
    },
    {
      "midi": 77,
      "hit": false,
      "t": 39871.83274999995,
      "d": 32.05131249999977,
      "v": 113
    },
    {
      "midi": 79,
      "hit": false,
      "t": 39871.83274999995,
      "d": 32.05131249999977,
      "v": 127
    },
    {
      "midi": 86,
      "hit": false,
      "t": 39871.83274999995,
      "d": 32.05131249999977,
      "v": 100
    },
    {
      "midi": 77,
      "hit": false,
      "t": 39914.56783333328,
      "d": 32.05131249999977,
      "v": 32
    },
    {
      "midi": 79,
      "hit": false,
      "t": 39914.56783333328,
      "d": 32.05131249999977,
      "v": 34
    },
    {
      "midi": 86,
      "hit": false,
      "t": 39914.56783333328,
      "d": 32.05131249999977,
      "v": 23
    },
    {
      "midi": 77,
      "hit": false,
      "t": 39967.98668749995,
      "d": 32.05131249999977,
      "v": 60
    },
    {
      "midi": 79,
      "hit": false,
      "t": 39967.98668749995,
      "d": 32.05131249999977,
      "v": 67
    },
    {
      "midi": 86,
      "hit": false,
      "t": 39967.98668749995,
      "d": 32.05131249999977,
      "v": 53
    },
    {
      "midi": 77,
      "hit": false,
      "t": 40042.77308333328,
      "d": 32.05131249999977,
      "v": 31
    },
    {
      "midi": 79,
      "hit": false,
      "t": 40042.77308333328,
      "d": 32.05131249999977,
      "v": 34
    },
    {
      "midi": 86,
      "hit": false,
      "t": 40042.77308333328,
      "d": 32.05131249999977,
      "v": 27
    },
    {
      "midi": 77,
      "hit": false,
      "t": 40128.24324999995,
      "d": 32.05131249999977,
      "v": 106
    },
    {
      "midi": 79,
      "hit": false,
      "t": 40128.24324999995,
      "d": 32.05131249999977,
      "v": 127
    },
    {
      "midi": 86,
      "hit": false,
      "t": 40128.24324999995,
      "d": 32.05131249999977,
      "v": 91
    },
    {
      "midi": 77,
      "hit": false,
      "t": 40224.39718749995,
      "d": 32.05131249999977,
      "v": 56
    },
    {
      "midi": 79,
      "hit": false,
      "t": 40224.39718749995,
      "d": 32.05131249999977,
      "v": 67
    },
    {
      "midi": 86,
      "hit": false,
      "t": 40224.39718749995,
      "d": 32.05131249999977,
      "v": 48
    },
    {
      "midi": 77,
      "hit": false,
      "t": 40299.18358333328,
      "d": 32.05131249999977,
      "v": 29
    },
    {
      "midi": 79,
      "hit": false,
      "t": 40299.18358333328,
      "d": 32.05131249999977,
      "v": 34
    },
    {
      "midi": 86,
      "hit": false,
      "t": 40299.18358333328,
      "d": 32.05131249999977,
      "v": 25
    },
    {
      "midi": 77,
      "hit": false,
      "t": 40384.65374999995,
      "d": 32.05131249999977,
      "v": 108
    },
    {
      "midi": 79,
      "hit": false,
      "t": 40384.65374999995,
      "d": 32.05131249999977,
      "v": 127
    },
    {
      "midi": 86,
      "hit": false,
      "t": 40384.65374999995,
      "d": 32.05131249999977,
      "v": 82
    },
    {
      "midi": 77,
      "hit": false,
      "t": 40480.807687499946,
      "d": 32.05131249999977,
      "v": 57
    },
    {
      "midi": 79,
      "hit": false,
      "t": 40480.807687499946,
      "d": 32.05131249999977,
      "v": 67
    },
    {
      "midi": 86,
      "hit": false,
      "t": 40480.807687499946,
      "d": 32.05131249999977,
      "v": 43
    },
    {
      "midi": 77,
      "hit": false,
      "t": 40512.858999999946,
      "d": 32.05131249999977,
      "v": 117
    },
    {
      "midi": 79,
      "hit": false,
      "t": 40512.858999999946,
      "d": 32.05131249999977,
      "v": 127
    },
    {
      "midi": 86,
      "hit": false,
      "t": 40512.858999999946,
      "d": 32.05131249999977,
      "v": 100
    },
    {
      "midi": 77,
      "hit": false,
      "t": 40555.59408333328,
      "d": 32.05131249999977,
      "v": 29
    },
    {
      "midi": 79,
      "hit": false,
      "t": 40555.59408333328,
      "d": 32.05131249999977,
      "v": 34
    },
    {
      "midi": 86,
      "hit": false,
      "t": 40555.59408333328,
      "d": 32.05131249999977,
      "v": 22
    },
    {
      "midi": 77,
      "hit": false,
      "t": 40609.012937499945,
      "d": 32.05131249999977,
      "v": 62
    },
    {
      "midi": 79,
      "hit": false,
      "t": 40609.012937499945,
      "d": 32.05131249999977,
      "v": 67
    },
    {
      "midi": 86,
      "hit": false,
      "t": 40609.012937499945,
      "d": 32.05131249999977,
      "v": 53
    },
    {
      "midi": 77,
      "hit": false,
      "t": 40683.79933333328,
      "d": 32.05131249999977,
      "v": 32
    },
    {
      "midi": 79,
      "hit": false,
      "t": 40683.79933333328,
      "d": 32.05131249999977,
      "v": 34
    },
    {
      "midi": 86,
      "hit": false,
      "t": 40683.79933333328,
      "d": 32.05131249999977,
      "v": 27
    },
    {
      "midi": 77,
      "hit": false,
      "t": 40769.269499999944,
      "d": 32.05131249999977,
      "v": 111
    },
    {
      "midi": 79,
      "hit": false,
      "t": 40769.269499999944,
      "d": 32.05131249999977,
      "v": 127
    },
    {
      "midi": 86,
      "hit": false,
      "t": 40769.269499999944,
      "d": 32.05131249999977,
      "v": 85
    },
    {
      "midi": 77,
      "hit": false,
      "t": 40865.42343749994,
      "d": 32.05131249999977,
      "v": 59
    },
    {
      "midi": 79,
      "hit": false,
      "t": 40865.42343749994,
      "d": 32.05131249999977,
      "v": 67
    },
    {
      "midi": 86,
      "hit": false,
      "t": 40865.42343749994,
      "d": 32.05131249999977,
      "v": 46
    },
    {
      "midi": 77,
      "hit": false,
      "t": 40897.47474999994,
      "d": 32.05131249999977,
      "v": 86
    },
    {
      "midi": 86,
      "hit": false,
      "t": 40897.47474999994,
      "d": 32.05131249999977,
      "v": 86
    },
    {
      "midi": 77,
      "hit": false,
      "t": 40940.209833333276,
      "d": 32.05131249999977,
      "v": 29
    },
    {
      "midi": 79,
      "hit": false,
      "t": 40940.209833333276,
      "d": 32.05131249999977,
      "v": 34
    },
    {
      "midi": 86,
      "hit": false,
      "t": 40940.209833333276,
      "d": 32.05131249999977,
      "v": 23
    },
    {
      "midi": 77,
      "hit": false,
      "t": 40993.62868749994,
      "d": 32.05131249999977,
      "v": 46
    },
    {
      "midi": 86,
      "hit": false,
      "t": 40993.62868749994,
      "d": 32.05131249999977,
      "v": 46
    },
    {
      "midi": 77,
      "hit": false,
      "t": 41025.67999999994,
      "d": 32.05131249999977,
      "v": 106
    },
    {
      "midi": 80,
      "hit": false,
      "t": 41025.67999999994,
      "d": 32.05131249999977,
      "v": 78
    },
    {
      "midi": 82,
      "hit": false,
      "t": 41025.67999999994,
      "d": 32.05131249999977,
      "v": 127
    },
    {
      "midi": 86,
      "hit": false,
      "t": 41025.67999999994,
      "d": 32.05131249999977,
      "v": 80
    },
    {
      "midi": 89,
      "hit": false,
      "t": 41025.67999999994,
      "d": 32.05131249999977,
      "v": 93
    },
    {
      "midi": 77,
      "hit": false,
      "t": 41068.415083333275,
      "d": 32.05131249999977,
      "v": 23
    },
    {
      "midi": 86,
      "hit": false,
      "t": 41068.415083333275,
      "d": 32.05131249999977,
      "v": 23
    },
    {
      "midi": 77,
      "hit": false,
      "t": 41121.83393749994,
      "d": 32.05131249999977,
      "v": 56
    },
    {
      "midi": 80,
      "hit": false,
      "t": 41121.83393749994,
      "d": 32.05131249999977,
      "v": 41
    },
    {
      "midi": 82,
      "hit": false,
      "t": 41121.83393749994,
      "d": 32.05131249999977,
      "v": 67
    },
    {
      "midi": 86,
      "hit": false,
      "t": 41121.83393749994,
      "d": 32.05131249999977,
      "v": 42
    },
    {
      "midi": 89,
      "hit": false,
      "t": 41121.83393749994,
      "d": 32.05131249999977,
      "v": 50
    },
    {
      "midi": 77,
      "hit": false,
      "t": 41153.88524999994,
      "d": 32.05131249999977,
      "v": 98
    },
    {
      "midi": 82,
      "hit": false,
      "t": 41153.88524999994,
      "d": 32.05131249999977,
      "v": 127
    },
    {
      "midi": 86,
      "hit": false,
      "t": 41153.88524999994,
      "d": 32.05131249999977,
      "v": 89
    },
    {
      "midi": 89,
      "hit": false,
      "t": 41153.88524999994,
      "d": 32.05131249999977,
      "v": 93
    },
    {
      "midi": 77,
      "hit": false,
      "t": 41196.620333333274,
      "d": 32.05131249999977,
      "v": 29
    },
    {
      "midi": 80,
      "hit": false,
      "t": 41196.620333333274,
      "d": 32.05131249999977,
      "v": 21
    },
    {
      "midi": 82,
      "hit": false,
      "t": 41196.620333333274,
      "d": 32.05131249999977,
      "v": 34
    },
    {
      "midi": 86,
      "hit": false,
      "t": 41196.620333333274,
      "d": 32.05131249999977,
      "v": 21
    },
    {
      "midi": 89,
      "hit": false,
      "t": 41196.620333333274,
      "d": 32.05131249999977,
      "v": 25
    },
    {
      "midi": 77,
      "hit": false,
      "t": 41250.03918749994,
      "d": 32.05131249999977,
      "v": 52
    },
    {
      "midi": 82,
      "hit": false,
      "t": 41250.03918749994,
      "d": 32.05131249999977,
      "v": 67
    },
    {
      "midi": 86,
      "hit": false,
      "t": 41250.03918749994,
      "d": 32.05131249999977,
      "v": 48
    },
    {
      "midi": 89,
      "hit": false,
      "t": 41250.03918749994,
      "d": 32.05131249999977,
      "v": 50
    },
    {
      "midi": 77,
      "hit": false,
      "t": 41324.82558333327,
      "d": 32.05131249999977,
      "v": 27
    },
    {
      "midi": 82,
      "hit": false,
      "t": 41324.82558333327,
      "d": 32.05131249999977,
      "v": 34
    },
    {
      "midi": 86,
      "hit": false,
      "t": 41324.82558333327,
      "d": 32.05131249999977,
      "v": 25
    },
    {
      "midi": 89,
      "hit": false,
      "t": 41324.82558333327,
      "d": 32.05131249999977,
      "v": 25
    },
    {
      "midi": 77,
      "hit": false,
      "t": 41410.29574999994,
      "d": 32.05131249999977,
      "v": 117
    },
    {
      "midi": 82,
      "hit": false,
      "t": 41410.29574999994,
      "d": 32.05131249999977,
      "v": 127
    },
    {
      "midi": 86,
      "hit": false,
      "t": 41410.29574999994,
      "d": 32.05131249999977,
      "v": 86
    },
    {
      "midi": 89,
      "hit": false,
      "t": 41410.29574999994,
      "d": 32.05131249999977,
      "v": 93
    },
    {
      "midi": 77,
      "hit": false,
      "t": 41506.44968749994,
      "d": 32.05131249999977,
      "v": 62
    },
    {
      "midi": 82,
      "hit": false,
      "t": 41506.44968749994,
      "d": 32.05131249999977,
      "v": 67
    },
    {
      "midi": 86,
      "hit": false,
      "t": 41506.44968749994,
      "d": 32.05131249999977,
      "v": 46
    },
    {
      "midi": 89,
      "hit": false,
      "t": 41506.44968749994,
      "d": 32.05131249999977,
      "v": 50
    },
    {
      "midi": 77,
      "hit": false,
      "t": 41581.23608333327,
      "d": 32.05131249999977,
      "v": 32
    },
    {
      "midi": 82,
      "hit": false,
      "t": 41581.23608333327,
      "d": 32.05131249999977,
      "v": 34
    },
    {
      "midi": 86,
      "hit": false,
      "t": 41581.23608333327,
      "d": 32.05131249999977,
      "v": 23
    },
    {
      "midi": 89,
      "hit": false,
      "t": 41581.23608333327,
      "d": 32.05131249999977,
      "v": 25
    },
    {
      "midi": 77,
      "hit": false,
      "t": 41666.70624999994,
      "d": 32.05131249999977,
      "v": 106
    },
    {
      "midi": 82,
      "hit": false,
      "t": 41666.70624999994,
      "d": 32.05131249999977,
      "v": 127
    },
    {
      "midi": 86,
      "hit": false,
      "t": 41666.70624999994,
      "d": 32.05131249999977,
      "v": 80
    },
    {
      "midi": 89,
      "hit": false,
      "t": 41666.70624999994,
      "d": 32.05131249999977,
      "v": 93
    },
    {
      "midi": 77,
      "hit": false,
      "t": 41762.86018749994,
      "d": 32.05131249999977,
      "v": 56
    },
    {
      "midi": 82,
      "hit": false,
      "t": 41762.86018749994,
      "d": 32.05131249999977,
      "v": 67
    },
    {
      "midi": 86,
      "hit": false,
      "t": 41762.86018749994,
      "d": 32.05131249999977,
      "v": 42
    },
    {
      "midi": 89,
      "hit": false,
      "t": 41762.86018749994,
      "d": 32.05131249999977,
      "v": 50
    },
    {
      "midi": 77,
      "hit": false,
      "t": 41794.91149999994,
      "d": 32.05131249999977,
      "v": 89
    },
    {
      "midi": 82,
      "hit": false,
      "t": 41794.91149999994,
      "d": 32.05131249999977,
      "v": 127
    },
    {
      "midi": 86,
      "hit": false,
      "t": 41794.91149999994,
      "d": 32.05131249999977,
      "v": 83
    },
    {
      "midi": 89,
      "hit": false,
      "t": 41794.91149999994,
      "d": 32.05131249999977,
      "v": 93
    },
    {
      "midi": 77,
      "hit": false,
      "t": 41837.64658333327,
      "d": 32.05131249999977,
      "v": 29
    },
    {
      "midi": 82,
      "hit": false,
      "t": 41837.64658333327,
      "d": 32.05131249999977,
      "v": 34
    },
    {
      "midi": 86,
      "hit": false,
      "t": 41837.64658333327,
      "d": 32.05131249999977,
      "v": 21
    },
    {
      "midi": 89,
      "hit": false,
      "t": 41837.64658333327,
      "d": 32.05131249999977,
      "v": 25
    },
    {
      "midi": 77,
      "hit": false,
      "t": 41891.065437499936,
      "d": 32.05131249999977,
      "v": 48
    },
    {
      "midi": 82,
      "hit": false,
      "t": 41891.065437499936,
      "d": 32.05131249999977,
      "v": 67
    },
    {
      "midi": 86,
      "hit": false,
      "t": 41891.065437499936,
      "d": 32.05131249999977,
      "v": 44
    },
    {
      "midi": 89,
      "hit": false,
      "t": 41891.065437499936,
      "d": 32.05131249999977,
      "v": 50
    },
    {
      "midi": 77,
      "hit": false,
      "t": 41923.116749999936,
      "d": 32.05131249999977,
      "v": 103
    },
    {
      "midi": 82,
      "hit": false,
      "t": 41923.116749999936,
      "d": 32.05131249999977,
      "v": 127
    },
    {
      "midi": 86,
      "hit": false,
      "t": 41923.116749999936,
      "d": 32.05131249999977,
      "v": 98
    },
    {
      "midi": 89,
      "hit": false,
      "t": 41923.116749999936,
      "d": 32.05131249999977,
      "v": 93
    },
    {
      "midi": 77,
      "hit": false,
      "t": 41965.85183333327,
      "d": 32.05131249999977,
      "v": 25
    },
    {
      "midi": 82,
      "hit": false,
      "t": 41965.85183333327,
      "d": 32.05131249999977,
      "v": 34
    },
    {
      "midi": 86,
      "hit": false,
      "t": 41965.85183333327,
      "d": 32.05131249999977,
      "v": 22
    },
    {
      "midi": 89,
      "hit": false,
      "t": 41965.85183333327,
      "d": 32.05131249999977,
      "v": 25
    },
    {
      "midi": 77,
      "hit": false,
      "t": 42019.270687499935,
      "d": 32.05131249999977,
      "v": 55
    },
    {
      "midi": 82,
      "hit": false,
      "t": 42019.270687499935,
      "d": 32.05131249999977,
      "v": 67
    },
    {
      "midi": 86,
      "hit": false,
      "t": 42019.270687499935,
      "d": 32.05131249999977,
      "v": 52
    },
    {
      "midi": 89,
      "hit": false,
      "t": 42019.270687499935,
      "d": 32.05131249999977,
      "v": 50
    },
    {
      "midi": 77,
      "hit": false,
      "t": 42094.05708333327,
      "d": 32.05131249999977,
      "v": 27
    },
    {
      "midi": 82,
      "hit": false,
      "t": 42094.05708333327,
      "d": 32.05131249999977,
      "v": 34
    },
    {
      "midi": 86,
      "hit": false,
      "t": 42094.05708333327,
      "d": 32.05131249999977,
      "v": 27
    },
    {
      "midi": 89,
      "hit": false,
      "t": 42094.05708333327,
      "d": 32.05131249999977,
      "v": 25
    },
    {
      "midi": 77,
      "hit": false,
      "t": 42179.527249999934,
      "d": 32.05131249999977,
      "v": 111
    },
    {
      "midi": 82,
      "hit": false,
      "t": 42179.527249999934,
      "d": 32.05131249999977,
      "v": 127
    },
    {
      "midi": 86,
      "hit": false,
      "t": 42179.527249999934,
      "d": 32.05131249999977,
      "v": 93
    },
    {
      "midi": 89,
      "hit": false,
      "t": 42179.527249999934,
      "d": 32.05131249999977,
      "v": 93
    },
    {
      "midi": 77,
      "hit": false,
      "t": 42275.68118749993,
      "d": 32.05131249999977,
      "v": 59
    },
    {
      "midi": 82,
      "hit": false,
      "t": 42275.68118749993,
      "d": 32.05131249999977,
      "v": 67
    },
    {
      "midi": 86,
      "hit": false,
      "t": 42275.68118749993,
      "d": 32.05131249999977,
      "v": 50
    },
    {
      "midi": 89,
      "hit": false,
      "t": 42275.68118749993,
      "d": 32.05131249999977,
      "v": 50
    },
    {
      "midi": 77,
      "hit": false,
      "t": 42350.467583333266,
      "d": 32.05131249999977,
      "v": 29
    },
    {
      "midi": 82,
      "hit": false,
      "t": 42350.467583333266,
      "d": 32.05131249999977,
      "v": 34
    },
    {
      "midi": 86,
      "hit": false,
      "t": 42350.467583333266,
      "d": 32.05131249999977,
      "v": 25
    },
    {
      "midi": 89,
      "hit": false,
      "t": 42350.467583333266,
      "d": 32.05131249999977,
      "v": 25
    },
    {
      "midi": 77,
      "hit": false,
      "t": 42435.93774999993,
      "d": 32.05131249999977,
      "v": 117
    },
    {
      "midi": 82,
      "hit": false,
      "t": 42435.93774999993,
      "d": 32.05131249999977,
      "v": 127
    },
    {
      "midi": 86,
      "hit": false,
      "t": 42435.93774999993,
      "d": 32.05131249999977,
      "v": 91
    },
    {
      "midi": 89,
      "hit": false,
      "t": 42435.93774999993,
      "d": 32.05131249999977,
      "v": 93
    },
    {
      "midi": 77,
      "hit": false,
      "t": 42532.09168749993,
      "d": 32.05131249999977,
      "v": 62
    },
    {
      "midi": 82,
      "hit": false,
      "t": 42532.09168749993,
      "d": 32.05131249999977,
      "v": 67
    },
    {
      "midi": 86,
      "hit": false,
      "t": 42532.09168749993,
      "d": 32.05131249999977,
      "v": 48
    },
    {
      "midi": 89,
      "hit": false,
      "t": 42532.09168749993,
      "d": 32.05131249999977,
      "v": 50
    },
    {
      "midi": 77,
      "hit": false,
      "t": 42564.14299999993,
      "d": 32.05131249999977,
      "v": 89
    },
    {
      "midi": 82,
      "hit": false,
      "t": 42564.14299999993,
      "d": 32.05131249999977,
      "v": 127
    },
    {
      "midi": 86,
      "hit": false,
      "t": 42564.14299999993,
      "d": 32.05131249999977,
      "v": 91
    },
    {
      "midi": 91,
      "hit": false,
      "t": 42564.14299999993,
      "d": 32.05131249999977,
      "v": 93
    },
    {
      "midi": 77,
      "hit": false,
      "t": 42606.878083333264,
      "d": 32.05131249999977,
      "v": 32
    },
    {
      "midi": 82,
      "hit": false,
      "t": 42606.878083333264,
      "d": 32.05131249999977,
      "v": 34
    },
    {
      "midi": 86,
      "hit": false,
      "t": 42606.878083333264,
      "d": 32.05131249999977,
      "v": 25
    },
    {
      "midi": 89,
      "hit": false,
      "t": 42606.878083333264,
      "d": 32.05131249999977,
      "v": 25
    },
    {
      "midi": 77,
      "hit": false,
      "t": 42660.29693749993,
      "d": 32.05131249999977,
      "v": 48
    },
    {
      "midi": 82,
      "hit": false,
      "t": 42660.29693749993,
      "d": 32.05131249999977,
      "v": 67
    },
    {
      "midi": 86,
      "hit": false,
      "t": 42660.29693749993,
      "d": 32.05131249999977,
      "v": 48
    },
    {
      "midi": 91,
      "hit": false,
      "t": 42660.29693749993,
      "d": 32.05131249999977,
      "v": 50
    },
    {
      "midi": 77,
      "hit": false,
      "t": 42735.08333333326,
      "d": 32.05131249999977,
      "v": 25
    },
    {
      "midi": 82,
      "hit": false,
      "t": 42735.08333333326,
      "d": 32.05131249999977,
      "v": 34
    },
    {
      "midi": 86,
      "hit": false,
      "t": 42735.08333333326,
      "d": 32.05131249999977,
      "v": 25
    },
    {
      "midi": 91,
      "hit": false,
      "t": 42735.08333333326,
      "d": 32.05131249999977,
      "v": 25
    },
    {
      "midi": 77,
      "hit": false,
      "t": 42820.55349999993,
      "d": 32.05131249999977,
      "v": 120
    },
    {
      "midi": 82,
      "hit": false,
      "t": 42820.55349999993,
      "d": 32.05131249999977,
      "v": 127
    },
    {
      "midi": 86,
      "hit": false,
      "t": 42820.55349999993,
      "d": 32.05131249999977,
      "v": 98
    },
    {
      "midi": 91,
      "hit": false,
      "t": 42820.55349999993,
      "d": 32.05131249999977,
      "v": 93
    },
    {
      "midi": 77,
      "hit": false,
      "t": 42916.70743749993,
      "d": 32.05131249999977,
      "v": 63
    },
    {
      "midi": 82,
      "hit": false,
      "t": 42916.70743749993,
      "d": 32.05131249999977,
      "v": 67
    },
    {
      "midi": 86,
      "hit": false,
      "t": 42916.70743749993,
      "d": 32.05131249999977,
      "v": 52
    },
    {
      "midi": 91,
      "hit": false,
      "t": 42916.70743749993,
      "d": 32.05131249999977,
      "v": 50
    },
    {
      "midi": 77,
      "hit": false,
      "t": 42948.75874999993,
      "d": 32.05131249999977,
      "v": 77
    },
    {
      "midi": 82,
      "hit": false,
      "t": 42948.75874999993,
      "d": 32.05131249999977,
      "v": 107
    },
    {
      "midi": 86,
      "hit": false,
      "t": 42948.75874999993,
      "d": 32.05131249999977,
      "v": 89
    },
    {
      "midi": 91,
      "hit": false,
      "t": 42948.75874999993,
      "d": 32.05131249999977,
      "v": 93
    },
    {
      "midi": 77,
      "hit": false,
      "t": 42991.49383333326,
      "d": 32.05131249999977,
      "v": 32
    },
    {
      "midi": 82,
      "hit": false,
      "t": 42991.49383333326,
      "d": 32.05131249999977,
      "v": 34
    },
    {
      "midi": 86,
      "hit": false,
      "t": 42991.49383333326,
      "d": 32.05131249999977,
      "v": 27
    },
    {
      "midi": 91,
      "hit": false,
      "t": 42991.49383333326,
      "d": 32.05131249999977,
      "v": 25
    },
    {
      "midi": 77,
      "hit": false,
      "t": 43044.91268749993,
      "d": 32.05131249999977,
      "v": 41
    },
    {
      "midi": 82,
      "hit": false,
      "t": 43044.91268749993,
      "d": 32.05131249999977,
      "v": 57
    },
    {
      "midi": 86,
      "hit": false,
      "t": 43044.91268749993,
      "d": 32.05131249999977,
      "v": 48
    },
    {
      "midi": 91,
      "hit": false,
      "t": 43044.91268749993,
      "d": 32.05131249999977,
      "v": 50
    },
    {
      "midi": 77,
      "hit": false,
      "t": 43076.96399999993,
      "d": 32.05131249999977,
      "v": 96
    },
    {
      "midi": 82,
      "hit": false,
      "t": 43076.96399999993,
      "d": 32.05131249999977,
      "v": 125
    },
    {
      "midi": 84,
      "hit": false,
      "t": 43076.96399999993,
      "d": 32.05131249999977,
      "v": 103
    },
    {
      "midi": 89,
      "hit": false,
      "t": 43076.96399999993,
      "d": 32.05131249999977,
      "v": 93
    },
    {
      "midi": 77,
      "hit": false,
      "t": 43119.69908333326,
      "d": 32.05131249999977,
      "v": 21
    },
    {
      "midi": 82,
      "hit": false,
      "t": 43119.69908333326,
      "d": 32.05131249999977,
      "v": 29
    },
    {
      "midi": 86,
      "hit": false,
      "t": 43119.69908333326,
      "d": 32.05131249999977,
      "v": 25
    },
    {
      "midi": 91,
      "hit": false,
      "t": 43119.69908333326,
      "d": 32.05131249999977,
      "v": 25
    },
    {
      "midi": 77,
      "hit": false,
      "t": 43173.11793749993,
      "d": 32.05131249999977,
      "v": 50
    },
    {
      "midi": 82,
      "hit": false,
      "t": 43173.11793749993,
      "d": 32.05131249999977,
      "v": 67
    },
    {
      "midi": 84,
      "hit": false,
      "t": 43173.11793749993,
      "d": 32.05131249999977,
      "v": 55
    },
    {
      "midi": 89,
      "hit": false,
      "t": 43173.11793749993,
      "d": 32.05131249999977,
      "v": 50
    },
    {
      "midi": 77,
      "hit": false,
      "t": 43205.169249999926,
      "d": 32.05131249999977,
      "v": 91
    },
    {
      "midi": 82,
      "hit": false,
      "t": 43205.169249999926,
      "d": 32.05131249999977,
      "v": 125
    },
    {
      "midi": 84,
      "hit": false,
      "t": 43205.169249999926,
      "d": 32.05131249999977,
      "v": 100
    },
    {
      "midi": 89,
      "hit": false,
      "t": 43205.169249999926,
      "d": 32.05131249999977,
      "v": 93
    },
    {
      "midi": 77,
      "hit": false,
      "t": 43247.90433333326,
      "d": 32.05131249999977,
      "v": 25
    },
    {
      "midi": 82,
      "hit": false,
      "t": 43247.90433333326,
      "d": 32.05131249999977,
      "v": 34
    },
    {
      "midi": 84,
      "hit": false,
      "t": 43247.90433333326,
      "d": 32.05131249999977,
      "v": 27
    },
    {
      "midi": 89,
      "hit": false,
      "t": 43247.90433333326,
      "d": 32.05131249999977,
      "v": 25
    },
    {
      "midi": 77,
      "hit": false,
      "t": 43301.323187499926,
      "d": 32.05131249999977,
      "v": 48
    },
    {
      "midi": 82,
      "hit": false,
      "t": 43301.323187499926,
      "d": 32.05131249999977,
      "v": 67
    },
    {
      "midi": 84,
      "hit": false,
      "t": 43301.323187499926,
      "d": 32.05131249999977,
      "v": 53
    },
    {
      "midi": 89,
      "hit": false,
      "t": 43301.323187499926,
      "d": 32.05131249999977,
      "v": 50
    },
    {
      "midi": 77,
      "hit": false,
      "t": 43376.10958333326,
      "d": 32.05131249999977,
      "v": 25
    },
    {
      "midi": 82,
      "hit": false,
      "t": 43376.10958333326,
      "d": 32.05131249999977,
      "v": 34
    },
    {
      "midi": 84,
      "hit": false,
      "t": 43376.10958333326,
      "d": 32.05131249999977,
      "v": 27
    },
    {
      "midi": 89,
      "hit": false,
      "t": 43376.10958333326,
      "d": 32.05131249999977,
      "v": 25
    },
    {
      "midi": 77,
      "hit": false,
      "t": 43461.579749999924,
      "d": 32.05131249999977,
      "v": 106
    },
    {
      "midi": 82,
      "hit": false,
      "t": 43461.579749999924,
      "d": 32.05131249999977,
      "v": 127
    },
    {
      "midi": 84,
      "hit": false,
      "t": 43461.579749999924,
      "d": 32.05131249999977,
      "v": 117
    },
    {
      "midi": 89,
      "hit": false,
      "t": 43461.579749999924,
      "d": 32.05131249999977,
      "v": 93
    },
    {
      "midi": 77,
      "hit": false,
      "t": 43557.733687499924,
      "d": 32.05131249999977,
      "v": 56
    },
    {
      "midi": 82,
      "hit": false,
      "t": 43557.733687499924,
      "d": 32.05131249999977,
      "v": 67
    },
    {
      "midi": 84,
      "hit": false,
      "t": 43557.733687499924,
      "d": 32.05131249999977,
      "v": 62
    },
    {
      "midi": 89,
      "hit": false,
      "t": 43557.733687499924,
      "d": 32.05131249999977,
      "v": 50
    },
    {
      "midi": 77,
      "hit": false,
      "t": 43589.78499999992,
      "d": 32.05131249999977,
      "v": 91
    },
    {
      "midi": 82,
      "hit": false,
      "t": 43589.78499999992,
      "d": 32.05131249999977,
      "v": 127
    },
    {
      "midi": 84,
      "hit": false,
      "t": 43589.78499999992,
      "d": 32.05131249999977,
      "v": 111
    },
    {
      "midi": 89,
      "hit": false,
      "t": 43589.78499999992,
      "d": 32.05131249999977,
      "v": 93
    },
    {
      "midi": 77,
      "hit": false,
      "t": 43632.52008333326,
      "d": 32.05131249999977,
      "v": 29
    },
    {
      "midi": 82,
      "hit": false,
      "t": 43632.52008333326,
      "d": 32.05131249999977,
      "v": 34
    },
    {
      "midi": 84,
      "hit": false,
      "t": 43632.52008333326,
      "d": 32.05131249999977,
      "v": 32
    },
    {
      "midi": 89,
      "hit": false,
      "t": 43632.52008333326,
      "d": 32.05131249999977,
      "v": 25
    },
    {
      "midi": 77,
      "hit": false,
      "t": 43685.93893749992,
      "d": 32.05131249999977,
      "v": 48
    },
    {
      "midi": 82,
      "hit": false,
      "t": 43685.93893749992,
      "d": 32.05131249999977,
      "v": 67
    },
    {
      "midi": 84,
      "hit": false,
      "t": 43685.93893749992,
      "d": 32.05131249999977,
      "v": 59
    },
    {
      "midi": 89,
      "hit": false,
      "t": 43685.93893749992,
      "d": 32.05131249999977,
      "v": 50
    },
    {
      "midi": 77,
      "hit": false,
      "t": 43760.725333333256,
      "d": 32.05131249999977,
      "v": 25
    },
    {
      "midi": 82,
      "hit": false,
      "t": 43760.725333333256,
      "d": 32.05131249999977,
      "v": 34
    },
    {
      "midi": 84,
      "hit": false,
      "t": 43760.725333333256,
      "d": 32.05131249999977,
      "v": 29
    },
    {
      "midi": 89,
      "hit": false,
      "t": 43760.725333333256,
      "d": 32.05131249999977,
      "v": 25
    },
    {
      "midi": 77,
      "hit": false,
      "t": 43846.19549999992,
      "d": 32.05131249999977,
      "v": 113
    },
    {
      "midi": 82,
      "hit": false,
      "t": 43846.19549999992,
      "d": 32.05131249999977,
      "v": 127
    },
    {
      "midi": 84,
      "hit": false,
      "t": 43846.19549999992,
      "d": 32.05131249999977,
      "v": 123
    },
    {
      "midi": 89,
      "hit": false,
      "t": 43846.19549999992,
      "d": 32.05131249999977,
      "v": 93
    },
    {
      "midi": 77,
      "hit": false,
      "t": 43942.34943749992,
      "d": 32.05131249999977,
      "v": 60
    },
    {
      "midi": 82,
      "hit": false,
      "t": 43942.34943749992,
      "d": 32.05131249999977,
      "v": 67
    },
    {
      "midi": 84,
      "hit": false,
      "t": 43942.34943749992,
      "d": 32.05131249999977,
      "v": 65
    },
    {
      "midi": 89,
      "hit": false,
      "t": 43942.34943749992,
      "d": 32.05131249999977,
      "v": 50
    },
    {
      "midi": 77,
      "hit": false,
      "t": 43974.40074999992,
      "d": 32.05131249999977,
      "v": 89
    },
    {
      "midi": 82,
      "hit": false,
      "t": 43974.40074999992,
      "d": 32.05131249999977,
      "v": 127
    },
    {
      "midi": 84,
      "hit": false,
      "t": 43974.40074999992,
      "d": 32.05131249999977,
      "v": 117
    },
    {
      "midi": 89,
      "hit": false,
      "t": 43974.40074999992,
      "d": 32.05131249999977,
      "v": 93
    },
    {
      "midi": 77,
      "hit": false,
      "t": 44017.135833333254,
      "d": 32.05131249999977,
      "v": 31
    },
    {
      "midi": 82,
      "hit": false,
      "t": 44017.135833333254,
      "d": 32.05131249999977,
      "v": 34
    },
    {
      "midi": 84,
      "hit": false,
      "t": 44017.135833333254,
      "d": 32.05131249999977,
      "v": 33
    },
    {
      "midi": 89,
      "hit": false,
      "t": 44017.135833333254,
      "d": 32.05131249999977,
      "v": 25
    },
    {
      "midi": 77,
      "hit": false,
      "t": 44070.55468749992,
      "d": 32.05131249999977,
      "v": 48
    },
    {
      "midi": 82,
      "hit": false,
      "t": 44070.55468749992,
      "d": 32.05131249999977,
      "v": 67
    },
    {
      "midi": 84,
      "hit": false,
      "t": 44070.55468749992,
      "d": 32.05131249999977,
      "v": 62
    },
    {
      "midi": 89,
      "hit": false,
      "t": 44070.55468749992,
      "d": 32.05131249999977,
      "v": 50
    },
    {
      "midi": 77,
      "hit": false,
      "t": 44145.34108333325,
      "d": 32.05131249999977,
      "v": 25
    },
    {
      "midi": 82,
      "hit": false,
      "t": 44145.34108333325,
      "d": 32.05131249999977,
      "v": 34
    },
    {
      "midi": 84,
      "hit": false,
      "t": 44145.34108333325,
      "d": 32.05131249999977,
      "v": 32
    },
    {
      "midi": 89,
      "hit": false,
      "t": 44145.34108333325,
      "d": 32.05131249999977,
      "v": 25
    },
    {
      "midi": 77,
      "hit": false,
      "t": 44230.81124999992,
      "d": 32.05131249999977,
      "v": 108
    },
    {
      "midi": 82,
      "hit": false,
      "t": 44230.81124999992,
      "d": 32.05131249999977,
      "v": 127
    },
    {
      "midi": 84,
      "hit": false,
      "t": 44230.81124999992,
      "d": 32.05131249999977,
      "v": 113
    },
    {
      "midi": 89,
      "hit": false,
      "t": 44230.81124999992,
      "d": 32.05131249999977,
      "v": 93
    },
    {
      "midi": 77,
      "hit": false,
      "t": 44326.96518749992,
      "d": 32.05131249999977,
      "v": 57
    },
    {
      "midi": 82,
      "hit": false,
      "t": 44326.96518749992,
      "d": 32.05131249999977,
      "v": 67
    },
    {
      "midi": 84,
      "hit": false,
      "t": 44326.96518749992,
      "d": 32.05131249999977,
      "v": 60
    },
    {
      "midi": 89,
      "hit": false,
      "t": 44326.96518749992,
      "d": 32.05131249999977,
      "v": 50
    },
    {
      "midi": 77,
      "hit": false,
      "t": 44401.75158333325,
      "d": 32.05131249999977,
      "v": 29
    },
    {
      "midi": 82,
      "hit": false,
      "t": 44401.75158333325,
      "d": 32.05131249999977,
      "v": 34
    },
    {
      "midi": 84,
      "hit": false,
      "t": 44401.75158333325,
      "d": 32.05131249999977,
      "v": 31
    },
    {
      "midi": 89,
      "hit": false,
      "t": 44401.75158333325,
      "d": 32.05131249999977,
      "v": 25
    },
    {
      "midi": 77,
      "hit": false,
      "t": 44487.22174999992,
      "d": 32.05131249999977,
      "v": 93
    },
    {
      "midi": 82,
      "hit": false,
      "t": 44487.22174999992,
      "d": 32.05131249999977,
      "v": 111
    },
    {
      "midi": 84,
      "hit": false,
      "t": 44487.22174999992,
      "d": 32.05131249999977,
      "v": 83
    },
    {
      "midi": 89,
      "hit": false,
      "t": 44487.22174999992,
      "d": 32.05131249999977,
      "v": 93
    },
    {
      "midi": 77,
      "hit": false,
      "t": 44583.375687499916,
      "d": 32.05131249999977,
      "v": 50
    },
    {
      "midi": 82,
      "hit": false,
      "t": 44583.375687499916,
      "d": 32.05131249999977,
      "v": 59
    },
    {
      "midi": 84,
      "hit": false,
      "t": 44583.375687499916,
      "d": 32.05131249999977,
      "v": 44
    },
    {
      "midi": 89,
      "hit": false,
      "t": 44583.375687499916,
      "d": 32.05131249999977,
      "v": 50
    },
    {
      "midi": 77,
      "hit": false,
      "t": 44615.426999999916,
      "d": 32.05131249999977,
      "v": 98
    },
    {
      "midi": 82,
      "hit": false,
      "t": 44615.426999999916,
      "d": 32.05131249999977,
      "v": 127
    },
    {
      "midi": 84,
      "hit": false,
      "t": 44615.426999999916,
      "d": 32.05131249999977,
      "v": 103
    },
    {
      "midi": 89,
      "hit": false,
      "t": 44615.426999999916,
      "d": 32.05131249999977,
      "v": 93
    },
    {
      "midi": 77,
      "hit": false,
      "t": 44658.16208333325,
      "d": 32.05131249999977,
      "v": 25
    },
    {
      "midi": 82,
      "hit": false,
      "t": 44658.16208333325,
      "d": 32.05131249999977,
      "v": 29
    },
    {
      "midi": 84,
      "hit": false,
      "t": 44658.16208333325,
      "d": 32.05131249999977,
      "v": 22
    },
    {
      "midi": 89,
      "hit": false,
      "t": 44658.16208333325,
      "d": 32.05131249999977,
      "v": 25
    },
    {
      "midi": 77,
      "hit": false,
      "t": 44711.580937499915,
      "d": 32.05131249999977,
      "v": 52
    },
    {
      "midi": 82,
      "hit": false,
      "t": 44711.580937499915,
      "d": 32.05131249999977,
      "v": 67
    },
    {
      "midi": 84,
      "hit": false,
      "t": 44711.580937499915,
      "d": 32.05131249999977,
      "v": 55
    },
    {
      "midi": 89,
      "hit": false,
      "t": 44711.580937499915,
      "d": 32.05131249999977,
      "v": 50
    },
    {
      "midi": 77,
      "hit": false,
      "t": 44786.36733333325,
      "d": 32.05131249999977,
      "v": 27
    },
    {
      "midi": 82,
      "hit": false,
      "t": 44786.36733333325,
      "d": 32.05131249999977,
      "v": 34
    },
    {
      "midi": 84,
      "hit": false,
      "t": 44786.36733333325,
      "d": 32.05131249999977,
      "v": 27
    },
    {
      "midi": 89,
      "hit": false,
      "t": 44786.36733333325,
      "d": 32.05131249999977,
      "v": 25
    },
    {
      "midi": 77,
      "hit": false,
      "t": 44871.837499999914,
      "d": 32.05131249999977,
      "v": 93
    },
    {
      "midi": 82,
      "hit": false,
      "t": 44871.837499999914,
      "d": 32.05131249999977,
      "v": 127
    },
    {
      "midi": 84,
      "hit": false,
      "t": 44871.837499999914,
      "d": 32.05131249999977,
      "v": 113
    },
    {
      "midi": 89,
      "hit": false,
      "t": 44871.837499999914,
      "d": 32.05131249999977,
      "v": 93
    },
    {
      "midi": 77,
      "hit": false,
      "t": 44967.99143749991,
      "d": 32.05131249999977,
      "v": 50
    },
    {
      "midi": 82,
      "hit": false,
      "t": 44967.99143749991,
      "d": 32.05131249999977,
      "v": 67
    },
    {
      "midi": 84,
      "hit": false,
      "t": 44967.99143749991,
      "d": 32.05131249999977,
      "v": 60
    },
    {
      "midi": 89,
      "hit": false,
      "t": 44967.99143749991,
      "d": 32.05131249999977,
      "v": 50
    },
    {
      "midi": 77,
      "hit": false,
      "t": 45000.04274999991,
      "d": 32.05131249999977,
      "v": 82
    },
    {
      "midi": 82,
      "hit": false,
      "t": 45000.04274999991,
      "d": 32.05131249999977,
      "v": 125
    },
    {
      "midi": 84,
      "hit": false,
      "t": 45000.04274999991,
      "d": 32.05131249999977,
      "v": 106
    },
    {
      "midi": 89,
      "hit": false,
      "t": 45000.04274999991,
      "d": 32.05131249999977,
      "v": 93
    },
    {
      "midi": 77,
      "hit": false,
      "t": 45042.777833333246,
      "d": 32.05131249999977,
      "v": 25
    },
    {
      "midi": 82,
      "hit": false,
      "t": 45042.777833333246,
      "d": 32.05131249999977,
      "v": 34
    },
    {
      "midi": 84,
      "hit": false,
      "t": 45042.777833333246,
      "d": 32.05131249999977,
      "v": 31
    },
    {
      "midi": 89,
      "hit": false,
      "t": 45042.777833333246,
      "d": 32.05131249999977,
      "v": 25
    },
    {
      "midi": 77,
      "hit": false,
      "t": 45096.19668749991,
      "d": 32.05131249999977,
      "v": 43
    },
    {
      "midi": 82,
      "hit": false,
      "t": 45096.19668749991,
      "d": 32.05131249999977,
      "v": 67
    },
    {
      "midi": 84,
      "hit": false,
      "t": 45096.19668749991,
      "d": 32.05131249999977,
      "v": 56
    },
    {
      "midi": 89,
      "hit": false,
      "t": 45096.19668749991,
      "d": 32.05131249999977,
      "v": 50
    },
    {
      "midi": 77,
      "hit": false,
      "t": 45128.24799999991,
      "d": 32.05131249999977,
      "v": 100
    },
    {
      "midi": 81,
      "hit": false,
      "t": 45128.24799999991,
      "d": 32.05131249999977,
      "v": 96
    },
    {
      "midi": 86,
      "hit": false,
      "t": 45128.24799999991,
      "d": 32.05131249999977,
      "v": 100
    },
    {
      "midi": 77,
      "hit": false,
      "t": 45170.983083333245,
      "d": 32.05131249999977,
      "v": 22
    },
    {
      "midi": 82,
      "hit": false,
      "t": 45170.983083333245,
      "d": 32.05131249999977,
      "v": 34
    },
    {
      "midi": 84,
      "hit": false,
      "t": 45170.983083333245,
      "d": 32.05131249999977,
      "v": 29
    },
    {
      "midi": 89,
      "hit": false,
      "t": 45170.983083333245,
      "d": 32.05131249999977,
      "v": 25
    },
    {
      "midi": 77,
      "hit": false,
      "t": 45224.40193749991,
      "d": 32.05131249999977,
      "v": 53
    },
    {
      "midi": 81,
      "hit": false,
      "t": 45224.40193749991,
      "d": 32.05131249999977,
      "v": 50
    },
    {
      "midi": 86,
      "hit": false,
      "t": 45224.40193749991,
      "d": 32.05131249999977,
      "v": 53
    },
    {
      "midi": 77,
      "hit": false,
      "t": 45256.45324999991,
      "d": 32.05131249999977,
      "v": 71
    },
    {
      "midi": 81,
      "hit": false,
      "t": 45256.45324999991,
      "d": 32.05131249999977,
      "v": 108
    },
    {
      "midi": 86,
      "hit": false,
      "t": 45256.45324999991,
      "d": 32.05131249999977,
      "v": 93
    },
    {
      "midi": 77,
      "hit": false,
      "t": 45299.188333333244,
      "d": 32.05131249999977,
      "v": 27
    },
    {
      "midi": 81,
      "hit": false,
      "t": 45299.188333333244,
      "d": 32.05131249999977,
      "v": 25
    },
    {
      "midi": 86,
      "hit": false,
      "t": 45299.188333333244,
      "d": 32.05131249999977,
      "v": 27
    },
    {
      "midi": 77,
      "hit": false,
      "t": 45352.60718749991,
      "d": 32.05131249999977,
      "v": 38
    },
    {
      "midi": 81,
      "hit": false,
      "t": 45352.60718749991,
      "d": 32.05131249999977,
      "v": 57
    },
    {
      "midi": 86,
      "hit": false,
      "t": 45352.60718749991,
      "d": 32.05131249999977,
      "v": 50
    },
    {
      "midi": 77,
      "hit": false,
      "t": 45427.39358333324,
      "d": 32.05131249999977,
      "v": 19
    },
    {
      "midi": 81,
      "hit": false,
      "t": 45427.39358333324,
      "d": 32.05131249999977,
      "v": 29
    },
    {
      "midi": 86,
      "hit": false,
      "t": 45427.39358333324,
      "d": 32.05131249999977,
      "v": 25
    },
    {
      "midi": 77,
      "hit": false,
      "t": 45512.86374999991,
      "d": 32.05131249999977,
      "v": 93
    },
    {
      "midi": 81,
      "hit": false,
      "t": 45512.86374999991,
      "d": 32.05131249999977,
      "v": 123
    },
    {
      "midi": 86,
      "hit": false,
      "t": 45512.86374999991,
      "d": 32.05131249999977,
      "v": 78
    },
    {
      "midi": 77,
      "hit": false,
      "t": 45609.01768749991,
      "d": 32.05131249999977,
      "v": 50
    },
    {
      "midi": 81,
      "hit": false,
      "t": 45609.01768749991,
      "d": 32.05131249999977,
      "v": 65
    },
    {
      "midi": 86,
      "hit": false,
      "t": 45609.01768749991,
      "d": 32.05131249999977,
      "v": 41
    },
    {
      "midi": 77,
      "hit": false,
      "t": 45641.06899999991,
      "d": 32.05131249999977,
      "v": 111
    },
    {
      "midi": 81,
      "hit": false,
      "t": 45641.06899999991,
      "d": 32.05131249999977,
      "v": 127
    },
    {
      "midi": 86,
      "hit": false,
      "t": 45641.06899999991,
      "d": 32.05131249999977,
      "v": 106
    },
    {
      "midi": 77,
      "hit": false,
      "t": 45683.80408333324,
      "d": 32.05131249999977,
      "v": 25
    },
    {
      "midi": 81,
      "hit": false,
      "t": 45683.80408333324,
      "d": 32.05131249999977,
      "v": 33
    },
    {
      "midi": 86,
      "hit": false,
      "t": 45683.80408333324,
      "d": 32.05131249999977,
      "v": 21
    },
    {
      "midi": 77,
      "hit": false,
      "t": 45737.22293749991,
      "d": 32.05131249999977,
      "v": 59
    },
    {
      "midi": 81,
      "hit": false,
      "t": 45737.22293749991,
      "d": 32.05131249999977,
      "v": 67
    },
    {
      "midi": 86,
      "hit": false,
      "t": 45737.22293749991,
      "d": 32.05131249999977,
      "v": 56
    },
    {
      "midi": 77,
      "hit": false,
      "t": 45812.00933333324,
      "d": 32.05131249999977,
      "v": 29
    },
    {
      "midi": 81,
      "hit": false,
      "t": 45812.00933333324,
      "d": 32.05131249999977,
      "v": 34
    },
    {
      "midi": 86,
      "hit": false,
      "t": 45812.00933333324,
      "d": 32.05131249999977,
      "v": 29
    },
    {
      "midi": 77,
      "hit": false,
      "t": 45897.47949999991,
      "d": 32.05131249999977,
      "v": 117
    },
    {
      "midi": 81,
      "hit": false,
      "t": 45897.47949999991,
      "d": 32.05131249999977,
      "v": 127
    },
    {
      "midi": 86,
      "hit": false,
      "t": 45897.47949999991,
      "d": 32.05131249999977,
      "v": 93
    },
    {
      "midi": 77,
      "hit": false,
      "t": 45993.633437499906,
      "d": 32.05131249999977,
      "v": 62
    },
    {
      "midi": 81,
      "hit": false,
      "t": 45993.633437499906,
      "d": 32.05131249999977,
      "v": 67
    },
    {
      "midi": 86,
      "hit": false,
      "t": 45993.633437499906,
      "d": 32.05131249999977,
      "v": 50
    },
    {
      "midi": 77,
      "hit": false,
      "t": 46025.684749999906,
      "d": 32.05131249999977,
      "v": 108
    },
    {
      "midi": 81,
      "hit": false,
      "t": 46025.684749999906,
      "d": 32.05131249999977,
      "v": 127
    },
    {
      "midi": 86,
      "hit": false,
      "t": 46025.684749999906,
      "d": 32.05131249999977,
      "v": 100
    },
    {
      "midi": 77,
      "hit": false,
      "t": 46068.41983333324,
      "d": 32.05131249999977,
      "v": 32
    },
    {
      "midi": 81,
      "hit": false,
      "t": 46068.41983333324,
      "d": 32.05131249999977,
      "v": 34
    },
    {
      "midi": 86,
      "hit": false,
      "t": 46068.41983333324,
      "d": 32.05131249999977,
      "v": 25
    },
    {
      "midi": 77,
      "hit": false,
      "t": 46121.838687499905,
      "d": 32.05131249999977,
      "v": 57
    },
    {
      "midi": 81,
      "hit": false,
      "t": 46121.838687499905,
      "d": 32.05131249999977,
      "v": 67
    },
    {
      "midi": 86,
      "hit": false,
      "t": 46121.838687499905,
      "d": 32.05131249999977,
      "v": 53
    },
    {
      "midi": 77,
      "hit": false,
      "t": 46196.62508333324,
      "d": 32.05131249999977,
      "v": 29
    },
    {
      "midi": 81,
      "hit": false,
      "t": 46196.62508333324,
      "d": 32.05131249999977,
      "v": 34
    },
    {
      "midi": 86,
      "hit": false,
      "t": 46196.62508333324,
      "d": 32.05131249999977,
      "v": 27
    },
    {
      "midi": 77,
      "hit": false,
      "t": 46282.095249999904,
      "d": 32.05131249999977,
      "v": 120
    },
    {
      "midi": 81,
      "hit": false,
      "t": 46282.095249999904,
      "d": 32.05131249999977,
      "v": 127
    },
    {
      "midi": 86,
      "hit": false,
      "t": 46282.095249999904,
      "d": 32.05131249999977,
      "v": 100
    },
    {
      "midi": 77,
      "hit": false,
      "t": 46378.2491874999,
      "d": 32.05131249999977,
      "v": 63
    },
    {
      "midi": 81,
      "hit": false,
      "t": 46378.2491874999,
      "d": 32.05131249999977,
      "v": 67
    },
    {
      "midi": 86,
      "hit": false,
      "t": 46378.2491874999,
      "d": 32.05131249999977,
      "v": 53
    },
    {
      "midi": 77,
      "hit": false,
      "t": 46453.035583333236,
      "d": 32.05131249999977,
      "v": 32
    },
    {
      "midi": 81,
      "hit": false,
      "t": 46453.035583333236,
      "d": 32.05131249999977,
      "v": 34
    },
    {
      "midi": 86,
      "hit": false,
      "t": 46453.035583333236,
      "d": 32.05131249999977,
      "v": 27
    },
    {
      "midi": 77,
      "hit": false,
      "t": 46538.5057499999,
      "d": 32.05131249999977,
      "v": 98
    },
    {
      "midi": 81,
      "hit": false,
      "t": 46538.5057499999,
      "d": 32.05131249999977,
      "v": 127
    },
    {
      "midi": 86,
      "hit": false,
      "t": 46538.5057499999,
      "d": 32.05131249999977,
      "v": 89
    },
    {
      "midi": 77,
      "hit": false,
      "t": 46634.6596874999,
      "d": 32.05131249999977,
      "v": 52
    },
    {
      "midi": 81,
      "hit": false,
      "t": 46634.6596874999,
      "d": 32.05131249999977,
      "v": 67
    },
    {
      "midi": 86,
      "hit": false,
      "t": 46634.6596874999,
      "d": 32.05131249999977,
      "v": 48
    },
    {
      "midi": 77,
      "hit": false,
      "t": 46666.7109999999,
      "d": 32.05131249999977,
      "v": 113
    },
    {
      "midi": 81,
      "hit": false,
      "t": 46666.7109999999,
      "d": 32.05131249999977,
      "v": 127
    },
    {
      "midi": 86,
      "hit": false,
      "t": 46666.7109999999,
      "d": 32.05131249999977,
      "v": 100
    },
    {
      "midi": 77,
      "hit": false,
      "t": 46709.446083333234,
      "d": 32.05131249999977,
      "v": 27
    },
    {
      "midi": 81,
      "hit": false,
      "t": 46709.446083333234,
      "d": 32.05131249999977,
      "v": 34
    },
    {
      "midi": 86,
      "hit": false,
      "t": 46709.446083333234,
      "d": 32.05131249999977,
      "v": 25
    },
    {
      "midi": 77,
      "hit": false,
      "t": 46762.8649374999,
      "d": 32.05131249999977,
      "v": 60
    },
    {
      "midi": 81,
      "hit": false,
      "t": 46762.8649374999,
      "d": 32.05131249999977,
      "v": 67
    },
    {
      "midi": 86,
      "hit": false,
      "t": 46762.8649374999,
      "d": 32.05131249999977,
      "v": 53
    },
    {
      "midi": 77,
      "hit": false,
      "t": 46794.9162499999,
      "d": 32.05131249999977,
      "v": 106
    },
    {
      "midi": 81,
      "hit": false,
      "t": 46794.9162499999,
      "d": 32.05131249999977,
      "v": 126
    },
    {
      "midi": 86,
      "hit": false,
      "t": 46794.9162499999,
      "d": 32.05131249999977,
      "v": 98
    },
    {
      "midi": 77,
      "hit": false,
      "t": 46837.65133333323,
      "d": 32.05131249999977,
      "v": 31
    },
    {
      "midi": 81,
      "hit": false,
      "t": 46837.65133333323,
      "d": 32.05131249999977,
      "v": 34
    },
    {
      "midi": 86,
      "hit": false,
      "t": 46837.65133333323,
      "d": 32.05131249999977,
      "v": 27
    },
    {
      "midi": 77,
      "hit": false,
      "t": 46891.0701874999,
      "d": 32.05131249999977,
      "v": 56
    },
    {
      "midi": 81,
      "hit": false,
      "t": 46891.0701874999,
      "d": 32.05131249999977,
      "v": 67
    },
    {
      "midi": 86,
      "hit": false,
      "t": 46891.0701874999,
      "d": 32.05131249999977,
      "v": 52
    },
    {
      "midi": 77,
      "hit": false,
      "t": 46965.85658333323,
      "d": 32.05131249999977,
      "v": 29
    },
    {
      "midi": 81,
      "hit": false,
      "t": 46965.85658333323,
      "d": 32.05131249999977,
      "v": 34
    },
    {
      "midi": 86,
      "hit": false,
      "t": 46965.85658333323,
      "d": 32.05131249999977,
      "v": 27
    },
    {
      "midi": 77,
      "hit": false,
      "t": 47051.3267499999,
      "d": 32.05131249999977,
      "v": 113
    },
    {
      "midi": 79,
      "hit": false,
      "t": 47051.3267499999,
      "d": 32.05131249999977,
      "v": 127
    },
    {
      "midi": 86,
      "hit": false,
      "t": 47051.3267499999,
      "d": 32.05131249999977,
      "v": 86
    },
    {
      "midi": 77,
      "hit": false,
      "t": 47147.4806874999,
      "d": 32.05131249999977,
      "v": 60
    },
    {
      "midi": 79,
      "hit": false,
      "t": 47147.4806874999,
      "d": 32.05131249999977,
      "v": 67
    },
    {
      "midi": 86,
      "hit": false,
      "t": 47147.4806874999,
      "d": 32.05131249999977,
      "v": 46
    },
    {
      "midi": 77,
      "hit": false,
      "t": 47179.5319999999,
      "d": 32.05131249999977,
      "v": 127
    },
    {
      "midi": 79,
      "hit": false,
      "t": 47179.5319999999,
      "d": 32.05131249999977,
      "v": 127
    },
    {
      "midi": 86,
      "hit": false,
      "t": 47179.5319999999,
      "d": 32.05131249999977,
      "v": 120
    },
    {
      "midi": 77,
      "hit": false,
      "t": 47222.26708333323,
      "d": 32.05131249999977,
      "v": 31
    },
    {
      "midi": 79,
      "hit": false,
      "t": 47222.26708333323,
      "d": 32.05131249999977,
      "v": 34
    },
    {
      "midi": 86,
      "hit": false,
      "t": 47222.26708333323,
      "d": 32.05131249999977,
      "v": 23
    },
    {
      "midi": 77,
      "hit": false,
      "t": 47275.6859374999,
      "d": 32.05131249999977,
      "v": 67
    },
    {
      "midi": 79,
      "hit": false,
      "t": 47275.6859374999,
      "d": 32.05131249999977,
      "v": 67
    },
    {
      "midi": 86,
      "hit": false,
      "t": 47275.6859374999,
      "d": 32.05131249999977,
      "v": 63
    },
    {
      "midi": 77,
      "hit": false,
      "t": 47350.47233333323,
      "d": 32.05131249999977,
      "v": 34
    },
    {
      "midi": 79,
      "hit": false,
      "t": 47350.47233333323,
      "d": 32.05131249999977,
      "v": 34
    },
    {
      "midi": 86,
      "hit": false,
      "t": 47350.47233333323,
      "d": 32.05131249999977,
      "v": 32
    },
    {
      "midi": 77,
      "hit": false,
      "t": 47435.942499999896,
      "d": 32.05131249999977,
      "v": 117
    },
    {
      "midi": 79,
      "hit": false,
      "t": 47435.942499999896,
      "d": 32.05131249999977,
      "v": 127
    },
    {
      "midi": 86,
      "hit": false,
      "t": 47435.942499999896,
      "d": 32.05131249999977,
      "v": 108
    },
    {
      "midi": 77,
      "hit": false,
      "t": 47532.096437499895,
      "d": 32.05131249999977,
      "v": 62
    },
    {
      "midi": 79,
      "hit": false,
      "t": 47532.096437499895,
      "d": 32.05131249999977,
      "v": 67
    },
    {
      "midi": 86,
      "hit": false,
      "t": 47532.096437499895,
      "d": 32.05131249999977,
      "v": 57
    },
    {
      "midi": 77,
      "hit": false,
      "t": 47606.88283333323,
      "d": 32.05131249999977,
      "v": 32
    },
    {
      "midi": 79,
      "hit": false,
      "t": 47606.88283333323,
      "d": 32.05131249999977,
      "v": 34
    },
    {
      "midi": 86,
      "hit": false,
      "t": 47606.88283333323,
      "d": 32.05131249999977,
      "v": 29
    },
    {
      "midi": 77,
      "hit": false,
      "t": 47692.352999999894,
      "d": 32.05131249999977,
      "v": 127
    },
    {
      "midi": 79,
      "hit": false,
      "t": 47692.352999999894,
      "d": 32.05131249999977,
      "v": 120
    },
    {
      "midi": 86,
      "hit": false,
      "t": 47692.352999999894,
      "d": 32.05131249999977,
      "v": 113
    },
    {
      "midi": 77,
      "hit": false,
      "t": 47788.50693749989,
      "d": 32.05131249999977,
      "v": 67
    },
    {
      "midi": 79,
      "hit": false,
      "t": 47788.50693749989,
      "d": 32.05131249999977,
      "v": 63
    },
    {
      "midi": 86,
      "hit": false,
      "t": 47788.50693749989,
      "d": 32.05131249999977,
      "v": 60
    },
    {
      "midi": 77,
      "hit": false,
      "t": 47820.55824999989,
      "d": 32.05131249999977,
      "v": 117
    },
    {
      "midi": 79,
      "hit": false,
      "t": 47820.55824999989,
      "d": 32.05131249999977,
      "v": 127
    },
    {
      "midi": 86,
      "hit": false,
      "t": 47820.55824999989,
      "d": 32.05131249999977,
      "v": 83
    },
    {
      "midi": 77,
      "hit": false,
      "t": 47863.293333333226,
      "d": 32.05131249999977,
      "v": 34
    },
    {
      "midi": 79,
      "hit": false,
      "t": 47863.293333333226,
      "d": 32.05131249999977,
      "v": 32
    },
    {
      "midi": 86,
      "hit": false,
      "t": 47863.293333333226,
      "d": 32.05131249999977,
      "v": 31
    },
    {
      "midi": 77,
      "hit": false,
      "t": 47916.71218749989,
      "d": 32.05131249999977,
      "v": 62
    },
    {
      "midi": 79,
      "hit": false,
      "t": 47916.71218749989,
      "d": 32.05131249999977,
      "v": 67
    },
    {
      "midi": 86,
      "hit": false,
      "t": 47916.71218749989,
      "d": 32.05131249999977,
      "v": 44
    },
    {
      "midi": 77,
      "hit": false,
      "t": 47948.76349999989,
      "d": 32.05131249999977,
      "v": 113
    },
    {
      "midi": 79,
      "hit": false,
      "t": 47948.76349999989,
      "d": 32.05131249999977,
      "v": 120
    },
    {
      "midi": 86,
      "hit": false,
      "t": 47948.76349999989,
      "d": 32.05131249999977,
      "v": 113
    },
    {
      "midi": 77,
      "hit": false,
      "t": 47991.498583333225,
      "d": 32.05131249999977,
      "v": 32
    },
    {
      "midi": 79,
      "hit": false,
      "t": 47991.498583333225,
      "d": 32.05131249999977,
      "v": 34
    },
    {
      "midi": 86,
      "hit": false,
      "t": 47991.498583333225,
      "d": 32.05131249999977,
      "v": 22
    },
    {
      "midi": 77,
      "hit": false,
      "t": 48044.91743749989,
      "d": 32.05131249999977,
      "v": 60
    },
    {
      "midi": 79,
      "hit": false,
      "t": 48044.91743749989,
      "d": 32.05131249999977,
      "v": 63
    },
    {
      "midi": 86,
      "hit": false,
      "t": 48044.91743749989,
      "d": 32.05131249999977,
      "v": 60
    },
    {
      "midi": 77,
      "hit": false,
      "t": 48119.703833333224,
      "d": 32.05131249999977,
      "v": 31
    },
    {
      "midi": 79,
      "hit": false,
      "t": 48119.703833333224,
      "d": 32.05131249999977,
      "v": 32
    },
    {
      "midi": 86,
      "hit": false,
      "t": 48119.703833333224,
      "d": 32.05131249999977,
      "v": 31
    },
    {
      "midi": 77,
      "hit": false,
      "t": 48205.17399999989,
      "d": 32.05131249999977,
      "v": 126
    },
    {
      "midi": 79,
      "hit": false,
      "t": 48205.17399999989,
      "d": 32.05131249999977,
      "v": 127
    },
    {
      "midi": 86,
      "hit": false,
      "t": 48205.17399999989,
      "d": 32.05131249999977,
      "v": 127
    },
    {
      "midi": 77,
      "hit": false,
      "t": 48301.32793749989,
      "d": 32.05131249999977,
      "v": 67
    },
    {
      "midi": 79,
      "hit": false,
      "t": 48301.32793749989,
      "d": 32.05131249999977,
      "v": 67
    },
    {
      "midi": 86,
      "hit": false,
      "t": 48301.32793749989,
      "d": 32.05131249999977,
      "v": 67
    },
    {
      "midi": 77,
      "hit": false,
      "t": 48333.37924999989,
      "d": 32.05131249999977,
      "v": 127
    },
    {
      "midi": 79,
      "hit": false,
      "t": 48333.37924999989,
      "d": 32.05131249999977,
      "v": 127
    },
    {
      "midi": 86,
      "hit": false,
      "t": 48333.37924999989,
      "d": 32.05131249999977,
      "v": 127
    },
    {
      "midi": 77,
      "hit": false,
      "t": 48376.11433333322,
      "d": 32.05131249999977,
      "v": 34
    },
    {
      "midi": 79,
      "hit": false,
      "t": 48376.11433333322,
      "d": 32.05131249999977,
      "v": 34
    },
    {
      "midi": 86,
      "hit": false,
      "t": 48376.11433333322,
      "d": 32.05131249999977,
      "v": 34
    },
    {
      "midi": 77,
      "hit": false,
      "t": 48429.53318749989,
      "d": 32.05131249999977,
      "v": 67
    },
    {
      "midi": 79,
      "hit": false,
      "t": 48429.53318749989,
      "d": 32.05131249999977,
      "v": 67
    },
    {
      "midi": 86,
      "hit": false,
      "t": 48429.53318749989,
      "d": 32.05131249999977,
      "v": 67
    },
    {
      "midi": 77,
      "hit": false,
      "t": 48461.58449999989,
      "d": 32.05131249999977,
      "v": 103
    },
    {
      "midi": 79,
      "hit": false,
      "t": 48461.58449999989,
      "d": 32.05131249999977,
      "v": 113
    },
    {
      "midi": 86,
      "hit": false,
      "t": 48461.58449999989,
      "d": 32.05131249999977,
      "v": 120
    },
    {
      "midi": 77,
      "hit": false,
      "t": 48504.31958333322,
      "d": 32.05131249999977,
      "v": 34
    },
    {
      "midi": 79,
      "hit": false,
      "t": 48504.31958333322,
      "d": 32.05131249999977,
      "v": 34
    },
    {
      "midi": 86,
      "hit": false,
      "t": 48504.31958333322,
      "d": 32.05131249999977,
      "v": 34
    },
    {
      "midi": 77,
      "hit": false,
      "t": 48557.73843749989,
      "d": 32.05131249999977,
      "v": 55
    },
    {
      "midi": 79,
      "hit": false,
      "t": 48557.73843749989,
      "d": 32.05131249999977,
      "v": 60
    },
    {
      "midi": 86,
      "hit": false,
      "t": 48557.73843749989,
      "d": 32.05131249999977,
      "v": 63
    },
    {
      "midi": 77,
      "hit": false,
      "t": 48589.78974999989,
      "d": 32.05131249999977,
      "v": 126
    },
    {
      "midi": 79,
      "hit": false,
      "t": 48589.78974999989,
      "d": 32.05131249999977,
      "v": 127
    },
    {
      "midi": 86,
      "hit": false,
      "t": 48589.78974999989,
      "d": 32.05131249999977,
      "v": 93
    },
    {
      "midi": 77,
      "hit": false,
      "t": 48632.52483333322,
      "d": 32.05131249999977,
      "v": 27
    },
    {
      "midi": 79,
      "hit": false,
      "t": 48632.52483333322,
      "d": 32.05131249999977,
      "v": 31
    },
    {
      "midi": 86,
      "hit": false,
      "t": 48632.52483333322,
      "d": 32.05131249999977,
      "v": 32
    },
    {
      "midi": 77,
      "hit": false,
      "t": 48685.94368749989,
      "d": 32.05131249999977,
      "v": 67
    },
    {
      "midi": 79,
      "hit": false,
      "t": 48685.94368749989,
      "d": 32.05131249999977,
      "v": 67
    },
    {
      "midi": 86,
      "hit": false,
      "t": 48685.94368749989,
      "d": 32.05131249999977,
      "v": 50
    },
    {
      "midi": 77,
      "hit": false,
      "t": 48717.994999999886,
      "d": 32.05131249999977,
      "v": 127
    },
    {
      "midi": 79,
      "hit": false,
      "t": 48717.994999999886,
      "d": 32.05131249999977,
      "v": 127
    },
    {
      "midi": 86,
      "hit": false,
      "t": 48717.994999999886,
      "d": 32.05131249999977,
      "v": 127
    },
    {
      "midi": 77,
      "hit": false,
      "t": 48760.73008333322,
      "d": 32.05131249999977,
      "v": 34
    },
    {
      "midi": 79,
      "hit": false,
      "t": 48760.73008333322,
      "d": 32.05131249999977,
      "v": 34
    },
    {
      "midi": 86,
      "hit": false,
      "t": 48760.73008333322,
      "d": 32.05131249999977,
      "v": 25
    },
    {
      "midi": 77,
      "hit": false,
      "t": 48814.148937499886,
      "d": 32.05131249999977,
      "v": 67
    },
    {
      "midi": 79,
      "hit": false,
      "t": 48814.148937499886,
      "d": 32.05131249999977,
      "v": 67
    },
    {
      "midi": 86,
      "hit": false,
      "t": 48814.148937499886,
      "d": 32.05131249999977,
      "v": 67
    },
    {
      "midi": 77,
      "hit": false,
      "t": 48846.200249999885,
      "d": 32.05131249999977,
      "v": 127
    },
    {
      "midi": 79,
      "hit": false,
      "t": 48846.200249999885,
      "d": 32.05131249999977,
      "v": 127
    },
    {
      "midi": 86,
      "hit": false,
      "t": 48846.200249999885,
      "d": 32.05131249999977,
      "v": 127
    },
    {
      "midi": 77,
      "hit": false,
      "t": 48888.93533333322,
      "d": 32.05131249999977,
      "v": 34
    },
    {
      "midi": 79,
      "hit": false,
      "t": 48888.93533333322,
      "d": 32.05131249999977,
      "v": 34
    },
    {
      "midi": 86,
      "hit": false,
      "t": 48888.93533333322,
      "d": 32.05131249999977,
      "v": 34
    },
    {
      "midi": 77,
      "hit": false,
      "t": 48942.354187499885,
      "d": 32.05131249999977,
      "v": 67
    },
    {
      "midi": 79,
      "hit": false,
      "t": 48942.354187499885,
      "d": 32.05131249999977,
      "v": 67
    },
    {
      "midi": 86,
      "hit": false,
      "t": 48942.354187499885,
      "d": 32.05131249999977,
      "v": 67
    },
    {
      "midi": 77,
      "hit": false,
      "t": 48974.405499999884,
      "d": 32.05131249999977,
      "v": 127
    },
    {
      "midi": 79,
      "hit": false,
      "t": 48974.405499999884,
      "d": 32.05131249999977,
      "v": 127
    },
    {
      "midi": 86,
      "hit": false,
      "t": 48974.405499999884,
      "d": 32.05131249999977,
      "v": 106
    },
    {
      "midi": 77,
      "hit": false,
      "t": 49017.14058333322,
      "d": 32.05131249999977,
      "v": 34
    },
    {
      "midi": 79,
      "hit": false,
      "t": 49017.14058333322,
      "d": 32.05131249999977,
      "v": 34
    },
    {
      "midi": 86,
      "hit": false,
      "t": 49017.14058333322,
      "d": 32.05131249999977,
      "v": 34
    },
    {
      "midi": 77,
      "hit": false,
      "t": 49070.559437499884,
      "d": 32.05131249999977,
      "v": 67
    },
    {
      "midi": 79,
      "hit": false,
      "t": 49070.559437499884,
      "d": 32.05131249999977,
      "v": 67
    },
    {
      "midi": 86,
      "hit": false,
      "t": 49070.559437499884,
      "d": 32.05131249999977,
      "v": 56
    },
    {
      "midi": 77,
      "hit": false,
      "t": 49102.61074999988,
      "d": 32.05131249999977,
      "v": 117
    },
    {
      "midi": 79,
      "hit": false,
      "t": 49102.61074999988,
      "d": 32.05131249999977,
      "v": 127
    },
    {
      "midi": 86,
      "hit": false,
      "t": 49102.61074999988,
      "d": 32.05131249999977,
      "v": 93
    },
    {
      "midi": 77,
      "hit": false,
      "t": 49145.34583333322,
      "d": 32.05131249999977,
      "v": 34
    },
    {
      "midi": 79,
      "hit": false,
      "t": 49145.34583333322,
      "d": 32.05131249999977,
      "v": 34
    },
    {
      "midi": 86,
      "hit": false,
      "t": 49145.34583333322,
      "d": 32.05131249999977,
      "v": 29
    },
    {
      "midi": 77,
      "hit": false,
      "t": 49198.76468749988,
      "d": 32.05131249999977,
      "v": 62
    },
    {
      "midi": 79,
      "hit": false,
      "t": 49198.76468749988,
      "d": 32.05131249999977,
      "v": 67
    },
    {
      "midi": 86,
      "hit": false,
      "t": 49198.76468749988,
      "d": 32.05131249999977,
      "v": 50
    },
    {
      "midi": 77,
      "hit": false,
      "t": 49273.551083333216,
      "d": 32.05131249999977,
      "v": 32
    },
    {
      "midi": 79,
      "hit": false,
      "t": 49273.551083333216,
      "d": 32.05131249999977,
      "v": 34
    },
    {
      "midi": 86,
      "hit": false,
      "t": 49273.551083333216,
      "d": 32.05131249999977,
      "v": 25
    },
    {
      "midi": 58,
      "hit": false,
      "t": 49359.02124999988,
      "d": 120.72661041667016,
      "v": 127
    },
    {
      "midi": 55,
      "hit": false,
      "t": 49615.43174999989,
      "d": 166.66682500000024,
      "v": 120
    },
    {
      "midi": 58,
      "hit": false,
      "t": 49743.636999999886,
      "d": 115.38472500000353,
      "v": 127
    },
    {
      "midi": 58,
      "hit": false,
      "t": 50000.04749999989,
      "d": 126.06849583333678,
      "v": 127
    },
    {
      "midi": 55,
      "hit": false,
      "t": 50256.4579999999,
      "d": 182.69248125000013,
      "v": 127
    },
    {
      "midi": 58,
      "hit": false,
      "t": 50384.663249999896,
      "d": 107.90608541666734,
      "v": 127
    },
    {
      "midi": 60,
      "hit": false,
      "t": 50641.073749999894,
      "d": 141.0257750000019,
      "v": 127
    },
    {
      "midi": 55,
      "hit": false,
      "t": 50897.4842499999,
      "d": 135.68388958333526,
      "v": 127
    },
    {
      "midi": 58,
      "hit": false,
      "t": 51153.894749999905,
      "d": 115.38472500000353,
      "v": 127
    },
    {
      "midi": 58,
      "hit": false,
      "t": 51410.30524999991,
      "d": 120.72661041667016,
      "v": 127
    },
    {
      "midi": 55,
      "hit": false,
      "t": 51666.715749999916,
      "d": 183.7608583333349,
      "v": 123
    },
    {
      "midi": 58,
      "hit": false,
      "t": 51794.920999999915,
      "d": 100.42744583333842,
      "v": 127
    },
    {
      "midi": 58,
      "hit": false,
      "t": 52051.33149999992,
      "d": 150.64116875000036,
      "v": 127
    },
    {
      "midi": 55,
      "hit": false,
      "t": 52307.74199999992,
      "d": 199.7865145833348,
      "v": 127
    },
    {
      "midi": 58,
      "hit": false,
      "t": 52435.94724999992,
      "d": 112.17959374999919,
      "v": 127
    },
    {
      "midi": 60,
      "hit": false,
      "t": 52692.357749999916,
      "d": 133.5471354166657,
      "v": 127
    },
    {
      "midi": 55,
      "hit": false,
      "t": 52948.768249999914,
      "d": 159.18818541666406,
      "v": 123
    },
    {
      "midi": 58,
      "hit": false,
      "t": 53205.17874999991,
      "d": 117.52147916666581,
      "v": 127
    },
    {
      "midi": 58,
      "hit": false,
      "t": 53461.58924999991,
      "d": 135.68388958333526,
      "v": 127
    },
    {
      "midi": 55,
      "hit": false,
      "t": 53717.999749999915,
      "d": 159.18818541666406,
      "v": 127
    },
    {
      "midi": 62,
      "hit": false,
      "t": 53846.204999999914,
      "d": 128.20524999999907,
      "v": 111
    },
    {
      "midi": 62,
      "hit": false,
      "t": 54102.61549999991,
      "d": 135.68388958333526,
      "v": 127
    },
    {
      "midi": 60,
      "hit": false,
      "t": 54359.02599999992,
      "d": 97.22231458333408,
      "v": 127
    },
    {
      "midi": 60,
      "hit": false,
      "t": 54487.23124999992,
      "d": 115.38472500000353,
      "v": 127
    },
    {
      "midi": 60,
      "hit": false,
      "t": 54743.64174999992,
      "d": 143.16252916666417,
      "v": 127
    },
    {
      "midi": 60,
      "hit": false,
      "t": 55000.05224999992,
      "d": 159.18818541666406,
      "v": 127
    },
    {
      "midi": 58,
      "hit": false,
      "t": 55256.46274999992,
      "d": 144.23090624999895,
      "v": 127
    },
    {
      "midi": 58,
      "hit": false,
      "t": 55512.87324999992,
      "d": 130.34200416666863,
      "v": 127
    },
    {
      "midi": 55,
      "hit": false,
      "t": 55769.28374999992,
      "d": 164.53007083333068,
      "v": 126
    },
    {
      "midi": 58,
      "hit": false,
      "t": 55897.48899999992,
      "d": 115.38472499999625,
      "v": 127
    },
    {
      "midi": 58,
      "hit": false,
      "t": 56153.89949999992,
      "d": 133.5471354166657,
      "v": 127
    },
    {
      "midi": 55,
      "hit": false,
      "t": 56410.30999999992,
      "d": 161.32493958333362,
      "v": 120
    },
    {
      "midi": 58,
      "hit": false,
      "t": 56538.51524999992,
      "d": 122.86336458333244,
      "v": 100
    },
    {
      "midi": 60,
      "hit": false,
      "t": 56794.925749999915,
      "d": 143.16252916666417,
      "v": 127
    },
    {
      "midi": 55,
      "hit": false,
      "t": 57051.33624999991,
      "d": 138.88902083333232,
      "v": 127
    },
    {
      "midi": 58,
      "hit": false,
      "t": 57307.74674999991,
      "d": 153.84629999999743,
      "v": 127
    },
    {
      "midi": 58,
      "hit": false,
      "t": 57564.15724999991,
      "d": 120.72661041667016,
      "v": 127
    },
    {
      "midi": 55,
      "hit": false,
      "t": 57820.567749999915,
      "d": 166.66682500000024,
      "v": 120
    },
    {
      "midi": 58,
      "hit": false,
      "t": 57948.772999999914,
      "d": 115.38472500000353,
      "v": 127
    },
    {
      "midi": 58,
      "hit": false,
      "t": 58205.18349999992,
      "d": 126.06849583333678,
      "v": 127
    },
    {
      "midi": 55,
      "hit": false,
      "t": 58461.593999999925,
      "d": 182.69248125000013,
      "v": 127
    },
    {
      "midi": 58,
      "hit": false,
      "t": 58589.79924999992,
      "d": 107.90608541666734,
      "v": 127
    },
    {
      "midi": 60,
      "hit": false,
      "t": 58846.20974999992,
      "d": 141.0257750000019,
      "v": 127
    },
    {
      "midi": 55,
      "hit": false,
      "t": 59102.62024999993,
      "d": 135.68388958333526,
      "v": 127
    },
    {
      "midi": 58,
      "hit": false,
      "t": 59359.03074999993,
      "d": 115.38472500000353,
      "v": 127
    },
    {
      "midi": 58,
      "hit": false,
      "t": 59615.44124999994,
      "d": 120.72661041667016,
      "v": 127
    },
    {
      "midi": 55,
      "hit": false,
      "t": 59871.85174999994,
      "d": 183.7608583333349,
      "v": 123
    },
    {
      "midi": 58,
      "hit": false,
      "t": 60000.05699999994,
      "d": 100.42744583333842,
      "v": 127
    },
    {
      "midi": 58,
      "hit": false,
      "t": 60256.46749999995,
      "d": 150.64116875000036,
      "v": 127
    },
    {
      "midi": 55,
      "hit": false,
      "t": 60512.877999999946,
      "d": 199.7865145833348,
      "v": 127
    },
    {
      "midi": 58,
      "hit": false,
      "t": 60641.083249999945,
      "d": 112.17959374999919,
      "v": 127
    },
    {
      "midi": 60,
      "hit": false,
      "t": 60897.49374999994,
      "d": 133.5471354166657,
      "v": 127
    },
    {
      "midi": 55,
      "hit": false,
      "t": 61153.90424999994,
      "d": 159.18818541666406,
      "v": 123
    },
    {
      "midi": 58,
      "hit": false,
      "t": 61410.31474999994,
      "d": 117.52147916666581,
      "v": 127
    },
    {
      "midi": 58,
      "hit": false,
      "t": 61666.72524999994,
      "d": 135.68388958333526,
      "v": 127
    },
    {
      "midi": 55,
      "hit": false,
      "t": 61923.13574999994,
      "d": 159.18818541666406,
      "v": 127
    },
    {
      "midi": 62,
      "hit": false,
      "t": 62051.34099999994,
      "d": 128.20524999999907,
      "v": 111
    },
    {
      "midi": 62,
      "hit": false,
      "t": 62307.75149999994,
      "d": 135.68388958333526,
      "v": 127
    },
    {
      "midi": 60,
      "hit": false,
      "t": 62564.161999999946,
      "d": 97.22231458333408,
      "v": 127
    },
    {
      "midi": 60,
      "hit": false,
      "t": 62692.367249999945,
      "d": 115.38472500000353,
      "v": 127
    },
    {
      "midi": 60,
      "hit": false,
      "t": 62948.77774999995,
      "d": 143.16252916666417,
      "v": 127
    },
    {
      "midi": 60,
      "hit": false,
      "t": 63205.18824999995,
      "d": 159.18818541666406,
      "v": 127
    },
    {
      "midi": 58,
      "hit": false,
      "t": 63461.59874999995,
      "d": 144.23090624999895,
      "v": 127
    },
    {
      "midi": 58,
      "hit": false,
      "t": 63718.009249999945,
      "d": 130.34200416666863,
      "v": 127
    },
    {
      "midi": 55,
      "hit": false,
      "t": 63974.41974999995,
      "d": 164.53007083333068,
      "v": 126
    },
    {
      "midi": 58,
      "hit": false,
      "t": 64102.62499999995,
      "d": 115.38472499999625,
      "v": 127
    },
    {
      "midi": 58,
      "hit": false,
      "t": 64359.03549999995,
      "d": 133.5471354166657,
      "v": 127
    },
    {
      "midi": 55,
      "hit": false,
      "t": 64615.445999999945,
      "d": 161.32493958333362,
      "v": 120
    },
    {
      "midi": 58,
      "hit": false,
      "t": 64743.651249999944,
      "d": 122.86336458333244,
      "v": 100
    },
    {
      "midi": 60,
      "hit": false,
      "t": 65000.06174999994,
      "d": 143.16252916666417,
      "v": 127
    },
    {
      "midi": 55,
      "hit": false,
      "t": 65256.47224999994,
      "d": 138.88902083333232,
      "v": 127
    },
    {
      "midi": 58,
      "hit": false,
      "t": 65512.88274999994,
      "d": 153.84629999999743,
      "v": 127
    },
    {
      "midi": 58,
      "hit": false,
      "t": 84230.84924999994,
      "d": 120.72661041666288,
      "v": 127
    },
    {
      "midi": 55,
      "hit": false,
      "t": 84487.25974999994,
      "d": 166.66682499999297,
      "v": 120
    },
    {
      "midi": 58,
      "hit": false,
      "t": 84615.46499999994,
      "d": 115.38472499999625,
      "v": 127
    },
    {
      "midi": 58,
      "hit": false,
      "t": 84871.87549999994,
      "d": 126.06849583332951,
      "v": 127
    },
    {
      "midi": 55,
      "hit": false,
      "t": 85128.28599999993,
      "d": 182.69248124999285,
      "v": 127
    },
    {
      "midi": 58,
      "hit": false,
      "t": 85256.49124999993,
      "d": 107.90608541666006,
      "v": 127
    },
    {
      "midi": 60,
      "hit": false,
      "t": 85512.90174999993,
      "d": 141.0257750000019,
      "v": 127
    },
    {
      "midi": 55,
      "hit": false,
      "t": 85769.31224999993,
      "d": 135.68388958333526,
      "v": 127
    },
    {
      "midi": 58,
      "hit": false,
      "t": 86025.72274999993,
      "d": 115.38472499999625,
      "v": 127
    },
    {
      "midi": 58,
      "hit": false,
      "t": 86282.13324999993,
      "d": 120.72661041666288,
      "v": 127
    },
    {
      "midi": 55,
      "hit": false,
      "t": 86538.54374999992,
      "d": 183.7608583333349,
      "v": 123
    },
    {
      "midi": 58,
      "hit": false,
      "t": 86666.74899999992,
      "d": 100.42744583333842,
      "v": 127
    },
    {
      "midi": 58,
      "hit": false,
      "t": 86923.15949999992,
      "d": 150.64116874999308,
      "v": 127
    },
    {
      "midi": 55,
      "hit": false,
      "t": 87179.56999999992,
      "d": 199.7865145833348,
      "v": 127
    },
    {
      "midi": 58,
      "hit": false,
      "t": 87307.77524999992,
      "d": 112.17959374999919,
      "v": 127
    },
    {
      "midi": 60,
      "hit": false,
      "t": 87564.18574999992,
      "d": 133.5471354166657,
      "v": 127
    },
    {
      "midi": 55,
      "hit": false,
      "t": 87820.59624999992,
      "d": 159.18818541667133,
      "v": 123
    },
    {
      "midi": 58,
      "hit": false,
      "t": 88077.00674999991,
      "d": 117.52147916666581,
      "v": 127
    },
    {
      "midi": 58,
      "hit": false,
      "t": 88333.41724999991,
      "d": 135.68388958333526,
      "v": 127
    },
    {
      "midi": 55,
      "hit": false,
      "t": 88589.82774999991,
      "d": 159.18818541667133,
      "v": 127
    },
    {
      "midi": 62,
      "hit": false,
      "t": 88718.03299999991,
      "d": 128.20524999999907,
      "v": 111
    },
    {
      "midi": 62,
      "hit": false,
      "t": 88974.4434999999,
      "d": 135.68388958333526,
      "v": 127
    },
    {
      "midi": 60,
      "hit": false,
      "t": 89230.8539999999,
      "d": 97.2223145833268,
      "v": 127
    },
    {
      "midi": 60,
      "hit": false,
      "t": 89359.0592499999,
      "d": 115.38472499999625,
      "v": 127
    },
    {
      "midi": 60,
      "hit": false,
      "t": 89615.4697499999,
      "d": 143.16252916667145,
      "v": 127
    },
    {
      "midi": 60,
      "hit": false,
      "t": 89871.8802499999,
      "d": 159.18818541667133,
      "v": 127
    },
    {
      "midi": 58,
      "hit": false,
      "t": 90128.2907499999,
      "d": 144.23090624999895,
      "v": 127
    },
    {
      "midi": 58,
      "hit": false,
      "t": 90384.7012499999,
      "d": 130.34200416666863,
      "v": 127
    },
    {
      "midi": 55,
      "hit": false,
      "t": 90641.1117499999,
      "d": 164.53007083333796,
      "v": 126
    },
    {
      "midi": 58,
      "hit": false,
      "t": 90769.3169999999,
      "d": 115.3847250000108,
      "v": 127
    },
    {
      "midi": 58,
      "hit": false,
      "t": 91025.7274999999,
      "d": 133.5471354166657,
      "v": 127
    },
    {
      "midi": 55,
      "hit": false,
      "t": 91282.1379999999,
      "d": 161.32493958332634,
      "v": 120
    },
    {
      "midi": 58,
      "hit": false,
      "t": 91410.3432499999,
      "d": 122.86336458333244,
      "v": 100
    },
    {
      "midi": 60,
      "hit": false,
      "t": 91666.7537499999,
      "d": 143.16252916667145,
      "v": 127
    },
    {
      "midi": 55,
      "hit": false,
      "t": 91923.1642499999,
      "d": 138.88902083333232,
      "v": 127
    },
    {
      "midi": 58,
      "hit": false,
      "t": 92179.5747499999,
      "d": 153.8463000000047,
      "v": 127
    },
    {
      "midi": 58,
      "hit": false,
      "t": 92435.9852499999,
      "d": 120.72661041666288,
      "v": 127
    },
    {
      "midi": 55,
      "hit": false,
      "t": 92692.3957499999,
      "d": 166.66682499999297,
      "v": 120
    },
    {
      "midi": 58,
      "hit": false,
      "t": 92820.6009999999,
      "d": 115.38472499999625,
      "v": 127
    },
    {
      "midi": 58,
      "hit": false,
      "t": 93077.01149999989,
      "d": 126.06849583332951,
      "v": 127
    },
    {
      "midi": 55,
      "hit": false,
      "t": 93333.42199999989,
      "d": 182.69248124999285,
      "v": 127
    },
    {
      "midi": 58,
      "hit": false,
      "t": 93461.62724999989,
      "d": 107.90608541666006,
      "v": 127
    },
    {
      "midi": 60,
      "hit": false,
      "t": 93718.03774999989,
      "d": 141.0257750000019,
      "v": 127
    },
    {
      "midi": 55,
      "hit": false,
      "t": 93974.44824999988,
      "d": 135.68388958333526,
      "v": 127
    },
    {
      "midi": 58,
      "hit": false,
      "t": 94230.85874999988,
      "d": 115.38472499999625,
      "v": 127
    },
    {
      "midi": 58,
      "hit": false,
      "t": 94487.26924999988,
      "d": 120.72661041666288,
      "v": 127
    },
    {
      "midi": 55,
      "hit": false,
      "t": 94743.67974999988,
      "d": 183.7608583333349,
      "v": 123
    },
    {
      "midi": 58,
      "hit": false,
      "t": 94871.88499999988,
      "d": 100.42744583333842,
      "v": 127
    },
    {
      "midi": 58,
      "hit": false,
      "t": 95128.29549999988,
      "d": 150.64116874999308,
      "v": 127
    },
    {
      "midi": 55,
      "hit": false,
      "t": 95384.70599999987,
      "d": 199.7865145833348,
      "v": 127
    },
    {
      "midi": 58,
      "hit": false,
      "t": 95512.91124999987,
      "d": 112.17959374999919,
      "v": 127
    },
    {
      "midi": 60,
      "hit": false,
      "t": 95769.32174999987,
      "d": 133.5471354166657,
      "v": 127
    },
    {
      "midi": 55,
      "hit": false,
      "t": 96025.73224999987,
      "d": 159.18818541667133,
      "v": 123
    },
    {
      "midi": 58,
      "hit": false,
      "t": 96282.14274999987,
      "d": 117.52147916666581,
      "v": 127
    },
    {
      "midi": 58,
      "hit": false,
      "t": 96538.55324999987,
      "d": 135.68388958333526,
      "v": 127
    },
    {
      "midi": 55,
      "hit": false,
      "t": 96794.96374999986,
      "d": 159.18818541667133,
      "v": 127
    },
    {
      "midi": 62,
      "hit": false,
      "t": 96923.16899999986,
      "d": 128.20524999999907,
      "v": 111
    },
    {
      "midi": 62,
      "hit": false,
      "t": 97179.57949999986,
      "d": 135.68388958333526,
      "v": 127
    },
    {
      "midi": 60,
      "hit": false,
      "t": 97435.98999999986,
      "d": 97.2223145833268,
      "v": 127
    },
    {
      "midi": 60,
      "hit": false,
      "t": 97564.19524999986,
      "d": 115.38472499999625,
      "v": 127
    },
    {
      "midi": 60,
      "hit": false,
      "t": 97820.60574999986,
      "d": 143.16252916667145,
      "v": 127
    },
    {
      "midi": 60,
      "hit": false,
      "t": 98077.01624999986,
      "d": 159.18818541667133,
      "v": 127
    },
    {
      "midi": 58,
      "hit": false,
      "t": 98333.42674999985,
      "d": 144.23090624999895,
      "v": 127
    },
    {
      "midi": 58,
      "hit": false,
      "t": 98589.83724999985,
      "d": 130.34200416666863,
      "v": 127
    },
    {
      "midi": 55,
      "hit": false,
      "t": 98846.24774999985,
      "d": 164.53007083333796,
      "v": 126
    },
    {
      "midi": 58,
      "hit": false,
      "t": 98974.45299999985,
      "d": 115.3847250000108,
      "v": 127
    },
    {
      "midi": 58,
      "hit": false,
      "t": 99230.86349999986,
      "d": 133.5471354166657,
      "v": 127
    },
    {
      "midi": 55,
      "hit": false,
      "t": 99487.27399999986,
      "d": 161.32493958332634,
      "v": 120
    },
    {
      "midi": 58,
      "hit": false,
      "t": 99615.47924999986,
      "d": 122.86336458333244,
      "v": 100
    },
    {
      "midi": 60,
      "hit": false,
      "t": 99871.88974999986,
      "d": 143.16252916667145,
      "v": 127
    },
    {
      "midi": 55,
      "hit": false,
      "t": 100128.30024999985,
      "d": 138.88902083333232,
      "v": 127
    },
    {
      "midi": 58,
      "hit": false,
      "t": 100384.71074999985,
      "d": 153.8463000000047,
      "v": 127
    },
    {
      "midi": 58,
      "hit": false,
      "t": 100641.12124999985,
      "d": 120.72661041666288,
      "v": 127
    },
    {
      "midi": 55,
      "hit": false,
      "t": 100897.53174999985,
      "d": 166.66682499999297,
      "v": 120
    },
    {
      "midi": 58,
      "hit": false,
      "t": 101025.73699999985,
      "d": 115.38472499999625,
      "v": 127
    },
    {
      "midi": 58,
      "hit": false,
      "t": 101282.14749999985,
      "d": 126.06849583332951,
      "v": 127
    },
    {
      "midi": 55,
      "hit": false,
      "t": 101538.55799999984,
      "d": 182.69248124999285,
      "v": 127
    },
    {
      "midi": 58,
      "hit": false,
      "t": 101666.76324999984,
      "d": 107.90608541666006,
      "v": 127
    },
    {
      "midi": 60,
      "hit": false,
      "t": 101923.17374999984,
      "d": 141.0257750000019,
      "v": 127
    },
    {
      "midi": 55,
      "hit": false,
      "t": 102179.58424999984,
      "d": 135.68388958333526,
      "v": 127
    },
    {
      "midi": 58,
      "hit": false,
      "t": 102435.99474999984,
      "d": 115.38472499999625,
      "v": 127
    },
    {
      "midi": 58,
      "hit": false,
      "t": 102692.40524999984,
      "d": 120.72661041666288,
      "v": 127
    },
    {
      "midi": 55,
      "hit": false,
      "t": 102948.81574999983,
      "d": 183.7608583333349,
      "v": 123
    },
    {
      "midi": 58,
      "hit": false,
      "t": 103077.02099999983,
      "d": 100.42744583333842,
      "v": 127
    },
    {
      "midi": 58,
      "hit": false,
      "t": 103333.43149999983,
      "d": 150.64116874999308,
      "v": 127
    },
    {
      "midi": 55,
      "hit": false,
      "t": 103589.84199999983,
      "d": 199.7865145833348,
      "v": 127
    },
    {
      "midi": 58,
      "hit": false,
      "t": 103718.04724999983,
      "d": 112.17959374999919,
      "v": 127
    },
    {
      "midi": 60,
      "hit": false,
      "t": 103974.45774999983,
      "d": 133.5471354166657,
      "v": 127
    },
    {
      "midi": 55,
      "hit": false,
      "t": 104230.86824999982,
      "d": 159.18818541667133,
      "v": 123
    },
    {
      "midi": 58,
      "hit": false,
      "t": 104487.27874999982,
      "d": 117.52147916666581,
      "v": 127
    },
    {
      "midi": 58,
      "hit": false,
      "t": 104743.68924999982,
      "d": 135.68388958333526,
      "v": 127
    },
    {
      "midi": 55,
      "hit": false,
      "t": 105000.09974999982,
      "d": 159.18818541667133,
      "v": 127
    },
    {
      "midi": 62,
      "hit": false,
      "t": 105128.30499999982,
      "d": 128.20524999999907,
      "v": 111
    },
    {
      "midi": 62,
      "hit": false,
      "t": 105384.71549999982,
      "d": 135.68388958333526,
      "v": 127
    },
    {
      "midi": 60,
      "hit": false,
      "t": 105641.12599999981,
      "d": 97.2223145833268,
      "v": 127
    },
    {
      "midi": 60,
      "hit": false,
      "t": 105769.33124999981,
      "d": 115.38472499999625,
      "v": 127
    },
    {
      "midi": 60,
      "hit": false,
      "t": 106025.74174999981,
      "d": 143.16252916667145,
      "v": 127
    },
    {
      "midi": 60,
      "hit": false,
      "t": 106282.15224999981,
      "d": 159.18818541667133,
      "v": 127
    },
    {
      "midi": 58,
      "hit": false,
      "t": 106538.56274999981,
      "d": 144.23090624999895,
      "v": 127
    },
    {
      "midi": 58,
      "hit": false,
      "t": 106794.9732499998,
      "d": 130.34200416666863,
      "v": 127
    },
    {
      "midi": 55,
      "hit": false,
      "t": 107051.3837499998,
      "d": 164.53007083333796,
      "v": 126
    },
    {
      "midi": 58,
      "hit": false,
      "t": 107179.5889999998,
      "d": 115.3847250000108,
      "v": 127
    },
    {
      "midi": 58,
      "hit": false,
      "t": 107435.99949999982,
      "d": 133.5471354166657,
      "v": 127
    },
    {
      "midi": 55,
      "hit": false,
      "t": 107692.40999999981,
      "d": 161.32493958332634,
      "v": 120
    },
    {
      "midi": 58,
      "hit": false,
      "t": 107820.61524999981,
      "d": 122.86336458333244,
      "v": 100
    },
    {
      "midi": 60,
      "hit": false,
      "t": 108077.02574999981,
      "d": 143.16252916667145,
      "v": 127
    },
    {
      "midi": 55,
      "hit": false,
      "t": 108333.43624999981,
      "d": 138.88902083333232,
      "v": 127
    },
    {
      "midi": 58,
      "hit": false,
      "t": 108589.84674999981,
      "d": 153.8463000000047,
      "v": 127
    },
    {
      "midi": 58,
      "hit": false,
      "t": 108846.2572499998,
      "d": 120.72661041666288,
      "v": 127
    },
    {
      "midi": 55,
      "hit": false,
      "t": 109102.6677499998,
      "d": 166.66682499999297,
      "v": 120
    },
    {
      "midi": 58,
      "hit": false,
      "t": 109230.8729999998,
      "d": 115.38472499999625,
      "v": 127
    },
    {
      "midi": 58,
      "hit": false,
      "t": 109487.2834999998,
      "d": 126.06849583332951,
      "v": 127
    },
    {
      "midi": 55,
      "hit": false,
      "t": 109743.6939999998,
      "d": 182.69248124999285,
      "v": 127
    },
    {
      "midi": 58,
      "hit": false,
      "t": 109871.8992499998,
      "d": 107.90608541666006,
      "v": 127
    },
    {
      "midi": 60,
      "hit": false,
      "t": 110128.3097499998,
      "d": 141.0257750000019,
      "v": 127
    },
    {
      "midi": 55,
      "hit": false,
      "t": 110384.7202499998,
      "d": 135.68388958333526,
      "v": 127
    },
    {
      "midi": 58,
      "hit": false,
      "t": 110641.1307499998,
      "d": 115.38472499999625,
      "v": 127
    },
    {
      "midi": 58,
      "hit": false,
      "t": 110897.54124999979,
      "d": 120.72661041666288,
      "v": 127
    },
    {
      "midi": 55,
      "hit": false,
      "t": 111153.95174999979,
      "d": 183.7608583333349,
      "v": 123
    },
    {
      "midi": 58,
      "hit": false,
      "t": 111282.15699999979,
      "d": 100.42744583333842,
      "v": 127
    },
    {
      "midi": 58,
      "hit": false,
      "t": 111538.56749999979,
      "d": 150.64116874999308,
      "v": 127
    },
    {
      "midi": 55,
      "hit": false,
      "t": 111794.97799999978,
      "d": 199.7865145833348,
      "v": 127
    },
    {
      "midi": 58,
      "hit": false,
      "t": 111923.18324999978,
      "d": 112.17959374999919,
      "v": 127
    },
    {
      "midi": 60,
      "hit": false,
      "t": 112179.59374999978,
      "d": 133.5471354166657,
      "v": 127
    },
    {
      "midi": 55,
      "hit": false,
      "t": 112436.00424999978,
      "d": 159.18818541667133,
      "v": 123
    },
    {
      "midi": 58,
      "hit": false,
      "t": 112692.41474999978,
      "d": 117.52147916666581,
      "v": 127
    },
    {
      "midi": 58,
      "hit": false,
      "t": 112948.82524999978,
      "d": 135.68388958333526,
      "v": 127
    },
    {
      "midi": 55,
      "hit": false,
      "t": 113205.23574999977,
      "d": 159.18818541667133,
      "v": 127
    },
    {
      "midi": 62,
      "hit": false,
      "t": 113333.44099999977,
      "d": 128.20524999999907,
      "v": 111
    },
    {
      "midi": 62,
      "hit": false,
      "t": 113589.85149999977,
      "d": 135.68388958333526,
      "v": 127
    },
    {
      "midi": 60,
      "hit": false,
      "t": 113846.26199999977,
      "d": 97.2223145833268,
      "v": 127
    },
    {
      "midi": 60,
      "hit": false,
      "t": 113974.46724999977,
      "d": 115.38472499999625,
      "v": 127
    },
    {
      "midi": 60,
      "hit": false,
      "t": 114230.87774999977,
      "d": 143.16252916667145,
      "v": 127
    },
    {
      "midi": 60,
      "hit": false,
      "t": 114487.28824999976,
      "d": 159.18818541667133,
      "v": 127
    },
    {
      "midi": 58,
      "hit": false,
      "t": 114743.69874999976,
      "d": 144.23090624999895,
      "v": 127
    },
    {
      "midi": 58,
      "hit": false,
      "t": 115000.10924999976,
      "d": 130.34200416666863,
      "v": 127
    },
    {
      "midi": 55,
      "hit": false,
      "t": 115256.51974999976,
      "d": 164.53007083333796,
      "v": 126
    },
    {
      "midi": 58,
      "hit": false,
      "t": 115384.72499999976,
      "d": 115.3847250000108,
      "v": 127
    },
    {
      "midi": 58,
      "hit": false,
      "t": 115641.13549999977,
      "d": 133.5471354166657,
      "v": 127
    },
    {
      "midi": 55,
      "hit": false,
      "t": 115897.54599999977,
      "d": 161.32493958332634,
      "v": 120
    },
    {
      "midi": 58,
      "hit": false,
      "t": 116025.75124999977,
      "d": 122.86336458333244,
      "v": 100
    },
    {
      "midi": 60,
      "hit": false,
      "t": 116282.16174999977,
      "d": 143.16252916667145,
      "v": 127
    },
    {
      "midi": 55,
      "hit": false,
      "t": 116538.57224999976,
      "d": 138.88902083333232,
      "v": 127
    },
    {
      "midi": 58,
      "hit": false,
      "t": 116794.98274999976,
      "d": 64.10262499999953,
      "v": 127
    },
    {
      "midi": 77,
      "hit": false,
      "t": 116923.18799999976,
      "d": 32.05131249999977,
      "v": 106
    },
    {
      "midi": 80,
      "hit": false,
      "t": 116923.18799999976,
      "d": 32.05131249999977,
      "v": 78
    },
    {
      "midi": 82,
      "hit": false,
      "t": 116923.18799999976,
      "d": 32.05131249999977,
      "v": 127
    },
    {
      "midi": 86,
      "hit": false,
      "t": 116923.18799999976,
      "d": 32.05131249999977,
      "v": 80
    },
    {
      "midi": 89,
      "hit": false,
      "t": 116923.18799999976,
      "d": 32.05131249999977,
      "v": 93
    },
    {
      "midi": 77,
      "hit": false,
      "t": 117019.34193749976,
      "d": 32.05131249999977,
      "v": 56
    },
    {
      "midi": 80,
      "hit": false,
      "t": 117019.34193749976,
      "d": 32.05131249999977,
      "v": 41
    },
    {
      "midi": 82,
      "hit": false,
      "t": 117019.34193749976,
      "d": 32.05131249999977,
      "v": 67
    },
    {
      "midi": 86,
      "hit": false,
      "t": 117019.34193749976,
      "d": 32.05131249999977,
      "v": 42
    },
    {
      "midi": 89,
      "hit": false,
      "t": 117019.34193749976,
      "d": 32.05131249999977,
      "v": 50
    },
    {
      "midi": 77,
      "hit": false,
      "t": 117051.39324999976,
      "d": 32.05131249999977,
      "v": 98
    },
    {
      "midi": 82,
      "hit": false,
      "t": 117051.39324999976,
      "d": 32.05131249999977,
      "v": 127
    },
    {
      "midi": 86,
      "hit": false,
      "t": 117051.39324999976,
      "d": 32.05131249999977,
      "v": 89
    },
    {
      "midi": 89,
      "hit": false,
      "t": 117051.39324999976,
      "d": 32.05131249999977,
      "v": 93
    },
    {
      "midi": 77,
      "hit": false,
      "t": 117094.1283333331,
      "d": 32.05131249999977,
      "v": 29
    },
    {
      "midi": 80,
      "hit": false,
      "t": 117094.1283333331,
      "d": 32.05131249999977,
      "v": 21
    },
    {
      "midi": 82,
      "hit": false,
      "t": 117094.1283333331,
      "d": 32.05131249999977,
      "v": 34
    },
    {
      "midi": 86,
      "hit": false,
      "t": 117094.1283333331,
      "d": 32.05131249999977,
      "v": 21
    },
    {
      "midi": 89,
      "hit": false,
      "t": 117094.1283333331,
      "d": 32.05131249999977,
      "v": 25
    },
    {
      "midi": 77,
      "hit": false,
      "t": 117147.54718749976,
      "d": 32.05131249999977,
      "v": 52
    },
    {
      "midi": 82,
      "hit": false,
      "t": 117147.54718749976,
      "d": 32.05131249999977,
      "v": 67
    },
    {
      "midi": 86,
      "hit": false,
      "t": 117147.54718749976,
      "d": 32.05131249999977,
      "v": 48
    },
    {
      "midi": 89,
      "hit": false,
      "t": 117147.54718749976,
      "d": 32.05131249999977,
      "v": 50
    },
    {
      "midi": 77,
      "hit": false,
      "t": 117222.3335833331,
      "d": 32.05131249999977,
      "v": 27
    },
    {
      "midi": 82,
      "hit": false,
      "t": 117222.3335833331,
      "d": 32.05131249999977,
      "v": 34
    },
    {
      "midi": 86,
      "hit": false,
      "t": 117222.3335833331,
      "d": 32.05131249999977,
      "v": 25
    },
    {
      "midi": 89,
      "hit": false,
      "t": 117222.3335833331,
      "d": 32.05131249999977,
      "v": 25
    },
    {
      "midi": 77,
      "hit": false,
      "t": 117307.80374999976,
      "d": 32.05131249999977,
      "v": 117
    },
    {
      "midi": 82,
      "hit": false,
      "t": 117307.80374999976,
      "d": 32.05131249999977,
      "v": 127
    },
    {
      "midi": 86,
      "hit": false,
      "t": 117307.80374999976,
      "d": 32.05131249999977,
      "v": 86
    },
    {
      "midi": 89,
      "hit": false,
      "t": 117307.80374999976,
      "d": 32.05131249999977,
      "v": 93
    },
    {
      "midi": 77,
      "hit": false,
      "t": 117403.95768749976,
      "d": 32.05131249999977,
      "v": 62
    },
    {
      "midi": 82,
      "hit": false,
      "t": 117403.95768749976,
      "d": 32.05131249999977,
      "v": 67
    },
    {
      "midi": 86,
      "hit": false,
      "t": 117403.95768749976,
      "d": 32.05131249999977,
      "v": 46
    },
    {
      "midi": 89,
      "hit": false,
      "t": 117403.95768749976,
      "d": 32.05131249999977,
      "v": 50
    },
    {
      "midi": 77,
      "hit": false,
      "t": 117478.74408333309,
      "d": 32.05131249999977,
      "v": 32
    },
    {
      "midi": 82,
      "hit": false,
      "t": 117478.74408333309,
      "d": 32.05131249999977,
      "v": 34
    },
    {
      "midi": 86,
      "hit": false,
      "t": 117478.74408333309,
      "d": 32.05131249999977,
      "v": 23
    },
    {
      "midi": 89,
      "hit": false,
      "t": 117478.74408333309,
      "d": 32.05131249999977,
      "v": 25
    },
    {
      "midi": 77,
      "hit": false,
      "t": 117564.21424999976,
      "d": 32.05131249999977,
      "v": 106
    },
    {
      "midi": 82,
      "hit": false,
      "t": 117564.21424999976,
      "d": 32.05131249999977,
      "v": 127
    },
    {
      "midi": 86,
      "hit": false,
      "t": 117564.21424999976,
      "d": 32.05131249999977,
      "v": 80
    },
    {
      "midi": 89,
      "hit": false,
      "t": 117564.21424999976,
      "d": 32.05131249999977,
      "v": 93
    },
    {
      "midi": 77,
      "hit": false,
      "t": 117660.36818749976,
      "d": 32.05131249999977,
      "v": 56
    },
    {
      "midi": 82,
      "hit": false,
      "t": 117660.36818749976,
      "d": 32.05131249999977,
      "v": 67
    },
    {
      "midi": 86,
      "hit": false,
      "t": 117660.36818749976,
      "d": 32.05131249999977,
      "v": 42
    },
    {
      "midi": 89,
      "hit": false,
      "t": 117660.36818749976,
      "d": 32.05131249999977,
      "v": 50
    },
    {
      "midi": 77,
      "hit": false,
      "t": 117692.41949999976,
      "d": 32.05131249999977,
      "v": 89
    },
    {
      "midi": 82,
      "hit": false,
      "t": 117692.41949999976,
      "d": 32.05131249999977,
      "v": 127
    },
    {
      "midi": 86,
      "hit": false,
      "t": 117692.41949999976,
      "d": 32.05131249999977,
      "v": 83
    },
    {
      "midi": 89,
      "hit": false,
      "t": 117692.41949999976,
      "d": 32.05131249999977,
      "v": 93
    },
    {
      "midi": 77,
      "hit": false,
      "t": 117735.15458333309,
      "d": 32.05131249999977,
      "v": 29
    },
    {
      "midi": 82,
      "hit": false,
      "t": 117735.15458333309,
      "d": 32.05131249999977,
      "v": 34
    },
    {
      "midi": 86,
      "hit": false,
      "t": 117735.15458333309,
      "d": 32.05131249999977,
      "v": 21
    },
    {
      "midi": 89,
      "hit": false,
      "t": 117735.15458333309,
      "d": 32.05131249999977,
      "v": 25
    },
    {
      "midi": 77,
      "hit": false,
      "t": 117788.57343749976,
      "d": 32.05131249999977,
      "v": 48
    },
    {
      "midi": 82,
      "hit": false,
      "t": 117788.57343749976,
      "d": 32.05131249999977,
      "v": 67
    },
    {
      "midi": 86,
      "hit": false,
      "t": 117788.57343749976,
      "d": 32.05131249999977,
      "v": 44
    },
    {
      "midi": 89,
      "hit": false,
      "t": 117788.57343749976,
      "d": 32.05131249999977,
      "v": 50
    },
    {
      "midi": 77,
      "hit": false,
      "t": 117820.62474999976,
      "d": 32.05131249999977,
      "v": 103
    },
    {
      "midi": 82,
      "hit": false,
      "t": 117820.62474999976,
      "d": 32.05131249999977,
      "v": 127
    },
    {
      "midi": 86,
      "hit": false,
      "t": 117820.62474999976,
      "d": 32.05131249999977,
      "v": 98
    },
    {
      "midi": 89,
      "hit": false,
      "t": 117820.62474999976,
      "d": 32.05131249999977,
      "v": 93
    },
    {
      "midi": 77,
      "hit": false,
      "t": 117863.35983333309,
      "d": 32.05131249999977,
      "v": 25
    },
    {
      "midi": 82,
      "hit": false,
      "t": 117863.35983333309,
      "d": 32.05131249999977,
      "v": 34
    },
    {
      "midi": 86,
      "hit": false,
      "t": 117863.35983333309,
      "d": 32.05131249999977,
      "v": 22
    },
    {
      "midi": 89,
      "hit": false,
      "t": 117863.35983333309,
      "d": 32.05131249999977,
      "v": 25
    },
    {
      "midi": 77,
      "hit": false,
      "t": 117916.77868749975,
      "d": 32.05131249999977,
      "v": 55
    },
    {
      "midi": 82,
      "hit": false,
      "t": 117916.77868749975,
      "d": 32.05131249999977,
      "v": 67
    },
    {
      "midi": 86,
      "hit": false,
      "t": 117916.77868749975,
      "d": 32.05131249999977,
      "v": 52
    },
    {
      "midi": 89,
      "hit": false,
      "t": 117916.77868749975,
      "d": 32.05131249999977,
      "v": 50
    },
    {
      "midi": 77,
      "hit": false,
      "t": 117991.56508333309,
      "d": 32.05131249999977,
      "v": 27
    },
    {
      "midi": 82,
      "hit": false,
      "t": 117991.56508333309,
      "d": 32.05131249999977,
      "v": 34
    },
    {
      "midi": 86,
      "hit": false,
      "t": 117991.56508333309,
      "d": 32.05131249999977,
      "v": 27
    },
    {
      "midi": 89,
      "hit": false,
      "t": 117991.56508333309,
      "d": 32.05131249999977,
      "v": 25
    },
    {
      "midi": 77,
      "hit": false,
      "t": 118077.03524999975,
      "d": 32.05131249999977,
      "v": 111
    },
    {
      "midi": 82,
      "hit": false,
      "t": 118077.03524999975,
      "d": 32.05131249999977,
      "v": 127
    },
    {
      "midi": 86,
      "hit": false,
      "t": 118077.03524999975,
      "d": 32.05131249999977,
      "v": 93
    },
    {
      "midi": 89,
      "hit": false,
      "t": 118077.03524999975,
      "d": 32.05131249999977,
      "v": 93
    },
    {
      "midi": 77,
      "hit": false,
      "t": 118173.18918749975,
      "d": 32.05131249999977,
      "v": 59
    },
    {
      "midi": 82,
      "hit": false,
      "t": 118173.18918749975,
      "d": 32.05131249999977,
      "v": 67
    },
    {
      "midi": 86,
      "hit": false,
      "t": 118173.18918749975,
      "d": 32.05131249999977,
      "v": 50
    },
    {
      "midi": 89,
      "hit": false,
      "t": 118173.18918749975,
      "d": 32.05131249999977,
      "v": 50
    },
    {
      "midi": 77,
      "hit": false,
      "t": 118247.97558333309,
      "d": 32.05131249999977,
      "v": 29
    },
    {
      "midi": 82,
      "hit": false,
      "t": 118247.97558333309,
      "d": 32.05131249999977,
      "v": 34
    },
    {
      "midi": 86,
      "hit": false,
      "t": 118247.97558333309,
      "d": 32.05131249999977,
      "v": 25
    },
    {
      "midi": 89,
      "hit": false,
      "t": 118247.97558333309,
      "d": 32.05131249999977,
      "v": 25
    },
    {
      "midi": 77,
      "hit": false,
      "t": 118333.44574999975,
      "d": 32.05131249999977,
      "v": 117
    },
    {
      "midi": 82,
      "hit": false,
      "t": 118333.44574999975,
      "d": 32.05131249999977,
      "v": 127
    },
    {
      "midi": 86,
      "hit": false,
      "t": 118333.44574999975,
      "d": 32.05131249999977,
      "v": 91
    },
    {
      "midi": 89,
      "hit": false,
      "t": 118333.44574999975,
      "d": 32.05131249999977,
      "v": 93
    },
    {
      "midi": 77,
      "hit": false,
      "t": 118429.59968749975,
      "d": 32.05131249999977,
      "v": 62
    },
    {
      "midi": 82,
      "hit": false,
      "t": 118429.59968749975,
      "d": 32.05131249999977,
      "v": 67
    },
    {
      "midi": 86,
      "hit": false,
      "t": 118429.59968749975,
      "d": 32.05131249999977,
      "v": 48
    },
    {
      "midi": 89,
      "hit": false,
      "t": 118429.59968749975,
      "d": 32.05131249999977,
      "v": 50
    },
    {
      "midi": 77,
      "hit": false,
      "t": 118461.65099999975,
      "d": 32.05131249999977,
      "v": 89
    },
    {
      "midi": 82,
      "hit": false,
      "t": 118461.65099999975,
      "d": 32.05131249999977,
      "v": 127
    },
    {
      "midi": 86,
      "hit": false,
      "t": 118461.65099999975,
      "d": 32.05131249999977,
      "v": 91
    },
    {
      "midi": 89,
      "hit": false,
      "t": 118461.65099999975,
      "d": 32.05131249999977,
      "v": 93
    },
    {
      "midi": 77,
      "hit": false,
      "t": 118504.38608333308,
      "d": 32.05131249999977,
      "v": 32
    },
    {
      "midi": 82,
      "hit": false,
      "t": 118504.38608333308,
      "d": 32.05131249999977,
      "v": 34
    },
    {
      "midi": 86,
      "hit": false,
      "t": 118504.38608333308,
      "d": 32.05131249999977,
      "v": 25
    },
    {
      "midi": 89,
      "hit": false,
      "t": 118504.38608333308,
      "d": 32.05131249999977,
      "v": 25
    },
    {
      "midi": 77,
      "hit": false,
      "t": 118557.80493749975,
      "d": 32.05131249999977,
      "v": 48
    },
    {
      "midi": 82,
      "hit": false,
      "t": 118557.80493749975,
      "d": 32.05131249999977,
      "v": 67
    },
    {
      "midi": 86,
      "hit": false,
      "t": 118557.80493749975,
      "d": 32.05131249999977,
      "v": 48
    },
    {
      "midi": 89,
      "hit": false,
      "t": 118557.80493749975,
      "d": 32.05131249999977,
      "v": 50
    },
    {
      "midi": 77,
      "hit": false,
      "t": 118632.59133333308,
      "d": 32.05131249999977,
      "v": 25
    },
    {
      "midi": 82,
      "hit": false,
      "t": 118632.59133333308,
      "d": 32.05131249999977,
      "v": 34
    },
    {
      "midi": 86,
      "hit": false,
      "t": 118632.59133333308,
      "d": 32.05131249999977,
      "v": 25
    },
    {
      "midi": 89,
      "hit": false,
      "t": 118632.59133333308,
      "d": 32.05131249999977,
      "v": 25
    },
    {
      "midi": 77,
      "hit": false,
      "t": 118718.06149999975,
      "d": 32.05131249999977,
      "v": 120
    },
    {
      "midi": 82,
      "hit": false,
      "t": 118718.06149999975,
      "d": 32.05131249999977,
      "v": 127
    },
    {
      "midi": 86,
      "hit": false,
      "t": 118718.06149999975,
      "d": 32.05131249999977,
      "v": 98
    },
    {
      "midi": 89,
      "hit": false,
      "t": 118718.06149999975,
      "d": 32.05131249999977,
      "v": 93
    },
    {
      "midi": 77,
      "hit": false,
      "t": 118814.21543749975,
      "d": 32.05131249999977,
      "v": 63
    },
    {
      "midi": 82,
      "hit": false,
      "t": 118814.21543749975,
      "d": 32.05131249999977,
      "v": 67
    },
    {
      "midi": 86,
      "hit": false,
      "t": 118814.21543749975,
      "d": 32.05131249999977,
      "v": 52
    },
    {
      "midi": 89,
      "hit": false,
      "t": 118814.21543749975,
      "d": 32.05131249999977,
      "v": 50
    },
    {
      "midi": 77,
      "hit": false,
      "t": 118846.26674999975,
      "d": 32.05131249999977,
      "v": 77
    },
    {
      "midi": 82,
      "hit": false,
      "t": 118846.26674999975,
      "d": 32.05131249999977,
      "v": 107
    },
    {
      "midi": 86,
      "hit": false,
      "t": 118846.26674999975,
      "d": 32.05131249999977,
      "v": 89
    },
    {
      "midi": 89,
      "hit": false,
      "t": 118846.26674999975,
      "d": 32.05131249999977,
      "v": 93
    },
    {
      "midi": 77,
      "hit": false,
      "t": 118889.00183333308,
      "d": 32.05131249999977,
      "v": 32
    },
    {
      "midi": 82,
      "hit": false,
      "t": 118889.00183333308,
      "d": 32.05131249999977,
      "v": 34
    },
    {
      "midi": 86,
      "hit": false,
      "t": 118889.00183333308,
      "d": 32.05131249999977,
      "v": 27
    },
    {
      "midi": 89,
      "hit": false,
      "t": 118889.00183333308,
      "d": 32.05131249999977,
      "v": 25
    },
    {
      "midi": 77,
      "hit": false,
      "t": 118942.42068749975,
      "d": 32.05131249999977,
      "v": 41
    },
    {
      "midi": 82,
      "hit": false,
      "t": 118942.42068749975,
      "d": 32.05131249999977,
      "v": 57
    },
    {
      "midi": 86,
      "hit": false,
      "t": 118942.42068749975,
      "d": 32.05131249999977,
      "v": 48
    },
    {
      "midi": 89,
      "hit": false,
      "t": 118942.42068749975,
      "d": 32.05131249999977,
      "v": 50
    },
    {
      "midi": 77,
      "hit": false,
      "t": 118974.47199999975,
      "d": 32.05131249999977,
      "v": 96
    },
    {
      "midi": 82,
      "hit": false,
      "t": 118974.47199999975,
      "d": 32.05131249999977,
      "v": 125
    },
    {
      "midi": 84,
      "hit": false,
      "t": 118974.47199999975,
      "d": 32.05131249999977,
      "v": 103
    },
    {
      "midi": 89,
      "hit": false,
      "t": 118974.47199999975,
      "d": 32.05131249999977,
      "v": 93
    },
    {
      "midi": 77,
      "hit": false,
      "t": 119017.20708333308,
      "d": 32.05131249999977,
      "v": 21
    },
    {
      "midi": 82,
      "hit": false,
      "t": 119017.20708333308,
      "d": 32.05131249999977,
      "v": 29
    },
    {
      "midi": 86,
      "hit": false,
      "t": 119017.20708333308,
      "d": 32.05131249999977,
      "v": 25
    },
    {
      "midi": 89,
      "hit": false,
      "t": 119017.20708333308,
      "d": 32.05131249999977,
      "v": 25
    },
    {
      "midi": 77,
      "hit": false,
      "t": 119070.62593749975,
      "d": 32.05131249999977,
      "v": 50
    },
    {
      "midi": 82,
      "hit": false,
      "t": 119070.62593749975,
      "d": 32.05131249999977,
      "v": 67
    },
    {
      "midi": 84,
      "hit": false,
      "t": 119070.62593749975,
      "d": 32.05131249999977,
      "v": 55
    },
    {
      "midi": 89,
      "hit": false,
      "t": 119070.62593749975,
      "d": 32.05131249999977,
      "v": 50
    },
    {
      "midi": 77,
      "hit": false,
      "t": 119102.67724999975,
      "d": 32.05131249999977,
      "v": 91
    },
    {
      "midi": 82,
      "hit": false,
      "t": 119102.67724999975,
      "d": 32.05131249999977,
      "v": 125
    },
    {
      "midi": 84,
      "hit": false,
      "t": 119102.67724999975,
      "d": 32.05131249999977,
      "v": 100
    },
    {
      "midi": 89,
      "hit": false,
      "t": 119102.67724999975,
      "d": 32.05131249999977,
      "v": 93
    },
    {
      "midi": 77,
      "hit": false,
      "t": 119145.41233333308,
      "d": 32.05131249999977,
      "v": 25
    },
    {
      "midi": 82,
      "hit": false,
      "t": 119145.41233333308,
      "d": 32.05131249999977,
      "v": 34
    },
    {
      "midi": 84,
      "hit": false,
      "t": 119145.41233333308,
      "d": 32.05131249999977,
      "v": 27
    },
    {
      "midi": 89,
      "hit": false,
      "t": 119145.41233333308,
      "d": 32.05131249999977,
      "v": 25
    },
    {
      "midi": 77,
      "hit": false,
      "t": 119198.83118749975,
      "d": 32.05131249999977,
      "v": 48
    },
    {
      "midi": 82,
      "hit": false,
      "t": 119198.83118749975,
      "d": 32.05131249999977,
      "v": 67
    },
    {
      "midi": 84,
      "hit": false,
      "t": 119198.83118749975,
      "d": 32.05131249999977,
      "v": 53
    },
    {
      "midi": 89,
      "hit": false,
      "t": 119198.83118749975,
      "d": 32.05131249999977,
      "v": 50
    },
    {
      "midi": 77,
      "hit": false,
      "t": 119273.61758333308,
      "d": 32.05131249999977,
      "v": 25
    },
    {
      "midi": 82,
      "hit": false,
      "t": 119273.61758333308,
      "d": 32.05131249999977,
      "v": 34
    },
    {
      "midi": 84,
      "hit": false,
      "t": 119273.61758333308,
      "d": 32.05131249999977,
      "v": 27
    },
    {
      "midi": 89,
      "hit": false,
      "t": 119273.61758333308,
      "d": 32.05131249999977,
      "v": 25
    },
    {
      "midi": 77,
      "hit": false,
      "t": 119359.08774999974,
      "d": 32.05131249999977,
      "v": 106
    },
    {
      "midi": 82,
      "hit": false,
      "t": 119359.08774999974,
      "d": 32.05131249999977,
      "v": 127
    },
    {
      "midi": 84,
      "hit": false,
      "t": 119359.08774999974,
      "d": 32.05131249999977,
      "v": 117
    },
    {
      "midi": 89,
      "hit": false,
      "t": 119359.08774999974,
      "d": 32.05131249999977,
      "v": 93
    },
    {
      "midi": 77,
      "hit": false,
      "t": 119455.24168749974,
      "d": 32.05131249999977,
      "v": 56
    },
    {
      "midi": 82,
      "hit": false,
      "t": 119455.24168749974,
      "d": 32.05131249999977,
      "v": 67
    },
    {
      "midi": 84,
      "hit": false,
      "t": 119455.24168749974,
      "d": 32.05131249999977,
      "v": 62
    },
    {
      "midi": 89,
      "hit": false,
      "t": 119455.24168749974,
      "d": 32.05131249999977,
      "v": 50
    },
    {
      "midi": 77,
      "hit": false,
      "t": 119487.29299999974,
      "d": 32.05131249999977,
      "v": 91
    },
    {
      "midi": 82,
      "hit": false,
      "t": 119487.29299999974,
      "d": 32.05131249999977,
      "v": 127
    },
    {
      "midi": 84,
      "hit": false,
      "t": 119487.29299999974,
      "d": 32.05131249999977,
      "v": 111
    },
    {
      "midi": 89,
      "hit": false,
      "t": 119487.29299999974,
      "d": 32.05131249999977,
      "v": 93
    },
    {
      "midi": 77,
      "hit": false,
      "t": 119530.02808333308,
      "d": 32.05131249999977,
      "v": 29
    },
    {
      "midi": 82,
      "hit": false,
      "t": 119530.02808333308,
      "d": 32.05131249999977,
      "v": 34
    },
    {
      "midi": 84,
      "hit": false,
      "t": 119530.02808333308,
      "d": 32.05131249999977,
      "v": 32
    },
    {
      "midi": 89,
      "hit": false,
      "t": 119530.02808333308,
      "d": 32.05131249999977,
      "v": 25
    },
    {
      "midi": 77,
      "hit": false,
      "t": 119583.44693749974,
      "d": 32.05131249999977,
      "v": 48
    },
    {
      "midi": 82,
      "hit": false,
      "t": 119583.44693749974,
      "d": 32.05131249999977,
      "v": 67
    },
    {
      "midi": 84,
      "hit": false,
      "t": 119583.44693749974,
      "d": 32.05131249999977,
      "v": 59
    },
    {
      "midi": 89,
      "hit": false,
      "t": 119583.44693749974,
      "d": 32.05131249999977,
      "v": 50
    },
    {
      "midi": 77,
      "hit": false,
      "t": 119658.23333333308,
      "d": 32.05131249999977,
      "v": 25
    },
    {
      "midi": 82,
      "hit": false,
      "t": 119658.23333333308,
      "d": 32.05131249999977,
      "v": 34
    },
    {
      "midi": 84,
      "hit": false,
      "t": 119658.23333333308,
      "d": 32.05131249999977,
      "v": 29
    },
    {
      "midi": 89,
      "hit": false,
      "t": 119658.23333333308,
      "d": 32.05131249999977,
      "v": 25
    },
    {
      "midi": 77,
      "hit": false,
      "t": 119743.70349999974,
      "d": 32.05131249999977,
      "v": 113
    },
    {
      "midi": 82,
      "hit": false,
      "t": 119743.70349999974,
      "d": 32.05131249999977,
      "v": 127
    },
    {
      "midi": 84,
      "hit": false,
      "t": 119743.70349999974,
      "d": 32.05131249999977,
      "v": 123
    },
    {
      "midi": 89,
      "hit": false,
      "t": 119743.70349999974,
      "d": 32.05131249999977,
      "v": 93
    },
    {
      "midi": 77,
      "hit": false,
      "t": 119839.85743749974,
      "d": 32.05131249999977,
      "v": 60
    },
    {
      "midi": 82,
      "hit": false,
      "t": 119839.85743749974,
      "d": 32.05131249999977,
      "v": 67
    },
    {
      "midi": 84,
      "hit": false,
      "t": 119839.85743749974,
      "d": 32.05131249999977,
      "v": 65
    },
    {
      "midi": 89,
      "hit": false,
      "t": 119839.85743749974,
      "d": 32.05131249999977,
      "v": 50
    },
    {
      "midi": 77,
      "hit": false,
      "t": 119871.90874999974,
      "d": 32.05131249999977,
      "v": 89
    },
    {
      "midi": 82,
      "hit": false,
      "t": 119871.90874999974,
      "d": 32.05131249999977,
      "v": 127
    },
    {
      "midi": 84,
      "hit": false,
      "t": 119871.90874999974,
      "d": 32.05131249999977,
      "v": 117
    },
    {
      "midi": 89,
      "hit": false,
      "t": 119871.90874999974,
      "d": 32.05131249999977,
      "v": 93
    },
    {
      "midi": 77,
      "hit": false,
      "t": 119914.64383333307,
      "d": 32.05131249999977,
      "v": 31
    },
    {
      "midi": 82,
      "hit": false,
      "t": 119914.64383333307,
      "d": 32.05131249999977,
      "v": 34
    },
    {
      "midi": 84,
      "hit": false,
      "t": 119914.64383333307,
      "d": 32.05131249999977,
      "v": 33
    },
    {
      "midi": 89,
      "hit": false,
      "t": 119914.64383333307,
      "d": 32.05131249999977,
      "v": 25
    },
    {
      "midi": 77,
      "hit": false,
      "t": 119968.06268749974,
      "d": 32.05131249999977,
      "v": 48
    },
    {
      "midi": 82,
      "hit": false,
      "t": 119968.06268749974,
      "d": 32.05131249999977,
      "v": 67
    },
    {
      "midi": 84,
      "hit": false,
      "t": 119968.06268749974,
      "d": 32.05131249999977,
      "v": 62
    },
    {
      "midi": 89,
      "hit": false,
      "t": 119968.06268749974,
      "d": 32.05131249999977,
      "v": 50
    },
    {
      "midi": 77,
      "hit": false,
      "t": 120042.84908333307,
      "d": 32.05131249999977,
      "v": 25
    },
    {
      "midi": 82,
      "hit": false,
      "t": 120042.84908333307,
      "d": 32.05131249999977,
      "v": 34
    },
    {
      "midi": 84,
      "hit": false,
      "t": 120042.84908333307,
      "d": 32.05131249999977,
      "v": 32
    },
    {
      "midi": 89,
      "hit": false,
      "t": 120042.84908333307,
      "d": 32.05131249999977,
      "v": 25
    },
    {
      "midi": 77,
      "hit": false,
      "t": 120128.31924999974,
      "d": 32.05131249999977,
      "v": 108
    },
    {
      "midi": 82,
      "hit": false,
      "t": 120128.31924999974,
      "d": 32.05131249999977,
      "v": 127
    },
    {
      "midi": 84,
      "hit": false,
      "t": 120128.31924999974,
      "d": 32.05131249999977,
      "v": 113
    },
    {
      "midi": 89,
      "hit": false,
      "t": 120128.31924999974,
      "d": 32.05131249999977,
      "v": 93
    },
    {
      "midi": 77,
      "hit": false,
      "t": 120224.47318749974,
      "d": 32.05131249999977,
      "v": 57
    },
    {
      "midi": 82,
      "hit": false,
      "t": 120224.47318749974,
      "d": 32.05131249999977,
      "v": 67
    },
    {
      "midi": 84,
      "hit": false,
      "t": 120224.47318749974,
      "d": 32.05131249999977,
      "v": 60
    },
    {
      "midi": 89,
      "hit": false,
      "t": 120224.47318749974,
      "d": 32.05131249999977,
      "v": 50
    },
    {
      "midi": 77,
      "hit": false,
      "t": 120299.25958333307,
      "d": 32.05131249999977,
      "v": 29
    },
    {
      "midi": 82,
      "hit": false,
      "t": 120299.25958333307,
      "d": 32.05131249999977,
      "v": 34
    },
    {
      "midi": 84,
      "hit": false,
      "t": 120299.25958333307,
      "d": 32.05131249999977,
      "v": 31
    },
    {
      "midi": 89,
      "hit": false,
      "t": 120299.25958333307,
      "d": 32.05131249999977,
      "v": 25
    },
    {
      "midi": 77,
      "hit": false,
      "t": 120384.72974999974,
      "d": 32.05131249999977,
      "v": 93
    },
    {
      "midi": 82,
      "hit": false,
      "t": 120384.72974999974,
      "d": 32.05131249999977,
      "v": 111
    },
    {
      "midi": 84,
      "hit": false,
      "t": 120384.72974999974,
      "d": 32.05131249999977,
      "v": 83
    },
    {
      "midi": 89,
      "hit": false,
      "t": 120384.72974999974,
      "d": 32.05131249999977,
      "v": 93
    },
    {
      "midi": 77,
      "hit": false,
      "t": 120480.88368749974,
      "d": 32.05131249999977,
      "v": 50
    },
    {
      "midi": 82,
      "hit": false,
      "t": 120480.88368749974,
      "d": 32.05131249999977,
      "v": 59
    },
    {
      "midi": 84,
      "hit": false,
      "t": 120480.88368749974,
      "d": 32.05131249999977,
      "v": 44
    },
    {
      "midi": 89,
      "hit": false,
      "t": 120480.88368749974,
      "d": 32.05131249999977,
      "v": 50
    },
    {
      "midi": 77,
      "hit": false,
      "t": 120512.93499999974,
      "d": 32.05131249999977,
      "v": 98
    },
    {
      "midi": 82,
      "hit": false,
      "t": 120512.93499999974,
      "d": 32.05131249999977,
      "v": 127
    },
    {
      "midi": 84,
      "hit": false,
      "t": 120512.93499999974,
      "d": 32.05131249999977,
      "v": 103
    },
    {
      "midi": 89,
      "hit": false,
      "t": 120512.93499999974,
      "d": 32.05131249999977,
      "v": 93
    },
    {
      "midi": 77,
      "hit": false,
      "t": 120555.67008333307,
      "d": 32.05131249999977,
      "v": 25
    },
    {
      "midi": 82,
      "hit": false,
      "t": 120555.67008333307,
      "d": 32.05131249999977,
      "v": 29
    },
    {
      "midi": 84,
      "hit": false,
      "t": 120555.67008333307,
      "d": 32.05131249999977,
      "v": 22
    },
    {
      "midi": 89,
      "hit": false,
      "t": 120555.67008333307,
      "d": 32.05131249999977,
      "v": 25
    },
    {
      "midi": 77,
      "hit": false,
      "t": 120609.08893749974,
      "d": 32.05131249999977,
      "v": 52
    },
    {
      "midi": 82,
      "hit": false,
      "t": 120609.08893749974,
      "d": 32.05131249999977,
      "v": 67
    },
    {
      "midi": 84,
      "hit": false,
      "t": 120609.08893749974,
      "d": 32.05131249999977,
      "v": 55
    },
    {
      "midi": 89,
      "hit": false,
      "t": 120609.08893749974,
      "d": 32.05131249999977,
      "v": 50
    },
    {
      "midi": 77,
      "hit": false,
      "t": 120683.87533333307,
      "d": 32.05131249999977,
      "v": 27
    },
    {
      "midi": 82,
      "hit": false,
      "t": 120683.87533333307,
      "d": 32.05131249999977,
      "v": 34
    },
    {
      "midi": 84,
      "hit": false,
      "t": 120683.87533333307,
      "d": 32.05131249999977,
      "v": 27
    },
    {
      "midi": 89,
      "hit": false,
      "t": 120683.87533333307,
      "d": 32.05131249999977,
      "v": 25
    },
    {
      "midi": 77,
      "hit": false,
      "t": 120769.34549999973,
      "d": 32.05131249999977,
      "v": 93
    },
    {
      "midi": 82,
      "hit": false,
      "t": 120769.34549999973,
      "d": 32.05131249999977,
      "v": 127
    },
    {
      "midi": 84,
      "hit": false,
      "t": 120769.34549999973,
      "d": 32.05131249999977,
      "v": 113
    },
    {
      "midi": 89,
      "hit": false,
      "t": 120769.34549999973,
      "d": 32.05131249999977,
      "v": 93
    },
    {
      "midi": 77,
      "hit": false,
      "t": 120865.49943749973,
      "d": 32.05131249999977,
      "v": 50
    },
    {
      "midi": 82,
      "hit": false,
      "t": 120865.49943749973,
      "d": 32.05131249999977,
      "v": 67
    },
    {
      "midi": 84,
      "hit": false,
      "t": 120865.49943749973,
      "d": 32.05131249999977,
      "v": 60
    },
    {
      "midi": 89,
      "hit": false,
      "t": 120865.49943749973,
      "d": 32.05131249999977,
      "v": 50
    },
    {
      "midi": 77,
      "hit": false,
      "t": 120897.55074999973,
      "d": 32.05131249999977,
      "v": 82
    },
    {
      "midi": 82,
      "hit": false,
      "t": 120897.55074999973,
      "d": 32.05131249999977,
      "v": 125
    },
    {
      "midi": 84,
      "hit": false,
      "t": 120897.55074999973,
      "d": 32.05131249999977,
      "v": 106
    },
    {
      "midi": 89,
      "hit": false,
      "t": 120897.55074999973,
      "d": 32.05131249999977,
      "v": 93
    },
    {
      "midi": 77,
      "hit": false,
      "t": 120940.28583333307,
      "d": 32.05131249999977,
      "v": 25
    },
    {
      "midi": 82,
      "hit": false,
      "t": 120940.28583333307,
      "d": 32.05131249999977,
      "v": 34
    },
    {
      "midi": 84,
      "hit": false,
      "t": 120940.28583333307,
      "d": 32.05131249999977,
      "v": 31
    },
    {
      "midi": 89,
      "hit": false,
      "t": 120940.28583333307,
      "d": 32.05131249999977,
      "v": 25
    },
    {
      "midi": 77,
      "hit": false,
      "t": 120993.70468749973,
      "d": 32.05131249999977,
      "v": 43
    },
    {
      "midi": 82,
      "hit": false,
      "t": 120993.70468749973,
      "d": 32.05131249999977,
      "v": 67
    },
    {
      "midi": 84,
      "hit": false,
      "t": 120993.70468749973,
      "d": 32.05131249999977,
      "v": 56
    },
    {
      "midi": 89,
      "hit": false,
      "t": 120993.70468749973,
      "d": 32.05131249999977,
      "v": 50
    },
    {
      "midi": 77,
      "hit": false,
      "t": 121025.75599999973,
      "d": 32.05131249999977,
      "v": 100
    },
    {
      "midi": 81,
      "hit": false,
      "t": 121025.75599999973,
      "d": 32.05131249999977,
      "v": 96
    },
    {
      "midi": 86,
      "hit": false,
      "t": 121025.75599999973,
      "d": 32.05131249999977,
      "v": 100
    },
    {
      "midi": 77,
      "hit": false,
      "t": 121068.49108333307,
      "d": 32.05131249999977,
      "v": 22
    },
    {
      "midi": 82,
      "hit": false,
      "t": 121068.49108333307,
      "d": 32.05131249999977,
      "v": 34
    },
    {
      "midi": 84,
      "hit": false,
      "t": 121068.49108333307,
      "d": 32.05131249999977,
      "v": 29
    },
    {
      "midi": 89,
      "hit": false,
      "t": 121068.49108333307,
      "d": 32.05131249999977,
      "v": 25
    },
    {
      "midi": 77,
      "hit": false,
      "t": 121121.90993749973,
      "d": 32.05131249999977,
      "v": 53
    },
    {
      "midi": 81,
      "hit": false,
      "t": 121121.90993749973,
      "d": 32.05131249999977,
      "v": 50
    },
    {
      "midi": 86,
      "hit": false,
      "t": 121121.90993749973,
      "d": 32.05131249999977,
      "v": 53
    },
    {
      "midi": 77,
      "hit": false,
      "t": 121153.96124999973,
      "d": 32.05131249999977,
      "v": 71
    },
    {
      "midi": 81,
      "hit": false,
      "t": 121153.96124999973,
      "d": 32.05131249999977,
      "v": 108
    },
    {
      "midi": 86,
      "hit": false,
      "t": 121153.96124999973,
      "d": 32.05131249999977,
      "v": 93
    },
    {
      "midi": 77,
      "hit": false,
      "t": 121196.69633333306,
      "d": 32.05131249999977,
      "v": 27
    },
    {
      "midi": 81,
      "hit": false,
      "t": 121196.69633333306,
      "d": 32.05131249999977,
      "v": 25
    },
    {
      "midi": 86,
      "hit": false,
      "t": 121196.69633333306,
      "d": 32.05131249999977,
      "v": 27
    },
    {
      "midi": 77,
      "hit": false,
      "t": 121250.11518749973,
      "d": 32.05131249999977,
      "v": 38
    },
    {
      "midi": 81,
      "hit": false,
      "t": 121250.11518749973,
      "d": 32.05131249999977,
      "v": 57
    },
    {
      "midi": 86,
      "hit": false,
      "t": 121250.11518749973,
      "d": 32.05131249999977,
      "v": 50
    },
    {
      "midi": 77,
      "hit": false,
      "t": 121324.90158333306,
      "d": 32.05131249999977,
      "v": 19
    },
    {
      "midi": 81,
      "hit": false,
      "t": 121324.90158333306,
      "d": 32.05131249999977,
      "v": 29
    },
    {
      "midi": 86,
      "hit": false,
      "t": 121324.90158333306,
      "d": 32.05131249999977,
      "v": 25
    },
    {
      "midi": 77,
      "hit": false,
      "t": 121410.37174999973,
      "d": 32.05131249999977,
      "v": 93
    },
    {
      "midi": 81,
      "hit": false,
      "t": 121410.37174999973,
      "d": 32.05131249999977,
      "v": 123
    },
    {
      "midi": 86,
      "hit": false,
      "t": 121410.37174999973,
      "d": 32.05131249999977,
      "v": 78
    },
    {
      "midi": 77,
      "hit": false,
      "t": 121506.52568749973,
      "d": 32.05131249999977,
      "v": 50
    },
    {
      "midi": 81,
      "hit": false,
      "t": 121506.52568749973,
      "d": 32.05131249999977,
      "v": 65
    },
    {
      "midi": 86,
      "hit": false,
      "t": 121506.52568749973,
      "d": 32.05131249999977,
      "v": 41
    },
    {
      "midi": 77,
      "hit": false,
      "t": 121538.57699999973,
      "d": 32.05131249999977,
      "v": 111
    },
    {
      "midi": 81,
      "hit": false,
      "t": 121538.57699999973,
      "d": 32.05131249999977,
      "v": 127
    },
    {
      "midi": 86,
      "hit": false,
      "t": 121538.57699999973,
      "d": 32.05131249999977,
      "v": 106
    },
    {
      "midi": 77,
      "hit": false,
      "t": 121581.31208333306,
      "d": 32.05131249999977,
      "v": 25
    },
    {
      "midi": 81,
      "hit": false,
      "t": 121581.31208333306,
      "d": 32.05131249999977,
      "v": 33
    },
    {
      "midi": 86,
      "hit": false,
      "t": 121581.31208333306,
      "d": 32.05131249999977,
      "v": 21
    },
    {
      "midi": 77,
      "hit": false,
      "t": 121634.73093749973,
      "d": 32.05131249999977,
      "v": 59
    },
    {
      "midi": 81,
      "hit": false,
      "t": 121634.73093749973,
      "d": 32.05131249999977,
      "v": 67
    },
    {
      "midi": 86,
      "hit": false,
      "t": 121634.73093749973,
      "d": 32.05131249999977,
      "v": 56
    },
    {
      "midi": 77,
      "hit": false,
      "t": 121709.51733333306,
      "d": 32.05131249999977,
      "v": 29
    },
    {
      "midi": 81,
      "hit": false,
      "t": 121709.51733333306,
      "d": 32.05131249999977,
      "v": 34
    },
    {
      "midi": 86,
      "hit": false,
      "t": 121709.51733333306,
      "d": 32.05131249999977,
      "v": 29
    },
    {
      "midi": 77,
      "hit": false,
      "t": 121794.98749999973,
      "d": 32.05131249999977,
      "v": 117
    },
    {
      "midi": 81,
      "hit": false,
      "t": 121794.98749999973,
      "d": 32.05131249999977,
      "v": 127
    },
    {
      "midi": 86,
      "hit": false,
      "t": 121794.98749999973,
      "d": 32.05131249999977,
      "v": 93
    },
    {
      "midi": 77,
      "hit": false,
      "t": 121891.14143749973,
      "d": 32.05131249999977,
      "v": 62
    },
    {
      "midi": 81,
      "hit": false,
      "t": 121891.14143749973,
      "d": 32.05131249999977,
      "v": 67
    },
    {
      "midi": 86,
      "hit": false,
      "t": 121891.14143749973,
      "d": 32.05131249999977,
      "v": 50
    },
    {
      "midi": 77,
      "hit": false,
      "t": 121923.19274999973,
      "d": 32.05131249999977,
      "v": 108
    },
    {
      "midi": 81,
      "hit": false,
      "t": 121923.19274999973,
      "d": 32.05131249999977,
      "v": 127
    },
    {
      "midi": 86,
      "hit": false,
      "t": 121923.19274999973,
      "d": 32.05131249999977,
      "v": 100
    },
    {
      "midi": 77,
      "hit": false,
      "t": 121965.92783333306,
      "d": 32.05131249999977,
      "v": 32
    },
    {
      "midi": 81,
      "hit": false,
      "t": 121965.92783333306,
      "d": 32.05131249999977,
      "v": 34
    },
    {
      "midi": 86,
      "hit": false,
      "t": 121965.92783333306,
      "d": 32.05131249999977,
      "v": 25
    },
    {
      "midi": 77,
      "hit": false,
      "t": 122019.34668749972,
      "d": 32.05131249999977,
      "v": 57
    },
    {
      "midi": 81,
      "hit": false,
      "t": 122019.34668749972,
      "d": 32.05131249999977,
      "v": 67
    },
    {
      "midi": 86,
      "hit": false,
      "t": 122019.34668749972,
      "d": 32.05131249999977,
      "v": 53
    },
    {
      "midi": 77,
      "hit": false,
      "t": 122094.13308333306,
      "d": 32.05131249999977,
      "v": 29
    },
    {
      "midi": 81,
      "hit": false,
      "t": 122094.13308333306,
      "d": 32.05131249999977,
      "v": 34
    },
    {
      "midi": 86,
      "hit": false,
      "t": 122094.13308333306,
      "d": 32.05131249999977,
      "v": 27
    },
    {
      "midi": 77,
      "hit": false,
      "t": 122179.60324999972,
      "d": 32.05131249999977,
      "v": 120
    },
    {
      "midi": 81,
      "hit": false,
      "t": 122179.60324999972,
      "d": 32.05131249999977,
      "v": 127
    },
    {
      "midi": 86,
      "hit": false,
      "t": 122179.60324999972,
      "d": 32.05131249999977,
      "v": 100
    },
    {
      "midi": 77,
      "hit": false,
      "t": 122275.75718749972,
      "d": 32.05131249999977,
      "v": 63
    },
    {
      "midi": 81,
      "hit": false,
      "t": 122275.75718749972,
      "d": 32.05131249999977,
      "v": 67
    },
    {
      "midi": 86,
      "hit": false,
      "t": 122275.75718749972,
      "d": 32.05131249999977,
      "v": 53
    },
    {
      "midi": 77,
      "hit": false,
      "t": 122350.54358333306,
      "d": 32.05131249999977,
      "v": 32
    },
    {
      "midi": 81,
      "hit": false,
      "t": 122350.54358333306,
      "d": 32.05131249999977,
      "v": 34
    },
    {
      "midi": 86,
      "hit": false,
      "t": 122350.54358333306,
      "d": 32.05131249999977,
      "v": 27
    },
    {
      "midi": 77,
      "hit": false,
      "t": 122436.01374999972,
      "d": 32.05131249999977,
      "v": 98
    },
    {
      "midi": 81,
      "hit": false,
      "t": 122436.01374999972,
      "d": 32.05131249999977,
      "v": 127
    },
    {
      "midi": 86,
      "hit": false,
      "t": 122436.01374999972,
      "d": 32.05131249999977,
      "v": 89
    },
    {
      "midi": 77,
      "hit": false,
      "t": 122532.16768749972,
      "d": 32.05131249999977,
      "v": 52
    },
    {
      "midi": 81,
      "hit": false,
      "t": 122532.16768749972,
      "d": 32.05131249999977,
      "v": 67
    },
    {
      "midi": 86,
      "hit": false,
      "t": 122532.16768749972,
      "d": 32.05131249999977,
      "v": 48
    },
    {
      "midi": 77,
      "hit": false,
      "t": 122564.21899999972,
      "d": 32.05131249999977,
      "v": 113
    },
    {
      "midi": 81,
      "hit": false,
      "t": 122564.21899999972,
      "d": 32.05131249999977,
      "v": 127
    },
    {
      "midi": 86,
      "hit": false,
      "t": 122564.21899999972,
      "d": 32.05131249999977,
      "v": 100
    },
    {
      "midi": 77,
      "hit": false,
      "t": 122606.95408333305,
      "d": 32.05131249999977,
      "v": 27
    },
    {
      "midi": 81,
      "hit": false,
      "t": 122606.95408333305,
      "d": 32.05131249999977,
      "v": 34
    },
    {
      "midi": 86,
      "hit": false,
      "t": 122606.95408333305,
      "d": 32.05131249999977,
      "v": 25
    },
    {
      "midi": 77,
      "hit": false,
      "t": 122660.37293749972,
      "d": 32.05131249999977,
      "v": 60
    },
    {
      "midi": 81,
      "hit": false,
      "t": 122660.37293749972,
      "d": 32.05131249999977,
      "v": 67
    },
    {
      "midi": 86,
      "hit": false,
      "t": 122660.37293749972,
      "d": 32.05131249999977,
      "v": 53
    },
    {
      "midi": 77,
      "hit": false,
      "t": 122692.42424999972,
      "d": 32.05131249999977,
      "v": 106
    },
    {
      "midi": 81,
      "hit": false,
      "t": 122692.42424999972,
      "d": 32.05131249999977,
      "v": 126
    },
    {
      "midi": 86,
      "hit": false,
      "t": 122692.42424999972,
      "d": 32.05131249999977,
      "v": 98
    },
    {
      "midi": 77,
      "hit": false,
      "t": 122735.15933333305,
      "d": 32.05131249999977,
      "v": 31
    },
    {
      "midi": 81,
      "hit": false,
      "t": 122735.15933333305,
      "d": 32.05131249999977,
      "v": 34
    },
    {
      "midi": 86,
      "hit": false,
      "t": 122735.15933333305,
      "d": 32.05131249999977,
      "v": 27
    },
    {
      "midi": 77,
      "hit": false,
      "t": 122788.57818749972,
      "d": 32.05131249999977,
      "v": 56
    },
    {
      "midi": 81,
      "hit": false,
      "t": 122788.57818749972,
      "d": 32.05131249999977,
      "v": 67
    },
    {
      "midi": 86,
      "hit": false,
      "t": 122788.57818749972,
      "d": 32.05131249999977,
      "v": 52
    },
    {
      "midi": 77,
      "hit": false,
      "t": 122863.36458333305,
      "d": 32.05131249999977,
      "v": 29
    },
    {
      "midi": 81,
      "hit": false,
      "t": 122863.36458333305,
      "d": 32.05131249999977,
      "v": 34
    },
    {
      "midi": 86,
      "hit": false,
      "t": 122863.36458333305,
      "d": 32.05131249999977,
      "v": 27
    },
    {
      "midi": 77,
      "hit": false,
      "t": 122948.83474999972,
      "d": 32.05131249999977,
      "v": 113
    },
    {
      "midi": 79,
      "hit": false,
      "t": 122948.83474999972,
      "d": 32.05131249999977,
      "v": 127
    },
    {
      "midi": 86,
      "hit": false,
      "t": 122948.83474999972,
      "d": 32.05131249999977,
      "v": 86
    },
    {
      "midi": 77,
      "hit": false,
      "t": 123044.98868749972,
      "d": 32.05131249999977,
      "v": 60
    },
    {
      "midi": 79,
      "hit": false,
      "t": 123044.98868749972,
      "d": 32.05131249999977,
      "v": 67
    },
    {
      "midi": 86,
      "hit": false,
      "t": 123044.98868749972,
      "d": 32.05131249999977,
      "v": 46
    },
    {
      "midi": 77,
      "hit": false,
      "t": 123077.03999999972,
      "d": 32.05131249999977,
      "v": 111
    },
    {
      "midi": 79,
      "hit": false,
      "t": 123077.03999999972,
      "d": 32.05131249999977,
      "v": 127
    },
    {
      "midi": 86,
      "hit": false,
      "t": 123077.03999999972,
      "d": 32.05131249999977,
      "v": 93
    },
    {
      "midi": 77,
      "hit": false,
      "t": 123119.77508333305,
      "d": 32.05131249999977,
      "v": 31
    },
    {
      "midi": 79,
      "hit": false,
      "t": 123119.77508333305,
      "d": 32.05131249999977,
      "v": 34
    },
    {
      "midi": 86,
      "hit": false,
      "t": 123119.77508333305,
      "d": 32.05131249999977,
      "v": 23
    },
    {
      "midi": 77,
      "hit": false,
      "t": 123173.19393749972,
      "d": 32.05131249999977,
      "v": 59
    },
    {
      "midi": 79,
      "hit": false,
      "t": 123173.19393749972,
      "d": 32.05131249999977,
      "v": 67
    },
    {
      "midi": 86,
      "hit": false,
      "t": 123173.19393749972,
      "d": 32.05131249999977,
      "v": 50
    },
    {
      "midi": 77,
      "hit": false,
      "t": 123247.98033333305,
      "d": 32.05131249999977,
      "v": 29
    },
    {
      "midi": 79,
      "hit": false,
      "t": 123247.98033333305,
      "d": 32.05131249999977,
      "v": 34
    },
    {
      "midi": 86,
      "hit": false,
      "t": 123247.98033333305,
      "d": 32.05131249999977,
      "v": 25
    },
    {
      "midi": 77,
      "hit": false,
      "t": 123333.45049999972,
      "d": 32.05131249999977,
      "v": 113
    },
    {
      "midi": 79,
      "hit": false,
      "t": 123333.45049999972,
      "d": 32.05131249999977,
      "v": 127
    },
    {
      "midi": 86,
      "hit": false,
      "t": 123333.45049999972,
      "d": 32.05131249999977,
      "v": 91
    },
    {
      "midi": 77,
      "hit": false,
      "t": 123429.60443749971,
      "d": 32.05131249999977,
      "v": 60
    },
    {
      "midi": 79,
      "hit": false,
      "t": 123429.60443749971,
      "d": 32.05131249999977,
      "v": 67
    },
    {
      "midi": 86,
      "hit": false,
      "t": 123429.60443749971,
      "d": 32.05131249999977,
      "v": 48
    },
    {
      "midi": 77,
      "hit": false,
      "t": 123461.65574999971,
      "d": 32.05131249999977,
      "v": 117
    },
    {
      "midi": 79,
      "hit": false,
      "t": 123461.65574999971,
      "d": 32.05131249999977,
      "v": 127
    },
    {
      "midi": 86,
      "hit": false,
      "t": 123461.65574999971,
      "d": 32.05131249999977,
      "v": 103
    },
    {
      "midi": 77,
      "hit": false,
      "t": 123504.39083333305,
      "d": 32.05131249999977,
      "v": 31
    },
    {
      "midi": 79,
      "hit": false,
      "t": 123504.39083333305,
      "d": 32.05131249999977,
      "v": 34
    },
    {
      "midi": 86,
      "hit": false,
      "t": 123504.39083333305,
      "d": 32.05131249999977,
      "v": 25
    },
    {
      "midi": 77,
      "hit": false,
      "t": 123557.80968749971,
      "d": 32.05131249999977,
      "v": 62
    },
    {
      "midi": 79,
      "hit": false,
      "t": 123557.80968749971,
      "d": 32.05131249999977,
      "v": 67
    },
    {
      "midi": 86,
      "hit": false,
      "t": 123557.80968749971,
      "d": 32.05131249999977,
      "v": 55
    },
    {
      "midi": 77,
      "hit": false,
      "t": 123632.59608333305,
      "d": 32.05131249999977,
      "v": 32
    },
    {
      "midi": 79,
      "hit": false,
      "t": 123632.59608333305,
      "d": 32.05131249999977,
      "v": 34
    },
    {
      "midi": 86,
      "hit": false,
      "t": 123632.59608333305,
      "d": 32.05131249999977,
      "v": 27
    },
    {
      "midi": 77,
      "hit": false,
      "t": 123846.27149999971,
      "d": 32.05131249999977,
      "v": 117
    },
    {
      "midi": 79,
      "hit": false,
      "t": 123846.27149999971,
      "d": 32.05131249999977,
      "v": 127
    },
    {
      "midi": 86,
      "hit": false,
      "t": 123846.27149999971,
      "d": 32.05131249999977,
      "v": 85
    },
    {
      "midi": 77,
      "hit": false,
      "t": 123942.42543749971,
      "d": 32.05131249999977,
      "v": 62
    },
    {
      "midi": 79,
      "hit": false,
      "t": 123942.42543749971,
      "d": 32.05131249999977,
      "v": 67
    },
    {
      "midi": 86,
      "hit": false,
      "t": 123942.42543749971,
      "d": 32.05131249999977,
      "v": 46
    },
    {
      "midi": 77,
      "hit": false,
      "t": 123974.47674999971,
      "d": 32.05131249999977,
      "v": 113
    },
    {
      "midi": 79,
      "hit": false,
      "t": 123974.47674999971,
      "d": 32.05131249999977,
      "v": 127
    },
    {
      "midi": 86,
      "hit": false,
      "t": 123974.47674999971,
      "d": 32.05131249999977,
      "v": 100
    },
    {
      "midi": 77,
      "hit": false,
      "t": 124017.21183333304,
      "d": 32.05131249999977,
      "v": 32
    },
    {
      "midi": 79,
      "hit": false,
      "t": 124017.21183333304,
      "d": 32.05131249999977,
      "v": 34
    },
    {
      "midi": 86,
      "hit": false,
      "t": 124017.21183333304,
      "d": 32.05131249999977,
      "v": 23
    },
    {
      "midi": 77,
      "hit": false,
      "t": 124070.63068749971,
      "d": 32.05131249999977,
      "v": 60
    },
    {
      "midi": 79,
      "hit": false,
      "t": 124070.63068749971,
      "d": 32.05131249999977,
      "v": 67
    },
    {
      "midi": 86,
      "hit": false,
      "t": 124070.63068749971,
      "d": 32.05131249999977,
      "v": 53
    },
    {
      "midi": 77,
      "hit": false,
      "t": 124145.41708333304,
      "d": 32.05131249999977,
      "v": 31
    },
    {
      "midi": 79,
      "hit": false,
      "t": 124145.41708333304,
      "d": 32.05131249999977,
      "v": 34
    },
    {
      "midi": 86,
      "hit": false,
      "t": 124145.41708333304,
      "d": 32.05131249999977,
      "v": 27
    },
    {
      "midi": 77,
      "hit": false,
      "t": 124230.88724999971,
      "d": 32.05131249999977,
      "v": 106
    },
    {
      "midi": 79,
      "hit": false,
      "t": 124230.88724999971,
      "d": 32.05131249999977,
      "v": 127
    },
    {
      "midi": 86,
      "hit": false,
      "t": 124230.88724999971,
      "d": 32.05131249999977,
      "v": 91
    },
    {
      "midi": 77,
      "hit": false,
      "t": 124327.04118749971,
      "d": 32.05131249999977,
      "v": 56
    },
    {
      "midi": 79,
      "hit": false,
      "t": 124327.04118749971,
      "d": 32.05131249999977,
      "v": 67
    },
    {
      "midi": 86,
      "hit": false,
      "t": 124327.04118749971,
      "d": 32.05131249999977,
      "v": 48
    },
    {
      "midi": 77,
      "hit": false,
      "t": 124401.82758333304,
      "d": 32.05131249999977,
      "v": 29
    },
    {
      "midi": 79,
      "hit": false,
      "t": 124401.82758333304,
      "d": 32.05131249999977,
      "v": 34
    },
    {
      "midi": 86,
      "hit": false,
      "t": 124401.82758333304,
      "d": 32.05131249999977,
      "v": 25
    },
    {
      "midi": 77,
      "hit": false,
      "t": 124487.2977499997,
      "d": 32.05131249999977,
      "v": 108
    },
    {
      "midi": 79,
      "hit": false,
      "t": 124487.2977499997,
      "d": 32.05131249999977,
      "v": 127
    },
    {
      "midi": 86,
      "hit": false,
      "t": 124487.2977499997,
      "d": 32.05131249999977,
      "v": 82
    },
    {
      "midi": 77,
      "hit": false,
      "t": 124583.4516874997,
      "d": 32.05131249999977,
      "v": 57
    },
    {
      "midi": 79,
      "hit": false,
      "t": 124583.4516874997,
      "d": 32.05131249999977,
      "v": 67
    },
    {
      "midi": 86,
      "hit": false,
      "t": 124583.4516874997,
      "d": 32.05131249999977,
      "v": 43
    },
    {
      "midi": 77,
      "hit": false,
      "t": 124615.5029999997,
      "d": 32.05131249999977,
      "v": 117
    },
    {
      "midi": 79,
      "hit": false,
      "t": 124615.5029999997,
      "d": 32.05131249999977,
      "v": 127
    },
    {
      "midi": 86,
      "hit": false,
      "t": 124615.5029999997,
      "d": 32.05131249999977,
      "v": 100
    },
    {
      "midi": 77,
      "hit": false,
      "t": 124658.23808333304,
      "d": 32.05131249999977,
      "v": 29
    },
    {
      "midi": 79,
      "hit": false,
      "t": 124658.23808333304,
      "d": 32.05131249999977,
      "v": 34
    },
    {
      "midi": 86,
      "hit": false,
      "t": 124658.23808333304,
      "d": 32.05131249999977,
      "v": 22
    },
    {
      "midi": 77,
      "hit": false,
      "t": 124711.6569374997,
      "d": 32.05131249999977,
      "v": 62
    },
    {
      "midi": 79,
      "hit": false,
      "t": 124711.6569374997,
      "d": 32.05131249999977,
      "v": 67
    },
    {
      "midi": 86,
      "hit": false,
      "t": 124711.6569374997,
      "d": 32.05131249999977,
      "v": 53
    },
    {
      "midi": 77,
      "hit": false,
      "t": 124786.44333333304,
      "d": 32.05131249999977,
      "v": 32
    },
    {
      "midi": 79,
      "hit": false,
      "t": 124786.44333333304,
      "d": 32.05131249999977,
      "v": 34
    },
    {
      "midi": 86,
      "hit": false,
      "t": 124786.44333333304,
      "d": 32.05131249999977,
      "v": 27
    },
    {
      "midi": 77,
      "hit": false,
      "t": 124871.9134999997,
      "d": 32.05131249999977,
      "v": 111
    },
    {
      "midi": 79,
      "hit": false,
      "t": 124871.9134999997,
      "d": 32.05131249999977,
      "v": 127
    },
    {
      "midi": 86,
      "hit": false,
      "t": 124871.9134999997,
      "d": 32.05131249999977,
      "v": 85
    },
    {
      "midi": 77,
      "hit": false,
      "t": 124968.0674374997,
      "d": 32.05131249999977,
      "v": 59
    },
    {
      "midi": 79,
      "hit": false,
      "t": 124968.0674374997,
      "d": 32.05131249999977,
      "v": 67
    },
    {
      "midi": 86,
      "hit": false,
      "t": 124968.0674374997,
      "d": 32.05131249999977,
      "v": 46
    },
    {
      "midi": 77,
      "hit": false,
      "t": 125000.1187499997,
      "d": 32.05131249999977,
      "v": 86
    },
    {
      "midi": 86,
      "hit": false,
      "t": 125000.1187499997,
      "d": 32.05131249999977,
      "v": 86
    },
    {
      "midi": 77,
      "hit": false,
      "t": 125042.85383333304,
      "d": 32.05131249999977,
      "v": 29
    },
    {
      "midi": 79,
      "hit": false,
      "t": 125042.85383333304,
      "d": 32.05131249999977,
      "v": 34
    },
    {
      "midi": 86,
      "hit": false,
      "t": 125042.85383333304,
      "d": 32.05131249999977,
      "v": 23
    },
    {
      "midi": 77,
      "hit": false,
      "t": 125096.2726874997,
      "d": 32.05131249999977,
      "v": 46
    },
    {
      "midi": 86,
      "hit": false,
      "t": 125096.2726874997,
      "d": 32.05131249999977,
      "v": 46
    },
    {
      "midi": 77,
      "hit": false,
      "t": 125128.3239999997,
      "d": 32.05131249999977,
      "v": 106
    },
    {
      "midi": 80,
      "hit": false,
      "t": 125128.3239999997,
      "d": 32.05131249999977,
      "v": 78
    },
    {
      "midi": 82,
      "hit": false,
      "t": 125128.3239999997,
      "d": 32.05131249999977,
      "v": 127
    },
    {
      "midi": 86,
      "hit": false,
      "t": 125128.3239999997,
      "d": 32.05131249999977,
      "v": 80
    },
    {
      "midi": 89,
      "hit": false,
      "t": 125128.3239999997,
      "d": 32.05131249999977,
      "v": 93
    },
    {
      "midi": 77,
      "hit": false,
      "t": 125171.05908333304,
      "d": 32.05131249999977,
      "v": 23
    },
    {
      "midi": 86,
      "hit": false,
      "t": 125171.05908333304,
      "d": 32.05131249999977,
      "v": 23
    },
    {
      "midi": 77,
      "hit": false,
      "t": 125224.4779374997,
      "d": 32.05131249999977,
      "v": 56
    },
    {
      "midi": 80,
      "hit": false,
      "t": 125224.4779374997,
      "d": 32.05131249999977,
      "v": 41
    },
    {
      "midi": 82,
      "hit": false,
      "t": 125224.4779374997,
      "d": 32.05131249999977,
      "v": 67
    },
    {
      "midi": 86,
      "hit": false,
      "t": 125224.4779374997,
      "d": 32.05131249999977,
      "v": 42
    },
    {
      "midi": 89,
      "hit": false,
      "t": 125224.4779374997,
      "d": 32.05131249999977,
      "v": 50
    },
    {
      "midi": 77,
      "hit": false,
      "t": 125256.5292499997,
      "d": 32.05131249999977,
      "v": 98
    },
    {
      "midi": 82,
      "hit": false,
      "t": 125256.5292499997,
      "d": 32.05131249999977,
      "v": 127
    },
    {
      "midi": 86,
      "hit": false,
      "t": 125256.5292499997,
      "d": 32.05131249999977,
      "v": 89
    },
    {
      "midi": 89,
      "hit": false,
      "t": 125256.5292499997,
      "d": 32.05131249999977,
      "v": 93
    },
    {
      "midi": 77,
      "hit": false,
      "t": 125299.26433333303,
      "d": 32.05131249999977,
      "v": 29
    },
    {
      "midi": 80,
      "hit": false,
      "t": 125299.26433333303,
      "d": 32.05131249999977,
      "v": 21
    },
    {
      "midi": 82,
      "hit": false,
      "t": 125299.26433333303,
      "d": 32.05131249999977,
      "v": 34
    },
    {
      "midi": 86,
      "hit": false,
      "t": 125299.26433333303,
      "d": 32.05131249999977,
      "v": 21
    },
    {
      "midi": 89,
      "hit": false,
      "t": 125299.26433333303,
      "d": 32.05131249999977,
      "v": 25
    },
    {
      "midi": 77,
      "hit": false,
      "t": 125352.6831874997,
      "d": 32.05131249999977,
      "v": 52
    },
    {
      "midi": 82,
      "hit": false,
      "t": 125352.6831874997,
      "d": 32.05131249999977,
      "v": 67
    },
    {
      "midi": 86,
      "hit": false,
      "t": 125352.6831874997,
      "d": 32.05131249999977,
      "v": 48
    },
    {
      "midi": 89,
      "hit": false,
      "t": 125352.6831874997,
      "d": 32.05131249999977,
      "v": 50
    },
    {
      "midi": 77,
      "hit": false,
      "t": 125427.46958333303,
      "d": 32.05131249999977,
      "v": 27
    },
    {
      "midi": 82,
      "hit": false,
      "t": 125427.46958333303,
      "d": 32.05131249999977,
      "v": 34
    },
    {
      "midi": 86,
      "hit": false,
      "t": 125427.46958333303,
      "d": 32.05131249999977,
      "v": 25
    },
    {
      "midi": 89,
      "hit": false,
      "t": 125427.46958333303,
      "d": 32.05131249999977,
      "v": 25
    },
    {
      "midi": 77,
      "hit": false,
      "t": 125512.9397499997,
      "d": 32.05131249999977,
      "v": 117
    },
    {
      "midi": 82,
      "hit": false,
      "t": 125512.9397499997,
      "d": 32.05131249999977,
      "v": 127
    },
    {
      "midi": 86,
      "hit": false,
      "t": 125512.9397499997,
      "d": 32.05131249999977,
      "v": 86
    },
    {
      "midi": 89,
      "hit": false,
      "t": 125512.9397499997,
      "d": 32.05131249999977,
      "v": 93
    },
    {
      "midi": 77,
      "hit": false,
      "t": 125609.0936874997,
      "d": 32.05131249999977,
      "v": 62
    },
    {
      "midi": 82,
      "hit": false,
      "t": 125609.0936874997,
      "d": 32.05131249999977,
      "v": 67
    },
    {
      "midi": 86,
      "hit": false,
      "t": 125609.0936874997,
      "d": 32.05131249999977,
      "v": 46
    },
    {
      "midi": 89,
      "hit": false,
      "t": 125609.0936874997,
      "d": 32.05131249999977,
      "v": 50
    },
    {
      "midi": 77,
      "hit": false,
      "t": 125683.88008333303,
      "d": 32.05131249999977,
      "v": 32
    },
    {
      "midi": 82,
      "hit": false,
      "t": 125683.88008333303,
      "d": 32.05131249999977,
      "v": 34
    },
    {
      "midi": 86,
      "hit": false,
      "t": 125683.88008333303,
      "d": 32.05131249999977,
      "v": 23
    },
    {
      "midi": 89,
      "hit": false,
      "t": 125683.88008333303,
      "d": 32.05131249999977,
      "v": 25
    },
    {
      "midi": 77,
      "hit": false,
      "t": 125769.3502499997,
      "d": 32.05131249999977,
      "v": 106
    },
    {
      "midi": 82,
      "hit": false,
      "t": 125769.3502499997,
      "d": 32.05131249999977,
      "v": 127
    },
    {
      "midi": 86,
      "hit": false,
      "t": 125769.3502499997,
      "d": 32.05131249999977,
      "v": 80
    },
    {
      "midi": 89,
      "hit": false,
      "t": 125769.3502499997,
      "d": 32.05131249999977,
      "v": 93
    },
    {
      "midi": 77,
      "hit": false,
      "t": 125865.5041874997,
      "d": 32.05131249999977,
      "v": 56
    },
    {
      "midi": 82,
      "hit": false,
      "t": 125865.5041874997,
      "d": 32.05131249999977,
      "v": 67
    },
    {
      "midi": 86,
      "hit": false,
      "t": 125865.5041874997,
      "d": 32.05131249999977,
      "v": 42
    },
    {
      "midi": 89,
      "hit": false,
      "t": 125865.5041874997,
      "d": 32.05131249999977,
      "v": 50
    },
    {
      "midi": 77,
      "hit": false,
      "t": 125897.5554999997,
      "d": 32.05131249999977,
      "v": 89
    },
    {
      "midi": 82,
      "hit": false,
      "t": 125897.5554999997,
      "d": 32.05131249999977,
      "v": 127
    },
    {
      "midi": 86,
      "hit": false,
      "t": 125897.5554999997,
      "d": 32.05131249999977,
      "v": 83
    },
    {
      "midi": 89,
      "hit": false,
      "t": 125897.5554999997,
      "d": 32.05131249999977,
      "v": 93
    },
    {
      "midi": 77,
      "hit": false,
      "t": 125940.29058333303,
      "d": 32.05131249999977,
      "v": 29
    },
    {
      "midi": 82,
      "hit": false,
      "t": 125940.29058333303,
      "d": 32.05131249999977,
      "v": 34
    },
    {
      "midi": 86,
      "hit": false,
      "t": 125940.29058333303,
      "d": 32.05131249999977,
      "v": 21
    },
    {
      "midi": 89,
      "hit": false,
      "t": 125940.29058333303,
      "d": 32.05131249999977,
      "v": 25
    },
    {
      "midi": 77,
      "hit": false,
      "t": 125993.7094374997,
      "d": 32.05131249999977,
      "v": 48
    },
    {
      "midi": 82,
      "hit": false,
      "t": 125993.7094374997,
      "d": 32.05131249999977,
      "v": 67
    },
    {
      "midi": 86,
      "hit": false,
      "t": 125993.7094374997,
      "d": 32.05131249999977,
      "v": 44
    },
    {
      "midi": 89,
      "hit": false,
      "t": 125993.7094374997,
      "d": 32.05131249999977,
      "v": 50
    },
    {
      "midi": 77,
      "hit": false,
      "t": 126025.7607499997,
      "d": 32.05131249999977,
      "v": 103
    },
    {
      "midi": 82,
      "hit": false,
      "t": 126025.7607499997,
      "d": 32.05131249999977,
      "v": 127
    },
    {
      "midi": 86,
      "hit": false,
      "t": 126025.7607499997,
      "d": 32.05131249999977,
      "v": 98
    },
    {
      "midi": 89,
      "hit": false,
      "t": 126025.7607499997,
      "d": 32.05131249999977,
      "v": 93
    },
    {
      "midi": 77,
      "hit": false,
      "t": 126068.49583333303,
      "d": 32.05131249999977,
      "v": 25
    },
    {
      "midi": 82,
      "hit": false,
      "t": 126068.49583333303,
      "d": 32.05131249999977,
      "v": 34
    },
    {
      "midi": 86,
      "hit": false,
      "t": 126068.49583333303,
      "d": 32.05131249999977,
      "v": 22
    },
    {
      "midi": 89,
      "hit": false,
      "t": 126068.49583333303,
      "d": 32.05131249999977,
      "v": 25
    },
    {
      "midi": 77,
      "hit": false,
      "t": 126121.9146874997,
      "d": 32.05131249999977,
      "v": 55
    },
    {
      "midi": 82,
      "hit": false,
      "t": 126121.9146874997,
      "d": 32.05131249999977,
      "v": 67
    },
    {
      "midi": 86,
      "hit": false,
      "t": 126121.9146874997,
      "d": 32.05131249999977,
      "v": 52
    },
    {
      "midi": 89,
      "hit": false,
      "t": 126121.9146874997,
      "d": 32.05131249999977,
      "v": 50
    },
    {
      "midi": 77,
      "hit": false,
      "t": 126196.70108333303,
      "d": 32.05131249999977,
      "v": 27
    },
    {
      "midi": 82,
      "hit": false,
      "t": 126196.70108333303,
      "d": 32.05131249999977,
      "v": 34
    },
    {
      "midi": 86,
      "hit": false,
      "t": 126196.70108333303,
      "d": 32.05131249999977,
      "v": 27
    },
    {
      "midi": 89,
      "hit": false,
      "t": 126196.70108333303,
      "d": 32.05131249999977,
      "v": 25
    },
    {
      "midi": 77,
      "hit": false,
      "t": 126282.1712499997,
      "d": 32.05131249999977,
      "v": 111
    },
    {
      "midi": 82,
      "hit": false,
      "t": 126282.1712499997,
      "d": 32.05131249999977,
      "v": 127
    },
    {
      "midi": 86,
      "hit": false,
      "t": 126282.1712499997,
      "d": 32.05131249999977,
      "v": 93
    },
    {
      "midi": 89,
      "hit": false,
      "t": 126282.1712499997,
      "d": 32.05131249999977,
      "v": 93
    },
    {
      "midi": 77,
      "hit": false,
      "t": 126378.3251874997,
      "d": 32.05131249999977,
      "v": 59
    },
    {
      "midi": 82,
      "hit": false,
      "t": 126378.3251874997,
      "d": 32.05131249999977,
      "v": 67
    },
    {
      "midi": 86,
      "hit": false,
      "t": 126378.3251874997,
      "d": 32.05131249999977,
      "v": 50
    },
    {
      "midi": 89,
      "hit": false,
      "t": 126378.3251874997,
      "d": 32.05131249999977,
      "v": 50
    },
    {
      "midi": 77,
      "hit": false,
      "t": 126453.11158333303,
      "d": 32.05131249999977,
      "v": 29
    },
    {
      "midi": 82,
      "hit": false,
      "t": 126453.11158333303,
      "d": 32.05131249999977,
      "v": 34
    },
    {
      "midi": 86,
      "hit": false,
      "t": 126453.11158333303,
      "d": 32.05131249999977,
      "v": 25
    },
    {
      "midi": 89,
      "hit": false,
      "t": 126453.11158333303,
      "d": 32.05131249999977,
      "v": 25
    },
    {
      "midi": 77,
      "hit": false,
      "t": 126538.58174999969,
      "d": 32.05131249999977,
      "v": 117
    },
    {
      "midi": 82,
      "hit": false,
      "t": 126538.58174999969,
      "d": 32.05131249999977,
      "v": 127
    },
    {
      "midi": 86,
      "hit": false,
      "t": 126538.58174999969,
      "d": 32.05131249999977,
      "v": 91
    },
    {
      "midi": 89,
      "hit": false,
      "t": 126538.58174999969,
      "d": 32.05131249999977,
      "v": 93
    },
    {
      "midi": 77,
      "hit": false,
      "t": 126634.73568749969,
      "d": 32.05131249999977,
      "v": 62
    },
    {
      "midi": 82,
      "hit": false,
      "t": 126634.73568749969,
      "d": 32.05131249999977,
      "v": 67
    },
    {
      "midi": 86,
      "hit": false,
      "t": 126634.73568749969,
      "d": 32.05131249999977,
      "v": 48
    },
    {
      "midi": 89,
      "hit": false,
      "t": 126634.73568749969,
      "d": 32.05131249999977,
      "v": 50
    },
    {
      "midi": 77,
      "hit": false,
      "t": 126666.78699999969,
      "d": 32.05131249999977,
      "v": 89
    },
    {
      "midi": 82,
      "hit": false,
      "t": 126666.78699999969,
      "d": 32.05131249999977,
      "v": 127
    },
    {
      "midi": 86,
      "hit": false,
      "t": 126666.78699999969,
      "d": 32.05131249999977,
      "v": 91
    },
    {
      "midi": 91,
      "hit": false,
      "t": 126666.78699999969,
      "d": 32.05131249999977,
      "v": 93
    },
    {
      "midi": 77,
      "hit": false,
      "t": 126709.52208333302,
      "d": 32.05131249999977,
      "v": 32
    },
    {
      "midi": 82,
      "hit": false,
      "t": 126709.52208333302,
      "d": 32.05131249999977,
      "v": 34
    },
    {
      "midi": 86,
      "hit": false,
      "t": 126709.52208333302,
      "d": 32.05131249999977,
      "v": 25
    },
    {
      "midi": 89,
      "hit": false,
      "t": 126709.52208333302,
      "d": 32.05131249999977,
      "v": 25
    },
    {
      "midi": 77,
      "hit": false,
      "t": 126762.94093749969,
      "d": 32.05131249999977,
      "v": 48
    },
    {
      "midi": 82,
      "hit": false,
      "t": 126762.94093749969,
      "d": 32.05131249999977,
      "v": 67
    },
    {
      "midi": 86,
      "hit": false,
      "t": 126762.94093749969,
      "d": 32.05131249999977,
      "v": 48
    },
    {
      "midi": 91,
      "hit": false,
      "t": 126762.94093749969,
      "d": 32.05131249999977,
      "v": 50
    },
    {
      "midi": 77,
      "hit": false,
      "t": 126837.72733333302,
      "d": 32.05131249999977,
      "v": 25
    },
    {
      "midi": 82,
      "hit": false,
      "t": 126837.72733333302,
      "d": 32.05131249999977,
      "v": 34
    },
    {
      "midi": 86,
      "hit": false,
      "t": 126837.72733333302,
      "d": 32.05131249999977,
      "v": 25
    },
    {
      "midi": 91,
      "hit": false,
      "t": 126837.72733333302,
      "d": 32.05131249999977,
      "v": 25
    },
    {
      "midi": 77,
      "hit": false,
      "t": 126923.19749999969,
      "d": 32.05131249999977,
      "v": 120
    },
    {
      "midi": 82,
      "hit": false,
      "t": 126923.19749999969,
      "d": 32.05131249999977,
      "v": 127
    },
    {
      "midi": 86,
      "hit": false,
      "t": 126923.19749999969,
      "d": 32.05131249999977,
      "v": 98
    },
    {
      "midi": 91,
      "hit": false,
      "t": 126923.19749999969,
      "d": 32.05131249999977,
      "v": 93
    },
    {
      "midi": 77,
      "hit": false,
      "t": 127019.35143749969,
      "d": 32.05131249999977,
      "v": 63
    },
    {
      "midi": 82,
      "hit": false,
      "t": 127019.35143749969,
      "d": 32.05131249999977,
      "v": 67
    },
    {
      "midi": 86,
      "hit": false,
      "t": 127019.35143749969,
      "d": 32.05131249999977,
      "v": 52
    },
    {
      "midi": 91,
      "hit": false,
      "t": 127019.35143749969,
      "d": 32.05131249999977,
      "v": 50
    },
    {
      "midi": 77,
      "hit": false,
      "t": 127051.40274999969,
      "d": 32.05131249999977,
      "v": 77
    },
    {
      "midi": 82,
      "hit": false,
      "t": 127051.40274999969,
      "d": 32.05131249999977,
      "v": 107
    },
    {
      "midi": 86,
      "hit": false,
      "t": 127051.40274999969,
      "d": 32.05131249999977,
      "v": 89
    },
    {
      "midi": 91,
      "hit": false,
      "t": 127051.40274999969,
      "d": 32.05131249999977,
      "v": 93
    },
    {
      "midi": 77,
      "hit": false,
      "t": 127094.13783333302,
      "d": 32.05131249999977,
      "v": 32
    },
    {
      "midi": 82,
      "hit": false,
      "t": 127094.13783333302,
      "d": 32.05131249999977,
      "v": 34
    },
    {
      "midi": 86,
      "hit": false,
      "t": 127094.13783333302,
      "d": 32.05131249999977,
      "v": 27
    },
    {
      "midi": 91,
      "hit": false,
      "t": 127094.13783333302,
      "d": 32.05131249999977,
      "v": 25
    },
    {
      "midi": 77,
      "hit": false,
      "t": 127147.55668749969,
      "d": 32.05131249999977,
      "v": 41
    },
    {
      "midi": 82,
      "hit": false,
      "t": 127147.55668749969,
      "d": 32.05131249999977,
      "v": 57
    },
    {
      "midi": 86,
      "hit": false,
      "t": 127147.55668749969,
      "d": 32.05131249999977,
      "v": 48
    },
    {
      "midi": 91,
      "hit": false,
      "t": 127147.55668749969,
      "d": 32.05131249999977,
      "v": 50
    },
    {
      "midi": 77,
      "hit": false,
      "t": 127179.60799999969,
      "d": 32.05131249999977,
      "v": 96
    },
    {
      "midi": 82,
      "hit": false,
      "t": 127179.60799999969,
      "d": 32.05131249999977,
      "v": 125
    },
    {
      "midi": 84,
      "hit": false,
      "t": 127179.60799999969,
      "d": 32.05131249999977,
      "v": 103
    },
    {
      "midi": 89,
      "hit": false,
      "t": 127179.60799999969,
      "d": 32.05131249999977,
      "v": 93
    },
    {
      "midi": 77,
      "hit": false,
      "t": 127222.34308333302,
      "d": 32.05131249999977,
      "v": 21
    },
    {
      "midi": 82,
      "hit": false,
      "t": 127222.34308333302,
      "d": 32.05131249999977,
      "v": 29
    },
    {
      "midi": 86,
      "hit": false,
      "t": 127222.34308333302,
      "d": 32.05131249999977,
      "v": 25
    },
    {
      "midi": 91,
      "hit": false,
      "t": 127222.34308333302,
      "d": 32.05131249999977,
      "v": 25
    },
    {
      "midi": 77,
      "hit": false,
      "t": 127275.76193749969,
      "d": 32.05131249999977,
      "v": 50
    },
    {
      "midi": 82,
      "hit": false,
      "t": 127275.76193749969,
      "d": 32.05131249999977,
      "v": 67
    },
    {
      "midi": 84,
      "hit": false,
      "t": 127275.76193749969,
      "d": 32.05131249999977,
      "v": 55
    },
    {
      "midi": 89,
      "hit": false,
      "t": 127275.76193749969,
      "d": 32.05131249999977,
      "v": 50
    },
    {
      "midi": 77,
      "hit": false,
      "t": 127307.81324999969,
      "d": 32.05131249999977,
      "v": 91
    },
    {
      "midi": 82,
      "hit": false,
      "t": 127307.81324999969,
      "d": 32.05131249999977,
      "v": 125
    },
    {
      "midi": 84,
      "hit": false,
      "t": 127307.81324999969,
      "d": 32.05131249999977,
      "v": 100
    },
    {
      "midi": 89,
      "hit": false,
      "t": 127307.81324999969,
      "d": 32.05131249999977,
      "v": 93
    },
    {
      "midi": 77,
      "hit": false,
      "t": 127350.54833333302,
      "d": 32.05131249999977,
      "v": 25
    },
    {
      "midi": 82,
      "hit": false,
      "t": 127350.54833333302,
      "d": 32.05131249999977,
      "v": 34
    },
    {
      "midi": 84,
      "hit": false,
      "t": 127350.54833333302,
      "d": 32.05131249999977,
      "v": 27
    },
    {
      "midi": 89,
      "hit": false,
      "t": 127350.54833333302,
      "d": 32.05131249999977,
      "v": 25
    },
    {
      "midi": 77,
      "hit": false,
      "t": 127403.96718749969,
      "d": 32.05131249999977,
      "v": 48
    },
    {
      "midi": 82,
      "hit": false,
      "t": 127403.96718749969,
      "d": 32.05131249999977,
      "v": 67
    },
    {
      "midi": 84,
      "hit": false,
      "t": 127403.96718749969,
      "d": 32.05131249999977,
      "v": 53
    },
    {
      "midi": 89,
      "hit": false,
      "t": 127403.96718749969,
      "d": 32.05131249999977,
      "v": 50
    },
    {
      "midi": 77,
      "hit": false,
      "t": 127478.75358333302,
      "d": 32.05131249999977,
      "v": 25
    },
    {
      "midi": 82,
      "hit": false,
      "t": 127478.75358333302,
      "d": 32.05131249999977,
      "v": 34
    },
    {
      "midi": 84,
      "hit": false,
      "t": 127478.75358333302,
      "d": 32.05131249999977,
      "v": 27
    },
    {
      "midi": 89,
      "hit": false,
      "t": 127478.75358333302,
      "d": 32.05131249999977,
      "v": 25
    },
    {
      "midi": 77,
      "hit": false,
      "t": 127564.22374999968,
      "d": 32.05131249999977,
      "v": 106
    },
    {
      "midi": 82,
      "hit": false,
      "t": 127564.22374999968,
      "d": 32.05131249999977,
      "v": 127
    },
    {
      "midi": 84,
      "hit": false,
      "t": 127564.22374999968,
      "d": 32.05131249999977,
      "v": 117
    },
    {
      "midi": 89,
      "hit": false,
      "t": 127564.22374999968,
      "d": 32.05131249999977,
      "v": 93
    },
    {
      "midi": 77,
      "hit": false,
      "t": 127660.37768749968,
      "d": 32.05131249999977,
      "v": 56
    },
    {
      "midi": 82,
      "hit": false,
      "t": 127660.37768749968,
      "d": 32.05131249999977,
      "v": 67
    },
    {
      "midi": 84,
      "hit": false,
      "t": 127660.37768749968,
      "d": 32.05131249999977,
      "v": 62
    },
    {
      "midi": 89,
      "hit": false,
      "t": 127660.37768749968,
      "d": 32.05131249999977,
      "v": 50
    },
    {
      "midi": 77,
      "hit": false,
      "t": 127692.42899999968,
      "d": 32.05131249999977,
      "v": 91
    },
    {
      "midi": 82,
      "hit": false,
      "t": 127692.42899999968,
      "d": 32.05131249999977,
      "v": 127
    },
    {
      "midi": 84,
      "hit": false,
      "t": 127692.42899999968,
      "d": 32.05131249999977,
      "v": 111
    },
    {
      "midi": 89,
      "hit": false,
      "t": 127692.42899999968,
      "d": 32.05131249999977,
      "v": 93
    },
    {
      "midi": 77,
      "hit": false,
      "t": 127735.16408333302,
      "d": 32.05131249999977,
      "v": 29
    },
    {
      "midi": 82,
      "hit": false,
      "t": 127735.16408333302,
      "d": 32.05131249999977,
      "v": 34
    },
    {
      "midi": 84,
      "hit": false,
      "t": 127735.16408333302,
      "d": 32.05131249999977,
      "v": 32
    },
    {
      "midi": 89,
      "hit": false,
      "t": 127735.16408333302,
      "d": 32.05131249999977,
      "v": 25
    },
    {
      "midi": 77,
      "hit": false,
      "t": 127788.58293749968,
      "d": 32.05131249999977,
      "v": 48
    },
    {
      "midi": 82,
      "hit": false,
      "t": 127788.58293749968,
      "d": 32.05131249999977,
      "v": 67
    },
    {
      "midi": 84,
      "hit": false,
      "t": 127788.58293749968,
      "d": 32.05131249999977,
      "v": 59
    },
    {
      "midi": 89,
      "hit": false,
      "t": 127788.58293749968,
      "d": 32.05131249999977,
      "v": 50
    },
    {
      "midi": 77,
      "hit": false,
      "t": 127863.36933333302,
      "d": 32.05131249999977,
      "v": 25
    },
    {
      "midi": 82,
      "hit": false,
      "t": 127863.36933333302,
      "d": 32.05131249999977,
      "v": 34
    },
    {
      "midi": 84,
      "hit": false,
      "t": 127863.36933333302,
      "d": 32.05131249999977,
      "v": 29
    },
    {
      "midi": 89,
      "hit": false,
      "t": 127863.36933333302,
      "d": 32.05131249999977,
      "v": 25
    },
    {
      "midi": 77,
      "hit": false,
      "t": 127948.83949999968,
      "d": 32.05131249999977,
      "v": 113
    },
    {
      "midi": 82,
      "hit": false,
      "t": 127948.83949999968,
      "d": 32.05131249999977,
      "v": 127
    },
    {
      "midi": 84,
      "hit": false,
      "t": 127948.83949999968,
      "d": 32.05131249999977,
      "v": 123
    },
    {
      "midi": 89,
      "hit": false,
      "t": 127948.83949999968,
      "d": 32.05131249999977,
      "v": 93
    },
    {
      "midi": 77,
      "hit": false,
      "t": 128044.99343749968,
      "d": 32.05131249999977,
      "v": 60
    },
    {
      "midi": 82,
      "hit": false,
      "t": 128044.99343749968,
      "d": 32.05131249999977,
      "v": 67
    },
    {
      "midi": 84,
      "hit": false,
      "t": 128044.99343749968,
      "d": 32.05131249999977,
      "v": 65
    },
    {
      "midi": 89,
      "hit": false,
      "t": 128044.99343749968,
      "d": 32.05131249999977,
      "v": 50
    },
    {
      "midi": 77,
      "hit": false,
      "t": 128077.04474999968,
      "d": 32.05131249999977,
      "v": 89
    },
    {
      "midi": 82,
      "hit": false,
      "t": 128077.04474999968,
      "d": 32.05131249999977,
      "v": 127
    },
    {
      "midi": 84,
      "hit": false,
      "t": 128077.04474999968,
      "d": 32.05131249999977,
      "v": 117
    },
    {
      "midi": 89,
      "hit": false,
      "t": 128077.04474999968,
      "d": 32.05131249999977,
      "v": 93
    },
    {
      "midi": 77,
      "hit": false,
      "t": 128119.77983333301,
      "d": 32.05131249999977,
      "v": 31
    },
    {
      "midi": 82,
      "hit": false,
      "t": 128119.77983333301,
      "d": 32.05131249999977,
      "v": 34
    },
    {
      "midi": 84,
      "hit": false,
      "t": 128119.77983333301,
      "d": 32.05131249999977,
      "v": 33
    },
    {
      "midi": 89,
      "hit": false,
      "t": 128119.77983333301,
      "d": 32.05131249999977,
      "v": 25
    },
    {
      "midi": 77,
      "hit": false,
      "t": 128173.19868749968,
      "d": 32.05131249999977,
      "v": 48
    },
    {
      "midi": 82,
      "hit": false,
      "t": 128173.19868749968,
      "d": 32.05131249999977,
      "v": 67
    },
    {
      "midi": 84,
      "hit": false,
      "t": 128173.19868749968,
      "d": 32.05131249999977,
      "v": 62
    },
    {
      "midi": 89,
      "hit": false,
      "t": 128173.19868749968,
      "d": 32.05131249999977,
      "v": 50
    },
    {
      "midi": 77,
      "hit": false,
      "t": 128247.98508333301,
      "d": 32.05131249999977,
      "v": 25
    },
    {
      "midi": 82,
      "hit": false,
      "t": 128247.98508333301,
      "d": 32.05131249999977,
      "v": 34
    },
    {
      "midi": 84,
      "hit": false,
      "t": 128247.98508333301,
      "d": 32.05131249999977,
      "v": 32
    },
    {
      "midi": 89,
      "hit": false,
      "t": 128247.98508333301,
      "d": 32.05131249999977,
      "v": 25
    },
    {
      "midi": 77,
      "hit": false,
      "t": 128333.45524999968,
      "d": 32.05131249999977,
      "v": 108
    },
    {
      "midi": 82,
      "hit": false,
      "t": 128333.45524999968,
      "d": 32.05131249999977,
      "v": 127
    },
    {
      "midi": 84,
      "hit": false,
      "t": 128333.45524999968,
      "d": 32.05131249999977,
      "v": 113
    },
    {
      "midi": 89,
      "hit": false,
      "t": 128333.45524999968,
      "d": 32.05131249999977,
      "v": 93
    },
    {
      "midi": 77,
      "hit": false,
      "t": 128429.60918749968,
      "d": 32.05131249999977,
      "v": 57
    },
    {
      "midi": 82,
      "hit": false,
      "t": 128429.60918749968,
      "d": 32.05131249999977,
      "v": 67
    },
    {
      "midi": 84,
      "hit": false,
      "t": 128429.60918749968,
      "d": 32.05131249999977,
      "v": 60
    },
    {
      "midi": 89,
      "hit": false,
      "t": 128429.60918749968,
      "d": 32.05131249999977,
      "v": 50
    },
    {
      "midi": 77,
      "hit": false,
      "t": 128504.39558333301,
      "d": 32.05131249999977,
      "v": 29
    },
    {
      "midi": 82,
      "hit": false,
      "t": 128504.39558333301,
      "d": 32.05131249999977,
      "v": 34
    },
    {
      "midi": 84,
      "hit": false,
      "t": 128504.39558333301,
      "d": 32.05131249999977,
      "v": 31
    },
    {
      "midi": 89,
      "hit": false,
      "t": 128504.39558333301,
      "d": 32.05131249999977,
      "v": 25
    },
    {
      "midi": 77,
      "hit": false,
      "t": 128589.86574999968,
      "d": 32.05131249999977,
      "v": 93
    },
    {
      "midi": 82,
      "hit": false,
      "t": 128589.86574999968,
      "d": 32.05131249999977,
      "v": 111
    },
    {
      "midi": 84,
      "hit": false,
      "t": 128589.86574999968,
      "d": 32.05131249999977,
      "v": 83
    },
    {
      "midi": 89,
      "hit": false,
      "t": 128589.86574999968,
      "d": 32.05131249999977,
      "v": 93
    },
    {
      "midi": 77,
      "hit": false,
      "t": 128686.01968749968,
      "d": 32.05131249999977,
      "v": 50
    },
    {
      "midi": 82,
      "hit": false,
      "t": 128686.01968749968,
      "d": 32.05131249999977,
      "v": 59
    },
    {
      "midi": 84,
      "hit": false,
      "t": 128686.01968749968,
      "d": 32.05131249999977,
      "v": 44
    },
    {
      "midi": 89,
      "hit": false,
      "t": 128686.01968749968,
      "d": 32.05131249999977,
      "v": 50
    },
    {
      "midi": 77,
      "hit": false,
      "t": 128718.07099999968,
      "d": 32.05131249999977,
      "v": 98
    },
    {
      "midi": 82,
      "hit": false,
      "t": 128718.07099999968,
      "d": 32.05131249999977,
      "v": 127
    },
    {
      "midi": 84,
      "hit": false,
      "t": 128718.07099999968,
      "d": 32.05131249999977,
      "v": 103
    },
    {
      "midi": 89,
      "hit": false,
      "t": 128718.07099999968,
      "d": 32.05131249999977,
      "v": 93
    },
    {
      "midi": 77,
      "hit": false,
      "t": 128760.80608333301,
      "d": 32.05131249999977,
      "v": 25
    },
    {
      "midi": 82,
      "hit": false,
      "t": 128760.80608333301,
      "d": 32.05131249999977,
      "v": 29
    },
    {
      "midi": 84,
      "hit": false,
      "t": 128760.80608333301,
      "d": 32.05131249999977,
      "v": 22
    },
    {
      "midi": 89,
      "hit": false,
      "t": 128760.80608333301,
      "d": 32.05131249999977,
      "v": 25
    },
    {
      "midi": 77,
      "hit": false,
      "t": 128814.22493749968,
      "d": 32.05131249999977,
      "v": 52
    },
    {
      "midi": 82,
      "hit": false,
      "t": 128814.22493749968,
      "d": 32.05131249999977,
      "v": 67
    },
    {
      "midi": 84,
      "hit": false,
      "t": 128814.22493749968,
      "d": 32.05131249999977,
      "v": 55
    },
    {
      "midi": 89,
      "hit": false,
      "t": 128814.22493749968,
      "d": 32.05131249999977,
      "v": 50
    },
    {
      "midi": 77,
      "hit": false,
      "t": 128889.01133333301,
      "d": 32.05131249999977,
      "v": 27
    },
    {
      "midi": 82,
      "hit": false,
      "t": 128889.01133333301,
      "d": 32.05131249999977,
      "v": 34
    },
    {
      "midi": 84,
      "hit": false,
      "t": 128889.01133333301,
      "d": 32.05131249999977,
      "v": 27
    },
    {
      "midi": 89,
      "hit": false,
      "t": 128889.01133333301,
      "d": 32.05131249999977,
      "v": 25
    },
    {
      "midi": 77,
      "hit": false,
      "t": 128974.48149999967,
      "d": 32.05131249999977,
      "v": 93
    },
    {
      "midi": 82,
      "hit": false,
      "t": 128974.48149999967,
      "d": 32.05131249999977,
      "v": 127
    },
    {
      "midi": 84,
      "hit": false,
      "t": 128974.48149999967,
      "d": 32.05131249999977,
      "v": 113
    },
    {
      "midi": 89,
      "hit": false,
      "t": 128974.48149999967,
      "d": 32.05131249999977,
      "v": 93
    },
    {
      "midi": 77,
      "hit": false,
      "t": 129070.63543749967,
      "d": 32.05131249999977,
      "v": 50
    },
    {
      "midi": 82,
      "hit": false,
      "t": 129070.63543749967,
      "d": 32.05131249999977,
      "v": 67
    },
    {
      "midi": 84,
      "hit": false,
      "t": 129070.63543749967,
      "d": 32.05131249999977,
      "v": 60
    },
    {
      "midi": 89,
      "hit": false,
      "t": 129070.63543749967,
      "d": 32.05131249999977,
      "v": 50
    },
    {
      "midi": 77,
      "hit": false,
      "t": 129102.68674999967,
      "d": 32.05131249999977,
      "v": 82
    },
    {
      "midi": 82,
      "hit": false,
      "t": 129102.68674999967,
      "d": 32.05131249999977,
      "v": 125
    },
    {
      "midi": 84,
      "hit": false,
      "t": 129102.68674999967,
      "d": 32.05131249999977,
      "v": 106
    },
    {
      "midi": 89,
      "hit": false,
      "t": 129102.68674999967,
      "d": 32.05131249999977,
      "v": 93
    },
    {
      "midi": 77,
      "hit": false,
      "t": 129145.421833333,
      "d": 32.05131249999977,
      "v": 25
    },
    {
      "midi": 82,
      "hit": false,
      "t": 129145.421833333,
      "d": 32.05131249999977,
      "v": 34
    },
    {
      "midi": 84,
      "hit": false,
      "t": 129145.421833333,
      "d": 32.05131249999977,
      "v": 31
    },
    {
      "midi": 89,
      "hit": false,
      "t": 129145.421833333,
      "d": 32.05131249999977,
      "v": 25
    },
    {
      "midi": 77,
      "hit": false,
      "t": 129198.84068749967,
      "d": 32.05131249999977,
      "v": 43
    },
    {
      "midi": 82,
      "hit": false,
      "t": 129198.84068749967,
      "d": 32.05131249999977,
      "v": 67
    },
    {
      "midi": 84,
      "hit": false,
      "t": 129198.84068749967,
      "d": 32.05131249999977,
      "v": 56
    },
    {
      "midi": 89,
      "hit": false,
      "t": 129198.84068749967,
      "d": 32.05131249999977,
      "v": 50
    },
    {
      "midi": 77,
      "hit": false,
      "t": 129230.89199999967,
      "d": 32.05131249999977,
      "v": 100
    },
    {
      "midi": 81,
      "hit": false,
      "t": 129230.89199999967,
      "d": 32.05131249999977,
      "v": 96
    },
    {
      "midi": 86,
      "hit": false,
      "t": 129230.89199999967,
      "d": 32.05131249999977,
      "v": 100
    },
    {
      "midi": 77,
      "hit": false,
      "t": 129273.627083333,
      "d": 32.05131249999977,
      "v": 22
    },
    {
      "midi": 82,
      "hit": false,
      "t": 129273.627083333,
      "d": 32.05131249999977,
      "v": 34
    },
    {
      "midi": 84,
      "hit": false,
      "t": 129273.627083333,
      "d": 32.05131249999977,
      "v": 29
    },
    {
      "midi": 89,
      "hit": false,
      "t": 129273.627083333,
      "d": 32.05131249999977,
      "v": 25
    },
    {
      "midi": 77,
      "hit": false,
      "t": 129327.04593749967,
      "d": 32.05131249999977,
      "v": 53
    },
    {
      "midi": 81,
      "hit": false,
      "t": 129327.04593749967,
      "d": 32.05131249999977,
      "v": 50
    },
    {
      "midi": 86,
      "hit": false,
      "t": 129327.04593749967,
      "d": 32.05131249999977,
      "v": 53
    },
    {
      "midi": 77,
      "hit": false,
      "t": 129359.09724999967,
      "d": 32.05131249999977,
      "v": 71
    },
    {
      "midi": 81,
      "hit": false,
      "t": 129359.09724999967,
      "d": 32.05131249999977,
      "v": 108
    },
    {
      "midi": 86,
      "hit": false,
      "t": 129359.09724999967,
      "d": 32.05131249999977,
      "v": 93
    },
    {
      "midi": 77,
      "hit": false,
      "t": 129401.832333333,
      "d": 32.05131249999977,
      "v": 27
    },
    {
      "midi": 81,
      "hit": false,
      "t": 129401.832333333,
      "d": 32.05131249999977,
      "v": 25
    },
    {
      "midi": 86,
      "hit": false,
      "t": 129401.832333333,
      "d": 32.05131249999977,
      "v": 27
    },
    {
      "midi": 77,
      "hit": false,
      "t": 129455.25118749967,
      "d": 32.05131249999977,
      "v": 38
    },
    {
      "midi": 81,
      "hit": false,
      "t": 129455.25118749967,
      "d": 32.05131249999977,
      "v": 57
    },
    {
      "midi": 86,
      "hit": false,
      "t": 129455.25118749967,
      "d": 32.05131249999977,
      "v": 50
    },
    {
      "midi": 77,
      "hit": false,
      "t": 129530.037583333,
      "d": 32.05131249999977,
      "v": 19
    },
    {
      "midi": 81,
      "hit": false,
      "t": 129530.037583333,
      "d": 32.05131249999977,
      "v": 29
    },
    {
      "midi": 86,
      "hit": false,
      "t": 129530.037583333,
      "d": 32.05131249999977,
      "v": 25
    },
    {
      "midi": 77,
      "hit": false,
      "t": 129615.50774999967,
      "d": 32.05131249999977,
      "v": 93
    },
    {
      "midi": 81,
      "hit": false,
      "t": 129615.50774999967,
      "d": 32.05131249999977,
      "v": 123
    },
    {
      "midi": 86,
      "hit": false,
      "t": 129615.50774999967,
      "d": 32.05131249999977,
      "v": 78
    },
    {
      "midi": 77,
      "hit": false,
      "t": 129711.66168749967,
      "d": 32.05131249999977,
      "v": 50
    },
    {
      "midi": 81,
      "hit": false,
      "t": 129711.66168749967,
      "d": 32.05131249999977,
      "v": 65
    },
    {
      "midi": 86,
      "hit": false,
      "t": 129711.66168749967,
      "d": 32.05131249999977,
      "v": 41
    },
    {
      "midi": 77,
      "hit": false,
      "t": 129743.71299999967,
      "d": 32.05131249999977,
      "v": 111
    },
    {
      "midi": 81,
      "hit": false,
      "t": 129743.71299999967,
      "d": 32.05131249999977,
      "v": 127
    },
    {
      "midi": 86,
      "hit": false,
      "t": 129743.71299999967,
      "d": 32.05131249999977,
      "v": 106
    },
    {
      "midi": 77,
      "hit": false,
      "t": 129786.448083333,
      "d": 32.05131249999977,
      "v": 25
    },
    {
      "midi": 81,
      "hit": false,
      "t": 129786.448083333,
      "d": 32.05131249999977,
      "v": 33
    },
    {
      "midi": 86,
      "hit": false,
      "t": 129786.448083333,
      "d": 32.05131249999977,
      "v": 21
    },
    {
      "midi": 77,
      "hit": false,
      "t": 129839.86693749967,
      "d": 32.05131249999977,
      "v": 59
    },
    {
      "midi": 81,
      "hit": false,
      "t": 129839.86693749967,
      "d": 32.05131249999977,
      "v": 67
    },
    {
      "midi": 86,
      "hit": false,
      "t": 129839.86693749967,
      "d": 32.05131249999977,
      "v": 56
    },
    {
      "midi": 77,
      "hit": false,
      "t": 129914.653333333,
      "d": 32.05131249999977,
      "v": 29
    },
    {
      "midi": 81,
      "hit": false,
      "t": 129914.653333333,
      "d": 32.05131249999977,
      "v": 34
    },
    {
      "midi": 86,
      "hit": false,
      "t": 129914.653333333,
      "d": 32.05131249999977,
      "v": 29
    },
    {
      "midi": 77,
      "hit": false,
      "t": 130000.12349999967,
      "d": 32.05131249999977,
      "v": 117
    },
    {
      "midi": 81,
      "hit": false,
      "t": 130000.12349999967,
      "d": 32.05131249999977,
      "v": 127
    },
    {
      "midi": 86,
      "hit": false,
      "t": 130000.12349999967,
      "d": 32.05131249999977,
      "v": 93
    },
    {
      "midi": 77,
      "hit": false,
      "t": 130096.27743749967,
      "d": 32.05131249999977,
      "v": 62
    },
    {
      "midi": 81,
      "hit": false,
      "t": 130096.27743749967,
      "d": 32.05131249999977,
      "v": 67
    },
    {
      "midi": 86,
      "hit": false,
      "t": 130096.27743749967,
      "d": 32.05131249999977,
      "v": 50
    },
    {
      "midi": 77,
      "hit": false,
      "t": 130128.32874999967,
      "d": 32.05131249999977,
      "v": 108
    },
    {
      "midi": 81,
      "hit": false,
      "t": 130128.32874999967,
      "d": 32.05131249999977,
      "v": 127
    },
    {
      "midi": 86,
      "hit": false,
      "t": 130128.32874999967,
      "d": 32.05131249999977,
      "v": 100
    },
    {
      "midi": 77,
      "hit": false,
      "t": 130171.063833333,
      "d": 32.05131249999977,
      "v": 32
    },
    {
      "midi": 81,
      "hit": false,
      "t": 130171.063833333,
      "d": 32.05131249999977,
      "v": 34
    },
    {
      "midi": 86,
      "hit": false,
      "t": 130171.063833333,
      "d": 32.05131249999977,
      "v": 25
    },
    {
      "midi": 77,
      "hit": false,
      "t": 130224.48268749967,
      "d": 32.05131249999977,
      "v": 57
    },
    {
      "midi": 81,
      "hit": false,
      "t": 130224.48268749967,
      "d": 32.05131249999977,
      "v": 67
    },
    {
      "midi": 86,
      "hit": false,
      "t": 130224.48268749967,
      "d": 32.05131249999977,
      "v": 53
    },
    {
      "midi": 77,
      "hit": false,
      "t": 130299.269083333,
      "d": 32.05131249999977,
      "v": 29
    },
    {
      "midi": 81,
      "hit": false,
      "t": 130299.269083333,
      "d": 32.05131249999977,
      "v": 34
    },
    {
      "midi": 86,
      "hit": false,
      "t": 130299.269083333,
      "d": 32.05131249999977,
      "v": 27
    },
    {
      "midi": 77,
      "hit": false,
      "t": 130384.73924999966,
      "d": 32.05131249999977,
      "v": 120
    },
    {
      "midi": 81,
      "hit": false,
      "t": 130384.73924999966,
      "d": 32.05131249999977,
      "v": 127
    },
    {
      "midi": 86,
      "hit": false,
      "t": 130384.73924999966,
      "d": 32.05131249999977,
      "v": 100
    },
    {
      "midi": 77,
      "hit": false,
      "t": 130480.89318749966,
      "d": 32.05131249999977,
      "v": 63
    },
    {
      "midi": 81,
      "hit": false,
      "t": 130480.89318749966,
      "d": 32.05131249999977,
      "v": 67
    },
    {
      "midi": 86,
      "hit": false,
      "t": 130480.89318749966,
      "d": 32.05131249999977,
      "v": 53
    },
    {
      "midi": 77,
      "hit": false,
      "t": 130555.679583333,
      "d": 32.05131249999977,
      "v": 32
    },
    {
      "midi": 81,
      "hit": false,
      "t": 130555.679583333,
      "d": 32.05131249999977,
      "v": 34
    },
    {
      "midi": 86,
      "hit": false,
      "t": 130555.679583333,
      "d": 32.05131249999977,
      "v": 27
    },
    {
      "midi": 77,
      "hit": false,
      "t": 130641.14974999966,
      "d": 32.05131249999977,
      "v": 98
    },
    {
      "midi": 81,
      "hit": false,
      "t": 130641.14974999966,
      "d": 32.05131249999977,
      "v": 127
    },
    {
      "midi": 86,
      "hit": false,
      "t": 130641.14974999966,
      "d": 32.05131249999977,
      "v": 89
    },
    {
      "midi": 77,
      "hit": false,
      "t": 130737.30368749966,
      "d": 32.05131249999977,
      "v": 52
    },
    {
      "midi": 81,
      "hit": false,
      "t": 130737.30368749966,
      "d": 32.05131249999977,
      "v": 67
    },
    {
      "midi": 86,
      "hit": false,
      "t": 130737.30368749966,
      "d": 32.05131249999977,
      "v": 48
    },
    {
      "midi": 77,
      "hit": false,
      "t": 130769.35499999966,
      "d": 32.05131249999977,
      "v": 113
    },
    {
      "midi": 81,
      "hit": false,
      "t": 130769.35499999966,
      "d": 32.05131249999977,
      "v": 127
    },
    {
      "midi": 86,
      "hit": false,
      "t": 130769.35499999966,
      "d": 32.05131249999977,
      "v": 100
    },
    {
      "midi": 77,
      "hit": false,
      "t": 130812.090083333,
      "d": 32.05131249999977,
      "v": 27
    },
    {
      "midi": 81,
      "hit": false,
      "t": 130812.090083333,
      "d": 32.05131249999977,
      "v": 34
    },
    {
      "midi": 86,
      "hit": false,
      "t": 130812.090083333,
      "d": 32.05131249999977,
      "v": 25
    },
    {
      "midi": 77,
      "hit": false,
      "t": 130865.50893749966,
      "d": 32.05131249999977,
      "v": 60
    },
    {
      "midi": 81,
      "hit": false,
      "t": 130865.50893749966,
      "d": 32.05131249999977,
      "v": 67
    },
    {
      "midi": 86,
      "hit": false,
      "t": 130865.50893749966,
      "d": 32.05131249999977,
      "v": 53
    },
    {
      "midi": 77,
      "hit": false,
      "t": 130897.56024999966,
      "d": 32.05131249999977,
      "v": 106
    },
    {
      "midi": 81,
      "hit": false,
      "t": 130897.56024999966,
      "d": 32.05131249999977,
      "v": 126
    },
    {
      "midi": 86,
      "hit": false,
      "t": 130897.56024999966,
      "d": 32.05131249999977,
      "v": 98
    },
    {
      "midi": 77,
      "hit": false,
      "t": 130940.295333333,
      "d": 32.05131249999977,
      "v": 31
    },
    {
      "midi": 81,
      "hit": false,
      "t": 130940.295333333,
      "d": 32.05131249999977,
      "v": 34
    },
    {
      "midi": 86,
      "hit": false,
      "t": 130940.295333333,
      "d": 32.05131249999977,
      "v": 27
    },
    {
      "midi": 77,
      "hit": false,
      "t": 130993.71418749966,
      "d": 32.05131249999977,
      "v": 56
    },
    {
      "midi": 81,
      "hit": false,
      "t": 130993.71418749966,
      "d": 32.05131249999977,
      "v": 67
    },
    {
      "midi": 86,
      "hit": false,
      "t": 130993.71418749966,
      "d": 32.05131249999977,
      "v": 52
    },
    {
      "midi": 77,
      "hit": false,
      "t": 131068.50058333299,
      "d": 32.05131249999977,
      "v": 29
    },
    {
      "midi": 81,
      "hit": false,
      "t": 131068.50058333299,
      "d": 32.05131249999977,
      "v": 34
    },
    {
      "midi": 86,
      "hit": false,
      "t": 131068.50058333299,
      "d": 32.05131249999977,
      "v": 27
    },
    {
      "midi": 77,
      "hit": false,
      "t": 131153.97074999966,
      "d": 32.05131249999977,
      "v": 113
    },
    {
      "midi": 79,
      "hit": false,
      "t": 131153.97074999966,
      "d": 32.05131249999977,
      "v": 127
    },
    {
      "midi": 86,
      "hit": false,
      "t": 131153.97074999966,
      "d": 32.05131249999977,
      "v": 86
    },
    {
      "midi": 77,
      "hit": false,
      "t": 131250.12468749966,
      "d": 32.05131249999977,
      "v": 60
    },
    {
      "midi": 79,
      "hit": false,
      "t": 131250.12468749966,
      "d": 32.05131249999977,
      "v": 67
    },
    {
      "midi": 86,
      "hit": false,
      "t": 131250.12468749966,
      "d": 32.05131249999977,
      "v": 46
    },
    {
      "midi": 77,
      "hit": false,
      "t": 131282.17599999966,
      "d": 32.05131249999977,
      "v": 127
    },
    {
      "midi": 79,
      "hit": false,
      "t": 131282.17599999966,
      "d": 32.05131249999977,
      "v": 127
    },
    {
      "midi": 86,
      "hit": false,
      "t": 131282.17599999966,
      "d": 32.05131249999977,
      "v": 120
    },
    {
      "midi": 77,
      "hit": false,
      "t": 131324.911083333,
      "d": 32.05131249999977,
      "v": 31
    },
    {
      "midi": 79,
      "hit": false,
      "t": 131324.911083333,
      "d": 32.05131249999977,
      "v": 34
    },
    {
      "midi": 86,
      "hit": false,
      "t": 131324.911083333,
      "d": 32.05131249999977,
      "v": 23
    },
    {
      "midi": 77,
      "hit": false,
      "t": 131378.32993749966,
      "d": 32.05131249999977,
      "v": 67
    },
    {
      "midi": 79,
      "hit": false,
      "t": 131378.32993749966,
      "d": 32.05131249999977,
      "v": 67
    },
    {
      "midi": 86,
      "hit": false,
      "t": 131378.32993749966,
      "d": 32.05131249999977,
      "v": 63
    },
    {
      "midi": 77,
      "hit": false,
      "t": 131453.116333333,
      "d": 32.05131249999977,
      "v": 34
    },
    {
      "midi": 79,
      "hit": false,
      "t": 131453.116333333,
      "d": 32.05131249999977,
      "v": 34
    },
    {
      "midi": 86,
      "hit": false,
      "t": 131453.116333333,
      "d": 32.05131249999977,
      "v": 32
    },
    {
      "midi": 77,
      "hit": false,
      "t": 131538.58649999966,
      "d": 32.05131249999977,
      "v": 117
    },
    {
      "midi": 79,
      "hit": false,
      "t": 131538.58649999966,
      "d": 32.05131249999977,
      "v": 127
    },
    {
      "midi": 86,
      "hit": false,
      "t": 131538.58649999966,
      "d": 32.05131249999977,
      "v": 108
    },
    {
      "midi": 77,
      "hit": false,
      "t": 131634.74043749965,
      "d": 32.05131249999977,
      "v": 62
    },
    {
      "midi": 79,
      "hit": false,
      "t": 131634.74043749965,
      "d": 32.05131249999977,
      "v": 67
    },
    {
      "midi": 86,
      "hit": false,
      "t": 131634.74043749965,
      "d": 32.05131249999977,
      "v": 57
    },
    {
      "midi": 77,
      "hit": false,
      "t": 131709.526833333,
      "d": 32.05131249999977,
      "v": 32
    },
    {
      "midi": 79,
      "hit": false,
      "t": 131709.526833333,
      "d": 32.05131249999977,
      "v": 34
    },
    {
      "midi": 86,
      "hit": false,
      "t": 131709.526833333,
      "d": 32.05131249999977,
      "v": 29
    },
    {
      "midi": 77,
      "hit": false,
      "t": 131794.99699999965,
      "d": 32.05131249999977,
      "v": 127
    },
    {
      "midi": 79,
      "hit": false,
      "t": 131794.99699999965,
      "d": 32.05131249999977,
      "v": 120
    },
    {
      "midi": 86,
      "hit": false,
      "t": 131794.99699999965,
      "d": 32.05131249999977,
      "v": 113
    },
    {
      "midi": 77,
      "hit": false,
      "t": 131891.15093749965,
      "d": 32.05131249999977,
      "v": 67
    },
    {
      "midi": 79,
      "hit": false,
      "t": 131891.15093749965,
      "d": 32.05131249999977,
      "v": 63
    },
    {
      "midi": 86,
      "hit": false,
      "t": 131891.15093749965,
      "d": 32.05131249999977,
      "v": 60
    },
    {
      "midi": 77,
      "hit": false,
      "t": 131923.20224999965,
      "d": 32.05131249999977,
      "v": 117
    },
    {
      "midi": 79,
      "hit": false,
      "t": 131923.20224999965,
      "d": 32.05131249999977,
      "v": 127
    },
    {
      "midi": 86,
      "hit": false,
      "t": 131923.20224999965,
      "d": 32.05131249999977,
      "v": 83
    },
    {
      "midi": 77,
      "hit": false,
      "t": 131965.937333333,
      "d": 32.05131249999977,
      "v": 34
    },
    {
      "midi": 79,
      "hit": false,
      "t": 131965.937333333,
      "d": 32.05131249999977,
      "v": 32
    },
    {
      "midi": 86,
      "hit": false,
      "t": 131965.937333333,
      "d": 32.05131249999977,
      "v": 31
    },
    {
      "midi": 77,
      "hit": false,
      "t": 132019.35618749965,
      "d": 32.05131249999977,
      "v": 62
    },
    {
      "midi": 79,
      "hit": false,
      "t": 132019.35618749965,
      "d": 32.05131249999977,
      "v": 67
    },
    {
      "midi": 86,
      "hit": false,
      "t": 132019.35618749965,
      "d": 32.05131249999977,
      "v": 44
    },
    {
      "midi": 77,
      "hit": false,
      "t": 132051.40749999965,
      "d": 32.05131249999977,
      "v": 113
    },
    {
      "midi": 79,
      "hit": false,
      "t": 132051.40749999965,
      "d": 32.05131249999977,
      "v": 120
    },
    {
      "midi": 86,
      "hit": false,
      "t": 132051.40749999965,
      "d": 32.05131249999977,
      "v": 113
    },
    {
      "midi": 77,
      "hit": false,
      "t": 132094.14258333298,
      "d": 32.05131249999977,
      "v": 32
    },
    {
      "midi": 79,
      "hit": false,
      "t": 132094.14258333298,
      "d": 32.05131249999977,
      "v": 34
    },
    {
      "midi": 86,
      "hit": false,
      "t": 132094.14258333298,
      "d": 32.05131249999977,
      "v": 22
    },
    {
      "midi": 77,
      "hit": false,
      "t": 132147.56143749965,
      "d": 32.05131249999977,
      "v": 60
    },
    {
      "midi": 79,
      "hit": false,
      "t": 132147.56143749965,
      "d": 32.05131249999977,
      "v": 63
    },
    {
      "midi": 86,
      "hit": false,
      "t": 132147.56143749965,
      "d": 32.05131249999977,
      "v": 60
    },
    {
      "midi": 77,
      "hit": false,
      "t": 132222.34783333298,
      "d": 32.05131249999977,
      "v": 31
    },
    {
      "midi": 79,
      "hit": false,
      "t": 132222.34783333298,
      "d": 32.05131249999977,
      "v": 32
    },
    {
      "midi": 86,
      "hit": false,
      "t": 132222.34783333298,
      "d": 32.05131249999977,
      "v": 31
    },
    {
      "midi": 77,
      "hit": false,
      "t": 132307.81799999965,
      "d": 32.05131249999977,
      "v": 126
    },
    {
      "midi": 79,
      "hit": false,
      "t": 132307.81799999965,
      "d": 32.05131249999977,
      "v": 127
    },
    {
      "midi": 86,
      "hit": false,
      "t": 132307.81799999965,
      "d": 32.05131249999977,
      "v": 127
    },
    {
      "midi": 77,
      "hit": false,
      "t": 132403.97193749965,
      "d": 32.05131249999977,
      "v": 67
    },
    {
      "midi": 79,
      "hit": false,
      "t": 132403.97193749965,
      "d": 32.05131249999977,
      "v": 67
    },
    {
      "midi": 86,
      "hit": false,
      "t": 132403.97193749965,
      "d": 32.05131249999977,
      "v": 67
    },
    {
      "midi": 77,
      "hit": false,
      "t": 132436.02324999965,
      "d": 32.05131249999977,
      "v": 127
    },
    {
      "midi": 79,
      "hit": false,
      "t": 132436.02324999965,
      "d": 32.05131249999977,
      "v": 127
    },
    {
      "midi": 86,
      "hit": false,
      "t": 132436.02324999965,
      "d": 32.05131249999977,
      "v": 127
    },
    {
      "midi": 77,
      "hit": false,
      "t": 132478.75833333298,
      "d": 32.05131249999977,
      "v": 34
    },
    {
      "midi": 79,
      "hit": false,
      "t": 132478.75833333298,
      "d": 32.05131249999977,
      "v": 34
    },
    {
      "midi": 86,
      "hit": false,
      "t": 132478.75833333298,
      "d": 32.05131249999977,
      "v": 34
    },
    {
      "midi": 77,
      "hit": false,
      "t": 132532.17718749965,
      "d": 32.05131249999977,
      "v": 67
    },
    {
      "midi": 79,
      "hit": false,
      "t": 132532.17718749965,
      "d": 32.05131249999977,
      "v": 67
    },
    {
      "midi": 86,
      "hit": false,
      "t": 132532.17718749965,
      "d": 32.05131249999977,
      "v": 67
    },
    {
      "midi": 77,
      "hit": false,
      "t": 132564.22849999965,
      "d": 32.05131249999977,
      "v": 103
    },
    {
      "midi": 79,
      "hit": false,
      "t": 132564.22849999965,
      "d": 32.05131249999977,
      "v": 113
    },
    {
      "midi": 86,
      "hit": false,
      "t": 132564.22849999965,
      "d": 32.05131249999977,
      "v": 120
    },
    {
      "midi": 77,
      "hit": false,
      "t": 132606.96358333298,
      "d": 32.05131249999977,
      "v": 34
    },
    {
      "midi": 79,
      "hit": false,
      "t": 132606.96358333298,
      "d": 32.05131249999977,
      "v": 34
    },
    {
      "midi": 86,
      "hit": false,
      "t": 132606.96358333298,
      "d": 32.05131249999977,
      "v": 34
    },
    {
      "midi": 77,
      "hit": false,
      "t": 132660.38243749965,
      "d": 32.05131249999977,
      "v": 55
    },
    {
      "midi": 79,
      "hit": false,
      "t": 132660.38243749965,
      "d": 32.05131249999977,
      "v": 60
    },
    {
      "midi": 86,
      "hit": false,
      "t": 132660.38243749965,
      "d": 32.05131249999977,
      "v": 63
    },
    {
      "midi": 77,
      "hit": false,
      "t": 132692.43374999965,
      "d": 32.05131249999977,
      "v": 126
    },
    {
      "midi": 79,
      "hit": false,
      "t": 132692.43374999965,
      "d": 32.05131249999977,
      "v": 127
    },
    {
      "midi": 86,
      "hit": false,
      "t": 132692.43374999965,
      "d": 32.05131249999977,
      "v": 93
    },
    {
      "midi": 77,
      "hit": false,
      "t": 132735.16883333298,
      "d": 32.05131249999977,
      "v": 27
    },
    {
      "midi": 79,
      "hit": false,
      "t": 132735.16883333298,
      "d": 32.05131249999977,
      "v": 31
    },
    {
      "midi": 86,
      "hit": false,
      "t": 132735.16883333298,
      "d": 32.05131249999977,
      "v": 32
    },
    {
      "midi": 77,
      "hit": false,
      "t": 132788.58768749965,
      "d": 32.05131249999977,
      "v": 67
    },
    {
      "midi": 79,
      "hit": false,
      "t": 132788.58768749965,
      "d": 32.05131249999977,
      "v": 67
    },
    {
      "midi": 86,
      "hit": false,
      "t": 132788.58768749965,
      "d": 32.05131249999977,
      "v": 50
    },
    {
      "midi": 77,
      "hit": false,
      "t": 132820.63899999965,
      "d": 32.05131249999977,
      "v": 127
    },
    {
      "midi": 79,
      "hit": false,
      "t": 132820.63899999965,
      "d": 32.05131249999977,
      "v": 127
    },
    {
      "midi": 86,
      "hit": false,
      "t": 132820.63899999965,
      "d": 32.05131249999977,
      "v": 127
    },
    {
      "midi": 77,
      "hit": false,
      "t": 132863.37408333298,
      "d": 32.05131249999977,
      "v": 34
    },
    {
      "midi": 79,
      "hit": false,
      "t": 132863.37408333298,
      "d": 32.05131249999977,
      "v": 34
    },
    {
      "midi": 86,
      "hit": false,
      "t": 132863.37408333298,
      "d": 32.05131249999977,
      "v": 25
    },
    {
      "midi": 77,
      "hit": false,
      "t": 132916.79293749965,
      "d": 32.05131249999977,
      "v": 67
    },
    {
      "midi": 79,
      "hit": false,
      "t": 132916.79293749965,
      "d": 32.05131249999977,
      "v": 67
    },
    {
      "midi": 86,
      "hit": false,
      "t": 132916.79293749965,
      "d": 32.05131249999977,
      "v": 67
    },
    {
      "midi": 77,
      "hit": false,
      "t": 132948.84424999965,
      "d": 32.05131249999977,
      "v": 127
    },
    {
      "midi": 79,
      "hit": false,
      "t": 132948.84424999965,
      "d": 32.05131249999977,
      "v": 127
    },
    {
      "midi": 86,
      "hit": false,
      "t": 132948.84424999965,
      "d": 32.05131249999977,
      "v": 127
    },
    {
      "midi": 77,
      "hit": false,
      "t": 132991.57933333298,
      "d": 32.05131249999977,
      "v": 34
    },
    {
      "midi": 79,
      "hit": false,
      "t": 132991.57933333298,
      "d": 32.05131249999977,
      "v": 34
    },
    {
      "midi": 86,
      "hit": false,
      "t": 132991.57933333298,
      "d": 32.05131249999977,
      "v": 34
    },
    {
      "midi": 77,
      "hit": false,
      "t": 133044.99818749964,
      "d": 32.05131249999977,
      "v": 67
    },
    {
      "midi": 79,
      "hit": false,
      "t": 133044.99818749964,
      "d": 32.05131249999977,
      "v": 67
    },
    {
      "midi": 86,
      "hit": false,
      "t": 133044.99818749964,
      "d": 32.05131249999977,
      "v": 67
    },
    {
      "midi": 77,
      "hit": false,
      "t": 133077.04949999964,
      "d": 32.05131249999977,
      "v": 127
    },
    {
      "midi": 79,
      "hit": false,
      "t": 133077.04949999964,
      "d": 32.05131249999977,
      "v": 127
    },
    {
      "midi": 86,
      "hit": false,
      "t": 133077.04949999964,
      "d": 32.05131249999977,
      "v": 106
    },
    {
      "midi": 77,
      "hit": false,
      "t": 133119.78458333298,
      "d": 32.05131249999977,
      "v": 34
    },
    {
      "midi": 79,
      "hit": false,
      "t": 133119.78458333298,
      "d": 32.05131249999977,
      "v": 34
    },
    {
      "midi": 86,
      "hit": false,
      "t": 133119.78458333298,
      "d": 32.05131249999977,
      "v": 34
    },
    {
      "midi": 77,
      "hit": false,
      "t": 133173.20343749964,
      "d": 32.05131249999977,
      "v": 67
    },
    {
      "midi": 79,
      "hit": false,
      "t": 133173.20343749964,
      "d": 32.05131249999977,
      "v": 67
    },
    {
      "midi": 86,
      "hit": false,
      "t": 133173.20343749964,
      "d": 32.05131249999977,
      "v": 56
    },
    {
      "midi": 77,
      "hit": false,
      "t": 133205.25474999964,
      "d": 32.05131249999977,
      "v": 117
    },
    {
      "midi": 79,
      "hit": false,
      "t": 133205.25474999964,
      "d": 32.05131249999977,
      "v": 127
    },
    {
      "midi": 86,
      "hit": false,
      "t": 133205.25474999964,
      "d": 32.05131249999977,
      "v": 93
    },
    {
      "midi": 77,
      "hit": false,
      "t": 133247.98983333298,
      "d": 32.05131249999977,
      "v": 34
    },
    {
      "midi": 79,
      "hit": false,
      "t": 133247.98983333298,
      "d": 32.05131249999977,
      "v": 34
    },
    {
      "midi": 86,
      "hit": false,
      "t": 133247.98983333298,
      "d": 32.05131249999977,
      "v": 29
    },
    {
      "midi": 77,
      "hit": false,
      "t": 133301.40868749964,
      "d": 32.05131249999977,
      "v": 62
    },
    {
      "midi": 79,
      "hit": false,
      "t": 133301.40868749964,
      "d": 32.05131249999977,
      "v": 67
    },
    {
      "midi": 86,
      "hit": false,
      "t": 133301.40868749964,
      "d": 32.05131249999977,
      "v": 50
    },
    {
      "midi": 77,
      "hit": false,
      "t": 133376.19508333298,
      "d": 32.05131249999977,
      "v": 32
    },
    {
      "midi": 79,
      "hit": false,
      "t": 133376.19508333298,
      "d": 32.05131249999977,
      "v": 34
    },
    {
      "midi": 86,
      "hit": false,
      "t": 133376.19508333298,
      "d": 32.05131249999977,
      "v": 25
    },
    {
      "midi": 77,
      "hit": false,
      "t": 149786.46708333297,
      "d": 32.05131249999977,
      "v": 32
    },
    {
      "midi": 79,
      "hit": false,
      "t": 149786.46708333297,
      "d": 32.05131249999977,
      "v": 34
    },
    {
      "midi": 86,
      "hit": false,
      "t": 149786.46708333297,
      "d": 32.05131249999977,
      "v": 25
    },
    {
      "midi": 58,
      "hit": false,
      "t": 149871.93724999964,
      "d": 120.72661041666288,
      "v": 127
    },
    {
      "midi": 55,
      "hit": false,
      "t": 150128.34774999964,
      "d": 166.66682499999297,
      "v": 120
    },
    {
      "midi": 58,
      "hit": false,
      "t": 150256.55299999964,
      "d": 115.3847249999817,
      "v": 127
    },
    {
      "midi": 58,
      "hit": false,
      "t": 150512.9634999996,
      "d": 126.06849583334406,
      "v": 127
    },
    {
      "midi": 55,
      "hit": false,
      "t": 150769.3739999996,
      "d": 182.6924812500074,
      "v": 127
    },
    {
      "midi": 58,
      "hit": false,
      "t": 150897.5792499996,
      "d": 107.90608541667461,
      "v": 127
    },
    {
      "midi": 60,
      "hit": false,
      "t": 151153.9897499996,
      "d": 141.02577499998733,
      "v": 127
    },
    {
      "midi": 55,
      "hit": false,
      "t": 151410.4002499996,
      "d": 135.68388958333526,
      "v": 127
    },
    {
      "midi": 58,
      "hit": false,
      "t": 151666.8107499996,
      "d": 115.3847250000108,
      "v": 127
    },
    {
      "midi": 58,
      "hit": false,
      "t": 151923.2212499996,
      "d": 120.72661041666288,
      "v": 127
    },
    {
      "midi": 55,
      "hit": false,
      "t": 152179.6317499996,
      "d": 183.76085833332036,
      "v": 123
    },
    {
      "midi": 58,
      "hit": false,
      "t": 152307.8369999996,
      "d": 100.42744583330932,
      "v": 127
    },
    {
      "midi": 58,
      "hit": false,
      "t": 152564.24749999956,
      "d": 150.64116875000764,
      "v": 127
    },
    {
      "midi": 55,
      "hit": false,
      "t": 152820.65799999956,
      "d": 199.7865145833348,
      "v": 127
    },
    {
      "midi": 58,
      "hit": false,
      "t": 152948.86324999956,
      "d": 112.17959375001374,
      "v": 127
    },
    {
      "midi": 60,
      "hit": false,
      "t": 153205.2737499996,
      "d": 133.54713541668025,
      "v": 127
    },
    {
      "midi": 55,
      "hit": false,
      "t": 153461.6842499996,
      "d": 159.18818541665678,
      "v": 123
    },
    {
      "midi": 58,
      "hit": false,
      "t": 153718.0947499996,
      "d": 117.52147916666581,
      "v": 127
    },
    {
      "midi": 58,
      "hit": false,
      "t": 153974.5052499996,
      "d": 135.68388958333526,
      "v": 127
    },
    {
      "midi": 55,
      "hit": false,
      "t": 154230.9157499996,
      "d": 159.18818541665678,
      "v": 127
    },
    {
      "midi": 62,
      "hit": false,
      "t": 154359.1209999996,
      "d": 128.20524999999907,
      "v": 111
    },
    {
      "midi": 62,
      "hit": false,
      "t": 154615.5314999996,
      "d": 135.68388958333526,
      "v": 127
    },
    {
      "midi": 60,
      "hit": false,
      "t": 154871.9419999996,
      "d": 97.22231458334136,
      "v": 127
    },
    {
      "midi": 60,
      "hit": false,
      "t": 155000.1472499996,
      "d": 115.3847250000108,
      "v": 127
    },
    {
      "midi": 60,
      "hit": false,
      "t": 155256.5577499996,
      "d": 143.16252916667145,
      "v": 127
    },
    {
      "midi": 60,
      "hit": false,
      "t": 155512.9682499996,
      "d": 159.18818541665678,
      "v": 127
    },
    {
      "midi": 58,
      "hit": false,
      "t": 155769.3787499996,
      "d": 144.2309062500135,
      "v": 127
    },
    {
      "midi": 58,
      "hit": false,
      "t": 156025.78924999962,
      "d": 130.34200416665408,
      "v": 127
    },
    {
      "midi": 55,
      "hit": false,
      "t": 156282.19974999962,
      "d": 164.53007083333796,
      "v": 126
    },
    {
      "midi": 58,
      "hit": false,
      "t": 156410.40499999962,
      "d": 115.3847250000108,
      "v": 127
    },
    {
      "midi": 58,
      "hit": false,
      "t": 156666.81549999962,
      "d": 133.54713541668025,
      "v": 127
    },
    {
      "midi": 55,
      "hit": false,
      "t": 156923.22599999965,
      "d": 161.3249395833409,
      "v": 120
    },
    {
      "midi": 58,
      "hit": false,
      "t": 157051.43124999964,
      "d": 122.86336458334699,
      "v": 100
    },
    {
      "midi": 60,
      "hit": false,
      "t": 157307.84174999967,
      "d": 143.16252916667145,
      "v": 127
    },
    {
      "midi": 55,
      "hit": false,
      "t": 157564.25224999967,
      "d": 138.88902083333232,
      "v": 127
    },
    {
      "midi": 58,
      "hit": false,
      "t": 157820.66274999967,
      "d": 153.8463000000047,
      "v": 127
    },
    {
      "midi": 58,
      "hit": false,
      "t": 158077.07324999967,
      "d": 120.72661041666288,
      "v": 127
    },
    {
      "midi": 55,
      "hit": false,
      "t": 158333.48374999966,
      "d": 166.66682499999297,
      "v": 120
    },
    {
      "midi": 58,
      "hit": false,
      "t": 158461.68899999966,
      "d": 115.3847249999817,
      "v": 127
    },
    {
      "midi": 58,
      "hit": false,
      "t": 158718.09949999963,
      "d": 126.06849583334406,
      "v": 127
    },
    {
      "midi": 55,
      "hit": false,
      "t": 158974.50999999963,
      "d": 182.6924812500074,
      "v": 127
    },
    {
      "midi": 58,
      "hit": false,
      "t": 159102.71524999963,
      "d": 107.90608541667461,
      "v": 127
    },
    {
      "midi": 60,
      "hit": false,
      "t": 159359.12574999963,
      "d": 141.02577499998733,
      "v": 127
    },
    {
      "midi": 55,
      "hit": false,
      "t": 159615.53624999963,
      "d": 135.68388958333526,
      "v": 127
    },
    {
      "midi": 58,
      "hit": false,
      "t": 159871.94674999962,
      "d": 115.3847250000108,
      "v": 127
    },
    {
      "midi": 58,
      "hit": false,
      "t": 160128.35724999962,
      "d": 120.72661041666288,
      "v": 127
    },
    {
      "midi": 55,
      "hit": false,
      "t": 160384.76774999962,
      "d": 183.76085833332036,
      "v": 123
    },
    {
      "midi": 58,
      "hit": false,
      "t": 160512.97299999962,
      "d": 100.42744583330932,
      "v": 127
    },
    {
      "midi": 58,
      "hit": false,
      "t": 160769.3834999996,
      "d": 150.64116875000764,
      "v": 127
    },
    {
      "midi": 55,
      "hit": false,
      "t": 161025.7939999996,
      "d": 199.7865145833348,
      "v": 127
    },
    {
      "midi": 58,
      "hit": false,
      "t": 161153.9992499996,
      "d": 112.17959375001374,
      "v": 127
    },
    {
      "midi": 60,
      "hit": false,
      "t": 161410.4097499996,
      "d": 133.54713541668025,
      "v": 127
    },
    {
      "midi": 55,
      "hit": false,
      "t": 161666.82024999964,
      "d": 159.18818541665678,
      "v": 123
    },
    {
      "midi": 58,
      "hit": false,
      "t": 161923.23074999964,
      "d": 117.52147916666581,
      "v": 127
    },
    {
      "midi": 58,
      "hit": false,
      "t": 162179.64124999964,
      "d": 135.68388958333526,
      "v": 127
    },
    {
      "midi": 55,
      "hit": false,
      "t": 162436.05174999963,
      "d": 159.18818541665678,
      "v": 127
    },
    {
      "midi": 62,
      "hit": false,
      "t": 162564.25699999963,
      "d": 128.20524999999907,
      "v": 111
    },
    {
      "midi": 62,
      "hit": false,
      "t": 162820.66749999963,
      "d": 135.68388958333526,
      "v": 127
    },
    {
      "midi": 60,
      "hit": false,
      "t": 163077.07799999963,
      "d": 97.22231458334136,
      "v": 127
    },
    {
      "midi": 60,
      "hit": false,
      "t": 163205.28324999963,
      "d": 115.3847250000108,
      "v": 127
    },
    {
      "midi": 60,
      "hit": false,
      "t": 163461.69374999963,
      "d": 143.16252916667145,
      "v": 127
    },
    {
      "midi": 60,
      "hit": false,
      "t": 163718.10424999963,
      "d": 159.18818541665678,
      "v": 127
    },
    {
      "midi": 58,
      "hit": false,
      "t": 163974.51474999962,
      "d": 144.2309062500135,
      "v": 127
    },
    {
      "midi": 58,
      "hit": false,
      "t": 164230.92524999965,
      "d": 130.34200416665408,
      "v": 127
    },
    {
      "midi": 55,
      "hit": false,
      "t": 164487.33574999965,
      "d": 164.53007083333796,
      "v": 126
    },
    {
      "midi": 58,
      "hit": false,
      "t": 164615.54099999965,
      "d": 115.3847250000108,
      "v": 127
    },
    {
      "midi": 58,
      "hit": false,
      "t": 164871.95149999965,
      "d": 133.54713541668025,
      "v": 127
    },
    {
      "midi": 55,
      "hit": false,
      "t": 165128.36199999967,
      "d": 161.3249395833409,
      "v": 120
    },
    {
      "midi": 58,
      "hit": false,
      "t": 165256.56724999967,
      "d": 122.86336458334699,
      "v": 100
    },
    {
      "midi": 60,
      "hit": false,
      "t": 165512.9777499997,
      "d": 143.16252916667145,
      "v": 127
    },
    {
      "midi": 55,
      "hit": false,
      "t": 165769.3882499997,
      "d": 138.88902083333232,
      "v": 127
    },
    {
      "midi": 58,
      "hit": false,
      "t": 166025.7987499997,
      "d": 153.8463000000047,
      "v": 127
    },
    {
      "midi": 77,
      "hit": false,
      "t": 166196.73908333303,
      "d": 32.05131249999977,
      "v": 32
    },
    {
      "midi": 79,
      "hit": false,
      "t": 166196.73908333303,
      "d": 32.05131249999977,
      "v": 34
    },
    {
      "midi": 86,
      "hit": false,
      "t": 166196.73908333303,
      "d": 32.05131249999977,
      "v": 25
    },
    {
      "midi": 77,
      "hit": false,
      "t": 198974.5479999997,
      "d": 32.05131249999977,
      "v": 106
    },
    {
      "midi": 80,
      "hit": false,
      "t": 198974.5479999997,
      "d": 32.05131249999977,
      "v": 78
    },
    {
      "midi": 82,
      "hit": false,
      "t": 198974.5479999997,
      "d": 32.05131249999977,
      "v": 127
    },
    {
      "midi": 86,
      "hit": false,
      "t": 198974.5479999997,
      "d": 32.05131249999977,
      "v": 80
    },
    {
      "midi": 89,
      "hit": false,
      "t": 198974.5479999997,
      "d": 32.05131249999977,
      "v": 93
    },
    {
      "midi": 77,
      "hit": false,
      "t": 199070.7019374997,
      "d": 32.05131249999977,
      "v": 56
    },
    {
      "midi": 80,
      "hit": false,
      "t": 199070.7019374997,
      "d": 32.05131249999977,
      "v": 41
    },
    {
      "midi": 82,
      "hit": false,
      "t": 199070.7019374997,
      "d": 32.05131249999977,
      "v": 67
    },
    {
      "midi": 86,
      "hit": false,
      "t": 199070.7019374997,
      "d": 32.05131249999977,
      "v": 42
    },
    {
      "midi": 89,
      "hit": false,
      "t": 199070.7019374997,
      "d": 32.05131249999977,
      "v": 50
    },
    {
      "midi": 77,
      "hit": false,
      "t": 199102.7532499997,
      "d": 32.05131249999977,
      "v": 98
    },
    {
      "midi": 82,
      "hit": false,
      "t": 199102.7532499997,
      "d": 32.05131249999977,
      "v": 127
    },
    {
      "midi": 86,
      "hit": false,
      "t": 199102.7532499997,
      "d": 32.05131249999977,
      "v": 89
    },
    {
      "midi": 89,
      "hit": false,
      "t": 199102.7532499997,
      "d": 32.05131249999977,
      "v": 93
    },
    {
      "midi": 77,
      "hit": false,
      "t": 199145.48833333302,
      "d": 32.05131249999977,
      "v": 29
    },
    {
      "midi": 80,
      "hit": false,
      "t": 199145.48833333302,
      "d": 32.05131249999977,
      "v": 21
    },
    {
      "midi": 82,
      "hit": false,
      "t": 199145.48833333302,
      "d": 32.05131249999977,
      "v": 34
    },
    {
      "midi": 86,
      "hit": false,
      "t": 199145.48833333302,
      "d": 32.05131249999977,
      "v": 21
    },
    {
      "midi": 89,
      "hit": false,
      "t": 199145.48833333302,
      "d": 32.05131249999977,
      "v": 25
    },
    {
      "midi": 77,
      "hit": false,
      "t": 199198.9071874997,
      "d": 32.05131249999977,
      "v": 52
    },
    {
      "midi": 82,
      "hit": false,
      "t": 199198.9071874997,
      "d": 32.05131249999977,
      "v": 67
    },
    {
      "midi": 86,
      "hit": false,
      "t": 199198.9071874997,
      "d": 32.05131249999977,
      "v": 48
    },
    {
      "midi": 89,
      "hit": false,
      "t": 199198.9071874997,
      "d": 32.05131249999977,
      "v": 50
    },
    {
      "midi": 77,
      "hit": false,
      "t": 199273.69358333302,
      "d": 32.05131249999977,
      "v": 27
    },
    {
      "midi": 82,
      "hit": false,
      "t": 199273.69358333302,
      "d": 32.05131249999977,
      "v": 34
    },
    {
      "midi": 86,
      "hit": false,
      "t": 199273.69358333302,
      "d": 32.05131249999977,
      "v": 25
    },
    {
      "midi": 89,
      "hit": false,
      "t": 199273.69358333302,
      "d": 32.05131249999977,
      "v": 25
    },
    {
      "midi": 77,
      "hit": false,
      "t": 199359.1637499997,
      "d": 32.05131249999977,
      "v": 117
    },
    {
      "midi": 82,
      "hit": false,
      "t": 199359.1637499997,
      "d": 32.05131249999977,
      "v": 127
    },
    {
      "midi": 86,
      "hit": false,
      "t": 199359.1637499997,
      "d": 32.05131249999977,
      "v": 86
    },
    {
      "midi": 89,
      "hit": false,
      "t": 199359.1637499997,
      "d": 32.05131249999977,
      "v": 93
    },
    {
      "midi": 77,
      "hit": false,
      "t": 199455.3176874997,
      "d": 32.05131249999977,
      "v": 62
    },
    {
      "midi": 82,
      "hit": false,
      "t": 199455.3176874997,
      "d": 32.05131249999977,
      "v": 67
    },
    {
      "midi": 86,
      "hit": false,
      "t": 199455.3176874997,
      "d": 32.05131249999977,
      "v": 46
    },
    {
      "midi": 89,
      "hit": false,
      "t": 199455.3176874997,
      "d": 32.05131249999977,
      "v": 50
    },
    {
      "midi": 77,
      "hit": false,
      "t": 199530.10408333302,
      "d": 32.05131249999977,
      "v": 32
    },
    {
      "midi": 82,
      "hit": false,
      "t": 199530.10408333302,
      "d": 32.05131249999977,
      "v": 34
    },
    {
      "midi": 86,
      "hit": false,
      "t": 199530.10408333302,
      "d": 32.05131249999977,
      "v": 23
    },
    {
      "midi": 89,
      "hit": false,
      "t": 199530.10408333302,
      "d": 32.05131249999977,
      "v": 25
    },
    {
      "midi": 77,
      "hit": false,
      "t": 199615.57424999968,
      "d": 32.05131249999977,
      "v": 106
    },
    {
      "midi": 82,
      "hit": false,
      "t": 199615.57424999968,
      "d": 32.05131249999977,
      "v": 127
    },
    {
      "midi": 86,
      "hit": false,
      "t": 199615.57424999968,
      "d": 32.05131249999977,
      "v": 80
    },
    {
      "midi": 89,
      "hit": false,
      "t": 199615.57424999968,
      "d": 32.05131249999977,
      "v": 93
    },
    {
      "midi": 77,
      "hit": false,
      "t": 199711.72818749968,
      "d": 32.05131249999977,
      "v": 56
    },
    {
      "midi": 82,
      "hit": false,
      "t": 199711.72818749968,
      "d": 32.05131249999977,
      "v": 67
    },
    {
      "midi": 86,
      "hit": false,
      "t": 199711.72818749968,
      "d": 32.05131249999977,
      "v": 42
    },
    {
      "midi": 89,
      "hit": false,
      "t": 199711.72818749968,
      "d": 32.05131249999977,
      "v": 50
    },
    {
      "midi": 77,
      "hit": false,
      "t": 199743.77949999968,
      "d": 32.05131249999977,
      "v": 89
    },
    {
      "midi": 82,
      "hit": false,
      "t": 199743.77949999968,
      "d": 32.05131249999977,
      "v": 127
    },
    {
      "midi": 86,
      "hit": false,
      "t": 199743.77949999968,
      "d": 32.05131249999977,
      "v": 83
    },
    {
      "midi": 89,
      "hit": false,
      "t": 199743.77949999968,
      "d": 32.05131249999977,
      "v": 93
    },
    {
      "midi": 77,
      "hit": false,
      "t": 199786.51458333302,
      "d": 32.05131249999977,
      "v": 29
    },
    {
      "midi": 82,
      "hit": false,
      "t": 199786.51458333302,
      "d": 32.05131249999977,
      "v": 34
    },
    {
      "midi": 86,
      "hit": false,
      "t": 199786.51458333302,
      "d": 32.05131249999977,
      "v": 21
    },
    {
      "midi": 89,
      "hit": false,
      "t": 199786.51458333302,
      "d": 32.05131249999977,
      "v": 25
    },
    {
      "midi": 77,
      "hit": false,
      "t": 199839.93343749968,
      "d": 32.05131249999977,
      "v": 48
    },
    {
      "midi": 82,
      "hit": false,
      "t": 199839.93343749968,
      "d": 32.05131249999977,
      "v": 67
    },
    {
      "midi": 86,
      "hit": false,
      "t": 199839.93343749968,
      "d": 32.05131249999977,
      "v": 44
    },
    {
      "midi": 89,
      "hit": false,
      "t": 199839.93343749968,
      "d": 32.05131249999977,
      "v": 50
    },
    {
      "midi": 77,
      "hit": false,
      "t": 199871.98474999968,
      "d": 32.05131249999977,
      "v": 103
    },
    {
      "midi": 82,
      "hit": false,
      "t": 199871.98474999968,
      "d": 32.05131249999977,
      "v": 127
    },
    {
      "midi": 86,
      "hit": false,
      "t": 199871.98474999968,
      "d": 32.05131249999977,
      "v": 98
    },
    {
      "midi": 89,
      "hit": false,
      "t": 199871.98474999968,
      "d": 32.05131249999977,
      "v": 93
    },
    {
      "midi": 77,
      "hit": false,
      "t": 199914.71983333302,
      "d": 32.05131249999977,
      "v": 25
    },
    {
      "midi": 82,
      "hit": false,
      "t": 199914.71983333302,
      "d": 32.05131249999977,
      "v": 34
    },
    {
      "midi": 86,
      "hit": false,
      "t": 199914.71983333302,
      "d": 32.05131249999977,
      "v": 22
    },
    {
      "midi": 89,
      "hit": false,
      "t": 199914.71983333302,
      "d": 32.05131249999977,
      "v": 25
    },
    {
      "midi": 77,
      "hit": false,
      "t": 199968.13868749968,
      "d": 32.05131249999977,
      "v": 55
    },
    {
      "midi": 82,
      "hit": false,
      "t": 199968.13868749968,
      "d": 32.05131249999977,
      "v": 67
    },
    {
      "midi": 86,
      "hit": false,
      "t": 199968.13868749968,
      "d": 32.05131249999977,
      "v": 52
    },
    {
      "midi": 89,
      "hit": false,
      "t": 199968.13868749968,
      "d": 32.05131249999977,
      "v": 50
    },
    {
      "midi": 77,
      "hit": false,
      "t": 200042.92508333302,
      "d": 32.05131249999977,
      "v": 27
    },
    {
      "midi": 82,
      "hit": false,
      "t": 200042.92508333302,
      "d": 32.05131249999977,
      "v": 34
    },
    {
      "midi": 86,
      "hit": false,
      "t": 200042.92508333302,
      "d": 32.05131249999977,
      "v": 27
    },
    {
      "midi": 89,
      "hit": false,
      "t": 200042.92508333302,
      "d": 32.05131249999977,
      "v": 25
    },
    {
      "midi": 77,
      "hit": false,
      "t": 200128.39524999968,
      "d": 32.05131249999977,
      "v": 111
    },
    {
      "midi": 82,
      "hit": false,
      "t": 200128.39524999968,
      "d": 32.05131249999977,
      "v": 127
    },
    {
      "midi": 86,
      "hit": false,
      "t": 200128.39524999968,
      "d": 32.05131249999977,
      "v": 93
    },
    {
      "midi": 89,
      "hit": false,
      "t": 200128.39524999968,
      "d": 32.05131249999977,
      "v": 93
    },
    {
      "midi": 77,
      "hit": false,
      "t": 200224.54918749968,
      "d": 32.05131249999977,
      "v": 59
    },
    {
      "midi": 82,
      "hit": false,
      "t": 200224.54918749968,
      "d": 32.05131249999977,
      "v": 67
    },
    {
      "midi": 86,
      "hit": false,
      "t": 200224.54918749968,
      "d": 32.05131249999977,
      "v": 50
    },
    {
      "midi": 89,
      "hit": false,
      "t": 200224.54918749968,
      "d": 32.05131249999977,
      "v": 50
    },
    {
      "midi": 77,
      "hit": false,
      "t": 200299.335583333,
      "d": 32.05131249999977,
      "v": 29
    },
    {
      "midi": 82,
      "hit": false,
      "t": 200299.335583333,
      "d": 32.05131249999977,
      "v": 34
    },
    {
      "midi": 86,
      "hit": false,
      "t": 200299.335583333,
      "d": 32.05131249999977,
      "v": 25
    },
    {
      "midi": 89,
      "hit": false,
      "t": 200299.335583333,
      "d": 32.05131249999977,
      "v": 25
    },
    {
      "midi": 77,
      "hit": false,
      "t": 200384.80574999968,
      "d": 32.05131249999977,
      "v": 117
    },
    {
      "midi": 82,
      "hit": false,
      "t": 200384.80574999968,
      "d": 32.05131249999977,
      "v": 127
    },
    {
      "midi": 86,
      "hit": false,
      "t": 200384.80574999968,
      "d": 32.05131249999977,
      "v": 91
    },
    {
      "midi": 89,
      "hit": false,
      "t": 200384.80574999968,
      "d": 32.05131249999977,
      "v": 93
    },
    {
      "midi": 77,
      "hit": false,
      "t": 200480.95968749968,
      "d": 32.05131249999977,
      "v": 62
    },
    {
      "midi": 82,
      "hit": false,
      "t": 200480.95968749968,
      "d": 32.05131249999977,
      "v": 67
    },
    {
      "midi": 86,
      "hit": false,
      "t": 200480.95968749968,
      "d": 32.05131249999977,
      "v": 48
    },
    {
      "midi": 89,
      "hit": false,
      "t": 200480.95968749968,
      "d": 32.05131249999977,
      "v": 50
    },
    {
      "midi": 77,
      "hit": false,
      "t": 200513.01099999968,
      "d": 32.05131249999977,
      "v": 89
    },
    {
      "midi": 82,
      "hit": false,
      "t": 200513.01099999968,
      "d": 32.05131249999977,
      "v": 127
    },
    {
      "midi": 86,
      "hit": false,
      "t": 200513.01099999968,
      "d": 32.05131249999977,
      "v": 91
    },
    {
      "midi": 89,
      "hit": false,
      "t": 200513.01099999968,
      "d": 32.05131249999977,
      "v": 93
    },
    {
      "midi": 77,
      "hit": false,
      "t": 200555.746083333,
      "d": 32.05131249999977,
      "v": 32
    },
    {
      "midi": 82,
      "hit": false,
      "t": 200555.746083333,
      "d": 32.05131249999977,
      "v": 34
    },
    {
      "midi": 86,
      "hit": false,
      "t": 200555.746083333,
      "d": 32.05131249999977,
      "v": 25
    },
    {
      "midi": 89,
      "hit": false,
      "t": 200555.746083333,
      "d": 32.05131249999977,
      "v": 25
    },
    {
      "midi": 77,
      "hit": false,
      "t": 200609.16493749968,
      "d": 32.05131249999977,
      "v": 48
    },
    {
      "midi": 82,
      "hit": false,
      "t": 200609.16493749968,
      "d": 32.05131249999977,
      "v": 67
    },
    {
      "midi": 86,
      "hit": false,
      "t": 200609.16493749968,
      "d": 32.05131249999977,
      "v": 48
    },
    {
      "midi": 89,
      "hit": false,
      "t": 200609.16493749968,
      "d": 32.05131249999977,
      "v": 50
    },
    {
      "midi": 77,
      "hit": false,
      "t": 200683.951333333,
      "d": 32.05131249999977,
      "v": 25
    },
    {
      "midi": 82,
      "hit": false,
      "t": 200683.951333333,
      "d": 32.05131249999977,
      "v": 34
    },
    {
      "midi": 86,
      "hit": false,
      "t": 200683.951333333,
      "d": 32.05131249999977,
      "v": 25
    },
    {
      "midi": 89,
      "hit": false,
      "t": 200683.951333333,
      "d": 32.05131249999977,
      "v": 25
    },
    {
      "midi": 77,
      "hit": false,
      "t": 200769.42149999968,
      "d": 32.05131249999977,
      "v": 120
    },
    {
      "midi": 82,
      "hit": false,
      "t": 200769.42149999968,
      "d": 32.05131249999977,
      "v": 127
    },
    {
      "midi": 86,
      "hit": false,
      "t": 200769.42149999968,
      "d": 32.05131249999977,
      "v": 98
    },
    {
      "midi": 89,
      "hit": false,
      "t": 200769.42149999968,
      "d": 32.05131249999977,
      "v": 93
    },
    {
      "midi": 77,
      "hit": false,
      "t": 200865.57543749968,
      "d": 32.05131249999977,
      "v": 63
    },
    {
      "midi": 82,
      "hit": false,
      "t": 200865.57543749968,
      "d": 32.05131249999977,
      "v": 67
    },
    {
      "midi": 86,
      "hit": false,
      "t": 200865.57543749968,
      "d": 32.05131249999977,
      "v": 52
    },
    {
      "midi": 89,
      "hit": false,
      "t": 200865.57543749968,
      "d": 32.05131249999977,
      "v": 50
    },
    {
      "midi": 77,
      "hit": false,
      "t": 200897.62674999968,
      "d": 32.05131249999977,
      "v": 77
    },
    {
      "midi": 82,
      "hit": false,
      "t": 200897.62674999968,
      "d": 32.05131249999977,
      "v": 107
    },
    {
      "midi": 86,
      "hit": false,
      "t": 200897.62674999968,
      "d": 32.05131249999977,
      "v": 89
    },
    {
      "midi": 89,
      "hit": false,
      "t": 200897.62674999968,
      "d": 32.05131249999977,
      "v": 93
    },
    {
      "midi": 77,
      "hit": false,
      "t": 200940.361833333,
      "d": 32.05131249999977,
      "v": 32
    },
    {
      "midi": 82,
      "hit": false,
      "t": 200940.361833333,
      "d": 32.05131249999977,
      "v": 34
    },
    {
      "midi": 86,
      "hit": false,
      "t": 200940.361833333,
      "d": 32.05131249999977,
      "v": 27
    },
    {
      "midi": 89,
      "hit": false,
      "t": 200940.361833333,
      "d": 32.05131249999977,
      "v": 25
    },
    {
      "midi": 77,
      "hit": false,
      "t": 200993.78068749967,
      "d": 32.05131249999977,
      "v": 41
    },
    {
      "midi": 82,
      "hit": false,
      "t": 200993.78068749967,
      "d": 32.05131249999977,
      "v": 57
    },
    {
      "midi": 86,
      "hit": false,
      "t": 200993.78068749967,
      "d": 32.05131249999977,
      "v": 48
    },
    {
      "midi": 89,
      "hit": false,
      "t": 200993.78068749967,
      "d": 32.05131249999977,
      "v": 50
    },
    {
      "midi": 77,
      "hit": false,
      "t": 201025.83199999967,
      "d": 32.05131249999977,
      "v": 96
    },
    {
      "midi": 82,
      "hit": false,
      "t": 201025.83199999967,
      "d": 32.05131249999977,
      "v": 125
    },
    {
      "midi": 84,
      "hit": false,
      "t": 201025.83199999967,
      "d": 32.05131249999977,
      "v": 103
    },
    {
      "midi": 89,
      "hit": false,
      "t": 201025.83199999967,
      "d": 32.05131249999977,
      "v": 93
    },
    {
      "midi": 77,
      "hit": false,
      "t": 201068.567083333,
      "d": 32.05131249999977,
      "v": 21
    },
    {
      "midi": 82,
      "hit": false,
      "t": 201068.567083333,
      "d": 32.05131249999977,
      "v": 29
    },
    {
      "midi": 86,
      "hit": false,
      "t": 201068.567083333,
      "d": 32.05131249999977,
      "v": 25
    },
    {
      "midi": 89,
      "hit": false,
      "t": 201068.567083333,
      "d": 32.05131249999977,
      "v": 25
    },
    {
      "midi": 77,
      "hit": false,
      "t": 201121.98593749967,
      "d": 32.05131249999977,
      "v": 50
    },
    {
      "midi": 82,
      "hit": false,
      "t": 201121.98593749967,
      "d": 32.05131249999977,
      "v": 67
    },
    {
      "midi": 84,
      "hit": false,
      "t": 201121.98593749967,
      "d": 32.05131249999977,
      "v": 55
    },
    {
      "midi": 89,
      "hit": false,
      "t": 201121.98593749967,
      "d": 32.05131249999977,
      "v": 50
    },
    {
      "midi": 77,
      "hit": false,
      "t": 201154.03724999967,
      "d": 32.05131249999977,
      "v": 91
    },
    {
      "midi": 82,
      "hit": false,
      "t": 201154.03724999967,
      "d": 32.05131249999977,
      "v": 125
    },
    {
      "midi": 84,
      "hit": false,
      "t": 201154.03724999967,
      "d": 32.05131249999977,
      "v": 100
    },
    {
      "midi": 89,
      "hit": false,
      "t": 201154.03724999967,
      "d": 32.05131249999977,
      "v": 93
    },
    {
      "midi": 77,
      "hit": false,
      "t": 201196.772333333,
      "d": 32.05131249999977,
      "v": 25
    },
    {
      "midi": 82,
      "hit": false,
      "t": 201196.772333333,
      "d": 32.05131249999977,
      "v": 34
    },
    {
      "midi": 84,
      "hit": false,
      "t": 201196.772333333,
      "d": 32.05131249999977,
      "v": 27
    },
    {
      "midi": 89,
      "hit": false,
      "t": 201196.772333333,
      "d": 32.05131249999977,
      "v": 25
    },
    {
      "midi": 77,
      "hit": false,
      "t": 201250.19118749967,
      "d": 32.05131249999977,
      "v": 48
    },
    {
      "midi": 82,
      "hit": false,
      "t": 201250.19118749967,
      "d": 32.05131249999977,
      "v": 67
    },
    {
      "midi": 84,
      "hit": false,
      "t": 201250.19118749967,
      "d": 32.05131249999977,
      "v": 53
    },
    {
      "midi": 89,
      "hit": false,
      "t": 201250.19118749967,
      "d": 32.05131249999977,
      "v": 50
    },
    {
      "midi": 77,
      "hit": false,
      "t": 201324.977583333,
      "d": 32.05131249999977,
      "v": 25
    },
    {
      "midi": 82,
      "hit": false,
      "t": 201324.977583333,
      "d": 32.05131249999977,
      "v": 34
    },
    {
      "midi": 84,
      "hit": false,
      "t": 201324.977583333,
      "d": 32.05131249999977,
      "v": 27
    },
    {
      "midi": 89,
      "hit": false,
      "t": 201324.977583333,
      "d": 32.05131249999977,
      "v": 25
    },
    {
      "midi": 77,
      "hit": false,
      "t": 201410.44774999967,
      "d": 32.05131249999977,
      "v": 106
    },
    {
      "midi": 82,
      "hit": false,
      "t": 201410.44774999967,
      "d": 32.05131249999977,
      "v": 127
    },
    {
      "midi": 84,
      "hit": false,
      "t": 201410.44774999967,
      "d": 32.05131249999977,
      "v": 117
    },
    {
      "midi": 89,
      "hit": false,
      "t": 201410.44774999967,
      "d": 32.05131249999977,
      "v": 93
    },
    {
      "midi": 77,
      "hit": false,
      "t": 201506.60168749967,
      "d": 32.05131249999977,
      "v": 56
    },
    {
      "midi": 82,
      "hit": false,
      "t": 201506.60168749967,
      "d": 32.05131249999977,
      "v": 67
    },
    {
      "midi": 84,
      "hit": false,
      "t": 201506.60168749967,
      "d": 32.05131249999977,
      "v": 62
    },
    {
      "midi": 89,
      "hit": false,
      "t": 201506.60168749967,
      "d": 32.05131249999977,
      "v": 50
    },
    {
      "midi": 77,
      "hit": false,
      "t": 201538.65299999967,
      "d": 32.05131249999977,
      "v": 91
    },
    {
      "midi": 82,
      "hit": false,
      "t": 201538.65299999967,
      "d": 32.05131249999977,
      "v": 127
    },
    {
      "midi": 84,
      "hit": false,
      "t": 201538.65299999967,
      "d": 32.05131249999977,
      "v": 111
    },
    {
      "midi": 89,
      "hit": false,
      "t": 201538.65299999967,
      "d": 32.05131249999977,
      "v": 93
    },
    {
      "midi": 77,
      "hit": false,
      "t": 201581.388083333,
      "d": 32.05131249999977,
      "v": 29
    },
    {
      "midi": 82,
      "hit": false,
      "t": 201581.388083333,
      "d": 32.05131249999977,
      "v": 34
    },
    {
      "midi": 84,
      "hit": false,
      "t": 201581.388083333,
      "d": 32.05131249999977,
      "v": 32
    },
    {
      "midi": 89,
      "hit": false,
      "t": 201581.388083333,
      "d": 32.05131249999977,
      "v": 25
    },
    {
      "midi": 77,
      "hit": false,
      "t": 201634.80693749967,
      "d": 32.05131249999977,
      "v": 48
    },
    {
      "midi": 82,
      "hit": false,
      "t": 201634.80693749967,
      "d": 32.05131249999977,
      "v": 67
    },
    {
      "midi": 84,
      "hit": false,
      "t": 201634.80693749967,
      "d": 32.05131249999977,
      "v": 59
    },
    {
      "midi": 89,
      "hit": false,
      "t": 201634.80693749967,
      "d": 32.05131249999977,
      "v": 50
    },
    {
      "midi": 77,
      "hit": false,
      "t": 201709.593333333,
      "d": 32.05131249999977,
      "v": 25
    },
    {
      "midi": 82,
      "hit": false,
      "t": 201709.593333333,
      "d": 32.05131249999977,
      "v": 34
    },
    {
      "midi": 84,
      "hit": false,
      "t": 201709.593333333,
      "d": 32.05131249999977,
      "v": 29
    },
    {
      "midi": 89,
      "hit": false,
      "t": 201709.593333333,
      "d": 32.05131249999977,
      "v": 25
    },
    {
      "midi": 77,
      "hit": false,
      "t": 201795.06349999967,
      "d": 32.05131249999977,
      "v": 113
    },
    {
      "midi": 82,
      "hit": false,
      "t": 201795.06349999967,
      "d": 32.05131249999977,
      "v": 127
    },
    {
      "midi": 84,
      "hit": false,
      "t": 201795.06349999967,
      "d": 32.05131249999977,
      "v": 123
    },
    {
      "midi": 89,
      "hit": false,
      "t": 201795.06349999967,
      "d": 32.05131249999977,
      "v": 93
    },
    {
      "midi": 77,
      "hit": false,
      "t": 201891.21743749967,
      "d": 32.05131249999977,
      "v": 60
    },
    {
      "midi": 82,
      "hit": false,
      "t": 201891.21743749967,
      "d": 32.05131249999977,
      "v": 67
    },
    {
      "midi": 84,
      "hit": false,
      "t": 201891.21743749967,
      "d": 32.05131249999977,
      "v": 65
    },
    {
      "midi": 89,
      "hit": false,
      "t": 201891.21743749967,
      "d": 32.05131249999977,
      "v": 50
    },
    {
      "midi": 77,
      "hit": false,
      "t": 201923.26874999967,
      "d": 32.05131249999977,
      "v": 89
    },
    {
      "midi": 82,
      "hit": false,
      "t": 201923.26874999967,
      "d": 32.05131249999977,
      "v": 127
    },
    {
      "midi": 84,
      "hit": false,
      "t": 201923.26874999967,
      "d": 32.05131249999977,
      "v": 117
    },
    {
      "midi": 89,
      "hit": false,
      "t": 201923.26874999967,
      "d": 32.05131249999977,
      "v": 93
    },
    {
      "midi": 77,
      "hit": false,
      "t": 201966.003833333,
      "d": 32.05131249999977,
      "v": 31
    },
    {
      "midi": 82,
      "hit": false,
      "t": 201966.003833333,
      "d": 32.05131249999977,
      "v": 34
    },
    {
      "midi": 84,
      "hit": false,
      "t": 201966.003833333,
      "d": 32.05131249999977,
      "v": 33
    },
    {
      "midi": 89,
      "hit": false,
      "t": 201966.003833333,
      "d": 32.05131249999977,
      "v": 25
    },
    {
      "midi": 77,
      "hit": false,
      "t": 202019.42268749967,
      "d": 32.05131249999977,
      "v": 48
    },
    {
      "midi": 82,
      "hit": false,
      "t": 202019.42268749967,
      "d": 32.05131249999977,
      "v": 67
    },
    {
      "midi": 84,
      "hit": false,
      "t": 202019.42268749967,
      "d": 32.05131249999977,
      "v": 62
    },
    {
      "midi": 89,
      "hit": false,
      "t": 202019.42268749967,
      "d": 32.05131249999977,
      "v": 50
    },
    {
      "midi": 77,
      "hit": false,
      "t": 202094.209083333,
      "d": 32.05131249999977,
      "v": 25
    },
    {
      "midi": 82,
      "hit": false,
      "t": 202094.209083333,
      "d": 32.05131249999977,
      "v": 34
    },
    {
      "midi": 84,
      "hit": false,
      "t": 202094.209083333,
      "d": 32.05131249999977,
      "v": 32
    },
    {
      "midi": 89,
      "hit": false,
      "t": 202094.209083333,
      "d": 32.05131249999977,
      "v": 25
    },
    {
      "midi": 77,
      "hit": false,
      "t": 202179.67924999967,
      "d": 32.05131249999977,
      "v": 108
    },
    {
      "midi": 82,
      "hit": false,
      "t": 202179.67924999967,
      "d": 32.05131249999977,
      "v": 127
    },
    {
      "midi": 84,
      "hit": false,
      "t": 202179.67924999967,
      "d": 32.05131249999977,
      "v": 113
    },
    {
      "midi": 89,
      "hit": false,
      "t": 202179.67924999967,
      "d": 32.05131249999977,
      "v": 93
    },
    {
      "midi": 77,
      "hit": false,
      "t": 202275.83318749967,
      "d": 32.05131249999977,
      "v": 57
    },
    {
      "midi": 82,
      "hit": false,
      "t": 202275.83318749967,
      "d": 32.05131249999977,
      "v": 67
    },
    {
      "midi": 84,
      "hit": false,
      "t": 202275.83318749967,
      "d": 32.05131249999977,
      "v": 60
    },
    {
      "midi": 89,
      "hit": false,
      "t": 202275.83318749967,
      "d": 32.05131249999977,
      "v": 50
    },
    {
      "midi": 77,
      "hit": false,
      "t": 202350.619583333,
      "d": 32.05131249999977,
      "v": 29
    },
    {
      "midi": 82,
      "hit": false,
      "t": 202350.619583333,
      "d": 32.05131249999977,
      "v": 34
    },
    {
      "midi": 84,
      "hit": false,
      "t": 202350.619583333,
      "d": 32.05131249999977,
      "v": 31
    },
    {
      "midi": 89,
      "hit": false,
      "t": 202350.619583333,
      "d": 32.05131249999977,
      "v": 25
    },
    {
      "midi": 77,
      "hit": false,
      "t": 202436.08974999966,
      "d": 32.05131249999977,
      "v": 93
    },
    {
      "midi": 82,
      "hit": false,
      "t": 202436.08974999966,
      "d": 32.05131249999977,
      "v": 111
    },
    {
      "midi": 84,
      "hit": false,
      "t": 202436.08974999966,
      "d": 32.05131249999977,
      "v": 83
    },
    {
      "midi": 89,
      "hit": false,
      "t": 202436.08974999966,
      "d": 32.05131249999977,
      "v": 93
    },
    {
      "midi": 77,
      "hit": false,
      "t": 202532.24368749966,
      "d": 32.05131249999977,
      "v": 50
    },
    {
      "midi": 82,
      "hit": false,
      "t": 202532.24368749966,
      "d": 32.05131249999977,
      "v": 59
    },
    {
      "midi": 84,
      "hit": false,
      "t": 202532.24368749966,
      "d": 32.05131249999977,
      "v": 44
    },
    {
      "midi": 89,
      "hit": false,
      "t": 202532.24368749966,
      "d": 32.05131249999977,
      "v": 50
    },
    {
      "midi": 77,
      "hit": false,
      "t": 202564.29499999966,
      "d": 32.05131249999977,
      "v": 98
    },
    {
      "midi": 82,
      "hit": false,
      "t": 202564.29499999966,
      "d": 32.05131249999977,
      "v": 127
    },
    {
      "midi": 84,
      "hit": false,
      "t": 202564.29499999966,
      "d": 32.05131249999977,
      "v": 103
    },
    {
      "midi": 89,
      "hit": false,
      "t": 202564.29499999966,
      "d": 32.05131249999977,
      "v": 93
    },
    {
      "midi": 77,
      "hit": false,
      "t": 202607.030083333,
      "d": 32.05131249999977,
      "v": 25
    },
    {
      "midi": 82,
      "hit": false,
      "t": 202607.030083333,
      "d": 32.05131249999977,
      "v": 29
    },
    {
      "midi": 84,
      "hit": false,
      "t": 202607.030083333,
      "d": 32.05131249999977,
      "v": 22
    },
    {
      "midi": 89,
      "hit": false,
      "t": 202607.030083333,
      "d": 32.05131249999977,
      "v": 25
    },
    {
      "midi": 77,
      "hit": false,
      "t": 202660.44893749966,
      "d": 32.05131249999977,
      "v": 52
    },
    {
      "midi": 82,
      "hit": false,
      "t": 202660.44893749966,
      "d": 32.05131249999977,
      "v": 67
    },
    {
      "midi": 84,
      "hit": false,
      "t": 202660.44893749966,
      "d": 32.05131249999977,
      "v": 55
    },
    {
      "midi": 89,
      "hit": false,
      "t": 202660.44893749966,
      "d": 32.05131249999977,
      "v": 50
    },
    {
      "midi": 77,
      "hit": false,
      "t": 202735.235333333,
      "d": 32.05131249999977,
      "v": 27
    },
    {
      "midi": 82,
      "hit": false,
      "t": 202735.235333333,
      "d": 32.05131249999977,
      "v": 34
    },
    {
      "midi": 84,
      "hit": false,
      "t": 202735.235333333,
      "d": 32.05131249999977,
      "v": 27
    },
    {
      "midi": 89,
      "hit": false,
      "t": 202735.235333333,
      "d": 32.05131249999977,
      "v": 25
    },
    {
      "midi": 77,
      "hit": false,
      "t": 202820.70549999966,
      "d": 32.05131249999977,
      "v": 93
    },
    {
      "midi": 82,
      "hit": false,
      "t": 202820.70549999966,
      "d": 32.05131249999977,
      "v": 127
    },
    {
      "midi": 84,
      "hit": false,
      "t": 202820.70549999966,
      "d": 32.05131249999977,
      "v": 113
    },
    {
      "midi": 89,
      "hit": false,
      "t": 202820.70549999966,
      "d": 32.05131249999977,
      "v": 93
    },
    {
      "midi": 77,
      "hit": false,
      "t": 202916.85943749966,
      "d": 32.05131249999977,
      "v": 50
    },
    {
      "midi": 82,
      "hit": false,
      "t": 202916.85943749966,
      "d": 32.05131249999977,
      "v": 67
    },
    {
      "midi": 84,
      "hit": false,
      "t": 202916.85943749966,
      "d": 32.05131249999977,
      "v": 60
    },
    {
      "midi": 89,
      "hit": false,
      "t": 202916.85943749966,
      "d": 32.05131249999977,
      "v": 50
    },
    {
      "midi": 77,
      "hit": false,
      "t": 202948.91074999966,
      "d": 32.05131249999977,
      "v": 82
    },
    {
      "midi": 82,
      "hit": false,
      "t": 202948.91074999966,
      "d": 32.05131249999977,
      "v": 125
    },
    {
      "midi": 84,
      "hit": false,
      "t": 202948.91074999966,
      "d": 32.05131249999977,
      "v": 106
    },
    {
      "midi": 89,
      "hit": false,
      "t": 202948.91074999966,
      "d": 32.05131249999977,
      "v": 93
    },
    {
      "midi": 77,
      "hit": false,
      "t": 202991.645833333,
      "d": 32.05131249999977,
      "v": 25
    },
    {
      "midi": 82,
      "hit": false,
      "t": 202991.645833333,
      "d": 32.05131249999977,
      "v": 34
    },
    {
      "midi": 84,
      "hit": false,
      "t": 202991.645833333,
      "d": 32.05131249999977,
      "v": 31
    },
    {
      "midi": 89,
      "hit": false,
      "t": 202991.645833333,
      "d": 32.05131249999977,
      "v": 25
    },
    {
      "midi": 77,
      "hit": false,
      "t": 203045.06468749966,
      "d": 32.05131249999977,
      "v": 43
    },
    {
      "midi": 82,
      "hit": false,
      "t": 203045.06468749966,
      "d": 32.05131249999977,
      "v": 67
    },
    {
      "midi": 84,
      "hit": false,
      "t": 203045.06468749966,
      "d": 32.05131249999977,
      "v": 56
    },
    {
      "midi": 89,
      "hit": false,
      "t": 203045.06468749966,
      "d": 32.05131249999977,
      "v": 50
    },
    {
      "midi": 77,
      "hit": false,
      "t": 203077.11599999966,
      "d": 32.05131249999977,
      "v": 100
    },
    {
      "midi": 81,
      "hit": false,
      "t": 203077.11599999966,
      "d": 32.05131249999977,
      "v": 96
    },
    {
      "midi": 86,
      "hit": false,
      "t": 203077.11599999966,
      "d": 32.05131249999977,
      "v": 100
    },
    {
      "midi": 77,
      "hit": false,
      "t": 203119.851083333,
      "d": 32.05131249999977,
      "v": 22
    },
    {
      "midi": 82,
      "hit": false,
      "t": 203119.851083333,
      "d": 32.05131249999977,
      "v": 34
    },
    {
      "midi": 84,
      "hit": false,
      "t": 203119.851083333,
      "d": 32.05131249999977,
      "v": 29
    },
    {
      "midi": 89,
      "hit": false,
      "t": 203119.851083333,
      "d": 32.05131249999977,
      "v": 25
    },
    {
      "midi": 77,
      "hit": false,
      "t": 203173.26993749966,
      "d": 32.05131249999977,
      "v": 53
    },
    {
      "midi": 81,
      "hit": false,
      "t": 203173.26993749966,
      "d": 32.05131249999977,
      "v": 50
    },
    {
      "midi": 86,
      "hit": false,
      "t": 203173.26993749966,
      "d": 32.05131249999977,
      "v": 53
    },
    {
      "midi": 77,
      "hit": false,
      "t": 203205.32124999966,
      "d": 32.05131249999977,
      "v": 71
    },
    {
      "midi": 81,
      "hit": false,
      "t": 203205.32124999966,
      "d": 32.05131249999977,
      "v": 108
    },
    {
      "midi": 86,
      "hit": false,
      "t": 203205.32124999966,
      "d": 32.05131249999977,
      "v": 93
    },
    {
      "midi": 77,
      "hit": false,
      "t": 203248.056333333,
      "d": 32.05131249999977,
      "v": 27
    },
    {
      "midi": 81,
      "hit": false,
      "t": 203248.056333333,
      "d": 32.05131249999977,
      "v": 25
    },
    {
      "midi": 86,
      "hit": false,
      "t": 203248.056333333,
      "d": 32.05131249999977,
      "v": 27
    },
    {
      "midi": 77,
      "hit": false,
      "t": 203301.47518749966,
      "d": 32.05131249999977,
      "v": 38
    },
    {
      "midi": 81,
      "hit": false,
      "t": 203301.47518749966,
      "d": 32.05131249999977,
      "v": 57
    },
    {
      "midi": 86,
      "hit": false,
      "t": 203301.47518749966,
      "d": 32.05131249999977,
      "v": 50
    },
    {
      "midi": 77,
      "hit": false,
      "t": 203376.261583333,
      "d": 32.05131249999977,
      "v": 19
    },
    {
      "midi": 81,
      "hit": false,
      "t": 203376.261583333,
      "d": 32.05131249999977,
      "v": 29
    },
    {
      "midi": 86,
      "hit": false,
      "t": 203376.261583333,
      "d": 32.05131249999977,
      "v": 25
    },
    {
      "midi": 77,
      "hit": false,
      "t": 203461.73174999966,
      "d": 32.05131249999977,
      "v": 93
    },
    {
      "midi": 81,
      "hit": false,
      "t": 203461.73174999966,
      "d": 32.05131249999977,
      "v": 123
    },
    {
      "midi": 86,
      "hit": false,
      "t": 203461.73174999966,
      "d": 32.05131249999977,
      "v": 78
    },
    {
      "midi": 77,
      "hit": false,
      "t": 203557.88568749966,
      "d": 32.05131249999977,
      "v": 50
    },
    {
      "midi": 81,
      "hit": false,
      "t": 203557.88568749966,
      "d": 32.05131249999977,
      "v": 65
    },
    {
      "midi": 86,
      "hit": false,
      "t": 203557.88568749966,
      "d": 32.05131249999977,
      "v": 41
    },
    {
      "midi": 77,
      "hit": false,
      "t": 203589.93699999966,
      "d": 32.05131249999977,
      "v": 111
    },
    {
      "midi": 81,
      "hit": false,
      "t": 203589.93699999966,
      "d": 32.05131249999977,
      "v": 127
    },
    {
      "midi": 86,
      "hit": false,
      "t": 203589.93699999966,
      "d": 32.05131249999977,
      "v": 106
    },
    {
      "midi": 77,
      "hit": false,
      "t": 203632.672083333,
      "d": 32.05131249999977,
      "v": 25
    },
    {
      "midi": 81,
      "hit": false,
      "t": 203632.672083333,
      "d": 32.05131249999977,
      "v": 33
    },
    {
      "midi": 86,
      "hit": false,
      "t": 203632.672083333,
      "d": 32.05131249999977,
      "v": 21
    },
    {
      "midi": 77,
      "hit": false,
      "t": 203686.09093749966,
      "d": 32.05131249999977,
      "v": 59
    },
    {
      "midi": 81,
      "hit": false,
      "t": 203686.09093749966,
      "d": 32.05131249999977,
      "v": 67
    },
    {
      "midi": 86,
      "hit": false,
      "t": 203686.09093749966,
      "d": 32.05131249999977,
      "v": 56
    },
    {
      "midi": 77,
      "hit": false,
      "t": 203760.877333333,
      "d": 32.05131249999977,
      "v": 29
    },
    {
      "midi": 81,
      "hit": false,
      "t": 203760.877333333,
      "d": 32.05131249999977,
      "v": 34
    },
    {
      "midi": 86,
      "hit": false,
      "t": 203760.877333333,
      "d": 32.05131249999977,
      "v": 29
    },
    {
      "midi": 77,
      "hit": false,
      "t": 203846.34749999965,
      "d": 32.05131249999977,
      "v": 117
    },
    {
      "midi": 81,
      "hit": false,
      "t": 203846.34749999965,
      "d": 32.05131249999977,
      "v": 127
    },
    {
      "midi": 86,
      "hit": false,
      "t": 203846.34749999965,
      "d": 32.05131249999977,
      "v": 93
    },
    {
      "midi": 77,
      "hit": false,
      "t": 203942.50143749965,
      "d": 32.05131249999977,
      "v": 62
    },
    {
      "midi": 81,
      "hit": false,
      "t": 203942.50143749965,
      "d": 32.05131249999977,
      "v": 67
    },
    {
      "midi": 86,
      "hit": false,
      "t": 203942.50143749965,
      "d": 32.05131249999977,
      "v": 50
    },
    {
      "midi": 77,
      "hit": false,
      "t": 203974.55274999965,
      "d": 32.05131249999977,
      "v": 108
    },
    {
      "midi": 81,
      "hit": false,
      "t": 203974.55274999965,
      "d": 32.05131249999977,
      "v": 127
    },
    {
      "midi": 86,
      "hit": false,
      "t": 203974.55274999965,
      "d": 32.05131249999977,
      "v": 100
    },
    {
      "midi": 77,
      "hit": false,
      "t": 204017.287833333,
      "d": 32.05131249999977,
      "v": 32
    },
    {
      "midi": 81,
      "hit": false,
      "t": 204017.287833333,
      "d": 32.05131249999977,
      "v": 34
    },
    {
      "midi": 86,
      "hit": false,
      "t": 204017.287833333,
      "d": 32.05131249999977,
      "v": 25
    },
    {
      "midi": 77,
      "hit": false,
      "t": 204070.70668749965,
      "d": 32.05131249999977,
      "v": 57
    },
    {
      "midi": 81,
      "hit": false,
      "t": 204070.70668749965,
      "d": 32.05131249999977,
      "v": 67
    },
    {
      "midi": 86,
      "hit": false,
      "t": 204070.70668749965,
      "d": 32.05131249999977,
      "v": 53
    },
    {
      "midi": 77,
      "hit": false,
      "t": 204145.49308333299,
      "d": 32.05131249999977,
      "v": 29
    },
    {
      "midi": 81,
      "hit": false,
      "t": 204145.49308333299,
      "d": 32.05131249999977,
      "v": 34
    },
    {
      "midi": 86,
      "hit": false,
      "t": 204145.49308333299,
      "d": 32.05131249999977,
      "v": 27
    },
    {
      "midi": 77,
      "hit": false,
      "t": 204230.96324999965,
      "d": 32.05131249999977,
      "v": 120
    },
    {
      "midi": 81,
      "hit": false,
      "t": 204230.96324999965,
      "d": 32.05131249999977,
      "v": 127
    },
    {
      "midi": 86,
      "hit": false,
      "t": 204230.96324999965,
      "d": 32.05131249999977,
      "v": 100
    },
    {
      "midi": 77,
      "hit": false,
      "t": 204327.11718749965,
      "d": 32.05131249999977,
      "v": 63
    },
    {
      "midi": 81,
      "hit": false,
      "t": 204327.11718749965,
      "d": 32.05131249999977,
      "v": 67
    },
    {
      "midi": 86,
      "hit": false,
      "t": 204327.11718749965,
      "d": 32.05131249999977,
      "v": 53
    },
    {
      "midi": 77,
      "hit": false,
      "t": 204401.90358333298,
      "d": 32.05131249999977,
      "v": 32
    },
    {
      "midi": 81,
      "hit": false,
      "t": 204401.90358333298,
      "d": 32.05131249999977,
      "v": 34
    },
    {
      "midi": 86,
      "hit": false,
      "t": 204401.90358333298,
      "d": 32.05131249999977,
      "v": 27
    },
    {
      "midi": 77,
      "hit": false,
      "t": 204487.37374999965,
      "d": 32.05131249999977,
      "v": 98
    },
    {
      "midi": 81,
      "hit": false,
      "t": 204487.37374999965,
      "d": 32.05131249999977,
      "v": 127
    },
    {
      "midi": 86,
      "hit": false,
      "t": 204487.37374999965,
      "d": 32.05131249999977,
      "v": 89
    },
    {
      "midi": 77,
      "hit": false,
      "t": 204583.52768749965,
      "d": 32.05131249999977,
      "v": 52
    },
    {
      "midi": 81,
      "hit": false,
      "t": 204583.52768749965,
      "d": 32.05131249999977,
      "v": 67
    },
    {
      "midi": 86,
      "hit": false,
      "t": 204583.52768749965,
      "d": 32.05131249999977,
      "v": 48
    },
    {
      "midi": 77,
      "hit": false,
      "t": 204615.57899999965,
      "d": 32.05131249999977,
      "v": 113
    },
    {
      "midi": 81,
      "hit": false,
      "t": 204615.57899999965,
      "d": 32.05131249999977,
      "v": 127
    },
    {
      "midi": 86,
      "hit": false,
      "t": 204615.57899999965,
      "d": 32.05131249999977,
      "v": 100
    },
    {
      "midi": 77,
      "hit": false,
      "t": 204658.31408333298,
      "d": 32.05131249999977,
      "v": 27
    },
    {
      "midi": 81,
      "hit": false,
      "t": 204658.31408333298,
      "d": 32.05131249999977,
      "v": 34
    },
    {
      "midi": 86,
      "hit": false,
      "t": 204658.31408333298,
      "d": 32.05131249999977,
      "v": 25
    },
    {
      "midi": 77,
      "hit": false,
      "t": 204711.73293749965,
      "d": 32.05131249999977,
      "v": 60
    },
    {
      "midi": 81,
      "hit": false,
      "t": 204711.73293749965,
      "d": 32.05131249999977,
      "v": 67
    },
    {
      "midi": 86,
      "hit": false,
      "t": 204711.73293749965,
      "d": 32.05131249999977,
      "v": 53
    },
    {
      "midi": 77,
      "hit": false,
      "t": 204743.78424999965,
      "d": 32.05131249999977,
      "v": 106
    },
    {
      "midi": 81,
      "hit": false,
      "t": 204743.78424999965,
      "d": 32.05131249999977,
      "v": 126
    },
    {
      "midi": 86,
      "hit": false,
      "t": 204743.78424999965,
      "d": 32.05131249999977,
      "v": 98
    },
    {
      "midi": 77,
      "hit": false,
      "t": 204786.51933333298,
      "d": 32.05131249999977,
      "v": 31
    },
    {
      "midi": 81,
      "hit": false,
      "t": 204786.51933333298,
      "d": 32.05131249999977,
      "v": 34
    },
    {
      "midi": 86,
      "hit": false,
      "t": 204786.51933333298,
      "d": 32.05131249999977,
      "v": 27
    },
    {
      "midi": 77,
      "hit": false,
      "t": 204839.93818749965,
      "d": 32.05131249999977,
      "v": 56
    },
    {
      "midi": 81,
      "hit": false,
      "t": 204839.93818749965,
      "d": 32.05131249999977,
      "v": 67
    },
    {
      "midi": 86,
      "hit": false,
      "t": 204839.93818749965,
      "d": 32.05131249999977,
      "v": 52
    },
    {
      "midi": 77,
      "hit": false,
      "t": 204914.72458333298,
      "d": 32.05131249999977,
      "v": 29
    },
    {
      "midi": 81,
      "hit": false,
      "t": 204914.72458333298,
      "d": 32.05131249999977,
      "v": 34
    },
    {
      "midi": 86,
      "hit": false,
      "t": 204914.72458333298,
      "d": 32.05131249999977,
      "v": 27
    },
    {
      "midi": 77,
      "hit": false,
      "t": 205000.19474999965,
      "d": 32.05131249999977,
      "v": 113
    },
    {
      "midi": 79,
      "hit": false,
      "t": 205000.19474999965,
      "d": 32.05131249999977,
      "v": 127
    },
    {
      "midi": 86,
      "hit": false,
      "t": 205000.19474999965,
      "d": 32.05131249999977,
      "v": 86
    },
    {
      "midi": 77,
      "hit": false,
      "t": 205096.34868749965,
      "d": 32.05131249999977,
      "v": 60
    },
    {
      "midi": 79,
      "hit": false,
      "t": 205096.34868749965,
      "d": 32.05131249999977,
      "v": 67
    },
    {
      "midi": 86,
      "hit": false,
      "t": 205096.34868749965,
      "d": 32.05131249999977,
      "v": 46
    },
    {
      "midi": 77,
      "hit": false,
      "t": 205128.39999999964,
      "d": 32.05131249999977,
      "v": 111
    },
    {
      "midi": 79,
      "hit": false,
      "t": 205128.39999999964,
      "d": 32.05131249999977,
      "v": 127
    },
    {
      "midi": 86,
      "hit": false,
      "t": 205128.39999999964,
      "d": 32.05131249999977,
      "v": 93
    },
    {
      "midi": 77,
      "hit": false,
      "t": 205171.13508333298,
      "d": 32.05131249999977,
      "v": 31
    },
    {
      "midi": 79,
      "hit": false,
      "t": 205171.13508333298,
      "d": 32.05131249999977,
      "v": 34
    },
    {
      "midi": 86,
      "hit": false,
      "t": 205171.13508333298,
      "d": 32.05131249999977,
      "v": 23
    },
    {
      "midi": 77,
      "hit": false,
      "t": 205224.55393749964,
      "d": 32.05131249999977,
      "v": 59
    },
    {
      "midi": 79,
      "hit": false,
      "t": 205224.55393749964,
      "d": 32.05131249999977,
      "v": 67
    },
    {
      "midi": 86,
      "hit": false,
      "t": 205224.55393749964,
      "d": 32.05131249999977,
      "v": 50
    },
    {
      "midi": 77,
      "hit": false,
      "t": 205299.34033333298,
      "d": 32.05131249999977,
      "v": 29
    },
    {
      "midi": 79,
      "hit": false,
      "t": 205299.34033333298,
      "d": 32.05131249999977,
      "v": 34
    },
    {
      "midi": 86,
      "hit": false,
      "t": 205299.34033333298,
      "d": 32.05131249999977,
      "v": 25
    },
    {
      "midi": 77,
      "hit": false,
      "t": 205384.81049999964,
      "d": 32.05131249999977,
      "v": 113
    },
    {
      "midi": 79,
      "hit": false,
      "t": 205384.81049999964,
      "d": 32.05131249999977,
      "v": 127
    },
    {
      "midi": 86,
      "hit": false,
      "t": 205384.81049999964,
      "d": 32.05131249999977,
      "v": 91
    },
    {
      "midi": 77,
      "hit": false,
      "t": 205480.96443749964,
      "d": 32.05131249999977,
      "v": 60
    },
    {
      "midi": 79,
      "hit": false,
      "t": 205480.96443749964,
      "d": 32.05131249999977,
      "v": 67
    },
    {
      "midi": 86,
      "hit": false,
      "t": 205480.96443749964,
      "d": 32.05131249999977,
      "v": 48
    },
    {
      "midi": 77,
      "hit": false,
      "t": 205513.01574999964,
      "d": 32.05131249999977,
      "v": 117
    },
    {
      "midi": 79,
      "hit": false,
      "t": 205513.01574999964,
      "d": 32.05131249999977,
      "v": 127
    },
    {
      "midi": 86,
      "hit": false,
      "t": 205513.01574999964,
      "d": 32.05131249999977,
      "v": 103
    },
    {
      "midi": 77,
      "hit": false,
      "t": 205555.75083333298,
      "d": 32.05131249999977,
      "v": 31
    },
    {
      "midi": 79,
      "hit": false,
      "t": 205555.75083333298,
      "d": 32.05131249999977,
      "v": 34
    },
    {
      "midi": 86,
      "hit": false,
      "t": 205555.75083333298,
      "d": 32.05131249999977,
      "v": 25
    },
    {
      "midi": 77,
      "hit": false,
      "t": 205609.16968749964,
      "d": 32.05131249999977,
      "v": 62
    },
    {
      "midi": 79,
      "hit": false,
      "t": 205609.16968749964,
      "d": 32.05131249999977,
      "v": 67
    },
    {
      "midi": 86,
      "hit": false,
      "t": 205609.16968749964,
      "d": 32.05131249999977,
      "v": 55
    },
    {
      "midi": 77,
      "hit": false,
      "t": 205683.95608333297,
      "d": 32.05131249999977,
      "v": 32
    },
    {
      "midi": 79,
      "hit": false,
      "t": 205683.95608333297,
      "d": 32.05131249999977,
      "v": 34
    },
    {
      "midi": 86,
      "hit": false,
      "t": 205683.95608333297,
      "d": 32.05131249999977,
      "v": 27
    },
    {
      "midi": 77,
      "hit": false,
      "t": 205897.63149999964,
      "d": 32.05131249999977,
      "v": 117
    },
    {
      "midi": 79,
      "hit": false,
      "t": 205897.63149999964,
      "d": 32.05131249999977,
      "v": 127
    },
    {
      "midi": 86,
      "hit": false,
      "t": 205897.63149999964,
      "d": 32.05131249999977,
      "v": 85
    },
    {
      "midi": 77,
      "hit": false,
      "t": 205993.78543749964,
      "d": 32.05131249999977,
      "v": 62
    },
    {
      "midi": 79,
      "hit": false,
      "t": 205993.78543749964,
      "d": 32.05131249999977,
      "v": 67
    },
    {
      "midi": 86,
      "hit": false,
      "t": 205993.78543749964,
      "d": 32.05131249999977,
      "v": 46
    },
    {
      "midi": 77,
      "hit": false,
      "t": 206025.83674999964,
      "d": 32.05131249999977,
      "v": 113
    },
    {
      "midi": 79,
      "hit": false,
      "t": 206025.83674999964,
      "d": 32.05131249999977,
      "v": 127
    },
    {
      "midi": 86,
      "hit": false,
      "t": 206025.83674999964,
      "d": 32.05131249999977,
      "v": 100
    },
    {
      "midi": 77,
      "hit": false,
      "t": 206068.57183333297,
      "d": 32.05131249999977,
      "v": 32
    },
    {
      "midi": 79,
      "hit": false,
      "t": 206068.57183333297,
      "d": 32.05131249999977,
      "v": 34
    },
    {
      "midi": 86,
      "hit": false,
      "t": 206068.57183333297,
      "d": 32.05131249999977,
      "v": 23
    },
    {
      "midi": 77,
      "hit": false,
      "t": 206121.99068749964,
      "d": 32.05131250002887,
      "v": 60
    },
    {
      "midi": 79,
      "hit": false,
      "t": 206121.99068749964,
      "d": 32.05131250002887,
      "v": 67
    },
    {
      "midi": 86,
      "hit": false,
      "t": 206121.99068749964,
      "d": 32.05131250002887,
      "v": 53
    },
    {
      "midi": 77,
      "hit": false,
      "t": 206196.777083333,
      "d": 32.05131249999977,
      "v": 31
    },
    {
      "midi": 79,
      "hit": false,
      "t": 206196.777083333,
      "d": 32.05131249999977,
      "v": 34
    },
    {
      "midi": 86,
      "hit": false,
      "t": 206196.777083333,
      "d": 32.05131249999977,
      "v": 27
    },
    {
      "midi": 77,
      "hit": false,
      "t": 206282.24724999967,
      "d": 32.05131249999977,
      "v": 106
    },
    {
      "midi": 79,
      "hit": false,
      "t": 206282.24724999967,
      "d": 32.05131249999977,
      "v": 127
    },
    {
      "midi": 86,
      "hit": false,
      "t": 206282.24724999967,
      "d": 32.05131249999977,
      "v": 91
    },
    {
      "midi": 77,
      "hit": false,
      "t": 206378.40118749966,
      "d": 32.05131249999977,
      "v": 56
    },
    {
      "midi": 79,
      "hit": false,
      "t": 206378.40118749966,
      "d": 32.05131249999977,
      "v": 67
    },
    {
      "midi": 86,
      "hit": false,
      "t": 206378.40118749966,
      "d": 32.05131249999977,
      "v": 48
    },
    {
      "midi": 77,
      "hit": false,
      "t": 206453.187583333,
      "d": 32.05131249999977,
      "v": 29
    },
    {
      "midi": 79,
      "hit": false,
      "t": 206453.187583333,
      "d": 32.05131249999977,
      "v": 34
    },
    {
      "midi": 86,
      "hit": false,
      "t": 206453.187583333,
      "d": 32.05131249999977,
      "v": 25
    },
    {
      "midi": 77,
      "hit": false,
      "t": 206538.65774999966,
      "d": 32.05131249999977,
      "v": 108
    },
    {
      "midi": 79,
      "hit": false,
      "t": 206538.65774999966,
      "d": 32.05131249999977,
      "v": 127
    },
    {
      "midi": 86,
      "hit": false,
      "t": 206538.65774999966,
      "d": 32.05131249999977,
      "v": 82
    },
    {
      "midi": 77,
      "hit": false,
      "t": 206634.81168749966,
      "d": 32.05131249999977,
      "v": 57
    },
    {
      "midi": 79,
      "hit": false,
      "t": 206634.81168749966,
      "d": 32.05131249999977,
      "v": 67
    },
    {
      "midi": 86,
      "hit": false,
      "t": 206634.81168749966,
      "d": 32.05131249999977,
      "v": 43
    },
    {
      "midi": 77,
      "hit": false,
      "t": 206666.86299999966,
      "d": 32.05131249999977,
      "v": 117
    },
    {
      "midi": 79,
      "hit": false,
      "t": 206666.86299999966,
      "d": 32.05131249999977,
      "v": 127
    },
    {
      "midi": 86,
      "hit": false,
      "t": 206666.86299999966,
      "d": 32.05131249999977,
      "v": 100
    },
    {
      "midi": 77,
      "hit": false,
      "t": 206709.598083333,
      "d": 32.05131249999977,
      "v": 29
    },
    {
      "midi": 79,
      "hit": false,
      "t": 206709.598083333,
      "d": 32.05131249999977,
      "v": 34
    },
    {
      "midi": 86,
      "hit": false,
      "t": 206709.598083333,
      "d": 32.05131249999977,
      "v": 22
    },
    {
      "midi": 77,
      "hit": false,
      "t": 206763.01693749966,
      "d": 32.05131249999977,
      "v": 62
    },
    {
      "midi": 79,
      "hit": false,
      "t": 206763.01693749966,
      "d": 32.05131249999977,
      "v": 67
    },
    {
      "midi": 86,
      "hit": false,
      "t": 206763.01693749966,
      "d": 32.05131249999977,
      "v": 53
    },
    {
      "midi": 77,
      "hit": false,
      "t": 206837.803333333,
      "d": 32.05131249999977,
      "v": 32
    },
    {
      "midi": 79,
      "hit": false,
      "t": 206837.803333333,
      "d": 32.05131249999977,
      "v": 34
    },
    {
      "midi": 86,
      "hit": false,
      "t": 206837.803333333,
      "d": 32.05131249999977,
      "v": 27
    },
    {
      "midi": 77,
      "hit": false,
      "t": 206923.27349999966,
      "d": 32.05131249999977,
      "v": 111
    },
    {
      "midi": 79,
      "hit": false,
      "t": 206923.27349999966,
      "d": 32.05131249999977,
      "v": 127
    },
    {
      "midi": 86,
      "hit": false,
      "t": 206923.27349999966,
      "d": 32.05131249999977,
      "v": 85
    },
    {
      "midi": 77,
      "hit": false,
      "t": 207019.42743749966,
      "d": 32.05131249999977,
      "v": 59
    },
    {
      "midi": 79,
      "hit": false,
      "t": 207019.42743749966,
      "d": 32.05131249999977,
      "v": 67
    },
    {
      "midi": 86,
      "hit": false,
      "t": 207019.42743749966,
      "d": 32.05131249999977,
      "v": 46
    },
    {
      "midi": 77,
      "hit": false,
      "t": 207051.47874999966,
      "d": 32.05131249999977,
      "v": 86
    },
    {
      "midi": 86,
      "hit": false,
      "t": 207051.47874999966,
      "d": 32.05131249999977,
      "v": 86
    },
    {
      "midi": 77,
      "hit": false,
      "t": 207094.213833333,
      "d": 32.05131249999977,
      "v": 29
    },
    {
      "midi": 79,
      "hit": false,
      "t": 207094.213833333,
      "d": 32.05131249999977,
      "v": 34
    },
    {
      "midi": 86,
      "hit": false,
      "t": 207094.213833333,
      "d": 32.05131249999977,
      "v": 23
    },
    {
      "midi": 77,
      "hit": false,
      "t": 207147.63268749966,
      "d": 32.05131249999977,
      "v": 46
    },
    {
      "midi": 86,
      "hit": false,
      "t": 207147.63268749966,
      "d": 32.05131249999977,
      "v": 46
    },
    {
      "midi": 77,
      "hit": false,
      "t": 207179.68399999966,
      "d": 32.05131249999977,
      "v": 106
    },
    {
      "midi": 80,
      "hit": false,
      "t": 207179.68399999966,
      "d": 32.05131249999977,
      "v": 78
    },
    {
      "midi": 82,
      "hit": false,
      "t": 207179.68399999966,
      "d": 32.05131249999977,
      "v": 127
    },
    {
      "midi": 86,
      "hit": false,
      "t": 207179.68399999966,
      "d": 32.05131249999977,
      "v": 80
    },
    {
      "midi": 89,
      "hit": false,
      "t": 207179.68399999966,
      "d": 32.05131249999977,
      "v": 93
    },
    {
      "midi": 77,
      "hit": false,
      "t": 207222.419083333,
      "d": 32.05131249999977,
      "v": 23
    },
    {
      "midi": 86,
      "hit": false,
      "t": 207222.419083333,
      "d": 32.05131249999977,
      "v": 23
    },
    {
      "midi": 77,
      "hit": false,
      "t": 207275.83793749966,
      "d": 32.05131249999977,
      "v": 56
    },
    {
      "midi": 80,
      "hit": false,
      "t": 207275.83793749966,
      "d": 32.05131249999977,
      "v": 41
    },
    {
      "midi": 82,
      "hit": false,
      "t": 207275.83793749966,
      "d": 32.05131249999977,
      "v": 67
    },
    {
      "midi": 86,
      "hit": false,
      "t": 207275.83793749966,
      "d": 32.05131249999977,
      "v": 42
    },
    {
      "midi": 89,
      "hit": false,
      "t": 207275.83793749966,
      "d": 32.05131249999977,
      "v": 50
    },
    {
      "midi": 77,
      "hit": false,
      "t": 207307.88924999966,
      "d": 32.05131249999977,
      "v": 98
    },
    {
      "midi": 82,
      "hit": false,
      "t": 207307.88924999966,
      "d": 32.05131249999977,
      "v": 127
    },
    {
      "midi": 86,
      "hit": false,
      "t": 207307.88924999966,
      "d": 32.05131249999977,
      "v": 89
    },
    {
      "midi": 89,
      "hit": false,
      "t": 207307.88924999966,
      "d": 32.05131249999977,
      "v": 93
    },
    {
      "midi": 77,
      "hit": false,
      "t": 207350.624333333,
      "d": 32.05131249999977,
      "v": 29
    },
    {
      "midi": 80,
      "hit": false,
      "t": 207350.624333333,
      "d": 32.05131249999977,
      "v": 21
    },
    {
      "midi": 82,
      "hit": false,
      "t": 207350.624333333,
      "d": 32.05131249999977,
      "v": 34
    },
    {
      "midi": 86,
      "hit": false,
      "t": 207350.624333333,
      "d": 32.05131249999977,
      "v": 21
    },
    {
      "midi": 89,
      "hit": false,
      "t": 207350.624333333,
      "d": 32.05131249999977,
      "v": 25
    },
    {
      "midi": 77,
      "hit": false,
      "t": 207404.04318749966,
      "d": 32.05131249999977,
      "v": 52
    },
    {
      "midi": 82,
      "hit": false,
      "t": 207404.04318749966,
      "d": 32.05131249999977,
      "v": 67
    },
    {
      "midi": 86,
      "hit": false,
      "t": 207404.04318749966,
      "d": 32.05131249999977,
      "v": 48
    },
    {
      "midi": 89,
      "hit": false,
      "t": 207404.04318749966,
      "d": 32.05131249999977,
      "v": 50
    },
    {
      "midi": 77,
      "hit": false,
      "t": 207478.829583333,
      "d": 32.05131249999977,
      "v": 27
    },
    {
      "midi": 82,
      "hit": false,
      "t": 207478.829583333,
      "d": 32.05131249999977,
      "v": 34
    },
    {
      "midi": 86,
      "hit": false,
      "t": 207478.829583333,
      "d": 32.05131249999977,
      "v": 25
    },
    {
      "midi": 89,
      "hit": false,
      "t": 207478.829583333,
      "d": 32.05131249999977,
      "v": 25
    },
    {
      "midi": 77,
      "hit": false,
      "t": 207564.29974999966,
      "d": 32.05131249999977,
      "v": 117
    },
    {
      "midi": 82,
      "hit": false,
      "t": 207564.29974999966,
      "d": 32.05131249999977,
      "v": 127
    },
    {
      "midi": 86,
      "hit": false,
      "t": 207564.29974999966,
      "d": 32.05131249999977,
      "v": 86
    },
    {
      "midi": 89,
      "hit": false,
      "t": 207564.29974999966,
      "d": 32.05131249999977,
      "v": 93
    },
    {
      "midi": 77,
      "hit": false,
      "t": 207660.45368749966,
      "d": 32.05131249999977,
      "v": 62
    },
    {
      "midi": 82,
      "hit": false,
      "t": 207660.45368749966,
      "d": 32.05131249999977,
      "v": 67
    },
    {
      "midi": 86,
      "hit": false,
      "t": 207660.45368749966,
      "d": 32.05131249999977,
      "v": 46
    },
    {
      "midi": 89,
      "hit": false,
      "t": 207660.45368749966,
      "d": 32.05131249999977,
      "v": 50
    },
    {
      "midi": 77,
      "hit": false,
      "t": 207735.240083333,
      "d": 32.05131249999977,
      "v": 32
    },
    {
      "midi": 82,
      "hit": false,
      "t": 207735.240083333,
      "d": 32.05131249999977,
      "v": 34
    },
    {
      "midi": 86,
      "hit": false,
      "t": 207735.240083333,
      "d": 32.05131249999977,
      "v": 23
    },
    {
      "midi": 89,
      "hit": false,
      "t": 207735.240083333,
      "d": 32.05131249999977,
      "v": 25
    },
    {
      "midi": 77,
      "hit": false,
      "t": 207820.71024999965,
      "d": 32.05131249999977,
      "v": 106
    },
    {
      "midi": 82,
      "hit": false,
      "t": 207820.71024999965,
      "d": 32.05131249999977,
      "v": 127
    },
    {
      "midi": 86,
      "hit": false,
      "t": 207820.71024999965,
      "d": 32.05131249999977,
      "v": 80
    },
    {
      "midi": 89,
      "hit": false,
      "t": 207820.71024999965,
      "d": 32.05131249999977,
      "v": 93
    },
    {
      "midi": 77,
      "hit": false,
      "t": 207916.86418749965,
      "d": 32.05131249999977,
      "v": 56
    },
    {
      "midi": 82,
      "hit": false,
      "t": 207916.86418749965,
      "d": 32.05131249999977,
      "v": 67
    },
    {
      "midi": 86,
      "hit": false,
      "t": 207916.86418749965,
      "d": 32.05131249999977,
      "v": 42
    },
    {
      "midi": 89,
      "hit": false,
      "t": 207916.86418749965,
      "d": 32.05131249999977,
      "v": 50
    },
    {
      "midi": 77,
      "hit": false,
      "t": 207948.91549999965,
      "d": 32.05131249999977,
      "v": 89
    },
    {
      "midi": 82,
      "hit": false,
      "t": 207948.91549999965,
      "d": 32.05131249999977,
      "v": 127
    },
    {
      "midi": 86,
      "hit": false,
      "t": 207948.91549999965,
      "d": 32.05131249999977,
      "v": 83
    },
    {
      "midi": 89,
      "hit": false,
      "t": 207948.91549999965,
      "d": 32.05131249999977,
      "v": 93
    },
    {
      "midi": 77,
      "hit": false,
      "t": 207991.650583333,
      "d": 32.05131249999977,
      "v": 29
    },
    {
      "midi": 82,
      "hit": false,
      "t": 207991.650583333,
      "d": 32.05131249999977,
      "v": 34
    },
    {
      "midi": 86,
      "hit": false,
      "t": 207991.650583333,
      "d": 32.05131249999977,
      "v": 21
    },
    {
      "midi": 89,
      "hit": false,
      "t": 207991.650583333,
      "d": 32.05131249999977,
      "v": 25
    },
    {
      "midi": 77,
      "hit": false,
      "t": 208045.06943749965,
      "d": 32.05131249999977,
      "v": 48
    },
    {
      "midi": 82,
      "hit": false,
      "t": 208045.06943749965,
      "d": 32.05131249999977,
      "v": 67
    },
    {
      "midi": 86,
      "hit": false,
      "t": 208045.06943749965,
      "d": 32.05131249999977,
      "v": 44
    },
    {
      "midi": 89,
      "hit": false,
      "t": 208045.06943749965,
      "d": 32.05131249999977,
      "v": 50
    },
    {
      "midi": 77,
      "hit": false,
      "t": 208077.12074999965,
      "d": 32.05131249999977,
      "v": 103
    },
    {
      "midi": 82,
      "hit": false,
      "t": 208077.12074999965,
      "d": 32.05131249999977,
      "v": 127
    },
    {
      "midi": 86,
      "hit": false,
      "t": 208077.12074999965,
      "d": 32.05131249999977,
      "v": 98
    },
    {
      "midi": 89,
      "hit": false,
      "t": 208077.12074999965,
      "d": 32.05131249999977,
      "v": 93
    },
    {
      "midi": 77,
      "hit": false,
      "t": 208119.855833333,
      "d": 32.05131249999977,
      "v": 25
    },
    {
      "midi": 82,
      "hit": false,
      "t": 208119.855833333,
      "d": 32.05131249999977,
      "v": 34
    },
    {
      "midi": 86,
      "hit": false,
      "t": 208119.855833333,
      "d": 32.05131249999977,
      "v": 22
    },
    {
      "midi": 89,
      "hit": false,
      "t": 208119.855833333,
      "d": 32.05131249999977,
      "v": 25
    },
    {
      "midi": 77,
      "hit": false,
      "t": 208173.27468749965,
      "d": 32.05131249999977,
      "v": 55
    },
    {
      "midi": 82,
      "hit": false,
      "t": 208173.27468749965,
      "d": 32.05131249999977,
      "v": 67
    },
    {
      "midi": 86,
      "hit": false,
      "t": 208173.27468749965,
      "d": 32.05131249999977,
      "v": 52
    },
    {
      "midi": 89,
      "hit": false,
      "t": 208173.27468749965,
      "d": 32.05131249999977,
      "v": 50
    },
    {
      "midi": 77,
      "hit": false,
      "t": 208248.06108333298,
      "d": 32.05131249999977,
      "v": 27
    },
    {
      "midi": 82,
      "hit": false,
      "t": 208248.06108333298,
      "d": 32.05131249999977,
      "v": 34
    },
    {
      "midi": 86,
      "hit": false,
      "t": 208248.06108333298,
      "d": 32.05131249999977,
      "v": 27
    },
    {
      "midi": 89,
      "hit": false,
      "t": 208248.06108333298,
      "d": 32.05131249999977,
      "v": 25
    },
    {
      "midi": 77,
      "hit": false,
      "t": 208333.53124999965,
      "d": 32.05131249999977,
      "v": 111
    },
    {
      "midi": 82,
      "hit": false,
      "t": 208333.53124999965,
      "d": 32.05131249999977,
      "v": 127
    },
    {
      "midi": 86,
      "hit": false,
      "t": 208333.53124999965,
      "d": 32.05131249999977,
      "v": 93
    },
    {
      "midi": 89,
      "hit": false,
      "t": 208333.53124999965,
      "d": 32.05131249999977,
      "v": 93
    },
    {
      "midi": 77,
      "hit": false,
      "t": 208429.68518749965,
      "d": 32.05131249999977,
      "v": 59
    },
    {
      "midi": 82,
      "hit": false,
      "t": 208429.68518749965,
      "d": 32.05131249999977,
      "v": 67
    },
    {
      "midi": 86,
      "hit": false,
      "t": 208429.68518749965,
      "d": 32.05131249999977,
      "v": 50
    },
    {
      "midi": 89,
      "hit": false,
      "t": 208429.68518749965,
      "d": 32.05131249999977,
      "v": 50
    },
    {
      "midi": 77,
      "hit": false,
      "t": 208504.47158333298,
      "d": 32.05131249999977,
      "v": 29
    },
    {
      "midi": 82,
      "hit": false,
      "t": 208504.47158333298,
      "d": 32.05131249999977,
      "v": 34
    },
    {
      "midi": 86,
      "hit": false,
      "t": 208504.47158333298,
      "d": 32.05131249999977,
      "v": 25
    },
    {
      "midi": 89,
      "hit": false,
      "t": 208504.47158333298,
      "d": 32.05131249999977,
      "v": 25
    },
    {
      "midi": 77,
      "hit": false,
      "t": 208589.94174999965,
      "d": 32.05131249999977,
      "v": 117
    },
    {
      "midi": 82,
      "hit": false,
      "t": 208589.94174999965,
      "d": 32.05131249999977,
      "v": 127
    },
    {
      "midi": 86,
      "hit": false,
      "t": 208589.94174999965,
      "d": 32.05131249999977,
      "v": 91
    },
    {
      "midi": 89,
      "hit": false,
      "t": 208589.94174999965,
      "d": 32.05131249999977,
      "v": 93
    },
    {
      "midi": 77,
      "hit": false,
      "t": 208686.09568749965,
      "d": 32.05131249999977,
      "v": 62
    },
    {
      "midi": 82,
      "hit": false,
      "t": 208686.09568749965,
      "d": 32.05131249999977,
      "v": 67
    },
    {
      "midi": 86,
      "hit": false,
      "t": 208686.09568749965,
      "d": 32.05131249999977,
      "v": 48
    },
    {
      "midi": 89,
      "hit": false,
      "t": 208686.09568749965,
      "d": 32.05131249999977,
      "v": 50
    },
    {
      "midi": 77,
      "hit": false,
      "t": 208718.14699999965,
      "d": 32.05131249999977,
      "v": 89
    },
    {
      "midi": 82,
      "hit": false,
      "t": 208718.14699999965,
      "d": 32.05131249999977,
      "v": 127
    },
    {
      "midi": 86,
      "hit": false,
      "t": 208718.14699999965,
      "d": 32.05131249999977,
      "v": 91
    },
    {
      "midi": 91,
      "hit": false,
      "t": 208718.14699999965,
      "d": 32.05131249999977,
      "v": 93
    },
    {
      "midi": 77,
      "hit": false,
      "t": 208760.88208333298,
      "d": 32.05131249999977,
      "v": 32
    },
    {
      "midi": 82,
      "hit": false,
      "t": 208760.88208333298,
      "d": 32.05131249999977,
      "v": 34
    },
    {
      "midi": 86,
      "hit": false,
      "t": 208760.88208333298,
      "d": 32.05131249999977,
      "v": 25
    },
    {
      "midi": 89,
      "hit": false,
      "t": 208760.88208333298,
      "d": 32.05131249999977,
      "v": 25
    },
    {
      "midi": 77,
      "hit": false,
      "t": 208814.30093749965,
      "d": 32.05131249999977,
      "v": 48
    },
    {
      "midi": 82,
      "hit": false,
      "t": 208814.30093749965,
      "d": 32.05131249999977,
      "v": 67
    },
    {
      "midi": 86,
      "hit": false,
      "t": 208814.30093749965,
      "d": 32.05131249999977,
      "v": 48
    },
    {
      "midi": 91,
      "hit": false,
      "t": 208814.30093749965,
      "d": 32.05131249999977,
      "v": 50
    },
    {
      "midi": 77,
      "hit": false,
      "t": 208889.08733333298,
      "d": 32.05131249999977,
      "v": 25
    },
    {
      "midi": 82,
      "hit": false,
      "t": 208889.08733333298,
      "d": 32.05131249999977,
      "v": 34
    },
    {
      "midi": 86,
      "hit": false,
      "t": 208889.08733333298,
      "d": 32.05131249999977,
      "v": 25
    },
    {
      "midi": 91,
      "hit": false,
      "t": 208889.08733333298,
      "d": 32.05131249999977,
      "v": 25
    },
    {
      "midi": 77,
      "hit": false,
      "t": 208974.55749999965,
      "d": 32.05131249999977,
      "v": 120
    },
    {
      "midi": 82,
      "hit": false,
      "t": 208974.55749999965,
      "d": 32.05131249999977,
      "v": 127
    },
    {
      "midi": 86,
      "hit": false,
      "t": 208974.55749999965,
      "d": 32.05131249999977,
      "v": 98
    },
    {
      "midi": 91,
      "hit": false,
      "t": 208974.55749999965,
      "d": 32.05131249999977,
      "v": 93
    },
    {
      "midi": 77,
      "hit": false,
      "t": 209070.71143749965,
      "d": 32.05131249999977,
      "v": 63
    },
    {
      "midi": 82,
      "hit": false,
      "t": 209070.71143749965,
      "d": 32.05131249999977,
      "v": 67
    },
    {
      "midi": 86,
      "hit": false,
      "t": 209070.71143749965,
      "d": 32.05131249999977,
      "v": 52
    },
    {
      "midi": 91,
      "hit": false,
      "t": 209070.71143749965,
      "d": 32.05131249999977,
      "v": 50
    },
    {
      "midi": 77,
      "hit": false,
      "t": 209102.76274999965,
      "d": 32.05131249999977,
      "v": 77
    },
    {
      "midi": 82,
      "hit": false,
      "t": 209102.76274999965,
      "d": 32.05131249999977,
      "v": 107
    },
    {
      "midi": 86,
      "hit": false,
      "t": 209102.76274999965,
      "d": 32.05131249999977,
      "v": 89
    },
    {
      "midi": 91,
      "hit": false,
      "t": 209102.76274999965,
      "d": 32.05131249999977,
      "v": 93
    },
    {
      "midi": 77,
      "hit": false,
      "t": 209145.49783333298,
      "d": 32.05131249999977,
      "v": 32
    },
    {
      "midi": 82,
      "hit": false,
      "t": 209145.49783333298,
      "d": 32.05131249999977,
      "v": 34
    },
    {
      "midi": 86,
      "hit": false,
      "t": 209145.49783333298,
      "d": 32.05131249999977,
      "v": 27
    },
    {
      "midi": 91,
      "hit": false,
      "t": 209145.49783333298,
      "d": 32.05131249999977,
      "v": 25
    },
    {
      "midi": 77,
      "hit": false,
      "t": 209198.91668749964,
      "d": 32.05131249999977,
      "v": 41
    },
    {
      "midi": 82,
      "hit": false,
      "t": 209198.91668749964,
      "d": 32.05131249999977,
      "v": 57
    },
    {
      "midi": 86,
      "hit": false,
      "t": 209198.91668749964,
      "d": 32.05131249999977,
      "v": 48
    },
    {
      "midi": 91,
      "hit": false,
      "t": 209198.91668749964,
      "d": 32.05131249999977,
      "v": 50
    },
    {
      "midi": 77,
      "hit": false,
      "t": 209230.96799999964,
      "d": 32.05131249999977,
      "v": 96
    },
    {
      "midi": 82,
      "hit": false,
      "t": 209230.96799999964,
      "d": 32.05131249999977,
      "v": 125
    },
    {
      "midi": 84,
      "hit": false,
      "t": 209230.96799999964,
      "d": 32.05131249999977,
      "v": 103
    },
    {
      "midi": 89,
      "hit": false,
      "t": 209230.96799999964,
      "d": 32.05131249999977,
      "v": 93
    },
    {
      "midi": 77,
      "hit": false,
      "t": 209273.70308333298,
      "d": 32.05131249999977,
      "v": 21
    },
    {
      "midi": 82,
      "hit": false,
      "t": 209273.70308333298,
      "d": 32.05131249999977,
      "v": 29
    },
    {
      "midi": 86,
      "hit": false,
      "t": 209273.70308333298,
      "d": 32.05131249999977,
      "v": 25
    },
    {
      "midi": 91,
      "hit": false,
      "t": 209273.70308333298,
      "d": 32.05131249999977,
      "v": 25
    },
    {
      "midi": 77,
      "hit": false,
      "t": 209327.12193749964,
      "d": 32.05131249999977,
      "v": 50
    },
    {
      "midi": 82,
      "hit": false,
      "t": 209327.12193749964,
      "d": 32.05131249999977,
      "v": 67
    },
    {
      "midi": 84,
      "hit": false,
      "t": 209327.12193749964,
      "d": 32.05131249999977,
      "v": 55
    },
    {
      "midi": 89,
      "hit": false,
      "t": 209327.12193749964,
      "d": 32.05131249999977,
      "v": 50
    },
    {
      "midi": 77,
      "hit": false,
      "t": 209359.17324999964,
      "d": 32.05131249999977,
      "v": 91
    },
    {
      "midi": 82,
      "hit": false,
      "t": 209359.17324999964,
      "d": 32.05131249999977,
      "v": 125
    },
    {
      "midi": 84,
      "hit": false,
      "t": 209359.17324999964,
      "d": 32.05131249999977,
      "v": 100
    },
    {
      "midi": 89,
      "hit": false,
      "t": 209359.17324999964,
      "d": 32.05131249999977,
      "v": 93
    },
    {
      "midi": 77,
      "hit": false,
      "t": 209401.90833333298,
      "d": 32.05131249999977,
      "v": 25
    },
    {
      "midi": 82,
      "hit": false,
      "t": 209401.90833333298,
      "d": 32.05131249999977,
      "v": 34
    },
    {
      "midi": 84,
      "hit": false,
      "t": 209401.90833333298,
      "d": 32.05131249999977,
      "v": 27
    },
    {
      "midi": 89,
      "hit": false,
      "t": 209401.90833333298,
      "d": 32.05131249999977,
      "v": 25
    },
    {
      "midi": 77,
      "hit": false,
      "t": 209455.32718749964,
      "d": 32.05131249999977,
      "v": 48
    },
    {
      "midi": 82,
      "hit": false,
      "t": 209455.32718749964,
      "d": 32.05131249999977,
      "v": 67
    },
    {
      "midi": 84,
      "hit": false,
      "t": 209455.32718749964,
      "d": 32.05131249999977,
      "v": 53
    },
    {
      "midi": 89,
      "hit": false,
      "t": 209455.32718749964,
      "d": 32.05131249999977,
      "v": 50
    },
    {
      "midi": 77,
      "hit": false,
      "t": 209530.11358333298,
      "d": 32.05131249999977,
      "v": 25
    },
    {
      "midi": 82,
      "hit": false,
      "t": 209530.11358333298,
      "d": 32.05131249999977,
      "v": 34
    },
    {
      "midi": 84,
      "hit": false,
      "t": 209530.11358333298,
      "d": 32.05131249999977,
      "v": 27
    },
    {
      "midi": 89,
      "hit": false,
      "t": 209530.11358333298,
      "d": 32.05131249999977,
      "v": 25
    },
    {
      "midi": 77,
      "hit": false,
      "t": 209615.58374999964,
      "d": 32.05131249999977,
      "v": 106
    },
    {
      "midi": 82,
      "hit": false,
      "t": 209615.58374999964,
      "d": 32.05131249999977,
      "v": 127
    },
    {
      "midi": 84,
      "hit": false,
      "t": 209615.58374999964,
      "d": 32.05131249999977,
      "v": 117
    },
    {
      "midi": 89,
      "hit": false,
      "t": 209615.58374999964,
      "d": 32.05131249999977,
      "v": 93
    },
    {
      "midi": 77,
      "hit": false,
      "t": 209711.73768749964,
      "d": 32.05131249999977,
      "v": 56
    },
    {
      "midi": 82,
      "hit": false,
      "t": 209711.73768749964,
      "d": 32.05131249999977,
      "v": 67
    },
    {
      "midi": 84,
      "hit": false,
      "t": 209711.73768749964,
      "d": 32.05131249999977,
      "v": 62
    },
    {
      "midi": 89,
      "hit": false,
      "t": 209711.73768749964,
      "d": 32.05131249999977,
      "v": 50
    },
    {
      "midi": 77,
      "hit": false,
      "t": 209743.78899999964,
      "d": 32.05131249999977,
      "v": 91
    },
    {
      "midi": 82,
      "hit": false,
      "t": 209743.78899999964,
      "d": 32.05131249999977,
      "v": 127
    },
    {
      "midi": 84,
      "hit": false,
      "t": 209743.78899999964,
      "d": 32.05131249999977,
      "v": 111
    },
    {
      "midi": 89,
      "hit": false,
      "t": 209743.78899999964,
      "d": 32.05131249999977,
      "v": 93
    },
    {
      "midi": 77,
      "hit": false,
      "t": 209786.52408333297,
      "d": 32.05131249999977,
      "v": 29
    },
    {
      "midi": 82,
      "hit": false,
      "t": 209786.52408333297,
      "d": 32.05131249999977,
      "v": 34
    },
    {
      "midi": 84,
      "hit": false,
      "t": 209786.52408333297,
      "d": 32.05131249999977,
      "v": 32
    },
    {
      "midi": 89,
      "hit": false,
      "t": 209786.52408333297,
      "d": 32.05131249999977,
      "v": 25
    },
    {
      "midi": 77,
      "hit": false,
      "t": 209839.94293749964,
      "d": 32.05131249999977,
      "v": 48
    },
    {
      "midi": 82,
      "hit": false,
      "t": 209839.94293749964,
      "d": 32.05131249999977,
      "v": 67
    },
    {
      "midi": 84,
      "hit": false,
      "t": 209839.94293749964,
      "d": 32.05131249999977,
      "v": 59
    },
    {
      "midi": 89,
      "hit": false,
      "t": 209839.94293749964,
      "d": 32.05131249999977,
      "v": 50
    },
    {
      "midi": 77,
      "hit": false,
      "t": 209914.72933333297,
      "d": 32.05131249999977,
      "v": 25
    },
    {
      "midi": 82,
      "hit": false,
      "t": 209914.72933333297,
      "d": 32.05131249999977,
      "v": 34
    },
    {
      "midi": 84,
      "hit": false,
      "t": 209914.72933333297,
      "d": 32.05131249999977,
      "v": 29
    },
    {
      "midi": 89,
      "hit": false,
      "t": 209914.72933333297,
      "d": 32.05131249999977,
      "v": 25
    },
    {
      "midi": 77,
      "hit": false,
      "t": 210000.19949999964,
      "d": 32.05131249999977,
      "v": 113
    },
    {
      "midi": 82,
      "hit": false,
      "t": 210000.19949999964,
      "d": 32.05131249999977,
      "v": 127
    },
    {
      "midi": 84,
      "hit": false,
      "t": 210000.19949999964,
      "d": 32.05131249999977,
      "v": 123
    },
    {
      "midi": 89,
      "hit": false,
      "t": 210000.19949999964,
      "d": 32.05131249999977,
      "v": 93
    },
    {
      "midi": 77,
      "hit": false,
      "t": 210096.35343749964,
      "d": 32.05131249999977,
      "v": 60
    },
    {
      "midi": 82,
      "hit": false,
      "t": 210096.35343749964,
      "d": 32.05131249999977,
      "v": 67
    },
    {
      "midi": 84,
      "hit": false,
      "t": 210096.35343749964,
      "d": 32.05131249999977,
      "v": 65
    },
    {
      "midi": 89,
      "hit": false,
      "t": 210096.35343749964,
      "d": 32.05131249999977,
      "v": 50
    },
    {
      "midi": 77,
      "hit": false,
      "t": 210128.40474999964,
      "d": 32.05131249999977,
      "v": 89
    },
    {
      "midi": 82,
      "hit": false,
      "t": 210128.40474999964,
      "d": 32.05131249999977,
      "v": 127
    },
    {
      "midi": 84,
      "hit": false,
      "t": 210128.40474999964,
      "d": 32.05131249999977,
      "v": 117
    },
    {
      "midi": 89,
      "hit": false,
      "t": 210128.40474999964,
      "d": 32.05131249999977,
      "v": 93
    },
    {
      "midi": 77,
      "hit": false,
      "t": 210171.13983333297,
      "d": 32.05131249999977,
      "v": 31
    },
    {
      "midi": 82,
      "hit": false,
      "t": 210171.13983333297,
      "d": 32.05131249999977,
      "v": 34
    },
    {
      "midi": 84,
      "hit": false,
      "t": 210171.13983333297,
      "d": 32.05131249999977,
      "v": 33
    },
    {
      "midi": 89,
      "hit": false,
      "t": 210171.13983333297,
      "d": 32.05131249999977,
      "v": 25
    },
    {
      "midi": 77,
      "hit": false,
      "t": 210224.55868749964,
      "d": 32.05131249999977,
      "v": 48
    },
    {
      "midi": 82,
      "hit": false,
      "t": 210224.55868749964,
      "d": 32.05131249999977,
      "v": 67
    },
    {
      "midi": 84,
      "hit": false,
      "t": 210224.55868749964,
      "d": 32.05131249999977,
      "v": 62
    },
    {
      "midi": 89,
      "hit": false,
      "t": 210224.55868749964,
      "d": 32.05131249999977,
      "v": 50
    },
    {
      "midi": 77,
      "hit": false,
      "t": 210299.34508333297,
      "d": 32.05131249999977,
      "v": 25
    },
    {
      "midi": 82,
      "hit": false,
      "t": 210299.34508333297,
      "d": 32.05131249999977,
      "v": 34
    },
    {
      "midi": 84,
      "hit": false,
      "t": 210299.34508333297,
      "d": 32.05131249999977,
      "v": 32
    },
    {
      "midi": 89,
      "hit": false,
      "t": 210299.34508333297,
      "d": 32.05131249999977,
      "v": 25
    },
    {
      "midi": 77,
      "hit": false,
      "t": 210384.81524999964,
      "d": 32.05131249999977,
      "v": 108
    },
    {
      "midi": 82,
      "hit": false,
      "t": 210384.81524999964,
      "d": 32.05131249999977,
      "v": 127
    },
    {
      "midi": 84,
      "hit": false,
      "t": 210384.81524999964,
      "d": 32.05131249999977,
      "v": 113
    },
    {
      "midi": 89,
      "hit": false,
      "t": 210384.81524999964,
      "d": 32.05131249999977,
      "v": 93
    },
    {
      "midi": 77,
      "hit": false,
      "t": 210480.96918749964,
      "d": 32.05131249999977,
      "v": 57
    },
    {
      "midi": 82,
      "hit": false,
      "t": 210480.96918749964,
      "d": 32.05131249999977,
      "v": 67
    },
    {
      "midi": 84,
      "hit": false,
      "t": 210480.96918749964,
      "d": 32.05131249999977,
      "v": 60
    },
    {
      "midi": 89,
      "hit": false,
      "t": 210480.96918749964,
      "d": 32.05131249999977,
      "v": 50
    },
    {
      "midi": 77,
      "hit": false,
      "t": 210555.75558333297,
      "d": 32.05131249999977,
      "v": 29
    },
    {
      "midi": 82,
      "hit": false,
      "t": 210555.75558333297,
      "d": 32.05131249999977,
      "v": 34
    },
    {
      "midi": 84,
      "hit": false,
      "t": 210555.75558333297,
      "d": 32.05131249999977,
      "v": 31
    },
    {
      "midi": 89,
      "hit": false,
      "t": 210555.75558333297,
      "d": 32.05131249999977,
      "v": 25
    },
    {
      "midi": 77,
      "hit": false,
      "t": 210641.22574999963,
      "d": 32.05131249999977,
      "v": 93
    },
    {
      "midi": 82,
      "hit": false,
      "t": 210641.22574999963,
      "d": 32.05131249999977,
      "v": 111
    },
    {
      "midi": 84,
      "hit": false,
      "t": 210641.22574999963,
      "d": 32.05131249999977,
      "v": 83
    },
    {
      "midi": 89,
      "hit": false,
      "t": 210641.22574999963,
      "d": 32.05131249999977,
      "v": 93
    },
    {
      "midi": 77,
      "hit": false,
      "t": 210737.37968749963,
      "d": 32.05131249999977,
      "v": 50
    },
    {
      "midi": 82,
      "hit": false,
      "t": 210737.37968749963,
      "d": 32.05131249999977,
      "v": 59
    },
    {
      "midi": 84,
      "hit": false,
      "t": 210737.37968749963,
      "d": 32.05131249999977,
      "v": 44
    },
    {
      "midi": 89,
      "hit": false,
      "t": 210737.37968749963,
      "d": 32.05131249999977,
      "v": 50
    },
    {
      "midi": 77,
      "hit": false,
      "t": 210769.43099999963,
      "d": 32.05131249999977,
      "v": 98
    },
    {
      "midi": 82,
      "hit": false,
      "t": 210769.43099999963,
      "d": 32.05131249999977,
      "v": 127
    },
    {
      "midi": 84,
      "hit": false,
      "t": 210769.43099999963,
      "d": 32.05131249999977,
      "v": 103
    },
    {
      "midi": 89,
      "hit": false,
      "t": 210769.43099999963,
      "d": 32.05131249999977,
      "v": 93
    },
    {
      "midi": 77,
      "hit": false,
      "t": 210812.16608333297,
      "d": 32.05131249999977,
      "v": 25
    },
    {
      "midi": 82,
      "hit": false,
      "t": 210812.16608333297,
      "d": 32.05131249999977,
      "v": 29
    },
    {
      "midi": 84,
      "hit": false,
      "t": 210812.16608333297,
      "d": 32.05131249999977,
      "v": 22
    },
    {
      "midi": 89,
      "hit": false,
      "t": 210812.16608333297,
      "d": 32.05131249999977,
      "v": 25
    },
    {
      "midi": 77,
      "hit": false,
      "t": 210865.58493749963,
      "d": 32.05131249999977,
      "v": 52
    },
    {
      "midi": 82,
      "hit": false,
      "t": 210865.58493749963,
      "d": 32.05131249999977,
      "v": 67
    },
    {
      "midi": 84,
      "hit": false,
      "t": 210865.58493749963,
      "d": 32.05131249999977,
      "v": 55
    },
    {
      "midi": 89,
      "hit": false,
      "t": 210865.58493749963,
      "d": 32.05131249999977,
      "v": 50
    },
    {
      "midi": 77,
      "hit": false,
      "t": 210940.37133333297,
      "d": 32.05131249999977,
      "v": 27
    },
    {
      "midi": 82,
      "hit": false,
      "t": 210940.37133333297,
      "d": 32.05131249999977,
      "v": 34
    },
    {
      "midi": 84,
      "hit": false,
      "t": 210940.37133333297,
      "d": 32.05131249999977,
      "v": 27
    },
    {
      "midi": 89,
      "hit": false,
      "t": 210940.37133333297,
      "d": 32.05131249999977,
      "v": 25
    },
    {
      "midi": 77,
      "hit": false,
      "t": 211025.84149999963,
      "d": 32.05131249999977,
      "v": 93
    },
    {
      "midi": 82,
      "hit": false,
      "t": 211025.84149999963,
      "d": 32.05131249999977,
      "v": 127
    },
    {
      "midi": 84,
      "hit": false,
      "t": 211025.84149999963,
      "d": 32.05131249999977,
      "v": 113
    },
    {
      "midi": 89,
      "hit": false,
      "t": 211025.84149999963,
      "d": 32.05131249999977,
      "v": 93
    },
    {
      "midi": 77,
      "hit": false,
      "t": 211121.99543749963,
      "d": 32.05131249999977,
      "v": 50
    },
    {
      "midi": 82,
      "hit": false,
      "t": 211121.99543749963,
      "d": 32.05131249999977,
      "v": 67
    },
    {
      "midi": 84,
      "hit": false,
      "t": 211121.99543749963,
      "d": 32.05131249999977,
      "v": 60
    },
    {
      "midi": 89,
      "hit": false,
      "t": 211121.99543749963,
      "d": 32.05131249999977,
      "v": 50
    },
    {
      "midi": 77,
      "hit": false,
      "t": 211154.04674999963,
      "d": 32.05131249999977,
      "v": 82
    },
    {
      "midi": 82,
      "hit": false,
      "t": 211154.04674999963,
      "d": 32.05131249999977,
      "v": 125
    },
    {
      "midi": 84,
      "hit": false,
      "t": 211154.04674999963,
      "d": 32.05131249999977,
      "v": 106
    },
    {
      "midi": 89,
      "hit": false,
      "t": 211154.04674999963,
      "d": 32.05131249999977,
      "v": 93
    },
    {
      "midi": 77,
      "hit": false,
      "t": 211196.78183333296,
      "d": 32.05131249999977,
      "v": 25
    },
    {
      "midi": 82,
      "hit": false,
      "t": 211196.78183333296,
      "d": 32.05131249999977,
      "v": 34
    },
    {
      "midi": 84,
      "hit": false,
      "t": 211196.78183333296,
      "d": 32.05131249999977,
      "v": 31
    },
    {
      "midi": 89,
      "hit": false,
      "t": 211196.78183333296,
      "d": 32.05131249999977,
      "v": 25
    },
    {
      "midi": 77,
      "hit": false,
      "t": 211250.20068749963,
      "d": 32.05131249999977,
      "v": 43
    },
    {
      "midi": 82,
      "hit": false,
      "t": 211250.20068749963,
      "d": 32.05131249999977,
      "v": 67
    },
    {
      "midi": 84,
      "hit": false,
      "t": 211250.20068749963,
      "d": 32.05131249999977,
      "v": 56
    },
    {
      "midi": 89,
      "hit": false,
      "t": 211250.20068749963,
      "d": 32.05131249999977,
      "v": 50
    },
    {
      "midi": 77,
      "hit": false,
      "t": 211282.25199999963,
      "d": 32.05131249999977,
      "v": 100
    },
    {
      "midi": 81,
      "hit": false,
      "t": 211282.25199999963,
      "d": 32.05131249999977,
      "v": 96
    },
    {
      "midi": 86,
      "hit": false,
      "t": 211282.25199999963,
      "d": 32.05131249999977,
      "v": 100
    },
    {
      "midi": 77,
      "hit": false,
      "t": 211324.98708333296,
      "d": 32.05131249999977,
      "v": 22
    },
    {
      "midi": 82,
      "hit": false,
      "t": 211324.98708333296,
      "d": 32.05131249999977,
      "v": 34
    },
    {
      "midi": 84,
      "hit": false,
      "t": 211324.98708333296,
      "d": 32.05131249999977,
      "v": 29
    },
    {
      "midi": 89,
      "hit": false,
      "t": 211324.98708333296,
      "d": 32.05131249999977,
      "v": 25
    },
    {
      "midi": 77,
      "hit": false,
      "t": 211378.40593749963,
      "d": 32.05131249999977,
      "v": 53
    },
    {
      "midi": 81,
      "hit": false,
      "t": 211378.40593749963,
      "d": 32.05131249999977,
      "v": 50
    },
    {
      "midi": 86,
      "hit": false,
      "t": 211378.40593749963,
      "d": 32.05131249999977,
      "v": 53
    },
    {
      "midi": 77,
      "hit": false,
      "t": 211410.45724999963,
      "d": 32.05131249999977,
      "v": 71
    },
    {
      "midi": 81,
      "hit": false,
      "t": 211410.45724999963,
      "d": 32.05131249999977,
      "v": 108
    },
    {
      "midi": 86,
      "hit": false,
      "t": 211410.45724999963,
      "d": 32.05131249999977,
      "v": 93
    },
    {
      "midi": 77,
      "hit": false,
      "t": 211453.19233333296,
      "d": 32.05131249999977,
      "v": 27
    },
    {
      "midi": 81,
      "hit": false,
      "t": 211453.19233333296,
      "d": 32.05131249999977,
      "v": 25
    },
    {
      "midi": 86,
      "hit": false,
      "t": 211453.19233333296,
      "d": 32.05131249999977,
      "v": 27
    },
    {
      "midi": 77,
      "hit": false,
      "t": 211506.61118749963,
      "d": 32.05131249999977,
      "v": 38
    },
    {
      "midi": 81,
      "hit": false,
      "t": 211506.61118749963,
      "d": 32.05131249999977,
      "v": 57
    },
    {
      "midi": 86,
      "hit": false,
      "t": 211506.61118749963,
      "d": 32.05131249999977,
      "v": 50
    },
    {
      "midi": 77,
      "hit": false,
      "t": 211581.39758333296,
      "d": 32.05131249999977,
      "v": 19
    },
    {
      "midi": 81,
      "hit": false,
      "t": 211581.39758333296,
      "d": 32.05131249999977,
      "v": 29
    },
    {
      "midi": 86,
      "hit": false,
      "t": 211581.39758333296,
      "d": 32.05131249999977,
      "v": 25
    },
    {
      "midi": 77,
      "hit": false,
      "t": 211666.86774999963,
      "d": 32.05131249999977,
      "v": 93
    },
    {
      "midi": 81,
      "hit": false,
      "t": 211666.86774999963,
      "d": 32.05131249999977,
      "v": 123
    },
    {
      "midi": 86,
      "hit": false,
      "t": 211666.86774999963,
      "d": 32.05131249999977,
      "v": 78
    },
    {
      "midi": 77,
      "hit": false,
      "t": 211763.02168749963,
      "d": 32.05131249999977,
      "v": 50
    },
    {
      "midi": 81,
      "hit": false,
      "t": 211763.02168749963,
      "d": 32.05131249999977,
      "v": 65
    },
    {
      "midi": 86,
      "hit": false,
      "t": 211763.02168749963,
      "d": 32.05131249999977,
      "v": 41
    },
    {
      "midi": 77,
      "hit": false,
      "t": 211795.07299999963,
      "d": 32.05131249999977,
      "v": 111
    },
    {
      "midi": 81,
      "hit": false,
      "t": 211795.07299999963,
      "d": 32.05131249999977,
      "v": 127
    },
    {
      "midi": 86,
      "hit": false,
      "t": 211795.07299999963,
      "d": 32.05131249999977,
      "v": 106
    },
    {
      "midi": 77,
      "hit": false,
      "t": 211837.80808333296,
      "d": 32.05131249999977,
      "v": 25
    },
    {
      "midi": 81,
      "hit": false,
      "t": 211837.80808333296,
      "d": 32.05131249999977,
      "v": 33
    },
    {
      "midi": 86,
      "hit": false,
      "t": 211837.80808333296,
      "d": 32.05131249999977,
      "v": 21
    },
    {
      "midi": 77,
      "hit": false,
      "t": 211891.22693749962,
      "d": 32.05131249999977,
      "v": 59
    },
    {
      "midi": 81,
      "hit": false,
      "t": 211891.22693749962,
      "d": 32.05131249999977,
      "v": 67
    },
    {
      "midi": 86,
      "hit": false,
      "t": 211891.22693749962,
      "d": 32.05131249999977,
      "v": 56
    },
    {
      "midi": 77,
      "hit": false,
      "t": 211966.01333333296,
      "d": 32.05131250002887,
      "v": 29
    },
    {
      "midi": 81,
      "hit": false,
      "t": 211966.01333333296,
      "d": 32.05131250002887,
      "v": 34
    },
    {
      "midi": 86,
      "hit": false,
      "t": 211966.01333333296,
      "d": 32.05131250002887,
      "v": 29
    },
    {
      "midi": 77,
      "hit": false,
      "t": 212051.48349999965,
      "d": 32.05131249999977,
      "v": 117
    },
    {
      "midi": 81,
      "hit": false,
      "t": 212051.48349999965,
      "d": 32.05131249999977,
      "v": 127
    },
    {
      "midi": 86,
      "hit": false,
      "t": 212051.48349999965,
      "d": 32.05131249999977,
      "v": 93
    },
    {
      "midi": 77,
      "hit": false,
      "t": 212147.63743749965,
      "d": 32.05131249999977,
      "v": 62
    },
    {
      "midi": 81,
      "hit": false,
      "t": 212147.63743749965,
      "d": 32.05131249999977,
      "v": 67
    },
    {
      "midi": 86,
      "hit": false,
      "t": 212147.63743749965,
      "d": 32.05131249999977,
      "v": 50
    },
    {
      "midi": 77,
      "hit": false,
      "t": 212179.68874999965,
      "d": 32.05131249999977,
      "v": 108
    },
    {
      "midi": 81,
      "hit": false,
      "t": 212179.68874999965,
      "d": 32.05131249999977,
      "v": 127
    },
    {
      "midi": 86,
      "hit": false,
      "t": 212179.68874999965,
      "d": 32.05131249999977,
      "v": 100
    },
    {
      "midi": 77,
      "hit": false,
      "t": 212222.42383333298,
      "d": 32.05131249999977,
      "v": 32
    },
    {
      "midi": 81,
      "hit": false,
      "t": 212222.42383333298,
      "d": 32.05131249999977,
      "v": 34
    },
    {
      "midi": 86,
      "hit": false,
      "t": 212222.42383333298,
      "d": 32.05131249999977,
      "v": 25
    },
    {
      "midi": 77,
      "hit": false,
      "t": 212275.84268749965,
      "d": 32.05131249999977,
      "v": 57
    },
    {
      "midi": 81,
      "hit": false,
      "t": 212275.84268749965,
      "d": 32.05131249999977,
      "v": 67
    },
    {
      "midi": 86,
      "hit": false,
      "t": 212275.84268749965,
      "d": 32.05131249999977,
      "v": 53
    },
    {
      "midi": 77,
      "hit": false,
      "t": 212350.62908333298,
      "d": 32.05131249999977,
      "v": 29
    },
    {
      "midi": 81,
      "hit": false,
      "t": 212350.62908333298,
      "d": 32.05131249999977,
      "v": 34
    },
    {
      "midi": 86,
      "hit": false,
      "t": 212350.62908333298,
      "d": 32.05131249999977,
      "v": 27
    },
    {
      "midi": 77,
      "hit": false,
      "t": 212436.09924999965,
      "d": 32.05131249999977,
      "v": 120
    },
    {
      "midi": 81,
      "hit": false,
      "t": 212436.09924999965,
      "d": 32.05131249999977,
      "v": 127
    },
    {
      "midi": 86,
      "hit": false,
      "t": 212436.09924999965,
      "d": 32.05131249999977,
      "v": 100
    },
    {
      "midi": 77,
      "hit": false,
      "t": 212532.25318749965,
      "d": 32.05131249999977,
      "v": 63
    },
    {
      "midi": 81,
      "hit": false,
      "t": 212532.25318749965,
      "d": 32.05131249999977,
      "v": 67
    },
    {
      "midi": 86,
      "hit": false,
      "t": 212532.25318749965,
      "d": 32.05131249999977,
      "v": 53
    },
    {
      "midi": 77,
      "hit": false,
      "t": 212607.03958333298,
      "d": 32.05131249999977,
      "v": 32
    },
    {
      "midi": 81,
      "hit": false,
      "t": 212607.03958333298,
      "d": 32.05131249999977,
      "v": 34
    },
    {
      "midi": 86,
      "hit": false,
      "t": 212607.03958333298,
      "d": 32.05131249999977,
      "v": 27
    },
    {
      "midi": 77,
      "hit": false,
      "t": 212692.50974999965,
      "d": 32.05131249999977,
      "v": 98
    },
    {
      "midi": 81,
      "hit": false,
      "t": 212692.50974999965,
      "d": 32.05131249999977,
      "v": 127
    },
    {
      "midi": 86,
      "hit": false,
      "t": 212692.50974999965,
      "d": 32.05131249999977,
      "v": 89
    },
    {
      "midi": 77,
      "hit": false,
      "t": 212788.66368749965,
      "d": 32.05131249999977,
      "v": 52
    },
    {
      "midi": 81,
      "hit": false,
      "t": 212788.66368749965,
      "d": 32.05131249999977,
      "v": 67
    },
    {
      "midi": 86,
      "hit": false,
      "t": 212788.66368749965,
      "d": 32.05131249999977,
      "v": 48
    },
    {
      "midi": 77,
      "hit": false,
      "t": 212820.71499999965,
      "d": 32.05131249999977,
      "v": 113
    },
    {
      "midi": 81,
      "hit": false,
      "t": 212820.71499999965,
      "d": 32.05131249999977,
      "v": 127
    },
    {
      "midi": 86,
      "hit": false,
      "t": 212820.71499999965,
      "d": 32.05131249999977,
      "v": 100
    },
    {
      "midi": 77,
      "hit": false,
      "t": 212863.45008333298,
      "d": 32.05131249999977,
      "v": 27
    },
    {
      "midi": 81,
      "hit": false,
      "t": 212863.45008333298,
      "d": 32.05131249999977,
      "v": 34
    },
    {
      "midi": 86,
      "hit": false,
      "t": 212863.45008333298,
      "d": 32.05131249999977,
      "v": 25
    },
    {
      "midi": 77,
      "hit": false,
      "t": 212916.86893749965,
      "d": 32.05131249999977,
      "v": 60
    },
    {
      "midi": 81,
      "hit": false,
      "t": 212916.86893749965,
      "d": 32.05131249999977,
      "v": 67
    },
    {
      "midi": 86,
      "hit": false,
      "t": 212916.86893749965,
      "d": 32.05131249999977,
      "v": 53
    },
    {
      "midi": 77,
      "hit": false,
      "t": 212948.92024999965,
      "d": 32.05131249999977,
      "v": 106
    },
    {
      "midi": 81,
      "hit": false,
      "t": 212948.92024999965,
      "d": 32.05131249999977,
      "v": 126
    },
    {
      "midi": 86,
      "hit": false,
      "t": 212948.92024999965,
      "d": 32.05131249999977,
      "v": 98
    },
    {
      "midi": 77,
      "hit": false,
      "t": 212991.65533333298,
      "d": 32.05131249999977,
      "v": 31
    },
    {
      "midi": 81,
      "hit": false,
      "t": 212991.65533333298,
      "d": 32.05131249999977,
      "v": 34
    },
    {
      "midi": 86,
      "hit": false,
      "t": 212991.65533333298,
      "d": 32.05131249999977,
      "v": 27
    },
    {
      "midi": 77,
      "hit": false,
      "t": 213045.07418749965,
      "d": 32.05131249999977,
      "v": 56
    },
    {
      "midi": 81,
      "hit": false,
      "t": 213045.07418749965,
      "d": 32.05131249999977,
      "v": 67
    },
    {
      "midi": 86,
      "hit": false,
      "t": 213045.07418749965,
      "d": 32.05131249999977,
      "v": 52
    },
    {
      "midi": 77,
      "hit": false,
      "t": 213119.86058333298,
      "d": 32.05131249999977,
      "v": 29
    },
    {
      "midi": 81,
      "hit": false,
      "t": 213119.86058333298,
      "d": 32.05131249999977,
      "v": 34
    },
    {
      "midi": 86,
      "hit": false,
      "t": 213119.86058333298,
      "d": 32.05131249999977,
      "v": 27
    },
    {
      "midi": 77,
      "hit": false,
      "t": 213205.33074999964,
      "d": 32.05131249999977,
      "v": 113
    },
    {
      "midi": 79,
      "hit": false,
      "t": 213205.33074999964,
      "d": 32.05131249999977,
      "v": 127
    },
    {
      "midi": 86,
      "hit": false,
      "t": 213205.33074999964,
      "d": 32.05131249999977,
      "v": 86
    },
    {
      "midi": 77,
      "hit": false,
      "t": 213301.48468749964,
      "d": 32.05131249999977,
      "v": 60
    },
    {
      "midi": 79,
      "hit": false,
      "t": 213301.48468749964,
      "d": 32.05131249999977,
      "v": 67
    },
    {
      "midi": 86,
      "hit": false,
      "t": 213301.48468749964,
      "d": 32.05131249999977,
      "v": 46
    },
    {
      "midi": 77,
      "hit": false,
      "t": 213333.53599999964,
      "d": 32.05131249999977,
      "v": 127
    },
    {
      "midi": 79,
      "hit": false,
      "t": 213333.53599999964,
      "d": 32.05131249999977,
      "v": 127
    },
    {
      "midi": 86,
      "hit": false,
      "t": 213333.53599999964,
      "d": 32.05131249999977,
      "v": 120
    },
    {
      "midi": 77,
      "hit": false,
      "t": 213376.27108333298,
      "d": 32.05131249999977,
      "v": 31
    },
    {
      "midi": 79,
      "hit": false,
      "t": 213376.27108333298,
      "d": 32.05131249999977,
      "v": 34
    },
    {
      "midi": 86,
      "hit": false,
      "t": 213376.27108333298,
      "d": 32.05131249999977,
      "v": 23
    },
    {
      "midi": 77,
      "hit": false,
      "t": 213429.68993749964,
      "d": 32.05131249999977,
      "v": 67
    },
    {
      "midi": 79,
      "hit": false,
      "t": 213429.68993749964,
      "d": 32.05131249999977,
      "v": 67
    },
    {
      "midi": 86,
      "hit": false,
      "t": 213429.68993749964,
      "d": 32.05131249999977,
      "v": 63
    },
    {
      "midi": 77,
      "hit": false,
      "t": 213504.47633333298,
      "d": 32.05131249999977,
      "v": 34
    },
    {
      "midi": 79,
      "hit": false,
      "t": 213504.47633333298,
      "d": 32.05131249999977,
      "v": 34
    },
    {
      "midi": 86,
      "hit": false,
      "t": 213504.47633333298,
      "d": 32.05131249999977,
      "v": 32
    },
    {
      "midi": 77,
      "hit": false,
      "t": 213589.94649999964,
      "d": 32.05131249999977,
      "v": 117
    },
    {
      "midi": 79,
      "hit": false,
      "t": 213589.94649999964,
      "d": 32.05131249999977,
      "v": 127
    },
    {
      "midi": 86,
      "hit": false,
      "t": 213589.94649999964,
      "d": 32.05131249999977,
      "v": 108
    },
    {
      "midi": 77,
      "hit": false,
      "t": 213686.10043749964,
      "d": 32.05131249999977,
      "v": 62
    },
    {
      "midi": 79,
      "hit": false,
      "t": 213686.10043749964,
      "d": 32.05131249999977,
      "v": 67
    },
    {
      "midi": 86,
      "hit": false,
      "t": 213686.10043749964,
      "d": 32.05131249999977,
      "v": 57
    },
    {
      "midi": 77,
      "hit": false,
      "t": 213760.88683333297,
      "d": 32.05131249999977,
      "v": 32
    },
    {
      "midi": 79,
      "hit": false,
      "t": 213760.88683333297,
      "d": 32.05131249999977,
      "v": 34
    },
    {
      "midi": 86,
      "hit": false,
      "t": 213760.88683333297,
      "d": 32.05131249999977,
      "v": 29
    },
    {
      "midi": 77,
      "hit": false,
      "t": 213846.35699999964,
      "d": 32.05131249999977,
      "v": 127
    },
    {
      "midi": 79,
      "hit": false,
      "t": 213846.35699999964,
      "d": 32.05131249999977,
      "v": 120
    },
    {
      "midi": 86,
      "hit": false,
      "t": 213846.35699999964,
      "d": 32.05131249999977,
      "v": 113
    },
    {
      "midi": 77,
      "hit": false,
      "t": 213942.51093749964,
      "d": 32.05131249999977,
      "v": 67
    },
    {
      "midi": 79,
      "hit": false,
      "t": 213942.51093749964,
      "d": 32.05131249999977,
      "v": 63
    },
    {
      "midi": 86,
      "hit": false,
      "t": 213942.51093749964,
      "d": 32.05131249999977,
      "v": 60
    },
    {
      "midi": 77,
      "hit": false,
      "t": 213974.56224999964,
      "d": 32.05131249999977,
      "v": 117
    },
    {
      "midi": 79,
      "hit": false,
      "t": 213974.56224999964,
      "d": 32.05131249999977,
      "v": 127
    },
    {
      "midi": 86,
      "hit": false,
      "t": 213974.56224999964,
      "d": 32.05131249999977,
      "v": 83
    },
    {
      "midi": 77,
      "hit": false,
      "t": 214017.29733333297,
      "d": 32.05131249999977,
      "v": 34
    },
    {
      "midi": 79,
      "hit": false,
      "t": 214017.29733333297,
      "d": 32.05131249999977,
      "v": 32
    },
    {
      "midi": 86,
      "hit": false,
      "t": 214017.29733333297,
      "d": 32.05131249999977,
      "v": 31
    },
    {
      "midi": 77,
      "hit": false,
      "t": 214070.71618749964,
      "d": 32.05131249999977,
      "v": 62
    },
    {
      "midi": 79,
      "hit": false,
      "t": 214070.71618749964,
      "d": 32.05131249999977,
      "v": 67
    },
    {
      "midi": 86,
      "hit": false,
      "t": 214070.71618749964,
      "d": 32.05131249999977,
      "v": 44
    },
    {
      "midi": 77,
      "hit": false,
      "t": 214102.76749999964,
      "d": 32.05131249999977,
      "v": 113
    },
    {
      "midi": 79,
      "hit": false,
      "t": 214102.76749999964,
      "d": 32.05131249999977,
      "v": 120
    },
    {
      "midi": 86,
      "hit": false,
      "t": 214102.76749999964,
      "d": 32.05131249999977,
      "v": 113
    },
    {
      "midi": 77,
      "hit": false,
      "t": 214145.50258333297,
      "d": 32.05131249999977,
      "v": 32
    },
    {
      "midi": 79,
      "hit": false,
      "t": 214145.50258333297,
      "d": 32.05131249999977,
      "v": 34
    },
    {
      "midi": 86,
      "hit": false,
      "t": 214145.50258333297,
      "d": 32.05131249999977,
      "v": 22
    },
    {
      "midi": 77,
      "hit": false,
      "t": 214198.92143749964,
      "d": 32.05131249999977,
      "v": 60
    },
    {
      "midi": 79,
      "hit": false,
      "t": 214198.92143749964,
      "d": 32.05131249999977,
      "v": 63
    },
    {
      "midi": 86,
      "hit": false,
      "t": 214198.92143749964,
      "d": 32.05131249999977,
      "v": 60
    },
    {
      "midi": 77,
      "hit": false,
      "t": 214273.70783333297,
      "d": 32.05131249999977,
      "v": 31
    },
    {
      "midi": 79,
      "hit": false,
      "t": 214273.70783333297,
      "d": 32.05131249999977,
      "v": 32
    },
    {
      "midi": 86,
      "hit": false,
      "t": 214273.70783333297,
      "d": 32.05131249999977,
      "v": 31
    },
    {
      "midi": 77,
      "hit": false,
      "t": 214359.17799999964,
      "d": 32.05131249999977,
      "v": 126
    },
    {
      "midi": 79,
      "hit": false,
      "t": 214359.17799999964,
      "d": 32.05131249999977,
      "v": 127
    },
    {
      "midi": 86,
      "hit": false,
      "t": 214359.17799999964,
      "d": 32.05131249999977,
      "v": 127
    },
    {
      "midi": 77,
      "hit": false,
      "t": 214455.33193749964,
      "d": 32.05131249999977,
      "v": 67
    },
    {
      "midi": 79,
      "hit": false,
      "t": 214455.33193749964,
      "d": 32.05131249999977,
      "v": 67
    },
    {
      "midi": 86,
      "hit": false,
      "t": 214455.33193749964,
      "d": 32.05131249999977,
      "v": 67
    },
    {
      "midi": 77,
      "hit": false,
      "t": 214487.38324999964,
      "d": 32.05131249999977,
      "v": 127
    },
    {
      "midi": 79,
      "hit": false,
      "t": 214487.38324999964,
      "d": 32.05131249999977,
      "v": 127
    },
    {
      "midi": 86,
      "hit": false,
      "t": 214487.38324999964,
      "d": 32.05131249999977,
      "v": 127
    },
    {
      "midi": 77,
      "hit": false,
      "t": 214530.11833333297,
      "d": 32.05131249999977,
      "v": 34
    },
    {
      "midi": 79,
      "hit": false,
      "t": 214530.11833333297,
      "d": 32.05131249999977,
      "v": 34
    },
    {
      "midi": 86,
      "hit": false,
      "t": 214530.11833333297,
      "d": 32.05131249999977,
      "v": 34
    },
    {
      "midi": 77,
      "hit": false,
      "t": 214583.53718749963,
      "d": 32.05131249999977,
      "v": 67
    },
    {
      "midi": 79,
      "hit": false,
      "t": 214583.53718749963,
      "d": 32.05131249999977,
      "v": 67
    },
    {
      "midi": 86,
      "hit": false,
      "t": 214583.53718749963,
      "d": 32.05131249999977,
      "v": 67
    },
    {
      "midi": 77,
      "hit": false,
      "t": 214615.58849999963,
      "d": 32.05131249999977,
      "v": 103
    },
    {
      "midi": 79,
      "hit": false,
      "t": 214615.58849999963,
      "d": 32.05131249999977,
      "v": 113
    },
    {
      "midi": 86,
      "hit": false,
      "t": 214615.58849999963,
      "d": 32.05131249999977,
      "v": 120
    },
    {
      "midi": 77,
      "hit": false,
      "t": 214658.32358333297,
      "d": 32.05131249999977,
      "v": 34
    },
    {
      "midi": 79,
      "hit": false,
      "t": 214658.32358333297,
      "d": 32.05131249999977,
      "v": 34
    },
    {
      "midi": 86,
      "hit": false,
      "t": 214658.32358333297,
      "d": 32.05131249999977,
      "v": 34
    },
    {
      "midi": 77,
      "hit": false,
      "t": 214711.74243749963,
      "d": 32.05131249999977,
      "v": 55
    },
    {
      "midi": 79,
      "hit": false,
      "t": 214711.74243749963,
      "d": 32.05131249999977,
      "v": 60
    },
    {
      "midi": 86,
      "hit": false,
      "t": 214711.74243749963,
      "d": 32.05131249999977,
      "v": 63
    },
    {
      "midi": 77,
      "hit": false,
      "t": 214743.79374999963,
      "d": 32.05131249999977,
      "v": 126
    },
    {
      "midi": 79,
      "hit": false,
      "t": 214743.79374999963,
      "d": 32.05131249999977,
      "v": 127
    },
    {
      "midi": 86,
      "hit": false,
      "t": 214743.79374999963,
      "d": 32.05131249999977,
      "v": 93
    },
    {
      "midi": 77,
      "hit": false,
      "t": 214786.52883333297,
      "d": 32.05131249999977,
      "v": 27
    },
    {
      "midi": 79,
      "hit": false,
      "t": 214786.52883333297,
      "d": 32.05131249999977,
      "v": 31
    },
    {
      "midi": 86,
      "hit": false,
      "t": 214786.52883333297,
      "d": 32.05131249999977,
      "v": 32
    },
    {
      "midi": 77,
      "hit": false,
      "t": 214839.94768749963,
      "d": 32.05131249999977,
      "v": 67
    },
    {
      "midi": 79,
      "hit": false,
      "t": 214839.94768749963,
      "d": 32.05131249999977,
      "v": 67
    },
    {
      "midi": 86,
      "hit": false,
      "t": 214839.94768749963,
      "d": 32.05131249999977,
      "v": 50
    },
    {
      "midi": 77,
      "hit": false,
      "t": 214871.99899999963,
      "d": 32.05131249999977,
      "v": 127
    },
    {
      "midi": 79,
      "hit": false,
      "t": 214871.99899999963,
      "d": 32.05131249999977,
      "v": 127
    },
    {
      "midi": 86,
      "hit": false,
      "t": 214871.99899999963,
      "d": 32.05131249999977,
      "v": 127
    },
    {
      "midi": 77,
      "hit": false,
      "t": 214914.73408333297,
      "d": 32.05131249999977,
      "v": 34
    },
    {
      "midi": 79,
      "hit": false,
      "t": 214914.73408333297,
      "d": 32.05131249999977,
      "v": 34
    },
    {
      "midi": 86,
      "hit": false,
      "t": 214914.73408333297,
      "d": 32.05131249999977,
      "v": 25
    },
    {
      "midi": 77,
      "hit": false,
      "t": 214968.15293749963,
      "d": 32.05131249999977,
      "v": 67
    },
    {
      "midi": 79,
      "hit": false,
      "t": 214968.15293749963,
      "d": 32.05131249999977,
      "v": 67
    },
    {
      "midi": 86,
      "hit": false,
      "t": 214968.15293749963,
      "d": 32.05131249999977,
      "v": 67
    },
    {
      "midi": 77,
      "hit": false,
      "t": 215000.20424999963,
      "d": 32.05131249999977,
      "v": 127
    },
    {
      "midi": 79,
      "hit": false,
      "t": 215000.20424999963,
      "d": 32.05131249999977,
      "v": 127
    },
    {
      "midi": 86,
      "hit": false,
      "t": 215000.20424999963,
      "d": 32.05131249999977,
      "v": 127
    },
    {
      "midi": 77,
      "hit": false,
      "t": 215042.93933333296,
      "d": 32.05131249999977,
      "v": 34
    },
    {
      "midi": 79,
      "hit": false,
      "t": 215042.93933333296,
      "d": 32.05131249999977,
      "v": 34
    },
    {
      "midi": 86,
      "hit": false,
      "t": 215042.93933333296,
      "d": 32.05131249999977,
      "v": 34
    },
    {
      "midi": 77,
      "hit": false,
      "t": 215096.35818749963,
      "d": 32.05131249999977,
      "v": 67
    },
    {
      "midi": 79,
      "hit": false,
      "t": 215096.35818749963,
      "d": 32.05131249999977,
      "v": 67
    },
    {
      "midi": 86,
      "hit": false,
      "t": 215096.35818749963,
      "d": 32.05131249999977,
      "v": 67
    },
    {
      "midi": 77,
      "hit": false,
      "t": 215128.40949999963,
      "d": 32.05131249999977,
      "v": 127
    },
    {
      "midi": 79,
      "hit": false,
      "t": 215128.40949999963,
      "d": 32.05131249999977,
      "v": 127
    },
    {
      "midi": 86,
      "hit": false,
      "t": 215128.40949999963,
      "d": 32.05131249999977,
      "v": 106
    },
    {
      "midi": 77,
      "hit": false,
      "t": 215171.14458333296,
      "d": 32.05131249999977,
      "v": 34
    },
    {
      "midi": 79,
      "hit": false,
      "t": 215171.14458333296,
      "d": 32.05131249999977,
      "v": 34
    },
    {
      "midi": 86,
      "hit": false,
      "t": 215171.14458333296,
      "d": 32.05131249999977,
      "v": 34
    },
    {
      "midi": 77,
      "hit": false,
      "t": 215224.56343749963,
      "d": 32.05131249999977,
      "v": 67
    },
    {
      "midi": 79,
      "hit": false,
      "t": 215224.56343749963,
      "d": 32.05131249999977,
      "v": 67
    },
    {
      "midi": 86,
      "hit": false,
      "t": 215224.56343749963,
      "d": 32.05131249999977,
      "v": 56
    },
    {
      "midi": 77,
      "hit": false,
      "t": 215256.61474999963,
      "d": 32.05131249999977,
      "v": 117
    },
    {
      "midi": 79,
      "hit": false,
      "t": 215256.61474999963,
      "d": 32.05131249999977,
      "v": 127
    },
    {
      "midi": 86,
      "hit": false,
      "t": 215256.61474999963,
      "d": 32.05131249999977,
      "v": 93
    },
    {
      "midi": 77,
      "hit": false,
      "t": 215299.34983333296,
      "d": 32.05131249999977,
      "v": 34
    },
    {
      "midi": 79,
      "hit": false,
      "t": 215299.34983333296,
      "d": 32.05131249999977,
      "v": 34
    },
    {
      "midi": 86,
      "hit": false,
      "t": 215299.34983333296,
      "d": 32.05131249999977,
      "v": 29
    },
    {
      "midi": 77,
      "hit": false,
      "t": 215352.76868749963,
      "d": 32.05131249999977,
      "v": 62
    },
    {
      "midi": 79,
      "hit": false,
      "t": 215352.76868749963,
      "d": 32.05131249999977,
      "v": 67
    },
    {
      "midi": 86,
      "hit": false,
      "t": 215352.76868749963,
      "d": 32.05131249999977,
      "v": 50
    },
    {
      "midi": 77,
      "hit": false,
      "t": 215427.55508333296,
      "d": 32.05131249999977,
      "v": 32
    },
    {
      "midi": 79,
      "hit": false,
      "t": 215427.55508333296,
      "d": 32.05131249999977,
      "v": 34
    },
    {
      "midi": 86,
      "hit": false,
      "t": 215427.55508333296,
      "d": 32.05131249999977,
      "v": 25
    },
    {
      "midi": 58,
      "hit": false,
      "t": 248333.56924999962,
      "d": 120.72661041666288,
      "v": 127
    },
    {
      "midi": 55,
      "hit": false,
      "t": 248589.97974999962,
      "d": 166.66682499999297,
      "v": 120
    },
    {
      "midi": 58,
      "hit": false,
      "t": 248718.18499999962,
      "d": 115.3847249999817,
      "v": 127
    },
    {
      "midi": 58,
      "hit": false,
      "t": 248974.5954999996,
      "d": 126.06849583334406,
      "v": 127
    },
    {
      "midi": 55,
      "hit": false,
      "t": 249231.0059999996,
      "d": 182.6924812500074,
      "v": 127
    },
    {
      "midi": 58,
      "hit": false,
      "t": 249359.2112499996,
      "d": 107.90608541667461,
      "v": 127
    },
    {
      "midi": 60,
      "hit": false,
      "t": 249615.62174999958,
      "d": 141.02577499998733,
      "v": 127
    },
    {
      "midi": 55,
      "hit": false,
      "t": 249872.03224999958,
      "d": 135.68388958333526,
      "v": 127
    },
    {
      "midi": 58,
      "hit": false,
      "t": 250128.44274999958,
      "d": 115.3847250000108,
      "v": 127
    },
    {
      "midi": 58,
      "hit": false,
      "t": 250384.85324999958,
      "d": 120.72661041666288,
      "v": 127
    },
    {
      "midi": 55,
      "hit": false,
      "t": 250641.26374999958,
      "d": 183.76085833332036,
      "v": 123
    },
    {
      "midi": 58,
      "hit": false,
      "t": 250769.46899999958,
      "d": 100.42744583330932,
      "v": 127
    },
    {
      "midi": 58,
      "hit": false,
      "t": 251025.87949999954,
      "d": 150.64116875000764,
      "v": 127
    },
    {
      "midi": 55,
      "hit": false,
      "t": 251282.28999999954,
      "d": 199.7865145833348,
      "v": 127
    },
    {
      "midi": 58,
      "hit": false,
      "t": 251410.49524999954,
      "d": 112.17959375001374,
      "v": 127
    },
    {
      "midi": 60,
      "hit": false,
      "t": 251666.90574999957,
      "d": 133.54713541668025,
      "v": 127
    },
    {
      "midi": 55,
      "hit": false,
      "t": 251923.3162499996,
      "d": 159.18818541665678,
      "v": 123
    },
    {
      "midi": 58,
      "hit": false,
      "t": 252179.7267499996,
      "d": 117.52147916666581,
      "v": 127
    },
    {
      "midi": 58,
      "hit": false,
      "t": 252436.1372499996,
      "d": 135.68388958333526,
      "v": 127
    },
    {
      "midi": 55,
      "hit": false,
      "t": 252692.5477499996,
      "d": 159.18818541665678,
      "v": 127
    },
    {
      "midi": 62,
      "hit": false,
      "t": 252820.7529999996,
      "d": 128.20524999999907,
      "v": 111
    },
    {
      "midi": 62,
      "hit": false,
      "t": 253077.1634999996,
      "d": 135.68388958333526,
      "v": 127
    },
    {
      "midi": 60,
      "hit": false,
      "t": 253333.5739999996,
      "d": 97.22231458334136,
      "v": 127
    },
    {
      "midi": 60,
      "hit": false,
      "t": 253461.77924999958,
      "d": 115.3847250000108,
      "v": 127
    },
    {
      "midi": 60,
      "hit": false,
      "t": 253718.18974999958,
      "d": 143.16252916667145,
      "v": 127
    },
    {
      "midi": 60,
      "hit": false,
      "t": 253974.60024999958,
      "d": 159.18818541665678,
      "v": 127
    },
    {
      "midi": 58,
      "hit": false,
      "t": 254231.01074999958,
      "d": 144.2309062500135,
      "v": 127
    },
    {
      "midi": 58,
      "hit": false,
      "t": 254487.4212499996,
      "d": 130.34200416665408,
      "v": 127
    },
    {
      "midi": 55,
      "hit": false,
      "t": 254743.8317499996,
      "d": 164.53007083333796,
      "v": 126
    },
    {
      "midi": 58,
      "hit": false,
      "t": 254872.0369999996,
      "d": 115.3847250000108,
      "v": 127
    },
    {
      "midi": 58,
      "hit": false,
      "t": 255128.4474999996,
      "d": 133.54713541668025,
      "v": 127
    },
    {
      "midi": 55,
      "hit": false,
      "t": 255384.85799999963,
      "d": 161.3249395833409,
      "v": 120
    },
    {
      "midi": 58,
      "hit": false,
      "t": 255513.06324999963,
      "d": 122.86336458334699,
      "v": 100
    },
    {
      "midi": 60,
      "hit": false,
      "t": 255769.47374999966,
      "d": 143.16252916667145,
      "v": 127
    },
    {
      "midi": 55,
      "hit": false,
      "t": 256025.88424999965,
      "d": 138.88902083333232,
      "v": 127
    },
    {
      "midi": 58,
      "hit": false,
      "t": 256282.29474999965,
      "d": 153.8463000000047,
      "v": 127
    },
    {
      "midi": 58,
      "hit": false,
      "t": 256538.70524999965,
      "d": 120.72661041666288,
      "v": 127
    },
    {
      "midi": 55,
      "hit": false,
      "t": 256795.11574999965,
      "d": 166.66682499999297,
      "v": 120
    },
    {
      "midi": 58,
      "hit": false,
      "t": 256923.32099999965,
      "d": 115.3847249999817,
      "v": 127
    },
    {
      "midi": 58,
      "hit": false,
      "t": 257179.73149999962,
      "d": 126.06849583334406,
      "v": 127
    },
    {
      "midi": 55,
      "hit": false,
      "t": 257436.1419999996,
      "d": 182.6924812500074,
      "v": 127
    },
    {
      "midi": 58,
      "hit": false,
      "t": 257564.3472499996,
      "d": 107.90608541667461,
      "v": 127
    },
    {
      "midi": 60,
      "hit": false,
      "t": 257820.7577499996,
      "d": 141.02577499998733,
      "v": 127
    },
    {
      "midi": 55,
      "hit": false,
      "t": 258077.1682499996,
      "d": 135.68388958333526,
      "v": 127
    },
    {
      "midi": 58,
      "hit": false,
      "t": 258333.5787499996,
      "d": 115.3847250000108,
      "v": 127
    },
    {
      "midi": 58,
      "hit": false,
      "t": 258589.9892499996,
      "d": 120.72661041666288,
      "v": 127
    },
    {
      "midi": 55,
      "hit": false,
      "t": 258846.3997499996,
      "d": 183.76085833332036,
      "v": 123
    },
    {
      "midi": 58,
      "hit": false,
      "t": 258974.6049999996,
      "d": 100.42744583330932,
      "v": 127
    },
    {
      "midi": 58,
      "hit": false,
      "t": 259231.01549999957,
      "d": 150.64116875000764,
      "v": 127
    },
    {
      "midi": 55,
      "hit": false,
      "t": 259487.42599999957,
      "d": 199.7865145833348,
      "v": 127
    },
    {
      "midi": 58,
      "hit": false,
      "t": 259615.63124999957,
      "d": 112.17959375001374,
      "v": 127
    },
    {
      "midi": 60,
      "hit": false,
      "t": 259872.0417499996,
      "d": 133.54713541668025,
      "v": 127
    },
    {
      "midi": 55,
      "hit": false,
      "t": 260128.45224999962,
      "d": 159.18818541665678,
      "v": 123
    },
    {
      "midi": 58,
      "hit": false,
      "t": 260384.86274999962,
      "d": 117.52147916666581,
      "v": 127
    },
    {
      "midi": 58,
      "hit": false,
      "t": 260641.27324999962,
      "d": 135.68388958333526,
      "v": 127
    },
    {
      "midi": 55,
      "hit": false,
      "t": 260897.68374999962,
      "d": 159.18818541665678,
      "v": 127
    },
    {
      "midi": 62,
      "hit": false,
      "t": 261025.88899999962,
      "d": 128.20524999999907,
      "v": 111
    },
    {
      "midi": 62,
      "hit": false,
      "t": 261282.29949999962,
      "d": 135.68388958333526,
      "v": 127
    },
    {
      "midi": 60,
      "hit": false,
      "t": 261538.7099999996,
      "d": 97.22231458334136,
      "v": 127
    },
    {
      "midi": 60,
      "hit": false,
      "t": 261666.9152499996,
      "d": 115.3847250000108,
      "v": 127
    },
    {
      "midi": 60,
      "hit": false,
      "t": 261923.3257499996,
      "d": 143.16252916667145,
      "v": 127
    },
    {
      "midi": 60,
      "hit": false,
      "t": 262179.7362499996,
      "d": 159.18818541668588,
      "v": 127
    },
    {
      "midi": 58,
      "hit": false,
      "t": 262436.1467499996,
      "d": 144.2309062500135,
      "v": 127
    },
    {
      "midi": 58,
      "hit": false,
      "t": 262692.5572499996,
      "d": 130.34200416668318,
      "v": 127
    },
    {
      "midi": 55,
      "hit": false,
      "t": 262948.9677499996,
      "d": 164.53007083333796,
      "v": 126
    },
    {
      "midi": 58,
      "hit": false,
      "t": 263077.1729999996,
      "d": 115.3847250000108,
      "v": 127
    },
    {
      "midi": 58,
      "hit": false,
      "t": 263333.5834999996,
      "d": 133.54713541665114,
      "v": 127
    },
    {
      "midi": 55,
      "hit": false,
      "t": 263589.9939999996,
      "d": 161.3249395833118,
      "v": 120
    },
    {
      "midi": 58,
      "hit": false,
      "t": 263718.1992499996,
      "d": 122.86336458328879,
      "v": 100
    },
    {
      "midi": 60,
      "hit": false,
      "t": 263974.60974999954,
      "d": 143.16252916667145,
      "v": 127
    },
    {
      "midi": 55,
      "hit": false,
      "t": 264231.02024999954,
      "d": 138.88902083336143,
      "v": 127
    },
    {
      "midi": 58,
      "hit": false,
      "t": 264487.4307499996,
      "d": 153.8462999999756,
      "v": 127
    },
    {
      "midi": 58,
      "hit": false,
      "t": 323205.4352499996,
      "d": 120.72661041666288,
      "v": 127
    },
    {
      "midi": 55,
      "hit": false,
      "t": 323461.8457499996,
      "d": 166.66682500002207,
      "v": 120
    },
    {
      "midi": 58,
      "hit": false,
      "t": 323590.05099999957,
      "d": 115.3847250000108,
      "v": 127
    },
    {
      "midi": 58,
      "hit": false,
      "t": 323846.46149999957,
      "d": 126.06849583331496,
      "v": 127
    },
    {
      "midi": 55,
      "hit": false,
      "t": 324102.87199999957,
      "d": 182.6924812499783,
      "v": 127
    },
    {
      "midi": 58,
      "hit": false,
      "t": 324231.07724999957,
      "d": 107.90608541667461,
      "v": 127
    },
    {
      "midi": 60,
      "hit": false,
      "t": 324487.48774999956,
      "d": 141.02577499998733,
      "v": 127
    },
    {
      "midi": 55,
      "hit": false,
      "t": 324743.89824999956,
      "d": 135.68388958333526,
      "v": 127
    },
    {
      "midi": 58,
      "hit": false,
      "t": 325000.30874999956,
      "d": 115.3847250000108,
      "v": 127
    },
    {
      "midi": 58,
      "hit": false,
      "t": 325256.71924999956,
      "d": 120.72661041666288,
      "v": 127
    },
    {
      "midi": 55,
      "hit": false,
      "t": 325513.12974999956,
      "d": 183.76085833332036,
      "v": 123
    },
    {
      "midi": 58,
      "hit": false,
      "t": 325641.33499999956,
      "d": 100.42744583333842,
      "v": 127
    },
    {
      "midi": 58,
      "hit": false,
      "t": 325897.74549999955,
      "d": 150.64116875000764,
      "v": 127
    },
    {
      "midi": 55,
      "hit": false,
      "t": 326154.15599999955,
      "d": 199.7865145833348,
      "v": 127
    },
    {
      "midi": 58,
      "hit": false,
      "t": 326282.36124999955,
      "d": 112.17959374998463,
      "v": 127
    },
    {
      "midi": 60,
      "hit": false,
      "t": 326538.77174999955,
      "d": 133.54713541665114,
      "v": 127
    },
    {
      "midi": 55,
      "hit": false,
      "t": 326795.18224999955,
      "d": 159.18818541668588,
      "v": 123
    },
    {
      "midi": 58,
      "hit": false,
      "t": 327051.59274999955,
      "d": 117.52147916669492,
      "v": 127
    },
    {
      "midi": 58,
      "hit": false,
      "t": 327308.0032499996,
      "d": 135.68388958333526,
      "v": 127
    },
    {
      "midi": 55,
      "hit": false,
      "t": 327564.4137499996,
      "d": 159.18818541668588,
      "v": 127
    },
    {
      "midi": 62,
      "hit": false,
      "t": 327692.6189999996,
      "d": 128.20524999999907,
      "v": 111
    },
    {
      "midi": 62,
      "hit": false,
      "t": 327949.0294999996,
      "d": 135.68388958333526,
      "v": 127
    },
    {
      "midi": 60,
      "hit": false,
      "t": 328205.4399999996,
      "d": 97.22231458331225,
      "v": 127
    },
    {
      "midi": 60,
      "hit": false,
      "t": 328333.6452499996,
      "d": 115.3847250000108,
      "v": 127
    },
    {
      "midi": 60,
      "hit": false,
      "t": 328590.0557499996,
      "d": 143.16252916667145,
      "v": 127
    },
    {
      "midi": 60,
      "hit": false,
      "t": 328846.4662499996,
      "d": 159.18818541668588,
      "v": 127
    },
    {
      "midi": 58,
      "hit": false,
      "t": 329102.8767499996,
      "d": 144.2309062500135,
      "v": 127
    },
    {
      "midi": 58,
      "hit": false,
      "t": 329359.2872499996,
      "d": 130.34200416668318,
      "v": 127
    },
    {
      "midi": 55,
      "hit": false,
      "t": 329615.6977499996,
      "d": 164.53007083333796,
      "v": 126
    },
    {
      "midi": 58,
      "hit": false,
      "t": 329743.9029999996,
      "d": 115.3847250000108,
      "v": 127
    },
    {
      "midi": 58,
      "hit": false,
      "t": 330000.3134999996,
      "d": 133.54713541665114,
      "v": 127
    },
    {
      "midi": 55,
      "hit": false,
      "t": 330256.7239999996,
      "d": 161.3249395833118,
      "v": 120
    },
    {
      "midi": 58,
      "hit": false,
      "t": 330384.9292499996,
      "d": 122.86336458328879,
      "v": 100
    },
    {
      "midi": 60,
      "hit": false,
      "t": 330641.3397499995,
      "d": 143.16252916667145,
      "v": 127
    },
    {
      "midi": 55,
      "hit": false,
      "t": 330897.7502499995,
      "d": 138.88902083336143,
      "v": 127
    },
    {
      "midi": 58,
      "hit": false,
      "t": 331154.1607499996,
      "d": 153.8462999999756,
      "v": 127
    },
    {
      "midi": 58,
      "hit": false,
      "t": 331410.5712499996,
      "d": 120.72661041666288,
      "v": 127
    },
    {
      "midi": 55,
      "hit": false,
      "t": 331666.98174999957,
      "d": 166.66682500002207,
      "v": 120
    },
    {
      "midi": 58,
      "hit": false,
      "t": 331795.18699999957,
      "d": 115.3847250000108,
      "v": 127
    },
    {
      "midi": 58,
      "hit": false,
      "t": 332051.59749999957,
      "d": 126.06849583331496,
      "v": 127
    },
    {
      "midi": 55,
      "hit": false,
      "t": 332308.00799999957,
      "d": 182.6924812499783,
      "v": 127
    },
    {
      "midi": 58,
      "hit": false,
      "t": 332436.21324999956,
      "d": 107.90608541667461,
      "v": 127
    },
    {
      "midi": 60,
      "hit": false,
      "t": 332692.62374999956,
      "d": 141.02577499998733,
      "v": 127
    },
    {
      "midi": 55,
      "hit": false,
      "t": 332949.03424999956,
      "d": 135.68388958333526,
      "v": 127
    },
    {
      "midi": 58,
      "hit": false,
      "t": 333205.44474999956,
      "d": 115.3847250000108,
      "v": 127
    },
    {
      "midi": 58,
      "hit": false,
      "t": 333461.85524999956,
      "d": 120.72661041666288,
      "v": 127
    },
    {
      "midi": 55,
      "hit": false,
      "t": 333718.26574999955,
      "d": 183.76085833332036,
      "v": 123
    },
    {
      "midi": 58,
      "hit": false,
      "t": 333846.47099999955,
      "d": 100.42744583333842,
      "v": 127
    },
    {
      "midi": 58,
      "hit": false,
      "t": 334102.88149999955,
      "d": 150.64116875000764,
      "v": 127
    },
    {
      "midi": 55,
      "hit": false,
      "t": 334359.29199999955,
      "d": 199.7865145833348,
      "v": 127
    },
    {
      "midi": 58,
      "hit": false,
      "t": 334487.49724999955,
      "d": 112.17959374998463,
      "v": 127
    },
    {
      "midi": 60,
      "hit": false,
      "t": 334743.90774999955,
      "d": 133.54713541665114,
      "v": 127
    },
    {
      "midi": 55,
      "hit": false,
      "t": 335000.31824999955,
      "d": 159.18818541668588,
      "v": 123
    },
    {
      "midi": 58,
      "hit": false,
      "t": 335256.72874999954,
      "d": 117.52147916669492,
      "v": 127
    },
    {
      "midi": 58,
      "hit": false,
      "t": 335513.1392499996,
      "d": 135.68388958333526,
      "v": 127
    },
    {
      "midi": 55,
      "hit": false,
      "t": 335769.5497499996,
      "d": 159.18818541668588,
      "v": 127
    },
    {
      "midi": 62,
      "hit": false,
      "t": 335897.7549999996,
      "d": 128.20524999999907,
      "v": 111
    },
    {
      "midi": 62,
      "hit": false,
      "t": 336154.1654999996,
      "d": 135.68388958333526,
      "v": 127
    },
    {
      "midi": 60,
      "hit": false,
      "t": 336410.5759999996,
      "d": 97.22231458331225,
      "v": 127
    },
    {
      "midi": 60,
      "hit": false,
      "t": 336538.7812499996,
      "d": 115.3847250000108,
      "v": 127
    },
    {
      "midi": 60,
      "hit": false,
      "t": 336795.1917499996,
      "d": 143.16252916667145,
      "v": 127
    },
    {
      "midi": 60,
      "hit": false,
      "t": 337051.6022499996,
      "d": 159.18818541668588,
      "v": 127
    },
    {
      "midi": 58,
      "hit": false,
      "t": 337308.0127499996,
      "d": 144.2309062500135,
      "v": 127
    },
    {
      "midi": 58,
      "hit": false,
      "t": 337564.4232499996,
      "d": 130.34200416668318,
      "v": 127
    },
    {
      "midi": 55,
      "hit": false,
      "t": 337820.8337499996,
      "d": 164.53007083333796,
      "v": 126
    },
    {
      "midi": 58,
      "hit": false,
      "t": 337949.0389999996,
      "d": 115.3847250000108,
      "v": 127
    },
    {
      "midi": 58,
      "hit": false,
      "t": 338205.4494999996,
      "d": 133.54713541665114,
      "v": 127
    },
    {
      "midi": 55,
      "hit": false,
      "t": 338461.8599999996,
      "d": 161.3249395833118,
      "v": 120
    },
    {
      "midi": 58,
      "hit": false,
      "t": 338590.0652499996,
      "d": 122.86336458328879,
      "v": 100
    },
    {
      "midi": 60,
      "hit": false,
      "t": 338846.4757499995,
      "d": 143.16252916667145,
      "v": 127
    },
    {
      "midi": 55,
      "hit": false,
      "t": 339102.8862499995,
      "d": 138.88902083336143,
      "v": 127
    },
    {
      "midi": 58,
      "hit": false,
      "t": 339359.2967499996,
      "d": 153.8462999999756,
      "v": 127
    },
    {
      "midi": 58,
      "hit": false,
      "t": 390897.80724999955,
      "d": 120.72661041666288,
      "v": 127
    },
    {
      "midi": 55,
      "hit": false,
      "t": 391154.21774999955,
      "d": 166.66682500002207,
      "v": 120
    },
    {
      "midi": 58,
      "hit": false,
      "t": 391282.42299999954,
      "d": 115.3847250000108,
      "v": 127
    },
    {
      "midi": 58,
      "hit": false,
      "t": 391538.83349999954,
      "d": 126.06849583331496,
      "v": 127
    },
    {
      "midi": 55,
      "hit": false,
      "t": 391795.24399999954,
      "d": 182.6924812499783,
      "v": 127
    },
    {
      "midi": 58,
      "hit": false,
      "t": 391923.44924999954,
      "d": 107.90608541667461,
      "v": 127
    },
    {
      "midi": 60,
      "hit": false,
      "t": 392179.85974999954,
      "d": 141.02577499998733,
      "v": 127
    },
    {
      "midi": 55,
      "hit": false,
      "t": 392436.27024999954,
      "d": 135.68388958333526,
      "v": 127
    },
    {
      "midi": 58,
      "hit": false,
      "t": 392692.68074999953,
      "d": 115.3847250000108,
      "v": 127
    },
    {
      "midi": 58,
      "hit": false,
      "t": 392949.09124999953,
      "d": 120.72661041666288,
      "v": 127
    },
    {
      "midi": 55,
      "hit": false,
      "t": 393205.50174999953,
      "d": 183.76085833332036,
      "v": 123
    },
    {
      "midi": 58,
      "hit": false,
      "t": 393333.70699999953,
      "d": 100.42744583333842,
      "v": 127
    },
    {
      "midi": 58,
      "hit": false,
      "t": 393590.1174999995,
      "d": 150.64116875000764,
      "v": 127
    },
    {
      "midi": 55,
      "hit": false,
      "t": 393846.5279999995,
      "d": 199.7865145833348,
      "v": 127
    },
    {
      "midi": 58,
      "hit": false,
      "t": 393974.7332499995,
      "d": 112.17959374998463,
      "v": 127
    },
    {
      "midi": 60,
      "hit": false,
      "t": 394231.1437499995,
      "d": 133.54713541665114,
      "v": 127
    },
    {
      "midi": 55,
      "hit": false,
      "t": 394487.5542499995,
      "d": 159.18818541668588,
      "v": 123
    },
    {
      "midi": 58,
      "hit": false,
      "t": 394743.9647499995,
      "d": 117.52147916669492,
      "v": 127
    },
    {
      "midi": 58,
      "hit": false,
      "t": 395000.3752499996,
      "d": 135.68388958333526,
      "v": 127
    },
    {
      "midi": 55,
      "hit": false,
      "t": 395256.7857499996,
      "d": 159.18818541668588,
      "v": 127
    },
    {
      "midi": 62,
      "hit": false,
      "t": 395384.9909999996,
      "d": 128.20524999999907,
      "v": 111
    },
    {
      "midi": 62,
      "hit": false,
      "t": 395641.40149999957,
      "d": 135.68388958333526,
      "v": 127
    },
    {
      "midi": 60,
      "hit": false,
      "t": 395897.81199999957,
      "d": 97.22231458331225,
      "v": 127
    },
    {
      "midi": 60,
      "hit": false,
      "t": 396026.01724999957,
      "d": 115.3847250000108,
      "v": 127
    },
    {
      "midi": 60,
      "hit": false,
      "t": 396282.42774999957,
      "d": 143.16252916667145,
      "v": 127
    },
    {
      "midi": 60,
      "hit": false,
      "t": 396538.83824999956,
      "d": 159.18818541668588,
      "v": 127
    },
    {
      "midi": 58,
      "hit": false,
      "t": 396795.24874999956,
      "d": 144.2309062500135,
      "v": 127
    },
    {
      "midi": 58,
      "hit": false,
      "t": 397051.65924999956,
      "d": 130.34200416668318,
      "v": 127
    },
    {
      "midi": 55,
      "hit": false,
      "t": 397308.06974999956,
      "d": 164.53007083333796,
      "v": 126
    },
    {
      "midi": 58,
      "hit": false,
      "t": 397436.27499999956,
      "d": 115.3847250000108,
      "v": 127
    },
    {
      "midi": 58,
      "hit": false,
      "t": 397692.68549999956,
      "d": 133.54713541665114,
      "v": 127
    },
    {
      "midi": 55,
      "hit": false,
      "t": 397949.09599999955,
      "d": 161.3249395833118,
      "v": 120
    },
    {
      "midi": 58,
      "hit": false,
      "t": 398077.30124999955,
      "d": 122.86336458328879,
      "v": 100
    },
    {
      "midi": 60,
      "hit": false,
      "t": 398333.7117499995,
      "d": 143.16252916667145,
      "v": 127
    },
    {
      "midi": 55,
      "hit": false,
      "t": 398590.1222499995,
      "d": 138.88902083336143,
      "v": 127
    },
    {
      "midi": 58,
      "hit": false,
      "t": 398846.53274999955,
      "d": 153.8462999999756,
      "v": 127
    },
    {
      "midi": 58,
      "hit": false,
      "t": 399102.94324999955,
      "d": 120.72661041666288,
      "v": 127
    },
    {
      "midi": 55,
      "hit": false,
      "t": 399359.35374999954,
      "d": 166.66682500002207,
      "v": 120
    },
    {
      "midi": 58,
      "hit": false,
      "t": 399487.55899999954,
      "d": 115.3847250000108,
      "v": 127
    },
    {
      "midi": 58,
      "hit": false,
      "t": 399743.96949999954,
      "d": 126.06849583331496,
      "v": 127
    },
    {
      "midi": 55,
      "hit": false,
      "t": 400000.37999999954,
      "d": 182.6924812499783,
      "v": 127
    },
    {
      "midi": 58,
      "hit": false,
      "t": 400128.58524999954,
      "d": 107.90608541667461,
      "v": 127
    },
    {
      "midi": 60,
      "hit": false,
      "t": 400384.99574999954,
      "d": 141.02577499998733,
      "v": 127
    },
    {
      "midi": 55,
      "hit": false,
      "t": 400641.40624999953,
      "d": 135.68388958333526,
      "v": 127
    },
    {
      "midi": 58,
      "hit": false,
      "t": 400897.81674999953,
      "d": 115.3847250000108,
      "v": 127
    },
    {
      "midi": 58,
      "hit": false,
      "t": 401154.22724999953,
      "d": 120.72661041666288,
      "v": 127
    },
    {
      "midi": 55,
      "hit": false,
      "t": 401410.6377499995,
      "d": 183.76085833332036,
      "v": 123
    },
    {
      "midi": 58,
      "hit": false,
      "t": 401538.8429999995,
      "d": 100.42744583333842,
      "v": 127
    },
    {
      "midi": 58,
      "hit": false,
      "t": 401795.2534999995,
      "d": 150.64116875000764,
      "v": 127
    },
    {
      "midi": 55,
      "hit": false,
      "t": 402051.6639999995,
      "d": 199.7865145833348,
      "v": 127
    },
    {
      "midi": 58,
      "hit": false,
      "t": 402179.8692499995,
      "d": 112.17959374998463,
      "v": 127
    },
    {
      "midi": 60,
      "hit": false,
      "t": 402436.2797499995,
      "d": 133.54713541665114,
      "v": 127
    },
    {
      "midi": 55,
      "hit": false,
      "t": 402692.6902499995,
      "d": 159.18818541668588,
      "v": 123
    },
    {
      "midi": 58,
      "hit": false,
      "t": 402949.1007499995,
      "d": 117.52147916669492,
      "v": 127
    },
    {
      "midi": 58,
      "hit": false,
      "t": 403205.5112499996,
      "d": 135.68388958333526,
      "v": 127
    },
    {
      "midi": 55,
      "hit": false,
      "t": 403461.9217499996,
      "d": 159.18818541668588,
      "v": 127
    },
    {
      "midi": 62,
      "hit": false,
      "t": 403590.1269999996,
      "d": 128.20524999999907,
      "v": 111
    },
    {
      "midi": 62,
      "hit": false,
      "t": 403846.53749999957,
      "d": 135.68388958333526,
      "v": 127
    },
    {
      "midi": 60,
      "hit": false,
      "t": 404102.94799999957,
      "d": 97.22231458331225,
      "v": 127
    },
    {
      "midi": 60,
      "hit": false,
      "t": 404231.15324999957,
      "d": 115.3847250000108,
      "v": 127
    },
    {
      "midi": 60,
      "hit": false,
      "t": 404487.56374999956,
      "d": 143.16252916667145,
      "v": 127
    },
    {
      "midi": 60,
      "hit": false,
      "t": 404743.97424999956,
      "d": 159.18818541668588,
      "v": 127
    },
    {
      "midi": 58,
      "hit": false,
      "t": 405000.38474999956,
      "d": 144.2309062500135,
      "v": 127
    },
    {
      "midi": 58,
      "hit": false,
      "t": 405256.79524999956,
      "d": 130.34200416668318,
      "v": 127
    },
    {
      "midi": 55,
      "hit": false,
      "t": 405513.20574999956,
      "d": 164.53007083333796,
      "v": 126
    },
    {
      "midi": 58,
      "hit": false,
      "t": 405641.41099999956,
      "d": 115.3847250000108,
      "v": 127
    },
    {
      "midi": 58,
      "hit": false,
      "t": 405897.82149999955,
      "d": 133.54713541665114,
      "v": 127
    },
    {
      "midi": 55,
      "hit": false,
      "t": 406154.23199999955,
      "d": 161.3249395833118,
      "v": 120
    },
    {
      "midi": 58,
      "hit": false,
      "t": 406282.43724999955,
      "d": 122.86336458328879,
      "v": 100
    },
    {
      "midi": 60,
      "hit": false,
      "t": 406538.8477499995,
      "d": 143.16252916667145,
      "v": 127
    },
    {
      "midi": 55,
      "hit": false,
      "t": 406795.2582499995,
      "d": 138.88902083336143,
      "v": 127
    },
    {
      "midi": 58,
      "hit": false,
      "t": 407051.66874999955,
      "d": 153.8462999999756,
      "v": 127
    }
  ]
}