{
  "jsonPath": "Rap/Meme Rap/SHOKK/renaissance-mat-silver-sunday-morning-remix.json",
  "path": "Rap\\Meme Rap\\SHOKK\\Renaissance - Mat Silver Sunday Morning Remix.mid",
  "name": "Renaissance - Mat Silver Sunday Morning Remix",
  "difficulty": "Advanced",
  "bpm": 122.0000691333725,
  "notes": [
    {
      "midi": 69,
      "hit": false,
      "t": 3934.4240000000004,
      "d": 124.99992916666679,
      "v": 97
    },
    {
      "midi": 50,
      "hit": false,
      "t": 3934.4240000000004,
      "d": 2879.096729166667,
      "v": 77
    },
    {
      "midi": 62,
      "hit": false,
      "t": 4180.325500000001,
      "d": 100.40977916666634,
      "v": 81
    },
    {
      "midi": 72,
      "hit": false,
      "t": 4426.227000000001,
      "d": 129.09828749999997,
      "v": 97
    },
    {
      "midi": 72,
      "hit": false,
      "t": 4795.079250000001,
      "d": 124.99992916666633,
      "v": 101
    },
    {
      "midi": 64,
      "hit": false,
      "t": 5163.931500000001,
      "d": 116.80321249999997,
      "v": 101
    },
    {
      "midi": 65,
      "hit": false,
      "t": 5532.7837500000005,
      "d": 114.75403333333361,
      "v": 97
    },
    {
      "midi": 69,
      "hit": false,
      "t": 5901.636,
      "d": 129.09828749999997,
      "v": 97
    },
    {
      "midi": 62,
      "hit": false,
      "t": 6147.5375,
      "d": 102.45895833333361,
      "v": 75
    },
    {
      "midi": 74,
      "hit": false,
      "t": 6393.439,
      "d": 122.95074999999997,
      "v": 97
    },
    {
      "midi": 74,
      "hit": false,
      "t": 6762.29125,
      "d": 122.95074999999997,
      "v": 101
    },
    {
      "midi": 64,
      "hit": false,
      "t": 7131.1435,
      "d": 145.4917208333336,
      "v": 97
    },
    {
      "midi": 65,
      "hit": false,
      "t": 7499.99575,
      "d": 153.68843749999996,
      "v": 93
    },
    {
      "midi": 69,
      "hit": false,
      "t": 7868.848,
      "d": 131.14746666666633,
      "v": 101
    },
    {
      "midi": 45,
      "hit": false,
      "t": 7868.848000000001,
      "d": 1885.2448333333332,
      "v": 84
    },
    {
      "midi": 62,
      "hit": false,
      "t": 8114.7495,
      "d": 114.7540333333327,
      "v": 71
    },
    {
      "midi": 72,
      "hit": false,
      "t": 8360.651,
      "d": 124.99992916666633,
      "v": 101
    },
    {
      "midi": 72,
      "hit": false,
      "t": 8729.50325,
      "d": 139.3441833333327,
      "v": 101
    },
    {
      "midi": 64,
      "hit": false,
      "t": 9098.3555,
      "d": 153.68843750000087,
      "v": 101
    },
    {
      "midi": 65,
      "hit": false,
      "t": 9467.207750000001,
      "d": 118.85239166666724,
      "v": 85
    },
    {
      "midi": 69,
      "hit": false,
      "t": 9836.060000000001,
      "d": 124.99992916666633,
      "v": 93
    },
    {
      "midi": 46,
      "hit": false,
      "t": 9836.060000000001,
      "d": 965.1633875000007,
      "v": 78
    },
    {
      "midi": 62,
      "hit": false,
      "t": 10081.961500000001,
      "d": 98.36059999999998,
      "v": 75
    },
    {
      "midi": 74,
      "hit": false,
      "t": 10327.863000000001,
      "d": 133.1966458333336,
      "v": 97
    },
    {
      "midi": 74,
      "hit": false,
      "t": 10696.715250000001,
      "d": 129.09828750000088,
      "v": 107
    },
    {
      "midi": 48,
      "hit": false,
      "t": 10819.666000000003,
      "d": 961.0650291666661,
      "v": 82
    },
    {
      "midi": 64,
      "hit": false,
      "t": 11065.567500000003,
      "d": 153.68843750000087,
      "v": 97
    },
    {
      "midi": 65,
      "hit": false,
      "t": 11434.419750000005,
      "d": 112.70485416666634,
      "v": 85
    },
    {
      "midi": 50,
      "hit": false,
      "t": 11803.272000000003,
      "d": 3858.6043708333327,
      "v": 84
    },
    {
      "midi": 69,
      "hit": false,
      "t": 11803.272000000004,
      "d": 124.99992916666633,
      "v": 97
    },
    {
      "midi": 62,
      "hit": false,
      "t": 12049.173500000004,
      "d": 100.40977916666634,
      "v": 81
    },
    {
      "midi": 72,
      "hit": false,
      "t": 12295.075000000004,
      "d": 129.09828750000088,
      "v": 97
    },
    {
      "midi": 72,
      "hit": false,
      "t": 12663.927250000006,
      "d": 124.99992916666633,
      "v": 101
    },
    {
      "midi": 64,
      "hit": false,
      "t": 13032.779500000006,
      "d": 116.80321250000088,
      "v": 101
    },
    {
      "midi": 65,
      "hit": false,
      "t": 13401.631750000008,
      "d": 114.7540333333327,
      "v": 97
    },
    {
      "midi": 69,
      "hit": false,
      "t": 13770.484000000008,
      "d": 129.09828750000088,
      "v": 97
    },
    {
      "midi": 62,
      "hit": false,
      "t": 14016.38550000001,
      "d": 102.4589583333327,
      "v": 75
    },
    {
      "midi": 74,
      "hit": false,
      "t": 14262.28700000001,
      "d": 122.95074999999997,
      "v": 97
    },
    {
      "midi": 74,
      "hit": false,
      "t": 14631.13925000001,
      "d": 122.95074999999997,
      "v": 101
    },
    {
      "midi": 64,
      "hit": false,
      "t": 14999.99150000001,
      "d": 145.4917208333336,
      "v": 97
    },
    {
      "midi": 65,
      "hit": false,
      "t": 15368.84375000001,
      "d": 153.68843750000087,
      "v": 93
    },
    {
      "midi": 69,
      "hit": false,
      "t": 15737.696000000002,
      "d": 131.14746666666724,
      "v": 85
    },
    {
      "midi": 46,
      "hit": false,
      "t": 15737.69600000001,
      "d": 3321.7194291666674,
      "v": 92
    },
    {
      "midi": 50,
      "hit": false,
      "t": 15737.69600000001,
      "d": 3334.014504166669,
      "v": 78
    },
    {
      "midi": 53,
      "hit": false,
      "t": 15737.69600000001,
      "d": 3334.014504166669,
      "v": 74
    },
    {
      "midi": 62,
      "hit": false,
      "t": 15737.69600000001,
      "d": 3381.145625000001,
      "v": 88
    },
    {
      "midi": 58,
      "hit": false,
      "t": 15737.69600000001,
      "d": 3401.6374166666683,
      "v": 92
    },
    {
      "midi": 65,
      "hit": false,
      "t": 15737.69600000001,
      "d": 3403.6865958333365,
      "v": 92
    },
    {
      "midi": 62,
      "hit": false,
      "t": 15983.597500000002,
      "d": 114.7540333333327,
      "v": 55
    },
    {
      "midi": 72,
      "hit": false,
      "t": 16229.499000000002,
      "d": 124.99992916666633,
      "v": 85
    },
    {
      "midi": 72,
      "hit": false,
      "t": 16598.35125,
      "d": 139.3441833333345,
      "v": 85
    },
    {
      "midi": 64,
      "hit": false,
      "t": 16967.2035,
      "d": 153.68843750000087,
      "v": 85
    },
    {
      "midi": 65,
      "hit": false,
      "t": 17336.05575,
      "d": 118.85239166666724,
      "v": 69
    },
    {
      "midi": 69,
      "hit": false,
      "t": 17704.908,
      "d": 124.99992916666815,
      "v": 77
    },
    {
      "midi": 62,
      "hit": false,
      "t": 17950.8095,
      "d": 98.36059999999998,
      "v": 59
    },
    {
      "midi": 74,
      "hit": false,
      "t": 18196.711,
      "d": 133.1966458333336,
      "v": 81
    },
    {
      "midi": 74,
      "hit": false,
      "t": 18565.56325,
      "d": 129.09828750000088,
      "v": 91
    },
    {
      "midi": 64,
      "hit": false,
      "t": 18934.4155,
      "d": 153.68843750000087,
      "v": 81
    },
    {
      "midi": 65,
      "hit": false,
      "t": 19303.26775,
      "d": 112.70485416666634,
      "v": 69
    },
    {
      "midi": 69,
      "hit": false,
      "t": 19672.12,
      "d": 124.99992916666815,
      "v": 81
    },
    {
      "midi": 50,
      "hit": false,
      "t": 19672.120000000014,
      "d": 3387.293162500002,
      "v": 106
    },
    {
      "midi": 65,
      "hit": false,
      "t": 19672.120000000014,
      "d": 3418.030850000003,
      "v": 96
    },
    {
      "midi": 38,
      "hit": false,
      "t": 19672.120000000014,
      "d": 3438.52264166667,
      "v": 100
    },
    {
      "midi": 69,
      "hit": false,
      "t": 19672.120000000014,
      "d": 3442.621000000003,
      "v": 100
    },
    {
      "midi": 62,
      "hit": false,
      "t": 19672.120000000014,
      "d": 3444.670179166671,
      "v": 96
    },
    {
      "midi": 62,
      "hit": false,
      "t": 19918.0215,
      "d": 100.40977916666816,
      "v": 65
    },
    {
      "midi": 72,
      "hit": false,
      "t": 20163.923,
      "d": 129.09828750000088,
      "v": 81
    },
    {
      "midi": 72,
      "hit": false,
      "t": 20532.77525,
      "d": 124.99992916666815,
      "v": 85
    },
    {
      "midi": 64,
      "hit": false,
      "t": 20901.6275,
      "d": 116.80321249999906,
      "v": 85
    },
    {
      "midi": 65,
      "hit": false,
      "t": 21270.47975,
      "d": 114.75403333333452,
      "v": 81
    },
    {
      "midi": 69,
      "hit": false,
      "t": 21639.332,
      "d": 129.09828750000088,
      "v": 81
    },
    {
      "midi": 62,
      "hit": false,
      "t": 21885.2335,
      "d": 102.4589583333327,
      "v": 59
    },
    {
      "midi": 74,
      "hit": false,
      "t": 22131.135,
      "d": 122.95074999999997,
      "v": 81
    },
    {
      "midi": 74,
      "hit": false,
      "t": 22499.98725,
      "d": 122.95074999999997,
      "v": 85
    },
    {
      "midi": 64,
      "hit": false,
      "t": 22868.8395,
      "d": 145.49172083333178,
      "v": 81
    },
    {
      "midi": 65,
      "hit": false,
      "t": 23237.691749999998,
      "d": 153.68843750000087,
      "v": 77
    },
    {
      "midi": 69,
      "hit": false,
      "t": 23606.543999999998,
      "d": 131.14746666666542,
      "v": 85
    },
    {
      "midi": 33,
      "hit": false,
      "t": 23606.544000000016,
      "d": 1692.6219916666669,
      "v": 100
    },
    {
      "midi": 45,
      "hit": false,
      "t": 23606.544000000016,
      "d": 1702.8678875000005,
      "v": 92
    },
    {
      "midi": 60,
      "hit": false,
      "t": 23606.544000000016,
      "d": 1840.1628916666668,
      "v": 100
    },
    {
      "midi": 57,
      "hit": false,
      "t": 23606.544000000016,
      "d": 1858.605504166666,
      "v": 100
    },
    {
      "midi": 64,
      "hit": false,
      "t": 23606.544000000016,
      "d": 1877.048116666665,
      "v": 92
    },
    {
      "midi": 62,
      "hit": false,
      "t": 23852.445499999998,
      "d": 114.75403333333452,
      "v": 55
    },
    {
      "midi": 72,
      "hit": false,
      "t": 24098.346999999998,
      "d": 124.99992916666815,
      "v": 85
    },
    {
      "midi": 72,
      "hit": false,
      "t": 24467.199249999998,
      "d": 139.3441833333345,
      "v": 85
    },
    {
      "midi": 64,
      "hit": false,
      "t": 24836.051499999998,
      "d": 153.68843750000087,
      "v": 85
    },
    {
      "midi": 65,
      "hit": false,
      "t": 25204.903749999998,
      "d": 118.85239166666724,
      "v": 69
    },
    {
      "midi": 69,
      "hit": false,
      "t": 25573.755999999998,
      "d": 124.99992916666815,
      "v": 77
    },
    {
      "midi": 58,
      "hit": false,
      "t": 25573.756000000016,
      "d": 745.9012166666653,
      "v": 110
    },
    {
      "midi": 34,
      "hit": false,
      "t": 25573.756000000016,
      "d": 762.2946499999998,
      "v": 110
    },
    {
      "midi": 46,
      "hit": false,
      "t": 25573.756000000016,
      "d": 801.2290541666662,
      "v": 100
    },
    {
      "midi": 65,
      "hit": false,
      "t": 25573.756000000016,
      "d": 809.4257708333316,
      "v": 96
    },
    {
      "midi": 62,
      "hit": false,
      "t": 25573.756000000016,
      "d": 811.4749499999998,
      "v": 80
    },
    {
      "midi": 62,
      "hit": false,
      "t": 25819.657499999998,
      "d": 98.36059999999998,
      "v": 59
    },
    {
      "midi": 74,
      "hit": false,
      "t": 26065.558999999997,
      "d": 133.1966458333336,
      "v": 81
    },
    {
      "midi": 74,
      "hit": false,
      "t": 26434.411249999997,
      "d": 129.09828750000088,
      "v": 91
    },
    {
      "midi": 48,
      "hit": false,
      "t": 26557.362000000016,
      "d": 829.9175624999989,
      "v": 84
    },
    {
      "midi": 60,
      "hit": false,
      "t": 26557.362000000016,
      "d": 831.9667416666671,
      "v": 100
    },
    {
      "midi": 36,
      "hit": false,
      "t": 26557.362000000016,
      "d": 834.0159208333353,
      "v": 88
    },
    {
      "midi": 64,
      "hit": false,
      "t": 26557.362000000016,
      "d": 846.3109958333371,
      "v": 106
    },
    {
      "midi": 67,
      "hit": false,
      "t": 26557.362000000016,
      "d": 852.458533333338,
      "v": 100
    },
    {
      "midi": 64,
      "hit": false,
      "t": 26803.263499999997,
      "d": 153.68843750000087,
      "v": 81
    },
    {
      "midi": 65,
      "hit": false,
      "t": 27172.115749999997,
      "d": 112.70485416666634,
      "v": 69
    },
    {
      "midi": 69,
      "hit": false,
      "t": 27540.967999999997,
      "d": 124.99992916666815,
      "v": 81
    },
    {
      "midi": 62,
      "hit": false,
      "t": 27540.96800000002,
      "d": 3350.4079375,
      "v": 84
    },
    {
      "midi": 50,
      "hit": false,
      "t": 27540.96800000002,
      "d": 3379.096445833333,
      "v": 106
    },
    {
      "midi": 69,
      "hit": false,
      "t": 27540.96800000002,
      "d": 3383.1948041666656,
      "v": 96
    },
    {
      "midi": 38,
      "hit": false,
      "t": 27540.96800000002,
      "d": 3407.7849541666656,
      "v": 100
    },
    {
      "midi": 65,
      "hit": false,
      "t": 27540.96800000002,
      "d": 3469.2603291666674,
      "v": 106
    },
    {
      "midi": 62,
      "hit": false,
      "t": 27786.869499999997,
      "d": 100.40977916666816,
      "v": 65
    },
    {
      "midi": 72,
      "hit": false,
      "t": 28032.770999999997,
      "d": 129.09828750000088,
      "v": 81
    },
    {
      "midi": 72,
      "hit": false,
      "t": 28401.623249999997,
      "d": 124.99992916666815,
      "v": 85
    },
    {
      "midi": 64,
      "hit": false,
      "t": 28770.475499999997,
      "d": 116.80321249999906,
      "v": 85
    },
    {
      "midi": 65,
      "hit": false,
      "t": 29139.327749999997,
      "d": 114.75403333333452,
      "v": 81
    },
    {
      "midi": 69,
      "hit": false,
      "t": 29508.179999999997,
      "d": 129.09828750000088,
      "v": 81
    },
    {
      "midi": 62,
      "hit": false,
      "t": 29754.081499999997,
      "d": 102.4589583333327,
      "v": 59
    },
    {
      "midi": 74,
      "hit": false,
      "t": 29999.982999999997,
      "d": 122.95074999999997,
      "v": 81
    },
    {
      "midi": 74,
      "hit": false,
      "t": 30368.835249999996,
      "d": 122.95074999999997,
      "v": 85
    },
    {
      "midi": 64,
      "hit": false,
      "t": 30737.687499999996,
      "d": 145.49172083333178,
      "v": 81
    },
    {
      "midi": 65,
      "hit": false,
      "t": 31106.539749999996,
      "d": 153.68843750000087,
      "v": 77
    },
    {
      "midi": 69,
      "hit": false,
      "t": 31475.391999999996,
      "d": 131.14746666666542,
      "v": 85
    },
    {
      "midi": 34,
      "hit": false,
      "t": 31475.392000000018,
      "d": 3356.5554749999974,
      "v": 116
    },
    {
      "midi": 46,
      "hit": false,
      "t": 31475.392000000018,
      "d": 3385.24398333333,
      "v": 122
    },
    {
      "midi": 62,
      "hit": false,
      "t": 31475.392000000018,
      "d": 3432.3751041666656,
      "v": 84
    },
    {
      "midi": 58,
      "hit": false,
      "t": 31475.392000000018,
      "d": 3434.42428333333,
      "v": 110
    },
    {
      "midi": 65,
      "hit": false,
      "t": 31475.392000000018,
      "d": 3444.67017916666,
      "v": 92
    },
    {
      "midi": 70,
      "hit": false,
      "t": 31475.392000000018,
      "d": 3463.112791666663,
      "v": 110
    },
    {
      "midi": 62,
      "hit": false,
      "t": 31721.293499999996,
      "d": 114.75403333333452,
      "v": 55
    },
    {
      "midi": 72,
      "hit": false,
      "t": 31967.194999999996,
      "d": 124.99992916666815,
      "v": 85
    },
    {
      "midi": 72,
      "hit": false,
      "t": 32336.047249999996,
      "d": 139.3441833333345,
      "v": 85
    },
    {
      "midi": 64,
      "hit": false,
      "t": 32704.899499999996,
      "d": 153.68843749999724,
      "v": 85
    },
    {
      "midi": 65,
      "hit": false,
      "t": 33073.751749999996,
      "d": 118.85239166666724,
      "v": 69
    },
    {
      "midi": 69,
      "hit": false,
      "t": 33442.604,
      "d": 124.99992916666815,
      "v": 77
    },
    {
      "midi": 62,
      "hit": false,
      "t": 33688.5055,
      "d": 98.36059999999998,
      "v": 59
    },
    {
      "midi": 74,
      "hit": false,
      "t": 33934.407,
      "d": 133.1966458333336,
      "v": 81
    },
    {
      "midi": 74,
      "hit": false,
      "t": 34303.25925,
      "d": 129.09828749999724,
      "v": 91
    },
    {
      "midi": 64,
      "hit": false,
      "t": 34672.1115,
      "d": 153.68843750000087,
      "v": 81
    },
    {
      "midi": 65,
      "hit": false,
      "t": 35040.96375,
      "d": 112.70485416666634,
      "v": 69
    },
    {
      "midi": 69,
      "hit": false,
      "t": 35409.816,
      "d": 124.99992916666815,
      "v": 81
    },
    {
      "midi": 50,
      "hit": false,
      "t": 35409.81600000001,
      "d": 3454.916075000001,
      "v": 96
    },
    {
      "midi": 69,
      "hit": false,
      "t": 35409.81600000001,
      "d": 3483.6045833333337,
      "v": 92
    },
    {
      "midi": 65,
      "hit": false,
      "t": 35409.81600000001,
      "d": 3491.801299999999,
      "v": 100
    },
    {
      "midi": 38,
      "hit": false,
      "t": 35409.81600000001,
      "d": 3508.19473333333,
      "v": 100
    },
    {
      "midi": 62,
      "hit": false,
      "t": 35409.81600000001,
      "d": 3508.19473333333,
      "v": 110
    },
    {
      "midi": 62,
      "hit": false,
      "t": 35655.7175,
      "d": 100.40977916666452,
      "v": 65
    },
    {
      "midi": 72,
      "hit": false,
      "t": 35901.619,
      "d": 129.09828749999724,
      "v": 81
    },
    {
      "midi": 72,
      "hit": false,
      "t": 36270.471249999995,
      "d": 124.99992916666815,
      "v": 85
    },
    {
      "midi": 64,
      "hit": false,
      "t": 36639.3235,
      "d": 116.8032125000027,
      "v": 85
    },
    {
      "midi": 65,
      "hit": false,
      "t": 37008.17575,
      "d": 114.75403333333088,
      "v": 81
    },
    {
      "midi": 69,
      "hit": false,
      "t": 37377.028,
      "d": 129.09828749999724,
      "v": 81
    },
    {
      "midi": 62,
      "hit": false,
      "t": 37622.9295,
      "d": 102.45895833333634,
      "v": 59
    },
    {
      "midi": 74,
      "hit": false,
      "t": 37868.831,
      "d": 122.95075000000361,
      "v": 81
    },
    {
      "midi": 74,
      "hit": false,
      "t": 38237.68325,
      "d": 122.95075000000361,
      "v": 85
    },
    {
      "midi": 64,
      "hit": false,
      "t": 38606.535500000005,
      "d": 145.49172083333542,
      "v": 81
    },
    {
      "midi": 65,
      "hit": false,
      "t": 38975.38775000001,
      "d": 153.68843750000087,
      "v": 77
    },
    {
      "midi": 60,
      "hit": false,
      "t": 39344.24000000001,
      "d": 1622.9498999999996,
      "v": 110
    },
    {
      "midi": 33,
      "hit": false,
      "t": 39344.24000000001,
      "d": 1645.4908708333314,
      "v": 88
    },
    {
      "midi": 45,
      "hit": false,
      "t": 39344.24000000001,
      "d": 1655.7367666666614,
      "v": 88
    },
    {
      "midi": 57,
      "hit": false,
      "t": 39344.24000000001,
      "d": 1727.4580374999932,
      "v": 96
    },
    {
      "midi": 64,
      "hit": false,
      "t": 39344.24000000001,
      "d": 1752.0481874999969,
      "v": 100
    },
    {
      "midi": 69,
      "hit": false,
      "t": 39344.24000000001,
      "d": 131.14746666666906,
      "v": 85
    },
    {
      "midi": 62,
      "hit": false,
      "t": 39590.14150000001,
      "d": 114.75403333333088,
      "v": 55
    },
    {
      "midi": 72,
      "hit": false,
      "t": 39836.04300000001,
      "d": 124.99992916666815,
      "v": 85
    },
    {
      "midi": 72,
      "hit": false,
      "t": 40204.895250000016,
      "d": 139.3441833333345,
      "v": 85
    },
    {
      "midi": 64,
      "hit": false,
      "t": 40573.74750000002,
      "d": 153.68843750000087,
      "v": 85
    },
    {
      "midi": 65,
      "hit": false,
      "t": 40942.59975000002,
      "d": 118.85239166666724,
      "v": 69
    },
    {
      "midi": 58,
      "hit": false,
      "t": 41311.45200000001,
      "d": 682.3766624999989,
      "v": 122
    },
    {
      "midi": 46,
      "hit": false,
      "t": 41311.45200000001,
      "d": 692.6225583333289,
      "v": 110
    },
    {
      "midi": 34,
      "hit": false,
      "t": 41311.45200000001,
      "d": 709.0159916666598,
      "v": 106
    },
    {
      "midi": 65,
      "hit": false,
      "t": 41311.45200000001,
      "d": 733.6061416666635,
      "v": 100
    },
    {
      "midi": 62,
      "hit": false,
      "t": 41311.45200000001,
      "d": 764.3438291666607,
      "v": 96
    },
    {
      "midi": 69,
      "hit": false,
      "t": 41311.45200000003,
      "d": 124.99992916666815,
      "v": 77
    },
    {
      "midi": 62,
      "hit": false,
      "t": 41557.35350000003,
      "d": 98.36059999999998,
      "v": 59
    },
    {
      "midi": 74,
      "hit": false,
      "t": 41803.25500000003,
      "d": 133.1966458333336,
      "v": 81
    },
    {
      "midi": 74,
      "hit": false,
      "t": 42172.10725000003,
      "d": 129.09828749999724,
      "v": 91
    },
    {
      "midi": 48,
      "hit": false,
      "t": 42295.058000000005,
      "d": 803.2782333333307,
      "v": 88
    },
    {
      "midi": 36,
      "hit": false,
      "t": 42295.058000000005,
      "d": 807.3765916666671,
      "v": 70
    },
    {
      "midi": 60,
      "hit": false,
      "t": 42295.058000000005,
      "d": 811.4749500000034,
      "v": 92
    },
    {
      "midi": 64,
      "hit": false,
      "t": 42295.058000000005,
      "d": 815.5733083333398,
      "v": 106
    },
    {
      "midi": 67,
      "hit": false,
      "t": 42295.058000000005,
      "d": 823.7700250000053,
      "v": 92
    },
    {
      "midi": 64,
      "hit": false,
      "t": 42540.959500000026,
      "d": 153.68843750000087,
      "v": 81
    },
    {
      "midi": 65,
      "hit": false,
      "t": 42909.81175000003,
      "d": 112.70485416666634,
      "v": 69
    },
    {
      "midi": 65,
      "hit": false,
      "t": 43278.66400000001,
      "d": 3639.342199999999,
      "v": 106
    },
    {
      "midi": 69,
      "hit": false,
      "t": 43278.66400000001,
      "d": 3643.4405583333355,
      "v": 100
    },
    {
      "midi": 62,
      "hit": false,
      "t": 43278.66400000001,
      "d": 3645.4897375,
      "v": 92
    },
    {
      "midi": 38,
      "hit": false,
      "t": 43278.66400000001,
      "d": 3655.73563333333,
      "v": 100
    },
    {
      "midi": 50,
      "hit": false,
      "t": 43278.66400000001,
      "d": 3657.7848124999946,
      "v": 84
    },
    {
      "midi": 69,
      "hit": false,
      "t": 43278.664000000026,
      "d": 124.99992916666815,
      "v": 81
    },
    {
      "midi": 62,
      "hit": false,
      "t": 43524.565500000026,
      "d": 100.40977916666452,
      "v": 65
    },
    {
      "midi": 72,
      "hit": false,
      "t": 43770.467000000026,
      "d": 129.09828749999724,
      "v": 81
    },
    {
      "midi": 72,
      "hit": false,
      "t": 44139.31925000002,
      "d": 124.99992916666815,
      "v": 85
    },
    {
      "midi": 64,
      "hit": false,
      "t": 44508.171500000026,
      "d": 116.8032125000027,
      "v": 85
    },
    {
      "midi": 65,
      "hit": false,
      "t": 44877.02375000003,
      "d": 114.75403333333088,
      "v": 81
    },
    {
      "midi": 65,
      "hit": false,
      "t": 47213.088,
      "d": 3782.78474166667,
      "v": 96
    },
    {
      "midi": 69,
      "hit": false,
      "t": 47213.088,
      "d": 3782.78474166667,
      "v": 92
    },
    {
      "midi": 50,
      "hit": false,
      "t": 47213.088,
      "d": 3801.2273541666727,
      "v": 70
    },
    {
      "midi": 62,
      "hit": false,
      "t": 47213.088,
      "d": 3805.325712500009,
      "v": 80
    },
    {
      "midi": 69,
      "hit": false,
      "t": 47213.088000000025,
      "d": 131.14746666666906,
      "v": 85
    },
    {
      "midi": 62,
      "hit": false,
      "t": 47458.989500000025,
      "d": 114.75403333333088,
      "v": 55
    },
    {
      "midi": 72,
      "hit": false,
      "t": 47704.891000000025,
      "d": 124.99992916666815,
      "v": 85
    },
    {
      "midi": 72,
      "hit": false,
      "t": 48073.74325000003,
      "d": 139.3441833333345,
      "v": 85
    },
    {
      "midi": 64,
      "hit": false,
      "t": 48442.59550000003,
      "d": 153.68843750000087,
      "v": 85
    },
    {
      "midi": 65,
      "hit": false,
      "t": 48811.447750000036,
      "d": 118.85239166666724,
      "v": 69
    },
    {
      "midi": 69,
      "hit": false,
      "t": 49180.30000000004,
      "d": 124.99992916666815,
      "v": 77
    },
    {
      "midi": 62,
      "hit": false,
      "t": 49426.20150000004,
      "d": 98.36059999999998,
      "v": 59
    },
    {
      "midi": 74,
      "hit": false,
      "t": 49672.10300000004,
      "d": 133.1966458333336,
      "v": 81
    },
    {
      "midi": 74,
      "hit": false,
      "t": 50040.95525000004,
      "d": 129.09828749999724,
      "v": 91
    },
    {
      "midi": 64,
      "hit": false,
      "t": 50409.80750000004,
      "d": 153.68843750000087,
      "v": 81
    },
    {
      "midi": 65,
      "hit": false,
      "t": 50778.65975000004,
      "d": 112.70485416666634,
      "v": 69
    },
    {
      "midi": 48,
      "hit": false,
      "t": 51147.51200000001,
      "d": 3348.3587583333356,
      "v": 74
    },
    {
      "midi": 67,
      "hit": false,
      "t": 51147.51200000001,
      "d": 3397.5390583333356,
      "v": 88
    },
    {
      "midi": 64,
      "hit": false,
      "t": 51147.51200000001,
      "d": 3401.637416666672,
      "v": 96
    },
    {
      "midi": 60,
      "hit": false,
      "t": 51147.51200000001,
      "d": 3418.030850000003,
      "v": 96
    },
    {
      "midi": 69,
      "hit": false,
      "t": 51147.51200000004,
      "d": 124.99992916666815,
      "v": 81
    },
    {
      "midi": 62,
      "hit": false,
      "t": 51393.41350000004,
      "d": 100.40977916666452,
      "v": 65
    },
    {
      "midi": 72,
      "hit": false,
      "t": 51639.31500000004,
      "d": 129.09828749999724,
      "v": 81
    },
    {
      "midi": 72,
      "hit": false,
      "t": 52008.167250000035,
      "d": 124.99992916666815,
      "v": 85
    },
    {
      "midi": 64,
      "hit": false,
      "t": 52377.01950000004,
      "d": 116.8032125000027,
      "v": 85
    },
    {
      "midi": 65,
      "hit": false,
      "t": 52745.87175000004,
      "d": 114.75403333333088,
      "v": 81
    },
    {
      "midi": 69,
      "hit": false,
      "t": 53114.72400000004,
      "d": 129.09828749999724,
      "v": 81
    },
    {
      "midi": 62,
      "hit": false,
      "t": 53360.62550000004,
      "d": 102.45895833333634,
      "v": 59
    },
    {
      "midi": 74,
      "hit": false,
      "t": 53606.52700000004,
      "d": 122.95075000000361,
      "v": 81
    },
    {
      "midi": 74,
      "hit": false,
      "t": 53975.37925000004,
      "d": 122.95075000000361,
      "v": 85
    },
    {
      "midi": 64,
      "hit": false,
      "t": 54344.231500000045,
      "d": 145.49172083333542,
      "v": 81
    },
    {
      "midi": 65,
      "hit": false,
      "t": 54713.08375000005,
      "d": 153.68843750000087,
      "v": 77
    },
    {
      "midi": 62,
      "hit": false,
      "t": 55081.936000000016,
      "d": 3602.456975000001,
      "v": 68
    },
    {
      "midi": 65,
      "hit": false,
      "t": 55081.936000000016,
      "d": 3649.5880958333364,
      "v": 88
    },
    {
      "midi": 58,
      "hit": false,
      "t": 55081.936000000016,
      "d": 3653.686454166673,
      "v": 96
    },
    {
      "midi": 46,
      "hit": false,
      "t": 55081.936000000016,
      "d": 3711.063470833338,
      "v": 106
    },
    {
      "midi": 69,
      "hit": false,
      "t": 55081.93600000005,
      "d": 131.14746666666906,
      "v": 85
    },
    {
      "midi": 62,
      "hit": false,
      "t": 55327.83750000005,
      "d": 114.75403333333088,
      "v": 55
    },
    {
      "midi": 72,
      "hit": false,
      "t": 55573.73900000005,
      "d": 124.99992916666815,
      "v": 85
    },
    {
      "midi": 72,
      "hit": false,
      "t": 55942.591250000056,
      "d": 139.3441833333345,
      "v": 85
    },
    {
      "midi": 64,
      "hit": false,
      "t": 56311.44350000006,
      "d": 153.68843750000087,
      "v": 85
    },
    {
      "midi": 65,
      "hit": false,
      "t": 56680.29575000006,
      "d": 118.85239166666724,
      "v": 69
    },
    {
      "midi": 69,
      "hit": false,
      "t": 57049.14800000007,
      "d": 124.99992916666815,
      "v": 77
    },
    {
      "midi": 62,
      "hit": false,
      "t": 57295.04950000007,
      "d": 98.36059999999998,
      "v": 59
    },
    {
      "midi": 74,
      "hit": false,
      "t": 57540.95100000007,
      "d": 133.1966458333336,
      "v": 81
    },
    {
      "midi": 74,
      "hit": false,
      "t": 57909.80325000007,
      "d": 129.09828749999724,
      "v": 91
    },
    {
      "midi": 64,
      "hit": false,
      "t": 58278.655500000066,
      "d": 153.68843750000087,
      "v": 81
    },
    {
      "midi": 65,
      "hit": false,
      "t": 58647.50775000007,
      "d": 112.70485416666634,
      "v": 69
    },
    {
      "midi": 45,
      "hit": false,
      "t": 59016.36000000002,
      "d": 3407.7849541666656,
      "v": 70
    },
    {
      "midi": 57,
      "hit": false,
      "t": 59016.36000000002,
      "d": 3444.6701791666637,
      "v": 88
    },
    {
      "midi": 60,
      "hit": false,
      "t": 59016.36000000002,
      "d": 3454.9160749999937,
      "v": 100
    },
    {
      "midi": 64,
      "hit": false,
      "t": 59016.36000000002,
      "d": 3467.2111499999955,
      "v": 100
    },
    {
      "midi": 69,
      "hit": false,
      "t": 59016.360000000066,
      "d": 124.99992916666815,
      "v": 81
    },
    {
      "midi": 62,
      "hit": false,
      "t": 59262.261500000066,
      "d": 100.40977916666452,
      "v": 65
    },
    {
      "midi": 72,
      "hit": false,
      "t": 59508.163000000066,
      "d": 129.09828749999724,
      "v": 81
    },
    {
      "midi": 72,
      "hit": false,
      "t": 59877.01525000006,
      "d": 124.99992916666815,
      "v": 85
    },
    {
      "midi": 64,
      "hit": false,
      "t": 60245.867500000066,
      "d": 116.8032125000027,
      "v": 85
    },
    {
      "midi": 65,
      "hit": false,
      "t": 60614.71975000007,
      "d": 114.75403333333088,
      "v": 81
    },
    {
      "midi": 69,
      "hit": false,
      "t": 60983.572000000066,
      "d": 129.09828749999724,
      "v": 81
    },
    {
      "midi": 62,
      "hit": false,
      "t": 61229.473500000066,
      "d": 102.45895833333634,
      "v": 59
    },
    {
      "midi": 74,
      "hit": false,
      "t": 61475.375000000065,
      "d": 122.95075000000361,
      "v": 81
    },
    {
      "midi": 74,
      "hit": false,
      "t": 61844.22725000007,
      "d": 122.95075000000361,
      "v": 85
    },
    {
      "midi": 64,
      "hit": false,
      "t": 62213.07950000007,
      "d": 145.49172083333542,
      "v": 81
    },
    {
      "midi": 65,
      "hit": false,
      "t": 62581.931750000076,
      "d": 153.68843750000087,
      "v": 77
    },
    {
      "midi": 50,
      "hit": false,
      "t": 62950.78400000002,
      "d": 3495.8996583333283,
      "v": 62
    },
    {
      "midi": 62,
      "hit": false,
      "t": 62950.78400000002,
      "d": 3555.3258541666655,
      "v": 66
    },
    {
      "midi": 65,
      "hit": false,
      "t": 62950.78400000002,
      "d": 3616.80122916666,
      "v": 100
    },
    {
      "midi": 69,
      "hit": false,
      "t": 62950.78400000002,
      "d": 3670.0798874999964,
      "v": 80
    },
    {
      "midi": 69,
      "hit": false,
      "t": 62950.78400000008,
      "d": 131.14746666666906,
      "v": 85
    },
    {
      "midi": 62,
      "hit": false,
      "t": 63196.68550000008,
      "d": 114.75403333333088,
      "v": 55
    },
    {
      "midi": 72,
      "hit": false,
      "t": 63442.58700000008,
      "d": 124.99992916666815,
      "v": 85
    },
    {
      "midi": 72,
      "hit": false,
      "t": 63811.43925000008,
      "d": 139.3441833333345,
      "v": 85
    },
    {
      "midi": 64,
      "hit": false,
      "t": 64180.29150000009,
      "d": 153.68843750000087,
      "v": 85
    },
    {
      "midi": 65,
      "hit": false,
      "t": 64549.14375000009,
      "d": 118.85239166666724,
      "v": 69
    },
    {
      "midi": 69,
      "hit": false,
      "t": 64917.996000000094,
      "d": 124.99992916666815,
      "v": 77
    },
    {
      "midi": 62,
      "hit": false,
      "t": 65163.897500000094,
      "d": 98.36059999999998,
      "v": 59
    },
    {
      "midi": 74,
      "hit": false,
      "t": 65409.799000000094,
      "d": 133.19664583332633,
      "v": 81
    },
    {
      "midi": 74,
      "hit": false,
      "t": 65778.65125000008,
      "d": 129.09828750000452,
      "v": 91
    },
    {
      "midi": 64,
      "hit": false,
      "t": 66147.5035000001,
      "d": 153.6884374999936,
      "v": 81
    },
    {
      "midi": 65,
      "hit": false,
      "t": 66516.35575000009,
      "d": 112.70485416667361,
      "v": 69
    },
    {
      "midi": 48,
      "hit": false,
      "t": 66885.20800000001,
      "d": 3174.17852916666,
      "v": 88
    },
    {
      "midi": 64,
      "hit": false,
      "t": 66885.20800000001,
      "d": 3282.78502499999,
      "v": 92
    },
    {
      "midi": 60,
      "hit": false,
      "t": 66885.20800000001,
      "d": 3295.080099999992,
      "v": 96
    },
    {
      "midi": 67,
      "hit": false,
      "t": 66885.20800000001,
      "d": 3299.178458333321,
      "v": 88
    },
    {
      "midi": 69,
      "hit": false,
      "t": 66885.2080000001,
      "d": 124.99992916666088,
      "v": 81
    },
    {
      "midi": 62,
      "hit": false,
      "t": 67131.1095000001,
      "d": 100.4097791666718,
      "v": 65
    },
    {
      "midi": 72,
      "hit": false,
      "t": 67377.0110000001,
      "d": 129.09828750000452,
      "v": 81
    },
    {
      "midi": 72,
      "hit": false,
      "t": 67745.86325000011,
      "d": 124.99992916666088,
      "v": 85
    },
    {
      "midi": 64,
      "hit": false,
      "t": 68114.71550000011,
      "d": 116.8032125000027,
      "v": 85
    },
    {
      "midi": 65,
      "hit": false,
      "t": 68483.5677500001,
      "d": 114.75403333333088,
      "v": 81
    },
    {
      "midi": 69,
      "hit": false,
      "t": 68852.4200000001,
      "d": 129.09828750000452,
      "v": 81
    },
    {
      "midi": 62,
      "hit": false,
      "t": 69098.32150000011,
      "d": 102.45895833332906,
      "v": 59
    },
    {
      "midi": 74,
      "hit": false,
      "t": 69344.2230000001,
      "d": 122.95075000000361,
      "v": 81
    },
    {
      "midi": 74,
      "hit": false,
      "t": 69713.07525000011,
      "d": 122.95075000000361,
      "v": 85
    },
    {
      "midi": 64,
      "hit": false,
      "t": 70081.92750000012,
      "d": 145.49172083333542,
      "v": 81
    },
    {
      "midi": 65,
      "hit": false,
      "t": 70450.77975000012,
      "d": 153.6884374999936,
      "v": 77
    },
    {
      "midi": 46,
      "hit": false,
      "t": 70819.632,
      "d": 3219.2604708333383,
      "v": 92
    },
    {
      "midi": 58,
      "hit": false,
      "t": 70819.632,
      "d": 3219.2604708333383,
      "v": 110
    },
    {
      "midi": 62,
      "hit": false,
      "t": 70819.632,
      "d": 3221.30965000001,
      "v": 74
    },
    {
      "midi": 65,
      "hit": false,
      "t": 70819.632,
      "d": 3221.30965000001,
      "v": 106
    },
    {
      "midi": 69,
      "hit": false,
      "t": 70819.63200000011,
      "d": 131.14746666666178,
      "v": 85
    },
    {
      "midi": 62,
      "hit": false,
      "t": 71065.5335000001,
      "d": 114.75403333333088,
      "v": 55
    },
    {
      "midi": 72,
      "hit": false,
      "t": 71311.4350000001,
      "d": 124.99992916666088,
      "v": 85
    },
    {
      "midi": 72,
      "hit": false,
      "t": 71680.2872500001,
      "d": 139.3441833333345,
      "v": 85
    },
    {
      "midi": 64,
      "hit": false,
      "t": 72049.13950000009,
      "d": 153.6884374999936,
      "v": 85
    },
    {
      "midi": 65,
      "hit": false,
      "t": 72417.99175000009,
      "d": 118.85239166665997,
      "v": 69
    },
    {
      "midi": 69,
      "hit": false,
      "t": 72786.84400000008,
      "d": 124.99992916666088,
      "v": 77
    },
    {
      "midi": 62,
      "hit": false,
      "t": 73032.74550000008,
      "d": 98.36059999999998,
      "v": 59
    },
    {
      "midi": 74,
      "hit": false,
      "t": 73278.64700000008,
      "d": 133.1966458333336,
      "v": 81
    },
    {
      "midi": 74,
      "hit": false,
      "t": 73647.49925000008,
      "d": 129.09828750000452,
      "v": 91
    },
    {
      "midi": 64,
      "hit": false,
      "t": 74016.35150000009,
      "d": 153.6884374999936,
      "v": 81
    },
    {
      "midi": 65,
      "hit": false,
      "t": 74385.20375000009,
      "d": 112.70485416667361,
      "v": 69
    },
    {
      "midi": 57,
      "hit": false,
      "t": 74754.05600000001,
      "d": 3422.129208333339,
      "v": 70
    },
    {
      "midi": 60,
      "hit": false,
      "t": 74754.05600000001,
      "d": 3430.325925000012,
      "v": 92
    },
    {
      "midi": 45,
      "hit": false,
      "t": 74754.05600000001,
      "d": 3438.5226416666846,
      "v": 78
    },
    {
      "midi": 64,
      "hit": false,
      "t": 74754.05600000001,
      "d": 3442.6210000000137,
      "v": 88
    },
    {
      "midi": 69,
      "hit": false,
      "t": 74754.0560000001,
      "d": 124.99992916666088,
      "v": 81
    },
    {
      "midi": 62,
      "hit": false,
      "t": 74999.95750000009,
      "d": 100.4097791666718,
      "v": 65
    },
    {
      "midi": 72,
      "hit": false,
      "t": 75245.8590000001,
      "d": 129.09828750000452,
      "v": 81
    },
    {
      "midi": 72,
      "hit": false,
      "t": 75614.71125000011,
      "d": 124.99992916666088,
      "v": 85
    },
    {
      "midi": 64,
      "hit": false,
      "t": 75983.5635000001,
      "d": 116.8032125000027,
      "v": 85
    },
    {
      "midi": 65,
      "hit": false,
      "t": 76352.4157500001,
      "d": 114.75403333333088,
      "v": 81
    },
    {
      "midi": 69,
      "hit": false,
      "t": 76721.2680000001,
      "d": 129.09828750000452,
      "v": 81
    },
    {
      "midi": 62,
      "hit": false,
      "t": 76967.1695000001,
      "d": 102.45895833332906,
      "v": 59
    },
    {
      "midi": 74,
      "hit": false,
      "t": 77213.0710000001,
      "d": 122.95075000000361,
      "v": 81
    },
    {
      "midi": 74,
      "hit": false,
      "t": 77581.92325000011,
      "d": 122.95075000000361,
      "v": 85
    },
    {
      "midi": 64,
      "hit": false,
      "t": 77950.77550000012,
      "d": 145.49172083333542,
      "v": 81
    },
    {
      "midi": 65,
      "hit": false,
      "t": 78319.62775000012,
      "d": 153.6884374999936,
      "v": 77
    },
    {
      "midi": 67,
      "hit": false,
      "t": 86557.32800000011,
      "d": 1823.769458333336,
      "v": 53
    },
    {
      "midi": 43,
      "hit": false,
      "t": 86557.32800000011,
      "d": 1885.2448333333305,
      "v": 75
    },
    {
      "midi": 55,
      "hit": false,
      "t": 86557.32800000011,
      "d": 1893.4415500000032,
      "v": 59
    },
    {
      "midi": 70,
      "hit": false,
      "t": 86557.32800000011,
      "d": 1915.982520833335,
      "v": 91
    },
    {
      "midi": 74,
      "hit": false,
      "t": 86557.32800000011,
      "d": 2055.3267041666695,
      "v": 41
    },
    {
      "midi": 45,
      "hit": false,
      "t": 88524.54000000011,
      "d": 1631.146616666665,
      "v": 63
    },
    {
      "midi": 57,
      "hit": false,
      "t": 88524.54000000011,
      "d": 1678.2777375000005,
      "v": 67
    },
    {
      "midi": 72,
      "hit": false,
      "t": 88524.54000000011,
      "d": 1721.3105000000069,
      "v": 81
    },
    {
      "midi": 69,
      "hit": false,
      "t": 88524.54000000011,
      "d": 1881.1464750000014,
      "v": 53
    },
    {
      "midi": 76,
      "hit": false,
      "t": 88524.54000000011,
      "d": 1887.2940125000023,
      "v": 67
    },
    {
      "midi": 46,
      "hit": false,
      "t": 90491.75200000011,
      "d": 1721.3105000000069,
      "v": 75
    },
    {
      "midi": 58,
      "hit": false,
      "t": 90491.75200000011,
      "d": 1733.6055750000087,
      "v": 81
    },
    {
      "midi": 70,
      "hit": false,
      "t": 90491.75200000011,
      "d": 1797.130129166675,
      "v": 81
    },
    {
      "midi": 74,
      "hit": false,
      "t": 90491.75200000011,
      "d": 1840.1628916666814,
      "v": 49
    },
    {
      "midi": 77,
      "hit": false,
      "t": 90491.75200000011,
      "d": 1844.2612500000105,
      "v": 63
    },
    {
      "midi": 76,
      "hit": false,
      "t": 92458.96400000012,
      "d": 1901.6382666666614,
      "v": 67
    },
    {
      "midi": 48,
      "hit": false,
      "t": 92458.96400000012,
      "d": 1905.7366249999905,
      "v": 33
    },
    {
      "midi": 72,
      "hit": false,
      "t": 92458.96400000012,
      "d": 1905.7366249999905,
      "v": 55
    },
    {
      "midi": 79,
      "hit": false,
      "t": 92458.96400000012,
      "d": 1913.9333416666632,
      "v": 59
    },
    {
      "midi": 60,
      "hit": false,
      "t": 92458.96400000012,
      "d": 1918.0316999999923,
      "v": 53
    },
    {
      "midi": 65,
      "hit": false,
      "t": 94426.17600000002,
      "d": 3782.7847416666627,
      "v": 96
    },
    {
      "midi": 69,
      "hit": false,
      "t": 94426.17600000002,
      "d": 3782.7847416666627,
      "v": 92
    },
    {
      "midi": 50,
      "hit": false,
      "t": 94426.17600000002,
      "d": 3801.2273541666655,
      "v": 70
    },
    {
      "midi": 62,
      "hit": false,
      "t": 94426.17600000002,
      "d": 3805.3257124999946,
      "v": 80
    },
    {
      "midi": 69,
      "hit": false,
      "t": 94426.17600000012,
      "d": 131.14746666666178,
      "v": 101
    },
    {
      "midi": 62,
      "hit": false,
      "t": 94672.07750000012,
      "d": 114.75403333333088,
      "v": 71
    },
    {
      "midi": 72,
      "hit": false,
      "t": 94917.97900000011,
      "d": 124.99992916666088,
      "v": 101
    },
    {
      "midi": 72,
      "hit": false,
      "t": 95286.8312500001,
      "d": 139.3441833333345,
      "v": 101
    },
    {
      "midi": 64,
      "hit": false,
      "t": 95655.6835000001,
      "d": 153.6884374999936,
      "v": 101
    },
    {
      "midi": 65,
      "hit": false,
      "t": 96024.5357500001,
      "d": 118.85239166665997,
      "v": 85
    },
    {
      "midi": 69,
      "hit": false,
      "t": 96393.3880000001,
      "d": 124.99992916666088,
      "v": 93
    },
    {
      "midi": 62,
      "hit": false,
      "t": 96639.28950000009,
      "d": 98.36059999999998,
      "v": 75
    },
    {
      "midi": 74,
      "hit": false,
      "t": 96885.1910000001,
      "d": 133.1966458333336,
      "v": 97
    },
    {
      "midi": 74,
      "hit": false,
      "t": 97254.04325000009,
      "d": 129.09828750000452,
      "v": 107
    },
    {
      "midi": 64,
      "hit": false,
      "t": 97622.8955000001,
      "d": 153.6884374999936,
      "v": 97
    },
    {
      "midi": 65,
      "hit": false,
      "t": 97991.7477500001,
      "d": 112.70485416667361,
      "v": 85
    },
    {
      "midi": 48,
      "hit": false,
      "t": 98360.60000000002,
      "d": 3348.3587583333283,
      "v": 74
    },
    {
      "midi": 67,
      "hit": false,
      "t": 98360.60000000002,
      "d": 3397.5390583333356,
      "v": 88
    },
    {
      "midi": 64,
      "hit": false,
      "t": 98360.60000000002,
      "d": 3401.6374166666646,
      "v": 96
    },
    {
      "midi": 60,
      "hit": false,
      "t": 98360.60000000002,
      "d": 3418.0308499999956,
      "v": 96
    },
    {
      "midi": 69,
      "hit": false,
      "t": 98360.60000000011,
      "d": 124.99992916666088,
      "v": 97
    },
    {
      "midi": 62,
      "hit": false,
      "t": 98606.5015000001,
      "d": 100.4097791666718,
      "v": 81
    },
    {
      "midi": 72,
      "hit": false,
      "t": 98852.40300000011,
      "d": 129.09828750000452,
      "v": 97
    },
    {
      "midi": 72,
      "hit": false,
      "t": 99221.25525000012,
      "d": 124.99992916666088,
      "v": 101
    },
    {
      "midi": 64,
      "hit": false,
      "t": 99590.10750000011,
      "d": 116.8032125000027,
      "v": 101
    },
    {
      "midi": 65,
      "hit": false,
      "t": 99958.95975000011,
      "d": 114.75403333333088,
      "v": 97
    },
    {
      "midi": 69,
      "hit": false,
      "t": 100327.8120000001,
      "d": 129.09828750000452,
      "v": 97
    },
    {
      "midi": 62,
      "hit": false,
      "t": 100573.71350000011,
      "d": 102.45895833332906,
      "v": 75
    },
    {
      "midi": 74,
      "hit": false,
      "t": 100819.6150000001,
      "d": 122.95075000000361,
      "v": 97
    },
    {
      "midi": 74,
      "hit": false,
      "t": 101188.46725000012,
      "d": 122.95075000000361,
      "v": 101
    },
    {
      "midi": 64,
      "hit": false,
      "t": 101557.31950000013,
      "d": 145.49172083333542,
      "v": 97
    },
    {
      "midi": 65,
      "hit": false,
      "t": 101926.17175000013,
      "d": 153.6884374999936,
      "v": 93
    },
    {
      "midi": 62,
      "hit": false,
      "t": 102295.02400000002,
      "d": 3602.4569749999937,
      "v": 68
    },
    {
      "midi": 65,
      "hit": false,
      "t": 102295.02400000002,
      "d": 3649.588095833329,
      "v": 88
    },
    {
      "midi": 58,
      "hit": false,
      "t": 102295.02400000002,
      "d": 3653.686454166658,
      "v": 96
    },
    {
      "midi": 46,
      "hit": false,
      "t": 102295.02400000002,
      "d": 3711.0634708333237,
      "v": 106
    },
    {
      "midi": 69,
      "hit": false,
      "t": 102295.02400000012,
      "d": 131.14746666666178,
      "v": 101
    },
    {
      "midi": 62,
      "hit": false,
      "t": 102540.92550000011,
      "d": 114.75403333333088,
      "v": 71
    },
    {
      "midi": 72,
      "hit": false,
      "t": 102786.8270000001,
      "d": 124.99992916666088,
      "v": 101
    },
    {
      "midi": 72,
      "hit": false,
      "t": 103155.6792500001,
      "d": 139.3441833333345,
      "v": 101
    },
    {
      "midi": 64,
      "hit": false,
      "t": 103524.5315000001,
      "d": 153.6884374999936,
      "v": 101
    },
    {
      "midi": 65,
      "hit": false,
      "t": 103893.3837500001,
      "d": 118.85239166665997,
      "v": 85
    },
    {
      "midi": 69,
      "hit": false,
      "t": 104262.23600000009,
      "d": 124.99992916666088,
      "v": 93
    },
    {
      "midi": 62,
      "hit": false,
      "t": 104508.13750000008,
      "d": 98.36059999999998,
      "v": 75
    },
    {
      "midi": 74,
      "hit": false,
      "t": 104754.03900000009,
      "d": 133.1966458333336,
      "v": 97
    },
    {
      "midi": 74,
      "hit": false,
      "t": 105122.89125000009,
      "d": 129.09828750000452,
      "v": 107
    },
    {
      "midi": 64,
      "hit": false,
      "t": 105491.7435000001,
      "d": 153.6884374999936,
      "v": 97
    },
    {
      "midi": 65,
      "hit": false,
      "t": 105860.5957500001,
      "d": 112.70485416667361,
      "v": 85
    },
    {
      "midi": 45,
      "hit": false,
      "t": 106229.448,
      "d": 3407.7849541666656,
      "v": 70
    },
    {
      "midi": 57,
      "hit": false,
      "t": 106229.448,
      "d": 3444.670179166671,
      "v": 88
    },
    {
      "midi": 60,
      "hit": false,
      "t": 106229.448,
      "d": 3454.916075000001,
      "v": 100
    },
    {
      "midi": 64,
      "hit": false,
      "t": 106229.448,
      "d": 3467.211150000003,
      "v": 100
    },
    {
      "midi": 69,
      "hit": false,
      "t": 106229.4480000001,
      "d": 124.99992916666088,
      "v": 97
    },
    {
      "midi": 62,
      "hit": false,
      "t": 106475.3495000001,
      "d": 100.4097791666718,
      "v": 81
    },
    {
      "midi": 72,
      "hit": false,
      "t": 106721.2510000001,
      "d": 129.09828750000452,
      "v": 97
    },
    {
      "midi": 72,
      "hit": false,
      "t": 107090.10325000012,
      "d": 124.99992916666088,
      "v": 101
    },
    {
      "midi": 64,
      "hit": false,
      "t": 107458.95550000011,
      "d": 116.8032125000027,
      "v": 101
    },
    {
      "midi": 65,
      "hit": false,
      "t": 107827.80775000011,
      "d": 114.75403333333088,
      "v": 97
    },
    {
      "midi": 69,
      "hit": false,
      "t": 108196.6600000001,
      "d": 129.09828750000452,
      "v": 97
    },
    {
      "midi": 62,
      "hit": false,
      "t": 108442.56150000011,
      "d": 102.45895833332906,
      "v": 75
    },
    {
      "midi": 74,
      "hit": false,
      "t": 108688.4630000001,
      "d": 122.95075000000361,
      "v": 97
    },
    {
      "midi": 74,
      "hit": false,
      "t": 109057.31525000012,
      "d": 122.95075000000361,
      "v": 101
    },
    {
      "midi": 64,
      "hit": false,
      "t": 109426.16750000013,
      "d": 145.49172083333542,
      "v": 97
    },
    {
      "midi": 65,
      "hit": false,
      "t": 109795.01975000012,
      "d": 153.6884374999936,
      "v": 93
    },
    {
      "midi": 50,
      "hit": false,
      "t": 110163.872,
      "d": 3495.8996583333355,
      "v": 62
    },
    {
      "midi": 62,
      "hit": false,
      "t": 110163.872,
      "d": 3555.325854166673,
      "v": 66
    },
    {
      "midi": 65,
      "hit": false,
      "t": 110163.872,
      "d": 3616.8012291666673,
      "v": 100
    },
    {
      "midi": 69,
      "hit": false,
      "t": 110163.872,
      "d": 3670.0798875000037,
      "v": 80
    },
    {
      "midi": 69,
      "hit": false,
      "t": 110163.87200000012,
      "d": 131.14746666666178,
      "v": 101
    },
    {
      "midi": 62,
      "hit": false,
      "t": 110409.77350000011,
      "d": 114.75403333333088,
      "v": 71
    },
    {
      "midi": 72,
      "hit": false,
      "t": 110655.6750000001,
      "d": 124.99992916666088,
      "v": 101
    },
    {
      "midi": 72,
      "hit": false,
      "t": 111024.5272500001,
      "d": 139.3441833333345,
      "v": 101
    },
    {
      "midi": 64,
      "hit": false,
      "t": 111393.3795000001,
      "d": 153.6884374999936,
      "v": 101
    },
    {
      "midi": 65,
      "hit": false,
      "t": 111762.2317500001,
      "d": 118.85239166665997,
      "v": 85
    },
    {
      "midi": 69,
      "hit": false,
      "t": 112131.08400000009,
      "d": 124.99992916666088,
      "v": 93
    },
    {
      "midi": 62,
      "hit": false,
      "t": 112376.98550000008,
      "d": 98.36059999999998,
      "v": 75
    },
    {
      "midi": 74,
      "hit": false,
      "t": 112622.88700000009,
      "d": 133.1966458333336,
      "v": 97
    },
    {
      "midi": 74,
      "hit": false,
      "t": 112991.73925000009,
      "d": 129.09828750000452,
      "v": 107
    },
    {
      "midi": 64,
      "hit": false,
      "t": 113360.5915000001,
      "d": 153.6884374999936,
      "v": 97
    },
    {
      "midi": 65,
      "hit": false,
      "t": 113729.4437500001,
      "d": 112.70485416667361,
      "v": 85
    },
    {
      "midi": 48,
      "hit": false,
      "t": 114098.296,
      "d": 3174.17852916666,
      "v": 88
    },
    {
      "midi": 64,
      "hit": false,
      "t": 114098.296,
      "d": 3282.78502499999,
      "v": 92
    },
    {
      "midi": 60,
      "hit": false,
      "t": 114098.296,
      "d": 3295.080099999992,
      "v": 96
    },
    {
      "midi": 67,
      "hit": false,
      "t": 114098.296,
      "d": 3299.178458333321,
      "v": 88
    },
    {
      "midi": 69,
      "hit": false,
      "t": 114098.2960000001,
      "d": 124.99992916666088,
      "v": 97
    },
    {
      "midi": 62,
      "hit": false,
      "t": 114344.1975000001,
      "d": 100.4097791666718,
      "v": 81
    },
    {
      "midi": 72,
      "hit": false,
      "t": 114590.0990000001,
      "d": 129.09828750000452,
      "v": 97
    },
    {
      "midi": 72,
      "hit": false,
      "t": 114958.95125000011,
      "d": 124.99992916666088,
      "v": 101
    },
    {
      "midi": 64,
      "hit": false,
      "t": 115327.80350000011,
      "d": 116.8032125000027,
      "v": 101
    },
    {
      "midi": 65,
      "hit": false,
      "t": 115696.6557500001,
      "d": 114.75403333333088,
      "v": 97
    },
    {
      "midi": 69,
      "hit": false,
      "t": 116065.5080000001,
      "d": 129.09828750000452,
      "v": 97
    },
    {
      "midi": 62,
      "hit": false,
      "t": 116311.40950000011,
      "d": 102.45895833332906,
      "v": 75
    },
    {
      "midi": 74,
      "hit": false,
      "t": 116557.3110000001,
      "d": 122.95075000000361,
      "v": 97
    },
    {
      "midi": 74,
      "hit": false,
      "t": 116926.16325000011,
      "d": 122.95075000000361,
      "v": 101
    },
    {
      "midi": 64,
      "hit": false,
      "t": 117295.01550000013,
      "d": 145.49172083333542,
      "v": 97
    },
    {
      "midi": 65,
      "hit": false,
      "t": 117663.86775000012,
      "d": 153.6884374999936,
      "v": 93
    },
    {
      "midi": 46,
      "hit": false,
      "t": 118032.71999999999,
      "d": 3219.2604708333383,
      "v": 92
    },
    {
      "midi": 58,
      "hit": false,
      "t": 118032.71999999999,
      "d": 3219.2604708333383,
      "v": 110
    },
    {
      "midi": 62,
      "hit": false,
      "t": 118032.71999999999,
      "d": 3221.30965000001,
      "v": 74
    },
    {
      "midi": 65,
      "hit": false,
      "t": 118032.71999999999,
      "d": 3221.30965000001,
      "v": 106
    },
    {
      "midi": 69,
      "hit": false,
      "t": 118032.72000000012,
      "d": 131.14746666666178,
      "v": 101
    },
    {
      "midi": 62,
      "hit": false,
      "t": 118278.62150000011,
      "d": 114.75403333333088,
      "v": 71
    },
    {
      "midi": 72,
      "hit": false,
      "t": 118524.5230000001,
      "d": 124.99992916666088,
      "v": 101
    },
    {
      "midi": 72,
      "hit": false,
      "t": 118893.3752500001,
      "d": 139.3441833333345,
      "v": 101
    },
    {
      "midi": 64,
      "hit": false,
      "t": 119262.2275000001,
      "d": 153.6884374999936,
      "v": 101
    },
    {
      "midi": 65,
      "hit": false,
      "t": 119631.07975000009,
      "d": 118.85239166665997,
      "v": 85
    },
    {
      "midi": 69,
      "hit": false,
      "t": 119999.93200000009,
      "d": 124.99992916666088,
      "v": 93
    },
    {
      "midi": 62,
      "hit": false,
      "t": 120245.83350000008,
      "d": 98.36059999999998,
      "v": 75
    },
    {
      "midi": 74,
      "hit": false,
      "t": 120491.73500000009,
      "d": 133.1966458333336,
      "v": 97
    },
    {
      "midi": 74,
      "hit": false,
      "t": 120860.58725000008,
      "d": 129.09828750000452,
      "v": 107
    },
    {
      "midi": 64,
      "hit": false,
      "t": 121229.4395000001,
      "d": 153.6884374999936,
      "v": 97
    },
    {
      "midi": 65,
      "hit": false,
      "t": 121598.29175000009,
      "d": 112.70485416667361,
      "v": 85
    },
    {
      "midi": 57,
      "hit": false,
      "t": 121967.144,
      "d": 3422.129208333339,
      "v": 70
    },
    {
      "midi": 60,
      "hit": false,
      "t": 121967.144,
      "d": 3430.325925000012,
      "v": 92
    },
    {
      "midi": 45,
      "hit": false,
      "t": 121967.144,
      "d": 3438.5226416666846,
      "v": 78
    },
    {
      "midi": 64,
      "hit": false,
      "t": 121967.144,
      "d": 3442.6210000000137,
      "v": 88
    },
    {
      "midi": 69,
      "hit": false,
      "t": 121967.1440000001,
      "d": 124.99992916666088,
      "v": 97
    },
    {
      "midi": 62,
      "hit": false,
      "t": 122213.0455000001,
      "d": 100.4097791666718,
      "v": 81
    },
    {
      "midi": 72,
      "hit": false,
      "t": 122458.9470000001,
      "d": 129.09828750000452,
      "v": 97
    },
    {
      "midi": 72,
      "hit": false,
      "t": 122827.79925000011,
      "d": 124.99992916666088,
      "v": 101
    },
    {
      "midi": 64,
      "hit": false,
      "t": 123196.65150000011,
      "d": 116.8032125000027,
      "v": 101
    },
    {
      "midi": 65,
      "hit": false,
      "t": 123565.5037500001,
      "d": 114.75403333333088,
      "v": 97
    },
    {
      "midi": 69,
      "hit": false,
      "t": 123934.3560000001,
      "d": 129.09828750000452,
      "v": 97
    },
    {
      "midi": 62,
      "hit": false,
      "t": 124180.25750000011,
      "d": 102.45895833332906,
      "v": 75
    },
    {
      "midi": 74,
      "hit": false,
      "t": 124426.1590000001,
      "d": 122.95075000000361,
      "v": 97
    },
    {
      "midi": 74,
      "hit": false,
      "t": 124795.01125000011,
      "d": 122.95075000000361,
      "v": 101
    },
    {
      "midi": 64,
      "hit": false,
      "t": 125163.86350000012,
      "d": 145.49172083333542,
      "v": 97
    },
    {
      "midi": 65,
      "hit": false,
      "t": 125532.71575000012,
      "d": 153.6884374999936,
      "v": 93
    },
    {
      "midi": 65,
      "hit": false,
      "t": 125901.56800000001,
      "d": 3782.7847416666627,
      "v": 96
    },
    {
      "midi": 69,
      "hit": false,
      "t": 125901.56800000001,
      "d": 3782.7847416666627,
      "v": 92
    },
    {
      "midi": 50,
      "hit": false,
      "t": 125901.56800000001,
      "d": 3801.2273541666655,
      "v": 70
    },
    {
      "midi": 62,
      "hit": false,
      "t": 125901.56800000001,
      "d": 3805.3257124999946,
      "v": 80
    },
    {
      "midi": 69,
      "hit": false,
      "t": 125901.56800000012,
      "d": 131.14746666666178,
      "v": 85
    },
    {
      "midi": 62,
      "hit": false,
      "t": 126147.46950000011,
      "d": 114.75403333333088,
      "v": 55
    },
    {
      "midi": 72,
      "hit": false,
      "t": 126393.3710000001,
      "d": 124.99992916666088,
      "v": 85
    },
    {
      "midi": 72,
      "hit": false,
      "t": 126762.2232500001,
      "d": 139.3441833333345,
      "v": 85
    },
    {
      "midi": 64,
      "hit": false,
      "t": 127131.0755000001,
      "d": 153.6884374999936,
      "v": 85
    },
    {
      "midi": 65,
      "hit": false,
      "t": 127499.92775000009,
      "d": 118.85239166665997,
      "v": 69
    },
    {
      "midi": 69,
      "hit": false,
      "t": 127868.78000000009,
      "d": 124.99992916666088,
      "v": 77
    },
    {
      "midi": 62,
      "hit": false,
      "t": 128114.68150000008,
      "d": 98.36059999999998,
      "v": 59
    },
    {
      "midi": 74,
      "hit": false,
      "t": 128360.58300000009,
      "d": 133.1966458333336,
      "v": 81
    },
    {
      "midi": 74,
      "hit": false,
      "t": 128729.43525000008,
      "d": 129.09828750000452,
      "v": 91
    },
    {
      "midi": 64,
      "hit": false,
      "t": 129098.2875000001,
      "d": 153.6884374999936,
      "v": 81
    },
    {
      "midi": 65,
      "hit": false,
      "t": 129467.13975000009,
      "d": 112.70485416667361,
      "v": 69
    },
    {
      "midi": 48,
      "hit": false,
      "t": 129835.99200000001,
      "d": 3348.3587583333283,
      "v": 74
    },
    {
      "midi": 67,
      "hit": false,
      "t": 129835.99200000001,
      "d": 3397.5390583333356,
      "v": 88
    },
    {
      "midi": 64,
      "hit": false,
      "t": 129835.99200000001,
      "d": 3401.637416666679,
      "v": 96
    },
    {
      "midi": 60,
      "hit": false,
      "t": 129835.99200000001,
      "d": 3418.0308500000247,
      "v": 96
    },
    {
      "midi": 69,
      "hit": false,
      "t": 129835.9920000001,
      "d": 124.99992916666088,
      "v": 81
    },
    {
      "midi": 62,
      "hit": false,
      "t": 130081.8935000001,
      "d": 100.4097791666718,
      "v": 65
    },
    {
      "midi": 72,
      "hit": false,
      "t": 130327.7950000001,
      "d": 129.09828750000452,
      "v": 81
    },
    {
      "midi": 72,
      "hit": false,
      "t": 130696.64725000011,
      "d": 124.99992916666088,
      "v": 85
    },
    {
      "midi": 64,
      "hit": false,
      "t": 131065.4995000001,
      "d": 116.80321249998815,
      "v": 85
    },
    {
      "midi": 65,
      "hit": false,
      "t": 131434.3517500001,
      "d": 114.75403333333088,
      "v": 81
    },
    {
      "midi": 69,
      "hit": false,
      "t": 131803.20400000009,
      "d": 129.09828750000452,
      "v": 81
    },
    {
      "midi": 62,
      "hit": false,
      "t": 132049.1055000001,
      "d": 102.45895833332906,
      "v": 59
    },
    {
      "midi": 74,
      "hit": false,
      "t": 132295.0070000001,
      "d": 122.95074999998906,
      "v": 81
    },
    {
      "midi": 74,
      "hit": false,
      "t": 132663.8592500001,
      "d": 122.95074999998906,
      "v": 85
    },
    {
      "midi": 64,
      "hit": false,
      "t": 133032.7115000001,
      "d": 145.49172083332087,
      "v": 81
    },
    {
      "midi": 65,
      "hit": false,
      "t": 133401.5637500001,
      "d": 153.68843750000815,
      "v": 77
    },
    {
      "midi": 62,
      "hit": false,
      "t": 133770.41600000003,
      "d": 3602.4569750000082,
      "v": 68
    },
    {
      "midi": 65,
      "hit": false,
      "t": 133770.41600000003,
      "d": 3649.5880958333437,
      "v": 88
    },
    {
      "midi": 58,
      "hit": false,
      "t": 133770.41600000003,
      "d": 3653.6864541666873,
      "v": 96
    },
    {
      "midi": 46,
      "hit": false,
      "t": 133770.41600000003,
      "d": 3711.0634708333528,
      "v": 106
    },
    {
      "midi": 69,
      "hit": false,
      "t": 133770.41600000008,
      "d": 131.14746666667634,
      "v": 85
    },
    {
      "midi": 62,
      "hit": false,
      "t": 134016.3175000001,
      "d": 114.75403333333088,
      "v": 55
    },
    {
      "midi": 72,
      "hit": false,
      "t": 134262.2190000001,
      "d": 124.99992916666088,
      "v": 85
    },
    {
      "midi": 72,
      "hit": false,
      "t": 134631.0712500001,
      "d": 139.3441833333345,
      "v": 85
    },
    {
      "midi": 64,
      "hit": false,
      "t": 134999.9235000001,
      "d": 153.68843750000815,
      "v": 85
    },
    {
      "midi": 65,
      "hit": false,
      "t": 135368.7757500001,
      "d": 118.85239166667452,
      "v": 69
    },
    {
      "midi": 69,
      "hit": false,
      "t": 135737.62800000008,
      "d": 124.99992916666088,
      "v": 77
    },
    {
      "midi": 62,
      "hit": false,
      "t": 135983.5295000001,
      "d": 98.36060000001453,
      "v": 59
    },
    {
      "midi": 74,
      "hit": false,
      "t": 136229.4310000001,
      "d": 133.19664583331905,
      "v": 81
    },
    {
      "midi": 74,
      "hit": false,
      "t": 136598.2832500001,
      "d": 129.09828750000452,
      "v": 91
    },
    {
      "midi": 64,
      "hit": false,
      "t": 136967.1355000001,
      "d": 153.68843750000815,
      "v": 81
    },
    {
      "midi": 65,
      "hit": false,
      "t": 137335.9877500001,
      "d": 112.70485416665906,
      "v": 69
    },
    {
      "midi": 45,
      "hit": false,
      "t": 137704.84000000005,
      "d": 3407.78495416668,
      "v": 70
    },
    {
      "midi": 57,
      "hit": false,
      "t": 137704.84000000005,
      "d": 3444.6701791666856,
      "v": 88
    },
    {
      "midi": 60,
      "hit": false,
      "t": 137704.84000000005,
      "d": 3454.9160750000156,
      "v": 100
    },
    {
      "midi": 64,
      "hit": false,
      "t": 137704.84000000005,
      "d": 3467.2111500000174,
      "v": 100
    },
    {
      "midi": 69,
      "hit": false,
      "t": 137704.84000000008,
      "d": 124.99992916666088,
      "v": 81
    },
    {
      "midi": 62,
      "hit": false,
      "t": 137950.7415000001,
      "d": 100.40977916665724,
      "v": 65
    },
    {
      "midi": 72,
      "hit": false,
      "t": 138196.64300000007,
      "d": 129.09828750000452,
      "v": 81
    },
    {
      "midi": 72,
      "hit": false,
      "t": 138565.49525000007,
      "d": 124.99992916666088,
      "v": 85
    },
    {
      "midi": 64,
      "hit": false,
      "t": 138934.34750000006,
      "d": 116.8032125000027,
      "v": 85
    },
    {
      "midi": 65,
      "hit": false,
      "t": 139303.19975000006,
      "d": 114.75403333333088,
      "v": 81
    },
    {
      "midi": 69,
      "hit": false,
      "t": 139672.05200000005,
      "d": 129.09828750000452,
      "v": 81
    },
    {
      "midi": 62,
      "hit": false,
      "t": 139917.95350000006,
      "d": 102.45895833332906,
      "v": 59
    },
    {
      "midi": 74,
      "hit": false,
      "t": 140163.85500000007,
      "d": 122.95074999998906,
      "v": 81
    },
    {
      "midi": 74,
      "hit": false,
      "t": 140532.70725000006,
      "d": 122.95074999998906,
      "v": 85
    },
    {
      "midi": 64,
      "hit": false,
      "t": 140901.55950000006,
      "d": 145.49172083332087,
      "v": 81
    },
    {
      "midi": 65,
      "hit": false,
      "t": 141270.41175000006,
      "d": 153.68843750000815,
      "v": 77
    },
    {
      "midi": 69,
      "hit": false,
      "t": 141639.26400000005,
      "d": 131.14746666667634,
      "v": 85
    },
    {
      "midi": 50,
      "hit": false,
      "t": 141639.26400000008,
      "d": 3495.8996583333355,
      "v": 62
    },
    {
      "midi": 62,
      "hit": false,
      "t": 141639.26400000008,
      "d": 3555.325854166673,
      "v": 66
    },
    {
      "midi": 65,
      "hit": false,
      "t": 141639.26400000008,
      "d": 3616.801229166682,
      "v": 100
    },
    {
      "midi": 69,
      "hit": false,
      "t": 141639.26400000008,
      "d": 3670.0798875000037,
      "v": 80
    },
    {
      "midi": 62,
      "hit": false,
      "t": 141885.16550000006,
      "d": 114.75403333333088,
      "v": 55
    },
    {
      "midi": 72,
      "hit": false,
      "t": 142131.06700000007,
      "d": 124.99992916666088,
      "v": 85
    },
    {
      "midi": 72,
      "hit": false,
      "t": 142499.91925000006,
      "d": 139.3441833333345,
      "v": 85
    },
    {
      "midi": 64,
      "hit": false,
      "t": 142868.77150000006,
      "d": 153.68843750000815,
      "v": 85
    },
    {
      "midi": 65,
      "hit": false,
      "t": 143237.62375000006,
      "d": 118.85239166667452,
      "v": 69
    },
    {
      "midi": 69,
      "hit": false,
      "t": 143606.47600000005,
      "d": 124.99992916666088,
      "v": 77
    },
    {
      "midi": 62,
      "hit": false,
      "t": 143852.37750000006,
      "d": 98.36060000001453,
      "v": 59
    },
    {
      "midi": 74,
      "hit": false,
      "t": 144098.27900000007,
      "d": 133.19664583331905,
      "v": 81
    },
    {
      "midi": 74,
      "hit": false,
      "t": 144467.13125000006,
      "d": 129.09828750000452,
      "v": 91
    },
    {
      "midi": 64,
      "hit": false,
      "t": 144835.98350000006,
      "d": 153.68843750000815,
      "v": 81
    },
    {
      "midi": 65,
      "hit": false,
      "t": 145204.83575000006,
      "d": 112.70485416665906,
      "v": 69
    },
    {
      "midi": 69,
      "hit": false,
      "t": 145573.68800000005,
      "d": 124.99992916666088,
      "v": 81
    },
    {
      "midi": 48,
      "hit": false,
      "t": 145573.68800000008,
      "d": 3174.1785291666747,
      "v": 88
    },
    {
      "midi": 64,
      "hit": false,
      "t": 145573.68800000008,
      "d": 3282.7850250000192,
      "v": 92
    },
    {
      "midi": 60,
      "hit": false,
      "t": 145573.68800000008,
      "d": 3295.080100000021,
      "v": 96
    },
    {
      "midi": 67,
      "hit": false,
      "t": 145573.68800000008,
      "d": 3299.1784583333647,
      "v": 88
    },
    {
      "midi": 62,
      "hit": false,
      "t": 145819.58950000006,
      "d": 100.40977916665724,
      "v": 65
    },
    {
      "midi": 72,
      "hit": false,
      "t": 146065.49100000004,
      "d": 129.09828750000452,
      "v": 81
    },
    {
      "midi": 72,
      "hit": false,
      "t": 146434.34325000003,
      "d": 124.99992916666088,
      "v": 85
    },
    {
      "midi": 64,
      "hit": false,
      "t": 146803.19550000003,
      "d": 116.8032125000027,
      "v": 85
    },
    {
      "midi": 65,
      "hit": false,
      "t": 147172.04775000003,
      "d": 114.75403333333088,
      "v": 81
    },
    {
      "midi": 69,
      "hit": false,
      "t": 147540.90000000002,
      "d": 129.09828750000452,
      "v": 81
    },
    {
      "midi": 62,
      "hit": false,
      "t": 147786.80150000003,
      "d": 102.45895833332906,
      "v": 59
    },
    {
      "midi": 74,
      "hit": false,
      "t": 148032.70300000004,
      "d": 122.95074999998906,
      "v": 81
    },
    {
      "midi": 74,
      "hit": false,
      "t": 148401.55525000003,
      "d": 122.95074999998906,
      "v": 85
    },
    {
      "midi": 64,
      "hit": false,
      "t": 148770.40750000003,
      "d": 145.49172083332087,
      "v": 81
    },
    {
      "midi": 65,
      "hit": false,
      "t": 149139.25975000003,
      "d": 153.68843750000815,
      "v": 77
    },
    {
      "midi": 69,
      "hit": false,
      "t": 149508.11200000002,
      "d": 131.14746666667634,
      "v": 85
    },
    {
      "midi": 46,
      "hit": false,
      "t": 149508.1120000001,
      "d": 3219.2604708333383,
      "v": 92
    },
    {
      "midi": 58,
      "hit": false,
      "t": 149508.1120000001,
      "d": 3219.2604708333383,
      "v": 110
    },
    {
      "midi": 62,
      "hit": false,
      "t": 149508.1120000001,
      "d": 3221.30965000001,
      "v": 74
    },
    {
      "midi": 65,
      "hit": false,
      "t": 149508.1120000001,
      "d": 3221.30965000001,
      "v": 106
    },
    {
      "midi": 62,
      "hit": false,
      "t": 149754.01350000003,
      "d": 114.75403333333088,
      "v": 55
    },
    {
      "midi": 72,
      "hit": false,
      "t": 149999.91500000004,
      "d": 124.99992916666088,
      "v": 85
    },
    {
      "midi": 72,
      "hit": false,
      "t": 150368.76725000003,
      "d": 139.3441833333345,
      "v": 85
    },
    {
      "midi": 64,
      "hit": false,
      "t": 150737.61950000003,
      "d": 153.68843750000815,
      "v": 85
    },
    {
      "midi": 65,
      "hit": false,
      "t": 151106.47175000003,
      "d": 118.85239166667452,
      "v": 69
    },
    {
      "midi": 69,
      "hit": false,
      "t": 151475.32400000002,
      "d": 124.99992916666088,
      "v": 77
    },
    {
      "midi": 62,
      "hit": false,
      "t": 151721.22550000003,
      "d": 98.36060000001453,
      "v": 59
    },
    {
      "midi": 74,
      "hit": false,
      "t": 151967.12700000004,
      "d": 133.19664583331905,
      "v": 81
    },
    {
      "midi": 74,
      "hit": false,
      "t": 152335.97925000003,
      "d": 129.09828750000452,
      "v": 91
    },
    {
      "midi": 64,
      "hit": false,
      "t": 152704.83150000003,
      "d": 153.68843750000815,
      "v": 81
    },
    {
      "midi": 65,
      "hit": false,
      "t": 153073.68375000003,
      "d": 112.70485416665906,
      "v": 69
    },
    {
      "midi": 69,
      "hit": false,
      "t": 153442.53600000002,
      "d": 124.99992916666088,
      "v": 81
    },
    {
      "midi": 57,
      "hit": false,
      "t": 153442.5360000001,
      "d": 3422.1292083333246,
      "v": 70
    },
    {
      "midi": 60,
      "hit": false,
      "t": 153442.5360000001,
      "d": 3430.325924999983,
      "v": 92
    },
    {
      "midi": 45,
      "hit": false,
      "t": 153442.5360000001,
      "d": 3438.522641666641,
      "v": 78
    },
    {
      "midi": 64,
      "hit": false,
      "t": 153442.5360000001,
      "d": 3442.6209999999846,
      "v": 88
    },
    {
      "midi": 62,
      "hit": false,
      "t": 153688.43750000003,
      "d": 100.40977916665724,
      "v": 65
    },
    {
      "midi": 72,
      "hit": false,
      "t": 153934.339,
      "d": 129.09828750000452,
      "v": 81
    },
    {
      "midi": 72,
      "hit": false,
      "t": 154303.19125,
      "d": 124.99992916666088,
      "v": 85
    },
    {
      "midi": 64,
      "hit": false,
      "t": 154672.0435,
      "d": 116.8032125000027,
      "v": 85
    },
    {
      "midi": 65,
      "hit": false,
      "t": 155040.89575,
      "d": 114.75403333333088,
      "v": 81
    },
    {
      "midi": 69,
      "hit": false,
      "t": 155409.748,
      "d": 129.09828750000452,
      "v": 81
    },
    {
      "midi": 62,
      "hit": false,
      "t": 155655.6495,
      "d": 102.45895833332906,
      "v": 59
    },
    {
      "midi": 74,
      "hit": false,
      "t": 155901.551,
      "d": 122.95074999998906,
      "v": 81
    },
    {
      "midi": 74,
      "hit": false,
      "t": 156270.40325,
      "d": 122.95074999998906,
      "v": 85
    },
    {
      "midi": 64,
      "hit": false,
      "t": 156639.2555,
      "d": 145.49172083332087,
      "v": 81
    },
    {
      "midi": 65,
      "hit": false,
      "t": 157008.10775,
      "d": 153.68843750000815,
      "v": 77
    },
    {
      "midi": 69,
      "hit": false,
      "t": 157376.96,
      "d": 131.14746666667634,
      "v": 85
    },
    {
      "midi": 34,
      "hit": false,
      "t": 157376.9600000001,
      "d": 3356.555475000001,
      "v": 116
    },
    {
      "midi": 46,
      "hit": false,
      "t": 157376.9600000001,
      "d": 3385.2439833333483,
      "v": 122
    },
    {
      "midi": 62,
      "hit": false,
      "t": 157376.9600000001,
      "d": 3432.3751041666837,
      "v": 84
    },
    {
      "midi": 58,
      "hit": false,
      "t": 157376.9600000001,
      "d": 3434.4242833333556,
      "v": 110
    },
    {
      "midi": 65,
      "hit": false,
      "t": 157376.9600000001,
      "d": 3444.6701791666856,
      "v": 92
    },
    {
      "midi": 70,
      "hit": false,
      "t": 157376.9600000001,
      "d": 3463.1127916666737,
      "v": 110
    },
    {
      "midi": 62,
      "hit": false,
      "t": 157622.8615,
      "d": 114.75403333333088,
      "v": 55
    },
    {
      "midi": 72,
      "hit": false,
      "t": 157868.763,
      "d": 124.99992916666088,
      "v": 85
    },
    {
      "midi": 72,
      "hit": false,
      "t": 158237.61525,
      "d": 139.3441833333345,
      "v": 85
    },
    {
      "midi": 64,
      "hit": false,
      "t": 158606.4675,
      "d": 153.68843750000815,
      "v": 85
    },
    {
      "midi": 65,
      "hit": false,
      "t": 158975.31975,
      "d": 118.85239166667452,
      "v": 69
    },
    {
      "midi": 69,
      "hit": false,
      "t": 159344.172,
      "d": 124.99992916666088,
      "v": 77
    },
    {
      "midi": 62,
      "hit": false,
      "t": 159590.0735,
      "d": 98.36060000001453,
      "v": 59
    },
    {
      "midi": 74,
      "hit": false,
      "t": 159835.975,
      "d": 133.19664583331905,
      "v": 81
    },
    {
      "midi": 74,
      "hit": false,
      "t": 160204.82725,
      "d": 129.09828750000452,
      "v": 91
    },
    {
      "midi": 64,
      "hit": false,
      "t": 160573.6795,
      "d": 153.68843750000815,
      "v": 81
    },
    {
      "midi": 65,
      "hit": false,
      "t": 160942.53175,
      "d": 112.70485416665906,
      "v": 69
    },
    {
      "midi": 69,
      "hit": false,
      "t": 161311.384,
      "d": 124.99992916666088,
      "v": 81
    },
    {
      "midi": 50,
      "hit": false,
      "t": 161311.3840000001,
      "d": 3454.9160749999864,
      "v": 96
    },
    {
      "midi": 69,
      "hit": false,
      "t": 161311.3840000001,
      "d": 3483.6045833333337,
      "v": 92
    },
    {
      "midi": 65,
      "hit": false,
      "t": 161311.3840000001,
      "d": 3491.801299999992,
      "v": 100
    },
    {
      "midi": 38,
      "hit": false,
      "t": 161311.3840000001,
      "d": 3508.1947333333374,
      "v": 100
    },
    {
      "midi": 62,
      "hit": false,
      "t": 161311.3840000001,
      "d": 3508.1947333333374,
      "v": 110
    },
    {
      "midi": 62,
      "hit": false,
      "t": 161557.2855,
      "d": 100.40977916665724,
      "v": 65
    },
    {
      "midi": 72,
      "hit": false,
      "t": 161803.18699999998,
      "d": 129.09828750000452,
      "v": 81
    },
    {
      "midi": 72,
      "hit": false,
      "t": 162172.03924999997,
      "d": 124.99992916666088,
      "v": 85
    },
    {
      "midi": 64,
      "hit": false,
      "t": 162540.89149999997,
      "d": 116.8032125000027,
      "v": 85
    },
    {
      "midi": 65,
      "hit": false,
      "t": 162909.74374999997,
      "d": 114.75403333333088,
      "v": 81
    },
    {
      "midi": 69,
      "hit": false,
      "t": 163278.59599999996,
      "d": 129.09828750000452,
      "v": 81
    },
    {
      "midi": 62,
      "hit": false,
      "t": 163524.49749999997,
      "d": 102.45895833332906,
      "v": 59
    },
    {
      "midi": 74,
      "hit": false,
      "t": 163770.39899999998,
      "d": 122.95074999998906,
      "v": 81
    },
    {
      "midi": 74,
      "hit": false,
      "t": 164139.25124999997,
      "d": 122.95074999998906,
      "v": 85
    },
    {
      "midi": 64,
      "hit": false,
      "t": 164508.10349999997,
      "d": 145.49172083332087,
      "v": 81
    },
    {
      "midi": 65,
      "hit": false,
      "t": 164876.95574999996,
      "d": 153.68843750000815,
      "v": 77
    },
    {
      "midi": 69,
      "hit": false,
      "t": 165245.80799999996,
      "d": 131.14746666667634,
      "v": 85
    },
    {
      "midi": 60,
      "hit": false,
      "t": 165245.8080000001,
      "d": 1622.949900000007,
      "v": 110
    },
    {
      "midi": 33,
      "hit": false,
      "t": 165245.8080000001,
      "d": 1645.4908708333387,
      "v": 88
    },
    {
      "midi": 45,
      "hit": false,
      "t": 165245.8080000001,
      "d": 1655.7367666666687,
      "v": 88
    },
    {
      "midi": 57,
      "hit": false,
      "t": 165245.8080000001,
      "d": 1727.4580375000078,
      "v": 96
    },
    {
      "midi": 64,
      "hit": false,
      "t": 165245.8080000001,
      "d": 1752.0481875000114,
      "v": 100
    },
    {
      "midi": 62,
      "hit": false,
      "t": 165491.70949999997,
      "d": 114.75403333333088,
      "v": 55
    },
    {
      "midi": 72,
      "hit": false,
      "t": 165737.61099999998,
      "d": 124.99992916666088,
      "v": 85
    },
    {
      "midi": 72,
      "hit": false,
      "t": 166106.46324999997,
      "d": 139.3441833333345,
      "v": 85
    },
    {
      "midi": 64,
      "hit": false,
      "t": 166475.31549999997,
      "d": 153.68843750000815,
      "v": 85
    },
    {
      "midi": 65,
      "hit": false,
      "t": 166844.16774999996,
      "d": 118.85239166667452,
      "v": 69
    },
    {
      "midi": 69,
      "hit": false,
      "t": 167213.01999999996,
      "d": 124.99992916666088,
      "v": 77
    },
    {
      "midi": 58,
      "hit": false,
      "t": 167213.0200000001,
      "d": 682.3766624999989,
      "v": 122
    },
    {
      "midi": 46,
      "hit": false,
      "t": 167213.0200000001,
      "d": 692.6225583333289,
      "v": 110
    },
    {
      "midi": 34,
      "hit": false,
      "t": 167213.0200000001,
      "d": 709.0159916666744,
      "v": 106
    },
    {
      "midi": 65,
      "hit": false,
      "t": 167213.0200000001,
      "d": 733.606141666678,
      "v": 100
    },
    {
      "midi": 62,
      "hit": false,
      "t": 167213.0200000001,
      "d": 764.343829166668,
      "v": 96
    },
    {
      "midi": 62,
      "hit": false,
      "t": 167458.92149999997,
      "d": 98.36060000001453,
      "v": 59
    },
    {
      "midi": 74,
      "hit": false,
      "t": 167704.82299999997,
      "d": 133.19664583331905,
      "v": 81
    },
    {
      "midi": 74,
      "hit": false,
      "t": 168073.67524999997,
      "d": 129.09828750000452,
      "v": 91
    },
    {
      "midi": 48,
      "hit": false,
      "t": 168196.6260000001,
      "d": 803.2782333333453,
      "v": 88
    },
    {
      "midi": 36,
      "hit": false,
      "t": 168196.6260000001,
      "d": 807.3765916666889,
      "v": 70
    },
    {
      "midi": 60,
      "hit": false,
      "t": 168196.6260000001,
      "d": 811.4749500000325,
      "v": 92
    },
    {
      "midi": 64,
      "hit": false,
      "t": 168196.6260000001,
      "d": 815.5733083333762,
      "v": 106
    },
    {
      "midi": 67,
      "hit": false,
      "t": 168196.6260000001,
      "d": 823.7700250000344,
      "v": 92
    },
    {
      "midi": 64,
      "hit": false,
      "t": 168442.52749999997,
      "d": 153.68843750000815,
      "v": 81
    },
    {
      "midi": 65,
      "hit": false,
      "t": 168811.37974999996,
      "d": 112.70485416665906,
      "v": 69
    },
    {
      "midi": 69,
      "hit": false,
      "t": 169180.23199999996,
      "d": 124.99992916666088,
      "v": 81
    },
    {
      "midi": 65,
      "hit": false,
      "t": 169180.23200000013,
      "d": 3639.3422000000137,
      "v": 106
    },
    {
      "midi": 69,
      "hit": false,
      "t": 169180.23200000013,
      "d": 3643.4405583333573,
      "v": 100
    },
    {
      "midi": 62,
      "hit": false,
      "t": 169180.23200000013,
      "d": 3645.489737500029,
      "v": 92
    },
    {
      "midi": 38,
      "hit": false,
      "t": 169180.23200000013,
      "d": 3655.735633333359,
      "v": 100
    },
    {
      "midi": 50,
      "hit": false,
      "t": 169180.23200000013,
      "d": 3657.784812500031,
      "v": 84
    },
    {
      "midi": 62,
      "hit": false,
      "t": 169426.13349999997,
      "d": 100.40977916665724,
      "v": 65
    },
    {
      "midi": 72,
      "hit": false,
      "t": 169672.03499999995,
      "d": 129.09828750000452,
      "v": 81
    },
    {
      "midi": 72,
      "hit": false,
      "t": 170040.88724999994,
      "d": 124.99992916666088,
      "v": 85
    },
    {
      "midi": 64,
      "hit": false,
      "t": 170409.73949999994,
      "d": 116.8032125000027,
      "v": 85
    },
    {
      "midi": 65,
      "hit": false,
      "t": 170778.59174999993,
      "d": 114.75403333333088,
      "v": 81
    },
    {
      "midi": 69,
      "hit": false,
      "t": 173114.65599999993,
      "d": 131.14746666667634,
      "v": 85
    },
    {
      "midi": 65,
      "hit": false,
      "t": 173114.65600000016,
      "d": 3782.7847416666627,
      "v": 96
    },
    {
      "midi": 69,
      "hit": false,
      "t": 173114.65600000016,
      "d": 3782.7847416666627,
      "v": 92
    },
    {
      "midi": 50,
      "hit": false,
      "t": 173114.65600000016,
      "d": 3801.227354166651,
      "v": 70
    },
    {
      "midi": 62,
      "hit": false,
      "t": 173114.65600000016,
      "d": 3805.3257124999946,
      "v": 80
    },
    {
      "midi": 62,
      "hit": false,
      "t": 173360.55749999994,
      "d": 114.75403333333088,
      "v": 55
    },
    {
      "midi": 72,
      "hit": false,
      "t": 173606.45899999994,
      "d": 124.99992916666088,
      "v": 85
    },
    {
      "midi": 72,
      "hit": false,
      "t": 173975.31124999994,
      "d": 139.3441833333345,
      "v": 85
    },
    {
      "midi": 64,
      "hit": false,
      "t": 174344.16349999994,
      "d": 153.68843750000815,
      "v": 85
    },
    {
      "midi": 65,
      "hit": false,
      "t": 174713.01574999993,
      "d": 118.85239166667452,
      "v": 69
    },
    {
      "midi": 69,
      "hit": false,
      "t": 175081.86799999993,
      "d": 124.99992916666088,
      "v": 77
    },
    {
      "midi": 62,
      "hit": false,
      "t": 175327.76949999994,
      "d": 98.36060000001453,
      "v": 59
    },
    {
      "midi": 74,
      "hit": false,
      "t": 175573.67099999994,
      "d": 133.19664583331905,
      "v": 81
    },
    {
      "midi": 74,
      "hit": false,
      "t": 175942.52324999994,
      "d": 129.09828750000452,
      "v": 91
    },
    {
      "midi": 64,
      "hit": false,
      "t": 176311.37549999994,
      "d": 153.68843750000815,
      "v": 81
    },
    {
      "midi": 65,
      "hit": false,
      "t": 176680.22774999993,
      "d": 112.70485416665906,
      "v": 69
    },
    {
      "midi": 69,
      "hit": false,
      "t": 177049.07999999993,
      "d": 124.99992916666088,
      "v": 81
    },
    {
      "midi": 48,
      "hit": false,
      "t": 177049.08000000016,
      "d": 3348.358758333343,
      "v": 74
    },
    {
      "midi": 67,
      "hit": false,
      "t": 177049.08000000016,
      "d": 3397.53905833335,
      "v": 88
    },
    {
      "midi": 64,
      "hit": false,
      "t": 177049.08000000016,
      "d": 3401.6374166666938,
      "v": 96
    },
    {
      "midi": 60,
      "hit": false,
      "t": 177049.08000000016,
      "d": 3418.030850000039,
      "v": 96
    },
    {
      "midi": 62,
      "hit": false,
      "t": 177294.98149999994,
      "d": 100.40977916665724,
      "v": 65
    },
    {
      "midi": 72,
      "hit": false,
      "t": 177540.8829999999,
      "d": 129.09828750000452,
      "v": 81
    },
    {
      "midi": 72,
      "hit": false,
      "t": 177909.7352499999,
      "d": 124.99992916666088,
      "v": 85
    },
    {
      "midi": 64,
      "hit": false,
      "t": 178278.5874999999,
      "d": 116.8032125000027,
      "v": 85
    },
    {
      "midi": 65,
      "hit": false,
      "t": 178647.4397499999,
      "d": 114.75403333333088,
      "v": 81
    },
    {
      "midi": 69,
      "hit": false,
      "t": 179016.2919999999,
      "d": 129.09828750000452,
      "v": 81
    },
    {
      "midi": 62,
      "hit": false,
      "t": 179262.1934999999,
      "d": 102.45895833332906,
      "v": 59
    },
    {
      "midi": 74,
      "hit": false,
      "t": 179508.0949999999,
      "d": 122.95074999998906,
      "v": 81
    },
    {
      "midi": 74,
      "hit": false,
      "t": 179876.9472499999,
      "d": 122.95074999998906,
      "v": 85
    },
    {
      "midi": 64,
      "hit": false,
      "t": 180245.7994999999,
      "d": 145.49172083332087,
      "v": 81
    },
    {
      "midi": 65,
      "hit": false,
      "t": 180614.6517499999,
      "d": 153.68843750000815,
      "v": 77
    },
    {
      "midi": 69,
      "hit": false,
      "t": 180983.5039999999,
      "d": 131.14746666667634,
      "v": 85
    },
    {
      "midi": 62,
      "hit": false,
      "t": 180983.5040000002,
      "d": 3602.4569750000082,
      "v": 68
    },
    {
      "midi": 65,
      "hit": false,
      "t": 180983.5040000002,
      "d": 3649.5880958333437,
      "v": 88
    },
    {
      "midi": 58,
      "hit": false,
      "t": 180983.5040000002,
      "d": 3653.6864541666873,
      "v": 96
    },
    {
      "midi": 46,
      "hit": false,
      "t": 180983.5040000002,
      "d": 3711.0634708333528,
      "v": 106
    },
    {
      "midi": 62,
      "hit": false,
      "t": 181229.4054999999,
      "d": 114.75403333333088,
      "v": 55
    },
    {
      "midi": 72,
      "hit": false,
      "t": 181475.3069999999,
      "d": 124.99992916666088,
      "v": 85
    },
    {
      "midi": 72,
      "hit": false,
      "t": 181844.1592499999,
      "d": 139.3441833333345,
      "v": 85
    },
    {
      "midi": 64,
      "hit": false,
      "t": 182213.0114999999,
      "d": 153.68843750000815,
      "v": 85
    },
    {
      "midi": 65,
      "hit": false,
      "t": 182581.8637499999,
      "d": 118.85239166667452,
      "v": 69
    },
    {
      "midi": 69,
      "hit": false,
      "t": 182950.7159999999,
      "d": 124.99992916666088,
      "v": 77
    },
    {
      "midi": 62,
      "hit": false,
      "t": 183196.6174999999,
      "d": 98.36060000001453,
      "v": 59
    },
    {
      "midi": 74,
      "hit": false,
      "t": 183442.5189999999,
      "d": 133.19664583331905,
      "v": 81
    },
    {
      "midi": 74,
      "hit": false,
      "t": 183811.3712499999,
      "d": 129.09828750000452,
      "v": 91
    },
    {
      "midi": 64,
      "hit": false,
      "t": 184180.2234999999,
      "d": 153.68843750000815,
      "v": 81
    },
    {
      "midi": 65,
      "hit": false,
      "t": 184549.0757499999,
      "d": 112.70485416665906,
      "v": 69
    },
    {
      "midi": 69,
      "hit": false,
      "t": 184917.9279999999,
      "d": 124.99992916666088,
      "v": 81
    },
    {
      "midi": 45,
      "hit": false,
      "t": 184917.92800000022,
      "d": 3407.78495416668,
      "v": 70
    },
    {
      "midi": 57,
      "hit": false,
      "t": 184917.92800000022,
      "d": 3444.6701791666856,
      "v": 88
    },
    {
      "midi": 60,
      "hit": false,
      "t": 184917.92800000022,
      "d": 3454.9160750000156,
      "v": 100
    },
    {
      "midi": 64,
      "hit": false,
      "t": 184917.92800000022,
      "d": 3467.2111500000174,
      "v": 100
    },
    {
      "midi": 62,
      "hit": false,
      "t": 185163.8294999999,
      "d": 100.40977916665724,
      "v": 65
    },
    {
      "midi": 72,
      "hit": false,
      "t": 185409.73099999988,
      "d": 129.09828750000452,
      "v": 81
    },
    {
      "midi": 72,
      "hit": false,
      "t": 185778.58324999988,
      "d": 124.99992916666088,
      "v": 85
    },
    {
      "midi": 64,
      "hit": false,
      "t": 186147.43549999988,
      "d": 116.8032125000027,
      "v": 85
    },
    {
      "midi": 65,
      "hit": false,
      "t": 186516.28774999987,
      "d": 114.75403333333088,
      "v": 81
    },
    {
      "midi": 69,
      "hit": false,
      "t": 186885.13999999987,
      "d": 129.09828750000452,
      "v": 81
    },
    {
      "midi": 62,
      "hit": false,
      "t": 187131.04149999988,
      "d": 102.45895833332906,
      "v": 59
    },
    {
      "midi": 74,
      "hit": false,
      "t": 187376.94299999988,
      "d": 122.95074999998906,
      "v": 81
    },
    {
      "midi": 74,
      "hit": false,
      "t": 187745.79524999988,
      "d": 122.95074999998906,
      "v": 85
    },
    {
      "midi": 64,
      "hit": false,
      "t": 188114.64749999988,
      "d": 145.49172083332087,
      "v": 81
    },
    {
      "midi": 65,
      "hit": false,
      "t": 188483.49974999987,
      "d": 153.68843750000815,
      "v": 77
    },
    {
      "midi": 69,
      "hit": false,
      "t": 188852.35199999987,
      "d": 131.14746666667634,
      "v": 85
    },
    {
      "midi": 50,
      "hit": false,
      "t": 188852.35200000025,
      "d": 3495.8996583333355,
      "v": 62
    },
    {
      "midi": 62,
      "hit": false,
      "t": 188852.35200000025,
      "d": 3555.325854166673,
      "v": 66
    },
    {
      "midi": 65,
      "hit": false,
      "t": 188852.35200000025,
      "d": 3616.801229166682,
      "v": 100
    },
    {
      "midi": 69,
      "hit": false,
      "t": 188852.35200000025,
      "d": 3670.0798875000037,
      "v": 80
    },
    {
      "midi": 62,
      "hit": false,
      "t": 189098.25349999988,
      "d": 114.75403333333088,
      "v": 55
    },
    {
      "midi": 72,
      "hit": false,
      "t": 189344.15499999988,
      "d": 124.99992916666088,
      "v": 85
    },
    {
      "midi": 72,
      "hit": false,
      "t": 189713.00724999988,
      "d": 139.3441833333345,
      "v": 85
    },
    {
      "midi": 64,
      "hit": false,
      "t": 190081.85949999987,
      "d": 153.68843750000815,
      "v": 85
    },
    {
      "midi": 65,
      "hit": false,
      "t": 190450.71174999987,
      "d": 118.85239166667452,
      "v": 69
    },
    {
      "midi": 69,
      "hit": false,
      "t": 190819.56399999987,
      "d": 124.99992916666088,
      "v": 77
    },
    {
      "midi": 62,
      "hit": false,
      "t": 191065.46549999987,
      "d": 98.36060000001453,
      "v": 59
    },
    {
      "midi": 74,
      "hit": false,
      "t": 191311.36699999988,
      "d": 133.19664583331905,
      "v": 81
    },
    {
      "midi": 74,
      "hit": false,
      "t": 191680.21924999988,
      "d": 129.09828750000452,
      "v": 91
    },
    {
      "midi": 64,
      "hit": false,
      "t": 192049.07149999987,
      "d": 153.68843750000815,
      "v": 81
    },
    {
      "midi": 65,
      "hit": false,
      "t": 192417.92374999987,
      "d": 112.70485416665906,
      "v": 69
    },
    {
      "midi": 69,
      "hit": false,
      "t": 192786.77599999987,
      "d": 124.99992916666088,
      "v": 81
    },
    {
      "midi": 48,
      "hit": false,
      "t": 192786.77600000025,
      "d": 3174.1785291666747,
      "v": 88
    },
    {
      "midi": 64,
      "hit": false,
      "t": 192786.77600000025,
      "d": 3282.7850250000192,
      "v": 92
    },
    {
      "midi": 60,
      "hit": false,
      "t": 192786.77600000025,
      "d": 3295.080100000021,
      "v": 96
    },
    {
      "midi": 67,
      "hit": false,
      "t": 192786.77600000025,
      "d": 3299.1784583333647,
      "v": 88
    },
    {
      "midi": 62,
      "hit": false,
      "t": 193032.67749999987,
      "d": 100.40977916665724,
      "v": 65
    },
    {
      "midi": 72,
      "hit": false,
      "t": 193278.57899999985,
      "d": 129.09828750000452,
      "v": 81
    },
    {
      "midi": 72,
      "hit": false,
      "t": 193647.43124999985,
      "d": 124.99992916666088,
      "v": 85
    },
    {
      "midi": 64,
      "hit": false,
      "t": 194016.28349999984,
      "d": 116.8032125000027,
      "v": 85
    },
    {
      "midi": 65,
      "hit": false,
      "t": 194385.13574999984,
      "d": 114.75403333333088,
      "v": 81
    },
    {
      "midi": 69,
      "hit": false,
      "t": 194753.98799999984,
      "d": 129.09828750000452,
      "v": 81
    },
    {
      "midi": 62,
      "hit": false,
      "t": 194999.88949999984,
      "d": 102.45895833332906,
      "v": 59
    },
    {
      "midi": 74,
      "hit": false,
      "t": 195245.79099999985,
      "d": 122.95074999998906,
      "v": 81
    },
    {
      "midi": 74,
      "hit": false,
      "t": 195614.64324999985,
      "d": 122.95074999998906,
      "v": 85
    },
    {
      "midi": 64,
      "hit": false,
      "t": 195983.49549999984,
      "d": 145.49172083332087,
      "v": 81
    },
    {
      "midi": 65,
      "hit": false,
      "t": 196352.34774999984,
      "d": 153.68843750000815,
      "v": 77
    },
    {
      "midi": 69,
      "hit": false,
      "t": 196721.19999999984,
      "d": 131.14746666667634,
      "v": 85
    },
    {
      "midi": 46,
      "hit": false,
      "t": 196721.20000000027,
      "d": 3219.2604708333383,
      "v": 92
    },
    {
      "midi": 58,
      "hit": false,
      "t": 196721.20000000027,
      "d": 3219.2604708333383,
      "v": 110
    },
    {
      "midi": 62,
      "hit": false,
      "t": 196721.20000000027,
      "d": 3221.30965000001,
      "v": 74
    },
    {
      "midi": 65,
      "hit": false,
      "t": 196721.20000000027,
      "d": 3221.30965000001,
      "v": 106
    },
    {
      "midi": 62,
      "hit": false,
      "t": 196967.10149999984,
      "d": 114.75403333333088,
      "v": 55
    },
    {
      "midi": 72,
      "hit": false,
      "t": 197213.00299999985,
      "d": 124.99992916666088,
      "v": 85
    },
    {
      "midi": 72,
      "hit": false,
      "t": 197581.85524999985,
      "d": 139.3441833333345,
      "v": 85
    },
    {
      "midi": 64,
      "hit": false,
      "t": 197950.70749999984,
      "d": 153.68843750000815,
      "v": 85
    },
    {
      "midi": 65,
      "hit": false,
      "t": 198319.55974999984,
      "d": 118.85239166667452,
      "v": 69
    },
    {
      "midi": 69,
      "hit": false,
      "t": 198688.41199999984,
      "d": 124.99992916666088,
      "v": 77
    },
    {
      "midi": 62,
      "hit": false,
      "t": 198934.31349999984,
      "d": 98.36060000001453,
      "v": 59
    },
    {
      "midi": 74,
      "hit": false,
      "t": 199180.21499999985,
      "d": 133.19664583331905,
      "v": 81
    },
    {
      "midi": 74,
      "hit": false,
      "t": 199549.06724999985,
      "d": 129.09828750000452,
      "v": 91
    },
    {
      "midi": 64,
      "hit": false,
      "t": 199917.91949999984,
      "d": 153.68843750000815,
      "v": 81
    },
    {
      "midi": 65,
      "hit": false,
      "t": 200286.77174999984,
      "d": 112.70485416665906,
      "v": 69
    },
    {
      "midi": 69,
      "hit": false,
      "t": 200655.62399999984,
      "d": 124.99992916666088,
      "v": 81
    },
    {
      "midi": 57,
      "hit": false,
      "t": 200655.62400000027,
      "d": 3422.1292083333246,
      "v": 70
    },
    {
      "midi": 60,
      "hit": false,
      "t": 200655.62400000027,
      "d": 3430.325924999983,
      "v": 92
    },
    {
      "midi": 45,
      "hit": false,
      "t": 200655.62400000027,
      "d": 3438.522641666641,
      "v": 78
    },
    {
      "midi": 64,
      "hit": false,
      "t": 200655.62400000027,
      "d": 3442.6209999999846,
      "v": 88
    },
    {
      "midi": 62,
      "hit": false,
      "t": 200901.52549999984,
      "d": 100.40977916665724,
      "v": 65
    },
    {
      "midi": 72,
      "hit": false,
      "t": 201147.42699999982,
      "d": 129.09828750000452,
      "v": 81
    },
    {
      "midi": 72,
      "hit": false,
      "t": 201516.27924999982,
      "d": 124.99992916666088,
      "v": 85
    },
    {
      "midi": 64,
      "hit": false,
      "t": 201885.1314999998,
      "d": 116.8032125000027,
      "v": 85
    },
    {
      "midi": 65,
      "hit": false,
      "t": 202253.9837499998,
      "d": 114.75403333333088,
      "v": 81
    },
    {
      "midi": 69,
      "hit": false,
      "t": 202622.8359999998,
      "d": 129.09828750000452,
      "v": 81
    },
    {
      "midi": 62,
      "hit": false,
      "t": 202868.7374999998,
      "d": 102.45895833332906,
      "v": 59
    },
    {
      "midi": 74,
      "hit": false,
      "t": 203114.63899999982,
      "d": 122.95074999998906,
      "v": 81
    },
    {
      "midi": 74,
      "hit": false,
      "t": 203483.49124999982,
      "d": 122.95074999998906,
      "v": 85
    },
    {
      "midi": 64,
      "hit": false,
      "t": 203852.3434999998,
      "d": 145.49172083332087,
      "v": 81
    },
    {
      "midi": 65,
      "hit": false,
      "t": 204221.1957499998,
      "d": 153.68843750000815,
      "v": 77
    },
    {
      "midi": 67,
      "hit": false,
      "t": 212458.89599999983,
      "d": 1823.7694583333214,
      "v": 53
    },
    {
      "midi": 43,
      "hit": false,
      "t": 212458.89599999983,
      "d": 1885.2448333333305,
      "v": 75
    },
    {
      "midi": 55,
      "hit": false,
      "t": 212458.89599999983,
      "d": 1893.4415499999886,
      "v": 59
    },
    {
      "midi": 70,
      "hit": false,
      "t": 212458.89599999983,
      "d": 1915.9825208333205,
      "v": 91
    },
    {
      "midi": 74,
      "hit": false,
      "t": 212458.89599999983,
      "d": 2055.326704166655,
      "v": 41
    },
    {
      "midi": 45,
      "hit": false,
      "t": 214426.10799999983,
      "d": 1631.146616666665,
      "v": 63
    },
    {
      "midi": 57,
      "hit": false,
      "t": 214426.10799999983,
      "d": 1678.2777375000005,
      "v": 67
    },
    {
      "midi": 72,
      "hit": false,
      "t": 214426.10799999983,
      "d": 1721.3104999999923,
      "v": 81
    },
    {
      "midi": 69,
      "hit": false,
      "t": 214426.10799999983,
      "d": 1881.1464749999868,
      "v": 53
    },
    {
      "midi": 76,
      "hit": false,
      "t": 214426.10799999983,
      "d": 1887.2940124999732,
      "v": 67
    },
    {
      "midi": 46,
      "hit": false,
      "t": 216393.3199999998,
      "d": 1721.3104999999923,
      "v": 75
    },
    {
      "midi": 58,
      "hit": false,
      "t": 216393.3199999998,
      "d": 1733.6055749999941,
      "v": 81
    },
    {
      "midi": 70,
      "hit": false,
      "t": 216393.3199999998,
      "d": 1797.130129166675,
      "v": 81
    },
    {
      "midi": 74,
      "hit": false,
      "t": 216393.3199999998,
      "d": 1840.1628916666668,
      "v": 49
    },
    {
      "midi": 77,
      "hit": false,
      "t": 216393.3199999998,
      "d": 1844.2612500000105,
      "v": 63
    },
    {
      "midi": 76,
      "hit": false,
      "t": 218360.5319999998,
      "d": 1901.638266666676,
      "v": 67
    },
    {
      "midi": 48,
      "hit": false,
      "t": 218360.5319999998,
      "d": 1905.7366250000196,
      "v": 33
    },
    {
      "midi": 72,
      "hit": false,
      "t": 218360.5319999998,
      "d": 1905.7366250000196,
      "v": 55
    },
    {
      "midi": 79,
      "hit": false,
      "t": 218360.5319999998,
      "d": 1913.9333416666777,
      "v": 59
    },
    {
      "midi": 60,
      "hit": false,
      "t": 218360.5319999998,
      "d": 1918.0317000000214,
      "v": 53
    },
    {
      "midi": 69,
      "hit": false,
      "t": 220327.74399999983,
      "d": 131.14746666667634,
      "v": 101
    },
    {
      "midi": 65,
      "hit": false,
      "t": 220327.74400000027,
      "d": 3782.7847416666627,
      "v": 96
    },
    {
      "midi": 69,
      "hit": false,
      "t": 220327.74400000027,
      "d": 3782.7847416666627,
      "v": 92
    },
    {
      "midi": 50,
      "hit": false,
      "t": 220327.74400000027,
      "d": 3801.227354166651,
      "v": 70
    },
    {
      "midi": 62,
      "hit": false,
      "t": 220327.74400000027,
      "d": 3805.3257124999946,
      "v": 80
    },
    {
      "midi": 62,
      "hit": false,
      "t": 220573.64549999984,
      "d": 114.75403333333088,
      "v": 71
    },
    {
      "midi": 72,
      "hit": false,
      "t": 220819.54699999985,
      "d": 124.99992916666088,
      "v": 101
    },
    {
      "midi": 72,
      "hit": false,
      "t": 221188.39924999984,
      "d": 139.3441833333345,
      "v": 101
    },
    {
      "midi": 64,
      "hit": false,
      "t": 221557.25149999984,
      "d": 153.68843750000815,
      "v": 101
    },
    {
      "midi": 65,
      "hit": false,
      "t": 221926.10374999983,
      "d": 118.85239166667452,
      "v": 85
    },
    {
      "midi": 69,
      "hit": false,
      "t": 222294.95599999983,
      "d": 124.99992916666088,
      "v": 93
    },
    {
      "midi": 62,
      "hit": false,
      "t": 222540.85749999984,
      "d": 98.36060000001453,
      "v": 75
    },
    {
      "midi": 74,
      "hit": false,
      "t": 222786.75899999985,
      "d": 133.19664583331905,
      "v": 97
    },
    {
      "midi": 74,
      "hit": false,
      "t": 223155.61124999984,
      "d": 129.09828750000452,
      "v": 107
    },
    {
      "midi": 64,
      "hit": false,
      "t": 223524.46349999984,
      "d": 153.68843750000815,
      "v": 97
    },
    {
      "midi": 65,
      "hit": false,
      "t": 223893.31574999983,
      "d": 112.70485416665906,
      "v": 85
    },
    {
      "midi": 69,
      "hit": false,
      "t": 224262.16799999983,
      "d": 124.99992916666088,
      "v": 97
    },
    {
      "midi": 48,
      "hit": false,
      "t": 224262.16800000027,
      "d": 3348.358758333343,
      "v": 74
    },
    {
      "midi": 67,
      "hit": false,
      "t": 224262.16800000027,
      "d": 3397.53905833335,
      "v": 88
    },
    {
      "midi": 64,
      "hit": false,
      "t": 224262.16800000027,
      "d": 3401.6374166666938,
      "v": 96
    },
    {
      "midi": 60,
      "hit": false,
      "t": 224262.16800000027,
      "d": 3418.030850000039,
      "v": 96
    },
    {
      "midi": 62,
      "hit": false,
      "t": 224508.06949999984,
      "d": 100.40977916665724,
      "v": 81
    },
    {
      "midi": 72,
      "hit": false,
      "t": 224753.97099999982,
      "d": 129.09828750000452,
      "v": 97
    },
    {
      "midi": 72,
      "hit": false,
      "t": 225122.8232499998,
      "d": 124.99992916666088,
      "v": 101
    },
    {
      "midi": 64,
      "hit": false,
      "t": 225491.6754999998,
      "d": 116.8032125000027,
      "v": 101
    },
    {
      "midi": 65,
      "hit": false,
      "t": 225860.5277499998,
      "d": 114.75403333333088,
      "v": 97
    },
    {
      "midi": 69,
      "hit": false,
      "t": 226229.3799999998,
      "d": 129.09828750000452,
      "v": 97
    },
    {
      "midi": 62,
      "hit": false,
      "t": 226475.2814999998,
      "d": 102.45895833332906,
      "v": 75
    },
    {
      "midi": 74,
      "hit": false,
      "t": 226721.18299999982,
      "d": 122.95074999998906,
      "v": 97
    },
    {
      "midi": 74,
      "hit": false,
      "t": 227090.0352499998,
      "d": 122.95074999998906,
      "v": 101
    },
    {
      "midi": 64,
      "hit": false,
      "t": 227458.8874999998,
      "d": 145.49172083332087,
      "v": 97
    },
    {
      "midi": 65,
      "hit": false,
      "t": 227827.7397499998,
      "d": 153.68843750000815,
      "v": 93
    },
    {
      "midi": 69,
      "hit": false,
      "t": 228196.5919999998,
      "d": 131.14746666667634,
      "v": 101
    },
    {
      "midi": 62,
      "hit": false,
      "t": 228196.5920000003,
      "d": 3602.4569750000082,
      "v": 68
    },
    {
      "midi": 65,
      "hit": false,
      "t": 228196.5920000003,
      "d": 3649.5880958333437,
      "v": 88
    },
    {
      "midi": 58,
      "hit": false,
      "t": 228196.5920000003,
      "d": 3653.6864541666873,
      "v": 96
    },
    {
      "midi": 46,
      "hit": false,
      "t": 228196.5920000003,
      "d": 3711.0634708333528,
      "v": 106
    },
    {
      "midi": 62,
      "hit": false,
      "t": 228442.4934999998,
      "d": 114.75403333333088,
      "v": 71
    },
    {
      "midi": 72,
      "hit": false,
      "t": 228688.39499999981,
      "d": 124.99992916666088,
      "v": 101
    },
    {
      "midi": 72,
      "hit": false,
      "t": 229057.2472499998,
      "d": 139.3441833333345,
      "v": 101
    },
    {
      "midi": 64,
      "hit": false,
      "t": 229426.0994999998,
      "d": 153.68843750000815,
      "v": 101
    },
    {
      "midi": 65,
      "hit": false,
      "t": 229794.9517499998,
      "d": 118.85239166667452,
      "v": 85
    },
    {
      "midi": 69,
      "hit": false,
      "t": 230163.8039999998,
      "d": 124.99992916666088,
      "v": 93
    },
    {
      "midi": 62,
      "hit": false,
      "t": 230409.7054999998,
      "d": 98.36060000001453,
      "v": 75
    },
    {
      "midi": 74,
      "hit": false,
      "t": 230655.6069999998,
      "d": 133.19664583331905,
      "v": 97
    },
    {
      "midi": 74,
      "hit": false,
      "t": 231024.4592499998,
      "d": 129.09828750000452,
      "v": 107
    },
    {
      "midi": 64,
      "hit": false,
      "t": 231393.3114999998,
      "d": 153.68843750000815,
      "v": 97
    },
    {
      "midi": 65,
      "hit": false,
      "t": 231762.1637499998,
      "d": 112.70485416665906,
      "v": 85
    },
    {
      "midi": 69,
      "hit": false,
      "t": 232131.0159999998,
      "d": 124.99992916666088,
      "v": 97
    },
    {
      "midi": 45,
      "hit": false,
      "t": 232131.01600000032,
      "d": 3407.78495416668,
      "v": 70
    },
    {
      "midi": 57,
      "hit": false,
      "t": 232131.01600000032,
      "d": 3444.6701791666856,
      "v": 88
    },
    {
      "midi": 60,
      "hit": false,
      "t": 232131.01600000032,
      "d": 3454.9160750000156,
      "v": 100
    },
    {
      "midi": 64,
      "hit": false,
      "t": 232131.01600000032,
      "d": 3467.2111500000174,
      "v": 100
    },
    {
      "midi": 62,
      "hit": false,
      "t": 232376.9174999998,
      "d": 100.40977916665724,
      "v": 81
    },
    {
      "midi": 72,
      "hit": false,
      "t": 232622.81899999978,
      "d": 129.09828750000452,
      "v": 97
    },
    {
      "midi": 72,
      "hit": false,
      "t": 232991.67124999978,
      "d": 124.99992916666088,
      "v": 101
    },
    {
      "midi": 64,
      "hit": false,
      "t": 233360.52349999978,
      "d": 116.8032125000027,
      "v": 101
    },
    {
      "midi": 65,
      "hit": false,
      "t": 233729.37574999977,
      "d": 114.75403333333088,
      "v": 97
    },
    {
      "midi": 69,
      "hit": false,
      "t": 234098.22799999977,
      "d": 129.09828750000452,
      "v": 97
    },
    {
      "midi": 62,
      "hit": false,
      "t": 234344.12949999978,
      "d": 102.45895833332906,
      "v": 75
    },
    {
      "midi": 74,
      "hit": false,
      "t": 234590.03099999978,
      "d": 122.95074999998906,
      "v": 97
    },
    {
      "midi": 74,
      "hit": false,
      "t": 234958.88324999978,
      "d": 122.95074999998906,
      "v": 101
    },
    {
      "midi": 64,
      "hit": false,
      "t": 235327.73549999978,
      "d": 145.49172083332087,
      "v": 97
    },
    {
      "midi": 65,
      "hit": false,
      "t": 235696.58774999977,
      "d": 153.68843750000815,
      "v": 93
    },
    {
      "midi": 69,
      "hit": false,
      "t": 236065.43999999977,
      "d": 131.14746666667634,
      "v": 101
    },
    {
      "midi": 50,
      "hit": false,
      "t": 236065.44000000035,
      "d": 3495.8996583333355,
      "v": 62
    },
    {
      "midi": 62,
      "hit": false,
      "t": 236065.44000000035,
      "d": 3555.325854166673,
      "v": 66
    },
    {
      "midi": 65,
      "hit": false,
      "t": 236065.44000000035,
      "d": 3616.801229166682,
      "v": 100
    },
    {
      "midi": 69,
      "hit": false,
      "t": 236065.44000000035,
      "d": 3670.0798875000037,
      "v": 80
    },
    {
      "midi": 62,
      "hit": false,
      "t": 236311.34149999978,
      "d": 114.75403333333088,
      "v": 71
    },
    {
      "midi": 72,
      "hit": false,
      "t": 236557.24299999978,
      "d": 124.99992916666088,
      "v": 101
    },
    {
      "midi": 72,
      "hit": false,
      "t": 236926.09524999978,
      "d": 139.3441833333345,
      "v": 101
    },
    {
      "midi": 64,
      "hit": false,
      "t": 237294.94749999978,
      "d": 153.68843750000815,
      "v": 101
    },
    {
      "midi": 65,
      "hit": false,
      "t": 237663.79974999977,
      "d": 118.85239166667452,
      "v": 85
    },
    {
      "midi": 69,
      "hit": false,
      "t": 238032.65199999977,
      "d": 124.99992916666088,
      "v": 93
    },
    {
      "midi": 62,
      "hit": false,
      "t": 238278.55349999978,
      "d": 98.36060000001453,
      "v": 75
    },
    {
      "midi": 74,
      "hit": false,
      "t": 238524.45499999978,
      "d": 133.19664583331905,
      "v": 97
    },
    {
      "midi": 74,
      "hit": false,
      "t": 238893.30724999978,
      "d": 129.09828750000452,
      "v": 107
    },
    {
      "midi": 64,
      "hit": false,
      "t": 239262.15949999978,
      "d": 153.68843750000815,
      "v": 97
    },
    {
      "midi": 65,
      "hit": false,
      "t": 239631.01174999977,
      "d": 112.70485416665906,
      "v": 85
    },
    {
      "midi": 69,
      "hit": false,
      "t": 239999.86399999977,
      "d": 124.99992916666088,
      "v": 97
    },
    {
      "midi": 48,
      "hit": false,
      "t": 239999.86400000035,
      "d": 3174.1785291666747,
      "v": 88
    },
    {
      "midi": 64,
      "hit": false,
      "t": 239999.86400000035,
      "d": 3282.7850250000192,
      "v": 92
    },
    {
      "midi": 60,
      "hit": false,
      "t": 239999.86400000035,
      "d": 3295.080100000021,
      "v": 96
    },
    {
      "midi": 67,
      "hit": false,
      "t": 239999.86400000035,
      "d": 3299.1784583333647,
      "v": 88
    },
    {
      "midi": 62,
      "hit": false,
      "t": 240245.76549999978,
      "d": 100.40977916665724,
      "v": 81
    },
    {
      "midi": 72,
      "hit": false,
      "t": 240491.66699999975,
      "d": 129.09828750000452,
      "v": 97
    },
    {
      "midi": 72,
      "hit": false,
      "t": 240860.51924999975,
      "d": 124.99992916666088,
      "v": 101
    },
    {
      "midi": 64,
      "hit": false,
      "t": 241229.37149999975,
      "d": 116.8032125000027,
      "v": 101
    },
    {
      "midi": 65,
      "hit": false,
      "t": 241598.22374999974,
      "d": 114.75403333333088,
      "v": 97
    },
    {
      "midi": 69,
      "hit": false,
      "t": 241967.07599999974,
      "d": 129.09828750000452,
      "v": 97
    },
    {
      "midi": 62,
      "hit": false,
      "t": 242212.97749999975,
      "d": 102.45895833332906,
      "v": 75
    },
    {
      "midi": 74,
      "hit": false,
      "t": 242458.87899999975,
      "d": 122.95074999998906,
      "v": 97
    },
    {
      "midi": 74,
      "hit": false,
      "t": 242827.73124999975,
      "d": 122.95074999998906,
      "v": 101
    },
    {
      "midi": 64,
      "hit": false,
      "t": 243196.58349999975,
      "d": 145.49172083332087,
      "v": 97
    },
    {
      "midi": 65,
      "hit": false,
      "t": 243565.43574999974,
      "d": 153.68843750000815,
      "v": 93
    },
    {
      "midi": 69,
      "hit": false,
      "t": 243934.28799999974,
      "d": 131.14746666667634,
      "v": 101
    },
    {
      "midi": 46,
      "hit": false,
      "t": 243934.28800000038,
      "d": 3219.2604708333383,
      "v": 92
    },
    {
      "midi": 58,
      "hit": false,
      "t": 243934.28800000038,
      "d": 3219.2604708333383,
      "v": 110
    },
    {
      "midi": 62,
      "hit": false,
      "t": 243934.28800000038,
      "d": 3221.30965000001,
      "v": 74
    },
    {
      "midi": 65,
      "hit": false,
      "t": 243934.28800000038,
      "d": 3221.30965000001,
      "v": 106
    },
    {
      "midi": 62,
      "hit": false,
      "t": 244180.18949999975,
      "d": 114.75403333333088,
      "v": 71
    },
    {
      "midi": 72,
      "hit": false,
      "t": 244426.09099999975,
      "d": 124.99992916666088,
      "v": 101
    },
    {
      "midi": 72,
      "hit": false,
      "t": 244794.94324999975,
      "d": 139.3441833333345,
      "v": 101
    },
    {
      "midi": 64,
      "hit": false,
      "t": 245163.79549999975,
      "d": 153.68843750000815,
      "v": 101
    },
    {
      "midi": 65,
      "hit": false,
      "t": 245532.64774999974,
      "d": 118.85239166667452,
      "v": 85
    },
    {
      "midi": 69,
      "hit": false,
      "t": 245901.49999999974,
      "d": 124.99992916666088,
      "v": 93
    },
    {
      "midi": 62,
      "hit": false,
      "t": 246147.40149999975,
      "d": 98.36060000001453,
      "v": 75
    },
    {
      "midi": 74,
      "hit": false,
      "t": 246393.30299999975,
      "d": 133.19664583331905,
      "v": 97
    },
    {
      "midi": 74,
      "hit": false,
      "t": 246762.15524999975,
      "d": 129.09828750000452,
      "v": 107
    },
    {
      "midi": 64,
      "hit": false,
      "t": 247131.00749999975,
      "d": 153.68843750000815,
      "v": 97
    },
    {
      "midi": 65,
      "hit": false,
      "t": 247499.85974999974,
      "d": 112.70485416665906,
      "v": 85
    },
    {
      "midi": 69,
      "hit": false,
      "t": 247868.71199999974,
      "d": 124.99992916666088,
      "v": 97
    },
    {
      "midi": 57,
      "hit": false,
      "t": 247868.71200000038,
      "d": 3422.1292083333246,
      "v": 70
    },
    {
      "midi": 60,
      "hit": false,
      "t": 247868.71200000038,
      "d": 3430.325924999983,
      "v": 92
    },
    {
      "midi": 45,
      "hit": false,
      "t": 247868.71200000038,
      "d": 3438.522641666641,
      "v": 78
    },
    {
      "midi": 64,
      "hit": false,
      "t": 247868.71200000038,
      "d": 3442.6209999999846,
      "v": 88
    },
    {
      "midi": 62,
      "hit": false,
      "t": 248114.61349999974,
      "d": 100.40977916665724,
      "v": 81
    },
    {
      "midi": 72,
      "hit": false,
      "t": 248360.51499999972,
      "d": 129.09828750000452,
      "v": 97
    },
    {
      "midi": 72,
      "hit": false,
      "t": 248729.36724999972,
      "d": 124.99992916666088,
      "v": 101
    },
    {
      "midi": 64,
      "hit": false,
      "t": 249098.21949999972,
      "d": 116.8032125000027,
      "v": 101
    },
    {
      "midi": 65,
      "hit": false,
      "t": 249467.0717499997,
      "d": 114.75403333333088,
      "v": 97
    },
    {
      "midi": 69,
      "hit": false,
      "t": 249835.9239999997,
      "d": 129.09828750000452,
      "v": 97
    },
    {
      "midi": 62,
      "hit": false,
      "t": 250081.82549999972,
      "d": 102.45895833332906,
      "v": 75
    },
    {
      "midi": 74,
      "hit": false,
      "t": 250327.72699999972,
      "d": 122.95074999998906,
      "v": 97
    },
    {
      "midi": 74,
      "hit": false,
      "t": 250696.57924999972,
      "d": 122.95074999998906,
      "v": 101
    },
    {
      "midi": 64,
      "hit": false,
      "t": 251065.43149999972,
      "d": 145.49172083332087,
      "v": 97
    },
    {
      "midi": 65,
      "hit": false,
      "t": 251434.2837499997,
      "d": 153.68843750000815,
      "v": 93
    },
    {
      "midi": 69,
      "hit": false,
      "t": 251803.1359999997,
      "d": 131.14746666667634,
      "v": 85
    },
    {
      "midi": 65,
      "hit": false,
      "t": 251803.13600000038,
      "d": 3782.7847416666627,
      "v": 96
    },
    {
      "midi": 69,
      "hit": false,
      "t": 251803.13600000038,
      "d": 3782.7847416666627,
      "v": 92
    },
    {
      "midi": 50,
      "hit": false,
      "t": 251803.13600000038,
      "d": 3801.227354166651,
      "v": 70
    },
    {
      "midi": 62,
      "hit": false,
      "t": 251803.13600000038,
      "d": 3805.3257124999946,
      "v": 80
    },
    {
      "midi": 62,
      "hit": false,
      "t": 252049.03749999971,
      "d": 114.75403333333088,
      "v": 55
    },
    {
      "midi": 72,
      "hit": false,
      "t": 252294.93899999972,
      "d": 124.99992916666088,
      "v": 85
    },
    {
      "midi": 72,
      "hit": false,
      "t": 252663.79124999972,
      "d": 139.3441833333345,
      "v": 85
    },
    {
      "midi": 64,
      "hit": false,
      "t": 253032.6434999997,
      "d": 153.68843750000815,
      "v": 85
    },
    {
      "midi": 65,
      "hit": false,
      "t": 253401.4957499997,
      "d": 118.85239166667452,
      "v": 69
    },
    {
      "midi": 69,
      "hit": false,
      "t": 253770.3479999997,
      "d": 124.99992916666088,
      "v": 77
    },
    {
      "midi": 62,
      "hit": false,
      "t": 254016.2494999997,
      "d": 98.36060000001453,
      "v": 59
    },
    {
      "midi": 74,
      "hit": false,
      "t": 254262.15099999972,
      "d": 133.19664583331905,
      "v": 81
    },
    {
      "midi": 74,
      "hit": false,
      "t": 254631.00324999972,
      "d": 129.09828750000452,
      "v": 91
    },
    {
      "midi": 64,
      "hit": false,
      "t": 254999.8554999997,
      "d": 153.68843750000815,
      "v": 81
    },
    {
      "midi": 65,
      "hit": false,
      "t": 255368.7077499997,
      "d": 112.70485416665906,
      "v": 69
    },
    {
      "midi": 69,
      "hit": false,
      "t": 255737.5599999997,
      "d": 124.99992916666088,
      "v": 81
    },
    {
      "midi": 48,
      "hit": false,
      "t": 255737.56000000038,
      "d": 3348.358758333343,
      "v": 74
    },
    {
      "midi": 67,
      "hit": false,
      "t": 255737.56000000038,
      "d": 3397.53905833335,
      "v": 88
    },
    {
      "midi": 64,
      "hit": false,
      "t": 255737.56000000038,
      "d": 3401.6374166666938,
      "v": 96
    },
    {
      "midi": 60,
      "hit": false,
      "t": 255737.56000000038,
      "d": 3418.030850000039,
      "v": 96
    },
    {
      "midi": 62,
      "hit": false,
      "t": 255983.4614999997,
      "d": 100.40977916665724,
      "v": 65
    },
    {
      "midi": 72,
      "hit": false,
      "t": 256229.3629999997,
      "d": 129.09828750000452,
      "v": 81
    },
    {
      "midi": 72,
      "hit": false,
      "t": 256598.2152499997,
      "d": 124.99992916666088,
      "v": 85
    },
    {
      "midi": 64,
      "hit": false,
      "t": 256967.06749999968,
      "d": 116.8032125000027,
      "v": 85
    },
    {
      "midi": 65,
      "hit": false,
      "t": 257335.91974999968,
      "d": 114.75403333333088,
      "v": 81
    },
    {
      "midi": 69,
      "hit": false,
      "t": 257704.77199999968,
      "d": 129.09828750000452,
      "v": 81
    },
    {
      "midi": 62,
      "hit": false,
      "t": 257950.67349999968,
      "d": 102.45895833332906,
      "v": 59
    },
    {
      "midi": 74,
      "hit": false,
      "t": 258196.5749999997,
      "d": 122.95074999998906,
      "v": 81
    },
    {
      "midi": 74,
      "hit": false,
      "t": 258565.4272499997,
      "d": 122.95074999998906,
      "v": 85
    },
    {
      "midi": 64,
      "hit": false,
      "t": 258934.27949999968,
      "d": 145.49172083332087,
      "v": 81
    },
    {
      "midi": 65,
      "hit": false,
      "t": 259303.13174999968,
      "d": 153.68843750000815,
      "v": 77
    },
    {
      "midi": 69,
      "hit": false,
      "t": 259671.98399999968,
      "d": 131.14746666667634,
      "v": 85
    },
    {
      "midi": 62,
      "hit": false,
      "t": 259671.9840000004,
      "d": 3602.456974999979,
      "v": 68
    },
    {
      "midi": 65,
      "hit": false,
      "t": 259671.9840000004,
      "d": 3649.5880958333146,
      "v": 88
    },
    {
      "midi": 58,
      "hit": false,
      "t": 259671.9840000004,
      "d": 3653.686454166658,
      "v": 96
    },
    {
      "midi": 46,
      "hit": false,
      "t": 259671.9840000004,
      "d": 3711.0634708333528,
      "v": 106
    },
    {
      "midi": 62,
      "hit": false,
      "t": 259917.88549999968,
      "d": 114.75403333333088,
      "v": 55
    },
    {
      "midi": 72,
      "hit": false,
      "t": 260163.7869999997,
      "d": 124.99992916666088,
      "v": 85
    },
    {
      "midi": 72,
      "hit": false,
      "t": 260532.6392499997,
      "d": 139.3441833333345,
      "v": 85
    },
    {
      "midi": 64,
      "hit": false,
      "t": 260901.49149999968,
      "d": 153.68843750000815,
      "v": 85
    },
    {
      "midi": 65,
      "hit": false,
      "t": 261270.34374999968,
      "d": 118.85239166667452,
      "v": 69
    },
    {
      "midi": 69,
      "hit": false,
      "t": 261639.19599999968,
      "d": 124.99992916666088,
      "v": 77
    },
    {
      "midi": 62,
      "hit": false,
      "t": 261885.09749999968,
      "d": 98.36060000001453,
      "v": 59
    },
    {
      "midi": 74,
      "hit": false,
      "t": 262130.9989999997,
      "d": 133.19664583334816,
      "v": 81
    },
    {
      "midi": 74,
      "hit": false,
      "t": 262499.8512499997,
      "d": 129.0982874999754,
      "v": 91
    },
    {
      "midi": 64,
      "hit": false,
      "t": 262868.7034999997,
      "d": 153.68843749997905,
      "v": 81
    },
    {
      "midi": 65,
      "hit": false,
      "t": 263237.5557499997,
      "d": 112.70485416665906,
      "v": 69
    },
    {
      "midi": 69,
      "hit": false,
      "t": 263606.4079999997,
      "d": 124.99992916668998,
      "v": 81
    },
    {
      "midi": 45,
      "hit": false,
      "t": 263606.4080000004,
      "d": 3407.78495416668,
      "v": 70
    },
    {
      "midi": 57,
      "hit": false,
      "t": 263606.4080000004,
      "d": 3444.6701791666565,
      "v": 88
    },
    {
      "midi": 60,
      "hit": false,
      "t": 263606.4080000004,
      "d": 3454.9160750000156,
      "v": 100
    },
    {
      "midi": 64,
      "hit": false,
      "t": 263606.4080000004,
      "d": 3467.2111499999883,
      "v": 100
    },
    {
      "midi": 62,
      "hit": false,
      "t": 263852.30949999974,
      "d": 100.40977916668635,
      "v": 65
    },
    {
      "midi": 72,
      "hit": false,
      "t": 264098.2109999998,
      "d": 129.0982874999754,
      "v": 81
    },
    {
      "midi": 72,
      "hit": false,
      "t": 264467.0632499998,
      "d": 124.99992916668998,
      "v": 85
    },
    {
      "midi": 64,
      "hit": false,
      "t": 264835.91549999977,
      "d": 116.8032125000027,
      "v": 85
    },
    {
      "midi": 65,
      "hit": false,
      "t": 265204.76774999977,
      "d": 114.75403333333088,
      "v": 81
    },
    {
      "midi": 69,
      "hit": false,
      "t": 265573.61999999976,
      "d": 129.0982874999754,
      "v": 81
    },
    {
      "midi": 62,
      "hit": false,
      "t": 265819.52149999974,
      "d": 102.45895833335817,
      "v": 59
    },
    {
      "midi": 74,
      "hit": false,
      "t": 266065.4229999998,
      "d": 122.95075000001816,
      "v": 81
    },
    {
      "midi": 74,
      "hit": false,
      "t": 266434.2752499998,
      "d": 122.95075000001816,
      "v": 85
    },
    {
      "midi": 64,
      "hit": false,
      "t": 266803.12749999977,
      "d": 145.49172083334997,
      "v": 81
    },
    {
      "midi": 65,
      "hit": false,
      "t": 267171.97974999977,
      "d": 153.68843749997905,
      "v": 77
    },
    {
      "midi": 69,
      "hit": false,
      "t": 267540.83199999976,
      "d": 131.14746666664723,
      "v": 85
    },
    {
      "midi": 50,
      "hit": false,
      "t": 267540.8320000004,
      "d": 3495.8996583333355,
      "v": 62
    },
    {
      "midi": 62,
      "hit": false,
      "t": 267540.8320000004,
      "d": 3555.3258541666437,
      "v": 66
    },
    {
      "midi": 65,
      "hit": false,
      "t": 267540.8320000004,
      "d": 3616.8012291666237,
      "v": 100
    },
    {
      "midi": 69,
      "hit": false,
      "t": 267540.8320000004,
      "d": 3670.0798874999746,
      "v": 80
    },
    {
      "midi": 62,
      "hit": false,
      "t": 267786.73349999974,
      "d": 114.75403333333088,
      "v": 55
    },
    {
      "midi": 72,
      "hit": false,
      "t": 268032.6349999997,
      "d": 124.99992916668998,
      "v": 85
    },
    {
      "midi": 72,
      "hit": false,
      "t": 268401.4872499997,
      "d": 139.3441833333345,
      "v": 85
    },
    {
      "midi": 64,
      "hit": false,
      "t": 268770.3394999997,
      "d": 153.68843749997905,
      "v": 85
    },
    {
      "midi": 65,
      "hit": false,
      "t": 269139.1917499997,
      "d": 118.85239166667452,
      "v": 69
    },
    {
      "midi": 69,
      "hit": false,
      "t": 269508.0439999997,
      "d": 124.99992916668998,
      "v": 77
    },
    {
      "midi": 62,
      "hit": false,
      "t": 269753.94549999974,
      "d": 98.36060000001453,
      "v": 59
    },
    {
      "midi": 74,
      "hit": false,
      "t": 269999.8469999998,
      "d": 133.19664583331905,
      "v": 81
    },
    {
      "midi": 74,
      "hit": false,
      "t": 270368.6992499998,
      "d": 129.0982874999754,
      "v": 91
    },
    {
      "midi": 64,
      "hit": false,
      "t": 270737.55149999977,
      "d": 153.68843749997905,
      "v": 81
    },
    {
      "midi": 65,
      "hit": false,
      "t": 271106.40374999976,
      "d": 112.70485416665906,
      "v": 69
    },
    {
      "midi": 69,
      "hit": false,
      "t": 271475.25599999976,
      "d": 124.99992916668998,
      "v": 81
    },
    {
      "midi": 48,
      "hit": false,
      "t": 271475.2560000004,
      "d": 3174.1785291666747,
      "v": 88
    },
    {
      "midi": 64,
      "hit": false,
      "t": 271475.2560000004,
      "d": 3282.78502499999,
      "v": 92
    },
    {
      "midi": 60,
      "hit": false,
      "t": 271475.2560000004,
      "d": 3295.080099999963,
      "v": 96
    },
    {
      "midi": 67,
      "hit": false,
      "t": 271475.2560000004,
      "d": 3299.1784583333065,
      "v": 88
    },
    {
      "midi": 62,
      "hit": false,
      "t": 271721.1574999998,
      "d": 100.40977916668635,
      "v": 65
    },
    {
      "midi": 72,
      "hit": false,
      "t": 271967.05899999983,
      "d": 129.0982874999754,
      "v": 81
    },
    {
      "midi": 72,
      "hit": false,
      "t": 272335.91124999983,
      "d": 124.99992916668998,
      "v": 85
    },
    {
      "midi": 64,
      "hit": false,
      "t": 272704.7634999998,
      "d": 116.8032125000027,
      "v": 85
    },
    {
      "midi": 65,
      "hit": false,
      "t": 273073.6157499998,
      "d": 114.75403333333088,
      "v": 81
    },
    {
      "midi": 69,
      "hit": false,
      "t": 273442.4679999998,
      "d": 129.0982874999754,
      "v": 81
    },
    {
      "midi": 62,
      "hit": false,
      "t": 273688.3694999998,
      "d": 102.45895833335817,
      "v": 59
    },
    {
      "midi": 74,
      "hit": false,
      "t": 273934.27099999983,
      "d": 122.95075000001816,
      "v": 81
    },
    {
      "midi": 74,
      "hit": false,
      "t": 274303.12324999983,
      "d": 122.95075000001816,
      "v": 85
    },
    {
      "midi": 64,
      "hit": false,
      "t": 274671.9754999998,
      "d": 145.49172083334997,
      "v": 81
    },
    {
      "midi": 65,
      "hit": false,
      "t": 275040.8277499998,
      "d": 153.68843749997905,
      "v": 77
    },
    {
      "midi": 69,
      "hit": false,
      "t": 275409.6799999998,
      "d": 131.14746666664723,
      "v": 85
    },
    {
      "midi": 46,
      "hit": false,
      "t": 275409.6800000004,
      "d": 3219.2604708333383,
      "v": 92
    },
    {
      "midi": 58,
      "hit": false,
      "t": 275409.6800000004,
      "d": 3219.2604708333383,
      "v": 110
    },
    {
      "midi": 62,
      "hit": false,
      "t": 275409.6800000004,
      "d": 3221.30965000001,
      "v": 74
    },
    {
      "midi": 65,
      "hit": false,
      "t": 275409.6800000004,
      "d": 3221.30965000001,
      "v": 106
    },
    {
      "midi": 62,
      "hit": false,
      "t": 275655.5814999998,
      "d": 114.75403333333088,
      "v": 55
    },
    {
      "midi": 72,
      "hit": false,
      "t": 275901.4829999998,
      "d": 124.99992916668998,
      "v": 85
    },
    {
      "midi": 72,
      "hit": false,
      "t": 276270.33524999977,
      "d": 139.3441833333345,
      "v": 85
    },
    {
      "midi": 64,
      "hit": false,
      "t": 276639.18749999977,
      "d": 153.68843749997905,
      "v": 85
    },
    {
      "midi": 65,
      "hit": false,
      "t": 277008.03974999976,
      "d": 118.85239166667452,
      "v": 69
    },
    {
      "midi": 69,
      "hit": false,
      "t": 277376.89199999976,
      "d": 124.99992916668998,
      "v": 77
    },
    {
      "midi": 62,
      "hit": false,
      "t": 277622.7934999998,
      "d": 98.36060000001453,
      "v": 59
    },
    {
      "midi": 74,
      "hit": false,
      "t": 277868.69499999983,
      "d": 133.19664583331905,
      "v": 81
    },
    {
      "midi": 74,
      "hit": false,
      "t": 278237.5472499998,
      "d": 129.0982874999754,
      "v": 91
    },
    {
      "midi": 64,
      "hit": false,
      "t": 278606.3994999998,
      "d": 153.68843749997905,
      "v": 81
    },
    {
      "midi": 65,
      "hit": false,
      "t": 278975.2517499998,
      "d": 112.70485416665906,
      "v": 69
    },
    {
      "midi": 69,
      "hit": false,
      "t": 279344.1039999998,
      "d": 124.99992916668998,
      "v": 81
    },
    {
      "midi": 57,
      "hit": false,
      "t": 279344.1040000004,
      "d": 3422.1292083333246,
      "v": 70
    },
    {
      "midi": 60,
      "hit": false,
      "t": 279344.1040000004,
      "d": 3430.325925000012,
      "v": 92
    },
    {
      "midi": 45,
      "hit": false,
      "t": 279344.1040000004,
      "d": 3438.522641666699,
      "v": 78
    },
    {
      "midi": 64,
      "hit": false,
      "t": 279344.1040000004,
      "d": 3442.621000000043,
      "v": 88
    },
    {
      "midi": 62,
      "hit": false,
      "t": 279590.00549999985,
      "d": 100.40977916668635,
      "v": 65
    },
    {
      "midi": 72,
      "hit": false,
      "t": 279835.9069999999,
      "d": 129.0982874999754,
      "v": 81
    },
    {
      "midi": 72,
      "hit": false,
      "t": 280204.7592499999,
      "d": 124.99992916668998,
      "v": 85
    },
    {
      "midi": 64,
      "hit": false,
      "t": 280573.6114999999,
      "d": 116.8032125000027,
      "v": 85
    },
    {
      "midi": 65,
      "hit": false,
      "t": 280942.4637499999,
      "d": 114.75403333333088,
      "v": 81
    },
    {
      "midi": 69,
      "hit": false,
      "t": 281311.3159999999,
      "d": 129.0982874999754,
      "v": 81
    },
    {
      "midi": 62,
      "hit": false,
      "t": 281557.21749999985,
      "d": 102.45895833335817,
      "v": 59
    },
    {
      "midi": 74,
      "hit": false,
      "t": 281803.1189999999,
      "d": 122.95075000001816,
      "v": 81
    },
    {
      "midi": 74,
      "hit": false,
      "t": 282171.9712499999,
      "d": 122.95075000001816,
      "v": 85
    },
    {
      "midi": 64,
      "hit": false,
      "t": 282540.8234999999,
      "d": 145.49172083334997,
      "v": 81
    },
    {
      "midi": 65,
      "hit": false,
      "t": 282909.6757499999,
      "d": 153.68843749997905,
      "v": 77
    }
  ]
}