{
  "jsonPath": "World/Pagode/Ara Ketu/minha-razao-de-viver.json",
  "path": "World\\Pagode\\Ara Ketu\\Minha Razão De Viver.mid",
  "name": "Minha Razão De Viver",
  "difficulty": "Advanced",
  "bpm": 62.99999685000016,
  "notes": [
    {
      "midi": 65,
      "hit": false,
      "t": 7164.176,
      "d": 261.19391666666706,
      "v": 74
    },
    {
      "midi": 62,
      "hit": false,
      "t": 7164.176,
      "d": 268.65660000000025,
      "v": 76
    },
    {
      "midi": 58,
      "hit": false,
      "t": 7164.176,
      "d": 1097.0144499999997,
      "v": 76
    },
    {
      "midi": 62,
      "hit": false,
      "t": 8059.698,
      "d": 164.1790333333338,
      "v": 80
    },
    {
      "midi": 65,
      "hit": false,
      "t": 8955.22,
      "d": 298.507333333333,
      "v": 69
    },
    {
      "midi": 60,
      "hit": false,
      "t": 8955.22,
      "d": 320.8953833333326,
      "v": 72
    },
    {
      "midi": 57,
      "hit": false,
      "t": 8955.22,
      "d": 1179.1039666666638,
      "v": 79
    },
    {
      "midi": 77,
      "hit": false,
      "t": 9850.741999999998,
      "d": 126.86561666666603,
      "v": 90
    },
    {
      "midi": 60,
      "hit": false,
      "t": 9850.741999999998,
      "d": 223.8804999999993,
      "v": 72
    },
    {
      "midi": 65,
      "hit": false,
      "t": 9850.741999999998,
      "d": 246.26854999999887,
      "v": 75
    },
    {
      "midi": 58,
      "hit": false,
      "t": 10746.263999999996,
      "d": 514.9251499999991,
      "v": 74
    },
    {
      "midi": 63,
      "hit": false,
      "t": 10746.263999999996,
      "d": 514.9251499999991,
      "v": 74
    },
    {
      "midi": 54,
      "hit": false,
      "t": 10746.263999999996,
      "d": 1358.2083666666658,
      "v": 78
    },
    {
      "midi": 78,
      "hit": false,
      "t": 11641.785999999995,
      "d": 156.7163500000006,
      "v": 90
    },
    {
      "midi": 58,
      "hit": false,
      "t": 11641.785999999995,
      "d": 559.7012500000001,
      "v": 76
    },
    {
      "midi": 63,
      "hit": false,
      "t": 11641.785999999995,
      "d": 559.7012500000001,
      "v": 74
    },
    {
      "midi": 75,
      "hit": false,
      "t": 12537.307999999994,
      "d": 380.5968499999999,
      "v": 90
    },
    {
      "midi": 58,
      "hit": false,
      "t": 12537.307999999994,
      "d": 470.14905,
      "v": 75
    },
    {
      "midi": 63,
      "hit": false,
      "t": 12537.307999999994,
      "d": 485.07441666666637,
      "v": 78
    },
    {
      "midi": 54,
      "hit": false,
      "t": 12537.307999999994,
      "d": 1305.9695833333317,
      "v": 78
    },
    {
      "midi": 74,
      "hit": false,
      "t": 13208.949499999993,
      "d": 119.40293333333284,
      "v": 86
    },
    {
      "midi": 63,
      "hit": false,
      "t": 13432.829999999993,
      "d": 440.2983166666654,
      "v": 76
    },
    {
      "midi": 58,
      "hit": false,
      "t": 13432.829999999993,
      "d": 447.7609999999986,
      "v": 80
    },
    {
      "midi": 70,
      "hit": false,
      "t": 13880.590999999991,
      "d": 111.94024999999965,
      "v": 90
    },
    {
      "midi": 58,
      "hit": false,
      "t": 14328.351999999992,
      "d": 529.8505166666673,
      "v": 69
    },
    {
      "midi": 62,
      "hit": false,
      "t": 14328.351999999992,
      "d": 537.3132000000005,
      "v": 72
    },
    {
      "midi": 65,
      "hit": false,
      "t": 14328.351999999992,
      "d": 552.2385666666669,
      "v": 87
    },
    {
      "midi": 53,
      "hit": false,
      "t": 14328.351999999992,
      "d": 1052.2383500000014,
      "v": 72
    },
    {
      "midi": 58,
      "hit": false,
      "t": 15223.873999999993,
      "d": 186.56708333333336,
      "v": 80
    },
    {
      "midi": 62,
      "hit": false,
      "t": 15223.873999999993,
      "d": 194.02976666666655,
      "v": 80
    },
    {
      "midi": 60,
      "hit": false,
      "t": 16119.395999999992,
      "d": 432.83563333333404,
      "v": 76
    },
    {
      "midi": 57,
      "hit": false,
      "t": 16119.395999999992,
      "d": 447.7610000000004,
      "v": 76
    },
    {
      "midi": 53,
      "hit": false,
      "t": 16119.395999999992,
      "d": 1037.3129833333314,
      "v": 72
    },
    {
      "midi": 60,
      "hit": false,
      "t": 17014.91799999999,
      "d": 149.2536666666674,
      "v": 76
    },
    {
      "midi": 54,
      "hit": false,
      "t": 17910.43999999999,
      "d": 485.07441666666637,
      "v": 76
    },
    {
      "midi": 58,
      "hit": false,
      "t": 17910.43999999999,
      "d": 499.99978333333274,
      "v": 72
    },
    {
      "midi": 51,
      "hit": false,
      "t": 17910.43999999999,
      "d": 1156.715916666668,
      "v": 78
    },
    {
      "midi": 54,
      "hit": false,
      "t": 18805.961999999992,
      "d": 268.6566000000021,
      "v": 76
    },
    {
      "midi": 58,
      "hit": false,
      "t": 18805.961999999992,
      "d": 276.1192833333371,
      "v": 76
    },
    {
      "midi": 55,
      "hit": false,
      "t": 19701.483999999997,
      "d": 402.98489999999947,
      "v": 80
    },
    {
      "midi": 51,
      "hit": false,
      "t": 19701.483999999997,
      "d": 1067.163716666666,
      "v": 74
    },
    {
      "midi": 58,
      "hit": false,
      "t": 20597.005999999998,
      "d": 171.64171666666516,
      "v": 72
    },
    {
      "midi": 62,
      "hit": false,
      "t": 21492.527999999995,
      "d": 298.5073333333348,
      "v": 74
    },
    {
      "midi": 58,
      "hit": false,
      "t": 21492.527999999995,
      "d": 320.8953833333362,
      "v": 74
    },
    {
      "midi": 53,
      "hit": false,
      "t": 21492.527999999995,
      "d": 1097.014450000006,
      "v": 74
    },
    {
      "midi": 58,
      "hit": false,
      "t": 22388.05,
      "d": 201.49245000000155,
      "v": 75
    },
    {
      "midi": 60,
      "hit": false,
      "t": 23283.572,
      "d": 343.28343333333396,
      "v": 76
    },
    {
      "midi": 57,
      "hit": false,
      "t": 23283.572,
      "d": 350.74611666666897,
      "v": 74
    },
    {
      "midi": 53,
      "hit": false,
      "t": 23283.572,
      "d": 1119.4025000000001,
      "v": 74
    },
    {
      "midi": 60,
      "hit": false,
      "t": 24179.094,
      "d": 208.95513333333292,
      "v": 78
    },
    {
      "midi": 54,
      "hit": false,
      "t": 25074.615999999998,
      "d": 492.5371000000014,
      "v": 76
    },
    {
      "midi": 58,
      "hit": false,
      "t": 25074.615999999998,
      "d": 499.9997833333364,
      "v": 76
    },
    {
      "midi": 51,
      "hit": false,
      "t": 25074.615999999998,
      "d": 1067.1637166666696,
      "v": 78
    },
    {
      "midi": 54,
      "hit": false,
      "t": 25970.138000000003,
      "d": 179.10440000000017,
      "v": 72
    },
    {
      "midi": 65,
      "hit": false,
      "t": 26865.660000000003,
      "d": 365.6714833333317,
      "v": 84
    },
    {
      "midi": 58,
      "hit": false,
      "t": 26865.660000000003,
      "d": 410.44758333333084,
      "v": 79
    },
    {
      "midi": 63,
      "hit": false,
      "t": 26865.660000000003,
      "d": 410.44758333333084,
      "v": 80
    },
    {
      "midi": 67,
      "hit": false,
      "t": 27537.3015,
      "d": 1044.7756666666683,
      "v": 84
    },
    {
      "midi": 63,
      "hit": false,
      "t": 27537.3015,
      "d": 2164.1781666666684,
      "v": 84
    },
    {
      "midi": 67,
      "hit": false,
      "t": 28656.704,
      "d": 694.0295500000029,
      "v": 68
    },
    {
      "midi": 65,
      "hit": false,
      "t": 29328.345500000003,
      "d": 656.7161333333352,
      "v": 72
    },
    {
      "midi": 62,
      "hit": false,
      "t": 29999.987000000005,
      "d": 74.62683333333189,
      "v": 61
    },
    {
      "midi": 65,
      "hit": false,
      "t": 30447.748000000003,
      "d": 194.02976666666655,
      "v": 65
    },
    {
      "midi": 62,
      "hit": false,
      "t": 30447.748000000003,
      "d": 223.8804999999993,
      "v": 68
    },
    {
      "midi": 58,
      "hit": false,
      "t": 30447.748000000003,
      "d": 238.80586666666568,
      "v": 68
    },
    {
      "midi": 46,
      "hit": false,
      "t": 30447.748000000003,
      "d": 895.5220000000008,
      "v": 69
    },
    {
      "midi": 65,
      "hit": false,
      "t": 31343.270000000004,
      "d": 305.9700166666662,
      "v": 64
    },
    {
      "midi": 62,
      "hit": false,
      "t": 31343.270000000004,
      "d": 350.74611666666533,
      "v": 69
    },
    {
      "midi": 58,
      "hit": false,
      "t": 31343.270000000004,
      "d": 402.98489999999947,
      "v": 70
    },
    {
      "midi": 46,
      "hit": false,
      "t": 31791.031000000003,
      "d": 291.0446499999998,
      "v": 68
    },
    {
      "midi": 60,
      "hit": false,
      "t": 32238.792,
      "d": 395.52221666666446,
      "v": 65
    },
    {
      "midi": 65,
      "hit": false,
      "t": 32238.792,
      "d": 402.98489999999947,
      "v": 67
    },
    {
      "midi": 57,
      "hit": false,
      "t": 32238.792,
      "d": 410.4475833333345,
      "v": 66
    },
    {
      "midi": 45,
      "hit": false,
      "t": 32238.792,
      "d": 843.2832166666703,
      "v": 65
    },
    {
      "midi": 65,
      "hit": false,
      "t": 33134.314000000006,
      "d": 358.20880000000034,
      "v": 69
    },
    {
      "midi": 60,
      "hit": false,
      "t": 33134.314000000006,
      "d": 388.0595333333331,
      "v": 69
    },
    {
      "midi": 57,
      "hit": false,
      "t": 33134.314000000006,
      "d": 402.9849000000031,
      "v": 65
    },
    {
      "midi": 45,
      "hit": false,
      "t": 33582.07500000001,
      "d": 432.8356333333286,
      "v": 67
    },
    {
      "midi": 55,
      "hit": false,
      "t": 34029.83600000001,
      "d": 373.1341666666631,
      "v": 60
    },
    {
      "midi": 62,
      "hit": false,
      "t": 34029.83600000001,
      "d": 380.59684999999445,
      "v": 68
    },
    {
      "midi": 58,
      "hit": false,
      "t": 34029.83600000001,
      "d": 395.52221666666446,
      "v": 67
    },
    {
      "midi": 43,
      "hit": false,
      "t": 34029.83600000001,
      "d": 865.6712666666645,
      "v": 67
    },
    {
      "midi": 62,
      "hit": false,
      "t": 34925.35800000001,
      "d": 395.52221666666446,
      "v": 69
    },
    {
      "midi": 55,
      "hit": false,
      "t": 34925.35800000001,
      "d": 410.4475833333345,
      "v": 60
    },
    {
      "midi": 58,
      "hit": false,
      "t": 34925.35800000001,
      "d": 432.83563333333586,
      "v": 71
    },
    {
      "midi": 43,
      "hit": false,
      "t": 35373.11900000001,
      "d": 432.83563333333586,
      "v": 61
    },
    {
      "midi": 57,
      "hit": false,
      "t": 35820.88000000002,
      "d": 432.83563333333586,
      "v": 64
    },
    {
      "midi": 60,
      "hit": false,
      "t": 35820.88000000002,
      "d": 447.7610000000059,
      "v": 64
    },
    {
      "midi": 53,
      "hit": false,
      "t": 35820.88000000002,
      "d": 455.22368333333725,
      "v": 60
    },
    {
      "midi": 41,
      "hit": false,
      "t": 35820.88000000002,
      "d": 746.2683333333407,
      "v": 68
    },
    {
      "midi": 53,
      "hit": false,
      "t": 36716.402000000024,
      "d": 388.0595333333331,
      "v": 66
    },
    {
      "midi": 60,
      "hit": false,
      "t": 36716.402000000024,
      "d": 395.52221666666446,
      "v": 68
    },
    {
      "midi": 57,
      "hit": false,
      "t": 36716.402000000024,
      "d": 402.98489999999583,
      "v": 74
    },
    {
      "midi": 41,
      "hit": false,
      "t": 37164.16300000002,
      "d": 447.7609999999986,
      "v": 75
    },
    {
      "midi": 63,
      "hit": false,
      "t": 37611.92400000002,
      "d": 335.82074999999895,
      "v": 68
    },
    {
      "midi": 55,
      "hit": false,
      "t": 37611.92400000002,
      "d": 358.20880000000034,
      "v": 59
    },
    {
      "midi": 58,
      "hit": false,
      "t": 37611.92400000002,
      "d": 358.20880000000034,
      "v": 65
    },
    {
      "midi": 39,
      "hit": false,
      "t": 37611.92400000002,
      "d": 1201.4920166666634,
      "v": 69
    },
    {
      "midi": 62,
      "hit": false,
      "t": 38059.68500000002,
      "d": 171.64171666666516,
      "v": 68
    },
    {
      "midi": 55,
      "hit": false,
      "t": 38507.44600000002,
      "d": 320.8953833333362,
      "v": 64
    },
    {
      "midi": 58,
      "hit": false,
      "t": 38507.44600000002,
      "d": 350.74611666666897,
      "v": 72
    },
    {
      "midi": 39,
      "hit": false,
      "t": 38955.207000000024,
      "d": 447.7609999999986,
      "v": 72
    },
    {
      "midi": 58,
      "hit": false,
      "t": 39402.96800000002,
      "d": 320.8953833333362,
      "v": 76
    },
    {
      "midi": 53,
      "hit": false,
      "t": 39402.96800000002,
      "d": 350.74611666666897,
      "v": 67
    },
    {
      "midi": 38,
      "hit": false,
      "t": 39402.96800000002,
      "d": 1089.551766666671,
      "v": 74
    },
    {
      "midi": 57,
      "hit": false,
      "t": 39850.72900000003,
      "d": 447.7609999999986,
      "v": 70
    },
    {
      "midi": 58,
      "hit": false,
      "t": 40298.49000000003,
      "d": 335.82074999999895,
      "v": 75
    },
    {
      "midi": 38,
      "hit": false,
      "t": 40746.251000000026,
      "d": 447.7609999999986,
      "v": 69
    },
    {
      "midi": 58,
      "hit": false,
      "t": 41194.012000000024,
      "d": 238.80586666666932,
      "v": 70
    },
    {
      "midi": 55,
      "hit": false,
      "t": 41194.012000000024,
      "d": 246.2685500000007,
      "v": 70
    },
    {
      "midi": 63,
      "hit": false,
      "t": 41194.012000000024,
      "d": 253.73123333333206,
      "v": 63
    },
    {
      "midi": 36,
      "hit": false,
      "t": 41194.012000000024,
      "d": 1522.3873999999923,
      "v": 70
    },
    {
      "midi": 62,
      "hit": false,
      "t": 41641.77300000002,
      "d": 119.40293333333102,
      "v": 78
    },
    {
      "midi": 63,
      "hit": false,
      "t": 42089.53400000002,
      "d": 164.1790333333338,
      "v": 75
    },
    {
      "midi": 62,
      "hit": false,
      "t": 42313.41450000002,
      "d": 164.1790333333338,
      "v": 72
    },
    {
      "midi": 58,
      "hit": false,
      "t": 42537.29500000002,
      "d": 373.1341666666631,
      "v": 80
    },
    {
      "midi": 41,
      "hit": false,
      "t": 42992.51868333335,
      "d": 925.37273333333,
      "v": 76
    },
    {
      "midi": 57,
      "hit": false,
      "t": 42999.98136666668,
      "d": 276.11928333333344,
      "v": 71
    },
    {
      "midi": 60,
      "hit": false,
      "t": 43007.44405000001,
      "d": 298.5073333333348,
      "v": 69
    },
    {
      "midi": 53,
      "hit": false,
      "t": 43007.44405000001,
      "d": 313.43270000000484,
      "v": 65
    },
    {
      "midi": 60,
      "hit": false,
      "t": 43902.96605000002,
      "d": 417.9102666666586,
      "v": 68
    },
    {
      "midi": 53,
      "hit": false,
      "t": 43910.42873333335,
      "d": 395.52221666666446,
      "v": 64
    },
    {
      "midi": 57,
      "hit": false,
      "t": 43917.89141666668,
      "d": 395.52221666666446,
      "v": 67
    },
    {
      "midi": 41,
      "hit": false,
      "t": 44350.72705000001,
      "d": 373.13416666667035,
      "v": 72
    },
    {
      "midi": 62,
      "hit": false,
      "t": 44776.10000000001,
      "d": 313.43269999999757,
      "v": 78
    },
    {
      "midi": 65,
      "hit": false,
      "t": 44776.10000000001,
      "d": 320.89538333332894,
      "v": 75
    },
    {
      "midi": 58,
      "hit": false,
      "t": 44776.10000000001,
      "d": 402.98489999999583,
      "v": 74
    },
    {
      "midi": 62,
      "hit": false,
      "t": 45671.62200000001,
      "d": 216.41781666666793,
      "v": 76
    },
    {
      "midi": 65,
      "hit": false,
      "t": 45671.62200000001,
      "d": 231.34318333333795,
      "v": 70
    },
    {
      "midi": 58,
      "hit": false,
      "t": 45671.62200000001,
      "d": 238.80586666666932,
      "v": 71
    },
    {
      "midi": 65,
      "hit": false,
      "t": 46567.144000000015,
      "d": 365.6714833333317,
      "v": 72
    },
    {
      "midi": 60,
      "hit": false,
      "t": 46567.144000000015,
      "d": 373.1341666666631,
      "v": 65
    },
    {
      "midi": 57,
      "hit": false,
      "t": 46567.144000000015,
      "d": 1171.6412833333306,
      "v": 72
    },
    {
      "midi": 77,
      "hit": false,
      "t": 47462.66600000001,
      "d": 134.32830000000104,
      "v": 90
    },
    {
      "midi": 65,
      "hit": false,
      "t": 47462.66600000001,
      "d": 223.8804999999993,
      "v": 70
    },
    {
      "midi": 60,
      "hit": false,
      "t": 47462.66600000001,
      "d": 253.73123333333206,
      "v": 72
    },
    {
      "midi": 58,
      "hit": false,
      "t": 48358.18800000001,
      "d": 410.4475833333345,
      "v": 72
    },
    {
      "midi": 62,
      "hit": false,
      "t": 48358.18800000001,
      "d": 440.29831666666723,
      "v": 69
    },
    {
      "midi": 70,
      "hit": false,
      "t": 48358.18800000001,
      "d": 843.2832166666703,
      "v": 80
    },
    {
      "midi": 55,
      "hit": false,
      "t": 48358.18800000001,
      "d": 1246.2681166666734,
      "v": 74
    },
    {
      "midi": 58,
      "hit": false,
      "t": 49253.710000000014,
      "d": 298.5073333333348,
      "v": 72
    },
    {
      "midi": 70,
      "hit": false,
      "t": 49925.35150000002,
      "d": 223.8804999999993,
      "v": 76
    },
    {
      "midi": 69,
      "hit": false,
      "t": 50149.23200000002,
      "d": 440.29831666666723,
      "v": 68
    },
    {
      "midi": 65,
      "hit": false,
      "t": 50149.23200000002,
      "d": 589.5519833333383,
      "v": 69
    },
    {
      "midi": 60,
      "hit": false,
      "t": 50149.23200000002,
      "d": 597.0146666666697,
      "v": 68
    },
    {
      "midi": 57,
      "hit": false,
      "t": 50149.23200000002,
      "d": 1246.2681166666734,
      "v": 67
    },
    {
      "midi": 72,
      "hit": false,
      "t": 50596.99300000002,
      "d": 97.01488333333691,
      "v": 66
    },
    {
      "midi": 77,
      "hit": false,
      "t": 51044.75400000002,
      "d": 149.25366666666378,
      "v": 79
    },
    {
      "midi": 65,
      "hit": false,
      "t": 51044.75400000002,
      "d": 276.11928333333344,
      "v": 67
    },
    {
      "midi": 60,
      "hit": false,
      "t": 51044.75400000002,
      "d": 298.5073333333348,
      "v": 68
    },
    {
      "midi": 75,
      "hit": false,
      "t": 51940.27600000003,
      "d": 470.14905,
      "v": 74
    },
    {
      "midi": 55,
      "hit": false,
      "t": 51940.27600000003,
      "d": 917.9100500000059,
      "v": 70
    },
    {
      "midi": 58,
      "hit": false,
      "t": 52164.15650000003,
      "d": 268.6566000000021,
      "v": 72
    },
    {
      "midi": 74,
      "hit": false,
      "t": 52388.037000000026,
      "d": 455.22368333333725,
      "v": 75
    },
    {
      "midi": 63,
      "hit": false,
      "t": 52388.037000000026,
      "d": 955.22346666667,
      "v": 75
    },
    {
      "midi": 58,
      "hit": false,
      "t": 52835.79800000003,
      "d": 514.9251499999955,
      "v": 75
    },
    {
      "midi": 70,
      "hit": false,
      "t": 52835.79800000003,
      "d": 791.0444333333289,
      "v": 72
    },
    {
      "midi": 55,
      "hit": false,
      "t": 53283.55900000003,
      "d": 335.82074999999895,
      "v": 71
    },
    {
      "midi": 58,
      "hit": false,
      "t": 53731.32000000003,
      "d": 1328.3576333333258,
      "v": 74
    },
    {
      "midi": 50,
      "hit": false,
      "t": 53731.32000000003,
      "d": 1335.8203166666572,
      "v": 67
    },
    {
      "midi": 53,
      "hit": false,
      "t": 53731.32000000003,
      "d": 1335.8203166666572,
      "v": 74
    },
    {
      "midi": 62,
      "hit": false,
      "t": 54179.08100000003,
      "d": 888.0593166666586,
      "v": 75
    },
    {
      "midi": 65,
      "hit": false,
      "t": 54402.96150000003,
      "d": 671.6414999999906,
      "v": 72
    },
    {
      "midi": 70,
      "hit": false,
      "t": 54626.842000000026,
      "d": 425.3729499999972,
      "v": 75
    },
    {
      "midi": 48,
      "hit": false,
      "t": 55522.364000000016,
      "d": 1276.118849999999,
      "v": 76
    },
    {
      "midi": 60,
      "hit": false,
      "t": 55746.244500000015,
      "d": 970.1488333333327,
      "v": 70
    },
    {
      "midi": 63,
      "hit": false,
      "t": 55970.125000000015,
      "d": 925.3727333333372,
      "v": 78
    },
    {
      "midi": 67,
      "hit": false,
      "t": 56194.005500000014,
      "d": 716.417600000008,
      "v": 70
    },
    {
      "midi": 70,
      "hit": false,
      "t": 56417.88600000001,
      "d": 514.92515000001,
      "v": 78
    },
    {
      "midi": 53,
      "hit": false,
      "t": 57328.333366666695,
      "d": 1119.4025000000038,
      "v": 74
    },
    {
      "midi": 57,
      "hit": false,
      "t": 57328.333366666695,
      "d": 1164.1786000000066,
      "v": 69
    },
    {
      "midi": 60,
      "hit": false,
      "t": 57343.258733333365,
      "d": 1134.3278666666665,
      "v": 72
    },
    {
      "midi": 65,
      "hit": false,
      "t": 57410.42288333337,
      "d": 1044.775666666661,
      "v": 78
    },
    {
      "midi": 58,
      "hit": false,
      "t": 59119.377366666704,
      "d": 582.0892999999996,
      "v": 69
    },
    {
      "midi": 46,
      "hit": false,
      "t": 59119.377366666704,
      "d": 3141.789683333336,
      "v": 71
    },
    {
      "midi": 53,
      "hit": false,
      "t": 59126.840050000035,
      "d": 865.6712666666717,
      "v": 59
    },
    {
      "midi": 62,
      "hit": false,
      "t": 59126.840050000035,
      "d": 902.9846833333359,
      "v": 66
    },
    {
      "midi": 60,
      "hit": false,
      "t": 59977.58595000004,
      "d": 902.9846833333359,
      "v": 75
    },
    {
      "midi": 62,
      "hit": false,
      "t": 60850.71990000004,
      "d": 126.86561666666967,
      "v": 75
    },
    {
      "midi": 63,
      "hit": false,
      "t": 61753.704583333376,
      "d": 82.0895166666669,
      "v": 82
    },
    {
      "midi": 65,
      "hit": false,
      "t": 62686.54000000004,
      "d": 2902.983816666674,
      "v": 84
    },
    {
      "midi": 62,
      "hit": false,
      "t": 62686.54000000004,
      "d": 2947.759916666677,
      "v": 80
    },
    {
      "midi": 57,
      "hit": false,
      "t": 62686.54000000004,
      "d": 3022.386750000005,
      "v": 71
    },
    {
      "midi": 58,
      "hit": false,
      "t": 66268.62800000004,
      "d": 962.6861499999941,
      "v": 75
    },
    {
      "midi": 55,
      "hit": false,
      "t": 66268.62800000004,
      "d": 970.1488333333255,
      "v": 75
    },
    {
      "midi": 62,
      "hit": false,
      "t": 66268.62800000004,
      "d": 1037.3129833333223,
      "v": 75
    },
    {
      "midi": 53,
      "hit": false,
      "t": 68059.67200000004,
      "d": 1149.2532333333365,
      "v": 74
    },
    {
      "midi": 58,
      "hit": false,
      "t": 68059.67200000004,
      "d": 1156.715916666668,
      "v": 76
    },
    {
      "midi": 55,
      "hit": false,
      "t": 68059.67200000004,
      "d": 1164.1785999999993,
      "v": 71
    },
    {
      "midi": 62,
      "hit": false,
      "t": 68059.67200000004,
      "d": 1186.5666499999934,
      "v": 68
    },
    {
      "midi": 75,
      "hit": false,
      "t": 69850.71600000003,
      "d": 208.95513333333656,
      "v": 85
    },
    {
      "midi": 58,
      "hit": false,
      "t": 69850.71600000003,
      "d": 1320.8949499999871,
      "v": 72
    },
    {
      "midi": 51,
      "hit": false,
      "t": 69850.71600000003,
      "d": 1343.2829999999813,
      "v": 76
    },
    {
      "midi": 55,
      "hit": false,
      "t": 69850.71600000003,
      "d": 1343.2829999999813,
      "v": 74
    },
    {
      "midi": 74,
      "hit": false,
      "t": 70298.47700000003,
      "d": 89.55220000000554,
      "v": 84
    },
    {
      "midi": 70,
      "hit": false,
      "t": 70746.23800000003,
      "d": 82.08951666665962,
      "v": 79
    },
    {
      "midi": 55,
      "hit": false,
      "t": 71641.76000000001,
      "d": 1007.4622499999969,
      "v": 72
    },
    {
      "midi": 62,
      "hit": false,
      "t": 71641.76000000001,
      "d": 1029.850299999991,
      "v": 72
    },
    {
      "midi": 58,
      "hit": false,
      "t": 71641.76000000001,
      "d": 1052.238349999985,
      "v": 78
    },
    {
      "midi": 70,
      "hit": false,
      "t": 73432.80399999999,
      "d": 373.13416666667035,
      "v": 79
    },
    {
      "midi": 55,
      "hit": false,
      "t": 73432.80399999999,
      "d": 1141.7905500000052,
      "v": 65
    },
    {
      "midi": 63,
      "hit": false,
      "t": 73432.80399999999,
      "d": 1149.2532333333365,
      "v": 72
    },
    {
      "midi": 60,
      "hit": false,
      "t": 73432.80399999999,
      "d": 1164.1785999999993,
      "v": 72
    },
    {
      "midi": 69,
      "hit": false,
      "t": 73880.56499999999,
      "d": 149.25366666667105,
      "v": 79
    },
    {
      "midi": 70,
      "hit": false,
      "t": 74328.32599999999,
      "d": 89.55220000000554,
      "v": 80
    },
    {
      "midi": 57,
      "hit": false,
      "t": 75223.84799999998,
      "d": 1544.775450000001,
      "v": 71
    },
    {
      "midi": 60,
      "hit": false,
      "t": 75223.84799999998,
      "d": 1567.163499999995,
      "v": 71
    },
    {
      "midi": 53,
      "hit": false,
      "t": 75223.84799999998,
      "d": 1574.6261833333265,
      "v": 71
    },
    {
      "midi": 65,
      "hit": false,
      "t": 76119.36999999998,
      "d": 208.95513333333656,
      "v": 84
    },
    {
      "midi": 67,
      "hit": false,
      "t": 76343.25049999998,
      "d": 164.1790333333338,
      "v": 76
    },
    {
      "midi": 69,
      "hit": false,
      "t": 76567.13099999998,
      "d": 156.71635000000242,
      "v": 74
    },
    {
      "midi": 72,
      "hit": false,
      "t": 76791.01149999998,
      "d": 171.64171666666516,
      "v": 79
    },
    {
      "midi": 69,
      "hit": false,
      "t": 77014.89199999998,
      "d": 201.4924500000052,
      "v": 84
    },
    {
      "midi": 57,
      "hit": false,
      "t": 77014.89199999998,
      "d": 3507.4611666666606,
      "v": 72
    },
    {
      "midi": 62,
      "hit": false,
      "t": 77014.89199999998,
      "d": 3507.4611666666606,
      "v": 75
    },
    {
      "midi": 65,
      "hit": false,
      "t": 77014.89199999998,
      "d": 3582.087999999989,
      "v": 72
    },
    {
      "midi": 67,
      "hit": false,
      "t": 77238.77249999998,
      "d": 134.32829999999376,
      "v": 78
    },
    {
      "midi": 69,
      "hit": false,
      "t": 77462.65299999998,
      "d": 134.32829999999376,
      "v": 80
    },
    {
      "midi": 70,
      "hit": false,
      "t": 80596.97999999997,
      "d": 231.34318333333067,
      "v": 72
    },
    {
      "midi": 58,
      "hit": false,
      "t": 80596.97999999997,
      "d": 970.14883333334,
      "v": 70
    },
    {
      "midi": 55,
      "hit": false,
      "t": 80596.97999999997,
      "d": 977.6115166666714,
      "v": 68
    },
    {
      "midi": 62,
      "hit": false,
      "t": 80596.97999999997,
      "d": 1074.6264000000083,
      "v": 66
    },
    {
      "midi": 69,
      "hit": false,
      "t": 80820.86049999997,
      "d": 186.5670833333279,
      "v": 72
    },
    {
      "midi": 70,
      "hit": false,
      "t": 81044.74099999997,
      "d": 156.71635000000242,
      "v": 75
    },
    {
      "midi": 58,
      "hit": false,
      "t": 82388.02399999998,
      "d": 1059.701033333331,
      "v": 70
    },
    {
      "midi": 62,
      "hit": false,
      "t": 82388.02399999998,
      "d": 1059.701033333331,
      "v": 64
    },
    {
      "midi": 55,
      "hit": false,
      "t": 82388.02399999998,
      "d": 1067.1637166666624,
      "v": 67
    },
    {
      "midi": 53,
      "hit": false,
      "t": 82388.02399999998,
      "d": 1074.6263999999937,
      "v": 65
    },
    {
      "midi": 55,
      "hit": false,
      "t": 84179.06799999997,
      "d": 1186.5666499999934,
      "v": 70
    },
    {
      "midi": 51,
      "hit": false,
      "t": 84179.06799999997,
      "d": 1194.0293333333248,
      "v": 69
    },
    {
      "midi": 58,
      "hit": false,
      "t": 84179.06799999997,
      "d": 1253.7307999999903,
      "v": 68
    },
    {
      "midi": 62,
      "hit": false,
      "t": 85970.11199999996,
      "d": 1134.3278666666592,
      "v": 66
    },
    {
      "midi": 55,
      "hit": false,
      "t": 85970.11199999996,
      "d": 1149.253233333322,
      "v": 68
    },
    {
      "midi": 58,
      "hit": false,
      "t": 85970.11199999996,
      "d": 1186.5666499999934,
      "v": 69
    },
    {
      "midi": 55,
      "hit": false,
      "t": 87761.15599999996,
      "d": 947.7607833333313,
      "v": 64
    },
    {
      "midi": 63,
      "hit": false,
      "t": 87761.15599999996,
      "d": 962.6861499999941,
      "v": 72
    },
    {
      "midi": 60,
      "hit": false,
      "t": 87761.15599999996,
      "d": 985.0741999999882,
      "v": 71
    },
    {
      "midi": 53,
      "hit": false,
      "t": 89552.19999999995,
      "d": 1395.52178333333,
      "v": 69
    },
    {
      "midi": 57,
      "hit": false,
      "t": 89552.19999999995,
      "d": 1410.4471499999927,
      "v": 71
    },
    {
      "midi": 60,
      "hit": false,
      "t": 89552.19999999995,
      "d": 1417.909833333324,
      "v": 71
    },
    {
      "midi": 58,
      "hit": false,
      "t": 91335.78131666662,
      "d": 156.71634999998787,
      "v": 74
    },
    {
      "midi": 53,
      "hit": false,
      "t": 91343.24399999995,
      "d": 141.79098333332513,
      "v": 72
    },
    {
      "midi": 62,
      "hit": false,
      "t": 91365.63204999994,
      "d": 134.32829999999376,
      "v": 69
    },
    {
      "midi": 53,
      "hit": false,
      "t": 92425.33308333327,
      "d": 149.2536666666565,
      "v": 74
    },
    {
      "midi": 58,
      "hit": false,
      "t": 92432.7957666666,
      "d": 149.2536666666565,
      "v": 78
    },
    {
      "midi": 62,
      "hit": false,
      "t": 92440.25844999994,
      "d": 126.86561666666239,
      "v": 72
    },
    {
      "midi": 53,
      "hit": false,
      "t": 93119.36263333326,
      "d": 343.2834333333303,
      "v": 68
    },
    {
      "midi": 57,
      "hit": false,
      "t": 93119.36263333326,
      "d": 373.13416666667035,
      "v": 69
    },
    {
      "midi": 60,
      "hit": false,
      "t": 93126.8253166666,
      "d": 402.9849000000104,
      "v": 69
    },
    {
      "midi": 53,
      "hit": false,
      "t": 94201.4517166666,
      "d": 141.79098333332513,
      "v": 72
    },
    {
      "midi": 60,
      "hit": false,
      "t": 94223.8397666666,
      "d": 126.86561666666239,
      "v": 66
    },
    {
      "midi": 57,
      "hit": false,
      "t": 94231.30244999993,
      "d": 104.47756666666828,
      "v": 66
    },
    {
      "midi": 58,
      "hit": false,
      "t": 94910.40663333326,
      "d": 492.5370999999868,
      "v": 72
    },
    {
      "midi": 55,
      "hit": false,
      "t": 94917.86931666659,
      "d": 462.68636666666134,
      "v": 64
    },
    {
      "midi": 62,
      "hit": false,
      "t": 94917.86931666659,
      "d": 462.68636666666134,
      "v": 65
    },
    {
      "midi": 58,
      "hit": false,
      "t": 95835.77936666658,
      "d": 208.955133333322,
      "v": 72
    },
    {
      "midi": 62,
      "hit": false,
      "t": 95843.24204999991,
      "d": 208.955133333322,
      "v": 70
    },
    {
      "midi": 55,
      "hit": false,
      "t": 95850.70473333324,
      "d": 171.64171666666516,
      "v": 66
    },
    {
      "midi": 69,
      "hit": false,
      "t": 96731.30136666658,
      "d": 649.2534499999892,
      "v": 79
    },
    {
      "midi": 65,
      "hit": false,
      "t": 96746.22673333324,
      "d": 567.1639333333296,
      "v": 76
    },
    {
      "midi": 57,
      "hit": false,
      "t": 96746.22673333324,
      "d": 589.5519833333237,
      "v": 71
    },
    {
      "midi": 62,
      "hit": false,
      "t": 96761.1520999999,
      "d": 559.7012499999983,
      "v": 69
    },
    {
      "midi": 70,
      "hit": false,
      "t": 97365.6294499999,
      "d": 679.1041833333147,
      "v": 82
    },
    {
      "midi": 65,
      "hit": false,
      "t": 97820.85313333324,
      "d": 104.47756666665373,
      "v": 78
    },
    {
      "midi": 62,
      "hit": false,
      "t": 97828.31581666657,
      "d": 82.08951666665962,
      "v": 76
    },
    {
      "midi": 57,
      "hit": false,
      "t": 97828.31581666657,
      "d": 97.01488333332236,
      "v": 71
    },
    {
      "midi": 69,
      "hit": false,
      "t": 98037.27094999989,
      "d": 402.98489999999583,
      "v": 84
    },
    {
      "midi": 55,
      "hit": false,
      "t": 98499.95731666655,
      "d": 492.5370999999868,
      "v": 66
    },
    {
      "midi": 63,
      "hit": false,
      "t": 98507.41999999988,
      "d": 425.37294999998994,
      "v": 72
    },
    {
      "midi": 58,
      "hit": false,
      "t": 98507.41999999988,
      "d": 447.76099999998405,
      "v": 68
    },
    {
      "midi": 58,
      "hit": false,
      "t": 99634.28518333321,
      "d": 164.1790333333338,
      "v": 70
    },
    {
      "midi": 55,
      "hit": false,
      "t": 99634.28518333321,
      "d": 179.10439999999653,
      "v": 72
    },
    {
      "midi": 63,
      "hit": false,
      "t": 99641.74786666654,
      "d": 171.64171666666516,
      "v": 72
    },
    {
      "midi": 55,
      "hit": false,
      "t": 100276.07594999988,
      "d": 447.76099999998405,
      "v": 67
    },
    {
      "midi": 60,
      "hit": false,
      "t": 100283.53863333321,
      "d": 492.5370999999868,
      "v": 69
    },
    {
      "midi": 63,
      "hit": false,
      "t": 100298.46399999988,
      "d": 499.9997833333182,
      "v": 69
    },
    {
      "midi": 55,
      "hit": false,
      "t": 101425.32918333319,
      "d": 97.01488333332236,
      "v": 65
    },
    {
      "midi": 60,
      "hit": false,
      "t": 101432.79186666652,
      "d": 67.16414999999688,
      "v": 67
    },
    {
      "midi": 55,
      "hit": false,
      "t": 102096.97068333317,
      "d": 492.5371000000014,
      "v": 66
    },
    {
      "midi": 58,
      "hit": false,
      "t": 102096.97068333317,
      "d": 499.99978333333274,
      "v": 72
    },
    {
      "midi": 63,
      "hit": false,
      "t": 102104.4333666665,
      "d": 492.5371000000014,
      "v": 70
    },
    {
      "midi": 55,
      "hit": false,
      "t": 103216.37318333317,
      "d": 119.40293333333102,
      "v": 69
    },
    {
      "midi": 58,
      "hit": false,
      "t": 103231.29854999983,
      "d": 104.47756666666828,
      "v": 68
    },
    {
      "midi": 63,
      "hit": false,
      "t": 103231.29854999983,
      "d": 156.71635000000242,
      "v": 70
    },
    {
      "midi": 57,
      "hit": false,
      "t": 103902.94004999983,
      "d": 432.8356333333213,
      "v": 62
    },
    {
      "midi": 65,
      "hit": false,
      "t": 103902.94004999983,
      "d": 514.9251499999809,
      "v": 67
    },
    {
      "midi": 60,
      "hit": false,
      "t": 103910.40273333316,
      "d": 522.3878333333123,
      "v": 67
    },
    {
      "midi": 57,
      "hit": false,
      "t": 104992.49181666647,
      "d": 261.19391666665615,
      "v": 74
    },
    {
      "midi": 60,
      "hit": false,
      "t": 105216.37231666647,
      "d": 74.62683333332825,
      "v": 76
    },
    {
      "midi": 65,
      "hit": false,
      "t": 105231.29768333313,
      "d": 67.16414999999688,
      "v": 74
    },
    {
      "midi": 58,
      "hit": false,
      "t": 105664.13331666647,
      "d": 559.7012499999983,
      "v": 68
    },
    {
      "midi": 62,
      "hit": false,
      "t": 105686.52136666646,
      "d": 529.8505166666728,
      "v": 69
    },
    {
      "midi": 65,
      "hit": false,
      "t": 105693.9840499998,
      "d": 522.3878333333414,
      "v": 67
    },
    {
      "midi": 58,
      "hit": false,
      "t": 106783.53581666647,
      "d": 111.94024999999965,
      "v": 80
    },
    {
      "midi": 62,
      "hit": false,
      "t": 106790.9984999998,
      "d": 134.3283000000083,
      "v": 84
    },
    {
      "midi": 65,
      "hit": false,
      "t": 106828.31191666647,
      "d": 44.77610000000277,
      "v": 65
    },
    {
      "midi": 57,
      "hit": false,
      "t": 107455.17731666646,
      "d": 507.4624666666641,
      "v": 70
    },
    {
      "midi": 60,
      "hit": false,
      "t": 107462.6399999998,
      "d": 485.07441666667,
      "v": 69
    },
    {
      "midi": 65,
      "hit": false,
      "t": 107462.6399999998,
      "d": 492.5371000000014,
      "v": 69
    },
    {
      "midi": 57,
      "hit": false,
      "t": 108611.89323333313,
      "d": 134.32829999999376,
      "v": 70
    },
    {
      "midi": 60,
      "hit": false,
      "t": 108813.38568333312,
      "d": 59.70146666666551,
      "v": 75
    },
    {
      "midi": 65,
      "hit": false,
      "t": 108820.84836666645,
      "d": 59.70146666666551,
      "v": 72
    },
    {
      "midi": 57,
      "hit": false,
      "t": 108858.16178333313,
      "d": 7.46268333333137,
      "v": 47
    },
    {
      "midi": 62,
      "hit": false,
      "t": 109268.60936666645,
      "d": 507.4624666666641,
      "v": 67
    },
    {
      "midi": 58,
      "hit": false,
      "t": 109268.60936666645,
      "d": 514.9251499999955,
      "v": 69
    },
    {
      "midi": 55,
      "hit": false,
      "t": 109276.07204999978,
      "d": 514.9251499999955,
      "v": 64
    },
    {
      "midi": 58,
      "hit": false,
      "t": 110388.01186666645,
      "d": 111.9402500000142,
      "v": 76
    },
    {
      "midi": 62,
      "hit": false,
      "t": 110410.39991666644,
      "d": 104.47756666668283,
      "v": 71
    },
    {
      "midi": 55,
      "hit": false,
      "t": 110440.25064999978,
      "d": 29.85073333334003,
      "v": 47
    },
    {
      "midi": 57,
      "hit": false,
      "t": 111014.87726666646,
      "d": 529.8505166666582,
      "v": 65
    },
    {
      "midi": 65,
      "hit": false,
      "t": 111022.33994999979,
      "d": 477.6117333333241,
      "v": 67
    },
    {
      "midi": 62,
      "hit": false,
      "t": 111022.33994999979,
      "d": 507.4624666666641,
      "v": 67
    },
    {
      "midi": 69,
      "hit": false,
      "t": 111044.72799999978,
      "d": 634.3280833333265,
      "v": 76
    },
    {
      "midi": 70,
      "hit": false,
      "t": 111701.4441333331,
      "d": 746.2683333333262,
      "v": 80
    },
    {
      "midi": 57,
      "hit": false,
      "t": 111708.90681666644,
      "d": 126.86561666666239,
      "v": 72
    },
    {
      "midi": 62,
      "hit": false,
      "t": 111708.90681666644,
      "d": 126.86561666666239,
      "v": 79
    },
    {
      "midi": 65,
      "hit": false,
      "t": 111776.07096666643,
      "d": 22.38804999999411,
      "v": 47
    },
    {
      "midi": 57,
      "hit": false,
      "t": 112164.13049999977,
      "d": 111.94024999999965,
      "v": 71
    },
    {
      "midi": 62,
      "hit": false,
      "t": 112365.62294999977,
      "d": 52.23878333333414,
      "v": 72
    },
    {
      "midi": 57,
      "hit": false,
      "t": 112365.62294999977,
      "d": 59.70146666666551,
      "v": 69
    },
    {
      "midi": 65,
      "hit": false,
      "t": 112373.0856333331,
      "d": 52.23878333333414,
      "v": 69
    },
    {
      "midi": 69,
      "hit": false,
      "t": 112402.93636666644,
      "d": 305.9700166666589,
      "v": 84
    },
    {
      "midi": 63,
      "hit": false,
      "t": 112805.92126666644,
      "d": 462.68636666666134,
      "v": 75
    },
    {
      "midi": 58,
      "hit": false,
      "t": 112820.8466333331,
      "d": 462.68636666666134,
      "v": 67
    },
    {
      "midi": 55,
      "hit": false,
      "t": 112835.77199999976,
      "d": 499.99978333333274,
      "v": 62
    },
    {
      "midi": 58,
      "hit": false,
      "t": 113925.32376666644,
      "d": 111.94024999999965,
      "v": 78
    },
    {
      "midi": 63,
      "hit": false,
      "t": 113932.78644999977,
      "d": 134.3283000000083,
      "v": 76
    },
    {
      "midi": 60,
      "hit": false,
      "t": 114596.96526666643,
      "d": 246.2685499999934,
      "v": 69
    },
    {
      "midi": 55,
      "hit": false,
      "t": 114611.8906333331,
      "d": 231.34318333333067,
      "v": 63
    },
    {
      "midi": 63,
      "hit": false,
      "t": 114656.6667333331,
      "d": 208.955133333322,
      "v": 63
    },
    {
      "midi": 60,
      "hit": false,
      "t": 115522.33799999976,
      "d": 119.40293333333102,
      "v": 70
    },
    {
      "midi": 55,
      "hit": false,
      "t": 115529.80068333309,
      "d": 119.40293333333102,
      "v": 64
    },
    {
      "midi": 63,
      "hit": false,
      "t": 115529.80068333309,
      "d": 134.32829999999376,
      "v": 69
    },
    {
      "midi": 55,
      "hit": false,
      "t": 116388.00926666643,
      "d": 194.02976666665927,
      "v": 65
    },
    {
      "midi": 63,
      "hit": false,
      "t": 116395.47194999976,
      "d": 186.5670833333279,
      "v": 68
    },
    {
      "midi": 58,
      "hit": false,
      "t": 116402.93463333309,
      "d": 171.64171666666516,
      "v": 68
    },
    {
      "midi": 63,
      "hit": false,
      "t": 117298.45663333309,
      "d": 276.11928333333344,
      "v": 72
    },
    {
      "midi": 55,
      "hit": false,
      "t": 117335.77004999976,
      "d": 246.2685499999934,
      "v": 62
    },
    {
      "midi": 57,
      "hit": false,
      "t": 118193.97863333308,
      "d": 820.895166666669,
      "v": 65
    },
    {
      "midi": 65,
      "hit": false,
      "t": 118193.97863333308,
      "d": 828.3578500000003,
      "v": 71
    },
    {
      "midi": 60,
      "hit": false,
      "t": 118201.44131666642,
      "d": 813.4324833333376,
      "v": 68
    },
    {
      "midi": 57,
      "hit": false,
      "t": 119343.23186666642,
      "d": 74.62683333332825,
      "v": 66
    },
    {
      "midi": 60,
      "hit": false,
      "t": 119343.23186666642,
      "d": 74.62683333332825,
      "v": 70
    },
    {
      "midi": 65,
      "hit": false,
      "t": 119402.93333333309,
      "d": 14.92536666666274,
      "v": 47
    },
    {
      "midi": 60,
      "hit": false,
      "t": 119985.02263333308,
      "d": 529.8505166666728,
      "v": 64
    },
    {
      "midi": 63,
      "hit": false,
      "t": 119992.48531666641,
      "d": 514.92515000001,
      "v": 67
    },
    {
      "midi": 55,
      "hit": false,
      "t": 119992.48531666641,
      "d": 522.3878333333414,
      "v": 56
    },
    {
      "midi": 55,
      "hit": false,
      "t": 121164.12659999976,
      "d": 89.55219999999099,
      "v": 75
    },
    {
      "midi": 60,
      "hit": false,
      "t": 121171.58928333309,
      "d": 89.55219999999099,
      "v": 72
    },
    {
      "midi": 63,
      "hit": false,
      "t": 121238.75343333308,
      "d": 14.92536666666274,
      "v": 47
    },
    {
      "midi": 53,
      "hit": false,
      "t": 121790.99199999974,
      "d": 552.2385666666523,
      "v": 69
    },
    {
      "midi": 58,
      "hit": false,
      "t": 121798.45468333307,
      "d": 537.3131999999896,
      "v": 69
    },
    {
      "midi": 62,
      "hit": false,
      "t": 121805.9173666664,
      "d": 529.8505166666582,
      "v": 68
    },
    {
      "midi": 58,
      "hit": false,
      "t": 122925.3198666664,
      "d": 74.62683333332825,
      "v": 76
    },
    {
      "midi": 53,
      "hit": false,
      "t": 122925.3198666664,
      "d": 82.08951666665962,
      "v": 72
    },
    {
      "midi": 53,
      "hit": false,
      "t": 123582.03599999973,
      "d": 447.7609999999986,
      "v": 69
    },
    {
      "midi": 57,
      "hit": false,
      "t": 123589.49868333306,
      "d": 425.3729500000045,
      "v": 70
    },
    {
      "midi": 60,
      "hit": false,
      "t": 123589.49868333306,
      "d": 440.29831666666723,
      "v": 70
    },
    {
      "midi": 53,
      "hit": false,
      "t": 124671.5877666664,
      "d": 89.55219999999099,
      "v": 74
    },
    {
      "midi": 57,
      "hit": false,
      "t": 124679.05044999973,
      "d": 67.16414999999688,
      "v": 74
    },
    {
      "midi": 60,
      "hit": false,
      "t": 124686.51313333306,
      "d": 59.70146666666551,
      "v": 69
    },
    {
      "midi": 55,
      "hit": false,
      "t": 125380.54268333306,
      "d": 417.9102666666586,
      "v": 68
    },
    {
      "midi": 58,
      "hit": false,
      "t": 125380.54268333306,
      "d": 425.37294999998994,
      "v": 75
    },
    {
      "midi": 62,
      "hit": false,
      "t": 125395.46804999972,
      "d": 410.4475833333272,
      "v": 70
    },
    {
      "midi": 62,
      "hit": false,
      "t": 126499.94518333305,
      "d": 208.955133333322,
      "v": 79
    },
    {
      "midi": 58,
      "hit": false,
      "t": 126514.87054999972,
      "d": 171.64171666666516,
      "v": 65
    },
    {
      "midi": 55,
      "hit": false,
      "t": 126693.97494999971,
      "d": 104.47756666666828,
      "v": 75
    },
    {
      "midi": 57,
      "hit": false,
      "t": 127179.04936666638,
      "d": 708.9549166666693,
      "v": 67
    },
    {
      "midi": 65,
      "hit": false,
      "t": 127186.51204999971,
      "d": 723.880283333332,
      "v": 68
    },
    {
      "midi": 60,
      "hit": false,
      "t": 127186.51204999971,
      "d": 731.3429666666634,
      "v": 68
    },
    {
      "midi": 57,
      "hit": false,
      "t": 128522.33236666638,
      "d": 119.40293333333102,
      "v": 74
    },
    {
      "midi": 60,
      "hit": false,
      "t": 128529.79504999971,
      "d": 74.62683333332825,
      "v": 76
    },
    {
      "midi": 65,
      "hit": false,
      "t": 128544.72041666637,
      "d": 59.70146666666551,
      "v": 64
    },
    {
      "midi": 58,
      "hit": false,
      "t": 128962.63068333305,
      "d": 425.37294999998994,
      "v": 74
    },
    {
      "midi": 55,
      "hit": false,
      "t": 128970.09336666638,
      "d": 447.7609999999986,
      "v": 66
    },
    {
      "midi": 63,
      "hit": false,
      "t": 128977.55604999971,
      "d": 402.98489999999583,
      "v": 69
    },
    {
      "midi": 55,
      "hit": false,
      "t": 130082.03318333304,
      "d": 276.11928333333344,
      "v": 75
    },
    {
      "midi": 58,
      "hit": false,
      "t": 130298.45099999971,
      "d": 89.55220000000554,
      "v": 74
    },
    {
      "midi": 58,
      "hit": false,
      "t": 130738.74931666638,
      "d": 656.7161333333497,
      "v": 71
    },
    {
      "midi": 55,
      "hit": false,
      "t": 130753.67468333304,
      "d": 664.1788166666956,
      "v": 65
    },
    {
      "midi": 62,
      "hit": false,
      "t": 130761.13736666637,
      "d": 626.8654000000097,
      "v": 72
    },
    {
      "midi": 58,
      "hit": false,
      "t": 131873.07718333308,
      "d": 74.6268333333428,
      "v": 68
    },
    {
      "midi": 55,
      "hit": false,
      "t": 131873.07718333308,
      "d": 97.01488333335146,
      "v": 69
    },
    {
      "midi": 62,
      "hit": false,
      "t": 131873.07718333308,
      "d": 119.40293333336012,
      "v": 72
    },
    {
      "midi": 60,
      "hit": false,
      "t": 132559.64404999977,
      "d": 798.5071166666748,
      "v": 67
    },
    {
      "midi": 55,
      "hit": false,
      "t": 132567.10673333312,
      "d": 820.8951666666835,
      "v": 63
    },
    {
      "midi": 63,
      "hit": false,
      "t": 132574.56941666646,
      "d": 791.0444333333289,
      "v": 72
    },
    {
      "midi": 55,
      "hit": false,
      "t": 133664.12118333313,
      "d": 119.40293333333102,
      "v": 78
    },
    {
      "midi": 60,
      "hit": false,
      "t": 133671.58386666648,
      "d": 97.01488333332236,
      "v": 76
    },
    {
      "midi": 63,
      "hit": false,
      "t": 133671.58386666648,
      "d": 156.71634999997332,
      "v": 75
    },
    {
      "midi": 60,
      "hit": false,
      "t": 134328.29999999978,
      "d": 626.8654000000097,
      "v": 70
    },
    {
      "midi": 57,
      "hit": false,
      "t": 134335.76268333313,
      "d": 537.3132000000041,
      "v": 59
    },
    {
      "midi": 65,
      "hit": false,
      "t": 134343.22536666648,
      "d": 582.0892999999924,
      "v": 66
    },
    {
      "midi": 57,
      "hit": false,
      "t": 134962.62808333314,
      "d": 89.55220000000554,
      "v": 72
    },
    {
      "midi": 60,
      "hit": false,
      "t": 135231.28468333316,
      "d": 119.40293333333102,
      "v": 74
    },
    {
      "midi": 65,
      "hit": false,
      "t": 135231.28468333316,
      "d": 141.79098333333968,
      "v": 75
    },
    {
      "midi": 58,
      "hit": false,
      "t": 136104.41863333315,
      "d": 373.1341666666849,
      "v": 71
    },
    {
      "midi": 62,
      "hit": false,
      "t": 136104.41863333315,
      "d": 388.05953333334764,
      "v": 71
    },
    {
      "midi": 65,
      "hit": false,
      "t": 136111.8813166665,
      "d": 343.2834333333303,
      "v": 62
    },
    {
      "midi": 58,
      "hit": false,
      "t": 137223.82113333317,
      "d": 141.79098333333968,
      "v": 80
    },
    {
      "midi": 62,
      "hit": false,
      "t": 137477.55236666652,
      "d": 111.9402500000142,
      "v": 78
    },
    {
      "midi": 60,
      "hit": false,
      "t": 137910.38799999986,
      "d": 447.7609999999986,
      "v": 69
    },
    {
      "midi": 65,
      "hit": false,
      "t": 137910.38799999986,
      "d": 447.7609999999986,
      "v": 69
    },
    {
      "midi": 57,
      "hit": false,
      "t": 137940.2387333332,
      "d": 470.14905000000726,
      "v": 80
    },
    {
      "midi": 55,
      "hit": false,
      "t": 139693.96931666654,
      "d": 373.1341666666849,
      "v": 66
    },
    {
      "midi": 58,
      "hit": false,
      "t": 139693.96931666654,
      "d": 395.52221666669357,
      "v": 72
    },
    {
      "midi": 62,
      "hit": false,
      "t": 139708.8946833332,
      "d": 373.1341666666849,
      "v": 69
    },
    {
      "midi": 55,
      "hit": false,
      "t": 140828.29718333323,
      "d": 171.64171666669426,
      "v": 70
    },
    {
      "midi": 58,
      "hit": false,
      "t": 140835.75986666657,
      "d": 201.49245000001974,
      "v": 72
    },
    {
      "midi": 62,
      "hit": false,
      "t": 140843.22254999992,
      "d": 208.95513333333656,
      "v": 70
    },
    {
      "midi": 62,
      "hit": false,
      "t": 141485.0133166666,
      "d": 619.4027166666929,
      "v": 72
    },
    {
      "midi": 57,
      "hit": false,
      "t": 141492.47599999994,
      "d": 507.46246666667867,
      "v": 67
    },
    {
      "midi": 65,
      "hit": false,
      "t": 141499.93868333328,
      "d": 567.1639333333296,
      "v": 67
    },
    {
      "midi": 57,
      "hit": false,
      "t": 142134.2667666666,
      "d": 149.2536666666565,
      "v": 64
    },
    {
      "midi": 62,
      "hit": false,
      "t": 142380.5353166666,
      "d": 194.02976666667382,
      "v": 74
    },
    {
      "midi": 65,
      "hit": false,
      "t": 142402.9233666666,
      "d": 194.02976666667382,
      "v": 72
    },
    {
      "midi": 57,
      "hit": false,
      "t": 142567.10239999992,
      "d": 97.01488333335146,
      "v": 72
    },
    {
      "midi": 58,
      "hit": false,
      "t": 143305.9080499999,
      "d": 589.5519833333674,
      "v": 69
    },
    {
      "midi": 55,
      "hit": false,
      "t": 143305.9080499999,
      "d": 597.0146666667133,
      "v": 67
    },
    {
      "midi": 63,
      "hit": false,
      "t": 143313.37073333326,
      "d": 582.0893000000215,
      "v": 71
    },
    {
      "midi": 55,
      "hit": false,
      "t": 144417.84786666662,
      "d": 291.0446499999962,
      "v": 69
    },
    {
      "midi": 58,
      "hit": false,
      "t": 145044.7132666666,
      "d": 537.3132000000041,
      "v": 70
    },
    {
      "midi": 55,
      "hit": false,
      "t": 145052.17594999995,
      "d": 522.3878333333123,
      "v": 64
    },
    {
      "midi": 62,
      "hit": false,
      "t": 145067.1013166666,
      "d": 514.9251499999955,
      "v": 67
    },
    {
      "midi": 58,
      "hit": false,
      "t": 146231.2799166666,
      "d": 89.55219999997644,
      "v": 71
    },
    {
      "midi": 62,
      "hit": false,
      "t": 146261.13064999992,
      "d": 74.6268333333137,
      "v": 62
    },
    {
      "midi": 55,
      "hit": false,
      "t": 146290.98138333324,
      "d": 29.85073333332548,
      "v": 47
    },
    {
      "midi": 55,
      "hit": false,
      "t": 146858.14531666655,
      "d": 470.14904999997816,
      "v": 67
    },
    {
      "midi": 60,
      "hit": false,
      "t": 146873.0706833332,
      "d": 492.5370999999868,
      "v": 69
    },
    {
      "midi": 63,
      "hit": false,
      "t": 146873.0706833332,
      "d": 507.46246666664956,
      "v": 69
    },
    {
      "midi": 55,
      "hit": false,
      "t": 147970.0851333332,
      "d": 164.17903333334834,
      "v": 72
    },
    {
      "midi": 60,
      "hit": false,
      "t": 147985.01049999986,
      "d": 141.79098333333968,
      "v": 68
    },
    {
      "midi": 57,
      "hit": false,
      "t": 148634.26394999988,
      "d": 798.5071166666748,
      "v": 74
    },
    {
      "midi": 53,
      "hit": false,
      "t": 148641.72663333322,
      "d": 820.8951666666544,
      "v": 69
    },
    {
      "midi": 60,
      "hit": false,
      "t": 148641.72663333322,
      "d": 828.3578500000003,
      "v": 72
    },
    {
      "midi": 57,
      "hit": false,
      "t": 149783.51718333323,
      "d": 74.6268333333428,
      "v": 72
    },
    {
      "midi": 53,
      "hit": false,
      "t": 149783.51718333323,
      "d": 104.47756666666828,
      "v": 70
    },
    {
      "midi": 60,
      "hit": false,
      "t": 149790.97986666657,
      "d": 111.9402499999851,
      "v": 71
    },
    {
      "midi": 58,
      "hit": false,
      "t": 150432.77063333322,
      "d": 835.8205333333754,
      "v": 74
    },
    {
      "midi": 53,
      "hit": false,
      "t": 150440.23331666656,
      "d": 820.8951666666835,
      "v": 68
    },
    {
      "midi": 62,
      "hit": false,
      "t": 150447.6959999999,
      "d": 820.8951666666835,
      "v": 71
    },
    {
      "midi": 53,
      "hit": false,
      "t": 152238.73999999993,
      "d": 820.8951666666544,
      "v": 70
    },
    {
      "midi": 57,
      "hit": false,
      "t": 152238.73999999993,
      "d": 820.8951666666544,
      "v": 70
    },
    {
      "midi": 60,
      "hit": false,
      "t": 152238.73999999993,
      "d": 820.8951666666544,
      "v": 71
    },
    {
      "midi": 53,
      "hit": false,
      "t": 154029.78399999993,
      "d": 141.79098333333968,
      "v": 72
    },
    {
      "midi": 62,
      "hit": false,
      "t": 154052.17204999994,
      "d": 134.32829999999376,
      "v": 69
    },
    {
      "midi": 53,
      "hit": false,
      "t": 155111.87308333325,
      "d": 149.2536666667147,
      "v": 74
    },
    {
      "midi": 58,
      "hit": false,
      "t": 155119.3357666666,
      "d": 149.2536666667147,
      "v": 78
    },
    {
      "midi": 62,
      "hit": false,
      "t": 155126.79844999994,
      "d": 126.86561666667694,
      "v": 72
    },
    {
      "midi": 53,
      "hit": false,
      "t": 155805.90263333332,
      "d": 343.2834333333303,
      "v": 68
    },
    {
      "midi": 57,
      "hit": false,
      "t": 155805.90263333332,
      "d": 373.1341666666558,
      "v": 69
    },
    {
      "midi": 60,
      "hit": false,
      "t": 155813.36531666666,
      "d": 402.9848999999813,
      "v": 69
    },
    {
      "midi": 53,
      "hit": false,
      "t": 156887.99171666664,
      "d": 141.79098333336879,
      "v": 72
    },
    {
      "midi": 60,
      "hit": false,
      "t": 156910.37976666665,
      "d": 126.86561666670605,
      "v": 66
    },
    {
      "midi": 57,
      "hit": false,
      "t": 156917.84245,
      "d": 104.47756666666828,
      "v": 66
    },
    {
      "midi": 58,
      "hit": false,
      "t": 157596.94663333337,
      "d": 492.5371000000159,
      "v": 72
    },
    {
      "midi": 55,
      "hit": false,
      "t": 157604.40931666672,
      "d": 462.68636666666134,
      "v": 64
    },
    {
      "midi": 62,
      "hit": false,
      "t": 157604.40931666672,
      "d": 462.68636666666134,
      "v": 65
    },
    {
      "midi": 58,
      "hit": false,
      "t": 158522.31936666672,
      "d": 208.95513333336567,
      "v": 72
    },
    {
      "midi": 62,
      "hit": false,
      "t": 158529.78205000007,
      "d": 208.95513333336567,
      "v": 70
    },
    {
      "midi": 55,
      "hit": false,
      "t": 158537.2447333334,
      "d": 171.64171666666516,
      "v": 66
    },
    {
      "midi": 69,
      "hit": false,
      "t": 159417.84136666678,
      "d": 649.2534499999892,
      "v": 79
    },
    {
      "midi": 65,
      "hit": false,
      "t": 159432.76673333344,
      "d": 567.1639333333296,
      "v": 76
    },
    {
      "midi": 57,
      "hit": false,
      "t": 159432.76673333344,
      "d": 589.5519833333383,
      "v": 71
    },
    {
      "midi": 62,
      "hit": false,
      "t": 159447.6921000001,
      "d": 559.7012500000128,
      "v": 69
    },
    {
      "midi": 70,
      "hit": false,
      "t": 160052.1694500001,
      "d": 679.1041833333438,
      "v": 82
    },
    {
      "midi": 65,
      "hit": false,
      "t": 160507.39313333342,
      "d": 104.47756666666828,
      "v": 78
    },
    {
      "midi": 62,
      "hit": false,
      "t": 160514.85581666676,
      "d": 82.08951666665962,
      "v": 76
    },
    {
      "midi": 57,
      "hit": false,
      "t": 160514.85581666676,
      "d": 97.01488333332236,
      "v": 71
    },
    {
      "midi": 69,
      "hit": false,
      "t": 160723.8109500001,
      "d": 402.9849000000395,
      "v": 84
    },
    {
      "midi": 55,
      "hit": false,
      "t": 161186.49731666682,
      "d": 492.53710000004503,
      "v": 66
    },
    {
      "midi": 63,
      "hit": false,
      "t": 161193.96000000017,
      "d": 425.37295000001905,
      "v": 72
    },
    {
      "midi": 58,
      "hit": false,
      "t": 161193.96000000017,
      "d": 447.7610000000277,
      "v": 68
    },
    {
      "midi": 58,
      "hit": false,
      "t": 162320.82518333354,
      "d": 164.17903333334834,
      "v": 70
    },
    {
      "midi": 55,
      "hit": false,
      "t": 162320.82518333354,
      "d": 179.10440000001108,
      "v": 72
    },
    {
      "midi": 63,
      "hit": false,
      "t": 162328.28786666688,
      "d": 171.64171666666516,
      "v": 72
    },
    {
      "midi": 55,
      "hit": false,
      "t": 162962.6159500002,
      "d": 447.7610000000277,
      "v": 67
    },
    {
      "midi": 60,
      "hit": false,
      "t": 162970.07863333356,
      "d": 492.5371000000159,
      "v": 69
    },
    {
      "midi": 63,
      "hit": false,
      "t": 162985.00400000022,
      "d": 499.99978333336185,
      "v": 69
    },
    {
      "midi": 55,
      "hit": false,
      "t": 164111.8691833336,
      "d": 97.01488333335146,
      "v": 65
    },
    {
      "midi": 60,
      "hit": false,
      "t": 164119.33186666694,
      "d": 67.16414999999688,
      "v": 67
    },
    {
      "midi": 55,
      "hit": false,
      "t": 164783.5106833336,
      "d": 492.5371000000159,
      "v": 66
    },
    {
      "midi": 58,
      "hit": false,
      "t": 164783.5106833336,
      "d": 499.99978333336185,
      "v": 72
    },
    {
      "midi": 63,
      "hit": false,
      "t": 164790.97336666693,
      "d": 492.5371000000159,
      "v": 70
    },
    {
      "midi": 55,
      "hit": false,
      "t": 165902.9131833336,
      "d": 119.40293333333102,
      "v": 69
    },
    {
      "midi": 58,
      "hit": false,
      "t": 165917.83855000028,
      "d": 104.47756666666828,
      "v": 68
    },
    {
      "midi": 63,
      "hit": false,
      "t": 165917.83855000028,
      "d": 156.71635000000242,
      "v": 70
    },
    {
      "midi": 57,
      "hit": false,
      "t": 166589.48005000027,
      "d": 432.83563333336497,
      "v": 62
    },
    {
      "midi": 65,
      "hit": false,
      "t": 166589.48005000027,
      "d": 514.9251500000246,
      "v": 67
    },
    {
      "midi": 60,
      "hit": false,
      "t": 166596.94273333362,
      "d": 522.3878333333414,
      "v": 67
    },
    {
      "midi": 57,
      "hit": false,
      "t": 167679.03181666697,
      "d": 261.1939166666707,
      "v": 74
    },
    {
      "midi": 60,
      "hit": false,
      "t": 167902.91231666697,
      "d": 74.6268333333428,
      "v": 76
    },
    {
      "midi": 65,
      "hit": false,
      "t": 167917.83768333364,
      "d": 67.16415000002598,
      "v": 74
    },
    {
      "midi": 58,
      "hit": false,
      "t": 168350.673316667,
      "d": 559.7012500000128,
      "v": 68
    },
    {
      "midi": 62,
      "hit": false,
      "t": 168373.061366667,
      "d": 529.8505166666582,
      "v": 69
    },
    {
      "midi": 65,
      "hit": false,
      "t": 168380.52405000036,
      "d": 522.3878333333123,
      "v": 67
    },
    {
      "midi": 58,
      "hit": false,
      "t": 169470.07581666703,
      "d": 111.9402500000142,
      "v": 80
    },
    {
      "midi": 62,
      "hit": false,
      "t": 169477.53850000037,
      "d": 134.32829999999376,
      "v": 84
    },
    {
      "midi": 65,
      "hit": false,
      "t": 169514.85191666704,
      "d": 44.77609999998822,
      "v": 65
    },
    {
      "midi": 57,
      "hit": false,
      "t": 170141.71731666703,
      "d": 507.46246666670777,
      "v": 70
    },
    {
      "midi": 60,
      "hit": false,
      "t": 170149.18000000037,
      "d": 485.07441666667,
      "v": 69
    },
    {
      "midi": 65,
      "hit": false,
      "t": 170149.18000000037,
      "d": 492.5371000000159,
      "v": 69
    },
    {
      "midi": 57,
      "hit": false,
      "t": 171298.43323333372,
      "d": 134.32829999999376,
      "v": 70
    },
    {
      "midi": 60,
      "hit": false,
      "t": 171499.9256833337,
      "d": 59.701466666709166,
      "v": 75
    },
    {
      "midi": 65,
      "hit": false,
      "t": 171507.38836666706,
      "d": 59.701466666709166,
      "v": 72
    },
    {
      "midi": 57,
      "hit": false,
      "t": 171544.70178333373,
      "d": 7.462683333345922,
      "v": 47
    },
    {
      "midi": 62,
      "hit": false,
      "t": 171955.14936666712,
      "d": 507.46246666667867,
      "v": 67
    },
    {
      "midi": 58,
      "hit": false,
      "t": 171955.14936666712,
      "d": 514.9251500000246,
      "v": 69
    },
    {
      "midi": 55,
      "hit": false,
      "t": 171962.61205000046,
      "d": 514.9251500000246,
      "v": 64
    },
    {
      "midi": 58,
      "hit": false,
      "t": 173074.55186666714,
      "d": 111.9402499999851,
      "v": 76
    },
    {
      "midi": 62,
      "hit": false,
      "t": 173096.93991666715,
      "d": 104.47756666663918,
      "v": 71
    },
    {
      "midi": 55,
      "hit": false,
      "t": 173126.79065000048,
      "d": 29.85073333332548,
      "v": 47
    },
    {
      "midi": 57,
      "hit": false,
      "t": 173701.41726666712,
      "d": 529.8505166666873,
      "v": 65
    },
    {
      "midi": 65,
      "hit": false,
      "t": 173708.87995000047,
      "d": 477.6117333333532,
      "v": 67
    },
    {
      "midi": 62,
      "hit": false,
      "t": 173708.87995000047,
      "d": 507.46246666667867,
      "v": 67
    },
    {
      "midi": 69,
      "hit": false,
      "t": 173731.26800000048,
      "d": 634.3280833333265,
      "v": 76
    },
    {
      "midi": 70,
      "hit": false,
      "t": 174387.9841333338,
      "d": 746.2683333333989,
      "v": 80
    },
    {
      "midi": 57,
      "hit": false,
      "t": 174395.44681666716,
      "d": 126.86561666667694,
      "v": 72
    },
    {
      "midi": 62,
      "hit": false,
      "t": 174395.44681666716,
      "d": 126.86561666667694,
      "v": 79
    },
    {
      "midi": 65,
      "hit": false,
      "t": 174462.61096666715,
      "d": 22.38805000000866,
      "v": 47
    },
    {
      "midi": 57,
      "hit": false,
      "t": 174850.6705000005,
      "d": 111.9402500000142,
      "v": 71
    },
    {
      "midi": 62,
      "hit": false,
      "t": 175052.16295000052,
      "d": 52.23878333333414,
      "v": 72
    },
    {
      "midi": 57,
      "hit": false,
      "t": 175052.16295000052,
      "d": 59.70146666668006,
      "v": 69
    },
    {
      "midi": 65,
      "hit": false,
      "t": 175059.62563333387,
      "d": 52.23878333333414,
      "v": 69
    },
    {
      "midi": 69,
      "hit": false,
      "t": 175089.4763666672,
      "d": 305.970016666688,
      "v": 84
    },
    {
      "midi": 63,
      "hit": false,
      "t": 175492.4612666672,
      "d": 462.68636666666134,
      "v": 75
    },
    {
      "midi": 58,
      "hit": false,
      "t": 175507.38663333387,
      "d": 462.68636666666134,
      "v": 67
    },
    {
      "midi": 55,
      "hit": false,
      "t": 175522.31200000053,
      "d": 499.99978333333274,
      "v": 62
    },
    {
      "midi": 58,
      "hit": false,
      "t": 176611.8637666672,
      "d": 111.9402500000142,
      "v": 78
    },
    {
      "midi": 63,
      "hit": false,
      "t": 176619.32645000055,
      "d": 134.32829999999376,
      "v": 76
    },
    {
      "midi": 60,
      "hit": false,
      "t": 177283.50526666723,
      "d": 246.26854999997886,
      "v": 69
    },
    {
      "midi": 55,
      "hit": false,
      "t": 177298.4306333339,
      "d": 231.34318333331612,
      "v": 63
    },
    {
      "midi": 63,
      "hit": false,
      "t": 177343.20673333388,
      "d": 208.95513333333656,
      "v": 63
    },
    {
      "midi": 60,
      "hit": false,
      "t": 178208.87800000055,
      "d": 119.40293333336012,
      "v": 70
    },
    {
      "midi": 55,
      "hit": false,
      "t": 178216.3406833339,
      "d": 119.40293333336012,
      "v": 64
    },
    {
      "midi": 63,
      "hit": false,
      "t": 178216.3406833339,
      "d": 134.32830000002286,
      "v": 69
    },
    {
      "midi": 55,
      "hit": false,
      "t": 179074.54926666725,
      "d": 194.02976666670293,
      "v": 65
    },
    {
      "midi": 63,
      "hit": false,
      "t": 179082.0119500006,
      "d": 186.567083333357,
      "v": 68
    },
    {
      "midi": 58,
      "hit": false,
      "t": 179089.47463333394,
      "d": 171.64171666666516,
      "v": 68
    },
    {
      "midi": 63,
      "hit": false,
      "t": 179984.99663333394,
      "d": 276.11928333333344,
      "v": 72
    },
    {
      "midi": 55,
      "hit": false,
      "t": 180022.3100500006,
      "d": 246.26855000000796,
      "v": 62
    },
    {
      "midi": 57,
      "hit": false,
      "t": 180880.51863333394,
      "d": 820.8951666666835,
      "v": 65
    },
    {
      "midi": 65,
      "hit": false,
      "t": 180880.51863333394,
      "d": 828.3578500000294,
      "v": 71
    },
    {
      "midi": 60,
      "hit": false,
      "t": 180887.98131666728,
      "d": 813.4324833333376,
      "v": 68
    },
    {
      "midi": 57,
      "hit": false,
      "t": 182029.7718666673,
      "d": 74.6268333333428,
      "v": 66
    },
    {
      "midi": 60,
      "hit": false,
      "t": 182029.7718666673,
      "d": 74.6268333333428,
      "v": 70
    },
    {
      "midi": 65,
      "hit": false,
      "t": 182089.47333333397,
      "d": 14.92536666666274,
      "v": 47
    },
    {
      "midi": 60,
      "hit": false,
      "t": 182671.56263333396,
      "d": 1492.5366666666814,
      "v": 64
    },
    {
      "midi": 57,
      "hit": false,
      "t": 182679.0253166673,
      "d": 1492.5366666666814,
      "v": 56
    },
    {
      "midi": 65,
      "hit": false,
      "t": 182679.0253166673,
      "d": 1492.5366666666814,
      "v": 67
    },
    {
      "midi": 57,
      "hit": false,
      "t": 184477.53200000065,
      "d": 2126.864750000008,
      "v": 74
    },
    {
      "midi": 60,
      "hit": false,
      "t": 184477.53200000065,
      "d": 2126.864750000008,
      "v": 80
    },
    {
      "midi": 65,
      "hit": false,
      "t": 184477.53200000065,
      "d": 2141.7901166666707,
      "v": 78
    },
    {
      "midi": 53,
      "hit": false,
      "t": 188059.62000000066,
      "d": 567.1639333333296,
      "v": 74
    },
    {
      "midi": 62,
      "hit": false,
      "t": 188059.62000000066,
      "d": 589.5519833333383,
      "v": 68
    },
    {
      "midi": 58,
      "hit": false,
      "t": 188059.62000000066,
      "d": 597.0146666666842,
      "v": 71
    },
    {
      "midi": 53,
      "hit": false,
      "t": 189179.0225000007,
      "d": 320.89538333332166,
      "v": 68
    },
    {
      "midi": 62,
      "hit": false,
      "t": 189179.0225000007,
      "d": 358.20879999999306,
      "v": 65
    },
    {
      "midi": 58,
      "hit": false,
      "t": 189179.0225000007,
      "d": 365.671483333339,
      "v": 65
    },
    {
      "midi": 62,
      "hit": false,
      "t": 189850.6640000007,
      "d": 888.0593166666804,
      "v": 71
    },
    {
      "midi": 65,
      "hit": false,
      "t": 189850.6640000007,
      "d": 888.0593166666804,
      "v": 74
    },
    {
      "midi": 57,
      "hit": false,
      "t": 189850.6640000007,
      "d": 902.9846833333431,
      "v": 70
    },
    {
      "midi": 65,
      "hit": false,
      "t": 190970.06650000068,
      "d": 59.70146666668006,
      "v": 68
    },
    {
      "midi": 62,
      "hit": false,
      "t": 190970.06650000068,
      "d": 82.08951666668872,
      "v": 68
    },
    {
      "midi": 57,
      "hit": false,
      "t": 190970.06650000068,
      "d": 111.9402500000142,
      "v": 69
    },
    {
      "midi": 54,
      "hit": false,
      "t": 191641.7080000007,
      "d": 1022.3876166666741,
      "v": 67
    },
    {
      "midi": 58,
      "hit": false,
      "t": 191641.7080000007,
      "d": 1052.2383499999996,
      "v": 70
    },
    {
      "midi": 63,
      "hit": false,
      "t": 192761.1105000007,
      "d": 37.3134166666714,
      "v": 65
    },
    {
      "midi": 54,
      "hit": false,
      "t": 192761.1105000007,
      "d": 104.47756666666828,
      "v": 72
    },
    {
      "midi": 58,
      "hit": false,
      "t": 192761.1105000007,
      "d": 141.79098333333968,
      "v": 69
    },
    {
      "midi": 55,
      "hit": false,
      "t": 193432.7520000007,
      "d": 880.5966333333345,
      "v": 66
    },
    {
      "midi": 60,
      "hit": false,
      "t": 193432.7520000007,
      "d": 910.44736666666,
      "v": 69
    },
    {
      "midi": 63,
      "hit": false,
      "t": 193432.7520000007,
      "d": 932.8354166666686,
      "v": 67
    },
    {
      "midi": 60,
      "hit": false,
      "t": 194552.1545000007,
      "d": 59.70146666668006,
      "v": 66
    },
    {
      "midi": 63,
      "hit": false,
      "t": 194552.1545000007,
      "d": 89.55220000000554,
      "v": 72
    },
    {
      "midi": 63,
      "hit": false,
      "t": 195223.7960000007,
      "d": 955.2234666666773,
      "v": 68
    },
    {
      "midi": 54,
      "hit": false,
      "t": 195223.7960000007,
      "d": 970.14883333334,
      "v": 69
    },
    {
      "midi": 58,
      "hit": false,
      "t": 195223.7960000007,
      "d": 985.0742000000027,
      "v": 68
    },
    {
      "midi": 54,
      "hit": false,
      "t": 196343.1985000007,
      "d": 97.01488333332236,
      "v": 66
    },
    {
      "midi": 63,
      "hit": false,
      "t": 196343.1985000007,
      "d": 126.86561666664784,
      "v": 75
    },
    {
      "midi": 58,
      "hit": false,
      "t": 196343.1985000007,
      "d": 149.2536666666565,
      "v": 72
    },
    {
      "midi": 60,
      "hit": false,
      "t": 197014.8400000007,
      "d": 820.8951666666544,
      "v": 62
    },
    {
      "midi": 63,
      "hit": false,
      "t": 197014.8400000007,
      "d": 865.6712666666426,
      "v": 67
    },
    {
      "midi": 56,
      "hit": false,
      "t": 197014.8400000007,
      "d": 895.5219999999681,
      "v": 76
    },
    {
      "midi": 60,
      "hit": false,
      "t": 198134.24250000066,
      "d": 97.01488333332236,
      "v": 67
    },
    {
      "midi": 63,
      "hit": false,
      "t": 198134.24250000066,
      "d": 134.32829999999376,
      "v": 68
    },
    {
      "midi": 56,
      "hit": false,
      "t": 198134.24250000066,
      "d": 171.64171666666516,
      "v": 69
    },
    {
      "midi": 53,
      "hit": false,
      "t": 198805.88400000066,
      "d": 999.9995666666655,
      "v": 65
    },
    {
      "midi": 56,
      "hit": false,
      "t": 198805.88400000066,
      "d": 1007.4622500000114,
      "v": 74
    },
    {
      "midi": 60,
      "hit": false,
      "t": 198805.88400000066,
      "d": 1059.7010333333455,
      "v": 66
    },
    {
      "midi": 53,
      "hit": false,
      "t": 199925.2865000007,
      "d": 111.9402500000142,
      "v": 67
    },
    {
      "midi": 56,
      "hit": false,
      "t": 199925.2865000007,
      "d": 149.2536666666856,
      "v": 65
    },
    {
      "midi": 60,
      "hit": false,
      "t": 199925.2865000007,
      "d": 194.02976666667382,
      "v": 65
    },
    {
      "midi": 55,
      "hit": false,
      "t": 200596.92800000068,
      "d": 410.4475833333272,
      "v": 71
    },
    {
      "midi": 58,
      "hit": false,
      "t": 200596.92800000068,
      "d": 440.2983166666527,
      "v": 70
    },
    {
      "midi": 63,
      "hit": false,
      "t": 200596.92800000068,
      "d": 440.2983166666527,
      "v": 70
    },
    {
      "midi": 53,
      "hit": false,
      "t": 201492.45000000068,
      "d": 440.2983166666527,
      "v": 69
    },
    {
      "midi": 57,
      "hit": false,
      "t": 201492.45000000068,
      "d": 447.7609999999986,
      "v": 70
    },
    {
      "midi": 60,
      "hit": false,
      "t": 201492.45000000068,
      "d": 455.2236833333445,
      "v": 68
    },
    {
      "midi": 53,
      "hit": false,
      "t": 202387.97200000068,
      "d": 1940.29766666668,
      "v": 69
    },
    {
      "midi": 58,
      "hit": false,
      "t": 202387.97200000068,
      "d": 1947.760350000026,
      "v": 68
    },
    {
      "midi": 62,
      "hit": false,
      "t": 202387.97200000068,
      "d": 1955.2230333333719,
      "v": 69
    },
    {
      "midi": 70,
      "hit": false,
      "t": 205074.538,
      "d": 231.34318333334522,
      "v": 107
    },
    {
      "midi": 58,
      "hit": false,
      "t": 205074.53800000073,
      "d": 216.41781666665338,
      "v": 80
    },
    {
      "midi": 72,
      "hit": false,
      "t": 205298.4185,
      "d": 186.567083333357,
      "v": 104
    },
    {
      "midi": 60,
      "hit": false,
      "t": 205298.41850000073,
      "d": 291.0446499999962,
      "v": 74
    },
    {
      "midi": 74,
      "hit": false,
      "t": 205522.29900000003,
      "d": 201.49244999999064,
      "v": 106
    },
    {
      "midi": 62,
      "hit": false,
      "t": 205522.29900000073,
      "d": 276.11928333333344,
      "v": 78
    },
    {
      "midi": 75,
      "hit": false,
      "t": 205746.17950000003,
      "d": 156.71635000000242,
      "v": 110
    },
    {
      "midi": 63,
      "hit": false,
      "t": 205746.17950000073,
      "d": 276.11928333333344,
      "v": 80
    },
    {
      "midi": 77,
      "hit": false,
      "t": 205970.06000000003,
      "d": 1477.6112999999896,
      "v": 110
    },
    {
      "midi": 65,
      "hit": false,
      "t": 205970.06000000073,
      "d": 2902.983816666674,
      "v": 84
    },
    {
      "midi": 62,
      "hit": false,
      "t": 205970.06000000073,
      "d": 2947.7599166666623,
      "v": 80
    },
    {
      "midi": 57,
      "hit": false,
      "t": 205970.06000000073,
      "d": 3022.386750000005,
      "v": 71
    },
    {
      "midi": 58,
      "hit": false,
      "t": 209552.14800000074,
      "d": 962.6861499999941,
      "v": 75
    },
    {
      "midi": 55,
      "hit": false,
      "t": 209552.14800000074,
      "d": 970.14883333334,
      "v": 75
    },
    {
      "midi": 62,
      "hit": false,
      "t": 209552.14800000074,
      "d": 1037.312983333337,
      "v": 75
    },
    {
      "midi": 53,
      "hit": false,
      "t": 211343.19200000074,
      "d": 1149.253233333322,
      "v": 74
    },
    {
      "midi": 58,
      "hit": false,
      "t": 211343.19200000074,
      "d": 1156.715916666668,
      "v": 76
    },
    {
      "midi": 55,
      "hit": false,
      "t": 211343.19200000074,
      "d": 1164.1786000000138,
      "v": 71
    },
    {
      "midi": 62,
      "hit": false,
      "t": 211343.19200000074,
      "d": 1186.5666500000225,
      "v": 68
    },
    {
      "midi": 75,
      "hit": false,
      "t": 213134.23600000076,
      "d": 208.95513333333656,
      "v": 85
    },
    {
      "midi": 58,
      "hit": false,
      "t": 213134.23600000076,
      "d": 1320.8949499999871,
      "v": 72
    },
    {
      "midi": 51,
      "hit": false,
      "t": 213134.23600000076,
      "d": 1343.2829999999958,
      "v": 76
    },
    {
      "midi": 55,
      "hit": false,
      "t": 213134.23600000076,
      "d": 1343.2829999999958,
      "v": 74
    },
    {
      "midi": 74,
      "hit": false,
      "t": 213581.99700000076,
      "d": 89.55220000000554,
      "v": 84
    },
    {
      "midi": 70,
      "hit": false,
      "t": 214029.75800000076,
      "d": 82.08951666665962,
      "v": 79
    },
    {
      "midi": 55,
      "hit": false,
      "t": 214925.28000000076,
      "d": 1007.4622500000114,
      "v": 72
    },
    {
      "midi": 62,
      "hit": false,
      "t": 214925.28000000076,
      "d": 1029.85030000002,
      "v": 72
    },
    {
      "midi": 58,
      "hit": false,
      "t": 214925.28000000076,
      "d": 1052.2383500000287,
      "v": 78
    },
    {
      "midi": 70,
      "hit": false,
      "t": 216716.32400000078,
      "d": 373.1341666666558,
      "v": 79
    },
    {
      "midi": 55,
      "hit": false,
      "t": 216716.32400000078,
      "d": 1141.7905500000052,
      "v": 65
    },
    {
      "midi": 63,
      "hit": false,
      "t": 216716.32400000078,
      "d": 1149.253233333351,
      "v": 72
    },
    {
      "midi": 60,
      "hit": false,
      "t": 216716.32400000078,
      "d": 1164.1786000000138,
      "v": 72
    },
    {
      "midi": 69,
      "hit": false,
      "t": 217164.08500000078,
      "d": 149.2536666666565,
      "v": 79
    },
    {
      "midi": 70,
      "hit": false,
      "t": 217611.84600000078,
      "d": 89.55220000000554,
      "v": 80
    },
    {
      "midi": 57,
      "hit": false,
      "t": 218507.3680000008,
      "d": 1544.7754499999864,
      "v": 71
    },
    {
      "midi": 60,
      "hit": false,
      "t": 218507.3680000008,
      "d": 1567.163499999995,
      "v": 71
    },
    {
      "midi": 53,
      "hit": false,
      "t": 218507.3680000008,
      "d": 1574.626183333341,
      "v": 71
    },
    {
      "midi": 65,
      "hit": false,
      "t": 219402.8900000008,
      "d": 208.95513333333656,
      "v": 84
    },
    {
      "midi": 67,
      "hit": false,
      "t": 219626.7705000008,
      "d": 164.17903333331924,
      "v": 76
    },
    {
      "midi": 69,
      "hit": false,
      "t": 219850.6510000008,
      "d": 156.71635000000242,
      "v": 74
    },
    {
      "midi": 72,
      "hit": false,
      "t": 220074.5315000008,
      "d": 171.64171666666516,
      "v": 79
    },
    {
      "midi": 69,
      "hit": false,
      "t": 220298.4120000008,
      "d": 201.49244999999064,
      "v": 84
    },
    {
      "midi": 57,
      "hit": false,
      "t": 220298.4120000008,
      "d": 3507.461166666675,
      "v": 72
    },
    {
      "midi": 62,
      "hit": false,
      "t": 220298.4120000008,
      "d": 3507.461166666675,
      "v": 75
    },
    {
      "midi": 65,
      "hit": false,
      "t": 220298.4120000008,
      "d": 3582.088000000018,
      "v": 72
    },
    {
      "midi": 67,
      "hit": false,
      "t": 220522.2925000008,
      "d": 134.32829999999376,
      "v": 78
    },
    {
      "midi": 69,
      "hit": false,
      "t": 220746.1730000008,
      "d": 134.32829999999376,
      "v": 80
    },
    {
      "midi": 70,
      "hit": false,
      "t": 223880.50000000081,
      "d": 231.34318333334522,
      "v": 72
    },
    {
      "midi": 58,
      "hit": false,
      "t": 223880.50000000081,
      "d": 970.1488333333691,
      "v": 70
    },
    {
      "midi": 55,
      "hit": false,
      "t": 223880.50000000081,
      "d": 977.611516666715,
      "v": 68
    },
    {
      "midi": 62,
      "hit": false,
      "t": 223880.50000000081,
      "d": 1074.6264000000374,
      "v": 66
    },
    {
      "midi": 69,
      "hit": false,
      "t": 224104.3805000008,
      "d": 186.567083333357,
      "v": 72
    },
    {
      "midi": 70,
      "hit": false,
      "t": 224328.26100000084,
      "d": 156.71635000000242,
      "v": 75
    },
    {
      "midi": 58,
      "hit": false,
      "t": 225671.54400000084,
      "d": 1059.7010333333455,
      "v": 70
    },
    {
      "midi": 62,
      "hit": false,
      "t": 225671.54400000084,
      "d": 1059.7010333333455,
      "v": 64
    },
    {
      "midi": 55,
      "hit": false,
      "t": 225671.54400000084,
      "d": 1067.1637166666915,
      "v": 67
    },
    {
      "midi": 53,
      "hit": false,
      "t": 225671.54400000084,
      "d": 1074.6264000000374,
      "v": 65
    },
    {
      "midi": 55,
      "hit": false,
      "t": 227462.58800000086,
      "d": 1186.5666499999934,
      "v": 70
    },
    {
      "midi": 51,
      "hit": false,
      "t": 227462.58800000086,
      "d": 1194.0293333333393,
      "v": 69
    },
    {
      "midi": 58,
      "hit": false,
      "t": 227462.58800000086,
      "d": 1253.7308000000194,
      "v": 68
    },
    {
      "midi": 62,
      "hit": false,
      "t": 229253.6320000009,
      "d": 1134.3278666666592,
      "v": 66
    },
    {
      "midi": 55,
      "hit": false,
      "t": 229253.6320000009,
      "d": 1149.253233333322,
      "v": 68
    },
    {
      "midi": 58,
      "hit": false,
      "t": 229253.6320000009,
      "d": 1186.5666499999934,
      "v": 69
    },
    {
      "midi": 55,
      "hit": false,
      "t": 231044.67600000088,
      "d": 947.7607833333313,
      "v": 64
    },
    {
      "midi": 63,
      "hit": false,
      "t": 231044.67600000088,
      "d": 962.6861499999941,
      "v": 72
    },
    {
      "midi": 60,
      "hit": false,
      "t": 231044.67600000088,
      "d": 985.0742000000027,
      "v": 71
    },
    {
      "midi": 53,
      "hit": false,
      "t": 232835.72000000087,
      "d": 1395.52178333333,
      "v": 69
    },
    {
      "midi": 57,
      "hit": false,
      "t": 232835.72000000087,
      "d": 1410.4471499999927,
      "v": 71
    },
    {
      "midi": 60,
      "hit": false,
      "t": 232835.72000000087,
      "d": 1417.9098333333386,
      "v": 71
    },
    {
      "midi": 58,
      "hit": false,
      "t": 234619.30131666755,
      "d": 156.71635000003153,
      "v": 74
    },
    {
      "midi": 53,
      "hit": false,
      "t": 234626.7640000009,
      "d": 141.79098333333968,
      "v": 72
    },
    {
      "midi": 62,
      "hit": false,
      "t": 234649.1520500009,
      "d": 134.32830000002286,
      "v": 69
    },
    {
      "midi": 53,
      "hit": false,
      "t": 235708.85308333425,
      "d": 149.2536666667147,
      "v": 74
    },
    {
      "midi": 58,
      "hit": false,
      "t": 235716.3157666676,
      "d": 149.2536666667147,
      "v": 78
    },
    {
      "midi": 62,
      "hit": false,
      "t": 235723.77845000094,
      "d": 126.86561666667694,
      "v": 72
    },
    {
      "midi": 53,
      "hit": false,
      "t": 236402.88263333432,
      "d": 343.2834333333303,
      "v": 68
    },
    {
      "midi": 57,
      "hit": false,
      "t": 236402.88263333432,
      "d": 373.1341666666558,
      "v": 69
    },
    {
      "midi": 60,
      "hit": false,
      "t": 236410.34531666766,
      "d": 402.9848999999813,
      "v": 69
    },
    {
      "midi": 53,
      "hit": false,
      "t": 237484.97171666764,
      "d": 141.79098333336879,
      "v": 72
    },
    {
      "midi": 60,
      "hit": false,
      "t": 237507.35976666765,
      "d": 126.86561666670605,
      "v": 66
    },
    {
      "midi": 57,
      "hit": false,
      "t": 237514.822450001,
      "d": 104.47756666666828,
      "v": 66
    },
    {
      "midi": 58,
      "hit": false,
      "t": 238193.92663333437,
      "d": 492.5371000000159,
      "v": 72
    },
    {
      "midi": 55,
      "hit": false,
      "t": 238201.38931666772,
      "d": 462.68636666666134,
      "v": 64
    },
    {
      "midi": 62,
      "hit": false,
      "t": 238201.38931666772,
      "d": 462.68636666666134,
      "v": 65
    },
    {
      "midi": 58,
      "hit": false,
      "t": 239119.29936666772,
      "d": 208.95513333336567,
      "v": 72
    },
    {
      "midi": 62,
      "hit": false,
      "t": 239126.76205000107,
      "d": 208.95513333336567,
      "v": 70
    },
    {
      "midi": 55,
      "hit": false,
      "t": 239134.2247333344,
      "d": 171.64171666666516,
      "v": 66
    },
    {
      "midi": 69,
      "hit": false,
      "t": 240014.82136666778,
      "d": 649.2534499999892,
      "v": 79
    },
    {
      "midi": 65,
      "hit": false,
      "t": 240029.74673333444,
      "d": 567.1639333333296,
      "v": 76
    },
    {
      "midi": 57,
      "hit": false,
      "t": 240029.74673333444,
      "d": 589.5519833333383,
      "v": 71
    },
    {
      "midi": 62,
      "hit": false,
      "t": 240044.6721000011,
      "d": 559.7012500000128,
      "v": 69
    },
    {
      "midi": 70,
      "hit": false,
      "t": 240649.1494500011,
      "d": 679.1041833333438,
      "v": 82
    },
    {
      "midi": 65,
      "hit": false,
      "t": 241104.37313333442,
      "d": 104.47756666666828,
      "v": 78
    },
    {
      "midi": 62,
      "hit": false,
      "t": 241111.83581666776,
      "d": 82.08951666665962,
      "v": 76
    },
    {
      "midi": 57,
      "hit": false,
      "t": 241111.83581666776,
      "d": 97.01488333332236,
      "v": 71
    },
    {
      "midi": 69,
      "hit": false,
      "t": 241320.7909500011,
      "d": 402.9849000000395,
      "v": 84
    },
    {
      "midi": 55,
      "hit": false,
      "t": 241783.47731666782,
      "d": 492.53710000004503,
      "v": 66
    },
    {
      "midi": 63,
      "hit": false,
      "t": 241790.94000000117,
      "d": 425.37295000001905,
      "v": 72
    },
    {
      "midi": 58,
      "hit": false,
      "t": 241790.94000000117,
      "d": 447.7610000000277,
      "v": 68
    },
    {
      "midi": 58,
      "hit": false,
      "t": 242917.80518333454,
      "d": 164.17903333334834,
      "v": 70
    },
    {
      "midi": 55,
      "hit": false,
      "t": 242917.80518333454,
      "d": 179.10440000001108,
      "v": 72
    },
    {
      "midi": 63,
      "hit": false,
      "t": 242925.26786666788,
      "d": 171.64171666666516,
      "v": 72
    },
    {
      "midi": 55,
      "hit": false,
      "t": 243559.5959500012,
      "d": 447.7610000000277,
      "v": 67
    },
    {
      "midi": 60,
      "hit": false,
      "t": 243567.05863333456,
      "d": 492.5371000000159,
      "v": 69
    },
    {
      "midi": 63,
      "hit": false,
      "t": 243581.98400000122,
      "d": 499.99978333336185,
      "v": 69
    },
    {
      "midi": 55,
      "hit": false,
      "t": 244708.8491833346,
      "d": 97.01488333335146,
      "v": 65
    },
    {
      "midi": 60,
      "hit": false,
      "t": 244716.31186666794,
      "d": 67.16414999999688,
      "v": 67
    },
    {
      "midi": 55,
      "hit": false,
      "t": 245380.4906833346,
      "d": 492.5371000000159,
      "v": 66
    },
    {
      "midi": 58,
      "hit": false,
      "t": 245380.4906833346,
      "d": 499.99978333336185,
      "v": 72
    },
    {
      "midi": 63,
      "hit": false,
      "t": 245387.95336666793,
      "d": 492.5371000000159,
      "v": 70
    },
    {
      "midi": 55,
      "hit": false,
      "t": 246499.8931833346,
      "d": 119.40293333333102,
      "v": 69
    },
    {
      "midi": 58,
      "hit": false,
      "t": 246514.81855000128,
      "d": 104.47756666666828,
      "v": 68
    },
    {
      "midi": 63,
      "hit": false,
      "t": 246514.81855000128,
      "d": 156.71635000000242,
      "v": 70
    },
    {
      "midi": 57,
      "hit": false,
      "t": 247186.46005000127,
      "d": 432.83563333336497,
      "v": 62
    },
    {
      "midi": 65,
      "hit": false,
      "t": 247186.46005000127,
      "d": 514.9251500000246,
      "v": 67
    },
    {
      "midi": 60,
      "hit": false,
      "t": 247193.92273333462,
      "d": 522.3878333333414,
      "v": 67
    },
    {
      "midi": 57,
      "hit": false,
      "t": 248276.01181666797,
      "d": 261.1939166666707,
      "v": 74
    },
    {
      "midi": 60,
      "hit": false,
      "t": 248499.89231666797,
      "d": 74.6268333333428,
      "v": 76
    },
    {
      "midi": 65,
      "hit": false,
      "t": 248514.81768333464,
      "d": 67.16415000002598,
      "v": 74
    },
    {
      "midi": 58,
      "hit": false,
      "t": 248947.653316668,
      "d": 559.7012500000128,
      "v": 68
    },
    {
      "midi": 62,
      "hit": false,
      "t": 248970.041366668,
      "d": 529.8505166666582,
      "v": 69
    },
    {
      "midi": 65,
      "hit": false,
      "t": 248977.50405000136,
      "d": 522.3878333333123,
      "v": 67
    },
    {
      "midi": 58,
      "hit": false,
      "t": 250067.05581666803,
      "d": 111.9402500000142,
      "v": 80
    },
    {
      "midi": 62,
      "hit": false,
      "t": 250074.51850000137,
      "d": 134.32829999999376,
      "v": 84
    },
    {
      "midi": 65,
      "hit": false,
      "t": 250111.83191666804,
      "d": 44.77609999998822,
      "v": 65
    },
    {
      "midi": 57,
      "hit": false,
      "t": 250738.69731666803,
      "d": 507.46246666670777,
      "v": 70
    },
    {
      "midi": 60,
      "hit": false,
      "t": 250746.16000000137,
      "d": 485.07441666667,
      "v": 69
    },
    {
      "midi": 65,
      "hit": false,
      "t": 250746.16000000137,
      "d": 492.5371000000159,
      "v": 69
    },
    {
      "midi": 57,
      "hit": false,
      "t": 251895.41323333472,
      "d": 134.32829999999376,
      "v": 70
    },
    {
      "midi": 60,
      "hit": false,
      "t": 252096.9056833347,
      "d": 59.701466666709166,
      "v": 75
    },
    {
      "midi": 65,
      "hit": false,
      "t": 252104.36836666806,
      "d": 59.701466666709166,
      "v": 72
    },
    {
      "midi": 57,
      "hit": false,
      "t": 252141.68178333473,
      "d": 7.462683333345922,
      "v": 47
    },
    {
      "midi": 62,
      "hit": false,
      "t": 252552.12936666812,
      "d": 507.46246666667867,
      "v": 67
    },
    {
      "midi": 58,
      "hit": false,
      "t": 252552.12936666812,
      "d": 514.9251500000246,
      "v": 69
    },
    {
      "midi": 55,
      "hit": false,
      "t": 252559.59205000146,
      "d": 514.9251500000246,
      "v": 64
    },
    {
      "midi": 58,
      "hit": false,
      "t": 253671.53186666814,
      "d": 111.9402499999851,
      "v": 76
    },
    {
      "midi": 62,
      "hit": false,
      "t": 253693.91991666815,
      "d": 104.47756666663918,
      "v": 71
    },
    {
      "midi": 55,
      "hit": false,
      "t": 253723.77065000148,
      "d": 29.85073333332548,
      "v": 47
    },
    {
      "midi": 57,
      "hit": false,
      "t": 254298.39726666812,
      "d": 529.8505166666873,
      "v": 65
    },
    {
      "midi": 65,
      "hit": false,
      "t": 254305.85995000147,
      "d": 477.6117333333532,
      "v": 67
    },
    {
      "midi": 62,
      "hit": false,
      "t": 254305.85995000147,
      "d": 507.46246666667867,
      "v": 67
    },
    {
      "midi": 69,
      "hit": false,
      "t": 254328.24800000148,
      "d": 634.3280833333265,
      "v": 76
    },
    {
      "midi": 70,
      "hit": false,
      "t": 254984.9641333348,
      "d": 746.2683333333989,
      "v": 80
    },
    {
      "midi": 57,
      "hit": false,
      "t": 254992.42681666816,
      "d": 126.86561666667694,
      "v": 72
    },
    {
      "midi": 62,
      "hit": false,
      "t": 254992.42681666816,
      "d": 126.86561666667694,
      "v": 79
    },
    {
      "midi": 65,
      "hit": false,
      "t": 255059.59096666815,
      "d": 22.38805000000866,
      "v": 47
    },
    {
      "midi": 57,
      "hit": false,
      "t": 255447.6505000015,
      "d": 111.9402500000142,
      "v": 71
    },
    {
      "midi": 62,
      "hit": false,
      "t": 255649.14295000152,
      "d": 52.23878333333414,
      "v": 72
    },
    {
      "midi": 57,
      "hit": false,
      "t": 255649.14295000152,
      "d": 59.70146666668006,
      "v": 69
    },
    {
      "midi": 65,
      "hit": false,
      "t": 255656.60563333487,
      "d": 52.23878333333414,
      "v": 69
    },
    {
      "midi": 69,
      "hit": false,
      "t": 255686.4563666682,
      "d": 305.970016666688,
      "v": 84
    },
    {
      "midi": 63,
      "hit": false,
      "t": 256089.4412666682,
      "d": 462.68636666666134,
      "v": 75
    },
    {
      "midi": 58,
      "hit": false,
      "t": 256104.36663333487,
      "d": 462.68636666666134,
      "v": 67
    },
    {
      "midi": 55,
      "hit": false,
      "t": 256119.29200000153,
      "d": 499.99978333333274,
      "v": 62
    },
    {
      "midi": 58,
      "hit": false,
      "t": 257208.8437666682,
      "d": 111.9402500000142,
      "v": 78
    },
    {
      "midi": 63,
      "hit": false,
      "t": 257216.30645000155,
      "d": 134.32829999999376,
      "v": 76
    },
    {
      "midi": 60,
      "hit": false,
      "t": 257880.48526666823,
      "d": 246.26854999997886,
      "v": 69
    },
    {
      "midi": 55,
      "hit": false,
      "t": 257895.4106333349,
      "d": 231.34318333331612,
      "v": 63
    },
    {
      "midi": 63,
      "hit": false,
      "t": 257940.18673333488,
      "d": 208.95513333333656,
      "v": 63
    },
    {
      "midi": 60,
      "hit": false,
      "t": 258805.85800000155,
      "d": 119.40293333336012,
      "v": 70
    },
    {
      "midi": 55,
      "hit": false,
      "t": 258813.3206833349,
      "d": 119.40293333336012,
      "v": 64
    },
    {
      "midi": 63,
      "hit": false,
      "t": 258813.3206833349,
      "d": 134.32830000002286,
      "v": 69
    },
    {
      "midi": 55,
      "hit": false,
      "t": 259671.52926666825,
      "d": 194.02976666670293,
      "v": 65
    },
    {
      "midi": 63,
      "hit": false,
      "t": 259678.9919500016,
      "d": 186.567083333357,
      "v": 68
    },
    {
      "midi": 58,
      "hit": false,
      "t": 259686.45463333494,
      "d": 171.64171666666516,
      "v": 68
    },
    {
      "midi": 63,
      "hit": false,
      "t": 260581.97663333494,
      "d": 276.11928333333344,
      "v": 72
    },
    {
      "midi": 55,
      "hit": false,
      "t": 260619.2900500016,
      "d": 246.26855000000796,
      "v": 62
    },
    {
      "midi": 57,
      "hit": false,
      "t": 261477.49863333494,
      "d": 820.8951666666544,
      "v": 65
    },
    {
      "midi": 65,
      "hit": false,
      "t": 261477.49863333494,
      "d": 828.3578499999712,
      "v": 71
    },
    {
      "midi": 60,
      "hit": false,
      "t": 261484.96131666828,
      "d": 813.4324833333085,
      "v": 68
    },
    {
      "midi": 57,
      "hit": false,
      "t": 262626.75186666823,
      "d": 74.6268333333428,
      "v": 66
    },
    {
      "midi": 60,
      "hit": false,
      "t": 262626.75186666823,
      "d": 74.6268333333428,
      "v": 70
    },
    {
      "midi": 65,
      "hit": false,
      "t": 262686.4533333349,
      "d": 14.925366666691843,
      "v": 47
    },
    {
      "midi": 60,
      "hit": false,
      "t": 263268.5426333349,
      "d": 529.8505166666,
      "v": 64
    },
    {
      "midi": 63,
      "hit": false,
      "t": 263276.0053166682,
      "d": 514.9251499999664,
      "v": 67
    },
    {
      "midi": 55,
      "hit": false,
      "t": 263276.0053166682,
      "d": 522.3878333332832,
      "v": 56
    },
    {
      "midi": 55,
      "hit": false,
      "t": 264447.6466000015,
      "d": 89.55220000003465,
      "v": 75
    },
    {
      "midi": 60,
      "hit": false,
      "t": 264455.1092833348,
      "d": 89.55220000003465,
      "v": 72
    },
    {
      "midi": 63,
      "hit": false,
      "t": 264522.27343333483,
      "d": 14.925366666691843,
      "v": 47
    },
    {
      "midi": 53,
      "hit": false,
      "t": 265074.5120000015,
      "d": 552.2385666666087,
      "v": 69
    },
    {
      "midi": 58,
      "hit": false,
      "t": 265081.9746833348,
      "d": 537.313199999975,
      "v": 69
    },
    {
      "midi": 62,
      "hit": false,
      "t": 265089.43736666813,
      "d": 529.8505166666582,
      "v": 68
    },
    {
      "midi": 58,
      "hit": false,
      "t": 266208.8398666681,
      "d": 74.6268333333428,
      "v": 76
    },
    {
      "midi": 53,
      "hit": false,
      "t": 266208.8398666681,
      "d": 82.08951666665962,
      "v": 72
    },
    {
      "midi": 53,
      "hit": false,
      "t": 266865.5560000014,
      "d": 447.7609999999986,
      "v": 69
    },
    {
      "midi": 57,
      "hit": false,
      "t": 266873.0186833347,
      "d": 425.37294999998994,
      "v": 70
    },
    {
      "midi": 60,
      "hit": false,
      "t": 266873.0186833347,
      "d": 440.2983166666818,
      "v": 70
    },
    {
      "midi": 53,
      "hit": false,
      "t": 267955.107766668,
      "d": 89.55219999997644,
      "v": 74
    },
    {
      "midi": 57,
      "hit": false,
      "t": 267962.57045000134,
      "d": 67.16414999996778,
      "v": 74
    },
    {
      "midi": 60,
      "hit": false,
      "t": 267970.03313333465,
      "d": 59.70146666665096,
      "v": 69
    },
    {
      "midi": 55,
      "hit": false,
      "t": 268664.0626833347,
      "d": 417.9102666666731,
      "v": 68
    },
    {
      "midi": 58,
      "hit": false,
      "t": 268664.0626833347,
      "d": 425.37294999998994,
      "v": 75
    },
    {
      "midi": 62,
      "hit": false,
      "t": 268678.9880500014,
      "d": 410.4475833332981,
      "v": 70
    },
    {
      "midi": 62,
      "hit": false,
      "t": 269783.46518333466,
      "d": 208.95513333339477,
      "v": 79
    },
    {
      "midi": 58,
      "hit": false,
      "t": 269798.39055000135,
      "d": 171.64171666669426,
      "v": 65
    },
    {
      "midi": 55,
      "hit": false,
      "t": 269977.49495000136,
      "d": 104.47756666666828,
      "v": 75
    },
    {
      "midi": 57,
      "hit": false,
      "t": 270462.56936666806,
      "d": 708.9549166666111,
      "v": 67
    },
    {
      "midi": 65,
      "hit": false,
      "t": 270470.0320500014,
      "d": 723.8802833333029,
      "v": 68
    },
    {
      "midi": 60,
      "hit": false,
      "t": 270470.0320500014,
      "d": 731.3429666666198,
      "v": 68
    },
    {
      "midi": 57,
      "hit": false,
      "t": 271805.852366668,
      "d": 119.40293333330192,
      "v": 74
    },
    {
      "midi": 60,
      "hit": false,
      "t": 271813.3150500013,
      "d": 74.6268333333428,
      "v": 76
    },
    {
      "midi": 65,
      "hit": false,
      "t": 271828.240416668,
      "d": 59.70146666665096,
      "v": 64
    },
    {
      "midi": 58,
      "hit": false,
      "t": 272246.1506833346,
      "d": 425.37294999998994,
      "v": 74
    },
    {
      "midi": 55,
      "hit": false,
      "t": 272253.61336666794,
      "d": 447.7609999999986,
      "v": 66
    },
    {
      "midi": 63,
      "hit": false,
      "t": 272261.07605000125,
      "d": 402.9849000000395,
      "v": 69
    },
    {
      "midi": 55,
      "hit": false,
      "t": 273365.5531833346,
      "d": 276.11928333330434,
      "v": 75
    },
    {
      "midi": 58,
      "hit": false,
      "t": 273581.97100000124,
      "d": 89.55219999997644,
      "v": 74
    },
    {
      "midi": 58,
      "hit": false,
      "t": 274022.26931666787,
      "d": 656.7161333333352,
      "v": 71
    },
    {
      "midi": 55,
      "hit": false,
      "t": 274037.19468333456,
      "d": 664.178816666652,
      "v": 65
    },
    {
      "midi": 62,
      "hit": false,
      "t": 274044.6573666679,
      "d": 626.8654000000097,
      "v": 72
    },
    {
      "midi": 58,
      "hit": false,
      "t": 275156.5971833345,
      "d": 74.6268333333428,
      "v": 68
    },
    {
      "midi": 55,
      "hit": false,
      "t": 275156.5971833345,
      "d": 97.01488333335146,
      "v": 69
    },
    {
      "midi": 62,
      "hit": false,
      "t": 275156.5971833345,
      "d": 119.40293333336012,
      "v": 72
    },
    {
      "midi": 60,
      "hit": false,
      "t": 275843.1640500012,
      "d": 798.5071166666457,
      "v": 67
    },
    {
      "midi": 55,
      "hit": false,
      "t": 275850.6267333345,
      "d": 820.8951666666544,
      "v": 63
    },
    {
      "midi": 63,
      "hit": false,
      "t": 275858.0894166678,
      "d": 791.0444333333289,
      "v": 72
    },
    {
      "midi": 55,
      "hit": false,
      "t": 276947.64118333446,
      "d": 119.40293333336012,
      "v": 78
    },
    {
      "midi": 60,
      "hit": false,
      "t": 276955.1038666678,
      "d": 97.01488333335146,
      "v": 76
    },
    {
      "midi": 63,
      "hit": false,
      "t": 276955.1038666678,
      "d": 156.71635000006063,
      "v": 75
    },
    {
      "midi": 55,
      "hit": false,
      "t": 277611.8200000012,
      "d": 932.8354166666395,
      "v": 79
    },
    {
      "midi": 63,
      "hit": false,
      "t": 277611.8200000012,
      "d": 932.8354166666395,
      "v": 76
    },
    {
      "midi": 58,
      "hit": false,
      "t": 277611.8200000012,
      "d": 947.7607833333313,
      "v": 79
    },
    {
      "midi": 55,
      "hit": false,
      "t": 279402.8640000012,
      "d": 962.6861500000232,
      "v": 69
    },
    {
      "midi": 58,
      "hit": false,
      "t": 279402.8640000012,
      "d": 992.5368833333487,
      "v": 72
    },
    {
      "midi": 63,
      "hit": false,
      "t": 279402.8640000012,
      "d": 992.5368833333487,
      "v": 78
    },
    {
      "midi": 58,
      "hit": false,
      "t": 281193.9080000013,
      "d": 104.47756666666828,
      "v": 76
    },
    {
      "midi": 62,
      "hit": false,
      "t": 281193.9080000013,
      "d": 104.47756666666828,
      "v": 82
    },
    {
      "midi": 65,
      "hit": false,
      "t": 281193.9080000013,
      "d": 134.32829999999376,
      "v": 76
    },
    {
      "midi": 65,
      "hit": false,
      "t": 281865.54950000125,
      "d": 59.70146666665096,
      "v": 74
    },
    {
      "midi": 62,
      "hit": false,
      "t": 281865.54950000125,
      "d": 67.16414999996778,
      "v": 78
    },
    {
      "midi": 58,
      "hit": false,
      "t": 281865.54950000125,
      "d": 89.55219999997644,
      "v": 76
    },
    {
      "midi": 77,
      "hit": false,
      "t": 282089.43000000005,
      "d": 447.7610000000568,
      "v": 83
    },
    {
      "midi": 79,
      "hit": false,
      "t": 282313.3105000001,
      "d": 223.8805000000284,
      "v": 86
    },
    {
      "midi": 81,
      "hit": false,
      "t": 282537.1910000001,
      "d": 223.8805000000284,
      "v": 83
    },
    {
      "midi": 62,
      "hit": false,
      "t": 282537.1910000012,
      "d": 52.23878333333414,
      "v": 75
    },
    {
      "midi": 58,
      "hit": false,
      "t": 282537.1910000012,
      "d": 59.70146666665096,
      "v": 70
    },
    {
      "midi": 65,
      "hit": false,
      "t": 282537.1910000012,
      "d": 59.70146666665096,
      "v": 72
    },
    {
      "midi": 82,
      "hit": false,
      "t": 282761.07150000014,
      "d": 223.8805000000284,
      "v": 80
    },
    {
      "midi": 81,
      "hit": false,
      "t": 282984.95200000016,
      "d": 447.7609999999986,
      "v": 83
    },
    {
      "midi": 57,
      "hit": false,
      "t": 282984.9520000012,
      "d": 89.55219999997644,
      "v": 71
    },
    {
      "midi": 60,
      "hit": false,
      "t": 282984.9520000012,
      "d": 97.01488333329326,
      "v": 78
    },
    {
      "midi": 65,
      "hit": false,
      "t": 282984.9520000012,
      "d": 97.01488333329326,
      "v": 75
    },
    {
      "midi": 84,
      "hit": false,
      "t": 283432.71300000016,
      "d": 895.5219999999972,
      "v": 83
    },
    {
      "midi": 57,
      "hit": false,
      "t": 283656.5935000012,
      "d": 74.6268333333428,
      "v": 74
    },
    {
      "midi": 60,
      "hit": false,
      "t": 283656.5935000012,
      "d": 74.6268333333428,
      "v": 79
    },
    {
      "midi": 65,
      "hit": false,
      "t": 283656.5935000012,
      "d": 82.08951666665962,
      "v": 79
    },
    {
      "midi": 60,
      "hit": false,
      "t": 284104.3545000012,
      "d": 111.9402499999851,
      "v": 76
    },
    {
      "midi": 57,
      "hit": false,
      "t": 284104.3545000012,
      "d": 134.32829999999376,
      "v": 72
    },
    {
      "midi": 65,
      "hit": false,
      "t": 284104.3545000012,
      "d": 134.32829999999376,
      "v": 74
    },
    {
      "midi": 82,
      "hit": false,
      "t": 284328.23500000016,
      "d": 223.8805000000284,
      "v": 83
    },
    {
      "midi": 84,
      "hit": false,
      "t": 284552.1155000002,
      "d": 223.8805000000284,
      "v": 73
    },
    {
      "midi": 85,
      "hit": false,
      "t": 284775.9960000002,
      "d": 447.7609999999986,
      "v": 83
    },
    {
      "midi": 54,
      "hit": false,
      "t": 284775.9960000012,
      "d": 201.49245000001974,
      "v": 76
    },
    {
      "midi": 58,
      "hit": false,
      "t": 284775.9960000012,
      "d": 208.95513333333656,
      "v": 72
    },
    {
      "midi": 63,
      "hit": false,
      "t": 284775.9960000012,
      "d": 208.95513333333656,
      "v": 72
    },
    {
      "midi": 78,
      "hit": false,
      "t": 285223.7570000002,
      "d": 223.8805000000284,
      "v": 80
    },
    {
      "midi": 78,
      "hit": false,
      "t": 285447.63750000024,
      "d": 671.641500000027,
      "v": 86
    },
    {
      "midi": 54,
      "hit": false,
      "t": 285447.63750000123,
      "d": 111.9402499999851,
      "v": 80
    },
    {
      "midi": 63,
      "hit": false,
      "t": 285895.39850000123,
      "d": 291.0446499999962,
      "v": 72
    },
    {
      "midi": 58,
      "hit": false,
      "t": 285895.39850000123,
      "d": 298.507333333313,
      "v": 76
    },
    {
      "midi": 54,
      "hit": false,
      "t": 285895.39850000123,
      "d": 305.9700166666298,
      "v": 80
    },
    {
      "midi": 87,
      "hit": false,
      "t": 286567.04000000027,
      "d": 671.641500000027,
      "v": 88
    },
    {
      "midi": 55,
      "hit": false,
      "t": 286567.0400000012,
      "d": 126.86561666667694,
      "v": 69
    },
    {
      "midi": 58,
      "hit": false,
      "t": 286567.0400000012,
      "d": 134.32829999999376,
      "v": 78
    },
    {
      "midi": 86,
      "hit": false,
      "t": 287238.6815000003,
      "d": 671.641500000027,
      "v": 83
    },
    {
      "midi": 63,
      "hit": false,
      "t": 287238.68150000117,
      "d": 59.70146666665096,
      "v": 74
    },
    {
      "midi": 55,
      "hit": false,
      "t": 287238.68150000117,
      "d": 74.6268333333428,
      "v": 76
    },
    {
      "midi": 55,
      "hit": false,
      "t": 287686.44250000117,
      "d": 52.23878333333414,
      "v": 72
    },
    {
      "midi": 58,
      "hit": false,
      "t": 287686.44250000117,
      "d": 59.70146666665096,
      "v": 76
    },
    {
      "midi": 63,
      "hit": false,
      "t": 287686.44250000117,
      "d": 97.01488333329326,
      "v": 80
    },
    {
      "midi": 82,
      "hit": false,
      "t": 287910.3230000003,
      "d": 671.641500000027,
      "v": 86
    },
    {
      "midi": 58,
      "hit": false,
      "t": 288358.08400000114,
      "d": 164.17903333331924,
      "v": 70
    },
    {
      "midi": 62,
      "hit": false,
      "t": 288358.08400000114,
      "d": 164.17903333331924,
      "v": 75
    },
    {
      "midi": 65,
      "hit": false,
      "t": 288358.08400000114,
      "d": 179.10440000001108,
      "v": 74
    },
    {
      "midi": 58,
      "hit": false,
      "t": 289029.72550000116,
      "d": 89.55219999997644,
      "v": 79
    },
    {
      "midi": 77,
      "hit": false,
      "t": 289253.6060000004,
      "d": 223.8805000000284,
      "v": 80
    },
    {
      "midi": 79,
      "hit": false,
      "t": 289477.4865000004,
      "d": 223.8805000000284,
      "v": 83
    },
    {
      "midi": 81,
      "hit": false,
      "t": 289701.36700000043,
      "d": 223.8805000000284,
      "v": 80
    },
    {
      "midi": 62,
      "hit": false,
      "t": 289701.36700000113,
      "d": 52.23878333333414,
      "v": 65
    },
    {
      "midi": 58,
      "hit": false,
      "t": 289701.36700000113,
      "d": 82.08951666665962,
      "v": 75
    },
    {
      "midi": 82,
      "hit": false,
      "t": 289925.24750000046,
      "d": 223.8805000000284,
      "v": 77
    },
    {
      "midi": 81,
      "hit": false,
      "t": 290149.1280000005,
      "d": 447.7609999999986,
      "v": 86
    },
    {
      "midi": 57,
      "hit": false,
      "t": 290149.12800000113,
      "d": 126.86561666667694,
      "v": 71
    },
    {
      "midi": 65,
      "hit": false,
      "t": 290149.12800000113,
      "d": 141.79098333336879,
      "v": 75
    },
    {
      "midi": 60,
      "hit": false,
      "t": 290149.12800000113,
      "d": 149.2536666666856,
      "v": 76
    },
    {
      "midi": 84,
      "hit": false,
      "t": 290596.8890000005,
      "d": 671.641500000027,
      "v": 83
    },
    {
      "midi": 65,
      "hit": false,
      "t": 290820.76950000116,
      "d": 52.23878333333414,
      "v": 71
    },
    {
      "midi": 60,
      "hit": false,
      "t": 290820.76950000116,
      "d": 82.08951666665962,
      "v": 78
    },
    {
      "midi": 57,
      "hit": false,
      "t": 290820.76950000116,
      "d": 89.55219999997644,
      "v": 74
    },
    {
      "midi": 82,
      "hit": false,
      "t": 291492.41100000055,
      "d": 223.8805000000284,
      "v": 83
    },
    {
      "midi": 65,
      "hit": false,
      "t": 291492.4110000011,
      "d": 37.3134166666423,
      "v": 79
    },
    {
      "midi": 60,
      "hit": false,
      "t": 291492.4110000011,
      "d": 52.23878333333414,
      "v": 68
    },
    {
      "midi": 57,
      "hit": false,
      "t": 291492.4110000011,
      "d": 59.70146666665096,
      "v": 74
    },
    {
      "midi": 84,
      "hit": false,
      "t": 291716.2915000006,
      "d": 223.8805000000284,
      "v": 73
    },
    {
      "midi": 85,
      "hit": false,
      "t": 291940.1720000006,
      "d": 447.7609999999986,
      "v": 83
    },
    {
      "midi": 54,
      "hit": false,
      "t": 291940.1720000011,
      "d": 208.95513333333656,
      "v": 78
    },
    {
      "midi": 58,
      "hit": false,
      "t": 291940.1720000011,
      "d": 208.95513333333656,
      "v": 76
    },
    {
      "midi": 63,
      "hit": false,
      "t": 291940.1720000011,
      "d": 216.41781666665338,
      "v": 74
    },
    {
      "midi": 78,
      "hit": false,
      "t": 292387.9330000006,
      "d": 223.8805000000284,
      "v": 83
    },
    {
      "midi": 78,
      "hit": false,
      "t": 292611.81350000063,
      "d": 671.641500000027,
      "v": 86
    },
    {
      "midi": 54,
      "hit": false,
      "t": 292611.8135000011,
      "d": 134.32829999999376,
      "v": 76
    },
    {
      "midi": 63,
      "hit": false,
      "t": 292611.8135000011,
      "d": 149.2536666666856,
      "v": 69
    },
    {
      "midi": 54,
      "hit": false,
      "t": 293283.4550000011,
      "d": 44.77610000001732,
      "v": 72
    },
    {
      "midi": 58,
      "hit": false,
      "t": 293283.4550000011,
      "d": 59.701466666709166,
      "v": 64
    },
    {
      "midi": 63,
      "hit": false,
      "t": 293283.4550000011,
      "d": 67.16415000002598,
      "v": 65
    },
    {
      "midi": 87,
      "hit": false,
      "t": 293731.21600000066,
      "d": 671.641500000027,
      "v": 83
    },
    {
      "midi": 58,
      "hit": false,
      "t": 293731.2160000011,
      "d": 201.49245000001974,
      "v": 79
    },
    {
      "midi": 63,
      "hit": false,
      "t": 293731.2160000011,
      "d": 208.95513333333656,
      "v": 84
    },
    {
      "midi": 89,
      "hit": false,
      "t": 294402.8575000007,
      "d": 2686.5659999999916,
      "v": 86
    },
    {
      "midi": 65,
      "hit": false,
      "t": 294402.8575000012,
      "d": 738.8056499999948,
      "v": 80
    },
    {
      "midi": 58,
      "hit": false,
      "t": 294402.8575000012,
      "d": 746.2683333333116,
      "v": 79
    },
    {
      "midi": 63,
      "hit": false,
      "t": 294402.8575000012,
      "d": 746.2683333333116,
      "v": 80
    }
  ]
}