{
  "jsonPath": "Rock/Rock-And-Roll/Jimmy Clanton/my-own-true-love.json",
  "path": "Rock\\Rock-And-Roll\\Jimmy Clanton\\My Own True Love.mid",
  "name": "My Own True Love",
  "difficulty": "Advanced",
  "bpm": 120,
  "notes": [
    {
      "midi": 68,
      "hit": false,
      "t": 10616.34,
      "d": 199.05637500000012,
      "v": 54
    },
    {
      "midi": 46,
      "hit": false,
      "t": 10616.34,
      "d": 213.80129166666666,
      "v": 52
    },
    {
      "midi": 50,
      "hit": false,
      "t": 10616.34,
      "d": 213.80129166666666,
      "v": 52
    },
    {
      "midi": 58,
      "hit": false,
      "t": 10616.34,
      "d": 213.80129166666666,
      "v": 52
    },
    {
      "midi": 62,
      "hit": false,
      "t": 10616.34,
      "d": 213.80129166666666,
      "v": 52
    },
    {
      "midi": 65,
      "hit": false,
      "t": 10616.34,
      "d": 213.80129166666666,
      "v": 41
    },
    {
      "midi": 70,
      "hit": false,
      "t": 10616.34,
      "d": 258.0360416666663,
      "v": 52
    },
    {
      "midi": 46,
      "hit": false,
      "t": 10911.238333333333,
      "d": 162.19408333333377,
      "v": 47
    },
    {
      "midi": 50,
      "hit": false,
      "t": 10911.238333333333,
      "d": 162.19408333333377,
      "v": 47
    },
    {
      "midi": 58,
      "hit": false,
      "t": 10911.238333333333,
      "d": 162.19408333333377,
      "v": 47
    },
    {
      "midi": 62,
      "hit": false,
      "t": 10911.238333333333,
      "d": 162.19408333333377,
      "v": 47
    },
    {
      "midi": 65,
      "hit": false,
      "t": 10911.238333333333,
      "d": 162.19408333333377,
      "v": 47
    },
    {
      "midi": 68,
      "hit": false,
      "t": 10911.238333333333,
      "d": 191.68391666666685,
      "v": 47
    },
    {
      "midi": 70,
      "hit": false,
      "t": 10911.238333333333,
      "d": 258.0360416666663,
      "v": 54
    },
    {
      "midi": 46,
      "hit": false,
      "t": 11206.136666666665,
      "d": 199.05637500000012,
      "v": 55
    },
    {
      "midi": 50,
      "hit": false,
      "t": 11206.136666666665,
      "d": 199.05637500000012,
      "v": 55
    },
    {
      "midi": 58,
      "hit": false,
      "t": 11206.136666666665,
      "d": 199.05637500000012,
      "v": 55
    },
    {
      "midi": 62,
      "hit": false,
      "t": 11206.136666666665,
      "d": 199.05637500000012,
      "v": 55
    },
    {
      "midi": 65,
      "hit": false,
      "t": 11206.136666666665,
      "d": 199.05637500000012,
      "v": 44
    },
    {
      "midi": 68,
      "hit": false,
      "t": 11206.136666666665,
      "d": 206.4288333333334,
      "v": 48
    },
    {
      "midi": 70,
      "hit": false,
      "t": 11206.136666666665,
      "d": 258.0360416666663,
      "v": 54
    },
    {
      "midi": 46,
      "hit": false,
      "t": 11501.034999999998,
      "d": 176.9390000000003,
      "v": 46
    },
    {
      "midi": 50,
      "hit": false,
      "t": 11501.034999999998,
      "d": 176.9390000000003,
      "v": 46
    },
    {
      "midi": 58,
      "hit": false,
      "t": 11501.034999999998,
      "d": 176.9390000000003,
      "v": 46
    },
    {
      "midi": 62,
      "hit": false,
      "t": 11501.034999999998,
      "d": 176.9390000000003,
      "v": 46
    },
    {
      "midi": 65,
      "hit": false,
      "t": 11501.034999999998,
      "d": 176.9390000000003,
      "v": 46
    },
    {
      "midi": 68,
      "hit": false,
      "t": 11501.034999999998,
      "d": 199.05637500000012,
      "v": 57
    },
    {
      "midi": 70,
      "hit": false,
      "t": 11501.034999999998,
      "d": 258.0360416666663,
      "v": 54
    },
    {
      "midi": 46,
      "hit": false,
      "t": 11795.93333333333,
      "d": 147.44916666666722,
      "v": 48
    },
    {
      "midi": 50,
      "hit": false,
      "t": 11795.93333333333,
      "d": 147.44916666666722,
      "v": 48
    },
    {
      "midi": 58,
      "hit": false,
      "t": 11795.93333333333,
      "d": 147.44916666666722,
      "v": 48
    },
    {
      "midi": 62,
      "hit": false,
      "t": 11795.93333333333,
      "d": 147.44916666666722,
      "v": 48
    },
    {
      "midi": 65,
      "hit": false,
      "t": 11795.93333333333,
      "d": 147.44916666666722,
      "v": 48
    },
    {
      "midi": 70,
      "hit": false,
      "t": 11795.93333333333,
      "d": 191.68391666666685,
      "v": 53
    },
    {
      "midi": 68,
      "hit": false,
      "t": 11795.93333333333,
      "d": 213.80129166666666,
      "v": 48
    },
    {
      "midi": 68,
      "hit": false,
      "t": 12090.831666666663,
      "d": 154.8216250000005,
      "v": 47
    },
    {
      "midi": 46,
      "hit": false,
      "t": 12090.831666666663,
      "d": 176.9390000000003,
      "v": 49
    },
    {
      "midi": 50,
      "hit": false,
      "t": 12090.831666666663,
      "d": 176.9390000000003,
      "v": 49
    },
    {
      "midi": 58,
      "hit": false,
      "t": 12090.831666666663,
      "d": 176.9390000000003,
      "v": 49
    },
    {
      "midi": 62,
      "hit": false,
      "t": 12090.831666666663,
      "d": 176.9390000000003,
      "v": 49
    },
    {
      "midi": 65,
      "hit": false,
      "t": 12090.831666666663,
      "d": 176.9390000000003,
      "v": 49
    },
    {
      "midi": 70,
      "hit": false,
      "t": 12090.831666666663,
      "d": 199.05637500000012,
      "v": 55
    },
    {
      "midi": 68,
      "hit": false,
      "t": 12385.729999999996,
      "d": 191.68391666666685,
      "v": 63
    },
    {
      "midi": 46,
      "hit": false,
      "t": 12385.729999999996,
      "d": 206.4288333333334,
      "v": 57
    },
    {
      "midi": 50,
      "hit": false,
      "t": 12385.729999999996,
      "d": 206.4288333333334,
      "v": 57
    },
    {
      "midi": 58,
      "hit": false,
      "t": 12385.729999999996,
      "d": 206.4288333333334,
      "v": 57
    },
    {
      "midi": 62,
      "hit": false,
      "t": 12385.729999999996,
      "d": 206.4288333333334,
      "v": 57
    },
    {
      "midi": 65,
      "hit": false,
      "t": 12385.729999999996,
      "d": 206.4288333333334,
      "v": 46
    },
    {
      "midi": 70,
      "hit": false,
      "t": 12385.729999999996,
      "d": 213.80129166666666,
      "v": 55
    },
    {
      "midi": 46,
      "hit": false,
      "t": 12680.628333333329,
      "d": 184.31145833333358,
      "v": 49
    },
    {
      "midi": 50,
      "hit": false,
      "t": 12680.628333333329,
      "d": 184.31145833333358,
      "v": 49
    },
    {
      "midi": 58,
      "hit": false,
      "t": 12680.628333333329,
      "d": 184.31145833333358,
      "v": 49
    },
    {
      "midi": 62,
      "hit": false,
      "t": 12680.628333333329,
      "d": 184.31145833333358,
      "v": 49
    },
    {
      "midi": 70,
      "hit": false,
      "t": 12680.628333333329,
      "d": 199.05637500000012,
      "v": 43
    },
    {
      "midi": 68,
      "hit": false,
      "t": 12680.628333333329,
      "d": 213.80129166666666,
      "v": 56
    },
    {
      "midi": 65,
      "hit": false,
      "t": 12680.628333333329,
      "d": 235.91866666666647,
      "v": 49
    },
    {
      "midi": 68,
      "hit": false,
      "t": 12975.526666666661,
      "d": 176.9390000000003,
      "v": 54
    },
    {
      "midi": 46,
      "hit": false,
      "t": 12975.526666666661,
      "d": 206.4288333333334,
      "v": 57
    },
    {
      "midi": 50,
      "hit": false,
      "t": 12975.526666666661,
      "d": 206.4288333333334,
      "v": 57
    },
    {
      "midi": 58,
      "hit": false,
      "t": 12975.526666666661,
      "d": 206.4288333333334,
      "v": 57
    },
    {
      "midi": 62,
      "hit": false,
      "t": 12975.526666666661,
      "d": 206.4288333333334,
      "v": 57
    },
    {
      "midi": 65,
      "hit": false,
      "t": 12975.526666666661,
      "d": 206.4288333333334,
      "v": 48
    },
    {
      "midi": 70,
      "hit": false,
      "t": 12975.526666666661,
      "d": 221.17374999999993,
      "v": 44
    },
    {
      "midi": 46,
      "hit": false,
      "t": 13270.424999999994,
      "d": 169.56654166666704,
      "v": 49
    },
    {
      "midi": 58,
      "hit": false,
      "t": 13270.424999999994,
      "d": 169.56654166666704,
      "v": 49
    },
    {
      "midi": 62,
      "hit": false,
      "t": 13270.424999999994,
      "d": 169.56654166666704,
      "v": 49
    },
    {
      "midi": 65,
      "hit": false,
      "t": 13270.424999999994,
      "d": 169.56654166666704,
      "v": 49
    },
    {
      "midi": 50,
      "hit": false,
      "t": 13270.424999999994,
      "d": 176.9390000000003,
      "v": 49
    },
    {
      "midi": 68,
      "hit": false,
      "t": 13270.424999999994,
      "d": 176.9390000000003,
      "v": 61
    },
    {
      "midi": 70,
      "hit": false,
      "t": 13270.424999999994,
      "d": 213.80129166666666,
      "v": 57
    },
    {
      "midi": 46,
      "hit": false,
      "t": 13565.323333333326,
      "d": 154.8216250000005,
      "v": 58
    },
    {
      "midi": 50,
      "hit": false,
      "t": 13565.323333333326,
      "d": 154.8216250000005,
      "v": 58
    },
    {
      "midi": 58,
      "hit": false,
      "t": 13565.323333333326,
      "d": 154.8216250000005,
      "v": 58
    },
    {
      "midi": 62,
      "hit": false,
      "t": 13565.323333333326,
      "d": 154.8216250000005,
      "v": 58
    },
    {
      "midi": 65,
      "hit": false,
      "t": 13565.323333333326,
      "d": 154.8216250000005,
      "v": 49
    },
    {
      "midi": 68,
      "hit": false,
      "t": 13565.323333333326,
      "d": 176.9390000000003,
      "v": 63
    },
    {
      "midi": 70,
      "hit": false,
      "t": 13565.323333333326,
      "d": 235.91866666666647,
      "v": 55
    },
    {
      "midi": 46,
      "hit": false,
      "t": 13860.221666666659,
      "d": 169.56654166666704,
      "v": 45
    },
    {
      "midi": 50,
      "hit": false,
      "t": 13860.221666666659,
      "d": 169.56654166666704,
      "v": 45
    },
    {
      "midi": 58,
      "hit": false,
      "t": 13860.221666666659,
      "d": 169.56654166666704,
      "v": 45
    },
    {
      "midi": 70,
      "hit": false,
      "t": 13860.221666666659,
      "d": 199.05637500000012,
      "v": 58
    },
    {
      "midi": 62,
      "hit": false,
      "t": 13860.221666666659,
      "d": 228.5462083333332,
      "v": 45
    },
    {
      "midi": 68,
      "hit": false,
      "t": 13860.221666666659,
      "d": 228.5462083333332,
      "v": 54
    },
    {
      "midi": 65,
      "hit": false,
      "t": 13860.221666666659,
      "d": 250.663583333333,
      "v": 45
    },
    {
      "midi": 50,
      "hit": false,
      "t": 14155.119999999992,
      "d": 206.4288333333334,
      "v": 57
    },
    {
      "midi": 46,
      "hit": false,
      "t": 14155.119999999992,
      "d": 243.29112499999974,
      "v": 58
    },
    {
      "midi": 58,
      "hit": false,
      "t": 14155.119999999992,
      "d": 243.29112499999974,
      "v": 55
    },
    {
      "midi": 68,
      "hit": false,
      "t": 14155.119999999992,
      "d": 243.29112499999974,
      "v": 61
    },
    {
      "midi": 70,
      "hit": false,
      "t": 14155.119999999992,
      "d": 243.29112499999974,
      "v": 57
    },
    {
      "midi": 62,
      "hit": false,
      "t": 14155.119999999992,
      "d": 265.40849999999955,
      "v": 45
    },
    {
      "midi": 65,
      "hit": false,
      "t": 14155.119999999992,
      "d": 265.40849999999955,
      "v": 45
    },
    {
      "midi": 70,
      "hit": false,
      "t": 17693.89999999999,
      "d": 641.403875,
      "v": 41
    },
    {
      "midi": 46,
      "hit": false,
      "t": 17693.89999999999,
      "d": 678.2661666666681,
      "v": 41
    },
    {
      "midi": 51,
      "hit": false,
      "t": 17693.89999999999,
      "d": 678.2661666666681,
      "v": 41
    },
    {
      "midi": 55,
      "hit": false,
      "t": 17693.89999999999,
      "d": 678.2661666666681,
      "v": 41
    },
    {
      "midi": 58,
      "hit": false,
      "t": 17693.89999999999,
      "d": 678.2661666666681,
      "v": 41
    },
    {
      "midi": 63,
      "hit": false,
      "t": 17693.89999999999,
      "d": 678.2661666666681,
      "v": 32
    },
    {
      "midi": 67,
      "hit": false,
      "t": 17693.89999999999,
      "d": 729.8733750000029,
      "v": 43
    },
    {
      "midi": 46,
      "hit": false,
      "t": 18578.594999999994,
      "d": 176.9389999999985,
      "v": 46
    },
    {
      "midi": 51,
      "hit": false,
      "t": 18578.594999999994,
      "d": 176.9389999999985,
      "v": 46
    },
    {
      "midi": 55,
      "hit": false,
      "t": 18578.594999999994,
      "d": 176.9389999999985,
      "v": 46
    },
    {
      "midi": 58,
      "hit": false,
      "t": 18578.594999999994,
      "d": 176.9389999999985,
      "v": 46
    },
    {
      "midi": 63,
      "hit": false,
      "t": 18578.594999999994,
      "d": 176.9389999999985,
      "v": 46
    },
    {
      "midi": 67,
      "hit": false,
      "t": 18578.594999999994,
      "d": 199.05637500000012,
      "v": 57
    },
    {
      "midi": 70,
      "hit": false,
      "t": 18578.594999999994,
      "d": 258.0360416666663,
      "v": 54
    },
    {
      "midi": 46,
      "hit": false,
      "t": 18873.49333333333,
      "d": 147.4491666666654,
      "v": 48
    },
    {
      "midi": 51,
      "hit": false,
      "t": 18873.49333333333,
      "d": 147.4491666666654,
      "v": 48
    },
    {
      "midi": 55,
      "hit": false,
      "t": 18873.49333333333,
      "d": 147.4491666666654,
      "v": 48
    },
    {
      "midi": 58,
      "hit": false,
      "t": 18873.49333333333,
      "d": 147.4491666666654,
      "v": 48
    },
    {
      "midi": 63,
      "hit": false,
      "t": 18873.49333333333,
      "d": 147.4491666666654,
      "v": 48
    },
    {
      "midi": 70,
      "hit": false,
      "t": 18873.49333333333,
      "d": 191.68391666666503,
      "v": 53
    },
    {
      "midi": 67,
      "hit": false,
      "t": 18873.49333333333,
      "d": 213.80129166666666,
      "v": 48
    },
    {
      "midi": 67,
      "hit": false,
      "t": 19168.391666666663,
      "d": 154.8216250000005,
      "v": 47
    },
    {
      "midi": 46,
      "hit": false,
      "t": 19168.391666666663,
      "d": 176.93900000000212,
      "v": 49
    },
    {
      "midi": 51,
      "hit": false,
      "t": 19168.391666666663,
      "d": 176.93900000000212,
      "v": 49
    },
    {
      "midi": 55,
      "hit": false,
      "t": 19168.391666666663,
      "d": 176.93900000000212,
      "v": 49
    },
    {
      "midi": 58,
      "hit": false,
      "t": 19168.391666666663,
      "d": 176.93900000000212,
      "v": 49
    },
    {
      "midi": 63,
      "hit": false,
      "t": 19168.391666666663,
      "d": 176.93900000000212,
      "v": 49
    },
    {
      "midi": 70,
      "hit": false,
      "t": 19168.391666666663,
      "d": 199.05637500000375,
      "v": 55
    },
    {
      "midi": 68,
      "hit": false,
      "t": 19463.29,
      "d": 191.68391666666503,
      "v": 63
    },
    {
      "midi": 48,
      "hit": false,
      "t": 19463.29,
      "d": 206.42883333333157,
      "v": 57
    },
    {
      "midi": 51,
      "hit": false,
      "t": 19463.29,
      "d": 206.42883333333157,
      "v": 57
    },
    {
      "midi": 56,
      "hit": false,
      "t": 19463.29,
      "d": 206.42883333333157,
      "v": 57
    },
    {
      "midi": 60,
      "hit": false,
      "t": 19463.29,
      "d": 206.42883333333157,
      "v": 57
    },
    {
      "midi": 63,
      "hit": false,
      "t": 19463.29,
      "d": 206.42883333333157,
      "v": 46
    },
    {
      "midi": 72,
      "hit": false,
      "t": 19463.29,
      "d": 213.80129166666666,
      "v": 55
    },
    {
      "midi": 48,
      "hit": false,
      "t": 19758.188333333335,
      "d": 184.31145833333358,
      "v": 49
    },
    {
      "midi": 51,
      "hit": false,
      "t": 19758.188333333335,
      "d": 184.31145833333358,
      "v": 49
    },
    {
      "midi": 56,
      "hit": false,
      "t": 19758.188333333335,
      "d": 184.31145833333358,
      "v": 49
    },
    {
      "midi": 60,
      "hit": false,
      "t": 19758.188333333335,
      "d": 184.31145833333358,
      "v": 49
    },
    {
      "midi": 72,
      "hit": false,
      "t": 19758.188333333335,
      "d": 199.05637500000012,
      "v": 43
    },
    {
      "midi": 68,
      "hit": false,
      "t": 19758.188333333335,
      "d": 213.80129166666666,
      "v": 56
    },
    {
      "midi": 63,
      "hit": false,
      "t": 19758.188333333335,
      "d": 235.9186666666683,
      "v": 49
    },
    {
      "midi": 68,
      "hit": false,
      "t": 20053.08666666667,
      "d": 176.9389999999985,
      "v": 54
    },
    {
      "midi": 48,
      "hit": false,
      "t": 20053.08666666667,
      "d": 206.42883333333157,
      "v": 57
    },
    {
      "midi": 51,
      "hit": false,
      "t": 20053.08666666667,
      "d": 206.42883333333157,
      "v": 57
    },
    {
      "midi": 56,
      "hit": false,
      "t": 20053.08666666667,
      "d": 206.42883333333157,
      "v": 57
    },
    {
      "midi": 60,
      "hit": false,
      "t": 20053.08666666667,
      "d": 206.42883333333157,
      "v": 57
    },
    {
      "midi": 63,
      "hit": false,
      "t": 20053.08666666667,
      "d": 206.42883333333157,
      "v": 48
    },
    {
      "midi": 72,
      "hit": false,
      "t": 20053.08666666667,
      "d": 221.1737499999981,
      "v": 44
    },
    {
      "midi": 48,
      "hit": false,
      "t": 20347.985,
      "d": 169.56654166666704,
      "v": 49
    },
    {
      "midi": 56,
      "hit": false,
      "t": 20347.985,
      "d": 169.56654166666704,
      "v": 49
    },
    {
      "midi": 60,
      "hit": false,
      "t": 20347.985,
      "d": 169.56654166666704,
      "v": 49
    },
    {
      "midi": 63,
      "hit": false,
      "t": 20347.985,
      "d": 169.56654166666704,
      "v": 49
    },
    {
      "midi": 51,
      "hit": false,
      "t": 20347.985,
      "d": 176.93900000000212,
      "v": 49
    },
    {
      "midi": 68,
      "hit": false,
      "t": 20347.985,
      "d": 176.93900000000212,
      "v": 61
    },
    {
      "midi": 72,
      "hit": false,
      "t": 20347.985,
      "d": 213.8012916666703,
      "v": 57
    },
    {
      "midi": 48,
      "hit": false,
      "t": 20642.88333333334,
      "d": 154.8216250000005,
      "v": 58
    },
    {
      "midi": 51,
      "hit": false,
      "t": 20642.88333333334,
      "d": 154.8216250000005,
      "v": 58
    },
    {
      "midi": 56,
      "hit": false,
      "t": 20642.88333333334,
      "d": 154.8216250000005,
      "v": 58
    },
    {
      "midi": 60,
      "hit": false,
      "t": 20642.88333333334,
      "d": 154.8216250000005,
      "v": 58
    },
    {
      "midi": 63,
      "hit": false,
      "t": 20642.88333333334,
      "d": 154.8216250000005,
      "v": 49
    },
    {
      "midi": 68,
      "hit": false,
      "t": 20642.88333333334,
      "d": 176.93900000000212,
      "v": 63
    },
    {
      "midi": 72,
      "hit": false,
      "t": 20642.88333333334,
      "d": 235.9186666666683,
      "v": 55
    },
    {
      "midi": 48,
      "hit": false,
      "t": 20937.781666666673,
      "d": 169.56654166666704,
      "v": 45
    },
    {
      "midi": 51,
      "hit": false,
      "t": 20937.781666666673,
      "d": 169.56654166666704,
      "v": 45
    },
    {
      "midi": 56,
      "hit": false,
      "t": 20937.781666666673,
      "d": 169.56654166666704,
      "v": 45
    },
    {
      "midi": 72,
      "hit": false,
      "t": 20937.781666666673,
      "d": 199.05637500000012,
      "v": 58
    },
    {
      "midi": 60,
      "hit": false,
      "t": 20937.781666666673,
      "d": 228.5462083333332,
      "v": 45
    },
    {
      "midi": 68,
      "hit": false,
      "t": 20937.781666666673,
      "d": 228.5462083333332,
      "v": 54
    },
    {
      "midi": 63,
      "hit": false,
      "t": 20937.781666666673,
      "d": 250.66358333333483,
      "v": 45
    },
    {
      "midi": 58,
      "hit": false,
      "t": 21232.680000000008,
      "d": 243.29112499999974,
      "v": 55
    },
    {
      "midi": 67,
      "hit": false,
      "t": 21232.680000000008,
      "d": 243.29112499999974,
      "v": 61
    },
    {
      "midi": 70,
      "hit": false,
      "t": 21232.680000000008,
      "d": 243.29112499999974,
      "v": 57
    },
    {
      "midi": 46,
      "hit": false,
      "t": 21232.680000000008,
      "d": 265.40850000000137,
      "v": 58
    },
    {
      "midi": 55,
      "hit": false,
      "t": 21232.680000000008,
      "d": 265.40850000000137,
      "v": 45
    },
    {
      "midi": 63,
      "hit": false,
      "t": 21232.680000000008,
      "d": 265.40850000000137,
      "v": 45
    },
    {
      "midi": 51,
      "hit": false,
      "t": 21232.680000000008,
      "d": 287.525875000003,
      "v": 57
    },
    {
      "midi": 46,
      "hit": false,
      "t": 24771.46000000001,
      "d": 213.80129166666666,
      "v": 52
    },
    {
      "midi": 50,
      "hit": false,
      "t": 24771.46000000001,
      "d": 213.80129166666666,
      "v": 52
    },
    {
      "midi": 58,
      "hit": false,
      "t": 24771.46000000001,
      "d": 213.80129166666666,
      "v": 52
    },
    {
      "midi": 62,
      "hit": false,
      "t": 24771.46000000001,
      "d": 213.80129166666666,
      "v": 52
    },
    {
      "midi": 65,
      "hit": false,
      "t": 24771.46000000001,
      "d": 213.80129166666666,
      "v": 41
    },
    {
      "midi": 68,
      "hit": false,
      "t": 24771.46000000001,
      "d": 213.80129166666666,
      "v": 41
    },
    {
      "midi": 70,
      "hit": false,
      "t": 24771.46000000001,
      "d": 258.0360416666663,
      "v": 52
    },
    {
      "midi": 46,
      "hit": false,
      "t": 25066.358333333344,
      "d": 162.19408333333195,
      "v": 47
    },
    {
      "midi": 50,
      "hit": false,
      "t": 25066.358333333344,
      "d": 162.19408333333195,
      "v": 47
    },
    {
      "midi": 58,
      "hit": false,
      "t": 25066.358333333344,
      "d": 162.19408333333195,
      "v": 47
    },
    {
      "midi": 62,
      "hit": false,
      "t": 25066.358333333344,
      "d": 162.19408333333195,
      "v": 47
    },
    {
      "midi": 65,
      "hit": false,
      "t": 25066.358333333344,
      "d": 162.19408333333195,
      "v": 47
    },
    {
      "midi": 68,
      "hit": false,
      "t": 25066.358333333344,
      "d": 162.19408333333195,
      "v": 47
    },
    {
      "midi": 70,
      "hit": false,
      "t": 25066.358333333344,
      "d": 258.0360416666663,
      "v": 54
    },
    {
      "midi": 46,
      "hit": false,
      "t": 25361.25666666668,
      "d": 199.05637500000012,
      "v": 55
    },
    {
      "midi": 50,
      "hit": false,
      "t": 25361.25666666668,
      "d": 199.05637500000012,
      "v": 55
    },
    {
      "midi": 58,
      "hit": false,
      "t": 25361.25666666668,
      "d": 199.05637500000012,
      "v": 55
    },
    {
      "midi": 62,
      "hit": false,
      "t": 25361.25666666668,
      "d": 199.05637500000012,
      "v": 55
    },
    {
      "midi": 65,
      "hit": false,
      "t": 25361.25666666668,
      "d": 199.05637500000012,
      "v": 44
    },
    {
      "midi": 68,
      "hit": false,
      "t": 25361.25666666668,
      "d": 199.05637500000012,
      "v": 44
    },
    {
      "midi": 70,
      "hit": false,
      "t": 25361.25666666668,
      "d": 258.0360416666663,
      "v": 54
    },
    {
      "midi": 46,
      "hit": false,
      "t": 25656.155000000013,
      "d": 176.9389999999985,
      "v": 46
    },
    {
      "midi": 50,
      "hit": false,
      "t": 25656.155000000013,
      "d": 176.9389999999985,
      "v": 46
    },
    {
      "midi": 58,
      "hit": false,
      "t": 25656.155000000013,
      "d": 176.9389999999985,
      "v": 46
    },
    {
      "midi": 62,
      "hit": false,
      "t": 25656.155000000013,
      "d": 176.9389999999985,
      "v": 46
    },
    {
      "midi": 65,
      "hit": false,
      "t": 25656.155000000013,
      "d": 176.9389999999985,
      "v": 46
    },
    {
      "midi": 68,
      "hit": false,
      "t": 25656.155000000013,
      "d": 176.9389999999985,
      "v": 46
    },
    {
      "midi": 70,
      "hit": false,
      "t": 25656.155000000013,
      "d": 258.0360416666663,
      "v": 54
    },
    {
      "midi": 46,
      "hit": false,
      "t": 25951.053333333348,
      "d": 147.4491666666654,
      "v": 48
    },
    {
      "midi": 50,
      "hit": false,
      "t": 25951.053333333348,
      "d": 147.4491666666654,
      "v": 48
    },
    {
      "midi": 58,
      "hit": false,
      "t": 25951.053333333348,
      "d": 147.4491666666654,
      "v": 48
    },
    {
      "midi": 62,
      "hit": false,
      "t": 25951.053333333348,
      "d": 147.4491666666654,
      "v": 48
    },
    {
      "midi": 65,
      "hit": false,
      "t": 25951.053333333348,
      "d": 147.4491666666654,
      "v": 48
    },
    {
      "midi": 68,
      "hit": false,
      "t": 25951.053333333348,
      "d": 147.4491666666654,
      "v": 48
    },
    {
      "midi": 70,
      "hit": false,
      "t": 25951.053333333348,
      "d": 191.68391666666503,
      "v": 53
    },
    {
      "midi": 46,
      "hit": false,
      "t": 26245.95166666668,
      "d": 176.9389999999985,
      "v": 49
    },
    {
      "midi": 50,
      "hit": false,
      "t": 26245.95166666668,
      "d": 176.9389999999985,
      "v": 49
    },
    {
      "midi": 58,
      "hit": false,
      "t": 26245.95166666668,
      "d": 176.9389999999985,
      "v": 49
    },
    {
      "midi": 62,
      "hit": false,
      "t": 26245.95166666668,
      "d": 176.9389999999985,
      "v": 49
    },
    {
      "midi": 65,
      "hit": false,
      "t": 26245.95166666668,
      "d": 176.9389999999985,
      "v": 49
    },
    {
      "midi": 68,
      "hit": false,
      "t": 26245.95166666668,
      "d": 176.9389999999985,
      "v": 49
    },
    {
      "midi": 70,
      "hit": false,
      "t": 26245.95166666668,
      "d": 199.05637500000012,
      "v": 55
    },
    {
      "midi": 46,
      "hit": false,
      "t": 26540.850000000013,
      "d": 206.42883333333157,
      "v": 57
    },
    {
      "midi": 50,
      "hit": false,
      "t": 26540.850000000013,
      "d": 206.42883333333157,
      "v": 57
    },
    {
      "midi": 58,
      "hit": false,
      "t": 26540.850000000013,
      "d": 206.42883333333157,
      "v": 57
    },
    {
      "midi": 62,
      "hit": false,
      "t": 26540.850000000013,
      "d": 206.42883333333157,
      "v": 57
    },
    {
      "midi": 65,
      "hit": false,
      "t": 26540.850000000013,
      "d": 206.42883333333157,
      "v": 46
    },
    {
      "midi": 68,
      "hit": false,
      "t": 26540.850000000013,
      "d": 206.42883333333157,
      "v": 46
    },
    {
      "midi": 70,
      "hit": false,
      "t": 26540.850000000013,
      "d": 213.80129166666666,
      "v": 55
    },
    {
      "midi": 46,
      "hit": false,
      "t": 26835.748333333348,
      "d": 184.31145833333358,
      "v": 49
    },
    {
      "midi": 50,
      "hit": false,
      "t": 26835.748333333348,
      "d": 184.31145833333358,
      "v": 49
    },
    {
      "midi": 58,
      "hit": false,
      "t": 26835.748333333348,
      "d": 184.31145833333358,
      "v": 49
    },
    {
      "midi": 62,
      "hit": false,
      "t": 26835.748333333348,
      "d": 184.31145833333358,
      "v": 49
    },
    {
      "midi": 70,
      "hit": false,
      "t": 26835.748333333348,
      "d": 199.05637500000012,
      "v": 43
    },
    {
      "midi": 65,
      "hit": false,
      "t": 26835.748333333348,
      "d": 235.9186666666683,
      "v": 49
    },
    {
      "midi": 68,
      "hit": false,
      "t": 26835.748333333348,
      "d": 235.9186666666683,
      "v": 49
    },
    {
      "midi": 46,
      "hit": false,
      "t": 27130.646666666682,
      "d": 206.42883333333157,
      "v": 57
    },
    {
      "midi": 50,
      "hit": false,
      "t": 27130.646666666682,
      "d": 206.42883333333157,
      "v": 57
    },
    {
      "midi": 58,
      "hit": false,
      "t": 27130.646666666682,
      "d": 206.42883333333157,
      "v": 57
    },
    {
      "midi": 62,
      "hit": false,
      "t": 27130.646666666682,
      "d": 206.42883333333157,
      "v": 57
    },
    {
      "midi": 65,
      "hit": false,
      "t": 27130.646666666682,
      "d": 206.42883333333157,
      "v": 48
    },
    {
      "midi": 68,
      "hit": false,
      "t": 27130.646666666682,
      "d": 206.42883333333157,
      "v": 48
    },
    {
      "midi": 70,
      "hit": false,
      "t": 27130.646666666682,
      "d": 221.1737499999981,
      "v": 44
    },
    {
      "midi": 46,
      "hit": false,
      "t": 27425.545000000013,
      "d": 169.56654166666704,
      "v": 49
    },
    {
      "midi": 58,
      "hit": false,
      "t": 27425.545000000013,
      "d": 169.56654166666704,
      "v": 49
    },
    {
      "midi": 62,
      "hit": false,
      "t": 27425.545000000013,
      "d": 169.56654166666704,
      "v": 49
    },
    {
      "midi": 65,
      "hit": false,
      "t": 27425.545000000013,
      "d": 169.56654166666704,
      "v": 49
    },
    {
      "midi": 68,
      "hit": false,
      "t": 27425.545000000013,
      "d": 169.56654166666704,
      "v": 49
    },
    {
      "midi": 50,
      "hit": false,
      "t": 27425.545000000013,
      "d": 176.93900000000212,
      "v": 49
    },
    {
      "midi": 70,
      "hit": false,
      "t": 27425.545000000013,
      "d": 213.8012916666703,
      "v": 57
    },
    {
      "midi": 46,
      "hit": false,
      "t": 27720.44333333335,
      "d": 154.8216250000005,
      "v": 58
    },
    {
      "midi": 50,
      "hit": false,
      "t": 27720.44333333335,
      "d": 154.8216250000005,
      "v": 58
    },
    {
      "midi": 58,
      "hit": false,
      "t": 27720.44333333335,
      "d": 154.8216250000005,
      "v": 58
    },
    {
      "midi": 62,
      "hit": false,
      "t": 27720.44333333335,
      "d": 154.8216250000005,
      "v": 58
    },
    {
      "midi": 65,
      "hit": false,
      "t": 27720.44333333335,
      "d": 154.8216250000005,
      "v": 49
    },
    {
      "midi": 68,
      "hit": false,
      "t": 27720.44333333335,
      "d": 154.8216250000005,
      "v": 49
    },
    {
      "midi": 70,
      "hit": false,
      "t": 27720.44333333335,
      "d": 235.9186666666683,
      "v": 55
    },
    {
      "midi": 46,
      "hit": false,
      "t": 28015.341666666685,
      "d": 169.56654166666704,
      "v": 45
    },
    {
      "midi": 50,
      "hit": false,
      "t": 28015.341666666685,
      "d": 169.56654166666704,
      "v": 45
    },
    {
      "midi": 58,
      "hit": false,
      "t": 28015.341666666685,
      "d": 169.56654166666704,
      "v": 45
    },
    {
      "midi": 70,
      "hit": false,
      "t": 28015.341666666685,
      "d": 199.05637500000012,
      "v": 58
    },
    {
      "midi": 62,
      "hit": false,
      "t": 28015.341666666685,
      "d": 228.5462083333332,
      "v": 45
    },
    {
      "midi": 65,
      "hit": false,
      "t": 28015.341666666685,
      "d": 250.66358333333483,
      "v": 45
    },
    {
      "midi": 68,
      "hit": false,
      "t": 28015.341666666685,
      "d": 250.66358333333483,
      "v": 45
    },
    {
      "midi": 46,
      "hit": false,
      "t": 28310.24000000002,
      "d": 213.80129166666666,
      "v": 52
    },
    {
      "midi": 50,
      "hit": false,
      "t": 28310.24000000002,
      "d": 213.80129166666666,
      "v": 52
    },
    {
      "midi": 58,
      "hit": false,
      "t": 28310.24000000002,
      "d": 213.80129166666666,
      "v": 52
    },
    {
      "midi": 62,
      "hit": false,
      "t": 28310.24000000002,
      "d": 213.80129166666666,
      "v": 52
    },
    {
      "midi": 65,
      "hit": false,
      "t": 28310.24000000002,
      "d": 213.80129166666666,
      "v": 41
    },
    {
      "midi": 68,
      "hit": false,
      "t": 28310.24000000002,
      "d": 213.80129166666666,
      "v": 41
    },
    {
      "midi": 70,
      "hit": false,
      "t": 28310.24000000002,
      "d": 258.0360416666663,
      "v": 52
    },
    {
      "midi": 46,
      "hit": false,
      "t": 28605.138333333354,
      "d": 162.19408333333195,
      "v": 47
    },
    {
      "midi": 50,
      "hit": false,
      "t": 28605.138333333354,
      "d": 162.19408333333195,
      "v": 47
    },
    {
      "midi": 58,
      "hit": false,
      "t": 28605.138333333354,
      "d": 162.19408333333195,
      "v": 47
    },
    {
      "midi": 62,
      "hit": false,
      "t": 28605.138333333354,
      "d": 162.19408333333195,
      "v": 47
    },
    {
      "midi": 65,
      "hit": false,
      "t": 28605.138333333354,
      "d": 162.19408333333195,
      "v": 47
    },
    {
      "midi": 68,
      "hit": false,
      "t": 28605.138333333354,
      "d": 162.19408333333195,
      "v": 47
    },
    {
      "midi": 70,
      "hit": false,
      "t": 28605.138333333354,
      "d": 258.0360416666663,
      "v": 54
    },
    {
      "midi": 46,
      "hit": false,
      "t": 28900.03666666669,
      "d": 199.05637500000012,
      "v": 55
    },
    {
      "midi": 50,
      "hit": false,
      "t": 28900.03666666669,
      "d": 199.05637500000012,
      "v": 55
    },
    {
      "midi": 58,
      "hit": false,
      "t": 28900.03666666669,
      "d": 199.05637500000012,
      "v": 55
    },
    {
      "midi": 62,
      "hit": false,
      "t": 28900.03666666669,
      "d": 199.05637500000012,
      "v": 55
    },
    {
      "midi": 65,
      "hit": false,
      "t": 28900.03666666669,
      "d": 199.05637500000012,
      "v": 44
    },
    {
      "midi": 68,
      "hit": false,
      "t": 28900.03666666669,
      "d": 199.05637500000012,
      "v": 44
    },
    {
      "midi": 70,
      "hit": false,
      "t": 28900.03666666669,
      "d": 258.0360416666663,
      "v": 54
    },
    {
      "midi": 46,
      "hit": false,
      "t": 29194.935000000023,
      "d": 176.9389999999985,
      "v": 46
    },
    {
      "midi": 50,
      "hit": false,
      "t": 29194.935000000023,
      "d": 176.9389999999985,
      "v": 46
    },
    {
      "midi": 58,
      "hit": false,
      "t": 29194.935000000023,
      "d": 176.9389999999985,
      "v": 46
    },
    {
      "midi": 62,
      "hit": false,
      "t": 29194.935000000023,
      "d": 176.9389999999985,
      "v": 46
    },
    {
      "midi": 65,
      "hit": false,
      "t": 29194.935000000023,
      "d": 176.9389999999985,
      "v": 46
    },
    {
      "midi": 68,
      "hit": false,
      "t": 29194.935000000023,
      "d": 176.9389999999985,
      "v": 46
    },
    {
      "midi": 70,
      "hit": false,
      "t": 29194.935000000023,
      "d": 258.0360416666663,
      "v": 54
    },
    {
      "midi": 46,
      "hit": false,
      "t": 29489.833333333358,
      "d": 147.4491666666654,
      "v": 48
    },
    {
      "midi": 50,
      "hit": false,
      "t": 29489.833333333358,
      "d": 147.4491666666654,
      "v": 48
    },
    {
      "midi": 58,
      "hit": false,
      "t": 29489.833333333358,
      "d": 147.4491666666654,
      "v": 48
    },
    {
      "midi": 62,
      "hit": false,
      "t": 29489.833333333358,
      "d": 147.4491666666654,
      "v": 48
    },
    {
      "midi": 65,
      "hit": false,
      "t": 29489.833333333358,
      "d": 147.4491666666654,
      "v": 48
    },
    {
      "midi": 68,
      "hit": false,
      "t": 29489.833333333358,
      "d": 147.4491666666654,
      "v": 48
    },
    {
      "midi": 70,
      "hit": false,
      "t": 29489.833333333358,
      "d": 191.68391666666503,
      "v": 53
    },
    {
      "midi": 46,
      "hit": false,
      "t": 29784.73166666669,
      "d": 176.9389999999985,
      "v": 49
    },
    {
      "midi": 50,
      "hit": false,
      "t": 29784.73166666669,
      "d": 176.9389999999985,
      "v": 49
    },
    {
      "midi": 58,
      "hit": false,
      "t": 29784.73166666669,
      "d": 176.9389999999985,
      "v": 49
    },
    {
      "midi": 62,
      "hit": false,
      "t": 29784.73166666669,
      "d": 176.9389999999985,
      "v": 49
    },
    {
      "midi": 65,
      "hit": false,
      "t": 29784.73166666669,
      "d": 176.9389999999985,
      "v": 49
    },
    {
      "midi": 68,
      "hit": false,
      "t": 29784.73166666669,
      "d": 176.9389999999985,
      "v": 49
    },
    {
      "midi": 70,
      "hit": false,
      "t": 29784.73166666669,
      "d": 199.05637500000012,
      "v": 55
    },
    {
      "midi": 46,
      "hit": false,
      "t": 30079.630000000023,
      "d": 206.42883333333157,
      "v": 57
    },
    {
      "midi": 50,
      "hit": false,
      "t": 30079.630000000023,
      "d": 206.42883333333157,
      "v": 57
    },
    {
      "midi": 58,
      "hit": false,
      "t": 30079.630000000023,
      "d": 206.42883333333157,
      "v": 57
    },
    {
      "midi": 62,
      "hit": false,
      "t": 30079.630000000023,
      "d": 206.42883333333157,
      "v": 57
    },
    {
      "midi": 65,
      "hit": false,
      "t": 30079.630000000023,
      "d": 206.42883333333157,
      "v": 46
    },
    {
      "midi": 68,
      "hit": false,
      "t": 30079.630000000023,
      "d": 206.42883333333157,
      "v": 46
    },
    {
      "midi": 70,
      "hit": false,
      "t": 30079.630000000023,
      "d": 213.80129166666666,
      "v": 55
    },
    {
      "midi": 46,
      "hit": false,
      "t": 30374.528333333357,
      "d": 184.31145833333358,
      "v": 49
    },
    {
      "midi": 50,
      "hit": false,
      "t": 30374.528333333357,
      "d": 184.31145833333358,
      "v": 49
    },
    {
      "midi": 58,
      "hit": false,
      "t": 30374.528333333357,
      "d": 184.31145833333358,
      "v": 49
    },
    {
      "midi": 62,
      "hit": false,
      "t": 30374.528333333357,
      "d": 184.31145833333358,
      "v": 49
    },
    {
      "midi": 70,
      "hit": false,
      "t": 30374.528333333357,
      "d": 199.05637500000012,
      "v": 43
    },
    {
      "midi": 65,
      "hit": false,
      "t": 30374.528333333357,
      "d": 235.9186666666683,
      "v": 49
    },
    {
      "midi": 68,
      "hit": false,
      "t": 30374.528333333357,
      "d": 235.9186666666683,
      "v": 49
    },
    {
      "midi": 46,
      "hit": false,
      "t": 30669.42666666669,
      "d": 206.42883333333157,
      "v": 57
    },
    {
      "midi": 50,
      "hit": false,
      "t": 30669.42666666669,
      "d": 206.42883333333157,
      "v": 57
    },
    {
      "midi": 58,
      "hit": false,
      "t": 30669.42666666669,
      "d": 206.42883333333157,
      "v": 57
    },
    {
      "midi": 62,
      "hit": false,
      "t": 30669.42666666669,
      "d": 206.42883333333157,
      "v": 57
    },
    {
      "midi": 65,
      "hit": false,
      "t": 30669.42666666669,
      "d": 206.42883333333157,
      "v": 48
    },
    {
      "midi": 68,
      "hit": false,
      "t": 30669.42666666669,
      "d": 206.42883333333157,
      "v": 48
    },
    {
      "midi": 70,
      "hit": false,
      "t": 30669.42666666669,
      "d": 221.1737499999981,
      "v": 44
    },
    {
      "midi": 46,
      "hit": false,
      "t": 30964.325000000023,
      "d": 169.56654166666704,
      "v": 49
    },
    {
      "midi": 58,
      "hit": false,
      "t": 30964.325000000023,
      "d": 169.56654166666704,
      "v": 49
    },
    {
      "midi": 62,
      "hit": false,
      "t": 30964.325000000023,
      "d": 169.56654166666704,
      "v": 49
    },
    {
      "midi": 65,
      "hit": false,
      "t": 30964.325000000023,
      "d": 169.56654166666704,
      "v": 49
    },
    {
      "midi": 68,
      "hit": false,
      "t": 30964.325000000023,
      "d": 169.56654166666704,
      "v": 49
    },
    {
      "midi": 50,
      "hit": false,
      "t": 30964.325000000023,
      "d": 176.93900000000212,
      "v": 49
    },
    {
      "midi": 70,
      "hit": false,
      "t": 30964.325000000023,
      "d": 213.8012916666703,
      "v": 57
    },
    {
      "midi": 46,
      "hit": false,
      "t": 31259.22333333336,
      "d": 154.8216250000005,
      "v": 58
    },
    {
      "midi": 50,
      "hit": false,
      "t": 31259.22333333336,
      "d": 154.8216250000005,
      "v": 58
    },
    {
      "midi": 58,
      "hit": false,
      "t": 31259.22333333336,
      "d": 154.8216250000005,
      "v": 58
    },
    {
      "midi": 62,
      "hit": false,
      "t": 31259.22333333336,
      "d": 154.8216250000005,
      "v": 58
    },
    {
      "midi": 65,
      "hit": false,
      "t": 31259.22333333336,
      "d": 154.8216250000005,
      "v": 49
    },
    {
      "midi": 68,
      "hit": false,
      "t": 31259.22333333336,
      "d": 154.8216250000005,
      "v": 49
    },
    {
      "midi": 70,
      "hit": false,
      "t": 31259.22333333336,
      "d": 235.9186666666683,
      "v": 55
    },
    {
      "midi": 46,
      "hit": false,
      "t": 31554.121666666695,
      "d": 169.56654166666704,
      "v": 45
    },
    {
      "midi": 50,
      "hit": false,
      "t": 31554.121666666695,
      "d": 169.56654166666704,
      "v": 45
    },
    {
      "midi": 58,
      "hit": false,
      "t": 31554.121666666695,
      "d": 169.56654166666704,
      "v": 45
    },
    {
      "midi": 70,
      "hit": false,
      "t": 31554.121666666695,
      "d": 199.05637500000012,
      "v": 58
    },
    {
      "midi": 62,
      "hit": false,
      "t": 31554.121666666695,
      "d": 228.5462083333332,
      "v": 45
    },
    {
      "midi": 65,
      "hit": false,
      "t": 31554.121666666695,
      "d": 250.66358333333483,
      "v": 45
    },
    {
      "midi": 68,
      "hit": false,
      "t": 31554.121666666695,
      "d": 250.66358333333483,
      "v": 45
    },
    {
      "midi": 46,
      "hit": false,
      "t": 31849.02000000003,
      "d": 213.80129166666666,
      "v": 52
    },
    {
      "midi": 51,
      "hit": false,
      "t": 31849.02000000003,
      "d": 213.80129166666666,
      "v": 52
    },
    {
      "midi": 58,
      "hit": false,
      "t": 31849.02000000003,
      "d": 213.80129166666666,
      "v": 52
    },
    {
      "midi": 63,
      "hit": false,
      "t": 31849.02000000003,
      "d": 213.80129166666666,
      "v": 52
    },
    {
      "midi": 67,
      "hit": false,
      "t": 31849.02000000003,
      "d": 213.80129166666666,
      "v": 41
    },
    {
      "midi": 70,
      "hit": false,
      "t": 31849.02000000003,
      "d": 258.0360416666663,
      "v": 52
    },
    {
      "midi": 46,
      "hit": false,
      "t": 32143.918333333364,
      "d": 162.19408333333195,
      "v": 47
    },
    {
      "midi": 51,
      "hit": false,
      "t": 32143.918333333364,
      "d": 162.19408333333195,
      "v": 47
    },
    {
      "midi": 58,
      "hit": false,
      "t": 32143.918333333364,
      "d": 162.19408333333195,
      "v": 47
    },
    {
      "midi": 63,
      "hit": false,
      "t": 32143.918333333364,
      "d": 162.19408333333195,
      "v": 47
    },
    {
      "midi": 67,
      "hit": false,
      "t": 32143.918333333364,
      "d": 162.19408333333195,
      "v": 47
    },
    {
      "midi": 70,
      "hit": false,
      "t": 32143.918333333364,
      "d": 258.0360416666663,
      "v": 54
    },
    {
      "midi": 46,
      "hit": false,
      "t": 32438.8166666667,
      "d": 199.05637500000012,
      "v": 55
    },
    {
      "midi": 51,
      "hit": false,
      "t": 32438.8166666667,
      "d": 199.05637500000012,
      "v": 55
    },
    {
      "midi": 58,
      "hit": false,
      "t": 32438.8166666667,
      "d": 199.05637500000012,
      "v": 55
    },
    {
      "midi": 63,
      "hit": false,
      "t": 32438.8166666667,
      "d": 199.05637500000012,
      "v": 55
    },
    {
      "midi": 67,
      "hit": false,
      "t": 32438.8166666667,
      "d": 199.05637500000012,
      "v": 44
    },
    {
      "midi": 70,
      "hit": false,
      "t": 32438.8166666667,
      "d": 258.0360416666663,
      "v": 54
    },
    {
      "midi": 46,
      "hit": false,
      "t": 32733.715000000033,
      "d": 176.9389999999985,
      "v": 46
    },
    {
      "midi": 51,
      "hit": false,
      "t": 32733.715000000033,
      "d": 176.9389999999985,
      "v": 46
    },
    {
      "midi": 58,
      "hit": false,
      "t": 32733.715000000033,
      "d": 176.9389999999985,
      "v": 46
    },
    {
      "midi": 63,
      "hit": false,
      "t": 32733.715000000033,
      "d": 176.9389999999985,
      "v": 46
    },
    {
      "midi": 67,
      "hit": false,
      "t": 32733.715000000033,
      "d": 176.9389999999985,
      "v": 46
    },
    {
      "midi": 70,
      "hit": false,
      "t": 32733.715000000033,
      "d": 258.0360416666663,
      "v": 54
    },
    {
      "midi": 46,
      "hit": false,
      "t": 33028.613333333364,
      "d": 147.4491666666654,
      "v": 48
    },
    {
      "midi": 51,
      "hit": false,
      "t": 33028.613333333364,
      "d": 147.4491666666654,
      "v": 48
    },
    {
      "midi": 58,
      "hit": false,
      "t": 33028.613333333364,
      "d": 147.4491666666654,
      "v": 48
    },
    {
      "midi": 63,
      "hit": false,
      "t": 33028.613333333364,
      "d": 147.4491666666654,
      "v": 48
    },
    {
      "midi": 67,
      "hit": false,
      "t": 33028.613333333364,
      "d": 147.4491666666654,
      "v": 48
    },
    {
      "midi": 70,
      "hit": false,
      "t": 33028.613333333364,
      "d": 191.68391666666867,
      "v": 53
    },
    {
      "midi": 46,
      "hit": false,
      "t": 33323.5116666667,
      "d": 176.9389999999985,
      "v": 49
    },
    {
      "midi": 51,
      "hit": false,
      "t": 33323.5116666667,
      "d": 176.9389999999985,
      "v": 49
    },
    {
      "midi": 58,
      "hit": false,
      "t": 33323.5116666667,
      "d": 176.9389999999985,
      "v": 49
    },
    {
      "midi": 63,
      "hit": false,
      "t": 33323.5116666667,
      "d": 176.9389999999985,
      "v": 49
    },
    {
      "midi": 67,
      "hit": false,
      "t": 33323.5116666667,
      "d": 176.9389999999985,
      "v": 49
    },
    {
      "midi": 70,
      "hit": false,
      "t": 33323.5116666667,
      "d": 199.05637500000012,
      "v": 55
    },
    {
      "midi": 46,
      "hit": false,
      "t": 33618.41000000003,
      "d": 206.42883333333157,
      "v": 57
    },
    {
      "midi": 51,
      "hit": false,
      "t": 33618.41000000003,
      "d": 206.42883333333157,
      "v": 57
    },
    {
      "midi": 58,
      "hit": false,
      "t": 33618.41000000003,
      "d": 206.42883333333157,
      "v": 57
    },
    {
      "midi": 63,
      "hit": false,
      "t": 33618.41000000003,
      "d": 206.42883333333157,
      "v": 57
    },
    {
      "midi": 67,
      "hit": false,
      "t": 33618.41000000003,
      "d": 206.42883333333157,
      "v": 46
    },
    {
      "midi": 70,
      "hit": false,
      "t": 33618.41000000003,
      "d": 213.80129166666302,
      "v": 55
    },
    {
      "midi": 46,
      "hit": false,
      "t": 33913.30833333336,
      "d": 184.31145833332994,
      "v": 49
    },
    {
      "midi": 51,
      "hit": false,
      "t": 33913.30833333336,
      "d": 184.31145833332994,
      "v": 49
    },
    {
      "midi": 58,
      "hit": false,
      "t": 33913.30833333336,
      "d": 184.31145833332994,
      "v": 49
    },
    {
      "midi": 63,
      "hit": false,
      "t": 33913.30833333336,
      "d": 184.31145833332994,
      "v": 49
    },
    {
      "midi": 70,
      "hit": false,
      "t": 33913.30833333336,
      "d": 199.05637500000012,
      "v": 43
    },
    {
      "midi": 67,
      "hit": false,
      "t": 33913.30833333336,
      "d": 235.91866666666465,
      "v": 49
    },
    {
      "midi": 46,
      "hit": false,
      "t": 34208.206666666694,
      "d": 206.42883333333157,
      "v": 57
    },
    {
      "midi": 51,
      "hit": false,
      "t": 34208.206666666694,
      "d": 206.42883333333157,
      "v": 57
    },
    {
      "midi": 58,
      "hit": false,
      "t": 34208.206666666694,
      "d": 206.42883333333157,
      "v": 57
    },
    {
      "midi": 63,
      "hit": false,
      "t": 34208.206666666694,
      "d": 206.42883333333157,
      "v": 57
    },
    {
      "midi": 67,
      "hit": false,
      "t": 34208.206666666694,
      "d": 206.42883333333157,
      "v": 48
    },
    {
      "midi": 70,
      "hit": false,
      "t": 34208.206666666694,
      "d": 221.17375000000175,
      "v": 44
    },
    {
      "midi": 46,
      "hit": false,
      "t": 34503.10500000003,
      "d": 169.56654166666704,
      "v": 49
    },
    {
      "midi": 58,
      "hit": false,
      "t": 34503.10500000003,
      "d": 169.56654166666704,
      "v": 49
    },
    {
      "midi": 63,
      "hit": false,
      "t": 34503.10500000003,
      "d": 169.56654166666704,
      "v": 49
    },
    {
      "midi": 67,
      "hit": false,
      "t": 34503.10500000003,
      "d": 169.56654166666704,
      "v": 49
    },
    {
      "midi": 51,
      "hit": false,
      "t": 34503.10500000003,
      "d": 176.9389999999985,
      "v": 49
    },
    {
      "midi": 70,
      "hit": false,
      "t": 34503.10500000003,
      "d": 213.80129166666302,
      "v": 57
    },
    {
      "midi": 46,
      "hit": false,
      "t": 34798.00333333336,
      "d": 154.82162499999686,
      "v": 58
    },
    {
      "midi": 51,
      "hit": false,
      "t": 34798.00333333336,
      "d": 154.82162499999686,
      "v": 58
    },
    {
      "midi": 58,
      "hit": false,
      "t": 34798.00333333336,
      "d": 154.82162499999686,
      "v": 58
    },
    {
      "midi": 63,
      "hit": false,
      "t": 34798.00333333336,
      "d": 154.82162499999686,
      "v": 58
    },
    {
      "midi": 67,
      "hit": false,
      "t": 34798.00333333336,
      "d": 154.82162499999686,
      "v": 49
    },
    {
      "midi": 70,
      "hit": false,
      "t": 34798.00333333336,
      "d": 235.91866666666465,
      "v": 55
    },
    {
      "midi": 46,
      "hit": false,
      "t": 35092.901666666694,
      "d": 169.56654166666704,
      "v": 45
    },
    {
      "midi": 51,
      "hit": false,
      "t": 35092.901666666694,
      "d": 169.56654166666704,
      "v": 45
    },
    {
      "midi": 58,
      "hit": false,
      "t": 35092.901666666694,
      "d": 169.56654166666704,
      "v": 45
    },
    {
      "midi": 70,
      "hit": false,
      "t": 35092.901666666694,
      "d": 199.05637500000012,
      "v": 58
    },
    {
      "midi": 63,
      "hit": false,
      "t": 35092.901666666694,
      "d": 228.5462083333332,
      "v": 45
    },
    {
      "midi": 67,
      "hit": false,
      "t": 35092.901666666694,
      "d": 250.66358333333483,
      "v": 45
    },
    {
      "midi": 46,
      "hit": false,
      "t": 35387.80000000003,
      "d": 213.80129166666302,
      "v": 52
    },
    {
      "midi": 51,
      "hit": false,
      "t": 35387.80000000003,
      "d": 213.80129166666302,
      "v": 52
    },
    {
      "midi": 58,
      "hit": false,
      "t": 35387.80000000003,
      "d": 213.80129166666302,
      "v": 52
    },
    {
      "midi": 63,
      "hit": false,
      "t": 35387.80000000003,
      "d": 213.80129166666302,
      "v": 52
    },
    {
      "midi": 67,
      "hit": false,
      "t": 35387.80000000003,
      "d": 213.80129166666302,
      "v": 41
    },
    {
      "midi": 70,
      "hit": false,
      "t": 35387.80000000003,
      "d": 258.0360416666663,
      "v": 52
    },
    {
      "midi": 46,
      "hit": false,
      "t": 35682.69833333336,
      "d": 162.19408333333558,
      "v": 47
    },
    {
      "midi": 51,
      "hit": false,
      "t": 35682.69833333336,
      "d": 162.19408333333558,
      "v": 47
    },
    {
      "midi": 58,
      "hit": false,
      "t": 35682.69833333336,
      "d": 162.19408333333558,
      "v": 47
    },
    {
      "midi": 63,
      "hit": false,
      "t": 35682.69833333336,
      "d": 162.19408333333558,
      "v": 47
    },
    {
      "midi": 67,
      "hit": false,
      "t": 35682.69833333336,
      "d": 162.19408333333558,
      "v": 47
    },
    {
      "midi": 70,
      "hit": false,
      "t": 35682.69833333336,
      "d": 258.0360416666663,
      "v": 54
    },
    {
      "midi": 46,
      "hit": false,
      "t": 35977.59666666669,
      "d": 199.05637500000012,
      "v": 55
    },
    {
      "midi": 51,
      "hit": false,
      "t": 35977.59666666669,
      "d": 199.05637500000012,
      "v": 55
    },
    {
      "midi": 58,
      "hit": false,
      "t": 35977.59666666669,
      "d": 199.05637500000012,
      "v": 55
    },
    {
      "midi": 63,
      "hit": false,
      "t": 35977.59666666669,
      "d": 199.05637500000012,
      "v": 55
    },
    {
      "midi": 67,
      "hit": false,
      "t": 35977.59666666669,
      "d": 199.05637500000012,
      "v": 44
    },
    {
      "midi": 70,
      "hit": false,
      "t": 35977.59666666669,
      "d": 258.0360416666663,
      "v": 54
    },
    {
      "midi": 46,
      "hit": false,
      "t": 36272.495000000024,
      "d": 176.9389999999985,
      "v": 46
    },
    {
      "midi": 51,
      "hit": false,
      "t": 36272.495000000024,
      "d": 176.9389999999985,
      "v": 46
    },
    {
      "midi": 58,
      "hit": false,
      "t": 36272.495000000024,
      "d": 176.9389999999985,
      "v": 46
    },
    {
      "midi": 63,
      "hit": false,
      "t": 36272.495000000024,
      "d": 176.9389999999985,
      "v": 46
    },
    {
      "midi": 67,
      "hit": false,
      "t": 36272.495000000024,
      "d": 176.9389999999985,
      "v": 46
    },
    {
      "midi": 70,
      "hit": false,
      "t": 36272.495000000024,
      "d": 258.0360416666663,
      "v": 54
    },
    {
      "midi": 46,
      "hit": false,
      "t": 36567.393333333355,
      "d": 147.4491666666654,
      "v": 48
    },
    {
      "midi": 51,
      "hit": false,
      "t": 36567.393333333355,
      "d": 147.4491666666654,
      "v": 48
    },
    {
      "midi": 58,
      "hit": false,
      "t": 36567.393333333355,
      "d": 147.4491666666654,
      "v": 48
    },
    {
      "midi": 63,
      "hit": false,
      "t": 36567.393333333355,
      "d": 147.4491666666654,
      "v": 48
    },
    {
      "midi": 67,
      "hit": false,
      "t": 36567.393333333355,
      "d": 147.4491666666654,
      "v": 48
    },
    {
      "midi": 70,
      "hit": false,
      "t": 36567.393333333355,
      "d": 191.68391666666867,
      "v": 53
    },
    {
      "midi": 46,
      "hit": false,
      "t": 36862.29166666669,
      "d": 176.9389999999985,
      "v": 49
    },
    {
      "midi": 51,
      "hit": false,
      "t": 36862.29166666669,
      "d": 176.9389999999985,
      "v": 49
    },
    {
      "midi": 58,
      "hit": false,
      "t": 36862.29166666669,
      "d": 176.9389999999985,
      "v": 49
    },
    {
      "midi": 63,
      "hit": false,
      "t": 36862.29166666669,
      "d": 176.9389999999985,
      "v": 49
    },
    {
      "midi": 67,
      "hit": false,
      "t": 36862.29166666669,
      "d": 176.9389999999985,
      "v": 49
    },
    {
      "midi": 70,
      "hit": false,
      "t": 36862.29166666669,
      "d": 199.05637500000012,
      "v": 55
    },
    {
      "midi": 46,
      "hit": false,
      "t": 37157.190000000024,
      "d": 206.42883333333157,
      "v": 57
    },
    {
      "midi": 51,
      "hit": false,
      "t": 37157.190000000024,
      "d": 206.42883333333157,
      "v": 57
    },
    {
      "midi": 58,
      "hit": false,
      "t": 37157.190000000024,
      "d": 206.42883333333157,
      "v": 57
    },
    {
      "midi": 63,
      "hit": false,
      "t": 37157.190000000024,
      "d": 206.42883333333157,
      "v": 57
    },
    {
      "midi": 67,
      "hit": false,
      "t": 37157.190000000024,
      "d": 206.42883333333157,
      "v": 46
    },
    {
      "midi": 70,
      "hit": false,
      "t": 37157.190000000024,
      "d": 213.80129166666302,
      "v": 55
    },
    {
      "midi": 46,
      "hit": false,
      "t": 37452.088333333355,
      "d": 184.31145833332994,
      "v": 49
    },
    {
      "midi": 51,
      "hit": false,
      "t": 37452.088333333355,
      "d": 184.31145833332994,
      "v": 49
    },
    {
      "midi": 58,
      "hit": false,
      "t": 37452.088333333355,
      "d": 184.31145833332994,
      "v": 49
    },
    {
      "midi": 63,
      "hit": false,
      "t": 37452.088333333355,
      "d": 184.31145833332994,
      "v": 49
    },
    {
      "midi": 70,
      "hit": false,
      "t": 37452.088333333355,
      "d": 199.05637500000012,
      "v": 43
    },
    {
      "midi": 67,
      "hit": false,
      "t": 37452.088333333355,
      "d": 235.91866666666465,
      "v": 49
    },
    {
      "midi": 46,
      "hit": false,
      "t": 37746.986666666686,
      "d": 206.42883333333157,
      "v": 57
    },
    {
      "midi": 51,
      "hit": false,
      "t": 37746.986666666686,
      "d": 206.42883333333157,
      "v": 57
    },
    {
      "midi": 58,
      "hit": false,
      "t": 37746.986666666686,
      "d": 206.42883333333157,
      "v": 57
    },
    {
      "midi": 63,
      "hit": false,
      "t": 37746.986666666686,
      "d": 206.42883333333157,
      "v": 57
    },
    {
      "midi": 67,
      "hit": false,
      "t": 37746.986666666686,
      "d": 206.42883333333157,
      "v": 48
    },
    {
      "midi": 70,
      "hit": false,
      "t": 37746.986666666686,
      "d": 221.17375000000175,
      "v": 44
    },
    {
      "midi": 46,
      "hit": false,
      "t": 38041.885000000024,
      "d": 169.56654166666704,
      "v": 49
    },
    {
      "midi": 58,
      "hit": false,
      "t": 38041.885000000024,
      "d": 169.56654166666704,
      "v": 49
    },
    {
      "midi": 63,
      "hit": false,
      "t": 38041.885000000024,
      "d": 169.56654166666704,
      "v": 49
    },
    {
      "midi": 67,
      "hit": false,
      "t": 38041.885000000024,
      "d": 169.56654166666704,
      "v": 49
    },
    {
      "midi": 51,
      "hit": false,
      "t": 38041.885000000024,
      "d": 176.9389999999985,
      "v": 49
    },
    {
      "midi": 70,
      "hit": false,
      "t": 38041.885000000024,
      "d": 213.80129166666302,
      "v": 57
    },
    {
      "midi": 46,
      "hit": false,
      "t": 38336.783333333355,
      "d": 154.82162499999686,
      "v": 58
    },
    {
      "midi": 51,
      "hit": false,
      "t": 38336.783333333355,
      "d": 154.82162499999686,
      "v": 58
    },
    {
      "midi": 58,
      "hit": false,
      "t": 38336.783333333355,
      "d": 154.82162499999686,
      "v": 58
    },
    {
      "midi": 63,
      "hit": false,
      "t": 38336.783333333355,
      "d": 154.82162499999686,
      "v": 58
    },
    {
      "midi": 67,
      "hit": false,
      "t": 38336.783333333355,
      "d": 154.82162499999686,
      "v": 49
    },
    {
      "midi": 70,
      "hit": false,
      "t": 38336.783333333355,
      "d": 235.91866666666465,
      "v": 55
    },
    {
      "midi": 46,
      "hit": false,
      "t": 38631.681666666685,
      "d": 169.56654166666704,
      "v": 45
    },
    {
      "midi": 51,
      "hit": false,
      "t": 38631.681666666685,
      "d": 169.56654166666704,
      "v": 45
    },
    {
      "midi": 58,
      "hit": false,
      "t": 38631.681666666685,
      "d": 169.56654166666704,
      "v": 45
    },
    {
      "midi": 70,
      "hit": false,
      "t": 38631.681666666685,
      "d": 199.05637500000012,
      "v": 58
    },
    {
      "midi": 63,
      "hit": false,
      "t": 38631.681666666685,
      "d": 228.5462083333332,
      "v": 45
    },
    {
      "midi": 67,
      "hit": false,
      "t": 38631.681666666685,
      "d": 250.66358333333483,
      "v": 45
    },
    {
      "midi": 44,
      "hit": false,
      "t": 38926.58000000002,
      "d": 213.8012916666703,
      "v": 52
    },
    {
      "midi": 48,
      "hit": false,
      "t": 38926.58000000002,
      "d": 213.8012916666703,
      "v": 52
    },
    {
      "midi": 56,
      "hit": false,
      "t": 38926.58000000002,
      "d": 213.8012916666703,
      "v": 52
    },
    {
      "midi": 60,
      "hit": false,
      "t": 38926.58000000002,
      "d": 213.8012916666703,
      "v": 52
    },
    {
      "midi": 63,
      "hit": false,
      "t": 38926.58000000002,
      "d": 213.8012916666703,
      "v": 41
    },
    {
      "midi": 68,
      "hit": false,
      "t": 38926.58000000002,
      "d": 258.03604166667355,
      "v": 52
    },
    {
      "midi": 44,
      "hit": false,
      "t": 39221.47833333336,
      "d": 162.19408333333558,
      "v": 47
    },
    {
      "midi": 48,
      "hit": false,
      "t": 39221.47833333336,
      "d": 162.19408333333558,
      "v": 47
    },
    {
      "midi": 56,
      "hit": false,
      "t": 39221.47833333336,
      "d": 162.19408333333558,
      "v": 47
    },
    {
      "midi": 60,
      "hit": false,
      "t": 39221.47833333336,
      "d": 162.19408333333558,
      "v": 47
    },
    {
      "midi": 63,
      "hit": false,
      "t": 39221.47833333336,
      "d": 162.19408333333558,
      "v": 47
    },
    {
      "midi": 68,
      "hit": false,
      "t": 39221.47833333336,
      "d": 258.0360416666663,
      "v": 54
    },
    {
      "midi": 44,
      "hit": false,
      "t": 39516.37666666669,
      "d": 199.05637500000012,
      "v": 55
    },
    {
      "midi": 48,
      "hit": false,
      "t": 39516.37666666669,
      "d": 199.05637500000012,
      "v": 55
    },
    {
      "midi": 56,
      "hit": false,
      "t": 39516.37666666669,
      "d": 199.05637500000012,
      "v": 55
    },
    {
      "midi": 60,
      "hit": false,
      "t": 39516.37666666669,
      "d": 199.05637500000012,
      "v": 55
    },
    {
      "midi": 63,
      "hit": false,
      "t": 39516.37666666669,
      "d": 199.05637500000012,
      "v": 44
    },
    {
      "midi": 68,
      "hit": false,
      "t": 39516.37666666669,
      "d": 258.0360416666663,
      "v": 54
    },
    {
      "midi": 44,
      "hit": false,
      "t": 39811.27500000002,
      "d": 176.9389999999985,
      "v": 46
    },
    {
      "midi": 48,
      "hit": false,
      "t": 39811.27500000002,
      "d": 176.9389999999985,
      "v": 46
    },
    {
      "midi": 56,
      "hit": false,
      "t": 39811.27500000002,
      "d": 176.9389999999985,
      "v": 46
    },
    {
      "midi": 60,
      "hit": false,
      "t": 39811.27500000002,
      "d": 176.9389999999985,
      "v": 46
    },
    {
      "midi": 63,
      "hit": false,
      "t": 39811.27500000002,
      "d": 176.9389999999985,
      "v": 46
    },
    {
      "midi": 68,
      "hit": false,
      "t": 39811.27500000002,
      "d": 258.0360416666663,
      "v": 54
    },
    {
      "midi": 44,
      "hit": false,
      "t": 40106.173333333354,
      "d": 147.4491666666654,
      "v": 48
    },
    {
      "midi": 48,
      "hit": false,
      "t": 40106.173333333354,
      "d": 147.4491666666654,
      "v": 48
    },
    {
      "midi": 56,
      "hit": false,
      "t": 40106.173333333354,
      "d": 147.4491666666654,
      "v": 48
    },
    {
      "midi": 60,
      "hit": false,
      "t": 40106.173333333354,
      "d": 147.4491666666654,
      "v": 48
    },
    {
      "midi": 63,
      "hit": false,
      "t": 40106.173333333354,
      "d": 147.4491666666654,
      "v": 48
    },
    {
      "midi": 68,
      "hit": false,
      "t": 40106.173333333354,
      "d": 191.68391666666867,
      "v": 53
    },
    {
      "midi": 44,
      "hit": false,
      "t": 40401.07166666669,
      "d": 176.9389999999985,
      "v": 49
    },
    {
      "midi": 48,
      "hit": false,
      "t": 40401.07166666669,
      "d": 176.9389999999985,
      "v": 49
    },
    {
      "midi": 56,
      "hit": false,
      "t": 40401.07166666669,
      "d": 176.9389999999985,
      "v": 49
    },
    {
      "midi": 60,
      "hit": false,
      "t": 40401.07166666669,
      "d": 176.9389999999985,
      "v": 49
    },
    {
      "midi": 63,
      "hit": false,
      "t": 40401.07166666669,
      "d": 176.9389999999985,
      "v": 49
    },
    {
      "midi": 68,
      "hit": false,
      "t": 40401.07166666669,
      "d": 199.05637500000012,
      "v": 55
    },
    {
      "midi": 44,
      "hit": false,
      "t": 40695.97000000002,
      "d": 206.42883333333157,
      "v": 57
    },
    {
      "midi": 48,
      "hit": false,
      "t": 40695.97000000002,
      "d": 206.42883333333157,
      "v": 57
    },
    {
      "midi": 56,
      "hit": false,
      "t": 40695.97000000002,
      "d": 206.42883333333157,
      "v": 57
    },
    {
      "midi": 60,
      "hit": false,
      "t": 40695.97000000002,
      "d": 206.42883333333157,
      "v": 57
    },
    {
      "midi": 63,
      "hit": false,
      "t": 40695.97000000002,
      "d": 206.42883333333157,
      "v": 46
    },
    {
      "midi": 68,
      "hit": false,
      "t": 40695.97000000002,
      "d": 213.80129166666302,
      "v": 55
    },
    {
      "midi": 44,
      "hit": false,
      "t": 40990.868333333354,
      "d": 184.31145833332994,
      "v": 49
    },
    {
      "midi": 48,
      "hit": false,
      "t": 40990.868333333354,
      "d": 184.31145833332994,
      "v": 49
    },
    {
      "midi": 56,
      "hit": false,
      "t": 40990.868333333354,
      "d": 184.31145833332994,
      "v": 49
    },
    {
      "midi": 60,
      "hit": false,
      "t": 40990.868333333354,
      "d": 184.31145833332994,
      "v": 49
    },
    {
      "midi": 68,
      "hit": false,
      "t": 40990.868333333354,
      "d": 199.05637500000012,
      "v": 43
    },
    {
      "midi": 63,
      "hit": false,
      "t": 40990.868333333354,
      "d": 235.91866666666465,
      "v": 49
    },
    {
      "midi": 44,
      "hit": false,
      "t": 41285.766666666685,
      "d": 206.42883333333157,
      "v": 57
    },
    {
      "midi": 48,
      "hit": false,
      "t": 41285.766666666685,
      "d": 206.42883333333157,
      "v": 57
    },
    {
      "midi": 56,
      "hit": false,
      "t": 41285.766666666685,
      "d": 206.42883333333157,
      "v": 57
    },
    {
      "midi": 60,
      "hit": false,
      "t": 41285.766666666685,
      "d": 206.42883333333157,
      "v": 57
    },
    {
      "midi": 63,
      "hit": false,
      "t": 41285.766666666685,
      "d": 206.42883333333157,
      "v": 48
    },
    {
      "midi": 68,
      "hit": false,
      "t": 41285.766666666685,
      "d": 221.17375000000175,
      "v": 44
    },
    {
      "midi": 44,
      "hit": false,
      "t": 41580.66500000002,
      "d": 169.56654166666704,
      "v": 49
    },
    {
      "midi": 56,
      "hit": false,
      "t": 41580.66500000002,
      "d": 169.56654166666704,
      "v": 49
    },
    {
      "midi": 60,
      "hit": false,
      "t": 41580.66500000002,
      "d": 169.56654166666704,
      "v": 49
    },
    {
      "midi": 63,
      "hit": false,
      "t": 41580.66500000002,
      "d": 169.56654166666704,
      "v": 49
    },
    {
      "midi": 48,
      "hit": false,
      "t": 41580.66500000002,
      "d": 176.9389999999985,
      "v": 49
    },
    {
      "midi": 68,
      "hit": false,
      "t": 41580.66500000002,
      "d": 213.80129166666302,
      "v": 57
    },
    {
      "midi": 44,
      "hit": false,
      "t": 41875.56333333335,
      "d": 154.82162499999686,
      "v": 58
    },
    {
      "midi": 48,
      "hit": false,
      "t": 41875.56333333335,
      "d": 154.82162499999686,
      "v": 58
    },
    {
      "midi": 56,
      "hit": false,
      "t": 41875.56333333335,
      "d": 154.82162499999686,
      "v": 58
    },
    {
      "midi": 60,
      "hit": false,
      "t": 41875.56333333335,
      "d": 154.82162499999686,
      "v": 58
    },
    {
      "midi": 63,
      "hit": false,
      "t": 41875.56333333335,
      "d": 154.82162499999686,
      "v": 49
    },
    {
      "midi": 68,
      "hit": false,
      "t": 41875.56333333335,
      "d": 235.91866666666465,
      "v": 55
    },
    {
      "midi": 44,
      "hit": false,
      "t": 42170.461666666684,
      "d": 169.56654166666704,
      "v": 45
    },
    {
      "midi": 48,
      "hit": false,
      "t": 42170.461666666684,
      "d": 169.56654166666704,
      "v": 45
    },
    {
      "midi": 56,
      "hit": false,
      "t": 42170.461666666684,
      "d": 169.56654166666704,
      "v": 45
    },
    {
      "midi": 68,
      "hit": false,
      "t": 42170.461666666684,
      "d": 199.05637500000012,
      "v": 58
    },
    {
      "midi": 60,
      "hit": false,
      "t": 42170.461666666684,
      "d": 228.5462083333332,
      "v": 45
    },
    {
      "midi": 63,
      "hit": false,
      "t": 42170.461666666684,
      "d": 250.66358333333483,
      "v": 45
    },
    {
      "midi": 46,
      "hit": false,
      "t": 42465.36000000002,
      "d": 213.8012916666703,
      "v": 52
    },
    {
      "midi": 50,
      "hit": false,
      "t": 42465.36000000002,
      "d": 213.8012916666703,
      "v": 52
    },
    {
      "midi": 58,
      "hit": false,
      "t": 42465.36000000002,
      "d": 213.8012916666703,
      "v": 52
    },
    {
      "midi": 62,
      "hit": false,
      "t": 42465.36000000002,
      "d": 213.8012916666703,
      "v": 52
    },
    {
      "midi": 65,
      "hit": false,
      "t": 42465.36000000002,
      "d": 213.8012916666703,
      "v": 41
    },
    {
      "midi": 70,
      "hit": false,
      "t": 42465.36000000002,
      "d": 258.03604166667355,
      "v": 52
    },
    {
      "midi": 46,
      "hit": false,
      "t": 42760.25833333336,
      "d": 162.19408333333558,
      "v": 47
    },
    {
      "midi": 50,
      "hit": false,
      "t": 42760.25833333336,
      "d": 162.19408333333558,
      "v": 47
    },
    {
      "midi": 58,
      "hit": false,
      "t": 42760.25833333336,
      "d": 162.19408333333558,
      "v": 47
    },
    {
      "midi": 62,
      "hit": false,
      "t": 42760.25833333336,
      "d": 162.19408333333558,
      "v": 47
    },
    {
      "midi": 65,
      "hit": false,
      "t": 42760.25833333336,
      "d": 162.19408333333558,
      "v": 47
    },
    {
      "midi": 70,
      "hit": false,
      "t": 42760.25833333336,
      "d": 258.0360416666663,
      "v": 54
    },
    {
      "midi": 46,
      "hit": false,
      "t": 43055.15666666669,
      "d": 199.05637500000012,
      "v": 55
    },
    {
      "midi": 50,
      "hit": false,
      "t": 43055.15666666669,
      "d": 199.05637500000012,
      "v": 55
    },
    {
      "midi": 58,
      "hit": false,
      "t": 43055.15666666669,
      "d": 199.05637500000012,
      "v": 55
    },
    {
      "midi": 62,
      "hit": false,
      "t": 43055.15666666669,
      "d": 199.05637500000012,
      "v": 55
    },
    {
      "midi": 65,
      "hit": false,
      "t": 43055.15666666669,
      "d": 199.05637500000012,
      "v": 44
    },
    {
      "midi": 70,
      "hit": false,
      "t": 43055.15666666669,
      "d": 258.0360416666663,
      "v": 54
    },
    {
      "midi": 46,
      "hit": false,
      "t": 43350.05500000002,
      "d": 176.9389999999985,
      "v": 46
    },
    {
      "midi": 50,
      "hit": false,
      "t": 43350.05500000002,
      "d": 176.9389999999985,
      "v": 46
    },
    {
      "midi": 58,
      "hit": false,
      "t": 43350.05500000002,
      "d": 176.9389999999985,
      "v": 46
    },
    {
      "midi": 62,
      "hit": false,
      "t": 43350.05500000002,
      "d": 176.9389999999985,
      "v": 46
    },
    {
      "midi": 65,
      "hit": false,
      "t": 43350.05500000002,
      "d": 176.9389999999985,
      "v": 46
    },
    {
      "midi": 70,
      "hit": false,
      "t": 43350.05500000002,
      "d": 258.0360416666663,
      "v": 54
    },
    {
      "midi": 46,
      "hit": false,
      "t": 43644.95333333335,
      "d": 147.4491666666654,
      "v": 48
    },
    {
      "midi": 50,
      "hit": false,
      "t": 43644.95333333335,
      "d": 147.4491666666654,
      "v": 48
    },
    {
      "midi": 58,
      "hit": false,
      "t": 43644.95333333335,
      "d": 147.4491666666654,
      "v": 48
    },
    {
      "midi": 62,
      "hit": false,
      "t": 43644.95333333335,
      "d": 147.4491666666654,
      "v": 48
    },
    {
      "midi": 65,
      "hit": false,
      "t": 43644.95333333335,
      "d": 147.4491666666654,
      "v": 48
    },
    {
      "midi": 70,
      "hit": false,
      "t": 43644.95333333335,
      "d": 191.68391666666867,
      "v": 53
    },
    {
      "midi": 46,
      "hit": false,
      "t": 43939.85166666669,
      "d": 176.9389999999985,
      "v": 49
    },
    {
      "midi": 50,
      "hit": false,
      "t": 43939.85166666669,
      "d": 176.9389999999985,
      "v": 49
    },
    {
      "midi": 58,
      "hit": false,
      "t": 43939.85166666669,
      "d": 176.9389999999985,
      "v": 49
    },
    {
      "midi": 62,
      "hit": false,
      "t": 43939.85166666669,
      "d": 176.9389999999985,
      "v": 49
    },
    {
      "midi": 65,
      "hit": false,
      "t": 43939.85166666669,
      "d": 176.9389999999985,
      "v": 49
    },
    {
      "midi": 70,
      "hit": false,
      "t": 43939.85166666669,
      "d": 199.05637500000012,
      "v": 55
    },
    {
      "midi": 46,
      "hit": false,
      "t": 44234.75000000002,
      "d": 206.42883333333157,
      "v": 57
    },
    {
      "midi": 50,
      "hit": false,
      "t": 44234.75000000002,
      "d": 206.42883333333157,
      "v": 57
    },
    {
      "midi": 58,
      "hit": false,
      "t": 44234.75000000002,
      "d": 206.42883333333157,
      "v": 57
    },
    {
      "midi": 62,
      "hit": false,
      "t": 44234.75000000002,
      "d": 206.42883333333157,
      "v": 57
    },
    {
      "midi": 65,
      "hit": false,
      "t": 44234.75000000002,
      "d": 206.42883333333157,
      "v": 46
    },
    {
      "midi": 70,
      "hit": false,
      "t": 44234.75000000002,
      "d": 213.80129166666302,
      "v": 55
    },
    {
      "midi": 46,
      "hit": false,
      "t": 44529.64833333335,
      "d": 184.31145833332994,
      "v": 49
    },
    {
      "midi": 50,
      "hit": false,
      "t": 44529.64833333335,
      "d": 184.31145833332994,
      "v": 49
    },
    {
      "midi": 58,
      "hit": false,
      "t": 44529.64833333335,
      "d": 184.31145833332994,
      "v": 49
    },
    {
      "midi": 62,
      "hit": false,
      "t": 44529.64833333335,
      "d": 184.31145833332994,
      "v": 49
    },
    {
      "midi": 70,
      "hit": false,
      "t": 44529.64833333335,
      "d": 199.05637500000012,
      "v": 43
    },
    {
      "midi": 65,
      "hit": false,
      "t": 44529.64833333335,
      "d": 235.91866666666465,
      "v": 49
    },
    {
      "midi": 46,
      "hit": false,
      "t": 44824.54666666668,
      "d": 206.42883333333157,
      "v": 57
    },
    {
      "midi": 50,
      "hit": false,
      "t": 44824.54666666668,
      "d": 206.42883333333157,
      "v": 57
    },
    {
      "midi": 58,
      "hit": false,
      "t": 44824.54666666668,
      "d": 206.42883333333157,
      "v": 57
    },
    {
      "midi": 62,
      "hit": false,
      "t": 44824.54666666668,
      "d": 206.42883333333157,
      "v": 57
    },
    {
      "midi": 65,
      "hit": false,
      "t": 44824.54666666668,
      "d": 206.42883333333157,
      "v": 48
    },
    {
      "midi": 70,
      "hit": false,
      "t": 44824.54666666668,
      "d": 221.17375000000175,
      "v": 44
    },
    {
      "midi": 46,
      "hit": false,
      "t": 45119.44500000002,
      "d": 169.56654166666704,
      "v": 49
    },
    {
      "midi": 58,
      "hit": false,
      "t": 45119.44500000002,
      "d": 169.56654166666704,
      "v": 49
    },
    {
      "midi": 62,
      "hit": false,
      "t": 45119.44500000002,
      "d": 169.56654166666704,
      "v": 49
    },
    {
      "midi": 65,
      "hit": false,
      "t": 45119.44500000002,
      "d": 169.56654166666704,
      "v": 49
    },
    {
      "midi": 50,
      "hit": false,
      "t": 45119.44500000002,
      "d": 176.9389999999985,
      "v": 49
    },
    {
      "midi": 70,
      "hit": false,
      "t": 45119.44500000002,
      "d": 213.80129166666302,
      "v": 57
    },
    {
      "midi": 46,
      "hit": false,
      "t": 45414.34333333335,
      "d": 154.82162499999686,
      "v": 58
    },
    {
      "midi": 50,
      "hit": false,
      "t": 45414.34333333335,
      "d": 154.82162499999686,
      "v": 58
    },
    {
      "midi": 58,
      "hit": false,
      "t": 45414.34333333335,
      "d": 154.82162499999686,
      "v": 58
    },
    {
      "midi": 62,
      "hit": false,
      "t": 45414.34333333335,
      "d": 154.82162499999686,
      "v": 58
    },
    {
      "midi": 65,
      "hit": false,
      "t": 45414.34333333335,
      "d": 154.82162499999686,
      "v": 49
    },
    {
      "midi": 70,
      "hit": false,
      "t": 45414.34333333335,
      "d": 235.91866666666465,
      "v": 55
    },
    {
      "midi": 46,
      "hit": false,
      "t": 45709.24166666668,
      "d": 169.56654166666704,
      "v": 45
    },
    {
      "midi": 50,
      "hit": false,
      "t": 45709.24166666668,
      "d": 169.56654166666704,
      "v": 45
    },
    {
      "midi": 58,
      "hit": false,
      "t": 45709.24166666668,
      "d": 169.56654166666704,
      "v": 45
    },
    {
      "midi": 70,
      "hit": false,
      "t": 45709.24166666668,
      "d": 199.05637500000012,
      "v": 58
    },
    {
      "midi": 62,
      "hit": false,
      "t": 45709.24166666668,
      "d": 228.5462083333332,
      "v": 45
    },
    {
      "midi": 65,
      "hit": false,
      "t": 45709.24166666668,
      "d": 250.66358333333483,
      "v": 45
    },
    {
      "midi": 48,
      "hit": false,
      "t": 46004.14000000002,
      "d": 213.8012916666703,
      "v": 52
    },
    {
      "midi": 53,
      "hit": false,
      "t": 46004.14000000002,
      "d": 213.8012916666703,
      "v": 52
    },
    {
      "midi": 60,
      "hit": false,
      "t": 46004.14000000002,
      "d": 213.8012916666703,
      "v": 52
    },
    {
      "midi": 63,
      "hit": false,
      "t": 46004.14000000002,
      "d": 213.8012916666703,
      "v": 52
    },
    {
      "midi": 65,
      "hit": false,
      "t": 46004.14000000002,
      "d": 213.8012916666703,
      "v": 41
    },
    {
      "midi": 69,
      "hit": false,
      "t": 46004.14000000002,
      "d": 258.03604166667355,
      "v": 52
    },
    {
      "midi": 48,
      "hit": false,
      "t": 46299.03833333336,
      "d": 162.19408333333558,
      "v": 47
    },
    {
      "midi": 53,
      "hit": false,
      "t": 46299.03833333336,
      "d": 162.19408333333558,
      "v": 47
    },
    {
      "midi": 60,
      "hit": false,
      "t": 46299.03833333336,
      "d": 162.19408333333558,
      "v": 47
    },
    {
      "midi": 65,
      "hit": false,
      "t": 46299.03833333336,
      "d": 162.19408333333558,
      "v": 47
    },
    {
      "midi": 63,
      "hit": false,
      "t": 46299.03833333336,
      "d": 206.42883333333884,
      "v": 47
    },
    {
      "midi": 69,
      "hit": false,
      "t": 46299.03833333336,
      "d": 258.03604166667355,
      "v": 54
    },
    {
      "midi": 48,
      "hit": false,
      "t": 46593.9366666667,
      "d": 199.05637500000012,
      "v": 55
    },
    {
      "midi": 53,
      "hit": false,
      "t": 46593.9366666667,
      "d": 199.05637500000012,
      "v": 55
    },
    {
      "midi": 60,
      "hit": false,
      "t": 46593.9366666667,
      "d": 199.05637500000012,
      "v": 55
    },
    {
      "midi": 63,
      "hit": false,
      "t": 46593.9366666667,
      "d": 199.05637500000012,
      "v": 55
    },
    {
      "midi": 65,
      "hit": false,
      "t": 46593.9366666667,
      "d": 199.05637500000012,
      "v": 44
    },
    {
      "midi": 69,
      "hit": false,
      "t": 46593.9366666667,
      "d": 258.0360416666663,
      "v": 54
    },
    {
      "midi": 48,
      "hit": false,
      "t": 46888.83500000003,
      "d": 176.9389999999985,
      "v": 46
    },
    {
      "midi": 53,
      "hit": false,
      "t": 46888.83500000003,
      "d": 176.9389999999985,
      "v": 46
    },
    {
      "midi": 60,
      "hit": false,
      "t": 46888.83500000003,
      "d": 176.9389999999985,
      "v": 46
    },
    {
      "midi": 63,
      "hit": false,
      "t": 46888.83500000003,
      "d": 176.9389999999985,
      "v": 46
    },
    {
      "midi": 65,
      "hit": false,
      "t": 46888.83500000003,
      "d": 176.9389999999985,
      "v": 46
    },
    {
      "midi": 69,
      "hit": false,
      "t": 46888.83500000003,
      "d": 258.0360416666663,
      "v": 54
    },
    {
      "midi": 48,
      "hit": false,
      "t": 47183.73333333336,
      "d": 147.4491666666654,
      "v": 48
    },
    {
      "midi": 53,
      "hit": false,
      "t": 47183.73333333336,
      "d": 147.4491666666654,
      "v": 48
    },
    {
      "midi": 60,
      "hit": false,
      "t": 47183.73333333336,
      "d": 147.4491666666654,
      "v": 48
    },
    {
      "midi": 63,
      "hit": false,
      "t": 47183.73333333336,
      "d": 147.4491666666654,
      "v": 48
    },
    {
      "midi": 65,
      "hit": false,
      "t": 47183.73333333336,
      "d": 147.4491666666654,
      "v": 48
    },
    {
      "midi": 69,
      "hit": false,
      "t": 47183.73333333336,
      "d": 191.68391666666867,
      "v": 53
    },
    {
      "midi": 48,
      "hit": false,
      "t": 47478.6316666667,
      "d": 176.9389999999985,
      "v": 49
    },
    {
      "midi": 53,
      "hit": false,
      "t": 47478.6316666667,
      "d": 176.9389999999985,
      "v": 49
    },
    {
      "midi": 60,
      "hit": false,
      "t": 47478.6316666667,
      "d": 176.9389999999985,
      "v": 49
    },
    {
      "midi": 63,
      "hit": false,
      "t": 47478.6316666667,
      "d": 176.9389999999985,
      "v": 49
    },
    {
      "midi": 65,
      "hit": false,
      "t": 47478.6316666667,
      "d": 176.9389999999985,
      "v": 49
    },
    {
      "midi": 69,
      "hit": false,
      "t": 47478.6316666667,
      "d": 199.05637500000012,
      "v": 55
    },
    {
      "midi": 48,
      "hit": false,
      "t": 47773.53000000003,
      "d": 206.42883333333157,
      "v": 57
    },
    {
      "midi": 53,
      "hit": false,
      "t": 47773.53000000003,
      "d": 206.42883333333157,
      "v": 57
    },
    {
      "midi": 60,
      "hit": false,
      "t": 47773.53000000003,
      "d": 206.42883333333157,
      "v": 57
    },
    {
      "midi": 63,
      "hit": false,
      "t": 47773.53000000003,
      "d": 206.42883333333157,
      "v": 57
    },
    {
      "midi": 65,
      "hit": false,
      "t": 47773.53000000003,
      "d": 206.42883333333157,
      "v": 46
    },
    {
      "midi": 69,
      "hit": false,
      "t": 47773.53000000003,
      "d": 213.80129166666302,
      "v": 55
    },
    {
      "midi": 48,
      "hit": false,
      "t": 48068.42833333336,
      "d": 184.31145833332994,
      "v": 49
    },
    {
      "midi": 53,
      "hit": false,
      "t": 48068.42833333336,
      "d": 184.31145833332994,
      "v": 49
    },
    {
      "midi": 60,
      "hit": false,
      "t": 48068.42833333336,
      "d": 184.31145833332994,
      "v": 49
    },
    {
      "midi": 63,
      "hit": false,
      "t": 48068.42833333336,
      "d": 184.31145833332994,
      "v": 49
    },
    {
      "midi": 69,
      "hit": false,
      "t": 48068.42833333336,
      "d": 199.05637500000012,
      "v": 43
    },
    {
      "midi": 65,
      "hit": false,
      "t": 48068.42833333336,
      "d": 235.91866666666465,
      "v": 49
    },
    {
      "midi": 48,
      "hit": false,
      "t": 48363.32666666669,
      "d": 206.42883333333157,
      "v": 57
    },
    {
      "midi": 53,
      "hit": false,
      "t": 48363.32666666669,
      "d": 206.42883333333157,
      "v": 57
    },
    {
      "midi": 60,
      "hit": false,
      "t": 48363.32666666669,
      "d": 206.42883333333157,
      "v": 57
    },
    {
      "midi": 63,
      "hit": false,
      "t": 48363.32666666669,
      "d": 206.42883333333157,
      "v": 57
    },
    {
      "midi": 65,
      "hit": false,
      "t": 48363.32666666669,
      "d": 206.42883333333157,
      "v": 48
    },
    {
      "midi": 69,
      "hit": false,
      "t": 48363.32666666669,
      "d": 221.17375000000175,
      "v": 44
    },
    {
      "midi": 48,
      "hit": false,
      "t": 48658.22500000003,
      "d": 169.56654166666704,
      "v": 49
    },
    {
      "midi": 60,
      "hit": false,
      "t": 48658.22500000003,
      "d": 169.56654166666704,
      "v": 49
    },
    {
      "midi": 63,
      "hit": false,
      "t": 48658.22500000003,
      "d": 169.56654166666704,
      "v": 49
    },
    {
      "midi": 65,
      "hit": false,
      "t": 48658.22500000003,
      "d": 169.56654166666704,
      "v": 49
    },
    {
      "midi": 53,
      "hit": false,
      "t": 48658.22500000003,
      "d": 176.9389999999985,
      "v": 49
    },
    {
      "midi": 69,
      "hit": false,
      "t": 48658.22500000003,
      "d": 213.80129166666302,
      "v": 57
    },
    {
      "midi": 48,
      "hit": false,
      "t": 48953.12333333336,
      "d": 154.82162499999686,
      "v": 58
    },
    {
      "midi": 53,
      "hit": false,
      "t": 48953.12333333336,
      "d": 154.82162499999686,
      "v": 58
    },
    {
      "midi": 60,
      "hit": false,
      "t": 48953.12333333336,
      "d": 154.82162499999686,
      "v": 58
    },
    {
      "midi": 63,
      "hit": false,
      "t": 48953.12333333336,
      "d": 154.82162499999686,
      "v": 58
    },
    {
      "midi": 65,
      "hit": false,
      "t": 48953.12333333336,
      "d": 154.82162499999686,
      "v": 49
    },
    {
      "midi": 69,
      "hit": false,
      "t": 48953.12333333336,
      "d": 235.91866666666465,
      "v": 55
    },
    {
      "midi": 48,
      "hit": false,
      "t": 49248.02166666669,
      "d": 169.56654166666704,
      "v": 45
    },
    {
      "midi": 53,
      "hit": false,
      "t": 49248.02166666669,
      "d": 169.56654166666704,
      "v": 45
    },
    {
      "midi": 60,
      "hit": false,
      "t": 49248.02166666669,
      "d": 169.56654166666704,
      "v": 45
    },
    {
      "midi": 69,
      "hit": false,
      "t": 49248.02166666669,
      "d": 199.05637500000012,
      "v": 58
    },
    {
      "midi": 63,
      "hit": false,
      "t": 49248.02166666669,
      "d": 228.5462083333332,
      "v": 45
    },
    {
      "midi": 65,
      "hit": false,
      "t": 49248.02166666669,
      "d": 250.66358333333483,
      "v": 45
    },
    {
      "midi": 46,
      "hit": false,
      "t": 49542.92000000003,
      "d": 213.80129166666302,
      "v": 52
    },
    {
      "midi": 50,
      "hit": false,
      "t": 49542.92000000003,
      "d": 213.80129166666302,
      "v": 52
    },
    {
      "midi": 58,
      "hit": false,
      "t": 49542.92000000003,
      "d": 213.80129166666302,
      "v": 52
    },
    {
      "midi": 62,
      "hit": false,
      "t": 49542.92000000003,
      "d": 213.80129166666302,
      "v": 52
    },
    {
      "midi": 65,
      "hit": false,
      "t": 49542.92000000003,
      "d": 213.80129166666302,
      "v": 41
    },
    {
      "midi": 70,
      "hit": false,
      "t": 49542.92000000003,
      "d": 258.0360416666663,
      "v": 52
    },
    {
      "midi": 46,
      "hit": false,
      "t": 53081.700000000026,
      "d": 213.80129166666302,
      "v": 52
    },
    {
      "midi": 50,
      "hit": false,
      "t": 53081.700000000026,
      "d": 213.80129166666302,
      "v": 52
    },
    {
      "midi": 58,
      "hit": false,
      "t": 53081.700000000026,
      "d": 213.80129166666302,
      "v": 52
    },
    {
      "midi": 62,
      "hit": false,
      "t": 53081.700000000026,
      "d": 213.80129166666302,
      "v": 52
    },
    {
      "midi": 65,
      "hit": false,
      "t": 53081.700000000026,
      "d": 213.80129166666302,
      "v": 41
    },
    {
      "midi": 68,
      "hit": false,
      "t": 53081.700000000026,
      "d": 213.80129166666302,
      "v": 41
    },
    {
      "midi": 70,
      "hit": false,
      "t": 53081.700000000026,
      "d": 258.0360416666663,
      "v": 52
    },
    {
      "midi": 46,
      "hit": false,
      "t": 53376.59833333336,
      "d": 162.19408333333558,
      "v": 47
    },
    {
      "midi": 50,
      "hit": false,
      "t": 53376.59833333336,
      "d": 162.19408333333558,
      "v": 47
    },
    {
      "midi": 58,
      "hit": false,
      "t": 53376.59833333336,
      "d": 162.19408333333558,
      "v": 47
    },
    {
      "midi": 62,
      "hit": false,
      "t": 53376.59833333336,
      "d": 162.19408333333558,
      "v": 47
    },
    {
      "midi": 65,
      "hit": false,
      "t": 53376.59833333336,
      "d": 162.19408333333558,
      "v": 47
    },
    {
      "midi": 68,
      "hit": false,
      "t": 53376.59833333336,
      "d": 162.19408333333558,
      "v": 47
    },
    {
      "midi": 70,
      "hit": false,
      "t": 53376.59833333336,
      "d": 258.0360416666663,
      "v": 54
    },
    {
      "midi": 46,
      "hit": false,
      "t": 53671.49666666669,
      "d": 199.05637500000012,
      "v": 55
    },
    {
      "midi": 50,
      "hit": false,
      "t": 53671.49666666669,
      "d": 199.05637500000012,
      "v": 55
    },
    {
      "midi": 58,
      "hit": false,
      "t": 53671.49666666669,
      "d": 199.05637500000012,
      "v": 55
    },
    {
      "midi": 62,
      "hit": false,
      "t": 53671.49666666669,
      "d": 199.05637500000012,
      "v": 55
    },
    {
      "midi": 65,
      "hit": false,
      "t": 53671.49666666669,
      "d": 199.05637500000012,
      "v": 44
    },
    {
      "midi": 68,
      "hit": false,
      "t": 53671.49666666669,
      "d": 199.05637500000012,
      "v": 44
    },
    {
      "midi": 70,
      "hit": false,
      "t": 53671.49666666669,
      "d": 258.0360416666663,
      "v": 54
    },
    {
      "midi": 46,
      "hit": false,
      "t": 53966.39500000002,
      "d": 176.9389999999985,
      "v": 46
    },
    {
      "midi": 50,
      "hit": false,
      "t": 53966.39500000002,
      "d": 176.9389999999985,
      "v": 46
    },
    {
      "midi": 58,
      "hit": false,
      "t": 53966.39500000002,
      "d": 176.9389999999985,
      "v": 46
    },
    {
      "midi": 62,
      "hit": false,
      "t": 53966.39500000002,
      "d": 176.9389999999985,
      "v": 46
    },
    {
      "midi": 65,
      "hit": false,
      "t": 53966.39500000002,
      "d": 176.9389999999985,
      "v": 46
    },
    {
      "midi": 68,
      "hit": false,
      "t": 53966.39500000002,
      "d": 176.9389999999985,
      "v": 46
    },
    {
      "midi": 70,
      "hit": false,
      "t": 53966.39500000002,
      "d": 258.0360416666663,
      "v": 54
    },
    {
      "midi": 46,
      "hit": false,
      "t": 54261.29333333335,
      "d": 147.4491666666654,
      "v": 48
    },
    {
      "midi": 50,
      "hit": false,
      "t": 54261.29333333335,
      "d": 147.4491666666654,
      "v": 48
    },
    {
      "midi": 58,
      "hit": false,
      "t": 54261.29333333335,
      "d": 147.4491666666654,
      "v": 48
    },
    {
      "midi": 62,
      "hit": false,
      "t": 54261.29333333335,
      "d": 147.4491666666654,
      "v": 48
    },
    {
      "midi": 65,
      "hit": false,
      "t": 54261.29333333335,
      "d": 147.4491666666654,
      "v": 48
    },
    {
      "midi": 68,
      "hit": false,
      "t": 54261.29333333335,
      "d": 147.4491666666654,
      "v": 48
    },
    {
      "midi": 70,
      "hit": false,
      "t": 54261.29333333335,
      "d": 191.68391666666867,
      "v": 53
    },
    {
      "midi": 46,
      "hit": false,
      "t": 54556.19166666669,
      "d": 176.9389999999985,
      "v": 49
    },
    {
      "midi": 50,
      "hit": false,
      "t": 54556.19166666669,
      "d": 176.9389999999985,
      "v": 49
    },
    {
      "midi": 58,
      "hit": false,
      "t": 54556.19166666669,
      "d": 176.9389999999985,
      "v": 49
    },
    {
      "midi": 62,
      "hit": false,
      "t": 54556.19166666669,
      "d": 176.9389999999985,
      "v": 49
    },
    {
      "midi": 65,
      "hit": false,
      "t": 54556.19166666669,
      "d": 176.9389999999985,
      "v": 49
    },
    {
      "midi": 68,
      "hit": false,
      "t": 54556.19166666669,
      "d": 176.9389999999985,
      "v": 49
    },
    {
      "midi": 70,
      "hit": false,
      "t": 54556.19166666669,
      "d": 199.05637500000012,
      "v": 55
    },
    {
      "midi": 46,
      "hit": false,
      "t": 54851.09000000002,
      "d": 206.42883333333157,
      "v": 57
    },
    {
      "midi": 50,
      "hit": false,
      "t": 54851.09000000002,
      "d": 206.42883333333157,
      "v": 57
    },
    {
      "midi": 58,
      "hit": false,
      "t": 54851.09000000002,
      "d": 206.42883333333157,
      "v": 57
    },
    {
      "midi": 62,
      "hit": false,
      "t": 54851.09000000002,
      "d": 206.42883333333157,
      "v": 57
    },
    {
      "midi": 65,
      "hit": false,
      "t": 54851.09000000002,
      "d": 206.42883333333157,
      "v": 46
    },
    {
      "midi": 68,
      "hit": false,
      "t": 54851.09000000002,
      "d": 206.42883333333157,
      "v": 46
    },
    {
      "midi": 70,
      "hit": false,
      "t": 54851.09000000002,
      "d": 213.80129166666302,
      "v": 55
    },
    {
      "midi": 46,
      "hit": false,
      "t": 55145.98833333335,
      "d": 184.31145833332994,
      "v": 49
    },
    {
      "midi": 50,
      "hit": false,
      "t": 55145.98833333335,
      "d": 184.31145833332994,
      "v": 49
    },
    {
      "midi": 58,
      "hit": false,
      "t": 55145.98833333335,
      "d": 184.31145833332994,
      "v": 49
    },
    {
      "midi": 62,
      "hit": false,
      "t": 55145.98833333335,
      "d": 184.31145833332994,
      "v": 49
    },
    {
      "midi": 70,
      "hit": false,
      "t": 55145.98833333335,
      "d": 199.05637500000012,
      "v": 43
    },
    {
      "midi": 65,
      "hit": false,
      "t": 55145.98833333335,
      "d": 235.91866666666465,
      "v": 49
    },
    {
      "midi": 68,
      "hit": false,
      "t": 55145.98833333335,
      "d": 235.91866666666465,
      "v": 49
    },
    {
      "midi": 46,
      "hit": false,
      "t": 55440.88666666668,
      "d": 206.42883333333157,
      "v": 57
    },
    {
      "midi": 50,
      "hit": false,
      "t": 55440.88666666668,
      "d": 206.42883333333157,
      "v": 57
    },
    {
      "midi": 58,
      "hit": false,
      "t": 55440.88666666668,
      "d": 206.42883333333157,
      "v": 57
    },
    {
      "midi": 62,
      "hit": false,
      "t": 55440.88666666668,
      "d": 206.42883333333157,
      "v": 57
    },
    {
      "midi": 65,
      "hit": false,
      "t": 55440.88666666668,
      "d": 206.42883333333157,
      "v": 48
    },
    {
      "midi": 68,
      "hit": false,
      "t": 55440.88666666668,
      "d": 206.42883333333157,
      "v": 48
    },
    {
      "midi": 70,
      "hit": false,
      "t": 55440.88666666668,
      "d": 221.17375000000175,
      "v": 44
    },
    {
      "midi": 46,
      "hit": false,
      "t": 55735.78500000002,
      "d": 169.56654166666704,
      "v": 49
    },
    {
      "midi": 58,
      "hit": false,
      "t": 55735.78500000002,
      "d": 169.56654166666704,
      "v": 49
    },
    {
      "midi": 62,
      "hit": false,
      "t": 55735.78500000002,
      "d": 169.56654166666704,
      "v": 49
    },
    {
      "midi": 65,
      "hit": false,
      "t": 55735.78500000002,
      "d": 169.56654166666704,
      "v": 49
    },
    {
      "midi": 68,
      "hit": false,
      "t": 55735.78500000002,
      "d": 169.56654166666704,
      "v": 49
    },
    {
      "midi": 50,
      "hit": false,
      "t": 55735.78500000002,
      "d": 176.9389999999985,
      "v": 49
    },
    {
      "midi": 70,
      "hit": false,
      "t": 55735.78500000002,
      "d": 213.80129166666302,
      "v": 57
    },
    {
      "midi": 46,
      "hit": false,
      "t": 56030.68333333335,
      "d": 154.82162499999686,
      "v": 58
    },
    {
      "midi": 50,
      "hit": false,
      "t": 56030.68333333335,
      "d": 154.82162499999686,
      "v": 58
    },
    {
      "midi": 58,
      "hit": false,
      "t": 56030.68333333335,
      "d": 154.82162499999686,
      "v": 58
    },
    {
      "midi": 62,
      "hit": false,
      "t": 56030.68333333335,
      "d": 154.82162499999686,
      "v": 58
    },
    {
      "midi": 65,
      "hit": false,
      "t": 56030.68333333335,
      "d": 154.82162499999686,
      "v": 49
    },
    {
      "midi": 68,
      "hit": false,
      "t": 56030.68333333335,
      "d": 154.82162499999686,
      "v": 49
    },
    {
      "midi": 70,
      "hit": false,
      "t": 56030.68333333335,
      "d": 235.91866666666465,
      "v": 55
    },
    {
      "midi": 46,
      "hit": false,
      "t": 56325.58166666668,
      "d": 169.56654166666704,
      "v": 45
    },
    {
      "midi": 50,
      "hit": false,
      "t": 56325.58166666668,
      "d": 169.56654166666704,
      "v": 45
    },
    {
      "midi": 58,
      "hit": false,
      "t": 56325.58166666668,
      "d": 169.56654166666704,
      "v": 45
    },
    {
      "midi": 70,
      "hit": false,
      "t": 56325.58166666668,
      "d": 199.05637500000012,
      "v": 58
    },
    {
      "midi": 62,
      "hit": false,
      "t": 56325.58166666668,
      "d": 228.5462083333332,
      "v": 45
    },
    {
      "midi": 65,
      "hit": false,
      "t": 56325.58166666668,
      "d": 250.66358333333483,
      "v": 45
    },
    {
      "midi": 68,
      "hit": false,
      "t": 56325.58166666668,
      "d": 250.66358333333483,
      "v": 45
    },
    {
      "midi": 46,
      "hit": false,
      "t": 56620.48000000002,
      "d": 213.8012916666703,
      "v": 52
    },
    {
      "midi": 50,
      "hit": false,
      "t": 56620.48000000002,
      "d": 213.8012916666703,
      "v": 52
    },
    {
      "midi": 58,
      "hit": false,
      "t": 56620.48000000002,
      "d": 213.8012916666703,
      "v": 52
    },
    {
      "midi": 62,
      "hit": false,
      "t": 56620.48000000002,
      "d": 213.8012916666703,
      "v": 52
    },
    {
      "midi": 65,
      "hit": false,
      "t": 56620.48000000002,
      "d": 213.8012916666703,
      "v": 41
    },
    {
      "midi": 68,
      "hit": false,
      "t": 56620.48000000002,
      "d": 213.8012916666703,
      "v": 41
    },
    {
      "midi": 70,
      "hit": false,
      "t": 56620.48000000002,
      "d": 258.03604166667355,
      "v": 52
    },
    {
      "midi": 46,
      "hit": false,
      "t": 56915.378333333356,
      "d": 162.19408333333558,
      "v": 47
    },
    {
      "midi": 50,
      "hit": false,
      "t": 56915.378333333356,
      "d": 162.19408333333558,
      "v": 47
    },
    {
      "midi": 58,
      "hit": false,
      "t": 56915.378333333356,
      "d": 162.19408333333558,
      "v": 47
    },
    {
      "midi": 62,
      "hit": false,
      "t": 56915.378333333356,
      "d": 162.19408333333558,
      "v": 47
    },
    {
      "midi": 65,
      "hit": false,
      "t": 56915.378333333356,
      "d": 162.19408333333558,
      "v": 47
    },
    {
      "midi": 68,
      "hit": false,
      "t": 56915.378333333356,
      "d": 162.19408333333558,
      "v": 47
    },
    {
      "midi": 70,
      "hit": false,
      "t": 56915.378333333356,
      "d": 258.0360416666663,
      "v": 54
    },
    {
      "midi": 46,
      "hit": false,
      "t": 57210.27666666669,
      "d": 199.05637500000012,
      "v": 55
    },
    {
      "midi": 50,
      "hit": false,
      "t": 57210.27666666669,
      "d": 199.05637500000012,
      "v": 55
    },
    {
      "midi": 58,
      "hit": false,
      "t": 57210.27666666669,
      "d": 199.05637500000012,
      "v": 55
    },
    {
      "midi": 62,
      "hit": false,
      "t": 57210.27666666669,
      "d": 199.05637500000012,
      "v": 55
    },
    {
      "midi": 65,
      "hit": false,
      "t": 57210.27666666669,
      "d": 199.05637500000012,
      "v": 44
    },
    {
      "midi": 68,
      "hit": false,
      "t": 57210.27666666669,
      "d": 199.05637500000012,
      "v": 44
    },
    {
      "midi": 70,
      "hit": false,
      "t": 57210.27666666669,
      "d": 258.0360416666663,
      "v": 54
    },
    {
      "midi": 46,
      "hit": false,
      "t": 57505.17500000002,
      "d": 176.9389999999985,
      "v": 46
    },
    {
      "midi": 50,
      "hit": false,
      "t": 57505.17500000002,
      "d": 176.9389999999985,
      "v": 46
    },
    {
      "midi": 58,
      "hit": false,
      "t": 57505.17500000002,
      "d": 176.9389999999985,
      "v": 46
    },
    {
      "midi": 62,
      "hit": false,
      "t": 57505.17500000002,
      "d": 176.9389999999985,
      "v": 46
    },
    {
      "midi": 65,
      "hit": false,
      "t": 57505.17500000002,
      "d": 176.9389999999985,
      "v": 46
    },
    {
      "midi": 68,
      "hit": false,
      "t": 57505.17500000002,
      "d": 176.9389999999985,
      "v": 46
    },
    {
      "midi": 70,
      "hit": false,
      "t": 57505.17500000002,
      "d": 258.0360416666663,
      "v": 54
    },
    {
      "midi": 46,
      "hit": false,
      "t": 57800.07333333335,
      "d": 147.4491666666654,
      "v": 48
    },
    {
      "midi": 50,
      "hit": false,
      "t": 57800.07333333335,
      "d": 147.4491666666654,
      "v": 48
    },
    {
      "midi": 58,
      "hit": false,
      "t": 57800.07333333335,
      "d": 147.4491666666654,
      "v": 48
    },
    {
      "midi": 62,
      "hit": false,
      "t": 57800.07333333335,
      "d": 147.4491666666654,
      "v": 48
    },
    {
      "midi": 65,
      "hit": false,
      "t": 57800.07333333335,
      "d": 147.4491666666654,
      "v": 48
    },
    {
      "midi": 68,
      "hit": false,
      "t": 57800.07333333335,
      "d": 147.4491666666654,
      "v": 48
    },
    {
      "midi": 70,
      "hit": false,
      "t": 57800.07333333335,
      "d": 191.68391666666867,
      "v": 53
    },
    {
      "midi": 46,
      "hit": false,
      "t": 58094.971666666686,
      "d": 176.9389999999985,
      "v": 49
    },
    {
      "midi": 50,
      "hit": false,
      "t": 58094.971666666686,
      "d": 176.9389999999985,
      "v": 49
    },
    {
      "midi": 58,
      "hit": false,
      "t": 58094.971666666686,
      "d": 176.9389999999985,
      "v": 49
    },
    {
      "midi": 62,
      "hit": false,
      "t": 58094.971666666686,
      "d": 176.9389999999985,
      "v": 49
    },
    {
      "midi": 65,
      "hit": false,
      "t": 58094.971666666686,
      "d": 176.9389999999985,
      "v": 49
    },
    {
      "midi": 68,
      "hit": false,
      "t": 58094.971666666686,
      "d": 176.9389999999985,
      "v": 49
    },
    {
      "midi": 70,
      "hit": false,
      "t": 58094.971666666686,
      "d": 199.05637500000012,
      "v": 55
    },
    {
      "midi": 46,
      "hit": false,
      "t": 58389.87000000002,
      "d": 206.42883333333157,
      "v": 57
    },
    {
      "midi": 50,
      "hit": false,
      "t": 58389.87000000002,
      "d": 206.42883333333157,
      "v": 57
    },
    {
      "midi": 58,
      "hit": false,
      "t": 58389.87000000002,
      "d": 206.42883333333157,
      "v": 57
    },
    {
      "midi": 62,
      "hit": false,
      "t": 58389.87000000002,
      "d": 206.42883333333157,
      "v": 57
    },
    {
      "midi": 65,
      "hit": false,
      "t": 58389.87000000002,
      "d": 206.42883333333157,
      "v": 46
    },
    {
      "midi": 68,
      "hit": false,
      "t": 58389.87000000002,
      "d": 206.42883333333157,
      "v": 46
    },
    {
      "midi": 70,
      "hit": false,
      "t": 58389.87000000002,
      "d": 213.80129166666302,
      "v": 55
    },
    {
      "midi": 46,
      "hit": false,
      "t": 58684.76833333335,
      "d": 184.31145833332994,
      "v": 49
    },
    {
      "midi": 50,
      "hit": false,
      "t": 58684.76833333335,
      "d": 184.31145833332994,
      "v": 49
    },
    {
      "midi": 58,
      "hit": false,
      "t": 58684.76833333335,
      "d": 184.31145833332994,
      "v": 49
    },
    {
      "midi": 62,
      "hit": false,
      "t": 58684.76833333335,
      "d": 184.31145833332994,
      "v": 49
    },
    {
      "midi": 70,
      "hit": false,
      "t": 58684.76833333335,
      "d": 199.05637500000012,
      "v": 43
    },
    {
      "midi": 65,
      "hit": false,
      "t": 58684.76833333335,
      "d": 235.91866666666465,
      "v": 49
    },
    {
      "midi": 68,
      "hit": false,
      "t": 58684.76833333335,
      "d": 235.91866666666465,
      "v": 49
    },
    {
      "midi": 46,
      "hit": false,
      "t": 58979.66666666668,
      "d": 206.42883333333157,
      "v": 57
    },
    {
      "midi": 50,
      "hit": false,
      "t": 58979.66666666668,
      "d": 206.42883333333157,
      "v": 57
    },
    {
      "midi": 58,
      "hit": false,
      "t": 58979.66666666668,
      "d": 206.42883333333157,
      "v": 57
    },
    {
      "midi": 62,
      "hit": false,
      "t": 58979.66666666668,
      "d": 206.42883333333157,
      "v": 57
    },
    {
      "midi": 65,
      "hit": false,
      "t": 58979.66666666668,
      "d": 206.42883333333157,
      "v": 48
    },
    {
      "midi": 68,
      "hit": false,
      "t": 58979.66666666668,
      "d": 206.42883333333157,
      "v": 48
    },
    {
      "midi": 70,
      "hit": false,
      "t": 58979.66666666668,
      "d": 221.17375000000175,
      "v": 44
    },
    {
      "midi": 46,
      "hit": false,
      "t": 59274.56500000002,
      "d": 169.56654166666704,
      "v": 49
    },
    {
      "midi": 58,
      "hit": false,
      "t": 59274.56500000002,
      "d": 169.56654166666704,
      "v": 49
    },
    {
      "midi": 62,
      "hit": false,
      "t": 59274.56500000002,
      "d": 169.56654166666704,
      "v": 49
    },
    {
      "midi": 65,
      "hit": false,
      "t": 59274.56500000002,
      "d": 169.56654166666704,
      "v": 49
    },
    {
      "midi": 68,
      "hit": false,
      "t": 59274.56500000002,
      "d": 169.56654166666704,
      "v": 49
    },
    {
      "midi": 50,
      "hit": false,
      "t": 59274.56500000002,
      "d": 176.9389999999985,
      "v": 49
    },
    {
      "midi": 70,
      "hit": false,
      "t": 59274.56500000002,
      "d": 213.80129166666302,
      "v": 57
    },
    {
      "midi": 46,
      "hit": false,
      "t": 59569.46333333335,
      "d": 154.82162499999686,
      "v": 58
    },
    {
      "midi": 50,
      "hit": false,
      "t": 59569.46333333335,
      "d": 154.82162499999686,
      "v": 58
    },
    {
      "midi": 58,
      "hit": false,
      "t": 59569.46333333335,
      "d": 154.82162499999686,
      "v": 58
    },
    {
      "midi": 62,
      "hit": false,
      "t": 59569.46333333335,
      "d": 154.82162499999686,
      "v": 58
    },
    {
      "midi": 65,
      "hit": false,
      "t": 59569.46333333335,
      "d": 154.82162499999686,
      "v": 49
    },
    {
      "midi": 68,
      "hit": false,
      "t": 59569.46333333335,
      "d": 154.82162499999686,
      "v": 49
    },
    {
      "midi": 70,
      "hit": false,
      "t": 59569.46333333335,
      "d": 235.91866666666465,
      "v": 55
    },
    {
      "midi": 46,
      "hit": false,
      "t": 59864.36166666668,
      "d": 169.56654166666704,
      "v": 45
    },
    {
      "midi": 50,
      "hit": false,
      "t": 59864.36166666668,
      "d": 169.56654166666704,
      "v": 45
    },
    {
      "midi": 58,
      "hit": false,
      "t": 59864.36166666668,
      "d": 169.56654166666704,
      "v": 45
    },
    {
      "midi": 70,
      "hit": false,
      "t": 59864.36166666668,
      "d": 199.05637500000012,
      "v": 58
    },
    {
      "midi": 62,
      "hit": false,
      "t": 59864.36166666668,
      "d": 228.5462083333332,
      "v": 45
    },
    {
      "midi": 65,
      "hit": false,
      "t": 59864.36166666668,
      "d": 250.66358333333483,
      "v": 45
    },
    {
      "midi": 68,
      "hit": false,
      "t": 59864.36166666668,
      "d": 250.66358333333483,
      "v": 45
    },
    {
      "midi": 46,
      "hit": false,
      "t": 60159.26000000002,
      "d": 213.8012916666703,
      "v": 52
    },
    {
      "midi": 51,
      "hit": false,
      "t": 60159.26000000002,
      "d": 213.8012916666703,
      "v": 52
    },
    {
      "midi": 58,
      "hit": false,
      "t": 60159.26000000002,
      "d": 213.8012916666703,
      "v": 52
    },
    {
      "midi": 63,
      "hit": false,
      "t": 60159.26000000002,
      "d": 213.8012916666703,
      "v": 52
    },
    {
      "midi": 67,
      "hit": false,
      "t": 60159.26000000002,
      "d": 213.8012916666703,
      "v": 41
    },
    {
      "midi": 70,
      "hit": false,
      "t": 60159.26000000002,
      "d": 258.03604166667355,
      "v": 52
    },
    {
      "midi": 46,
      "hit": false,
      "t": 60454.158333333355,
      "d": 162.19408333333558,
      "v": 47
    },
    {
      "midi": 51,
      "hit": false,
      "t": 60454.158333333355,
      "d": 162.19408333333558,
      "v": 47
    },
    {
      "midi": 58,
      "hit": false,
      "t": 60454.158333333355,
      "d": 162.19408333333558,
      "v": 47
    },
    {
      "midi": 63,
      "hit": false,
      "t": 60454.158333333355,
      "d": 162.19408333333558,
      "v": 47
    },
    {
      "midi": 67,
      "hit": false,
      "t": 60454.158333333355,
      "d": 162.19408333333558,
      "v": 47
    },
    {
      "midi": 70,
      "hit": false,
      "t": 60454.158333333355,
      "d": 258.0360416666663,
      "v": 54
    },
    {
      "midi": 46,
      "hit": false,
      "t": 60749.056666666685,
      "d": 199.05637500000012,
      "v": 55
    },
    {
      "midi": 51,
      "hit": false,
      "t": 60749.056666666685,
      "d": 199.05637500000012,
      "v": 55
    },
    {
      "midi": 58,
      "hit": false,
      "t": 60749.056666666685,
      "d": 199.05637500000012,
      "v": 55
    },
    {
      "midi": 63,
      "hit": false,
      "t": 60749.056666666685,
      "d": 199.05637500000012,
      "v": 55
    },
    {
      "midi": 67,
      "hit": false,
      "t": 60749.056666666685,
      "d": 199.05637500000012,
      "v": 44
    },
    {
      "midi": 70,
      "hit": false,
      "t": 60749.056666666685,
      "d": 258.0360416666663,
      "v": 54
    },
    {
      "midi": 46,
      "hit": false,
      "t": 61043.955000000016,
      "d": 176.9389999999985,
      "v": 46
    },
    {
      "midi": 51,
      "hit": false,
      "t": 61043.955000000016,
      "d": 176.9389999999985,
      "v": 46
    },
    {
      "midi": 58,
      "hit": false,
      "t": 61043.955000000016,
      "d": 176.9389999999985,
      "v": 46
    },
    {
      "midi": 63,
      "hit": false,
      "t": 61043.955000000016,
      "d": 176.9389999999985,
      "v": 46
    },
    {
      "midi": 67,
      "hit": false,
      "t": 61043.955000000016,
      "d": 176.9389999999985,
      "v": 46
    },
    {
      "midi": 70,
      "hit": false,
      "t": 61043.955000000016,
      "d": 258.0360416666663,
      "v": 54
    },
    {
      "midi": 46,
      "hit": false,
      "t": 61338.85333333335,
      "d": 147.4491666666654,
      "v": 48
    },
    {
      "midi": 51,
      "hit": false,
      "t": 61338.85333333335,
      "d": 147.4491666666654,
      "v": 48
    },
    {
      "midi": 58,
      "hit": false,
      "t": 61338.85333333335,
      "d": 147.4491666666654,
      "v": 48
    },
    {
      "midi": 63,
      "hit": false,
      "t": 61338.85333333335,
      "d": 147.4491666666654,
      "v": 48
    },
    {
      "midi": 67,
      "hit": false,
      "t": 61338.85333333335,
      "d": 147.4491666666654,
      "v": 48
    },
    {
      "midi": 70,
      "hit": false,
      "t": 61338.85333333335,
      "d": 191.68391666666867,
      "v": 53
    },
    {
      "midi": 46,
      "hit": false,
      "t": 61633.751666666685,
      "d": 176.9389999999985,
      "v": 49
    },
    {
      "midi": 51,
      "hit": false,
      "t": 61633.751666666685,
      "d": 176.9389999999985,
      "v": 49
    },
    {
      "midi": 58,
      "hit": false,
      "t": 61633.751666666685,
      "d": 176.9389999999985,
      "v": 49
    },
    {
      "midi": 63,
      "hit": false,
      "t": 61633.751666666685,
      "d": 176.9389999999985,
      "v": 49
    },
    {
      "midi": 67,
      "hit": false,
      "t": 61633.751666666685,
      "d": 176.9389999999985,
      "v": 49
    },
    {
      "midi": 70,
      "hit": false,
      "t": 61633.751666666685,
      "d": 199.05637500000012,
      "v": 55
    },
    {
      "midi": 46,
      "hit": false,
      "t": 61928.650000000016,
      "d": 206.42883333333157,
      "v": 57
    },
    {
      "midi": 51,
      "hit": false,
      "t": 61928.650000000016,
      "d": 206.42883333333157,
      "v": 57
    },
    {
      "midi": 58,
      "hit": false,
      "t": 61928.650000000016,
      "d": 206.42883333333157,
      "v": 57
    },
    {
      "midi": 63,
      "hit": false,
      "t": 61928.650000000016,
      "d": 206.42883333333157,
      "v": 57
    },
    {
      "midi": 67,
      "hit": false,
      "t": 61928.650000000016,
      "d": 206.42883333333157,
      "v": 46
    },
    {
      "midi": 70,
      "hit": false,
      "t": 61928.650000000016,
      "d": 213.80129166666302,
      "v": 55
    },
    {
      "midi": 46,
      "hit": false,
      "t": 62223.54833333335,
      "d": 184.31145833332994,
      "v": 49
    },
    {
      "midi": 51,
      "hit": false,
      "t": 62223.54833333335,
      "d": 184.31145833332994,
      "v": 49
    },
    {
      "midi": 58,
      "hit": false,
      "t": 62223.54833333335,
      "d": 184.31145833332994,
      "v": 49
    },
    {
      "midi": 63,
      "hit": false,
      "t": 62223.54833333335,
      "d": 184.31145833332994,
      "v": 49
    },
    {
      "midi": 70,
      "hit": false,
      "t": 62223.54833333335,
      "d": 199.05637500000012,
      "v": 43
    },
    {
      "midi": 67,
      "hit": false,
      "t": 62223.54833333335,
      "d": 235.91866666666465,
      "v": 49
    },
    {
      "midi": 46,
      "hit": false,
      "t": 62518.44666666668,
      "d": 206.42883333333157,
      "v": 57
    },
    {
      "midi": 51,
      "hit": false,
      "t": 62518.44666666668,
      "d": 206.42883333333157,
      "v": 57
    },
    {
      "midi": 58,
      "hit": false,
      "t": 62518.44666666668,
      "d": 206.42883333333157,
      "v": 57
    },
    {
      "midi": 63,
      "hit": false,
      "t": 62518.44666666668,
      "d": 206.42883333333157,
      "v": 57
    },
    {
      "midi": 67,
      "hit": false,
      "t": 62518.44666666668,
      "d": 206.42883333333157,
      "v": 48
    },
    {
      "midi": 70,
      "hit": false,
      "t": 62518.44666666668,
      "d": 221.17375000000175,
      "v": 44
    },
    {
      "midi": 46,
      "hit": false,
      "t": 62813.345000000016,
      "d": 169.56654166666704,
      "v": 49
    },
    {
      "midi": 58,
      "hit": false,
      "t": 62813.345000000016,
      "d": 169.56654166666704,
      "v": 49
    },
    {
      "midi": 63,
      "hit": false,
      "t": 62813.345000000016,
      "d": 169.56654166666704,
      "v": 49
    },
    {
      "midi": 67,
      "hit": false,
      "t": 62813.345000000016,
      "d": 169.56654166666704,
      "v": 49
    },
    {
      "midi": 51,
      "hit": false,
      "t": 62813.345000000016,
      "d": 176.9389999999985,
      "v": 49
    },
    {
      "midi": 70,
      "hit": false,
      "t": 62813.345000000016,
      "d": 213.80129166666302,
      "v": 57
    },
    {
      "midi": 46,
      "hit": false,
      "t": 63108.24333333335,
      "d": 154.82162499999686,
      "v": 58
    },
    {
      "midi": 51,
      "hit": false,
      "t": 63108.24333333335,
      "d": 154.82162499999686,
      "v": 58
    },
    {
      "midi": 58,
      "hit": false,
      "t": 63108.24333333335,
      "d": 154.82162499999686,
      "v": 58
    },
    {
      "midi": 63,
      "hit": false,
      "t": 63108.24333333335,
      "d": 154.82162499999686,
      "v": 58
    },
    {
      "midi": 67,
      "hit": false,
      "t": 63108.24333333335,
      "d": 154.82162499999686,
      "v": 49
    },
    {
      "midi": 70,
      "hit": false,
      "t": 63108.24333333335,
      "d": 235.91866666666465,
      "v": 55
    },
    {
      "midi": 46,
      "hit": false,
      "t": 63403.14166666668,
      "d": 169.56654166666704,
      "v": 45
    },
    {
      "midi": 51,
      "hit": false,
      "t": 63403.14166666668,
      "d": 169.56654166666704,
      "v": 45
    },
    {
      "midi": 58,
      "hit": false,
      "t": 63403.14166666668,
      "d": 169.56654166666704,
      "v": 45
    },
    {
      "midi": 70,
      "hit": false,
      "t": 63403.14166666668,
      "d": 199.05637500000012,
      "v": 58
    },
    {
      "midi": 63,
      "hit": false,
      "t": 63403.14166666668,
      "d": 228.5462083333332,
      "v": 45
    },
    {
      "midi": 67,
      "hit": false,
      "t": 63403.14166666668,
      "d": 250.66358333333483,
      "v": 45
    },
    {
      "midi": 46,
      "hit": false,
      "t": 63698.040000000015,
      "d": 213.8012916666703,
      "v": 52
    },
    {
      "midi": 51,
      "hit": false,
      "t": 63698.040000000015,
      "d": 213.8012916666703,
      "v": 52
    },
    {
      "midi": 58,
      "hit": false,
      "t": 63698.040000000015,
      "d": 213.8012916666703,
      "v": 52
    },
    {
      "midi": 63,
      "hit": false,
      "t": 63698.040000000015,
      "d": 213.8012916666703,
      "v": 52
    },
    {
      "midi": 67,
      "hit": false,
      "t": 63698.040000000015,
      "d": 213.8012916666703,
      "v": 41
    },
    {
      "midi": 70,
      "hit": false,
      "t": 63698.040000000015,
      "d": 258.03604166667355,
      "v": 52
    },
    {
      "midi": 46,
      "hit": false,
      "t": 63992.93833333335,
      "d": 162.19408333333558,
      "v": 47
    },
    {
      "midi": 51,
      "hit": false,
      "t": 63992.93833333335,
      "d": 162.19408333333558,
      "v": 47
    },
    {
      "midi": 58,
      "hit": false,
      "t": 63992.93833333335,
      "d": 162.19408333333558,
      "v": 47
    },
    {
      "midi": 63,
      "hit": false,
      "t": 63992.93833333335,
      "d": 162.19408333333558,
      "v": 47
    },
    {
      "midi": 67,
      "hit": false,
      "t": 63992.93833333335,
      "d": 162.19408333333558,
      "v": 47
    },
    {
      "midi": 70,
      "hit": false,
      "t": 63992.93833333335,
      "d": 258.0360416666663,
      "v": 54
    },
    {
      "midi": 46,
      "hit": false,
      "t": 64287.836666666684,
      "d": 199.05637500000012,
      "v": 55
    },
    {
      "midi": 51,
      "hit": false,
      "t": 64287.836666666684,
      "d": 199.05637500000012,
      "v": 55
    },
    {
      "midi": 58,
      "hit": false,
      "t": 64287.836666666684,
      "d": 199.05637500000012,
      "v": 55
    },
    {
      "midi": 63,
      "hit": false,
      "t": 64287.836666666684,
      "d": 199.05637500000012,
      "v": 55
    },
    {
      "midi": 67,
      "hit": false,
      "t": 64287.836666666684,
      "d": 199.05637500000012,
      "v": 44
    },
    {
      "midi": 70,
      "hit": false,
      "t": 64287.836666666684,
      "d": 258.0360416666663,
      "v": 54
    },
    {
      "midi": 46,
      "hit": false,
      "t": 64582.735000000015,
      "d": 176.9389999999985,
      "v": 46
    },
    {
      "midi": 51,
      "hit": false,
      "t": 64582.735000000015,
      "d": 176.9389999999985,
      "v": 46
    },
    {
      "midi": 58,
      "hit": false,
      "t": 64582.735000000015,
      "d": 176.9389999999985,
      "v": 46
    },
    {
      "midi": 63,
      "hit": false,
      "t": 64582.735000000015,
      "d": 176.9389999999985,
      "v": 46
    },
    {
      "midi": 67,
      "hit": false,
      "t": 64582.735000000015,
      "d": 176.9389999999985,
      "v": 46
    },
    {
      "midi": 70,
      "hit": false,
      "t": 64582.735000000015,
      "d": 258.0360416666663,
      "v": 54
    },
    {
      "midi": 46,
      "hit": false,
      "t": 64877.633333333346,
      "d": 147.4491666666654,
      "v": 48
    },
    {
      "midi": 51,
      "hit": false,
      "t": 64877.633333333346,
      "d": 147.4491666666654,
      "v": 48
    },
    {
      "midi": 58,
      "hit": false,
      "t": 64877.633333333346,
      "d": 147.4491666666654,
      "v": 48
    },
    {
      "midi": 63,
      "hit": false,
      "t": 64877.633333333346,
      "d": 147.4491666666654,
      "v": 48
    },
    {
      "midi": 67,
      "hit": false,
      "t": 64877.633333333346,
      "d": 147.4491666666654,
      "v": 48
    },
    {
      "midi": 70,
      "hit": false,
      "t": 64877.633333333346,
      "d": 191.68391666666867,
      "v": 53
    },
    {
      "midi": 46,
      "hit": false,
      "t": 65172.531666666684,
      "d": 176.9389999999985,
      "v": 49
    },
    {
      "midi": 51,
      "hit": false,
      "t": 65172.531666666684,
      "d": 176.9389999999985,
      "v": 49
    },
    {
      "midi": 58,
      "hit": false,
      "t": 65172.531666666684,
      "d": 176.9389999999985,
      "v": 49
    },
    {
      "midi": 63,
      "hit": false,
      "t": 65172.531666666684,
      "d": 176.9389999999985,
      "v": 49
    },
    {
      "midi": 67,
      "hit": false,
      "t": 65172.531666666684,
      "d": 176.9389999999985,
      "v": 49
    },
    {
      "midi": 70,
      "hit": false,
      "t": 65172.531666666684,
      "d": 199.05637500000012,
      "v": 55
    },
    {
      "midi": 46,
      "hit": false,
      "t": 65467.430000000015,
      "d": 206.42883333333157,
      "v": 57
    },
    {
      "midi": 51,
      "hit": false,
      "t": 65467.430000000015,
      "d": 206.42883333333157,
      "v": 57
    },
    {
      "midi": 58,
      "hit": false,
      "t": 65467.430000000015,
      "d": 206.42883333333157,
      "v": 57
    },
    {
      "midi": 63,
      "hit": false,
      "t": 65467.430000000015,
      "d": 206.42883333333157,
      "v": 57
    },
    {
      "midi": 67,
      "hit": false,
      "t": 65467.430000000015,
      "d": 206.42883333333157,
      "v": 46
    },
    {
      "midi": 70,
      "hit": false,
      "t": 65467.430000000015,
      "d": 213.8012916666703,
      "v": 55
    },
    {
      "midi": 46,
      "hit": false,
      "t": 65762.32833333335,
      "d": 184.3114583333372,
      "v": 49
    },
    {
      "midi": 51,
      "hit": false,
      "t": 65762.32833333335,
      "d": 184.3114583333372,
      "v": 49
    },
    {
      "midi": 58,
      "hit": false,
      "t": 65762.32833333335,
      "d": 184.3114583333372,
      "v": 49
    },
    {
      "midi": 63,
      "hit": false,
      "t": 65762.32833333335,
      "d": 184.3114583333372,
      "v": 49
    },
    {
      "midi": 70,
      "hit": false,
      "t": 65762.32833333335,
      "d": 199.05637500000012,
      "v": 43
    },
    {
      "midi": 67,
      "hit": false,
      "t": 65762.32833333335,
      "d": 235.91866666666465,
      "v": 49
    },
    {
      "midi": 46,
      "hit": false,
      "t": 66057.22666666668,
      "d": 206.42883333333884,
      "v": 57
    },
    {
      "midi": 51,
      "hit": false,
      "t": 66057.22666666668,
      "d": 206.42883333333884,
      "v": 57
    },
    {
      "midi": 58,
      "hit": false,
      "t": 66057.22666666668,
      "d": 206.42883333333884,
      "v": 57
    },
    {
      "midi": 63,
      "hit": false,
      "t": 66057.22666666668,
      "d": 206.42883333333884,
      "v": 57
    },
    {
      "midi": 67,
      "hit": false,
      "t": 66057.22666666668,
      "d": 206.42883333333884,
      "v": 48
    },
    {
      "midi": 70,
      "hit": false,
      "t": 66057.22666666668,
      "d": 221.17375000000175,
      "v": 44
    },
    {
      "midi": 46,
      "hit": false,
      "t": 66352.12500000001,
      "d": 169.56654166665976,
      "v": 49
    },
    {
      "midi": 58,
      "hit": false,
      "t": 66352.12500000001,
      "d": 169.56654166665976,
      "v": 49
    },
    {
      "midi": 63,
      "hit": false,
      "t": 66352.12500000001,
      "d": 169.56654166665976,
      "v": 49
    },
    {
      "midi": 67,
      "hit": false,
      "t": 66352.12500000001,
      "d": 169.56654166665976,
      "v": 49
    },
    {
      "midi": 51,
      "hit": false,
      "t": 66352.12500000001,
      "d": 176.9389999999985,
      "v": 49
    },
    {
      "midi": 70,
      "hit": false,
      "t": 66352.12500000001,
      "d": 213.80129166666302,
      "v": 57
    },
    {
      "midi": 46,
      "hit": false,
      "t": 66647.02333333335,
      "d": 154.82162499999686,
      "v": 58
    },
    {
      "midi": 51,
      "hit": false,
      "t": 66647.02333333335,
      "d": 154.82162499999686,
      "v": 58
    },
    {
      "midi": 58,
      "hit": false,
      "t": 66647.02333333335,
      "d": 154.82162499999686,
      "v": 58
    },
    {
      "midi": 63,
      "hit": false,
      "t": 66647.02333333335,
      "d": 154.82162499999686,
      "v": 58
    },
    {
      "midi": 67,
      "hit": false,
      "t": 66647.02333333335,
      "d": 154.82162499999686,
      "v": 49
    },
    {
      "midi": 70,
      "hit": false,
      "t": 66647.02333333335,
      "d": 235.91866666666465,
      "v": 55
    },
    {
      "midi": 46,
      "hit": false,
      "t": 66941.92166666668,
      "d": 169.56654166665976,
      "v": 45
    },
    {
      "midi": 51,
      "hit": false,
      "t": 66941.92166666668,
      "d": 169.56654166665976,
      "v": 45
    },
    {
      "midi": 58,
      "hit": false,
      "t": 66941.92166666668,
      "d": 169.56654166665976,
      "v": 45
    },
    {
      "midi": 70,
      "hit": false,
      "t": 66941.92166666668,
      "d": 199.05637500000012,
      "v": 58
    },
    {
      "midi": 63,
      "hit": false,
      "t": 66941.92166666668,
      "d": 228.54620833334047,
      "v": 45
    },
    {
      "midi": 67,
      "hit": false,
      "t": 66941.92166666668,
      "d": 250.6635833333421,
      "v": 45
    },
    {
      "midi": 44,
      "hit": false,
      "t": 67236.82000000002,
      "d": 213.80129166666302,
      "v": 52
    },
    {
      "midi": 48,
      "hit": false,
      "t": 67236.82000000002,
      "d": 213.80129166666302,
      "v": 52
    },
    {
      "midi": 56,
      "hit": false,
      "t": 67236.82000000002,
      "d": 213.80129166666302,
      "v": 52
    },
    {
      "midi": 60,
      "hit": false,
      "t": 67236.82000000002,
      "d": 213.80129166666302,
      "v": 52
    },
    {
      "midi": 63,
      "hit": false,
      "t": 67236.82000000002,
      "d": 213.80129166666302,
      "v": 41
    },
    {
      "midi": 68,
      "hit": false,
      "t": 67236.82000000002,
      "d": 258.0360416666663,
      "v": 52
    },
    {
      "midi": 44,
      "hit": false,
      "t": 67531.71833333335,
      "d": 162.19408333333558,
      "v": 47
    },
    {
      "midi": 48,
      "hit": false,
      "t": 67531.71833333335,
      "d": 162.19408333333558,
      "v": 47
    },
    {
      "midi": 56,
      "hit": false,
      "t": 67531.71833333335,
      "d": 162.19408333333558,
      "v": 47
    },
    {
      "midi": 60,
      "hit": false,
      "t": 67531.71833333335,
      "d": 162.19408333333558,
      "v": 47
    },
    {
      "midi": 63,
      "hit": false,
      "t": 67531.71833333335,
      "d": 162.19408333333558,
      "v": 47
    },
    {
      "midi": 68,
      "hit": false,
      "t": 67531.71833333335,
      "d": 258.0360416666663,
      "v": 54
    },
    {
      "midi": 44,
      "hit": false,
      "t": 67826.61666666668,
      "d": 199.05637500000012,
      "v": 55
    },
    {
      "midi": 48,
      "hit": false,
      "t": 67826.61666666668,
      "d": 199.05637500000012,
      "v": 55
    },
    {
      "midi": 56,
      "hit": false,
      "t": 67826.61666666668,
      "d": 199.05637500000012,
      "v": 55
    },
    {
      "midi": 60,
      "hit": false,
      "t": 67826.61666666668,
      "d": 199.05637500000012,
      "v": 55
    },
    {
      "midi": 63,
      "hit": false,
      "t": 67826.61666666668,
      "d": 199.05637500000012,
      "v": 44
    },
    {
      "midi": 68,
      "hit": false,
      "t": 67826.61666666668,
      "d": 258.0360416666663,
      "v": 54
    },
    {
      "midi": 44,
      "hit": false,
      "t": 68121.51500000001,
      "d": 176.9389999999985,
      "v": 46
    },
    {
      "midi": 48,
      "hit": false,
      "t": 68121.51500000001,
      "d": 176.9389999999985,
      "v": 46
    },
    {
      "midi": 56,
      "hit": false,
      "t": 68121.51500000001,
      "d": 176.9389999999985,
      "v": 46
    },
    {
      "midi": 60,
      "hit": false,
      "t": 68121.51500000001,
      "d": 176.9389999999985,
      "v": 46
    },
    {
      "midi": 63,
      "hit": false,
      "t": 68121.51500000001,
      "d": 176.9389999999985,
      "v": 46
    },
    {
      "midi": 68,
      "hit": false,
      "t": 68121.51500000001,
      "d": 258.0360416666663,
      "v": 54
    },
    {
      "midi": 44,
      "hit": false,
      "t": 68416.41333333334,
      "d": 147.44916666667268,
      "v": 48
    },
    {
      "midi": 48,
      "hit": false,
      "t": 68416.41333333334,
      "d": 147.44916666667268,
      "v": 48
    },
    {
      "midi": 56,
      "hit": false,
      "t": 68416.41333333334,
      "d": 147.44916666667268,
      "v": 48
    },
    {
      "midi": 60,
      "hit": false,
      "t": 68416.41333333334,
      "d": 147.44916666667268,
      "v": 48
    },
    {
      "midi": 63,
      "hit": false,
      "t": 68416.41333333334,
      "d": 147.44916666667268,
      "v": 48
    },
    {
      "midi": 68,
      "hit": false,
      "t": 68416.41333333334,
      "d": 191.68391666667594,
      "v": 53
    },
    {
      "midi": 44,
      "hit": false,
      "t": 68711.31166666669,
      "d": 176.9389999999985,
      "v": 49
    },
    {
      "midi": 48,
      "hit": false,
      "t": 68711.31166666669,
      "d": 176.9389999999985,
      "v": 49
    },
    {
      "midi": 56,
      "hit": false,
      "t": 68711.31166666669,
      "d": 176.9389999999985,
      "v": 49
    },
    {
      "midi": 60,
      "hit": false,
      "t": 68711.31166666669,
      "d": 176.9389999999985,
      "v": 49
    },
    {
      "midi": 63,
      "hit": false,
      "t": 68711.31166666669,
      "d": 176.9389999999985,
      "v": 49
    },
    {
      "midi": 68,
      "hit": false,
      "t": 68711.31166666669,
      "d": 199.05637500000012,
      "v": 55
    },
    {
      "midi": 44,
      "hit": false,
      "t": 69006.21000000002,
      "d": 206.42883333333884,
      "v": 57
    },
    {
      "midi": 48,
      "hit": false,
      "t": 69006.21000000002,
      "d": 206.42883333333884,
      "v": 57
    },
    {
      "midi": 56,
      "hit": false,
      "t": 69006.21000000002,
      "d": 206.42883333333884,
      "v": 57
    },
    {
      "midi": 60,
      "hit": false,
      "t": 69006.21000000002,
      "d": 206.42883333333884,
      "v": 57
    },
    {
      "midi": 63,
      "hit": false,
      "t": 69006.21000000002,
      "d": 206.42883333333884,
      "v": 46
    },
    {
      "midi": 68,
      "hit": false,
      "t": 69006.21000000002,
      "d": 213.80129166667757,
      "v": 55
    },
    {
      "midi": 44,
      "hit": false,
      "t": 69301.10833333337,
      "d": 184.3114583333372,
      "v": 49
    },
    {
      "midi": 48,
      "hit": false,
      "t": 69301.10833333337,
      "d": 184.3114583333372,
      "v": 49
    },
    {
      "midi": 56,
      "hit": false,
      "t": 69301.10833333337,
      "d": 184.3114583333372,
      "v": 49
    },
    {
      "midi": 60,
      "hit": false,
      "t": 69301.10833333337,
      "d": 184.3114583333372,
      "v": 49
    },
    {
      "midi": 68,
      "hit": false,
      "t": 69301.10833333337,
      "d": 199.05637500000012,
      "v": 43
    },
    {
      "midi": 63,
      "hit": false,
      "t": 69301.10833333337,
      "d": 235.91866666666465,
      "v": 49
    },
    {
      "midi": 44,
      "hit": false,
      "t": 69596.0066666667,
      "d": 206.42883333333884,
      "v": 57
    },
    {
      "midi": 48,
      "hit": false,
      "t": 69596.0066666667,
      "d": 206.42883333333884,
      "v": 57
    },
    {
      "midi": 56,
      "hit": false,
      "t": 69596.0066666667,
      "d": 206.42883333333884,
      "v": 57
    },
    {
      "midi": 60,
      "hit": false,
      "t": 69596.0066666667,
      "d": 206.42883333333884,
      "v": 57
    },
    {
      "midi": 63,
      "hit": false,
      "t": 69596.0066666667,
      "d": 206.42883333333884,
      "v": 48
    },
    {
      "midi": 68,
      "hit": false,
      "t": 69596.0066666667,
      "d": 221.17375000000175,
      "v": 44
    },
    {
      "midi": 44,
      "hit": false,
      "t": 69890.90500000003,
      "d": 169.56654166665976,
      "v": 49
    },
    {
      "midi": 56,
      "hit": false,
      "t": 69890.90500000003,
      "d": 169.56654166665976,
      "v": 49
    },
    {
      "midi": 60,
      "hit": false,
      "t": 69890.90500000003,
      "d": 169.56654166665976,
      "v": 49
    },
    {
      "midi": 63,
      "hit": false,
      "t": 69890.90500000003,
      "d": 169.56654166665976,
      "v": 49
    },
    {
      "midi": 48,
      "hit": false,
      "t": 69890.90500000003,
      "d": 176.9389999999985,
      "v": 49
    },
    {
      "midi": 68,
      "hit": false,
      "t": 69890.90500000003,
      "d": 213.80129166666302,
      "v": 57
    },
    {
      "midi": 44,
      "hit": false,
      "t": 70185.80333333336,
      "d": 154.82162499999686,
      "v": 58
    },
    {
      "midi": 48,
      "hit": false,
      "t": 70185.80333333336,
      "d": 154.82162499999686,
      "v": 58
    },
    {
      "midi": 56,
      "hit": false,
      "t": 70185.80333333336,
      "d": 154.82162499999686,
      "v": 58
    },
    {
      "midi": 60,
      "hit": false,
      "t": 70185.80333333336,
      "d": 154.82162499999686,
      "v": 58
    },
    {
      "midi": 63,
      "hit": false,
      "t": 70185.80333333336,
      "d": 154.82162499999686,
      "v": 49
    },
    {
      "midi": 68,
      "hit": false,
      "t": 70185.80333333336,
      "d": 235.91866666666465,
      "v": 55
    },
    {
      "midi": 44,
      "hit": false,
      "t": 70480.70166666669,
      "d": 169.56654166665976,
      "v": 45
    },
    {
      "midi": 48,
      "hit": false,
      "t": 70480.70166666669,
      "d": 169.56654166665976,
      "v": 45
    },
    {
      "midi": 56,
      "hit": false,
      "t": 70480.70166666669,
      "d": 169.56654166665976,
      "v": 45
    },
    {
      "midi": 68,
      "hit": false,
      "t": 70480.70166666669,
      "d": 199.05637500000012,
      "v": 58
    },
    {
      "midi": 60,
      "hit": false,
      "t": 70480.70166666669,
      "d": 228.54620833334047,
      "v": 45
    },
    {
      "midi": 63,
      "hit": false,
      "t": 70480.70166666669,
      "d": 250.6635833333421,
      "v": 45
    },
    {
      "midi": 46,
      "hit": false,
      "t": 70775.60000000003,
      "d": 213.80129166666302,
      "v": 52
    },
    {
      "midi": 50,
      "hit": false,
      "t": 70775.60000000003,
      "d": 213.80129166666302,
      "v": 52
    },
    {
      "midi": 58,
      "hit": false,
      "t": 70775.60000000003,
      "d": 213.80129166666302,
      "v": 52
    },
    {
      "midi": 62,
      "hit": false,
      "t": 70775.60000000003,
      "d": 213.80129166666302,
      "v": 52
    },
    {
      "midi": 65,
      "hit": false,
      "t": 70775.60000000003,
      "d": 213.80129166666302,
      "v": 41
    },
    {
      "midi": 70,
      "hit": false,
      "t": 70775.60000000003,
      "d": 258.0360416666663,
      "v": 52
    },
    {
      "midi": 46,
      "hit": false,
      "t": 71070.49833333337,
      "d": 162.19408333333558,
      "v": 47
    },
    {
      "midi": 50,
      "hit": false,
      "t": 71070.49833333337,
      "d": 162.19408333333558,
      "v": 47
    },
    {
      "midi": 58,
      "hit": false,
      "t": 71070.49833333337,
      "d": 162.19408333333558,
      "v": 47
    },
    {
      "midi": 62,
      "hit": false,
      "t": 71070.49833333337,
      "d": 162.19408333333558,
      "v": 47
    },
    {
      "midi": 65,
      "hit": false,
      "t": 71070.49833333337,
      "d": 162.19408333333558,
      "v": 47
    },
    {
      "midi": 70,
      "hit": false,
      "t": 71070.49833333337,
      "d": 258.0360416666663,
      "v": 54
    },
    {
      "midi": 46,
      "hit": false,
      "t": 71365.3966666667,
      "d": 199.05637500000012,
      "v": 55
    },
    {
      "midi": 50,
      "hit": false,
      "t": 71365.3966666667,
      "d": 199.05637500000012,
      "v": 55
    },
    {
      "midi": 58,
      "hit": false,
      "t": 71365.3966666667,
      "d": 199.05637500000012,
      "v": 55
    },
    {
      "midi": 62,
      "hit": false,
      "t": 71365.3966666667,
      "d": 199.05637500000012,
      "v": 55
    },
    {
      "midi": 65,
      "hit": false,
      "t": 71365.3966666667,
      "d": 199.05637500000012,
      "v": 44
    },
    {
      "midi": 70,
      "hit": false,
      "t": 71365.3966666667,
      "d": 258.0360416666663,
      "v": 54
    },
    {
      "midi": 46,
      "hit": false,
      "t": 71660.29500000003,
      "d": 176.9389999999985,
      "v": 46
    },
    {
      "midi": 50,
      "hit": false,
      "t": 71660.29500000003,
      "d": 176.9389999999985,
      "v": 46
    },
    {
      "midi": 58,
      "hit": false,
      "t": 71660.29500000003,
      "d": 176.9389999999985,
      "v": 46
    },
    {
      "midi": 62,
      "hit": false,
      "t": 71660.29500000003,
      "d": 176.9389999999985,
      "v": 46
    },
    {
      "midi": 65,
      "hit": false,
      "t": 71660.29500000003,
      "d": 176.9389999999985,
      "v": 46
    },
    {
      "midi": 70,
      "hit": false,
      "t": 71660.29500000003,
      "d": 258.0360416666663,
      "v": 54
    },
    {
      "midi": 46,
      "hit": false,
      "t": 71955.19333333336,
      "d": 147.44916666667268,
      "v": 48
    },
    {
      "midi": 50,
      "hit": false,
      "t": 71955.19333333336,
      "d": 147.44916666667268,
      "v": 48
    },
    {
      "midi": 58,
      "hit": false,
      "t": 71955.19333333336,
      "d": 147.44916666667268,
      "v": 48
    },
    {
      "midi": 62,
      "hit": false,
      "t": 71955.19333333336,
      "d": 147.44916666667268,
      "v": 48
    },
    {
      "midi": 65,
      "hit": false,
      "t": 71955.19333333336,
      "d": 147.44916666667268,
      "v": 48
    },
    {
      "midi": 70,
      "hit": false,
      "t": 71955.19333333336,
      "d": 191.68391666667594,
      "v": 53
    },
    {
      "midi": 46,
      "hit": false,
      "t": 72250.0916666667,
      "d": 176.9389999999985,
      "v": 49
    },
    {
      "midi": 50,
      "hit": false,
      "t": 72250.0916666667,
      "d": 176.9389999999985,
      "v": 49
    },
    {
      "midi": 58,
      "hit": false,
      "t": 72250.0916666667,
      "d": 176.9389999999985,
      "v": 49
    },
    {
      "midi": 62,
      "hit": false,
      "t": 72250.0916666667,
      "d": 176.9389999999985,
      "v": 49
    },
    {
      "midi": 65,
      "hit": false,
      "t": 72250.0916666667,
      "d": 176.9389999999985,
      "v": 49
    },
    {
      "midi": 70,
      "hit": false,
      "t": 72250.0916666667,
      "d": 199.05637500000012,
      "v": 55
    },
    {
      "midi": 46,
      "hit": false,
      "t": 72544.99000000003,
      "d": 206.42883333333884,
      "v": 57
    },
    {
      "midi": 50,
      "hit": false,
      "t": 72544.99000000003,
      "d": 206.42883333333884,
      "v": 57
    },
    {
      "midi": 58,
      "hit": false,
      "t": 72544.99000000003,
      "d": 206.42883333333884,
      "v": 57
    },
    {
      "midi": 62,
      "hit": false,
      "t": 72544.99000000003,
      "d": 206.42883333333884,
      "v": 57
    },
    {
      "midi": 65,
      "hit": false,
      "t": 72544.99000000003,
      "d": 206.42883333333884,
      "v": 46
    },
    {
      "midi": 70,
      "hit": false,
      "t": 72544.99000000003,
      "d": 213.80129166667757,
      "v": 55
    },
    {
      "midi": 46,
      "hit": false,
      "t": 72839.88833333338,
      "d": 184.3114583333372,
      "v": 49
    },
    {
      "midi": 50,
      "hit": false,
      "t": 72839.88833333338,
      "d": 184.3114583333372,
      "v": 49
    },
    {
      "midi": 58,
      "hit": false,
      "t": 72839.88833333338,
      "d": 184.3114583333372,
      "v": 49
    },
    {
      "midi": 62,
      "hit": false,
      "t": 72839.88833333338,
      "d": 184.3114583333372,
      "v": 49
    },
    {
      "midi": 70,
      "hit": false,
      "t": 72839.88833333338,
      "d": 199.05637500000012,
      "v": 43
    },
    {
      "midi": 65,
      "hit": false,
      "t": 72839.88833333338,
      "d": 235.91866666666465,
      "v": 49
    },
    {
      "midi": 46,
      "hit": false,
      "t": 73134.78666666671,
      "d": 206.42883333333884,
      "v": 57
    },
    {
      "midi": 50,
      "hit": false,
      "t": 73134.78666666671,
      "d": 206.42883333333884,
      "v": 57
    },
    {
      "midi": 58,
      "hit": false,
      "t": 73134.78666666671,
      "d": 206.42883333333884,
      "v": 57
    },
    {
      "midi": 62,
      "hit": false,
      "t": 73134.78666666671,
      "d": 206.42883333333884,
      "v": 57
    },
    {
      "midi": 65,
      "hit": false,
      "t": 73134.78666666671,
      "d": 206.42883333333884,
      "v": 48
    },
    {
      "midi": 70,
      "hit": false,
      "t": 73134.78666666671,
      "d": 221.17375000000175,
      "v": 44
    },
    {
      "midi": 46,
      "hit": false,
      "t": 73429.68500000004,
      "d": 169.56654166665976,
      "v": 49
    },
    {
      "midi": 58,
      "hit": false,
      "t": 73429.68500000004,
      "d": 169.56654166665976,
      "v": 49
    },
    {
      "midi": 62,
      "hit": false,
      "t": 73429.68500000004,
      "d": 169.56654166665976,
      "v": 49
    },
    {
      "midi": 65,
      "hit": false,
      "t": 73429.68500000004,
      "d": 169.56654166665976,
      "v": 49
    },
    {
      "midi": 50,
      "hit": false,
      "t": 73429.68500000004,
      "d": 176.9389999999985,
      "v": 49
    },
    {
      "midi": 70,
      "hit": false,
      "t": 73429.68500000004,
      "d": 213.80129166666302,
      "v": 57
    },
    {
      "midi": 46,
      "hit": false,
      "t": 73724.58333333337,
      "d": 154.82162499999686,
      "v": 58
    },
    {
      "midi": 50,
      "hit": false,
      "t": 73724.58333333337,
      "d": 154.82162499999686,
      "v": 58
    },
    {
      "midi": 58,
      "hit": false,
      "t": 73724.58333333337,
      "d": 154.82162499999686,
      "v": 58
    },
    {
      "midi": 62,
      "hit": false,
      "t": 73724.58333333337,
      "d": 154.82162499999686,
      "v": 58
    },
    {
      "midi": 65,
      "hit": false,
      "t": 73724.58333333337,
      "d": 154.82162499999686,
      "v": 49
    },
    {
      "midi": 70,
      "hit": false,
      "t": 73724.58333333337,
      "d": 235.91866666666465,
      "v": 55
    },
    {
      "midi": 46,
      "hit": false,
      "t": 74019.4816666667,
      "d": 169.56654166665976,
      "v": 45
    },
    {
      "midi": 50,
      "hit": false,
      "t": 74019.4816666667,
      "d": 169.56654166665976,
      "v": 45
    },
    {
      "midi": 58,
      "hit": false,
      "t": 74019.4816666667,
      "d": 169.56654166665976,
      "v": 45
    },
    {
      "midi": 70,
      "hit": false,
      "t": 74019.4816666667,
      "d": 199.05637500000012,
      "v": 58
    },
    {
      "midi": 62,
      "hit": false,
      "t": 74019.4816666667,
      "d": 228.54620833334047,
      "v": 45
    },
    {
      "midi": 65,
      "hit": false,
      "t": 74019.4816666667,
      "d": 250.6635833333421,
      "v": 45
    },
    {
      "midi": 46,
      "hit": false,
      "t": 74314.38000000005,
      "d": 176.9389999999985,
      "v": 46
    },
    {
      "midi": 51,
      "hit": false,
      "t": 74314.38000000005,
      "d": 176.9389999999985,
      "v": 46
    },
    {
      "midi": 55,
      "hit": false,
      "t": 74314.38000000005,
      "d": 176.9389999999985,
      "v": 46
    },
    {
      "midi": 58,
      "hit": false,
      "t": 74314.38000000005,
      "d": 176.9389999999985,
      "v": 46
    },
    {
      "midi": 63,
      "hit": false,
      "t": 74314.38000000005,
      "d": 176.9389999999985,
      "v": 46
    },
    {
      "midi": 67,
      "hit": false,
      "t": 74314.38000000005,
      "d": 199.05637500000012,
      "v": 57
    },
    {
      "midi": 70,
      "hit": false,
      "t": 74314.38000000005,
      "d": 258.0360416666663,
      "v": 54
    },
    {
      "midi": 46,
      "hit": false,
      "t": 74609.27833333338,
      "d": 147.44916666667268,
      "v": 48
    },
    {
      "midi": 51,
      "hit": false,
      "t": 74609.27833333338,
      "d": 147.44916666667268,
      "v": 48
    },
    {
      "midi": 55,
      "hit": false,
      "t": 74609.27833333338,
      "d": 147.44916666667268,
      "v": 48
    },
    {
      "midi": 58,
      "hit": false,
      "t": 74609.27833333338,
      "d": 147.44916666667268,
      "v": 48
    },
    {
      "midi": 63,
      "hit": false,
      "t": 74609.27833333338,
      "d": 147.44916666667268,
      "v": 48
    },
    {
      "midi": 70,
      "hit": false,
      "t": 74609.27833333338,
      "d": 191.68391666667594,
      "v": 53
    },
    {
      "midi": 67,
      "hit": false,
      "t": 74609.27833333338,
      "d": 213.80129166667757,
      "v": 48
    },
    {
      "midi": 67,
      "hit": false,
      "t": 74904.17666666672,
      "d": 154.82162499999686,
      "v": 47
    },
    {
      "midi": 46,
      "hit": false,
      "t": 74904.17666666672,
      "d": 176.9389999999985,
      "v": 49
    },
    {
      "midi": 51,
      "hit": false,
      "t": 74904.17666666672,
      "d": 176.9389999999985,
      "v": 49
    },
    {
      "midi": 55,
      "hit": false,
      "t": 74904.17666666672,
      "d": 176.9389999999985,
      "v": 49
    },
    {
      "midi": 58,
      "hit": false,
      "t": 74904.17666666672,
      "d": 176.9389999999985,
      "v": 49
    },
    {
      "midi": 63,
      "hit": false,
      "t": 74904.17666666672,
      "d": 176.9389999999985,
      "v": 49
    },
    {
      "midi": 70,
      "hit": false,
      "t": 74904.17666666672,
      "d": 199.05637500000012,
      "v": 55
    },
    {
      "midi": 46,
      "hit": false,
      "t": 75199.07500000006,
      "d": 176.9389999999985,
      "v": 46
    },
    {
      "midi": 51,
      "hit": false,
      "t": 75199.07500000006,
      "d": 176.9389999999985,
      "v": 46
    },
    {
      "midi": 55,
      "hit": false,
      "t": 75199.07500000006,
      "d": 176.9389999999985,
      "v": 46
    },
    {
      "midi": 58,
      "hit": false,
      "t": 75199.07500000006,
      "d": 176.9389999999985,
      "v": 46
    },
    {
      "midi": 63,
      "hit": false,
      "t": 75199.07500000006,
      "d": 176.9389999999985,
      "v": 46
    },
    {
      "midi": 67,
      "hit": false,
      "t": 75199.07500000006,
      "d": 199.05637500000012,
      "v": 57
    },
    {
      "midi": 70,
      "hit": false,
      "t": 75199.07500000006,
      "d": 258.0360416666663,
      "v": 54
    },
    {
      "midi": 46,
      "hit": false,
      "t": 75493.97333333339,
      "d": 147.44916666667268,
      "v": 48
    },
    {
      "midi": 51,
      "hit": false,
      "t": 75493.97333333339,
      "d": 147.44916666667268,
      "v": 48
    },
    {
      "midi": 55,
      "hit": false,
      "t": 75493.97333333339,
      "d": 147.44916666667268,
      "v": 48
    },
    {
      "midi": 58,
      "hit": false,
      "t": 75493.97333333339,
      "d": 147.44916666667268,
      "v": 48
    },
    {
      "midi": 63,
      "hit": false,
      "t": 75493.97333333339,
      "d": 147.44916666667268,
      "v": 48
    },
    {
      "midi": 70,
      "hit": false,
      "t": 75493.97333333339,
      "d": 191.68391666667594,
      "v": 53
    },
    {
      "midi": 67,
      "hit": false,
      "t": 75493.97333333339,
      "d": 213.80129166667757,
      "v": 48
    },
    {
      "midi": 67,
      "hit": false,
      "t": 75788.87166666673,
      "d": 154.82162499999686,
      "v": 47
    },
    {
      "midi": 46,
      "hit": false,
      "t": 75788.87166666673,
      "d": 176.9389999999985,
      "v": 49
    },
    {
      "midi": 51,
      "hit": false,
      "t": 75788.87166666673,
      "d": 176.9389999999985,
      "v": 49
    },
    {
      "midi": 55,
      "hit": false,
      "t": 75788.87166666673,
      "d": 176.9389999999985,
      "v": 49
    },
    {
      "midi": 58,
      "hit": false,
      "t": 75788.87166666673,
      "d": 176.9389999999985,
      "v": 49
    },
    {
      "midi": 63,
      "hit": false,
      "t": 75788.87166666673,
      "d": 176.9389999999985,
      "v": 49
    },
    {
      "midi": 70,
      "hit": false,
      "t": 75788.87166666673,
      "d": 199.05637500000012,
      "v": 55
    },
    {
      "midi": 68,
      "hit": false,
      "t": 76083.77000000006,
      "d": 191.6839166666614,
      "v": 63
    },
    {
      "midi": 48,
      "hit": false,
      "t": 76083.77000000006,
      "d": 206.4288333333243,
      "v": 57
    },
    {
      "midi": 51,
      "hit": false,
      "t": 76083.77000000006,
      "d": 206.4288333333243,
      "v": 57
    },
    {
      "midi": 56,
      "hit": false,
      "t": 76083.77000000006,
      "d": 206.4288333333243,
      "v": 57
    },
    {
      "midi": 60,
      "hit": false,
      "t": 76083.77000000006,
      "d": 206.4288333333243,
      "v": 57
    },
    {
      "midi": 63,
      "hit": false,
      "t": 76083.77000000006,
      "d": 206.4288333333243,
      "v": 46
    },
    {
      "midi": 72,
      "hit": false,
      "t": 76083.77000000006,
      "d": 213.80129166666302,
      "v": 55
    },
    {
      "midi": 48,
      "hit": false,
      "t": 76378.6683333334,
      "d": 184.3114583333372,
      "v": 49
    },
    {
      "midi": 51,
      "hit": false,
      "t": 76378.6683333334,
      "d": 184.3114583333372,
      "v": 49
    },
    {
      "midi": 56,
      "hit": false,
      "t": 76378.6683333334,
      "d": 184.3114583333372,
      "v": 49
    },
    {
      "midi": 60,
      "hit": false,
      "t": 76378.6683333334,
      "d": 184.3114583333372,
      "v": 49
    },
    {
      "midi": 72,
      "hit": false,
      "t": 76378.6683333334,
      "d": 199.05637500000012,
      "v": 43
    },
    {
      "midi": 68,
      "hit": false,
      "t": 76378.6683333334,
      "d": 213.80129166666302,
      "v": 56
    },
    {
      "midi": 63,
      "hit": false,
      "t": 76378.6683333334,
      "d": 235.91866666666465,
      "v": 49
    },
    {
      "midi": 68,
      "hit": false,
      "t": 76673.56666666672,
      "d": 176.9389999999985,
      "v": 54
    },
    {
      "midi": 48,
      "hit": false,
      "t": 76673.56666666672,
      "d": 206.42883333333884,
      "v": 57
    },
    {
      "midi": 51,
      "hit": false,
      "t": 76673.56666666672,
      "d": 206.42883333333884,
      "v": 57
    },
    {
      "midi": 56,
      "hit": false,
      "t": 76673.56666666672,
      "d": 206.42883333333884,
      "v": 57
    },
    {
      "midi": 60,
      "hit": false,
      "t": 76673.56666666672,
      "d": 206.42883333333884,
      "v": 57
    },
    {
      "midi": 63,
      "hit": false,
      "t": 76673.56666666672,
      "d": 206.42883333333884,
      "v": 48
    },
    {
      "midi": 72,
      "hit": false,
      "t": 76673.56666666672,
      "d": 221.17375000000175,
      "v": 44
    },
    {
      "midi": 48,
      "hit": false,
      "t": 76968.46500000005,
      "d": 169.56654166665976,
      "v": 49
    },
    {
      "midi": 56,
      "hit": false,
      "t": 76968.46500000005,
      "d": 169.56654166665976,
      "v": 49
    },
    {
      "midi": 60,
      "hit": false,
      "t": 76968.46500000005,
      "d": 169.56654166665976,
      "v": 49
    },
    {
      "midi": 63,
      "hit": false,
      "t": 76968.46500000005,
      "d": 169.56654166665976,
      "v": 49
    },
    {
      "midi": 51,
      "hit": false,
      "t": 76968.46500000005,
      "d": 176.9389999999985,
      "v": 49
    },
    {
      "midi": 68,
      "hit": false,
      "t": 76968.46500000005,
      "d": 176.9389999999985,
      "v": 61
    },
    {
      "midi": 72,
      "hit": false,
      "t": 76968.46500000005,
      "d": 213.80129166666302,
      "v": 57
    },
    {
      "midi": 48,
      "hit": false,
      "t": 77263.36333333339,
      "d": 154.82162499999686,
      "v": 58
    },
    {
      "midi": 51,
      "hit": false,
      "t": 77263.36333333339,
      "d": 154.82162499999686,
      "v": 58
    },
    {
      "midi": 56,
      "hit": false,
      "t": 77263.36333333339,
      "d": 154.82162499999686,
      "v": 58
    },
    {
      "midi": 60,
      "hit": false,
      "t": 77263.36333333339,
      "d": 154.82162499999686,
      "v": 58
    },
    {
      "midi": 63,
      "hit": false,
      "t": 77263.36333333339,
      "d": 154.82162499999686,
      "v": 49
    },
    {
      "midi": 68,
      "hit": false,
      "t": 77263.36333333339,
      "d": 176.9389999999985,
      "v": 63
    },
    {
      "midi": 72,
      "hit": false,
      "t": 77263.36333333339,
      "d": 235.91866666666465,
      "v": 55
    },
    {
      "midi": 48,
      "hit": false,
      "t": 77558.26166666672,
      "d": 169.56654166665976,
      "v": 45
    },
    {
      "midi": 51,
      "hit": false,
      "t": 77558.26166666672,
      "d": 169.56654166665976,
      "v": 45
    },
    {
      "midi": 56,
      "hit": false,
      "t": 77558.26166666672,
      "d": 169.56654166665976,
      "v": 45
    },
    {
      "midi": 72,
      "hit": false,
      "t": 77558.26166666672,
      "d": 199.05637500000012,
      "v": 58
    },
    {
      "midi": 60,
      "hit": false,
      "t": 77558.26166666672,
      "d": 228.54620833334047,
      "v": 45
    },
    {
      "midi": 68,
      "hit": false,
      "t": 77558.26166666672,
      "d": 228.54620833334047,
      "v": 54
    },
    {
      "midi": 63,
      "hit": false,
      "t": 77558.26166666672,
      "d": 250.6635833333421,
      "v": 45
    },
    {
      "midi": 46,
      "hit": false,
      "t": 77853.16000000006,
      "d": 213.80129166666302,
      "v": 52
    },
    {
      "midi": 51,
      "hit": false,
      "t": 77853.16000000006,
      "d": 213.80129166666302,
      "v": 52
    },
    {
      "midi": 58,
      "hit": false,
      "t": 77853.16000000006,
      "d": 213.80129166666302,
      "v": 52
    },
    {
      "midi": 63,
      "hit": false,
      "t": 77853.16000000006,
      "d": 213.80129166666302,
      "v": 52
    },
    {
      "midi": 67,
      "hit": false,
      "t": 77853.16000000006,
      "d": 213.80129166666302,
      "v": 41
    },
    {
      "midi": 70,
      "hit": false,
      "t": 77853.16000000006,
      "d": 258.0360416666663,
      "v": 52
    },
    {
      "midi": 46,
      "hit": false,
      "t": 78148.05833333339,
      "d": 162.19408333333558,
      "v": 47
    },
    {
      "midi": 51,
      "hit": false,
      "t": 78148.05833333339,
      "d": 162.19408333333558,
      "v": 47
    },
    {
      "midi": 58,
      "hit": false,
      "t": 78148.05833333339,
      "d": 162.19408333333558,
      "v": 47
    },
    {
      "midi": 63,
      "hit": false,
      "t": 78148.05833333339,
      "d": 162.19408333333558,
      "v": 47
    },
    {
      "midi": 67,
      "hit": false,
      "t": 78148.05833333339,
      "d": 162.19408333333558,
      "v": 47
    },
    {
      "midi": 70,
      "hit": false,
      "t": 78148.05833333339,
      "d": 258.0360416666663,
      "v": 54
    },
    {
      "midi": 46,
      "hit": false,
      "t": 78442.95666666672,
      "d": 199.05637500000012,
      "v": 55
    },
    {
      "midi": 51,
      "hit": false,
      "t": 78442.95666666672,
      "d": 199.05637500000012,
      "v": 55
    },
    {
      "midi": 58,
      "hit": false,
      "t": 78442.95666666672,
      "d": 199.05637500000012,
      "v": 55
    },
    {
      "midi": 63,
      "hit": false,
      "t": 78442.95666666672,
      "d": 199.05637500000012,
      "v": 55
    },
    {
      "midi": 67,
      "hit": false,
      "t": 78442.95666666672,
      "d": 199.05637500000012,
      "v": 44
    },
    {
      "midi": 70,
      "hit": false,
      "t": 78442.95666666672,
      "d": 258.0360416666663,
      "v": 54
    },
    {
      "midi": 46,
      "hit": false,
      "t": 78737.85500000005,
      "d": 176.9389999999985,
      "v": 46
    },
    {
      "midi": 51,
      "hit": false,
      "t": 78737.85500000005,
      "d": 176.9389999999985,
      "v": 46
    },
    {
      "midi": 58,
      "hit": false,
      "t": 78737.85500000005,
      "d": 176.9389999999985,
      "v": 46
    },
    {
      "midi": 63,
      "hit": false,
      "t": 78737.85500000005,
      "d": 176.9389999999985,
      "v": 46
    },
    {
      "midi": 67,
      "hit": false,
      "t": 78737.85500000005,
      "d": 176.9389999999985,
      "v": 46
    },
    {
      "midi": 70,
      "hit": false,
      "t": 78737.85500000005,
      "d": 258.0360416666663,
      "v": 54
    },
    {
      "midi": 46,
      "hit": false,
      "t": 79032.75333333338,
      "d": 147.44916666667268,
      "v": 48
    },
    {
      "midi": 51,
      "hit": false,
      "t": 79032.75333333338,
      "d": 147.44916666667268,
      "v": 48
    },
    {
      "midi": 58,
      "hit": false,
      "t": 79032.75333333338,
      "d": 147.44916666667268,
      "v": 48
    },
    {
      "midi": 63,
      "hit": false,
      "t": 79032.75333333338,
      "d": 147.44916666667268,
      "v": 48
    },
    {
      "midi": 67,
      "hit": false,
      "t": 79032.75333333338,
      "d": 147.44916666667268,
      "v": 48
    },
    {
      "midi": 70,
      "hit": false,
      "t": 79032.75333333338,
      "d": 191.68391666667594,
      "v": 53
    },
    {
      "midi": 46,
      "hit": false,
      "t": 79327.65166666673,
      "d": 176.9389999999985,
      "v": 49
    },
    {
      "midi": 51,
      "hit": false,
      "t": 79327.65166666673,
      "d": 176.9389999999985,
      "v": 49
    },
    {
      "midi": 58,
      "hit": false,
      "t": 79327.65166666673,
      "d": 176.9389999999985,
      "v": 49
    },
    {
      "midi": 63,
      "hit": false,
      "t": 79327.65166666673,
      "d": 176.9389999999985,
      "v": 49
    },
    {
      "midi": 67,
      "hit": false,
      "t": 79327.65166666673,
      "d": 176.9389999999985,
      "v": 49
    },
    {
      "midi": 70,
      "hit": false,
      "t": 79327.65166666673,
      "d": 199.05637500000012,
      "v": 55
    },
    {
      "midi": 46,
      "hit": false,
      "t": 79622.55000000006,
      "d": 206.42883333333884,
      "v": 57
    },
    {
      "midi": 51,
      "hit": false,
      "t": 79622.55000000006,
      "d": 206.42883333333884,
      "v": 57
    },
    {
      "midi": 58,
      "hit": false,
      "t": 79622.55000000006,
      "d": 206.42883333333884,
      "v": 57
    },
    {
      "midi": 61,
      "hit": false,
      "t": 79622.55000000006,
      "d": 206.42883333333884,
      "v": 57
    },
    {
      "midi": 63,
      "hit": false,
      "t": 79622.55000000006,
      "d": 206.42883333333884,
      "v": 57
    },
    {
      "midi": 67,
      "hit": false,
      "t": 79622.55000000006,
      "d": 206.42883333333884,
      "v": 46
    },
    {
      "midi": 70,
      "hit": false,
      "t": 79622.55000000006,
      "d": 213.80129166667757,
      "v": 55
    },
    {
      "midi": 46,
      "hit": false,
      "t": 79917.4483333334,
      "d": 184.3114583333372,
      "v": 49
    },
    {
      "midi": 51,
      "hit": false,
      "t": 79917.4483333334,
      "d": 184.3114583333372,
      "v": 49
    },
    {
      "midi": 58,
      "hit": false,
      "t": 79917.4483333334,
      "d": 184.3114583333372,
      "v": 49
    },
    {
      "midi": 61,
      "hit": false,
      "t": 79917.4483333334,
      "d": 184.3114583333372,
      "v": 49
    },
    {
      "midi": 63,
      "hit": false,
      "t": 79917.4483333334,
      "d": 184.3114583333372,
      "v": 49
    },
    {
      "midi": 70,
      "hit": false,
      "t": 79917.4483333334,
      "d": 199.05637500000012,
      "v": 43
    },
    {
      "midi": 67,
      "hit": false,
      "t": 79917.4483333334,
      "d": 235.91866666666465,
      "v": 49
    },
    {
      "midi": 61,
      "hit": false,
      "t": 80212.34666666674,
      "d": 184.3114583333372,
      "v": 49
    },
    {
      "midi": 46,
      "hit": false,
      "t": 80212.34666666674,
      "d": 206.42883333333884,
      "v": 57
    },
    {
      "midi": 51,
      "hit": false,
      "t": 80212.34666666674,
      "d": 206.42883333333884,
      "v": 57
    },
    {
      "midi": 58,
      "hit": false,
      "t": 80212.34666666674,
      "d": 206.42883333333884,
      "v": 57
    },
    {
      "midi": 63,
      "hit": false,
      "t": 80212.34666666674,
      "d": 206.42883333333884,
      "v": 57
    },
    {
      "midi": 67,
      "hit": false,
      "t": 80212.34666666674,
      "d": 206.42883333333884,
      "v": 48
    },
    {
      "midi": 70,
      "hit": false,
      "t": 80212.34666666674,
      "d": 221.17375000000175,
      "v": 44
    },
    {
      "midi": 46,
      "hit": false,
      "t": 80507.24500000007,
      "d": 169.56654166665976,
      "v": 49
    },
    {
      "midi": 58,
      "hit": false,
      "t": 80507.24500000007,
      "d": 169.56654166665976,
      "v": 49
    },
    {
      "midi": 63,
      "hit": false,
      "t": 80507.24500000007,
      "d": 169.56654166665976,
      "v": 49
    },
    {
      "midi": 67,
      "hit": false,
      "t": 80507.24500000007,
      "d": 169.56654166665976,
      "v": 49
    },
    {
      "midi": 51,
      "hit": false,
      "t": 80507.24500000007,
      "d": 176.9389999999985,
      "v": 49
    },
    {
      "midi": 61,
      "hit": false,
      "t": 80507.24500000007,
      "d": 184.3114583333372,
      "v": 49
    },
    {
      "midi": 70,
      "hit": false,
      "t": 80507.24500000007,
      "d": 213.80129166667757,
      "v": 57
    },
    {
      "midi": 46,
      "hit": false,
      "t": 80802.14333333341,
      "d": 154.82162499999686,
      "v": 58
    },
    {
      "midi": 51,
      "hit": false,
      "t": 80802.14333333341,
      "d": 154.82162499999686,
      "v": 58
    },
    {
      "midi": 58,
      "hit": false,
      "t": 80802.14333333341,
      "d": 154.82162499999686,
      "v": 58
    },
    {
      "midi": 63,
      "hit": false,
      "t": 80802.14333333341,
      "d": 154.82162499999686,
      "v": 58
    },
    {
      "midi": 67,
      "hit": false,
      "t": 80802.14333333341,
      "d": 154.82162499999686,
      "v": 49
    },
    {
      "midi": 61,
      "hit": false,
      "t": 80802.14333333341,
      "d": 184.3114583333372,
      "v": 49
    },
    {
      "midi": 70,
      "hit": false,
      "t": 80802.14333333341,
      "d": 235.91866666666465,
      "v": 55
    },
    {
      "midi": 46,
      "hit": false,
      "t": 81097.04166666674,
      "d": 169.56654166665976,
      "v": 45
    },
    {
      "midi": 51,
      "hit": false,
      "t": 81097.04166666674,
      "d": 169.56654166665976,
      "v": 45
    },
    {
      "midi": 58,
      "hit": false,
      "t": 81097.04166666674,
      "d": 169.56654166665976,
      "v": 45
    },
    {
      "midi": 61,
      "hit": false,
      "t": 81097.04166666674,
      "d": 184.31145833332266,
      "v": 49
    },
    {
      "midi": 70,
      "hit": false,
      "t": 81097.04166666674,
      "d": 199.05637499998556,
      "v": 58
    },
    {
      "midi": 63,
      "hit": false,
      "t": 81097.04166666674,
      "d": 228.54620833332592,
      "v": 45
    },
    {
      "midi": 67,
      "hit": false,
      "t": 81097.04166666674,
      "d": 250.66358333332755,
      "v": 45
    },
    {
      "midi": 44,
      "hit": false,
      "t": 81391.94000000008,
      "d": 213.80129166666302,
      "v": 52
    },
    {
      "midi": 48,
      "hit": false,
      "t": 81391.94000000008,
      "d": 213.80129166666302,
      "v": 52
    },
    {
      "midi": 56,
      "hit": false,
      "t": 81391.94000000008,
      "d": 213.80129166666302,
      "v": 52
    },
    {
      "midi": 60,
      "hit": false,
      "t": 81391.94000000008,
      "d": 213.80129166666302,
      "v": 52
    },
    {
      "midi": 63,
      "hit": false,
      "t": 81391.94000000008,
      "d": 213.80129166666302,
      "v": 41
    },
    {
      "midi": 68,
      "hit": false,
      "t": 81391.94000000008,
      "d": 258.0360416666663,
      "v": 52
    },
    {
      "midi": 44,
      "hit": false,
      "t": 81686.8383333334,
      "d": 162.19408333333558,
      "v": 47
    },
    {
      "midi": 48,
      "hit": false,
      "t": 81686.8383333334,
      "d": 162.19408333333558,
      "v": 47
    },
    {
      "midi": 56,
      "hit": false,
      "t": 81686.8383333334,
      "d": 162.19408333333558,
      "v": 47
    },
    {
      "midi": 60,
      "hit": false,
      "t": 81686.8383333334,
      "d": 162.19408333333558,
      "v": 47
    },
    {
      "midi": 63,
      "hit": false,
      "t": 81686.8383333334,
      "d": 162.19408333333558,
      "v": 47
    },
    {
      "midi": 68,
      "hit": false,
      "t": 81686.8383333334,
      "d": 258.0360416666663,
      "v": 54
    },
    {
      "midi": 44,
      "hit": false,
      "t": 81981.73666666674,
      "d": 199.05637500000012,
      "v": 55
    },
    {
      "midi": 48,
      "hit": false,
      "t": 81981.73666666674,
      "d": 199.05637500000012,
      "v": 55
    },
    {
      "midi": 56,
      "hit": false,
      "t": 81981.73666666674,
      "d": 199.05637500000012,
      "v": 55
    },
    {
      "midi": 60,
      "hit": false,
      "t": 81981.73666666674,
      "d": 199.05637500000012,
      "v": 55
    },
    {
      "midi": 63,
      "hit": false,
      "t": 81981.73666666674,
      "d": 199.05637500000012,
      "v": 44
    },
    {
      "midi": 68,
      "hit": false,
      "t": 81981.73666666674,
      "d": 258.0360416666663,
      "v": 54
    },
    {
      "midi": 44,
      "hit": false,
      "t": 82276.63500000007,
      "d": 176.9389999999985,
      "v": 46
    },
    {
      "midi": 48,
      "hit": false,
      "t": 82276.63500000007,
      "d": 176.9389999999985,
      "v": 46
    },
    {
      "midi": 56,
      "hit": false,
      "t": 82276.63500000007,
      "d": 176.9389999999985,
      "v": 46
    },
    {
      "midi": 60,
      "hit": false,
      "t": 82276.63500000007,
      "d": 176.9389999999985,
      "v": 46
    },
    {
      "midi": 63,
      "hit": false,
      "t": 82276.63500000007,
      "d": 176.9389999999985,
      "v": 46
    },
    {
      "midi": 68,
      "hit": false,
      "t": 82276.63500000007,
      "d": 258.0360416666663,
      "v": 54
    },
    {
      "midi": 44,
      "hit": false,
      "t": 82571.5333333334,
      "d": 147.44916666667268,
      "v": 48
    },
    {
      "midi": 48,
      "hit": false,
      "t": 82571.5333333334,
      "d": 147.44916666667268,
      "v": 48
    },
    {
      "midi": 56,
      "hit": false,
      "t": 82571.5333333334,
      "d": 147.44916666667268,
      "v": 48
    },
    {
      "midi": 60,
      "hit": false,
      "t": 82571.5333333334,
      "d": 147.44916666667268,
      "v": 48
    },
    {
      "midi": 63,
      "hit": false,
      "t": 82571.5333333334,
      "d": 147.44916666667268,
      "v": 48
    },
    {
      "midi": 68,
      "hit": false,
      "t": 82571.5333333334,
      "d": 191.68391666667594,
      "v": 53
    },
    {
      "midi": 44,
      "hit": false,
      "t": 82866.43166666674,
      "d": 176.9389999999985,
      "v": 49
    },
    {
      "midi": 48,
      "hit": false,
      "t": 82866.43166666674,
      "d": 176.9389999999985,
      "v": 49
    },
    {
      "midi": 56,
      "hit": false,
      "t": 82866.43166666674,
      "d": 176.9389999999985,
      "v": 49
    },
    {
      "midi": 60,
      "hit": false,
      "t": 82866.43166666674,
      "d": 176.9389999999985,
      "v": 49
    },
    {
      "midi": 63,
      "hit": false,
      "t": 82866.43166666674,
      "d": 176.9389999999985,
      "v": 49
    },
    {
      "midi": 68,
      "hit": false,
      "t": 82866.43166666674,
      "d": 199.05637500000012,
      "v": 55
    },
    {
      "midi": 44,
      "hit": false,
      "t": 83161.33000000007,
      "d": 206.42883333333884,
      "v": 57
    },
    {
      "midi": 48,
      "hit": false,
      "t": 83161.33000000007,
      "d": 206.42883333333884,
      "v": 57
    },
    {
      "midi": 56,
      "hit": false,
      "t": 83161.33000000007,
      "d": 206.42883333333884,
      "v": 57
    },
    {
      "midi": 60,
      "hit": false,
      "t": 83161.33000000007,
      "d": 206.42883333333884,
      "v": 57
    },
    {
      "midi": 63,
      "hit": false,
      "t": 83161.33000000007,
      "d": 206.42883333333884,
      "v": 46
    },
    {
      "midi": 68,
      "hit": false,
      "t": 83161.33000000007,
      "d": 213.80129166667757,
      "v": 55
    },
    {
      "midi": 44,
      "hit": false,
      "t": 83456.22833333342,
      "d": 184.3114583333372,
      "v": 49
    },
    {
      "midi": 48,
      "hit": false,
      "t": 83456.22833333342,
      "d": 184.3114583333372,
      "v": 49
    },
    {
      "midi": 56,
      "hit": false,
      "t": 83456.22833333342,
      "d": 184.3114583333372,
      "v": 49
    },
    {
      "midi": 60,
      "hit": false,
      "t": 83456.22833333342,
      "d": 184.3114583333372,
      "v": 49
    },
    {
      "midi": 68,
      "hit": false,
      "t": 83456.22833333342,
      "d": 199.05637500000012,
      "v": 43
    },
    {
      "midi": 63,
      "hit": false,
      "t": 83456.22833333342,
      "d": 235.91866666666465,
      "v": 49
    },
    {
      "midi": 44,
      "hit": false,
      "t": 83751.12666666675,
      "d": 206.42883333333884,
      "v": 57
    },
    {
      "midi": 48,
      "hit": false,
      "t": 83751.12666666675,
      "d": 206.42883333333884,
      "v": 57
    },
    {
      "midi": 56,
      "hit": false,
      "t": 83751.12666666675,
      "d": 206.42883333333884,
      "v": 57
    },
    {
      "midi": 60,
      "hit": false,
      "t": 83751.12666666675,
      "d": 206.42883333333884,
      "v": 57
    },
    {
      "midi": 63,
      "hit": false,
      "t": 83751.12666666675,
      "d": 206.42883333333884,
      "v": 48
    },
    {
      "midi": 68,
      "hit": false,
      "t": 83751.12666666675,
      "d": 221.17375000000175,
      "v": 44
    },
    {
      "midi": 44,
      "hit": false,
      "t": 84046.02500000008,
      "d": 169.56654166665976,
      "v": 49
    },
    {
      "midi": 56,
      "hit": false,
      "t": 84046.02500000008,
      "d": 169.56654166665976,
      "v": 49
    },
    {
      "midi": 60,
      "hit": false,
      "t": 84046.02500000008,
      "d": 169.56654166665976,
      "v": 49
    },
    {
      "midi": 63,
      "hit": false,
      "t": 84046.02500000008,
      "d": 169.56654166665976,
      "v": 49
    },
    {
      "midi": 48,
      "hit": false,
      "t": 84046.02500000008,
      "d": 176.9389999999985,
      "v": 49
    },
    {
      "midi": 68,
      "hit": false,
      "t": 84046.02500000008,
      "d": 213.80129166666302,
      "v": 57
    },
    {
      "midi": 44,
      "hit": false,
      "t": 84340.92333333341,
      "d": 154.82162499999686,
      "v": 58
    },
    {
      "midi": 48,
      "hit": false,
      "t": 84340.92333333341,
      "d": 154.82162499999686,
      "v": 58
    },
    {
      "midi": 56,
      "hit": false,
      "t": 84340.92333333341,
      "d": 154.82162499999686,
      "v": 58
    },
    {
      "midi": 60,
      "hit": false,
      "t": 84340.92333333341,
      "d": 154.82162499999686,
      "v": 58
    },
    {
      "midi": 63,
      "hit": false,
      "t": 84340.92333333341,
      "d": 154.82162499999686,
      "v": 49
    },
    {
      "midi": 68,
      "hit": false,
      "t": 84340.92333333341,
      "d": 235.91866666666465,
      "v": 55
    },
    {
      "midi": 44,
      "hit": false,
      "t": 84635.82166666674,
      "d": 169.56654166665976,
      "v": 45
    },
    {
      "midi": 48,
      "hit": false,
      "t": 84635.82166666674,
      "d": 169.56654166665976,
      "v": 45
    },
    {
      "midi": 56,
      "hit": false,
      "t": 84635.82166666674,
      "d": 169.56654166665976,
      "v": 45
    },
    {
      "midi": 68,
      "hit": false,
      "t": 84635.82166666674,
      "d": 199.05637500000012,
      "v": 58
    },
    {
      "midi": 60,
      "hit": false,
      "t": 84635.82166666674,
      "d": 228.54620833334047,
      "v": 45
    },
    {
      "midi": 63,
      "hit": false,
      "t": 84635.82166666674,
      "d": 250.6635833333421,
      "v": 45
    },
    {
      "midi": 46,
      "hit": false,
      "t": 84930.72000000009,
      "d": 213.80129166666302,
      "v": 52
    },
    {
      "midi": 50,
      "hit": false,
      "t": 84930.72000000009,
      "d": 213.80129166666302,
      "v": 52
    },
    {
      "midi": 58,
      "hit": false,
      "t": 84930.72000000009,
      "d": 213.80129166666302,
      "v": 52
    },
    {
      "midi": 62,
      "hit": false,
      "t": 84930.72000000009,
      "d": 213.80129166666302,
      "v": 52
    },
    {
      "midi": 65,
      "hit": false,
      "t": 84930.72000000009,
      "d": 213.80129166666302,
      "v": 41
    },
    {
      "midi": 70,
      "hit": false,
      "t": 84930.72000000009,
      "d": 258.0360416666663,
      "v": 52
    },
    {
      "midi": 46,
      "hit": false,
      "t": 85225.61833333342,
      "d": 162.19408333333558,
      "v": 47
    },
    {
      "midi": 50,
      "hit": false,
      "t": 85225.61833333342,
      "d": 162.19408333333558,
      "v": 47
    },
    {
      "midi": 58,
      "hit": false,
      "t": 85225.61833333342,
      "d": 162.19408333333558,
      "v": 47
    },
    {
      "midi": 62,
      "hit": false,
      "t": 85225.61833333342,
      "d": 162.19408333333558,
      "v": 47
    },
    {
      "midi": 65,
      "hit": false,
      "t": 85225.61833333342,
      "d": 162.19408333333558,
      "v": 47
    },
    {
      "midi": 70,
      "hit": false,
      "t": 85225.61833333342,
      "d": 258.0360416666663,
      "v": 54
    },
    {
      "midi": 46,
      "hit": false,
      "t": 85520.51666666675,
      "d": 199.05637500000012,
      "v": 55
    },
    {
      "midi": 50,
      "hit": false,
      "t": 85520.51666666675,
      "d": 199.05637500000012,
      "v": 55
    },
    {
      "midi": 58,
      "hit": false,
      "t": 85520.51666666675,
      "d": 199.05637500000012,
      "v": 55
    },
    {
      "midi": 62,
      "hit": false,
      "t": 85520.51666666675,
      "d": 199.05637500000012,
      "v": 55
    },
    {
      "midi": 65,
      "hit": false,
      "t": 85520.51666666675,
      "d": 199.05637500000012,
      "v": 44
    },
    {
      "midi": 70,
      "hit": false,
      "t": 85520.51666666675,
      "d": 258.0360416666663,
      "v": 54
    },
    {
      "midi": 46,
      "hit": false,
      "t": 85815.41500000008,
      "d": 176.9389999999985,
      "v": 46
    },
    {
      "midi": 50,
      "hit": false,
      "t": 85815.41500000008,
      "d": 176.9389999999985,
      "v": 46
    },
    {
      "midi": 58,
      "hit": false,
      "t": 85815.41500000008,
      "d": 176.9389999999985,
      "v": 46
    },
    {
      "midi": 62,
      "hit": false,
      "t": 85815.41500000008,
      "d": 176.9389999999985,
      "v": 46
    },
    {
      "midi": 65,
      "hit": false,
      "t": 85815.41500000008,
      "d": 176.9389999999985,
      "v": 46
    },
    {
      "midi": 70,
      "hit": false,
      "t": 85815.41500000008,
      "d": 258.0360416666663,
      "v": 54
    },
    {
      "midi": 46,
      "hit": false,
      "t": 86110.31333333341,
      "d": 147.44916666667268,
      "v": 48
    },
    {
      "midi": 50,
      "hit": false,
      "t": 86110.31333333341,
      "d": 147.44916666667268,
      "v": 48
    },
    {
      "midi": 58,
      "hit": false,
      "t": 86110.31333333341,
      "d": 147.44916666667268,
      "v": 48
    },
    {
      "midi": 62,
      "hit": false,
      "t": 86110.31333333341,
      "d": 147.44916666667268,
      "v": 48
    },
    {
      "midi": 65,
      "hit": false,
      "t": 86110.31333333341,
      "d": 147.44916666667268,
      "v": 48
    },
    {
      "midi": 70,
      "hit": false,
      "t": 86110.31333333341,
      "d": 191.68391666667594,
      "v": 53
    },
    {
      "midi": 46,
      "hit": false,
      "t": 86405.21166666676,
      "d": 176.9389999999985,
      "v": 49
    },
    {
      "midi": 50,
      "hit": false,
      "t": 86405.21166666676,
      "d": 176.9389999999985,
      "v": 49
    },
    {
      "midi": 58,
      "hit": false,
      "t": 86405.21166666676,
      "d": 176.9389999999985,
      "v": 49
    },
    {
      "midi": 62,
      "hit": false,
      "t": 86405.21166666676,
      "d": 176.9389999999985,
      "v": 49
    },
    {
      "midi": 65,
      "hit": false,
      "t": 86405.21166666676,
      "d": 176.9389999999985,
      "v": 49
    },
    {
      "midi": 70,
      "hit": false,
      "t": 86405.21166666676,
      "d": 199.05637500000012,
      "v": 55
    },
    {
      "midi": 46,
      "hit": false,
      "t": 86700.11000000009,
      "d": 206.42883333333884,
      "v": 57
    },
    {
      "midi": 50,
      "hit": false,
      "t": 86700.11000000009,
      "d": 206.42883333333884,
      "v": 57
    },
    {
      "midi": 58,
      "hit": false,
      "t": 86700.11000000009,
      "d": 206.42883333333884,
      "v": 57
    },
    {
      "midi": 62,
      "hit": false,
      "t": 86700.11000000009,
      "d": 206.42883333333884,
      "v": 57
    },
    {
      "midi": 65,
      "hit": false,
      "t": 86700.11000000009,
      "d": 206.42883333333884,
      "v": 46
    },
    {
      "midi": 70,
      "hit": false,
      "t": 86700.11000000009,
      "d": 213.80129166667757,
      "v": 55
    },
    {
      "midi": 46,
      "hit": false,
      "t": 86995.00833333343,
      "d": 184.3114583333372,
      "v": 49
    },
    {
      "midi": 50,
      "hit": false,
      "t": 86995.00833333343,
      "d": 184.3114583333372,
      "v": 49
    },
    {
      "midi": 58,
      "hit": false,
      "t": 86995.00833333343,
      "d": 184.3114583333372,
      "v": 49
    },
    {
      "midi": 62,
      "hit": false,
      "t": 86995.00833333343,
      "d": 184.3114583333372,
      "v": 49
    },
    {
      "midi": 70,
      "hit": false,
      "t": 86995.00833333343,
      "d": 199.05637500000012,
      "v": 43
    },
    {
      "midi": 65,
      "hit": false,
      "t": 86995.00833333343,
      "d": 235.91866666666465,
      "v": 49
    },
    {
      "midi": 46,
      "hit": false,
      "t": 87289.90666666676,
      "d": 206.42883333333884,
      "v": 57
    },
    {
      "midi": 50,
      "hit": false,
      "t": 87289.90666666676,
      "d": 206.42883333333884,
      "v": 57
    },
    {
      "midi": 58,
      "hit": false,
      "t": 87289.90666666676,
      "d": 206.42883333333884,
      "v": 57
    },
    {
      "midi": 62,
      "hit": false,
      "t": 87289.90666666676,
      "d": 206.42883333333884,
      "v": 57
    },
    {
      "midi": 65,
      "hit": false,
      "t": 87289.90666666676,
      "d": 206.42883333333884,
      "v": 48
    },
    {
      "midi": 70,
      "hit": false,
      "t": 87289.90666666676,
      "d": 221.17375000000175,
      "v": 44
    },
    {
      "midi": 46,
      "hit": false,
      "t": 87584.8050000001,
      "d": 169.56654166665976,
      "v": 49
    },
    {
      "midi": 58,
      "hit": false,
      "t": 87584.8050000001,
      "d": 169.56654166665976,
      "v": 49
    },
    {
      "midi": 62,
      "hit": false,
      "t": 87584.8050000001,
      "d": 169.56654166665976,
      "v": 49
    },
    {
      "midi": 65,
      "hit": false,
      "t": 87584.8050000001,
      "d": 169.56654166665976,
      "v": 49
    },
    {
      "midi": 50,
      "hit": false,
      "t": 87584.8050000001,
      "d": 176.9389999999985,
      "v": 49
    },
    {
      "midi": 70,
      "hit": false,
      "t": 87584.8050000001,
      "d": 213.80129166666302,
      "v": 57
    },
    {
      "midi": 46,
      "hit": false,
      "t": 87879.70333333343,
      "d": 154.82162499999686,
      "v": 58
    },
    {
      "midi": 50,
      "hit": false,
      "t": 87879.70333333343,
      "d": 154.82162499999686,
      "v": 58
    },
    {
      "midi": 58,
      "hit": false,
      "t": 87879.70333333343,
      "d": 154.82162499999686,
      "v": 58
    },
    {
      "midi": 62,
      "hit": false,
      "t": 87879.70333333343,
      "d": 154.82162499999686,
      "v": 58
    },
    {
      "midi": 65,
      "hit": false,
      "t": 87879.70333333343,
      "d": 154.82162499999686,
      "v": 49
    },
    {
      "midi": 70,
      "hit": false,
      "t": 87879.70333333343,
      "d": 235.91866666666465,
      "v": 55
    },
    {
      "midi": 46,
      "hit": false,
      "t": 88174.60166666676,
      "d": 169.56654166665976,
      "v": 45
    },
    {
      "midi": 50,
      "hit": false,
      "t": 88174.60166666676,
      "d": 169.56654166665976,
      "v": 45
    },
    {
      "midi": 58,
      "hit": false,
      "t": 88174.60166666676,
      "d": 169.56654166665976,
      "v": 45
    },
    {
      "midi": 70,
      "hit": false,
      "t": 88174.60166666676,
      "d": 199.05637500000012,
      "v": 58
    },
    {
      "midi": 62,
      "hit": false,
      "t": 88174.60166666676,
      "d": 228.54620833334047,
      "v": 45
    },
    {
      "midi": 65,
      "hit": false,
      "t": 88174.60166666676,
      "d": 250.6635833333421,
      "v": 45
    },
    {
      "midi": 46,
      "hit": false,
      "t": 88469.5000000001,
      "d": 213.80129166666302,
      "v": 52
    },
    {
      "midi": 51,
      "hit": false,
      "t": 88469.5000000001,
      "d": 213.80129166666302,
      "v": 52
    },
    {
      "midi": 58,
      "hit": false,
      "t": 88469.5000000001,
      "d": 213.80129166666302,
      "v": 52
    },
    {
      "midi": 63,
      "hit": false,
      "t": 88469.5000000001,
      "d": 213.80129166666302,
      "v": 52
    },
    {
      "midi": 67,
      "hit": false,
      "t": 88469.5000000001,
      "d": 213.80129166666302,
      "v": 41
    },
    {
      "midi": 70,
      "hit": false,
      "t": 88469.5000000001,
      "d": 258.0360416666663,
      "v": 52
    },
    {
      "midi": 46,
      "hit": false,
      "t": 88764.39833333343,
      "d": 162.19408333333558,
      "v": 47
    },
    {
      "midi": 51,
      "hit": false,
      "t": 88764.39833333343,
      "d": 162.19408333333558,
      "v": 47
    },
    {
      "midi": 58,
      "hit": false,
      "t": 88764.39833333343,
      "d": 162.19408333333558,
      "v": 47
    },
    {
      "midi": 63,
      "hit": false,
      "t": 88764.39833333343,
      "d": 162.19408333333558,
      "v": 47
    },
    {
      "midi": 67,
      "hit": false,
      "t": 88764.39833333343,
      "d": 162.19408333333558,
      "v": 47
    },
    {
      "midi": 70,
      "hit": false,
      "t": 88764.39833333343,
      "d": 258.0360416666663,
      "v": 54
    },
    {
      "midi": 46,
      "hit": false,
      "t": 89059.29666666676,
      "d": 199.05637500000012,
      "v": 55
    },
    {
      "midi": 51,
      "hit": false,
      "t": 89059.29666666676,
      "d": 199.05637500000012,
      "v": 55
    },
    {
      "midi": 58,
      "hit": false,
      "t": 89059.29666666676,
      "d": 199.05637500000012,
      "v": 55
    },
    {
      "midi": 63,
      "hit": false,
      "t": 89059.29666666676,
      "d": 199.05637500000012,
      "v": 55
    },
    {
      "midi": 67,
      "hit": false,
      "t": 89059.29666666676,
      "d": 199.05637500000012,
      "v": 44
    },
    {
      "midi": 70,
      "hit": false,
      "t": 89059.29666666676,
      "d": 258.0360416666663,
      "v": 54
    },
    {
      "midi": 46,
      "hit": false,
      "t": 89354.1950000001,
      "d": 176.9389999999985,
      "v": 46
    },
    {
      "midi": 51,
      "hit": false,
      "t": 89354.1950000001,
      "d": 176.9389999999985,
      "v": 46
    },
    {
      "midi": 58,
      "hit": false,
      "t": 89354.1950000001,
      "d": 176.9389999999985,
      "v": 46
    },
    {
      "midi": 63,
      "hit": false,
      "t": 89354.1950000001,
      "d": 176.9389999999985,
      "v": 46
    },
    {
      "midi": 67,
      "hit": false,
      "t": 89354.1950000001,
      "d": 176.9389999999985,
      "v": 46
    },
    {
      "midi": 70,
      "hit": false,
      "t": 89354.1950000001,
      "d": 258.0360416666663,
      "v": 54
    },
    {
      "midi": 46,
      "hit": false,
      "t": 89649.09333333343,
      "d": 147.44916666667268,
      "v": 48
    },
    {
      "midi": 51,
      "hit": false,
      "t": 89649.09333333343,
      "d": 147.44916666667268,
      "v": 48
    },
    {
      "midi": 58,
      "hit": false,
      "t": 89649.09333333343,
      "d": 147.44916666667268,
      "v": 48
    },
    {
      "midi": 63,
      "hit": false,
      "t": 89649.09333333343,
      "d": 147.44916666667268,
      "v": 48
    },
    {
      "midi": 67,
      "hit": false,
      "t": 89649.09333333343,
      "d": 147.44916666667268,
      "v": 48
    },
    {
      "midi": 70,
      "hit": false,
      "t": 89649.09333333343,
      "d": 191.68391666667594,
      "v": 53
    },
    {
      "midi": 46,
      "hit": false,
      "t": 89943.99166666677,
      "d": 176.9389999999985,
      "v": 49
    },
    {
      "midi": 51,
      "hit": false,
      "t": 89943.99166666677,
      "d": 176.9389999999985,
      "v": 49
    },
    {
      "midi": 58,
      "hit": false,
      "t": 89943.99166666677,
      "d": 176.9389999999985,
      "v": 49
    },
    {
      "midi": 63,
      "hit": false,
      "t": 89943.99166666677,
      "d": 176.9389999999985,
      "v": 49
    },
    {
      "midi": 67,
      "hit": false,
      "t": 89943.99166666677,
      "d": 176.9389999999985,
      "v": 49
    },
    {
      "midi": 70,
      "hit": false,
      "t": 89943.99166666677,
      "d": 199.05637500000012,
      "v": 55
    },
    {
      "midi": 46,
      "hit": false,
      "t": 90238.8900000001,
      "d": 206.42883333333884,
      "v": 57
    },
    {
      "midi": 51,
      "hit": false,
      "t": 90238.8900000001,
      "d": 206.42883333333884,
      "v": 57
    },
    {
      "midi": 58,
      "hit": false,
      "t": 90238.8900000001,
      "d": 206.42883333333884,
      "v": 57
    },
    {
      "midi": 63,
      "hit": false,
      "t": 90238.8900000001,
      "d": 206.42883333333884,
      "v": 57
    },
    {
      "midi": 67,
      "hit": false,
      "t": 90238.8900000001,
      "d": 206.42883333333884,
      "v": 46
    },
    {
      "midi": 70,
      "hit": false,
      "t": 90238.8900000001,
      "d": 213.80129166667757,
      "v": 55
    },
    {
      "midi": 46,
      "hit": false,
      "t": 90533.78833333345,
      "d": 184.3114583333372,
      "v": 49
    },
    {
      "midi": 51,
      "hit": false,
      "t": 90533.78833333345,
      "d": 184.3114583333372,
      "v": 49
    },
    {
      "midi": 58,
      "hit": false,
      "t": 90533.78833333345,
      "d": 184.3114583333372,
      "v": 49
    },
    {
      "midi": 63,
      "hit": false,
      "t": 90533.78833333345,
      "d": 184.3114583333372,
      "v": 49
    },
    {
      "midi": 70,
      "hit": false,
      "t": 90533.78833333345,
      "d": 199.05637500000012,
      "v": 43
    },
    {
      "midi": 67,
      "hit": false,
      "t": 90533.78833333345,
      "d": 235.91866666666465,
      "v": 49
    },
    {
      "midi": 46,
      "hit": false,
      "t": 90828.68666666678,
      "d": 206.42883333333884,
      "v": 57
    },
    {
      "midi": 51,
      "hit": false,
      "t": 90828.68666666678,
      "d": 206.42883333333884,
      "v": 57
    },
    {
      "midi": 58,
      "hit": false,
      "t": 90828.68666666678,
      "d": 206.42883333333884,
      "v": 57
    },
    {
      "midi": 63,
      "hit": false,
      "t": 90828.68666666678,
      "d": 206.42883333333884,
      "v": 57
    },
    {
      "midi": 67,
      "hit": false,
      "t": 90828.68666666678,
      "d": 206.42883333333884,
      "v": 48
    },
    {
      "midi": 70,
      "hit": false,
      "t": 90828.68666666678,
      "d": 221.17375000000175,
      "v": 44
    },
    {
      "midi": 46,
      "hit": false,
      "t": 91123.58500000011,
      "d": 169.56654166665976,
      "v": 49
    },
    {
      "midi": 58,
      "hit": false,
      "t": 91123.58500000011,
      "d": 169.56654166665976,
      "v": 49
    },
    {
      "midi": 63,
      "hit": false,
      "t": 91123.58500000011,
      "d": 169.56654166665976,
      "v": 49
    },
    {
      "midi": 67,
      "hit": false,
      "t": 91123.58500000011,
      "d": 169.56654166665976,
      "v": 49
    },
    {
      "midi": 51,
      "hit": false,
      "t": 91123.58500000011,
      "d": 176.9389999999985,
      "v": 49
    },
    {
      "midi": 70,
      "hit": false,
      "t": 91123.58500000011,
      "d": 213.80129166666302,
      "v": 57
    },
    {
      "midi": 46,
      "hit": false,
      "t": 91418.48333333344,
      "d": 154.82162499999686,
      "v": 58
    },
    {
      "midi": 51,
      "hit": false,
      "t": 91418.48333333344,
      "d": 154.82162499999686,
      "v": 58
    },
    {
      "midi": 58,
      "hit": false,
      "t": 91418.48333333344,
      "d": 154.82162499999686,
      "v": 58
    },
    {
      "midi": 63,
      "hit": false,
      "t": 91418.48333333344,
      "d": 154.82162499999686,
      "v": 58
    },
    {
      "midi": 67,
      "hit": false,
      "t": 91418.48333333344,
      "d": 154.82162499999686,
      "v": 49
    },
    {
      "midi": 70,
      "hit": false,
      "t": 91418.48333333344,
      "d": 235.91866666666465,
      "v": 55
    },
    {
      "midi": 46,
      "hit": false,
      "t": 91713.38166666677,
      "d": 169.56654166665976,
      "v": 45
    },
    {
      "midi": 51,
      "hit": false,
      "t": 91713.38166666677,
      "d": 169.56654166665976,
      "v": 45
    },
    {
      "midi": 58,
      "hit": false,
      "t": 91713.38166666677,
      "d": 169.56654166665976,
      "v": 45
    },
    {
      "midi": 70,
      "hit": false,
      "t": 91713.38166666677,
      "d": 199.05637500000012,
      "v": 58
    },
    {
      "midi": 63,
      "hit": false,
      "t": 91713.38166666677,
      "d": 228.54620833334047,
      "v": 45
    },
    {
      "midi": 67,
      "hit": false,
      "t": 91713.38166666677,
      "d": 250.6635833333421,
      "v": 45
    },
    {
      "midi": 46,
      "hit": false,
      "t": 92008.28000000012,
      "d": 213.80129166666302,
      "v": 52
    },
    {
      "midi": 51,
      "hit": false,
      "t": 92008.28000000012,
      "d": 213.80129166666302,
      "v": 52
    },
    {
      "midi": 58,
      "hit": false,
      "t": 92008.28000000012,
      "d": 213.80129166666302,
      "v": 52
    },
    {
      "midi": 63,
      "hit": false,
      "t": 92008.28000000012,
      "d": 213.80129166666302,
      "v": 52
    },
    {
      "midi": 67,
      "hit": false,
      "t": 92008.28000000012,
      "d": 213.80129166666302,
      "v": 41
    },
    {
      "midi": 70,
      "hit": false,
      "t": 92008.28000000012,
      "d": 258.0360416666663,
      "v": 52
    },
    {
      "midi": 46,
      "hit": false,
      "t": 92303.17833333345,
      "d": 162.19408333333558,
      "v": 47
    },
    {
      "midi": 51,
      "hit": false,
      "t": 92303.17833333345,
      "d": 162.19408333333558,
      "v": 47
    },
    {
      "midi": 58,
      "hit": false,
      "t": 92303.17833333345,
      "d": 162.19408333333558,
      "v": 47
    },
    {
      "midi": 63,
      "hit": false,
      "t": 92303.17833333345,
      "d": 162.19408333333558,
      "v": 47
    },
    {
      "midi": 67,
      "hit": false,
      "t": 92303.17833333345,
      "d": 162.19408333333558,
      "v": 47
    },
    {
      "midi": 70,
      "hit": false,
      "t": 92303.17833333345,
      "d": 258.0360416666663,
      "v": 54
    },
    {
      "midi": 46,
      "hit": false,
      "t": 92598.07666666678,
      "d": 199.05637500000012,
      "v": 55
    },
    {
      "midi": 51,
      "hit": false,
      "t": 92598.07666666678,
      "d": 199.05637500000012,
      "v": 55
    },
    {
      "midi": 58,
      "hit": false,
      "t": 92598.07666666678,
      "d": 199.05637500000012,
      "v": 55
    },
    {
      "midi": 63,
      "hit": false,
      "t": 92598.07666666678,
      "d": 199.05637500000012,
      "v": 55
    },
    {
      "midi": 67,
      "hit": false,
      "t": 92598.07666666678,
      "d": 199.05637500000012,
      "v": 44
    },
    {
      "midi": 70,
      "hit": false,
      "t": 92598.07666666678,
      "d": 258.0360416666663,
      "v": 54
    },
    {
      "midi": 46,
      "hit": false,
      "t": 92892.97500000011,
      "d": 176.9389999999985,
      "v": 46
    },
    {
      "midi": 51,
      "hit": false,
      "t": 92892.97500000011,
      "d": 176.9389999999985,
      "v": 46
    },
    {
      "midi": 58,
      "hit": false,
      "t": 92892.97500000011,
      "d": 176.9389999999985,
      "v": 46
    },
    {
      "midi": 63,
      "hit": false,
      "t": 92892.97500000011,
      "d": 176.9389999999985,
      "v": 46
    },
    {
      "midi": 67,
      "hit": false,
      "t": 92892.97500000011,
      "d": 176.9389999999985,
      "v": 46
    },
    {
      "midi": 70,
      "hit": false,
      "t": 92892.97500000011,
      "d": 258.0360416666663,
      "v": 54
    },
    {
      "midi": 46,
      "hit": false,
      "t": 93187.87333333344,
      "d": 147.44916666667268,
      "v": 48
    },
    {
      "midi": 51,
      "hit": false,
      "t": 93187.87333333344,
      "d": 147.44916666667268,
      "v": 48
    },
    {
      "midi": 58,
      "hit": false,
      "t": 93187.87333333344,
      "d": 147.44916666667268,
      "v": 48
    },
    {
      "midi": 63,
      "hit": false,
      "t": 93187.87333333344,
      "d": 147.44916666667268,
      "v": 48
    },
    {
      "midi": 67,
      "hit": false,
      "t": 93187.87333333344,
      "d": 147.44916666667268,
      "v": 48
    },
    {
      "midi": 70,
      "hit": false,
      "t": 93187.87333333344,
      "d": 191.68391666667594,
      "v": 53
    },
    {
      "midi": 46,
      "hit": false,
      "t": 93482.77166666678,
      "d": 176.9389999999985,
      "v": 49
    },
    {
      "midi": 51,
      "hit": false,
      "t": 93482.77166666678,
      "d": 176.9389999999985,
      "v": 49
    },
    {
      "midi": 58,
      "hit": false,
      "t": 93482.77166666678,
      "d": 176.9389999999985,
      "v": 49
    },
    {
      "midi": 63,
      "hit": false,
      "t": 93482.77166666678,
      "d": 176.9389999999985,
      "v": 49
    },
    {
      "midi": 67,
      "hit": false,
      "t": 93482.77166666678,
      "d": 176.9389999999985,
      "v": 49
    },
    {
      "midi": 70,
      "hit": false,
      "t": 93482.77166666678,
      "d": 199.05637500000012,
      "v": 55
    },
    {
      "midi": 46,
      "hit": false,
      "t": 93777.67000000011,
      "d": 206.42883333333884,
      "v": 57
    },
    {
      "midi": 51,
      "hit": false,
      "t": 93777.67000000011,
      "d": 206.42883333333884,
      "v": 57
    },
    {
      "midi": 58,
      "hit": false,
      "t": 93777.67000000011,
      "d": 206.42883333333884,
      "v": 57
    },
    {
      "midi": 63,
      "hit": false,
      "t": 93777.67000000011,
      "d": 206.42883333333884,
      "v": 57
    },
    {
      "midi": 67,
      "hit": false,
      "t": 93777.67000000011,
      "d": 206.42883333333884,
      "v": 46
    },
    {
      "midi": 70,
      "hit": false,
      "t": 93777.67000000011,
      "d": 213.80129166667757,
      "v": 55
    },
    {
      "midi": 46,
      "hit": false,
      "t": 94072.56833333346,
      "d": 184.3114583333372,
      "v": 49
    },
    {
      "midi": 51,
      "hit": false,
      "t": 94072.56833333346,
      "d": 184.3114583333372,
      "v": 49
    },
    {
      "midi": 58,
      "hit": false,
      "t": 94072.56833333346,
      "d": 184.3114583333372,
      "v": 49
    },
    {
      "midi": 63,
      "hit": false,
      "t": 94072.56833333346,
      "d": 184.3114583333372,
      "v": 49
    },
    {
      "midi": 70,
      "hit": false,
      "t": 94072.56833333346,
      "d": 199.05637500000012,
      "v": 43
    },
    {
      "midi": 67,
      "hit": false,
      "t": 94072.56833333346,
      "d": 235.91866666666465,
      "v": 49
    },
    {
      "midi": 46,
      "hit": false,
      "t": 94367.46666666679,
      "d": 206.42883333333884,
      "v": 57
    },
    {
      "midi": 51,
      "hit": false,
      "t": 94367.46666666679,
      "d": 206.42883333333884,
      "v": 57
    },
    {
      "midi": 58,
      "hit": false,
      "t": 94367.46666666679,
      "d": 206.42883333333884,
      "v": 57
    },
    {
      "midi": 63,
      "hit": false,
      "t": 94367.46666666679,
      "d": 206.42883333333884,
      "v": 57
    },
    {
      "midi": 67,
      "hit": false,
      "t": 94367.46666666679,
      "d": 206.42883333333884,
      "v": 48
    },
    {
      "midi": 70,
      "hit": false,
      "t": 94367.46666666679,
      "d": 221.17375000000175,
      "v": 44
    },
    {
      "midi": 46,
      "hit": false,
      "t": 94662.36500000012,
      "d": 169.56654166665976,
      "v": 49
    },
    {
      "midi": 58,
      "hit": false,
      "t": 94662.36500000012,
      "d": 169.56654166665976,
      "v": 49
    },
    {
      "midi": 63,
      "hit": false,
      "t": 94662.36500000012,
      "d": 169.56654166665976,
      "v": 49
    },
    {
      "midi": 67,
      "hit": false,
      "t": 94662.36500000012,
      "d": 169.56654166665976,
      "v": 49
    },
    {
      "midi": 51,
      "hit": false,
      "t": 94662.36500000012,
      "d": 176.9389999999985,
      "v": 49
    },
    {
      "midi": 70,
      "hit": false,
      "t": 94662.36500000012,
      "d": 213.80129166666302,
      "v": 57
    },
    {
      "midi": 46,
      "hit": false,
      "t": 94957.26333333345,
      "d": 154.82162499999686,
      "v": 58
    },
    {
      "midi": 51,
      "hit": false,
      "t": 94957.26333333345,
      "d": 154.82162499999686,
      "v": 58
    },
    {
      "midi": 58,
      "hit": false,
      "t": 94957.26333333345,
      "d": 154.82162499999686,
      "v": 58
    },
    {
      "midi": 63,
      "hit": false,
      "t": 94957.26333333345,
      "d": 154.82162499999686,
      "v": 58
    },
    {
      "midi": 67,
      "hit": false,
      "t": 94957.26333333345,
      "d": 154.82162499999686,
      "v": 49
    },
    {
      "midi": 70,
      "hit": false,
      "t": 94957.26333333345,
      "d": 235.91866666666465,
      "v": 55
    },
    {
      "midi": 46,
      "hit": false,
      "t": 95252.16166666678,
      "d": 169.56654166665976,
      "v": 45
    },
    {
      "midi": 51,
      "hit": false,
      "t": 95252.16166666678,
      "d": 169.56654166665976,
      "v": 45
    },
    {
      "midi": 58,
      "hit": false,
      "t": 95252.16166666678,
      "d": 169.56654166665976,
      "v": 45
    },
    {
      "midi": 70,
      "hit": false,
      "t": 95252.16166666678,
      "d": 199.05637500000012,
      "v": 58
    },
    {
      "midi": 63,
      "hit": false,
      "t": 95252.16166666678,
      "d": 228.54620833334047,
      "v": 45
    },
    {
      "midi": 67,
      "hit": false,
      "t": 95252.16166666678,
      "d": 250.6635833333421,
      "v": 45
    },
    {
      "midi": 48,
      "hit": false,
      "t": 95547.06000000013,
      "d": 213.80129166666302,
      "v": 52
    },
    {
      "midi": 53,
      "hit": false,
      "t": 95547.06000000013,
      "d": 213.80129166666302,
      "v": 52
    },
    {
      "midi": 56,
      "hit": false,
      "t": 95547.06000000013,
      "d": 213.80129166666302,
      "v": 52
    },
    {
      "midi": 60,
      "hit": false,
      "t": 95547.06000000013,
      "d": 213.80129166666302,
      "v": 52
    },
    {
      "midi": 65,
      "hit": false,
      "t": 95547.06000000013,
      "d": 213.80129166666302,
      "v": 41
    },
    {
      "midi": 68,
      "hit": false,
      "t": 95547.06000000013,
      "d": 258.0360416666663,
      "v": 52
    },
    {
      "midi": 48,
      "hit": false,
      "t": 95841.95833333346,
      "d": 162.19408333333558,
      "v": 47
    },
    {
      "midi": 53,
      "hit": false,
      "t": 95841.95833333346,
      "d": 162.19408333333558,
      "v": 47
    },
    {
      "midi": 56,
      "hit": false,
      "t": 95841.95833333346,
      "d": 162.19408333333558,
      "v": 47
    },
    {
      "midi": 60,
      "hit": false,
      "t": 95841.95833333346,
      "d": 162.19408333333558,
      "v": 47
    },
    {
      "midi": 65,
      "hit": false,
      "t": 95841.95833333346,
      "d": 162.19408333333558,
      "v": 47
    },
    {
      "midi": 68,
      "hit": false,
      "t": 95841.95833333346,
      "d": 258.0360416666663,
      "v": 54
    },
    {
      "midi": 48,
      "hit": false,
      "t": 96136.85666666679,
      "d": 199.05637500000012,
      "v": 55
    },
    {
      "midi": 53,
      "hit": false,
      "t": 96136.85666666679,
      "d": 199.05637500000012,
      "v": 55
    },
    {
      "midi": 56,
      "hit": false,
      "t": 96136.85666666679,
      "d": 199.05637500000012,
      "v": 55
    },
    {
      "midi": 60,
      "hit": false,
      "t": 96136.85666666679,
      "d": 199.05637500000012,
      "v": 55
    },
    {
      "midi": 65,
      "hit": false,
      "t": 96136.85666666679,
      "d": 199.05637500000012,
      "v": 44
    },
    {
      "midi": 68,
      "hit": false,
      "t": 96136.85666666679,
      "d": 258.0360416666663,
      "v": 54
    },
    {
      "midi": 48,
      "hit": false,
      "t": 96431.75500000012,
      "d": 176.9389999999985,
      "v": 46
    },
    {
      "midi": 53,
      "hit": false,
      "t": 96431.75500000012,
      "d": 176.9389999999985,
      "v": 46
    },
    {
      "midi": 56,
      "hit": false,
      "t": 96431.75500000012,
      "d": 176.9389999999985,
      "v": 46
    },
    {
      "midi": 60,
      "hit": false,
      "t": 96431.75500000012,
      "d": 176.9389999999985,
      "v": 46
    },
    {
      "midi": 65,
      "hit": false,
      "t": 96431.75500000012,
      "d": 176.9389999999985,
      "v": 46
    },
    {
      "midi": 68,
      "hit": false,
      "t": 96431.75500000012,
      "d": 258.0360416666663,
      "v": 54
    },
    {
      "midi": 48,
      "hit": false,
      "t": 96726.65333333345,
      "d": 147.44916666667268,
      "v": 48
    },
    {
      "midi": 53,
      "hit": false,
      "t": 96726.65333333345,
      "d": 147.44916666667268,
      "v": 48
    },
    {
      "midi": 56,
      "hit": false,
      "t": 96726.65333333345,
      "d": 147.44916666667268,
      "v": 48
    },
    {
      "midi": 60,
      "hit": false,
      "t": 96726.65333333345,
      "d": 147.44916666667268,
      "v": 48
    },
    {
      "midi": 65,
      "hit": false,
      "t": 96726.65333333345,
      "d": 147.44916666667268,
      "v": 48
    },
    {
      "midi": 68,
      "hit": false,
      "t": 96726.65333333345,
      "d": 191.68391666667594,
      "v": 53
    },
    {
      "midi": 48,
      "hit": false,
      "t": 97021.5516666668,
      "d": 176.9389999999985,
      "v": 49
    },
    {
      "midi": 53,
      "hit": false,
      "t": 97021.5516666668,
      "d": 176.9389999999985,
      "v": 49
    },
    {
      "midi": 56,
      "hit": false,
      "t": 97021.5516666668,
      "d": 176.9389999999985,
      "v": 49
    },
    {
      "midi": 60,
      "hit": false,
      "t": 97021.5516666668,
      "d": 176.9389999999985,
      "v": 49
    },
    {
      "midi": 65,
      "hit": false,
      "t": 97021.5516666668,
      "d": 176.9389999999985,
      "v": 49
    },
    {
      "midi": 68,
      "hit": false,
      "t": 97021.5516666668,
      "d": 199.05637500000012,
      "v": 55
    },
    {
      "midi": 48,
      "hit": false,
      "t": 97316.45000000013,
      "d": 206.42883333333884,
      "v": 57
    },
    {
      "midi": 53,
      "hit": false,
      "t": 97316.45000000013,
      "d": 206.42883333333884,
      "v": 57
    },
    {
      "midi": 56,
      "hit": false,
      "t": 97316.45000000013,
      "d": 206.42883333333884,
      "v": 57
    },
    {
      "midi": 60,
      "hit": false,
      "t": 97316.45000000013,
      "d": 206.42883333333884,
      "v": 57
    },
    {
      "midi": 65,
      "hit": false,
      "t": 97316.45000000013,
      "d": 206.42883333333884,
      "v": 46
    },
    {
      "midi": 68,
      "hit": false,
      "t": 97316.45000000013,
      "d": 213.80129166667757,
      "v": 55
    },
    {
      "midi": 48,
      "hit": false,
      "t": 97611.34833333347,
      "d": 184.3114583333372,
      "v": 49
    },
    {
      "midi": 53,
      "hit": false,
      "t": 97611.34833333347,
      "d": 184.3114583333372,
      "v": 49
    },
    {
      "midi": 56,
      "hit": false,
      "t": 97611.34833333347,
      "d": 184.3114583333372,
      "v": 49
    },
    {
      "midi": 60,
      "hit": false,
      "t": 97611.34833333347,
      "d": 184.3114583333372,
      "v": 49
    },
    {
      "midi": 68,
      "hit": false,
      "t": 97611.34833333347,
      "d": 199.05637500000012,
      "v": 43
    },
    {
      "midi": 65,
      "hit": false,
      "t": 97611.34833333347,
      "d": 235.91866666666465,
      "v": 49
    },
    {
      "midi": 48,
      "hit": false,
      "t": 97906.2466666668,
      "d": 206.42883333333884,
      "v": 57
    },
    {
      "midi": 53,
      "hit": false,
      "t": 97906.2466666668,
      "d": 206.42883333333884,
      "v": 57
    },
    {
      "midi": 56,
      "hit": false,
      "t": 97906.2466666668,
      "d": 206.42883333333884,
      "v": 57
    },
    {
      "midi": 60,
      "hit": false,
      "t": 97906.2466666668,
      "d": 206.42883333333884,
      "v": 57
    },
    {
      "midi": 65,
      "hit": false,
      "t": 97906.2466666668,
      "d": 206.42883333333884,
      "v": 48
    },
    {
      "midi": 68,
      "hit": false,
      "t": 97906.2466666668,
      "d": 221.17375000000175,
      "v": 44
    },
    {
      "midi": 48,
      "hit": false,
      "t": 98201.14500000014,
      "d": 169.56654166665976,
      "v": 49
    },
    {
      "midi": 56,
      "hit": false,
      "t": 98201.14500000014,
      "d": 169.56654166665976,
      "v": 49
    },
    {
      "midi": 60,
      "hit": false,
      "t": 98201.14500000014,
      "d": 169.56654166665976,
      "v": 49
    },
    {
      "midi": 65,
      "hit": false,
      "t": 98201.14500000014,
      "d": 169.56654166665976,
      "v": 49
    },
    {
      "midi": 53,
      "hit": false,
      "t": 98201.14500000014,
      "d": 176.9389999999985,
      "v": 49
    },
    {
      "midi": 68,
      "hit": false,
      "t": 98201.14500000014,
      "d": 213.80129166666302,
      "v": 57
    },
    {
      "midi": 48,
      "hit": false,
      "t": 98496.04333333347,
      "d": 154.82162499999686,
      "v": 58
    },
    {
      "midi": 53,
      "hit": false,
      "t": 98496.04333333347,
      "d": 154.82162499999686,
      "v": 58
    },
    {
      "midi": 56,
      "hit": false,
      "t": 98496.04333333347,
      "d": 154.82162499999686,
      "v": 58
    },
    {
      "midi": 60,
      "hit": false,
      "t": 98496.04333333347,
      "d": 154.82162499999686,
      "v": 58
    },
    {
      "midi": 65,
      "hit": false,
      "t": 98496.04333333347,
      "d": 154.82162499999686,
      "v": 49
    },
    {
      "midi": 68,
      "hit": false,
      "t": 98496.04333333347,
      "d": 235.91866666666465,
      "v": 55
    },
    {
      "midi": 48,
      "hit": false,
      "t": 98790.9416666668,
      "d": 169.56654166665976,
      "v": 45
    },
    {
      "midi": 53,
      "hit": false,
      "t": 98790.9416666668,
      "d": 169.56654166665976,
      "v": 45
    },
    {
      "midi": 56,
      "hit": false,
      "t": 98790.9416666668,
      "d": 169.56654166665976,
      "v": 45
    },
    {
      "midi": 68,
      "hit": false,
      "t": 98790.9416666668,
      "d": 199.05637500000012,
      "v": 58
    },
    {
      "midi": 60,
      "hit": false,
      "t": 98790.9416666668,
      "d": 228.54620833334047,
      "v": 45
    },
    {
      "midi": 65,
      "hit": false,
      "t": 98790.9416666668,
      "d": 250.6635833333421,
      "v": 45
    },
    {
      "midi": 46,
      "hit": false,
      "t": 99085.84000000014,
      "d": 213.80129166666302,
      "v": 52
    },
    {
      "midi": 51,
      "hit": false,
      "t": 99085.84000000014,
      "d": 213.80129166666302,
      "v": 52
    },
    {
      "midi": 58,
      "hit": false,
      "t": 99085.84000000014,
      "d": 213.80129166666302,
      "v": 52
    },
    {
      "midi": 63,
      "hit": false,
      "t": 99085.84000000014,
      "d": 213.80129166666302,
      "v": 52
    },
    {
      "midi": 67,
      "hit": false,
      "t": 99085.84000000014,
      "d": 213.80129166666302,
      "v": 41
    },
    {
      "midi": 70,
      "hit": false,
      "t": 99085.84000000014,
      "d": 258.0360416666663,
      "v": 52
    },
    {
      "midi": 46,
      "hit": false,
      "t": 99380.73833333347,
      "d": 162.19408333333558,
      "v": 47
    },
    {
      "midi": 51,
      "hit": false,
      "t": 99380.73833333347,
      "d": 162.19408333333558,
      "v": 47
    },
    {
      "midi": 58,
      "hit": false,
      "t": 99380.73833333347,
      "d": 162.19408333333558,
      "v": 47
    },
    {
      "midi": 63,
      "hit": false,
      "t": 99380.73833333347,
      "d": 162.19408333333558,
      "v": 47
    },
    {
      "midi": 67,
      "hit": false,
      "t": 99380.73833333347,
      "d": 162.19408333333558,
      "v": 47
    },
    {
      "midi": 70,
      "hit": false,
      "t": 99380.73833333347,
      "d": 258.0360416666663,
      "v": 54
    },
    {
      "midi": 46,
      "hit": false,
      "t": 99675.6366666668,
      "d": 199.05637500000012,
      "v": 55
    },
    {
      "midi": 51,
      "hit": false,
      "t": 99675.6366666668,
      "d": 199.05637500000012,
      "v": 55
    },
    {
      "midi": 58,
      "hit": false,
      "t": 99675.6366666668,
      "d": 199.05637500000012,
      "v": 55
    },
    {
      "midi": 63,
      "hit": false,
      "t": 99675.6366666668,
      "d": 199.05637500000012,
      "v": 55
    },
    {
      "midi": 67,
      "hit": false,
      "t": 99675.6366666668,
      "d": 199.05637500000012,
      "v": 44
    },
    {
      "midi": 70,
      "hit": false,
      "t": 99675.6366666668,
      "d": 258.0360416666663,
      "v": 54
    },
    {
      "midi": 46,
      "hit": false,
      "t": 99970.53500000013,
      "d": 176.9389999999985,
      "v": 46
    },
    {
      "midi": 51,
      "hit": false,
      "t": 99970.53500000013,
      "d": 176.9389999999985,
      "v": 46
    },
    {
      "midi": 58,
      "hit": false,
      "t": 99970.53500000013,
      "d": 176.9389999999985,
      "v": 46
    },
    {
      "midi": 63,
      "hit": false,
      "t": 99970.53500000013,
      "d": 176.9389999999985,
      "v": 46
    },
    {
      "midi": 67,
      "hit": false,
      "t": 99970.53500000013,
      "d": 176.9389999999985,
      "v": 46
    },
    {
      "midi": 70,
      "hit": false,
      "t": 99970.53500000013,
      "d": 258.0360416666663,
      "v": 54
    },
    {
      "midi": 46,
      "hit": false,
      "t": 100265.43333333347,
      "d": 147.44916666667268,
      "v": 48
    },
    {
      "midi": 51,
      "hit": false,
      "t": 100265.43333333347,
      "d": 147.44916666667268,
      "v": 48
    },
    {
      "midi": 58,
      "hit": false,
      "t": 100265.43333333347,
      "d": 147.44916666667268,
      "v": 48
    },
    {
      "midi": 63,
      "hit": false,
      "t": 100265.43333333347,
      "d": 147.44916666667268,
      "v": 48
    },
    {
      "midi": 67,
      "hit": false,
      "t": 100265.43333333347,
      "d": 147.44916666667268,
      "v": 48
    },
    {
      "midi": 70,
      "hit": false,
      "t": 100265.43333333347,
      "d": 191.68391666667594,
      "v": 53
    },
    {
      "midi": 46,
      "hit": false,
      "t": 100560.33166666681,
      "d": 176.9389999999985,
      "v": 49
    },
    {
      "midi": 51,
      "hit": false,
      "t": 100560.33166666681,
      "d": 176.9389999999985,
      "v": 49
    },
    {
      "midi": 58,
      "hit": false,
      "t": 100560.33166666681,
      "d": 176.9389999999985,
      "v": 49
    },
    {
      "midi": 63,
      "hit": false,
      "t": 100560.33166666681,
      "d": 176.9389999999985,
      "v": 49
    },
    {
      "midi": 67,
      "hit": false,
      "t": 100560.33166666681,
      "d": 176.9389999999985,
      "v": 49
    },
    {
      "midi": 70,
      "hit": false,
      "t": 100560.33166666681,
      "d": 199.05637500000012,
      "v": 55
    },
    {
      "midi": 46,
      "hit": false,
      "t": 100855.23000000014,
      "d": 206.42883333333884,
      "v": 57
    },
    {
      "midi": 51,
      "hit": false,
      "t": 100855.23000000014,
      "d": 206.42883333333884,
      "v": 57
    },
    {
      "midi": 58,
      "hit": false,
      "t": 100855.23000000014,
      "d": 206.42883333333884,
      "v": 57
    },
    {
      "midi": 63,
      "hit": false,
      "t": 100855.23000000014,
      "d": 206.42883333333884,
      "v": 57
    },
    {
      "midi": 67,
      "hit": false,
      "t": 100855.23000000014,
      "d": 206.42883333333884,
      "v": 46
    },
    {
      "midi": 70,
      "hit": false,
      "t": 100855.23000000014,
      "d": 213.80129166667757,
      "v": 55
    },
    {
      "midi": 46,
      "hit": false,
      "t": 101150.12833333349,
      "d": 184.3114583333372,
      "v": 49
    },
    {
      "midi": 51,
      "hit": false,
      "t": 101150.12833333349,
      "d": 184.3114583333372,
      "v": 49
    },
    {
      "midi": 58,
      "hit": false,
      "t": 101150.12833333349,
      "d": 184.3114583333372,
      "v": 49
    },
    {
      "midi": 63,
      "hit": false,
      "t": 101150.12833333349,
      "d": 184.3114583333372,
      "v": 49
    },
    {
      "midi": 70,
      "hit": false,
      "t": 101150.12833333349,
      "d": 199.05637500000012,
      "v": 43
    },
    {
      "midi": 67,
      "hit": false,
      "t": 101150.12833333349,
      "d": 235.91866666666465,
      "v": 49
    },
    {
      "midi": 46,
      "hit": false,
      "t": 101445.02666666682,
      "d": 206.42883333333884,
      "v": 57
    },
    {
      "midi": 51,
      "hit": false,
      "t": 101445.02666666682,
      "d": 206.42883333333884,
      "v": 57
    },
    {
      "midi": 58,
      "hit": false,
      "t": 101445.02666666682,
      "d": 206.42883333333884,
      "v": 57
    },
    {
      "midi": 63,
      "hit": false,
      "t": 101445.02666666682,
      "d": 206.42883333333884,
      "v": 57
    },
    {
      "midi": 67,
      "hit": false,
      "t": 101445.02666666682,
      "d": 206.42883333333884,
      "v": 48
    },
    {
      "midi": 70,
      "hit": false,
      "t": 101445.02666666682,
      "d": 221.17375000000175,
      "v": 44
    },
    {
      "midi": 46,
      "hit": false,
      "t": 101739.92500000015,
      "d": 169.56654166665976,
      "v": 49
    },
    {
      "midi": 58,
      "hit": false,
      "t": 101739.92500000015,
      "d": 169.56654166665976,
      "v": 49
    },
    {
      "midi": 63,
      "hit": false,
      "t": 101739.92500000015,
      "d": 169.56654166665976,
      "v": 49
    },
    {
      "midi": 67,
      "hit": false,
      "t": 101739.92500000015,
      "d": 169.56654166665976,
      "v": 49
    },
    {
      "midi": 51,
      "hit": false,
      "t": 101739.92500000015,
      "d": 176.9389999999985,
      "v": 49
    },
    {
      "midi": 70,
      "hit": false,
      "t": 101739.92500000015,
      "d": 213.80129166666302,
      "v": 57
    },
    {
      "midi": 46,
      "hit": false,
      "t": 102034.82333333348,
      "d": 154.82162499999686,
      "v": 58
    },
    {
      "midi": 51,
      "hit": false,
      "t": 102034.82333333348,
      "d": 154.82162499999686,
      "v": 58
    },
    {
      "midi": 58,
      "hit": false,
      "t": 102034.82333333348,
      "d": 154.82162499999686,
      "v": 58
    },
    {
      "midi": 63,
      "hit": false,
      "t": 102034.82333333348,
      "d": 154.82162499999686,
      "v": 58
    },
    {
      "midi": 67,
      "hit": false,
      "t": 102034.82333333348,
      "d": 154.82162499999686,
      "v": 49
    },
    {
      "midi": 70,
      "hit": false,
      "t": 102034.82333333348,
      "d": 235.91866666666465,
      "v": 55
    },
    {
      "midi": 46,
      "hit": false,
      "t": 102329.72166666681,
      "d": 169.56654166665976,
      "v": 45
    },
    {
      "midi": 51,
      "hit": false,
      "t": 102329.72166666681,
      "d": 169.56654166665976,
      "v": 45
    },
    {
      "midi": 58,
      "hit": false,
      "t": 102329.72166666681,
      "d": 169.56654166665976,
      "v": 45
    },
    {
      "midi": 70,
      "hit": false,
      "t": 102329.72166666681,
      "d": 199.05637500000012,
      "v": 58
    },
    {
      "midi": 63,
      "hit": false,
      "t": 102329.72166666681,
      "d": 228.54620833334047,
      "v": 45
    },
    {
      "midi": 67,
      "hit": false,
      "t": 102329.72166666681,
      "d": 250.6635833333421,
      "v": 45
    },
    {
      "midi": 48,
      "hit": false,
      "t": 102624.62000000016,
      "d": 213.80129166666302,
      "v": 52
    },
    {
      "midi": 53,
      "hit": false,
      "t": 102624.62000000016,
      "d": 213.80129166666302,
      "v": 52
    },
    {
      "midi": 60,
      "hit": false,
      "t": 102624.62000000016,
      "d": 213.80129166666302,
      "v": 52
    },
    {
      "midi": 63,
      "hit": false,
      "t": 102624.62000000016,
      "d": 213.80129166666302,
      "v": 52
    },
    {
      "midi": 65,
      "hit": false,
      "t": 102624.62000000016,
      "d": 213.80129166666302,
      "v": 41
    },
    {
      "midi": 69,
      "hit": false,
      "t": 102624.62000000016,
      "d": 258.0360416666663,
      "v": 52
    },
    {
      "midi": 48,
      "hit": false,
      "t": 102919.51833333349,
      "d": 162.19408333333558,
      "v": 47
    },
    {
      "midi": 53,
      "hit": false,
      "t": 102919.51833333349,
      "d": 162.19408333333558,
      "v": 47
    },
    {
      "midi": 60,
      "hit": false,
      "t": 102919.51833333349,
      "d": 162.19408333333558,
      "v": 47
    },
    {
      "midi": 65,
      "hit": false,
      "t": 102919.51833333349,
      "d": 162.19408333333558,
      "v": 47
    },
    {
      "midi": 63,
      "hit": false,
      "t": 102919.51833333349,
      "d": 206.42883333333884,
      "v": 47
    },
    {
      "midi": 69,
      "hit": false,
      "t": 102919.51833333349,
      "d": 258.0360416666663,
      "v": 54
    },
    {
      "midi": 48,
      "hit": false,
      "t": 103214.41666666682,
      "d": 199.05637500000012,
      "v": 55
    },
    {
      "midi": 53,
      "hit": false,
      "t": 103214.41666666682,
      "d": 199.05637500000012,
      "v": 55
    },
    {
      "midi": 60,
      "hit": false,
      "t": 103214.41666666682,
      "d": 199.05637500000012,
      "v": 55
    },
    {
      "midi": 63,
      "hit": false,
      "t": 103214.41666666682,
      "d": 199.05637500000012,
      "v": 55
    },
    {
      "midi": 65,
      "hit": false,
      "t": 103214.41666666682,
      "d": 199.05637500000012,
      "v": 44
    },
    {
      "midi": 69,
      "hit": false,
      "t": 103214.41666666682,
      "d": 258.0360416666663,
      "v": 54
    },
    {
      "midi": 48,
      "hit": false,
      "t": 103509.31500000015,
      "d": 176.9389999999985,
      "v": 46
    },
    {
      "midi": 53,
      "hit": false,
      "t": 103509.31500000015,
      "d": 176.9389999999985,
      "v": 46
    },
    {
      "midi": 60,
      "hit": false,
      "t": 103509.31500000015,
      "d": 176.9389999999985,
      "v": 46
    },
    {
      "midi": 63,
      "hit": false,
      "t": 103509.31500000015,
      "d": 176.9389999999985,
      "v": 46
    },
    {
      "midi": 65,
      "hit": false,
      "t": 103509.31500000015,
      "d": 176.9389999999985,
      "v": 46
    },
    {
      "midi": 69,
      "hit": false,
      "t": 103509.31500000015,
      "d": 258.0360416666663,
      "v": 54
    },
    {
      "midi": 48,
      "hit": false,
      "t": 103804.21333333348,
      "d": 147.44916666667268,
      "v": 48
    },
    {
      "midi": 53,
      "hit": false,
      "t": 103804.21333333348,
      "d": 147.44916666667268,
      "v": 48
    },
    {
      "midi": 60,
      "hit": false,
      "t": 103804.21333333348,
      "d": 147.44916666667268,
      "v": 48
    },
    {
      "midi": 63,
      "hit": false,
      "t": 103804.21333333348,
      "d": 147.44916666667268,
      "v": 48
    },
    {
      "midi": 65,
      "hit": false,
      "t": 103804.21333333348,
      "d": 147.44916666667268,
      "v": 48
    },
    {
      "midi": 69,
      "hit": false,
      "t": 103804.21333333348,
      "d": 191.68391666667594,
      "v": 53
    },
    {
      "midi": 48,
      "hit": false,
      "t": 104099.11166666682,
      "d": 176.9389999999985,
      "v": 49
    },
    {
      "midi": 53,
      "hit": false,
      "t": 104099.11166666682,
      "d": 176.9389999999985,
      "v": 49
    },
    {
      "midi": 60,
      "hit": false,
      "t": 104099.11166666682,
      "d": 176.9389999999985,
      "v": 49
    },
    {
      "midi": 63,
      "hit": false,
      "t": 104099.11166666682,
      "d": 176.9389999999985,
      "v": 49
    },
    {
      "midi": 65,
      "hit": false,
      "t": 104099.11166666682,
      "d": 176.9389999999985,
      "v": 49
    },
    {
      "midi": 69,
      "hit": false,
      "t": 104099.11166666682,
      "d": 199.05637500000012,
      "v": 55
    },
    {
      "midi": 48,
      "hit": false,
      "t": 104394.01000000015,
      "d": 206.42883333333884,
      "v": 57
    },
    {
      "midi": 53,
      "hit": false,
      "t": 104394.01000000015,
      "d": 206.42883333333884,
      "v": 57
    },
    {
      "midi": 60,
      "hit": false,
      "t": 104394.01000000015,
      "d": 206.42883333333884,
      "v": 57
    },
    {
      "midi": 63,
      "hit": false,
      "t": 104394.01000000015,
      "d": 206.42883333333884,
      "v": 57
    },
    {
      "midi": 65,
      "hit": false,
      "t": 104394.01000000015,
      "d": 206.42883333333884,
      "v": 46
    },
    {
      "midi": 69,
      "hit": false,
      "t": 104394.01000000015,
      "d": 213.80129166667757,
      "v": 55
    },
    {
      "midi": 48,
      "hit": false,
      "t": 104688.9083333335,
      "d": 184.3114583333372,
      "v": 49
    },
    {
      "midi": 53,
      "hit": false,
      "t": 104688.9083333335,
      "d": 184.3114583333372,
      "v": 49
    },
    {
      "midi": 60,
      "hit": false,
      "t": 104688.9083333335,
      "d": 184.3114583333372,
      "v": 49
    },
    {
      "midi": 63,
      "hit": false,
      "t": 104688.9083333335,
      "d": 184.3114583333372,
      "v": 49
    },
    {
      "midi": 69,
      "hit": false,
      "t": 104688.9083333335,
      "d": 199.05637500000012,
      "v": 43
    },
    {
      "midi": 65,
      "hit": false,
      "t": 104688.9083333335,
      "d": 235.91866666666465,
      "v": 49
    },
    {
      "midi": 48,
      "hit": false,
      "t": 104983.80666666683,
      "d": 206.42883333333884,
      "v": 57
    },
    {
      "midi": 53,
      "hit": false,
      "t": 104983.80666666683,
      "d": 206.42883333333884,
      "v": 57
    },
    {
      "midi": 60,
      "hit": false,
      "t": 104983.80666666683,
      "d": 206.42883333333884,
      "v": 57
    },
    {
      "midi": 63,
      "hit": false,
      "t": 104983.80666666683,
      "d": 206.42883333333884,
      "v": 57
    },
    {
      "midi": 65,
      "hit": false,
      "t": 104983.80666666683,
      "d": 206.42883333333884,
      "v": 48
    },
    {
      "midi": 69,
      "hit": false,
      "t": 104983.80666666683,
      "d": 221.17375000000175,
      "v": 44
    },
    {
      "midi": 48,
      "hit": false,
      "t": 105278.70500000016,
      "d": 169.56654166665976,
      "v": 49
    },
    {
      "midi": 60,
      "hit": false,
      "t": 105278.70500000016,
      "d": 169.56654166665976,
      "v": 49
    },
    {
      "midi": 63,
      "hit": false,
      "t": 105278.70500000016,
      "d": 169.56654166665976,
      "v": 49
    },
    {
      "midi": 65,
      "hit": false,
      "t": 105278.70500000016,
      "d": 169.56654166665976,
      "v": 49
    },
    {
      "midi": 53,
      "hit": false,
      "t": 105278.70500000016,
      "d": 176.9389999999985,
      "v": 49
    },
    {
      "midi": 69,
      "hit": false,
      "t": 105278.70500000016,
      "d": 213.80129166666302,
      "v": 57
    },
    {
      "midi": 48,
      "hit": false,
      "t": 105573.60333333349,
      "d": 154.82162499999686,
      "v": 58
    },
    {
      "midi": 53,
      "hit": false,
      "t": 105573.60333333349,
      "d": 154.82162499999686,
      "v": 58
    },
    {
      "midi": 60,
      "hit": false,
      "t": 105573.60333333349,
      "d": 154.82162499999686,
      "v": 58
    },
    {
      "midi": 63,
      "hit": false,
      "t": 105573.60333333349,
      "d": 154.82162499999686,
      "v": 58
    },
    {
      "midi": 65,
      "hit": false,
      "t": 105573.60333333349,
      "d": 154.82162499999686,
      "v": 49
    },
    {
      "midi": 69,
      "hit": false,
      "t": 105573.60333333349,
      "d": 235.91866666666465,
      "v": 55
    },
    {
      "midi": 48,
      "hit": false,
      "t": 105868.50166666682,
      "d": 169.56654166665976,
      "v": 45
    },
    {
      "midi": 53,
      "hit": false,
      "t": 105868.50166666682,
      "d": 169.56654166665976,
      "v": 45
    },
    {
      "midi": 60,
      "hit": false,
      "t": 105868.50166666682,
      "d": 169.56654166665976,
      "v": 45
    },
    {
      "midi": 69,
      "hit": false,
      "t": 105868.50166666682,
      "d": 199.05637500000012,
      "v": 58
    },
    {
      "midi": 63,
      "hit": false,
      "t": 105868.50166666682,
      "d": 228.54620833334047,
      "v": 45
    },
    {
      "midi": 65,
      "hit": false,
      "t": 105868.50166666682,
      "d": 250.6635833333421,
      "v": 45
    },
    {
      "midi": 46,
      "hit": false,
      "t": 106163.40000000017,
      "d": 213.80129166666302,
      "v": 52
    },
    {
      "midi": 50,
      "hit": false,
      "t": 106163.40000000017,
      "d": 213.80129166666302,
      "v": 52
    },
    {
      "midi": 58,
      "hit": false,
      "t": 106163.40000000017,
      "d": 213.80129166666302,
      "v": 52
    },
    {
      "midi": 62,
      "hit": false,
      "t": 106163.40000000017,
      "d": 213.80129166666302,
      "v": 52
    },
    {
      "midi": 65,
      "hit": false,
      "t": 106163.40000000017,
      "d": 213.80129166666302,
      "v": 41
    },
    {
      "midi": 70,
      "hit": false,
      "t": 106163.40000000017,
      "d": 258.0360416666663,
      "v": 52
    },
    {
      "midi": 46,
      "hit": false,
      "t": 109702.18000000017,
      "d": 213.80129166666302,
      "v": 52
    },
    {
      "midi": 50,
      "hit": false,
      "t": 109702.18000000017,
      "d": 213.80129166666302,
      "v": 52
    },
    {
      "midi": 58,
      "hit": false,
      "t": 109702.18000000017,
      "d": 213.80129166666302,
      "v": 52
    },
    {
      "midi": 62,
      "hit": false,
      "t": 109702.18000000017,
      "d": 213.80129166666302,
      "v": 52
    },
    {
      "midi": 65,
      "hit": false,
      "t": 109702.18000000017,
      "d": 213.80129166666302,
      "v": 41
    },
    {
      "midi": 68,
      "hit": false,
      "t": 109702.18000000017,
      "d": 213.80129166666302,
      "v": 41
    },
    {
      "midi": 70,
      "hit": false,
      "t": 109702.18000000017,
      "d": 258.0360416666663,
      "v": 52
    },
    {
      "midi": 46,
      "hit": false,
      "t": 109997.0783333335,
      "d": 162.19408333333558,
      "v": 47
    },
    {
      "midi": 50,
      "hit": false,
      "t": 109997.0783333335,
      "d": 162.19408333333558,
      "v": 47
    },
    {
      "midi": 58,
      "hit": false,
      "t": 109997.0783333335,
      "d": 162.19408333333558,
      "v": 47
    },
    {
      "midi": 62,
      "hit": false,
      "t": 109997.0783333335,
      "d": 162.19408333333558,
      "v": 47
    },
    {
      "midi": 65,
      "hit": false,
      "t": 109997.0783333335,
      "d": 162.19408333333558,
      "v": 47
    },
    {
      "midi": 68,
      "hit": false,
      "t": 109997.0783333335,
      "d": 162.19408333333558,
      "v": 47
    },
    {
      "midi": 70,
      "hit": false,
      "t": 109997.0783333335,
      "d": 258.0360416666663,
      "v": 54
    },
    {
      "midi": 46,
      "hit": false,
      "t": 110291.97666666683,
      "d": 199.05637500000012,
      "v": 55
    },
    {
      "midi": 50,
      "hit": false,
      "t": 110291.97666666683,
      "d": 199.05637500000012,
      "v": 55
    },
    {
      "midi": 58,
      "hit": false,
      "t": 110291.97666666683,
      "d": 199.05637500000012,
      "v": 55
    },
    {
      "midi": 62,
      "hit": false,
      "t": 110291.97666666683,
      "d": 199.05637500000012,
      "v": 55
    },
    {
      "midi": 65,
      "hit": false,
      "t": 110291.97666666683,
      "d": 199.05637500000012,
      "v": 44
    },
    {
      "midi": 68,
      "hit": false,
      "t": 110291.97666666683,
      "d": 199.05637500000012,
      "v": 44
    },
    {
      "midi": 70,
      "hit": false,
      "t": 110291.97666666683,
      "d": 258.0360416666663,
      "v": 54
    },
    {
      "midi": 46,
      "hit": false,
      "t": 110586.87500000016,
      "d": 176.9389999999985,
      "v": 46
    },
    {
      "midi": 50,
      "hit": false,
      "t": 110586.87500000016,
      "d": 176.9389999999985,
      "v": 46
    },
    {
      "midi": 58,
      "hit": false,
      "t": 110586.87500000016,
      "d": 176.9389999999985,
      "v": 46
    },
    {
      "midi": 62,
      "hit": false,
      "t": 110586.87500000016,
      "d": 176.9389999999985,
      "v": 46
    },
    {
      "midi": 65,
      "hit": false,
      "t": 110586.87500000016,
      "d": 176.9389999999985,
      "v": 46
    },
    {
      "midi": 68,
      "hit": false,
      "t": 110586.87500000016,
      "d": 176.9389999999985,
      "v": 46
    },
    {
      "midi": 70,
      "hit": false,
      "t": 110586.87500000016,
      "d": 258.0360416666663,
      "v": 54
    },
    {
      "midi": 46,
      "hit": false,
      "t": 110881.77333333349,
      "d": 147.44916666667268,
      "v": 48
    },
    {
      "midi": 50,
      "hit": false,
      "t": 110881.77333333349,
      "d": 147.44916666667268,
      "v": 48
    },
    {
      "midi": 58,
      "hit": false,
      "t": 110881.77333333349,
      "d": 147.44916666667268,
      "v": 48
    },
    {
      "midi": 62,
      "hit": false,
      "t": 110881.77333333349,
      "d": 147.44916666667268,
      "v": 48
    },
    {
      "midi": 65,
      "hit": false,
      "t": 110881.77333333349,
      "d": 147.44916666667268,
      "v": 48
    },
    {
      "midi": 68,
      "hit": false,
      "t": 110881.77333333349,
      "d": 147.44916666667268,
      "v": 48
    },
    {
      "midi": 70,
      "hit": false,
      "t": 110881.77333333349,
      "d": 191.68391666667594,
      "v": 53
    },
    {
      "midi": 46,
      "hit": false,
      "t": 111176.67166666684,
      "d": 176.9389999999985,
      "v": 49
    },
    {
      "midi": 50,
      "hit": false,
      "t": 111176.67166666684,
      "d": 176.9389999999985,
      "v": 49
    },
    {
      "midi": 58,
      "hit": false,
      "t": 111176.67166666684,
      "d": 176.9389999999985,
      "v": 49
    },
    {
      "midi": 62,
      "hit": false,
      "t": 111176.67166666684,
      "d": 176.9389999999985,
      "v": 49
    },
    {
      "midi": 65,
      "hit": false,
      "t": 111176.67166666684,
      "d": 176.9389999999985,
      "v": 49
    },
    {
      "midi": 68,
      "hit": false,
      "t": 111176.67166666684,
      "d": 176.9389999999985,
      "v": 49
    },
    {
      "midi": 70,
      "hit": false,
      "t": 111176.67166666684,
      "d": 199.05637500000012,
      "v": 55
    },
    {
      "midi": 46,
      "hit": false,
      "t": 111471.57000000017,
      "d": 206.42883333333884,
      "v": 57
    },
    {
      "midi": 50,
      "hit": false,
      "t": 111471.57000000017,
      "d": 206.42883333333884,
      "v": 57
    },
    {
      "midi": 58,
      "hit": false,
      "t": 111471.57000000017,
      "d": 206.42883333333884,
      "v": 57
    },
    {
      "midi": 62,
      "hit": false,
      "t": 111471.57000000017,
      "d": 206.42883333333884,
      "v": 57
    },
    {
      "midi": 65,
      "hit": false,
      "t": 111471.57000000017,
      "d": 206.42883333333884,
      "v": 46
    },
    {
      "midi": 68,
      "hit": false,
      "t": 111471.57000000017,
      "d": 206.42883333333884,
      "v": 46
    },
    {
      "midi": 70,
      "hit": false,
      "t": 111471.57000000017,
      "d": 213.80129166667757,
      "v": 55
    },
    {
      "midi": 46,
      "hit": false,
      "t": 111766.46833333351,
      "d": 184.3114583333372,
      "v": 49
    },
    {
      "midi": 50,
      "hit": false,
      "t": 111766.46833333351,
      "d": 184.3114583333372,
      "v": 49
    },
    {
      "midi": 58,
      "hit": false,
      "t": 111766.46833333351,
      "d": 184.3114583333372,
      "v": 49
    },
    {
      "midi": 62,
      "hit": false,
      "t": 111766.46833333351,
      "d": 184.3114583333372,
      "v": 49
    },
    {
      "midi": 70,
      "hit": false,
      "t": 111766.46833333351,
      "d": 199.05637500000012,
      "v": 43
    },
    {
      "midi": 65,
      "hit": false,
      "t": 111766.46833333351,
      "d": 235.91866666666465,
      "v": 49
    },
    {
      "midi": 68,
      "hit": false,
      "t": 111766.46833333351,
      "d": 235.91866666666465,
      "v": 49
    },
    {
      "midi": 46,
      "hit": false,
      "t": 112061.36666666684,
      "d": 206.42883333333884,
      "v": 57
    },
    {
      "midi": 50,
      "hit": false,
      "t": 112061.36666666684,
      "d": 206.42883333333884,
      "v": 57
    },
    {
      "midi": 58,
      "hit": false,
      "t": 112061.36666666684,
      "d": 206.42883333333884,
      "v": 57
    },
    {
      "midi": 62,
      "hit": false,
      "t": 112061.36666666684,
      "d": 206.42883333333884,
      "v": 57
    },
    {
      "midi": 65,
      "hit": false,
      "t": 112061.36666666684,
      "d": 206.42883333333884,
      "v": 48
    },
    {
      "midi": 68,
      "hit": false,
      "t": 112061.36666666684,
      "d": 206.42883333333884,
      "v": 48
    },
    {
      "midi": 70,
      "hit": false,
      "t": 112061.36666666684,
      "d": 221.17375000000175,
      "v": 44
    },
    {
      "midi": 46,
      "hit": false,
      "t": 112356.26500000017,
      "d": 169.56654166665976,
      "v": 49
    },
    {
      "midi": 58,
      "hit": false,
      "t": 112356.26500000017,
      "d": 169.56654166665976,
      "v": 49
    },
    {
      "midi": 62,
      "hit": false,
      "t": 112356.26500000017,
      "d": 169.56654166665976,
      "v": 49
    },
    {
      "midi": 65,
      "hit": false,
      "t": 112356.26500000017,
      "d": 169.56654166665976,
      "v": 49
    },
    {
      "midi": 68,
      "hit": false,
      "t": 112356.26500000017,
      "d": 169.56654166665976,
      "v": 49
    },
    {
      "midi": 50,
      "hit": false,
      "t": 112356.26500000017,
      "d": 176.9389999999985,
      "v": 49
    },
    {
      "midi": 70,
      "hit": false,
      "t": 112356.26500000017,
      "d": 213.80129166666302,
      "v": 57
    },
    {
      "midi": 46,
      "hit": false,
      "t": 112651.1633333335,
      "d": 154.82162499999686,
      "v": 58
    },
    {
      "midi": 50,
      "hit": false,
      "t": 112651.1633333335,
      "d": 154.82162499999686,
      "v": 58
    },
    {
      "midi": 58,
      "hit": false,
      "t": 112651.1633333335,
      "d": 154.82162499999686,
      "v": 58
    },
    {
      "midi": 62,
      "hit": false,
      "t": 112651.1633333335,
      "d": 154.82162499999686,
      "v": 58
    },
    {
      "midi": 65,
      "hit": false,
      "t": 112651.1633333335,
      "d": 154.82162499999686,
      "v": 49
    },
    {
      "midi": 68,
      "hit": false,
      "t": 112651.1633333335,
      "d": 154.82162499999686,
      "v": 49
    },
    {
      "midi": 70,
      "hit": false,
      "t": 112651.1633333335,
      "d": 235.91866666666465,
      "v": 55
    },
    {
      "midi": 46,
      "hit": false,
      "t": 112946.06166666684,
      "d": 169.56654166665976,
      "v": 45
    },
    {
      "midi": 50,
      "hit": false,
      "t": 112946.06166666684,
      "d": 169.56654166665976,
      "v": 45
    },
    {
      "midi": 58,
      "hit": false,
      "t": 112946.06166666684,
      "d": 169.56654166665976,
      "v": 45
    },
    {
      "midi": 70,
      "hit": false,
      "t": 112946.06166666684,
      "d": 199.05637500000012,
      "v": 58
    },
    {
      "midi": 62,
      "hit": false,
      "t": 112946.06166666684,
      "d": 228.54620833334047,
      "v": 45
    },
    {
      "midi": 65,
      "hit": false,
      "t": 112946.06166666684,
      "d": 250.6635833333421,
      "v": 45
    },
    {
      "midi": 68,
      "hit": false,
      "t": 112946.06166666684,
      "d": 250.6635833333421,
      "v": 45
    },
    {
      "midi": 46,
      "hit": false,
      "t": 113240.96000000018,
      "d": 213.80129166666302,
      "v": 52
    },
    {
      "midi": 50,
      "hit": false,
      "t": 113240.96000000018,
      "d": 213.80129166666302,
      "v": 52
    },
    {
      "midi": 58,
      "hit": false,
      "t": 113240.96000000018,
      "d": 213.80129166666302,
      "v": 52
    },
    {
      "midi": 62,
      "hit": false,
      "t": 113240.96000000018,
      "d": 213.80129166666302,
      "v": 52
    },
    {
      "midi": 65,
      "hit": false,
      "t": 113240.96000000018,
      "d": 213.80129166666302,
      "v": 41
    },
    {
      "midi": 68,
      "hit": false,
      "t": 113240.96000000018,
      "d": 213.80129166666302,
      "v": 41
    },
    {
      "midi": 70,
      "hit": false,
      "t": 113240.96000000018,
      "d": 258.0360416666663,
      "v": 52
    },
    {
      "midi": 46,
      "hit": false,
      "t": 113535.85833333351,
      "d": 162.19408333333558,
      "v": 47
    },
    {
      "midi": 50,
      "hit": false,
      "t": 113535.85833333351,
      "d": 162.19408333333558,
      "v": 47
    },
    {
      "midi": 58,
      "hit": false,
      "t": 113535.85833333351,
      "d": 162.19408333333558,
      "v": 47
    },
    {
      "midi": 62,
      "hit": false,
      "t": 113535.85833333351,
      "d": 162.19408333333558,
      "v": 47
    },
    {
      "midi": 65,
      "hit": false,
      "t": 113535.85833333351,
      "d": 162.19408333333558,
      "v": 47
    },
    {
      "midi": 68,
      "hit": false,
      "t": 113535.85833333351,
      "d": 162.19408333333558,
      "v": 47
    },
    {
      "midi": 70,
      "hit": false,
      "t": 113535.85833333351,
      "d": 258.0360416666663,
      "v": 54
    },
    {
      "midi": 46,
      "hit": false,
      "t": 113830.75666666684,
      "d": 199.05637500000012,
      "v": 55
    },
    {
      "midi": 50,
      "hit": false,
      "t": 113830.75666666684,
      "d": 199.05637500000012,
      "v": 55
    },
    {
      "midi": 58,
      "hit": false,
      "t": 113830.75666666684,
      "d": 199.05637500000012,
      "v": 55
    },
    {
      "midi": 62,
      "hit": false,
      "t": 113830.75666666684,
      "d": 199.05637500000012,
      "v": 55
    },
    {
      "midi": 65,
      "hit": false,
      "t": 113830.75666666684,
      "d": 199.05637500000012,
      "v": 44
    },
    {
      "midi": 68,
      "hit": false,
      "t": 113830.75666666684,
      "d": 199.05637500000012,
      "v": 44
    },
    {
      "midi": 70,
      "hit": false,
      "t": 113830.75666666684,
      "d": 258.0360416666663,
      "v": 54
    },
    {
      "midi": 46,
      "hit": false,
      "t": 114125.65500000017,
      "d": 176.9389999999985,
      "v": 46
    },
    {
      "midi": 50,
      "hit": false,
      "t": 114125.65500000017,
      "d": 176.9389999999985,
      "v": 46
    },
    {
      "midi": 58,
      "hit": false,
      "t": 114125.65500000017,
      "d": 176.9389999999985,
      "v": 46
    },
    {
      "midi": 62,
      "hit": false,
      "t": 114125.65500000017,
      "d": 176.9389999999985,
      "v": 46
    },
    {
      "midi": 65,
      "hit": false,
      "t": 114125.65500000017,
      "d": 176.9389999999985,
      "v": 46
    },
    {
      "midi": 68,
      "hit": false,
      "t": 114125.65500000017,
      "d": 176.9389999999985,
      "v": 46
    },
    {
      "midi": 70,
      "hit": false,
      "t": 114125.65500000017,
      "d": 258.0360416666663,
      "v": 54
    },
    {
      "midi": 46,
      "hit": false,
      "t": 114420.5533333335,
      "d": 147.44916666667268,
      "v": 48
    },
    {
      "midi": 50,
      "hit": false,
      "t": 114420.5533333335,
      "d": 147.44916666667268,
      "v": 48
    },
    {
      "midi": 58,
      "hit": false,
      "t": 114420.5533333335,
      "d": 147.44916666667268,
      "v": 48
    },
    {
      "midi": 62,
      "hit": false,
      "t": 114420.5533333335,
      "d": 147.44916666667268,
      "v": 48
    },
    {
      "midi": 65,
      "hit": false,
      "t": 114420.5533333335,
      "d": 147.44916666667268,
      "v": 48
    },
    {
      "midi": 68,
      "hit": false,
      "t": 114420.5533333335,
      "d": 147.44916666667268,
      "v": 48
    },
    {
      "midi": 70,
      "hit": false,
      "t": 114420.5533333335,
      "d": 191.68391666667594,
      "v": 53
    },
    {
      "midi": 46,
      "hit": false,
      "t": 114715.45166666685,
      "d": 176.9389999999985,
      "v": 49
    },
    {
      "midi": 50,
      "hit": false,
      "t": 114715.45166666685,
      "d": 176.9389999999985,
      "v": 49
    },
    {
      "midi": 58,
      "hit": false,
      "t": 114715.45166666685,
      "d": 176.9389999999985,
      "v": 49
    },
    {
      "midi": 62,
      "hit": false,
      "t": 114715.45166666685,
      "d": 176.9389999999985,
      "v": 49
    },
    {
      "midi": 65,
      "hit": false,
      "t": 114715.45166666685,
      "d": 176.9389999999985,
      "v": 49
    },
    {
      "midi": 68,
      "hit": false,
      "t": 114715.45166666685,
      "d": 176.9389999999985,
      "v": 49
    },
    {
      "midi": 70,
      "hit": false,
      "t": 114715.45166666685,
      "d": 199.05637500000012,
      "v": 55
    },
    {
      "midi": 46,
      "hit": false,
      "t": 115010.35000000018,
      "d": 206.42883333333884,
      "v": 57
    },
    {
      "midi": 50,
      "hit": false,
      "t": 115010.35000000018,
      "d": 206.42883333333884,
      "v": 57
    },
    {
      "midi": 58,
      "hit": false,
      "t": 115010.35000000018,
      "d": 206.42883333333884,
      "v": 57
    },
    {
      "midi": 62,
      "hit": false,
      "t": 115010.35000000018,
      "d": 206.42883333333884,
      "v": 57
    },
    {
      "midi": 65,
      "hit": false,
      "t": 115010.35000000018,
      "d": 206.42883333333884,
      "v": 46
    },
    {
      "midi": 68,
      "hit": false,
      "t": 115010.35000000018,
      "d": 206.42883333333884,
      "v": 46
    },
    {
      "midi": 70,
      "hit": false,
      "t": 115010.35000000018,
      "d": 213.80129166667757,
      "v": 55
    },
    {
      "midi": 46,
      "hit": false,
      "t": 115305.24833333353,
      "d": 184.3114583333372,
      "v": 49
    },
    {
      "midi": 50,
      "hit": false,
      "t": 115305.24833333353,
      "d": 184.3114583333372,
      "v": 49
    },
    {
      "midi": 58,
      "hit": false,
      "t": 115305.24833333353,
      "d": 184.3114583333372,
      "v": 49
    },
    {
      "midi": 62,
      "hit": false,
      "t": 115305.24833333353,
      "d": 184.3114583333372,
      "v": 49
    },
    {
      "midi": 70,
      "hit": false,
      "t": 115305.24833333353,
      "d": 199.05637500000012,
      "v": 43
    },
    {
      "midi": 65,
      "hit": false,
      "t": 115305.24833333353,
      "d": 235.91866666666465,
      "v": 49
    },
    {
      "midi": 68,
      "hit": false,
      "t": 115305.24833333353,
      "d": 235.91866666666465,
      "v": 49
    },
    {
      "midi": 46,
      "hit": false,
      "t": 115600.14666666686,
      "d": 206.42883333333884,
      "v": 57
    },
    {
      "midi": 50,
      "hit": false,
      "t": 115600.14666666686,
      "d": 206.42883333333884,
      "v": 57
    },
    {
      "midi": 58,
      "hit": false,
      "t": 115600.14666666686,
      "d": 206.42883333333884,
      "v": 57
    },
    {
      "midi": 62,
      "hit": false,
      "t": 115600.14666666686,
      "d": 206.42883333333884,
      "v": 57
    },
    {
      "midi": 65,
      "hit": false,
      "t": 115600.14666666686,
      "d": 206.42883333333884,
      "v": 48
    },
    {
      "midi": 68,
      "hit": false,
      "t": 115600.14666666686,
      "d": 206.42883333333884,
      "v": 48
    },
    {
      "midi": 70,
      "hit": false,
      "t": 115600.14666666686,
      "d": 221.17375000000175,
      "v": 44
    },
    {
      "midi": 46,
      "hit": false,
      "t": 115895.04500000019,
      "d": 169.56654166665976,
      "v": 49
    },
    {
      "midi": 58,
      "hit": false,
      "t": 115895.04500000019,
      "d": 169.56654166665976,
      "v": 49
    },
    {
      "midi": 62,
      "hit": false,
      "t": 115895.04500000019,
      "d": 169.56654166665976,
      "v": 49
    },
    {
      "midi": 65,
      "hit": false,
      "t": 115895.04500000019,
      "d": 169.56654166665976,
      "v": 49
    },
    {
      "midi": 68,
      "hit": false,
      "t": 115895.04500000019,
      "d": 169.56654166665976,
      "v": 49
    },
    {
      "midi": 50,
      "hit": false,
      "t": 115895.04500000019,
      "d": 176.9389999999985,
      "v": 49
    },
    {
      "midi": 70,
      "hit": false,
      "t": 115895.04500000019,
      "d": 213.80129166666302,
      "v": 57
    },
    {
      "midi": 46,
      "hit": false,
      "t": 116189.94333333352,
      "d": 154.82162499999686,
      "v": 58
    },
    {
      "midi": 50,
      "hit": false,
      "t": 116189.94333333352,
      "d": 154.82162499999686,
      "v": 58
    },
    {
      "midi": 58,
      "hit": false,
      "t": 116189.94333333352,
      "d": 154.82162499999686,
      "v": 58
    },
    {
      "midi": 62,
      "hit": false,
      "t": 116189.94333333352,
      "d": 154.82162499999686,
      "v": 58
    },
    {
      "midi": 65,
      "hit": false,
      "t": 116189.94333333352,
      "d": 154.82162499999686,
      "v": 49
    },
    {
      "midi": 68,
      "hit": false,
      "t": 116189.94333333352,
      "d": 154.82162499999686,
      "v": 49
    },
    {
      "midi": 70,
      "hit": false,
      "t": 116189.94333333352,
      "d": 235.91866666666465,
      "v": 55
    },
    {
      "midi": 46,
      "hit": false,
      "t": 116484.84166666685,
      "d": 169.56654166665976,
      "v": 45
    },
    {
      "midi": 50,
      "hit": false,
      "t": 116484.84166666685,
      "d": 169.56654166665976,
      "v": 45
    },
    {
      "midi": 58,
      "hit": false,
      "t": 116484.84166666685,
      "d": 169.56654166665976,
      "v": 45
    },
    {
      "midi": 70,
      "hit": false,
      "t": 116484.84166666685,
      "d": 199.05637500000012,
      "v": 58
    },
    {
      "midi": 62,
      "hit": false,
      "t": 116484.84166666685,
      "d": 228.54620833334047,
      "v": 45
    },
    {
      "midi": 65,
      "hit": false,
      "t": 116484.84166666685,
      "d": 250.6635833333421,
      "v": 45
    },
    {
      "midi": 68,
      "hit": false,
      "t": 116484.84166666685,
      "d": 250.6635833333421,
      "v": 45
    },
    {
      "midi": 46,
      "hit": false,
      "t": 116779.7400000002,
      "d": 213.80129166666302,
      "v": 52
    },
    {
      "midi": 51,
      "hit": false,
      "t": 116779.7400000002,
      "d": 213.80129166666302,
      "v": 52
    },
    {
      "midi": 58,
      "hit": false,
      "t": 116779.7400000002,
      "d": 213.80129166666302,
      "v": 52
    },
    {
      "midi": 63,
      "hit": false,
      "t": 116779.7400000002,
      "d": 213.80129166666302,
      "v": 52
    },
    {
      "midi": 67,
      "hit": false,
      "t": 116779.7400000002,
      "d": 213.80129166666302,
      "v": 41
    },
    {
      "midi": 70,
      "hit": false,
      "t": 116779.7400000002,
      "d": 258.0360416666663,
      "v": 52
    },
    {
      "midi": 46,
      "hit": false,
      "t": 117074.63833333353,
      "d": 162.19408333333558,
      "v": 47
    },
    {
      "midi": 51,
      "hit": false,
      "t": 117074.63833333353,
      "d": 162.19408333333558,
      "v": 47
    },
    {
      "midi": 58,
      "hit": false,
      "t": 117074.63833333353,
      "d": 162.19408333333558,
      "v": 47
    },
    {
      "midi": 63,
      "hit": false,
      "t": 117074.63833333353,
      "d": 162.19408333333558,
      "v": 47
    },
    {
      "midi": 67,
      "hit": false,
      "t": 117074.63833333353,
      "d": 162.19408333333558,
      "v": 47
    },
    {
      "midi": 70,
      "hit": false,
      "t": 117074.63833333353,
      "d": 258.0360416666663,
      "v": 54
    },
    {
      "midi": 46,
      "hit": false,
      "t": 117369.53666666686,
      "d": 199.05637500000012,
      "v": 55
    },
    {
      "midi": 51,
      "hit": false,
      "t": 117369.53666666686,
      "d": 199.05637500000012,
      "v": 55
    },
    {
      "midi": 58,
      "hit": false,
      "t": 117369.53666666686,
      "d": 199.05637500000012,
      "v": 55
    },
    {
      "midi": 63,
      "hit": false,
      "t": 117369.53666666686,
      "d": 199.05637500000012,
      "v": 55
    },
    {
      "midi": 67,
      "hit": false,
      "t": 117369.53666666686,
      "d": 199.05637500000012,
      "v": 44
    },
    {
      "midi": 70,
      "hit": false,
      "t": 117369.53666666686,
      "d": 258.0360416666663,
      "v": 54
    },
    {
      "midi": 46,
      "hit": false,
      "t": 117664.43500000019,
      "d": 176.9389999999985,
      "v": 46
    },
    {
      "midi": 51,
      "hit": false,
      "t": 117664.43500000019,
      "d": 176.9389999999985,
      "v": 46
    },
    {
      "midi": 58,
      "hit": false,
      "t": 117664.43500000019,
      "d": 176.9389999999985,
      "v": 46
    },
    {
      "midi": 63,
      "hit": false,
      "t": 117664.43500000019,
      "d": 176.9389999999985,
      "v": 46
    },
    {
      "midi": 67,
      "hit": false,
      "t": 117664.43500000019,
      "d": 176.9389999999985,
      "v": 46
    },
    {
      "midi": 70,
      "hit": false,
      "t": 117664.43500000019,
      "d": 258.0360416666663,
      "v": 54
    },
    {
      "midi": 46,
      "hit": false,
      "t": 117959.33333333352,
      "d": 147.44916666667268,
      "v": 48
    },
    {
      "midi": 51,
      "hit": false,
      "t": 117959.33333333352,
      "d": 147.44916666667268,
      "v": 48
    },
    {
      "midi": 58,
      "hit": false,
      "t": 117959.33333333352,
      "d": 147.44916666667268,
      "v": 48
    },
    {
      "midi": 63,
      "hit": false,
      "t": 117959.33333333352,
      "d": 147.44916666667268,
      "v": 48
    },
    {
      "midi": 67,
      "hit": false,
      "t": 117959.33333333352,
      "d": 147.44916666667268,
      "v": 48
    },
    {
      "midi": 70,
      "hit": false,
      "t": 117959.33333333352,
      "d": 191.68391666667594,
      "v": 53
    },
    {
      "midi": 46,
      "hit": false,
      "t": 118254.23166666686,
      "d": 176.9389999999985,
      "v": 49
    },
    {
      "midi": 51,
      "hit": false,
      "t": 118254.23166666686,
      "d": 176.9389999999985,
      "v": 49
    },
    {
      "midi": 58,
      "hit": false,
      "t": 118254.23166666686,
      "d": 176.9389999999985,
      "v": 49
    },
    {
      "midi": 63,
      "hit": false,
      "t": 118254.23166666686,
      "d": 176.9389999999985,
      "v": 49
    },
    {
      "midi": 67,
      "hit": false,
      "t": 118254.23166666686,
      "d": 176.9389999999985,
      "v": 49
    },
    {
      "midi": 70,
      "hit": false,
      "t": 118254.23166666686,
      "d": 199.05637500000012,
      "v": 55
    },
    {
      "midi": 46,
      "hit": false,
      "t": 118549.1300000002,
      "d": 206.42883333333884,
      "v": 57
    },
    {
      "midi": 51,
      "hit": false,
      "t": 118549.1300000002,
      "d": 206.42883333333884,
      "v": 57
    },
    {
      "midi": 58,
      "hit": false,
      "t": 118549.1300000002,
      "d": 206.42883333333884,
      "v": 57
    },
    {
      "midi": 63,
      "hit": false,
      "t": 118549.1300000002,
      "d": 206.42883333333884,
      "v": 57
    },
    {
      "midi": 67,
      "hit": false,
      "t": 118549.1300000002,
      "d": 206.42883333333884,
      "v": 46
    },
    {
      "midi": 70,
      "hit": false,
      "t": 118549.1300000002,
      "d": 213.80129166667757,
      "v": 55
    },
    {
      "midi": 46,
      "hit": false,
      "t": 118844.02833333354,
      "d": 184.3114583333372,
      "v": 49
    },
    {
      "midi": 51,
      "hit": false,
      "t": 118844.02833333354,
      "d": 184.3114583333372,
      "v": 49
    },
    {
      "midi": 58,
      "hit": false,
      "t": 118844.02833333354,
      "d": 184.3114583333372,
      "v": 49
    },
    {
      "midi": 63,
      "hit": false,
      "t": 118844.02833333354,
      "d": 184.3114583333372,
      "v": 49
    },
    {
      "midi": 70,
      "hit": false,
      "t": 118844.02833333354,
      "d": 199.05637500000012,
      "v": 43
    },
    {
      "midi": 67,
      "hit": false,
      "t": 118844.02833333354,
      "d": 235.91866666666465,
      "v": 49
    },
    {
      "midi": 46,
      "hit": false,
      "t": 119138.92666666687,
      "d": 206.42883333333884,
      "v": 57
    },
    {
      "midi": 51,
      "hit": false,
      "t": 119138.92666666687,
      "d": 206.42883333333884,
      "v": 57
    },
    {
      "midi": 58,
      "hit": false,
      "t": 119138.92666666687,
      "d": 206.42883333333884,
      "v": 57
    },
    {
      "midi": 63,
      "hit": false,
      "t": 119138.92666666687,
      "d": 206.42883333333884,
      "v": 57
    },
    {
      "midi": 67,
      "hit": false,
      "t": 119138.92666666687,
      "d": 206.42883333333884,
      "v": 48
    },
    {
      "midi": 70,
      "hit": false,
      "t": 119138.92666666687,
      "d": 221.17375000000175,
      "v": 44
    },
    {
      "midi": 46,
      "hit": false,
      "t": 119433.8250000002,
      "d": 169.56654166665976,
      "v": 49
    },
    {
      "midi": 58,
      "hit": false,
      "t": 119433.8250000002,
      "d": 169.56654166665976,
      "v": 49
    },
    {
      "midi": 63,
      "hit": false,
      "t": 119433.8250000002,
      "d": 169.56654166665976,
      "v": 49
    },
    {
      "midi": 67,
      "hit": false,
      "t": 119433.8250000002,
      "d": 169.56654166665976,
      "v": 49
    },
    {
      "midi": 51,
      "hit": false,
      "t": 119433.8250000002,
      "d": 176.9389999999985,
      "v": 49
    },
    {
      "midi": 70,
      "hit": false,
      "t": 119433.8250000002,
      "d": 213.80129166666302,
      "v": 57
    },
    {
      "midi": 46,
      "hit": false,
      "t": 119728.72333333353,
      "d": 154.82162499999686,
      "v": 58
    },
    {
      "midi": 51,
      "hit": false,
      "t": 119728.72333333353,
      "d": 154.82162499999686,
      "v": 58
    },
    {
      "midi": 58,
      "hit": false,
      "t": 119728.72333333353,
      "d": 154.82162499999686,
      "v": 58
    },
    {
      "midi": 63,
      "hit": false,
      "t": 119728.72333333353,
      "d": 154.82162499999686,
      "v": 58
    },
    {
      "midi": 67,
      "hit": false,
      "t": 119728.72333333353,
      "d": 154.82162499999686,
      "v": 49
    },
    {
      "midi": 70,
      "hit": false,
      "t": 119728.72333333353,
      "d": 235.91866666666465,
      "v": 55
    },
    {
      "midi": 46,
      "hit": false,
      "t": 120023.62166666686,
      "d": 169.56654166665976,
      "v": 45
    },
    {
      "midi": 51,
      "hit": false,
      "t": 120023.62166666686,
      "d": 169.56654166665976,
      "v": 45
    },
    {
      "midi": 58,
      "hit": false,
      "t": 120023.62166666686,
      "d": 169.56654166665976,
      "v": 45
    },
    {
      "midi": 70,
      "hit": false,
      "t": 120023.62166666686,
      "d": 199.05637500000012,
      "v": 58
    },
    {
      "midi": 63,
      "hit": false,
      "t": 120023.62166666686,
      "d": 228.54620833334047,
      "v": 45
    },
    {
      "midi": 67,
      "hit": false,
      "t": 120023.62166666686,
      "d": 250.6635833333421,
      "v": 45
    },
    {
      "midi": 46,
      "hit": false,
      "t": 120318.52000000021,
      "d": 213.80129166666302,
      "v": 52
    },
    {
      "midi": 51,
      "hit": false,
      "t": 120318.52000000021,
      "d": 213.80129166666302,
      "v": 52
    },
    {
      "midi": 58,
      "hit": false,
      "t": 120318.52000000021,
      "d": 213.80129166666302,
      "v": 52
    },
    {
      "midi": 63,
      "hit": false,
      "t": 120318.52000000021,
      "d": 213.80129166666302,
      "v": 52
    },
    {
      "midi": 67,
      "hit": false,
      "t": 120318.52000000021,
      "d": 213.80129166666302,
      "v": 41
    },
    {
      "midi": 70,
      "hit": false,
      "t": 120318.52000000021,
      "d": 258.0360416666663,
      "v": 52
    },
    {
      "midi": 46,
      "hit": false,
      "t": 120613.41833333354,
      "d": 162.19408333333558,
      "v": 47
    },
    {
      "midi": 51,
      "hit": false,
      "t": 120613.41833333354,
      "d": 162.19408333333558,
      "v": 47
    },
    {
      "midi": 58,
      "hit": false,
      "t": 120613.41833333354,
      "d": 162.19408333333558,
      "v": 47
    },
    {
      "midi": 63,
      "hit": false,
      "t": 120613.41833333354,
      "d": 162.19408333333558,
      "v": 47
    },
    {
      "midi": 67,
      "hit": false,
      "t": 120613.41833333354,
      "d": 162.19408333333558,
      "v": 47
    },
    {
      "midi": 70,
      "hit": false,
      "t": 120613.41833333354,
      "d": 258.0360416666663,
      "v": 54
    },
    {
      "midi": 46,
      "hit": false,
      "t": 120908.31666666687,
      "d": 199.05637500000012,
      "v": 55
    },
    {
      "midi": 51,
      "hit": false,
      "t": 120908.31666666687,
      "d": 199.05637500000012,
      "v": 55
    },
    {
      "midi": 58,
      "hit": false,
      "t": 120908.31666666687,
      "d": 199.05637500000012,
      "v": 55
    },
    {
      "midi": 63,
      "hit": false,
      "t": 120908.31666666687,
      "d": 199.05637500000012,
      "v": 55
    },
    {
      "midi": 67,
      "hit": false,
      "t": 120908.31666666687,
      "d": 199.05637500000012,
      "v": 44
    },
    {
      "midi": 70,
      "hit": false,
      "t": 120908.31666666687,
      "d": 258.0360416666663,
      "v": 54
    },
    {
      "midi": 46,
      "hit": false,
      "t": 121203.2150000002,
      "d": 176.9389999999985,
      "v": 46
    },
    {
      "midi": 51,
      "hit": false,
      "t": 121203.2150000002,
      "d": 176.9389999999985,
      "v": 46
    },
    {
      "midi": 58,
      "hit": false,
      "t": 121203.2150000002,
      "d": 176.9389999999985,
      "v": 46
    },
    {
      "midi": 63,
      "hit": false,
      "t": 121203.2150000002,
      "d": 176.9389999999985,
      "v": 46
    },
    {
      "midi": 67,
      "hit": false,
      "t": 121203.2150000002,
      "d": 176.9389999999985,
      "v": 46
    },
    {
      "midi": 70,
      "hit": false,
      "t": 121203.2150000002,
      "d": 258.0360416666663,
      "v": 54
    },
    {
      "midi": 46,
      "hit": false,
      "t": 121498.11333333353,
      "d": 147.44916666667268,
      "v": 48
    },
    {
      "midi": 51,
      "hit": false,
      "t": 121498.11333333353,
      "d": 147.44916666667268,
      "v": 48
    },
    {
      "midi": 58,
      "hit": false,
      "t": 121498.11333333353,
      "d": 147.44916666667268,
      "v": 48
    },
    {
      "midi": 63,
      "hit": false,
      "t": 121498.11333333353,
      "d": 147.44916666667268,
      "v": 48
    },
    {
      "midi": 67,
      "hit": false,
      "t": 121498.11333333353,
      "d": 147.44916666667268,
      "v": 48
    },
    {
      "midi": 70,
      "hit": false,
      "t": 121498.11333333353,
      "d": 191.68391666667594,
      "v": 53
    },
    {
      "midi": 46,
      "hit": false,
      "t": 121793.01166666688,
      "d": 176.9389999999985,
      "v": 49
    },
    {
      "midi": 51,
      "hit": false,
      "t": 121793.01166666688,
      "d": 176.9389999999985,
      "v": 49
    },
    {
      "midi": 58,
      "hit": false,
      "t": 121793.01166666688,
      "d": 176.9389999999985,
      "v": 49
    },
    {
      "midi": 63,
      "hit": false,
      "t": 121793.01166666688,
      "d": 176.9389999999985,
      "v": 49
    },
    {
      "midi": 67,
      "hit": false,
      "t": 121793.01166666688,
      "d": 176.9389999999985,
      "v": 49
    },
    {
      "midi": 70,
      "hit": false,
      "t": 121793.01166666688,
      "d": 199.05637500000012,
      "v": 55
    },
    {
      "midi": 46,
      "hit": false,
      "t": 122087.9100000002,
      "d": 206.42883333333884,
      "v": 57
    },
    {
      "midi": 51,
      "hit": false,
      "t": 122087.9100000002,
      "d": 206.42883333333884,
      "v": 57
    },
    {
      "midi": 58,
      "hit": false,
      "t": 122087.9100000002,
      "d": 206.42883333333884,
      "v": 57
    },
    {
      "midi": 63,
      "hit": false,
      "t": 122087.9100000002,
      "d": 206.42883333333884,
      "v": 57
    },
    {
      "midi": 67,
      "hit": false,
      "t": 122087.9100000002,
      "d": 206.42883333333884,
      "v": 46
    },
    {
      "midi": 70,
      "hit": false,
      "t": 122087.9100000002,
      "d": 213.80129166667757,
      "v": 55
    },
    {
      "midi": 46,
      "hit": false,
      "t": 122382.80833333355,
      "d": 184.3114583333372,
      "v": 49
    },
    {
      "midi": 51,
      "hit": false,
      "t": 122382.80833333355,
      "d": 184.3114583333372,
      "v": 49
    },
    {
      "midi": 58,
      "hit": false,
      "t": 122382.80833333355,
      "d": 184.3114583333372,
      "v": 49
    },
    {
      "midi": 63,
      "hit": false,
      "t": 122382.80833333355,
      "d": 184.3114583333372,
      "v": 49
    },
    {
      "midi": 70,
      "hit": false,
      "t": 122382.80833333355,
      "d": 199.05637500000012,
      "v": 43
    },
    {
      "midi": 67,
      "hit": false,
      "t": 122382.80833333355,
      "d": 235.91866666666465,
      "v": 49
    },
    {
      "midi": 46,
      "hit": false,
      "t": 122677.70666666688,
      "d": 206.42883333333884,
      "v": 57
    },
    {
      "midi": 51,
      "hit": false,
      "t": 122677.70666666688,
      "d": 206.42883333333884,
      "v": 57
    },
    {
      "midi": 58,
      "hit": false,
      "t": 122677.70666666688,
      "d": 206.42883333333884,
      "v": 57
    },
    {
      "midi": 63,
      "hit": false,
      "t": 122677.70666666688,
      "d": 206.42883333333884,
      "v": 57
    },
    {
      "midi": 67,
      "hit": false,
      "t": 122677.70666666688,
      "d": 206.42883333333884,
      "v": 48
    },
    {
      "midi": 70,
      "hit": false,
      "t": 122677.70666666688,
      "d": 221.17375000000175,
      "v": 44
    },
    {
      "midi": 46,
      "hit": false,
      "t": 122972.60500000021,
      "d": 169.56654166665976,
      "v": 49
    },
    {
      "midi": 58,
      "hit": false,
      "t": 122972.60500000021,
      "d": 169.56654166665976,
      "v": 49
    },
    {
      "midi": 63,
      "hit": false,
      "t": 122972.60500000021,
      "d": 169.56654166665976,
      "v": 49
    },
    {
      "midi": 67,
      "hit": false,
      "t": 122972.60500000021,
      "d": 169.56654166665976,
      "v": 49
    },
    {
      "midi": 51,
      "hit": false,
      "t": 122972.60500000021,
      "d": 176.9389999999985,
      "v": 49
    },
    {
      "midi": 70,
      "hit": false,
      "t": 122972.60500000021,
      "d": 213.80129166666302,
      "v": 57
    },
    {
      "midi": 46,
      "hit": false,
      "t": 123267.50333333355,
      "d": 154.82162499999686,
      "v": 58
    },
    {
      "midi": 51,
      "hit": false,
      "t": 123267.50333333355,
      "d": 154.82162499999686,
      "v": 58
    },
    {
      "midi": 58,
      "hit": false,
      "t": 123267.50333333355,
      "d": 154.82162499999686,
      "v": 58
    },
    {
      "midi": 63,
      "hit": false,
      "t": 123267.50333333355,
      "d": 154.82162499999686,
      "v": 58
    },
    {
      "midi": 67,
      "hit": false,
      "t": 123267.50333333355,
      "d": 154.82162499999686,
      "v": 49
    },
    {
      "midi": 70,
      "hit": false,
      "t": 123267.50333333355,
      "d": 235.91866666666465,
      "v": 55
    },
    {
      "midi": 46,
      "hit": false,
      "t": 123562.40166666688,
      "d": 169.56654166665976,
      "v": 45
    },
    {
      "midi": 51,
      "hit": false,
      "t": 123562.40166666688,
      "d": 169.56654166665976,
      "v": 45
    },
    {
      "midi": 58,
      "hit": false,
      "t": 123562.40166666688,
      "d": 169.56654166665976,
      "v": 45
    },
    {
      "midi": 70,
      "hit": false,
      "t": 123562.40166666688,
      "d": 199.05637500000012,
      "v": 58
    },
    {
      "midi": 63,
      "hit": false,
      "t": 123562.40166666688,
      "d": 228.54620833334047,
      "v": 45
    },
    {
      "midi": 67,
      "hit": false,
      "t": 123562.40166666688,
      "d": 250.6635833333421,
      "v": 45
    },
    {
      "midi": 44,
      "hit": false,
      "t": 123857.30000000022,
      "d": 213.80129166666302,
      "v": 52
    },
    {
      "midi": 48,
      "hit": false,
      "t": 123857.30000000022,
      "d": 213.80129166666302,
      "v": 52
    },
    {
      "midi": 56,
      "hit": false,
      "t": 123857.30000000022,
      "d": 213.80129166666302,
      "v": 52
    },
    {
      "midi": 60,
      "hit": false,
      "t": 123857.30000000022,
      "d": 213.80129166666302,
      "v": 52
    },
    {
      "midi": 63,
      "hit": false,
      "t": 123857.30000000022,
      "d": 213.80129166666302,
      "v": 41
    },
    {
      "midi": 68,
      "hit": false,
      "t": 123857.30000000022,
      "d": 258.0360416666663,
      "v": 52
    },
    {
      "midi": 44,
      "hit": false,
      "t": 124152.19833333355,
      "d": 162.19408333333558,
      "v": 47
    },
    {
      "midi": 48,
      "hit": false,
      "t": 124152.19833333355,
      "d": 162.19408333333558,
      "v": 47
    },
    {
      "midi": 56,
      "hit": false,
      "t": 124152.19833333355,
      "d": 162.19408333333558,
      "v": 47
    },
    {
      "midi": 60,
      "hit": false,
      "t": 124152.19833333355,
      "d": 162.19408333333558,
      "v": 47
    },
    {
      "midi": 63,
      "hit": false,
      "t": 124152.19833333355,
      "d": 162.19408333333558,
      "v": 47
    },
    {
      "midi": 68,
      "hit": false,
      "t": 124152.19833333355,
      "d": 258.0360416666663,
      "v": 54
    },
    {
      "midi": 44,
      "hit": false,
      "t": 124447.09666666688,
      "d": 199.05637500000012,
      "v": 55
    },
    {
      "midi": 48,
      "hit": false,
      "t": 124447.09666666688,
      "d": 199.05637500000012,
      "v": 55
    },
    {
      "midi": 56,
      "hit": false,
      "t": 124447.09666666688,
      "d": 199.05637500000012,
      "v": 55
    },
    {
      "midi": 60,
      "hit": false,
      "t": 124447.09666666688,
      "d": 199.05637500000012,
      "v": 55
    },
    {
      "midi": 63,
      "hit": false,
      "t": 124447.09666666688,
      "d": 199.05637500000012,
      "v": 44
    },
    {
      "midi": 68,
      "hit": false,
      "t": 124447.09666666688,
      "d": 258.0360416666663,
      "v": 54
    },
    {
      "midi": 44,
      "hit": false,
      "t": 124741.99500000021,
      "d": 176.9389999999985,
      "v": 46
    },
    {
      "midi": 48,
      "hit": false,
      "t": 124741.99500000021,
      "d": 176.9389999999985,
      "v": 46
    },
    {
      "midi": 56,
      "hit": false,
      "t": 124741.99500000021,
      "d": 176.9389999999985,
      "v": 46
    },
    {
      "midi": 60,
      "hit": false,
      "t": 124741.99500000021,
      "d": 176.9389999999985,
      "v": 46
    },
    {
      "midi": 63,
      "hit": false,
      "t": 124741.99500000021,
      "d": 176.9389999999985,
      "v": 46
    },
    {
      "midi": 68,
      "hit": false,
      "t": 124741.99500000021,
      "d": 258.0360416666663,
      "v": 54
    },
    {
      "midi": 44,
      "hit": false,
      "t": 125036.89333333354,
      "d": 147.44916666667268,
      "v": 48
    },
    {
      "midi": 48,
      "hit": false,
      "t": 125036.89333333354,
      "d": 147.44916666667268,
      "v": 48
    },
    {
      "midi": 56,
      "hit": false,
      "t": 125036.89333333354,
      "d": 147.44916666667268,
      "v": 48
    },
    {
      "midi": 60,
      "hit": false,
      "t": 125036.89333333354,
      "d": 147.44916666667268,
      "v": 48
    },
    {
      "midi": 63,
      "hit": false,
      "t": 125036.89333333354,
      "d": 147.44916666667268,
      "v": 48
    },
    {
      "midi": 68,
      "hit": false,
      "t": 125036.89333333354,
      "d": 191.68391666667594,
      "v": 53
    },
    {
      "midi": 44,
      "hit": false,
      "t": 125331.79166666689,
      "d": 176.9389999999985,
      "v": 49
    },
    {
      "midi": 48,
      "hit": false,
      "t": 125331.79166666689,
      "d": 176.9389999999985,
      "v": 49
    },
    {
      "midi": 56,
      "hit": false,
      "t": 125331.79166666689,
      "d": 176.9389999999985,
      "v": 49
    },
    {
      "midi": 60,
      "hit": false,
      "t": 125331.79166666689,
      "d": 176.9389999999985,
      "v": 49
    },
    {
      "midi": 63,
      "hit": false,
      "t": 125331.79166666689,
      "d": 176.9389999999985,
      "v": 49
    },
    {
      "midi": 68,
      "hit": false,
      "t": 125331.79166666689,
      "d": 199.05637500000012,
      "v": 55
    },
    {
      "midi": 44,
      "hit": false,
      "t": 125626.69000000022,
      "d": 206.42883333333884,
      "v": 57
    },
    {
      "midi": 48,
      "hit": false,
      "t": 125626.69000000022,
      "d": 206.42883333333884,
      "v": 57
    },
    {
      "midi": 56,
      "hit": false,
      "t": 125626.69000000022,
      "d": 206.42883333333884,
      "v": 57
    },
    {
      "midi": 60,
      "hit": false,
      "t": 125626.69000000022,
      "d": 206.42883333333884,
      "v": 57
    },
    {
      "midi": 63,
      "hit": false,
      "t": 125626.69000000022,
      "d": 206.42883333333884,
      "v": 46
    },
    {
      "midi": 68,
      "hit": false,
      "t": 125626.69000000022,
      "d": 213.80129166667757,
      "v": 55
    },
    {
      "midi": 44,
      "hit": false,
      "t": 125921.58833333357,
      "d": 184.3114583333372,
      "v": 49
    },
    {
      "midi": 48,
      "hit": false,
      "t": 125921.58833333357,
      "d": 184.3114583333372,
      "v": 49
    },
    {
      "midi": 56,
      "hit": false,
      "t": 125921.58833333357,
      "d": 184.3114583333372,
      "v": 49
    },
    {
      "midi": 60,
      "hit": false,
      "t": 125921.58833333357,
      "d": 184.3114583333372,
      "v": 49
    },
    {
      "midi": 68,
      "hit": false,
      "t": 125921.58833333357,
      "d": 199.05637500000012,
      "v": 43
    },
    {
      "midi": 63,
      "hit": false,
      "t": 125921.58833333357,
      "d": 235.91866666666465,
      "v": 49
    },
    {
      "midi": 44,
      "hit": false,
      "t": 126216.4866666669,
      "d": 206.42883333333884,
      "v": 57
    },
    {
      "midi": 48,
      "hit": false,
      "t": 126216.4866666669,
      "d": 206.42883333333884,
      "v": 57
    },
    {
      "midi": 56,
      "hit": false,
      "t": 126216.4866666669,
      "d": 206.42883333333884,
      "v": 57
    },
    {
      "midi": 60,
      "hit": false,
      "t": 126216.4866666669,
      "d": 206.42883333333884,
      "v": 57
    },
    {
      "midi": 63,
      "hit": false,
      "t": 126216.4866666669,
      "d": 206.42883333333884,
      "v": 48
    },
    {
      "midi": 68,
      "hit": false,
      "t": 126216.4866666669,
      "d": 221.17375000000175,
      "v": 44
    },
    {
      "midi": 44,
      "hit": false,
      "t": 126511.38500000023,
      "d": 169.56654166665976,
      "v": 49
    },
    {
      "midi": 56,
      "hit": false,
      "t": 126511.38500000023,
      "d": 169.56654166665976,
      "v": 49
    },
    {
      "midi": 60,
      "hit": false,
      "t": 126511.38500000023,
      "d": 169.56654166665976,
      "v": 49
    },
    {
      "midi": 63,
      "hit": false,
      "t": 126511.38500000023,
      "d": 169.56654166665976,
      "v": 49
    },
    {
      "midi": 48,
      "hit": false,
      "t": 126511.38500000023,
      "d": 176.9389999999985,
      "v": 49
    },
    {
      "midi": 68,
      "hit": false,
      "t": 126511.38500000023,
      "d": 213.80129166666302,
      "v": 57
    },
    {
      "midi": 44,
      "hit": false,
      "t": 126806.28333333356,
      "d": 154.82162499999686,
      "v": 58
    },
    {
      "midi": 48,
      "hit": false,
      "t": 126806.28333333356,
      "d": 154.82162499999686,
      "v": 58
    },
    {
      "midi": 56,
      "hit": false,
      "t": 126806.28333333356,
      "d": 154.82162499999686,
      "v": 58
    },
    {
      "midi": 60,
      "hit": false,
      "t": 126806.28333333356,
      "d": 154.82162499999686,
      "v": 58
    },
    {
      "midi": 63,
      "hit": false,
      "t": 126806.28333333356,
      "d": 154.82162499999686,
      "v": 49
    },
    {
      "midi": 68,
      "hit": false,
      "t": 126806.28333333356,
      "d": 235.91866666666465,
      "v": 55
    },
    {
      "midi": 44,
      "hit": false,
      "t": 127101.18166666689,
      "d": 169.56654166665976,
      "v": 45
    },
    {
      "midi": 48,
      "hit": false,
      "t": 127101.18166666689,
      "d": 169.56654166665976,
      "v": 45
    },
    {
      "midi": 56,
      "hit": false,
      "t": 127101.18166666689,
      "d": 169.56654166665976,
      "v": 45
    },
    {
      "midi": 68,
      "hit": false,
      "t": 127101.18166666689,
      "d": 199.05637500000012,
      "v": 58
    },
    {
      "midi": 60,
      "hit": false,
      "t": 127101.18166666689,
      "d": 228.54620833334047,
      "v": 45
    },
    {
      "midi": 63,
      "hit": false,
      "t": 127101.18166666689,
      "d": 250.6635833333421,
      "v": 45
    },
    {
      "midi": 46,
      "hit": false,
      "t": 127396.08000000023,
      "d": 213.80129166666302,
      "v": 52
    },
    {
      "midi": 50,
      "hit": false,
      "t": 127396.08000000023,
      "d": 213.80129166666302,
      "v": 52
    },
    {
      "midi": 58,
      "hit": false,
      "t": 127396.08000000023,
      "d": 213.80129166666302,
      "v": 52
    },
    {
      "midi": 62,
      "hit": false,
      "t": 127396.08000000023,
      "d": 213.80129166666302,
      "v": 52
    },
    {
      "midi": 65,
      "hit": false,
      "t": 127396.08000000023,
      "d": 213.80129166666302,
      "v": 41
    },
    {
      "midi": 70,
      "hit": false,
      "t": 127396.08000000023,
      "d": 258.0360416666663,
      "v": 52
    },
    {
      "midi": 46,
      "hit": false,
      "t": 127690.97833333357,
      "d": 162.19408333333558,
      "v": 47
    },
    {
      "midi": 50,
      "hit": false,
      "t": 127690.97833333357,
      "d": 162.19408333333558,
      "v": 47
    },
    {
      "midi": 58,
      "hit": false,
      "t": 127690.97833333357,
      "d": 162.19408333333558,
      "v": 47
    },
    {
      "midi": 62,
      "hit": false,
      "t": 127690.97833333357,
      "d": 162.19408333333558,
      "v": 47
    },
    {
      "midi": 65,
      "hit": false,
      "t": 127690.97833333357,
      "d": 162.19408333333558,
      "v": 47
    },
    {
      "midi": 70,
      "hit": false,
      "t": 127690.97833333357,
      "d": 258.0360416666663,
      "v": 54
    },
    {
      "midi": 46,
      "hit": false,
      "t": 127985.8766666669,
      "d": 199.05637500000012,
      "v": 55
    },
    {
      "midi": 50,
      "hit": false,
      "t": 127985.8766666669,
      "d": 199.05637500000012,
      "v": 55
    },
    {
      "midi": 58,
      "hit": false,
      "t": 127985.8766666669,
      "d": 199.05637500000012,
      "v": 55
    },
    {
      "midi": 62,
      "hit": false,
      "t": 127985.8766666669,
      "d": 199.05637500000012,
      "v": 55
    },
    {
      "midi": 65,
      "hit": false,
      "t": 127985.8766666669,
      "d": 199.05637500000012,
      "v": 44
    },
    {
      "midi": 70,
      "hit": false,
      "t": 127985.8766666669,
      "d": 258.0360416666663,
      "v": 54
    },
    {
      "midi": 46,
      "hit": false,
      "t": 128280.77500000023,
      "d": 176.9389999999985,
      "v": 46
    },
    {
      "midi": 50,
      "hit": false,
      "t": 128280.77500000023,
      "d": 176.9389999999985,
      "v": 46
    },
    {
      "midi": 58,
      "hit": false,
      "t": 128280.77500000023,
      "d": 176.9389999999985,
      "v": 46
    },
    {
      "midi": 62,
      "hit": false,
      "t": 128280.77500000023,
      "d": 176.9389999999985,
      "v": 46
    },
    {
      "midi": 65,
      "hit": false,
      "t": 128280.77500000023,
      "d": 176.9389999999985,
      "v": 46
    },
    {
      "midi": 70,
      "hit": false,
      "t": 128280.77500000023,
      "d": 258.0360416666663,
      "v": 54
    },
    {
      "midi": 46,
      "hit": false,
      "t": 128575.67333333356,
      "d": 147.44916666667268,
      "v": 48
    },
    {
      "midi": 50,
      "hit": false,
      "t": 128575.67333333356,
      "d": 147.44916666667268,
      "v": 48
    },
    {
      "midi": 58,
      "hit": false,
      "t": 128575.67333333356,
      "d": 147.44916666667268,
      "v": 48
    },
    {
      "midi": 62,
      "hit": false,
      "t": 128575.67333333356,
      "d": 147.44916666667268,
      "v": 48
    },
    {
      "midi": 65,
      "hit": false,
      "t": 128575.67333333356,
      "d": 147.44916666667268,
      "v": 48
    },
    {
      "midi": 70,
      "hit": false,
      "t": 128575.67333333356,
      "d": 191.68391666667594,
      "v": 53
    },
    {
      "midi": 46,
      "hit": false,
      "t": 128870.5716666669,
      "d": 176.9389999999985,
      "v": 49
    },
    {
      "midi": 50,
      "hit": false,
      "t": 128870.5716666669,
      "d": 176.9389999999985,
      "v": 49
    },
    {
      "midi": 58,
      "hit": false,
      "t": 128870.5716666669,
      "d": 176.9389999999985,
      "v": 49
    },
    {
      "midi": 62,
      "hit": false,
      "t": 128870.5716666669,
      "d": 176.9389999999985,
      "v": 49
    },
    {
      "midi": 65,
      "hit": false,
      "t": 128870.5716666669,
      "d": 176.9389999999985,
      "v": 49
    },
    {
      "midi": 70,
      "hit": false,
      "t": 128870.5716666669,
      "d": 199.05637500000012,
      "v": 55
    },
    {
      "midi": 46,
      "hit": false,
      "t": 129165.47000000023,
      "d": 206.42883333333884,
      "v": 57
    },
    {
      "midi": 50,
      "hit": false,
      "t": 129165.47000000023,
      "d": 206.42883333333884,
      "v": 57
    },
    {
      "midi": 58,
      "hit": false,
      "t": 129165.47000000023,
      "d": 206.42883333333884,
      "v": 57
    },
    {
      "midi": 62,
      "hit": false,
      "t": 129165.47000000023,
      "d": 206.42883333333884,
      "v": 57
    },
    {
      "midi": 65,
      "hit": false,
      "t": 129165.47000000023,
      "d": 206.42883333333884,
      "v": 46
    },
    {
      "midi": 70,
      "hit": false,
      "t": 129165.47000000023,
      "d": 213.80129166667757,
      "v": 55
    },
    {
      "midi": 46,
      "hit": false,
      "t": 129460.36833333358,
      "d": 184.3114583333372,
      "v": 49
    },
    {
      "midi": 50,
      "hit": false,
      "t": 129460.36833333358,
      "d": 184.3114583333372,
      "v": 49
    },
    {
      "midi": 58,
      "hit": false,
      "t": 129460.36833333358,
      "d": 184.3114583333372,
      "v": 49
    },
    {
      "midi": 62,
      "hit": false,
      "t": 129460.36833333358,
      "d": 184.3114583333372,
      "v": 49
    },
    {
      "midi": 70,
      "hit": false,
      "t": 129460.36833333358,
      "d": 199.05637500000012,
      "v": 43
    },
    {
      "midi": 65,
      "hit": false,
      "t": 129460.36833333358,
      "d": 235.91866666666465,
      "v": 49
    },
    {
      "midi": 46,
      "hit": false,
      "t": 129755.26666666691,
      "d": 206.42883333333884,
      "v": 57
    },
    {
      "midi": 50,
      "hit": false,
      "t": 129755.26666666691,
      "d": 206.42883333333884,
      "v": 57
    },
    {
      "midi": 58,
      "hit": false,
      "t": 129755.26666666691,
      "d": 206.42883333333884,
      "v": 57
    },
    {
      "midi": 62,
      "hit": false,
      "t": 129755.26666666691,
      "d": 206.42883333333884,
      "v": 57
    },
    {
      "midi": 65,
      "hit": false,
      "t": 129755.26666666691,
      "d": 206.42883333333884,
      "v": 48
    },
    {
      "midi": 70,
      "hit": false,
      "t": 129755.26666666691,
      "d": 221.17375000000175,
      "v": 44
    },
    {
      "midi": 46,
      "hit": false,
      "t": 130050.16500000024,
      "d": 169.56654166665976,
      "v": 49
    },
    {
      "midi": 58,
      "hit": false,
      "t": 130050.16500000024,
      "d": 169.56654166665976,
      "v": 49
    },
    {
      "midi": 62,
      "hit": false,
      "t": 130050.16500000024,
      "d": 169.56654166665976,
      "v": 49
    },
    {
      "midi": 65,
      "hit": false,
      "t": 130050.16500000024,
      "d": 169.56654166665976,
      "v": 49
    },
    {
      "midi": 50,
      "hit": false,
      "t": 130050.16500000024,
      "d": 176.9389999999985,
      "v": 49
    },
    {
      "midi": 70,
      "hit": false,
      "t": 130050.16500000024,
      "d": 213.80129166666302,
      "v": 57
    },
    {
      "midi": 46,
      "hit": false,
      "t": 130345.06333333357,
      "d": 154.82162499999686,
      "v": 58
    },
    {
      "midi": 50,
      "hit": false,
      "t": 130345.06333333357,
      "d": 154.82162499999686,
      "v": 58
    },
    {
      "midi": 58,
      "hit": false,
      "t": 130345.06333333357,
      "d": 154.82162499999686,
      "v": 58
    },
    {
      "midi": 62,
      "hit": false,
      "t": 130345.06333333357,
      "d": 154.82162499999686,
      "v": 58
    },
    {
      "midi": 65,
      "hit": false,
      "t": 130345.06333333357,
      "d": 154.82162499999686,
      "v": 49
    },
    {
      "midi": 70,
      "hit": false,
      "t": 130345.06333333357,
      "d": 235.91866666666465,
      "v": 55
    },
    {
      "midi": 46,
      "hit": false,
      "t": 130639.9616666669,
      "d": 169.56654166665976,
      "v": 45
    },
    {
      "midi": 50,
      "hit": false,
      "t": 130639.9616666669,
      "d": 169.56654166665976,
      "v": 45
    },
    {
      "midi": 58,
      "hit": false,
      "t": 130639.9616666669,
      "d": 169.56654166665976,
      "v": 45
    },
    {
      "midi": 70,
      "hit": false,
      "t": 130639.9616666669,
      "d": 199.05637500000012,
      "v": 58
    },
    {
      "midi": 62,
      "hit": false,
      "t": 130639.9616666669,
      "d": 228.54620833334047,
      "v": 45
    },
    {
      "midi": 65,
      "hit": false,
      "t": 130639.9616666669,
      "d": 250.6635833333421,
      "v": 45
    },
    {
      "midi": 46,
      "hit": false,
      "t": 130934.86000000025,
      "d": 176.93900000001304,
      "v": 46
    },
    {
      "midi": 51,
      "hit": false,
      "t": 130934.86000000025,
      "d": 176.93900000001304,
      "v": 46
    },
    {
      "midi": 55,
      "hit": false,
      "t": 130934.86000000025,
      "d": 176.93900000001304,
      "v": 46
    },
    {
      "midi": 58,
      "hit": false,
      "t": 130934.86000000025,
      "d": 176.93900000001304,
      "v": 46
    },
    {
      "midi": 63,
      "hit": false,
      "t": 130934.86000000025,
      "d": 176.93900000001304,
      "v": 46
    },
    {
      "midi": 67,
      "hit": false,
      "t": 130934.86000000025,
      "d": 199.05637500001467,
      "v": 57
    },
    {
      "midi": 70,
      "hit": false,
      "t": 130934.86000000025,
      "d": 258.0360416666954,
      "v": 54
    },
    {
      "midi": 46,
      "hit": false,
      "t": 131229.75833333362,
      "d": 147.44916666665813,
      "v": 48
    },
    {
      "midi": 51,
      "hit": false,
      "t": 131229.75833333362,
      "d": 147.44916666665813,
      "v": 48
    },
    {
      "midi": 55,
      "hit": false,
      "t": 131229.75833333362,
      "d": 147.44916666665813,
      "v": 48
    },
    {
      "midi": 58,
      "hit": false,
      "t": 131229.75833333362,
      "d": 147.44916666665813,
      "v": 48
    },
    {
      "midi": 63,
      "hit": false,
      "t": 131229.75833333362,
      "d": 147.44916666665813,
      "v": 48
    },
    {
      "midi": 70,
      "hit": false,
      "t": 131229.75833333362,
      "d": 191.6839166666614,
      "v": 53
    },
    {
      "midi": 67,
      "hit": false,
      "t": 131229.75833333362,
      "d": 213.80129166666302,
      "v": 48
    },
    {
      "midi": 67,
      "hit": false,
      "t": 131524.65666666694,
      "d": 154.8216250000114,
      "v": 47
    },
    {
      "midi": 46,
      "hit": false,
      "t": 131524.65666666694,
      "d": 176.93900000001304,
      "v": 49
    },
    {
      "midi": 51,
      "hit": false,
      "t": 131524.65666666694,
      "d": 176.93900000001304,
      "v": 49
    },
    {
      "midi": 55,
      "hit": false,
      "t": 131524.65666666694,
      "d": 176.93900000001304,
      "v": 49
    },
    {
      "midi": 58,
      "hit": false,
      "t": 131524.65666666694,
      "d": 176.93900000001304,
      "v": 49
    },
    {
      "midi": 63,
      "hit": false,
      "t": 131524.65666666694,
      "d": 176.93900000001304,
      "v": 49
    },
    {
      "midi": 70,
      "hit": false,
      "t": 131524.65666666694,
      "d": 199.05637500001467,
      "v": 55
    },
    {
      "midi": 46,
      "hit": false,
      "t": 131819.55500000028,
      "d": 176.93900000001304,
      "v": 46
    },
    {
      "midi": 51,
      "hit": false,
      "t": 131819.55500000028,
      "d": 176.93900000001304,
      "v": 46
    },
    {
      "midi": 55,
      "hit": false,
      "t": 131819.55500000028,
      "d": 176.93900000001304,
      "v": 46
    },
    {
      "midi": 58,
      "hit": false,
      "t": 131819.55500000028,
      "d": 176.93900000001304,
      "v": 46
    },
    {
      "midi": 63,
      "hit": false,
      "t": 131819.55500000028,
      "d": 176.93900000001304,
      "v": 46
    },
    {
      "midi": 67,
      "hit": false,
      "t": 131819.55500000028,
      "d": 199.05637500001467,
      "v": 57
    },
    {
      "midi": 70,
      "hit": false,
      "t": 131819.55500000028,
      "d": 258.0360416666954,
      "v": 54
    },
    {
      "midi": 46,
      "hit": false,
      "t": 132114.45333333366,
      "d": 147.44916666665813,
      "v": 48
    },
    {
      "midi": 51,
      "hit": false,
      "t": 132114.45333333366,
      "d": 147.44916666665813,
      "v": 48
    },
    {
      "midi": 55,
      "hit": false,
      "t": 132114.45333333366,
      "d": 147.44916666665813,
      "v": 48
    },
    {
      "midi": 58,
      "hit": false,
      "t": 132114.45333333366,
      "d": 147.44916666665813,
      "v": 48
    },
    {
      "midi": 63,
      "hit": false,
      "t": 132114.45333333366,
      "d": 147.44916666665813,
      "v": 48
    },
    {
      "midi": 70,
      "hit": false,
      "t": 132114.45333333366,
      "d": 191.6839166666614,
      "v": 53
    },
    {
      "midi": 67,
      "hit": false,
      "t": 132114.45333333366,
      "d": 213.80129166666302,
      "v": 48
    },
    {
      "midi": 67,
      "hit": false,
      "t": 132409.35166666697,
      "d": 154.8216250000114,
      "v": 47
    },
    {
      "midi": 46,
      "hit": false,
      "t": 132409.35166666697,
      "d": 176.93900000001304,
      "v": 49
    },
    {
      "midi": 51,
      "hit": false,
      "t": 132409.35166666697,
      "d": 176.93900000001304,
      "v": 49
    },
    {
      "midi": 55,
      "hit": false,
      "t": 132409.35166666697,
      "d": 176.93900000001304,
      "v": 49
    },
    {
      "midi": 58,
      "hit": false,
      "t": 132409.35166666697,
      "d": 176.93900000001304,
      "v": 49
    },
    {
      "midi": 63,
      "hit": false,
      "t": 132409.35166666697,
      "d": 176.93900000001304,
      "v": 49
    },
    {
      "midi": 70,
      "hit": false,
      "t": 132409.35166666697,
      "d": 199.05637500001467,
      "v": 55
    },
    {
      "midi": 68,
      "hit": false,
      "t": 132704.25000000032,
      "d": 191.6839166666614,
      "v": 63
    },
    {
      "midi": 48,
      "hit": false,
      "t": 132704.25000000032,
      "d": 206.42883333333884,
      "v": 57
    },
    {
      "midi": 51,
      "hit": false,
      "t": 132704.25000000032,
      "d": 206.42883333333884,
      "v": 57
    },
    {
      "midi": 56,
      "hit": false,
      "t": 132704.25000000032,
      "d": 206.42883333333884,
      "v": 57
    },
    {
      "midi": 60,
      "hit": false,
      "t": 132704.25000000032,
      "d": 206.42883333333884,
      "v": 57
    },
    {
      "midi": 63,
      "hit": false,
      "t": 132704.25000000032,
      "d": 206.42883333333884,
      "v": 46
    },
    {
      "midi": 72,
      "hit": false,
      "t": 132704.25000000032,
      "d": 213.80129166666302,
      "v": 55
    },
    {
      "midi": 48,
      "hit": false,
      "t": 132999.14833333364,
      "d": 184.3114583333372,
      "v": 49
    },
    {
      "midi": 51,
      "hit": false,
      "t": 132999.14833333364,
      "d": 184.3114583333372,
      "v": 49
    },
    {
      "midi": 56,
      "hit": false,
      "t": 132999.14833333364,
      "d": 184.3114583333372,
      "v": 49
    },
    {
      "midi": 60,
      "hit": false,
      "t": 132999.14833333364,
      "d": 184.3114583333372,
      "v": 49
    },
    {
      "midi": 72,
      "hit": false,
      "t": 132999.14833333364,
      "d": 199.05637500001467,
      "v": 43
    },
    {
      "midi": 68,
      "hit": false,
      "t": 132999.14833333364,
      "d": 213.80129166669212,
      "v": 56
    },
    {
      "midi": 63,
      "hit": false,
      "t": 132999.14833333364,
      "d": 235.91866666669375,
      "v": 49
    },
    {
      "midi": 68,
      "hit": false,
      "t": 133294.046666667,
      "d": 176.93900000001304,
      "v": 54
    },
    {
      "midi": 48,
      "hit": false,
      "t": 133294.046666667,
      "d": 206.42883333333884,
      "v": 57
    },
    {
      "midi": 51,
      "hit": false,
      "t": 133294.046666667,
      "d": 206.42883333333884,
      "v": 57
    },
    {
      "midi": 56,
      "hit": false,
      "t": 133294.046666667,
      "d": 206.42883333333884,
      "v": 57
    },
    {
      "midi": 60,
      "hit": false,
      "t": 133294.046666667,
      "d": 206.42883333333884,
      "v": 57
    },
    {
      "midi": 63,
      "hit": false,
      "t": 133294.046666667,
      "d": 206.42883333333884,
      "v": 48
    },
    {
      "midi": 72,
      "hit": false,
      "t": 133294.046666667,
      "d": 221.1737500000163,
      "v": 44
    },
    {
      "midi": 48,
      "hit": false,
      "t": 133588.94500000036,
      "d": 169.56654166665976,
      "v": 49
    },
    {
      "midi": 56,
      "hit": false,
      "t": 133588.94500000036,
      "d": 169.56654166665976,
      "v": 49
    },
    {
      "midi": 60,
      "hit": false,
      "t": 133588.94500000036,
      "d": 169.56654166665976,
      "v": 49
    },
    {
      "midi": 63,
      "hit": false,
      "t": 133588.94500000036,
      "d": 169.56654166665976,
      "v": 49
    },
    {
      "midi": 51,
      "hit": false,
      "t": 133588.94500000036,
      "d": 176.93899999998393,
      "v": 49
    },
    {
      "midi": 68,
      "hit": false,
      "t": 133588.94500000036,
      "d": 176.93899999998393,
      "v": 61
    },
    {
      "midi": 72,
      "hit": false,
      "t": 133588.94500000036,
      "d": 213.80129166666302,
      "v": 57
    },
    {
      "midi": 48,
      "hit": false,
      "t": 133883.84333333367,
      "d": 154.8216250000114,
      "v": 58
    },
    {
      "midi": 51,
      "hit": false,
      "t": 133883.84333333367,
      "d": 154.8216250000114,
      "v": 58
    },
    {
      "midi": 56,
      "hit": false,
      "t": 133883.84333333367,
      "d": 154.8216250000114,
      "v": 58
    },
    {
      "midi": 60,
      "hit": false,
      "t": 133883.84333333367,
      "d": 154.8216250000114,
      "v": 58
    },
    {
      "midi": 63,
      "hit": false,
      "t": 133883.84333333367,
      "d": 154.8216250000114,
      "v": 49
    },
    {
      "midi": 68,
      "hit": false,
      "t": 133883.84333333367,
      "d": 176.93900000001304,
      "v": 63
    },
    {
      "midi": 72,
      "hit": false,
      "t": 133883.84333333367,
      "d": 235.91866666669375,
      "v": 55
    },
    {
      "midi": 48,
      "hit": false,
      "t": 134178.74166666705,
      "d": 169.56654166665976,
      "v": 45
    },
    {
      "midi": 51,
      "hit": false,
      "t": 134178.74166666705,
      "d": 169.56654166665976,
      "v": 45
    },
    {
      "midi": 56,
      "hit": false,
      "t": 134178.74166666705,
      "d": 169.56654166665976,
      "v": 45
    },
    {
      "midi": 72,
      "hit": false,
      "t": 134178.74166666705,
      "d": 199.05637499998556,
      "v": 58
    },
    {
      "midi": 60,
      "hit": false,
      "t": 134178.74166666705,
      "d": 228.54620833331137,
      "v": 45
    },
    {
      "midi": 68,
      "hit": false,
      "t": 134178.74166666705,
      "d": 228.54620833331137,
      "v": 54
    },
    {
      "midi": 63,
      "hit": false,
      "t": 134178.74166666705,
      "d": 250.663583333313,
      "v": 45
    },
    {
      "midi": 46,
      "hit": false,
      "t": 134473.64000000036,
      "d": 213.80129166666302,
      "v": 52
    },
    {
      "midi": 51,
      "hit": false,
      "t": 134473.64000000036,
      "d": 213.80129166666302,
      "v": 52
    },
    {
      "midi": 58,
      "hit": false,
      "t": 134473.64000000036,
      "d": 213.80129166666302,
      "v": 52
    },
    {
      "midi": 63,
      "hit": false,
      "t": 134473.64000000036,
      "d": 213.80129166666302,
      "v": 52
    },
    {
      "midi": 67,
      "hit": false,
      "t": 134473.64000000036,
      "d": 213.80129166666302,
      "v": 41
    },
    {
      "midi": 70,
      "hit": false,
      "t": 134473.64000000036,
      "d": 258.0360416666663,
      "v": 52
    },
    {
      "midi": 68,
      "hit": false,
      "t": 138012.42000000036,
      "d": 199.05637499998556,
      "v": 54
    },
    {
      "midi": 46,
      "hit": false,
      "t": 138012.42000000036,
      "d": 213.80129166666302,
      "v": 52
    },
    {
      "midi": 50,
      "hit": false,
      "t": 138012.42000000036,
      "d": 213.80129166666302,
      "v": 52
    },
    {
      "midi": 58,
      "hit": false,
      "t": 138012.42000000036,
      "d": 213.80129166666302,
      "v": 52
    },
    {
      "midi": 62,
      "hit": false,
      "t": 138012.42000000036,
      "d": 213.80129166666302,
      "v": 52
    },
    {
      "midi": 65,
      "hit": false,
      "t": 138012.42000000036,
      "d": 213.80129166666302,
      "v": 41
    },
    {
      "midi": 70,
      "hit": false,
      "t": 138012.42000000036,
      "d": 258.0360416666663,
      "v": 52
    },
    {
      "midi": 46,
      "hit": false,
      "t": 138307.3183333337,
      "d": 162.19408333333558,
      "v": 47
    },
    {
      "midi": 50,
      "hit": false,
      "t": 138307.3183333337,
      "d": 162.19408333333558,
      "v": 47
    },
    {
      "midi": 58,
      "hit": false,
      "t": 138307.3183333337,
      "d": 162.19408333333558,
      "v": 47
    },
    {
      "midi": 62,
      "hit": false,
      "t": 138307.3183333337,
      "d": 162.19408333333558,
      "v": 47
    },
    {
      "midi": 65,
      "hit": false,
      "t": 138307.3183333337,
      "d": 162.19408333333558,
      "v": 47
    },
    {
      "midi": 68,
      "hit": false,
      "t": 138307.3183333337,
      "d": 191.6839166666614,
      "v": 47
    },
    {
      "midi": 70,
      "hit": false,
      "t": 138307.3183333337,
      "d": 258.0360416666663,
      "v": 54
    },
    {
      "midi": 46,
      "hit": false,
      "t": 138602.21666666705,
      "d": 199.05637499998556,
      "v": 55
    },
    {
      "midi": 50,
      "hit": false,
      "t": 138602.21666666705,
      "d": 199.05637499998556,
      "v": 55
    },
    {
      "midi": 58,
      "hit": false,
      "t": 138602.21666666705,
      "d": 199.05637499998556,
      "v": 55
    },
    {
      "midi": 62,
      "hit": false,
      "t": 138602.21666666705,
      "d": 199.05637499998556,
      "v": 55
    },
    {
      "midi": 65,
      "hit": false,
      "t": 138602.21666666705,
      "d": 199.05637499998556,
      "v": 44
    },
    {
      "midi": 68,
      "hit": false,
      "t": 138602.21666666705,
      "d": 206.42883333330974,
      "v": 48
    },
    {
      "midi": 70,
      "hit": false,
      "t": 138602.21666666705,
      "d": 258.0360416666372,
      "v": 54
    },
    {
      "midi": 46,
      "hit": false,
      "t": 138897.11500000037,
      "d": 176.93900000001304,
      "v": 46
    },
    {
      "midi": 50,
      "hit": false,
      "t": 138897.11500000037,
      "d": 176.93900000001304,
      "v": 46
    },
    {
      "midi": 58,
      "hit": false,
      "t": 138897.11500000037,
      "d": 176.93900000001304,
      "v": 46
    },
    {
      "midi": 62,
      "hit": false,
      "t": 138897.11500000037,
      "d": 176.93900000001304,
      "v": 46
    },
    {
      "midi": 65,
      "hit": false,
      "t": 138897.11500000037,
      "d": 176.93900000001304,
      "v": 46
    },
    {
      "midi": 68,
      "hit": false,
      "t": 138897.11500000037,
      "d": 199.05637500001467,
      "v": 57
    },
    {
      "midi": 70,
      "hit": false,
      "t": 138897.11500000037,
      "d": 258.0360416666954,
      "v": 54
    },
    {
      "midi": 46,
      "hit": false,
      "t": 139192.01333333374,
      "d": 147.44916666665813,
      "v": 48
    },
    {
      "midi": 50,
      "hit": false,
      "t": 139192.01333333374,
      "d": 147.44916666665813,
      "v": 48
    },
    {
      "midi": 58,
      "hit": false,
      "t": 139192.01333333374,
      "d": 147.44916666665813,
      "v": 48
    },
    {
      "midi": 62,
      "hit": false,
      "t": 139192.01333333374,
      "d": 147.44916666665813,
      "v": 48
    },
    {
      "midi": 65,
      "hit": false,
      "t": 139192.01333333374,
      "d": 147.44916666665813,
      "v": 48
    },
    {
      "midi": 70,
      "hit": false,
      "t": 139192.01333333374,
      "d": 191.6839166666614,
      "v": 53
    },
    {
      "midi": 68,
      "hit": false,
      "t": 139192.01333333374,
      "d": 213.80129166666302,
      "v": 48
    },
    {
      "midi": 68,
      "hit": false,
      "t": 139486.91166666706,
      "d": 154.8216250000114,
      "v": 47
    },
    {
      "midi": 46,
      "hit": false,
      "t": 139486.91166666706,
      "d": 176.93900000001304,
      "v": 49
    },
    {
      "midi": 50,
      "hit": false,
      "t": 139486.91166666706,
      "d": 176.93900000001304,
      "v": 49
    },
    {
      "midi": 58,
      "hit": false,
      "t": 139486.91166666706,
      "d": 176.93900000001304,
      "v": 49
    },
    {
      "midi": 62,
      "hit": false,
      "t": 139486.91166666706,
      "d": 176.93900000001304,
      "v": 49
    },
    {
      "midi": 65,
      "hit": false,
      "t": 139486.91166666706,
      "d": 176.93900000001304,
      "v": 49
    },
    {
      "midi": 70,
      "hit": false,
      "t": 139486.91166666706,
      "d": 199.05637500001467,
      "v": 55
    },
    {
      "midi": 68,
      "hit": false,
      "t": 139781.8100000004,
      "d": 191.6839166666614,
      "v": 63
    },
    {
      "midi": 46,
      "hit": false,
      "t": 139781.8100000004,
      "d": 206.42883333333884,
      "v": 57
    },
    {
      "midi": 50,
      "hit": false,
      "t": 139781.8100000004,
      "d": 206.42883333333884,
      "v": 57
    },
    {
      "midi": 58,
      "hit": false,
      "t": 139781.8100000004,
      "d": 206.42883333333884,
      "v": 57
    },
    {
      "midi": 62,
      "hit": false,
      "t": 139781.8100000004,
      "d": 206.42883333333884,
      "v": 57
    },
    {
      "midi": 65,
      "hit": false,
      "t": 139781.8100000004,
      "d": 206.42883333333884,
      "v": 46
    },
    {
      "midi": 70,
      "hit": false,
      "t": 139781.8100000004,
      "d": 213.80129166666302,
      "v": 55
    },
    {
      "midi": 46,
      "hit": false,
      "t": 140076.70833333372,
      "d": 184.3114583333372,
      "v": 49
    },
    {
      "midi": 50,
      "hit": false,
      "t": 140076.70833333372,
      "d": 184.3114583333372,
      "v": 49
    },
    {
      "midi": 58,
      "hit": false,
      "t": 140076.70833333372,
      "d": 184.3114583333372,
      "v": 49
    },
    {
      "midi": 62,
      "hit": false,
      "t": 140076.70833333372,
      "d": 184.3114583333372,
      "v": 49
    },
    {
      "midi": 70,
      "hit": false,
      "t": 140076.70833333372,
      "d": 199.05637500001467,
      "v": 43
    },
    {
      "midi": 68,
      "hit": false,
      "t": 140076.70833333372,
      "d": 213.80129166669212,
      "v": 56
    },
    {
      "midi": 65,
      "hit": false,
      "t": 140076.70833333372,
      "d": 235.91866666669375,
      "v": 49
    },
    {
      "midi": 68,
      "hit": false,
      "t": 140371.6066666671,
      "d": 176.93900000001304,
      "v": 54
    },
    {
      "midi": 46,
      "hit": false,
      "t": 140371.6066666671,
      "d": 206.42883333333884,
      "v": 57
    },
    {
      "midi": 50,
      "hit": false,
      "t": 140371.6066666671,
      "d": 206.42883333333884,
      "v": 57
    },
    {
      "midi": 58,
      "hit": false,
      "t": 140371.6066666671,
      "d": 206.42883333333884,
      "v": 57
    },
    {
      "midi": 62,
      "hit": false,
      "t": 140371.6066666671,
      "d": 206.42883333333884,
      "v": 57
    },
    {
      "midi": 65,
      "hit": false,
      "t": 140371.6066666671,
      "d": 206.42883333333884,
      "v": 48
    },
    {
      "midi": 70,
      "hit": false,
      "t": 140371.6066666671,
      "d": 221.1737500000163,
      "v": 44
    },
    {
      "midi": 46,
      "hit": false,
      "t": 140666.50500000044,
      "d": 169.56654166665976,
      "v": 49
    },
    {
      "midi": 58,
      "hit": false,
      "t": 140666.50500000044,
      "d": 169.56654166665976,
      "v": 49
    },
    {
      "midi": 62,
      "hit": false,
      "t": 140666.50500000044,
      "d": 169.56654166665976,
      "v": 49
    },
    {
      "midi": 65,
      "hit": false,
      "t": 140666.50500000044,
      "d": 169.56654166665976,
      "v": 49
    },
    {
      "midi": 50,
      "hit": false,
      "t": 140666.50500000044,
      "d": 176.93899999998393,
      "v": 49
    },
    {
      "midi": 68,
      "hit": false,
      "t": 140666.50500000044,
      "d": 176.93899999998393,
      "v": 61
    },
    {
      "midi": 70,
      "hit": false,
      "t": 140666.50500000044,
      "d": 213.80129166666302,
      "v": 57
    },
    {
      "midi": 46,
      "hit": false,
      "t": 140961.40333333376,
      "d": 154.8216250000114,
      "v": 58
    },
    {
      "midi": 50,
      "hit": false,
      "t": 140961.40333333376,
      "d": 154.8216250000114,
      "v": 58
    },
    {
      "midi": 58,
      "hit": false,
      "t": 140961.40333333376,
      "d": 154.8216250000114,
      "v": 58
    },
    {
      "midi": 62,
      "hit": false,
      "t": 140961.40333333376,
      "d": 154.8216250000114,
      "v": 58
    },
    {
      "midi": 65,
      "hit": false,
      "t": 140961.40333333376,
      "d": 154.8216250000114,
      "v": 49
    },
    {
      "midi": 68,
      "hit": false,
      "t": 140961.40333333376,
      "d": 176.93900000001304,
      "v": 63
    },
    {
      "midi": 70,
      "hit": false,
      "t": 140961.40333333376,
      "d": 235.91866666669375,
      "v": 55
    },
    {
      "midi": 46,
      "hit": false,
      "t": 141256.30166666713,
      "d": 169.56654166665976,
      "v": 45
    },
    {
      "midi": 50,
      "hit": false,
      "t": 141256.30166666713,
      "d": 169.56654166665976,
      "v": 45
    },
    {
      "midi": 58,
      "hit": false,
      "t": 141256.30166666713,
      "d": 169.56654166665976,
      "v": 45
    },
    {
      "midi": 70,
      "hit": false,
      "t": 141256.30166666713,
      "d": 199.05637499998556,
      "v": 58
    },
    {
      "midi": 62,
      "hit": false,
      "t": 141256.30166666713,
      "d": 228.54620833331137,
      "v": 45
    },
    {
      "midi": 68,
      "hit": false,
      "t": 141256.30166666713,
      "d": 228.54620833331137,
      "v": 54
    },
    {
      "midi": 65,
      "hit": false,
      "t": 141256.30166666713,
      "d": 250.663583333313,
      "v": 45
    },
    {
      "midi": 50,
      "hit": false,
      "t": 141551.20000000045,
      "d": 206.42883333333884,
      "v": 57
    },
    {
      "midi": 46,
      "hit": false,
      "t": 141551.20000000045,
      "d": 243.29112500001793,
      "v": 58
    },
    {
      "midi": 58,
      "hit": false,
      "t": 141551.20000000045,
      "d": 243.29112500001793,
      "v": 55
    },
    {
      "midi": 68,
      "hit": false,
      "t": 141551.20000000045,
      "d": 243.29112500001793,
      "v": 61
    },
    {
      "midi": 70,
      "hit": false,
      "t": 141551.20000000045,
      "d": 243.29112500001793,
      "v": 57
    },
    {
      "midi": 62,
      "hit": false,
      "t": 141551.20000000045,
      "d": 265.40850000001956,
      "v": 45
    },
    {
      "midi": 65,
      "hit": false,
      "t": 141551.20000000045,
      "d": 265.40850000001956,
      "v": 45
    },
    {
      "midi": 70,
      "hit": false,
      "t": 145089.98000000048,
      "d": 641.4038749999891,
      "v": 41
    },
    {
      "midi": 46,
      "hit": false,
      "t": 145089.98000000048,
      "d": 678.2661666666681,
      "v": 41
    },
    {
      "midi": 51,
      "hit": false,
      "t": 145089.98000000048,
      "d": 678.2661666666681,
      "v": 41
    },
    {
      "midi": 55,
      "hit": false,
      "t": 145089.98000000048,
      "d": 678.2661666666681,
      "v": 41
    },
    {
      "midi": 58,
      "hit": false,
      "t": 145089.98000000048,
      "d": 678.2661666666681,
      "v": 41
    },
    {
      "midi": 63,
      "hit": false,
      "t": 145089.98000000048,
      "d": 678.2661666666681,
      "v": 32
    },
    {
      "midi": 67,
      "hit": false,
      "t": 145089.98000000048,
      "d": 729.8733749999956,
      "v": 43
    },
    {
      "midi": 46,
      "hit": false,
      "t": 145974.67500000048,
      "d": 176.93900000001304,
      "v": 46
    },
    {
      "midi": 51,
      "hit": false,
      "t": 145974.67500000048,
      "d": 176.93900000001304,
      "v": 46
    },
    {
      "midi": 55,
      "hit": false,
      "t": 145974.67500000048,
      "d": 176.93900000001304,
      "v": 46
    },
    {
      "midi": 58,
      "hit": false,
      "t": 145974.67500000048,
      "d": 176.93900000001304,
      "v": 46
    },
    {
      "midi": 63,
      "hit": false,
      "t": 145974.67500000048,
      "d": 176.93900000001304,
      "v": 46
    },
    {
      "midi": 67,
      "hit": false,
      "t": 145974.67500000048,
      "d": 199.05637500001467,
      "v": 57
    },
    {
      "midi": 70,
      "hit": false,
      "t": 145974.67500000048,
      "d": 258.0360416666954,
      "v": 54
    },
    {
      "midi": 46,
      "hit": false,
      "t": 146269.57333333386,
      "d": 147.44916666665813,
      "v": 48
    },
    {
      "midi": 51,
      "hit": false,
      "t": 146269.57333333386,
      "d": 147.44916666665813,
      "v": 48
    },
    {
      "midi": 55,
      "hit": false,
      "t": 146269.57333333386,
      "d": 147.44916666665813,
      "v": 48
    },
    {
      "midi": 58,
      "hit": false,
      "t": 146269.57333333386,
      "d": 147.44916666665813,
      "v": 48
    },
    {
      "midi": 63,
      "hit": false,
      "t": 146269.57333333386,
      "d": 147.44916666665813,
      "v": 48
    },
    {
      "midi": 70,
      "hit": false,
      "t": 146269.57333333386,
      "d": 191.6839166666614,
      "v": 53
    },
    {
      "midi": 67,
      "hit": false,
      "t": 146269.57333333386,
      "d": 213.80129166666302,
      "v": 48
    },
    {
      "midi": 67,
      "hit": false,
      "t": 146564.47166666717,
      "d": 154.8216250000114,
      "v": 47
    },
    {
      "midi": 46,
      "hit": false,
      "t": 146564.47166666717,
      "d": 176.93900000001304,
      "v": 49
    },
    {
      "midi": 51,
      "hit": false,
      "t": 146564.47166666717,
      "d": 176.93900000001304,
      "v": 49
    },
    {
      "midi": 55,
      "hit": false,
      "t": 146564.47166666717,
      "d": 176.93900000001304,
      "v": 49
    },
    {
      "midi": 58,
      "hit": false,
      "t": 146564.47166666717,
      "d": 176.93900000001304,
      "v": 49
    },
    {
      "midi": 63,
      "hit": false,
      "t": 146564.47166666717,
      "d": 176.93900000001304,
      "v": 49
    },
    {
      "midi": 70,
      "hit": false,
      "t": 146564.47166666717,
      "d": 199.05637500001467,
      "v": 55
    },
    {
      "midi": 68,
      "hit": false,
      "t": 146859.37000000052,
      "d": 191.6839166666614,
      "v": 63
    },
    {
      "midi": 48,
      "hit": false,
      "t": 146859.37000000052,
      "d": 206.42883333333884,
      "v": 57
    },
    {
      "midi": 51,
      "hit": false,
      "t": 146859.37000000052,
      "d": 206.42883333333884,
      "v": 57
    },
    {
      "midi": 56,
      "hit": false,
      "t": 146859.37000000052,
      "d": 206.42883333333884,
      "v": 57
    },
    {
      "midi": 60,
      "hit": false,
      "t": 146859.37000000052,
      "d": 206.42883333333884,
      "v": 57
    },
    {
      "midi": 63,
      "hit": false,
      "t": 146859.37000000052,
      "d": 206.42883333333884,
      "v": 46
    },
    {
      "midi": 72,
      "hit": false,
      "t": 146859.37000000052,
      "d": 213.80129166666302,
      "v": 55
    },
    {
      "midi": 48,
      "hit": false,
      "t": 147154.26833333384,
      "d": 184.3114583333372,
      "v": 49
    },
    {
      "midi": 51,
      "hit": false,
      "t": 147154.26833333384,
      "d": 184.3114583333372,
      "v": 49
    },
    {
      "midi": 56,
      "hit": false,
      "t": 147154.26833333384,
      "d": 184.3114583333372,
      "v": 49
    },
    {
      "midi": 60,
      "hit": false,
      "t": 147154.26833333384,
      "d": 184.3114583333372,
      "v": 49
    },
    {
      "midi": 72,
      "hit": false,
      "t": 147154.26833333384,
      "d": 199.05637500001467,
      "v": 43
    },
    {
      "midi": 68,
      "hit": false,
      "t": 147154.26833333384,
      "d": 213.80129166669212,
      "v": 56
    },
    {
      "midi": 63,
      "hit": false,
      "t": 147154.26833333384,
      "d": 235.91866666669375,
      "v": 49
    },
    {
      "midi": 68,
      "hit": false,
      "t": 147449.1666666672,
      "d": 176.93900000001304,
      "v": 54
    },
    {
      "midi": 48,
      "hit": false,
      "t": 147449.1666666672,
      "d": 206.42883333333884,
      "v": 57
    },
    {
      "midi": 51,
      "hit": false,
      "t": 147449.1666666672,
      "d": 206.42883333333884,
      "v": 57
    },
    {
      "midi": 56,
      "hit": false,
      "t": 147449.1666666672,
      "d": 206.42883333333884,
      "v": 57
    },
    {
      "midi": 60,
      "hit": false,
      "t": 147449.1666666672,
      "d": 206.42883333333884,
      "v": 57
    },
    {
      "midi": 63,
      "hit": false,
      "t": 147449.1666666672,
      "d": 206.42883333333884,
      "v": 48
    },
    {
      "midi": 72,
      "hit": false,
      "t": 147449.1666666672,
      "d": 221.1737500000163,
      "v": 44
    },
    {
      "midi": 48,
      "hit": false,
      "t": 147744.06500000056,
      "d": 169.56654166665976,
      "v": 49
    },
    {
      "midi": 56,
      "hit": false,
      "t": 147744.06500000056,
      "d": 169.56654166665976,
      "v": 49
    },
    {
      "midi": 60,
      "hit": false,
      "t": 147744.06500000056,
      "d": 169.56654166665976,
      "v": 49
    },
    {
      "midi": 63,
      "hit": false,
      "t": 147744.06500000056,
      "d": 169.56654166665976,
      "v": 49
    },
    {
      "midi": 51,
      "hit": false,
      "t": 147744.06500000056,
      "d": 176.93899999998393,
      "v": 49
    },
    {
      "midi": 68,
      "hit": false,
      "t": 147744.06500000056,
      "d": 176.93899999998393,
      "v": 61
    },
    {
      "midi": 72,
      "hit": false,
      "t": 147744.06500000056,
      "d": 213.80129166666302,
      "v": 57
    },
    {
      "midi": 48,
      "hit": false,
      "t": 148038.96333333387,
      "d": 154.8216250000114,
      "v": 58
    },
    {
      "midi": 51,
      "hit": false,
      "t": 148038.96333333387,
      "d": 154.8216250000114,
      "v": 58
    },
    {
      "midi": 56,
      "hit": false,
      "t": 148038.96333333387,
      "d": 154.8216250000114,
      "v": 58
    },
    {
      "midi": 60,
      "hit": false,
      "t": 148038.96333333387,
      "d": 154.8216250000114,
      "v": 58
    },
    {
      "midi": 63,
      "hit": false,
      "t": 148038.96333333387,
      "d": 154.8216250000114,
      "v": 49
    },
    {
      "midi": 68,
      "hit": false,
      "t": 148038.96333333387,
      "d": 176.93900000001304,
      "v": 63
    },
    {
      "midi": 72,
      "hit": false,
      "t": 148038.96333333387,
      "d": 235.91866666669375,
      "v": 55
    },
    {
      "midi": 48,
      "hit": false,
      "t": 148333.86166666725,
      "d": 169.56654166665976,
      "v": 45
    },
    {
      "midi": 51,
      "hit": false,
      "t": 148333.86166666725,
      "d": 169.56654166665976,
      "v": 45
    },
    {
      "midi": 56,
      "hit": false,
      "t": 148333.86166666725,
      "d": 169.56654166665976,
      "v": 45
    },
    {
      "midi": 72,
      "hit": false,
      "t": 148333.86166666725,
      "d": 199.05637499998556,
      "v": 58
    },
    {
      "midi": 60,
      "hit": false,
      "t": 148333.86166666725,
      "d": 228.54620833331137,
      "v": 45
    },
    {
      "midi": 68,
      "hit": false,
      "t": 148333.86166666725,
      "d": 228.54620833331137,
      "v": 54
    },
    {
      "midi": 63,
      "hit": false,
      "t": 148333.86166666725,
      "d": 250.663583333313,
      "v": 45
    },
    {
      "midi": 58,
      "hit": false,
      "t": 148628.76000000056,
      "d": 243.29112499998882,
      "v": 55
    },
    {
      "midi": 67,
      "hit": false,
      "t": 148628.76000000056,
      "d": 243.29112499998882,
      "v": 61
    },
    {
      "midi": 70,
      "hit": false,
      "t": 148628.76000000056,
      "d": 243.29112499998882,
      "v": 57
    },
    {
      "midi": 46,
      "hit": false,
      "t": 148628.76000000056,
      "d": 265.40849999999045,
      "v": 58
    },
    {
      "midi": 55,
      "hit": false,
      "t": 148628.76000000056,
      "d": 265.40849999999045,
      "v": 45
    },
    {
      "midi": 63,
      "hit": false,
      "t": 148628.76000000056,
      "d": 265.40849999999045,
      "v": 45
    },
    {
      "midi": 51,
      "hit": false,
      "t": 148628.76000000056,
      "d": 287.5258749999921,
      "v": 57
    },
    {
      "midi": 46,
      "hit": false,
      "t": 152167.54000000056,
      "d": 213.80129166666302,
      "v": 52
    },
    {
      "midi": 50,
      "hit": false,
      "t": 152167.54000000056,
      "d": 213.80129166666302,
      "v": 52
    },
    {
      "midi": 58,
      "hit": false,
      "t": 152167.54000000056,
      "d": 213.80129166666302,
      "v": 52
    },
    {
      "midi": 62,
      "hit": false,
      "t": 152167.54000000056,
      "d": 213.80129166666302,
      "v": 52
    },
    {
      "midi": 65,
      "hit": false,
      "t": 152167.54000000056,
      "d": 213.80129166666302,
      "v": 41
    },
    {
      "midi": 68,
      "hit": false,
      "t": 152167.54000000056,
      "d": 213.80129166666302,
      "v": 41
    },
    {
      "midi": 70,
      "hit": false,
      "t": 152167.54000000056,
      "d": 258.0360416666663,
      "v": 52
    },
    {
      "midi": 46,
      "hit": false,
      "t": 152462.4383333339,
      "d": 162.19408333333558,
      "v": 47
    },
    {
      "midi": 50,
      "hit": false,
      "t": 152462.4383333339,
      "d": 162.19408333333558,
      "v": 47
    },
    {
      "midi": 58,
      "hit": false,
      "t": 152462.4383333339,
      "d": 162.19408333333558,
      "v": 47
    },
    {
      "midi": 62,
      "hit": false,
      "t": 152462.4383333339,
      "d": 162.19408333333558,
      "v": 47
    },
    {
      "midi": 65,
      "hit": false,
      "t": 152462.4383333339,
      "d": 162.19408333333558,
      "v": 47
    },
    {
      "midi": 68,
      "hit": false,
      "t": 152462.4383333339,
      "d": 162.19408333333558,
      "v": 47
    },
    {
      "midi": 70,
      "hit": false,
      "t": 152462.4383333339,
      "d": 258.0360416666663,
      "v": 54
    },
    {
      "midi": 46,
      "hit": false,
      "t": 152757.33666666725,
      "d": 199.05637499998556,
      "v": 55
    },
    {
      "midi": 50,
      "hit": false,
      "t": 152757.33666666725,
      "d": 199.05637499998556,
      "v": 55
    },
    {
      "midi": 58,
      "hit": false,
      "t": 152757.33666666725,
      "d": 199.05637499998556,
      "v": 55
    },
    {
      "midi": 62,
      "hit": false,
      "t": 152757.33666666725,
      "d": 199.05637499998556,
      "v": 55
    },
    {
      "midi": 65,
      "hit": false,
      "t": 152757.33666666725,
      "d": 199.05637499998556,
      "v": 44
    },
    {
      "midi": 68,
      "hit": false,
      "t": 152757.33666666725,
      "d": 199.05637499998556,
      "v": 44
    },
    {
      "midi": 70,
      "hit": false,
      "t": 152757.33666666725,
      "d": 258.0360416666663,
      "v": 54
    },
    {
      "midi": 46,
      "hit": false,
      "t": 153052.2350000006,
      "d": 176.93900000001304,
      "v": 46
    },
    {
      "midi": 50,
      "hit": false,
      "t": 153052.2350000006,
      "d": 176.93900000001304,
      "v": 46
    },
    {
      "midi": 58,
      "hit": false,
      "t": 153052.2350000006,
      "d": 176.93900000001304,
      "v": 46
    },
    {
      "midi": 62,
      "hit": false,
      "t": 153052.2350000006,
      "d": 176.93900000001304,
      "v": 46
    },
    {
      "midi": 65,
      "hit": false,
      "t": 153052.2350000006,
      "d": 176.93900000001304,
      "v": 46
    },
    {
      "midi": 68,
      "hit": false,
      "t": 153052.2350000006,
      "d": 176.93900000001304,
      "v": 46
    },
    {
      "midi": 70,
      "hit": false,
      "t": 153052.2350000006,
      "d": 258.0360416666663,
      "v": 54
    },
    {
      "midi": 46,
      "hit": false,
      "t": 153347.13333333394,
      "d": 147.44916666665813,
      "v": 48
    },
    {
      "midi": 50,
      "hit": false,
      "t": 153347.13333333394,
      "d": 147.44916666665813,
      "v": 48
    },
    {
      "midi": 58,
      "hit": false,
      "t": 153347.13333333394,
      "d": 147.44916666665813,
      "v": 48
    },
    {
      "midi": 62,
      "hit": false,
      "t": 153347.13333333394,
      "d": 147.44916666665813,
      "v": 48
    },
    {
      "midi": 65,
      "hit": false,
      "t": 153347.13333333394,
      "d": 147.44916666665813,
      "v": 48
    },
    {
      "midi": 68,
      "hit": false,
      "t": 153347.13333333394,
      "d": 147.44916666665813,
      "v": 48
    },
    {
      "midi": 70,
      "hit": false,
      "t": 153347.13333333394,
      "d": 191.6839166666614,
      "v": 53
    },
    {
      "midi": 46,
      "hit": false,
      "t": 153642.03166666726,
      "d": 176.93900000001304,
      "v": 49
    },
    {
      "midi": 50,
      "hit": false,
      "t": 153642.03166666726,
      "d": 176.93900000001304,
      "v": 49
    },
    {
      "midi": 58,
      "hit": false,
      "t": 153642.03166666726,
      "d": 176.93900000001304,
      "v": 49
    },
    {
      "midi": 62,
      "hit": false,
      "t": 153642.03166666726,
      "d": 176.93900000001304,
      "v": 49
    },
    {
      "midi": 65,
      "hit": false,
      "t": 153642.03166666726,
      "d": 176.93900000001304,
      "v": 49
    },
    {
      "midi": 68,
      "hit": false,
      "t": 153642.03166666726,
      "d": 176.93900000001304,
      "v": 49
    },
    {
      "midi": 70,
      "hit": false,
      "t": 153642.03166666726,
      "d": 199.05637500001467,
      "v": 55
    },
    {
      "midi": 46,
      "hit": false,
      "t": 153936.9300000006,
      "d": 206.42883333333884,
      "v": 57
    },
    {
      "midi": 50,
      "hit": false,
      "t": 153936.9300000006,
      "d": 206.42883333333884,
      "v": 57
    },
    {
      "midi": 58,
      "hit": false,
      "t": 153936.9300000006,
      "d": 206.42883333333884,
      "v": 57
    },
    {
      "midi": 62,
      "hit": false,
      "t": 153936.9300000006,
      "d": 206.42883333333884,
      "v": 57
    },
    {
      "midi": 65,
      "hit": false,
      "t": 153936.9300000006,
      "d": 206.42883333333884,
      "v": 46
    },
    {
      "midi": 68,
      "hit": false,
      "t": 153936.9300000006,
      "d": 206.42883333333884,
      "v": 46
    },
    {
      "midi": 70,
      "hit": false,
      "t": 153936.9300000006,
      "d": 213.80129166666302,
      "v": 55
    },
    {
      "midi": 46,
      "hit": false,
      "t": 154231.82833333392,
      "d": 184.3114583333372,
      "v": 49
    },
    {
      "midi": 50,
      "hit": false,
      "t": 154231.82833333392,
      "d": 184.3114583333372,
      "v": 49
    },
    {
      "midi": 58,
      "hit": false,
      "t": 154231.82833333392,
      "d": 184.3114583333372,
      "v": 49
    },
    {
      "midi": 62,
      "hit": false,
      "t": 154231.82833333392,
      "d": 184.3114583333372,
      "v": 49
    },
    {
      "midi": 70,
      "hit": false,
      "t": 154231.82833333392,
      "d": 199.05637500001467,
      "v": 43
    },
    {
      "midi": 65,
      "hit": false,
      "t": 154231.82833333392,
      "d": 235.91866666669375,
      "v": 49
    },
    {
      "midi": 68,
      "hit": false,
      "t": 154231.82833333392,
      "d": 235.91866666669375,
      "v": 49
    },
    {
      "midi": 46,
      "hit": false,
      "t": 154526.7266666673,
      "d": 206.42883333333884,
      "v": 57
    },
    {
      "midi": 50,
      "hit": false,
      "t": 154526.7266666673,
      "d": 206.42883333333884,
      "v": 57
    },
    {
      "midi": 58,
      "hit": false,
      "t": 154526.7266666673,
      "d": 206.42883333333884,
      "v": 57
    },
    {
      "midi": 62,
      "hit": false,
      "t": 154526.7266666673,
      "d": 206.42883333333884,
      "v": 57
    },
    {
      "midi": 65,
      "hit": false,
      "t": 154526.7266666673,
      "d": 206.42883333333884,
      "v": 48
    },
    {
      "midi": 68,
      "hit": false,
      "t": 154526.7266666673,
      "d": 206.42883333333884,
      "v": 48
    },
    {
      "midi": 70,
      "hit": false,
      "t": 154526.7266666673,
      "d": 221.1737500000163,
      "v": 44
    },
    {
      "midi": 46,
      "hit": false,
      "t": 154821.62500000064,
      "d": 169.56654166665976,
      "v": 49
    },
    {
      "midi": 58,
      "hit": false,
      "t": 154821.62500000064,
      "d": 169.56654166665976,
      "v": 49
    },
    {
      "midi": 62,
      "hit": false,
      "t": 154821.62500000064,
      "d": 169.56654166665976,
      "v": 49
    },
    {
      "midi": 65,
      "hit": false,
      "t": 154821.62500000064,
      "d": 169.56654166665976,
      "v": 49
    },
    {
      "midi": 68,
      "hit": false,
      "t": 154821.62500000064,
      "d": 169.56654166665976,
      "v": 49
    },
    {
      "midi": 50,
      "hit": false,
      "t": 154821.62500000064,
      "d": 176.93899999998393,
      "v": 49
    },
    {
      "midi": 70,
      "hit": false,
      "t": 154821.62500000064,
      "d": 213.80129166666302,
      "v": 57
    },
    {
      "midi": 46,
      "hit": false,
      "t": 155116.52333333396,
      "d": 154.8216250000114,
      "v": 58
    },
    {
      "midi": 50,
      "hit": false,
      "t": 155116.52333333396,
      "d": 154.8216250000114,
      "v": 58
    },
    {
      "midi": 58,
      "hit": false,
      "t": 155116.52333333396,
      "d": 154.8216250000114,
      "v": 58
    },
    {
      "midi": 62,
      "hit": false,
      "t": 155116.52333333396,
      "d": 154.8216250000114,
      "v": 58
    },
    {
      "midi": 65,
      "hit": false,
      "t": 155116.52333333396,
      "d": 154.8216250000114,
      "v": 49
    },
    {
      "midi": 68,
      "hit": false,
      "t": 155116.52333333396,
      "d": 154.8216250000114,
      "v": 49
    },
    {
      "midi": 70,
      "hit": false,
      "t": 155116.52333333396,
      "d": 235.91866666666465,
      "v": 55
    },
    {
      "midi": 46,
      "hit": false,
      "t": 155411.4216666673,
      "d": 169.56654166665976,
      "v": 45
    },
    {
      "midi": 50,
      "hit": false,
      "t": 155411.4216666673,
      "d": 169.56654166665976,
      "v": 45
    },
    {
      "midi": 58,
      "hit": false,
      "t": 155411.4216666673,
      "d": 169.56654166665976,
      "v": 45
    },
    {
      "midi": 70,
      "hit": false,
      "t": 155411.4216666673,
      "d": 199.05637499998556,
      "v": 58
    },
    {
      "midi": 62,
      "hit": false,
      "t": 155411.4216666673,
      "d": 228.54620833331137,
      "v": 45
    },
    {
      "midi": 65,
      "hit": false,
      "t": 155411.4216666673,
      "d": 250.663583333313,
      "v": 45
    },
    {
      "midi": 68,
      "hit": false,
      "t": 155411.4216666673,
      "d": 250.663583333313,
      "v": 45
    },
    {
      "midi": 46,
      "hit": false,
      "t": 155706.32000000062,
      "d": 213.80129166666302,
      "v": 52
    },
    {
      "midi": 50,
      "hit": false,
      "t": 155706.32000000062,
      "d": 213.80129166666302,
      "v": 52
    },
    {
      "midi": 58,
      "hit": false,
      "t": 155706.32000000062,
      "d": 213.80129166666302,
      "v": 52
    },
    {
      "midi": 62,
      "hit": false,
      "t": 155706.32000000062,
      "d": 213.80129166666302,
      "v": 52
    },
    {
      "midi": 65,
      "hit": false,
      "t": 155706.32000000062,
      "d": 213.80129166666302,
      "v": 41
    },
    {
      "midi": 68,
      "hit": false,
      "t": 155706.32000000062,
      "d": 213.80129166666302,
      "v": 41
    },
    {
      "midi": 70,
      "hit": false,
      "t": 155706.32000000062,
      "d": 258.0360416666663,
      "v": 52
    },
    {
      "midi": 46,
      "hit": false,
      "t": 156001.21833333396,
      "d": 162.19408333333558,
      "v": 47
    },
    {
      "midi": 50,
      "hit": false,
      "t": 156001.21833333396,
      "d": 162.19408333333558,
      "v": 47
    },
    {
      "midi": 58,
      "hit": false,
      "t": 156001.21833333396,
      "d": 162.19408333333558,
      "v": 47
    },
    {
      "midi": 62,
      "hit": false,
      "t": 156001.21833333396,
      "d": 162.19408333333558,
      "v": 47
    },
    {
      "midi": 65,
      "hit": false,
      "t": 156001.21833333396,
      "d": 162.19408333333558,
      "v": 47
    },
    {
      "midi": 68,
      "hit": false,
      "t": 156001.21833333396,
      "d": 162.19408333333558,
      "v": 47
    },
    {
      "midi": 70,
      "hit": false,
      "t": 156001.21833333396,
      "d": 258.0360416666663,
      "v": 54
    },
    {
      "midi": 46,
      "hit": false,
      "t": 156296.1166666673,
      "d": 199.05637499998556,
      "v": 55
    },
    {
      "midi": 50,
      "hit": false,
      "t": 156296.1166666673,
      "d": 199.05637499998556,
      "v": 55
    },
    {
      "midi": 58,
      "hit": false,
      "t": 156296.1166666673,
      "d": 199.05637499998556,
      "v": 55
    },
    {
      "midi": 62,
      "hit": false,
      "t": 156296.1166666673,
      "d": 199.05637499998556,
      "v": 55
    },
    {
      "midi": 65,
      "hit": false,
      "t": 156296.1166666673,
      "d": 199.05637499998556,
      "v": 44
    },
    {
      "midi": 68,
      "hit": false,
      "t": 156296.1166666673,
      "d": 199.05637499998556,
      "v": 44
    },
    {
      "midi": 70,
      "hit": false,
      "t": 156296.1166666673,
      "d": 258.0360416666663,
      "v": 54
    },
    {
      "midi": 46,
      "hit": false,
      "t": 156591.01500000065,
      "d": 176.93900000001304,
      "v": 46
    },
    {
      "midi": 50,
      "hit": false,
      "t": 156591.01500000065,
      "d": 176.93900000001304,
      "v": 46
    },
    {
      "midi": 58,
      "hit": false,
      "t": 156591.01500000065,
      "d": 176.93900000001304,
      "v": 46
    },
    {
      "midi": 62,
      "hit": false,
      "t": 156591.01500000065,
      "d": 176.93900000001304,
      "v": 46
    },
    {
      "midi": 65,
      "hit": false,
      "t": 156591.01500000065,
      "d": 176.93900000001304,
      "v": 46
    },
    {
      "midi": 68,
      "hit": false,
      "t": 156591.01500000065,
      "d": 176.93900000001304,
      "v": 46
    },
    {
      "midi": 70,
      "hit": false,
      "t": 156591.01500000065,
      "d": 258.0360416666663,
      "v": 54
    },
    {
      "midi": 46,
      "hit": false,
      "t": 156885.913333334,
      "d": 147.44916666665813,
      "v": 48
    },
    {
      "midi": 50,
      "hit": false,
      "t": 156885.913333334,
      "d": 147.44916666665813,
      "v": 48
    },
    {
      "midi": 58,
      "hit": false,
      "t": 156885.913333334,
      "d": 147.44916666665813,
      "v": 48
    },
    {
      "midi": 62,
      "hit": false,
      "t": 156885.913333334,
      "d": 147.44916666665813,
      "v": 48
    },
    {
      "midi": 65,
      "hit": false,
      "t": 156885.913333334,
      "d": 147.44916666665813,
      "v": 48
    },
    {
      "midi": 68,
      "hit": false,
      "t": 156885.913333334,
      "d": 147.44916666665813,
      "v": 48
    },
    {
      "midi": 70,
      "hit": false,
      "t": 156885.913333334,
      "d": 191.6839166666614,
      "v": 53
    },
    {
      "midi": 46,
      "hit": false,
      "t": 157180.81166666732,
      "d": 176.93900000001304,
      "v": 49
    },
    {
      "midi": 50,
      "hit": false,
      "t": 157180.81166666732,
      "d": 176.93900000001304,
      "v": 49
    },
    {
      "midi": 58,
      "hit": false,
      "t": 157180.81166666732,
      "d": 176.93900000001304,
      "v": 49
    },
    {
      "midi": 62,
      "hit": false,
      "t": 157180.81166666732,
      "d": 176.93900000001304,
      "v": 49
    },
    {
      "midi": 65,
      "hit": false,
      "t": 157180.81166666732,
      "d": 176.93900000001304,
      "v": 49
    },
    {
      "midi": 68,
      "hit": false,
      "t": 157180.81166666732,
      "d": 176.93900000001304,
      "v": 49
    },
    {
      "midi": 70,
      "hit": false,
      "t": 157180.81166666732,
      "d": 199.05637500001467,
      "v": 55
    },
    {
      "midi": 46,
      "hit": false,
      "t": 157475.71000000066,
      "d": 206.42883333333884,
      "v": 57
    },
    {
      "midi": 50,
      "hit": false,
      "t": 157475.71000000066,
      "d": 206.42883333333884,
      "v": 57
    },
    {
      "midi": 58,
      "hit": false,
      "t": 157475.71000000066,
      "d": 206.42883333333884,
      "v": 57
    },
    {
      "midi": 62,
      "hit": false,
      "t": 157475.71000000066,
      "d": 206.42883333333884,
      "v": 57
    },
    {
      "midi": 65,
      "hit": false,
      "t": 157475.71000000066,
      "d": 206.42883333333884,
      "v": 46
    },
    {
      "midi": 68,
      "hit": false,
      "t": 157475.71000000066,
      "d": 206.42883333333884,
      "v": 46
    },
    {
      "midi": 70,
      "hit": false,
      "t": 157475.71000000066,
      "d": 213.80129166666302,
      "v": 55
    },
    {
      "midi": 46,
      "hit": false,
      "t": 157770.60833333398,
      "d": 184.3114583333372,
      "v": 49
    },
    {
      "midi": 50,
      "hit": false,
      "t": 157770.60833333398,
      "d": 184.3114583333372,
      "v": 49
    },
    {
      "midi": 58,
      "hit": false,
      "t": 157770.60833333398,
      "d": 184.3114583333372,
      "v": 49
    },
    {
      "midi": 62,
      "hit": false,
      "t": 157770.60833333398,
      "d": 184.3114583333372,
      "v": 49
    },
    {
      "midi": 70,
      "hit": false,
      "t": 157770.60833333398,
      "d": 199.05637500001467,
      "v": 43
    },
    {
      "midi": 65,
      "hit": false,
      "t": 157770.60833333398,
      "d": 235.91866666669375,
      "v": 49
    },
    {
      "midi": 68,
      "hit": false,
      "t": 157770.60833333398,
      "d": 235.91866666669375,
      "v": 49
    },
    {
      "midi": 46,
      "hit": false,
      "t": 158065.50666666735,
      "d": 206.42883333333884,
      "v": 57
    },
    {
      "midi": 50,
      "hit": false,
      "t": 158065.50666666735,
      "d": 206.42883333333884,
      "v": 57
    },
    {
      "midi": 58,
      "hit": false,
      "t": 158065.50666666735,
      "d": 206.42883333333884,
      "v": 57
    },
    {
      "midi": 62,
      "hit": false,
      "t": 158065.50666666735,
      "d": 206.42883333333884,
      "v": 57
    },
    {
      "midi": 65,
      "hit": false,
      "t": 158065.50666666735,
      "d": 206.42883333333884,
      "v": 48
    },
    {
      "midi": 68,
      "hit": false,
      "t": 158065.50666666735,
      "d": 206.42883333333884,
      "v": 48
    },
    {
      "midi": 70,
      "hit": false,
      "t": 158065.50666666735,
      "d": 221.1737500000163,
      "v": 44
    },
    {
      "midi": 46,
      "hit": false,
      "t": 158360.4050000007,
      "d": 169.56654166665976,
      "v": 49
    },
    {
      "midi": 58,
      "hit": false,
      "t": 158360.4050000007,
      "d": 169.56654166665976,
      "v": 49
    },
    {
      "midi": 62,
      "hit": false,
      "t": 158360.4050000007,
      "d": 169.56654166665976,
      "v": 49
    },
    {
      "midi": 65,
      "hit": false,
      "t": 158360.4050000007,
      "d": 169.56654166665976,
      "v": 49
    },
    {
      "midi": 68,
      "hit": false,
      "t": 158360.4050000007,
      "d": 169.56654166665976,
      "v": 49
    },
    {
      "midi": 50,
      "hit": false,
      "t": 158360.4050000007,
      "d": 176.93899999998393,
      "v": 49
    },
    {
      "midi": 70,
      "hit": false,
      "t": 158360.4050000007,
      "d": 213.80129166666302,
      "v": 57
    },
    {
      "midi": 46,
      "hit": false,
      "t": 158655.303333334,
      "d": 154.8216250000114,
      "v": 58
    },
    {
      "midi": 50,
      "hit": false,
      "t": 158655.303333334,
      "d": 154.8216250000114,
      "v": 58
    },
    {
      "midi": 58,
      "hit": false,
      "t": 158655.303333334,
      "d": 154.8216250000114,
      "v": 58
    },
    {
      "midi": 62,
      "hit": false,
      "t": 158655.303333334,
      "d": 154.8216250000114,
      "v": 58
    },
    {
      "midi": 65,
      "hit": false,
      "t": 158655.303333334,
      "d": 154.8216250000114,
      "v": 49
    },
    {
      "midi": 68,
      "hit": false,
      "t": 158655.303333334,
      "d": 154.8216250000114,
      "v": 49
    },
    {
      "midi": 70,
      "hit": false,
      "t": 158655.303333334,
      "d": 235.91866666666465,
      "v": 55
    },
    {
      "midi": 46,
      "hit": false,
      "t": 158950.20166666736,
      "d": 169.56654166665976,
      "v": 45
    },
    {
      "midi": 50,
      "hit": false,
      "t": 158950.20166666736,
      "d": 169.56654166665976,
      "v": 45
    },
    {
      "midi": 58,
      "hit": false,
      "t": 158950.20166666736,
      "d": 169.56654166665976,
      "v": 45
    },
    {
      "midi": 70,
      "hit": false,
      "t": 158950.20166666736,
      "d": 199.05637499998556,
      "v": 58
    },
    {
      "midi": 62,
      "hit": false,
      "t": 158950.20166666736,
      "d": 228.54620833331137,
      "v": 45
    },
    {
      "midi": 65,
      "hit": false,
      "t": 158950.20166666736,
      "d": 250.663583333313,
      "v": 45
    },
    {
      "midi": 68,
      "hit": false,
      "t": 158950.20166666736,
      "d": 250.663583333313,
      "v": 45
    },
    {
      "midi": 46,
      "hit": false,
      "t": 159245.10000000068,
      "d": 213.80129166666302,
      "v": 52
    },
    {
      "midi": 51,
      "hit": false,
      "t": 159245.10000000068,
      "d": 213.80129166666302,
      "v": 52
    },
    {
      "midi": 58,
      "hit": false,
      "t": 159245.10000000068,
      "d": 213.80129166666302,
      "v": 52
    },
    {
      "midi": 63,
      "hit": false,
      "t": 159245.10000000068,
      "d": 213.80129166666302,
      "v": 52
    },
    {
      "midi": 67,
      "hit": false,
      "t": 159245.10000000068,
      "d": 213.80129166666302,
      "v": 41
    },
    {
      "midi": 70,
      "hit": false,
      "t": 159245.10000000068,
      "d": 258.0360416666663,
      "v": 52
    },
    {
      "midi": 46,
      "hit": false,
      "t": 159539.99833333402,
      "d": 162.19408333333558,
      "v": 47
    },
    {
      "midi": 51,
      "hit": false,
      "t": 159539.99833333402,
      "d": 162.19408333333558,
      "v": 47
    },
    {
      "midi": 58,
      "hit": false,
      "t": 159539.99833333402,
      "d": 162.19408333333558,
      "v": 47
    },
    {
      "midi": 63,
      "hit": false,
      "t": 159539.99833333402,
      "d": 162.19408333333558,
      "v": 47
    },
    {
      "midi": 67,
      "hit": false,
      "t": 159539.99833333402,
      "d": 162.19408333333558,
      "v": 47
    },
    {
      "midi": 70,
      "hit": false,
      "t": 159539.99833333402,
      "d": 258.0360416666663,
      "v": 54
    },
    {
      "midi": 46,
      "hit": false,
      "t": 159834.89666666737,
      "d": 199.05637499998556,
      "v": 55
    },
    {
      "midi": 51,
      "hit": false,
      "t": 159834.89666666737,
      "d": 199.05637499998556,
      "v": 55
    },
    {
      "midi": 58,
      "hit": false,
      "t": 159834.89666666737,
      "d": 199.05637499998556,
      "v": 55
    },
    {
      "midi": 63,
      "hit": false,
      "t": 159834.89666666737,
      "d": 199.05637499998556,
      "v": 55
    },
    {
      "midi": 67,
      "hit": false,
      "t": 159834.89666666737,
      "d": 199.05637499998556,
      "v": 44
    },
    {
      "midi": 70,
      "hit": false,
      "t": 159834.89666666737,
      "d": 258.0360416666663,
      "v": 54
    },
    {
      "midi": 46,
      "hit": false,
      "t": 160129.7950000007,
      "d": 176.93900000001304,
      "v": 46
    },
    {
      "midi": 51,
      "hit": false,
      "t": 160129.7950000007,
      "d": 176.93900000001304,
      "v": 46
    },
    {
      "midi": 58,
      "hit": false,
      "t": 160129.7950000007,
      "d": 176.93900000001304,
      "v": 46
    },
    {
      "midi": 63,
      "hit": false,
      "t": 160129.7950000007,
      "d": 176.93900000001304,
      "v": 46
    },
    {
      "midi": 67,
      "hit": false,
      "t": 160129.7950000007,
      "d": 176.93900000001304,
      "v": 46
    },
    {
      "midi": 70,
      "hit": false,
      "t": 160129.7950000007,
      "d": 258.0360416666663,
      "v": 54
    },
    {
      "midi": 46,
      "hit": false,
      "t": 160424.69333333406,
      "d": 147.44916666665813,
      "v": 48
    },
    {
      "midi": 51,
      "hit": false,
      "t": 160424.69333333406,
      "d": 147.44916666665813,
      "v": 48
    },
    {
      "midi": 58,
      "hit": false,
      "t": 160424.69333333406,
      "d": 147.44916666665813,
      "v": 48
    },
    {
      "midi": 63,
      "hit": false,
      "t": 160424.69333333406,
      "d": 147.44916666665813,
      "v": 48
    },
    {
      "midi": 67,
      "hit": false,
      "t": 160424.69333333406,
      "d": 147.44916666665813,
      "v": 48
    },
    {
      "midi": 70,
      "hit": false,
      "t": 160424.69333333406,
      "d": 191.6839166666614,
      "v": 53
    },
    {
      "midi": 46,
      "hit": false,
      "t": 160719.59166666737,
      "d": 176.93900000001304,
      "v": 49
    },
    {
      "midi": 51,
      "hit": false,
      "t": 160719.59166666737,
      "d": 176.93900000001304,
      "v": 49
    },
    {
      "midi": 58,
      "hit": false,
      "t": 160719.59166666737,
      "d": 176.93900000001304,
      "v": 49
    },
    {
      "midi": 63,
      "hit": false,
      "t": 160719.59166666737,
      "d": 176.93900000001304,
      "v": 49
    },
    {
      "midi": 67,
      "hit": false,
      "t": 160719.59166666737,
      "d": 176.93900000001304,
      "v": 49
    },
    {
      "midi": 70,
      "hit": false,
      "t": 160719.59166666737,
      "d": 199.05637500001467,
      "v": 55
    },
    {
      "midi": 46,
      "hit": false,
      "t": 161014.49000000072,
      "d": 206.42883333333884,
      "v": 57
    },
    {
      "midi": 51,
      "hit": false,
      "t": 161014.49000000072,
      "d": 206.42883333333884,
      "v": 57
    },
    {
      "midi": 58,
      "hit": false,
      "t": 161014.49000000072,
      "d": 206.42883333333884,
      "v": 57
    },
    {
      "midi": 63,
      "hit": false,
      "t": 161014.49000000072,
      "d": 206.42883333333884,
      "v": 57
    },
    {
      "midi": 67,
      "hit": false,
      "t": 161014.49000000072,
      "d": 206.42883333333884,
      "v": 46
    },
    {
      "midi": 70,
      "hit": false,
      "t": 161014.49000000072,
      "d": 213.80129166666302,
      "v": 55
    },
    {
      "midi": 46,
      "hit": false,
      "t": 161309.38833333403,
      "d": 184.3114583333372,
      "v": 49
    },
    {
      "midi": 51,
      "hit": false,
      "t": 161309.38833333403,
      "d": 184.3114583333372,
      "v": 49
    },
    {
      "midi": 58,
      "hit": false,
      "t": 161309.38833333403,
      "d": 184.3114583333372,
      "v": 49
    },
    {
      "midi": 63,
      "hit": false,
      "t": 161309.38833333403,
      "d": 184.3114583333372,
      "v": 49
    },
    {
      "midi": 70,
      "hit": false,
      "t": 161309.38833333403,
      "d": 199.05637500001467,
      "v": 43
    },
    {
      "midi": 67,
      "hit": false,
      "t": 161309.38833333403,
      "d": 235.91866666669375,
      "v": 49
    },
    {
      "midi": 46,
      "hit": false,
      "t": 161604.2866666674,
      "d": 206.42883333333884,
      "v": 57
    },
    {
      "midi": 51,
      "hit": false,
      "t": 161604.2866666674,
      "d": 206.42883333333884,
      "v": 57
    },
    {
      "midi": 58,
      "hit": false,
      "t": 161604.2866666674,
      "d": 206.42883333333884,
      "v": 57
    },
    {
      "midi": 63,
      "hit": false,
      "t": 161604.2866666674,
      "d": 206.42883333333884,
      "v": 57
    },
    {
      "midi": 67,
      "hit": false,
      "t": 161604.2866666674,
      "d": 206.42883333333884,
      "v": 48
    },
    {
      "midi": 70,
      "hit": false,
      "t": 161604.2866666674,
      "d": 221.1737500000163,
      "v": 44
    },
    {
      "midi": 46,
      "hit": false,
      "t": 161899.18500000075,
      "d": 169.56654166665976,
      "v": 49
    },
    {
      "midi": 58,
      "hit": false,
      "t": 161899.18500000075,
      "d": 169.56654166665976,
      "v": 49
    },
    {
      "midi": 63,
      "hit": false,
      "t": 161899.18500000075,
      "d": 169.56654166665976,
      "v": 49
    },
    {
      "midi": 67,
      "hit": false,
      "t": 161899.18500000075,
      "d": 169.56654166665976,
      "v": 49
    },
    {
      "midi": 51,
      "hit": false,
      "t": 161899.18500000075,
      "d": 176.93899999998393,
      "v": 49
    },
    {
      "midi": 70,
      "hit": false,
      "t": 161899.18500000075,
      "d": 213.80129166666302,
      "v": 57
    },
    {
      "midi": 46,
      "hit": false,
      "t": 162194.08333333407,
      "d": 154.8216250000114,
      "v": 58
    },
    {
      "midi": 51,
      "hit": false,
      "t": 162194.08333333407,
      "d": 154.8216250000114,
      "v": 58
    },
    {
      "midi": 58,
      "hit": false,
      "t": 162194.08333333407,
      "d": 154.8216250000114,
      "v": 58
    },
    {
      "midi": 63,
      "hit": false,
      "t": 162194.08333333407,
      "d": 154.8216250000114,
      "v": 58
    },
    {
      "midi": 67,
      "hit": false,
      "t": 162194.08333333407,
      "d": 154.8216250000114,
      "v": 49
    },
    {
      "midi": 70,
      "hit": false,
      "t": 162194.08333333407,
      "d": 235.91866666666465,
      "v": 55
    },
    {
      "midi": 46,
      "hit": false,
      "t": 162488.98166666742,
      "d": 169.56654166665976,
      "v": 45
    },
    {
      "midi": 51,
      "hit": false,
      "t": 162488.98166666742,
      "d": 169.56654166665976,
      "v": 45
    },
    {
      "midi": 58,
      "hit": false,
      "t": 162488.98166666742,
      "d": 169.56654166665976,
      "v": 45
    },
    {
      "midi": 70,
      "hit": false,
      "t": 162488.98166666742,
      "d": 199.05637499998556,
      "v": 58
    },
    {
      "midi": 63,
      "hit": false,
      "t": 162488.98166666742,
      "d": 228.54620833331137,
      "v": 45
    },
    {
      "midi": 67,
      "hit": false,
      "t": 162488.98166666742,
      "d": 250.663583333313,
      "v": 45
    },
    {
      "midi": 46,
      "hit": false,
      "t": 162783.88000000073,
      "d": 213.80129166666302,
      "v": 52
    },
    {
      "midi": 51,
      "hit": false,
      "t": 162783.88000000073,
      "d": 213.80129166666302,
      "v": 52
    },
    {
      "midi": 58,
      "hit": false,
      "t": 162783.88000000073,
      "d": 213.80129166666302,
      "v": 52
    },
    {
      "midi": 63,
      "hit": false,
      "t": 162783.88000000073,
      "d": 213.80129166666302,
      "v": 52
    },
    {
      "midi": 67,
      "hit": false,
      "t": 162783.88000000073,
      "d": 213.80129166666302,
      "v": 41
    },
    {
      "midi": 70,
      "hit": false,
      "t": 162783.88000000073,
      "d": 258.0360416666663,
      "v": 52
    },
    {
      "midi": 46,
      "hit": false,
      "t": 163078.77833333408,
      "d": 162.19408333333558,
      "v": 47
    },
    {
      "midi": 51,
      "hit": false,
      "t": 163078.77833333408,
      "d": 162.19408333333558,
      "v": 47
    },
    {
      "midi": 58,
      "hit": false,
      "t": 163078.77833333408,
      "d": 162.19408333333558,
      "v": 47
    },
    {
      "midi": 63,
      "hit": false,
      "t": 163078.77833333408,
      "d": 162.19408333333558,
      "v": 47
    },
    {
      "midi": 67,
      "hit": false,
      "t": 163078.77833333408,
      "d": 162.19408333333558,
      "v": 47
    },
    {
      "midi": 70,
      "hit": false,
      "t": 163078.77833333408,
      "d": 258.0360416666663,
      "v": 54
    },
    {
      "midi": 46,
      "hit": false,
      "t": 163373.67666666742,
      "d": 199.05637499998556,
      "v": 55
    },
    {
      "midi": 51,
      "hit": false,
      "t": 163373.67666666742,
      "d": 199.05637499998556,
      "v": 55
    },
    {
      "midi": 58,
      "hit": false,
      "t": 163373.67666666742,
      "d": 199.05637499998556,
      "v": 55
    },
    {
      "midi": 63,
      "hit": false,
      "t": 163373.67666666742,
      "d": 199.05637499998556,
      "v": 55
    },
    {
      "midi": 67,
      "hit": false,
      "t": 163373.67666666742,
      "d": 199.05637499998556,
      "v": 44
    },
    {
      "midi": 70,
      "hit": false,
      "t": 163373.67666666742,
      "d": 258.0360416666663,
      "v": 54
    },
    {
      "midi": 46,
      "hit": false,
      "t": 163668.57500000077,
      "d": 176.93900000001304,
      "v": 46
    },
    {
      "midi": 51,
      "hit": false,
      "t": 163668.57500000077,
      "d": 176.93900000001304,
      "v": 46
    },
    {
      "midi": 58,
      "hit": false,
      "t": 163668.57500000077,
      "d": 176.93900000001304,
      "v": 46
    },
    {
      "midi": 63,
      "hit": false,
      "t": 163668.57500000077,
      "d": 176.93900000001304,
      "v": 46
    },
    {
      "midi": 67,
      "hit": false,
      "t": 163668.57500000077,
      "d": 176.93900000001304,
      "v": 46
    },
    {
      "midi": 70,
      "hit": false,
      "t": 163668.57500000077,
      "d": 258.0360416666663,
      "v": 54
    },
    {
      "midi": 46,
      "hit": false,
      "t": 163963.4733333341,
      "d": 147.44916666665813,
      "v": 48
    },
    {
      "midi": 51,
      "hit": false,
      "t": 163963.4733333341,
      "d": 147.44916666665813,
      "v": 48
    },
    {
      "midi": 58,
      "hit": false,
      "t": 163963.4733333341,
      "d": 147.44916666665813,
      "v": 48
    },
    {
      "midi": 63,
      "hit": false,
      "t": 163963.4733333341,
      "d": 147.44916666665813,
      "v": 48
    },
    {
      "midi": 67,
      "hit": false,
      "t": 163963.4733333341,
      "d": 147.44916666665813,
      "v": 48
    },
    {
      "midi": 70,
      "hit": false,
      "t": 163963.4733333341,
      "d": 191.6839166666614,
      "v": 53
    },
    {
      "midi": 46,
      "hit": false,
      "t": 164258.37166666743,
      "d": 176.93900000001304,
      "v": 49
    },
    {
      "midi": 51,
      "hit": false,
      "t": 164258.37166666743,
      "d": 176.93900000001304,
      "v": 49
    },
    {
      "midi": 58,
      "hit": false,
      "t": 164258.37166666743,
      "d": 176.93900000001304,
      "v": 49
    },
    {
      "midi": 63,
      "hit": false,
      "t": 164258.37166666743,
      "d": 176.93900000001304,
      "v": 49
    },
    {
      "midi": 67,
      "hit": false,
      "t": 164258.37166666743,
      "d": 176.93900000001304,
      "v": 49
    },
    {
      "midi": 70,
      "hit": false,
      "t": 164258.37166666743,
      "d": 199.05637500001467,
      "v": 55
    },
    {
      "midi": 46,
      "hit": false,
      "t": 164553.27000000078,
      "d": 206.42883333333884,
      "v": 57
    },
    {
      "midi": 51,
      "hit": false,
      "t": 164553.27000000078,
      "d": 206.42883333333884,
      "v": 57
    },
    {
      "midi": 58,
      "hit": false,
      "t": 164553.27000000078,
      "d": 206.42883333333884,
      "v": 57
    },
    {
      "midi": 63,
      "hit": false,
      "t": 164553.27000000078,
      "d": 206.42883333333884,
      "v": 57
    },
    {
      "midi": 67,
      "hit": false,
      "t": 164553.27000000078,
      "d": 206.42883333333884,
      "v": 46
    },
    {
      "midi": 70,
      "hit": false,
      "t": 164553.27000000078,
      "d": 213.80129166666302,
      "v": 55
    },
    {
      "midi": 46,
      "hit": false,
      "t": 164848.1683333341,
      "d": 184.3114583333372,
      "v": 49
    },
    {
      "midi": 51,
      "hit": false,
      "t": 164848.1683333341,
      "d": 184.3114583333372,
      "v": 49
    },
    {
      "midi": 58,
      "hit": false,
      "t": 164848.1683333341,
      "d": 184.3114583333372,
      "v": 49
    },
    {
      "midi": 63,
      "hit": false,
      "t": 164848.1683333341,
      "d": 184.3114583333372,
      "v": 49
    },
    {
      "midi": 70,
      "hit": false,
      "t": 164848.1683333341,
      "d": 199.05637500001467,
      "v": 43
    },
    {
      "midi": 67,
      "hit": false,
      "t": 164848.1683333341,
      "d": 235.91866666669375,
      "v": 49
    },
    {
      "midi": 46,
      "hit": false,
      "t": 165143.06666666747,
      "d": 206.42883333333884,
      "v": 57
    },
    {
      "midi": 51,
      "hit": false,
      "t": 165143.06666666747,
      "d": 206.42883333333884,
      "v": 57
    },
    {
      "midi": 58,
      "hit": false,
      "t": 165143.06666666747,
      "d": 206.42883333333884,
      "v": 57
    },
    {
      "midi": 63,
      "hit": false,
      "t": 165143.06666666747,
      "d": 206.42883333333884,
      "v": 57
    },
    {
      "midi": 67,
      "hit": false,
      "t": 165143.06666666747,
      "d": 206.42883333333884,
      "v": 48
    },
    {
      "midi": 70,
      "hit": false,
      "t": 165143.06666666747,
      "d": 221.1737500000163,
      "v": 44
    },
    {
      "midi": 46,
      "hit": false,
      "t": 165437.9650000008,
      "d": 169.56654166665976,
      "v": 49
    },
    {
      "midi": 58,
      "hit": false,
      "t": 165437.9650000008,
      "d": 169.56654166665976,
      "v": 49
    },
    {
      "midi": 63,
      "hit": false,
      "t": 165437.9650000008,
      "d": 169.56654166665976,
      "v": 49
    },
    {
      "midi": 67,
      "hit": false,
      "t": 165437.9650000008,
      "d": 169.56654166665976,
      "v": 49
    },
    {
      "midi": 51,
      "hit": false,
      "t": 165437.9650000008,
      "d": 176.93899999998393,
      "v": 49
    },
    {
      "midi": 70,
      "hit": false,
      "t": 165437.9650000008,
      "d": 213.80129166666302,
      "v": 57
    },
    {
      "midi": 46,
      "hit": false,
      "t": 165732.86333333413,
      "d": 154.8216250000114,
      "v": 58
    },
    {
      "midi": 51,
      "hit": false,
      "t": 165732.86333333413,
      "d": 154.8216250000114,
      "v": 58
    },
    {
      "midi": 58,
      "hit": false,
      "t": 165732.86333333413,
      "d": 154.8216250000114,
      "v": 58
    },
    {
      "midi": 63,
      "hit": false,
      "t": 165732.86333333413,
      "d": 154.8216250000114,
      "v": 58
    },
    {
      "midi": 67,
      "hit": false,
      "t": 165732.86333333413,
      "d": 154.8216250000114,
      "v": 49
    },
    {
      "midi": 70,
      "hit": false,
      "t": 165732.86333333413,
      "d": 235.91866666666465,
      "v": 55
    },
    {
      "midi": 46,
      "hit": false,
      "t": 166027.76166666747,
      "d": 169.56654166665976,
      "v": 45
    },
    {
      "midi": 51,
      "hit": false,
      "t": 166027.76166666747,
      "d": 169.56654166665976,
      "v": 45
    },
    {
      "midi": 58,
      "hit": false,
      "t": 166027.76166666747,
      "d": 169.56654166665976,
      "v": 45
    },
    {
      "midi": 70,
      "hit": false,
      "t": 166027.76166666747,
      "d": 199.05637499998556,
      "v": 58
    },
    {
      "midi": 63,
      "hit": false,
      "t": 166027.76166666747,
      "d": 228.54620833331137,
      "v": 45
    },
    {
      "midi": 67,
      "hit": false,
      "t": 166027.76166666747,
      "d": 250.663583333313,
      "v": 45
    },
    {
      "midi": 44,
      "hit": false,
      "t": 166322.6600000008,
      "d": 213.80129166666302,
      "v": 52
    },
    {
      "midi": 48,
      "hit": false,
      "t": 166322.6600000008,
      "d": 213.80129166666302,
      "v": 52
    },
    {
      "midi": 56,
      "hit": false,
      "t": 166322.6600000008,
      "d": 213.80129166666302,
      "v": 52
    },
    {
      "midi": 60,
      "hit": false,
      "t": 166322.6600000008,
      "d": 213.80129166666302,
      "v": 52
    },
    {
      "midi": 63,
      "hit": false,
      "t": 166322.6600000008,
      "d": 213.80129166666302,
      "v": 41
    },
    {
      "midi": 68,
      "hit": false,
      "t": 166322.6600000008,
      "d": 258.0360416666663,
      "v": 52
    },
    {
      "midi": 44,
      "hit": false,
      "t": 166617.55833333413,
      "d": 162.19408333333558,
      "v": 47
    },
    {
      "midi": 48,
      "hit": false,
      "t": 166617.55833333413,
      "d": 162.19408333333558,
      "v": 47
    },
    {
      "midi": 56,
      "hit": false,
      "t": 166617.55833333413,
      "d": 162.19408333333558,
      "v": 47
    },
    {
      "midi": 60,
      "hit": false,
      "t": 166617.55833333413,
      "d": 162.19408333333558,
      "v": 47
    },
    {
      "midi": 63,
      "hit": false,
      "t": 166617.55833333413,
      "d": 162.19408333333558,
      "v": 47
    },
    {
      "midi": 68,
      "hit": false,
      "t": 166617.55833333413,
      "d": 258.0360416666663,
      "v": 54
    },
    {
      "midi": 44,
      "hit": false,
      "t": 166912.45666666748,
      "d": 199.05637499998556,
      "v": 55
    },
    {
      "midi": 48,
      "hit": false,
      "t": 166912.45666666748,
      "d": 199.05637499998556,
      "v": 55
    },
    {
      "midi": 56,
      "hit": false,
      "t": 166912.45666666748,
      "d": 199.05637499998556,
      "v": 55
    },
    {
      "midi": 60,
      "hit": false,
      "t": 166912.45666666748,
      "d": 199.05637499998556,
      "v": 55
    },
    {
      "midi": 63,
      "hit": false,
      "t": 166912.45666666748,
      "d": 199.05637499998556,
      "v": 44
    },
    {
      "midi": 68,
      "hit": false,
      "t": 166912.45666666748,
      "d": 258.0360416666663,
      "v": 54
    },
    {
      "midi": 44,
      "hit": false,
      "t": 167207.35500000083,
      "d": 176.93900000001304,
      "v": 46
    },
    {
      "midi": 48,
      "hit": false,
      "t": 167207.35500000083,
      "d": 176.93900000001304,
      "v": 46
    },
    {
      "midi": 56,
      "hit": false,
      "t": 167207.35500000083,
      "d": 176.93900000001304,
      "v": 46
    },
    {
      "midi": 60,
      "hit": false,
      "t": 167207.35500000083,
      "d": 176.93900000001304,
      "v": 46
    },
    {
      "midi": 63,
      "hit": false,
      "t": 167207.35500000083,
      "d": 176.93900000001304,
      "v": 46
    },
    {
      "midi": 68,
      "hit": false,
      "t": 167207.35500000083,
      "d": 258.0360416666663,
      "v": 54
    },
    {
      "midi": 44,
      "hit": false,
      "t": 167502.25333333417,
      "d": 147.44916666665813,
      "v": 48
    },
    {
      "midi": 48,
      "hit": false,
      "t": 167502.25333333417,
      "d": 147.44916666665813,
      "v": 48
    },
    {
      "midi": 56,
      "hit": false,
      "t": 167502.25333333417,
      "d": 147.44916666665813,
      "v": 48
    },
    {
      "midi": 60,
      "hit": false,
      "t": 167502.25333333417,
      "d": 147.44916666665813,
      "v": 48
    },
    {
      "midi": 63,
      "hit": false,
      "t": 167502.25333333417,
      "d": 147.44916666665813,
      "v": 48
    },
    {
      "midi": 68,
      "hit": false,
      "t": 167502.25333333417,
      "d": 191.6839166666614,
      "v": 53
    },
    {
      "midi": 44,
      "hit": false,
      "t": 167797.1516666675,
      "d": 176.93900000001304,
      "v": 49
    },
    {
      "midi": 48,
      "hit": false,
      "t": 167797.1516666675,
      "d": 176.93900000001304,
      "v": 49
    },
    {
      "midi": 56,
      "hit": false,
      "t": 167797.1516666675,
      "d": 176.93900000001304,
      "v": 49
    },
    {
      "midi": 60,
      "hit": false,
      "t": 167797.1516666675,
      "d": 176.93900000001304,
      "v": 49
    },
    {
      "midi": 63,
      "hit": false,
      "t": 167797.1516666675,
      "d": 176.93900000001304,
      "v": 49
    },
    {
      "midi": 68,
      "hit": false,
      "t": 167797.1516666675,
      "d": 199.05637500001467,
      "v": 55
    },
    {
      "midi": 44,
      "hit": false,
      "t": 168092.05000000083,
      "d": 206.42883333333884,
      "v": 57
    },
    {
      "midi": 48,
      "hit": false,
      "t": 168092.05000000083,
      "d": 206.42883333333884,
      "v": 57
    },
    {
      "midi": 56,
      "hit": false,
      "t": 168092.05000000083,
      "d": 206.42883333333884,
      "v": 57
    },
    {
      "midi": 60,
      "hit": false,
      "t": 168092.05000000083,
      "d": 206.42883333333884,
      "v": 57
    },
    {
      "midi": 63,
      "hit": false,
      "t": 168092.05000000083,
      "d": 206.42883333333884,
      "v": 46
    },
    {
      "midi": 68,
      "hit": false,
      "t": 168092.05000000083,
      "d": 213.80129166666302,
      "v": 55
    },
    {
      "midi": 44,
      "hit": false,
      "t": 168386.94833333415,
      "d": 184.3114583333372,
      "v": 49
    },
    {
      "midi": 48,
      "hit": false,
      "t": 168386.94833333415,
      "d": 184.3114583333372,
      "v": 49
    },
    {
      "midi": 56,
      "hit": false,
      "t": 168386.94833333415,
      "d": 184.3114583333372,
      "v": 49
    },
    {
      "midi": 60,
      "hit": false,
      "t": 168386.94833333415,
      "d": 184.3114583333372,
      "v": 49
    },
    {
      "midi": 68,
      "hit": false,
      "t": 168386.94833333415,
      "d": 199.05637500001467,
      "v": 43
    },
    {
      "midi": 63,
      "hit": false,
      "t": 168386.94833333415,
      "d": 235.91866666669375,
      "v": 49
    },
    {
      "midi": 44,
      "hit": false,
      "t": 168681.84666666752,
      "d": 206.42883333333884,
      "v": 57
    },
    {
      "midi": 48,
      "hit": false,
      "t": 168681.84666666752,
      "d": 206.42883333333884,
      "v": 57
    },
    {
      "midi": 56,
      "hit": false,
      "t": 168681.84666666752,
      "d": 206.42883333333884,
      "v": 57
    },
    {
      "midi": 60,
      "hit": false,
      "t": 168681.84666666752,
      "d": 206.42883333333884,
      "v": 57
    },
    {
      "midi": 63,
      "hit": false,
      "t": 168681.84666666752,
      "d": 206.42883333333884,
      "v": 48
    },
    {
      "midi": 68,
      "hit": false,
      "t": 168681.84666666752,
      "d": 221.1737500000163,
      "v": 44
    },
    {
      "midi": 44,
      "hit": false,
      "t": 168976.74500000087,
      "d": 169.56654166665976,
      "v": 49
    },
    {
      "midi": 56,
      "hit": false,
      "t": 168976.74500000087,
      "d": 169.56654166665976,
      "v": 49
    },
    {
      "midi": 60,
      "hit": false,
      "t": 168976.74500000087,
      "d": 169.56654166665976,
      "v": 49
    },
    {
      "midi": 63,
      "hit": false,
      "t": 168976.74500000087,
      "d": 169.56654166665976,
      "v": 49
    },
    {
      "midi": 48,
      "hit": false,
      "t": 168976.74500000087,
      "d": 176.93899999998393,
      "v": 49
    },
    {
      "midi": 68,
      "hit": false,
      "t": 168976.74500000087,
      "d": 213.80129166666302,
      "v": 57
    },
    {
      "midi": 44,
      "hit": false,
      "t": 169271.64333333418,
      "d": 154.8216250000114,
      "v": 58
    },
    {
      "midi": 48,
      "hit": false,
      "t": 169271.64333333418,
      "d": 154.8216250000114,
      "v": 58
    },
    {
      "midi": 56,
      "hit": false,
      "t": 169271.64333333418,
      "d": 154.8216250000114,
      "v": 58
    },
    {
      "midi": 60,
      "hit": false,
      "t": 169271.64333333418,
      "d": 154.8216250000114,
      "v": 58
    },
    {
      "midi": 63,
      "hit": false,
      "t": 169271.64333333418,
      "d": 154.8216250000114,
      "v": 49
    },
    {
      "midi": 68,
      "hit": false,
      "t": 169271.64333333418,
      "d": 235.91866666666465,
      "v": 55
    },
    {
      "midi": 44,
      "hit": false,
      "t": 169566.54166666753,
      "d": 169.56654166665976,
      "v": 45
    },
    {
      "midi": 48,
      "hit": false,
      "t": 169566.54166666753,
      "d": 169.56654166665976,
      "v": 45
    },
    {
      "midi": 56,
      "hit": false,
      "t": 169566.54166666753,
      "d": 169.56654166665976,
      "v": 45
    },
    {
      "midi": 68,
      "hit": false,
      "t": 169566.54166666753,
      "d": 199.05637499998556,
      "v": 58
    },
    {
      "midi": 60,
      "hit": false,
      "t": 169566.54166666753,
      "d": 228.54620833331137,
      "v": 45
    },
    {
      "midi": 63,
      "hit": false,
      "t": 169566.54166666753,
      "d": 250.663583333313,
      "v": 45
    },
    {
      "midi": 50,
      "hit": false,
      "t": 169861.44000000085,
      "d": 3302.861333333334,
      "v": 52
    },
    {
      "midi": 46,
      "hit": false,
      "t": 169861.44000000085,
      "d": 3324.978708333336,
      "v": 52
    },
    {
      "midi": 58,
      "hit": false,
      "t": 169861.44000000085,
      "d": 3324.978708333336,
      "v": 52
    },
    {
      "midi": 70,
      "hit": false,
      "t": 169861.44000000085,
      "d": 3347.0960833333374,
      "v": 52
    },
    {
      "midi": 62,
      "hit": false,
      "t": 169861.44000000085,
      "d": 3369.213458333339,
      "v": 52
    },
    {
      "midi": 65,
      "hit": false,
      "t": 169861.44000000085,
      "d": 3369.213458333339,
      "v": 41
    },
    {
      "midi": 46,
      "hit": false,
      "t": 173400.22000000085,
      "d": 176.93900000001304,
      "v": 46
    },
    {
      "midi": 51,
      "hit": false,
      "t": 173400.22000000085,
      "d": 176.93900000001304,
      "v": 46
    },
    {
      "midi": 55,
      "hit": false,
      "t": 173400.22000000085,
      "d": 176.93900000001304,
      "v": 46
    },
    {
      "midi": 58,
      "hit": false,
      "t": 173400.22000000085,
      "d": 176.93900000001304,
      "v": 46
    },
    {
      "midi": 63,
      "hit": false,
      "t": 173400.22000000085,
      "d": 176.93900000001304,
      "v": 46
    },
    {
      "midi": 67,
      "hit": false,
      "t": 173400.22000000085,
      "d": 199.05637500001467,
      "v": 57
    },
    {
      "midi": 70,
      "hit": false,
      "t": 173400.22000000085,
      "d": 258.0360416666954,
      "v": 54
    },
    {
      "midi": 46,
      "hit": false,
      "t": 173695.11833333422,
      "d": 147.44916666665813,
      "v": 48
    },
    {
      "midi": 51,
      "hit": false,
      "t": 173695.11833333422,
      "d": 147.44916666665813,
      "v": 48
    },
    {
      "midi": 55,
      "hit": false,
      "t": 173695.11833333422,
      "d": 147.44916666665813,
      "v": 48
    },
    {
      "midi": 58,
      "hit": false,
      "t": 173695.11833333422,
      "d": 147.44916666665813,
      "v": 48
    },
    {
      "midi": 63,
      "hit": false,
      "t": 173695.11833333422,
      "d": 147.44916666665813,
      "v": 48
    },
    {
      "midi": 70,
      "hit": false,
      "t": 173695.11833333422,
      "d": 191.6839166666614,
      "v": 53
    },
    {
      "midi": 67,
      "hit": false,
      "t": 173695.11833333422,
      "d": 213.80129166666302,
      "v": 48
    },
    {
      "midi": 67,
      "hit": false,
      "t": 173990.01666666754,
      "d": 154.8216250000114,
      "v": 47
    },
    {
      "midi": 46,
      "hit": false,
      "t": 173990.01666666754,
      "d": 176.93900000001304,
      "v": 49
    },
    {
      "midi": 51,
      "hit": false,
      "t": 173990.01666666754,
      "d": 176.93900000001304,
      "v": 49
    },
    {
      "midi": 55,
      "hit": false,
      "t": 173990.01666666754,
      "d": 176.93900000001304,
      "v": 49
    },
    {
      "midi": 58,
      "hit": false,
      "t": 173990.01666666754,
      "d": 176.93900000001304,
      "v": 49
    },
    {
      "midi": 63,
      "hit": false,
      "t": 173990.01666666754,
      "d": 176.93900000001304,
      "v": 49
    },
    {
      "midi": 70,
      "hit": false,
      "t": 173990.01666666754,
      "d": 199.05637500001467,
      "v": 55
    },
    {
      "midi": 46,
      "hit": false,
      "t": 174284.91500000088,
      "d": 176.93900000001304,
      "v": 46
    },
    {
      "midi": 51,
      "hit": false,
      "t": 174284.91500000088,
      "d": 176.93900000001304,
      "v": 46
    },
    {
      "midi": 55,
      "hit": false,
      "t": 174284.91500000088,
      "d": 176.93900000001304,
      "v": 46
    },
    {
      "midi": 58,
      "hit": false,
      "t": 174284.91500000088,
      "d": 176.93900000001304,
      "v": 46
    },
    {
      "midi": 63,
      "hit": false,
      "t": 174284.91500000088,
      "d": 176.93900000001304,
      "v": 46
    },
    {
      "midi": 67,
      "hit": false,
      "t": 174284.91500000088,
      "d": 199.05637500001467,
      "v": 57
    },
    {
      "midi": 70,
      "hit": false,
      "t": 174284.91500000088,
      "d": 258.0360416666954,
      "v": 54
    },
    {
      "midi": 46,
      "hit": false,
      "t": 174579.81333333426,
      "d": 147.44916666665813,
      "v": 48
    },
    {
      "midi": 51,
      "hit": false,
      "t": 174579.81333333426,
      "d": 147.44916666665813,
      "v": 48
    },
    {
      "midi": 55,
      "hit": false,
      "t": 174579.81333333426,
      "d": 147.44916666665813,
      "v": 48
    },
    {
      "midi": 58,
      "hit": false,
      "t": 174579.81333333426,
      "d": 147.44916666665813,
      "v": 48
    },
    {
      "midi": 63,
      "hit": false,
      "t": 174579.81333333426,
      "d": 147.44916666665813,
      "v": 48
    },
    {
      "midi": 70,
      "hit": false,
      "t": 174579.81333333426,
      "d": 191.6839166666614,
      "v": 53
    },
    {
      "midi": 67,
      "hit": false,
      "t": 174579.81333333426,
      "d": 213.80129166666302,
      "v": 48
    },
    {
      "midi": 67,
      "hit": false,
      "t": 174874.71166666757,
      "d": 154.8216250000114,
      "v": 47
    },
    {
      "midi": 46,
      "hit": false,
      "t": 174874.71166666757,
      "d": 176.93900000001304,
      "v": 49
    },
    {
      "midi": 51,
      "hit": false,
      "t": 174874.71166666757,
      "d": 176.93900000001304,
      "v": 49
    },
    {
      "midi": 55,
      "hit": false,
      "t": 174874.71166666757,
      "d": 176.93900000001304,
      "v": 49
    },
    {
      "midi": 58,
      "hit": false,
      "t": 174874.71166666757,
      "d": 176.93900000001304,
      "v": 49
    },
    {
      "midi": 63,
      "hit": false,
      "t": 174874.71166666757,
      "d": 176.93900000001304,
      "v": 49
    },
    {
      "midi": 70,
      "hit": false,
      "t": 174874.71166666757,
      "d": 199.05637500001467,
      "v": 55
    },
    {
      "midi": 68,
      "hit": false,
      "t": 175169.61000000092,
      "d": 383.3678333333228,
      "v": 63
    },
    {
      "midi": 48,
      "hit": false,
      "t": 175169.61000000092,
      "d": 405.4852083333244,
      "v": 57
    },
    {
      "midi": 51,
      "hit": false,
      "t": 175169.61000000092,
      "d": 405.4852083333244,
      "v": 57
    },
    {
      "midi": 56,
      "hit": false,
      "t": 175169.61000000092,
      "d": 405.4852083333244,
      "v": 57
    },
    {
      "midi": 60,
      "hit": false,
      "t": 175169.61000000092,
      "d": 405.4852083333244,
      "v": 57
    },
    {
      "midi": 63,
      "hit": false,
      "t": 175169.61000000092,
      "d": 405.4852083333244,
      "v": 46
    },
    {
      "midi": 72,
      "hit": false,
      "t": 175169.61000000092,
      "d": 420.23012500000186,
      "v": 55
    },
    {
      "midi": 48,
      "hit": false,
      "t": 175759.40666666758,
      "d": 449.71995833332767,
      "v": 57
    },
    {
      "midi": 51,
      "hit": false,
      "t": 175759.40666666758,
      "d": 449.71995833332767,
      "v": 57
    },
    {
      "midi": 56,
      "hit": false,
      "t": 175759.40666666758,
      "d": 449.71995833332767,
      "v": 57
    },
    {
      "midi": 60,
      "hit": false,
      "t": 175759.40666666758,
      "d": 449.71995833332767,
      "v": 57
    },
    {
      "midi": 63,
      "hit": false,
      "t": 175759.40666666758,
      "d": 449.71995833332767,
      "v": 48
    },
    {
      "midi": 68,
      "hit": false,
      "t": 175759.40666666758,
      "d": 457.09241666665184,
      "v": 54
    },
    {
      "midi": 72,
      "hit": false,
      "t": 175759.40666666758,
      "d": 471.8373333333293,
      "v": 44
    },
    {
      "midi": 63,
      "hit": false,
      "t": 176349.20333333424,
      "d": 442.3475000000035,
      "v": 49
    },
    {
      "midi": 68,
      "hit": false,
      "t": 176349.20333333424,
      "d": 442.3475000000035,
      "v": 63
    },
    {
      "midi": 48,
      "hit": false,
      "t": 176349.20333333424,
      "d": 486.58225000000675,
      "v": 58
    },
    {
      "midi": 51,
      "hit": false,
      "t": 176349.20333333424,
      "d": 486.58225000000675,
      "v": 58
    },
    {
      "midi": 60,
      "hit": false,
      "t": 176349.20333333424,
      "d": 486.58225000000675,
      "v": 58
    },
    {
      "midi": 56,
      "hit": false,
      "t": 176349.20333333424,
      "d": 508.6996250000084,
      "v": 58
    },
    {
      "midi": 72,
      "hit": false,
      "t": 176349.20333333424,
      "d": 508.6996250000084,
      "v": 55
    },
    {
      "midi": 51,
      "hit": false,
      "t": 176939.0000000009,
      "d": 5293.425083333335,
      "v": 52
    },
    {
      "midi": 46,
      "hit": false,
      "t": 176939.0000000009,
      "d": 5315.542458333337,
      "v": 52
    },
    {
      "midi": 58,
      "hit": false,
      "t": 176939.0000000009,
      "d": 5337.659833333339,
      "v": 52
    },
    {
      "midi": 63,
      "hit": false,
      "t": 176939.0000000009,
      "d": 5337.659833333339,
      "v": 52
    },
    {
      "midi": 67,
      "hit": false,
      "t": 176939.0000000009,
      "d": 5359.77720833334,
      "v": 41
    },
    {
      "midi": 70,
      "hit": false,
      "t": 176939.0000000009,
      "d": 5359.77720833334,
      "v": 52
    }
  ]
}