{
  "jsonPath": "Rock/Country Rock/Randy Travis/i-told-you-so-album-version.json",
  "path": "Rock\\Country Rock\\Randy Travis\\I Told You So (Album Version).mid",
  "name": "I Told You So (Album Version)",
  "difficulty": "Advanced",
  "bpm": 77.000077000077,
  "notes": [
    {
      "midi": 59,
      "hit": false,
      "t": 9350.64,
      "d": 592.5318750000006,
      "v": 86
    },
    {
      "midi": 57,
      "hit": false,
      "t": 9350.64,
      "d": 600.6487500000003,
      "v": 84
    },
    {
      "midi": 61,
      "hit": false,
      "t": 9350.64,
      "d": 693.181125000001,
      "v": 82
    },
    {
      "midi": 64,
      "hit": false,
      "t": 9350.64,
      "d": 1038.960000000001,
      "v": 92
    },
    {
      "midi": 33,
      "hit": false,
      "t": 9350.64,
      "d": 1910.712375000001,
      "v": 103
    },
    {
      "midi": 45,
      "hit": false,
      "t": 9740.25,
      "d": 1720.7775000000001,
      "v": 86
    },
    {
      "midi": 57,
      "hit": false,
      "t": 10129.86,
      "d": 717.5317500000001,
      "v": 90
    },
    {
      "midi": 64,
      "hit": false,
      "t": 10519.470000000001,
      "d": 254.86987500000032,
      "v": 75
    },
    {
      "midi": 59,
      "hit": false,
      "t": 10519.470000000001,
      "d": 1558.4399999999969,
      "v": 71
    },
    {
      "midi": 57,
      "hit": false,
      "t": 10909.08,
      "d": 1163.9598749999986,
      "v": 82
    },
    {
      "midi": 61,
      "hit": false,
      "t": 10909.08,
      "d": 1188.3104999999978,
      "v": 82
    },
    {
      "midi": 64,
      "hit": false,
      "t": 10909.08,
      "d": 1228.8948749999981,
      "v": 92
    },
    {
      "midi": 33,
      "hit": false,
      "t": 11688.3,
      "d": 620.1292499999981,
      "v": 96
    },
    {
      "midi": 45,
      "hit": false,
      "t": 12077.909999999998,
      "d": 409.0904999999984,
      "v": 71
    },
    {
      "midi": 54,
      "hit": false,
      "t": 12467.519999999997,
      "d": 660.7136250000003,
      "v": 82
    },
    {
      "midi": 59,
      "hit": false,
      "t": 12467.519999999997,
      "d": 758.1161250000005,
      "v": 86
    },
    {
      "midi": 62,
      "hit": false,
      "t": 12467.519999999997,
      "d": 1115.2586250000004,
      "v": 98
    },
    {
      "midi": 33,
      "hit": false,
      "t": 12467.519999999997,
      "d": 1436.6868750000012,
      "v": 103
    },
    {
      "midi": 45,
      "hit": false,
      "t": 12857.129999999997,
      "d": 2118.5043749999986,
      "v": 75
    },
    {
      "midi": 54,
      "hit": false,
      "t": 13246.739999999998,
      "d": 357.1424999999999,
      "v": 80
    },
    {
      "midi": 54,
      "hit": false,
      "t": 13636.349999999999,
      "d": 162.33749999999964,
      "v": 46
    },
    {
      "midi": 59,
      "hit": false,
      "t": 13636.349999999999,
      "d": 1115.2586249999986,
      "v": 86
    },
    {
      "midi": 54,
      "hit": false,
      "t": 14025.959999999997,
      "d": 717.5317500000001,
      "v": 96
    },
    {
      "midi": 33,
      "hit": false,
      "t": 14025.959999999997,
      "d": 1423.6998749999984,
      "v": 98
    },
    {
      "midi": 62,
      "hit": false,
      "t": 14025.959999999997,
      "d": 1477.271249999998,
      "v": 103
    },
    {
      "midi": 59,
      "hit": false,
      "t": 14805.179999999997,
      "d": 668.8304999999982,
      "v": 92
    },
    {
      "midi": 45,
      "hit": false,
      "t": 15194.789999999995,
      "d": 308.44124999999985,
      "v": 80
    },
    {
      "midi": 54,
      "hit": false,
      "t": 15389.594999999996,
      "d": 188.3114999999998,
      "v": 80
    },
    {
      "midi": 59,
      "hit": false,
      "t": 15584.399999999996,
      "d": 271.10362499999974,
      "v": 92
    },
    {
      "midi": 62,
      "hit": false,
      "t": 15584.399999999996,
      "d": 470.7787500000013,
      "v": 98
    },
    {
      "midi": 66,
      "hit": false,
      "t": 15584.399999999996,
      "d": 685.0642500000013,
      "v": 88
    },
    {
      "midi": 47,
      "hit": false,
      "t": 15584.399999999996,
      "d": 1331.167500000005,
      "v": 109
    },
    {
      "midi": 59,
      "hit": false,
      "t": 15974.009999999997,
      "d": 308.44124999999985,
      "v": 94
    },
    {
      "midi": 62,
      "hit": false,
      "t": 16363.619999999997,
      "d": 56.81812499999978,
      "v": 94
    },
    {
      "midi": 59,
      "hit": false,
      "t": 16363.619999999997,
      "d": 227.27250000000095,
      "v": 106
    },
    {
      "midi": 66,
      "hit": false,
      "t": 16363.619999999997,
      "d": 1396.1025000000027,
      "v": 103
    },
    {
      "midi": 59,
      "hit": false,
      "t": 16753.23,
      "d": 563.3111250000002,
      "v": 103
    },
    {
      "midi": 47,
      "hit": false,
      "t": 17142.84,
      "d": 904.2198749999989,
      "v": 103
    },
    {
      "midi": 59,
      "hit": false,
      "t": 17532.45,
      "d": 319.804874999998,
      "v": 73
    },
    {
      "midi": 59,
      "hit": false,
      "t": 17922.059999999998,
      "d": 430.1943749999991,
      "v": 92
    },
    {
      "midi": 62,
      "hit": false,
      "t": 17922.059999999998,
      "d": 612.0123750000021,
      "v": 94
    },
    {
      "midi": 66,
      "hit": false,
      "t": 17922.059999999998,
      "d": 636.3630000000012,
      "v": 84
    },
    {
      "midi": 47,
      "hit": false,
      "t": 18311.67,
      "d": 349.02562500000204,
      "v": 100
    },
    {
      "midi": 59,
      "hit": false,
      "t": 18506.475,
      "d": 188.31150000000343,
      "v": 82
    },
    {
      "midi": 57,
      "hit": false,
      "t": 18701.280000000002,
      "d": 352.27237500000047,
      "v": 106
    },
    {
      "midi": 62,
      "hit": false,
      "t": 18701.280000000002,
      "d": 733.7655000000013,
      "v": 103
    },
    {
      "midi": 66,
      "hit": false,
      "t": 18701.280000000002,
      "d": 746.7525000000023,
      "v": 96
    },
    {
      "midi": 40,
      "hit": false,
      "t": 18701.280000000002,
      "d": 1058.4405000000006,
      "v": 103
    },
    {
      "midi": 57,
      "hit": false,
      "t": 19090.890000000003,
      "d": 275.973750000001,
      "v": 76
    },
    {
      "midi": 57,
      "hit": false,
      "t": 19480.500000000004,
      "d": 624.9993749999994,
      "v": 96
    },
    {
      "midi": 66,
      "hit": false,
      "t": 19480.500000000004,
      "d": 641.2331249999988,
      "v": 92
    },
    {
      "midi": 62,
      "hit": false,
      "t": 19480.500000000004,
      "d": 649.3499999999985,
      "v": 98
    },
    {
      "midi": 40,
      "hit": false,
      "t": 19870.110000000004,
      "d": 292.2074999999968,
      "v": 92
    },
    {
      "midi": 40,
      "hit": false,
      "t": 20259.72,
      "d": 319.80487500000163,
      "v": 98
    },
    {
      "midi": 57,
      "hit": false,
      "t": 20259.72,
      "d": 592.5318750000006,
      "v": 94
    },
    {
      "midi": 66,
      "hit": false,
      "t": 20259.72,
      "d": 624.9993749999994,
      "v": 90
    },
    {
      "midi": 62,
      "hit": false,
      "t": 20259.72,
      "d": 628.2461249999978,
      "v": 94
    },
    {
      "midi": 40,
      "hit": false,
      "t": 20649.33,
      "d": 246.75299999999697,
      "v": 90
    },
    {
      "midi": 64,
      "hit": false,
      "t": 21038.94,
      "d": 673.7006250000013,
      "v": 106
    },
    {
      "midi": 56,
      "hit": false,
      "t": 21038.94,
      "d": 681.817500000001,
      "v": 98
    },
    {
      "midi": 40,
      "hit": false,
      "t": 21038.94,
      "d": 701.2980000000025,
      "v": 103
    },
    {
      "midi": 59,
      "hit": false,
      "t": 21818.16,
      "d": 592.5318750000006,
      "v": 86
    },
    {
      "midi": 57,
      "hit": false,
      "t": 21818.16,
      "d": 600.6487500000003,
      "v": 84
    },
    {
      "midi": 61,
      "hit": false,
      "t": 21818.16,
      "d": 693.1811249999992,
      "v": 82
    },
    {
      "midi": 64,
      "hit": false,
      "t": 21818.16,
      "d": 1038.9599999999991,
      "v": 92
    },
    {
      "midi": 33,
      "hit": false,
      "t": 21818.16,
      "d": 1910.7123749999992,
      "v": 103
    },
    {
      "midi": 45,
      "hit": false,
      "t": 22207.77,
      "d": 1720.7775000000001,
      "v": 86
    },
    {
      "midi": 57,
      "hit": false,
      "t": 22597.379999999997,
      "d": 717.5317500000019,
      "v": 90
    },
    {
      "midi": 64,
      "hit": false,
      "t": 22986.989999999998,
      "d": 254.86987500000032,
      "v": 75
    },
    {
      "midi": 59,
      "hit": false,
      "t": 22986.989999999998,
      "d": 1558.4400000000023,
      "v": 71
    },
    {
      "midi": 57,
      "hit": false,
      "t": 23376.6,
      "d": 1163.9598750000005,
      "v": 82
    },
    {
      "midi": 61,
      "hit": false,
      "t": 23376.6,
      "d": 1188.3105000000032,
      "v": 82
    },
    {
      "midi": 64,
      "hit": false,
      "t": 23376.6,
      "d": 1228.8948750000018,
      "v": 92
    },
    {
      "midi": 33,
      "hit": false,
      "t": 24155.82,
      "d": 620.1292500000018,
      "v": 96
    },
    {
      "midi": 45,
      "hit": false,
      "t": 24545.43,
      "d": 383.1165000000001,
      "v": 71
    },
    {
      "midi": 54,
      "hit": false,
      "t": 24935.04,
      "d": 660.7136250000003,
      "v": 82
    },
    {
      "midi": 59,
      "hit": false,
      "t": 24935.04,
      "d": 758.1161250000005,
      "v": 86
    },
    {
      "midi": 62,
      "hit": false,
      "t": 24935.04,
      "d": 1115.2586250000022,
      "v": 98
    },
    {
      "midi": 33,
      "hit": false,
      "t": 24935.04,
      "d": 1436.686875000003,
      "v": 103
    },
    {
      "midi": 45,
      "hit": false,
      "t": 25324.65,
      "d": 2118.5043750000004,
      "v": 75
    },
    {
      "midi": 54,
      "hit": false,
      "t": 25714.260000000002,
      "d": 551.947500000002,
      "v": 80
    },
    {
      "midi": 59,
      "hit": false,
      "t": 26103.870000000003,
      "d": 1115.2586249999986,
      "v": 86
    },
    {
      "midi": 54,
      "hit": false,
      "t": 26493.480000000003,
      "d": 717.5317499999983,
      "v": 96
    },
    {
      "midi": 33,
      "hit": false,
      "t": 26493.480000000003,
      "d": 1423.6998749999984,
      "v": 98
    },
    {
      "midi": 62,
      "hit": false,
      "t": 26493.480000000003,
      "d": 1477.271249999998,
      "v": 103
    },
    {
      "midi": 59,
      "hit": false,
      "t": 27272.7,
      "d": 668.8305,
      "v": 92
    },
    {
      "midi": 45,
      "hit": false,
      "t": 27662.31,
      "d": 308.44124999999985,
      "v": 80
    },
    {
      "midi": 54,
      "hit": false,
      "t": 27857.115,
      "d": 188.3114999999998,
      "v": 80
    },
    {
      "midi": 59,
      "hit": false,
      "t": 28051.920000000002,
      "d": 271.10362499999974,
      "v": 92
    },
    {
      "midi": 62,
      "hit": false,
      "t": 28051.920000000002,
      "d": 470.7787500000013,
      "v": 98
    },
    {
      "midi": 66,
      "hit": false,
      "t": 28051.920000000002,
      "d": 685.0642500000031,
      "v": 88
    },
    {
      "midi": 47,
      "hit": false,
      "t": 28051.920000000002,
      "d": 1331.1675000000105,
      "v": 109
    },
    {
      "midi": 59,
      "hit": false,
      "t": 28441.530000000002,
      "d": 308.4412500000035,
      "v": 94
    },
    {
      "midi": 62,
      "hit": false,
      "t": 28831.140000000007,
      "d": 56.8181250000016,
      "v": 94
    },
    {
      "midi": 59,
      "hit": false,
      "t": 28831.140000000007,
      "d": 227.27250000000276,
      "v": 106
    },
    {
      "midi": 66,
      "hit": false,
      "t": 28831.140000000007,
      "d": 1396.1025000000045,
      "v": 103
    },
    {
      "midi": 59,
      "hit": false,
      "t": 29220.75000000001,
      "d": 563.3111250000002,
      "v": 103
    },
    {
      "midi": 47,
      "hit": false,
      "t": 29610.36000000001,
      "d": 904.2198749999989,
      "v": 103
    },
    {
      "midi": 59,
      "hit": false,
      "t": 29999.970000000012,
      "d": 319.804874999998,
      "v": 73
    },
    {
      "midi": 59,
      "hit": false,
      "t": 30389.58000000001,
      "d": 430.1943749999991,
      "v": 92
    },
    {
      "midi": 62,
      "hit": false,
      "t": 30389.58000000001,
      "d": 612.0123750000021,
      "v": 94
    },
    {
      "midi": 66,
      "hit": false,
      "t": 30389.58000000001,
      "d": 636.3630000000012,
      "v": 84
    },
    {
      "midi": 47,
      "hit": false,
      "t": 30779.19000000001,
      "d": 349.02562500000204,
      "v": 100
    },
    {
      "midi": 59,
      "hit": false,
      "t": 30973.99500000001,
      "d": 188.31150000000343,
      "v": 82
    },
    {
      "midi": 57,
      "hit": false,
      "t": 31168.800000000014,
      "d": 478.895625000001,
      "v": 109
    },
    {
      "midi": 66,
      "hit": false,
      "t": 31168.800000000014,
      "d": 1095.7781250000007,
      "v": 103
    },
    {
      "midi": 40,
      "hit": false,
      "t": 31168.800000000014,
      "d": 1099.0248749999992,
      "v": 109
    },
    {
      "midi": 57,
      "hit": false,
      "t": 31753.215000000015,
      "d": 490.25924999999916,
      "v": 78
    },
    {
      "midi": 62,
      "hit": false,
      "t": 31948.020000000015,
      "d": 324.6749999999993,
      "v": 92
    },
    {
      "midi": 62,
      "hit": false,
      "t": 32337.630000000016,
      "d": 1813.3098750000026,
      "v": 98
    },
    {
      "midi": 66,
      "hit": false,
      "t": 32337.630000000016,
      "d": 1826.2968750000036,
      "v": 90
    },
    {
      "midi": 40,
      "hit": false,
      "t": 32337.630000000016,
      "d": 1837.6605000000018,
      "v": 109
    },
    {
      "midi": 57,
      "hit": false,
      "t": 32337.630000000016,
      "d": 1874.998125000002,
      "v": 94
    },
    {
      "midi": 59,
      "hit": false,
      "t": 34285.680000000015,
      "d": 1225.6481249999997,
      "v": 82
    },
    {
      "midi": 40,
      "hit": false,
      "t": 34285.680000000015,
      "d": 1233.7649999999994,
      "v": 98
    },
    {
      "midi": 56,
      "hit": false,
      "t": 34285.680000000015,
      "d": 1245.1286249999976,
      "v": 94
    },
    {
      "midi": 52,
      "hit": false,
      "t": 35844.12000000001,
      "d": 522.7267500000016,
      "v": 80
    },
    {
      "midi": 57,
      "hit": false,
      "t": 35844.12000000001,
      "d": 722.4018750000032,
      "v": 90
    },
    {
      "midi": 62,
      "hit": false,
      "t": 35844.12000000001,
      "d": 1022.7262499999997,
      "v": 92
    },
    {
      "midi": 33,
      "hit": false,
      "t": 35844.12000000001,
      "d": 1813.3098749999917,
      "v": 90
    },
    {
      "midi": 45,
      "hit": false,
      "t": 36233.73000000001,
      "d": 1586.0373749999853,
      "v": 84
    },
    {
      "midi": 52,
      "hit": false,
      "t": 36623.34000000001,
      "d": 275.9737499999974,
      "v": 90
    },
    {
      "midi": 57,
      "hit": false,
      "t": 36623.34000000001,
      "d": 303.57112499999494,
      "v": 62
    },
    {
      "midi": 57,
      "hit": false,
      "t": 37012.950000000004,
      "d": 303.5711250000022,
      "v": 73
    },
    {
      "midi": 52,
      "hit": false,
      "t": 37012.950000000004,
      "d": 308.4412500000035,
      "v": 78
    },
    {
      "midi": 61,
      "hit": false,
      "t": 37012.950000000004,
      "d": 327.92175000000134,
      "v": 75
    },
    {
      "midi": 52,
      "hit": false,
      "t": 37402.560000000005,
      "d": 803.570624999993,
      "v": 98
    },
    {
      "midi": 57,
      "hit": false,
      "t": 37402.560000000005,
      "d": 952.9211249999935,
      "v": 103
    },
    {
      "midi": 61,
      "hit": false,
      "t": 37402.560000000005,
      "d": 1444.8037499999919,
      "v": 103
    },
    {
      "midi": 33,
      "hit": false,
      "t": 37792.17,
      "d": 1042.2067499999976,
      "v": 92
    },
    {
      "midi": 45,
      "hit": false,
      "t": 38181.78,
      "d": 706.1681249999965,
      "v": 82
    },
    {
      "midi": 57,
      "hit": false,
      "t": 38571.39,
      "d": 284.0906249999971,
      "v": 88
    },
    {
      "midi": 57,
      "hit": false,
      "t": 38960.99999999999,
      "d": 422.0774999999994,
      "v": 103
    },
    {
      "midi": 61,
      "hit": false,
      "t": 38960.99999999999,
      "d": 454.54499999999825,
      "v": 94
    },
    {
      "midi": 52,
      "hit": false,
      "t": 38960.99999999999,
      "d": 709.4148749999949,
      "v": 100
    },
    {
      "midi": 33,
      "hit": false,
      "t": 38960.99999999999,
      "d": 2938.3087499999965,
      "v": 98
    },
    {
      "midi": 59,
      "hit": false,
      "t": 39350.60999999999,
      "d": 303.57112499999494,
      "v": 73
    },
    {
      "midi": 52,
      "hit": false,
      "t": 39740.21999999999,
      "d": 287.3373750000028,
      "v": 90
    },
    {
      "midi": 59,
      "hit": false,
      "t": 39740.21999999999,
      "d": 368.5061249999999,
      "v": 94
    },
    {
      "midi": 57,
      "hit": false,
      "t": 40129.82999999999,
      "d": 308.4412500000035,
      "v": 65
    },
    {
      "midi": 52,
      "hit": false,
      "t": 40129.82999999999,
      "d": 324.6750000000029,
      "v": 71
    },
    {
      "midi": 57,
      "hit": false,
      "t": 40519.43999999999,
      "d": 376.6229999999996,
      "v": 103
    },
    {
      "midi": 52,
      "hit": false,
      "t": 40519.43999999999,
      "d": 709.4148750000022,
      "v": 84
    },
    {
      "midi": 45,
      "hit": false,
      "t": 40519.43999999999,
      "d": 1436.6868749999994,
      "v": 96
    },
    {
      "midi": 55,
      "hit": false,
      "t": 40909.04999999999,
      "d": 324.6750000000029,
      "v": 65
    },
    {
      "midi": 52,
      "hit": false,
      "t": 41298.65999999999,
      "d": 612.0123749999984,
      "v": 92
    },
    {
      "midi": 55,
      "hit": false,
      "t": 41298.65999999999,
      "d": 660.7136249999967,
      "v": 96
    },
    {
      "midi": 64,
      "hit": false,
      "t": 41298.65999999999,
      "d": 676.9473749999961,
      "v": 103
    },
    {
      "midi": 61,
      "hit": false,
      "t": 41493.46499999999,
      "d": 482.1423749999958,
      "v": 92
    },
    {
      "midi": 57,
      "hit": false,
      "t": 41688.26999999999,
      "d": 340.90874999999505,
      "v": 88
    },
    {
      "midi": 57,
      "hit": false,
      "t": 42077.87999999998,
      "d": 482.1423750000031,
      "v": 100
    },
    {
      "midi": 62,
      "hit": false,
      "t": 42077.87999999998,
      "d": 676.9473750000034,
      "v": 106
    },
    {
      "midi": 67,
      "hit": false,
      "t": 42077.87999999998,
      "d": 1456.1673750000045,
      "v": 100
    },
    {
      "midi": 38,
      "hit": false,
      "t": 42077.87999999998,
      "d": 1477.2712500000052,
      "v": 106
    },
    {
      "midi": 50,
      "hit": false,
      "t": 42467.48999999998,
      "d": 1139.6092500000013,
      "v": 83
    },
    {
      "midi": 57,
      "hit": false,
      "t": 42857.099999999984,
      "d": 279.2205000000031,
      "v": 100
    },
    {
      "midi": 62,
      "hit": false,
      "t": 43246.709999999985,
      "d": 292.2075000000041,
      "v": 92
    },
    {
      "midi": 57,
      "hit": false,
      "t": 43246.709999999985,
      "d": 308.4412500000035,
      "v": 73
    },
    {
      "midi": 57,
      "hit": false,
      "t": 43636.319999999985,
      "d": 365.25937500000146,
      "v": 86
    },
    {
      "midi": 50,
      "hit": false,
      "t": 43636.319999999985,
      "d": 397.7268750000003,
      "v": 90
    },
    {
      "midi": 38,
      "hit": false,
      "t": 43636.319999999985,
      "d": 422.0774999999994,
      "v": 96
    },
    {
      "midi": 66,
      "hit": false,
      "t": 43636.319999999985,
      "d": 600.6487500000003,
      "v": 100
    },
    {
      "midi": 62,
      "hit": false,
      "t": 43636.319999999985,
      "d": 649.3499999999985,
      "v": 94
    },
    {
      "midi": 57,
      "hit": false,
      "t": 44220.734999999986,
      "d": 121.75312499999563,
      "v": 92
    },
    {
      "midi": 57,
      "hit": false,
      "t": 44415.53999999998,
      "d": 227.27249999999913,
      "v": 92
    },
    {
      "midi": 37,
      "hit": false,
      "t": 44415.53999999998,
      "d": 603.8954999999987,
      "v": 98
    },
    {
      "midi": 66,
      "hit": false,
      "t": 44415.53999999998,
      "d": 603.8954999999987,
      "v": 98
    },
    {
      "midi": 49,
      "hit": false,
      "t": 44415.53999999998,
      "d": 616.8824999999997,
      "v": 94
    },
    {
      "midi": 61,
      "hit": false,
      "t": 44610.34499999998,
      "d": 438.31124999999884,
      "v": 92
    },
    {
      "midi": 57,
      "hit": false,
      "t": 44805.14999999998,
      "d": 303.57112499999494,
      "v": 92
    },
    {
      "midi": 54,
      "hit": false,
      "t": 45194.75999999997,
      "d": 766.2330000000002,
      "v": 98
    },
    {
      "midi": 59,
      "hit": false,
      "t": 45194.75999999997,
      "d": 868.505624999998,
      "v": 103
    },
    {
      "midi": 64,
      "hit": false,
      "t": 45194.75999999997,
      "d": 1038.9599999999991,
      "v": 100
    },
    {
      "midi": 35,
      "hit": false,
      "t": 45194.75999999997,
      "d": 1456.1673749999973,
      "v": 106
    },
    {
      "midi": 47,
      "hit": false,
      "t": 45973.979999999974,
      "d": 701.2979999999952,
      "v": 88
    },
    {
      "midi": 54,
      "hit": false,
      "t": 46168.784999999974,
      "d": 422.0774999999994,
      "v": 65
    },
    {
      "midi": 59,
      "hit": false,
      "t": 46363.589999999975,
      "d": 349.02562499999476,
      "v": 78
    },
    {
      "midi": 64,
      "hit": false,
      "t": 46558.394999999975,
      "d": 188.31149999999616,
      "v": 98
    },
    {
      "midi": 54,
      "hit": false,
      "t": 46753.19999999997,
      "d": 600.6487500000003,
      "v": 90
    },
    {
      "midi": 59,
      "hit": false,
      "t": 46753.19999999997,
      "d": 779.2200000000012,
      "v": 98
    },
    {
      "midi": 35,
      "hit": false,
      "t": 46753.19999999997,
      "d": 1293.829875000003,
      "v": 92
    },
    {
      "midi": 62,
      "hit": false,
      "t": 46753.19999999997,
      "d": 1306.816875000004,
      "v": 106
    },
    {
      "midi": 47,
      "hit": false,
      "t": 46753.19999999997,
      "d": 1383.1154999999999,
      "v": 86
    },
    {
      "midi": 54,
      "hit": false,
      "t": 47532.41999999997,
      "d": 555.1942500000005,
      "v": 74
    },
    {
      "midi": 59,
      "hit": false,
      "t": 47922.02999999997,
      "d": 295.4542499999952,
      "v": 79
    },
    {
      "midi": 52,
      "hit": false,
      "t": 48311.63999999996,
      "d": 871.7523750000037,
      "v": 103
    },
    {
      "midi": 64,
      "hit": false,
      "t": 48311.63999999996,
      "d": 1103.895000000004,
      "v": 106
    },
    {
      "midi": 57,
      "hit": false,
      "t": 48311.63999999996,
      "d": 1176.9468750000015,
      "v": 103
    },
    {
      "midi": 40,
      "hit": false,
      "t": 48311.63999999996,
      "d": 1821.426750000006,
      "v": 98
    },
    {
      "midi": 47,
      "hit": false,
      "t": 49090.859999999964,
      "d": 1123.375500000002,
      "v": 78
    },
    {
      "midi": 52,
      "hit": false,
      "t": 49480.469999999965,
      "d": 336.03862500000105,
      "v": 90
    },
    {
      "midi": 57,
      "hit": false,
      "t": 49675.274999999965,
      "d": 141.23362500000076,
      "v": 80
    },
    {
      "midi": 57,
      "hit": false,
      "t": 49870.079999999965,
      "d": 284.09062500000437,
      "v": 106
    },
    {
      "midi": 64,
      "hit": false,
      "t": 49870.079999999965,
      "d": 319.80487500000163,
      "v": 106
    },
    {
      "midi": 52,
      "hit": false,
      "t": 49870.079999999965,
      "d": 324.6750000000029,
      "v": 103
    },
    {
      "midi": 47,
      "hit": false,
      "t": 50259.689999999966,
      "d": 251.62312499999825,
      "v": 82
    },
    {
      "midi": 52,
      "hit": false,
      "t": 50259.689999999966,
      "d": 422.0774999999994,
      "v": 74
    },
    {
      "midi": 56,
      "hit": false,
      "t": 50259.689999999966,
      "d": 624.9993749999994,
      "v": 92
    },
    {
      "midi": 40,
      "hit": false,
      "t": 50259.689999999966,
      "d": 993.5054999999993,
      "v": 88
    },
    {
      "midi": 64,
      "hit": false,
      "t": 50259.689999999966,
      "d": 998.3756250000006,
      "v": 64
    },
    {
      "midi": 47,
      "hit": false,
      "t": 50649.29999999997,
      "d": 722.4018749999959,
      "v": 77
    },
    {
      "midi": 56,
      "hit": false,
      "t": 51038.90999999997,
      "d": 254.86987499999668,
      "v": 67
    },
    {
      "midi": 52,
      "hit": false,
      "t": 51428.51999999996,
      "d": 754.869375000002,
      "v": 96
    },
    {
      "midi": 57,
      "hit": false,
      "t": 51428.51999999996,
      "d": 855.5186250000042,
      "v": 96
    },
    {
      "midi": 62,
      "hit": false,
      "t": 51428.51999999996,
      "d": 1022.7262499999997,
      "v": 98
    },
    {
      "midi": 33,
      "hit": false,
      "t": 51428.51999999996,
      "d": 2897.724374999998,
      "v": 100
    },
    {
      "midi": 45,
      "hit": false,
      "t": 52207.73999999996,
      "d": 592.5318750000006,
      "v": 92
    },
    {
      "midi": 52,
      "hit": false,
      "t": 52402.54499999996,
      "d": 1261.362374999997,
      "v": 80
    },
    {
      "midi": 57,
      "hit": false,
      "t": 52597.34999999996,
      "d": 1090.9079999999958,
      "v": 84
    },
    {
      "midi": 62,
      "hit": false,
      "t": 52792.15499999996,
      "d": 188.31149999999616,
      "v": 92
    },
    {
      "midi": 61,
      "hit": false,
      "t": 52986.959999999955,
      "d": 668.8305000000037,
      "v": 103
    },
    {
      "midi": 45,
      "hit": false,
      "t": 52986.959999999955,
      "d": 952.9211250000008,
      "v": 92
    },
    {
      "midi": 61,
      "hit": false,
      "t": 53766.17999999996,
      "d": 587.6617499999993,
      "v": 78
    },
    {
      "midi": 52,
      "hit": false,
      "t": 53766.17999999996,
      "d": 603.8954999999987,
      "v": 63
    },
    {
      "midi": 57,
      "hit": false,
      "t": 53766.17999999996,
      "d": 612.0123749999984,
      "v": 73
    },
    {
      "midi": 45,
      "hit": false,
      "t": 54155.78999999996,
      "d": 344.15550000000076,
      "v": 86
    },
    {
      "midi": 57,
      "hit": false,
      "t": 54545.39999999996,
      "d": 1063.3106249999983,
      "v": 80
    },
    {
      "midi": 62,
      "hit": false,
      "t": 54545.39999999996,
      "d": 1079.5443749999977,
      "v": 90
    },
    {
      "midi": 40,
      "hit": false,
      "t": 54545.39999999996,
      "d": 1082.791124999996,
      "v": 90
    },
    {
      "midi": 40,
      "hit": false,
      "t": 55714.22999999995,
      "d": 1631.4918749999997,
      "v": 98
    },
    {
      "midi": 57,
      "hit": false,
      "t": 55714.22999999995,
      "d": 1634.7386249999981,
      "v": 82
    },
    {
      "midi": 62,
      "hit": false,
      "t": 55714.22999999995,
      "d": 1650.9723749999976,
      "v": 94
    },
    {
      "midi": 52,
      "hit": false,
      "t": 57662.27999999995,
      "d": 522.7267500000016,
      "v": 80
    },
    {
      "midi": 57,
      "hit": false,
      "t": 57662.27999999995,
      "d": 722.4018750000032,
      "v": 90
    },
    {
      "midi": 62,
      "hit": false,
      "t": 57662.27999999995,
      "d": 1022.7262499999997,
      "v": 92
    },
    {
      "midi": 33,
      "hit": false,
      "t": 57662.27999999995,
      "d": 1813.3098749999917,
      "v": 90
    },
    {
      "midi": 45,
      "hit": false,
      "t": 58051.88999999995,
      "d": 1586.0373749999853,
      "v": 84
    },
    {
      "midi": 52,
      "hit": false,
      "t": 58441.49999999995,
      "d": 275.9737499999974,
      "v": 90
    },
    {
      "midi": 57,
      "hit": false,
      "t": 58441.49999999995,
      "d": 303.57112499999494,
      "v": 62
    },
    {
      "midi": 52,
      "hit": false,
      "t": 58831.10999999994,
      "d": 308.4412500000035,
      "v": 78
    },
    {
      "midi": 61,
      "hit": false,
      "t": 58831.10999999994,
      "d": 327.92175000000134,
      "v": 75
    },
    {
      "midi": 57,
      "hit": false,
      "t": 58831.10999999994,
      "d": 368.5061249999999,
      "v": 73
    },
    {
      "midi": 52,
      "hit": false,
      "t": 59220.71999999994,
      "d": 803.570624999993,
      "v": 98
    },
    {
      "midi": 57,
      "hit": false,
      "t": 59220.71999999994,
      "d": 952.9211249999935,
      "v": 103
    },
    {
      "midi": 61,
      "hit": false,
      "t": 59220.71999999994,
      "d": 1444.8037499999991,
      "v": 103
    },
    {
      "midi": 33,
      "hit": false,
      "t": 59610.329999999936,
      "d": 1042.2067500000048,
      "v": 92
    },
    {
      "midi": 45,
      "hit": false,
      "t": 59999.93999999994,
      "d": 706.1681250000038,
      "v": 82
    },
    {
      "midi": 57,
      "hit": false,
      "t": 60389.54999999994,
      "d": 284.09062500000437,
      "v": 88
    },
    {
      "midi": 57,
      "hit": false,
      "t": 60779.15999999994,
      "d": 422.0774999999994,
      "v": 103
    },
    {
      "midi": 61,
      "hit": false,
      "t": 60779.15999999994,
      "d": 454.54499999999825,
      "v": 94
    },
    {
      "midi": 52,
      "hit": false,
      "t": 60779.15999999994,
      "d": 709.4148749999949,
      "v": 100
    },
    {
      "midi": 33,
      "hit": false,
      "t": 60779.15999999994,
      "d": 2938.3087499999965,
      "v": 98
    },
    {
      "midi": 59,
      "hit": false,
      "t": 61168.76999999994,
      "d": 303.57112499999494,
      "v": 73
    },
    {
      "midi": 52,
      "hit": false,
      "t": 61558.37999999993,
      "d": 287.3373750000028,
      "v": 90
    },
    {
      "midi": 59,
      "hit": false,
      "t": 61558.37999999993,
      "d": 368.5061249999999,
      "v": 94
    },
    {
      "midi": 57,
      "hit": false,
      "t": 61947.98999999993,
      "d": 308.4412500000035,
      "v": 66
    },
    {
      "midi": 52,
      "hit": false,
      "t": 61947.98999999993,
      "d": 324.6750000000029,
      "v": 71
    },
    {
      "midi": 57,
      "hit": false,
      "t": 62337.59999999993,
      "d": 376.6229999999996,
      "v": 103
    },
    {
      "midi": 52,
      "hit": false,
      "t": 62337.59999999993,
      "d": 709.4148750000022,
      "v": 84
    },
    {
      "midi": 45,
      "hit": false,
      "t": 62337.59999999993,
      "d": 1436.6868749999994,
      "v": 96
    },
    {
      "midi": 55,
      "hit": false,
      "t": 62727.209999999934,
      "d": 324.6750000000029,
      "v": 65
    },
    {
      "midi": 55,
      "hit": false,
      "t": 63116.819999999934,
      "d": 595.778624999999,
      "v": 96
    },
    {
      "midi": 52,
      "hit": false,
      "t": 63116.819999999934,
      "d": 612.0123749999984,
      "v": 92
    },
    {
      "midi": 64,
      "hit": false,
      "t": 63116.819999999934,
      "d": 676.9473749999961,
      "v": 103
    },
    {
      "midi": 61,
      "hit": false,
      "t": 63311.624999999935,
      "d": 482.1423749999958,
      "v": 92
    },
    {
      "midi": 57,
      "hit": false,
      "t": 63506.429999999935,
      "d": 308.4412499999962,
      "v": 88
    },
    {
      "midi": 57,
      "hit": false,
      "t": 63896.03999999993,
      "d": 482.1423750000031,
      "v": 100
    },
    {
      "midi": 62,
      "hit": false,
      "t": 63896.03999999993,
      "d": 676.9473750000034,
      "v": 106
    },
    {
      "midi": 67,
      "hit": false,
      "t": 63896.03999999993,
      "d": 1456.1673750000045,
      "v": 100
    },
    {
      "midi": 38,
      "hit": false,
      "t": 63896.03999999993,
      "d": 1477.2712500000052,
      "v": 106
    },
    {
      "midi": 50,
      "hit": false,
      "t": 64285.64999999993,
      "d": 1107.1417500000025,
      "v": 80
    },
    {
      "midi": 57,
      "hit": false,
      "t": 64675.25999999993,
      "d": 344.15550000000076,
      "v": 100
    },
    {
      "midi": 62,
      "hit": false,
      "t": 65064.86999999993,
      "d": 292.2075000000041,
      "v": 92
    },
    {
      "midi": 57,
      "hit": false,
      "t": 65064.86999999993,
      "d": 308.4412500000035,
      "v": 73
    },
    {
      "midi": 57,
      "hit": false,
      "t": 65454.47999999993,
      "d": 365.25937500000146,
      "v": 86
    },
    {
      "midi": 50,
      "hit": false,
      "t": 65454.47999999993,
      "d": 397.7268750000003,
      "v": 90
    },
    {
      "midi": 38,
      "hit": false,
      "t": 65454.47999999993,
      "d": 422.0775000000067,
      "v": 96
    },
    {
      "midi": 66,
      "hit": false,
      "t": 65454.47999999993,
      "d": 600.6487500000003,
      "v": 100
    },
    {
      "midi": 62,
      "hit": false,
      "t": 65454.47999999993,
      "d": 649.3499999999985,
      "v": 94
    },
    {
      "midi": 57,
      "hit": false,
      "t": 66038.89499999993,
      "d": 121.75312500000291,
      "v": 92
    },
    {
      "midi": 57,
      "hit": false,
      "t": 66233.69999999994,
      "d": 227.27249999999185,
      "v": 92
    },
    {
      "midi": 37,
      "hit": false,
      "t": 66233.69999999994,
      "d": 603.8954999999842,
      "v": 98
    },
    {
      "midi": 66,
      "hit": false,
      "t": 66233.69999999994,
      "d": 603.8954999999842,
      "v": 98
    },
    {
      "midi": 49,
      "hit": false,
      "t": 66233.69999999994,
      "d": 616.8824999999779,
      "v": 94
    },
    {
      "midi": 61,
      "hit": false,
      "t": 66428.50499999993,
      "d": 438.3112499999843,
      "v": 92
    },
    {
      "midi": 57,
      "hit": false,
      "t": 66623.30999999992,
      "d": 368.50612499998533,
      "v": 92
    },
    {
      "midi": 54,
      "hit": false,
      "t": 67012.91999999991,
      "d": 766.2329999999929,
      "v": 98
    },
    {
      "midi": 59,
      "hit": false,
      "t": 67012.91999999991,
      "d": 868.5056249999907,
      "v": 103
    },
    {
      "midi": 64,
      "hit": false,
      "t": 67012.91999999991,
      "d": 1038.9599999999919,
      "v": 100
    },
    {
      "midi": 35,
      "hit": false,
      "t": 67012.91999999991,
      "d": 1456.1673749999754,
      "v": 106
    },
    {
      "midi": 47,
      "hit": false,
      "t": 67792.1399999999,
      "d": 701.2979999999952,
      "v": 88
    },
    {
      "midi": 54,
      "hit": false,
      "t": 67986.9449999999,
      "d": 422.07749999998487,
      "v": 65
    },
    {
      "midi": 59,
      "hit": false,
      "t": 68181.7499999999,
      "d": 349.02562499999476,
      "v": 78
    },
    {
      "midi": 64,
      "hit": false,
      "t": 68376.55499999989,
      "d": 188.31149999999616,
      "v": 98
    },
    {
      "midi": 54,
      "hit": false,
      "t": 68571.35999999988,
      "d": 600.648749999993,
      "v": 90
    },
    {
      "midi": 59,
      "hit": false,
      "t": 68571.35999999988,
      "d": 779.2199999999866,
      "v": 98
    },
    {
      "midi": 35,
      "hit": false,
      "t": 68571.35999999988,
      "d": 1293.8298749999813,
      "v": 92
    },
    {
      "midi": 62,
      "hit": false,
      "t": 68571.35999999988,
      "d": 1306.816874999975,
      "v": 106
    },
    {
      "midi": 47,
      "hit": false,
      "t": 68571.35999999988,
      "d": 1383.1154999999708,
      "v": 86
    },
    {
      "midi": 54,
      "hit": false,
      "t": 69350.57999999987,
      "d": 555.1942499999859,
      "v": 74
    },
    {
      "midi": 59,
      "hit": false,
      "t": 69740.18999999987,
      "d": 295.4542499999807,
      "v": 70
    },
    {
      "midi": 52,
      "hit": false,
      "t": 70129.79999999986,
      "d": 871.7523749999964,
      "v": 103
    },
    {
      "midi": 64,
      "hit": false,
      "t": 70129.79999999986,
      "d": 1103.8949999999895,
      "v": 106
    },
    {
      "midi": 57,
      "hit": false,
      "t": 70129.79999999986,
      "d": 1176.9468749999942,
      "v": 103
    },
    {
      "midi": 40,
      "hit": false,
      "t": 70129.79999999986,
      "d": 1821.4267499999842,
      "v": 98
    },
    {
      "midi": 47,
      "hit": false,
      "t": 70909.01999999986,
      "d": 1123.3754999999946,
      "v": 78
    },
    {
      "midi": 52,
      "hit": false,
      "t": 71298.62999999984,
      "d": 336.03862500000105,
      "v": 90
    },
    {
      "midi": 57,
      "hit": false,
      "t": 71493.43499999985,
      "d": 141.23362499999348,
      "v": 80
    },
    {
      "midi": 57,
      "hit": false,
      "t": 71688.23999999985,
      "d": 284.0906249999971,
      "v": 106
    },
    {
      "midi": 64,
      "hit": false,
      "t": 71688.23999999985,
      "d": 319.80487500000163,
      "v": 106
    },
    {
      "midi": 52,
      "hit": false,
      "t": 71688.23999999985,
      "d": 324.6750000000029,
      "v": 103
    },
    {
      "midi": 47,
      "hit": false,
      "t": 72077.84999999986,
      "d": 251.62312499999825,
      "v": 82
    },
    {
      "midi": 52,
      "hit": false,
      "t": 72077.84999999986,
      "d": 422.0774999999994,
      "v": 74
    },
    {
      "midi": 56,
      "hit": false,
      "t": 72077.84999999986,
      "d": 624.9993749999994,
      "v": 92
    },
    {
      "midi": 40,
      "hit": false,
      "t": 72077.84999999986,
      "d": 993.5054999999993,
      "v": 88
    },
    {
      "midi": 64,
      "hit": false,
      "t": 72077.84999999986,
      "d": 998.3756250000006,
      "v": 64
    },
    {
      "midi": 47,
      "hit": false,
      "t": 72467.45999999986,
      "d": 722.4018750000105,
      "v": 77
    },
    {
      "midi": 56,
      "hit": false,
      "t": 72857.06999999986,
      "d": 254.86987500000396,
      "v": 67
    },
    {
      "midi": 52,
      "hit": false,
      "t": 73246.67999999988,
      "d": 754.8693749999948,
      "v": 96
    },
    {
      "midi": 57,
      "hit": false,
      "t": 73246.67999999988,
      "d": 855.518624999997,
      "v": 96
    },
    {
      "midi": 62,
      "hit": false,
      "t": 73246.67999999988,
      "d": 1022.7262499999924,
      "v": 98
    },
    {
      "midi": 33,
      "hit": false,
      "t": 73246.67999999988,
      "d": 2897.7243750000052,
      "v": 100
    },
    {
      "midi": 45,
      "hit": false,
      "t": 74025.89999999988,
      "d": 592.531874999986,
      "v": 92
    },
    {
      "midi": 52,
      "hit": false,
      "t": 74220.70499999987,
      "d": 1326.2973750000092,
      "v": 80
    },
    {
      "midi": 57,
      "hit": false,
      "t": 74415.50999999986,
      "d": 1123.3755000000092,
      "v": 84
    },
    {
      "midi": 62,
      "hit": false,
      "t": 74610.31499999986,
      "d": 202.92187500001455,
      "v": 92
    },
    {
      "midi": 61,
      "hit": false,
      "t": 74805.11999999986,
      "d": 668.8305000000109,
      "v": 103
    },
    {
      "midi": 45,
      "hit": false,
      "t": 74805.11999999986,
      "d": 952.9211250000226,
      "v": 92
    },
    {
      "midi": 61,
      "hit": false,
      "t": 75584.33999999988,
      "d": 522.7267500000016,
      "v": 78
    },
    {
      "midi": 52,
      "hit": false,
      "t": 75584.33999999988,
      "d": 538.960500000001,
      "v": 73
    },
    {
      "midi": 57,
      "hit": false,
      "t": 75584.33999999988,
      "d": 547.077375000008,
      "v": 73
    },
    {
      "midi": 45,
      "hit": false,
      "t": 75973.94999999988,
      "d": 279.2204999999958,
      "v": 86
    },
    {
      "midi": 45,
      "hit": false,
      "t": 76363.55999999988,
      "d": 373.37625000000116,
      "v": 121
    },
    {
      "midi": 55,
      "hit": false,
      "t": 76363.55999999988,
      "d": 506.4930000000022,
      "v": 112
    },
    {
      "midi": 59,
      "hit": false,
      "t": 76363.55999999988,
      "d": 689.9343750000116,
      "v": 112
    },
    {
      "midi": 62,
      "hit": false,
      "t": 76363.55999999988,
      "d": 693.1811250000173,
      "v": 106
    },
    {
      "midi": 64,
      "hit": false,
      "t": 76363.55999999988,
      "d": 693.1811250000173,
      "v": 103
    },
    {
      "midi": 45,
      "hit": false,
      "t": 76947.97499999989,
      "d": 441.55800000000454,
      "v": 109
    },
    {
      "midi": 55,
      "hit": false,
      "t": 77142.7799999999,
      "d": 246.75299999999697,
      "v": 96
    },
    {
      "midi": 62,
      "hit": false,
      "t": 77142.7799999999,
      "d": 262.9867499999964,
      "v": 92
    },
    {
      "midi": 64,
      "hit": false,
      "t": 77142.7799999999,
      "d": 267.8568749999977,
      "v": 98
    },
    {
      "midi": 59,
      "hit": false,
      "t": 77142.7799999999,
      "d": 271.1036250000034,
      "v": 90
    },
    {
      "midi": 45,
      "hit": false,
      "t": 77532.3899999999,
      "d": 551.9474999999948,
      "v": 121
    },
    {
      "midi": 57,
      "hit": false,
      "t": 77532.3899999999,
      "d": 722.4018749999959,
      "v": 109
    },
    {
      "midi": 64,
      "hit": false,
      "t": 77532.3899999999,
      "d": 730.5187500000029,
      "v": 103
    },
    {
      "midi": 61,
      "hit": false,
      "t": 77532.3899999999,
      "d": 746.7525000000023,
      "v": 118
    },
    {
      "midi": 61,
      "hit": false,
      "t": 78311.6099999999,
      "d": 318.18150000000605,
      "v": 109
    },
    {
      "midi": 57,
      "hit": false,
      "t": 78311.6099999999,
      "d": 334.41525000000547,
      "v": 109
    },
    {
      "midi": 64,
      "hit": false,
      "t": 78311.6099999999,
      "d": 334.41525000000547,
      "v": 109
    },
    {
      "midi": 69,
      "hit": false,
      "t": 78311.6099999999,
      "d": 366.8827500000043,
      "v": 121
    },
    {
      "midi": 81,
      "hit": false,
      "t": 78311.6099999999,
      "d": 366.8827500000043,
      "v": 121
    },
    {
      "midi": 45,
      "hit": false,
      "t": 78311.6099999999,
      "d": 383.1165000000037,
      "v": 115
    },
    {
      "midi": 61,
      "hit": false,
      "t": 78701.2199999999,
      "d": 318.18150000000605,
      "v": 109
    },
    {
      "midi": 57,
      "hit": false,
      "t": 78701.2199999999,
      "d": 334.41525000000547,
      "v": 109
    },
    {
      "midi": 64,
      "hit": false,
      "t": 78701.2199999999,
      "d": 334.41525000000547,
      "v": 109
    },
    {
      "midi": 69,
      "hit": false,
      "t": 78701.2199999999,
      "d": 366.8827500000043,
      "v": 121
    },
    {
      "midi": 81,
      "hit": false,
      "t": 78701.2199999999,
      "d": 366.8827500000043,
      "v": 121
    },
    {
      "midi": 47,
      "hit": false,
      "t": 78701.2199999999,
      "d": 383.1165000000037,
      "v": 118
    },
    {
      "midi": 61,
      "hit": false,
      "t": 79090.8299999999,
      "d": 318.18150000000605,
      "v": 109
    },
    {
      "midi": 57,
      "hit": false,
      "t": 79090.8299999999,
      "d": 334.41525000000547,
      "v": 109
    },
    {
      "midi": 64,
      "hit": false,
      "t": 79090.8299999999,
      "d": 334.41525000000547,
      "v": 109
    },
    {
      "midi": 67,
      "hit": false,
      "t": 79090.8299999999,
      "d": 366.8827500000043,
      "v": 100
    },
    {
      "midi": 79,
      "hit": false,
      "t": 79090.8299999999,
      "d": 366.8827500000043,
      "v": 103
    },
    {
      "midi": 49,
      "hit": false,
      "t": 79090.8299999999,
      "d": 383.1165000000037,
      "v": 118
    },
    {
      "midi": 79,
      "hit": false,
      "t": 79480.4399999999,
      "d": 366.8827500000043,
      "v": 103
    },
    {
      "midi": 57,
      "hit": false,
      "t": 79480.4399999999,
      "d": 538.960500000001,
      "v": 112
    },
    {
      "midi": 62,
      "hit": false,
      "t": 79480.4399999999,
      "d": 660.713625000004,
      "v": 106
    },
    {
      "midi": 67,
      "hit": false,
      "t": 79480.4399999999,
      "d": 1225.648125000007,
      "v": 100
    },
    {
      "midi": 38,
      "hit": false,
      "t": 79480.4399999999,
      "d": 2110.387500000026,
      "v": 115
    },
    {
      "midi": 50,
      "hit": false,
      "t": 80064.85499999991,
      "d": 490.25924999998824,
      "v": 100
    },
    {
      "midi": 57,
      "hit": false,
      "t": 80259.6599999999,
      "d": 311.68799999999464,
      "v": 92
    },
    {
      "midi": 50,
      "hit": false,
      "t": 80649.2699999999,
      "d": 292.2075000000041,
      "v": 92
    },
    {
      "midi": 57,
      "hit": false,
      "t": 80649.2699999999,
      "d": 295.4542500000098,
      "v": 98
    },
    {
      "midi": 62,
      "hit": false,
      "t": 80649.2699999999,
      "d": 340.9087500000169,
      "v": 96
    },
    {
      "midi": 66,
      "hit": false,
      "t": 80844.07499999991,
      "d": 137.98687500000233,
      "v": 80
    },
    {
      "midi": 62,
      "hit": false,
      "t": 81038.87999999992,
      "d": 543.8306250000023,
      "v": 106
    },
    {
      "midi": 66,
      "hit": false,
      "t": 81038.87999999992,
      "d": 592.5318750000151,
      "v": 115
    },
    {
      "midi": 57,
      "hit": false,
      "t": 81038.87999999992,
      "d": 738.6356250000099,
      "v": 112
    },
    {
      "midi": 50,
      "hit": false,
      "t": 81038.87999999992,
      "d": 749.999250000008,
      "v": 100
    },
    {
      "midi": 49,
      "hit": false,
      "t": 81818.09999999992,
      "d": 657.4668749999983,
      "v": 103
    },
    {
      "midi": 64,
      "hit": false,
      "t": 81818.09999999992,
      "d": 681.8175000000047,
      "v": 94
    },
    {
      "midi": 61,
      "hit": false,
      "t": 81818.09999999992,
      "d": 685.0642500000104,
      "v": 82
    },
    {
      "midi": 57,
      "hit": false,
      "t": 81818.09999999992,
      "d": 693.1811250000173,
      "v": 94
    },
    {
      "midi": 57,
      "hit": false,
      "t": 82597.31999999993,
      "d": 490.2592500000028,
      "v": 109
    },
    {
      "midi": 64,
      "hit": false,
      "t": 82597.31999999993,
      "d": 514.6098750000092,
      "v": 106
    },
    {
      "midi": 61,
      "hit": false,
      "t": 82597.31999999993,
      "d": 522.7267500000162,
      "v": 112
    },
    {
      "midi": 35,
      "hit": false,
      "t": 82597.31999999993,
      "d": 936.6873750000377,
      "v": 118
    },
    {
      "midi": 47,
      "hit": false,
      "t": 83181.73499999996,
      "d": 344.15550000000803,
      "v": 121
    },
    {
      "midi": 57,
      "hit": false,
      "t": 83376.53999999995,
      "d": 105.51937500000349,
      "v": 124
    },
    {
      "midi": 64,
      "hit": false,
      "t": 83376.53999999995,
      "d": 105.51937500000349,
      "v": 124
    },
    {
      "midi": 61,
      "hit": false,
      "t": 83376.53999999995,
      "d": 108.7661250000092,
      "v": 124
    },
    {
      "midi": 35,
      "hit": false,
      "t": 83766.14999999997,
      "d": 506.4930000000022,
      "v": 115
    },
    {
      "midi": 47,
      "hit": false,
      "t": 83766.14999999997,
      "d": 584.4150000000081,
      "v": 121
    },
    {
      "midi": 66,
      "hit": false,
      "t": 83766.14999999997,
      "d": 698.0512500000041,
      "v": 118
    },
    {
      "midi": 63,
      "hit": false,
      "t": 83766.14999999997,
      "d": 706.1681250000111,
      "v": 121
    },
    {
      "midi": 59,
      "hit": false,
      "t": 83766.14999999997,
      "d": 707.7915000000066,
      "v": 118
    },
    {
      "midi": 35,
      "hit": false,
      "t": 84545.36999999997,
      "d": 319.80487500000163,
      "v": 121
    },
    {
      "midi": 59,
      "hit": false,
      "t": 84545.36999999997,
      "d": 332.79187499999534,
      "v": 121
    },
    {
      "midi": 63,
      "hit": false,
      "t": 84545.36999999997,
      "d": 350.64899999999034,
      "v": 121
    },
    {
      "midi": 66,
      "hit": false,
      "t": 84545.36999999997,
      "d": 350.64899999999034,
      "v": 121
    },
    {
      "midi": 71,
      "hit": false,
      "t": 84545.36999999997,
      "d": 350.64899999999034,
      "v": 121
    },
    {
      "midi": 83,
      "hit": false,
      "t": 84545.36999999997,
      "d": 350.64899999999034,
      "v": 118
    },
    {
      "midi": 59,
      "hit": false,
      "t": 84934.97999999995,
      "d": 350.6490000000049,
      "v": 121
    },
    {
      "midi": 63,
      "hit": false,
      "t": 84934.97999999995,
      "d": 350.6490000000049,
      "v": 121
    },
    {
      "midi": 66,
      "hit": false,
      "t": 84934.97999999995,
      "d": 350.6490000000049,
      "v": 121
    },
    {
      "midi": 71,
      "hit": false,
      "t": 84934.97999999995,
      "d": 350.6490000000049,
      "v": 124
    },
    {
      "midi": 83,
      "hit": false,
      "t": 84934.97999999995,
      "d": 350.6490000000049,
      "v": 121
    },
    {
      "midi": 37,
      "hit": false,
      "t": 84934.97999999995,
      "d": 383.1165000000037,
      "v": 124
    },
    {
      "midi": 59,
      "hit": false,
      "t": 85324.58999999995,
      "d": 350.6490000000049,
      "v": 121
    },
    {
      "midi": 63,
      "hit": false,
      "t": 85324.58999999995,
      "d": 350.6490000000049,
      "v": 121
    },
    {
      "midi": 66,
      "hit": false,
      "t": 85324.58999999995,
      "d": 350.6490000000049,
      "v": 121
    },
    {
      "midi": 69,
      "hit": false,
      "t": 85324.58999999995,
      "d": 350.6490000000049,
      "v": 112
    },
    {
      "midi": 81,
      "hit": false,
      "t": 85324.58999999995,
      "d": 350.6490000000049,
      "v": 103
    },
    {
      "midi": 39,
      "hit": false,
      "t": 85324.58999999995,
      "d": 383.1165000000037,
      "v": 125
    },
    {
      "midi": 81,
      "hit": false,
      "t": 85714.19999999995,
      "d": 886.3627500000002,
      "v": 103
    },
    {
      "midi": 62,
      "hit": false,
      "t": 85714.19999999995,
      "d": 933.4406250000029,
      "v": 115
    },
    {
      "midi": 66,
      "hit": false,
      "t": 85714.19999999995,
      "d": 961.0380000000005,
      "v": 112
    },
    {
      "midi": 57,
      "hit": false,
      "t": 85714.19999999995,
      "d": 1001.6223750000063,
      "v": 118
    },
    {
      "midi": 40,
      "hit": false,
      "t": 85714.19999999995,
      "d": 1120.1287500000035,
      "v": 121
    },
    {
      "midi": 40,
      "hit": false,
      "t": 86883.02999999996,
      "d": 311.68799999999464,
      "v": 90
    },
    {
      "midi": 64,
      "hit": false,
      "t": 86883.02999999996,
      "d": 336.03862500000105,
      "v": 86
    },
    {
      "midi": 59,
      "hit": false,
      "t": 86883.02999999996,
      "d": 340.9087500000023,
      "v": 82
    },
    {
      "midi": 56,
      "hit": false,
      "t": 86883.02999999996,
      "d": 344.15550000000803,
      "v": 90
    },
    {
      "midi": 80,
      "hit": false,
      "t": 86883.02999999996,
      "d": 350.6490000000049,
      "v": 103
    },
    {
      "midi": 56,
      "hit": false,
      "t": 87272.63999999996,
      "d": 628.2461250000051,
      "v": 109
    },
    {
      "midi": 40,
      "hit": false,
      "t": 87272.63999999996,
      "d": 917.2068750000035,
      "v": 112
    },
    {
      "midi": 59,
      "hit": false,
      "t": 87272.63999999996,
      "d": 1399.3492499999993,
      "v": 106
    },
    {
      "midi": 64,
      "hit": false,
      "t": 87272.63999999996,
      "d": 1415.5829999999987,
      "v": 109
    },
    {
      "midi": 80,
      "hit": false,
      "t": 87272.63999999996,
      "d": 1415.5829999999987,
      "v": 109
    },
    {
      "midi": 56,
      "hit": false,
      "t": 88051.85999999996,
      "d": 652.596749999997,
      "v": 90
    },
    {
      "midi": 40,
      "hit": false,
      "t": 88441.46999999996,
      "d": 275.9737499999901,
      "v": 94
    },
    {
      "midi": 57,
      "hit": false,
      "t": 88831.07999999994,
      "d": 1025.9729999999981,
      "v": 106
    },
    {
      "midi": 66,
      "hit": false,
      "t": 88831.07999999994,
      "d": 1042.2067499999976,
      "v": 94
    },
    {
      "midi": 62,
      "hit": false,
      "t": 88831.07999999994,
      "d": 1055.1937499999913,
      "v": 106
    },
    {
      "midi": 40,
      "hit": false,
      "t": 88831.07999999994,
      "d": 1058.440499999997,
      "v": 118
    },
    {
      "midi": 57,
      "hit": false,
      "t": 89999.90999999995,
      "d": 349.02562499999476,
      "v": 92
    },
    {
      "midi": 62,
      "hit": false,
      "t": 89999.90999999995,
      "d": 368.5061249999999,
      "v": 94
    },
    {
      "midi": 40,
      "hit": false,
      "t": 89999.90999999995,
      "d": 383.1165000000037,
      "v": 98
    },
    {
      "midi": 66,
      "hit": false,
      "t": 89999.90999999995,
      "d": 384.7398749999993,
      "v": 90
    },
    {
      "midi": 64,
      "hit": false,
      "t": 90389.51999999995,
      "d": 616.882500000007,
      "v": 92
    },
    {
      "midi": 59,
      "hit": false,
      "t": 90389.51999999995,
      "d": 636.3630000000121,
      "v": 84
    },
    {
      "midi": 68,
      "hit": false,
      "t": 90389.51999999995,
      "d": 644.4798750000191,
      "v": 98
    },
    {
      "midi": 37,
      "hit": false,
      "t": 90389.51999999995,
      "d": 766.233000000022,
      "v": 109
    },
    {
      "midi": 58,
      "hit": false,
      "t": 91168.73999999996,
      "d": 660.713625000004,
      "v": 106
    },
    {
      "midi": 63,
      "hit": false,
      "t": 91168.73999999996,
      "d": 665.5837500000052,
      "v": 106
    },
    {
      "midi": 36,
      "hit": false,
      "t": 91168.73999999996,
      "d": 668.8305000000109,
      "v": 106
    },
    {
      "midi": 67,
      "hit": false,
      "t": 91168.73999999996,
      "d": 673.7006250000122,
      "v": 112
    },
    {
      "midi": 66,
      "hit": false,
      "t": 91947.95999999998,
      "d": 693.1811250000028,
      "v": 86
    },
    {
      "midi": 62,
      "hit": false,
      "t": 91947.95999999998,
      "d": 714.2850000000035,
      "v": 92
    },
    {
      "midi": 57,
      "hit": false,
      "t": 91947.95999999998,
      "d": 722.4018750000105,
      "v": 94
    },
    {
      "midi": 35,
      "hit": false,
      "t": 91947.95999999998,
      "d": 1009.7392500000133,
      "v": 100
    },
    {
      "midi": 57,
      "hit": false,
      "t": 92727.18,
      "d": 495.1293750000041,
      "v": 82
    },
    {
      "midi": 66,
      "hit": false,
      "t": 92727.18,
      "d": 522.7267500000016,
      "v": 92
    },
    {
      "midi": 62,
      "hit": false,
      "t": 92727.18,
      "d": 543.8306250000023,
      "v": 90
    },
    {
      "midi": 35,
      "hit": false,
      "t": 93116.79,
      "d": 383.1165000000037,
      "v": 98
    },
    {
      "midi": 59,
      "hit": false,
      "t": 93506.4,
      "d": 616.882500000007,
      "v": 82
    },
    {
      "midi": 56,
      "hit": false,
      "t": 93506.4,
      "d": 624.999375000014,
      "v": 82
    },
    {
      "midi": 64,
      "hit": false,
      "t": 93506.4,
      "d": 624.999375000014,
      "v": 92
    },
    {
      "midi": 40,
      "hit": false,
      "t": 93506.4,
      "d": 1428.5700000000215,
      "v": 94
    },
    {
      "midi": 56,
      "hit": false,
      "t": 94285.62000000001,
      "d": 652.5967500000115,
      "v": 75
    },
    {
      "midi": 59,
      "hit": false,
      "t": 94285.62000000001,
      "d": 660.7136250000185,
      "v": 75
    },
    {
      "midi": 64,
      "hit": false,
      "t": 94285.62000000001,
      "d": 668.8305000000255,
      "v": 86
    },
    {
      "midi": 52,
      "hit": false,
      "t": 95064.84000000004,
      "d": 522.7267500000016,
      "v": 80
    },
    {
      "midi": 57,
      "hit": false,
      "t": 95064.84000000004,
      "d": 722.4018749999959,
      "v": 90
    },
    {
      "midi": 62,
      "hit": false,
      "t": 95064.84000000004,
      "d": 1022.726250000007,
      "v": 92
    },
    {
      "midi": 33,
      "hit": false,
      "t": 95064.84000000004,
      "d": 1813.3098750000208,
      "v": 90
    },
    {
      "midi": 45,
      "hit": false,
      "t": 95454.45000000004,
      "d": 1586.0373750000144,
      "v": 84
    },
    {
      "midi": 52,
      "hit": false,
      "t": 95844.06000000004,
      "d": 275.97375000000466,
      "v": 90
    },
    {
      "midi": 57,
      "hit": false,
      "t": 95844.06000000004,
      "d": 303.5711250000022,
      "v": 62
    },
    {
      "midi": 52,
      "hit": false,
      "t": 96233.67000000004,
      "d": 308.4412500000035,
      "v": 78
    },
    {
      "midi": 61,
      "hit": false,
      "t": 96233.67000000004,
      "d": 327.9217500000086,
      "v": 75
    },
    {
      "midi": 57,
      "hit": false,
      "t": 96233.67000000004,
      "d": 368.50612500001444,
      "v": 73
    },
    {
      "midi": 52,
      "hit": false,
      "t": 96623.28000000006,
      "d": 803.5706250000076,
      "v": 98
    },
    {
      "midi": 57,
      "hit": false,
      "t": 96623.28000000006,
      "d": 952.921125000008,
      "v": 103
    },
    {
      "midi": 61,
      "hit": false,
      "t": 96623.28000000006,
      "d": 1444.8037499999919,
      "v": 103
    },
    {
      "midi": 33,
      "hit": false,
      "t": 97012.89000000006,
      "d": 1042.2067499999976,
      "v": 92
    },
    {
      "midi": 45,
      "hit": false,
      "t": 97402.50000000006,
      "d": 706.1681249999965,
      "v": 82
    },
    {
      "midi": 57,
      "hit": false,
      "t": 97792.11000000006,
      "d": 284.0906249999971,
      "v": 88
    },
    {
      "midi": 57,
      "hit": false,
      "t": 98181.72000000006,
      "d": 422.0774999999994,
      "v": 103
    },
    {
      "midi": 61,
      "hit": false,
      "t": 98181.72000000006,
      "d": 454.54499999999825,
      "v": 94
    },
    {
      "midi": 52,
      "hit": false,
      "t": 98181.72000000006,
      "d": 709.4148750000022,
      "v": 100
    },
    {
      "midi": 33,
      "hit": false,
      "t": 98181.72000000006,
      "d": 2938.3087499999965,
      "v": 98
    },
    {
      "midi": 59,
      "hit": false,
      "t": 98571.33000000006,
      "d": 303.5711250000022,
      "v": 73
    },
    {
      "midi": 52,
      "hit": false,
      "t": 98960.94000000006,
      "d": 287.3373750000028,
      "v": 90
    },
    {
      "midi": 59,
      "hit": false,
      "t": 98960.94000000006,
      "d": 368.5061249999999,
      "v": 94
    },
    {
      "midi": 57,
      "hit": false,
      "t": 99350.55000000006,
      "d": 308.4412500000035,
      "v": 61
    },
    {
      "midi": 52,
      "hit": false,
      "t": 99350.55000000006,
      "d": 324.6750000000029,
      "v": 71
    },
    {
      "midi": 57,
      "hit": false,
      "t": 99740.16000000006,
      "d": 376.62300000000687,
      "v": 103
    },
    {
      "midi": 52,
      "hit": false,
      "t": 99740.16000000006,
      "d": 709.4148750000022,
      "v": 84
    },
    {
      "midi": 45,
      "hit": false,
      "t": 99740.16000000006,
      "d": 1436.6868749999994,
      "v": 96
    },
    {
      "midi": 55,
      "hit": false,
      "t": 100129.77000000006,
      "d": 324.6750000000029,
      "v": 65
    },
    {
      "midi": 55,
      "hit": false,
      "t": 100519.38000000006,
      "d": 595.7786249999917,
      "v": 96
    },
    {
      "midi": 52,
      "hit": false,
      "t": 100519.38000000006,
      "d": 612.0123749999912,
      "v": 92
    },
    {
      "midi": 64,
      "hit": false,
      "t": 100519.38000000006,
      "d": 676.9473750000034,
      "v": 103
    },
    {
      "midi": 61,
      "hit": false,
      "t": 100714.18500000006,
      "d": 482.14237500001036,
      "v": 92
    },
    {
      "midi": 57,
      "hit": false,
      "t": 100908.99000000005,
      "d": 308.44125000001804,
      "v": 88
    },
    {
      "midi": 57,
      "hit": false,
      "t": 101298.60000000006,
      "d": 482.1423749999958,
      "v": 100
    },
    {
      "midi": 62,
      "hit": false,
      "t": 101298.60000000006,
      "d": 676.9473749999888,
      "v": 106
    },
    {
      "midi": 67,
      "hit": false,
      "t": 101298.60000000006,
      "d": 1456.16737499999,
      "v": 100
    },
    {
      "midi": 38,
      "hit": false,
      "t": 101298.60000000006,
      "d": 1477.2712499999907,
      "v": 106
    },
    {
      "midi": 50,
      "hit": false,
      "t": 101688.21000000006,
      "d": 1139.609249999994,
      "v": 81
    },
    {
      "midi": 57,
      "hit": false,
      "t": 102077.82000000005,
      "d": 344.1554999999935,
      "v": 100
    },
    {
      "midi": 62,
      "hit": false,
      "t": 102467.43000000005,
      "d": 292.2075000000041,
      "v": 92
    },
    {
      "midi": 57,
      "hit": false,
      "t": 102467.43000000005,
      "d": 308.4412500000035,
      "v": 73
    },
    {
      "midi": 57,
      "hit": false,
      "t": 102857.04000000005,
      "d": 365.2593749999942,
      "v": 86
    },
    {
      "midi": 50,
      "hit": false,
      "t": 102857.04000000005,
      "d": 397.726874999993,
      "v": 90
    },
    {
      "midi": 38,
      "hit": false,
      "t": 102857.04000000005,
      "d": 422.0774999999994,
      "v": 96
    },
    {
      "midi": 66,
      "hit": false,
      "t": 102857.04000000005,
      "d": 600.648749999993,
      "v": 100
    },
    {
      "midi": 62,
      "hit": false,
      "t": 102857.04000000005,
      "d": 649.3499999999913,
      "v": 94
    },
    {
      "midi": 57,
      "hit": false,
      "t": 103441.45500000005,
      "d": 121.75312500000291,
      "v": 92
    },
    {
      "midi": 57,
      "hit": false,
      "t": 103636.26000000005,
      "d": 227.27249999999185,
      "v": 92
    },
    {
      "midi": 37,
      "hit": false,
      "t": 103636.26000000005,
      "d": 603.8954999999842,
      "v": 98
    },
    {
      "midi": 66,
      "hit": false,
      "t": 103636.26000000005,
      "d": 603.8954999999842,
      "v": 98
    },
    {
      "midi": 49,
      "hit": false,
      "t": 103636.26000000005,
      "d": 616.8824999999779,
      "v": 94
    },
    {
      "midi": 61,
      "hit": false,
      "t": 103831.06500000005,
      "d": 438.3112499999843,
      "v": 92
    },
    {
      "midi": 57,
      "hit": false,
      "t": 104025.87000000004,
      "d": 383.1164999999892,
      "v": 92
    },
    {
      "midi": 54,
      "hit": false,
      "t": 104415.48000000003,
      "d": 766.2329999999929,
      "v": 98
    },
    {
      "midi": 59,
      "hit": false,
      "t": 104415.48000000003,
      "d": 868.5056249999907,
      "v": 103
    },
    {
      "midi": 64,
      "hit": false,
      "t": 104415.48000000003,
      "d": 1038.9599999999919,
      "v": 100
    },
    {
      "midi": 35,
      "hit": false,
      "t": 104415.48000000003,
      "d": 1456.1673749999754,
      "v": 106
    },
    {
      "midi": 47,
      "hit": false,
      "t": 105194.70000000001,
      "d": 701.2979999999952,
      "v": 88
    },
    {
      "midi": 54,
      "hit": false,
      "t": 105389.50500000002,
      "d": 422.07749999998487,
      "v": 65
    },
    {
      "midi": 59,
      "hit": false,
      "t": 105584.31000000001,
      "d": 349.02562499999476,
      "v": 78
    },
    {
      "midi": 64,
      "hit": false,
      "t": 105779.115,
      "d": 188.31149999999616,
      "v": 98
    },
    {
      "midi": 54,
      "hit": false,
      "t": 105973.92,
      "d": 600.648749999993,
      "v": 90
    },
    {
      "midi": 59,
      "hit": false,
      "t": 105973.92,
      "d": 779.2199999999866,
      "v": 98
    },
    {
      "midi": 35,
      "hit": false,
      "t": 105973.92,
      "d": 1293.8298749999813,
      "v": 92
    },
    {
      "midi": 62,
      "hit": false,
      "t": 105973.92,
      "d": 1306.816874999975,
      "v": 106
    },
    {
      "midi": 47,
      "hit": false,
      "t": 105973.92,
      "d": 1383.1154999999708,
      "v": 86
    },
    {
      "midi": 54,
      "hit": false,
      "t": 106753.13999999998,
      "d": 555.1942499999859,
      "v": 74
    },
    {
      "midi": 59,
      "hit": false,
      "t": 107142.74999999999,
      "d": 295.4542499999807,
      "v": 74
    },
    {
      "midi": 52,
      "hit": false,
      "t": 107532.35999999997,
      "d": 871.7523749999964,
      "v": 103
    },
    {
      "midi": 64,
      "hit": false,
      "t": 107532.35999999997,
      "d": 1103.8949999999895,
      "v": 106
    },
    {
      "midi": 57,
      "hit": false,
      "t": 107532.35999999997,
      "d": 1176.9468749999942,
      "v": 103
    },
    {
      "midi": 40,
      "hit": false,
      "t": 107532.35999999997,
      "d": 1821.4267499999842,
      "v": 98
    },
    {
      "midi": 47,
      "hit": false,
      "t": 108311.57999999997,
      "d": 1123.3754999999946,
      "v": 78
    },
    {
      "midi": 52,
      "hit": false,
      "t": 108701.18999999996,
      "d": 336.03862500000105,
      "v": 90
    },
    {
      "midi": 57,
      "hit": false,
      "t": 108895.99499999997,
      "d": 141.23362499999348,
      "v": 80
    },
    {
      "midi": 57,
      "hit": false,
      "t": 109090.79999999996,
      "d": 284.0906249999971,
      "v": 106
    },
    {
      "midi": 64,
      "hit": false,
      "t": 109090.79999999996,
      "d": 319.80487500000163,
      "v": 106
    },
    {
      "midi": 52,
      "hit": false,
      "t": 109090.79999999996,
      "d": 324.6750000000029,
      "v": 103
    },
    {
      "midi": 47,
      "hit": false,
      "t": 109480.40999999997,
      "d": 251.62312499999825,
      "v": 82
    },
    {
      "midi": 52,
      "hit": false,
      "t": 109480.40999999997,
      "d": 422.0774999999994,
      "v": 74
    },
    {
      "midi": 56,
      "hit": false,
      "t": 109480.40999999997,
      "d": 624.9993749999994,
      "v": 92
    },
    {
      "midi": 64,
      "hit": false,
      "t": 109480.40999999997,
      "d": 998.3756250000006,
      "v": 64
    },
    {
      "midi": 40,
      "hit": false,
      "t": 109480.40999999997,
      "d": 1058.4405000000115,
      "v": 88
    },
    {
      "midi": 47,
      "hit": false,
      "t": 109870.01999999997,
      "d": 722.4018750000105,
      "v": 77
    },
    {
      "midi": 56,
      "hit": false,
      "t": 110259.62999999998,
      "d": 254.86987500000396,
      "v": 67
    },
    {
      "midi": 57,
      "hit": false,
      "t": 110649.23999999999,
      "d": 1017.8561250000057,
      "v": 112
    },
    {
      "midi": 45,
      "hit": false,
      "t": 110649.23999999999,
      "d": 1025.9730000000127,
      "v": 112
    },
    {
      "midi": 62,
      "hit": false,
      "t": 110649.23999999999,
      "d": 1066.5573750000185,
      "v": 118
    },
    {
      "midi": 45,
      "hit": false,
      "t": 111818.07,
      "d": 303.5711250000022,
      "v": 106
    },
    {
      "midi": 57,
      "hit": false,
      "t": 111818.07,
      "d": 332.79187499999534,
      "v": 94
    },
    {
      "midi": 61,
      "hit": false,
      "t": 111818.07,
      "d": 349.02562499999476,
      "v": 103
    },
    {
      "midi": 57,
      "hit": false,
      "t": 112207.68000000001,
      "d": 811.6874999999854,
      "v": 103
    },
    {
      "midi": 61,
      "hit": false,
      "t": 112207.68000000001,
      "d": 819.8043749999924,
      "v": 106
    },
    {
      "midi": 45,
      "hit": false,
      "t": 112207.68000000001,
      "d": 847.40174999999,
      "v": 109
    },
    {
      "midi": 74,
      "hit": false,
      "t": 112597.29000000001,
      "d": 222.40237499999057,
      "v": 112
    },
    {
      "midi": 73,
      "hit": false,
      "t": 112792.095,
      "d": 211.03874999999243,
      "v": 124
    },
    {
      "midi": 69,
      "hit": false,
      "t": 112986.9,
      "d": 178.57125000000815,
      "v": 121
    },
    {
      "midi": 64,
      "hit": false,
      "t": 113181.705,
      "d": 181.8179999999993,
      "v": 121
    },
    {
      "midi": 62,
      "hit": false,
      "t": 113376.51,
      "d": 227.27249999999185,
      "v": 115
    },
    {
      "midi": 61,
      "hit": false,
      "t": 113571.31499999999,
      "d": 194.80499999999302,
      "v": 118
    },
    {
      "midi": 45,
      "hit": false,
      "t": 113766.11999999998,
      "d": 373.37625000000116,
      "v": 121
    },
    {
      "midi": 55,
      "hit": false,
      "t": 113766.11999999998,
      "d": 506.4930000000022,
      "v": 112
    },
    {
      "midi": 59,
      "hit": false,
      "t": 113766.11999999998,
      "d": 689.9343750000116,
      "v": 112
    },
    {
      "midi": 62,
      "hit": false,
      "t": 113766.11999999998,
      "d": 693.1811250000173,
      "v": 106
    },
    {
      "midi": 64,
      "hit": false,
      "t": 113766.11999999998,
      "d": 693.1811250000173,
      "v": 103
    },
    {
      "midi": 45,
      "hit": false,
      "t": 114350.53499999999,
      "d": 441.55800000000454,
      "v": 109
    },
    {
      "midi": 55,
      "hit": false,
      "t": 114545.34,
      "d": 246.75299999999697,
      "v": 96
    },
    {
      "midi": 62,
      "hit": false,
      "t": 114545.34,
      "d": 262.9867499999964,
      "v": 92
    },
    {
      "midi": 64,
      "hit": false,
      "t": 114545.34,
      "d": 267.8568749999977,
      "v": 98
    },
    {
      "midi": 59,
      "hit": false,
      "t": 114545.34,
      "d": 271.1036250000034,
      "v": 90
    },
    {
      "midi": 45,
      "hit": false,
      "t": 114934.95,
      "d": 551.9474999999948,
      "v": 121
    },
    {
      "midi": 61,
      "hit": false,
      "t": 114934.95,
      "d": 1720.777499999982,
      "v": 118
    },
    {
      "midi": 57,
      "hit": false,
      "t": 114934.95,
      "d": 1728.894374999989,
      "v": 109
    },
    {
      "midi": 64,
      "hit": false,
      "t": 114934.95,
      "d": 1737.011249999996,
      "v": 103
    },
    {
      "midi": 81,
      "hit": false,
      "t": 115714.17,
      "d": 319.80487500000163,
      "v": 121
    },
    {
      "midi": 69,
      "hit": false,
      "t": 115714.17,
      "d": 332.79187499999534,
      "v": 121
    },
    {
      "midi": 45,
      "hit": false,
      "t": 115714.17,
      "d": 383.1164999999892,
      "v": 115
    },
    {
      "midi": 81,
      "hit": false,
      "t": 116103.77999999998,
      "d": 284.0906249999971,
      "v": 121
    },
    {
      "midi": 69,
      "hit": false,
      "t": 116103.77999999998,
      "d": 311.68799999999464,
      "v": 121
    },
    {
      "midi": 47,
      "hit": false,
      "t": 116103.77999999998,
      "d": 368.5061249999999,
      "v": 118
    },
    {
      "midi": 79,
      "hit": false,
      "t": 116493.38999999998,
      "d": 275.97375000000466,
      "v": 103
    },
    {
      "midi": 67,
      "hit": false,
      "t": 116493.38999999998,
      "d": 284.09062500001164,
      "v": 100
    },
    {
      "midi": 49,
      "hit": false,
      "t": 116493.38999999998,
      "d": 303.57112500001676,
      "v": 118
    },
    {
      "midi": 57,
      "hit": false,
      "t": 116883,
      "d": 538.960500000001,
      "v": 112
    },
    {
      "midi": 62,
      "hit": false,
      "t": 116883,
      "d": 660.713625000004,
      "v": 106
    },
    {
      "midi": 67,
      "hit": false,
      "t": 116883,
      "d": 1095.7781250000116,
      "v": 100
    },
    {
      "midi": 38,
      "hit": false,
      "t": 116883,
      "d": 2321.4262500000186,
      "v": 115
    },
    {
      "midi": 50,
      "hit": false,
      "t": 117272.61,
      "d": 490.2592500000028,
      "v": 100
    },
    {
      "midi": 57,
      "hit": false,
      "t": 117662.22,
      "d": 311.6880000000092,
      "v": 92
    },
    {
      "midi": 66,
      "hit": false,
      "t": 118051.83000000002,
      "d": 267.8568749999977,
      "v": 73
    },
    {
      "midi": 50,
      "hit": false,
      "t": 118051.83000000002,
      "d": 292.2075000000041,
      "v": 92
    },
    {
      "midi": 57,
      "hit": false,
      "t": 118051.83000000002,
      "d": 295.4542500000098,
      "v": 98
    },
    {
      "midi": 62,
      "hit": false,
      "t": 118051.83000000002,
      "d": 340.9087500000169,
      "v": 96
    },
    {
      "midi": 62,
      "hit": false,
      "t": 118441.44000000003,
      "d": 543.8306250000023,
      "v": 106
    },
    {
      "midi": 66,
      "hit": false,
      "t": 118441.44000000003,
      "d": 592.5318750000006,
      "v": 115
    },
    {
      "midi": 57,
      "hit": false,
      "t": 118441.44000000003,
      "d": 738.6356249999953,
      "v": 112
    },
    {
      "midi": 50,
      "hit": false,
      "t": 118441.44000000003,
      "d": 749.9992499999935,
      "v": 100
    },
    {
      "midi": 64,
      "hit": false,
      "t": 119220.66000000002,
      "d": 730.5187500000029,
      "v": 94
    },
    {
      "midi": 61,
      "hit": false,
      "t": 119220.66000000002,
      "d": 733.7655000000086,
      "v": 82
    },
    {
      "midi": 57,
      "hit": false,
      "t": 119220.66000000002,
      "d": 741.8823750000156,
      "v": 94
    },
    {
      "midi": 49,
      "hit": false,
      "t": 119220.66000000002,
      "d": 772.7265000000189,
      "v": 103
    },
    {
      "midi": 37,
      "hit": false,
      "t": 119236.89375000002,
      "d": 749.9992500000226,
      "v": 100
    },
    {
      "midi": 57,
      "hit": false,
      "t": 119999.88000000003,
      "d": 490.2592500000028,
      "v": 109
    },
    {
      "midi": 64,
      "hit": false,
      "t": 119999.88000000003,
      "d": 514.6098750000092,
      "v": 106
    },
    {
      "midi": 61,
      "hit": false,
      "t": 119999.88000000003,
      "d": 522.7267500000162,
      "v": 112
    },
    {
      "midi": 35,
      "hit": false,
      "t": 119999.88000000003,
      "d": 936.6873750000377,
      "v": 118
    },
    {
      "midi": 47,
      "hit": false,
      "t": 120584.29500000006,
      "d": 344.15550000000803,
      "v": 121
    },
    {
      "midi": 57,
      "hit": false,
      "t": 120779.10000000005,
      "d": 105.51937500000349,
      "v": 124
    },
    {
      "midi": 64,
      "hit": false,
      "t": 120779.10000000005,
      "d": 105.51937500000349,
      "v": 124
    },
    {
      "midi": 61,
      "hit": false,
      "t": 120779.10000000005,
      "d": 108.7661250000092,
      "v": 124
    },
    {
      "midi": 35,
      "hit": false,
      "t": 121168.71000000006,
      "d": 506.4930000000022,
      "v": 115
    },
    {
      "midi": 47,
      "hit": false,
      "t": 121168.71000000006,
      "d": 584.4150000000081,
      "v": 121
    },
    {
      "midi": 66,
      "hit": false,
      "t": 121168.71000000006,
      "d": 1785.7125000000087,
      "v": 118
    },
    {
      "midi": 63,
      "hit": false,
      "t": 121168.71000000006,
      "d": 1793.8293750000157,
      "v": 121
    },
    {
      "midi": 59,
      "hit": false,
      "t": 121168.71000000006,
      "d": 1810.0631250000151,
      "v": 118
    },
    {
      "midi": 83,
      "hit": false,
      "t": 121947.93000000007,
      "d": 262.9867499999964,
      "v": 118
    },
    {
      "midi": 71,
      "hit": false,
      "t": 121947.93000000007,
      "d": 267.8568749999977,
      "v": 121
    },
    {
      "midi": 35,
      "hit": false,
      "t": 121947.93000000007,
      "d": 319.80487500000163,
      "v": 121
    },
    {
      "midi": 83,
      "hit": false,
      "t": 122337.54000000007,
      "d": 271.1036250000034,
      "v": 121
    },
    {
      "midi": 71,
      "hit": false,
      "t": 122337.54000000007,
      "d": 295.4542500000098,
      "v": 124
    },
    {
      "midi": 37,
      "hit": false,
      "t": 122337.54000000007,
      "d": 383.1165000000037,
      "v": 124
    },
    {
      "midi": 81,
      "hit": false,
      "t": 122727.15000000007,
      "d": 254.8698750000185,
      "v": 103
    },
    {
      "midi": 69,
      "hit": false,
      "t": 122727.15000000007,
      "d": 275.9737500000192,
      "v": 112
    },
    {
      "midi": 39,
      "hit": false,
      "t": 122727.15000000007,
      "d": 383.1165000000183,
      "v": 125
    },
    {
      "midi": 62,
      "hit": false,
      "t": 123116.76000000008,
      "d": 933.4406250000029,
      "v": 115
    },
    {
      "midi": 66,
      "hit": false,
      "t": 123116.76000000008,
      "d": 961.0380000000005,
      "v": 112
    },
    {
      "midi": 57,
      "hit": false,
      "t": 123116.76000000008,
      "d": 1001.6223750000063,
      "v": 118
    },
    {
      "midi": 40,
      "hit": false,
      "t": 123116.76000000008,
      "d": 1120.1287500000035,
      "v": 121
    },
    {
      "midi": 40,
      "hit": false,
      "t": 124285.59000000008,
      "d": 311.68799999999464,
      "v": 90
    },
    {
      "midi": 64,
      "hit": false,
      "t": 124285.59000000008,
      "d": 336.03862500000105,
      "v": 86
    },
    {
      "midi": 59,
      "hit": false,
      "t": 124285.59000000008,
      "d": 340.9087500000023,
      "v": 82
    },
    {
      "midi": 56,
      "hit": false,
      "t": 124285.59000000008,
      "d": 344.15550000000803,
      "v": 90
    },
    {
      "midi": 56,
      "hit": false,
      "t": 124675.2000000001,
      "d": 628.2461250000051,
      "v": 109
    },
    {
      "midi": 40,
      "hit": false,
      "t": 124675.2000000001,
      "d": 917.2068750000035,
      "v": 112
    },
    {
      "midi": 59,
      "hit": false,
      "t": 124675.2000000001,
      "d": 1366.8817500000005,
      "v": 106
    },
    {
      "midi": 64,
      "hit": false,
      "t": 124675.2000000001,
      "d": 1383.1154999999999,
      "v": 109
    },
    {
      "midi": 56,
      "hit": false,
      "t": 125454.4200000001,
      "d": 620.1292499999981,
      "v": 84
    },
    {
      "midi": 40,
      "hit": false,
      "t": 125844.0300000001,
      "d": 275.97375000000466,
      "v": 94
    },
    {
      "midi": 37,
      "hit": false,
      "t": 126233.6400000001,
      "d": 482.1423749999958,
      "v": 125
    },
    {
      "midi": 66,
      "hit": false,
      "t": 126233.6400000001,
      "d": 1001.6223749999917,
      "v": 112
    },
    {
      "midi": 61,
      "hit": false,
      "t": 126233.6400000001,
      "d": 1006.492499999993,
      "v": 118
    },
    {
      "midi": 59,
      "hit": false,
      "t": 126233.6400000001,
      "d": 1017.8561249999912,
      "v": 118
    },
    {
      "midi": 64,
      "hit": false,
      "t": 126233.6400000001,
      "d": 1034.0898749999906,
      "v": 121
    },
    {
      "midi": 37,
      "hit": false,
      "t": 126818.0550000001,
      "d": 373.37625000000116,
      "v": 121
    },
    {
      "midi": 42,
      "hit": false,
      "t": 127402.47000000009,
      "d": 649.3500000000058,
      "v": 125
    },
    {
      "midi": 59,
      "hit": false,
      "t": 127402.47000000009,
      "d": 900.9731250000041,
      "v": 109
    },
    {
      "midi": 64,
      "hit": false,
      "t": 127402.47000000009,
      "d": 900.9731250000041,
      "v": 115
    },
    {
      "midi": 66,
      "hit": false,
      "t": 127402.47000000009,
      "d": 928.5705000000016,
      "v": 115
    },
    {
      "midi": 61,
      "hit": false,
      "t": 127402.47000000009,
      "d": 977.2717499999999,
      "v": 121
    },
    {
      "midi": 42,
      "hit": false,
      "t": 128181.69000000009,
      "d": 267.8568749999977,
      "v": 121
    },
    {
      "midi": 58,
      "hit": false,
      "t": 128571.30000000009,
      "d": 600.648749999993,
      "v": 121
    },
    {
      "midi": 61,
      "hit": false,
      "t": 128571.30000000009,
      "d": 600.648749999993,
      "v": 121
    },
    {
      "midi": 66,
      "hit": false,
      "t": 128571.30000000009,
      "d": 636.3629999999976,
      "v": 112
    },
    {
      "midi": 42,
      "hit": false,
      "t": 128571.30000000009,
      "d": 644.4798750000045,
      "v": 121
    },
    {
      "midi": 54,
      "hit": false,
      "t": 129350.52000000009,
      "d": 522.7267500000016,
      "v": 80
    },
    {
      "midi": 59,
      "hit": false,
      "t": 129350.52000000009,
      "d": 722.4018749999959,
      "v": 90
    },
    {
      "midi": 64,
      "hit": false,
      "t": 129350.52000000009,
      "d": 1022.726250000007,
      "v": 92
    },
    {
      "midi": 35,
      "hit": false,
      "t": 129350.52000000009,
      "d": 1813.3098750000208,
      "v": 90
    },
    {
      "midi": 47,
      "hit": false,
      "t": 129740.13000000009,
      "d": 1586.0373750000435,
      "v": 84
    },
    {
      "midi": 54,
      "hit": false,
      "t": 130129.74000000009,
      "d": 275.97375000000466,
      "v": 90
    },
    {
      "midi": 59,
      "hit": false,
      "t": 130129.74000000009,
      "d": 303.5711250000022,
      "v": 62
    },
    {
      "midi": 54,
      "hit": false,
      "t": 130519.3500000001,
      "d": 308.4412500000035,
      "v": 78
    },
    {
      "midi": 63,
      "hit": false,
      "t": 130519.3500000001,
      "d": 327.9217500000086,
      "v": 75
    },
    {
      "midi": 59,
      "hit": false,
      "t": 130519.3500000001,
      "d": 336.0386250000156,
      "v": 73
    },
    {
      "midi": 54,
      "hit": false,
      "t": 130908.96000000011,
      "d": 803.5706250000221,
      "v": 98
    },
    {
      "midi": 59,
      "hit": false,
      "t": 130908.96000000011,
      "d": 952.9211250000226,
      "v": 103
    },
    {
      "midi": 63,
      "hit": false,
      "t": 130908.96000000011,
      "d": 1444.803750000021,
      "v": 103
    },
    {
      "midi": 35,
      "hit": false,
      "t": 131298.57000000012,
      "d": 1042.206750000012,
      "v": 92
    },
    {
      "midi": 47,
      "hit": false,
      "t": 131688.18000000014,
      "d": 706.1681249999965,
      "v": 82
    },
    {
      "midi": 59,
      "hit": false,
      "t": 132077.79000000012,
      "d": 284.09062500001164,
      "v": 88
    },
    {
      "midi": 59,
      "hit": false,
      "t": 132467.40000000014,
      "d": 422.07749999998487,
      "v": 103
    },
    {
      "midi": 63,
      "hit": false,
      "t": 132467.40000000014,
      "d": 454.5449999999837,
      "v": 94
    },
    {
      "midi": 54,
      "hit": false,
      "t": 132467.40000000014,
      "d": 709.4148749999877,
      "v": 100
    },
    {
      "midi": 35,
      "hit": false,
      "t": 132467.40000000014,
      "d": 2938.3087499999965,
      "v": 98
    },
    {
      "midi": 61,
      "hit": false,
      "t": 132857.01000000013,
      "d": 303.57112499998766,
      "v": 73
    },
    {
      "midi": 54,
      "hit": false,
      "t": 133246.62000000014,
      "d": 287.3373750000028,
      "v": 90
    },
    {
      "midi": 61,
      "hit": false,
      "t": 133246.62000000014,
      "d": 368.50612500001444,
      "v": 94
    },
    {
      "midi": 59,
      "hit": false,
      "t": 133636.23000000016,
      "d": 308.4412500000035,
      "v": 49
    },
    {
      "midi": 54,
      "hit": false,
      "t": 133636.23000000016,
      "d": 324.67500000001746,
      "v": 71
    },
    {
      "midi": 59,
      "hit": false,
      "t": 134025.84000000017,
      "d": 376.6229999999923,
      "v": 103
    },
    {
      "midi": 54,
      "hit": false,
      "t": 134025.84000000017,
      "d": 709.4148749999877,
      "v": 84
    },
    {
      "midi": 47,
      "hit": false,
      "t": 134025.84000000017,
      "d": 1436.6868749999558,
      "v": 96
    },
    {
      "midi": 57,
      "hit": false,
      "t": 134415.45000000016,
      "d": 324.67499999998836,
      "v": 76
    },
    {
      "midi": 54,
      "hit": false,
      "t": 134805.06000000014,
      "d": 612.0123749999912,
      "v": 92
    },
    {
      "midi": 57,
      "hit": false,
      "t": 134805.06000000014,
      "d": 660.7136249999749,
      "v": 96
    },
    {
      "midi": 66,
      "hit": false,
      "t": 134805.06000000014,
      "d": 676.9473749999888,
      "v": 103
    },
    {
      "midi": 63,
      "hit": false,
      "t": 134999.86500000014,
      "d": 482.1423749999958,
      "v": 92
    },
    {
      "midi": 59,
      "hit": false,
      "t": 135194.67000000013,
      "d": 308.4412500000035,
      "v": 88
    },
    {
      "midi": 59,
      "hit": false,
      "t": 135584.28000000014,
      "d": 482.1423749999958,
      "v": 100
    },
    {
      "midi": 64,
      "hit": false,
      "t": 135584.28000000014,
      "d": 676.9473749999888,
      "v": 106
    },
    {
      "midi": 69,
      "hit": false,
      "t": 135584.28000000014,
      "d": 1456.16737499999,
      "v": 100
    },
    {
      "midi": 40,
      "hit": false,
      "t": 135584.28000000014,
      "d": 1477.2712499999907,
      "v": 106
    },
    {
      "midi": 52,
      "hit": false,
      "t": 135973.89000000013,
      "d": 1139.6092500000086,
      "v": 83
    },
    {
      "midi": 59,
      "hit": false,
      "t": 136363.50000000015,
      "d": 344.1554999999935,
      "v": 100
    },
    {
      "midi": 64,
      "hit": false,
      "t": 136753.11000000013,
      "d": 292.2074999999895,
      "v": 92
    },
    {
      "midi": 59,
      "hit": false,
      "t": 136753.11000000013,
      "d": 308.4412500000035,
      "v": 73
    },
    {
      "midi": 59,
      "hit": false,
      "t": 137142.72000000015,
      "d": 365.2593749999942,
      "v": 86
    },
    {
      "midi": 52,
      "hit": false,
      "t": 137142.72000000015,
      "d": 397.726874999993,
      "v": 90
    },
    {
      "midi": 40,
      "hit": false,
      "t": 137142.72000000015,
      "d": 422.07749999998487,
      "v": 96
    },
    {
      "midi": 68,
      "hit": false,
      "t": 137142.72000000015,
      "d": 600.648749999993,
      "v": 100
    },
    {
      "midi": 64,
      "hit": false,
      "t": 137142.72000000015,
      "d": 649.3500000000058,
      "v": 94
    },
    {
      "midi": 59,
      "hit": false,
      "t": 137727.13500000013,
      "d": 121.75312500001746,
      "v": 92
    },
    {
      "midi": 59,
      "hit": false,
      "t": 137921.94000000015,
      "d": 227.27249999999185,
      "v": 92
    },
    {
      "midi": 39,
      "hit": false,
      "t": 137921.94000000015,
      "d": 603.8954999999842,
      "v": 98
    },
    {
      "midi": 68,
      "hit": false,
      "t": 137921.94000000015,
      "d": 603.8954999999842,
      "v": 98
    },
    {
      "midi": 51,
      "hit": false,
      "t": 137921.94000000015,
      "d": 616.8824999999779,
      "v": 94
    },
    {
      "midi": 63,
      "hit": false,
      "t": 138116.74500000014,
      "d": 438.31124999999884,
      "v": 92
    },
    {
      "midi": 59,
      "hit": false,
      "t": 138311.55000000013,
      "d": 336.0386250000156,
      "v": 92
    },
    {
      "midi": 56,
      "hit": false,
      "t": 138701.16000000015,
      "d": 766.2330000000075,
      "v": 98
    },
    {
      "midi": 61,
      "hit": false,
      "t": 138701.16000000015,
      "d": 868.5056249999907,
      "v": 103
    },
    {
      "midi": 66,
      "hit": false,
      "t": 138701.16000000015,
      "d": 1038.9599999999919,
      "v": 100
    },
    {
      "midi": 37,
      "hit": false,
      "t": 138701.16000000015,
      "d": 1423.6998749999912,
      "v": 106
    },
    {
      "midi": 49,
      "hit": false,
      "t": 139480.38000000015,
      "d": 668.8304999999818,
      "v": 88
    },
    {
      "midi": 56,
      "hit": false,
      "t": 139675.18500000014,
      "d": 422.07749999998487,
      "v": 65
    },
    {
      "midi": 61,
      "hit": false,
      "t": 139869.99000000014,
      "d": 349.0256250000093,
      "v": 78
    },
    {
      "midi": 66,
      "hit": false,
      "t": 140064.79500000013,
      "d": 188.3115000000107,
      "v": 98
    },
    {
      "midi": 56,
      "hit": false,
      "t": 140259.60000000015,
      "d": 600.648749999993,
      "v": 90
    },
    {
      "midi": 61,
      "hit": false,
      "t": 140259.60000000015,
      "d": 779.2200000000012,
      "v": 98
    },
    {
      "midi": 37,
      "hit": false,
      "t": 140259.60000000015,
      "d": 1293.8298749999958,
      "v": 92
    },
    {
      "midi": 64,
      "hit": false,
      "t": 140259.60000000015,
      "d": 1306.8168749999895,
      "v": 106
    },
    {
      "midi": 49,
      "hit": false,
      "t": 140259.60000000015,
      "d": 1383.1155000000144,
      "v": 86
    },
    {
      "midi": 56,
      "hit": false,
      "t": 141038.82000000015,
      "d": 555.1942500000005,
      "v": 74
    },
    {
      "midi": 61,
      "hit": false,
      "t": 141428.43000000014,
      "d": 295.4542500000389,
      "v": 80
    },
    {
      "midi": 54,
      "hit": false,
      "t": 141818.04000000018,
      "d": 871.7523750000109,
      "v": 103
    },
    {
      "midi": 66,
      "hit": false,
      "t": 141818.04000000018,
      "d": 1103.8950000000186,
      "v": 106
    },
    {
      "midi": 59,
      "hit": false,
      "t": 141818.04000000018,
      "d": 1176.9468750000233,
      "v": 103
    },
    {
      "midi": 42,
      "hit": false,
      "t": 141818.04000000018,
      "d": 1821.4267500000133,
      "v": 98
    },
    {
      "midi": 49,
      "hit": false,
      "t": 142597.26000000018,
      "d": 1123.3754999999946,
      "v": 78
    },
    {
      "midi": 54,
      "hit": false,
      "t": 142986.8700000002,
      "d": 336.0386249999865,
      "v": 90
    },
    {
      "midi": 59,
      "hit": false,
      "t": 143181.6750000002,
      "d": 141.23362499999348,
      "v": 80
    },
    {
      "midi": 59,
      "hit": false,
      "t": 143376.48000000019,
      "d": 284.09062500001164,
      "v": 106
    },
    {
      "midi": 66,
      "hit": false,
      "t": 143376.48000000019,
      "d": 319.80487500000163,
      "v": 106
    },
    {
      "midi": 54,
      "hit": false,
      "t": 143376.48000000019,
      "d": 324.67499999998836,
      "v": 103
    },
    {
      "midi": 49,
      "hit": false,
      "t": 143766.09000000017,
      "d": 251.6231250000128,
      "v": 82
    },
    {
      "midi": 54,
      "hit": false,
      "t": 143766.09000000017,
      "d": 422.07750000001397,
      "v": 74
    },
    {
      "midi": 58,
      "hit": false,
      "t": 143766.09000000017,
      "d": 624.999375000014,
      "v": 92
    },
    {
      "midi": 42,
      "hit": false,
      "t": 143766.09000000017,
      "d": 993.5054999999993,
      "v": 88
    },
    {
      "midi": 66,
      "hit": false,
      "t": 143766.09000000017,
      "d": 998.375624999986,
      "v": 64
    },
    {
      "midi": 49,
      "hit": false,
      "t": 144155.7000000002,
      "d": 722.4018749999523,
      "v": 77
    },
    {
      "midi": 58,
      "hit": false,
      "t": 144545.31000000017,
      "d": 254.86987499997485,
      "v": 67
    },
    {
      "midi": 54,
      "hit": false,
      "t": 144934.92000000013,
      "d": 754.8693750000093,
      "v": 96
    },
    {
      "midi": 59,
      "hit": false,
      "t": 144934.92000000013,
      "d": 855.518624999997,
      "v": 96
    },
    {
      "midi": 64,
      "hit": false,
      "t": 144934.92000000013,
      "d": 1022.726250000007,
      "v": 98
    },
    {
      "midi": 35,
      "hit": false,
      "t": 144934.92000000013,
      "d": 2313.3093750000116,
      "v": 100
    },
    {
      "midi": 47,
      "hit": false,
      "t": 145714.14000000013,
      "d": 592.5318750000151,
      "v": 92
    },
    {
      "midi": 54,
      "hit": false,
      "t": 145908.94500000012,
      "d": 1326.2973750000237,
      "v": 80
    },
    {
      "midi": 59,
      "hit": false,
      "t": 146103.75000000015,
      "d": 1123.3754999999946,
      "v": 84
    },
    {
      "midi": 64,
      "hit": false,
      "t": 146298.55500000014,
      "d": 202.921875,
      "v": 92
    },
    {
      "midi": 63,
      "hit": false,
      "t": 146493.36000000013,
      "d": 668.8305000000109,
      "v": 103
    },
    {
      "midi": 47,
      "hit": false,
      "t": 146493.36000000013,
      "d": 709.4148750000168,
      "v": 92
    },
    {
      "midi": 64,
      "hit": false,
      "t": 147272.58000000013,
      "d": 522.7267500000016,
      "v": 78
    },
    {
      "midi": 54,
      "hit": false,
      "t": 147272.58000000013,
      "d": 538.9605000000156,
      "v": 72
    },
    {
      "midi": 58,
      "hit": false,
      "t": 147272.58000000013,
      "d": 547.0773750000226,
      "v": 73
    },
    {
      "midi": 42,
      "hit": false,
      "t": 147272.58000000013,
      "d": 701.2980000000098,
      "v": 72
    },
    {
      "midi": 46,
      "hit": false,
      "t": 147272.58000000013,
      "d": 701.2980000000098,
      "v": 86
    },
    {
      "midi": 54,
      "hit": false,
      "t": 148051.80000000013,
      "d": 522.7267499999725,
      "v": 80
    },
    {
      "midi": 59,
      "hit": false,
      "t": 148051.80000000013,
      "d": 722.4018749999814,
      "v": 90
    },
    {
      "midi": 64,
      "hit": false,
      "t": 148051.80000000013,
      "d": 1022.7262499999779,
      "v": 92
    },
    {
      "midi": 35,
      "hit": false,
      "t": 148051.80000000013,
      "d": 1813.3098750000063,
      "v": 90
    },
    {
      "midi": 47,
      "hit": false,
      "t": 148441.41000000012,
      "d": 1586.0373750000435,
      "v": 84
    },
    {
      "midi": 54,
      "hit": false,
      "t": 148831.0200000001,
      "d": 275.97375000000466,
      "v": 90
    },
    {
      "midi": 59,
      "hit": false,
      "t": 148831.0200000001,
      "d": 303.57112500001676,
      "v": 62
    },
    {
      "midi": 54,
      "hit": false,
      "t": 149220.63000000012,
      "d": 308.4412500000035,
      "v": 78
    },
    {
      "midi": 63,
      "hit": false,
      "t": 149220.63000000012,
      "d": 327.9217500000086,
      "v": 75
    },
    {
      "midi": 59,
      "hit": false,
      "t": 149220.63000000012,
      "d": 368.50612500001444,
      "v": 73
    },
    {
      "midi": 54,
      "hit": false,
      "t": 149610.24000000014,
      "d": 803.5706250000221,
      "v": 98
    },
    {
      "midi": 59,
      "hit": false,
      "t": 149610.24000000014,
      "d": 952.9211250000226,
      "v": 103
    },
    {
      "midi": 63,
      "hit": false,
      "t": 149610.24000000014,
      "d": 1444.803750000021,
      "v": 103
    },
    {
      "midi": 35,
      "hit": false,
      "t": 149999.85000000015,
      "d": 1042.206750000012,
      "v": 92
    },
    {
      "midi": 47,
      "hit": false,
      "t": 150389.46000000017,
      "d": 706.1681249999965,
      "v": 82
    },
    {
      "midi": 59,
      "hit": false,
      "t": 150779.07000000015,
      "d": 284.09062500001164,
      "v": 88
    },
    {
      "midi": 59,
      "hit": false,
      "t": 151168.68000000017,
      "d": 422.07749999998487,
      "v": 103
    },
    {
      "midi": 63,
      "hit": false,
      "t": 151168.68000000017,
      "d": 454.5449999999837,
      "v": 94
    },
    {
      "midi": 54,
      "hit": false,
      "t": 151168.68000000017,
      "d": 709.4148749999877,
      "v": 100
    },
    {
      "midi": 35,
      "hit": false,
      "t": 151168.68000000017,
      "d": 2938.3087499999674,
      "v": 98
    },
    {
      "midi": 61,
      "hit": false,
      "t": 151558.29000000015,
      "d": 303.57112499998766,
      "v": 73
    },
    {
      "midi": 54,
      "hit": false,
      "t": 151947.90000000017,
      "d": 287.3373750000028,
      "v": 90
    },
    {
      "midi": 61,
      "hit": false,
      "t": 151947.90000000017,
      "d": 368.50612500001444,
      "v": 94
    },
    {
      "midi": 59,
      "hit": false,
      "t": 152337.51000000018,
      "d": 308.4412500000035,
      "v": 59
    },
    {
      "midi": 54,
      "hit": false,
      "t": 152337.51000000018,
      "d": 324.67500000001746,
      "v": 71
    },
    {
      "midi": 59,
      "hit": false,
      "t": 152727.1200000002,
      "d": 376.6229999999923,
      "v": 103
    },
    {
      "midi": 54,
      "hit": false,
      "t": 152727.1200000002,
      "d": 709.4148749999877,
      "v": 84
    },
    {
      "midi": 47,
      "hit": false,
      "t": 152727.1200000002,
      "d": 1436.6868749999267,
      "v": 96
    },
    {
      "midi": 57,
      "hit": false,
      "t": 153116.73000000019,
      "d": 324.67499999998836,
      "v": 65
    },
    {
      "midi": 57,
      "hit": false,
      "t": 153506.34000000017,
      "d": 595.7786249999772,
      "v": 96
    },
    {
      "midi": 54,
      "hit": false,
      "t": 153506.34000000017,
      "d": 612.012374999962,
      "v": 92
    },
    {
      "midi": 66,
      "hit": false,
      "t": 153506.34000000017,
      "d": 676.9473749999597,
      "v": 103
    },
    {
      "midi": 63,
      "hit": false,
      "t": 153701.14500000016,
      "d": 482.1423749999667,
      "v": 92
    },
    {
      "midi": 59,
      "hit": false,
      "t": 153895.95000000016,
      "d": 211.03874999997788,
      "v": 88
    },
    {
      "midi": 59,
      "hit": false,
      "t": 154285.56000000014,
      "d": 482.1423749999958,
      "v": 100
    },
    {
      "midi": 64,
      "hit": false,
      "t": 154285.56000000014,
      "d": 676.9473749999888,
      "v": 106
    },
    {
      "midi": 69,
      "hit": false,
      "t": 154285.56000000014,
      "d": 1456.16737499999,
      "v": 101
    },
    {
      "midi": 40,
      "hit": false,
      "t": 154285.56000000014,
      "d": 1477.2712499999907,
      "v": 106
    },
    {
      "midi": 52,
      "hit": false,
      "t": 154675.17000000013,
      "d": 1139.6092500000086,
      "v": 79
    },
    {
      "midi": 59,
      "hit": false,
      "t": 155064.78000000014,
      "d": 344.1554999999935,
      "v": 100
    },
    {
      "midi": 64,
      "hit": false,
      "t": 155454.39000000013,
      "d": 292.2074999999895,
      "v": 92
    },
    {
      "midi": 59,
      "hit": false,
      "t": 155454.39000000013,
      "d": 308.4412500000035,
      "v": 73
    },
    {
      "midi": 59,
      "hit": false,
      "t": 155844.00000000015,
      "d": 365.2593749999942,
      "v": 86
    },
    {
      "midi": 52,
      "hit": false,
      "t": 155844.00000000015,
      "d": 397.726874999993,
      "v": 90
    },
    {
      "midi": 40,
      "hit": false,
      "t": 155844.00000000015,
      "d": 422.07749999998487,
      "v": 96
    },
    {
      "midi": 68,
      "hit": false,
      "t": 155844.00000000015,
      "d": 600.648749999993,
      "v": 100
    },
    {
      "midi": 64,
      "hit": false,
      "t": 155844.00000000015,
      "d": 649.3500000000058,
      "v": 94
    },
    {
      "midi": 59,
      "hit": false,
      "t": 156428.41500000012,
      "d": 121.75312500001746,
      "v": 92
    },
    {
      "midi": 59,
      "hit": false,
      "t": 156623.22000000015,
      "d": 227.27249999999185,
      "v": 92
    },
    {
      "midi": 39,
      "hit": false,
      "t": 156623.22000000015,
      "d": 603.8954999999842,
      "v": 98
    },
    {
      "midi": 68,
      "hit": false,
      "t": 156623.22000000015,
      "d": 603.8954999999842,
      "v": 98
    },
    {
      "midi": 51,
      "hit": false,
      "t": 156623.22000000015,
      "d": 616.8824999999779,
      "v": 94
    },
    {
      "midi": 63,
      "hit": false,
      "t": 156818.02500000014,
      "d": 438.31124999999884,
      "v": 92
    },
    {
      "midi": 59,
      "hit": false,
      "t": 157012.83000000013,
      "d": 206.16862499999115,
      "v": 92
    },
    {
      "midi": 56,
      "hit": false,
      "t": 157402.44000000015,
      "d": 766.2330000000075,
      "v": 98
    },
    {
      "midi": 61,
      "hit": false,
      "t": 157402.44000000015,
      "d": 868.5056249999907,
      "v": 103
    },
    {
      "midi": 66,
      "hit": false,
      "t": 157402.44000000015,
      "d": 1038.9599999999919,
      "v": 100
    },
    {
      "midi": 37,
      "hit": false,
      "t": 157402.44000000015,
      "d": 1488.6348749999888,
      "v": 106
    },
    {
      "midi": 49,
      "hit": false,
      "t": 158181.66000000015,
      "d": 733.7654999999795,
      "v": 88
    },
    {
      "midi": 56,
      "hit": false,
      "t": 158376.46500000014,
      "d": 422.07749999998487,
      "v": 65
    },
    {
      "midi": 61,
      "hit": false,
      "t": 158571.27000000014,
      "d": 349.0256249999802,
      "v": 78
    },
    {
      "midi": 66,
      "hit": false,
      "t": 158766.07500000013,
      "d": 188.3114999999816,
      "v": 98
    },
    {
      "midi": 56,
      "hit": false,
      "t": 158960.88000000012,
      "d": 600.648749999993,
      "v": 90
    },
    {
      "midi": 61,
      "hit": false,
      "t": 158960.88000000012,
      "d": 779.2200000000012,
      "v": 98
    },
    {
      "midi": 37,
      "hit": false,
      "t": 158960.88000000012,
      "d": 1293.8298749999958,
      "v": 92
    },
    {
      "midi": 64,
      "hit": false,
      "t": 158960.88000000012,
      "d": 1306.8168749999895,
      "v": 106
    },
    {
      "midi": 49,
      "hit": false,
      "t": 158960.88000000012,
      "d": 1383.1155000000144,
      "v": 86
    },
    {
      "midi": 56,
      "hit": false,
      "t": 159740.10000000012,
      "d": 555.1942500000005,
      "v": 74
    },
    {
      "midi": 61,
      "hit": false,
      "t": 160129.7100000001,
      "d": 365.2593750000233,
      "v": 77
    },
    {
      "midi": 54,
      "hit": false,
      "t": 160519.32000000012,
      "d": 871.7523750000109,
      "v": 103
    },
    {
      "midi": 66,
      "hit": false,
      "t": 160519.32000000012,
      "d": 1103.8950000000186,
      "v": 106
    },
    {
      "midi": 59,
      "hit": false,
      "t": 160519.32000000012,
      "d": 1176.9468750000233,
      "v": 103
    },
    {
      "midi": 42,
      "hit": false,
      "t": 160519.32000000012,
      "d": 1821.4267500000133,
      "v": 98
    },
    {
      "midi": 49,
      "hit": false,
      "t": 161298.54000000012,
      "d": 1123.3754999999946,
      "v": 78
    },
    {
      "midi": 54,
      "hit": false,
      "t": 161688.15000000014,
      "d": 336.0386249999865,
      "v": 90
    },
    {
      "midi": 59,
      "hit": false,
      "t": 161882.95500000013,
      "d": 141.23362499999348,
      "v": 80
    },
    {
      "midi": 59,
      "hit": false,
      "t": 162077.76000000013,
      "d": 284.09062500001164,
      "v": 106
    },
    {
      "midi": 66,
      "hit": false,
      "t": 162077.76000000013,
      "d": 319.80487500000163,
      "v": 106
    },
    {
      "midi": 54,
      "hit": false,
      "t": 162077.76000000013,
      "d": 324.67499999998836,
      "v": 103
    },
    {
      "midi": 49,
      "hit": false,
      "t": 162467.3700000001,
      "d": 251.6231250000128,
      "v": 82
    },
    {
      "midi": 54,
      "hit": false,
      "t": 162467.3700000001,
      "d": 422.07750000001397,
      "v": 74
    },
    {
      "midi": 58,
      "hit": false,
      "t": 162467.3700000001,
      "d": 624.999375000014,
      "v": 92
    },
    {
      "midi": 42,
      "hit": false,
      "t": 162467.3700000001,
      "d": 993.5054999999993,
      "v": 88
    },
    {
      "midi": 66,
      "hit": false,
      "t": 162467.3700000001,
      "d": 998.375624999986,
      "v": 64
    },
    {
      "midi": 49,
      "hit": false,
      "t": 162856.98000000013,
      "d": 722.4018749999523,
      "v": 77
    },
    {
      "midi": 58,
      "hit": false,
      "t": 163246.5900000001,
      "d": 254.86987499997485,
      "v": 67
    },
    {
      "midi": 59,
      "hit": false,
      "t": 163636.20000000007,
      "d": 1017.8561249999912,
      "v": 112
    },
    {
      "midi": 47,
      "hit": false,
      "t": 163636.20000000007,
      "d": 1025.9729999999981,
      "v": 112
    },
    {
      "midi": 64,
      "hit": false,
      "t": 163636.20000000007,
      "d": 1066.557375000004,
      "v": 118
    },
    {
      "midi": 47,
      "hit": false,
      "t": 164805.0300000001,
      "d": 303.57112499998766,
      "v": 106
    },
    {
      "midi": 59,
      "hit": false,
      "t": 164805.0300000001,
      "d": 332.79187499999534,
      "v": 94
    },
    {
      "midi": 63,
      "hit": false,
      "t": 164805.0300000001,
      "d": 349.0256250000093,
      "v": 103
    },
    {
      "midi": 59,
      "hit": false,
      "t": 165194.6400000001,
      "d": 811.6875000000291,
      "v": 103
    },
    {
      "midi": 63,
      "hit": false,
      "t": 165194.6400000001,
      "d": 819.8043750000361,
      "v": 106
    },
    {
      "midi": 47,
      "hit": false,
      "t": 165194.6400000001,
      "d": 847.4017500000482,
      "v": 109
    },
    {
      "midi": 76,
      "hit": false,
      "t": 165584.2500000001,
      "d": 222.40237500000512,
      "v": 112
    },
    {
      "midi": 75,
      "hit": false,
      "t": 165779.05500000008,
      "d": 211.0387500000361,
      "v": 124
    },
    {
      "midi": 71,
      "hit": false,
      "t": 165973.8600000001,
      "d": 178.57125000003725,
      "v": 121
    },
    {
      "midi": 66,
      "hit": false,
      "t": 166168.66500000015,
      "d": 181.8179999999993,
      "v": 121
    },
    {
      "midi": 64,
      "hit": false,
      "t": 166363.47000000015,
      "d": 227.27249999999185,
      "v": 115
    },
    {
      "midi": 63,
      "hit": false,
      "t": 166558.27500000014,
      "d": 194.80499999999302,
      "v": 118
    },
    {
      "midi": 47,
      "hit": false,
      "t": 166753.08000000013,
      "d": 373.37625000000116,
      "v": 121
    },
    {
      "midi": 57,
      "hit": false,
      "t": 166753.08000000013,
      "d": 506.49299999998766,
      "v": 112
    },
    {
      "midi": 61,
      "hit": false,
      "t": 166753.08000000013,
      "d": 689.9343749999825,
      "v": 112
    },
    {
      "midi": 64,
      "hit": false,
      "t": 166753.08000000013,
      "d": 693.1811249999737,
      "v": 106
    },
    {
      "midi": 66,
      "hit": false,
      "t": 166753.08000000013,
      "d": 693.1811249999737,
      "v": 103
    },
    {
      "midi": 47,
      "hit": false,
      "t": 167337.4950000001,
      "d": 441.55799999999,
      "v": 109
    },
    {
      "midi": 57,
      "hit": false,
      "t": 167532.3000000001,
      "d": 246.75299999999697,
      "v": 96
    },
    {
      "midi": 64,
      "hit": false,
      "t": 167532.3000000001,
      "d": 262.98675000001094,
      "v": 92
    },
    {
      "midi": 66,
      "hit": false,
      "t": 167532.3000000001,
      "d": 267.8568749999977,
      "v": 98
    },
    {
      "midi": 61,
      "hit": false,
      "t": 167532.3000000001,
      "d": 271.1036249999888,
      "v": 90
    },
    {
      "midi": 47,
      "hit": false,
      "t": 167921.9100000001,
      "d": 551.9475000000093,
      "v": 121
    },
    {
      "midi": 63,
      "hit": false,
      "t": 167921.9100000001,
      "d": 1720.7775000000256,
      "v": 118
    },
    {
      "midi": 59,
      "hit": false,
      "t": 167921.9100000001,
      "d": 1728.8943750000326,
      "v": 109
    },
    {
      "midi": 66,
      "hit": false,
      "t": 167921.9100000001,
      "d": 1737.0112500000396,
      "v": 103
    },
    {
      "midi": 83,
      "hit": false,
      "t": 168701.1300000001,
      "d": 319.80487500000163,
      "v": 121
    },
    {
      "midi": 71,
      "hit": false,
      "t": 168701.1300000001,
      "d": 332.79187499999534,
      "v": 121
    },
    {
      "midi": 47,
      "hit": false,
      "t": 168701.1300000001,
      "d": 383.1165000000037,
      "v": 115
    },
    {
      "midi": 83,
      "hit": false,
      "t": 169090.7400000001,
      "d": 284.09062500001164,
      "v": 121
    },
    {
      "midi": 71,
      "hit": false,
      "t": 169090.7400000001,
      "d": 311.68800000002375,
      "v": 121
    },
    {
      "midi": 49,
      "hit": false,
      "t": 169090.7400000001,
      "d": 368.50612500001444,
      "v": 118
    },
    {
      "midi": 81,
      "hit": false,
      "t": 169480.35000000012,
      "d": 275.97375000000466,
      "v": 103
    },
    {
      "midi": 69,
      "hit": false,
      "t": 169480.35000000012,
      "d": 284.09062500001164,
      "v": 100
    },
    {
      "midi": 51,
      "hit": false,
      "t": 169480.35000000012,
      "d": 303.57112500001676,
      "v": 118
    },
    {
      "midi": 59,
      "hit": false,
      "t": 169869.96000000014,
      "d": 538.9604999999865,
      "v": 112
    },
    {
      "midi": 64,
      "hit": false,
      "t": 169869.96000000014,
      "d": 660.7136249999749,
      "v": 106
    },
    {
      "midi": 69,
      "hit": false,
      "t": 169869.96000000014,
      "d": 1225.6481249999779,
      "v": 100
    },
    {
      "midi": 40,
      "hit": false,
      "t": 169869.96000000014,
      "d": 2110.3874999999825,
      "v": 115
    },
    {
      "midi": 52,
      "hit": false,
      "t": 170454.37500000012,
      "d": 490.2592500000028,
      "v": 100
    },
    {
      "midi": 59,
      "hit": false,
      "t": 170649.1800000001,
      "d": 311.68800000002375,
      "v": 92
    },
    {
      "midi": 52,
      "hit": false,
      "t": 171038.79000000012,
      "d": 292.2074999999895,
      "v": 92
    },
    {
      "midi": 59,
      "hit": false,
      "t": 171038.79000000012,
      "d": 295.4542499999807,
      "v": 98
    },
    {
      "midi": 64,
      "hit": false,
      "t": 171038.79000000012,
      "d": 340.9087499999732,
      "v": 96
    },
    {
      "midi": 68,
      "hit": false,
      "t": 171233.59500000012,
      "d": 137.98687499997322,
      "v": 72
    },
    {
      "midi": 64,
      "hit": false,
      "t": 171428.4000000001,
      "d": 543.8306250000023,
      "v": 106
    },
    {
      "midi": 68,
      "hit": false,
      "t": 171428.4000000001,
      "d": 592.5318750000151,
      "v": 115
    },
    {
      "midi": 59,
      "hit": false,
      "t": 171428.4000000001,
      "d": 738.6356250000244,
      "v": 112
    },
    {
      "midi": 52,
      "hit": false,
      "t": 171428.4000000001,
      "d": 749.9992500000226,
      "v": 100
    },
    {
      "midi": 66,
      "hit": false,
      "t": 172207.62000000014,
      "d": 584.4150000000081,
      "v": 94
    },
    {
      "midi": 63,
      "hit": false,
      "t": 172207.62000000014,
      "d": 587.6617499999993,
      "v": 82
    },
    {
      "midi": 59,
      "hit": false,
      "t": 172207.62000000014,
      "d": 595.7786250000063,
      "v": 94
    },
    {
      "midi": 51,
      "hit": false,
      "t": 172207.62000000014,
      "d": 657.4668750000128,
      "v": 103
    },
    {
      "midi": 59,
      "hit": false,
      "t": 172986.84000000014,
      "d": 490.2592500000028,
      "v": 109
    },
    {
      "midi": 66,
      "hit": false,
      "t": 172986.84000000014,
      "d": 514.6098749999946,
      "v": 106
    },
    {
      "midi": 63,
      "hit": false,
      "t": 172986.84000000014,
      "d": 522.7267500000016,
      "v": 112
    },
    {
      "midi": 37,
      "hit": false,
      "t": 172986.84000000014,
      "d": 936.6873750000086,
      "v": 118
    },
    {
      "midi": 49,
      "hit": false,
      "t": 173571.25500000015,
      "d": 344.1554999999935,
      "v": 121
    },
    {
      "midi": 59,
      "hit": false,
      "t": 173766.06000000014,
      "d": 105.51937500000349,
      "v": 124
    },
    {
      "midi": 66,
      "hit": false,
      "t": 173766.06000000014,
      "d": 105.51937500000349,
      "v": 124
    },
    {
      "midi": 63,
      "hit": false,
      "t": 173766.06000000014,
      "d": 108.76612499999464,
      "v": 124
    },
    {
      "midi": 37,
      "hit": false,
      "t": 174155.67000000016,
      "d": 506.49299999998766,
      "v": 115
    },
    {
      "midi": 49,
      "hit": false,
      "t": 174155.67000000016,
      "d": 584.414999999979,
      "v": 121
    },
    {
      "midi": 68,
      "hit": false,
      "t": 174155.67000000016,
      "d": 1785.712499999965,
      "v": 118
    },
    {
      "midi": 65,
      "hit": false,
      "t": 174155.67000000016,
      "d": 1793.829374999972,
      "v": 121
    },
    {
      "midi": 61,
      "hit": false,
      "t": 174155.67000000016,
      "d": 1810.063124999986,
      "v": 118
    },
    {
      "midi": 85,
      "hit": false,
      "t": 174934.89000000013,
      "d": 262.98675000001094,
      "v": 118
    },
    {
      "midi": 73,
      "hit": false,
      "t": 174934.89000000013,
      "d": 267.8568749999977,
      "v": 121
    },
    {
      "midi": 37,
      "hit": false,
      "t": 174934.89000000013,
      "d": 319.80487500000163,
      "v": 121
    },
    {
      "midi": 85,
      "hit": false,
      "t": 175324.50000000015,
      "d": 271.1036249999888,
      "v": 121
    },
    {
      "midi": 73,
      "hit": false,
      "t": 175324.50000000015,
      "d": 295.4542499999807,
      "v": 124
    },
    {
      "midi": 39,
      "hit": false,
      "t": 175324.50000000015,
      "d": 383.1164999999746,
      "v": 124
    },
    {
      "midi": 83,
      "hit": false,
      "t": 175714.11000000013,
      "d": 254.86987500000396,
      "v": 103
    },
    {
      "midi": 71,
      "hit": false,
      "t": 175714.11000000013,
      "d": 275.97375000000466,
      "v": 112
    },
    {
      "midi": 41,
      "hit": false,
      "t": 175714.11000000013,
      "d": 383.1165000000037,
      "v": 125
    },
    {
      "midi": 64,
      "hit": false,
      "t": 176103.72000000015,
      "d": 933.4406249999884,
      "v": 115
    },
    {
      "midi": 68,
      "hit": false,
      "t": 176103.72000000015,
      "d": 961.0380000000005,
      "v": 112
    },
    {
      "midi": 59,
      "hit": false,
      "t": 176103.72000000015,
      "d": 1001.6223750000063,
      "v": 118
    },
    {
      "midi": 42,
      "hit": false,
      "t": 176103.72000000015,
      "d": 1120.1287500000035,
      "v": 121
    },
    {
      "midi": 42,
      "hit": false,
      "t": 177272.55000000016,
      "d": 311.68799999999464,
      "v": 90
    },
    {
      "midi": 66,
      "hit": false,
      "t": 177272.55000000016,
      "d": 336.0386249999865,
      "v": 86
    },
    {
      "midi": 61,
      "hit": false,
      "t": 177272.55000000016,
      "d": 340.9087499999732,
      "v": 82
    },
    {
      "midi": 58,
      "hit": false,
      "t": 177272.55000000016,
      "d": 344.1554999999644,
      "v": 90
    },
    {
      "midi": 58,
      "hit": false,
      "t": 177662.16000000012,
      "d": 628.2461250000051,
      "v": 109
    },
    {
      "midi": 42,
      "hit": false,
      "t": 177662.16000000012,
      "d": 917.2068750000035,
      "v": 112
    },
    {
      "midi": 61,
      "hit": false,
      "t": 177662.16000000012,
      "d": 1269.479250000004,
      "v": 106
    },
    {
      "midi": 66,
      "hit": false,
      "t": 177662.16000000012,
      "d": 1285.713000000018,
      "v": 109
    },
    {
      "midi": 58,
      "hit": false,
      "t": 178441.38000000012,
      "d": 555.1942500000296,
      "v": 90
    },
    {
      "midi": 42,
      "hit": false,
      "t": 178830.99000000014,
      "d": 243.50625000000582,
      "v": 94
    },
    {
      "midi": 64,
      "hit": false,
      "t": 179220.60000000015,
      "d": 933.4406249999884,
      "v": 115
    },
    {
      "midi": 68,
      "hit": false,
      "t": 179220.60000000015,
      "d": 961.0380000000005,
      "v": 112
    },
    {
      "midi": 59,
      "hit": false,
      "t": 179220.60000000015,
      "d": 1001.6223750000063,
      "v": 118
    },
    {
      "midi": 42,
      "hit": false,
      "t": 179220.60000000015,
      "d": 1120.1287500000035,
      "v": 121
    },
    {
      "midi": 42,
      "hit": false,
      "t": 180389.43000000017,
      "d": 311.68799999999464,
      "v": 90
    },
    {
      "midi": 66,
      "hit": false,
      "t": 180389.43000000017,
      "d": 336.0386249999865,
      "v": 86
    },
    {
      "midi": 61,
      "hit": false,
      "t": 180389.43000000017,
      "d": 340.9087499999732,
      "v": 82
    },
    {
      "midi": 58,
      "hit": false,
      "t": 180389.43000000017,
      "d": 344.1554999999644,
      "v": 90
    },
    {
      "midi": 58,
      "hit": false,
      "t": 180779.04000000012,
      "d": 628.2461250000051,
      "v": 109
    },
    {
      "midi": 42,
      "hit": false,
      "t": 180779.04000000012,
      "d": 917.2068750000035,
      "v": 112
    },
    {
      "midi": 61,
      "hit": false,
      "t": 180779.04000000012,
      "d": 1269.479250000004,
      "v": 106
    },
    {
      "midi": 66,
      "hit": false,
      "t": 180779.04000000012,
      "d": 1285.713000000018,
      "v": 109
    },
    {
      "midi": 58,
      "hit": false,
      "t": 181558.26000000013,
      "d": 522.7267500000307,
      "v": 80
    },
    {
      "midi": 42,
      "hit": false,
      "t": 181947.87000000014,
      "d": 275.97375000000466,
      "v": 94
    },
    {
      "midi": 59,
      "hit": false,
      "t": 182337.48000000016,
      "d": 592.5318750000151,
      "v": 115
    },
    {
      "midi": 64,
      "hit": false,
      "t": 182337.48000000016,
      "d": 749.9992500000226,
      "v": 121
    },
    {
      "midi": 35,
      "hit": false,
      "t": 182337.48000000016,
      "d": 1448.0505000000412,
      "v": 115
    },
    {
      "midi": 47,
      "hit": false,
      "t": 182921.89500000016,
      "d": 503.2462500000256,
      "v": 118
    },
    {
      "midi": 59,
      "hit": false,
      "t": 183116.7000000002,
      "d": 535.7137500000244,
      "v": 118
    },
    {
      "midi": 64,
      "hit": false,
      "t": 183311.50500000018,
      "d": 543.8306250000314,
      "v": 118
    },
    {
      "midi": 47,
      "hit": false,
      "t": 183506.3100000002,
      "d": 381.49312500000815,
      "v": 118
    },
    {
      "midi": 63,
      "hit": false,
      "t": 183895.92000000022,
      "d": 814.9342499999912,
      "v": 112
    },
    {
      "midi": 59,
      "hit": false,
      "t": 183895.92000000022,
      "d": 831.1680000000051,
      "v": 118
    },
    {
      "midi": 35,
      "hit": false,
      "t": 183895.92000000022,
      "d": 920.4536249999946,
      "v": 124
    },
    {
      "midi": 47,
      "hit": false,
      "t": 184675.14000000022,
      "d": 383.1165000000037,
      "v": 115
    },
    {
      "midi": 35,
      "hit": false,
      "t": 185064.75000000023,
      "d": 311.68799999999464,
      "v": 118
    },
    {
      "midi": 63,
      "hit": false,
      "t": 185064.75000000023,
      "d": 352.27237500000047,
      "v": 106
    },
    {
      "midi": 66,
      "hit": false,
      "t": 185064.75000000023,
      "d": 357.1424999999872,
      "v": 118
    },
    {
      "midi": 63,
      "hit": false,
      "t": 185454.36000000022,
      "d": 376.6229999999923,
      "v": 118
    },
    {
      "midi": 66,
      "hit": false,
      "t": 185454.36000000022,
      "d": 397.726874999993,
      "v": 121
    },
    {
      "midi": 35,
      "hit": false,
      "t": 185454.36000000022,
      "d": 2933.4386249999225,
      "v": 115
    },
    {
      "midi": 64,
      "hit": false,
      "t": 185843.9700000002,
      "d": 319.80487500000163,
      "v": 82
    },
    {
      "midi": 61,
      "hit": false,
      "t": 185843.9700000002,
      "d": 324.67499999998836,
      "v": 103
    },
    {
      "midi": 61,
      "hit": false,
      "t": 186233.5800000002,
      "d": 324.67499999998836,
      "v": 115
    },
    {
      "midi": 64,
      "hit": false,
      "t": 186233.5800000002,
      "d": 381.49312499997905,
      "v": 106
    },
    {
      "midi": 59,
      "hit": false,
      "t": 186623.19000000018,
      "d": 324.67499999998836,
      "v": 94
    },
    {
      "midi": 63,
      "hit": false,
      "t": 186623.19000000018,
      "d": 352.27237500000047,
      "v": 109
    },
    {
      "midi": 63,
      "hit": false,
      "t": 187012.80000000016,
      "d": 267.8568749999977,
      "v": 106
    },
    {
      "midi": 59,
      "hit": false,
      "t": 187012.80000000016,
      "d": 303.57112499998766,
      "v": 115
    },
    {
      "midi": 57,
      "hit": false,
      "t": 187402.41000000015,
      "d": 308.4412500000035,
      "v": 100
    },
    {
      "midi": 61,
      "hit": false,
      "t": 187402.41000000015,
      "d": 383.1165000000037,
      "v": 100
    },
    {
      "midi": 59,
      "hit": false,
      "t": 187792.02000000016,
      "d": 259.7399999999907,
      "v": 78
    },
    {
      "midi": 54,
      "hit": false,
      "t": 187792.02000000016,
      "d": 292.2074999999895,
      "v": 84
    },
    {
      "midi": 63,
      "hit": false,
      "t": 188181.63000000015,
      "d": 324.67499999998836,
      "v": 112
    },
    {
      "midi": 66,
      "hit": false,
      "t": 188181.63000000015,
      "d": 332.79187499999534,
      "v": 115
    },
    {
      "midi": 59,
      "hit": false,
      "t": 188571.24000000014,
      "d": 998.375624999986,
      "v": 121
    },
    {
      "midi": 64,
      "hit": false,
      "t": 188571.24000000014,
      "d": 1017.8561249999912,
      "v": 124
    },
    {
      "midi": 57,
      "hit": false,
      "t": 188571.24000000014,
      "d": 1022.7262499999779,
      "v": 115
    },
    {
      "midi": 40,
      "hit": false,
      "t": 188571.24000000014,
      "d": 1038.9599999999919,
      "v": 118
    },
    {
      "midi": 64,
      "hit": false,
      "t": 189740.07000000012,
      "d": 279.2204999999958,
      "v": 96
    },
    {
      "midi": 40,
      "hit": false,
      "t": 189740.07000000012,
      "d": 295.4542500000098,
      "v": 118
    },
    {
      "midi": 56,
      "hit": false,
      "t": 189740.07000000012,
      "d": 303.57112500001676,
      "v": 106
    },
    {
      "midi": 59,
      "hit": false,
      "t": 189740.07000000012,
      "d": 308.4412500000035,
      "v": 109
    },
    {
      "midi": 56,
      "hit": false,
      "t": 190129.68000000014,
      "d": 311.68799999999464,
      "v": 115
    },
    {
      "midi": 64,
      "hit": false,
      "t": 190129.68000000014,
      "d": 714.2849999999744,
      "v": 124
    },
    {
      "midi": 59,
      "hit": false,
      "t": 190129.68000000014,
      "d": 722.4018749999814,
      "v": 121
    },
    {
      "midi": 40,
      "hit": false,
      "t": 190129.68000000014,
      "d": 771.1031249999942,
      "v": 124
    },
    {
      "midi": 56,
      "hit": false,
      "t": 190519.29000000012,
      "d": 303.57112499998766,
      "v": 86
    },
    {
      "midi": 54,
      "hit": false,
      "t": 190908.90000000014,
      "d": 292.2074999999895,
      "v": 115
    },
    {
      "midi": 59,
      "hit": false,
      "t": 190908.90000000014,
      "d": 365.2593749999942,
      "v": 118
    },
    {
      "midi": 39,
      "hit": false,
      "t": 190908.90000000014,
      "d": 714.2850000000035,
      "v": 121
    },
    {
      "midi": 63,
      "hit": false,
      "t": 190908.90000000014,
      "d": 725.6486250000016,
      "v": 115
    },
    {
      "midi": 54,
      "hit": false,
      "t": 191298.51000000013,
      "d": 308.4412500000035,
      "v": 109
    },
    {
      "midi": 59,
      "hit": false,
      "t": 191493.31500000012,
      "d": 188.3115000000107,
      "v": 118
    },
    {
      "midi": 49,
      "hit": false,
      "t": 191688.12000000014,
      "d": 628.2461250000051,
      "v": 106
    },
    {
      "midi": 56,
      "hit": false,
      "t": 191688.12000000014,
      "d": 782.4667499999923,
      "v": 118
    },
    {
      "midi": 61,
      "hit": false,
      "t": 191688.12000000014,
      "d": 887.9861249999958,
      "v": 121
    },
    {
      "midi": 66,
      "hit": false,
      "t": 191688.12000000014,
      "d": 985.3886249999923,
      "v": 118
    },
    {
      "midi": 37,
      "hit": false,
      "t": 191688.12000000014,
      "d": 1456.16737499999,
      "v": 121
    },
    {
      "midi": 49,
      "hit": false,
      "t": 192467.34000000014,
      "d": 681.8174999999756,
      "v": 106
    },
    {
      "midi": 56,
      "hit": false,
      "t": 192662.14500000014,
      "d": 495.1293749999895,
      "v": 109
    },
    {
      "midi": 64,
      "hit": false,
      "t": 192856.95000000013,
      "d": 303.57112499998766,
      "v": 106
    },
    {
      "midi": 61,
      "hit": false,
      "t": 192856.95000000013,
      "d": 336.0386249999865,
      "v": 106
    },
    {
      "midi": 37,
      "hit": false,
      "t": 193246.5600000001,
      "d": 336.0386249999865,
      "v": 106
    },
    {
      "midi": 49,
      "hit": false,
      "t": 193246.5600000001,
      "d": 470.7787499999977,
      "v": 94
    },
    {
      "midi": 56,
      "hit": false,
      "t": 193246.5600000001,
      "d": 551.9475000000093,
      "v": 121
    },
    {
      "midi": 61,
      "hit": false,
      "t": 193246.5600000001,
      "d": 693.1811250000028,
      "v": 115
    },
    {
      "midi": 64,
      "hit": false,
      "t": 193246.5600000001,
      "d": 904.2198750000098,
      "v": 106
    },
    {
      "midi": 37,
      "hit": false,
      "t": 193830.97500000012,
      "d": 961.0380000000005,
      "v": 115
    },
    {
      "midi": 49,
      "hit": false,
      "t": 194025.78000000012,
      "d": 779.2200000000012,
      "v": 118
    },
    {
      "midi": 56,
      "hit": false,
      "t": 194220.58500000014,
      "d": 584.414999999979,
      "v": 121
    },
    {
      "midi": 61,
      "hit": false,
      "t": 194415.39000000013,
      "d": 384.7398749999993,
      "v": 115
    },
    {
      "midi": 64,
      "hit": false,
      "t": 194610.19500000012,
      "d": 181.8179999999993,
      "v": 115
    },
    {
      "midi": 66,
      "hit": false,
      "t": 194805.00000000012,
      "d": 641.2331249999988,
      "v": 112
    },
    {
      "midi": 58,
      "hit": false,
      "t": 194805.00000000012,
      "d": 668.8305000000109,
      "v": 115
    },
    {
      "midi": 42,
      "hit": false,
      "t": 194805.00000000012,
      "d": 1282.4662499999977,
      "v": 118
    },
    {
      "midi": 54,
      "hit": false,
      "t": 195194.6100000001,
      "d": 941.5575000000244,
      "v": 96
    },
    {
      "midi": 58,
      "hit": false,
      "t": 195584.22000000012,
      "d": 271.1036249999888,
      "v": 115
    },
    {
      "midi": 61,
      "hit": false,
      "t": 195584.22000000012,
      "d": 1087.6612500000047,
      "v": 118
    },
    {
      "midi": 66,
      "hit": false,
      "t": 195584.22000000012,
      "d": 1274.3493750000198,
      "v": 118
    },
    {
      "midi": 58,
      "hit": false,
      "t": 195973.8300000001,
      "d": 579.5448750000214,
      "v": 106
    },
    {
      "midi": 42,
      "hit": false,
      "t": 196363.44000000012,
      "d": 1456.16737499999,
      "v": 112
    },
    {
      "midi": 54,
      "hit": false,
      "t": 196558.2450000001,
      "d": 668.8305000000109,
      "v": 118
    },
    {
      "midi": 58,
      "hit": false,
      "t": 196753.05000000013,
      "d": 681.8174999999756,
      "v": 106
    },
    {
      "midi": 61,
      "hit": false,
      "t": 196947.85500000013,
      "d": 624.9993749999849,
      "v": 90
    },
    {
      "midi": 66,
      "hit": false,
      "t": 197142.66000000012,
      "d": 714.2849999999744,
      "v": 112
    },
    {
      "midi": 54,
      "hit": false,
      "t": 197337.4650000001,
      "d": 487.01249999998254,
      "v": 121
    },
    {
      "midi": 58,
      "hit": false,
      "t": 197532.2700000001,
      "d": 295.4542499999807,
      "v": 109
    },
    {
      "midi": 61,
      "hit": false,
      "t": 197727.0750000001,
      "d": 188.3114999999816,
      "v": 100
    },
    {
      "midi": 54,
      "hit": false,
      "t": 197921.8800000001,
      "d": 790.5836249999993,
      "v": 112
    },
    {
      "midi": 59,
      "hit": false,
      "t": 197921.8800000001,
      "d": 860.3887500000128,
      "v": 118
    },
    {
      "midi": 64,
      "hit": false,
      "t": 197921.8800000001,
      "d": 871.7523750000109,
      "v": 115
    },
    {
      "midi": 35,
      "hit": false,
      "t": 197921.8800000001,
      "d": 2235.3873750000494,
      "v": 121
    },
    {
      "midi": 47,
      "hit": false,
      "t": 198701.1000000001,
      "d": 1509.7387500000477,
      "v": 118
    },
    {
      "midi": 59,
      "hit": false,
      "t": 198895.90500000012,
      "d": 64.93499999999767,
      "v": 94
    },
    {
      "midi": 63,
      "hit": false,
      "t": 198895.90500000012,
      "d": 84.4155000000028,
      "v": 100
    },
    {
      "midi": 54,
      "hit": false,
      "t": 198895.90500000012,
      "d": 92.53237500000978,
      "v": 106
    },
    {
      "midi": 54,
      "hit": false,
      "t": 199090.71000000014,
      "d": 324.67499999998836,
      "v": 96
    },
    {
      "midi": 59,
      "hit": false,
      "t": 199090.71000000014,
      "d": 336.0386249999865,
      "v": 106
    },
    {
      "midi": 63,
      "hit": false,
      "t": 199090.71000000014,
      "d": 340.9087499999732,
      "v": 94
    },
    {
      "midi": 59,
      "hit": false,
      "t": 199480.32000000012,
      "d": 641.2331249999988,
      "v": 118
    },
    {
      "midi": 63,
      "hit": false,
      "t": 199480.32000000012,
      "d": 641.2331249999988,
      "v": 115
    },
    {
      "midi": 54,
      "hit": false,
      "t": 199480.32000000012,
      "d": 660.713625000004,
      "v": 118
    },
    {
      "midi": 54,
      "hit": false,
      "t": 200259.54000000015,
      "d": 644.47987499999,
      "v": 121
    },
    {
      "midi": 58,
      "hit": false,
      "t": 200259.54000000015,
      "d": 652.596749999997,
      "v": 124
    },
    {
      "midi": 61,
      "hit": false,
      "t": 200259.54000000015,
      "d": 660.713625000004,
      "v": 118
    },
    {
      "midi": 42,
      "hit": false,
      "t": 200259.54000000015,
      "d": 685.0642499999958,
      "v": 121
    },
    {
      "midi": 59,
      "hit": false,
      "t": 201038.76000000015,
      "d": 592.5318750000151,
      "v": 115
    },
    {
      "midi": 64,
      "hit": false,
      "t": 201038.76000000015,
      "d": 749.9992500000226,
      "v": 121
    },
    {
      "midi": 35,
      "hit": false,
      "t": 201038.76000000015,
      "d": 1448.0505000000412,
      "v": 115
    },
    {
      "midi": 47,
      "hit": false,
      "t": 201623.17500000016,
      "d": 503.2462500000256,
      "v": 118
    },
    {
      "midi": 59,
      "hit": false,
      "t": 201817.98000000019,
      "d": 535.7137500000244,
      "v": 118
    },
    {
      "midi": 64,
      "hit": false,
      "t": 202012.78500000018,
      "d": 543.8306250000314,
      "v": 118
    },
    {
      "midi": 47,
      "hit": false,
      "t": 202207.5900000002,
      "d": 381.49312500000815,
      "v": 118
    },
    {
      "midi": 63,
      "hit": false,
      "t": 202597.20000000022,
      "d": 814.9342499999912,
      "v": 112
    },
    {
      "midi": 59,
      "hit": false,
      "t": 202597.20000000022,
      "d": 831.1680000000051,
      "v": 118
    },
    {
      "midi": 35,
      "hit": false,
      "t": 202597.20000000022,
      "d": 920.4536249999946,
      "v": 124
    },
    {
      "midi": 47,
      "hit": false,
      "t": 203376.42000000022,
      "d": 383.1165000000037,
      "v": 115
    },
    {
      "midi": 35,
      "hit": false,
      "t": 203766.03000000023,
      "d": 311.68799999999464,
      "v": 118
    },
    {
      "midi": 63,
      "hit": false,
      "t": 203766.03000000023,
      "d": 352.27237500000047,
      "v": 106
    },
    {
      "midi": 66,
      "hit": false,
      "t": 203766.03000000023,
      "d": 357.1424999999872,
      "v": 118
    },
    {
      "midi": 63,
      "hit": false,
      "t": 204155.64000000022,
      "d": 376.6229999999923,
      "v": 118
    },
    {
      "midi": 66,
      "hit": false,
      "t": 204155.64000000022,
      "d": 397.726874999993,
      "v": 121
    },
    {
      "midi": 35,
      "hit": false,
      "t": 204155.64000000022,
      "d": 2933.4386249999225,
      "v": 115
    },
    {
      "midi": 64,
      "hit": false,
      "t": 204545.2500000002,
      "d": 319.80487500000163,
      "v": 82
    },
    {
      "midi": 61,
      "hit": false,
      "t": 204545.2500000002,
      "d": 324.67499999998836,
      "v": 103
    },
    {
      "midi": 61,
      "hit": false,
      "t": 204934.8600000002,
      "d": 324.67499999998836,
      "v": 115
    },
    {
      "midi": 64,
      "hit": false,
      "t": 204934.8600000002,
      "d": 381.49312499997905,
      "v": 106
    },
    {
      "midi": 59,
      "hit": false,
      "t": 205324.47000000018,
      "d": 324.67499999998836,
      "v": 94
    },
    {
      "midi": 63,
      "hit": false,
      "t": 205324.47000000018,
      "d": 352.27237500000047,
      "v": 109
    },
    {
      "midi": 63,
      "hit": false,
      "t": 205714.08000000016,
      "d": 267.8568749999977,
      "v": 106
    },
    {
      "midi": 59,
      "hit": false,
      "t": 205714.08000000016,
      "d": 303.57112499998766,
      "v": 115
    },
    {
      "midi": 57,
      "hit": false,
      "t": 206103.69000000015,
      "d": 308.4412500000035,
      "v": 100
    },
    {
      "midi": 61,
      "hit": false,
      "t": 206103.69000000015,
      "d": 413.960625000007,
      "v": 100
    },
    {
      "midi": 59,
      "hit": false,
      "t": 206493.30000000016,
      "d": 259.7399999999907,
      "v": 78
    },
    {
      "midi": 54,
      "hit": false,
      "t": 206493.30000000016,
      "d": 292.2074999999895,
      "v": 84
    },
    {
      "midi": 63,
      "hit": false,
      "t": 206882.91000000015,
      "d": 324.67499999998836,
      "v": 112
    },
    {
      "midi": 66,
      "hit": false,
      "t": 206882.91000000015,
      "d": 332.79187499999534,
      "v": 115
    },
    {
      "midi": 59,
      "hit": false,
      "t": 207272.52000000014,
      "d": 998.375624999986,
      "v": 121
    },
    {
      "midi": 64,
      "hit": false,
      "t": 207272.52000000014,
      "d": 1017.8561249999912,
      "v": 124
    },
    {
      "midi": 57,
      "hit": false,
      "t": 207272.52000000014,
      "d": 1022.7262499999779,
      "v": 115
    },
    {
      "midi": 40,
      "hit": false,
      "t": 207272.52000000014,
      "d": 1038.9599999999919,
      "v": 118
    },
    {
      "midi": 64,
      "hit": false,
      "t": 208441.35000000012,
      "d": 279.2204999999958,
      "v": 96
    },
    {
      "midi": 40,
      "hit": false,
      "t": 208441.35000000012,
      "d": 295.4542500000098,
      "v": 118
    },
    {
      "midi": 56,
      "hit": false,
      "t": 208441.35000000012,
      "d": 303.57112500001676,
      "v": 106
    },
    {
      "midi": 59,
      "hit": false,
      "t": 208441.35000000012,
      "d": 308.4412500000035,
      "v": 109
    },
    {
      "midi": 56,
      "hit": false,
      "t": 208830.96000000014,
      "d": 311.68799999999464,
      "v": 115
    },
    {
      "midi": 64,
      "hit": false,
      "t": 208830.96000000014,
      "d": 714.2849999999744,
      "v": 124
    },
    {
      "midi": 59,
      "hit": false,
      "t": 208830.96000000014,
      "d": 722.4018749999814,
      "v": 121
    },
    {
      "midi": 40,
      "hit": false,
      "t": 208830.96000000014,
      "d": 771.1031249999942,
      "v": 124
    },
    {
      "midi": 56,
      "hit": false,
      "t": 209220.57000000012,
      "d": 303.57112499998766,
      "v": 86
    },
    {
      "midi": 54,
      "hit": false,
      "t": 209610.18000000014,
      "d": 292.2074999999895,
      "v": 115
    },
    {
      "midi": 59,
      "hit": false,
      "t": 209610.18000000014,
      "d": 365.2593749999942,
      "v": 118
    },
    {
      "midi": 63,
      "hit": false,
      "t": 209610.18000000014,
      "d": 725.6486249999725,
      "v": 115
    },
    {
      "midi": 39,
      "hit": false,
      "t": 209610.18000000014,
      "d": 746.7524999999732,
      "v": 121
    },
    {
      "midi": 54,
      "hit": false,
      "t": 209999.79000000012,
      "d": 340.9087499999732,
      "v": 109
    },
    {
      "midi": 59,
      "hit": false,
      "t": 210194.59500000012,
      "d": 188.3114999999816,
      "v": 118
    },
    {
      "midi": 56,
      "hit": false,
      "t": 210389.4000000001,
      "d": 782.4667499999923,
      "v": 118
    },
    {
      "midi": 61,
      "hit": false,
      "t": 210389.4000000001,
      "d": 887.9861249999958,
      "v": 121
    },
    {
      "midi": 66,
      "hit": false,
      "t": 210389.4000000001,
      "d": 985.3886249999923,
      "v": 118
    },
    {
      "midi": 37,
      "hit": false,
      "t": 210389.4000000001,
      "d": 1456.16737499999,
      "v": 121
    },
    {
      "midi": 49,
      "hit": false,
      "t": 211168.6200000001,
      "d": 681.8174999999756,
      "v": 106
    },
    {
      "midi": 56,
      "hit": false,
      "t": 211363.4250000001,
      "d": 495.1293749999895,
      "v": 109
    },
    {
      "midi": 64,
      "hit": false,
      "t": 211558.2300000001,
      "d": 303.57112499998766,
      "v": 106
    },
    {
      "midi": 61,
      "hit": false,
      "t": 211558.2300000001,
      "d": 336.0386249999865,
      "v": 106
    },
    {
      "midi": 37,
      "hit": false,
      "t": 211947.84000000008,
      "d": 336.0386249999865,
      "v": 106
    },
    {
      "midi": 49,
      "hit": false,
      "t": 211947.84000000008,
      "d": 470.7787499999977,
      "v": 94
    },
    {
      "midi": 56,
      "hit": false,
      "t": 211947.84000000008,
      "d": 551.9475000000093,
      "v": 121
    },
    {
      "midi": 61,
      "hit": false,
      "t": 211947.84000000008,
      "d": 693.1811250000028,
      "v": 115
    },
    {
      "midi": 64,
      "hit": false,
      "t": 211947.84000000008,
      "d": 904.2198750000098,
      "v": 106
    },
    {
      "midi": 37,
      "hit": false,
      "t": 212532.2550000001,
      "d": 961.0380000000005,
      "v": 115
    },
    {
      "midi": 49,
      "hit": false,
      "t": 212727.06000000008,
      "d": 779.2200000000012,
      "v": 118
    },
    {
      "midi": 56,
      "hit": false,
      "t": 212921.8650000001,
      "d": 584.414999999979,
      "v": 121
    },
    {
      "midi": 61,
      "hit": false,
      "t": 213116.6700000001,
      "d": 384.7398749999993,
      "v": 115
    },
    {
      "midi": 64,
      "hit": false,
      "t": 213311.4750000001,
      "d": 181.8179999999993,
      "v": 115
    },
    {
      "midi": 66,
      "hit": false,
      "t": 213506.2800000001,
      "d": 641.2331249999988,
      "v": 112
    },
    {
      "midi": 58,
      "hit": false,
      "t": 213506.2800000001,
      "d": 668.8305000000109,
      "v": 115
    },
    {
      "midi": 42,
      "hit": false,
      "t": 213506.2800000001,
      "d": 1282.4662499999977,
      "v": 118
    },
    {
      "midi": 54,
      "hit": false,
      "t": 213895.89000000007,
      "d": 941.5575000000244,
      "v": 96
    },
    {
      "midi": 58,
      "hit": false,
      "t": 214285.5000000001,
      "d": 271.1036249999888,
      "v": 115
    },
    {
      "midi": 61,
      "hit": false,
      "t": 214285.5000000001,
      "d": 1087.6612500000047,
      "v": 118
    },
    {
      "midi": 66,
      "hit": false,
      "t": 214285.5000000001,
      "d": 1274.3493750000198,
      "v": 118
    },
    {
      "midi": 58,
      "hit": false,
      "t": 214675.11000000007,
      "d": 579.5448750000214,
      "v": 106
    },
    {
      "midi": 42,
      "hit": false,
      "t": 215064.7200000001,
      "d": 1456.16737499999,
      "v": 112
    },
    {
      "midi": 54,
      "hit": false,
      "t": 215259.52500000008,
      "d": 668.8305000000109,
      "v": 118
    },
    {
      "midi": 58,
      "hit": false,
      "t": 215454.3300000001,
      "d": 681.8174999999756,
      "v": 106
    },
    {
      "midi": 61,
      "hit": false,
      "t": 215649.1350000001,
      "d": 624.9993749999849,
      "v": 90
    },
    {
      "midi": 66,
      "hit": false,
      "t": 215843.9400000001,
      "d": 714.2849999999744,
      "v": 112
    },
    {
      "midi": 54,
      "hit": false,
      "t": 216038.74500000008,
      "d": 487.01249999998254,
      "v": 121
    },
    {
      "midi": 58,
      "hit": false,
      "t": 216233.55000000008,
      "d": 295.4542499999807,
      "v": 109
    },
    {
      "midi": 61,
      "hit": false,
      "t": 216428.35500000007,
      "d": 188.3114999999816,
      "v": 100
    },
    {
      "midi": 47,
      "hit": false,
      "t": 216623.16000000006,
      "d": 982.1418750000012,
      "v": 124
    },
    {
      "midi": 64,
      "hit": false,
      "t": 216623.16000000006,
      "d": 1025.9729999999981,
      "v": 112
    },
    {
      "midi": 63,
      "hit": false,
      "t": 217791.99000000005,
      "d": 262.98675000001094,
      "v": 98
    },
    {
      "midi": 47,
      "hit": false,
      "t": 217791.99000000005,
      "d": 624.999375000014,
      "v": 88
    },
    {
      "midi": 63,
      "hit": false,
      "t": 218181.60000000006,
      "d": 149.35050000000047,
      "v": 103
    },
    {
      "midi": 64,
      "hit": false,
      "t": 218376.40500000006,
      "d": 154.2206250000163,
      "v": 125
    },
    {
      "midi": 63,
      "hit": false,
      "t": 218571.21000000008,
      "d": 137.98687500000233,
      "v": 115
    },
    {
      "midi": 59,
      "hit": false,
      "t": 218766.01500000007,
      "d": 214.28549999999814,
      "v": 118
    },
    {
      "midi": 54,
      "hit": false,
      "t": 218960.82000000007,
      "d": 162.33749999999418,
      "v": 121
    },
    {
      "midi": 52,
      "hit": false,
      "t": 219155.62500000006,
      "d": 211.03875000000698,
      "v": 121
    },
    {
      "midi": 51,
      "hit": false,
      "t": 219350.43000000005,
      "d": 219.15562500001397,
      "v": 124
    },
    {
      "midi": 47,
      "hit": false,
      "t": 219545.23500000007,
      "d": 157.46737499997835,
      "v": 125
    },
    {
      "midi": 61,
      "hit": false,
      "t": 219740.04000000004,
      "d": 150.97387499999604,
      "v": 109
    },
    {
      "midi": 35,
      "hit": false,
      "t": 219740.04000000004,
      "d": 3110.3864999999932,
      "v": 109
    },
    {
      "midi": 47,
      "hit": false,
      "t": 219740.04000000004,
      "d": 3110.3864999999932,
      "v": 118
    },
    {
      "midi": 54,
      "hit": false,
      "t": 219740.04000000004,
      "d": 3110.3864999999932,
      "v": 121
    },
    {
      "midi": 59,
      "hit": false,
      "t": 219740.04000000004,
      "d": 3110.3864999999932,
      "v": 118
    },
    {
      "midi": 63,
      "hit": false,
      "t": 219853.67625000005,
      "d": 2995.126874999987,
      "v": 100
    }
  ]
}