{
  "jsonPath": "Unknown/Unknown/The Mormon Tabernacle ChoirThe Philadelphia OrchestraEugene Ormandy/messiahair-thou-shalt-break-them.json",
  "path": "Unknown\\Unknown\\The Mormon Tabernacle ChoirThe Philadelphia OrchestraEugene Ormandy\\MessiahAir Thou shalt break them.mid",
  "name": "MessiahAir Thou shalt break them",
  "difficulty": "Advanced",
  "bpm": 90.00009000009,
  "notes": [
    {
      "midi": 45,
      "hit": false,
      "t": 0,
      "d": 495.8333333333333,
      "v": 72
    },
    {
      "midi": 52,
      "hit": false,
      "t": 0,
      "d": 495.8333333333333,
      "v": 72
    },
    {
      "midi": 57,
      "hit": false,
      "t": 0,
      "d": 495.8333333333333,
      "v": 72
    },
    {
      "midi": 64,
      "hit": false,
      "t": 0,
      "d": 495.8333333333333,
      "v": 72
    },
    {
      "midi": 69,
      "hit": false,
      "t": 0,
      "d": 495.8333333333333,
      "v": 72
    },
    {
      "midi": 72,
      "hit": false,
      "t": 0,
      "d": 495.8333333333333,
      "v": 72
    },
    {
      "midi": 76,
      "hit": false,
      "t": 0,
      "d": 495.8333333333333,
      "v": 72
    },
    {
      "midi": 57,
      "hit": false,
      "t": 1250,
      "d": 183.33333333333326,
      "v": 72
    },
    {
      "midi": 60,
      "hit": false,
      "t": 1250,
      "d": 183.33333333333326,
      "v": 72
    },
    {
      "midi": 64,
      "hit": false,
      "t": 1250,
      "d": 183.33333333333326,
      "v": 72
    },
    {
      "midi": 69,
      "hit": false,
      "t": 1250,
      "d": 183.33333333333326,
      "v": 72
    },
    {
      "midi": 72,
      "hit": false,
      "t": 1250,
      "d": 183.33333333333326,
      "v": 72
    },
    {
      "midi": 55,
      "hit": false,
      "t": 1500,
      "d": 370.83333333333326,
      "v": 72
    },
    {
      "midi": 59,
      "hit": false,
      "t": 1500,
      "d": 370.83333333333326,
      "v": 72
    },
    {
      "midi": 64,
      "hit": false,
      "t": 1500,
      "d": 370.83333333333326,
      "v": 72
    },
    {
      "midi": 71,
      "hit": false,
      "t": 1500,
      "d": 370.83333333333326,
      "v": 72
    },
    {
      "midi": 76,
      "hit": false,
      "t": 1500,
      "d": 370.83333333333326,
      "v": 72
    },
    {
      "midi": 53,
      "hit": false,
      "t": 2750,
      "d": 183.33333333333348,
      "v": 72
    },
    {
      "midi": 57,
      "hit": false,
      "t": 2750,
      "d": 183.33333333333348,
      "v": 72
    },
    {
      "midi": 65,
      "hit": false,
      "t": 2750,
      "d": 183.33333333333348,
      "v": 72
    },
    {
      "midi": 69,
      "hit": false,
      "t": 2750,
      "d": 183.33333333333348,
      "v": 72
    },
    {
      "midi": 52,
      "hit": false,
      "t": 3000,
      "d": 370.8333333333335,
      "v": 72
    },
    {
      "midi": 57,
      "hit": false,
      "t": 3000,
      "d": 370.8333333333335,
      "v": 72
    },
    {
      "midi": 60,
      "hit": false,
      "t": 3000,
      "d": 370.8333333333335,
      "v": 72
    },
    {
      "midi": 69,
      "hit": false,
      "t": 3000,
      "d": 370.8333333333335,
      "v": 72
    },
    {
      "midi": 72,
      "hit": false,
      "t": 3000,
      "d": 370.8333333333335,
      "v": 72
    },
    {
      "midi": 50,
      "hit": false,
      "t": 4250,
      "d": 245.83333333333303,
      "v": 72
    },
    {
      "midi": 57,
      "hit": false,
      "t": 4250,
      "d": 245.83333333333303,
      "v": 72
    },
    {
      "midi": 65,
      "hit": false,
      "t": 4250,
      "d": 245.83333333333303,
      "v": 72
    },
    {
      "midi": 69,
      "hit": false,
      "t": 4250,
      "d": 245.83333333333303,
      "v": 72
    },
    {
      "midi": 74,
      "hit": false,
      "t": 4250,
      "d": 245.83333333333303,
      "v": 72
    },
    {
      "midi": 48,
      "hit": false,
      "t": 4500,
      "d": 245.83333333333303,
      "v": 72
    },
    {
      "midi": 57,
      "hit": false,
      "t": 4500,
      "d": 245.83333333333303,
      "v": 72
    },
    {
      "midi": 64,
      "hit": false,
      "t": 4500,
      "d": 245.83333333333303,
      "v": 72
    },
    {
      "midi": 69,
      "hit": false,
      "t": 4500,
      "d": 245.83333333333303,
      "v": 72
    },
    {
      "midi": 76,
      "hit": false,
      "t": 4500,
      "d": 245.83333333333303,
      "v": 72
    },
    {
      "midi": 60,
      "hit": false,
      "t": 4750,
      "d": 245.83333333333303,
      "v": 72
    },
    {
      "midi": 64,
      "hit": false,
      "t": 4750,
      "d": 245.83333333333303,
      "v": 72
    },
    {
      "midi": 69,
      "hit": false,
      "t": 4750,
      "d": 245.83333333333303,
      "v": 72
    },
    {
      "midi": 59,
      "hit": false,
      "t": 5000,
      "d": 495.83333333333303,
      "v": 72
    },
    {
      "midi": 62,
      "hit": false,
      "t": 5000,
      "d": 495.83333333333303,
      "v": 72
    },
    {
      "midi": 68,
      "hit": false,
      "t": 5000,
      "d": 495.83333333333303,
      "v": 72
    },
    {
      "midi": 74,
      "hit": false,
      "t": 5000,
      "d": 995.833333333333,
      "v": 72
    },
    {
      "midi": 57,
      "hit": false,
      "t": 5500,
      "d": 495.83333333333303,
      "v": 72
    },
    {
      "midi": 60,
      "hit": false,
      "t": 5500,
      "d": 495.83333333333303,
      "v": 72
    },
    {
      "midi": 65,
      "hit": false,
      "t": 5500,
      "d": 495.83333333333303,
      "v": 72
    },
    {
      "midi": 69,
      "hit": false,
      "t": 5500,
      "d": 495.83333333333303,
      "v": 72
    },
    {
      "midi": 56,
      "hit": false,
      "t": 6000,
      "d": 370.83333333333303,
      "v": 72
    },
    {
      "midi": 59,
      "hit": false,
      "t": 6000,
      "d": 370.83333333333303,
      "v": 72
    },
    {
      "midi": 64,
      "hit": false,
      "t": 6000,
      "d": 370.83333333333303,
      "v": 72
    },
    {
      "midi": 71,
      "hit": false,
      "t": 6000,
      "d": 370.83333333333303,
      "v": 72
    },
    {
      "midi": 55,
      "hit": false,
      "t": 6500,
      "d": 370.83333333333303,
      "v": 72
    },
    {
      "midi": 59,
      "hit": false,
      "t": 6500,
      "d": 370.83333333333303,
      "v": 72
    },
    {
      "midi": 64,
      "hit": false,
      "t": 6500,
      "d": 370.83333333333303,
      "v": 72
    },
    {
      "midi": 71,
      "hit": false,
      "t": 6500,
      "d": 370.83333333333303,
      "v": 72
    },
    {
      "midi": 76,
      "hit": false,
      "t": 6500,
      "d": 370.83333333333303,
      "v": 72
    },
    {
      "midi": 55,
      "hit": false,
      "t": 7250,
      "d": 245.83333333333303,
      "v": 72
    },
    {
      "midi": 59,
      "hit": false,
      "t": 7250,
      "d": 245.83333333333303,
      "v": 72
    },
    {
      "midi": 64,
      "hit": false,
      "t": 7250,
      "d": 245.83333333333303,
      "v": 72
    },
    {
      "midi": 54,
      "hit": false,
      "t": 7500,
      "d": 370.83333333333303,
      "v": 72
    },
    {
      "midi": 57,
      "hit": false,
      "t": 7500,
      "d": 370.83333333333303,
      "v": 72
    },
    {
      "midi": 64,
      "hit": false,
      "t": 7500,
      "d": 370.83333333333303,
      "v": 72
    },
    {
      "midi": 69,
      "hit": false,
      "t": 7500,
      "d": 370.83333333333303,
      "v": 72
    },
    {
      "midi": 53,
      "hit": false,
      "t": 8000,
      "d": 370.83333333333394,
      "v": 72
    },
    {
      "midi": 57,
      "hit": false,
      "t": 8000,
      "d": 370.83333333333394,
      "v": 72
    },
    {
      "midi": 62,
      "hit": false,
      "t": 8000,
      "d": 370.83333333333394,
      "v": 72
    },
    {
      "midi": 69,
      "hit": false,
      "t": 8000,
      "d": 370.83333333333394,
      "v": 72
    },
    {
      "midi": 74,
      "hit": false,
      "t": 8000,
      "d": 370.83333333333394,
      "v": 72
    },
    {
      "midi": 53,
      "hit": false,
      "t": 8750,
      "d": 245.83333333333394,
      "v": 72
    },
    {
      "midi": 57,
      "hit": false,
      "t": 8750,
      "d": 245.83333333333394,
      "v": 72
    },
    {
      "midi": 62,
      "hit": false,
      "t": 8750,
      "d": 245.83333333333394,
      "v": 72
    },
    {
      "midi": 69,
      "hit": false,
      "t": 8750,
      "d": 245.83333333333394,
      "v": 72
    },
    {
      "midi": 52,
      "hit": false,
      "t": 9000,
      "d": 495.83333333333394,
      "v": 72
    },
    {
      "midi": 59,
      "hit": false,
      "t": 9000,
      "d": 495.83333333333394,
      "v": 72
    },
    {
      "midi": 64,
      "hit": false,
      "t": 9000,
      "d": 495.83333333333394,
      "v": 72
    },
    {
      "midi": 68,
      "hit": false,
      "t": 9000,
      "d": 495.83333333333394,
      "v": 72
    },
    {
      "midi": 76,
      "hit": false,
      "t": 9000,
      "d": 495.83333333333394,
      "v": 72
    },
    {
      "midi": 56,
      "hit": false,
      "t": 11250,
      "d": 245.83333333333394,
      "v": 72
    },
    {
      "midi": 64,
      "hit": false,
      "t": 11250,
      "d": 245.83333333333394,
      "v": 72
    },
    {
      "midi": 71,
      "hit": false,
      "t": 11250,
      "d": 245.83333333333394,
      "v": 72
    },
    {
      "midi": 76,
      "hit": false,
      "t": 11250,
      "d": 745.8333333333339,
      "v": 72
    },
    {
      "midi": 57,
      "hit": false,
      "t": 11500,
      "d": 245.83333333333394,
      "v": 72
    },
    {
      "midi": 64,
      "hit": false,
      "t": 11500,
      "d": 245.83333333333394,
      "v": 72
    },
    {
      "midi": 72,
      "hit": false,
      "t": 11500,
      "d": 495.83333333333394,
      "v": 72
    },
    {
      "midi": 60,
      "hit": false,
      "t": 11750,
      "d": 245.83333333333394,
      "v": 72
    },
    {
      "midi": 69,
      "hit": false,
      "t": 11750,
      "d": 245.83333333333394,
      "v": 72
    },
    {
      "midi": 62,
      "hit": false,
      "t": 12000,
      "d": 245.83333333333394,
      "v": 72
    },
    {
      "midi": 65,
      "hit": false,
      "t": 12000,
      "d": 495.83333333333394,
      "v": 72
    },
    {
      "midi": 69,
      "hit": false,
      "t": 12000,
      "d": 495.83333333333394,
      "v": 72
    },
    {
      "midi": 71,
      "hit": false,
      "t": 12000,
      "d": 495.83333333333394,
      "v": 72
    },
    {
      "midi": 74,
      "hit": false,
      "t": 12000,
      "d": 495.83333333333394,
      "v": 72
    },
    {
      "midi": 50,
      "hit": false,
      "t": 12250,
      "d": 245.83333333333394,
      "v": 72
    },
    {
      "midi": 52,
      "hit": false,
      "t": 12500,
      "d": 495.83333333333394,
      "v": 72
    },
    {
      "midi": 59,
      "hit": false,
      "t": 12500,
      "d": 495.83333333333394,
      "v": 72
    },
    {
      "midi": 68,
      "hit": false,
      "t": 12500,
      "d": 995.8333333333339,
      "v": 72
    },
    {
      "midi": 71,
      "hit": false,
      "t": 12500,
      "d": 995.8333333333339,
      "v": 72
    },
    {
      "midi": 40,
      "hit": false,
      "t": 13000,
      "d": 495.83333333333394,
      "v": 72
    },
    {
      "midi": 52,
      "hit": false,
      "t": 13000,
      "d": 495.83333333333394,
      "v": 72
    },
    {
      "midi": 64,
      "hit": false,
      "t": 13000,
      "d": 495.83333333333394,
      "v": 72
    },
    {
      "midi": 45,
      "hit": false,
      "t": 13500,
      "d": 495.83333333333394,
      "v": 72
    },
    {
      "midi": 52,
      "hit": false,
      "t": 13500,
      "d": 495.83333333333394,
      "v": 72
    },
    {
      "midi": 60,
      "hit": false,
      "t": 13500,
      "d": 495.83333333333394,
      "v": 72
    },
    {
      "midi": 64,
      "hit": false,
      "t": 13500,
      "d": 495.83333333333394,
      "v": 72
    },
    {
      "midi": 69,
      "hit": false,
      "t": 13500,
      "d": 495.83333333333394,
      "v": 72
    },
    {
      "midi": 45,
      "hit": false,
      "t": 15000,
      "d": 495.83333333333394,
      "v": 72
    },
    {
      "midi": 57,
      "hit": false,
      "t": 15000,
      "d": 495.83333333333394,
      "v": 72
    },
    {
      "midi": 60,
      "hit": false,
      "t": 15000,
      "d": 495.83333333333394,
      "v": 72
    },
    {
      "midi": 64,
      "hit": false,
      "t": 15000,
      "d": 495.83333333333394,
      "v": 72
    },
    {
      "midi": 57,
      "hit": false,
      "t": 16250,
      "d": 245.83333333333212,
      "v": 48
    },
    {
      "midi": 60,
      "hit": false,
      "t": 16250,
      "d": 245.83333333333212,
      "v": 48
    },
    {
      "midi": 64,
      "hit": false,
      "t": 16250,
      "d": 245.83333333333212,
      "v": 48
    },
    {
      "midi": 56,
      "hit": false,
      "t": 16500,
      "d": 495.8333333333321,
      "v": 48
    },
    {
      "midi": 59,
      "hit": false,
      "t": 16500,
      "d": 495.8333333333321,
      "v": 48
    },
    {
      "midi": 64,
      "hit": false,
      "t": 16500,
      "d": 495.8333333333321,
      "v": 48
    },
    {
      "midi": 71,
      "hit": false,
      "t": 16500,
      "d": 495.8333333333321,
      "v": 48
    },
    {
      "midi": 55,
      "hit": false,
      "t": 17000,
      "d": 495.8333333333321,
      "v": 48
    },
    {
      "midi": 59,
      "hit": false,
      "t": 17000,
      "d": 495.8333333333321,
      "v": 48
    },
    {
      "midi": 64,
      "hit": false,
      "t": 17000,
      "d": 495.8333333333321,
      "v": 48
    },
    {
      "midi": 71,
      "hit": false,
      "t": 17000,
      "d": 495.8333333333321,
      "v": 48
    },
    {
      "midi": 76,
      "hit": false,
      "t": 17000,
      "d": 495.8333333333321,
      "v": 48
    },
    {
      "midi": 55,
      "hit": false,
      "t": 17750,
      "d": 245.83333333333212,
      "v": 48
    },
    {
      "midi": 59,
      "hit": false,
      "t": 17750,
      "d": 245.83333333333212,
      "v": 48
    },
    {
      "midi": 64,
      "hit": false,
      "t": 17750,
      "d": 245.83333333333212,
      "v": 48
    },
    {
      "midi": 54,
      "hit": false,
      "t": 18000,
      "d": 495.8333333333321,
      "v": 48
    },
    {
      "midi": 57,
      "hit": false,
      "t": 18000,
      "d": 495.8333333333321,
      "v": 48
    },
    {
      "midi": 64,
      "hit": false,
      "t": 18000,
      "d": 495.8333333333321,
      "v": 48
    },
    {
      "midi": 69,
      "hit": false,
      "t": 18000,
      "d": 495.8333333333321,
      "v": 48
    },
    {
      "midi": 53,
      "hit": false,
      "t": 18500,
      "d": 495.8333333333321,
      "v": 48
    },
    {
      "midi": 57,
      "hit": false,
      "t": 18500,
      "d": 495.8333333333321,
      "v": 48
    },
    {
      "midi": 62,
      "hit": false,
      "t": 18500,
      "d": 495.8333333333321,
      "v": 48
    },
    {
      "midi": 69,
      "hit": false,
      "t": 18500,
      "d": 495.8333333333321,
      "v": 48
    },
    {
      "midi": 74,
      "hit": false,
      "t": 18500,
      "d": 495.8333333333321,
      "v": 48
    },
    {
      "midi": 53,
      "hit": false,
      "t": 19250,
      "d": 245.83333333333212,
      "v": 48
    },
    {
      "midi": 57,
      "hit": false,
      "t": 19250,
      "d": 245.83333333333212,
      "v": 48
    },
    {
      "midi": 62,
      "hit": false,
      "t": 19250,
      "d": 245.83333333333212,
      "v": 48
    },
    {
      "midi": 69,
      "hit": false,
      "t": 19250,
      "d": 245.83333333333212,
      "v": 48
    },
    {
      "midi": 52,
      "hit": false,
      "t": 19500,
      "d": 495.8333333333321,
      "v": 48
    },
    {
      "midi": 59,
      "hit": false,
      "t": 19500,
      "d": 495.8333333333321,
      "v": 48
    },
    {
      "midi": 64,
      "hit": false,
      "t": 19500,
      "d": 495.8333333333321,
      "v": 48
    },
    {
      "midi": 68,
      "hit": false,
      "t": 19500,
      "d": 495.8333333333321,
      "v": 48
    },
    {
      "midi": 76,
      "hit": false,
      "t": 19500,
      "d": 495.8333333333321,
      "v": 48
    },
    {
      "midi": 44,
      "hit": false,
      "t": 20750,
      "d": 245.83333333333212,
      "v": 48
    },
    {
      "midi": 52,
      "hit": false,
      "t": 20750,
      "d": 245.83333333333212,
      "v": 48
    },
    {
      "midi": 64,
      "hit": false,
      "t": 20750,
      "d": 245.83333333333212,
      "v": 48
    },
    {
      "midi": 71,
      "hit": false,
      "t": 20750,
      "d": 245.83333333333212,
      "v": 48
    },
    {
      "midi": 45,
      "hit": false,
      "t": 21000,
      "d": 495.8333333333321,
      "v": 48
    },
    {
      "midi": 57,
      "hit": false,
      "t": 21000,
      "d": 495.8333333333321,
      "v": 48
    },
    {
      "midi": 60,
      "hit": false,
      "t": 21000,
      "d": 495.8333333333321,
      "v": 48
    },
    {
      "midi": 64,
      "hit": false,
      "t": 21000,
      "d": 495.8333333333321,
      "v": 48
    },
    {
      "midi": 57,
      "hit": false,
      "t": 22250,
      "d": 245.83333333333212,
      "v": 72
    },
    {
      "midi": 60,
      "hit": false,
      "t": 22250,
      "d": 245.83333333333212,
      "v": 72
    },
    {
      "midi": 64,
      "hit": false,
      "t": 22250,
      "d": 245.83333333333212,
      "v": 72
    },
    {
      "midi": 69,
      "hit": false,
      "t": 22250,
      "d": 245.83333333333212,
      "v": 72
    },
    {
      "midi": 55,
      "hit": false,
      "t": 22500,
      "d": 495.8333333333321,
      "v": 72
    },
    {
      "midi": 59,
      "hit": false,
      "t": 22500,
      "d": 495.8333333333321,
      "v": 72
    },
    {
      "midi": 64,
      "hit": false,
      "t": 22500,
      "d": 495.8333333333321,
      "v": 72
    },
    {
      "midi": 71,
      "hit": false,
      "t": 22500,
      "d": 495.8333333333321,
      "v": 72
    },
    {
      "midi": 76,
      "hit": false,
      "t": 22500,
      "d": 495.8333333333321,
      "v": 72
    },
    {
      "midi": 53,
      "hit": false,
      "t": 23750,
      "d": 245.83333333333212,
      "v": 72
    },
    {
      "midi": 57,
      "hit": false,
      "t": 23750,
      "d": 245.83333333333212,
      "v": 72
    },
    {
      "midi": 62,
      "hit": false,
      "t": 23750,
      "d": 245.83333333333212,
      "v": 72
    },
    {
      "midi": 65,
      "hit": false,
      "t": 23750,
      "d": 245.83333333333212,
      "v": 72
    },
    {
      "midi": 52,
      "hit": false,
      "t": 24000,
      "d": 495.8333333333321,
      "v": 72
    },
    {
      "midi": 55,
      "hit": false,
      "t": 24000,
      "d": 495.8333333333321,
      "v": 72
    },
    {
      "midi": 64,
      "hit": false,
      "t": 24000,
      "d": 495.8333333333321,
      "v": 72
    },
    {
      "midi": 67,
      "hit": false,
      "t": 24000,
      "d": 495.8333333333321,
      "v": 72
    },
    {
      "midi": 72,
      "hit": false,
      "t": 24000,
      "d": 495.8333333333321,
      "v": 72
    },
    {
      "midi": 50,
      "hit": false,
      "t": 25000,
      "d": 495.8333333333321,
      "v": 48
    },
    {
      "midi": 62,
      "hit": false,
      "t": 25000,
      "d": 495.8333333333321,
      "v": 48
    },
    {
      "midi": 65,
      "hit": false,
      "t": 25000,
      "d": 495.8333333333321,
      "v": 48
    },
    {
      "midi": 71,
      "hit": false,
      "t": 25000,
      "d": 495.8333333333321,
      "v": 48
    },
    {
      "midi": 74,
      "hit": false,
      "t": 25000,
      "d": 495.8333333333321,
      "v": 48
    },
    {
      "midi": 48,
      "hit": false,
      "t": 25500,
      "d": 495.8333333333321,
      "v": 48
    },
    {
      "midi": 55,
      "hit": false,
      "t": 25500,
      "d": 495.8333333333321,
      "v": 48
    },
    {
      "midi": 67,
      "hit": false,
      "t": 25500,
      "d": 495.8333333333321,
      "v": 48
    },
    {
      "midi": 72,
      "hit": false,
      "t": 25500,
      "d": 495.8333333333321,
      "v": 48
    },
    {
      "midi": 76,
      "hit": false,
      "t": 25500,
      "d": 495.8333333333321,
      "v": 48
    },
    {
      "midi": 48,
      "hit": false,
      "t": 26750,
      "d": 245.83333333333212,
      "v": 48
    },
    {
      "midi": 55,
      "hit": false,
      "t": 26750,
      "d": 245.83333333333212,
      "v": 48
    },
    {
      "midi": 60,
      "hit": false,
      "t": 26750,
      "d": 245.83333333333212,
      "v": 48
    },
    {
      "midi": 64,
      "hit": false,
      "t": 26750,
      "d": 245.83333333333212,
      "v": 48
    },
    {
      "midi": 47,
      "hit": false,
      "t": 27000,
      "d": 495.8333333333321,
      "v": 48
    },
    {
      "midi": 50,
      "hit": false,
      "t": 27000,
      "d": 495.8333333333321,
      "v": 48
    },
    {
      "midi": 55,
      "hit": false,
      "t": 27000,
      "d": 495.8333333333321,
      "v": 48
    },
    {
      "midi": 62,
      "hit": false,
      "t": 27000,
      "d": 495.8333333333321,
      "v": 48
    },
    {
      "midi": 46,
      "hit": false,
      "t": 27500,
      "d": 495.8333333333321,
      "v": 48
    },
    {
      "midi": 50,
      "hit": false,
      "t": 27500,
      "d": 495.8333333333321,
      "v": 48
    },
    {
      "midi": 55,
      "hit": false,
      "t": 27500,
      "d": 495.8333333333321,
      "v": 48
    },
    {
      "midi": 62,
      "hit": false,
      "t": 27500,
      "d": 495.8333333333321,
      "v": 48
    },
    {
      "midi": 67,
      "hit": false,
      "t": 27500,
      "d": 495.8333333333321,
      "v": 48
    },
    {
      "midi": 46,
      "hit": false,
      "t": 28250,
      "d": 245.83333333333212,
      "v": 48
    },
    {
      "midi": 50,
      "hit": false,
      "t": 28250,
      "d": 245.83333333333212,
      "v": 48
    },
    {
      "midi": 55,
      "hit": false,
      "t": 28250,
      "d": 245.83333333333212,
      "v": 48
    },
    {
      "midi": 62,
      "hit": false,
      "t": 28250,
      "d": 245.83333333333212,
      "v": 48
    },
    {
      "midi": 67,
      "hit": false,
      "t": 28250,
      "d": 245.83333333333212,
      "v": 48
    },
    {
      "midi": 45,
      "hit": false,
      "t": 28500,
      "d": 495.8333333333321,
      "v": 48
    },
    {
      "midi": 48,
      "hit": false,
      "t": 28500,
      "d": 495.8333333333321,
      "v": 48
    },
    {
      "midi": 60,
      "hit": false,
      "t": 28500,
      "d": 495.8333333333321,
      "v": 48
    },
    {
      "midi": 64,
      "hit": false,
      "t": 28500,
      "d": 495.8333333333321,
      "v": 48
    },
    {
      "midi": 67,
      "hit": false,
      "t": 28500,
      "d": 495.8333333333321,
      "v": 48
    },
    {
      "midi": 45,
      "hit": false,
      "t": 29750,
      "d": 245.83333333333212,
      "v": 48
    },
    {
      "midi": 48,
      "hit": false,
      "t": 29750,
      "d": 245.83333333333212,
      "v": 48
    },
    {
      "midi": 60,
      "hit": false,
      "t": 29750,
      "d": 245.83333333333212,
      "v": 48
    },
    {
      "midi": 66,
      "hit": false,
      "t": 29750,
      "d": 245.83333333333212,
      "v": 48
    },
    {
      "midi": 69,
      "hit": false,
      "t": 29750,
      "d": 245.83333333333212,
      "v": 48
    },
    {
      "midi": 43,
      "hit": false,
      "t": 30000,
      "d": 495.8333333333321,
      "v": 48
    },
    {
      "midi": 55,
      "hit": false,
      "t": 30000,
      "d": 495.8333333333321,
      "v": 48
    },
    {
      "midi": 62,
      "hit": false,
      "t": 30000,
      "d": 495.8333333333321,
      "v": 48
    },
    {
      "midi": 67,
      "hit": false,
      "t": 30000,
      "d": 495.8333333333321,
      "v": 48
    },
    {
      "midi": 71,
      "hit": false,
      "t": 30000,
      "d": 495.8333333333321,
      "v": 48
    },
    {
      "midi": 47,
      "hit": false,
      "t": 32000,
      "d": 495.8333333333321,
      "v": 48
    },
    {
      "midi": 55,
      "hit": false,
      "t": 32000,
      "d": 495.8333333333321,
      "v": 48
    },
    {
      "midi": 62,
      "hit": false,
      "t": 32000,
      "d": 495.8333333333321,
      "v": 48
    },
    {
      "midi": 67,
      "hit": false,
      "t": 32000,
      "d": 495.8333333333321,
      "v": 48
    },
    {
      "midi": 74,
      "hit": false,
      "t": 32000,
      "d": 495.8333333333321,
      "v": 48
    },
    {
      "midi": 43,
      "hit": false,
      "t": 32500,
      "d": 495.83333333333576,
      "v": 48
    },
    {
      "midi": 55,
      "hit": false,
      "t": 32500,
      "d": 495.83333333333576,
      "v": 48
    },
    {
      "midi": 62,
      "hit": false,
      "t": 32500,
      "d": 495.83333333333576,
      "v": 48
    },
    {
      "midi": 67,
      "hit": false,
      "t": 32500,
      "d": 495.83333333333576,
      "v": 48
    },
    {
      "midi": 71,
      "hit": false,
      "t": 32500,
      "d": 495.83333333333576,
      "v": 48
    },
    {
      "midi": 48,
      "hit": false,
      "t": 33000,
      "d": 495.83333333333576,
      "v": 48
    },
    {
      "midi": 55,
      "hit": false,
      "t": 33000,
      "d": 495.83333333333576,
      "v": 48
    },
    {
      "midi": 64,
      "hit": false,
      "t": 33000,
      "d": 495.83333333333576,
      "v": 48
    },
    {
      "midi": 67,
      "hit": false,
      "t": 33000,
      "d": 495.83333333333576,
      "v": 48
    },
    {
      "midi": 72,
      "hit": false,
      "t": 33000,
      "d": 495.83333333333576,
      "v": 48
    },
    {
      "midi": 36,
      "hit": false,
      "t": 33500,
      "d": 495.83333333333576,
      "v": 48
    },
    {
      "midi": 48,
      "hit": false,
      "t": 33500,
      "d": 495.83333333333576,
      "v": 48
    },
    {
      "midi": 60,
      "hit": false,
      "t": 33500,
      "d": 495.83333333333576,
      "v": 48
    },
    {
      "midi": 64,
      "hit": false,
      "t": 33500,
      "d": 495.83333333333576,
      "v": 48
    },
    {
      "midi": 48,
      "hit": false,
      "t": 34250,
      "d": 245.83333333333576,
      "v": 48
    },
    {
      "midi": 52,
      "hit": false,
      "t": 34250,
      "d": 245.83333333333576,
      "v": 48
    },
    {
      "midi": 67,
      "hit": false,
      "t": 34250,
      "d": 245.83333333333576,
      "v": 48
    },
    {
      "midi": 72,
      "hit": false,
      "t": 34250,
      "d": 245.83333333333576,
      "v": 48
    },
    {
      "midi": 50,
      "hit": false,
      "t": 34500,
      "d": 495.83333333333576,
      "v": 48
    },
    {
      "midi": 53,
      "hit": false,
      "t": 34500,
      "d": 495.83333333333576,
      "v": 48
    },
    {
      "midi": 62,
      "hit": false,
      "t": 34500,
      "d": 495.83333333333576,
      "v": 48
    },
    {
      "midi": 65,
      "hit": false,
      "t": 34500,
      "d": 495.83333333333576,
      "v": 48
    },
    {
      "midi": 72,
      "hit": false,
      "t": 34500,
      "d": 495.83333333333576,
      "v": 48
    },
    {
      "midi": 38,
      "hit": false,
      "t": 35000,
      "d": 495.83333333333576,
      "v": 48
    },
    {
      "midi": 50,
      "hit": false,
      "t": 35000,
      "d": 495.83333333333576,
      "v": 48
    },
    {
      "midi": 62,
      "hit": false,
      "t": 35000,
      "d": 495.83333333333576,
      "v": 48
    },
    {
      "midi": 65,
      "hit": false,
      "t": 35000,
      "d": 495.83333333333576,
      "v": 48
    },
    {
      "midi": 71,
      "hit": false,
      "t": 35000,
      "d": 495.83333333333576,
      "v": 48
    },
    {
      "midi": 50,
      "hit": false,
      "t": 35750,
      "d": 245.83333333333576,
      "v": 48
    },
    {
      "midi": 53,
      "hit": false,
      "t": 35750,
      "d": 245.83333333333576,
      "v": 48
    },
    {
      "midi": 62,
      "hit": false,
      "t": 35750,
      "d": 245.83333333333576,
      "v": 48
    },
    {
      "midi": 65,
      "hit": false,
      "t": 35750,
      "d": 245.83333333333576,
      "v": 48
    },
    {
      "midi": 74,
      "hit": false,
      "t": 35750,
      "d": 245.83333333333576,
      "v": 48
    },
    {
      "midi": 52,
      "hit": false,
      "t": 36000,
      "d": 495.83333333333576,
      "v": 48
    },
    {
      "midi": 55,
      "hit": false,
      "t": 36000,
      "d": 495.83333333333576,
      "v": 48
    },
    {
      "midi": 62,
      "hit": false,
      "t": 36000,
      "d": 495.83333333333576,
      "v": 48
    },
    {
      "midi": 64,
      "hit": false,
      "t": 36000,
      "d": 495.83333333333576,
      "v": 48
    },
    {
      "midi": 67,
      "hit": false,
      "t": 36000,
      "d": 495.83333333333576,
      "v": 48
    },
    {
      "midi": 40,
      "hit": false,
      "t": 36500,
      "d": 495.83333333333576,
      "v": 48
    },
    {
      "midi": 52,
      "hit": false,
      "t": 36500,
      "d": 495.83333333333576,
      "v": 48
    },
    {
      "midi": 60,
      "hit": false,
      "t": 36500,
      "d": 495.83333333333576,
      "v": 48
    },
    {
      "midi": 67,
      "hit": false,
      "t": 36500,
      "d": 495.83333333333576,
      "v": 48
    },
    {
      "midi": 72,
      "hit": false,
      "t": 36500,
      "d": 495.83333333333576,
      "v": 48
    },
    {
      "midi": 52,
      "hit": false,
      "t": 37250,
      "d": 245.83333333333576,
      "v": 48
    },
    {
      "midi": 55,
      "hit": false,
      "t": 37250,
      "d": 245.83333333333576,
      "v": 48
    },
    {
      "midi": 60,
      "hit": false,
      "t": 37250,
      "d": 245.83333333333576,
      "v": 48
    },
    {
      "midi": 67,
      "hit": false,
      "t": 37250,
      "d": 245.83333333333576,
      "v": 48
    },
    {
      "midi": 72,
      "hit": false,
      "t": 37250,
      "d": 245.83333333333576,
      "v": 48
    },
    {
      "midi": 53,
      "hit": false,
      "t": 37500,
      "d": 495.83333333333576,
      "v": 48
    },
    {
      "midi": 60,
      "hit": false,
      "t": 37500,
      "d": 495.83333333333576,
      "v": 48
    },
    {
      "midi": 65,
      "hit": false,
      "t": 37500,
      "d": 495.83333333333576,
      "v": 48
    },
    {
      "midi": 69,
      "hit": false,
      "t": 37500,
      "d": 495.83333333333576,
      "v": 48
    },
    {
      "midi": 72,
      "hit": false,
      "t": 37500,
      "d": 495.83333333333576,
      "v": 48
    },
    {
      "midi": 50,
      "hit": false,
      "t": 38000,
      "d": 495.83333333333576,
      "v": 48
    },
    {
      "midi": 53,
      "hit": false,
      "t": 38000,
      "d": 495.83333333333576,
      "v": 48
    },
    {
      "midi": 65,
      "hit": false,
      "t": 38000,
      "d": 495.83333333333576,
      "v": 48
    },
    {
      "midi": 71,
      "hit": false,
      "t": 38000,
      "d": 495.83333333333576,
      "v": 48
    },
    {
      "midi": 74,
      "hit": false,
      "t": 38000,
      "d": 495.83333333333576,
      "v": 48
    },
    {
      "midi": 52,
      "hit": false,
      "t": 38500,
      "d": 495.83333333333576,
      "v": 48
    },
    {
      "midi": 55,
      "hit": false,
      "t": 38500,
      "d": 495.83333333333576,
      "v": 48
    },
    {
      "midi": 60,
      "hit": false,
      "t": 38500,
      "d": 495.83333333333576,
      "v": 48
    },
    {
      "midi": 67,
      "hit": false,
      "t": 38500,
      "d": 495.83333333333576,
      "v": 48
    },
    {
      "midi": 47,
      "hit": false,
      "t": 39000,
      "d": 495.83333333333576,
      "v": 48
    },
    {
      "midi": 55,
      "hit": false,
      "t": 39000,
      "d": 495.83333333333576,
      "v": 48
    },
    {
      "midi": 62,
      "hit": false,
      "t": 39000,
      "d": 495.83333333333576,
      "v": 48
    },
    {
      "midi": 67,
      "hit": false,
      "t": 39000,
      "d": 995.8333333333358,
      "v": 48
    },
    {
      "midi": 48,
      "hit": false,
      "t": 39500,
      "d": 495.83333333333576,
      "v": 48
    },
    {
      "midi": 55,
      "hit": false,
      "t": 39500,
      "d": 495.83333333333576,
      "v": 48
    },
    {
      "midi": 64,
      "hit": false,
      "t": 39500,
      "d": 495.83333333333576,
      "v": 48
    },
    {
      "midi": 53,
      "hit": false,
      "t": 40000,
      "d": 495.83333333333576,
      "v": 48
    },
    {
      "midi": 57,
      "hit": false,
      "t": 40000,
      "d": 495.83333333333576,
      "v": 48
    },
    {
      "midi": 65,
      "hit": false,
      "t": 40000,
      "d": 495.83333333333576,
      "v": 48
    },
    {
      "midi": 69,
      "hit": false,
      "t": 40000,
      "d": 495.83333333333576,
      "v": 48
    },
    {
      "midi": 72,
      "hit": false,
      "t": 40000,
      "d": 495.83333333333576,
      "v": 48
    },
    {
      "midi": 74,
      "hit": false,
      "t": 40000,
      "d": 495.83333333333576,
      "v": 48
    },
    {
      "midi": 55,
      "hit": false,
      "t": 40500,
      "d": 745.8333333333358,
      "v": 48
    },
    {
      "midi": 62,
      "hit": false,
      "t": 40500,
      "d": 745.8333333333358,
      "v": 48
    },
    {
      "midi": 67,
      "hit": false,
      "t": 40500,
      "d": 745.8333333333358,
      "v": 48
    },
    {
      "midi": 71,
      "hit": false,
      "t": 40500,
      "d": 745.8333333333358,
      "v": 48
    },
    {
      "midi": 74,
      "hit": false,
      "t": 40500,
      "d": 745.8333333333358,
      "v": 48
    },
    {
      "midi": 53,
      "hit": false,
      "t": 41250,
      "d": 245.83333333333576,
      "v": 48
    },
    {
      "midi": 55,
      "hit": false,
      "t": 41250,
      "d": 245.83333333333576,
      "v": 48
    },
    {
      "midi": 59,
      "hit": false,
      "t": 41250,
      "d": 245.83333333333576,
      "v": 48
    },
    {
      "midi": 62,
      "hit": false,
      "t": 41250,
      "d": 245.83333333333576,
      "v": 48
    },
    {
      "midi": 52,
      "hit": false,
      "t": 41500,
      "d": 245.83333333333576,
      "v": 48
    },
    {
      "midi": 55,
      "hit": false,
      "t": 41500,
      "d": 245.83333333333576,
      "v": 48
    },
    {
      "midi": 60,
      "hit": false,
      "t": 41500,
      "d": 245.83333333333576,
      "v": 48
    },
    {
      "midi": 64,
      "hit": false,
      "t": 41500,
      "d": 245.83333333333576,
      "v": 48
    },
    {
      "midi": 48,
      "hit": false,
      "t": 41750,
      "d": 245.83333333333576,
      "v": 48
    },
    {
      "midi": 55,
      "hit": false,
      "t": 41750,
      "d": 245.83333333333576,
      "v": 48
    },
    {
      "midi": 64,
      "hit": false,
      "t": 41750,
      "d": 245.83333333333576,
      "v": 48
    },
    {
      "midi": 67,
      "hit": false,
      "t": 41750,
      "d": 245.83333333333576,
      "v": 48
    },
    {
      "midi": 57,
      "hit": false,
      "t": 42000,
      "d": 245.83333333333576,
      "v": 48
    },
    {
      "midi": 60,
      "hit": false,
      "t": 42000,
      "d": 245.83333333333576,
      "v": 48
    },
    {
      "midi": 65,
      "hit": false,
      "t": 42000,
      "d": 245.83333333333576,
      "v": 48
    },
    {
      "midi": 53,
      "hit": false,
      "t": 42250,
      "d": 245.83333333333576,
      "v": 48
    },
    {
      "midi": 60,
      "hit": false,
      "t": 42250,
      "d": 245.83333333333576,
      "v": 48
    },
    {
      "midi": 65,
      "hit": false,
      "t": 42250,
      "d": 245.83333333333576,
      "v": 48
    },
    {
      "midi": 69,
      "hit": false,
      "t": 42250,
      "d": 245.83333333333576,
      "v": 48
    },
    {
      "midi": 55,
      "hit": false,
      "t": 42500,
      "d": 495.83333333333576,
      "v": 48
    },
    {
      "midi": 59,
      "hit": false,
      "t": 42500,
      "d": 495.83333333333576,
      "v": 48
    },
    {
      "midi": 62,
      "hit": false,
      "t": 42500,
      "d": 495.83333333333576,
      "v": 48
    },
    {
      "midi": 43,
      "hit": false,
      "t": 43000,
      "d": 495.83333333333576,
      "v": 48
    },
    {
      "midi": 55,
      "hit": false,
      "t": 43000,
      "d": 495.83333333333576,
      "v": 48
    },
    {
      "midi": 59,
      "hit": false,
      "t": 43000,
      "d": 495.83333333333576,
      "v": 48
    },
    {
      "midi": 62,
      "hit": false,
      "t": 43000,
      "d": 495.83333333333576,
      "v": 48
    },
    {
      "midi": 67,
      "hit": false,
      "t": 43000,
      "d": 495.83333333333576,
      "v": 48
    },
    {
      "midi": 48,
      "hit": false,
      "t": 43500,
      "d": 495.83333333333576,
      "v": 48
    },
    {
      "midi": 55,
      "hit": false,
      "t": 43500,
      "d": 495.83333333333576,
      "v": 48
    },
    {
      "midi": 60,
      "hit": false,
      "t": 43500,
      "d": 495.83333333333576,
      "v": 48
    },
    {
      "midi": 64,
      "hit": false,
      "t": 43500,
      "d": 495.83333333333576,
      "v": 48
    },
    {
      "midi": 36,
      "hit": false,
      "t": 44000,
      "d": 495.83333333333576,
      "v": 48
    },
    {
      "midi": 48,
      "hit": false,
      "t": 44000,
      "d": 495.83333333333576,
      "v": 48
    },
    {
      "midi": 52,
      "hit": false,
      "t": 44000,
      "d": 495.83333333333576,
      "v": 48
    },
    {
      "midi": 55,
      "hit": false,
      "t": 44000,
      "d": 495.83333333333576,
      "v": 48
    },
    {
      "midi": 60,
      "hit": false,
      "t": 44000,
      "d": 495.83333333333576,
      "v": 48
    },
    {
      "midi": 48,
      "hit": false,
      "t": 44750,
      "d": 245.83333333333576,
      "v": 72
    },
    {
      "midi": 52,
      "hit": false,
      "t": 44750,
      "d": 245.83333333333576,
      "v": 72
    },
    {
      "midi": 55,
      "hit": false,
      "t": 44750,
      "d": 245.83333333333576,
      "v": 72
    },
    {
      "midi": 60,
      "hit": false,
      "t": 44750,
      "d": 245.83333333333576,
      "v": 72
    },
    {
      "midi": 47,
      "hit": false,
      "t": 45000,
      "d": 495.83333333333576,
      "v": 72
    },
    {
      "midi": 50,
      "hit": false,
      "t": 45000,
      "d": 495.83333333333576,
      "v": 72
    },
    {
      "midi": 55,
      "hit": false,
      "t": 45000,
      "d": 495.83333333333576,
      "v": 72
    },
    {
      "midi": 62,
      "hit": false,
      "t": 45000,
      "d": 495.83333333333576,
      "v": 72
    },
    {
      "midi": 67,
      "hit": false,
      "t": 45000,
      "d": 495.83333333333576,
      "v": 72
    },
    {
      "midi": 46,
      "hit": false,
      "t": 46250,
      "d": 245.83333333333576,
      "v": 72
    },
    {
      "midi": 50,
      "hit": false,
      "t": 46250,
      "d": 245.83333333333576,
      "v": 72
    },
    {
      "midi": 55,
      "hit": false,
      "t": 46250,
      "d": 245.83333333333576,
      "v": 72
    },
    {
      "midi": 62,
      "hit": false,
      "t": 46250,
      "d": 245.83333333333576,
      "v": 72
    },
    {
      "midi": 67,
      "hit": false,
      "t": 46250,
      "d": 245.83333333333576,
      "v": 72
    },
    {
      "midi": 45,
      "hit": false,
      "t": 46500,
      "d": 495.83333333333576,
      "v": 72
    },
    {
      "midi": 55,
      "hit": false,
      "t": 46500,
      "d": 495.83333333333576,
      "v": 72
    },
    {
      "midi": 57,
      "hit": false,
      "t": 46500,
      "d": 495.83333333333576,
      "v": 72
    },
    {
      "midi": 60,
      "hit": false,
      "t": 46500,
      "d": 495.83333333333576,
      "v": 72
    },
    {
      "midi": 67,
      "hit": false,
      "t": 46500,
      "d": 495.83333333333576,
      "v": 72
    },
    {
      "midi": 44,
      "hit": false,
      "t": 47750,
      "d": 245.83333333333576,
      "v": 72
    },
    {
      "midi": 48,
      "hit": false,
      "t": 47750,
      "d": 245.83333333333576,
      "v": 72
    },
    {
      "midi": 60,
      "hit": false,
      "t": 47750,
      "d": 245.83333333333576,
      "v": 72
    },
    {
      "midi": 65,
      "hit": false,
      "t": 47750,
      "d": 245.83333333333576,
      "v": 72
    },
    {
      "midi": 43,
      "hit": false,
      "t": 48000,
      "d": 495.83333333333576,
      "v": 72
    },
    {
      "midi": 50,
      "hit": false,
      "t": 48000,
      "d": 495.83333333333576,
      "v": 72
    },
    {
      "midi": 59,
      "hit": false,
      "t": 48000,
      "d": 495.83333333333576,
      "v": 72
    },
    {
      "midi": 62,
      "hit": false,
      "t": 48000,
      "d": 495.83333333333576,
      "v": 72
    },
    {
      "midi": 65,
      "hit": false,
      "t": 48000,
      "d": 495.83333333333576,
      "v": 72
    },
    {
      "midi": 59,
      "hit": false,
      "t": 49250,
      "d": 245.83333333333576,
      "v": 72
    },
    {
      "midi": 62,
      "hit": false,
      "t": 49250,
      "d": 245.83333333333576,
      "v": 72
    },
    {
      "midi": 67,
      "hit": false,
      "t": 49250,
      "d": 245.83333333333576,
      "v": 72
    },
    {
      "midi": 74,
      "hit": false,
      "t": 49250,
      "d": 245.83333333333576,
      "v": 72
    },
    {
      "midi": 60,
      "hit": false,
      "t": 49500,
      "d": 245.83333333333576,
      "v": 72
    },
    {
      "midi": 64,
      "hit": false,
      "t": 49500,
      "d": 245.83333333333576,
      "v": 72
    },
    {
      "midi": 67,
      "hit": false,
      "t": 49500,
      "d": 245.83333333333576,
      "v": 72
    },
    {
      "midi": 53,
      "hit": false,
      "t": 49750,
      "d": 245.83333333333576,
      "v": 72
    },
    {
      "midi": 60,
      "hit": false,
      "t": 49750,
      "d": 245.83333333333576,
      "v": 72
    },
    {
      "midi": 65,
      "hit": false,
      "t": 49750,
      "d": 245.83333333333576,
      "v": 72
    },
    {
      "midi": 69,
      "hit": false,
      "t": 49750,
      "d": 245.83333333333576,
      "v": 72
    },
    {
      "midi": 55,
      "hit": false,
      "t": 50000,
      "d": 495.83333333333576,
      "v": 72
    },
    {
      "midi": 59,
      "hit": false,
      "t": 50000,
      "d": 495.83333333333576,
      "v": 72
    },
    {
      "midi": 62,
      "hit": false,
      "t": 50000,
      "d": 495.83333333333576,
      "v": 72
    },
    {
      "midi": 43,
      "hit": false,
      "t": 50500,
      "d": 495.83333333333576,
      "v": 72
    },
    {
      "midi": 55,
      "hit": false,
      "t": 50500,
      "d": 495.83333333333576,
      "v": 72
    },
    {
      "midi": 59,
      "hit": false,
      "t": 50500,
      "d": 495.83333333333576,
      "v": 72
    },
    {
      "midi": 62,
      "hit": false,
      "t": 50500,
      "d": 495.83333333333576,
      "v": 72
    },
    {
      "midi": 67,
      "hit": false,
      "t": 50500,
      "d": 495.83333333333576,
      "v": 72
    },
    {
      "midi": 48,
      "hit": false,
      "t": 51000,
      "d": 495.83333333333576,
      "v": 72
    },
    {
      "midi": 55,
      "hit": false,
      "t": 51000,
      "d": 495.83333333333576,
      "v": 72
    },
    {
      "midi": 60,
      "hit": false,
      "t": 51000,
      "d": 495.83333333333576,
      "v": 72
    },
    {
      "midi": 64,
      "hit": false,
      "t": 51000,
      "d": 495.83333333333576,
      "v": 72
    },
    {
      "midi": 45,
      "hit": false,
      "t": 52500,
      "d": 495.83333333333576,
      "v": 72
    },
    {
      "midi": 57,
      "hit": false,
      "t": 52500,
      "d": 495.83333333333576,
      "v": 72
    },
    {
      "midi": 60,
      "hit": false,
      "t": 52500,
      "d": 495.83333333333576,
      "v": 72
    },
    {
      "midi": 64,
      "hit": false,
      "t": 52500,
      "d": 495.83333333333576,
      "v": 72
    },
    {
      "midi": 57,
      "hit": false,
      "t": 53750,
      "d": 245.83333333333576,
      "v": 72
    },
    {
      "midi": 60,
      "hit": false,
      "t": 53750,
      "d": 245.83333333333576,
      "v": 72
    },
    {
      "midi": 64,
      "hit": false,
      "t": 53750,
      "d": 245.83333333333576,
      "v": 72
    },
    {
      "midi": 69,
      "hit": false,
      "t": 53750,
      "d": 245.83333333333576,
      "v": 72
    },
    {
      "midi": 55,
      "hit": false,
      "t": 54000,
      "d": 495.83333333333576,
      "v": 72
    },
    {
      "midi": 59,
      "hit": false,
      "t": 54000,
      "d": 495.83333333333576,
      "v": 72
    },
    {
      "midi": 64,
      "hit": false,
      "t": 54000,
      "d": 495.83333333333576,
      "v": 72
    },
    {
      "midi": 71,
      "hit": false,
      "t": 54000,
      "d": 495.83333333333576,
      "v": 72
    },
    {
      "midi": 53,
      "hit": false,
      "t": 55250,
      "d": 245.83333333333576,
      "v": 72
    },
    {
      "midi": 57,
      "hit": false,
      "t": 55250,
      "d": 245.83333333333576,
      "v": 72
    },
    {
      "midi": 65,
      "hit": false,
      "t": 55250,
      "d": 245.83333333333576,
      "v": 72
    },
    {
      "midi": 69,
      "hit": false,
      "t": 55250,
      "d": 245.83333333333576,
      "v": 72
    },
    {
      "midi": 74,
      "hit": false,
      "t": 55250,
      "d": 245.83333333333576,
      "v": 72
    },
    {
      "midi": 52,
      "hit": false,
      "t": 55500,
      "d": 495.83333333333576,
      "v": 72
    },
    {
      "midi": 55,
      "hit": false,
      "t": 55500,
      "d": 495.83333333333576,
      "v": 72
    },
    {
      "midi": 67,
      "hit": false,
      "t": 55500,
      "d": 495.83333333333576,
      "v": 72
    },
    {
      "midi": 73,
      "hit": false,
      "t": 55500,
      "d": 495.83333333333576,
      "v": 72
    },
    {
      "midi": 76,
      "hit": false,
      "t": 55500,
      "d": 495.83333333333576,
      "v": 72
    },
    {
      "midi": 49,
      "hit": false,
      "t": 56750,
      "d": 245.83333333333576,
      "v": 48
    },
    {
      "midi": 57,
      "hit": false,
      "t": 56750,
      "d": 245.83333333333576,
      "v": 48
    },
    {
      "midi": 64,
      "hit": false,
      "t": 56750,
      "d": 245.83333333333576,
      "v": 48
    },
    {
      "midi": 69,
      "hit": false,
      "t": 56750,
      "d": 745.8333333333358,
      "v": 48
    },
    {
      "midi": 50,
      "hit": false,
      "t": 57000,
      "d": 495.83333333333576,
      "v": 48
    },
    {
      "midi": 57,
      "hit": false,
      "t": 57000,
      "d": 495.83333333333576,
      "v": 48
    },
    {
      "midi": 62,
      "hit": false,
      "t": 57000,
      "d": 495.83333333333576,
      "v": 48
    },
    {
      "midi": 65,
      "hit": false,
      "t": 57000,
      "d": 495.83333333333576,
      "v": 48
    },
    {
      "midi": 49,
      "hit": false,
      "t": 58000,
      "d": 495.83333333333576,
      "v": 48
    },
    {
      "midi": 57,
      "hit": false,
      "t": 58000,
      "d": 495.83333333333576,
      "v": 48
    },
    {
      "midi": 64,
      "hit": false,
      "t": 58000,
      "d": 495.83333333333576,
      "v": 48
    },
    {
      "midi": 69,
      "hit": false,
      "t": 58000,
      "d": 1495.8333333333358,
      "v": 48
    },
    {
      "midi": 50,
      "hit": false,
      "t": 58500,
      "d": 495.83333333333576,
      "v": 48
    },
    {
      "midi": 62,
      "hit": false,
      "t": 58500,
      "d": 495.83333333333576,
      "v": 48
    },
    {
      "midi": 65,
      "hit": false,
      "t": 58500,
      "d": 495.83333333333576,
      "v": 48
    },
    {
      "midi": 53,
      "hit": false,
      "t": 59000,
      "d": 495.83333333333576,
      "v": 48
    },
    {
      "midi": 57,
      "hit": false,
      "t": 59000,
      "d": 495.83333333333576,
      "v": 48
    },
    {
      "midi": 62,
      "hit": false,
      "t": 59000,
      "d": 495.83333333333576,
      "v": 48
    },
    {
      "midi": 57,
      "hit": false,
      "t": 59500,
      "d": 495.83333333333576,
      "v": 48
    },
    {
      "midi": 61,
      "hit": false,
      "t": 59500,
      "d": 495.83333333333576,
      "v": 48
    },
    {
      "midi": 64,
      "hit": false,
      "t": 59500,
      "d": 495.83333333333576,
      "v": 48
    },
    {
      "midi": 69,
      "hit": false,
      "t": 59500,
      "d": 995.8333333333358,
      "v": 48
    },
    {
      "midi": 62,
      "hit": false,
      "t": 60000,
      "d": 495.83333333333576,
      "v": 48
    },
    {
      "midi": 65,
      "hit": false,
      "t": 60000,
      "d": 495.83333333333576,
      "v": 48
    },
    {
      "midi": 53,
      "hit": false,
      "t": 60500,
      "d": 495.83333333333576,
      "v": 48
    },
    {
      "midi": 65,
      "hit": false,
      "t": 60500,
      "d": 495.83333333333576,
      "v": 48
    },
    {
      "midi": 69,
      "hit": false,
      "t": 60500,
      "d": 495.83333333333576,
      "v": 48
    },
    {
      "midi": 74,
      "hit": false,
      "t": 60500,
      "d": 495.83333333333576,
      "v": 48
    },
    {
      "midi": 57,
      "hit": false,
      "t": 61000,
      "d": 495.83333333333576,
      "v": 48
    },
    {
      "midi": 64,
      "hit": false,
      "t": 61000,
      "d": 495.83333333333576,
      "v": 48
    },
    {
      "midi": 69,
      "hit": false,
      "t": 61000,
      "d": 495.83333333333576,
      "v": 48
    },
    {
      "midi": 73,
      "hit": false,
      "t": 61000,
      "d": 495.83333333333576,
      "v": 48
    },
    {
      "midi": 50,
      "hit": false,
      "t": 61500,
      "d": 745.8333333333358,
      "v": 48
    },
    {
      "midi": 65,
      "hit": false,
      "t": 61500,
      "d": 745.8333333333358,
      "v": 48
    },
    {
      "midi": 69,
      "hit": false,
      "t": 61500,
      "d": 995.8333333333358,
      "v": 48
    },
    {
      "midi": 74,
      "hit": false,
      "t": 61500,
      "d": 995.8333333333358,
      "v": 48
    },
    {
      "midi": 57,
      "hit": false,
      "t": 61500,
      "d": 1495.8333333333358,
      "v": 48
    },
    {
      "midi": 52,
      "hit": false,
      "t": 62250,
      "d": 245.83333333333576,
      "v": 48
    },
    {
      "midi": 67,
      "hit": false,
      "t": 62250,
      "d": 245.83333333333576,
      "v": 48
    },
    {
      "midi": 53,
      "hit": false,
      "t": 62500,
      "d": 495.83333333333576,
      "v": 48
    },
    {
      "midi": 69,
      "hit": false,
      "t": 62500,
      "d": 495.83333333333576,
      "v": 48
    },
    {
      "midi": 74,
      "hit": false,
      "t": 62500,
      "d": 495.83333333333576,
      "v": 48
    },
    {
      "midi": 52,
      "hit": false,
      "t": 63000,
      "d": 495.83333333333576,
      "v": 48
    },
    {
      "midi": 59,
      "hit": false,
      "t": 63000,
      "d": 495.83333333333576,
      "v": 48
    },
    {
      "midi": 64,
      "hit": false,
      "t": 63000,
      "d": 495.83333333333576,
      "v": 48
    },
    {
      "midi": 68,
      "hit": false,
      "t": 63000,
      "d": 495.83333333333576,
      "v": 48
    },
    {
      "midi": 71,
      "hit": false,
      "t": 63000,
      "d": 495.83333333333576,
      "v": 48
    },
    {
      "midi": 44,
      "hit": false,
      "t": 63500,
      "d": 495.83333333333576,
      "v": 48
    },
    {
      "midi": 52,
      "hit": false,
      "t": 63500,
      "d": 495.83333333333576,
      "v": 48
    },
    {
      "midi": 64,
      "hit": false,
      "t": 63500,
      "d": 495.83333333333576,
      "v": 48
    },
    {
      "midi": 71,
      "hit": false,
      "t": 63500,
      "d": 495.83333333333576,
      "v": 48
    },
    {
      "midi": 76,
      "hit": false,
      "t": 63500,
      "d": 495.83333333333576,
      "v": 48
    },
    {
      "midi": 40,
      "hit": false,
      "t": 64000,
      "d": 495.83333333333576,
      "v": 48
    },
    {
      "midi": 52,
      "hit": false,
      "t": 64000,
      "d": 495.83333333333576,
      "v": 48
    },
    {
      "midi": 64,
      "hit": false,
      "t": 64000,
      "d": 495.83333333333576,
      "v": 48
    },
    {
      "midi": 68,
      "hit": false,
      "t": 64000,
      "d": 495.83333333333576,
      "v": 48
    },
    {
      "midi": 71,
      "hit": false,
      "t": 64000,
      "d": 495.83333333333576,
      "v": 48
    },
    {
      "midi": 45,
      "hit": false,
      "t": 64500,
      "d": 495.83333333333576,
      "v": 48
    },
    {
      "midi": 52,
      "hit": false,
      "t": 64500,
      "d": 495.83333333333576,
      "v": 48
    },
    {
      "midi": 64,
      "hit": false,
      "t": 64500,
      "d": 495.83333333333576,
      "v": 48
    },
    {
      "midi": 69,
      "hit": false,
      "t": 64500,
      "d": 495.83333333333576,
      "v": 48
    },
    {
      "midi": 72,
      "hit": false,
      "t": 64500,
      "d": 495.83333333333576,
      "v": 48
    },
    {
      "midi": 49,
      "hit": false,
      "t": 65750,
      "d": 245.83333333332848,
      "v": 48
    },
    {
      "midi": 57,
      "hit": false,
      "t": 65750,
      "d": 245.83333333332848,
      "v": 48
    },
    {
      "midi": 64,
      "hit": false,
      "t": 65750,
      "d": 245.83333333332848,
      "v": 48
    },
    {
      "midi": 69,
      "hit": false,
      "t": 65750,
      "d": 745.8333333333285,
      "v": 48
    },
    {
      "midi": 50,
      "hit": false,
      "t": 66000,
      "d": 495.8333333333285,
      "v": 48
    },
    {
      "midi": 57,
      "hit": false,
      "t": 66000,
      "d": 495.8333333333285,
      "v": 48
    },
    {
      "midi": 62,
      "hit": false,
      "t": 66000,
      "d": 495.8333333333285,
      "v": 48
    },
    {
      "midi": 66,
      "hit": false,
      "t": 66000,
      "d": 495.8333333333285,
      "v": 48
    },
    {
      "midi": 51,
      "hit": false,
      "t": 67250,
      "d": 245.83333333332848,
      "v": 48
    },
    {
      "midi": 54,
      "hit": false,
      "t": 67250,
      "d": 245.83333333332848,
      "v": 48
    },
    {
      "midi": 59,
      "hit": false,
      "t": 67250,
      "d": 245.83333333332848,
      "v": 48
    },
    {
      "midi": 66,
      "hit": false,
      "t": 67250,
      "d": 245.83333333332848,
      "v": 48
    },
    {
      "midi": 71,
      "hit": false,
      "t": 67250,
      "d": 745.8333333333285,
      "v": 48
    },
    {
      "midi": 52,
      "hit": false,
      "t": 67500,
      "d": 495.8333333333285,
      "v": 48
    },
    {
      "midi": 59,
      "hit": false,
      "t": 67500,
      "d": 495.8333333333285,
      "v": 48
    },
    {
      "midi": 68,
      "hit": false,
      "t": 67500,
      "d": 495.8333333333285,
      "v": 48
    },
    {
      "midi": 52,
      "hit": false,
      "t": 68750,
      "d": 245.83333333332848,
      "v": 48
    },
    {
      "midi": 56,
      "hit": false,
      "t": 68750,
      "d": 245.83333333332848,
      "v": 48
    },
    {
      "midi": 59,
      "hit": false,
      "t": 68750,
      "d": 245.83333333332848,
      "v": 48
    },
    {
      "midi": 64,
      "hit": false,
      "t": 68750,
      "d": 245.83333333332848,
      "v": 48
    },
    {
      "midi": 53,
      "hit": false,
      "t": 69000,
      "d": 495.8333333333285,
      "v": 48
    },
    {
      "midi": 57,
      "hit": false,
      "t": 69000,
      "d": 495.8333333333285,
      "v": 48
    },
    {
      "midi": 62,
      "hit": false,
      "t": 69000,
      "d": 495.8333333333285,
      "v": 48
    },
    {
      "midi": 54,
      "hit": false,
      "t": 69500,
      "d": 495.8333333333285,
      "v": 48
    },
    {
      "midi": 57,
      "hit": false,
      "t": 69500,
      "d": 495.8333333333285,
      "v": 48
    },
    {
      "midi": 62,
      "hit": false,
      "t": 69500,
      "d": 495.8333333333285,
      "v": 48
    },
    {
      "midi": 69,
      "hit": false,
      "t": 69500,
      "d": 495.8333333333285,
      "v": 48
    },
    {
      "midi": 55,
      "hit": false,
      "t": 70500,
      "d": 495.8333333333285,
      "v": 48
    },
    {
      "midi": 59,
      "hit": false,
      "t": 70500,
      "d": 495.8333333333285,
      "v": 48
    },
    {
      "midi": 64,
      "hit": false,
      "t": 70500,
      "d": 495.8333333333285,
      "v": 48
    },
    {
      "midi": 56,
      "hit": false,
      "t": 71000,
      "d": 495.8333333333285,
      "v": 48
    },
    {
      "midi": 59,
      "hit": false,
      "t": 71000,
      "d": 495.8333333333285,
      "v": 48
    },
    {
      "midi": 64,
      "hit": false,
      "t": 71000,
      "d": 495.8333333333285,
      "v": 48
    },
    {
      "midi": 71,
      "hit": false,
      "t": 71000,
      "d": 495.8333333333285,
      "v": 48
    },
    {
      "midi": 57,
      "hit": false,
      "t": 72000,
      "d": 495.8333333333285,
      "v": 48
    },
    {
      "midi": 60,
      "hit": false,
      "t": 72000,
      "d": 495.8333333333285,
      "v": 48
    },
    {
      "midi": 64,
      "hit": false,
      "t": 72000,
      "d": 495.8333333333285,
      "v": 48
    },
    {
      "midi": 57,
      "hit": false,
      "t": 73250,
      "d": 245.83333333332848,
      "v": 48
    },
    {
      "midi": 60,
      "hit": false,
      "t": 73250,
      "d": 245.83333333332848,
      "v": 48
    },
    {
      "midi": 64,
      "hit": false,
      "t": 73250,
      "d": 245.83333333332848,
      "v": 48
    },
    {
      "midi": 69,
      "hit": false,
      "t": 73250,
      "d": 245.83333333332848,
      "v": 48
    },
    {
      "midi": 56,
      "hit": false,
      "t": 73500,
      "d": 495.8333333333285,
      "v": 48
    },
    {
      "midi": 59,
      "hit": false,
      "t": 73500,
      "d": 495.8333333333285,
      "v": 48
    },
    {
      "midi": 64,
      "hit": false,
      "t": 73500,
      "d": 495.8333333333285,
      "v": 48
    },
    {
      "midi": 71,
      "hit": false,
      "t": 73500,
      "d": 495.8333333333285,
      "v": 48
    },
    {
      "midi": 55,
      "hit": false,
      "t": 74000,
      "d": 495.8333333333285,
      "v": 48
    },
    {
      "midi": 59,
      "hit": false,
      "t": 74000,
      "d": 495.8333333333285,
      "v": 48
    },
    {
      "midi": 64,
      "hit": false,
      "t": 74000,
      "d": 495.8333333333285,
      "v": 48
    },
    {
      "midi": 71,
      "hit": false,
      "t": 74000,
      "d": 495.8333333333285,
      "v": 48
    },
    {
      "midi": 76,
      "hit": false,
      "t": 74000,
      "d": 495.8333333333285,
      "v": 48
    },
    {
      "midi": 54,
      "hit": false,
      "t": 75000,
      "d": 495.8333333333285,
      "v": 48
    },
    {
      "midi": 57,
      "hit": false,
      "t": 75000,
      "d": 495.8333333333285,
      "v": 48
    },
    {
      "midi": 64,
      "hit": false,
      "t": 75000,
      "d": 495.8333333333285,
      "v": 48
    },
    {
      "midi": 66,
      "hit": false,
      "t": 75000,
      "d": 495.8333333333285,
      "v": 48
    },
    {
      "midi": 69,
      "hit": false,
      "t": 75000,
      "d": 495.8333333333285,
      "v": 48
    },
    {
      "midi": 53,
      "hit": false,
      "t": 75500,
      "d": 495.8333333333285,
      "v": 48
    },
    {
      "midi": 57,
      "hit": false,
      "t": 75500,
      "d": 495.8333333333285,
      "v": 48
    },
    {
      "midi": 62,
      "hit": false,
      "t": 75500,
      "d": 495.8333333333285,
      "v": 48
    },
    {
      "midi": 69,
      "hit": false,
      "t": 75500,
      "d": 495.8333333333285,
      "v": 48
    },
    {
      "midi": 74,
      "hit": false,
      "t": 75500,
      "d": 495.8333333333285,
      "v": 48
    },
    {
      "midi": 53,
      "hit": false,
      "t": 76250,
      "d": 245.83333333332848,
      "v": 48
    },
    {
      "midi": 57,
      "hit": false,
      "t": 76250,
      "d": 245.83333333332848,
      "v": 48
    },
    {
      "midi": 62,
      "hit": false,
      "t": 76250,
      "d": 245.83333333332848,
      "v": 48
    },
    {
      "midi": 69,
      "hit": false,
      "t": 76250,
      "d": 245.83333333332848,
      "v": 48
    },
    {
      "midi": 74,
      "hit": false,
      "t": 76250,
      "d": 245.83333333332848,
      "v": 48
    },
    {
      "midi": 52,
      "hit": false,
      "t": 76500,
      "d": 745.8333333333285,
      "v": 48
    },
    {
      "midi": 59,
      "hit": false,
      "t": 76500,
      "d": 995.8333333333285,
      "v": 48
    },
    {
      "midi": 64,
      "hit": false,
      "t": 76500,
      "d": 995.8333333333285,
      "v": 48
    },
    {
      "midi": 68,
      "hit": false,
      "t": 76500,
      "d": 995.8333333333285,
      "v": 48
    },
    {
      "midi": 71,
      "hit": false,
      "t": 76500,
      "d": 995.8333333333285,
      "v": 48
    },
    {
      "midi": 50,
      "hit": false,
      "t": 77250,
      "d": 245.83333333332848,
      "v": 48
    },
    {
      "midi": 48,
      "hit": false,
      "t": 77500,
      "d": 495.8333333333285,
      "v": 48
    },
    {
      "midi": 57,
      "hit": false,
      "t": 77500,
      "d": 495.8333333333285,
      "v": 48
    },
    {
      "midi": 64,
      "hit": false,
      "t": 77500,
      "d": 495.8333333333285,
      "v": 48
    },
    {
      "midi": 69,
      "hit": false,
      "t": 77500,
      "d": 495.8333333333285,
      "v": 48
    },
    {
      "midi": 76,
      "hit": false,
      "t": 77500,
      "d": 495.8333333333285,
      "v": 48
    },
    {
      "midi": 50,
      "hit": false,
      "t": 78000,
      "d": 745.8333333333285,
      "v": 48
    },
    {
      "midi": 62,
      "hit": false,
      "t": 78000,
      "d": 995.8333333333285,
      "v": 48
    },
    {
      "midi": 66,
      "hit": false,
      "t": 78000,
      "d": 995.8333333333285,
      "v": 48
    },
    {
      "midi": 69,
      "hit": false,
      "t": 78000,
      "d": 995.8333333333285,
      "v": 48
    },
    {
      "midi": 57,
      "hit": false,
      "t": 78000,
      "d": 1495.8333333333285,
      "v": 48
    },
    {
      "midi": 48,
      "hit": false,
      "t": 78750,
      "d": 245.83333333332848,
      "v": 48
    },
    {
      "midi": 47,
      "hit": false,
      "t": 79000,
      "d": 495.8333333333285,
      "v": 48
    },
    {
      "midi": 62,
      "hit": false,
      "t": 79000,
      "d": 495.8333333333285,
      "v": 48
    },
    {
      "midi": 66,
      "hit": false,
      "t": 79000,
      "d": 495.8333333333285,
      "v": 48
    },
    {
      "midi": 71,
      "hit": false,
      "t": 79000,
      "d": 495.8333333333285,
      "v": 48
    },
    {
      "midi": 52,
      "hit": false,
      "t": 79500,
      "d": 745.8333333333285,
      "v": 48
    },
    {
      "midi": 56,
      "hit": false,
      "t": 79500,
      "d": 995.8333333333285,
      "v": 48
    },
    {
      "midi": 59,
      "hit": false,
      "t": 79500,
      "d": 995.8333333333285,
      "v": 48
    },
    {
      "midi": 64,
      "hit": false,
      "t": 79500,
      "d": 995.8333333333285,
      "v": 48
    },
    {
      "midi": 71,
      "hit": false,
      "t": 79500,
      "d": 995.8333333333285,
      "v": 48
    },
    {
      "midi": 50,
      "hit": false,
      "t": 80250,
      "d": 245.83333333332848,
      "v": 48
    },
    {
      "midi": 48,
      "hit": false,
      "t": 80500,
      "d": 495.8333333333285,
      "v": 48
    },
    {
      "midi": 57,
      "hit": false,
      "t": 80500,
      "d": 495.8333333333285,
      "v": 48
    },
    {
      "midi": 64,
      "hit": false,
      "t": 80500,
      "d": 495.8333333333285,
      "v": 48
    },
    {
      "midi": 69,
      "hit": false,
      "t": 80500,
      "d": 495.8333333333285,
      "v": 48
    },
    {
      "midi": 72,
      "hit": false,
      "t": 80500,
      "d": 495.8333333333285,
      "v": 48
    },
    {
      "midi": 53,
      "hit": false,
      "t": 81000,
      "d": 745.8333333333285,
      "v": 48
    },
    {
      "midi": 57,
      "hit": false,
      "t": 81000,
      "d": 745.8333333333285,
      "v": 48
    },
    {
      "midi": 62,
      "hit": false,
      "t": 81000,
      "d": 745.8333333333285,
      "v": 48
    },
    {
      "midi": 65,
      "hit": false,
      "t": 81000,
      "d": 745.8333333333285,
      "v": 48
    },
    {
      "midi": 69,
      "hit": false,
      "t": 81000,
      "d": 745.8333333333285,
      "v": 48
    },
    {
      "midi": 52,
      "hit": false,
      "t": 81750,
      "d": 245.83333333332848,
      "v": 48
    },
    {
      "midi": 55,
      "hit": false,
      "t": 81750,
      "d": 245.83333333332848,
      "v": 48
    },
    {
      "midi": 64,
      "hit": false,
      "t": 81750,
      "d": 245.83333333332848,
      "v": 48
    },
    {
      "midi": 67,
      "hit": false,
      "t": 81750,
      "d": 245.83333333332848,
      "v": 48
    },
    {
      "midi": 73,
      "hit": false,
      "t": 81750,
      "d": 245.83333333332848,
      "v": 48
    },
    {
      "midi": 50,
      "hit": false,
      "t": 82000,
      "d": 495.8333333333285,
      "v": 48
    },
    {
      "midi": 53,
      "hit": false,
      "t": 82000,
      "d": 495.8333333333285,
      "v": 48
    },
    {
      "midi": 65,
      "hit": false,
      "t": 82000,
      "d": 495.8333333333285,
      "v": 48
    },
    {
      "midi": 69,
      "hit": false,
      "t": 82000,
      "d": 495.8333333333285,
      "v": 48
    },
    {
      "midi": 74,
      "hit": false,
      "t": 82000,
      "d": 495.8333333333285,
      "v": 48
    },
    {
      "midi": 52,
      "hit": false,
      "t": 82500,
      "d": 745.8333333333285,
      "v": 48
    },
    {
      "midi": 68,
      "hit": false,
      "t": 82500,
      "d": 745.8333333333285,
      "v": 48
    },
    {
      "midi": 59,
      "hit": false,
      "t": 82500,
      "d": 995.8333333333285,
      "v": 48
    },
    {
      "midi": 64,
      "hit": false,
      "t": 82500,
      "d": 995.8333333333285,
      "v": 48
    },
    {
      "midi": 71,
      "hit": false,
      "t": 82500,
      "d": 995.8333333333285,
      "v": 48
    },
    {
      "midi": 54,
      "hit": false,
      "t": 83250,
      "d": 245.83333333332848,
      "v": 48
    },
    {
      "midi": 69,
      "hit": false,
      "t": 83250,
      "d": 245.83333333332848,
      "v": 48
    },
    {
      "midi": 56,
      "hit": false,
      "t": 83500,
      "d": 495.8333333333285,
      "v": 48
    },
    {
      "midi": 59,
      "hit": false,
      "t": 83500,
      "d": 495.8333333333285,
      "v": 48
    },
    {
      "midi": 64,
      "hit": false,
      "t": 83500,
      "d": 495.8333333333285,
      "v": 48
    },
    {
      "midi": 71,
      "hit": false,
      "t": 83500,
      "d": 495.8333333333285,
      "v": 48
    },
    {
      "midi": 57,
      "hit": false,
      "t": 84000,
      "d": 245.83333333332848,
      "v": 48
    },
    {
      "midi": 60,
      "hit": false,
      "t": 84000,
      "d": 245.83333333332848,
      "v": 48
    },
    {
      "midi": 64,
      "hit": false,
      "t": 84000,
      "d": 245.83333333332848,
      "v": 48
    },
    {
      "midi": 69,
      "hit": false,
      "t": 84000,
      "d": 245.83333333332848,
      "v": 48
    },
    {
      "midi": 76,
      "hit": false,
      "t": 84000,
      "d": 245.83333333332848,
      "v": 48
    },
    {
      "midi": 50,
      "hit": false,
      "t": 84250,
      "d": 245.83333333332848,
      "v": 48
    },
    {
      "midi": 59,
      "hit": false,
      "t": 84250,
      "d": 245.83333333332848,
      "v": 48
    },
    {
      "midi": 69,
      "hit": false,
      "t": 84250,
      "d": 245.83333333332848,
      "v": 48
    },
    {
      "midi": 74,
      "hit": false,
      "t": 84250,
      "d": 245.83333333332848,
      "v": 48
    },
    {
      "midi": 77,
      "hit": false,
      "t": 84250,
      "d": 245.83333333332848,
      "v": 48
    },
    {
      "midi": 52,
      "hit": false,
      "t": 84500,
      "d": 495.8333333333285,
      "v": 48
    },
    {
      "midi": 59,
      "hit": false,
      "t": 84500,
      "d": 495.8333333333285,
      "v": 48
    },
    {
      "midi": 64,
      "hit": false,
      "t": 84500,
      "d": 495.8333333333285,
      "v": 48
    },
    {
      "midi": 68,
      "hit": false,
      "t": 84500,
      "d": 495.8333333333285,
      "v": 48
    },
    {
      "midi": 71,
      "hit": false,
      "t": 84500,
      "d": 495.8333333333285,
      "v": 48
    },
    {
      "midi": 40,
      "hit": false,
      "t": 85000,
      "d": 495.8333333333285,
      "v": 48
    },
    {
      "midi": 52,
      "hit": false,
      "t": 85000,
      "d": 495.8333333333285,
      "v": 48
    },
    {
      "midi": 68,
      "hit": false,
      "t": 85000,
      "d": 495.8333333333285,
      "v": 48
    },
    {
      "midi": 71,
      "hit": false,
      "t": 85000,
      "d": 495.8333333333285,
      "v": 48
    },
    {
      "midi": 76,
      "hit": false,
      "t": 85000,
      "d": 495.8333333333285,
      "v": 48
    },
    {
      "midi": 45,
      "hit": false,
      "t": 85500,
      "d": 495.8333333333285,
      "v": 48
    },
    {
      "midi": 52,
      "hit": false,
      "t": 85500,
      "d": 495.8333333333285,
      "v": 48
    },
    {
      "midi": 64,
      "hit": false,
      "t": 85500,
      "d": 495.8333333333285,
      "v": 48
    },
    {
      "midi": 69,
      "hit": false,
      "t": 85500,
      "d": 495.8333333333285,
      "v": 48
    },
    {
      "midi": 72,
      "hit": false,
      "t": 85500,
      "d": 495.8333333333285,
      "v": 48
    },
    {
      "midi": 57,
      "hit": false,
      "t": 86750,
      "d": 245.83333333332848,
      "v": 48
    },
    {
      "midi": 60,
      "hit": false,
      "t": 86750,
      "d": 245.83333333332848,
      "v": 48
    },
    {
      "midi": 64,
      "hit": false,
      "t": 86750,
      "d": 245.83333333332848,
      "v": 48
    },
    {
      "midi": 69,
      "hit": false,
      "t": 86750,
      "d": 245.83333333332848,
      "v": 48
    },
    {
      "midi": 56,
      "hit": false,
      "t": 87000,
      "d": 495.8333333333285,
      "v": 48
    },
    {
      "midi": 59,
      "hit": false,
      "t": 87000,
      "d": 495.8333333333285,
      "v": 48
    },
    {
      "midi": 64,
      "hit": false,
      "t": 87000,
      "d": 495.8333333333285,
      "v": 48
    },
    {
      "midi": 71,
      "hit": false,
      "t": 87000,
      "d": 495.8333333333285,
      "v": 48
    },
    {
      "midi": 55,
      "hit": false,
      "t": 87500,
      "d": 495.8333333333285,
      "v": 48
    },
    {
      "midi": 59,
      "hit": false,
      "t": 87500,
      "d": 495.8333333333285,
      "v": 48
    },
    {
      "midi": 64,
      "hit": false,
      "t": 87500,
      "d": 495.8333333333285,
      "v": 48
    },
    {
      "midi": 71,
      "hit": false,
      "t": 87500,
      "d": 495.8333333333285,
      "v": 48
    },
    {
      "midi": 76,
      "hit": false,
      "t": 87500,
      "d": 495.8333333333285,
      "v": 48
    },
    {
      "midi": 55,
      "hit": false,
      "t": 88250,
      "d": 245.83333333332848,
      "v": 48
    },
    {
      "midi": 59,
      "hit": false,
      "t": 88250,
      "d": 245.83333333332848,
      "v": 48
    },
    {
      "midi": 64,
      "hit": false,
      "t": 88250,
      "d": 245.83333333332848,
      "v": 48
    },
    {
      "midi": 67,
      "hit": false,
      "t": 88250,
      "d": 245.83333333332848,
      "v": 48
    },
    {
      "midi": 76,
      "hit": false,
      "t": 88250,
      "d": 245.83333333332848,
      "v": 48
    },
    {
      "midi": 54,
      "hit": false,
      "t": 88500,
      "d": 495.8333333333285,
      "v": 48
    },
    {
      "midi": 57,
      "hit": false,
      "t": 88500,
      "d": 495.8333333333285,
      "v": 48
    },
    {
      "midi": 66,
      "hit": false,
      "t": 88500,
      "d": 495.8333333333285,
      "v": 48
    },
    {
      "midi": 69,
      "hit": false,
      "t": 88500,
      "d": 495.8333333333285,
      "v": 48
    },
    {
      "midi": 76,
      "hit": false,
      "t": 88500,
      "d": 495.8333333333285,
      "v": 48
    },
    {
      "midi": 53,
      "hit": false,
      "t": 89000,
      "d": 495.8333333333285,
      "v": 48
    },
    {
      "midi": 57,
      "hit": false,
      "t": 89000,
      "d": 495.8333333333285,
      "v": 48
    },
    {
      "midi": 69,
      "hit": false,
      "t": 89000,
      "d": 495.8333333333285,
      "v": 48
    },
    {
      "midi": 74,
      "hit": false,
      "t": 89000,
      "d": 495.8333333333285,
      "v": 48
    },
    {
      "midi": 81,
      "hit": false,
      "t": 89000,
      "d": 495.8333333333285,
      "v": 48
    },
    {
      "midi": 53,
      "hit": false,
      "t": 89750,
      "d": 245.83333333332848,
      "v": 48
    },
    {
      "midi": 57,
      "hit": false,
      "t": 89750,
      "d": 245.83333333332848,
      "v": 48
    },
    {
      "midi": 69,
      "hit": false,
      "t": 89750,
      "d": 245.83333333332848,
      "v": 48
    },
    {
      "midi": 74,
      "hit": false,
      "t": 89750,
      "d": 245.83333333332848,
      "v": 48
    },
    {
      "midi": 52,
      "hit": false,
      "t": 90000,
      "d": 495.8333333333285,
      "v": 48
    },
    {
      "midi": 59,
      "hit": false,
      "t": 90000,
      "d": 495.8333333333285,
      "v": 48
    },
    {
      "midi": 64,
      "hit": false,
      "t": 90000,
      "d": 495.8333333333285,
      "v": 48
    },
    {
      "midi": 68,
      "hit": false,
      "t": 90000,
      "d": 495.8333333333285,
      "v": 48
    },
    {
      "midi": 74,
      "hit": false,
      "t": 90000,
      "d": 495.8333333333285,
      "v": 48
    },
    {
      "midi": 52,
      "hit": false,
      "t": 92500,
      "d": 245.83333333332848,
      "v": 48
    },
    {
      "midi": 59,
      "hit": false,
      "t": 92500,
      "d": 245.83333333332848,
      "v": 48
    },
    {
      "midi": 64,
      "hit": false,
      "t": 92500,
      "d": 245.83333333332848,
      "v": 48
    },
    {
      "midi": 68,
      "hit": false,
      "t": 92500,
      "d": 245.83333333332848,
      "v": 48
    },
    {
      "midi": 71,
      "hit": false,
      "t": 92500,
      "d": 245.83333333332848,
      "v": 48
    },
    {
      "midi": 56,
      "hit": false,
      "t": 92750,
      "d": 245.83333333332848,
      "v": 48
    },
    {
      "midi": 59,
      "hit": false,
      "t": 92750,
      "d": 245.83333333332848,
      "v": 48
    },
    {
      "midi": 64,
      "hit": false,
      "t": 92750,
      "d": 245.83333333332848,
      "v": 48
    },
    {
      "midi": 71,
      "hit": false,
      "t": 92750,
      "d": 245.83333333332848,
      "v": 48
    },
    {
      "midi": 76,
      "hit": false,
      "t": 92750,
      "d": 245.83333333332848,
      "v": 48
    },
    {
      "midi": 57,
      "hit": false,
      "t": 93000,
      "d": 495.8333333333285,
      "v": 48
    },
    {
      "midi": 64,
      "hit": false,
      "t": 93000,
      "d": 495.8333333333285,
      "v": 48
    },
    {
      "midi": 72,
      "hit": false,
      "t": 93000,
      "d": 745.8333333333285,
      "v": 48
    },
    {
      "midi": 76,
      "hit": false,
      "t": 93000,
      "d": 745.8333333333285,
      "v": 48
    },
    {
      "midi": 52,
      "hit": false,
      "t": 93500,
      "d": 495.8333333333285,
      "v": 48
    },
    {
      "midi": 64,
      "hit": false,
      "t": 93500,
      "d": 495.8333333333285,
      "v": 48
    },
    {
      "midi": 68,
      "hit": false,
      "t": 93500,
      "d": 495.8333333333285,
      "v": 48
    },
    {
      "midi": 71,
      "hit": false,
      "t": 93750,
      "d": 245.83333333332848,
      "v": 48
    },
    {
      "midi": 74,
      "hit": false,
      "t": 93750,
      "d": 245.83333333332848,
      "v": 48
    },
    {
      "midi": 53,
      "hit": false,
      "t": 94000,
      "d": 495.8333333333285,
      "v": 48
    },
    {
      "midi": 57,
      "hit": false,
      "t": 94000,
      "d": 495.8333333333285,
      "v": 48
    },
    {
      "midi": 69,
      "hit": false,
      "t": 94000,
      "d": 495.8333333333285,
      "v": 48
    },
    {
      "midi": 72,
      "hit": false,
      "t": 94000,
      "d": 495.8333333333285,
      "v": 48
    },
    {
      "midi": 50,
      "hit": false,
      "t": 94500,
      "d": 495.8333333333285,
      "v": 48
    },
    {
      "midi": 62,
      "hit": false,
      "t": 94500,
      "d": 495.8333333333285,
      "v": 48
    },
    {
      "midi": 65,
      "hit": false,
      "t": 94500,
      "d": 495.8333333333285,
      "v": 48
    },
    {
      "midi": 69,
      "hit": false,
      "t": 94500,
      "d": 495.8333333333285,
      "v": 48
    },
    {
      "midi": 71,
      "hit": false,
      "t": 94500,
      "d": 495.8333333333285,
      "v": 48
    },
    {
      "midi": 52,
      "hit": false,
      "t": 95000,
      "d": 495.8333333333285,
      "v": 48
    },
    {
      "midi": 59,
      "hit": false,
      "t": 95000,
      "d": 495.8333333333285,
      "v": 48
    },
    {
      "midi": 68,
      "hit": false,
      "t": 95000,
      "d": 995.8333333333285,
      "v": 48
    },
    {
      "midi": 71,
      "hit": false,
      "t": 95000,
      "d": 995.8333333333285,
      "v": 48
    },
    {
      "midi": 40,
      "hit": false,
      "t": 95500,
      "d": 495.8333333333285,
      "v": 48
    },
    {
      "midi": 52,
      "hit": false,
      "t": 95500,
      "d": 495.8333333333285,
      "v": 48
    },
    {
      "midi": 64,
      "hit": false,
      "t": 95500,
      "d": 495.8333333333285,
      "v": 48
    },
    {
      "midi": 45,
      "hit": false,
      "t": 96000,
      "d": 495.8333333333285,
      "v": 48
    },
    {
      "midi": 52,
      "hit": false,
      "t": 96000,
      "d": 495.8333333333285,
      "v": 48
    },
    {
      "midi": 60,
      "hit": false,
      "t": 96000,
      "d": 495.8333333333285,
      "v": 48
    },
    {
      "midi": 64,
      "hit": false,
      "t": 96000,
      "d": 495.8333333333285,
      "v": 48
    },
    {
      "midi": 69,
      "hit": false,
      "t": 96000,
      "d": 495.8333333333285,
      "v": 48
    },
    {
      "midi": 49,
      "hit": false,
      "t": 97250,
      "d": 245.83333333332848,
      "v": 72
    },
    {
      "midi": 52,
      "hit": false,
      "t": 97250,
      "d": 245.83333333332848,
      "v": 72
    },
    {
      "midi": 57,
      "hit": false,
      "t": 97250,
      "d": 245.83333333332848,
      "v": 72
    },
    {
      "midi": 64,
      "hit": false,
      "t": 97250,
      "d": 245.83333333332848,
      "v": 72
    },
    {
      "midi": 50,
      "hit": false,
      "t": 97500,
      "d": 495.8333333333285,
      "v": 72
    },
    {
      "midi": 57,
      "hit": false,
      "t": 97500,
      "d": 495.8333333333285,
      "v": 72
    },
    {
      "midi": 66,
      "hit": false,
      "t": 97500,
      "d": 495.8333333333285,
      "v": 72
    },
    {
      "midi": 51,
      "hit": false,
      "t": 98000,
      "d": 495.8333333333285,
      "v": 72
    },
    {
      "midi": 54,
      "hit": false,
      "t": 98000,
      "d": 495.8333333333285,
      "v": 72
    },
    {
      "midi": 59,
      "hit": false,
      "t": 98000,
      "d": 495.8333333333285,
      "v": 72
    },
    {
      "midi": 66,
      "hit": false,
      "t": 98000,
      "d": 495.8333333333285,
      "v": 72
    },
    {
      "midi": 71,
      "hit": false,
      "t": 98000,
      "d": 495.8333333333285,
      "v": 72
    },
    {
      "midi": 51,
      "hit": false,
      "t": 98750,
      "d": 245.83333333332848,
      "v": 72
    },
    {
      "midi": 54,
      "hit": false,
      "t": 98750,
      "d": 245.83333333332848,
      "v": 72
    },
    {
      "midi": 59,
      "hit": false,
      "t": 98750,
      "d": 245.83333333332848,
      "v": 72
    },
    {
      "midi": 66,
      "hit": false,
      "t": 98750,
      "d": 245.83333333332848,
      "v": 72
    },
    {
      "midi": 52,
      "hit": false,
      "t": 99000,
      "d": 495.8333333333285,
      "v": 72
    },
    {
      "midi": 59,
      "hit": false,
      "t": 99000,
      "d": 495.8333333333285,
      "v": 72
    },
    {
      "midi": 68,
      "hit": false,
      "t": 99000,
      "d": 495.8333333333285,
      "v": 72
    },
    {
      "midi": 44,
      "hit": false,
      "t": 99500,
      "d": 495.8333333333285,
      "v": 72
    },
    {
      "midi": 52,
      "hit": false,
      "t": 99500,
      "d": 495.8333333333285,
      "v": 72
    },
    {
      "midi": 64,
      "hit": false,
      "t": 99500,
      "d": 495.8333333333285,
      "v": 72
    },
    {
      "midi": 71,
      "hit": false,
      "t": 99500,
      "d": 495.8333333333285,
      "v": 72
    },
    {
      "midi": 76,
      "hit": false,
      "t": 99500,
      "d": 495.8333333333285,
      "v": 72
    },
    {
      "midi": 56,
      "hit": false,
      "t": 100250,
      "d": 245.83333333332848,
      "v": 72
    },
    {
      "midi": 64,
      "hit": false,
      "t": 100250,
      "d": 245.83333333332848,
      "v": 72
    },
    {
      "midi": 71,
      "hit": false,
      "t": 100250,
      "d": 245.83333333332848,
      "v": 72
    },
    {
      "midi": 76,
      "hit": false,
      "t": 100250,
      "d": 245.83333333332848,
      "v": 72
    },
    {
      "midi": 57,
      "hit": false,
      "t": 100500,
      "d": 495.8333333333285,
      "v": 72
    },
    {
      "midi": 64,
      "hit": false,
      "t": 100500,
      "d": 495.8333333333285,
      "v": 72
    },
    {
      "midi": 69,
      "hit": false,
      "t": 100500,
      "d": 495.8333333333285,
      "v": 72
    },
    {
      "midi": 72,
      "hit": false,
      "t": 100500,
      "d": 495.8333333333285,
      "v": 72
    },
    {
      "midi": 76,
      "hit": false,
      "t": 100500,
      "d": 495.8333333333285,
      "v": 72
    },
    {
      "midi": 45,
      "hit": false,
      "t": 101000,
      "d": 495.8333333333285,
      "v": 72
    },
    {
      "midi": 57,
      "hit": false,
      "t": 101000,
      "d": 495.8333333333285,
      "v": 72
    },
    {
      "midi": 60,
      "hit": false,
      "t": 101000,
      "d": 495.8333333333285,
      "v": 72
    },
    {
      "midi": 64,
      "hit": false,
      "t": 101000,
      "d": 495.8333333333285,
      "v": 72
    },
    {
      "midi": 69,
      "hit": false,
      "t": 101000,
      "d": 495.8333333333285,
      "v": 72
    },
    {
      "midi": 57,
      "hit": false,
      "t": 101750,
      "d": 245.83333333332848,
      "v": 72
    },
    {
      "midi": 60,
      "hit": false,
      "t": 101750,
      "d": 245.83333333332848,
      "v": 72
    },
    {
      "midi": 64,
      "hit": false,
      "t": 101750,
      "d": 245.83333333332848,
      "v": 72
    },
    {
      "midi": 69,
      "hit": false,
      "t": 101750,
      "d": 245.83333333332848,
      "v": 72
    },
    {
      "midi": 56,
      "hit": false,
      "t": 102000,
      "d": 495.8333333333285,
      "v": 72
    },
    {
      "midi": 59,
      "hit": false,
      "t": 102000,
      "d": 495.8333333333285,
      "v": 72
    },
    {
      "midi": 64,
      "hit": false,
      "t": 102000,
      "d": 495.8333333333285,
      "v": 72
    },
    {
      "midi": 71,
      "hit": false,
      "t": 102000,
      "d": 495.8333333333285,
      "v": 72
    },
    {
      "midi": 55,
      "hit": false,
      "t": 102500,
      "d": 495.8333333333285,
      "v": 72
    },
    {
      "midi": 59,
      "hit": false,
      "t": 102500,
      "d": 495.8333333333285,
      "v": 72
    },
    {
      "midi": 64,
      "hit": false,
      "t": 102500,
      "d": 495.8333333333285,
      "v": 72
    },
    {
      "midi": 71,
      "hit": false,
      "t": 102500,
      "d": 495.8333333333285,
      "v": 72
    },
    {
      "midi": 76,
      "hit": false,
      "t": 102500,
      "d": 495.8333333333285,
      "v": 72
    },
    {
      "midi": 55,
      "hit": false,
      "t": 103250,
      "d": 245.83333333332848,
      "v": 72
    },
    {
      "midi": 59,
      "hit": false,
      "t": 103250,
      "d": 245.83333333332848,
      "v": 72
    },
    {
      "midi": 64,
      "hit": false,
      "t": 103250,
      "d": 245.83333333332848,
      "v": 72
    },
    {
      "midi": 54,
      "hit": false,
      "t": 103500,
      "d": 370.8333333333285,
      "v": 72
    },
    {
      "midi": 57,
      "hit": false,
      "t": 103500,
      "d": 370.8333333333285,
      "v": 72
    },
    {
      "midi": 64,
      "hit": false,
      "t": 103500,
      "d": 370.8333333333285,
      "v": 72
    },
    {
      "midi": 66,
      "hit": false,
      "t": 103500,
      "d": 370.8333333333285,
      "v": 72
    },
    {
      "midi": 69,
      "hit": false,
      "t": 103500,
      "d": 370.8333333333285,
      "v": 72
    },
    {
      "midi": 53,
      "hit": false,
      "t": 104000,
      "d": 370.8333333333285,
      "v": 72
    },
    {
      "midi": 57,
      "hit": false,
      "t": 104000,
      "d": 370.8333333333285,
      "v": 72
    },
    {
      "midi": 62,
      "hit": false,
      "t": 104000,
      "d": 370.8333333333285,
      "v": 72
    },
    {
      "midi": 69,
      "hit": false,
      "t": 104000,
      "d": 370.8333333333285,
      "v": 72
    },
    {
      "midi": 74,
      "hit": false,
      "t": 104000,
      "d": 370.8333333333285,
      "v": 72
    },
    {
      "midi": 53,
      "hit": false,
      "t": 104750,
      "d": 245.83333333332848,
      "v": 72
    },
    {
      "midi": 57,
      "hit": false,
      "t": 104750,
      "d": 245.83333333332848,
      "v": 72
    },
    {
      "midi": 62,
      "hit": false,
      "t": 104750,
      "d": 245.83333333332848,
      "v": 72
    },
    {
      "midi": 69,
      "hit": false,
      "t": 104750,
      "d": 245.83333333332848,
      "v": 72
    },
    {
      "midi": 74,
      "hit": false,
      "t": 104750,
      "d": 245.83333333332848,
      "v": 72
    },
    {
      "midi": 52,
      "hit": false,
      "t": 105000,
      "d": 495.8333333333285,
      "v": 72
    },
    {
      "midi": 59,
      "hit": false,
      "t": 105000,
      "d": 495.8333333333285,
      "v": 72
    },
    {
      "midi": 64,
      "hit": false,
      "t": 105000,
      "d": 495.8333333333285,
      "v": 72
    },
    {
      "midi": 68,
      "hit": false,
      "t": 105000,
      "d": 495.8333333333285,
      "v": 72
    },
    {
      "midi": 71,
      "hit": false,
      "t": 105000,
      "d": 495.8333333333285,
      "v": 72
    },
    {
      "midi": 56,
      "hit": false,
      "t": 107250,
      "d": 245.83333333332848,
      "v": 72
    },
    {
      "midi": 64,
      "hit": false,
      "t": 107250,
      "d": 245.83333333332848,
      "v": 72
    },
    {
      "midi": 71,
      "hit": false,
      "t": 107250,
      "d": 245.83333333332848,
      "v": 72
    },
    {
      "midi": 76,
      "hit": false,
      "t": 107250,
      "d": 745.8333333333285,
      "v": 72
    },
    {
      "midi": 57,
      "hit": false,
      "t": 107500,
      "d": 245.83333333332848,
      "v": 72
    },
    {
      "midi": 64,
      "hit": false,
      "t": 107500,
      "d": 245.83333333332848,
      "v": 72
    },
    {
      "midi": 72,
      "hit": false,
      "t": 107500,
      "d": 495.8333333333285,
      "v": 72
    },
    {
      "midi": 60,
      "hit": false,
      "t": 107750,
      "d": 245.83333333332848,
      "v": 72
    },
    {
      "midi": 69,
      "hit": false,
      "t": 107750,
      "d": 245.83333333332848,
      "v": 72
    },
    {
      "midi": 62,
      "hit": false,
      "t": 108000,
      "d": 245.83333333332848,
      "v": 72
    },
    {
      "midi": 65,
      "hit": false,
      "t": 108000,
      "d": 495.8333333333285,
      "v": 72
    },
    {
      "midi": 69,
      "hit": false,
      "t": 108000,
      "d": 495.8333333333285,
      "v": 72
    },
    {
      "midi": 71,
      "hit": false,
      "t": 108000,
      "d": 495.8333333333285,
      "v": 72
    },
    {
      "midi": 74,
      "hit": false,
      "t": 108000,
      "d": 495.8333333333285,
      "v": 72
    },
    {
      "midi": 50,
      "hit": false,
      "t": 108250,
      "d": 245.83333333332848,
      "v": 72
    },
    {
      "midi": 59,
      "hit": false,
      "t": 108500,
      "d": 495.8333333333285,
      "v": 72
    },
    {
      "midi": 52,
      "hit": false,
      "t": 108500,
      "d": 995.8333333333285,
      "v": 72
    },
    {
      "midi": 68,
      "hit": false,
      "t": 108500,
      "d": 995.8333333333285,
      "v": 72
    },
    {
      "midi": 71,
      "hit": false,
      "t": 108500,
      "d": 995.8333333333285,
      "v": 72
    },
    {
      "midi": 40,
      "hit": false,
      "t": 109000,
      "d": 495.8333333333285,
      "v": 72
    },
    {
      "midi": 64,
      "hit": false,
      "t": 109000,
      "d": 495.8333333333285,
      "v": 72
    },
    {
      "midi": 45,
      "hit": false,
      "t": 109500,
      "d": 495.8333333333285,
      "v": 72
    },
    {
      "midi": 52,
      "hit": false,
      "t": 109500,
      "d": 495.8333333333285,
      "v": 72
    },
    {
      "midi": 60,
      "hit": false,
      "t": 109500,
      "d": 495.8333333333285,
      "v": 72
    },
    {
      "midi": 64,
      "hit": false,
      "t": 109500,
      "d": 495.8333333333285,
      "v": 72
    },
    {
      "midi": 69,
      "hit": false,
      "t": 109500,
      "d": 495.8333333333285,
      "v": 72
    }
  ]
}