{
  "jsonPath": "Animes/Saber Marionette MIDI Collection/ill-be-there.json",
  "path": "Animes\\Saber Marionette MIDI Collection\\ill be there.mid",
  "name": "ill be there",
  "difficulty": "Advanced",
  "bpm": 125,
  "notes": [
    {
      "midi": 55,
      "hit": false,
      "t": 1920,
      "d": 480,
      "v": 100
    },
    {
      "midi": 48,
      "hit": false,
      "t": 1920,
      "d": 1200,
      "v": 115
    },
    {
      "midi": 42,
      "hit": false,
      "t": 1920,
      "d": 108,
      "v": 100
    },
    {
      "midi": 42,
      "hit": false,
      "t": 2040,
      "d": 108,
      "v": 100
    },
    {
      "midi": 62,
      "hit": false,
      "t": 2160,
      "d": 240,
      "v": 120
    },
    {
      "midi": 62,
      "hit": false,
      "t": 2160,
      "d": 240,
      "v": 120
    },
    {
      "midi": 74,
      "hit": false,
      "t": 2160,
      "d": 360,
      "v": 80
    },
    {
      "midi": 46,
      "hit": false,
      "t": 2160,
      "d": 108,
      "v": 100
    },
    {
      "midi": 42,
      "hit": false,
      "t": 2280,
      "d": 108,
      "v": 100
    },
    {
      "midi": 63,
      "hit": false,
      "t": 2400,
      "d": 240,
      "v": 120
    },
    {
      "midi": 63,
      "hit": false,
      "t": 2400,
      "d": 240,
      "v": 120
    },
    {
      "midi": 75,
      "hit": false,
      "t": 2400,
      "d": 240,
      "v": 80
    },
    {
      "midi": 74,
      "hit": false,
      "t": 2400,
      "d": 360,
      "v": 80
    },
    {
      "midi": 42,
      "hit": false,
      "t": 2400,
      "d": 108,
      "v": 100
    },
    {
      "midi": 42,
      "hit": false,
      "t": 2520,
      "d": 108,
      "v": 100
    },
    {
      "midi": 70,
      "hit": false,
      "t": 2640,
      "d": 720,
      "v": 120
    },
    {
      "midi": 70,
      "hit": false,
      "t": 2640,
      "d": 720,
      "v": 120
    },
    {
      "midi": 82,
      "hit": false,
      "t": 2640,
      "d": 360,
      "v": 60
    },
    {
      "midi": 75,
      "hit": false,
      "t": 2640,
      "d": 360,
      "v": 80
    },
    {
      "midi": 46,
      "hit": false,
      "t": 2640,
      "d": 108,
      "v": 100
    },
    {
      "midi": 75,
      "hit": false,
      "t": 2760,
      "d": 120,
      "v": 70
    },
    {
      "midi": 74,
      "hit": false,
      "t": 2760,
      "d": 120,
      "v": 70
    },
    {
      "midi": 42,
      "hit": false,
      "t": 2760,
      "d": 108,
      "v": 100
    },
    {
      "midi": 82,
      "hit": false,
      "t": 2880,
      "d": 360,
      "v": 60
    },
    {
      "midi": 42,
      "hit": false,
      "t": 2880,
      "d": 108,
      "v": 100
    },
    {
      "midi": 82,
      "hit": false,
      "t": 3000,
      "d": 360,
      "v": 70
    },
    {
      "midi": 75,
      "hit": false,
      "t": 3000,
      "d": 120,
      "v": 70
    },
    {
      "midi": 42,
      "hit": false,
      "t": 3000,
      "d": 108,
      "v": 100
    },
    {
      "midi": 48,
      "hit": false,
      "t": 3120,
      "d": 720,
      "v": 105
    },
    {
      "midi": 46,
      "hit": false,
      "t": 3120,
      "d": 108,
      "v": 100
    },
    {
      "midi": 82,
      "hit": false,
      "t": 3240,
      "d": 360,
      "v": 70
    },
    {
      "midi": 42,
      "hit": false,
      "t": 3240,
      "d": 108,
      "v": 100
    },
    {
      "midi": 62,
      "hit": false,
      "t": 3360,
      "d": 240,
      "v": 120
    },
    {
      "midi": 62,
      "hit": false,
      "t": 3360,
      "d": 240,
      "v": 120
    },
    {
      "midi": 82,
      "hit": false,
      "t": 3360,
      "d": 480,
      "v": 60
    },
    {
      "midi": 42,
      "hit": false,
      "t": 3360,
      "d": 108,
      "v": 100
    },
    {
      "midi": 42,
      "hit": false,
      "t": 3480,
      "d": 108,
      "v": 100
    },
    {
      "midi": 63,
      "hit": false,
      "t": 3600,
      "d": 240,
      "v": 120
    },
    {
      "midi": 63,
      "hit": false,
      "t": 3600,
      "d": 240,
      "v": 120
    },
    {
      "midi": 82,
      "hit": false,
      "t": 3600,
      "d": 240,
      "v": 60
    },
    {
      "midi": 46,
      "hit": false,
      "t": 3600,
      "d": 108,
      "v": 100
    },
    {
      "midi": 42,
      "hit": false,
      "t": 3720,
      "d": 108,
      "v": 100
    },
    {
      "midi": 69,
      "hit": false,
      "t": 3840,
      "d": 480,
      "v": 120
    },
    {
      "midi": 69,
      "hit": false,
      "t": 3840,
      "d": 480,
      "v": 120
    },
    {
      "midi": 81,
      "hit": false,
      "t": 3840,
      "d": 360,
      "v": 80
    },
    {
      "midi": 48,
      "hit": false,
      "t": 3840,
      "d": 1920,
      "v": 115
    },
    {
      "midi": 42,
      "hit": false,
      "t": 3840,
      "d": 108,
      "v": 100
    },
    {
      "midi": 77,
      "hit": false,
      "t": 3960,
      "d": 120,
      "v": 80
    },
    {
      "midi": 42,
      "hit": false,
      "t": 3960,
      "d": 108,
      "v": 100
    },
    {
      "midi": 72,
      "hit": false,
      "t": 4080,
      "d": 240,
      "v": 80
    },
    {
      "midi": 81,
      "hit": false,
      "t": 4080,
      "d": 360,
      "v": 80
    },
    {
      "midi": 46,
      "hit": false,
      "t": 4080,
      "d": 108,
      "v": 100
    },
    {
      "midi": 81,
      "hit": false,
      "t": 4200,
      "d": 120,
      "v": 70
    },
    {
      "midi": 77,
      "hit": false,
      "t": 4200,
      "d": 120,
      "v": 80
    },
    {
      "midi": 42,
      "hit": false,
      "t": 4200,
      "d": 108,
      "v": 100
    },
    {
      "midi": 65,
      "hit": false,
      "t": 4320,
      "d": 480,
      "v": 120
    },
    {
      "midi": 65,
      "hit": false,
      "t": 4320,
      "d": 480,
      "v": 120
    },
    {
      "midi": 77,
      "hit": false,
      "t": 4320,
      "d": 360,
      "v": 80
    },
    {
      "midi": 72,
      "hit": false,
      "t": 4320,
      "d": 240,
      "v": 80
    },
    {
      "midi": 42,
      "hit": false,
      "t": 4320,
      "d": 108,
      "v": 100
    },
    {
      "midi": 72,
      "hit": false,
      "t": 4440,
      "d": 120,
      "v": 80
    },
    {
      "midi": 81,
      "hit": false,
      "t": 4440,
      "d": 120,
      "v": 70
    },
    {
      "midi": 42,
      "hit": false,
      "t": 4440,
      "d": 108,
      "v": 100
    },
    {
      "midi": 69,
      "hit": false,
      "t": 4560,
      "d": 240,
      "v": 80
    },
    {
      "midi": 77,
      "hit": false,
      "t": 4560,
      "d": 360,
      "v": 80
    },
    {
      "midi": 46,
      "hit": false,
      "t": 4560,
      "d": 108,
      "v": 100
    },
    {
      "midi": 77,
      "hit": false,
      "t": 4680,
      "d": 120,
      "v": 70
    },
    {
      "midi": 72,
      "hit": false,
      "t": 4680,
      "d": 120,
      "v": 80
    },
    {
      "midi": 42,
      "hit": false,
      "t": 4680,
      "d": 108,
      "v": 100
    },
    {
      "midi": 67,
      "hit": false,
      "t": 4800,
      "d": 480,
      "v": 120
    },
    {
      "midi": 67,
      "hit": false,
      "t": 4800,
      "d": 480,
      "v": 120
    },
    {
      "midi": 72,
      "hit": false,
      "t": 4800,
      "d": 360,
      "v": 80
    },
    {
      "midi": 69,
      "hit": false,
      "t": 4800,
      "d": 240,
      "v": 80
    },
    {
      "midi": 42,
      "hit": false,
      "t": 4800,
      "d": 108,
      "v": 100
    },
    {
      "midi": 69,
      "hit": false,
      "t": 4920,
      "d": 120,
      "v": 80
    },
    {
      "midi": 77,
      "hit": false,
      "t": 4920,
      "d": 120,
      "v": 70
    },
    {
      "midi": 42,
      "hit": false,
      "t": 4920,
      "d": 108,
      "v": 100
    },
    {
      "midi": 65,
      "hit": false,
      "t": 5040,
      "d": 240,
      "v": 80
    },
    {
      "midi": 72,
      "hit": false,
      "t": 5040,
      "d": 360,
      "v": 80
    },
    {
      "midi": 46,
      "hit": false,
      "t": 5040,
      "d": 108,
      "v": 100
    },
    {
      "midi": 72,
      "hit": false,
      "t": 5160,
      "d": 120,
      "v": 70
    },
    {
      "midi": 69,
      "hit": false,
      "t": 5160,
      "d": 120,
      "v": 80
    },
    {
      "midi": 42,
      "hit": false,
      "t": 5160,
      "d": 108,
      "v": 100
    },
    {
      "midi": 65,
      "hit": false,
      "t": 5280,
      "d": 480,
      "v": 120
    },
    {
      "midi": 65,
      "hit": false,
      "t": 5280,
      "d": 480,
      "v": 120
    },
    {
      "midi": 69,
      "hit": false,
      "t": 5280,
      "d": 360,
      "v": 80
    },
    {
      "midi": 65,
      "hit": false,
      "t": 5280,
      "d": 240,
      "v": 80
    },
    {
      "midi": 42,
      "hit": false,
      "t": 5280,
      "d": 108,
      "v": 100
    },
    {
      "midi": 65,
      "hit": false,
      "t": 5400,
      "d": 120,
      "v": 80
    },
    {
      "midi": 72,
      "hit": false,
      "t": 5400,
      "d": 120,
      "v": 70
    },
    {
      "midi": 42,
      "hit": false,
      "t": 5400,
      "d": 108,
      "v": 100
    },
    {
      "midi": 60,
      "hit": false,
      "t": 5520,
      "d": 240,
      "v": 80
    },
    {
      "midi": 69,
      "hit": false,
      "t": 5520,
      "d": 120,
      "v": 80
    },
    {
      "midi": 46,
      "hit": false,
      "t": 5520,
      "d": 108,
      "v": 100
    },
    {
      "midi": 69,
      "hit": false,
      "t": 5640,
      "d": 120,
      "v": 80
    },
    {
      "midi": 65,
      "hit": false,
      "t": 5640,
      "d": 120,
      "v": 80
    },
    {
      "midi": 42,
      "hit": false,
      "t": 5640,
      "d": 108,
      "v": 100
    },
    {
      "midi": 55,
      "hit": false,
      "t": 5760,
      "d": 480,
      "v": 100
    },
    {
      "midi": 48,
      "hit": false,
      "t": 5760,
      "d": 1200,
      "v": 115
    },
    {
      "midi": 42,
      "hit": false,
      "t": 5760,
      "d": 108,
      "v": 100
    },
    {
      "midi": 42,
      "hit": false,
      "t": 5880,
      "d": 108,
      "v": 100
    },
    {
      "midi": 62,
      "hit": false,
      "t": 6000,
      "d": 240,
      "v": 120
    },
    {
      "midi": 62,
      "hit": false,
      "t": 6000,
      "d": 240,
      "v": 120
    },
    {
      "midi": 74,
      "hit": false,
      "t": 6000,
      "d": 360,
      "v": 80
    },
    {
      "midi": 46,
      "hit": false,
      "t": 6000,
      "d": 108,
      "v": 100
    },
    {
      "midi": 42,
      "hit": false,
      "t": 6120,
      "d": 108,
      "v": 100
    },
    {
      "midi": 63,
      "hit": false,
      "t": 6240,
      "d": 240,
      "v": 120
    },
    {
      "midi": 63,
      "hit": false,
      "t": 6240,
      "d": 240,
      "v": 120
    },
    {
      "midi": 75,
      "hit": false,
      "t": 6240,
      "d": 240,
      "v": 80
    },
    {
      "midi": 74,
      "hit": false,
      "t": 6240,
      "d": 360,
      "v": 80
    },
    {
      "midi": 42,
      "hit": false,
      "t": 6240,
      "d": 108,
      "v": 100
    },
    {
      "midi": 74,
      "hit": false,
      "t": 6360,
      "d": 60,
      "v": 70
    },
    {
      "midi": 42,
      "hit": false,
      "t": 6360,
      "d": 108,
      "v": 100
    },
    {
      "midi": 70,
      "hit": false,
      "t": 6480,
      "d": 1200,
      "v": 120
    },
    {
      "midi": 70,
      "hit": false,
      "t": 6480,
      "d": 1200,
      "v": 120
    },
    {
      "midi": 82,
      "hit": false,
      "t": 6480,
      "d": 360,
      "v": 60
    },
    {
      "midi": 75,
      "hit": false,
      "t": 6480,
      "d": 360,
      "v": 80
    },
    {
      "midi": 46,
      "hit": false,
      "t": 6480,
      "d": 108,
      "v": 100
    },
    {
      "midi": 75,
      "hit": false,
      "t": 6600,
      "d": 120,
      "v": 70
    },
    {
      "midi": 74,
      "hit": false,
      "t": 6600,
      "d": 120,
      "v": 70
    },
    {
      "midi": 42,
      "hit": false,
      "t": 6600,
      "d": 108,
      "v": 100
    },
    {
      "midi": 69,
      "hit": false,
      "t": 6720,
      "d": 2880,
      "v": 120
    },
    {
      "midi": 82,
      "hit": false,
      "t": 6720,
      "d": 360,
      "v": 60
    },
    {
      "midi": 42,
      "hit": false,
      "t": 6720,
      "d": 108,
      "v": 100
    },
    {
      "midi": 82,
      "hit": false,
      "t": 6840,
      "d": 360,
      "v": 70
    },
    {
      "midi": 75,
      "hit": false,
      "t": 6840,
      "d": 120,
      "v": 70
    },
    {
      "midi": 42,
      "hit": false,
      "t": 6840,
      "d": 108,
      "v": 100
    },
    {
      "midi": 48,
      "hit": false,
      "t": 6960,
      "d": 720,
      "v": 105
    },
    {
      "midi": 46,
      "hit": false,
      "t": 6960,
      "d": 108,
      "v": 100
    },
    {
      "midi": 82,
      "hit": false,
      "t": 7080,
      "d": 360,
      "v": 70
    },
    {
      "midi": 42,
      "hit": false,
      "t": 7080,
      "d": 108,
      "v": 100
    },
    {
      "midi": 82,
      "hit": false,
      "t": 7200,
      "d": 480,
      "v": 60
    },
    {
      "midi": 42,
      "hit": false,
      "t": 7200,
      "d": 108,
      "v": 100
    },
    {
      "midi": 42,
      "hit": false,
      "t": 7320,
      "d": 108,
      "v": 100
    },
    {
      "midi": 82,
      "hit": false,
      "t": 7440,
      "d": 240,
      "v": 60
    },
    {
      "midi": 46,
      "hit": false,
      "t": 7440,
      "d": 108,
      "v": 100
    },
    {
      "midi": 42,
      "hit": false,
      "t": 7560,
      "d": 108,
      "v": 100
    },
    {
      "midi": 69,
      "hit": false,
      "t": 7680,
      "d": 480,
      "v": 120
    },
    {
      "midi": 69,
      "hit": false,
      "t": 7680,
      "d": 480,
      "v": 120
    },
    {
      "midi": 81,
      "hit": false,
      "t": 7680,
      "d": 360,
      "v": 80
    },
    {
      "midi": 48,
      "hit": false,
      "t": 7680,
      "d": 1920,
      "v": 105
    },
    {
      "midi": 42,
      "hit": false,
      "t": 7680,
      "d": 108,
      "v": 100
    },
    {
      "midi": 77,
      "hit": false,
      "t": 7800,
      "d": 120,
      "v": 80
    },
    {
      "midi": 42,
      "hit": false,
      "t": 7800,
      "d": 108,
      "v": 100
    },
    {
      "midi": 72,
      "hit": false,
      "t": 7920,
      "d": 240,
      "v": 80
    },
    {
      "midi": 81,
      "hit": false,
      "t": 7920,
      "d": 360,
      "v": 80
    },
    {
      "midi": 46,
      "hit": false,
      "t": 7920,
      "d": 108,
      "v": 100
    },
    {
      "midi": 81,
      "hit": false,
      "t": 8040,
      "d": 120,
      "v": 70
    },
    {
      "midi": 77,
      "hit": false,
      "t": 8040,
      "d": 120,
      "v": 80
    },
    {
      "midi": 42,
      "hit": false,
      "t": 8040,
      "d": 108,
      "v": 100
    },
    {
      "midi": 65,
      "hit": false,
      "t": 8160,
      "d": 480,
      "v": 120
    },
    {
      "midi": 65,
      "hit": false,
      "t": 8160,
      "d": 480,
      "v": 120
    },
    {
      "midi": 77,
      "hit": false,
      "t": 8160,
      "d": 360,
      "v": 80
    },
    {
      "midi": 72,
      "hit": false,
      "t": 8160,
      "d": 240,
      "v": 80
    },
    {
      "midi": 42,
      "hit": false,
      "t": 8160,
      "d": 108,
      "v": 100
    },
    {
      "midi": 72,
      "hit": false,
      "t": 8280,
      "d": 120,
      "v": 80
    },
    {
      "midi": 81,
      "hit": false,
      "t": 8280,
      "d": 120,
      "v": 70
    },
    {
      "midi": 42,
      "hit": false,
      "t": 8280,
      "d": 108,
      "v": 100
    },
    {
      "midi": 69,
      "hit": false,
      "t": 8400,
      "d": 240,
      "v": 80
    },
    {
      "midi": 77,
      "hit": false,
      "t": 8400,
      "d": 360,
      "v": 80
    },
    {
      "midi": 46,
      "hit": false,
      "t": 8400,
      "d": 108,
      "v": 100
    },
    {
      "midi": 77,
      "hit": false,
      "t": 8520,
      "d": 120,
      "v": 70
    },
    {
      "midi": 72,
      "hit": false,
      "t": 8520,
      "d": 120,
      "v": 80
    },
    {
      "midi": 42,
      "hit": false,
      "t": 8520,
      "d": 108,
      "v": 100
    },
    {
      "midi": 72,
      "hit": false,
      "t": 8640,
      "d": 480,
      "v": 120
    },
    {
      "midi": 72,
      "hit": false,
      "t": 8640,
      "d": 480,
      "v": 120
    },
    {
      "midi": 72,
      "hit": false,
      "t": 8640,
      "d": 360,
      "v": 80
    },
    {
      "midi": 69,
      "hit": false,
      "t": 8640,
      "d": 240,
      "v": 80
    },
    {
      "midi": 42,
      "hit": false,
      "t": 8640,
      "d": 108,
      "v": 100
    },
    {
      "midi": 69,
      "hit": false,
      "t": 8760,
      "d": 120,
      "v": 80
    },
    {
      "midi": 77,
      "hit": false,
      "t": 8760,
      "d": 120,
      "v": 70
    },
    {
      "midi": 42,
      "hit": false,
      "t": 8760,
      "d": 108,
      "v": 100
    },
    {
      "midi": 65,
      "hit": false,
      "t": 8880,
      "d": 240,
      "v": 80
    },
    {
      "midi": 72,
      "hit": false,
      "t": 8880,
      "d": 360,
      "v": 80
    },
    {
      "midi": 46,
      "hit": false,
      "t": 8880,
      "d": 108,
      "v": 100
    },
    {
      "midi": 72,
      "hit": false,
      "t": 9000,
      "d": 120,
      "v": 70
    },
    {
      "midi": 69,
      "hit": false,
      "t": 9000,
      "d": 120,
      "v": 80
    },
    {
      "midi": 42,
      "hit": false,
      "t": 9000,
      "d": 108,
      "v": 100
    },
    {
      "midi": 65,
      "hit": false,
      "t": 9120,
      "d": 240,
      "v": 120
    },
    {
      "midi": 65,
      "hit": false,
      "t": 9120,
      "d": 240,
      "v": 120
    },
    {
      "midi": 69,
      "hit": false,
      "t": 9120,
      "d": 360,
      "v": 80
    },
    {
      "midi": 65,
      "hit": false,
      "t": 9120,
      "d": 240,
      "v": 80
    },
    {
      "midi": 42,
      "hit": false,
      "t": 9120,
      "d": 108,
      "v": 100
    },
    {
      "midi": 65,
      "hit": false,
      "t": 9240,
      "d": 120,
      "v": 80
    },
    {
      "midi": 72,
      "hit": false,
      "t": 9240,
      "d": 120,
      "v": 70
    },
    {
      "midi": 42,
      "hit": false,
      "t": 9240,
      "d": 108,
      "v": 100
    },
    {
      "midi": 67,
      "hit": false,
      "t": 9360,
      "d": 240,
      "v": 120
    },
    {
      "midi": 67,
      "hit": false,
      "t": 9360,
      "d": 240,
      "v": 120
    },
    {
      "midi": 60,
      "hit": false,
      "t": 9360,
      "d": 240,
      "v": 80
    },
    {
      "midi": 69,
      "hit": false,
      "t": 9360,
      "d": 120,
      "v": 80
    },
    {
      "midi": 46,
      "hit": false,
      "t": 9360,
      "d": 108,
      "v": 100
    },
    {
      "midi": 69,
      "hit": false,
      "t": 9480,
      "d": 120,
      "v": 80
    },
    {
      "midi": 65,
      "hit": false,
      "t": 9480,
      "d": 120,
      "v": 80
    },
    {
      "midi": 42,
      "hit": false,
      "t": 9480,
      "d": 108,
      "v": 100
    },
    {
      "midi": 48,
      "hit": false,
      "t": 9600,
      "d": 360,
      "v": 120
    },
    {
      "midi": 36,
      "hit": false,
      "t": 9600,
      "d": 360,
      "v": 120
    },
    {
      "midi": 36,
      "hit": false,
      "t": 9600,
      "d": 324,
      "v": 100
    },
    {
      "midi": 49,
      "hit": false,
      "t": 9600,
      "d": 432,
      "v": 100
    },
    {
      "midi": 62,
      "hit": false,
      "t": 9840,
      "d": 240,
      "v": 120
    },
    {
      "midi": 62,
      "hit": false,
      "t": 9840,
      "d": 240,
      "v": 120
    },
    {
      "midi": 46,
      "hit": false,
      "t": 9840,
      "d": 216,
      "v": 100
    },
    {
      "midi": 46,
      "hit": false,
      "t": 9960,
      "d": 360,
      "v": 120
    },
    {
      "midi": 34,
      "hit": false,
      "t": 9960,
      "d": 360,
      "v": 120
    },
    {
      "midi": 36,
      "hit": false,
      "t": 9960,
      "d": 108,
      "v": 100
    },
    {
      "midi": 63,
      "hit": false,
      "t": 10080,
      "d": 240,
      "v": 120
    },
    {
      "midi": 63,
      "hit": false,
      "t": 10080,
      "d": 240,
      "v": 120
    },
    {
      "midi": 38,
      "hit": false,
      "t": 10080,
      "d": 432,
      "v": 100
    },
    {
      "midi": 67,
      "hit": false,
      "t": 10320,
      "d": 480,
      "v": 120
    },
    {
      "midi": 67,
      "hit": false,
      "t": 10320,
      "d": 480,
      "v": 120
    },
    {
      "midi": 48,
      "hit": false,
      "t": 10320,
      "d": 480,
      "v": 120
    },
    {
      "midi": 79,
      "hit": false,
      "t": 10320,
      "d": 120,
      "v": 50
    },
    {
      "midi": 36,
      "hit": false,
      "t": 10320,
      "d": 480,
      "v": 120
    },
    {
      "midi": 36,
      "hit": false,
      "t": 10320,
      "d": 216,
      "v": 100
    },
    {
      "midi": 46,
      "hit": false,
      "t": 10320,
      "d": 216,
      "v": 100
    },
    {
      "midi": 79,
      "hit": false,
      "t": 10440,
      "d": 120,
      "v": 70
    },
    {
      "midi": 79,
      "hit": false,
      "t": 10560,
      "d": 120,
      "v": 90
    },
    {
      "midi": 79,
      "hit": false,
      "t": 10680,
      "d": 120,
      "v": 70
    },
    {
      "midi": 62,
      "hit": false,
      "t": 10800,
      "d": 240,
      "v": 120
    },
    {
      "midi": 62,
      "hit": false,
      "t": 10800,
      "d": 240,
      "v": 120
    },
    {
      "midi": 46,
      "hit": false,
      "t": 10800,
      "d": 240,
      "v": 120
    },
    {
      "midi": 34,
      "hit": false,
      "t": 10800,
      "d": 240,
      "v": 120
    },
    {
      "midi": 36,
      "hit": false,
      "t": 10800,
      "d": 216,
      "v": 100
    },
    {
      "midi": 46,
      "hit": false,
      "t": 10800,
      "d": 216,
      "v": 100
    },
    {
      "midi": 63,
      "hit": false,
      "t": 11040,
      "d": 240,
      "v": 120
    },
    {
      "midi": 63,
      "hit": false,
      "t": 11040,
      "d": 240,
      "v": 120
    },
    {
      "midi": 48,
      "hit": false,
      "t": 11040,
      "d": 240,
      "v": 120
    },
    {
      "midi": 36,
      "hit": false,
      "t": 11040,
      "d": 240,
      "v": 120
    },
    {
      "midi": 38,
      "hit": false,
      "t": 11040,
      "d": 432,
      "v": 100
    },
    {
      "midi": 65,
      "hit": false,
      "t": 11280,
      "d": 240,
      "v": 120
    },
    {
      "midi": 65,
      "hit": false,
      "t": 11280,
      "d": 240,
      "v": 120
    },
    {
      "midi": 48,
      "hit": false,
      "t": 11280,
      "d": 240,
      "v": 120
    },
    {
      "midi": 79,
      "hit": false,
      "t": 11280,
      "d": 120,
      "v": 50
    },
    {
      "midi": 36,
      "hit": false,
      "t": 11280,
      "d": 240,
      "v": 120
    },
    {
      "midi": 46,
      "hit": false,
      "t": 11280,
      "d": 216,
      "v": 100
    },
    {
      "midi": 79,
      "hit": false,
      "t": 11400,
      "d": 120,
      "v": 70
    },
    {
      "midi": 46,
      "hit": false,
      "t": 11520,
      "d": 360,
      "v": 120
    },
    {
      "midi": 79,
      "hit": false,
      "t": 11520,
      "d": 120,
      "v": 90
    },
    {
      "midi": 34,
      "hit": false,
      "t": 11520,
      "d": 360,
      "v": 120
    },
    {
      "midi": 36,
      "hit": false,
      "t": 11520,
      "d": 324,
      "v": 100
    },
    {
      "midi": 49,
      "hit": false,
      "t": 11520,
      "d": 432,
      "v": 100
    },
    {
      "midi": 79,
      "hit": false,
      "t": 11640,
      "d": 120,
      "v": 70
    },
    {
      "midi": 62,
      "hit": false,
      "t": 11760,
      "d": 240,
      "v": 120
    },
    {
      "midi": 62,
      "hit": false,
      "t": 11760,
      "d": 240,
      "v": 120
    },
    {
      "midi": 46,
      "hit": false,
      "t": 11760,
      "d": 216,
      "v": 100
    },
    {
      "midi": 46,
      "hit": false,
      "t": 11880,
      "d": 360,
      "v": 120
    },
    {
      "midi": 34,
      "hit": false,
      "t": 11880,
      "d": 360,
      "v": 120
    },
    {
      "midi": 36,
      "hit": false,
      "t": 11880,
      "d": 108,
      "v": 100
    },
    {
      "midi": 63,
      "hit": false,
      "t": 12000,
      "d": 240,
      "v": 120
    },
    {
      "midi": 63,
      "hit": false,
      "t": 12000,
      "d": 240,
      "v": 120
    },
    {
      "midi": 38,
      "hit": false,
      "t": 12000,
      "d": 432,
      "v": 100
    },
    {
      "midi": 67,
      "hit": false,
      "t": 12240,
      "d": 480,
      "v": 120
    },
    {
      "midi": 67,
      "hit": false,
      "t": 12240,
      "d": 480,
      "v": 120
    },
    {
      "midi": 46,
      "hit": false,
      "t": 12240,
      "d": 720,
      "v": 120
    },
    {
      "midi": 79,
      "hit": false,
      "t": 12240,
      "d": 120,
      "v": 70
    },
    {
      "midi": 34,
      "hit": false,
      "t": 12240,
      "d": 720,
      "v": 120
    },
    {
      "midi": 36,
      "hit": false,
      "t": 12240,
      "d": 216,
      "v": 100
    },
    {
      "midi": 46,
      "hit": false,
      "t": 12240,
      "d": 216,
      "v": 100
    },
    {
      "midi": 79,
      "hit": false,
      "t": 12360,
      "d": 120,
      "v": 90
    },
    {
      "midi": 79,
      "hit": false,
      "t": 12480,
      "d": 120,
      "v": 90
    },
    {
      "midi": 50,
      "hit": false,
      "t": 12480,
      "d": 108,
      "v": 100
    },
    {
      "midi": 79,
      "hit": false,
      "t": 12600,
      "d": 120,
      "v": 70
    },
    {
      "midi": 38,
      "hit": false,
      "t": 12600,
      "d": 108,
      "v": 100
    },
    {
      "midi": 62,
      "hit": false,
      "t": 12720,
      "d": 240,
      "v": 120
    },
    {
      "midi": 62,
      "hit": false,
      "t": 12720,
      "d": 240,
      "v": 120
    },
    {
      "midi": 48,
      "hit": false,
      "t": 12720,
      "d": 108,
      "v": 100
    },
    {
      "midi": 46,
      "hit": false,
      "t": 12720,
      "d": 216,
      "v": 100
    },
    {
      "midi": 52,
      "hit": false,
      "t": 12720,
      "d": 216,
      "v": 100
    },
    {
      "midi": 38,
      "hit": false,
      "t": 12840,
      "d": 108,
      "v": 100
    },
    {
      "midi": 63,
      "hit": false,
      "t": 12960,
      "d": 240,
      "v": 120
    },
    {
      "midi": 63,
      "hit": false,
      "t": 12960,
      "d": 240,
      "v": 120
    },
    {
      "midi": 46,
      "hit": false,
      "t": 12960,
      "d": 240,
      "v": 120
    },
    {
      "midi": 34,
      "hit": false,
      "t": 12960,
      "d": 240,
      "v": 120
    },
    {
      "midi": 47,
      "hit": false,
      "t": 12960,
      "d": 108,
      "v": 100
    },
    {
      "midi": 38,
      "hit": false,
      "t": 13080,
      "d": 108,
      "v": 100
    },
    {
      "midi": 65,
      "hit": false,
      "t": 13200,
      "d": 240,
      "v": 120
    },
    {
      "midi": 65,
      "hit": false,
      "t": 13200,
      "d": 240,
      "v": 120
    },
    {
      "midi": 46,
      "hit": false,
      "t": 13200,
      "d": 240,
      "v": 120
    },
    {
      "midi": 79,
      "hit": false,
      "t": 13200,
      "d": 120,
      "v": 70
    },
    {
      "midi": 34,
      "hit": false,
      "t": 13200,
      "d": 240,
      "v": 120
    },
    {
      "midi": 43,
      "hit": false,
      "t": 13200,
      "d": 108,
      "v": 100
    },
    {
      "midi": 46,
      "hit": false,
      "t": 13200,
      "d": 216,
      "v": 100
    },
    {
      "midi": 52,
      "hit": false,
      "t": 13200,
      "d": 216,
      "v": 100
    },
    {
      "midi": 79,
      "hit": false,
      "t": 13320,
      "d": 120,
      "v": 90
    },
    {
      "midi": 47,
      "hit": false,
      "t": 13320,
      "d": 108,
      "v": 100
    },
    {
      "midi": 44,
      "hit": false,
      "t": 13440,
      "d": 360,
      "v": 120
    },
    {
      "midi": 79,
      "hit": false,
      "t": 13440,
      "d": 120,
      "v": 90
    },
    {
      "midi": 32,
      "hit": false,
      "t": 13440,
      "d": 360,
      "v": 120
    },
    {
      "midi": 36,
      "hit": false,
      "t": 13440,
      "d": 324,
      "v": 100
    },
    {
      "midi": 49,
      "hit": false,
      "t": 13440,
      "d": 432,
      "v": 100
    },
    {
      "midi": 79,
      "hit": false,
      "t": 13560,
      "d": 120,
      "v": 70
    },
    {
      "midi": 62,
      "hit": false,
      "t": 13680,
      "d": 240,
      "v": 120
    },
    {
      "midi": 62,
      "hit": false,
      "t": 13680,
      "d": 240,
      "v": 120
    },
    {
      "midi": 46,
      "hit": false,
      "t": 13680,
      "d": 216,
      "v": 100
    },
    {
      "midi": 44,
      "hit": false,
      "t": 13800,
      "d": 360,
      "v": 120
    },
    {
      "midi": 32,
      "hit": false,
      "t": 13800,
      "d": 360,
      "v": 120
    },
    {
      "midi": 36,
      "hit": false,
      "t": 13800,
      "d": 108,
      "v": 100
    },
    {
      "midi": 63,
      "hit": false,
      "t": 13920,
      "d": 240,
      "v": 120
    },
    {
      "midi": 63,
      "hit": false,
      "t": 13920,
      "d": 240,
      "v": 120
    },
    {
      "midi": 38,
      "hit": false,
      "t": 13920,
      "d": 432,
      "v": 100
    },
    {
      "midi": 67,
      "hit": false,
      "t": 14160,
      "d": 480,
      "v": 120
    },
    {
      "midi": 67,
      "hit": false,
      "t": 14160,
      "d": 480,
      "v": 120
    },
    {
      "midi": 44,
      "hit": false,
      "t": 14160,
      "d": 240,
      "v": 120
    },
    {
      "midi": 79,
      "hit": false,
      "t": 14160,
      "d": 120,
      "v": 70
    },
    {
      "midi": 32,
      "hit": false,
      "t": 14160,
      "d": 240,
      "v": 120
    },
    {
      "midi": 36,
      "hit": false,
      "t": 14160,
      "d": 216,
      "v": 100
    },
    {
      "midi": 46,
      "hit": false,
      "t": 14160,
      "d": 216,
      "v": 100
    },
    {
      "midi": 79,
      "hit": false,
      "t": 14280,
      "d": 120,
      "v": 90
    },
    {
      "midi": 43,
      "hit": false,
      "t": 14400,
      "d": 360,
      "v": 120
    },
    {
      "midi": 79,
      "hit": false,
      "t": 14400,
      "d": 120,
      "v": 90
    },
    {
      "midi": 31,
      "hit": false,
      "t": 14400,
      "d": 240,
      "v": 120
    },
    {
      "midi": 79,
      "hit": false,
      "t": 14520,
      "d": 120,
      "v": 70
    },
    {
      "midi": 62,
      "hit": false,
      "t": 14640,
      "d": 240,
      "v": 120
    },
    {
      "midi": 62,
      "hit": false,
      "t": 14640,
      "d": 240,
      "v": 120
    },
    {
      "midi": 31,
      "hit": false,
      "t": 14640,
      "d": 240,
      "v": 120
    },
    {
      "midi": 36,
      "hit": false,
      "t": 14640,
      "d": 216,
      "v": 100
    },
    {
      "midi": 46,
      "hit": false,
      "t": 14640,
      "d": 216,
      "v": 100
    },
    {
      "midi": 43,
      "hit": false,
      "t": 14760,
      "d": 360,
      "v": 120
    },
    {
      "midi": 63,
      "hit": false,
      "t": 14880,
      "d": 240,
      "v": 120
    },
    {
      "midi": 63,
      "hit": false,
      "t": 14880,
      "d": 240,
      "v": 120
    },
    {
      "midi": 31,
      "hit": false,
      "t": 14880,
      "d": 480,
      "v": 120
    },
    {
      "midi": 38,
      "hit": false,
      "t": 14880,
      "d": 432,
      "v": 100
    },
    {
      "midi": 65,
      "hit": false,
      "t": 15120,
      "d": 240,
      "v": 120
    },
    {
      "midi": 65,
      "hit": false,
      "t": 15120,
      "d": 240,
      "v": 120
    },
    {
      "midi": 43,
      "hit": false,
      "t": 15120,
      "d": 240,
      "v": 120
    },
    {
      "midi": 79,
      "hit": false,
      "t": 15120,
      "d": 120,
      "v": 70
    },
    {
      "midi": 46,
      "hit": false,
      "t": 15120,
      "d": 216,
      "v": 100
    },
    {
      "midi": 36,
      "hit": false,
      "t": 15120,
      "d": 216,
      "v": 100
    },
    {
      "midi": 79,
      "hit": false,
      "t": 15240,
      "d": 120,
      "v": 90
    },
    {
      "midi": 41,
      "hit": false,
      "t": 15360,
      "d": 360,
      "v": 120
    },
    {
      "midi": 79,
      "hit": false,
      "t": 15360,
      "d": 120,
      "v": 90
    },
    {
      "midi": 29,
      "hit": false,
      "t": 15360,
      "d": 360,
      "v": 120
    },
    {
      "midi": 36,
      "hit": false,
      "t": 15360,
      "d": 324,
      "v": 100
    },
    {
      "midi": 49,
      "hit": false,
      "t": 15360,
      "d": 432,
      "v": 100
    },
    {
      "midi": 79,
      "hit": false,
      "t": 15480,
      "d": 120,
      "v": 70
    },
    {
      "midi": 60,
      "hit": false,
      "t": 15600,
      "d": 240,
      "v": 120
    },
    {
      "midi": 60,
      "hit": false,
      "t": 15600,
      "d": 240,
      "v": 120
    },
    {
      "midi": 46,
      "hit": false,
      "t": 15600,
      "d": 216,
      "v": 100
    },
    {
      "midi": 41,
      "hit": false,
      "t": 15720,
      "d": 360,
      "v": 120
    },
    {
      "midi": 29,
      "hit": false,
      "t": 15720,
      "d": 360,
      "v": 120
    },
    {
      "midi": 36,
      "hit": false,
      "t": 15720,
      "d": 108,
      "v": 100
    },
    {
      "midi": 63,
      "hit": false,
      "t": 15840,
      "d": 240,
      "v": 120
    },
    {
      "midi": 63,
      "hit": false,
      "t": 15840,
      "d": 240,
      "v": 120
    },
    {
      "midi": 38,
      "hit": false,
      "t": 15840,
      "d": 432,
      "v": 100
    },
    {
      "midi": 67,
      "hit": false,
      "t": 16080,
      "d": 480,
      "v": 120
    },
    {
      "midi": 67,
      "hit": false,
      "t": 16080,
      "d": 480,
      "v": 120
    },
    {
      "midi": 41,
      "hit": false,
      "t": 16080,
      "d": 240,
      "v": 120
    },
    {
      "midi": 82,
      "hit": false,
      "t": 16080,
      "d": 120,
      "v": 70
    },
    {
      "midi": 29,
      "hit": false,
      "t": 16080,
      "d": 240,
      "v": 120
    },
    {
      "midi": 36,
      "hit": false,
      "t": 16080,
      "d": 216,
      "v": 100
    },
    {
      "midi": 46,
      "hit": false,
      "t": 16080,
      "d": 216,
      "v": 100
    },
    {
      "midi": 82,
      "hit": false,
      "t": 16200,
      "d": 120,
      "v": 90
    },
    {
      "midi": 46,
      "hit": false,
      "t": 16320,
      "d": 240,
      "v": 120
    },
    {
      "midi": 82,
      "hit": false,
      "t": 16320,
      "d": 120,
      "v": 90
    },
    {
      "midi": 34,
      "hit": false,
      "t": 16320,
      "d": 240,
      "v": 120
    },
    {
      "midi": 82,
      "hit": false,
      "t": 16440,
      "d": 120,
      "v": 70
    },
    {
      "midi": 58,
      "hit": false,
      "t": 16560,
      "d": 240,
      "v": 120
    },
    {
      "midi": 58,
      "hit": false,
      "t": 16560,
      "d": 240,
      "v": 120
    },
    {
      "midi": 46,
      "hit": false,
      "t": 16560,
      "d": 240,
      "v": 120
    },
    {
      "midi": 34,
      "hit": false,
      "t": 16560,
      "d": 240,
      "v": 120
    },
    {
      "midi": 36,
      "hit": false,
      "t": 16560,
      "d": 216,
      "v": 100
    },
    {
      "midi": 46,
      "hit": false,
      "t": 16560,
      "d": 216,
      "v": 100
    },
    {
      "midi": 60,
      "hit": false,
      "t": 16800,
      "d": 240,
      "v": 120
    },
    {
      "midi": 60,
      "hit": false,
      "t": 16800,
      "d": 240,
      "v": 120
    },
    {
      "midi": 46,
      "hit": false,
      "t": 16800,
      "d": 480,
      "v": 120
    },
    {
      "midi": 34,
      "hit": false,
      "t": 16800,
      "d": 480,
      "v": 120
    },
    {
      "midi": 47,
      "hit": false,
      "t": 16800,
      "d": 108,
      "v": 100
    },
    {
      "midi": 38,
      "hit": false,
      "t": 16920,
      "d": 108,
      "v": 100
    },
    {
      "midi": 70,
      "hit": false,
      "t": 17040,
      "d": 96,
      "v": 120
    },
    {
      "midi": 58,
      "hit": false,
      "t": 17040,
      "d": 240,
      "v": 120
    },
    {
      "midi": 58,
      "hit": false,
      "t": 17040,
      "d": 240,
      "v": 120
    },
    {
      "midi": 82,
      "hit": false,
      "t": 17040,
      "d": 120,
      "v": 70
    },
    {
      "midi": 43,
      "hit": false,
      "t": 17040,
      "d": 108,
      "v": 100
    },
    {
      "midi": 46,
      "hit": false,
      "t": 17040,
      "d": 216,
      "v": 100
    },
    {
      "midi": 70,
      "hit": false,
      "t": 17160,
      "d": 96,
      "v": 120
    },
    {
      "midi": 82,
      "hit": false,
      "t": 17160,
      "d": 120,
      "v": 90
    },
    {
      "midi": 38,
      "hit": false,
      "t": 17160,
      "d": 108,
      "v": 100
    },
    {
      "midi": 77,
      "hit": false,
      "t": 17280,
      "d": 288,
      "v": 120
    },
    {
      "midi": 63,
      "hit": false,
      "t": 17280,
      "d": 480,
      "v": 120
    },
    {
      "midi": 58,
      "hit": false,
      "t": 17280,
      "d": 480,
      "v": 120
    },
    {
      "midi": 63,
      "hit": false,
      "t": 17280,
      "d": 288,
      "v": 105
    },
    {
      "midi": 58,
      "hit": false,
      "t": 17280,
      "d": 288,
      "v": 105
    },
    {
      "midi": 39,
      "hit": false,
      "t": 17280,
      "d": 1920,
      "v": 120
    },
    {
      "midi": 44,
      "hit": false,
      "t": 17280,
      "d": 108,
      "v": 100
    },
    {
      "midi": 36,
      "hit": false,
      "t": 17280,
      "d": 432,
      "v": 100
    },
    {
      "midi": 44,
      "hit": false,
      "t": 17400,
      "d": 108,
      "v": 100
    },
    {
      "midi": 42,
      "hit": false,
      "t": 17520,
      "d": 216,
      "v": 100
    },
    {
      "midi": 79,
      "hit": false,
      "t": 17640,
      "d": 312,
      "v": 120
    },
    {
      "midi": 58,
      "hit": false,
      "t": 17640,
      "d": 312,
      "v": 105
    },
    {
      "midi": 63,
      "hit": false,
      "t": 17640,
      "d": 360,
      "v": 105
    },
    {
      "midi": 44,
      "hit": false,
      "t": 17640,
      "d": 108,
      "v": 100
    },
    {
      "midi": 44,
      "hit": false,
      "t": 17760,
      "d": 108,
      "v": 100
    },
    {
      "midi": 38,
      "hit": false,
      "t": 17760,
      "d": 432,
      "v": 100
    },
    {
      "midi": 44,
      "hit": false,
      "t": 17880,
      "d": 108,
      "v": 100
    },
    {
      "midi": 80,
      "hit": false,
      "t": 18000,
      "d": 192,
      "v": 120
    },
    {
      "midi": 63,
      "hit": false,
      "t": 18000,
      "d": 720,
      "v": 120
    },
    {
      "midi": 58,
      "hit": false,
      "t": 18000,
      "d": 720,
      "v": 120
    },
    {
      "midi": 63,
      "hit": false,
      "t": 18000,
      "d": 192,
      "v": 105
    },
    {
      "midi": 58,
      "hit": false,
      "t": 18000,
      "d": 192,
      "v": 105
    },
    {
      "midi": 42,
      "hit": false,
      "t": 18000,
      "d": 216,
      "v": 100
    },
    {
      "midi": 44,
      "hit": false,
      "t": 18120,
      "d": 108,
      "v": 100
    },
    {
      "midi": 79,
      "hit": false,
      "t": 18240,
      "d": 192,
      "v": 120
    },
    {
      "midi": 63,
      "hit": false,
      "t": 18240,
      "d": 768,
      "v": 105
    },
    {
      "midi": 58,
      "hit": false,
      "t": 18240,
      "d": 768,
      "v": 105
    },
    {
      "midi": 44,
      "hit": false,
      "t": 18240,
      "d": 108,
      "v": 100
    },
    {
      "midi": 36,
      "hit": false,
      "t": 18240,
      "d": 432,
      "v": 100
    },
    {
      "midi": 44,
      "hit": false,
      "t": 18360,
      "d": 108,
      "v": 100
    },
    {
      "midi": 42,
      "hit": false,
      "t": 18480,
      "d": 216,
      "v": 100
    },
    {
      "midi": 44,
      "hit": false,
      "t": 18600,
      "d": 108,
      "v": 100
    },
    {
      "midi": 44,
      "hit": false,
      "t": 18720,
      "d": 108,
      "v": 100
    },
    {
      "midi": 38,
      "hit": false,
      "t": 18720,
      "d": 432,
      "v": 100
    },
    {
      "midi": 44,
      "hit": false,
      "t": 18840,
      "d": 108,
      "v": 100
    },
    {
      "midi": 79,
      "hit": false,
      "t": 18960,
      "d": 120,
      "v": 120
    },
    {
      "midi": 63,
      "hit": false,
      "t": 18960,
      "d": 36,
      "v": 120
    },
    {
      "midi": 58,
      "hit": false,
      "t": 18960,
      "d": 36,
      "v": 120
    },
    {
      "midi": 46,
      "hit": false,
      "t": 18960,
      "d": 216,
      "v": 100
    },
    {
      "midi": 75,
      "hit": false,
      "t": 19080,
      "d": 120,
      "v": 120
    },
    {
      "midi": 63,
      "hit": false,
      "t": 19080,
      "d": 36,
      "v": 120
    },
    {
      "midi": 58,
      "hit": false,
      "t": 19080,
      "d": 36,
      "v": 120
    },
    {
      "midi": 44,
      "hit": false,
      "t": 19080,
      "d": 108,
      "v": 100
    },
    {
      "midi": 77,
      "hit": false,
      "t": 19200,
      "d": 288,
      "v": 120
    },
    {
      "midi": 62,
      "hit": false,
      "t": 19200,
      "d": 480,
      "v": 120
    },
    {
      "midi": 58,
      "hit": false,
      "t": 19200,
      "d": 480,
      "v": 120
    },
    {
      "midi": 62,
      "hit": false,
      "t": 19200,
      "d": 288,
      "v": 105
    },
    {
      "midi": 58,
      "hit": false,
      "t": 19200,
      "d": 288,
      "v": 105
    },
    {
      "midi": 38,
      "hit": false,
      "t": 19200,
      "d": 960,
      "v": 120
    },
    {
      "midi": 44,
      "hit": false,
      "t": 19200,
      "d": 108,
      "v": 100
    },
    {
      "midi": 36,
      "hit": false,
      "t": 19200,
      "d": 432,
      "v": 100
    },
    {
      "midi": 44,
      "hit": false,
      "t": 19320,
      "d": 108,
      "v": 100
    },
    {
      "midi": 42,
      "hit": false,
      "t": 19440,
      "d": 216,
      "v": 100
    },
    {
      "midi": 79,
      "hit": false,
      "t": 19560,
      "d": 312,
      "v": 120
    },
    {
      "midi": 58,
      "hit": false,
      "t": 19560,
      "d": 312,
      "v": 105
    },
    {
      "midi": 62,
      "hit": false,
      "t": 19560,
      "d": 360,
      "v": 105
    },
    {
      "midi": 44,
      "hit": false,
      "t": 19560,
      "d": 108,
      "v": 100
    },
    {
      "midi": 44,
      "hit": false,
      "t": 19680,
      "d": 108,
      "v": 100
    },
    {
      "midi": 38,
      "hit": false,
      "t": 19680,
      "d": 432,
      "v": 100
    },
    {
      "midi": 44,
      "hit": false,
      "t": 19800,
      "d": 108,
      "v": 100
    },
    {
      "midi": 80,
      "hit": false,
      "t": 19920,
      "d": 192,
      "v": 120
    },
    {
      "midi": 62,
      "hit": false,
      "t": 19920,
      "d": 240,
      "v": 120
    },
    {
      "midi": 58,
      "hit": false,
      "t": 19920,
      "d": 240,
      "v": 120
    },
    {
      "midi": 62,
      "hit": false,
      "t": 19920,
      "d": 192,
      "v": 105
    },
    {
      "midi": 58,
      "hit": false,
      "t": 19920,
      "d": 192,
      "v": 105
    },
    {
      "midi": 42,
      "hit": false,
      "t": 19920,
      "d": 216,
      "v": 100
    },
    {
      "midi": 44,
      "hit": false,
      "t": 20040,
      "d": 108,
      "v": 100
    },
    {
      "midi": 79,
      "hit": false,
      "t": 20160,
      "d": 192,
      "v": 120
    },
    {
      "midi": 62,
      "hit": false,
      "t": 20160,
      "d": 480,
      "v": 120
    },
    {
      "midi": 59,
      "hit": false,
      "t": 20160,
      "d": 480,
      "v": 120
    },
    {
      "midi": 59,
      "hit": false,
      "t": 20160,
      "d": 768,
      "v": 105
    },
    {
      "midi": 55,
      "hit": false,
      "t": 20160,
      "d": 768,
      "v": 105
    },
    {
      "midi": 31,
      "hit": false,
      "t": 20160,
      "d": 960,
      "v": 120
    },
    {
      "midi": 44,
      "hit": false,
      "t": 20160,
      "d": 108,
      "v": 100
    },
    {
      "midi": 36,
      "hit": false,
      "t": 20160,
      "d": 432,
      "v": 100
    },
    {
      "midi": 44,
      "hit": false,
      "t": 20280,
      "d": 108,
      "v": 100
    },
    {
      "midi": 42,
      "hit": false,
      "t": 20400,
      "d": 216,
      "v": 100
    },
    {
      "midi": 44,
      "hit": false,
      "t": 20520,
      "d": 108,
      "v": 100
    },
    {
      "midi": 44,
      "hit": false,
      "t": 20640,
      "d": 108,
      "v": 100
    },
    {
      "midi": 38,
      "hit": false,
      "t": 20640,
      "d": 432,
      "v": 100
    },
    {
      "midi": 44,
      "hit": false,
      "t": 20760,
      "d": 108,
      "v": 100
    },
    {
      "midi": 77,
      "hit": false,
      "t": 20880,
      "d": 96,
      "v": 120
    },
    {
      "midi": 62,
      "hit": false,
      "t": 20880,
      "d": 36,
      "v": 120
    },
    {
      "midi": 59,
      "hit": false,
      "t": 20880,
      "d": 36,
      "v": 120
    },
    {
      "midi": 46,
      "hit": false,
      "t": 20880,
      "d": 216,
      "v": 100
    },
    {
      "midi": 74,
      "hit": false,
      "t": 21000,
      "d": 96,
      "v": 120
    },
    {
      "midi": 62,
      "hit": false,
      "t": 21000,
      "d": 36,
      "v": 120
    },
    {
      "midi": 59,
      "hit": false,
      "t": 21000,
      "d": 36,
      "v": 120
    },
    {
      "midi": 44,
      "hit": false,
      "t": 21000,
      "d": 108,
      "v": 100
    },
    {
      "midi": 75,
      "hit": false,
      "t": 21120,
      "d": 288,
      "v": 120
    },
    {
      "midi": 75,
      "hit": false,
      "t": 21120,
      "d": 306,
      "v": 65
    },
    {
      "midi": 72,
      "hit": false,
      "t": 21120,
      "d": 306,
      "v": 65
    },
    {
      "midi": 63,
      "hit": false,
      "t": 21120,
      "d": 480,
      "v": 120
    },
    {
      "midi": 58,
      "hit": false,
      "t": 21120,
      "d": 480,
      "v": 120
    },
    {
      "midi": 63,
      "hit": false,
      "t": 21120,
      "d": 288,
      "v": 105
    },
    {
      "midi": 60,
      "hit": false,
      "t": 21120,
      "d": 288,
      "v": 105
    },
    {
      "midi": 36,
      "hit": false,
      "t": 21120,
      "d": 960,
      "v": 120
    },
    {
      "midi": 44,
      "hit": false,
      "t": 21120,
      "d": 108,
      "v": 100
    },
    {
      "midi": 36,
      "hit": false,
      "t": 21120,
      "d": 432,
      "v": 100
    },
    {
      "midi": 44,
      "hit": false,
      "t": 21240,
      "d": 108,
      "v": 100
    },
    {
      "midi": 42,
      "hit": false,
      "t": 21360,
      "d": 216,
      "v": 100
    },
    {
      "midi": 77,
      "hit": false,
      "t": 21480,
      "d": 96,
      "v": 120
    },
    {
      "midi": 75,
      "hit": false,
      "t": 21480,
      "d": 102,
      "v": 65
    },
    {
      "midi": 72,
      "hit": false,
      "t": 21480,
      "d": 102,
      "v": 65
    },
    {
      "midi": 63,
      "hit": false,
      "t": 21480,
      "d": 312,
      "v": 105
    },
    {
      "midi": 60,
      "hit": false,
      "t": 21480,
      "d": 312,
      "v": 105
    },
    {
      "midi": 44,
      "hit": false,
      "t": 21480,
      "d": 108,
      "v": 100
    },
    {
      "midi": 44,
      "hit": false,
      "t": 21600,
      "d": 108,
      "v": 100
    },
    {
      "midi": 38,
      "hit": false,
      "t": 21600,
      "d": 432,
      "v": 100
    },
    {
      "midi": 44,
      "hit": false,
      "t": 21720,
      "d": 108,
      "v": 100
    },
    {
      "midi": 74,
      "hit": false,
      "t": 21840,
      "d": 192,
      "v": 120
    },
    {
      "midi": 75,
      "hit": false,
      "t": 21840,
      "d": 204,
      "v": 65
    },
    {
      "midi": 72,
      "hit": false,
      "t": 21840,
      "d": 204,
      "v": 65
    },
    {
      "midi": 63,
      "hit": false,
      "t": 21840,
      "d": 1200,
      "v": 120
    },
    {
      "midi": 58,
      "hit": false,
      "t": 21840,
      "d": 1200,
      "v": 120
    },
    {
      "midi": 63,
      "hit": false,
      "t": 21840,
      "d": 192,
      "v": 105
    },
    {
      "midi": 60,
      "hit": false,
      "t": 21840,
      "d": 192,
      "v": 105
    },
    {
      "midi": 42,
      "hit": false,
      "t": 21840,
      "d": 216,
      "v": 100
    },
    {
      "midi": 44,
      "hit": false,
      "t": 21960,
      "d": 108,
      "v": 100
    },
    {
      "midi": 75,
      "hit": false,
      "t": 22080,
      "d": 288,
      "v": 120
    },
    {
      "midi": 75,
      "hit": false,
      "t": 22080,
      "d": 306,
      "v": 65
    },
    {
      "midi": 72,
      "hit": false,
      "t": 22080,
      "d": 306,
      "v": 65
    },
    {
      "midi": 63,
      "hit": false,
      "t": 22080,
      "d": 768,
      "v": 105
    },
    {
      "midi": 58,
      "hit": false,
      "t": 22080,
      "d": 768,
      "v": 105
    },
    {
      "midi": 34,
      "hit": false,
      "t": 22080,
      "d": 960,
      "v": 120
    },
    {
      "midi": 44,
      "hit": false,
      "t": 22080,
      "d": 108,
      "v": 100
    },
    {
      "midi": 36,
      "hit": false,
      "t": 22080,
      "d": 432,
      "v": 100
    },
    {
      "midi": 44,
      "hit": false,
      "t": 22200,
      "d": 108,
      "v": 100
    },
    {
      "midi": 42,
      "hit": false,
      "t": 22320,
      "d": 216,
      "v": 100
    },
    {
      "midi": 77,
      "hit": false,
      "t": 22440,
      "d": 312,
      "v": 120
    },
    {
      "midi": 79,
      "hit": false,
      "t": 22440,
      "d": 324,
      "v": 65
    },
    {
      "midi": 75,
      "hit": false,
      "t": 22440,
      "d": 324,
      "v": 65
    },
    {
      "midi": 44,
      "hit": false,
      "t": 22440,
      "d": 108,
      "v": 100
    },
    {
      "midi": 44,
      "hit": false,
      "t": 22560,
      "d": 108,
      "v": 100
    },
    {
      "midi": 38,
      "hit": false,
      "t": 22560,
      "d": 432,
      "v": 100
    },
    {
      "midi": 44,
      "hit": false,
      "t": 22680,
      "d": 108,
      "v": 100
    },
    {
      "midi": 79,
      "hit": false,
      "t": 22800,
      "d": 192,
      "v": 120
    },
    {
      "midi": 75,
      "hit": false,
      "t": 22800,
      "d": 204,
      "v": 65
    },
    {
      "midi": 72,
      "hit": false,
      "t": 22800,
      "d": 204,
      "v": 65
    },
    {
      "midi": 46,
      "hit": false,
      "t": 22800,
      "d": 216,
      "v": 100
    },
    {
      "midi": 44,
      "hit": false,
      "t": 22920,
      "d": 108,
      "v": 100
    },
    {
      "midi": 79,
      "hit": false,
      "t": 23040,
      "d": 576,
      "v": 120
    },
    {
      "midi": 72,
      "hit": false,
      "t": 23040,
      "d": 612,
      "v": 65
    },
    {
      "midi": 69,
      "hit": false,
      "t": 23040,
      "d": 612,
      "v": 65
    },
    {
      "midi": 69,
      "hit": false,
      "t": 23040,
      "d": 648,
      "v": 120
    },
    {
      "midi": 65,
      "hit": false,
      "t": 23040,
      "d": 648,
      "v": 120
    },
    {
      "midi": 65,
      "hit": false,
      "t": 23040,
      "d": 288,
      "v": 105
    },
    {
      "midi": 60,
      "hit": false,
      "t": 23040,
      "d": 288,
      "v": 105
    },
    {
      "midi": 33,
      "hit": false,
      "t": 23040,
      "d": 1920,
      "v": 120
    },
    {
      "midi": 44,
      "hit": false,
      "t": 23040,
      "d": 108,
      "v": 100
    },
    {
      "midi": 36,
      "hit": false,
      "t": 23040,
      "d": 432,
      "v": 100
    },
    {
      "midi": 44,
      "hit": false,
      "t": 23160,
      "d": 108,
      "v": 100
    },
    {
      "midi": 42,
      "hit": false,
      "t": 23280,
      "d": 216,
      "v": 100
    },
    {
      "midi": 65,
      "hit": false,
      "t": 23400,
      "d": 312,
      "v": 105
    },
    {
      "midi": 60,
      "hit": false,
      "t": 23400,
      "d": 312,
      "v": 105
    },
    {
      "midi": 44,
      "hit": false,
      "t": 23400,
      "d": 108,
      "v": 100
    },
    {
      "midi": 44,
      "hit": false,
      "t": 23520,
      "d": 108,
      "v": 100
    },
    {
      "midi": 38,
      "hit": false,
      "t": 23520,
      "d": 432,
      "v": 100
    },
    {
      "midi": 44,
      "hit": false,
      "t": 23640,
      "d": 108,
      "v": 100
    },
    {
      "midi": 72,
      "hit": false,
      "t": 23760,
      "d": 192,
      "v": 120
    },
    {
      "midi": 69,
      "hit": false,
      "t": 23760,
      "d": 204,
      "v": 65
    },
    {
      "midi": 77,
      "hit": false,
      "t": 23760,
      "d": 204,
      "v": 65
    },
    {
      "midi": 69,
      "hit": false,
      "t": 23760,
      "d": 108,
      "v": 120
    },
    {
      "midi": 65,
      "hit": false,
      "t": 23760,
      "d": 108,
      "v": 120
    },
    {
      "midi": 65,
      "hit": false,
      "t": 23760,
      "d": 192,
      "v": 105
    },
    {
      "midi": 60,
      "hit": false,
      "t": 23760,
      "d": 192,
      "v": 105
    },
    {
      "midi": 42,
      "hit": false,
      "t": 23760,
      "d": 216,
      "v": 100
    },
    {
      "midi": 69,
      "hit": false,
      "t": 23880,
      "d": 108,
      "v": 120
    },
    {
      "midi": 65,
      "hit": false,
      "t": 23880,
      "d": 108,
      "v": 120
    },
    {
      "midi": 44,
      "hit": false,
      "t": 23880,
      "d": 108,
      "v": 100
    },
    {
      "midi": 72,
      "hit": false,
      "t": 24000,
      "d": 576,
      "v": 120
    },
    {
      "midi": 77,
      "hit": false,
      "t": 24000,
      "d": 612,
      "v": 65
    },
    {
      "midi": 69,
      "hit": false,
      "t": 24000,
      "d": 612,
      "v": 65
    },
    {
      "midi": 69,
      "hit": false,
      "t": 24000,
      "d": 216,
      "v": 120
    },
    {
      "midi": 65,
      "hit": false,
      "t": 24000,
      "d": 216,
      "v": 120
    },
    {
      "midi": 65,
      "hit": false,
      "t": 24000,
      "d": 768,
      "v": 105
    },
    {
      "midi": 60,
      "hit": false,
      "t": 24000,
      "d": 768,
      "v": 105
    },
    {
      "midi": 44,
      "hit": false,
      "t": 24000,
      "d": 108,
      "v": 100
    },
    {
      "midi": 36,
      "hit": false,
      "t": 24000,
      "d": 432,
      "v": 100
    },
    {
      "midi": 44,
      "hit": false,
      "t": 24120,
      "d": 108,
      "v": 100
    },
    {
      "midi": 69,
      "hit": false,
      "t": 24240,
      "d": 36,
      "v": 120
    },
    {
      "midi": 65,
      "hit": false,
      "t": 24240,
      "d": 36,
      "v": 120
    },
    {
      "midi": 42,
      "hit": false,
      "t": 24240,
      "d": 216,
      "v": 100
    },
    {
      "midi": 69,
      "hit": false,
      "t": 24360,
      "d": 108,
      "v": 120
    },
    {
      "midi": 65,
      "hit": false,
      "t": 24360,
      "d": 108,
      "v": 120
    },
    {
      "midi": 44,
      "hit": false,
      "t": 24360,
      "d": 108,
      "v": 100
    },
    {
      "midi": 65,
      "hit": false,
      "t": 24480,
      "d": 480,
      "v": 120
    },
    {
      "midi": 69,
      "hit": false,
      "t": 24480,
      "d": 480,
      "v": 120
    },
    {
      "midi": 44,
      "hit": false,
      "t": 24480,
      "d": 108,
      "v": 100
    },
    {
      "midi": 38,
      "hit": false,
      "t": 24480,
      "d": 432,
      "v": 100
    },
    {
      "midi": 44,
      "hit": false,
      "t": 24600,
      "d": 108,
      "v": 100
    },
    {
      "midi": 72,
      "hit": false,
      "t": 24720,
      "d": 192,
      "v": 120
    },
    {
      "midi": 77,
      "hit": false,
      "t": 24720,
      "d": 204,
      "v": 65
    },
    {
      "midi": 68,
      "hit": false,
      "t": 24720,
      "d": 204,
      "v": 65
    },
    {
      "midi": 46,
      "hit": false,
      "t": 24720,
      "d": 216,
      "v": 100
    },
    {
      "midi": 44,
      "hit": false,
      "t": 24840,
      "d": 108,
      "v": 100
    },
    {
      "midi": 72,
      "hit": false,
      "t": 24960,
      "d": 576,
      "v": 120
    },
    {
      "midi": 68,
      "hit": false,
      "t": 24960,
      "d": 612,
      "v": 65
    },
    {
      "midi": 77,
      "hit": false,
      "t": 24960,
      "d": 612,
      "v": 65
    },
    {
      "midi": 63,
      "hit": false,
      "t": 24960,
      "d": 480,
      "v": 120
    },
    {
      "midi": 60,
      "hit": false,
      "t": 24960,
      "d": 480,
      "v": 120
    },
    {
      "midi": 63,
      "hit": false,
      "t": 24960,
      "d": 288,
      "v": 105
    },
    {
      "midi": 60,
      "hit": false,
      "t": 24960,
      "d": 288,
      "v": 105
    },
    {
      "midi": 32,
      "hit": false,
      "t": 24960,
      "d": 1920,
      "v": 120
    },
    {
      "midi": 44,
      "hit": false,
      "t": 24960,
      "d": 108,
      "v": 100
    },
    {
      "midi": 36,
      "hit": false,
      "t": 24960,
      "d": 432,
      "v": 100
    },
    {
      "midi": 44,
      "hit": false,
      "t": 25080,
      "d": 108,
      "v": 100
    },
    {
      "midi": 42,
      "hit": false,
      "t": 25200,
      "d": 216,
      "v": 100
    },
    {
      "midi": 63,
      "hit": false,
      "t": 25320,
      "d": 312,
      "v": 105
    },
    {
      "midi": 60,
      "hit": false,
      "t": 25320,
      "d": 312,
      "v": 105
    },
    {
      "midi": 44,
      "hit": false,
      "t": 25320,
      "d": 108,
      "v": 100
    },
    {
      "midi": 44,
      "hit": false,
      "t": 25440,
      "d": 108,
      "v": 100
    },
    {
      "midi": 38,
      "hit": false,
      "t": 25440,
      "d": 432,
      "v": 100
    },
    {
      "midi": 44,
      "hit": false,
      "t": 25560,
      "d": 108,
      "v": 100
    },
    {
      "midi": 72,
      "hit": false,
      "t": 25680,
      "d": 192,
      "v": 120
    },
    {
      "midi": 77,
      "hit": false,
      "t": 25680,
      "d": 204,
      "v": 65
    },
    {
      "midi": 68,
      "hit": false,
      "t": 25680,
      "d": 204,
      "v": 65
    },
    {
      "midi": 63,
      "hit": false,
      "t": 25680,
      "d": 1200,
      "v": 120
    },
    {
      "midi": 60,
      "hit": false,
      "t": 25680,
      "d": 1200,
      "v": 120
    },
    {
      "midi": 63,
      "hit": false,
      "t": 25680,
      "d": 192,
      "v": 105
    },
    {
      "midi": 60,
      "hit": false,
      "t": 25680,
      "d": 192,
      "v": 105
    },
    {
      "midi": 42,
      "hit": false,
      "t": 25680,
      "d": 216,
      "v": 100
    },
    {
      "midi": 44,
      "hit": false,
      "t": 25800,
      "d": 108,
      "v": 100
    },
    {
      "midi": 77,
      "hit": false,
      "t": 25900,
      "d": 204,
      "v": 65
    },
    {
      "midi": 68,
      "hit": false,
      "t": 25900,
      "d": 204,
      "v": 65
    },
    {
      "midi": 74,
      "hit": false,
      "t": 25920,
      "d": 192,
      "v": 120
    },
    {
      "midi": 63,
      "hit": false,
      "t": 25920,
      "d": 768,
      "v": 105
    },
    {
      "midi": 60,
      "hit": false,
      "t": 25920,
      "d": 768,
      "v": 105
    },
    {
      "midi": 44,
      "hit": false,
      "t": 25920,
      "d": 108,
      "v": 100
    },
    {
      "midi": 36,
      "hit": false,
      "t": 25920,
      "d": 432,
      "v": 100
    },
    {
      "midi": 44,
      "hit": false,
      "t": 26040,
      "d": 108,
      "v": 100
    },
    {
      "midi": 79,
      "hit": false,
      "t": 26140,
      "d": 204,
      "v": 65
    },
    {
      "midi": 70,
      "hit": false,
      "t": 26140,
      "d": 204,
      "v": 65
    },
    {
      "midi": 75,
      "hit": false,
      "t": 26160,
      "d": 192,
      "v": 120
    },
    {
      "midi": 42,
      "hit": false,
      "t": 26160,
      "d": 216,
      "v": 100
    },
    {
      "midi": 44,
      "hit": false,
      "t": 26280,
      "d": 108,
      "v": 100
    },
    {
      "midi": 75,
      "hit": false,
      "t": 26380,
      "d": 204,
      "v": 65
    },
    {
      "midi": 67,
      "hit": false,
      "t": 26380,
      "d": 204,
      "v": 65
    },
    {
      "midi": 72,
      "hit": false,
      "t": 26400,
      "d": 192,
      "v": 120
    },
    {
      "midi": 44,
      "hit": false,
      "t": 26400,
      "d": 108,
      "v": 100
    },
    {
      "midi": 38,
      "hit": false,
      "t": 26400,
      "d": 432,
      "v": 100
    },
    {
      "midi": 44,
      "hit": false,
      "t": 26520,
      "d": 108,
      "v": 100
    },
    {
      "midi": 77,
      "hit": false,
      "t": 26620,
      "d": 102,
      "v": 65
    },
    {
      "midi": 68,
      "hit": false,
      "t": 26620,
      "d": 102,
      "v": 65
    },
    {
      "midi": 74,
      "hit": false,
      "t": 26640,
      "d": 96,
      "v": 120
    },
    {
      "midi": 46,
      "hit": false,
      "t": 26640,
      "d": 216,
      "v": 100
    },
    {
      "midi": 75,
      "hit": false,
      "t": 26740,
      "d": 528,
      "v": 65
    },
    {
      "midi": 70,
      "hit": false,
      "t": 26760,
      "d": 312,
      "v": 120
    },
    {
      "midi": 67,
      "hit": false,
      "t": 26760,
      "d": 528,
      "v": 70
    },
    {
      "midi": 44,
      "hit": false,
      "t": 26760,
      "d": 108,
      "v": 100
    },
    {
      "midi": 62,
      "hit": false,
      "t": 26880,
      "d": 480,
      "v": 120
    },
    {
      "midi": 58,
      "hit": false,
      "t": 26880,
      "d": 480,
      "v": 120
    },
    {
      "midi": 62,
      "hit": false,
      "t": 26880,
      "d": 288,
      "v": 105
    },
    {
      "midi": 58,
      "hit": false,
      "t": 26880,
      "d": 288,
      "v": 105
    },
    {
      "midi": 31,
      "hit": false,
      "t": 26880,
      "d": 960,
      "v": 120
    },
    {
      "midi": 44,
      "hit": false,
      "t": 26880,
      "d": 108,
      "v": 100
    },
    {
      "midi": 36,
      "hit": false,
      "t": 26880,
      "d": 432,
      "v": 100
    },
    {
      "midi": 44,
      "hit": false,
      "t": 27000,
      "d": 108,
      "v": 100
    },
    {
      "midi": 42,
      "hit": false,
      "t": 27120,
      "d": 216,
      "v": 100
    },
    {
      "midi": 62,
      "hit": false,
      "t": 27240,
      "d": 312,
      "v": 105
    },
    {
      "midi": 58,
      "hit": false,
      "t": 27240,
      "d": 312,
      "v": 105
    },
    {
      "midi": 44,
      "hit": false,
      "t": 27240,
      "d": 108,
      "v": 100
    },
    {
      "midi": 44,
      "hit": false,
      "t": 27360,
      "d": 108,
      "v": 100
    },
    {
      "midi": 38,
      "hit": false,
      "t": 27360,
      "d": 432,
      "v": 100
    },
    {
      "midi": 44,
      "hit": false,
      "t": 27480,
      "d": 108,
      "v": 100
    },
    {
      "midi": 70,
      "hit": false,
      "t": 27600,
      "d": 192,
      "v": 120
    },
    {
      "midi": 63,
      "hit": false,
      "t": 27600,
      "d": 1200,
      "v": 120
    },
    {
      "midi": 58,
      "hit": false,
      "t": 27600,
      "d": 1200,
      "v": 120
    },
    {
      "midi": 62,
      "hit": false,
      "t": 27600,
      "d": 192,
      "v": 105
    },
    {
      "midi": 58,
      "hit": false,
      "t": 27600,
      "d": 192,
      "v": 105
    },
    {
      "midi": 42,
      "hit": false,
      "t": 27600,
      "d": 216,
      "v": 100
    },
    {
      "midi": 44,
      "hit": false,
      "t": 27720,
      "d": 108,
      "v": 100
    },
    {
      "midi": 75,
      "hit": false,
      "t": 27840,
      "d": 192,
      "v": 120
    },
    {
      "midi": 63,
      "hit": false,
      "t": 27840,
      "d": 768,
      "v": 105
    },
    {
      "midi": 58,
      "hit": false,
      "t": 27840,
      "d": 768,
      "v": 105
    },
    {
      "midi": 36,
      "hit": false,
      "t": 27840,
      "d": 960,
      "v": 120
    },
    {
      "midi": 44,
      "hit": false,
      "t": 27840,
      "d": 108,
      "v": 100
    },
    {
      "midi": 36,
      "hit": false,
      "t": 27840,
      "d": 432,
      "v": 100
    },
    {
      "midi": 44,
      "hit": false,
      "t": 27960,
      "d": 108,
      "v": 100
    },
    {
      "midi": 77,
      "hit": false,
      "t": 28080,
      "d": 192,
      "v": 120
    },
    {
      "midi": 42,
      "hit": false,
      "t": 28080,
      "d": 216,
      "v": 100
    },
    {
      "midi": 44,
      "hit": false,
      "t": 28200,
      "d": 108,
      "v": 100
    },
    {
      "midi": 79,
      "hit": false,
      "t": 28320,
      "d": 192,
      "v": 120
    },
    {
      "midi": 44,
      "hit": false,
      "t": 28320,
      "d": 108,
      "v": 100
    },
    {
      "midi": 38,
      "hit": false,
      "t": 28320,
      "d": 432,
      "v": 100
    },
    {
      "midi": 44,
      "hit": false,
      "t": 28440,
      "d": 108,
      "v": 100
    },
    {
      "midi": 80,
      "hit": false,
      "t": 28560,
      "d": 96,
      "v": 120
    },
    {
      "midi": 46,
      "hit": false,
      "t": 28560,
      "d": 216,
      "v": 100
    },
    {
      "midi": 79,
      "hit": false,
      "t": 28680,
      "d": 888,
      "v": 120
    },
    {
      "midi": 44,
      "hit": false,
      "t": 28680,
      "d": 108,
      "v": 100
    },
    {
      "midi": 65,
      "hit": false,
      "t": 28800,
      "d": 480,
      "v": 120
    },
    {
      "midi": 62,
      "hit": false,
      "t": 28800,
      "d": 480,
      "v": 120
    },
    {
      "midi": 65,
      "hit": false,
      "t": 28800,
      "d": 288,
      "v": 105
    },
    {
      "midi": 62,
      "hit": false,
      "t": 28800,
      "d": 288,
      "v": 105
    },
    {
      "midi": 26,
      "hit": false,
      "t": 28800,
      "d": 1920,
      "v": 120
    },
    {
      "midi": 44,
      "hit": false,
      "t": 28800,
      "d": 108,
      "v": 100
    },
    {
      "midi": 36,
      "hit": false,
      "t": 28800,
      "d": 432,
      "v": 100
    },
    {
      "midi": 44,
      "hit": false,
      "t": 28920,
      "d": 108,
      "v": 100
    },
    {
      "midi": 42,
      "hit": false,
      "t": 29040,
      "d": 216,
      "v": 100
    },
    {
      "midi": 65,
      "hit": false,
      "t": 29160,
      "d": 312,
      "v": 105
    },
    {
      "midi": 62,
      "hit": false,
      "t": 29160,
      "d": 312,
      "v": 105
    },
    {
      "midi": 44,
      "hit": false,
      "t": 29160,
      "d": 108,
      "v": 100
    },
    {
      "midi": 65,
      "hit": false,
      "t": 29280,
      "d": 480,
      "v": 85
    },
    {
      "midi": 62,
      "hit": false,
      "t": 29280,
      "d": 480,
      "v": 85
    },
    {
      "midi": 44,
      "hit": false,
      "t": 29280,
      "d": 108,
      "v": 100
    },
    {
      "midi": 38,
      "hit": false,
      "t": 29280,
      "d": 432,
      "v": 100
    },
    {
      "midi": 44,
      "hit": false,
      "t": 29400,
      "d": 108,
      "v": 100
    },
    {
      "midi": 65,
      "hit": false,
      "t": 29520,
      "d": 1200,
      "v": 120
    },
    {
      "midi": 62,
      "hit": false,
      "t": 29520,
      "d": 1200,
      "v": 120
    },
    {
      "midi": 65,
      "hit": false,
      "t": 29520,
      "d": 192,
      "v": 105
    },
    {
      "midi": 62,
      "hit": false,
      "t": 29520,
      "d": 192,
      "v": 105
    },
    {
      "midi": 42,
      "hit": false,
      "t": 29520,
      "d": 216,
      "v": 100
    },
    {
      "midi": 44,
      "hit": false,
      "t": 29640,
      "d": 108,
      "v": 100
    },
    {
      "midi": 69,
      "hit": false,
      "t": 29760,
      "d": 480,
      "v": 85
    },
    {
      "midi": 65,
      "hit": false,
      "t": 29760,
      "d": 480,
      "v": 85
    },
    {
      "midi": 62,
      "hit": false,
      "t": 29760,
      "d": 768,
      "v": 105
    },
    {
      "midi": 65,
      "hit": false,
      "t": 29760,
      "d": 768,
      "v": 105
    },
    {
      "midi": 44,
      "hit": false,
      "t": 29760,
      "d": 108,
      "v": 100
    },
    {
      "midi": 36,
      "hit": false,
      "t": 29760,
      "d": 432,
      "v": 100
    },
    {
      "midi": 44,
      "hit": false,
      "t": 29880,
      "d": 108,
      "v": 100
    },
    {
      "midi": 77,
      "hit": false,
      "t": 30000,
      "d": 192,
      "v": 120
    },
    {
      "midi": 42,
      "hit": false,
      "t": 30000,
      "d": 216,
      "v": 100
    },
    {
      "midi": 44,
      "hit": false,
      "t": 30120,
      "d": 108,
      "v": 100
    },
    {
      "midi": 79,
      "hit": false,
      "t": 30240,
      "d": 192,
      "v": 120
    },
    {
      "midi": 72,
      "hit": false,
      "t": 30240,
      "d": 480,
      "v": 85
    },
    {
      "midi": 69,
      "hit": false,
      "t": 30240,
      "d": 480,
      "v": 85
    },
    {
      "midi": 44,
      "hit": false,
      "t": 30240,
      "d": 108,
      "v": 100
    },
    {
      "midi": 38,
      "hit": false,
      "t": 30240,
      "d": 432,
      "v": 100
    },
    {
      "midi": 44,
      "hit": false,
      "t": 30360,
      "d": 108,
      "v": 100
    },
    {
      "midi": 77,
      "hit": false,
      "t": 30480,
      "d": 96,
      "v": 120
    },
    {
      "midi": 46,
      "hit": false,
      "t": 30480,
      "d": 216,
      "v": 100
    },
    {
      "midi": 79,
      "hit": false,
      "t": 30600,
      "d": 1272,
      "v": 120
    },
    {
      "midi": 44,
      "hit": false,
      "t": 30600,
      "d": 108,
      "v": 100
    },
    {
      "midi": 72,
      "hit": false,
      "t": 30720,
      "d": 960,
      "v": 85
    },
    {
      "midi": 74,
      "hit": false,
      "t": 30720,
      "d": 960,
      "v": 85
    },
    {
      "midi": 67,
      "hit": false,
      "t": 30720,
      "d": 480,
      "v": 120
    },
    {
      "midi": 62,
      "hit": false,
      "t": 30720,
      "d": 480,
      "v": 120
    },
    {
      "midi": 67,
      "hit": false,
      "t": 30720,
      "d": 288,
      "v": 105
    },
    {
      "midi": 62,
      "hit": false,
      "t": 30720,
      "d": 288,
      "v": 105
    },
    {
      "midi": 31,
      "hit": false,
      "t": 30720,
      "d": 960,
      "v": 120
    },
    {
      "midi": 44,
      "hit": false,
      "t": 30720,
      "d": 108,
      "v": 100
    },
    {
      "midi": 36,
      "hit": false,
      "t": 30720,
      "d": 432,
      "v": 100
    },
    {
      "midi": 44,
      "hit": false,
      "t": 30840,
      "d": 108,
      "v": 100
    },
    {
      "midi": 42,
      "hit": false,
      "t": 30960,
      "d": 216,
      "v": 100
    },
    {
      "midi": 67,
      "hit": false,
      "t": 31080,
      "d": 312,
      "v": 105
    },
    {
      "midi": 62,
      "hit": false,
      "t": 31080,
      "d": 312,
      "v": 105
    },
    {
      "midi": 44,
      "hit": false,
      "t": 31080,
      "d": 108,
      "v": 100
    },
    {
      "midi": 44,
      "hit": false,
      "t": 31200,
      "d": 108,
      "v": 100
    },
    {
      "midi": 38,
      "hit": false,
      "t": 31200,
      "d": 432,
      "v": 100
    },
    {
      "midi": 44,
      "hit": false,
      "t": 31320,
      "d": 108,
      "v": 100
    },
    {
      "midi": 67,
      "hit": false,
      "t": 31440,
      "d": 1200,
      "v": 120
    },
    {
      "midi": 62,
      "hit": false,
      "t": 31440,
      "d": 1200,
      "v": 120
    },
    {
      "midi": 67,
      "hit": false,
      "t": 31440,
      "d": 192,
      "v": 105
    },
    {
      "midi": 62,
      "hit": false,
      "t": 31440,
      "d": 192,
      "v": 105
    },
    {
      "midi": 42,
      "hit": false,
      "t": 31440,
      "d": 216,
      "v": 100
    },
    {
      "midi": 44,
      "hit": false,
      "t": 31560,
      "d": 108,
      "v": 100
    },
    {
      "midi": 71,
      "hit": false,
      "t": 31680,
      "d": 960,
      "v": 85
    },
    {
      "midi": 74,
      "hit": false,
      "t": 31680,
      "d": 960,
      "v": 80
    },
    {
      "midi": 62,
      "hit": false,
      "t": 31680,
      "d": 768,
      "v": 105
    },
    {
      "midi": 67,
      "hit": false,
      "t": 31680,
      "d": 768,
      "v": 105
    },
    {
      "midi": 31,
      "hit": false,
      "t": 31680,
      "d": 960,
      "v": 120
    },
    {
      "midi": 44,
      "hit": false,
      "t": 31680,
      "d": 108,
      "v": 100
    },
    {
      "midi": 36,
      "hit": false,
      "t": 31680,
      "d": 432,
      "v": 100
    },
    {
      "midi": 44,
      "hit": false,
      "t": 31800,
      "d": 108,
      "v": 100
    },
    {
      "midi": 42,
      "hit": false,
      "t": 31920,
      "d": 216,
      "v": 100
    },
    {
      "midi": 44,
      "hit": false,
      "t": 32040,
      "d": 108,
      "v": 100
    },
    {
      "midi": 44,
      "hit": false,
      "t": 32160,
      "d": 108,
      "v": 100
    },
    {
      "midi": 38,
      "hit": false,
      "t": 32160,
      "d": 108,
      "v": 100
    },
    {
      "midi": 44,
      "hit": false,
      "t": 32280,
      "d": 108,
      "v": 100
    },
    {
      "midi": 38,
      "hit": false,
      "t": 32280,
      "d": 108,
      "v": 100
    },
    {
      "midi": 72,
      "hit": false,
      "t": 32400,
      "d": 96,
      "v": 120
    },
    {
      "midi": 38,
      "hit": false,
      "t": 32400,
      "d": 108,
      "v": 100
    },
    {
      "midi": 46,
      "hit": false,
      "t": 32400,
      "d": 216,
      "v": 100
    },
    {
      "midi": 74,
      "hit": false,
      "t": 32520,
      "d": 96,
      "v": 120
    },
    {
      "midi": 44,
      "hit": false,
      "t": 32520,
      "d": 108,
      "v": 100
    },
    {
      "midi": 38,
      "hit": false,
      "t": 32520,
      "d": 108,
      "v": 100
    },
    {
      "midi": 75,
      "hit": false,
      "t": 32640,
      "d": 288,
      "v": 120
    },
    {
      "midi": 44,
      "hit": false,
      "t": 32640,
      "d": 1920,
      "v": 120
    },
    {
      "midi": 67,
      "hit": false,
      "t": 32640,
      "d": 288,
      "v": 105
    },
    {
      "midi": 63,
      "hit": false,
      "t": 32640,
      "d": 288,
      "v": 105
    },
    {
      "midi": 32,
      "hit": false,
      "t": 32640,
      "d": 720,
      "v": 120
    },
    {
      "midi": 44,
      "hit": false,
      "t": 32640,
      "d": 108,
      "v": 100
    },
    {
      "midi": 36,
      "hit": false,
      "t": 32640,
      "d": 432,
      "v": 100
    },
    {
      "midi": 44,
      "hit": false,
      "t": 32760,
      "d": 108,
      "v": 100
    },
    {
      "midi": 42,
      "hit": false,
      "t": 32880,
      "d": 216,
      "v": 100
    },
    {
      "midi": 82,
      "hit": false,
      "t": 33000,
      "d": 312,
      "v": 120
    },
    {
      "midi": 67,
      "hit": false,
      "t": 33000,
      "d": 312,
      "v": 105
    },
    {
      "midi": 63,
      "hit": false,
      "t": 33000,
      "d": 312,
      "v": 105
    },
    {
      "midi": 44,
      "hit": false,
      "t": 33000,
      "d": 108,
      "v": 100
    },
    {
      "midi": 44,
      "hit": false,
      "t": 33120,
      "d": 108,
      "v": 100
    },
    {
      "midi": 38,
      "hit": false,
      "t": 33120,
      "d": 432,
      "v": 100
    },
    {
      "midi": 44,
      "hit": false,
      "t": 33240,
      "d": 108,
      "v": 100
    },
    {
      "midi": 74,
      "hit": false,
      "t": 33360,
      "d": 192,
      "v": 120
    },
    {
      "midi": 67,
      "hit": false,
      "t": 33360,
      "d": 192,
      "v": 105
    },
    {
      "midi": 63,
      "hit": false,
      "t": 33360,
      "d": 192,
      "v": 105
    },
    {
      "midi": 32,
      "hit": false,
      "t": 33360,
      "d": 240,
      "v": 120
    },
    {
      "midi": 42,
      "hit": false,
      "t": 33360,
      "d": 216,
      "v": 100
    },
    {
      "midi": 44,
      "hit": false,
      "t": 33480,
      "d": 108,
      "v": 100
    },
    {
      "midi": 75,
      "hit": false,
      "t": 33600,
      "d": 384,
      "v": 120
    },
    {
      "midi": 63,
      "hit": false,
      "t": 33600,
      "d": 768,
      "v": 105
    },
    {
      "midi": 67,
      "hit": false,
      "t": 33600,
      "d": 768,
      "v": 105
    },
    {
      "midi": 32,
      "hit": false,
      "t": 33600,
      "d": 960,
      "v": 120
    },
    {
      "midi": 44,
      "hit": false,
      "t": 33600,
      "d": 108,
      "v": 100
    },
    {
      "midi": 36,
      "hit": false,
      "t": 33600,
      "d": 432,
      "v": 100
    },
    {
      "midi": 44,
      "hit": false,
      "t": 33720,
      "d": 108,
      "v": 100
    },
    {
      "midi": 42,
      "hit": false,
      "t": 33840,
      "d": 216,
      "v": 100
    },
    {
      "midi": 44,
      "hit": false,
      "t": 33960,
      "d": 108,
      "v": 100
    },
    {
      "midi": 44,
      "hit": false,
      "t": 34080,
      "d": 108,
      "v": 100
    },
    {
      "midi": 38,
      "hit": false,
      "t": 34080,
      "d": 432,
      "v": 100
    },
    {
      "midi": 44,
      "hit": false,
      "t": 34200,
      "d": 108,
      "v": 100
    },
    {
      "midi": 75,
      "hit": false,
      "t": 34320,
      "d": 192,
      "v": 120
    },
    {
      "midi": 46,
      "hit": false,
      "t": 34320,
      "d": 216,
      "v": 100
    },
    {
      "midi": 44,
      "hit": false,
      "t": 34440,
      "d": 108,
      "v": 100
    },
    {
      "midi": 82,
      "hit": false,
      "t": 34560,
      "d": 288,
      "v": 120
    },
    {
      "midi": 44,
      "hit": false,
      "t": 34560,
      "d": 960,
      "v": 120
    },
    {
      "midi": 65,
      "hit": false,
      "t": 34560,
      "d": 288,
      "v": 105
    },
    {
      "midi": 62,
      "hit": false,
      "t": 34560,
      "d": 288,
      "v": 105
    },
    {
      "midi": 32,
      "hit": false,
      "t": 34560,
      "d": 360,
      "v": 120
    },
    {
      "midi": 44,
      "hit": false,
      "t": 34560,
      "d": 108,
      "v": 100
    },
    {
      "midi": 36,
      "hit": false,
      "t": 34560,
      "d": 432,
      "v": 100
    },
    {
      "midi": 44,
      "hit": false,
      "t": 34680,
      "d": 108,
      "v": 100
    },
    {
      "midi": 42,
      "hit": false,
      "t": 34800,
      "d": 216,
      "v": 100
    },
    {
      "midi": 80,
      "hit": false,
      "t": 34920,
      "d": 312,
      "v": 120
    },
    {
      "midi": 65,
      "hit": false,
      "t": 34920,
      "d": 312,
      "v": 105
    },
    {
      "midi": 62,
      "hit": false,
      "t": 34920,
      "d": 312,
      "v": 105
    },
    {
      "midi": 32,
      "hit": false,
      "t": 34920,
      "d": 360,
      "v": 120
    },
    {
      "midi": 44,
      "hit": false,
      "t": 34920,
      "d": 108,
      "v": 100
    },
    {
      "midi": 44,
      "hit": false,
      "t": 35040,
      "d": 108,
      "v": 100
    },
    {
      "midi": 38,
      "hit": false,
      "t": 35040,
      "d": 432,
      "v": 100
    },
    {
      "midi": 44,
      "hit": false,
      "t": 35160,
      "d": 108,
      "v": 100
    },
    {
      "midi": 79,
      "hit": false,
      "t": 35280,
      "d": 192,
      "v": 120
    },
    {
      "midi": 65,
      "hit": false,
      "t": 35280,
      "d": 192,
      "v": 105
    },
    {
      "midi": 62,
      "hit": false,
      "t": 35280,
      "d": 192,
      "v": 105
    },
    {
      "midi": 32,
      "hit": false,
      "t": 35280,
      "d": 240,
      "v": 120
    },
    {
      "midi": 42,
      "hit": false,
      "t": 35280,
      "d": 216,
      "v": 100
    },
    {
      "midi": 44,
      "hit": false,
      "t": 35400,
      "d": 108,
      "v": 100
    },
    {
      "midi": 77,
      "hit": false,
      "t": 35520,
      "d": 384,
      "v": 120
    },
    {
      "midi": 47,
      "hit": false,
      "t": 35520,
      "d": 960,
      "v": 120
    },
    {
      "midi": 59,
      "hit": false,
      "t": 35520,
      "d": 768,
      "v": 105
    },
    {
      "midi": 62,
      "hit": false,
      "t": 35520,
      "d": 768,
      "v": 105
    },
    {
      "midi": 35,
      "hit": false,
      "t": 35520,
      "d": 960,
      "v": 120
    },
    {
      "midi": 44,
      "hit": false,
      "t": 35520,
      "d": 108,
      "v": 100
    },
    {
      "midi": 36,
      "hit": false,
      "t": 35520,
      "d": 432,
      "v": 100
    },
    {
      "midi": 44,
      "hit": false,
      "t": 35640,
      "d": 108,
      "v": 100
    },
    {
      "midi": 42,
      "hit": false,
      "t": 35760,
      "d": 216,
      "v": 100
    },
    {
      "midi": 44,
      "hit": false,
      "t": 35880,
      "d": 108,
      "v": 100
    },
    {
      "midi": 44,
      "hit": false,
      "t": 36000,
      "d": 108,
      "v": 100
    },
    {
      "midi": 38,
      "hit": false,
      "t": 36000,
      "d": 432,
      "v": 100
    },
    {
      "midi": 44,
      "hit": false,
      "t": 36120,
      "d": 108,
      "v": 100
    },
    {
      "midi": 75,
      "hit": false,
      "t": 36240,
      "d": 96,
      "v": 120
    },
    {
      "midi": 46,
      "hit": false,
      "t": 36240,
      "d": 216,
      "v": 100
    },
    {
      "midi": 77,
      "hit": false,
      "t": 36360,
      "d": 96,
      "v": 120
    },
    {
      "midi": 44,
      "hit": false,
      "t": 36360,
      "d": 108,
      "v": 100
    },
    {
      "midi": 79,
      "hit": false,
      "t": 36480,
      "d": 384,
      "v": 120
    },
    {
      "midi": 46,
      "hit": false,
      "t": 36480,
      "d": 360,
      "v": 120
    },
    {
      "midi": 63,
      "hit": false,
      "t": 36480,
      "d": 288,
      "v": 105
    },
    {
      "midi": 58,
      "hit": false,
      "t": 36480,
      "d": 288,
      "v": 105
    },
    {
      "midi": 34,
      "hit": false,
      "t": 36480,
      "d": 360,
      "v": 120
    },
    {
      "midi": 44,
      "hit": false,
      "t": 36480,
      "d": 108,
      "v": 100
    },
    {
      "midi": 36,
      "hit": false,
      "t": 36480,
      "d": 432,
      "v": 100
    },
    {
      "midi": 44,
      "hit": false,
      "t": 36600,
      "d": 108,
      "v": 100
    },
    {
      "midi": 42,
      "hit": false,
      "t": 36720,
      "d": 216,
      "v": 100
    },
    {
      "midi": 46,
      "hit": false,
      "t": 36840,
      "d": 360,
      "v": 120
    },
    {
      "midi": 63,
      "hit": false,
      "t": 36840,
      "d": 312,
      "v": 105
    },
    {
      "midi": 58,
      "hit": false,
      "t": 36840,
      "d": 312,
      "v": 105
    },
    {
      "midi": 34,
      "hit": false,
      "t": 36840,
      "d": 360,
      "v": 120
    },
    {
      "midi": 44,
      "hit": false,
      "t": 36840,
      "d": 108,
      "v": 100
    },
    {
      "midi": 44,
      "hit": false,
      "t": 36960,
      "d": 108,
      "v": 100
    },
    {
      "midi": 38,
      "hit": false,
      "t": 36960,
      "d": 432,
      "v": 100
    },
    {
      "midi": 44,
      "hit": false,
      "t": 37080,
      "d": 108,
      "v": 100
    },
    {
      "midi": 79,
      "hit": false,
      "t": 37200,
      "d": 192,
      "v": 120
    },
    {
      "midi": 46,
      "hit": false,
      "t": 37200,
      "d": 240,
      "v": 120
    },
    {
      "midi": 63,
      "hit": false,
      "t": 37200,
      "d": 192,
      "v": 105
    },
    {
      "midi": 58,
      "hit": false,
      "t": 37200,
      "d": 192,
      "v": 105
    },
    {
      "midi": 34,
      "hit": false,
      "t": 37200,
      "d": 240,
      "v": 120
    },
    {
      "midi": 42,
      "hit": false,
      "t": 37200,
      "d": 216,
      "v": 100
    },
    {
      "midi": 44,
      "hit": false,
      "t": 37320,
      "d": 108,
      "v": 100
    },
    {
      "midi": 80,
      "hit": false,
      "t": 37440,
      "d": 192,
      "v": 120
    },
    {
      "midi": 47,
      "hit": false,
      "t": 37440,
      "d": 960,
      "v": 120
    },
    {
      "midi": 59,
      "hit": false,
      "t": 37440,
      "d": 768,
      "v": 105
    },
    {
      "midi": 62,
      "hit": false,
      "t": 37440,
      "d": 768,
      "v": 105
    },
    {
      "midi": 35,
      "hit": false,
      "t": 37440,
      "d": 960,
      "v": 120
    },
    {
      "midi": 44,
      "hit": false,
      "t": 37440,
      "d": 108,
      "v": 100
    },
    {
      "midi": 36,
      "hit": false,
      "t": 37440,
      "d": 432,
      "v": 100
    },
    {
      "midi": 44,
      "hit": false,
      "t": 37560,
      "d": 108,
      "v": 100
    },
    {
      "midi": 79,
      "hit": false,
      "t": 37680,
      "d": 192,
      "v": 120
    },
    {
      "midi": 42,
      "hit": false,
      "t": 37680,
      "d": 216,
      "v": 100
    },
    {
      "midi": 44,
      "hit": false,
      "t": 37800,
      "d": 108,
      "v": 100
    },
    {
      "midi": 74,
      "hit": false,
      "t": 37920,
      "d": 192,
      "v": 120
    },
    {
      "midi": 44,
      "hit": false,
      "t": 37920,
      "d": 108,
      "v": 100
    },
    {
      "midi": 38,
      "hit": false,
      "t": 37920,
      "d": 432,
      "v": 100
    },
    {
      "midi": 44,
      "hit": false,
      "t": 38040,
      "d": 108,
      "v": 100
    },
    {
      "midi": 75,
      "hit": false,
      "t": 38160,
      "d": 192,
      "v": 120
    },
    {
      "midi": 46,
      "hit": false,
      "t": 38160,
      "d": 216,
      "v": 100
    },
    {
      "midi": 44,
      "hit": false,
      "t": 38280,
      "d": 108,
      "v": 100
    },
    {
      "midi": 77,
      "hit": false,
      "t": 38400,
      "d": 576,
      "v": 120
    },
    {
      "midi": 48,
      "hit": false,
      "t": 38400,
      "d": 360,
      "v": 120
    },
    {
      "midi": 65,
      "hit": false,
      "t": 38400,
      "d": 288,
      "v": 105
    },
    {
      "midi": 62,
      "hit": false,
      "t": 38400,
      "d": 288,
      "v": 105
    },
    {
      "midi": 36,
      "hit": false,
      "t": 38400,
      "d": 360,
      "v": 120
    },
    {
      "midi": 44,
      "hit": false,
      "t": 38400,
      "d": 108,
      "v": 100
    },
    {
      "midi": 36,
      "hit": false,
      "t": 38400,
      "d": 432,
      "v": 100
    },
    {
      "midi": 44,
      "hit": false,
      "t": 38520,
      "d": 108,
      "v": 100
    },
    {
      "midi": 42,
      "hit": false,
      "t": 38640,
      "d": 216,
      "v": 100
    },
    {
      "midi": 48,
      "hit": false,
      "t": 38760,
      "d": 360,
      "v": 120
    },
    {
      "midi": 65,
      "hit": false,
      "t": 38760,
      "d": 312,
      "v": 105
    },
    {
      "midi": 62,
      "hit": false,
      "t": 38760,
      "d": 312,
      "v": 105
    },
    {
      "midi": 36,
      "hit": false,
      "t": 38760,
      "d": 360,
      "v": 120
    },
    {
      "midi": 44,
      "hit": false,
      "t": 38760,
      "d": 108,
      "v": 100
    },
    {
      "midi": 44,
      "hit": false,
      "t": 38880,
      "d": 108,
      "v": 100
    },
    {
      "midi": 38,
      "hit": false,
      "t": 38880,
      "d": 432,
      "v": 100
    },
    {
      "midi": 44,
      "hit": false,
      "t": 39000,
      "d": 108,
      "v": 100
    },
    {
      "midi": 75,
      "hit": false,
      "t": 39120,
      "d": 96,
      "v": 120
    },
    {
      "midi": 48,
      "hit": false,
      "t": 39120,
      "d": 240,
      "v": 120
    },
    {
      "midi": 65,
      "hit": false,
      "t": 39120,
      "d": 192,
      "v": 105
    },
    {
      "midi": 62,
      "hit": false,
      "t": 39120,
      "d": 192,
      "v": 105
    },
    {
      "midi": 36,
      "hit": false,
      "t": 39120,
      "d": 240,
      "v": 120
    },
    {
      "midi": 42,
      "hit": false,
      "t": 39120,
      "d": 216,
      "v": 100
    },
    {
      "midi": 74,
      "hit": false,
      "t": 39240,
      "d": 96,
      "v": 120
    },
    {
      "midi": 44,
      "hit": false,
      "t": 39240,
      "d": 108,
      "v": 100
    },
    {
      "midi": 75,
      "hit": false,
      "t": 39360,
      "d": 384,
      "v": 120
    },
    {
      "midi": 47,
      "hit": false,
      "t": 39360,
      "d": 960,
      "v": 120
    },
    {
      "midi": 59,
      "hit": false,
      "t": 39360,
      "d": 768,
      "v": 105
    },
    {
      "midi": 63,
      "hit": false,
      "t": 39360,
      "d": 768,
      "v": 105
    },
    {
      "midi": 35,
      "hit": false,
      "t": 39360,
      "d": 960,
      "v": 120
    },
    {
      "midi": 44,
      "hit": false,
      "t": 39360,
      "d": 108,
      "v": 100
    },
    {
      "midi": 36,
      "hit": false,
      "t": 39360,
      "d": 432,
      "v": 100
    },
    {
      "midi": 44,
      "hit": false,
      "t": 39480,
      "d": 108,
      "v": 100
    },
    {
      "midi": 42,
      "hit": false,
      "t": 39600,
      "d": 216,
      "v": 100
    },
    {
      "midi": 44,
      "hit": false,
      "t": 39720,
      "d": 108,
      "v": 100
    },
    {
      "midi": 44,
      "hit": false,
      "t": 39840,
      "d": 108,
      "v": 100
    },
    {
      "midi": 38,
      "hit": false,
      "t": 39840,
      "d": 432,
      "v": 100
    },
    {
      "midi": 44,
      "hit": false,
      "t": 39960,
      "d": 108,
      "v": 100
    },
    {
      "midi": 71,
      "hit": false,
      "t": 40080,
      "d": 192,
      "v": 120
    },
    {
      "midi": 46,
      "hit": false,
      "t": 40080,
      "d": 216,
      "v": 100
    },
    {
      "midi": 44,
      "hit": false,
      "t": 40200,
      "d": 108,
      "v": 100
    },
    {
      "midi": 70,
      "hit": false,
      "t": 40320,
      "d": 384,
      "v": 120
    },
    {
      "midi": 46,
      "hit": false,
      "t": 40320,
      "d": 360,
      "v": 120
    },
    {
      "midi": 63,
      "hit": false,
      "t": 40320,
      "d": 288,
      "v": 105
    },
    {
      "midi": 58,
      "hit": false,
      "t": 40320,
      "d": 288,
      "v": 105
    },
    {
      "midi": 34,
      "hit": false,
      "t": 40320,
      "d": 360,
      "v": 120
    },
    {
      "midi": 44,
      "hit": false,
      "t": 40320,
      "d": 108,
      "v": 100
    },
    {
      "midi": 36,
      "hit": false,
      "t": 40320,
      "d": 432,
      "v": 100
    },
    {
      "midi": 44,
      "hit": false,
      "t": 40440,
      "d": 108,
      "v": 100
    },
    {
      "midi": 42,
      "hit": false,
      "t": 40560,
      "d": 216,
      "v": 100
    },
    {
      "midi": 46,
      "hit": false,
      "t": 40680,
      "d": 360,
      "v": 120
    },
    {
      "midi": 63,
      "hit": false,
      "t": 40680,
      "d": 312,
      "v": 105
    },
    {
      "midi": 58,
      "hit": false,
      "t": 40680,
      "d": 312,
      "v": 105
    },
    {
      "midi": 34,
      "hit": false,
      "t": 40680,
      "d": 360,
      "v": 120
    },
    {
      "midi": 44,
      "hit": false,
      "t": 40680,
      "d": 108,
      "v": 100
    },
    {
      "midi": 44,
      "hit": false,
      "t": 40800,
      "d": 108,
      "v": 100
    },
    {
      "midi": 38,
      "hit": false,
      "t": 40800,
      "d": 432,
      "v": 100
    },
    {
      "midi": 44,
      "hit": false,
      "t": 40920,
      "d": 108,
      "v": 100
    },
    {
      "midi": 74,
      "hit": false,
      "t": 41040,
      "d": 96,
      "v": 120
    },
    {
      "midi": 46,
      "hit": false,
      "t": 41040,
      "d": 240,
      "v": 120
    },
    {
      "midi": 63,
      "hit": false,
      "t": 41040,
      "d": 192,
      "v": 105
    },
    {
      "midi": 58,
      "hit": false,
      "t": 41040,
      "d": 192,
      "v": 105
    },
    {
      "midi": 34,
      "hit": false,
      "t": 41040,
      "d": 240,
      "v": 120
    },
    {
      "midi": 42,
      "hit": false,
      "t": 41040,
      "d": 216,
      "v": 100
    },
    {
      "midi": 75,
      "hit": false,
      "t": 41160,
      "d": 504,
      "v": 120
    },
    {
      "midi": 44,
      "hit": false,
      "t": 41160,
      "d": 108,
      "v": 100
    },
    {
      "midi": 46,
      "hit": false,
      "t": 41280,
      "d": 960,
      "v": 120
    },
    {
      "midi": 58,
      "hit": false,
      "t": 41280,
      "d": 768,
      "v": 105
    },
    {
      "midi": 63,
      "hit": false,
      "t": 41280,
      "d": 768,
      "v": 105
    },
    {
      "midi": 34,
      "hit": false,
      "t": 41280,
      "d": 960,
      "v": 120
    },
    {
      "midi": 44,
      "hit": false,
      "t": 41280,
      "d": 108,
      "v": 100
    },
    {
      "midi": 36,
      "hit": false,
      "t": 41280,
      "d": 432,
      "v": 100
    },
    {
      "midi": 44,
      "hit": false,
      "t": 41400,
      "d": 108,
      "v": 100
    },
    {
      "midi": 42,
      "hit": false,
      "t": 41520,
      "d": 216,
      "v": 100
    },
    {
      "midi": 44,
      "hit": false,
      "t": 41640,
      "d": 108,
      "v": 100
    },
    {
      "midi": 44,
      "hit": false,
      "t": 41760,
      "d": 108,
      "v": 100
    },
    {
      "midi": 38,
      "hit": false,
      "t": 41760,
      "d": 432,
      "v": 100
    },
    {
      "midi": 44,
      "hit": false,
      "t": 41880,
      "d": 108,
      "v": 100
    },
    {
      "midi": 77,
      "hit": false,
      "t": 42000,
      "d": 96,
      "v": 120
    },
    {
      "midi": 46,
      "hit": false,
      "t": 42000,
      "d": 216,
      "v": 100
    },
    {
      "midi": 77,
      "hit": false,
      "t": 42120,
      "d": 99,
      "v": 120
    },
    {
      "midi": 44,
      "hit": false,
      "t": 42120,
      "d": 108,
      "v": 100
    },
    {
      "midi": 79,
      "hit": false,
      "t": 42240,
      "d": 384,
      "v": 120
    },
    {
      "midi": 44,
      "hit": false,
      "t": 42240,
      "d": 360,
      "v": 120
    },
    {
      "midi": 60,
      "hit": false,
      "t": 42240,
      "d": 288,
      "v": 105
    },
    {
      "midi": 55,
      "hit": false,
      "t": 42240,
      "d": 288,
      "v": 105
    },
    {
      "midi": 32,
      "hit": false,
      "t": 42240,
      "d": 360,
      "v": 120
    },
    {
      "midi": 44,
      "hit": false,
      "t": 42240,
      "d": 108,
      "v": 100
    },
    {
      "midi": 36,
      "hit": false,
      "t": 42240,
      "d": 432,
      "v": 100
    },
    {
      "midi": 44,
      "hit": false,
      "t": 42360,
      "d": 108,
      "v": 100
    },
    {
      "midi": 42,
      "hit": false,
      "t": 42480,
      "d": 216,
      "v": 100
    },
    {
      "midi": 44,
      "hit": false,
      "t": 42600,
      "d": 360,
      "v": 120
    },
    {
      "midi": 60,
      "hit": false,
      "t": 42600,
      "d": 312,
      "v": 105
    },
    {
      "midi": 55,
      "hit": false,
      "t": 42600,
      "d": 312,
      "v": 105
    },
    {
      "midi": 32,
      "hit": false,
      "t": 42600,
      "d": 360,
      "v": 120
    },
    {
      "midi": 44,
      "hit": false,
      "t": 42600,
      "d": 108,
      "v": 100
    },
    {
      "midi": 79,
      "hit": false,
      "t": 42720,
      "d": 192,
      "v": 120
    },
    {
      "midi": 44,
      "hit": false,
      "t": 42720,
      "d": 108,
      "v": 100
    },
    {
      "midi": 38,
      "hit": false,
      "t": 42720,
      "d": 432,
      "v": 100
    },
    {
      "midi": 44,
      "hit": false,
      "t": 42840,
      "d": 108,
      "v": 100
    },
    {
      "midi": 80,
      "hit": false,
      "t": 42960,
      "d": 192,
      "v": 120
    },
    {
      "midi": 44,
      "hit": false,
      "t": 42960,
      "d": 240,
      "v": 120
    },
    {
      "midi": 60,
      "hit": false,
      "t": 42960,
      "d": 192,
      "v": 105
    },
    {
      "midi": 55,
      "hit": false,
      "t": 42960,
      "d": 192,
      "v": 105
    },
    {
      "midi": 32,
      "hit": false,
      "t": 42960,
      "d": 240,
      "v": 120
    },
    {
      "midi": 42,
      "hit": false,
      "t": 42960,
      "d": 216,
      "v": 100
    },
    {
      "midi": 44,
      "hit": false,
      "t": 43080,
      "d": 108,
      "v": 100
    },
    {
      "midi": 79,
      "hit": false,
      "t": 43200,
      "d": 192,
      "v": 120
    },
    {
      "midi": 44,
      "hit": false,
      "t": 43200,
      "d": 960,
      "v": 120
    },
    {
      "midi": 55,
      "hit": false,
      "t": 43200,
      "d": 768,
      "v": 105
    },
    {
      "midi": 60,
      "hit": false,
      "t": 43200,
      "d": 768,
      "v": 105
    },
    {
      "midi": 32,
      "hit": false,
      "t": 43200,
      "d": 720,
      "v": 120
    },
    {
      "midi": 44,
      "hit": false,
      "t": 43200,
      "d": 108,
      "v": 100
    },
    {
      "midi": 36,
      "hit": false,
      "t": 43200,
      "d": 432,
      "v": 100
    },
    {
      "midi": 44,
      "hit": false,
      "t": 43320,
      "d": 108,
      "v": 100
    },
    {
      "midi": 72,
      "hit": false,
      "t": 43440,
      "d": 96,
      "v": 120
    },
    {
      "midi": 42,
      "hit": false,
      "t": 43440,
      "d": 216,
      "v": 100
    },
    {
      "midi": 72,
      "hit": false,
      "t": 43560,
      "d": 312,
      "v": 120
    },
    {
      "midi": 44,
      "hit": false,
      "t": 43560,
      "d": 108,
      "v": 100
    },
    {
      "midi": 44,
      "hit": false,
      "t": 43680,
      "d": 108,
      "v": 100
    },
    {
      "midi": 38,
      "hit": false,
      "t": 43680,
      "d": 432,
      "v": 100
    },
    {
      "midi": 44,
      "hit": false,
      "t": 43800,
      "d": 108,
      "v": 100
    },
    {
      "midi": 75,
      "hit": false,
      "t": 43920,
      "d": 96,
      "v": 120
    },
    {
      "midi": 31,
      "hit": false,
      "t": 43920,
      "d": 120,
      "v": 120
    },
    {
      "midi": 46,
      "hit": false,
      "t": 43920,
      "d": 216,
      "v": 100
    },
    {
      "midi": 77,
      "hit": false,
      "t": 44040,
      "d": 96,
      "v": 120
    },
    {
      "midi": 30,
      "hit": false,
      "t": 44040,
      "d": 120,
      "v": 120
    },
    {
      "midi": 44,
      "hit": false,
      "t": 44040,
      "d": 108,
      "v": 100
    },
    {
      "midi": 79,
      "hit": false,
      "t": 44160,
      "d": 384,
      "v": 120
    },
    {
      "midi": 41,
      "hit": false,
      "t": 44160,
      "d": 360,
      "v": 120
    },
    {
      "midi": 60,
      "hit": false,
      "t": 44160,
      "d": 288,
      "v": 105
    },
    {
      "midi": 55,
      "hit": false,
      "t": 44160,
      "d": 288,
      "v": 105
    },
    {
      "midi": 29,
      "hit": false,
      "t": 44160,
      "d": 360,
      "v": 120
    },
    {
      "midi": 44,
      "hit": false,
      "t": 44160,
      "d": 108,
      "v": 100
    },
    {
      "midi": 36,
      "hit": false,
      "t": 44160,
      "d": 432,
      "v": 100
    },
    {
      "midi": 44,
      "hit": false,
      "t": 44280,
      "d": 108,
      "v": 100
    },
    {
      "midi": 42,
      "hit": false,
      "t": 44400,
      "d": 216,
      "v": 100
    },
    {
      "midi": 41,
      "hit": false,
      "t": 44520,
      "d": 360,
      "v": 120
    },
    {
      "midi": 60,
      "hit": false,
      "t": 44520,
      "d": 312,
      "v": 105
    },
    {
      "midi": 55,
      "hit": false,
      "t": 44520,
      "d": 312,
      "v": 105
    },
    {
      "midi": 29,
      "hit": false,
      "t": 44520,
      "d": 360,
      "v": 120
    },
    {
      "midi": 44,
      "hit": false,
      "t": 44520,
      "d": 108,
      "v": 100
    },
    {
      "midi": 79,
      "hit": false,
      "t": 44640,
      "d": 192,
      "v": 120
    },
    {
      "midi": 44,
      "hit": false,
      "t": 44640,
      "d": 108,
      "v": 100
    },
    {
      "midi": 38,
      "hit": false,
      "t": 44640,
      "d": 432,
      "v": 100
    },
    {
      "midi": 44,
      "hit": false,
      "t": 44760,
      "d": 108,
      "v": 100
    },
    {
      "midi": 80,
      "hit": false,
      "t": 44880,
      "d": 192,
      "v": 120
    },
    {
      "midi": 41,
      "hit": false,
      "t": 44880,
      "d": 240,
      "v": 120
    },
    {
      "midi": 60,
      "hit": false,
      "t": 44880,
      "d": 192,
      "v": 105
    },
    {
      "midi": 55,
      "hit": false,
      "t": 44880,
      "d": 192,
      "v": 105
    },
    {
      "midi": 29,
      "hit": false,
      "t": 44880,
      "d": 240,
      "v": 120
    },
    {
      "midi": 42,
      "hit": false,
      "t": 44880,
      "d": 216,
      "v": 100
    },
    {
      "midi": 44,
      "hit": false,
      "t": 45000,
      "d": 108,
      "v": 100
    },
    {
      "midi": 79,
      "hit": false,
      "t": 45120,
      "d": 192,
      "v": 120
    },
    {
      "midi": 41,
      "hit": false,
      "t": 45120,
      "d": 960,
      "v": 120
    },
    {
      "midi": 55,
      "hit": false,
      "t": 45120,
      "d": 768,
      "v": 105
    },
    {
      "midi": 60,
      "hit": false,
      "t": 45120,
      "d": 768,
      "v": 105
    },
    {
      "midi": 29,
      "hit": false,
      "t": 45120,
      "d": 720,
      "v": 120
    },
    {
      "midi": 44,
      "hit": false,
      "t": 45120,
      "d": 108,
      "v": 100
    },
    {
      "midi": 36,
      "hit": false,
      "t": 45120,
      "d": 432,
      "v": 100
    },
    {
      "midi": 44,
      "hit": false,
      "t": 45240,
      "d": 108,
      "v": 100
    },
    {
      "midi": 72,
      "hit": false,
      "t": 45360,
      "d": 96,
      "v": 120
    },
    {
      "midi": 42,
      "hit": false,
      "t": 45360,
      "d": 216,
      "v": 100
    },
    {
      "midi": 72,
      "hit": false,
      "t": 45480,
      "d": 312,
      "v": 120
    },
    {
      "midi": 44,
      "hit": false,
      "t": 45480,
      "d": 108,
      "v": 100
    },
    {
      "midi": 44,
      "hit": false,
      "t": 45600,
      "d": 108,
      "v": 100
    },
    {
      "midi": 38,
      "hit": false,
      "t": 45600,
      "d": 432,
      "v": 100
    },
    {
      "midi": 44,
      "hit": false,
      "t": 45720,
      "d": 108,
      "v": 100
    },
    {
      "midi": 75,
      "hit": false,
      "t": 45840,
      "d": 96,
      "v": 120
    },
    {
      "midi": 27,
      "hit": false,
      "t": 45840,
      "d": 120,
      "v": 120
    },
    {
      "midi": 46,
      "hit": false,
      "t": 45840,
      "d": 216,
      "v": 100
    },
    {
      "midi": 77,
      "hit": false,
      "t": 45960,
      "d": 96,
      "v": 120
    },
    {
      "midi": 26,
      "hit": false,
      "t": 45960,
      "d": 120,
      "v": 120
    },
    {
      "midi": 44,
      "hit": false,
      "t": 45960,
      "d": 108,
      "v": 100
    },
    {
      "midi": 79,
      "hit": false,
      "t": 46080,
      "d": 384,
      "v": 120
    },
    {
      "midi": 79,
      "hit": false,
      "t": 46080,
      "d": 1920,
      "v": 100
    },
    {
      "midi": 72,
      "hit": false,
      "t": 46080,
      "d": 1920,
      "v": 100
    },
    {
      "midi": 75,
      "hit": false,
      "t": 46080,
      "d": 1920,
      "v": 100
    },
    {
      "midi": 37,
      "hit": false,
      "t": 46080,
      "d": 360,
      "v": 120
    },
    {
      "midi": 60,
      "hit": false,
      "t": 46080,
      "d": 288,
      "v": 105
    },
    {
      "midi": 55,
      "hit": false,
      "t": 46080,
      "d": 288,
      "v": 105
    },
    {
      "midi": 25,
      "hit": false,
      "t": 46080,
      "d": 360,
      "v": 120
    },
    {
      "midi": 44,
      "hit": false,
      "t": 46080,
      "d": 108,
      "v": 100
    },
    {
      "midi": 36,
      "hit": false,
      "t": 46080,
      "d": 432,
      "v": 100
    },
    {
      "midi": 44,
      "hit": false,
      "t": 46200,
      "d": 108,
      "v": 100
    },
    {
      "midi": 42,
      "hit": false,
      "t": 46320,
      "d": 216,
      "v": 100
    },
    {
      "midi": 37,
      "hit": false,
      "t": 46440,
      "d": 360,
      "v": 120
    },
    {
      "midi": 60,
      "hit": false,
      "t": 46440,
      "d": 312,
      "v": 105
    },
    {
      "midi": 55,
      "hit": false,
      "t": 46440,
      "d": 312,
      "v": 105
    },
    {
      "midi": 25,
      "hit": false,
      "t": 46440,
      "d": 360,
      "v": 120
    },
    {
      "midi": 44,
      "hit": false,
      "t": 46440,
      "d": 108,
      "v": 100
    },
    {
      "midi": 79,
      "hit": false,
      "t": 46560,
      "d": 192,
      "v": 120
    },
    {
      "midi": 44,
      "hit": false,
      "t": 46560,
      "d": 108,
      "v": 100
    },
    {
      "midi": 38,
      "hit": false,
      "t": 46560,
      "d": 432,
      "v": 100
    },
    {
      "midi": 44,
      "hit": false,
      "t": 46680,
      "d": 108,
      "v": 100
    },
    {
      "midi": 80,
      "hit": false,
      "t": 46800,
      "d": 192,
      "v": 120
    },
    {
      "midi": 37,
      "hit": false,
      "t": 46800,
      "d": 240,
      "v": 120
    },
    {
      "midi": 60,
      "hit": false,
      "t": 46800,
      "d": 192,
      "v": 105
    },
    {
      "midi": 55,
      "hit": false,
      "t": 46800,
      "d": 192,
      "v": 105
    },
    {
      "midi": 25,
      "hit": false,
      "t": 46800,
      "d": 240,
      "v": 120
    },
    {
      "midi": 42,
      "hit": false,
      "t": 46800,
      "d": 216,
      "v": 100
    },
    {
      "midi": 44,
      "hit": false,
      "t": 46920,
      "d": 108,
      "v": 100
    },
    {
      "midi": 79,
      "hit": false,
      "t": 47040,
      "d": 192,
      "v": 120
    },
    {
      "midi": 37,
      "hit": false,
      "t": 47040,
      "d": 960,
      "v": 120
    },
    {
      "midi": 55,
      "hit": false,
      "t": 47040,
      "d": 768,
      "v": 105
    },
    {
      "midi": 60,
      "hit": false,
      "t": 47040,
      "d": 768,
      "v": 105
    },
    {
      "midi": 25,
      "hit": false,
      "t": 47040,
      "d": 960,
      "v": 120
    },
    {
      "midi": 44,
      "hit": false,
      "t": 47040,
      "d": 108,
      "v": 100
    },
    {
      "midi": 36,
      "hit": false,
      "t": 47040,
      "d": 432,
      "v": 100
    },
    {
      "midi": 44,
      "hit": false,
      "t": 47160,
      "d": 108,
      "v": 100
    },
    {
      "midi": 77,
      "hit": false,
      "t": 47280,
      "d": 192,
      "v": 120
    },
    {
      "midi": 42,
      "hit": false,
      "t": 47280,
      "d": 216,
      "v": 100
    },
    {
      "midi": 44,
      "hit": false,
      "t": 47400,
      "d": 108,
      "v": 100
    },
    {
      "midi": 75,
      "hit": false,
      "t": 47520,
      "d": 192,
      "v": 120
    },
    {
      "midi": 44,
      "hit": false,
      "t": 47520,
      "d": 108,
      "v": 100
    },
    {
      "midi": 38,
      "hit": false,
      "t": 47520,
      "d": 432,
      "v": 100
    },
    {
      "midi": 44,
      "hit": false,
      "t": 47640,
      "d": 108,
      "v": 100
    },
    {
      "midi": 77,
      "hit": false,
      "t": 47760,
      "d": 96,
      "v": 120
    },
    {
      "midi": 46,
      "hit": false,
      "t": 47760,
      "d": 216,
      "v": 100
    },
    {
      "midi": 77,
      "hit": false,
      "t": 47880,
      "d": 121,
      "v": 120
    },
    {
      "midi": 44,
      "hit": false,
      "t": 47880,
      "d": 108,
      "v": 100
    },
    {
      "midi": 82,
      "hit": false,
      "t": 48000,
      "d": 1920,
      "v": 100
    },
    {
      "midi": 77,
      "hit": false,
      "t": 48000,
      "d": 1920,
      "v": 100
    },
    {
      "midi": 74,
      "hit": false,
      "t": 48000,
      "d": 1920,
      "v": 100
    },
    {
      "midi": 53,
      "hit": false,
      "t": 48000,
      "d": 320,
      "v": 120
    },
    {
      "midi": 65,
      "hit": false,
      "t": 48000,
      "d": 288,
      "v": 105
    },
    {
      "midi": 62,
      "hit": false,
      "t": 48000,
      "d": 288,
      "v": 105
    },
    {
      "midi": 34,
      "hit": false,
      "t": 48000,
      "d": 360,
      "v": 120
    },
    {
      "midi": 44,
      "hit": false,
      "t": 48000,
      "d": 108,
      "v": 100
    },
    {
      "midi": 36,
      "hit": false,
      "t": 48000,
      "d": 432,
      "v": 100
    },
    {
      "midi": 44,
      "hit": false,
      "t": 48120,
      "d": 108,
      "v": 100
    },
    {
      "midi": 42,
      "hit": false,
      "t": 48240,
      "d": 216,
      "v": 100
    },
    {
      "midi": 58,
      "hit": false,
      "t": 48320,
      "d": 320,
      "v": 120
    },
    {
      "midi": 65,
      "hit": false,
      "t": 48360,
      "d": 312,
      "v": 105
    },
    {
      "midi": 62,
      "hit": false,
      "t": 48360,
      "d": 312,
      "v": 105
    },
    {
      "midi": 34,
      "hit": false,
      "t": 48360,
      "d": 360,
      "v": 120
    },
    {
      "midi": 44,
      "hit": false,
      "t": 48360,
      "d": 108,
      "v": 100
    },
    {
      "midi": 44,
      "hit": false,
      "t": 48480,
      "d": 108,
      "v": 100
    },
    {
      "midi": 38,
      "hit": false,
      "t": 48480,
      "d": 432,
      "v": 100
    },
    {
      "midi": 44,
      "hit": false,
      "t": 48600,
      "d": 108,
      "v": 100
    },
    {
      "midi": 63,
      "hit": false,
      "t": 48640,
      "d": 320,
      "v": 120
    },
    {
      "midi": 65,
      "hit": false,
      "t": 48720,
      "d": 192,
      "v": 105
    },
    {
      "midi": 62,
      "hit": false,
      "t": 48720,
      "d": 192,
      "v": 105
    },
    {
      "midi": 34,
      "hit": false,
      "t": 48720,
      "d": 240,
      "v": 120
    },
    {
      "midi": 42,
      "hit": false,
      "t": 48720,
      "d": 216,
      "v": 100
    },
    {
      "midi": 44,
      "hit": false,
      "t": 48840,
      "d": 108,
      "v": 100
    },
    {
      "midi": 62,
      "hit": false,
      "t": 48960,
      "d": 720,
      "v": 120
    },
    {
      "midi": 62,
      "hit": false,
      "t": 48960,
      "d": 768,
      "v": 105
    },
    {
      "midi": 65,
      "hit": false,
      "t": 48960,
      "d": 768,
      "v": 100
    },
    {
      "midi": 34,
      "hit": false,
      "t": 48960,
      "d": 480,
      "v": 120
    },
    {
      "midi": 44,
      "hit": false,
      "t": 48960,
      "d": 108,
      "v": 100
    },
    {
      "midi": 36,
      "hit": false,
      "t": 48960,
      "d": 432,
      "v": 100
    },
    {
      "midi": 44,
      "hit": false,
      "t": 49080,
      "d": 108,
      "v": 100
    },
    {
      "midi": 58,
      "hit": false,
      "t": 49200,
      "d": 720,
      "v": 120
    },
    {
      "midi": 42,
      "hit": false,
      "t": 49200,
      "d": 216,
      "v": 100
    },
    {
      "midi": 44,
      "hit": false,
      "t": 49320,
      "d": 108,
      "v": 100
    },
    {
      "midi": 53,
      "hit": false,
      "t": 49440,
      "d": 480,
      "v": 120
    },
    {
      "midi": 34,
      "hit": false,
      "t": 49440,
      "d": 240,
      "v": 120
    },
    {
      "midi": 44,
      "hit": false,
      "t": 49440,
      "d": 108,
      "v": 100
    },
    {
      "midi": 38,
      "hit": false,
      "t": 49440,
      "d": 432,
      "v": 100
    },
    {
      "midi": 44,
      "hit": false,
      "t": 49560,
      "d": 108,
      "v": 100
    },
    {
      "midi": 34,
      "hit": false,
      "t": 49680,
      "d": 240,
      "v": 120
    },
    {
      "midi": 46,
      "hit": false,
      "t": 49680,
      "d": 216,
      "v": 100
    },
    {
      "midi": 44,
      "hit": false,
      "t": 49800,
      "d": 108,
      "v": 100
    },
    {
      "midi": 80,
      "hit": false,
      "t": 49920,
      "d": 480,
      "v": 110
    },
    {
      "midi": 74,
      "hit": false,
      "t": 49920,
      "d": 480,
      "v": 110
    },
    {
      "midi": 77,
      "hit": false,
      "t": 49920,
      "d": 480,
      "v": 110
    },
    {
      "midi": 50,
      "hit": false,
      "t": 49920,
      "d": 480,
      "v": 120
    },
    {
      "midi": 38,
      "hit": false,
      "t": 49920,
      "d": 480,
      "v": 120
    },
    {
      "midi": 44,
      "hit": false,
      "t": 49920,
      "d": 108,
      "v": 100
    },
    {
      "midi": 36,
      "hit": false,
      "t": 49920,
      "d": 432,
      "v": 100
    },
    {
      "midi": 44,
      "hit": false,
      "t": 50040,
      "d": 108,
      "v": 100
    },
    {
      "midi": 42,
      "hit": false,
      "t": 50160,
      "d": 216,
      "v": 100
    },
    {
      "midi": 44,
      "hit": false,
      "t": 50280,
      "d": 108,
      "v": 100
    },
    {
      "midi": 79,
      "hit": false,
      "t": 50400,
      "d": 480,
      "v": 110
    },
    {
      "midi": 74,
      "hit": false,
      "t": 50400,
      "d": 480,
      "v": 110
    },
    {
      "midi": 77,
      "hit": false,
      "t": 50400,
      "d": 480,
      "v": 110
    },
    {
      "midi": 62,
      "hit": false,
      "t": 50400,
      "d": 480,
      "v": 120
    },
    {
      "midi": 38,
      "hit": false,
      "t": 50400,
      "d": 480,
      "v": 120
    },
    {
      "midi": 44,
      "hit": false,
      "t": 50400,
      "d": 108,
      "v": 100
    },
    {
      "midi": 38,
      "hit": false,
      "t": 50400,
      "d": 432,
      "v": 100
    },
    {
      "midi": 44,
      "hit": false,
      "t": 50520,
      "d": 108,
      "v": 100
    },
    {
      "midi": 42,
      "hit": false,
      "t": 50640,
      "d": 216,
      "v": 100
    },
    {
      "midi": 44,
      "hit": false,
      "t": 50760,
      "d": 108,
      "v": 100
    },
    {
      "midi": 87,
      "hit": false,
      "t": 50880,
      "d": 480,
      "v": 110
    },
    {
      "midi": 79,
      "hit": false,
      "t": 50880,
      "d": 480,
      "v": 110
    },
    {
      "midi": 83,
      "hit": false,
      "t": 50880,
      "d": 480,
      "v": 110
    },
    {
      "midi": 43,
      "hit": false,
      "t": 50880,
      "d": 480,
      "v": 120
    },
    {
      "midi": 31,
      "hit": false,
      "t": 50880,
      "d": 480,
      "v": 120
    },
    {
      "midi": 44,
      "hit": false,
      "t": 50880,
      "d": 108,
      "v": 100
    },
    {
      "midi": 38,
      "hit": false,
      "t": 50880,
      "d": 108,
      "v": 100
    },
    {
      "midi": 36,
      "hit": false,
      "t": 50880,
      "d": 432,
      "v": 100
    },
    {
      "midi": 44,
      "hit": false,
      "t": 51000,
      "d": 108,
      "v": 100
    },
    {
      "midi": 38,
      "hit": false,
      "t": 51000,
      "d": 108,
      "v": 100
    },
    {
      "midi": 38,
      "hit": false,
      "t": 51120,
      "d": 108,
      "v": 100
    },
    {
      "midi": 42,
      "hit": false,
      "t": 51120,
      "d": 216,
      "v": 100
    },
    {
      "midi": 44,
      "hit": false,
      "t": 51240,
      "d": 108,
      "v": 100
    },
    {
      "midi": 38,
      "hit": false,
      "t": 51240,
      "d": 108,
      "v": 100
    },
    {
      "midi": 86,
      "hit": false,
      "t": 51360,
      "d": 480,
      "v": 110
    },
    {
      "midi": 79,
      "hit": false,
      "t": 51360,
      "d": 480,
      "v": 110
    },
    {
      "midi": 83,
      "hit": false,
      "t": 51360,
      "d": 480,
      "v": 110
    },
    {
      "midi": 55,
      "hit": false,
      "t": 51360,
      "d": 480,
      "v": 120
    },
    {
      "midi": 31,
      "hit": false,
      "t": 51360,
      "d": 480,
      "v": 120
    },
    {
      "midi": 44,
      "hit": false,
      "t": 51360,
      "d": 108,
      "v": 100
    },
    {
      "midi": 38,
      "hit": false,
      "t": 51360,
      "d": 108,
      "v": 100
    },
    {
      "midi": 44,
      "hit": false,
      "t": 51480,
      "d": 108,
      "v": 100
    },
    {
      "midi": 38,
      "hit": false,
      "t": 51480,
      "d": 108,
      "v": 100
    },
    {
      "midi": 75,
      "hit": false,
      "t": 51600,
      "d": 96,
      "v": 120
    },
    {
      "midi": 38,
      "hit": false,
      "t": 51600,
      "d": 108,
      "v": 100
    },
    {
      "midi": 46,
      "hit": false,
      "t": 51600,
      "d": 216,
      "v": 100
    },
    {
      "midi": 77,
      "hit": false,
      "t": 51720,
      "d": 96,
      "v": 120
    },
    {
      "midi": 44,
      "hit": false,
      "t": 51720,
      "d": 108,
      "v": 100
    },
    {
      "midi": 38,
      "hit": false,
      "t": 51720,
      "d": 108,
      "v": 100
    },
    {
      "midi": 79,
      "hit": false,
      "t": 51840,
      "d": 288,
      "v": 120
    },
    {
      "midi": 75,
      "hit": false,
      "t": 51840,
      "d": 306,
      "v": 80
    },
    {
      "midi": 72,
      "hit": false,
      "t": 51840,
      "d": 306,
      "v": 80
    },
    {
      "midi": 84,
      "hit": false,
      "t": 51840,
      "d": 288,
      "v": 100
    },
    {
      "midi": 79,
      "hit": false,
      "t": 51840,
      "d": 288,
      "v": 100
    },
    {
      "midi": 48,
      "hit": false,
      "t": 51840,
      "d": 360,
      "v": 120
    },
    {
      "midi": 79,
      "hit": false,
      "t": 51840,
      "d": 120,
      "v": 90
    },
    {
      "midi": 36,
      "hit": false,
      "t": 51840,
      "d": 360,
      "v": 120
    },
    {
      "midi": 44,
      "hit": false,
      "t": 51840,
      "d": 108,
      "v": 100
    },
    {
      "midi": 36,
      "hit": false,
      "t": 51840,
      "d": 324,
      "v": 100
    },
    {
      "midi": 49,
      "hit": false,
      "t": 51840,
      "d": 432,
      "v": 100
    },
    {
      "midi": 79,
      "hit": false,
      "t": 51960,
      "d": 120,
      "v": 70
    },
    {
      "midi": 44,
      "hit": false,
      "t": 51960,
      "d": 108,
      "v": 100
    },
    {
      "midi": 46,
      "hit": false,
      "t": 52080,
      "d": 216,
      "v": 100
    },
    {
      "midi": 79,
      "hit": false,
      "t": 52200,
      "d": 312,
      "v": 120
    },
    {
      "midi": 75,
      "hit": false,
      "t": 52200,
      "d": 324,
      "v": 80
    },
    {
      "midi": 72,
      "hit": false,
      "t": 52200,
      "d": 324,
      "v": 80
    },
    {
      "midi": 46,
      "hit": false,
      "t": 52200,
      "d": 360,
      "v": 120
    },
    {
      "midi": 34,
      "hit": false,
      "t": 52200,
      "d": 360,
      "v": 120
    },
    {
      "midi": 44,
      "hit": false,
      "t": 52200,
      "d": 108,
      "v": 100
    },
    {
      "midi": 36,
      "hit": false,
      "t": 52200,
      "d": 108,
      "v": 100
    },
    {
      "midi": 44,
      "hit": false,
      "t": 52320,
      "d": 108,
      "v": 100
    },
    {
      "midi": 38,
      "hit": false,
      "t": 52320,
      "d": 432,
      "v": 100
    },
    {
      "midi": 52,
      "hit": false,
      "t": 52320,
      "d": 432,
      "v": 100
    },
    {
      "midi": 44,
      "hit": false,
      "t": 52440,
      "d": 108,
      "v": 100
    },
    {
      "midi": 79,
      "hit": false,
      "t": 52560,
      "d": 192,
      "v": 120
    },
    {
      "midi": 75,
      "hit": false,
      "t": 52560,
      "d": 204,
      "v": 80
    },
    {
      "midi": 72,
      "hit": false,
      "t": 52560,
      "d": 240,
      "v": 80
    },
    {
      "midi": 48,
      "hit": false,
      "t": 52560,
      "d": 360,
      "v": 120
    },
    {
      "midi": 79,
      "hit": false,
      "t": 52560,
      "d": 120,
      "v": 70
    },
    {
      "midi": 36,
      "hit": false,
      "t": 52560,
      "d": 360,
      "v": 120
    },
    {
      "midi": 46,
      "hit": false,
      "t": 52560,
      "d": 216,
      "v": 100
    },
    {
      "midi": 36,
      "hit": false,
      "t": 52560,
      "d": 216,
      "v": 100
    },
    {
      "midi": 79,
      "hit": false,
      "t": 52680,
      "d": 120,
      "v": 90
    },
    {
      "midi": 44,
      "hit": false,
      "t": 52680,
      "d": 108,
      "v": 100
    },
    {
      "midi": 79,
      "hit": false,
      "t": 52800,
      "d": 288,
      "v": 120
    },
    {
      "midi": 75,
      "hit": false,
      "t": 52800,
      "d": 306,
      "v": 80
    },
    {
      "midi": 72,
      "hit": false,
      "t": 52800,
      "d": 360,
      "v": 80
    },
    {
      "midi": 79,
      "hit": false,
      "t": 52800,
      "d": 120,
      "v": 90
    },
    {
      "midi": 44,
      "hit": false,
      "t": 52800,
      "d": 108,
      "v": 100
    },
    {
      "midi": 46,
      "hit": false,
      "t": 52920,
      "d": 360,
      "v": 120
    },
    {
      "midi": 79,
      "hit": false,
      "t": 52920,
      "d": 120,
      "v": 70
    },
    {
      "midi": 34,
      "hit": false,
      "t": 52920,
      "d": 324,
      "v": 120
    },
    {
      "midi": 44,
      "hit": false,
      "t": 52920,
      "d": 108,
      "v": 100
    },
    {
      "midi": 46,
      "hit": false,
      "t": 53040,
      "d": 216,
      "v": 100
    },
    {
      "midi": 36,
      "hit": false,
      "t": 53040,
      "d": 216,
      "v": 100
    },
    {
      "midi": 84,
      "hit": false,
      "t": 53160,
      "d": 312,
      "v": 120
    },
    {
      "midi": 75,
      "hit": false,
      "t": 53160,
      "d": 324,
      "v": 80
    },
    {
      "midi": 72,
      "hit": false,
      "t": 53160,
      "d": 360,
      "v": 80
    },
    {
      "midi": 44,
      "hit": false,
      "t": 53160,
      "d": 108,
      "v": 100
    },
    {
      "midi": 48,
      "hit": false,
      "t": 53280,
      "d": 240,
      "v": 120
    },
    {
      "midi": 36,
      "hit": false,
      "t": 53280,
      "d": 216,
      "v": 120
    },
    {
      "midi": 44,
      "hit": false,
      "t": 53280,
      "d": 108,
      "v": 100
    },
    {
      "midi": 38,
      "hit": false,
      "t": 53280,
      "d": 432,
      "v": 100
    },
    {
      "midi": 44,
      "hit": false,
      "t": 53400,
      "d": 108,
      "v": 100
    },
    {
      "midi": 79,
      "hit": false,
      "t": 53520,
      "d": 192,
      "v": 120
    },
    {
      "midi": 75,
      "hit": false,
      "t": 53520,
      "d": 204,
      "v": 80
    },
    {
      "midi": 72,
      "hit": false,
      "t": 53520,
      "d": 240,
      "v": 80
    },
    {
      "midi": 46,
      "hit": false,
      "t": 53520,
      "d": 240,
      "v": 120
    },
    {
      "midi": 79,
      "hit": false,
      "t": 53520,
      "d": 120,
      "v": 70
    },
    {
      "midi": 34,
      "hit": false,
      "t": 53520,
      "d": 216,
      "v": 120
    },
    {
      "midi": 46,
      "hit": false,
      "t": 53520,
      "d": 216,
      "v": 100
    },
    {
      "midi": 36,
      "hit": false,
      "t": 53520,
      "d": 216,
      "v": 100
    },
    {
      "midi": 79,
      "hit": false,
      "t": 53640,
      "d": 120,
      "v": 90
    },
    {
      "midi": 44,
      "hit": false,
      "t": 53640,
      "d": 108,
      "v": 100
    },
    {
      "midi": 79,
      "hit": false,
      "t": 53760,
      "d": 288,
      "v": 120
    },
    {
      "midi": 74,
      "hit": false,
      "t": 53760,
      "d": 306,
      "v": 80
    },
    {
      "midi": 72,
      "hit": false,
      "t": 53760,
      "d": 360,
      "v": 80
    },
    {
      "midi": 48,
      "hit": false,
      "t": 53760,
      "d": 360,
      "v": 120
    },
    {
      "midi": 79,
      "hit": false,
      "t": 53760,
      "d": 120,
      "v": 90
    },
    {
      "midi": 36,
      "hit": false,
      "t": 53760,
      "d": 360,
      "v": 120
    },
    {
      "midi": 44,
      "hit": false,
      "t": 53760,
      "d": 108,
      "v": 100
    },
    {
      "midi": 36,
      "hit": false,
      "t": 53760,
      "d": 324,
      "v": 100
    },
    {
      "midi": 79,
      "hit": false,
      "t": 53880,
      "d": 120,
      "v": 70
    },
    {
      "midi": 44,
      "hit": false,
      "t": 53880,
      "d": 108,
      "v": 100
    },
    {
      "midi": 46,
      "hit": false,
      "t": 54000,
      "d": 216,
      "v": 100
    },
    {
      "midi": 79,
      "hit": false,
      "t": 54120,
      "d": 312,
      "v": 120
    },
    {
      "midi": 74,
      "hit": false,
      "t": 54120,
      "d": 324,
      "v": 80
    },
    {
      "midi": 72,
      "hit": false,
      "t": 54120,
      "d": 360,
      "v": 80
    },
    {
      "midi": 46,
      "hit": false,
      "t": 54120,
      "d": 360,
      "v": 120
    },
    {
      "midi": 34,
      "hit": false,
      "t": 54120,
      "d": 360,
      "v": 120
    },
    {
      "midi": 44,
      "hit": false,
      "t": 54120,
      "d": 108,
      "v": 100
    },
    {
      "midi": 36,
      "hit": false,
      "t": 54120,
      "d": 108,
      "v": 100
    },
    {
      "midi": 44,
      "hit": false,
      "t": 54240,
      "d": 108,
      "v": 100
    },
    {
      "midi": 38,
      "hit": false,
      "t": 54240,
      "d": 432,
      "v": 100
    },
    {
      "midi": 44,
      "hit": false,
      "t": 54360,
      "d": 108,
      "v": 100
    },
    {
      "midi": 79,
      "hit": false,
      "t": 54480,
      "d": 192,
      "v": 120
    },
    {
      "midi": 74,
      "hit": false,
      "t": 54480,
      "d": 204,
      "v": 80
    },
    {
      "midi": 72,
      "hit": false,
      "t": 54480,
      "d": 240,
      "v": 80
    },
    {
      "midi": 48,
      "hit": false,
      "t": 54480,
      "d": 360,
      "v": 120
    },
    {
      "midi": 79,
      "hit": false,
      "t": 54480,
      "d": 120,
      "v": 70
    },
    {
      "midi": 36,
      "hit": false,
      "t": 54480,
      "d": 360,
      "v": 120
    },
    {
      "midi": 46,
      "hit": false,
      "t": 54480,
      "d": 216,
      "v": 100
    },
    {
      "midi": 36,
      "hit": false,
      "t": 54480,
      "d": 216,
      "v": 100
    },
    {
      "midi": 79,
      "hit": false,
      "t": 54600,
      "d": 120,
      "v": 90
    },
    {
      "midi": 44,
      "hit": false,
      "t": 54600,
      "d": 108,
      "v": 100
    },
    {
      "midi": 79,
      "hit": false,
      "t": 54720,
      "d": 288,
      "v": 120
    },
    {
      "midi": 74,
      "hit": false,
      "t": 54720,
      "d": 306,
      "v": 80
    },
    {
      "midi": 72,
      "hit": false,
      "t": 54720,
      "d": 360,
      "v": 80
    },
    {
      "midi": 79,
      "hit": false,
      "t": 54720,
      "d": 120,
      "v": 90
    },
    {
      "midi": 44,
      "hit": false,
      "t": 54720,
      "d": 108,
      "v": 100
    },
    {
      "midi": 46,
      "hit": false,
      "t": 54840,
      "d": 360,
      "v": 120
    },
    {
      "midi": 79,
      "hit": false,
      "t": 54840,
      "d": 120,
      "v": 70
    },
    {
      "midi": 34,
      "hit": false,
      "t": 54840,
      "d": 324,
      "v": 120
    },
    {
      "midi": 44,
      "hit": false,
      "t": 54840,
      "d": 108,
      "v": 100
    },
    {
      "midi": 46,
      "hit": false,
      "t": 54960,
      "d": 216,
      "v": 100
    },
    {
      "midi": 36,
      "hit": false,
      "t": 54960,
      "d": 216,
      "v": 100
    },
    {
      "midi": 84,
      "hit": false,
      "t": 55080,
      "d": 312,
      "v": 120
    },
    {
      "midi": 74,
      "hit": false,
      "t": 55080,
      "d": 324,
      "v": 80
    },
    {
      "midi": 72,
      "hit": false,
      "t": 55080,
      "d": 360,
      "v": 80
    },
    {
      "midi": 44,
      "hit": false,
      "t": 55080,
      "d": 108,
      "v": 100
    },
    {
      "midi": 65,
      "hit": false,
      "t": 55200,
      "d": 480,
      "v": 120
    },
    {
      "midi": 60,
      "hit": false,
      "t": 55200,
      "d": 480,
      "v": 120
    },
    {
      "midi": 36,
      "hit": false,
      "t": 55200,
      "d": 216,
      "v": 120
    },
    {
      "midi": 44,
      "hit": false,
      "t": 55200,
      "d": 108,
      "v": 100
    },
    {
      "midi": 38,
      "hit": false,
      "t": 55200,
      "d": 432,
      "v": 100
    },
    {
      "midi": 44,
      "hit": false,
      "t": 55320,
      "d": 108,
      "v": 100
    },
    {
      "midi": 79,
      "hit": false,
      "t": 55440,
      "d": 192,
      "v": 120
    },
    {
      "midi": 74,
      "hit": false,
      "t": 55440,
      "d": 204,
      "v": 80
    },
    {
      "midi": 72,
      "hit": false,
      "t": 55440,
      "d": 240,
      "v": 80
    },
    {
      "midi": 79,
      "hit": false,
      "t": 55440,
      "d": 120,
      "v": 70
    },
    {
      "midi": 36,
      "hit": false,
      "t": 55440,
      "d": 216,
      "v": 120
    },
    {
      "midi": 46,
      "hit": false,
      "t": 55440,
      "d": 216,
      "v": 100
    },
    {
      "midi": 79,
      "hit": false,
      "t": 55560,
      "d": 120,
      "v": 90
    },
    {
      "midi": 44,
      "hit": false,
      "t": 55560,
      "d": 108,
      "v": 100
    },
    {
      "midi": 79,
      "hit": false,
      "t": 55680,
      "d": 288,
      "v": 120
    },
    {
      "midi": 75,
      "hit": false,
      "t": 55680,
      "d": 306,
      "v": 80
    },
    {
      "midi": 72,
      "hit": false,
      "t": 55680,
      "d": 360,
      "v": 80
    },
    {
      "midi": 44,
      "hit": false,
      "t": 55680,
      "d": 360,
      "v": 120
    },
    {
      "midi": 79,
      "hit": false,
      "t": 55680,
      "d": 120,
      "v": 90
    },
    {
      "midi": 32,
      "hit": false,
      "t": 55680,
      "d": 360,
      "v": 120
    },
    {
      "midi": 44,
      "hit": false,
      "t": 55680,
      "d": 108,
      "v": 100
    },
    {
      "midi": 36,
      "hit": false,
      "t": 55680,
      "d": 324,
      "v": 100
    },
    {
      "midi": 79,
      "hit": false,
      "t": 55800,
      "d": 120,
      "v": 70
    },
    {
      "midi": 44,
      "hit": false,
      "t": 55800,
      "d": 108,
      "v": 100
    },
    {
      "midi": 46,
      "hit": false,
      "t": 55920,
      "d": 216,
      "v": 100
    },
    {
      "midi": 79,
      "hit": false,
      "t": 56040,
      "d": 312,
      "v": 120
    },
    {
      "midi": 75,
      "hit": false,
      "t": 56040,
      "d": 324,
      "v": 80
    },
    {
      "midi": 72,
      "hit": false,
      "t": 56040,
      "d": 360,
      "v": 80
    },
    {
      "midi": 44,
      "hit": false,
      "t": 56040,
      "d": 360,
      "v": 120
    },
    {
      "midi": 32,
      "hit": false,
      "t": 56040,
      "d": 360,
      "v": 120
    },
    {
      "midi": 44,
      "hit": false,
      "t": 56040,
      "d": 108,
      "v": 100
    },
    {
      "midi": 36,
      "hit": false,
      "t": 56040,
      "d": 108,
      "v": 100
    },
    {
      "midi": 44,
      "hit": false,
      "t": 56160,
      "d": 108,
      "v": 100
    },
    {
      "midi": 38,
      "hit": false,
      "t": 56160,
      "d": 432,
      "v": 100
    },
    {
      "midi": 44,
      "hit": false,
      "t": 56280,
      "d": 108,
      "v": 100
    },
    {
      "midi": 80,
      "hit": false,
      "t": 56400,
      "d": 192,
      "v": 120
    },
    {
      "midi": 77,
      "hit": false,
      "t": 56400,
      "d": 204,
      "v": 80
    },
    {
      "midi": 74,
      "hit": false,
      "t": 56400,
      "d": 240,
      "v": 80
    },
    {
      "midi": 44,
      "hit": false,
      "t": 56400,
      "d": 240,
      "v": 120
    },
    {
      "midi": 79,
      "hit": false,
      "t": 56400,
      "d": 120,
      "v": 70
    },
    {
      "midi": 32,
      "hit": false,
      "t": 56400,
      "d": 240,
      "v": 120
    },
    {
      "midi": 46,
      "hit": false,
      "t": 56400,
      "d": 216,
      "v": 100
    },
    {
      "midi": 36,
      "hit": false,
      "t": 56400,
      "d": 216,
      "v": 100
    },
    {
      "midi": 79,
      "hit": false,
      "t": 56520,
      "d": 120,
      "v": 90
    },
    {
      "midi": 44,
      "hit": false,
      "t": 56520,
      "d": 108,
      "v": 100
    },
    {
      "midi": 79,
      "hit": false,
      "t": 56640,
      "d": 288,
      "v": 120
    },
    {
      "midi": 75,
      "hit": false,
      "t": 56640,
      "d": 306,
      "v": 80
    },
    {
      "midi": 72,
      "hit": false,
      "t": 56640,
      "d": 360,
      "v": 80
    },
    {
      "midi": 46,
      "hit": false,
      "t": 56640,
      "d": 360,
      "v": 120
    },
    {
      "midi": 79,
      "hit": false,
      "t": 56640,
      "d": 120,
      "v": 90
    },
    {
      "midi": 34,
      "hit": false,
      "t": 56640,
      "d": 360,
      "v": 120
    },
    {
      "midi": 44,
      "hit": false,
      "t": 56640,
      "d": 108,
      "v": 100
    },
    {
      "midi": 79,
      "hit": false,
      "t": 56760,
      "d": 120,
      "v": 70
    },
    {
      "midi": 44,
      "hit": false,
      "t": 56760,
      "d": 108,
      "v": 100
    },
    {
      "midi": 46,
      "hit": false,
      "t": 56880,
      "d": 216,
      "v": 100
    },
    {
      "midi": 36,
      "hit": false,
      "t": 56880,
      "d": 216,
      "v": 100
    },
    {
      "midi": 77,
      "hit": false,
      "t": 57000,
      "d": 312,
      "v": 120
    },
    {
      "midi": 74,
      "hit": false,
      "t": 57000,
      "d": 324,
      "v": 80
    },
    {
      "midi": 70,
      "hit": false,
      "t": 57000,
      "d": 360,
      "v": 80
    },
    {
      "midi": 46,
      "hit": false,
      "t": 57000,
      "d": 360,
      "v": 120
    },
    {
      "midi": 34,
      "hit": false,
      "t": 57000,
      "d": 360,
      "v": 120
    },
    {
      "midi": 44,
      "hit": false,
      "t": 57000,
      "d": 108,
      "v": 100
    },
    {
      "midi": 44,
      "hit": false,
      "t": 57120,
      "d": 108,
      "v": 100
    },
    {
      "midi": 38,
      "hit": false,
      "t": 57120,
      "d": 432,
      "v": 100
    },
    {
      "midi": 44,
      "hit": false,
      "t": 57240,
      "d": 108,
      "v": 100
    },
    {
      "midi": 75,
      "hit": false,
      "t": 57360,
      "d": 192,
      "v": 120
    },
    {
      "midi": 70,
      "hit": false,
      "t": 57360,
      "d": 204,
      "v": 80
    },
    {
      "midi": 67,
      "hit": false,
      "t": 57360,
      "d": 240,
      "v": 80
    },
    {
      "midi": 46,
      "hit": false,
      "t": 57360,
      "d": 240,
      "v": 120
    },
    {
      "midi": 79,
      "hit": false,
      "t": 57360,
      "d": 120,
      "v": 70
    },
    {
      "midi": 34,
      "hit": false,
      "t": 57360,
      "d": 240,
      "v": 120
    },
    {
      "midi": 46,
      "hit": false,
      "t": 57360,
      "d": 216,
      "v": 100
    },
    {
      "midi": 79,
      "hit": false,
      "t": 57480,
      "d": 120,
      "v": 90
    },
    {
      "midi": 44,
      "hit": false,
      "t": 57480,
      "d": 108,
      "v": 100
    },
    {
      "midi": 77,
      "hit": false,
      "t": 57600,
      "d": 288,
      "v": 120
    },
    {
      "midi": 70,
      "hit": false,
      "t": 57600,
      "d": 306,
      "v": 80
    },
    {
      "midi": 67,
      "hit": false,
      "t": 57600,
      "d": 360,
      "v": 80
    },
    {
      "midi": 46,
      "hit": false,
      "t": 57600,
      "d": 360,
      "v": 120
    },
    {
      "midi": 79,
      "hit": false,
      "t": 57600,
      "d": 120,
      "v": 90
    },
    {
      "midi": 31,
      "hit": false,
      "t": 57600,
      "d": 360,
      "v": 120
    },
    {
      "midi": 44,
      "hit": false,
      "t": 57600,
      "d": 108,
      "v": 100
    },
    {
      "midi": 36,
      "hit": false,
      "t": 57600,
      "d": 324,
      "v": 100
    },
    {
      "midi": 79,
      "hit": false,
      "t": 57720,
      "d": 120,
      "v": 70
    },
    {
      "midi": 44,
      "hit": false,
      "t": 57720,
      "d": 108,
      "v": 100
    },
    {
      "midi": 46,
      "hit": false,
      "t": 57840,
      "d": 216,
      "v": 100
    },
    {
      "midi": 75,
      "hit": false,
      "t": 57960,
      "d": 312,
      "v": 120
    },
    {
      "midi": 70,
      "hit": false,
      "t": 57960,
      "d": 324,
      "v": 80
    },
    {
      "midi": 67,
      "hit": false,
      "t": 57960,
      "d": 360,
      "v": 80
    },
    {
      "midi": 46,
      "hit": false,
      "t": 57960,
      "d": 360,
      "v": 120
    },
    {
      "midi": 31,
      "hit": false,
      "t": 57960,
      "d": 360,
      "v": 120
    },
    {
      "midi": 44,
      "hit": false,
      "t": 57960,
      "d": 108,
      "v": 100
    },
    {
      "midi": 36,
      "hit": false,
      "t": 57960,
      "d": 108,
      "v": 100
    },
    {
      "midi": 44,
      "hit": false,
      "t": 58080,
      "d": 108,
      "v": 100
    },
    {
      "midi": 38,
      "hit": false,
      "t": 58080,
      "d": 432,
      "v": 100
    },
    {
      "midi": 44,
      "hit": false,
      "t": 58200,
      "d": 108,
      "v": 100
    },
    {
      "midi": 74,
      "hit": false,
      "t": 58320,
      "d": 192,
      "v": 120
    },
    {
      "midi": 70,
      "hit": false,
      "t": 58320,
      "d": 204,
      "v": 80
    },
    {
      "midi": 67,
      "hit": false,
      "t": 58320,
      "d": 240,
      "v": 80
    },
    {
      "midi": 50,
      "hit": false,
      "t": 58320,
      "d": 240,
      "v": 120
    },
    {
      "midi": 79,
      "hit": false,
      "t": 58320,
      "d": 120,
      "v": 70
    },
    {
      "midi": 31,
      "hit": false,
      "t": 58320,
      "d": 240,
      "v": 120
    },
    {
      "midi": 46,
      "hit": false,
      "t": 58320,
      "d": 216,
      "v": 100
    },
    {
      "midi": 36,
      "hit": false,
      "t": 58320,
      "d": 216,
      "v": 100
    },
    {
      "midi": 79,
      "hit": false,
      "t": 58440,
      "d": 120,
      "v": 90
    },
    {
      "midi": 44,
      "hit": false,
      "t": 58440,
      "d": 108,
      "v": 100
    },
    {
      "midi": 75,
      "hit": false,
      "t": 58560,
      "d": 384,
      "v": 120
    },
    {
      "midi": 72,
      "hit": false,
      "t": 58560,
      "d": 408,
      "v": 80
    },
    {
      "midi": 67,
      "hit": false,
      "t": 58560,
      "d": 480,
      "v": 65
    },
    {
      "midi": 60,
      "hit": false,
      "t": 58560,
      "d": 720,
      "v": 120
    },
    {
      "midi": 79,
      "hit": false,
      "t": 58560,
      "d": 120,
      "v": 90
    },
    {
      "midi": 36,
      "hit": false,
      "t": 58560,
      "d": 240,
      "v": 120
    },
    {
      "midi": 44,
      "hit": false,
      "t": 58560,
      "d": 108,
      "v": 100
    },
    {
      "midi": 79,
      "hit": false,
      "t": 58680,
      "d": 120,
      "v": 70
    },
    {
      "midi": 44,
      "hit": false,
      "t": 58680,
      "d": 108,
      "v": 100
    },
    {
      "midi": 34,
      "hit": false,
      "t": 58800,
      "d": 240,
      "v": 120
    },
    {
      "midi": 46,
      "hit": false,
      "t": 58800,
      "d": 216,
      "v": 100
    },
    {
      "midi": 36,
      "hit": false,
      "t": 58800,
      "d": 216,
      "v": 100
    },
    {
      "midi": 44,
      "hit": false,
      "t": 58920,
      "d": 108,
      "v": 100
    },
    {
      "midi": 34,
      "hit": false,
      "t": 59040,
      "d": 480,
      "v": 120
    },
    {
      "midi": 44,
      "hit": false,
      "t": 59040,
      "d": 108,
      "v": 100
    },
    {
      "midi": 38,
      "hit": false,
      "t": 59040,
      "d": 432,
      "v": 100
    },
    {
      "midi": 44,
      "hit": false,
      "t": 59160,
      "d": 108,
      "v": 100
    },
    {
      "midi": 72,
      "hit": false,
      "t": 59280,
      "d": 96,
      "v": 120
    },
    {
      "midi": 46,
      "hit": false,
      "t": 59280,
      "d": 120,
      "v": 120
    },
    {
      "midi": 79,
      "hit": false,
      "t": 59280,
      "d": 120,
      "v": 70
    },
    {
      "midi": 46,
      "hit": false,
      "t": 59280,
      "d": 216,
      "v": 100
    },
    {
      "midi": 74,
      "hit": false,
      "t": 59400,
      "d": 96,
      "v": 120
    },
    {
      "midi": 43,
      "hit": false,
      "t": 59400,
      "d": 120,
      "v": 120
    },
    {
      "midi": 79,
      "hit": false,
      "t": 59400,
      "d": 120,
      "v": 90
    },
    {
      "midi": 44,
      "hit": false,
      "t": 59400,
      "d": 108,
      "v": 100
    },
    {
      "midi": 75,
      "hit": false,
      "t": 59520,
      "d": 288,
      "v": 120
    },
    {
      "midi": 75,
      "hit": false,
      "t": 59520,
      "d": 1920,
      "v": 80
    },
    {
      "midi": 72,
      "hit": false,
      "t": 59520,
      "d": 1920,
      "v": 80
    },
    {
      "midi": 44,
      "hit": false,
      "t": 59520,
      "d": 360,
      "v": 120
    },
    {
      "midi": 79,
      "hit": false,
      "t": 59520,
      "d": 120,
      "v": 90
    },
    {
      "midi": 32,
      "hit": false,
      "t": 59520,
      "d": 360,
      "v": 120
    },
    {
      "midi": 44,
      "hit": false,
      "t": 59520,
      "d": 108,
      "v": 100
    },
    {
      "midi": 36,
      "hit": false,
      "t": 59520,
      "d": 324,
      "v": 100
    },
    {
      "midi": 79,
      "hit": false,
      "t": 59640,
      "d": 120,
      "v": 70
    },
    {
      "midi": 44,
      "hit": false,
      "t": 59640,
      "d": 108,
      "v": 100
    },
    {
      "midi": 46,
      "hit": false,
      "t": 59760,
      "d": 216,
      "v": 100
    },
    {
      "midi": 75,
      "hit": false,
      "t": 59880,
      "d": 312,
      "v": 120
    },
    {
      "midi": 44,
      "hit": false,
      "t": 59880,
      "d": 360,
      "v": 120
    },
    {
      "midi": 32,
      "hit": false,
      "t": 59880,
      "d": 360,
      "v": 120
    },
    {
      "midi": 44,
      "hit": false,
      "t": 59880,
      "d": 108,
      "v": 100
    },
    {
      "midi": 36,
      "hit": false,
      "t": 59880,
      "d": 108,
      "v": 100
    },
    {
      "midi": 44,
      "hit": false,
      "t": 60000,
      "d": 108,
      "v": 100
    },
    {
      "midi": 38,
      "hit": false,
      "t": 60000,
      "d": 432,
      "v": 100
    },
    {
      "midi": 44,
      "hit": false,
      "t": 60120,
      "d": 108,
      "v": 100
    },
    {
      "midi": 75,
      "hit": false,
      "t": 60240,
      "d": 192,
      "v": 120
    },
    {
      "midi": 44,
      "hit": false,
      "t": 60240,
      "d": 240,
      "v": 120
    },
    {
      "midi": 79,
      "hit": false,
      "t": 60240,
      "d": 120,
      "v": 70
    },
    {
      "midi": 32,
      "hit": false,
      "t": 60240,
      "d": 360,
      "v": 120
    },
    {
      "midi": 46,
      "hit": false,
      "t": 60240,
      "d": 216,
      "v": 100
    },
    {
      "midi": 36,
      "hit": false,
      "t": 60240,
      "d": 216,
      "v": 100
    },
    {
      "midi": 79,
      "hit": false,
      "t": 60360,
      "d": 120,
      "v": 90
    },
    {
      "midi": 44,
      "hit": false,
      "t": 60360,
      "d": 108,
      "v": 100
    },
    {
      "midi": 75,
      "hit": false,
      "t": 60480,
      "d": 288,
      "v": 120
    },
    {
      "midi": 79,
      "hit": false,
      "t": 60480,
      "d": 120,
      "v": 90
    },
    {
      "midi": 44,
      "hit": false,
      "t": 60480,
      "d": 108,
      "v": 100
    },
    {
      "midi": 44,
      "hit": false,
      "t": 60600,
      "d": 360,
      "v": 120
    },
    {
      "midi": 79,
      "hit": false,
      "t": 60600,
      "d": 120,
      "v": 70
    },
    {
      "midi": 32,
      "hit": false,
      "t": 60600,
      "d": 360,
      "v": 120
    },
    {
      "midi": 44,
      "hit": false,
      "t": 60600,
      "d": 108,
      "v": 100
    },
    {
      "midi": 46,
      "hit": false,
      "t": 60720,
      "d": 216,
      "v": 100
    },
    {
      "midi": 36,
      "hit": false,
      "t": 60720,
      "d": 216,
      "v": 100
    },
    {
      "midi": 84,
      "hit": false,
      "t": 60840,
      "d": 312,
      "v": 120
    },
    {
      "midi": 44,
      "hit": false,
      "t": 60840,
      "d": 108,
      "v": 100
    },
    {
      "midi": 44,
      "hit": false,
      "t": 60960,
      "d": 240,
      "v": 120
    },
    {
      "midi": 32,
      "hit": false,
      "t": 60960,
      "d": 240,
      "v": 120
    },
    {
      "midi": 44,
      "hit": false,
      "t": 60960,
      "d": 108,
      "v": 100
    },
    {
      "midi": 38,
      "hit": false,
      "t": 60960,
      "d": 432,
      "v": 100
    },
    {
      "midi": 44,
      "hit": false,
      "t": 61080,
      "d": 108,
      "v": 100
    },
    {
      "midi": 79,
      "hit": false,
      "t": 61200,
      "d": 192,
      "v": 120
    },
    {
      "midi": 44,
      "hit": false,
      "t": 61200,
      "d": 240,
      "v": 120
    },
    {
      "midi": 79,
      "hit": false,
      "t": 61200,
      "d": 120,
      "v": 70
    },
    {
      "midi": 32,
      "hit": false,
      "t": 61200,
      "d": 240,
      "v": 120
    },
    {
      "midi": 46,
      "hit": false,
      "t": 61200,
      "d": 216,
      "v": 100
    },
    {
      "midi": 79,
      "hit": false,
      "t": 61320,
      "d": 120,
      "v": 90
    },
    {
      "midi": 44,
      "hit": false,
      "t": 61320,
      "d": 108,
      "v": 100
    },
    {
      "midi": 79,
      "hit": false,
      "t": 61440,
      "d": 576,
      "v": 120
    },
    {
      "midi": 46,
      "hit": false,
      "t": 61440,
      "d": 360,
      "v": 120
    },
    {
      "midi": 79,
      "hit": false,
      "t": 61440,
      "d": 120,
      "v": 90
    },
    {
      "midi": 34,
      "hit": false,
      "t": 61440,
      "d": 360,
      "v": 120
    },
    {
      "midi": 44,
      "hit": false,
      "t": 61440,
      "d": 108,
      "v": 100
    },
    {
      "midi": 36,
      "hit": false,
      "t": 61440,
      "d": 324,
      "v": 100
    },
    {
      "midi": 79,
      "hit": false,
      "t": 61560,
      "d": 120,
      "v": 70
    },
    {
      "midi": 44,
      "hit": false,
      "t": 61560,
      "d": 108,
      "v": 100
    },
    {
      "midi": 46,
      "hit": false,
      "t": 61680,
      "d": 216,
      "v": 100
    },
    {
      "midi": 46,
      "hit": false,
      "t": 61800,
      "d": 360,
      "v": 120
    },
    {
      "midi": 34,
      "hit": false,
      "t": 61800,
      "d": 360,
      "v": 120
    },
    {
      "midi": 44,
      "hit": false,
      "t": 61800,
      "d": 108,
      "v": 100
    },
    {
      "midi": 36,
      "hit": false,
      "t": 61800,
      "d": 108,
      "v": 100
    },
    {
      "midi": 72,
      "hit": false,
      "t": 61920,
      "d": 480,
      "v": 110
    },
    {
      "midi": 67,
      "hit": false,
      "t": 61920,
      "d": 480,
      "v": 110
    },
    {
      "midi": 44,
      "hit": false,
      "t": 61920,
      "d": 108,
      "v": 100
    },
    {
      "midi": 38,
      "hit": false,
      "t": 61920,
      "d": 432,
      "v": 100
    },
    {
      "midi": 44,
      "hit": false,
      "t": 62040,
      "d": 108,
      "v": 100
    },
    {
      "midi": 80,
      "hit": false,
      "t": 62160,
      "d": 192,
      "v": 120
    },
    {
      "midi": 46,
      "hit": false,
      "t": 62160,
      "d": 240,
      "v": 120
    },
    {
      "midi": 79,
      "hit": false,
      "t": 62160,
      "d": 120,
      "v": 70
    },
    {
      "midi": 34,
      "hit": false,
      "t": 62160,
      "d": 360,
      "v": 120
    },
    {
      "midi": 46,
      "hit": false,
      "t": 62160,
      "d": 216,
      "v": 100
    },
    {
      "midi": 36,
      "hit": false,
      "t": 62160,
      "d": 216,
      "v": 100
    },
    {
      "midi": 79,
      "hit": false,
      "t": 62280,
      "d": 120,
      "v": 90
    },
    {
      "midi": 44,
      "hit": false,
      "t": 62280,
      "d": 108,
      "v": 100
    },
    {
      "midi": 77,
      "hit": false,
      "t": 62400,
      "d": 384,
      "v": 120
    },
    {
      "midi": 70,
      "hit": false,
      "t": 62400,
      "d": 480,
      "v": 110
    },
    {
      "midi": 65,
      "hit": false,
      "t": 62400,
      "d": 480,
      "v": 110
    },
    {
      "midi": 79,
      "hit": false,
      "t": 62400,
      "d": 120,
      "v": 90
    },
    {
      "midi": 44,
      "hit": false,
      "t": 62400,
      "d": 108,
      "v": 100
    },
    {
      "midi": 46,
      "hit": false,
      "t": 62520,
      "d": 360,
      "v": 120
    },
    {
      "midi": 79,
      "hit": false,
      "t": 62520,
      "d": 120,
      "v": 70
    },
    {
      "midi": 34,
      "hit": false,
      "t": 62520,
      "d": 360,
      "v": 120
    },
    {
      "midi": 44,
      "hit": false,
      "t": 62520,
      "d": 108,
      "v": 100
    },
    {
      "midi": 46,
      "hit": false,
      "t": 62640,
      "d": 216,
      "v": 100
    },
    {
      "midi": 36,
      "hit": false,
      "t": 62640,
      "d": 216,
      "v": 100
    },
    {
      "midi": 44,
      "hit": false,
      "t": 62760,
      "d": 108,
      "v": 100
    },
    {
      "midi": 84,
      "hit": false,
      "t": 62880,
      "d": 480,
      "v": 110
    },
    {
      "midi": 79,
      "hit": false,
      "t": 62880,
      "d": 480,
      "v": 110
    },
    {
      "midi": 46,
      "hit": false,
      "t": 62880,
      "d": 240,
      "v": 120
    },
    {
      "midi": 34,
      "hit": false,
      "t": 62880,
      "d": 240,
      "v": 120
    },
    {
      "midi": 44,
      "hit": false,
      "t": 62880,
      "d": 108,
      "v": 100
    },
    {
      "midi": 38,
      "hit": false,
      "t": 62880,
      "d": 432,
      "v": 100
    },
    {
      "midi": 44,
      "hit": false,
      "t": 63000,
      "d": 108,
      "v": 100
    },
    {
      "midi": 74,
      "hit": false,
      "t": 63120,
      "d": 192,
      "v": 120
    },
    {
      "midi": 46,
      "hit": false,
      "t": 63120,
      "d": 240,
      "v": 120
    },
    {
      "midi": 79,
      "hit": false,
      "t": 63120,
      "d": 120,
      "v": 70
    },
    {
      "midi": 34,
      "hit": false,
      "t": 63120,
      "d": 240,
      "v": 120
    },
    {
      "midi": 46,
      "hit": false,
      "t": 63120,
      "d": 216,
      "v": 100
    },
    {
      "midi": 79,
      "hit": false,
      "t": 63240,
      "d": 120,
      "v": 90
    },
    {
      "midi": 44,
      "hit": false,
      "t": 63240,
      "d": 108,
      "v": 100
    },
    {
      "midi": 75,
      "hit": false,
      "t": 63360,
      "d": 288,
      "v": 120
    },
    {
      "midi": 82,
      "hit": false,
      "t": 63360,
      "d": 1920,
      "v": 110
    },
    {
      "midi": 75,
      "hit": false,
      "t": 63360,
      "d": 1920,
      "v": 70
    },
    {
      "midi": 44,
      "hit": false,
      "t": 63360,
      "d": 360,
      "v": 120
    },
    {
      "midi": 79,
      "hit": false,
      "t": 63360,
      "d": 120,
      "v": 90
    },
    {
      "midi": 32,
      "hit": false,
      "t": 63360,
      "d": 360,
      "v": 120
    },
    {
      "midi": 44,
      "hit": false,
      "t": 63360,
      "d": 108,
      "v": 100
    },
    {
      "midi": 36,
      "hit": false,
      "t": 63360,
      "d": 324,
      "v": 100
    },
    {
      "midi": 79,
      "hit": false,
      "t": 63480,
      "d": 120,
      "v": 70
    },
    {
      "midi": 44,
      "hit": false,
      "t": 63480,
      "d": 108,
      "v": 100
    },
    {
      "midi": 46,
      "hit": false,
      "t": 63600,
      "d": 216,
      "v": 100
    },
    {
      "midi": 75,
      "hit": false,
      "t": 63720,
      "d": 312,
      "v": 120
    },
    {
      "midi": 44,
      "hit": false,
      "t": 63720,
      "d": 360,
      "v": 120
    },
    {
      "midi": 32,
      "hit": false,
      "t": 63720,
      "d": 360,
      "v": 120
    },
    {
      "midi": 44,
      "hit": false,
      "t": 63720,
      "d": 108,
      "v": 100
    },
    {
      "midi": 36,
      "hit": false,
      "t": 63720,
      "d": 108,
      "v": 100
    },
    {
      "midi": 44,
      "hit": false,
      "t": 63840,
      "d": 108,
      "v": 100
    },
    {
      "midi": 38,
      "hit": false,
      "t": 63840,
      "d": 432,
      "v": 100
    },
    {
      "midi": 44,
      "hit": false,
      "t": 63960,
      "d": 108,
      "v": 100
    },
    {
      "midi": 75,
      "hit": false,
      "t": 64080,
      "d": 192,
      "v": 120
    },
    {
      "midi": 44,
      "hit": false,
      "t": 64080,
      "d": 240,
      "v": 120
    },
    {
      "midi": 79,
      "hit": false,
      "t": 64080,
      "d": 120,
      "v": 70
    },
    {
      "midi": 32,
      "hit": false,
      "t": 64080,
      "d": 360,
      "v": 120
    },
    {
      "midi": 46,
      "hit": false,
      "t": 64080,
      "d": 216,
      "v": 100
    },
    {
      "midi": 36,
      "hit": false,
      "t": 64080,
      "d": 216,
      "v": 100
    },
    {
      "midi": 79,
      "hit": false,
      "t": 64200,
      "d": 120,
      "v": 90
    },
    {
      "midi": 44,
      "hit": false,
      "t": 64200,
      "d": 108,
      "v": 100
    },
    {
      "midi": 75,
      "hit": false,
      "t": 64320,
      "d": 288,
      "v": 120
    },
    {
      "midi": 79,
      "hit": false,
      "t": 64320,
      "d": 120,
      "v": 90
    },
    {
      "midi": 44,
      "hit": false,
      "t": 64320,
      "d": 108,
      "v": 100
    },
    {
      "midi": 44,
      "hit": false,
      "t": 64440,
      "d": 360,
      "v": 120
    },
    {
      "midi": 79,
      "hit": false,
      "t": 64440,
      "d": 120,
      "v": 70
    },
    {
      "midi": 32,
      "hit": false,
      "t": 64440,
      "d": 360,
      "v": 120
    },
    {
      "midi": 44,
      "hit": false,
      "t": 64440,
      "d": 108,
      "v": 100
    },
    {
      "midi": 46,
      "hit": false,
      "t": 64560,
      "d": 216,
      "v": 100
    },
    {
      "midi": 36,
      "hit": false,
      "t": 64560,
      "d": 216,
      "v": 100
    },
    {
      "midi": 84,
      "hit": false,
      "t": 64680,
      "d": 312,
      "v": 120
    },
    {
      "midi": 44,
      "hit": false,
      "t": 64680,
      "d": 108,
      "v": 100
    },
    {
      "midi": 44,
      "hit": false,
      "t": 64800,
      "d": 240,
      "v": 120
    },
    {
      "midi": 32,
      "hit": false,
      "t": 64800,
      "d": 240,
      "v": 120
    },
    {
      "midi": 44,
      "hit": false,
      "t": 64800,
      "d": 108,
      "v": 100
    },
    {
      "midi": 38,
      "hit": false,
      "t": 64800,
      "d": 432,
      "v": 100
    },
    {
      "midi": 44,
      "hit": false,
      "t": 64920,
      "d": 108,
      "v": 100
    },
    {
      "midi": 79,
      "hit": false,
      "t": 65040,
      "d": 192,
      "v": 120
    },
    {
      "midi": 44,
      "hit": false,
      "t": 65040,
      "d": 240,
      "v": 120
    },
    {
      "midi": 79,
      "hit": false,
      "t": 65040,
      "d": 120,
      "v": 70
    },
    {
      "midi": 32,
      "hit": false,
      "t": 65040,
      "d": 240,
      "v": 120
    },
    {
      "midi": 46,
      "hit": false,
      "t": 65040,
      "d": 216,
      "v": 100
    },
    {
      "midi": 79,
      "hit": false,
      "t": 65160,
      "d": 120,
      "v": 90
    },
    {
      "midi": 44,
      "hit": false,
      "t": 65160,
      "d": 108,
      "v": 100
    },
    {
      "midi": 79,
      "hit": false,
      "t": 65280,
      "d": 576,
      "v": 120
    },
    {
      "midi": 72,
      "hit": false,
      "t": 65280,
      "d": 720,
      "v": 80
    },
    {
      "midi": 67,
      "hit": false,
      "t": 65280,
      "d": 720,
      "v": 80
    },
    {
      "midi": 60,
      "hit": false,
      "t": 65280,
      "d": 960,
      "v": 120
    },
    {
      "midi": 56,
      "hit": false,
      "t": 65280,
      "d": 960,
      "v": 120
    },
    {
      "midi": 79,
      "hit": false,
      "t": 65280,
      "d": 120,
      "v": 90
    },
    {
      "midi": 31,
      "hit": false,
      "t": 65280,
      "d": 360,
      "v": 120
    },
    {
      "midi": 44,
      "hit": false,
      "t": 65280,
      "d": 108,
      "v": 100
    },
    {
      "midi": 38,
      "hit": false,
      "t": 65280,
      "d": 216,
      "v": 100
    },
    {
      "midi": 36,
      "hit": false,
      "t": 65280,
      "d": 324,
      "v": 100
    },
    {
      "midi": 79,
      "hit": false,
      "t": 65400,
      "d": 120,
      "v": 70
    },
    {
      "midi": 44,
      "hit": false,
      "t": 65400,
      "d": 108,
      "v": 100
    },
    {
      "midi": 46,
      "hit": false,
      "t": 65520,
      "d": 216,
      "v": 100
    },
    {
      "midi": 48,
      "hit": false,
      "t": 65520,
      "d": 216,
      "v": 100
    },
    {
      "midi": 31,
      "hit": false,
      "t": 65640,
      "d": 360,
      "v": 120
    },
    {
      "midi": 44,
      "hit": false,
      "t": 65640,
      "d": 108,
      "v": 100
    },
    {
      "midi": 36,
      "hit": false,
      "t": 65640,
      "d": 108,
      "v": 100
    },
    {
      "midi": 44,
      "hit": false,
      "t": 65760,
      "d": 108,
      "v": 100
    },
    {
      "midi": 38,
      "hit": false,
      "t": 65760,
      "d": 108,
      "v": 100
    },
    {
      "midi": 44,
      "hit": false,
      "t": 65880,
      "d": 108,
      "v": 100
    },
    {
      "midi": 38,
      "hit": false,
      "t": 65880,
      "d": 108,
      "v": 100
    },
    {
      "midi": 80,
      "hit": false,
      "t": 66000,
      "d": 192,
      "v": 120
    },
    {
      "midi": 72,
      "hit": false,
      "t": 66000,
      "d": 240,
      "v": 80
    },
    {
      "midi": 67,
      "hit": false,
      "t": 66000,
      "d": 240,
      "v": 80
    },
    {
      "midi": 79,
      "hit": false,
      "t": 66000,
      "d": 120,
      "v": 70
    },
    {
      "midi": 31,
      "hit": false,
      "t": 66000,
      "d": 240,
      "v": 120
    },
    {
      "midi": 46,
      "hit": false,
      "t": 66000,
      "d": 216,
      "v": 100
    },
    {
      "midi": 36,
      "hit": false,
      "t": 66000,
      "d": 216,
      "v": 100
    },
    {
      "midi": 47,
      "hit": false,
      "t": 66000,
      "d": 216,
      "v": 100
    },
    {
      "midi": 79,
      "hit": false,
      "t": 66120,
      "d": 120,
      "v": 90
    },
    {
      "midi": 44,
      "hit": false,
      "t": 66120,
      "d": 108,
      "v": 100
    },
    {
      "midi": 77,
      "hit": false,
      "t": 66240,
      "d": 384,
      "v": 120
    },
    {
      "midi": 71,
      "hit": false,
      "t": 66240,
      "d": 720,
      "v": 80
    },
    {
      "midi": 67,
      "hit": false,
      "t": 66240,
      "d": 720,
      "v": 60
    },
    {
      "midi": 59,
      "hit": false,
      "t": 66240,
      "d": 120,
      "v": 120
    },
    {
      "midi": 55,
      "hit": false,
      "t": 66240,
      "d": 120,
      "v": 120
    },
    {
      "midi": 79,
      "hit": false,
      "t": 66240,
      "d": 120,
      "v": 90
    },
    {
      "midi": 38,
      "hit": false,
      "t": 66240,
      "d": 120,
      "v": 120
    },
    {
      "midi": 44,
      "hit": false,
      "t": 66240,
      "d": 108,
      "v": 100
    },
    {
      "midi": 38,
      "hit": false,
      "t": 66240,
      "d": 108,
      "v": 100
    },
    {
      "midi": 59,
      "hit": false,
      "t": 66360,
      "d": 120,
      "v": 120
    },
    {
      "midi": 55,
      "hit": false,
      "t": 66360,
      "d": 120,
      "v": 120
    },
    {
      "midi": 79,
      "hit": false,
      "t": 66360,
      "d": 120,
      "v": 70
    },
    {
      "midi": 31,
      "hit": false,
      "t": 66360,
      "d": 120,
      "v": 120
    },
    {
      "midi": 44,
      "hit": false,
      "t": 66360,
      "d": 108,
      "v": 100
    },
    {
      "midi": 38,
      "hit": false,
      "t": 66360,
      "d": 108,
      "v": 100
    },
    {
      "midi": 59,
      "hit": false,
      "t": 66480,
      "d": 120,
      "v": 120
    },
    {
      "midi": 55,
      "hit": false,
      "t": 66480,
      "d": 120,
      "v": 120
    },
    {
      "midi": 38,
      "hit": false,
      "t": 66480,
      "d": 120,
      "v": 120
    },
    {
      "midi": 46,
      "hit": false,
      "t": 66480,
      "d": 216,
      "v": 100
    },
    {
      "midi": 36,
      "hit": false,
      "t": 66480,
      "d": 216,
      "v": 100
    },
    {
      "midi": 43,
      "hit": false,
      "t": 66480,
      "d": 216,
      "v": 100
    },
    {
      "midi": 59,
      "hit": false,
      "t": 66600,
      "d": 120,
      "v": 120
    },
    {
      "midi": 55,
      "hit": false,
      "t": 66600,
      "d": 120,
      "v": 120
    },
    {
      "midi": 31,
      "hit": false,
      "t": 66600,
      "d": 120,
      "v": 120
    },
    {
      "midi": 44,
      "hit": false,
      "t": 66600,
      "d": 108,
      "v": 100
    },
    {
      "midi": 59,
      "hit": false,
      "t": 66720,
      "d": 480,
      "v": 120
    },
    {
      "midi": 55,
      "hit": false,
      "t": 66720,
      "d": 480,
      "v": 120
    },
    {
      "midi": 43,
      "hit": false,
      "t": 66720,
      "d": 480,
      "v": 127
    },
    {
      "midi": 44,
      "hit": false,
      "t": 66720,
      "d": 108,
      "v": 100
    },
    {
      "midi": 38,
      "hit": false,
      "t": 66720,
      "d": 216,
      "v": 100
    },
    {
      "midi": 44,
      "hit": false,
      "t": 66840,
      "d": 108,
      "v": 100
    },
    {
      "midi": 75,
      "hit": false,
      "t": 66960,
      "d": 96,
      "v": 120
    },
    {
      "midi": 79,
      "hit": false,
      "t": 66960,
      "d": 120,
      "v": 70
    },
    {
      "midi": 38,
      "hit": false,
      "t": 66960,
      "d": 108,
      "v": 100
    },
    {
      "midi": 46,
      "hit": false,
      "t": 66960,
      "d": 216,
      "v": 100
    },
    {
      "midi": 77,
      "hit": false,
      "t": 67080,
      "d": 96,
      "v": 120
    },
    {
      "midi": 79,
      "hit": false,
      "t": 67080,
      "d": 120,
      "v": 90
    },
    {
      "midi": 44,
      "hit": false,
      "t": 67080,
      "d": 108,
      "v": 100
    },
    {
      "midi": 38,
      "hit": false,
      "t": 67080,
      "d": 108,
      "v": 100
    },
    {
      "midi": 79,
      "hit": false,
      "t": 67200,
      "d": 288,
      "v": 120
    },
    {
      "midi": 75,
      "hit": false,
      "t": 67200,
      "d": 306,
      "v": 80
    },
    {
      "midi": 72,
      "hit": false,
      "t": 67200,
      "d": 306,
      "v": 80
    },
    {
      "midi": 84,
      "hit": false,
      "t": 67200,
      "d": 288,
      "v": 100
    },
    {
      "midi": 79,
      "hit": false,
      "t": 67200,
      "d": 288,
      "v": 100
    },
    {
      "midi": 48,
      "hit": false,
      "t": 67200,
      "d": 360,
      "v": 120
    },
    {
      "midi": 79,
      "hit": false,
      "t": 67200,
      "d": 120,
      "v": 90
    },
    {
      "midi": 36,
      "hit": false,
      "t": 67200,
      "d": 360,
      "v": 120
    },
    {
      "midi": 44,
      "hit": false,
      "t": 67200,
      "d": 108,
      "v": 100
    },
    {
      "midi": 36,
      "hit": false,
      "t": 67200,
      "d": 324,
      "v": 100
    },
    {
      "midi": 49,
      "hit": false,
      "t": 67200,
      "d": 432,
      "v": 100
    },
    {
      "midi": 79,
      "hit": false,
      "t": 67320,
      "d": 120,
      "v": 70
    },
    {
      "midi": 44,
      "hit": false,
      "t": 67320,
      "d": 108,
      "v": 100
    },
    {
      "midi": 46,
      "hit": false,
      "t": 67440,
      "d": 216,
      "v": 100
    },
    {
      "midi": 79,
      "hit": false,
      "t": 67560,
      "d": 312,
      "v": 120
    },
    {
      "midi": 75,
      "hit": false,
      "t": 67560,
      "d": 324,
      "v": 80
    },
    {
      "midi": 72,
      "hit": false,
      "t": 67560,
      "d": 324,
      "v": 80
    },
    {
      "midi": 46,
      "hit": false,
      "t": 67560,
      "d": 360,
      "v": 120
    },
    {
      "midi": 34,
      "hit": false,
      "t": 67560,
      "d": 360,
      "v": 120
    },
    {
      "midi": 44,
      "hit": false,
      "t": 67560,
      "d": 108,
      "v": 100
    },
    {
      "midi": 36,
      "hit": false,
      "t": 67560,
      "d": 108,
      "v": 100
    },
    {
      "midi": 44,
      "hit": false,
      "t": 67680,
      "d": 108,
      "v": 100
    },
    {
      "midi": 38,
      "hit": false,
      "t": 67680,
      "d": 432,
      "v": 100
    },
    {
      "midi": 44,
      "hit": false,
      "t": 67800,
      "d": 108,
      "v": 100
    },
    {
      "midi": 79,
      "hit": false,
      "t": 67920,
      "d": 192,
      "v": 120
    },
    {
      "midi": 75,
      "hit": false,
      "t": 67920,
      "d": 204,
      "v": 80
    },
    {
      "midi": 72,
      "hit": false,
      "t": 67920,
      "d": 240,
      "v": 80
    },
    {
      "midi": 48,
      "hit": false,
      "t": 67920,
      "d": 360,
      "v": 120
    },
    {
      "midi": 79,
      "hit": false,
      "t": 67920,
      "d": 120,
      "v": 70
    },
    {
      "midi": 36,
      "hit": false,
      "t": 67920,
      "d": 360,
      "v": 120
    },
    {
      "midi": 46,
      "hit": false,
      "t": 67920,
      "d": 216,
      "v": 100
    },
    {
      "midi": 36,
      "hit": false,
      "t": 67920,
      "d": 216,
      "v": 100
    },
    {
      "midi": 79,
      "hit": false,
      "t": 68040,
      "d": 120,
      "v": 90
    },
    {
      "midi": 44,
      "hit": false,
      "t": 68040,
      "d": 108,
      "v": 100
    },
    {
      "midi": 79,
      "hit": false,
      "t": 68160,
      "d": 288,
      "v": 120
    },
    {
      "midi": 75,
      "hit": false,
      "t": 68160,
      "d": 306,
      "v": 80
    },
    {
      "midi": 72,
      "hit": false,
      "t": 68160,
      "d": 360,
      "v": 80
    },
    {
      "midi": 63,
      "hit": false,
      "t": 68160,
      "d": 960,
      "v": 80
    },
    {
      "midi": 79,
      "hit": false,
      "t": 68160,
      "d": 120,
      "v": 90
    },
    {
      "midi": 44,
      "hit": false,
      "t": 68160,
      "d": 108,
      "v": 100
    },
    {
      "midi": 46,
      "hit": false,
      "t": 68280,
      "d": 360,
      "v": 120
    },
    {
      "midi": 79,
      "hit": false,
      "t": 68280,
      "d": 120,
      "v": 70
    },
    {
      "midi": 34,
      "hit": false,
      "t": 68280,
      "d": 324,
      "v": 120
    },
    {
      "midi": 44,
      "hit": false,
      "t": 68280,
      "d": 108,
      "v": 100
    },
    {
      "midi": 46,
      "hit": false,
      "t": 68400,
      "d": 216,
      "v": 100
    },
    {
      "midi": 36,
      "hit": false,
      "t": 68400,
      "d": 216,
      "v": 100
    },
    {
      "midi": 84,
      "hit": false,
      "t": 68520,
      "d": 312,
      "v": 120
    },
    {
      "midi": 75,
      "hit": false,
      "t": 68520,
      "d": 324,
      "v": 80
    },
    {
      "midi": 72,
      "hit": false,
      "t": 68520,
      "d": 360,
      "v": 80
    },
    {
      "midi": 44,
      "hit": false,
      "t": 68520,
      "d": 108,
      "v": 100
    },
    {
      "midi": 48,
      "hit": false,
      "t": 68640,
      "d": 240,
      "v": 120
    },
    {
      "midi": 36,
      "hit": false,
      "t": 68640,
      "d": 216,
      "v": 120
    },
    {
      "midi": 44,
      "hit": false,
      "t": 68640,
      "d": 108,
      "v": 100
    },
    {
      "midi": 38,
      "hit": false,
      "t": 68640,
      "d": 432,
      "v": 100
    },
    {
      "midi": 44,
      "hit": false,
      "t": 68760,
      "d": 108,
      "v": 100
    },
    {
      "midi": 79,
      "hit": false,
      "t": 68880,
      "d": 192,
      "v": 120
    },
    {
      "midi": 75,
      "hit": false,
      "t": 68880,
      "d": 204,
      "v": 80
    },
    {
      "midi": 72,
      "hit": false,
      "t": 68880,
      "d": 240,
      "v": 80
    },
    {
      "midi": 46,
      "hit": false,
      "t": 68880,
      "d": 240,
      "v": 120
    },
    {
      "midi": 79,
      "hit": false,
      "t": 68880,
      "d": 120,
      "v": 70
    },
    {
      "midi": 34,
      "hit": false,
      "t": 68880,
      "d": 216,
      "v": 120
    },
    {
      "midi": 46,
      "hit": false,
      "t": 68880,
      "d": 216,
      "v": 100
    },
    {
      "midi": 36,
      "hit": false,
      "t": 68880,
      "d": 216,
      "v": 100
    },
    {
      "midi": 79,
      "hit": false,
      "t": 69000,
      "d": 120,
      "v": 90
    },
    {
      "midi": 44,
      "hit": false,
      "t": 69000,
      "d": 108,
      "v": 100
    },
    {
      "midi": 79,
      "hit": false,
      "t": 69120,
      "d": 288,
      "v": 120
    },
    {
      "midi": 74,
      "hit": false,
      "t": 69120,
      "d": 306,
      "v": 80
    },
    {
      "midi": 72,
      "hit": false,
      "t": 69120,
      "d": 360,
      "v": 80
    },
    {
      "midi": 62,
      "hit": false,
      "t": 69120,
      "d": 1200,
      "v": 80
    },
    {
      "midi": 48,
      "hit": false,
      "t": 69120,
      "d": 360,
      "v": 120
    },
    {
      "midi": 79,
      "hit": false,
      "t": 69120,
      "d": 120,
      "v": 90
    },
    {
      "midi": 36,
      "hit": false,
      "t": 69120,
      "d": 360,
      "v": 120
    },
    {
      "midi": 44,
      "hit": false,
      "t": 69120,
      "d": 108,
      "v": 100
    },
    {
      "midi": 36,
      "hit": false,
      "t": 69120,
      "d": 324,
      "v": 100
    },
    {
      "midi": 79,
      "hit": false,
      "t": 69240,
      "d": 120,
      "v": 70
    },
    {
      "midi": 44,
      "hit": false,
      "t": 69240,
      "d": 108,
      "v": 100
    },
    {
      "midi": 46,
      "hit": false,
      "t": 69360,
      "d": 216,
      "v": 100
    },
    {
      "midi": 79,
      "hit": false,
      "t": 69480,
      "d": 312,
      "v": 120
    },
    {
      "midi": 74,
      "hit": false,
      "t": 69480,
      "d": 324,
      "v": 80
    },
    {
      "midi": 72,
      "hit": false,
      "t": 69480,
      "d": 360,
      "v": 80
    },
    {
      "midi": 46,
      "hit": false,
      "t": 69480,
      "d": 360,
      "v": 120
    },
    {
      "midi": 34,
      "hit": false,
      "t": 69480,
      "d": 360,
      "v": 120
    },
    {
      "midi": 44,
      "hit": false,
      "t": 69480,
      "d": 108,
      "v": 100
    },
    {
      "midi": 36,
      "hit": false,
      "t": 69480,
      "d": 108,
      "v": 100
    },
    {
      "midi": 44,
      "hit": false,
      "t": 69600,
      "d": 108,
      "v": 100
    },
    {
      "midi": 38,
      "hit": false,
      "t": 69600,
      "d": 432,
      "v": 100
    },
    {
      "midi": 44,
      "hit": false,
      "t": 69720,
      "d": 108,
      "v": 100
    },
    {
      "midi": 79,
      "hit": false,
      "t": 69840,
      "d": 192,
      "v": 120
    },
    {
      "midi": 74,
      "hit": false,
      "t": 69840,
      "d": 204,
      "v": 80
    },
    {
      "midi": 72,
      "hit": false,
      "t": 69840,
      "d": 240,
      "v": 80
    },
    {
      "midi": 48,
      "hit": false,
      "t": 69840,
      "d": 360,
      "v": 120
    },
    {
      "midi": 79,
      "hit": false,
      "t": 69840,
      "d": 120,
      "v": 70
    },
    {
      "midi": 36,
      "hit": false,
      "t": 69840,
      "d": 360,
      "v": 120
    },
    {
      "midi": 46,
      "hit": false,
      "t": 69840,
      "d": 216,
      "v": 100
    },
    {
      "midi": 36,
      "hit": false,
      "t": 69840,
      "d": 216,
      "v": 100
    },
    {
      "midi": 79,
      "hit": false,
      "t": 69960,
      "d": 120,
      "v": 90
    },
    {
      "midi": 44,
      "hit": false,
      "t": 69960,
      "d": 108,
      "v": 100
    },
    {
      "midi": 79,
      "hit": false,
      "t": 70080,
      "d": 288,
      "v": 120
    },
    {
      "midi": 74,
      "hit": false,
      "t": 70080,
      "d": 306,
      "v": 80
    },
    {
      "midi": 72,
      "hit": false,
      "t": 70080,
      "d": 360,
      "v": 80
    },
    {
      "midi": 79,
      "hit": false,
      "t": 70080,
      "d": 120,
      "v": 90
    },
    {
      "midi": 44,
      "hit": false,
      "t": 70080,
      "d": 108,
      "v": 100
    },
    {
      "midi": 46,
      "hit": false,
      "t": 70200,
      "d": 360,
      "v": 120
    },
    {
      "midi": 79,
      "hit": false,
      "t": 70200,
      "d": 120,
      "v": 70
    },
    {
      "midi": 34,
      "hit": false,
      "t": 70200,
      "d": 324,
      "v": 120
    },
    {
      "midi": 44,
      "hit": false,
      "t": 70200,
      "d": 108,
      "v": 100
    },
    {
      "midi": 77,
      "hit": false,
      "t": 70320,
      "d": 720,
      "v": 90
    },
    {
      "midi": 46,
      "hit": false,
      "t": 70320,
      "d": 216,
      "v": 100
    },
    {
      "midi": 36,
      "hit": false,
      "t": 70320,
      "d": 216,
      "v": 100
    },
    {
      "midi": 84,
      "hit": false,
      "t": 70440,
      "d": 312,
      "v": 120
    },
    {
      "midi": 74,
      "hit": false,
      "t": 70440,
      "d": 324,
      "v": 80
    },
    {
      "midi": 72,
      "hit": false,
      "t": 70440,
      "d": 360,
      "v": 80
    },
    {
      "midi": 44,
      "hit": false,
      "t": 70440,
      "d": 108,
      "v": 100
    },
    {
      "midi": 65,
      "hit": false,
      "t": 70560,
      "d": 480,
      "v": 120
    },
    {
      "midi": 60,
      "hit": false,
      "t": 70560,
      "d": 480,
      "v": 120
    },
    {
      "midi": 36,
      "hit": false,
      "t": 70560,
      "d": 216,
      "v": 120
    },
    {
      "midi": 44,
      "hit": false,
      "t": 70560,
      "d": 108,
      "v": 100
    },
    {
      "midi": 38,
      "hit": false,
      "t": 70560,
      "d": 432,
      "v": 100
    },
    {
      "midi": 44,
      "hit": false,
      "t": 70680,
      "d": 108,
      "v": 100
    },
    {
      "midi": 79,
      "hit": false,
      "t": 70800,
      "d": 192,
      "v": 120
    },
    {
      "midi": 74,
      "hit": false,
      "t": 70800,
      "d": 204,
      "v": 80
    },
    {
      "midi": 72,
      "hit": false,
      "t": 70800,
      "d": 240,
      "v": 80
    },
    {
      "midi": 79,
      "hit": false,
      "t": 70800,
      "d": 120,
      "v": 70
    },
    {
      "midi": 36,
      "hit": false,
      "t": 70800,
      "d": 216,
      "v": 120
    },
    {
      "midi": 46,
      "hit": false,
      "t": 70800,
      "d": 216,
      "v": 100
    },
    {
      "midi": 79,
      "hit": false,
      "t": 70920,
      "d": 120,
      "v": 90
    },
    {
      "midi": 44,
      "hit": false,
      "t": 70920,
      "d": 108,
      "v": 100
    },
    {
      "midi": 79,
      "hit": false,
      "t": 71040,
      "d": 288,
      "v": 120
    },
    {
      "midi": 75,
      "hit": false,
      "t": 71040,
      "d": 306,
      "v": 80
    },
    {
      "midi": 72,
      "hit": false,
      "t": 71040,
      "d": 360,
      "v": 80
    },
    {
      "midi": 75,
      "hit": false,
      "t": 71040,
      "d": 960,
      "v": 90
    },
    {
      "midi": 44,
      "hit": false,
      "t": 71040,
      "d": 360,
      "v": 120
    },
    {
      "midi": 79,
      "hit": false,
      "t": 71040,
      "d": 120,
      "v": 90
    },
    {
      "midi": 32,
      "hit": false,
      "t": 71040,
      "d": 360,
      "v": 120
    },
    {
      "midi": 44,
      "hit": false,
      "t": 71040,
      "d": 108,
      "v": 100
    },
    {
      "midi": 36,
      "hit": false,
      "t": 71040,
      "d": 324,
      "v": 100
    },
    {
      "midi": 79,
      "hit": false,
      "t": 71160,
      "d": 120,
      "v": 70
    },
    {
      "midi": 44,
      "hit": false,
      "t": 71160,
      "d": 108,
      "v": 100
    },
    {
      "midi": 46,
      "hit": false,
      "t": 71280,
      "d": 216,
      "v": 100
    },
    {
      "midi": 79,
      "hit": false,
      "t": 71400,
      "d": 312,
      "v": 120
    },
    {
      "midi": 75,
      "hit": false,
      "t": 71400,
      "d": 324,
      "v": 80
    },
    {
      "midi": 72,
      "hit": false,
      "t": 71400,
      "d": 360,
      "v": 80
    },
    {
      "midi": 44,
      "hit": false,
      "t": 71400,
      "d": 360,
      "v": 120
    },
    {
      "midi": 32,
      "hit": false,
      "t": 71400,
      "d": 360,
      "v": 120
    },
    {
      "midi": 44,
      "hit": false,
      "t": 71400,
      "d": 108,
      "v": 100
    },
    {
      "midi": 36,
      "hit": false,
      "t": 71400,
      "d": 108,
      "v": 100
    },
    {
      "midi": 44,
      "hit": false,
      "t": 71520,
      "d": 108,
      "v": 100
    },
    {
      "midi": 38,
      "hit": false,
      "t": 71520,
      "d": 432,
      "v": 100
    },
    {
      "midi": 44,
      "hit": false,
      "t": 71640,
      "d": 108,
      "v": 100
    },
    {
      "midi": 80,
      "hit": false,
      "t": 71760,
      "d": 192,
      "v": 120
    },
    {
      "midi": 77,
      "hit": false,
      "t": 71760,
      "d": 204,
      "v": 80
    },
    {
      "midi": 74,
      "hit": false,
      "t": 71760,
      "d": 240,
      "v": 80
    },
    {
      "midi": 44,
      "hit": false,
      "t": 71760,
      "d": 240,
      "v": 120
    },
    {
      "midi": 79,
      "hit": false,
      "t": 71760,
      "d": 120,
      "v": 70
    },
    {
      "midi": 32,
      "hit": false,
      "t": 71760,
      "d": 240,
      "v": 120
    },
    {
      "midi": 46,
      "hit": false,
      "t": 71760,
      "d": 216,
      "v": 100
    },
    {
      "midi": 36,
      "hit": false,
      "t": 71760,
      "d": 216,
      "v": 100
    },
    {
      "midi": 79,
      "hit": false,
      "t": 71880,
      "d": 120,
      "v": 90
    },
    {
      "midi": 44,
      "hit": false,
      "t": 71880,
      "d": 108,
      "v": 100
    },
    {
      "midi": 79,
      "hit": false,
      "t": 72000,
      "d": 288,
      "v": 120
    },
    {
      "midi": 75,
      "hit": false,
      "t": 72000,
      "d": 306,
      "v": 80
    },
    {
      "midi": 72,
      "hit": false,
      "t": 72000,
      "d": 360,
      "v": 80
    },
    {
      "midi": 74,
      "hit": false,
      "t": 72000,
      "d": 960,
      "v": 90
    },
    {
      "midi": 46,
      "hit": false,
      "t": 72000,
      "d": 360,
      "v": 120
    },
    {
      "midi": 79,
      "hit": false,
      "t": 72000,
      "d": 120,
      "v": 90
    },
    {
      "midi": 34,
      "hit": false,
      "t": 72000,
      "d": 360,
      "v": 120
    },
    {
      "midi": 44,
      "hit": false,
      "t": 72000,
      "d": 108,
      "v": 100
    },
    {
      "midi": 79,
      "hit": false,
      "t": 72120,
      "d": 120,
      "v": 70
    },
    {
      "midi": 44,
      "hit": false,
      "t": 72120,
      "d": 108,
      "v": 100
    },
    {
      "midi": 46,
      "hit": false,
      "t": 72240,
      "d": 216,
      "v": 100
    },
    {
      "midi": 36,
      "hit": false,
      "t": 72240,
      "d": 216,
      "v": 100
    },
    {
      "midi": 77,
      "hit": false,
      "t": 72360,
      "d": 312,
      "v": 120
    },
    {
      "midi": 74,
      "hit": false,
      "t": 72360,
      "d": 324,
      "v": 80
    },
    {
      "midi": 70,
      "hit": false,
      "t": 72360,
      "d": 360,
      "v": 80
    },
    {
      "midi": 46,
      "hit": false,
      "t": 72360,
      "d": 360,
      "v": 120
    },
    {
      "midi": 34,
      "hit": false,
      "t": 72360,
      "d": 360,
      "v": 120
    },
    {
      "midi": 44,
      "hit": false,
      "t": 72360,
      "d": 108,
      "v": 100
    },
    {
      "midi": 44,
      "hit": false,
      "t": 72480,
      "d": 108,
      "v": 100
    },
    {
      "midi": 38,
      "hit": false,
      "t": 72480,
      "d": 432,
      "v": 100
    },
    {
      "midi": 44,
      "hit": false,
      "t": 72600,
      "d": 108,
      "v": 100
    },
    {
      "midi": 75,
      "hit": false,
      "t": 72720,
      "d": 192,
      "v": 120
    },
    {
      "midi": 70,
      "hit": false,
      "t": 72720,
      "d": 204,
      "v": 80
    },
    {
      "midi": 67,
      "hit": false,
      "t": 72720,
      "d": 240,
      "v": 80
    },
    {
      "midi": 46,
      "hit": false,
      "t": 72720,
      "d": 240,
      "v": 120
    },
    {
      "midi": 79,
      "hit": false,
      "t": 72720,
      "d": 120,
      "v": 70
    },
    {
      "midi": 34,
      "hit": false,
      "t": 72720,
      "d": 240,
      "v": 120
    },
    {
      "midi": 46,
      "hit": false,
      "t": 72720,
      "d": 216,
      "v": 100
    },
    {
      "midi": 79,
      "hit": false,
      "t": 72840,
      "d": 120,
      "v": 90
    },
    {
      "midi": 44,
      "hit": false,
      "t": 72840,
      "d": 108,
      "v": 100
    },
    {
      "midi": 77,
      "hit": false,
      "t": 72960,
      "d": 288,
      "v": 120
    },
    {
      "midi": 70,
      "hit": false,
      "t": 72960,
      "d": 306,
      "v": 80
    },
    {
      "midi": 67,
      "hit": false,
      "t": 72960,
      "d": 360,
      "v": 80
    },
    {
      "midi": 74,
      "hit": false,
      "t": 72960,
      "d": 960,
      "v": 90
    },
    {
      "midi": 62,
      "hit": false,
      "t": 72960,
      "d": 864,
      "v": 120
    },
    {
      "midi": 58,
      "hit": false,
      "t": 72960,
      "d": 864,
      "v": 120
    },
    {
      "midi": 79,
      "hit": false,
      "t": 72960,
      "d": 120,
      "v": 90
    },
    {
      "midi": 31,
      "hit": false,
      "t": 72960,
      "d": 360,
      "v": 120
    },
    {
      "midi": 44,
      "hit": false,
      "t": 72960,
      "d": 108,
      "v": 100
    },
    {
      "midi": 36,
      "hit": false,
      "t": 72960,
      "d": 324,
      "v": 100
    },
    {
      "midi": 79,
      "hit": false,
      "t": 73080,
      "d": 120,
      "v": 70
    },
    {
      "midi": 44,
      "hit": false,
      "t": 73080,
      "d": 108,
      "v": 100
    },
    {
      "midi": 46,
      "hit": false,
      "t": 73200,
      "d": 216,
      "v": 100
    },
    {
      "midi": 75,
      "hit": false,
      "t": 73320,
      "d": 312,
      "v": 120
    },
    {
      "midi": 70,
      "hit": false,
      "t": 73320,
      "d": 324,
      "v": 80
    },
    {
      "midi": 67,
      "hit": false,
      "t": 73320,
      "d": 360,
      "v": 80
    },
    {
      "midi": 31,
      "hit": false,
      "t": 73320,
      "d": 360,
      "v": 120
    },
    {
      "midi": 44,
      "hit": false,
      "t": 73320,
      "d": 108,
      "v": 100
    },
    {
      "midi": 36,
      "hit": false,
      "t": 73320,
      "d": 108,
      "v": 100
    },
    {
      "midi": 44,
      "hit": false,
      "t": 73440,
      "d": 108,
      "v": 100
    },
    {
      "midi": 38,
      "hit": false,
      "t": 73440,
      "d": 432,
      "v": 100
    },
    {
      "midi": 44,
      "hit": false,
      "t": 73560,
      "d": 108,
      "v": 100
    },
    {
      "midi": 74,
      "hit": false,
      "t": 73680,
      "d": 192,
      "v": 120
    },
    {
      "midi": 70,
      "hit": false,
      "t": 73680,
      "d": 204,
      "v": 80
    },
    {
      "midi": 67,
      "hit": false,
      "t": 73680,
      "d": 240,
      "v": 80
    },
    {
      "midi": 79,
      "hit": false,
      "t": 73680,
      "d": 120,
      "v": 70
    },
    {
      "midi": 35,
      "hit": false,
      "t": 73680,
      "d": 240,
      "v": 120
    },
    {
      "midi": 46,
      "hit": false,
      "t": 73680,
      "d": 216,
      "v": 100
    },
    {
      "midi": 36,
      "hit": false,
      "t": 73680,
      "d": 216,
      "v": 100
    },
    {
      "midi": 79,
      "hit": false,
      "t": 73800,
      "d": 120,
      "v": 90
    },
    {
      "midi": 44,
      "hit": false,
      "t": 73800,
      "d": 108,
      "v": 100
    },
    {
      "midi": 75,
      "hit": false,
      "t": 73920,
      "d": 384,
      "v": 120
    },
    {
      "midi": 72,
      "hit": false,
      "t": 73920,
      "d": 408,
      "v": 80
    },
    {
      "midi": 67,
      "hit": false,
      "t": 73920,
      "d": 480,
      "v": 65
    },
    {
      "midi": 72,
      "hit": false,
      "t": 73920,
      "d": 960,
      "v": 80
    },
    {
      "midi": 60,
      "hit": false,
      "t": 73920,
      "d": 216,
      "v": 120
    },
    {
      "midi": 55,
      "hit": false,
      "t": 73920,
      "d": 216,
      "v": 120
    },
    {
      "midi": 79,
      "hit": false,
      "t": 73920,
      "d": 120,
      "v": 90
    },
    {
      "midi": 36,
      "hit": false,
      "t": 73920,
      "d": 360,
      "v": 120
    },
    {
      "midi": 44,
      "hit": false,
      "t": 73920,
      "d": 108,
      "v": 100
    },
    {
      "midi": 79,
      "hit": false,
      "t": 74040,
      "d": 120,
      "v": 70
    },
    {
      "midi": 44,
      "hit": false,
      "t": 74040,
      "d": 108,
      "v": 100
    },
    {
      "midi": 60,
      "hit": false,
      "t": 74160,
      "d": 36,
      "v": 120
    },
    {
      "midi": 55,
      "hit": false,
      "t": 74160,
      "d": 120,
      "v": 120
    },
    {
      "midi": 46,
      "hit": false,
      "t": 74160,
      "d": 216,
      "v": 100
    },
    {
      "midi": 36,
      "hit": false,
      "t": 74160,
      "d": 216,
      "v": 100
    },
    {
      "midi": 60,
      "hit": false,
      "t": 74280,
      "d": 108,
      "v": 120
    },
    {
      "midi": 55,
      "hit": false,
      "t": 74280,
      "d": 108,
      "v": 120
    },
    {
      "midi": 36,
      "hit": false,
      "t": 74280,
      "d": 360,
      "v": 120
    },
    {
      "midi": 44,
      "hit": false,
      "t": 74280,
      "d": 108,
      "v": 100
    },
    {
      "midi": 60,
      "hit": false,
      "t": 74400,
      "d": 432,
      "v": 120
    },
    {
      "midi": 55,
      "hit": false,
      "t": 74400,
      "d": 432,
      "v": 120
    },
    {
      "midi": 44,
      "hit": false,
      "t": 74400,
      "d": 108,
      "v": 100
    },
    {
      "midi": 38,
      "hit": false,
      "t": 74400,
      "d": 432,
      "v": 100
    },
    {
      "midi": 44,
      "hit": false,
      "t": 74520,
      "d": 108,
      "v": 100
    },
    {
      "midi": 72,
      "hit": false,
      "t": 74640,
      "d": 96,
      "v": 120
    },
    {
      "midi": 79,
      "hit": false,
      "t": 74640,
      "d": 120,
      "v": 70
    },
    {
      "midi": 31,
      "hit": false,
      "t": 74640,
      "d": 240,
      "v": 120
    },
    {
      "midi": 46,
      "hit": false,
      "t": 74640,
      "d": 216,
      "v": 100
    },
    {
      "midi": 74,
      "hit": false,
      "t": 74760,
      "d": 96,
      "v": 120
    },
    {
      "midi": 79,
      "hit": false,
      "t": 74760,
      "d": 120,
      "v": 90
    },
    {
      "midi": 44,
      "hit": false,
      "t": 74760,
      "d": 108,
      "v": 100
    },
    {
      "midi": 75,
      "hit": false,
      "t": 74880,
      "d": 288,
      "v": 120
    },
    {
      "midi": 75,
      "hit": false,
      "t": 74880,
      "d": 1920,
      "v": 100
    },
    {
      "midi": 72,
      "hit": false,
      "t": 74880,
      "d": 1920,
      "v": 100
    },
    {
      "midi": 44,
      "hit": false,
      "t": 74880,
      "d": 324,
      "v": 120
    },
    {
      "midi": 79,
      "hit": false,
      "t": 74880,
      "d": 120,
      "v": 90
    },
    {
      "midi": 32,
      "hit": false,
      "t": 74880,
      "d": 360,
      "v": 120
    },
    {
      "midi": 44,
      "hit": false,
      "t": 74880,
      "d": 108,
      "v": 100
    },
    {
      "midi": 36,
      "hit": false,
      "t": 74880,
      "d": 324,
      "v": 100
    },
    {
      "midi": 79,
      "hit": false,
      "t": 75000,
      "d": 120,
      "v": 70
    },
    {
      "midi": 44,
      "hit": false,
      "t": 75000,
      "d": 108,
      "v": 100
    },
    {
      "midi": 46,
      "hit": false,
      "t": 75120,
      "d": 216,
      "v": 100
    },
    {
      "midi": 75,
      "hit": false,
      "t": 75240,
      "d": 312,
      "v": 120
    },
    {
      "midi": 44,
      "hit": false,
      "t": 75240,
      "d": 336,
      "v": 120
    },
    {
      "midi": 32,
      "hit": false,
      "t": 75240,
      "d": 360,
      "v": 120
    },
    {
      "midi": 44,
      "hit": false,
      "t": 75240,
      "d": 108,
      "v": 100
    },
    {
      "midi": 36,
      "hit": false,
      "t": 75240,
      "d": 108,
      "v": 100
    },
    {
      "midi": 44,
      "hit": false,
      "t": 75360,
      "d": 108,
      "v": 100
    },
    {
      "midi": 38,
      "hit": false,
      "t": 75360,
      "d": 432,
      "v": 100
    },
    {
      "midi": 44,
      "hit": false,
      "t": 75480,
      "d": 108,
      "v": 100
    },
    {
      "midi": 75,
      "hit": false,
      "t": 75600,
      "d": 192,
      "v": 120
    },
    {
      "midi": 44,
      "hit": false,
      "t": 75600,
      "d": 216,
      "v": 120
    },
    {
      "midi": 79,
      "hit": false,
      "t": 75600,
      "d": 120,
      "v": 70
    },
    {
      "midi": 32,
      "hit": false,
      "t": 75600,
      "d": 360,
      "v": 120
    },
    {
      "midi": 46,
      "hit": false,
      "t": 75600,
      "d": 216,
      "v": 100
    },
    {
      "midi": 36,
      "hit": false,
      "t": 75600,
      "d": 216,
      "v": 100
    },
    {
      "midi": 79,
      "hit": false,
      "t": 75720,
      "d": 120,
      "v": 90
    },
    {
      "midi": 44,
      "hit": false,
      "t": 75720,
      "d": 108,
      "v": 100
    },
    {
      "midi": 75,
      "hit": false,
      "t": 75840,
      "d": 288,
      "v": 120
    },
    {
      "midi": 79,
      "hit": false,
      "t": 75840,
      "d": 120,
      "v": 90
    },
    {
      "midi": 44,
      "hit": false,
      "t": 75840,
      "d": 108,
      "v": 100
    },
    {
      "midi": 44,
      "hit": false,
      "t": 75960,
      "d": 360,
      "v": 120
    },
    {
      "midi": 79,
      "hit": false,
      "t": 75960,
      "d": 120,
      "v": 70
    },
    {
      "midi": 32,
      "hit": false,
      "t": 75960,
      "d": 360,
      "v": 120
    },
    {
      "midi": 44,
      "hit": false,
      "t": 75960,
      "d": 108,
      "v": 100
    },
    {
      "midi": 46,
      "hit": false,
      "t": 76080,
      "d": 216,
      "v": 100
    },
    {
      "midi": 36,
      "hit": false,
      "t": 76080,
      "d": 216,
      "v": 100
    },
    {
      "midi": 84,
      "hit": false,
      "t": 76200,
      "d": 312,
      "v": 120
    },
    {
      "midi": 44,
      "hit": false,
      "t": 76200,
      "d": 108,
      "v": 100
    },
    {
      "midi": 44,
      "hit": false,
      "t": 76320,
      "d": 240,
      "v": 120
    },
    {
      "midi": 32,
      "hit": false,
      "t": 76320,
      "d": 240,
      "v": 120
    },
    {
      "midi": 44,
      "hit": false,
      "t": 76320,
      "d": 108,
      "v": 100
    },
    {
      "midi": 38,
      "hit": false,
      "t": 76320,
      "d": 432,
      "v": 100
    },
    {
      "midi": 44,
      "hit": false,
      "t": 76440,
      "d": 108,
      "v": 100
    },
    {
      "midi": 79,
      "hit": false,
      "t": 76560,
      "d": 192,
      "v": 120
    },
    {
      "midi": 44,
      "hit": false,
      "t": 76560,
      "d": 240,
      "v": 120
    },
    {
      "midi": 79,
      "hit": false,
      "t": 76560,
      "d": 120,
      "v": 70
    },
    {
      "midi": 32,
      "hit": false,
      "t": 76560,
      "d": 240,
      "v": 120
    },
    {
      "midi": 46,
      "hit": false,
      "t": 76560,
      "d": 216,
      "v": 100
    },
    {
      "midi": 79,
      "hit": false,
      "t": 76680,
      "d": 120,
      "v": 90
    },
    {
      "midi": 44,
      "hit": false,
      "t": 76680,
      "d": 108,
      "v": 100
    },
    {
      "midi": 79,
      "hit": false,
      "t": 76800,
      "d": 576,
      "v": 120
    },
    {
      "midi": 82,
      "hit": false,
      "t": 76800,
      "d": 1920,
      "v": 100
    },
    {
      "midi": 77,
      "hit": false,
      "t": 76800,
      "d": 1920,
      "v": 100
    },
    {
      "midi": 46,
      "hit": false,
      "t": 76800,
      "d": 324,
      "v": 120
    },
    {
      "midi": 79,
      "hit": false,
      "t": 76800,
      "d": 120,
      "v": 90
    },
    {
      "midi": 34,
      "hit": false,
      "t": 76800,
      "d": 360,
      "v": 120
    },
    {
      "midi": 44,
      "hit": false,
      "t": 76800,
      "d": 108,
      "v": 100
    },
    {
      "midi": 36,
      "hit": false,
      "t": 76800,
      "d": 324,
      "v": 100
    },
    {
      "midi": 79,
      "hit": false,
      "t": 76920,
      "d": 120,
      "v": 70
    },
    {
      "midi": 44,
      "hit": false,
      "t": 76920,
      "d": 108,
      "v": 100
    },
    {
      "midi": 46,
      "hit": false,
      "t": 77040,
      "d": 216,
      "v": 100
    },
    {
      "midi": 46,
      "hit": false,
      "t": 77160,
      "d": 336,
      "v": 120
    },
    {
      "midi": 34,
      "hit": false,
      "t": 77160,
      "d": 360,
      "v": 120
    },
    {
      "midi": 44,
      "hit": false,
      "t": 77160,
      "d": 108,
      "v": 100
    },
    {
      "midi": 36,
      "hit": false,
      "t": 77160,
      "d": 108,
      "v": 100
    },
    {
      "midi": 44,
      "hit": false,
      "t": 77280,
      "d": 108,
      "v": 100
    },
    {
      "midi": 38,
      "hit": false,
      "t": 77280,
      "d": 432,
      "v": 100
    },
    {
      "midi": 44,
      "hit": false,
      "t": 77400,
      "d": 108,
      "v": 100
    },
    {
      "midi": 77,
      "hit": false,
      "t": 77520,
      "d": 192,
      "v": 120
    },
    {
      "midi": 46,
      "hit": false,
      "t": 77520,
      "d": 216,
      "v": 120
    },
    {
      "midi": 79,
      "hit": false,
      "t": 77520,
      "d": 120,
      "v": 70
    },
    {
      "midi": 34,
      "hit": false,
      "t": 77520,
      "d": 360,
      "v": 120
    },
    {
      "midi": 46,
      "hit": false,
      "t": 77520,
      "d": 216,
      "v": 100
    },
    {
      "midi": 36,
      "hit": false,
      "t": 77520,
      "d": 216,
      "v": 100
    },
    {
      "midi": 79,
      "hit": false,
      "t": 77640,
      "d": 120,
      "v": 90
    },
    {
      "midi": 44,
      "hit": false,
      "t": 77640,
      "d": 108,
      "v": 100
    },
    {
      "midi": 77,
      "hit": false,
      "t": 77760,
      "d": 384,
      "v": 120
    },
    {
      "midi": 79,
      "hit": false,
      "t": 77760,
      "d": 120,
      "v": 90
    },
    {
      "midi": 44,
      "hit": false,
      "t": 77760,
      "d": 108,
      "v": 100
    },
    {
      "midi": 46,
      "hit": false,
      "t": 77880,
      "d": 360,
      "v": 120
    },
    {
      "midi": 79,
      "hit": false,
      "t": 77880,
      "d": 120,
      "v": 70
    },
    {
      "midi": 34,
      "hit": false,
      "t": 77880,
      "d": 360,
      "v": 120
    },
    {
      "midi": 44,
      "hit": false,
      "t": 77880,
      "d": 108,
      "v": 100
    },
    {
      "midi": 46,
      "hit": false,
      "t": 78000,
      "d": 216,
      "v": 100
    },
    {
      "midi": 36,
      "hit": false,
      "t": 78000,
      "d": 216,
      "v": 100
    },
    {
      "midi": 44,
      "hit": false,
      "t": 78120,
      "d": 108,
      "v": 100
    },
    {
      "midi": 46,
      "hit": false,
      "t": 78240,
      "d": 240,
      "v": 120
    },
    {
      "midi": 34,
      "hit": false,
      "t": 78240,
      "d": 240,
      "v": 120
    },
    {
      "midi": 44,
      "hit": false,
      "t": 78240,
      "d": 108,
      "v": 100
    },
    {
      "midi": 38,
      "hit": false,
      "t": 78240,
      "d": 432,
      "v": 100
    },
    {
      "midi": 44,
      "hit": false,
      "t": 78360,
      "d": 108,
      "v": 100
    },
    {
      "midi": 72,
      "hit": false,
      "t": 78480,
      "d": 96,
      "v": 120
    },
    {
      "midi": 46,
      "hit": false,
      "t": 78480,
      "d": 240,
      "v": 120
    },
    {
      "midi": 79,
      "hit": false,
      "t": 78480,
      "d": 120,
      "v": 70
    },
    {
      "midi": 34,
      "hit": false,
      "t": 78480,
      "d": 240,
      "v": 120
    },
    {
      "midi": 46,
      "hit": false,
      "t": 78480,
      "d": 216,
      "v": 100
    },
    {
      "midi": 74,
      "hit": false,
      "t": 78600,
      "d": 96,
      "v": 120
    },
    {
      "midi": 79,
      "hit": false,
      "t": 78600,
      "d": 120,
      "v": 90
    },
    {
      "midi": 44,
      "hit": false,
      "t": 78600,
      "d": 108,
      "v": 100
    },
    {
      "midi": 75,
      "hit": false,
      "t": 78720,
      "d": 384,
      "v": 120
    },
    {
      "midi": 48,
      "hit": false,
      "t": 78720,
      "d": 360,
      "v": 120
    },
    {
      "midi": 79,
      "hit": false,
      "t": 78720,
      "d": 120,
      "v": 90
    },
    {
      "midi": 36,
      "hit": false,
      "t": 78720,
      "d": 360,
      "v": 120
    },
    {
      "midi": 44,
      "hit": false,
      "t": 78720,
      "d": 108,
      "v": 100
    },
    {
      "midi": 36,
      "hit": false,
      "t": 78720,
      "d": 324,
      "v": 100
    },
    {
      "midi": 79,
      "hit": false,
      "t": 78840,
      "d": 120,
      "v": 70
    },
    {
      "midi": 44,
      "hit": false,
      "t": 78840,
      "d": 108,
      "v": 100
    },
    {
      "midi": 46,
      "hit": false,
      "t": 78960,
      "d": 216,
      "v": 100
    },
    {
      "midi": 43,
      "hit": false,
      "t": 79080,
      "d": 240,
      "v": 120
    },
    {
      "midi": 31,
      "hit": false,
      "t": 79080,
      "d": 240,
      "v": 120
    },
    {
      "midi": 44,
      "hit": false,
      "t": 79080,
      "d": 108,
      "v": 100
    },
    {
      "midi": 36,
      "hit": false,
      "t": 79080,
      "d": 108,
      "v": 100
    },
    {
      "midi": 44,
      "hit": false,
      "t": 79200,
      "d": 108,
      "v": 100
    },
    {
      "midi": 38,
      "hit": false,
      "t": 79200,
      "d": 432,
      "v": 100
    },
    {
      "midi": 48,
      "hit": false,
      "t": 79320,
      "d": 360,
      "v": 120
    },
    {
      "midi": 36,
      "hit": false,
      "t": 79320,
      "d": 360,
      "v": 120
    },
    {
      "midi": 44,
      "hit": false,
      "t": 79320,
      "d": 108,
      "v": 100
    },
    {
      "midi": 52,
      "hit": false,
      "t": 79320,
      "d": 324,
      "v": 100
    },
    {
      "midi": 75,
      "hit": false,
      "t": 79440,
      "d": 192,
      "v": 120
    },
    {
      "midi": 79,
      "hit": false,
      "t": 79440,
      "d": 120,
      "v": 70
    },
    {
      "midi": 46,
      "hit": false,
      "t": 79440,
      "d": 216,
      "v": 100
    },
    {
      "midi": 36,
      "hit": false,
      "t": 79440,
      "d": 216,
      "v": 100
    },
    {
      "midi": 79,
      "hit": false,
      "t": 79560,
      "d": 120,
      "v": 90
    },
    {
      "midi": 44,
      "hit": false,
      "t": 79560,
      "d": 108,
      "v": 100
    },
    {
      "midi": 77,
      "hit": false,
      "t": 79680,
      "d": 384,
      "v": 120
    },
    {
      "midi": 50,
      "hit": false,
      "t": 79680,
      "d": 360,
      "v": 120
    },
    {
      "midi": 79,
      "hit": false,
      "t": 79680,
      "d": 120,
      "v": 90
    },
    {
      "midi": 38,
      "hit": false,
      "t": 79680,
      "d": 360,
      "v": 120
    },
    {
      "midi": 44,
      "hit": false,
      "t": 79680,
      "d": 108,
      "v": 100
    },
    {
      "midi": 79,
      "hit": false,
      "t": 79800,
      "d": 120,
      "v": 70
    },
    {
      "midi": 44,
      "hit": false,
      "t": 79800,
      "d": 108,
      "v": 100
    },
    {
      "midi": 46,
      "hit": false,
      "t": 79920,
      "d": 216,
      "v": 100
    },
    {
      "midi": 36,
      "hit": false,
      "t": 79920,
      "d": 216,
      "v": 100
    },
    {
      "midi": 46,
      "hit": false,
      "t": 80040,
      "d": 240,
      "v": 120
    },
    {
      "midi": 34,
      "hit": false,
      "t": 80040,
      "d": 240,
      "v": 120
    },
    {
      "midi": 44,
      "hit": false,
      "t": 80040,
      "d": 108,
      "v": 100
    },
    {
      "midi": 44,
      "hit": false,
      "t": 80160,
      "d": 108,
      "v": 100
    },
    {
      "midi": 38,
      "hit": false,
      "t": 80160,
      "d": 432,
      "v": 100
    },
    {
      "midi": 50,
      "hit": false,
      "t": 80280,
      "d": 360,
      "v": 120
    },
    {
      "midi": 38,
      "hit": false,
      "t": 80280,
      "d": 360,
      "v": 120
    },
    {
      "midi": 44,
      "hit": false,
      "t": 80280,
      "d": 108,
      "v": 100
    },
    {
      "midi": 49,
      "hit": false,
      "t": 80280,
      "d": 324,
      "v": 80
    },
    {
      "midi": 77,
      "hit": false,
      "t": 80400,
      "d": 192,
      "v": 120
    },
    {
      "midi": 79,
      "hit": false,
      "t": 80400,
      "d": 120,
      "v": 70
    },
    {
      "midi": 46,
      "hit": false,
      "t": 80400,
      "d": 216,
      "v": 100
    },
    {
      "midi": 79,
      "hit": false,
      "t": 80520,
      "d": 120,
      "v": 90
    },
    {
      "midi": 44,
      "hit": false,
      "t": 80520,
      "d": 108,
      "v": 100
    },
    {
      "midi": 79,
      "hit": false,
      "t": 80640,
      "d": 384,
      "v": 120
    },
    {
      "midi": 51,
      "hit": false,
      "t": 80640,
      "d": 360,
      "v": 120
    },
    {
      "midi": 79,
      "hit": false,
      "t": 80640,
      "d": 120,
      "v": 90
    },
    {
      "midi": 39,
      "hit": false,
      "t": 80640,
      "d": 360,
      "v": 120
    },
    {
      "midi": 44,
      "hit": false,
      "t": 80640,
      "d": 108,
      "v": 100
    },
    {
      "midi": 36,
      "hit": false,
      "t": 80640,
      "d": 324,
      "v": 100
    },
    {
      "midi": 79,
      "hit": false,
      "t": 80760,
      "d": 120,
      "v": 70
    },
    {
      "midi": 44,
      "hit": false,
      "t": 80760,
      "d": 108,
      "v": 100
    },
    {
      "midi": 46,
      "hit": false,
      "t": 80880,
      "d": 216,
      "v": 100
    },
    {
      "midi": 46,
      "hit": false,
      "t": 81000,
      "d": 240,
      "v": 120
    },
    {
      "midi": 34,
      "hit": false,
      "t": 81000,
      "d": 240,
      "v": 120
    },
    {
      "midi": 44,
      "hit": false,
      "t": 81000,
      "d": 108,
      "v": 100
    },
    {
      "midi": 36,
      "hit": false,
      "t": 81000,
      "d": 108,
      "v": 100
    },
    {
      "midi": 44,
      "hit": false,
      "t": 81120,
      "d": 108,
      "v": 100
    },
    {
      "midi": 38,
      "hit": false,
      "t": 81120,
      "d": 432,
      "v": 100
    },
    {
      "midi": 51,
      "hit": false,
      "t": 81240,
      "d": 360,
      "v": 120
    },
    {
      "midi": 39,
      "hit": false,
      "t": 81240,
      "d": 360,
      "v": 120
    },
    {
      "midi": 44,
      "hit": false,
      "t": 81240,
      "d": 108,
      "v": 100
    },
    {
      "midi": 52,
      "hit": false,
      "t": 81240,
      "d": 324,
      "v": 100
    },
    {
      "midi": 79,
      "hit": false,
      "t": 81360,
      "d": 96,
      "v": 120
    },
    {
      "midi": 79,
      "hit": false,
      "t": 81360,
      "d": 120,
      "v": 70
    },
    {
      "midi": 46,
      "hit": false,
      "t": 81360,
      "d": 216,
      "v": 100
    },
    {
      "midi": 36,
      "hit": false,
      "t": 81360,
      "d": 216,
      "v": 100
    },
    {
      "midi": 79,
      "hit": false,
      "t": 81480,
      "d": 96,
      "v": 120
    },
    {
      "midi": 79,
      "hit": false,
      "t": 81480,
      "d": 120,
      "v": 90
    },
    {
      "midi": 44,
      "hit": false,
      "t": 81480,
      "d": 108,
      "v": 100
    },
    {
      "midi": 84,
      "hit": false,
      "t": 81600,
      "d": 384,
      "v": 120
    },
    {
      "midi": 79,
      "hit": false,
      "t": 81600,
      "d": 480,
      "v": 100
    },
    {
      "midi": 77,
      "hit": false,
      "t": 81600,
      "d": 480,
      "v": 100
    },
    {
      "midi": 43,
      "hit": false,
      "t": 81600,
      "d": 480,
      "v": 120
    },
    {
      "midi": 79,
      "hit": false,
      "t": 81600,
      "d": 120,
      "v": 90
    },
    {
      "midi": 31,
      "hit": false,
      "t": 81600,
      "d": 120,
      "v": 120
    },
    {
      "midi": 44,
      "hit": false,
      "t": 81600,
      "d": 108,
      "v": 100
    },
    {
      "midi": 79,
      "hit": false,
      "t": 81720,
      "d": 120,
      "v": 70
    },
    {
      "midi": 31,
      "hit": false,
      "t": 81720,
      "d": 120,
      "v": 120
    },
    {
      "midi": 44,
      "hit": false,
      "t": 81720,
      "d": 108,
      "v": 100
    },
    {
      "midi": 31,
      "hit": false,
      "t": 81840,
      "d": 120,
      "v": 120
    },
    {
      "midi": 38,
      "hit": false,
      "t": 81840,
      "d": 108,
      "v": 100
    },
    {
      "midi": 46,
      "hit": false,
      "t": 81840,
      "d": 216,
      "v": 100
    },
    {
      "midi": 36,
      "hit": false,
      "t": 81840,
      "d": 216,
      "v": 100
    },
    {
      "midi": 31,
      "hit": false,
      "t": 81960,
      "d": 120,
      "v": 120
    },
    {
      "midi": 44,
      "hit": false,
      "t": 81960,
      "d": 108,
      "v": 100
    },
    {
      "midi": 38,
      "hit": false,
      "t": 81960,
      "d": 108,
      "v": 100
    },
    {
      "midi": 83,
      "hit": false,
      "t": 82080,
      "d": 384,
      "v": 120
    },
    {
      "midi": 79,
      "hit": false,
      "t": 82080,
      "d": 480,
      "v": 100
    },
    {
      "midi": 77,
      "hit": false,
      "t": 82080,
      "d": 480,
      "v": 100
    },
    {
      "midi": 43,
      "hit": false,
      "t": 82080,
      "d": 480,
      "v": 120
    },
    {
      "midi": 43,
      "hit": false,
      "t": 82080,
      "d": 480,
      "v": 127
    },
    {
      "midi": 44,
      "hit": false,
      "t": 82080,
      "d": 108,
      "v": 100
    },
    {
      "midi": 38,
      "hit": false,
      "t": 82080,
      "d": 108,
      "v": 100
    },
    {
      "midi": 44,
      "hit": false,
      "t": 82200,
      "d": 108,
      "v": 100
    },
    {
      "midi": 38,
      "hit": false,
      "t": 82200,
      "d": 108,
      "v": 100
    },
    {
      "midi": 79,
      "hit": false,
      "t": 82320,
      "d": 120,
      "v": 70
    },
    {
      "midi": 47,
      "hit": false,
      "t": 82320,
      "d": 108,
      "v": 100
    },
    {
      "midi": 46,
      "hit": false,
      "t": 82320,
      "d": 216,
      "v": 100
    },
    {
      "midi": 79,
      "hit": false,
      "t": 82440,
      "d": 120,
      "v": 90
    },
    {
      "midi": 44,
      "hit": false,
      "t": 82440,
      "d": 108,
      "v": 100
    },
    {
      "midi": 43,
      "hit": false,
      "t": 82440,
      "d": 108,
      "v": 100
    },
    {
      "midi": 84,
      "hit": false,
      "t": 82560,
      "d": 3072,
      "v": 120
    },
    {
      "midi": 75,
      "hit": false,
      "t": 82560,
      "d": 1920,
      "v": 100
    },
    {
      "midi": 79,
      "hit": false,
      "t": 82560,
      "d": 3360,
      "v": 100
    },
    {
      "midi": 79,
      "hit": false,
      "t": 82560,
      "d": 2280,
      "v": 127
    },
    {
      "midi": 79,
      "hit": false,
      "t": 82560,
      "d": 2280,
      "v": 127
    },
    {
      "midi": 60,
      "hit": false,
      "t": 82560,
      "d": 306,
      "v": 105
    },
    {
      "midi": 55,
      "hit": false,
      "t": 82560,
      "d": 360,
      "v": 105
    },
    {
      "midi": 79,
      "hit": false,
      "t": 82560,
      "d": 120,
      "v": 90
    },
    {
      "midi": 36,
      "hit": false,
      "t": 82560,
      "d": 360,
      "v": 120
    },
    {
      "midi": 44,
      "hit": false,
      "t": 82560,
      "d": 108,
      "v": 100
    },
    {
      "midi": 36,
      "hit": false,
      "t": 82560,
      "d": 324,
      "v": 100
    },
    {
      "midi": 49,
      "hit": false,
      "t": 82560,
      "d": 432,
      "v": 100
    },
    {
      "midi": 79,
      "hit": false,
      "t": 82680,
      "d": 120,
      "v": 70
    },
    {
      "midi": 44,
      "hit": false,
      "t": 82680,
      "d": 108,
      "v": 100
    },
    {
      "midi": 46,
      "hit": false,
      "t": 82800,
      "d": 216,
      "v": 100
    },
    {
      "midi": 60,
      "hit": false,
      "t": 82920,
      "d": 324,
      "v": 105
    },
    {
      "midi": 55,
      "hit": false,
      "t": 82920,
      "d": 360,
      "v": 105
    },
    {
      "midi": 34,
      "hit": false,
      "t": 82920,
      "d": 360,
      "v": 120
    },
    {
      "midi": 44,
      "hit": false,
      "t": 82920,
      "d": 108,
      "v": 100
    },
    {
      "midi": 36,
      "hit": false,
      "t": 82920,
      "d": 108,
      "v": 100
    },
    {
      "midi": 44,
      "hit": false,
      "t": 83040,
      "d": 108,
      "v": 100
    },
    {
      "midi": 38,
      "hit": false,
      "t": 83040,
      "d": 432,
      "v": 100
    },
    {
      "midi": 44,
      "hit": false,
      "t": 83160,
      "d": 108,
      "v": 100
    },
    {
      "midi": 60,
      "hit": false,
      "t": 83280,
      "d": 342,
      "v": 105
    },
    {
      "midi": 55,
      "hit": false,
      "t": 83280,
      "d": 360,
      "v": 105
    },
    {
      "midi": 79,
      "hit": false,
      "t": 83280,
      "d": 120,
      "v": 70
    },
    {
      "midi": 36,
      "hit": false,
      "t": 83280,
      "d": 360,
      "v": 120
    },
    {
      "midi": 46,
      "hit": false,
      "t": 83280,
      "d": 216,
      "v": 100
    },
    {
      "midi": 36,
      "hit": false,
      "t": 83280,
      "d": 216,
      "v": 100
    },
    {
      "midi": 79,
      "hit": false,
      "t": 83400,
      "d": 120,
      "v": 90
    },
    {
      "midi": 44,
      "hit": false,
      "t": 83400,
      "d": 108,
      "v": 100
    },
    {
      "midi": 79,
      "hit": false,
      "t": 83520,
      "d": 120,
      "v": 90
    },
    {
      "midi": 44,
      "hit": false,
      "t": 83520,
      "d": 108,
      "v": 100
    },
    {
      "midi": 60,
      "hit": false,
      "t": 83640,
      "d": 306,
      "v": 105
    },
    {
      "midi": 55,
      "hit": false,
      "t": 83640,
      "d": 360,
      "v": 105
    },
    {
      "midi": 79,
      "hit": false,
      "t": 83640,
      "d": 120,
      "v": 70
    },
    {
      "midi": 34,
      "hit": false,
      "t": 83640,
      "d": 324,
      "v": 120
    },
    {
      "midi": 44,
      "hit": false,
      "t": 83640,
      "d": 108,
      "v": 100
    },
    {
      "midi": 46,
      "hit": false,
      "t": 83760,
      "d": 216,
      "v": 100
    },
    {
      "midi": 36,
      "hit": false,
      "t": 83760,
      "d": 216,
      "v": 100
    },
    {
      "midi": 44,
      "hit": false,
      "t": 83880,
      "d": 108,
      "v": 100
    },
    {
      "midi": 60,
      "hit": false,
      "t": 84000,
      "d": 204,
      "v": 105
    },
    {
      "midi": 55,
      "hit": false,
      "t": 84000,
      "d": 240,
      "v": 105
    },
    {
      "midi": 36,
      "hit": false,
      "t": 84000,
      "d": 216,
      "v": 120
    },
    {
      "midi": 44,
      "hit": false,
      "t": 84000,
      "d": 108,
      "v": 100
    },
    {
      "midi": 38,
      "hit": false,
      "t": 84000,
      "d": 432,
      "v": 100
    },
    {
      "midi": 44,
      "hit": false,
      "t": 84120,
      "d": 108,
      "v": 100
    },
    {
      "midi": 60,
      "hit": false,
      "t": 84240,
      "d": 204,
      "v": 105
    },
    {
      "midi": 55,
      "hit": false,
      "t": 84240,
      "d": 240,
      "v": 105
    },
    {
      "midi": 79,
      "hit": false,
      "t": 84240,
      "d": 120,
      "v": 70
    },
    {
      "midi": 34,
      "hit": false,
      "t": 84240,
      "d": 216,
      "v": 120
    },
    {
      "midi": 46,
      "hit": false,
      "t": 84240,
      "d": 216,
      "v": 100
    },
    {
      "midi": 36,
      "hit": false,
      "t": 84240,
      "d": 216,
      "v": 100
    },
    {
      "midi": 79,
      "hit": false,
      "t": 84360,
      "d": 120,
      "v": 90
    },
    {
      "midi": 44,
      "hit": false,
      "t": 84360,
      "d": 108,
      "v": 100
    },
    {
      "midi": 74,
      "hit": false,
      "t": 84480,
      "d": 1440,
      "v": 70
    },
    {
      "midi": 60,
      "hit": false,
      "t": 84480,
      "d": 306,
      "v": 105
    },
    {
      "midi": 55,
      "hit": false,
      "t": 84480,
      "d": 360,
      "v": 105
    },
    {
      "midi": 79,
      "hit": false,
      "t": 84480,
      "d": 120,
      "v": 90
    },
    {
      "midi": 36,
      "hit": false,
      "t": 84480,
      "d": 360,
      "v": 120
    },
    {
      "midi": 44,
      "hit": false,
      "t": 84480,
      "d": 108,
      "v": 100
    },
    {
      "midi": 36,
      "hit": false,
      "t": 84480,
      "d": 324,
      "v": 100
    },
    {
      "midi": 79,
      "hit": false,
      "t": 84600,
      "d": 120,
      "v": 70
    },
    {
      "midi": 44,
      "hit": false,
      "t": 84600,
      "d": 108,
      "v": 100
    },
    {
      "midi": 46,
      "hit": false,
      "t": 84720,
      "d": 216,
      "v": 100
    },
    {
      "midi": 79,
      "hit": false,
      "t": 84840,
      "d": 600,
      "v": 127
    },
    {
      "midi": 79,
      "hit": false,
      "t": 84840,
      "d": 600,
      "v": 127
    },
    {
      "midi": 60,
      "hit": false,
      "t": 84840,
      "d": 324,
      "v": 105
    },
    {
      "midi": 55,
      "hit": false,
      "t": 84840,
      "d": 360,
      "v": 105
    },
    {
      "midi": 34,
      "hit": false,
      "t": 84840,
      "d": 360,
      "v": 120
    },
    {
      "midi": 44,
      "hit": false,
      "t": 84840,
      "d": 108,
      "v": 100
    },
    {
      "midi": 36,
      "hit": false,
      "t": 84840,
      "d": 108,
      "v": 100
    },
    {
      "midi": 44,
      "hit": false,
      "t": 84960,
      "d": 108,
      "v": 100
    },
    {
      "midi": 38,
      "hit": false,
      "t": 84960,
      "d": 432,
      "v": 100
    },
    {
      "midi": 44,
      "hit": false,
      "t": 85080,
      "d": 108,
      "v": 100
    },
    {
      "midi": 60,
      "hit": false,
      "t": 85200,
      "d": 342,
      "v": 105
    },
    {
      "midi": 55,
      "hit": false,
      "t": 85200,
      "d": 360,
      "v": 105
    },
    {
      "midi": 79,
      "hit": false,
      "t": 85200,
      "d": 120,
      "v": 70
    },
    {
      "midi": 36,
      "hit": false,
      "t": 85200,
      "d": 360,
      "v": 120
    },
    {
      "midi": 46,
      "hit": false,
      "t": 85200,
      "d": 216,
      "v": 100
    },
    {
      "midi": 36,
      "hit": false,
      "t": 85200,
      "d": 216,
      "v": 100
    },
    {
      "midi": 79,
      "hit": false,
      "t": 85320,
      "d": 120,
      "v": 90
    },
    {
      "midi": 44,
      "hit": false,
      "t": 85320,
      "d": 108,
      "v": 100
    },
    {
      "midi": 79,
      "hit": false,
      "t": 85440,
      "d": 120,
      "v": 127
    },
    {
      "midi": 79,
      "hit": false,
      "t": 85440,
      "d": 120,
      "v": 127
    },
    {
      "midi": 79,
      "hit": false,
      "t": 85440,
      "d": 120,
      "v": 90
    },
    {
      "midi": 44,
      "hit": false,
      "t": 85440,
      "d": 108,
      "v": 100
    },
    {
      "midi": 79,
      "hit": false,
      "t": 85560,
      "d": 240,
      "v": 127
    },
    {
      "midi": 79,
      "hit": false,
      "t": 85560,
      "d": 240,
      "v": 127
    },
    {
      "midi": 60,
      "hit": false,
      "t": 85560,
      "d": 306,
      "v": 105
    },
    {
      "midi": 55,
      "hit": false,
      "t": 85560,
      "d": 360,
      "v": 105
    },
    {
      "midi": 79,
      "hit": false,
      "t": 85560,
      "d": 120,
      "v": 70
    },
    {
      "midi": 34,
      "hit": false,
      "t": 85560,
      "d": 324,
      "v": 120
    },
    {
      "midi": 44,
      "hit": false,
      "t": 85560,
      "d": 108,
      "v": 100
    },
    {
      "midi": 46,
      "hit": false,
      "t": 85680,
      "d": 216,
      "v": 100
    },
    {
      "midi": 36,
      "hit": false,
      "t": 85680,
      "d": 216,
      "v": 100
    },
    {
      "midi": 75,
      "hit": false,
      "t": 85800,
      "d": 360,
      "v": 127
    },
    {
      "midi": 75,
      "hit": false,
      "t": 85800,
      "d": 360,
      "v": 127
    },
    {
      "midi": 44,
      "hit": false,
      "t": 85800,
      "d": 108,
      "v": 100
    },
    {
      "midi": 60,
      "hit": false,
      "t": 85920,
      "d": 204,
      "v": 105
    },
    {
      "midi": 55,
      "hit": false,
      "t": 85920,
      "d": 240,
      "v": 105
    },
    {
      "midi": 36,
      "hit": false,
      "t": 85920,
      "d": 216,
      "v": 120
    },
    {
      "midi": 44,
      "hit": false,
      "t": 85920,
      "d": 108,
      "v": 100
    },
    {
      "midi": 38,
      "hit": false,
      "t": 85920,
      "d": 432,
      "v": 100
    },
    {
      "midi": 44,
      "hit": false,
      "t": 86040,
      "d": 108,
      "v": 100
    },
    {
      "midi": 77,
      "hit": false,
      "t": 86160,
      "d": 240,
      "v": 127
    },
    {
      "midi": 77,
      "hit": false,
      "t": 86160,
      "d": 240,
      "v": 127
    },
    {
      "midi": 60,
      "hit": false,
      "t": 86160,
      "d": 204,
      "v": 105
    },
    {
      "midi": 55,
      "hit": false,
      "t": 86160,
      "d": 240,
      "v": 105
    },
    {
      "midi": 79,
      "hit": false,
      "t": 86160,
      "d": 120,
      "v": 70
    },
    {
      "midi": 36,
      "hit": false,
      "t": 86160,
      "d": 216,
      "v": 120
    },
    {
      "midi": 46,
      "hit": false,
      "t": 86160,
      "d": 216,
      "v": 100
    },
    {
      "midi": 79,
      "hit": false,
      "t": 86280,
      "d": 120,
      "v": 90
    },
    {
      "midi": 44,
      "hit": false,
      "t": 86280,
      "d": 108,
      "v": 100
    },
    {
      "midi": 75,
      "hit": false,
      "t": 86400,
      "d": 560,
      "v": 127
    },
    {
      "midi": 75,
      "hit": false,
      "t": 86400,
      "d": 560,
      "v": 127
    },
    {
      "midi": 63,
      "hit": false,
      "t": 86400,
      "d": 306,
      "v": 105
    },
    {
      "midi": 55,
      "hit": false,
      "t": 86400,
      "d": 360,
      "v": 105
    },
    {
      "midi": 79,
      "hit": false,
      "t": 86400,
      "d": 120,
      "v": 90
    },
    {
      "midi": 32,
      "hit": false,
      "t": 86400,
      "d": 360,
      "v": 120
    },
    {
      "midi": 44,
      "hit": false,
      "t": 86400,
      "d": 108,
      "v": 100
    },
    {
      "midi": 36,
      "hit": false,
      "t": 86400,
      "d": 324,
      "v": 100
    },
    {
      "midi": 79,
      "hit": false,
      "t": 86520,
      "d": 120,
      "v": 70
    },
    {
      "midi": 44,
      "hit": false,
      "t": 86520,
      "d": 108,
      "v": 100
    },
    {
      "midi": 46,
      "hit": false,
      "t": 86640,
      "d": 216,
      "v": 100
    },
    {
      "midi": 63,
      "hit": false,
      "t": 86760,
      "d": 324,
      "v": 105
    },
    {
      "midi": 55,
      "hit": false,
      "t": 86760,
      "d": 360,
      "v": 105
    },
    {
      "midi": 32,
      "hit": false,
      "t": 86760,
      "d": 360,
      "v": 120
    },
    {
      "midi": 44,
      "hit": false,
      "t": 86760,
      "d": 108,
      "v": 100
    },
    {
      "midi": 36,
      "hit": false,
      "t": 86760,
      "d": 108,
      "v": 100
    },
    {
      "midi": 44,
      "hit": false,
      "t": 86880,
      "d": 108,
      "v": 100
    },
    {
      "midi": 38,
      "hit": false,
      "t": 86880,
      "d": 432,
      "v": 100
    },
    {
      "midi": 79,
      "hit": false,
      "t": 86960,
      "d": 400,
      "v": 127
    },
    {
      "midi": 79,
      "hit": false,
      "t": 86960,
      "d": 400,
      "v": 127
    },
    {
      "midi": 44,
      "hit": false,
      "t": 87000,
      "d": 108,
      "v": 100
    },
    {
      "midi": 63,
      "hit": false,
      "t": 87120,
      "d": 342,
      "v": 105
    },
    {
      "midi": 55,
      "hit": false,
      "t": 87120,
      "d": 360,
      "v": 105
    },
    {
      "midi": 79,
      "hit": false,
      "t": 87120,
      "d": 120,
      "v": 70
    },
    {
      "midi": 32,
      "hit": false,
      "t": 87120,
      "d": 240,
      "v": 120
    },
    {
      "midi": 46,
      "hit": false,
      "t": 87120,
      "d": 216,
      "v": 100
    },
    {
      "midi": 36,
      "hit": false,
      "t": 87120,
      "d": 216,
      "v": 100
    },
    {
      "midi": 79,
      "hit": false,
      "t": 87240,
      "d": 120,
      "v": 90
    },
    {
      "midi": 44,
      "hit": false,
      "t": 87240,
      "d": 108,
      "v": 100
    },
    {
      "midi": 75,
      "hit": false,
      "t": 87360,
      "d": 960,
      "v": 127
    },
    {
      "midi": 75,
      "hit": false,
      "t": 87360,
      "d": 960,
      "v": 127
    },
    {
      "midi": 79,
      "hit": false,
      "t": 87360,
      "d": 120,
      "v": 90
    },
    {
      "midi": 34,
      "hit": false,
      "t": 87360,
      "d": 360,
      "v": 120
    },
    {
      "midi": 44,
      "hit": false,
      "t": 87360,
      "d": 108,
      "v": 100
    },
    {
      "midi": 63,
      "hit": false,
      "t": 87480,
      "d": 306,
      "v": 105
    },
    {
      "midi": 55,
      "hit": false,
      "t": 87480,
      "d": 360,
      "v": 105
    },
    {
      "midi": 79,
      "hit": false,
      "t": 87480,
      "d": 120,
      "v": 70
    },
    {
      "midi": 44,
      "hit": false,
      "t": 87480,
      "d": 108,
      "v": 100
    },
    {
      "midi": 46,
      "hit": false,
      "t": 87600,
      "d": 216,
      "v": 100
    },
    {
      "midi": 36,
      "hit": false,
      "t": 87600,
      "d": 216,
      "v": 100
    },
    {
      "midi": 34,
      "hit": false,
      "t": 87720,
      "d": 360,
      "v": 120
    },
    {
      "midi": 44,
      "hit": false,
      "t": 87720,
      "d": 108,
      "v": 100
    },
    {
      "midi": 63,
      "hit": false,
      "t": 87840,
      "d": 204,
      "v": 105
    },
    {
      "midi": 55,
      "hit": false,
      "t": 87840,
      "d": 240,
      "v": 105
    },
    {
      "midi": 44,
      "hit": false,
      "t": 87840,
      "d": 108,
      "v": 100
    },
    {
      "midi": 38,
      "hit": false,
      "t": 87840,
      "d": 432,
      "v": 100
    },
    {
      "midi": 44,
      "hit": false,
      "t": 87960,
      "d": 108,
      "v": 100
    },
    {
      "midi": 63,
      "hit": false,
      "t": 88080,
      "d": 204,
      "v": 105
    },
    {
      "midi": 55,
      "hit": false,
      "t": 88080,
      "d": 240,
      "v": 105
    },
    {
      "midi": 79,
      "hit": false,
      "t": 88080,
      "d": 120,
      "v": 70
    },
    {
      "midi": 34,
      "hit": false,
      "t": 88080,
      "d": 240,
      "v": 120
    },
    {
      "midi": 46,
      "hit": false,
      "t": 88080,
      "d": 216,
      "v": 100
    },
    {
      "midi": 79,
      "hit": false,
      "t": 88200,
      "d": 120,
      "v": 90
    },
    {
      "midi": 44,
      "hit": false,
      "t": 88200,
      "d": 108,
      "v": 100
    },
    {
      "midi": 62,
      "hit": false,
      "t": 88320,
      "d": 306,
      "v": 105
    },
    {
      "midi": 55,
      "hit": false,
      "t": 88320,
      "d": 360,
      "v": 105
    },
    {
      "midi": 79,
      "hit": false,
      "t": 88320,
      "d": 120,
      "v": 90
    },
    {
      "midi": 31,
      "hit": false,
      "t": 88320,
      "d": 360,
      "v": 120
    },
    {
      "midi": 44,
      "hit": false,
      "t": 88320,
      "d": 108,
      "v": 100
    },
    {
      "midi": 36,
      "hit": false,
      "t": 88320,
      "d": 324,
      "v": 100
    },
    {
      "midi": 79,
      "hit": false,
      "t": 88440,
      "d": 120,
      "v": 70
    },
    {
      "midi": 44,
      "hit": false,
      "t": 88440,
      "d": 108,
      "v": 100
    },
    {
      "midi": 67,
      "hit": false,
      "t": 88560,
      "d": 1200,
      "v": 127
    },
    {
      "midi": 67,
      "hit": false,
      "t": 88560,
      "d": 1200,
      "v": 127
    },
    {
      "midi": 46,
      "hit": false,
      "t": 88560,
      "d": 216,
      "v": 100
    },
    {
      "midi": 62,
      "hit": false,
      "t": 88680,
      "d": 324,
      "v": 105
    },
    {
      "midi": 55,
      "hit": false,
      "t": 88680,
      "d": 360,
      "v": 105
    },
    {
      "midi": 31,
      "hit": false,
      "t": 88680,
      "d": 360,
      "v": 120
    },
    {
      "midi": 44,
      "hit": false,
      "t": 88680,
      "d": 108,
      "v": 100
    },
    {
      "midi": 36,
      "hit": false,
      "t": 88680,
      "d": 108,
      "v": 100
    },
    {
      "midi": 44,
      "hit": false,
      "t": 88800,
      "d": 108,
      "v": 100
    },
    {
      "midi": 38,
      "hit": false,
      "t": 88800,
      "d": 432,
      "v": 100
    },
    {
      "midi": 44,
      "hit": false,
      "t": 88920,
      "d": 108,
      "v": 100
    },
    {
      "midi": 62,
      "hit": false,
      "t": 89040,
      "d": 342,
      "v": 105
    },
    {
      "midi": 55,
      "hit": false,
      "t": 89040,
      "d": 360,
      "v": 105
    },
    {
      "midi": 79,
      "hit": false,
      "t": 89040,
      "d": 120,
      "v": 70
    },
    {
      "midi": 31,
      "hit": false,
      "t": 89040,
      "d": 240,
      "v": 120
    },
    {
      "midi": 46,
      "hit": false,
      "t": 89040,
      "d": 216,
      "v": 100
    },
    {
      "midi": 36,
      "hit": false,
      "t": 89040,
      "d": 216,
      "v": 100
    },
    {
      "midi": 79,
      "hit": false,
      "t": 89160,
      "d": 120,
      "v": 90
    },
    {
      "midi": 44,
      "hit": false,
      "t": 89160,
      "d": 108,
      "v": 100
    },
    {
      "midi": 79,
      "hit": false,
      "t": 89280,
      "d": 120,
      "v": 90
    },
    {
      "midi": 36,
      "hit": false,
      "t": 89280,
      "d": 240,
      "v": 120
    },
    {
      "midi": 44,
      "hit": false,
      "t": 89280,
      "d": 108,
      "v": 100
    },
    {
      "midi": 60,
      "hit": false,
      "t": 89400,
      "d": 306,
      "v": 105
    },
    {
      "midi": 55,
      "hit": false,
      "t": 89400,
      "d": 360,
      "v": 105
    },
    {
      "midi": 79,
      "hit": false,
      "t": 89400,
      "d": 120,
      "v": 70
    },
    {
      "midi": 44,
      "hit": false,
      "t": 89400,
      "d": 108,
      "v": 100
    },
    {
      "midi": 34,
      "hit": false,
      "t": 89520,
      "d": 240,
      "v": 120
    },
    {
      "midi": 46,
      "hit": false,
      "t": 89520,
      "d": 216,
      "v": 100
    },
    {
      "midi": 36,
      "hit": false,
      "t": 89520,
      "d": 216,
      "v": 100
    },
    {
      "midi": 44,
      "hit": false,
      "t": 89640,
      "d": 108,
      "v": 100
    },
    {
      "midi": 67,
      "hit": false,
      "t": 89760,
      "d": 360,
      "v": 127
    },
    {
      "midi": 67,
      "hit": false,
      "t": 89760,
      "d": 360,
      "v": 127
    },
    {
      "midi": 60,
      "hit": false,
      "t": 89760,
      "d": 204,
      "v": 105
    },
    {
      "midi": 55,
      "hit": false,
      "t": 89760,
      "d": 240,
      "v": 105
    },
    {
      "midi": 34,
      "hit": false,
      "t": 89760,
      "d": 480,
      "v": 120
    },
    {
      "midi": 44,
      "hit": false,
      "t": 89760,
      "d": 108,
      "v": 100
    },
    {
      "midi": 38,
      "hit": false,
      "t": 89760,
      "d": 432,
      "v": 100
    },
    {
      "midi": 44,
      "hit": false,
      "t": 89880,
      "d": 108,
      "v": 100
    },
    {
      "midi": 60,
      "hit": false,
      "t": 90000,
      "d": 204,
      "v": 105
    },
    {
      "midi": 55,
      "hit": false,
      "t": 90000,
      "d": 240,
      "v": 105
    },
    {
      "midi": 79,
      "hit": false,
      "t": 90000,
      "d": 120,
      "v": 70
    },
    {
      "midi": 46,
      "hit": false,
      "t": 90000,
      "d": 216,
      "v": 100
    },
    {
      "midi": 63,
      "hit": false,
      "t": 90120,
      "d": 120,
      "v": 127
    },
    {
      "midi": 63,
      "hit": false,
      "t": 90120,
      "d": 120,
      "v": 127
    },
    {
      "midi": 79,
      "hit": false,
      "t": 90120,
      "d": 120,
      "v": 90
    },
    {
      "midi": 44,
      "hit": false,
      "t": 90120,
      "d": 108,
      "v": 100
    },
    {
      "midi": 65,
      "hit": false,
      "t": 90240,
      "d": 480,
      "v": 127
    },
    {
      "midi": 65,
      "hit": false,
      "t": 90240,
      "d": 480,
      "v": 127
    },
    {
      "midi": 79,
      "hit": false,
      "t": 90240,
      "d": 120,
      "v": 90
    },
    {
      "midi": 32,
      "hit": false,
      "t": 90240,
      "d": 360,
      "v": 120
    },
    {
      "midi": 44,
      "hit": false,
      "t": 90240,
      "d": 108,
      "v": 100
    },
    {
      "midi": 36,
      "hit": false,
      "t": 90240,
      "d": 324,
      "v": 100
    },
    {
      "midi": 79,
      "hit": false,
      "t": 90360,
      "d": 120,
      "v": 70
    },
    {
      "midi": 44,
      "hit": false,
      "t": 90360,
      "d": 108,
      "v": 100
    },
    {
      "midi": 46,
      "hit": false,
      "t": 90480,
      "d": 216,
      "v": 100
    },
    {
      "midi": 32,
      "hit": false,
      "t": 90600,
      "d": 360,
      "v": 120
    },
    {
      "midi": 44,
      "hit": false,
      "t": 90600,
      "d": 108,
      "v": 100
    },
    {
      "midi": 36,
      "hit": false,
      "t": 90600,
      "d": 108,
      "v": 100
    },
    {
      "midi": 63,
      "hit": false,
      "t": 90720,
      "d": 1440,
      "v": 127
    },
    {
      "midi": 63,
      "hit": false,
      "t": 90720,
      "d": 1440,
      "v": 127
    },
    {
      "midi": 44,
      "hit": false,
      "t": 90720,
      "d": 108,
      "v": 100
    },
    {
      "midi": 38,
      "hit": false,
      "t": 90720,
      "d": 432,
      "v": 100
    },
    {
      "midi": 44,
      "hit": false,
      "t": 90840,
      "d": 108,
      "v": 100
    },
    {
      "midi": 79,
      "hit": false,
      "t": 90960,
      "d": 120,
      "v": 70
    },
    {
      "midi": 32,
      "hit": false,
      "t": 90960,
      "d": 360,
      "v": 120
    },
    {
      "midi": 46,
      "hit": false,
      "t": 90960,
      "d": 216,
      "v": 100
    },
    {
      "midi": 36,
      "hit": false,
      "t": 90960,
      "d": 216,
      "v": 100
    },
    {
      "midi": 79,
      "hit": false,
      "t": 91080,
      "d": 120,
      "v": 90
    },
    {
      "midi": 44,
      "hit": false,
      "t": 91080,
      "d": 108,
      "v": 100
    },
    {
      "midi": 79,
      "hit": false,
      "t": 91200,
      "d": 120,
      "v": 90
    },
    {
      "midi": 44,
      "hit": false,
      "t": 91200,
      "d": 108,
      "v": 100
    },
    {
      "midi": 79,
      "hit": false,
      "t": 91320,
      "d": 120,
      "v": 70
    },
    {
      "midi": 32,
      "hit": false,
      "t": 91320,
      "d": 360,
      "v": 120
    },
    {
      "midi": 44,
      "hit": false,
      "t": 91320,
      "d": 108,
      "v": 100
    },
    {
      "midi": 46,
      "hit": false,
      "t": 91440,
      "d": 216,
      "v": 100
    },
    {
      "midi": 36,
      "hit": false,
      "t": 91440,
      "d": 216,
      "v": 100
    },
    {
      "midi": 44,
      "hit": false,
      "t": 91560,
      "d": 108,
      "v": 100
    },
    {
      "midi": 32,
      "hit": false,
      "t": 91680,
      "d": 240,
      "v": 120
    },
    {
      "midi": 44,
      "hit": false,
      "t": 91680,
      "d": 108,
      "v": 100
    },
    {
      "midi": 38,
      "hit": false,
      "t": 91680,
      "d": 432,
      "v": 100
    },
    {
      "midi": 44,
      "hit": false,
      "t": 91800,
      "d": 108,
      "v": 100
    },
    {
      "midi": 79,
      "hit": false,
      "t": 91920,
      "d": 120,
      "v": 70
    },
    {
      "midi": 32,
      "hit": false,
      "t": 91920,
      "d": 240,
      "v": 120
    },
    {
      "midi": 46,
      "hit": false,
      "t": 91920,
      "d": 216,
      "v": 100
    },
    {
      "midi": 79,
      "hit": false,
      "t": 92040,
      "d": 120,
      "v": 90
    },
    {
      "midi": 44,
      "hit": false,
      "t": 92040,
      "d": 108,
      "v": 100
    }
  ]
}