{
  "jsonPath": "Country/Instrumental Bluegrass/The Grassmasters/hotel-california.json",
  "path": "Country\\Instrumental Bluegrass\\The Grassmasters\\Hotel California.mid",
  "name": "Hotel California",
  "difficulty": "Advanced",
  "bpm": 149.00057861891364,
  "notes": [
    {
      "midi": 47,
      "hit": false,
      "t": 27382.444,
      "d": 3204.685541666666,
      "v": 102
    },
    {
      "midi": 54,
      "hit": false,
      "t": 27382.444,
      "d": 3204.685541666666,
      "v": 92
    },
    {
      "midi": 59,
      "hit": false,
      "t": 27382.444,
      "d": 3204.685541666666,
      "v": 83
    },
    {
      "midi": 62,
      "hit": false,
      "t": 27382.444,
      "d": 3204.685541666666,
      "v": 92
    },
    {
      "midi": 66,
      "hit": false,
      "t": 27382.444,
      "d": 3204.685541666666,
      "v": 94
    },
    {
      "midi": 42,
      "hit": false,
      "t": 30603.908,
      "d": 3204.6855416666695,
      "v": 84
    },
    {
      "midi": 52,
      "hit": false,
      "t": 30603.908,
      "d": 3204.6855416666695,
      "v": 84
    },
    {
      "midi": 58,
      "hit": false,
      "t": 30603.908,
      "d": 3204.6855416666695,
      "v": 82
    },
    {
      "midi": 61,
      "hit": false,
      "t": 30603.908,
      "d": 3204.6855416666695,
      "v": 100
    },
    {
      "midi": 45,
      "hit": false,
      "t": 33825.372,
      "d": 3204.685541666666,
      "v": 98
    },
    {
      "midi": 57,
      "hit": false,
      "t": 33825.372,
      "d": 3204.685541666666,
      "v": 96
    },
    {
      "midi": 61,
      "hit": false,
      "t": 33825.372,
      "d": 3204.685541666666,
      "v": 100
    },
    {
      "midi": 64,
      "hit": false,
      "t": 33825.372,
      "d": 3204.685541666666,
      "v": 105
    },
    {
      "midi": 40,
      "hit": false,
      "t": 37046.836,
      "d": 3204.685541666666,
      "v": 80
    },
    {
      "midi": 52,
      "hit": false,
      "t": 37046.836,
      "d": 3204.685541666666,
      "v": 67
    },
    {
      "midi": 56,
      "hit": false,
      "t": 37046.836,
      "d": 3204.685541666666,
      "v": 72
    },
    {
      "midi": 59,
      "hit": false,
      "t": 37046.836,
      "d": 3204.685541666666,
      "v": 88
    },
    {
      "midi": 64,
      "hit": false,
      "t": 37046.836,
      "d": 3204.685541666666,
      "v": 81
    },
    {
      "midi": 43,
      "hit": false,
      "t": 40268.3,
      "d": 3204.685541666666,
      "v": 98
    },
    {
      "midi": 55,
      "hit": false,
      "t": 40268.3,
      "d": 3204.685541666666,
      "v": 90
    },
    {
      "midi": 59,
      "hit": false,
      "t": 40268.3,
      "d": 3204.685541666666,
      "v": 98
    },
    {
      "midi": 62,
      "hit": false,
      "t": 40268.3,
      "d": 3204.685541666666,
      "v": 107
    },
    {
      "midi": 50,
      "hit": false,
      "t": 43489.764,
      "d": 3204.685541666666,
      "v": 88
    },
    {
      "midi": 54,
      "hit": false,
      "t": 43489.764,
      "d": 3204.685541666666,
      "v": 77
    },
    {
      "midi": 57,
      "hit": false,
      "t": 43489.764,
      "d": 3204.685541666666,
      "v": 82
    },
    {
      "midi": 62,
      "hit": false,
      "t": 43489.764,
      "d": 3204.685541666666,
      "v": 86
    },
    {
      "midi": 52,
      "hit": false,
      "t": 46711.228,
      "d": 3204.685541666666,
      "v": 88
    },
    {
      "midi": 55,
      "hit": false,
      "t": 46711.228,
      "d": 3204.685541666666,
      "v": 84
    },
    {
      "midi": 59,
      "hit": false,
      "t": 46711.228,
      "d": 3204.685541666666,
      "v": 86
    },
    {
      "midi": 64,
      "hit": false,
      "t": 46711.228,
      "d": 3204.685541666666,
      "v": 88
    },
    {
      "midi": 67,
      "hit": false,
      "t": 46711.228,
      "d": 3204.685541666666,
      "v": 102
    },
    {
      "midi": 42,
      "hit": false,
      "t": 49932.692,
      "d": 3204.685541666666,
      "v": 86
    },
    {
      "midi": 49,
      "hit": false,
      "t": 49932.692,
      "d": 3204.685541666666,
      "v": 77
    },
    {
      "midi": 54,
      "hit": false,
      "t": 49932.692,
      "d": 3204.685541666666,
      "v": 90
    },
    {
      "midi": 58,
      "hit": false,
      "t": 49932.692,
      "d": 3204.685541666666,
      "v": 90
    },
    {
      "midi": 64,
      "hit": false,
      "t": 49932.692,
      "d": 3204.685541666666,
      "v": 107
    },
    {
      "midi": 47,
      "hit": false,
      "t": 53154.156,
      "d": 3204.685541666666,
      "v": 102
    },
    {
      "midi": 54,
      "hit": false,
      "t": 53154.156,
      "d": 3204.685541666666,
      "v": 92
    },
    {
      "midi": 59,
      "hit": false,
      "t": 53154.156,
      "d": 3204.685541666666,
      "v": 83
    },
    {
      "midi": 62,
      "hit": false,
      "t": 53154.156,
      "d": 3204.685541666666,
      "v": 92
    },
    {
      "midi": 66,
      "hit": false,
      "t": 53154.156,
      "d": 3204.685541666666,
      "v": 94
    },
    {
      "midi": 42,
      "hit": false,
      "t": 56375.62,
      "d": 3204.685541666666,
      "v": 84
    },
    {
      "midi": 52,
      "hit": false,
      "t": 56375.62,
      "d": 3204.685541666666,
      "v": 84
    },
    {
      "midi": 58,
      "hit": false,
      "t": 56375.62,
      "d": 3204.685541666666,
      "v": 82
    },
    {
      "midi": 61,
      "hit": false,
      "t": 56375.62,
      "d": 3204.685541666666,
      "v": 100
    },
    {
      "midi": 45,
      "hit": false,
      "t": 59597.084,
      "d": 3204.685541666666,
      "v": 98
    },
    {
      "midi": 57,
      "hit": false,
      "t": 59597.084,
      "d": 3204.685541666666,
      "v": 96
    },
    {
      "midi": 61,
      "hit": false,
      "t": 59597.084,
      "d": 3204.685541666666,
      "v": 100
    },
    {
      "midi": 64,
      "hit": false,
      "t": 59597.084,
      "d": 3204.685541666666,
      "v": 105
    },
    {
      "midi": 40,
      "hit": false,
      "t": 62818.548,
      "d": 3204.685541666673,
      "v": 80
    },
    {
      "midi": 52,
      "hit": false,
      "t": 62818.548,
      "d": 3204.685541666673,
      "v": 67
    },
    {
      "midi": 56,
      "hit": false,
      "t": 62818.548,
      "d": 3204.685541666673,
      "v": 72
    },
    {
      "midi": 59,
      "hit": false,
      "t": 62818.548,
      "d": 3204.685541666673,
      "v": 88
    },
    {
      "midi": 64,
      "hit": false,
      "t": 62818.548,
      "d": 3204.685541666673,
      "v": 81
    },
    {
      "midi": 43,
      "hit": false,
      "t": 66040.012,
      "d": 3204.685541666666,
      "v": 98
    },
    {
      "midi": 55,
      "hit": false,
      "t": 66040.012,
      "d": 3204.685541666666,
      "v": 90
    },
    {
      "midi": 59,
      "hit": false,
      "t": 66040.012,
      "d": 3204.685541666666,
      "v": 98
    },
    {
      "midi": 62,
      "hit": false,
      "t": 66040.012,
      "d": 3204.685541666666,
      "v": 107
    },
    {
      "midi": 50,
      "hit": false,
      "t": 69261.476,
      "d": 3204.685541666666,
      "v": 88
    },
    {
      "midi": 54,
      "hit": false,
      "t": 69261.476,
      "d": 3204.685541666666,
      "v": 77
    },
    {
      "midi": 57,
      "hit": false,
      "t": 69261.476,
      "d": 3204.685541666666,
      "v": 82
    },
    {
      "midi": 62,
      "hit": false,
      "t": 69261.476,
      "d": 3204.685541666666,
      "v": 86
    },
    {
      "midi": 52,
      "hit": false,
      "t": 72482.93999999999,
      "d": 3204.685541666666,
      "v": 88
    },
    {
      "midi": 55,
      "hit": false,
      "t": 72482.93999999999,
      "d": 3204.685541666666,
      "v": 84
    },
    {
      "midi": 59,
      "hit": false,
      "t": 72482.93999999999,
      "d": 3204.685541666666,
      "v": 86
    },
    {
      "midi": 64,
      "hit": false,
      "t": 72482.93999999999,
      "d": 3204.685541666666,
      "v": 88
    },
    {
      "midi": 67,
      "hit": false,
      "t": 72482.93999999999,
      "d": 3204.685541666666,
      "v": 102
    },
    {
      "midi": 42,
      "hit": false,
      "t": 75704.40399999998,
      "d": 3204.685541666666,
      "v": 86
    },
    {
      "midi": 49,
      "hit": false,
      "t": 75704.40399999998,
      "d": 3204.685541666666,
      "v": 77
    },
    {
      "midi": 54,
      "hit": false,
      "t": 75704.40399999998,
      "d": 3204.685541666666,
      "v": 90
    },
    {
      "midi": 58,
      "hit": false,
      "t": 75704.40399999998,
      "d": 3204.685541666666,
      "v": 90
    },
    {
      "midi": 64,
      "hit": false,
      "t": 75704.40399999998,
      "d": 3204.685541666666,
      "v": 107
    },
    {
      "midi": 47,
      "hit": false,
      "t": 78925.86799999997,
      "d": 3204.685541666666,
      "v": 102
    },
    {
      "midi": 54,
      "hit": false,
      "t": 78925.86799999997,
      "d": 3204.685541666666,
      "v": 92
    },
    {
      "midi": 59,
      "hit": false,
      "t": 78925.86799999997,
      "d": 3204.685541666666,
      "v": 83
    },
    {
      "midi": 62,
      "hit": false,
      "t": 78925.86799999997,
      "d": 3204.685541666666,
      "v": 92
    },
    {
      "midi": 66,
      "hit": false,
      "t": 78925.86799999997,
      "d": 3204.685541666666,
      "v": 94
    },
    {
      "midi": 42,
      "hit": false,
      "t": 82147.33199999997,
      "d": 3204.685541666666,
      "v": 84
    },
    {
      "midi": 52,
      "hit": false,
      "t": 82147.33199999997,
      "d": 3204.685541666666,
      "v": 84
    },
    {
      "midi": 58,
      "hit": false,
      "t": 82147.33199999997,
      "d": 3204.685541666666,
      "v": 82
    },
    {
      "midi": 61,
      "hit": false,
      "t": 82147.33199999997,
      "d": 3204.685541666666,
      "v": 100
    },
    {
      "midi": 45,
      "hit": false,
      "t": 85368.79599999996,
      "d": 3204.685541666666,
      "v": 98
    },
    {
      "midi": 57,
      "hit": false,
      "t": 85368.79599999996,
      "d": 3204.685541666666,
      "v": 96
    },
    {
      "midi": 61,
      "hit": false,
      "t": 85368.79599999996,
      "d": 3204.685541666666,
      "v": 100
    },
    {
      "midi": 64,
      "hit": false,
      "t": 85368.79599999996,
      "d": 3204.685541666666,
      "v": 105
    },
    {
      "midi": 40,
      "hit": false,
      "t": 88590.25999999995,
      "d": 3204.685541666666,
      "v": 80
    },
    {
      "midi": 52,
      "hit": false,
      "t": 88590.25999999995,
      "d": 3204.685541666666,
      "v": 67
    },
    {
      "midi": 56,
      "hit": false,
      "t": 88590.25999999995,
      "d": 3204.685541666666,
      "v": 72
    },
    {
      "midi": 59,
      "hit": false,
      "t": 88590.25999999995,
      "d": 3204.685541666666,
      "v": 88
    },
    {
      "midi": 64,
      "hit": false,
      "t": 88590.25999999995,
      "d": 3204.685541666666,
      "v": 81
    },
    {
      "midi": 43,
      "hit": false,
      "t": 91811.72399999994,
      "d": 3204.685541666666,
      "v": 98
    },
    {
      "midi": 55,
      "hit": false,
      "t": 91811.72399999994,
      "d": 3204.685541666666,
      "v": 90
    },
    {
      "midi": 59,
      "hit": false,
      "t": 91811.72399999994,
      "d": 3204.685541666666,
      "v": 98
    },
    {
      "midi": 62,
      "hit": false,
      "t": 91811.72399999994,
      "d": 3204.685541666666,
      "v": 107
    },
    {
      "midi": 50,
      "hit": false,
      "t": 95033.18799999994,
      "d": 3204.685541666666,
      "v": 88
    },
    {
      "midi": 54,
      "hit": false,
      "t": 95033.18799999994,
      "d": 3204.685541666666,
      "v": 77
    },
    {
      "midi": 57,
      "hit": false,
      "t": 95033.18799999994,
      "d": 3204.685541666666,
      "v": 82
    },
    {
      "midi": 62,
      "hit": false,
      "t": 95033.18799999994,
      "d": 3204.685541666666,
      "v": 86
    },
    {
      "midi": 52,
      "hit": false,
      "t": 98254.65199999993,
      "d": 3204.685541666666,
      "v": 88
    },
    {
      "midi": 55,
      "hit": false,
      "t": 98254.65199999993,
      "d": 3204.685541666666,
      "v": 84
    },
    {
      "midi": 59,
      "hit": false,
      "t": 98254.65199999993,
      "d": 3204.685541666666,
      "v": 86
    },
    {
      "midi": 64,
      "hit": false,
      "t": 98254.65199999993,
      "d": 3204.685541666666,
      "v": 88
    },
    {
      "midi": 67,
      "hit": false,
      "t": 98254.65199999993,
      "d": 3204.685541666666,
      "v": 102
    },
    {
      "midi": 42,
      "hit": false,
      "t": 101476.11599999992,
      "d": 3204.685541666666,
      "v": 86
    },
    {
      "midi": 49,
      "hit": false,
      "t": 101476.11599999992,
      "d": 3204.685541666666,
      "v": 77
    },
    {
      "midi": 54,
      "hit": false,
      "t": 101476.11599999992,
      "d": 3204.685541666666,
      "v": 90
    },
    {
      "midi": 58,
      "hit": false,
      "t": 101476.11599999992,
      "d": 3204.685541666666,
      "v": 90
    },
    {
      "midi": 64,
      "hit": false,
      "t": 101476.11599999992,
      "d": 3204.685541666666,
      "v": 107
    },
    {
      "midi": 59,
      "hit": false,
      "t": 104697.57999999991,
      "d": 2044.8746093749942,
      "v": 117
    },
    {
      "midi": 55,
      "hit": false,
      "t": 104697.57999999991,
      "d": 2051.166531249997,
      "v": 117
    },
    {
      "midi": 62,
      "hit": false,
      "t": 104697.57999999991,
      "d": 2051.166531249997,
      "v": 117
    },
    {
      "midi": 67,
      "hit": false,
      "t": 104697.57999999991,
      "d": 2059.555760416668,
      "v": 117
    },
    {
      "midi": 59,
      "hit": false,
      "t": 106912.33649999992,
      "d": 71.30844791667187,
      "v": 115
    },
    {
      "midi": 62,
      "hit": false,
      "t": 106912.33649999992,
      "d": 73.40575520833954,
      "v": 117
    },
    {
      "midi": 55,
      "hit": false,
      "t": 106912.33649999992,
      "d": 92.28152083333407,
      "v": 117
    },
    {
      "midi": 67,
      "hit": false,
      "t": 106912.33649999992,
      "d": 94.37882812500175,
      "v": 117
    },
    {
      "midi": 59,
      "hit": false,
      "t": 107315.01949999992,
      "d": 79.69767708332802,
      "v": 115
    },
    {
      "midi": 62,
      "hit": false,
      "t": 107315.01949999992,
      "d": 79.69767708332802,
      "v": 117
    },
    {
      "midi": 55,
      "hit": false,
      "t": 107315.01949999992,
      "d": 100.67074999999022,
      "v": 117
    },
    {
      "midi": 67,
      "hit": false,
      "t": 107315.01949999992,
      "d": 121.64382291665243,
      "v": 117
    },
    {
      "midi": 57,
      "hit": false,
      "t": 107919.0439999999,
      "d": 2831.364843749994,
      "v": 111
    },
    {
      "midi": 54,
      "hit": false,
      "t": 107919.0439999999,
      "d": 2835.5594583333295,
      "v": 109
    },
    {
      "midi": 66,
      "hit": false,
      "t": 107919.0439999999,
      "d": 2839.754072916665,
      "v": 117
    },
    {
      "midi": 50,
      "hit": false,
      "t": 107919.0439999999,
      "d": 2843.9486875000002,
      "v": 107
    },
    {
      "midi": 62,
      "hit": false,
      "t": 107919.0439999999,
      "d": 2843.9486875000002,
      "v": 117
    },
    {
      "midi": 61,
      "hit": false,
      "t": 111140.50799999991,
      "d": 2256.7026458333276,
      "v": 113
    },
    {
      "midi": 54,
      "hit": false,
      "t": 111140.50799999991,
      "d": 2300.746098958334,
      "v": 117
    },
    {
      "midi": 70,
      "hit": false,
      "t": 111140.50799999991,
      "d": 2390.9303125000006,
      "v": 117
    },
    {
      "midi": 73,
      "hit": false,
      "t": 111140.50799999991,
      "d": 2411.903385416663,
      "v": 117
    },
    {
      "midi": 66,
      "hit": false,
      "t": 111140.50799999991,
      "d": 2418.195307291666,
      "v": 117
    },
    {
      "midi": 47,
      "hit": false,
      "t": 114361.9719999999,
      "d": 2772.6402395833284,
      "v": 117
    },
    {
      "midi": 62,
      "hit": false,
      "t": 114361.9719999999,
      "d": 2787.321390625002,
      "v": 117
    },
    {
      "midi": 59,
      "hit": false,
      "t": 114361.9719999999,
      "d": 2802.002541666676,
      "v": 117
    },
    {
      "midi": 66,
      "hit": false,
      "t": 114361.9719999999,
      "d": 2814.586385416682,
      "v": 117
    },
    {
      "midi": 59,
      "hit": false,
      "t": 117583.43599999993,
      "d": 2044.8746093749942,
      "v": 117
    },
    {
      "midi": 55,
      "hit": false,
      "t": 117583.43599999993,
      "d": 2051.166531249997,
      "v": 117
    },
    {
      "midi": 62,
      "hit": false,
      "t": 117583.43599999993,
      "d": 2051.166531249997,
      "v": 117
    },
    {
      "midi": 67,
      "hit": false,
      "t": 117583.43599999993,
      "d": 2059.555760416668,
      "v": 117
    },
    {
      "midi": 59,
      "hit": false,
      "t": 119798.19249999993,
      "d": 71.30844791667187,
      "v": 115
    },
    {
      "midi": 62,
      "hit": false,
      "t": 119798.19249999993,
      "d": 73.40575520833954,
      "v": 117
    },
    {
      "midi": 55,
      "hit": false,
      "t": 119798.19249999993,
      "d": 92.28152083333407,
      "v": 117
    },
    {
      "midi": 67,
      "hit": false,
      "t": 119798.19249999993,
      "d": 94.37882812500175,
      "v": 117
    },
    {
      "midi": 59,
      "hit": false,
      "t": 120200.87549999994,
      "d": 79.69767708332802,
      "v": 115
    },
    {
      "midi": 62,
      "hit": false,
      "t": 120200.87549999994,
      "d": 79.69767708332802,
      "v": 117
    },
    {
      "midi": 55,
      "hit": false,
      "t": 120200.87549999994,
      "d": 100.67074999999022,
      "v": 117
    },
    {
      "midi": 67,
      "hit": false,
      "t": 120200.87549999994,
      "d": 121.64382291665243,
      "v": 117
    },
    {
      "midi": 57,
      "hit": false,
      "t": 120804.89999999992,
      "d": 2831.364843749994,
      "v": 111
    },
    {
      "midi": 54,
      "hit": false,
      "t": 120804.89999999992,
      "d": 2835.5594583333295,
      "v": 109
    },
    {
      "midi": 66,
      "hit": false,
      "t": 120804.89999999992,
      "d": 2839.754072916665,
      "v": 117
    },
    {
      "midi": 50,
      "hit": false,
      "t": 120804.89999999992,
      "d": 2843.9486875000002,
      "v": 107
    },
    {
      "midi": 62,
      "hit": false,
      "t": 120804.89999999992,
      "d": 2843.9486875000002,
      "v": 117
    },
    {
      "midi": 52,
      "hit": false,
      "t": 124026.36399999993,
      "d": 2235.7295729166653,
      "v": 105
    },
    {
      "midi": 59,
      "hit": false,
      "t": 124026.36399999993,
      "d": 2256.7026458333276,
      "v": 109
    },
    {
      "midi": 55,
      "hit": false,
      "t": 124026.36399999993,
      "d": 2260.897260416663,
      "v": 100
    },
    {
      "midi": 67,
      "hit": false,
      "t": 124026.36399999993,
      "d": 2281.870333333325,
      "v": 117
    },
    {
      "midi": 64,
      "hit": false,
      "t": 124026.36399999993,
      "d": 2290.259562499996,
      "v": 107
    },
    {
      "midi": 71,
      "hit": false,
      "t": 124026.36399999993,
      "d": 2325.9137864583317,
      "v": 113
    },
    {
      "midi": 58,
      "hit": false,
      "t": 127247.82799999992,
      "d": 2953.008666666661,
      "v": 94
    },
    {
      "midi": 66,
      "hit": false,
      "t": 127247.82799999992,
      "d": 2971.8844322916557,
      "v": 113
    },
    {
      "midi": 70,
      "hit": false,
      "t": 127247.82799999992,
      "d": 2971.8844322916557,
      "v": 117
    },
    {
      "midi": 54,
      "hit": false,
      "t": 127247.82799999992,
      "d": 2976.079046874991,
      "v": 105
    },
    {
      "midi": 61,
      "hit": false,
      "t": 127247.82799999992,
      "d": 2982.370968749994,
      "v": 102
    },
    {
      "midi": 54,
      "hit": false,
      "t": 130469.29199999991,
      "d": 1566.6885468750115,
      "v": 92
    },
    {
      "midi": 47,
      "hit": false,
      "t": 130469.29199999991,
      "d": 1610.7320000000036,
      "v": 102
    },
    {
      "midi": 62,
      "hit": false,
      "t": 130469.29199999991,
      "d": 1614.926614583339,
      "v": 92
    },
    {
      "midi": 66,
      "hit": false,
      "t": 130469.29199999991,
      "d": 1637.9969947916834,
      "v": 94
    },
    {
      "midi": 59,
      "hit": false,
      "t": 130469.29199999991,
      "d": 1640.094302083351,
      "v": 83
    },
    {
      "midi": 42,
      "hit": false,
      "t": 133690.75599999994,
      "d": 2432.8764583333395,
      "v": 84
    },
    {
      "midi": 58,
      "hit": false,
      "t": 133690.75599999994,
      "d": 2437.071072916675,
      "v": 82
    },
    {
      "midi": 52,
      "hit": false,
      "t": 133690.75599999994,
      "d": 2455.946838541684,
      "v": 84
    },
    {
      "midi": 61,
      "hit": false,
      "t": 133690.75599999994,
      "d": 2481.114526041696,
      "v": 100
    },
    {
      "midi": 64,
      "hit": false,
      "t": 136912.21999999997,
      "d": 1726.083901041682,
      "v": 105
    },
    {
      "midi": 57,
      "hit": false,
      "t": 136912.21999999997,
      "d": 1728.1812083333498,
      "v": 96
    },
    {
      "midi": 61,
      "hit": false,
      "t": 136912.21999999997,
      "d": 1728.1812083333498,
      "v": 100
    },
    {
      "midi": 45,
      "hit": false,
      "t": 136912.21999999997,
      "d": 1732.3758229166851,
      "v": 98
    },
    {
      "midi": 52,
      "hit": false,
      "t": 140133.68399999998,
      "d": 2829.2675364583265,
      "v": 67
    },
    {
      "midi": 59,
      "hit": false,
      "t": 140133.68399999998,
      "d": 2833.462151041662,
      "v": 88
    },
    {
      "midi": 56,
      "hit": false,
      "t": 140133.68399999998,
      "d": 2860.7271458333416,
      "v": 72
    },
    {
      "midi": 64,
      "hit": false,
      "t": 140133.68399999998,
      "d": 2871.21368229168,
      "v": 81
    },
    {
      "midi": 40,
      "hit": false,
      "t": 140133.68399999998,
      "d": 2875.4082968750154,
      "v": 80
    },
    {
      "midi": 59,
      "hit": false,
      "t": 143355.148,
      "d": 2235.7295729166653,
      "v": 98
    },
    {
      "midi": 43,
      "hit": false,
      "t": 143355.148,
      "d": 2244.118802083336,
      "v": 98
    },
    {
      "midi": 62,
      "hit": false,
      "t": 143355.148,
      "d": 2265.091875000013,
      "v": 107
    },
    {
      "midi": 55,
      "hit": false,
      "t": 143355.148,
      "d": 2271.383796875016,
      "v": 90
    },
    {
      "midi": 54,
      "hit": false,
      "t": 146576.612,
      "d": 2871.21368229168,
      "v": 77
    },
    {
      "midi": 50,
      "hit": false,
      "t": 146576.612,
      "d": 2877.505604166683,
      "v": 88
    },
    {
      "midi": 57,
      "hit": false,
      "t": 146576.612,
      "d": 2877.505604166683,
      "v": 82
    },
    {
      "midi": 62,
      "hit": false,
      "t": 146576.612,
      "d": 2917.35444270834,
      "v": 86
    },
    {
      "midi": 64,
      "hit": false,
      "t": 149798.076,
      "d": 2055.3611458333326,
      "v": 88
    },
    {
      "midi": 67,
      "hit": false,
      "t": 149798.076,
      "d": 2055.3611458333326,
      "v": 102
    },
    {
      "midi": 59,
      "hit": false,
      "t": 149798.076,
      "d": 2067.9449895833386,
      "v": 86
    },
    {
      "midi": 55,
      "hit": false,
      "t": 149798.076,
      "d": 2076.3342187500093,
      "v": 84
    },
    {
      "midi": 52,
      "hit": false,
      "t": 149798.076,
      "d": 2093.1126770833507,
      "v": 88
    },
    {
      "midi": 58,
      "hit": false,
      "t": 153019.54,
      "d": 2783.1267760416667,
      "v": 90
    },
    {
      "midi": 42,
      "hit": false,
      "t": 153019.54,
      "d": 2785.2240833333344,
      "v": 86
    },
    {
      "midi": 49,
      "hit": false,
      "t": 153019.54,
      "d": 2787.321390625002,
      "v": 77
    },
    {
      "midi": 54,
      "hit": false,
      "t": 153019.54,
      "d": 2820.878307291656,
      "v": 90
    },
    {
      "midi": 64,
      "hit": false,
      "t": 153019.54,
      "d": 2829.2675364583265,
      "v": 107
    },
    {
      "midi": 54,
      "hit": false,
      "t": 156241.00400000002,
      "d": 1566.688546875026,
      "v": 92
    },
    {
      "midi": 47,
      "hit": false,
      "t": 156241.00400000002,
      "d": 1610.7320000000182,
      "v": 102
    },
    {
      "midi": 62,
      "hit": false,
      "t": 156241.00400000002,
      "d": 1614.9266145833535,
      "v": 92
    },
    {
      "midi": 66,
      "hit": false,
      "t": 156241.00400000002,
      "d": 1637.996994791698,
      "v": 94
    },
    {
      "midi": 59,
      "hit": false,
      "t": 156241.00400000002,
      "d": 1640.0943020833656,
      "v": 83
    },
    {
      "midi": 42,
      "hit": false,
      "t": 159462.46800000005,
      "d": 2432.8764583333395,
      "v": 84
    },
    {
      "midi": 58,
      "hit": false,
      "t": 159462.46800000005,
      "d": 2437.071072916675,
      "v": 82
    },
    {
      "midi": 52,
      "hit": false,
      "t": 159462.46800000005,
      "d": 2455.946838541684,
      "v": 84
    },
    {
      "midi": 61,
      "hit": false,
      "t": 159462.46800000005,
      "d": 2481.114526041696,
      "v": 100
    },
    {
      "midi": 64,
      "hit": false,
      "t": 162683.9320000001,
      "d": 1726.083901041682,
      "v": 105
    },
    {
      "midi": 57,
      "hit": false,
      "t": 162683.9320000001,
      "d": 1728.1812083333498,
      "v": 96
    },
    {
      "midi": 61,
      "hit": false,
      "t": 162683.9320000001,
      "d": 1728.1812083333498,
      "v": 100
    },
    {
      "midi": 45,
      "hit": false,
      "t": 162683.9320000001,
      "d": 1732.3758229166851,
      "v": 98
    },
    {
      "midi": 52,
      "hit": false,
      "t": 165905.3960000001,
      "d": 2829.2675364583265,
      "v": 67
    },
    {
      "midi": 59,
      "hit": false,
      "t": 165905.3960000001,
      "d": 2833.462151041662,
      "v": 88
    },
    {
      "midi": 56,
      "hit": false,
      "t": 165905.3960000001,
      "d": 2860.7271458333416,
      "v": 72
    },
    {
      "midi": 64,
      "hit": false,
      "t": 165905.3960000001,
      "d": 2871.21368229168,
      "v": 81
    },
    {
      "midi": 40,
      "hit": false,
      "t": 165905.3960000001,
      "d": 2875.4082968750154,
      "v": 80
    },
    {
      "midi": 59,
      "hit": false,
      "t": 169126.8600000001,
      "d": 2235.7295729166653,
      "v": 98
    },
    {
      "midi": 43,
      "hit": false,
      "t": 169126.8600000001,
      "d": 2244.118802083336,
      "v": 98
    },
    {
      "midi": 62,
      "hit": false,
      "t": 169126.8600000001,
      "d": 2265.091875000013,
      "v": 107
    },
    {
      "midi": 55,
      "hit": false,
      "t": 169126.8600000001,
      "d": 2271.383796875016,
      "v": 90
    },
    {
      "midi": 54,
      "hit": false,
      "t": 172348.3240000001,
      "d": 2871.21368229168,
      "v": 77
    },
    {
      "midi": 50,
      "hit": false,
      "t": 172348.3240000001,
      "d": 2877.505604166683,
      "v": 88
    },
    {
      "midi": 57,
      "hit": false,
      "t": 172348.3240000001,
      "d": 2877.505604166683,
      "v": 82
    },
    {
      "midi": 62,
      "hit": false,
      "t": 172348.3240000001,
      "d": 2917.35444270834,
      "v": 86
    },
    {
      "midi": 64,
      "hit": false,
      "t": 175569.78800000012,
      "d": 2055.3611458333326,
      "v": 88
    },
    {
      "midi": 67,
      "hit": false,
      "t": 175569.78800000012,
      "d": 2055.3611458333326,
      "v": 102
    },
    {
      "midi": 59,
      "hit": false,
      "t": 175569.78800000012,
      "d": 2067.9449895833386,
      "v": 86
    },
    {
      "midi": 55,
      "hit": false,
      "t": 175569.78800000012,
      "d": 2076.3342187500093,
      "v": 84
    },
    {
      "midi": 52,
      "hit": false,
      "t": 175569.78800000012,
      "d": 2093.1126770833507,
      "v": 88
    },
    {
      "midi": 58,
      "hit": false,
      "t": 178791.25200000012,
      "d": 2783.1267760416667,
      "v": 90
    },
    {
      "midi": 42,
      "hit": false,
      "t": 178791.25200000012,
      "d": 2785.2240833333344,
      "v": 86
    },
    {
      "midi": 49,
      "hit": false,
      "t": 178791.25200000012,
      "d": 2787.321390625002,
      "v": 77
    },
    {
      "midi": 54,
      "hit": false,
      "t": 178791.25200000012,
      "d": 2820.878307291656,
      "v": 90
    },
    {
      "midi": 64,
      "hit": false,
      "t": 178791.25200000012,
      "d": 2829.2675364583265,
      "v": 107
    },
    {
      "midi": 59,
      "hit": false,
      "t": 182012.71600000013,
      "d": 2044.8746093749942,
      "v": 117
    },
    {
      "midi": 55,
      "hit": false,
      "t": 182012.71600000013,
      "d": 2051.166531249997,
      "v": 117
    },
    {
      "midi": 62,
      "hit": false,
      "t": 182012.71600000013,
      "d": 2051.166531249997,
      "v": 117
    },
    {
      "midi": 67,
      "hit": false,
      "t": 182012.71600000013,
      "d": 2059.555760416668,
      "v": 117
    },
    {
      "midi": 59,
      "hit": false,
      "t": 184227.47250000012,
      "d": 71.30844791667187,
      "v": 115
    },
    {
      "midi": 62,
      "hit": false,
      "t": 184227.47250000012,
      "d": 73.40575520833954,
      "v": 117
    },
    {
      "midi": 55,
      "hit": false,
      "t": 184227.47250000012,
      "d": 92.28152083334862,
      "v": 117
    },
    {
      "midi": 67,
      "hit": false,
      "t": 184227.47250000012,
      "d": 94.3788281250163,
      "v": 117
    },
    {
      "midi": 59,
      "hit": false,
      "t": 184630.15550000014,
      "d": 79.69767708334257,
      "v": 115
    },
    {
      "midi": 62,
      "hit": false,
      "t": 184630.15550000014,
      "d": 79.69767708334257,
      "v": 117
    },
    {
      "midi": 55,
      "hit": false,
      "t": 184630.15550000014,
      "d": 100.67075000001932,
      "v": 117
    },
    {
      "midi": 67,
      "hit": false,
      "t": 184630.15550000014,
      "d": 121.64382291669608,
      "v": 117
    },
    {
      "midi": 57,
      "hit": false,
      "t": 185234.1800000002,
      "d": 2831.364843749994,
      "v": 111
    },
    {
      "midi": 54,
      "hit": false,
      "t": 185234.1800000002,
      "d": 2835.5594583333295,
      "v": 109
    },
    {
      "midi": 66,
      "hit": false,
      "t": 185234.1800000002,
      "d": 2839.754072916665,
      "v": 117
    },
    {
      "midi": 50,
      "hit": false,
      "t": 185234.1800000002,
      "d": 2843.9486875000002,
      "v": 107
    },
    {
      "midi": 62,
      "hit": false,
      "t": 185234.1800000002,
      "d": 2843.9486875000002,
      "v": 117
    },
    {
      "midi": 61,
      "hit": false,
      "t": 188455.6440000002,
      "d": 2256.702645833342,
      "v": 113
    },
    {
      "midi": 54,
      "hit": false,
      "t": 188455.6440000002,
      "d": 2300.746098958334,
      "v": 117
    },
    {
      "midi": 70,
      "hit": false,
      "t": 188455.6440000002,
      "d": 2390.930312500015,
      "v": 117
    },
    {
      "midi": 73,
      "hit": false,
      "t": 188455.6440000002,
      "d": 2411.903385416692,
      "v": 117
    },
    {
      "midi": 66,
      "hit": false,
      "t": 188455.6440000002,
      "d": 2418.195307291695,
      "v": 117
    },
    {
      "midi": 47,
      "hit": false,
      "t": 191677.10800000027,
      "d": 2772.6402395833284,
      "v": 117
    },
    {
      "midi": 62,
      "hit": false,
      "t": 191677.10800000027,
      "d": 2787.321390625002,
      "v": 117
    },
    {
      "midi": 59,
      "hit": false,
      "t": 191677.10800000027,
      "d": 2802.002541666676,
      "v": 117
    },
    {
      "midi": 66,
      "hit": false,
      "t": 191677.10800000027,
      "d": 2814.586385416682,
      "v": 117
    },
    {
      "midi": 59,
      "hit": false,
      "t": 194898.57200000028,
      "d": 2044.8746093749942,
      "v": 117
    },
    {
      "midi": 55,
      "hit": false,
      "t": 194898.57200000028,
      "d": 2051.166531249997,
      "v": 117
    },
    {
      "midi": 62,
      "hit": false,
      "t": 194898.57200000028,
      "d": 2051.166531249997,
      "v": 117
    },
    {
      "midi": 67,
      "hit": false,
      "t": 194898.57200000028,
      "d": 2059.555760416668,
      "v": 117
    },
    {
      "midi": 59,
      "hit": false,
      "t": 197113.32850000027,
      "d": 71.30844791667187,
      "v": 115
    },
    {
      "midi": 62,
      "hit": false,
      "t": 197113.32850000027,
      "d": 73.40575520833954,
      "v": 117
    },
    {
      "midi": 55,
      "hit": false,
      "t": 197113.32850000027,
      "d": 92.28152083334862,
      "v": 117
    },
    {
      "midi": 67,
      "hit": false,
      "t": 197113.32850000027,
      "d": 94.3788281250163,
      "v": 117
    },
    {
      "midi": 59,
      "hit": false,
      "t": 197516.01150000028,
      "d": 79.69767708334257,
      "v": 115
    },
    {
      "midi": 62,
      "hit": false,
      "t": 197516.01150000028,
      "d": 79.69767708334257,
      "v": 117
    },
    {
      "midi": 55,
      "hit": false,
      "t": 197516.01150000028,
      "d": 100.67075000001932,
      "v": 117
    },
    {
      "midi": 67,
      "hit": false,
      "t": 197516.01150000028,
      "d": 121.64382291669608,
      "v": 117
    },
    {
      "midi": 57,
      "hit": false,
      "t": 198120.03600000034,
      "d": 2831.364843749994,
      "v": 111
    },
    {
      "midi": 54,
      "hit": false,
      "t": 198120.03600000034,
      "d": 2835.5594583333295,
      "v": 109
    },
    {
      "midi": 66,
      "hit": false,
      "t": 198120.03600000034,
      "d": 2839.754072916665,
      "v": 117
    },
    {
      "midi": 50,
      "hit": false,
      "t": 198120.03600000034,
      "d": 2843.9486875000002,
      "v": 107
    },
    {
      "midi": 62,
      "hit": false,
      "t": 198120.03600000034,
      "d": 2843.9486875000002,
      "v": 117
    },
    {
      "midi": 52,
      "hit": false,
      "t": 201341.50000000032,
      "d": 2235.7295729166653,
      "v": 105
    },
    {
      "midi": 59,
      "hit": false,
      "t": 201341.50000000032,
      "d": 2256.702645833342,
      "v": 109
    },
    {
      "midi": 55,
      "hit": false,
      "t": 201341.50000000032,
      "d": 2260.8972604166775,
      "v": 100
    },
    {
      "midi": 67,
      "hit": false,
      "t": 201341.50000000032,
      "d": 2281.870333333354,
      "v": 117
    },
    {
      "midi": 64,
      "hit": false,
      "t": 201341.50000000032,
      "d": 2290.259562500025,
      "v": 107
    },
    {
      "midi": 71,
      "hit": false,
      "t": 201341.50000000032,
      "d": 2325.9137864583463,
      "v": 113
    },
    {
      "midi": 61,
      "hit": false,
      "t": 204562.96400000033,
      "d": 2902.673291666666,
      "v": 117
    },
    {
      "midi": 42,
      "hit": false,
      "t": 204562.96400000033,
      "d": 2911.0625208333367,
      "v": 117
    },
    {
      "midi": 58,
      "hit": false,
      "t": 204562.96400000033,
      "d": 2911.0625208333367,
      "v": 109
    },
    {
      "midi": 66,
      "hit": false,
      "t": 204562.96400000033,
      "d": 2936.230208333349,
      "v": 117
    },
    {
      "midi": 54,
      "hit": false,
      "t": 207784.42800000033,
      "d": 1566.688546875026,
      "v": 92
    },
    {
      "midi": 47,
      "hit": false,
      "t": 207784.42800000033,
      "d": 1610.7320000000182,
      "v": 102
    },
    {
      "midi": 62,
      "hit": false,
      "t": 207784.42800000033,
      "d": 1614.9266145833535,
      "v": 92
    },
    {
      "midi": 66,
      "hit": false,
      "t": 207784.42800000033,
      "d": 1637.996994791698,
      "v": 94
    },
    {
      "midi": 59,
      "hit": false,
      "t": 207784.42800000033,
      "d": 1640.0943020833656,
      "v": 83
    },
    {
      "midi": 42,
      "hit": false,
      "t": 211005.89200000037,
      "d": 2432.8764583333395,
      "v": 84
    },
    {
      "midi": 58,
      "hit": false,
      "t": 211005.89200000037,
      "d": 2437.071072916675,
      "v": 82
    },
    {
      "midi": 52,
      "hit": false,
      "t": 211005.89200000037,
      "d": 2455.946838541684,
      "v": 84
    },
    {
      "midi": 61,
      "hit": false,
      "t": 211005.89200000037,
      "d": 2481.114526041696,
      "v": 100
    },
    {
      "midi": 64,
      "hit": false,
      "t": 214227.3560000004,
      "d": 1726.083901041682,
      "v": 105
    },
    {
      "midi": 57,
      "hit": false,
      "t": 214227.3560000004,
      "d": 1728.1812083333498,
      "v": 96
    },
    {
      "midi": 61,
      "hit": false,
      "t": 214227.3560000004,
      "d": 1728.1812083333498,
      "v": 100
    },
    {
      "midi": 45,
      "hit": false,
      "t": 214227.3560000004,
      "d": 1732.3758229166851,
      "v": 98
    },
    {
      "midi": 52,
      "hit": false,
      "t": 217448.8200000004,
      "d": 2829.2675364583265,
      "v": 67
    },
    {
      "midi": 59,
      "hit": false,
      "t": 217448.8200000004,
      "d": 2833.462151041662,
      "v": 88
    },
    {
      "midi": 56,
      "hit": false,
      "t": 217448.8200000004,
      "d": 2860.7271458333416,
      "v": 72
    },
    {
      "midi": 64,
      "hit": false,
      "t": 217448.8200000004,
      "d": 2871.21368229168,
      "v": 81
    },
    {
      "midi": 40,
      "hit": false,
      "t": 217448.8200000004,
      "d": 2875.4082968750154,
      "v": 80
    },
    {
      "midi": 59,
      "hit": false,
      "t": 220670.28400000042,
      "d": 2235.7295729166653,
      "v": 98
    },
    {
      "midi": 43,
      "hit": false,
      "t": 220670.28400000042,
      "d": 2244.118802083336,
      "v": 98
    },
    {
      "midi": 62,
      "hit": false,
      "t": 220670.28400000042,
      "d": 2265.091875000013,
      "v": 107
    },
    {
      "midi": 55,
      "hit": false,
      "t": 220670.28400000042,
      "d": 2271.383796875016,
      "v": 90
    },
    {
      "midi": 54,
      "hit": false,
      "t": 223891.74800000043,
      "d": 2871.21368229168,
      "v": 77
    },
    {
      "midi": 50,
      "hit": false,
      "t": 223891.74800000043,
      "d": 2877.505604166683,
      "v": 88
    },
    {
      "midi": 57,
      "hit": false,
      "t": 223891.74800000043,
      "d": 2877.505604166683,
      "v": 82
    },
    {
      "midi": 62,
      "hit": false,
      "t": 223891.74800000043,
      "d": 2917.35444270834,
      "v": 86
    },
    {
      "midi": 64,
      "hit": false,
      "t": 227113.21200000044,
      "d": 2055.3611458333326,
      "v": 88
    },
    {
      "midi": 67,
      "hit": false,
      "t": 227113.21200000044,
      "d": 2055.3611458333326,
      "v": 102
    },
    {
      "midi": 59,
      "hit": false,
      "t": 227113.21200000044,
      "d": 2067.9449895833386,
      "v": 86
    },
    {
      "midi": 55,
      "hit": false,
      "t": 227113.21200000044,
      "d": 2076.3342187500093,
      "v": 84
    },
    {
      "midi": 52,
      "hit": false,
      "t": 227113.21200000044,
      "d": 2093.1126770833507,
      "v": 88
    },
    {
      "midi": 58,
      "hit": false,
      "t": 230334.67600000044,
      "d": 2783.1267760416667,
      "v": 90
    },
    {
      "midi": 42,
      "hit": false,
      "t": 230334.67600000044,
      "d": 2785.2240833333344,
      "v": 86
    },
    {
      "midi": 49,
      "hit": false,
      "t": 230334.67600000044,
      "d": 2787.321390625002,
      "v": 77
    },
    {
      "midi": 54,
      "hit": false,
      "t": 230334.67600000044,
      "d": 2820.878307291656,
      "v": 90
    },
    {
      "midi": 64,
      "hit": false,
      "t": 230334.67600000044,
      "d": 2829.2675364583265,
      "v": 107
    },
    {
      "midi": 54,
      "hit": false,
      "t": 233556.14000000045,
      "d": 1566.688546875026,
      "v": 92
    },
    {
      "midi": 47,
      "hit": false,
      "t": 233556.14000000045,
      "d": 1610.7320000000182,
      "v": 102
    },
    {
      "midi": 62,
      "hit": false,
      "t": 233556.14000000045,
      "d": 1614.9266145833535,
      "v": 92
    },
    {
      "midi": 66,
      "hit": false,
      "t": 233556.14000000045,
      "d": 1637.996994791698,
      "v": 94
    },
    {
      "midi": 59,
      "hit": false,
      "t": 233556.14000000045,
      "d": 1640.0943020833656,
      "v": 83
    },
    {
      "midi": 42,
      "hit": false,
      "t": 236777.6040000005,
      "d": 2432.8764583333395,
      "v": 84
    },
    {
      "midi": 58,
      "hit": false,
      "t": 236777.6040000005,
      "d": 2437.071072916675,
      "v": 82
    },
    {
      "midi": 52,
      "hit": false,
      "t": 236777.6040000005,
      "d": 2455.946838541684,
      "v": 84
    },
    {
      "midi": 61,
      "hit": false,
      "t": 236777.6040000005,
      "d": 2481.114526041696,
      "v": 100
    },
    {
      "midi": 64,
      "hit": false,
      "t": 239999.06800000052,
      "d": 1726.083901041682,
      "v": 105
    },
    {
      "midi": 57,
      "hit": false,
      "t": 239999.06800000052,
      "d": 1728.1812083333498,
      "v": 96
    },
    {
      "midi": 61,
      "hit": false,
      "t": 239999.06800000052,
      "d": 1728.1812083333498,
      "v": 100
    },
    {
      "midi": 45,
      "hit": false,
      "t": 239999.06800000052,
      "d": 1732.3758229166851,
      "v": 98
    },
    {
      "midi": 52,
      "hit": false,
      "t": 243220.53200000053,
      "d": 2829.2675364583265,
      "v": 67
    },
    {
      "midi": 59,
      "hit": false,
      "t": 243220.53200000053,
      "d": 2833.462151041662,
      "v": 88
    },
    {
      "midi": 56,
      "hit": false,
      "t": 243220.53200000053,
      "d": 2860.7271458333416,
      "v": 72
    },
    {
      "midi": 64,
      "hit": false,
      "t": 243220.53200000053,
      "d": 2871.21368229168,
      "v": 81
    },
    {
      "midi": 40,
      "hit": false,
      "t": 243220.53200000053,
      "d": 2875.4082968750154,
      "v": 80
    },
    {
      "midi": 59,
      "hit": false,
      "t": 246441.99600000054,
      "d": 2235.7295729166653,
      "v": 98
    },
    {
      "midi": 43,
      "hit": false,
      "t": 246441.99600000054,
      "d": 2244.118802083336,
      "v": 98
    },
    {
      "midi": 62,
      "hit": false,
      "t": 246441.99600000054,
      "d": 2265.091875000013,
      "v": 107
    },
    {
      "midi": 55,
      "hit": false,
      "t": 246441.99600000054,
      "d": 2271.383796875016,
      "v": 90
    },
    {
      "midi": 54,
      "hit": false,
      "t": 249663.46000000054,
      "d": 2871.21368229168,
      "v": 77
    },
    {
      "midi": 50,
      "hit": false,
      "t": 249663.46000000054,
      "d": 2877.505604166683,
      "v": 88
    },
    {
      "midi": 57,
      "hit": false,
      "t": 249663.46000000054,
      "d": 2877.505604166683,
      "v": 82
    },
    {
      "midi": 62,
      "hit": false,
      "t": 249663.46000000054,
      "d": 2917.35444270834,
      "v": 86
    },
    {
      "midi": 64,
      "hit": false,
      "t": 252884.92400000055,
      "d": 2055.3611458333326,
      "v": 88
    },
    {
      "midi": 67,
      "hit": false,
      "t": 252884.92400000055,
      "d": 2055.3611458333326,
      "v": 102
    },
    {
      "midi": 59,
      "hit": false,
      "t": 252884.92400000055,
      "d": 2067.9449895833386,
      "v": 86
    },
    {
      "midi": 55,
      "hit": false,
      "t": 252884.92400000055,
      "d": 2076.3342187500093,
      "v": 84
    },
    {
      "midi": 52,
      "hit": false,
      "t": 252884.92400000055,
      "d": 2093.1126770833507,
      "v": 88
    },
    {
      "midi": 42,
      "hit": false,
      "t": 256106.38800000056,
      "d": 1610.731999999989,
      "v": 86
    },
    {
      "midi": 49,
      "hit": false,
      "t": 256106.38800000056,
      "d": 1610.731999999989,
      "v": 77
    },
    {
      "midi": 54,
      "hit": false,
      "t": 256106.38800000056,
      "d": 1610.731999999989,
      "v": 90
    },
    {
      "midi": 58,
      "hit": false,
      "t": 256106.38800000056,
      "d": 1610.731999999989,
      "v": 90
    },
    {
      "midi": 64,
      "hit": false,
      "t": 256106.38800000056,
      "d": 1610.731999999989,
      "v": 107
    },
    {
      "midi": 58,
      "hit": false,
      "t": 257717.12000000055,
      "d": 62.919218750001164,
      "v": 109
    },
    {
      "midi": 61,
      "hit": false,
      "t": 257717.12000000055,
      "d": 75.50306250000722,
      "v": 117
    },
    {
      "midi": 66,
      "hit": false,
      "t": 257717.12000000055,
      "d": 77.6003697916749,
      "v": 117
    },
    {
      "midi": 64,
      "hit": false,
      "t": 257717.12000000055,
      "d": 83.89229166667792,
      "v": 117
    },
    {
      "midi": 54,
      "hit": false,
      "t": 257717.12000000055,
      "d": 92.28152083334862,
      "v": 117
    },
    {
      "midi": 70,
      "hit": false,
      "t": 257717.12000000055,
      "d": 113.25459375002538,
      "v": 117
    },
    {
      "midi": 64,
      "hit": false,
      "t": 257918.4615000006,
      "d": 60.82191145833349,
      "v": 117
    },
    {
      "midi": 66,
      "hit": false,
      "t": 257918.4615000006,
      "d": 65.01652604166884,
      "v": 117
    },
    {
      "midi": 58,
      "hit": false,
      "t": 257918.4615000006,
      "d": 67.11383333333652,
      "v": 109
    },
    {
      "midi": 61,
      "hit": false,
      "t": 257918.4615000006,
      "d": 71.30844791667187,
      "v": 113
    },
    {
      "midi": 54,
      "hit": false,
      "t": 257918.4615000006,
      "d": 75.50306250000722,
      "v": 117
    },
    {
      "midi": 70,
      "hit": false,
      "t": 257918.4615000006,
      "d": 88.08690625001327,
      "v": 117
    },
    {
      "midi": 66,
      "hit": false,
      "t": 258119.8030000006,
      "d": 104.86536458332557,
      "v": 117
    },
    {
      "midi": 64,
      "hit": false,
      "t": 258119.8030000006,
      "d": 115.35190104166395,
      "v": 117
    },
    {
      "midi": 70,
      "hit": false,
      "t": 258119.8030000006,
      "d": 134.22766666667303,
      "v": 117
    },
    {
      "midi": 61,
      "hit": false,
      "t": 258119.8030000006,
      "d": 136.3249739583407,
      "v": 117
    },
    {
      "midi": 58,
      "hit": false,
      "t": 258119.8030000006,
      "d": 138.42228125000838,
      "v": 117
    },
    {
      "midi": 54,
      "hit": false,
      "t": 258119.8030000006,
      "d": 140.51958854167606,
      "v": 117
    },
    {
      "midi": 54,
      "hit": false,
      "t": 259327.8520000006,
      "d": 1566.688546875026,
      "v": 92
    },
    {
      "midi": 47,
      "hit": false,
      "t": 259327.8520000006,
      "d": 1610.7320000000182,
      "v": 102
    },
    {
      "midi": 62,
      "hit": false,
      "t": 259327.8520000006,
      "d": 1614.9266145833535,
      "v": 92
    },
    {
      "midi": 66,
      "hit": false,
      "t": 259327.8520000006,
      "d": 1637.996994791698,
      "v": 94
    },
    {
      "midi": 59,
      "hit": false,
      "t": 259327.8520000006,
      "d": 1640.0943020833656,
      "v": 83
    },
    {
      "midi": 42,
      "hit": false,
      "t": 262549.31600000063,
      "d": 2432.8764583333395,
      "v": 84
    },
    {
      "midi": 58,
      "hit": false,
      "t": 262549.31600000063,
      "d": 2437.071072916675,
      "v": 82
    },
    {
      "midi": 52,
      "hit": false,
      "t": 262549.31600000063,
      "d": 2455.946838541655,
      "v": 84
    },
    {
      "midi": 61,
      "hit": false,
      "t": 262549.31600000063,
      "d": 2481.114526041667,
      "v": 100
    },
    {
      "midi": 64,
      "hit": false,
      "t": 265770.7800000006,
      "d": 1726.083901041653,
      "v": 105
    },
    {
      "midi": 57,
      "hit": false,
      "t": 265770.7800000006,
      "d": 1728.1812083332916,
      "v": 96
    },
    {
      "midi": 61,
      "hit": false,
      "t": 265770.7800000006,
      "d": 1728.1812083332916,
      "v": 100
    },
    {
      "midi": 45,
      "hit": false,
      "t": 265770.7800000006,
      "d": 1732.375822916627,
      "v": 98
    },
    {
      "midi": 52,
      "hit": false,
      "t": 268992.2440000006,
      "d": 2829.2675364583265,
      "v": 67
    },
    {
      "midi": 59,
      "hit": false,
      "t": 268992.2440000006,
      "d": 2833.462151041662,
      "v": 88
    },
    {
      "midi": 56,
      "hit": false,
      "t": 268992.2440000006,
      "d": 2860.7271458333125,
      "v": 72
    },
    {
      "midi": 64,
      "hit": false,
      "t": 268992.2440000006,
      "d": 2871.213682291622,
      "v": 81
    },
    {
      "midi": 40,
      "hit": false,
      "t": 268992.2440000006,
      "d": 2875.408296874957,
      "v": 80
    },
    {
      "midi": 59,
      "hit": false,
      "t": 272213.70800000057,
      "d": 2235.7295729166362,
      "v": 98
    },
    {
      "midi": 43,
      "hit": false,
      "t": 272213.70800000057,
      "d": 2244.118802083307,
      "v": 98
    },
    {
      "midi": 62,
      "hit": false,
      "t": 272213.70800000057,
      "d": 2265.0918749999837,
      "v": 107
    },
    {
      "midi": 55,
      "hit": false,
      "t": 272213.70800000057,
      "d": 2271.3837968749576,
      "v": 90
    },
    {
      "midi": 54,
      "hit": false,
      "t": 275435.1720000005,
      "d": 2871.21368229168,
      "v": 77
    },
    {
      "midi": 50,
      "hit": false,
      "t": 275435.1720000005,
      "d": 2877.505604166654,
      "v": 88
    },
    {
      "midi": 57,
      "hit": false,
      "t": 275435.1720000005,
      "d": 2877.505604166654,
      "v": 82
    },
    {
      "midi": 62,
      "hit": false,
      "t": 275435.1720000005,
      "d": 2917.3544427083107,
      "v": 86
    },
    {
      "midi": 64,
      "hit": false,
      "t": 278656.63600000046,
      "d": 2055.3611458333326,
      "v": 88
    },
    {
      "midi": 67,
      "hit": false,
      "t": 278656.63600000046,
      "d": 2055.3611458333326,
      "v": 102
    },
    {
      "midi": 59,
      "hit": false,
      "t": 278656.63600000046,
      "d": 2067.9449895833386,
      "v": 86
    },
    {
      "midi": 55,
      "hit": false,
      "t": 278656.63600000046,
      "d": 2076.3342187500093,
      "v": 84
    },
    {
      "midi": 52,
      "hit": false,
      "t": 278656.63600000046,
      "d": 2093.1126770833507,
      "v": 88
    },
    {
      "midi": 42,
      "hit": false,
      "t": 281878.1000000005,
      "d": 2776.8348541666637,
      "v": 86
    },
    {
      "midi": 49,
      "hit": false,
      "t": 281878.1000000005,
      "d": 2776.8348541666637,
      "v": 77
    },
    {
      "midi": 54,
      "hit": false,
      "t": 281878.1000000005,
      "d": 2776.8348541666637,
      "v": 90
    },
    {
      "midi": 58,
      "hit": false,
      "t": 281878.1000000005,
      "d": 2776.8348541666637,
      "v": 90
    },
    {
      "midi": 64,
      "hit": false,
      "t": 281878.1000000005,
      "d": 2776.8348541666637,
      "v": 107
    },
    {
      "midi": 71,
      "hit": false,
      "t": 285099.5640000005,
      "d": 1661.0673749999842,
      "v": 117
    },
    {
      "midi": 62,
      "hit": false,
      "t": 285099.5640000005,
      "d": 1694.624291666667,
      "v": 117
    },
    {
      "midi": 66,
      "hit": false,
      "t": 285099.5640000005,
      "d": 1700.916213541641,
      "v": 117
    },
    {
      "midi": 47,
      "hit": false,
      "t": 285099.5640000005,
      "d": 1717.6946718749823,
      "v": 117
    },
    {
      "midi": 54,
      "hit": false,
      "t": 285099.5640000005,
      "d": 1730.2785156249884,
      "v": 117
    },
    {
      "midi": 54,
      "hit": false,
      "t": 286911.6375000005,
      "d": 81.79498437501024,
      "v": 117
    },
    {
      "midi": 47,
      "hit": false,
      "t": 286911.6375000005,
      "d": 98.57344270835165,
      "v": 117
    },
    {
      "midi": 62,
      "hit": false,
      "t": 286911.6375000005,
      "d": 98.57344270835165,
      "v": 117
    },
    {
      "midi": 66,
      "hit": false,
      "t": 286911.6375000005,
      "d": 111.1572864583577,
      "v": 117
    },
    {
      "midi": 71,
      "hit": false,
      "t": 286911.6375000005,
      "d": 125.83843750000233,
      "v": 117
    },
    {
      "midi": 47,
      "hit": false,
      "t": 287314.3205000005,
      "d": 304.10955729166744,
      "v": 109
    },
    {
      "midi": 62,
      "hit": false,
      "t": 287515.6620000005,
      "d": 163.5899687500205,
      "v": 117
    },
    {
      "midi": 66,
      "hit": false,
      "t": 287515.6620000005,
      "d": 180.3684270833619,
      "v": 117
    },
    {
      "midi": 71,
      "hit": false,
      "t": 287515.6620000005,
      "d": 201.34150000003865,
      "v": 117
    },
    {
      "midi": 61,
      "hit": false,
      "t": 288321.0280000005,
      "d": 369.1260833333363,
      "v": 117
    },
    {
      "midi": 54,
      "hit": false,
      "t": 288321.0280000005,
      "d": 406.87761458335444,
      "v": 117
    },
    {
      "midi": 70,
      "hit": false,
      "t": 288321.0280000005,
      "d": 494.9645208333386,
      "v": 117
    },
    {
      "midi": 66,
      "hit": false,
      "t": 288321.0280000005,
      "d": 545.2998958333628,
      "v": 117
    },
    {
      "midi": 42,
      "hit": false,
      "t": 289327.7355000006,
      "d": 413.16953645832837,
      "v": 109
    },
    {
      "midi": 66,
      "hit": false,
      "t": 289529.0770000006,
      "d": 111.1572864583577,
      "v": 105
    },
    {
      "midi": 66,
      "hit": false,
      "t": 289730.4185000006,
      "d": 163.58996874996228,
      "v": 117
    },
    {
      "midi": 70,
      "hit": false,
      "t": 289730.4185000006,
      "d": 184.56304166663904,
      "v": 117
    },
    {
      "midi": 70,
      "hit": false,
      "t": 290334.4430000006,
      "d": 545.2998958333046,
      "v": 117
    },
    {
      "midi": 73,
      "hit": false,
      "t": 290334.4430000006,
      "d": 576.7595052082906,
      "v": 117
    },
    {
      "midi": 66,
      "hit": false,
      "t": 290334.4430000006,
      "d": 589.3433489582967,
      "v": 111
    },
    {
      "midi": 61,
      "hit": false,
      "t": 291542.4920000006,
      "d": 1841.435802083346,
      "v": 117
    },
    {
      "midi": 64,
      "hit": false,
      "t": 291542.4920000006,
      "d": 1849.8250312500168,
      "v": 117
    },
    {
      "midi": 57,
      "hit": false,
      "t": 291542.4920000006,
      "d": 1854.0196458333521,
      "v": 117
    },
    {
      "midi": 52,
      "hit": false,
      "t": 291542.4920000006,
      "d": 2558.7148958332837,
      "v": 117
    },
    {
      "midi": 45,
      "hit": false,
      "t": 291542.4920000006,
      "d": 2575.493354166625,
      "v": 117
    },
    {
      "midi": 59,
      "hit": false,
      "t": 293555.90700000065,
      "d": 440.43453124997905,
      "v": 117
    },
    {
      "midi": 57,
      "hit": false,
      "t": 293555.90700000065,
      "d": 446.72645312495297,
      "v": 117
    },
    {
      "midi": 64,
      "hit": false,
      "t": 293555.90700000065,
      "d": 461.4076041665976,
      "v": 117
    },
    {
      "midi": 61,
      "hit": false,
      "t": 294159.9315000006,
      "d": 111.1572864583577,
      "v": 117
    },
    {
      "midi": 64,
      "hit": false,
      "t": 294159.9315000006,
      "d": 117.44920833333163,
      "v": 117
    },
    {
      "midi": 57,
      "hit": false,
      "t": 294159.9315000006,
      "d": 121.64382291666698,
      "v": 117
    },
    {
      "midi": 64,
      "hit": false,
      "t": 294763.9560000006,
      "d": 1042.3617239582818,
      "v": 109
    },
    {
      "midi": 59,
      "hit": false,
      "t": 294763.9560000006,
      "d": 1075.9186406249646,
      "v": 117
    },
    {
      "midi": 56,
      "hit": false,
      "t": 294763.9560000006,
      "d": 1090.5997916666092,
      "v": 102
    },
    {
      "midi": 52,
      "hit": false,
      "t": 294763.9560000006,
      "d": 2388.833005208173,
      "v": 117
    },
    {
      "midi": 62,
      "hit": false,
      "t": 296374.6880000005,
      "d": 757.1279322916525,
      "v": 102
    },
    {
      "midi": 56,
      "hit": false,
      "t": 296374.6880000005,
      "d": 767.6144687499618,
      "v": 80
    },
    {
      "midi": 59,
      "hit": false,
      "t": 296374.6880000005,
      "d": 769.7117760416004,
      "v": 100
    },
    {
      "midi": 64,
      "hit": false,
      "t": 296374.6880000005,
      "d": 801.1713854165864,
      "v": 102
    },
    {
      "midi": 50,
      "hit": false,
      "t": 297985.4200000004,
      "d": 847.3121458333335,
      "v": 117
    },
    {
      "midi": 55,
      "hit": false,
      "t": 297985.4200000004,
      "d": 1067.5294114583521,
      "v": 117
    },
    {
      "midi": 59,
      "hit": false,
      "t": 297985.4200000004,
      "d": 1191.2705416666577,
      "v": 117
    },
    {
      "midi": 62,
      "hit": false,
      "t": 297985.4200000004,
      "d": 1277.260140624945,
      "v": 117
    },
    {
      "midi": 43,
      "hit": false,
      "t": 297985.4200000004,
      "d": 2424.487229166669,
      "v": 117
    },
    {
      "midi": 50,
      "hit": false,
      "t": 298992.1275000004,
      "d": 195.0495781249483,
      "v": 117
    },
    {
      "midi": 55,
      "hit": false,
      "t": 299193.46900000033,
      "d": 94.3788281250163,
      "v": 100
    },
    {
      "midi": 57,
      "hit": false,
      "t": 299394.81050000037,
      "d": 587.2460416666581,
      "v": 117
    },
    {
      "midi": 62,
      "hit": false,
      "t": 299394.81050000037,
      "d": 595.6352708333288,
      "v": 117
    },
    {
      "midi": 59,
      "hit": false,
      "t": 300401.5180000004,
      "d": 109.05997916666092,
      "v": 117
    },
    {
      "midi": 55,
      "hit": false,
      "t": 300401.5180000004,
      "d": 119.5465156249702,
      "v": 117
    },
    {
      "midi": 62,
      "hit": false,
      "t": 300401.5180000004,
      "d": 140.51958854164695,
      "v": 117
    },
    {
      "midi": 57,
      "hit": false,
      "t": 301206.8840000003,
      "d": 906.0367500000284,
      "v": 117
    },
    {
      "midi": 62,
      "hit": false,
      "t": 301206.8840000003,
      "d": 1067.5294114583521,
      "v": 117
    },
    {
      "midi": 66,
      "hit": false,
      "t": 301206.8840000003,
      "d": 1176.589390625013,
      "v": 117
    },
    {
      "midi": 50,
      "hit": false,
      "t": 301206.8840000003,
      "d": 2894.2840624999953,
      "v": 117
    },
    {
      "midi": 57,
      "hit": false,
      "t": 302213.59150000033,
      "d": 176.17381249996834,
      "v": 117
    },
    {
      "midi": 62,
      "hit": false,
      "t": 302414.9330000003,
      "d": 94.3788281250163,
      "v": 113
    },
    {
      "midi": 64,
      "hit": false,
      "t": 302616.27450000035,
      "d": 171.9791979166912,
      "v": 117
    },
    {
      "midi": 57,
      "hit": false,
      "t": 303220.29900000035,
      "d": 880.8690624999581,
      "v": 117
    },
    {
      "midi": 66,
      "hit": false,
      "t": 303622.98200000037,
      "d": 453.0183749999851,
      "v": 117
    },
    {
      "midi": 62,
      "hit": false,
      "t": 303622.98200000037,
      "d": 471.8941406249651,
      "v": 117
    },
    {
      "midi": 69,
      "hit": false,
      "t": 303622.98200000037,
      "d": 486.5752916666097,
      "v": 117
    },
    {
      "midi": 64,
      "hit": false,
      "t": 304428.34800000035,
      "d": 1285.649369791674,
      "v": 117
    },
    {
      "midi": 67,
      "hit": false,
      "t": 304428.34800000035,
      "d": 1327.5955156250275,
      "v": 117
    },
    {
      "midi": 59,
      "hit": false,
      "t": 304428.34800000035,
      "d": 2462.238760416687,
      "v": 117
    },
    {
      "midi": 55,
      "hit": false,
      "t": 304428.34800000035,
      "d": 2470.6279895833577,
      "v": 117
    },
    {
      "midi": 52,
      "hit": false,
      "t": 304428.34800000035,
      "d": 2476.9199114583316,
      "v": 117
    },
    {
      "midi": 64,
      "hit": false,
      "t": 306039.08000000037,
      "d": 125.83843750000233,
      "v": 117
    },
    {
      "midi": 67,
      "hit": false,
      "t": 306039.08000000037,
      "d": 134.22766666667303,
      "v": 117
    },
    {
      "midi": 71,
      "hit": false,
      "t": 306039.08000000037,
      "d": 148.90881770831766,
      "v": 117
    },
    {
      "midi": 76,
      "hit": false,
      "t": 306844.44600000035,
      "d": 83.89229166664882,
      "v": 117
    },
    {
      "midi": 54,
      "hit": false,
      "t": 307649.8120000003,
      "d": 262.16341145831393,
      "v": 117
    },
    {
      "midi": 58,
      "hit": false,
      "t": 307649.8120000003,
      "d": 268.45533333328785,
      "v": 117
    },
    {
      "midi": 61,
      "hit": false,
      "t": 307649.8120000003,
      "d": 287.33109895826783,
      "v": 117
    },
    {
      "midi": 58,
      "hit": false,
      "t": 308455.17800000025,
      "d": 174.07650520832976,
      "v": 102
    },
    {
      "midi": 61,
      "hit": false,
      "t": 308455.17800000025,
      "d": 182.46573437500047,
      "v": 107
    },
    {
      "midi": 66,
      "hit": false,
      "t": 308455.17800000025,
      "d": 211.82803645834792,
      "v": 109
    },
    {
      "midi": 66,
      "hit": false,
      "t": 309260.5440000003,
      "d": 650.1652604166302,
      "v": 105
    },
    {
      "midi": 70,
      "hit": false,
      "t": 309260.5440000003,
      "d": 683.722177083313,
      "v": 111
    },
    {
      "midi": 61,
      "hit": false,
      "t": 309260.5440000003,
      "d": 1004.6101927083218,
      "v": 102
    },
    {
      "midi": 54,
      "hit": false,
      "t": 309260.5440000003,
      "d": 1019.2913437499665,
      "v": 109
    },
    {
      "midi": 66,
      "hit": false,
      "t": 310065.91000000027,
      "d": 153.103432291653,
      "v": 113
    },
    {
      "midi": 70,
      "hit": false,
      "t": 310065.91000000027,
      "d": 161.4926614583237,
      "v": 117
    },
    {
      "midi": 73,
      "hit": false,
      "t": 310065.91000000027,
      "d": 190.85496354167117,
      "v": 117
    },
    {
      "midi": 71,
      "hit": false,
      "t": 310871.27600000025,
      "d": 1661.0673749999842,
      "v": 117
    },
    {
      "midi": 62,
      "hit": false,
      "t": 310871.27600000025,
      "d": 1694.624291666667,
      "v": 117
    },
    {
      "midi": 66,
      "hit": false,
      "t": 310871.27600000025,
      "d": 1700.916213541641,
      "v": 117
    },
    {
      "midi": 47,
      "hit": false,
      "t": 310871.27600000025,
      "d": 1717.6946718749823,
      "v": 117
    },
    {
      "midi": 54,
      "hit": false,
      "t": 310871.27600000025,
      "d": 1730.2785156249884,
      "v": 117
    },
    {
      "midi": 54,
      "hit": false,
      "t": 312683.34950000024,
      "d": 81.79498437501024,
      "v": 117
    },
    {
      "midi": 47,
      "hit": false,
      "t": 312683.34950000024,
      "d": 98.57344270835165,
      "v": 117
    },
    {
      "midi": 62,
      "hit": false,
      "t": 312683.34950000024,
      "d": 98.57344270835165,
      "v": 117
    },
    {
      "midi": 66,
      "hit": false,
      "t": 312683.34950000024,
      "d": 111.1572864583577,
      "v": 117
    },
    {
      "midi": 71,
      "hit": false,
      "t": 312683.34950000024,
      "d": 125.83843750000233,
      "v": 117
    },
    {
      "midi": 47,
      "hit": false,
      "t": 313086.03250000026,
      "d": 304.10955729166744,
      "v": 109
    },
    {
      "midi": 62,
      "hit": false,
      "t": 313287.37400000024,
      "d": 163.5899687500205,
      "v": 117
    },
    {
      "midi": 66,
      "hit": false,
      "t": 313287.37400000024,
      "d": 180.3684270833619,
      "v": 117
    },
    {
      "midi": 71,
      "hit": false,
      "t": 313287.37400000024,
      "d": 201.34150000003865,
      "v": 117
    },
    {
      "midi": 61,
      "hit": false,
      "t": 314092.7400000003,
      "d": 369.1260833333363,
      "v": 117
    },
    {
      "midi": 54,
      "hit": false,
      "t": 314092.7400000003,
      "d": 406.87761458335444,
      "v": 117
    },
    {
      "midi": 70,
      "hit": false,
      "t": 314092.7400000003,
      "d": 494.9645208333386,
      "v": 117
    },
    {
      "midi": 66,
      "hit": false,
      "t": 314092.7400000003,
      "d": 545.2998958333628,
      "v": 117
    },
    {
      "midi": 42,
      "hit": false,
      "t": 315099.44750000036,
      "d": 413.16953645832837,
      "v": 109
    },
    {
      "midi": 66,
      "hit": false,
      "t": 315300.78900000034,
      "d": 111.1572864583577,
      "v": 105
    },
    {
      "midi": 66,
      "hit": false,
      "t": 315502.1305000004,
      "d": 163.58996874996228,
      "v": 117
    },
    {
      "midi": 70,
      "hit": false,
      "t": 315502.1305000004,
      "d": 184.56304166663904,
      "v": 117
    },
    {
      "midi": 70,
      "hit": false,
      "t": 316106.1550000004,
      "d": 545.2998958333046,
      "v": 117
    },
    {
      "midi": 73,
      "hit": false,
      "t": 316106.1550000004,
      "d": 576.7595052082906,
      "v": 117
    },
    {
      "midi": 66,
      "hit": false,
      "t": 316106.1550000004,
      "d": 589.3433489582967,
      "v": 111
    },
    {
      "midi": 61,
      "hit": false,
      "t": 317314.2040000004,
      "d": 1841.435802083346,
      "v": 117
    },
    {
      "midi": 64,
      "hit": false,
      "t": 317314.2040000004,
      "d": 1849.8250312500168,
      "v": 117
    },
    {
      "midi": 57,
      "hit": false,
      "t": 317314.2040000004,
      "d": 1854.0196458333521,
      "v": 117
    },
    {
      "midi": 52,
      "hit": false,
      "t": 317314.2040000004,
      "d": 2558.7148958332837,
      "v": 117
    },
    {
      "midi": 45,
      "hit": false,
      "t": 317314.2040000004,
      "d": 2575.493354166625,
      "v": 117
    },
    {
      "midi": 59,
      "hit": false,
      "t": 319327.6190000004,
      "d": 440.43453124997905,
      "v": 117
    },
    {
      "midi": 57,
      "hit": false,
      "t": 319327.6190000004,
      "d": 446.72645312495297,
      "v": 117
    },
    {
      "midi": 64,
      "hit": false,
      "t": 319327.6190000004,
      "d": 461.4076041665976,
      "v": 117
    },
    {
      "midi": 61,
      "hit": false,
      "t": 319931.64350000035,
      "d": 111.1572864583577,
      "v": 117
    },
    {
      "midi": 64,
      "hit": false,
      "t": 319931.64350000035,
      "d": 117.44920833333163,
      "v": 117
    },
    {
      "midi": 57,
      "hit": false,
      "t": 319931.64350000035,
      "d": 121.64382291666698,
      "v": 117
    },
    {
      "midi": 64,
      "hit": false,
      "t": 320535.66800000035,
      "d": 1042.3617239582818,
      "v": 109
    },
    {
      "midi": 59,
      "hit": false,
      "t": 320535.66800000035,
      "d": 1075.9186406249646,
      "v": 117
    },
    {
      "midi": 56,
      "hit": false,
      "t": 320535.66800000035,
      "d": 1090.5997916666092,
      "v": 102
    },
    {
      "midi": 52,
      "hit": false,
      "t": 320535.66800000035,
      "d": 2388.833005208173,
      "v": 117
    },
    {
      "midi": 62,
      "hit": false,
      "t": 322146.40000000026,
      "d": 757.1279322916525,
      "v": 102
    },
    {
      "midi": 56,
      "hit": false,
      "t": 322146.40000000026,
      "d": 767.6144687499618,
      "v": 80
    },
    {
      "midi": 59,
      "hit": false,
      "t": 322146.40000000026,
      "d": 769.7117760416004,
      "v": 100
    },
    {
      "midi": 64,
      "hit": false,
      "t": 322146.40000000026,
      "d": 801.1713854165864,
      "v": 102
    },
    {
      "midi": 50,
      "hit": false,
      "t": 323757.13200000016,
      "d": 847.3121458333335,
      "v": 117
    },
    {
      "midi": 55,
      "hit": false,
      "t": 323757.13200000016,
      "d": 1067.5294114583521,
      "v": 117
    },
    {
      "midi": 59,
      "hit": false,
      "t": 323757.13200000016,
      "d": 1191.2705416666577,
      "v": 117
    },
    {
      "midi": 62,
      "hit": false,
      "t": 323757.13200000016,
      "d": 1277.260140624945,
      "v": 117
    },
    {
      "midi": 43,
      "hit": false,
      "t": 323757.13200000016,
      "d": 2424.487229166669,
      "v": 117
    },
    {
      "midi": 50,
      "hit": false,
      "t": 324763.8395000002,
      "d": 195.0495781249483,
      "v": 117
    },
    {
      "midi": 55,
      "hit": false,
      "t": 324965.1810000001,
      "d": 94.3788281250163,
      "v": 100
    },
    {
      "midi": 57,
      "hit": false,
      "t": 325166.52250000014,
      "d": 587.2460416666581,
      "v": 117
    },
    {
      "midi": 62,
      "hit": false,
      "t": 325166.52250000014,
      "d": 595.6352708333288,
      "v": 117
    },
    {
      "midi": 59,
      "hit": false,
      "t": 326173.23000000016,
      "d": 109.05997916666092,
      "v": 117
    },
    {
      "midi": 55,
      "hit": false,
      "t": 326173.23000000016,
      "d": 119.5465156249702,
      "v": 117
    },
    {
      "midi": 62,
      "hit": false,
      "t": 326173.23000000016,
      "d": 140.51958854164695,
      "v": 117
    },
    {
      "midi": 57,
      "hit": false,
      "t": 326978.5960000001,
      "d": 906.0367500000284,
      "v": 117
    },
    {
      "midi": 62,
      "hit": false,
      "t": 326978.5960000001,
      "d": 1067.5294114583521,
      "v": 117
    },
    {
      "midi": 66,
      "hit": false,
      "t": 326978.5960000001,
      "d": 1176.589390625013,
      "v": 117
    },
    {
      "midi": 50,
      "hit": false,
      "t": 326978.5960000001,
      "d": 2894.2840624999953,
      "v": 117
    },
    {
      "midi": 57,
      "hit": false,
      "t": 327985.3035000001,
      "d": 176.17381249996834,
      "v": 117
    },
    {
      "midi": 62,
      "hit": false,
      "t": 328186.6450000001,
      "d": 94.3788281250163,
      "v": 113
    },
    {
      "midi": 64,
      "hit": false,
      "t": 328387.9865000001,
      "d": 171.9791979166912,
      "v": 117
    },
    {
      "midi": 57,
      "hit": false,
      "t": 328992.0110000001,
      "d": 880.8690624999581,
      "v": 117
    },
    {
      "midi": 66,
      "hit": false,
      "t": 329394.69400000013,
      "d": 453.0183749999851,
      "v": 117
    },
    {
      "midi": 62,
      "hit": false,
      "t": 329394.69400000013,
      "d": 471.8941406249651,
      "v": 117
    },
    {
      "midi": 69,
      "hit": false,
      "t": 329394.69400000013,
      "d": 486.5752916666097,
      "v": 117
    },
    {
      "midi": 64,
      "hit": false,
      "t": 330200.0600000001,
      "d": 1285.649369791674,
      "v": 117
    },
    {
      "midi": 67,
      "hit": false,
      "t": 330200.0600000001,
      "d": 1327.5955156250275,
      "v": 117
    },
    {
      "midi": 59,
      "hit": false,
      "t": 330200.0600000001,
      "d": 2462.238760416687,
      "v": 117
    },
    {
      "midi": 55,
      "hit": false,
      "t": 330200.0600000001,
      "d": 2470.6279895833577,
      "v": 117
    },
    {
      "midi": 52,
      "hit": false,
      "t": 330200.0600000001,
      "d": 2476.9199114583316,
      "v": 117
    },
    {
      "midi": 64,
      "hit": false,
      "t": 331810.79200000013,
      "d": 125.83843750000233,
      "v": 117
    },
    {
      "midi": 67,
      "hit": false,
      "t": 331810.79200000013,
      "d": 134.22766666667303,
      "v": 117
    },
    {
      "midi": 71,
      "hit": false,
      "t": 331810.79200000013,
      "d": 148.90881770831766,
      "v": 117
    },
    {
      "midi": 76,
      "hit": false,
      "t": 332616.1580000001,
      "d": 83.89229166664882,
      "v": 117
    },
    {
      "midi": 54,
      "hit": false,
      "t": 333421.5240000001,
      "d": 262.16341145831393,
      "v": 117
    },
    {
      "midi": 58,
      "hit": false,
      "t": 333421.5240000001,
      "d": 268.45533333328785,
      "v": 117
    },
    {
      "midi": 61,
      "hit": false,
      "t": 333421.5240000001,
      "d": 287.33109895826783,
      "v": 117
    },
    {
      "midi": 58,
      "hit": false,
      "t": 334226.89,
      "d": 174.07650520832976,
      "v": 102
    },
    {
      "midi": 61,
      "hit": false,
      "t": 334226.89,
      "d": 182.46573437500047,
      "v": 107
    },
    {
      "midi": 66,
      "hit": false,
      "t": 334226.89,
      "d": 211.82803645834792,
      "v": 109
    },
    {
      "midi": 66,
      "hit": false,
      "t": 335032.25600000005,
      "d": 650.1652604166302,
      "v": 105
    },
    {
      "midi": 70,
      "hit": false,
      "t": 335032.25600000005,
      "d": 683.722177083313,
      "v": 111
    },
    {
      "midi": 61,
      "hit": false,
      "t": 335032.25600000005,
      "d": 1004.6101927083218,
      "v": 102
    },
    {
      "midi": 54,
      "hit": false,
      "t": 335032.25600000005,
      "d": 1019.2913437499665,
      "v": 109
    },
    {
      "midi": 66,
      "hit": false,
      "t": 335837.62200000003,
      "d": 153.103432291653,
      "v": 113
    },
    {
      "midi": 70,
      "hit": false,
      "t": 335837.62200000003,
      "d": 161.4926614583237,
      "v": 117
    },
    {
      "midi": 73,
      "hit": false,
      "t": 335837.62200000003,
      "d": 190.85496354167117,
      "v": 117
    },
    {
      "midi": 54,
      "hit": false,
      "t": 336642.988,
      "d": 1566.6885468749679,
      "v": 92
    },
    {
      "midi": 47,
      "hit": false,
      "t": 336642.988,
      "d": 1610.73199999996,
      "v": 102
    },
    {
      "midi": 62,
      "hit": false,
      "t": 336642.988,
      "d": 1614.9266145832953,
      "v": 92
    },
    {
      "midi": 66,
      "hit": false,
      "t": 336642.988,
      "d": 1637.9969947916106,
      "v": 94
    },
    {
      "midi": 59,
      "hit": false,
      "t": 336642.988,
      "d": 1640.0943020832492,
      "v": 83
    },
    {
      "midi": 42,
      "hit": false,
      "t": 339864.45199999993,
      "d": 2432.8764583333395,
      "v": 84
    },
    {
      "midi": 58,
      "hit": false,
      "t": 339864.45199999993,
      "d": 2437.071072916675,
      "v": 82
    },
    {
      "midi": 52,
      "hit": false,
      "t": 339864.45199999993,
      "d": 2455.946838541655,
      "v": 84
    },
    {
      "midi": 61,
      "hit": false,
      "t": 339864.45199999993,
      "d": 2481.114526041667,
      "v": 100
    },
    {
      "midi": 64,
      "hit": false,
      "t": 343085.9159999999,
      "d": 1726.083901041653,
      "v": 105
    },
    {
      "midi": 57,
      "hit": false,
      "t": 343085.9159999999,
      "d": 1728.1812083332916,
      "v": 96
    },
    {
      "midi": 61,
      "hit": false,
      "t": 343085.9159999999,
      "d": 1728.1812083332916,
      "v": 100
    },
    {
      "midi": 45,
      "hit": false,
      "t": 343085.9159999999,
      "d": 1732.375822916627,
      "v": 98
    },
    {
      "midi": 52,
      "hit": false,
      "t": 346307.3799999999,
      "d": 2829.2675364583265,
      "v": 67
    },
    {
      "midi": 59,
      "hit": false,
      "t": 346307.3799999999,
      "d": 2833.462151041662,
      "v": 88
    },
    {
      "midi": 56,
      "hit": false,
      "t": 346307.3799999999,
      "d": 2860.7271458333125,
      "v": 72
    },
    {
      "midi": 64,
      "hit": false,
      "t": 346307.3799999999,
      "d": 2871.213682291622,
      "v": 81
    },
    {
      "midi": 40,
      "hit": false,
      "t": 346307.3799999999,
      "d": 2875.408296874957,
      "v": 80
    },
    {
      "midi": 59,
      "hit": false,
      "t": 349528.84399999987,
      "d": 2235.7295729166362,
      "v": 98
    },
    {
      "midi": 43,
      "hit": false,
      "t": 349528.84399999987,
      "d": 2244.118802083307,
      "v": 98
    },
    {
      "midi": 62,
      "hit": false,
      "t": 349528.84399999987,
      "d": 2265.0918749999837,
      "v": 107
    },
    {
      "midi": 55,
      "hit": false,
      "t": 349528.84399999987,
      "d": 2271.3837968749576,
      "v": 90
    },
    {
      "midi": 54,
      "hit": false,
      "t": 352750.3079999998,
      "d": 2871.21368229168,
      "v": 77
    },
    {
      "midi": 50,
      "hit": false,
      "t": 352750.3079999998,
      "d": 2877.505604166654,
      "v": 88
    },
    {
      "midi": 57,
      "hit": false,
      "t": 352750.3079999998,
      "d": 2877.505604166654,
      "v": 82
    },
    {
      "midi": 62,
      "hit": false,
      "t": 352750.3079999998,
      "d": 2917.3544427083107,
      "v": 86
    },
    {
      "midi": 64,
      "hit": false,
      "t": 355971.77199999976,
      "d": 2055.3611458333326,
      "v": 88
    },
    {
      "midi": 67,
      "hit": false,
      "t": 355971.77199999976,
      "d": 2055.3611458333326,
      "v": 102
    },
    {
      "midi": 59,
      "hit": false,
      "t": 355971.77199999976,
      "d": 2067.9449895833386,
      "v": 86
    },
    {
      "midi": 55,
      "hit": false,
      "t": 355971.77199999976,
      "d": 2076.3342187500093,
      "v": 84
    },
    {
      "midi": 52,
      "hit": false,
      "t": 355971.77199999976,
      "d": 2093.1126770833507,
      "v": 88
    },
    {
      "midi": 58,
      "hit": false,
      "t": 359193.2359999998,
      "d": 2783.126776041696,
      "v": 90
    },
    {
      "midi": 42,
      "hit": false,
      "t": 359193.2359999998,
      "d": 2785.2240833333344,
      "v": 86
    },
    {
      "midi": 49,
      "hit": false,
      "t": 359193.2359999998,
      "d": 2787.321390624973,
      "v": 77
    },
    {
      "midi": 54,
      "hit": false,
      "t": 359193.2359999998,
      "d": 2820.878307291656,
      "v": 90
    },
    {
      "midi": 64,
      "hit": false,
      "t": 359193.2359999998,
      "d": 2829.2675364583265,
      "v": 107
    },
    {
      "midi": 54,
      "hit": false,
      "t": 362414.6999999998,
      "d": 1566.6885468749679,
      "v": 92
    },
    {
      "midi": 47,
      "hit": false,
      "t": 362414.6999999998,
      "d": 1610.73199999996,
      "v": 102
    },
    {
      "midi": 62,
      "hit": false,
      "t": 362414.6999999998,
      "d": 1614.9266145832953,
      "v": 92
    },
    {
      "midi": 66,
      "hit": false,
      "t": 362414.6999999998,
      "d": 1637.9969947916106,
      "v": 94
    },
    {
      "midi": 59,
      "hit": false,
      "t": 362414.6999999998,
      "d": 1640.0943020832492,
      "v": 83
    },
    {
      "midi": 42,
      "hit": false,
      "t": 365636.1639999997,
      "d": 2432.8764583333395,
      "v": 84
    },
    {
      "midi": 58,
      "hit": false,
      "t": 365636.1639999997,
      "d": 2437.071072916675,
      "v": 82
    },
    {
      "midi": 52,
      "hit": false,
      "t": 365636.1639999997,
      "d": 2455.946838541655,
      "v": 84
    },
    {
      "midi": 61,
      "hit": false,
      "t": 365636.1639999997,
      "d": 2481.114526041667,
      "v": 100
    },
    {
      "midi": 64,
      "hit": false,
      "t": 368857.6279999997,
      "d": 1726.083901041653,
      "v": 105
    },
    {
      "midi": 57,
      "hit": false,
      "t": 368857.6279999997,
      "d": 1728.1812083332916,
      "v": 96
    },
    {
      "midi": 61,
      "hit": false,
      "t": 368857.6279999997,
      "d": 1728.1812083332916,
      "v": 100
    },
    {
      "midi": 45,
      "hit": false,
      "t": 368857.6279999997,
      "d": 1732.375822916627,
      "v": 98
    },
    {
      "midi": 52,
      "hit": false,
      "t": 372079.09199999965,
      "d": 2829.2675364583265,
      "v": 67
    },
    {
      "midi": 59,
      "hit": false,
      "t": 372079.09199999965,
      "d": 2833.462151041662,
      "v": 88
    },
    {
      "midi": 56,
      "hit": false,
      "t": 372079.09199999965,
      "d": 2860.7271458333125,
      "v": 72
    },
    {
      "midi": 64,
      "hit": false,
      "t": 372079.09199999965,
      "d": 2871.213682291622,
      "v": 81
    },
    {
      "midi": 40,
      "hit": false,
      "t": 372079.09199999965,
      "d": 2875.408296874957,
      "v": 80
    },
    {
      "midi": 59,
      "hit": false,
      "t": 375300.55599999963,
      "d": 2235.7295729166362,
      "v": 98
    },
    {
      "midi": 43,
      "hit": false,
      "t": 375300.55599999963,
      "d": 2244.118802083307,
      "v": 98
    },
    {
      "midi": 62,
      "hit": false,
      "t": 375300.55599999963,
      "d": 2265.0918749999837,
      "v": 107
    },
    {
      "midi": 55,
      "hit": false,
      "t": 375300.55599999963,
      "d": 2271.3837968749576,
      "v": 90
    },
    {
      "midi": 54,
      "hit": false,
      "t": 378522.01999999955,
      "d": 2871.21368229168,
      "v": 77
    },
    {
      "midi": 50,
      "hit": false,
      "t": 378522.01999999955,
      "d": 2877.505604166654,
      "v": 88
    },
    {
      "midi": 57,
      "hit": false,
      "t": 378522.01999999955,
      "d": 2877.505604166654,
      "v": 82
    },
    {
      "midi": 62,
      "hit": false,
      "t": 378522.01999999955,
      "d": 2917.3544427083107,
      "v": 86
    },
    {
      "midi": 64,
      "hit": false,
      "t": 381743.48399999953,
      "d": 2055.3611458333326,
      "v": 88
    },
    {
      "midi": 67,
      "hit": false,
      "t": 381743.48399999953,
      "d": 2055.3611458333326,
      "v": 102
    },
    {
      "midi": 59,
      "hit": false,
      "t": 381743.48399999953,
      "d": 2067.9449895833386,
      "v": 86
    },
    {
      "midi": 55,
      "hit": false,
      "t": 381743.48399999953,
      "d": 2076.3342187500093,
      "v": 84
    },
    {
      "midi": 52,
      "hit": false,
      "t": 381743.48399999953,
      "d": 2093.1126770833507,
      "v": 88
    },
    {
      "midi": 58,
      "hit": false,
      "t": 384964.94799999957,
      "d": 2783.126776041696,
      "v": 90
    },
    {
      "midi": 42,
      "hit": false,
      "t": 384964.94799999957,
      "d": 2785.2240833333344,
      "v": 86
    },
    {
      "midi": 49,
      "hit": false,
      "t": 384964.94799999957,
      "d": 2787.321390624973,
      "v": 77
    },
    {
      "midi": 54,
      "hit": false,
      "t": 384964.94799999957,
      "d": 2820.878307291656,
      "v": 90
    },
    {
      "midi": 64,
      "hit": false,
      "t": 384964.94799999957,
      "d": 2829.2675364583265,
      "v": 107
    },
    {
      "midi": 59,
      "hit": false,
      "t": 388186.41199999955,
      "d": 3387.1512760416954,
      "v": 113
    },
    {
      "midi": 66,
      "hit": false,
      "t": 388186.41199999955,
      "d": 3410.2216562500107,
      "v": 117
    },
    {
      "midi": 69,
      "hit": false,
      "t": 388186.41199999955,
      "d": 3422.8055000000168,
      "v": 117
    },
    {
      "midi": 54,
      "hit": false,
      "t": 388186.41199999955,
      "d": 3435.389343750023,
      "v": 117
    },
    {
      "midi": 73,
      "hit": false,
      "t": 388186.41199999955,
      "d": 3452.167802083364,
      "v": 117
    },
    {
      "midi": 47,
      "hit": false,
      "t": 388186.41199999955,
      "d": 3458.459723958338,
      "v": 117
    }
  ]
}