{
  "jsonPath": "Unknown/Unknown/Deborah Harry&Nigel Harrison/one-way-or-another.json",
  "path": "Unknown\\Unknown\\Deborah Harry&Nigel Harrison\\One Way or Another.mid",
  "name": "One Way or Another",
  "difficulty": "Advanced",
  "bpm": 164.00029520053135,
  "notes": [
    {
      "midi": 66,
      "hit": false,
      "t": 0,
      "d": 365.853,
      "v": 100
    },
    {
      "midi": 74,
      "hit": false,
      "t": 0,
      "d": 365.853,
      "v": 100
    },
    {
      "midi": 50,
      "hit": false,
      "t": 0,
      "d": 731.706,
      "v": 100
    },
    {
      "midi": 66,
      "hit": false,
      "t": 365.853,
      "d": 731.7059999999999,
      "v": 100
    },
    {
      "midi": 74,
      "hit": false,
      "t": 365.853,
      "d": 731.7059999999999,
      "v": 100
    },
    {
      "midi": 45,
      "hit": false,
      "t": 731.706,
      "d": 731.706,
      "v": 100
    },
    {
      "midi": 74,
      "hit": false,
      "t": 1097.559,
      "d": 182.92650000000003,
      "v": 100
    },
    {
      "midi": 72,
      "hit": false,
      "t": 1280.4855,
      "d": 182.92650000000003,
      "v": 100
    },
    {
      "midi": 66,
      "hit": false,
      "t": 1463.412,
      "d": 365.85300000000007,
      "v": 100
    },
    {
      "midi": 74,
      "hit": false,
      "t": 1463.412,
      "d": 365.85300000000007,
      "v": 100
    },
    {
      "midi": 50,
      "hit": false,
      "t": 1463.412,
      "d": 731.7059999999999,
      "v": 100
    },
    {
      "midi": 66,
      "hit": false,
      "t": 1829.265,
      "d": 548.7794999999999,
      "v": 100
    },
    {
      "midi": 74,
      "hit": false,
      "t": 1829.265,
      "d": 548.7794999999999,
      "v": 100
    },
    {
      "midi": 45,
      "hit": false,
      "t": 2195.118,
      "d": 731.7060000000001,
      "v": 100
    },
    {
      "midi": 74,
      "hit": false,
      "t": 2378.0445,
      "d": 182.92650000000003,
      "v": 100
    },
    {
      "midi": 74,
      "hit": false,
      "t": 2560.971,
      "d": 182.92650000000003,
      "v": 100
    },
    {
      "midi": 72,
      "hit": false,
      "t": 2743.8975,
      "d": 182.92650000000003,
      "v": 100
    },
    {
      "midi": 66,
      "hit": false,
      "t": 2926.824,
      "d": 365.85300000000007,
      "v": 100
    },
    {
      "midi": 74,
      "hit": false,
      "t": 2926.824,
      "d": 365.85300000000007,
      "v": 100
    },
    {
      "midi": 50,
      "hit": false,
      "t": 2926.824,
      "d": 731.7060000000001,
      "v": 100
    },
    {
      "midi": 66,
      "hit": false,
      "t": 3292.677,
      "d": 548.7795000000001,
      "v": 100
    },
    {
      "midi": 74,
      "hit": false,
      "t": 3292.677,
      "d": 548.7795000000001,
      "v": 100
    },
    {
      "midi": 45,
      "hit": false,
      "t": 3658.53,
      "d": 731.7059999999997,
      "v": 100
    },
    {
      "midi": 72,
      "hit": false,
      "t": 3841.4565000000002,
      "d": 182.92650000000003,
      "v": 100
    },
    {
      "midi": 74,
      "hit": false,
      "t": 4024.3830000000003,
      "d": 182.92650000000003,
      "v": 100
    },
    {
      "midi": 72,
      "hit": false,
      "t": 4207.3095,
      "d": 182.92649999999958,
      "v": 100
    },
    {
      "midi": 74,
      "hit": false,
      "t": 4390.236,
      "d": 182.92649999999958,
      "v": 100
    },
    {
      "midi": 50,
      "hit": false,
      "t": 4390.236,
      "d": 731.7060000000001,
      "v": 100
    },
    {
      "midi": 72,
      "hit": false,
      "t": 4573.162499999999,
      "d": 182.92649999999958,
      "v": 100
    },
    {
      "midi": 74,
      "hit": false,
      "t": 4756.088999999999,
      "d": 182.92649999999958,
      "v": 100
    },
    {
      "midi": 72,
      "hit": false,
      "t": 4939.015499999999,
      "d": 182.92649999999958,
      "v": 100
    },
    {
      "midi": 74,
      "hit": false,
      "t": 5121.941999999998,
      "d": 182.92649999999958,
      "v": 100
    },
    {
      "midi": 45,
      "hit": false,
      "t": 5121.942,
      "d": 731.7060000000001,
      "v": 100
    },
    {
      "midi": 72,
      "hit": false,
      "t": 5304.868499999998,
      "d": 182.92649999999958,
      "v": 100
    },
    {
      "midi": 74,
      "hit": false,
      "t": 5487.794999999997,
      "d": 182.92649999999958,
      "v": 100
    },
    {
      "midi": 71,
      "hit": false,
      "t": 5670.721499999997,
      "d": 182.92649999999958,
      "v": 100
    },
    {
      "midi": 63,
      "hit": false,
      "t": 5853.6479999999965,
      "d": 365.85300000000007,
      "v": 100
    },
    {
      "midi": 71,
      "hit": false,
      "t": 5853.6479999999965,
      "d": 365.85300000000007,
      "v": 100
    },
    {
      "midi": 47,
      "hit": false,
      "t": 5853.648,
      "d": 731.7060000000001,
      "v": 100
    },
    {
      "midi": 75,
      "hit": false,
      "t": 6219.500999999997,
      "d": 731.7060000000001,
      "v": 100
    },
    {
      "midi": 42,
      "hit": false,
      "t": 6585.354,
      "d": 731.7060000000001,
      "v": 100
    },
    {
      "midi": 71,
      "hit": false,
      "t": 6951.206999999997,
      "d": 182.92649999999958,
      "v": 100
    },
    {
      "midi": 69,
      "hit": false,
      "t": 7134.133499999996,
      "d": 182.92649999999958,
      "v": 100
    },
    {
      "midi": 63,
      "hit": false,
      "t": 7317.059999999996,
      "d": 365.85300000000007,
      "v": 100
    },
    {
      "midi": 71,
      "hit": false,
      "t": 7317.059999999996,
      "d": 365.85300000000007,
      "v": 100
    },
    {
      "midi": 47,
      "hit": false,
      "t": 7317.06,
      "d": 731.7060000000001,
      "v": 100
    },
    {
      "midi": 63,
      "hit": false,
      "t": 7682.912999999996,
      "d": 548.7794999999996,
      "v": 100
    },
    {
      "midi": 71,
      "hit": false,
      "t": 7682.912999999996,
      "d": 548.7794999999996,
      "v": 100
    },
    {
      "midi": 42,
      "hit": false,
      "t": 8048.7660000000005,
      "d": 731.7059999999992,
      "v": 100
    },
    {
      "midi": 69,
      "hit": false,
      "t": 8231.692499999996,
      "d": 182.92649999999958,
      "v": 100
    },
    {
      "midi": 71,
      "hit": false,
      "t": 8414.618999999995,
      "d": 182.92649999999958,
      "v": 100
    },
    {
      "midi": 69,
      "hit": false,
      "t": 8597.545499999995,
      "d": 182.92649999999958,
      "v": 100
    },
    {
      "midi": 63,
      "hit": false,
      "t": 8780.471999999994,
      "d": 365.85299999999916,
      "v": 100
    },
    {
      "midi": 71,
      "hit": false,
      "t": 8780.471999999994,
      "d": 365.85299999999916,
      "v": 100
    },
    {
      "midi": 47,
      "hit": false,
      "t": 8780.472,
      "d": 731.7060000000001,
      "v": 100
    },
    {
      "midi": 63,
      "hit": false,
      "t": 9146.324999999993,
      "d": 365.85299999999916,
      "v": 100
    },
    {
      "midi": 71,
      "hit": false,
      "t": 9146.324999999993,
      "d": 365.85299999999916,
      "v": 100
    },
    {
      "midi": 42,
      "hit": false,
      "t": 9512.178,
      "d": 731.7060000000001,
      "v": 100
    },
    {
      "midi": 69,
      "hit": false,
      "t": 9695.104499999992,
      "d": 182.92649999999958,
      "v": 100
    },
    {
      "midi": 71,
      "hit": false,
      "t": 9878.030999999992,
      "d": 182.92649999999958,
      "v": 100
    },
    {
      "midi": 69,
      "hit": false,
      "t": 10060.957499999991,
      "d": 182.92649999999958,
      "v": 100
    },
    {
      "midi": 71,
      "hit": false,
      "t": 10243.883999999991,
      "d": 182.92649999999958,
      "v": 100
    },
    {
      "midi": 47,
      "hit": false,
      "t": 10243.884,
      "d": 731.7060000000001,
      "v": 100
    },
    {
      "midi": 69,
      "hit": false,
      "t": 10426.81049999999,
      "d": 182.92649999999958,
      "v": 100
    },
    {
      "midi": 71,
      "hit": false,
      "t": 10609.73699999999,
      "d": 182.92649999999958,
      "v": 100
    },
    {
      "midi": 69,
      "hit": false,
      "t": 10792.66349999999,
      "d": 182.92649999999958,
      "v": 100
    },
    {
      "midi": 71,
      "hit": false,
      "t": 10975.58999999999,
      "d": 182.92649999999958,
      "v": 100
    },
    {
      "midi": 42,
      "hit": false,
      "t": 10975.59,
      "d": 731.7060000000001,
      "v": 100
    },
    {
      "midi": 69,
      "hit": false,
      "t": 11158.516499999989,
      "d": 182.92649999999958,
      "v": 100
    },
    {
      "midi": 71,
      "hit": false,
      "t": 11341.442999999988,
      "d": 182.92649999999958,
      "v": 100
    },
    {
      "midi": 69,
      "hit": false,
      "t": 11524.369499999988,
      "d": 182.92649999999958,
      "v": 100
    },
    {
      "midi": 66,
      "hit": false,
      "t": 11707.295999999988,
      "d": 365.85299999999916,
      "v": 100
    },
    {
      "midi": 74,
      "hit": false,
      "t": 11707.295999999988,
      "d": 365.85299999999916,
      "v": 100
    },
    {
      "midi": 50,
      "hit": false,
      "t": 11707.296,
      "d": 731.7060000000001,
      "v": 100
    },
    {
      "midi": 66,
      "hit": false,
      "t": 12073.148999999987,
      "d": 731.7060000000001,
      "v": 100
    },
    {
      "midi": 74,
      "hit": false,
      "t": 12073.148999999987,
      "d": 731.7060000000001,
      "v": 100
    },
    {
      "midi": 45,
      "hit": false,
      "t": 12439.002,
      "d": 731.7060000000001,
      "v": 100
    },
    {
      "midi": 74,
      "hit": false,
      "t": 12804.854999999987,
      "d": 182.92649999999958,
      "v": 100
    },
    {
      "midi": 72,
      "hit": false,
      "t": 12987.781499999986,
      "d": 182.92649999999958,
      "v": 100
    },
    {
      "midi": 66,
      "hit": false,
      "t": 13170.707999999986,
      "d": 365.85299999999916,
      "v": 100
    },
    {
      "midi": 74,
      "hit": false,
      "t": 13170.707999999986,
      "d": 365.85299999999916,
      "v": 100
    },
    {
      "midi": 50,
      "hit": false,
      "t": 13170.708,
      "d": 731.7060000000001,
      "v": 100
    },
    {
      "midi": 66,
      "hit": false,
      "t": 13536.560999999985,
      "d": 548.7795000000006,
      "v": 100
    },
    {
      "midi": 74,
      "hit": false,
      "t": 13536.560999999985,
      "d": 548.7795000000006,
      "v": 100
    },
    {
      "midi": 45,
      "hit": false,
      "t": 13902.414,
      "d": 731.7060000000001,
      "v": 100
    },
    {
      "midi": 74,
      "hit": false,
      "t": 14085.340499999986,
      "d": 182.92649999999958,
      "v": 100
    },
    {
      "midi": 74,
      "hit": false,
      "t": 14268.266999999985,
      "d": 182.92649999999958,
      "v": 100
    },
    {
      "midi": 72,
      "hit": false,
      "t": 14451.193499999985,
      "d": 182.92649999999958,
      "v": 100
    },
    {
      "midi": 66,
      "hit": false,
      "t": 14634.119999999984,
      "d": 365.85299999999916,
      "v": 100
    },
    {
      "midi": 74,
      "hit": false,
      "t": 14634.119999999984,
      "d": 365.85299999999916,
      "v": 100
    },
    {
      "midi": 50,
      "hit": false,
      "t": 14634.12,
      "d": 731.7060000000001,
      "v": 100
    },
    {
      "midi": 66,
      "hit": false,
      "t": 14999.972999999984,
      "d": 548.7795000000006,
      "v": 100
    },
    {
      "midi": 74,
      "hit": false,
      "t": 14999.972999999984,
      "d": 548.7795000000006,
      "v": 100
    },
    {
      "midi": 45,
      "hit": false,
      "t": 15365.826000000001,
      "d": 731.7060000000001,
      "v": 100
    },
    {
      "midi": 78,
      "hit": false,
      "t": 15548.752499999984,
      "d": 182.92649999999958,
      "v": 100
    },
    {
      "midi": 78,
      "hit": false,
      "t": 15731.678999999984,
      "d": 182.92649999999958,
      "v": 100
    },
    {
      "midi": 77,
      "hit": false,
      "t": 15914.605499999983,
      "d": 182.92649999999958,
      "v": 100
    },
    {
      "midi": 78,
      "hit": false,
      "t": 16097.531999999983,
      "d": 182.92649999999958,
      "v": 100
    },
    {
      "midi": 50,
      "hit": false,
      "t": 16097.532000000001,
      "d": 731.7060000000001,
      "v": 100
    },
    {
      "midi": 77,
      "hit": false,
      "t": 16280.458499999982,
      "d": 182.9265000000014,
      "v": 100
    },
    {
      "midi": 78,
      "hit": false,
      "t": 16463.384999999984,
      "d": 182.9265000000014,
      "v": 100
    },
    {
      "midi": 77,
      "hit": false,
      "t": 16646.311499999985,
      "d": 182.9265000000014,
      "v": 100
    },
    {
      "midi": 78,
      "hit": false,
      "t": 16829.237999999987,
      "d": 182.9265000000014,
      "v": 100
    },
    {
      "midi": 45,
      "hit": false,
      "t": 16829.238,
      "d": 731.7059999999983,
      "v": 100
    },
    {
      "midi": 77,
      "hit": false,
      "t": 17012.164499999988,
      "d": 182.9265000000014,
      "v": 100
    },
    {
      "midi": 78,
      "hit": false,
      "t": 17195.09099999999,
      "d": 182.9265000000014,
      "v": 100
    },
    {
      "midi": 71,
      "hit": false,
      "t": 17378.01749999999,
      "d": 182.9265000000014,
      "v": 100
    },
    {
      "midi": 63,
      "hit": false,
      "t": 17560.943999999992,
      "d": 365.85299999999916,
      "v": 100
    },
    {
      "midi": 71,
      "hit": false,
      "t": 17560.943999999992,
      "d": 365.85299999999916,
      "v": 100
    },
    {
      "midi": 47,
      "hit": false,
      "t": 17560.944,
      "d": 731.7059999999983,
      "v": 100
    },
    {
      "midi": 75,
      "hit": false,
      "t": 17926.79699999999,
      "d": 731.7059999999983,
      "v": 100
    },
    {
      "midi": 42,
      "hit": false,
      "t": 18292.649999999998,
      "d": 731.7059999999983,
      "v": 100
    },
    {
      "midi": 71,
      "hit": false,
      "t": 18658.50299999999,
      "d": 182.9265000000014,
      "v": 100
    },
    {
      "midi": 69,
      "hit": false,
      "t": 18841.42949999999,
      "d": 182.9265000000014,
      "v": 100
    },
    {
      "midi": 63,
      "hit": false,
      "t": 19024.355999999992,
      "d": 365.85299999999916,
      "v": 100
    },
    {
      "midi": 71,
      "hit": false,
      "t": 19024.355999999992,
      "d": 365.85299999999916,
      "v": 100
    },
    {
      "midi": 47,
      "hit": false,
      "t": 19024.355999999996,
      "d": 731.7059999999983,
      "v": 100
    },
    {
      "midi": 63,
      "hit": false,
      "t": 19390.20899999999,
      "d": 548.7795000000006,
      "v": 100
    },
    {
      "midi": 71,
      "hit": false,
      "t": 19390.20899999999,
      "d": 548.7795000000006,
      "v": 100
    },
    {
      "midi": 42,
      "hit": false,
      "t": 19756.061999999994,
      "d": 731.7059999999983,
      "v": 100
    },
    {
      "midi": 69,
      "hit": false,
      "t": 19938.988499999992,
      "d": 182.9265000000014,
      "v": 100
    },
    {
      "midi": 71,
      "hit": false,
      "t": 20121.914999999994,
      "d": 182.9265000000014,
      "v": 100
    },
    {
      "midi": 69,
      "hit": false,
      "t": 20304.841499999995,
      "d": 182.9265000000014,
      "v": 100
    },
    {
      "midi": 47,
      "hit": false,
      "t": 20487.767999999993,
      "d": 731.7059999999983,
      "v": 100
    },
    {
      "midi": 63,
      "hit": false,
      "t": 20487.767999999996,
      "d": 365.85299999999916,
      "v": 100
    },
    {
      "midi": 71,
      "hit": false,
      "t": 20487.767999999996,
      "d": 365.85299999999916,
      "v": 100
    },
    {
      "midi": 63,
      "hit": false,
      "t": 20853.620999999996,
      "d": 548.7795000000006,
      "v": 100
    },
    {
      "midi": 71,
      "hit": false,
      "t": 20853.620999999996,
      "d": 548.7795000000006,
      "v": 100
    },
    {
      "midi": 42,
      "hit": false,
      "t": 21219.47399999999,
      "d": 731.7059999999983,
      "v": 100
    },
    {
      "midi": 69,
      "hit": false,
      "t": 21402.400499999996,
      "d": 182.9265000000014,
      "v": 100
    },
    {
      "midi": 71,
      "hit": false,
      "t": 21585.326999999997,
      "d": 182.9265000000014,
      "v": 100
    },
    {
      "midi": 69,
      "hit": false,
      "t": 21768.2535,
      "d": 182.9265000000014,
      "v": 100
    },
    {
      "midi": 47,
      "hit": false,
      "t": 21951.17999999999,
      "d": 731.7059999999983,
      "v": 100
    },
    {
      "midi": 63,
      "hit": false,
      "t": 21951.18,
      "d": 182.9265000000014,
      "v": 100
    },
    {
      "midi": 71,
      "hit": false,
      "t": 21951.18,
      "d": 182.9265000000014,
      "v": 100
    },
    {
      "midi": 66,
      "hit": false,
      "t": 22134.1065,
      "d": 365.85299999999916,
      "v": 100
    },
    {
      "midi": 69,
      "hit": false,
      "t": 22499.9595,
      "d": 182.9265000000014,
      "v": 100
    },
    {
      "midi": 42,
      "hit": false,
      "t": 22682.885999999988,
      "d": 731.7059999999983,
      "v": 100
    },
    {
      "midi": 63,
      "hit": false,
      "t": 22682.886000000002,
      "d": 182.9265000000014,
      "v": 100
    },
    {
      "midi": 71,
      "hit": false,
      "t": 22682.886000000002,
      "d": 182.9265000000014,
      "v": 100
    },
    {
      "midi": 66,
      "hit": false,
      "t": 22865.812500000004,
      "d": 182.9265000000014,
      "v": 100
    },
    {
      "midi": 43,
      "hit": false,
      "t": 23414.591999999986,
      "d": 548.7795000000006,
      "v": 100
    },
    {
      "midi": 59,
      "hit": false,
      "t": 23414.592000000004,
      "d": 1463.4120000000003,
      "v": 100
    },
    {
      "midi": 67,
      "hit": false,
      "t": 23414.592000000004,
      "d": 1463.4120000000003,
      "v": 100
    },
    {
      "midi": 43,
      "hit": false,
      "t": 23963.371499999987,
      "d": 182.9265000000014,
      "v": 100
    },
    {
      "midi": 38,
      "hit": false,
      "t": 24146.297999999988,
      "d": 365.85299999999916,
      "v": 100
    },
    {
      "midi": 43,
      "hit": false,
      "t": 24512.150999999987,
      "d": 365.85299999999916,
      "v": 100
    },
    {
      "midi": 47,
      "hit": false,
      "t": 24878.003999999986,
      "d": 548.7795000000006,
      "v": 100
    },
    {
      "midi": 62,
      "hit": false,
      "t": 24878.004000000004,
      "d": 1463.4120000000003,
      "v": 100
    },
    {
      "midi": 71,
      "hit": false,
      "t": 24878.004000000004,
      "d": 1463.4120000000003,
      "v": 100
    },
    {
      "midi": 47,
      "hit": false,
      "t": 25426.783499999987,
      "d": 182.9265000000014,
      "v": 100
    },
    {
      "midi": 42,
      "hit": false,
      "t": 25609.70999999999,
      "d": 365.85299999999916,
      "v": 100
    },
    {
      "midi": 47,
      "hit": false,
      "t": 25975.562999999987,
      "d": 365.85299999999916,
      "v": 100
    },
    {
      "midi": 45,
      "hit": false,
      "t": 26341.415999999987,
      "d": 731.7059999999983,
      "v": 100
    },
    {
      "midi": 64,
      "hit": false,
      "t": 26341.416000000005,
      "d": 548.7795000000006,
      "v": 100
    },
    {
      "midi": 73,
      "hit": false,
      "t": 26341.416000000005,
      "d": 548.7795000000006,
      "v": 100
    },
    {
      "midi": 71,
      "hit": false,
      "t": 26890.195500000005,
      "d": 548.7795000000006,
      "v": 100
    },
    {
      "midi": 40,
      "hit": false,
      "t": 27073.121999999985,
      "d": 365.85299999999916,
      "v": 100
    },
    {
      "midi": 45,
      "hit": false,
      "t": 27438.974999999984,
      "d": 365.85299999999916,
      "v": 100
    },
    {
      "midi": 69,
      "hit": false,
      "t": 27438.975000000006,
      "d": 365.85299999999916,
      "v": 100
    },
    {
      "midi": 42,
      "hit": false,
      "t": 27804.827999999983,
      "d": 548.7795000000006,
      "v": 100
    },
    {
      "midi": 57,
      "hit": false,
      "t": 27804.828000000005,
      "d": 1097.559000000001,
      "v": 100
    },
    {
      "midi": 66,
      "hit": false,
      "t": 27804.828000000005,
      "d": 1097.559000000001,
      "v": 100
    },
    {
      "midi": 42,
      "hit": false,
      "t": 28353.607499999984,
      "d": 182.9265000000014,
      "v": 100
    },
    {
      "midi": 37,
      "hit": false,
      "t": 28536.533999999985,
      "d": 365.85299999999916,
      "v": 100
    },
    {
      "midi": 42,
      "hit": false,
      "t": 28902.386999999984,
      "d": 365.85299999999916,
      "v": 100
    },
    {
      "midi": 43,
      "hit": false,
      "t": 29268.239999999983,
      "d": 548.7795000000006,
      "v": 100
    },
    {
      "midi": 59,
      "hit": false,
      "t": 29268.240000000005,
      "d": 1463.4120000000003,
      "v": 100
    },
    {
      "midi": 67,
      "hit": false,
      "t": 29268.240000000005,
      "d": 1463.4120000000003,
      "v": 100
    },
    {
      "midi": 43,
      "hit": false,
      "t": 29817.019499999984,
      "d": 182.9265000000014,
      "v": 100
    },
    {
      "midi": 38,
      "hit": false,
      "t": 29999.945999999985,
      "d": 365.85299999999916,
      "v": 100
    },
    {
      "midi": 43,
      "hit": false,
      "t": 30365.798999999985,
      "d": 365.85299999999916,
      "v": 100
    },
    {
      "midi": 47,
      "hit": false,
      "t": 30731.651999999984,
      "d": 548.7795000000006,
      "v": 100
    },
    {
      "midi": 62,
      "hit": false,
      "t": 30731.652000000006,
      "d": 1097.559000000001,
      "v": 100
    },
    {
      "midi": 71,
      "hit": false,
      "t": 30731.652000000006,
      "d": 1097.559000000001,
      "v": 100
    },
    {
      "midi": 47,
      "hit": false,
      "t": 31280.431499999984,
      "d": 182.9265000000014,
      "v": 100
    },
    {
      "midi": 42,
      "hit": false,
      "t": 31463.357999999986,
      "d": 365.85299999999916,
      "v": 100
    },
    {
      "midi": 47,
      "hit": false,
      "t": 31829.210999999985,
      "d": 365.85299999999916,
      "v": 100
    },
    {
      "midi": 71,
      "hit": false,
      "t": 31829.211000000007,
      "d": 365.85299999999916,
      "v": 100
    },
    {
      "midi": 45,
      "hit": false,
      "t": 32195.063999999984,
      "d": 731.7059999999983,
      "v": 100
    },
    {
      "midi": 64,
      "hit": false,
      "t": 32195.064000000006,
      "d": 548.7795000000006,
      "v": 100
    },
    {
      "midi": 72,
      "hit": false,
      "t": 32195.064000000006,
      "d": 548.7795000000006,
      "v": 100
    },
    {
      "midi": 71,
      "hit": false,
      "t": 32743.843500000006,
      "d": 548.7795000000006,
      "v": 100
    },
    {
      "midi": 40,
      "hit": false,
      "t": 32926.76999999998,
      "d": 365.8530000000028,
      "v": 100
    },
    {
      "midi": 45,
      "hit": false,
      "t": 33292.622999999985,
      "d": 365.8530000000028,
      "v": 100
    },
    {
      "midi": 69,
      "hit": false,
      "t": 33292.62300000001,
      "d": 365.8530000000028,
      "v": 100
    },
    {
      "midi": 42,
      "hit": false,
      "t": 33658.47599999999,
      "d": 548.7794999999969,
      "v": 100
    },
    {
      "midi": 57,
      "hit": false,
      "t": 33658.47600000001,
      "d": 731.7059999999983,
      "v": 100
    },
    {
      "midi": 66,
      "hit": false,
      "t": 33658.47600000001,
      "d": 731.7059999999983,
      "v": 100
    },
    {
      "midi": 42,
      "hit": false,
      "t": 34207.255499999985,
      "d": 182.9265000000014,
      "v": 100
    },
    {
      "midi": 37,
      "hit": false,
      "t": 34390.181999999986,
      "d": 365.8530000000028,
      "v": 100
    },
    {
      "midi": 42,
      "hit": false,
      "t": 34756.03499999999,
      "d": 365.8530000000028,
      "v": 100
    },
    {
      "midi": 57,
      "hit": false,
      "t": 34756.03500000001,
      "d": 365.8530000000028,
      "v": 100
    },
    {
      "midi": 66,
      "hit": false,
      "t": 34756.03500000001,
      "d": 365.8530000000028,
      "v": 100
    },
    {
      "midi": 43,
      "hit": false,
      "t": 35121.88799999999,
      "d": 731.7059999999983,
      "v": 100
    },
    {
      "midi": 59,
      "hit": false,
      "t": 35121.88800000001,
      "d": 548.7794999999969,
      "v": 100
    },
    {
      "midi": 67,
      "hit": false,
      "t": 35121.88800000001,
      "d": 548.7794999999969,
      "v": 100
    },
    {
      "midi": 61,
      "hit": false,
      "t": 35670.66750000001,
      "d": 548.7794999999969,
      "v": 100
    },
    {
      "midi": 69,
      "hit": false,
      "t": 35670.66750000001,
      "d": 548.7794999999969,
      "v": 100
    },
    {
      "midi": 38,
      "hit": false,
      "t": 35853.59399999999,
      "d": 365.8530000000028,
      "v": 100
    },
    {
      "midi": 43,
      "hit": false,
      "t": 36219.44699999999,
      "d": 365.8530000000028,
      "v": 100
    },
    {
      "midi": 62,
      "hit": false,
      "t": 36219.44700000001,
      "d": 365.8530000000028,
      "v": 100
    },
    {
      "midi": 71,
      "hit": false,
      "t": 36219.44700000001,
      "d": 365.8530000000028,
      "v": 100
    },
    {
      "midi": 40,
      "hit": false,
      "t": 36585.299999999996,
      "d": 365.8530000000028,
      "v": 100
    },
    {
      "midi": 64,
      "hit": false,
      "t": 36585.30000000001,
      "d": 1463.4119999999966,
      "v": 100
    },
    {
      "midi": 40,
      "hit": false,
      "t": 36951.153,
      "d": 365.8530000000028,
      "v": 100
    },
    {
      "midi": 40,
      "hit": false,
      "t": 37317.006,
      "d": 365.8530000000028,
      "v": 100
    },
    {
      "midi": 40,
      "hit": false,
      "t": 37682.859000000004,
      "d": 365.8530000000028,
      "v": 100
    },
    {
      "midi": 66,
      "hit": false,
      "t": 38048.71200000001,
      "d": 2560.9709999999977,
      "v": 100
    },
    {
      "midi": 42,
      "hit": false,
      "t": 38048.71200000001,
      "d": 365.8530000000028,
      "v": 100
    },
    {
      "midi": 42,
      "hit": false,
      "t": 38414.56500000001,
      "d": 365.8530000000028,
      "v": 100
    },
    {
      "midi": 42,
      "hit": false,
      "t": 38780.41800000001,
      "d": 365.8530000000028,
      "v": 100
    },
    {
      "midi": 42,
      "hit": false,
      "t": 39146.271000000015,
      "d": 365.8530000000028,
      "v": 100
    },
    {
      "midi": 42,
      "hit": false,
      "t": 39512.12400000002,
      "d": 365.8530000000028,
      "v": 100
    },
    {
      "midi": 42,
      "hit": false,
      "t": 39877.97700000002,
      "d": 365.8530000000028,
      "v": 100
    },
    {
      "midi": 42,
      "hit": false,
      "t": 40243.83000000002,
      "d": 365.8530000000028,
      "v": 100
    },
    {
      "midi": 42,
      "hit": false,
      "t": 40609.68300000003,
      "d": 365.8530000000028,
      "v": 100
    },
    {
      "midi": 66,
      "hit": false,
      "t": 40975.53600000001,
      "d": 365.8530000000028,
      "v": 100
    },
    {
      "midi": 74,
      "hit": false,
      "t": 40975.53600000001,
      "d": 365.8530000000028,
      "v": 100
    },
    {
      "midi": 50,
      "hit": false,
      "t": 40975.53600000003,
      "d": 731.7059999999983,
      "v": 100
    },
    {
      "midi": 66,
      "hit": false,
      "t": 41341.38900000001,
      "d": 731.7059999999983,
      "v": 100
    },
    {
      "midi": 74,
      "hit": false,
      "t": 41341.38900000001,
      "d": 731.7059999999983,
      "v": 100
    },
    {
      "midi": 45,
      "hit": false,
      "t": 41707.24200000003,
      "d": 731.7059999999983,
      "v": 100
    },
    {
      "midi": 74,
      "hit": false,
      "t": 42073.09500000001,
      "d": 182.9265000000014,
      "v": 100
    },
    {
      "midi": 72,
      "hit": false,
      "t": 42256.02150000001,
      "d": 182.9265000000014,
      "v": 100
    },
    {
      "midi": 66,
      "hit": false,
      "t": 42438.94800000001,
      "d": 365.8530000000028,
      "v": 100
    },
    {
      "midi": 74,
      "hit": false,
      "t": 42438.94800000001,
      "d": 365.8530000000028,
      "v": 100
    },
    {
      "midi": 50,
      "hit": false,
      "t": 42438.948000000026,
      "d": 731.7059999999983,
      "v": 100
    },
    {
      "midi": 66,
      "hit": false,
      "t": 42804.801000000014,
      "d": 548.7794999999969,
      "v": 100
    },
    {
      "midi": 74,
      "hit": false,
      "t": 42804.801000000014,
      "d": 548.7794999999969,
      "v": 100
    },
    {
      "midi": 45,
      "hit": false,
      "t": 43170.654000000024,
      "d": 731.7059999999983,
      "v": 100
    },
    {
      "midi": 74,
      "hit": false,
      "t": 43353.58050000001,
      "d": 182.9265000000014,
      "v": 100
    },
    {
      "midi": 74,
      "hit": false,
      "t": 43536.50700000001,
      "d": 182.9265000000014,
      "v": 100
    },
    {
      "midi": 72,
      "hit": false,
      "t": 43719.433500000014,
      "d": 182.9265000000014,
      "v": 100
    },
    {
      "midi": 66,
      "hit": false,
      "t": 43902.360000000015,
      "d": 365.8530000000028,
      "v": 100
    },
    {
      "midi": 74,
      "hit": false,
      "t": 43902.360000000015,
      "d": 365.8530000000028,
      "v": 100
    },
    {
      "midi": 50,
      "hit": false,
      "t": 43902.36000000002,
      "d": 731.7059999999983,
      "v": 100
    },
    {
      "midi": 66,
      "hit": false,
      "t": 44268.21300000002,
      "d": 548.7794999999969,
      "v": 100
    },
    {
      "midi": 74,
      "hit": false,
      "t": 44268.21300000002,
      "d": 548.7794999999969,
      "v": 100
    },
    {
      "midi": 45,
      "hit": false,
      "t": 44634.06600000002,
      "d": 731.7059999999983,
      "v": 100
    },
    {
      "midi": 72,
      "hit": false,
      "t": 44816.992500000015,
      "d": 182.9265000000014,
      "v": 100
    },
    {
      "midi": 74,
      "hit": false,
      "t": 44999.919000000016,
      "d": 182.9265000000014,
      "v": 100
    },
    {
      "midi": 72,
      "hit": false,
      "t": 45182.84550000002,
      "d": 182.9265000000014,
      "v": 100
    },
    {
      "midi": 74,
      "hit": false,
      "t": 45365.77200000002,
      "d": 182.9265000000014,
      "v": 100
    },
    {
      "midi": 50,
      "hit": false,
      "t": 45365.77200000002,
      "d": 731.7059999999983,
      "v": 100
    },
    {
      "midi": 72,
      "hit": false,
      "t": 45548.69850000002,
      "d": 182.9265000000014,
      "v": 100
    },
    {
      "midi": 74,
      "hit": false,
      "t": 45731.62500000002,
      "d": 182.9265000000014,
      "v": 100
    },
    {
      "midi": 72,
      "hit": false,
      "t": 45914.55150000002,
      "d": 182.9265000000014,
      "v": 100
    },
    {
      "midi": 45,
      "hit": false,
      "t": 46097.47800000002,
      "d": 731.7059999999983,
      "v": 100
    },
    {
      "midi": 74,
      "hit": false,
      "t": 46097.478000000025,
      "d": 182.9265000000014,
      "v": 100
    },
    {
      "midi": 72,
      "hit": false,
      "t": 46280.404500000026,
      "d": 182.9265000000014,
      "v": 100
    },
    {
      "midi": 74,
      "hit": false,
      "t": 46463.33100000003,
      "d": 182.9265000000014,
      "v": 100
    },
    {
      "midi": 71,
      "hit": false,
      "t": 46646.25750000003,
      "d": 182.9265000000014,
      "v": 100
    },
    {
      "midi": 47,
      "hit": false,
      "t": 46829.184000000016,
      "d": 731.7059999999983,
      "v": 100
    },
    {
      "midi": 63,
      "hit": false,
      "t": 46829.18400000003,
      "d": 365.8530000000028,
      "v": 100
    },
    {
      "midi": 71,
      "hit": false,
      "t": 46829.18400000003,
      "d": 365.8530000000028,
      "v": 100
    },
    {
      "midi": 75,
      "hit": false,
      "t": 47195.03700000003,
      "d": 731.7059999999983,
      "v": 100
    },
    {
      "midi": 42,
      "hit": false,
      "t": 47560.890000000014,
      "d": 731.7059999999983,
      "v": 100
    },
    {
      "midi": 71,
      "hit": false,
      "t": 47926.74300000003,
      "d": 182.9265000000014,
      "v": 100
    },
    {
      "midi": 69,
      "hit": false,
      "t": 48109.66950000003,
      "d": 182.9265000000014,
      "v": 100
    },
    {
      "midi": 47,
      "hit": false,
      "t": 48292.59600000001,
      "d": 731.7059999999983,
      "v": 100
    },
    {
      "midi": 63,
      "hit": false,
      "t": 48292.596000000034,
      "d": 365.8530000000028,
      "v": 100
    },
    {
      "midi": 71,
      "hit": false,
      "t": 48292.596000000034,
      "d": 365.8530000000028,
      "v": 100
    },
    {
      "midi": 63,
      "hit": false,
      "t": 48658.44900000004,
      "d": 548.7794999999969,
      "v": 100
    },
    {
      "midi": 71,
      "hit": false,
      "t": 48658.44900000004,
      "d": 548.7794999999969,
      "v": 100
    },
    {
      "midi": 42,
      "hit": false,
      "t": 49024.30200000001,
      "d": 731.7059999999983,
      "v": 100
    },
    {
      "midi": 69,
      "hit": false,
      "t": 49207.228500000034,
      "d": 182.9265000000014,
      "v": 100
    },
    {
      "midi": 71,
      "hit": false,
      "t": 49390.155000000035,
      "d": 182.9265000000014,
      "v": 100
    },
    {
      "midi": 69,
      "hit": false,
      "t": 49573.08150000004,
      "d": 182.9265000000014,
      "v": 100
    },
    {
      "midi": 47,
      "hit": false,
      "t": 49756.00800000001,
      "d": 731.7059999999983,
      "v": 100
    },
    {
      "midi": 63,
      "hit": false,
      "t": 49756.00800000004,
      "d": 365.8530000000028,
      "v": 100
    },
    {
      "midi": 71,
      "hit": false,
      "t": 49756.00800000004,
      "d": 365.8530000000028,
      "v": 100
    },
    {
      "midi": 63,
      "hit": false,
      "t": 50121.86100000004,
      "d": 365.8530000000028,
      "v": 100
    },
    {
      "midi": 71,
      "hit": false,
      "t": 50121.86100000004,
      "d": 365.8530000000028,
      "v": 100
    },
    {
      "midi": 42,
      "hit": false,
      "t": 50487.71400000001,
      "d": 731.7059999999983,
      "v": 100
    },
    {
      "midi": 69,
      "hit": false,
      "t": 50670.640500000045,
      "d": 182.9265000000014,
      "v": 100
    },
    {
      "midi": 71,
      "hit": false,
      "t": 50853.56700000005,
      "d": 182.9265000000014,
      "v": 100
    },
    {
      "midi": 69,
      "hit": false,
      "t": 51036.49350000005,
      "d": 182.9265000000014,
      "v": 100
    },
    {
      "midi": 47,
      "hit": false,
      "t": 51219.420000000006,
      "d": 731.7059999999983,
      "v": 100
    },
    {
      "midi": 71,
      "hit": false,
      "t": 51219.42000000005,
      "d": 182.9265000000014,
      "v": 100
    },
    {
      "midi": 69,
      "hit": false,
      "t": 51402.34650000005,
      "d": 182.9265000000014,
      "v": 100
    },
    {
      "midi": 71,
      "hit": false,
      "t": 51585.27300000005,
      "d": 182.9265000000014,
      "v": 100
    },
    {
      "midi": 69,
      "hit": false,
      "t": 51768.19950000005,
      "d": 182.9265000000014,
      "v": 100
    },
    {
      "midi": 42,
      "hit": false,
      "t": 51951.126000000004,
      "d": 731.7059999999983,
      "v": 100
    },
    {
      "midi": 71,
      "hit": false,
      "t": 51951.126000000055,
      "d": 182.9265000000014,
      "v": 100
    },
    {
      "midi": 69,
      "hit": false,
      "t": 52134.052500000056,
      "d": 182.9265000000014,
      "v": 100
    },
    {
      "midi": 71,
      "hit": false,
      "t": 52316.97900000006,
      "d": 182.9265000000014,
      "v": 100
    },
    {
      "midi": 69,
      "hit": false,
      "t": 52499.90550000006,
      "d": 182.9265000000014,
      "v": 100
    },
    {
      "midi": 50,
      "hit": false,
      "t": 52682.832,
      "d": 731.7059999999983,
      "v": 100
    },
    {
      "midi": 66,
      "hit": false,
      "t": 52682.83200000006,
      "d": 365.8530000000028,
      "v": 100
    },
    {
      "midi": 74,
      "hit": false,
      "t": 52682.83200000006,
      "d": 365.8530000000028,
      "v": 100
    },
    {
      "midi": 66,
      "hit": false,
      "t": 53048.68500000006,
      "d": 731.7059999999983,
      "v": 100
    },
    {
      "midi": 74,
      "hit": false,
      "t": 53048.68500000006,
      "d": 731.7059999999983,
      "v": 100
    },
    {
      "midi": 45,
      "hit": false,
      "t": 53414.538,
      "d": 731.7059999999983,
      "v": 100
    },
    {
      "midi": 74,
      "hit": false,
      "t": 53780.39100000006,
      "d": 182.9265000000014,
      "v": 100
    },
    {
      "midi": 72,
      "hit": false,
      "t": 53963.31750000006,
      "d": 182.9265000000014,
      "v": 100
    },
    {
      "midi": 50,
      "hit": false,
      "t": 54146.244,
      "d": 731.7059999999983,
      "v": 100
    },
    {
      "midi": 66,
      "hit": false,
      "t": 54146.244000000064,
      "d": 365.8530000000028,
      "v": 100
    },
    {
      "midi": 74,
      "hit": false,
      "t": 54146.244000000064,
      "d": 365.8530000000028,
      "v": 100
    },
    {
      "midi": 66,
      "hit": false,
      "t": 54512.09700000007,
      "d": 548.7794999999969,
      "v": 100
    },
    {
      "midi": 74,
      "hit": false,
      "t": 54512.09700000007,
      "d": 548.7794999999969,
      "v": 100
    },
    {
      "midi": 45,
      "hit": false,
      "t": 54877.95,
      "d": 731.7059999999983,
      "v": 100
    },
    {
      "midi": 74,
      "hit": false,
      "t": 55060.876500000064,
      "d": 182.9265000000014,
      "v": 100
    },
    {
      "midi": 74,
      "hit": false,
      "t": 55243.803000000065,
      "d": 182.9265000000014,
      "v": 100
    },
    {
      "midi": 72,
      "hit": false,
      "t": 55426.72950000007,
      "d": 182.9265000000014,
      "v": 100
    },
    {
      "midi": 50,
      "hit": false,
      "t": 55609.655999999995,
      "d": 731.7059999999983,
      "v": 100
    },
    {
      "midi": 66,
      "hit": false,
      "t": 55609.65600000007,
      "d": 365.8530000000028,
      "v": 100
    },
    {
      "midi": 74,
      "hit": false,
      "t": 55609.65600000007,
      "d": 365.8530000000028,
      "v": 100
    },
    {
      "midi": 66,
      "hit": false,
      "t": 55975.50900000007,
      "d": 548.7794999999969,
      "v": 100
    },
    {
      "midi": 74,
      "hit": false,
      "t": 55975.50900000007,
      "d": 548.7794999999969,
      "v": 100
    },
    {
      "midi": 45,
      "hit": false,
      "t": 56341.361999999994,
      "d": 731.7059999999983,
      "v": 100
    },
    {
      "midi": 78,
      "hit": false,
      "t": 56524.28850000007,
      "d": 182.9265000000014,
      "v": 100
    },
    {
      "midi": 78,
      "hit": false,
      "t": 56707.21500000007,
      "d": 182.9265000000014,
      "v": 100
    },
    {
      "midi": 77,
      "hit": false,
      "t": 56890.14150000007,
      "d": 182.9265000000014,
      "v": 100
    },
    {
      "midi": 50,
      "hit": false,
      "t": 57073.06799999999,
      "d": 731.7059999999983,
      "v": 100
    },
    {
      "midi": 78,
      "hit": false,
      "t": 57073.06800000007,
      "d": 182.9265000000014,
      "v": 100
    },
    {
      "midi": 77,
      "hit": false,
      "t": 57255.99450000007,
      "d": 182.9265000000014,
      "v": 100
    },
    {
      "midi": 78,
      "hit": false,
      "t": 57438.921000000075,
      "d": 182.9265000000014,
      "v": 100
    },
    {
      "midi": 77,
      "hit": false,
      "t": 57621.847500000076,
      "d": 182.9265000000014,
      "v": 100
    },
    {
      "midi": 45,
      "hit": false,
      "t": 57804.77399999999,
      "d": 731.7059999999983,
      "v": 100
    },
    {
      "midi": 78,
      "hit": false,
      "t": 57804.77400000008,
      "d": 182.9265000000014,
      "v": 100
    },
    {
      "midi": 77,
      "hit": false,
      "t": 57987.70050000008,
      "d": 182.9265000000014,
      "v": 100
    },
    {
      "midi": 78,
      "hit": false,
      "t": 58170.62700000008,
      "d": 182.9265000000014,
      "v": 100
    },
    {
      "midi": 71,
      "hit": false,
      "t": 58353.55350000008,
      "d": 182.9265000000014,
      "v": 100
    },
    {
      "midi": 47,
      "hit": false,
      "t": 58536.47999999999,
      "d": 731.7059999999983,
      "v": 100
    },
    {
      "midi": 63,
      "hit": false,
      "t": 58536.48000000008,
      "d": 365.8530000000028,
      "v": 100
    },
    {
      "midi": 71,
      "hit": false,
      "t": 58536.48000000008,
      "d": 365.8530000000028,
      "v": 100
    },
    {
      "midi": 75,
      "hit": false,
      "t": 58902.333000000086,
      "d": 731.7059999999983,
      "v": 100
    },
    {
      "midi": 42,
      "hit": false,
      "t": 59268.18599999999,
      "d": 731.7059999999983,
      "v": 100
    },
    {
      "midi": 71,
      "hit": false,
      "t": 59634.039000000084,
      "d": 182.9265000000014,
      "v": 100
    },
    {
      "midi": 69,
      "hit": false,
      "t": 59816.965500000086,
      "d": 182.9265000000014,
      "v": 100
    },
    {
      "midi": 47,
      "hit": false,
      "t": 59999.891999999985,
      "d": 731.7059999999983,
      "v": 100
    },
    {
      "midi": 63,
      "hit": false,
      "t": 59999.89200000009,
      "d": 365.8530000000028,
      "v": 100
    },
    {
      "midi": 71,
      "hit": false,
      "t": 59999.89200000009,
      "d": 365.8530000000028,
      "v": 100
    },
    {
      "midi": 63,
      "hit": false,
      "t": 60365.74500000009,
      "d": 548.7794999999969,
      "v": 100
    },
    {
      "midi": 71,
      "hit": false,
      "t": 60365.74500000009,
      "d": 548.7794999999969,
      "v": 100
    },
    {
      "midi": 42,
      "hit": false,
      "t": 60731.59799999998,
      "d": 731.7059999999983,
      "v": 100
    },
    {
      "midi": 69,
      "hit": false,
      "t": 60914.52450000009,
      "d": 182.9265000000014,
      "v": 100
    },
    {
      "midi": 71,
      "hit": false,
      "t": 61097.45100000009,
      "d": 182.9265000000014,
      "v": 100
    },
    {
      "midi": 69,
      "hit": false,
      "t": 61280.37750000009,
      "d": 182.9265000000014,
      "v": 100
    },
    {
      "midi": 47,
      "hit": false,
      "t": 61463.30399999998,
      "d": 731.7059999999983,
      "v": 100
    },
    {
      "midi": 63,
      "hit": false,
      "t": 61463.30400000009,
      "d": 365.8530000000028,
      "v": 100
    },
    {
      "midi": 71,
      "hit": false,
      "t": 61463.30400000009,
      "d": 365.8530000000028,
      "v": 100
    },
    {
      "midi": 63,
      "hit": false,
      "t": 61829.157000000094,
      "d": 548.7794999999969,
      "v": 100
    },
    {
      "midi": 71,
      "hit": false,
      "t": 61829.157000000094,
      "d": 548.7794999999969,
      "v": 100
    },
    {
      "midi": 42,
      "hit": false,
      "t": 62195.00999999998,
      "d": 731.7059999999983,
      "v": 100
    },
    {
      "midi": 69,
      "hit": false,
      "t": 62377.93650000009,
      "d": 182.9265000000014,
      "v": 100
    },
    {
      "midi": 71,
      "hit": false,
      "t": 62560.86300000009,
      "d": 182.9265000000014,
      "v": 100
    },
    {
      "midi": 69,
      "hit": false,
      "t": 62743.78950000009,
      "d": 182.9265000000014,
      "v": 100
    },
    {
      "midi": 47,
      "hit": false,
      "t": 62926.71599999998,
      "d": 731.7059999999983,
      "v": 100
    },
    {
      "midi": 63,
      "hit": false,
      "t": 62926.716000000095,
      "d": 182.9265000000014,
      "v": 100
    },
    {
      "midi": 71,
      "hit": false,
      "t": 62926.716000000095,
      "d": 182.9265000000014,
      "v": 100
    },
    {
      "midi": 66,
      "hit": false,
      "t": 63109.642500000096,
      "d": 365.8530000000028,
      "v": 100
    },
    {
      "midi": 69,
      "hit": false,
      "t": 63475.4955000001,
      "d": 182.9265000000014,
      "v": 100
    },
    {
      "midi": 42,
      "hit": false,
      "t": 63658.42199999998,
      "d": 731.7059999999983,
      "v": 100
    },
    {
      "midi": 63,
      "hit": false,
      "t": 63658.4220000001,
      "d": 182.9265000000014,
      "v": 100
    },
    {
      "midi": 71,
      "hit": false,
      "t": 63658.4220000001,
      "d": 182.9265000000014,
      "v": 100
    },
    {
      "midi": 66,
      "hit": false,
      "t": 63841.3485000001,
      "d": 182.9265000000014,
      "v": 100
    },
    {
      "midi": 38,
      "hit": false,
      "t": 64390.127999999975,
      "d": 365.8530000000028,
      "v": 100
    },
    {
      "midi": 66,
      "hit": false,
      "t": 64390.128000000106,
      "d": 365.8530000000028,
      "v": 100
    },
    {
      "midi": 74,
      "hit": false,
      "t": 64390.128000000106,
      "d": 365.8530000000028,
      "v": 100
    },
    {
      "midi": 45,
      "hit": false,
      "t": 64755.98099999998,
      "d": 365.8530000000028,
      "v": 100
    },
    {
      "midi": 69,
      "hit": false,
      "t": 64755.98100000011,
      "d": 365.8530000000028,
      "v": 100
    },
    {
      "midi": 38,
      "hit": false,
      "t": 65121.83399999998,
      "d": 365.8530000000028,
      "v": 100
    },
    {
      "midi": 66,
      "hit": false,
      "t": 65121.83400000011,
      "d": 182.9265000000014,
      "v": 100
    },
    {
      "midi": 74,
      "hit": false,
      "t": 65121.83400000011,
      "d": 182.9265000000014,
      "v": 100
    },
    {
      "midi": 66,
      "hit": false,
      "t": 65304.76050000011,
      "d": 182.9265000000014,
      "v": 100
    },
    {
      "midi": 74,
      "hit": false,
      "t": 65304.76050000011,
      "d": 182.9265000000014,
      "v": 100
    },
    {
      "midi": 45,
      "hit": false,
      "t": 65487.68699999998,
      "d": 365.8529999999955,
      "v": 100
    },
    {
      "midi": 69,
      "hit": false,
      "t": 65487.687000000114,
      "d": 365.8529999999955,
      "v": 100
    },
    {
      "midi": 38,
      "hit": false,
      "t": 65853.53999999998,
      "d": 365.8530000000028,
      "v": 100
    },
    {
      "midi": 66,
      "hit": false,
      "t": 65853.54000000011,
      "d": 365.8530000000028,
      "v": 100
    },
    {
      "midi": 74,
      "hit": false,
      "t": 65853.54000000011,
      "d": 365.8530000000028,
      "v": 100
    },
    {
      "midi": 45,
      "hit": false,
      "t": 66219.39299999998,
      "d": 365.8530000000028,
      "v": 100
    },
    {
      "midi": 69,
      "hit": false,
      "t": 66219.39300000011,
      "d": 182.9265000000014,
      "v": 100
    },
    {
      "midi": 69,
      "hit": false,
      "t": 66402.31950000011,
      "d": 182.9265000000014,
      "v": 100
    },
    {
      "midi": 38,
      "hit": false,
      "t": 66585.24599999998,
      "d": 365.8530000000028,
      "v": 100
    },
    {
      "midi": 66,
      "hit": false,
      "t": 66585.24600000012,
      "d": 182.9265000000014,
      "v": 100
    },
    {
      "midi": 74,
      "hit": false,
      "t": 66585.24600000012,
      "d": 182.9265000000014,
      "v": 100
    },
    {
      "midi": 66,
      "hit": false,
      "t": 66768.17250000012,
      "d": 182.9265000000014,
      "v": 100
    },
    {
      "midi": 74,
      "hit": false,
      "t": 66768.17250000012,
      "d": 182.9265000000014,
      "v": 100
    },
    {
      "midi": 45,
      "hit": false,
      "t": 66951.09899999999,
      "d": 365.8530000000028,
      "v": 100
    },
    {
      "midi": 69,
      "hit": false,
      "t": 66951.09900000012,
      "d": 365.8530000000028,
      "v": 100
    },
    {
      "midi": 47,
      "hit": false,
      "t": 67316.95199999999,
      "d": 365.8530000000028,
      "v": 100
    },
    {
      "midi": 63,
      "hit": false,
      "t": 67316.95200000012,
      "d": 365.8530000000028,
      "v": 100
    },
    {
      "midi": 71,
      "hit": false,
      "t": 67316.95200000012,
      "d": 365.8530000000028,
      "v": 100
    },
    {
      "midi": 42,
      "hit": false,
      "t": 67682.805,
      "d": 365.8530000000028,
      "v": 100
    },
    {
      "midi": 66,
      "hit": false,
      "t": 67682.80500000012,
      "d": 182.9265000000014,
      "v": 100
    },
    {
      "midi": 66,
      "hit": false,
      "t": 67865.73150000013,
      "d": 182.9265000000014,
      "v": 100
    },
    {
      "midi": 47,
      "hit": false,
      "t": 68048.658,
      "d": 365.8530000000028,
      "v": 100
    },
    {
      "midi": 62,
      "hit": false,
      "t": 68048.65800000013,
      "d": 182.9265000000014,
      "v": 100
    },
    {
      "midi": 71,
      "hit": false,
      "t": 68048.65800000013,
      "d": 182.9265000000014,
      "v": 100
    },
    {
      "midi": 62,
      "hit": false,
      "t": 68231.58450000013,
      "d": 182.9265000000014,
      "v": 100
    },
    {
      "midi": 71,
      "hit": false,
      "t": 68231.58450000013,
      "d": 182.9265000000014,
      "v": 100
    },
    {
      "midi": 42,
      "hit": false,
      "t": 68414.511,
      "d": 365.8530000000028,
      "v": 100
    },
    {
      "midi": 66,
      "hit": false,
      "t": 68414.51100000013,
      "d": 365.8530000000028,
      "v": 100
    },
    {
      "midi": 47,
      "hit": false,
      "t": 68780.364,
      "d": 365.8530000000028,
      "v": 100
    },
    {
      "midi": 62,
      "hit": false,
      "t": 68780.36400000013,
      "d": 365.8530000000028,
      "v": 100
    },
    {
      "midi": 71,
      "hit": false,
      "t": 68780.36400000013,
      "d": 365.8530000000028,
      "v": 100
    },
    {
      "midi": 42,
      "hit": false,
      "t": 69146.217,
      "d": 365.8530000000028,
      "v": 100
    },
    {
      "midi": 66,
      "hit": false,
      "t": 69146.21700000014,
      "d": 365.8530000000028,
      "v": 100
    },
    {
      "midi": 47,
      "hit": false,
      "t": 69512.07,
      "d": 365.8530000000028,
      "v": 100
    },
    {
      "midi": 62,
      "hit": false,
      "t": 69512.07000000014,
      "d": 182.9265000000014,
      "v": 100
    },
    {
      "midi": 71,
      "hit": false,
      "t": 69512.07000000014,
      "d": 182.9265000000014,
      "v": 100
    },
    {
      "midi": 62,
      "hit": false,
      "t": 69694.99650000014,
      "d": 182.9265000000014,
      "v": 100
    },
    {
      "midi": 71,
      "hit": false,
      "t": 69694.99650000014,
      "d": 182.9265000000014,
      "v": 100
    },
    {
      "midi": 42,
      "hit": false,
      "t": 69877.92300000001,
      "d": 365.8530000000028,
      "v": 100
    },
    {
      "midi": 66,
      "hit": false,
      "t": 69877.92300000014,
      "d": 365.8530000000028,
      "v": 100
    },
    {
      "midi": 50,
      "hit": false,
      "t": 70243.77600000001,
      "d": 731.7060000000056,
      "v": 100
    },
    {
      "midi": 66,
      "hit": false,
      "t": 70243.77600000014,
      "d": 365.8530000000028,
      "v": 100
    },
    {
      "midi": 69,
      "hit": false,
      "t": 70609.62900000015,
      "d": 731.7060000000056,
      "v": 100
    },
    {
      "midi": 45,
      "hit": false,
      "t": 70975.48200000002,
      "d": 731.7060000000056,
      "v": 100
    },
    {
      "midi": 66,
      "hit": false,
      "t": 71341.33500000015,
      "d": 182.9265000000014,
      "v": 100
    },
    {
      "midi": 65,
      "hit": false,
      "t": 71524.26150000015,
      "d": 182.9265000000014,
      "v": 100
    },
    {
      "midi": 50,
      "hit": false,
      "t": 71707.18800000002,
      "d": 731.7060000000056,
      "v": 100
    },
    {
      "midi": 66,
      "hit": false,
      "t": 71707.18800000015,
      "d": 365.8530000000028,
      "v": 100
    },
    {
      "midi": 62,
      "hit": false,
      "t": 72073.04100000016,
      "d": 365.8530000000028,
      "v": 100
    },
    {
      "midi": 45,
      "hit": false,
      "t": 72438.89400000003,
      "d": 731.7060000000056,
      "v": 100
    },
    {
      "midi": 66,
      "hit": false,
      "t": 72621.82050000016,
      "d": 182.9265000000014,
      "v": 100
    },
    {
      "midi": 66,
      "hit": false,
      "t": 72804.74700000016,
      "d": 182.9265000000014,
      "v": 100
    },
    {
      "midi": 65,
      "hit": false,
      "t": 72987.67350000016,
      "d": 182.9265000000014,
      "v": 100
    },
    {
      "midi": 47,
      "hit": false,
      "t": 73170.60000000003,
      "d": 731.7060000000056,
      "v": 100
    },
    {
      "midi": 66,
      "hit": false,
      "t": 73170.60000000017,
      "d": 182.9265000000014,
      "v": 100
    },
    {
      "midi": 66,
      "hit": false,
      "t": 73353.52650000017,
      "d": 365.8530000000028,
      "v": 100
    },
    {
      "midi": 65,
      "hit": false,
      "t": 73719.37950000017,
      "d": 182.9265000000014,
      "v": 100
    },
    {
      "midi": 42,
      "hit": false,
      "t": 73902.30600000004,
      "d": 731.7060000000056,
      "v": 100
    },
    {
      "midi": 66,
      "hit": false,
      "t": 73902.30600000017,
      "d": 182.9265000000014,
      "v": 100
    },
    {
      "midi": 66,
      "hit": false,
      "t": 74085.23250000017,
      "d": 365.8530000000028,
      "v": 100
    },
    {
      "midi": 65,
      "hit": false,
      "t": 74451.08550000018,
      "d": 182.9265000000014,
      "v": 100
    },
    {
      "midi": 47,
      "hit": false,
      "t": 74634.01200000005,
      "d": 731.7060000000056,
      "v": 100
    },
    {
      "midi": 66,
      "hit": false,
      "t": 74634.01200000018,
      "d": 182.9265000000014,
      "v": 100
    },
    {
      "midi": 65,
      "hit": false,
      "t": 74816.93850000018,
      "d": 182.9265000000014,
      "v": 100
    },
    {
      "midi": 66,
      "hit": false,
      "t": 74999.86500000018,
      "d": 182.9265000000014,
      "v": 100
    },
    {
      "midi": 65,
      "hit": false,
      "t": 75182.79150000018,
      "d": 182.9265000000014,
      "v": 100
    },
    {
      "midi": 42,
      "hit": false,
      "t": 75365.71800000005,
      "d": 731.7060000000056,
      "v": 100
    },
    {
      "midi": 66,
      "hit": false,
      "t": 75365.71800000018,
      "d": 182.9265000000014,
      "v": 100
    },
    {
      "midi": 65,
      "hit": false,
      "t": 75548.64450000018,
      "d": 182.9265000000014,
      "v": 100
    },
    {
      "midi": 66,
      "hit": false,
      "t": 75731.57100000019,
      "d": 182.9265000000014,
      "v": 100
    },
    {
      "midi": 65,
      "hit": false,
      "t": 75914.49750000019,
      "d": 182.9265000000014,
      "v": 100
    }
  ]
}