{
  "jsonPath": "Rock/Soft Rock/Diana Ross/forever-young.json",
  "path": "Rock\\Soft Rock\\Diana Ross\\Forever Young.mid",
  "name": "Forever Young",
  "difficulty": "Advanced",
  "bpm": 46.00020546758442,
  "notes": [
    {
      "midi": 41,
      "hit": false,
      "t": 4480.2507625,
      "d": 421.0514666666668,
      "v": 38
    },
    {
      "midi": 53,
      "hit": false,
      "t": 4736.829,
      "d": 3542.753356250001,
      "v": 100
    },
    {
      "midi": 58,
      "hit": false,
      "t": 4736.829,
      "d": 3822.357845833336,
      "v": 106
    },
    {
      "midi": 62,
      "hit": false,
      "t": 4736.829,
      "d": 3832.226239583337,
      "v": 96
    },
    {
      "midi": 53,
      "hit": false,
      "t": 8411.160939583335,
      "d": 618.4193416666694,
      "v": 46
    },
    {
      "midi": 58,
      "hit": false,
      "t": 8684.186500000003,
      "d": 615.1298770833346,
      "v": 90
    },
    {
      "midi": 62,
      "hit": false,
      "t": 8684.186500000003,
      "d": 664.4718458333355,
      "v": 92
    },
    {
      "midi": 65,
      "hit": false,
      "t": 8684.186500000003,
      "d": 4595.382022916667,
      "v": 100
    },
    {
      "midi": 53,
      "hit": false,
      "t": 9217.079762500005,
      "d": 4565.776841666666,
      "v": 36
    },
    {
      "midi": 60,
      "hit": false,
      "t": 9473.658000000005,
      "d": 4374.987895833334,
      "v": 106
    },
    {
      "midi": 57,
      "hit": false,
      "t": 9480.236929166671,
      "d": 4335.514320833334,
      "v": 100
    },
    {
      "midi": 60,
      "hit": false,
      "t": 13921.014116666673,
      "d": 246.7098437500008,
      "v": 68
    },
    {
      "midi": 53,
      "hit": false,
      "t": 13921.014116666673,
      "d": 256.5782375000017,
      "v": 28
    },
    {
      "midi": 65,
      "hit": false,
      "t": 13921.014116666673,
      "d": 279.6044895833347,
      "v": 40
    },
    {
      "midi": 65,
      "hit": false,
      "t": 14210.487000000008,
      "d": 368.4200333333338,
      "v": 88
    },
    {
      "midi": 55,
      "hit": false,
      "t": 14210.487000000008,
      "d": 697.3664916666676,
      "v": 106
    },
    {
      "midi": 58,
      "hit": false,
      "t": 14210.487000000008,
      "d": 707.2348854166685,
      "v": 106
    },
    {
      "midi": 63,
      "hit": false,
      "t": 14736.801333333342,
      "d": 220.39412708333475,
      "v": 72
    },
    {
      "midi": 55,
      "hit": false,
      "t": 14999.95850000001,
      "d": 3756.568554166666,
      "v": 60
    },
    {
      "midi": 58,
      "hit": false,
      "t": 14999.95850000001,
      "d": 3756.568554166666,
      "v": 98
    },
    {
      "midi": 63,
      "hit": false,
      "t": 14999.95850000001,
      "d": 3773.0158770833314,
      "v": 106
    },
    {
      "midi": 63,
      "hit": false,
      "t": 18930.86867708334,
      "d": 4687.487031249999,
      "v": 98
    },
    {
      "midi": 58,
      "hit": false,
      "t": 18937.447606250007,
      "d": 2878.2815104166657,
      "v": 87
    },
    {
      "midi": 60,
      "hit": false,
      "t": 18937.447606250007,
      "d": 3700.6476562499993,
      "v": 99
    },
    {
      "midi": 54,
      "hit": false,
      "t": 18937.447606250007,
      "d": 4687.487031249999,
      "v": 106
    },
    {
      "midi": 58,
      "hit": false,
      "t": 22095.333606250006,
      "d": 1529.6010312500002,
      "v": 52
    },
    {
      "midi": 60,
      "hit": false,
      "t": 22878.22617708334,
      "d": 740.1295312500006,
      "v": 47
    },
    {
      "midi": 58,
      "hit": false,
      "t": 23707.17125208334,
      "d": 3825.6473104166616,
      "v": 106
    },
    {
      "midi": 62,
      "hit": false,
      "t": 23707.17125208334,
      "d": 3842.094633333327,
      "v": 96
    },
    {
      "midi": 53,
      "hit": false,
      "t": 23717.039645833338,
      "d": 3552.6217499999984,
      "v": 100
    },
    {
      "midi": 53,
      "hit": false,
      "t": 27358.476939583335,
      "d": 618.419341666664,
      "v": 46
    },
    {
      "midi": 58,
      "hit": false,
      "t": 27631.5025,
      "d": 615.1298770833346,
      "v": 90
    },
    {
      "midi": 62,
      "hit": false,
      "t": 27631.5025,
      "d": 664.4718458333336,
      "v": 92
    },
    {
      "midi": 65,
      "hit": false,
      "t": 27631.5025,
      "d": 4595.382022916667,
      "v": 100
    },
    {
      "midi": 53,
      "hit": false,
      "t": 28164.3957625,
      "d": 4565.776841666666,
      "v": 36
    },
    {
      "midi": 60,
      "hit": false,
      "t": 28420.974,
      "d": 4374.987895833332,
      "v": 106
    },
    {
      "midi": 57,
      "hit": false,
      "t": 28427.552929166664,
      "d": 4335.514320833336,
      "v": 100
    },
    {
      "midi": 60,
      "hit": false,
      "t": 32868.330116666664,
      "d": 246.70984375000262,
      "v": 68
    },
    {
      "midi": 53,
      "hit": false,
      "t": 32868.330116666664,
      "d": 256.57823750000534,
      "v": 28
    },
    {
      "midi": 65,
      "hit": false,
      "t": 32868.330116666664,
      "d": 279.6044895833402,
      "v": 40
    },
    {
      "midi": 63,
      "hit": false,
      "t": 33157.80300000001,
      "d": 4539.461125000002,
      "v": 106
    },
    {
      "midi": 55,
      "hit": false,
      "t": 33157.80300000001,
      "d": 4588.803093750001,
      "v": 106
    },
    {
      "midi": 58,
      "hit": false,
      "t": 33157.80300000001,
      "d": 4621.697739583331,
      "v": 106
    },
    {
      "midi": 63,
      "hit": false,
      "t": 37878.184677083336,
      "d": 4292.751281249999,
      "v": 98
    },
    {
      "midi": 58,
      "hit": false,
      "t": 37884.76360625,
      "d": 4292.751281249999,
      "v": 87
    },
    {
      "midi": 54,
      "hit": false,
      "t": 37884.76360625,
      "d": 4374.987895833336,
      "v": 106
    },
    {
      "midi": 60,
      "hit": false,
      "t": 37884.76360625,
      "d": 4374.987895833336,
      "v": 99
    },
    {
      "midi": 54,
      "hit": false,
      "t": 42351.85651041667,
      "d": 236.8414499999999,
      "v": 52
    },
    {
      "midi": 60,
      "hit": false,
      "t": 42351.85651041667,
      "d": 253.28877291666868,
      "v": 84
    },
    {
      "midi": 63,
      "hit": false,
      "t": 42351.85651041667,
      "d": 253.28877291666868,
      "v": 56
    },
    {
      "midi": 53,
      "hit": false,
      "t": 42631.461,
      "d": 3542.753356250003,
      "v": 100
    },
    {
      "midi": 58,
      "hit": false,
      "t": 42631.461,
      "d": 3822.357845833336,
      "v": 106
    },
    {
      "midi": 62,
      "hit": false,
      "t": 42631.461,
      "d": 3832.2262395833386,
      "v": 96
    },
    {
      "midi": 53,
      "hit": false,
      "t": 46305.79293958334,
      "d": 618.4193416666676,
      "v": 46
    },
    {
      "midi": 58,
      "hit": false,
      "t": 46578.81850000001,
      "d": 615.1298770833382,
      "v": 90
    },
    {
      "midi": 62,
      "hit": false,
      "t": 46578.81850000001,
      "d": 664.4718458333373,
      "v": 92
    },
    {
      "midi": 65,
      "hit": false,
      "t": 46578.81850000001,
      "d": 5263.143333333333,
      "v": 100
    },
    {
      "midi": 53,
      "hit": false,
      "t": 47111.71176250001,
      "d": 4565.776841666673,
      "v": 36
    },
    {
      "midi": 60,
      "hit": false,
      "t": 47368.290000000015,
      "d": 4374.987895833328,
      "v": 106
    },
    {
      "midi": 57,
      "hit": false,
      "t": 47374.86892916668,
      "d": 4335.514320833332,
      "v": 100
    },
    {
      "midi": 65,
      "hit": false,
      "t": 52105.119000000006,
      "d": 368.4200333333356,
      "v": 88
    },
    {
      "midi": 55,
      "hit": false,
      "t": 52105.119000000006,
      "d": 697.3664916666676,
      "v": 106
    },
    {
      "midi": 58,
      "hit": false,
      "t": 52105.119000000006,
      "d": 707.2348854166703,
      "v": 106
    },
    {
      "midi": 63,
      "hit": false,
      "t": 52631.43333333334,
      "d": 220.3941270833384,
      "v": 72
    },
    {
      "midi": 55,
      "hit": false,
      "t": 52894.59050000001,
      "d": 3756.568554166668,
      "v": 60
    },
    {
      "midi": 58,
      "hit": false,
      "t": 52894.59050000001,
      "d": 3756.568554166668,
      "v": 98
    },
    {
      "midi": 63,
      "hit": false,
      "t": 52894.59050000001,
      "d": 3773.015877083337,
      "v": 106
    },
    {
      "midi": 63,
      "hit": false,
      "t": 56825.50067708335,
      "d": 2401.3091458333365,
      "v": 98
    },
    {
      "midi": 60,
      "hit": false,
      "t": 56832.079606250016,
      "d": 2368.414499999999,
      "v": 99
    },
    {
      "midi": 55,
      "hit": false,
      "t": 56832.079606250016,
      "d": 2417.7564687500053,
      "v": 106
    },
    {
      "midi": 53,
      "hit": false,
      "t": 59210.36250000002,
      "d": 697.3664916666676,
      "v": 92
    },
    {
      "midi": 57,
      "hit": false,
      "t": 59210.36250000002,
      "d": 697.3664916666676,
      "v": 88
    },
    {
      "midi": 60,
      "hit": false,
      "t": 59210.36250000002,
      "d": 756.5768541666694,
      "v": 66
    },
    {
      "midi": 62,
      "hit": false,
      "t": 59999.83400000002,
      "d": 575.6563020833346,
      "v": 60
    },
    {
      "midi": 58,
      "hit": false,
      "t": 59999.83400000002,
      "d": 723.6822083333318,
      "v": 90
    },
    {
      "midi": 53,
      "hit": false,
      "t": 59999.83400000002,
      "d": 740.1295312500006,
      "v": 36
    },
    {
      "midi": 60,
      "hit": false,
      "t": 60789.30550000002,
      "d": 723.6822083333318,
      "v": 78
    },
    {
      "midi": 53,
      "hit": false,
      "t": 60789.30550000002,
      "d": 763.1557833333354,
      "v": 84
    },
    {
      "midi": 63,
      "hit": false,
      "t": 60789.30550000002,
      "d": 763.1557833333354,
      "v": 90
    },
    {
      "midi": 61,
      "hit": false,
      "t": 61536.01396041668,
      "d": 32.89464583333756,
      "v": 42
    },
    {
      "midi": 58,
      "hit": false,
      "t": 61578.777000000024,
      "d": 2302.625208333331,
      "v": 106
    },
    {
      "midi": 53,
      "hit": false,
      "t": 61578.777000000024,
      "d": 3542.7533562499957,
      "v": 100
    },
    {
      "midi": 62,
      "hit": false,
      "t": 61578.777000000024,
      "d": 3832.2262395833313,
      "v": 96
    },
    {
      "midi": 34,
      "hit": false,
      "t": 63690.613262500025,
      "d": 246.70984374999534,
      "v": 2
    },
    {
      "midi": 65,
      "hit": false,
      "t": 63937.32310625002,
      "d": 2213.8096645833357,
      "v": 81
    },
    {
      "midi": 58,
      "hit": false,
      "t": 63937.32310625002,
      "d": 2236.8359166666705,
      "v": 70
    },
    {
      "midi": 53,
      "hit": false,
      "t": 66059.02776250002,
      "d": 4565.776841666695,
      "v": 36
    },
    {
      "midi": 65,
      "hit": false,
      "t": 66315.60600000003,
      "d": 4226.961989583346,
      "v": 82
    },
    {
      "midi": 60,
      "hit": false,
      "t": 66315.60600000003,
      "d": 4374.9878958333575,
      "v": 106
    },
    {
      "midi": 57,
      "hit": false,
      "t": 66322.1849291667,
      "d": 4335.514320833347,
      "v": 100
    },
    {
      "midi": 60,
      "hit": false,
      "t": 70772.83051041672,
      "d": 197.36787500001083,
      "v": 80
    },
    {
      "midi": 65,
      "hit": false,
      "t": 70772.83051041672,
      "d": 203.94680416668416,
      "v": 74
    },
    {
      "midi": 57,
      "hit": false,
      "t": 70779.4094395834,
      "d": 190.7889458333375,
      "v": 78
    },
    {
      "midi": 53,
      "hit": false,
      "t": 70779.4094395834,
      "d": 197.36787500001083,
      "v": 68
    },
    {
      "midi": 55,
      "hit": false,
      "t": 71052.43500000007,
      "d": 697.3664916666603,
      "v": 106
    },
    {
      "midi": 58,
      "hit": false,
      "t": 71052.43500000007,
      "d": 707.234885416663,
      "v": 106
    },
    {
      "midi": 63,
      "hit": false,
      "t": 71578.7493333334,
      "d": 220.3941270833311,
      "v": 72
    },
    {
      "midi": 55,
      "hit": false,
      "t": 71841.90650000007,
      "d": 3503.2797812500066,
      "v": 60
    },
    {
      "midi": 63,
      "hit": false,
      "t": 71841.90650000007,
      "d": 3552.6217500000057,
      "v": 106
    },
    {
      "midi": 58,
      "hit": false,
      "t": 71841.90650000007,
      "d": 3569.069072916667,
      "v": 98
    },
    {
      "midi": 63,
      "hit": false,
      "t": 75499.79111666673,
      "d": 230.26252083333384,
      "v": 52
    },
    {
      "midi": 55,
      "hit": false,
      "t": 75499.79111666673,
      "d": 256.57823749999807,
      "v": 58
    },
    {
      "midi": 58,
      "hit": false,
      "t": 75509.65951041674,
      "d": 269.7360958333302,
      "v": 60
    },
    {
      "midi": 63,
      "hit": false,
      "t": 75772.81667708339,
      "d": 2401.3091458333365,
      "v": 98
    },
    {
      "midi": 60,
      "hit": false,
      "t": 75779.39560625007,
      "d": 2368.414499999999,
      "v": 99
    },
    {
      "midi": 55,
      "hit": false,
      "t": 75779.39560625007,
      "d": 2417.756468749998,
      "v": 106
    },
    {
      "midi": 53,
      "hit": false,
      "t": 78157.67850000007,
      "d": 697.3664916666603,
      "v": 92
    },
    {
      "midi": 57,
      "hit": false,
      "t": 78157.67850000007,
      "d": 697.3664916666603,
      "v": 88
    },
    {
      "midi": 60,
      "hit": false,
      "t": 78157.67850000007,
      "d": 756.5768541666621,
      "v": 31
    },
    {
      "midi": 62,
      "hit": false,
      "t": 78947.15000000007,
      "d": 575.6563020833273,
      "v": 16
    },
    {
      "midi": 58,
      "hit": false,
      "t": 78947.15000000007,
      "d": 723.6822083333245,
      "v": 90
    },
    {
      "midi": 53,
      "hit": false,
      "t": 78947.15000000007,
      "d": 740.129531249986,
      "v": 36
    },
    {
      "midi": 60,
      "hit": false,
      "t": 79736.62150000005,
      "d": 723.6822083333391,
      "v": 78
    },
    {
      "midi": 53,
      "hit": false,
      "t": 79736.62150000005,
      "d": 763.1557833333354,
      "v": 84
    },
    {
      "midi": 63,
      "hit": false,
      "t": 79736.62150000005,
      "d": 763.1557833333354,
      "v": 90
    },
    {
      "midi": 68,
      "hit": false,
      "t": 80526.09300000005,
      "d": 4440.7771875000035,
      "v": 106
    },
    {
      "midi": 65,
      "hit": false,
      "t": 80532.67192916673,
      "d": 4434.19825833333,
      "v": 96
    },
    {
      "midi": 61,
      "hit": false,
      "t": 80532.67192916673,
      "d": 4440.7771875000035,
      "v": 84
    },
    {
      "midi": 63,
      "hit": false,
      "t": 80542.54032291673,
      "d": 4430.908793750001,
      "v": 78
    },
    {
      "midi": 63,
      "hit": false,
      "t": 84973.44911666673,
      "d": 246.70984374999534,
      "v": 66
    },
    {
      "midi": 60,
      "hit": false,
      "t": 84983.31751041673,
      "d": 246.70984374999534,
      "v": 74
    },
    {
      "midi": 56,
      "hit": false,
      "t": 84999.7648333334,
      "d": 236.84145000000717,
      "v": 44
    },
    {
      "midi": 65,
      "hit": false,
      "t": 85262.92200000006,
      "d": 4490.119156250003,
      "v": 80
    },
    {
      "midi": 58,
      "hit": false,
      "t": 85262.92200000006,
      "d": 4496.698085416676,
      "v": 84
    },
    {
      "midi": 56,
      "hit": false,
      "t": 85262.92200000006,
      "d": 4506.566479166679,
      "v": 84
    },
    {
      "midi": 61,
      "hit": false,
      "t": 85262.92200000006,
      "d": 4513.145408333352,
      "v": 84
    },
    {
      "midi": 63,
      "hit": false,
      "t": 89983.30367708342,
      "d": 4638.145062500014,
      "v": 106
    },
    {
      "midi": 58,
      "hit": false,
      "t": 89989.88260625009,
      "d": 4621.697739583338,
      "v": 72
    },
    {
      "midi": 54,
      "hit": false,
      "t": 89989.88260625009,
      "d": 4654.592385416676,
      "v": 84
    },
    {
      "midi": 68,
      "hit": false,
      "t": 90016.19832291667,
      "d": 1601.9692520833341,
      "v": 98
    },
    {
      "midi": 66,
      "hit": false,
      "t": 90789.2225,
      "d": 960.5236583333317,
      "v": 48
    },
    {
      "midi": 73,
      "hit": false,
      "t": 91601.72025208334,
      "d": 881.576508333339,
      "v": 116
    },
    {
      "midi": 68,
      "hit": false,
      "t": 92391.19175208334,
      "d": 2263.1516333333275,
      "v": 90
    },
    {
      "midi": 73,
      "hit": false,
      "t": 92572.11230416667,
      "d": 2171.0466250000027,
      "v": 4
    },
    {
      "midi": 70,
      "hit": false,
      "t": 94736.58,
      "d": 773.0241770833381,
      "v": 72
    },
    {
      "midi": 60,
      "hit": false,
      "t": 94736.5800000001,
      "d": 3953.936429166657,
      "v": 84
    },
    {
      "midi": 55,
      "hit": false,
      "t": 94736.5800000001,
      "d": 4644.723991666659,
      "v": 92
    },
    {
      "midi": 63,
      "hit": false,
      "t": 94736.5800000001,
      "d": 4671.039708333323,
      "v": 98
    },
    {
      "midi": 69,
      "hit": false,
      "t": 95526.0515,
      "d": 773.0241770833381,
      "v": 70
    },
    {
      "midi": 70,
      "hit": false,
      "t": 96315.523,
      "d": 756.5768541666621,
      "v": 84
    },
    {
      "midi": 69,
      "hit": false,
      "t": 97104.9945,
      "d": 756.5768541666621,
      "v": 68
    },
    {
      "midi": 72,
      "hit": false,
      "t": 97104.9945,
      "d": 828.945074999996,
      "v": 100
    },
    {
      "midi": 53,
      "hit": false,
      "t": 97121.44182291676,
      "d": 641.4455937499879,
      "v": 84
    },
    {
      "midi": 57,
      "hit": false,
      "t": 97137.88914583343,
      "d": 631.5771999999997,
      "v": 74
    },
    {
      "midi": 70,
      "hit": false,
      "t": 97894.466,
      "d": 789.4714999999997,
      "v": 84
    },
    {
      "midi": 74,
      "hit": false,
      "t": 97894.466,
      "d": 796.050429166673,
      "v": 100
    },
    {
      "midi": 53,
      "hit": false,
      "t": 97894.46600000009,
      "d": 740.1295312500006,
      "v": 40
    },
    {
      "midi": 58,
      "hit": false,
      "t": 97894.46600000009,
      "d": 740.1295312500006,
      "v": 106
    },
    {
      "midi": 72,
      "hit": false,
      "t": 98683.9375,
      "d": 598.6825541666767,
      "v": 66
    },
    {
      "midi": 75,
      "hit": false,
      "t": 98683.9375,
      "d": 763.15578333335,
      "v": 106
    },
    {
      "midi": 53,
      "hit": false,
      "t": 98683.93750000009,
      "d": 730.2611375000124,
      "v": 67
    },
    {
      "midi": 60,
      "hit": false,
      "t": 98690.51642916676,
      "d": 667.7613104166667,
      "v": 88
    },
    {
      "midi": 77,
      "hit": false,
      "t": 99489.85632291669,
      "d": 4759.855252083333,
      "v": 101
    },
    {
      "midi": 58,
      "hit": false,
      "t": 99496.43525208344,
      "d": 3825.6473104166653,
      "v": 106
    },
    {
      "midi": 62,
      "hit": false,
      "t": 99496.43525208344,
      "d": 3842.094633333327,
      "v": 96
    },
    {
      "midi": 53,
      "hit": false,
      "t": 99506.30364583344,
      "d": 3552.6217500000057,
      "v": 100
    },
    {
      "midi": 53,
      "hit": false,
      "t": 103147.74093958344,
      "d": 618.419341666653,
      "v": 46
    },
    {
      "midi": 58,
      "hit": false,
      "t": 103420.7665000001,
      "d": 615.1298770833237,
      "v": 90
    },
    {
      "midi": 62,
      "hit": false,
      "t": 103420.7665000001,
      "d": 664.4718458333227,
      "v": 92
    },
    {
      "midi": 65,
      "hit": false,
      "t": 103420.7665000001,
      "d": 4595.3820229166595,
      "v": 100
    },
    {
      "midi": 53,
      "hit": false,
      "t": 103953.65976250009,
      "d": 4565.776841666666,
      "v": 36
    },
    {
      "midi": 60,
      "hit": false,
      "t": 104210.23800000008,
      "d": 4374.987895833343,
      "v": 106
    },
    {
      "midi": 57,
      "hit": false,
      "t": 104216.81692916676,
      "d": 4335.514320833332,
      "v": 100
    },
    {
      "midi": 60,
      "hit": false,
      "t": 108657.59411666676,
      "d": 246.70984374999534,
      "v": 68
    },
    {
      "midi": 53,
      "hit": false,
      "t": 108657.59411666676,
      "d": 256.57823749999807,
      "v": 28
    },
    {
      "midi": 65,
      "hit": false,
      "t": 108657.59411666676,
      "d": 279.6044895833329,
      "v": 40
    },
    {
      "midi": 65,
      "hit": false,
      "t": 108947.0670000001,
      "d": 368.4200333333283,
      "v": 88
    },
    {
      "midi": 55,
      "hit": false,
      "t": 108947.0670000001,
      "d": 697.3664916666603,
      "v": 106
    },
    {
      "midi": 58,
      "hit": false,
      "t": 108947.0670000001,
      "d": 707.234885416663,
      "v": 106
    },
    {
      "midi": 63,
      "hit": false,
      "t": 109473.38133333343,
      "d": 220.3941270833311,
      "v": 72
    },
    {
      "midi": 55,
      "hit": false,
      "t": 109736.5385000001,
      "d": 3756.5685541666608,
      "v": 60
    },
    {
      "midi": 58,
      "hit": false,
      "t": 109736.5385000001,
      "d": 3756.5685541666608,
      "v": 98
    },
    {
      "midi": 63,
      "hit": false,
      "t": 109736.5385000001,
      "d": 3773.0158770833223,
      "v": 106
    },
    {
      "midi": 63,
      "hit": false,
      "t": 113667.44867708342,
      "d": 4687.487031250013,
      "v": 98
    },
    {
      "midi": 58,
      "hit": false,
      "t": 113674.02760625009,
      "d": 2878.2815104166657,
      "v": 87
    },
    {
      "midi": 60,
      "hit": false,
      "t": 113674.02760625009,
      "d": 3700.647656250003,
      "v": 99
    },
    {
      "midi": 54,
      "hit": false,
      "t": 113674.02760625009,
      "d": 4687.487031250013,
      "v": 106
    },
    {
      "midi": 58,
      "hit": false,
      "t": 116831.91360625009,
      "d": 1529.6010312500148,
      "v": 52
    },
    {
      "midi": 60,
      "hit": false,
      "t": 117614.80617708343,
      "d": 740.1295312500006,
      "v": 47
    },
    {
      "midi": 58,
      "hit": false,
      "t": 118443.75125208344,
      "d": 3825.6473104166653,
      "v": 106
    },
    {
      "midi": 62,
      "hit": false,
      "t": 118443.75125208344,
      "d": 3842.094633333327,
      "v": 96
    },
    {
      "midi": 53,
      "hit": false,
      "t": 118453.61964583345,
      "d": 3552.6217500000057,
      "v": 100
    },
    {
      "midi": 53,
      "hit": false,
      "t": 122095.05693958345,
      "d": 618.419341666653,
      "v": 46
    },
    {
      "midi": 58,
      "hit": false,
      "t": 122368.0825000001,
      "d": 615.1298770833237,
      "v": 90
    },
    {
      "midi": 62,
      "hit": false,
      "t": 122368.0825000001,
      "d": 664.4718458333227,
      "v": 92
    },
    {
      "midi": 65,
      "hit": false,
      "t": 122368.0825000001,
      "d": 4595.3820229166595,
      "v": 100
    },
    {
      "midi": 53,
      "hit": false,
      "t": 122900.9757625001,
      "d": 4565.776841666666,
      "v": 36
    },
    {
      "midi": 60,
      "hit": false,
      "t": 123157.55400000009,
      "d": 4374.987895833343,
      "v": 106
    },
    {
      "midi": 57,
      "hit": false,
      "t": 123164.13292916676,
      "d": 4335.514320833332,
      "v": 100
    },
    {
      "midi": 60,
      "hit": false,
      "t": 127604.91011666677,
      "d": 246.70984374999534,
      "v": 68
    },
    {
      "midi": 53,
      "hit": false,
      "t": 127604.91011666677,
      "d": 256.57823749999807,
      "v": 28
    },
    {
      "midi": 65,
      "hit": false,
      "t": 127604.91011666677,
      "d": 279.6044895833329,
      "v": 40
    },
    {
      "midi": 63,
      "hit": false,
      "t": 127894.3830000001,
      "d": 4539.461124999987,
      "v": 106
    },
    {
      "midi": 55,
      "hit": false,
      "t": 127894.3830000001,
      "d": 4588.803093749986,
      "v": 106
    },
    {
      "midi": 58,
      "hit": false,
      "t": 127894.3830000001,
      "d": 4621.697739583309,
      "v": 106
    },
    {
      "midi": 63,
      "hit": false,
      "t": 132614.7646770834,
      "d": 4292.751281249977,
      "v": 98
    },
    {
      "midi": 58,
      "hit": false,
      "t": 132621.34360625007,
      "d": 4292.751281249977,
      "v": 87
    },
    {
      "midi": 54,
      "hit": false,
      "t": 132621.34360625007,
      "d": 4374.987895833299,
      "v": 106
    },
    {
      "midi": 60,
      "hit": false,
      "t": 132621.34360625007,
      "d": 4374.987895833299,
      "v": 99
    },
    {
      "midi": 54,
      "hit": false,
      "t": 137088.4365104167,
      "d": 236.84145000000717,
      "v": 52
    },
    {
      "midi": 60,
      "hit": false,
      "t": 137088.4365104167,
      "d": 253.28877291668323,
      "v": 84
    },
    {
      "midi": 63,
      "hit": false,
      "t": 137088.4365104167,
      "d": 253.28877291668323,
      "v": 56
    },
    {
      "midi": 53,
      "hit": false,
      "t": 137368.04100000006,
      "d": 3799.3315937500156,
      "v": 100
    },
    {
      "midi": 58,
      "hit": false,
      "t": 137368.04100000006,
      "d": 3822.3578458333504,
      "v": 106
    },
    {
      "midi": 62,
      "hit": false,
      "t": 137368.04100000006,
      "d": 3832.2262395833386,
      "v": 96
    },
    {
      "midi": 65,
      "hit": false,
      "t": 139473.2983333334,
      "d": 1726.9689062499965,
      "v": 87
    },
    {
      "midi": 74,
      "hit": false,
      "t": 139473.2983333334,
      "d": 2391.4407520833483,
      "v": 90
    },
    {
      "midi": 70,
      "hit": false,
      "t": 139473.2983333334,
      "d": 2401.3091458333365,
      "v": 81
    },
    {
      "midi": 53,
      "hit": false,
      "t": 141315.39850000007,
      "d": 499.9986166666786,
      "v": 46
    },
    {
      "midi": 58,
      "hit": false,
      "t": 141315.39850000007,
      "d": 615.1298770833237,
      "v": 90
    },
    {
      "midi": 62,
      "hit": false,
      "t": 141315.39850000007,
      "d": 664.4718458333227,
      "v": 92
    },
    {
      "midi": 65,
      "hit": false,
      "t": 141315.39850000007,
      "d": 5154.591002083296,
      "v": 100
    },
    {
      "midi": 53,
      "hit": false,
      "t": 141848.29176250007,
      "d": 4565.776841666637,
      "v": 28
    },
    {
      "midi": 60,
      "hit": false,
      "t": 142104.87000000005,
      "d": 4374.987895833299,
      "v": 106
    },
    {
      "midi": 57,
      "hit": false,
      "t": 142111.4489291667,
      "d": 4335.5143208333175,
      "v": 100
    },
    {
      "midi": 53,
      "hit": false,
      "t": 146552.2261166667,
      "d": 246.70984374999534,
      "v": 40
    },
    {
      "midi": 57,
      "hit": false,
      "t": 146552.2261166667,
      "d": 256.5782374999835,
      "v": 50
    },
    {
      "midi": 60,
      "hit": false,
      "t": 146562.09451041667,
      "d": 246.70984374999534,
      "v": 60
    },
    {
      "midi": 65,
      "hit": false,
      "t": 146562.09451041667,
      "d": 263.1571666666714,
      "v": 46
    },
    {
      "midi": 65,
      "hit": false,
      "t": 146841.69900000002,
      "d": 368.4200333333283,
      "v": 88
    },
    {
      "midi": 55,
      "hit": false,
      "t": 146841.69900000002,
      "d": 697.3664916666748,
      "v": 106
    },
    {
      "midi": 58,
      "hit": false,
      "t": 146841.69900000002,
      "d": 707.234885416663,
      "v": 106
    },
    {
      "midi": 63,
      "hit": false,
      "t": 147368.01333333337,
      "d": 220.3941270833311,
      "v": 72
    },
    {
      "midi": 58,
      "hit": false,
      "t": 147631.17050000004,
      "d": 3569.069072916667,
      "v": 98
    },
    {
      "midi": 55,
      "hit": false,
      "t": 147631.17050000004,
      "d": 3575.648002083326,
      "v": 60
    },
    {
      "midi": 63,
      "hit": false,
      "t": 147631.17050000004,
      "d": 3592.095325000002,
      "v": 106
    },
    {
      "midi": 62,
      "hit": false,
      "t": 150795.6354291667,
      "d": 470.39343541665585,
      "v": 58
    },
    {
      "midi": 63,
      "hit": false,
      "t": 151315.37083333335,
      "d": 105.26286666665692,
      "v": 22
    },
    {
      "midi": 58,
      "hit": false,
      "t": 151315.37083333338,
      "d": 230.2625208333193,
      "v": 78
    },
    {
      "midi": 55,
      "hit": false,
      "t": 151315.37083333338,
      "d": 246.70984374999534,
      "v": 16
    },
    {
      "midi": 63,
      "hit": false,
      "t": 151315.37083333338,
      "d": 246.70984374999534,
      "v": 90
    },
    {
      "midi": 62,
      "hit": false,
      "t": 151430.50209375,
      "d": 148.0259062499972,
      "v": 44
    },
    {
      "midi": 63,
      "hit": false,
      "t": 151562.08067708337,
      "d": 2401.3091458333365,
      "v": 98
    },
    {
      "midi": 60,
      "hit": false,
      "t": 151568.65960625,
      "d": 2542.756122916646,
      "v": 74
    },
    {
      "midi": 55,
      "hit": false,
      "t": 151568.65960625003,
      "d": 2417.7564687500126,
      "v": 106
    },
    {
      "midi": 58,
      "hit": false,
      "t": 151594.9753229167,
      "d": 2368.4145000000135,
      "v": 99
    },
    {
      "midi": 53,
      "hit": false,
      "t": 153946.94250000003,
      "d": 697.3664916666748,
      "v": 92
    },
    {
      "midi": 57,
      "hit": false,
      "t": 153946.94250000003,
      "d": 697.3664916666748,
      "v": 88
    },
    {
      "midi": 60,
      "hit": false,
      "t": 153946.94250000003,
      "d": 756.5768541666621,
      "v": 66
    },
    {
      "midi": 62,
      "hit": false,
      "t": 154736.41400000002,
      "d": 575.6563020833419,
      "v": 60
    },
    {
      "midi": 58,
      "hit": false,
      "t": 154736.41400000002,
      "d": 723.6822083333391,
      "v": 90
    },
    {
      "midi": 53,
      "hit": false,
      "t": 154736.41400000002,
      "d": 740.1295312500151,
      "v": 36
    },
    {
      "midi": 60,
      "hit": false,
      "t": 155525.88550000003,
      "d": 723.6822083333391,
      "v": 78
    },
    {
      "midi": 53,
      "hit": false,
      "t": 155525.88550000003,
      "d": 763.15578333335,
      "v": 84
    },
    {
      "midi": 63,
      "hit": false,
      "t": 155525.88550000003,
      "d": 763.15578333335,
      "v": 90
    },
    {
      "midi": 61,
      "hit": false,
      "t": 156272.5939604167,
      "d": 32.894645833352115,
      "v": 42
    },
    {
      "midi": 53,
      "hit": false,
      "t": 156315.35700000005,
      "d": 1749.9951583333313,
      "v": 100
    },
    {
      "midi": 58,
      "hit": false,
      "t": 156315.35700000005,
      "d": 2302.6252083333675,
      "v": 106
    },
    {
      "midi": 62,
      "hit": false,
      "t": 156315.35700000005,
      "d": 2302.6252083333675,
      "v": 96
    },
    {
      "midi": 41,
      "hit": false,
      "t": 158108.11519791672,
      "d": 253.28877291668323,
      "v": 44
    },
    {
      "midi": 53,
      "hit": false,
      "t": 158124.5625208334,
      "d": 246.70984374999534,
      "v": 52
    },
    {
      "midi": 43,
      "hit": false,
      "t": 158371.2723645834,
      "d": 230.2625208333484,
      "v": 56
    },
    {
      "midi": 55,
      "hit": false,
      "t": 158387.71968750007,
      "d": 253.28877291668323,
      "v": 56
    },
    {
      "midi": 45,
      "hit": false,
      "t": 158525.87720000008,
      "d": 164.47322916667326,
      "v": 19
    },
    {
      "midi": 46,
      "hit": false,
      "t": 158667.3241770834,
      "d": 2194.072877083352,
      "v": 45
    },
    {
      "midi": 65,
      "hit": false,
      "t": 158673.90310625007,
      "d": 1490.1274562500184,
      "v": 81
    },
    {
      "midi": 58,
      "hit": false,
      "t": 158673.90310625007,
      "d": 1513.1537083333533,
      "v": 70
    },
    {
      "midi": 60,
      "hit": false,
      "t": 158690.35042916675,
      "d": 1480.2590625000012,
      "v": 68
    },
    {
      "midi": 53,
      "hit": false,
      "t": 160279.16182291677,
      "d": 460.5250416666677,
      "v": 80
    },
    {
      "midi": 62,
      "hit": false,
      "t": 160279.16182291677,
      "d": 763.1557833333209,
      "v": 84
    },
    {
      "midi": 58,
      "hit": false,
      "t": 160285.74075208342,
      "d": 749.9979250000033,
      "v": 90
    },
    {
      "midi": 53,
      "hit": false,
      "t": 160795.6077625001,
      "d": 4565.776841666637,
      "v": 36
    },
    {
      "midi": 65,
      "hit": false,
      "t": 161052.18600000007,
      "d": 4226.961989583331,
      "v": 82
    },
    {
      "midi": 60,
      "hit": false,
      "t": 161052.18600000007,
      "d": 4374.987895833299,
      "v": 106
    },
    {
      "midi": 57,
      "hit": false,
      "t": 161058.76492916673,
      "d": 4335.5143208333175,
      "v": 100
    },
    {
      "midi": 60,
      "hit": false,
      "t": 165509.4105104167,
      "d": 197.36787499999627,
      "v": 80
    },
    {
      "midi": 65,
      "hit": false,
      "t": 165509.4105104167,
      "d": 203.94680416665506,
      "v": 74
    },
    {
      "midi": 57,
      "hit": false,
      "t": 165515.98943958335,
      "d": 190.7889458333375,
      "v": 78
    },
    {
      "midi": 53,
      "hit": false,
      "t": 165515.98943958335,
      "d": 197.36787499999627,
      "v": 68
    },
    {
      "midi": 55,
      "hit": false,
      "t": 165789.015,
      "d": 697.3664916666748,
      "v": 106
    },
    {
      "midi": 58,
      "hit": false,
      "t": 165789.015,
      "d": 707.234885416663,
      "v": 106
    },
    {
      "midi": 63,
      "hit": false,
      "t": 166315.32933333336,
      "d": 220.3941270833311,
      "v": 72
    },
    {
      "midi": 55,
      "hit": false,
      "t": 166578.48650000003,
      "d": 3503.279781249992,
      "v": 60
    },
    {
      "midi": 63,
      "hit": false,
      "t": 166578.48650000003,
      "d": 3552.621749999991,
      "v": 106
    },
    {
      "midi": 58,
      "hit": false,
      "t": 166578.48650000003,
      "d": 3569.069072916667,
      "v": 98
    },
    {
      "midi": 62,
      "hit": false,
      "t": 169742.95142916666,
      "d": 470.39343541665585,
      "v": 58
    },
    {
      "midi": 63,
      "hit": false,
      "t": 170236.3711166667,
      "d": 230.2625208333193,
      "v": 52
    },
    {
      "midi": 55,
      "hit": false,
      "t": 170236.3711166667,
      "d": 256.5782374999835,
      "v": 58
    },
    {
      "midi": 58,
      "hit": false,
      "t": 170246.2395104167,
      "d": 269.7360958333302,
      "v": 60
    },
    {
      "midi": 63,
      "hit": false,
      "t": 170262.6868333333,
      "d": 105.26286666665692,
      "v": 22
    },
    {
      "midi": 62,
      "hit": false,
      "t": 170377.81809374996,
      "d": 148.0259062499972,
      "v": 44
    },
    {
      "midi": 63,
      "hit": false,
      "t": 170509.39667708336,
      "d": 2401.3091458333365,
      "v": 98
    },
    {
      "midi": 60,
      "hit": false,
      "t": 170515.97560624997,
      "d": 2542.756122916646,
      "v": 74
    },
    {
      "midi": 60,
      "hit": false,
      "t": 170515.97560625002,
      "d": 2368.4145000000135,
      "v": 99
    },
    {
      "midi": 55,
      "hit": false,
      "t": 170515.97560625002,
      "d": 2417.7564687500126,
      "v": 106
    },
    {
      "midi": 53,
      "hit": false,
      "t": 172894.25850000003,
      "d": 697.3664916666748,
      "v": 92
    },
    {
      "midi": 57,
      "hit": false,
      "t": 172894.25850000003,
      "d": 697.3664916666748,
      "v": 88
    },
    {
      "midi": 60,
      "hit": false,
      "t": 172894.25850000003,
      "d": 756.5768541666621,
      "v": 31
    },
    {
      "midi": 62,
      "hit": false,
      "t": 173683.73,
      "d": 575.6563020833419,
      "v": 16
    },
    {
      "midi": 58,
      "hit": false,
      "t": 173683.73,
      "d": 723.6822083333391,
      "v": 90
    },
    {
      "midi": 53,
      "hit": false,
      "t": 173683.73,
      "d": 740.1295312500151,
      "v": 36
    },
    {
      "midi": 60,
      "hit": false,
      "t": 174473.20150000002,
      "d": 723.6822083333391,
      "v": 78
    },
    {
      "midi": 53,
      "hit": false,
      "t": 174473.20150000002,
      "d": 763.15578333335,
      "v": 84
    },
    {
      "midi": 63,
      "hit": false,
      "t": 174473.20150000002,
      "d": 763.15578333335,
      "v": 90
    },
    {
      "midi": 68,
      "hit": false,
      "t": 175262.67300000004,
      "d": 4440.777187499974,
      "v": 106
    },
    {
      "midi": 65,
      "hit": false,
      "t": 175269.2519291667,
      "d": 4434.198258333316,
      "v": 96
    },
    {
      "midi": 61,
      "hit": false,
      "t": 175269.2519291667,
      "d": 4440.777187499974,
      "v": 84
    },
    {
      "midi": 63,
      "hit": false,
      "t": 175279.1203229167,
      "d": 4430.908793749986,
      "v": 78
    },
    {
      "midi": 63,
      "hit": false,
      "t": 179710.02911666667,
      "d": 246.70984374999534,
      "v": 66
    },
    {
      "midi": 60,
      "hit": false,
      "t": 179719.89751041666,
      "d": 246.70984374999534,
      "v": 74
    },
    {
      "midi": 56,
      "hit": false,
      "t": 179736.34483333334,
      "d": 236.84144999997807,
      "v": 44
    },
    {
      "midi": 65,
      "hit": false,
      "t": 179999.50199999998,
      "d": 4490.119156250003,
      "v": 80
    },
    {
      "midi": 58,
      "hit": false,
      "t": 179999.50199999998,
      "d": 4496.698085416661,
      "v": 84
    },
    {
      "midi": 56,
      "hit": false,
      "t": 179999.50199999998,
      "d": 4506.5664791666495,
      "v": 84
    },
    {
      "midi": 61,
      "hit": false,
      "t": 179999.50199999998,
      "d": 4513.145408333308,
      "v": 84
    },
    {
      "midi": 63,
      "hit": false,
      "t": 184719.8836770833,
      "d": 4638.145062499971,
      "v": 106
    },
    {
      "midi": 58,
      "hit": false,
      "t": 184726.46260624996,
      "d": 4621.697739583324,
      "v": 72
    },
    {
      "midi": 54,
      "hit": false,
      "t": 184726.46260624996,
      "d": 4654.592385416647,
      "v": 84
    },
    {
      "midi": 68,
      "hit": false,
      "t": 184752.77832291662,
      "d": 1601.9692520833341,
      "v": 98
    },
    {
      "midi": 66,
      "hit": false,
      "t": 185525.80249999996,
      "d": 960.5236583333171,
      "v": 48
    },
    {
      "midi": 73,
      "hit": false,
      "t": 186338.30025208328,
      "d": 881.5765083333245,
      "v": 116
    },
    {
      "midi": 68,
      "hit": false,
      "t": 187127.77175208327,
      "d": 2263.1516333333566,
      "v": 90
    },
    {
      "midi": 73,
      "hit": false,
      "t": 187308.69230416662,
      "d": 2171.046624999988,
      "v": 4
    },
    {
      "midi": 60,
      "hit": false,
      "t": 189473.15999999995,
      "d": 3953.9364291666425,
      "v": 84
    },
    {
      "midi": 55,
      "hit": false,
      "t": 189473.15999999995,
      "d": 4644.723991666629,
      "v": 92
    },
    {
      "midi": 63,
      "hit": false,
      "t": 189473.15999999995,
      "d": 4671.039708333294,
      "v": 98
    },
    {
      "midi": 70,
      "hit": false,
      "t": 189473.15999999995,
      "d": 773.0241770833381,
      "v": 72
    },
    {
      "midi": 69,
      "hit": false,
      "t": 190262.63149999996,
      "d": 773.0241770833381,
      "v": 70
    },
    {
      "midi": 70,
      "hit": false,
      "t": 191052.10299999997,
      "d": 756.5768541666621,
      "v": 84
    },
    {
      "midi": 69,
      "hit": false,
      "t": 191841.57449999996,
      "d": 756.5768541666621,
      "v": 68
    },
    {
      "midi": 72,
      "hit": false,
      "t": 191841.57449999996,
      "d": 828.945074999996,
      "v": 100
    },
    {
      "midi": 53,
      "hit": false,
      "t": 191858.0218229166,
      "d": 641.445593750017,
      "v": 84
    },
    {
      "midi": 57,
      "hit": false,
      "t": 191874.46914583328,
      "d": 631.5771999999997,
      "v": 74
    },
    {
      "midi": 53,
      "hit": false,
      "t": 192631.04599999994,
      "d": 740.129531249986,
      "v": 40
    },
    {
      "midi": 58,
      "hit": false,
      "t": 192631.04599999994,
      "d": 740.129531249986,
      "v": 106
    },
    {
      "midi": 70,
      "hit": false,
      "t": 192631.04599999994,
      "d": 789.4715000000142,
      "v": 84
    },
    {
      "midi": 74,
      "hit": false,
      "t": 192631.04599999994,
      "d": 796.050429166673,
      "v": 100
    },
    {
      "midi": 53,
      "hit": false,
      "t": 193420.51749999993,
      "d": 730.2611374999688,
      "v": 67
    },
    {
      "midi": 72,
      "hit": false,
      "t": 193420.51749999996,
      "d": 598.6825541666476,
      "v": 66
    },
    {
      "midi": 75,
      "hit": false,
      "t": 193420.51749999996,
      "d": 763.1557833333209,
      "v": 106
    },
    {
      "midi": 60,
      "hit": false,
      "t": 193427.0964291666,
      "d": 667.7613104166521,
      "v": 88
    },
    {
      "midi": 77,
      "hit": false,
      "t": 194226.43632291662,
      "d": 4759.855252083333,
      "v": 101
    },
    {
      "midi": 58,
      "hit": false,
      "t": 194233.01525208322,
      "d": 3825.6473104166507,
      "v": 106
    },
    {
      "midi": 62,
      "hit": false,
      "t": 194233.01525208322,
      "d": 3842.094633333327,
      "v": 96
    },
    {
      "midi": 53,
      "hit": false,
      "t": 194242.8836458332,
      "d": 3552.621749999991,
      "v": 100
    },
    {
      "midi": 53,
      "hit": false,
      "t": 197884.3209395832,
      "d": 618.419341666653,
      "v": 46
    },
    {
      "midi": 58,
      "hit": false,
      "t": 198157.34649999987,
      "d": 615.1298770833237,
      "v": 90
    },
    {
      "midi": 62,
      "hit": false,
      "t": 198157.34649999987,
      "d": 664.4718458333227,
      "v": 92
    },
    {
      "midi": 65,
      "hit": false,
      "t": 198157.34649999987,
      "d": 4595.38202291663,
      "v": 100
    },
    {
      "midi": 53,
      "hit": false,
      "t": 198690.23976249987,
      "d": 4565.776841666637,
      "v": 36
    },
    {
      "midi": 60,
      "hit": false,
      "t": 198946.81799999985,
      "d": 4374.987895833299,
      "v": 106
    },
    {
      "midi": 57,
      "hit": false,
      "t": 198953.3969291665,
      "d": 4335.5143208333175,
      "v": 100
    },
    {
      "midi": 60,
      "hit": false,
      "t": 203394.1741166665,
      "d": 246.70984374999534,
      "v": 68
    },
    {
      "midi": 53,
      "hit": false,
      "t": 203394.1741166665,
      "d": 256.5782374999835,
      "v": 28
    },
    {
      "midi": 65,
      "hit": false,
      "t": 203394.1741166665,
      "d": 279.60448958331835,
      "v": 40
    },
    {
      "midi": 65,
      "hit": false,
      "t": 203683.6469999998,
      "d": 368.4200333333283,
      "v": 88
    },
    {
      "midi": 55,
      "hit": false,
      "t": 203683.6469999998,
      "d": 697.3664916666748,
      "v": 106
    },
    {
      "midi": 58,
      "hit": false,
      "t": 203683.6469999998,
      "d": 707.234885416663,
      "v": 106
    },
    {
      "midi": 63,
      "hit": false,
      "t": 204209.96133333314,
      "d": 220.3941270833311,
      "v": 72
    },
    {
      "midi": 55,
      "hit": false,
      "t": 204473.1184999998,
      "d": 3756.5685541666753,
      "v": 60
    },
    {
      "midi": 58,
      "hit": false,
      "t": 204473.1184999998,
      "d": 3756.5685541666753,
      "v": 98
    },
    {
      "midi": 63,
      "hit": false,
      "t": 204473.1184999998,
      "d": 3773.0158770833514,
      "v": 106
    },
    {
      "midi": 63,
      "hit": false,
      "t": 208404.02867708317,
      "d": 4687.487031249999,
      "v": 98
    },
    {
      "midi": 58,
      "hit": false,
      "t": 208410.60760624983,
      "d": 2878.2815104166802,
      "v": 87
    },
    {
      "midi": 60,
      "hit": false,
      "t": 208410.60760624983,
      "d": 3700.6476562500175,
      "v": 99
    },
    {
      "midi": 54,
      "hit": false,
      "t": 208410.60760624983,
      "d": 4687.487031249999,
      "v": 106
    },
    {
      "midi": 58,
      "hit": false,
      "t": 211568.49360624986,
      "d": 1529.6010312499711,
      "v": 52
    },
    {
      "midi": 60,
      "hit": false,
      "t": 212351.3861770832,
      "d": 740.129531249986,
      "v": 47
    },
    {
      "midi": 58,
      "hit": false,
      "t": 213180.33125208315,
      "d": 1726.9689062499965,
      "v": 106
    },
    {
      "midi": 62,
      "hit": false,
      "t": 213180.33125208315,
      "d": 1726.9689062499965,
      "v": 96
    },
    {
      "midi": 53,
      "hit": false,
      "t": 213190.19964583314,
      "d": 1700.6531895833323,
      "v": 100
    },
    {
      "midi": 62,
      "hit": false,
      "t": 214999.4051666665,
      "d": 236.84145000000717,
      "v": 42
    },
    {
      "midi": 41,
      "hit": false,
      "t": 214999.4051666665,
      "d": 263.1571666666714,
      "v": 62
    },
    {
      "midi": 53,
      "hit": false,
      "t": 214999.4051666665,
      "d": 279.60448958334746,
      "v": 60
    },
    {
      "midi": 58,
      "hit": false,
      "t": 214999.4051666665,
      "d": 1996.7050020833267,
      "v": 66
    },
    {
      "midi": 43,
      "hit": false,
      "t": 215252.69393958317,
      "d": 289.4728833333065,
      "v": 58
    },
    {
      "midi": 63,
      "hit": false,
      "t": 215262.56233333316,
      "d": 263.1571666666714,
      "v": 66
    },
    {
      "midi": 55,
      "hit": false,
      "t": 215262.56233333316,
      "d": 269.7360958333302,
      "v": 50
    },
    {
      "midi": 53,
      "hit": false,
      "t": 215525.71949999983,
      "d": 1266.4438645832997,
      "v": 74
    },
    {
      "midi": 62,
      "hit": false,
      "t": 215525.71949999983,
      "d": 1578.9429999999702,
      "v": 92
    },
    {
      "midi": 46,
      "hit": false,
      "t": 215532.2984291665,
      "d": 2098.678404166625,
      "v": 42
    },
    {
      "midi": 53,
      "hit": false,
      "t": 216831.63693958314,
      "d": 618.419341666653,
      "v": 46
    },
    {
      "midi": 62,
      "hit": false,
      "t": 217104.6624999998,
      "d": 6.5789291666587815,
      "v": 92
    },
    {
      "midi": 58,
      "hit": false,
      "t": 217104.6624999998,
      "d": 615.1298770832946,
      "v": 90
    },
    {
      "midi": 65,
      "hit": false,
      "t": 217104.6624999998,
      "d": 4595.382022916601,
      "v": 100
    },
    {
      "midi": 53,
      "hit": false,
      "t": 217637.55576249977,
      "d": 4565.776841666637,
      "v": 36
    },
    {
      "midi": 60,
      "hit": false,
      "t": 217894.13399999976,
      "d": 4374.987895833299,
      "v": 106
    },
    {
      "midi": 57,
      "hit": false,
      "t": 217900.71292916642,
      "d": 4335.5143208333175,
      "v": 100
    },
    {
      "midi": 60,
      "hit": false,
      "t": 222341.4901166664,
      "d": 246.70984374999534,
      "v": 68
    },
    {
      "midi": 53,
      "hit": false,
      "t": 222341.4901166664,
      "d": 256.5782374999835,
      "v": 28
    },
    {
      "midi": 65,
      "hit": false,
      "t": 222341.4901166664,
      "d": 279.60448958331835,
      "v": 40
    },
    {
      "midi": 63,
      "hit": false,
      "t": 222630.9629999997,
      "d": 4539.461125000002,
      "v": 106
    },
    {
      "midi": 55,
      "hit": false,
      "t": 222630.9629999997,
      "d": 4588.803093750001,
      "v": 106
    },
    {
      "midi": 58,
      "hit": false,
      "t": 222630.9629999997,
      "d": 4621.697739583324,
      "v": 106
    },
    {
      "midi": 63,
      "hit": false,
      "t": 227351.34467708302,
      "d": 4292.751281249977,
      "v": 98
    },
    {
      "midi": 58,
      "hit": false,
      "t": 227357.92360624968,
      "d": 4292.751281249977,
      "v": 87
    },
    {
      "midi": 54,
      "hit": false,
      "t": 227357.92360624968,
      "d": 4374.987895833299,
      "v": 106
    },
    {
      "midi": 60,
      "hit": false,
      "t": 227357.92360624968,
      "d": 4374.987895833299,
      "v": 99
    },
    {
      "midi": 54,
      "hit": false,
      "t": 231825.01651041632,
      "d": 236.84145000000717,
      "v": 52
    },
    {
      "midi": 60,
      "hit": false,
      "t": 231825.01651041632,
      "d": 253.28877291668323,
      "v": 84
    },
    {
      "midi": 63,
      "hit": false,
      "t": 231825.01651041632,
      "d": 253.28877291668323,
      "v": 56
    },
    {
      "midi": 58,
      "hit": false,
      "t": 232127.647252083,
      "d": 3825.6473104166507,
      "v": 106
    },
    {
      "midi": 62,
      "hit": false,
      "t": 232127.647252083,
      "d": 3842.094633333327,
      "v": 96
    },
    {
      "midi": 53,
      "hit": false,
      "t": 232137.515645833,
      "d": 3552.621749999991,
      "v": 100
    },
    {
      "midi": 53,
      "hit": false,
      "t": 235778.952939583,
      "d": 618.419341666653,
      "v": 46
    },
    {
      "midi": 58,
      "hit": false,
      "t": 236051.97849999965,
      "d": 615.1298770833237,
      "v": 90
    },
    {
      "midi": 62,
      "hit": false,
      "t": 236051.97849999965,
      "d": 664.4718458333227,
      "v": 92
    },
    {
      "midi": 65,
      "hit": false,
      "t": 236051.97849999965,
      "d": 4595.38202291663,
      "v": 100
    },
    {
      "midi": 53,
      "hit": false,
      "t": 236584.87176249965,
      "d": 4565.776841666637,
      "v": 36
    },
    {
      "midi": 60,
      "hit": false,
      "t": 236841.44999999963,
      "d": 4374.987895833299,
      "v": 106
    },
    {
      "midi": 57,
      "hit": false,
      "t": 236848.0289291663,
      "d": 4335.5143208333175,
      "v": 100
    },
    {
      "midi": 60,
      "hit": false,
      "t": 241288.80611666627,
      "d": 246.70984374999534,
      "v": 68
    },
    {
      "midi": 53,
      "hit": false,
      "t": 241288.80611666627,
      "d": 256.5782374999835,
      "v": 28
    },
    {
      "midi": 65,
      "hit": false,
      "t": 241288.80611666627,
      "d": 279.60448958331835,
      "v": 40
    },
    {
      "midi": 65,
      "hit": false,
      "t": 241578.27899999957,
      "d": 368.4200333333283,
      "v": 88
    },
    {
      "midi": 55,
      "hit": false,
      "t": 241578.27899999957,
      "d": 697.3664916666748,
      "v": 106
    },
    {
      "midi": 58,
      "hit": false,
      "t": 241578.27899999957,
      "d": 707.234885416663,
      "v": 106
    },
    {
      "midi": 63,
      "hit": false,
      "t": 242104.59333333292,
      "d": 220.3941270833311,
      "v": 72
    },
    {
      "midi": 55,
      "hit": false,
      "t": 242367.7504999996,
      "d": 3756.5685541666753,
      "v": 60
    },
    {
      "midi": 58,
      "hit": false,
      "t": 242367.7504999996,
      "d": 3756.5685541666753,
      "v": 98
    },
    {
      "midi": 63,
      "hit": false,
      "t": 242367.7504999996,
      "d": 3773.0158770833514,
      "v": 106
    },
    {
      "midi": 63,
      "hit": false,
      "t": 246298.66067708295,
      "d": 4687.487031249999,
      "v": 98
    },
    {
      "midi": 58,
      "hit": false,
      "t": 246305.2396062496,
      "d": 2878.2815104166802,
      "v": 87
    },
    {
      "midi": 60,
      "hit": false,
      "t": 246305.2396062496,
      "d": 3700.6476562500175,
      "v": 99
    },
    {
      "midi": 54,
      "hit": false,
      "t": 246305.2396062496,
      "d": 4687.487031249999,
      "v": 106
    },
    {
      "midi": 58,
      "hit": false,
      "t": 249463.12560624964,
      "d": 1529.6010312499711,
      "v": 52
    },
    {
      "midi": 60,
      "hit": false,
      "t": 250246.01817708297,
      "d": 740.129531249986,
      "v": 47
    },
    {
      "midi": 58,
      "hit": false,
      "t": 251074.96325208293,
      "d": 1726.9689062499965,
      "v": 106
    },
    {
      "midi": 62,
      "hit": false,
      "t": 251074.96325208293,
      "d": 1726.9689062499965,
      "v": 96
    },
    {
      "midi": 53,
      "hit": false,
      "t": 251084.83164583292,
      "d": 1700.6531895833323,
      "v": 100
    },
    {
      "midi": 62,
      "hit": false,
      "t": 252894.03716666627,
      "d": 236.84145000000717,
      "v": 42
    },
    {
      "midi": 41,
      "hit": false,
      "t": 252894.03716666627,
      "d": 263.1571666666714,
      "v": 62
    },
    {
      "midi": 53,
      "hit": false,
      "t": 252894.03716666627,
      "d": 279.60448958334746,
      "v": 60
    },
    {
      "midi": 58,
      "hit": false,
      "t": 252894.03716666627,
      "d": 1996.7050020833267,
      "v": 66
    },
    {
      "midi": 43,
      "hit": false,
      "t": 253147.32593958295,
      "d": 289.4728833333065,
      "v": 58
    },
    {
      "midi": 63,
      "hit": false,
      "t": 253157.19433333294,
      "d": 263.1571666666714,
      "v": 66
    },
    {
      "midi": 55,
      "hit": false,
      "t": 253157.19433333294,
      "d": 269.7360958333302,
      "v": 50
    },
    {
      "midi": 53,
      "hit": false,
      "t": 253420.3514999996,
      "d": 1266.4438645832997,
      "v": 74
    },
    {
      "midi": 62,
      "hit": false,
      "t": 253420.3514999996,
      "d": 1578.9429999999702,
      "v": 92
    },
    {
      "midi": 46,
      "hit": false,
      "t": 253426.93042916627,
      "d": 2098.678404166625,
      "v": 42
    },
    {
      "midi": 53,
      "hit": false,
      "t": 254726.26893958292,
      "d": 618.419341666653,
      "v": 46
    },
    {
      "midi": 62,
      "hit": false,
      "t": 254999.29449999958,
      "d": 6.5789291666587815,
      "v": 92
    },
    {
      "midi": 58,
      "hit": false,
      "t": 254999.29449999958,
      "d": 615.1298770832946,
      "v": 90
    },
    {
      "midi": 65,
      "hit": false,
      "t": 254999.29449999958,
      "d": 4595.382022916601,
      "v": 100
    },
    {
      "midi": 53,
      "hit": false,
      "t": 255532.18776249955,
      "d": 4565.776841666637,
      "v": 36
    },
    {
      "midi": 60,
      "hit": false,
      "t": 255788.76599999954,
      "d": 4374.987895833299,
      "v": 106
    },
    {
      "midi": 57,
      "hit": false,
      "t": 255795.3449291662,
      "d": 4335.5143208333175,
      "v": 100
    },
    {
      "midi": 60,
      "hit": false,
      "t": 260236.12211666617,
      "d": 246.70984374999534,
      "v": 68
    },
    {
      "midi": 53,
      "hit": false,
      "t": 260236.12211666617,
      "d": 256.5782374999835,
      "v": 28
    },
    {
      "midi": 65,
      "hit": false,
      "t": 260236.12211666617,
      "d": 279.60448958331835,
      "v": 40
    },
    {
      "midi": 63,
      "hit": false,
      "t": 260525.59499999948,
      "d": 4539.461125000002,
      "v": 106
    },
    {
      "midi": 55,
      "hit": false,
      "t": 260525.59499999948,
      "d": 4588.803093750001,
      "v": 106
    },
    {
      "midi": 58,
      "hit": false,
      "t": 260525.59499999948,
      "d": 4621.697739583353,
      "v": 106
    },
    {
      "midi": 63,
      "hit": false,
      "t": 265245.9766770828,
      "d": 2309.204137499968,
      "v": 98
    },
    {
      "midi": 58,
      "hit": false,
      "t": 265252.5556062495,
      "d": 2302.6252083333093,
      "v": 87
    },
    {
      "midi": 54,
      "hit": false,
      "t": 265252.5556062495,
      "d": 2378.2828937500017,
      "v": 106
    },
    {
      "midi": 60,
      "hit": false,
      "t": 265252.5556062495,
      "d": 2384.8618229166605,
      "v": 99
    },
    {
      "midi": 54,
      "hit": false,
      "t": 267630.8384999995,
      "d": 6.5789291666587815,
      "v": 90
    },
    {
      "midi": 58,
      "hit": false,
      "t": 267630.8384999995,
      "d": 1529.6010312499711,
      "v": 98
    },
    {
      "midi": 62,
      "hit": false,
      "t": 267630.8384999995,
      "d": 2253.28323958331,
      "v": 84
    },
    {
      "midi": 60,
      "hit": false,
      "t": 268426.88892916613,
      "d": 1539.4694249999593,
      "v": 66
    },
    {
      "midi": 58,
      "hit": false,
      "t": 269160.43953124946,
      "d": 763.1557833332918,
      "v": 36
    },
    {
      "midi": 46,
      "hit": false,
      "t": 269907.1479916661,
      "d": 7894.714999999967,
      "v": 56
    },
    {
      "midi": 53,
      "hit": false,
      "t": 269982.80567708274,
      "d": 7763.136416666675,
      "v": 80
    },
    {
      "midi": 58,
      "hit": false,
      "t": 270032.14764583274,
      "d": 7720.373377083335,
      "v": 60
    },
    {
      "midi": 60,
      "hit": false,
      "t": 270055.17389791604,
      "d": 7723.662841666723,
      "v": 54
    },
    {
      "midi": 62,
      "hit": false,
      "t": 270088.0685437494,
      "d": 7690.768195833371,
      "v": 28
    }
  ]
}