{
  "jsonPath": "Pop/Britpop/Graham Coxon/flights-to-the-sea-lovely-rain.json",
  "path": "Pop\\Britpop\\Graham Coxon\\Flights To The Sea (Lovely Rain).mid",
  "name": "Flights To The Sea (Lovely Rain)",
  "difficulty": "Advanced",
  "bpm": 80,
  "notes": [
    {
      "midi": 55,
      "hit": false,
      "t": 6018.75,
      "d": 1118.75,
      "v": 82
    },
    {
      "midi": 59,
      "hit": false,
      "t": 6018.75,
      "d": 1118.75,
      "v": 82
    },
    {
      "midi": 62,
      "hit": false,
      "t": 6018.75,
      "d": 1118.75,
      "v": 82
    },
    {
      "midi": 43,
      "hit": false,
      "t": 7112.5,
      "d": 1825,
      "v": 63
    },
    {
      "midi": 55,
      "hit": false,
      "t": 7512.5,
      "d": 1437.5,
      "v": 66
    },
    {
      "midi": 59,
      "hit": false,
      "t": 7875,
      "d": 1050,
      "v": 68
    },
    {
      "midi": 62,
      "hit": false,
      "t": 8275,
      "d": 637.5,
      "v": 82
    },
    {
      "midi": 67,
      "hit": false,
      "t": 8612.5,
      "d": 300,
      "v": 59
    },
    {
      "midi": 55,
      "hit": false,
      "t": 9025,
      "d": 1706.25,
      "v": 74
    },
    {
      "midi": 59,
      "hit": false,
      "t": 9025,
      "d": 1706.25,
      "v": 74
    },
    {
      "midi": 62,
      "hit": false,
      "t": 9025,
      "d": 1706.25,
      "v": 74
    },
    {
      "midi": 43,
      "hit": false,
      "t": 10893.75,
      "d": 425,
      "v": 78
    },
    {
      "midi": 55,
      "hit": false,
      "t": 11262.5,
      "d": 525,
      "v": 74
    },
    {
      "midi": 59,
      "hit": false,
      "t": 11262.5,
      "d": 525,
      "v": 74
    },
    {
      "midi": 62,
      "hit": false,
      "t": 11262.5,
      "d": 525,
      "v": 74
    },
    {
      "midi": 74,
      "hit": false,
      "t": 12000,
      "d": 925,
      "v": 55
    },
    {
      "midi": 71,
      "hit": false,
      "t": 12000,
      "d": 962.5,
      "v": 58
    },
    {
      "midi": 67,
      "hit": false,
      "t": 12000,
      "d": 1006.25,
      "v": 53
    },
    {
      "midi": 43,
      "hit": false,
      "t": 12031.25,
      "d": 2600,
      "v": 33
    },
    {
      "midi": 74,
      "hit": false,
      "t": 13275,
      "d": 587.5,
      "v": 58
    },
    {
      "midi": 71,
      "hit": false,
      "t": 13312.5,
      "d": 556.25,
      "v": 61
    },
    {
      "midi": 67,
      "hit": false,
      "t": 13381.25,
      "d": 393.75,
      "v": 85
    },
    {
      "midi": 67,
      "hit": false,
      "t": 13868.75,
      "d": 387.5,
      "v": 91
    },
    {
      "midi": 71,
      "hit": false,
      "t": 14256.25,
      "d": 400,
      "v": 70
    },
    {
      "midi": 74,
      "hit": false,
      "t": 14643.75,
      "d": 162.5,
      "v": 68
    },
    {
      "midi": 55,
      "hit": false,
      "t": 15025,
      "d": 1706.25,
      "v": 74
    },
    {
      "midi": 59,
      "hit": false,
      "t": 15025,
      "d": 1706.25,
      "v": 74
    },
    {
      "midi": 62,
      "hit": false,
      "t": 15025,
      "d": 1706.25,
      "v": 74
    },
    {
      "midi": 43,
      "hit": false,
      "t": 16893.75,
      "d": 425,
      "v": 78
    },
    {
      "midi": 55,
      "hit": false,
      "t": 17262.5,
      "d": 525,
      "v": 74
    },
    {
      "midi": 59,
      "hit": false,
      "t": 17262.5,
      "d": 525,
      "v": 74
    },
    {
      "midi": 62,
      "hit": false,
      "t": 17262.5,
      "d": 525,
      "v": 74
    },
    {
      "midi": 74,
      "hit": false,
      "t": 18000,
      "d": 925,
      "v": 55
    },
    {
      "midi": 71,
      "hit": false,
      "t": 18000,
      "d": 962.5,
      "v": 58
    },
    {
      "midi": 67,
      "hit": false,
      "t": 18000,
      "d": 1006.25,
      "v": 53
    },
    {
      "midi": 43,
      "hit": false,
      "t": 18031.25,
      "d": 2600,
      "v": 33
    },
    {
      "midi": 74,
      "hit": false,
      "t": 19275,
      "d": 587.5,
      "v": 58
    },
    {
      "midi": 71,
      "hit": false,
      "t": 19312.5,
      "d": 556.25,
      "v": 61
    },
    {
      "midi": 67,
      "hit": false,
      "t": 19381.25,
      "d": 393.75,
      "v": 85
    },
    {
      "midi": 67,
      "hit": false,
      "t": 19868.75,
      "d": 387.5,
      "v": 91
    },
    {
      "midi": 71,
      "hit": false,
      "t": 20256.25,
      "d": 400,
      "v": 70
    },
    {
      "midi": 74,
      "hit": false,
      "t": 20643.75,
      "d": 162.5,
      "v": 68
    },
    {
      "midi": 55,
      "hit": false,
      "t": 21018.75,
      "d": 1118.75,
      "v": 82
    },
    {
      "midi": 59,
      "hit": false,
      "t": 21018.75,
      "d": 1118.75,
      "v": 82
    },
    {
      "midi": 62,
      "hit": false,
      "t": 21018.75,
      "d": 1118.75,
      "v": 82
    },
    {
      "midi": 43,
      "hit": false,
      "t": 22112.5,
      "d": 1825,
      "v": 63
    },
    {
      "midi": 55,
      "hit": false,
      "t": 22512.5,
      "d": 1437.5,
      "v": 66
    },
    {
      "midi": 59,
      "hit": false,
      "t": 22875,
      "d": 1050,
      "v": 68
    },
    {
      "midi": 62,
      "hit": false,
      "t": 23275,
      "d": 637.5,
      "v": 82
    },
    {
      "midi": 67,
      "hit": false,
      "t": 23612.5,
      "d": 300,
      "v": 59
    },
    {
      "midi": 69,
      "hit": false,
      "t": 24000,
      "d": 925,
      "v": 55
    },
    {
      "midi": 66,
      "hit": false,
      "t": 24000,
      "d": 962.5,
      "v": 58
    },
    {
      "midi": 62,
      "hit": false,
      "t": 24000,
      "d": 1006.25,
      "v": 53
    },
    {
      "midi": 38,
      "hit": false,
      "t": 24031.25,
      "d": 2600,
      "v": 33
    },
    {
      "midi": 69,
      "hit": false,
      "t": 25275,
      "d": 587.5,
      "v": 58
    },
    {
      "midi": 66,
      "hit": false,
      "t": 25312.5,
      "d": 556.25,
      "v": 61
    },
    {
      "midi": 62,
      "hit": false,
      "t": 25381.25,
      "d": 393.75,
      "v": 85
    },
    {
      "midi": 62,
      "hit": false,
      "t": 25868.75,
      "d": 387.5,
      "v": 91
    },
    {
      "midi": 66,
      "hit": false,
      "t": 26256.25,
      "d": 400,
      "v": 70
    },
    {
      "midi": 69,
      "hit": false,
      "t": 26643.75,
      "d": 162.5,
      "v": 68
    },
    {
      "midi": 57,
      "hit": false,
      "t": 27000,
      "d": 2462.5,
      "v": 72
    },
    {
      "midi": 66,
      "hit": false,
      "t": 27000,
      "d": 2462.5,
      "v": 72
    },
    {
      "midi": 62,
      "hit": false,
      "t": 29275,
      "d": 187.5,
      "v": 61
    },
    {
      "midi": 66,
      "hit": false,
      "t": 29468.75,
      "d": 262.5,
      "v": 74
    },
    {
      "midi": 69,
      "hit": false,
      "t": 29656.25,
      "d": 243.75,
      "v": 68
    },
    {
      "midi": 74,
      "hit": false,
      "t": 29850,
      "d": 137.5,
      "v": 68
    },
    {
      "midi": 67,
      "hit": false,
      "t": 30000,
      "d": 925,
      "v": 55
    },
    {
      "midi": 64,
      "hit": false,
      "t": 30000,
      "d": 962.5,
      "v": 58
    },
    {
      "midi": 60,
      "hit": false,
      "t": 30000,
      "d": 1006.25,
      "v": 53
    },
    {
      "midi": 36,
      "hit": false,
      "t": 30031.25,
      "d": 2600,
      "v": 33
    },
    {
      "midi": 67,
      "hit": false,
      "t": 31275,
      "d": 587.5,
      "v": 58
    },
    {
      "midi": 64,
      "hit": false,
      "t": 31312.5,
      "d": 556.25,
      "v": 61
    },
    {
      "midi": 60,
      "hit": false,
      "t": 31381.25,
      "d": 393.75,
      "v": 85
    },
    {
      "midi": 60,
      "hit": false,
      "t": 31868.75,
      "d": 387.5,
      "v": 91
    },
    {
      "midi": 64,
      "hit": false,
      "t": 32256.25,
      "d": 400,
      "v": 70
    },
    {
      "midi": 67,
      "hit": false,
      "t": 32643.75,
      "d": 162.5,
      "v": 68
    },
    {
      "midi": 48,
      "hit": false,
      "t": 33000,
      "d": 1225,
      "v": 54
    },
    {
      "midi": 64,
      "hit": false,
      "t": 33000,
      "d": 1500,
      "v": 57
    },
    {
      "midi": 67,
      "hit": false,
      "t": 33000,
      "d": 1531.25,
      "v": 56
    },
    {
      "midi": 60,
      "hit": false,
      "t": 33000,
      "d": 1556.25,
      "v": 61
    },
    {
      "midi": 36,
      "hit": false,
      "t": 34125,
      "d": 1600,
      "v": 49
    },
    {
      "midi": 48,
      "hit": false,
      "t": 34500,
      "d": 1431.25,
      "v": 52
    },
    {
      "midi": 60,
      "hit": false,
      "t": 34875,
      "d": 1018.75,
      "v": 76
    },
    {
      "midi": 64,
      "hit": false,
      "t": 35625,
      "d": 237.5,
      "v": 87
    },
    {
      "midi": 55,
      "hit": false,
      "t": 36018.75,
      "d": 1118.75,
      "v": 82
    },
    {
      "midi": 60,
      "hit": false,
      "t": 36018.75,
      "d": 1118.75,
      "v": 82
    },
    {
      "midi": 64,
      "hit": false,
      "t": 36018.75,
      "d": 1118.75,
      "v": 82
    },
    {
      "midi": 48,
      "hit": false,
      "t": 37112.5,
      "d": 1825,
      "v": 63
    },
    {
      "midi": 60,
      "hit": false,
      "t": 37512.5,
      "d": 1437.5,
      "v": 66
    },
    {
      "midi": 64,
      "hit": false,
      "t": 37875,
      "d": 1050,
      "v": 68
    },
    {
      "midi": 67,
      "hit": false,
      "t": 38275,
      "d": 637.5,
      "v": 82
    },
    {
      "midi": 72,
      "hit": false,
      "t": 38612.5,
      "d": 300,
      "v": 59
    },
    {
      "midi": 55,
      "hit": false,
      "t": 39018.75,
      "d": 2162.5,
      "v": 87
    },
    {
      "midi": 59,
      "hit": false,
      "t": 39018.75,
      "d": 2162.5,
      "v": 87
    },
    {
      "midi": 62,
      "hit": false,
      "t": 40893.75,
      "d": 287.5,
      "v": 68
    },
    {
      "midi": 59,
      "hit": false,
      "t": 41268.75,
      "d": 437.5,
      "v": 64
    },
    {
      "midi": 55,
      "hit": false,
      "t": 41656.25,
      "d": 325,
      "v": 91
    },
    {
      "midi": 55,
      "hit": false,
      "t": 42018.75,
      "d": 2162.5,
      "v": 87
    },
    {
      "midi": 59,
      "hit": false,
      "t": 42018.75,
      "d": 2162.5,
      "v": 87
    },
    {
      "midi": 62,
      "hit": false,
      "t": 43893.75,
      "d": 287.5,
      "v": 68
    },
    {
      "midi": 59,
      "hit": false,
      "t": 44268.75,
      "d": 437.5,
      "v": 64
    },
    {
      "midi": 55,
      "hit": false,
      "t": 44656.25,
      "d": 325,
      "v": 91
    },
    {
      "midi": 74,
      "hit": false,
      "t": 45000,
      "d": 925,
      "v": 55
    },
    {
      "midi": 71,
      "hit": false,
      "t": 45000,
      "d": 962.5,
      "v": 58
    },
    {
      "midi": 67,
      "hit": false,
      "t": 45000,
      "d": 1006.25,
      "v": 53
    },
    {
      "midi": 43,
      "hit": false,
      "t": 45031.25,
      "d": 2600,
      "v": 33
    },
    {
      "midi": 74,
      "hit": false,
      "t": 46275,
      "d": 587.5,
      "v": 58
    },
    {
      "midi": 71,
      "hit": false,
      "t": 46312.5,
      "d": 556.25,
      "v": 61
    },
    {
      "midi": 67,
      "hit": false,
      "t": 46381.25,
      "d": 393.75,
      "v": 85
    },
    {
      "midi": 67,
      "hit": false,
      "t": 46868.75,
      "d": 387.5,
      "v": 91
    },
    {
      "midi": 71,
      "hit": false,
      "t": 47256.25,
      "d": 400,
      "v": 70
    },
    {
      "midi": 74,
      "hit": false,
      "t": 47643.75,
      "d": 162.5,
      "v": 68
    },
    {
      "midi": 55,
      "hit": false,
      "t": 48050,
      "d": 2700,
      "v": 78
    },
    {
      "midi": 59,
      "hit": false,
      "t": 48050,
      "d": 2700,
      "v": 78
    },
    {
      "midi": 62,
      "hit": false,
      "t": 48050,
      "d": 2700,
      "v": 78
    },
    {
      "midi": 69,
      "hit": false,
      "t": 51000,
      "d": 925,
      "v": 55
    },
    {
      "midi": 66,
      "hit": false,
      "t": 51000,
      "d": 962.5,
      "v": 58
    },
    {
      "midi": 62,
      "hit": false,
      "t": 51000,
      "d": 1006.25,
      "v": 53
    },
    {
      "midi": 38,
      "hit": false,
      "t": 51031.25,
      "d": 2600,
      "v": 33
    },
    {
      "midi": 69,
      "hit": false,
      "t": 52275,
      "d": 587.5,
      "v": 58
    },
    {
      "midi": 66,
      "hit": false,
      "t": 52312.5,
      "d": 556.25,
      "v": 61
    },
    {
      "midi": 62,
      "hit": false,
      "t": 52381.25,
      "d": 393.75,
      "v": 85
    },
    {
      "midi": 62,
      "hit": false,
      "t": 52868.75,
      "d": 387.5,
      "v": 91
    },
    {
      "midi": 66,
      "hit": false,
      "t": 53256.25,
      "d": 400,
      "v": 70
    },
    {
      "midi": 69,
      "hit": false,
      "t": 53643.75,
      "d": 162.5,
      "v": 68
    },
    {
      "midi": 54,
      "hit": false,
      "t": 54025,
      "d": 1706.25,
      "v": 74
    },
    {
      "midi": 57,
      "hit": false,
      "t": 54025,
      "d": 1706.25,
      "v": 74
    },
    {
      "midi": 62,
      "hit": false,
      "t": 54025,
      "d": 1706.25,
      "v": 74
    },
    {
      "midi": 50,
      "hit": false,
      "t": 55893.75,
      "d": 425,
      "v": 78
    },
    {
      "midi": 54,
      "hit": false,
      "t": 56262.5,
      "d": 525,
      "v": 74
    },
    {
      "midi": 57,
      "hit": false,
      "t": 56262.5,
      "d": 525,
      "v": 74
    },
    {
      "midi": 62,
      "hit": false,
      "t": 56262.5,
      "d": 525,
      "v": 74
    },
    {
      "midi": 55,
      "hit": false,
      "t": 57025,
      "d": 1706.25,
      "v": 74
    },
    {
      "midi": 60,
      "hit": false,
      "t": 57025,
      "d": 1706.25,
      "v": 74
    },
    {
      "midi": 64,
      "hit": false,
      "t": 57025,
      "d": 1706.25,
      "v": 74
    },
    {
      "midi": 48,
      "hit": false,
      "t": 58893.75,
      "d": 425,
      "v": 78
    },
    {
      "midi": 55,
      "hit": false,
      "t": 59262.5,
      "d": 525,
      "v": 74
    },
    {
      "midi": 60,
      "hit": false,
      "t": 59262.5,
      "d": 525,
      "v": 74
    },
    {
      "midi": 64,
      "hit": false,
      "t": 59262.5,
      "d": 525,
      "v": 74
    },
    {
      "midi": 55,
      "hit": false,
      "t": 60018.75,
      "d": 1118.75,
      "v": 82
    },
    {
      "midi": 60,
      "hit": false,
      "t": 60018.75,
      "d": 1118.75,
      "v": 82
    },
    {
      "midi": 64,
      "hit": false,
      "t": 60018.75,
      "d": 1118.75,
      "v": 82
    },
    {
      "midi": 48,
      "hit": false,
      "t": 61112.5,
      "d": 1825,
      "v": 63
    },
    {
      "midi": 60,
      "hit": false,
      "t": 61512.5,
      "d": 1437.5,
      "v": 66
    },
    {
      "midi": 64,
      "hit": false,
      "t": 61875,
      "d": 1050,
      "v": 68
    },
    {
      "midi": 67,
      "hit": false,
      "t": 62275,
      "d": 637.5,
      "v": 82
    },
    {
      "midi": 72,
      "hit": false,
      "t": 62612.5,
      "d": 300,
      "v": 59
    },
    {
      "midi": 67,
      "hit": false,
      "t": 63000,
      "d": 925,
      "v": 55
    },
    {
      "midi": 64,
      "hit": false,
      "t": 63000,
      "d": 962.5,
      "v": 58
    },
    {
      "midi": 60,
      "hit": false,
      "t": 63000,
      "d": 1006.25,
      "v": 53
    },
    {
      "midi": 36,
      "hit": false,
      "t": 63031.25,
      "d": 2600,
      "v": 33
    },
    {
      "midi": 67,
      "hit": false,
      "t": 64275,
      "d": 587.5,
      "v": 58
    },
    {
      "midi": 64,
      "hit": false,
      "t": 64312.5,
      "d": 556.25,
      "v": 61
    },
    {
      "midi": 60,
      "hit": false,
      "t": 64381.25,
      "d": 393.75,
      "v": 85
    },
    {
      "midi": 60,
      "hit": false,
      "t": 64868.75,
      "d": 387.5,
      "v": 91
    },
    {
      "midi": 64,
      "hit": false,
      "t": 65256.25,
      "d": 400,
      "v": 70
    },
    {
      "midi": 67,
      "hit": false,
      "t": 65643.75,
      "d": 162.5,
      "v": 68
    },
    {
      "midi": 55,
      "hit": false,
      "t": 66018.75,
      "d": 1118.75,
      "v": 82
    },
    {
      "midi": 59,
      "hit": false,
      "t": 66018.75,
      "d": 1118.75,
      "v": 82
    },
    {
      "midi": 62,
      "hit": false,
      "t": 66018.75,
      "d": 1118.75,
      "v": 82
    },
    {
      "midi": 43,
      "hit": false,
      "t": 67112.5,
      "d": 1825,
      "v": 63
    },
    {
      "midi": 55,
      "hit": false,
      "t": 67512.5,
      "d": 1437.5,
      "v": 66
    },
    {
      "midi": 59,
      "hit": false,
      "t": 67875,
      "d": 1050,
      "v": 68
    },
    {
      "midi": 62,
      "hit": false,
      "t": 68275,
      "d": 637.5,
      "v": 82
    },
    {
      "midi": 67,
      "hit": false,
      "t": 68612.5,
      "d": 300,
      "v": 59
    },
    {
      "midi": 55,
      "hit": false,
      "t": 69050,
      "d": 2700,
      "v": 78
    },
    {
      "midi": 59,
      "hit": false,
      "t": 69050,
      "d": 2700,
      "v": 78
    },
    {
      "midi": 62,
      "hit": false,
      "t": 69050,
      "d": 2700,
      "v": 78
    },
    {
      "midi": 55,
      "hit": false,
      "t": 72025,
      "d": 1706.25,
      "v": 74
    },
    {
      "midi": 60,
      "hit": false,
      "t": 72025,
      "d": 1706.25,
      "v": 74
    },
    {
      "midi": 64,
      "hit": false,
      "t": 72025,
      "d": 1706.25,
      "v": 74
    },
    {
      "midi": 48,
      "hit": false,
      "t": 73893.75,
      "d": 425,
      "v": 78
    },
    {
      "midi": 55,
      "hit": false,
      "t": 74262.5,
      "d": 525,
      "v": 74
    },
    {
      "midi": 60,
      "hit": false,
      "t": 74262.5,
      "d": 525,
      "v": 74
    },
    {
      "midi": 64,
      "hit": false,
      "t": 74262.5,
      "d": 525,
      "v": 74
    },
    {
      "midi": 55,
      "hit": false,
      "t": 75000,
      "d": 2462.5,
      "v": 72
    },
    {
      "midi": 64,
      "hit": false,
      "t": 75000,
      "d": 2462.5,
      "v": 72
    },
    {
      "midi": 60,
      "hit": false,
      "t": 77275,
      "d": 187.5,
      "v": 61
    },
    {
      "midi": 64,
      "hit": false,
      "t": 77468.75,
      "d": 262.5,
      "v": 74
    },
    {
      "midi": 67,
      "hit": false,
      "t": 77656.25,
      "d": 243.75,
      "v": 68
    },
    {
      "midi": 72,
      "hit": false,
      "t": 77850,
      "d": 137.5,
      "v": 68
    },
    {
      "midi": 74,
      "hit": false,
      "t": 78000,
      "d": 925,
      "v": 55
    },
    {
      "midi": 71,
      "hit": false,
      "t": 78000,
      "d": 962.5,
      "v": 58
    },
    {
      "midi": 67,
      "hit": false,
      "t": 78000,
      "d": 1006.25,
      "v": 53
    },
    {
      "midi": 43,
      "hit": false,
      "t": 78031.25,
      "d": 2600,
      "v": 33
    },
    {
      "midi": 74,
      "hit": false,
      "t": 79275,
      "d": 587.5,
      "v": 58
    },
    {
      "midi": 71,
      "hit": false,
      "t": 79312.5,
      "d": 556.25,
      "v": 61
    },
    {
      "midi": 67,
      "hit": false,
      "t": 79381.25,
      "d": 393.75,
      "v": 85
    },
    {
      "midi": 67,
      "hit": false,
      "t": 79868.75,
      "d": 387.5,
      "v": 91
    },
    {
      "midi": 71,
      "hit": false,
      "t": 80256.25,
      "d": 400,
      "v": 70
    },
    {
      "midi": 74,
      "hit": false,
      "t": 80643.75,
      "d": 162.5,
      "v": 68
    },
    {
      "midi": 55,
      "hit": false,
      "t": 81025,
      "d": 1706.25,
      "v": 74
    },
    {
      "midi": 59,
      "hit": false,
      "t": 81025,
      "d": 1706.25,
      "v": 74
    },
    {
      "midi": 62,
      "hit": false,
      "t": 81025,
      "d": 1706.25,
      "v": 74
    },
    {
      "midi": 43,
      "hit": false,
      "t": 82893.75,
      "d": 425,
      "v": 78
    },
    {
      "midi": 55,
      "hit": false,
      "t": 83262.5,
      "d": 525,
      "v": 74
    },
    {
      "midi": 59,
      "hit": false,
      "t": 83262.5,
      "d": 525,
      "v": 74
    },
    {
      "midi": 62,
      "hit": false,
      "t": 83262.5,
      "d": 525,
      "v": 74
    },
    {
      "midi": 57,
      "hit": false,
      "t": 84025,
      "d": 1706.25,
      "v": 74
    },
    {
      "midi": 62,
      "hit": false,
      "t": 84025,
      "d": 1706.25,
      "v": 74
    },
    {
      "midi": 66,
      "hit": false,
      "t": 84025,
      "d": 1706.25,
      "v": 74
    },
    {
      "midi": 50,
      "hit": false,
      "t": 85893.75,
      "d": 425,
      "v": 78
    },
    {
      "midi": 57,
      "hit": false,
      "t": 86262.5,
      "d": 525,
      "v": 74
    },
    {
      "midi": 62,
      "hit": false,
      "t": 86262.5,
      "d": 525,
      "v": 74
    },
    {
      "midi": 66,
      "hit": false,
      "t": 86262.5,
      "d": 525,
      "v": 74
    },
    {
      "midi": 57,
      "hit": false,
      "t": 87018.75,
      "d": 2162.5,
      "v": 87
    },
    {
      "midi": 62,
      "hit": false,
      "t": 87018.75,
      "d": 2162.5,
      "v": 87
    },
    {
      "midi": 66,
      "hit": false,
      "t": 87018.75,
      "d": 2162.5,
      "v": 87
    },
    {
      "midi": 69,
      "hit": false,
      "t": 88893.75,
      "d": 450,
      "v": 68
    },
    {
      "midi": 66,
      "hit": false,
      "t": 89268.75,
      "d": 437.5,
      "v": 64
    },
    {
      "midi": 62,
      "hit": false,
      "t": 89656.25,
      "d": 325,
      "v": 91
    },
    {
      "midi": 55,
      "hit": false,
      "t": 90018.75,
      "d": 1118.75,
      "v": 82
    },
    {
      "midi": 59,
      "hit": false,
      "t": 90018.75,
      "d": 1118.75,
      "v": 82
    },
    {
      "midi": 62,
      "hit": false,
      "t": 90018.75,
      "d": 1118.75,
      "v": 82
    },
    {
      "midi": 43,
      "hit": false,
      "t": 91112.5,
      "d": 1825,
      "v": 63
    },
    {
      "midi": 55,
      "hit": false,
      "t": 91512.5,
      "d": 1437.5,
      "v": 66
    },
    {
      "midi": 59,
      "hit": false,
      "t": 91875,
      "d": 1050,
      "v": 68
    },
    {
      "midi": 62,
      "hit": false,
      "t": 92275,
      "d": 637.5,
      "v": 82
    },
    {
      "midi": 67,
      "hit": false,
      "t": 92612.5,
      "d": 300,
      "v": 59
    },
    {
      "midi": 59,
      "hit": false,
      "t": 93000,
      "d": 2462.5,
      "v": 72
    },
    {
      "midi": 62,
      "hit": false,
      "t": 93000,
      "d": 2462.5,
      "v": 72
    },
    {
      "midi": 55,
      "hit": false,
      "t": 95275,
      "d": 187.5,
      "v": 61
    },
    {
      "midi": 59,
      "hit": false,
      "t": 95468.75,
      "d": 262.5,
      "v": 74
    },
    {
      "midi": 62,
      "hit": false,
      "t": 95656.25,
      "d": 243.75,
      "v": 68
    },
    {
      "midi": 67,
      "hit": false,
      "t": 95850,
      "d": 137.5,
      "v": 68
    },
    {
      "midi": 55,
      "hit": false,
      "t": 96025,
      "d": 1706.25,
      "v": 74
    },
    {
      "midi": 60,
      "hit": false,
      "t": 96025,
      "d": 1706.25,
      "v": 74
    },
    {
      "midi": 64,
      "hit": false,
      "t": 96025,
      "d": 1706.25,
      "v": 74
    },
    {
      "midi": 48,
      "hit": false,
      "t": 97893.75,
      "d": 425,
      "v": 78
    },
    {
      "midi": 55,
      "hit": false,
      "t": 98262.5,
      "d": 525,
      "v": 74
    },
    {
      "midi": 60,
      "hit": false,
      "t": 98262.5,
      "d": 525,
      "v": 74
    },
    {
      "midi": 64,
      "hit": false,
      "t": 98262.5,
      "d": 525,
      "v": 74
    },
    {
      "midi": 55,
      "hit": false,
      "t": 99000,
      "d": 2462.5,
      "v": 72
    },
    {
      "midi": 64,
      "hit": false,
      "t": 99000,
      "d": 2462.5,
      "v": 72
    },
    {
      "midi": 60,
      "hit": false,
      "t": 101275,
      "d": 187.5,
      "v": 61
    },
    {
      "midi": 64,
      "hit": false,
      "t": 101468.75,
      "d": 262.5,
      "v": 74
    },
    {
      "midi": 67,
      "hit": false,
      "t": 101656.25,
      "d": 243.75,
      "v": 68
    },
    {
      "midi": 72,
      "hit": false,
      "t": 101850,
      "d": 137.5,
      "v": 68
    },
    {
      "midi": 55,
      "hit": false,
      "t": 102050,
      "d": 2700,
      "v": 78
    },
    {
      "midi": 59,
      "hit": false,
      "t": 102050,
      "d": 2700,
      "v": 78
    },
    {
      "midi": 62,
      "hit": false,
      "t": 102050,
      "d": 2700,
      "v": 78
    },
    {
      "midi": 55,
      "hit": false,
      "t": 105018.75,
      "d": 1118.75,
      "v": 82
    },
    {
      "midi": 59,
      "hit": false,
      "t": 105018.75,
      "d": 1118.75,
      "v": 82
    },
    {
      "midi": 62,
      "hit": false,
      "t": 105018.75,
      "d": 1118.75,
      "v": 82
    },
    {
      "midi": 43,
      "hit": false,
      "t": 106112.5,
      "d": 1825,
      "v": 63
    },
    {
      "midi": 55,
      "hit": false,
      "t": 106512.5,
      "d": 1437.5,
      "v": 66
    },
    {
      "midi": 59,
      "hit": false,
      "t": 106875,
      "d": 1050,
      "v": 68
    },
    {
      "midi": 62,
      "hit": false,
      "t": 107275,
      "d": 637.5,
      "v": 82
    },
    {
      "midi": 67,
      "hit": false,
      "t": 107612.5,
      "d": 300,
      "v": 59
    },
    {
      "midi": 50,
      "hit": false,
      "t": 108000,
      "d": 1225,
      "v": 54
    },
    {
      "midi": 66,
      "hit": false,
      "t": 108000,
      "d": 1500,
      "v": 57
    },
    {
      "midi": 69,
      "hit": false,
      "t": 108000,
      "d": 1531.25,
      "v": 56
    },
    {
      "midi": 62,
      "hit": false,
      "t": 108000,
      "d": 1556.25,
      "v": 61
    },
    {
      "midi": 38,
      "hit": false,
      "t": 109125,
      "d": 1600,
      "v": 49
    },
    {
      "midi": 50,
      "hit": false,
      "t": 109500,
      "d": 1431.25,
      "v": 52
    },
    {
      "midi": 62,
      "hit": false,
      "t": 109875,
      "d": 1018.75,
      "v": 76
    },
    {
      "midi": 66,
      "hit": false,
      "t": 110625,
      "d": 237.5,
      "v": 87
    },
    {
      "midi": 57,
      "hit": false,
      "t": 111025,
      "d": 1706.25,
      "v": 74
    },
    {
      "midi": 62,
      "hit": false,
      "t": 111025,
      "d": 1706.25,
      "v": 74
    },
    {
      "midi": 66,
      "hit": false,
      "t": 111025,
      "d": 1706.25,
      "v": 74
    },
    {
      "midi": 50,
      "hit": false,
      "t": 112893.75,
      "d": 425,
      "v": 78
    },
    {
      "midi": 57,
      "hit": false,
      "t": 113262.5,
      "d": 525,
      "v": 74
    },
    {
      "midi": 62,
      "hit": false,
      "t": 113262.5,
      "d": 525,
      "v": 74
    },
    {
      "midi": 66,
      "hit": false,
      "t": 113262.5,
      "d": 525,
      "v": 74
    },
    {
      "midi": 57,
      "hit": false,
      "t": 114018.75,
      "d": 1118.75,
      "v": 82
    },
    {
      "midi": 62,
      "hit": false,
      "t": 114018.75,
      "d": 1118.75,
      "v": 82
    },
    {
      "midi": 66,
      "hit": false,
      "t": 114018.75,
      "d": 1118.75,
      "v": 82
    },
    {
      "midi": 50,
      "hit": false,
      "t": 115112.5,
      "d": 1825,
      "v": 63
    },
    {
      "midi": 62,
      "hit": false,
      "t": 115512.5,
      "d": 1437.5,
      "v": 66
    },
    {
      "midi": 66,
      "hit": false,
      "t": 115875,
      "d": 1050,
      "v": 68
    },
    {
      "midi": 69,
      "hit": false,
      "t": 116275,
      "d": 637.5,
      "v": 82
    },
    {
      "midi": 74,
      "hit": false,
      "t": 116612.5,
      "d": 300,
      "v": 59
    },
    {
      "midi": 55,
      "hit": false,
      "t": 117018.75,
      "d": 2162.5,
      "v": 87
    },
    {
      "midi": 59,
      "hit": false,
      "t": 117018.75,
      "d": 2162.5,
      "v": 87
    },
    {
      "midi": 62,
      "hit": false,
      "t": 118893.75,
      "d": 287.5,
      "v": 68
    },
    {
      "midi": 59,
      "hit": false,
      "t": 119268.75,
      "d": 437.5,
      "v": 64
    },
    {
      "midi": 55,
      "hit": false,
      "t": 119656.25,
      "d": 325,
      "v": 91
    },
    {
      "midi": 55,
      "hit": false,
      "t": 120025,
      "d": 1706.25,
      "v": 74
    },
    {
      "midi": 59,
      "hit": false,
      "t": 120025,
      "d": 1706.25,
      "v": 74
    },
    {
      "midi": 62,
      "hit": false,
      "t": 120025,
      "d": 1706.25,
      "v": 74
    },
    {
      "midi": 43,
      "hit": false,
      "t": 121893.75,
      "d": 425,
      "v": 78
    },
    {
      "midi": 55,
      "hit": false,
      "t": 122262.5,
      "d": 525,
      "v": 74
    },
    {
      "midi": 59,
      "hit": false,
      "t": 122262.5,
      "d": 525,
      "v": 74
    },
    {
      "midi": 62,
      "hit": false,
      "t": 122262.5,
      "d": 525,
      "v": 74
    },
    {
      "midi": 55,
      "hit": false,
      "t": 123018.75,
      "d": 1118.75,
      "v": 82
    },
    {
      "midi": 59,
      "hit": false,
      "t": 123018.75,
      "d": 1118.75,
      "v": 82
    },
    {
      "midi": 62,
      "hit": false,
      "t": 123018.75,
      "d": 1118.75,
      "v": 82
    },
    {
      "midi": 43,
      "hit": false,
      "t": 124112.5,
      "d": 1825,
      "v": 63
    },
    {
      "midi": 55,
      "hit": false,
      "t": 124512.5,
      "d": 1437.5,
      "v": 66
    },
    {
      "midi": 59,
      "hit": false,
      "t": 124875,
      "d": 1050,
      "v": 68
    },
    {
      "midi": 62,
      "hit": false,
      "t": 125275,
      "d": 637.5,
      "v": 82
    },
    {
      "midi": 67,
      "hit": false,
      "t": 125612.5,
      "d": 300,
      "v": 59
    },
    {
      "midi": 59,
      "hit": false,
      "t": 126000,
      "d": 2462.5,
      "v": 72
    },
    {
      "midi": 62,
      "hit": false,
      "t": 126000,
      "d": 2462.5,
      "v": 72
    },
    {
      "midi": 55,
      "hit": false,
      "t": 128275,
      "d": 187.5,
      "v": 61
    },
    {
      "midi": 59,
      "hit": false,
      "t": 128468.75,
      "d": 262.5,
      "v": 74
    },
    {
      "midi": 62,
      "hit": false,
      "t": 128656.25,
      "d": 243.75,
      "v": 68
    },
    {
      "midi": 67,
      "hit": false,
      "t": 128850,
      "d": 137.5,
      "v": 68
    },
    {
      "midi": 74,
      "hit": false,
      "t": 129000,
      "d": 925,
      "v": 55
    },
    {
      "midi": 71,
      "hit": false,
      "t": 129000,
      "d": 962.5,
      "v": 58
    },
    {
      "midi": 67,
      "hit": false,
      "t": 129000,
      "d": 1006.25,
      "v": 53
    },
    {
      "midi": 43,
      "hit": false,
      "t": 129031.25,
      "d": 2600,
      "v": 33
    },
    {
      "midi": 74,
      "hit": false,
      "t": 130275,
      "d": 587.5,
      "v": 58
    },
    {
      "midi": 71,
      "hit": false,
      "t": 130312.5,
      "d": 556.25,
      "v": 61
    },
    {
      "midi": 67,
      "hit": false,
      "t": 130381.25,
      "d": 393.75,
      "v": 85
    },
    {
      "midi": 67,
      "hit": false,
      "t": 130868.75,
      "d": 387.5,
      "v": 91
    },
    {
      "midi": 71,
      "hit": false,
      "t": 131256.25,
      "d": 400,
      "v": 70
    },
    {
      "midi": 74,
      "hit": false,
      "t": 131643.75,
      "d": 162.5,
      "v": 68
    },
    {
      "midi": 74,
      "hit": false,
      "t": 132000,
      "d": 925,
      "v": 55
    },
    {
      "midi": 71,
      "hit": false,
      "t": 132000,
      "d": 962.5,
      "v": 58
    },
    {
      "midi": 67,
      "hit": false,
      "t": 132000,
      "d": 1006.25,
      "v": 53
    },
    {
      "midi": 43,
      "hit": false,
      "t": 132031.25,
      "d": 2600,
      "v": 33
    },
    {
      "midi": 74,
      "hit": false,
      "t": 133275,
      "d": 587.5,
      "v": 58
    },
    {
      "midi": 71,
      "hit": false,
      "t": 133312.5,
      "d": 556.25,
      "v": 61
    },
    {
      "midi": 67,
      "hit": false,
      "t": 133381.25,
      "d": 393.75,
      "v": 85
    },
    {
      "midi": 67,
      "hit": false,
      "t": 133868.75,
      "d": 387.5,
      "v": 91
    },
    {
      "midi": 71,
      "hit": false,
      "t": 134256.25,
      "d": 400,
      "v": 70
    },
    {
      "midi": 74,
      "hit": false,
      "t": 134643.75,
      "d": 162.5,
      "v": 68
    },
    {
      "midi": 50,
      "hit": false,
      "t": 135000,
      "d": 1225,
      "v": 54
    },
    {
      "midi": 66,
      "hit": false,
      "t": 135000,
      "d": 1500,
      "v": 57
    },
    {
      "midi": 69,
      "hit": false,
      "t": 135000,
      "d": 1531.25,
      "v": 56
    },
    {
      "midi": 62,
      "hit": false,
      "t": 135000,
      "d": 1556.25,
      "v": 61
    },
    {
      "midi": 38,
      "hit": false,
      "t": 136125,
      "d": 1600,
      "v": 49
    },
    {
      "midi": 50,
      "hit": false,
      "t": 136500,
      "d": 1431.25,
      "v": 52
    },
    {
      "midi": 62,
      "hit": false,
      "t": 136875,
      "d": 1018.75,
      "v": 76
    },
    {
      "midi": 66,
      "hit": false,
      "t": 137625,
      "d": 237.5,
      "v": 87
    },
    {
      "midi": 57,
      "hit": false,
      "t": 138018.75,
      "d": 2162.5,
      "v": 87
    },
    {
      "midi": 62,
      "hit": false,
      "t": 138018.75,
      "d": 2162.5,
      "v": 87
    },
    {
      "midi": 66,
      "hit": false,
      "t": 138018.75,
      "d": 2162.5,
      "v": 87
    },
    {
      "midi": 69,
      "hit": false,
      "t": 139893.75,
      "d": 450,
      "v": 68
    },
    {
      "midi": 66,
      "hit": false,
      "t": 140268.75,
      "d": 437.5,
      "v": 64
    },
    {
      "midi": 62,
      "hit": false,
      "t": 140656.25,
      "d": 325,
      "v": 91
    },
    {
      "midi": 55,
      "hit": false,
      "t": 141018.75,
      "d": 1118.75,
      "v": 82
    },
    {
      "midi": 60,
      "hit": false,
      "t": 141018.75,
      "d": 1118.75,
      "v": 82
    },
    {
      "midi": 64,
      "hit": false,
      "t": 141018.75,
      "d": 1118.75,
      "v": 82
    },
    {
      "midi": 48,
      "hit": false,
      "t": 142112.5,
      "d": 1825,
      "v": 63
    },
    {
      "midi": 60,
      "hit": false,
      "t": 142512.5,
      "d": 1437.5,
      "v": 66
    },
    {
      "midi": 64,
      "hit": false,
      "t": 142875,
      "d": 1050,
      "v": 68
    },
    {
      "midi": 67,
      "hit": false,
      "t": 143275,
      "d": 637.5,
      "v": 82
    },
    {
      "midi": 72,
      "hit": false,
      "t": 143612.5,
      "d": 300,
      "v": 59
    },
    {
      "midi": 48,
      "hit": false,
      "t": 144000,
      "d": 1225,
      "v": 54
    },
    {
      "midi": 64,
      "hit": false,
      "t": 144000,
      "d": 1500,
      "v": 57
    },
    {
      "midi": 67,
      "hit": false,
      "t": 144000,
      "d": 1531.25,
      "v": 56
    },
    {
      "midi": 60,
      "hit": false,
      "t": 144000,
      "d": 1556.25,
      "v": 61
    },
    {
      "midi": 36,
      "hit": false,
      "t": 145125,
      "d": 1600,
      "v": 49
    },
    {
      "midi": 48,
      "hit": false,
      "t": 145500,
      "d": 1431.25,
      "v": 52
    },
    {
      "midi": 60,
      "hit": false,
      "t": 145875,
      "d": 1018.75,
      "v": 76
    },
    {
      "midi": 64,
      "hit": false,
      "t": 146625,
      "d": 237.5,
      "v": 87
    },
    {
      "midi": 67,
      "hit": false,
      "t": 147000,
      "d": 925,
      "v": 55
    },
    {
      "midi": 64,
      "hit": false,
      "t": 147000,
      "d": 962.5,
      "v": 58
    },
    {
      "midi": 60,
      "hit": false,
      "t": 147000,
      "d": 1006.25,
      "v": 53
    },
    {
      "midi": 36,
      "hit": false,
      "t": 147031.25,
      "d": 2600,
      "v": 33
    },
    {
      "midi": 67,
      "hit": false,
      "t": 148275,
      "d": 587.5,
      "v": 58
    },
    {
      "midi": 64,
      "hit": false,
      "t": 148312.5,
      "d": 556.25,
      "v": 61
    },
    {
      "midi": 60,
      "hit": false,
      "t": 148381.25,
      "d": 393.75,
      "v": 85
    },
    {
      "midi": 60,
      "hit": false,
      "t": 148868.75,
      "d": 387.5,
      "v": 91
    },
    {
      "midi": 64,
      "hit": false,
      "t": 149256.25,
      "d": 400,
      "v": 70
    },
    {
      "midi": 67,
      "hit": false,
      "t": 149643.75,
      "d": 162.5,
      "v": 68
    },
    {
      "midi": 74,
      "hit": false,
      "t": 150000,
      "d": 925,
      "v": 55
    },
    {
      "midi": 71,
      "hit": false,
      "t": 150000,
      "d": 962.5,
      "v": 58
    },
    {
      "midi": 67,
      "hit": false,
      "t": 150000,
      "d": 1006.25,
      "v": 53
    },
    {
      "midi": 43,
      "hit": false,
      "t": 150031.25,
      "d": 2600,
      "v": 33
    },
    {
      "midi": 74,
      "hit": false,
      "t": 151275,
      "d": 587.5,
      "v": 58
    },
    {
      "midi": 71,
      "hit": false,
      "t": 151312.5,
      "d": 556.25,
      "v": 61
    },
    {
      "midi": 67,
      "hit": false,
      "t": 151381.25,
      "d": 393.75,
      "v": 85
    },
    {
      "midi": 67,
      "hit": false,
      "t": 151868.75,
      "d": 387.5,
      "v": 91
    },
    {
      "midi": 71,
      "hit": false,
      "t": 152256.25,
      "d": 400,
      "v": 70
    },
    {
      "midi": 74,
      "hit": false,
      "t": 152643.75,
      "d": 162.5,
      "v": 68
    },
    {
      "midi": 43,
      "hit": false,
      "t": 153000,
      "d": 1225,
      "v": 54
    },
    {
      "midi": 59,
      "hit": false,
      "t": 153000,
      "d": 1500,
      "v": 57
    },
    {
      "midi": 62,
      "hit": false,
      "t": 153000,
      "d": 1531.25,
      "v": 56
    },
    {
      "midi": 55,
      "hit": false,
      "t": 153000,
      "d": 1556.25,
      "v": 61
    },
    {
      "midi": 43,
      "hit": false,
      "t": 154500,
      "d": 1225,
      "v": 52
    },
    {
      "midi": 55,
      "hit": false,
      "t": 154875,
      "d": 1018.75,
      "v": 76
    },
    {
      "midi": 59,
      "hit": false,
      "t": 155625,
      "d": 237.5,
      "v": 87
    },
    {
      "midi": 55,
      "hit": false,
      "t": 156018.75,
      "d": 1118.75,
      "v": 82
    },
    {
      "midi": 59,
      "hit": false,
      "t": 156018.75,
      "d": 1118.75,
      "v": 82
    },
    {
      "midi": 62,
      "hit": false,
      "t": 156018.75,
      "d": 1118.75,
      "v": 82
    },
    {
      "midi": 43,
      "hit": false,
      "t": 157112.5,
      "d": 1825,
      "v": 63
    },
    {
      "midi": 55,
      "hit": false,
      "t": 157512.5,
      "d": 1437.5,
      "v": 66
    },
    {
      "midi": 59,
      "hit": false,
      "t": 157875,
      "d": 1050,
      "v": 68
    },
    {
      "midi": 62,
      "hit": false,
      "t": 158275,
      "d": 637.5,
      "v": 82
    },
    {
      "midi": 67,
      "hit": false,
      "t": 158612.5,
      "d": 300,
      "v": 59
    },
    {
      "midi": 55,
      "hit": false,
      "t": 159050,
      "d": 2700,
      "v": 78
    },
    {
      "midi": 59,
      "hit": false,
      "t": 159050,
      "d": 2700,
      "v": 78
    },
    {
      "midi": 62,
      "hit": false,
      "t": 159050,
      "d": 2700,
      "v": 78
    },
    {
      "midi": 69,
      "hit": false,
      "t": 162000,
      "d": 925,
      "v": 55
    },
    {
      "midi": 66,
      "hit": false,
      "t": 162000,
      "d": 962.5,
      "v": 58
    },
    {
      "midi": 62,
      "hit": false,
      "t": 162000,
      "d": 1006.25,
      "v": 53
    },
    {
      "midi": 38,
      "hit": false,
      "t": 162031.25,
      "d": 2600,
      "v": 33
    },
    {
      "midi": 69,
      "hit": false,
      "t": 163275,
      "d": 587.5,
      "v": 58
    },
    {
      "midi": 66,
      "hit": false,
      "t": 163312.5,
      "d": 556.25,
      "v": 61
    },
    {
      "midi": 62,
      "hit": false,
      "t": 163381.25,
      "d": 393.75,
      "v": 85
    },
    {
      "midi": 62,
      "hit": false,
      "t": 163868.75,
      "d": 387.5,
      "v": 91
    },
    {
      "midi": 66,
      "hit": false,
      "t": 164256.25,
      "d": 400,
      "v": 70
    },
    {
      "midi": 69,
      "hit": false,
      "t": 164643.75,
      "d": 162.5,
      "v": 68
    },
    {
      "midi": 57,
      "hit": false,
      "t": 165018.75,
      "d": 2162.5,
      "v": 87
    },
    {
      "midi": 62,
      "hit": false,
      "t": 165018.75,
      "d": 2162.5,
      "v": 87
    },
    {
      "midi": 66,
      "hit": false,
      "t": 165018.75,
      "d": 2162.5,
      "v": 87
    },
    {
      "midi": 69,
      "hit": false,
      "t": 166893.75,
      "d": 450,
      "v": 68
    },
    {
      "midi": 66,
      "hit": false,
      "t": 167268.75,
      "d": 437.5,
      "v": 64
    },
    {
      "midi": 62,
      "hit": false,
      "t": 167656.25,
      "d": 325,
      "v": 91
    },
    {
      "midi": 67,
      "hit": false,
      "t": 168000,
      "d": 925,
      "v": 55
    },
    {
      "midi": 64,
      "hit": false,
      "t": 168000,
      "d": 962.5,
      "v": 58
    },
    {
      "midi": 60,
      "hit": false,
      "t": 168000,
      "d": 1006.25,
      "v": 53
    },
    {
      "midi": 36,
      "hit": false,
      "t": 168031.25,
      "d": 2600,
      "v": 33
    },
    {
      "midi": 67,
      "hit": false,
      "t": 169275,
      "d": 587.5,
      "v": 58
    },
    {
      "midi": 64,
      "hit": false,
      "t": 169312.5,
      "d": 556.25,
      "v": 61
    },
    {
      "midi": 60,
      "hit": false,
      "t": 169381.25,
      "d": 393.75,
      "v": 85
    },
    {
      "midi": 60,
      "hit": false,
      "t": 169868.75,
      "d": 387.5,
      "v": 91
    },
    {
      "midi": 64,
      "hit": false,
      "t": 170256.25,
      "d": 400,
      "v": 70
    },
    {
      "midi": 67,
      "hit": false,
      "t": 170643.75,
      "d": 162.5,
      "v": 68
    },
    {
      "midi": 55,
      "hit": false,
      "t": 171018.75,
      "d": 1118.75,
      "v": 82
    },
    {
      "midi": 60,
      "hit": false,
      "t": 171018.75,
      "d": 1118.75,
      "v": 82
    },
    {
      "midi": 64,
      "hit": false,
      "t": 171018.75,
      "d": 1118.75,
      "v": 82
    },
    {
      "midi": 48,
      "hit": false,
      "t": 172112.5,
      "d": 1825,
      "v": 63
    },
    {
      "midi": 60,
      "hit": false,
      "t": 172512.5,
      "d": 1437.5,
      "v": 66
    },
    {
      "midi": 64,
      "hit": false,
      "t": 172875,
      "d": 1050,
      "v": 68
    },
    {
      "midi": 67,
      "hit": false,
      "t": 173275,
      "d": 637.5,
      "v": 82
    },
    {
      "midi": 72,
      "hit": false,
      "t": 173612.5,
      "d": 300,
      "v": 59
    },
    {
      "midi": 55,
      "hit": false,
      "t": 174025,
      "d": 1706.25,
      "v": 74
    },
    {
      "midi": 60,
      "hit": false,
      "t": 174025,
      "d": 1706.25,
      "v": 74
    },
    {
      "midi": 64,
      "hit": false,
      "t": 174025,
      "d": 1706.25,
      "v": 74
    },
    {
      "midi": 48,
      "hit": false,
      "t": 175893.75,
      "d": 425,
      "v": 78
    },
    {
      "midi": 55,
      "hit": false,
      "t": 176262.5,
      "d": 525,
      "v": 74
    },
    {
      "midi": 60,
      "hit": false,
      "t": 176262.5,
      "d": 525,
      "v": 74
    },
    {
      "midi": 64,
      "hit": false,
      "t": 176262.5,
      "d": 525,
      "v": 74
    },
    {
      "midi": 55,
      "hit": false,
      "t": 177025,
      "d": 1706.25,
      "v": 74
    },
    {
      "midi": 59,
      "hit": false,
      "t": 177025,
      "d": 1706.25,
      "v": 74
    },
    {
      "midi": 62,
      "hit": false,
      "t": 177025,
      "d": 1706.25,
      "v": 74
    },
    {
      "midi": 43,
      "hit": false,
      "t": 178893.75,
      "d": 425,
      "v": 78
    },
    {
      "midi": 55,
      "hit": false,
      "t": 179262.5,
      "d": 525,
      "v": 74
    },
    {
      "midi": 59,
      "hit": false,
      "t": 179262.5,
      "d": 525,
      "v": 74
    },
    {
      "midi": 62,
      "hit": false,
      "t": 179262.5,
      "d": 525,
      "v": 74
    },
    {
      "midi": 43,
      "hit": false,
      "t": 180000,
      "d": 1225,
      "v": 54
    },
    {
      "midi": 59,
      "hit": false,
      "t": 180000,
      "d": 1500,
      "v": 57
    },
    {
      "midi": 62,
      "hit": false,
      "t": 180000,
      "d": 1531.25,
      "v": 56
    },
    {
      "midi": 55,
      "hit": false,
      "t": 180000,
      "d": 1556.25,
      "v": 61
    },
    {
      "midi": 43,
      "hit": false,
      "t": 181500,
      "d": 1225,
      "v": 52
    },
    {
      "midi": 55,
      "hit": false,
      "t": 181875,
      "d": 1018.75,
      "v": 76
    },
    {
      "midi": 59,
      "hit": false,
      "t": 182625,
      "d": 237.5,
      "v": 87
    },
    {
      "midi": 55,
      "hit": false,
      "t": 183025,
      "d": 1706.25,
      "v": 74
    },
    {
      "midi": 60,
      "hit": false,
      "t": 183025,
      "d": 1706.25,
      "v": 74
    },
    {
      "midi": 64,
      "hit": false,
      "t": 183025,
      "d": 1706.25,
      "v": 74
    },
    {
      "midi": 48,
      "hit": false,
      "t": 184893.75,
      "d": 425,
      "v": 78
    },
    {
      "midi": 55,
      "hit": false,
      "t": 185262.5,
      "d": 525,
      "v": 74
    },
    {
      "midi": 60,
      "hit": false,
      "t": 185262.5,
      "d": 525,
      "v": 74
    },
    {
      "midi": 64,
      "hit": false,
      "t": 185262.5,
      "d": 525,
      "v": 74
    },
    {
      "midi": 67,
      "hit": false,
      "t": 186000,
      "d": 925,
      "v": 55
    },
    {
      "midi": 64,
      "hit": false,
      "t": 186000,
      "d": 962.5,
      "v": 58
    },
    {
      "midi": 60,
      "hit": false,
      "t": 186000,
      "d": 1006.25,
      "v": 53
    },
    {
      "midi": 36,
      "hit": false,
      "t": 186031.25,
      "d": 2600,
      "v": 33
    },
    {
      "midi": 67,
      "hit": false,
      "t": 187275,
      "d": 587.5,
      "v": 58
    },
    {
      "midi": 64,
      "hit": false,
      "t": 187312.5,
      "d": 556.25,
      "v": 61
    },
    {
      "midi": 60,
      "hit": false,
      "t": 187381.25,
      "d": 393.75,
      "v": 85
    },
    {
      "midi": 60,
      "hit": false,
      "t": 187868.75,
      "d": 387.5,
      "v": 91
    },
    {
      "midi": 64,
      "hit": false,
      "t": 188256.25,
      "d": 400,
      "v": 70
    },
    {
      "midi": 67,
      "hit": false,
      "t": 188643.75,
      "d": 162.5,
      "v": 68
    },
    {
      "midi": 55,
      "hit": false,
      "t": 189050,
      "d": 2700,
      "v": 78
    },
    {
      "midi": 59,
      "hit": false,
      "t": 189050,
      "d": 2700,
      "v": 78
    },
    {
      "midi": 62,
      "hit": false,
      "t": 189050,
      "d": 2700,
      "v": 78
    },
    {
      "midi": 55,
      "hit": false,
      "t": 192018.75,
      "d": 2162.5,
      "v": 87
    },
    {
      "midi": 59,
      "hit": false,
      "t": 192018.75,
      "d": 2162.5,
      "v": 87
    },
    {
      "midi": 62,
      "hit": false,
      "t": 193893.75,
      "d": 287.5,
      "v": 68
    },
    {
      "midi": 59,
      "hit": false,
      "t": 194268.75,
      "d": 437.5,
      "v": 64
    },
    {
      "midi": 55,
      "hit": false,
      "t": 194656.25,
      "d": 325,
      "v": 91
    },
    {
      "midi": 69,
      "hit": false,
      "t": 195000,
      "d": 925,
      "v": 55
    },
    {
      "midi": 66,
      "hit": false,
      "t": 195000,
      "d": 962.5,
      "v": 58
    },
    {
      "midi": 62,
      "hit": false,
      "t": 195000,
      "d": 1006.25,
      "v": 53
    },
    {
      "midi": 38,
      "hit": false,
      "t": 195031.25,
      "d": 2600,
      "v": 33
    },
    {
      "midi": 69,
      "hit": false,
      "t": 196275,
      "d": 587.5,
      "v": 58
    },
    {
      "midi": 66,
      "hit": false,
      "t": 196312.5,
      "d": 556.25,
      "v": 61
    },
    {
      "midi": 62,
      "hit": false,
      "t": 196381.25,
      "d": 393.75,
      "v": 85
    },
    {
      "midi": 62,
      "hit": false,
      "t": 196868.75,
      "d": 387.5,
      "v": 91
    },
    {
      "midi": 66,
      "hit": false,
      "t": 197256.25,
      "d": 400,
      "v": 70
    },
    {
      "midi": 69,
      "hit": false,
      "t": 197643.75,
      "d": 162.5,
      "v": 68
    },
    {
      "midi": 54,
      "hit": false,
      "t": 198018.75,
      "d": 2162.5,
      "v": 87
    },
    {
      "midi": 57,
      "hit": false,
      "t": 198018.75,
      "d": 2162.5,
      "v": 87
    },
    {
      "midi": 62,
      "hit": false,
      "t": 198018.75,
      "d": 2162.5,
      "v": 87
    },
    {
      "midi": 69,
      "hit": false,
      "t": 199893.75,
      "d": 450,
      "v": 68
    },
    {
      "midi": 66,
      "hit": false,
      "t": 200268.75,
      "d": 437.5,
      "v": 64
    },
    {
      "midi": 62,
      "hit": false,
      "t": 200656.25,
      "d": 325,
      "v": 91
    },
    {
      "midi": 59,
      "hit": false,
      "t": 201000,
      "d": 2462.5,
      "v": 72
    },
    {
      "midi": 62,
      "hit": false,
      "t": 201000,
      "d": 2462.5,
      "v": 72
    },
    {
      "midi": 55,
      "hit": false,
      "t": 203275,
      "d": 187.5,
      "v": 61
    },
    {
      "midi": 59,
      "hit": false,
      "t": 203468.75,
      "d": 262.5,
      "v": 74
    },
    {
      "midi": 62,
      "hit": false,
      "t": 203656.25,
      "d": 243.75,
      "v": 68
    },
    {
      "midi": 67,
      "hit": false,
      "t": 203850,
      "d": 137.5,
      "v": 68
    },
    {
      "midi": 74,
      "hit": false,
      "t": 204000,
      "d": 925,
      "v": 55
    },
    {
      "midi": 71,
      "hit": false,
      "t": 204000,
      "d": 962.5,
      "v": 58
    },
    {
      "midi": 67,
      "hit": false,
      "t": 204000,
      "d": 1006.25,
      "v": 53
    },
    {
      "midi": 43,
      "hit": false,
      "t": 204031.25,
      "d": 2600,
      "v": 33
    },
    {
      "midi": 74,
      "hit": false,
      "t": 205275,
      "d": 587.5,
      "v": 58
    },
    {
      "midi": 71,
      "hit": false,
      "t": 205312.5,
      "d": 556.25,
      "v": 61
    },
    {
      "midi": 67,
      "hit": false,
      "t": 205381.25,
      "d": 393.75,
      "v": 85
    },
    {
      "midi": 67,
      "hit": false,
      "t": 205868.75,
      "d": 387.5,
      "v": 91
    },
    {
      "midi": 71,
      "hit": false,
      "t": 206256.25,
      "d": 400,
      "v": 70
    },
    {
      "midi": 74,
      "hit": false,
      "t": 206643.75,
      "d": 162.5,
      "v": 68
    },
    {
      "midi": 67,
      "hit": false,
      "t": 207000,
      "d": 925,
      "v": 55
    },
    {
      "midi": 64,
      "hit": false,
      "t": 207000,
      "d": 962.5,
      "v": 58
    },
    {
      "midi": 60,
      "hit": false,
      "t": 207000,
      "d": 1006.25,
      "v": 53
    },
    {
      "midi": 36,
      "hit": false,
      "t": 207031.25,
      "d": 2600,
      "v": 33
    },
    {
      "midi": 67,
      "hit": false,
      "t": 208275,
      "d": 587.5,
      "v": 58
    },
    {
      "midi": 64,
      "hit": false,
      "t": 208312.5,
      "d": 556.25,
      "v": 61
    },
    {
      "midi": 60,
      "hit": false,
      "t": 208381.25,
      "d": 393.75,
      "v": 85
    },
    {
      "midi": 60,
      "hit": false,
      "t": 208868.75,
      "d": 387.5,
      "v": 91
    },
    {
      "midi": 64,
      "hit": false,
      "t": 209256.25,
      "d": 400,
      "v": 70
    },
    {
      "midi": 67,
      "hit": false,
      "t": 209643.75,
      "d": 162.5,
      "v": 68
    },
    {
      "midi": 55,
      "hit": false,
      "t": 210018.75,
      "d": 1118.75,
      "v": 82
    },
    {
      "midi": 60,
      "hit": false,
      "t": 210018.75,
      "d": 1118.75,
      "v": 82
    },
    {
      "midi": 64,
      "hit": false,
      "t": 210018.75,
      "d": 1118.75,
      "v": 82
    },
    {
      "midi": 48,
      "hit": false,
      "t": 211112.5,
      "d": 1825,
      "v": 63
    },
    {
      "midi": 60,
      "hit": false,
      "t": 211512.5,
      "d": 1437.5,
      "v": 66
    },
    {
      "midi": 64,
      "hit": false,
      "t": 211875,
      "d": 1050,
      "v": 68
    },
    {
      "midi": 67,
      "hit": false,
      "t": 212275,
      "d": 637.5,
      "v": 82
    },
    {
      "midi": 72,
      "hit": false,
      "t": 212612.5,
      "d": 300,
      "v": 59
    },
    {
      "midi": 55,
      "hit": false,
      "t": 213018.75,
      "d": 2162.5,
      "v": 87
    },
    {
      "midi": 59,
      "hit": false,
      "t": 213018.75,
      "d": 2162.5,
      "v": 87
    },
    {
      "midi": 62,
      "hit": false,
      "t": 214893.75,
      "d": 287.5,
      "v": 68
    },
    {
      "midi": 59,
      "hit": false,
      "t": 215268.75,
      "d": 437.5,
      "v": 64
    },
    {
      "midi": 55,
      "hit": false,
      "t": 215656.25,
      "d": 325,
      "v": 91
    },
    {
      "midi": 55,
      "hit": false,
      "t": 216050,
      "d": 2700,
      "v": 78
    },
    {
      "midi": 59,
      "hit": false,
      "t": 216050,
      "d": 2700,
      "v": 78
    },
    {
      "midi": 62,
      "hit": false,
      "t": 216050,
      "d": 2700,
      "v": 78
    },
    {
      "midi": 50,
      "hit": false,
      "t": 219000,
      "d": 1225,
      "v": 54
    },
    {
      "midi": 66,
      "hit": false,
      "t": 219000,
      "d": 1500,
      "v": 57
    },
    {
      "midi": 69,
      "hit": false,
      "t": 219000,
      "d": 1531.25,
      "v": 56
    },
    {
      "midi": 62,
      "hit": false,
      "t": 219000,
      "d": 1556.25,
      "v": 61
    },
    {
      "midi": 38,
      "hit": false,
      "t": 220125,
      "d": 1600,
      "v": 49
    },
    {
      "midi": 50,
      "hit": false,
      "t": 220500,
      "d": 1431.25,
      "v": 52
    },
    {
      "midi": 62,
      "hit": false,
      "t": 220875,
      "d": 1018.75,
      "v": 76
    },
    {
      "midi": 66,
      "hit": false,
      "t": 221625,
      "d": 237.5,
      "v": 87
    },
    {
      "midi": 57,
      "hit": false,
      "t": 222050,
      "d": 2700,
      "v": 78
    },
    {
      "midi": 62,
      "hit": false,
      "t": 222050,
      "d": 2700,
      "v": 78
    },
    {
      "midi": 66,
      "hit": false,
      "t": 222050,
      "d": 2700,
      "v": 78
    },
    {
      "midi": 67,
      "hit": false,
      "t": 225000,
      "d": 925,
      "v": 55
    },
    {
      "midi": 64,
      "hit": false,
      "t": 225000,
      "d": 962.5,
      "v": 58
    },
    {
      "midi": 60,
      "hit": false,
      "t": 225000,
      "d": 1006.25,
      "v": 53
    },
    {
      "midi": 36,
      "hit": false,
      "t": 225031.25,
      "d": 2600,
      "v": 33
    },
    {
      "midi": 67,
      "hit": false,
      "t": 226275,
      "d": 587.5,
      "v": 58
    },
    {
      "midi": 64,
      "hit": false,
      "t": 226312.5,
      "d": 556.25,
      "v": 61
    },
    {
      "midi": 60,
      "hit": false,
      "t": 226381.25,
      "d": 393.75,
      "v": 85
    },
    {
      "midi": 60,
      "hit": false,
      "t": 226868.75,
      "d": 387.5,
      "v": 91
    },
    {
      "midi": 64,
      "hit": false,
      "t": 227256.25,
      "d": 400,
      "v": 70
    },
    {
      "midi": 67,
      "hit": false,
      "t": 227643.75,
      "d": 162.5,
      "v": 68
    },
    {
      "midi": 55,
      "hit": false,
      "t": 228050,
      "d": 2700,
      "v": 78
    },
    {
      "midi": 59,
      "hit": false,
      "t": 228050,
      "d": 2700,
      "v": 78
    },
    {
      "midi": 62,
      "hit": false,
      "t": 228050,
      "d": 2700,
      "v": 78
    },
    {
      "midi": 43,
      "hit": false,
      "t": 231000,
      "d": 1225,
      "v": 54
    },
    {
      "midi": 59,
      "hit": false,
      "t": 231000,
      "d": 1500,
      "v": 57
    },
    {
      "midi": 62,
      "hit": false,
      "t": 231000,
      "d": 1531.25,
      "v": 56
    },
    {
      "midi": 55,
      "hit": false,
      "t": 231000,
      "d": 1556.25,
      "v": 61
    },
    {
      "midi": 43,
      "hit": false,
      "t": 232500,
      "d": 1225,
      "v": 52
    },
    {
      "midi": 55,
      "hit": false,
      "t": 232875,
      "d": 1018.75,
      "v": 76
    },
    {
      "midi": 59,
      "hit": false,
      "t": 233625,
      "d": 237.5,
      "v": 87
    },
    {
      "midi": 57,
      "hit": false,
      "t": 234018.75,
      "d": 2162.5,
      "v": 87
    },
    {
      "midi": 62,
      "hit": false,
      "t": 234018.75,
      "d": 2162.5,
      "v": 87
    },
    {
      "midi": 66,
      "hit": false,
      "t": 234018.75,
      "d": 2162.5,
      "v": 87
    },
    {
      "midi": 69,
      "hit": false,
      "t": 235893.75,
      "d": 450,
      "v": 68
    },
    {
      "midi": 66,
      "hit": false,
      "t": 236268.75,
      "d": 437.5,
      "v": 64
    },
    {
      "midi": 62,
      "hit": false,
      "t": 236656.25,
      "d": 325,
      "v": 91
    },
    {
      "midi": 55,
      "hit": false,
      "t": 237018.75,
      "d": 1118.75,
      "v": 82
    },
    {
      "midi": 59,
      "hit": false,
      "t": 237018.75,
      "d": 1118.75,
      "v": 82
    },
    {
      "midi": 62,
      "hit": false,
      "t": 237018.75,
      "d": 1118.75,
      "v": 82
    },
    {
      "midi": 43,
      "hit": false,
      "t": 238112.5,
      "d": 1825,
      "v": 63
    },
    {
      "midi": 55,
      "hit": false,
      "t": 238512.5,
      "d": 1437.5,
      "v": 66
    },
    {
      "midi": 59,
      "hit": false,
      "t": 238875,
      "d": 1050,
      "v": 68
    },
    {
      "midi": 62,
      "hit": false,
      "t": 239275,
      "d": 637.5,
      "v": 82
    },
    {
      "midi": 67,
      "hit": false,
      "t": 239612.5,
      "d": 300,
      "v": 59
    },
    {
      "midi": 55,
      "hit": false,
      "t": 240000,
      "d": 3981.25,
      "v": 82
    },
    {
      "midi": 59,
      "hit": false,
      "t": 240000,
      "d": 3981.25,
      "v": 82
    },
    {
      "midi": 62,
      "hit": false,
      "t": 240000,
      "d": 3981.25,
      "v": 82
    },
    {
      "midi": 43,
      "hit": false,
      "t": 244125,
      "d": 400,
      "v": 59
    },
    {
      "midi": 55,
      "hit": false,
      "t": 244500,
      "d": 743.75,
      "v": 68
    },
    {
      "midi": 59,
      "hit": false,
      "t": 244500,
      "d": 743.75,
      "v": 68
    },
    {
      "midi": 62,
      "hit": false,
      "t": 244500,
      "d": 743.75,
      "v": 68
    }
  ]
}