{
  "jsonPath": "Classical/Operatic Pop/Amici Forever/senza-catene-unchained-melody.json",
  "path": "Classical\\Operatic Pop\\Amici Forever\\Senza Catene (Unchained Melody).mid",
  "name": "Senza Catene (Unchained Melody)",
  "difficulty": "Advanced",
  "bpm": 64.99999458333379,
  "notes": [
    {
      "midi": 58,
      "hit": false,
      "t": 3692.3079999999995,
      "d": 2146.1540249999994,
      "v": 61
    },
    {
      "midi": 65,
      "hit": false,
      "t": 4123.077266666666,
      "d": 1684.6155249999993,
      "v": 50
    },
    {
      "midi": 72,
      "hit": false,
      "t": 4600.000383333333,
      "d": 346.15387499999997,
      "v": 96
    },
    {
      "midi": 70,
      "hit": false,
      "t": 5076.9235,
      "d": 238.46155833333341,
      "v": 90
    },
    {
      "midi": 70,
      "hit": false,
      "t": 5500.000458333333,
      "d": 292.30771666666624,
      "v": 106
    },
    {
      "midi": 69,
      "hit": false,
      "t": 5930.769724999999,
      "d": 223.07694166666624,
      "v": 71
    },
    {
      "midi": 69,
      "hit": false,
      "t": 6307.692833333333,
      "d": 569.2308166666662,
      "v": 55
    },
    {
      "midi": 57,
      "hit": false,
      "t": 6307.692833333333,
      "d": 653.8462083333325,
      "v": 50
    },
    {
      "midi": 67,
      "hit": false,
      "t": 6830.769799999999,
      "d": 376.9231083333325,
      "v": 67
    },
    {
      "midi": 67,
      "hit": false,
      "t": 7346.154458333332,
      "d": 653.8462083333334,
      "v": 86
    },
    {
      "midi": 55,
      "hit": false,
      "t": 7346.154458333332,
      "d": 1507.6924333333327,
      "v": 84
    },
    {
      "midi": 62,
      "hit": false,
      "t": 7815.385266666665,
      "d": 1038.461624999999,
      "v": 77
    },
    {
      "midi": 70,
      "hit": false,
      "t": 8284.616074999998,
      "d": 215.3846333333331,
      "v": 95
    },
    {
      "midi": 69,
      "hit": false,
      "t": 8730.76995833333,
      "d": 261.5384833333337,
      "v": 79
    },
    {
      "midi": 58,
      "hit": false,
      "t": 9153.846916666664,
      "d": 423.0769583333331,
      "v": 43
    },
    {
      "midi": 55,
      "hit": false,
      "t": 9161.539224999997,
      "d": 484.61542499999814,
      "v": 21
    },
    {
      "midi": 62,
      "hit": false,
      "t": 9169.23153333333,
      "d": 415.38464999999997,
      "v": 40
    },
    {
      "midi": 69,
      "hit": false,
      "t": 9176.923841666663,
      "d": 446.1538833333325,
      "v": 49
    },
    {
      "midi": 67,
      "hit": false,
      "t": 9600.000799999996,
      "d": 353.8461833333313,
      "v": 76
    },
    {
      "midi": 67,
      "hit": false,
      "t": 10092.308533333327,
      "d": 469.2308083333319,
      "v": 84
    },
    {
      "midi": 53,
      "hit": false,
      "t": 10092.308533333327,
      "d": 507.69234999999935,
      "v": 56
    },
    {
      "midi": 65,
      "hit": false,
      "t": 10615.385499999993,
      "d": 369.23079999999936,
      "v": 72
    },
    {
      "midi": 65,
      "hit": false,
      "t": 11130.770158333326,
      "d": 500.00004166666804,
      "v": 89
    },
    {
      "midi": 51,
      "hit": false,
      "t": 11130.770158333326,
      "d": 2769.2310000000016,
      "v": 62
    },
    {
      "midi": 55,
      "hit": false,
      "t": 11592.308658333326,
      "d": 2353.8463500000016,
      "v": 74
    },
    {
      "midi": 67,
      "hit": false,
      "t": 12053.847158333327,
      "d": 415.38464999999997,
      "v": 106
    },
    {
      "midi": 65,
      "hit": false,
      "t": 12515.385658333327,
      "d": 300.00002499999937,
      "v": 88
    },
    {
      "midi": 65,
      "hit": false,
      "t": 12946.154924999993,
      "d": 184.6154000000006,
      "v": 101
    },
    {
      "midi": 63,
      "hit": false,
      "t": 13407.693424999994,
      "d": 423.0769583333331,
      "v": 77
    },
    {
      "midi": 62,
      "hit": false,
      "t": 13853.847308333327,
      "d": 392.3077250000006,
      "v": 79
    },
    {
      "midi": 60,
      "hit": false,
      "t": 14292.308883333328,
      "d": 192.30770833333372,
      "v": 53
    },
    {
      "midi": 65,
      "hit": false,
      "t": 14776.924308333328,
      "d": 4123.077266666667,
      "v": 81
    },
    {
      "midi": 57,
      "hit": false,
      "t": 14792.308924999994,
      "d": 330.7692583333337,
      "v": 55
    },
    {
      "midi": 53,
      "hit": false,
      "t": 14807.69354166666,
      "d": 269.23079166666685,
      "v": 47
    },
    {
      "midi": 53,
      "hit": false,
      "t": 15307.693583333328,
      "d": 430.76926666666805,
      "v": 62
    },
    {
      "midi": 60,
      "hit": false,
      "t": 15700.001308333329,
      "d": 461.53850000000057,
      "v": 59
    },
    {
      "midi": 53,
      "hit": false,
      "t": 16161.53980833333,
      "d": 484.61542499999814,
      "v": 43
    },
    {
      "midi": 57,
      "hit": false,
      "t": 16630.77061666666,
      "d": 484.61542499999996,
      "v": 42
    },
    {
      "midi": 53,
      "hit": false,
      "t": 17115.38604166666,
      "d": 1807.6924583333348,
      "v": 61
    },
    {
      "midi": 60,
      "hit": false,
      "t": 17584.616849999995,
      "d": 1507.6924333333336,
      "v": 72
    },
    {
      "midi": 34,
      "hit": false,
      "t": 18461.539999999994,
      "d": 3523.0772166666684,
      "v": 73
    },
    {
      "midi": 46,
      "hit": false,
      "t": 18461.539999999994,
      "d": 3538.4618333333347,
      "v": 49
    },
    {
      "midi": 53,
      "hit": false,
      "t": 18923.078499999996,
      "d": 761.5385249999963,
      "v": 72
    },
    {
      "midi": 58,
      "hit": false,
      "t": 19384.616999999995,
      "d": 269.230791666665,
      "v": 77
    },
    {
      "midi": 53,
      "hit": false,
      "t": 19846.155499999993,
      "d": 730.7692916666674,
      "v": 73
    },
    {
      "midi": 62,
      "hit": false,
      "t": 20307.693999999992,
      "d": 407.69234166666865,
      "v": 94
    },
    {
      "midi": 53,
      "hit": false,
      "t": 20769.232499999995,
      "d": 623.076975,
      "v": 65
    },
    {
      "midi": 65,
      "hit": false,
      "t": 21230.770999999993,
      "d": 146.15385833333494,
      "v": 92
    },
    {
      "midi": 53,
      "hit": false,
      "t": 21692.309499999996,
      "d": 307.6923333333325,
      "v": 100
    },
    {
      "midi": 43,
      "hit": false,
      "t": 22153.847999999994,
      "d": 3269.2310416666623,
      "v": 77
    },
    {
      "midi": 31,
      "hit": false,
      "t": 22153.847999999994,
      "d": 3407.6925916666623,
      "v": 77
    },
    {
      "midi": 50,
      "hit": false,
      "t": 22615.386499999993,
      "d": 546.153891666665,
      "v": 82
    },
    {
      "midi": 58,
      "hit": false,
      "t": 23076.924999999992,
      "d": 215.3846333333313,
      "v": 65
    },
    {
      "midi": 50,
      "hit": false,
      "t": 23538.46349999999,
      "d": 500.0000416666662,
      "v": 79
    },
    {
      "midi": 62,
      "hit": false,
      "t": 24000.00199999999,
      "d": 107.69231666666747,
      "v": 90
    },
    {
      "midi": 50,
      "hit": false,
      "t": 24461.540499999992,
      "d": 584.6154333333325,
      "v": 66
    },
    {
      "midi": 55,
      "hit": false,
      "t": 24923.07899999999,
      "d": 261.5384833333337,
      "v": 79
    },
    {
      "midi": 50,
      "hit": false,
      "t": 25384.61749999999,
      "d": 176.92309166666746,
      "v": 83
    },
    {
      "midi": 39,
      "hit": false,
      "t": 25846.155999999988,
      "d": 3376.923358333326,
      "v": 75
    },
    {
      "midi": 46,
      "hit": false,
      "t": 26307.694499999987,
      "d": 738.4615999999987,
      "v": 65
    },
    {
      "midi": 55,
      "hit": false,
      "t": 26769.232999999986,
      "d": 392.30772499999875,
      "v": 59
    },
    {
      "midi": 46,
      "hit": false,
      "t": 27230.771499999984,
      "d": 661.5385166666674,
      "v": 55
    },
    {
      "midi": 58,
      "hit": false,
      "t": 27692.309999999983,
      "d": 176.92309166666746,
      "v": 65
    },
    {
      "midi": 46,
      "hit": false,
      "t": 28153.848499999986,
      "d": 530.7692749999987,
      "v": 46
    },
    {
      "midi": 63,
      "hit": false,
      "t": 28615.386999999984,
      "d": 492.30773333333127,
      "v": 69
    },
    {
      "midi": 46,
      "hit": false,
      "t": 29076.925499999983,
      "d": 215.3846333333313,
      "v": 68
    },
    {
      "midi": 41,
      "hit": false,
      "t": 29538.46399999998,
      "d": 3238.46180833333,
      "v": 69
    },
    {
      "midi": 48,
      "hit": false,
      "t": 30000.002499999984,
      "d": 730.7692916666638,
      "v": 97
    },
    {
      "midi": 53,
      "hit": false,
      "t": 30461.540999999983,
      "d": 530.7692749999987,
      "v": 93
    },
    {
      "midi": 48,
      "hit": false,
      "t": 30923.07949999998,
      "d": 692.3077499999963,
      "v": 82
    },
    {
      "midi": 57,
      "hit": false,
      "t": 31384.61799999998,
      "d": 115.38462499999878,
      "v": 93
    },
    {
      "midi": 48,
      "hit": false,
      "t": 31846.15649999998,
      "d": 523.0769666666638,
      "v": 79
    },
    {
      "midi": 65,
      "hit": false,
      "t": 32307.694999999978,
      "d": 138.46155,
      "v": 88
    },
    {
      "midi": 48,
      "hit": false,
      "t": 32769.23349999998,
      "d": 123.07693333333009,
      "v": 73
    },
    {
      "midi": 46,
      "hit": false,
      "t": 33230.771999999975,
      "d": 2430.7694333333347,
      "v": 39
    },
    {
      "midi": 34,
      "hit": false,
      "t": 33230.771999999975,
      "d": 2638.4617583333384,
      "v": 50
    },
    {
      "midi": 53,
      "hit": false,
      "t": 33692.31049999998,
      "d": 569.2308166666699,
      "v": 40
    },
    {
      "midi": 58,
      "hit": false,
      "t": 34153.84899999998,
      "d": 161.5384750000012,
      "v": 62
    },
    {
      "midi": 53,
      "hit": false,
      "t": 34615.38749999998,
      "d": 461.5385000000024,
      "v": 80
    },
    {
      "midi": 62,
      "hit": false,
      "t": 35076.925999999985,
      "d": 146.1538583333313,
      "v": 81
    },
    {
      "midi": 53,
      "hit": false,
      "t": 35538.46449999998,
      "d": 469.2308083333337,
      "v": 42
    },
    {
      "midi": 65,
      "hit": false,
      "t": 36000.00299999998,
      "d": 330.7692583333337,
      "v": 82
    },
    {
      "midi": 45,
      "hit": false,
      "t": 36000.00299999998,
      "d": 453.8461916666638,
      "v": 67
    },
    {
      "midi": 33,
      "hit": false,
      "t": 36000.00299999998,
      "d": 730.7692916666638,
      "v": 60
    },
    {
      "midi": 53,
      "hit": false,
      "t": 36461.54149999998,
      "d": 346.1538750000036,
      "v": 65
    },
    {
      "midi": 43,
      "hit": false,
      "t": 36923.07999999998,
      "d": 3253.846425000018,
      "v": 92
    },
    {
      "midi": 31,
      "hit": false,
      "t": 36923.07999999998,
      "d": 3338.461816666684,
      "v": 77
    },
    {
      "midi": 50,
      "hit": false,
      "t": 37384.61849999998,
      "d": 507.6923500000048,
      "v": 82
    },
    {
      "midi": 58,
      "hit": false,
      "t": 37846.156999999985,
      "d": 138.46155,
      "v": 53
    },
    {
      "midi": 50,
      "hit": false,
      "t": 38307.69549999999,
      "d": 561.5385083333385,
      "v": 82
    },
    {
      "midi": 62,
      "hit": false,
      "t": 38769.23399999999,
      "d": 107.69231666666747,
      "v": 80
    },
    {
      "midi": 50,
      "hit": false,
      "t": 39230.77249999999,
      "d": 346.1538750000036,
      "v": 50
    },
    {
      "midi": 55,
      "hit": false,
      "t": 39692.310999999994,
      "d": 184.6154000000024,
      "v": 78
    },
    {
      "midi": 50,
      "hit": false,
      "t": 40153.8495,
      "d": 123.07693333333737,
      "v": 82
    },
    {
      "midi": 39,
      "hit": false,
      "t": 40615.388,
      "d": 3346.154125000001,
      "v": 65
    },
    {
      "midi": 46,
      "hit": false,
      "t": 41076.926499999994,
      "d": 538.4615833333373,
      "v": 60
    },
    {
      "midi": 55,
      "hit": false,
      "t": 41538.465,
      "d": 146.1538583333313,
      "v": 82
    },
    {
      "midi": 46,
      "hit": false,
      "t": 42000.00349999999,
      "d": 523.0769666666674,
      "v": 47
    },
    {
      "midi": 58,
      "hit": false,
      "t": 42461.541999999994,
      "d": 115.38462499999878,
      "v": 62
    },
    {
      "midi": 46,
      "hit": false,
      "t": 42923.0805,
      "d": 376.92310833333613,
      "v": 13
    },
    {
      "midi": 63,
      "hit": false,
      "t": 43384.619,
      "d": 492.3077333333349,
      "v": 56
    },
    {
      "midi": 46,
      "hit": false,
      "t": 43846.1575,
      "d": 261.5384833333301,
      "v": 59
    },
    {
      "midi": 41,
      "hit": false,
      "t": 44307.696,
      "d": 3607.692608333331,
      "v": 56
    },
    {
      "midi": 48,
      "hit": false,
      "t": 44769.2345,
      "d": 500.0000416666662,
      "v": 83
    },
    {
      "midi": 53,
      "hit": false,
      "t": 45230.773,
      "d": 107.69231666666747,
      "v": 85
    },
    {
      "midi": 48,
      "hit": false,
      "t": 45692.3115,
      "d": 523.0769666666674,
      "v": 48
    },
    {
      "midi": 57,
      "hit": false,
      "t": 46153.850000000006,
      "d": 123.07693333333009,
      "v": 73
    },
    {
      "midi": 48,
      "hit": false,
      "t": 46615.3885,
      "d": 469.2308083333337,
      "v": 86
    },
    {
      "midi": 57,
      "hit": false,
      "t": 47076.927,
      "d": 107.69231666666747,
      "v": 65
    },
    {
      "midi": 65,
      "hit": false,
      "t": 47076.927,
      "d": 115.38462499999878,
      "v": 94
    },
    {
      "midi": 60,
      "hit": false,
      "t": 47076.927,
      "d": 123.07693333333009,
      "v": 82
    },
    {
      "midi": 48,
      "hit": false,
      "t": 47538.4655,
      "d": 184.6154000000024,
      "v": 102
    },
    {
      "midi": 46,
      "hit": false,
      "t": 48000.004,
      "d": 2384.615583333347,
      "v": 71
    },
    {
      "midi": 53,
      "hit": false,
      "t": 48461.5425,
      "d": 492.3077333333349,
      "v": 96
    },
    {
      "midi": 58,
      "hit": false,
      "t": 48923.081000000006,
      "d": 161.5384750000012,
      "v": 76
    },
    {
      "midi": 72,
      "hit": false,
      "t": 48923.081000000006,
      "d": 184.6154000000024,
      "v": 60
    },
    {
      "midi": 53,
      "hit": false,
      "t": 49384.61950000001,
      "d": 307.6923333333325,
      "v": 80
    },
    {
      "midi": 62,
      "hit": false,
      "t": 49846.15800000001,
      "d": 123.07693333333009,
      "v": 83
    },
    {
      "midi": 70,
      "hit": false,
      "t": 49846.15800000001,
      "d": 138.46155,
      "v": 90
    },
    {
      "midi": 53,
      "hit": false,
      "t": 50307.69650000001,
      "d": 638.4615916666662,
      "v": 56
    },
    {
      "midi": 62,
      "hit": false,
      "t": 50769.235000000015,
      "d": 276.9231,
      "v": 95
    },
    {
      "midi": 45,
      "hit": false,
      "t": 50769.235000000015,
      "d": 423.0769583333313,
      "v": 84
    },
    {
      "midi": 69,
      "hit": false,
      "t": 50769.235000000015,
      "d": 523.0769666666602,
      "v": 89
    },
    {
      "midi": 53,
      "hit": false,
      "t": 51230.77350000001,
      "d": 415.38464999999997,
      "v": 73
    },
    {
      "midi": 43,
      "hit": false,
      "t": 51692.312000000005,
      "d": 2492.307900000007,
      "v": 93
    },
    {
      "midi": 50,
      "hit": false,
      "t": 52153.85050000001,
      "d": 507.6923500000048,
      "v": 76
    },
    {
      "midi": 58,
      "hit": false,
      "t": 52615.38900000001,
      "d": 161.5384750000012,
      "v": 93
    },
    {
      "midi": 50,
      "hit": false,
      "t": 53076.92750000001,
      "d": 469.2308083333337,
      "v": 74
    },
    {
      "midi": 62,
      "hit": false,
      "t": 53538.466000000015,
      "d": 69.23077499999636,
      "v": 92
    },
    {
      "midi": 58,
      "hit": false,
      "t": 53538.466000000015,
      "d": 153.8461666666626,
      "v": 99
    },
    {
      "midi": 50,
      "hit": false,
      "t": 54000.00450000001,
      "d": 530.7692749999987,
      "v": 71
    },
    {
      "midi": 55,
      "hit": false,
      "t": 54461.54300000001,
      "d": 146.1538583333313,
      "v": 81
    },
    {
      "midi": 62,
      "hit": false,
      "t": 54461.54300000001,
      "d": 146.1538583333313,
      "v": 86
    },
    {
      "midi": 41,
      "hit": false,
      "t": 54461.54300000001,
      "d": 530.7692749999915,
      "v": 76
    },
    {
      "midi": 50,
      "hit": false,
      "t": 54923.08150000001,
      "d": 146.1538583333313,
      "v": 100
    },
    {
      "midi": 39,
      "hit": false,
      "t": 55384.62,
      "d": 3369.2310500000094,
      "v": 55
    },
    {
      "midi": 46,
      "hit": false,
      "t": 55846.158500000005,
      "d": 638.4615916666662,
      "v": 57
    },
    {
      "midi": 51,
      "hit": false,
      "t": 56307.69700000001,
      "d": 138.46155,
      "v": 104
    },
    {
      "midi": 55,
      "hit": false,
      "t": 56307.69700000001,
      "d": 146.1538583333313,
      "v": 92
    },
    {
      "midi": 46,
      "hit": false,
      "t": 56769.2355,
      "d": 569.2308166666699,
      "v": 84
    },
    {
      "midi": 55,
      "hit": false,
      "t": 57230.774000000005,
      "d": 146.1538583333313,
      "v": 67
    },
    {
      "midi": 58,
      "hit": false,
      "t": 57230.774000000005,
      "d": 161.5384750000012,
      "v": 51
    },
    {
      "midi": 46,
      "hit": false,
      "t": 57692.31250000001,
      "d": 415.38464999999997,
      "v": 27
    },
    {
      "midi": 58,
      "hit": false,
      "t": 58153.85100000001,
      "d": 584.6154333333325,
      "v": 69
    },
    {
      "midi": 63,
      "hit": false,
      "t": 58153.85100000001,
      "d": 584.6154333333325,
      "v": 48
    },
    {
      "midi": 46,
      "hit": false,
      "t": 58615.38950000001,
      "d": 200.00001666666503,
      "v": 68
    },
    {
      "midi": 41,
      "hit": false,
      "t": 59076.92800000001,
      "d": 1561.538591666671,
      "v": 46
    },
    {
      "midi": 48,
      "hit": false,
      "t": 59538.46650000001,
      "d": 492.3077333333349,
      "v": 56
    },
    {
      "midi": 57,
      "hit": false,
      "t": 60000.00500000001,
      "d": 215.38463333333493,
      "v": 68
    },
    {
      "midi": 53,
      "hit": false,
      "t": 60000.00500000001,
      "d": 253.84617499999877,
      "v": 71
    },
    {
      "midi": 48,
      "hit": false,
      "t": 60461.543500000014,
      "d": 500.0000416666662,
      "v": 73
    },
    {
      "midi": 41,
      "hit": false,
      "t": 60923.08200000002,
      "d": 1546.1539749999938,
      "v": 64
    },
    {
      "midi": 48,
      "hit": false,
      "t": 61384.62050000001,
      "d": 423.0769583333313,
      "v": 64
    },
    {
      "midi": 60,
      "hit": false,
      "t": 61846.15900000001,
      "d": 307.6923333333325,
      "v": 62
    },
    {
      "midi": 57,
      "hit": false,
      "t": 61846.15900000001,
      "d": 407.69234166666865,
      "v": 86
    },
    {
      "midi": 48,
      "hit": false,
      "t": 62307.69750000001,
      "d": 223.07694166666624,
      "v": 59
    },
    {
      "midi": 46,
      "hit": false,
      "t": 62769.23600000001,
      "d": 584.6154333333325,
      "v": 56
    },
    {
      "midi": 53,
      "hit": false,
      "t": 63230.774500000014,
      "d": 538.46158333333,
      "v": 37
    },
    {
      "midi": 72,
      "hit": false,
      "t": 63692.31300000001,
      "d": 230.76925000000483,
      "v": 88
    },
    {
      "midi": 62,
      "hit": false,
      "t": 63692.31300000001,
      "d": 261.53848333333735,
      "v": 75
    },
    {
      "midi": 65,
      "hit": false,
      "t": 63692.31300000001,
      "d": 330.769258333341,
      "v": 96
    },
    {
      "midi": 46,
      "hit": false,
      "t": 63692.31300000001,
      "d": 561.5385083333458,
      "v": 66
    },
    {
      "midi": 62,
      "hit": false,
      "t": 64153.85150000002,
      "d": 253.84617500000604,
      "v": 65
    },
    {
      "midi": 70,
      "hit": false,
      "t": 64153.85150000002,
      "d": 253.84617500000604,
      "v": 49
    },
    {
      "midi": 65,
      "hit": false,
      "t": 64153.85150000002,
      "d": 292.3077166666699,
      "v": 65
    },
    {
      "midi": 53,
      "hit": false,
      "t": 64153.85150000002,
      "d": 430.76926666666986,
      "v": 53
    },
    {
      "midi": 46,
      "hit": false,
      "t": 64615.39000000002,
      "d": 500.0000416666662,
      "v": 63
    },
    {
      "midi": 70,
      "hit": false,
      "t": 64615.39000000002,
      "d": 500.0000416666662,
      "v": 65
    },
    {
      "midi": 62,
      "hit": false,
      "t": 64615.39000000002,
      "d": 661.5385166666674,
      "v": 69
    },
    {
      "midi": 65,
      "hit": false,
      "t": 64615.39000000002,
      "d": 661.5385166666674,
      "v": 86
    },
    {
      "midi": 53,
      "hit": false,
      "t": 65076.92850000002,
      "d": 415.38464999999997,
      "v": 49
    },
    {
      "midi": 45,
      "hit": false,
      "t": 65538.46700000002,
      "d": 453.8461916666711,
      "v": 67
    },
    {
      "midi": 69,
      "hit": false,
      "t": 65538.46700000002,
      "d": 884.6154583333409,
      "v": 67
    },
    {
      "midi": 62,
      "hit": false,
      "t": 65538.46700000002,
      "d": 907.6923833333421,
      "v": 58
    },
    {
      "midi": 65,
      "hit": false,
      "t": 65538.46700000002,
      "d": 915.3846916666807,
      "v": 74
    },
    {
      "midi": 53,
      "hit": false,
      "t": 66000.00550000003,
      "d": 292.3077166666626,
      "v": 56
    },
    {
      "midi": 43,
      "hit": false,
      "t": 66461.54400000004,
      "d": 546.1538916666614,
      "v": 89
    },
    {
      "midi": 50,
      "hit": false,
      "t": 66923.08250000003,
      "d": 576.9231250000012,
      "v": 86
    },
    {
      "midi": 70,
      "hit": false,
      "t": 67384.62100000003,
      "d": 269.23079166667594,
      "v": 28
    },
    {
      "midi": 58,
      "hit": false,
      "t": 67384.62100000003,
      "d": 369.2308000000048,
      "v": 33
    },
    {
      "midi": 43,
      "hit": false,
      "t": 67384.62100000003,
      "d": 530.7692750000133,
      "v": 71
    },
    {
      "midi": 62,
      "hit": false,
      "t": 67846.15950000004,
      "d": 176.9230916666711,
      "v": 96
    },
    {
      "midi": 69,
      "hit": false,
      "t": 67846.15950000004,
      "d": 184.61540000000969,
      "v": 71
    },
    {
      "midi": 58,
      "hit": false,
      "t": 67846.15950000004,
      "d": 261.53848333333735,
      "v": 55
    },
    {
      "midi": 50,
      "hit": false,
      "t": 67846.15950000004,
      "d": 453.8461916666711,
      "v": 62
    },
    {
      "midi": 62,
      "hit": false,
      "t": 68307.69800000005,
      "d": 84.61539166666626,
      "v": 79
    },
    {
      "midi": 69,
      "hit": false,
      "t": 68307.69800000005,
      "d": 315.3846416666638,
      "v": 79
    },
    {
      "midi": 43,
      "hit": false,
      "t": 68307.69800000005,
      "d": 507.69234999999753,
      "v": 92
    },
    {
      "midi": 58,
      "hit": false,
      "t": 68307.69800000005,
      "d": 1615.384750000012,
      "v": 62
    },
    {
      "midi": 50,
      "hit": false,
      "t": 68769.23650000004,
      "d": 469.23080833334825,
      "v": 76
    },
    {
      "midi": 41,
      "hit": false,
      "t": 69230.77500000005,
      "d": 430.76926666666986,
      "v": 96
    },
    {
      "midi": 62,
      "hit": false,
      "t": 69230.77500000005,
      "d": 692.3077500000072,
      "v": 72
    },
    {
      "midi": 67,
      "hit": false,
      "t": 69230.77500000005,
      "d": 761.5385250000108,
      "v": 94
    },
    {
      "midi": 50,
      "hit": false,
      "t": 69692.31350000006,
      "d": 123.07693333333009,
      "v": 78
    },
    {
      "midi": 39,
      "hit": false,
      "t": 70153.85200000006,
      "d": 600.0000499999878,
      "v": 66
    },
    {
      "midi": 46,
      "hit": false,
      "t": 70615.39050000005,
      "d": 561.538508333324,
      "v": 65
    },
    {
      "midi": 51,
      "hit": false,
      "t": 71076.92900000005,
      "d": 192.30770833333372,
      "v": 59
    },
    {
      "midi": 55,
      "hit": false,
      "t": 71076.92900000005,
      "d": 253.84617499999877,
      "v": 95
    },
    {
      "midi": 39,
      "hit": false,
      "t": 71076.92900000005,
      "d": 576.9231250000012,
      "v": 44
    },
    {
      "midi": 58,
      "hit": false,
      "t": 71538.46750000004,
      "d": 161.53847500000848,
      "v": 61
    },
    {
      "midi": 51,
      "hit": false,
      "t": 71538.46750000004,
      "d": 215.38463333333493,
      "v": 62
    },
    {
      "midi": 55,
      "hit": false,
      "t": 71538.46750000004,
      "d": 215.38463333333493,
      "v": 86
    },
    {
      "midi": 46,
      "hit": false,
      "t": 71538.46750000004,
      "d": 546.1538916666614,
      "v": 65
    },
    {
      "midi": 51,
      "hit": false,
      "t": 72000.00600000004,
      "d": 100.00000833332888,
      "v": 57
    },
    {
      "midi": 55,
      "hit": false,
      "t": 72000.00600000004,
      "d": 107.69231666666747,
      "v": 92
    },
    {
      "midi": 58,
      "hit": false,
      "t": 72000.00600000004,
      "d": 161.53847499999392,
      "v": 82
    },
    {
      "midi": 39,
      "hit": false,
      "t": 72000.00600000004,
      "d": 507.69234999999753,
      "v": 67
    },
    {
      "midi": 46,
      "hit": false,
      "t": 72461.54450000003,
      "d": 561.5385083333385,
      "v": 50
    },
    {
      "midi": 39,
      "hit": false,
      "t": 72923.08300000004,
      "d": 484.6154249999963,
      "v": 65
    },
    {
      "midi": 63,
      "hit": false,
      "t": 72923.08300000004,
      "d": 853.8462249999866,
      "v": 73
    },
    {
      "midi": 55,
      "hit": false,
      "t": 72923.08300000004,
      "d": 869.2308416666638,
      "v": 54
    },
    {
      "midi": 58,
      "hit": false,
      "t": 72923.08300000004,
      "d": 915.3846916666662,
      "v": 73
    },
    {
      "midi": 46,
      "hit": false,
      "t": 73384.62150000004,
      "d": 123.07693333333009,
      "v": 31
    },
    {
      "midi": 41,
      "hit": false,
      "t": 73846.16000000005,
      "d": 576.9231250000012,
      "v": 69
    },
    {
      "midi": 48,
      "hit": false,
      "t": 74307.69850000004,
      "d": 538.4615833333373,
      "v": 60
    },
    {
      "midi": 53,
      "hit": false,
      "t": 74769.23700000005,
      "d": 292.3077166666626,
      "v": 73
    },
    {
      "midi": 57,
      "hit": false,
      "t": 74769.23700000005,
      "d": 430.76926666666986,
      "v": 92
    },
    {
      "midi": 41,
      "hit": false,
      "t": 74769.23700000005,
      "d": 530.7692750000133,
      "v": 86
    },
    {
      "midi": 48,
      "hit": false,
      "t": 75230.77550000006,
      "d": 538.4615833333373,
      "v": 67
    },
    {
      "midi": 57,
      "hit": false,
      "t": 75692.31400000007,
      "d": 61.538466666665045,
      "v": 71
    },
    {
      "midi": 60,
      "hit": false,
      "t": 75692.31400000007,
      "d": 100.00000833332888,
      "v": 82
    },
    {
      "midi": 41,
      "hit": false,
      "t": 75692.31400000007,
      "d": 546.1538916666614,
      "v": 82
    },
    {
      "midi": 48,
      "hit": false,
      "t": 76153.85250000007,
      "d": 461.5384999999951,
      "v": 68
    },
    {
      "midi": 65,
      "hit": false,
      "t": 76615.39100000006,
      "d": 530.7692749999987,
      "v": 105
    },
    {
      "midi": 41,
      "hit": false,
      "t": 76615.39100000006,
      "d": 561.5385083333385,
      "v": 84
    },
    {
      "midi": 60,
      "hit": false,
      "t": 76615.39100000006,
      "d": 561.5385083333385,
      "v": 78
    },
    {
      "midi": 57,
      "hit": false,
      "t": 76615.39100000006,
      "d": 569.2308166666771,
      "v": 70
    },
    {
      "midi": 48,
      "hit": false,
      "t": 77076.92950000006,
      "d": 500.0000416666735,
      "v": 79
    },
    {
      "midi": 39,
      "hit": false,
      "t": 77538.46800000007,
      "d": 3176.923341666683,
      "v": 62
    },
    {
      "midi": 46,
      "hit": false,
      "t": 78000.00650000006,
      "d": 315.3846416666638,
      "v": 34
    },
    {
      "midi": 51,
      "hit": false,
      "t": 78461.54500000006,
      "d": 346.1538750000036,
      "v": 55
    },
    {
      "midi": 55,
      "hit": false,
      "t": 78461.54500000006,
      "d": 453.8461916666711,
      "v": 70
    },
    {
      "midi": 46,
      "hit": false,
      "t": 78923.08350000007,
      "d": 369.2308000000048,
      "v": 2
    },
    {
      "midi": 58,
      "hit": false,
      "t": 79384.62200000008,
      "d": 346.1538750000036,
      "v": 35
    },
    {
      "midi": 55,
      "hit": false,
      "t": 79384.62200000008,
      "d": 376.9231083333434,
      "v": 42
    },
    {
      "midi": 46,
      "hit": false,
      "t": 79846.16050000009,
      "d": 276.9231,
      "v": 5
    },
    {
      "midi": 55,
      "hit": false,
      "t": 80307.69900000008,
      "d": 1000.0000833333179,
      "v": 49
    },
    {
      "midi": 63,
      "hit": false,
      "t": 80307.69900000008,
      "d": 1023.0770083333191,
      "v": 69
    },
    {
      "midi": 58,
      "hit": false,
      "t": 80307.69900000008,
      "d": 1030.7693166666577,
      "v": 54
    },
    {
      "midi": 46,
      "hit": false,
      "t": 80769.23750000008,
      "d": 215.38463333333493,
      "v": 45
    },
    {
      "midi": 41,
      "hit": false,
      "t": 81230.77600000007,
      "d": 1569.2308999999805,
      "v": 56
    },
    {
      "midi": 48,
      "hit": false,
      "t": 81692.31450000007,
      "d": 500.00004166665894,
      "v": 71
    },
    {
      "midi": 53,
      "hit": false,
      "t": 82153.85300000006,
      "d": 1023.0770083333191,
      "v": 43
    },
    {
      "midi": 57,
      "hit": false,
      "t": 82153.85300000006,
      "d": 1061.538549999983,
      "v": 74
    },
    {
      "midi": 48,
      "hit": false,
      "t": 82615.39150000006,
      "d": 507.69234999999753,
      "v": 70
    },
    {
      "midi": 41,
      "hit": false,
      "t": 83076.93000000005,
      "d": 2115.384791666671,
      "v": 74
    },
    {
      "midi": 48,
      "hit": false,
      "t": 83538.46850000005,
      "d": 492.3077333333349,
      "v": 70
    },
    {
      "midi": 53,
      "hit": false,
      "t": 84000.00700000004,
      "d": 546.1538916666759,
      "v": 45
    },
    {
      "midi": 57,
      "hit": false,
      "t": 84000.00700000004,
      "d": 546.1538916666759,
      "v": 49
    },
    {
      "midi": 48,
      "hit": false,
      "t": 84461.54550000005,
      "d": 661.5385166666674,
      "v": 65
    },
    {
      "midi": 46,
      "hit": false,
      "t": 84923.08400000005,
      "d": 3376.9233583333407,
      "v": 48
    },
    {
      "midi": 53,
      "hit": false,
      "t": 85384.62250000006,
      "d": 676.92313333333,
      "v": 67
    },
    {
      "midi": 58,
      "hit": false,
      "t": 85846.16100000005,
      "d": 146.1538583333313,
      "v": 79
    },
    {
      "midi": 53,
      "hit": false,
      "t": 86307.69950000005,
      "d": 569.2308166666626,
      "v": 55
    },
    {
      "midi": 58,
      "hit": false,
      "t": 86769.23800000004,
      "d": 307.6923333333398,
      "v": 74
    },
    {
      "midi": 62,
      "hit": false,
      "t": 86769.23800000004,
      "d": 353.8461833333422,
      "v": 86
    },
    {
      "midi": 53,
      "hit": false,
      "t": 87230.77650000005,
      "d": 461.5384999999951,
      "v": 28
    },
    {
      "midi": 65,
      "hit": false,
      "t": 87692.31500000005,
      "d": 507.69234999999753,
      "v": 79
    },
    {
      "midi": 62,
      "hit": false,
      "t": 87692.31500000005,
      "d": 576.9231250000012,
      "v": 85
    },
    {
      "midi": 53,
      "hit": false,
      "t": 88153.85350000004,
      "d": 192.30770833334827,
      "v": 72
    },
    {
      "midi": 43,
      "hit": false,
      "t": 88615.39200000007,
      "d": 3300.000275000013,
      "v": 79
    },
    {
      "midi": 50,
      "hit": false,
      "t": 89076.93050000007,
      "d": 584.6154333333252,
      "v": 80
    },
    {
      "midi": 55,
      "hit": false,
      "t": 89538.46900000007,
      "d": 184.61539999999513,
      "v": 91
    },
    {
      "midi": 58,
      "hit": false,
      "t": 89538.46900000007,
      "d": 200.00001666665776,
      "v": 62
    },
    {
      "midi": 50,
      "hit": false,
      "t": 90000.00750000007,
      "d": 500.00004166665894,
      "v": 80
    },
    {
      "midi": 62,
      "hit": false,
      "t": 90461.54600000006,
      "d": 123.07693333333009,
      "v": 84
    },
    {
      "midi": 58,
      "hit": false,
      "t": 90461.54600000006,
      "d": 192.30770833333372,
      "v": 70
    },
    {
      "midi": 50,
      "hit": false,
      "t": 90923.08450000006,
      "d": 392.30772500000603,
      "v": 83
    },
    {
      "midi": 67,
      "hit": false,
      "t": 91384.62300000007,
      "d": 407.69234166666865,
      "v": 43
    },
    {
      "midi": 62,
      "hit": false,
      "t": 91384.62300000007,
      "d": 430.76926666666986,
      "v": 66
    },
    {
      "midi": 50,
      "hit": false,
      "t": 91846.16150000007,
      "d": 146.1538583333313,
      "v": 89
    },
    {
      "midi": 39,
      "hit": false,
      "t": 92307.70000000007,
      "d": 3338.461816666677,
      "v": 57
    },
    {
      "midi": 46,
      "hit": false,
      "t": 92769.23850000008,
      "d": 569.2308166666626,
      "v": 55
    },
    {
      "midi": 51,
      "hit": false,
      "t": 93230.77700000007,
      "d": 223.07694166667352,
      "v": 46
    },
    {
      "midi": 55,
      "hit": false,
      "t": 93230.77700000007,
      "d": 223.07694166667352,
      "v": 71
    },
    {
      "midi": 46,
      "hit": false,
      "t": 93692.31550000008,
      "d": 546.1538916666614,
      "v": 30
    },
    {
      "midi": 55,
      "hit": false,
      "t": 94153.85400000008,
      "d": 138.4615499999927,
      "v": 58
    },
    {
      "midi": 58,
      "hit": false,
      "t": 94153.85400000008,
      "d": 138.4615499999927,
      "v": 63
    },
    {
      "midi": 46,
      "hit": false,
      "t": 94615.39250000007,
      "d": 576.9231250000012,
      "v": 14
    },
    {
      "midi": 63,
      "hit": false,
      "t": 95076.93100000007,
      "d": 569.2308166666771,
      "v": 71
    },
    {
      "midi": 58,
      "hit": false,
      "t": 95076.93100000007,
      "d": 607.692358333341,
      "v": 71
    },
    {
      "midi": 46,
      "hit": false,
      "t": 95538.46950000008,
      "d": 161.53847499999392,
      "v": 53
    },
    {
      "midi": 41,
      "hit": false,
      "t": 96000.00800000007,
      "d": 3846.1541666666308,
      "v": 55
    },
    {
      "midi": 48,
      "hit": false,
      "t": 96461.54650000007,
      "d": 676.92313333333,
      "v": 91
    },
    {
      "midi": 53,
      "hit": false,
      "t": 96923.08500000006,
      "d": 176.9230916666711,
      "v": 73
    },
    {
      "midi": 57,
      "hit": false,
      "t": 96923.08500000006,
      "d": 176.9230916666711,
      "v": 62
    },
    {
      "midi": 48,
      "hit": false,
      "t": 97384.62350000006,
      "d": 538.4615833333228,
      "v": 64
    },
    {
      "midi": 57,
      "hit": false,
      "t": 97846.16200000005,
      "d": 107.69231666666747,
      "v": 82
    },
    {
      "midi": 60,
      "hit": false,
      "t": 97846.16200000005,
      "d": 123.07693333333009,
      "v": 77
    },
    {
      "midi": 48,
      "hit": false,
      "t": 98307.70050000005,
      "d": 538.4615833333228,
      "v": 69
    },
    {
      "midi": 65,
      "hit": false,
      "t": 98769.23900000005,
      "d": 261.5384833333228,
      "v": 92
    },
    {
      "midi": 60,
      "hit": false,
      "t": 98769.23900000005,
      "d": 392.3077249999915,
      "v": 65
    },
    {
      "midi": 48,
      "hit": false,
      "t": 99230.77750000004,
      "d": 607.6923583333264,
      "v": 80
    },
    {
      "midi": 46,
      "hit": false,
      "t": 99692.31600000004,
      "d": 3376.9233583333407,
      "v": 48
    },
    {
      "midi": 53,
      "hit": false,
      "t": 100153.85450000004,
      "d": 676.92313333333,
      "v": 67
    },
    {
      "midi": 58,
      "hit": false,
      "t": 100615.39300000004,
      "d": 146.1538583333313,
      "v": 79
    },
    {
      "midi": 53,
      "hit": false,
      "t": 101076.93150000004,
      "d": 569.2308166666626,
      "v": 55
    },
    {
      "midi": 58,
      "hit": false,
      "t": 101538.47000000003,
      "d": 307.6923333333398,
      "v": 74
    },
    {
      "midi": 62,
      "hit": false,
      "t": 101538.47000000003,
      "d": 353.8461833333422,
      "v": 86
    },
    {
      "midi": 53,
      "hit": false,
      "t": 102000.00850000004,
      "d": 461.5384999999951,
      "v": 28
    },
    {
      "midi": 65,
      "hit": false,
      "t": 102461.54700000004,
      "d": 507.69234999999753,
      "v": 79
    },
    {
      "midi": 62,
      "hit": false,
      "t": 102461.54700000004,
      "d": 576.9231250000012,
      "v": 85
    },
    {
      "midi": 53,
      "hit": false,
      "t": 102923.08550000003,
      "d": 192.30770833334827,
      "v": 72
    },
    {
      "midi": 43,
      "hit": false,
      "t": 103384.62400000005,
      "d": 3300.000275000013,
      "v": 79
    },
    {
      "midi": 50,
      "hit": false,
      "t": 103846.16250000006,
      "d": 584.6154333333252,
      "v": 80
    },
    {
      "midi": 55,
      "hit": false,
      "t": 104307.70100000006,
      "d": 184.61539999999513,
      "v": 91
    },
    {
      "midi": 58,
      "hit": false,
      "t": 104307.70100000006,
      "d": 200.00001666665776,
      "v": 62
    },
    {
      "midi": 50,
      "hit": false,
      "t": 104769.23950000005,
      "d": 500.00004166665894,
      "v": 80
    },
    {
      "midi": 62,
      "hit": false,
      "t": 105230.77800000005,
      "d": 123.07693333333009,
      "v": 84
    },
    {
      "midi": 58,
      "hit": false,
      "t": 105230.77800000005,
      "d": 192.30770833333372,
      "v": 70
    },
    {
      "midi": 50,
      "hit": false,
      "t": 105692.31650000004,
      "d": 392.30772500000603,
      "v": 83
    },
    {
      "midi": 67,
      "hit": false,
      "t": 106153.85500000005,
      "d": 407.69234166666865,
      "v": 43
    },
    {
      "midi": 62,
      "hit": false,
      "t": 106153.85500000005,
      "d": 430.76926666666986,
      "v": 66
    },
    {
      "midi": 50,
      "hit": false,
      "t": 106615.39350000006,
      "d": 146.1538583333313,
      "v": 89
    },
    {
      "midi": 39,
      "hit": false,
      "t": 107076.93200000006,
      "d": 3338.461816666677,
      "v": 57
    },
    {
      "midi": 46,
      "hit": false,
      "t": 107538.47050000007,
      "d": 569.2308166666626,
      "v": 55
    },
    {
      "midi": 51,
      "hit": false,
      "t": 108000.00900000006,
      "d": 223.07694166667352,
      "v": 46
    },
    {
      "midi": 55,
      "hit": false,
      "t": 108000.00900000006,
      "d": 223.07694166667352,
      "v": 71
    },
    {
      "midi": 46,
      "hit": false,
      "t": 108461.54750000007,
      "d": 546.1538916666614,
      "v": 30
    },
    {
      "midi": 55,
      "hit": false,
      "t": 108923.08600000007,
      "d": 138.4615499999927,
      "v": 58
    },
    {
      "midi": 58,
      "hit": false,
      "t": 108923.08600000007,
      "d": 138.4615499999927,
      "v": 63
    },
    {
      "midi": 46,
      "hit": false,
      "t": 109384.62450000006,
      "d": 576.9231250000012,
      "v": 14
    },
    {
      "midi": 63,
      "hit": false,
      "t": 109846.16300000006,
      "d": 569.2308166666771,
      "v": 71
    },
    {
      "midi": 58,
      "hit": false,
      "t": 109846.16300000006,
      "d": 607.692358333341,
      "v": 71
    },
    {
      "midi": 46,
      "hit": false,
      "t": 110307.70150000007,
      "d": 161.53847499999392,
      "v": 53
    },
    {
      "midi": 41,
      "hit": false,
      "t": 110769.24000000006,
      "d": 3846.1541666666308,
      "v": 55
    },
    {
      "midi": 48,
      "hit": false,
      "t": 111230.77850000006,
      "d": 676.92313333333,
      "v": 91
    },
    {
      "midi": 53,
      "hit": false,
      "t": 111692.31700000005,
      "d": 176.9230916666711,
      "v": 73
    },
    {
      "midi": 57,
      "hit": false,
      "t": 111692.31700000005,
      "d": 176.9230916666711,
      "v": 62
    },
    {
      "midi": 48,
      "hit": false,
      "t": 112153.85550000005,
      "d": 538.4615833333228,
      "v": 64
    },
    {
      "midi": 57,
      "hit": false,
      "t": 112615.39400000004,
      "d": 107.69231666666747,
      "v": 82
    },
    {
      "midi": 60,
      "hit": false,
      "t": 112615.39400000004,
      "d": 123.07693333333009,
      "v": 77
    },
    {
      "midi": 48,
      "hit": false,
      "t": 113076.93250000004,
      "d": 538.4615833333228,
      "v": 69
    },
    {
      "midi": 65,
      "hit": false,
      "t": 113538.47100000003,
      "d": 261.5384833333228,
      "v": 92
    },
    {
      "midi": 60,
      "hit": false,
      "t": 113538.47100000003,
      "d": 392.3077249999915,
      "v": 65
    },
    {
      "midi": 48,
      "hit": false,
      "t": 114000.00950000003,
      "d": 607.6923583333264,
      "v": 80
    },
    {
      "midi": 46,
      "hit": false,
      "t": 114461.54800000002,
      "d": 692.3077500000072,
      "v": 41
    },
    {
      "midi": 53,
      "hit": false,
      "t": 114923.08650000003,
      "d": 838.4616083333385,
      "v": 61
    },
    {
      "midi": 72,
      "hit": false,
      "t": 115384.62500000003,
      "d": 307.6923333333398,
      "v": 90
    },
    {
      "midi": 62,
      "hit": false,
      "t": 115384.62500000003,
      "d": 376.9231083333434,
      "v": 82
    },
    {
      "midi": 65,
      "hit": false,
      "t": 115384.62500000003,
      "d": 492.30773333334946,
      "v": 97
    },
    {
      "midi": 46,
      "hit": false,
      "t": 115384.62500000003,
      "d": 723.076983333347,
      "v": 8
    },
    {
      "midi": 53,
      "hit": false,
      "t": 116307.70200000005,
      "d": 523.0769666666602,
      "v": 72
    },
    {
      "midi": 65,
      "hit": false,
      "t": 116307.70200000005,
      "d": 569.2308166666626,
      "v": 83
    },
    {
      "midi": 70,
      "hit": false,
      "t": 116307.70200000005,
      "d": 576.9231250000012,
      "v": 59
    },
    {
      "midi": 62,
      "hit": false,
      "t": 116307.70200000005,
      "d": 615.384666666665,
      "v": 80
    },
    {
      "midi": 46,
      "hit": false,
      "t": 116769.24050000004,
      "d": 392.30772500000603,
      "v": 77
    },
    {
      "midi": 53,
      "hit": false,
      "t": 117230.77900000005,
      "d": 569.2308166666626,
      "v": 58
    },
    {
      "midi": 62,
      "hit": false,
      "t": 117230.77900000005,
      "d": 692.3077499999927,
      "v": 66
    },
    {
      "midi": 65,
      "hit": false,
      "t": 117230.77900000005,
      "d": 692.3077499999927,
      "v": 79
    },
    {
      "midi": 69,
      "hit": false,
      "t": 117230.77900000005,
      "d": 738.4615999999951,
      "v": 74
    },
    {
      "midi": 45,
      "hit": false,
      "t": 117692.31750000005,
      "d": 253.84617499999877,
      "v": 84
    },
    {
      "midi": 43,
      "hit": false,
      "t": 118153.85600000006,
      "d": 461.5384999999951,
      "v": 75
    },
    {
      "midi": 50,
      "hit": false,
      "t": 118615.39450000005,
      "d": 461.5384999999951,
      "v": 61
    },
    {
      "midi": 70,
      "hit": false,
      "t": 119076.93300000005,
      "d": 300.0000250000012,
      "v": 84
    },
    {
      "midi": 58,
      "hit": false,
      "t": 119076.93300000005,
      "d": 430.76926666666986,
      "v": 62
    },
    {
      "midi": 43,
      "hit": false,
      "t": 119076.93300000005,
      "d": 461.53850000000966,
      "v": 91
    },
    {
      "midi": 50,
      "hit": false,
      "t": 119538.47150000006,
      "d": 469.2308083333337,
      "v": 80
    },
    {
      "midi": 69,
      "hit": false,
      "t": 120000.01000000005,
      "d": 215.38463333333493,
      "v": 72
    },
    {
      "midi": 62,
      "hit": false,
      "t": 120000.01000000005,
      "d": 223.07694166667352,
      "v": 96
    },
    {
      "midi": 43,
      "hit": false,
      "t": 120000.01000000005,
      "d": 461.53850000000966,
      "v": 93
    },
    {
      "midi": 58,
      "hit": false,
      "t": 120000.01000000005,
      "d": 661.538516666682,
      "v": 53
    },
    {
      "midi": 50,
      "hit": false,
      "t": 120461.54850000006,
      "d": 484.6154250000109,
      "v": 75
    },
    {
      "midi": 62,
      "hit": false,
      "t": 120923.08700000007,
      "d": 376.92310833332886,
      "v": 78
    },
    {
      "midi": 41,
      "hit": false,
      "t": 120923.08700000007,
      "d": 453.8461916666565,
      "v": 82
    },
    {
      "midi": 58,
      "hit": false,
      "t": 120923.08700000007,
      "d": 738.4615999999951,
      "v": 41
    },
    {
      "midi": 67,
      "hit": false,
      "t": 120923.08700000007,
      "d": 753.8462166666577,
      "v": 83
    },
    {
      "midi": 50,
      "hit": false,
      "t": 121384.62550000007,
      "d": 138.4615499999927,
      "v": 72
    },
    {
      "midi": 39,
      "hit": false,
      "t": 121846.16400000006,
      "d": 461.53850000000966,
      "v": 62
    },
    {
      "midi": 46,
      "hit": false,
      "t": 122307.70250000007,
      "d": 500.00004166665894,
      "v": 55
    },
    {
      "midi": 51,
      "hit": false,
      "t": 122769.24100000007,
      "d": 261.53848333333735,
      "v": 78
    },
    {
      "midi": 55,
      "hit": false,
      "t": 122769.24100000007,
      "d": 369.2308000000048,
      "v": 69
    },
    {
      "midi": 39,
      "hit": false,
      "t": 122769.24100000007,
      "d": 469.23080833334825,
      "v": 62
    },
    {
      "midi": 46,
      "hit": false,
      "t": 123230.77950000008,
      "d": 546.1538916666759,
      "v": 59
    },
    {
      "midi": 55,
      "hit": false,
      "t": 123692.31800000009,
      "d": 184.61539999999513,
      "v": 70
    },
    {
      "midi": 58,
      "hit": false,
      "t": 123692.31800000009,
      "d": 315.3846416666638,
      "v": 60
    },
    {
      "midi": 39,
      "hit": false,
      "t": 123692.31800000009,
      "d": 453.8461916666711,
      "v": 57
    },
    {
      "midi": 46,
      "hit": false,
      "t": 124153.8565000001,
      "d": 500.00004166665894,
      "v": 53
    },
    {
      "midi": 39,
      "hit": false,
      "t": 124615.39500000009,
      "d": 430.76926666666986,
      "v": 60
    },
    {
      "midi": 58,
      "hit": false,
      "t": 124615.39500000009,
      "d": 653.8462083333434,
      "v": 55
    },
    {
      "midi": 63,
      "hit": false,
      "t": 124615.39500000009,
      "d": 692.3077500000072,
      "v": 49
    },
    {
      "midi": 55,
      "hit": false,
      "t": 124615.39500000009,
      "d": 715.3846750000084,
      "v": 58
    },
    {
      "midi": 46,
      "hit": false,
      "t": 125076.9335000001,
      "d": 115.38462500000605,
      "v": 67
    },
    {
      "midi": 41,
      "hit": false,
      "t": 125538.4720000001,
      "d": 576.9231250000012,
      "v": 81
    },
    {
      "midi": 48,
      "hit": false,
      "t": 126000.01050000009,
      "d": 546.1538916666759,
      "v": 36
    },
    {
      "midi": 53,
      "hit": false,
      "t": 126461.5490000001,
      "d": 292.3077166666626,
      "v": 86
    },
    {
      "midi": 57,
      "hit": false,
      "t": 126461.5490000001,
      "d": 315.3846416666638,
      "v": 75
    },
    {
      "midi": 41,
      "hit": false,
      "t": 126461.5490000001,
      "d": 2338.4617333333154,
      "v": 71
    },
    {
      "midi": 48,
      "hit": false,
      "t": 126923.0875000001,
      "d": 276.9231,
      "v": 34
    },
    {
      "midi": 60,
      "hit": false,
      "t": 127384.62600000009,
      "d": 423.0769583333313,
      "v": 76
    },
    {
      "midi": 57,
      "hit": false,
      "t": 127384.62600000009,
      "d": 484.6154249999963,
      "v": 92
    },
    {
      "midi": 48,
      "hit": false,
      "t": 127846.16450000009,
      "d": 300.0000250000012,
      "v": 56
    },
    {
      "midi": 65,
      "hit": false,
      "t": 128307.70300000008,
      "d": 523.0769666666747,
      "v": 81
    },
    {
      "midi": 57,
      "hit": false,
      "t": 128307.70300000008,
      "d": 561.5385083333385,
      "v": 70
    },
    {
      "midi": 60,
      "hit": false,
      "t": 128307.70300000008,
      "d": 569.2308166666771,
      "v": 70
    },
    {
      "midi": 48,
      "hit": false,
      "t": 128769.24150000008,
      "d": 146.15385833334585,
      "v": 62
    },
    {
      "midi": 46,
      "hit": false,
      "t": 129230.78000000009,
      "d": 607.6923583333264,
      "v": 73
    },
    {
      "midi": 53,
      "hit": false,
      "t": 129692.31850000008,
      "d": 569.2308166666626,
      "v": 69
    },
    {
      "midi": 62,
      "hit": false,
      "t": 130153.85700000008,
      "d": 184.61539999999513,
      "v": 87
    },
    {
      "midi": 72,
      "hit": false,
      "t": 130153.85700000008,
      "d": 192.30770833333372,
      "v": 99
    },
    {
      "midi": 65,
      "hit": false,
      "t": 130153.85700000008,
      "d": 215.38463333333493,
      "v": 96
    },
    {
      "midi": 46,
      "hit": false,
      "t": 130153.85700000008,
      "d": 430.76926666666986,
      "v": 79
    },
    {
      "midi": 62,
      "hit": false,
      "t": 130615.39550000009,
      "d": 223.07694166667352,
      "v": 80
    },
    {
      "midi": 65,
      "hit": false,
      "t": 130615.39550000009,
      "d": 223.07694166667352,
      "v": 80
    },
    {
      "midi": 70,
      "hit": false,
      "t": 130615.39550000009,
      "d": 230.7692500000121,
      "v": 75
    },
    {
      "midi": 53,
      "hit": false,
      "t": 130615.39550000009,
      "d": 430.7692666666844,
      "v": 68
    },
    {
      "midi": 46,
      "hit": false,
      "t": 131076.9340000001,
      "d": 523.0769666666747,
      "v": 94
    },
    {
      "midi": 70,
      "hit": false,
      "t": 131076.9340000001,
      "d": 530.7692749999987,
      "v": 86
    },
    {
      "midi": 65,
      "hit": false,
      "t": 131076.9340000001,
      "d": 576.9231250000012,
      "v": 103
    },
    {
      "midi": 62,
      "hit": false,
      "t": 131076.9340000001,
      "d": 723.0769833333325,
      "v": 96
    },
    {
      "midi": 53,
      "hit": false,
      "t": 131538.4725000001,
      "d": 392.3077249999915,
      "v": 65
    },
    {
      "midi": 45,
      "hit": false,
      "t": 132000.0110000001,
      "d": 500.0000416666735,
      "v": 76
    },
    {
      "midi": 69,
      "hit": false,
      "t": 132000.0110000001,
      "d": 600.0000500000024,
      "v": 85
    },
    {
      "midi": 62,
      "hit": false,
      "t": 132000.0110000001,
      "d": 615.3846666666504,
      "v": 84
    },
    {
      "midi": 65,
      "hit": false,
      "t": 132000.0110000001,
      "d": 653.8462083333288,
      "v": 93
    },
    {
      "midi": 53,
      "hit": false,
      "t": 132461.54950000008,
      "d": 146.1538583333313,
      "v": 75
    },
    {
      "midi": 43,
      "hit": false,
      "t": 132923.08800000008,
      "d": 492.30773333334946,
      "v": 74
    },
    {
      "midi": 50,
      "hit": false,
      "t": 133384.6265000001,
      "d": 546.1538916666759,
      "v": 67
    },
    {
      "midi": 58,
      "hit": false,
      "t": 133846.1650000001,
      "d": 200.00001666668686,
      "v": 63
    },
    {
      "midi": 70,
      "hit": false,
      "t": 133846.1650000001,
      "d": 223.07694166668807,
      "v": 84
    },
    {
      "midi": 43,
      "hit": false,
      "t": 133846.1650000001,
      "d": 446.15388333334704,
      "v": 93
    },
    {
      "midi": 69,
      "hit": false,
      "t": 134307.70350000012,
      "d": 138.46155000000726,
      "v": 59
    },
    {
      "midi": 58,
      "hit": false,
      "t": 134307.70350000012,
      "d": 161.53847500000848,
      "v": 63
    },
    {
      "midi": 62,
      "hit": false,
      "t": 134307.70350000012,
      "d": 176.92309166668565,
      "v": 88
    },
    {
      "midi": 50,
      "hit": false,
      "t": 134307.70350000012,
      "d": 446.15388333334704,
      "v": 75
    },
    {
      "midi": 43,
      "hit": false,
      "t": 134769.24200000014,
      "d": 484.6154249999963,
      "v": 84
    },
    {
      "midi": 69,
      "hit": false,
      "t": 134769.24200000014,
      "d": 484.6154249999963,
      "v": 75
    },
    {
      "midi": 58,
      "hit": false,
      "t": 134769.24200000014,
      "d": 846.1539166666626,
      "v": 55
    },
    {
      "midi": 50,
      "hit": false,
      "t": 135230.78050000014,
      "d": 500.0000416666444,
      "v": 94
    },
    {
      "midi": 62,
      "hit": false,
      "t": 135692.31900000013,
      "d": 30.769233333325246,
      "v": 84
    },
    {
      "midi": 41,
      "hit": false,
      "t": 135692.31900000013,
      "d": 500.0000416666735,
      "v": 94
    },
    {
      "midi": 58,
      "hit": false,
      "t": 135692.31900000013,
      "d": 584.6154333333543,
      "v": 22
    },
    {
      "midi": 67,
      "hit": false,
      "t": 135692.31900000013,
      "d": 600.0000500000315,
      "v": 95
    },
    {
      "midi": 50,
      "hit": false,
      "t": 136153.85750000013,
      "d": 138.46155000003637,
      "v": 88
    },
    {
      "midi": 39,
      "hit": false,
      "t": 136615.39600000018,
      "d": 584.6154333333252,
      "v": 64
    },
    {
      "midi": 46,
      "hit": false,
      "t": 137076.93450000018,
      "d": 538.4615833333228,
      "v": 63
    },
    {
      "midi": 51,
      "hit": false,
      "t": 137538.47300000017,
      "d": 215.38463333333493,
      "v": 80
    },
    {
      "midi": 55,
      "hit": false,
      "t": 137538.47300000017,
      "d": 230.7692500000121,
      "v": 54
    },
    {
      "midi": 39,
      "hit": false,
      "t": 137538.47300000017,
      "d": 492.30773333334946,
      "v": 82
    },
    {
      "midi": 46,
      "hit": false,
      "t": 138000.0115000002,
      "d": 507.69234999999753,
      "v": 57
    },
    {
      "midi": 55,
      "hit": false,
      "t": 138461.5500000002,
      "d": 215.38463333333493,
      "v": 63
    },
    {
      "midi": 58,
      "hit": false,
      "t": 138461.5500000002,
      "d": 376.9231083333434,
      "v": 84
    },
    {
      "midi": 39,
      "hit": false,
      "t": 138461.5500000002,
      "d": 484.6154250000254,
      "v": 59
    },
    {
      "midi": 46,
      "hit": false,
      "t": 138923.08850000022,
      "d": 546.1538916666759,
      "v": 51
    },
    {
      "midi": 39,
      "hit": false,
      "t": 139384.6270000002,
      "d": 430.76926666666986,
      "v": 45
    },
    {
      "midi": 55,
      "hit": false,
      "t": 139384.6270000002,
      "d": 715.3846749999793,
      "v": 61
    },
    {
      "midi": 58,
      "hit": false,
      "t": 139384.6270000002,
      "d": 715.3846749999793,
      "v": 62
    },
    {
      "midi": 63,
      "hit": false,
      "t": 139384.6270000002,
      "d": 723.0769833333034,
      "v": 80
    },
    {
      "midi": 46,
      "hit": false,
      "t": 139846.1655000002,
      "d": 153.84616666665534,
      "v": 40
    },
    {
      "midi": 41,
      "hit": false,
      "t": 140307.70400000017,
      "d": 500.0000416666735,
      "v": 73
    },
    {
      "midi": 48,
      "hit": false,
      "t": 140769.24250000017,
      "d": 584.6154333333543,
      "v": 82
    },
    {
      "midi": 53,
      "hit": false,
      "t": 141230.7810000002,
      "d": 107.69231666665291,
      "v": 84
    },
    {
      "midi": 57,
      "hit": false,
      "t": 141230.7810000002,
      "d": 138.46155000000726,
      "v": 83
    },
    {
      "midi": 41,
      "hit": false,
      "t": 141230.7810000002,
      "d": 561.538508333324,
      "v": 75
    },
    {
      "midi": 48,
      "hit": false,
      "t": 141692.3195000002,
      "d": 500.0000416666735,
      "v": 65
    },
    {
      "midi": 57,
      "hit": false,
      "t": 142153.85800000018,
      "d": 76.92308333335677,
      "v": 94
    },
    {
      "midi": 60,
      "hit": false,
      "t": 142153.85800000018,
      "d": 100.00000833335798,
      "v": 81
    },
    {
      "midi": 41,
      "hit": false,
      "t": 142153.85800000018,
      "d": 523.0769666667038,
      "v": 94
    },
    {
      "midi": 48,
      "hit": false,
      "t": 142615.3965000002,
      "d": 507.69234999999753,
      "v": 65
    },
    {
      "midi": 41,
      "hit": false,
      "t": 143076.9350000002,
      "d": 469.23080833331915,
      "v": 82
    },
    {
      "midi": 65,
      "hit": false,
      "t": 143076.9350000002,
      "d": 538.4615833333228,
      "v": 101
    },
    {
      "midi": 57,
      "hit": false,
      "t": 143076.9350000002,
      "d": 569.230816666648,
      "v": 70
    },
    {
      "midi": 60,
      "hit": false,
      "t": 143076.9350000002,
      "d": 576.9231249999721,
      "v": 82
    },
    {
      "midi": 48,
      "hit": false,
      "t": 143538.4735000002,
      "d": 123.07693333330099,
      "v": 92
    },
    {
      "midi": 39,
      "hit": false,
      "t": 144000.01200000016,
      "d": 530.7692749999987,
      "v": 55
    },
    {
      "midi": 46,
      "hit": false,
      "t": 144461.55050000016,
      "d": 538.4615833333228,
      "v": 48
    },
    {
      "midi": 51,
      "hit": false,
      "t": 144923.08900000015,
      "d": 230.769249999983,
      "v": 59
    },
    {
      "midi": 55,
      "hit": false,
      "t": 144923.08900000015,
      "d": 330.7692583333119,
      "v": 97
    },
    {
      "midi": 39,
      "hit": false,
      "t": 144923.08900000015,
      "d": 500.0000416666444,
      "v": 42
    },
    {
      "midi": 46,
      "hit": false,
      "t": 145384.62750000012,
      "d": 492.30773333334946,
      "v": 40
    },
    {
      "midi": 55,
      "hit": false,
      "t": 145846.16600000014,
      "d": 453.84619166664197,
      "v": 40
    },
    {
      "midi": 58,
      "hit": false,
      "t": 145846.16600000014,
      "d": 530.7692749999696,
      "v": 71
    },
    {
      "midi": 39,
      "hit": false,
      "t": 145846.16600000014,
      "d": 584.6154333332961,
      "v": 53
    },
    {
      "midi": 46,
      "hit": false,
      "t": 146307.7045000001,
      "d": 523.0769666666747,
      "v": 21
    },
    {
      "midi": 39,
      "hit": false,
      "t": 146769.2430000001,
      "d": 469.23080833334825,
      "v": 71
    },
    {
      "midi": 55,
      "hit": false,
      "t": 146769.2430000001,
      "d": 600.0000500000024,
      "v": 49
    },
    {
      "midi": 58,
      "hit": false,
      "t": 146769.2430000001,
      "d": 600.0000500000024,
      "v": 71
    },
    {
      "midi": 63,
      "hit": false,
      "t": 146769.2430000001,
      "d": 600.0000500000024,
      "v": 58
    },
    {
      "midi": 46,
      "hit": false,
      "t": 147230.78150000013,
      "d": 107.69231666665291,
      "v": 30
    },
    {
      "midi": 46,
      "hit": false,
      "t": 147692.3200000001,
      "d": 3930.769558333326,
      "v": 71
    },
    {
      "midi": 53,
      "hit": false,
      "t": 148153.8585000001,
      "d": 530.7692749999987,
      "v": 97
    },
    {
      "midi": 58,
      "hit": false,
      "t": 148615.39700000008,
      "d": 507.69234999999753,
      "v": 94
    },
    {
      "midi": 62,
      "hit": false,
      "t": 148615.39700000008,
      "d": 538.4615833333228,
      "v": 101
    },
    {
      "midi": 53,
      "hit": false,
      "t": 149076.93550000008,
      "d": 2561.538675000018,
      "v": 84
    },
    {
      "midi": 58,
      "hit": false,
      "t": 149538.47400000007,
      "d": 461.5384999999951,
      "v": 119
    },
    {
      "midi": 60,
      "hit": false,
      "t": 150000.01250000007,
      "d": 461.5384999999951,
      "v": 99
    },
    {
      "midi": 62,
      "hit": false,
      "t": 150461.55100000006,
      "d": 484.6154249999963,
      "v": 121
    },
    {
      "midi": 65,
      "hit": false,
      "t": 150923.08950000006,
      "d": 330.769258333341,
      "v": 109
    },
    {
      "midi": 49,
      "hit": false,
      "t": 151384.62800000008,
      "d": 1123.0770166667062,
      "v": 85
    },
    {
      "midi": 53,
      "hit": false,
      "t": 151846.1665000001,
      "d": 646.1539000000048,
      "v": 42
    },
    {
      "midi": 56,
      "hit": false,
      "t": 152307.7050000001,
      "d": 1253.8462583333603,
      "v": 86
    },
    {
      "midi": 61,
      "hit": false,
      "t": 152307.7050000001,
      "d": 1307.6924166666868,
      "v": 75
    },
    {
      "midi": 49,
      "hit": false,
      "t": 152769.24350000013,
      "d": 153.84616666665534,
      "v": 69
    },
    {
      "midi": 49,
      "hit": false,
      "t": 153230.78200000012,
      "d": 1469.2308916666661,
      "v": 71
    },
    {
      "midi": 53,
      "hit": false,
      "t": 153692.32050000012,
      "d": 1007.692391666671,
      "v": 69
    },
    {
      "midi": 65,
      "hit": false,
      "t": 154153.8590000001,
      "d": 715.3846750000084,
      "v": 96
    },
    {
      "midi": 61,
      "hit": false,
      "t": 154153.8590000001,
      "d": 753.8462166666868,
      "v": 75
    },
    {
      "midi": 48,
      "hit": false,
      "t": 155076.93600000013,
      "d": 1253.8462583333312,
      "v": 83
    },
    {
      "midi": 51,
      "hit": false,
      "t": 155538.47450000013,
      "d": 807.6923750000133,
      "v": 57
    },
    {
      "midi": 56,
      "hit": false,
      "t": 156000.01300000012,
      "d": 415.3846500000218,
      "v": 78
    },
    {
      "midi": 60,
      "hit": false,
      "t": 156000.01300000012,
      "d": 430.76926666669897,
      "v": 84
    },
    {
      "midi": 48,
      "hit": false,
      "t": 156461.55150000015,
      "d": 176.92309166665655,
      "v": 84
    },
    {
      "midi": 48,
      "hit": false,
      "t": 156923.09000000014,
      "d": 1346.153958333336,
      "v": 70
    },
    {
      "midi": 51,
      "hit": false,
      "t": 157384.62850000014,
      "d": 1061.5385499999975,
      "v": 62
    },
    {
      "midi": 63,
      "hit": false,
      "t": 157846.16700000013,
      "d": 676.92313333333,
      "v": 78
    },
    {
      "midi": 60,
      "hit": false,
      "t": 157846.16700000013,
      "d": 692.3077500000072,
      "v": 92
    },
    {
      "midi": 39,
      "hit": false,
      "t": 158769.24400000015,
      "d": 2869.2310083332995,
      "v": 65
    },
    {
      "midi": 46,
      "hit": false,
      "t": 159230.78250000015,
      "d": 561.538508333324,
      "v": 65
    },
    {
      "midi": 55,
      "hit": false,
      "t": 159692.32100000014,
      "d": 230.769249999983,
      "v": 59
    },
    {
      "midi": 51,
      "hit": false,
      "t": 159692.32100000014,
      "d": 238.46155833330704,
      "v": 79
    },
    {
      "midi": 46,
      "hit": false,
      "t": 160153.8595000001,
      "d": 546.1538916666759,
      "v": 78
    },
    {
      "midi": 55,
      "hit": false,
      "t": 160615.3980000001,
      "d": 192.30770833333372,
      "v": 88
    },
    {
      "midi": 58,
      "hit": false,
      "t": 160615.3980000001,
      "d": 253.84617500001332,
      "v": 84
    },
    {
      "midi": 46,
      "hit": false,
      "t": 161076.93650000013,
      "d": 615.3846666666504,
      "v": 77
    },
    {
      "midi": 63,
      "hit": false,
      "t": 161538.47500000012,
      "d": 584.6154333333252,
      "v": 84
    },
    {
      "midi": 55,
      "hit": false,
      "t": 161538.47500000012,
      "d": 600.0000500000024,
      "v": 97
    },
    {
      "midi": 58,
      "hit": false,
      "t": 161538.47500000012,
      "d": 600.0000500000024,
      "v": 92
    },
    {
      "midi": 46,
      "hit": false,
      "t": 162461.55200000014,
      "d": 3038.461791666632,
      "v": 78
    },
    {
      "midi": 53,
      "hit": false,
      "t": 162923.09050000014,
      "d": 569.230816666648,
      "v": 91
    },
    {
      "midi": 62,
      "hit": false,
      "t": 163384.62900000013,
      "d": 200.00001666665776,
      "v": 91
    },
    {
      "midi": 58,
      "hit": false,
      "t": 163384.62900000013,
      "d": 230.769249999983,
      "v": 91
    },
    {
      "midi": 53,
      "hit": false,
      "t": 163846.16750000013,
      "d": 1807.692458333302,
      "v": 95
    },
    {
      "midi": 58,
      "hit": false,
      "t": 164307.70600000012,
      "d": 407.69234166666865,
      "v": 112
    },
    {
      "midi": 60,
      "hit": false,
      "t": 164769.24450000012,
      "d": 392.3077249999915,
      "v": 93
    },
    {
      "midi": 62,
      "hit": false,
      "t": 165230.7830000001,
      "d": 492.30773333332036,
      "v": 109
    },
    {
      "midi": 65,
      "hit": false,
      "t": 165692.3215000001,
      "d": 315.3846416666638,
      "v": 109
    },
    {
      "midi": 41,
      "hit": false,
      "t": 166153.8600000001,
      "d": 3346.154125000001,
      "v": 95
    },
    {
      "midi": 48,
      "hit": false,
      "t": 166615.3985000001,
      "d": 600.0000500000024,
      "v": 76
    },
    {
      "midi": 53,
      "hit": false,
      "t": 167076.9370000001,
      "d": 446.15388333334704,
      "v": 103
    },
    {
      "midi": 56,
      "hit": false,
      "t": 167076.9370000001,
      "d": 546.153891666705,
      "v": 104
    },
    {
      "midi": 48,
      "hit": false,
      "t": 167538.47550000012,
      "d": 461.5385000000242,
      "v": 92
    },
    {
      "midi": 56,
      "hit": false,
      "t": 168000.01400000014,
      "d": 384.61541666666744,
      "v": 107
    },
    {
      "midi": 60,
      "hit": false,
      "t": 168000.01400000014,
      "d": 430.76926666666986,
      "v": 103
    },
    {
      "midi": 48,
      "hit": false,
      "t": 168461.55250000014,
      "d": 384.61541666666744,
      "v": 42
    },
    {
      "midi": 65,
      "hit": false,
      "t": 168923.09100000013,
      "d": 569.230816666648,
      "v": 106
    },
    {
      "midi": 60,
      "hit": false,
      "t": 168923.09100000013,
      "d": 607.6923583332973,
      "v": 101
    },
    {
      "midi": 48,
      "hit": false,
      "t": 169384.62950000013,
      "d": 153.84616666662623,
      "v": 43
    },
    {
      "midi": 49,
      "hit": false,
      "t": 169846.16800000006,
      "d": 1046.1539333333494,
      "v": 87
    },
    {
      "midi": 53,
      "hit": false,
      "t": 170307.7065000001,
      "d": 761.5385249999817,
      "v": 85
    },
    {
      "midi": 61,
      "hit": false,
      "t": 170769.24500000008,
      "d": 576.9231250000012,
      "v": 93
    },
    {
      "midi": 56,
      "hit": false,
      "t": 170769.24500000008,
      "d": 584.6154333333252,
      "v": 107
    },
    {
      "midi": 49,
      "hit": false,
      "t": 171230.78350000008,
      "d": 2038.4617083333142,
      "v": 67
    },
    {
      "midi": 56,
      "hit": false,
      "t": 171692.32200000007,
      "d": 292.3077166666626,
      "v": 106
    },
    {
      "midi": 61,
      "hit": false,
      "t": 171692.32200000007,
      "d": 346.15387499998906,
      "v": 106
    },
    {
      "midi": 53,
      "hit": false,
      "t": 172153.86050000007,
      "d": 1115.384708333324,
      "v": 85
    },
    {
      "midi": 65,
      "hit": false,
      "t": 172615.39900000006,
      "d": 723.0769833333325,
      "v": 108
    },
    {
      "midi": 61,
      "hit": false,
      "t": 172615.39900000006,
      "d": 730.7692916666565,
      "v": 122
    },
    {
      "midi": 42,
      "hit": false,
      "t": 173538.47600000005,
      "d": 3446.154133333359,
      "v": 81
    },
    {
      "midi": 49,
      "hit": false,
      "t": 174000.01450000005,
      "d": 546.1538916666759,
      "v": 65
    },
    {
      "midi": 54,
      "hit": false,
      "t": 174461.55300000004,
      "d": 338.4615666666941,
      "v": 97
    },
    {
      "midi": 58,
      "hit": false,
      "t": 174461.55300000004,
      "d": 423.07695833337493,
      "v": 95
    },
    {
      "midi": 49,
      "hit": false,
      "t": 174923.0915000001,
      "d": 453.8461916666711,
      "v": 51
    },
    {
      "midi": 58,
      "hit": false,
      "t": 175384.6300000001,
      "d": 369.23079999999027,
      "v": 119
    },
    {
      "midi": 61,
      "hit": false,
      "t": 175384.6300000001,
      "d": 392.3077249999915,
      "v": 99
    },
    {
      "midi": 49,
      "hit": false,
      "t": 175846.1685000001,
      "d": 415.3846499999927,
      "v": 61
    },
    {
      "midi": 66,
      "hit": false,
      "t": 176307.70700000008,
      "d": 692.3077500000072,
      "v": 60
    },
    {
      "midi": 61,
      "hit": false,
      "t": 176307.70700000008,
      "d": 723.0769833333325,
      "v": 106
    },
    {
      "midi": 49,
      "hit": false,
      "t": 176769.24550000008,
      "d": 215.38463333333493,
      "v": 83
    },
    {
      "midi": 39,
      "hit": false,
      "t": 177230.78400000007,
      "d": 1138.4616333333252,
      "v": 84
    },
    {
      "midi": 46,
      "hit": false,
      "t": 177692.32250000007,
      "d": 692.3077500000072,
      "v": 94
    },
    {
      "midi": 55,
      "hit": false,
      "t": 178153.86100000006,
      "d": 915.3846916666662,
      "v": 108
    },
    {
      "midi": 58,
      "hit": false,
      "t": 178153.86100000006,
      "d": 923.0769999999902,
      "v": 122
    },
    {
      "midi": 63,
      "hit": false,
      "t": 178153.86100000006,
      "d": 930.7693083333143,
      "v": 112
    },
    {
      "midi": 41,
      "hit": false,
      "t": 179076.93800000005,
      "d": 1876.9232333333057,
      "v": 80
    },
    {
      "midi": 48,
      "hit": false,
      "t": 179538.47650000005,
      "d": 1423.0770416666346,
      "v": 78
    },
    {
      "midi": 57,
      "hit": false,
      "t": 180000.01500000004,
      "d": 876.9231499999878,
      "v": 121
    },
    {
      "midi": 60,
      "hit": false,
      "t": 180000.01500000004,
      "d": 884.6154583333118,
      "v": 116
    },
    {
      "midi": 65,
      "hit": false,
      "t": 180000.01500000004,
      "d": 884.6154583333118,
      "v": 117
    },
    {
      "midi": 46,
      "hit": false,
      "t": 180923.09200000003,
      "d": 692.3077500000072,
      "v": 41
    },
    {
      "midi": 53,
      "hit": false,
      "t": 181384.63050000003,
      "d": 838.4616083333676,
      "v": 61
    },
    {
      "midi": 72,
      "hit": false,
      "t": 181846.16900000005,
      "d": 307.6923333333398,
      "v": 90
    },
    {
      "midi": 62,
      "hit": false,
      "t": 181846.16900000005,
      "d": 376.9231083333434,
      "v": 82
    },
    {
      "midi": 65,
      "hit": false,
      "t": 181846.16900000005,
      "d": 492.30773333334946,
      "v": 97
    },
    {
      "midi": 46,
      "hit": false,
      "t": 181846.16900000005,
      "d": 723.0769833333616,
      "v": 8
    },
    {
      "midi": 53,
      "hit": false,
      "t": 182769.24600000007,
      "d": 523.0769666666747,
      "v": 72
    },
    {
      "midi": 65,
      "hit": false,
      "t": 182769.24600000007,
      "d": 569.2308166666771,
      "v": 83
    },
    {
      "midi": 70,
      "hit": false,
      "t": 182769.24600000007,
      "d": 576.9231250000012,
      "v": 59
    },
    {
      "midi": 62,
      "hit": false,
      "t": 182769.24600000007,
      "d": 615.3846666666795,
      "v": 80
    },
    {
      "midi": 46,
      "hit": false,
      "t": 183230.78450000007,
      "d": 392.3077250000206,
      "v": 77
    },
    {
      "midi": 53,
      "hit": false,
      "t": 183692.3230000001,
      "d": 569.230816666648,
      "v": 58
    },
    {
      "midi": 62,
      "hit": false,
      "t": 183692.3230000001,
      "d": 692.3077499999781,
      "v": 66
    },
    {
      "midi": 65,
      "hit": false,
      "t": 183692.3230000001,
      "d": 692.3077499999781,
      "v": 79
    },
    {
      "midi": 69,
      "hit": false,
      "t": 183692.3230000001,
      "d": 738.4615999999805,
      "v": 74
    },
    {
      "midi": 45,
      "hit": false,
      "t": 184153.8615000001,
      "d": 253.8461749999842,
      "v": 84
    },
    {
      "midi": 43,
      "hit": false,
      "t": 184615.40000000008,
      "d": 461.5384999999951,
      "v": 75
    },
    {
      "midi": 50,
      "hit": false,
      "t": 185076.93850000008,
      "d": 461.5384999999951,
      "v": 61
    },
    {
      "midi": 70,
      "hit": false,
      "t": 185538.47700000007,
      "d": 300.00002499998664,
      "v": 84
    },
    {
      "midi": 58,
      "hit": false,
      "t": 185538.47700000007,
      "d": 430.76926666664076,
      "v": 62
    },
    {
      "midi": 43,
      "hit": false,
      "t": 185538.47700000007,
      "d": 461.538499999966,
      "v": 91
    },
    {
      "midi": 50,
      "hit": false,
      "t": 186000.01550000004,
      "d": 469.23080833331915,
      "v": 80
    },
    {
      "midi": 69,
      "hit": false,
      "t": 186461.55400000003,
      "d": 215.38463333333493,
      "v": 72
    },
    {
      "midi": 62,
      "hit": false,
      "t": 186461.55400000003,
      "d": 223.07694166665897,
      "v": 96
    },
    {
      "midi": 43,
      "hit": false,
      "t": 186461.55400000003,
      "d": 461.5384999999951,
      "v": 93
    },
    {
      "midi": 58,
      "hit": false,
      "t": 186461.55400000003,
      "d": 661.5385166666529,
      "v": 53
    },
    {
      "midi": 50,
      "hit": false,
      "t": 186923.09250000003,
      "d": 484.6154249999963,
      "v": 75
    },
    {
      "midi": 62,
      "hit": false,
      "t": 187384.63100000002,
      "d": 376.9231083333434,
      "v": 78
    },
    {
      "midi": 41,
      "hit": false,
      "t": 187384.63100000002,
      "d": 453.8461916666711,
      "v": 82
    },
    {
      "midi": 58,
      "hit": false,
      "t": 187384.63100000002,
      "d": 738.4616000000096,
      "v": 41
    },
    {
      "midi": 67,
      "hit": false,
      "t": 187384.63100000002,
      "d": 753.8462166666868,
      "v": 83
    },
    {
      "midi": 50,
      "hit": false,
      "t": 187846.16950000002,
      "d": 138.46155000000726,
      "v": 72
    },
    {
      "midi": 39,
      "hit": false,
      "t": 188307.70800000004,
      "d": 461.5384999999951,
      "v": 62
    },
    {
      "midi": 46,
      "hit": false,
      "t": 188769.24650000004,
      "d": 500.0000416666735,
      "v": 55
    },
    {
      "midi": 51,
      "hit": false,
      "t": 189230.78500000003,
      "d": 261.53848333333735,
      "v": 78
    },
    {
      "midi": 55,
      "hit": false,
      "t": 189230.78500000003,
      "d": 369.23079999999027,
      "v": 69
    },
    {
      "midi": 39,
      "hit": false,
      "t": 189230.78500000003,
      "d": 469.23080833331915,
      "v": 62
    },
    {
      "midi": 46,
      "hit": false,
      "t": 189692.32350000003,
      "d": 546.1538916666759,
      "v": 59
    },
    {
      "midi": 55,
      "hit": false,
      "t": 190153.86200000002,
      "d": 184.61540000000969,
      "v": 70
    },
    {
      "midi": 58,
      "hit": false,
      "t": 190153.86200000002,
      "d": 315.3846416666638,
      "v": 60
    },
    {
      "midi": 39,
      "hit": false,
      "t": 190153.86200000002,
      "d": 453.8461916666711,
      "v": 57
    },
    {
      "midi": 46,
      "hit": false,
      "t": 190615.40050000002,
      "d": 500.0000416666735,
      "v": 53
    },
    {
      "midi": 39,
      "hit": false,
      "t": 191076.939,
      "d": 430.76926666666986,
      "v": 60
    },
    {
      "midi": 58,
      "hit": false,
      "t": 191076.939,
      "d": 653.8462083333288,
      "v": 55
    },
    {
      "midi": 63,
      "hit": false,
      "t": 191076.939,
      "d": 692.3077500000072,
      "v": 49
    },
    {
      "midi": 55,
      "hit": false,
      "t": 191076.939,
      "d": 715.3846750000084,
      "v": 58
    },
    {
      "midi": 46,
      "hit": false,
      "t": 191538.4775,
      "d": 115.38462500000605,
      "v": 67
    },
    {
      "midi": 41,
      "hit": false,
      "t": 192000.01600000003,
      "d": 1500.0001250000205,
      "v": 71
    },
    {
      "midi": 48,
      "hit": false,
      "t": 192461.55450000006,
      "d": 1200.0000999999756,
      "v": 77
    },
    {
      "midi": 53,
      "hit": false,
      "t": 192923.09300000005,
      "d": 700.0000583333313,
      "v": 99
    },
    {
      "midi": 57,
      "hit": false,
      "t": 192923.09300000005,
      "d": 730.7692916666565,
      "v": 94
    },
    {
      "midi": 41,
      "hit": false,
      "t": 193846.17000000004,
      "d": 1792.307841666654,
      "v": 73
    },
    {
      "midi": 48,
      "hit": false,
      "t": 194307.70850000004,
      "d": 1307.6924166666577,
      "v": 94
    },
    {
      "midi": 57,
      "hit": false,
      "t": 194769.24700000003,
      "d": 853.8462249999866,
      "v": 103
    },
    {
      "midi": 60,
      "hit": false,
      "t": 194769.24700000003,
      "d": 869.2308416666638,
      "v": 101
    },
    {
      "midi": 73,
      "hit": false,
      "t": 196615.401,
      "d": 307.6923333333398,
      "v": 90
    },
    {
      "midi": 63,
      "hit": false,
      "t": 196615.401,
      "d": 376.9231083333434,
      "v": 82
    },
    {
      "midi": 66,
      "hit": false,
      "t": 196615.401,
      "d": 492.30773333334946,
      "v": 97
    },
    {
      "midi": 47,
      "hit": false,
      "t": 196615.401,
      "d": 723.0769833333616,
      "v": 8
    },
    {
      "midi": 54,
      "hit": false,
      "t": 197538.47800000003,
      "d": 523.0769666666747,
      "v": 72
    },
    {
      "midi": 66,
      "hit": false,
      "t": 197538.47800000003,
      "d": 569.2308166666771,
      "v": 83
    },
    {
      "midi": 71,
      "hit": false,
      "t": 197538.47800000003,
      "d": 576.9231250000012,
      "v": 59
    },
    {
      "midi": 63,
      "hit": false,
      "t": 197538.47800000003,
      "d": 615.3846666666795,
      "v": 80
    },
    {
      "midi": 47,
      "hit": false,
      "t": 198000.01650000003,
      "d": 392.3077250000206,
      "v": 77
    },
    {
      "midi": 54,
      "hit": false,
      "t": 198461.55500000005,
      "d": 569.230816666648,
      "v": 58
    },
    {
      "midi": 63,
      "hit": false,
      "t": 198461.55500000005,
      "d": 692.3077499999781,
      "v": 66
    },
    {
      "midi": 66,
      "hit": false,
      "t": 198461.55500000005,
      "d": 692.3077499999781,
      "v": 79
    },
    {
      "midi": 70,
      "hit": false,
      "t": 198461.55500000005,
      "d": 738.4615999999805,
      "v": 74
    },
    {
      "midi": 46,
      "hit": false,
      "t": 198923.09350000005,
      "d": 253.8461749999842,
      "v": 84
    },
    {
      "midi": 44,
      "hit": false,
      "t": 199384.63200000004,
      "d": 461.5384999999951,
      "v": 75
    },
    {
      "midi": 51,
      "hit": false,
      "t": 199846.17050000004,
      "d": 461.5384999999951,
      "v": 61
    },
    {
      "midi": 71,
      "hit": false,
      "t": 200307.70900000003,
      "d": 300.00002499998664,
      "v": 84
    },
    {
      "midi": 59,
      "hit": false,
      "t": 200307.70900000003,
      "d": 430.76926666664076,
      "v": 62
    },
    {
      "midi": 44,
      "hit": false,
      "t": 200307.70900000003,
      "d": 461.538499999966,
      "v": 91
    },
    {
      "midi": 51,
      "hit": false,
      "t": 200769.2475,
      "d": 469.23080833331915,
      "v": 80
    },
    {
      "midi": 70,
      "hit": false,
      "t": 201230.786,
      "d": 215.38463333333493,
      "v": 72
    },
    {
      "midi": 63,
      "hit": false,
      "t": 201230.786,
      "d": 223.07694166665897,
      "v": 96
    },
    {
      "midi": 44,
      "hit": false,
      "t": 201230.786,
      "d": 461.5384999999951,
      "v": 93
    },
    {
      "midi": 59,
      "hit": false,
      "t": 201230.786,
      "d": 661.5385166666529,
      "v": 53
    },
    {
      "midi": 51,
      "hit": false,
      "t": 201692.3245,
      "d": 484.6154249999963,
      "v": 75
    },
    {
      "midi": 63,
      "hit": false,
      "t": 202153.86299999998,
      "d": 376.9231083333434,
      "v": 78
    },
    {
      "midi": 42,
      "hit": false,
      "t": 202153.86299999998,
      "d": 453.8461916666711,
      "v": 82
    },
    {
      "midi": 59,
      "hit": false,
      "t": 202153.86299999998,
      "d": 738.4616000000096,
      "v": 41
    },
    {
      "midi": 68,
      "hit": false,
      "t": 202153.86299999998,
      "d": 753.8462166666868,
      "v": 83
    },
    {
      "midi": 51,
      "hit": false,
      "t": 202615.40149999998,
      "d": 138.46155000000726,
      "v": 72
    },
    {
      "midi": 40,
      "hit": false,
      "t": 203076.94,
      "d": 461.5384999999951,
      "v": 62
    },
    {
      "midi": 47,
      "hit": false,
      "t": 203538.4785,
      "d": 500.0000416666735,
      "v": 55
    },
    {
      "midi": 52,
      "hit": false,
      "t": 204000.017,
      "d": 261.53848333333735,
      "v": 78
    },
    {
      "midi": 56,
      "hit": false,
      "t": 204000.017,
      "d": 369.23079999999027,
      "v": 69
    },
    {
      "midi": 40,
      "hit": false,
      "t": 204000.017,
      "d": 469.23080833331915,
      "v": 62
    },
    {
      "midi": 47,
      "hit": false,
      "t": 204461.5555,
      "d": 546.1538916666759,
      "v": 59
    },
    {
      "midi": 56,
      "hit": false,
      "t": 204923.09399999998,
      "d": 184.61540000000969,
      "v": 70
    },
    {
      "midi": 59,
      "hit": false,
      "t": 204923.09399999998,
      "d": 315.3846416666638,
      "v": 60
    },
    {
      "midi": 40,
      "hit": false,
      "t": 204923.09399999998,
      "d": 453.8461916666711,
      "v": 57
    },
    {
      "midi": 47,
      "hit": false,
      "t": 205384.63249999998,
      "d": 500.0000416666735,
      "v": 53
    },
    {
      "midi": 40,
      "hit": false,
      "t": 205846.17099999997,
      "d": 430.76926666666986,
      "v": 60
    },
    {
      "midi": 59,
      "hit": false,
      "t": 205846.17099999997,
      "d": 653.8462083333288,
      "v": 55
    },
    {
      "midi": 64,
      "hit": false,
      "t": 205846.17099999997,
      "d": 692.3077500000072,
      "v": 49
    },
    {
      "midi": 56,
      "hit": false,
      "t": 205846.17099999997,
      "d": 715.3846750000084,
      "v": 58
    },
    {
      "midi": 47,
      "hit": false,
      "t": 206307.70949999997,
      "d": 115.38462500000605,
      "v": 67
    },
    {
      "midi": 42,
      "hit": false,
      "t": 206769.248,
      "d": 576.9231250000012,
      "v": 81
    },
    {
      "midi": 49,
      "hit": false,
      "t": 207230.7865,
      "d": 546.1538916666759,
      "v": 36
    },
    {
      "midi": 54,
      "hit": false,
      "t": 207692.32499999998,
      "d": 292.3077166666917,
      "v": 86
    },
    {
      "midi": 58,
      "hit": false,
      "t": 207692.32499999998,
      "d": 315.3846416666929,
      "v": 75
    },
    {
      "midi": 42,
      "hit": false,
      "t": 207692.32499999998,
      "d": 2338.461733333388,
      "v": 71
    },
    {
      "midi": 49,
      "hit": false,
      "t": 208153.8635,
      "d": 276.9230999999854,
      "v": 34
    },
    {
      "midi": 61,
      "hit": false,
      "t": 208615.402,
      "d": 423.07695833334583,
      "v": 76
    },
    {
      "midi": 58,
      "hit": false,
      "t": 208615.402,
      "d": 484.6154250000254,
      "v": 92
    },
    {
      "midi": 49,
      "hit": false,
      "t": 209076.94050000003,
      "d": 300.00002500001574,
      "v": 56
    },
    {
      "midi": 66,
      "hit": false,
      "t": 209538.47900000005,
      "d": 523.0769666666456,
      "v": 81
    },
    {
      "midi": 58,
      "hit": false,
      "t": 209538.47900000005,
      "d": 561.538508333324,
      "v": 70
    },
    {
      "midi": 61,
      "hit": false,
      "t": 209538.47900000005,
      "d": 569.230816666648,
      "v": 70
    },
    {
      "midi": 49,
      "hit": false,
      "t": 210000.01750000005,
      "d": 146.1538583333313,
      "v": 62
    },
    {
      "midi": 47,
      "hit": false,
      "t": 210461.55600000004,
      "d": 607.6923583333555,
      "v": 73
    },
    {
      "midi": 54,
      "hit": false,
      "t": 210923.09450000006,
      "d": 569.230816666648,
      "v": 69
    },
    {
      "midi": 63,
      "hit": false,
      "t": 211384.63300000006,
      "d": 184.61539999998058,
      "v": 87
    },
    {
      "midi": 73,
      "hit": false,
      "t": 211384.63300000006,
      "d": 192.30770833330462,
      "v": 99
    },
    {
      "midi": 66,
      "hit": false,
      "t": 211384.63300000006,
      "d": 215.38463333330583,
      "v": 96
    },
    {
      "midi": 47,
      "hit": false,
      "t": 211384.63300000006,
      "d": 430.76926666664076,
      "v": 79
    },
    {
      "midi": 63,
      "hit": false,
      "t": 211846.17150000003,
      "d": 223.07694166665897,
      "v": 80
    },
    {
      "midi": 66,
      "hit": false,
      "t": 211846.17150000003,
      "d": 223.07694166665897,
      "v": 80
    },
    {
      "midi": 71,
      "hit": false,
      "t": 211846.17150000003,
      "d": 230.769249999983,
      "v": 75
    },
    {
      "midi": 54,
      "hit": false,
      "t": 211846.17150000003,
      "d": 430.76926666664076,
      "v": 68
    },
    {
      "midi": 47,
      "hit": false,
      "t": 212307.71,
      "d": 523.0769666666747,
      "v": 94
    },
    {
      "midi": 71,
      "hit": false,
      "t": 212307.71,
      "d": 530.7692749999987,
      "v": 86
    },
    {
      "midi": 66,
      "hit": false,
      "t": 212307.71,
      "d": 576.9231250000012,
      "v": 103
    },
    {
      "midi": 63,
      "hit": false,
      "t": 212307.71,
      "d": 723.0769833333325,
      "v": 96
    },
    {
      "midi": 54,
      "hit": false,
      "t": 212769.2485,
      "d": 392.3077249999915,
      "v": 65
    },
    {
      "midi": 46,
      "hit": false,
      "t": 213230.78699999998,
      "d": 500.0000416666735,
      "v": 76
    },
    {
      "midi": 70,
      "hit": false,
      "t": 213230.78699999998,
      "d": 600.0000500000024,
      "v": 85
    },
    {
      "midi": 63,
      "hit": false,
      "t": 213230.78699999998,
      "d": 615.3846666666504,
      "v": 84
    },
    {
      "midi": 66,
      "hit": false,
      "t": 213230.78699999998,
      "d": 653.8462083333288,
      "v": 93
    },
    {
      "midi": 54,
      "hit": false,
      "t": 213692.32549999998,
      "d": 146.1538583333313,
      "v": 75
    },
    {
      "midi": 44,
      "hit": false,
      "t": 214153.86399999997,
      "d": 492.30773333334946,
      "v": 74
    },
    {
      "midi": 51,
      "hit": false,
      "t": 214615.4025,
      "d": 546.1538916666759,
      "v": 67
    },
    {
      "midi": 59,
      "hit": false,
      "t": 215076.941,
      "d": 200.00001666668686,
      "v": 63
    },
    {
      "midi": 71,
      "hit": false,
      "t": 215076.941,
      "d": 223.07694166668807,
      "v": 84
    },
    {
      "midi": 44,
      "hit": false,
      "t": 215076.941,
      "d": 446.15388333334704,
      "v": 93
    },
    {
      "midi": 70,
      "hit": false,
      "t": 215538.47950000002,
      "d": 138.46155000000726,
      "v": 59
    },
    {
      "midi": 59,
      "hit": false,
      "t": 215538.47950000002,
      "d": 161.53847500000848,
      "v": 63
    },
    {
      "midi": 63,
      "hit": false,
      "t": 215538.47950000002,
      "d": 176.92309166668565,
      "v": 88
    },
    {
      "midi": 51,
      "hit": false,
      "t": 215538.47950000002,
      "d": 446.15388333334704,
      "v": 75
    },
    {
      "midi": 44,
      "hit": false,
      "t": 216000.01800000004,
      "d": 484.6154249999963,
      "v": 84
    },
    {
      "midi": 70,
      "hit": false,
      "t": 216000.01800000004,
      "d": 484.6154249999963,
      "v": 75
    },
    {
      "midi": 59,
      "hit": false,
      "t": 216000.01800000004,
      "d": 846.1539166666626,
      "v": 55
    },
    {
      "midi": 51,
      "hit": false,
      "t": 216461.55650000004,
      "d": 500.0000416666444,
      "v": 94
    },
    {
      "midi": 63,
      "hit": false,
      "t": 216923.09500000003,
      "d": 30.769233333325246,
      "v": 84
    },
    {
      "midi": 42,
      "hit": false,
      "t": 216923.09500000003,
      "d": 500.0000416666735,
      "v": 94
    },
    {
      "midi": 59,
      "hit": false,
      "t": 216923.09500000003,
      "d": 584.6154333333543,
      "v": 22
    },
    {
      "midi": 68,
      "hit": false,
      "t": 216923.09500000003,
      "d": 600.0000500000315,
      "v": 95
    },
    {
      "midi": 51,
      "hit": false,
      "t": 217384.63350000003,
      "d": 138.46155000003637,
      "v": 88
    },
    {
      "midi": 40,
      "hit": false,
      "t": 217846.17200000008,
      "d": 584.6154333333252,
      "v": 64
    },
    {
      "midi": 47,
      "hit": false,
      "t": 218307.71050000007,
      "d": 538.4615833333228,
      "v": 63
    },
    {
      "midi": 52,
      "hit": false,
      "t": 218769.24900000007,
      "d": 215.38463333333493,
      "v": 80
    },
    {
      "midi": 56,
      "hit": false,
      "t": 218769.24900000007,
      "d": 230.7692500000121,
      "v": 54
    },
    {
      "midi": 40,
      "hit": false,
      "t": 218769.24900000007,
      "d": 492.30773333334946,
      "v": 82
    },
    {
      "midi": 47,
      "hit": false,
      "t": 219230.7875000001,
      "d": 507.69234999999753,
      "v": 57
    },
    {
      "midi": 56,
      "hit": false,
      "t": 219692.3260000001,
      "d": 215.38463333333493,
      "v": 63
    },
    {
      "midi": 59,
      "hit": false,
      "t": 219692.3260000001,
      "d": 376.9231083333434,
      "v": 84
    },
    {
      "midi": 40,
      "hit": false,
      "t": 219692.3260000001,
      "d": 484.6154250000254,
      "v": 59
    },
    {
      "midi": 47,
      "hit": false,
      "t": 220153.8645000001,
      "d": 546.1538916666759,
      "v": 51
    },
    {
      "midi": 40,
      "hit": false,
      "t": 220615.4030000001,
      "d": 430.76926666666986,
      "v": 45
    },
    {
      "midi": 56,
      "hit": false,
      "t": 220615.4030000001,
      "d": 715.3846749999793,
      "v": 61
    },
    {
      "midi": 59,
      "hit": false,
      "t": 220615.4030000001,
      "d": 715.3846749999793,
      "v": 62
    },
    {
      "midi": 64,
      "hit": false,
      "t": 220615.4030000001,
      "d": 723.0769833333034,
      "v": 80
    },
    {
      "midi": 47,
      "hit": false,
      "t": 221076.9415000001,
      "d": 153.84616666665534,
      "v": 40
    },
    {
      "midi": 42,
      "hit": false,
      "t": 221538.48000000007,
      "d": 500.0000416666735,
      "v": 73
    },
    {
      "midi": 49,
      "hit": false,
      "t": 222000.01850000006,
      "d": 584.6154333333543,
      "v": 82
    },
    {
      "midi": 54,
      "hit": false,
      "t": 222461.5570000001,
      "d": 107.69231666665291,
      "v": 84
    },
    {
      "midi": 58,
      "hit": false,
      "t": 222461.5570000001,
      "d": 138.46155000000726,
      "v": 83
    },
    {
      "midi": 42,
      "hit": false,
      "t": 222461.5570000001,
      "d": 561.538508333324,
      "v": 75
    },
    {
      "midi": 49,
      "hit": false,
      "t": 222923.09550000008,
      "d": 500.0000416666735,
      "v": 65
    },
    {
      "midi": 58,
      "hit": false,
      "t": 223384.63400000008,
      "d": 76.92308333335677,
      "v": 94
    },
    {
      "midi": 61,
      "hit": false,
      "t": 223384.63400000008,
      "d": 100.00000833335798,
      "v": 81
    },
    {
      "midi": 42,
      "hit": false,
      "t": 223384.63400000008,
      "d": 523.0769666667038,
      "v": 94
    },
    {
      "midi": 49,
      "hit": false,
      "t": 223846.1725000001,
      "d": 507.69234999999753,
      "v": 65
    },
    {
      "midi": 42,
      "hit": false,
      "t": 224307.7110000001,
      "d": 469.23080833331915,
      "v": 82
    },
    {
      "midi": 66,
      "hit": false,
      "t": 224307.7110000001,
      "d": 538.4615833333228,
      "v": 101
    },
    {
      "midi": 58,
      "hit": false,
      "t": 224307.7110000001,
      "d": 569.230816666648,
      "v": 70
    },
    {
      "midi": 61,
      "hit": false,
      "t": 224307.7110000001,
      "d": 576.9231249999721,
      "v": 82
    },
    {
      "midi": 49,
      "hit": false,
      "t": 224769.2495000001,
      "d": 123.07693333330099,
      "v": 92
    },
    {
      "midi": 40,
      "hit": false,
      "t": 225230.78800000006,
      "d": 3200.0002666666405,
      "v": 76
    },
    {
      "midi": 47,
      "hit": false,
      "t": 225692.32650000005,
      "d": 684.6154416666541,
      "v": 65
    },
    {
      "midi": 52,
      "hit": false,
      "t": 226153.86500000005,
      "d": 346.15387499998906,
      "v": 100
    },
    {
      "midi": 56,
      "hit": false,
      "t": 226153.86500000005,
      "d": 384.61541666666744,
      "v": 95
    },
    {
      "midi": 47,
      "hit": false,
      "t": 226615.40350000004,
      "d": 653.8462083333288,
      "v": 69
    },
    {
      "midi": 56,
      "hit": false,
      "t": 227076.94200000004,
      "d": 369.23079999999027,
      "v": 79
    },
    {
      "midi": 59,
      "hit": false,
      "t": 227076.94200000004,
      "d": 492.30773333332036,
      "v": 84
    },
    {
      "midi": 47,
      "hit": false,
      "t": 227538.48050000003,
      "d": 1000.0000833333179,
      "v": 52
    },
    {
      "midi": 64,
      "hit": false,
      "t": 228000.01900000003,
      "d": 507.69234999999753,
      "v": 103
    },
    {
      "midi": 59,
      "hit": false,
      "t": 228000.01900000003,
      "d": 538.4615833333228,
      "v": 100
    },
    {
      "midi": 47,
      "hit": false,
      "t": 228923.09600000002,
      "d": 1100.0000916666759,
      "v": 91
    },
    {
      "midi": 51,
      "hit": false,
      "t": 229384.63450000004,
      "d": 692.3077499999781,
      "v": 63
    },
    {
      "midi": 54,
      "hit": false,
      "t": 229846.17300000004,
      "d": 1376.9231916666613,
      "v": 88
    },
    {
      "midi": 59,
      "hit": false,
      "t": 229846.17300000004,
      "d": 1461.538583333313,
      "v": 74
    },
    {
      "midi": 47,
      "hit": false,
      "t": 230307.71150000003,
      "d": 138.46155000000726,
      "v": 101
    },
    {
      "midi": 47,
      "hit": false,
      "t": 230769.25000000003,
      "d": 1423.0770416666637,
      "v": 84
    },
    {
      "midi": 51,
      "hit": false,
      "t": 231230.78850000002,
      "d": 969.2308499999926,
      "v": 67
    },
    {
      "midi": 63,
      "hit": false,
      "t": 231692.32700000002,
      "d": 584.6154333333252,
      "v": 69
    },
    {
      "midi": 59,
      "hit": false,
      "t": 231692.32700000002,
      "d": 600.0000500000024,
      "v": 98
    },
    {
      "midi": 40,
      "hit": false,
      "t": 232615.40400000004,
      "d": 6730.769791666622,
      "v": 70
    },
    {
      "midi": 47,
      "hit": false,
      "t": 233076.94250000003,
      "d": 569.230816666648,
      "v": 61
    },
    {
      "midi": 52,
      "hit": false,
      "t": 233538.48100000003,
      "d": 384.61541666666744,
      "v": 92
    },
    {
      "midi": 56,
      "hit": false,
      "t": 233538.48100000003,
      "d": 392.3077249999915,
      "v": 68
    },
    {
      "midi": 47,
      "hit": false,
      "t": 234000.01950000002,
      "d": 453.8461916666711,
      "v": 68
    },
    {
      "midi": 56,
      "hit": false,
      "t": 234461.55800000002,
      "d": 300.00002499998664,
      "v": 82
    },
    {
      "midi": 59,
      "hit": false,
      "t": 234461.55800000002,
      "d": 384.61541666666744,
      "v": 89
    },
    {
      "midi": 47,
      "hit": false,
      "t": 234923.0965,
      "d": 261.53848333333735,
      "v": 62
    },
    {
      "midi": 59,
      "hit": false,
      "t": 235384.635,
      "d": 1384.6155000000144,
      "v": 89
    },
    {
      "midi": 64,
      "hit": false,
      "t": 235384.635,
      "d": 4076.9234166666574,
      "v": 98
    },
    {
      "midi": 59,
      "hit": false,
      "t": 236769.25050000002,
      "d": 2676.923299999966,
      "v": 62
    },
    {
      "midi": 73,
      "hit": false,
      "t": 237230.78900000002,
      "d": 261.53848333333735,
      "v": 105
    },
    {
      "midi": 71,
      "hit": false,
      "t": 237692.3275,
      "d": 138.46155000000726,
      "v": 98
    },
    {
      "midi": 71,
      "hit": false,
      "t": 238153.866,
      "d": 307.6923333333398,
      "v": 98
    },
    {
      "midi": 70,
      "hit": false,
      "t": 238615.4045,
      "d": 276.9230999999854,
      "v": 95
    },
    {
      "midi": 70,
      "hit": false,
      "t": 239076.943,
      "d": 407.69234166666865,
      "v": 99
    },
    {
      "midi": 58,
      "hit": false,
      "t": 239076.943,
      "d": 569.230816666648,
      "v": 75
    },
    {
      "midi": 68,
      "hit": false,
      "t": 239538.4815,
      "d": 230.769249999983,
      "v": 86
    },
    {
      "midi": 68,
      "hit": false,
      "t": 240000.01999999996,
      "d": 415.3846499999927,
      "v": 98
    },
    {
      "midi": 56,
      "hit": false,
      "t": 240000.01999999996,
      "d": 2492.3078999999852,
      "v": 86
    },
    {
      "midi": 63,
      "hit": false,
      "t": 240461.55849999996,
      "d": 1984.6155499999877,
      "v": 61
    },
    {
      "midi": 71,
      "hit": false,
      "t": 240923.09699999995,
      "d": 469.23080833331915,
      "v": 95
    },
    {
      "midi": 70,
      "hit": false,
      "t": 241384.63549999995,
      "d": 300.00002499998664,
      "v": 84
    },
    {
      "midi": 70,
      "hit": false,
      "t": 241846.17399999994,
      "d": 292.3077166666626,
      "v": 88
    },
    {
      "midi": 68,
      "hit": false,
      "t": 242307.71249999994,
      "d": 230.7692500000121,
      "v": 97
    },
    {
      "midi": 54,
      "hit": false,
      "t": 242769.25099999996,
      "d": 500.0000416666735,
      "v": 75
    },
    {
      "midi": 68,
      "hit": false,
      "t": 242769.25099999996,
      "d": 523.0769666666747,
      "v": 99
    },
    {
      "midi": 66,
      "hit": false,
      "t": 243230.78949999996,
      "d": 215.38463333333493,
      "v": 88
    },
    {
      "midi": 66,
      "hit": false,
      "t": 243692.32799999995,
      "d": 300.00002499998664,
      "v": 93
    },
    {
      "midi": 52,
      "hit": false,
      "t": 243692.32799999995,
      "d": 1700.0001416666491,
      "v": 75
    },
    {
      "midi": 56,
      "hit": false,
      "t": 244153.86649999995,
      "d": 1238.461641666654,
      "v": 67
    },
    {
      "midi": 59,
      "hit": false,
      "t": 244615.40499999994,
      "d": 830.7692999999854,
      "v": 64
    },
    {
      "midi": 64,
      "hit": false,
      "t": 245076.94349999994,
      "d": 176.92309166665655,
      "v": 76
    },
    {
      "midi": 61,
      "hit": false,
      "t": 245538.48199999993,
      "d": 353.8461833333422,
      "v": 67
    },
    {
      "midi": 58,
      "hit": false,
      "t": 245538.48199999993,
      "d": 392.3077250000206,
      "v": 74
    },
    {
      "midi": 66,
      "hit": false,
      "t": 245538.48199999993,
      "d": 1076.9231666666747,
      "v": 67
    },
    {
      "midi": 54,
      "hit": false,
      "t": 245538.48199999993,
      "d": 1184.6154833333276,
      "v": 57
    },
    {
      "midi": 58,
      "hit": false,
      "t": 246000.02049999996,
      "d": 607.6923583333264,
      "v": 80
    },
    {
      "midi": 59,
      "hit": false,
      "t": 247846.1744999999,
      "d": 6930.769808333338,
      "v": 93
    },
    {
      "midi": 54,
      "hit": false,
      "t": 247846.1744999999,
      "d": 7000.000583333342,
      "v": 43
    },
    {
      "midi": 35,
      "hit": false,
      "t": 247846.1744999999,
      "d": 7007.692891666666,
      "v": 84
    },
    {
      "midi": 47,
      "hit": false,
      "t": 247846.1744999999,
      "d": 7007.692891666666,
      "v": 71
    },
    {
      "midi": 63,
      "hit": false,
      "t": 247846.1744999999,
      "d": 7007.692891666666,
      "v": 65
    }
  ]
}