{
  "jsonPath": "Animes/Macross Plus MIDI Collection/voices.json",
  "path": "Animes\\Macross Plus MIDI Collection\\Voices.mid",
  "name": "Voices",
  "difficulty": "Advanced",
  "bpm": 72.00002880001152,
  "notes": [
    {
      "midi": 72,
      "hit": false,
      "t": 4285.715999999999,
      "d": 803.5717500000001,
      "v": 60
    },
    {
      "midi": 79,
      "hit": false,
      "t": 5357.1449999999995,
      "d": 1049.1075625000003,
      "v": 60
    },
    {
      "midi": 79,
      "hit": false,
      "t": 6428.574,
      "d": 857.1431999999995,
      "v": 60
    },
    {
      "midi": 82,
      "hit": false,
      "t": 7500.002999999999,
      "d": 522.3216375000002,
      "v": 60
    },
    {
      "midi": 81,
      "hit": false,
      "t": 8035.717499999999,
      "d": 522.3216374999993,
      "v": 60
    },
    {
      "midi": 77,
      "hit": false,
      "t": 8571.431999999999,
      "d": 1049.1075624999994,
      "v": 60
    },
    {
      "midi": 74,
      "hit": false,
      "t": 9642.860999999999,
      "d": 522.3216374999993,
      "v": 60
    },
    {
      "midi": 72,
      "hit": false,
      "t": 10178.575499999999,
      "d": 522.3216374999993,
      "v": 60
    },
    {
      "midi": 74,
      "hit": false,
      "t": 10714.289999999999,
      "d": 522.3216374999993,
      "v": 60
    },
    {
      "midi": 77,
      "hit": false,
      "t": 11250.0045,
      "d": 522.3216374999993,
      "v": 60
    },
    {
      "midi": 77,
      "hit": false,
      "t": 11785.719,
      "d": 750.0002999999997,
      "v": 60
    },
    {
      "midi": 72,
      "hit": false,
      "t": 12857.148,
      "d": 750.0002999999997,
      "v": 60
    },
    {
      "midi": 70,
      "hit": false,
      "t": 13928.577,
      "d": 522.3216374999993,
      "v": 60
    },
    {
      "midi": 74,
      "hit": false,
      "t": 14464.2915,
      "d": 522.3216374999993,
      "v": 60
    },
    {
      "midi": 72,
      "hit": false,
      "t": 15000.006,
      "d": 750.0002999999997,
      "v": 60
    },
    {
      "midi": 70,
      "hit": false,
      "t": 16071.435,
      "d": 522.3216374999993,
      "v": 60
    },
    {
      "midi": 74,
      "hit": false,
      "t": 16607.1495,
      "d": 522.3216375000011,
      "v": 60
    },
    {
      "midi": 72,
      "hit": false,
      "t": 17142.864,
      "d": 1049.1075625000012,
      "v": 60
    },
    {
      "midi": 67,
      "hit": false,
      "t": 18214.293,
      "d": 2250.000900000032,
      "v": 60
    },
    {
      "midi": 72,
      "hit": false,
      "t": 21428.580000000053,
      "d": 750.0002999999997,
      "v": 60
    },
    {
      "midi": 79,
      "hit": false,
      "t": 22500.009000000053,
      "d": 1049.1075625000012,
      "v": 60
    },
    {
      "midi": 79,
      "hit": false,
      "t": 23571.438000000053,
      "d": 750.0002999999997,
      "v": 60
    },
    {
      "midi": 82,
      "hit": false,
      "t": 24642.867000000053,
      "d": 522.3216375000011,
      "v": 60
    },
    {
      "midi": 81,
      "hit": false,
      "t": 25178.581500000055,
      "d": 522.3216375000011,
      "v": 60
    },
    {
      "midi": 77,
      "hit": false,
      "t": 25714.296000000057,
      "d": 1049.1075625000012,
      "v": 60
    },
    {
      "midi": 74,
      "hit": false,
      "t": 26785.725000000057,
      "d": 522.3216375000011,
      "v": 60
    },
    {
      "midi": 72,
      "hit": false,
      "t": 27321.43950000006,
      "d": 522.3216375000011,
      "v": 60
    },
    {
      "midi": 74,
      "hit": false,
      "t": 27857.15400000006,
      "d": 522.3216375000011,
      "v": 60
    },
    {
      "midi": 77,
      "hit": false,
      "t": 28392.868500000062,
      "d": 522.3216375000011,
      "v": 60
    },
    {
      "midi": 77,
      "hit": false,
      "t": 28928.583000000064,
      "d": 750.0002999999997,
      "v": 60
    },
    {
      "midi": 72,
      "hit": false,
      "t": 30000.012000000064,
      "d": 750.0002999999997,
      "v": 60
    },
    {
      "midi": 70,
      "hit": false,
      "t": 31071.441000000064,
      "d": 522.3216375000011,
      "v": 60
    },
    {
      "midi": 74,
      "hit": false,
      "t": 31607.155500000066,
      "d": 522.3216375000011,
      "v": 60
    },
    {
      "midi": 72,
      "hit": false,
      "t": 32142.870000000068,
      "d": 1049.1075625000012,
      "v": 60
    },
    {
      "midi": 70,
      "hit": false,
      "t": 33214.29900000007,
      "d": 522.3216374999975,
      "v": 60
    },
    {
      "midi": 74,
      "hit": false,
      "t": 33750.01350000007,
      "d": 522.3216374999975,
      "v": 60
    },
    {
      "midi": 72,
      "hit": false,
      "t": 34285.72800000006,
      "d": 3214.287000000084,
      "v": 60
    },
    {
      "midi": 67,
      "hit": false,
      "t": 38571.443999999996,
      "d": 2098.2151250000024,
      "v": 80
    },
    {
      "midi": 72,
      "hit": false,
      "t": 38571.44400000016,
      "d": 1049.1075625000012,
      "v": 60
    },
    {
      "midi": 70,
      "hit": false,
      "t": 38607.158299999996,
      "d": 2098.2151250000024,
      "v": 80
    },
    {
      "midi": 75,
      "hit": false,
      "t": 38642.872599999995,
      "d": 2098.2151250000024,
      "v": 80
    },
    {
      "midi": 79,
      "hit": false,
      "t": 39642.87300000017,
      "d": 1049.1075625000012,
      "v": 60
    },
    {
      "midi": 72,
      "hit": false,
      "t": 40178.587499999994,
      "d": 258.92867500000284,
      "v": 60
    },
    {
      "midi": 79,
      "hit": false,
      "t": 40446.444749999995,
      "d": 258.92867500000284,
      "v": 60
    },
    {
      "midi": 84,
      "hit": false,
      "t": 40714.301999999996,
      "d": 2098.2151250000024,
      "v": 98
    },
    {
      "midi": 69,
      "hit": false,
      "t": 40714.301999999996,
      "d": 2098.2151250000024,
      "v": 80
    },
    {
      "midi": 79,
      "hit": false,
      "t": 40714.30200000017,
      "d": 1049.1075625000012,
      "v": 60
    },
    {
      "midi": 72,
      "hit": false,
      "t": 40750.016299999996,
      "d": 2098.2151250000024,
      "v": 80
    },
    {
      "midi": 75,
      "hit": false,
      "t": 40785.730599999995,
      "d": 2098.2151250000024,
      "v": 80
    },
    {
      "midi": 82,
      "hit": false,
      "t": 41785.731000000174,
      "d": 522.3216374999975,
      "v": 60
    },
    {
      "midi": 81,
      "hit": false,
      "t": 42321.44550000017,
      "d": 522.3216374999975,
      "v": 60
    },
    {
      "midi": 65,
      "hit": false,
      "t": 42857.159999999996,
      "d": 2098.2151250000024,
      "v": 80
    },
    {
      "midi": 69,
      "hit": false,
      "t": 42857.159999999996,
      "d": 2098.2151250000024,
      "v": 80
    },
    {
      "midi": 72,
      "hit": false,
      "t": 42857.159999999996,
      "d": 2098.2151250000024,
      "v": 80
    },
    {
      "midi": 77,
      "hit": false,
      "t": 42857.16000000016,
      "d": 1049.1075625000012,
      "v": 60
    },
    {
      "midi": 74,
      "hit": false,
      "t": 43928.58900000017,
      "d": 522.3216374999975,
      "v": 60
    },
    {
      "midi": 72,
      "hit": false,
      "t": 44464.30350000016,
      "d": 522.3216374999975,
      "v": 60
    },
    {
      "midi": 67,
      "hit": false,
      "t": 45000.018,
      "d": 2098.2151250000024,
      "v": 80
    },
    {
      "midi": 74,
      "hit": false,
      "t": 45000.01800000016,
      "d": 522.3216374999975,
      "v": 60
    },
    {
      "midi": 70,
      "hit": false,
      "t": 45035.732299999996,
      "d": 2098.2151250000024,
      "v": 80
    },
    {
      "midi": 77,
      "hit": false,
      "t": 45535.73250000015,
      "d": 522.3216374999975,
      "v": 60
    },
    {
      "midi": 77,
      "hit": false,
      "t": 46071.447000000146,
      "d": 1049.1075625000012,
      "v": 60
    },
    {
      "midi": 53,
      "hit": false,
      "t": 47142.876,
      "d": 522.3216374999975,
      "v": 80
    },
    {
      "midi": 72,
      "hit": false,
      "t": 47142.87600000015,
      "d": 1049.1075625000012,
      "v": 60
    },
    {
      "midi": 60,
      "hit": false,
      "t": 47678.59049999999,
      "d": 1571.4291999999987,
      "v": 80
    },
    {
      "midi": 70,
      "hit": false,
      "t": 48214.305,
      "d": 522.3216374999975,
      "v": 80
    },
    {
      "midi": 70,
      "hit": false,
      "t": 48214.30500000015,
      "d": 522.3216374999975,
      "v": 60
    },
    {
      "midi": 75,
      "hit": false,
      "t": 48750.019499999995,
      "d": 522.3216374999975,
      "v": 80
    },
    {
      "midi": 74,
      "hit": false,
      "t": 48750.01950000015,
      "d": 522.3216374999975,
      "v": 60
    },
    {
      "midi": 74,
      "hit": false,
      "t": 49285.73399999999,
      "d": 1049.1075625000012,
      "v": 80
    },
    {
      "midi": 55,
      "hit": false,
      "t": 49285.73399999999,
      "d": 2098.2151250000024,
      "v": 80
    },
    {
      "midi": 72,
      "hit": false,
      "t": 49285.73400000014,
      "d": 1049.1075625000012,
      "v": 60
    },
    {
      "midi": 77,
      "hit": false,
      "t": 49321.44829999999,
      "d": 1049.1075625000012,
      "v": 98
    },
    {
      "midi": 82,
      "hit": false,
      "t": 50357.16299999999,
      "d": 1049.107562499994,
      "v": 98
    },
    {
      "midi": 70,
      "hit": false,
      "t": 50357.163000000146,
      "d": 522.3216374999975,
      "v": 60
    },
    {
      "midi": 74,
      "hit": false,
      "t": 50892.87750000014,
      "d": 522.3216374999975,
      "v": 60
    },
    {
      "midi": 67,
      "hit": false,
      "t": 51428.59199999999,
      "d": 4196.430249999998,
      "v": 80
    },
    {
      "midi": 72,
      "hit": false,
      "t": 51428.592000000135,
      "d": 1049.1075625000012,
      "v": 60
    },
    {
      "midi": 70,
      "hit": false,
      "t": 51464.30629999999,
      "d": 4196.430249999998,
      "v": 80
    },
    {
      "midi": 72,
      "hit": false,
      "t": 51500.02059999999,
      "d": 4196.430249999998,
      "v": 80
    },
    {
      "midi": 67,
      "hit": false,
      "t": 52500.02100000014,
      "d": 2825.893987500094,
      "v": 60
    },
    {
      "midi": 67,
      "hit": false,
      "t": 55714.30799999999,
      "d": 2098.2151250000024,
      "v": 80
    },
    {
      "midi": 70,
      "hit": false,
      "t": 55714.30799999999,
      "d": 2098.2151250000024,
      "v": 80
    },
    {
      "midi": 75,
      "hit": false,
      "t": 55714.30799999999,
      "d": 2098.2151250000024,
      "v": 80
    },
    {
      "midi": 72,
      "hit": false,
      "t": 55714.30800000025,
      "d": 1049.1075625000012,
      "v": 60
    },
    {
      "midi": 79,
      "hit": false,
      "t": 56785.737000000256,
      "d": 1049.1075625000012,
      "v": 60
    },
    {
      "midi": 72,
      "hit": false,
      "t": 57321.45149999999,
      "d": 258.92867500000284,
      "v": 98
    },
    {
      "midi": 79,
      "hit": false,
      "t": 57589.30874999999,
      "d": 258.92867500000284,
      "v": 64
    },
    {
      "midi": 84,
      "hit": false,
      "t": 57857.16599999999,
      "d": 2098.2151250000024,
      "v": 98
    },
    {
      "midi": 69,
      "hit": false,
      "t": 57857.16599999999,
      "d": 2098.2151250000024,
      "v": 80
    },
    {
      "midi": 79,
      "hit": false,
      "t": 57857.16600000026,
      "d": 1049.1075625000012,
      "v": 60
    },
    {
      "midi": 72,
      "hit": false,
      "t": 57892.88029999999,
      "d": 2098.2151250000024,
      "v": 80
    },
    {
      "midi": 75,
      "hit": false,
      "t": 57928.59459999999,
      "d": 2098.2151250000024,
      "v": 80
    },
    {
      "midi": 82,
      "hit": false,
      "t": 58928.59500000026,
      "d": 522.3216374999975,
      "v": 60
    },
    {
      "midi": 81,
      "hit": false,
      "t": 59464.30950000026,
      "d": 522.3216374999975,
      "v": 60
    },
    {
      "midi": 65,
      "hit": false,
      "t": 60000.02399999999,
      "d": 2098.2151250000024,
      "v": 80
    },
    {
      "midi": 69,
      "hit": false,
      "t": 60000.02399999999,
      "d": 2098.2151250000024,
      "v": 80
    },
    {
      "midi": 72,
      "hit": false,
      "t": 60000.02399999999,
      "d": 2098.2151250000024,
      "v": 90
    },
    {
      "midi": 77,
      "hit": false,
      "t": 60000.02400000025,
      "d": 1049.1075625000012,
      "v": 60
    },
    {
      "midi": 74,
      "hit": false,
      "t": 61071.453000000256,
      "d": 522.3216374999975,
      "v": 60
    },
    {
      "midi": 72,
      "hit": false,
      "t": 61607.16750000025,
      "d": 522.3216374999975,
      "v": 60
    },
    {
      "midi": 67,
      "hit": false,
      "t": 62142.88199999999,
      "d": 2098.2151250000024,
      "v": 80
    },
    {
      "midi": 74,
      "hit": false,
      "t": 62142.882000000245,
      "d": 522.3216374999975,
      "v": 60
    },
    {
      "midi": 70,
      "hit": false,
      "t": 62178.59629999999,
      "d": 2098.2151250000024,
      "v": 90
    },
    {
      "midi": 77,
      "hit": false,
      "t": 62678.59650000024,
      "d": 522.3216374999975,
      "v": 60
    },
    {
      "midi": 77,
      "hit": false,
      "t": 63214.311000000234,
      "d": 1049.1075625000012,
      "v": 60
    },
    {
      "midi": 41,
      "hit": false,
      "t": 64285.73999999999,
      "d": 267.85725000000093,
      "v": 120
    },
    {
      "midi": 72,
      "hit": false,
      "t": 64285.74000000024,
      "d": 1049.1075625000012,
      "v": 60
    },
    {
      "midi": 48,
      "hit": false,
      "t": 64821.45449999999,
      "d": 267.85725000000093,
      "v": 80
    },
    {
      "midi": 55,
      "hit": false,
      "t": 65357.168999999994,
      "d": 1049.107562499994,
      "v": 64
    },
    {
      "midi": 70,
      "hit": false,
      "t": 65357.16900000024,
      "d": 522.3216375000047,
      "v": 60
    },
    {
      "midi": 63,
      "hit": false,
      "t": 65392.883299999994,
      "d": 1049.1075624999867,
      "v": 64
    },
    {
      "midi": 60,
      "hit": false,
      "t": 65392.883299999994,
      "d": 1049.1075624999867,
      "v": 64
    },
    {
      "midi": 74,
      "hit": false,
      "t": 65892.88350000024,
      "d": 522.3216375000047,
      "v": 60
    },
    {
      "midi": 65,
      "hit": false,
      "t": 66428.59799999998,
      "d": 2098.2151250000024,
      "v": 80
    },
    {
      "midi": 62,
      "hit": false,
      "t": 66428.59799999998,
      "d": 2098.2151250000024,
      "v": 80
    },
    {
      "midi": 57,
      "hit": false,
      "t": 66428.59799999998,
      "d": 2098.2151250000024,
      "v": 80
    },
    {
      "midi": 43,
      "hit": false,
      "t": 66428.598,
      "d": 2098.2151250000024,
      "v": 80
    },
    {
      "midi": 72,
      "hit": false,
      "t": 66428.59800000025,
      "d": 1049.107562499994,
      "v": 60
    },
    {
      "midi": 67,
      "hit": false,
      "t": 67500.02699999999,
      "d": 129.46433750000142,
      "v": 80
    },
    {
      "midi": 70,
      "hit": false,
      "t": 67500.02700000023,
      "d": 522.3216375000047,
      "v": 60
    },
    {
      "midi": 72,
      "hit": false,
      "t": 67633.95562499999,
      "d": 986.6075375000073,
      "v": 80
    },
    {
      "midi": 74,
      "hit": false,
      "t": 68035.74150000024,
      "d": 522.3216375000047,
      "v": 60
    },
    {
      "midi": 63,
      "hit": false,
      "t": 68571.45599999999,
      "d": 3147.322687500011,
      "v": 80
    },
    {
      "midi": 48,
      "hit": false,
      "t": 68571.456,
      "d": 3147.3226874999964,
      "v": 120
    },
    {
      "midi": 72,
      "hit": false,
      "t": 68571.45600000024,
      "d": 2410.715249999994,
      "v": 60
    },
    {
      "midi": 55,
      "hit": false,
      "t": 69107.1705,
      "d": 522.3216375000047,
      "v": 80
    },
    {
      "midi": 60,
      "hit": false,
      "t": 69642.885,
      "d": 522.3216375000047,
      "v": 100
    },
    {
      "midi": 62,
      "hit": false,
      "t": 70178.5995,
      "d": 522.3216375000047,
      "v": 100
    },
    {
      "midi": 67,
      "hit": false,
      "t": 70714.314,
      "d": 522.3216375000047,
      "v": 100
    },
    {
      "midi": 60,
      "hit": false,
      "t": 71250.0285,
      "d": 468.75018750000163,
      "v": 100
    },
    {
      "midi": 58,
      "hit": false,
      "t": 71785.743,
      "d": 522.3216375000047,
      "v": 80
    },
    {
      "midi": 63,
      "hit": false,
      "t": 71785.743,
      "d": 522.3216375000047,
      "v": 80
    },
    {
      "midi": 55,
      "hit": false,
      "t": 71785.743,
      "d": 522.3216375000047,
      "v": 80
    },
    {
      "midi": 36,
      "hit": false,
      "t": 71785.743,
      "d": 522.3216375000047,
      "v": 120
    },
    {
      "midi": 75,
      "hit": false,
      "t": 71785.74300000024,
      "d": 522.3216375000047,
      "v": 60
    },
    {
      "midi": 60,
      "hit": false,
      "t": 72321.4575,
      "d": 500.00019999999495,
      "v": 80
    },
    {
      "midi": 65,
      "hit": false,
      "t": 72321.4575,
      "d": 522.3216374999902,
      "v": 80
    },
    {
      "midi": 57,
      "hit": false,
      "t": 72321.4575,
      "d": 522.3216374999902,
      "v": 80
    },
    {
      "midi": 38,
      "hit": false,
      "t": 72321.4575,
      "d": 522.3216375000047,
      "v": 120
    },
    {
      "midi": 77,
      "hit": false,
      "t": 72321.45750000024,
      "d": 522.3216375000047,
      "v": 60
    },
    {
      "midi": 67,
      "hit": false,
      "t": 72857.17199999999,
      "d": 1049.107562499994,
      "v": 100
    },
    {
      "midi": 62,
      "hit": false,
      "t": 72857.17199999999,
      "d": 1049.107562499994,
      "v": 80
    },
    {
      "midi": 58,
      "hit": false,
      "t": 72857.17199999999,
      "d": 1049.107562499994,
      "v": 80
    },
    {
      "midi": 39,
      "hit": false,
      "t": 72857.172,
      "d": 522.3216375000047,
      "v": 120
    },
    {
      "midi": 79,
      "hit": false,
      "t": 72857.17200000024,
      "d": 1049.107562499994,
      "v": 60
    },
    {
      "midi": 51,
      "hit": false,
      "t": 73392.88650000001,
      "d": 522.3216375000047,
      "v": 80
    },
    {
      "midi": 62,
      "hit": false,
      "t": 73928.60099999998,
      "d": 522.3216375000047,
      "v": 80
    },
    {
      "midi": 58,
      "hit": false,
      "t": 73928.60099999998,
      "d": 522.3216375000047,
      "v": 80
    },
    {
      "midi": 55,
      "hit": false,
      "t": 73928.60100000001,
      "d": 2665.1796374999976,
      "v": 80
    },
    {
      "midi": 77,
      "hit": false,
      "t": 73928.60100000023,
      "d": 522.3216375000047,
      "v": 60
    },
    {
      "midi": 67,
      "hit": false,
      "t": 74464.31549999998,
      "d": 522.3216375000047,
      "v": 80
    },
    {
      "midi": 79,
      "hit": false,
      "t": 74464.31550000023,
      "d": 522.3216375000047,
      "v": 60
    },
    {
      "midi": 65,
      "hit": false,
      "t": 75000.02999999998,
      "d": 2098.2151250000024,
      "v": 80
    },
    {
      "midi": 82,
      "hit": false,
      "t": 75000.03000000023,
      "d": 1049.107562499994,
      "v": 60
    },
    {
      "midi": 70,
      "hit": false,
      "t": 75035.74429999999,
      "d": 2098.215124999988,
      "v": 80
    },
    {
      "midi": 77,
      "hit": false,
      "t": 75535.74449999999,
      "d": 522.3216375000047,
      "v": 100
    },
    {
      "midi": 82,
      "hit": false,
      "t": 76071.45899999999,
      "d": 1049.107562499994,
      "v": 100
    },
    {
      "midi": 84,
      "hit": false,
      "t": 76071.45900000022,
      "d": 522.3216375000047,
      "v": 60
    },
    {
      "midi": 51,
      "hit": false,
      "t": 76607.1735,
      "d": 522.3216375000047,
      "v": 80
    },
    {
      "midi": 82,
      "hit": false,
      "t": 76607.17350000022,
      "d": 522.3216375000047,
      "v": 60
    },
    {
      "midi": 63,
      "hit": false,
      "t": 77142.88799999998,
      "d": 2098.2151250000024,
      "v": 80
    },
    {
      "midi": 60,
      "hit": false,
      "t": 77142.88799999998,
      "d": 2098.2151250000024,
      "v": 80
    },
    {
      "midi": 56,
      "hit": false,
      "t": 77142.88799999998,
      "d": 2098.2151250000024,
      "v": 80
    },
    {
      "midi": 44,
      "hit": false,
      "t": 77142.888,
      "d": 2098.2151250000024,
      "v": 120
    },
    {
      "midi": 75,
      "hit": false,
      "t": 77142.88800000022,
      "d": 1049.107562499994,
      "v": 60
    },
    {
      "midi": 72,
      "hit": false,
      "t": 78214.31700000021,
      "d": 522.3216375000047,
      "v": 60
    },
    {
      "midi": 75,
      "hit": false,
      "t": 78750.03150000022,
      "d": 522.3216375000047,
      "v": 60
    },
    {
      "midi": 58,
      "hit": false,
      "t": 79285.74599999998,
      "d": 2098.2151250000024,
      "v": 80
    },
    {
      "midi": 48,
      "hit": false,
      "t": 79285.74600000001,
      "d": 2098.2151250000024,
      "v": 120
    },
    {
      "midi": 79,
      "hit": false,
      "t": 79285.74600000022,
      "d": 2098.2151250000024,
      "v": 60
    },
    {
      "midi": 64,
      "hit": false,
      "t": 79321.46029999999,
      "d": 2098.215124999988,
      "v": 80
    },
    {
      "midi": 60,
      "hit": false,
      "t": 79821.46049999999,
      "d": 522.3216375000047,
      "v": 100
    },
    {
      "midi": 72,
      "hit": false,
      "t": 80357.17499999999,
      "d": 522.3216375000047,
      "v": 100
    },
    {
      "midi": 60,
      "hit": false,
      "t": 80892.88949999999,
      "d": 522.3216374999902,
      "v": 100
    },
    {
      "midi": 56,
      "hit": false,
      "t": 81428.60399999998,
      "d": 1049.107562499994,
      "v": 80
    },
    {
      "midi": 48,
      "hit": false,
      "t": 81428.60400000002,
      "d": 1049.107562499994,
      "v": 120
    },
    {
      "midi": 75,
      "hit": false,
      "t": 81428.60400000022,
      "d": 1049.107562499994,
      "v": 60
    },
    {
      "midi": 63,
      "hit": false,
      "t": 81500.03259999998,
      "d": 1049.107562499994,
      "v": 80
    },
    {
      "midi": 60,
      "hit": false,
      "t": 82500.03299999997,
      "d": 522.3216375000047,
      "v": 80
    },
    {
      "midi": 55,
      "hit": false,
      "t": 82500.03299999997,
      "d": 1049.1075625000085,
      "v": 80
    },
    {
      "midi": 44,
      "hit": false,
      "t": 82500.03300000001,
      "d": 785.7146000000066,
      "v": 120
    },
    {
      "midi": 72,
      "hit": false,
      "t": 82500.03300000021,
      "d": 522.3216375000047,
      "v": 60
    },
    {
      "midi": 63,
      "hit": false,
      "t": 83035.74749999997,
      "d": 522.3216375000047,
      "v": 100
    },
    {
      "midi": 75,
      "hit": false,
      "t": 83035.74750000022,
      "d": 522.3216375000047,
      "v": 60
    },
    {
      "midi": 46,
      "hit": false,
      "t": 83303.60475000001,
      "d": 790.1788875000057,
      "v": 120
    },
    {
      "midi": 56,
      "hit": false,
      "t": 83571.46199999997,
      "d": 522.3216375000047,
      "v": 100
    },
    {
      "midi": 79,
      "hit": false,
      "t": 83571.46200000022,
      "d": 1049.107562499994,
      "v": 60
    },
    {
      "midi": 67,
      "hit": false,
      "t": 83607.17629999998,
      "d": 1049.107562499994,
      "v": 80
    },
    {
      "midi": 55,
      "hit": false,
      "t": 84107.17649999997,
      "d": 522.3216375000047,
      "v": 80
    },
    {
      "midi": 46,
      "hit": false,
      "t": 84107.17650000002,
      "d": 258.92867500000284,
      "v": 80
    },
    {
      "midi": 34,
      "hit": false,
      "t": 84375.03375000002,
      "d": 258.92867500000284,
      "v": 120
    },
    {
      "midi": 62,
      "hit": false,
      "t": 84642.89099999997,
      "d": 1049.107562499994,
      "v": 80
    },
    {
      "midi": 55,
      "hit": false,
      "t": 84642.89099999997,
      "d": 1049.107562499994,
      "v": 80
    },
    {
      "midi": 46,
      "hit": false,
      "t": 84642.89100000002,
      "d": 785.7146000000066,
      "v": 120
    },
    {
      "midi": 74,
      "hit": false,
      "t": 84642.8910000002,
      "d": 1049.107562499994,
      "v": 60
    },
    {
      "midi": 46,
      "hit": false,
      "t": 85446.46275000002,
      "d": 258.92867500000284,
      "v": 80
    },
    {
      "midi": 55,
      "hit": false,
      "t": 85714.31999999996,
      "d": 1330.3576750000066,
      "v": 80
    },
    {
      "midi": 60,
      "hit": false,
      "t": 85714.31999999996,
      "d": 1330.3576750000066,
      "v": 80
    },
    {
      "midi": 44,
      "hit": false,
      "t": 85714.32000000002,
      "d": 522.3216375000047,
      "v": 120
    },
    {
      "midi": 72,
      "hit": false,
      "t": 85714.3200000002,
      "d": 2763.3939624999184,
      "v": 60
    },
    {
      "midi": 51,
      "hit": false,
      "t": 86250.03450000002,
      "d": 522.3216375000047,
      "v": 80
    },
    {
      "midi": 55,
      "hit": false,
      "t": 86785.74900000003,
      "d": 785.7146000000066,
      "v": 80
    },
    {
      "midi": 60,
      "hit": false,
      "t": 87053.60624999997,
      "d": 258.92867500000284,
      "v": 64
    },
    {
      "midi": 67,
      "hit": false,
      "t": 87321.46349999997,
      "d": 522.3216375000047,
      "v": 64
    },
    {
      "midi": 44,
      "hit": false,
      "t": 87589.32075000003,
      "d": 223.21437499999593,
      "v": 80
    },
    {
      "midi": 60,
      "hit": false,
      "t": 87857.17799999997,
      "d": 522.3216375000047,
      "v": 80
    },
    {
      "midi": 43,
      "hit": false,
      "t": 87857.17800000003,
      "d": 522.3216375000047,
      "v": 120
    },
    {
      "midi": 65,
      "hit": false,
      "t": 87892.89229999998,
      "d": 522.3216375000047,
      "v": 80
    },
    {
      "midi": 53,
      "hit": false,
      "t": 88392.89250000003,
      "d": 522.3216375000047,
      "v": 80
    },
    {
      "midi": 60,
      "hit": false,
      "t": 88428.60679999998,
      "d": 522.3216374999902,
      "v": 64
    },
    {
      "midi": 70,
      "hit": false,
      "t": 88928.60699999997,
      "d": 1049.107562499994,
      "v": 98
    },
    {
      "midi": 63,
      "hit": false,
      "t": 88928.60699999997,
      "d": 1049.107562499994,
      "v": 98
    },
    {
      "midi": 62,
      "hit": false,
      "t": 88928.60700000003,
      "d": 522.3216375000047,
      "v": 80
    },
    {
      "midi": 70,
      "hit": false,
      "t": 88928.60700000006,
      "d": 522.3216375000047,
      "v": 60
    },
    {
      "midi": 58,
      "hit": false,
      "t": 89464.32150000003,
      "d": 522.3216374999902,
      "v": 80
    },
    {
      "midi": 72,
      "hit": false,
      "t": 89464.32150000006,
      "d": 522.3216375000047,
      "v": 60
    },
    {
      "midi": 41,
      "hit": false,
      "t": 90000.03600000002,
      "d": 522.3216375000047,
      "v": 120
    },
    {
      "midi": 75,
      "hit": false,
      "t": 90000.03600000007,
      "d": 1049.107562499994,
      "v": 80
    },
    {
      "midi": 56,
      "hit": false,
      "t": 90035.75029999997,
      "d": 857.1432000000059,
      "v": 80
    },
    {
      "midi": 58,
      "hit": false,
      "t": 90071.46459999998,
      "d": 857.1432000000059,
      "v": 80
    },
    {
      "midi": 48,
      "hit": false,
      "t": 90535.75050000002,
      "d": 522.3216375000047,
      "v": 80
    },
    {
      "midi": 56,
      "hit": false,
      "t": 91071.46499999998,
      "d": 504.464487499994,
      "v": 80
    },
    {
      "midi": 58,
      "hit": false,
      "t": 91071.46499999998,
      "d": 504.464487499994,
      "v": 80
    },
    {
      "midi": 56,
      "hit": false,
      "t": 91071.46500000003,
      "d": 1049.107562499994,
      "v": 80
    },
    {
      "midi": 74,
      "hit": false,
      "t": 91071.46500000005,
      "d": 522.3216375000047,
      "v": 80
    },
    {
      "midi": 63,
      "hit": false,
      "t": 91607.17949999997,
      "d": 428.57159999999567,
      "v": 98
    },
    {
      "midi": 72,
      "hit": false,
      "t": 91607.17950000006,
      "d": 522.3216375000047,
      "v": 80
    },
    {
      "midi": 62,
      "hit": false,
      "t": 92142.89399999997,
      "d": 857.1432000000059,
      "v": 98
    },
    {
      "midi": 39,
      "hit": false,
      "t": 92142.89400000001,
      "d": 522.3216375000047,
      "v": 120
    },
    {
      "midi": 74,
      "hit": false,
      "t": 92142.89400000006,
      "d": 1049.107562499994,
      "v": 80
    },
    {
      "midi": 48,
      "hit": false,
      "t": 92678.60850000002,
      "d": 522.3216375000047,
      "v": 80
    },
    {
      "midi": 67,
      "hit": false,
      "t": 93214.32299999997,
      "d": 857.1432000000059,
      "v": 98
    },
    {
      "midi": 55,
      "hit": false,
      "t": 93214.32300000002,
      "d": 1049.107562499994,
      "v": 80
    },
    {
      "midi": 79,
      "hit": false,
      "t": 93214.32300000005,
      "d": 1049.107562499994,
      "v": 80
    },
    {
      "midi": 38,
      "hit": false,
      "t": 94285.75200000001,
      "d": 522.3216375000047,
      "v": 120
    },
    {
      "midi": 84,
      "hit": false,
      "t": 94285.75200000004,
      "d": 1714.2863999999972,
      "v": 80
    },
    {
      "midi": 67,
      "hit": false,
      "t": 94321.46629999999,
      "d": 1049.107562499994,
      "v": 80
    },
    {
      "midi": 69,
      "hit": false,
      "t": 94321.46629999999,
      "d": 1049.107562499994,
      "v": 80
    },
    {
      "midi": 45,
      "hit": false,
      "t": 94821.46650000001,
      "d": 522.3216375000047,
      "v": 80
    },
    {
      "midi": 57,
      "hit": false,
      "t": 95357.18099999998,
      "d": 522.3216374999902,
      "v": 80
    },
    {
      "midi": 53,
      "hit": false,
      "t": 95357.18100000001,
      "d": 1049.107562499994,
      "v": 80
    },
    {
      "midi": 65,
      "hit": false,
      "t": 95892.89549999997,
      "d": 522.3216375000047,
      "v": 98
    },
    {
      "midi": 60,
      "hit": false,
      "t": 96428.60999999997,
      "d": 1049.107562499994,
      "v": 98
    },
    {
      "midi": 64,
      "hit": false,
      "t": 96428.60999999997,
      "d": 1049.107562499994,
      "v": 98
    },
    {
      "midi": 53,
      "hit": false,
      "t": 96428.61,
      "d": 522.3216375000047,
      "v": 80
    },
    {
      "midi": 79,
      "hit": false,
      "t": 96428.61000000003,
      "d": 1928.572199999995,
      "v": 80
    },
    {
      "midi": 52,
      "hit": false,
      "t": 96964.3245,
      "d": 1571.4291999999987,
      "v": 120
    },
    {
      "midi": 67,
      "hit": false,
      "t": 97500.03899999996,
      "d": 522.3216375000047,
      "v": 98
    },
    {
      "midi": 72,
      "hit": false,
      "t": 98035.75349999996,
      "d": 522.3216375000047,
      "v": 98
    },
    {
      "midi": 65,
      "hit": false,
      "t": 98571.46799999996,
      "d": 4196.430250000019,
      "v": 80
    },
    {
      "midi": 58,
      "hit": false,
      "t": 98571.46800000001,
      "d": 4196.430250000005,
      "v": 120
    },
    {
      "midi": 69,
      "hit": false,
      "t": 98607.18229999997,
      "d": 4196.430250000019,
      "v": 80
    },
    {
      "midi": 74,
      "hit": false,
      "t": 98642.89659999998,
      "d": 4196.430250000019,
      "v": 98
    },
    {
      "midi": 77,
      "hit": false,
      "t": 99642.89700000003,
      "d": 522.3216375000047,
      "v": 80
    },
    {
      "midi": 79,
      "hit": false,
      "t": 100178.61150000003,
      "d": 522.3216375000047,
      "v": 80
    },
    {
      "midi": 81,
      "hit": false,
      "t": 100714.32600000003,
      "d": 1049.107562499994,
      "v": 80
    },
    {
      "midi": 79,
      "hit": false,
      "t": 101785.75500000002,
      "d": 522.3216375000047,
      "v": 80
    },
    {
      "midi": 77,
      "hit": false,
      "t": 102321.46950000002,
      "d": 522.3216375000047,
      "v": 80
    },
    {
      "midi": 43,
      "hit": false,
      "t": 102857.18400000001,
      "d": 522.3216375000047,
      "v": 120
    },
    {
      "midi": 74,
      "hit": false,
      "t": 102857.18400000002,
      "d": 522.3216375000047,
      "v": 80
    },
    {
      "midi": 53,
      "hit": false,
      "t": 103392.89850000001,
      "d": 1571.4291999999987,
      "v": 80
    },
    {
      "midi": 79,
      "hit": false,
      "t": 103392.89850000002,
      "d": 522.3216375000047,
      "v": 80
    },
    {
      "midi": 60,
      "hit": false,
      "t": 103928.613,
      "d": 522.3216375000047,
      "v": 64
    },
    {
      "midi": 79,
      "hit": false,
      "t": 103928.61300000003,
      "d": 2732.1439499998814,
      "v": 80
    },
    {
      "midi": 62,
      "hit": false,
      "t": 104464.3275,
      "d": 522.3216375000047,
      "v": 80
    },
    {
      "midi": 43,
      "hit": false,
      "t": 105000.04200000002,
      "d": 2098.2151250000024,
      "v": 120
    },
    {
      "midi": 53,
      "hit": false,
      "t": 105035.75630000001,
      "d": 2098.2151250000024,
      "v": 98
    },
    {
      "midi": 59,
      "hit": false,
      "t": 105071.47060000002,
      "d": 2098.215124999988,
      "v": 98
    },
    {
      "midi": 72,
      "hit": false,
      "t": 107142.89999999983,
      "d": 1049.107562499994,
      "v": 60
    },
    {
      "midi": 79,
      "hit": false,
      "t": 107142.90000000001,
      "d": 258.9286749999883,
      "v": 98
    },
    {
      "midi": 58,
      "hit": false,
      "t": 107142.90000000002,
      "d": 1857.1435999999958,
      "v": 98
    },
    {
      "midi": 74,
      "hit": false,
      "t": 107410.75725,
      "d": 258.92867500000284,
      "v": 80
    },
    {
      "midi": 72,
      "hit": false,
      "t": 107678.6145,
      "d": 258.92867500000284,
      "v": 64
    },
    {
      "midi": 67,
      "hit": false,
      "t": 107946.47175,
      "d": 258.92867500000284,
      "v": 80
    },
    {
      "midi": 79,
      "hit": false,
      "t": 108214.32899999982,
      "d": 1049.107562499994,
      "v": 60
    },
    {
      "midi": 75,
      "hit": false,
      "t": 108214.329,
      "d": 258.92867500000284,
      "v": 80
    },
    {
      "midi": 74,
      "hit": false,
      "t": 108482.18625,
      "d": 258.92867500000284,
      "v": 64
    },
    {
      "midi": 72,
      "hit": false,
      "t": 108750.0435,
      "d": 258.92867500000284,
      "v": 64
    },
    {
      "midi": 67,
      "hit": false,
      "t": 109017.90075,
      "d": 258.92867500000284,
      "v": 80
    },
    {
      "midi": 58,
      "hit": false,
      "t": 109017.90075000002,
      "d": 258.92867500000284,
      "v": 98
    },
    {
      "midi": 79,
      "hit": false,
      "t": 109285.75799999981,
      "d": 834.8217624999961,
      "v": 60
    },
    {
      "midi": 79,
      "hit": false,
      "t": 109285.758,
      "d": 522.3216375000047,
      "v": 80
    },
    {
      "midi": 57,
      "hit": false,
      "t": 109285.75800000002,
      "d": 2098.2151250000024,
      "v": 98
    },
    {
      "midi": 72,
      "hit": false,
      "t": 109821.4725,
      "d": 522.3216375000047,
      "v": 80
    },
    {
      "midi": 82,
      "hit": false,
      "t": 110357.1869999998,
      "d": 522.3216375000047,
      "v": 60
    },
    {
      "midi": 84,
      "hit": false,
      "t": 110392.90130000001,
      "d": 522.3216374999902,
      "v": 98
    },
    {
      "midi": 81,
      "hit": false,
      "t": 110892.9014999998,
      "d": 522.3216375000047,
      "v": 60
    },
    {
      "midi": 72,
      "hit": false,
      "t": 110892.9015,
      "d": 522.3216374999902,
      "v": 80
    },
    {
      "midi": 77,
      "hit": false,
      "t": 111428.6159999998,
      "d": 1049.107562499994,
      "v": 60
    },
    {
      "midi": 72,
      "hit": false,
      "t": 111428.616,
      "d": 1049.107562499994,
      "v": 98
    },
    {
      "midi": 57,
      "hit": false,
      "t": 111428.61600000002,
      "d": 1857.1435999999958,
      "v": 98
    },
    {
      "midi": 77,
      "hit": false,
      "t": 111500.0446,
      "d": 1049.107562499994,
      "v": 98
    },
    {
      "midi": 74,
      "hit": false,
      "t": 112500.0449999998,
      "d": 522.3216375000047,
      "v": 60
    },
    {
      "midi": 72,
      "hit": false,
      "t": 112500.04499999998,
      "d": 522.3216375000047,
      "v": 64
    },
    {
      "midi": 72,
      "hit": false,
      "t": 113035.7594999998,
      "d": 522.3216375000047,
      "v": 60
    },
    {
      "midi": 77,
      "hit": false,
      "t": 113035.75949999999,
      "d": 522.3216375000047,
      "v": 80
    },
    {
      "midi": 57,
      "hit": false,
      "t": 113303.61675000002,
      "d": 258.92867500000284,
      "v": 98
    },
    {
      "midi": 74,
      "hit": false,
      "t": 113571.4739999998,
      "d": 522.3216375000047,
      "v": 60
    },
    {
      "midi": 72,
      "hit": false,
      "t": 113571.47399999999,
      "d": 522.3216375000047,
      "v": 98
    },
    {
      "midi": 55,
      "hit": false,
      "t": 113571.47400000002,
      "d": 1857.1435999999958,
      "v": 98
    },
    {
      "midi": 77,
      "hit": false,
      "t": 113607.1883,
      "d": 522.3216374999902,
      "v": 98
    },
    {
      "midi": 77,
      "hit": false,
      "t": 114107.1884999998,
      "d": 522.3216375000047,
      "v": 60
    },
    {
      "midi": 82,
      "hit": false,
      "t": 114107.18849999999,
      "d": 522.3216374999902,
      "v": 98
    },
    {
      "midi": 77,
      "hit": false,
      "t": 114642.9029999998,
      "d": 910.7146499999944,
      "v": 60
    },
    {
      "midi": 82,
      "hit": false,
      "t": 114642.90299999998,
      "d": 258.92867500000284,
      "v": 98
    },
    {
      "midi": 70,
      "hit": false,
      "t": 114910.76024999998,
      "d": 258.92867500000284,
      "v": 80
    },
    {
      "midi": 74,
      "hit": false,
      "t": 115178.61749999998,
      "d": 258.92867500000284,
      "v": 80
    },
    {
      "midi": 70,
      "hit": false,
      "t": 115446.47474999998,
      "d": 258.92867500000284,
      "v": 80
    },
    {
      "midi": 55,
      "hit": false,
      "t": 115446.47475000001,
      "d": 258.92867500000284,
      "v": 64
    },
    {
      "midi": 72,
      "hit": false,
      "t": 115714.33199999979,
      "d": 1049.107562499994,
      "v": 60
    },
    {
      "midi": 75,
      "hit": false,
      "t": 115714.33199999998,
      "d": 522.3216375000047,
      "v": 98
    },
    {
      "midi": 53,
      "hit": false,
      "t": 115714.33200000001,
      "d": 2098.2151250000024,
      "v": 98
    },
    {
      "midi": 68,
      "hit": false,
      "t": 116250.04649999998,
      "d": 522.3216375000047,
      "v": 80
    },
    {
      "midi": 70,
      "hit": false,
      "t": 116785.76099999978,
      "d": 522.3216375000047,
      "v": 60
    },
    {
      "midi": 72,
      "hit": false,
      "t": 116785.76099999998,
      "d": 522.3216375000047,
      "v": 80
    },
    {
      "midi": 74,
      "hit": false,
      "t": 117321.47549999978,
      "d": 522.3216375000047,
      "v": 60
    },
    {
      "midi": 75,
      "hit": false,
      "t": 117321.47549999999,
      "d": 522.3216375000047,
      "v": 98
    },
    {
      "midi": 72,
      "hit": false,
      "t": 117857.18999999978,
      "d": 1049.107562499994,
      "v": 60
    },
    {
      "midi": 74,
      "hit": false,
      "t": 117857.18999999999,
      "d": 522.3216375000047,
      "v": 98
    },
    {
      "midi": 53,
      "hit": false,
      "t": 117857.19000000002,
      "d": 1857.1435999999958,
      "v": 98
    },
    {
      "midi": 68,
      "hit": false,
      "t": 118392.90449999999,
      "d": 522.3216375000047,
      "v": 80
    },
    {
      "midi": 70,
      "hit": false,
      "t": 118928.61899999977,
      "d": 522.3216375000047,
      "v": 60
    },
    {
      "midi": 70,
      "hit": false,
      "t": 118928.61899999999,
      "d": 522.3216375000047,
      "v": 80
    },
    {
      "midi": 74,
      "hit": false,
      "t": 119464.33349999978,
      "d": 522.3216375000047,
      "v": 60
    },
    {
      "midi": 74,
      "hit": false,
      "t": 119464.3335,
      "d": 522.3216375000047,
      "v": 98
    },
    {
      "midi": 53,
      "hit": false,
      "t": 119732.19075000001,
      "d": 258.92867500000284,
      "v": 98
    },
    {
      "midi": 72,
      "hit": false,
      "t": 120000.04799999978,
      "d": 1049.107562499994,
      "v": 60
    },
    {
      "midi": 67,
      "hit": false,
      "t": 120000.048,
      "d": 522.3216375000047,
      "v": 80
    },
    {
      "midi": 52,
      "hit": false,
      "t": 120000.04800000001,
      "d": 4000.0016000000032,
      "v": 98
    },
    {
      "midi": 72,
      "hit": false,
      "t": 120035.7623,
      "d": 522.3216374999902,
      "v": 98
    },
    {
      "midi": 64,
      "hit": false,
      "t": 120535.7625,
      "d": 258.9286749999883,
      "v": 80
    },
    {
      "midi": 60,
      "hit": false,
      "t": 120803.61974999998,
      "d": 258.92867500000284,
      "v": 80
    },
    {
      "midi": 67,
      "hit": false,
      "t": 121071.47699999977,
      "d": 2825.893987499774,
      "v": 60
    },
    {
      "midi": 74,
      "hit": false,
      "t": 121071.47699999998,
      "d": 258.92867500000284,
      "v": 98
    },
    {
      "midi": 62,
      "hit": false,
      "t": 121071.47699999998,
      "d": 258.92867500000284,
      "v": 98
    },
    {
      "midi": 60,
      "hit": false,
      "t": 121339.33424999999,
      "d": 258.92867500000284,
      "v": 80
    },
    {
      "midi": 63,
      "hit": false,
      "t": 121607.19149999999,
      "d": 258.92867500000284,
      "v": 80
    },
    {
      "midi": 60,
      "hit": false,
      "t": 121875.04874999999,
      "d": 258.92867500000284,
      "v": 80
    },
    {
      "midi": 79,
      "hit": false,
      "t": 122142.90599999999,
      "d": 258.92867500000284,
      "v": 98
    },
    {
      "midi": 75,
      "hit": false,
      "t": 122410.76324999999,
      "d": 258.92867500000284,
      "v": 98
    },
    {
      "midi": 74,
      "hit": false,
      "t": 122678.62049999999,
      "d": 258.92867500000284,
      "v": 80
    },
    {
      "midi": 72,
      "hit": false,
      "t": 122946.47774999999,
      "d": 526.7859250000038,
      "v": 98
    },
    {
      "midi": 60,
      "hit": false,
      "t": 123214.33499999999,
      "d": 1049.1075625000085,
      "v": 80
    },
    {
      "midi": 74,
      "hit": false,
      "t": 123482.19225,
      "d": 258.92867500000284,
      "v": 80
    },
    {
      "midi": 72,
      "hit": false,
      "t": 123750.0495,
      "d": 522.3216375000047,
      "v": 98
    },
    {
      "midi": 43,
      "hit": false,
      "t": 124017.90675000001,
      "d": 258.92867500000284,
      "v": 80
    },
    {
      "midi": 72,
      "hit": false,
      "t": 124285.76399999954,
      "d": 1049.107562499994,
      "v": 60
    },
    {
      "midi": 63,
      "hit": false,
      "t": 124285.764,
      "d": 258.92867500000284,
      "v": 98
    },
    {
      "midi": 39,
      "hit": false,
      "t": 124285.76400000001,
      "d": 785.7146000000066,
      "v": 120
    },
    {
      "midi": 62,
      "hit": false,
      "t": 124553.62125,
      "d": 258.92867500000284,
      "v": 80
    },
    {
      "midi": 60,
      "hit": false,
      "t": 124821.4785,
      "d": 258.92867500000284,
      "v": 80
    },
    {
      "midi": 55,
      "hit": false,
      "t": 125089.33575,
      "d": 258.92867500000284,
      "v": 80
    },
    {
      "midi": 46,
      "hit": false,
      "t": 125089.33575000001,
      "d": 258.92867500000284,
      "v": 80
    },
    {
      "midi": 79,
      "hit": false,
      "t": 125357.19299999953,
      "d": 1049.107562499994,
      "v": 60
    },
    {
      "midi": 63,
      "hit": false,
      "t": 125357.193,
      "d": 258.92867500000284,
      "v": 98
    },
    {
      "midi": 51,
      "hit": false,
      "t": 125357.19300000001,
      "d": 1049.107562499994,
      "v": 80
    },
    {
      "midi": 62,
      "hit": false,
      "t": 125625.05025,
      "d": 258.92867500000284,
      "v": 80
    },
    {
      "midi": 60,
      "hit": false,
      "t": 125892.9075,
      "d": 258.92867500000284,
      "v": 80
    },
    {
      "midi": 55,
      "hit": false,
      "t": 126160.76475,
      "d": 258.92867500000284,
      "v": 80
    },
    {
      "midi": 79,
      "hit": false,
      "t": 126428.62199999952,
      "d": 812.5003250000009,
      "v": 60
    },
    {
      "midi": 65,
      "hit": false,
      "t": 126428.622,
      "d": 522.3216375000047,
      "v": 98
    },
    {
      "midi": 45,
      "hit": false,
      "t": 126428.622,
      "d": 2098.2151250000024,
      "v": 120
    },
    {
      "midi": 60,
      "hit": false,
      "t": 126964.3365,
      "d": 522.3216375000047,
      "v": 80
    },
    {
      "midi": 82,
      "hit": false,
      "t": 127500.05099999953,
      "d": 522.3216375000047,
      "v": 60
    },
    {
      "midi": 67,
      "hit": false,
      "t": 127500.051,
      "d": 522.3216375000047,
      "v": 98
    },
    {
      "midi": 72,
      "hit": false,
      "t": 127535.76530000001,
      "d": 522.3216374999902,
      "v": 98
    },
    {
      "midi": 81,
      "hit": false,
      "t": 128035.76549999953,
      "d": 522.3216375000047,
      "v": 60
    },
    {
      "midi": 60,
      "hit": false,
      "t": 128035.76550000001,
      "d": 522.3216374999902,
      "v": 64
    },
    {
      "midi": 77,
      "hit": false,
      "t": 128571.47999999953,
      "d": 1049.107562499994,
      "v": 60
    },
    {
      "midi": 65,
      "hit": false,
      "t": 128571.48,
      "d": 1049.107562499994,
      "v": 98
    },
    {
      "midi": 62,
      "hit": false,
      "t": 128571.48,
      "d": 1049.107562499994,
      "v": 80
    },
    {
      "midi": 46,
      "hit": false,
      "t": 128571.48000000001,
      "d": 2098.2151250000024,
      "v": 120
    },
    {
      "midi": 74,
      "hit": false,
      "t": 129642.90899999952,
      "d": 522.3216375000047,
      "v": 60
    },
    {
      "midi": 70,
      "hit": false,
      "t": 129642.90899999999,
      "d": 522.3216375000047,
      "v": 80
    },
    {
      "midi": 65,
      "hit": false,
      "t": 129642.90899999999,
      "d": 522.3216375000047,
      "v": 64
    },
    {
      "midi": 72,
      "hit": false,
      "t": 130178.62349999952,
      "d": 522.3216375000047,
      "v": 60
    },
    {
      "midi": 58,
      "hit": false,
      "t": 130178.62349999999,
      "d": 522.3216375000047,
      "v": 98
    },
    {
      "midi": 74,
      "hit": false,
      "t": 130714.33799999952,
      "d": 522.3216374999902,
      "v": 60
    },
    {
      "midi": 58,
      "hit": false,
      "t": 130714.33799999999,
      "d": 1049.107562499994,
      "v": 98
    },
    {
      "midi": 53,
      "hit": false,
      "t": 130714.33799999999,
      "d": 1049.107562499994,
      "v": 80
    },
    {
      "midi": 43,
      "hit": false,
      "t": 130714.33800000002,
      "d": 522.3216374999902,
      "v": 120
    },
    {
      "midi": 77,
      "hit": false,
      "t": 131250.05249999953,
      "d": 522.3216374999902,
      "v": 60
    },
    {
      "midi": 50,
      "hit": false,
      "t": 131250.05250000002,
      "d": 1330.3576750000066,
      "v": 120
    },
    {
      "midi": 77,
      "hit": false,
      "t": 131785.76699999953,
      "d": 812.5003250000009,
      "v": 60
    },
    {
      "midi": 58,
      "hit": false,
      "t": 131785.767,
      "d": 522.3216374999902,
      "v": 98
    },
    {
      "midi": 62,
      "hit": false,
      "t": 132321.4815,
      "d": 522.3216374999902,
      "v": 98
    },
    {
      "midi": 43,
      "hit": false,
      "t": 132589.33875000002,
      "d": 258.92867500000284,
      "v": 80
    },
    {
      "midi": 72,
      "hit": false,
      "t": 132857.19599999953,
      "d": 1049.107562499994,
      "v": 60
    },
    {
      "midi": 58,
      "hit": false,
      "t": 132857.196,
      "d": 1049.107562499994,
      "v": 80
    },
    {
      "midi": 41,
      "hit": false,
      "t": 132857.19600000003,
      "d": 2098.215124999988,
      "v": 120
    },
    {
      "midi": 63,
      "hit": false,
      "t": 132892.9103,
      "d": 1049.107562500023,
      "v": 98
    },
    {
      "midi": 70,
      "hit": false,
      "t": 133928.62499999953,
      "d": 522.3216374999902,
      "v": 60
    },
    {
      "midi": 70,
      "hit": false,
      "t": 133928.625,
      "d": 522.3216375000193,
      "v": 98
    },
    {
      "midi": 65,
      "hit": false,
      "t": 133928.625,
      "d": 522.3216375000193,
      "v": 98
    },
    {
      "midi": 74,
      "hit": false,
      "t": 134464.33949999954,
      "d": 522.3216374999902,
      "v": 60
    },
    {
      "midi": 63,
      "hit": false,
      "t": 134464.33950000003,
      "d": 522.3216374999902,
      "v": 80
    },
    {
      "midi": 72,
      "hit": false,
      "t": 135000.05399999954,
      "d": 910.714650000009,
      "v": 60
    },
    {
      "midi": 43,
      "hit": false,
      "t": 135000.054,
      "d": 2098.215124999988,
      "v": 120
    },
    {
      "midi": 65,
      "hit": false,
      "t": 135000.05400000003,
      "d": 1049.107562499994,
      "v": 98
    },
    {
      "midi": 58,
      "hit": false,
      "t": 135000.05400000003,
      "d": 1049.107562499994,
      "v": 80
    },
    {
      "midi": 70,
      "hit": false,
      "t": 136071.48299999954,
      "d": 522.3216374999902,
      "v": 60
    },
    {
      "midi": 65,
      "hit": false,
      "t": 136071.48300000004,
      "d": 522.3216374999902,
      "v": 98
    },
    {
      "midi": 70,
      "hit": false,
      "t": 136107.19730000003,
      "d": 522.3216375000193,
      "v": 98
    },
    {
      "midi": 74,
      "hit": false,
      "t": 136607.19749999954,
      "d": 522.3216374999902,
      "v": 60
    },
    {
      "midi": 74,
      "hit": false,
      "t": 136607.19750000004,
      "d": 522.3216374999902,
      "v": 105
    },
    {
      "midi": 72,
      "hit": false,
      "t": 137142.91199999955,
      "d": 3857.144399999641,
      "v": 60
    },
    {
      "midi": 75,
      "hit": false,
      "t": 137142.91200000004,
      "d": 258.92867500000284,
      "v": 110
    },
    {
      "midi": 62,
      "hit": false,
      "t": 137410.76925000004,
      "d": 258.92867500000284,
      "v": 90
    },
    {
      "midi": 63,
      "hit": false,
      "t": 137678.62650000004,
      "d": 258.92867500000284,
      "v": 90
    },
    {
      "midi": 67,
      "hit": false,
      "t": 137946.48375000004,
      "d": 258.92867500000284,
      "v": 90
    },
    {
      "midi": 60,
      "hit": false,
      "t": 138214.34100000004,
      "d": 258.92867500000284,
      "v": 108
    },
    {
      "midi": 62,
      "hit": false,
      "t": 138482.19825000004,
      "d": 258.92867500000284,
      "v": 90
    },
    {
      "midi": 63,
      "hit": false,
      "t": 138750.05550000005,
      "d": 258.92867500000284,
      "v": 90
    },
    {
      "midi": 67,
      "hit": false,
      "t": 139017.91275000005,
      "d": 258.92867500000284,
      "v": 90
    },
    {
      "midi": 60,
      "hit": false,
      "t": 139285.77000000005,
      "d": 258.92867500000284,
      "v": 108
    },
    {
      "midi": 62,
      "hit": false,
      "t": 139553.62725000005,
      "d": 258.92867500000284,
      "v": 90
    },
    {
      "midi": 63,
      "hit": false,
      "t": 139821.48450000005,
      "d": 258.92867500000284,
      "v": 90
    },
    {
      "midi": 67,
      "hit": false,
      "t": 140089.34175000005,
      "d": 258.92867500000284,
      "v": 90
    },
    {
      "midi": 60,
      "hit": false,
      "t": 140357.19900000005,
      "d": 258.92867500000284,
      "v": 108
    },
    {
      "midi": 62,
      "hit": false,
      "t": 140625.05625000005,
      "d": 258.92867500000284,
      "v": 90
    },
    {
      "midi": 63,
      "hit": false,
      "t": 140892.91350000005,
      "d": 258.92867500000284,
      "v": 90
    },
    {
      "midi": 67,
      "hit": false,
      "t": 141160.77075000005,
      "d": 258.92867500000284,
      "v": 90
    },
    {
      "midi": 58,
      "hit": false,
      "t": 141428.628,
      "d": 4196.430250000005,
      "v": 98
    },
    {
      "midi": 60,
      "hit": false,
      "t": 141428.62800000006,
      "d": 258.92867500000284,
      "v": 108
    },
    {
      "midi": 62,
      "hit": false,
      "t": 141696.48525000006,
      "d": 258.92867500000284,
      "v": 90
    },
    {
      "midi": 63,
      "hit": false,
      "t": 141964.34250000006,
      "d": 258.92867500000284,
      "v": 90
    },
    {
      "midi": 67,
      "hit": false,
      "t": 142232.19975000006,
      "d": 258.92867500000284,
      "v": 90
    },
    {
      "midi": 60,
      "hit": false,
      "t": 142500.05700000006,
      "d": 258.92867500000284,
      "v": 108
    },
    {
      "midi": 62,
      "hit": false,
      "t": 142767.91425000006,
      "d": 258.92867500000284,
      "v": 90
    },
    {
      "midi": 63,
      "hit": false,
      "t": 143035.77150000006,
      "d": 258.92867500000284,
      "v": 90
    },
    {
      "midi": 67,
      "hit": false,
      "t": 143303.62875000006,
      "d": 258.92867500000284,
      "v": 90
    },
    {
      "midi": 60,
      "hit": false,
      "t": 143571.48600000006,
      "d": 258.92867500000284,
      "v": 90
    },
    {
      "midi": 62,
      "hit": false,
      "t": 143839.34325000006,
      "d": 258.92867500000284,
      "v": 90
    },
    {
      "midi": 63,
      "hit": false,
      "t": 144107.20050000006,
      "d": 258.92867500000284,
      "v": 90
    },
    {
      "midi": 67,
      "hit": false,
      "t": 144375.05775000007,
      "d": 258.92867500000284,
      "v": 90
    },
    {
      "midi": 60,
      "hit": false,
      "t": 144642.91500000007,
      "d": 258.92867500000284,
      "v": 108
    },
    {
      "midi": 62,
      "hit": false,
      "t": 144910.77225000007,
      "d": 258.92867500000284,
      "v": 90
    },
    {
      "midi": 63,
      "hit": false,
      "t": 145178.62950000007,
      "d": 258.92867500000284,
      "v": 90
    },
    {
      "midi": 67,
      "hit": false,
      "t": 145446.48675000007,
      "d": 258.92867500000284,
      "v": 90
    },
    {
      "midi": 58,
      "hit": false,
      "t": 145714.344,
      "d": 4196.4302499998885,
      "v": 98
    },
    {
      "midi": 60,
      "hit": false,
      "t": 145714.34400000007,
      "d": 258.92867500000284,
      "v": 108
    },
    {
      "midi": 62,
      "hit": false,
      "t": 145982.20125000007,
      "d": 258.92867500000284,
      "v": 95
    },
    {
      "midi": 63,
      "hit": false,
      "t": 146250.05850000007,
      "d": 258.92867500000284,
      "v": 92
    },
    {
      "midi": 67,
      "hit": false,
      "t": 146517.91575000007,
      "d": 258.92867500000284,
      "v": 89
    },
    {
      "midi": 60,
      "hit": false,
      "t": 146785.77300000007,
      "d": 258.92867500000284,
      "v": 95
    },
    {
      "midi": 62,
      "hit": false,
      "t": 147053.63025000007,
      "d": 258.92867500000284,
      "v": 82
    },
    {
      "midi": 63,
      "hit": false,
      "t": 147321.48750000008,
      "d": 258.92867499997374,
      "v": 79
    },
    {
      "midi": 67,
      "hit": false,
      "t": 147589.34475000005,
      "d": 258.92867499997374,
      "v": 76
    },
    {
      "midi": 60,
      "hit": false,
      "t": 147857.20200000002,
      "d": 258.92867500000284,
      "v": 82
    },
    {
      "midi": 62,
      "hit": false,
      "t": 148125.05925000002,
      "d": 258.92867500000284,
      "v": 69
    },
    {
      "midi": 63,
      "hit": false,
      "t": 148392.91650000002,
      "d": 258.92867500000284,
      "v": 66
    },
    {
      "midi": 67,
      "hit": false,
      "t": 148660.77375000002,
      "d": 258.92867499997374,
      "v": 63
    },
    {
      "midi": 60,
      "hit": false,
      "t": 148928.631,
      "d": 258.92867500000284,
      "v": 69
    },
    {
      "midi": 62,
      "hit": false,
      "t": 149196.48825,
      "d": 258.92867500000284,
      "v": 66
    },
    {
      "midi": 63,
      "hit": false,
      "t": 149464.3455,
      "d": 258.92867500000284,
      "v": 63
    },
    {
      "midi": 67,
      "hit": false,
      "t": 149732.20275,
      "d": 258.92867500003194,
      "v": 60
    },
    {
      "midi": 58,
      "hit": false,
      "t": 150000.05999999988,
      "d": 4196.430250000005,
      "v": 88
    },
    {
      "midi": 60,
      "hit": false,
      "t": 150000.06000000003,
      "d": 258.92867500000284,
      "v": 88
    },
    {
      "midi": 62,
      "hit": false,
      "t": 150267.91725000003,
      "d": 258.92867500000284,
      "v": 70
    },
    {
      "midi": 63,
      "hit": false,
      "t": 150535.77450000003,
      "d": 258.92867500000284,
      "v": 70
    },
    {
      "midi": 67,
      "hit": false,
      "t": 150803.63175000003,
      "d": 258.92867500000284,
      "v": 70
    },
    {
      "midi": 75,
      "hit": false,
      "t": 151071.48899999913,
      "d": 522.3216374999902,
      "v": 80
    },
    {
      "midi": 60,
      "hit": false,
      "t": 151071.48900000003,
      "d": 258.92867500000284,
      "v": 88
    },
    {
      "midi": 62,
      "hit": false,
      "t": 151339.34625000003,
      "d": 258.92867500000284,
      "v": 70
    },
    {
      "midi": 79,
      "hit": false,
      "t": 151607.20349999913,
      "d": 522.3216374999902,
      "v": 80
    },
    {
      "midi": 63,
      "hit": false,
      "t": 151607.20350000003,
      "d": 258.92867500000284,
      "v": 70
    },
    {
      "midi": 67,
      "hit": false,
      "t": 151875.06075000003,
      "d": 258.92867500000284,
      "v": 70
    },
    {
      "midi": 79,
      "hit": false,
      "t": 152142.91799999913,
      "d": 2098.215124999988,
      "v": 80
    },
    {
      "midi": 60,
      "hit": false,
      "t": 152142.91800000003,
      "d": 258.92867500000284,
      "v": 88
    },
    {
      "midi": 62,
      "hit": false,
      "t": 152410.77525000004,
      "d": 258.92867500000284,
      "v": 70
    },
    {
      "midi": 63,
      "hit": false,
      "t": 152678.63250000004,
      "d": 258.92867500000284,
      "v": 70
    },
    {
      "midi": 67,
      "hit": false,
      "t": 152946.48975000004,
      "d": 258.92867500000284,
      "v": 70
    },
    {
      "midi": 60,
      "hit": false,
      "t": 153214.34700000004,
      "d": 258.92867500000284,
      "v": 88
    },
    {
      "midi": 62,
      "hit": false,
      "t": 153482.20425000004,
      "d": 258.92867500000284,
      "v": 70
    },
    {
      "midi": 63,
      "hit": false,
      "t": 153750.06150000004,
      "d": 258.92867500000284,
      "v": 70
    },
    {
      "midi": 67,
      "hit": false,
      "t": 154017.91875000004,
      "d": 258.92867500000284,
      "v": 70
    },
    {
      "midi": 58,
      "hit": false,
      "t": 154285.7759999999,
      "d": 4196.430250000005,
      "v": 88
    },
    {
      "midi": 60,
      "hit": false,
      "t": 154285.77600000004,
      "d": 258.92867500000284,
      "v": 88
    },
    {
      "midi": 62,
      "hit": false,
      "t": 154553.63325000004,
      "d": 258.92867500000284,
      "v": 70
    },
    {
      "midi": 63,
      "hit": false,
      "t": 154821.49050000004,
      "d": 258.92867500000284,
      "v": 70
    },
    {
      "midi": 67,
      "hit": false,
      "t": 155089.34775000004,
      "d": 258.92867500000284,
      "v": 70
    },
    {
      "midi": 77,
      "hit": false,
      "t": 155357.2049999991,
      "d": 522.3216374999902,
      "v": 80
    },
    {
      "midi": 60,
      "hit": false,
      "t": 155357.20500000005,
      "d": 258.92867500000284,
      "v": 88
    },
    {
      "midi": 62,
      "hit": false,
      "t": 155625.06225000005,
      "d": 258.92867500000284,
      "v": 70
    },
    {
      "midi": 75,
      "hit": false,
      "t": 155892.91949999912,
      "d": 522.3216374999902,
      "v": 80
    },
    {
      "midi": 63,
      "hit": false,
      "t": 155892.91950000005,
      "d": 258.92867500000284,
      "v": 70
    },
    {
      "midi": 67,
      "hit": false,
      "t": 156160.77675000005,
      "d": 258.92867500000284,
      "v": 70
    },
    {
      "midi": 74,
      "hit": false,
      "t": 156428.63399999912,
      "d": 1049.107562499994,
      "v": 80
    },
    {
      "midi": 60,
      "hit": false,
      "t": 156428.63400000005,
      "d": 258.92867500000284,
      "v": 88
    },
    {
      "midi": 62,
      "hit": false,
      "t": 156696.49125000005,
      "d": 258.92867500000284,
      "v": 70
    },
    {
      "midi": 63,
      "hit": false,
      "t": 156964.34850000005,
      "d": 258.92867500000284,
      "v": 70
    },
    {
      "midi": 67,
      "hit": false,
      "t": 157232.20575000005,
      "d": 258.92867500000284,
      "v": 70
    },
    {
      "midi": 75,
      "hit": false,
      "t": 157500.06299999912,
      "d": 522.3216374999902,
      "v": 80
    },
    {
      "midi": 60,
      "hit": false,
      "t": 157500.06300000005,
      "d": 258.92867500000284,
      "v": 88
    },
    {
      "midi": 62,
      "hit": false,
      "t": 157767.92025000005,
      "d": 258.92867500000284,
      "v": 70
    },
    {
      "midi": 77,
      "hit": false,
      "t": 158035.77749999912,
      "d": 522.3216374999902,
      "v": 80
    },
    {
      "midi": 63,
      "hit": false,
      "t": 158035.77750000005,
      "d": 258.92867500000284,
      "v": 70
    },
    {
      "midi": 67,
      "hit": false,
      "t": 158303.63475000006,
      "d": 258.92867500000284,
      "v": 70
    },
    {
      "midi": 74,
      "hit": false,
      "t": 158571.49199999913,
      "d": 3553.572849999997,
      "v": 80
    },
    {
      "midi": 58,
      "hit": false,
      "t": 158571.4919999999,
      "d": 4196.430250000005,
      "v": 88
    },
    {
      "midi": 60,
      "hit": false,
      "t": 158571.49200000006,
      "d": 258.92867500000284,
      "v": 88
    },
    {
      "midi": 62,
      "hit": false,
      "t": 158839.34925000006,
      "d": 258.92867500000284,
      "v": 70
    },
    {
      "midi": 63,
      "hit": false,
      "t": 159107.20650000006,
      "d": 258.92867500000284,
      "v": 70
    },
    {
      "midi": 66,
      "hit": false,
      "t": 159375.06375000006,
      "d": 258.92867500000284,
      "v": 88
    },
    {
      "midi": 60,
      "hit": false,
      "t": 159642.92100000006,
      "d": 258.92867500000284,
      "v": 88
    },
    {
      "midi": 62,
      "hit": false,
      "t": 159910.77825000006,
      "d": 258.92867500000284,
      "v": 70
    },
    {
      "midi": 63,
      "hit": false,
      "t": 160178.63550000006,
      "d": 258.92867500000284,
      "v": 70
    },
    {
      "midi": 66,
      "hit": false,
      "t": 160446.49275000006,
      "d": 258.92867500000284,
      "v": 70
    },
    {
      "midi": 60,
      "hit": false,
      "t": 160714.35000000006,
      "d": 258.92867500000284,
      "v": 88
    },
    {
      "midi": 62,
      "hit": false,
      "t": 160982.20725000006,
      "d": 258.92867500000284,
      "v": 70
    },
    {
      "midi": 63,
      "hit": false,
      "t": 161250.06450000007,
      "d": 258.92867500000284,
      "v": 70
    },
    {
      "midi": 66,
      "hit": false,
      "t": 161517.92175000007,
      "d": 258.92867500000284,
      "v": 88
    },
    {
      "midi": 60,
      "hit": false,
      "t": 161785.77900000007,
      "d": 258.92867500000284,
      "v": 88
    },
    {
      "midi": 62,
      "hit": false,
      "t": 162053.63625000007,
      "d": 258.92867500000284,
      "v": 70
    },
    {
      "midi": 64,
      "hit": false,
      "t": 162321.49350000007,
      "d": 258.92867500000284,
      "v": 70
    },
    {
      "midi": 66,
      "hit": false,
      "t": 162589.35075000007,
      "d": 258.92867500000284,
      "v": 70
    },
    {
      "midi": 58,
      "hit": false,
      "t": 162857.20799999993,
      "d": 4196.430250000005,
      "v": 88
    },
    {
      "midi": 60,
      "hit": false,
      "t": 162857.20800000007,
      "d": 258.92867500000284,
      "v": 88
    },
    {
      "midi": 62,
      "hit": false,
      "t": 163125.06525000007,
      "d": 258.92867500000284,
      "v": 70
    },
    {
      "midi": 63,
      "hit": false,
      "t": 163392.92250000007,
      "d": 258.92867500000284,
      "v": 70
    },
    {
      "midi": 67,
      "hit": false,
      "t": 163660.77975000007,
      "d": 258.92867500000284,
      "v": 70
    },
    {
      "midi": 75,
      "hit": false,
      "t": 163928.63699999911,
      "d": 522.3216374999902,
      "v": 80
    },
    {
      "midi": 60,
      "hit": false,
      "t": 163928.63700000008,
      "d": 258.92867500000284,
      "v": 88
    },
    {
      "midi": 62,
      "hit": false,
      "t": 164196.49425000008,
      "d": 258.92867500000284,
      "v": 70
    },
    {
      "midi": 79,
      "hit": false,
      "t": 164464.35149999912,
      "d": 522.3216374999902,
      "v": 80
    },
    {
      "midi": 63,
      "hit": false,
      "t": 164464.35150000008,
      "d": 258.92867500000284,
      "v": 70
    },
    {
      "midi": 67,
      "hit": false,
      "t": 164732.20875000008,
      "d": 258.92867500000284,
      "v": 70
    },
    {
      "midi": 79,
      "hit": false,
      "t": 165000.06599999912,
      "d": 2098.215124999988,
      "v": 80
    },
    {
      "midi": 60,
      "hit": false,
      "t": 165000.06600000008,
      "d": 258.92867500000284,
      "v": 88
    },
    {
      "midi": 62,
      "hit": false,
      "t": 165267.92325000008,
      "d": 258.92867500000284,
      "v": 70
    },
    {
      "midi": 63,
      "hit": false,
      "t": 165535.78050000008,
      "d": 258.92867500000284,
      "v": 70
    },
    {
      "midi": 67,
      "hit": false,
      "t": 165803.63775000008,
      "d": 258.92867500000284,
      "v": 70
    },
    {
      "midi": 60,
      "hit": false,
      "t": 166071.49500000008,
      "d": 258.92867500000284,
      "v": 88
    },
    {
      "midi": 62,
      "hit": false,
      "t": 166339.35225000008,
      "d": 258.92867500000284,
      "v": 70
    },
    {
      "midi": 63,
      "hit": false,
      "t": 166607.20950000008,
      "d": 258.92867500000284,
      "v": 70
    },
    {
      "midi": 67,
      "hit": false,
      "t": 166875.0667500001,
      "d": 258.92867500000284,
      "v": 70
    },
    {
      "midi": 58,
      "hit": false,
      "t": 167142.92399999994,
      "d": 4196.430250000005,
      "v": 88
    },
    {
      "midi": 60,
      "hit": false,
      "t": 167142.9240000001,
      "d": 258.92867500000284,
      "v": 88
    },
    {
      "midi": 62,
      "hit": false,
      "t": 167410.7812500001,
      "d": 258.92867500000284,
      "v": 70
    },
    {
      "midi": 63,
      "hit": false,
      "t": 167678.6385000001,
      "d": 258.92867500000284,
      "v": 70
    },
    {
      "midi": 67,
      "hit": false,
      "t": 167946.4957500001,
      "d": 258.92867500000284,
      "v": 70
    },
    {
      "midi": 77,
      "hit": false,
      "t": 168214.3529999991,
      "d": 522.3216374999902,
      "v": 80
    },
    {
      "midi": 60,
      "hit": false,
      "t": 168214.3530000001,
      "d": 258.92867500000284,
      "v": 88
    },
    {
      "midi": 62,
      "hit": false,
      "t": 168482.2102500001,
      "d": 258.92867500000284,
      "v": 70
    },
    {
      "midi": 75,
      "hit": false,
      "t": 168750.0674999991,
      "d": 522.3216374999902,
      "v": 80
    },
    {
      "midi": 63,
      "hit": false,
      "t": 168750.0675000001,
      "d": 258.92867500000284,
      "v": 70
    },
    {
      "midi": 67,
      "hit": false,
      "t": 169017.9247500001,
      "d": 258.92867500000284,
      "v": 70
    },
    {
      "midi": 74,
      "hit": false,
      "t": 169285.7819999991,
      "d": 1049.107562499994,
      "v": 80
    },
    {
      "midi": 60,
      "hit": false,
      "t": 169285.7820000001,
      "d": 258.92867500000284,
      "v": 88
    },
    {
      "midi": 62,
      "hit": false,
      "t": 169553.6392500001,
      "d": 258.92867500000284,
      "v": 70
    },
    {
      "midi": 63,
      "hit": false,
      "t": 169821.4965000001,
      "d": 258.92867500000284,
      "v": 70
    },
    {
      "midi": 67,
      "hit": false,
      "t": 170089.3537500001,
      "d": 258.92867500000284,
      "v": 70
    },
    {
      "midi": 75,
      "hit": false,
      "t": 170357.2109999991,
      "d": 522.3216374999902,
      "v": 80
    },
    {
      "midi": 60,
      "hit": false,
      "t": 170357.2110000001,
      "d": 258.92867500000284,
      "v": 88
    },
    {
      "midi": 62,
      "hit": false,
      "t": 170625.0682500001,
      "d": 258.92867500000284,
      "v": 70
    },
    {
      "midi": 79,
      "hit": false,
      "t": 170892.9254999991,
      "d": 522.3216374999902,
      "v": 80
    },
    {
      "midi": 63,
      "hit": false,
      "t": 170892.9255000001,
      "d": 258.92867500000284,
      "v": 70
    },
    {
      "midi": 67,
      "hit": false,
      "t": 171160.7827500001,
      "d": 258.92867500000284,
      "v": 70
    },
    {
      "midi": 79,
      "hit": false,
      "t": 171428.6399999991,
      "d": 888.3932124999992,
      "v": 80
    },
    {
      "midi": 57,
      "hit": false,
      "t": 171428.63999999996,
      "d": 4196.430249999976,
      "v": 88
    },
    {
      "midi": 60,
      "hit": false,
      "t": 171428.6400000001,
      "d": 258.92867500000284,
      "v": 88
    },
    {
      "midi": 62,
      "hit": false,
      "t": 171696.4972500001,
      "d": 258.92867500000284,
      "v": 70
    },
    {
      "midi": 63,
      "hit": false,
      "t": 171964.3545000001,
      "d": 258.92867500000284,
      "v": 70
    },
    {
      "midi": 67,
      "hit": false,
      "t": 172232.2117500001,
      "d": 258.92867500000284,
      "v": 70
    },
    {
      "midi": 77,
      "hit": false,
      "t": 172500.06899999912,
      "d": 522.3216374999902,
      "v": 80
    },
    {
      "midi": 60,
      "hit": false,
      "t": 172500.0690000001,
      "d": 258.92867500000284,
      "v": 88
    },
    {
      "midi": 62,
      "hit": false,
      "t": 172767.9262500001,
      "d": 258.92867500000284,
      "v": 70
    },
    {
      "midi": 75,
      "hit": false,
      "t": 173035.78349999912,
      "d": 522.3216374999902,
      "v": 80
    },
    {
      "midi": 63,
      "hit": false,
      "t": 173035.7835000001,
      "d": 258.92867500000284,
      "v": 70
    },
    {
      "midi": 67,
      "hit": false,
      "t": 173303.6407500001,
      "d": 258.92867500000284,
      "v": 70
    },
    {
      "midi": 74,
      "hit": false,
      "t": 173571.49799999912,
      "d": 888.3932124999992,
      "v": 80
    },
    {
      "midi": 60,
      "hit": false,
      "t": 173571.4980000001,
      "d": 258.92867500000284,
      "v": 70
    },
    {
      "midi": 62,
      "hit": false,
      "t": 173839.3552500001,
      "d": 258.92867500000284,
      "v": 70
    },
    {
      "midi": 63,
      "hit": false,
      "t": 174107.2125000001,
      "d": 258.92867500000284,
      "v": 70
    },
    {
      "midi": 67,
      "hit": false,
      "t": 174375.0697500001,
      "d": 258.92867500000284,
      "v": 70
    },
    {
      "midi": 75,
      "hit": false,
      "t": 174642.92699999912,
      "d": 522.3216374999902,
      "v": 80
    },
    {
      "midi": 60,
      "hit": false,
      "t": 174642.9270000001,
      "d": 258.92867500000284,
      "v": 88
    },
    {
      "midi": 62,
      "hit": false,
      "t": 174910.7842500001,
      "d": 258.92867500000284,
      "v": 70
    },
    {
      "midi": 79,
      "hit": false,
      "t": 175178.64149999912,
      "d": 522.3216374999902,
      "v": 80
    },
    {
      "midi": 63,
      "hit": false,
      "t": 175178.6415000001,
      "d": 258.92867500000284,
      "v": 70
    },
    {
      "midi": 67,
      "hit": false,
      "t": 175446.49875000012,
      "d": 258.92867500000284,
      "v": 70
    },
    {
      "midi": 79,
      "hit": false,
      "t": 175714.35599999913,
      "d": 1049.107562499994,
      "v": 80
    },
    {
      "midi": 55,
      "hit": false,
      "t": 175714.35599999994,
      "d": 2098.215125000017,
      "v": 98
    },
    {
      "midi": 60,
      "hit": false,
      "t": 175714.35600000012,
      "d": 258.92867500000284,
      "v": 98
    },
    {
      "midi": 62,
      "hit": false,
      "t": 175982.21325000012,
      "d": 258.92867500000284,
      "v": 80
    },
    {
      "midi": 63,
      "hit": false,
      "t": 176250.07050000015,
      "d": 258.92867500000284,
      "v": 80
    },
    {
      "midi": 67,
      "hit": false,
      "t": 176517.92775000015,
      "d": 258.92867500000284,
      "v": 80
    },
    {
      "midi": 77,
      "hit": false,
      "t": 176785.78499999913,
      "d": 522.3216374999902,
      "v": 80
    },
    {
      "midi": 60,
      "hit": false,
      "t": 176785.78500000015,
      "d": 258.92867500000284,
      "v": 98
    },
    {
      "midi": 62,
      "hit": false,
      "t": 177053.64225000015,
      "d": 258.92867500000284,
      "v": 80
    },
    {
      "midi": 75,
      "hit": false,
      "t": 177321.49949999913,
      "d": 522.3216374999902,
      "v": 80
    },
    {
      "midi": 63,
      "hit": false,
      "t": 177321.49950000015,
      "d": 258.92867500000284,
      "v": 80
    },
    {
      "midi": 67,
      "hit": false,
      "t": 177589.35675000015,
      "d": 258.92867500000284,
      "v": 80
    },
    {
      "midi": 74,
      "hit": false,
      "t": 177857.21399999913,
      "d": 1049.107562499994,
      "v": 80
    },
    {
      "midi": 53,
      "hit": false,
      "t": 177857.21399999995,
      "d": 2098.215124999988,
      "v": 98
    },
    {
      "midi": 69,
      "hit": false,
      "t": 177857.21400000015,
      "d": 258.92867500000284,
      "v": 98
    },
    {
      "midi": 60,
      "hit": false,
      "t": 178125.07125000015,
      "d": 258.92867500000284,
      "v": 80
    },
    {
      "midi": 62,
      "hit": false,
      "t": 178392.92850000015,
      "d": 258.92867500000284,
      "v": 80
    },
    {
      "midi": 63,
      "hit": false,
      "t": 178660.78575000016,
      "d": 258.92867500000284,
      "v": 98
    },
    {
      "midi": 79,
      "hit": false,
      "t": 178928.64299999914,
      "d": 522.3216374999902,
      "v": 80
    },
    {
      "midi": 69,
      "hit": false,
      "t": 178928.64300000016,
      "d": 258.92867500000284,
      "v": 98
    },
    {
      "midi": 62,
      "hit": false,
      "t": 179196.50025000016,
      "d": 258.92867500000284,
      "v": 80
    },
    {
      "midi": 82,
      "hit": false,
      "t": 179464.35749999914,
      "d": 4732.144750000007,
      "v": 80
    },
    {
      "midi": 63,
      "hit": false,
      "t": 179464.35750000016,
      "d": 258.92867500000284,
      "v": 80
    },
    {
      "midi": 67,
      "hit": false,
      "t": 179732.21475000016,
      "d": 258.92867500003194,
      "v": 80
    },
    {
      "midi": 46,
      "hit": false,
      "t": 180000.07199999993,
      "d": 258.92867500000284,
      "v": 105
    },
    {
      "midi": 65,
      "hit": false,
      "t": 180000.0720000002,
      "d": 1049.107562499994,
      "v": 80
    },
    {
      "midi": 70,
      "hit": false,
      "t": 180035.78630000018,
      "d": 1049.107562500023,
      "v": 98
    },
    {
      "midi": 53,
      "hit": false,
      "t": 180267.92924999993,
      "d": 258.92867500000284,
      "v": 80
    },
    {
      "midi": 58,
      "hit": false,
      "t": 180535.78649999993,
      "d": 1584.8220624999958,
      "v": 98
    },
    {
      "midi": 67,
      "hit": false,
      "t": 181071.5010000002,
      "d": 258.92867500000284,
      "v": 98
    },
    {
      "midi": 70,
      "hit": false,
      "t": 181339.3582500002,
      "d": 258.92867500000284,
      "v": 80
    },
    {
      "midi": 67,
      "hit": false,
      "t": 181607.2155000002,
      "d": 258.92867500000284,
      "v": 80
    },
    {
      "midi": 70,
      "hit": false,
      "t": 181875.0727500002,
      "d": 258.92867500000284,
      "v": 80
    },
    {
      "midi": 58,
      "hit": false,
      "t": 182142.92999999993,
      "d": 2098.215124999988,
      "v": 98
    },
    {
      "midi": 75,
      "hit": false,
      "t": 182142.9300000002,
      "d": 258.92867500000284,
      "v": 98
    },
    {
      "midi": 67,
      "hit": false,
      "t": 182410.7872500002,
      "d": 258.92867500000284,
      "v": 80
    },
    {
      "midi": 70,
      "hit": false,
      "t": 182678.6445000002,
      "d": 258.92867500000284,
      "v": 80
    },
    {
      "midi": 74,
      "hit": false,
      "t": 182946.5017500002,
      "d": 258.92867500000284,
      "v": 80
    },
    {
      "midi": 75,
      "hit": false,
      "t": 183214.3590000002,
      "d": 258.92867500000284,
      "v": 98
    },
    {
      "midi": 79,
      "hit": false,
      "t": 183482.2162500002,
      "d": 258.92867500000284,
      "v": 80
    },
    {
      "midi": 72,
      "hit": false,
      "t": 183750.0735000002,
      "d": 258.92867500000284,
      "v": 80
    },
    {
      "midi": 75,
      "hit": false,
      "t": 184017.9307500002,
      "d": 258.92867500000284,
      "v": 98
    },
    {
      "midi": 59,
      "hit": false,
      "t": 184285.7879999999,
      "d": 2401.7866750000103,
      "v": 105
    },
    {
      "midi": 77,
      "hit": false,
      "t": 184285.7880000002,
      "d": 258.92867500000284,
      "v": 80
    },
    {
      "midi": 82,
      "hit": false,
      "t": 184321.5023000002,
      "d": 258.92867500000284,
      "v": 98
    },
    {
      "midi": 65,
      "hit": false,
      "t": 184553.6452500002,
      "d": 258.92867500000284,
      "v": 80
    },
    {
      "midi": 68,
      "hit": false,
      "t": 184821.5025000002,
      "d": 258.92867500000284,
      "v": 80
    },
    {
      "midi": 71,
      "hit": false,
      "t": 185089.3597500002,
      "d": 258.92867500000284,
      "v": 80
    },
    {
      "midi": 80,
      "hit": false,
      "t": 185357.21699999916,
      "d": 1330.3576750000066,
      "v": 80
    },
    {
      "midi": 74,
      "hit": false,
      "t": 185357.2170000002,
      "d": 258.92867500000284,
      "v": 80
    },
    {
      "midi": 78,
      "hit": false,
      "t": 185625.0742500002,
      "d": 258.92867500000284,
      "v": 80
    },
    {
      "midi": 79,
      "hit": false,
      "t": 185892.9315000002,
      "d": 258.92867500000284,
      "v": 80
    },
    {
      "midi": 71,
      "hit": false,
      "t": 186160.7887500002,
      "d": 258.92867500000284,
      "v": 80
    },
    {
      "midi": 74,
      "hit": false,
      "t": 186428.6460000002,
      "d": 258.92867500000284,
      "v": 80
    },
    {
      "midi": 79,
      "hit": false,
      "t": 186696.50324999916,
      "d": 4196.430250000005,
      "v": 80
    },
    {
      "midi": 36,
      "hit": false,
      "t": 186696.50324999992,
      "d": 258.92867500000284,
      "v": 70
    },
    {
      "midi": 76,
      "hit": false,
      "t": 186696.5032500002,
      "d": 785.7146000000066,
      "v": 80
    },
    {
      "midi": 79,
      "hit": false,
      "t": 186732.2175500002,
      "d": 785.7146000000066,
      "v": 80
    },
    {
      "midi": 43,
      "hit": false,
      "t": 186964.36049999992,
      "d": 258.92867500000284,
      "v": 80
    },
    {
      "midi": 48,
      "hit": false,
      "t": 187232.21774999992,
      "d": 3464.287099999987,
      "v": 80
    },
    {
      "midi": 59,
      "hit": false,
      "t": 187500.07500000022,
      "d": 258.92867500000284,
      "v": 70
    },
    {
      "midi": 60,
      "hit": false,
      "t": 187767.93225000022,
      "d": 258.92867500000284,
      "v": 70
    },
    {
      "midi": 62,
      "hit": false,
      "t": 188035.78950000022,
      "d": 258.92867500000284,
      "v": 80
    },
    {
      "midi": 55,
      "hit": false,
      "t": 188303.64675000022,
      "d": 258.92867500000284,
      "v": 80
    },
    {
      "midi": 60,
      "hit": false,
      "t": 188571.50400000022,
      "d": 258.92867500000284,
      "v": 80
    },
    {
      "midi": 64,
      "hit": false,
      "t": 188839.36125000022,
      "d": 258.92867500000284,
      "v": 70
    },
    {
      "midi": 67,
      "hit": false,
      "t": 189107.21850000022,
      "d": 258.92867500000284,
      "v": 80
    },
    {
      "midi": 72,
      "hit": false,
      "t": 189375.07575000022,
      "d": 258.92867500000284,
      "v": 80
    },
    {
      "midi": 74,
      "hit": false,
      "t": 189642.93300000022,
      "d": 258.92867500000284,
      "v": 70
    },
    {
      "midi": 79,
      "hit": false,
      "t": 189910.79025000022,
      "d": 258.92867500000284,
      "v": 70
    },
    {
      "midi": 74,
      "hit": false,
      "t": 190178.64750000022,
      "d": 258.92867500000284,
      "v": 80
    },
    {
      "midi": 72,
      "hit": false,
      "t": 190446.50475000023,
      "d": 522.3216375000193,
      "v": 70
    },
    {
      "midi": 43,
      "hit": false,
      "t": 190714.3619999999,
      "d": 258.92867500000284,
      "v": 80
    },
    {
      "midi": 36,
      "hit": false,
      "t": 190982.2192499999,
      "d": 258.92867500000284,
      "v": 70
    },
    {
      "midi": 72,
      "hit": false,
      "t": 190982.21925000026,
      "d": 785.7146000000066,
      "v": 80
    },
    {
      "midi": 74,
      "hit": false,
      "t": 191017.93355000025,
      "d": 785.7146000000066,
      "v": 80
    },
    {
      "midi": 43,
      "hit": false,
      "t": 191250.0764999999,
      "d": 258.92867500000284,
      "v": 80
    },
    {
      "midi": 48,
      "hit": false,
      "t": 191517.9337499999,
      "d": 3464.287099999987,
      "v": 80
    },
    {
      "midi": 59,
      "hit": false,
      "t": 191785.79100000026,
      "d": 258.92867500000284,
      "v": 70
    },
    {
      "midi": 60,
      "hit": false,
      "t": 192053.64825000026,
      "d": 258.92867500000284,
      "v": 70
    },
    {
      "midi": 62,
      "hit": false,
      "t": 192321.50550000026,
      "d": 258.92867500000284,
      "v": 80
    },
    {
      "midi": 55,
      "hit": false,
      "t": 192589.36275000026,
      "d": 258.92867500000284,
      "v": 80
    },
    {
      "midi": 60,
      "hit": false,
      "t": 192857.22000000026,
      "d": 258.92867500000284,
      "v": 80
    },
    {
      "midi": 64,
      "hit": false,
      "t": 193125.07725000026,
      "d": 258.92867500000284,
      "v": 70
    },
    {
      "midi": 67,
      "hit": false,
      "t": 193392.93450000026,
      "d": 258.92867500000284,
      "v": 80
    },
    {
      "midi": 72,
      "hit": false,
      "t": 193660.79175000027,
      "d": 258.92867500000284,
      "v": 80
    },
    {
      "midi": 74,
      "hit": false,
      "t": 193928.64900000027,
      "d": 258.92867500000284,
      "v": 70
    },
    {
      "midi": 72,
      "hit": false,
      "t": 194196.50624999916,
      "d": 522.3216374999902,
      "v": 80
    },
    {
      "midi": 79,
      "hit": false,
      "t": 194196.50625000027,
      "d": 258.92867500000284,
      "v": 70
    },
    {
      "midi": 74,
      "hit": false,
      "t": 194464.36350000027,
      "d": 258.92867500000284,
      "v": 80
    },
    {
      "midi": 79,
      "hit": false,
      "t": 194732.22074999916,
      "d": 522.3216374999902,
      "v": 80
    },
    {
      "midi": 88,
      "hit": false,
      "t": 194732.22074999916,
      "d": 522.3216374999902,
      "v": 80
    },
    {
      "midi": 84,
      "hit": false,
      "t": 194732.22074999916,
      "d": 522.3216374999902,
      "v": 80
    },
    {
      "midi": 72,
      "hit": false,
      "t": 194732.22075000027,
      "d": 522.3216375000193,
      "v": 70
    },
    {
      "midi": 43,
      "hit": false,
      "t": 195000.0779999999,
      "d": 258.92867500000284,
      "v": 80
    },
    {
      "midi": 78,
      "hit": false,
      "t": 195267.93524999917,
      "d": 2794.6439750000136,
      "v": 80
    },
    {
      "midi": 86,
      "hit": false,
      "t": 195267.93524999917,
      "d": 2794.6439750000136,
      "v": 80
    },
    {
      "midi": 81,
      "hit": false,
      "t": 195267.93524999917,
      "d": 2794.6439750000136,
      "v": 80
    },
    {
      "midi": 36,
      "hit": false,
      "t": 195267.9352499999,
      "d": 258.92867500000284,
      "v": 120
    },
    {
      "midi": 74,
      "hit": false,
      "t": 195267.9352500003,
      "d": 785.7146000000066,
      "v": 80
    },
    {
      "midi": 78,
      "hit": false,
      "t": 195339.3638500003,
      "d": 785.7145999999775,
      "v": 80
    },
    {
      "midi": 45,
      "hit": false,
      "t": 195535.7924999999,
      "d": 258.92867500000284,
      "v": 80
    },
    {
      "midi": 52,
      "hit": false,
      "t": 195803.6497499999,
      "d": 3464.287099999987,
      "v": 80
    },
    {
      "midi": 54,
      "hit": false,
      "t": 196071.5070000003,
      "d": 258.92867500000284,
      "v": 102
    },
    {
      "midi": 57,
      "hit": false,
      "t": 196339.3642500003,
      "d": 258.92867500000284,
      "v": 102
    },
    {
      "midi": 62,
      "hit": false,
      "t": 196607.2215000003,
      "d": 258.92867500000284,
      "v": 80
    },
    {
      "midi": 64,
      "hit": false,
      "t": 196875.0787500003,
      "d": 258.92867500000284,
      "v": 80
    },
    {
      "midi": 66,
      "hit": false,
      "t": 197142.9360000003,
      "d": 258.92867500000284,
      "v": 80
    },
    {
      "midi": 69,
      "hit": false,
      "t": 197410.7932500003,
      "d": 258.92867500000284,
      "v": 102
    },
    {
      "midi": 74,
      "hit": false,
      "t": 197678.6505000003,
      "d": 258.92867500000284,
      "v": 80
    },
    {
      "midi": 76,
      "hit": false,
      "t": 197946.5077500003,
      "d": 258.92867500000284,
      "v": 80
    },
    {
      "midi": 78,
      "hit": false,
      "t": 198214.3650000003,
      "d": 258.92867500000284,
      "v": 102
    },
    {
      "midi": 76,
      "hit": false,
      "t": 198482.22224999918,
      "d": 522.3216374999902,
      "v": 80
    },
    {
      "midi": 84,
      "hit": false,
      "t": 198482.22224999918,
      "d": 522.3216374999902,
      "v": 80
    },
    {
      "midi": 79,
      "hit": false,
      "t": 198482.22224999918,
      "d": 522.3216374999902,
      "v": 80
    },
    {
      "midi": 81,
      "hit": false,
      "t": 198482.2222500003,
      "d": 258.92867500000284,
      "v": 102
    },
    {
      "midi": 78,
      "hit": false,
      "t": 198750.0795000003,
      "d": 258.92867500000284,
      "v": 80
    },
    {
      "midi": 74,
      "hit": false,
      "t": 199017.93674999918,
      "d": 258.92867500000284,
      "v": 80
    },
    {
      "midi": 81,
      "hit": false,
      "t": 199017.93674999918,
      "d": 258.92867500000284,
      "v": 80
    },
    {
      "midi": 78,
      "hit": false,
      "t": 199017.93674999918,
      "d": 258.92867500000284,
      "v": 80
    },
    {
      "midi": 74,
      "hit": false,
      "t": 199017.9367500003,
      "d": 522.3216375000193,
      "v": 102
    },
    {
      "midi": 76,
      "hit": false,
      "t": 199285.79399999918,
      "d": 258.92867500000284,
      "v": 80
    },
    {
      "midi": 84,
      "hit": false,
      "t": 199285.79399999918,
      "d": 258.92867500000284,
      "v": 80
    },
    {
      "midi": 79,
      "hit": false,
      "t": 199285.79399999918,
      "d": 258.92867500000284,
      "v": 80
    },
    {
      "midi": 43,
      "hit": false,
      "t": 199285.79399999988,
      "d": 258.92867500000284,
      "v": 80
    },
    {
      "midi": 76,
      "hit": false,
      "t": 199553.65124999918,
      "d": 2763.3939625000057,
      "v": 80
    },
    {
      "midi": 84,
      "hit": false,
      "t": 199553.65124999918,
      "d": 2763.3939625000057,
      "v": 80
    },
    {
      "midi": 79,
      "hit": false,
      "t": 199553.65124999918,
      "d": 2763.3939625000057,
      "v": 80
    },
    {
      "midi": 36,
      "hit": false,
      "t": 199553.65124999988,
      "d": 258.92867500000284,
      "v": 120
    },
    {
      "midi": 72,
      "hit": false,
      "t": 199553.65125000034,
      "d": 785.7146000000066,
      "v": 80
    },
    {
      "midi": 76,
      "hit": false,
      "t": 199589.36555000034,
      "d": 785.7146000000066,
      "v": 80
    },
    {
      "midi": 43,
      "hit": false,
      "t": 199821.50849999988,
      "d": 258.92867500000284,
      "v": 80
    },
    {
      "midi": 52,
      "hit": false,
      "t": 200089.36574999988,
      "d": 3464.287099999987,
      "v": 80
    },
    {
      "midi": 59,
      "hit": false,
      "t": 200357.22300000035,
      "d": 258.92867500000284,
      "v": 102
    },
    {
      "midi": 60,
      "hit": false,
      "t": 200625.08025000035,
      "d": 258.92867500000284,
      "v": 102
    },
    {
      "midi": 62,
      "hit": false,
      "t": 200892.93750000035,
      "d": 258.92867500000284,
      "v": 80
    },
    {
      "midi": 67,
      "hit": false,
      "t": 201160.79475000035,
      "d": 258.92867500000284,
      "v": 80
    },
    {
      "midi": 72,
      "hit": false,
      "t": 201428.65200000035,
      "d": 258.92867500000284,
      "v": 102
    },
    {
      "midi": 74,
      "hit": false,
      "t": 201696.50925000035,
      "d": 258.92867500000284,
      "v": 80
    },
    {
      "midi": 67,
      "hit": false,
      "t": 201964.36650000035,
      "d": 258.92867500000284,
      "v": 80
    },
    {
      "midi": 72,
      "hit": false,
      "t": 202232.22375000035,
      "d": 258.92867500000284,
      "v": 80
    },
    {
      "midi": 74,
      "hit": false,
      "t": 202500.08100000035,
      "d": 258.92867500000284,
      "v": 102
    },
    {
      "midi": 72,
      "hit": false,
      "t": 202767.9382499992,
      "d": 522.3216374999902,
      "v": 80
    },
    {
      "midi": 76,
      "hit": false,
      "t": 202767.9382499992,
      "d": 522.3216374999902,
      "v": 80
    },
    {
      "midi": 79,
      "hit": false,
      "t": 202767.93825000036,
      "d": 258.92867500000284,
      "v": 102
    },
    {
      "midi": 74,
      "hit": false,
      "t": 203035.79550000036,
      "d": 258.92867500000284,
      "v": 80
    },
    {
      "midi": 79,
      "hit": false,
      "t": 203303.6527499992,
      "d": 522.3216374999902,
      "v": 80
    },
    {
      "midi": 88,
      "hit": false,
      "t": 203303.6527499992,
      "d": 522.3216374999902,
      "v": 80
    },
    {
      "midi": 84,
      "hit": false,
      "t": 203303.6527499992,
      "d": 522.3216374999902,
      "v": 80
    },
    {
      "midi": 72,
      "hit": false,
      "t": 203303.65275000036,
      "d": 522.3216375000193,
      "v": 102
    },
    {
      "midi": 43,
      "hit": false,
      "t": 203571.50999999986,
      "d": 258.92867500000284,
      "v": 80
    },
    {
      "midi": 81,
      "hit": false,
      "t": 203839.3672499992,
      "d": 2794.6439750000136,
      "v": 80
    },
    {
      "midi": 86,
      "hit": false,
      "t": 203839.3672499992,
      "d": 2794.6439750000136,
      "v": 80
    },
    {
      "midi": 78,
      "hit": false,
      "t": 203839.3672499992,
      "d": 2794.6439750000136,
      "v": 80
    },
    {
      "midi": 36,
      "hit": false,
      "t": 203839.36724999986,
      "d": 258.92867500000284,
      "v": 120
    },
    {
      "midi": 74,
      "hit": false,
      "t": 203839.3672500004,
      "d": 785.7146000000066,
      "v": 80
    },
    {
      "midi": 78,
      "hit": false,
      "t": 203875.08155000038,
      "d": 785.7146000000066,
      "v": 80
    },
    {
      "midi": 45,
      "hit": false,
      "t": 204107.22449999987,
      "d": 258.92867500000284,
      "v": 80
    },
    {
      "midi": 52,
      "hit": false,
      "t": 204375.08174999987,
      "d": 3464.287099999987,
      "v": 80
    },
    {
      "midi": 54,
      "hit": false,
      "t": 204642.9390000004,
      "d": 258.92867500000284,
      "v": 102
    },
    {
      "midi": 57,
      "hit": false,
      "t": 204910.7962500004,
      "d": 258.92867500000284,
      "v": 102
    },
    {
      "midi": 62,
      "hit": false,
      "t": 205178.6535000004,
      "d": 258.92867500000284,
      "v": 80
    },
    {
      "midi": 64,
      "hit": false,
      "t": 205446.5107500004,
      "d": 258.92867500000284,
      "v": 80
    },
    {
      "midi": 66,
      "hit": false,
      "t": 205714.3680000004,
      "d": 258.92867500000284,
      "v": 80
    },
    {
      "midi": 69,
      "hit": false,
      "t": 205982.2252500004,
      "d": 258.92867500000284,
      "v": 102
    },
    {
      "midi": 74,
      "hit": false,
      "t": 206250.0825000004,
      "d": 258.92867500000284,
      "v": 80
    },
    {
      "midi": 76,
      "hit": false,
      "t": 206517.9397500004,
      "d": 258.92867500000284,
      "v": 80
    },
    {
      "midi": 78,
      "hit": false,
      "t": 206785.7970000004,
      "d": 258.92867500000284,
      "v": 102
    },
    {
      "midi": 79,
      "hit": false,
      "t": 207053.6542499992,
      "d": 522.3216374999902,
      "v": 80
    },
    {
      "midi": 84,
      "hit": false,
      "t": 207053.6542499992,
      "d": 522.3216374999902,
      "v": 80
    },
    {
      "midi": 76,
      "hit": false,
      "t": 207053.6542499992,
      "d": 522.3216374999902,
      "v": 80
    },
    {
      "midi": 81,
      "hit": false,
      "t": 207053.6542500004,
      "d": 258.92867500000284,
      "v": 80
    },
    {
      "midi": 78,
      "hit": false,
      "t": 207321.5115000004,
      "d": 258.92867500000284,
      "v": 80
    },
    {
      "midi": 78,
      "hit": false,
      "t": 207589.3687499992,
      "d": 258.92867500000284,
      "v": 80
    },
    {
      "midi": 81,
      "hit": false,
      "t": 207589.3687499992,
      "d": 258.92867500000284,
      "v": 80
    },
    {
      "midi": 74,
      "hit": false,
      "t": 207589.3687499992,
      "d": 258.92867500000284,
      "v": 80
    },
    {
      "midi": 74,
      "hit": false,
      "t": 207589.3687500004,
      "d": 522.3216375000193,
      "v": 102
    },
    {
      "midi": 79,
      "hit": false,
      "t": 207857.2259999992,
      "d": 258.92867500000284,
      "v": 80
    },
    {
      "midi": 84,
      "hit": false,
      "t": 207857.2259999992,
      "d": 258.92867500000284,
      "v": 80
    },
    {
      "midi": 76,
      "hit": false,
      "t": 207857.2259999992,
      "d": 258.92867500000284,
      "v": 80
    },
    {
      "midi": 43,
      "hit": false,
      "t": 207857.22599999985,
      "d": 258.92867500000284,
      "v": 80
    },
    {
      "midi": 79,
      "hit": false,
      "t": 208125.0832499992,
      "d": 2763.3939625000057,
      "v": 80
    },
    {
      "midi": 84,
      "hit": false,
      "t": 208125.0832499992,
      "d": 2763.3939625000057,
      "v": 80
    },
    {
      "midi": 76,
      "hit": false,
      "t": 208125.0832499992,
      "d": 2763.3939625000057,
      "v": 80
    },
    {
      "midi": 36,
      "hit": false,
      "t": 208125.08324999985,
      "d": 258.92867500000284,
      "v": 120
    },
    {
      "midi": 72,
      "hit": false,
      "t": 208125.08325000043,
      "d": 785.7146000000066,
      "v": 80
    },
    {
      "midi": 76,
      "hit": false,
      "t": 208160.79755000042,
      "d": 785.7146000000066,
      "v": 80
    },
    {
      "midi": 43,
      "hit": false,
      "t": 208392.94049999985,
      "d": 258.92867500000284,
      "v": 80
    },
    {
      "midi": 48,
      "hit": false,
      "t": 208660.79774999985,
      "d": 3464.287099999987,
      "v": 80
    },
    {
      "midi": 59,
      "hit": false,
      "t": 208928.65500000044,
      "d": 258.92867500000284,
      "v": 102
    },
    {
      "midi": 60,
      "hit": false,
      "t": 209196.51225000044,
      "d": 258.92867500000284,
      "v": 102
    },
    {
      "midi": 62,
      "hit": false,
      "t": 209464.36950000044,
      "d": 258.92867500000284,
      "v": 80
    },
    {
      "midi": 67,
      "hit": false,
      "t": 209732.22675000044,
      "d": 258.92867500000284,
      "v": 80
    },
    {
      "midi": 72,
      "hit": false,
      "t": 210000.08400000044,
      "d": 258.92867500000284,
      "v": 102
    },
    {
      "midi": 74,
      "hit": false,
      "t": 210267.94125000044,
      "d": 258.92867500000284,
      "v": 102
    },
    {
      "midi": 72,
      "hit": false,
      "t": 210535.79850000044,
      "d": 258.92867500000284,
      "v": 80
    },
    {
      "midi": 67,
      "hit": false,
      "t": 210803.65575000044,
      "d": 258.92867500000284,
      "v": 80
    },
    {
      "midi": 72,
      "hit": false,
      "t": 211071.51300000044,
      "d": 258.92867500000284,
      "v": 80
    },
    {
      "midi": 76,
      "hit": false,
      "t": 211339.37024999922,
      "d": 522.3216374999902,
      "v": 80
    },
    {
      "midi": 72,
      "hit": false,
      "t": 211339.37024999922,
      "d": 522.3216374999902,
      "v": 80
    },
    {
      "midi": 79,
      "hit": false,
      "t": 211339.37025000044,
      "d": 258.92867500000284,
      "v": 102
    },
    {
      "midi": 74,
      "hit": false,
      "t": 211607.22750000044,
      "d": 258.92867500000284,
      "v": 80
    },
    {
      "midi": 84,
      "hit": false,
      "t": 211875.08474999922,
      "d": 522.3216374999902,
      "v": 80
    },
    {
      "midi": 88,
      "hit": false,
      "t": 211875.08474999922,
      "d": 522.3216374999902,
      "v": 80
    },
    {
      "midi": 79,
      "hit": false,
      "t": 211875.08474999922,
      "d": 522.3216374999902,
      "v": 80
    },
    {
      "midi": 72,
      "hit": false,
      "t": 211875.08475000045,
      "d": 522.3216375000193,
      "v": 102
    },
    {
      "midi": 43,
      "hit": false,
      "t": 212142.94199999984,
      "d": 258.92867500000284,
      "v": 80
    },
    {
      "midi": 81,
      "hit": false,
      "t": 212410.79924999923,
      "d": 2794.6439750000136,
      "v": 80
    },
    {
      "midi": 86,
      "hit": false,
      "t": 212410.79924999923,
      "d": 2794.6439750000136,
      "v": 80
    },
    {
      "midi": 78,
      "hit": false,
      "t": 212410.79924999923,
      "d": 2794.6439750000136,
      "v": 80
    },
    {
      "midi": 36,
      "hit": false,
      "t": 212410.79924999984,
      "d": 258.92867500000284,
      "v": 120
    },
    {
      "midi": 64,
      "hit": false,
      "t": 212410.79925000048,
      "d": 785.7146000000066,
      "v": 80
    },
    {
      "midi": 66,
      "hit": false,
      "t": 212410.79925000048,
      "d": 785.7146000000066,
      "v": 80
    },
    {
      "midi": 45,
      "hit": false,
      "t": 212678.65649999984,
      "d": 258.92867500000284,
      "v": 80
    },
    {
      "midi": 50,
      "hit": false,
      "t": 212946.51374999984,
      "d": 2633.9296249999898,
      "v": 80
    },
    {
      "midi": 54,
      "hit": false,
      "t": 213214.37100000048,
      "d": 258.92867500000284,
      "v": 102
    },
    {
      "midi": 57,
      "hit": false,
      "t": 213482.22825000048,
      "d": 258.92867500000284,
      "v": 102
    },
    {
      "midi": 62,
      "hit": false,
      "t": 213750.08550000048,
      "d": 258.92867500000284,
      "v": 80
    },
    {
      "midi": 64,
      "hit": false,
      "t": 214017.94275000048,
      "d": 258.92867500000284,
      "v": 80
    },
    {
      "midi": 66,
      "hit": false,
      "t": 214285.80000000048,
      "d": 258.92867500000284,
      "v": 80
    },
    {
      "midi": 69,
      "hit": false,
      "t": 214553.65725000048,
      "d": 258.92867500000284,
      "v": 102
    },
    {
      "midi": 66,
      "hit": false,
      "t": 214821.51450000048,
      "d": 258.92867500000284,
      "v": 80
    },
    {
      "midi": 64,
      "hit": false,
      "t": 215089.3717500005,
      "d": 258.92867500000284,
      "v": 80
    },
    {
      "midi": 62,
      "hit": false,
      "t": 215357.2290000005,
      "d": 258.92867500000284,
      "v": 102
    },
    {
      "midi": 84,
      "hit": false,
      "t": 215625.08624999924,
      "d": 857.1431999999913,
      "v": 80
    },
    {
      "midi": 76,
      "hit": false,
      "t": 215625.08624999924,
      "d": 857.1431999999913,
      "v": 80
    },
    {
      "midi": 79,
      "hit": false,
      "t": 215625.08624999924,
      "d": 857.1431999999913,
      "v": 80
    },
    {
      "midi": 55,
      "hit": false,
      "t": 215625.08624999982,
      "d": 1049.107562499994,
      "v": 120
    },
    {
      "midi": 67,
      "hit": false,
      "t": 215625.0862500005,
      "d": 258.92867500000284,
      "v": 102
    },
    {
      "midi": 60,
      "hit": false,
      "t": 215892.9435000005,
      "d": 258.92867500000284,
      "v": 80
    },
    {
      "midi": 62,
      "hit": false,
      "t": 216160.8007500005,
      "d": 258.92867500000284,
      "v": 80
    },
    {
      "midi": 67,
      "hit": false,
      "t": 216428.6580000005,
      "d": 258.92867500000284,
      "v": 102
    },
    {
      "midi": 81,
      "hit": false,
      "t": 216696.51524999924,
      "d": 2571.429600000003,
      "v": 80
    },
    {
      "midi": 83,
      "hit": false,
      "t": 216696.51524999924,
      "d": 2571.429600000003,
      "v": 80
    },
    {
      "midi": 75,
      "hit": false,
      "t": 216696.51524999924,
      "d": 2571.429600000003,
      "v": 80
    },
    {
      "midi": 57,
      "hit": false,
      "t": 216696.51524999982,
      "d": 2098.215124999988,
      "v": 120
    },
    {
      "midi": 63,
      "hit": false,
      "t": 216696.5152500005,
      "d": 522.3216375000193,
      "v": 80
    },
    {
      "midi": 66,
      "hit": false,
      "t": 216767.9438500005,
      "d": 522.3216375000193,
      "v": 102
    },
    {
      "midi": 63,
      "hit": false,
      "t": 217232.22975000052,
      "d": 258.92867500000284,
      "v": 80
    },
    {
      "midi": 65,
      "hit": false,
      "t": 217500.08700000052,
      "d": 258.92867500000284,
      "v": 80
    },
    {
      "midi": 75,
      "hit": false,
      "t": 217767.94425000052,
      "d": 258.92867500000284,
      "v": 102
    },
    {
      "midi": 71,
      "hit": false,
      "t": 218035.80150000053,
      "d": 258.92867500000284,
      "v": 80
    },
    {
      "midi": 66,
      "hit": false,
      "t": 218303.65875000053,
      "d": 258.92867500000284,
      "v": 80
    },
    {
      "midi": 71,
      "hit": false,
      "t": 218571.51600000053,
      "d": 258.92867500000284,
      "v": 80
    },
    {
      "midi": 57,
      "hit": false,
      "t": 218839.3732499998,
      "d": 2098.215124999988,
      "v": 120
    },
    {
      "midi": 78,
      "hit": false,
      "t": 218839.37325000053,
      "d": 258.92867500000284,
      "v": 102
    },
    {
      "midi": 71,
      "hit": false,
      "t": 219107.23050000053,
      "d": 258.92867500000284,
      "v": 80
    },
    {
      "midi": 63,
      "hit": false,
      "t": 219375.08775000053,
      "d": 258.92867500000284,
      "v": 80
    },
    {
      "midi": 66,
      "hit": false,
      "t": 219642.94500000053,
      "d": 258.92867500000284,
      "v": 80
    },
    {
      "midi": 75,
      "hit": false,
      "t": 219910.80224999925,
      "d": 522.3216374999902,
      "v": 80
    },
    {
      "midi": 81,
      "hit": false,
      "t": 219910.80224999925,
      "d": 522.3216374999902,
      "v": 80
    },
    {
      "midi": 83,
      "hit": false,
      "t": 219910.80224999925,
      "d": 522.3216374999902,
      "v": 80
    },
    {
      "midi": 71,
      "hit": false,
      "t": 219910.80225000053,
      "d": 258.92867500000284,
      "v": 102
    },
    {
      "midi": 78,
      "hit": false,
      "t": 220178.65950000053,
      "d": 522.3216374999902,
      "v": 102
    },
    {
      "midi": 75,
      "hit": false,
      "t": 220446.51674999925,
      "d": 522.3216374999902,
      "v": 80
    },
    {
      "midi": 79,
      "hit": false,
      "t": 220446.51674999925,
      "d": 522.3216374999902,
      "v": 80
    },
    {
      "midi": 83,
      "hit": false,
      "t": 220446.51674999925,
      "d": 522.3216374999902,
      "v": 80
    },
    {
      "midi": 72,
      "hit": false,
      "t": 220714.37400000053,
      "d": 258.92867500003194,
      "v": 80
    },
    {
      "midi": 72,
      "hit": false,
      "t": 220982.23124999925,
      "d": 3147.322687500011,
      "v": 80
    },
    {
      "midi": 78,
      "hit": false,
      "t": 220982.23124999925,
      "d": 3147.322687500011,
      "v": 80
    },
    {
      "midi": 76,
      "hit": false,
      "t": 220982.23124999925,
      "d": 3147.322687500011,
      "v": 80
    },
    {
      "midi": 55,
      "hit": false,
      "t": 220982.23124999978,
      "d": 2098.215124999988,
      "v": 120
    },
    {
      "midi": 60,
      "hit": false,
      "t": 221250.08850000057,
      "d": 258.92867500000284,
      "v": 80
    },
    {
      "midi": 64,
      "hit": false,
      "t": 221517.94575000057,
      "d": 258.92867500000284,
      "v": 80
    },
    {
      "midi": 67,
      "hit": false,
      "t": 221785.80300000057,
      "d": 258.92867500000284,
      "v": 102
    },
    {
      "midi": 72,
      "hit": false,
      "t": 222053.66025000057,
      "d": 258.92867500000284,
      "v": 102
    },
    {
      "midi": 74,
      "hit": false,
      "t": 222321.51750000057,
      "d": 522.3216374999902,
      "v": 80
    },
    {
      "midi": 72,
      "hit": false,
      "t": 222857.23200000057,
      "d": 258.92867500000284,
      "v": 80
    },
    {
      "midi": 55,
      "hit": false,
      "t": 223125.08924999976,
      "d": 2098.215124999988,
      "v": 120
    },
    {
      "midi": 62,
      "hit": false,
      "t": 223392.94650000057,
      "d": 258.92867500000284,
      "v": 80
    },
    {
      "midi": 64,
      "hit": false,
      "t": 223660.80375000057,
      "d": 258.92867500000284,
      "v": 80
    },
    {
      "midi": 67,
      "hit": false,
      "t": 223928.66100000057,
      "d": 258.92867500000284,
      "v": 80
    },
    {
      "midi": 72,
      "hit": false,
      "t": 224196.51824999927,
      "d": 522.3216374999902,
      "v": 80
    },
    {
      "midi": 67,
      "hit": false,
      "t": 224196.51824999927,
      "d": 522.3216374999902,
      "v": 80
    },
    {
      "midi": 76,
      "hit": false,
      "t": 224196.51824999927,
      "d": 522.3216374999902,
      "v": 80
    },
    {
      "midi": 72,
      "hit": false,
      "t": 224196.51825000058,
      "d": 258.92867500000284,
      "v": 102
    },
    {
      "midi": 74,
      "hit": false,
      "t": 224464.37550000058,
      "d": 522.3216374999902,
      "v": 102
    },
    {
      "midi": 72,
      "hit": false,
      "t": 224732.23274999927,
      "d": 258.92867500000284,
      "v": 80
    },
    {
      "midi": 67,
      "hit": false,
      "t": 224732.23274999927,
      "d": 258.92867500000284,
      "v": 80
    },
    {
      "midi": 74,
      "hit": false,
      "t": 224732.23274999927,
      "d": 258.92867500000284,
      "v": 80
    },
    {
      "midi": 69,
      "hit": false,
      "t": 225000.08999999927,
      "d": 1053.5718500000075,
      "v": 80
    },
    {
      "midi": 74,
      "hit": false,
      "t": 225000.08999999927,
      "d": 1053.5718500000075,
      "v": 80
    },
    {
      "midi": 76,
      "hit": false,
      "t": 225000.08999999927,
      "d": 1053.5718500000075,
      "v": 80
    },
    {
      "midi": 72,
      "hit": false,
      "t": 225000.09000000058,
      "d": 258.92867500003194,
      "v": 80
    },
    {
      "midi": 55,
      "hit": false,
      "t": 225267.94724999974,
      "d": 2098.215124999988,
      "v": 120
    },
    {
      "midi": 57,
      "hit": false,
      "t": 225535.8045000006,
      "d": 258.92867500000284,
      "v": 80
    },
    {
      "midi": 62,
      "hit": false,
      "t": 225803.6617500006,
      "d": 258.92867500000284,
      "v": 80
    },
    {
      "midi": 69,
      "hit": false,
      "t": 226071.51899999927,
      "d": 3223.2155750000675,
      "v": 80
    },
    {
      "midi": 74,
      "hit": false,
      "t": 226071.51899999927,
      "d": 3223.2155750000675,
      "v": 80
    },
    {
      "midi": 76,
      "hit": false,
      "t": 226071.51899999927,
      "d": 3223.2155750000675,
      "v": 80
    },
    {
      "midi": 66,
      "hit": false,
      "t": 226071.5190000006,
      "d": 258.92867500000284,
      "v": 102
    },
    {
      "midi": 69,
      "hit": false,
      "t": 226339.3762500006,
      "d": 258.92867500000284,
      "v": 102
    },
    {
      "midi": 74,
      "hit": false,
      "t": 226607.2335000006,
      "d": 258.92867500000284,
      "v": 80
    },
    {
      "midi": 76,
      "hit": false,
      "t": 226875.0907500006,
      "d": 258.92867500000284,
      "v": 102
    },
    {
      "midi": 81,
      "hit": false,
      "t": 227142.94800000062,
      "d": 258.92867500000284,
      "v": 102
    },
    {
      "midi": 55,
      "hit": false,
      "t": 227410.8052499997,
      "d": 2098.215124999988,
      "v": 120
    },
    {
      "midi": 57,
      "hit": false,
      "t": 227678.66250000062,
      "d": 258.92867500000284,
      "v": 80
    },
    {
      "midi": 62,
      "hit": false,
      "t": 227946.51975000062,
      "d": 258.92867500000284,
      "v": 80
    },
    {
      "midi": 66,
      "hit": false,
      "t": 228214.37700000062,
      "d": 258.92867500000284,
      "v": 98
    },
    {
      "midi": 69,
      "hit": false,
      "t": 228482.23425000062,
      "d": 258.92867500000284,
      "v": 102
    },
    {
      "midi": 74,
      "hit": false,
      "t": 228750.09150000062,
      "d": 258.92867500000284,
      "v": 80
    },
    {
      "midi": 76,
      "hit": false,
      "t": 229017.94875000062,
      "d": 258.92867500000284,
      "v": 80
    },
    {
      "midi": 81,
      "hit": false,
      "t": 229285.80600000062,
      "d": 258.92867500003194,
      "v": 102
    },
    {
      "midi": 55,
      "hit": false,
      "t": 229553.6632499997,
      "d": 8482.14624999999,
      "v": 120
    },
    {
      "midi": 57,
      "hit": false,
      "t": 229821.52050000065,
      "d": 258.92867500000284,
      "v": 80
    },
    {
      "midi": 62,
      "hit": false,
      "t": 230089.37775000065,
      "d": 258.92867500000284,
      "v": 80
    },
    {
      "midi": 66,
      "hit": false,
      "t": 230357.23500000066,
      "d": 258.92867500000284,
      "v": 98
    },
    {
      "midi": 69,
      "hit": false,
      "t": 230625.09225000066,
      "d": 258.92867500000284,
      "v": 102
    },
    {
      "midi": 74,
      "hit": false,
      "t": 230928.66380000065,
      "d": 258.92867500000284,
      "v": 80
    },
    {
      "midi": 76,
      "hit": false,
      "t": 231267.94965000066,
      "d": 258.92867500000284,
      "v": 102
    },
    {
      "midi": 81,
      "hit": false,
      "t": 231607.23550000068,
      "d": 258.92867500000284,
      "v": 80
    },
    {
      "midi": 86,
      "hit": false,
      "t": 231982.2356500007,
      "d": 6339.288250000012,
      "v": 102
    },
    {
      "midi": 72,
      "hit": false,
      "t": 238125.09524999937,
      "d": 1049.107562499994,
      "v": 60
    },
    {
      "midi": 79,
      "hit": false,
      "t": 239196.52424999938,
      "d": 1049.107562499994,
      "v": 60
    },
    {
      "midi": 79,
      "hit": false,
      "t": 240267.95324999938,
      "d": 803.5717500000028,
      "v": 60
    },
    {
      "midi": 82,
      "hit": false,
      "t": 241339.38224999938,
      "d": 522.3216374999902,
      "v": 60
    },
    {
      "midi": 81,
      "hit": false,
      "t": 241875.0967499994,
      "d": 522.3216374999902,
      "v": 60
    },
    {
      "midi": 77,
      "hit": false,
      "t": 242410.8112499994,
      "d": 1049.107562499994,
      "v": 60
    },
    {
      "midi": 74,
      "hit": false,
      "t": 243482.2402499994,
      "d": 522.3216374999902,
      "v": 60
    },
    {
      "midi": 72,
      "hit": false,
      "t": 244017.9547499994,
      "d": 522.3216374999902,
      "v": 60
    },
    {
      "midi": 74,
      "hit": false,
      "t": 244553.6692499994,
      "d": 522.3216374999902,
      "v": 60
    },
    {
      "midi": 77,
      "hit": false,
      "t": 245089.3837499994,
      "d": 522.3216374999902,
      "v": 60
    },
    {
      "midi": 77,
      "hit": false,
      "t": 245625.0982499994,
      "d": 803.5717500000028,
      "v": 60
    },
    {
      "midi": 72,
      "hit": false,
      "t": 246696.5272499994,
      "d": 803.5717500000028,
      "v": 60
    },
    {
      "midi": 70,
      "hit": false,
      "t": 247767.9562499994,
      "d": 522.3216374999902,
      "v": 60
    },
    {
      "midi": 74,
      "hit": false,
      "t": 248303.6707499994,
      "d": 522.3216374999902,
      "v": 60
    },
    {
      "midi": 72,
      "hit": false,
      "t": 248839.3852499994,
      "d": 1049.107562499994,
      "v": 60
    },
    {
      "midi": 70,
      "hit": false,
      "t": 249910.8142499994,
      "d": 522.3216374999902,
      "v": 60
    },
    {
      "midi": 74,
      "hit": false,
      "t": 250446.52874999942,
      "d": 522.3216374999902,
      "v": 60
    },
    {
      "midi": 72,
      "hit": false,
      "t": 250982.24324999942,
      "d": 941.9646624999878,
      "v": 60
    },
    {
      "midi": 67,
      "hit": false,
      "t": 252053.6722499994,
      "d": 2825.893987500167,
      "v": 60
    },
    {
      "midi": 72,
      "hit": false,
      "t": 255267.95924999958,
      "d": 1049.107562499994,
      "v": 60
    },
    {
      "midi": 79,
      "hit": false,
      "t": 256339.38824999958,
      "d": 1049.107562499994,
      "v": 60
    },
    {
      "midi": 79,
      "hit": false,
      "t": 257410.81724999959,
      "d": 1049.107562499994,
      "v": 60
    },
    {
      "midi": 82,
      "hit": false,
      "t": 258482.2462499996,
      "d": 415.1787375000131,
      "v": 60
    },
    {
      "midi": 81,
      "hit": false,
      "t": 259017.9607499996,
      "d": 522.3216374999902,
      "v": 60
    },
    {
      "midi": 77,
      "hit": false,
      "t": 259553.6752499996,
      "d": 1049.107562499994,
      "v": 60
    },
    {
      "midi": 74,
      "hit": false,
      "t": 260625.1042499996,
      "d": 522.3216374999902,
      "v": 60
    },
    {
      "midi": 72,
      "hit": false,
      "t": 261160.8187499996,
      "d": 522.3216374999902,
      "v": 60
    },
    {
      "midi": 74,
      "hit": false,
      "t": 261696.5332499996,
      "d": 522.3216374999902,
      "v": 60
    },
    {
      "midi": 77,
      "hit": false,
      "t": 262232.2477499996,
      "d": 522.3216375000193,
      "v": 60
    },
    {
      "midi": 77,
      "hit": false,
      "t": 262767.9622499996,
      "d": 834.8217624999816,
      "v": 60
    },
    {
      "midi": 72,
      "hit": false,
      "t": 263839.3912499996,
      "d": 683.0359874999849,
      "v": 60
    },
    {
      "midi": 70,
      "hit": false,
      "t": 264910.8202499996,
      "d": 522.3216375000193,
      "v": 60
    },
    {
      "midi": 74,
      "hit": false,
      "t": 265446.5347499996,
      "d": 522.3216375000193,
      "v": 60
    },
    {
      "midi": 72,
      "hit": false,
      "t": 265982.2492499996,
      "d": 964.2861000000266,
      "v": 60
    },
    {
      "midi": 70,
      "hit": false,
      "t": 267053.6782499996,
      "d": 522.3216375000193,
      "v": 60
    },
    {
      "midi": 74,
      "hit": false,
      "t": 267589.3927499996,
      "d": 522.3216375000193,
      "v": 60
    },
    {
      "midi": 72,
      "hit": false,
      "t": 268125.1072499996,
      "d": 3857.1444000008632,
      "v": 60
    }
  ]
}