{
  "jsonPath": "Rock/Christian Alternative Rock/Newsboys/he-reigns.json",
  "path": "Rock\\Christian Alternative Rock\\Newsboys\\He Reigns.mid",
  "name": "He Reigns",
  "difficulty": "Advanced",
  "bpm": 120,
  "notes": [
    {
      "midi": 38,
      "hit": false,
      "t": 4833.33575,
      "d": 133.33340000000044,
      "v": 62
    },
    {
      "midi": 38,
      "hit": false,
      "t": 4833.335750000001,
      "d": 188.88898333333327,
      "v": 51
    },
    {
      "midi": 40,
      "hit": false,
      "t": 5000.0025000000005,
      "d": 166.66675000000032,
      "v": 72
    },
    {
      "midi": 40,
      "hit": false,
      "t": 5000.002500000001,
      "d": 150.00007499999992,
      "v": 63
    },
    {
      "midi": 38,
      "hit": false,
      "t": 5166.669250000001,
      "d": 194.44454166666674,
      "v": 65
    },
    {
      "midi": 38,
      "hit": false,
      "t": 5166.669250000002,
      "d": 150.00007499999992,
      "v": 53
    },
    {
      "midi": 43,
      "hit": false,
      "t": 5333.336000000001,
      "d": 2505.5568083333337,
      "v": 82
    },
    {
      "midi": 31,
      "hit": false,
      "t": 5333.336000000002,
      "d": 522.222483333333,
      "v": 67
    },
    {
      "midi": 55,
      "hit": false,
      "t": 5666.669500000001,
      "d": 577.7780666666667,
      "v": 68
    },
    {
      "midi": 59,
      "hit": false,
      "t": 5666.669500000001,
      "d": 594.4447416666671,
      "v": 71
    },
    {
      "midi": 47,
      "hit": false,
      "t": 5666.669500000001,
      "d": 1911.1120666666666,
      "v": 64
    },
    {
      "midi": 43,
      "hit": false,
      "t": 5666.669500000002,
      "d": 77.7778166666667,
      "v": 52
    },
    {
      "midi": 43,
      "hit": false,
      "t": 5833.336250000002,
      "d": 166.6667499999994,
      "v": 70
    },
    {
      "midi": 38,
      "hit": false,
      "t": 6000.0030000000015,
      "d": 344.44461666666666,
      "v": 54
    },
    {
      "midi": 43,
      "hit": false,
      "t": 6333.336500000001,
      "d": 200.0001000000002,
      "v": 60
    },
    {
      "midi": 60,
      "hit": false,
      "t": 6333.336500000001,
      "d": 111.11116666666658,
      "v": 77
    },
    {
      "midi": 55,
      "hit": false,
      "t": 6333.336500000001,
      "d": 138.888958333333,
      "v": 68
    },
    {
      "midi": 31,
      "hit": false,
      "t": 6500.003250000002,
      "d": 477.7780166666662,
      "v": 53
    },
    {
      "midi": 55,
      "hit": false,
      "t": 6666.670000000001,
      "d": 344.44461666666666,
      "v": 69
    },
    {
      "midi": 60,
      "hit": false,
      "t": 6666.670000000001,
      "d": 405.55575833333296,
      "v": 69
    },
    {
      "midi": 43,
      "hit": false,
      "t": 7000.003500000001,
      "d": 61.1111416666663,
      "v": 62
    },
    {
      "midi": 43,
      "hit": false,
      "t": 7166.67025,
      "d": 183.33342500000072,
      "v": 71
    },
    {
      "midi": 59,
      "hit": false,
      "t": 7166.670250000001,
      "d": 466.66690000000017,
      "v": 59
    },
    {
      "midi": 55,
      "hit": false,
      "t": 7166.670250000001,
      "d": 522.2224833333339,
      "v": 75
    },
    {
      "midi": 38,
      "hit": false,
      "t": 7333.337,
      "d": 444.4446666666672,
      "v": 56
    },
    {
      "midi": 52,
      "hit": false,
      "t": 7500.003750000001,
      "d": 150.00007500000083,
      "v": 70
    },
    {
      "midi": 43,
      "hit": false,
      "t": 7666.670500000001,
      "d": 83.33337500000016,
      "v": 60
    },
    {
      "midi": 50,
      "hit": false,
      "t": 7666.670500000002,
      "d": 183.3334249999998,
      "v": 70
    },
    {
      "midi": 43,
      "hit": false,
      "t": 7833.337250000001,
      "d": 150.00007499999992,
      "v": 53
    },
    {
      "midi": 47,
      "hit": false,
      "t": 7833.337250000001,
      "d": 2655.5568833333355,
      "v": 54
    },
    {
      "midi": 31,
      "hit": false,
      "t": 8000.004000000002,
      "d": 561.1113916666663,
      "v": 69
    },
    {
      "midi": 43,
      "hit": false,
      "t": 8016.670675000002,
      "d": 2505.5568083333355,
      "v": 82
    },
    {
      "midi": 43,
      "hit": false,
      "t": 8333.337500000001,
      "d": 77.7778166666667,
      "v": 65
    },
    {
      "midi": 55,
      "hit": false,
      "t": 8333.337500000001,
      "d": 500.00025000000096,
      "v": 70
    },
    {
      "midi": 59,
      "hit": false,
      "t": 8333.337500000001,
      "d": 500.00025000000096,
      "v": 74
    },
    {
      "midi": 43,
      "hit": false,
      "t": 8500.004250000002,
      "d": 144.44451666666646,
      "v": 75
    },
    {
      "midi": 38,
      "hit": false,
      "t": 8666.671000000002,
      "d": 272.2223583333325,
      "v": 55
    },
    {
      "midi": 43,
      "hit": false,
      "t": 9000.004500000001,
      "d": 55.555583333332834,
      "v": 58
    },
    {
      "midi": 60,
      "hit": false,
      "t": 9000.004500000003,
      "d": 111.11116666666749,
      "v": 71
    },
    {
      "midi": 55,
      "hit": false,
      "t": 9000.004500000003,
      "d": 127.77784166666788,
      "v": 71
    },
    {
      "midi": 43,
      "hit": false,
      "t": 9166.671250000001,
      "d": 138.888958333333,
      "v": 71
    },
    {
      "midi": 38,
      "hit": false,
      "t": 9333.338000000002,
      "d": 327.7779416666672,
      "v": 57
    },
    {
      "midi": 55,
      "hit": false,
      "t": 9333.338000000003,
      "d": 427.7779916666659,
      "v": 67
    },
    {
      "midi": 60,
      "hit": false,
      "t": 9333.338000000003,
      "d": 450.0002249999998,
      "v": 67
    },
    {
      "midi": 43,
      "hit": false,
      "t": 9666.671500000002,
      "d": 61.1111416666663,
      "v": 70
    },
    {
      "midi": 43,
      "hit": false,
      "t": 9833.338250000003,
      "d": 194.44454166666765,
      "v": 68
    },
    {
      "midi": 59,
      "hit": false,
      "t": 9833.338250000003,
      "d": 472.22245833333363,
      "v": 76
    },
    {
      "midi": 55,
      "hit": false,
      "t": 9833.338250000003,
      "d": 494.4446916666675,
      "v": 65
    },
    {
      "midi": 31,
      "hit": false,
      "t": 10000.005000000003,
      "d": 416.666874999999,
      "v": 54
    },
    {
      "midi": 43,
      "hit": false,
      "t": 10166.671750000003,
      "d": 100.00005000000056,
      "v": 72
    },
    {
      "midi": 52,
      "hit": false,
      "t": 10166.671750000003,
      "d": 338.8890583333341,
      "v": 80
    },
    {
      "midi": 43,
      "hit": false,
      "t": 10333.338500000003,
      "d": 44.4444666666659,
      "v": 57
    },
    {
      "midi": 43,
      "hit": false,
      "t": 10500.005250000002,
      "d": 133.33339999999953,
      "v": 69
    },
    {
      "midi": 50,
      "hit": false,
      "t": 10500.005250000004,
      "d": 2655.5568833333364,
      "v": 67
    },
    {
      "midi": 31,
      "hit": false,
      "t": 10666.672000000002,
      "d": 400.0002000000004,
      "v": 74
    },
    {
      "midi": 43,
      "hit": false,
      "t": 10666.672000000004,
      "d": 2505.5568083333364,
      "v": 82
    },
    {
      "midi": 43,
      "hit": false,
      "t": 11000.005500000003,
      "d": 88.88893333333363,
      "v": 55
    },
    {
      "midi": 55,
      "hit": false,
      "t": 11000.005500000005,
      "d": 577.7780666666677,
      "v": 68
    },
    {
      "midi": 59,
      "hit": false,
      "t": 11000.005500000005,
      "d": 594.444741666668,
      "v": 71
    },
    {
      "midi": 47,
      "hit": false,
      "t": 11000.005500000005,
      "d": 1911.1120666666684,
      "v": 64
    },
    {
      "midi": 43,
      "hit": false,
      "t": 11166.672250000003,
      "d": 144.44451666666646,
      "v": 51
    },
    {
      "midi": 38,
      "hit": false,
      "t": 11333.339000000004,
      "d": 300.00014999999985,
      "v": 72
    },
    {
      "midi": 43,
      "hit": false,
      "t": 11666.672500000004,
      "d": 100.00005000000056,
      "v": 67
    },
    {
      "midi": 60,
      "hit": false,
      "t": 11666.672500000006,
      "d": 111.11116666666749,
      "v": 77
    },
    {
      "midi": 55,
      "hit": false,
      "t": 11666.672500000006,
      "d": 138.8889583333348,
      "v": 68
    },
    {
      "midi": 43,
      "hit": false,
      "t": 11833.339250000005,
      "d": 166.66675000000032,
      "v": 46
    },
    {
      "midi": 31,
      "hit": false,
      "t": 12000.006000000005,
      "d": 400.0002000000004,
      "v": 60
    },
    {
      "midi": 55,
      "hit": false,
      "t": 12000.006000000007,
      "d": 344.44461666666575,
      "v": 69
    },
    {
      "midi": 60,
      "hit": false,
      "t": 12000.006000000007,
      "d": 405.55575833333205,
      "v": 69
    },
    {
      "midi": 43,
      "hit": false,
      "t": 12333.339500000006,
      "d": 83.33337500000016,
      "v": 64
    },
    {
      "midi": 43,
      "hit": false,
      "t": 12500.006250000006,
      "d": 155.5556333333334,
      "v": 51
    },
    {
      "midi": 59,
      "hit": false,
      "t": 12500.006250000006,
      "d": 466.66690000000017,
      "v": 59
    },
    {
      "midi": 55,
      "hit": false,
      "t": 12500.006250000006,
      "d": 522.2224833333348,
      "v": 75
    },
    {
      "midi": 38,
      "hit": false,
      "t": 12666.673000000006,
      "d": 127.77784166666606,
      "v": 65
    },
    {
      "midi": 43,
      "hit": false,
      "t": 12833.339750000005,
      "d": 88.88893333333363,
      "v": 56
    },
    {
      "midi": 38,
      "hit": false,
      "t": 12833.339750000006,
      "d": 166.66675000000032,
      "v": 51
    },
    {
      "midi": 43,
      "hit": false,
      "t": 13000.006500000005,
      "d": 77.7778166666667,
      "v": 43
    },
    {
      "midi": 40,
      "hit": false,
      "t": 13000.006500000007,
      "d": 211.11121666666622,
      "v": 65
    },
    {
      "midi": 43,
      "hit": false,
      "t": 13166.673250000005,
      "d": 116.66672499999913,
      "v": 69
    },
    {
      "midi": 38,
      "hit": false,
      "t": 13166.673250000007,
      "d": 133.33339999999953,
      "v": 57
    },
    {
      "midi": 31,
      "hit": false,
      "t": 13333.340000000004,
      "d": 188.88898333333418,
      "v": 56
    },
    {
      "midi": 47,
      "hit": false,
      "t": 13333.340000000007,
      "d": 211.11121666666622,
      "v": 71
    },
    {
      "midi": 43,
      "hit": false,
      "t": 13333.340000000007,
      "d": 300.00014999999985,
      "v": 71
    },
    {
      "midi": 65,
      "hit": false,
      "t": 13666.673500000008,
      "d": 88.88893333333363,
      "v": 87
    },
    {
      "midi": 64,
      "hit": false,
      "t": 14000.007000000009,
      "d": 261.1112416666674,
      "v": 94
    },
    {
      "midi": 62,
      "hit": false,
      "t": 14166.673750000009,
      "d": 161.11119166666685,
      "v": 76
    },
    {
      "midi": 59,
      "hit": false,
      "t": 14172.229308333342,
      "d": 161.11119166666685,
      "v": 49
    },
    {
      "midi": 55,
      "hit": false,
      "t": 14500.00725000001,
      "d": 211.11121666666622,
      "v": 79
    },
    {
      "midi": 50,
      "hit": false,
      "t": 14655.562883333343,
      "d": 216.6667749999997,
      "v": 68
    },
    {
      "midi": 53,
      "hit": false,
      "t": 14666.67400000001,
      "d": 227.77789166666662,
      "v": 68
    },
    {
      "midi": 43,
      "hit": false,
      "t": 15000.00750000001,
      "d": 50.00002499999937,
      "v": 72
    },
    {
      "midi": 43,
      "hit": false,
      "t": 15166.67425000001,
      "d": 50.00002499999937,
      "v": 82
    },
    {
      "midi": 43,
      "hit": false,
      "t": 15333.341000000008,
      "d": 55.555583333332834,
      "v": 86
    },
    {
      "midi": 43,
      "hit": false,
      "t": 15500.007750000008,
      "d": 127.77784166666606,
      "v": 60
    },
    {
      "midi": 45,
      "hit": false,
      "t": 15500.007750000008,
      "d": 161.11119166666685,
      "v": 83
    },
    {
      "midi": 43,
      "hit": false,
      "t": 15666.674500000008,
      "d": 138.888958333333,
      "v": 59
    },
    {
      "midi": 46,
      "hit": false,
      "t": 15666.674500000008,
      "d": 177.77786666666725,
      "v": 81
    },
    {
      "midi": 43,
      "hit": false,
      "t": 15833.341250000009,
      "d": 144.44451666666646,
      "v": 85
    },
    {
      "midi": 47,
      "hit": false,
      "t": 15833.341250000009,
      "d": 155.5556333333334,
      "v": 83
    },
    {
      "midi": 31,
      "hit": false,
      "t": 16000.008000000005,
      "d": 505.5558083333344,
      "v": 64
    },
    {
      "midi": 43,
      "hit": false,
      "t": 16000.008000000009,
      "d": 2261.1122416666694,
      "v": 82
    },
    {
      "midi": 43,
      "hit": false,
      "t": 16333.341500000006,
      "d": 55.55558333333465,
      "v": 51
    },
    {
      "midi": 55,
      "hit": false,
      "t": 16333.34150000001,
      "d": 577.7780666666658,
      "v": 68
    },
    {
      "midi": 59,
      "hit": false,
      "t": 16333.34150000001,
      "d": 594.4447416666662,
      "v": 71
    },
    {
      "midi": 47,
      "hit": false,
      "t": 16333.34150000001,
      "d": 1911.1120666666684,
      "v": 64
    },
    {
      "midi": 43,
      "hit": false,
      "t": 16500.008250000006,
      "d": 427.7779916666659,
      "v": 62
    },
    {
      "midi": 31,
      "hit": false,
      "t": 16666.675000000007,
      "d": 505.5558083333344,
      "v": 65
    },
    {
      "midi": 43,
      "hit": false,
      "t": 17000.008500000007,
      "d": 488.88913333333403,
      "v": 52
    },
    {
      "midi": 60,
      "hit": false,
      "t": 17000.00850000001,
      "d": 111.11116666666567,
      "v": 77
    },
    {
      "midi": 55,
      "hit": false,
      "t": 17000.00850000001,
      "d": 138.888958333333,
      "v": 68
    },
    {
      "midi": 31,
      "hit": false,
      "t": 17333.342000000008,
      "d": 505.5558083333344,
      "v": 68
    },
    {
      "midi": 55,
      "hit": false,
      "t": 17333.34200000001,
      "d": 344.44461666666757,
      "v": 69
    },
    {
      "midi": 60,
      "hit": false,
      "t": 17333.34200000001,
      "d": 405.5557583333357,
      "v": 69
    },
    {
      "midi": 43,
      "hit": false,
      "t": 17666.67550000001,
      "d": 66.66670000000158,
      "v": 55
    },
    {
      "midi": 43,
      "hit": false,
      "t": 17833.34225000001,
      "d": 338.8890583333341,
      "v": 62
    },
    {
      "midi": 59,
      "hit": false,
      "t": 17833.342250000012,
      "d": 466.66690000000017,
      "v": 59
    },
    {
      "midi": 55,
      "hit": false,
      "t": 17833.342250000012,
      "d": 522.2224833333348,
      "v": 75
    },
    {
      "midi": 31,
      "hit": false,
      "t": 18166.67575000001,
      "d": 322.2223833333337,
      "v": 64
    },
    {
      "midi": 43,
      "hit": false,
      "t": 18333.34250000001,
      "d": 427.7779916666659,
      "v": 56
    },
    {
      "midi": 60,
      "hit": false,
      "t": 18333.342500000013,
      "d": 277.7779166666696,
      "v": 51
    },
    {
      "midi": 50,
      "hit": false,
      "t": 18333.342500000013,
      "d": 294.44459166667,
      "v": 51
    },
    {
      "midi": 43,
      "hit": false,
      "t": 18350.009175000014,
      "d": 194.44454166666765,
      "v": 55
    },
    {
      "midi": 31,
      "hit": false,
      "t": 18666.67600000001,
      "d": 538.8891583333279,
      "v": 64
    },
    {
      "midi": 43,
      "hit": false,
      "t": 18666.676000000018,
      "d": 2383.3345250000093,
      "v": 65
    },
    {
      "midi": 48,
      "hit": false,
      "t": 18666.676000000018,
      "d": 2400.0012000000097,
      "v": 61
    },
    {
      "midi": 43,
      "hit": false,
      "t": 19000.009500000007,
      "d": 83.33337499999834,
      "v": 48
    },
    {
      "midi": 52,
      "hit": false,
      "t": 19000.00950000002,
      "d": 433.3335499999994,
      "v": 58
    },
    {
      "midi": 55,
      "hit": false,
      "t": 19000.00950000002,
      "d": 455.55578333333324,
      "v": 58
    },
    {
      "midi": 43,
      "hit": false,
      "t": 19166.676250000004,
      "d": 394.44464166666876,
      "v": 60
    },
    {
      "midi": 31,
      "hit": false,
      "t": 19333.343000000004,
      "d": 522.2224833333348,
      "v": 48
    },
    {
      "midi": 60,
      "hit": false,
      "t": 19333.34300000002,
      "d": 516.6669250000014,
      "v": 64
    },
    {
      "midi": 58,
      "hit": false,
      "t": 19333.34300000002,
      "d": 538.8891583333352,
      "v": 64
    },
    {
      "midi": 43,
      "hit": false,
      "t": 19666.676500000005,
      "d": 505.5558083333344,
      "v": 65
    },
    {
      "midi": 52,
      "hit": false,
      "t": 19666.67650000002,
      "d": 55.55558333333465,
      "v": 68
    },
    {
      "midi": 55,
      "hit": false,
      "t": 19666.67650000002,
      "d": 61.11114166666812,
      "v": 68
    },
    {
      "midi": 31,
      "hit": false,
      "t": 20000.010000000006,
      "d": 433.3335499999994,
      "v": 59
    },
    {
      "midi": 55,
      "hit": false,
      "t": 20000.01000000002,
      "d": 422.2224333333361,
      "v": 63
    },
    {
      "midi": 52,
      "hit": false,
      "t": 20000.01000000002,
      "d": 444.44466666666995,
      "v": 63
    },
    {
      "midi": 43,
      "hit": false,
      "t": 20333.343500000006,
      "d": 77.77781666666488,
      "v": 61
    },
    {
      "midi": 60,
      "hit": false,
      "t": 20333.34350000002,
      "d": 38.88890833333426,
      "v": 62
    },
    {
      "midi": 58,
      "hit": false,
      "t": 20333.34350000002,
      "d": 44.44446666666772,
      "v": 62
    },
    {
      "midi": 43,
      "hit": false,
      "t": 20500.010250000007,
      "d": 288.8890333333329,
      "v": 54
    },
    {
      "midi": 52,
      "hit": false,
      "t": 20500.010250000025,
      "d": 355.5557333333345,
      "v": 68
    },
    {
      "midi": 55,
      "hit": false,
      "t": 20500.010250000025,
      "d": 355.5557333333345,
      "v": 58
    },
    {
      "midi": 31,
      "hit": false,
      "t": 20666.677000000007,
      "d": 277.777916666666,
      "v": 72
    },
    {
      "midi": 60,
      "hit": false,
      "t": 20666.677000000025,
      "d": 44.44446666666772,
      "v": 60
    },
    {
      "midi": 58,
      "hit": false,
      "t": 20666.677000000025,
      "d": 88.88893333333544,
      "v": 60
    },
    {
      "midi": 43,
      "hit": false,
      "t": 20833.343750000007,
      "d": 533.3336000000018,
      "v": 63
    },
    {
      "midi": 31,
      "hit": false,
      "t": 21000.010500000008,
      "d": 188.88898333333418,
      "v": 52
    },
    {
      "midi": 52,
      "hit": false,
      "t": 21000.010500000026,
      "d": 194.44454166666765,
      "v": 56
    },
    {
      "midi": 55,
      "hit": false,
      "t": 21000.010500000026,
      "d": 216.6667750000015,
      "v": 56
    },
    {
      "midi": 31,
      "hit": false,
      "t": 21333.34400000001,
      "d": 538.8891583333352,
      "v": 68
    },
    {
      "midi": 39,
      "hit": false,
      "t": 21333.344000000026,
      "d": 1227.7783916666704,
      "v": 71
    },
    {
      "midi": 46,
      "hit": false,
      "t": 21333.344000000026,
      "d": 1244.4450666666708,
      "v": 65
    },
    {
      "midi": 43,
      "hit": false,
      "t": 21666.67750000001,
      "d": 72.22225833333505,
      "v": 58
    },
    {
      "midi": 55,
      "hit": false,
      "t": 21666.677500000027,
      "d": 50.00002500000119,
      "v": 63
    },
    {
      "midi": 51,
      "hit": false,
      "t": 21666.677500000027,
      "d": 61.11114166666812,
      "v": 63
    },
    {
      "midi": 43,
      "hit": false,
      "t": 21833.34425000001,
      "d": 444.4446666666663,
      "v": 53
    },
    {
      "midi": 31,
      "hit": false,
      "t": 22000.01100000001,
      "d": 644.4447666666674,
      "v": 66
    },
    {
      "midi": 55,
      "hit": false,
      "t": 22000.011000000028,
      "d": 411.1113166666655,
      "v": 68
    },
    {
      "midi": 51,
      "hit": false,
      "t": 22000.011000000028,
      "d": 450.0002249999998,
      "v": 65
    },
    {
      "midi": 43,
      "hit": false,
      "t": 22333.34450000001,
      "d": 350.00017500000104,
      "v": 63
    },
    {
      "midi": 51,
      "hit": false,
      "t": 22500.01125000003,
      "d": 72.22225833333505,
      "v": 60
    },
    {
      "midi": 55,
      "hit": false,
      "t": 22500.01125000003,
      "d": 72.22225833333505,
      "v": 60
    },
    {
      "midi": 41,
      "hit": false,
      "t": 22666.67800000001,
      "d": 433.3335499999994,
      "v": 50
    },
    {
      "midi": 57,
      "hit": false,
      "t": 22666.67800000003,
      "d": 433.3335499999994,
      "v": 65
    },
    {
      "midi": 41,
      "hit": false,
      "t": 22666.67800000003,
      "d": 1205.5561583333401,
      "v": 60
    },
    {
      "midi": 48,
      "hit": false,
      "t": 22666.67800000003,
      "d": 1277.7784166666752,
      "v": 66
    },
    {
      "midi": 53,
      "hit": false,
      "t": 22833.34475000003,
      "d": 266.66679999999906,
      "v": 59
    },
    {
      "midi": 29,
      "hit": false,
      "t": 23000.01150000001,
      "d": 105.5556083333322,
      "v": 45
    },
    {
      "midi": 29,
      "hit": false,
      "t": 23166.67825000001,
      "d": 355.5557333333345,
      "v": 57
    },
    {
      "midi": 53,
      "hit": false,
      "t": 23166.67825000003,
      "d": 50.00002500000119,
      "v": 72
    },
    {
      "midi": 57,
      "hit": false,
      "t": 23166.67825000003,
      "d": 50.00002500000119,
      "v": 72
    },
    {
      "midi": 57,
      "hit": false,
      "t": 23333.34500000003,
      "d": 66.66670000000158,
      "v": 59
    },
    {
      "midi": 53,
      "hit": false,
      "t": 23333.34500000003,
      "d": 277.7779166666696,
      "v": 59
    },
    {
      "midi": 41,
      "hit": false,
      "t": 23500.011750000012,
      "d": 205.55565833333458,
      "v": 58
    },
    {
      "midi": 29,
      "hit": false,
      "t": 23666.678500000013,
      "d": 283.33347499999945,
      "v": 67
    },
    {
      "midi": 57,
      "hit": false,
      "t": 23666.678500000035,
      "d": 277.7779166666696,
      "v": 57
    },
    {
      "midi": 53,
      "hit": false,
      "t": 23666.678500000035,
      "d": 294.44459166667,
      "v": 57
    },
    {
      "midi": 41,
      "hit": false,
      "t": 23833.345250000013,
      "d": 183.33342500000072,
      "v": 50
    },
    {
      "midi": 31,
      "hit": false,
      "t": 24000.012000000013,
      "d": 538.8891583333352,
      "v": 66
    },
    {
      "midi": 43,
      "hit": false,
      "t": 24000.01200000004,
      "d": 1244.4450666666708,
      "v": 71
    },
    {
      "midi": 38,
      "hit": false,
      "t": 24000.01200000004,
      "d": 1261.1117416666712,
      "v": 68
    },
    {
      "midi": 43,
      "hit": false,
      "t": 24333.345500000014,
      "d": 66.66670000000158,
      "v": 64
    },
    {
      "midi": 55,
      "hit": false,
      "t": 24333.34550000004,
      "d": 272.2223583333325,
      "v": 63
    },
    {
      "midi": 59,
      "hit": false,
      "t": 24333.34550000004,
      "d": 283.33347499999945,
      "v": 63
    },
    {
      "midi": 43,
      "hit": false,
      "t": 24500.012250000014,
      "d": 411.1113166666655,
      "v": 52
    },
    {
      "midi": 31,
      "hit": false,
      "t": 24666.679000000015,
      "d": 350.0001749999974,
      "v": 61
    },
    {
      "midi": 60,
      "hit": false,
      "t": 24666.67900000004,
      "d": 66.66670000000158,
      "v": 58
    },
    {
      "midi": 55,
      "hit": false,
      "t": 24833.34575000004,
      "d": 350.00017500000104,
      "v": 59
    },
    {
      "midi": 60,
      "hit": false,
      "t": 24833.34575000004,
      "d": 400.0002000000022,
      "v": 69
    },
    {
      "midi": 43,
      "hit": false,
      "t": 25000.01250000001,
      "d": 383.3335250000018,
      "v": 53
    },
    {
      "midi": 31,
      "hit": false,
      "t": 25166.679250000012,
      "d": 622.2225333333336,
      "v": 65
    },
    {
      "midi": 55,
      "hit": false,
      "t": 25333.346000000045,
      "d": 161.11119166666685,
      "v": 77
    },
    {
      "midi": 59,
      "hit": false,
      "t": 25333.346000000045,
      "d": 188.88898333333418,
      "v": 77
    },
    {
      "midi": 43,
      "hit": false,
      "t": 25333.346000000045,
      "d": 1033.3338500000027,
      "v": 77
    },
    {
      "midi": 38,
      "hit": false,
      "t": 25333.346000000045,
      "d": 1205.5561583333365,
      "v": 77
    },
    {
      "midi": 43,
      "hit": false,
      "t": 25500.012750000013,
      "d": 50.00002500000119,
      "v": 53
    },
    {
      "midi": 43,
      "hit": false,
      "t": 25666.679500000013,
      "d": 77.77781666666488,
      "v": 62
    },
    {
      "midi": 55,
      "hit": false,
      "t": 25666.679500000046,
      "d": 266.66679999999906,
      "v": 61
    },
    {
      "midi": 59,
      "hit": false,
      "t": 25666.679500000046,
      "d": 277.777916666666,
      "v": 61
    },
    {
      "midi": 43,
      "hit": false,
      "t": 25833.346250000013,
      "d": 355.5557333333345,
      "v": 53
    },
    {
      "midi": 31,
      "hit": false,
      "t": 26000.013000000014,
      "d": 522.2224833333348,
      "v": 64
    },
    {
      "midi": 60,
      "hit": false,
      "t": 26000.013000000046,
      "d": 66.66670000000158,
      "v": 78
    },
    {
      "midi": 55,
      "hit": false,
      "t": 26166.679750000047,
      "d": 283.33347499999945,
      "v": 62
    },
    {
      "midi": 60,
      "hit": false,
      "t": 26166.679750000047,
      "d": 477.7780166666671,
      "v": 62
    },
    {
      "midi": 43,
      "hit": false,
      "t": 26333.346500000014,
      "d": 155.5556333333334,
      "v": 53
    },
    {
      "midi": 43,
      "hit": false,
      "t": 26500.013250000047,
      "d": 144.44451666666646,
      "v": 63
    },
    {
      "midi": 31,
      "hit": false,
      "t": 26666.680000000015,
      "d": 505.5558083333344,
      "v": 64
    },
    {
      "midi": 59,
      "hit": false,
      "t": 26666.680000000048,
      "d": 944.4449166666673,
      "v": 71
    },
    {
      "midi": 43,
      "hit": false,
      "t": 26666.680000000048,
      "d": 2261.1122416666694,
      "v": 82
    },
    {
      "midi": 43,
      "hit": false,
      "t": 27000.013500000015,
      "d": 55.55558333333465,
      "v": 51
    },
    {
      "midi": 55,
      "hit": false,
      "t": 27000.01350000005,
      "d": 577.7780666666658,
      "v": 68
    },
    {
      "midi": 47,
      "hit": false,
      "t": 27000.01350000005,
      "d": 1911.1120666666684,
      "v": 64
    },
    {
      "midi": 43,
      "hit": false,
      "t": 27166.680250000016,
      "d": 427.7779916666659,
      "v": 62
    },
    {
      "midi": 31,
      "hit": false,
      "t": 27333.347000000016,
      "d": 505.5558083333344,
      "v": 65
    },
    {
      "midi": 43,
      "hit": false,
      "t": 27666.680500000017,
      "d": 488.88913333333403,
      "v": 52
    },
    {
      "midi": 60,
      "hit": false,
      "t": 27666.68050000005,
      "d": 111.11116666666567,
      "v": 77
    },
    {
      "midi": 55,
      "hit": false,
      "t": 27666.68050000005,
      "d": 138.888958333333,
      "v": 68
    },
    {
      "midi": 31,
      "hit": false,
      "t": 28000.014000000017,
      "d": 505.5558083333344,
      "v": 68
    },
    {
      "midi": 55,
      "hit": false,
      "t": 28000.01400000005,
      "d": 344.44461666666757,
      "v": 69
    },
    {
      "midi": 60,
      "hit": false,
      "t": 28000.01400000005,
      "d": 405.5557583333357,
      "v": 69
    },
    {
      "midi": 43,
      "hit": false,
      "t": 28333.347500000018,
      "d": 66.66670000000158,
      "v": 55
    },
    {
      "midi": 43,
      "hit": false,
      "t": 28500.01425000002,
      "d": 338.8890583333341,
      "v": 62
    },
    {
      "midi": 59,
      "hit": false,
      "t": 28500.01425000005,
      "d": 466.66690000000017,
      "v": 59
    },
    {
      "midi": 55,
      "hit": false,
      "t": 28500.01425000005,
      "d": 522.2224833333348,
      "v": 75
    },
    {
      "midi": 31,
      "hit": false,
      "t": 28833.34775000002,
      "d": 322.2223833333337,
      "v": 64
    },
    {
      "midi": 43,
      "hit": false,
      "t": 29000.01450000002,
      "d": 427.7779916666659,
      "v": 56
    },
    {
      "midi": 60,
      "hit": false,
      "t": 29000.014500000052,
      "d": 277.7779166666696,
      "v": 51
    },
    {
      "midi": 50,
      "hit": false,
      "t": 29000.014500000052,
      "d": 294.44459166667,
      "v": 51
    },
    {
      "midi": 43,
      "hit": false,
      "t": 29016.681175000052,
      "d": 194.44454166666765,
      "v": 55
    },
    {
      "midi": 31,
      "hit": false,
      "t": 29333.34800000002,
      "d": 538.8891583333279,
      "v": 64
    },
    {
      "midi": 43,
      "hit": false,
      "t": 29333.348000000056,
      "d": 2383.3345250000093,
      "v": 65
    },
    {
      "midi": 48,
      "hit": false,
      "t": 29333.348000000056,
      "d": 2400.0012000000097,
      "v": 61
    },
    {
      "midi": 43,
      "hit": false,
      "t": 29666.681500000017,
      "d": 83.33337499999834,
      "v": 48
    },
    {
      "midi": 52,
      "hit": false,
      "t": 29666.681500000057,
      "d": 433.3335499999994,
      "v": 58
    },
    {
      "midi": 55,
      "hit": false,
      "t": 29666.681500000057,
      "d": 455.55578333333324,
      "v": 58
    },
    {
      "midi": 43,
      "hit": false,
      "t": 29833.348250000014,
      "d": 394.44464166666876,
      "v": 60
    },
    {
      "midi": 31,
      "hit": false,
      "t": 30000.015000000014,
      "d": 522.2224833333348,
      "v": 48
    },
    {
      "midi": 60,
      "hit": false,
      "t": 30000.015000000058,
      "d": 516.6669250000014,
      "v": 64
    },
    {
      "midi": 58,
      "hit": false,
      "t": 30000.015000000058,
      "d": 538.8891583333352,
      "v": 64
    },
    {
      "midi": 43,
      "hit": false,
      "t": 30333.348500000015,
      "d": 505.5558083333344,
      "v": 65
    },
    {
      "midi": 52,
      "hit": false,
      "t": 30333.34850000006,
      "d": 55.55558333333465,
      "v": 68
    },
    {
      "midi": 55,
      "hit": false,
      "t": 30333.34850000006,
      "d": 61.11114166666812,
      "v": 68
    },
    {
      "midi": 31,
      "hit": false,
      "t": 30666.682000000015,
      "d": 433.3335499999994,
      "v": 59
    },
    {
      "midi": 55,
      "hit": false,
      "t": 30666.68200000006,
      "d": 422.2224333333361,
      "v": 63
    },
    {
      "midi": 52,
      "hit": false,
      "t": 30666.68200000006,
      "d": 444.44466666666995,
      "v": 63
    },
    {
      "midi": 43,
      "hit": false,
      "t": 31000.015500000016,
      "d": 77.77781666666488,
      "v": 61
    },
    {
      "midi": 60,
      "hit": false,
      "t": 31000.01550000006,
      "d": 38.88890833333426,
      "v": 62
    },
    {
      "midi": 58,
      "hit": false,
      "t": 31000.01550000006,
      "d": 44.44446666666772,
      "v": 62
    },
    {
      "midi": 43,
      "hit": false,
      "t": 31166.682250000016,
      "d": 288.8890333333329,
      "v": 54
    },
    {
      "midi": 52,
      "hit": false,
      "t": 31166.682250000064,
      "d": 355.5557333333345,
      "v": 68
    },
    {
      "midi": 55,
      "hit": false,
      "t": 31166.682250000064,
      "d": 355.5557333333345,
      "v": 58
    },
    {
      "midi": 31,
      "hit": false,
      "t": 31333.349000000017,
      "d": 277.777916666666,
      "v": 72
    },
    {
      "midi": 60,
      "hit": false,
      "t": 31333.349000000064,
      "d": 44.44446666666772,
      "v": 60
    },
    {
      "midi": 58,
      "hit": false,
      "t": 31333.349000000064,
      "d": 88.88893333333544,
      "v": 60
    },
    {
      "midi": 43,
      "hit": false,
      "t": 31500.015750000017,
      "d": 533.3336000000018,
      "v": 63
    },
    {
      "midi": 31,
      "hit": false,
      "t": 31666.682500000017,
      "d": 188.88898333333418,
      "v": 52
    },
    {
      "midi": 52,
      "hit": false,
      "t": 31666.682500000064,
      "d": 194.44454166666765,
      "v": 56
    },
    {
      "midi": 55,
      "hit": false,
      "t": 31666.682500000064,
      "d": 216.6667750000015,
      "v": 56
    },
    {
      "midi": 31,
      "hit": false,
      "t": 32000.016000000018,
      "d": 538.8891583333352,
      "v": 68
    },
    {
      "midi": 39,
      "hit": false,
      "t": 32000.016000000065,
      "d": 1227.7783916666704,
      "v": 71
    },
    {
      "midi": 46,
      "hit": false,
      "t": 32000.016000000065,
      "d": 1244.4450666666708,
      "v": 65
    },
    {
      "midi": 43,
      "hit": false,
      "t": 32333.34950000002,
      "d": 72.22225833333505,
      "v": 58
    },
    {
      "midi": 55,
      "hit": false,
      "t": 32333.349500000066,
      "d": 50.00002500000119,
      "v": 63
    },
    {
      "midi": 51,
      "hit": false,
      "t": 32333.349500000066,
      "d": 61.11114166666812,
      "v": 63
    },
    {
      "midi": 43,
      "hit": false,
      "t": 32500.01625000002,
      "d": 444.4446666666663,
      "v": 53
    },
    {
      "midi": 31,
      "hit": false,
      "t": 32666.68300000002,
      "d": 644.4447666666674,
      "v": 66
    },
    {
      "midi": 55,
      "hit": false,
      "t": 32666.683000000066,
      "d": 411.1113166666655,
      "v": 68
    },
    {
      "midi": 51,
      "hit": false,
      "t": 32666.683000000066,
      "d": 450.0002249999998,
      "v": 65
    },
    {
      "midi": 43,
      "hit": false,
      "t": 33000.01650000002,
      "d": 350.00017500000104,
      "v": 63
    },
    {
      "midi": 51,
      "hit": false,
      "t": 33166.68325000007,
      "d": 72.22225833333505,
      "v": 60
    },
    {
      "midi": 55,
      "hit": false,
      "t": 33166.68325000007,
      "d": 72.22225833333505,
      "v": 60
    },
    {
      "midi": 41,
      "hit": false,
      "t": 33333.35000000002,
      "d": 433.333550000003,
      "v": 50
    },
    {
      "midi": 57,
      "hit": false,
      "t": 33333.35000000007,
      "d": 433.33354999999574,
      "v": 65
    },
    {
      "midi": 41,
      "hit": false,
      "t": 33333.35000000007,
      "d": 1205.5561583333329,
      "v": 60
    },
    {
      "midi": 48,
      "hit": false,
      "t": 33333.35000000007,
      "d": 1277.778416666668,
      "v": 66
    },
    {
      "midi": 53,
      "hit": false,
      "t": 33500.01675000007,
      "d": 266.66679999999906,
      "v": 59
    },
    {
      "midi": 29,
      "hit": false,
      "t": 33666.68350000002,
      "d": 105.55560833333584,
      "v": 45
    },
    {
      "midi": 29,
      "hit": false,
      "t": 33833.350250000025,
      "d": 355.5557333333345,
      "v": 57
    },
    {
      "midi": 53,
      "hit": false,
      "t": 33833.35025000007,
      "d": 50.00002500000119,
      "v": 72
    },
    {
      "midi": 57,
      "hit": false,
      "t": 33833.35025000007,
      "d": 50.00002500000119,
      "v": 72
    },
    {
      "midi": 57,
      "hit": false,
      "t": 34000.01700000007,
      "d": 66.66670000000158,
      "v": 59
    },
    {
      "midi": 53,
      "hit": false,
      "t": 34000.01700000007,
      "d": 277.777916666666,
      "v": 59
    },
    {
      "midi": 41,
      "hit": false,
      "t": 34166.683750000026,
      "d": 205.55565833333822,
      "v": 58
    },
    {
      "midi": 29,
      "hit": false,
      "t": 34333.35050000003,
      "d": 283.33347500000673,
      "v": 67
    },
    {
      "midi": 57,
      "hit": false,
      "t": 34333.35050000007,
      "d": 277.777916666666,
      "v": 57
    },
    {
      "midi": 53,
      "hit": false,
      "t": 34333.35050000007,
      "d": 294.4445916666664,
      "v": 57
    },
    {
      "midi": 41,
      "hit": false,
      "t": 34500.01725000003,
      "d": 183.33342500000435,
      "v": 50
    },
    {
      "midi": 31,
      "hit": false,
      "t": 34666.68400000004,
      "d": 538.8891583333389,
      "v": 66
    },
    {
      "midi": 43,
      "hit": false,
      "t": 34666.684000000074,
      "d": 1244.4450666666744,
      "v": 71
    },
    {
      "midi": 38,
      "hit": false,
      "t": 34666.684000000074,
      "d": 1261.1117416666748,
      "v": 68
    },
    {
      "midi": 43,
      "hit": false,
      "t": 35000.01750000004,
      "d": 66.66670000000158,
      "v": 64
    },
    {
      "midi": 55,
      "hit": false,
      "t": 35000.017500000075,
      "d": 272.2223583333325,
      "v": 63
    },
    {
      "midi": 59,
      "hit": false,
      "t": 35000.017500000075,
      "d": 283.33347499999945,
      "v": 63
    },
    {
      "midi": 43,
      "hit": false,
      "t": 35166.68425000004,
      "d": 411.11131666666915,
      "v": 52
    },
    {
      "midi": 31,
      "hit": false,
      "t": 35333.351000000046,
      "d": 350.00017500000104,
      "v": 61
    },
    {
      "midi": 60,
      "hit": false,
      "t": 35333.351000000075,
      "d": 66.66670000000158,
      "v": 58
    },
    {
      "midi": 55,
      "hit": false,
      "t": 35500.01775000008,
      "d": 350.00017500000104,
      "v": 59
    },
    {
      "midi": 60,
      "hit": false,
      "t": 35500.01775000008,
      "d": 400.0002000000022,
      "v": 69
    },
    {
      "midi": 43,
      "hit": false,
      "t": 35666.68450000005,
      "d": 383.3335250000018,
      "v": 53
    },
    {
      "midi": 31,
      "hit": false,
      "t": 35833.35125000005,
      "d": 622.2225333333408,
      "v": 65
    },
    {
      "midi": 55,
      "hit": false,
      "t": 36000.018000000084,
      "d": 161.11119166666322,
      "v": 77
    },
    {
      "midi": 59,
      "hit": false,
      "t": 36000.018000000084,
      "d": 188.88898333333054,
      "v": 77
    },
    {
      "midi": 43,
      "hit": false,
      "t": 36000.018000000084,
      "d": 1033.3338500000027,
      "v": 77
    },
    {
      "midi": 38,
      "hit": false,
      "t": 36000.018000000084,
      "d": 1205.5561583333401,
      "v": 77
    },
    {
      "midi": 43,
      "hit": false,
      "t": 36166.68475000005,
      "d": 50.00002500000119,
      "v": 53
    },
    {
      "midi": 43,
      "hit": false,
      "t": 36333.351500000055,
      "d": 77.77781666666851,
      "v": 62
    },
    {
      "midi": 55,
      "hit": false,
      "t": 36333.351500000084,
      "d": 266.66679999999906,
      "v": 61
    },
    {
      "midi": 59,
      "hit": false,
      "t": 36333.351500000084,
      "d": 277.777916666666,
      "v": 61
    },
    {
      "midi": 43,
      "hit": false,
      "t": 36500.01825000006,
      "d": 355.5557333333272,
      "v": 53
    },
    {
      "midi": 31,
      "hit": false,
      "t": 36666.685000000056,
      "d": 522.2224833333312,
      "v": 64
    },
    {
      "midi": 60,
      "hit": false,
      "t": 36666.685000000085,
      "d": 66.66670000000158,
      "v": 78
    },
    {
      "midi": 55,
      "hit": false,
      "t": 36833.35175000009,
      "d": 283.33347499999945,
      "v": 62
    },
    {
      "midi": 60,
      "hit": false,
      "t": 36833.35175000009,
      "d": 483.3335750000042,
      "v": 62
    },
    {
      "midi": 43,
      "hit": false,
      "t": 37000.01850000006,
      "d": 155.55563333332975,
      "v": 53
    },
    {
      "midi": 43,
      "hit": false,
      "t": 37166.68525000009,
      "d": 144.4445166666701,
      "v": 63
    },
    {
      "midi": 31,
      "hit": false,
      "t": 37333.35200000006,
      "d": 505.55580833333806,
      "v": 64
    },
    {
      "midi": 55,
      "hit": false,
      "t": 37333.35200000009,
      "d": 850.0004249999984,
      "v": 68
    },
    {
      "midi": 43,
      "hit": false,
      "t": 37333.35200000009,
      "d": 2261.1122416666767,
      "v": 82
    },
    {
      "midi": 43,
      "hit": false,
      "t": 37666.68550000006,
      "d": 55.55558333333465,
      "v": 51
    },
    {
      "midi": 59,
      "hit": false,
      "t": 37666.685500000094,
      "d": 594.4447416666662,
      "v": 71
    },
    {
      "midi": 47,
      "hit": false,
      "t": 37666.685500000094,
      "d": 1911.1120666666757,
      "v": 64
    },
    {
      "midi": 43,
      "hit": false,
      "t": 37833.35225000006,
      "d": 427.7779916666623,
      "v": 62
    },
    {
      "midi": 31,
      "hit": false,
      "t": 38000.01900000006,
      "d": 505.5558083333308,
      "v": 65
    },
    {
      "midi": 43,
      "hit": false,
      "t": 38333.35250000006,
      "d": 488.8891333333231,
      "v": 52
    },
    {
      "midi": 60,
      "hit": false,
      "t": 38333.352500000095,
      "d": 111.1111666666693,
      "v": 77
    },
    {
      "midi": 55,
      "hit": false,
      "t": 38333.352500000095,
      "d": 138.88895833333663,
      "v": 68
    },
    {
      "midi": 31,
      "hit": false,
      "t": 38666.68600000005,
      "d": 505.5558083333308,
      "v": 68
    },
    {
      "midi": 55,
      "hit": false,
      "t": 38666.686000000096,
      "d": 344.44461666666757,
      "v": 69
    },
    {
      "midi": 60,
      "hit": false,
      "t": 38666.686000000096,
      "d": 405.5557583333357,
      "v": 69
    },
    {
      "midi": 43,
      "hit": false,
      "t": 39000.019500000046,
      "d": 66.66670000000158,
      "v": 55
    },
    {
      "midi": 43,
      "hit": false,
      "t": 39166.68625000005,
      "d": 338.8890583333341,
      "v": 62
    },
    {
      "midi": 59,
      "hit": false,
      "t": 39166.6862500001,
      "d": 466.6669000000038,
      "v": 59
    },
    {
      "midi": 55,
      "hit": false,
      "t": 39166.6862500001,
      "d": 522.2224833333385,
      "v": 75
    },
    {
      "midi": 31,
      "hit": false,
      "t": 39500.01975000005,
      "d": 322.22238333332643,
      "v": 64
    },
    {
      "midi": 43,
      "hit": false,
      "t": 39666.68650000005,
      "d": 427.7779916666623,
      "v": 56
    },
    {
      "midi": 60,
      "hit": false,
      "t": 39666.686500000105,
      "d": 277.777916666666,
      "v": 51
    },
    {
      "midi": 50,
      "hit": false,
      "t": 39666.686500000105,
      "d": 294.4445916666664,
      "v": 51
    },
    {
      "midi": 43,
      "hit": false,
      "t": 39683.353175000106,
      "d": 194.444541666664,
      "v": 55
    },
    {
      "midi": 31,
      "hit": false,
      "t": 40000.02000000004,
      "d": 538.8891583333389,
      "v": 64
    },
    {
      "midi": 43,
      "hit": false,
      "t": 40000.020000000106,
      "d": 2383.33452500002,
      "v": 65
    },
    {
      "midi": 48,
      "hit": false,
      "t": 40000.020000000106,
      "d": 2400.0012000000206,
      "v": 61
    },
    {
      "midi": 43,
      "hit": false,
      "t": 40333.35350000004,
      "d": 83.33337500000198,
      "v": 48
    },
    {
      "midi": 52,
      "hit": false,
      "t": 40333.35350000011,
      "d": 433.333550000003,
      "v": 58
    },
    {
      "midi": 55,
      "hit": false,
      "t": 40333.35350000011,
      "d": 455.5557833333369,
      "v": 58
    },
    {
      "midi": 43,
      "hit": false,
      "t": 40500.020250000045,
      "d": 394.44464166666876,
      "v": 60
    },
    {
      "midi": 31,
      "hit": false,
      "t": 40666.68700000005,
      "d": 522.2224833333312,
      "v": 48
    },
    {
      "midi": 60,
      "hit": false,
      "t": 40666.68700000011,
      "d": 516.666925000005,
      "v": 64
    },
    {
      "midi": 58,
      "hit": false,
      "t": 40666.68700000011,
      "d": 538.8891583333389,
      "v": 64
    },
    {
      "midi": 43,
      "hit": false,
      "t": 41000.02050000005,
      "d": 505.5558083333308,
      "v": 65
    },
    {
      "midi": 52,
      "hit": false,
      "t": 41000.02050000011,
      "d": 55.55558333333465,
      "v": 68
    },
    {
      "midi": 55,
      "hit": false,
      "t": 41000.02050000011,
      "d": 61.11114166666812,
      "v": 68
    },
    {
      "midi": 31,
      "hit": false,
      "t": 41333.35400000005,
      "d": 433.33354999999574,
      "v": 59
    },
    {
      "midi": 55,
      "hit": false,
      "t": 41333.354000000116,
      "d": 422.2224333333361,
      "v": 63
    },
    {
      "midi": 52,
      "hit": false,
      "t": 41333.354000000116,
      "d": 444.44466666666995,
      "v": 63
    },
    {
      "midi": 43,
      "hit": false,
      "t": 41666.687500000044,
      "d": 77.77781666666851,
      "v": 61
    },
    {
      "midi": 60,
      "hit": false,
      "t": 41666.68750000012,
      "d": 38.88890833333426,
      "v": 62
    },
    {
      "midi": 58,
      "hit": false,
      "t": 41666.68750000012,
      "d": 44.44446666666772,
      "v": 62
    },
    {
      "midi": 43,
      "hit": false,
      "t": 41833.35425000005,
      "d": 288.8890333333329,
      "v": 54
    },
    {
      "midi": 52,
      "hit": false,
      "t": 41833.35425000012,
      "d": 355.5557333333345,
      "v": 68
    },
    {
      "midi": 55,
      "hit": false,
      "t": 41833.35425000012,
      "d": 355.5557333333345,
      "v": 58
    },
    {
      "midi": 31,
      "hit": false,
      "t": 42000.021000000044,
      "d": 277.77791666667326,
      "v": 72
    },
    {
      "midi": 60,
      "hit": false,
      "t": 42000.02100000012,
      "d": 44.44446666666772,
      "v": 60
    },
    {
      "midi": 58,
      "hit": false,
      "t": 42000.02100000012,
      "d": 88.88893333333544,
      "v": 60
    },
    {
      "midi": 43,
      "hit": false,
      "t": 42166.68775000005,
      "d": 533.3336000000054,
      "v": 63
    },
    {
      "midi": 31,
      "hit": false,
      "t": 42333.35450000005,
      "d": 188.88898333333054,
      "v": 52
    },
    {
      "midi": 52,
      "hit": false,
      "t": 42333.354500000125,
      "d": 194.44454166667128,
      "v": 56
    },
    {
      "midi": 55,
      "hit": false,
      "t": 42333.354500000125,
      "d": 216.66677500000515,
      "v": 56
    },
    {
      "midi": 31,
      "hit": false,
      "t": 42666.68800000005,
      "d": 538.8891583333389,
      "v": 68
    },
    {
      "midi": 39,
      "hit": false,
      "t": 42666.68800000013,
      "d": 1227.778391666674,
      "v": 71
    },
    {
      "midi": 46,
      "hit": false,
      "t": 42666.68800000013,
      "d": 1244.4450666666744,
      "v": 65
    },
    {
      "midi": 43,
      "hit": false,
      "t": 43000.02150000005,
      "d": 72.22225833333505,
      "v": 58
    },
    {
      "midi": 55,
      "hit": false,
      "t": 43000.02150000013,
      "d": 50.00002500000119,
      "v": 63
    },
    {
      "midi": 51,
      "hit": false,
      "t": 43000.02150000013,
      "d": 61.11114166666812,
      "v": 63
    },
    {
      "midi": 43,
      "hit": false,
      "t": 43166.68825000006,
      "d": 444.44466666666995,
      "v": 53
    },
    {
      "midi": 31,
      "hit": false,
      "t": 43333.35500000006,
      "d": 644.4447666666674,
      "v": 66
    },
    {
      "midi": 55,
      "hit": false,
      "t": 43333.355000000134,
      "d": 411.11131666666915,
      "v": 68
    },
    {
      "midi": 51,
      "hit": false,
      "t": 43333.355000000134,
      "d": 450.0002250000034,
      "v": 65
    },
    {
      "midi": 43,
      "hit": false,
      "t": 43666.68850000006,
      "d": 350.00017500000104,
      "v": 63
    },
    {
      "midi": 51,
      "hit": false,
      "t": 43833.35525000014,
      "d": 72.22225833333505,
      "v": 60
    },
    {
      "midi": 55,
      "hit": false,
      "t": 43833.35525000014,
      "d": 72.22225833333505,
      "v": 60
    },
    {
      "midi": 41,
      "hit": false,
      "t": 44000.02200000006,
      "d": 433.333550000003,
      "v": 50
    },
    {
      "midi": 57,
      "hit": false,
      "t": 44000.02200000014,
      "d": 433.33354999999574,
      "v": 65
    },
    {
      "midi": 41,
      "hit": false,
      "t": 44000.02200000014,
      "d": 1205.5561583333329,
      "v": 60
    },
    {
      "midi": 48,
      "hit": false,
      "t": 44000.02200000014,
      "d": 1277.778416666668,
      "v": 66
    },
    {
      "midi": 53,
      "hit": false,
      "t": 44166.68875000014,
      "d": 266.66679999999906,
      "v": 59
    },
    {
      "midi": 29,
      "hit": false,
      "t": 44333.35550000006,
      "d": 105.55560833333584,
      "v": 45
    },
    {
      "midi": 29,
      "hit": false,
      "t": 44500.02225000007,
      "d": 355.5557333333345,
      "v": 57
    },
    {
      "midi": 53,
      "hit": false,
      "t": 44500.02225000014,
      "d": 50.00002500000119,
      "v": 72
    },
    {
      "midi": 57,
      "hit": false,
      "t": 44500.02225000014,
      "d": 50.00002500000119,
      "v": 72
    },
    {
      "midi": 57,
      "hit": false,
      "t": 44666.689000000144,
      "d": 66.66670000000158,
      "v": 59
    },
    {
      "midi": 53,
      "hit": false,
      "t": 44666.689000000144,
      "d": 277.777916666666,
      "v": 59
    },
    {
      "midi": 41,
      "hit": false,
      "t": 44833.35575000007,
      "d": 205.55565833333822,
      "v": 58
    },
    {
      "midi": 29,
      "hit": false,
      "t": 45000.02250000007,
      "d": 283.33347500000673,
      "v": 67
    },
    {
      "midi": 57,
      "hit": false,
      "t": 45000.022500000145,
      "d": 277.777916666666,
      "v": 57
    },
    {
      "midi": 53,
      "hit": false,
      "t": 45000.022500000145,
      "d": 294.4445916666664,
      "v": 57
    },
    {
      "midi": 41,
      "hit": false,
      "t": 45166.689250000076,
      "d": 183.33342500000435,
      "v": 50
    },
    {
      "midi": 31,
      "hit": false,
      "t": 45333.35600000008,
      "d": 538.8891583333389,
      "v": 66
    },
    {
      "midi": 43,
      "hit": false,
      "t": 45333.356000000145,
      "d": 1244.4450666666744,
      "v": 71
    },
    {
      "midi": 38,
      "hit": false,
      "t": 45333.356000000145,
      "d": 1261.1117416666748,
      "v": 68
    },
    {
      "midi": 43,
      "hit": false,
      "t": 45666.68950000008,
      "d": 66.66670000000158,
      "v": 64
    },
    {
      "midi": 55,
      "hit": false,
      "t": 45666.689500000146,
      "d": 272.2223583333325,
      "v": 63
    },
    {
      "midi": 59,
      "hit": false,
      "t": 45666.689500000146,
      "d": 283.33347499999945,
      "v": 63
    },
    {
      "midi": 43,
      "hit": false,
      "t": 45833.356250000084,
      "d": 411.11131666666915,
      "v": 52
    },
    {
      "midi": 31,
      "hit": false,
      "t": 46000.02300000009,
      "d": 350.00017500000104,
      "v": 61
    },
    {
      "midi": 60,
      "hit": false,
      "t": 46000.02300000015,
      "d": 66.66670000000158,
      "v": 58
    },
    {
      "midi": 55,
      "hit": false,
      "t": 46166.68975000015,
      "d": 350.00017500000104,
      "v": 59
    },
    {
      "midi": 60,
      "hit": false,
      "t": 46166.68975000015,
      "d": 400.0002000000022,
      "v": 69
    },
    {
      "midi": 43,
      "hit": false,
      "t": 46333.35650000009,
      "d": 383.3335250000018,
      "v": 53
    },
    {
      "midi": 31,
      "hit": false,
      "t": 46500.02325000009,
      "d": 622.2225333333408,
      "v": 65
    },
    {
      "midi": 55,
      "hit": false,
      "t": 46666.690000000155,
      "d": 161.11119166666322,
      "v": 77
    },
    {
      "midi": 59,
      "hit": false,
      "t": 46666.690000000155,
      "d": 188.88898333333054,
      "v": 77
    },
    {
      "midi": 43,
      "hit": false,
      "t": 46666.690000000155,
      "d": 1033.3338500000027,
      "v": 77
    },
    {
      "midi": 38,
      "hit": false,
      "t": 46666.690000000155,
      "d": 1205.5561583333401,
      "v": 77
    },
    {
      "midi": 43,
      "hit": false,
      "t": 46833.35675000009,
      "d": 50.00002500000119,
      "v": 53
    },
    {
      "midi": 43,
      "hit": false,
      "t": 47000.0235000001,
      "d": 77.77781666666851,
      "v": 62
    },
    {
      "midi": 55,
      "hit": false,
      "t": 47000.023500000156,
      "d": 266.66679999999906,
      "v": 61
    },
    {
      "midi": 59,
      "hit": false,
      "t": 47000.023500000156,
      "d": 277.777916666666,
      "v": 61
    },
    {
      "midi": 43,
      "hit": false,
      "t": 47166.6902500001,
      "d": 355.5557333333272,
      "v": 53
    },
    {
      "midi": 31,
      "hit": false,
      "t": 47333.3570000001,
      "d": 522.2224833333312,
      "v": 64
    },
    {
      "midi": 60,
      "hit": false,
      "t": 47333.35700000016,
      "d": 66.66670000000158,
      "v": 78
    },
    {
      "midi": 55,
      "hit": false,
      "t": 47500.02375000016,
      "d": 283.33347499999945,
      "v": 62
    },
    {
      "midi": 60,
      "hit": false,
      "t": 47500.02375000016,
      "d": 500.0002500000046,
      "v": 62
    },
    {
      "midi": 43,
      "hit": false,
      "t": 47666.6905000001,
      "d": 155.55563333332975,
      "v": 53
    },
    {
      "midi": 43,
      "hit": false,
      "t": 47833.35725000016,
      "d": 144.4445166666701,
      "v": 63
    },
    {
      "midi": 31,
      "hit": false,
      "t": 48000.0240000001,
      "d": 505.55580833333806,
      "v": 64
    },
    {
      "midi": 55,
      "hit": false,
      "t": 48000.024000000165,
      "d": 216.66677499999787,
      "v": 62
    },
    {
      "midi": 59,
      "hit": false,
      "t": 48000.024000000165,
      "d": 216.66677499999787,
      "v": 62
    },
    {
      "midi": 43,
      "hit": false,
      "t": 48000.024000000165,
      "d": 2261.1122416666767,
      "v": 82
    },
    {
      "midi": 43,
      "hit": false,
      "t": 48333.3575000001,
      "d": 55.55558333333465,
      "v": 51
    },
    {
      "midi": 55,
      "hit": false,
      "t": 48333.357500000166,
      "d": 577.7780666666658,
      "v": 68
    },
    {
      "midi": 59,
      "hit": false,
      "t": 48333.357500000166,
      "d": 594.4447416666662,
      "v": 71
    },
    {
      "midi": 47,
      "hit": false,
      "t": 48333.357500000166,
      "d": 1911.1120666666757,
      "v": 64
    },
    {
      "midi": 43,
      "hit": false,
      "t": 48500.024250000104,
      "d": 427.7779916666623,
      "v": 62
    },
    {
      "midi": 31,
      "hit": false,
      "t": 48666.6910000001,
      "d": 505.5558083333308,
      "v": 65
    },
    {
      "midi": 43,
      "hit": false,
      "t": 49000.0245000001,
      "d": 488.8891333333231,
      "v": 52
    },
    {
      "midi": 60,
      "hit": false,
      "t": 49000.02450000017,
      "d": 111.1111666666693,
      "v": 77
    },
    {
      "midi": 55,
      "hit": false,
      "t": 49000.02450000017,
      "d": 138.88895833333663,
      "v": 68
    },
    {
      "midi": 31,
      "hit": false,
      "t": 49333.358000000095,
      "d": 505.5558083333308,
      "v": 68
    },
    {
      "midi": 55,
      "hit": false,
      "t": 49333.35800000017,
      "d": 344.44461666666757,
      "v": 69
    },
    {
      "midi": 60,
      "hit": false,
      "t": 49333.35800000017,
      "d": 405.5557583333357,
      "v": 69
    },
    {
      "midi": 43,
      "hit": false,
      "t": 49666.69150000009,
      "d": 66.66670000000158,
      "v": 55
    },
    {
      "midi": 43,
      "hit": false,
      "t": 49833.35825000009,
      "d": 338.8890583333341,
      "v": 62
    },
    {
      "midi": 59,
      "hit": false,
      "t": 49833.35825000017,
      "d": 466.6669000000038,
      "v": 59
    },
    {
      "midi": 55,
      "hit": false,
      "t": 49833.35825000017,
      "d": 522.2224833333385,
      "v": 75
    },
    {
      "midi": 31,
      "hit": false,
      "t": 50166.69175000009,
      "d": 322.22238333332643,
      "v": 64
    },
    {
      "midi": 43,
      "hit": false,
      "t": 50333.35850000009,
      "d": 427.7779916666623,
      "v": 56
    },
    {
      "midi": 60,
      "hit": false,
      "t": 50333.35850000018,
      "d": 277.777916666666,
      "v": 51
    },
    {
      "midi": 50,
      "hit": false,
      "t": 50333.35850000018,
      "d": 294.4445916666664,
      "v": 51
    },
    {
      "midi": 43,
      "hit": false,
      "t": 50350.02517500018,
      "d": 194.444541666664,
      "v": 55
    },
    {
      "midi": 31,
      "hit": false,
      "t": 50666.69200000008,
      "d": 538.8891583333389,
      "v": 64
    },
    {
      "midi": 43,
      "hit": false,
      "t": 50666.69200000018,
      "d": 2383.33452500002,
      "v": 65
    },
    {
      "midi": 48,
      "hit": false,
      "t": 50666.69200000018,
      "d": 2400.0012000000206,
      "v": 61
    },
    {
      "midi": 43,
      "hit": false,
      "t": 51000.02550000008,
      "d": 83.33337500000198,
      "v": 48
    },
    {
      "midi": 52,
      "hit": false,
      "t": 51000.02550000018,
      "d": 433.333550000003,
      "v": 58
    },
    {
      "midi": 55,
      "hit": false,
      "t": 51000.02550000018,
      "d": 455.5557833333369,
      "v": 58
    },
    {
      "midi": 43,
      "hit": false,
      "t": 51166.69225000009,
      "d": 394.44464166666876,
      "v": 60
    },
    {
      "midi": 31,
      "hit": false,
      "t": 51333.35900000009,
      "d": 522.2224833333312,
      "v": 48
    },
    {
      "midi": 60,
      "hit": false,
      "t": 51333.35900000018,
      "d": 516.666925000005,
      "v": 64
    },
    {
      "midi": 58,
      "hit": false,
      "t": 51333.35900000018,
      "d": 538.8891583333389,
      "v": 64
    },
    {
      "midi": 43,
      "hit": false,
      "t": 51666.69250000009,
      "d": 505.5558083333308,
      "v": 65
    },
    {
      "midi": 52,
      "hit": false,
      "t": 51666.69250000018,
      "d": 55.55558333333465,
      "v": 68
    },
    {
      "midi": 55,
      "hit": false,
      "t": 51666.69250000018,
      "d": 61.11114166666812,
      "v": 68
    },
    {
      "midi": 31,
      "hit": false,
      "t": 52000.02600000009,
      "d": 433.33354999999574,
      "v": 59
    },
    {
      "midi": 55,
      "hit": false,
      "t": 52000.02600000019,
      "d": 422.2224333333361,
      "v": 63
    },
    {
      "midi": 52,
      "hit": false,
      "t": 52000.02600000019,
      "d": 444.44466666666995,
      "v": 63
    },
    {
      "midi": 43,
      "hit": false,
      "t": 52333.359500000086,
      "d": 77.77781666666851,
      "v": 61
    },
    {
      "midi": 60,
      "hit": false,
      "t": 52333.35950000019,
      "d": 38.88890833333426,
      "v": 62
    },
    {
      "midi": 58,
      "hit": false,
      "t": 52333.35950000019,
      "d": 44.44446666666772,
      "v": 62
    },
    {
      "midi": 43,
      "hit": false,
      "t": 52500.02625000009,
      "d": 288.8890333333329,
      "v": 54
    },
    {
      "midi": 52,
      "hit": false,
      "t": 52500.02625000019,
      "d": 355.5557333333345,
      "v": 68
    },
    {
      "midi": 55,
      "hit": false,
      "t": 52500.02625000019,
      "d": 355.5557333333345,
      "v": 58
    },
    {
      "midi": 31,
      "hit": false,
      "t": 52666.69300000009,
      "d": 277.77791666667326,
      "v": 72
    },
    {
      "midi": 60,
      "hit": false,
      "t": 52666.69300000019,
      "d": 44.44446666666772,
      "v": 60
    },
    {
      "midi": 58,
      "hit": false,
      "t": 52666.69300000019,
      "d": 88.88893333333544,
      "v": 60
    },
    {
      "midi": 43,
      "hit": false,
      "t": 52833.35975000009,
      "d": 533.3336000000054,
      "v": 63
    },
    {
      "midi": 31,
      "hit": false,
      "t": 53000.026500000095,
      "d": 188.88898333333054,
      "v": 52
    },
    {
      "midi": 52,
      "hit": false,
      "t": 53000.0265000002,
      "d": 194.44454166667128,
      "v": 56
    },
    {
      "midi": 55,
      "hit": false,
      "t": 53000.0265000002,
      "d": 216.66677500000515,
      "v": 56
    },
    {
      "midi": 31,
      "hit": false,
      "t": 53333.360000000095,
      "d": 538.8891583333389,
      "v": 68
    },
    {
      "midi": 39,
      "hit": false,
      "t": 53333.360000000204,
      "d": 1227.778391666674,
      "v": 71
    },
    {
      "midi": 46,
      "hit": false,
      "t": 53333.360000000204,
      "d": 1244.4450666666744,
      "v": 65
    },
    {
      "midi": 43,
      "hit": false,
      "t": 53666.693500000096,
      "d": 72.22225833333505,
      "v": 58
    },
    {
      "midi": 55,
      "hit": false,
      "t": 53666.693500000205,
      "d": 50.00002500000119,
      "v": 63
    },
    {
      "midi": 51,
      "hit": false,
      "t": 53666.693500000205,
      "d": 61.11114166666812,
      "v": 63
    },
    {
      "midi": 43,
      "hit": false,
      "t": 53833.3602500001,
      "d": 444.44466666666995,
      "v": 53
    },
    {
      "midi": 31,
      "hit": false,
      "t": 54000.027000000104,
      "d": 644.4447666666674,
      "v": 66
    },
    {
      "midi": 55,
      "hit": false,
      "t": 54000.027000000206,
      "d": 411.11131666666915,
      "v": 68
    },
    {
      "midi": 51,
      "hit": false,
      "t": 54000.027000000206,
      "d": 450.0002250000034,
      "v": 65
    },
    {
      "midi": 43,
      "hit": false,
      "t": 54333.360500000104,
      "d": 350.00017500000104,
      "v": 63
    },
    {
      "midi": 51,
      "hit": false,
      "t": 54500.02725000021,
      "d": 72.22225833333505,
      "v": 60
    },
    {
      "midi": 55,
      "hit": false,
      "t": 54500.02725000021,
      "d": 72.22225833333505,
      "v": 60
    },
    {
      "midi": 41,
      "hit": false,
      "t": 54666.694000000105,
      "d": 433.333550000003,
      "v": 50
    },
    {
      "midi": 57,
      "hit": false,
      "t": 54666.694000000214,
      "d": 433.33354999999574,
      "v": 65
    },
    {
      "midi": 41,
      "hit": false,
      "t": 54666.694000000214,
      "d": 1205.5561583333329,
      "v": 60
    },
    {
      "midi": 48,
      "hit": false,
      "t": 54666.694000000214,
      "d": 1277.778416666668,
      "v": 66
    },
    {
      "midi": 53,
      "hit": false,
      "t": 54833.36075000021,
      "d": 266.66679999999906,
      "v": 59
    },
    {
      "midi": 29,
      "hit": false,
      "t": 55000.027500000106,
      "d": 105.55560833333584,
      "v": 45
    },
    {
      "midi": 29,
      "hit": false,
      "t": 55166.69425000011,
      "d": 355.5557333333345,
      "v": 57
    },
    {
      "midi": 53,
      "hit": false,
      "t": 55166.69425000021,
      "d": 50.00002500000119,
      "v": 72
    },
    {
      "midi": 57,
      "hit": false,
      "t": 55166.69425000021,
      "d": 50.00002500000119,
      "v": 72
    },
    {
      "midi": 57,
      "hit": false,
      "t": 55333.361000000215,
      "d": 66.66670000000158,
      "v": 59
    },
    {
      "midi": 53,
      "hit": false,
      "t": 55333.361000000215,
      "d": 277.777916666666,
      "v": 59
    },
    {
      "midi": 41,
      "hit": false,
      "t": 55500.02775000011,
      "d": 205.55565833333822,
      "v": 58
    },
    {
      "midi": 29,
      "hit": false,
      "t": 55666.694500000114,
      "d": 283.33347500000673,
      "v": 67
    },
    {
      "midi": 57,
      "hit": false,
      "t": 55666.694500000216,
      "d": 277.777916666666,
      "v": 57
    },
    {
      "midi": 53,
      "hit": false,
      "t": 55666.694500000216,
      "d": 294.4445916666664,
      "v": 57
    },
    {
      "midi": 41,
      "hit": false,
      "t": 55833.36125000012,
      "d": 183.33342500000435,
      "v": 50
    },
    {
      "midi": 31,
      "hit": false,
      "t": 56000.02800000012,
      "d": 538.8891583333389,
      "v": 66
    },
    {
      "midi": 43,
      "hit": false,
      "t": 56000.02800000022,
      "d": 1244.4450666666744,
      "v": 71
    },
    {
      "midi": 38,
      "hit": false,
      "t": 56000.02800000022,
      "d": 1261.1117416666748,
      "v": 68
    },
    {
      "midi": 43,
      "hit": false,
      "t": 56333.36150000012,
      "d": 66.66670000000158,
      "v": 64
    },
    {
      "midi": 55,
      "hit": false,
      "t": 56333.36150000022,
      "d": 272.2223583333325,
      "v": 63
    },
    {
      "midi": 59,
      "hit": false,
      "t": 56333.36150000022,
      "d": 283.33347499999945,
      "v": 63
    },
    {
      "midi": 43,
      "hit": false,
      "t": 56500.02825000013,
      "d": 411.11131666666915,
      "v": 52
    },
    {
      "midi": 31,
      "hit": false,
      "t": 56666.69500000013,
      "d": 350.00017500000104,
      "v": 61
    },
    {
      "midi": 60,
      "hit": false,
      "t": 56666.69500000022,
      "d": 66.66670000000158,
      "v": 58
    },
    {
      "midi": 55,
      "hit": false,
      "t": 56833.36175000022,
      "d": 350.00017500000104,
      "v": 59
    },
    {
      "midi": 60,
      "hit": false,
      "t": 56833.36175000022,
      "d": 400.0002000000022,
      "v": 69
    },
    {
      "midi": 43,
      "hit": false,
      "t": 57000.02850000013,
      "d": 383.3335250000018,
      "v": 53
    },
    {
      "midi": 31,
      "hit": false,
      "t": 57166.695250000135,
      "d": 622.2225333333408,
      "v": 65
    },
    {
      "midi": 55,
      "hit": false,
      "t": 57333.36200000023,
      "d": 161.11119166666322,
      "v": 77
    },
    {
      "midi": 59,
      "hit": false,
      "t": 57333.36200000023,
      "d": 188.88898333333054,
      "v": 77
    },
    {
      "midi": 43,
      "hit": false,
      "t": 57333.36200000023,
      "d": 1033.3338500000027,
      "v": 77
    },
    {
      "midi": 38,
      "hit": false,
      "t": 57333.36200000023,
      "d": 1205.5561583333401,
      "v": 77
    },
    {
      "midi": 43,
      "hit": false,
      "t": 57500.028750000136,
      "d": 50.00002500000119,
      "v": 53
    },
    {
      "midi": 43,
      "hit": false,
      "t": 57666.69550000014,
      "d": 77.77781666666851,
      "v": 62
    },
    {
      "midi": 55,
      "hit": false,
      "t": 57666.69550000023,
      "d": 266.66679999999906,
      "v": 61
    },
    {
      "midi": 59,
      "hit": false,
      "t": 57666.69550000023,
      "d": 277.777916666666,
      "v": 61
    },
    {
      "midi": 43,
      "hit": false,
      "t": 57833.362250000144,
      "d": 355.5557333333272,
      "v": 53
    },
    {
      "midi": 31,
      "hit": false,
      "t": 58000.02900000014,
      "d": 522.2224833333312,
      "v": 64
    },
    {
      "midi": 60,
      "hit": false,
      "t": 58000.02900000023,
      "d": 66.66670000000158,
      "v": 78
    },
    {
      "midi": 55,
      "hit": false,
      "t": 58166.69575000023,
      "d": 450.0002250000034,
      "v": 62
    },
    {
      "midi": 60,
      "hit": false,
      "t": 58166.69575000023,
      "d": 466.6669000000038,
      "v": 62
    },
    {
      "midi": 43,
      "hit": false,
      "t": 58333.36250000014,
      "d": 155.55563333332975,
      "v": 53
    },
    {
      "midi": 43,
      "hit": false,
      "t": 58500.02925000023,
      "d": 144.4445166666701,
      "v": 63
    },
    {
      "midi": 53,
      "hit": false,
      "t": 58666.696,
      "d": 450.0002250000034,
      "v": 58
    },
    {
      "midi": 56,
      "hit": false,
      "t": 58666.696,
      "d": 472.2224583333373,
      "v": 58
    },
    {
      "midi": 60,
      "hit": false,
      "t": 58666.696,
      "d": 488.88913333333767,
      "v": 58
    },
    {
      "midi": 53,
      "hit": false,
      "t": 59333.363000000005,
      "d": 450.0002250000034,
      "v": 29
    },
    {
      "midi": 56,
      "hit": false,
      "t": 59333.363000000005,
      "d": 483.3335750000042,
      "v": 29
    },
    {
      "midi": 60,
      "hit": false,
      "t": 59333.363000000005,
      "d": 500.0002500000046,
      "v": 29
    },
    {
      "midi": 72,
      "hit": false,
      "t": 59333.36300000024,
      "d": 561.1113916666654,
      "v": 64
    },
    {
      "midi": 68,
      "hit": false,
      "t": 59333.36300000024,
      "d": 572.2225083333324,
      "v": 64
    },
    {
      "midi": 65,
      "hit": false,
      "t": 59333.36300000024,
      "d": 616.6669750000001,
      "v": 64
    },
    {
      "midi": 53,
      "hit": false,
      "t": 60000.030000000006,
      "d": 483.3335749999969,
      "v": 52
    },
    {
      "midi": 58,
      "hit": false,
      "t": 60000.030000000006,
      "d": 500.0002499999973,
      "v": 52
    },
    {
      "midi": 62,
      "hit": false,
      "t": 60000.030000000006,
      "d": 544.444716666665,
      "v": 52
    },
    {
      "midi": 65,
      "hit": false,
      "t": 60500.030250000236,
      "d": 700.0003500000021,
      "v": 63
    },
    {
      "midi": 70,
      "hit": false,
      "t": 60650.03032500024,
      "d": 661.1114416666678,
      "v": 63
    },
    {
      "midi": 53,
      "hit": false,
      "t": 60666.69700000001,
      "d": 427.77799166666955,
      "v": 27
    },
    {
      "midi": 62,
      "hit": false,
      "t": 60666.69700000001,
      "d": 433.333550000003,
      "v": 27
    },
    {
      "midi": 58,
      "hit": false,
      "t": 60666.69700000001,
      "d": 444.44466666666995,
      "v": 27
    },
    {
      "midi": 74,
      "hit": false,
      "t": 60666.69700000024,
      "d": 566.6669499999989,
      "v": 64
    },
    {
      "midi": 55,
      "hit": false,
      "t": 61333.36400000001,
      "d": 433.333550000003,
      "v": 59
    },
    {
      "midi": 58,
      "hit": false,
      "t": 61333.36400000001,
      "d": 450.0002250000034,
      "v": 59
    },
    {
      "midi": 63,
      "hit": false,
      "t": 61333.36400000001,
      "d": 477.77801666667074,
      "v": 59
    },
    {
      "midi": 55,
      "hit": false,
      "t": 62000.03100000001,
      "d": 483.3335749999969,
      "v": 25
    },
    {
      "midi": 58,
      "hit": false,
      "t": 62000.03100000001,
      "d": 483.3335749999969,
      "v": 25
    },
    {
      "midi": 63,
      "hit": false,
      "t": 62000.03100000001,
      "d": 533.3335999999981,
      "v": 25
    },
    {
      "midi": 63,
      "hit": false,
      "t": 62000.03100000024,
      "d": 688.8892333333351,
      "v": 67
    },
    {
      "midi": 67,
      "hit": false,
      "t": 62000.03100000024,
      "d": 705.5559083333355,
      "v": 67
    },
    {
      "midi": 70,
      "hit": false,
      "t": 62000.03100000024,
      "d": 716.6670250000025,
      "v": 67
    },
    {
      "midi": 55,
      "hit": false,
      "t": 62666.69800000001,
      "d": 477.77801666666346,
      "v": 51
    },
    {
      "midi": 60,
      "hit": false,
      "t": 62666.69800000001,
      "d": 488.8891333333304,
      "v": 51
    },
    {
      "midi": 63,
      "hit": false,
      "t": 62666.69800000001,
      "d": 555.555833333332,
      "v": 51
    },
    {
      "midi": 63,
      "hit": false,
      "t": 63166.69825000025,
      "d": 644.4447666666601,
      "v": 65
    },
    {
      "midi": 60,
      "hit": false,
      "t": 63333.36500000001,
      "d": 444.44466666666995,
      "v": 23
    },
    {
      "midi": 55,
      "hit": false,
      "t": 63333.36500000001,
      "d": 472.2224583333373,
      "v": 23
    },
    {
      "midi": 63,
      "hit": false,
      "t": 63333.36500000001,
      "d": 472.2224583333373,
      "v": 23
    },
    {
      "midi": 72,
      "hit": false,
      "t": 63333.365000000245,
      "d": 627.778091666667,
      "v": 65
    },
    {
      "midi": 67,
      "hit": false,
      "t": 63333.365000000245,
      "d": 666.6670000000013,
      "v": 65
    },
    {
      "midi": 53,
      "hit": false,
      "t": 64000.032000000014,
      "d": 450.0002250000034,
      "v": 58
    },
    {
      "midi": 56,
      "hit": false,
      "t": 64000.032000000014,
      "d": 472.2224583333373,
      "v": 58
    },
    {
      "midi": 60,
      "hit": false,
      "t": 64000.032000000014,
      "d": 488.88913333333767,
      "v": 58
    },
    {
      "midi": 53,
      "hit": false,
      "t": 64666.699000000015,
      "d": 450.0002250000034,
      "v": 29
    },
    {
      "midi": 56,
      "hit": false,
      "t": 64666.699000000015,
      "d": 483.3335750000042,
      "v": 29
    },
    {
      "midi": 60,
      "hit": false,
      "t": 64666.699000000015,
      "d": 500.0002500000046,
      "v": 29
    },
    {
      "midi": 72,
      "hit": false,
      "t": 64666.69900000025,
      "d": 561.1113916666654,
      "v": 64
    },
    {
      "midi": 68,
      "hit": false,
      "t": 64666.69900000025,
      "d": 572.2225083333324,
      "v": 64
    },
    {
      "midi": 65,
      "hit": false,
      "t": 64666.69900000025,
      "d": 616.6669750000001,
      "v": 64
    },
    {
      "midi": 53,
      "hit": false,
      "t": 65333.366000000016,
      "d": 483.3335750000042,
      "v": 52
    },
    {
      "midi": 58,
      "hit": false,
      "t": 65333.366000000016,
      "d": 500.0002500000046,
      "v": 52
    },
    {
      "midi": 62,
      "hit": false,
      "t": 65333.366000000016,
      "d": 544.4447166666723,
      "v": 52
    },
    {
      "midi": 65,
      "hit": false,
      "t": 65833.36625000025,
      "d": 700.0003500000021,
      "v": 63
    },
    {
      "midi": 70,
      "hit": false,
      "t": 65983.36632500026,
      "d": 661.1114416666678,
      "v": 63
    },
    {
      "midi": 53,
      "hit": false,
      "t": 66000.03300000002,
      "d": 427.7779916666623,
      "v": 27
    },
    {
      "midi": 62,
      "hit": false,
      "t": 66000.03300000002,
      "d": 433.33354999999574,
      "v": 27
    },
    {
      "midi": 58,
      "hit": false,
      "t": 66000.03300000002,
      "d": 444.44466666666267,
      "v": 27
    },
    {
      "midi": 74,
      "hit": false,
      "t": 66000.03300000026,
      "d": 566.6669499999989,
      "v": 63
    },
    {
      "midi": 55,
      "hit": false,
      "t": 66666.70000000003,
      "d": 433.33354999999574,
      "v": 59
    },
    {
      "midi": 58,
      "hit": false,
      "t": 66666.70000000003,
      "d": 450.00022499999614,
      "v": 59
    },
    {
      "midi": 63,
      "hit": false,
      "t": 66666.70000000003,
      "d": 477.77801666666346,
      "v": 59
    },
    {
      "midi": 55,
      "hit": false,
      "t": 67333.36700000003,
      "d": 483.3335749999969,
      "v": 25
    },
    {
      "midi": 58,
      "hit": false,
      "t": 67333.36700000003,
      "d": 483.3335749999969,
      "v": 25
    },
    {
      "midi": 63,
      "hit": false,
      "t": 67333.36700000003,
      "d": 533.3335999999981,
      "v": 25
    },
    {
      "midi": 63,
      "hit": false,
      "t": 67333.36700000026,
      "d": 688.8892333333351,
      "v": 66
    },
    {
      "midi": 67,
      "hit": false,
      "t": 67333.36700000026,
      "d": 705.5559083333355,
      "v": 66
    },
    {
      "midi": 70,
      "hit": false,
      "t": 67333.36700000026,
      "d": 716.6670250000025,
      "v": 66
    },
    {
      "midi": 55,
      "hit": false,
      "t": 68000.03400000003,
      "d": 477.77801666666346,
      "v": 51
    },
    {
      "midi": 60,
      "hit": false,
      "t": 68000.03400000003,
      "d": 488.8891333333304,
      "v": 51
    },
    {
      "midi": 63,
      "hit": false,
      "t": 68000.03400000003,
      "d": 555.555833333332,
      "v": 51
    },
    {
      "midi": 63,
      "hit": false,
      "t": 68500.03425000026,
      "d": 644.4447666666674,
      "v": 66
    },
    {
      "midi": 60,
      "hit": false,
      "t": 68666.70100000003,
      "d": 444.44466666666267,
      "v": 23
    },
    {
      "midi": 55,
      "hit": false,
      "t": 68666.70100000003,
      "d": 472.22245833333,
      "v": 23
    },
    {
      "midi": 63,
      "hit": false,
      "t": 68666.70100000003,
      "d": 472.22245833333,
      "v": 23
    },
    {
      "midi": 72,
      "hit": false,
      "t": 68666.70100000026,
      "d": 627.778091666667,
      "v": 66
    },
    {
      "midi": 67,
      "hit": false,
      "t": 68666.70100000026,
      "d": 666.6670000000013,
      "v": 66
    },
    {
      "midi": 53,
      "hit": false,
      "t": 69333.36800000003,
      "d": 450.00022499999614,
      "v": 58
    },
    {
      "midi": 56,
      "hit": false,
      "t": 69333.36800000003,
      "d": 472.22245833333,
      "v": 58
    },
    {
      "midi": 60,
      "hit": false,
      "t": 69333.36800000003,
      "d": 488.8891333333304,
      "v": 58
    },
    {
      "midi": 53,
      "hit": false,
      "t": 70000.03500000003,
      "d": 450.00022499999614,
      "v": 29
    },
    {
      "midi": 56,
      "hit": false,
      "t": 70000.03500000003,
      "d": 483.3335749999969,
      "v": 29
    },
    {
      "midi": 60,
      "hit": false,
      "t": 70000.03500000003,
      "d": 500.0002499999973,
      "v": 29
    },
    {
      "midi": 72,
      "hit": false,
      "t": 70000.03500000027,
      "d": 561.1113916666654,
      "v": 64
    },
    {
      "midi": 68,
      "hit": false,
      "t": 70000.03500000027,
      "d": 572.2225083333324,
      "v": 64
    },
    {
      "midi": 65,
      "hit": false,
      "t": 70000.03500000027,
      "d": 616.6669750000001,
      "v": 64
    },
    {
      "midi": 53,
      "hit": false,
      "t": 70666.70200000003,
      "d": 483.3335749999969,
      "v": 52
    },
    {
      "midi": 58,
      "hit": false,
      "t": 70666.70200000003,
      "d": 500.0002499999973,
      "v": 52
    },
    {
      "midi": 62,
      "hit": false,
      "t": 70666.70200000003,
      "d": 544.444716666665,
      "v": 52
    },
    {
      "midi": 65,
      "hit": false,
      "t": 71166.70225000026,
      "d": 700.0003500000021,
      "v": 68
    },
    {
      "midi": 70,
      "hit": false,
      "t": 71316.70232500027,
      "d": 661.1114416666678,
      "v": 67
    },
    {
      "midi": 53,
      "hit": false,
      "t": 71333.36900000004,
      "d": 427.7779916666623,
      "v": 27
    },
    {
      "midi": 62,
      "hit": false,
      "t": 71333.36900000004,
      "d": 433.33354999999574,
      "v": 27
    },
    {
      "midi": 58,
      "hit": false,
      "t": 71333.36900000004,
      "d": 444.44466666666267,
      "v": 27
    },
    {
      "midi": 74,
      "hit": false,
      "t": 71333.36900000027,
      "d": 566.6669499999989,
      "v": 67
    },
    {
      "midi": 55,
      "hit": false,
      "t": 72000.03600000004,
      "d": 433.33354999999574,
      "v": 59
    },
    {
      "midi": 58,
      "hit": false,
      "t": 72000.03600000004,
      "d": 450.00022499999614,
      "v": 59
    },
    {
      "midi": 63,
      "hit": false,
      "t": 72000.03600000004,
      "d": 477.77801666666346,
      "v": 59
    },
    {
      "midi": 55,
      "hit": false,
      "t": 72666.70300000004,
      "d": 483.3335749999969,
      "v": 25
    },
    {
      "midi": 58,
      "hit": false,
      "t": 72666.70300000004,
      "d": 483.3335749999969,
      "v": 25
    },
    {
      "midi": 63,
      "hit": false,
      "t": 72666.70300000004,
      "d": 533.3335999999981,
      "v": 25
    },
    {
      "midi": 63,
      "hit": false,
      "t": 72666.70300000027,
      "d": 688.8892333333351,
      "v": 68
    },
    {
      "midi": 67,
      "hit": false,
      "t": 72666.70300000027,
      "d": 705.5559083333355,
      "v": 68
    },
    {
      "midi": 70,
      "hit": false,
      "t": 72666.70300000027,
      "d": 716.6670250000025,
      "v": 68
    },
    {
      "midi": 55,
      "hit": false,
      "t": 73333.37000000004,
      "d": 477.77801666666346,
      "v": 51
    },
    {
      "midi": 60,
      "hit": false,
      "t": 73333.37000000004,
      "d": 488.8891333333304,
      "v": 51
    },
    {
      "midi": 63,
      "hit": false,
      "t": 73333.37000000004,
      "d": 555.555833333332,
      "v": 51
    },
    {
      "midi": 63,
      "hit": false,
      "t": 73833.37025000027,
      "d": 644.4447666666674,
      "v": 66
    },
    {
      "midi": 60,
      "hit": false,
      "t": 74000.03700000004,
      "d": 444.44466666666267,
      "v": 23
    },
    {
      "midi": 55,
      "hit": false,
      "t": 74000.03700000004,
      "d": 472.22245833333,
      "v": 23
    },
    {
      "midi": 63,
      "hit": false,
      "t": 74000.03700000004,
      "d": 472.22245833333,
      "v": 23
    },
    {
      "midi": 72,
      "hit": false,
      "t": 74000.03700000027,
      "d": 627.778091666667,
      "v": 66
    },
    {
      "midi": 67,
      "hit": false,
      "t": 74000.03700000027,
      "d": 666.6670000000013,
      "v": 66
    },
    {
      "midi": 53,
      "hit": false,
      "t": 74666.70400000004,
      "d": 477.77801666666346,
      "v": 51
    },
    {
      "midi": 56,
      "hit": false,
      "t": 74666.70400000004,
      "d": 511.11136666666425,
      "v": 42
    },
    {
      "midi": 60,
      "hit": false,
      "t": 74666.70400000004,
      "d": 533.3335999999981,
      "v": 48
    },
    {
      "midi": 53,
      "hit": false,
      "t": 75333.37100000004,
      "d": 477.77801666666346,
      "v": 50
    },
    {
      "midi": 60,
      "hit": false,
      "t": 75333.37100000004,
      "d": 488.8891333333304,
      "v": 40
    },
    {
      "midi": 56,
      "hit": false,
      "t": 75333.37100000004,
      "d": 511.11136666666425,
      "v": 39
    },
    {
      "midi": 60,
      "hit": false,
      "t": 75333.37100000028,
      "d": 583.3336249999993,
      "v": 65
    },
    {
      "midi": 56,
      "hit": false,
      "t": 75333.37100000028,
      "d": 622.2225333333336,
      "v": 65
    },
    {
      "midi": 65,
      "hit": false,
      "t": 75333.37100000028,
      "d": 638.889208333334,
      "v": 65
    },
    {
      "midi": 55,
      "hit": false,
      "t": 76000.03800000004,
      "d": 477.77801666666346,
      "v": 49
    },
    {
      "midi": 58,
      "hit": false,
      "t": 76000.03800000004,
      "d": 494.44469166666386,
      "v": 49
    },
    {
      "midi": 62,
      "hit": false,
      "t": 76000.03800000004,
      "d": 494.44469166666386,
      "v": 49
    },
    {
      "midi": 62,
      "hit": false,
      "t": 76666.70500000005,
      "d": 500.0002499999973,
      "v": 52
    },
    {
      "midi": 55,
      "hit": false,
      "t": 76666.70500000005,
      "d": 533.3335999999981,
      "v": 44
    },
    {
      "midi": 58,
      "hit": false,
      "t": 76666.70500000005,
      "d": 566.6669499999989,
      "v": 41
    },
    {
      "midi": 62,
      "hit": false,
      "t": 76666.70500000028,
      "d": 522.2224833333312,
      "v": 64
    },
    {
      "midi": 58,
      "hit": false,
      "t": 76666.70500000028,
      "d": 561.1113916666654,
      "v": 64
    },
    {
      "midi": 67,
      "hit": false,
      "t": 76666.70500000028,
      "d": 561.1113916666654,
      "v": 64
    },
    {
      "midi": 55,
      "hit": false,
      "t": 77333.37200000005,
      "d": 677.7781166666682,
      "v": 68
    },
    {
      "midi": 64,
      "hit": false,
      "t": 77333.37200000005,
      "d": 2650.0013250000047,
      "v": 33
    },
    {
      "midi": 60,
      "hit": false,
      "t": 77333.37200000005,
      "d": 2661.1124416666717,
      "v": 62
    },
    {
      "midi": 36,
      "hit": false,
      "t": 77333.37200000015,
      "d": 311.1112666666595,
      "v": 46
    },
    {
      "midi": 36,
      "hit": false,
      "t": 77666.70550000014,
      "d": 88.88893333333544,
      "v": 52
    },
    {
      "midi": 36,
      "hit": false,
      "t": 77833.37225000015,
      "d": 283.33347500000673,
      "v": 59
    },
    {
      "midi": 57,
      "hit": false,
      "t": 78000.03900000005,
      "d": 677.7781166666682,
      "v": 68
    },
    {
      "midi": 60,
      "hit": false,
      "t": 78000.03900000028,
      "d": 700.0003500000021,
      "v": 69
    },
    {
      "midi": 67,
      "hit": false,
      "t": 78000.03900000028,
      "d": 700.0003500000021,
      "v": 69
    },
    {
      "midi": 64,
      "hit": false,
      "t": 78000.03900000028,
      "d": 716.6670250000025,
      "v": 69
    },
    {
      "midi": 36,
      "hit": false,
      "t": 78166.70575000015,
      "d": 100.00005000000237,
      "v": 74
    },
    {
      "midi": 36,
      "hit": false,
      "t": 78333.37250000016,
      "d": 88.88893333333544,
      "v": 66
    },
    {
      "midi": 36,
      "hit": false,
      "t": 78500.03925000016,
      "d": 77.77781666666851,
      "v": 59
    },
    {
      "midi": 58,
      "hit": false,
      "t": 78666.70600000005,
      "d": 650.0003250000009,
      "v": 64
    },
    {
      "midi": 36,
      "hit": false,
      "t": 78666.70600000017,
      "d": 305.5557083333406,
      "v": 68
    },
    {
      "midi": 36,
      "hit": false,
      "t": 79000.03950000017,
      "d": 94.44449166666891,
      "v": 59
    },
    {
      "midi": 36,
      "hit": false,
      "t": 79166.70625000018,
      "d": 300.0001500000071,
      "v": 78
    },
    {
      "midi": 57,
      "hit": false,
      "t": 79333.37300000005,
      "d": 694.4447916666686,
      "v": 71
    },
    {
      "midi": 67,
      "hit": false,
      "t": 79333.37300000028,
      "d": 594.4447416666662,
      "v": 64
    },
    {
      "midi": 60,
      "hit": false,
      "t": 79333.37300000028,
      "d": 622.2225333333336,
      "v": 64
    },
    {
      "midi": 64,
      "hit": false,
      "t": 79333.37300000028,
      "d": 622.2225333333336,
      "v": 64
    },
    {
      "midi": 36,
      "hit": false,
      "t": 79500.03975000019,
      "d": 94.44449166666891,
      "v": 59
    },
    {
      "midi": 36,
      "hit": false,
      "t": 79666.70650000019,
      "d": 100.00005000000237,
      "v": 67
    },
    {
      "midi": 36,
      "hit": false,
      "t": 79833.3732500002,
      "d": 100.00005000000237,
      "v": 59
    },
    {
      "midi": 55,
      "hit": false,
      "t": 80000.04000000005,
      "d": 527.7780416666646,
      "v": 64
    },
    {
      "midi": 64,
      "hit": false,
      "t": 80000.04000000005,
      "d": 2650.0013250000047,
      "v": 33
    },
    {
      "midi": 60,
      "hit": false,
      "t": 80000.04000000005,
      "d": 2661.1124416666717,
      "v": 62
    },
    {
      "midi": 36,
      "hit": false,
      "t": 80000.0400000002,
      "d": 294.44459166667366,
      "v": 59
    },
    {
      "midi": 36,
      "hit": false,
      "t": 80333.3735000002,
      "d": 94.44449166666891,
      "v": 67
    },
    {
      "midi": 36,
      "hit": false,
      "t": 80500.04025000021,
      "d": 288.8890333333402,
      "v": 59
    },
    {
      "midi": 57,
      "hit": false,
      "t": 80666.70700000005,
      "d": 661.1114416666678,
      "v": 63
    },
    {
      "midi": 67,
      "hit": false,
      "t": 80666.70700000029,
      "d": 594.4447416666662,
      "v": 61
    },
    {
      "midi": 60,
      "hit": false,
      "t": 80666.70700000029,
      "d": 627.778091666667,
      "v": 61
    },
    {
      "midi": 64,
      "hit": false,
      "t": 80666.70700000029,
      "d": 644.4447666666674,
      "v": 61
    },
    {
      "midi": 36,
      "hit": false,
      "t": 80833.37375000022,
      "d": 88.88893333333544,
      "v": 59
    },
    {
      "midi": 36,
      "hit": false,
      "t": 81000.04050000022,
      "d": 88.88893333333544,
      "v": 59
    },
    {
      "midi": 36,
      "hit": false,
      "t": 81166.70725000023,
      "d": 88.88893333333544,
      "v": 59
    },
    {
      "midi": 58,
      "hit": false,
      "t": 81333.37400000005,
      "d": 727.7781416666694,
      "v": 60
    },
    {
      "midi": 36,
      "hit": false,
      "t": 81333.37400000023,
      "d": 294.44459166667366,
      "v": 72
    },
    {
      "midi": 36,
      "hit": false,
      "t": 81666.70750000024,
      "d": 100.00005000000237,
      "v": 59
    },
    {
      "midi": 36,
      "hit": false,
      "t": 81833.37425000024,
      "d": 316.66682499999297,
      "v": 75
    },
    {
      "midi": 57,
      "hit": false,
      "t": 82000.04100000006,
      "d": 633.3336500000005,
      "v": 62
    },
    {
      "midi": 67,
      "hit": false,
      "t": 82000.04100000029,
      "d": 405.5557583333284,
      "v": 65
    },
    {
      "midi": 60,
      "hit": false,
      "t": 82000.04100000029,
      "d": 477.77801666666346,
      "v": 65
    },
    {
      "midi": 64,
      "hit": false,
      "t": 82000.04100000029,
      "d": 477.77801666666346,
      "v": 65
    },
    {
      "midi": 36,
      "hit": false,
      "t": 82166.70775000023,
      "d": 100.00005000000237,
      "v": 59
    },
    {
      "midi": 36,
      "hit": false,
      "t": 82333.37450000024,
      "d": 88.88893333333544,
      "v": 65
    },
    {
      "midi": 36,
      "hit": false,
      "t": 82500.04125000024,
      "d": 77.77781666666851,
      "v": 74
    },
    {
      "midi": 31,
      "hit": false,
      "t": 82666.70800000025,
      "d": 505.5558083333308,
      "v": 64
    },
    {
      "midi": 55,
      "hit": false,
      "t": 82666.70800000029,
      "d": 850.0004249999911,
      "v": 68
    },
    {
      "midi": 43,
      "hit": false,
      "t": 82666.70800000029,
      "d": 2261.112241666662,
      "v": 82
    },
    {
      "midi": 43,
      "hit": false,
      "t": 83000.04150000024,
      "d": 55.55558333333465,
      "v": 51
    },
    {
      "midi": 59,
      "hit": false,
      "t": 83000.04150000028,
      "d": 594.4447416666662,
      "v": 71
    },
    {
      "midi": 47,
      "hit": false,
      "t": 83000.04150000028,
      "d": 1911.1120666666684,
      "v": 64
    },
    {
      "midi": 43,
      "hit": false,
      "t": 83166.70825000024,
      "d": 427.7779916666768,
      "v": 62
    },
    {
      "midi": 31,
      "hit": false,
      "t": 83333.37500000025,
      "d": 505.55580833334534,
      "v": 65
    },
    {
      "midi": 43,
      "hit": false,
      "t": 83666.70850000026,
      "d": 488.88913333334494,
      "v": 52
    },
    {
      "midi": 60,
      "hit": false,
      "t": 83666.70850000028,
      "d": 111.1111666666693,
      "v": 77
    },
    {
      "midi": 55,
      "hit": false,
      "t": 83666.70850000028,
      "d": 138.88895833333663,
      "v": 68
    },
    {
      "midi": 31,
      "hit": false,
      "t": 84000.04200000026,
      "d": 505.55580833334534,
      "v": 68
    },
    {
      "midi": 55,
      "hit": false,
      "t": 84000.04200000029,
      "d": 344.4446166666603,
      "v": 69
    },
    {
      "midi": 60,
      "hit": false,
      "t": 84000.04200000029,
      "d": 405.5557583333284,
      "v": 69
    },
    {
      "midi": 67,
      "hit": false,
      "t": 84166.70875000006,
      "d": 38.88890833333426,
      "v": 20
    },
    {
      "midi": 67,
      "hit": false,
      "t": 84333.37550000007,
      "d": 55.55558333333465,
      "v": 24
    },
    {
      "midi": 43,
      "hit": false,
      "t": 84333.37550000027,
      "d": 66.66670000000158,
      "v": 55
    },
    {
      "midi": 67,
      "hit": false,
      "t": 84500.04225000007,
      "d": 44.44446666666772,
      "v": 32
    },
    {
      "midi": 43,
      "hit": false,
      "t": 84500.04225000028,
      "d": 338.88905833332683,
      "v": 62
    },
    {
      "midi": 59,
      "hit": false,
      "t": 84500.04225000029,
      "d": 466.66689999999653,
      "v": 59
    },
    {
      "midi": 55,
      "hit": false,
      "t": 84500.04225000029,
      "d": 522.2224833333312,
      "v": 75
    },
    {
      "midi": 67,
      "hit": false,
      "t": 84666.70900000008,
      "d": 38.88890833333426,
      "v": 40
    },
    {
      "midi": 67,
      "hit": false,
      "t": 84833.37575000008,
      "d": 38.88890833333426,
      "v": 47
    },
    {
      "midi": 31,
      "hit": false,
      "t": 84833.37575000027,
      "d": 322.222383333341,
      "v": 64
    },
    {
      "midi": 67,
      "hit": false,
      "t": 85000.04250000008,
      "d": 44.44446666666772,
      "v": 55
    },
    {
      "midi": 43,
      "hit": false,
      "t": 85000.04250000027,
      "d": 427.7779916666768,
      "v": 56
    },
    {
      "midi": 60,
      "hit": false,
      "t": 85000.04250000029,
      "d": 277.77791666667326,
      "v": 51
    },
    {
      "midi": 50,
      "hit": false,
      "t": 85000.04250000029,
      "d": 294.44459166667366,
      "v": 51
    },
    {
      "midi": 43,
      "hit": false,
      "t": 85016.70917500029,
      "d": 194.44454166667128,
      "v": 55
    },
    {
      "midi": 67,
      "hit": false,
      "t": 85166.70925000009,
      "d": 38.88890833333426,
      "v": 63
    },
    {
      "midi": 67,
      "hit": false,
      "t": 85333.37600000009,
      "d": 55.55558333333465,
      "v": 71
    },
    {
      "midi": 31,
      "hit": false,
      "t": 85333.37600000028,
      "d": 538.8891583333461,
      "v": 64
    },
    {
      "midi": 43,
      "hit": false,
      "t": 85333.3760000003,
      "d": 2383.334525000013,
      "v": 65
    },
    {
      "midi": 48,
      "hit": false,
      "t": 85333.3760000003,
      "d": 2400.0012000000133,
      "v": 61
    },
    {
      "midi": 67,
      "hit": false,
      "t": 85500.0427500001,
      "d": 33.33335000000079,
      "v": 79
    },
    {
      "midi": 67,
      "hit": false,
      "t": 85666.7095000001,
      "d": 44.44446666666772,
      "v": 87
    },
    {
      "midi": 43,
      "hit": false,
      "t": 85666.70950000029,
      "d": 83.33337500000198,
      "v": 48
    },
    {
      "midi": 52,
      "hit": false,
      "t": 85666.70950000029,
      "d": 433.33354999999574,
      "v": 58
    },
    {
      "midi": 55,
      "hit": false,
      "t": 85666.70950000029,
      "d": 455.5557833333296,
      "v": 58
    },
    {
      "midi": 67,
      "hit": false,
      "t": 85833.3762500001,
      "d": 44.44446666666772,
      "v": 82
    },
    {
      "midi": 43,
      "hit": false,
      "t": 85833.37625000029,
      "d": 394.44464166667603,
      "v": 60
    },
    {
      "midi": 67,
      "hit": false,
      "t": 86000.0430000001,
      "d": 38.88890833333426,
      "v": 77
    },
    {
      "midi": 60,
      "hit": false,
      "t": 86000.04300000028,
      "d": 516.6669250000123,
      "v": 64
    },
    {
      "midi": 58,
      "hit": false,
      "t": 86000.04300000028,
      "d": 538.8891583333461,
      "v": 64
    },
    {
      "midi": 31,
      "hit": false,
      "t": 86000.0430000003,
      "d": 522.2224833333457,
      "v": 48
    },
    {
      "midi": 67,
      "hit": false,
      "t": 86166.70975000011,
      "d": 44.44446666666772,
      "v": 71
    },
    {
      "midi": 67,
      "hit": false,
      "t": 86333.37650000011,
      "d": 44.44446666666772,
      "v": 65
    },
    {
      "midi": 52,
      "hit": false,
      "t": 86333.37650000029,
      "d": 55.55558333333465,
      "v": 68
    },
    {
      "midi": 55,
      "hit": false,
      "t": 86333.37650000029,
      "d": 61.11114166666812,
      "v": 68
    },
    {
      "midi": 43,
      "hit": false,
      "t": 86333.3765000003,
      "d": 505.55580833334534,
      "v": 65
    },
    {
      "midi": 67,
      "hit": false,
      "t": 86500.04325000012,
      "d": 55.55558333333465,
      "v": 60
    },
    {
      "midi": 67,
      "hit": false,
      "t": 86666.71000000012,
      "d": 77.77781666666851,
      "v": 54
    },
    {
      "midi": 55,
      "hit": false,
      "t": 86666.7100000003,
      "d": 422.2224333333288,
      "v": 63
    },
    {
      "midi": 52,
      "hit": false,
      "t": 86666.7100000003,
      "d": 444.44466666666267,
      "v": 63
    },
    {
      "midi": 31,
      "hit": false,
      "t": 86666.71000000031,
      "d": 433.3335500000103,
      "v": 59
    },
    {
      "midi": 67,
      "hit": false,
      "t": 86833.37675000013,
      "d": 61.11114166666812,
      "v": 48
    },
    {
      "midi": 67,
      "hit": false,
      "t": 87000.04350000013,
      "d": 38.88890833333426,
      "v": 42
    },
    {
      "midi": 60,
      "hit": false,
      "t": 87000.04350000029,
      "d": 38.88890833333426,
      "v": 62
    },
    {
      "midi": 58,
      "hit": false,
      "t": 87000.04350000029,
      "d": 44.44446666666772,
      "v": 62
    },
    {
      "midi": 43,
      "hit": false,
      "t": 87000.04350000032,
      "d": 77.77781666666851,
      "v": 61
    },
    {
      "midi": 67,
      "hit": false,
      "t": 87166.71025000013,
      "d": 38.88890833333426,
      "v": 37
    },
    {
      "midi": 52,
      "hit": false,
      "t": 87166.7102500003,
      "d": 355.5557333333418,
      "v": 68
    },
    {
      "midi": 55,
      "hit": false,
      "t": 87166.7102500003,
      "d": 355.5557333333418,
      "v": 58
    },
    {
      "midi": 43,
      "hit": false,
      "t": 87166.71025000032,
      "d": 288.8890333333402,
      "v": 54
    },
    {
      "midi": 67,
      "hit": false,
      "t": 87333.37700000014,
      "d": 38.88890833333426,
      "v": 31
    },
    {
      "midi": 60,
      "hit": false,
      "t": 87333.3770000003,
      "d": 44.44446666666772,
      "v": 60
    },
    {
      "midi": 58,
      "hit": false,
      "t": 87333.3770000003,
      "d": 88.88893333333544,
      "v": 60
    },
    {
      "midi": 31,
      "hit": false,
      "t": 87333.37700000033,
      "d": 277.77791666667326,
      "v": 72
    },
    {
      "midi": 67,
      "hit": false,
      "t": 87500.04375000014,
      "d": 33.33335000000079,
      "v": 26
    },
    {
      "midi": 43,
      "hit": false,
      "t": 87500.04375000033,
      "d": 533.3336000000127,
      "v": 63
    },
    {
      "midi": 67,
      "hit": false,
      "t": 87666.71050000015,
      "d": 44.44446666666772,
      "v": 28
    },
    {
      "midi": 52,
      "hit": false,
      "t": 87666.7105000003,
      "d": 194.44454166667128,
      "v": 56
    },
    {
      "midi": 55,
      "hit": false,
      "t": 87666.7105000003,
      "d": 216.66677500000515,
      "v": 56
    },
    {
      "midi": 31,
      "hit": false,
      "t": 87666.71050000034,
      "d": 188.88898333333782,
      "v": 52
    },
    {
      "midi": 67,
      "hit": false,
      "t": 87833.37725000015,
      "d": 44.44446666666772,
      "v": 28
    },
    {
      "midi": 67,
      "hit": false,
      "t": 88000.04400000015,
      "d": 38.88890833333426,
      "v": 33
    },
    {
      "midi": 39,
      "hit": false,
      "t": 88000.04400000031,
      "d": 1227.7783916666667,
      "v": 71
    },
    {
      "midi": 46,
      "hit": false,
      "t": 88000.04400000031,
      "d": 1244.4450666666671,
      "v": 65
    },
    {
      "midi": 31,
      "hit": false,
      "t": 88000.04400000034,
      "d": 538.8891583333461,
      "v": 68
    },
    {
      "midi": 67,
      "hit": false,
      "t": 88166.71075000016,
      "d": 44.44446666666772,
      "v": 39
    },
    {
      "midi": 67,
      "hit": false,
      "t": 88333.37750000016,
      "d": 38.88890833333426,
      "v": 44
    },
    {
      "midi": 55,
      "hit": false,
      "t": 88333.37750000031,
      "d": 50.00002500000119,
      "v": 63
    },
    {
      "midi": 51,
      "hit": false,
      "t": 88333.37750000031,
      "d": 61.11114166666812,
      "v": 63
    },
    {
      "midi": 43,
      "hit": false,
      "t": 88333.37750000035,
      "d": 72.22225833333505,
      "v": 58
    },
    {
      "midi": 67,
      "hit": false,
      "t": 88500.04425000017,
      "d": 33.33335000000079,
      "v": 49
    },
    {
      "midi": 43,
      "hit": false,
      "t": 88500.04425000036,
      "d": 444.4446666666772,
      "v": 53
    },
    {
      "midi": 67,
      "hit": false,
      "t": 88666.71100000017,
      "d": 38.88890833333426,
      "v": 55
    },
    {
      "midi": 55,
      "hit": false,
      "t": 88666.71100000032,
      "d": 411.1113166666619,
      "v": 68
    },
    {
      "midi": 51,
      "hit": false,
      "t": 88666.71100000032,
      "d": 450.00022499999614,
      "v": 65
    },
    {
      "midi": 31,
      "hit": false,
      "t": 88666.71100000036,
      "d": 644.4447666666674,
      "v": 66
    },
    {
      "midi": 67,
      "hit": false,
      "t": 88833.37775000017,
      "d": 61.11114166666812,
      "v": 60
    },
    {
      "midi": 67,
      "hit": false,
      "t": 89000.04450000018,
      "d": 38.88890833333426,
      "v": 66
    },
    {
      "midi": 43,
      "hit": false,
      "t": 89000.04450000037,
      "d": 350.00017499999376,
      "v": 63
    },
    {
      "midi": 67,
      "hit": false,
      "t": 89166.71125000018,
      "d": 38.88890833333426,
      "v": 71
    },
    {
      "midi": 51,
      "hit": false,
      "t": 89166.71125000031,
      "d": 72.22225833333505,
      "v": 60
    },
    {
      "midi": 55,
      "hit": false,
      "t": 89166.71125000031,
      "d": 72.22225833333505,
      "v": 60
    },
    {
      "midi": 67,
      "hit": false,
      "t": 89333.37800000019,
      "d": 33.33335000000079,
      "v": 76
    },
    {
      "midi": 57,
      "hit": false,
      "t": 89333.37800000032,
      "d": 433.3335500000103,
      "v": 65
    },
    {
      "midi": 41,
      "hit": false,
      "t": 89333.37800000032,
      "d": 1205.556158333362,
      "v": 60
    },
    {
      "midi": 48,
      "hit": false,
      "t": 89333.37800000032,
      "d": 1277.778416666697,
      "v": 66
    },
    {
      "midi": 41,
      "hit": false,
      "t": 89333.37800000036,
      "d": 433.33354999999574,
      "v": 50
    },
    {
      "midi": 67,
      "hit": false,
      "t": 89500.04475000019,
      "d": 77.77781666666851,
      "v": 82
    },
    {
      "midi": 53,
      "hit": false,
      "t": 89500.04475000032,
      "d": 266.66680000000633,
      "v": 59
    },
    {
      "midi": 67,
      "hit": false,
      "t": 89666.7115000002,
      "d": 66.66670000000158,
      "v": 86
    },
    {
      "midi": 29,
      "hit": false,
      "t": 89666.71150000035,
      "d": 105.55560833333584,
      "v": 45
    },
    {
      "midi": 67,
      "hit": false,
      "t": 89833.3782500002,
      "d": 50.00002500000119,
      "v": 83
    },
    {
      "midi": 53,
      "hit": false,
      "t": 89833.37825000033,
      "d": 50.00002500000119,
      "v": 72
    },
    {
      "midi": 57,
      "hit": false,
      "t": 89833.37825000033,
      "d": 50.00002500000119,
      "v": 72
    },
    {
      "midi": 29,
      "hit": false,
      "t": 89833.37825000036,
      "d": 355.5557333333272,
      "v": 57
    },
    {
      "midi": 67,
      "hit": false,
      "t": 90000.0450000002,
      "d": 38.88890833333426,
      "v": 79
    },
    {
      "midi": 57,
      "hit": false,
      "t": 90000.04500000033,
      "d": 66.66670000000158,
      "v": 59
    },
    {
      "midi": 53,
      "hit": false,
      "t": 90000.04500000033,
      "d": 277.77791666667326,
      "v": 59
    },
    {
      "midi": 67,
      "hit": false,
      "t": 90166.7117500002,
      "d": 38.88890833333426,
      "v": 76
    },
    {
      "midi": 41,
      "hit": false,
      "t": 90166.71175000035,
      "d": 205.55565833333822,
      "v": 58
    },
    {
      "midi": 67,
      "hit": false,
      "t": 90333.37850000021,
      "d": 66.66670000000158,
      "v": 72
    },
    {
      "midi": 57,
      "hit": false,
      "t": 90333.37850000034,
      "d": 277.77791666667326,
      "v": 57
    },
    {
      "midi": 53,
      "hit": false,
      "t": 90333.37850000034,
      "d": 294.44459166667366,
      "v": 57
    },
    {
      "midi": 29,
      "hit": false,
      "t": 90333.37850000036,
      "d": 283.33347500000673,
      "v": 67
    },
    {
      "midi": 67,
      "hit": false,
      "t": 90500.04525000021,
      "d": 77.77781666666851,
      "v": 69
    },
    {
      "midi": 41,
      "hit": false,
      "t": 90500.04525000036,
      "d": 183.33342500000435,
      "v": 50
    },
    {
      "midi": 67,
      "hit": false,
      "t": 90666.71200000022,
      "d": 38.88890833333426,
      "v": 66
    },
    {
      "midi": 43,
      "hit": false,
      "t": 90666.71200000035,
      "d": 1244.4450666666671,
      "v": 71
    },
    {
      "midi": 38,
      "hit": false,
      "t": 90666.71200000035,
      "d": 1261.1117416666675,
      "v": 68
    },
    {
      "midi": 31,
      "hit": false,
      "t": 90666.71200000036,
      "d": 538.8891583333316,
      "v": 66
    },
    {
      "midi": 67,
      "hit": false,
      "t": 90833.37875000022,
      "d": 38.88890833333426,
      "v": 62
    },
    {
      "midi": 67,
      "hit": false,
      "t": 91000.04550000023,
      "d": 55.55558333333465,
      "v": 59
    },
    {
      "midi": 55,
      "hit": false,
      "t": 91000.04550000034,
      "d": 272.2223583333398,
      "v": 63
    },
    {
      "midi": 59,
      "hit": false,
      "t": 91000.04550000034,
      "d": 283.33347500000673,
      "v": 63
    },
    {
      "midi": 43,
      "hit": false,
      "t": 91000.04550000036,
      "d": 66.66670000000158,
      "v": 64
    },
    {
      "midi": 67,
      "hit": false,
      "t": 91166.71225000023,
      "d": 55.55558333333465,
      "v": 55
    },
    {
      "midi": 43,
      "hit": false,
      "t": 91166.71225000036,
      "d": 411.11131666667643,
      "v": 52
    },
    {
      "midi": 67,
      "hit": false,
      "t": 91333.37900000023,
      "d": 66.66670000000158,
      "v": 52
    },
    {
      "midi": 60,
      "hit": false,
      "t": 91333.37900000035,
      "d": 66.66670000000158,
      "v": 58
    },
    {
      "midi": 31,
      "hit": false,
      "t": 91333.37900000036,
      "d": 350.0001750000083,
      "v": 61
    },
    {
      "midi": 67,
      "hit": false,
      "t": 91500.04575000024,
      "d": 44.44446666666772,
      "v": 48
    },
    {
      "midi": 55,
      "hit": false,
      "t": 91500.04575000035,
      "d": 350.00017499999376,
      "v": 59
    },
    {
      "midi": 60,
      "hit": false,
      "t": 91500.04575000035,
      "d": 400.00019999999495,
      "v": 69
    },
    {
      "midi": 67,
      "hit": false,
      "t": 91666.71250000024,
      "d": 44.44446666666772,
      "v": 45
    },
    {
      "midi": 43,
      "hit": false,
      "t": 91666.71250000037,
      "d": 383.3335250000091,
      "v": 53
    },
    {
      "midi": 67,
      "hit": false,
      "t": 91833.37925000025,
      "d": 61.11114166666812,
      "v": 41
    },
    {
      "midi": 31,
      "hit": false,
      "t": 91833.37925000038,
      "d": 622.2225333333481,
      "v": 65
    },
    {
      "midi": 67,
      "hit": false,
      "t": 92000.04600000025,
      "d": 66.66670000000158,
      "v": 38
    },
    {
      "midi": 55,
      "hit": false,
      "t": 92000.04600000035,
      "d": 161.1111916666705,
      "v": 77
    },
    {
      "midi": 59,
      "hit": false,
      "t": 92000.04600000035,
      "d": 188.88898333333782,
      "v": 77
    },
    {
      "midi": 43,
      "hit": false,
      "t": 92000.04600000035,
      "d": 1033.3338500000245,
      "v": 77
    },
    {
      "midi": 38,
      "hit": false,
      "t": 92000.04600000035,
      "d": 1205.556158333362,
      "v": 77
    },
    {
      "midi": 67,
      "hit": false,
      "t": 92166.71275000025,
      "d": 44.44446666666772,
      "v": 35
    },
    {
      "midi": 43,
      "hit": false,
      "t": 92166.71275000038,
      "d": 50.00002500000119,
      "v": 53
    },
    {
      "midi": 67,
      "hit": false,
      "t": 92333.37950000026,
      "d": 44.44446666666772,
      "v": 31
    },
    {
      "midi": 55,
      "hit": false,
      "t": 92333.37950000036,
      "d": 266.66680000000633,
      "v": 61
    },
    {
      "midi": 59,
      "hit": false,
      "t": 92333.37950000036,
      "d": 277.77791666667326,
      "v": 61
    },
    {
      "midi": 43,
      "hit": false,
      "t": 92333.37950000039,
      "d": 77.77781666666851,
      "v": 62
    },
    {
      "midi": 67,
      "hit": false,
      "t": 92500.04625000026,
      "d": 38.88890833333426,
      "v": 28
    },
    {
      "midi": 43,
      "hit": false,
      "t": 92500.04625000039,
      "d": 355.5557333333418,
      "v": 53
    },
    {
      "midi": 67,
      "hit": false,
      "t": 92666.71300000027,
      "d": 122.22228333333624,
      "v": 24
    },
    {
      "midi": 60,
      "hit": false,
      "t": 92666.71300000037,
      "d": 66.66670000000158,
      "v": 78
    },
    {
      "midi": 31,
      "hit": false,
      "t": 92666.7130000004,
      "d": 522.2224833333457,
      "v": 64
    },
    {
      "midi": 67,
      "hit": false,
      "t": 92833.37975000027,
      "d": 33.33335000000079,
      "v": 21
    },
    {
      "midi": 55,
      "hit": false,
      "t": 92833.37975000037,
      "d": 283.33347500000673,
      "v": 62
    },
    {
      "midi": 60,
      "hit": false,
      "t": 92833.37975000037,
      "d": 500.0002500000119,
      "v": 62
    },
    {
      "midi": 67,
      "hit": false,
      "t": 93000.04650000027,
      "d": 66.66670000000158,
      "v": 17
    },
    {
      "midi": 43,
      "hit": false,
      "t": 93000.0465000004,
      "d": 155.55563333333703,
      "v": 53
    },
    {
      "midi": 67,
      "hit": false,
      "t": 93166.71325000028,
      "d": 27.777791666667326,
      "v": 14
    },
    {
      "midi": 43,
      "hit": false,
      "t": 93166.71325000038,
      "d": 144.4445166666701,
      "v": 63
    },
    {
      "midi": 55,
      "hit": false,
      "t": 93333.38000000038,
      "d": 216.66677500000515,
      "v": 62
    },
    {
      "midi": 59,
      "hit": false,
      "t": 93333.38000000038,
      "d": 216.66677500000515,
      "v": 62
    },
    {
      "midi": 43,
      "hit": false,
      "t": 93333.38000000038,
      "d": 2261.1122416666767,
      "v": 82
    },
    {
      "midi": 31,
      "hit": false,
      "t": 93333.38000000041,
      "d": 505.5558083333308,
      "v": 64
    },
    {
      "midi": 55,
      "hit": false,
      "t": 93666.71350000039,
      "d": 577.7780666666658,
      "v": 68
    },
    {
      "midi": 59,
      "hit": false,
      "t": 93666.71350000039,
      "d": 594.4447416666662,
      "v": 71
    },
    {
      "midi": 47,
      "hit": false,
      "t": 93666.71350000039,
      "d": 1911.1120666666684,
      "v": 64
    },
    {
      "midi": 43,
      "hit": false,
      "t": 93666.7135000004,
      "d": 55.55558333333465,
      "v": 51
    },
    {
      "midi": 43,
      "hit": false,
      "t": 93833.38025000041,
      "d": 427.7779916666768,
      "v": 62
    },
    {
      "midi": 31,
      "hit": false,
      "t": 94000.04700000041,
      "d": 505.55580833334534,
      "v": 65
    },
    {
      "midi": 60,
      "hit": false,
      "t": 94333.38050000039,
      "d": 111.1111666666693,
      "v": 77
    },
    {
      "midi": 55,
      "hit": false,
      "t": 94333.38050000039,
      "d": 138.88895833333663,
      "v": 68
    },
    {
      "midi": 43,
      "hit": false,
      "t": 94333.38050000042,
      "d": 488.88913333334494,
      "v": 52
    },
    {
      "midi": 55,
      "hit": false,
      "t": 94666.7140000004,
      "d": 344.4446166666603,
      "v": 69
    },
    {
      "midi": 60,
      "hit": false,
      "t": 94666.7140000004,
      "d": 405.5557583333284,
      "v": 69
    },
    {
      "midi": 31,
      "hit": false,
      "t": 94666.71400000043,
      "d": 505.55580833334534,
      "v": 68
    },
    {
      "midi": 43,
      "hit": false,
      "t": 95000.04750000044,
      "d": 66.66670000000158,
      "v": 55
    },
    {
      "midi": 59,
      "hit": false,
      "t": 95166.7142500004,
      "d": 466.66689999999653,
      "v": 59
    },
    {
      "midi": 55,
      "hit": false,
      "t": 95166.7142500004,
      "d": 522.2224833333312,
      "v": 75
    },
    {
      "midi": 43,
      "hit": false,
      "t": 95166.71425000044,
      "d": 338.88905833332683,
      "v": 62
    },
    {
      "midi": 31,
      "hit": false,
      "t": 95500.04775000043,
      "d": 322.222383333341,
      "v": 64
    },
    {
      "midi": 60,
      "hit": false,
      "t": 95666.7145000004,
      "d": 277.77791666667326,
      "v": 51
    },
    {
      "midi": 50,
      "hit": false,
      "t": 95666.7145000004,
      "d": 294.44459166667366,
      "v": 51
    },
    {
      "midi": 43,
      "hit": false,
      "t": 95666.71450000044,
      "d": 427.7779916666768,
      "v": 56
    },
    {
      "midi": 43,
      "hit": false,
      "t": 95683.3811750004,
      "d": 194.44454166667128,
      "v": 55
    },
    {
      "midi": 43,
      "hit": false,
      "t": 96000.0480000004,
      "d": 2383.334525000013,
      "v": 65
    },
    {
      "midi": 48,
      "hit": false,
      "t": 96000.0480000004,
      "d": 2400.0012000000133,
      "v": 61
    },
    {
      "midi": 31,
      "hit": false,
      "t": 96000.04800000045,
      "d": 538.8891583333461,
      "v": 64
    },
    {
      "midi": 52,
      "hit": false,
      "t": 96333.3815000004,
      "d": 433.33354999999574,
      "v": 58
    },
    {
      "midi": 55,
      "hit": false,
      "t": 96333.3815000004,
      "d": 455.5557833333296,
      "v": 58
    },
    {
      "midi": 43,
      "hit": false,
      "t": 96333.38150000045,
      "d": 83.33337500000198,
      "v": 48
    },
    {
      "midi": 43,
      "hit": false,
      "t": 96500.04825000046,
      "d": 394.44464166667603,
      "v": 60
    },
    {
      "midi": 60,
      "hit": false,
      "t": 96666.71500000039,
      "d": 516.6669250000123,
      "v": 64
    },
    {
      "midi": 58,
      "hit": false,
      "t": 96666.71500000039,
      "d": 538.8891583333461,
      "v": 64
    },
    {
      "midi": 31,
      "hit": false,
      "t": 96666.71500000046,
      "d": 522.2224833333457,
      "v": 48
    },
    {
      "midi": 52,
      "hit": false,
      "t": 97000.0485000004,
      "d": 55.55558333333465,
      "v": 68
    },
    {
      "midi": 55,
      "hit": false,
      "t": 97000.0485000004,
      "d": 61.11114166666812,
      "v": 68
    },
    {
      "midi": 43,
      "hit": false,
      "t": 97000.04850000047,
      "d": 505.55580833334534,
      "v": 65
    },
    {
      "midi": 55,
      "hit": false,
      "t": 97333.3820000004,
      "d": 422.2224333333288,
      "v": 63
    },
    {
      "midi": 52,
      "hit": false,
      "t": 97333.3820000004,
      "d": 444.44466666666267,
      "v": 63
    },
    {
      "midi": 31,
      "hit": false,
      "t": 97333.38200000048,
      "d": 433.3335500000103,
      "v": 59
    },
    {
      "midi": 60,
      "hit": false,
      "t": 97666.7155000004,
      "d": 38.88890833333426,
      "v": 62
    },
    {
      "midi": 58,
      "hit": false,
      "t": 97666.7155000004,
      "d": 44.44446666666772,
      "v": 62
    },
    {
      "midi": 43,
      "hit": false,
      "t": 97666.71550000049,
      "d": 77.77781666666851,
      "v": 61
    },
    {
      "midi": 52,
      "hit": false,
      "t": 97833.3822500004,
      "d": 355.5557333333418,
      "v": 68
    },
    {
      "midi": 55,
      "hit": false,
      "t": 97833.3822500004,
      "d": 355.5557333333418,
      "v": 58
    },
    {
      "midi": 43,
      "hit": false,
      "t": 97833.38225000049,
      "d": 288.8890333333402,
      "v": 54
    },
    {
      "midi": 60,
      "hit": false,
      "t": 98000.0490000004,
      "d": 44.44446666666772,
      "v": 60
    },
    {
      "midi": 58,
      "hit": false,
      "t": 98000.0490000004,
      "d": 88.88893333333544,
      "v": 60
    },
    {
      "midi": 31,
      "hit": false,
      "t": 98000.0490000005,
      "d": 277.77791666667326,
      "v": 72
    },
    {
      "midi": 43,
      "hit": false,
      "t": 98166.7157500005,
      "d": 533.3336000000127,
      "v": 63
    },
    {
      "midi": 52,
      "hit": false,
      "t": 98333.38250000041,
      "d": 194.44454166667128,
      "v": 56
    },
    {
      "midi": 55,
      "hit": false,
      "t": 98333.38250000041,
      "d": 216.66677500000515,
      "v": 56
    },
    {
      "midi": 31,
      "hit": false,
      "t": 98333.3825000005,
      "d": 188.88898333333782,
      "v": 52
    },
    {
      "midi": 39,
      "hit": false,
      "t": 98666.71600000042,
      "d": 1227.7783916666667,
      "v": 71
    },
    {
      "midi": 46,
      "hit": false,
      "t": 98666.71600000042,
      "d": 1244.4450666666671,
      "v": 65
    },
    {
      "midi": 31,
      "hit": false,
      "t": 98666.71600000051,
      "d": 538.8891583333461,
      "v": 68
    },
    {
      "midi": 55,
      "hit": false,
      "t": 99000.04950000042,
      "d": 50.00002500000119,
      "v": 63
    },
    {
      "midi": 51,
      "hit": false,
      "t": 99000.04950000042,
      "d": 61.11114166666812,
      "v": 63
    },
    {
      "midi": 43,
      "hit": false,
      "t": 99000.04950000052,
      "d": 72.22225833333505,
      "v": 58
    },
    {
      "midi": 43,
      "hit": false,
      "t": 99166.71625000052,
      "d": 444.4446666666772,
      "v": 53
    },
    {
      "midi": 55,
      "hit": false,
      "t": 99333.38300000042,
      "d": 411.1113166666619,
      "v": 68
    },
    {
      "midi": 51,
      "hit": false,
      "t": 99333.38300000042,
      "d": 450.00022499999614,
      "v": 65
    },
    {
      "midi": 31,
      "hit": false,
      "t": 99333.38300000053,
      "d": 644.4447666666674,
      "v": 66
    },
    {
      "midi": 43,
      "hit": false,
      "t": 99666.71650000053,
      "d": 350.00017499999376,
      "v": 63
    },
    {
      "midi": 51,
      "hit": false,
      "t": 99833.38325000042,
      "d": 72.22225833333505,
      "v": 60
    },
    {
      "midi": 55,
      "hit": false,
      "t": 99833.38325000042,
      "d": 72.22225833333505,
      "v": 60
    },
    {
      "midi": 57,
      "hit": false,
      "t": 100000.05000000042,
      "d": 433.3335500000103,
      "v": 65
    },
    {
      "midi": 41,
      "hit": false,
      "t": 100000.05000000042,
      "d": 1205.556158333362,
      "v": 60
    },
    {
      "midi": 48,
      "hit": false,
      "t": 100000.05000000042,
      "d": 1277.778416666697,
      "v": 66
    },
    {
      "midi": 41,
      "hit": false,
      "t": 100000.05000000053,
      "d": 433.33354999999574,
      "v": 50
    },
    {
      "midi": 53,
      "hit": false,
      "t": 100166.71675000043,
      "d": 266.66680000000633,
      "v": 59
    },
    {
      "midi": 29,
      "hit": false,
      "t": 100333.38350000052,
      "d": 105.55560833333584,
      "v": 45
    },
    {
      "midi": 53,
      "hit": false,
      "t": 100500.05025000044,
      "d": 50.00002500000119,
      "v": 72
    },
    {
      "midi": 57,
      "hit": false,
      "t": 100500.05025000044,
      "d": 50.00002500000119,
      "v": 72
    },
    {
      "midi": 29,
      "hit": false,
      "t": 100500.05025000052,
      "d": 355.5557333333272,
      "v": 57
    },
    {
      "midi": 57,
      "hit": false,
      "t": 100666.71700000044,
      "d": 66.66670000000158,
      "v": 59
    },
    {
      "midi": 53,
      "hit": false,
      "t": 100666.71700000044,
      "d": 277.77791666667326,
      "v": 59
    },
    {
      "midi": 41,
      "hit": false,
      "t": 100833.38375000052,
      "d": 205.55565833333822,
      "v": 58
    },
    {
      "midi": 57,
      "hit": false,
      "t": 101000.05050000045,
      "d": 277.77791666667326,
      "v": 57
    },
    {
      "midi": 53,
      "hit": false,
      "t": 101000.05050000045,
      "d": 294.44459166667366,
      "v": 57
    },
    {
      "midi": 29,
      "hit": false,
      "t": 101000.05050000052,
      "d": 283.33347500000673,
      "v": 67
    },
    {
      "midi": 41,
      "hit": false,
      "t": 101166.71725000053,
      "d": 183.33342500000435,
      "v": 50
    },
    {
      "midi": 43,
      "hit": false,
      "t": 101333.38400000046,
      "d": 1244.4450666666671,
      "v": 71
    },
    {
      "midi": 38,
      "hit": false,
      "t": 101333.38400000046,
      "d": 1261.1117416666675,
      "v": 68
    },
    {
      "midi": 31,
      "hit": false,
      "t": 101333.38400000053,
      "d": 538.8891583333316,
      "v": 66
    },
    {
      "midi": 55,
      "hit": false,
      "t": 101666.71750000045,
      "d": 272.2223583333398,
      "v": 63
    },
    {
      "midi": 59,
      "hit": false,
      "t": 101666.71750000045,
      "d": 283.33347500000673,
      "v": 63
    },
    {
      "midi": 43,
      "hit": false,
      "t": 101666.71750000052,
      "d": 66.66670000000158,
      "v": 64
    },
    {
      "midi": 43,
      "hit": false,
      "t": 101833.38425000053,
      "d": 411.11131666667643,
      "v": 52
    },
    {
      "midi": 60,
      "hit": false,
      "t": 102000.05100000046,
      "d": 66.66670000000158,
      "v": 58
    },
    {
      "midi": 31,
      "hit": false,
      "t": 102000.05100000053,
      "d": 350.0001750000083,
      "v": 61
    },
    {
      "midi": 55,
      "hit": false,
      "t": 102166.71775000046,
      "d": 350.00017499999376,
      "v": 59
    },
    {
      "midi": 60,
      "hit": false,
      "t": 102166.71775000046,
      "d": 400.00019999999495,
      "v": 69
    },
    {
      "midi": 43,
      "hit": false,
      "t": 102333.38450000054,
      "d": 383.3335250000091,
      "v": 53
    },
    {
      "midi": 31,
      "hit": false,
      "t": 102500.05125000054,
      "d": 622.2225333333481,
      "v": 65
    },
    {
      "midi": 55,
      "hit": false,
      "t": 102666.71800000046,
      "d": 161.1111916666705,
      "v": 77
    },
    {
      "midi": 59,
      "hit": false,
      "t": 102666.71800000046,
      "d": 188.88898333333782,
      "v": 77
    },
    {
      "midi": 43,
      "hit": false,
      "t": 102666.71800000046,
      "d": 1033.3338500000245,
      "v": 77
    },
    {
      "midi": 38,
      "hit": false,
      "t": 102666.71800000046,
      "d": 1205.556158333362,
      "v": 77
    },
    {
      "midi": 43,
      "hit": false,
      "t": 102833.38475000055,
      "d": 50.00002500000119,
      "v": 53
    },
    {
      "midi": 55,
      "hit": false,
      "t": 103000.05150000047,
      "d": 266.66680000000633,
      "v": 61
    },
    {
      "midi": 59,
      "hit": false,
      "t": 103000.05150000047,
      "d": 277.77791666667326,
      "v": 61
    },
    {
      "midi": 43,
      "hit": false,
      "t": 103000.05150000055,
      "d": 77.77781666666851,
      "v": 62
    },
    {
      "midi": 43,
      "hit": false,
      "t": 103166.71825000056,
      "d": 355.5557333333418,
      "v": 53
    },
    {
      "midi": 60,
      "hit": false,
      "t": 103333.38500000047,
      "d": 66.66670000000158,
      "v": 78
    },
    {
      "midi": 31,
      "hit": false,
      "t": 103333.38500000056,
      "d": 522.2224833333457,
      "v": 64
    },
    {
      "midi": 55,
      "hit": false,
      "t": 103500.05175000048,
      "d": 450.0002250000107,
      "v": 62
    },
    {
      "midi": 60,
      "hit": false,
      "t": 103500.05175000048,
      "d": 466.6669000000111,
      "v": 62
    },
    {
      "midi": 43,
      "hit": false,
      "t": 103666.71850000057,
      "d": 155.55563333333703,
      "v": 53
    },
    {
      "midi": 43,
      "hit": false,
      "t": 103833.38525000049,
      "d": 144.4445166666701,
      "v": 63
    },
    {
      "midi": 31,
      "hit": false,
      "t": 104000.05200000058,
      "d": 322.22238333332643,
      "v": 55
    },
    {
      "midi": 59,
      "hit": false,
      "t": 104011.16311666694,
      "d": 2000.0010000000038,
      "v": 55
    },
    {
      "midi": 62,
      "hit": false,
      "t": 104011.16311666694,
      "d": 2000.0010000000038,
      "v": 55
    },
    {
      "midi": 67,
      "hit": false,
      "t": 104011.16311666694,
      "d": 2011.1121166666708,
      "v": 55
    },
    {
      "midi": 43,
      "hit": false,
      "t": 104333.38550000057,
      "d": 183.33342500000435,
      "v": 55
    },
    {
      "midi": 31,
      "hit": false,
      "t": 104500.05225000058,
      "d": 333.33349999999336,
      "v": 55
    },
    {
      "midi": 55,
      "hit": false,
      "t": 104666.71900000049,
      "d": 516.6669249999977,
      "v": 59
    },
    {
      "midi": 62,
      "hit": false,
      "t": 104666.71900000049,
      "d": 566.6669499999989,
      "v": 59
    },
    {
      "midi": 59,
      "hit": false,
      "t": 104666.71900000049,
      "d": 577.7780666666658,
      "v": 59
    },
    {
      "midi": 43,
      "hit": false,
      "t": 104833.38575000057,
      "d": 133.33340000000317,
      "v": 55
    },
    {
      "midi": 31,
      "hit": false,
      "t": 105000.05250000057,
      "d": 166.66675000000396,
      "v": 55
    },
    {
      "midi": 43,
      "hit": false,
      "t": 105166.71925000058,
      "d": 127.7778416666697,
      "v": 55
    },
    {
      "midi": 55,
      "hit": false,
      "t": 105333.3860000005,
      "d": 505.5558083333308,
      "v": 77
    },
    {
      "midi": 62,
      "hit": false,
      "t": 105333.3860000005,
      "d": 511.11136666666425,
      "v": 77
    },
    {
      "midi": 59,
      "hit": false,
      "t": 105333.3860000005,
      "d": 550.0002749999985,
      "v": 77
    },
    {
      "midi": 31,
      "hit": false,
      "t": 105333.38600000058,
      "d": 333.33349999999336,
      "v": 55
    },
    {
      "midi": 43,
      "hit": false,
      "t": 105666.71950000057,
      "d": 200.00010000000475,
      "v": 55
    },
    {
      "midi": 31,
      "hit": false,
      "t": 105833.38625000058,
      "d": 327.77794166667445,
      "v": 55
    },
    {
      "midi": 55,
      "hit": false,
      "t": 106000.0530000005,
      "d": 622.2225333333336,
      "v": 67
    },
    {
      "midi": 59,
      "hit": false,
      "t": 106000.0530000005,
      "d": 638.889208333334,
      "v": 67
    },
    {
      "midi": 62,
      "hit": false,
      "t": 106000.0530000005,
      "d": 644.4447666666674,
      "v": 67
    },
    {
      "midi": 43,
      "hit": false,
      "t": 106166.71975000059,
      "d": 172.22230833333742,
      "v": 55
    },
    {
      "midi": 31,
      "hit": false,
      "t": 106333.38650000059,
      "d": 172.22230833333742,
      "v": 55
    },
    {
      "midi": 43,
      "hit": false,
      "t": 106500.0532500006,
      "d": 166.66675000000396,
      "v": 55
    },
    {
      "midi": 65,
      "hit": false,
      "t": 106666.72000000028,
      "d": 1888.8898333333345,
      "v": 54
    },
    {
      "midi": 57,
      "hit": false,
      "t": 106666.72000000028,
      "d": 1944.4454166666692,
      "v": 54
    },
    {
      "midi": 60,
      "hit": false,
      "t": 106666.72000000028,
      "d": 2161.1121916666743,
      "v": 54
    },
    {
      "midi": 29,
      "hit": false,
      "t": 106666.7200000006,
      "d": 300.0001500000071,
      "v": 55
    },
    {
      "midi": 41,
      "hit": false,
      "t": 107000.0535000006,
      "d": 211.11121666667168,
      "v": 55
    },
    {
      "midi": 29,
      "hit": false,
      "t": 107166.72025000061,
      "d": 327.77794166667445,
      "v": 55
    },
    {
      "midi": 57,
      "hit": false,
      "t": 107333.3870000005,
      "d": 483.3335749999969,
      "v": 59
    },
    {
      "midi": 65,
      "hit": false,
      "t": 107333.3870000005,
      "d": 527.7780416666646,
      "v": 59
    },
    {
      "midi": 60,
      "hit": false,
      "t": 107333.3870000005,
      "d": 544.444716666665,
      "v": 59
    },
    {
      "midi": 41,
      "hit": false,
      "t": 107500.05375000062,
      "d": 172.22230833333742,
      "v": 55
    },
    {
      "midi": 29,
      "hit": false,
      "t": 107666.72050000062,
      "d": 161.1111916666705,
      "v": 55
    },
    {
      "midi": 41,
      "hit": false,
      "t": 107833.38725000063,
      "d": 161.1111916666705,
      "v": 55
    },
    {
      "midi": 57,
      "hit": false,
      "t": 108000.0540000005,
      "d": 477.77801666666346,
      "v": 74
    },
    {
      "midi": 65,
      "hit": false,
      "t": 108000.0540000005,
      "d": 488.8891333333304,
      "v": 74
    },
    {
      "midi": 60,
      "hit": false,
      "t": 108000.0540000005,
      "d": 500.0002499999973,
      "v": 74
    },
    {
      "midi": 29,
      "hit": false,
      "t": 108000.05400000063,
      "d": 361.1112916666607,
      "v": 55
    },
    {
      "midi": 41,
      "hit": false,
      "t": 108333.38750000062,
      "d": 194.44454166667128,
      "v": 55
    },
    {
      "midi": 29,
      "hit": false,
      "t": 108500.05425000063,
      "d": 361.11129166667524,
      "v": 55
    },
    {
      "midi": 65,
      "hit": false,
      "t": 108666.7210000005,
      "d": 488.8891333333304,
      "v": 67
    },
    {
      "midi": 57,
      "hit": false,
      "t": 108666.7210000005,
      "d": 500.0002499999973,
      "v": 67
    },
    {
      "midi": 60,
      "hit": false,
      "t": 108666.7210000005,
      "d": 583.3336249999993,
      "v": 67
    },
    {
      "midi": 41,
      "hit": false,
      "t": 108833.38775000063,
      "d": 172.22230833333742,
      "v": 55
    },
    {
      "midi": 29,
      "hit": false,
      "t": 109000.05450000064,
      "d": 183.33342500000435,
      "v": 55
    },
    {
      "midi": 41,
      "hit": false,
      "t": 109166.72125000064,
      "d": 183.33342500000435,
      "v": 55
    },
    {
      "midi": 55,
      "hit": false,
      "t": 109333.38800000028,
      "d": 1777.7786666666652,
      "v": 56
    },
    {
      "midi": 60,
      "hit": false,
      "t": 109333.38800000028,
      "d": 1788.8897833333322,
      "v": 56
    },
    {
      "midi": 64,
      "hit": false,
      "t": 109333.38800000028,
      "d": 1816.6675749999995,
      "v": 56
    },
    {
      "midi": 31,
      "hit": false,
      "t": 109338.94355833398,
      "d": 550.0002749999985,
      "v": 55
    },
    {
      "midi": 43,
      "hit": false,
      "t": 109833.38825000064,
      "d": 200.00010000000475,
      "v": 55
    },
    {
      "midi": 60,
      "hit": false,
      "t": 110000.0550000005,
      "d": 500.0002499999973,
      "v": 59
    },
    {
      "midi": 64,
      "hit": false,
      "t": 110000.0550000005,
      "d": 500.0002499999973,
      "v": 59
    },
    {
      "midi": 55,
      "hit": false,
      "t": 110000.0550000005,
      "d": 522.2224833333312,
      "v": 59
    },
    {
      "midi": 31,
      "hit": false,
      "t": 110000.05500000065,
      "d": 316.6668250000075,
      "v": 55
    },
    {
      "midi": 43,
      "hit": false,
      "t": 110333.38850000066,
      "d": 144.4445166666701,
      "v": 55
    },
    {
      "midi": 31,
      "hit": false,
      "t": 110333.38850000066,
      "d": 183.33342500000435,
      "v": 55
    },
    {
      "midi": 43,
      "hit": false,
      "t": 110500.05525000066,
      "d": 144.4445166666701,
      "v": 55
    },
    {
      "midi": 60,
      "hit": false,
      "t": 110666.7220000005,
      "d": 466.66689999999653,
      "v": 76
    },
    {
      "midi": 64,
      "hit": false,
      "t": 110666.7220000005,
      "d": 472.22245833333,
      "v": 76
    },
    {
      "midi": 55,
      "hit": false,
      "t": 110666.7220000005,
      "d": 500.0002499999973,
      "v": 76
    },
    {
      "midi": 31,
      "hit": false,
      "t": 110666.72200000066,
      "d": 300.0001500000071,
      "v": 55
    },
    {
      "midi": 43,
      "hit": false,
      "t": 111000.05550000067,
      "d": 150.00007500000356,
      "v": 55
    },
    {
      "midi": 31,
      "hit": false,
      "t": 111166.72225000068,
      "d": 311.1112666666595,
      "v": 55
    },
    {
      "midi": 60,
      "hit": false,
      "t": 111333.3890000005,
      "d": 455.5557833333296,
      "v": 69
    },
    {
      "midi": 64,
      "hit": false,
      "t": 111333.3890000005,
      "d": 477.77801666666346,
      "v": 69
    },
    {
      "midi": 55,
      "hit": false,
      "t": 111333.3890000005,
      "d": 522.2224833333312,
      "v": 69
    },
    {
      "midi": 43,
      "hit": false,
      "t": 111500.05575000067,
      "d": 172.22230833333742,
      "v": 55
    },
    {
      "midi": 31,
      "hit": false,
      "t": 111666.72250000067,
      "d": 194.44454166667128,
      "v": 55
    },
    {
      "midi": 43,
      "hit": false,
      "t": 111833.38925000068,
      "d": 161.1111916666705,
      "v": 55
    },
    {
      "midi": 62,
      "hit": false,
      "t": 112000.05600000029,
      "d": 2455.5567833333334,
      "v": 55
    },
    {
      "midi": 59,
      "hit": false,
      "t": 112000.05600000029,
      "d": 2461.112341666667,
      "v": 55
    },
    {
      "midi": 67,
      "hit": false,
      "t": 112000.05600000029,
      "d": 2488.8901333333342,
      "v": 55
    },
    {
      "midi": 31,
      "hit": false,
      "t": 112000.05600000068,
      "d": 361.1112916666607,
      "v": 55
    },
    {
      "midi": 43,
      "hit": false,
      "t": 112333.38950000067,
      "d": 172.22230833333742,
      "v": 55
    },
    {
      "midi": 31,
      "hit": false,
      "t": 112500.05625000068,
      "d": 338.88905833332683,
      "v": 55
    },
    {
      "midi": 55,
      "hit": false,
      "t": 112666.72300000051,
      "d": 450.00022499999614,
      "v": 59
    },
    {
      "midi": 59,
      "hit": false,
      "t": 112666.72300000051,
      "d": 450.00022499999614,
      "v": 59
    },
    {
      "midi": 62,
      "hit": false,
      "t": 112666.72300000051,
      "d": 466.66689999999653,
      "v": 59
    },
    {
      "midi": 43,
      "hit": false,
      "t": 112833.38975000067,
      "d": 161.1111916666705,
      "v": 55
    },
    {
      "midi": 31,
      "hit": false,
      "t": 113000.05650000068,
      "d": 177.7778666666709,
      "v": 55
    },
    {
      "midi": 43,
      "hit": false,
      "t": 113166.72325000068,
      "d": 155.55563333333703,
      "v": 55
    },
    {
      "midi": 55,
      "hit": false,
      "t": 113333.39000000051,
      "d": 488.8891333333304,
      "v": 74
    },
    {
      "midi": 62,
      "hit": false,
      "t": 113333.39000000051,
      "d": 494.44469166666386,
      "v": 74
    },
    {
      "midi": 59,
      "hit": false,
      "t": 113333.39000000051,
      "d": 511.11136666666425,
      "v": 74
    },
    {
      "midi": 31,
      "hit": false,
      "t": 113333.39000000068,
      "d": 361.1112916666607,
      "v": 55
    },
    {
      "midi": 43,
      "hit": false,
      "t": 113666.72350000068,
      "d": 161.1111916666705,
      "v": 55
    },
    {
      "midi": 31,
      "hit": false,
      "t": 113833.39025000068,
      "d": 377.7779666666611,
      "v": 55
    },
    {
      "midi": 59,
      "hit": false,
      "t": 114000.05700000051,
      "d": 383.33352499999455,
      "v": 66
    },
    {
      "midi": 62,
      "hit": false,
      "t": 114000.05700000051,
      "d": 394.4446416666615,
      "v": 66
    },
    {
      "midi": 55,
      "hit": false,
      "t": 114000.05700000051,
      "d": 433.33354999999574,
      "v": 66
    },
    {
      "midi": 43,
      "hit": false,
      "t": 114166.72375000067,
      "d": 166.66675000000396,
      "v": 55
    },
    {
      "midi": 31,
      "hit": false,
      "t": 114333.39050000068,
      "d": 172.22230833333742,
      "v": 55
    },
    {
      "midi": 43,
      "hit": false,
      "t": 114500.05725000068,
      "d": 122.22228333333624,
      "v": 55
    },
    {
      "midi": 59,
      "hit": false,
      "t": 114666.7240000003,
      "d": 2000.0010000000038,
      "v": 55
    },
    {
      "midi": 62,
      "hit": false,
      "t": 114666.7240000003,
      "d": 2000.0010000000038,
      "v": 55
    },
    {
      "midi": 67,
      "hit": false,
      "t": 114666.7240000003,
      "d": 2011.1121166666708,
      "v": 55
    },
    {
      "midi": 31,
      "hit": false,
      "t": 114666.72400000069,
      "d": 322.22238333332643,
      "v": 55
    },
    {
      "midi": 43,
      "hit": false,
      "t": 115000.05750000068,
      "d": 183.33342500000435,
      "v": 55
    },
    {
      "midi": 31,
      "hit": false,
      "t": 115166.72425000068,
      "d": 333.33349999999336,
      "v": 55
    },
    {
      "midi": 55,
      "hit": false,
      "t": 115333.39100000051,
      "d": 516.6669249999977,
      "v": 59
    },
    {
      "midi": 62,
      "hit": false,
      "t": 115333.39100000051,
      "d": 566.6669499999989,
      "v": 59
    },
    {
      "midi": 59,
      "hit": false,
      "t": 115333.39100000051,
      "d": 577.7780666666658,
      "v": 59
    },
    {
      "midi": 43,
      "hit": false,
      "t": 115500.05775000068,
      "d": 133.33340000000317,
      "v": 55
    },
    {
      "midi": 31,
      "hit": false,
      "t": 115666.72450000068,
      "d": 166.66675000000396,
      "v": 55
    },
    {
      "midi": 43,
      "hit": false,
      "t": 115833.39125000068,
      "d": 127.7778416666697,
      "v": 55
    },
    {
      "midi": 55,
      "hit": false,
      "t": 116000.05800000051,
      "d": 505.5558083333308,
      "v": 77
    },
    {
      "midi": 62,
      "hit": false,
      "t": 116000.05800000051,
      "d": 511.11136666666425,
      "v": 77
    },
    {
      "midi": 59,
      "hit": false,
      "t": 116000.05800000051,
      "d": 550.0002749999985,
      "v": 77
    },
    {
      "midi": 31,
      "hit": false,
      "t": 116000.05800000069,
      "d": 333.33349999999336,
      "v": 55
    },
    {
      "midi": 43,
      "hit": false,
      "t": 116333.39150000068,
      "d": 200.00010000000475,
      "v": 55
    },
    {
      "midi": 31,
      "hit": false,
      "t": 116500.05825000069,
      "d": 327.77794166667445,
      "v": 55
    },
    {
      "midi": 55,
      "hit": false,
      "t": 116666.72500000052,
      "d": 622.2225333333336,
      "v": 67
    },
    {
      "midi": 59,
      "hit": false,
      "t": 116666.72500000052,
      "d": 638.889208333334,
      "v": 67
    },
    {
      "midi": 62,
      "hit": false,
      "t": 116666.72500000052,
      "d": 644.4447666666674,
      "v": 67
    },
    {
      "midi": 43,
      "hit": false,
      "t": 116833.3917500007,
      "d": 172.22230833333742,
      "v": 55
    },
    {
      "midi": 31,
      "hit": false,
      "t": 117000.0585000007,
      "d": 172.22230833333742,
      "v": 55
    },
    {
      "midi": 43,
      "hit": false,
      "t": 117166.7252500007,
      "d": 166.66675000000396,
      "v": 55
    },
    {
      "midi": 65,
      "hit": false,
      "t": 117333.3920000003,
      "d": 1888.8898333333345,
      "v": 54
    },
    {
      "midi": 57,
      "hit": false,
      "t": 117333.3920000003,
      "d": 1944.4454166666692,
      "v": 54
    },
    {
      "midi": 60,
      "hit": false,
      "t": 117333.3920000003,
      "d": 2161.1121916666743,
      "v": 54
    },
    {
      "midi": 29,
      "hit": false,
      "t": 117333.3920000007,
      "d": 300.0001500000071,
      "v": 55
    },
    {
      "midi": 41,
      "hit": false,
      "t": 117666.72550000071,
      "d": 211.11121666667168,
      "v": 55
    },
    {
      "midi": 29,
      "hit": false,
      "t": 117833.39225000072,
      "d": 327.77794166667445,
      "v": 55
    },
    {
      "midi": 57,
      "hit": false,
      "t": 118000.05900000052,
      "d": 483.3335749999969,
      "v": 59
    },
    {
      "midi": 65,
      "hit": false,
      "t": 118000.05900000052,
      "d": 527.7780416666646,
      "v": 59
    },
    {
      "midi": 60,
      "hit": false,
      "t": 118000.05900000052,
      "d": 544.444716666665,
      "v": 59
    },
    {
      "midi": 41,
      "hit": false,
      "t": 118166.72575000073,
      "d": 172.22230833333742,
      "v": 55
    },
    {
      "midi": 29,
      "hit": false,
      "t": 118333.39250000073,
      "d": 161.1111916666705,
      "v": 55
    },
    {
      "midi": 41,
      "hit": false,
      "t": 118500.05925000073,
      "d": 161.1111916666705,
      "v": 55
    },
    {
      "midi": 57,
      "hit": false,
      "t": 118666.72600000052,
      "d": 477.77801666666346,
      "v": 74
    },
    {
      "midi": 65,
      "hit": false,
      "t": 118666.72600000052,
      "d": 488.8891333333304,
      "v": 74
    },
    {
      "midi": 60,
      "hit": false,
      "t": 118666.72600000052,
      "d": 500.0002499999973,
      "v": 74
    },
    {
      "midi": 29,
      "hit": false,
      "t": 118666.72600000074,
      "d": 361.1112916666607,
      "v": 55
    },
    {
      "midi": 41,
      "hit": false,
      "t": 119000.05950000073,
      "d": 194.44454166667128,
      "v": 55
    },
    {
      "midi": 29,
      "hit": false,
      "t": 119166.72625000073,
      "d": 361.11129166667524,
      "v": 55
    },
    {
      "midi": 65,
      "hit": false,
      "t": 119333.39300000052,
      "d": 488.8891333333304,
      "v": 67
    },
    {
      "midi": 57,
      "hit": false,
      "t": 119333.39300000052,
      "d": 500.0002499999973,
      "v": 67
    },
    {
      "midi": 60,
      "hit": false,
      "t": 119333.39300000052,
      "d": 583.3336249999993,
      "v": 67
    },
    {
      "midi": 41,
      "hit": false,
      "t": 119500.05975000074,
      "d": 172.22230833333742,
      "v": 55
    },
    {
      "midi": 29,
      "hit": false,
      "t": 119666.72650000075,
      "d": 183.33342500000435,
      "v": 55
    },
    {
      "midi": 41,
      "hit": false,
      "t": 119833.39325000075,
      "d": 183.33342500000435,
      "v": 55
    },
    {
      "midi": 55,
      "hit": false,
      "t": 120000.0600000003,
      "d": 1777.7786666666652,
      "v": 56
    },
    {
      "midi": 60,
      "hit": false,
      "t": 120000.0600000003,
      "d": 1788.8897833333322,
      "v": 56
    },
    {
      "midi": 64,
      "hit": false,
      "t": 120000.0600000003,
      "d": 1816.6675749999995,
      "v": 56
    },
    {
      "midi": 31,
      "hit": false,
      "t": 120005.61555833409,
      "d": 550.0002749999985,
      "v": 55
    },
    {
      "midi": 43,
      "hit": false,
      "t": 120500.06025000075,
      "d": 200.00010000000475,
      "v": 55
    },
    {
      "midi": 60,
      "hit": false,
      "t": 120666.72700000052,
      "d": 500.0002499999973,
      "v": 59
    },
    {
      "midi": 64,
      "hit": false,
      "t": 120666.72700000052,
      "d": 500.0002499999973,
      "v": 59
    },
    {
      "midi": 55,
      "hit": false,
      "t": 120666.72700000052,
      "d": 522.2224833333312,
      "v": 59
    },
    {
      "midi": 31,
      "hit": false,
      "t": 120666.72700000076,
      "d": 316.6668250000075,
      "v": 55
    },
    {
      "midi": 43,
      "hit": false,
      "t": 121000.06050000076,
      "d": 144.4445166666701,
      "v": 55
    },
    {
      "midi": 31,
      "hit": false,
      "t": 121000.06050000076,
      "d": 183.33342500000435,
      "v": 55
    },
    {
      "midi": 43,
      "hit": false,
      "t": 121166.72725000077,
      "d": 144.4445166666701,
      "v": 55
    },
    {
      "midi": 60,
      "hit": false,
      "t": 121333.39400000052,
      "d": 466.66689999999653,
      "v": 76
    },
    {
      "midi": 64,
      "hit": false,
      "t": 121333.39400000052,
      "d": 472.22245833333,
      "v": 76
    },
    {
      "midi": 55,
      "hit": false,
      "t": 121333.39400000052,
      "d": 500.0002499999973,
      "v": 76
    },
    {
      "midi": 31,
      "hit": false,
      "t": 121333.39400000077,
      "d": 300.0001500000071,
      "v": 55
    },
    {
      "midi": 43,
      "hit": false,
      "t": 121666.72750000078,
      "d": 150.00007500000356,
      "v": 55
    },
    {
      "midi": 31,
      "hit": false,
      "t": 121833.39425000078,
      "d": 311.1112666666595,
      "v": 55
    },
    {
      "midi": 60,
      "hit": false,
      "t": 122000.06100000053,
      "d": 455.5557833333296,
      "v": 69
    },
    {
      "midi": 64,
      "hit": false,
      "t": 122000.06100000053,
      "d": 477.77801666666346,
      "v": 69
    },
    {
      "midi": 55,
      "hit": false,
      "t": 122000.06100000053,
      "d": 522.2224833333312,
      "v": 69
    },
    {
      "midi": 43,
      "hit": false,
      "t": 122166.72775000078,
      "d": 172.22230833333742,
      "v": 55
    },
    {
      "midi": 31,
      "hit": false,
      "t": 122333.39450000078,
      "d": 194.44454166667128,
      "v": 55
    },
    {
      "midi": 43,
      "hit": false,
      "t": 122500.06125000078,
      "d": 161.1111916666705,
      "v": 55
    },
    {
      "midi": 62,
      "hit": false,
      "t": 122666.72800000031,
      "d": 2455.5567833333334,
      "v": 55
    },
    {
      "midi": 59,
      "hit": false,
      "t": 122666.72800000031,
      "d": 2461.112341666667,
      "v": 55
    },
    {
      "midi": 67,
      "hit": false,
      "t": 122666.72800000031,
      "d": 2488.8901333333342,
      "v": 55
    },
    {
      "midi": 31,
      "hit": false,
      "t": 122666.72800000079,
      "d": 361.1112916666607,
      "v": 55
    },
    {
      "midi": 43,
      "hit": false,
      "t": 123000.06150000078,
      "d": 172.22230833333742,
      "v": 55
    },
    {
      "midi": 31,
      "hit": false,
      "t": 123166.72825000079,
      "d": 338.88905833332683,
      "v": 55
    },
    {
      "midi": 55,
      "hit": false,
      "t": 123333.39500000053,
      "d": 450.00022499999614,
      "v": 59
    },
    {
      "midi": 59,
      "hit": false,
      "t": 123333.39500000053,
      "d": 450.00022499999614,
      "v": 59
    },
    {
      "midi": 62,
      "hit": false,
      "t": 123333.39500000053,
      "d": 466.66689999999653,
      "v": 59
    },
    {
      "midi": 43,
      "hit": false,
      "t": 123500.06175000078,
      "d": 161.1111916666705,
      "v": 55
    },
    {
      "midi": 31,
      "hit": false,
      "t": 123666.72850000078,
      "d": 177.7778666666709,
      "v": 55
    },
    {
      "midi": 43,
      "hit": false,
      "t": 123833.39525000079,
      "d": 155.55563333333703,
      "v": 55
    },
    {
      "midi": 55,
      "hit": false,
      "t": 124000.06200000053,
      "d": 488.8891333333304,
      "v": 74
    },
    {
      "midi": 62,
      "hit": false,
      "t": 124000.06200000053,
      "d": 494.44469166666386,
      "v": 74
    },
    {
      "midi": 59,
      "hit": false,
      "t": 124000.06200000053,
      "d": 511.11136666666425,
      "v": 74
    },
    {
      "midi": 31,
      "hit": false,
      "t": 124000.06200000079,
      "d": 361.1112916666607,
      "v": 55
    },
    {
      "midi": 43,
      "hit": false,
      "t": 124333.39550000078,
      "d": 161.1111916666705,
      "v": 55
    },
    {
      "midi": 31,
      "hit": false,
      "t": 124500.06225000079,
      "d": 377.7779666666611,
      "v": 55
    },
    {
      "midi": 59,
      "hit": false,
      "t": 124666.72900000053,
      "d": 383.33352499999455,
      "v": 66
    },
    {
      "midi": 62,
      "hit": false,
      "t": 124666.72900000053,
      "d": 394.4446416666615,
      "v": 66
    },
    {
      "midi": 55,
      "hit": false,
      "t": 124666.72900000053,
      "d": 433.33354999999574,
      "v": 66
    },
    {
      "midi": 43,
      "hit": false,
      "t": 124833.39575000078,
      "d": 166.66675000000396,
      "v": 55
    },
    {
      "midi": 31,
      "hit": false,
      "t": 125000.06250000079,
      "d": 172.22230833333742,
      "v": 55
    },
    {
      "midi": 43,
      "hit": false,
      "t": 125166.72925000079,
      "d": 122.22228333333624,
      "v": 55
    },
    {
      "midi": 55,
      "hit": false,
      "t": 125333.39600000053,
      "d": 850.0004249999911,
      "v": 68
    },
    {
      "midi": 43,
      "hit": false,
      "t": 125333.39600000053,
      "d": 2261.112241666662,
      "v": 82
    },
    {
      "midi": 31,
      "hit": false,
      "t": 125333.3960000008,
      "d": 505.5558083333308,
      "v": 64
    },
    {
      "midi": 59,
      "hit": false,
      "t": 125666.72950000053,
      "d": 594.4447416666662,
      "v": 71
    },
    {
      "midi": 47,
      "hit": false,
      "t": 125666.72950000053,
      "d": 1911.1120666666684,
      "v": 64
    },
    {
      "midi": 43,
      "hit": false,
      "t": 125666.72950000079,
      "d": 55.55558333333465,
      "v": 51
    },
    {
      "midi": 43,
      "hit": false,
      "t": 125833.39625000079,
      "d": 427.7779916666768,
      "v": 62
    },
    {
      "midi": 31,
      "hit": false,
      "t": 126000.0630000008,
      "d": 505.55580833334534,
      "v": 65
    },
    {
      "midi": 60,
      "hit": false,
      "t": 126333.39650000053,
      "d": 111.1111666666693,
      "v": 77
    },
    {
      "midi": 55,
      "hit": false,
      "t": 126333.39650000053,
      "d": 138.88895833333663,
      "v": 68
    },
    {
      "midi": 43,
      "hit": false,
      "t": 126333.3965000008,
      "d": 488.88913333334494,
      "v": 52
    },
    {
      "midi": 55,
      "hit": false,
      "t": 126666.73000000053,
      "d": 344.4446166666603,
      "v": 69
    },
    {
      "midi": 60,
      "hit": false,
      "t": 126666.73000000053,
      "d": 405.5557583333284,
      "v": 69
    },
    {
      "midi": 31,
      "hit": false,
      "t": 126666.73000000081,
      "d": 505.55580833334534,
      "v": 68
    },
    {
      "midi": 67,
      "hit": false,
      "t": 126833.3967500003,
      "d": 38.88890833333426,
      "v": 20
    },
    {
      "midi": 67,
      "hit": false,
      "t": 127000.06350000031,
      "d": 55.55558333333465,
      "v": 24
    },
    {
      "midi": 43,
      "hit": false,
      "t": 127000.06350000082,
      "d": 66.66670000000158,
      "v": 55
    },
    {
      "midi": 67,
      "hit": false,
      "t": 127166.73025000031,
      "d": 44.44446666666772,
      "v": 32
    },
    {
      "midi": 59,
      "hit": false,
      "t": 127166.73025000053,
      "d": 466.66689999999653,
      "v": 59
    },
    {
      "midi": 55,
      "hit": false,
      "t": 127166.73025000053,
      "d": 522.2224833333312,
      "v": 75
    },
    {
      "midi": 43,
      "hit": false,
      "t": 127166.73025000082,
      "d": 338.88905833332683,
      "v": 62
    },
    {
      "midi": 67,
      "hit": false,
      "t": 127333.39700000032,
      "d": 38.88890833333426,
      "v": 40
    },
    {
      "midi": 67,
      "hit": false,
      "t": 127500.06375000032,
      "d": 38.88890833333426,
      "v": 47
    },
    {
      "midi": 31,
      "hit": false,
      "t": 127500.06375000082,
      "d": 322.222383333341,
      "v": 64
    },
    {
      "midi": 67,
      "hit": false,
      "t": 127666.73050000033,
      "d": 44.44446666666772,
      "v": 55
    },
    {
      "midi": 60,
      "hit": false,
      "t": 127666.73050000053,
      "d": 277.77791666667326,
      "v": 51
    },
    {
      "midi": 50,
      "hit": false,
      "t": 127666.73050000053,
      "d": 294.44459166667366,
      "v": 51
    },
    {
      "midi": 43,
      "hit": false,
      "t": 127666.73050000082,
      "d": 427.7779916666768,
      "v": 56
    },
    {
      "midi": 43,
      "hit": false,
      "t": 127683.39717500053,
      "d": 194.44454166667128,
      "v": 55
    },
    {
      "midi": 67,
      "hit": false,
      "t": 127833.39725000033,
      "d": 38.88890833333426,
      "v": 63
    },
    {
      "midi": 67,
      "hit": false,
      "t": 128000.06400000033,
      "d": 55.55558333333465,
      "v": 71
    },
    {
      "midi": 43,
      "hit": false,
      "t": 128000.06400000054,
      "d": 2383.334525000013,
      "v": 65
    },
    {
      "midi": 48,
      "hit": false,
      "t": 128000.06400000054,
      "d": 2400.0012000000133,
      "v": 61
    },
    {
      "midi": 31,
      "hit": false,
      "t": 128000.06400000083,
      "d": 538.8891583333461,
      "v": 64
    },
    {
      "midi": 67,
      "hit": false,
      "t": 128166.73075000034,
      "d": 33.33335000000079,
      "v": 79
    },
    {
      "midi": 67,
      "hit": false,
      "t": 128333.39750000034,
      "d": 44.44446666666772,
      "v": 87
    },
    {
      "midi": 52,
      "hit": false,
      "t": 128333.39750000053,
      "d": 433.33354999999574,
      "v": 58
    },
    {
      "midi": 55,
      "hit": false,
      "t": 128333.39750000053,
      "d": 455.5557833333296,
      "v": 58
    },
    {
      "midi": 43,
      "hit": false,
      "t": 128333.39750000084,
      "d": 83.33337500000198,
      "v": 48
    },
    {
      "midi": 67,
      "hit": false,
      "t": 128500.06425000035,
      "d": 44.44446666666772,
      "v": 82
    },
    {
      "midi": 43,
      "hit": false,
      "t": 128500.06425000084,
      "d": 394.44464166667603,
      "v": 60
    },
    {
      "midi": 67,
      "hit": false,
      "t": 128666.73100000035,
      "d": 38.88890833333426,
      "v": 77
    },
    {
      "midi": 60,
      "hit": false,
      "t": 128666.73100000052,
      "d": 516.6669250000123,
      "v": 64
    },
    {
      "midi": 58,
      "hit": false,
      "t": 128666.73100000052,
      "d": 538.8891583333461,
      "v": 64
    },
    {
      "midi": 31,
      "hit": false,
      "t": 128666.73100000084,
      "d": 522.2224833333457,
      "v": 48
    },
    {
      "midi": 67,
      "hit": false,
      "t": 128833.39775000035,
      "d": 44.44446666666772,
      "v": 71
    },
    {
      "midi": 67,
      "hit": false,
      "t": 129000.06450000036,
      "d": 44.44446666666772,
      "v": 65
    },
    {
      "midi": 52,
      "hit": false,
      "t": 129000.06450000053,
      "d": 55.55558333333465,
      "v": 68
    },
    {
      "midi": 55,
      "hit": false,
      "t": 129000.06450000053,
      "d": 61.11114166666812,
      "v": 68
    },
    {
      "midi": 43,
      "hit": false,
      "t": 129000.06450000085,
      "d": 505.55580833334534,
      "v": 65
    },
    {
      "midi": 67,
      "hit": false,
      "t": 129166.73125000036,
      "d": 55.55558333333465,
      "v": 60
    },
    {
      "midi": 67,
      "hit": false,
      "t": 129333.39800000036,
      "d": 77.77781666666851,
      "v": 54
    },
    {
      "midi": 55,
      "hit": false,
      "t": 129333.39800000054,
      "d": 422.2224333333288,
      "v": 63
    },
    {
      "midi": 52,
      "hit": false,
      "t": 129333.39800000054,
      "d": 444.44466666666267,
      "v": 63
    },
    {
      "midi": 31,
      "hit": false,
      "t": 129333.39800000086,
      "d": 433.3335500000103,
      "v": 59
    },
    {
      "midi": 67,
      "hit": false,
      "t": 129500.06475000037,
      "d": 61.11114166666812,
      "v": 48
    },
    {
      "midi": 67,
      "hit": false,
      "t": 129666.73150000037,
      "d": 38.88890833333426,
      "v": 42
    },
    {
      "midi": 60,
      "hit": false,
      "t": 129666.73150000053,
      "d": 38.88890833333426,
      "v": 62
    },
    {
      "midi": 58,
      "hit": false,
      "t": 129666.73150000053,
      "d": 44.44446666666772,
      "v": 62
    },
    {
      "midi": 43,
      "hit": false,
      "t": 129666.73150000087,
      "d": 77.77781666666851,
      "v": 61
    },
    {
      "midi": 67,
      "hit": false,
      "t": 129833.39825000038,
      "d": 38.88890833333426,
      "v": 37
    },
    {
      "midi": 52,
      "hit": false,
      "t": 129833.39825000054,
      "d": 355.5557333333418,
      "v": 68
    },
    {
      "midi": 55,
      "hit": false,
      "t": 129833.39825000054,
      "d": 355.5557333333418,
      "v": 58
    },
    {
      "midi": 43,
      "hit": false,
      "t": 129833.39825000087,
      "d": 288.8890333333402,
      "v": 54
    },
    {
      "midi": 67,
      "hit": false,
      "t": 130000.06500000038,
      "d": 38.88890833333426,
      "v": 31
    },
    {
      "midi": 60,
      "hit": false,
      "t": 130000.06500000054,
      "d": 44.44446666666772,
      "v": 60
    },
    {
      "midi": 58,
      "hit": false,
      "t": 130000.06500000054,
      "d": 88.88893333333544,
      "v": 60
    },
    {
      "midi": 31,
      "hit": false,
      "t": 130000.06500000088,
      "d": 277.77791666667326,
      "v": 72
    },
    {
      "midi": 67,
      "hit": false,
      "t": 130166.73175000038,
      "d": 33.33335000000079,
      "v": 26
    },
    {
      "midi": 43,
      "hit": false,
      "t": 130166.73175000088,
      "d": 533.3336000000127,
      "v": 63
    },
    {
      "midi": 67,
      "hit": false,
      "t": 130333.39850000039,
      "d": 44.44446666666772,
      "v": 28
    },
    {
      "midi": 52,
      "hit": false,
      "t": 130333.39850000055,
      "d": 194.44454166667128,
      "v": 56
    },
    {
      "midi": 55,
      "hit": false,
      "t": 130333.39850000055,
      "d": 216.66677500000515,
      "v": 56
    },
    {
      "midi": 31,
      "hit": false,
      "t": 130333.39850000088,
      "d": 188.88898333333782,
      "v": 52
    },
    {
      "midi": 67,
      "hit": false,
      "t": 130500.06525000039,
      "d": 44.44446666666772,
      "v": 28
    },
    {
      "midi": 67,
      "hit": false,
      "t": 130666.7320000004,
      "d": 38.88890833333426,
      "v": 33
    },
    {
      "midi": 39,
      "hit": false,
      "t": 130666.73200000056,
      "d": 1227.7783916666376,
      "v": 71
    },
    {
      "midi": 46,
      "hit": false,
      "t": 130666.73200000056,
      "d": 1244.4450666666235,
      "v": 65
    },
    {
      "midi": 31,
      "hit": false,
      "t": 130666.73200000089,
      "d": 538.8891583333025,
      "v": 68
    },
    {
      "midi": 67,
      "hit": false,
      "t": 130833.3987500004,
      "d": 44.44446666666772,
      "v": 39
    },
    {
      "midi": 67,
      "hit": false,
      "t": 131000.0655000004,
      "d": 38.88890833333426,
      "v": 44
    },
    {
      "midi": 55,
      "hit": false,
      "t": 131000.06550000055,
      "d": 50.00002500000119,
      "v": 63
    },
    {
      "midi": 51,
      "hit": false,
      "t": 131000.06550000055,
      "d": 61.11114166666812,
      "v": 63
    },
    {
      "midi": 43,
      "hit": false,
      "t": 131000.0655000009,
      "d": 72.2222583333205,
      "v": 58
    },
    {
      "midi": 67,
      "hit": false,
      "t": 131166.7322500004,
      "d": 33.33335000000079,
      "v": 49
    },
    {
      "midi": 43,
      "hit": false,
      "t": 131166.73225000087,
      "d": 444.4446666666481,
      "v": 53
    },
    {
      "midi": 67,
      "hit": false,
      "t": 131333.3990000004,
      "d": 38.888908333319705,
      "v": 55
    },
    {
      "midi": 55,
      "hit": false,
      "t": 131333.39900000056,
      "d": 411.11131666667643,
      "v": 68
    },
    {
      "midi": 51,
      "hit": false,
      "t": 131333.39900000056,
      "d": 450.00022499999614,
      "v": 65
    },
    {
      "midi": 31,
      "hit": false,
      "t": 131333.39900000085,
      "d": 644.444766666682,
      "v": 66
    },
    {
      "midi": 67,
      "hit": false,
      "t": 131500.0657500004,
      "d": 61.111141666653566,
      "v": 60
    },
    {
      "midi": 67,
      "hit": false,
      "t": 131666.73250000036,
      "d": 38.888908333319705,
      "v": 66
    },
    {
      "midi": 43,
      "hit": false,
      "t": 131666.73250000086,
      "d": 350.00017499999376,
      "v": 63
    },
    {
      "midi": 67,
      "hit": false,
      "t": 131833.39925000034,
      "d": 38.888908333319705,
      "v": 71
    },
    {
      "midi": 51,
      "hit": false,
      "t": 131833.39925000054,
      "d": 72.2222583333205,
      "v": 60
    },
    {
      "midi": 55,
      "hit": false,
      "t": 131833.39925000054,
      "d": 72.2222583333205,
      "v": 60
    },
    {
      "midi": 67,
      "hit": false,
      "t": 132000.0660000003,
      "d": 33.33335000000079,
      "v": 76
    },
    {
      "midi": 57,
      "hit": false,
      "t": 132000.06600000052,
      "d": 433.3335500000103,
      "v": 65
    },
    {
      "midi": 41,
      "hit": false,
      "t": 132000.06600000052,
      "d": 1205.5561583333183,
      "v": 60
    },
    {
      "midi": 48,
      "hit": false,
      "t": 132000.06600000052,
      "d": 1277.7784166666388,
      "v": 66
    },
    {
      "midi": 41,
      "hit": false,
      "t": 132000.06600000086,
      "d": 433.3335499999812,
      "v": 50
    },
    {
      "midi": 67,
      "hit": false,
      "t": 132166.73275000032,
      "d": 77.77781666666851,
      "v": 82
    },
    {
      "midi": 53,
      "hit": false,
      "t": 132166.73275000052,
      "d": 266.66680000000633,
      "v": 59
    },
    {
      "midi": 67,
      "hit": false,
      "t": 132333.39950000032,
      "d": 66.66670000000158,
      "v": 86
    },
    {
      "midi": 29,
      "hit": false,
      "t": 132333.39950000084,
      "d": 105.55560833332129,
      "v": 45
    },
    {
      "midi": 67,
      "hit": false,
      "t": 132500.06625000032,
      "d": 50.000024999986636,
      "v": 83
    },
    {
      "midi": 53,
      "hit": false,
      "t": 132500.06625000053,
      "d": 50.000024999986636,
      "v": 72
    },
    {
      "midi": 57,
      "hit": false,
      "t": 132500.06625000053,
      "d": 50.000024999986636,
      "v": 72
    },
    {
      "midi": 29,
      "hit": false,
      "t": 132500.06625000082,
      "d": 355.5557333333418,
      "v": 57
    },
    {
      "midi": 67,
      "hit": false,
      "t": 132666.7330000003,
      "d": 38.888908333319705,
      "v": 79
    },
    {
      "midi": 57,
      "hit": false,
      "t": 132666.7330000005,
      "d": 66.66670000000158,
      "v": 59
    },
    {
      "midi": 53,
      "hit": false,
      "t": 132666.7330000005,
      "d": 277.77791666667326,
      "v": 59
    },
    {
      "midi": 67,
      "hit": false,
      "t": 132833.39975000027,
      "d": 38.888908333319705,
      "v": 76
    },
    {
      "midi": 41,
      "hit": false,
      "t": 132833.39975000083,
      "d": 205.55565833332366,
      "v": 58
    },
    {
      "midi": 67,
      "hit": false,
      "t": 133000.06650000025,
      "d": 66.66670000000158,
      "v": 72
    },
    {
      "midi": 57,
      "hit": false,
      "t": 133000.0665000005,
      "d": 277.77791666664416,
      "v": 57
    },
    {
      "midi": 53,
      "hit": false,
      "t": 133000.0665000005,
      "d": 294.44459166663,
      "v": 57
    },
    {
      "midi": 29,
      "hit": false,
      "t": 133000.06650000083,
      "d": 283.3334749999631,
      "v": 67
    },
    {
      "midi": 67,
      "hit": false,
      "t": 133166.73325000025,
      "d": 77.77781666666851,
      "v": 69
    },
    {
      "midi": 41,
      "hit": false,
      "t": 133166.7332500008,
      "d": 183.3334249999607,
      "v": 50
    },
    {
      "midi": 67,
      "hit": false,
      "t": 133333.40000000026,
      "d": 38.888908333319705,
      "v": 66
    },
    {
      "midi": 43,
      "hit": false,
      "t": 133333.40000000046,
      "d": 1244.445066666638,
      "v": 71
    },
    {
      "midi": 38,
      "hit": false,
      "t": 133333.40000000046,
      "d": 1261.1117416666239,
      "v": 68
    },
    {
      "midi": 31,
      "hit": false,
      "t": 133333.40000000078,
      "d": 538.8891583333025,
      "v": 66
    },
    {
      "midi": 67,
      "hit": false,
      "t": 133500.06675000023,
      "d": 38.888908333319705,
      "v": 62
    },
    {
      "midi": 67,
      "hit": false,
      "t": 133666.7335000002,
      "d": 55.55558333333465,
      "v": 59
    },
    {
      "midi": 55,
      "hit": false,
      "t": 133666.73350000047,
      "d": 272.22235833332525,
      "v": 63
    },
    {
      "midi": 59,
      "hit": false,
      "t": 133666.73350000047,
      "d": 283.3334749999922,
      "v": 63
    },
    {
      "midi": 43,
      "hit": false,
      "t": 133666.73350000076,
      "d": 66.66670000000158,
      "v": 64
    },
    {
      "midi": 67,
      "hit": false,
      "t": 133833.4002500002,
      "d": 55.55558333333465,
      "v": 55
    },
    {
      "midi": 43,
      "hit": false,
      "t": 133833.40025000076,
      "d": 411.1113166666473,
      "v": 52
    },
    {
      "midi": 67,
      "hit": false,
      "t": 134000.0670000002,
      "d": 66.66670000000158,
      "v": 52
    },
    {
      "midi": 60,
      "hit": false,
      "t": 134000.06700000045,
      "d": 66.66670000000158,
      "v": 58
    },
    {
      "midi": 31,
      "hit": false,
      "t": 134000.06700000074,
      "d": 350.00017499999376,
      "v": 61
    },
    {
      "midi": 67,
      "hit": false,
      "t": 134166.73375000022,
      "d": 44.44446666666772,
      "v": 48
    },
    {
      "midi": 55,
      "hit": false,
      "t": 134166.73375000045,
      "d": 350.00017499999376,
      "v": 59
    },
    {
      "midi": 60,
      "hit": false,
      "t": 134166.73375000045,
      "d": 400.0001999999804,
      "v": 69
    },
    {
      "midi": 67,
      "hit": false,
      "t": 134333.40050000022,
      "d": 44.44446666666772,
      "v": 45
    },
    {
      "midi": 43,
      "hit": false,
      "t": 134333.40050000075,
      "d": 383.33352499996545,
      "v": 53
    },
    {
      "midi": 67,
      "hit": false,
      "t": 134500.06725000023,
      "d": 61.111141666653566,
      "v": 41
    },
    {
      "midi": 31,
      "hit": false,
      "t": 134500.06725000072,
      "d": 622.2225333332899,
      "v": 65
    },
    {
      "midi": 67,
      "hit": false,
      "t": 134666.7340000002,
      "d": 66.66670000000158,
      "v": 38
    },
    {
      "midi": 55,
      "hit": false,
      "t": 134666.7340000004,
      "d": 161.11119166665594,
      "v": 77
    },
    {
      "midi": 59,
      "hit": false,
      "t": 134666.7340000004,
      "d": 188.88898333330872,
      "v": 77
    },
    {
      "midi": 43,
      "hit": false,
      "t": 134666.7340000004,
      "d": 1033.3338499999954,
      "v": 77
    },
    {
      "midi": 38,
      "hit": false,
      "t": 134666.7340000004,
      "d": 1205.5561583332892,
      "v": 77
    },
    {
      "midi": 67,
      "hit": false,
      "t": 134833.4007500002,
      "d": 44.44446666666772,
      "v": 35
    },
    {
      "midi": 43,
      "hit": false,
      "t": 134833.4007500007,
      "d": 50.000024999986636,
      "v": 53
    },
    {
      "midi": 67,
      "hit": false,
      "t": 135000.0675000002,
      "d": 44.44446666666772,
      "v": 31
    },
    {
      "midi": 55,
      "hit": false,
      "t": 135000.06750000038,
      "d": 266.66680000000633,
      "v": 61
    },
    {
      "midi": 59,
      "hit": false,
      "t": 135000.06750000038,
      "d": 277.77791666667326,
      "v": 61
    },
    {
      "midi": 43,
      "hit": false,
      "t": 135000.06750000067,
      "d": 77.77781666666851,
      "v": 62
    },
    {
      "midi": 67,
      "hit": false,
      "t": 135166.7342500002,
      "d": 38.888908333319705,
      "v": 28
    },
    {
      "midi": 43,
      "hit": false,
      "t": 135166.73425000068,
      "d": 355.5557333333418,
      "v": 53
    },
    {
      "midi": 67,
      "hit": false,
      "t": 135333.4010000002,
      "d": 122.22228333333624,
      "v": 24
    },
    {
      "midi": 60,
      "hit": false,
      "t": 135333.4010000004,
      "d": 66.66670000000158,
      "v": 78
    },
    {
      "midi": 31,
      "hit": false,
      "t": 135333.40100000068,
      "d": 522.2224833333457,
      "v": 64
    },
    {
      "midi": 67,
      "hit": false,
      "t": 135500.06775000016,
      "d": 33.33335000000079,
      "v": 21
    },
    {
      "midi": 55,
      "hit": false,
      "t": 135500.0677500004,
      "d": 283.3334749999922,
      "v": 62
    },
    {
      "midi": 60,
      "hit": false,
      "t": 135500.0677500004,
      "d": 500.00024999995367,
      "v": 62
    },
    {
      "midi": 67,
      "hit": false,
      "t": 135666.73450000017,
      "d": 66.66670000000158,
      "v": 17
    },
    {
      "midi": 43,
      "hit": false,
      "t": 135666.7345000007,
      "d": 155.55563333333703,
      "v": 53
    },
    {
      "midi": 67,
      "hit": false,
      "t": 135833.40125000017,
      "d": 27.777791666652774,
      "v": 14
    },
    {
      "midi": 43,
      "hit": false,
      "t": 135833.40125000037,
      "d": 144.444516666641,
      "v": 63
    },
    {
      "midi": 55,
      "hit": false,
      "t": 136000.06800000035,
      "d": 216.6667749999906,
      "v": 62
    },
    {
      "midi": 59,
      "hit": false,
      "t": 136000.06800000035,
      "d": 216.6667749999906,
      "v": 62
    },
    {
      "midi": 43,
      "hit": false,
      "t": 136000.06800000035,
      "d": 2261.1122416665894,
      "v": 82
    },
    {
      "midi": 31,
      "hit": false,
      "t": 136000.0680000007,
      "d": 505.5558083333308,
      "v": 64
    },
    {
      "midi": 55,
      "hit": false,
      "t": 136333.40150000033,
      "d": 577.7780666666804,
      "v": 68
    },
    {
      "midi": 59,
      "hit": false,
      "t": 136333.40150000033,
      "d": 594.4447416666662,
      "v": 71
    },
    {
      "midi": 47,
      "hit": false,
      "t": 136333.40150000033,
      "d": 1911.1120666666247,
      "v": 64
    },
    {
      "midi": 43,
      "hit": false,
      "t": 136333.4015000007,
      "d": 55.55558333333465,
      "v": 51
    },
    {
      "midi": 43,
      "hit": false,
      "t": 136500.0682500007,
      "d": 427.77799166663317,
      "v": 62
    },
    {
      "midi": 31,
      "hit": false,
      "t": 136666.73500000068,
      "d": 505.5558083333017,
      "v": 65
    },
    {
      "midi": 60,
      "hit": false,
      "t": 137000.0685000003,
      "d": 111.1111666666693,
      "v": 77
    },
    {
      "midi": 55,
      "hit": false,
      "t": 137000.0685000003,
      "d": 138.88895833332208,
      "v": 68
    },
    {
      "midi": 43,
      "hit": false,
      "t": 137000.06850000066,
      "d": 488.88913333331584,
      "v": 52
    },
    {
      "midi": 55,
      "hit": false,
      "t": 137333.4020000003,
      "d": 344.44461666667485,
      "v": 69
    },
    {
      "midi": 60,
      "hit": false,
      "t": 137333.4020000003,
      "d": 405.5557583333284,
      "v": 69
    },
    {
      "midi": 31,
      "hit": false,
      "t": 137333.40200000064,
      "d": 505.5558083333308,
      "v": 68
    },
    {
      "midi": 43,
      "hit": false,
      "t": 137666.73550000065,
      "d": 66.66670000000158,
      "v": 55
    },
    {
      "midi": 59,
      "hit": false,
      "t": 137833.40225000028,
      "d": 466.666899999982,
      "v": 59
    },
    {
      "midi": 55,
      "hit": false,
      "t": 137833.40225000028,
      "d": 522.2224833332875,
      "v": 75
    },
    {
      "midi": 43,
      "hit": false,
      "t": 137833.40225000065,
      "d": 338.8890583332977,
      "v": 62
    },
    {
      "midi": 31,
      "hit": false,
      "t": 138166.73575000063,
      "d": 322.2223833333119,
      "v": 64
    },
    {
      "midi": 60,
      "hit": false,
      "t": 138333.40250000026,
      "d": 277.77791666664416,
      "v": 51
    },
    {
      "midi": 50,
      "hit": false,
      "t": 138333.40250000026,
      "d": 294.44459166663,
      "v": 51
    },
    {
      "midi": 43,
      "hit": false,
      "t": 138333.4025000006,
      "d": 427.7779916666623,
      "v": 56
    },
    {
      "midi": 43,
      "hit": false,
      "t": 138350.06917500024,
      "d": 194.44454166665673,
      "v": 55
    },
    {
      "midi": 43,
      "hit": false,
      "t": 138666.7360000002,
      "d": 2383.334524999984,
      "v": 65
    },
    {
      "midi": 48,
      "hit": false,
      "t": 138666.7360000002,
      "d": 2400.0011999999697,
      "v": 61
    },
    {
      "midi": 31,
      "hit": false,
      "t": 138666.73600000062,
      "d": 538.8891583332734,
      "v": 64
    },
    {
      "midi": 52,
      "hit": false,
      "t": 139000.06950000022,
      "d": 433.3335500000103,
      "v": 58
    },
    {
      "midi": 55,
      "hit": false,
      "t": 139000.06950000022,
      "d": 455.55578333334415,
      "v": 58
    },
    {
      "midi": 43,
      "hit": false,
      "t": 139000.0695000006,
      "d": 83.33337499998743,
      "v": 48
    },
    {
      "midi": 43,
      "hit": false,
      "t": 139166.73625000057,
      "d": 394.4446416666324,
      "v": 60
    },
    {
      "midi": 60,
      "hit": false,
      "t": 139333.40300000022,
      "d": 516.6669249999977,
      "v": 64
    },
    {
      "midi": 58,
      "hit": false,
      "t": 139333.40300000022,
      "d": 538.8891583333316,
      "v": 64
    },
    {
      "midi": 31,
      "hit": false,
      "t": 139333.40300000054,
      "d": 522.2224833333166,
      "v": 48
    },
    {
      "midi": 52,
      "hit": false,
      "t": 139666.73650000023,
      "d": 55.55558333333465,
      "v": 68
    },
    {
      "midi": 55,
      "hit": false,
      "t": 139666.73650000023,
      "d": 61.111141666653566,
      "v": 68
    },
    {
      "midi": 43,
      "hit": false,
      "t": 139666.73650000052,
      "d": 505.5558083333308,
      "v": 65
    },
    {
      "midi": 55,
      "hit": false,
      "t": 140000.0700000002,
      "d": 422.22243333331426,
      "v": 63
    },
    {
      "midi": 52,
      "hit": false,
      "t": 140000.0700000002,
      "d": 444.4446666666481,
      "v": 63
    },
    {
      "midi": 31,
      "hit": false,
      "t": 140000.07000000053,
      "d": 433.3335499999812,
      "v": 59
    },
    {
      "midi": 60,
      "hit": false,
      "t": 140333.40350000022,
      "d": 38.888908333319705,
      "v": 62
    },
    {
      "midi": 58,
      "hit": false,
      "t": 140333.40350000022,
      "d": 44.44446666663862,
      "v": 62
    },
    {
      "midi": 43,
      "hit": false,
      "t": 140333.4035000005,
      "d": 77.77781666666851,
      "v": 61
    },
    {
      "midi": 52,
      "hit": false,
      "t": 140500.0702500002,
      "d": 355.5557333333418,
      "v": 68
    },
    {
      "midi": 55,
      "hit": false,
      "t": 140500.0702500002,
      "d": 355.5557333333418,
      "v": 58
    },
    {
      "midi": 43,
      "hit": false,
      "t": 140500.0702500005,
      "d": 288.8890333333402,
      "v": 54
    },
    {
      "midi": 60,
      "hit": false,
      "t": 140666.7370000002,
      "d": 44.44446666666772,
      "v": 60
    },
    {
      "midi": 58,
      "hit": false,
      "t": 140666.7370000002,
      "d": 88.88893333333544,
      "v": 60
    },
    {
      "midi": 31,
      "hit": false,
      "t": 140666.73700000052,
      "d": 277.77791666667326,
      "v": 72
    },
    {
      "midi": 43,
      "hit": false,
      "t": 140833.40375000052,
      "d": 533.3336000000127,
      "v": 63
    },
    {
      "midi": 52,
      "hit": false,
      "t": 141000.0705000002,
      "d": 194.44454166662763,
      "v": 56
    },
    {
      "midi": 55,
      "hit": false,
      "t": 141000.0705000002,
      "d": 216.6667749999615,
      "v": 56
    },
    {
      "midi": 31,
      "hit": false,
      "t": 141000.07050000053,
      "d": 188.88898333333782,
      "v": 52
    },
    {
      "midi": 39,
      "hit": false,
      "t": 141333.40400000016,
      "d": 1227.778391666623,
      "v": 71
    },
    {
      "midi": 46,
      "hit": false,
      "t": 141333.40400000016,
      "d": 1244.445066666609,
      "v": 65
    },
    {
      "midi": 31,
      "hit": false,
      "t": 141333.40400000053,
      "d": 538.8891583333025,
      "v": 68
    },
    {
      "midi": 55,
      "hit": false,
      "t": 141666.73750000016,
      "d": 50.000024999986636,
      "v": 63
    },
    {
      "midi": 51,
      "hit": false,
      "t": 141666.73750000016,
      "d": 61.111141666653566,
      "v": 63
    },
    {
      "midi": 43,
      "hit": false,
      "t": 141666.73750000054,
      "d": 72.2222583333205,
      "v": 58
    },
    {
      "midi": 43,
      "hit": false,
      "t": 141833.40425000052,
      "d": 444.4446666666481,
      "v": 53
    },
    {
      "midi": 55,
      "hit": false,
      "t": 142000.07100000014,
      "d": 411.11131666667643,
      "v": 68
    },
    {
      "midi": 51,
      "hit": false,
      "t": 142000.07100000014,
      "d": 450.00022499999614,
      "v": 65
    },
    {
      "midi": 31,
      "hit": false,
      "t": 142000.0710000005,
      "d": 644.444766666682,
      "v": 66
    },
    {
      "midi": 43,
      "hit": false,
      "t": 142333.4045000005,
      "d": 350.00017499999376,
      "v": 63
    },
    {
      "midi": 51,
      "hit": false,
      "t": 142500.07125000012,
      "d": 72.2222583333205,
      "v": 60
    },
    {
      "midi": 55,
      "hit": false,
      "t": 142500.07125000012,
      "d": 72.2222583333205,
      "v": 60
    },
    {
      "midi": 57,
      "hit": false,
      "t": 142666.7380000001,
      "d": 433.3335500000103,
      "v": 65
    },
    {
      "midi": 41,
      "hit": false,
      "t": 142666.7380000001,
      "d": 1205.5561583333183,
      "v": 60
    },
    {
      "midi": 48,
      "hit": false,
      "t": 142666.7380000001,
      "d": 1277.7784166666388,
      "v": 66
    },
    {
      "midi": 41,
      "hit": false,
      "t": 142666.7380000005,
      "d": 433.3335499999812,
      "v": 50
    },
    {
      "midi": 53,
      "hit": false,
      "t": 142833.4047500001,
      "d": 266.66680000000633,
      "v": 59
    },
    {
      "midi": 29,
      "hit": false,
      "t": 143000.0715000005,
      "d": 105.55560833332129,
      "v": 45
    },
    {
      "midi": 53,
      "hit": false,
      "t": 143166.7382500001,
      "d": 50.000024999986636,
      "v": 72
    },
    {
      "midi": 57,
      "hit": false,
      "t": 143166.7382500001,
      "d": 50.000024999986636,
      "v": 72
    },
    {
      "midi": 29,
      "hit": false,
      "t": 143166.73825000046,
      "d": 355.5557333333418,
      "v": 57
    },
    {
      "midi": 57,
      "hit": false,
      "t": 143333.4050000001,
      "d": 66.66670000000158,
      "v": 59
    },
    {
      "midi": 53,
      "hit": false,
      "t": 143333.4050000001,
      "d": 277.77791666667326,
      "v": 59
    },
    {
      "midi": 41,
      "hit": false,
      "t": 143500.07175000047,
      "d": 205.55565833332366,
      "v": 58
    },
    {
      "midi": 57,
      "hit": false,
      "t": 143666.7385000001,
      "d": 277.77791666664416,
      "v": 57
    },
    {
      "midi": 53,
      "hit": false,
      "t": 143666.7385000001,
      "d": 294.44459166663,
      "v": 57
    },
    {
      "midi": 29,
      "hit": false,
      "t": 143666.73850000047,
      "d": 283.3334749999631,
      "v": 67
    },
    {
      "midi": 41,
      "hit": false,
      "t": 143833.40525000045,
      "d": 183.3334249999607,
      "v": 50
    },
    {
      "midi": 43,
      "hit": false,
      "t": 144000.07200000004,
      "d": 1244.445066666638,
      "v": 71
    },
    {
      "midi": 38,
      "hit": false,
      "t": 144000.07200000004,
      "d": 1261.1117416666239,
      "v": 68
    },
    {
      "midi": 31,
      "hit": false,
      "t": 144000.07200000042,
      "d": 538.8891583333025,
      "v": 66
    },
    {
      "midi": 55,
      "hit": false,
      "t": 144333.40550000005,
      "d": 272.22235833332525,
      "v": 63
    },
    {
      "midi": 59,
      "hit": false,
      "t": 144333.40550000005,
      "d": 283.3334749999922,
      "v": 63
    },
    {
      "midi": 43,
      "hit": false,
      "t": 144333.4055000004,
      "d": 66.66670000000158,
      "v": 64
    },
    {
      "midi": 43,
      "hit": false,
      "t": 144500.0722500004,
      "d": 411.1113166666473,
      "v": 52
    },
    {
      "midi": 60,
      "hit": false,
      "t": 144666.73900000003,
      "d": 66.66670000000158,
      "v": 58
    },
    {
      "midi": 31,
      "hit": false,
      "t": 144666.73900000038,
      "d": 350.00017499999376,
      "v": 61
    },
    {
      "midi": 55,
      "hit": false,
      "t": 144833.40575000003,
      "d": 350.00017499999376,
      "v": 59
    },
    {
      "midi": 60,
      "hit": false,
      "t": 144833.40575000003,
      "d": 400.0001999999804,
      "v": 69
    },
    {
      "midi": 43,
      "hit": false,
      "t": 145000.0725000004,
      "d": 383.33352499996545,
      "v": 53
    },
    {
      "midi": 31,
      "hit": false,
      "t": 145166.73925000036,
      "d": 622.2225333332899,
      "v": 65
    },
    {
      "midi": 55,
      "hit": false,
      "t": 145333.406,
      "d": 161.11119166665594,
      "v": 77
    },
    {
      "midi": 59,
      "hit": false,
      "t": 145333.406,
      "d": 188.88898333330872,
      "v": 77
    },
    {
      "midi": 43,
      "hit": false,
      "t": 145333.406,
      "d": 1033.3338499999954,
      "v": 77
    },
    {
      "midi": 38,
      "hit": false,
      "t": 145333.406,
      "d": 1205.5561583333183,
      "v": 77
    },
    {
      "midi": 43,
      "hit": false,
      "t": 145500.07275000034,
      "d": 50.000024999986636,
      "v": 53
    },
    {
      "midi": 55,
      "hit": false,
      "t": 145666.73949999997,
      "d": 266.66680000000633,
      "v": 61
    },
    {
      "midi": 59,
      "hit": false,
      "t": 145666.73949999997,
      "d": 277.77791666667326,
      "v": 61
    },
    {
      "midi": 43,
      "hit": false,
      "t": 145666.73950000032,
      "d": 77.77781666666851,
      "v": 62
    },
    {
      "midi": 43,
      "hit": false,
      "t": 145833.40625000032,
      "d": 355.5557333333418,
      "v": 53
    },
    {
      "midi": 60,
      "hit": false,
      "t": 146000.07299999997,
      "d": 66.66670000000158,
      "v": 78
    },
    {
      "midi": 31,
      "hit": false,
      "t": 146000.07300000032,
      "d": 522.2224833333457,
      "v": 64
    },
    {
      "midi": 55,
      "hit": false,
      "t": 146166.73974999998,
      "d": 450.00022499999614,
      "v": 62
    },
    {
      "midi": 60,
      "hit": false,
      "t": 146166.73974999998,
      "d": 466.666899999982,
      "v": 62
    },
    {
      "midi": 43,
      "hit": false,
      "t": 146333.40650000033,
      "d": 155.55563333333703,
      "v": 53
    },
    {
      "midi": 43,
      "hit": false,
      "t": 146500.07325,
      "d": 144.444516666641,
      "v": 63
    },
    {
      "midi": 31,
      "hit": false,
      "t": 146666.74000000034,
      "d": 322.222383333341,
      "v": 55
    },
    {
      "midi": 59,
      "hit": false,
      "t": 146677.8511166668,
      "d": 2000.0009999999893,
      "v": 55
    },
    {
      "midi": 62,
      "hit": false,
      "t": 146677.8511166668,
      "d": 2000.0009999999893,
      "v": 55
    },
    {
      "midi": 67,
      "hit": false,
      "t": 146677.8511166668,
      "d": 2011.1121166666562,
      "v": 55
    },
    {
      "midi": 43,
      "hit": false,
      "t": 147000.07350000035,
      "d": 183.3334249999898,
      "v": 55
    },
    {
      "midi": 31,
      "hit": false,
      "t": 147166.74025000035,
      "d": 333.3334999999788,
      "v": 55
    },
    {
      "midi": 55,
      "hit": false,
      "t": 147333.40699999995,
      "d": 516.6669249999977,
      "v": 59
    },
    {
      "midi": 62,
      "hit": false,
      "t": 147333.40699999995,
      "d": 566.6669499999844,
      "v": 59
    },
    {
      "midi": 59,
      "hit": false,
      "t": 147333.40699999995,
      "d": 577.7780666666513,
      "v": 59
    },
    {
      "midi": 43,
      "hit": false,
      "t": 147500.07375000033,
      "d": 133.33340000000317,
      "v": 55
    },
    {
      "midi": 31,
      "hit": false,
      "t": 147666.74050000033,
      "d": 166.66675000000396,
      "v": 55
    },
    {
      "midi": 43,
      "hit": false,
      "t": 147833.40725000034,
      "d": 127.77784166665515,
      "v": 55
    },
    {
      "midi": 55,
      "hit": false,
      "t": 148000.07399999994,
      "d": 505.5558083333308,
      "v": 77
    },
    {
      "midi": 62,
      "hit": false,
      "t": 148000.07399999994,
      "d": 511.1113666666497,
      "v": 77
    },
    {
      "midi": 59,
      "hit": false,
      "t": 148000.07399999994,
      "d": 550.0002749999694,
      "v": 77
    },
    {
      "midi": 31,
      "hit": false,
      "t": 148000.0740000003,
      "d": 333.3335000000079,
      "v": 55
    },
    {
      "midi": 43,
      "hit": false,
      "t": 148333.40750000032,
      "d": 200.00010000000475,
      "v": 55
    },
    {
      "midi": 31,
      "hit": false,
      "t": 148500.07425000033,
      "d": 327.7779416666599,
      "v": 55
    },
    {
      "midi": 55,
      "hit": false,
      "t": 148666.7409999999,
      "d": 622.222533333319,
      "v": 67
    },
    {
      "midi": 59,
      "hit": false,
      "t": 148666.7409999999,
      "d": 638.8892083333049,
      "v": 67
    },
    {
      "midi": 62,
      "hit": false,
      "t": 148666.7409999999,
      "d": 644.4447666666238,
      "v": 67
    },
    {
      "midi": 43,
      "hit": false,
      "t": 148833.4077500003,
      "d": 172.22230833332287,
      "v": 55
    },
    {
      "midi": 31,
      "hit": false,
      "t": 149000.0745000003,
      "d": 172.22230833329377,
      "v": 55
    },
    {
      "midi": 43,
      "hit": false,
      "t": 149166.74125000028,
      "d": 166.66674999997485,
      "v": 55
    },
    {
      "midi": 65,
      "hit": false,
      "t": 149333.4080000001,
      "d": 1888.88983333332,
      "v": 54
    },
    {
      "midi": 57,
      "hit": false,
      "t": 149333.4080000001,
      "d": 1944.4454166666546,
      "v": 54
    },
    {
      "midi": 60,
      "hit": false,
      "t": 149333.4080000001,
      "d": 2161.1121916666452,
      "v": 54
    },
    {
      "midi": 29,
      "hit": false,
      "t": 149333.40800000026,
      "d": 300.0001500000071,
      "v": 55
    },
    {
      "midi": 41,
      "hit": false,
      "t": 149666.74150000027,
      "d": 211.11121666667168,
      "v": 55
    },
    {
      "midi": 29,
      "hit": false,
      "t": 149833.40825000027,
      "d": 327.7779416666599,
      "v": 55
    },
    {
      "midi": 57,
      "hit": false,
      "t": 150000.07499999984,
      "d": 483.3335749999969,
      "v": 59
    },
    {
      "midi": 65,
      "hit": false,
      "t": 150000.07499999984,
      "d": 527.7780416666646,
      "v": 59
    },
    {
      "midi": 60,
      "hit": false,
      "t": 150000.07499999984,
      "d": 544.4447166666505,
      "v": 59
    },
    {
      "midi": 41,
      "hit": false,
      "t": 150166.74175000025,
      "d": 172.22230833332287,
      "v": 55
    },
    {
      "midi": 29,
      "hit": false,
      "t": 150333.40850000025,
      "d": 161.11119166665594,
      "v": 55
    },
    {
      "midi": 41,
      "hit": false,
      "t": 150500.07525000023,
      "d": 161.11119166665594,
      "v": 55
    },
    {
      "midi": 57,
      "hit": false,
      "t": 150666.74199999982,
      "d": 477.778016666678,
      "v": 74
    },
    {
      "midi": 65,
      "hit": false,
      "t": 150666.74199999982,
      "d": 488.88913333334494,
      "v": 74
    },
    {
      "midi": 60,
      "hit": false,
      "t": 150666.74199999982,
      "d": 500.0002500000119,
      "v": 74
    },
    {
      "midi": 29,
      "hit": false,
      "t": 150666.7420000002,
      "d": 361.1112916666607,
      "v": 55
    },
    {
      "midi": 41,
      "hit": false,
      "t": 151000.0755000002,
      "d": 194.44454166662763,
      "v": 55
    },
    {
      "midi": 29,
      "hit": false,
      "t": 151166.74225000018,
      "d": 361.1112916666316,
      "v": 55
    },
    {
      "midi": 65,
      "hit": false,
      "t": 151333.40899999984,
      "d": 488.88913333334494,
      "v": 67
    },
    {
      "midi": 57,
      "hit": false,
      "t": 151333.40899999984,
      "d": 500.0002500000119,
      "v": 67
    },
    {
      "midi": 60,
      "hit": false,
      "t": 151333.40899999984,
      "d": 583.3336249999993,
      "v": 67
    },
    {
      "midi": 41,
      "hit": false,
      "t": 151500.07575000016,
      "d": 172.22230833329377,
      "v": 55
    },
    {
      "midi": 29,
      "hit": false,
      "t": 151666.74250000014,
      "d": 183.3334249999607,
      "v": 55
    },
    {
      "midi": 41,
      "hit": false,
      "t": 151833.4092500001,
      "d": 183.3334249999898,
      "v": 55
    },
    {
      "midi": 55,
      "hit": false,
      "t": 152000.0760000001,
      "d": 1777.7786666666798,
      "v": 56
    },
    {
      "midi": 60,
      "hit": false,
      "t": 152000.0760000001,
      "d": 1788.8897833333467,
      "v": 56
    },
    {
      "midi": 64,
      "hit": false,
      "t": 152000.0760000001,
      "d": 1816.6675749999995,
      "v": 56
    },
    {
      "midi": 31,
      "hit": false,
      "t": 152005.63155833344,
      "d": 550.0002749999985,
      "v": 55
    },
    {
      "midi": 43,
      "hit": false,
      "t": 152500.0762500001,
      "d": 200.00010000000475,
      "v": 55
    },
    {
      "midi": 60,
      "hit": false,
      "t": 152666.74299999984,
      "d": 500.0002500000119,
      "v": 59
    },
    {
      "midi": 64,
      "hit": false,
      "t": 152666.74299999984,
      "d": 500.0002500000119,
      "v": 59
    },
    {
      "midi": 55,
      "hit": false,
      "t": 152666.74299999984,
      "d": 522.2224833333457,
      "v": 59
    },
    {
      "midi": 31,
      "hit": false,
      "t": 152666.7430000001,
      "d": 316.66682499999297,
      "v": 55
    },
    {
      "midi": 43,
      "hit": false,
      "t": 153000.07650000008,
      "d": 144.4445166666701,
      "v": 55
    },
    {
      "midi": 31,
      "hit": false,
      "t": 153000.07650000008,
      "d": 183.3334249999898,
      "v": 55
    },
    {
      "midi": 43,
      "hit": false,
      "t": 153166.7432500001,
      "d": 144.444516666641,
      "v": 55
    },
    {
      "midi": 60,
      "hit": false,
      "t": 153333.40999999986,
      "d": 466.6669000000111,
      "v": 76
    },
    {
      "midi": 64,
      "hit": false,
      "t": 153333.40999999986,
      "d": 472.22245833333,
      "v": 76
    },
    {
      "midi": 55,
      "hit": false,
      "t": 153333.40999999986,
      "d": 500.00024999998277,
      "v": 76
    },
    {
      "midi": 31,
      "hit": false,
      "t": 153333.41000000006,
      "d": 300.0001500000071,
      "v": 55
    },
    {
      "midi": 43,
      "hit": false,
      "t": 153666.74350000007,
      "d": 150.000074999989,
      "v": 55
    },
    {
      "midi": 31,
      "hit": false,
      "t": 153833.41025000004,
      "d": 311.11126666667406,
      "v": 55
    },
    {
      "midi": 60,
      "hit": false,
      "t": 154000.07699999984,
      "d": 455.55578333334415,
      "v": 69
    },
    {
      "midi": 64,
      "hit": false,
      "t": 154000.07699999984,
      "d": 477.778016666678,
      "v": 69
    },
    {
      "midi": 55,
      "hit": false,
      "t": 154000.07699999984,
      "d": 522.2224833333457,
      "v": 69
    },
    {
      "midi": 43,
      "hit": false,
      "t": 154166.74375000005,
      "d": 172.22230833332287,
      "v": 55
    },
    {
      "midi": 31,
      "hit": false,
      "t": 154333.41050000006,
      "d": 194.44454166662763,
      "v": 55
    },
    {
      "midi": 43,
      "hit": false,
      "t": 154500.07725000003,
      "d": 161.11119166665594,
      "v": 55
    },
    {
      "midi": 31,
      "hit": false,
      "t": 154666.744,
      "d": 361.1112916666607,
      "v": 55
    },
    {
      "midi": 62,
      "hit": false,
      "t": 154666.7440000001,
      "d": 2455.5567833333334,
      "v": 55
    },
    {
      "midi": 59,
      "hit": false,
      "t": 154666.7440000001,
      "d": 2461.1123416666524,
      "v": 55
    },
    {
      "midi": 67,
      "hit": false,
      "t": 154666.7440000001,
      "d": 2488.890133333305,
      "v": 55
    },
    {
      "midi": 43,
      "hit": false,
      "t": 155000.0775,
      "d": 172.22230833329377,
      "v": 55
    },
    {
      "midi": 31,
      "hit": false,
      "t": 155166.74425,
      "d": 338.8890583332977,
      "v": 55
    },
    {
      "midi": 55,
      "hit": false,
      "t": 155333.41099999985,
      "d": 450.00022499999614,
      "v": 59
    },
    {
      "midi": 59,
      "hit": false,
      "t": 155333.41099999985,
      "d": 450.00022499999614,
      "v": 59
    },
    {
      "midi": 62,
      "hit": false,
      "t": 155333.41099999985,
      "d": 466.666899999982,
      "v": 59
    },
    {
      "midi": 43,
      "hit": false,
      "t": 155500.07774999997,
      "d": 161.11119166665594,
      "v": 55
    },
    {
      "midi": 31,
      "hit": false,
      "t": 155666.74449999994,
      "d": 177.7778666666709,
      "v": 55
    },
    {
      "midi": 43,
      "hit": false,
      "t": 155833.41124999995,
      "d": 155.55563333333703,
      "v": 55
    },
    {
      "midi": 55,
      "hit": false,
      "t": 156000.07799999983,
      "d": 488.88913333334494,
      "v": 74
    },
    {
      "midi": 62,
      "hit": false,
      "t": 156000.07799999983,
      "d": 494.44469166666386,
      "v": 74
    },
    {
      "midi": 59,
      "hit": false,
      "t": 156000.07799999983,
      "d": 511.1113666666497,
      "v": 74
    },
    {
      "midi": 31,
      "hit": false,
      "t": 156000.07799999995,
      "d": 361.1112916666607,
      "v": 55
    },
    {
      "midi": 43,
      "hit": false,
      "t": 156333.41149999996,
      "d": 161.11119166665594,
      "v": 55
    },
    {
      "midi": 31,
      "hit": false,
      "t": 156500.07824999993,
      "d": 377.77796666667564,
      "v": 55
    },
    {
      "midi": 59,
      "hit": false,
      "t": 156666.74499999982,
      "d": 383.33352499999455,
      "v": 66
    },
    {
      "midi": 62,
      "hit": false,
      "t": 156666.74499999982,
      "d": 394.4446416666615,
      "v": 66
    },
    {
      "midi": 55,
      "hit": false,
      "t": 156666.74499999982,
      "d": 433.3335499999812,
      "v": 66
    },
    {
      "midi": 43,
      "hit": false,
      "t": 156833.41174999994,
      "d": 166.66675000000396,
      "v": 55
    },
    {
      "midi": 31,
      "hit": false,
      "t": 157000.07849999995,
      "d": 172.22230833332287,
      "v": 55
    },
    {
      "midi": 43,
      "hit": false,
      "t": 157166.74524999995,
      "d": 122.22228333330713,
      "v": 55
    },
    {
      "midi": 31,
      "hit": false,
      "t": 157333.41199999992,
      "d": 322.222383333341,
      "v": 55
    },
    {
      "midi": 59,
      "hit": false,
      "t": 157333.41200000007,
      "d": 2000.0009999999893,
      "v": 55
    },
    {
      "midi": 62,
      "hit": false,
      "t": 157333.41200000007,
      "d": 2000.0009999999893,
      "v": 55
    },
    {
      "midi": 67,
      "hit": false,
      "t": 157333.41200000007,
      "d": 2011.1121166666562,
      "v": 55
    },
    {
      "midi": 43,
      "hit": false,
      "t": 157666.74549999993,
      "d": 183.3334249999898,
      "v": 55
    },
    {
      "midi": 31,
      "hit": false,
      "t": 157833.41224999994,
      "d": 333.3334999999788,
      "v": 55
    },
    {
      "midi": 55,
      "hit": false,
      "t": 158000.0789999998,
      "d": 516.6669249999977,
      "v": 59
    },
    {
      "midi": 62,
      "hit": false,
      "t": 158000.0789999998,
      "d": 566.6669499999844,
      "v": 59
    },
    {
      "midi": 59,
      "hit": false,
      "t": 158000.0789999998,
      "d": 577.7780666666513,
      "v": 59
    },
    {
      "midi": 43,
      "hit": false,
      "t": 158166.7457499999,
      "d": 133.33340000000317,
      "v": 55
    },
    {
      "midi": 31,
      "hit": false,
      "t": 158333.41249999992,
      "d": 166.66675000000396,
      "v": 55
    },
    {
      "midi": 43,
      "hit": false,
      "t": 158500.07924999992,
      "d": 127.77784166665515,
      "v": 55
    },
    {
      "midi": 55,
      "hit": false,
      "t": 158666.74599999978,
      "d": 505.5558083333308,
      "v": 77
    },
    {
      "midi": 62,
      "hit": false,
      "t": 158666.74599999978,
      "d": 511.1113666666497,
      "v": 77
    },
    {
      "midi": 59,
      "hit": false,
      "t": 158666.74599999978,
      "d": 550.0002749999694,
      "v": 77
    },
    {
      "midi": 31,
      "hit": false,
      "t": 158666.7459999999,
      "d": 333.3335000000079,
      "v": 55
    },
    {
      "midi": 43,
      "hit": false,
      "t": 159000.0794999999,
      "d": 200.00010000000475,
      "v": 55
    },
    {
      "midi": 31,
      "hit": false,
      "t": 159166.7462499999,
      "d": 327.7779416666599,
      "v": 55
    },
    {
      "midi": 55,
      "hit": false,
      "t": 159333.41299999974,
      "d": 622.222533333319,
      "v": 67
    },
    {
      "midi": 59,
      "hit": false,
      "t": 159333.41299999974,
      "d": 638.8892083333049,
      "v": 67
    },
    {
      "midi": 62,
      "hit": false,
      "t": 159333.41299999974,
      "d": 644.4447666666238,
      "v": 67
    },
    {
      "midi": 43,
      "hit": false,
      "t": 159500.0797499999,
      "d": 172.22230833332287,
      "v": 55
    },
    {
      "midi": 31,
      "hit": false,
      "t": 159666.7464999999,
      "d": 172.22230833329377,
      "v": 55
    },
    {
      "midi": 43,
      "hit": false,
      "t": 159833.41324999987,
      "d": 166.66674999997485,
      "v": 55
    },
    {
      "midi": 29,
      "hit": false,
      "t": 160000.07999999984,
      "d": 300.0001500000071,
      "v": 55
    },
    {
      "midi": 65,
      "hit": false,
      "t": 160000.08000000005,
      "d": 1888.88983333332,
      "v": 54
    },
    {
      "midi": 57,
      "hit": false,
      "t": 160000.08000000005,
      "d": 1944.4454166666546,
      "v": 54
    },
    {
      "midi": 60,
      "hit": false,
      "t": 160000.08000000005,
      "d": 2161.1121916666452,
      "v": 54
    },
    {
      "midi": 41,
      "hit": false,
      "t": 160333.41349999985,
      "d": 211.11121666667168,
      "v": 55
    },
    {
      "midi": 29,
      "hit": false,
      "t": 160500.08024999985,
      "d": 327.7779416666599,
      "v": 55
    },
    {
      "midi": 57,
      "hit": false,
      "t": 160666.74699999968,
      "d": 483.3335749999969,
      "v": 59
    },
    {
      "midi": 65,
      "hit": false,
      "t": 160666.74699999968,
      "d": 527.7780416666646,
      "v": 59
    },
    {
      "midi": 60,
      "hit": false,
      "t": 160666.74699999968,
      "d": 544.4447166666505,
      "v": 59
    },
    {
      "midi": 41,
      "hit": false,
      "t": 160833.41374999983,
      "d": 172.22230833332287,
      "v": 55
    },
    {
      "midi": 29,
      "hit": false,
      "t": 161000.08049999984,
      "d": 161.11119166665594,
      "v": 55
    },
    {
      "midi": 41,
      "hit": false,
      "t": 161166.7472499998,
      "d": 161.11119166665594,
      "v": 55
    },
    {
      "midi": 57,
      "hit": false,
      "t": 161333.41399999967,
      "d": 477.778016666678,
      "v": 74
    },
    {
      "midi": 65,
      "hit": false,
      "t": 161333.41399999967,
      "d": 488.88913333334494,
      "v": 74
    },
    {
      "midi": 60,
      "hit": false,
      "t": 161333.41399999967,
      "d": 500.0002500000119,
      "v": 74
    },
    {
      "midi": 29,
      "hit": false,
      "t": 161333.4139999998,
      "d": 361.1112916666607,
      "v": 55
    },
    {
      "midi": 41,
      "hit": false,
      "t": 161666.7474999998,
      "d": 194.44454166662763,
      "v": 55
    },
    {
      "midi": 29,
      "hit": false,
      "t": 161833.41424999977,
      "d": 361.1112916666316,
      "v": 55
    },
    {
      "midi": 65,
      "hit": false,
      "t": 162000.08099999969,
      "d": 488.88913333334494,
      "v": 67
    },
    {
      "midi": 57,
      "hit": false,
      "t": 162000.08099999969,
      "d": 500.0002500000119,
      "v": 67
    },
    {
      "midi": 60,
      "hit": false,
      "t": 162000.08099999969,
      "d": 583.3336249999993,
      "v": 67
    },
    {
      "midi": 41,
      "hit": false,
      "t": 162166.74774999975,
      "d": 172.22230833329377,
      "v": 55
    },
    {
      "midi": 29,
      "hit": false,
      "t": 162333.41449999972,
      "d": 183.3334249999607,
      "v": 55
    },
    {
      "midi": 41,
      "hit": false,
      "t": 162500.0812499997,
      "d": 183.3334249999898,
      "v": 55
    },
    {
      "midi": 55,
      "hit": false,
      "t": 162666.74800000002,
      "d": 1777.7786666666798,
      "v": 56
    },
    {
      "midi": 60,
      "hit": false,
      "t": 162666.74800000002,
      "d": 1788.8897833333467,
      "v": 56
    },
    {
      "midi": 64,
      "hit": false,
      "t": 162666.74800000002,
      "d": 1816.6675749999995,
      "v": 56
    },
    {
      "midi": 31,
      "hit": false,
      "t": 162672.30355833302,
      "d": 550.0002749999985,
      "v": 55
    },
    {
      "midi": 43,
      "hit": false,
      "t": 163166.74824999968,
      "d": 200.00010000000475,
      "v": 55
    },
    {
      "midi": 31,
      "hit": false,
      "t": 163333.4149999997,
      "d": 316.66682499999297,
      "v": 55
    },
    {
      "midi": 60,
      "hit": false,
      "t": 163333.4149999997,
      "d": 500.0002500000119,
      "v": 59
    },
    {
      "midi": 64,
      "hit": false,
      "t": 163333.4149999997,
      "d": 500.0002500000119,
      "v": 59
    },
    {
      "midi": 55,
      "hit": false,
      "t": 163333.4149999997,
      "d": 522.2224833333457,
      "v": 59
    },
    {
      "midi": 43,
      "hit": false,
      "t": 163666.74849999967,
      "d": 144.4445166666701,
      "v": 55
    },
    {
      "midi": 31,
      "hit": false,
      "t": 163666.74849999967,
      "d": 183.3334249999898,
      "v": 55
    },
    {
      "midi": 43,
      "hit": false,
      "t": 163833.41524999967,
      "d": 144.444516666641,
      "v": 55
    },
    {
      "midi": 31,
      "hit": false,
      "t": 164000.08199999965,
      "d": 300.0001500000071,
      "v": 55
    },
    {
      "midi": 60,
      "hit": false,
      "t": 164000.0819999997,
      "d": 466.6669000000111,
      "v": 76
    },
    {
      "midi": 64,
      "hit": false,
      "t": 164000.0819999997,
      "d": 472.22245833333,
      "v": 76
    },
    {
      "midi": 55,
      "hit": false,
      "t": 164000.0819999997,
      "d": 500.00024999998277,
      "v": 76
    },
    {
      "midi": 43,
      "hit": false,
      "t": 164333.41549999965,
      "d": 150.000074999989,
      "v": 55
    },
    {
      "midi": 31,
      "hit": false,
      "t": 164500.08224999963,
      "d": 311.11126666667406,
      "v": 55
    },
    {
      "midi": 60,
      "hit": false,
      "t": 164666.7489999997,
      "d": 455.55578333334415,
      "v": 69
    },
    {
      "midi": 64,
      "hit": false,
      "t": 164666.7489999997,
      "d": 477.778016666678,
      "v": 69
    },
    {
      "midi": 55,
      "hit": false,
      "t": 164666.7489999997,
      "d": 522.2224833333457,
      "v": 69
    },
    {
      "midi": 43,
      "hit": false,
      "t": 164833.41574999964,
      "d": 172.22230833332287,
      "v": 55
    },
    {
      "midi": 31,
      "hit": false,
      "t": 165000.08249999964,
      "d": 194.44454166662763,
      "v": 55
    },
    {
      "midi": 43,
      "hit": false,
      "t": 165166.74924999962,
      "d": 161.11119166665594,
      "v": 55
    },
    {
      "midi": 31,
      "hit": false,
      "t": 165333.4159999996,
      "d": 361.1112916666607,
      "v": 55
    },
    {
      "midi": 62,
      "hit": false,
      "t": 165333.41600000003,
      "d": 2455.5567833333334,
      "v": 55
    },
    {
      "midi": 59,
      "hit": false,
      "t": 165333.41600000003,
      "d": 2461.1123416666524,
      "v": 55
    },
    {
      "midi": 67,
      "hit": false,
      "t": 165333.41600000003,
      "d": 2488.890133333305,
      "v": 55
    },
    {
      "midi": 43,
      "hit": false,
      "t": 165666.7494999996,
      "d": 172.22230833329377,
      "v": 55
    },
    {
      "midi": 31,
      "hit": false,
      "t": 165833.41624999957,
      "d": 338.8890583332977,
      "v": 55
    },
    {
      "midi": 55,
      "hit": false,
      "t": 166000.0829999997,
      "d": 450.00022499999614,
      "v": 59
    },
    {
      "midi": 59,
      "hit": false,
      "t": 166000.0829999997,
      "d": 450.00022499999614,
      "v": 59
    },
    {
      "midi": 62,
      "hit": false,
      "t": 166000.0829999997,
      "d": 466.666899999982,
      "v": 59
    },
    {
      "midi": 43,
      "hit": false,
      "t": 166166.74974999955,
      "d": 161.11119166665594,
      "v": 55
    },
    {
      "midi": 31,
      "hit": false,
      "t": 166333.41649999953,
      "d": 177.7778666666709,
      "v": 55
    },
    {
      "midi": 43,
      "hit": false,
      "t": 166500.08324999953,
      "d": 155.55563333333703,
      "v": 55
    },
    {
      "midi": 31,
      "hit": false,
      "t": 166666.74999999953,
      "d": 361.1112916666607,
      "v": 55
    },
    {
      "midi": 55,
      "hit": false,
      "t": 166666.74999999968,
      "d": 488.88913333334494,
      "v": 74
    },
    {
      "midi": 62,
      "hit": false,
      "t": 166666.74999999968,
      "d": 494.44469166666386,
      "v": 74
    },
    {
      "midi": 59,
      "hit": false,
      "t": 166666.74999999968,
      "d": 511.1113666666497,
      "v": 74
    },
    {
      "midi": 43,
      "hit": false,
      "t": 167000.08349999954,
      "d": 161.11119166665594,
      "v": 55
    },
    {
      "midi": 31,
      "hit": false,
      "t": 167166.75024999952,
      "d": 377.77796666667564,
      "v": 55
    },
    {
      "midi": 59,
      "hit": false,
      "t": 167333.41699999967,
      "d": 383.33352499999455,
      "v": 66
    },
    {
      "midi": 62,
      "hit": false,
      "t": 167333.41699999967,
      "d": 394.4446416666615,
      "v": 66
    },
    {
      "midi": 55,
      "hit": false,
      "t": 167333.41699999967,
      "d": 433.3335499999812,
      "v": 66
    },
    {
      "midi": 43,
      "hit": false,
      "t": 167500.08374999953,
      "d": 166.66675000000396,
      "v": 55
    },
    {
      "midi": 31,
      "hit": false,
      "t": 167666.75049999953,
      "d": 172.22230833332287,
      "v": 55
    },
    {
      "midi": 43,
      "hit": false,
      "t": 167833.41724999953,
      "d": 122.22228333330713,
      "v": 55
    },
    {
      "midi": 31,
      "hit": false,
      "t": 168000.0839999995,
      "d": 322.222383333341,
      "v": 55
    },
    {
      "midi": 59,
      "hit": false,
      "t": 168011.19511666664,
      "d": 2000.0009999999893,
      "v": 55
    },
    {
      "midi": 62,
      "hit": false,
      "t": 168011.19511666664,
      "d": 2000.0009999999893,
      "v": 55
    },
    {
      "midi": 67,
      "hit": false,
      "t": 168011.19511666664,
      "d": 2011.1121166666562,
      "v": 55
    },
    {
      "midi": 43,
      "hit": false,
      "t": 168333.41749999952,
      "d": 183.3334249999898,
      "v": 55
    },
    {
      "midi": 31,
      "hit": false,
      "t": 168500.08424999952,
      "d": 333.3334999999788,
      "v": 55
    },
    {
      "midi": 55,
      "hit": false,
      "t": 168666.75099999964,
      "d": 516.6669249999977,
      "v": 59
    },
    {
      "midi": 62,
      "hit": false,
      "t": 168666.75099999964,
      "d": 566.6669499999844,
      "v": 59
    },
    {
      "midi": 59,
      "hit": false,
      "t": 168666.75099999964,
      "d": 577.7780666666513,
      "v": 59
    },
    {
      "midi": 43,
      "hit": false,
      "t": 168833.4177499995,
      "d": 133.33340000000317,
      "v": 55
    },
    {
      "midi": 31,
      "hit": false,
      "t": 169000.0844999995,
      "d": 166.66675000000396,
      "v": 55
    },
    {
      "midi": 43,
      "hit": false,
      "t": 169166.7512499995,
      "d": 127.77784166665515,
      "v": 55
    },
    {
      "midi": 31,
      "hit": false,
      "t": 169333.41799999948,
      "d": 333.3335000000079,
      "v": 55
    },
    {
      "midi": 55,
      "hit": false,
      "t": 169333.41799999963,
      "d": 505.5558083333308,
      "v": 77
    },
    {
      "midi": 62,
      "hit": false,
      "t": 169333.41799999963,
      "d": 511.1113666666497,
      "v": 77
    },
    {
      "midi": 59,
      "hit": false,
      "t": 169333.41799999963,
      "d": 550.0002749999694,
      "v": 77
    },
    {
      "midi": 43,
      "hit": false,
      "t": 169666.7514999995,
      "d": 200.00010000000475,
      "v": 55
    },
    {
      "midi": 31,
      "hit": false,
      "t": 169833.4182499995,
      "d": 327.7779416666599,
      "v": 55
    },
    {
      "midi": 55,
      "hit": false,
      "t": 170000.08499999958,
      "d": 622.222533333319,
      "v": 67
    },
    {
      "midi": 59,
      "hit": false,
      "t": 170000.08499999958,
      "d": 638.8892083333049,
      "v": 67
    },
    {
      "midi": 62,
      "hit": false,
      "t": 170000.08499999958,
      "d": 644.4447666666238,
      "v": 67
    },
    {
      "midi": 43,
      "hit": false,
      "t": 170166.75174999947,
      "d": 172.22230833332287,
      "v": 55
    },
    {
      "midi": 31,
      "hit": false,
      "t": 170333.41849999948,
      "d": 172.22230833329377,
      "v": 55
    },
    {
      "midi": 43,
      "hit": false,
      "t": 170500.08524999945,
      "d": 166.66674999997485,
      "v": 55
    },
    {
      "midi": 29,
      "hit": false,
      "t": 170666.75199999943,
      "d": 300.0001500000071,
      "v": 55
    },
    {
      "midi": 65,
      "hit": false,
      "t": 170666.75199999995,
      "d": 1888.88983333332,
      "v": 54
    },
    {
      "midi": 57,
      "hit": false,
      "t": 170666.75199999995,
      "d": 1944.4454166666546,
      "v": 54
    },
    {
      "midi": 60,
      "hit": false,
      "t": 170666.75199999995,
      "d": 2161.1121916666452,
      "v": 54
    },
    {
      "midi": 41,
      "hit": false,
      "t": 171000.08549999943,
      "d": 211.11121666667168,
      "v": 55
    },
    {
      "midi": 29,
      "hit": false,
      "t": 171166.75224999944,
      "d": 327.7779416666599,
      "v": 55
    },
    {
      "midi": 57,
      "hit": false,
      "t": 171333.41899999953,
      "d": 483.3335749999969,
      "v": 59
    },
    {
      "midi": 65,
      "hit": false,
      "t": 171333.41899999953,
      "d": 527.7780416666646,
      "v": 59
    },
    {
      "midi": 60,
      "hit": false,
      "t": 171333.41899999953,
      "d": 544.4447166666505,
      "v": 59
    },
    {
      "midi": 41,
      "hit": false,
      "t": 171500.08574999942,
      "d": 172.22230833332287,
      "v": 55
    },
    {
      "midi": 29,
      "hit": false,
      "t": 171666.75249999942,
      "d": 161.11119166665594,
      "v": 55
    },
    {
      "midi": 41,
      "hit": false,
      "t": 171833.4192499994,
      "d": 161.11119166665594,
      "v": 55
    },
    {
      "midi": 29,
      "hit": false,
      "t": 172000.08599999937,
      "d": 361.1112916666607,
      "v": 55
    },
    {
      "midi": 57,
      "hit": false,
      "t": 172000.08599999952,
      "d": 477.778016666678,
      "v": 74
    },
    {
      "midi": 65,
      "hit": false,
      "t": 172000.08599999952,
      "d": 488.88913333334494,
      "v": 74
    },
    {
      "midi": 60,
      "hit": false,
      "t": 172000.08599999952,
      "d": 500.0002500000119,
      "v": 74
    },
    {
      "midi": 41,
      "hit": false,
      "t": 172333.41949999938,
      "d": 194.44454166662763,
      "v": 55
    },
    {
      "midi": 29,
      "hit": false,
      "t": 172500.08624999935,
      "d": 361.1112916666316,
      "v": 55
    },
    {
      "midi": 65,
      "hit": false,
      "t": 172666.75299999953,
      "d": 488.88913333334494,
      "v": 67
    },
    {
      "midi": 57,
      "hit": false,
      "t": 172666.75299999953,
      "d": 500.0002500000119,
      "v": 67
    },
    {
      "midi": 60,
      "hit": false,
      "t": 172666.75299999953,
      "d": 583.3336249999993,
      "v": 67
    },
    {
      "midi": 41,
      "hit": false,
      "t": 172833.41974999933,
      "d": 172.22230833329377,
      "v": 55
    },
    {
      "midi": 29,
      "hit": false,
      "t": 173000.0864999993,
      "d": 183.3334249999607,
      "v": 55
    },
    {
      "midi": 41,
      "hit": false,
      "t": 173166.75324999928,
      "d": 183.3334249999898,
      "v": 55
    },
    {
      "midi": 55,
      "hit": false,
      "t": 173333.41999999993,
      "d": 1777.7786666666798,
      "v": 56
    },
    {
      "midi": 60,
      "hit": false,
      "t": 173333.41999999993,
      "d": 1788.8897833333467,
      "v": 56
    },
    {
      "midi": 64,
      "hit": false,
      "t": 173333.41999999993,
      "d": 1816.6675749999995,
      "v": 56
    },
    {
      "midi": 31,
      "hit": false,
      "t": 173338.9755583326,
      "d": 550.0002749999985,
      "v": 55
    },
    {
      "midi": 43,
      "hit": false,
      "t": 173833.42024999927,
      "d": 200.00010000000475,
      "v": 55
    },
    {
      "midi": 31,
      "hit": false,
      "t": 174000.08699999927,
      "d": 316.66682499999297,
      "v": 55
    },
    {
      "midi": 60,
      "hit": false,
      "t": 174000.08699999953,
      "d": 500.0002500000119,
      "v": 59
    },
    {
      "midi": 64,
      "hit": false,
      "t": 174000.08699999953,
      "d": 500.0002500000119,
      "v": 59
    },
    {
      "midi": 55,
      "hit": false,
      "t": 174000.08699999953,
      "d": 522.2224833333457,
      "v": 59
    },
    {
      "midi": 43,
      "hit": false,
      "t": 174333.42049999925,
      "d": 144.4445166666701,
      "v": 55
    },
    {
      "midi": 31,
      "hit": false,
      "t": 174333.42049999925,
      "d": 183.3334249999898,
      "v": 55
    },
    {
      "midi": 43,
      "hit": false,
      "t": 174500.08724999925,
      "d": 144.444516666641,
      "v": 55
    },
    {
      "midi": 31,
      "hit": false,
      "t": 174666.75399999923,
      "d": 300.0001500000071,
      "v": 55
    },
    {
      "midi": 60,
      "hit": false,
      "t": 174666.75399999955,
      "d": 466.6669000000111,
      "v": 76
    },
    {
      "midi": 64,
      "hit": false,
      "t": 174666.75399999955,
      "d": 472.22245833333,
      "v": 76
    },
    {
      "midi": 55,
      "hit": false,
      "t": 174666.75399999955,
      "d": 500.00024999998277,
      "v": 76
    },
    {
      "midi": 43,
      "hit": false,
      "t": 175000.08749999924,
      "d": 150.000074999989,
      "v": 55
    },
    {
      "midi": 31,
      "hit": false,
      "t": 175166.7542499992,
      "d": 311.11126666667406,
      "v": 55
    },
    {
      "midi": 60,
      "hit": false,
      "t": 175333.42099999954,
      "d": 455.55578333334415,
      "v": 69
    },
    {
      "midi": 64,
      "hit": false,
      "t": 175333.42099999954,
      "d": 477.778016666678,
      "v": 69
    },
    {
      "midi": 55,
      "hit": false,
      "t": 175333.42099999954,
      "d": 522.2224833333457,
      "v": 69
    },
    {
      "midi": 43,
      "hit": false,
      "t": 175500.08774999922,
      "d": 172.22230833332287,
      "v": 55
    },
    {
      "midi": 31,
      "hit": false,
      "t": 175666.75449999922,
      "d": 194.44454166662763,
      "v": 55
    },
    {
      "midi": 43,
      "hit": false,
      "t": 175833.4212499992,
      "d": 161.11119166665594,
      "v": 55
    },
    {
      "midi": 31,
      "hit": false,
      "t": 176000.08799999917,
      "d": 361.1112916666607,
      "v": 55
    },
    {
      "midi": 62,
      "hit": false,
      "t": 176000.08799999993,
      "d": 2455.5567833333334,
      "v": 55
    },
    {
      "midi": 59,
      "hit": false,
      "t": 176000.08799999993,
      "d": 2461.1123416666524,
      "v": 55
    },
    {
      "midi": 67,
      "hit": false,
      "t": 176000.08799999993,
      "d": 2488.890133333305,
      "v": 55
    },
    {
      "midi": 43,
      "hit": false,
      "t": 176333.42149999918,
      "d": 172.22230833329377,
      "v": 55
    },
    {
      "midi": 31,
      "hit": false,
      "t": 176500.08824999916,
      "d": 338.8890583332977,
      "v": 55
    },
    {
      "midi": 55,
      "hit": false,
      "t": 176666.75499999954,
      "d": 450.00022499999614,
      "v": 59
    },
    {
      "midi": 59,
      "hit": false,
      "t": 176666.75499999954,
      "d": 450.00022499999614,
      "v": 59
    },
    {
      "midi": 62,
      "hit": false,
      "t": 176666.75499999954,
      "d": 466.666899999982,
      "v": 59
    },
    {
      "midi": 43,
      "hit": false,
      "t": 176833.42174999914,
      "d": 161.11119166665594,
      "v": 55
    },
    {
      "midi": 31,
      "hit": false,
      "t": 177000.0884999991,
      "d": 177.7778666666709,
      "v": 55
    },
    {
      "midi": 43,
      "hit": false,
      "t": 177166.7552499991,
      "d": 155.55563333333703,
      "v": 55
    },
    {
      "midi": 31,
      "hit": false,
      "t": 177333.42199999912,
      "d": 361.1112916666607,
      "v": 55
    },
    {
      "midi": 55,
      "hit": false,
      "t": 177333.42199999953,
      "d": 488.88913333334494,
      "v": 74
    },
    {
      "midi": 62,
      "hit": false,
      "t": 177333.42199999953,
      "d": 494.44469166666386,
      "v": 74
    },
    {
      "midi": 59,
      "hit": false,
      "t": 177333.42199999953,
      "d": 511.1113666666497,
      "v": 74
    },
    {
      "midi": 43,
      "hit": false,
      "t": 177666.75549999913,
      "d": 161.11119166665594,
      "v": 55
    },
    {
      "midi": 31,
      "hit": false,
      "t": 177833.4222499991,
      "d": 377.77796666667564,
      "v": 55
    },
    {
      "midi": 59,
      "hit": false,
      "t": 178000.0889999995,
      "d": 383.33352499999455,
      "v": 66
    },
    {
      "midi": 62,
      "hit": false,
      "t": 178000.0889999995,
      "d": 394.4446416666615,
      "v": 66
    },
    {
      "midi": 55,
      "hit": false,
      "t": 178000.0889999995,
      "d": 433.3335499999812,
      "v": 66
    },
    {
      "midi": 43,
      "hit": false,
      "t": 178166.7557499991,
      "d": 166.66675000000396,
      "v": 55
    },
    {
      "midi": 31,
      "hit": false,
      "t": 178333.4224999991,
      "d": 172.22230833332287,
      "v": 55
    },
    {
      "midi": 43,
      "hit": false,
      "t": 178500.08924999912,
      "d": 122.22228333330713,
      "v": 55
    },
    {
      "midi": 31,
      "hit": false,
      "t": 178666.7559999991,
      "d": 322.222383333341,
      "v": 55
    },
    {
      "midi": 59,
      "hit": false,
      "t": 178666.7559999999,
      "d": 2000.0009999999893,
      "v": 55
    },
    {
      "midi": 62,
      "hit": false,
      "t": 178666.7559999999,
      "d": 2000.0009999999893,
      "v": 55
    },
    {
      "midi": 67,
      "hit": false,
      "t": 178666.7559999999,
      "d": 2011.1121166666562,
      "v": 55
    },
    {
      "midi": 43,
      "hit": false,
      "t": 179000.0894999991,
      "d": 183.3334249999898,
      "v": 55
    },
    {
      "midi": 31,
      "hit": false,
      "t": 179166.7562499991,
      "d": 333.3334999999788,
      "v": 55
    },
    {
      "midi": 55,
      "hit": false,
      "t": 179333.4229999995,
      "d": 516.6669249999977,
      "v": 59
    },
    {
      "midi": 62,
      "hit": false,
      "t": 179333.4229999995,
      "d": 566.6669499999844,
      "v": 59
    },
    {
      "midi": 59,
      "hit": false,
      "t": 179333.4229999995,
      "d": 577.7780666666513,
      "v": 59
    },
    {
      "midi": 43,
      "hit": false,
      "t": 179500.08974999908,
      "d": 133.33340000000317,
      "v": 55
    },
    {
      "midi": 31,
      "hit": false,
      "t": 179666.7564999991,
      "d": 166.66675000000396,
      "v": 55
    },
    {
      "midi": 43,
      "hit": false,
      "t": 179833.4232499991,
      "d": 127.77784166665515,
      "v": 55
    },
    {
      "midi": 31,
      "hit": false,
      "t": 180000.08999999907,
      "d": 333.3335000000079,
      "v": 55
    },
    {
      "midi": 55,
      "hit": false,
      "t": 180000.08999999947,
      "d": 505.5558083333308,
      "v": 77
    },
    {
      "midi": 62,
      "hit": false,
      "t": 180000.08999999947,
      "d": 511.1113666666497,
      "v": 77
    },
    {
      "midi": 59,
      "hit": false,
      "t": 180000.08999999947,
      "d": 550.0002749999694,
      "v": 77
    },
    {
      "midi": 43,
      "hit": false,
      "t": 180333.42349999907,
      "d": 200.00010000000475,
      "v": 55
    },
    {
      "midi": 31,
      "hit": false,
      "t": 180500.09024999908,
      "d": 327.7779416666599,
      "v": 55
    },
    {
      "midi": 55,
      "hit": false,
      "t": 180666.75699999943,
      "d": 622.222533333319,
      "v": 67
    },
    {
      "midi": 59,
      "hit": false,
      "t": 180666.75699999943,
      "d": 638.8892083333049,
      "v": 67
    },
    {
      "midi": 62,
      "hit": false,
      "t": 180666.75699999943,
      "d": 644.4447666666238,
      "v": 67
    },
    {
      "midi": 43,
      "hit": false,
      "t": 180833.42374999906,
      "d": 172.22230833332287,
      "v": 55
    },
    {
      "midi": 31,
      "hit": false,
      "t": 181000.09049999906,
      "d": 172.22230833329377,
      "v": 55
    },
    {
      "midi": 43,
      "hit": false,
      "t": 181166.75724999903,
      "d": 166.66674999997485,
      "v": 55
    },
    {
      "midi": 29,
      "hit": false,
      "t": 181333.423999999,
      "d": 300.0001500000071,
      "v": 55
    },
    {
      "midi": 65,
      "hit": false,
      "t": 181333.42399999988,
      "d": 1888.88983333332,
      "v": 54
    },
    {
      "midi": 57,
      "hit": false,
      "t": 181333.42399999988,
      "d": 1944.4454166666546,
      "v": 54
    },
    {
      "midi": 60,
      "hit": false,
      "t": 181333.42399999988,
      "d": 2161.1121916666452,
      "v": 54
    },
    {
      "midi": 41,
      "hit": false,
      "t": 181666.75749999902,
      "d": 211.11121666667168,
      "v": 55
    },
    {
      "midi": 29,
      "hit": false,
      "t": 181833.42424999902,
      "d": 327.7779416666599,
      "v": 55
    },
    {
      "midi": 57,
      "hit": false,
      "t": 182000.09099999937,
      "d": 483.3335749999969,
      "v": 59
    },
    {
      "midi": 65,
      "hit": false,
      "t": 182000.09099999937,
      "d": 527.7780416666646,
      "v": 59
    },
    {
      "midi": 60,
      "hit": false,
      "t": 182000.09099999937,
      "d": 544.4447166666505,
      "v": 59
    },
    {
      "midi": 41,
      "hit": false,
      "t": 182166.757749999,
      "d": 172.22230833332287,
      "v": 55
    },
    {
      "midi": 29,
      "hit": false,
      "t": 182333.424499999,
      "d": 161.11119166665594,
      "v": 55
    },
    {
      "midi": 41,
      "hit": false,
      "t": 182500.09124999898,
      "d": 161.11119166665594,
      "v": 55
    },
    {
      "midi": 29,
      "hit": false,
      "t": 182666.75799999895,
      "d": 361.1112916666607,
      "v": 55
    },
    {
      "midi": 57,
      "hit": false,
      "t": 182666.75799999936,
      "d": 477.778016666678,
      "v": 74
    },
    {
      "midi": 65,
      "hit": false,
      "t": 182666.75799999936,
      "d": 488.88913333334494,
      "v": 74
    },
    {
      "midi": 60,
      "hit": false,
      "t": 182666.75799999936,
      "d": 500.0002500000119,
      "v": 74
    },
    {
      "midi": 41,
      "hit": false,
      "t": 183000.09149999896,
      "d": 194.44454166662763,
      "v": 55
    },
    {
      "midi": 29,
      "hit": false,
      "t": 183166.75824999894,
      "d": 361.1112916666316,
      "v": 55
    },
    {
      "midi": 65,
      "hit": false,
      "t": 183333.42499999938,
      "d": 488.88913333334494,
      "v": 67
    },
    {
      "midi": 57,
      "hit": false,
      "t": 183333.42499999938,
      "d": 500.0002500000119,
      "v": 67
    },
    {
      "midi": 60,
      "hit": false,
      "t": 183333.42499999938,
      "d": 583.3336249999993,
      "v": 67
    },
    {
      "midi": 41,
      "hit": false,
      "t": 183500.09174999892,
      "d": 172.22230833329377,
      "v": 55
    },
    {
      "midi": 29,
      "hit": false,
      "t": 183666.7584999989,
      "d": 183.3334249999607,
      "v": 55
    },
    {
      "midi": 41,
      "hit": false,
      "t": 183833.42524999887,
      "d": 183.3334249999898,
      "v": 55
    },
    {
      "midi": 55,
      "hit": false,
      "t": 184000.09199999986,
      "d": 1777.7786666666798,
      "v": 56
    },
    {
      "midi": 60,
      "hit": false,
      "t": 184000.09199999986,
      "d": 1788.8897833333467,
      "v": 56
    },
    {
      "midi": 64,
      "hit": false,
      "t": 184000.09199999986,
      "d": 1816.6675749999995,
      "v": 56
    },
    {
      "midi": 31,
      "hit": false,
      "t": 184005.6475583322,
      "d": 550.0002749999985,
      "v": 55
    },
    {
      "midi": 43,
      "hit": false,
      "t": 184500.09224999885,
      "d": 200.00010000000475,
      "v": 55
    },
    {
      "midi": 31,
      "hit": false,
      "t": 184666.75899999886,
      "d": 316.66682499999297,
      "v": 55
    },
    {
      "midi": 60,
      "hit": false,
      "t": 184666.75899999938,
      "d": 500.0002500000119,
      "v": 59
    },
    {
      "midi": 64,
      "hit": false,
      "t": 184666.75899999938,
      "d": 500.0002500000119,
      "v": 59
    },
    {
      "midi": 55,
      "hit": false,
      "t": 184666.75899999938,
      "d": 522.2224833333457,
      "v": 59
    },
    {
      "midi": 43,
      "hit": false,
      "t": 185000.09249999883,
      "d": 144.4445166666701,
      "v": 55
    },
    {
      "midi": 31,
      "hit": false,
      "t": 185000.09249999883,
      "d": 183.3334249999898,
      "v": 55
    },
    {
      "midi": 43,
      "hit": false,
      "t": 185166.75924999884,
      "d": 144.444516666641,
      "v": 55
    },
    {
      "midi": 31,
      "hit": false,
      "t": 185333.4259999988,
      "d": 300.0001500000071,
      "v": 55
    },
    {
      "midi": 60,
      "hit": false,
      "t": 185333.4259999994,
      "d": 466.6669000000111,
      "v": 76
    },
    {
      "midi": 64,
      "hit": false,
      "t": 185333.4259999994,
      "d": 472.22245833333,
      "v": 76
    },
    {
      "midi": 55,
      "hit": false,
      "t": 185333.4259999994,
      "d": 500.00024999998277,
      "v": 76
    },
    {
      "midi": 43,
      "hit": false,
      "t": 185666.75949999882,
      "d": 150.000074999989,
      "v": 55
    },
    {
      "midi": 31,
      "hit": false,
      "t": 185833.4262499988,
      "d": 311.11126666667406,
      "v": 55
    },
    {
      "midi": 60,
      "hit": false,
      "t": 186000.09299999938,
      "d": 455.55578333334415,
      "v": 69
    },
    {
      "midi": 64,
      "hit": false,
      "t": 186000.09299999938,
      "d": 477.778016666678,
      "v": 69
    },
    {
      "midi": 55,
      "hit": false,
      "t": 186000.09299999938,
      "d": 522.2224833333457,
      "v": 69
    },
    {
      "midi": 43,
      "hit": false,
      "t": 186166.7597499988,
      "d": 172.22230833332287,
      "v": 55
    },
    {
      "midi": 31,
      "hit": false,
      "t": 186333.4264999988,
      "d": 194.44454166662763,
      "v": 55
    },
    {
      "midi": 43,
      "hit": false,
      "t": 186500.09324999878,
      "d": 161.11119166665594,
      "v": 55
    },
    {
      "midi": 31,
      "hit": false,
      "t": 186666.75999999876,
      "d": 361.1112916666607,
      "v": 55
    },
    {
      "midi": 62,
      "hit": false,
      "t": 186666.75999999986,
      "d": 2455.5567833333334,
      "v": 55
    },
    {
      "midi": 59,
      "hit": false,
      "t": 186666.75999999986,
      "d": 2461.1123416666524,
      "v": 55
    },
    {
      "midi": 67,
      "hit": false,
      "t": 186666.75999999986,
      "d": 2488.890133333305,
      "v": 55
    },
    {
      "midi": 43,
      "hit": false,
      "t": 187000.09349999877,
      "d": 172.22230833329377,
      "v": 55
    },
    {
      "midi": 31,
      "hit": false,
      "t": 187166.76024999874,
      "d": 338.8890583332977,
      "v": 55
    },
    {
      "midi": 55,
      "hit": false,
      "t": 187333.42699999938,
      "d": 450.00022499999614,
      "v": 59
    },
    {
      "midi": 59,
      "hit": false,
      "t": 187333.42699999938,
      "d": 450.00022499999614,
      "v": 59
    },
    {
      "midi": 62,
      "hit": false,
      "t": 187333.42699999938,
      "d": 466.666899999982,
      "v": 59
    },
    {
      "midi": 43,
      "hit": false,
      "t": 187500.09374999872,
      "d": 161.11119166665594,
      "v": 55
    },
    {
      "midi": 31,
      "hit": false,
      "t": 187666.7604999987,
      "d": 177.7778666666709,
      "v": 55
    },
    {
      "midi": 43,
      "hit": false,
      "t": 187833.4272499987,
      "d": 155.55563333333703,
      "v": 55
    },
    {
      "midi": 31,
      "hit": false,
      "t": 188000.0939999987,
      "d": 361.1112916666607,
      "v": 55
    },
    {
      "midi": 55,
      "hit": false,
      "t": 188000.09399999937,
      "d": 488.88913333334494,
      "v": 74
    },
    {
      "midi": 62,
      "hit": false,
      "t": 188000.09399999937,
      "d": 494.44469166666386,
      "v": 74
    },
    {
      "midi": 59,
      "hit": false,
      "t": 188000.09399999937,
      "d": 511.1113666666497,
      "v": 74
    },
    {
      "midi": 43,
      "hit": false,
      "t": 188333.4274999987,
      "d": 161.11119166665594,
      "v": 55
    },
    {
      "midi": 31,
      "hit": false,
      "t": 188500.09424999868,
      "d": 377.77796666667564,
      "v": 55
    },
    {
      "midi": 59,
      "hit": false,
      "t": 188666.76099999936,
      "d": 383.33352499999455,
      "v": 66
    },
    {
      "midi": 62,
      "hit": false,
      "t": 188666.76099999936,
      "d": 394.4446416666615,
      "v": 66
    },
    {
      "midi": 55,
      "hit": false,
      "t": 188666.76099999936,
      "d": 433.3335499999812,
      "v": 66
    },
    {
      "midi": 43,
      "hit": false,
      "t": 188833.4277499987,
      "d": 166.66675000000396,
      "v": 55
    },
    {
      "midi": 31,
      "hit": false,
      "t": 189000.0944999987,
      "d": 172.22230833332287,
      "v": 55
    },
    {
      "midi": 43,
      "hit": false,
      "t": 189166.7612499987,
      "d": 122.22228333330713,
      "v": 55
    },
    {
      "midi": 31,
      "hit": false,
      "t": 189333.42799999868,
      "d": 322.222383333341,
      "v": 55
    },
    {
      "midi": 59,
      "hit": false,
      "t": 189344.53911666648,
      "d": 2000.0009999999893,
      "v": 55
    },
    {
      "midi": 62,
      "hit": false,
      "t": 189344.53911666648,
      "d": 2000.0009999999893,
      "v": 55
    },
    {
      "midi": 67,
      "hit": false,
      "t": 189344.53911666648,
      "d": 2011.1121166666562,
      "v": 55
    },
    {
      "midi": 43,
      "hit": false,
      "t": 189666.76149999868,
      "d": 183.3334249999898,
      "v": 55
    },
    {
      "midi": 31,
      "hit": false,
      "t": 189833.4282499987,
      "d": 333.3334999999788,
      "v": 55
    },
    {
      "midi": 55,
      "hit": false,
      "t": 190000.09499999933,
      "d": 516.6669249999977,
      "v": 59
    },
    {
      "midi": 62,
      "hit": false,
      "t": 190000.09499999933,
      "d": 566.6669499999844,
      "v": 59
    },
    {
      "midi": 59,
      "hit": false,
      "t": 190000.09499999933,
      "d": 577.7780666666513,
      "v": 59
    },
    {
      "midi": 43,
      "hit": false,
      "t": 190166.76174999867,
      "d": 133.33340000000317,
      "v": 55
    },
    {
      "midi": 31,
      "hit": false,
      "t": 190333.42849999867,
      "d": 166.66675000000396,
      "v": 55
    },
    {
      "midi": 43,
      "hit": false,
      "t": 190500.09524999867,
      "d": 127.77784166665515,
      "v": 55
    },
    {
      "midi": 31,
      "hit": false,
      "t": 190666.76199999865,
      "d": 333.3335000000079,
      "v": 55
    },
    {
      "midi": 55,
      "hit": false,
      "t": 190666.76199999932,
      "d": 505.5558083333308,
      "v": 77
    },
    {
      "midi": 62,
      "hit": false,
      "t": 190666.76199999932,
      "d": 511.1113666666497,
      "v": 77
    },
    {
      "midi": 59,
      "hit": false,
      "t": 190666.76199999932,
      "d": 550.0002749999694,
      "v": 77
    },
    {
      "midi": 43,
      "hit": false,
      "t": 191000.09549999866,
      "d": 200.00010000000475,
      "v": 55
    },
    {
      "midi": 31,
      "hit": false,
      "t": 191166.76224999866,
      "d": 327.7779416666599,
      "v": 55
    },
    {
      "midi": 55,
      "hit": false,
      "t": 191333.42899999928,
      "d": 622.222533333319,
      "v": 67
    },
    {
      "midi": 59,
      "hit": false,
      "t": 191333.42899999928,
      "d": 638.8892083333049,
      "v": 67
    },
    {
      "midi": 62,
      "hit": false,
      "t": 191333.42899999928,
      "d": 644.4447666666238,
      "v": 67
    },
    {
      "midi": 43,
      "hit": false,
      "t": 191500.09574999864,
      "d": 172.22230833332287,
      "v": 55
    },
    {
      "midi": 31,
      "hit": false,
      "t": 191666.76249999864,
      "d": 172.22230833329377,
      "v": 55
    },
    {
      "midi": 43,
      "hit": false,
      "t": 191833.42924999862,
      "d": 166.66674999997485,
      "v": 55
    },
    {
      "midi": 29,
      "hit": false,
      "t": 192000.0959999986,
      "d": 300.000149999978,
      "v": 55
    },
    {
      "midi": 65,
      "hit": false,
      "t": 192000.0959999998,
      "d": 1888.8898333332327,
      "v": 54
    },
    {
      "midi": 57,
      "hit": false,
      "t": 192000.0959999998,
      "d": 1944.4454166665382,
      "v": 54
    },
    {
      "midi": 60,
      "hit": false,
      "t": 192000.0959999998,
      "d": 2161.112191666529,
      "v": 54
    },
    {
      "midi": 41,
      "hit": false,
      "t": 192333.42949999857,
      "d": 211.11121666664258,
      "v": 55
    },
    {
      "midi": 29,
      "hit": false,
      "t": 192500.09624999858,
      "d": 327.7779416666308,
      "v": 55
    },
    {
      "midi": 57,
      "hit": false,
      "t": 192666.7629999992,
      "d": 483.3335749999678,
      "v": 59
    },
    {
      "midi": 65,
      "hit": false,
      "t": 192666.7629999992,
      "d": 527.7780416666355,
      "v": 59
    },
    {
      "midi": 60,
      "hit": false,
      "t": 192666.7629999992,
      "d": 544.4447166666214,
      "v": 59
    },
    {
      "midi": 41,
      "hit": false,
      "t": 192833.42974999853,
      "d": 172.22230833329377,
      "v": 55
    },
    {
      "midi": 29,
      "hit": false,
      "t": 193000.0964999985,
      "d": 161.11119166662684,
      "v": 55
    },
    {
      "midi": 41,
      "hit": false,
      "t": 193166.76324999845,
      "d": 161.11119166665594,
      "v": 55
    },
    {
      "midi": 29,
      "hit": false,
      "t": 193333.42999999842,
      "d": 361.1112916666316,
      "v": 55
    },
    {
      "midi": 57,
      "hit": false,
      "t": 193333.42999999915,
      "d": 477.7780166666489,
      "v": 74
    },
    {
      "midi": 65,
      "hit": false,
      "t": 193333.42999999915,
      "d": 488.88913333331584,
      "v": 74
    },
    {
      "midi": 60,
      "hit": false,
      "t": 193333.42999999915,
      "d": 500.00024999998277,
      "v": 74
    },
    {
      "midi": 41,
      "hit": false,
      "t": 193666.7634999984,
      "d": 194.44454166662763,
      "v": 55
    },
    {
      "midi": 29,
      "hit": false,
      "t": 193833.43024999838,
      "d": 361.1112916666316,
      "v": 55
    },
    {
      "midi": 65,
      "hit": false,
      "t": 194000.0969999991,
      "d": 488.88913333331584,
      "v": 67
    },
    {
      "midi": 57,
      "hit": false,
      "t": 194000.0969999991,
      "d": 500.00024999998277,
      "v": 67
    },
    {
      "midi": 60,
      "hit": false,
      "t": 194000.0969999991,
      "d": 583.3336249999702,
      "v": 67
    },
    {
      "midi": 41,
      "hit": false,
      "t": 194166.76374999835,
      "d": 172.22230833329377,
      "v": 55
    },
    {
      "midi": 29,
      "hit": false,
      "t": 194333.43049999833,
      "d": 183.3334249999607,
      "v": 55
    },
    {
      "midi": 41,
      "hit": false,
      "t": 194500.0972499983,
      "d": 183.3334249999898,
      "v": 55
    },
    {
      "midi": 55,
      "hit": false,
      "t": 194666.76399999962,
      "d": 1777.7786666665925,
      "v": 56
    },
    {
      "midi": 60,
      "hit": false,
      "t": 194666.76399999962,
      "d": 1788.8897833332594,
      "v": 56
    },
    {
      "midi": 64,
      "hit": false,
      "t": 194666.76399999962,
      "d": 1816.6675749999122,
      "v": 56
    },
    {
      "midi": 31,
      "hit": false,
      "t": 194672.31955833163,
      "d": 550.0002749999694,
      "v": 55
    },
    {
      "midi": 43,
      "hit": false,
      "t": 195166.76424999826,
      "d": 200.00009999997565,
      "v": 55
    },
    {
      "midi": 31,
      "hit": false,
      "t": 195333.43099999824,
      "d": 316.66682499999297,
      "v": 55
    },
    {
      "midi": 60,
      "hit": false,
      "t": 195333.43099999902,
      "d": 500.00024999998277,
      "v": 59
    },
    {
      "midi": 64,
      "hit": false,
      "t": 195333.43099999902,
      "d": 500.00024999998277,
      "v": 59
    },
    {
      "midi": 55,
      "hit": false,
      "t": 195333.43099999902,
      "d": 522.2224833333166,
      "v": 59
    },
    {
      "midi": 43,
      "hit": false,
      "t": 195666.76449999821,
      "d": 144.444516666641,
      "v": 55
    },
    {
      "midi": 31,
      "hit": false,
      "t": 195666.76449999821,
      "d": 183.3334249999607,
      "v": 55
    },
    {
      "midi": 43,
      "hit": false,
      "t": 195833.4312499982,
      "d": 144.444516666641,
      "v": 55
    },
    {
      "midi": 31,
      "hit": false,
      "t": 196000.09799999816,
      "d": 300.000149999978,
      "v": 55
    },
    {
      "midi": 60,
      "hit": false,
      "t": 196000.097999999,
      "d": 466.666899999982,
      "v": 76
    },
    {
      "midi": 64,
      "hit": false,
      "t": 196000.097999999,
      "d": 472.2224583333009,
      "v": 76
    },
    {
      "midi": 55,
      "hit": false,
      "t": 196000.097999999,
      "d": 500.00024999995367,
      "v": 76
    },
    {
      "midi": 43,
      "hit": false,
      "t": 196333.43149999814,
      "d": 150.000074999989,
      "v": 55
    },
    {
      "midi": 31,
      "hit": false,
      "t": 196500.09824999812,
      "d": 311.11126666667406,
      "v": 55
    },
    {
      "midi": 60,
      "hit": false,
      "t": 196666.76499999897,
      "d": 455.55578333331505,
      "v": 69
    },
    {
      "midi": 64,
      "hit": false,
      "t": 196666.76499999897,
      "d": 477.7780166666489,
      "v": 69
    },
    {
      "midi": 55,
      "hit": false,
      "t": 196666.76499999897,
      "d": 522.2224833332875,
      "v": 69
    },
    {
      "midi": 43,
      "hit": false,
      "t": 196833.4317499981,
      "d": 172.22230833332287,
      "v": 55
    },
    {
      "midi": 31,
      "hit": false,
      "t": 197000.0984999981,
      "d": 194.44454166662763,
      "v": 55
    },
    {
      "midi": 43,
      "hit": false,
      "t": 197166.76524999808,
      "d": 161.11119166665594,
      "v": 55
    },
    {
      "midi": 31,
      "hit": false,
      "t": 197333.43199999805,
      "d": 361.1112916666316,
      "v": 55
    },
    {
      "midi": 62,
      "hit": false,
      "t": 197333.43199999948,
      "d": 2455.556783333188,
      "v": 55
    },
    {
      "midi": 59,
      "hit": false,
      "t": 197333.43199999948,
      "d": 2461.112341666507,
      "v": 55
    },
    {
      "midi": 67,
      "hit": false,
      "t": 197333.43199999948,
      "d": 2488.8901333331596,
      "v": 55
    },
    {
      "midi": 43,
      "hit": false,
      "t": 197666.76549999803,
      "d": 172.22230833329377,
      "v": 55
    },
    {
      "midi": 31,
      "hit": false,
      "t": 197833.432249998,
      "d": 338.8890583332977,
      "v": 55
    },
    {
      "midi": 55,
      "hit": false,
      "t": 198000.09899999888,
      "d": 450.00022499996703,
      "v": 59
    },
    {
      "midi": 59,
      "hit": false,
      "t": 198000.09899999888,
      "d": 450.00022499996703,
      "v": 59
    },
    {
      "midi": 62,
      "hit": false,
      "t": 198000.09899999888,
      "d": 466.6668999999529,
      "v": 59
    },
    {
      "midi": 43,
      "hit": false,
      "t": 198166.76574999798,
      "d": 161.11119166665594,
      "v": 55
    },
    {
      "midi": 31,
      "hit": false,
      "t": 198333.43249999796,
      "d": 177.7778666666709,
      "v": 55
    },
    {
      "midi": 43,
      "hit": false,
      "t": 198500.09924999796,
      "d": 155.55563333330792,
      "v": 55
    },
    {
      "midi": 31,
      "hit": false,
      "t": 198666.76599999794,
      "d": 361.1112916666316,
      "v": 55
    },
    {
      "midi": 55,
      "hit": false,
      "t": 198666.7659999988,
      "d": 488.88913333331584,
      "v": 74
    },
    {
      "midi": 62,
      "hit": false,
      "t": 198666.7659999988,
      "d": 494.44469166663475,
      "v": 74
    },
    {
      "midi": 59,
      "hit": false,
      "t": 198666.7659999988,
      "d": 511.1113666666206,
      "v": 74
    },
    {
      "midi": 43,
      "hit": false,
      "t": 199000.09949999792,
      "d": 161.11119166662684,
      "v": 55
    },
    {
      "midi": 31,
      "hit": false,
      "t": 199166.76624999786,
      "d": 377.77796666664653,
      "v": 55
    },
    {
      "midi": 59,
      "hit": false,
      "t": 199333.43299999874,
      "d": 383.33352499999455,
      "v": 66
    },
    {
      "midi": 62,
      "hit": false,
      "t": 199333.43299999874,
      "d": 394.4446416666615,
      "v": 66
    },
    {
      "midi": 55,
      "hit": false,
      "t": 199333.43299999874,
      "d": 433.3335499999812,
      "v": 66
    },
    {
      "midi": 43,
      "hit": false,
      "t": 199500.09974999784,
      "d": 166.66675000000396,
      "v": 55
    },
    {
      "midi": 31,
      "hit": false,
      "t": 199666.76649999784,
      "d": 172.22230833329377,
      "v": 55
    },
    {
      "midi": 43,
      "hit": false,
      "t": 199833.43324999782,
      "d": 122.22228333330713,
      "v": 55
    },
    {
      "midi": 31,
      "hit": false,
      "t": 200000.0999999978,
      "d": 322.2223833333119,
      "v": 55
    },
    {
      "midi": 59,
      "hit": false,
      "t": 200000.0999999993,
      "d": 2000.0009999998729,
      "v": 55
    },
    {
      "midi": 62,
      "hit": false,
      "t": 200000.0999999993,
      "d": 2000.0009999998729,
      "v": 55
    },
    {
      "midi": 67,
      "hit": false,
      "t": 200000.0999999993,
      "d": 2011.1121166665398,
      "v": 55
    },
    {
      "midi": 43,
      "hit": false,
      "t": 200333.43349999777,
      "d": 183.3334249999607,
      "v": 55
    },
    {
      "midi": 31,
      "hit": false,
      "t": 200500.10024999775,
      "d": 333.3334999999497,
      "v": 55
    },
    {
      "midi": 55,
      "hit": false,
      "t": 200666.76699999868,
      "d": 516.6669249999686,
      "v": 59
    },
    {
      "midi": 62,
      "hit": false,
      "t": 200666.76699999868,
      "d": 566.6669499999552,
      "v": 59
    },
    {
      "midi": 59,
      "hit": false,
      "t": 200666.76699999868,
      "d": 577.7780666666222,
      "v": 59
    },
    {
      "midi": 43,
      "hit": false,
      "t": 200833.4337499977,
      "d": 133.33340000000317,
      "v": 55
    },
    {
      "midi": 31,
      "hit": false,
      "t": 201000.1004999977,
      "d": 166.66674999997485,
      "v": 55
    },
    {
      "midi": 43,
      "hit": false,
      "t": 201166.76724999768,
      "d": 127.77784166665515,
      "v": 55
    },
    {
      "midi": 31,
      "hit": false,
      "t": 201333.43399999765,
      "d": 333.3334999999788,
      "v": 55
    },
    {
      "midi": 55,
      "hit": false,
      "t": 201333.43399999864,
      "d": 505.5558083333017,
      "v": 77
    },
    {
      "midi": 62,
      "hit": false,
      "t": 201333.43399999864,
      "d": 511.1113666666206,
      "v": 77
    },
    {
      "midi": 59,
      "hit": false,
      "t": 201333.43399999864,
      "d": 550.0002749999403,
      "v": 77
    },
    {
      "midi": 43,
      "hit": false,
      "t": 201666.76749999763,
      "d": 200.00009999997565,
      "v": 55
    },
    {
      "midi": 31,
      "hit": false,
      "t": 201833.4342499976,
      "d": 327.7779416666599,
      "v": 55
    },
    {
      "midi": 55,
      "hit": false,
      "t": 202000.10099999857,
      "d": 622.2225333332899,
      "v": 67
    },
    {
      "midi": 59,
      "hit": false,
      "t": 202000.10099999857,
      "d": 638.8892083332757,
      "v": 67
    },
    {
      "midi": 62,
      "hit": false,
      "t": 202000.10099999857,
      "d": 644.4447666665947,
      "v": 67
    },
    {
      "midi": 43,
      "hit": false,
      "t": 202166.76774999758,
      "d": 172.22230833332287,
      "v": 55
    },
    {
      "midi": 31,
      "hit": false,
      "t": 202333.4344999976,
      "d": 172.22230833329377,
      "v": 55
    },
    {
      "midi": 43,
      "hit": false,
      "t": 202500.10124999756,
      "d": 166.66674999997485,
      "v": 55
    },
    {
      "midi": 29,
      "hit": false,
      "t": 202666.76799999754,
      "d": 300.000149999978,
      "v": 55
    },
    {
      "midi": 65,
      "hit": false,
      "t": 202666.76799999914,
      "d": 1888.8898333332327,
      "v": 54
    },
    {
      "midi": 57,
      "hit": false,
      "t": 202666.76799999914,
      "d": 1944.4454166665673,
      "v": 54
    },
    {
      "midi": 60,
      "hit": false,
      "t": 202666.76799999914,
      "d": 2161.112191666558,
      "v": 54
    },
    {
      "midi": 41,
      "hit": false,
      "t": 203000.10149999752,
      "d": 211.11121666664258,
      "v": 55
    },
    {
      "midi": 29,
      "hit": false,
      "t": 203166.76824999752,
      "d": 327.7779416666308,
      "v": 55
    },
    {
      "midi": 57,
      "hit": false,
      "t": 203333.43499999846,
      "d": 483.3335749999678,
      "v": 59
    },
    {
      "midi": 65,
      "hit": false,
      "t": 203333.43499999846,
      "d": 527.7780416666355,
      "v": 59
    },
    {
      "midi": 60,
      "hit": false,
      "t": 203333.43499999846,
      "d": 544.4447166666214,
      "v": 59
    },
    {
      "midi": 41,
      "hit": false,
      "t": 203500.10174999747,
      "d": 172.22230833332287,
      "v": 55
    },
    {
      "midi": 29,
      "hit": false,
      "t": 203666.76849999747,
      "d": 161.11119166665594,
      "v": 55
    },
    {
      "midi": 41,
      "hit": false,
      "t": 203833.43524999745,
      "d": 161.11119166665594,
      "v": 55
    },
    {
      "midi": 29,
      "hit": false,
      "t": 204000.10199999742,
      "d": 361.1112916666316,
      "v": 55
    },
    {
      "midi": 57,
      "hit": false,
      "t": 204000.1019999984,
      "d": 477.7780166666198,
      "v": 74
    },
    {
      "midi": 65,
      "hit": false,
      "t": 204000.1019999984,
      "d": 488.88913333328674,
      "v": 74
    },
    {
      "midi": 60,
      "hit": false,
      "t": 204000.1019999984,
      "d": 500.00024999995367,
      "v": 74
    },
    {
      "midi": 41,
      "hit": false,
      "t": 204333.4354999974,
      "d": 194.44454166662763,
      "v": 55
    },
    {
      "midi": 29,
      "hit": false,
      "t": 204500.10224999738,
      "d": 361.1112916666025,
      "v": 55
    },
    {
      "midi": 65,
      "hit": false,
      "t": 204666.76899999837,
      "d": 488.88913333328674,
      "v": 67
    },
    {
      "midi": 57,
      "hit": false,
      "t": 204666.76899999837,
      "d": 500.00024999995367,
      "v": 67
    },
    {
      "midi": 60,
      "hit": false,
      "t": 204666.76899999837,
      "d": 583.3336249999411,
      "v": 67
    },
    {
      "midi": 41,
      "hit": false,
      "t": 204833.43574999733,
      "d": 172.22230833329377,
      "v": 55
    },
    {
      "midi": 29,
      "hit": false,
      "t": 205000.1024999973,
      "d": 183.3334249999607,
      "v": 55
    },
    {
      "midi": 41,
      "hit": false,
      "t": 205166.76924999728,
      "d": 183.3334249999607,
      "v": 55
    },
    {
      "midi": 55,
      "hit": false,
      "t": 205333.435999999,
      "d": 1777.7786666665634,
      "v": 56
    },
    {
      "midi": 60,
      "hit": false,
      "t": 205333.435999999,
      "d": 1788.8897833332303,
      "v": 56
    },
    {
      "midi": 64,
      "hit": false,
      "t": 205333.435999999,
      "d": 1816.667574999883,
      "v": 56
    },
    {
      "midi": 31,
      "hit": false,
      "t": 205338.99155833057,
      "d": 550.0002749999694,
      "v": 55
    },
    {
      "midi": 43,
      "hit": false,
      "t": 205833.4362499972,
      "d": 200.00010000000475,
      "v": 55
    },
    {
      "midi": 31,
      "hit": false,
      "t": 206000.1029999972,
      "d": 316.66682499996386,
      "v": 55
    },
    {
      "midi": 60,
      "hit": false,
      "t": 206000.1029999983,
      "d": 500.00024999995367,
      "v": 59
    },
    {
      "midi": 64,
      "hit": false,
      "t": 206000.1029999983,
      "d": 500.00024999995367,
      "v": 59
    },
    {
      "midi": 55,
      "hit": false,
      "t": 206000.1029999983,
      "d": 522.2224833332875,
      "v": 59
    },
    {
      "midi": 43,
      "hit": false,
      "t": 206333.43649999716,
      "d": 144.444516666641,
      "v": 55
    },
    {
      "midi": 31,
      "hit": false,
      "t": 206333.43649999716,
      "d": 183.3334249999607,
      "v": 55
    },
    {
      "midi": 43,
      "hit": false,
      "t": 206500.10324999713,
      "d": 144.444516666641,
      "v": 55
    },
    {
      "midi": 31,
      "hit": false,
      "t": 206666.7699999971,
      "d": 300.000149999978,
      "v": 55
    },
    {
      "midi": 60,
      "hit": false,
      "t": 206666.76999999824,
      "d": 466.666899999982,
      "v": 76
    },
    {
      "midi": 64,
      "hit": false,
      "t": 206666.76999999824,
      "d": 472.2224583333009,
      "v": 76
    },
    {
      "midi": 55,
      "hit": false,
      "t": 206666.76999999824,
      "d": 500.00024999995367,
      "v": 76
    },
    {
      "midi": 43,
      "hit": false,
      "t": 207000.1034999971,
      "d": 150.000074999989,
      "v": 55
    },
    {
      "midi": 31,
      "hit": false,
      "t": 207166.77024999706,
      "d": 311.11126666664495,
      "v": 55
    },
    {
      "midi": 60,
      "hit": false,
      "t": 207333.43699999817,
      "d": 455.55578333331505,
      "v": 69
    },
    {
      "midi": 64,
      "hit": false,
      "t": 207333.43699999817,
      "d": 477.7780166666489,
      "v": 69
    },
    {
      "midi": 55,
      "hit": false,
      "t": 207333.43699999817,
      "d": 522.2224833333166,
      "v": 69
    },
    {
      "midi": 43,
      "hit": false,
      "t": 207500.10374999704,
      "d": 172.22230833329377,
      "v": 55
    },
    {
      "midi": 31,
      "hit": false,
      "t": 207666.77049999702,
      "d": 194.44454166662763,
      "v": 55
    },
    {
      "midi": 43,
      "hit": false,
      "t": 207833.437249997,
      "d": 161.11119166665594,
      "v": 55
    },
    {
      "midi": 31,
      "hit": false,
      "t": 208000.10399999697,
      "d": 361.1112916666607,
      "v": 55
    },
    {
      "midi": 62,
      "hit": false,
      "t": 208000.10399999883,
      "d": 2455.556783333188,
      "v": 55
    },
    {
      "midi": 59,
      "hit": false,
      "t": 208000.10399999883,
      "d": 2461.112341666507,
      "v": 55
    },
    {
      "midi": 67,
      "hit": false,
      "t": 208000.10399999883,
      "d": 2488.8901333331596,
      "v": 55
    },
    {
      "midi": 43,
      "hit": false,
      "t": 208333.43749999697,
      "d": 172.22230833329377,
      "v": 55
    },
    {
      "midi": 31,
      "hit": false,
      "t": 208500.10424999695,
      "d": 338.8890583332686,
      "v": 55
    },
    {
      "midi": 55,
      "hit": false,
      "t": 208666.77099999812,
      "d": 450.00022499996703,
      "v": 59
    },
    {
      "midi": 59,
      "hit": false,
      "t": 208666.77099999812,
      "d": 450.00022499996703,
      "v": 59
    },
    {
      "midi": 62,
      "hit": false,
      "t": 208666.77099999812,
      "d": 466.6668999999529,
      "v": 59
    },
    {
      "midi": 43,
      "hit": false,
      "t": 208833.4377499969,
      "d": 161.11119166662684,
      "v": 55
    },
    {
      "midi": 31,
      "hit": false,
      "t": 209000.10449999684,
      "d": 177.77786666664178,
      "v": 55
    },
    {
      "midi": 43,
      "hit": false,
      "t": 209166.77124999682,
      "d": 155.55563333333703,
      "v": 55
    },
    {
      "midi": 31,
      "hit": false,
      "t": 209333.43799999682,
      "d": 361.1112916666316,
      "v": 55
    },
    {
      "midi": 55,
      "hit": false,
      "t": 209333.43799999807,
      "d": 488.88913333328674,
      "v": 74
    },
    {
      "midi": 62,
      "hit": false,
      "t": 209333.43799999807,
      "d": 494.44469166660565,
      "v": 74
    },
    {
      "midi": 59,
      "hit": false,
      "t": 209333.43799999807,
      "d": 511.1113666665915,
      "v": 74
    },
    {
      "midi": 43,
      "hit": false,
      "t": 209666.7714999968,
      "d": 161.11119166665594,
      "v": 55
    },
    {
      "midi": 31,
      "hit": false,
      "t": 209833.43824999678,
      "d": 377.77796666664653,
      "v": 55
    },
    {
      "midi": 59,
      "hit": false,
      "t": 210000.104999998,
      "d": 383.33352499996545,
      "v": 66
    },
    {
      "midi": 62,
      "hit": false,
      "t": 210000.104999998,
      "d": 394.4446416666324,
      "v": 66
    },
    {
      "midi": 55,
      "hit": false,
      "t": 210000.104999998,
      "d": 433.3335499999521,
      "v": 66
    },
    {
      "midi": 43,
      "hit": false,
      "t": 210166.77174999675,
      "d": 166.66675000000396,
      "v": 55
    },
    {
      "midi": 31,
      "hit": false,
      "t": 210333.43849999676,
      "d": 172.22230833329377,
      "v": 55
    },
    {
      "midi": 43,
      "hit": false,
      "t": 210500.10524999673,
      "d": 122.22228333330713,
      "v": 55
    }
  ]
}