{
  "jsonPath": "Classical/British Modern Classical/Edward Elgar/chanson-de-matin.json",
  "path": "Classical\\British Modern Classical\\Edward Elgar\\Chanson De Matin.mid",
  "name": "Chanson De Matin",
  "difficulty": "Advanced",
  "bpm": 100,
  "notes": [
    {
      "midi": 77,
      "hit": false,
      "t": 0,
      "d": 600,
      "v": 72
    },
    {
      "midi": 53,
      "hit": false,
      "t": 0,
      "d": 300,
      "v": 67
    },
    {
      "midi": 57,
      "hit": false,
      "t": 300,
      "d": 300,
      "v": 66
    },
    {
      "midi": 60,
      "hit": false,
      "t": 300,
      "d": 300,
      "v": 66
    },
    {
      "midi": 77,
      "hit": false,
      "t": 600,
      "d": 600,
      "v": 74
    },
    {
      "midi": 57,
      "hit": false,
      "t": 900,
      "d": 300,
      "v": 73
    },
    {
      "midi": 60,
      "hit": false,
      "t": 900,
      "d": 300,
      "v": 73
    },
    {
      "midi": 77,
      "hit": false,
      "t": 1200,
      "d": 300,
      "v": 75
    },
    {
      "midi": 57,
      "hit": false,
      "t": 1200,
      "d": 300,
      "v": 78
    },
    {
      "midi": 76,
      "hit": false,
      "t": 1500,
      "d": 300,
      "v": 73
    },
    {
      "midi": 60,
      "hit": false,
      "t": 1500,
      "d": 300,
      "v": 67
    },
    {
      "midi": 65,
      "hit": false,
      "t": 1500,
      "d": 300,
      "v": 67
    },
    {
      "midi": 74,
      "hit": false,
      "t": 1800,
      "d": 300,
      "v": 69
    },
    {
      "midi": 76,
      "hit": false,
      "t": 2100,
      "d": 150,
      "v": 77
    },
    {
      "midi": 60,
      "hit": false,
      "t": 2100,
      "d": 300,
      "v": 77
    },
    {
      "midi": 65,
      "hit": false,
      "t": 2100,
      "d": 300,
      "v": 77
    },
    {
      "midi": 77,
      "hit": false,
      "t": 2250,
      "d": 150,
      "v": 83
    },
    {
      "midi": 72,
      "hit": false,
      "t": 2400,
      "d": 300,
      "v": 72
    },
    {
      "midi": 55,
      "hit": false,
      "t": 2400,
      "d": 300,
      "v": 72
    },
    {
      "midi": 70,
      "hit": false,
      "t": 2700,
      "d": 300,
      "v": 69
    },
    {
      "midi": 58,
      "hit": false,
      "t": 2700,
      "d": 300,
      "v": 66
    },
    {
      "midi": 62,
      "hit": false,
      "t": 2700,
      "d": 300,
      "v": 66
    },
    {
      "midi": 67,
      "hit": false,
      "t": 3000,
      "d": 600,
      "v": 69
    },
    {
      "midi": 58,
      "hit": false,
      "t": 3300,
      "d": 300,
      "v": 75
    },
    {
      "midi": 62,
      "hit": false,
      "t": 3300,
      "d": 300,
      "v": 75
    },
    {
      "midi": 67,
      "hit": false,
      "t": 3600,
      "d": 1200,
      "v": 69
    },
    {
      "midi": 48,
      "hit": false,
      "t": 3600,
      "d": 300,
      "v": 63
    },
    {
      "midi": 53,
      "hit": false,
      "t": 3900,
      "d": 300,
      "v": 86
    },
    {
      "midi": 58,
      "hit": false,
      "t": 3900,
      "d": 300,
      "v": 86
    },
    {
      "midi": 52,
      "hit": false,
      "t": 4500,
      "d": 300,
      "v": 89
    },
    {
      "midi": 81,
      "hit": false,
      "t": 4800,
      "d": 600,
      "v": 97
    },
    {
      "midi": 53,
      "hit": false,
      "t": 4800,
      "d": 300,
      "v": 75
    },
    {
      "midi": 57,
      "hit": false,
      "t": 5100,
      "d": 300,
      "v": 68
    },
    {
      "midi": 60,
      "hit": false,
      "t": 5100,
      "d": 300,
      "v": 68
    },
    {
      "midi": 81,
      "hit": false,
      "t": 5400,
      "d": 600,
      "v": 81
    },
    {
      "midi": 57,
      "hit": false,
      "t": 5700,
      "d": 300,
      "v": 73
    },
    {
      "midi": 60,
      "hit": false,
      "t": 5700,
      "d": 300,
      "v": 73
    },
    {
      "midi": 81,
      "hit": false,
      "t": 6000,
      "d": 300,
      "v": 72
    },
    {
      "midi": 53,
      "hit": false,
      "t": 6000,
      "d": 300,
      "v": 79
    },
    {
      "midi": 79,
      "hit": false,
      "t": 6300,
      "d": 300,
      "v": 72
    },
    {
      "midi": 57,
      "hit": false,
      "t": 6300,
      "d": 300,
      "v": 69
    },
    {
      "midi": 62,
      "hit": false,
      "t": 6300,
      "d": 300,
      "v": 69
    },
    {
      "midi": 77,
      "hit": false,
      "t": 6600,
      "d": 300,
      "v": 71
    },
    {
      "midi": 79,
      "hit": false,
      "t": 6900,
      "d": 150,
      "v": 79
    },
    {
      "midi": 57,
      "hit": false,
      "t": 6900,
      "d": 300,
      "v": 76
    },
    {
      "midi": 62,
      "hit": false,
      "t": 6900,
      "d": 300,
      "v": 76
    },
    {
      "midi": 81,
      "hit": false,
      "t": 7050,
      "d": 150,
      "v": 78
    },
    {
      "midi": 77,
      "hit": false,
      "t": 7200,
      "d": 300,
      "v": 69
    },
    {
      "midi": 57,
      "hit": false,
      "t": 7200,
      "d": 300,
      "v": 84
    },
    {
      "midi": 76,
      "hit": false,
      "t": 7500,
      "d": 300,
      "v": 67
    },
    {
      "midi": 60,
      "hit": false,
      "t": 7500,
      "d": 300,
      "v": 72
    },
    {
      "midi": 64,
      "hit": false,
      "t": 7500,
      "d": 300,
      "v": 72
    },
    {
      "midi": 72,
      "hit": false,
      "t": 7800,
      "d": 600,
      "v": 68
    },
    {
      "midi": 60,
      "hit": false,
      "t": 8100,
      "d": 300,
      "v": 72
    },
    {
      "midi": 64,
      "hit": false,
      "t": 8100,
      "d": 300,
      "v": 72
    },
    {
      "midi": 72,
      "hit": false,
      "t": 8400,
      "d": 1200,
      "v": 68
    },
    {
      "midi": 57,
      "hit": false,
      "t": 8400,
      "d": 300,
      "v": 77
    },
    {
      "midi": 60,
      "hit": false,
      "t": 8700,
      "d": 300,
      "v": 69
    },
    {
      "midi": 64,
      "hit": false,
      "t": 8700,
      "d": 300,
      "v": 69
    },
    {
      "midi": 60,
      "hit": false,
      "t": 9300,
      "d": 300,
      "v": 75
    },
    {
      "midi": 64,
      "hit": false,
      "t": 9300,
      "d": 300,
      "v": 75
    },
    {
      "midi": 58,
      "hit": false,
      "t": 9600,
      "d": 300,
      "v": 76
    },
    {
      "midi": 74,
      "hit": false,
      "t": 9900,
      "d": 150,
      "v": 71
    },
    {
      "midi": 62,
      "hit": false,
      "t": 9900,
      "d": 300,
      "v": 70
    },
    {
      "midi": 65,
      "hit": false,
      "t": 9900,
      "d": 300,
      "v": 70
    },
    {
      "midi": 76,
      "hit": false,
      "t": 10050,
      "d": 150,
      "v": 78
    },
    {
      "midi": 77,
      "hit": false,
      "t": 10200,
      "d": 300,
      "v": 82
    },
    {
      "midi": 76,
      "hit": false,
      "t": 10500,
      "d": 150,
      "v": 70
    },
    {
      "midi": 62,
      "hit": false,
      "t": 10500,
      "d": 300,
      "v": 77
    },
    {
      "midi": 65,
      "hit": false,
      "t": 10500,
      "d": 300,
      "v": 77
    },
    {
      "midi": 74,
      "hit": false,
      "t": 10650,
      "d": 150,
      "v": 72
    },
    {
      "midi": 79,
      "hit": false,
      "t": 10800,
      "d": 600,
      "v": 92
    },
    {
      "midi": 58,
      "hit": false,
      "t": 10800,
      "d": 300,
      "v": 78
    },
    {
      "midi": 62,
      "hit": false,
      "t": 11100,
      "d": 300,
      "v": 70
    },
    {
      "midi": 67,
      "hit": false,
      "t": 11100,
      "d": 300,
      "v": 70
    },
    {
      "midi": 74,
      "hit": false,
      "t": 11400,
      "d": 600,
      "v": 71
    },
    {
      "midi": 62,
      "hit": false,
      "t": 11700,
      "d": 300,
      "v": 73
    },
    {
      "midi": 67,
      "hit": false,
      "t": 11700,
      "d": 300,
      "v": 73
    },
    {
      "midi": 74,
      "hit": false,
      "t": 12000,
      "d": 300,
      "v": 71
    },
    {
      "midi": 58,
      "hit": false,
      "t": 12000,
      "d": 300,
      "v": 78
    },
    {
      "midi": 72,
      "hit": false,
      "t": 12300,
      "d": 150,
      "v": 77
    },
    {
      "midi": 60,
      "hit": false,
      "t": 12300,
      "d": 300,
      "v": 73
    },
    {
      "midi": 67,
      "hit": false,
      "t": 12300,
      "d": 300,
      "v": 73
    },
    {
      "midi": 74,
      "hit": false,
      "t": 12450,
      "d": 150,
      "v": 79
    },
    {
      "midi": 76,
      "hit": false,
      "t": 12600,
      "d": 300,
      "v": 84
    },
    {
      "midi": 74,
      "hit": false,
      "t": 12900,
      "d": 150,
      "v": 75
    },
    {
      "midi": 60,
      "hit": false,
      "t": 12900,
      "d": 300,
      "v": 74
    },
    {
      "midi": 67,
      "hit": false,
      "t": 12900,
      "d": 300,
      "v": 74
    },
    {
      "midi": 72,
      "hit": false,
      "t": 13050,
      "d": 150,
      "v": 71
    },
    {
      "midi": 77,
      "hit": false,
      "t": 13200,
      "d": 600,
      "v": 89
    },
    {
      "midi": 57,
      "hit": false,
      "t": 13200,
      "d": 300,
      "v": 77
    },
    {
      "midi": 60,
      "hit": false,
      "t": 13500,
      "d": 300,
      "v": 71
    },
    {
      "midi": 65,
      "hit": false,
      "t": 13500,
      "d": 300,
      "v": 71
    },
    {
      "midi": 72,
      "hit": false,
      "t": 13800,
      "d": 600,
      "v": 68
    },
    {
      "midi": 60,
      "hit": false,
      "t": 14100,
      "d": 300,
      "v": 76
    },
    {
      "midi": 65,
      "hit": false,
      "t": 14100,
      "d": 300,
      "v": 76
    },
    {
      "midi": 72,
      "hit": false,
      "t": 14400,
      "d": 300,
      "v": 68
    },
    {
      "midi": 57,
      "hit": false,
      "t": 14400,
      "d": 300,
      "v": 77
    },
    {
      "midi": 70,
      "hit": false,
      "t": 14700,
      "d": 150,
      "v": 70
    },
    {
      "midi": 58,
      "hit": false,
      "t": 14700,
      "d": 300,
      "v": 66
    },
    {
      "midi": 65,
      "hit": false,
      "t": 14700,
      "d": 300,
      "v": 66
    },
    {
      "midi": 72,
      "hit": false,
      "t": 14850,
      "d": 150,
      "v": 77
    },
    {
      "midi": 74,
      "hit": false,
      "t": 15000,
      "d": 300,
      "v": 84
    },
    {
      "midi": 72,
      "hit": false,
      "t": 15300,
      "d": 150,
      "v": 69
    },
    {
      "midi": 58,
      "hit": false,
      "t": 15300,
      "d": 300,
      "v": 75
    },
    {
      "midi": 65,
      "hit": false,
      "t": 15300,
      "d": 300,
      "v": 75
    },
    {
      "midi": 70,
      "hit": false,
      "t": 15450,
      "d": 150,
      "v": 72
    },
    {
      "midi": 76,
      "hit": false,
      "t": 15600,
      "d": 600,
      "v": 86
    },
    {
      "midi": 55,
      "hit": false,
      "t": 15600,
      "d": 300,
      "v": 76
    },
    {
      "midi": 58,
      "hit": false,
      "t": 15900,
      "d": 300,
      "v": 69
    },
    {
      "midi": 64,
      "hit": false,
      "t": 15900,
      "d": 300,
      "v": 69
    },
    {
      "midi": 70,
      "hit": false,
      "t": 16200,
      "d": 600,
      "v": 65
    },
    {
      "midi": 58,
      "hit": false,
      "t": 16500,
      "d": 300,
      "v": 76
    },
    {
      "midi": 64,
      "hit": false,
      "t": 16500,
      "d": 300,
      "v": 76
    },
    {
      "midi": 69,
      "hit": false,
      "t": 16800,
      "d": 900,
      "v": 72
    },
    {
      "midi": 57,
      "hit": false,
      "t": 16800,
      "d": 900,
      "v": 79
    },
    {
      "midi": 61,
      "hit": false,
      "t": 16800,
      "d": 900,
      "v": 73
    },
    {
      "midi": 70,
      "hit": false,
      "t": 17700,
      "d": 300,
      "v": 77
    },
    {
      "midi": 62,
      "hit": false,
      "t": 17700,
      "d": 300,
      "v": 80
    },
    {
      "midi": 69,
      "hit": false,
      "t": 18000,
      "d": 1200,
      "v": 73
    },
    {
      "midi": 57,
      "hit": false,
      "t": 18000,
      "d": 600,
      "v": 76
    },
    {
      "midi": 61,
      "hit": false,
      "t": 18000,
      "d": 600,
      "v": 74
    },
    {
      "midi": 67,
      "hit": false,
      "t": 18600,
      "d": 600,
      "v": 89
    },
    {
      "midi": 77,
      "hit": false,
      "t": 19200,
      "d": 600,
      "v": 87
    },
    {
      "midi": 50,
      "hit": false,
      "t": 19200,
      "d": 300,
      "v": 71
    },
    {
      "midi": 57,
      "hit": false,
      "t": 19500,
      "d": 300,
      "v": 73
    },
    {
      "midi": 62,
      "hit": false,
      "t": 19500,
      "d": 300,
      "v": 73
    },
    {
      "midi": 77,
      "hit": false,
      "t": 19800,
      "d": 600,
      "v": 79
    },
    {
      "midi": 57,
      "hit": false,
      "t": 20100,
      "d": 300,
      "v": 73
    },
    {
      "midi": 62,
      "hit": false,
      "t": 20100,
      "d": 300,
      "v": 73
    },
    {
      "midi": 77,
      "hit": false,
      "t": 20400,
      "d": 300,
      "v": 78
    },
    {
      "midi": 55,
      "hit": false,
      "t": 20400,
      "d": 300,
      "v": 81
    },
    {
      "midi": 76,
      "hit": false,
      "t": 20700,
      "d": 300,
      "v": 74
    },
    {
      "midi": 58,
      "hit": false,
      "t": 20700,
      "d": 300,
      "v": 67
    },
    {
      "midi": 65,
      "hit": false,
      "t": 20700,
      "d": 300,
      "v": 67
    },
    {
      "midi": 74,
      "hit": false,
      "t": 21000,
      "d": 300,
      "v": 70
    },
    {
      "midi": 76,
      "hit": false,
      "t": 21300,
      "d": 150,
      "v": 83
    },
    {
      "midi": 58,
      "hit": false,
      "t": 21300,
      "d": 300,
      "v": 77
    },
    {
      "midi": 65,
      "hit": false,
      "t": 21300,
      "d": 300,
      "v": 77
    },
    {
      "midi": 77,
      "hit": false,
      "t": 21450,
      "d": 150,
      "v": 74
    },
    {
      "midi": 74,
      "hit": false,
      "t": 21600,
      "d": 300,
      "v": 72
    },
    {
      "midi": 57,
      "hit": false,
      "t": 21600,
      "d": 300,
      "v": 78
    },
    {
      "midi": 72,
      "hit": false,
      "t": 21900,
      "d": 300,
      "v": 69
    },
    {
      "midi": 60,
      "hit": false,
      "t": 21900,
      "d": 300,
      "v": 70
    },
    {
      "midi": 65,
      "hit": false,
      "t": 21900,
      "d": 300,
      "v": 70
    },
    {
      "midi": 69,
      "hit": false,
      "t": 22200,
      "d": 600,
      "v": 68
    },
    {
      "midi": 60,
      "hit": false,
      "t": 22500,
      "d": 300,
      "v": 74
    },
    {
      "midi": 65,
      "hit": false,
      "t": 22500,
      "d": 300,
      "v": 74
    },
    {
      "midi": 69,
      "hit": false,
      "t": 22800,
      "d": 300,
      "v": 71
    },
    {
      "midi": 58,
      "hit": false,
      "t": 22800,
      "d": 1200,
      "v": 68
    },
    {
      "midi": 62,
      "hit": false,
      "t": 22800,
      "d": 1200,
      "v": 68
    },
    {
      "midi": 67,
      "hit": false,
      "t": 23100,
      "d": 300,
      "v": 70
    },
    {
      "midi": 65,
      "hit": false,
      "t": 23400,
      "d": 300,
      "v": 75
    },
    {
      "midi": 67,
      "hit": false,
      "t": 23700,
      "d": 150,
      "v": 78
    },
    {
      "midi": 69,
      "hit": false,
      "t": 23850,
      "d": 150,
      "v": 79
    },
    {
      "midi": 67,
      "hit": false,
      "t": 24000,
      "d": 300,
      "v": 73
    },
    {
      "midi": 47,
      "hit": false,
      "t": 24000,
      "d": 300,
      "v": 68
    },
    {
      "midi": 65,
      "hit": false,
      "t": 24300,
      "d": 300,
      "v": 71
    },
    {
      "midi": 53,
      "hit": false,
      "t": 24300,
      "d": 300,
      "v": 69
    },
    {
      "midi": 56,
      "hit": false,
      "t": 24300,
      "d": 300,
      "v": 69
    },
    {
      "midi": 62,
      "hit": false,
      "t": 24600,
      "d": 600,
      "v": 70
    },
    {
      "midi": 53,
      "hit": false,
      "t": 24900,
      "d": 300,
      "v": 78
    },
    {
      "midi": 56,
      "hit": false,
      "t": 24900,
      "d": 300,
      "v": 78
    },
    {
      "midi": 62,
      "hit": false,
      "t": 25200,
      "d": 300,
      "v": 70
    },
    {
      "midi": 48,
      "hit": false,
      "t": 25200,
      "d": 300,
      "v": 78
    },
    {
      "midi": 60,
      "hit": false,
      "t": 25500,
      "d": 150,
      "v": 72
    },
    {
      "midi": 52,
      "hit": false,
      "t": 25500,
      "d": 300,
      "v": 70
    },
    {
      "midi": 58,
      "hit": false,
      "t": 25500,
      "d": 300,
      "v": 70
    },
    {
      "midi": 62,
      "hit": false,
      "t": 25650,
      "d": 150,
      "v": 81
    },
    {
      "midi": 64,
      "hit": false,
      "t": 25800,
      "d": 300,
      "v": 82
    },
    {
      "midi": 62,
      "hit": false,
      "t": 26100,
      "d": 150,
      "v": 67
    },
    {
      "midi": 52,
      "hit": false,
      "t": 26100,
      "d": 300,
      "v": 78
    },
    {
      "midi": 58,
      "hit": false,
      "t": 26100,
      "d": 300,
      "v": 78
    },
    {
      "midi": 60,
      "hit": false,
      "t": 26250,
      "d": 150,
      "v": 72
    },
    {
      "midi": 65,
      "hit": false,
      "t": 26400,
      "d": 1200,
      "v": 86
    },
    {
      "midi": 53,
      "hit": false,
      "t": 26400,
      "d": 300,
      "v": 83
    },
    {
      "midi": 58,
      "hit": false,
      "t": 26700,
      "d": 300,
      "v": 69
    },
    {
      "midi": 62,
      "hit": false,
      "t": 26700,
      "d": 300,
      "v": 69
    },
    {
      "midi": 57,
      "hit": false,
      "t": 27000,
      "d": 300,
      "v": 72
    },
    {
      "midi": 60,
      "hit": false,
      "t": 27000,
      "d": 300,
      "v": 72
    },
    {
      "midi": 58,
      "hit": false,
      "t": 27300,
      "d": 300,
      "v": 83
    },
    {
      "midi": 62,
      "hit": false,
      "t": 27300,
      "d": 300,
      "v": 83
    },
    {
      "midi": 65,
      "hit": false,
      "t": 27600,
      "d": 1200,
      "v": 86
    },
    {
      "midi": 53,
      "hit": false,
      "t": 27600,
      "d": 1200,
      "v": 80
    },
    {
      "midi": 57,
      "hit": false,
      "t": 27600,
      "d": 1200,
      "v": 72
    },
    {
      "midi": 60,
      "hit": false,
      "t": 27600,
      "d": 1200,
      "v": 72
    }
  ]
}