{
  "jsonPath": "Pop/Classic Italian Pop/Giorgia/voglio-solo-te.json",
  "path": "Pop\\Classic Italian Pop\\Giorgia\\Voglio Solo Te.mid",
  "name": "Voglio Solo Te",
  "difficulty": "Advanced",
  "bpm": 117.99990166674861,
  "notes": [
    {
      "midi": 55,
      "hit": false,
      "t": 20847.475,
      "d": 1489.6728515624964,
      "v": 90
    },
    {
      "midi": 60,
      "hit": false,
      "t": 21355.949999999997,
      "d": 978.5495442708307,
      "v": 90
    },
    {
      "midi": 67,
      "hit": false,
      "t": 21864.424999999996,
      "d": 476.6953125,
      "v": 69
    },
    {
      "midi": 57,
      "hit": false,
      "t": 22372.899999999994,
      "d": 2313.2964192708314,
      "v": 69
    },
    {
      "midi": 60,
      "hit": false,
      "t": 22372.899999999994,
      "d": 2533.105924479165,
      "v": 75
    },
    {
      "midi": 36,
      "hit": false,
      "t": 22372.899999999994,
      "d": 7611.235156250001,
      "v": 62
    },
    {
      "midi": 55,
      "hit": false,
      "t": 24915.274999999994,
      "d": 1092.4267578124964,
      "v": 50
    },
    {
      "midi": 60,
      "hit": false,
      "t": 25423.749999999993,
      "d": 860.6998697916642,
      "v": 64
    },
    {
      "midi": 67,
      "hit": false,
      "t": 25932.22499999999,
      "d": 360.16979166666715,
      "v": 71
    },
    {
      "midi": 60,
      "hit": false,
      "t": 26440.699999999993,
      "d": 2432.470247395835,
      "v": 67
    },
    {
      "midi": 57,
      "hit": false,
      "t": 26440.699999999993,
      "d": 2494.705468750002,
      "v": 63
    },
    {
      "midi": 55,
      "hit": false,
      "t": 28983.074999999997,
      "d": 1034.16399739583,
      "v": 37
    },
    {
      "midi": 60,
      "hit": false,
      "t": 29491.549999999996,
      "d": 562.7652994791642,
      "v": 54
    },
    {
      "midi": 67,
      "hit": false,
      "t": 30000.024999999994,
      "d": 483.31608072916424,
      "v": 67
    },
    {
      "midi": 57,
      "hit": false,
      "t": 30508.499999999993,
      "d": 2390.0973307291642,
      "v": 69
    },
    {
      "midi": 60,
      "hit": false,
      "t": 30508.499999999993,
      "d": 2390.0973307291642,
      "v": 73
    },
    {
      "midi": 36,
      "hit": false,
      "t": 30508.499999999993,
      "d": 10165.527539062496,
      "v": 62
    },
    {
      "midi": 55,
      "hit": false,
      "t": 33050.87499999999,
      "d": 1428.7617838541628,
      "v": 40
    },
    {
      "midi": 60,
      "hit": false,
      "t": 33559.34999999999,
      "d": 950.7423177083328,
      "v": 75
    },
    {
      "midi": 67,
      "hit": false,
      "t": 34067.82499999999,
      "d": 417.1083984375,
      "v": 72
    },
    {
      "midi": 57,
      "hit": false,
      "t": 34576.29999999999,
      "d": 2390.0973307291642,
      "v": 69
    },
    {
      "midi": 60,
      "hit": false,
      "t": 34576.29999999999,
      "d": 2390.0973307291642,
      "v": 73
    },
    {
      "midi": 55,
      "hit": false,
      "t": 37118.67499999999,
      "d": 1428.7617838541628,
      "v": 55
    },
    {
      "midi": 60,
      "hit": false,
      "t": 37627.14999999999,
      "d": 950.7423177083328,
      "v": 75
    },
    {
      "midi": 67,
      "hit": false,
      "t": 38135.624999999985,
      "d": 417.1083984375,
      "v": 64
    },
    {
      "midi": 57,
      "hit": false,
      "t": 38642.775846354154,
      "d": 2390.0973307291642,
      "v": 69
    },
    {
      "midi": 60,
      "hit": false,
      "t": 38642.775846354154,
      "d": 2390.0973307291642,
      "v": 73
    },
    {
      "midi": 55,
      "hit": false,
      "t": 41186.474999999984,
      "d": 1428.7617838541628,
      "v": 55
    },
    {
      "midi": 60,
      "hit": false,
      "t": 41694.94999999998,
      "d": 950.7423177083328,
      "v": 75
    },
    {
      "midi": 67,
      "hit": false,
      "t": 42203.42499999998,
      "d": 417.1083984375,
      "v": 64
    },
    {
      "midi": 57,
      "hit": false,
      "t": 42711.89999999998,
      "d": 981.1978515625015,
      "v": 69
    },
    {
      "midi": 60,
      "hit": false,
      "t": 42711.89999999998,
      "d": 1012.9775390625,
      "v": 73
    },
    {
      "midi": 65,
      "hit": false,
      "t": 43524.93033854165,
      "d": 105.93229166666424,
      "v": 64
    },
    {
      "midi": 67,
      "hit": false,
      "t": 43636.15924479165,
      "d": 111.22890624999854,
      "v": 71
    },
    {
      "midi": 57,
      "hit": false,
      "t": 43728.84999999998,
      "d": 266.15488281250146,
      "v": 80
    },
    {
      "midi": 65,
      "hit": false,
      "t": 43728.84999999998,
      "d": 291.31380208333576,
      "v": 63
    },
    {
      "midi": 55,
      "hit": false,
      "t": 43983.08749999998,
      "d": 256.88580729167006,
      "v": 67
    },
    {
      "midi": 64,
      "hit": false,
      "t": 43983.08749999998,
      "d": 258.2099609375,
      "v": 77
    },
    {
      "midi": 57,
      "hit": false,
      "t": 44237.32499999998,
      "d": 405.1910156249942,
      "v": 71
    },
    {
      "midi": 65,
      "hit": false,
      "t": 44237.32499999998,
      "d": 427.70162760416133,
      "v": 85
    },
    {
      "midi": 36,
      "hit": false,
      "t": 44745.799999999974,
      "d": 9911.2900390625,
      "v": 62
    },
    {
      "midi": 55,
      "hit": false,
      "t": 45245.00592447914,
      "d": 1464.513932291673,
      "v": 57
    },
    {
      "midi": 60,
      "hit": false,
      "t": 45769.37076822914,
      "d": 960.0113932291715,
      "v": 66
    },
    {
      "midi": 67,
      "hit": false,
      "t": 46256.65930989581,
      "d": 487.2885416666686,
      "v": 74
    },
    {
      "midi": 57,
      "hit": false,
      "t": 46779.69999999998,
      "d": 2313.2964192708314,
      "v": 69
    },
    {
      "midi": 60,
      "hit": false,
      "t": 46779.69999999998,
      "d": 2533.1059244791613,
      "v": 75
    },
    {
      "midi": 55,
      "hit": false,
      "t": 49322.074999999975,
      "d": 1092.4267578125,
      "v": 50
    },
    {
      "midi": 60,
      "hit": false,
      "t": 49830.549999999974,
      "d": 860.6998697916715,
      "v": 64
    },
    {
      "midi": 67,
      "hit": false,
      "t": 50339.02499999997,
      "d": 360.1697916666744,
      "v": 71
    },
    {
      "midi": 60,
      "hit": false,
      "t": 50847.49999999998,
      "d": 2432.4702473958314,
      "v": 67
    },
    {
      "midi": 57,
      "hit": false,
      "t": 50847.49999999998,
      "d": 2494.7054687499985,
      "v": 63
    },
    {
      "midi": 55,
      "hit": false,
      "t": 53389.87499999998,
      "d": 1034.16399739583,
      "v": 37
    },
    {
      "midi": 60,
      "hit": false,
      "t": 53898.34999999998,
      "d": 562.7652994791642,
      "v": 54
    },
    {
      "midi": 67,
      "hit": false,
      "t": 54406.824999999975,
      "d": 483.31608072916424,
      "v": 67
    },
    {
      "midi": 57,
      "hit": false,
      "t": 54915.299999999974,
      "d": 2390.0973307291642,
      "v": 69
    },
    {
      "midi": 60,
      "hit": false,
      "t": 54915.299999999974,
      "d": 2390.0973307291642,
      "v": 73
    },
    {
      "midi": 36,
      "hit": false,
      "t": 54915.299999999974,
      "d": 10165.527539062496,
      "v": 62
    },
    {
      "midi": 55,
      "hit": false,
      "t": 57457.674999999974,
      "d": 1428.7617838541628,
      "v": 40
    },
    {
      "midi": 60,
      "hit": false,
      "t": 57966.14999999997,
      "d": 950.7423177083328,
      "v": 75
    },
    {
      "midi": 67,
      "hit": false,
      "t": 58474.62499999997,
      "d": 417.1083984375,
      "v": 72
    },
    {
      "midi": 57,
      "hit": false,
      "t": 58972.50677083331,
      "d": 914.9901692708299,
      "v": 82
    },
    {
      "midi": 60,
      "hit": false,
      "t": 58972.50677083331,
      "d": 950.7423177083328,
      "v": 93
    },
    {
      "midi": 56,
      "hit": false,
      "t": 60006.67076822914,
      "d": 967.9563151041657,
      "v": 71
    },
    {
      "midi": 65,
      "hit": false,
      "t": 60006.67076822914,
      "d": 982.5220052083314,
      "v": 64
    },
    {
      "midi": 62,
      "hit": false,
      "t": 60006.67076822914,
      "d": 995.7635416666672,
      "v": 90
    },
    {
      "midi": 55,
      "hit": false,
      "t": 61010.37923177081,
      "d": 2680.086979166663,
      "v": 69
    },
    {
      "midi": 60,
      "hit": false,
      "t": 61011.70338541664,
      "d": 2662.87298177083,
      "v": 80
    },
    {
      "midi": 55,
      "hit": false,
      "t": 64067.84999999997,
      "d": 1007.6809244791657,
      "v": 77
    },
    {
      "midi": 62,
      "hit": false,
      "t": 64081.091536458305,
      "d": 144.3327473958343,
      "v": 110
    },
    {
      "midi": 64,
      "hit": false,
      "t": 64147.29921874997,
      "d": 264.8307291666715,
      "v": 82
    },
    {
      "midi": 62,
      "hit": false,
      "t": 64322.08749999997,
      "d": 250.26503906249854,
      "v": 93
    },
    {
      "midi": 60,
      "hit": false,
      "t": 64576.32499999997,
      "d": 450.21223958333576,
      "v": 88
    },
    {
      "midi": 55,
      "hit": false,
      "t": 65084.79999999997,
      "d": 1653.867903645827,
      "v": 85
    },
    {
      "midi": 57,
      "hit": false,
      "t": 65084.79999999997,
      "d": 1826.00787760417,
      "v": 99
    },
    {
      "midi": 62,
      "hit": false,
      "t": 65084.79999999997,
      "d": 2922.407096354167,
      "v": 102
    },
    {
      "midi": 59,
      "hit": false,
      "t": 65084.79999999997,
      "d": 2947.5660156250015,
      "v": 102
    },
    {
      "midi": 31,
      "hit": false,
      "t": 65084.79999999997,
      "d": 4037.3444661458416,
      "v": 67
    },
    {
      "midi": 55,
      "hit": false,
      "t": 66864.46249999997,
      "d": 1137.4479817708343,
      "v": 77
    },
    {
      "midi": 57,
      "hit": false,
      "t": 67118.69999999997,
      "d": 922.9350911458314,
      "v": 75
    },
    {
      "midi": 55,
      "hit": false,
      "t": 68135.64999999997,
      "d": 970.6046223958401,
      "v": 75
    },
    {
      "midi": 57,
      "hit": false,
      "t": 68135.64999999997,
      "d": 975.9012369791744,
      "v": 77
    },
    {
      "midi": 59,
      "hit": false,
      "t": 68135.64999999997,
      "d": 979.8736979166715,
      "v": 85
    },
    {
      "midi": 62,
      "hit": false,
      "t": 68135.64999999997,
      "d": 997.0876953125116,
      "v": 93
    },
    {
      "midi": 60,
      "hit": false,
      "t": 69061.23339843747,
      "d": 2713.190820312506,
      "v": 85
    },
    {
      "midi": 33,
      "hit": false,
      "t": 69094.3372395833,
      "d": 4091.6347656250146,
      "v": 102
    },
    {
      "midi": 65,
      "hit": false,
      "t": 69134.06184895831,
      "d": 2803.23326822916,
      "v": 73
    },
    {
      "midi": 72,
      "hit": false,
      "t": 69201.59368489581,
      "d": 3110.436914062506,
      "v": 105
    },
    {
      "midi": 60,
      "hit": false,
      "t": 71937.29511718747,
      "d": 1218.2213541666715,
      "v": 75
    },
    {
      "midi": 65,
      "hit": false,
      "t": 72202.12584635415,
      "d": 967.9563151041657,
      "v": 67
    },
    {
      "midi": 72,
      "hit": false,
      "t": 72456.36334635415,
      "d": 703.1255859374942,
      "v": 85
    },
    {
      "midi": 62,
      "hit": false,
      "t": 73113.14355468749,
      "d": 4118.117838541657,
      "v": 99
    },
    {
      "midi": 35,
      "hit": false,
      "t": 73117.11601562498,
      "d": 3179.292903645837,
      "v": 99
    },
    {
      "midi": 67,
      "hit": false,
      "t": 73179.35123697914,
      "d": 4058.530924479157,
      "v": 75
    },
    {
      "midi": 74,
      "hit": false,
      "t": 73258.80045572914,
      "d": 3975.10924479166,
      "v": 102
    },
    {
      "midi": 43,
      "hit": false,
      "t": 76279.19492187498,
      "d": 944.1215494791686,
      "v": 85
    },
    {
      "midi": 38,
      "hit": false,
      "t": 77163.72955729165,
      "d": 4020.1304687499796,
      "v": 83
    },
    {
      "midi": 65,
      "hit": false,
      "t": 77169.02617187498,
      "d": 4120.766145833317,
      "v": 84
    },
    {
      "midi": 64,
      "hit": false,
      "t": 77198.15755208331,
      "d": 4098.255533854157,
      "v": 88
    },
    {
      "midi": 60,
      "hit": false,
      "t": 77239.20631510414,
      "d": 2419.2287109374884,
      "v": 90
    },
    {
      "midi": 57,
      "hit": false,
      "t": 77269.6618489583,
      "d": 2139.8322916666657,
      "v": 93
    },
    {
      "midi": 57,
      "hit": false,
      "t": 79576.33749999997,
      "d": 1521.4525390624913,
      "v": 75
    },
    {
      "midi": 60,
      "hit": false,
      "t": 79838.51992187496,
      "d": 1436.7067057291715,
      "v": 80
    },
    {
      "midi": 57,
      "hit": false,
      "t": 81295.08893229163,
      "d": 3012.4495442707994,
      "v": 82
    },
    {
      "midi": 59,
      "hit": false,
      "t": 81318.92369791663,
      "d": 2985.9664713541424,
      "v": 77
    },
    {
      "midi": 64,
      "hit": false,
      "t": 81391.75214843746,
      "d": 2940.945247395808,
      "v": 99
    },
    {
      "midi": 49,
      "hit": false,
      "t": 81419.55937499995,
      "d": 3038.9326171874854,
      "v": 92
    },
    {
      "midi": 69,
      "hit": false,
      "t": 81468.55305989578,
      "d": 2793.9641927083285,
      "v": 96
    },
    {
      "midi": 64,
      "hit": false,
      "t": 84418.76738281244,
      "d": 986.4944661458285,
      "v": 116
    },
    {
      "midi": 57,
      "hit": false,
      "t": 84421.4156901041,
      "d": 960.0113932291715,
      "v": 99
    },
    {
      "midi": 59,
      "hit": false,
      "t": 84421.4156901041,
      "d": 969.2804687500029,
      "v": 96
    },
    {
      "midi": 64,
      "hit": false,
      "t": 85423.79999999993,
      "d": 962.6597005208314,
      "v": 109
    },
    {
      "midi": 59,
      "hit": false,
      "t": 85423.79999999993,
      "d": 1902.808789062503,
      "v": 109
    },
    {
      "midi": 56,
      "hit": false,
      "t": 86440.74999999993,
      "d": 929.5558593750029,
      "v": 101
    },
    {
      "midi": 59,
      "hit": false,
      "t": 87386.19570312493,
      "d": 1909.4295572916453,
      "v": 108
    },
    {
      "midi": 61,
      "hit": false,
      "t": 87415.32708333326,
      "d": 1906.7812499999854,
      "v": 101
    },
    {
      "midi": 42,
      "hit": false,
      "t": 87457.69999999992,
      "d": 1803.4972656249884,
      "v": 98
    },
    {
      "midi": 64,
      "hit": false,
      "t": 87473.58984374993,
      "d": 1837.925260416654,
      "v": 102
    },
    {
      "midi": 68,
      "hit": false,
      "t": 87527.8801432291,
      "d": 969.2804687499884,
      "v": 89
    },
    {
      "midi": 69,
      "hit": false,
      "t": 88460.08430989576,
      "d": 850.1066406249884,
      "v": 96
    },
    {
      "midi": 66,
      "hit": false,
      "t": 88474.64999999992,
      "d": 828.9201822916511,
      "v": 81
    },
    {
      "midi": 47,
      "hit": false,
      "t": 89491.59999999992,
      "d": 1988.8787760416599,
      "v": 99
    },
    {
      "midi": 57,
      "hit": false,
      "t": 89491.59999999992,
      "d": 1991.5270833333198,
      "v": 113
    },
    {
      "midi": 64,
      "hit": false,
      "t": 89491.59999999992,
      "d": 1998.1478515624913,
      "v": 116
    },
    {
      "midi": 59,
      "hit": false,
      "t": 89491.59999999992,
      "d": 2008.7410807291599,
      "v": 116
    },
    {
      "midi": 56,
      "hit": false,
      "t": 91525.49999999991,
      "d": 1962.3957031250175,
      "v": 92
    },
    {
      "midi": 59,
      "hit": false,
      "t": 92033.97499999992,
      "d": 1398.3062500000087,
      "v": 93
    },
    {
      "midi": 64,
      "hit": false,
      "t": 92542.44999999992,
      "d": 997.0876953125116,
      "v": 110
    },
    {
      "midi": 71,
      "hit": false,
      "t": 93050.92499999993,
      "d": 471.3986979166657,
      "v": 102
    },
    {
      "midi": 59,
      "hit": false,
      "t": 93468.03339843743,
      "d": 3471.9308593750175,
      "v": 96
    },
    {
      "midi": 61,
      "hit": false,
      "t": 93513.05462239576,
      "d": 3505.034700520846,
      "v": 93
    },
    {
      "midi": 64,
      "hit": false,
      "t": 93571.31738281244,
      "d": 3507.683007812506,
      "v": 97
    },
    {
      "midi": 66,
      "hit": false,
      "t": 95573.43769531244,
      "d": 1622.088216145843,
      "v": 90
    },
    {
      "midi": 66,
      "hit": false,
      "t": 97625.87584635412,
      "d": 1979.6097005208285,
      "v": 81
    },
    {
      "midi": 57,
      "hit": false,
      "t": 97628.52415364578,
      "d": 1926.6435546875,
      "v": 105
    },
    {
      "midi": 62,
      "hit": false,
      "t": 97628.52415364578,
      "d": 1990.202929687497,
      "v": 118
    },
    {
      "midi": 59,
      "hit": false,
      "t": 97636.46907552077,
      "d": 1922.671093750003,
      "v": 108
    },
    {
      "midi": 64,
      "hit": false,
      "t": 99662.42415364577,
      "d": 1009.0050781249884,
      "v": 105
    },
    {
      "midi": 56,
      "hit": false,
      "t": 99671.6932291666,
      "d": 1884.270638020811,
      "v": 86
    },
    {
      "midi": 59,
      "hit": false,
      "t": 99673.01738281244,
      "d": 1880.298177083314,
      "v": 102
    },
    {
      "midi": 62,
      "hit": false,
      "t": 100668.7809244791,
      "d": 924.259244791654,
      "v": 113
    },
    {
      "midi": 59,
      "hit": false,
      "t": 101694.99999999991,
      "d": 1175.848437499997,
      "v": 102
    },
    {
      "midi": 61,
      "hit": false,
      "t": 101694.99999999991,
      "d": 1394.333789062497,
      "v": 105
    },
    {
      "midi": 68,
      "hit": false,
      "t": 101694.99999999991,
      "d": 1706.8340494791628,
      "v": 101
    },
    {
      "midi": 64,
      "hit": false,
      "t": 101694.99999999991,
      "d": 1898.8363281249913,
      "v": 105
    },
    {
      "midi": 59,
      "hit": false,
      "t": 102966.18749999991,
      "d": 672.6700520833256,
      "v": 102
    },
    {
      "midi": 61,
      "hit": false,
      "t": 103347.54374999991,
      "d": 1210.2764322916773,
      "v": 35
    },
    {
      "midi": 59,
      "hit": false,
      "t": 103728.8999999999,
      "d": 811.7061848958401,
      "v": 102
    },
    {
      "midi": 64,
      "hit": false,
      "t": 103728.8999999999,
      "d": 846.1341796875204,
      "v": 71
    },
    {
      "midi": 69,
      "hit": false,
      "t": 103728.8999999999,
      "d": 883.2104817708605,
      "v": 99
    },
    {
      "midi": 64,
      "hit": false,
      "t": 104757.76738281244,
      "d": 986.4944661458285,
      "v": 116
    },
    {
      "midi": 57,
      "hit": false,
      "t": 104760.4156901041,
      "d": 960.0113932291715,
      "v": 99
    },
    {
      "midi": 59,
      "hit": false,
      "t": 104760.4156901041,
      "d": 969.2804687500029,
      "v": 96
    },
    {
      "midi": 64,
      "hit": false,
      "t": 105762.79999999993,
      "d": 962.6597005208314,
      "v": 109
    },
    {
      "midi": 59,
      "hit": false,
      "t": 105762.79999999993,
      "d": 1902.808789062503,
      "v": 109
    },
    {
      "midi": 56,
      "hit": false,
      "t": 106779.74999999993,
      "d": 929.5558593750029,
      "v": 101
    },
    {
      "midi": 59,
      "hit": false,
      "t": 107725.19570312493,
      "d": 1909.4295572916453,
      "v": 108
    },
    {
      "midi": 61,
      "hit": false,
      "t": 107754.32708333326,
      "d": 1906.7812499999854,
      "v": 101
    },
    {
      "midi": 42,
      "hit": false,
      "t": 107796.69999999992,
      "d": 1803.4972656249884,
      "v": 98
    },
    {
      "midi": 64,
      "hit": false,
      "t": 107812.58984374993,
      "d": 1837.925260416654,
      "v": 102
    },
    {
      "midi": 68,
      "hit": false,
      "t": 107866.8801432291,
      "d": 969.2804687499884,
      "v": 89
    },
    {
      "midi": 69,
      "hit": false,
      "t": 108799.08430989576,
      "d": 850.1066406249884,
      "v": 96
    },
    {
      "midi": 66,
      "hit": false,
      "t": 108813.64999999992,
      "d": 828.9201822916511,
      "v": 81
    },
    {
      "midi": 47,
      "hit": false,
      "t": 109830.59999999992,
      "d": 1988.8787760416599,
      "v": 99
    },
    {
      "midi": 57,
      "hit": false,
      "t": 109830.59999999992,
      "d": 1991.5270833333198,
      "v": 113
    },
    {
      "midi": 64,
      "hit": false,
      "t": 109830.59999999992,
      "d": 1998.1478515624913,
      "v": 116
    },
    {
      "midi": 59,
      "hit": false,
      "t": 109830.59999999992,
      "d": 2008.7410807291599,
      "v": 116
    },
    {
      "midi": 56,
      "hit": false,
      "t": 111864.49999999991,
      "d": 1962.3957031250175,
      "v": 92
    },
    {
      "midi": 59,
      "hit": false,
      "t": 112372.97499999992,
      "d": 1398.3062500000087,
      "v": 93
    },
    {
      "midi": 64,
      "hit": false,
      "t": 112881.44999999992,
      "d": 997.0876953125116,
      "v": 110
    },
    {
      "midi": 71,
      "hit": false,
      "t": 113389.92499999993,
      "d": 471.3986979166657,
      "v": 102
    },
    {
      "midi": 53,
      "hit": false,
      "t": 113898.39999999994,
      "d": 671.3458984375029,
      "v": 88
    },
    {
      "midi": 57,
      "hit": false,
      "t": 113898.39999999994,
      "d": 1032.83984375,
      "v": 105
    },
    {
      "midi": 64,
      "hit": false,
      "t": 113898.39999999994,
      "d": 2224.578125,
      "v": 85
    },
    {
      "midi": 60,
      "hit": false,
      "t": 113898.39999999994,
      "d": 3740.7340494791715,
      "v": 105
    },
    {
      "midi": 41,
      "hit": false,
      "t": 113898.39999999994,
      "d": 3910.22571614584,
      "v": 110
    },
    {
      "midi": 53,
      "hit": false,
      "t": 114915.34999999993,
      "d": 2748.9429687500087,
      "v": 93
    },
    {
      "midi": 57,
      "hit": false,
      "t": 115423.82499999994,
      "d": 2290.7858072916715,
      "v": 96
    },
    {
      "midi": 64,
      "hit": false,
      "t": 116440.77499999994,
      "d": 1316.2087239583343,
      "v": 99
    },
    {
      "midi": 55,
      "hit": false,
      "t": 117966.19999999994,
      "d": 1582.3636067708285,
      "v": 90
    },
    {
      "midi": 60,
      "hit": false,
      "t": 117966.19999999994,
      "d": 2367.586718749997,
      "v": 113
    },
    {
      "midi": 62,
      "hit": false,
      "t": 117966.19999999994,
      "d": 2457.6291666666657,
      "v": 110
    },
    {
      "midi": 64,
      "hit": false,
      "t": 117966.19999999994,
      "d": 2979.345703125,
      "v": 105
    },
    {
      "midi": 36,
      "hit": false,
      "t": 117966.19999999994,
      "d": 3951.274479166663,
      "v": 73
    },
    {
      "midi": 55,
      "hit": false,
      "t": 119745.86249999993,
      "d": 1199.6832031250087,
      "v": 77
    },
    {
      "midi": 60,
      "hit": false,
      "t": 120508.57499999994,
      "d": 454.1847005208401,
      "v": 88
    },
    {
      "midi": 64,
      "hit": false,
      "t": 121017.04999999994,
      "d": 863.3481770833314,
      "v": 66
    },
    {
      "midi": 55,
      "hit": false,
      "t": 121017.04999999994,
      "d": 873.94140625,
      "v": 77
    },
    {
      "midi": 60,
      "hit": false,
      "t": 121017.04999999994,
      "d": 892.4795572916628,
      "v": 99
    },
    {
      "midi": 62,
      "hit": false,
      "t": 121017.04999999994,
      "d": 908.3694010416511,
      "v": 108
    },
    {
      "midi": 53,
      "hit": false,
      "t": 122033.99999999993,
      "d": 1402.2787109375058,
      "v": 90
    },
    {
      "midi": 57,
      "hit": false,
      "t": 122033.99999999993,
      "d": 1545.287304687503,
      "v": 96
    },
    {
      "midi": 64,
      "hit": false,
      "t": 122033.99999999993,
      "d": 3592.42884114584,
      "v": 88
    },
    {
      "midi": 60,
      "hit": false,
      "t": 122033.99999999993,
      "d": 3599.0496093750116,
      "v": 99
    },
    {
      "midi": 41,
      "hit": false,
      "t": 122033.99999999993,
      "d": 3735.4374348958518,
      "v": 105
    },
    {
      "midi": 53,
      "hit": false,
      "t": 123559.42499999993,
      "d": 2019.334309895843,
      "v": 77
    },
    {
      "midi": 57,
      "hit": false,
      "t": 124067.89999999994,
      "d": 1550.5839192708372,
      "v": 85
    },
    {
      "midi": 55,
      "hit": false,
      "t": 126101.79999999994,
      "d": 1344.0159505208285,
      "v": 69
    },
    {
      "midi": 60,
      "hit": false,
      "t": 126101.79999999994,
      "d": 1827.3320312499854,
      "v": 88
    },
    {
      "midi": 62,
      "hit": false,
      "t": 126101.79999999994,
      "d": 2213.9848958333314,
      "v": 85
    },
    {
      "midi": 64,
      "hit": false,
      "t": 126101.79999999994,
      "d": 2631.0932942708314,
      "v": 90
    },
    {
      "midi": 36,
      "hit": false,
      "t": 126101.79999999994,
      "d": 3687.7679036458576,
      "v": 77
    },
    {
      "midi": 76,
      "hit": false,
      "t": 126349.41673177078,
      "d": 288.6654947916686,
      "v": 93
    },
    {
      "midi": 77,
      "hit": false,
      "t": 126627.48899739578,
      "d": 259.5341145833372,
      "v": 96
    },
    {
      "midi": 76,
      "hit": false,
      "t": 126881.72649739578,
      "d": 271.4514973958285,
      "v": 93
    },
    {
      "midi": 74,
      "hit": false,
      "t": 127158.47460937494,
      "d": 811.7061848958256,
      "v": 80
    },
    {
      "midi": 55,
      "hit": false,
      "t": 127627.22499999993,
      "d": 2210.0124348958634,
      "v": 55
    },
    {
      "midi": 60,
      "hit": false,
      "t": 128135.69999999994,
      "d": 1762.4485026041948,
      "v": 82
    },
    {
      "midi": 72,
      "hit": false,
      "t": 128376.69596354161,
      "d": 303.2311848958343,
      "v": 80
    },
    {
      "midi": 62,
      "hit": false,
      "t": 128644.17499999994,
      "d": 1271.187500000029,
      "v": 71
    },
    {
      "midi": 74,
      "hit": false,
      "t": 128662.71315104161,
      "d": 235.69934895834012,
      "v": 96
    },
    {
      "midi": 76,
      "hit": false,
      "t": 128909.00572916662,
      "d": 275.4239583333401,
      "v": 82
    },
    {
      "midi": 71,
      "hit": false,
      "t": 129201.6436848958,
      "d": 820.9752604166715,
      "v": 55
    },
    {
      "midi": 36,
      "hit": false,
      "t": 130169.59999999996,
      "d": 9911.290039062456,
      "v": 62
    },
    {
      "midi": 55,
      "hit": false,
      "t": 130668.80592447912,
      "d": 1464.5139322916511,
      "v": 57
    },
    {
      "midi": 60,
      "hit": false,
      "t": 131193.17076822912,
      "d": 960.011393229157,
      "v": 66
    },
    {
      "midi": 67,
      "hit": false,
      "t": 131680.45930989578,
      "d": 487.2885416666686,
      "v": 74
    },
    {
      "midi": 57,
      "hit": false,
      "t": 132203.49999999994,
      "d": 2313.2964192708314,
      "v": 69
    },
    {
      "midi": 60,
      "hit": false,
      "t": 132203.49999999994,
      "d": 2533.1059244791686,
      "v": 75
    },
    {
      "midi": 55,
      "hit": false,
      "t": 134745.87499999994,
      "d": 1092.4267578125,
      "v": 50
    },
    {
      "midi": 60,
      "hit": false,
      "t": 135254.34999999995,
      "d": 860.699869791657,
      "v": 64
    },
    {
      "midi": 67,
      "hit": false,
      "t": 135762.82499999995,
      "d": 360.1697916666453,
      "v": 71
    },
    {
      "midi": 60,
      "hit": false,
      "t": 136271.29999999993,
      "d": 2432.4702473958314,
      "v": 67
    },
    {
      "midi": 57,
      "hit": false,
      "t": 136271.29999999993,
      "d": 2494.705468750006,
      "v": 63
    },
    {
      "midi": 55,
      "hit": false,
      "t": 138813.67499999993,
      "d": 1034.1639973958372,
      "v": 37
    },
    {
      "midi": 60,
      "hit": false,
      "t": 139322.14999999994,
      "d": 562.765299479157,
      "v": 54
    },
    {
      "midi": 67,
      "hit": false,
      "t": 139830.62499999994,
      "d": 483.31608072915697,
      "v": 67
    },
    {
      "midi": 57,
      "hit": false,
      "t": 140339.09999999992,
      "d": 2390.097330729157,
      "v": 69
    },
    {
      "midi": 60,
      "hit": false,
      "t": 140339.09999999992,
      "d": 2390.097330729157,
      "v": 73
    },
    {
      "midi": 36,
      "hit": false,
      "t": 140339.09999999992,
      "d": 10165.527539062517,
      "v": 62
    },
    {
      "midi": 55,
      "hit": false,
      "t": 142881.47499999992,
      "d": 1428.761783854192,
      "v": 40
    },
    {
      "midi": 60,
      "hit": false,
      "t": 143389.94999999992,
      "d": 950.7423177083256,
      "v": 75
    },
    {
      "midi": 67,
      "hit": false,
      "t": 143898.42499999993,
      "d": 417.1083984375,
      "v": 72
    },
    {
      "midi": 57,
      "hit": false,
      "t": 144396.30677083324,
      "d": 914.9901692708372,
      "v": 82
    },
    {
      "midi": 60,
      "hit": false,
      "t": 144396.30677083324,
      "d": 950.7423177083256,
      "v": 93
    },
    {
      "midi": 56,
      "hit": false,
      "t": 145430.47076822908,
      "d": 967.9563151041802,
      "v": 71
    },
    {
      "midi": 65,
      "hit": false,
      "t": 145430.47076822908,
      "d": 982.5220052083605,
      "v": 64
    },
    {
      "midi": 62,
      "hit": false,
      "t": 145430.47076822908,
      "d": 995.7635416667035,
      "v": 90
    },
    {
      "midi": 55,
      "hit": false,
      "t": 146434.17923177077,
      "d": 2680.086979166663,
      "v": 69
    },
    {
      "midi": 60,
      "hit": false,
      "t": 146435.5033854166,
      "d": 2662.872981770837,
      "v": 80
    },
    {
      "midi": 55,
      "hit": false,
      "t": 149491.64999999994,
      "d": 1007.6809244791802,
      "v": 77
    },
    {
      "midi": 62,
      "hit": false,
      "t": 149504.89153645828,
      "d": 144.33274739581975,
      "v": 110
    },
    {
      "midi": 64,
      "hit": false,
      "t": 149571.09921874994,
      "d": 264.83072916665697,
      "v": 82
    },
    {
      "midi": 62,
      "hit": false,
      "t": 149745.88749999992,
      "d": 250.26503906250582,
      "v": 93
    },
    {
      "midi": 60,
      "hit": false,
      "t": 150000.12499999994,
      "d": 450.21223958334303,
      "v": 88
    },
    {
      "midi": 55,
      "hit": false,
      "t": 150508.59999999995,
      "d": 1653.8679036458198,
      "v": 85
    },
    {
      "midi": 57,
      "hit": false,
      "t": 150508.59999999995,
      "d": 1826.0078776041337,
      "v": 99
    },
    {
      "midi": 62,
      "hit": false,
      "t": 150508.59999999995,
      "d": 2922.407096354116,
      "v": 102
    },
    {
      "midi": 59,
      "hit": false,
      "t": 150508.59999999995,
      "d": 2947.566015624936,
      "v": 102
    },
    {
      "midi": 31,
      "hit": false,
      "t": 150508.59999999995,
      "d": 4037.3444661457906,
      "v": 67
    },
    {
      "midi": 55,
      "hit": false,
      "t": 152288.26249999992,
      "d": 1137.4479817708198,
      "v": 77
    },
    {
      "midi": 57,
      "hit": false,
      "t": 152542.4999999999,
      "d": 922.9350911458023,
      "v": 75
    },
    {
      "midi": 55,
      "hit": false,
      "t": 153559.4499999999,
      "d": 970.6046223958547,
      "v": 75
    },
    {
      "midi": 57,
      "hit": false,
      "t": 153559.4499999999,
      "d": 975.9012369791744,
      "v": 77
    },
    {
      "midi": 59,
      "hit": false,
      "t": 153559.4499999999,
      "d": 979.8736979166861,
      "v": 85
    },
    {
      "midi": 62,
      "hit": false,
      "t": 153559.4499999999,
      "d": 997.0876953125116,
      "v": 93
    },
    {
      "midi": 60,
      "hit": false,
      "t": 154485.0333984374,
      "d": 2713.190820312506,
      "v": 85
    },
    {
      "midi": 33,
      "hit": false,
      "t": 154518.13723958324,
      "d": 4091.634765625,
      "v": 102
    },
    {
      "midi": 65,
      "hit": false,
      "t": 154557.86184895824,
      "d": 2803.2332682291744,
      "v": 73
    },
    {
      "midi": 72,
      "hit": false,
      "t": 154625.39368489574,
      "d": 3110.436914062506,
      "v": 105
    },
    {
      "midi": 60,
      "hit": false,
      "t": 157361.09511718742,
      "d": 1218.221354166657,
      "v": 75
    },
    {
      "midi": 65,
      "hit": false,
      "t": 157625.92584635408,
      "d": 967.9563151041802,
      "v": 67
    },
    {
      "midi": 72,
      "hit": false,
      "t": 157880.16334635406,
      "d": 703.1255859375233,
      "v": 85
    },
    {
      "midi": 62,
      "hit": false,
      "t": 158536.9435546874,
      "d": 4118.117838541657,
      "v": 99
    },
    {
      "midi": 35,
      "hit": false,
      "t": 158540.9160156249,
      "d": 3179.292903645837,
      "v": 99
    },
    {
      "midi": 67,
      "hit": false,
      "t": 158603.1512369791,
      "d": 4058.530924479157,
      "v": 75
    },
    {
      "midi": 74,
      "hit": false,
      "t": 158682.6004557291,
      "d": 3975.1092447916453,
      "v": 102
    },
    {
      "midi": 43,
      "hit": false,
      "t": 161702.99492187492,
      "d": 944.1215494791395,
      "v": 85
    },
    {
      "midi": 38,
      "hit": false,
      "t": 162587.5295572916,
      "d": 4020.130468749994,
      "v": 83
    },
    {
      "midi": 65,
      "hit": false,
      "t": 162592.8261718749,
      "d": 4120.7661458333605,
      "v": 84
    },
    {
      "midi": 64,
      "hit": false,
      "t": 162621.95755208324,
      "d": 4098.255533854186,
      "v": 88
    },
    {
      "midi": 60,
      "hit": false,
      "t": 162663.00631510408,
      "d": 2419.2287109375175,
      "v": 90
    },
    {
      "midi": 57,
      "hit": false,
      "t": 162693.46184895825,
      "d": 2139.8322916666802,
      "v": 93
    },
    {
      "midi": 57,
      "hit": false,
      "t": 165000.13749999992,
      "d": 1521.4525390625058,
      "v": 75
    },
    {
      "midi": 60,
      "hit": false,
      "t": 165262.31992187494,
      "d": 1436.706705729157,
      "v": 80
    },
    {
      "midi": 57,
      "hit": false,
      "t": 166718.8889322916,
      "d": 3012.449544270872,
      "v": 82
    },
    {
      "midi": 59,
      "hit": false,
      "t": 166742.7236979166,
      "d": 2985.966471354186,
      "v": 77
    },
    {
      "midi": 64,
      "hit": false,
      "t": 166815.55214843745,
      "d": 2940.945247395837,
      "v": 99
    },
    {
      "midi": 49,
      "hit": false,
      "t": 166843.35937499994,
      "d": 3038.9326171875,
      "v": 92
    },
    {
      "midi": 69,
      "hit": false,
      "t": 166892.35305989577,
      "d": 2793.964192708343,
      "v": 96
    },
    {
      "midi": 64,
      "hit": false,
      "t": 169842.56738281244,
      "d": 986.494466145843,
      "v": 116
    },
    {
      "midi": 57,
      "hit": false,
      "t": 169845.21569010412,
      "d": 960.011393229157,
      "v": 99
    },
    {
      "midi": 59,
      "hit": false,
      "t": 169845.21569010412,
      "d": 969.2804687499884,
      "v": 96
    },
    {
      "midi": 64,
      "hit": false,
      "t": 170847.59999999995,
      "d": 962.6597005208314,
      "v": 109
    },
    {
      "midi": 59,
      "hit": false,
      "t": 170847.59999999995,
      "d": 1902.8087890625175,
      "v": 109
    },
    {
      "midi": 56,
      "hit": false,
      "t": 171864.54999999996,
      "d": 929.5558593750175,
      "v": 101
    },
    {
      "midi": 59,
      "hit": false,
      "t": 172809.99570312497,
      "d": 1909.4295572917035,
      "v": 108
    },
    {
      "midi": 61,
      "hit": false,
      "t": 172839.1270833333,
      "d": 1906.781250000029,
      "v": 101
    },
    {
      "midi": 42,
      "hit": false,
      "t": 172881.49999999997,
      "d": 1803.4972656250175,
      "v": 98
    },
    {
      "midi": 64,
      "hit": false,
      "t": 172897.38984374996,
      "d": 1837.9252604166977,
      "v": 102
    },
    {
      "midi": 68,
      "hit": false,
      "t": 172951.68014322914,
      "d": 969.2804687500175,
      "v": 89
    },
    {
      "midi": 69,
      "hit": false,
      "t": 173883.8843098958,
      "d": 850.1066406250175,
      "v": 96
    },
    {
      "midi": 66,
      "hit": false,
      "t": 173898.44999999998,
      "d": 828.9201822916802,
      "v": 81
    },
    {
      "midi": 47,
      "hit": false,
      "t": 174915.4,
      "d": 1988.8787760416744,
      "v": 99
    },
    {
      "midi": 57,
      "hit": false,
      "t": 174915.4,
      "d": 1991.5270833333489,
      "v": 113
    },
    {
      "midi": 64,
      "hit": false,
      "t": 174915.4,
      "d": 1998.1478515625058,
      "v": 116
    },
    {
      "midi": 59,
      "hit": false,
      "t": 174915.4,
      "d": 2008.7410807291744,
      "v": 116
    },
    {
      "midi": 56,
      "hit": false,
      "t": 176949.3,
      "d": 1962.3957031250175,
      "v": 92
    },
    {
      "midi": 59,
      "hit": false,
      "t": 177457.775,
      "d": 1398.3062500000233,
      "v": 93
    },
    {
      "midi": 64,
      "hit": false,
      "t": 177966.25,
      "d": 997.0876953124825,
      "v": 110
    },
    {
      "midi": 71,
      "hit": false,
      "t": 178474.725,
      "d": 471.39869791665114,
      "v": 102
    },
    {
      "midi": 59,
      "hit": false,
      "t": 178891.8333984375,
      "d": 3471.9308593749593,
      "v": 96
    },
    {
      "midi": 61,
      "hit": false,
      "t": 178936.85462239583,
      "d": 3505.0347005208023,
      "v": 93
    },
    {
      "midi": 64,
      "hit": false,
      "t": 178995.1173828125,
      "d": 3507.6830078124767,
      "v": 97
    },
    {
      "midi": 66,
      "hit": false,
      "t": 180997.23769531248,
      "d": 1622.088216145814,
      "v": 90
    },
    {
      "midi": 66,
      "hit": false,
      "t": 183049.67584635413,
      "d": 1979.609700520843,
      "v": 81
    },
    {
      "midi": 57,
      "hit": false,
      "t": 183052.3241536458,
      "d": 1926.6435546875,
      "v": 105
    },
    {
      "midi": 62,
      "hit": false,
      "t": 183052.3241536458,
      "d": 1990.2029296875116,
      "v": 118
    },
    {
      "midi": 59,
      "hit": false,
      "t": 183060.2690755208,
      "d": 1922.6710937500175,
      "v": 108
    },
    {
      "midi": 64,
      "hit": false,
      "t": 185086.22415364583,
      "d": 1009.0050781250175,
      "v": 105
    },
    {
      "midi": 56,
      "hit": false,
      "t": 185095.49322916666,
      "d": 1884.2706380208547,
      "v": 86
    },
    {
      "midi": 59,
      "hit": false,
      "t": 185096.8173828125,
      "d": 1880.298177083343,
      "v": 102
    },
    {
      "midi": 62,
      "hit": false,
      "t": 186092.58092447917,
      "d": 924.2592447916686,
      "v": 113
    },
    {
      "midi": 59,
      "hit": false,
      "t": 187118.80000000002,
      "d": 1175.8484375000116,
      "v": 102
    },
    {
      "midi": 61,
      "hit": false,
      "t": 187118.80000000002,
      "d": 1394.3337890625116,
      "v": 105
    },
    {
      "midi": 68,
      "hit": false,
      "t": 187118.80000000002,
      "d": 1706.834049479192,
      "v": 101
    },
    {
      "midi": 64,
      "hit": false,
      "t": 187118.80000000002,
      "d": 1898.836328125035,
      "v": 105
    },
    {
      "midi": 59,
      "hit": false,
      "t": 188389.98750000002,
      "d": 672.6700520833547,
      "v": 102
    },
    {
      "midi": 61,
      "hit": false,
      "t": 188771.34375000003,
      "d": 1210.2764322916628,
      "v": 35
    },
    {
      "midi": 59,
      "hit": false,
      "t": 189152.70000000004,
      "d": 811.7061848958256,
      "v": 102
    },
    {
      "midi": 64,
      "hit": false,
      "t": 189152.70000000004,
      "d": 846.1341796874767,
      "v": 71
    },
    {
      "midi": 69,
      "hit": false,
      "t": 189152.70000000004,
      "d": 883.2104817708023,
      "v": 99
    },
    {
      "midi": 64,
      "hit": false,
      "t": 190181.5673828125,
      "d": 986.494466145843,
      "v": 116
    },
    {
      "midi": 57,
      "hit": false,
      "t": 190184.21569010417,
      "d": 960.011393229157,
      "v": 99
    },
    {
      "midi": 59,
      "hit": false,
      "t": 190184.21569010417,
      "d": 969.2804687499884,
      "v": 96
    },
    {
      "midi": 64,
      "hit": false,
      "t": 191186.6,
      "d": 962.6597005208314,
      "v": 109
    },
    {
      "midi": 59,
      "hit": false,
      "t": 191186.6,
      "d": 1902.8087890625175,
      "v": 109
    },
    {
      "midi": 56,
      "hit": false,
      "t": 192203.55000000002,
      "d": 929.5558593750175,
      "v": 101
    },
    {
      "midi": 59,
      "hit": false,
      "t": 193148.99570312502,
      "d": 1909.4295572917035,
      "v": 108
    },
    {
      "midi": 61,
      "hit": false,
      "t": 193178.12708333335,
      "d": 1906.781250000029,
      "v": 101
    },
    {
      "midi": 42,
      "hit": false,
      "t": 193220.50000000003,
      "d": 1803.4972656250175,
      "v": 98
    },
    {
      "midi": 64,
      "hit": false,
      "t": 193236.38984375002,
      "d": 1837.9252604166977,
      "v": 102
    },
    {
      "midi": 68,
      "hit": false,
      "t": 193290.6801432292,
      "d": 969.2804687500175,
      "v": 89
    },
    {
      "midi": 69,
      "hit": false,
      "t": 194222.88430989586,
      "d": 850.1066406250175,
      "v": 96
    },
    {
      "midi": 66,
      "hit": false,
      "t": 194237.45000000004,
      "d": 828.9201822916802,
      "v": 81
    },
    {
      "midi": 47,
      "hit": false,
      "t": 195254.40000000005,
      "d": 1988.8787760416744,
      "v": 99
    },
    {
      "midi": 57,
      "hit": false,
      "t": 195254.40000000005,
      "d": 1991.5270833333489,
      "v": 113
    },
    {
      "midi": 64,
      "hit": false,
      "t": 195254.40000000005,
      "d": 1998.1478515625058,
      "v": 116
    },
    {
      "midi": 59,
      "hit": false,
      "t": 195254.40000000005,
      "d": 2008.7410807291744,
      "v": 116
    },
    {
      "midi": 57,
      "hit": false,
      "t": 197288.30000000005,
      "d": 1306.9396484374884,
      "v": 113
    },
    {
      "midi": 64,
      "hit": false,
      "t": 197288.30000000005,
      "d": 2021.9826171874884,
      "v": 116
    },
    {
      "midi": 59,
      "hit": false,
      "t": 197288.30000000005,
      "d": 2023.3067708333256,
      "v": 116
    },
    {
      "midi": 49,
      "hit": false,
      "t": 197288.30000000005,
      "d": 2036.5483072916686,
      "v": 109
    },
    {
      "midi": 61,
      "hit": false,
      "t": 197288.30000000005,
      "d": 2048.4656901041744,
      "v": 119
    },
    {
      "midi": 57,
      "hit": false,
      "t": 198813.72500000003,
      "d": 462.12962239581975,
      "v": 105
    },
    {
      "midi": 54,
      "hit": false,
      "t": 199322.20000000004,
      "d": 1387.7130208333547,
      "v": 81
    },
    {
      "midi": 57,
      "hit": false,
      "t": 199322.20000000004,
      "d": 2003.4444661458547,
      "v": 96
    },
    {
      "midi": 62,
      "hit": false,
      "t": 199322.20000000004,
      "d": 2014.0376953125233,
      "v": 108
    },
    {
      "midi": 64,
      "hit": false,
      "t": 199322.20000000004,
      "d": 2014.0376953125233,
      "v": 99
    },
    {
      "midi": 38,
      "hit": false,
      "t": 199322.20000000004,
      "d": 2037.872460937535,
      "v": 105
    },
    {
      "midi": 54,
      "hit": false,
      "t": 200847.62500000006,
      "d": 480.66777343751164,
      "v": 79
    },
    {
      "midi": 57,
      "hit": false,
      "t": 201356.10000000006,
      "d": 838.1892578125116,
      "v": 99
    },
    {
      "midi": 40,
      "hit": false,
      "t": 201356.10000000006,
      "d": 1909.4295572917035,
      "v": 105
    },
    {
      "midi": 62,
      "hit": false,
      "t": 201356.10000000006,
      "d": 1927.9677083333663,
      "v": 108
    },
    {
      "midi": 64,
      "hit": false,
      "t": 201356.10000000006,
      "d": 1941.2092447917094,
      "v": 99
    },
    {
      "midi": 66,
      "hit": false,
      "t": 201356.10000000006,
      "d": 1998.147851562535,
      "v": 69
    },
    {
      "midi": 56,
      "hit": false,
      "t": 202373.05000000008,
      "d": 877.9138671875116,
      "v": 75
    },
    {
      "midi": 53,
      "hit": false,
      "t": 203390.0000000001,
      "d": 671.3458984374884,
      "v": 88
    },
    {
      "midi": 57,
      "hit": false,
      "t": 203390.0000000001,
      "d": 1032.839843749971,
      "v": 105
    },
    {
      "midi": 64,
      "hit": false,
      "t": 203390.0000000001,
      "d": 2224.578124999971,
      "v": 85
    },
    {
      "midi": 60,
      "hit": false,
      "t": 203390.0000000001,
      "d": 3740.734049479128,
      "v": 105
    },
    {
      "midi": 41,
      "hit": false,
      "t": 203390.0000000001,
      "d": 3910.2257161457965,
      "v": 110
    },
    {
      "midi": 53,
      "hit": false,
      "t": 204406.95000000007,
      "d": 2748.942968749965,
      "v": 93
    },
    {
      "midi": 57,
      "hit": false,
      "t": 204915.42500000005,
      "d": 2290.785807291657,
      "v": 96
    },
    {
      "midi": 64,
      "hit": false,
      "t": 205932.37500000006,
      "d": 1316.2087239583198,
      "v": 99
    },
    {
      "midi": 55,
      "hit": false,
      "t": 207457.80000000005,
      "d": 1582.363606770843,
      "v": 90
    },
    {
      "midi": 60,
      "hit": false,
      "t": 207457.80000000005,
      "d": 2367.5867187500116,
      "v": 113
    },
    {
      "midi": 62,
      "hit": false,
      "t": 207457.80000000005,
      "d": 2457.6291666666802,
      "v": 110
    },
    {
      "midi": 64,
      "hit": false,
      "t": 207457.80000000005,
      "d": 2979.345703125,
      "v": 105
    },
    {
      "midi": 36,
      "hit": false,
      "t": 207457.80000000005,
      "d": 3951.274479166663,
      "v": 73
    },
    {
      "midi": 55,
      "hit": false,
      "t": 209237.46250000005,
      "d": 1199.6832031249942,
      "v": 77
    },
    {
      "midi": 60,
      "hit": false,
      "t": 210000.17500000005,
      "d": 454.1847005208256,
      "v": 88
    },
    {
      "midi": 64,
      "hit": false,
      "t": 210508.65000000005,
      "d": 863.3481770833314,
      "v": 66
    },
    {
      "midi": 55,
      "hit": false,
      "t": 210508.65000000005,
      "d": 873.94140625,
      "v": 77
    },
    {
      "midi": 60,
      "hit": false,
      "t": 210508.65000000005,
      "d": 892.4795572916628,
      "v": 99
    },
    {
      "midi": 62,
      "hit": false,
      "t": 210508.65000000005,
      "d": 908.3694010416511,
      "v": 108
    },
    {
      "midi": 53,
      "hit": false,
      "t": 211525.60000000003,
      "d": 1402.2787109375058,
      "v": 90
    },
    {
      "midi": 57,
      "hit": false,
      "t": 211525.60000000003,
      "d": 1545.2873046875175,
      "v": 96
    },
    {
      "midi": 64,
      "hit": false,
      "t": 211525.60000000003,
      "d": 3592.4288411458547,
      "v": 88
    },
    {
      "midi": 60,
      "hit": false,
      "t": 211525.60000000003,
      "d": 3599.0496093750116,
      "v": 99
    },
    {
      "midi": 41,
      "hit": false,
      "t": 211525.60000000003,
      "d": 3735.437434895837,
      "v": 105
    },
    {
      "midi": 53,
      "hit": false,
      "t": 213051.02500000005,
      "d": 2019.334309895843,
      "v": 77
    },
    {
      "midi": 57,
      "hit": false,
      "t": 213559.50000000006,
      "d": 1550.5839192708372,
      "v": 85
    },
    {
      "midi": 55,
      "hit": false,
      "t": 215593.40000000005,
      "d": 1344.0159505207848,
      "v": 69
    },
    {
      "midi": 60,
      "hit": false,
      "t": 215593.40000000005,
      "d": 1827.332031249971,
      "v": 88
    },
    {
      "midi": 62,
      "hit": false,
      "t": 215593.40000000005,
      "d": 2213.9848958333023,
      "v": 85
    },
    {
      "midi": 64,
      "hit": false,
      "t": 215593.40000000005,
      "d": 2631.0932942708023,
      "v": 90
    },
    {
      "midi": 36,
      "hit": false,
      "t": 215593.40000000005,
      "d": 3687.767903645785,
      "v": 77
    },
    {
      "midi": 76,
      "hit": false,
      "t": 215841.01673177088,
      "d": 288.6654947916686,
      "v": 93
    },
    {
      "midi": 77,
      "hit": false,
      "t": 216119.08899739588,
      "d": 259.5341145833081,
      "v": 96
    },
    {
      "midi": 76,
      "hit": false,
      "t": 216373.32649739587,
      "d": 271.45149739581393,
      "v": 93
    },
    {
      "midi": 74,
      "hit": false,
      "t": 216650.074609375,
      "d": 811.7061848958547,
      "v": 80
    },
    {
      "midi": 55,
      "hit": false,
      "t": 217118.825,
      "d": 2210.0124348958198,
      "v": 55
    },
    {
      "midi": 60,
      "hit": false,
      "t": 217627.30000000002,
      "d": 1762.4485026041511,
      "v": 82
    },
    {
      "midi": 72,
      "hit": false,
      "t": 217868.2959635417,
      "d": 303.23118489581975,
      "v": 80
    },
    {
      "midi": 62,
      "hit": false,
      "t": 218135.77500000002,
      "d": 1271.187499999971,
      "v": 71
    },
    {
      "midi": 74,
      "hit": false,
      "t": 218154.3131510417,
      "d": 235.69934895832557,
      "v": 96
    },
    {
      "midi": 76,
      "hit": false,
      "t": 218400.60572916668,
      "d": 275.4239583333256,
      "v": 82
    },
    {
      "midi": 71,
      "hit": false,
      "t": 218693.24368489583,
      "d": 820.975260416657,
      "v": 55
    },
    {
      "midi": 53,
      "hit": false,
      "t": 219661.19999999998,
      "d": 671.3458984375175,
      "v": 88
    },
    {
      "midi": 57,
      "hit": false,
      "t": 219661.19999999998,
      "d": 1032.83984375,
      "v": 105
    },
    {
      "midi": 64,
      "hit": false,
      "t": 219661.19999999998,
      "d": 2224.578125,
      "v": 85
    },
    {
      "midi": 60,
      "hit": false,
      "t": 219661.19999999998,
      "d": 3740.734049479128,
      "v": 105
    },
    {
      "midi": 41,
      "hit": false,
      "t": 219661.19999999998,
      "d": 3910.2257161457965,
      "v": 110
    },
    {
      "midi": 79,
      "hit": false,
      "t": 219911.4650390625,
      "d": 170.81582031250582,
      "v": 77
    },
    {
      "midi": 79,
      "hit": false,
      "t": 220181.5923828125,
      "d": 140.3602864583372,
      "v": 93
    },
    {
      "midi": 79,
      "hit": false,
      "t": 220422.58834635417,
      "d": 128.4429036458314,
      "v": 116
    },
    {
      "midi": 79,
      "hit": false,
      "t": 220671.52923177084,
      "d": 716.3671223958081,
      "v": 127
    },
    {
      "midi": 53,
      "hit": false,
      "t": 220678.15,
      "d": 2748.942968749936,
      "v": 93
    },
    {
      "midi": 57,
      "hit": false,
      "t": 221186.62499999997,
      "d": 2290.785807291628,
      "v": 96
    },
    {
      "midi": 77,
      "hit": false,
      "t": 221406.4345052083,
      "d": 156.25013020832557,
      "v": 67
    },
    {
      "midi": 77,
      "hit": false,
      "t": 221685.83092447915,
      "d": 260.8582682291744,
      "v": 116
    },
    {
      "midi": 76,
      "hit": false,
      "t": 221971.84811197914,
      "d": 366.7905598958314,
      "v": 102
    },
    {
      "midi": 64,
      "hit": false,
      "t": 222203.57499999998,
      "d": 1316.2087239582906,
      "v": 99
    },
    {
      "midi": 76,
      "hit": false,
      "t": 222435.3018880208,
      "d": 169.4916666666686,
      "v": 71
    },
    {
      "midi": 76,
      "hit": false,
      "t": 222712.04999999996,
      "d": 259.5341145833372,
      "v": 90
    },
    {
      "midi": 74,
      "hit": false,
      "t": 222978.20488281245,
      "d": 581.3034505208198,
      "v": 67
    },
    {
      "midi": 55,
      "hit": false,
      "t": 223728.99999999994,
      "d": 1582.363606770843,
      "v": 90
    },
    {
      "midi": 60,
      "hit": false,
      "t": 223728.99999999994,
      "d": 2367.5867187499825,
      "v": 113
    },
    {
      "midi": 62,
      "hit": false,
      "t": 223728.99999999994,
      "d": 2457.629166666651,
      "v": 110
    },
    {
      "midi": 64,
      "hit": false,
      "t": 223728.99999999994,
      "d": 2979.345703124971,
      "v": 105
    },
    {
      "midi": 36,
      "hit": false,
      "t": 223728.99999999994,
      "d": 3951.2744791666337,
      "v": 73
    },
    {
      "midi": 77,
      "hit": false,
      "t": 224046.79687499994,
      "d": 262.18242187501164,
      "v": 102
    },
    {
      "midi": 77,
      "hit": false,
      "t": 224428.15312499995,
      "d": 205.24381510415697,
      "v": 127
    },
    {
      "midi": 77,
      "hit": false,
      "t": 224747.2741536458,
      "d": 279.3964192708372,
      "v": 127
    },
    {
      "midi": 76,
      "hit": false,
      "t": 225104.7956380208,
      "d": 237.0235026041628,
      "v": 110
    },
    {
      "midi": 76,
      "hit": false,
      "t": 225442.4548177083,
      "d": 223.78196614581975,
      "v": 125
    },
    {
      "midi": 55,
      "hit": false,
      "t": 225508.66249999995,
      "d": 1199.683203124965,
      "v": 77
    },
    {
      "midi": 76,
      "hit": false,
      "t": 225774.81738281244,
      "d": 305.8794921874942,
      "v": 127
    },
    {
      "midi": 74,
      "hit": false,
      "t": 226112.4765624999,
      "d": 268.8031901041686,
      "v": 82
    },
    {
      "midi": 60,
      "hit": false,
      "t": 226271.3749999999,
      "d": 454.1847005208256,
      "v": 88
    },
    {
      "midi": 74,
      "hit": false,
      "t": 226491.18450520825,
      "d": 227.7544270833314,
      "v": 77
    },
    {
      "midi": 64,
      "hit": false,
      "t": 226779.84999999992,
      "d": 863.3481770833314,
      "v": 66
    },
    {
      "midi": 55,
      "hit": false,
      "t": 226779.84999999992,
      "d": 873.94140625,
      "v": 77
    },
    {
      "midi": 60,
      "hit": false,
      "t": 226779.84999999992,
      "d": 892.4795572916628,
      "v": 99
    },
    {
      "midi": 62,
      "hit": false,
      "t": 226779.84999999992,
      "d": 908.3694010416511,
      "v": 108
    },
    {
      "midi": 74,
      "hit": false,
      "t": 226828.84368489575,
      "d": 286.0171874999942,
      "v": 73
    },
    {
      "midi": 72,
      "hit": false,
      "t": 227154.58548177074,
      "d": 389.3011718750058,
      "v": 56
    },
    {
      "midi": 53,
      "hit": false,
      "t": 227796.7999999999,
      "d": 1402.2787109375058,
      "v": 90
    },
    {
      "midi": 57,
      "hit": false,
      "t": 227796.7999999999,
      "d": 1545.2873046874884,
      "v": 96
    },
    {
      "midi": 64,
      "hit": false,
      "t": 227796.7999999999,
      "d": 3592.4288411457965,
      "v": 88
    },
    {
      "midi": 60,
      "hit": false,
      "t": 227796.7999999999,
      "d": 3599.0496093749534,
      "v": 99
    },
    {
      "midi": 41,
      "hit": false,
      "t": 227796.7999999999,
      "d": 3735.437434895779,
      "v": 105
    },
    {
      "midi": 77,
      "hit": false,
      "t": 229070.63580729158,
      "d": 223.78196614581975,
      "v": 105
    },
    {
      "midi": 53,
      "hit": false,
      "t": 229322.2249999999,
      "d": 2019.334309895814,
      "v": 77
    },
    {
      "midi": 79,
      "hit": false,
      "t": 229343.41145833323,
      "d": 217.1611979166628,
      "v": 82
    },
    {
      "midi": 81,
      "hit": false,
      "t": 229600.2972656249,
      "d": 1182.4692057291686,
      "v": 88
    },
    {
      "midi": 57,
      "hit": false,
      "t": 229830.6999999999,
      "d": 1550.583919270808,
      "v": 85
    },
    {
      "midi": 76,
      "hit": false,
      "t": 230585.4675781249,
      "d": 272.77565104165114,
      "v": 82
    },
    {
      "midi": 77,
      "hit": false,
      "t": 230864.8639973957,
      "d": 283.36888020831975,
      "v": 96
    },
    {
      "midi": 79,
      "hit": false,
      "t": 231142.9362630207,
      "d": 422.40501302081975,
      "v": 102
    },
    {
      "midi": 71,
      "hit": false,
      "t": 231570.63789062484,
      "d": 656.7802083333081,
      "v": 82
    },
    {
      "midi": 55,
      "hit": false,
      "t": 231864.59999999983,
      "d": 1344.015950520814,
      "v": 69
    },
    {
      "midi": 60,
      "hit": false,
      "t": 231864.59999999983,
      "d": 1827.33203125,
      "v": 88
    },
    {
      "midi": 62,
      "hit": false,
      "t": 231864.59999999983,
      "d": 2213.9848958333314,
      "v": 85
    },
    {
      "midi": 64,
      "hit": false,
      "t": 231864.59999999983,
      "d": 2631.0932942708314,
      "v": 90
    },
    {
      "midi": 36,
      "hit": false,
      "t": 231864.59999999983,
      "d": 3687.767903645814,
      "v": 77
    },
    {
      "midi": 76,
      "hit": false,
      "t": 232381.01992187483,
      "d": 1461.8656250000058,
      "v": 67
    },
    {
      "midi": 79,
      "hit": false,
      "t": 232783.56263020815,
      "d": 1121.5581380208314,
      "v": 82
    },
    {
      "midi": 83,
      "hit": false,
      "t": 233180.80872395815,
      "d": 1177.1725911458489,
      "v": 67
    },
    {
      "midi": 55,
      "hit": false,
      "t": 233390.02499999982,
      "d": 2210.0124348958198,
      "v": 55
    },
    {
      "midi": 60,
      "hit": false,
      "t": 233898.49999999983,
      "d": 1762.4485026041511,
      "v": 82
    },
    {
      "midi": 86,
      "hit": false,
      "t": 234226.8901041665,
      "d": 446.2397786458314,
      "v": 105
    },
    {
      "midi": 62,
      "hit": false,
      "t": 234406.97499999983,
      "d": 1271.187499999971,
      "v": 71
    },
    {
      "midi": 88,
      "hit": false,
      "t": 234646.64680989567,
      "d": 524.3648437499942,
      "v": 116
    },
    {
      "midi": 91,
      "hit": false,
      "t": 235178.95657552066,
      "d": 566.7377604166395,
      "v": 82
    },
    {
      "midi": 53,
      "hit": false,
      "t": 235932.3999999998,
      "d": 671.3458984374884,
      "v": 88
    },
    {
      "midi": 57,
      "hit": false,
      "t": 235932.3999999998,
      "d": 1032.839843749971,
      "v": 105
    },
    {
      "midi": 64,
      "hit": false,
      "t": 235932.3999999998,
      "d": 2224.578124999971,
      "v": 85
    },
    {
      "midi": 60,
      "hit": false,
      "t": 235932.3999999998,
      "d": 3740.734049479157,
      "v": 105
    },
    {
      "midi": 41,
      "hit": false,
      "t": 235932.3999999998,
      "d": 3910.2257161458256,
      "v": 110
    },
    {
      "midi": 53,
      "hit": false,
      "t": 236949.34999999977,
      "d": 2748.942968749994,
      "v": 93
    },
    {
      "midi": 57,
      "hit": false,
      "t": 237457.82499999975,
      "d": 2290.785807291686,
      "v": 96
    },
    {
      "midi": 64,
      "hit": false,
      "t": 238474.77499999976,
      "d": 1316.2087239583489,
      "v": 99
    },
    {
      "midi": 68,
      "hit": false,
      "t": 239224.24596354144,
      "d": 276.7481119791628,
      "v": 116
    },
    {
      "midi": 71,
      "hit": false,
      "t": 239495.69746093728,
      "d": 219.8095052083081,
      "v": 90
    },
    {
      "midi": 77,
      "hit": false,
      "t": 239747.2866536456,
      "d": 466.1020833333605,
      "v": 108
    },
    {
      "midi": 55,
      "hit": false,
      "t": 240000.19999999978,
      "d": 1582.3636067708721,
      "v": 90
    },
    {
      "midi": 60,
      "hit": false,
      "t": 240000.19999999978,
      "d": 2367.5867187500407,
      "v": 113
    },
    {
      "midi": 62,
      "hit": false,
      "t": 240000.19999999978,
      "d": 2457.6291666667094,
      "v": 110
    },
    {
      "midi": 64,
      "hit": false,
      "t": 240000.19999999978,
      "d": 2979.345703125058,
      "v": 105
    },
    {
      "midi": 36,
      "hit": false,
      "t": 240000.19999999978,
      "d": 3951.274479166721,
      "v": 73
    },
    {
      "midi": 76,
      "hit": false,
      "t": 240234.5751953123,
      "d": 1314.8845703125116,
      "v": 110
    },
    {
      "midi": 74,
      "hit": false,
      "t": 241704.38574218733,
      "d": 154.92597656248836,
      "v": 108
    },
    {
      "midi": 55,
      "hit": false,
      "t": 241779.8624999998,
      "d": 1199.6832031250233,
      "v": 77
    },
    {
      "midi": 72,
      "hit": false,
      "t": 241937.43678385398,
      "d": 161.54674479167443,
      "v": 108
    },
    {
      "midi": 71,
      "hit": false,
      "t": 242173.13613281233,
      "d": 176.11243489582557,
      "v": 113
    },
    {
      "midi": 72,
      "hit": false,
      "t": 242415.4562499998,
      "d": 199.9472005208372,
      "v": 88
    },
    {
      "midi": 60,
      "hit": false,
      "t": 242542.5749999998,
      "d": 454.1847005208547,
      "v": 88
    },
    {
      "midi": 71,
      "hit": false,
      "t": 242649.83144531233,
      "d": 877.9138671875116,
      "v": 75
    },
    {
      "midi": 64,
      "hit": false,
      "t": 243051.04999999984,
      "d": 863.3481770833314,
      "v": 66
    },
    {
      "midi": 55,
      "hit": false,
      "t": 243051.04999999984,
      "d": 873.94140625,
      "v": 77
    },
    {
      "midi": 60,
      "hit": false,
      "t": 243051.04999999984,
      "d": 892.4795572916628,
      "v": 99
    },
    {
      "midi": 62,
      "hit": false,
      "t": 243051.04999999984,
      "d": 908.3694010416511,
      "v": 108
    },
    {
      "midi": 53,
      "hit": false,
      "t": 244067.99999999983,
      "d": 1402.278710937535,
      "v": 90
    },
    {
      "midi": 57,
      "hit": false,
      "t": 244067.99999999983,
      "d": 1545.2873046875466,
      "v": 96
    },
    {
      "midi": 64,
      "hit": false,
      "t": 244067.99999999983,
      "d": 3592.4288411458547,
      "v": 88
    },
    {
      "midi": 60,
      "hit": false,
      "t": 244067.99999999983,
      "d": 3599.0496093750116,
      "v": 99
    },
    {
      "midi": 41,
      "hit": false,
      "t": 244067.99999999983,
      "d": 3735.437434895837,
      "v": 105
    },
    {
      "midi": 72,
      "hit": false,
      "t": 244567.205924479,
      "d": 280.7205729166744,
      "v": 110
    },
    {
      "midi": 74,
      "hit": false,
      "t": 244829.388346354,
      "d": 259.5341145833372,
      "v": 99
    },
    {
      "midi": 67,
      "hit": false,
      "t": 245086.27415364567,
      "d": 271.45149739584303,
      "v": 99
    },
    {
      "midi": 69,
      "hit": false,
      "t": 245355.07734374984,
      "d": 243.64427083334886,
      "v": 116
    },
    {
      "midi": 76,
      "hit": false,
      "t": 245580.18346354153,
      "d": 254.23750000001746,
      "v": 105
    },
    {
      "midi": 53,
      "hit": false,
      "t": 245593.42499999987,
      "d": 2019.334309895814,
      "v": 77
    },
    {
      "midi": 77,
      "hit": false,
      "t": 245838.39342447906,
      "d": 225.10611979165697,
      "v": 116
    },
    {
      "midi": 57,
      "hit": false,
      "t": 246101.89999999988,
      "d": 1550.583919270808,
      "v": 85
    },
    {
      "midi": 79,
      "hit": false,
      "t": 246615.6716145832,
      "d": 242.32011718751164,
      "v": 93
    },
    {
      "midi": 81,
      "hit": false,
      "t": 246873.8815755207,
      "d": 524.3648437499942,
      "v": 108
    },
    {
      "midi": 83,
      "hit": false,
      "t": 247403.54303385402,
      "d": 634.2695963541337,
      "v": 88
    },
    {
      "midi": 86,
      "hit": false,
      "t": 247901.42480468733,
      "d": 263.50657552081975,
      "v": 82
    },
    {
      "midi": 55,
      "hit": false,
      "t": 248135.7999999998,
      "d": 1344.015950520843,
      "v": 91
    },
    {
      "midi": 60,
      "hit": false,
      "t": 248135.7999999998,
      "d": 1827.332031250029,
      "v": 91
    },
    {
      "midi": 62,
      "hit": false,
      "t": 248135.7999999998,
      "d": 2213.9848958333605,
      "v": 91
    },
    {
      "midi": 64,
      "hit": false,
      "t": 248135.7999999998,
      "d": 2631.0932942708605,
      "v": 91
    },
    {
      "midi": 36,
      "hit": false,
      "t": 248135.7999999998,
      "d": 3687.767903645872,
      "v": 91
    },
    {
      "midi": 83,
      "hit": false,
      "t": 248167.57968749982,
      "d": 1406.2511718750175,
      "v": 91
    },
    {
      "midi": 55,
      "hit": false,
      "t": 249661.22499999983,
      "d": 2210.012434895849,
      "v": 85
    },
    {
      "midi": 60,
      "hit": false,
      "t": 250169.69999999984,
      "d": 1762.4485026041802,
      "v": 83
    },
    {
      "midi": 62,
      "hit": false,
      "t": 250678.17499999984,
      "d": 1271.1875,
      "v": 81
    },
    {
      "midi": 53,
      "hit": false,
      "t": 252203.59999999983,
      "d": 671.3458984374884,
      "v": 74
    },
    {
      "midi": 57,
      "hit": false,
      "t": 252203.59999999983,
      "d": 1032.83984375,
      "v": 74
    },
    {
      "midi": 64,
      "hit": false,
      "t": 252203.59999999983,
      "d": 2224.578125,
      "v": 74
    },
    {
      "midi": 60,
      "hit": false,
      "t": 252203.59999999983,
      "d": 3740.734049479157,
      "v": 74
    },
    {
      "midi": 41,
      "hit": false,
      "t": 252203.59999999983,
      "d": 3910.2257161458256,
      "v": 74
    },
    {
      "midi": 53,
      "hit": false,
      "t": 253220.54999999984,
      "d": 2748.942968749965,
      "v": 70
    },
    {
      "midi": 57,
      "hit": false,
      "t": 253729.02499999985,
      "d": 2290.785807291628,
      "v": 68
    },
    {
      "midi": 64,
      "hit": false,
      "t": 254745.97499999983,
      "d": 1316.2087239583198,
      "v": 64
    },
    {
      "midi": 68,
      "hit": false,
      "t": 255495.44596354148,
      "d": 276.7481119791628,
      "v": 61
    },
    {
      "midi": 71,
      "hit": false,
      "t": 255766.89746093733,
      "d": 219.8095052083081,
      "v": 59
    },
    {
      "midi": 77,
      "hit": false,
      "t": 256018.48665364564,
      "d": 466.1020833333605,
      "v": 58
    },
    {
      "midi": 55,
      "hit": false,
      "t": 256271.39999999982,
      "d": 1582.3636067708721,
      "v": 57
    },
    {
      "midi": 60,
      "hit": false,
      "t": 256271.39999999982,
      "d": 2367.5867187500407,
      "v": 57
    },
    {
      "midi": 62,
      "hit": false,
      "t": 256271.39999999982,
      "d": 2457.6291666667094,
      "v": 57
    },
    {
      "midi": 64,
      "hit": false,
      "t": 256271.39999999982,
      "d": 2979.345703125058,
      "v": 57
    },
    {
      "midi": 36,
      "hit": false,
      "t": 256271.39999999982,
      "d": 3951.274479166721,
      "v": 57
    },
    {
      "midi": 76,
      "hit": false,
      "t": 256505.77519531234,
      "d": 1314.8845703125116,
      "v": 56
    },
    {
      "midi": 74,
      "hit": false,
      "t": 257975.58574218737,
      "d": 154.92597656248836,
      "v": 50
    },
    {
      "midi": 55,
      "hit": false,
      "t": 258051.06249999985,
      "d": 1199.6832031250233,
      "v": 50
    },
    {
      "midi": 72,
      "hit": false,
      "t": 258208.63678385402,
      "d": 161.54674479167443,
      "v": 49
    },
    {
      "midi": 71,
      "hit": false,
      "t": 258444.33613281237,
      "d": 176.11243489582557,
      "v": 48
    },
    {
      "midi": 72,
      "hit": false,
      "t": 258686.65624999985,
      "d": 199.9472005208372,
      "v": 47
    },
    {
      "midi": 60,
      "hit": false,
      "t": 258813.77499999985,
      "d": 454.1847005208547,
      "v": 47
    },
    {
      "midi": 71,
      "hit": false,
      "t": 258921.03144531237,
      "d": 877.9138671875116,
      "v": 46
    },
    {
      "midi": 64,
      "hit": false,
      "t": 259322.24999999988,
      "d": 863.3481770833314,
      "v": 45
    },
    {
      "midi": 55,
      "hit": false,
      "t": 259322.24999999988,
      "d": 873.94140625,
      "v": 45
    },
    {
      "midi": 60,
      "hit": false,
      "t": 259322.24999999988,
      "d": 892.4795572916628,
      "v": 45
    },
    {
      "midi": 62,
      "hit": false,
      "t": 259322.24999999988,
      "d": 908.3694010416511,
      "v": 45
    },
    {
      "midi": 53,
      "hit": false,
      "t": 260339.19999999987,
      "d": 1402.278710937535,
      "v": 40
    },
    {
      "midi": 57,
      "hit": false,
      "t": 260339.19999999987,
      "d": 1545.2873046875466,
      "v": 40
    },
    {
      "midi": 64,
      "hit": false,
      "t": 260339.19999999987,
      "d": 3592.428841145971,
      "v": 40
    },
    {
      "midi": 60,
      "hit": false,
      "t": 260339.19999999987,
      "d": 3599.049609375157,
      "v": 40
    },
    {
      "midi": 41,
      "hit": false,
      "t": 260339.19999999987,
      "d": 3735.4374348959827,
      "v": 40
    },
    {
      "midi": 72,
      "hit": false,
      "t": 260838.405924479,
      "d": 280.7205729166744,
      "v": 38
    },
    {
      "midi": 74,
      "hit": false,
      "t": 261100.58834635402,
      "d": 259.5341145833372,
      "v": 37
    },
    {
      "midi": 67,
      "hit": false,
      "t": 261357.4741536457,
      "d": 271.45149739587214,
      "v": 36
    },
    {
      "midi": 69,
      "hit": false,
      "t": 261626.27734374988,
      "d": 243.64427083334886,
      "v": 35
    },
    {
      "midi": 76,
      "hit": false,
      "t": 261851.38346354157,
      "d": 254.23750000001746,
      "v": 34
    },
    {
      "midi": 53,
      "hit": false,
      "t": 261864.6249999999,
      "d": 2019.3343098959012,
      "v": 34
    },
    {
      "midi": 77,
      "hit": false,
      "t": 262109.5934244791,
      "d": 225.10611979165697,
      "v": 33
    },
    {
      "midi": 57,
      "hit": false,
      "t": 262373.0999999999,
      "d": 1550.5839192708954,
      "v": 32
    },
    {
      "midi": 79,
      "hit": false,
      "t": 262886.87161458324,
      "d": 242.32011718751164,
      "v": 30
    },
    {
      "midi": 81,
      "hit": false,
      "t": 263145.0815755208,
      "d": 524.3648437500233,
      "v": 29
    },
    {
      "midi": 83,
      "hit": false,
      "t": 263674.7430338542,
      "d": 634.2695963541628,
      "v": 27
    },
    {
      "midi": 86,
      "hit": false,
      "t": 264172.6248046875,
      "d": 263.50657552084886,
      "v": 25
    },
    {
      "midi": 55,
      "hit": false,
      "t": 264407,
      "d": 1344.015950520814,
      "v": 24
    },
    {
      "midi": 60,
      "hit": false,
      "t": 264407,
      "d": 1827.33203125,
      "v": 24
    },
    {
      "midi": 62,
      "hit": false,
      "t": 264407,
      "d": 2213.9848958333605,
      "v": 24
    },
    {
      "midi": 64,
      "hit": false,
      "t": 264407,
      "d": 2631.0932942708605,
      "v": 24
    },
    {
      "midi": 36,
      "hit": false,
      "t": 264407,
      "d": 3687.767903645872,
      "v": 24
    },
    {
      "midi": 83,
      "hit": false,
      "t": 264438.77968750003,
      "d": 1406.2511718749302,
      "v": 23
    },
    {
      "midi": 55,
      "hit": false,
      "t": 265932.425,
      "d": 2210.012434895907,
      "v": 17
    },
    {
      "midi": 60,
      "hit": false,
      "t": 266440.9,
      "d": 1762.4485026042094,
      "v": 15
    },
    {
      "midi": 62,
      "hit": false,
      "t": 266949.375,
      "d": 1271.1875000000582,
      "v": 13
    }
  ]
}