{
  "jsonPath": "Pop/Europop/DJ Bobo/love-is-the-price.json",
  "path": "Pop\\Europop\\DJ Bobo\\Love Is The Price.mid",
  "name": "Love Is The Price",
  "difficulty": "Advanced",
  "bpm": 88.00105601267215,
  "notes": [
    {
      "midi": 53,
      "hit": false,
      "t": 2737.89328125,
      "d": 678.2589062500001,
      "v": 42
    },
    {
      "midi": 65,
      "hit": false,
      "t": 2755.6487500000003,
      "d": 2045.4300000000003,
      "v": 45
    },
    {
      "midi": 57,
      "hit": false,
      "t": 3061.0428125000003,
      "d": 518.4596874999997,
      "v": 48
    },
    {
      "midi": 60,
      "hit": false,
      "t": 3430.3565625,
      "d": 1058.2259375000003,
      "v": 57
    },
    {
      "midi": 53,
      "hit": false,
      "t": 3732.1995312500003,
      "d": 252.12765624999975,
      "v": 41
    },
    {
      "midi": 57,
      "hit": false,
      "t": 3753.50609375,
      "d": 440.3356249999997,
      "v": 46
    },
    {
      "midi": 69,
      "hit": false,
      "t": 4083.7578125,
      "d": 962.3464062500007,
      "v": 51
    },
    {
      "midi": 53,
      "hit": false,
      "t": 4105.064375,
      "d": 529.1129687500006,
      "v": 46
    },
    {
      "midi": 57,
      "hit": false,
      "t": 4417.560625,
      "d": 639.1968750000005,
      "v": 48
    },
    {
      "midi": 60,
      "hit": false,
      "t": 4769.118906250001,
      "d": 838.0581249999987,
      "v": 54
    },
    {
      "midi": 53,
      "hit": false,
      "t": 4793.976562500001,
      "d": 383.5181249999996,
      "v": 44
    },
    {
      "midi": 57,
      "hit": false,
      "t": 5092.268437500001,
      "d": 280.53640624999935,
      "v": 42
    },
    {
      "midi": 48,
      "hit": false,
      "t": 5454.48,
      "d": 770.5873437499995,
      "v": 40
    },
    {
      "midi": 64,
      "hit": false,
      "t": 5461.582187499999,
      "d": 816.7515624999996,
      "v": 46
    },
    {
      "midi": 55,
      "hit": false,
      "t": 5784.731718749999,
      "d": 518.4596874999997,
      "v": 44
    },
    {
      "midi": 60,
      "hit": false,
      "t": 6114.983437499999,
      "d": 774.1384375000007,
      "v": 55
    },
    {
      "midi": 55,
      "hit": false,
      "t": 6452.3373437499995,
      "d": 291.1896875000002,
      "v": 49
    },
    {
      "midi": 48,
      "hit": false,
      "t": 6462.990624999999,
      "d": 149.1459375000004,
      "v": 43
    },
    {
      "midi": 53,
      "hit": false,
      "t": 6800.34453125,
      "d": 830.9559374999999,
      "v": 43
    },
    {
      "midi": 65,
      "hit": false,
      "t": 6818.099999999999,
      "d": 731.5253124999999,
      "v": 55
    },
    {
      "midi": 57,
      "hit": false,
      "t": 7159.004999999999,
      "d": 738.6275000000005,
      "v": 47
    },
    {
      "midi": 60,
      "hit": false,
      "t": 7489.256718749999,
      "d": 678.258906250001,
      "v": 56
    },
    {
      "midi": 65,
      "hit": false,
      "t": 7851.46828125,
      "d": 387.0692187500008,
      "v": 54
    },
    {
      "midi": 69,
      "hit": false,
      "t": 8185.27109375,
      "d": 692.4632812500004,
      "v": 46
    },
    {
      "midi": 53,
      "hit": false,
      "t": 8185.27109375,
      "d": 813.2004687500012,
      "v": 45
    },
    {
      "midi": 60,
      "hit": false,
      "t": 8508.420625,
      "d": 1072.4303125000006,
      "v": 49
    },
    {
      "midi": 65,
      "hit": false,
      "t": 8842.2234375,
      "d": 1072.4303125000006,
      "v": 60
    },
    {
      "midi": 69,
      "hit": false,
      "t": 9193.78171875,
      "d": 1097.287968749999,
      "v": 51
    },
    {
      "midi": 53,
      "hit": false,
      "t": 9211.5371875,
      "d": 120.7371875000008,
      "v": 44
    },
    {
      "midi": 57,
      "hit": false,
      "t": 9573.74875,
      "d": 330.2517187499998,
      "v": 56
    },
    {
      "midi": 72,
      "hit": false,
      "t": 9573.74875,
      "d": 681.8099999999995,
      "v": 55
    },
    {
      "midi": 60,
      "hit": false,
      "t": 9889.796093750001,
      "d": 1058.2259374999976,
      "v": 60
    },
    {
      "midi": 65,
      "hit": false,
      "t": 10237.80328125,
      "d": 369.3137499999975,
      "v": 69
    },
    {
      "midi": 69,
      "hit": false,
      "t": 10571.606093749999,
      "d": 340.90499999999884,
      "v": 62
    },
    {
      "midi": 58,
      "hit": false,
      "t": 10916.062187499998,
      "d": 440.3356250000015,
      "v": 66
    },
    {
      "midi": 70,
      "hit": false,
      "t": 10919.613281249998,
      "d": 1296.1492187500007,
      "v": 42
    },
    {
      "midi": 60,
      "hit": false,
      "t": 11235.660624999999,
      "d": 426.13125000000036,
      "v": 51
    },
    {
      "midi": 55,
      "hit": false,
      "t": 11594.321093749999,
      "d": 316.04734375000044,
      "v": 48
    },
    {
      "midi": 64,
      "hit": false,
      "t": 11594.321093749999,
      "d": 671.1567187500004,
      "v": 53
    },
    {
      "midi": 60,
      "hit": false,
      "t": 11935.22609375,
      "d": 500.7042187499992,
      "v": 55
    },
    {
      "midi": 57,
      "hit": false,
      "t": 12286.784375,
      "d": 582.3793749999986,
      "v": 58
    },
    {
      "midi": 69,
      "hit": false,
      "t": 12304.539843749999,
      "d": 1164.7587500000009,
      "v": 50
    },
    {
      "midi": 60,
      "hit": false,
      "t": 12613.484999999999,
      "d": 408.3757812500007,
      "v": 53
    },
    {
      "midi": 65,
      "hit": false,
      "t": 12968.594374999999,
      "d": 326.7006250000013,
      "v": 53
    },
    {
      "midi": 53,
      "hit": false,
      "t": 12975.6965625,
      "d": 131.39046874999985,
      "v": 47
    },
    {
      "midi": 60,
      "hit": false,
      "t": 13291.74390625,
      "d": 440.3356250000015,
      "v": 58
    },
    {
      "midi": 53,
      "hit": false,
      "t": 13632.64890625,
      "d": 319.5984375000007,
      "v": 42
    },
    {
      "midi": 69,
      "hit": false,
      "t": 13639.751093750001,
      "d": 710.21875,
      "v": 56
    },
    {
      "midi": 60,
      "hit": false,
      "t": 13966.45171875,
      "d": 994.3062500000015,
      "v": 47
    },
    {
      "midi": 65,
      "hit": false,
      "t": 14307.356718750001,
      "d": 727.9742187500015,
      "v": 50
    },
    {
      "midi": 57,
      "hit": false,
      "t": 14321.56109375,
      "d": 127.83937500000138,
      "v": 52
    },
    {
      "midi": 69,
      "hit": false,
      "t": 14673.119375000002,
      "d": 301.8429687499993,
      "v": 56
    },
    {
      "midi": 58,
      "hit": false,
      "t": 14992.717812500003,
      "d": 266.33203125,
      "v": 41
    },
    {
      "midi": 70,
      "hit": false,
      "t": 15006.922187500002,
      "d": 759.9340625000004,
      "v": 39
    },
    {
      "midi": 62,
      "hit": false,
      "t": 15337.173906250002,
      "d": 1012.0617187500011,
      "v": 49
    },
    {
      "midi": 65,
      "hit": false,
      "t": 15670.976718750002,
      "d": 674.7078125000007,
      "v": 53
    },
    {
      "midi": 70,
      "hit": false,
      "t": 16018.983906250003,
      "d": 1029.8171875000007,
      "v": 59
    },
    {
      "midi": 72,
      "hit": false,
      "t": 16342.133437500002,
      "d": 1498.5615625000046,
      "v": 55
    },
    {
      "midi": 60,
      "hit": false,
      "t": 16359.888906250004,
      "d": 276.9853125000027,
      "v": 52
    },
    {
      "midi": 64,
      "hit": false,
      "t": 16704.345000000005,
      "d": 1004.9595312499987,
      "v": 42
    },
    {
      "midi": 67,
      "hit": false,
      "t": 17038.147812500003,
      "d": 362.2115625000006,
      "v": 47
    },
    {
      "midi": 55,
      "hit": false,
      "t": 17045.250000000004,
      "d": 163.35031249999884,
      "v": 51
    },
    {
      "midi": 70,
      "hit": false,
      "t": 17389.706093750003,
      "d": 340.9050000000025,
      "v": 49
    },
    {
      "midi": 69,
      "hit": false,
      "t": 17727.060000000005,
      "d": 742.1785937500026,
      "v": 50
    },
    {
      "midi": 53,
      "hit": false,
      "t": 17737.713281250006,
      "d": 316.0473437500041,
      "v": 48
    },
    {
      "midi": 60,
      "hit": false,
      "t": 18046.65843750001,
      "d": 1001.4084374999984,
      "v": 50
    },
    {
      "midi": 65,
      "hit": false,
      "t": 18394.66562500001,
      "d": 376.4159374999981,
      "v": 53
    },
    {
      "midi": 69,
      "hit": false,
      "t": 18739.121718750008,
      "d": 1594.4410937500033,
      "v": 54
    },
    {
      "midi": 50,
      "hit": false,
      "t": 19069.37343750001,
      "d": 287.6385937499981,
      "v": 51
    },
    {
      "midi": 65,
      "hit": false,
      "t": 19090.68000000001,
      "d": 752.8318749999962,
      "v": 59
    },
    {
      "midi": 57,
      "hit": false,
      "t": 19417.38062500001,
      "d": 742.178593749999,
      "v": 41
    },
    {
      "midi": 53,
      "hit": false,
      "t": 19758.285625000008,
      "d": 138.49265625000044,
      "v": 42
    },
    {
      "midi": 62,
      "hit": false,
      "t": 19783.143281250006,
      "d": 475.8465625000026,
      "v": 46
    },
    {
      "midi": 65,
      "hit": false,
      "t": 20134.70156250001,
      "d": 138.49265625000044,
      "v": 44
    },
    {
      "midi": 55,
      "hit": false,
      "t": 20454.30000000001,
      "d": 131.39046874999985,
      "v": 52
    },
    {
      "midi": 70,
      "hit": false,
      "t": 20468.50437500001,
      "d": 202.4123437499984,
      "v": 55
    },
    {
      "midi": 67,
      "hit": false,
      "t": 20631.85468750001,
      "d": 195.31015624999782,
      "v": 30
    },
    {
      "midi": 62,
      "hit": false,
      "t": 20795.20500000001,
      "d": 387.069218749999,
      "v": 53
    },
    {
      "midi": 67,
      "hit": false,
      "t": 20983.412968750006,
      "d": 209.51453125000262,
      "v": 48
    },
    {
      "midi": 74,
      "hit": false,
      "t": 21153.865468750006,
      "d": 561.0728124999987,
      "v": 59
    },
    {
      "midi": 55,
      "hit": false,
      "t": 21171.620937500007,
      "d": 99.43062500000087,
      "v": 47
    },
    {
      "midi": 62,
      "hit": false,
      "t": 21331.420156250006,
      "d": 227.27000000000044,
      "v": 56
    },
    {
      "midi": 67,
      "hit": false,
      "t": 21501.872656250005,
      "d": 248.57656249999854,
      "v": 52
    },
    {
      "midi": 70,
      "hit": false,
      "t": 21682.978437500005,
      "d": 227.27000000000044,
      "v": 50
    },
    {
      "midi": 60,
      "hit": false,
      "t": 21846.328750000004,
      "d": 230.82109375000073,
      "v": 52
    },
    {
      "midi": 72,
      "hit": false,
      "t": 21860.533125000005,
      "d": 1281.9448437500032,
      "v": 42
    },
    {
      "midi": 64,
      "hit": false,
      "t": 22155.273906250004,
      "d": 429.6823437500025,
      "v": 46
    },
    {
      "midi": 67,
      "hit": false,
      "t": 22521.036562500005,
      "d": 330.2517187500016,
      "v": 52
    },
    {
      "midi": 64,
      "hit": false,
      "t": 22865.492656250008,
      "d": 305.39406249999956,
      "v": 45
    },
    {
      "midi": 53,
      "hit": false,
      "t": 23188.64218750001,
      "d": 323.149531250001,
      "v": 41
    },
    {
      "midi": 65,
      "hit": false,
      "t": 23202.84656250001,
      "d": 699.5654687499991,
      "v": 55
    },
    {
      "midi": 69,
      "hit": false,
      "t": 23543.75156250001,
      "d": 667.6056250000038,
      "v": 62
    },
    {
      "midi": 60,
      "hit": false,
      "t": 23884.656562500008,
      "d": 692.4632812500095,
      "v": 55
    },
    {
      "midi": 65,
      "hit": false,
      "t": 24190.05062500001,
      "d": 372.8648437500051,
      "v": 40
    },
    {
      "midi": 53,
      "hit": false,
      "t": 24534.506718750014,
      "d": 1857.2220312499994,
      "v": 47
    },
    {
      "midi": 69,
      "hit": false,
      "t": 24545.160000000014,
      "d": 280.53640625000116,
      "v": 56
    },
    {
      "midi": 57,
      "hit": false,
      "t": 24875.411718750016,
      "d": 1519.8681249999972,
      "v": 43
    },
    {
      "midi": 60,
      "hit": false,
      "t": 25258.929843750015,
      "d": 745.7296874999993,
      "v": 62
    },
    {
      "midi": 65,
      "hit": false,
      "t": 25571.426093750015,
      "d": 383.5181249999987,
      "v": 53
    },
    {
      "midi": 69,
      "hit": false,
      "t": 25919.433281250014,
      "d": 1019.1639062499999,
      "v": 52
    },
    {
      "midi": 60,
      "hit": false,
      "t": 26249.685000000012,
      "d": 404.82468750000044,
      "v": 55
    },
    {
      "midi": 65,
      "hit": false,
      "t": 26615.447656250013,
      "d": 699.5654687499991,
      "v": 43
    },
    {
      "midi": 57,
      "hit": false,
      "t": 26640.30531250001,
      "d": 145.59484375000102,
      "v": 53
    },
    {
      "midi": 60,
      "hit": false,
      "t": 26942.148281250014,
      "d": 426.13124999999854,
      "v": 49
    },
    {
      "midi": 55,
      "hit": false,
      "t": 27275.951093750013,
      "d": 852.2625000000007,
      "v": 46
    },
    {
      "midi": 70,
      "hit": false,
      "t": 27286.604375000014,
      "d": 987.2040625000009,
      "v": 64
    },
    {
      "midi": 60,
      "hit": false,
      "t": 27623.958281250012,
      "d": 1132.798906250002,
      "v": 49
    },
    {
      "midi": 64,
      "hit": false,
      "t": 27982.618750000012,
      "d": 664.0545312499999,
      "v": 44
    },
    {
      "midi": 58,
      "hit": false,
      "t": 27993.272031250013,
      "d": 142.04375000000073,
      "v": 48
    },
    {
      "midi": 67,
      "hit": false,
      "t": 28309.319375000014,
      "d": 397.72249999999985,
      "v": 48
    },
    {
      "midi": 53,
      "hit": false,
      "t": 28650.224375000013,
      "d": 997.8573437500017,
      "v": 38
    },
    {
      "midi": 69,
      "hit": false,
      "t": 28660.877656250013,
      "d": 1125.6967187500013,
      "v": 45
    },
    {
      "midi": 57,
      "hit": false,
      "t": 28952.067343750015,
      "d": 774.138437499998,
      "v": 38
    },
    {
      "midi": 60,
      "hit": false,
      "t": 28955.618437500016,
      "d": 482.94874999999956,
      "v": 42
    },
    {
      "midi": 65,
      "hit": false,
      "t": 29321.381093750017,
      "d": 1051.1237499999988,
      "v": 50
    },
    {
      "midi": 60,
      "hit": false,
      "t": 29651.632812500015,
      "d": 482.94874999999956,
      "v": 49
    },
    {
      "midi": 53,
      "hit": false,
      "t": 29996.088906250014,
      "d": 1186.0653125000026,
      "v": 56
    },
    {
      "midi": 69,
      "hit": false,
      "t": 30013.844375000015,
      "d": 720.8720312500009,
      "v": 54
    },
    {
      "midi": 57,
      "hit": false,
      "t": 30308.585156250014,
      "d": 1086.6346875000054,
      "v": 44
    },
    {
      "midi": 60,
      "hit": false,
      "t": 30358.300468750014,
      "d": 553.9706250000017,
      "v": 48
    },
    {
      "midi": 65,
      "hit": false,
      "t": 30677.898906250015,
      "d": 731.5253125000054,
      "v": 57
    },
    {
      "midi": 60,
      "hit": false,
      "t": 31033.008281250015,
      "d": 1097.2879687500063,
      "v": 56
    },
    {
      "midi": 72,
      "hit": false,
      "t": 31373.913281250017,
      "d": 1249.9850000000042,
      "v": 52
    },
    {
      "midi": 57,
      "hit": false,
      "t": 32059.27437500002,
      "d": 174.00359375000335,
      "v": 50
    },
    {
      "midi": 69,
      "hit": false,
      "t": 32069.92765625002,
      "d": 387.0692187500026,
      "v": 40
    },
    {
      "midi": 65,
      "hit": false,
      "t": 32403.730468750022,
      "d": 383.5181250000023,
      "v": 53
    },
    {
      "midi": 58,
      "hit": false,
      "t": 32733.982187500023,
      "d": 610.7881250000028,
      "v": 41
    },
    {
      "midi": 70,
      "hit": false,
      "t": 32737.533281250024,
      "d": 1058.225937500003,
      "v": 48
    },
    {
      "midi": 60,
      "hit": false,
      "t": 33078.438281250026,
      "d": 1072.4303125000079,
      "v": 47
    },
    {
      "midi": 52,
      "hit": false,
      "t": 33419.343281250025,
      "d": 237.92328124999767,
      "v": 52
    },
    {
      "midi": 64,
      "hit": false,
      "t": 33433.547656250026,
      "d": 656.9523437500029,
      "v": 44
    },
    {
      "midi": 67,
      "hit": false,
      "t": 33753.14609375002,
      "d": 415.4779687500122,
      "v": 53
    },
    {
      "midi": 53,
      "hit": false,
      "t": 34104.70437500003,
      "d": 1061.7770312499997,
      "v": 48
    },
    {
      "midi": 69,
      "hit": false,
      "t": 34122.45984375003,
      "d": 1207.3718750000044,
      "v": 43
    },
    {
      "midi": 60,
      "hit": false,
      "t": 34427.853906250035,
      "d": 433.2334374999991,
      "v": 52
    },
    {
      "midi": 57,
      "hit": false,
      "t": 34786.514375000035,
      "d": 415.4779687499977,
      "v": 58
    },
    {
      "midi": 65,
      "hit": false,
      "t": 34790.065468750036,
      "d": 735.076406250002,
      "v": 50
    },
    {
      "midi": 60,
      "hit": false,
      "t": 35113.21500000003,
      "d": 468.74437500000204,
      "v": 52
    },
    {
      "midi": 53,
      "hit": false,
      "t": 35457.67109375004,
      "d": 997.8573437500017,
      "v": 43
    },
    {
      "midi": 69,
      "hit": false,
      "t": 35468.32437500004,
      "d": 603.6859374999985,
      "v": 51
    },
    {
      "midi": 60,
      "hit": false,
      "t": 35798.57609375004,
      "d": 717.3209375000079,
      "v": 53
    },
    {
      "midi": 69,
      "hit": false,
      "t": 36135.93000000004,
      "d": 674.7078125000116,
      "v": 50
    },
    {
      "midi": 57,
      "hit": false,
      "t": 36150.13437500004,
      "d": 276.9853125000009,
      "v": 46
    },
    {
      "midi": 65,
      "hit": false,
      "t": 36491.039375000044,
      "d": 369.31375000000844,
      "v": 53
    },
    {
      "midi": 58,
      "hit": false,
      "t": 36817.74000000005,
      "d": 955.2442187500055,
      "v": 56
    },
    {
      "midi": 62,
      "hit": false,
      "t": 36817.74000000005,
      "d": 1416.8864062500143,
      "v": 54
    },
    {
      "midi": 65,
      "hit": false,
      "t": 37158.645000000055,
      "d": 436.7845312499994,
      "v": 52
    },
    {
      "midi": 74,
      "hit": false,
      "t": 37524.407656250056,
      "d": 355.109375,
      "v": 61
    },
    {
      "midi": 65,
      "hit": false,
      "t": 37836.90390625005,
      "d": 365.76265625000815,
      "v": 49
    },
    {
      "midi": 70,
      "hit": false,
      "t": 38170.70671875006,
      "d": 1363.62000000001,
      "v": 51
    },
    {
      "midi": 60,
      "hit": false,
      "t": 38192.01328125006,
      "d": 252.1276562500061,
      "v": 48
    },
    {
      "midi": 62,
      "hit": false,
      "t": 38515.162812500064,
      "d": 376.41593750000175,
      "v": 52
    },
    {
      "midi": 64,
      "hit": false,
      "t": 38859.61890625006,
      "d": 692.4632812500058,
      "v": 57
    },
    {
      "midi": 60,
      "hit": false,
      "t": 39196.97281250007,
      "d": 749.2807812500032,
      "v": 55
    },
    {
      "midi": 69,
      "hit": false,
      "t": 39580.49093750007,
      "d": 1054.6748437500064,
      "v": 45
    },
    {
      "midi": 53,
      "hit": false,
      "t": 39743.84125000008,
      "d": 653.4012500000026,
      "v": 19
    },
    {
      "midi": 65,
      "hit": false,
      "t": 39882.333906250075,
      "d": 479.3976562500029,
      "v": 46
    },
    {
      "midi": 60,
      "hit": false,
      "t": 40233.892187500074,
      "d": 617.890312500007,
      "v": 49
    },
    {
      "midi": 65,
      "hit": false,
      "t": 40567.69500000008,
      "d": 376.415937500009,
      "v": 46
    },
    {
      "midi": 50,
      "hit": false,
      "t": 40887.293437500084,
      "d": 582.3793749999968,
      "v": 48
    },
    {
      "midi": 69,
      "hit": false,
      "t": 40901.497812500085,
      "d": 763.4851562499971,
      "v": 47
    },
    {
      "midi": 62,
      "hit": false,
      "t": 41235.30062500008,
      "d": 1147.0032812499921,
      "v": 51
    },
    {
      "midi": 65,
      "hit": false,
      "t": 41572.65453125008,
      "d": 1097.2879687499953,
      "v": 43
    },
    {
      "midi": 69,
      "hit": false,
      "t": 41927.76390625008,
      "d": 284.08750000000146,
      "v": 50
    },
    {
      "midi": 70,
      "hit": false,
      "t": 42265.11781250008,
      "d": 749.2807812499959,
      "v": 65
    },
    {
      "midi": 55,
      "hit": false,
      "t": 42268.66890625008,
      "d": 845.1603124999965,
      "v": 38
    },
    {
      "midi": 62,
      "hit": false,
      "t": 42609.57390625008,
      "d": 1171.8609374999942,
      "v": 51
    },
    {
      "midi": 65,
      "hit": false,
      "t": 42936.27453125008,
      "d": 987.2040625000009,
      "v": 41
    },
    {
      "midi": 70,
      "hit": false,
      "t": 43273.628437500076,
      "d": 610.7881249999991,
      "v": 40
    },
    {
      "midi": 48,
      "hit": false,
      "t": 43618.084531250075,
      "d": 291.18968750000204,
      "v": 40
    },
    {
      "midi": 72,
      "hit": false,
      "t": 43625.186718750076,
      "d": 241.47437499999796,
      "v": 48
    },
    {
      "midi": 60,
      "hit": false,
      "t": 43934.13187500008,
      "d": 78.12406249999913,
      "v": 36
    },
    {
      "midi": 55,
      "hit": false,
      "t": 44228.87265625008,
      "d": 234.37218749999738,
      "v": 34
    },
    {
      "midi": 58,
      "hit": false,
      "t": 44296.34343750008,
      "d": 142.0437499999971,
      "v": 37
    },
    {
      "midi": 48,
      "hit": false,
      "t": 44306.99671875008,
      "d": 156.24812499999825,
      "v": 51
    },
    {
      "midi": 64,
      "hit": false,
      "t": 44331.85437500008,
      "d": 152.69703124999796,
      "v": 51
    },
    {
      "midi": 65,
      "hit": false,
      "t": 44860.96734375008,
      "d": 891.3245312500076,
      "v": 36
    },
    {
      "midi": 69,
      "hit": false,
      "t": 44917.78484375008,
      "d": 830.9559375000099,
      "v": 50
    },
    {
      "midi": 72,
      "hit": false,
      "t": 44992.35781250008,
      "d": 770.5873437500122,
      "v": 49
    },
    {
      "midi": 53,
      "hit": false,
      "t": 45006.56218750008,
      "d": 969.448593750014,
      "v": 51
    },
    {
      "midi": 77,
      "hit": false,
      "t": 45049.17531250008,
      "d": 756.3829687500111,
      "v": 52
    }
  ]
}