{
  "jsonPath": "Classical/Classical/Isaac Albeniz/tango-in-d.json",
  "path": "Classical\\Classical\\Isaac Albeniz\\Tango in D.mid",
  "name": "Tango in D",
  "difficulty": "Advanced",
  "bpm": 100,
  "notes": [
    {
      "midi": 38,
      "hit": false,
      "t": 0,
      "d": 900,
      "v": 70
    },
    {
      "midi": 50,
      "hit": false,
      "t": 0,
      "d": 900,
      "v": 70
    },
    {
      "midi": 57,
      "hit": false,
      "t": 450,
      "d": 150,
      "v": 71
    },
    {
      "midi": 62,
      "hit": false,
      "t": 600,
      "d": 600,
      "v": 93
    },
    {
      "midi": 66,
      "hit": false,
      "t": 600,
      "d": 600,
      "v": 93
    },
    {
      "midi": 69,
      "hit": false,
      "t": 600,
      "d": 600,
      "v": 93
    },
    {
      "midi": 33,
      "hit": false,
      "t": 900,
      "d": 300,
      "v": 69
    },
    {
      "midi": 45,
      "hit": false,
      "t": 900,
      "d": 300,
      "v": 69
    },
    {
      "midi": 38,
      "hit": false,
      "t": 1200,
      "d": 900,
      "v": 83
    },
    {
      "midi": 50,
      "hit": false,
      "t": 1200,
      "d": 900,
      "v": 83
    },
    {
      "midi": 57,
      "hit": false,
      "t": 1650,
      "d": 150,
      "v": 71
    },
    {
      "midi": 62,
      "hit": false,
      "t": 1800,
      "d": 600,
      "v": 92
    },
    {
      "midi": 66,
      "hit": false,
      "t": 1800,
      "d": 600,
      "v": 92
    },
    {
      "midi": 69,
      "hit": false,
      "t": 1800,
      "d": 600,
      "v": 92
    },
    {
      "midi": 45,
      "hit": false,
      "t": 2100,
      "d": 300,
      "v": 77
    },
    {
      "midi": 57,
      "hit": false,
      "t": 2400,
      "d": 199.21875,
      "v": 100
    },
    {
      "midi": 62,
      "hit": false,
      "t": 2400,
      "d": 199.21875,
      "v": 100
    },
    {
      "midi": 66,
      "hit": false,
      "t": 2400,
      "d": 199.21875,
      "v": 100
    },
    {
      "midi": 50,
      "hit": false,
      "t": 2400,
      "d": 600,
      "v": 77
    },
    {
      "midi": 66,
      "hit": false,
      "t": 2599.21875,
      "d": 199.21875,
      "v": 100
    },
    {
      "midi": 66,
      "hit": false,
      "t": 2798.4375,
      "d": 201.5625,
      "v": 100
    },
    {
      "midi": 67,
      "hit": false,
      "t": 3000,
      "d": 300,
      "v": 81
    },
    {
      "midi": 57,
      "hit": false,
      "t": 3000,
      "d": 300,
      "v": 81
    },
    {
      "midi": 66,
      "hit": false,
      "t": 3300,
      "d": 300,
      "v": 74
    },
    {
      "midi": 45,
      "hit": false,
      "t": 3300,
      "d": 300,
      "v": 66
    },
    {
      "midi": 57,
      "hit": false,
      "t": 3600,
      "d": 900,
      "v": 85
    },
    {
      "midi": 62,
      "hit": false,
      "t": 3600,
      "d": 900,
      "v": 85
    },
    {
      "midi": 66,
      "hit": false,
      "t": 3600,
      "d": 900,
      "v": 85
    },
    {
      "midi": 69,
      "hit": false,
      "t": 3600,
      "d": 900,
      "v": 85
    },
    {
      "midi": 50,
      "hit": false,
      "t": 3600,
      "d": 600,
      "v": 80
    },
    {
      "midi": 57,
      "hit": false,
      "t": 4200,
      "d": 300,
      "v": 81
    },
    {
      "midi": 66,
      "hit": false,
      "t": 4500,
      "d": 150,
      "v": 90
    },
    {
      "midi": 74,
      "hit": false,
      "t": 4500,
      "d": 150,
      "v": 90
    },
    {
      "midi": 45,
      "hit": false,
      "t": 4500,
      "d": 300,
      "v": 63
    },
    {
      "midi": 76,
      "hit": false,
      "t": 4650,
      "d": 150,
      "v": 84
    },
    {
      "midi": 66,
      "hit": false,
      "t": 4800,
      "d": 450,
      "v": 81
    },
    {
      "midi": 78,
      "hit": false,
      "t": 4800,
      "d": 450,
      "v": 81
    },
    {
      "midi": 50,
      "hit": false,
      "t": 4800,
      "d": 600,
      "v": 81
    },
    {
      "midi": 73,
      "hit": false,
      "t": 5250,
      "d": 150,
      "v": 65
    },
    {
      "midi": 66,
      "hit": false,
      "t": 5400,
      "d": 300,
      "v": 79
    },
    {
      "midi": 74,
      "hit": false,
      "t": 5400,
      "d": 300,
      "v": 79
    },
    {
      "midi": 57,
      "hit": false,
      "t": 5400,
      "d": 300,
      "v": 81
    },
    {
      "midi": 65,
      "hit": false,
      "t": 5700,
      "d": 150,
      "v": 70
    },
    {
      "midi": 71,
      "hit": false,
      "t": 5700,
      "d": 150,
      "v": 70
    },
    {
      "midi": 51,
      "hit": false,
      "t": 5700,
      "d": 300,
      "v": 73
    },
    {
      "midi": 66,
      "hit": false,
      "t": 5850,
      "d": 150,
      "v": 66
    },
    {
      "midi": 61,
      "hit": false,
      "t": 6000,
      "d": 900,
      "v": 78
    },
    {
      "midi": 67,
      "hit": false,
      "t": 6000,
      "d": 900,
      "v": 78
    },
    {
      "midi": 52,
      "hit": false,
      "t": 6000,
      "d": 600,
      "v": 78
    },
    {
      "midi": 57,
      "hit": false,
      "t": 6600,
      "d": 300,
      "v": 82
    },
    {
      "midi": 64,
      "hit": false,
      "t": 6900,
      "d": 150,
      "v": 73
    },
    {
      "midi": 67,
      "hit": false,
      "t": 6900,
      "d": 150,
      "v": 73
    },
    {
      "midi": 45,
      "hit": false,
      "t": 6900,
      "d": 300,
      "v": 64
    },
    {
      "midi": 66,
      "hit": false,
      "t": 7050,
      "d": 150,
      "v": 76
    },
    {
      "midi": 69,
      "hit": false,
      "t": 7050,
      "d": 150,
      "v": 76
    },
    {
      "midi": 67,
      "hit": false,
      "t": 7200,
      "d": 450,
      "v": 77
    },
    {
      "midi": 71,
      "hit": false,
      "t": 7200,
      "d": 450,
      "v": 77
    },
    {
      "midi": 49,
      "hit": false,
      "t": 7200,
      "d": 600,
      "v": 78
    },
    {
      "midi": 69,
      "hit": false,
      "t": 7650,
      "d": 150,
      "v": 79
    },
    {
      "midi": 73,
      "hit": false,
      "t": 7650,
      "d": 150,
      "v": 79
    },
    {
      "midi": 73,
      "hit": false,
      "t": 7800,
      "d": 300,
      "v": 87
    },
    {
      "midi": 76,
      "hit": false,
      "t": 7800,
      "d": 300,
      "v": 87
    },
    {
      "midi": 57,
      "hit": false,
      "t": 7800,
      "d": 300,
      "v": 83
    },
    {
      "midi": 71,
      "hit": false,
      "t": 8100,
      "d": 300,
      "v": 73
    },
    {
      "midi": 74,
      "hit": false,
      "t": 8100,
      "d": 300,
      "v": 73
    },
    {
      "midi": 45,
      "hit": false,
      "t": 8100,
      "d": 300,
      "v": 67
    },
    {
      "midi": 71,
      "hit": false,
      "t": 8400,
      "d": 75,
      "v": 70
    },
    {
      "midi": 74,
      "hit": false,
      "t": 8400,
      "d": 75,
      "v": 76
    },
    {
      "midi": 52,
      "hit": false,
      "t": 8400,
      "d": 600,
      "v": 80
    },
    {
      "midi": 76,
      "hit": false,
      "t": 8475,
      "d": 75,
      "v": 78
    },
    {
      "midi": 74,
      "hit": false,
      "t": 8550,
      "d": 150,
      "v": 71
    },
    {
      "midi": 69,
      "hit": false,
      "t": 8700,
      "d": 600,
      "v": 70
    },
    {
      "midi": 73,
      "hit": false,
      "t": 8700,
      "d": 600,
      "v": 70
    },
    {
      "midi": 57,
      "hit": false,
      "t": 9000,
      "d": 300,
      "v": 86
    },
    {
      "midi": 73,
      "hit": false,
      "t": 9300,
      "d": 150,
      "v": 88
    },
    {
      "midi": 76,
      "hit": false,
      "t": 9300,
      "d": 150,
      "v": 88
    },
    {
      "midi": 45,
      "hit": false,
      "t": 9300,
      "d": 300,
      "v": 68
    },
    {
      "midi": 67,
      "hit": false,
      "t": 9450,
      "d": 150,
      "v": 68
    },
    {
      "midi": 71,
      "hit": false,
      "t": 9450,
      "d": 150,
      "v": 68
    },
    {
      "midi": 71,
      "hit": false,
      "t": 9600,
      "d": 450,
      "v": 68
    },
    {
      "midi": 74,
      "hit": false,
      "t": 9600,
      "d": 450,
      "v": 68
    },
    {
      "midi": 49,
      "hit": false,
      "t": 9600,
      "d": 600,
      "v": 81
    },
    {
      "midi": 66,
      "hit": false,
      "t": 10050,
      "d": 150,
      "v": 67
    },
    {
      "midi": 69,
      "hit": false,
      "t": 10050,
      "d": 150,
      "v": 67
    },
    {
      "midi": 69,
      "hit": false,
      "t": 10200,
      "d": 300,
      "v": 78
    },
    {
      "midi": 73,
      "hit": false,
      "t": 10200,
      "d": 300,
      "v": 78
    },
    {
      "midi": 57,
      "hit": false,
      "t": 10200,
      "d": 300,
      "v": 82
    },
    {
      "midi": 64,
      "hit": false,
      "t": 10500,
      "d": 300,
      "v": 63
    },
    {
      "midi": 67,
      "hit": false,
      "t": 10500,
      "d": 300,
      "v": 63
    },
    {
      "midi": 45,
      "hit": false,
      "t": 10500,
      "d": 300,
      "v": 67
    },
    {
      "midi": 65,
      "hit": false,
      "t": 10800,
      "d": 300,
      "v": 83
    },
    {
      "midi": 71,
      "hit": false,
      "t": 10800,
      "d": 300,
      "v": 83
    },
    {
      "midi": 50,
      "hit": false,
      "t": 10800,
      "d": 600,
      "v": 81
    },
    {
      "midi": 66,
      "hit": false,
      "t": 11100,
      "d": 600,
      "v": 71
    },
    {
      "midi": 69,
      "hit": false,
      "t": 11100,
      "d": 600,
      "v": 71
    },
    {
      "midi": 57,
      "hit": false,
      "t": 11400,
      "d": 600,
      "v": 82
    },
    {
      "midi": 62,
      "hit": false,
      "t": 11700,
      "d": 300,
      "v": 84
    },
    {
      "midi": 74,
      "hit": false,
      "t": 11700,
      "d": 300,
      "v": 84
    },
    {
      "midi": 62,
      "hit": false,
      "t": 12000,
      "d": 199.21875,
      "v": 100
    },
    {
      "midi": 74,
      "hit": false,
      "t": 12000,
      "d": 199.21875,
      "v": 100
    },
    {
      "midi": 47,
      "hit": false,
      "t": 12000,
      "d": 600,
      "v": 76
    },
    {
      "midi": 54,
      "hit": false,
      "t": 12000,
      "d": 600,
      "v": 76
    },
    {
      "midi": 73,
      "hit": false,
      "t": 12199.21875,
      "d": 199.21875,
      "v": 100
    },
    {
      "midi": 71,
      "hit": false,
      "t": 12398.4375,
      "d": 201.5625,
      "v": 100
    },
    {
      "midi": 62,
      "hit": false,
      "t": 12600,
      "d": 300,
      "v": 80
    },
    {
      "midi": 67,
      "hit": false,
      "t": 12600,
      "d": 300,
      "v": 80
    },
    {
      "midi": 73,
      "hit": false,
      "t": 12600,
      "d": 300,
      "v": 80
    },
    {
      "midi": 47,
      "hit": false,
      "t": 12600,
      "d": 600,
      "v": 72
    },
    {
      "midi": 53,
      "hit": false,
      "t": 12600,
      "d": 600,
      "v": 72
    },
    {
      "midi": 71,
      "hit": false,
      "t": 12900,
      "d": 300,
      "v": 76
    },
    {
      "midi": 62,
      "hit": false,
      "t": 13200,
      "d": 300,
      "v": 84
    },
    {
      "midi": 74,
      "hit": false,
      "t": 13200,
      "d": 300,
      "v": 84
    },
    {
      "midi": 47,
      "hit": false,
      "t": 13200,
      "d": 450,
      "v": 69
    },
    {
      "midi": 66,
      "hit": false,
      "t": 13500,
      "d": 300,
      "v": 61
    },
    {
      "midi": 54,
      "hit": false,
      "t": 13650,
      "d": 150,
      "v": 82
    },
    {
      "midi": 66,
      "hit": false,
      "t": 13800,
      "d": 199.21875,
      "v": 100
    },
    {
      "midi": 62,
      "hit": false,
      "t": 13800,
      "d": 300,
      "v": 91
    },
    {
      "midi": 65,
      "hit": false,
      "t": 13999.21875,
      "d": 199.21875,
      "v": 100
    },
    {
      "midi": 54,
      "hit": false,
      "t": 14100,
      "d": 300,
      "v": 72
    },
    {
      "midi": 66,
      "hit": false,
      "t": 14198.4375,
      "d": 201.5625,
      "v": 100
    },
    {
      "midi": 62,
      "hit": false,
      "t": 14400,
      "d": 199.21875,
      "v": 100
    },
    {
      "midi": 67,
      "hit": false,
      "t": 14400,
      "d": 199.21875,
      "v": 100
    },
    {
      "midi": 47,
      "hit": false,
      "t": 14400,
      "d": 450,
      "v": 68
    },
    {
      "midi": 71,
      "hit": false,
      "t": 14599.21875,
      "d": 199.21875,
      "v": 100
    },
    {
      "midi": 74,
      "hit": false,
      "t": 14798.4375,
      "d": 201.5625,
      "v": 100
    },
    {
      "midi": 55,
      "hit": false,
      "t": 14850,
      "d": 150,
      "v": 83
    },
    {
      "midi": 73,
      "hit": false,
      "t": 15000,
      "d": 300,
      "v": 87
    },
    {
      "midi": 62,
      "hit": false,
      "t": 15000,
      "d": 300,
      "v": 93
    },
    {
      "midi": 71,
      "hit": false,
      "t": 15300,
      "d": 300,
      "v": 74
    },
    {
      "midi": 55,
      "hit": false,
      "t": 15300,
      "d": 300,
      "v": 72
    },
    {
      "midi": 62,
      "hit": false,
      "t": 15600,
      "d": 900,
      "v": 86
    },
    {
      "midi": 66,
      "hit": false,
      "t": 15600,
      "d": 900,
      "v": 86
    },
    {
      "midi": 74,
      "hit": false,
      "t": 15600,
      "d": 900,
      "v": 86
    },
    {
      "midi": 47,
      "hit": false,
      "t": 15600,
      "d": 199.21875,
      "v": 100
    },
    {
      "midi": 53,
      "hit": false,
      "t": 15799.21875,
      "d": 199.21875,
      "v": 100
    },
    {
      "midi": 54,
      "hit": false,
      "t": 15998.4375,
      "d": 201.5625,
      "v": 100
    },
    {
      "midi": 59,
      "hit": false,
      "t": 16200,
      "d": 300,
      "v": 82
    },
    {
      "midi": 68,
      "hit": false,
      "t": 16500,
      "d": 300,
      "v": 84
    },
    {
      "midi": 78,
      "hit": false,
      "t": 16500,
      "d": 300,
      "v": 84
    },
    {
      "midi": 62,
      "hit": false,
      "t": 16500,
      "d": 300,
      "v": 85
    },
    {
      "midi": 69,
      "hit": false,
      "t": 16800,
      "d": 199.21875,
      "v": 100
    },
    {
      "midi": 78,
      "hit": false,
      "t": 16800,
      "d": 199.21875,
      "v": 100
    },
    {
      "midi": 61,
      "hit": false,
      "t": 16800,
      "d": 300,
      "v": 71
    },
    {
      "midi": 76,
      "hit": false,
      "t": 16999.21875,
      "d": 199.21875,
      "v": 100
    },
    {
      "midi": 58,
      "hit": false,
      "t": 17100,
      "d": 300,
      "v": 74
    },
    {
      "midi": 67,
      "hit": false,
      "t": 17198.4375,
      "d": 201.5625,
      "v": 100
    },
    {
      "midi": 73,
      "hit": false,
      "t": 17198.4375,
      "d": 201.5625,
      "v": 100
    },
    {
      "midi": 68,
      "hit": false,
      "t": 17400,
      "d": 300,
      "v": 76
    },
    {
      "midi": 74,
      "hit": false,
      "t": 17400,
      "d": 300,
      "v": 76
    },
    {
      "midi": 59,
      "hit": false,
      "t": 17400,
      "d": 300,
      "v": 80
    },
    {
      "midi": 71,
      "hit": false,
      "t": 17700,
      "d": 300,
      "v": 72
    },
    {
      "midi": 62,
      "hit": false,
      "t": 17700,
      "d": 300,
      "v": 88
    },
    {
      "midi": 64,
      "hit": false,
      "t": 18000,
      "d": 300,
      "v": 83
    },
    {
      "midi": 69,
      "hit": false,
      "t": 18000,
      "d": 300,
      "v": 83
    },
    {
      "midi": 76,
      "hit": false,
      "t": 18000,
      "d": 300,
      "v": 83
    },
    {
      "midi": 61,
      "hit": false,
      "t": 18000,
      "d": 600,
      "v": 77
    },
    {
      "midi": 73,
      "hit": false,
      "t": 18300,
      "d": 300,
      "v": 71
    },
    {
      "midi": 61,
      "hit": false,
      "t": 18600,
      "d": 199.21875,
      "v": 100
    },
    {
      "midi": 66,
      "hit": false,
      "t": 18600,
      "d": 199.21875,
      "v": 100
    },
    {
      "midi": 69,
      "hit": false,
      "t": 18600,
      "d": 199.21875,
      "v": 100
    },
    {
      "midi": 54,
      "hit": false,
      "t": 18600,
      "d": 600,
      "v": 68
    },
    {
      "midi": 71,
      "hit": false,
      "t": 18799.21875,
      "d": 199.21875,
      "v": 100
    },
    {
      "midi": 73,
      "hit": false,
      "t": 18998.4375,
      "d": 201.5625,
      "v": 100
    },
    {
      "midi": 62,
      "hit": false,
      "t": 19200,
      "d": 199.21875,
      "v": 100
    },
    {
      "midi": 69,
      "hit": false,
      "t": 19200,
      "d": 199.21875,
      "v": 100
    },
    {
      "midi": 76,
      "hit": false,
      "t": 19200,
      "d": 199.21875,
      "v": 100
    },
    {
      "midi": 47,
      "hit": false,
      "t": 19200,
      "d": 600,
      "v": 78
    },
    {
      "midi": 53,
      "hit": false,
      "t": 19200,
      "d": 600,
      "v": 78
    },
    {
      "midi": 74,
      "hit": false,
      "t": 19399.21875,
      "d": 199.21875,
      "v": 100
    },
    {
      "midi": 73,
      "hit": false,
      "t": 19598.4375,
      "d": 201.5625,
      "v": 100
    },
    {
      "midi": 62,
      "hit": false,
      "t": 19800,
      "d": 300,
      "v": 79
    },
    {
      "midi": 68,
      "hit": false,
      "t": 19800,
      "d": 300,
      "v": 79
    },
    {
      "midi": 73,
      "hit": false,
      "t": 19800,
      "d": 300,
      "v": 79
    },
    {
      "midi": 40,
      "hit": false,
      "t": 19800,
      "d": 300,
      "v": 64
    },
    {
      "midi": 71,
      "hit": false,
      "t": 20100,
      "d": 300,
      "v": 73
    },
    {
      "midi": 52,
      "hit": false,
      "t": 20100,
      "d": 300,
      "v": 86
    },
    {
      "midi": 61,
      "hit": false,
      "t": 20400,
      "d": 600,
      "v": 74
    },
    {
      "midi": 69,
      "hit": false,
      "t": 20400,
      "d": 600,
      "v": 74
    },
    {
      "midi": 45,
      "hit": false,
      "t": 20400,
      "d": 199.21875,
      "v": 100
    },
    {
      "midi": 56,
      "hit": false,
      "t": 20599.21875,
      "d": 199.21875,
      "v": 100
    },
    {
      "midi": 57,
      "hit": false,
      "t": 20798.4375,
      "d": 201.5625,
      "v": 100
    },
    {
      "midi": 59,
      "hit": false,
      "t": 21000,
      "d": 300,
      "v": 75
    },
    {
      "midi": 57,
      "hit": false,
      "t": 21300,
      "d": 300,
      "v": 77
    },
    {
      "midi": 57,
      "hit": false,
      "t": 21600,
      "d": 199.21875,
      "v": 100
    },
    {
      "midi": 62,
      "hit": false,
      "t": 21600,
      "d": 199.21875,
      "v": 100
    },
    {
      "midi": 66,
      "hit": false,
      "t": 21600,
      "d": 199.21875,
      "v": 100
    },
    {
      "midi": 50,
      "hit": false,
      "t": 21600,
      "d": 600,
      "v": 70
    },
    {
      "midi": 66,
      "hit": false,
      "t": 21799.21875,
      "d": 199.21875,
      "v": 100
    },
    {
      "midi": 66,
      "hit": false,
      "t": 21998.4375,
      "d": 201.5625,
      "v": 100
    },
    {
      "midi": 67,
      "hit": false,
      "t": 22200,
      "d": 300,
      "v": 80
    },
    {
      "midi": 57,
      "hit": false,
      "t": 22200,
      "d": 300,
      "v": 82
    },
    {
      "midi": 66,
      "hit": false,
      "t": 22500,
      "d": 300,
      "v": 76
    },
    {
      "midi": 45,
      "hit": false,
      "t": 22500,
      "d": 300,
      "v": 63
    },
    {
      "midi": 57,
      "hit": false,
      "t": 22800,
      "d": 900,
      "v": 85
    },
    {
      "midi": 62,
      "hit": false,
      "t": 22800,
      "d": 900,
      "v": 85
    },
    {
      "midi": 66,
      "hit": false,
      "t": 22800,
      "d": 900,
      "v": 85
    },
    {
      "midi": 69,
      "hit": false,
      "t": 22800,
      "d": 900,
      "v": 85
    },
    {
      "midi": 50,
      "hit": false,
      "t": 22800,
      "d": 600,
      "v": 81
    },
    {
      "midi": 57,
      "hit": false,
      "t": 23400,
      "d": 300,
      "v": 81
    },
    {
      "midi": 66,
      "hit": false,
      "t": 23700,
      "d": 150,
      "v": 87
    },
    {
      "midi": 74,
      "hit": false,
      "t": 23700,
      "d": 150,
      "v": 87
    },
    {
      "midi": 45,
      "hit": false,
      "t": 23700,
      "d": 300,
      "v": 66
    },
    {
      "midi": 76,
      "hit": false,
      "t": 23850,
      "d": 150,
      "v": 80
    },
    {
      "midi": 66,
      "hit": false,
      "t": 24000,
      "d": 450,
      "v": 83
    },
    {
      "midi": 78,
      "hit": false,
      "t": 24000,
      "d": 450,
      "v": 83
    },
    {
      "midi": 50,
      "hit": false,
      "t": 24000,
      "d": 600,
      "v": 74
    },
    {
      "midi": 73,
      "hit": false,
      "t": 24450,
      "d": 150,
      "v": 67
    },
    {
      "midi": 66,
      "hit": false,
      "t": 24600,
      "d": 300,
      "v": 79
    },
    {
      "midi": 74,
      "hit": false,
      "t": 24600,
      "d": 300,
      "v": 79
    },
    {
      "midi": 57,
      "hit": false,
      "t": 24600,
      "d": 300,
      "v": 83
    },
    {
      "midi": 65,
      "hit": false,
      "t": 24900,
      "d": 150,
      "v": 64
    },
    {
      "midi": 71,
      "hit": false,
      "t": 24900,
      "d": 150,
      "v": 64
    },
    {
      "midi": 51,
      "hit": false,
      "t": 24900,
      "d": 300,
      "v": 73
    },
    {
      "midi": 66,
      "hit": false,
      "t": 25050,
      "d": 150,
      "v": 64
    },
    {
      "midi": 61,
      "hit": false,
      "t": 25200,
      "d": 900,
      "v": 80
    },
    {
      "midi": 67,
      "hit": false,
      "t": 25200,
      "d": 900,
      "v": 80
    },
    {
      "midi": 52,
      "hit": false,
      "t": 25200,
      "d": 600,
      "v": 82
    },
    {
      "midi": 58,
      "hit": false,
      "t": 25800,
      "d": 300,
      "v": 83
    },
    {
      "midi": 64,
      "hit": false,
      "t": 26100,
      "d": 150,
      "v": 76
    },
    {
      "midi": 67,
      "hit": false,
      "t": 26100,
      "d": 150,
      "v": 76
    },
    {
      "midi": 55,
      "hit": false,
      "t": 26100,
      "d": 150,
      "v": 77
    },
    {
      "midi": 66,
      "hit": false,
      "t": 26250,
      "d": 150,
      "v": 77
    },
    {
      "midi": 70,
      "hit": false,
      "t": 26250,
      "d": 150,
      "v": 77
    },
    {
      "midi": 52,
      "hit": false,
      "t": 26250,
      "d": 150,
      "v": 77
    },
    {
      "midi": 67,
      "hit": false,
      "t": 26400,
      "d": 450,
      "v": 80
    },
    {
      "midi": 71,
      "hit": false,
      "t": 26400,
      "d": 450,
      "v": 80
    },
    {
      "midi": 49,
      "hit": false,
      "t": 26400,
      "d": 450,
      "v": 71
    },
    {
      "midi": 70,
      "hit": false,
      "t": 26850,
      "d": 150,
      "v": 79
    },
    {
      "midi": 73,
      "hit": false,
      "t": 26850,
      "d": 150,
      "v": 79
    },
    {
      "midi": 59,
      "hit": false,
      "t": 26850,
      "d": 150,
      "v": 84
    },
    {
      "midi": 73,
      "hit": false,
      "t": 27000,
      "d": 300,
      "v": 83
    },
    {
      "midi": 76,
      "hit": false,
      "t": 27000,
      "d": 300,
      "v": 83
    },
    {
      "midi": 67,
      "hit": false,
      "t": 27000,
      "d": 300,
      "v": 91
    },
    {
      "midi": 64,
      "hit": false,
      "t": 27300,
      "d": 300,
      "v": 74
    },
    {
      "midi": 67,
      "hit": false,
      "t": 27300,
      "d": 300,
      "v": 74
    },
    {
      "midi": 74,
      "hit": false,
      "t": 27300,
      "d": 300,
      "v": 74
    },
    {
      "midi": 59,
      "hit": false,
      "t": 27300,
      "d": 300,
      "v": 67
    },
    {
      "midi": 64,
      "hit": false,
      "t": 27600,
      "d": 300,
      "v": 72
    },
    {
      "midi": 66,
      "hit": false,
      "t": 27600,
      "d": 300,
      "v": 72
    },
    {
      "midi": 70,
      "hit": false,
      "t": 27600,
      "d": 300,
      "v": 72
    },
    {
      "midi": 74,
      "hit": false,
      "t": 27600,
      "d": 300,
      "v": 74
    },
    {
      "midi": 42,
      "hit": false,
      "t": 27600,
      "d": 600,
      "v": 64
    },
    {
      "midi": 73,
      "hit": false,
      "t": 27900,
      "d": 300,
      "v": 70
    },
    {
      "midi": 54,
      "hit": false,
      "t": 28200,
      "d": 300,
      "v": 82
    },
    {
      "midi": 66,
      "hit": false,
      "t": 28500,
      "d": 150,
      "v": 67
    },
    {
      "midi": 70,
      "hit": false,
      "t": 28500,
      "d": 150,
      "v": 71
    },
    {
      "midi": 64,
      "hit": false,
      "t": 28500,
      "d": 150,
      "v": 99
    },
    {
      "midi": 72,
      "hit": false,
      "t": 28650,
      "d": 150,
      "v": 78
    },
    {
      "midi": 55,
      "hit": false,
      "t": 28650,
      "d": 150,
      "v": 76
    },
    {
      "midi": 66,
      "hit": false,
      "t": 28800,
      "d": 450,
      "v": 80
    },
    {
      "midi": 73,
      "hit": false,
      "t": 28800,
      "d": 450,
      "v": 79
    },
    {
      "midi": 58,
      "hit": false,
      "t": 28800,
      "d": 600,
      "v": 89
    },
    {
      "midi": 64,
      "hit": false,
      "t": 28800,
      "d": 600,
      "v": 89
    },
    {
      "midi": 74,
      "hit": false,
      "t": 29250,
      "d": 150,
      "v": 82
    },
    {
      "midi": 70,
      "hit": false,
      "t": 29400,
      "d": 300,
      "v": 82
    },
    {
      "midi": 78,
      "hit": false,
      "t": 29400,
      "d": 300,
      "v": 86
    },
    {
      "midi": 54,
      "hit": false,
      "t": 29400,
      "d": 600,
      "v": 68
    },
    {
      "midi": 76,
      "hit": false,
      "t": 29700,
      "d": 300,
      "v": 72
    },
    {
      "midi": 65,
      "hit": false,
      "t": 30000,
      "d": 300,
      "v": 70
    },
    {
      "midi": 71,
      "hit": false,
      "t": 30000,
      "d": 300,
      "v": 70
    },
    {
      "midi": 73,
      "hit": false,
      "t": 30000,
      "d": 300,
      "v": 70
    },
    {
      "midi": 47,
      "hit": false,
      "t": 30000,
      "d": 450,
      "v": 68
    },
    {
      "midi": 66,
      "hit": false,
      "t": 30300,
      "d": 300,
      "v": 78
    },
    {
      "midi": 74,
      "hit": false,
      "t": 30300,
      "d": 300,
      "v": 78
    },
    {
      "midi": 54,
      "hit": false,
      "t": 30450,
      "d": 150,
      "v": 80
    },
    {
      "midi": 62,
      "hit": false,
      "t": 30600,
      "d": 300,
      "v": 93
    },
    {
      "midi": 74,
      "hit": false,
      "t": 30900,
      "d": 300,
      "v": 71
    },
    {
      "midi": 54,
      "hit": false,
      "t": 30900,
      "d": 300,
      "v": 68
    },
    {
      "midi": 67,
      "hit": false,
      "t": 31200,
      "d": 199.21875,
      "v": 100
    },
    {
      "midi": 73,
      "hit": false,
      "t": 31200,
      "d": 199.21875,
      "v": 100
    },
    {
      "midi": 47,
      "hit": false,
      "t": 31200,
      "d": 450,
      "v": 64
    },
    {
      "midi": 76,
      "hit": false,
      "t": 31399.21875,
      "d": 199.21875,
      "v": 100
    },
    {
      "midi": 78,
      "hit": false,
      "t": 31598.4375,
      "d": 201.5625,
      "v": 100
    },
    {
      "midi": 55,
      "hit": false,
      "t": 31650,
      "d": 150,
      "v": 83
    },
    {
      "midi": 76,
      "hit": false,
      "t": 31800,
      "d": 300,
      "v": 80
    },
    {
      "midi": 61,
      "hit": false,
      "t": 31800,
      "d": 300,
      "v": 86
    },
    {
      "midi": 71,
      "hit": false,
      "t": 32100,
      "d": 300,
      "v": 63
    },
    {
      "midi": 55,
      "hit": false,
      "t": 32100,
      "d": 300,
      "v": 73
    },
    {
      "midi": 66,
      "hit": false,
      "t": 32400,
      "d": 900,
      "v": 81
    },
    {
      "midi": 71,
      "hit": false,
      "t": 32400,
      "d": 900,
      "v": 81
    },
    {
      "midi": 74,
      "hit": false,
      "t": 32400,
      "d": 900,
      "v": 81
    },
    {
      "midi": 47,
      "hit": false,
      "t": 32400,
      "d": 199.21875,
      "v": 100
    },
    {
      "midi": 53,
      "hit": false,
      "t": 32599.21875,
      "d": 199.21875,
      "v": 100
    },
    {
      "midi": 54,
      "hit": false,
      "t": 32798.4375,
      "d": 201.5625,
      "v": 100
    },
    {
      "midi": 55,
      "hit": false,
      "t": 33000,
      "d": 300,
      "v": 79
    },
    {
      "midi": 74,
      "hit": false,
      "t": 33300,
      "d": 300,
      "v": 79
    },
    {
      "midi": 54,
      "hit": false,
      "t": 33300,
      "d": 300,
      "v": 75
    },
    {
      "midi": 67,
      "hit": false,
      "t": 33600,
      "d": 199.21875,
      "v": 100
    },
    {
      "midi": 73,
      "hit": false,
      "t": 33600,
      "d": 199.21875,
      "v": 100
    },
    {
      "midi": 47,
      "hit": false,
      "t": 33600,
      "d": 450,
      "v": 74
    },
    {
      "midi": 76,
      "hit": false,
      "t": 33799.21875,
      "d": 199.21875,
      "v": 100
    },
    {
      "midi": 78,
      "hit": false,
      "t": 33998.4375,
      "d": 201.5625,
      "v": 100
    },
    {
      "midi": 55,
      "hit": false,
      "t": 34050,
      "d": 150,
      "v": 79
    },
    {
      "midi": 76,
      "hit": false,
      "t": 34200,
      "d": 300,
      "v": 75
    },
    {
      "midi": 61,
      "hit": false,
      "t": 34200,
      "d": 300,
      "v": 85
    },
    {
      "midi": 71,
      "hit": false,
      "t": 34500,
      "d": 300,
      "v": 71
    },
    {
      "midi": 55,
      "hit": false,
      "t": 34500,
      "d": 300,
      "v": 73
    },
    {
      "midi": 66,
      "hit": false,
      "t": 34800,
      "d": 900,
      "v": 79
    },
    {
      "midi": 71,
      "hit": false,
      "t": 34800,
      "d": 900,
      "v": 79
    },
    {
      "midi": 74,
      "hit": false,
      "t": 34800,
      "d": 900,
      "v": 79
    },
    {
      "midi": 47,
      "hit": false,
      "t": 34800,
      "d": 199.21875,
      "v": 100
    },
    {
      "midi": 53,
      "hit": false,
      "t": 34999.21875,
      "d": 199.21875,
      "v": 100
    },
    {
      "midi": 54,
      "hit": false,
      "t": 35198.4375,
      "d": 201.5625,
      "v": 100
    },
    {
      "midi": 55,
      "hit": false,
      "t": 35400,
      "d": 300,
      "v": 84
    },
    {
      "midi": 74,
      "hit": false,
      "t": 35700,
      "d": 300,
      "v": 77
    },
    {
      "midi": 54,
      "hit": false,
      "t": 35700,
      "d": 300,
      "v": 75
    },
    {
      "midi": 62,
      "hit": false,
      "t": 36000,
      "d": 199.21875,
      "v": 100
    },
    {
      "midi": 71,
      "hit": false,
      "t": 36000,
      "d": 199.21875,
      "v": 100
    },
    {
      "midi": 44,
      "hit": false,
      "t": 36000,
      "d": 600,
      "v": 67
    },
    {
      "midi": 73,
      "hit": false,
      "t": 36199.21875,
      "d": 199.21875,
      "v": 100
    },
    {
      "midi": 74,
      "hit": false,
      "t": 36398.4375,
      "d": 201.5625,
      "v": 100
    },
    {
      "midi": 71,
      "hit": false,
      "t": 36600,
      "d": 300,
      "v": 68
    },
    {
      "midi": 50,
      "hit": false,
      "t": 36600,
      "d": 300,
      "v": 81
    },
    {
      "midi": 66,
      "hit": false,
      "t": 36900,
      "d": 300,
      "v": 66
    },
    {
      "midi": 56,
      "hit": false,
      "t": 36900,
      "d": 300,
      "v": 80
    },
    {
      "midi": 61,
      "hit": false,
      "t": 37200,
      "d": 900,
      "v": 79
    },
    {
      "midi": 66,
      "hit": false,
      "t": 37200,
      "d": 900,
      "v": 79
    },
    {
      "midi": 70,
      "hit": false,
      "t": 37200,
      "d": 900,
      "v": 79
    },
    {
      "midi": 37,
      "hit": false,
      "t": 37200,
      "d": 199.21875,
      "v": 100
    },
    {
      "midi": 48,
      "hit": false,
      "t": 37399.21875,
      "d": 199.21875,
      "v": 100
    },
    {
      "midi": 49,
      "hit": false,
      "t": 37598.4375,
      "d": 201.5625,
      "v": 100
    },
    {
      "midi": 51,
      "hit": false,
      "t": 37800,
      "d": 300,
      "v": 80
    },
    {
      "midi": 70,
      "hit": false,
      "t": 38100,
      "d": 300,
      "v": 77
    },
    {
      "midi": 49,
      "hit": false,
      "t": 38100,
      "d": 300,
      "v": 77
    },
    {
      "midi": 65,
      "hit": false,
      "t": 38400,
      "d": 199.21875,
      "v": 100
    },
    {
      "midi": 68,
      "hit": false,
      "t": 38400,
      "d": 199.21875,
      "v": 100
    },
    {
      "midi": 49,
      "hit": false,
      "t": 38400,
      "d": 199.21875,
      "v": 100
    },
    {
      "midi": 59,
      "hit": false,
      "t": 38400,
      "d": 199.21875,
      "v": 100
    },
    {
      "midi": 70,
      "hit": false,
      "t": 38599.21875,
      "d": 199.21875,
      "v": 100
    },
    {
      "midi": 61,
      "hit": false,
      "t": 38599.21875,
      "d": 199.21875,
      "v": 100
    },
    {
      "midi": 71,
      "hit": false,
      "t": 38798.4375,
      "d": 201.5625,
      "v": 100
    },
    {
      "midi": 63,
      "hit": false,
      "t": 38798.4375,
      "d": 201.5625,
      "v": 100
    },
    {
      "midi": 65,
      "hit": false,
      "t": 39000,
      "d": 300,
      "v": 80
    },
    {
      "midi": 70,
      "hit": false,
      "t": 39000,
      "d": 300,
      "v": 80
    },
    {
      "midi": 61,
      "hit": false,
      "t": 39000,
      "d": 300,
      "v": 80
    },
    {
      "midi": 68,
      "hit": false,
      "t": 39300,
      "d": 300,
      "v": 72
    },
    {
      "midi": 59,
      "hit": false,
      "t": 39300,
      "d": 300,
      "v": 73
    },
    {
      "midi": 61,
      "hit": false,
      "t": 39600,
      "d": 900,
      "v": 86
    },
    {
      "midi": 66,
      "hit": false,
      "t": 39600,
      "d": 900,
      "v": 86
    },
    {
      "midi": 70,
      "hit": false,
      "t": 39600,
      "d": 900,
      "v": 86
    },
    {
      "midi": 73,
      "hit": false,
      "t": 39600,
      "d": 900,
      "v": 86
    },
    {
      "midi": 42,
      "hit": false,
      "t": 39600,
      "d": 600,
      "v": 69
    },
    {
      "midi": 49,
      "hit": false,
      "t": 40200,
      "d": 300,
      "v": 77
    },
    {
      "midi": 70,
      "hit": false,
      "t": 40500,
      "d": 300,
      "v": 70
    },
    {
      "midi": 61,
      "hit": false,
      "t": 40500,
      "d": 300,
      "v": 94
    },
    {
      "midi": 65,
      "hit": false,
      "t": 40800,
      "d": 199.21875,
      "v": 100
    },
    {
      "midi": 71,
      "hit": false,
      "t": 40800,
      "d": 199.21875,
      "v": 100
    },
    {
      "midi": 42,
      "hit": false,
      "t": 40800,
      "d": 450,
      "v": 74
    },
    {
      "midi": 73,
      "hit": false,
      "t": 40999.21875,
      "d": 199.21875,
      "v": 100
    },
    {
      "midi": 77,
      "hit": false,
      "t": 41198.4375,
      "d": 201.5625,
      "v": 100
    },
    {
      "midi": 49,
      "hit": false,
      "t": 41250,
      "d": 150,
      "v": 84
    },
    {
      "midi": 75,
      "hit": false,
      "t": 41400,
      "d": 300,
      "v": 80
    },
    {
      "midi": 59,
      "hit": false,
      "t": 41400,
      "d": 300,
      "v": 83
    },
    {
      "midi": 73,
      "hit": false,
      "t": 41700,
      "d": 300,
      "v": 79
    },
    {
      "midi": 49,
      "hit": false,
      "t": 41700,
      "d": 300,
      "v": 66
    },
    {
      "midi": 70,
      "hit": false,
      "t": 42000,
      "d": 900,
      "v": 65
    },
    {
      "midi": 42,
      "hit": false,
      "t": 42000,
      "d": 450,
      "v": 71
    },
    {
      "midi": 49,
      "hit": false,
      "t": 42450,
      "d": 150,
      "v": 81
    },
    {
      "midi": 58,
      "hit": false,
      "t": 42600,
      "d": 300,
      "v": 80
    },
    {
      "midi": 70,
      "hit": false,
      "t": 42900,
      "d": 300,
      "v": 74
    },
    {
      "midi": 49,
      "hit": false,
      "t": 42900,
      "d": 300,
      "v": 72
    },
    {
      "midi": 66,
      "hit": false,
      "t": 43200,
      "d": 600,
      "v": 79
    },
    {
      "midi": 71,
      "hit": false,
      "t": 43200,
      "d": 600,
      "v": 79
    },
    {
      "midi": 42,
      "hit": false,
      "t": 43200,
      "d": 450,
      "v": 69
    },
    {
      "midi": 49,
      "hit": false,
      "t": 43650,
      "d": 150,
      "v": 83
    },
    {
      "midi": 64,
      "hit": false,
      "t": 43800,
      "d": 600,
      "v": 82
    },
    {
      "midi": 71,
      "hit": false,
      "t": 43800,
      "d": 600,
      "v": 82
    },
    {
      "midi": 56,
      "hit": false,
      "t": 43800,
      "d": 300,
      "v": 84
    },
    {
      "midi": 49,
      "hit": false,
      "t": 44100,
      "d": 300,
      "v": 67
    },
    {
      "midi": 66,
      "hit": false,
      "t": 44400,
      "d": 199.21875,
      "v": 100
    },
    {
      "midi": 70,
      "hit": false,
      "t": 44400,
      "d": 199.21875,
      "v": 100
    },
    {
      "midi": 42,
      "hit": false,
      "t": 44400,
      "d": 450,
      "v": 65
    },
    {
      "midi": 71,
      "hit": false,
      "t": 44599.21875,
      "d": 199.21875,
      "v": 100
    },
    {
      "midi": 72,
      "hit": false,
      "t": 44798.4375,
      "d": 201.5625,
      "v": 100
    },
    {
      "midi": 49,
      "hit": false,
      "t": 44850,
      "d": 150,
      "v": 80
    },
    {
      "midi": 73,
      "hit": false,
      "t": 45000,
      "d": 199.21875,
      "v": 100
    },
    {
      "midi": 58,
      "hit": false,
      "t": 45000,
      "d": 300,
      "v": 88
    },
    {
      "midi": 75,
      "hit": false,
      "t": 45199.21875,
      "d": 199.21875,
      "v": 100
    },
    {
      "midi": 49,
      "hit": false,
      "t": 45300,
      "d": 300,
      "v": 70
    },
    {
      "midi": 73,
      "hit": false,
      "t": 45398.4375,
      "d": 201.5625,
      "v": 100
    },
    {
      "midi": 65,
      "hit": false,
      "t": 45600,
      "d": 199.21875,
      "v": 100
    },
    {
      "midi": 71,
      "hit": false,
      "t": 45600,
      "d": 199.21875,
      "v": 100
    },
    {
      "midi": 42,
      "hit": false,
      "t": 45600,
      "d": 450,
      "v": 66
    },
    {
      "midi": 73,
      "hit": false,
      "t": 45799.21875,
      "d": 199.21875,
      "v": 100
    },
    {
      "midi": 77,
      "hit": false,
      "t": 45998.4375,
      "d": 201.5625,
      "v": 100
    },
    {
      "midi": 49,
      "hit": false,
      "t": 46050,
      "d": 150,
      "v": 79
    },
    {
      "midi": 74,
      "hit": false,
      "t": 46200,
      "d": 300,
      "v": 84
    },
    {
      "midi": 59,
      "hit": false,
      "t": 46200,
      "d": 300,
      "v": 83
    },
    {
      "midi": 73,
      "hit": false,
      "t": 46500,
      "d": 300,
      "v": 79
    },
    {
      "midi": 49,
      "hit": false,
      "t": 46500,
      "d": 300,
      "v": 69
    },
    {
      "midi": 61,
      "hit": false,
      "t": 46800,
      "d": 600,
      "v": 75
    },
    {
      "midi": 66,
      "hit": false,
      "t": 46800,
      "d": 600,
      "v": 75
    },
    {
      "midi": 70,
      "hit": false,
      "t": 46800,
      "d": 600,
      "v": 75
    },
    {
      "midi": 42,
      "hit": false,
      "t": 46800,
      "d": 600,
      "v": 68
    },
    {
      "midi": 62,
      "hit": false,
      "t": 47400,
      "d": 199.21875,
      "v": 100
    },
    {
      "midi": 66,
      "hit": false,
      "t": 47400,
      "d": 199.21875,
      "v": 100
    },
    {
      "midi": 69,
      "hit": false,
      "t": 47400,
      "d": 199.21875,
      "v": 100
    },
    {
      "midi": 50,
      "hit": false,
      "t": 47400,
      "d": 600,
      "v": 95
    },
    {
      "midi": 60,
      "hit": false,
      "t": 47400,
      "d": 600,
      "v": 95
    },
    {
      "midi": 74,
      "hit": false,
      "t": 47599.21875,
      "d": 199.21875,
      "v": 100
    },
    {
      "midi": 71,
      "hit": false,
      "t": 47798.4375,
      "d": 201.5625,
      "v": 100
    },
    {
      "midi": 62,
      "hit": false,
      "t": 48000,
      "d": 199.21875,
      "v": 100
    },
    {
      "midi": 69,
      "hit": false,
      "t": 48000,
      "d": 199.21875,
      "v": 100
    },
    {
      "midi": 55,
      "hit": false,
      "t": 48000,
      "d": 600,
      "v": 82
    },
    {
      "midi": 60,
      "hit": false,
      "t": 48000,
      "d": 600,
      "v": 82
    },
    {
      "midi": 67,
      "hit": false,
      "t": 48199.21875,
      "d": 199.21875,
      "v": 100
    },
    {
      "midi": 74,
      "hit": false,
      "t": 48398.4375,
      "d": 201.5625,
      "v": 100
    },
    {
      "midi": 61,
      "hit": false,
      "t": 48600,
      "d": 300,
      "v": 68
    },
    {
      "midi": 65,
      "hit": false,
      "t": 48600,
      "d": 300,
      "v": 68
    },
    {
      "midi": 59,
      "hit": false,
      "t": 48600,
      "d": 300,
      "v": 77
    },
    {
      "midi": 73,
      "hit": false,
      "t": 48900,
      "d": 300,
      "v": 90
    },
    {
      "midi": 49,
      "hit": false,
      "t": 48900,
      "d": 300,
      "v": 76
    },
    {
      "midi": 59,
      "hit": false,
      "t": 48900,
      "d": 300,
      "v": 76
    },
    {
      "midi": 61,
      "hit": false,
      "t": 49200,
      "d": 600,
      "v": 66
    },
    {
      "midi": 66,
      "hit": false,
      "t": 49200,
      "d": 600,
      "v": 66
    },
    {
      "midi": 54,
      "hit": false,
      "t": 49200,
      "d": 600,
      "v": 71
    },
    {
      "midi": 58,
      "hit": false,
      "t": 49200,
      "d": 600,
      "v": 71
    },
    {
      "midi": 66,
      "hit": false,
      "t": 49800,
      "d": 199.21875,
      "v": 100
    },
    {
      "midi": 47,
      "hit": false,
      "t": 49800,
      "d": 600,
      "v": 71
    },
    {
      "midi": 57,
      "hit": false,
      "t": 49800,
      "d": 600,
      "v": 71
    },
    {
      "midi": 69,
      "hit": false,
      "t": 49999.21875,
      "d": 199.21875,
      "v": 100
    },
    {
      "midi": 67,
      "hit": false,
      "t": 50198.4375,
      "d": 201.5625,
      "v": 100
    },
    {
      "midi": 59,
      "hit": false,
      "t": 50400,
      "d": 199.21875,
      "v": 100
    },
    {
      "midi": 66,
      "hit": false,
      "t": 50400,
      "d": 199.21875,
      "v": 100
    },
    {
      "midi": 52,
      "hit": false,
      "t": 50400,
      "d": 600,
      "v": 73
    },
    {
      "midi": 57,
      "hit": false,
      "t": 50400,
      "d": 600,
      "v": 73
    },
    {
      "midi": 64,
      "hit": false,
      "t": 50599.21875,
      "d": 199.21875,
      "v": 100
    },
    {
      "midi": 71,
      "hit": false,
      "t": 50798.4375,
      "d": 201.5625,
      "v": 100
    },
    {
      "midi": 61,
      "hit": false,
      "t": 51000,
      "d": 300,
      "v": 75
    },
    {
      "midi": 64,
      "hit": false,
      "t": 51000,
      "d": 300,
      "v": 75
    },
    {
      "midi": 55,
      "hit": false,
      "t": 51000,
      "d": 300,
      "v": 78
    },
    {
      "midi": 65,
      "hit": false,
      "t": 51300,
      "d": 300,
      "v": 79
    },
    {
      "midi": 45,
      "hit": false,
      "t": 51300,
      "d": 300,
      "v": 74
    },
    {
      "midi": 55,
      "hit": false,
      "t": 51300,
      "d": 300,
      "v": 74
    },
    {
      "midi": 57,
      "hit": false,
      "t": 51600,
      "d": 199.21875,
      "v": 100
    },
    {
      "midi": 62,
      "hit": false,
      "t": 51600,
      "d": 199.21875,
      "v": 100
    },
    {
      "midi": 66,
      "hit": false,
      "t": 51600,
      "d": 199.21875,
      "v": 100
    },
    {
      "midi": 38,
      "hit": false,
      "t": 51600,
      "d": 600,
      "v": 67
    },
    {
      "midi": 66,
      "hit": false,
      "t": 51799.21875,
      "d": 199.21875,
      "v": 100
    },
    {
      "midi": 66,
      "hit": false,
      "t": 51998.4375,
      "d": 201.5625,
      "v": 100
    },
    {
      "midi": 67,
      "hit": false,
      "t": 52200,
      "d": 300,
      "v": 85
    },
    {
      "midi": 57,
      "hit": false,
      "t": 52200,
      "d": 300,
      "v": 85
    },
    {
      "midi": 66,
      "hit": false,
      "t": 52500,
      "d": 300,
      "v": 74
    },
    {
      "midi": 45,
      "hit": false,
      "t": 52500,
      "d": 300,
      "v": 70
    },
    {
      "midi": 57,
      "hit": false,
      "t": 52800,
      "d": 900,
      "v": 85
    },
    {
      "midi": 62,
      "hit": false,
      "t": 52800,
      "d": 900,
      "v": 85
    },
    {
      "midi": 66,
      "hit": false,
      "t": 52800,
      "d": 900,
      "v": 85
    },
    {
      "midi": 69,
      "hit": false,
      "t": 52800,
      "d": 900,
      "v": 85
    },
    {
      "midi": 38,
      "hit": false,
      "t": 52800,
      "d": 600,
      "v": 69
    },
    {
      "midi": 57,
      "hit": false,
      "t": 53400,
      "d": 300,
      "v": 88
    },
    {
      "midi": 66,
      "hit": false,
      "t": 53700,
      "d": 150,
      "v": 88
    },
    {
      "midi": 74,
      "hit": false,
      "t": 53700,
      "d": 150,
      "v": 88
    },
    {
      "midi": 45,
      "hit": false,
      "t": 53700,
      "d": 300,
      "v": 65
    },
    {
      "midi": 76,
      "hit": false,
      "t": 53850,
      "d": 150,
      "v": 81
    },
    {
      "midi": 66,
      "hit": false,
      "t": 54000,
      "d": 450,
      "v": 84
    },
    {
      "midi": 78,
      "hit": false,
      "t": 54000,
      "d": 450,
      "v": 84
    },
    {
      "midi": 50,
      "hit": false,
      "t": 54000,
      "d": 600,
      "v": 79
    },
    {
      "midi": 73,
      "hit": false,
      "t": 54450,
      "d": 150,
      "v": 72
    },
    {
      "midi": 66,
      "hit": false,
      "t": 54600,
      "d": 300,
      "v": 79
    },
    {
      "midi": 74,
      "hit": false,
      "t": 54600,
      "d": 300,
      "v": 79
    },
    {
      "midi": 57,
      "hit": false,
      "t": 54600,
      "d": 300,
      "v": 78
    },
    {
      "midi": 65,
      "hit": false,
      "t": 54900,
      "d": 150,
      "v": 70
    },
    {
      "midi": 71,
      "hit": false,
      "t": 54900,
      "d": 150,
      "v": 70
    },
    {
      "midi": 51,
      "hit": false,
      "t": 54900,
      "d": 300,
      "v": 74
    },
    {
      "midi": 66,
      "hit": false,
      "t": 55050,
      "d": 150,
      "v": 62
    },
    {
      "midi": 61,
      "hit": false,
      "t": 55200,
      "d": 900,
      "v": 81
    },
    {
      "midi": 67,
      "hit": false,
      "t": 55200,
      "d": 900,
      "v": 81
    },
    {
      "midi": 52,
      "hit": false,
      "t": 55200,
      "d": 600,
      "v": 79
    },
    {
      "midi": 57,
      "hit": false,
      "t": 55800,
      "d": 300,
      "v": 84
    },
    {
      "midi": 64,
      "hit": false,
      "t": 56100,
      "d": 150,
      "v": 78
    },
    {
      "midi": 67,
      "hit": false,
      "t": 56100,
      "d": 150,
      "v": 78
    },
    {
      "midi": 45,
      "hit": false,
      "t": 56100,
      "d": 300,
      "v": 63
    },
    {
      "midi": 66,
      "hit": false,
      "t": 56250,
      "d": 150,
      "v": 78
    },
    {
      "midi": 69,
      "hit": false,
      "t": 56250,
      "d": 150,
      "v": 78
    },
    {
      "midi": 67,
      "hit": false,
      "t": 56400,
      "d": 450,
      "v": 79
    },
    {
      "midi": 71,
      "hit": false,
      "t": 56400,
      "d": 450,
      "v": 79
    },
    {
      "midi": 49,
      "hit": false,
      "t": 56400,
      "d": 600,
      "v": 75
    },
    {
      "midi": 69,
      "hit": false,
      "t": 56850,
      "d": 150,
      "v": 82
    },
    {
      "midi": 73,
      "hit": false,
      "t": 56850,
      "d": 150,
      "v": 82
    },
    {
      "midi": 73,
      "hit": false,
      "t": 57000,
      "d": 300,
      "v": 82
    },
    {
      "midi": 76,
      "hit": false,
      "t": 57000,
      "d": 300,
      "v": 82
    },
    {
      "midi": 57,
      "hit": false,
      "t": 57000,
      "d": 300,
      "v": 81
    },
    {
      "midi": 71,
      "hit": false,
      "t": 57300,
      "d": 300,
      "v": 75
    },
    {
      "midi": 74,
      "hit": false,
      "t": 57300,
      "d": 300,
      "v": 75
    },
    {
      "midi": 45,
      "hit": false,
      "t": 57300,
      "d": 300,
      "v": 69
    },
    {
      "midi": 71,
      "hit": false,
      "t": 57600,
      "d": 75,
      "v": 73
    },
    {
      "midi": 74,
      "hit": false,
      "t": 57600,
      "d": 75,
      "v": 73
    },
    {
      "midi": 52,
      "hit": false,
      "t": 57600,
      "d": 600,
      "v": 82
    },
    {
      "midi": 76,
      "hit": false,
      "t": 57675,
      "d": 75,
      "v": 82
    },
    {
      "midi": 74,
      "hit": false,
      "t": 57750,
      "d": 150,
      "v": 74
    },
    {
      "midi": 69,
      "hit": false,
      "t": 57900,
      "d": 300,
      "v": 70
    },
    {
      "midi": 73,
      "hit": false,
      "t": 57900,
      "d": 300,
      "v": 70
    },
    {
      "midi": 69,
      "hit": false,
      "t": 58200,
      "d": 300,
      "v": 75
    },
    {
      "midi": 73,
      "hit": false,
      "t": 58200,
      "d": 300,
      "v": 75
    },
    {
      "midi": 57,
      "hit": false,
      "t": 58200,
      "d": 300,
      "v": 81
    },
    {
      "midi": 73,
      "hit": false,
      "t": 58500,
      "d": 150,
      "v": 79
    },
    {
      "midi": 76,
      "hit": false,
      "t": 58500,
      "d": 150,
      "v": 79
    },
    {
      "midi": 45,
      "hit": false,
      "t": 58500,
      "d": 300,
      "v": 66
    },
    {
      "midi": 67,
      "hit": false,
      "t": 58650,
      "d": 150,
      "v": 68
    },
    {
      "midi": 71,
      "hit": false,
      "t": 58650,
      "d": 150,
      "v": 68
    },
    {
      "midi": 71,
      "hit": false,
      "t": 58800,
      "d": 450,
      "v": 80
    },
    {
      "midi": 74,
      "hit": false,
      "t": 58800,
      "d": 450,
      "v": 80
    },
    {
      "midi": 49,
      "hit": false,
      "t": 58800,
      "d": 600,
      "v": 77
    },
    {
      "midi": 66,
      "hit": false,
      "t": 59250,
      "d": 150,
      "v": 69
    },
    {
      "midi": 69,
      "hit": false,
      "t": 59250,
      "d": 150,
      "v": 69
    },
    {
      "midi": 69,
      "hit": false,
      "t": 59400,
      "d": 300,
      "v": 83
    },
    {
      "midi": 73,
      "hit": false,
      "t": 59400,
      "d": 300,
      "v": 83
    },
    {
      "midi": 57,
      "hit": false,
      "t": 59400,
      "d": 300,
      "v": 86
    },
    {
      "midi": 64,
      "hit": false,
      "t": 59700,
      "d": 300,
      "v": 64
    },
    {
      "midi": 67,
      "hit": false,
      "t": 59700,
      "d": 300,
      "v": 64
    },
    {
      "midi": 45,
      "hit": false,
      "t": 59700,
      "d": 300,
      "v": 63
    },
    {
      "midi": 65,
      "hit": false,
      "t": 60000,
      "d": 300,
      "v": 84
    },
    {
      "midi": 71,
      "hit": false,
      "t": 60000,
      "d": 300,
      "v": 84
    },
    {
      "midi": 50,
      "hit": false,
      "t": 60000,
      "d": 600,
      "v": 79
    },
    {
      "midi": 66,
      "hit": false,
      "t": 60300,
      "d": 600,
      "v": 77
    },
    {
      "midi": 69,
      "hit": false,
      "t": 60300,
      "d": 600,
      "v": 77
    },
    {
      "midi": 57,
      "hit": false,
      "t": 60600,
      "d": 300,
      "v": 84
    },
    {
      "midi": 62,
      "hit": false,
      "t": 60900,
      "d": 300,
      "v": 83
    },
    {
      "midi": 74,
      "hit": false,
      "t": 60900,
      "d": 300,
      "v": 83
    },
    {
      "midi": 54,
      "hit": false,
      "t": 60900,
      "d": 150,
      "v": 76
    },
    {
      "midi": 50,
      "hit": false,
      "t": 61050,
      "d": 150,
      "v": 73
    },
    {
      "midi": 64,
      "hit": false,
      "t": 61200,
      "d": 199.21875,
      "v": 100
    },
    {
      "midi": 74,
      "hit": false,
      "t": 61200,
      "d": 199.21875,
      "v": 100
    },
    {
      "midi": 46,
      "hit": false,
      "t": 61200,
      "d": 450,
      "v": 71
    },
    {
      "midi": 65,
      "hit": false,
      "t": 61399.21875,
      "d": 199.21875,
      "v": 100
    },
    {
      "midi": 69,
      "hit": false,
      "t": 61598.4375,
      "d": 201.5625,
      "v": 100
    },
    {
      "midi": 53,
      "hit": false,
      "t": 61650,
      "d": 150,
      "v": 84
    },
    {
      "midi": 70,
      "hit": false,
      "t": 61800,
      "d": 199.21875,
      "v": 100
    },
    {
      "midi": 74,
      "hit": false,
      "t": 61800,
      "d": 199.21875,
      "v": 100
    },
    {
      "midi": 62,
      "hit": false,
      "t": 61800,
      "d": 300,
      "v": 100
    },
    {
      "midi": 74,
      "hit": false,
      "t": 61999.21875,
      "d": 199.21875,
      "v": 100
    },
    {
      "midi": 53,
      "hit": false,
      "t": 62100,
      "d": 300,
      "v": 68
    },
    {
      "midi": 76,
      "hit": false,
      "t": 62198.4375,
      "d": 201.5625,
      "v": 100
    },
    {
      "midi": 69,
      "hit": false,
      "t": 62400,
      "d": 199.21875,
      "v": 100
    },
    {
      "midi": 79,
      "hit": false,
      "t": 62400,
      "d": 199.21875,
      "v": 100
    },
    {
      "midi": 41,
      "hit": false,
      "t": 62400,
      "d": 450,
      "v": 64
    },
    {
      "midi": 77,
      "hit": false,
      "t": 62599.21875,
      "d": 199.21875,
      "v": 100
    },
    {
      "midi": 73,
      "hit": false,
      "t": 62798.4375,
      "d": 201.5625,
      "v": 100
    },
    {
      "midi": 47,
      "hit": false,
      "t": 62850,
      "d": 150,
      "v": 81
    },
    {
      "midi": 69,
      "hit": false,
      "t": 63000,
      "d": 199.21875,
      "v": 100
    },
    {
      "midi": 48,
      "hit": false,
      "t": 63000,
      "d": 300,
      "v": 81
    },
    {
      "midi": 67,
      "hit": false,
      "t": 63199.21875,
      "d": 199.21875,
      "v": 100
    },
    {
      "midi": 57,
      "hit": false,
      "t": 63300,
      "d": 300,
      "v": 86
    },
    {
      "midi": 65,
      "hit": false,
      "t": 63398.4375,
      "d": 201.5625,
      "v": 100
    },
    {
      "midi": 61,
      "hit": false,
      "t": 63600,
      "d": 199.21875,
      "v": 100
    },
    {
      "midi": 70,
      "hit": false,
      "t": 63600,
      "d": 199.21875,
      "v": 100
    },
    {
      "midi": 43,
      "hit": false,
      "t": 63600,
      "d": 450,
      "v": 66
    },
    {
      "midi": 62,
      "hit": false,
      "t": 63799.21875,
      "d": 199.21875,
      "v": 100
    },
    {
      "midi": 66,
      "hit": false,
      "t": 63998.4375,
      "d": 201.5625,
      "v": 100
    },
    {
      "midi": 50,
      "hit": false,
      "t": 64050,
      "d": 150,
      "v": 81
    },
    {
      "midi": 67,
      "hit": false,
      "t": 64200,
      "d": 199.21875,
      "v": 100
    },
    {
      "midi": 70,
      "hit": false,
      "t": 64200,
      "d": 199.21875,
      "v": 100
    },
    {
      "midi": 58,
      "hit": false,
      "t": 64200,
      "d": 300,
      "v": 80
    },
    {
      "midi": 70,
      "hit": false,
      "t": 64399.21875,
      "d": 199.21875,
      "v": 100
    },
    {
      "midi": 50,
      "hit": false,
      "t": 64500,
      "d": 300,
      "v": 68
    },
    {
      "midi": 73,
      "hit": false,
      "t": 64598.4375,
      "d": 201.5625,
      "v": 100
    },
    {
      "midi": 66,
      "hit": false,
      "t": 64800,
      "d": 199.21875,
      "v": 100
    },
    {
      "midi": 76,
      "hit": false,
      "t": 64800,
      "d": 199.21875,
      "v": 100
    },
    {
      "midi": 38,
      "hit": false,
      "t": 64800,
      "d": 600,
      "v": 64
    },
    {
      "midi": 74,
      "hit": false,
      "t": 64999.21875,
      "d": 199.21875,
      "v": 100
    },
    {
      "midi": 65,
      "hit": false,
      "t": 65198.4375,
      "d": 201.5625,
      "v": 100
    },
    {
      "midi": 62,
      "hit": false,
      "t": 65400,
      "d": 199.21875,
      "v": 100
    },
    {
      "midi": 66,
      "hit": false,
      "t": 65400,
      "d": 199.21875,
      "v": 100
    },
    {
      "midi": 45,
      "hit": false,
      "t": 65400,
      "d": 199.21875,
      "v": 100
    },
    {
      "midi": 67,
      "hit": false,
      "t": 65599.21875,
      "d": 199.21875,
      "v": 100
    },
    {
      "midi": 58,
      "hit": false,
      "t": 65599.21875,
      "d": 199.21875,
      "v": 100
    },
    {
      "midi": 66,
      "hit": false,
      "t": 65798.4375,
      "d": 201.5625,
      "v": 100
    },
    {
      "midi": 57,
      "hit": false,
      "t": 65798.4375,
      "d": 201.5625,
      "v": 100
    },
    {
      "midi": 66,
      "hit": false,
      "t": 66000,
      "d": 199.21875,
      "v": 100
    },
    {
      "midi": 47,
      "hit": false,
      "t": 66000,
      "d": 1200,
      "v": 73
    },
    {
      "midi": 57,
      "hit": false,
      "t": 66000,
      "d": 1200,
      "v": 73
    },
    {
      "midi": 67,
      "hit": false,
      "t": 66199.21875,
      "d": 199.21875,
      "v": 100
    },
    {
      "midi": 71,
      "hit": false,
      "t": 66398.4375,
      "d": 201.5625,
      "v": 100
    },
    {
      "midi": 67,
      "hit": false,
      "t": 66600,
      "d": 300,
      "v": 74
    },
    {
      "midi": 66,
      "hit": false,
      "t": 66900,
      "d": 300,
      "v": 71
    },
    {
      "midi": 59,
      "hit": false,
      "t": 67200,
      "d": 199.21875,
      "v": 100
    },
    {
      "midi": 66,
      "hit": false,
      "t": 67200,
      "d": 199.21875,
      "v": 100
    },
    {
      "midi": 52,
      "hit": false,
      "t": 67200,
      "d": 600,
      "v": 77
    },
    {
      "midi": 57,
      "hit": false,
      "t": 67200,
      "d": 600,
      "v": 77
    },
    {
      "midi": 71,
      "hit": false,
      "t": 67399.21875,
      "d": 199.21875,
      "v": 100
    },
    {
      "midi": 66,
      "hit": false,
      "t": 67598.4375,
      "d": 201.5625,
      "v": 100
    },
    {
      "midi": 59,
      "hit": false,
      "t": 67800,
      "d": 300,
      "v": 65
    },
    {
      "midi": 64,
      "hit": false,
      "t": 67800,
      "d": 300,
      "v": 65
    },
    {
      "midi": 55,
      "hit": false,
      "t": 67800,
      "d": 300,
      "v": 75
    },
    {
      "midi": 45,
      "hit": false,
      "t": 68400,
      "d": 199.21875,
      "v": 100
    },
    {
      "midi": 61,
      "hit": false,
      "t": 68599.21875,
      "d": 199.21875,
      "v": 100
    },
    {
      "midi": 67,
      "hit": false,
      "t": 68599.21875,
      "d": 199.21875,
      "v": 100
    },
    {
      "midi": 58,
      "hit": false,
      "t": 68599.21875,
      "d": 199.21875,
      "v": 100
    },
    {
      "midi": 66,
      "hit": false,
      "t": 68798.4375,
      "d": 201.5625,
      "v": 100
    },
    {
      "midi": 57,
      "hit": false,
      "t": 68798.4375,
      "d": 201.5625,
      "v": 100
    },
    {
      "midi": 66,
      "hit": false,
      "t": 69000,
      "d": 300,
      "v": 67
    },
    {
      "midi": 57,
      "hit": false,
      "t": 69000,
      "d": 300,
      "v": 74
    },
    {
      "midi": 64,
      "hit": false,
      "t": 69300,
      "d": 300,
      "v": 74
    },
    {
      "midi": 55,
      "hit": false,
      "t": 69300,
      "d": 300,
      "v": 72
    },
    {
      "midi": 38,
      "hit": false,
      "t": 69600,
      "d": 900,
      "v": 68
    },
    {
      "midi": 57,
      "hit": false,
      "t": 70050,
      "d": 150,
      "v": 70
    },
    {
      "midi": 62,
      "hit": false,
      "t": 70200,
      "d": 600,
      "v": 88
    },
    {
      "midi": 66,
      "hit": false,
      "t": 70200,
      "d": 600,
      "v": 88
    },
    {
      "midi": 69,
      "hit": false,
      "t": 70200,
      "d": 600,
      "v": 88
    },
    {
      "midi": 33,
      "hit": false,
      "t": 70500,
      "d": 300,
      "v": 74
    },
    {
      "midi": 38,
      "hit": false,
      "t": 70800,
      "d": 900,
      "v": 77
    },
    {
      "midi": 57,
      "hit": false,
      "t": 71250,
      "d": 150,
      "v": 68
    },
    {
      "midi": 62,
      "hit": false,
      "t": 71400,
      "d": 600,
      "v": 97
    },
    {
      "midi": 66,
      "hit": false,
      "t": 71400,
      "d": 600,
      "v": 97
    },
    {
      "midi": 69,
      "hit": false,
      "t": 71400,
      "d": 600,
      "v": 97
    },
    {
      "midi": 33,
      "hit": false,
      "t": 71700,
      "d": 300,
      "v": 74
    },
    {
      "midi": 54,
      "hit": false,
      "t": 72000,
      "d": 1200,
      "v": 78
    },
    {
      "midi": 57,
      "hit": false,
      "t": 72000,
      "d": 1200,
      "v": 78
    },
    {
      "midi": 62,
      "hit": false,
      "t": 72000,
      "d": 1200,
      "v": 78
    },
    {
      "midi": 66,
      "hit": false,
      "t": 72000,
      "d": 1200,
      "v": 78
    },
    {
      "midi": 38,
      "hit": false,
      "t": 72000,
      "d": 1200,
      "v": 91
    },
    {
      "midi": 45,
      "hit": false,
      "t": 72000,
      "d": 1200,
      "v": 91
    },
    {
      "midi": 50,
      "hit": false,
      "t": 72000,
      "d": 1200,
      "v": 91
    },
    {
      "midi": 74,
      "hit": false,
      "t": 73200,
      "d": 1200,
      "v": 97
    },
    {
      "midi": 81,
      "hit": false,
      "t": 73200,
      "d": 1200,
      "v": 97
    },
    {
      "midi": 86,
      "hit": false,
      "t": 73200,
      "d": 1200,
      "v": 97
    },
    {
      "midi": 62,
      "hit": false,
      "t": 73200,
      "d": 1200,
      "v": 99
    },
    {
      "midi": 69,
      "hit": false,
      "t": 73200,
      "d": 1200,
      "v": 99
    }
  ]
}