{
  "jsonPath": "Soundtracks/Oceania Soundtrack/Nick Cave  Warren Ellis/memory.json",
  "path": "Soundtracks\\Oceania Soundtrack\\Nick Cave  Warren Ellis\\Memory.mid",
  "name": "Memory",
  "difficulty": "Advanced",
  "bpm": 66.000066000066,
  "notes": [
    {
      "midi": 60,
      "hit": false,
      "t": 3636.3600000000006,
      "d": 1916.66475,
      "v": 86
    },
    {
      "midi": 63,
      "hit": false,
      "t": 3636.3600000000006,
      "d": 2037.8767500000004,
      "v": 76
    },
    {
      "midi": 48,
      "hit": false,
      "t": 3636.3600000000006,
      "d": 2371.20975,
      "v": 58
    },
    {
      "midi": 55,
      "hit": false,
      "t": 3636.3600000000006,
      "d": 3174.2392500000005,
      "v": 62
    },
    {
      "midi": 36,
      "hit": false,
      "t": 3636.3600000000006,
      "d": 3219.6937500000004,
      "v": 64
    },
    {
      "midi": 67,
      "hit": false,
      "t": 6363.630000000001,
      "d": 590.9084999999995,
      "v": 88
    },
    {
      "midi": 48,
      "hit": false,
      "t": 6818.175000000001,
      "d": 181.8179999999993,
      "v": 46
    },
    {
      "midi": 63,
      "hit": false,
      "t": 6818.175000000001,
      "d": 1772.7254999999986,
      "v": 64
    },
    {
      "midi": 44,
      "hit": false,
      "t": 7272.72,
      "d": 1053.0292500000005,
      "v": 70
    },
    {
      "midi": 60,
      "hit": false,
      "t": 7272.72,
      "d": 1090.9080000000004,
      "v": 74
    },
    {
      "midi": 56,
      "hit": false,
      "t": 7272.72,
      "d": 1234.8472499999998,
      "v": 80
    },
    {
      "midi": 43,
      "hit": false,
      "t": 8636.355,
      "d": 303.03000000000065,
      "v": 60
    },
    {
      "midi": 53,
      "hit": false,
      "t": 9090.9,
      "d": 787.8780000000006,
      "v": 70
    },
    {
      "midi": 56,
      "hit": false,
      "t": 9090.9,
      "d": 825.7567500000005,
      "v": 88
    },
    {
      "midi": 60,
      "hit": false,
      "t": 9090.9,
      "d": 901.5142500000002,
      "v": 80
    },
    {
      "midi": 41,
      "hit": false,
      "t": 9090.9,
      "d": 1090.9079999999994,
      "v": 62
    },
    {
      "midi": 43,
      "hit": false,
      "t": 10909.08,
      "d": 2151.513000000001,
      "v": 60
    },
    {
      "midi": 67,
      "hit": false,
      "t": 11363.625,
      "d": 143.93924999999945,
      "v": 66
    },
    {
      "midi": 62,
      "hit": false,
      "t": 11818.17,
      "d": 68.18174999999974,
      "v": 68
    },
    {
      "midi": 74,
      "hit": false,
      "t": 12272.715,
      "d": 30.302999999999884,
      "v": 82
    },
    {
      "midi": 79,
      "hit": false,
      "t": 12727.26,
      "d": 75.75749999999971,
      "v": 86
    },
    {
      "midi": 48,
      "hit": false,
      "t": 29090.88,
      "d": 2848.4819999999927,
      "v": 44
    },
    {
      "midi": 60,
      "hit": false,
      "t": 29545.425,
      "d": 499.9994999999981,
      "v": 40
    },
    {
      "midi": 62,
      "hit": false,
      "t": 29999.969999999998,
      "d": 484.84799999999814,
      "v": 66
    },
    {
      "midi": 67,
      "hit": false,
      "t": 29999.969999999998,
      "d": 1924.2404999999962,
      "v": 68
    },
    {
      "midi": 63,
      "hit": false,
      "t": 29999.969999999998,
      "d": 2227.270499999995,
      "v": 86
    },
    {
      "midi": 60,
      "hit": false,
      "t": 30454.514999999996,
      "d": 1628.7862499999974,
      "v": 42
    },
    {
      "midi": 60,
      "hit": false,
      "t": 32727.239999999994,
      "d": 303.0300000000025,
      "v": 40
    },
    {
      "midi": 63,
      "hit": false,
      "t": 32727.239999999994,
      "d": 446.96925000000556,
      "v": 66
    },
    {
      "midi": 67,
      "hit": false,
      "t": 32727.239999999994,
      "d": 598.4842500000123,
      "v": 68
    },
    {
      "midi": 48,
      "hit": false,
      "t": 32727.239999999994,
      "d": 1393.9380000000128,
      "v": 54
    },
    {
      "midi": 55,
      "hit": false,
      "t": 33181.785,
      "d": 1022.726250000007,
      "v": 48
    },
    {
      "midi": 60,
      "hit": false,
      "t": 33636.33000000001,
      "d": 484.84799999999814,
      "v": 52
    },
    {
      "midi": 67,
      "hit": false,
      "t": 33863.60250000001,
      "d": 439.3935000000056,
      "v": 58
    },
    {
      "midi": 72,
      "hit": false,
      "t": 34090.87500000001,
      "d": 257.5755000000063,
      "v": 82
    },
    {
      "midi": 75,
      "hit": false,
      "t": 34318.147500000014,
      "d": 227.27249999999913,
      "v": 86
    },
    {
      "midi": 77,
      "hit": false,
      "t": 34545.42000000001,
      "d": 1128.7867499999993,
      "v": 64
    },
    {
      "midi": 70,
      "hit": false,
      "t": 34545.42000000001,
      "d": 1159.0897499999992,
      "v": 88
    },
    {
      "midi": 74,
      "hit": false,
      "t": 34545.42000000001,
      "d": 1159.0897499999992,
      "v": 68
    },
    {
      "midi": 46,
      "hit": false,
      "t": 34545.42000000001,
      "d": 1204.544249999999,
      "v": 52
    },
    {
      "midi": 69,
      "hit": false,
      "t": 36363.60000000001,
      "d": 136.36349999999948,
      "v": 48
    },
    {
      "midi": 74,
      "hit": false,
      "t": 36363.60000000001,
      "d": 977.2717499999999,
      "v": 78
    },
    {
      "midi": 72,
      "hit": false,
      "t": 36363.60000000001,
      "d": 1007.5747499999998,
      "v": 74
    },
    {
      "midi": 77,
      "hit": false,
      "t": 36363.60000000001,
      "d": 1060.6050000000032,
      "v": 60
    },
    {
      "midi": 50,
      "hit": false,
      "t": 36590.87250000001,
      "d": 30.302999999999884,
      "v": 18
    },
    {
      "midi": 62,
      "hit": false,
      "t": 38181.78000000001,
      "d": 712.1204999999973,
      "v": 52
    },
    {
      "midi": 69,
      "hit": false,
      "t": 38181.78000000001,
      "d": 749.9992500000008,
      "v": 60
    },
    {
      "midi": 65,
      "hit": false,
      "t": 38181.78000000001,
      "d": 863.635500000004,
      "v": 60
    },
    {
      "midi": 59,
      "hit": false,
      "t": 39999.96000000002,
      "d": 219.6967500000028,
      "v": 48
    },
    {
      "midi": 67,
      "hit": false,
      "t": 39999.96000000002,
      "d": 1007.574750000007,
      "v": 58
    },
    {
      "midi": 65,
      "hit": false,
      "t": 39999.96000000002,
      "d": 1090.9080000000104,
      "v": 30
    },
    {
      "midi": 62,
      "hit": false,
      "t": 39999.96000000002,
      "d": 1128.7867500000139,
      "v": 66
    },
    {
      "midi": 43,
      "hit": false,
      "t": 39999.96000000002,
      "d": 2795.4517500000147,
      "v": 56
    },
    {
      "midi": 50,
      "hit": false,
      "t": 40454.50500000003,
      "d": 2378.7855000000127,
      "v": 48
    },
    {
      "midi": 55,
      "hit": false,
      "t": 40909.050000000025,
      "d": 1916.6647500000108,
      "v": 58
    },
    {
      "midi": 71,
      "hit": false,
      "t": 41818.140000000036,
      "d": 106.06049999999959,
      "v": 62
    },
    {
      "midi": 67,
      "hit": false,
      "t": 41818.140000000036,
      "d": 151.51499999999942,
      "v": 62
    },
    {
      "midi": 74,
      "hit": false,
      "t": 41818.140000000036,
      "d": 181.8179999999993,
      "v": 46
    },
    {
      "midi": 48,
      "hit": false,
      "t": 43636.320000000036,
      "d": 3174.2392499999914,
      "v": 48
    },
    {
      "midi": 55,
      "hit": false,
      "t": 44545.41000000003,
      "d": 2462.1187500000087,
      "v": 48
    },
    {
      "midi": 60,
      "hit": false,
      "t": 44999.95500000003,
      "d": 1515.1499999999942,
      "v": 68
    },
    {
      "midi": 63,
      "hit": false,
      "t": 45454.50000000003,
      "d": 1515.1500000000087,
      "v": 58
    },
    {
      "midi": 67,
      "hit": false,
      "t": 45909.04500000003,
      "d": 1462.1197500000198,
      "v": 80
    },
    {
      "midi": 72,
      "hit": false,
      "t": 46363.590000000026,
      "d": 560.6055000000051,
      "v": 62
    },
    {
      "midi": 60,
      "hit": false,
      "t": 46818.13500000003,
      "d": 113.6362500000032,
      "v": 50
    },
    {
      "midi": 74,
      "hit": false,
      "t": 46818.13500000003,
      "d": 522.7267500000162,
      "v": 68
    },
    {
      "midi": 72,
      "hit": false,
      "t": 47272.680000000044,
      "d": 977.2717500000072,
      "v": 66
    },
    {
      "midi": 46,
      "hit": false,
      "t": 47272.680000000044,
      "d": 2606.0580000000045,
      "v": 54
    },
    {
      "midi": 55,
      "hit": false,
      "t": 47727.22500000005,
      "d": 1999.9979999999996,
      "v": 30
    },
    {
      "midi": 58,
      "hit": false,
      "t": 48181.77000000005,
      "d": 2121.209999999999,
      "v": 38
    },
    {
      "midi": 75,
      "hit": false,
      "t": 48636.31500000005,
      "d": 484.84799999999814,
      "v": 88
    },
    {
      "midi": 74,
      "hit": false,
      "t": 49090.86000000005,
      "d": 484.84799999999814,
      "v": 90
    },
    {
      "midi": 75,
      "hit": false,
      "t": 49545.40500000005,
      "d": 909.0900000000038,
      "v": 82
    },
    {
      "midi": 55,
      "hit": false,
      "t": 49999.95000000005,
      "d": 371.2117500000022,
      "v": 48
    },
    {
      "midi": 67,
      "hit": false,
      "t": 50454.49500000005,
      "d": 2689.3912499999933,
      "v": 50
    },
    {
      "midi": 44,
      "hit": false,
      "t": 50909.04000000005,
      "d": 2568.179250000001,
      "v": 82
    },
    {
      "midi": 51,
      "hit": false,
      "t": 51363.58500000005,
      "d": 2227.270500000006,
      "v": 70
    },
    {
      "midi": 56,
      "hit": false,
      "t": 51818.13000000005,
      "d": 1696.968000000008,
      "v": 56
    },
    {
      "midi": 75,
      "hit": false,
      "t": 52272.67500000005,
      "d": 492.42375000000175,
      "v": 82
    },
    {
      "midi": 74,
      "hit": false,
      "t": 52727.220000000045,
      "d": 530.3025000000052,
      "v": 82
    },
    {
      "midi": 75,
      "hit": false,
      "t": 53181.76500000005,
      "d": 560.6055000000051,
      "v": 68
    },
    {
      "midi": 43,
      "hit": false,
      "t": 54318.12750000005,
      "d": 75.75749999999971,
      "v": 62
    },
    {
      "midi": 41,
      "hit": false,
      "t": 54545.40000000005,
      "d": 3174.2392499999914,
      "v": 66
    },
    {
      "midi": 48,
      "hit": false,
      "t": 54999.94500000005,
      "d": 2992.4212499999994,
      "v": 50
    },
    {
      "midi": 53,
      "hit": false,
      "t": 55454.49000000005,
      "d": 2674.239750000008,
      "v": 52
    },
    {
      "midi": 75,
      "hit": false,
      "t": 55909.03500000005,
      "d": 454.54499999999825,
      "v": 66
    },
    {
      "midi": 74,
      "hit": false,
      "t": 56363.580000000045,
      "d": 484.84799999999814,
      "v": 82
    },
    {
      "midi": 75,
      "hit": false,
      "t": 56818.125000000044,
      "d": 522.7267500000016,
      "v": 82
    },
    {
      "midi": 63,
      "hit": false,
      "t": 57272.67000000004,
      "d": 530.3025000000052,
      "v": 68
    },
    {
      "midi": 65,
      "hit": false,
      "t": 57727.21500000005,
      "d": 378.7875000000058,
      "v": 66
    },
    {
      "midi": 67,
      "hit": false,
      "t": 57954.48750000005,
      "d": 522.7267500000162,
      "v": 64
    },
    {
      "midi": 68,
      "hit": false,
      "t": 58181.76000000006,
      "d": 1166.6655000000028,
      "v": 86
    },
    {
      "midi": 48,
      "hit": false,
      "t": 58181.76000000006,
      "d": 2310.603750000002,
      "v": 68
    },
    {
      "midi": 55,
      "hit": false,
      "t": 58636.305000000066,
      "d": 2037.8767499999958,
      "v": 52
    },
    {
      "midi": 60,
      "hit": false,
      "t": 59090.850000000064,
      "d": 1507.5742499999978,
      "v": 64
    },
    {
      "midi": 75,
      "hit": false,
      "t": 59545.39500000006,
      "d": 409.0904999999984,
      "v": 86
    },
    {
      "midi": 79,
      "hit": false,
      "t": 59545.39500000006,
      "d": 409.0904999999984,
      "v": 90
    },
    {
      "midi": 77,
      "hit": false,
      "t": 59999.94000000006,
      "d": 909.0900000000038,
      "v": 54
    },
    {
      "midi": 74,
      "hit": false,
      "t": 59999.94000000006,
      "d": 954.5445000000036,
      "v": 78
    },
    {
      "midi": 72,
      "hit": false,
      "t": 60909.030000000064,
      "d": 371.2117500000022,
      "v": 72
    },
    {
      "midi": 75,
      "hit": false,
      "t": 60909.030000000064,
      "d": 409.0905000000057,
      "v": 92
    },
    {
      "midi": 60,
      "hit": false,
      "t": 61818.12000000007,
      "d": 181.8179999999993,
      "v": 58
    },
    {
      "midi": 63,
      "hit": false,
      "t": 61818.12000000007,
      "d": 954.5444999999963,
      "v": 82
    },
    {
      "midi": 67,
      "hit": false,
      "t": 61818.12000000007,
      "d": 1446.968249999998,
      "v": 82
    },
    {
      "midi": 55,
      "hit": false,
      "t": 62727.210000000065,
      "d": 636.3630000000048,
      "v": 64
    },
    {
      "midi": 60,
      "hit": false,
      "t": 63181.75500000006,
      "d": 227.2725000000064,
      "v": 70
    },
    {
      "midi": 48,
      "hit": false,
      "t": 63181.75500000006,
      "d": 333.333000000006,
      "v": 52
    },
    {
      "midi": 55,
      "hit": false,
      "t": 63636.30000000007,
      "d": 946.96875,
      "v": 60
    },
    {
      "midi": 60,
      "hit": false,
      "t": 63636.30000000007,
      "d": 946.96875,
      "v": 88
    },
    {
      "midi": 46,
      "hit": false,
      "t": 63636.30000000007,
      "d": 977.2717499999999,
      "v": 62
    },
    {
      "midi": 63,
      "hit": false,
      "t": 63636.30000000007,
      "d": 1128.7867499999993,
      "v": 72
    },
    {
      "midi": 59,
      "hit": false,
      "t": 65454.48000000007,
      "d": 628.787249999994,
      "v": 60
    },
    {
      "midi": 67,
      "hit": false,
      "t": 65454.48000000007,
      "d": 1090.9079999999958,
      "v": 74
    },
    {
      "midi": 62,
      "hit": false,
      "t": 65454.48000000007,
      "d": 1318.1805000000022,
      "v": 88
    },
    {
      "midi": 43,
      "hit": false,
      "t": 65454.48000000007,
      "d": 2871.20925,
      "v": 72
    },
    {
      "midi": 50,
      "hit": false,
      "t": 65909.02500000007,
      "d": 2643.936750000008,
      "v": 64
    },
    {
      "midi": 55,
      "hit": false,
      "t": 66363.57000000007,
      "d": 2265.1492500000168,
      "v": 72
    },
    {
      "midi": 59,
      "hit": false,
      "t": 66818.11500000008,
      "d": 151.51499999999942,
      "v": 66
    },
    {
      "midi": 67,
      "hit": false,
      "t": 67272.66000000008,
      "d": 98.48475000000326,
      "v": 90
    },
    {
      "midi": 72,
      "hit": false,
      "t": 68181.75000000007,
      "d": 151.51499999999942,
      "v": 80
    },
    {
      "midi": 60,
      "hit": false,
      "t": 69090.84000000008,
      "d": 227.2725000000064,
      "v": 50
    },
    {
      "midi": 67,
      "hit": false,
      "t": 69090.84000000008,
      "d": 446.9692500000092,
      "v": 86
    },
    {
      "midi": 63,
      "hit": false,
      "t": 69090.84000000008,
      "d": 522.7267500000162,
      "v": 86
    },
    {
      "midi": 48,
      "hit": false,
      "t": 69090.84000000008,
      "d": 2757.573000000033,
      "v": 70
    },
    {
      "midi": 55,
      "hit": false,
      "t": 69545.3850000001,
      "d": 825.7567500000005,
      "v": 50
    },
    {
      "midi": 60,
      "hit": false,
      "t": 69999.9300000001,
      "d": 560.6055000000051,
      "v": 56
    },
    {
      "midi": 62,
      "hit": false,
      "t": 70454.4750000001,
      "d": 333.33300000001327,
      "v": 88
    },
    {
      "midi": 63,
      "hit": false,
      "t": 70681.7475000001,
      "d": 303.0300000000134,
      "v": 64
    },
    {
      "midi": 65,
      "hit": false,
      "t": 70909.0200000001,
      "d": 257.5755000000063,
      "v": 64
    },
    {
      "midi": 67,
      "hit": false,
      "t": 71136.29250000011,
      "d": 143.9392499999958,
      "v": 82
    },
    {
      "midi": 70,
      "hit": false,
      "t": 71363.5650000001,
      "d": 265.1512500000099,
      "v": 64
    },
    {
      "midi": 72,
      "hit": false,
      "t": 71590.83750000011,
      "d": 257.5755000000063,
      "v": 68
    },
    {
      "midi": 74,
      "hit": false,
      "t": 71818.11000000012,
      "d": 295.4542499999952,
      "v": 82
    },
    {
      "midi": 75,
      "hit": false,
      "t": 72272.65500000012,
      "d": 333.3329999999987,
      "v": 98
    },
    {
      "midi": 70,
      "hit": false,
      "t": 72727.20000000011,
      "d": 295.4542499999952,
      "v": 80
    },
    {
      "midi": 75,
      "hit": false,
      "t": 72727.20000000011,
      "d": 333.3329999999987,
      "v": 86
    },
    {
      "midi": 79,
      "hit": false,
      "t": 72727.20000000011,
      "d": 749.9992499999935,
      "v": 82
    },
    {
      "midi": 51,
      "hit": false,
      "t": 72727.20000000011,
      "d": 1999.9980000000069,
      "v": 70
    },
    {
      "midi": 58,
      "hit": false,
      "t": 73181.74500000011,
      "d": 712.1205000000045,
      "v": 30
    },
    {
      "midi": 63,
      "hit": false,
      "t": 73636.29000000011,
      "d": 787.8780000000115,
      "v": 74
    },
    {
      "midi": 75,
      "hit": false,
      "t": 74090.83500000012,
      "d": 219.6967500000028,
      "v": 88
    },
    {
      "midi": 79,
      "hit": false,
      "t": 74090.83500000012,
      "d": 219.6967500000028,
      "v": 76
    },
    {
      "midi": 70,
      "hit": false,
      "t": 74090.83500000012,
      "d": 416.66624999999476,
      "v": 66
    },
    {
      "midi": 70,
      "hit": false,
      "t": 74545.38000000012,
      "d": 249.99975000000268,
      "v": 80
    },
    {
      "midi": 75,
      "hit": false,
      "t": 74545.38000000012,
      "d": 401.5147500000021,
      "v": 92
    },
    {
      "midi": 79,
      "hit": false,
      "t": 74545.38000000012,
      "d": 499.99950000000536,
      "v": 96
    },
    {
      "midi": 74,
      "hit": false,
      "t": 74999.92500000012,
      "d": 454.5450000000128,
      "v": 86
    },
    {
      "midi": 77,
      "hit": false,
      "t": 74999.92500000012,
      "d": 454.5450000000128,
      "v": 86
    },
    {
      "midi": 70,
      "hit": false,
      "t": 75454.47000000013,
      "d": 446.96924999999464,
      "v": 72
    },
    {
      "midi": 75,
      "hit": false,
      "t": 75454.47000000013,
      "d": 636.3629999999976,
      "v": 94
    },
    {
      "midi": 63,
      "hit": false,
      "t": 75909.01500000013,
      "d": 143.9392499999958,
      "v": 64
    },
    {
      "midi": 77,
      "hit": false,
      "t": 75909.01500000013,
      "d": 1507.5742499999906,
      "v": 86
    },
    {
      "midi": 70,
      "hit": false,
      "t": 76363.56000000013,
      "d": 598.4842499999941,
      "v": 68
    },
    {
      "midi": 74,
      "hit": false,
      "t": 76363.56000000013,
      "d": 818.1809999999969,
      "v": 98
    },
    {
      "midi": 46,
      "hit": false,
      "t": 76363.56000000013,
      "d": 2492.421749999994,
      "v": 64
    },
    {
      "midi": 53,
      "hit": false,
      "t": 76818.10500000013,
      "d": 1886.3617499999964,
      "v": 64
    },
    {
      "midi": 58,
      "hit": false,
      "t": 77272.65000000013,
      "d": 1545.452999999994,
      "v": 82
    },
    {
      "midi": 65,
      "hit": false,
      "t": 77727.19500000012,
      "d": 1166.6655000000028,
      "v": 58
    },
    {
      "midi": 70,
      "hit": false,
      "t": 78181.74000000012,
      "d": 1507.5742500000197,
      "v": 88
    },
    {
      "midi": 74,
      "hit": false,
      "t": 78636.28500000012,
      "d": 227.2725000000064,
      "v": 66
    },
    {
      "midi": 65,
      "hit": false,
      "t": 79090.83000000013,
      "d": 333.3329999999987,
      "v": 58
    },
    {
      "midi": 58,
      "hit": false,
      "t": 79090.83000000013,
      "d": 409.0905000000057,
      "v": 60
    },
    {
      "midi": 53,
      "hit": false,
      "t": 79545.37500000015,
      "d": 227.27249999999185,
      "v": 72
    },
    {
      "midi": 74,
      "hit": false,
      "t": 79545.37500000015,
      "d": 303.02999999999884,
      "v": 80
    },
    {
      "midi": 67,
      "hit": false,
      "t": 79999.92000000014,
      "d": 287.87850000000617,
      "v": 54
    },
    {
      "midi": 72,
      "hit": false,
      "t": 79999.92000000014,
      "d": 977.2717500000144,
      "v": 74
    },
    {
      "midi": 75,
      "hit": false,
      "t": 79999.92000000014,
      "d": 1045.4535000000178,
      "v": 92
    },
    {
      "midi": 48,
      "hit": false,
      "t": 79999.92000000014,
      "d": 3196.9665000000386,
      "v": 68
    },
    {
      "midi": 55,
      "hit": false,
      "t": 80454.46500000016,
      "d": 2643.9367500000226,
      "v": 54
    },
    {
      "midi": 60,
      "hit": false,
      "t": 80909.01000000015,
      "d": 2318.1795000000275,
      "v": 72
    },
    {
      "midi": 72,
      "hit": false,
      "t": 81363.55500000017,
      "d": 265.15124999999534,
      "v": 92
    },
    {
      "midi": 75,
      "hit": false,
      "t": 81363.55500000017,
      "d": 303.02999999999884,
      "v": 94
    },
    {
      "midi": 72,
      "hit": false,
      "t": 81818.10000000017,
      "d": 469.69650000000547,
      "v": 88
    },
    {
      "midi": 75,
      "hit": false,
      "t": 81818.10000000017,
      "d": 492.42375000000175,
      "v": 94
    },
    {
      "midi": 70,
      "hit": false,
      "t": 82272.64500000016,
      "d": 257.5755000000063,
      "v": 86
    },
    {
      "midi": 74,
      "hit": false,
      "t": 82272.64500000016,
      "d": 545.4540000000125,
      "v": 92
    },
    {
      "midi": 68,
      "hit": false,
      "t": 82727.19000000018,
      "d": 219.6967500000028,
      "v": 66
    },
    {
      "midi": 72,
      "hit": false,
      "t": 82727.19000000018,
      "d": 818.1810000000114,
      "v": 76
    },
    {
      "midi": 75,
      "hit": false,
      "t": 83181.73500000018,
      "d": 371.21175000001676,
      "v": 82
    },
    {
      "midi": 77,
      "hit": false,
      "t": 83409.00750000018,
      "d": 242.42400000001362,
      "v": 62
    },
    {
      "midi": 46,
      "hit": false,
      "t": 83636.28000000019,
      "d": 181.81800000001385,
      "v": 54
    },
    {
      "midi": 70,
      "hit": false,
      "t": 83636.28000000019,
      "d": 257.57550000002084,
      "v": 48
    },
    {
      "midi": 74,
      "hit": false,
      "t": 83636.28000000019,
      "d": 1507.5742500000197,
      "v": 70
    },
    {
      "midi": 51,
      "hit": false,
      "t": 84090.82500000022,
      "d": 1090.9079999999958,
      "v": 58
    },
    {
      "midi": 58,
      "hit": false,
      "t": 84545.37000000021,
      "d": 681.8175000000047,
      "v": 52
    },
    {
      "midi": 63,
      "hit": false,
      "t": 84999.91500000021,
      "d": 227.2725000000064,
      "v": 78
    },
    {
      "midi": 67,
      "hit": false,
      "t": 85454.46000000022,
      "d": 1053.0292499999923,
      "v": 64
    },
    {
      "midi": 72,
      "hit": false,
      "t": 85909.00500000022,
      "d": 340.9087500000023,
      "v": 58
    },
    {
      "midi": 52,
      "hit": false,
      "t": 85909.00500000022,
      "d": 681.8174999999901,
      "v": 50
    },
    {
      "midi": 74,
      "hit": false,
      "t": 86136.27750000023,
      "d": 560.6054999999906,
      "v": 70
    },
    {
      "midi": 59,
      "hit": false,
      "t": 86363.55000000022,
      "d": 378.7875000000058,
      "v": 66
    },
    {
      "midi": 76,
      "hit": false,
      "t": 86590.82250000021,
      "d": 446.96925000002375,
      "v": 82
    },
    {
      "midi": 72,
      "hit": false,
      "t": 86818.09500000023,
      "d": 333.3329999999987,
      "v": 76
    },
    {
      "midi": 65,
      "hit": false,
      "t": 87272.64000000023,
      "d": 128.78775000000314,
      "v": 20
    },
    {
      "midi": 72,
      "hit": false,
      "t": 87272.64000000023,
      "d": 219.6967500000028,
      "v": 66
    },
    {
      "midi": 68,
      "hit": false,
      "t": 87272.64000000023,
      "d": 371.2117500000022,
      "v": 64
    },
    {
      "midi": 41,
      "hit": false,
      "t": 87272.64000000023,
      "d": 3249.996750000035,
      "v": 82
    },
    {
      "midi": 48,
      "hit": false,
      "t": 87499.91250000024,
      "d": 3098.4817500000354,
      "v": 54
    },
    {
      "midi": 53,
      "hit": false,
      "t": 87727.18500000023,
      "d": 3022.724250000043,
      "v": 82
    },
    {
      "midi": 56,
      "hit": false,
      "t": 87954.45750000024,
      "d": 363.63600000001315,
      "v": 86
    },
    {
      "midi": 60,
      "hit": false,
      "t": 88181.73000000024,
      "d": 295.4542500000098,
      "v": 98
    },
    {
      "midi": 65,
      "hit": false,
      "t": 88409.00250000025,
      "d": 227.2725000000064,
      "v": 80
    },
    {
      "midi": 67,
      "hit": false,
      "t": 88636.27500000026,
      "d": 143.9392499999958,
      "v": 86
    },
    {
      "midi": 68,
      "hit": false,
      "t": 88863.54750000025,
      "d": 265.1512500000099,
      "v": 62
    },
    {
      "midi": 72,
      "hit": false,
      "t": 89090.82000000025,
      "d": 333.3329999999987,
      "v": 86
    },
    {
      "midi": 65,
      "hit": false,
      "t": 89545.36500000025,
      "d": 265.15124999999534,
      "v": 66
    },
    {
      "midi": 75,
      "hit": false,
      "t": 89999.91000000025,
      "d": 409.0905000000057,
      "v": 90
    },
    {
      "midi": 79,
      "hit": false,
      "t": 89999.91000000025,
      "d": 484.8480000000127,
      "v": 92
    },
    {
      "midi": 74,
      "hit": false,
      "t": 90454.45500000026,
      "d": 545.4540000000125,
      "v": 90
    },
    {
      "midi": 77,
      "hit": false,
      "t": 90454.45500000026,
      "d": 545.4540000000125,
      "v": 76
    },
    {
      "midi": 72,
      "hit": false,
      "t": 90909.00000000028,
      "d": 371.2117500000022,
      "v": 78
    },
    {
      "midi": 75,
      "hit": false,
      "t": 90909.00000000028,
      "d": 636.3629999999976,
      "v": 94
    },
    {
      "midi": 48,
      "hit": false,
      "t": 90909.00000000028,
      "d": 3219.6937500000495,
      "v": 80
    },
    {
      "midi": 55,
      "hit": false,
      "t": 91363.54500000027,
      "d": 2568.1792500000447,
      "v": 54
    },
    {
      "midi": 60,
      "hit": false,
      "t": 91590.81750000028,
      "d": 1469.6955000000307,
      "v": 88
    },
    {
      "midi": 63,
      "hit": false,
      "t": 91818.09000000029,
      "d": 446.9692500000092,
      "v": 66
    },
    {
      "midi": 67,
      "hit": false,
      "t": 92045.3625000003,
      "d": 484.8480000000127,
      "v": 80
    },
    {
      "midi": 72,
      "hit": false,
      "t": 92272.6350000003,
      "d": 340.9087500000023,
      "v": 70
    },
    {
      "midi": 63,
      "hit": false,
      "t": 92499.9075000003,
      "d": 643.9387500000012,
      "v": 54
    },
    {
      "midi": 74,
      "hit": false,
      "t": 92727.1800000003,
      "d": 787.8780000000261,
      "v": 58
    },
    {
      "midi": 67,
      "hit": false,
      "t": 92954.4525000003,
      "d": 227.2725000000064,
      "v": 26
    },
    {
      "midi": 60,
      "hit": false,
      "t": 93181.72500000031,
      "d": 946.9687500000146,
      "v": 64
    },
    {
      "midi": 63,
      "hit": false,
      "t": 93408.99750000032,
      "d": 749.999250000008,
      "v": 52
    },
    {
      "midi": 67,
      "hit": false,
      "t": 93636.27000000032,
      "d": 522.7267500000016,
      "v": 72
    },
    {
      "midi": 72,
      "hit": false,
      "t": 94090.81500000032,
      "d": 227.2725000000064,
      "v": 60
    },
    {
      "midi": 74,
      "hit": false,
      "t": 94545.36000000034,
      "d": 1174.241250000021,
      "v": 62
    },
    {
      "midi": 50,
      "hit": false,
      "t": 94545.36000000034,
      "d": 2916.663750000036,
      "v": 90
    },
    {
      "midi": 57,
      "hit": false,
      "t": 94999.90500000033,
      "d": 2151.5130000000354,
      "v": 58
    },
    {
      "midi": 62,
      "hit": false,
      "t": 95227.17750000034,
      "d": 1393.9380000000092,
      "v": 86
    },
    {
      "midi": 65,
      "hit": false,
      "t": 95454.45000000035,
      "d": 598.4842500000086,
      "v": 66
    },
    {
      "midi": 69,
      "hit": false,
      "t": 95681.72250000035,
      "d": 825.7567500000005,
      "v": 70
    },
    {
      "midi": 72,
      "hit": false,
      "t": 95908.99500000036,
      "d": 257.57549999999173,
      "v": 70
    },
    {
      "midi": 65,
      "hit": false,
      "t": 96136.26750000035,
      "d": 371.2117500000022,
      "v": 46
    },
    {
      "midi": 74,
      "hit": false,
      "t": 96363.54000000036,
      "d": 1469.6955000000307,
      "v": 76
    },
    {
      "midi": 62,
      "hit": false,
      "t": 96818.08500000036,
      "d": 598.4842500000086,
      "v": 54
    },
    {
      "midi": 72,
      "hit": false,
      "t": 97045.35750000036,
      "d": 787.8780000000261,
      "v": 90
    },
    {
      "midi": 57,
      "hit": false,
      "t": 97499.90250000037,
      "d": 227.2725000000064,
      "v": 66
    },
    {
      "midi": 69,
      "hit": false,
      "t": 97727.17500000038,
      "d": 257.5755000000063,
      "v": 64
    },
    {
      "midi": 65,
      "hit": false,
      "t": 97954.44750000039,
      "d": 219.6967500000028,
      "v": 58
    },
    {
      "midi": 43,
      "hit": false,
      "t": 98181.7200000004,
      "d": 2295.452250000031,
      "v": 68
    },
    {
      "midi": 50,
      "hit": false,
      "t": 98408.9925000004,
      "d": 2113.634250000032,
      "v": 66
    },
    {
      "midi": 55,
      "hit": false,
      "t": 98636.2650000004,
      "d": 1924.240500000029,
      "v": 86
    },
    {
      "midi": 59,
      "hit": false,
      "t": 98863.53750000041,
      "d": 143.9392499999958,
      "v": 80
    },
    {
      "midi": 62,
      "hit": false,
      "t": 99090.8100000004,
      "d": 106.06050000000687,
      "v": 82
    },
    {
      "midi": 65,
      "hit": false,
      "t": 99318.08250000041,
      "d": 30.302999999999884,
      "v": 58
    },
    {
      "midi": 67,
      "hit": false,
      "t": 99318.08250000041,
      "d": 68.18175000000338,
      "v": 50
    },
    {
      "midi": 64,
      "hit": false,
      "t": 99545.35500000042,
      "d": 68.18175000000338,
      "v": 70
    },
    {
      "midi": 65,
      "hit": false,
      "t": 99545.35500000042,
      "d": 75.75750000000698,
      "v": 52
    },
    {
      "midi": 74,
      "hit": false,
      "t": 99999.90000000043,
      "d": 787.8780000000115,
      "v": 88
    },
    {
      "midi": 67,
      "hit": false,
      "t": 99999.90000000043,
      "d": 825.756750000015,
      "v": 58
    },
    {
      "midi": 71,
      "hit": false,
      "t": 99999.90000000043,
      "d": 863.6355000000185,
      "v": 70
    },
    {
      "midi": 48,
      "hit": false,
      "t": 101818.08000000045,
      "d": 1196.9685000000027,
      "v": 86
    },
    {
      "midi": 55,
      "hit": false,
      "t": 102272.62500000045,
      "d": 863.635500000004,
      "v": 56
    },
    {
      "midi": 60,
      "hit": false,
      "t": 102727.17000000045,
      "d": 484.8480000000127,
      "v": 64
    },
    {
      "midi": 87,
      "hit": false,
      "t": 103181.71500000046,
      "d": 303.02999999999884,
      "v": 82
    },
    {
      "midi": 86,
      "hit": false,
      "t": 103636.26000000046,
      "d": 189.3937500000029,
      "v": 86
    },
    {
      "midi": 87,
      "hit": false,
      "t": 104090.80500000046,
      "d": 68.18175000000338,
      "v": 82
    },
    {
      "midi": 87,
      "hit": false,
      "t": 106818.07500000046,
      "d": 143.9392499999958,
      "v": 68
    },
    {
      "midi": 86,
      "hit": false,
      "t": 107272.62000000046,
      "d": 98.48475000000326,
      "v": 70
    },
    {
      "midi": 87,
      "hit": false,
      "t": 107727.16500000046,
      "d": 75.75750000000698,
      "v": 66
    },
    {
      "midi": 87,
      "hit": false,
      "t": 110454.43500000046,
      "d": 106.06050000000687,
      "v": 68
    },
    {
      "midi": 86,
      "hit": false,
      "t": 110908.98000000048,
      "d": 106.06050000000687,
      "v": 76
    },
    {
      "midi": 87,
      "hit": false,
      "t": 111363.52500000049,
      "d": 60.60599999999977,
      "v": 76
    },
    {
      "midi": 87,
      "hit": false,
      "t": 114090.7950000005,
      "d": 143.9392499999958,
      "v": 74
    },
    {
      "midi": 86,
      "hit": false,
      "t": 114545.34000000049,
      "d": 106.06050000000687,
      "v": 78
    },
    {
      "midi": 87,
      "hit": false,
      "t": 114999.8850000005,
      "d": 143.9392499999958,
      "v": 76
    },
    {
      "midi": 65,
      "hit": false,
      "t": 115454.4300000005,
      "d": 636.3629999999976,
      "v": 64
    },
    {
      "midi": 67,
      "hit": false,
      "t": 115908.9750000005,
      "d": 530.3025000000052,
      "v": 80
    },
    {
      "midi": 68,
      "hit": false,
      "t": 116363.5200000005,
      "d": 1090.9080000000104,
      "v": 82
    },
    {
      "midi": 75,
      "hit": false,
      "t": 117727.15500000051,
      "d": 454.54499999999825,
      "v": 92
    },
    {
      "midi": 79,
      "hit": false,
      "t": 117727.15500000051,
      "d": 499.99950000000536,
      "v": 86
    },
    {
      "midi": 74,
      "hit": false,
      "t": 118181.7000000005,
      "d": 969.6960000000108,
      "v": 78
    },
    {
      "midi": 77,
      "hit": false,
      "t": 118181.7000000005,
      "d": 969.6960000000108,
      "v": 86
    },
    {
      "midi": 72,
      "hit": false,
      "t": 119090.79000000052,
      "d": 560.6055000000051,
      "v": 80
    },
    {
      "midi": 75,
      "hit": false,
      "t": 119090.79000000052,
      "d": 560.6055000000051,
      "v": 98
    },
    {
      "midi": 70,
      "hit": false,
      "t": 119999.88000000053,
      "d": 477.27224999999453,
      "v": 90
    },
    {
      "midi": 74,
      "hit": false,
      "t": 119999.88000000053,
      "d": 1613.634750000012,
      "v": 68
    },
    {
      "midi": 67,
      "hit": false,
      "t": 120454.42500000053,
      "d": 151.51499999999942,
      "v": 60
    },
    {
      "midi": 75,
      "hit": false,
      "t": 120681.69750000053,
      "d": 1053.0292500000214,
      "v": 56
    },
    {
      "midi": 67,
      "hit": false,
      "t": 120908.97000000054,
      "d": 749.999250000008,
      "v": 88
    },
    {
      "midi": 67,
      "hit": false,
      "t": 121818.06000000055,
      "d": 515.150999999998,
      "v": 40
    },
    {
      "midi": 70,
      "hit": false,
      "t": 121818.06000000055,
      "d": 522.7267500000016,
      "v": 82
    },
    {
      "midi": 74,
      "hit": false,
      "t": 121818.06000000055,
      "d": 984.8475000000035,
      "v": 78
    },
    {
      "midi": 67,
      "hit": false,
      "t": 123636.24000000056,
      "d": 409.0905000000057,
      "v": 52
    },
    {
      "midi": 74,
      "hit": false,
      "t": 123636.24000000056,
      "d": 446.9692500000092,
      "v": 82
    },
    {
      "midi": 71,
      "hit": false,
      "t": 123636.24000000056,
      "d": 522.7267500000162,
      "v": 64
    },
    {
      "midi": 43,
      "hit": false,
      "t": 123636.24000000056,
      "d": 2795.451750000051,
      "v": 64
    },
    {
      "midi": 50,
      "hit": false,
      "t": 124090.78500000057,
      "d": 2333.3310000000347,
      "v": 60
    },
    {
      "midi": 55,
      "hit": false,
      "t": 124545.33000000057,
      "d": 1242.4230000000389,
      "v": 54
    },
    {
      "midi": 59,
      "hit": false,
      "t": 124772.60250000058,
      "d": 560.6055000000197,
      "v": 74
    },
    {
      "midi": 62,
      "hit": false,
      "t": 124999.87500000058,
      "d": 409.09050000002026,
      "v": 76
    },
    {
      "midi": 65,
      "hit": false,
      "t": 125227.14750000059,
      "d": 181.81800000001385,
      "v": 54
    },
    {
      "midi": 59,
      "hit": false,
      "t": 125454.42000000061,
      "d": 484.84799999999814,
      "v": 70
    },
    {
      "midi": 67,
      "hit": false,
      "t": 125454.42000000061,
      "d": 787.877999999997,
      "v": 90
    },
    {
      "midi": 62,
      "hit": false,
      "t": 125454.42000000061,
      "d": 946.96875,
      "v": 70
    },
    {
      "midi": 55,
      "hit": false,
      "t": 125908.96500000061,
      "d": 749.999250000008,
      "v": 48
    },
    {
      "midi": 59,
      "hit": false,
      "t": 126363.5100000006,
      "d": 446.9692500000092,
      "v": 82
    },
    {
      "midi": 50,
      "hit": false,
      "t": 126590.78250000061,
      "d": 189.3937500000029,
      "v": 88
    },
    {
      "midi": 67,
      "hit": false,
      "t": 126818.05500000062,
      "d": 143.9392499999958,
      "v": 68
    },
    {
      "midi": 62,
      "hit": false,
      "t": 126818.05500000062,
      "d": 257.57549999999173,
      "v": 88
    },
    {
      "midi": 60,
      "hit": false,
      "t": 127272.60000000062,
      "d": 515.150999999998,
      "v": 92
    },
    {
      "midi": 48,
      "hit": false,
      "t": 127272.60000000062,
      "d": 636.3629999999976,
      "v": 86
    },
    {
      "midi": 67,
      "hit": false,
      "t": 127272.60000000062,
      "d": 636.3629999999976,
      "v": 92
    },
    {
      "midi": 63,
      "hit": false,
      "t": 127272.60000000062,
      "d": 856.0597500000003,
      "v": 90
    },
    {
      "midi": 36,
      "hit": false,
      "t": 127272.60000000062,
      "d": 2984.8455000000104,
      "v": 88
    },
    {
      "midi": 48,
      "hit": false,
      "t": 128181.69000000061,
      "d": 2113.6342500000173,
      "v": 58
    },
    {
      "midi": 60,
      "hit": false,
      "t": 128408.96250000062,
      "d": 227.2725000000064,
      "v": 82
    },
    {
      "midi": 62,
      "hit": false,
      "t": 128636.23500000063,
      "d": 227.2725000000064,
      "v": 86
    },
    {
      "midi": 63,
      "hit": false,
      "t": 128863.50750000063,
      "d": 340.9087500000023,
      "v": 78
    },
    {
      "midi": 65,
      "hit": false,
      "t": 129090.78000000064,
      "d": 143.9392499999958,
      "v": 82
    },
    {
      "midi": 67,
      "hit": false,
      "t": 129318.05250000063,
      "d": 106.06050000000687,
      "v": 80
    },
    {
      "midi": 70,
      "hit": false,
      "t": 129545.32500000064,
      "d": 113.63624999999593,
      "v": 62
    },
    {
      "midi": 72,
      "hit": false,
      "t": 129772.59750000063,
      "d": 106.06050000000687,
      "v": 80
    },
    {
      "midi": 74,
      "hit": false,
      "t": 129999.87000000064,
      "d": 143.9392499999958,
      "v": 88
    },
    {
      "midi": 75,
      "hit": false,
      "t": 130227.14250000063,
      "d": 227.2725000000064,
      "v": 88
    },
    {
      "midi": 77,
      "hit": false,
      "t": 130454.41500000063,
      "d": 257.5755000000063,
      "v": 100
    },
    {
      "midi": 70,
      "hit": false,
      "t": 130908.96000000065,
      "d": 295.4542499999952,
      "v": 66
    },
    {
      "midi": 75,
      "hit": false,
      "t": 130908.96000000065,
      "d": 628.7872500000085,
      "v": 86
    },
    {
      "midi": 79,
      "hit": false,
      "t": 130908.96000000065,
      "d": 674.241750000001,
      "v": 80
    },
    {
      "midi": 51,
      "hit": false,
      "t": 130908.96000000065,
      "d": 1310.604749999984,
      "v": 86
    },
    {
      "midi": 58,
      "hit": false,
      "t": 131363.50500000064,
      "d": 712.12049999999,
      "v": 42
    },
    {
      "midi": 63,
      "hit": false,
      "t": 131590.77750000064,
      "d": 1772.7255000000005,
      "v": 60
    },
    {
      "midi": 70,
      "hit": false,
      "t": 131818.05000000063,
      "d": 553.0297500000161,
      "v": 62
    },
    {
      "midi": 75,
      "hit": false,
      "t": 132045.32250000062,
      "d": 446.96925000002375,
      "v": 82
    },
    {
      "midi": 58,
      "hit": false,
      "t": 132272.59500000064,
      "d": 606.0599999999977,
      "v": 64
    },
    {
      "midi": 70,
      "hit": false,
      "t": 132499.86750000063,
      "d": 378.7875000000058,
      "v": 46
    },
    {
      "midi": 79,
      "hit": false,
      "t": 132727.14000000063,
      "d": 568.1812500000233,
      "v": 88
    },
    {
      "midi": 51,
      "hit": false,
      "t": 132954.41250000065,
      "d": 1090.9079999999667,
      "v": 64
    },
    {
      "midi": 77,
      "hit": false,
      "t": 133181.68500000064,
      "d": 492.4237499999872,
      "v": 78
    },
    {
      "midi": 58,
      "hit": false,
      "t": 133408.95750000063,
      "d": 749.9992499999644,
      "v": 56
    },
    {
      "midi": 75,
      "hit": false,
      "t": 133636.23000000062,
      "d": 863.6354999999749,
      "v": 98
    },
    {
      "midi": 63,
      "hit": false,
      "t": 133863.5025000006,
      "d": 287.8784999999916,
      "v": 72
    },
    {
      "midi": 77,
      "hit": false,
      "t": 134090.7750000006,
      "d": 901.5142499999783,
      "v": 82
    },
    {
      "midi": 74,
      "hit": false,
      "t": 134545.3200000006,
      "d": 401.5147500000021,
      "v": 78
    },
    {
      "midi": 46,
      "hit": false,
      "t": 134545.3200000006,
      "d": 2030.3009999999194,
      "v": 56
    },
    {
      "midi": 53,
      "hit": false,
      "t": 134772.59250000058,
      "d": 1742.4224999999278,
      "v": 60
    },
    {
      "midi": 58,
      "hit": false,
      "t": 134999.86500000057,
      "d": 1469.6954999999434,
      "v": 60
    },
    {
      "midi": 62,
      "hit": false,
      "t": 135227.13750000056,
      "d": 515.1509999999835,
      "v": 64
    },
    {
      "midi": 65,
      "hit": false,
      "t": 135454.41000000056,
      "d": 1159.0897499999555,
      "v": 80
    },
    {
      "midi": 70,
      "hit": false,
      "t": 135681.68250000055,
      "d": 446.96924999999464,
      "v": 82
    },
    {
      "midi": 72,
      "hit": false,
      "t": 135908.95500000054,
      "d": 219.6967500000028,
      "v": 76
    },
    {
      "midi": 62,
      "hit": false,
      "t": 136136.22750000053,
      "d": 454.5449999999837,
      "v": 70
    },
    {
      "midi": 74,
      "hit": false,
      "t": 136363.50000000052,
      "d": 560.605499999976,
      "v": 76
    },
    {
      "midi": 58,
      "hit": false,
      "t": 136590.77250000052,
      "d": 1249.9987499999697,
      "v": 52
    },
    {
      "midi": 62,
      "hit": false,
      "t": 136818.0450000005,
      "d": 522.7267499999725,
      "v": 64
    },
    {
      "midi": 53,
      "hit": false,
      "t": 137045.3175000005,
      "d": 492.4237499999872,
      "v": 68
    },
    {
      "midi": 72,
      "hit": false,
      "t": 137272.5900000005,
      "d": 484.84799999999814,
      "v": 70
    },
    {
      "midi": 46,
      "hit": false,
      "t": 137499.86250000048,
      "d": 484.84799999999814,
      "v": 50
    },
    {
      "midi": 74,
      "hit": false,
      "t": 137727.13500000047,
      "d": 371.21175000001676,
      "v": 80
    },
    {
      "midi": 67,
      "hit": false,
      "t": 138181.6800000005,
      "d": 257.5755000000063,
      "v": 74
    },
    {
      "midi": 48,
      "hit": false,
      "t": 138181.6800000005,
      "d": 636.3630000000121,
      "v": 64
    },
    {
      "midi": 75,
      "hit": false,
      "t": 138181.6800000005,
      "d": 901.5142500000075,
      "v": 78
    },
    {
      "midi": 55,
      "hit": false,
      "t": 138408.95250000048,
      "d": 409.09050000002026,
      "v": 46
    },
    {
      "midi": 60,
      "hit": false,
      "t": 138636.2250000005,
      "d": 1507.574249999976,
      "v": 68
    },
    {
      "midi": 67,
      "hit": false,
      "t": 138863.4975000005,
      "d": 719.696249999979,
      "v": 72
    },
    {
      "midi": 72,
      "hit": false,
      "t": 139090.77000000048,
      "d": 606.0599999999686,
      "v": 60
    },
    {
      "midi": 63,
      "hit": false,
      "t": 139318.04250000048,
      "d": 333.33299999998417,
      "v": 52
    },
    {
      "midi": 75,
      "hit": false,
      "t": 139545.31500000047,
      "d": 303.02999999999884,
      "v": 62
    },
    {
      "midi": 67,
      "hit": false,
      "t": 139772.58750000046,
      "d": 371.21175000001676,
      "v": 64
    },
    {
      "midi": 75,
      "hit": false,
      "t": 139999.86000000048,
      "d": 522.7267499999725,
      "v": 80
    },
    {
      "midi": 48,
      "hit": false,
      "t": 139999.86000000048,
      "d": 1401.5137499999546,
      "v": 58
    },
    {
      "midi": 55,
      "hit": false,
      "t": 140227.13250000047,
      "d": 1431.81674999994,
      "v": 52
    },
    {
      "midi": 74,
      "hit": false,
      "t": 140454.40500000046,
      "d": 371.21174999998766,
      "v": 74
    },
    {
      "midi": 60,
      "hit": false,
      "t": 140454.40500000046,
      "d": 681.8174999999756,
      "v": 64
    },
    {
      "midi": 72,
      "hit": false,
      "t": 140696.82900000046,
      "d": 681.8174999999756,
      "v": 58
    },
    {
      "midi": 74,
      "hit": false,
      "t": 140908.95000000045,
      "d": 371.21174999998766,
      "v": 74
    },
    {
      "midi": 60,
      "hit": false,
      "t": 141363.49500000043,
      "d": 303.02999999996973,
      "v": 58
    },
    {
      "midi": 75,
      "hit": false,
      "t": 141590.76750000042,
      "d": 522.7267499999725,
      "v": 78
    },
    {
      "midi": 70,
      "hit": false,
      "t": 141818.04000000042,
      "d": 818.1809999999823,
      "v": 78
    },
    {
      "midi": 51,
      "hit": false,
      "t": 141818.04000000042,
      "d": 1318.1804999999877,
      "v": 68
    },
    {
      "midi": 58,
      "hit": false,
      "t": 142045.3125000004,
      "d": 1060.6049999999814,
      "v": 64
    },
    {
      "midi": 63,
      "hit": false,
      "t": 142272.5850000004,
      "d": 1060.6050000000105,
      "v": 80
    },
    {
      "midi": 67,
      "hit": false,
      "t": 142499.8575000004,
      "d": 643.9387500000012,
      "v": 78
    },
    {
      "midi": 70,
      "hit": false,
      "t": 142727.1300000004,
      "d": 1848.4830000000366,
      "v": 64
    },
    {
      "midi": 74,
      "hit": false,
      "t": 142954.4025000004,
      "d": 143.9392499999958,
      "v": 80
    },
    {
      "midi": 75,
      "hit": false,
      "t": 143181.6750000004,
      "d": 371.21175000001676,
      "v": 58
    },
    {
      "midi": 58,
      "hit": false,
      "t": 143181.6750000004,
      "d": 409.09050000002026,
      "v": 60
    },
    {
      "midi": 67,
      "hit": false,
      "t": 143636.2200000004,
      "d": 484.84800000002724,
      "v": 56
    },
    {
      "midi": 76,
      "hit": false,
      "t": 143636.2200000004,
      "d": 719.6962500000373,
      "v": 68
    },
    {
      "midi": 52,
      "hit": false,
      "t": 143636.2200000004,
      "d": 1431.8167500000563,
      "v": 64
    },
    {
      "midi": 58,
      "hit": false,
      "t": 144090.76500000042,
      "d": 712.1205000000191,
      "v": 42
    },
    {
      "midi": 64,
      "hit": false,
      "t": 144318.03750000044,
      "d": 787.8780000000261,
      "v": 60
    },
    {
      "midi": 67,
      "hit": false,
      "t": 144545.31000000043,
      "d": 492.4237500000163,
      "v": 62
    },
    {
      "midi": 58,
      "hit": false,
      "t": 144999.85500000045,
      "d": 219.6967500000319,
      "v": 50
    },
    {
      "midi": 70,
      "hit": false,
      "t": 144999.85500000045,
      "d": 371.21175000001676,
      "v": 70
    },
    {
      "midi": 68,
      "hit": false,
      "t": 145227.12750000047,
      "d": 227.27249999999185,
      "v": 56
    },
    {
      "midi": 65,
      "hit": false,
      "t": 145454.40000000046,
      "d": 1090.9079999999958,
      "v": 58
    },
    {
      "midi": 41,
      "hit": false,
      "t": 145454.40000000046,
      "d": 3181.814999999944,
      "v": 66
    },
    {
      "midi": 48,
      "hit": false,
      "t": 146136.21750000046,
      "d": 2492.4217499999504,
      "v": 10
    },
    {
      "midi": 53,
      "hit": false,
      "t": 146363.49000000046,
      "d": 969.6959999999672,
      "v": 70
    },
    {
      "midi": 56,
      "hit": false,
      "t": 146590.76250000045,
      "d": 863.6354999999749,
      "v": 90
    },
    {
      "midi": 60,
      "hit": false,
      "t": 146818.03500000044,
      "d": 643.9387499999721,
      "v": 92
    },
    {
      "midi": 65,
      "hit": false,
      "t": 147045.30750000043,
      "d": 265.15124999999534,
      "v": 50
    },
    {
      "midi": 67,
      "hit": false,
      "t": 147272.58000000042,
      "d": 416.6662499999802,
      "v": 70
    },
    {
      "midi": 53,
      "hit": false,
      "t": 147727.1250000004,
      "d": 954.5444999999891,
      "v": 60
    },
    {
      "midi": 68,
      "hit": false,
      "t": 147954.3975000004,
      "d": 37.87875000000349,
      "v": 60
    },
    {
      "midi": 77,
      "hit": false,
      "t": 148181.6700000004,
      "d": 75.75750000000698,
      "v": 64
    },
    {
      "midi": 79,
      "hit": false,
      "t": 148181.6700000004,
      "d": 446.96925000002375,
      "v": 54
    },
    {
      "midi": 75,
      "hit": false,
      "t": 148408.9425000004,
      "d": 151.51500000001397,
      "v": 38
    },
    {
      "midi": 77,
      "hit": false,
      "t": 148636.2150000004,
      "d": 446.96924999999464,
      "v": 68
    },
    {
      "midi": 74,
      "hit": false,
      "t": 148636.2150000004,
      "d": 515.1509999999835,
      "v": 64
    },
    {
      "midi": 72,
      "hit": false,
      "t": 149090.7600000004,
      "d": 212.12100000001374,
      "v": 56
    },
    {
      "midi": 75,
      "hit": false,
      "t": 149090.7600000004,
      "d": 401.5147500000312,
      "v": 82
    },
    {
      "midi": 48,
      "hit": false,
      "t": 149090.7600000004,
      "d": 1431.8167500000272,
      "v": 66
    },
    {
      "midi": 55,
      "hit": false,
      "t": 149318.0325000004,
      "d": 1136.3625000000175,
      "v": 56
    },
    {
      "midi": 60,
      "hit": false,
      "t": 149545.30500000043,
      "d": 1015.1504999999888,
      "v": 68
    },
    {
      "midi": 63,
      "hit": false,
      "t": 149772.57750000042,
      "d": 863.635500000004,
      "v": 66
    },
    {
      "midi": 65,
      "hit": false,
      "t": 150454.39500000043,
      "d": 643.9387500000012,
      "v": 80
    },
    {
      "midi": 55,
      "hit": false,
      "t": 150681.66750000042,
      "d": 265.15124999999534,
      "v": 62
    },
    {
      "midi": 67,
      "hit": false,
      "t": 150908.9400000004,
      "d": 712.1205000000191,
      "v": 68
    },
    {
      "midi": 46,
      "hit": false,
      "t": 150908.9400000004,
      "d": 1166.665500000032,
      "v": 64
    },
    {
      "midi": 55,
      "hit": false,
      "t": 151136.21250000043,
      "d": 787.877999999997,
      "v": 44
    },
    {
      "midi": 58,
      "hit": false,
      "t": 151363.48500000042,
      "d": 939.39300000004,
      "v": 68
    },
    {
      "midi": 63,
      "hit": false,
      "t": 151590.7575000004,
      "d": 446.96925000002375,
      "v": 64
    },
    {
      "midi": 67,
      "hit": false,
      "t": 151818.03000000044,
      "d": 598.4842500000377,
      "v": 62
    },
    {
      "midi": 55,
      "hit": false,
      "t": 152272.57500000045,
      "d": 68.18175000001793,
      "v": 54
    },
    {
      "midi": 74,
      "hit": false,
      "t": 152272.57500000045,
      "d": 265.15125000002445,
      "v": 78
    },
    {
      "midi": 67,
      "hit": false,
      "t": 152727.12000000046,
      "d": 151.51500000001397,
      "v": 58
    },
    {
      "midi": 74,
      "hit": false,
      "t": 152727.12000000046,
      "d": 363.6360000000277,
      "v": 80
    },
    {
      "midi": 43,
      "hit": false,
      "t": 152727.12000000046,
      "d": 1651.51350000003,
      "v": 60
    },
    {
      "midi": 50,
      "hit": false,
      "t": 152954.39250000048,
      "d": 1401.5137500000128,
      "v": 58
    },
    {
      "midi": 55,
      "hit": false,
      "t": 153181.6650000005,
      "d": 833.3324999999895,
      "v": 78
    },
    {
      "midi": 59,
      "hit": false,
      "t": 153408.9375000005,
      "d": 863.635500000004,
      "v": 60
    },
    {
      "midi": 62,
      "hit": false,
      "t": 153636.2100000005,
      "d": 749.9992499999935,
      "v": 96
    },
    {
      "midi": 55,
      "hit": false,
      "t": 154090.7550000005,
      "d": 636.362999999983,
      "v": 58
    },
    {
      "midi": 59,
      "hit": false,
      "t": 154318.0275000005,
      "d": 492.4237499999872,
      "v": 66
    },
    {
      "midi": 67,
      "hit": false,
      "t": 154545.30000000048,
      "d": 674.2417499999865,
      "v": 76
    },
    {
      "midi": 62,
      "hit": false,
      "t": 154545.30000000048,
      "d": 787.8779999999679,
      "v": 58
    },
    {
      "midi": 55,
      "hit": false,
      "t": 154999.84500000047,
      "d": 901.5142499999783,
      "v": 40
    },
    {
      "midi": 59,
      "hit": false,
      "t": 155227.11750000046,
      "d": 568.1812499999942,
      "v": 82
    },
    {
      "midi": 67,
      "hit": false,
      "t": 155681.66250000044,
      "d": 371.21174999998766,
      "v": 90
    },
    {
      "midi": 62,
      "hit": false,
      "t": 155681.66250000044,
      "d": 1507.5742500000051,
      "v": 102
    },
    {
      "midi": 50,
      "hit": false,
      "t": 155908.93500000043,
      "d": 106.06049999999232,
      "v": 76
    },
    {
      "midi": 59,
      "hit": false,
      "t": 156363.48000000042,
      "d": 113.63625000001048,
      "v": 80
    },
    {
      "midi": 55,
      "hit": false,
      "t": 156363.48000000042,
      "d": 446.96925000002375,
      "v": 86
    },
    {
      "midi": 67,
      "hit": false,
      "t": 156363.48000000042,
      "d": 530.3025000000198,
      "v": 86
    },
    {
      "midi": 43,
      "hit": false,
      "t": 156818.02500000043,
      "d": 1553.0287499999977,
      "v": 66
    },
    {
      "midi": 50,
      "hit": false,
      "t": 157045.29750000045,
      "d": 1431.816749999969,
      "v": 58
    },
    {
      "midi": 55,
      "hit": false,
      "t": 157272.57000000044,
      "d": 1098.4837499999849,
      "v": 64
    },
    {
      "midi": 59,
      "hit": false,
      "t": 157499.84250000044,
      "d": 303.02999999999884,
      "v": 76
    },
    {
      "midi": 62,
      "hit": false,
      "t": 157727.11500000043,
      "d": 257.5755000000063,
      "v": 82
    },
    {
      "midi": 62,
      "hit": false,
      "t": 158181.66000000044,
      "d": 106.06049999999232,
      "v": 80
    },
    {
      "midi": 67,
      "hit": false,
      "t": 158181.66000000044,
      "d": 106.06049999999232,
      "v": 92
    },
    {
      "midi": 59,
      "hit": false,
      "t": 158181.66000000044,
      "d": 189.39374999998836,
      "v": 60
    },
    {
      "midi": 48,
      "hit": false,
      "t": 159999.84000000043,
      "d": 1196.9685000000172,
      "v": 86
    },
    {
      "midi": 55,
      "hit": false,
      "t": 160454.38500000045,
      "d": 863.635500000004,
      "v": 56
    },
    {
      "midi": 60,
      "hit": false,
      "t": 160908.93000000046,
      "d": 484.84799999999814,
      "v": 64
    },
    {
      "midi": 87,
      "hit": false,
      "t": 161363.47500000044,
      "d": 303.03000000002794,
      "v": 82
    },
    {
      "midi": 86,
      "hit": false,
      "t": 161818.02000000048,
      "d": 189.39374999998836,
      "v": 86
    },
    {
      "midi": 87,
      "hit": false,
      "t": 162272.56500000047,
      "d": 68.18174999998882,
      "v": 82
    },
    {
      "midi": 87,
      "hit": false,
      "t": 164999.83500000046,
      "d": 143.9392499999958,
      "v": 68
    },
    {
      "midi": 86,
      "hit": false,
      "t": 165454.38000000044,
      "d": 98.48475000000326,
      "v": 70
    },
    {
      "midi": 87,
      "hit": false,
      "t": 165908.92500000045,
      "d": 75.75750000000698,
      "v": 66
    },
    {
      "midi": 87,
      "hit": false,
      "t": 168636.19500000047,
      "d": 106.06049999999232,
      "v": 68
    },
    {
      "midi": 86,
      "hit": false,
      "t": 169090.74000000046,
      "d": 106.06049999999232,
      "v": 76
    },
    {
      "midi": 87,
      "hit": false,
      "t": 169545.28500000044,
      "d": 60.60599999999977,
      "v": 76
    },
    {
      "midi": 87,
      "hit": false,
      "t": 172272.55500000043,
      "d": 143.9392499999958,
      "v": 74
    },
    {
      "midi": 86,
      "hit": false,
      "t": 172727.1000000004,
      "d": 106.06049999999232,
      "v": 78
    },
    {
      "midi": 87,
      "hit": false,
      "t": 173181.6450000004,
      "d": 143.9392499999958,
      "v": 76
    },
    {
      "midi": 65,
      "hit": false,
      "t": 173636.19000000038,
      "d": 636.3630000000121,
      "v": 64
    },
    {
      "midi": 67,
      "hit": false,
      "t": 174090.7350000004,
      "d": 530.3025000000198,
      "v": 80
    },
    {
      "midi": 68,
      "hit": false,
      "t": 174545.2800000004,
      "d": 1090.9079999999958,
      "v": 82
    },
    {
      "midi": 75,
      "hit": false,
      "t": 175908.91500000042,
      "d": 454.5450000000128,
      "v": 92
    },
    {
      "midi": 79,
      "hit": false,
      "t": 175908.91500000042,
      "d": 499.99950000000536,
      "v": 86
    },
    {
      "midi": 74,
      "hit": false,
      "t": 176363.46000000043,
      "d": 969.6959999999963,
      "v": 78
    },
    {
      "midi": 77,
      "hit": false,
      "t": 176363.46000000043,
      "d": 969.6959999999963,
      "v": 86
    },
    {
      "midi": 72,
      "hit": false,
      "t": 177272.55000000042,
      "d": 560.6055000000051,
      "v": 80
    },
    {
      "midi": 75,
      "hit": false,
      "t": 177272.55000000042,
      "d": 560.6055000000051,
      "v": 98
    },
    {
      "midi": 70,
      "hit": false,
      "t": 178181.64000000042,
      "d": 477.2722500000091,
      "v": 90
    },
    {
      "midi": 74,
      "hit": false,
      "t": 178181.64000000042,
      "d": 1613.6347499999974,
      "v": 68
    },
    {
      "midi": 67,
      "hit": false,
      "t": 178636.18500000043,
      "d": 151.51499999998487,
      "v": 60
    },
    {
      "midi": 75,
      "hit": false,
      "t": 178863.45750000043,
      "d": 1053.0292499999923,
      "v": 56
    },
    {
      "midi": 67,
      "hit": false,
      "t": 179090.73000000042,
      "d": 749.9992499999935,
      "v": 88
    },
    {
      "midi": 67,
      "hit": false,
      "t": 179999.8200000004,
      "d": 515.1510000000126,
      "v": 40
    },
    {
      "midi": 70,
      "hit": false,
      "t": 179999.8200000004,
      "d": 522.7267500000016,
      "v": 82
    },
    {
      "midi": 74,
      "hit": false,
      "t": 179999.8200000004,
      "d": 984.8475000000035,
      "v": 78
    },
    {
      "midi": 67,
      "hit": false,
      "t": 181818.0000000004,
      "d": 409.09049999999115,
      "v": 52
    },
    {
      "midi": 74,
      "hit": false,
      "t": 181818.0000000004,
      "d": 446.96924999999464,
      "v": 82
    },
    {
      "midi": 71,
      "hit": false,
      "t": 181818.0000000004,
      "d": 522.7267499999725,
      "v": 64
    },
    {
      "midi": 43,
      "hit": false,
      "t": 181818.0000000004,
      "d": 2795.4517499999492,
      "v": 64
    },
    {
      "midi": 50,
      "hit": false,
      "t": 182272.5450000004,
      "d": 2333.3309999999765,
      "v": 60
    },
    {
      "midi": 55,
      "hit": false,
      "t": 182727.09000000037,
      "d": 1242.4229999999807,
      "v": 54
    },
    {
      "midi": 59,
      "hit": false,
      "t": 182954.36250000037,
      "d": 560.605499999976,
      "v": 74
    },
    {
      "midi": 62,
      "hit": false,
      "t": 183181.63500000036,
      "d": 409.09049999999115,
      "v": 76
    },
    {
      "midi": 65,
      "hit": false,
      "t": 183408.90750000035,
      "d": 181.8179999999993,
      "v": 54
    },
    {
      "midi": 59,
      "hit": false,
      "t": 183636.18000000034,
      "d": 484.84800000002724,
      "v": 70
    },
    {
      "midi": 67,
      "hit": false,
      "t": 183636.18000000034,
      "d": 787.8780000000261,
      "v": 90
    },
    {
      "midi": 62,
      "hit": false,
      "t": 183636.18000000034,
      "d": 946.9687500000291,
      "v": 70
    },
    {
      "midi": 55,
      "hit": false,
      "t": 184090.72500000036,
      "d": 749.9992499999935,
      "v": 48
    },
    {
      "midi": 59,
      "hit": false,
      "t": 184545.27000000037,
      "d": 446.96924999999464,
      "v": 82
    },
    {
      "midi": 50,
      "hit": false,
      "t": 184772.54250000036,
      "d": 189.39374999998836,
      "v": 88
    },
    {
      "midi": 67,
      "hit": false,
      "t": 184999.81500000035,
      "d": 143.9392499999958,
      "v": 68
    },
    {
      "midi": 62,
      "hit": false,
      "t": 184999.81500000035,
      "d": 257.5755000000063,
      "v": 88
    },
    {
      "midi": 60,
      "hit": false,
      "t": 185454.36000000036,
      "d": 515.1510000000126,
      "v": 62
    },
    {
      "midi": 48,
      "hit": false,
      "t": 185454.36000000036,
      "d": 636.3630000000121,
      "v": 75
    },
    {
      "midi": 67,
      "hit": false,
      "t": 185454.36000000036,
      "d": 636.3630000000121,
      "v": 65
    },
    {
      "midi": 63,
      "hit": false,
      "t": 185454.36000000036,
      "d": 856.0597500000149,
      "v": 66
    },
    {
      "midi": 36,
      "hit": false,
      "t": 185454.36000000036,
      "d": 2984.845500000025,
      "v": 74
    },
    {
      "midi": 48,
      "hit": false,
      "t": 186363.4500000004,
      "d": 2113.634250000003,
      "v": 58
    }
  ]
}