{
  "jsonPath": "Classical/Classical/Murray Perahia/piano-sonata-in-a-minor-kv-310-300d-i-allegro-maestoso.json",
  "path": "Classical\\Classical\\Murray Perahia\\Piano Sonata in A minor_ KV 310 (300d)I Allegro maestoso.mid",
  "name": "Piano Sonata in A minor_ KV 310 (300d)I Allegro maestoso",
  "difficulty": "Advanced",
  "bpm": 116.00008506672904,
  "notes": [
    {
      "midi": 75,
      "hit": false,
      "t": 2068.9640000000004,
      "d": 59.267197916666646,
      "v": 90
    },
    {
      "midi": 57,
      "hit": false,
      "t": 2068.9640000000004,
      "d": 253.23257291666687,
      "v": 90
    },
    {
      "midi": 60,
      "hit": false,
      "t": 2068.9640000000004,
      "d": 253.23257291666687,
      "v": 90
    },
    {
      "midi": 64,
      "hit": false,
      "t": 2068.9640000000004,
      "d": 253.23257291666687,
      "v": 90
    },
    {
      "midi": 76,
      "hit": false,
      "t": 2133.619125,
      "d": 441.8100208333335,
      "v": 90
    },
    {
      "midi": 57,
      "hit": false,
      "t": 2327.5845000000004,
      "d": 253.23257291666687,
      "v": 90
    },
    {
      "midi": 60,
      "hit": false,
      "t": 2327.5845000000004,
      "d": 253.23257291666687,
      "v": 90
    },
    {
      "midi": 64,
      "hit": false,
      "t": 2327.5845000000004,
      "d": 253.23257291666687,
      "v": 90
    },
    {
      "midi": 76,
      "hit": false,
      "t": 2586.2050000000004,
      "d": 382.54282291666686,
      "v": 90
    },
    {
      "midi": 57,
      "hit": false,
      "t": 2586.2050000000004,
      "d": 253.23257291666687,
      "v": 90
    },
    {
      "midi": 60,
      "hit": false,
      "t": 2586.2050000000004,
      "d": 253.23257291666687,
      "v": 90
    },
    {
      "midi": 64,
      "hit": false,
      "t": 2586.2050000000004,
      "d": 253.23257291666687,
      "v": 90
    },
    {
      "midi": 57,
      "hit": false,
      "t": 2844.8255000000004,
      "d": 253.23257291666687,
      "v": 90
    },
    {
      "midi": 60,
      "hit": false,
      "t": 2844.8255000000004,
      "d": 253.23257291666687,
      "v": 90
    },
    {
      "midi": 64,
      "hit": false,
      "t": 2844.8255000000004,
      "d": 253.23257291666687,
      "v": 90
    },
    {
      "midi": 76,
      "hit": false,
      "t": 2974.1357500000004,
      "d": 123.92232291666687,
      "v": 90
    },
    {
      "midi": 76,
      "hit": false,
      "t": 3103.4460000000004,
      "d": 511.85307291666686,
      "v": 90
    },
    {
      "midi": 57,
      "hit": false,
      "t": 3103.4460000000004,
      "d": 253.23257291666687,
      "v": 90
    },
    {
      "midi": 60,
      "hit": false,
      "t": 3103.4460000000004,
      "d": 253.23257291666687,
      "v": 90
    },
    {
      "midi": 64,
      "hit": false,
      "t": 3103.4460000000004,
      "d": 253.23257291666687,
      "v": 90
    },
    {
      "midi": 57,
      "hit": false,
      "t": 3362.0665000000004,
      "d": 253.23257291666687,
      "v": 90
    },
    {
      "midi": 60,
      "hit": false,
      "t": 3362.0665000000004,
      "d": 253.23257291666687,
      "v": 90
    },
    {
      "midi": 64,
      "hit": false,
      "t": 3362.0665000000004,
      "d": 253.23257291666687,
      "v": 90
    },
    {
      "midi": 72,
      "hit": false,
      "t": 3620.6870000000004,
      "d": 382.54282291666686,
      "v": 90
    },
    {
      "midi": 57,
      "hit": false,
      "t": 3620.6870000000004,
      "d": 253.23257291666687,
      "v": 90
    },
    {
      "midi": 60,
      "hit": false,
      "t": 3620.6870000000004,
      "d": 253.23257291666687,
      "v": 90
    },
    {
      "midi": 64,
      "hit": false,
      "t": 3620.6870000000004,
      "d": 253.23257291666687,
      "v": 90
    },
    {
      "midi": 57,
      "hit": false,
      "t": 3879.3075000000003,
      "d": 253.2325729166664,
      "v": 90
    },
    {
      "midi": 60,
      "hit": false,
      "t": 3879.3075000000003,
      "d": 253.2325729166664,
      "v": 90
    },
    {
      "midi": 64,
      "hit": false,
      "t": 3879.3075000000003,
      "d": 253.2325729166664,
      "v": 90
    },
    {
      "midi": 69,
      "hit": false,
      "t": 4008.6177500000003,
      "d": 123.92232291666642,
      "v": 90
    },
    {
      "midi": 69,
      "hit": false,
      "t": 4137.928,
      "d": 253.23257291666687,
      "v": 82
    },
    {
      "midi": 57,
      "hit": false,
      "t": 4137.928,
      "d": 253.23257291666687,
      "v": 82
    },
    {
      "midi": 59,
      "hit": false,
      "t": 4137.928,
      "d": 253.23257291666687,
      "v": 82
    },
    {
      "midi": 62,
      "hit": false,
      "t": 4137.928,
      "d": 253.23257291666687,
      "v": 82
    },
    {
      "midi": 64,
      "hit": false,
      "t": 4137.928,
      "d": 253.23257291666687,
      "v": 82
    },
    {
      "midi": 68,
      "hit": false,
      "t": 4396.5485,
      "d": 253.23257291666687,
      "v": 82
    },
    {
      "midi": 57,
      "hit": false,
      "t": 4396.5485,
      "d": 253.23257291666687,
      "v": 82
    },
    {
      "midi": 59,
      "hit": false,
      "t": 4396.5485,
      "d": 253.23257291666687,
      "v": 82
    },
    {
      "midi": 62,
      "hit": false,
      "t": 4396.5485,
      "d": 253.23257291666687,
      "v": 82
    },
    {
      "midi": 64,
      "hit": false,
      "t": 4396.5485,
      "d": 253.23257291666687,
      "v": 82
    },
    {
      "midi": 68,
      "hit": false,
      "t": 4655.169,
      "d": 1029.0940729166668,
      "v": 82
    },
    {
      "midi": 57,
      "hit": false,
      "t": 4655.169,
      "d": 253.23257291666687,
      "v": 82
    },
    {
      "midi": 59,
      "hit": false,
      "t": 4655.169,
      "d": 253.23257291666687,
      "v": 82
    },
    {
      "midi": 62,
      "hit": false,
      "t": 4655.169,
      "d": 253.23257291666687,
      "v": 82
    },
    {
      "midi": 64,
      "hit": false,
      "t": 4655.169,
      "d": 253.23257291666687,
      "v": 82
    },
    {
      "midi": 57,
      "hit": false,
      "t": 4913.7895,
      "d": 253.23257291666687,
      "v": 82
    },
    {
      "midi": 59,
      "hit": false,
      "t": 4913.7895,
      "d": 253.23257291666687,
      "v": 82
    },
    {
      "midi": 62,
      "hit": false,
      "t": 4913.7895,
      "d": 253.23257291666687,
      "v": 82
    },
    {
      "midi": 64,
      "hit": false,
      "t": 4913.7895,
      "d": 253.23257291666687,
      "v": 82
    },
    {
      "midi": 57,
      "hit": false,
      "t": 5172.41,
      "d": 253.23257291666687,
      "v": 82
    },
    {
      "midi": 59,
      "hit": false,
      "t": 5172.41,
      "d": 253.23257291666687,
      "v": 82
    },
    {
      "midi": 62,
      "hit": false,
      "t": 5172.41,
      "d": 253.23257291666687,
      "v": 82
    },
    {
      "midi": 64,
      "hit": false,
      "t": 5172.41,
      "d": 253.23257291666687,
      "v": 82
    },
    {
      "midi": 57,
      "hit": false,
      "t": 5431.0305,
      "d": 253.23257291666687,
      "v": 82
    },
    {
      "midi": 59,
      "hit": false,
      "t": 5431.0305,
      "d": 253.23257291666687,
      "v": 82
    },
    {
      "midi": 62,
      "hit": false,
      "t": 5431.0305,
      "d": 253.23257291666687,
      "v": 82
    },
    {
      "midi": 64,
      "hit": false,
      "t": 5431.0305,
      "d": 253.23257291666687,
      "v": 82
    },
    {
      "midi": 74,
      "hit": false,
      "t": 5689.651,
      "d": 382.5428229166664,
      "v": 82
    },
    {
      "midi": 57,
      "hit": false,
      "t": 5689.651,
      "d": 253.23257291666687,
      "v": 82
    },
    {
      "midi": 59,
      "hit": false,
      "t": 5689.651,
      "d": 253.23257291666687,
      "v": 82
    },
    {
      "midi": 62,
      "hit": false,
      "t": 5689.651,
      "d": 253.23257291666687,
      "v": 82
    },
    {
      "midi": 64,
      "hit": false,
      "t": 5689.651,
      "d": 253.23257291666687,
      "v": 82
    },
    {
      "midi": 57,
      "hit": false,
      "t": 5948.2715,
      "d": 253.23257291666687,
      "v": 82
    },
    {
      "midi": 59,
      "hit": false,
      "t": 5948.2715,
      "d": 253.23257291666687,
      "v": 82
    },
    {
      "midi": 62,
      "hit": false,
      "t": 5948.2715,
      "d": 253.23257291666687,
      "v": 82
    },
    {
      "midi": 64,
      "hit": false,
      "t": 5948.2715,
      "d": 253.23257291666687,
      "v": 82
    },
    {
      "midi": 71,
      "hit": false,
      "t": 6077.581749999999,
      "d": 123.92232291666642,
      "v": 82
    },
    {
      "midi": 76,
      "hit": false,
      "t": 6206.891999999999,
      "d": 511.85307291666686,
      "v": 75
    },
    {
      "midi": 57,
      "hit": false,
      "t": 6206.892,
      "d": 253.23257291666687,
      "v": 76
    },
    {
      "midi": 60,
      "hit": false,
      "t": 6206.892,
      "d": 253.23257291666687,
      "v": 76
    },
    {
      "midi": 64,
      "hit": false,
      "t": 6206.892,
      "d": 253.23257291666687,
      "v": 76
    },
    {
      "midi": 57,
      "hit": false,
      "t": 6465.5125,
      "d": 253.23257291666687,
      "v": 76
    },
    {
      "midi": 60,
      "hit": false,
      "t": 6465.5125,
      "d": 253.23257291666687,
      "v": 76
    },
    {
      "midi": 64,
      "hit": false,
      "t": 6465.5125,
      "d": 253.23257291666687,
      "v": 76
    },
    {
      "midi": 76,
      "hit": false,
      "t": 6724.132999999999,
      "d": 382.5428229166664,
      "v": 75
    },
    {
      "midi": 57,
      "hit": false,
      "t": 6724.133,
      "d": 253.23257291666687,
      "v": 76
    },
    {
      "midi": 60,
      "hit": false,
      "t": 6724.133,
      "d": 253.23257291666687,
      "v": 76
    },
    {
      "midi": 64,
      "hit": false,
      "t": 6724.133,
      "d": 253.23257291666687,
      "v": 76
    },
    {
      "midi": 57,
      "hit": false,
      "t": 6982.7535,
      "d": 253.23257291666687,
      "v": 76
    },
    {
      "midi": 60,
      "hit": false,
      "t": 6982.7535,
      "d": 253.23257291666687,
      "v": 76
    },
    {
      "midi": 64,
      "hit": false,
      "t": 6982.7535,
      "d": 253.23257291666687,
      "v": 76
    },
    {
      "midi": 76,
      "hit": false,
      "t": 7112.063749999998,
      "d": 123.92232291666642,
      "v": 75
    },
    {
      "midi": 76,
      "hit": false,
      "t": 7241.373999999998,
      "d": 253.23257291666687,
      "v": 75
    },
    {
      "midi": 57,
      "hit": false,
      "t": 7241.374,
      "d": 253.23257291666687,
      "v": 76
    },
    {
      "midi": 60,
      "hit": false,
      "t": 7241.374,
      "d": 253.23257291666687,
      "v": 76
    },
    {
      "midi": 64,
      "hit": false,
      "t": 7241.374,
      "d": 253.23257291666687,
      "v": 76
    },
    {
      "midi": 77,
      "hit": false,
      "t": 7499.994499999998,
      "d": 123.92232291666642,
      "v": 75
    },
    {
      "midi": 57,
      "hit": false,
      "t": 7499.9945,
      "d": 253.23257291666687,
      "v": 76
    },
    {
      "midi": 60,
      "hit": false,
      "t": 7499.9945,
      "d": 253.23257291666687,
      "v": 76
    },
    {
      "midi": 64,
      "hit": false,
      "t": 7499.9945,
      "d": 253.23257291666687,
      "v": 76
    },
    {
      "midi": 76,
      "hit": false,
      "t": 7629.3047499999975,
      "d": 123.92232291666642,
      "v": 75
    },
    {
      "midi": 74,
      "hit": false,
      "t": 7758.614999999997,
      "d": 123.92232291666642,
      "v": 75
    },
    {
      "midi": 57,
      "hit": false,
      "t": 7758.615,
      "d": 253.23257291666687,
      "v": 76
    },
    {
      "midi": 60,
      "hit": false,
      "t": 7758.615,
      "d": 253.23257291666687,
      "v": 76
    },
    {
      "midi": 64,
      "hit": false,
      "t": 7758.615,
      "d": 253.23257291666687,
      "v": 76
    },
    {
      "midi": 72,
      "hit": false,
      "t": 7887.925249999997,
      "d": 123.92232291666642,
      "v": 75
    },
    {
      "midi": 71,
      "hit": false,
      "t": 8017.235499999996,
      "d": 123.92232291666642,
      "v": 75
    },
    {
      "midi": 57,
      "hit": false,
      "t": 8017.2355,
      "d": 253.23257291666687,
      "v": 76
    },
    {
      "midi": 60,
      "hit": false,
      "t": 8017.2355,
      "d": 253.23257291666687,
      "v": 76
    },
    {
      "midi": 64,
      "hit": false,
      "t": 8017.2355,
      "d": 253.23257291666687,
      "v": 76
    },
    {
      "midi": 69,
      "hit": false,
      "t": 8146.545749999996,
      "d": 123.92232291666733,
      "v": 75
    },
    {
      "midi": 69,
      "hit": false,
      "t": 8275.855999999996,
      "d": 253.23257291666596,
      "v": 75
    },
    {
      "midi": 57,
      "hit": false,
      "t": 8275.856,
      "d": 253.23257291666596,
      "v": 76
    },
    {
      "midi": 59,
      "hit": false,
      "t": 8275.856,
      "d": 253.23257291666596,
      "v": 76
    },
    {
      "midi": 62,
      "hit": false,
      "t": 8275.856,
      "d": 253.23257291666596,
      "v": 76
    },
    {
      "midi": 64,
      "hit": false,
      "t": 8275.856,
      "d": 253.23257291666596,
      "v": 76
    },
    {
      "midi": 68,
      "hit": false,
      "t": 8534.476499999995,
      "d": 253.23257291666596,
      "v": 75
    },
    {
      "midi": 57,
      "hit": false,
      "t": 8534.476499999999,
      "d": 253.23257291666596,
      "v": 76
    },
    {
      "midi": 59,
      "hit": false,
      "t": 8534.476499999999,
      "d": 253.23257291666596,
      "v": 76
    },
    {
      "midi": 62,
      "hit": false,
      "t": 8534.476499999999,
      "d": 253.23257291666596,
      "v": 76
    },
    {
      "midi": 64,
      "hit": false,
      "t": 8534.476499999999,
      "d": 253.23257291666596,
      "v": 76
    },
    {
      "midi": 68,
      "hit": false,
      "t": 8793.096999999994,
      "d": 1029.0940729166668,
      "v": 75
    },
    {
      "midi": 57,
      "hit": false,
      "t": 8793.096999999998,
      "d": 253.23257291666596,
      "v": 76
    },
    {
      "midi": 59,
      "hit": false,
      "t": 8793.096999999998,
      "d": 253.23257291666596,
      "v": 76
    },
    {
      "midi": 62,
      "hit": false,
      "t": 8793.096999999998,
      "d": 253.23257291666596,
      "v": 76
    },
    {
      "midi": 64,
      "hit": false,
      "t": 8793.096999999998,
      "d": 253.23257291666596,
      "v": 76
    },
    {
      "midi": 57,
      "hit": false,
      "t": 9051.717499999997,
      "d": 253.23257291666596,
      "v": 76
    },
    {
      "midi": 59,
      "hit": false,
      "t": 9051.717499999997,
      "d": 253.23257291666596,
      "v": 76
    },
    {
      "midi": 62,
      "hit": false,
      "t": 9051.717499999997,
      "d": 253.23257291666596,
      "v": 76
    },
    {
      "midi": 64,
      "hit": false,
      "t": 9051.717499999997,
      "d": 253.23257291666596,
      "v": 76
    },
    {
      "midi": 57,
      "hit": false,
      "t": 9310.337999999996,
      "d": 253.23257291666596,
      "v": 76
    },
    {
      "midi": 59,
      "hit": false,
      "t": 9310.337999999996,
      "d": 253.23257291666596,
      "v": 76
    },
    {
      "midi": 62,
      "hit": false,
      "t": 9310.337999999996,
      "d": 253.23257291666596,
      "v": 76
    },
    {
      "midi": 64,
      "hit": false,
      "t": 9310.337999999996,
      "d": 253.23257291666596,
      "v": 76
    },
    {
      "midi": 57,
      "hit": false,
      "t": 9568.958499999995,
      "d": 253.23257291666596,
      "v": 76
    },
    {
      "midi": 59,
      "hit": false,
      "t": 9568.958499999995,
      "d": 253.23257291666596,
      "v": 76
    },
    {
      "midi": 62,
      "hit": false,
      "t": 9568.958499999995,
      "d": 253.23257291666596,
      "v": 76
    },
    {
      "midi": 64,
      "hit": false,
      "t": 9568.958499999995,
      "d": 253.23257291666596,
      "v": 76
    },
    {
      "midi": 74,
      "hit": false,
      "t": 9827.578999999994,
      "d": 382.5428229166664,
      "v": 75
    },
    {
      "midi": 57,
      "hit": false,
      "t": 9827.578999999994,
      "d": 253.23257291666596,
      "v": 76
    },
    {
      "midi": 59,
      "hit": false,
      "t": 9827.578999999994,
      "d": 253.23257291666596,
      "v": 76
    },
    {
      "midi": 62,
      "hit": false,
      "t": 9827.578999999994,
      "d": 253.23257291666596,
      "v": 76
    },
    {
      "midi": 64,
      "hit": false,
      "t": 9827.578999999994,
      "d": 253.23257291666596,
      "v": 76
    },
    {
      "midi": 57,
      "hit": false,
      "t": 10086.199499999993,
      "d": 253.23257291666596,
      "v": 76
    },
    {
      "midi": 59,
      "hit": false,
      "t": 10086.199499999993,
      "d": 253.23257291666596,
      "v": 76
    },
    {
      "midi": 62,
      "hit": false,
      "t": 10086.199499999993,
      "d": 253.23257291666596,
      "v": 76
    },
    {
      "midi": 64,
      "hit": false,
      "t": 10086.199499999993,
      "d": 253.23257291666596,
      "v": 76
    },
    {
      "midi": 71,
      "hit": false,
      "t": 10215.509749999994,
      "d": 123.92232291666733,
      "v": 75
    },
    {
      "midi": 57,
      "hit": false,
      "t": 10344.819999999992,
      "d": 253.23257291666596,
      "v": 90
    },
    {
      "midi": 60,
      "hit": false,
      "t": 10344.819999999992,
      "d": 253.23257291666596,
      "v": 90
    },
    {
      "midi": 64,
      "hit": false,
      "t": 10344.819999999992,
      "d": 253.23257291666596,
      "v": 90
    },
    {
      "midi": 72,
      "hit": false,
      "t": 10344.819999999994,
      "d": 382.5428229166664,
      "v": 75
    },
    {
      "midi": 76,
      "hit": false,
      "t": 10344.819999999994,
      "d": 382.5428229166664,
      "v": 75
    },
    {
      "midi": 57,
      "hit": false,
      "t": 10603.440499999992,
      "d": 253.23257291666596,
      "v": 90
    },
    {
      "midi": 69,
      "hit": false,
      "t": 10732.750749999994,
      "d": 123.92232291666733,
      "v": 75
    },
    {
      "midi": 72,
      "hit": false,
      "t": 10732.750749999994,
      "d": 123.92232291666733,
      "v": 75
    },
    {
      "midi": 52,
      "hit": false,
      "t": 10862.06099999999,
      "d": 253.23257291666596,
      "v": 90
    },
    {
      "midi": 72,
      "hit": false,
      "t": 10862.060999999994,
      "d": 511.85307291666686,
      "v": 75
    },
    {
      "midi": 76,
      "hit": false,
      "t": 10862.060999999994,
      "d": 511.85307291666686,
      "v": 75
    },
    {
      "midi": 48,
      "hit": false,
      "t": 11120.68149999999,
      "d": 253.23257291666596,
      "v": 90
    },
    {
      "midi": 45,
      "hit": false,
      "t": 11379.301999999989,
      "d": 511.85307291666686,
      "v": 90
    },
    {
      "midi": 69,
      "hit": false,
      "t": 11637.922499999995,
      "d": 253.23257291666596,
      "v": 60
    },
    {
      "midi": 72,
      "hit": false,
      "t": 11637.922499999995,
      "d": 253.23257291666596,
      "v": 60
    },
    {
      "midi": 71,
      "hit": false,
      "t": 11896.542999999994,
      "d": 253.23257291666596,
      "v": 60
    },
    {
      "midi": 74,
      "hit": false,
      "t": 11896.542999999994,
      "d": 253.23257291666596,
      "v": 60
    },
    {
      "midi": 72,
      "hit": false,
      "t": 12155.163499999993,
      "d": 253.23257291666596,
      "v": 60
    },
    {
      "midi": 76,
      "hit": false,
      "t": 12155.163499999993,
      "d": 253.23257291666596,
      "v": 60
    },
    {
      "midi": 73,
      "hit": false,
      "t": 12413.783999999992,
      "d": 511.85307291666686,
      "v": 90
    },
    {
      "midi": 76,
      "hit": false,
      "t": 12413.783999999992,
      "d": 511.85307291666686,
      "v": 90
    },
    {
      "midi": 53,
      "hit": false,
      "t": 12931.024999999989,
      "d": 511.85307291666686,
      "v": 90
    },
    {
      "midi": 57,
      "hit": false,
      "t": 12931.024999999989,
      "d": 511.85307291666686,
      "v": 90
    },
    {
      "midi": 60,
      "hit": false,
      "t": 12931.024999999989,
      "d": 511.85307291666686,
      "v": 90
    },
    {
      "midi": 62,
      "hit": false,
      "t": 12931.024999999989,
      "d": 511.85307291666686,
      "v": 90
    },
    {
      "midi": 74,
      "hit": false,
      "t": 12931.024999999992,
      "d": 253.23257291666596,
      "v": 90
    },
    {
      "midi": 77,
      "hit": false,
      "t": 12931.024999999992,
      "d": 253.23257291666596,
      "v": 90
    },
    {
      "midi": 55,
      "hit": false,
      "t": 13448.265999999989,
      "d": 253.23257291666596,
      "v": 90
    },
    {
      "midi": 59,
      "hit": false,
      "t": 13448.265999999989,
      "d": 253.23257291666596,
      "v": 90
    },
    {
      "midi": 62,
      "hit": false,
      "t": 13448.265999999989,
      "d": 253.23257291666596,
      "v": 90
    },
    {
      "midi": 67,
      "hit": false,
      "t": 13706.886499999991,
      "d": 253.23257291666596,
      "v": 60
    },
    {
      "midi": 71,
      "hit": false,
      "t": 13706.886499999991,
      "d": 253.23257291666596,
      "v": 60
    },
    {
      "midi": 69,
      "hit": false,
      "t": 13965.50699999999,
      "d": 253.23257291666596,
      "v": 60
    },
    {
      "midi": 72,
      "hit": false,
      "t": 13965.50699999999,
      "d": 253.23257291666596,
      "v": 60
    },
    {
      "midi": 71,
      "hit": false,
      "t": 14224.12749999999,
      "d": 253.23257291666596,
      "v": 60
    },
    {
      "midi": 74,
      "hit": false,
      "t": 14224.12749999999,
      "d": 253.23257291666596,
      "v": 60
    },
    {
      "midi": 71,
      "hit": false,
      "t": 14482.747999999989,
      "d": 511.85307291666686,
      "v": 90
    },
    {
      "midi": 75,
      "hit": false,
      "t": 14482.747999999989,
      "d": 511.85307291666686,
      "v": 90
    },
    {
      "midi": 72,
      "hit": false,
      "t": 14999.988999999989,
      "d": 253.23257291666596,
      "v": 90
    },
    {
      "midi": 76,
      "hit": false,
      "t": 14999.988999999989,
      "d": 253.23257291666596,
      "v": 90
    },
    {
      "midi": 52,
      "hit": false,
      "t": 14999.988999999989,
      "d": 511.85307291666686,
      "v": 90
    },
    {
      "midi": 55,
      "hit": false,
      "t": 14999.988999999989,
      "d": 511.85307291666686,
      "v": 90
    },
    {
      "midi": 59,
      "hit": false,
      "t": 14999.988999999989,
      "d": 511.85307291666686,
      "v": 90
    },
    {
      "midi": 60,
      "hit": false,
      "t": 14999.988999999989,
      "d": 511.85307291666686,
      "v": 90
    },
    {
      "midi": 53,
      "hit": false,
      "t": 15517.229999999989,
      "d": 253.23257291666596,
      "v": 90
    },
    {
      "midi": 57,
      "hit": false,
      "t": 15517.229999999989,
      "d": 253.23257291666596,
      "v": 90
    },
    {
      "midi": 60,
      "hit": false,
      "t": 15517.229999999989,
      "d": 253.23257291666596,
      "v": 90
    },
    {
      "midi": 65,
      "hit": false,
      "t": 15775.850499999988,
      "d": 253.23257291666596,
      "v": 60
    },
    {
      "midi": 69,
      "hit": false,
      "t": 15775.850499999988,
      "d": 253.23257291666596,
      "v": 60
    },
    {
      "midi": 68,
      "hit": false,
      "t": 16034.470999999987,
      "d": 253.23257291666596,
      "v": 60
    },
    {
      "midi": 71,
      "hit": false,
      "t": 16034.470999999987,
      "d": 253.23257291666596,
      "v": 60
    },
    {
      "midi": 69,
      "hit": false,
      "t": 16293.091499999986,
      "d": 253.23257291666778,
      "v": 60
    },
    {
      "midi": 72,
      "hit": false,
      "t": 16293.091499999986,
      "d": 253.23257291666778,
      "v": 60
    },
    {
      "midi": 72,
      "hit": false,
      "t": 16551.71199999999,
      "d": 382.54282291666823,
      "v": 75
    },
    {
      "midi": 71,
      "hit": false,
      "t": 16939.64274999999,
      "d": 123.92232291666733,
      "v": 75
    },
    {
      "midi": 50,
      "hit": false,
      "t": 17068.952999999987,
      "d": 511.85307291666686,
      "v": 76
    },
    {
      "midi": 53,
      "hit": false,
      "t": 17068.952999999987,
      "d": 511.85307291666686,
      "v": 76
    },
    {
      "midi": 59,
      "hit": false,
      "t": 17068.952999999987,
      "d": 511.85307291666686,
      "v": 76
    },
    {
      "midi": 77,
      "hit": false,
      "t": 17068.952999999994,
      "d": 382.54282291666823,
      "v": 75
    },
    {
      "midi": 74,
      "hit": false,
      "t": 17456.883749999997,
      "d": 123.92232291666733,
      "v": 75
    },
    {
      "midi": 52,
      "hit": false,
      "t": 17586.19399999999,
      "d": 511.85307291666686,
      "v": 76
    },
    {
      "midi": 57,
      "hit": false,
      "t": 17586.19399999999,
      "d": 511.85307291666686,
      "v": 76
    },
    {
      "midi": 60,
      "hit": false,
      "t": 17586.19399999999,
      "d": 511.85307291666686,
      "v": 76
    },
    {
      "midi": 72,
      "hit": false,
      "t": 17586.194,
      "d": 382.54282291666823,
      "v": 75
    },
    {
      "midi": 76,
      "hit": false,
      "t": 17974.124750000003,
      "d": 123.92232291666733,
      "v": 75
    },
    {
      "midi": 52,
      "hit": false,
      "t": 18103.43499999999,
      "d": 511.85307291666686,
      "v": 76
    },
    {
      "midi": 56,
      "hit": false,
      "t": 18103.43499999999,
      "d": 511.85307291666686,
      "v": 76
    },
    {
      "midi": 64,
      "hit": false,
      "t": 18103.43499999999,
      "d": 511.85307291666686,
      "v": 76
    },
    {
      "midi": 74,
      "hit": false,
      "t": 18103.435000000005,
      "d": 382.54282291666823,
      "v": 75
    },
    {
      "midi": 71,
      "hit": false,
      "t": 18491.365750000008,
      "d": 123.92232291666733,
      "v": 75
    },
    {
      "midi": 57,
      "hit": false,
      "t": 18620.675999999992,
      "d": 253.23257291666596,
      "v": 90
    },
    {
      "midi": 60,
      "hit": false,
      "t": 18620.675999999992,
      "d": 253.23257291666596,
      "v": 90
    },
    {
      "midi": 64,
      "hit": false,
      "t": 18620.675999999992,
      "d": 253.23257291666596,
      "v": 90
    },
    {
      "midi": 75,
      "hit": false,
      "t": 18620.67600000001,
      "d": 59.26719791666619,
      "v": 90
    },
    {
      "midi": 57,
      "hit": false,
      "t": 18879.296499999993,
      "d": 253.23257291666596,
      "v": 90
    },
    {
      "midi": 60,
      "hit": false,
      "t": 18879.296499999993,
      "d": 253.23257291666596,
      "v": 90
    },
    {
      "midi": 64,
      "hit": false,
      "t": 18879.296499999993,
      "d": 253.23257291666596,
      "v": 90
    },
    {
      "midi": 57,
      "hit": false,
      "t": 19137.916999999994,
      "d": 253.23257291666596,
      "v": 90
    },
    {
      "midi": 60,
      "hit": false,
      "t": 19137.916999999994,
      "d": 253.23257291666596,
      "v": 90
    },
    {
      "midi": 64,
      "hit": false,
      "t": 19137.916999999994,
      "d": 253.23257291666596,
      "v": 90
    },
    {
      "midi": 76,
      "hit": false,
      "t": 19137.917000000012,
      "d": 59.26719791666619,
      "v": 90
    },
    {
      "midi": 57,
      "hit": false,
      "t": 19396.537499999995,
      "d": 253.23257291666596,
      "v": 90
    },
    {
      "midi": 60,
      "hit": false,
      "t": 19396.537499999995,
      "d": 253.23257291666596,
      "v": 90
    },
    {
      "midi": 64,
      "hit": false,
      "t": 19396.537499999995,
      "d": 253.23257291666596,
      "v": 90
    },
    {
      "midi": 76,
      "hit": false,
      "t": 19525.84775000001,
      "d": 123.92232291666733,
      "v": 90
    },
    {
      "midi": 57,
      "hit": false,
      "t": 19655.157999999996,
      "d": 253.23257291666596,
      "v": 90
    },
    {
      "midi": 60,
      "hit": false,
      "t": 19655.157999999996,
      "d": 253.23257291666596,
      "v": 90
    },
    {
      "midi": 64,
      "hit": false,
      "t": 19655.157999999996,
      "d": 253.23257291666596,
      "v": 90
    },
    {
      "midi": 76,
      "hit": false,
      "t": 19655.158000000014,
      "d": 253.23257291666596,
      "v": 90
    },
    {
      "midi": 57,
      "hit": false,
      "t": 19913.778499999997,
      "d": 253.23257291666596,
      "v": 90
    },
    {
      "midi": 60,
      "hit": false,
      "t": 19913.778499999997,
      "d": 253.23257291666596,
      "v": 90
    },
    {
      "midi": 64,
      "hit": false,
      "t": 19913.778499999997,
      "d": 253.23257291666596,
      "v": 90
    },
    {
      "midi": 77,
      "hit": false,
      "t": 19913.778500000015,
      "d": 123.92232291666733,
      "v": 90
    },
    {
      "midi": 76,
      "hit": false,
      "t": 20043.088750000017,
      "d": 123.92232291666733,
      "v": 90
    },
    {
      "midi": 57,
      "hit": false,
      "t": 20172.398999999998,
      "d": 253.23257291666596,
      "v": 90
    },
    {
      "midi": 60,
      "hit": false,
      "t": 20172.398999999998,
      "d": 253.23257291666596,
      "v": 90
    },
    {
      "midi": 64,
      "hit": false,
      "t": 20172.398999999998,
      "d": 253.23257291666596,
      "v": 90
    },
    {
      "midi": 74,
      "hit": false,
      "t": 20172.39900000002,
      "d": 123.92232291666733,
      "v": 90
    },
    {
      "midi": 72,
      "hit": false,
      "t": 20301.70925000002,
      "d": 123.92232291666733,
      "v": 90
    },
    {
      "midi": 57,
      "hit": false,
      "t": 20431.0195,
      "d": 253.23257291666596,
      "v": 90
    },
    {
      "midi": 60,
      "hit": false,
      "t": 20431.0195,
      "d": 253.23257291666596,
      "v": 90
    },
    {
      "midi": 64,
      "hit": false,
      "t": 20431.0195,
      "d": 253.23257291666596,
      "v": 90
    },
    {
      "midi": 71,
      "hit": false,
      "t": 20431.019500000024,
      "d": 123.92232291666733,
      "v": 90
    },
    {
      "midi": 69,
      "hit": false,
      "t": 20560.329750000026,
      "d": 123.92232291666733,
      "v": 90
    },
    {
      "midi": 57,
      "hit": false,
      "t": 20689.64,
      "d": 253.23257291666596,
      "v": 82
    },
    {
      "midi": 59,
      "hit": false,
      "t": 20689.64,
      "d": 253.23257291666596,
      "v": 82
    },
    {
      "midi": 62,
      "hit": false,
      "t": 20689.64,
      "d": 253.23257291666596,
      "v": 82
    },
    {
      "midi": 64,
      "hit": false,
      "t": 20689.64,
      "d": 253.23257291666596,
      "v": 82
    },
    {
      "midi": 69,
      "hit": false,
      "t": 20689.64000000003,
      "d": 253.23257291666596,
      "v": 82
    },
    {
      "midi": 57,
      "hit": false,
      "t": 20948.2605,
      "d": 253.23257291666596,
      "v": 82
    },
    {
      "midi": 59,
      "hit": false,
      "t": 20948.2605,
      "d": 253.23257291666596,
      "v": 82
    },
    {
      "midi": 62,
      "hit": false,
      "t": 20948.2605,
      "d": 253.23257291666596,
      "v": 82
    },
    {
      "midi": 64,
      "hit": false,
      "t": 20948.2605,
      "d": 253.23257291666596,
      "v": 82
    },
    {
      "midi": 68,
      "hit": false,
      "t": 20948.26050000003,
      "d": 253.23257291666596,
      "v": 82
    },
    {
      "midi": 57,
      "hit": false,
      "t": 21206.881,
      "d": 253.23257291666596,
      "v": 82
    },
    {
      "midi": 59,
      "hit": false,
      "t": 21206.881,
      "d": 253.23257291666596,
      "v": 82
    },
    {
      "midi": 62,
      "hit": false,
      "t": 21206.881,
      "d": 253.23257291666596,
      "v": 82
    },
    {
      "midi": 64,
      "hit": false,
      "t": 21206.881,
      "d": 253.23257291666596,
      "v": 82
    },
    {
      "midi": 68,
      "hit": false,
      "t": 21206.88100000003,
      "d": 511.85307291666686,
      "v": 82
    },
    {
      "midi": 57,
      "hit": false,
      "t": 21465.501500000002,
      "d": 253.23257291666596,
      "v": 82
    },
    {
      "midi": 59,
      "hit": false,
      "t": 21465.501500000002,
      "d": 253.23257291666596,
      "v": 82
    },
    {
      "midi": 62,
      "hit": false,
      "t": 21465.501500000002,
      "d": 253.23257291666596,
      "v": 82
    },
    {
      "midi": 64,
      "hit": false,
      "t": 21465.501500000002,
      "d": 253.23257291666596,
      "v": 82
    },
    {
      "midi": 57,
      "hit": false,
      "t": 21724.122000000003,
      "d": 253.23257291666596,
      "v": 82
    },
    {
      "midi": 59,
      "hit": false,
      "t": 21724.122000000003,
      "d": 253.23257291666596,
      "v": 82
    },
    {
      "midi": 62,
      "hit": false,
      "t": 21724.122000000003,
      "d": 253.23257291666596,
      "v": 82
    },
    {
      "midi": 64,
      "hit": false,
      "t": 21724.122000000003,
      "d": 253.23257291666596,
      "v": 82
    },
    {
      "midi": 68,
      "hit": false,
      "t": 21724.122000000032,
      "d": 382.54282291666823,
      "v": 82
    },
    {
      "midi": 57,
      "hit": false,
      "t": 21982.742500000004,
      "d": 253.23257291666596,
      "v": 82
    },
    {
      "midi": 59,
      "hit": false,
      "t": 21982.742500000004,
      "d": 253.23257291666596,
      "v": 82
    },
    {
      "midi": 62,
      "hit": false,
      "t": 21982.742500000004,
      "d": 253.23257291666596,
      "v": 82
    },
    {
      "midi": 64,
      "hit": false,
      "t": 21982.742500000004,
      "d": 253.23257291666596,
      "v": 82
    },
    {
      "midi": 68,
      "hit": false,
      "t": 22112.052750000035,
      "d": 123.92232291666733,
      "v": 82
    },
    {
      "midi": 57,
      "hit": false,
      "t": 22241.363000000005,
      "d": 253.23257291666596,
      "v": 82
    },
    {
      "midi": 59,
      "hit": false,
      "t": 22241.363000000005,
      "d": 253.23257291666596,
      "v": 82
    },
    {
      "midi": 62,
      "hit": false,
      "t": 22241.363000000005,
      "d": 253.23257291666596,
      "v": 82
    },
    {
      "midi": 64,
      "hit": false,
      "t": 22241.363000000005,
      "d": 253.23257291666596,
      "v": 82
    },
    {
      "midi": 74,
      "hit": false,
      "t": 22241.363000000038,
      "d": 382.54282291666823,
      "v": 82
    },
    {
      "midi": 57,
      "hit": false,
      "t": 22499.983500000006,
      "d": 253.23257291666596,
      "v": 82
    },
    {
      "midi": 59,
      "hit": false,
      "t": 22499.983500000006,
      "d": 253.23257291666596,
      "v": 82
    },
    {
      "midi": 62,
      "hit": false,
      "t": 22499.983500000006,
      "d": 253.23257291666596,
      "v": 82
    },
    {
      "midi": 64,
      "hit": false,
      "t": 22499.983500000006,
      "d": 253.23257291666596,
      "v": 82
    },
    {
      "midi": 71,
      "hit": false,
      "t": 22629.29375000004,
      "d": 123.92232291666733,
      "v": 82
    },
    {
      "midi": 57,
      "hit": false,
      "t": 22758.604000000007,
      "d": 253.23257291666596,
      "v": 76
    },
    {
      "midi": 60,
      "hit": false,
      "t": 22758.604000000007,
      "d": 253.23257291666596,
      "v": 76
    },
    {
      "midi": 64,
      "hit": false,
      "t": 22758.604000000007,
      "d": 253.23257291666596,
      "v": 76
    },
    {
      "midi": 76,
      "hit": false,
      "t": 22758.604000000043,
      "d": 511.85307291666686,
      "v": 75
    },
    {
      "midi": 57,
      "hit": false,
      "t": 23017.224500000008,
      "d": 253.23257291666596,
      "v": 76
    },
    {
      "midi": 60,
      "hit": false,
      "t": 23017.224500000008,
      "d": 253.23257291666596,
      "v": 76
    },
    {
      "midi": 64,
      "hit": false,
      "t": 23017.224500000008,
      "d": 253.23257291666596,
      "v": 76
    },
    {
      "midi": 57,
      "hit": false,
      "t": 23275.84500000001,
      "d": 253.23257291666596,
      "v": 76
    },
    {
      "midi": 60,
      "hit": false,
      "t": 23275.84500000001,
      "d": 253.23257291666596,
      "v": 76
    },
    {
      "midi": 64,
      "hit": false,
      "t": 23275.84500000001,
      "d": 253.23257291666596,
      "v": 76
    },
    {
      "midi": 76,
      "hit": false,
      "t": 23275.845000000045,
      "d": 382.54282291666823,
      "v": 75
    },
    {
      "midi": 57,
      "hit": false,
      "t": 23534.46550000001,
      "d": 253.23257291666596,
      "v": 76
    },
    {
      "midi": 60,
      "hit": false,
      "t": 23534.46550000001,
      "d": 253.23257291666596,
      "v": 76
    },
    {
      "midi": 64,
      "hit": false,
      "t": 23534.46550000001,
      "d": 253.23257291666596,
      "v": 76
    },
    {
      "midi": 76,
      "hit": false,
      "t": 23663.775750000048,
      "d": 123.92232291666733,
      "v": 75
    },
    {
      "midi": 57,
      "hit": false,
      "t": 23793.08600000001,
      "d": 253.23257291666596,
      "v": 76
    },
    {
      "midi": 60,
      "hit": false,
      "t": 23793.08600000001,
      "d": 253.23257291666596,
      "v": 76
    },
    {
      "midi": 64,
      "hit": false,
      "t": 23793.08600000001,
      "d": 253.23257291666596,
      "v": 76
    },
    {
      "midi": 75,
      "hit": false,
      "t": 23793.08600000005,
      "d": 123.92232291666733,
      "v": 75
    },
    {
      "midi": 76,
      "hit": false,
      "t": 23922.396250000053,
      "d": 123.92232291666733,
      "v": 75
    },
    {
      "midi": 57,
      "hit": false,
      "t": 24051.70650000001,
      "d": 253.23257291666596,
      "v": 76
    },
    {
      "midi": 60,
      "hit": false,
      "t": 24051.70650000001,
      "d": 253.23257291666596,
      "v": 76
    },
    {
      "midi": 64,
      "hit": false,
      "t": 24051.70650000001,
      "d": 253.23257291666596,
      "v": 76
    },
    {
      "midi": 77,
      "hit": false,
      "t": 24051.706500000055,
      "d": 123.92232291666733,
      "v": 75
    },
    {
      "midi": 76,
      "hit": false,
      "t": 24181.016750000057,
      "d": 123.92232291666733,
      "v": 75
    },
    {
      "midi": 57,
      "hit": false,
      "t": 24310.327000000012,
      "d": 253.23257291666596,
      "v": 76
    },
    {
      "midi": 60,
      "hit": false,
      "t": 24310.327000000012,
      "d": 253.23257291666596,
      "v": 76
    },
    {
      "midi": 64,
      "hit": false,
      "t": 24310.327000000012,
      "d": 253.23257291666596,
      "v": 76
    },
    {
      "midi": 74,
      "hit": false,
      "t": 24310.32700000006,
      "d": 123.92232291666733,
      "v": 75
    },
    {
      "midi": 72,
      "hit": false,
      "t": 24439.63725000006,
      "d": 123.92232291666733,
      "v": 75
    },
    {
      "midi": 57,
      "hit": false,
      "t": 24568.947500000013,
      "d": 253.23257291666596,
      "v": 76
    },
    {
      "midi": 60,
      "hit": false,
      "t": 24568.947500000013,
      "d": 253.23257291666596,
      "v": 76
    },
    {
      "midi": 64,
      "hit": false,
      "t": 24568.947500000013,
      "d": 253.23257291666596,
      "v": 76
    },
    {
      "midi": 71,
      "hit": false,
      "t": 24568.947500000064,
      "d": 123.92232291666733,
      "v": 75
    },
    {
      "midi": 69,
      "hit": false,
      "t": 24698.257750000066,
      "d": 123.92232291666733,
      "v": 75
    },
    {
      "midi": 55,
      "hit": false,
      "t": 24827.568000000014,
      "d": 253.23257291666596,
      "v": 76
    },
    {
      "midi": 58,
      "hit": false,
      "t": 24827.568000000014,
      "d": 253.23257291666596,
      "v": 76
    },
    {
      "midi": 60,
      "hit": false,
      "t": 24827.568000000014,
      "d": 253.23257291666596,
      "v": 76
    },
    {
      "midi": 64,
      "hit": false,
      "t": 24827.568000000014,
      "d": 253.23257291666596,
      "v": 76
    },
    {
      "midi": 72,
      "hit": false,
      "t": 24827.56800000007,
      "d": 253.23257291666596,
      "v": 75
    },
    {
      "midi": 55,
      "hit": false,
      "t": 25086.188500000015,
      "d": 253.23257291666596,
      "v": 76
    },
    {
      "midi": 58,
      "hit": false,
      "t": 25086.188500000015,
      "d": 253.23257291666596,
      "v": 76
    },
    {
      "midi": 60,
      "hit": false,
      "t": 25086.188500000015,
      "d": 253.23257291666596,
      "v": 76
    },
    {
      "midi": 64,
      "hit": false,
      "t": 25086.188500000015,
      "d": 253.23257291666596,
      "v": 76
    },
    {
      "midi": 70,
      "hit": false,
      "t": 25086.18850000007,
      "d": 253.23257291666596,
      "v": 75
    },
    {
      "midi": 55,
      "hit": false,
      "t": 25344.809000000016,
      "d": 253.23257291666596,
      "v": 76
    },
    {
      "midi": 58,
      "hit": false,
      "t": 25344.809000000016,
      "d": 253.23257291666596,
      "v": 76
    },
    {
      "midi": 60,
      "hit": false,
      "t": 25344.809000000016,
      "d": 253.23257291666596,
      "v": 76
    },
    {
      "midi": 64,
      "hit": false,
      "t": 25344.809000000016,
      "d": 253.23257291666596,
      "v": 76
    },
    {
      "midi": 70,
      "hit": false,
      "t": 25344.80900000007,
      "d": 511.85307291666686,
      "v": 75
    },
    {
      "midi": 55,
      "hit": false,
      "t": 25603.429500000017,
      "d": 253.23257291666596,
      "v": 76
    },
    {
      "midi": 58,
      "hit": false,
      "t": 25603.429500000017,
      "d": 253.23257291666596,
      "v": 76
    },
    {
      "midi": 60,
      "hit": false,
      "t": 25603.429500000017,
      "d": 253.23257291666596,
      "v": 76
    },
    {
      "midi": 64,
      "hit": false,
      "t": 25603.429500000017,
      "d": 253.23257291666596,
      "v": 76
    },
    {
      "midi": 55,
      "hit": false,
      "t": 25862.050000000017,
      "d": 253.23257291666596,
      "v": 76
    },
    {
      "midi": 58,
      "hit": false,
      "t": 25862.050000000017,
      "d": 253.23257291666596,
      "v": 76
    },
    {
      "midi": 60,
      "hit": false,
      "t": 25862.050000000017,
      "d": 253.23257291666596,
      "v": 76
    },
    {
      "midi": 64,
      "hit": false,
      "t": 25862.050000000017,
      "d": 253.23257291666596,
      "v": 76
    },
    {
      "midi": 70,
      "hit": false,
      "t": 25862.050000000072,
      "d": 382.54282291666823,
      "v": 75
    },
    {
      "midi": 55,
      "hit": false,
      "t": 26120.67050000002,
      "d": 253.23257291666596,
      "v": 76
    },
    {
      "midi": 58,
      "hit": false,
      "t": 26120.67050000002,
      "d": 253.23257291666596,
      "v": 76
    },
    {
      "midi": 60,
      "hit": false,
      "t": 26120.67050000002,
      "d": 253.23257291666596,
      "v": 76
    },
    {
      "midi": 64,
      "hit": false,
      "t": 26120.67050000002,
      "d": 253.23257291666596,
      "v": 76
    },
    {
      "midi": 76,
      "hit": false,
      "t": 26249.980750000075,
      "d": 123.92232291666733,
      "v": 75
    },
    {
      "midi": 55,
      "hit": false,
      "t": 26379.29100000002,
      "d": 253.23257291666596,
      "v": 76
    },
    {
      "midi": 58,
      "hit": false,
      "t": 26379.29100000002,
      "d": 253.23257291666596,
      "v": 76
    },
    {
      "midi": 60,
      "hit": false,
      "t": 26379.29100000002,
      "d": 253.23257291666596,
      "v": 76
    },
    {
      "midi": 64,
      "hit": false,
      "t": 26379.29100000002,
      "d": 253.23257291666596,
      "v": 76
    },
    {
      "midi": 79,
      "hit": false,
      "t": 26379.291000000077,
      "d": 382.54282291666823,
      "v": 79
    },
    {
      "midi": 55,
      "hit": false,
      "t": 26637.91150000002,
      "d": 253.23257291666596,
      "v": 76
    },
    {
      "midi": 58,
      "hit": false,
      "t": 26637.91150000002,
      "d": 253.23257291666596,
      "v": 76
    },
    {
      "midi": 60,
      "hit": false,
      "t": 26637.91150000002,
      "d": 253.23257291666596,
      "v": 76
    },
    {
      "midi": 64,
      "hit": false,
      "t": 26637.91150000002,
      "d": 253.23257291666596,
      "v": 76
    },
    {
      "midi": 82,
      "hit": false,
      "t": 26767.22175000008,
      "d": 123.92232291666733,
      "v": 82
    },
    {
      "midi": 53,
      "hit": false,
      "t": 26896.53200000002,
      "d": 253.23257291666596,
      "v": 76
    },
    {
      "midi": 60,
      "hit": false,
      "t": 26896.53200000002,
      "d": 253.23257291666596,
      "v": 76
    },
    {
      "midi": 65,
      "hit": false,
      "t": 26896.53200000002,
      "d": 253.23257291666596,
      "v": 76
    },
    {
      "midi": 82,
      "hit": false,
      "t": 26896.532000000083,
      "d": 253.23257291666596,
      "v": 82
    },
    {
      "midi": 53,
      "hit": false,
      "t": 27155.152500000022,
      "d": 253.23257291666596,
      "v": 76
    },
    {
      "midi": 60,
      "hit": false,
      "t": 27155.152500000022,
      "d": 253.23257291666596,
      "v": 76
    },
    {
      "midi": 65,
      "hit": false,
      "t": 27155.152500000022,
      "d": 253.23257291666596,
      "v": 76
    },
    {
      "midi": 81,
      "hit": false,
      "t": 27155.152500000084,
      "d": 253.23257291666596,
      "v": 79
    },
    {
      "midi": 53,
      "hit": false,
      "t": 27413.773000000023,
      "d": 253.23257291666596,
      "v": 76
    },
    {
      "midi": 57,
      "hit": false,
      "t": 27413.773000000023,
      "d": 253.23257291666596,
      "v": 76
    },
    {
      "midi": 62,
      "hit": false,
      "t": 27413.773000000023,
      "d": 253.23257291666596,
      "v": 76
    },
    {
      "midi": 77,
      "hit": false,
      "t": 27413.773000000085,
      "d": 253.23257291666596,
      "v": 75
    },
    {
      "midi": 53,
      "hit": false,
      "t": 27672.393500000024,
      "d": 253.23257291666596,
      "v": 76
    },
    {
      "midi": 57,
      "hit": false,
      "t": 27672.393500000024,
      "d": 253.23257291666596,
      "v": 76
    },
    {
      "midi": 62,
      "hit": false,
      "t": 27672.393500000024,
      "d": 253.23257291666596,
      "v": 76
    },
    {
      "midi": 74,
      "hit": false,
      "t": 27672.393500000086,
      "d": 253.23257291666596,
      "v": 75
    },
    {
      "midi": 52,
      "hit": false,
      "t": 27931.014000000025,
      "d": 253.23257291666596,
      "v": 76
    },
    {
      "midi": 55,
      "hit": false,
      "t": 27931.014000000025,
      "d": 253.23257291666596,
      "v": 76
    },
    {
      "midi": 57,
      "hit": false,
      "t": 27931.014000000025,
      "d": 253.23257291666596,
      "v": 76
    },
    {
      "midi": 74,
      "hit": false,
      "t": 27931.014000000087,
      "d": 253.23257291666596,
      "v": 75
    },
    {
      "midi": 52,
      "hit": false,
      "t": 28189.634500000026,
      "d": 253.23257291666596,
      "v": 76
    },
    {
      "midi": 55,
      "hit": false,
      "t": 28189.634500000026,
      "d": 253.23257291666596,
      "v": 76
    },
    {
      "midi": 57,
      "hit": false,
      "t": 28189.634500000026,
      "d": 253.23257291666596,
      "v": 76
    },
    {
      "midi": 73,
      "hit": false,
      "t": 28189.634500000087,
      "d": 253.23257291666596,
      "v": 75
    },
    {
      "midi": 52,
      "hit": false,
      "t": 28448.255000000026,
      "d": 253.23257291666596,
      "v": 76
    },
    {
      "midi": 57,
      "hit": false,
      "t": 28448.255000000026,
      "d": 253.23257291666596,
      "v": 76
    },
    {
      "midi": 60,
      "hit": false,
      "t": 28448.255000000026,
      "d": 253.23257291666596,
      "v": 76
    },
    {
      "midi": 76,
      "hit": false,
      "t": 28448.25500000009,
      "d": 253.23257291666596,
      "v": 75
    },
    {
      "midi": 52,
      "hit": false,
      "t": 28706.875500000027,
      "d": 253.23257291666596,
      "v": 76
    },
    {
      "midi": 57,
      "hit": false,
      "t": 28706.875500000027,
      "d": 253.23257291666596,
      "v": 76
    },
    {
      "midi": 60,
      "hit": false,
      "t": 28706.875500000027,
      "d": 253.23257291666596,
      "v": 76
    },
    {
      "midi": 79,
      "hit": false,
      "t": 28706.87550000009,
      "d": 253.23257291666596,
      "v": 75
    },
    {
      "midi": 50,
      "hit": false,
      "t": 28965.49600000003,
      "d": 511.85307291666686,
      "v": 76
    },
    {
      "midi": 57,
      "hit": false,
      "t": 28965.49600000003,
      "d": 511.85307291666686,
      "v": 76
    },
    {
      "midi": 62,
      "hit": false,
      "t": 28965.49600000003,
      "d": 511.85307291666686,
      "v": 76
    },
    {
      "midi": 79,
      "hit": false,
      "t": 28965.49600000009,
      "d": 253.23257291666596,
      "v": 75
    },
    {
      "midi": 78,
      "hit": false,
      "t": 29224.11650000009,
      "d": 253.23257291666596,
      "v": 75
    },
    {
      "midi": 47,
      "hit": false,
      "t": 29482.73700000003,
      "d": 511.85307291666686,
      "v": 76
    },
    {
      "midi": 50,
      "hit": false,
      "t": 29482.73700000003,
      "d": 511.85307291666686,
      "v": 76
    },
    {
      "midi": 55,
      "hit": false,
      "t": 29482.73700000003,
      "d": 511.85307291666686,
      "v": 76
    },
    {
      "midi": 77,
      "hit": false,
      "t": 29741.35750000009,
      "d": 253.23257291666596,
      "v": 75
    },
    {
      "midi": 48,
      "hit": false,
      "t": 29999.978000000032,
      "d": 511.85307291666686,
      "v": 76
    },
    {
      "midi": 55,
      "hit": false,
      "t": 29999.978000000032,
      "d": 511.85307291666686,
      "v": 76
    },
    {
      "midi": 75,
      "hit": false,
      "t": 30258.598500000087,
      "d": 253.23257291666596,
      "v": 75
    },
    {
      "midi": 57,
      "hit": false,
      "t": 30517.219000000034,
      "d": 511.85307291666686,
      "v": 76
    },
    {
      "midi": 60,
      "hit": false,
      "t": 30517.219000000034,
      "d": 511.85307291666686,
      "v": 76
    },
    {
      "midi": 76,
      "hit": false,
      "t": 30775.839500000086,
      "d": 253.23257291666596,
      "v": 75
    },
    {
      "midi": 53,
      "hit": false,
      "t": 31034.460000000036,
      "d": 253.23257291666596,
      "v": 57
    },
    {
      "midi": 76,
      "hit": false,
      "t": 31034.460000000086,
      "d": 253.23257291666596,
      "v": 60
    },
    {
      "midi": 57,
      "hit": false,
      "t": 31293.080500000036,
      "d": 253.23257291666596,
      "v": 57
    },
    {
      "midi": 74,
      "hit": false,
      "t": 31293.080500000087,
      "d": 253.23257291666596,
      "v": 60
    },
    {
      "midi": 53,
      "hit": false,
      "t": 31551.701000000037,
      "d": 253.23257291666596,
      "v": 57
    },
    {
      "midi": 74,
      "hit": false,
      "t": 31551.70100000009,
      "d": 770.4735729166678,
      "v": 60
    },
    {
      "midi": 57,
      "hit": false,
      "t": 31810.32150000004,
      "d": 253.23257291666596,
      "v": 57
    },
    {
      "midi": 53,
      "hit": false,
      "t": 32068.94200000004,
      "d": 253.23257291666596,
      "v": 57
    },
    {
      "midi": 57,
      "hit": false,
      "t": 32327.56250000004,
      "d": 253.23257291666596,
      "v": 57
    },
    {
      "midi": 76,
      "hit": false,
      "t": 32327.56250000009,
      "d": 123.92232291666733,
      "v": 60
    },
    {
      "midi": 74,
      "hit": false,
      "t": 32456.872750000093,
      "d": 123.92232291666733,
      "v": 60
    },
    {
      "midi": 54,
      "hit": false,
      "t": 32586.18300000004,
      "d": 253.2325729166696,
      "v": 57
    },
    {
      "midi": 74,
      "hit": false,
      "t": 32586.183000000095,
      "d": 123.92232291666733,
      "v": 60
    },
    {
      "midi": 72,
      "hit": false,
      "t": 32715.493250000098,
      "d": 123.92232291666369,
      "v": 60
    },
    {
      "midi": 57,
      "hit": false,
      "t": 32844.803500000045,
      "d": 253.2325729166696,
      "v": 57
    },
    {
      "midi": 71,
      "hit": false,
      "t": 32844.8035000001,
      "d": 123.92232291666733,
      "v": 60
    },
    {
      "midi": 72,
      "hit": false,
      "t": 32974.1137500001,
      "d": 123.92232291666733,
      "v": 60
    },
    {
      "midi": 55,
      "hit": false,
      "t": 33103.42400000005,
      "d": 123.92232291666733,
      "v": 90
    },
    {
      "midi": 71,
      "hit": false,
      "t": 33103.4240000001,
      "d": 511.85307291666686,
      "v": 60
    },
    {
      "midi": 62,
      "hit": false,
      "t": 33232.73425000005,
      "d": 123.92232291666733,
      "v": 90
    },
    {
      "midi": 59,
      "hit": false,
      "t": 33362.044500000055,
      "d": 123.92232291666733,
      "v": 90
    },
    {
      "midi": 62,
      "hit": false,
      "t": 33491.35475000006,
      "d": 123.92232291666733,
      "v": 90
    },
    {
      "midi": 55,
      "hit": false,
      "t": 33620.66500000006,
      "d": 123.92232291666733,
      "v": 90
    },
    {
      "midi": 79,
      "hit": false,
      "t": 33620.6650000001,
      "d": 382.5428229166646,
      "v": 90
    },
    {
      "midi": 62,
      "hit": false,
      "t": 33749.97525000006,
      "d": 123.92232291666733,
      "v": 90
    },
    {
      "midi": 59,
      "hit": false,
      "t": 33879.28550000006,
      "d": 123.92232291666733,
      "v": 90
    },
    {
      "midi": 62,
      "hit": false,
      "t": 34008.595750000066,
      "d": 123.92232291666733,
      "v": 90
    },
    {
      "midi": 79,
      "hit": false,
      "t": 34008.5957500001,
      "d": 123.92232291666733,
      "v": 90
    },
    {
      "midi": 55,
      "hit": false,
      "t": 34137.90600000007,
      "d": 123.92232291666733,
      "v": 90
    },
    {
      "midi": 79,
      "hit": false,
      "t": 34137.906000000105,
      "d": 511.85307291666686,
      "v": 90
    },
    {
      "midi": 63,
      "hit": false,
      "t": 34267.21625000007,
      "d": 123.92232291666733,
      "v": 90
    },
    {
      "midi": 60,
      "hit": false,
      "t": 34396.52650000007,
      "d": 123.92232291666733,
      "v": 90
    },
    {
      "midi": 63,
      "hit": false,
      "t": 34525.836750000075,
      "d": 123.92232291666733,
      "v": 90
    },
    {
      "midi": 55,
      "hit": false,
      "t": 34655.14700000008,
      "d": 123.92232291666733,
      "v": 90
    },
    {
      "midi": 79,
      "hit": false,
      "t": 34655.147000000106,
      "d": 511.85307291666686,
      "v": 90
    },
    {
      "midi": 65,
      "hit": false,
      "t": 34784.45725000008,
      "d": 123.92232291666733,
      "v": 90
    },
    {
      "midi": 62,
      "hit": false,
      "t": 34913.76750000008,
      "d": 123.92232291666733,
      "v": 90
    },
    {
      "midi": 65,
      "hit": false,
      "t": 35043.077750000084,
      "d": 123.92232291666733,
      "v": 90
    },
    {
      "midi": 55,
      "hit": false,
      "t": 35172.388000000086,
      "d": 123.92232291666733,
      "v": 76
    },
    {
      "midi": 84,
      "hit": false,
      "t": 35172.38800000011,
      "d": 770.4735729166641,
      "v": 75
    },
    {
      "midi": 72,
      "hit": false,
      "t": 35172.38800000011,
      "d": 2063.5760729166723,
      "v": 75
    },
    {
      "midi": 63,
      "hit": false,
      "t": 35301.69825000009,
      "d": 123.92232291666733,
      "v": 76
    },
    {
      "midi": 60,
      "hit": false,
      "t": 35431.00850000009,
      "d": 123.92232291666733,
      "v": 76
    },
    {
      "midi": 63,
      "hit": false,
      "t": 35560.31875000009,
      "d": 123.92232291666733,
      "v": 76
    },
    {
      "midi": 55,
      "hit": false,
      "t": 35689.629000000095,
      "d": 123.92232291666733,
      "v": 76
    },
    {
      "midi": 63,
      "hit": false,
      "t": 35818.9392500001,
      "d": 123.92232291666733,
      "v": 76
    },
    {
      "midi": 60,
      "hit": false,
      "t": 35948.2495000001,
      "d": 123.92232291666733,
      "v": 76
    },
    {
      "midi": 82,
      "hit": false,
      "t": 35948.24950000011,
      "d": 123.92232291666733,
      "v": 75
    },
    {
      "midi": 63,
      "hit": false,
      "t": 36077.5597500001,
      "d": 123.92232291666733,
      "v": 76
    },
    {
      "midi": 80,
      "hit": false,
      "t": 36077.55975000011,
      "d": 123.92232291666733,
      "v": 75
    },
    {
      "midi": 55,
      "hit": false,
      "t": 36206.870000000104,
      "d": 123.92232291666733,
      "v": 76
    },
    {
      "midi": 79,
      "hit": false,
      "t": 36206.87000000011,
      "d": 511.85307291666686,
      "v": 75
    },
    {
      "midi": 63,
      "hit": false,
      "t": 36336.18025000011,
      "d": 123.92232291666733,
      "v": 76
    },
    {
      "midi": 60,
      "hit": false,
      "t": 36465.49050000011,
      "d": 123.92232291666733,
      "v": 76
    },
    {
      "midi": 63,
      "hit": false,
      "t": 36594.80075000011,
      "d": 123.92232291666733,
      "v": 76
    },
    {
      "midi": 78,
      "hit": false,
      "t": 36724.11100000011,
      "d": 511.85307291666686,
      "v": 75
    },
    {
      "midi": 55,
      "hit": false,
      "t": 36724.11100000011,
      "d": 123.92232291666733,
      "v": 76
    },
    {
      "midi": 63,
      "hit": false,
      "t": 36853.421250000116,
      "d": 123.92232291666733,
      "v": 76
    },
    {
      "midi": 60,
      "hit": false,
      "t": 36982.73150000012,
      "d": 123.92232291666733,
      "v": 76
    },
    {
      "midi": 63,
      "hit": false,
      "t": 37112.04175000012,
      "d": 123.92232291666733,
      "v": 76
    },
    {
      "midi": 71,
      "hit": false,
      "t": 37241.352000000115,
      "d": 511.85307291666686,
      "v": 75
    },
    {
      "midi": 79,
      "hit": false,
      "t": 37241.352000000115,
      "d": 511.85307291666686,
      "v": 75
    },
    {
      "midi": 55,
      "hit": false,
      "t": 37241.35200000012,
      "d": 123.92232291666733,
      "v": 76
    },
    {
      "midi": 62,
      "hit": false,
      "t": 37370.662250000125,
      "d": 123.92232291666733,
      "v": 76
    },
    {
      "midi": 59,
      "hit": false,
      "t": 37499.97250000013,
      "d": 123.92232291666733,
      "v": 76
    },
    {
      "midi": 62,
      "hit": false,
      "t": 37629.28275000013,
      "d": 123.92232291666733,
      "v": 76
    },
    {
      "midi": 79,
      "hit": false,
      "t": 37758.59300000012,
      "d": 382.5428229166646,
      "v": 60
    },
    {
      "midi": 55,
      "hit": false,
      "t": 37758.59300000013,
      "d": 123.92232291666733,
      "v": 76
    },
    {
      "midi": 62,
      "hit": false,
      "t": 37887.903250000134,
      "d": 123.92232291666733,
      "v": 76
    },
    {
      "midi": 59,
      "hit": false,
      "t": 38017.213500000136,
      "d": 123.92232291666733,
      "v": 76
    },
    {
      "midi": 79,
      "hit": false,
      "t": 38146.52375000012,
      "d": 123.92232291666733,
      "v": 60
    },
    {
      "midi": 62,
      "hit": false,
      "t": 38146.52375000014,
      "d": 123.92232291666733,
      "v": 76
    },
    {
      "midi": 79,
      "hit": false,
      "t": 38275.83400000012,
      "d": 511.85307291666686,
      "v": 60
    },
    {
      "midi": 55,
      "hit": false,
      "t": 38275.83400000014,
      "d": 123.92232291666733,
      "v": 76
    },
    {
      "midi": 63,
      "hit": false,
      "t": 38405.14425000014,
      "d": 123.92232291666733,
      "v": 76
    },
    {
      "midi": 60,
      "hit": false,
      "t": 38534.454500000145,
      "d": 123.92232291666733,
      "v": 76
    },
    {
      "midi": 63,
      "hit": false,
      "t": 38663.76475000015,
      "d": 123.92232291666733,
      "v": 76
    },
    {
      "midi": 79,
      "hit": false,
      "t": 38793.07500000012,
      "d": 511.85307291666686,
      "v": 60
    },
    {
      "midi": 55,
      "hit": false,
      "t": 38793.07500000015,
      "d": 123.92232291666733,
      "v": 76
    },
    {
      "midi": 65,
      "hit": false,
      "t": 38922.38525000015,
      "d": 123.92232291666733,
      "v": 76
    },
    {
      "midi": 62,
      "hit": false,
      "t": 39051.695500000154,
      "d": 123.92232291666733,
      "v": 76
    },
    {
      "midi": 65,
      "hit": false,
      "t": 39181.00575000016,
      "d": 123.92232291666733,
      "v": 76
    },
    {
      "midi": 84,
      "hit": false,
      "t": 39310.31600000012,
      "d": 770.4735729166641,
      "v": 75
    },
    {
      "midi": 55,
      "hit": false,
      "t": 39310.31600000016,
      "d": 123.92232291666733,
      "v": 76
    },
    {
      "midi": 63,
      "hit": false,
      "t": 39439.62625000016,
      "d": 123.92232291666733,
      "v": 76
    },
    {
      "midi": 60,
      "hit": false,
      "t": 39568.93650000016,
      "d": 123.92232291666733,
      "v": 76
    },
    {
      "midi": 63,
      "hit": false,
      "t": 39698.246750000166,
      "d": 123.92232291666733,
      "v": 76
    },
    {
      "midi": 55,
      "hit": false,
      "t": 39827.55700000017,
      "d": 123.92232291666733,
      "v": 76
    },
    {
      "midi": 63,
      "hit": false,
      "t": 39956.86725000017,
      "d": 123.92232291666733,
      "v": 76
    },
    {
      "midi": 82,
      "hit": false,
      "t": 40086.17750000012,
      "d": 123.92232291666733,
      "v": 75
    },
    {
      "midi": 60,
      "hit": false,
      "t": 40086.17750000017,
      "d": 123.92232291666733,
      "v": 76
    },
    {
      "midi": 80,
      "hit": false,
      "t": 40215.487750000124,
      "d": 123.92232291666733,
      "v": 75
    },
    {
      "midi": 63,
      "hit": false,
      "t": 40215.487750000175,
      "d": 123.92232291666733,
      "v": 76
    },
    {
      "midi": 79,
      "hit": false,
      "t": 40344.798000000126,
      "d": 511.85307291666686,
      "v": 75
    },
    {
      "midi": 55,
      "hit": false,
      "t": 40344.79800000018,
      "d": 123.92232291666733,
      "v": 76
    },
    {
      "midi": 63,
      "hit": false,
      "t": 40474.10825000018,
      "d": 123.92232291666733,
      "v": 76
    },
    {
      "midi": 60,
      "hit": false,
      "t": 40603.41850000018,
      "d": 123.92232291666733,
      "v": 76
    },
    {
      "midi": 63,
      "hit": false,
      "t": 40732.728750000184,
      "d": 123.92232291666733,
      "v": 76
    },
    {
      "midi": 78,
      "hit": false,
      "t": 40862.03900000013,
      "d": 511.85307291666686,
      "v": 75
    },
    {
      "midi": 55,
      "hit": false,
      "t": 40862.039000000186,
      "d": 123.92232291666733,
      "v": 76
    },
    {
      "midi": 63,
      "hit": false,
      "t": 40991.34925000019,
      "d": 123.92232291666733,
      "v": 76
    },
    {
      "midi": 60,
      "hit": false,
      "t": 41120.65950000019,
      "d": 123.92232291666733,
      "v": 76
    },
    {
      "midi": 63,
      "hit": false,
      "t": 41249.96975000019,
      "d": 123.92232291666733,
      "v": 76
    },
    {
      "midi": 79,
      "hit": false,
      "t": 41379.28000000013,
      "d": 123.92232291666733,
      "v": 82
    },
    {
      "midi": 55,
      "hit": false,
      "t": 41379.280000000195,
      "d": 511.85307291666686,
      "v": 90
    },
    {
      "midi": 59,
      "hit": false,
      "t": 41379.280000000195,
      "d": 511.85307291666686,
      "v": 90
    },
    {
      "midi": 62,
      "hit": false,
      "t": 41379.280000000195,
      "d": 511.85307291666686,
      "v": 90
    },
    {
      "midi": 74,
      "hit": false,
      "t": 41508.59025000013,
      "d": 123.92232291666733,
      "v": 82
    },
    {
      "midi": 71,
      "hit": false,
      "t": 41637.900500000134,
      "d": 123.92232291666733,
      "v": 82
    },
    {
      "midi": 74,
      "hit": false,
      "t": 41767.21075000014,
      "d": 123.92232291666733,
      "v": 82
    },
    {
      "midi": 79,
      "hit": false,
      "t": 41896.52100000014,
      "d": 123.92232291666733,
      "v": 82
    },
    {
      "midi": 75,
      "hit": false,
      "t": 42025.83125000014,
      "d": 123.92232291666733,
      "v": 82
    },
    {
      "midi": 72,
      "hit": false,
      "t": 42155.14150000014,
      "d": 123.92232291666733,
      "v": 82
    },
    {
      "midi": 48,
      "hit": false,
      "t": 42155.141500000194,
      "d": 253.2325729166696,
      "v": 90
    },
    {
      "midi": 60,
      "hit": false,
      "t": 42155.141500000194,
      "d": 253.2325729166696,
      "v": 90
    },
    {
      "midi": 75,
      "hit": false,
      "t": 42284.451750000146,
      "d": 123.92232291666733,
      "v": 82
    },
    {
      "midi": 79,
      "hit": false,
      "t": 42413.76200000015,
      "d": 123.92232291666733,
      "v": 82
    },
    {
      "midi": 43,
      "hit": false,
      "t": 42413.7620000002,
      "d": 511.85307291666686,
      "v": 90
    },
    {
      "midi": 55,
      "hit": false,
      "t": 42413.7620000002,
      "d": 511.85307291666686,
      "v": 90
    },
    {
      "midi": 74,
      "hit": false,
      "t": 42543.07225000015,
      "d": 123.92232291666733,
      "v": 82
    },
    {
      "midi": 71,
      "hit": false,
      "t": 42672.38250000015,
      "d": 123.92232291666733,
      "v": 82
    },
    {
      "midi": 74,
      "hit": false,
      "t": 42801.692750000155,
      "d": 123.92232291666733,
      "v": 82
    },
    {
      "midi": 79,
      "hit": false,
      "t": 42931.00300000016,
      "d": 123.92232291666733,
      "v": 82
    },
    {
      "midi": 75,
      "hit": false,
      "t": 43060.31325000016,
      "d": 123.92232291666733,
      "v": 82
    },
    {
      "midi": 72,
      "hit": false,
      "t": 43189.62350000016,
      "d": 123.92232291666733,
      "v": 82
    },
    {
      "midi": 48,
      "hit": false,
      "t": 43189.6235000002,
      "d": 253.2325729166696,
      "v": 90
    },
    {
      "midi": 60,
      "hit": false,
      "t": 43189.6235000002,
      "d": 253.2325729166696,
      "v": 90
    },
    {
      "midi": 75,
      "hit": false,
      "t": 43318.933750000164,
      "d": 123.92232291666733,
      "v": 82
    },
    {
      "midi": 79,
      "hit": false,
      "t": 43448.244000000166,
      "d": 123.92232291666733,
      "v": 82
    },
    {
      "midi": 43,
      "hit": false,
      "t": 43448.2440000002,
      "d": 511.85307291666686,
      "v": 90
    },
    {
      "midi": 55,
      "hit": false,
      "t": 43448.2440000002,
      "d": 511.85307291666686,
      "v": 90
    },
    {
      "midi": 74,
      "hit": false,
      "t": 43577.55425000017,
      "d": 123.92232291666733,
      "v": 82
    },
    {
      "midi": 71,
      "hit": false,
      "t": 43706.86450000017,
      "d": 123.92232291666733,
      "v": 82
    },
    {
      "midi": 74,
      "hit": false,
      "t": 43836.17475000017,
      "d": 123.92232291666733,
      "v": 82
    },
    {
      "midi": 79,
      "hit": false,
      "t": 43965.485000000175,
      "d": 123.92232291666733,
      "v": 82
    },
    {
      "midi": 76,
      "hit": false,
      "t": 44094.79525000018,
      "d": 123.92232291666733,
      "v": 82
    },
    {
      "midi": 72,
      "hit": false,
      "t": 44224.10550000018,
      "d": 123.92232291666733,
      "v": 82
    },
    {
      "midi": 48,
      "hit": false,
      "t": 44224.1055000002,
      "d": 253.2325729166696,
      "v": 90
    },
    {
      "midi": 60,
      "hit": false,
      "t": 44224.1055000002,
      "d": 253.2325729166696,
      "v": 90
    },
    {
      "midi": 76,
      "hit": false,
      "t": 44353.41575000018,
      "d": 123.92232291666733,
      "v": 82
    },
    {
      "midi": 74,
      "hit": false,
      "t": 44482.726000000184,
      "d": 123.92232291666733,
      "v": 82
    },
    {
      "midi": 71,
      "hit": false,
      "t": 44482.726000000184,
      "d": 253.2325729166696,
      "v": 82
    },
    {
      "midi": 43,
      "hit": false,
      "t": 44482.726000000206,
      "d": 253.2325729166696,
      "v": 90
    },
    {
      "midi": 55,
      "hit": false,
      "t": 44482.726000000206,
      "d": 253.2325729166696,
      "v": 90
    },
    {
      "midi": 79,
      "hit": false,
      "t": 44612.03625000019,
      "d": 123.92232291666733,
      "v": 82
    },
    {
      "midi": 76,
      "hit": false,
      "t": 44741.34650000019,
      "d": 123.92232291666733,
      "v": 82
    },
    {
      "midi": 72,
      "hit": false,
      "t": 44741.34650000019,
      "d": 253.2325729166696,
      "v": 82
    },
    {
      "midi": 48,
      "hit": false,
      "t": 44741.34650000021,
      "d": 253.2325729166696,
      "v": 90
    },
    {
      "midi": 60,
      "hit": false,
      "t": 44741.34650000021,
      "d": 253.2325729166696,
      "v": 90
    },
    {
      "midi": 79,
      "hit": false,
      "t": 44870.65675000019,
      "d": 123.92232291666733,
      "v": 82
    },
    {
      "midi": 74,
      "hit": false,
      "t": 44999.96700000019,
      "d": 123.92232291666733,
      "v": 82
    },
    {
      "midi": 71,
      "hit": false,
      "t": 44999.96700000019,
      "d": 253.2325729166696,
      "v": 82
    },
    {
      "midi": 43,
      "hit": false,
      "t": 44999.967000000215,
      "d": 253.2325729166696,
      "v": 90
    },
    {
      "midi": 55,
      "hit": false,
      "t": 44999.967000000215,
      "d": 253.2325729166696,
      "v": 90
    },
    {
      "midi": 79,
      "hit": false,
      "t": 45129.277250000196,
      "d": 123.92232291666733,
      "v": 82
    },
    {
      "midi": 76,
      "hit": false,
      "t": 45258.5875000002,
      "d": 123.92232291666733,
      "v": 82
    },
    {
      "midi": 72,
      "hit": false,
      "t": 45258.5875000002,
      "d": 253.2325729166696,
      "v": 82
    },
    {
      "midi": 48,
      "hit": false,
      "t": 45258.58750000022,
      "d": 253.2325729166696,
      "v": 90
    },
    {
      "midi": 60,
      "hit": false,
      "t": 45258.58750000022,
      "d": 253.2325729166696,
      "v": 90
    },
    {
      "midi": 79,
      "hit": false,
      "t": 45387.8977500002,
      "d": 123.92232291666733,
      "v": 82
    },
    {
      "midi": 71,
      "hit": false,
      "t": 45517.2080000002,
      "d": 511.85307291666686,
      "v": 82
    },
    {
      "midi": 74,
      "hit": false,
      "t": 45517.2080000002,
      "d": 511.85307291666686,
      "v": 82
    },
    {
      "midi": 43,
      "hit": false,
      "t": 45517.208000000224,
      "d": 511.85307291666686,
      "v": 90
    },
    {
      "midi": 55,
      "hit": false,
      "t": 45517.208000000224,
      "d": 511.85307291666686,
      "v": 90
    },
    {
      "midi": 67,
      "hit": false,
      "t": 46034.449000000204,
      "d": 511.85307291666686,
      "v": 82
    },
    {
      "midi": 71,
      "hit": false,
      "t": 46034.449000000204,
      "d": 511.85307291666686,
      "v": 82
    },
    {
      "midi": 74,
      "hit": false,
      "t": 46034.449000000204,
      "d": 511.85307291666686,
      "v": 82
    },
    {
      "midi": 79,
      "hit": false,
      "t": 46034.449000000204,
      "d": 511.85307291666686,
      "v": 82
    },
    {
      "midi": 31,
      "hit": false,
      "t": 46034.449000000226,
      "d": 511.85307291666686,
      "v": 90
    },
    {
      "midi": 43,
      "hit": false,
      "t": 46034.449000000226,
      "d": 511.85307291666686,
      "v": 90
    },
    {
      "midi": 31,
      "hit": false,
      "t": 46551.69000000023,
      "d": 511.85307291666686,
      "v": 90
    },
    {
      "midi": 43,
      "hit": false,
      "t": 46551.69000000023,
      "d": 511.85307291666686,
      "v": 90
    },
    {
      "midi": 79,
      "hit": false,
      "t": 46810.3105000002,
      "d": 253.2325729166696,
      "v": 60
    },
    {
      "midi": 81,
      "hit": false,
      "t": 47068.93100000021,
      "d": 253.2325729166696,
      "v": 60
    },
    {
      "midi": 83,
      "hit": false,
      "t": 47327.55150000021,
      "d": 253.2325729166696,
      "v": 60
    },
    {
      "midi": 84,
      "hit": false,
      "t": 47586.17200000022,
      "d": 123.92232291666733,
      "v": 75
    },
    {
      "midi": 64,
      "hit": false,
      "t": 47586.17200000022,
      "d": 253.2325729166696,
      "v": 75
    },
    {
      "midi": 67,
      "hit": false,
      "t": 47586.17200000022,
      "d": 253.2325729166696,
      "v": 75
    },
    {
      "midi": 86,
      "hit": false,
      "t": 47715.48225000022,
      "d": 123.92232291666733,
      "v": 75
    },
    {
      "midi": 83,
      "hit": false,
      "t": 47844.79250000022,
      "d": 123.92232291666733,
      "v": 75
    },
    {
      "midi": 64,
      "hit": false,
      "t": 47844.79250000022,
      "d": 253.2325729166696,
      "v": 75
    },
    {
      "midi": 67,
      "hit": false,
      "t": 47844.79250000022,
      "d": 253.2325729166696,
      "v": 75
    },
    {
      "midi": 86,
      "hit": false,
      "t": 47974.102750000224,
      "d": 123.92232291666733,
      "v": 75
    },
    {
      "midi": 84,
      "hit": false,
      "t": 48103.413000000226,
      "d": 123.92232291666733,
      "v": 75
    },
    {
      "midi": 64,
      "hit": false,
      "t": 48103.413000000226,
      "d": 253.2325729166696,
      "v": 75
    },
    {
      "midi": 67,
      "hit": false,
      "t": 48103.413000000226,
      "d": 253.2325729166696,
      "v": 75
    },
    {
      "midi": 86,
      "hit": false,
      "t": 48232.72325000023,
      "d": 123.92232291666733,
      "v": 75
    },
    {
      "midi": 83,
      "hit": false,
      "t": 48362.03350000023,
      "d": 123.92232291666733,
      "v": 75
    },
    {
      "midi": 64,
      "hit": false,
      "t": 48362.03350000023,
      "d": 253.2325729166696,
      "v": 75
    },
    {
      "midi": 67,
      "hit": false,
      "t": 48362.03350000023,
      "d": 253.2325729166696,
      "v": 75
    },
    {
      "midi": 86,
      "hit": false,
      "t": 48491.34375000023,
      "d": 123.92232291666733,
      "v": 75
    },
    {
      "midi": 84,
      "hit": false,
      "t": 48620.654000000235,
      "d": 123.92232291666733,
      "v": 75
    },
    {
      "midi": 64,
      "hit": false,
      "t": 48620.654000000235,
      "d": 511.85307291667414,
      "v": 75
    },
    {
      "midi": 67,
      "hit": false,
      "t": 48620.654000000235,
      "d": 511.85307291667414,
      "v": 75
    },
    {
      "midi": 86,
      "hit": false,
      "t": 48749.96425000024,
      "d": 123.92232291666733,
      "v": 75
    },
    {
      "midi": 83,
      "hit": false,
      "t": 48879.27450000024,
      "d": 123.92232291666733,
      "v": 75
    },
    {
      "midi": 84,
      "hit": false,
      "t": 49008.58475000024,
      "d": 123.92232291666733,
      "v": 75
    },
    {
      "midi": 81,
      "hit": false,
      "t": 49137.895000000244,
      "d": 123.92232291666733,
      "v": 75
    },
    {
      "midi": 83,
      "hit": false,
      "t": 49267.20525000025,
      "d": 123.92232291666733,
      "v": 75
    },
    {
      "midi": 79,
      "hit": false,
      "t": 49396.51550000025,
      "d": 123.92232291666733,
      "v": 75
    },
    {
      "midi": 81,
      "hit": false,
      "t": 49525.82575000025,
      "d": 123.92232291666733,
      "v": 75
    },
    {
      "midi": 77,
      "hit": false,
      "t": 49655.13600000025,
      "d": 123.92232291666733,
      "v": 75
    },
    {
      "midi": 62,
      "hit": false,
      "t": 49655.13600000025,
      "d": 253.2325729166696,
      "v": 75
    },
    {
      "midi": 69,
      "hit": false,
      "t": 49655.13600000025,
      "d": 253.2325729166696,
      "v": 75
    },
    {
      "midi": 79,
      "hit": false,
      "t": 49784.446250000256,
      "d": 123.92232291666733,
      "v": 75
    },
    {
      "midi": 76,
      "hit": false,
      "t": 49913.75650000026,
      "d": 123.92232291666733,
      "v": 75
    },
    {
      "midi": 62,
      "hit": false,
      "t": 49913.75650000026,
      "d": 253.2325729166696,
      "v": 75
    },
    {
      "midi": 69,
      "hit": false,
      "t": 49913.75650000026,
      "d": 253.2325729166696,
      "v": 75
    },
    {
      "midi": 79,
      "hit": false,
      "t": 50043.06675000026,
      "d": 123.92232291666733,
      "v": 75
    },
    {
      "midi": 77,
      "hit": false,
      "t": 50172.37700000026,
      "d": 123.92232291666733,
      "v": 75
    },
    {
      "midi": 62,
      "hit": false,
      "t": 50172.37700000026,
      "d": 253.2325729166696,
      "v": 75
    },
    {
      "midi": 69,
      "hit": false,
      "t": 50172.37700000026,
      "d": 253.2325729166696,
      "v": 75
    },
    {
      "midi": 79,
      "hit": false,
      "t": 50301.687250000265,
      "d": 123.92232291666733,
      "v": 75
    },
    {
      "midi": 76,
      "hit": false,
      "t": 50430.99750000027,
      "d": 123.92232291666733,
      "v": 75
    },
    {
      "midi": 62,
      "hit": false,
      "t": 50430.99750000027,
      "d": 253.2325729166696,
      "v": 75
    },
    {
      "midi": 69,
      "hit": false,
      "t": 50430.99750000027,
      "d": 253.2325729166696,
      "v": 75
    },
    {
      "midi": 79,
      "hit": false,
      "t": 50560.30775000027,
      "d": 123.92232291666733,
      "v": 75
    },
    {
      "midi": 77,
      "hit": false,
      "t": 50689.61800000027,
      "d": 123.92232291666733,
      "v": 75
    },
    {
      "midi": 62,
      "hit": false,
      "t": 50689.61800000027,
      "d": 511.85307291667414,
      "v": 75
    },
    {
      "midi": 69,
      "hit": false,
      "t": 50689.61800000027,
      "d": 511.85307291667414,
      "v": 75
    },
    {
      "midi": 79,
      "hit": false,
      "t": 50818.928250000274,
      "d": 123.92232291666733,
      "v": 75
    },
    {
      "midi": 76,
      "hit": false,
      "t": 50948.238500000276,
      "d": 123.92232291666733,
      "v": 75
    },
    {
      "midi": 77,
      "hit": false,
      "t": 51077.54875000028,
      "d": 123.92232291666733,
      "v": 75
    },
    {
      "midi": 74,
      "hit": false,
      "t": 51206.85900000028,
      "d": 123.92232291666733,
      "v": 75
    },
    {
      "midi": 76,
      "hit": false,
      "t": 51336.16925000028,
      "d": 123.92232291666733,
      "v": 75
    },
    {
      "midi": 72,
      "hit": false,
      "t": 51465.479500000285,
      "d": 123.92232291666733,
      "v": 75
    },
    {
      "midi": 74,
      "hit": false,
      "t": 51594.78975000029,
      "d": 123.92232291666733,
      "v": 75
    },
    {
      "midi": 55,
      "hit": false,
      "t": 51724.10000000023,
      "d": 253.2325729166696,
      "v": 76
    },
    {
      "midi": 62,
      "hit": false,
      "t": 51724.10000000023,
      "d": 253.2325729166696,
      "v": 76
    },
    {
      "midi": 65,
      "hit": false,
      "t": 51724.10000000023,
      "d": 253.2325729166696,
      "v": 76
    },
    {
      "midi": 71,
      "hit": false,
      "t": 51724.10000000029,
      "d": 123.92232291666733,
      "v": 75
    },
    {
      "midi": 72,
      "hit": false,
      "t": 51853.41025000029,
      "d": 123.92232291666733,
      "v": 75
    },
    {
      "midi": 55,
      "hit": false,
      "t": 51982.720500000236,
      "d": 253.2325729166696,
      "v": 76
    },
    {
      "midi": 62,
      "hit": false,
      "t": 51982.720500000236,
      "d": 253.2325729166696,
      "v": 76
    },
    {
      "midi": 65,
      "hit": false,
      "t": 51982.720500000236,
      "d": 253.2325729166696,
      "v": 76
    },
    {
      "midi": 69,
      "hit": false,
      "t": 51982.720500000294,
      "d": 123.92232291666733,
      "v": 75
    },
    {
      "midi": 72,
      "hit": false,
      "t": 52112.0307500003,
      "d": 123.92232291666733,
      "v": 75
    },
    {
      "midi": 55,
      "hit": false,
      "t": 52241.34100000024,
      "d": 253.2325729166696,
      "v": 76
    },
    {
      "midi": 62,
      "hit": false,
      "t": 52241.34100000024,
      "d": 253.2325729166696,
      "v": 76
    },
    {
      "midi": 65,
      "hit": false,
      "t": 52241.34100000024,
      "d": 253.2325729166696,
      "v": 76
    },
    {
      "midi": 71,
      "hit": false,
      "t": 52241.3410000003,
      "d": 123.92232291666733,
      "v": 75
    },
    {
      "midi": 72,
      "hit": false,
      "t": 52370.6512500003,
      "d": 123.92232291666733,
      "v": 75
    },
    {
      "midi": 55,
      "hit": false,
      "t": 52499.961500000245,
      "d": 253.2325729166696,
      "v": 76
    },
    {
      "midi": 62,
      "hit": false,
      "t": 52499.961500000245,
      "d": 253.2325729166696,
      "v": 76
    },
    {
      "midi": 65,
      "hit": false,
      "t": 52499.961500000245,
      "d": 253.2325729166696,
      "v": 76
    },
    {
      "midi": 69,
      "hit": false,
      "t": 52499.9615000003,
      "d": 123.92232291666733,
      "v": 75
    },
    {
      "midi": 72,
      "hit": false,
      "t": 52629.271750000305,
      "d": 123.92232291666733,
      "v": 75
    },
    {
      "midi": 55,
      "hit": false,
      "t": 52758.58200000025,
      "d": 511.85307291666686,
      "v": 76
    },
    {
      "midi": 62,
      "hit": false,
      "t": 52758.58200000025,
      "d": 511.85307291666686,
      "v": 76
    },
    {
      "midi": 65,
      "hit": false,
      "t": 52758.58200000025,
      "d": 511.85307291666686,
      "v": 76
    },
    {
      "midi": 71,
      "hit": false,
      "t": 52758.58200000031,
      "d": 123.92232291666733,
      "v": 75
    },
    {
      "midi": 72,
      "hit": false,
      "t": 52887.89225000031,
      "d": 123.92232291666733,
      "v": 75
    },
    {
      "midi": 69,
      "hit": false,
      "t": 53017.20250000031,
      "d": 123.92232291666733,
      "v": 75
    },
    {
      "midi": 71,
      "hit": false,
      "t": 53146.512750000315,
      "d": 123.92232291666733,
      "v": 75
    },
    {
      "midi": 67,
      "hit": false,
      "t": 53275.82300000032,
      "d": 123.92232291666733,
      "v": 75
    },
    {
      "midi": 69,
      "hit": false,
      "t": 53405.13325000032,
      "d": 123.92232291666733,
      "v": 75
    },
    {
      "midi": 65,
      "hit": false,
      "t": 53534.44350000032,
      "d": 123.92232291666733,
      "v": 75
    },
    {
      "midi": 67,
      "hit": false,
      "t": 53663.75375000032,
      "d": 123.92232291666733,
      "v": 75
    },
    {
      "midi": 60,
      "hit": false,
      "t": 53793.06400000025,
      "d": 511.85307291666686,
      "v": 76
    },
    {
      "midi": 64,
      "hit": false,
      "t": 53793.064000000326,
      "d": 123.92232291666733,
      "v": 75
    },
    {
      "midi": 67,
      "hit": false,
      "t": 53922.37425000033,
      "d": 123.92232291666733,
      "v": 75
    },
    {
      "midi": 65,
      "hit": false,
      "t": 54051.68450000033,
      "d": 123.92232291666733,
      "v": 75
    },
    {
      "midi": 64,
      "hit": false,
      "t": 54180.99475000033,
      "d": 123.92232291666733,
      "v": 75
    },
    {
      "midi": 65,
      "hit": false,
      "t": 54310.305000000335,
      "d": 123.92232291666733,
      "v": 75
    },
    {
      "midi": 67,
      "hit": false,
      "t": 54439.61525000034,
      "d": 123.92232291666733,
      "v": 75
    },
    {
      "midi": 69,
      "hit": false,
      "t": 54568.92550000034,
      "d": 123.92232291666733,
      "v": 75
    },
    {
      "midi": 71,
      "hit": false,
      "t": 54698.23575000034,
      "d": 123.92232291666733,
      "v": 75
    },
    {
      "midi": 72,
      "hit": false,
      "t": 54827.546000000344,
      "d": 123.92232291666733,
      "v": 75
    },
    {
      "midi": 74,
      "hit": false,
      "t": 54956.856250000346,
      "d": 123.92232291666733,
      "v": 75
    },
    {
      "midi": 72,
      "hit": false,
      "t": 55086.16650000035,
      "d": 123.92232291666733,
      "v": 75
    },
    {
      "midi": 71,
      "hit": false,
      "t": 55215.47675000035,
      "d": 123.92232291666733,
      "v": 75
    },
    {
      "midi": 72,
      "hit": false,
      "t": 55344.78700000035,
      "d": 123.92232291666733,
      "v": 75
    },
    {
      "midi": 74,
      "hit": false,
      "t": 55474.097250000355,
      "d": 123.92232291666733,
      "v": 75
    },
    {
      "midi": 76,
      "hit": false,
      "t": 55603.40750000036,
      "d": 123.92232291666733,
      "v": 75
    },
    {
      "midi": 77,
      "hit": false,
      "t": 55732.71775000036,
      "d": 123.92232291666733,
      "v": 75
    },
    {
      "midi": 52,
      "hit": false,
      "t": 55862.02800000025,
      "d": 253.2325729166696,
      "v": 57
    },
    {
      "midi": 60,
      "hit": false,
      "t": 55862.02800000025,
      "d": 253.2325729166696,
      "v": 57
    },
    {
      "midi": 79,
      "hit": false,
      "t": 55862.02800000036,
      "d": 123.92232291666733,
      "v": 60
    },
    {
      "midi": 81,
      "hit": false,
      "t": 55991.338250000364,
      "d": 123.92232291666733,
      "v": 60
    },
    {
      "midi": 52,
      "hit": false,
      "t": 56120.64850000026,
      "d": 253.2325729166696,
      "v": 57
    },
    {
      "midi": 60,
      "hit": false,
      "t": 56120.64850000026,
      "d": 253.2325729166696,
      "v": 57
    },
    {
      "midi": 78,
      "hit": false,
      "t": 56120.64850000037,
      "d": 123.92232291666733,
      "v": 60
    },
    {
      "midi": 81,
      "hit": false,
      "t": 56249.95875000037,
      "d": 123.92232291666733,
      "v": 60
    },
    {
      "midi": 52,
      "hit": false,
      "t": 56379.26900000026,
      "d": 253.2325729166696,
      "v": 57
    },
    {
      "midi": 60,
      "hit": false,
      "t": 56379.26900000026,
      "d": 253.2325729166696,
      "v": 57
    },
    {
      "midi": 79,
      "hit": false,
      "t": 56379.26900000037,
      "d": 123.92232291666733,
      "v": 60
    },
    {
      "midi": 81,
      "hit": false,
      "t": 56508.57925000037,
      "d": 123.92232291666733,
      "v": 60
    },
    {
      "midi": 52,
      "hit": false,
      "t": 56637.88950000027,
      "d": 253.2325729166696,
      "v": 57
    },
    {
      "midi": 60,
      "hit": false,
      "t": 56637.88950000027,
      "d": 253.2325729166696,
      "v": 57
    },
    {
      "midi": 78,
      "hit": false,
      "t": 56637.889500000376,
      "d": 123.92232291666733,
      "v": 60
    },
    {
      "midi": 81,
      "hit": false,
      "t": 56767.19975000038,
      "d": 123.92232291666733,
      "v": 60
    },
    {
      "midi": 52,
      "hit": false,
      "t": 56896.51000000027,
      "d": 511.85307291666686,
      "v": 57
    },
    {
      "midi": 60,
      "hit": false,
      "t": 56896.51000000027,
      "d": 511.85307291666686,
      "v": 57
    },
    {
      "midi": 79,
      "hit": false,
      "t": 56896.51000000038,
      "d": 123.92232291666733,
      "v": 60
    },
    {
      "midi": 84,
      "hit": false,
      "t": 57025.82025000038,
      "d": 123.92232291666733,
      "v": 60
    },
    {
      "midi": 83,
      "hit": false,
      "t": 57155.130500000385,
      "d": 123.92232291666733,
      "v": 60
    },
    {
      "midi": 84,
      "hit": false,
      "t": 57284.44075000039,
      "d": 123.92232291666733,
      "v": 60
    },
    {
      "midi": 86,
      "hit": false,
      "t": 57413.75100000039,
      "d": 123.92232291666733,
      "v": 60
    },
    {
      "midi": 84,
      "hit": false,
      "t": 57543.06125000039,
      "d": 123.92232291666733,
      "v": 60
    },
    {
      "midi": 83,
      "hit": false,
      "t": 57672.371500000394,
      "d": 123.92232291666733,
      "v": 60
    },
    {
      "midi": 84,
      "hit": false,
      "t": 57801.681750000396,
      "d": 123.92232291666733,
      "v": 60
    },
    {
      "midi": 53,
      "hit": false,
      "t": 57930.992000000275,
      "d": 1546.3350729166705,
      "v": 76
    },
    {
      "midi": 83,
      "hit": false,
      "t": 57930.9920000004,
      "d": 123.92232291666733,
      "v": 75
    },
    {
      "midi": 81,
      "hit": false,
      "t": 58060.3022500004,
      "d": 123.92232291666733,
      "v": 75
    },
    {
      "midi": 80,
      "hit": false,
      "t": 58189.6125000004,
      "d": 123.92232291666733,
      "v": 75
    },
    {
      "midi": 81,
      "hit": false,
      "t": 58318.922750000405,
      "d": 123.92232291666733,
      "v": 75
    },
    {
      "midi": 57,
      "hit": false,
      "t": 58448.23300000028,
      "d": 511.85307291666686,
      "v": 76
    },
    {
      "midi": 79,
      "hit": false,
      "t": 58448.23300000041,
      "d": 123.92232291666733,
      "v": 75
    },
    {
      "midi": 77,
      "hit": false,
      "t": 58577.54325000041,
      "d": 123.92232291666733,
      "v": 75
    },
    {
      "midi": 76,
      "hit": false,
      "t": 58706.85350000041,
      "d": 123.92232291666733,
      "v": 75
    },
    {
      "midi": 77,
      "hit": false,
      "t": 58836.163750000414,
      "d": 123.92232291666733,
      "v": 75
    },
    {
      "midi": 62,
      "hit": false,
      "t": 58965.47400000028,
      "d": 1029.0940729166687,
      "v": 76
    },
    {
      "midi": 76,
      "hit": false,
      "t": 58965.47400000042,
      "d": 123.92232291666733,
      "v": 75
    },
    {
      "midi": 74,
      "hit": false,
      "t": 59094.78425000042,
      "d": 123.92232291666733,
      "v": 75
    },
    {
      "midi": 73,
      "hit": false,
      "t": 59224.09450000042,
      "d": 123.92232291666733,
      "v": 75
    },
    {
      "midi": 74,
      "hit": false,
      "t": 59353.40475000042,
      "d": 123.92232291666733,
      "v": 75
    },
    {
      "midi": 53,
      "hit": false,
      "t": 59482.71500000028,
      "d": 511.85307291666686,
      "v": 76
    },
    {
      "midi": 73,
      "hit": false,
      "t": 59482.715000000426,
      "d": 123.92232291666733,
      "v": 75
    },
    {
      "midi": 74,
      "hit": false,
      "t": 59612.02525000043,
      "d": 123.92232291666733,
      "v": 75
    },
    {
      "midi": 76,
      "hit": false,
      "t": 59741.33550000043,
      "d": 123.92232291666733,
      "v": 75
    },
    {
      "midi": 77,
      "hit": false,
      "t": 59870.64575000043,
      "d": 123.92232291666733,
      "v": 75
    },
    {
      "midi": 62,
      "hit": false,
      "t": 59999.95600000028,
      "d": 511.85307291666686,
      "v": 76
    },
    {
      "midi": 52,
      "hit": false,
      "t": 59999.95600000028,
      "d": 1546.3350729166705,
      "v": 76
    },
    {
      "midi": 81,
      "hit": false,
      "t": 59999.956000000435,
      "d": 123.92232291666733,
      "v": 75
    },
    {
      "midi": 79,
      "hit": false,
      "t": 60129.26625000044,
      "d": 123.92232291666733,
      "v": 75
    },
    {
      "midi": 78,
      "hit": false,
      "t": 60258.57650000044,
      "d": 123.92232291666733,
      "v": 75
    },
    {
      "midi": 79,
      "hit": false,
      "t": 60387.88675000044,
      "d": 123.92232291666733,
      "v": 75
    },
    {
      "midi": 55,
      "hit": false,
      "t": 60517.197000000284,
      "d": 511.85307291666686,
      "v": 76
    },
    {
      "midi": 77,
      "hit": false,
      "t": 60517.197000000444,
      "d": 123.92232291666733,
      "v": 75
    },
    {
      "midi": 76,
      "hit": false,
      "t": 60646.507250000446,
      "d": 123.92232291666733,
      "v": 75
    },
    {
      "midi": 74,
      "hit": false,
      "t": 60775.81750000045,
      "d": 123.92232291666733,
      "v": 75
    },
    {
      "midi": 76,
      "hit": false,
      "t": 60905.12775000045,
      "d": 123.92232291666733,
      "v": 75
    },
    {
      "midi": 60,
      "hit": false,
      "t": 61034.438000000286,
      "d": 1029.0940729166687,
      "v": 76
    },
    {
      "midi": 74,
      "hit": false,
      "t": 61034.43800000045,
      "d": 123.92232291666733,
      "v": 75
    },
    {
      "midi": 72,
      "hit": false,
      "t": 61163.748250000455,
      "d": 123.92232291666733,
      "v": 75
    },
    {
      "midi": 71,
      "hit": false,
      "t": 61293.05850000046,
      "d": 123.92232291666733,
      "v": 75
    },
    {
      "midi": 72,
      "hit": false,
      "t": 61422.36875000046,
      "d": 123.92232291666733,
      "v": 75
    },
    {
      "midi": 52,
      "hit": false,
      "t": 61551.67900000029,
      "d": 511.85307291666686,
      "v": 76
    },
    {
      "midi": 71,
      "hit": false,
      "t": 61551.67900000046,
      "d": 123.92232291666733,
      "v": 75
    },
    {
      "midi": 72,
      "hit": false,
      "t": 61680.989250000464,
      "d": 123.92232291666733,
      "v": 75
    },
    {
      "midi": 74,
      "hit": false,
      "t": 61810.29950000047,
      "d": 123.92232291666733,
      "v": 75
    },
    {
      "midi": 76,
      "hit": false,
      "t": 61939.60975000047,
      "d": 123.92232291666733,
      "v": 75
    },
    {
      "midi": 50,
      "hit": false,
      "t": 62068.92000000029,
      "d": 511.85307291666686,
      "v": 76
    },
    {
      "midi": 60,
      "hit": false,
      "t": 62068.92000000029,
      "d": 511.85307291666686,
      "v": 76
    },
    {
      "midi": 77,
      "hit": false,
      "t": 62068.92000000047,
      "d": 123.92232291666733,
      "v": 75
    },
    {
      "midi": 79,
      "hit": false,
      "t": 62198.23025000047,
      "d": 123.92232291666733,
      "v": 75
    },
    {
      "midi": 76,
      "hit": false,
      "t": 62327.540500000476,
      "d": 123.92232291666733,
      "v": 75
    },
    {
      "midi": 77,
      "hit": false,
      "t": 62456.85075000048,
      "d": 123.92232291666733,
      "v": 75
    },
    {
      "midi": 53,
      "hit": false,
      "t": 62586.16100000029,
      "d": 511.85307291666686,
      "v": 76
    },
    {
      "midi": 57,
      "hit": false,
      "t": 62586.16100000029,
      "d": 511.85307291666686,
      "v": 76
    },
    {
      "midi": 74,
      "hit": false,
      "t": 62586.16100000048,
      "d": 123.92232291666733,
      "v": 75
    },
    {
      "midi": 76,
      "hit": false,
      "t": 62715.47125000048,
      "d": 123.92232291666733,
      "v": 75
    },
    {
      "midi": 72,
      "hit": false,
      "t": 62844.781500000485,
      "d": 123.92232291666733,
      "v": 75
    },
    {
      "midi": 74,
      "hit": false,
      "t": 62974.09175000049,
      "d": 123.92232291666733,
      "v": 75
    },
    {
      "midi": 55,
      "hit": false,
      "t": 63103.40200000029,
      "d": 511.85307291666686,
      "v": 76
    },
    {
      "midi": 71,
      "hit": false,
      "t": 63103.40200000049,
      "d": 123.92232291666733,
      "v": 75
    },
    {
      "midi": 72,
      "hit": false,
      "t": 63232.71225000049,
      "d": 123.92232291666733,
      "v": 75
    },
    {
      "midi": 69,
      "hit": false,
      "t": 63362.022500000494,
      "d": 123.92232291666733,
      "v": 75
    },
    {
      "midi": 71,
      "hit": false,
      "t": 63491.332750000496,
      "d": 123.92232291666733,
      "v": 75
    },
    {
      "midi": 47,
      "hit": false,
      "t": 63620.643000000295,
      "d": 511.85307291666686,
      "v": 76
    },
    {
      "midi": 67,
      "hit": false,
      "t": 63620.6430000005,
      "d": 123.92232291666733,
      "v": 75
    },
    {
      "midi": 69,
      "hit": false,
      "t": 63749.9532500005,
      "d": 123.92232291666733,
      "v": 75
    },
    {
      "midi": 65,
      "hit": false,
      "t": 63879.2635000005,
      "d": 123.92232291666733,
      "v": 75
    },
    {
      "midi": 67,
      "hit": false,
      "t": 64008.573750000505,
      "d": 123.92232291666733,
      "v": 75
    },
    {
      "midi": 48,
      "hit": false,
      "t": 64137.8840000003,
      "d": 511.85307291666686,
      "v": 76
    },
    {
      "midi": 64,
      "hit": false,
      "t": 64137.88400000051,
      "d": 123.92232291666733,
      "v": 75
    },
    {
      "midi": 67,
      "hit": false,
      "t": 64267.19425000051,
      "d": 123.92232291666733,
      "v": 75
    },
    {
      "midi": 65,
      "hit": false,
      "t": 64396.50450000051,
      "d": 123.92232291666733,
      "v": 75
    },
    {
      "midi": 64,
      "hit": false,
      "t": 64525.814750000514,
      "d": 123.92232291666733,
      "v": 75
    },
    {
      "midi": 50,
      "hit": false,
      "t": 64655.1250000003,
      "d": 511.85307291666686,
      "v": 76
    },
    {
      "midi": 55,
      "hit": false,
      "t": 64655.1250000003,
      "d": 1029.0940729166687,
      "v": 76
    },
    {
      "midi": 65,
      "hit": false,
      "t": 64655.12500000052,
      "d": 123.92232291666733,
      "v": 75
    },
    {
      "midi": 67,
      "hit": false,
      "t": 64784.43525000052,
      "d": 123.92232291666733,
      "v": 75
    },
    {
      "midi": 69,
      "hit": false,
      "t": 64913.74550000052,
      "d": 123.92232291666733,
      "v": 75
    },
    {
      "midi": 71,
      "hit": false,
      "t": 65043.05575000052,
      "d": 123.92232291666733,
      "v": 75
    },
    {
      "midi": 52,
      "hit": false,
      "t": 65172.3660000003,
      "d": 1029.0940729166614,
      "v": 76
    },
    {
      "midi": 72,
      "hit": false,
      "t": 65172.366000000526,
      "d": 123.92232291666733,
      "v": 75
    },
    {
      "midi": 74,
      "hit": false,
      "t": 65301.67625000053,
      "d": 123.92232291666733,
      "v": 75
    },
    {
      "midi": 76,
      "hit": false,
      "t": 65430.98650000053,
      "d": 123.92232291666005,
      "v": 75
    },
    {
      "midi": 74,
      "hit": false,
      "t": 65560.29675000052,
      "d": 123.92232291666733,
      "v": 75
    },
    {
      "midi": 60,
      "hit": false,
      "t": 65689.6070000003,
      "d": 511.85307291666686,
      "v": 76
    },
    {
      "midi": 72,
      "hit": false,
      "t": 65689.60700000051,
      "d": 123.92232291666733,
      "v": 75
    },
    {
      "midi": 70,
      "hit": false,
      "t": 65818.91725000051,
      "d": 123.92232291666733,
      "v": 75
    },
    {
      "midi": 69,
      "hit": false,
      "t": 65948.2275000005,
      "d": 123.92232291666733,
      "v": 75
    },
    {
      "midi": 68,
      "hit": false,
      "t": 66077.5377500005,
      "d": 123.92232291666733,
      "v": 75
    },
    {
      "midi": 53,
      "hit": false,
      "t": 66206.84800000029,
      "d": 511.85307291666686,
      "v": 76
    },
    {
      "midi": 60,
      "hit": false,
      "t": 66206.84800000029,
      "d": 511.85307291666686,
      "v": 76
    },
    {
      "midi": 69,
      "hit": false,
      "t": 66206.8480000005,
      "d": 123.92232291666733,
      "v": 76
    },
    {
      "midi": 71,
      "hit": false,
      "t": 66336.15825000049,
      "d": 123.92232291666733,
      "v": 78
    },
    {
      "midi": 72,
      "hit": false,
      "t": 66465.46850000048,
      "d": 123.92232291666733,
      "v": 78
    },
    {
      "midi": 71,
      "hit": false,
      "t": 66594.77875000048,
      "d": 123.92232291666733,
      "v": 79
    },
    {
      "midi": 72,
      "hit": false,
      "t": 66724.08900000047,
      "d": 123.92232291666733,
      "v": 79
    },
    {
      "midi": 73,
      "hit": false,
      "t": 66853.39925000047,
      "d": 123.92232291666733,
      "v": 81
    },
    {
      "midi": 74,
      "hit": false,
      "t": 66982.70950000046,
      "d": 123.92232291666733,
      "v": 81
    },
    {
      "midi": 73,
      "hit": false,
      "t": 67112.01975000046,
      "d": 123.92232291666733,
      "v": 82
    },
    {
      "midi": 74,
      "hit": false,
      "t": 67241.33000000045,
      "d": 123.92232291666733,
      "v": 82
    },
    {
      "midi": 76,
      "hit": false,
      "t": 67370.64025000045,
      "d": 123.92232291666733,
      "v": 84
    },
    {
      "midi": 77,
      "hit": false,
      "t": 67499.95050000044,
      "d": 123.92232291666733,
      "v": 84
    },
    {
      "midi": 76,
      "hit": false,
      "t": 67629.26075000044,
      "d": 123.92232291666733,
      "v": 85
    },
    {
      "midi": 77,
      "hit": false,
      "t": 67758.57100000043,
      "d": 123.92232291666733,
      "v": 85
    },
    {
      "midi": 80,
      "hit": false,
      "t": 67887.88125000043,
      "d": 123.92232291666733,
      "v": 87
    },
    {
      "midi": 81,
      "hit": false,
      "t": 68017.19150000042,
      "d": 123.92232291666733,
      "v": 87
    },
    {
      "midi": 80,
      "hit": false,
      "t": 68146.50175000042,
      "d": 123.92232291666733,
      "v": 88
    },
    {
      "midi": 53,
      "hit": false,
      "t": 68275.8120000003,
      "d": 123.92232291666733,
      "v": 90
    },
    {
      "midi": 81,
      "hit": false,
      "t": 68275.81200000041,
      "d": 123.92232291666733,
      "v": 90
    },
    {
      "midi": 62,
      "hit": false,
      "t": 68405.12225000029,
      "d": 123.92232291666733,
      "v": 90
    },
    {
      "midi": 83,
      "hit": false,
      "t": 68405.12225000041,
      "d": 123.92232291666733,
      "v": 90
    },
    {
      "midi": 57,
      "hit": false,
      "t": 68534.43250000029,
      "d": 123.92232291666733,
      "v": 90
    },
    {
      "midi": 84,
      "hit": false,
      "t": 68534.4325000004,
      "d": 123.92232291666733,
      "v": 90
    },
    {
      "midi": 62,
      "hit": false,
      "t": 68663.74275000028,
      "d": 123.92232291666733,
      "v": 90
    },
    {
      "midi": 83,
      "hit": false,
      "t": 68663.7427500004,
      "d": 123.92232291666733,
      "v": 90
    },
    {
      "midi": 53,
      "hit": false,
      "t": 68793.05300000028,
      "d": 123.92232291666733,
      "v": 90
    },
    {
      "midi": 84,
      "hit": false,
      "t": 68793.0530000004,
      "d": 123.92232291666733,
      "v": 90
    },
    {
      "midi": 62,
      "hit": false,
      "t": 68922.36325000027,
      "d": 123.92232291666733,
      "v": 90
    },
    {
      "midi": 83,
      "hit": false,
      "t": 68922.36325000039,
      "d": 123.92232291666733,
      "v": 90
    },
    {
      "midi": 57,
      "hit": false,
      "t": 69051.67350000027,
      "d": 123.92232291666733,
      "v": 90
    },
    {
      "midi": 84,
      "hit": false,
      "t": 69051.67350000038,
      "d": 123.92232291666733,
      "v": 90
    },
    {
      "midi": 62,
      "hit": false,
      "t": 69180.98375000026,
      "d": 123.92232291666733,
      "v": 90
    },
    {
      "midi": 83,
      "hit": false,
      "t": 69180.98375000038,
      "d": 123.92232291666733,
      "v": 90
    },
    {
      "midi": 53,
      "hit": false,
      "t": 69310.29400000026,
      "d": 123.92232291666733,
      "v": 90
    },
    {
      "midi": 86,
      "hit": false,
      "t": 69310.29400000037,
      "d": 123.92232291666733,
      "v": 90
    },
    {
      "midi": 62,
      "hit": false,
      "t": 69439.60425000025,
      "d": 123.92232291666733,
      "v": 90
    },
    {
      "midi": 84,
      "hit": false,
      "t": 69439.60425000037,
      "d": 123.92232291666733,
      "v": 90
    },
    {
      "midi": 57,
      "hit": false,
      "t": 69568.91450000025,
      "d": 123.92232291666733,
      "v": 90
    },
    {
      "midi": 83,
      "hit": false,
      "t": 69568.91450000036,
      "d": 123.92232291666733,
      "v": 90
    },
    {
      "midi": 62,
      "hit": false,
      "t": 69698.22475000024,
      "d": 123.92232291666733,
      "v": 90
    },
    {
      "midi": 81,
      "hit": false,
      "t": 69698.22475000036,
      "d": 123.92232291666733,
      "v": 90
    },
    {
      "midi": 53,
      "hit": false,
      "t": 69827.53500000024,
      "d": 123.92232291666733,
      "v": 90
    },
    {
      "midi": 83,
      "hit": false,
      "t": 69827.53500000035,
      "d": 123.92232291666733,
      "v": 90
    },
    {
      "midi": 62,
      "hit": false,
      "t": 69956.84525000023,
      "d": 123.92232291666733,
      "v": 90
    },
    {
      "midi": 81,
      "hit": false,
      "t": 69956.84525000035,
      "d": 123.92232291666733,
      "v": 90
    },
    {
      "midi": 57,
      "hit": false,
      "t": 70086.15550000023,
      "d": 123.92232291666733,
      "v": 90
    },
    {
      "midi": 79,
      "hit": false,
      "t": 70086.15550000034,
      "d": 123.92232291666733,
      "v": 90
    },
    {
      "midi": 62,
      "hit": false,
      "t": 70215.46575000022,
      "d": 123.92232291666733,
      "v": 90
    },
    {
      "midi": 77,
      "hit": false,
      "t": 70215.46575000034,
      "d": 123.92232291666733,
      "v": 90
    },
    {
      "midi": 55,
      "hit": false,
      "t": 70344.77600000022,
      "d": 123.92232291666733,
      "v": 76
    },
    {
      "midi": 76,
      "hit": false,
      "t": 70344.77600000033,
      "d": 123.92232291666733,
      "v": 82
    },
    {
      "midi": 64,
      "hit": false,
      "t": 70474.08625000021,
      "d": 123.92232291666733,
      "v": 76
    },
    {
      "midi": 79,
      "hit": false,
      "t": 70474.08625000033,
      "d": 123.92232291666733,
      "v": 82
    },
    {
      "midi": 60,
      "hit": false,
      "t": 70603.3965000002,
      "d": 123.92232291666733,
      "v": 76
    },
    {
      "midi": 81,
      "hit": false,
      "t": 70603.39650000032,
      "d": 123.92232291666733,
      "v": 82
    },
    {
      "midi": 64,
      "hit": false,
      "t": 70732.7067500002,
      "d": 123.92232291666733,
      "v": 76
    },
    {
      "midi": 79,
      "hit": false,
      "t": 70732.70675000032,
      "d": 123.92232291666733,
      "v": 82
    },
    {
      "midi": 55,
      "hit": false,
      "t": 70862.0170000002,
      "d": 123.92232291666733,
      "v": 76
    },
    {
      "midi": 77,
      "hit": false,
      "t": 70862.01700000031,
      "d": 123.92232291666733,
      "v": 75
    },
    {
      "midi": 64,
      "hit": false,
      "t": 70991.32725000019,
      "d": 123.92232291666733,
      "v": 76
    },
    {
      "midi": 76,
      "hit": false,
      "t": 70991.32725000031,
      "d": 123.92232291666733,
      "v": 75
    },
    {
      "midi": 60,
      "hit": false,
      "t": 71120.63750000019,
      "d": 123.92232291666733,
      "v": 76
    },
    {
      "midi": 74,
      "hit": false,
      "t": 71120.6375000003,
      "d": 123.92232291666733,
      "v": 75
    },
    {
      "midi": 64,
      "hit": false,
      "t": 71249.94775000018,
      "d": 123.92232291666733,
      "v": 76
    },
    {
      "midi": 72,
      "hit": false,
      "t": 71249.9477500003,
      "d": 123.92232291666733,
      "v": 75
    },
    {
      "midi": 55,
      "hit": false,
      "t": 71379.25800000018,
      "d": 123.92232291666733,
      "v": 76
    },
    {
      "midi": 76,
      "hit": false,
      "t": 71379.25800000029,
      "d": 59.26719791666255,
      "v": 75
    },
    {
      "midi": 74,
      "hit": false,
      "t": 71443.91312500028,
      "d": 59.26719791666255,
      "v": 75
    },
    {
      "midi": 65,
      "hit": false,
      "t": 71508.56825000017,
      "d": 123.92232291666733,
      "v": 76
    },
    {
      "midi": 76,
      "hit": false,
      "t": 71508.56825000027,
      "d": 59.26719791666255,
      "v": 75
    },
    {
      "midi": 74,
      "hit": false,
      "t": 71573.22337500026,
      "d": 59.26719791666255,
      "v": 75
    },
    {
      "midi": 59,
      "hit": false,
      "t": 71637.87850000017,
      "d": 123.92232291666733,
      "v": 76
    },
    {
      "midi": 76,
      "hit": false,
      "t": 71637.87850000025,
      "d": 59.26719791666255,
      "v": 75
    },
    {
      "midi": 74,
      "hit": false,
      "t": 71702.53362500024,
      "d": 59.26719791666255,
      "v": 75
    },
    {
      "midi": 65,
      "hit": false,
      "t": 71767.18875000016,
      "d": 123.92232291666733,
      "v": 76
    },
    {
      "midi": 76,
      "hit": false,
      "t": 71767.18875000023,
      "d": 59.26719791666255,
      "v": 75
    },
    {
      "midi": 74,
      "hit": false,
      "t": 71831.84387500022,
      "d": 59.26719791666255,
      "v": 75
    },
    {
      "midi": 55,
      "hit": false,
      "t": 71896.49900000016,
      "d": 123.92232291666733,
      "v": 76
    },
    {
      "midi": 76,
      "hit": false,
      "t": 71896.49900000021,
      "d": 59.26719791666255,
      "v": 75
    },
    {
      "midi": 74,
      "hit": false,
      "t": 71961.1541250002,
      "d": 59.26719791666255,
      "v": 75
    },
    {
      "midi": 65,
      "hit": false,
      "t": 72025.80925000015,
      "d": 123.92232291666733,
      "v": 76
    },
    {
      "midi": 76,
      "hit": false,
      "t": 72025.8092500002,
      "d": 59.26719791666255,
      "v": 75
    },
    {
      "midi": 74,
      "hit": false,
      "t": 72090.46437500019,
      "d": 59.26719791666255,
      "v": 75
    },
    {
      "midi": 59,
      "hit": false,
      "t": 72155.11950000015,
      "d": 123.92232291666733,
      "v": 76
    },
    {
      "midi": 72,
      "hit": false,
      "t": 72155.11950000018,
      "d": 123.92232291666733,
      "v": 75
    },
    {
      "midi": 65,
      "hit": false,
      "t": 72284.42975000014,
      "d": 123.92232291666733,
      "v": 76
    },
    {
      "midi": 74,
      "hit": false,
      "t": 72284.42975000017,
      "d": 123.92232291666733,
      "v": 75
    },
    {
      "midi": 60,
      "hit": false,
      "t": 72413.74000000014,
      "d": 511.85307291666686,
      "v": 57
    },
    {
      "midi": 64,
      "hit": false,
      "t": 72413.74000000014,
      "d": 511.85307291666686,
      "v": 57
    },
    {
      "midi": 84,
      "hit": false,
      "t": 72543.05025000017,
      "d": 123.92232291666733,
      "v": 60
    },
    {
      "midi": 83,
      "hit": false,
      "t": 72672.36050000017,
      "d": 123.92232291666733,
      "v": 60
    },
    {
      "midi": 81,
      "hit": false,
      "t": 72801.67075000016,
      "d": 123.92232291666733,
      "v": 60
    },
    {
      "midi": 79,
      "hit": false,
      "t": 72930.98100000016,
      "d": 123.92232291666733,
      "v": 60
    },
    {
      "midi": 81,
      "hit": false,
      "t": 73060.29125000015,
      "d": 123.92232291666733,
      "v": 60
    },
    {
      "midi": 78,
      "hit": false,
      "t": 73189.60150000015,
      "d": 123.92232291666733,
      "v": 60
    },
    {
      "midi": 81,
      "hit": false,
      "t": 73318.91175000014,
      "d": 123.92232291666733,
      "v": 60
    },
    {
      "midi": 79,
      "hit": false,
      "t": 73448.22200000014,
      "d": 123.92232291666733,
      "v": 60
    },
    {
      "midi": 81,
      "hit": false,
      "t": 73577.53225000013,
      "d": 123.92232291666733,
      "v": 60
    },
    {
      "midi": 78,
      "hit": false,
      "t": 73706.84250000013,
      "d": 123.92232291666733,
      "v": 60
    },
    {
      "midi": 81,
      "hit": false,
      "t": 73836.15275000012,
      "d": 123.92232291666733,
      "v": 60
    },
    {
      "midi": 79,
      "hit": false,
      "t": 73965.46300000012,
      "d": 123.92232291666733,
      "v": 60
    },
    {
      "midi": 71,
      "hit": false,
      "t": 73965.46300000012,
      "d": 253.23257291666232,
      "v": 75
    },
    {
      "midi": 81,
      "hit": false,
      "t": 74094.77325000011,
      "d": 123.92232291666733,
      "v": 60
    },
    {
      "midi": 77,
      "hit": false,
      "t": 74224.08350000011,
      "d": 123.92232291666733,
      "v": 60
    },
    {
      "midi": 67,
      "hit": false,
      "t": 74224.08350000011,
      "d": 253.23257291666232,
      "v": 75
    },
    {
      "midi": 79,
      "hit": false,
      "t": 74353.3937500001,
      "d": 123.92232291666733,
      "v": 60
    },
    {
      "midi": 76,
      "hit": false,
      "t": 74482.7040000001,
      "d": 123.92232291666733,
      "v": 75
    },
    {
      "midi": 72,
      "hit": false,
      "t": 74482.7040000001,
      "d": 511.8530729166523,
      "v": 82
    },
    {
      "midi": 84,
      "hit": false,
      "t": 74612.0142500001,
      "d": 123.92232291666733,
      "v": 75
    },
    {
      "midi": 83,
      "hit": false,
      "t": 74741.32450000009,
      "d": 123.92232291666733,
      "v": 75
    },
    {
      "midi": 81,
      "hit": false,
      "t": 74870.63475000008,
      "d": 123.92232291666733,
      "v": 75
    },
    {
      "midi": 79,
      "hit": false,
      "t": 74999.94500000008,
      "d": 123.92232291666733,
      "v": 75
    },
    {
      "midi": 81,
      "hit": false,
      "t": 75129.25525000007,
      "d": 123.92232291666733,
      "v": 75
    },
    {
      "midi": 78,
      "hit": false,
      "t": 75258.56550000007,
      "d": 123.92232291666733,
      "v": 75
    },
    {
      "midi": 81,
      "hit": false,
      "t": 75387.87575000006,
      "d": 123.92232291666733,
      "v": 75
    },
    {
      "midi": 79,
      "hit": false,
      "t": 75517.18600000006,
      "d": 123.92232291666733,
      "v": 75
    },
    {
      "midi": 81,
      "hit": false,
      "t": 75646.49625000005,
      "d": 123.92232291666733,
      "v": 75
    },
    {
      "midi": 78,
      "hit": false,
      "t": 75775.80650000005,
      "d": 123.92232291666733,
      "v": 75
    },
    {
      "midi": 81,
      "hit": false,
      "t": 75905.11675000004,
      "d": 123.92232291666733,
      "v": 75
    },
    {
      "midi": 79,
      "hit": false,
      "t": 76034.42700000004,
      "d": 123.92232291666733,
      "v": 75
    },
    {
      "midi": 71,
      "hit": false,
      "t": 76034.42700000004,
      "d": 253.23257291666232,
      "v": 82
    },
    {
      "midi": 81,
      "hit": false,
      "t": 76163.73725000003,
      "d": 123.92232291666733,
      "v": 75
    },
    {
      "midi": 77,
      "hit": false,
      "t": 76293.04750000003,
      "d": 123.92232291666733,
      "v": 75
    },
    {
      "midi": 67,
      "hit": false,
      "t": 76293.04750000003,
      "d": 253.23257291666232,
      "v": 82
    },
    {
      "midi": 79,
      "hit": false,
      "t": 76422.35775000002,
      "d": 123.92232291666733,
      "v": 75
    },
    {
      "midi": 76,
      "hit": false,
      "t": 76551.66800000002,
      "d": 123.92232291666733,
      "v": 75
    },
    {
      "midi": 72,
      "hit": false,
      "t": 76551.66800000002,
      "d": 511.8530729166523,
      "v": 82
    },
    {
      "midi": 77,
      "hit": false,
      "t": 76680.97825000001,
      "d": 123.92232291666733,
      "v": 75
    },
    {
      "midi": 74,
      "hit": false,
      "t": 76810.28850000001,
      "d": 123.92232291666733,
      "v": 75
    },
    {
      "midi": 76,
      "hit": false,
      "t": 76939.59875,
      "d": 123.92232291666733,
      "v": 75
    },
    {
      "midi": 72,
      "hit": false,
      "t": 77068.909,
      "d": 123.92232291666733,
      "v": 75
    },
    {
      "midi": 74,
      "hit": false,
      "t": 77198.21925,
      "d": 123.92232291666733,
      "v": 75
    },
    {
      "midi": 71,
      "hit": false,
      "t": 77327.52949999999,
      "d": 123.92232291666733,
      "v": 75
    },
    {
      "midi": 72,
      "hit": false,
      "t": 77456.83974999998,
      "d": 123.92232291666733,
      "v": 75
    },
    {
      "midi": 69,
      "hit": false,
      "t": 77586.14999999998,
      "d": 123.92232291666733,
      "v": 75
    },
    {
      "midi": 60,
      "hit": false,
      "t": 77586.15000000014,
      "d": 511.85307291666686,
      "v": 82
    },
    {
      "midi": 52,
      "hit": false,
      "t": 77586.15000000014,
      "d": 1029.0940729166614,
      "v": 82
    },
    {
      "midi": 71,
      "hit": false,
      "t": 77715.46024999997,
      "d": 123.92232291666733,
      "v": 75
    },
    {
      "midi": 67,
      "hit": false,
      "t": 77844.77049999997,
      "d": 123.92232291666733,
      "v": 75
    },
    {
      "midi": 69,
      "hit": false,
      "t": 77974.08074999996,
      "d": 123.92232291666733,
      "v": 75
    },
    {
      "midi": 65,
      "hit": false,
      "t": 78103.39099999996,
      "d": 123.92232291666733,
      "v": 75
    },
    {
      "midi": 55,
      "hit": false,
      "t": 78103.39100000013,
      "d": 511.85307291666686,
      "v": 82
    },
    {
      "midi": 67,
      "hit": false,
      "t": 78232.70124999995,
      "d": 123.92232291666733,
      "v": 75
    },
    {
      "midi": 64,
      "hit": false,
      "t": 78362.01149999995,
      "d": 123.92232291666733,
      "v": 75
    },
    {
      "midi": 65,
      "hit": false,
      "t": 78491.32174999994,
      "d": 123.92232291666733,
      "v": 75
    },
    {
      "midi": 62,
      "hit": false,
      "t": 78620.63199999994,
      "d": 253.23257291666232,
      "v": 75
    },
    {
      "midi": 53,
      "hit": false,
      "t": 78620.63200000013,
      "d": 1029.0940729166614,
      "v": 76
    },
    {
      "midi": 57,
      "hit": false,
      "t": 78620.63200000013,
      "d": 1029.0940729166614,
      "v": 76
    },
    {
      "midi": 64,
      "hit": false,
      "t": 78879.25249999993,
      "d": 123.92232291666733,
      "v": 75
    },
    {
      "midi": 65,
      "hit": false,
      "t": 79008.56274999992,
      "d": 123.92232291666733,
      "v": 75
    },
    {
      "midi": 67,
      "hit": false,
      "t": 79137.87299999992,
      "d": 123.92232291666733,
      "v": 75
    },
    {
      "midi": 69,
      "hit": false,
      "t": 79267.18324999991,
      "d": 123.92232291666733,
      "v": 75
    },
    {
      "midi": 71,
      "hit": false,
      "t": 79396.49349999991,
      "d": 123.92232291666733,
      "v": 75
    },
    {
      "midi": 72,
      "hit": false,
      "t": 79525.8037499999,
      "d": 123.92232291666733,
      "v": 75
    },
    {
      "midi": 74,
      "hit": false,
      "t": 79655.1139999999,
      "d": 123.92232291666733,
      "v": 75
    },
    {
      "midi": 53,
      "hit": false,
      "t": 79655.11400000012,
      "d": 1029.0940729166614,
      "v": 82
    },
    {
      "midi": 55,
      "hit": false,
      "t": 79655.11400000012,
      "d": 1029.0940729166614,
      "v": 82
    },
    {
      "midi": 59,
      "hit": false,
      "t": 79655.11400000012,
      "d": 1029.0940729166614,
      "v": 82
    },
    {
      "midi": 76,
      "hit": false,
      "t": 79784.4242499999,
      "d": 123.92232291666733,
      "v": 75
    },
    {
      "midi": 77,
      "hit": false,
      "t": 79913.73449999989,
      "d": 123.92232291666733,
      "v": 75
    },
    {
      "midi": 79,
      "hit": false,
      "t": 80043.04474999988,
      "d": 123.92232291666733,
      "v": 75
    },
    {
      "midi": 81,
      "hit": false,
      "t": 80172.35499999988,
      "d": 123.92232291666733,
      "v": 82
    },
    {
      "midi": 83,
      "hit": false,
      "t": 80301.66524999987,
      "d": 123.92232291666733,
      "v": 82
    },
    {
      "midi": 84,
      "hit": false,
      "t": 80430.97549999987,
      "d": 123.92232291666733,
      "v": 82
    },
    {
      "midi": 86,
      "hit": false,
      "t": 80560.28574999986,
      "d": 123.92232291666733,
      "v": 82
    },
    {
      "midi": 88,
      "hit": false,
      "t": 80689.59599999986,
      "d": 123.92232291666733,
      "v": 90
    },
    {
      "midi": 52,
      "hit": false,
      "t": 80689.5960000001,
      "d": 511.85307291666686,
      "v": 90
    },
    {
      "midi": 55,
      "hit": false,
      "t": 80689.5960000001,
      "d": 511.85307291666686,
      "v": 90
    },
    {
      "midi": 60,
      "hit": false,
      "t": 80689.5960000001,
      "d": 511.85307291666686,
      "v": 90
    },
    {
      "midi": 84,
      "hit": false,
      "t": 80818.90624999985,
      "d": 123.92232291666733,
      "v": 90
    },
    {
      "midi": 83,
      "hit": false,
      "t": 80948.21649999985,
      "d": 123.92232291666733,
      "v": 90
    },
    {
      "midi": 84,
      "hit": false,
      "t": 81077.52674999984,
      "d": 123.92232291666733,
      "v": 90
    },
    {
      "midi": 83,
      "hit": false,
      "t": 81206.83699999984,
      "d": 123.92232291666733,
      "v": 90
    },
    {
      "midi": 53,
      "hit": false,
      "t": 81206.8370000001,
      "d": 511.85307291666686,
      "v": 90
    },
    {
      "midi": 60,
      "hit": false,
      "t": 81206.8370000001,
      "d": 1029.0940729166614,
      "v": 90
    },
    {
      "midi": 81,
      "hit": false,
      "t": 81336.14724999983,
      "d": 123.92232291666733,
      "v": 90
    },
    {
      "midi": 79,
      "hit": false,
      "t": 81465.45749999983,
      "d": 123.92232291666733,
      "v": 90
    },
    {
      "midi": 77,
      "hit": false,
      "t": 81594.76774999982,
      "d": 123.92232291666733,
      "v": 90
    },
    {
      "midi": 76,
      "hit": false,
      "t": 81724.07799999982,
      "d": 511.85307291666686,
      "v": 90
    },
    {
      "midi": 55,
      "hit": false,
      "t": 81724.0780000001,
      "d": 511.85307291666686,
      "v": 90
    },
    {
      "midi": 76,
      "hit": false,
      "t": 82241.31899999981,
      "d": 59.26719791666255,
      "v": 90
    },
    {
      "midi": 55,
      "hit": false,
      "t": 82241.31900000009,
      "d": 511.85307291666686,
      "v": 90
    },
    {
      "midi": 59,
      "hit": false,
      "t": 82241.31900000009,
      "d": 511.85307291666686,
      "v": 90
    },
    {
      "midi": 74,
      "hit": false,
      "t": 82305.9741249998,
      "d": 59.26719791666255,
      "v": 90
    },
    {
      "midi": 76,
      "hit": false,
      "t": 82370.6292499998,
      "d": 59.26719791666255,
      "v": 90
    },
    {
      "midi": 74,
      "hit": false,
      "t": 82435.28437499978,
      "d": 59.26719791666255,
      "v": 90
    },
    {
      "midi": 72,
      "hit": false,
      "t": 82499.93949999977,
      "d": 123.92232291666733,
      "v": 90
    },
    {
      "midi": 74,
      "hit": false,
      "t": 82629.24974999977,
      "d": 123.92232291666733,
      "v": 90
    },
    {
      "midi": 72,
      "hit": false,
      "t": 82758.55999999976,
      "d": 123.92232291666733,
      "v": 90
    },
    {
      "midi": 72,
      "hit": false,
      "t": 82887.87024999976,
      "d": 123.92232291666733,
      "v": 60
    },
    {
      "midi": 71,
      "hit": false,
      "t": 83017.18049999975,
      "d": 123.92232291666733,
      "v": 60
    },
    {
      "midi": 69,
      "hit": false,
      "t": 83146.49074999975,
      "d": 123.92232291666733,
      "v": 60
    },
    {
      "midi": 67,
      "hit": false,
      "t": 83275.80099999974,
      "d": 123.92232291666733,
      "v": 60
    },
    {
      "midi": 69,
      "hit": false,
      "t": 83405.11124999974,
      "d": 123.92232291666733,
      "v": 60
    },
    {
      "midi": 66,
      "hit": false,
      "t": 83534.42149999973,
      "d": 123.92232291666733,
      "v": 60
    },
    {
      "midi": 69,
      "hit": false,
      "t": 83663.73174999973,
      "d": 123.92232291666733,
      "v": 60
    },
    {
      "midi": 67,
      "hit": false,
      "t": 83793.04199999972,
      "d": 123.92232291666733,
      "v": 60
    },
    {
      "midi": 69,
      "hit": false,
      "t": 83922.35224999972,
      "d": 123.92232291666733,
      "v": 60
    },
    {
      "midi": 66,
      "hit": false,
      "t": 84051.66249999971,
      "d": 123.92232291666733,
      "v": 60
    },
    {
      "midi": 69,
      "hit": false,
      "t": 84180.97274999971,
      "d": 123.92232291666733,
      "v": 60
    },
    {
      "midi": 65,
      "hit": false,
      "t": 84310.2829999997,
      "d": 123.92232291666733,
      "v": 60
    },
    {
      "midi": 83,
      "hit": false,
      "t": 84310.2829999997,
      "d": 253.23257291666232,
      "v": 75
    },
    {
      "midi": 74,
      "hit": false,
      "t": 84310.2829999997,
      "d": 511.8530729166523,
      "v": 75
    },
    {
      "midi": 67,
      "hit": false,
      "t": 84439.5932499997,
      "d": 123.92232291666733,
      "v": 60
    },
    {
      "midi": 79,
      "hit": false,
      "t": 84568.9034999997,
      "d": 253.23257291666232,
      "v": 75
    },
    {
      "midi": 64,
      "hit": false,
      "t": 84827.52399999968,
      "d": 123.92232291666733,
      "v": 75
    },
    {
      "midi": 76,
      "hit": false,
      "t": 84827.52399999968,
      "d": 511.8530729166523,
      "v": 82
    },
    {
      "midi": 84,
      "hit": false,
      "t": 84827.52399999968,
      "d": 511.8530729166523,
      "v": 82
    },
    {
      "midi": 72,
      "hit": false,
      "t": 84956.83424999968,
      "d": 123.92232291666733,
      "v": 75
    },
    {
      "midi": 71,
      "hit": false,
      "t": 85086.14449999967,
      "d": 123.92232291666733,
      "v": 75
    },
    {
      "midi": 69,
      "hit": false,
      "t": 85215.45474999967,
      "d": 123.92232291666733,
      "v": 75
    },
    {
      "midi": 67,
      "hit": false,
      "t": 85344.76499999966,
      "d": 123.92232291666733,
      "v": 75
    },
    {
      "midi": 69,
      "hit": false,
      "t": 85474.07524999966,
      "d": 123.92232291666733,
      "v": 75
    },
    {
      "midi": 65,
      "hit": false,
      "t": 85603.38549999965,
      "d": 123.92232291666733,
      "v": 75
    },
    {
      "midi": 69,
      "hit": false,
      "t": 85732.69574999965,
      "d": 123.92232291666733,
      "v": 75
    },
    {
      "midi": 67,
      "hit": false,
      "t": 85862.00599999964,
      "d": 123.92232291666733,
      "v": 75
    },
    {
      "midi": 69,
      "hit": false,
      "t": 85991.31624999964,
      "d": 123.92232291666733,
      "v": 75
    },
    {
      "midi": 65,
      "hit": false,
      "t": 86120.62649999963,
      "d": 123.92232291666733,
      "v": 75
    },
    {
      "midi": 69,
      "hit": false,
      "t": 86249.93674999963,
      "d": 123.92232291666733,
      "v": 75
    },
    {
      "midi": 67,
      "hit": false,
      "t": 86379.24699999962,
      "d": 123.92232291666733,
      "v": 75
    },
    {
      "midi": 83,
      "hit": false,
      "t": 86379.24699999962,
      "d": 253.23257291666232,
      "v": 82
    },
    {
      "midi": 74,
      "hit": false,
      "t": 86379.24699999962,
      "d": 511.8530729166523,
      "v": 82
    },
    {
      "midi": 69,
      "hit": false,
      "t": 86508.55724999962,
      "d": 123.92232291666733,
      "v": 75
    },
    {
      "midi": 65,
      "hit": false,
      "t": 86637.86749999961,
      "d": 123.92232291666733,
      "v": 75
    },
    {
      "midi": 79,
      "hit": false,
      "t": 86637.86749999961,
      "d": 253.23257291666232,
      "v": 82
    },
    {
      "midi": 67,
      "hit": false,
      "t": 86767.17774999961,
      "d": 123.92232291666733,
      "v": 75
    },
    {
      "midi": 76,
      "hit": false,
      "t": 86896.4879999996,
      "d": 511.85307291666686,
      "v": 82
    },
    {
      "midi": 84,
      "hit": false,
      "t": 86896.4879999996,
      "d": 511.85307291666686,
      "v": 82
    },
    {
      "midi": 64,
      "hit": false,
      "t": 86896.48800000008,
      "d": 123.92232291666733,
      "v": 76
    },
    {
      "midi": 65,
      "hit": false,
      "t": 87025.79825000008,
      "d": 123.92232291666733,
      "v": 76
    },
    {
      "midi": 62,
      "hit": false,
      "t": 87155.10850000007,
      "d": 123.92232291666733,
      "v": 76
    },
    {
      "midi": 64,
      "hit": false,
      "t": 87284.41875000007,
      "d": 123.92232291666733,
      "v": 76
    },
    {
      "midi": 81,
      "hit": false,
      "t": 87413.7289999996,
      "d": 59.26719791666255,
      "v": 75
    },
    {
      "midi": 60,
      "hit": false,
      "t": 87413.72900000006,
      "d": 123.92232291666733,
      "v": 76
    },
    {
      "midi": 79,
      "hit": false,
      "t": 87478.38412499959,
      "d": 59.26719791666255,
      "v": 75
    },
    {
      "midi": 81,
      "hit": false,
      "t": 87543.03924999958,
      "d": 59.26719791666255,
      "v": 75
    },
    {
      "midi": 62,
      "hit": false,
      "t": 87543.03925000006,
      "d": 123.92232291666733,
      "v": 76
    },
    {
      "midi": 79,
      "hit": false,
      "t": 87607.69437499957,
      "d": 59.26719791666255,
      "v": 75
    },
    {
      "midi": 81,
      "hit": false,
      "t": 87672.34949999956,
      "d": 59.26719791666255,
      "v": 75
    },
    {
      "midi": 59,
      "hit": false,
      "t": 87672.34950000005,
      "d": 123.92232291666733,
      "v": 76
    },
    {
      "midi": 79,
      "hit": false,
      "t": 87737.00462499955,
      "d": 59.26719791666255,
      "v": 75
    },
    {
      "midi": 78,
      "hit": false,
      "t": 87801.65974999954,
      "d": 59.26719791666255,
      "v": 75
    },
    {
      "midi": 60,
      "hit": false,
      "t": 87801.65975000005,
      "d": 123.92232291666733,
      "v": 76
    },
    {
      "midi": 79,
      "hit": false,
      "t": 87866.31487499953,
      "d": 59.26719791666255,
      "v": 75
    },
    {
      "midi": 84,
      "hit": false,
      "t": 87930.96999999952,
      "d": 1029.0940729166032,
      "v": 82
    },
    {
      "midi": 57,
      "hit": false,
      "t": 87930.97000000004,
      "d": 123.92232291666733,
      "v": 76
    },
    {
      "midi": 59,
      "hit": false,
      "t": 88060.28025000004,
      "d": 123.92232291666733,
      "v": 76
    },
    {
      "midi": 55,
      "hit": false,
      "t": 88189.59050000003,
      "d": 123.92232291666733,
      "v": 76
    },
    {
      "midi": 57,
      "hit": false,
      "t": 88318.90075000003,
      "d": 123.92232291666733,
      "v": 76
    },
    {
      "midi": 77,
      "hit": false,
      "t": 88448.21099999952,
      "d": 59.26719791666255,
      "v": 75
    },
    {
      "midi": 53,
      "hit": false,
      "t": 88448.21100000002,
      "d": 123.92232291666733,
      "v": 76
    },
    {
      "midi": 76,
      "hit": false,
      "t": 88512.8661249995,
      "d": 59.26719791666255,
      "v": 75
    },
    {
      "midi": 77,
      "hit": false,
      "t": 88577.5212499995,
      "d": 59.26719791666255,
      "v": 75
    },
    {
      "midi": 55,
      "hit": false,
      "t": 88577.52125000002,
      "d": 123.92232291666733,
      "v": 76
    },
    {
      "midi": 76,
      "hit": false,
      "t": 88620.62466666616,
      "d": 59.26719791666255,
      "v": 75
    },
    {
      "midi": 77,
      "hit": false,
      "t": 88706.83149999949,
      "d": 59.26719791666255,
      "v": 75
    },
    {
      "midi": 52,
      "hit": false,
      "t": 88706.83150000001,
      "d": 123.92232291666733,
      "v": 76
    },
    {
      "midi": 76,
      "hit": false,
      "t": 88771.48662499948,
      "d": 59.26719791666255,
      "v": 75
    },
    {
      "midi": 74,
      "hit": false,
      "t": 88836.14174999947,
      "d": 59.26719791666255,
      "v": 75
    },
    {
      "midi": 53,
      "hit": false,
      "t": 88836.14175000001,
      "d": 123.92232291666733,
      "v": 76
    },
    {
      "midi": 76,
      "hit": false,
      "t": 88900.79687499946,
      "d": 59.26719791666255,
      "v": 75
    },
    {
      "midi": 81,
      "hit": false,
      "t": 88965.45199999945,
      "d": 511.85307291666686,
      "v": 81
    },
    {
      "midi": 77,
      "hit": false,
      "t": 88965.45199999945,
      "d": 1546.335072916656,
      "v": 81
    },
    {
      "midi": 50,
      "hit": false,
      "t": 88965.452,
      "d": 123.92232291666733,
      "v": 76
    },
    {
      "midi": 52,
      "hit": false,
      "t": 89094.76225,
      "d": 123.92232291666733,
      "v": 76
    },
    {
      "midi": 48,
      "hit": false,
      "t": 89224.0725,
      "d": 123.92232291666733,
      "v": 76
    },
    {
      "midi": 50,
      "hit": false,
      "t": 89353.38274999999,
      "d": 123.92232291666733,
      "v": 76
    },
    {
      "midi": 86,
      "hit": false,
      "t": 89482.69299999945,
      "d": 382.54282291667187,
      "v": 84
    },
    {
      "midi": 47,
      "hit": false,
      "t": 89482.69299999998,
      "d": 123.92232291666733,
      "v": 76
    },
    {
      "midi": 48,
      "hit": false,
      "t": 89612.00324999998,
      "d": 123.92232291666733,
      "v": 76
    },
    {
      "midi": 45,
      "hit": false,
      "t": 89741.31349999997,
      "d": 123.92232291666733,
      "v": 76
    },
    {
      "midi": 88,
      "hit": false,
      "t": 89870.62374999945,
      "d": 123.92232291666733,
      "v": 85
    },
    {
      "midi": 47,
      "hit": false,
      "t": 89870.62374999997,
      "d": 123.92232291666733,
      "v": 76
    },
    {
      "midi": 89,
      "hit": false,
      "t": 89999.93399999944,
      "d": 511.85307291666686,
      "v": 87
    },
    {
      "midi": 43,
      "hit": false,
      "t": 89999.93399999996,
      "d": 123.92232291666733,
      "v": 76
    },
    {
      "midi": 45,
      "hit": false,
      "t": 90129.24424999996,
      "d": 123.92232291666733,
      "v": 76
    },
    {
      "midi": 41,
      "hit": false,
      "t": 90258.55449999995,
      "d": 123.92232291666733,
      "v": 76
    },
    {
      "midi": 43,
      "hit": false,
      "t": 90387.86474999995,
      "d": 123.92232291666733,
      "v": 76
    },
    {
      "midi": 84,
      "hit": false,
      "t": 90517.17499999944,
      "d": 59.26719791666255,
      "v": 75
    },
    {
      "midi": 79,
      "hit": false,
      "t": 90517.17499999944,
      "d": 511.8530729165941,
      "v": 75
    },
    {
      "midi": 40,
      "hit": false,
      "t": 90517.17499999994,
      "d": 123.92232291666733,
      "v": 76
    },
    {
      "midi": 83,
      "hit": false,
      "t": 90581.83012499943,
      "d": 59.26719791666255,
      "v": 75
    },
    {
      "midi": 84,
      "hit": false,
      "t": 90646.48524999942,
      "d": 59.26719791666255,
      "v": 75
    },
    {
      "midi": 41,
      "hit": false,
      "t": 90646.48524999994,
      "d": 123.92232291666733,
      "v": 76
    },
    {
      "midi": 83,
      "hit": false,
      "t": 90711.1403749994,
      "d": 59.26719791666255,
      "v": 75
    },
    {
      "midi": 84,
      "hit": false,
      "t": 90775.7954999994,
      "d": 59.26719791666255,
      "v": 75
    },
    {
      "midi": 38,
      "hit": false,
      "t": 90775.79549999993,
      "d": 123.92232291666733,
      "v": 76
    },
    {
      "midi": 83,
      "hit": false,
      "t": 90840.45062499939,
      "d": 59.26719791666255,
      "v": 75
    },
    {
      "midi": 81,
      "hit": false,
      "t": 90905.10574999938,
      "d": 59.26719791666255,
      "v": 75
    },
    {
      "midi": 41,
      "hit": false,
      "t": 90905.10574999993,
      "d": 123.92232291666733,
      "v": 76
    },
    {
      "midi": 83,
      "hit": false,
      "t": 90969.76087499937,
      "d": 59.26719791666255,
      "v": 75
    },
    {
      "midi": 79,
      "hit": false,
      "t": 91034.41599999936,
      "d": 123.92232291666733,
      "v": 90
    },
    {
      "midi": 84,
      "hit": false,
      "t": 91034.41599999936,
      "d": 123.92232291666733,
      "v": 82
    },
    {
      "midi": 40,
      "hit": false,
      "t": 91034.41599999992,
      "d": 123.92232291666733,
      "v": 97
    },
    {
      "midi": 83,
      "hit": false,
      "t": 91163.72624999935,
      "d": 123.92232291666733,
      "v": 82
    },
    {
      "midi": 84,
      "hit": false,
      "t": 91293.03649999935,
      "d": 123.92232291666733,
      "v": 82
    },
    {
      "midi": 79,
      "hit": false,
      "t": 91422.34674999934,
      "d": 123.92232291666733,
      "v": 82
    },
    {
      "midi": 74,
      "hit": false,
      "t": 91551.65699999934,
      "d": 123.92232291666733,
      "v": 90
    },
    {
      "midi": 83,
      "hit": false,
      "t": 91551.65699999934,
      "d": 123.92232291666733,
      "v": 82
    },
    {
      "midi": 41,
      "hit": false,
      "t": 91551.65699999992,
      "d": 123.92232291666733,
      "v": 97
    },
    {
      "midi": 81,
      "hit": false,
      "t": 91680.96724999933,
      "d": 123.92232291666733,
      "v": 82
    },
    {
      "midi": 79,
      "hit": false,
      "t": 91810.27749999933,
      "d": 123.92232291666733,
      "v": 82
    },
    {
      "midi": 77,
      "hit": false,
      "t": 91939.58774999932,
      "d": 123.92232291666733,
      "v": 82
    },
    {
      "midi": 72,
      "hit": false,
      "t": 92068.89799999932,
      "d": 123.92232291666733,
      "v": 90
    },
    {
      "midi": 76,
      "hit": false,
      "t": 92068.89799999932,
      "d": 123.92232291666733,
      "v": 82
    },
    {
      "midi": 43,
      "hit": false,
      "t": 92068.89799999991,
      "d": 123.92232291666733,
      "v": 97
    },
    {
      "midi": 77,
      "hit": false,
      "t": 92198.20824999931,
      "d": 123.92232291666733,
      "v": 82
    },
    {
      "midi": 79,
      "hit": false,
      "t": 92327.5184999993,
      "d": 123.92232291666733,
      "v": 82
    },
    {
      "midi": 76,
      "hit": false,
      "t": 92456.8287499993,
      "d": 123.92232291666733,
      "v": 82
    },
    {
      "midi": 71,
      "hit": false,
      "t": 92586.1389999993,
      "d": 123.92232291666733,
      "v": 90
    },
    {
      "midi": 74,
      "hit": false,
      "t": 92586.1389999993,
      "d": 123.92232291666733,
      "v": 82
    },
    {
      "midi": 31,
      "hit": false,
      "t": 92586.13899999991,
      "d": 123.92232291666733,
      "v": 97
    },
    {
      "midi": 76,
      "hit": false,
      "t": 92715.44924999929,
      "d": 123.92232291666733,
      "v": 82
    },
    {
      "midi": 77,
      "hit": false,
      "t": 92844.75949999929,
      "d": 123.92232291666733,
      "v": 82
    },
    {
      "midi": 74,
      "hit": false,
      "t": 92974.06974999928,
      "d": 123.92232291666733,
      "v": 82
    },
    {
      "midi": 72,
      "hit": false,
      "t": 93103.37999999928,
      "d": 511.85307291666686,
      "v": 60
    },
    {
      "midi": 60,
      "hit": false,
      "t": 93103.3799999999,
      "d": 123.92232291666733,
      "v": 57
    },
    {
      "midi": 62,
      "hit": false,
      "t": 93232.6902499999,
      "d": 123.92232291666733,
      "v": 57
    },
    {
      "midi": 64,
      "hit": false,
      "t": 93362.0004999999,
      "d": 123.92232291666733,
      "v": 57
    },
    {
      "midi": 62,
      "hit": false,
      "t": 93491.31074999989,
      "d": 123.92232291666733,
      "v": 57
    },
    {
      "midi": 72,
      "hit": false,
      "t": 93620.62099999927,
      "d": 382.54282291667187,
      "v": 60
    },
    {
      "midi": 76,
      "hit": false,
      "t": 93620.62099999927,
      "d": 382.54282291667187,
      "v": 60
    },
    {
      "midi": 60,
      "hit": false,
      "t": 93620.62099999988,
      "d": 123.92232291666733,
      "v": 57
    },
    {
      "midi": 59,
      "hit": false,
      "t": 93749.93124999988,
      "d": 123.92232291666733,
      "v": 57
    },
    {
      "midi": 57,
      "hit": false,
      "t": 93879.24149999987,
      "d": 123.92232291666733,
      "v": 57
    },
    {
      "midi": 72,
      "hit": false,
      "t": 94008.55174999927,
      "d": 123.92232291666733,
      "v": 60
    },
    {
      "midi": 76,
      "hit": false,
      "t": 94008.55174999927,
      "d": 123.92232291666733,
      "v": 60
    },
    {
      "midi": 55,
      "hit": false,
      "t": 94008.55174999987,
      "d": 123.92232291666733,
      "v": 57
    },
    {
      "midi": 72,
      "hit": false,
      "t": 94137.86199999927,
      "d": 511.85307291666686,
      "v": 67
    },
    {
      "midi": 76,
      "hit": false,
      "t": 94137.86199999927,
      "d": 511.85307291666686,
      "v": 67
    },
    {
      "midi": 57,
      "hit": false,
      "t": 94137.86199999986,
      "d": 123.92232291666733,
      "v": 57
    },
    {
      "midi": 59,
      "hit": false,
      "t": 94267.17224999986,
      "d": 123.92232291666733,
      "v": 57
    },
    {
      "midi": 60,
      "hit": false,
      "t": 94396.48249999985,
      "d": 123.92232291666733,
      "v": 57
    },
    {
      "midi": 59,
      "hit": false,
      "t": 94525.79274999985,
      "d": 123.92232291666733,
      "v": 57
    },
    {
      "midi": 72,
      "hit": false,
      "t": 94655.10299999926,
      "d": 382.54282291667187,
      "v": 70
    },
    {
      "midi": 76,
      "hit": false,
      "t": 94655.10299999926,
      "d": 382.54282291667187,
      "v": 70
    },
    {
      "midi": 57,
      "hit": false,
      "t": 94655.10299999984,
      "d": 123.92232291666733,
      "v": 57
    },
    {
      "midi": 55,
      "hit": false,
      "t": 94784.41324999984,
      "d": 123.92232291666733,
      "v": 57
    },
    {
      "midi": 53,
      "hit": false,
      "t": 94913.72349999983,
      "d": 123.92232291666733,
      "v": 57
    },
    {
      "midi": 72,
      "hit": false,
      "t": 95043.03374999926,
      "d": 123.92232291666733,
      "v": 73
    },
    {
      "midi": 76,
      "hit": false,
      "t": 95043.03374999926,
      "d": 123.92232291666733,
      "v": 73
    },
    {
      "midi": 52,
      "hit": false,
      "t": 95043.03374999983,
      "d": 123.92232291666733,
      "v": 57
    },
    {
      "midi": 72,
      "hit": false,
      "t": 95172.34399999926,
      "d": 511.85307291666686,
      "v": 75
    },
    {
      "midi": 74,
      "hit": false,
      "t": 95172.34399999926,
      "d": 511.85307291666686,
      "v": 75
    },
    {
      "midi": 53,
      "hit": false,
      "t": 95172.34399999982,
      "d": 123.92232291666733,
      "v": 76
    },
    {
      "midi": 55,
      "hit": false,
      "t": 95301.65424999982,
      "d": 123.92232291666733,
      "v": 76
    },
    {
      "midi": 57,
      "hit": false,
      "t": 95430.96449999981,
      "d": 123.92232291666733,
      "v": 76
    },
    {
      "midi": 55,
      "hit": false,
      "t": 95560.27474999981,
      "d": 123.92232291666733,
      "v": 76
    },
    {
      "midi": 72,
      "hit": false,
      "t": 95689.58499999925,
      "d": 382.54282291667187,
      "v": 75
    },
    {
      "midi": 74,
      "hit": false,
      "t": 95689.58499999925,
      "d": 382.54282291667187,
      "v": 75
    },
    {
      "midi": 53,
      "hit": false,
      "t": 95689.5849999998,
      "d": 123.92232291666733,
      "v": 76
    },
    {
      "midi": 50,
      "hit": false,
      "t": 95818.8952499998,
      "d": 123.92232291666733,
      "v": 76
    },
    {
      "midi": 52,
      "hit": false,
      "t": 95948.20549999979,
      "d": 123.92232291666733,
      "v": 76
    },
    {
      "midi": 72,
      "hit": false,
      "t": 96077.51574999925,
      "d": 123.92232291666733,
      "v": 75
    },
    {
      "midi": 74,
      "hit": false,
      "t": 96077.51574999925,
      "d": 123.92232291666733,
      "v": 75
    },
    {
      "midi": 53,
      "hit": false,
      "t": 96077.51574999979,
      "d": 123.92232291666733,
      "v": 76
    },
    {
      "midi": 71,
      "hit": false,
      "t": 96206.82599999924,
      "d": 511.85307291666686,
      "v": 75
    },
    {
      "midi": 74,
      "hit": false,
      "t": 96206.82599999924,
      "d": 511.85307291666686,
      "v": 75
    },
    {
      "midi": 55,
      "hit": false,
      "t": 96206.82599999978,
      "d": 123.92232291666733,
      "v": 76
    },
    {
      "midi": 54,
      "hit": false,
      "t": 96336.13624999978,
      "d": 123.92232291666733,
      "v": 76
    },
    {
      "midi": 55,
      "hit": false,
      "t": 96465.44649999977,
      "d": 123.92232291666733,
      "v": 76
    },
    {
      "midi": 54,
      "hit": false,
      "t": 96594.75674999977,
      "d": 123.92232291666733,
      "v": 76
    },
    {
      "midi": 71,
      "hit": false,
      "t": 96724.06699999924,
      "d": 382.54282291667187,
      "v": 75
    },
    {
      "midi": 79,
      "hit": false,
      "t": 96724.06699999924,
      "d": 382.54282291667187,
      "v": 75
    },
    {
      "midi": 55,
      "hit": false,
      "t": 96724.06699999976,
      "d": 123.92232291666733,
      "v": 76
    },
    {
      "midi": 53,
      "hit": false,
      "t": 96853.37724999976,
      "d": 123.92232291666733,
      "v": 76
    },
    {
      "midi": 52,
      "hit": false,
      "t": 96982.68749999975,
      "d": 123.92232291666733,
      "v": 76
    },
    {
      "midi": 71,
      "hit": false,
      "t": 97111.99774999924,
      "d": 123.92232291666733,
      "v": 75
    },
    {
      "midi": 79,
      "hit": false,
      "t": 97111.99774999924,
      "d": 123.92232291666733,
      "v": 75
    },
    {
      "midi": 50,
      "hit": false,
      "t": 97111.99774999975,
      "d": 123.92232291666733,
      "v": 76
    },
    {
      "midi": 72,
      "hit": false,
      "t": 97241.30799999923,
      "d": 511.85307291666686,
      "v": 90
    },
    {
      "midi": 76,
      "hit": false,
      "t": 97241.30799999923,
      "d": 511.85307291666686,
      "v": 90
    },
    {
      "midi": 48,
      "hit": false,
      "t": 97241.30799999974,
      "d": 123.92232291666733,
      "v": 90
    },
    {
      "midi": 50,
      "hit": false,
      "t": 97370.61824999974,
      "d": 123.92232291666733,
      "v": 90
    },
    {
      "midi": 52,
      "hit": false,
      "t": 97499.92849999973,
      "d": 123.92232291666733,
      "v": 90
    },
    {
      "midi": 50,
      "hit": false,
      "t": 97629.23874999973,
      "d": 123.92232291666733,
      "v": 90
    },
    {
      "midi": 72,
      "hit": false,
      "t": 97758.54899999923,
      "d": 382.54282291667187,
      "v": 90
    },
    {
      "midi": 76,
      "hit": false,
      "t": 97758.54899999923,
      "d": 382.54282291667187,
      "v": 90
    },
    {
      "midi": 84,
      "hit": false,
      "t": 97758.54899999923,
      "d": 382.54282291667187,
      "v": 90
    },
    {
      "midi": 48,
      "hit": false,
      "t": 97758.54899999972,
      "d": 123.92232291666733,
      "v": 90
    },
    {
      "midi": 47,
      "hit": false,
      "t": 97887.85924999972,
      "d": 123.92232291666733,
      "v": 90
    },
    {
      "midi": 45,
      "hit": false,
      "t": 98017.16949999971,
      "d": 123.92232291666733,
      "v": 90
    },
    {
      "midi": 72,
      "hit": false,
      "t": 98146.47974999923,
      "d": 123.92232291666733,
      "v": 90
    },
    {
      "midi": 76,
      "hit": false,
      "t": 98146.47974999923,
      "d": 123.92232291666733,
      "v": 90
    },
    {
      "midi": 84,
      "hit": false,
      "t": 98146.47974999923,
      "d": 123.92232291666733,
      "v": 90
    },
    {
      "midi": 44,
      "hit": false,
      "t": 98146.47974999971,
      "d": 123.92232291666733,
      "v": 90
    },
    {
      "midi": 72,
      "hit": false,
      "t": 98275.78999999922,
      "d": 511.85307291666686,
      "v": 90
    },
    {
      "midi": 76,
      "hit": false,
      "t": 98275.78999999922,
      "d": 511.85307291666686,
      "v": 90
    },
    {
      "midi": 84,
      "hit": false,
      "t": 98275.78999999922,
      "d": 511.85307291666686,
      "v": 90
    },
    {
      "midi": 45,
      "hit": false,
      "t": 98275.7899999997,
      "d": 123.92232291666733,
      "v": 90
    },
    {
      "midi": 47,
      "hit": false,
      "t": 98405.1002499997,
      "d": 123.92232291666733,
      "v": 90
    },
    {
      "midi": 48,
      "hit": false,
      "t": 98534.41049999969,
      "d": 123.92232291666733,
      "v": 90
    },
    {
      "midi": 47,
      "hit": false,
      "t": 98663.72074999969,
      "d": 123.92232291666733,
      "v": 90
    },
    {
      "midi": 72,
      "hit": false,
      "t": 98793.03099999922,
      "d": 382.54282291667187,
      "v": 90
    },
    {
      "midi": 76,
      "hit": false,
      "t": 98793.03099999922,
      "d": 382.54282291667187,
      "v": 90
    },
    {
      "midi": 84,
      "hit": false,
      "t": 98793.03099999922,
      "d": 382.54282291667187,
      "v": 90
    },
    {
      "midi": 45,
      "hit": false,
      "t": 98793.03099999968,
      "d": 123.92232291666733,
      "v": 90
    },
    {
      "midi": 43,
      "hit": false,
      "t": 98922.34124999968,
      "d": 123.92232291666733,
      "v": 90
    },
    {
      "midi": 41,
      "hit": false,
      "t": 99051.65149999967,
      "d": 123.92232291666733,
      "v": 90
    },
    {
      "midi": 72,
      "hit": false,
      "t": 99180.96174999922,
      "d": 123.92232291666733,
      "v": 90
    },
    {
      "midi": 76,
      "hit": false,
      "t": 99180.96174999922,
      "d": 123.92232291666733,
      "v": 90
    },
    {
      "midi": 84,
      "hit": false,
      "t": 99180.96174999922,
      "d": 123.92232291666733,
      "v": 90
    },
    {
      "midi": 40,
      "hit": false,
      "t": 99180.96174999967,
      "d": 123.92232291666733,
      "v": 90
    },
    {
      "midi": 81,
      "hit": false,
      "t": 99310.27199999921,
      "d": 511.85307291666686,
      "v": 90
    },
    {
      "midi": 84,
      "hit": false,
      "t": 99310.27199999921,
      "d": 511.85307291666686,
      "v": 90
    },
    {
      "midi": 41,
      "hit": false,
      "t": 99310.27199999966,
      "d": 123.92232291666733,
      "v": 90
    },
    {
      "midi": 43,
      "hit": false,
      "t": 99439.58224999966,
      "d": 123.92232291666733,
      "v": 94
    },
    {
      "midi": 45,
      "hit": false,
      "t": 99568.89249999965,
      "d": 123.92232291666733,
      "v": 94
    },
    {
      "midi": 43,
      "hit": false,
      "t": 99698.20274999965,
      "d": 123.92232291666733,
      "v": 96
    },
    {
      "midi": 74,
      "hit": false,
      "t": 99827.5129999992,
      "d": 382.54282291667187,
      "v": 91
    },
    {
      "midi": 81,
      "hit": false,
      "t": 99827.5129999992,
      "d": 382.54282291667187,
      "v": 91
    },
    {
      "midi": 84,
      "hit": false,
      "t": 99827.5129999992,
      "d": 382.54282291667187,
      "v": 91
    },
    {
      "midi": 41,
      "hit": false,
      "t": 99827.51299999964,
      "d": 123.92232291666733,
      "v": 96
    },
    {
      "midi": 38,
      "hit": false,
      "t": 99956.82324999964,
      "d": 123.92232291666733,
      "v": 96
    },
    {
      "midi": 40,
      "hit": false,
      "t": 100086.13349999963,
      "d": 123.92232291666733,
      "v": 96
    },
    {
      "midi": 74,
      "hit": false,
      "t": 100215.4437499992,
      "d": 123.92232291666733,
      "v": 94
    },
    {
      "midi": 81,
      "hit": false,
      "t": 100215.4437499992,
      "d": 123.92232291666733,
      "v": 94
    },
    {
      "midi": 84,
      "hit": false,
      "t": 100215.4437499992,
      "d": 123.92232291666733,
      "v": 94
    },
    {
      "midi": 41,
      "hit": false,
      "t": 100215.44374999963,
      "d": 123.92232291666733,
      "v": 97
    },
    {
      "midi": 74,
      "hit": false,
      "t": 100344.7539999992,
      "d": 511.85307291666686,
      "v": 97
    },
    {
      "midi": 79,
      "hit": false,
      "t": 100344.7539999992,
      "d": 511.85307291666686,
      "v": 97
    },
    {
      "midi": 83,
      "hit": false,
      "t": 100344.7539999992,
      "d": 511.85307291666686,
      "v": 97
    },
    {
      "midi": 43,
      "hit": false,
      "t": 100344.75399999962,
      "d": 123.92232291666733,
      "v": 97
    },
    {
      "midi": 42,
      "hit": false,
      "t": 100474.06424999962,
      "d": 123.92232291666733,
      "v": 99
    },
    {
      "midi": 43,
      "hit": false,
      "t": 100603.37449999961,
      "d": 123.92232291666733,
      "v": 99
    },
    {
      "midi": 42,
      "hit": false,
      "t": 100732.68474999961,
      "d": 123.92232291666733,
      "v": 102
    },
    {
      "midi": 74,
      "hit": false,
      "t": 100861.9949999992,
      "d": 382.54282291667187,
      "v": 100
    },
    {
      "midi": 79,
      "hit": false,
      "t": 100861.9949999992,
      "d": 382.54282291667187,
      "v": 100
    },
    {
      "midi": 83,
      "hit": false,
      "t": 100861.9949999992,
      "d": 382.54282291667187,
      "v": 100
    },
    {
      "midi": 43,
      "hit": false,
      "t": 100861.9949999996,
      "d": 123.92232291666733,
      "v": 102
    },
    {
      "midi": 41,
      "hit": false,
      "t": 100991.3052499996,
      "d": 123.92232291666733,
      "v": 103
    },
    {
      "midi": 40,
      "hit": false,
      "t": 101120.61549999959,
      "d": 123.92232291666733,
      "v": 103
    },
    {
      "midi": 74,
      "hit": false,
      "t": 101249.9257499992,
      "d": 123.92232291666733,
      "v": 103
    },
    {
      "midi": 79,
      "hit": false,
      "t": 101249.9257499992,
      "d": 123.92232291666733,
      "v": 103
    },
    {
      "midi": 83,
      "hit": false,
      "t": 101249.9257499992,
      "d": 123.92232291666733,
      "v": 103
    },
    {
      "midi": 38,
      "hit": false,
      "t": 101249.92574999959,
      "d": 123.92232291666733,
      "v": 105
    },
    {
      "midi": 76,
      "hit": false,
      "t": 101379.23599999919,
      "d": 511.85307291666686,
      "v": 105
    },
    {
      "midi": 79,
      "hit": false,
      "t": 101379.23599999919,
      "d": 511.85307291666686,
      "v": 105
    },
    {
      "midi": 84,
      "hit": false,
      "t": 101379.23599999919,
      "d": 511.85307291666686,
      "v": 105
    },
    {
      "midi": 36,
      "hit": false,
      "t": 101379.23599999958,
      "d": 511.85307291666686,
      "v": 106
    },
    {
      "midi": 72,
      "hit": false,
      "t": 101896.47699999918,
      "d": 511.85307291666686,
      "v": 105
    },
    {
      "midi": 76,
      "hit": false,
      "t": 101896.47699999918,
      "d": 511.85307291666686,
      "v": 105
    },
    {
      "midi": 79,
      "hit": false,
      "t": 101896.47699999918,
      "d": 511.85307291666686,
      "v": 105
    },
    {
      "midi": 36,
      "hit": false,
      "t": 101896.47699999958,
      "d": 511.85307291666686,
      "v": 106
    },
    {
      "midi": 48,
      "hit": false,
      "t": 101896.47699999958,
      "d": 511.85307291666686,
      "v": 106
    },
    {
      "midi": 67,
      "hit": false,
      "t": 102413.71799999918,
      "d": 511.85307291666686,
      "v": 105
    },
    {
      "midi": 72,
      "hit": false,
      "t": 102413.71799999918,
      "d": 511.85307291666686,
      "v": 105
    },
    {
      "midi": 76,
      "hit": false,
      "t": 102413.71799999918,
      "d": 511.85307291666686,
      "v": 105
    },
    {
      "midi": 36,
      "hit": false,
      "t": 102413.71799999957,
      "d": 511.85307291666686,
      "v": 106
    },
    {
      "midi": 48,
      "hit": false,
      "t": 102413.71799999957,
      "d": 511.85307291666686,
      "v": 106
    },
    {
      "midi": 75,
      "hit": false,
      "t": 103448.19999999918,
      "d": 59.26719791666255,
      "v": 90
    },
    {
      "midi": 57,
      "hit": false,
      "t": 103448.19999999958,
      "d": 253.23257291666232,
      "v": 90
    },
    {
      "midi": 60,
      "hit": false,
      "t": 103448.19999999958,
      "d": 253.23257291666232,
      "v": 90
    },
    {
      "midi": 64,
      "hit": false,
      "t": 103448.19999999958,
      "d": 253.23257291666232,
      "v": 90
    },
    {
      "midi": 76,
      "hit": false,
      "t": 103512.85512499917,
      "d": 441.8100208333344,
      "v": 90
    },
    {
      "midi": 57,
      "hit": false,
      "t": 103706.82049999957,
      "d": 253.23257291666232,
      "v": 90
    },
    {
      "midi": 60,
      "hit": false,
      "t": 103706.82049999957,
      "d": 253.23257291666232,
      "v": 90
    },
    {
      "midi": 64,
      "hit": false,
      "t": 103706.82049999957,
      "d": 253.23257291666232,
      "v": 90
    },
    {
      "midi": 76,
      "hit": false,
      "t": 103965.44099999918,
      "d": 382.54282291667187,
      "v": 90
    },
    {
      "midi": 57,
      "hit": false,
      "t": 103965.44099999956,
      "d": 253.23257291666232,
      "v": 90
    },
    {
      "midi": 60,
      "hit": false,
      "t": 103965.44099999956,
      "d": 253.23257291666232,
      "v": 90
    },
    {
      "midi": 64,
      "hit": false,
      "t": 103965.44099999956,
      "d": 253.23257291666232,
      "v": 90
    },
    {
      "midi": 57,
      "hit": false,
      "t": 104224.06149999955,
      "d": 253.23257291666232,
      "v": 90
    },
    {
      "midi": 60,
      "hit": false,
      "t": 104224.06149999955,
      "d": 253.23257291666232,
      "v": 90
    },
    {
      "midi": 64,
      "hit": false,
      "t": 104224.06149999955,
      "d": 253.23257291666232,
      "v": 90
    },
    {
      "midi": 76,
      "hit": false,
      "t": 104353.37174999918,
      "d": 123.92232291666733,
      "v": 90
    },
    {
      "midi": 76,
      "hit": false,
      "t": 104482.68199999917,
      "d": 511.85307291666686,
      "v": 90
    },
    {
      "midi": 57,
      "hit": false,
      "t": 104482.68199999954,
      "d": 253.23257291666232,
      "v": 90
    },
    {
      "midi": 60,
      "hit": false,
      "t": 104482.68199999954,
      "d": 253.23257291666232,
      "v": 90
    },
    {
      "midi": 64,
      "hit": false,
      "t": 104482.68199999954,
      "d": 253.23257291666232,
      "v": 90
    },
    {
      "midi": 57,
      "hit": false,
      "t": 104741.30249999953,
      "d": 253.23257291666232,
      "v": 90
    },
    {
      "midi": 60,
      "hit": false,
      "t": 104741.30249999953,
      "d": 253.23257291666232,
      "v": 90
    },
    {
      "midi": 64,
      "hit": false,
      "t": 104741.30249999953,
      "d": 253.23257291666232,
      "v": 90
    },
    {
      "midi": 72,
      "hit": false,
      "t": 104999.92299999917,
      "d": 382.54282291667187,
      "v": 90
    },
    {
      "midi": 57,
      "hit": false,
      "t": 104999.92299999952,
      "d": 253.23257291666232,
      "v": 90
    },
    {
      "midi": 60,
      "hit": false,
      "t": 104999.92299999952,
      "d": 253.23257291666232,
      "v": 90
    },
    {
      "midi": 64,
      "hit": false,
      "t": 104999.92299999952,
      "d": 253.23257291666232,
      "v": 90
    },
    {
      "midi": 57,
      "hit": false,
      "t": 105258.5434999995,
      "d": 253.23257291666232,
      "v": 90
    },
    {
      "midi": 60,
      "hit": false,
      "t": 105258.5434999995,
      "d": 253.23257291666232,
      "v": 90
    },
    {
      "midi": 64,
      "hit": false,
      "t": 105258.5434999995,
      "d": 253.23257291666232,
      "v": 90
    },
    {
      "midi": 69,
      "hit": false,
      "t": 105387.85374999917,
      "d": 123.92232291666733,
      "v": 90
    },
    {
      "midi": 69,
      "hit": false,
      "t": 105517.16399999916,
      "d": 253.23257291666232,
      "v": 82
    },
    {
      "midi": 57,
      "hit": false,
      "t": 105517.1639999995,
      "d": 253.23257291666232,
      "v": 82
    },
    {
      "midi": 59,
      "hit": false,
      "t": 105517.1639999995,
      "d": 253.23257291666232,
      "v": 82
    },
    {
      "midi": 62,
      "hit": false,
      "t": 105517.1639999995,
      "d": 253.23257291666232,
      "v": 82
    },
    {
      "midi": 64,
      "hit": false,
      "t": 105517.1639999995,
      "d": 253.23257291666232,
      "v": 82
    },
    {
      "midi": 68,
      "hit": false,
      "t": 105775.78449999915,
      "d": 253.23257291666232,
      "v": 82
    },
    {
      "midi": 57,
      "hit": false,
      "t": 105775.78449999948,
      "d": 253.23257291666232,
      "v": 82
    },
    {
      "midi": 59,
      "hit": false,
      "t": 105775.78449999948,
      "d": 253.23257291666232,
      "v": 82
    },
    {
      "midi": 62,
      "hit": false,
      "t": 105775.78449999948,
      "d": 253.23257291666232,
      "v": 82
    },
    {
      "midi": 64,
      "hit": false,
      "t": 105775.78449999948,
      "d": 253.23257291666232,
      "v": 82
    },
    {
      "midi": 68,
      "hit": false,
      "t": 106034.40499999914,
      "d": 1029.0940729166614,
      "v": 82
    },
    {
      "midi": 57,
      "hit": false,
      "t": 106034.40499999947,
      "d": 253.23257291666232,
      "v": 82
    },
    {
      "midi": 59,
      "hit": false,
      "t": 106034.40499999947,
      "d": 253.23257291666232,
      "v": 82
    },
    {
      "midi": 62,
      "hit": false,
      "t": 106034.40499999947,
      "d": 253.23257291666232,
      "v": 82
    },
    {
      "midi": 64,
      "hit": false,
      "t": 106034.40499999947,
      "d": 253.23257291666232,
      "v": 82
    },
    {
      "midi": 57,
      "hit": false,
      "t": 106293.02549999946,
      "d": 253.23257291666232,
      "v": 82
    },
    {
      "midi": 59,
      "hit": false,
      "t": 106293.02549999946,
      "d": 253.23257291666232,
      "v": 82
    },
    {
      "midi": 62,
      "hit": false,
      "t": 106293.02549999946,
      "d": 253.23257291666232,
      "v": 82
    },
    {
      "midi": 64,
      "hit": false,
      "t": 106293.02549999946,
      "d": 253.23257291666232,
      "v": 82
    },
    {
      "midi": 57,
      "hit": false,
      "t": 106551.64599999945,
      "d": 253.23257291666232,
      "v": 82
    },
    {
      "midi": 59,
      "hit": false,
      "t": 106551.64599999945,
      "d": 253.23257291666232,
      "v": 82
    },
    {
      "midi": 62,
      "hit": false,
      "t": 106551.64599999945,
      "d": 253.23257291666232,
      "v": 82
    },
    {
      "midi": 64,
      "hit": false,
      "t": 106551.64599999945,
      "d": 253.23257291666232,
      "v": 82
    },
    {
      "midi": 57,
      "hit": false,
      "t": 106810.26649999944,
      "d": 253.23257291666232,
      "v": 82
    },
    {
      "midi": 59,
      "hit": false,
      "t": 106810.26649999944,
      "d": 253.23257291666232,
      "v": 82
    },
    {
      "midi": 62,
      "hit": false,
      "t": 106810.26649999944,
      "d": 253.23257291666232,
      "v": 82
    },
    {
      "midi": 64,
      "hit": false,
      "t": 106810.26649999944,
      "d": 253.23257291666232,
      "v": 82
    },
    {
      "midi": 74,
      "hit": false,
      "t": 107068.88699999913,
      "d": 382.54282291667187,
      "v": 82
    },
    {
      "midi": 57,
      "hit": false,
      "t": 107068.88699999943,
      "d": 253.23257291666232,
      "v": 82
    },
    {
      "midi": 59,
      "hit": false,
      "t": 107068.88699999943,
      "d": 253.23257291666232,
      "v": 82
    },
    {
      "midi": 62,
      "hit": false,
      "t": 107068.88699999943,
      "d": 253.23257291666232,
      "v": 82
    },
    {
      "midi": 64,
      "hit": false,
      "t": 107068.88699999943,
      "d": 253.23257291666232,
      "v": 82
    },
    {
      "midi": 57,
      "hit": false,
      "t": 107327.50749999942,
      "d": 253.23257291666232,
      "v": 82
    },
    {
      "midi": 59,
      "hit": false,
      "t": 107327.50749999942,
      "d": 253.23257291666232,
      "v": 82
    },
    {
      "midi": 62,
      "hit": false,
      "t": 107327.50749999942,
      "d": 253.23257291666232,
      "v": 82
    },
    {
      "midi": 64,
      "hit": false,
      "t": 107327.50749999942,
      "d": 253.23257291666232,
      "v": 82
    },
    {
      "midi": 71,
      "hit": false,
      "t": 107456.81774999913,
      "d": 123.92232291666733,
      "v": 82
    },
    {
      "midi": 76,
      "hit": false,
      "t": 107586.12799999912,
      "d": 511.85307291666686,
      "v": 75
    },
    {
      "midi": 57,
      "hit": false,
      "t": 107586.12799999941,
      "d": 253.23257291666232,
      "v": 76
    },
    {
      "midi": 60,
      "hit": false,
      "t": 107586.12799999941,
      "d": 253.23257291666232,
      "v": 76
    },
    {
      "midi": 64,
      "hit": false,
      "t": 107586.12799999941,
      "d": 253.23257291666232,
      "v": 76
    },
    {
      "midi": 57,
      "hit": false,
      "t": 107844.7484999994,
      "d": 253.23257291666232,
      "v": 76
    },
    {
      "midi": 60,
      "hit": false,
      "t": 107844.7484999994,
      "d": 253.23257291666232,
      "v": 76
    },
    {
      "midi": 64,
      "hit": false,
      "t": 107844.7484999994,
      "d": 253.23257291666232,
      "v": 76
    },
    {
      "midi": 76,
      "hit": false,
      "t": 108103.36899999912,
      "d": 382.54282291667187,
      "v": 75
    },
    {
      "midi": 57,
      "hit": false,
      "t": 108103.3689999994,
      "d": 253.23257291666232,
      "v": 76
    },
    {
      "midi": 60,
      "hit": false,
      "t": 108103.3689999994,
      "d": 253.23257291666232,
      "v": 76
    },
    {
      "midi": 64,
      "hit": false,
      "t": 108103.3689999994,
      "d": 253.23257291666232,
      "v": 76
    },
    {
      "midi": 57,
      "hit": false,
      "t": 108361.98949999938,
      "d": 253.23257291666232,
      "v": 76
    },
    {
      "midi": 60,
      "hit": false,
      "t": 108361.98949999938,
      "d": 253.23257291666232,
      "v": 76
    },
    {
      "midi": 64,
      "hit": false,
      "t": 108361.98949999938,
      "d": 253.23257291666232,
      "v": 76
    },
    {
      "midi": 76,
      "hit": false,
      "t": 108491.29974999912,
      "d": 123.92232291666733,
      "v": 75
    },
    {
      "midi": 76,
      "hit": false,
      "t": 108620.60999999911,
      "d": 253.23257291666232,
      "v": 75
    },
    {
      "midi": 57,
      "hit": false,
      "t": 108620.60999999937,
      "d": 253.23257291666232,
      "v": 76
    },
    {
      "midi": 60,
      "hit": false,
      "t": 108620.60999999937,
      "d": 253.23257291666232,
      "v": 76
    },
    {
      "midi": 64,
      "hit": false,
      "t": 108620.60999999937,
      "d": 253.23257291666232,
      "v": 76
    },
    {
      "midi": 77,
      "hit": false,
      "t": 108879.2304999991,
      "d": 123.92232291666733,
      "v": 75
    },
    {
      "midi": 57,
      "hit": false,
      "t": 108879.23049999936,
      "d": 253.23257291666232,
      "v": 76
    },
    {
      "midi": 60,
      "hit": false,
      "t": 108879.23049999936,
      "d": 253.23257291666232,
      "v": 76
    },
    {
      "midi": 64,
      "hit": false,
      "t": 108879.23049999936,
      "d": 253.23257291666232,
      "v": 76
    },
    {
      "midi": 76,
      "hit": false,
      "t": 109008.5407499991,
      "d": 123.92232291666733,
      "v": 75
    },
    {
      "midi": 74,
      "hit": false,
      "t": 109137.8509999991,
      "d": 123.92232291666733,
      "v": 75
    },
    {
      "midi": 57,
      "hit": false,
      "t": 109137.85099999935,
      "d": 253.23257291666232,
      "v": 76
    },
    {
      "midi": 60,
      "hit": false,
      "t": 109137.85099999935,
      "d": 253.23257291666232,
      "v": 76
    },
    {
      "midi": 64,
      "hit": false,
      "t": 109137.85099999935,
      "d": 253.23257291666232,
      "v": 76
    },
    {
      "midi": 72,
      "hit": false,
      "t": 109267.16124999909,
      "d": 123.92232291666733,
      "v": 75
    },
    {
      "midi": 71,
      "hit": false,
      "t": 109396.47149999908,
      "d": 123.92232291666733,
      "v": 75
    },
    {
      "midi": 57,
      "hit": false,
      "t": 109396.47149999934,
      "d": 253.23257291666232,
      "v": 76
    },
    {
      "midi": 60,
      "hit": false,
      "t": 109396.47149999934,
      "d": 253.23257291666232,
      "v": 76
    },
    {
      "midi": 64,
      "hit": false,
      "t": 109396.47149999934,
      "d": 253.23257291666232,
      "v": 76
    },
    {
      "midi": 69,
      "hit": false,
      "t": 109525.78174999908,
      "d": 123.92232291666733,
      "v": 75
    },
    {
      "midi": 69,
      "hit": false,
      "t": 109655.09199999907,
      "d": 253.23257291666232,
      "v": 75
    },
    {
      "midi": 57,
      "hit": false,
      "t": 109655.09199999933,
      "d": 253.23257291666232,
      "v": 76
    },
    {
      "midi": 59,
      "hit": false,
      "t": 109655.09199999933,
      "d": 253.23257291666232,
      "v": 76
    },
    {
      "midi": 62,
      "hit": false,
      "t": 109655.09199999933,
      "d": 253.23257291666232,
      "v": 76
    },
    {
      "midi": 64,
      "hit": false,
      "t": 109655.09199999933,
      "d": 253.23257291666232,
      "v": 76
    },
    {
      "midi": 68,
      "hit": false,
      "t": 109913.71249999906,
      "d": 253.23257291666232,
      "v": 75
    },
    {
      "midi": 57,
      "hit": false,
      "t": 109913.71249999932,
      "d": 253.23257291666232,
      "v": 76
    },
    {
      "midi": 59,
      "hit": false,
      "t": 109913.71249999932,
      "d": 253.23257291666232,
      "v": 76
    },
    {
      "midi": 62,
      "hit": false,
      "t": 109913.71249999932,
      "d": 253.23257291666232,
      "v": 76
    },
    {
      "midi": 64,
      "hit": false,
      "t": 109913.71249999932,
      "d": 253.23257291666232,
      "v": 76
    },
    {
      "midi": 68,
      "hit": false,
      "t": 110172.33299999905,
      "d": 1029.0940729166614,
      "v": 75
    },
    {
      "midi": 57,
      "hit": false,
      "t": 110172.33299999931,
      "d": 253.23257291666232,
      "v": 76
    },
    {
      "midi": 59,
      "hit": false,
      "t": 110172.33299999931,
      "d": 253.23257291666232,
      "v": 76
    },
    {
      "midi": 62,
      "hit": false,
      "t": 110172.33299999931,
      "d": 253.23257291666232,
      "v": 76
    },
    {
      "midi": 64,
      "hit": false,
      "t": 110172.33299999931,
      "d": 253.23257291666232,
      "v": 76
    },
    {
      "midi": 57,
      "hit": false,
      "t": 110430.9534999993,
      "d": 253.23257291666232,
      "v": 76
    },
    {
      "midi": 59,
      "hit": false,
      "t": 110430.9534999993,
      "d": 253.23257291666232,
      "v": 76
    },
    {
      "midi": 62,
      "hit": false,
      "t": 110430.9534999993,
      "d": 253.23257291666232,
      "v": 76
    },
    {
      "midi": 64,
      "hit": false,
      "t": 110430.9534999993,
      "d": 253.23257291666232,
      "v": 76
    },
    {
      "midi": 57,
      "hit": false,
      "t": 110689.5739999993,
      "d": 253.23257291666232,
      "v": 76
    },
    {
      "midi": 59,
      "hit": false,
      "t": 110689.5739999993,
      "d": 253.23257291666232,
      "v": 76
    },
    {
      "midi": 62,
      "hit": false,
      "t": 110689.5739999993,
      "d": 253.23257291666232,
      "v": 76
    },
    {
      "midi": 64,
      "hit": false,
      "t": 110689.5739999993,
      "d": 253.23257291666232,
      "v": 76
    },
    {
      "midi": 57,
      "hit": false,
      "t": 110948.19449999928,
      "d": 253.23257291666232,
      "v": 76
    },
    {
      "midi": 59,
      "hit": false,
      "t": 110948.19449999928,
      "d": 253.23257291666232,
      "v": 76
    },
    {
      "midi": 62,
      "hit": false,
      "t": 110948.19449999928,
      "d": 253.23257291666232,
      "v": 76
    },
    {
      "midi": 64,
      "hit": false,
      "t": 110948.19449999928,
      "d": 253.23257291666232,
      "v": 76
    },
    {
      "midi": 74,
      "hit": false,
      "t": 111206.81499999904,
      "d": 382.54282291667187,
      "v": 75
    },
    {
      "midi": 57,
      "hit": false,
      "t": 111206.81499999927,
      "d": 253.23257291666232,
      "v": 76
    },
    {
      "midi": 59,
      "hit": false,
      "t": 111206.81499999927,
      "d": 253.23257291666232,
      "v": 76
    },
    {
      "midi": 62,
      "hit": false,
      "t": 111206.81499999927,
      "d": 253.23257291666232,
      "v": 76
    },
    {
      "midi": 64,
      "hit": false,
      "t": 111206.81499999927,
      "d": 253.23257291666232,
      "v": 76
    },
    {
      "midi": 57,
      "hit": false,
      "t": 111465.43549999926,
      "d": 253.23257291666232,
      "v": 76
    },
    {
      "midi": 59,
      "hit": false,
      "t": 111465.43549999926,
      "d": 253.23257291666232,
      "v": 76
    },
    {
      "midi": 62,
      "hit": false,
      "t": 111465.43549999926,
      "d": 253.23257291666232,
      "v": 76
    },
    {
      "midi": 64,
      "hit": false,
      "t": 111465.43549999926,
      "d": 253.23257291666232,
      "v": 76
    },
    {
      "midi": 71,
      "hit": false,
      "t": 111594.74574999904,
      "d": 123.92232291666733,
      "v": 75
    },
    {
      "midi": 72,
      "hit": false,
      "t": 111724.05599999904,
      "d": 382.54282291667187,
      "v": 75
    },
    {
      "midi": 76,
      "hit": false,
      "t": 111724.05599999904,
      "d": 382.54282291667187,
      "v": 75
    },
    {
      "midi": 57,
      "hit": false,
      "t": 111724.05599999925,
      "d": 253.23257291666232,
      "v": 90
    },
    {
      "midi": 60,
      "hit": false,
      "t": 111724.05599999925,
      "d": 253.23257291666232,
      "v": 90
    },
    {
      "midi": 64,
      "hit": false,
      "t": 111724.05599999925,
      "d": 253.23257291666232,
      "v": 90
    },
    {
      "midi": 57,
      "hit": false,
      "t": 111982.67649999924,
      "d": 253.23257291666232,
      "v": 90
    },
    {
      "midi": 69,
      "hit": false,
      "t": 112111.98674999904,
      "d": 123.92232291666733,
      "v": 75
    },
    {
      "midi": 72,
      "hit": false,
      "t": 112111.98674999904,
      "d": 123.92232291666733,
      "v": 75
    },
    {
      "midi": 72,
      "hit": false,
      "t": 112241.29699999903,
      "d": 511.85307291666686,
      "v": 75
    },
    {
      "midi": 76,
      "hit": false,
      "t": 112241.29699999903,
      "d": 511.85307291666686,
      "v": 75
    },
    {
      "midi": 52,
      "hit": false,
      "t": 112241.29699999923,
      "d": 253.23257291666232,
      "v": 90
    },
    {
      "midi": 48,
      "hit": false,
      "t": 112499.91749999922,
      "d": 253.23257291666232,
      "v": 90
    },
    {
      "midi": 45,
      "hit": false,
      "t": 112758.53799999921,
      "d": 511.85307291666686,
      "v": 90
    },
    {
      "midi": 69,
      "hit": false,
      "t": 113017.15849999903,
      "d": 253.23257291666232,
      "v": 60
    },
    {
      "midi": 72,
      "hit": false,
      "t": 113017.15849999903,
      "d": 253.23257291666232,
      "v": 60
    },
    {
      "midi": 71,
      "hit": false,
      "t": 113275.77899999902,
      "d": 253.23257291666232,
      "v": 60
    },
    {
      "midi": 74,
      "hit": false,
      "t": 113275.77899999902,
      "d": 253.23257291666232,
      "v": 60
    },
    {
      "midi": 72,
      "hit": false,
      "t": 113534.39949999901,
      "d": 253.23257291666232,
      "v": 60
    },
    {
      "midi": 76,
      "hit": false,
      "t": 113534.39949999901,
      "d": 253.23257291666232,
      "v": 60
    },
    {
      "midi": 73,
      "hit": false,
      "t": 113793.019999999,
      "d": 511.85307291666686,
      "v": 90
    },
    {
      "midi": 76,
      "hit": false,
      "t": 113793.019999999,
      "d": 511.85307291666686,
      "v": 90
    },
    {
      "midi": 74,
      "hit": false,
      "t": 114310.260999999,
      "d": 253.23257291666232,
      "v": 90
    },
    {
      "midi": 77,
      "hit": false,
      "t": 114310.260999999,
      "d": 253.23257291666232,
      "v": 90
    },
    {
      "midi": 53,
      "hit": false,
      "t": 114310.26099999921,
      "d": 511.85307291666686,
      "v": 90
    },
    {
      "midi": 57,
      "hit": false,
      "t": 114310.26099999921,
      "d": 511.85307291666686,
      "v": 90
    },
    {
      "midi": 60,
      "hit": false,
      "t": 114310.26099999921,
      "d": 511.85307291666686,
      "v": 90
    },
    {
      "midi": 62,
      "hit": false,
      "t": 114310.26099999921,
      "d": 511.85307291666686,
      "v": 90
    },
    {
      "midi": 55,
      "hit": false,
      "t": 114827.50199999921,
      "d": 253.23257291666232,
      "v": 90
    },
    {
      "midi": 59,
      "hit": false,
      "t": 114827.50199999921,
      "d": 253.23257291666232,
      "v": 90
    },
    {
      "midi": 62,
      "hit": false,
      "t": 114827.50199999921,
      "d": 253.23257291666232,
      "v": 90
    },
    {
      "midi": 67,
      "hit": false,
      "t": 115086.122499999,
      "d": 253.23257291666232,
      "v": 60
    },
    {
      "midi": 71,
      "hit": false,
      "t": 115086.122499999,
      "d": 253.23257291666232,
      "v": 60
    },
    {
      "midi": 69,
      "hit": false,
      "t": 115344.74299999898,
      "d": 253.23257291666232,
      "v": 60
    },
    {
      "midi": 72,
      "hit": false,
      "t": 115344.74299999898,
      "d": 253.23257291666232,
      "v": 60
    },
    {
      "midi": 71,
      "hit": false,
      "t": 115603.36349999897,
      "d": 253.23257291666232,
      "v": 60
    },
    {
      "midi": 74,
      "hit": false,
      "t": 115603.36349999897,
      "d": 253.23257291666232,
      "v": 60
    },
    {
      "midi": 71,
      "hit": false,
      "t": 115861.98399999896,
      "d": 511.85307291666686,
      "v": 90
    },
    {
      "midi": 75,
      "hit": false,
      "t": 115861.98399999896,
      "d": 511.85307291666686,
      "v": 90
    },
    {
      "midi": 72,
      "hit": false,
      "t": 116379.22499999896,
      "d": 253.23257291666232,
      "v": 90
    },
    {
      "midi": 76,
      "hit": false,
      "t": 116379.22499999896,
      "d": 253.23257291666232,
      "v": 90
    },
    {
      "midi": 52,
      "hit": false,
      "t": 116379.2249999992,
      "d": 511.85307291666686,
      "v": 90
    },
    {
      "midi": 55,
      "hit": false,
      "t": 116379.2249999992,
      "d": 511.85307291666686,
      "v": 90
    },
    {
      "midi": 59,
      "hit": false,
      "t": 116379.2249999992,
      "d": 511.85307291666686,
      "v": 90
    },
    {
      "midi": 60,
      "hit": false,
      "t": 116379.2249999992,
      "d": 511.85307291666686,
      "v": 90
    },
    {
      "midi": 53,
      "hit": false,
      "t": 116896.4659999992,
      "d": 253.23257291666232,
      "v": 90
    },
    {
      "midi": 57,
      "hit": false,
      "t": 116896.4659999992,
      "d": 253.23257291666232,
      "v": 90
    },
    {
      "midi": 60,
      "hit": false,
      "t": 116896.4659999992,
      "d": 253.23257291666232,
      "v": 90
    },
    {
      "midi": 65,
      "hit": false,
      "t": 117155.08649999896,
      "d": 253.23257291666232,
      "v": 60
    },
    {
      "midi": 69,
      "hit": false,
      "t": 117155.08649999896,
      "d": 253.23257291666232,
      "v": 60
    },
    {
      "midi": 68,
      "hit": false,
      "t": 117413.70699999895,
      "d": 253.23257291666232,
      "v": 60
    },
    {
      "midi": 71,
      "hit": false,
      "t": 117413.70699999895,
      "d": 253.23257291666232,
      "v": 60
    },
    {
      "midi": 69,
      "hit": false,
      "t": 117672.32749999894,
      "d": 253.23257291666232,
      "v": 60
    },
    {
      "midi": 72,
      "hit": false,
      "t": 117672.32749999894,
      "d": 253.23257291666232,
      "v": 60
    },
    {
      "midi": 72,
      "hit": false,
      "t": 117930.94799999893,
      "d": 382.54282291667187,
      "v": 75
    },
    {
      "midi": 71,
      "hit": false,
      "t": 118318.87874999893,
      "d": 123.92232291666733,
      "v": 75
    },
    {
      "midi": 77,
      "hit": false,
      "t": 118448.18899999892,
      "d": 382.54282291667187,
      "v": 75
    },
    {
      "midi": 50,
      "hit": false,
      "t": 118448.1889999992,
      "d": 511.85307291666686,
      "v": 76
    },
    {
      "midi": 53,
      "hit": false,
      "t": 118448.1889999992,
      "d": 511.85307291666686,
      "v": 76
    },
    {
      "midi": 59,
      "hit": false,
      "t": 118448.1889999992,
      "d": 511.85307291666686,
      "v": 76
    },
    {
      "midi": 74,
      "hit": false,
      "t": 118836.11974999892,
      "d": 123.92232291666733,
      "v": 75
    },
    {
      "midi": 72,
      "hit": false,
      "t": 118965.42999999892,
      "d": 382.54282291667187,
      "v": 75
    },
    {
      "midi": 52,
      "hit": false,
      "t": 118965.42999999919,
      "d": 511.85307291666686,
      "v": 76
    },
    {
      "midi": 57,
      "hit": false,
      "t": 118965.42999999919,
      "d": 511.85307291666686,
      "v": 76
    },
    {
      "midi": 60,
      "hit": false,
      "t": 118965.42999999919,
      "d": 511.85307291666686,
      "v": 76
    },
    {
      "midi": 76,
      "hit": false,
      "t": 119353.36074999892,
      "d": 123.92232291666733,
      "v": 75
    },
    {
      "midi": 74,
      "hit": false,
      "t": 119482.67099999891,
      "d": 382.54282291667187,
      "v": 75
    },
    {
      "midi": 52,
      "hit": false,
      "t": 119482.67099999919,
      "d": 511.85307291666686,
      "v": 76
    },
    {
      "midi": 56,
      "hit": false,
      "t": 119482.67099999919,
      "d": 511.85307291666686,
      "v": 76
    },
    {
      "midi": 64,
      "hit": false,
      "t": 119482.67099999919,
      "d": 511.85307291666686,
      "v": 76
    },
    {
      "midi": 71,
      "hit": false,
      "t": 119870.60174999891,
      "d": 123.92232291666733,
      "v": 75
    },
    {
      "midi": 75,
      "hit": false,
      "t": 119999.9119999989,
      "d": 59.26719791666255,
      "v": 90
    },
    {
      "midi": 57,
      "hit": false,
      "t": 119999.91199999918,
      "d": 253.23257291666232,
      "v": 90
    },
    {
      "midi": 60,
      "hit": false,
      "t": 119999.91199999918,
      "d": 253.23257291666232,
      "v": 90
    },
    {
      "midi": 64,
      "hit": false,
      "t": 119999.91199999918,
      "d": 253.23257291666232,
      "v": 90
    },
    {
      "midi": 57,
      "hit": false,
      "t": 120258.53249999917,
      "d": 253.23257291666232,
      "v": 90
    },
    {
      "midi": 60,
      "hit": false,
      "t": 120258.53249999917,
      "d": 253.23257291666232,
      "v": 90
    },
    {
      "midi": 64,
      "hit": false,
      "t": 120258.53249999917,
      "d": 253.23257291666232,
      "v": 90
    },
    {
      "midi": 76,
      "hit": false,
      "t": 120517.1529999989,
      "d": 59.26719791666255,
      "v": 90
    },
    {
      "midi": 57,
      "hit": false,
      "t": 120517.15299999916,
      "d": 253.23257291666232,
      "v": 90
    },
    {
      "midi": 60,
      "hit": false,
      "t": 120517.15299999916,
      "d": 253.23257291666232,
      "v": 90
    },
    {
      "midi": 64,
      "hit": false,
      "t": 120517.15299999916,
      "d": 253.23257291666232,
      "v": 90
    },
    {
      "midi": 57,
      "hit": false,
      "t": 120775.77349999915,
      "d": 253.23257291666232,
      "v": 90
    },
    {
      "midi": 60,
      "hit": false,
      "t": 120775.77349999915,
      "d": 253.23257291666232,
      "v": 90
    },
    {
      "midi": 64,
      "hit": false,
      "t": 120775.77349999915,
      "d": 253.23257291666232,
      "v": 90
    },
    {
      "midi": 76,
      "hit": false,
      "t": 120905.0837499989,
      "d": 123.92232291666733,
      "v": 90
    },
    {
      "midi": 76,
      "hit": false,
      "t": 121034.3939999989,
      "d": 253.23257291666232,
      "v": 90
    },
    {
      "midi": 57,
      "hit": false,
      "t": 121034.39399999914,
      "d": 253.23257291666232,
      "v": 90
    },
    {
      "midi": 60,
      "hit": false,
      "t": 121034.39399999914,
      "d": 253.23257291666232,
      "v": 90
    },
    {
      "midi": 64,
      "hit": false,
      "t": 121034.39399999914,
      "d": 253.23257291666232,
      "v": 90
    },
    {
      "midi": 77,
      "hit": false,
      "t": 121293.01449999888,
      "d": 123.92232291666733,
      "v": 90
    },
    {
      "midi": 57,
      "hit": false,
      "t": 121293.01449999913,
      "d": 253.23257291666232,
      "v": 90
    },
    {
      "midi": 60,
      "hit": false,
      "t": 121293.01449999913,
      "d": 253.23257291666232,
      "v": 90
    },
    {
      "midi": 64,
      "hit": false,
      "t": 121293.01449999913,
      "d": 253.23257291666232,
      "v": 90
    },
    {
      "midi": 76,
      "hit": false,
      "t": 121422.32474999888,
      "d": 123.92232291666733,
      "v": 90
    },
    {
      "midi": 74,
      "hit": false,
      "t": 121551.63499999887,
      "d": 123.92232291666733,
      "v": 90
    },
    {
      "midi": 57,
      "hit": false,
      "t": 121551.63499999912,
      "d": 253.23257291666232,
      "v": 90
    },
    {
      "midi": 60,
      "hit": false,
      "t": 121551.63499999912,
      "d": 253.23257291666232,
      "v": 90
    },
    {
      "midi": 64,
      "hit": false,
      "t": 121551.63499999912,
      "d": 253.23257291666232,
      "v": 90
    },
    {
      "midi": 72,
      "hit": false,
      "t": 121680.94524999887,
      "d": 123.92232291666733,
      "v": 90
    },
    {
      "midi": 71,
      "hit": false,
      "t": 121810.25549999886,
      "d": 123.92232291666733,
      "v": 90
    },
    {
      "midi": 57,
      "hit": false,
      "t": 121810.25549999911,
      "d": 253.23257291666232,
      "v": 90
    },
    {
      "midi": 60,
      "hit": false,
      "t": 121810.25549999911,
      "d": 253.23257291666232,
      "v": 90
    },
    {
      "midi": 64,
      "hit": false,
      "t": 121810.25549999911,
      "d": 253.23257291666232,
      "v": 90
    },
    {
      "midi": 69,
      "hit": false,
      "t": 121939.56574999886,
      "d": 123.92232291666733,
      "v": 90
    },
    {
      "midi": 69,
      "hit": false,
      "t": 122068.87599999885,
      "d": 253.23257291666232,
      "v": 82
    },
    {
      "midi": 57,
      "hit": false,
      "t": 122068.8759999991,
      "d": 253.23257291666232,
      "v": 82
    },
    {
      "midi": 59,
      "hit": false,
      "t": 122068.8759999991,
      "d": 253.23257291666232,
      "v": 82
    },
    {
      "midi": 62,
      "hit": false,
      "t": 122068.8759999991,
      "d": 253.23257291666232,
      "v": 82
    },
    {
      "midi": 64,
      "hit": false,
      "t": 122068.8759999991,
      "d": 253.23257291666232,
      "v": 82
    },
    {
      "midi": 68,
      "hit": false,
      "t": 122327.49649999884,
      "d": 253.23257291666232,
      "v": 82
    },
    {
      "midi": 57,
      "hit": false,
      "t": 122327.49649999909,
      "d": 253.23257291666232,
      "v": 82
    },
    {
      "midi": 59,
      "hit": false,
      "t": 122327.49649999909,
      "d": 253.23257291666232,
      "v": 82
    },
    {
      "midi": 62,
      "hit": false,
      "t": 122327.49649999909,
      "d": 253.23257291666232,
      "v": 82
    },
    {
      "midi": 64,
      "hit": false,
      "t": 122327.49649999909,
      "d": 253.23257291666232,
      "v": 82
    },
    {
      "midi": 68,
      "hit": false,
      "t": 122586.11699999883,
      "d": 511.85307291666686,
      "v": 82
    },
    {
      "midi": 57,
      "hit": false,
      "t": 122586.11699999908,
      "d": 253.23257291666232,
      "v": 82
    },
    {
      "midi": 59,
      "hit": false,
      "t": 122586.11699999908,
      "d": 253.23257291666232,
      "v": 82
    },
    {
      "midi": 62,
      "hit": false,
      "t": 122586.11699999908,
      "d": 253.23257291666232,
      "v": 82
    },
    {
      "midi": 64,
      "hit": false,
      "t": 122586.11699999908,
      "d": 253.23257291666232,
      "v": 82
    },
    {
      "midi": 57,
      "hit": false,
      "t": 122844.73749999907,
      "d": 253.23257291666232,
      "v": 82
    },
    {
      "midi": 59,
      "hit": false,
      "t": 122844.73749999907,
      "d": 253.23257291666232,
      "v": 82
    },
    {
      "midi": 62,
      "hit": false,
      "t": 122844.73749999907,
      "d": 253.23257291666232,
      "v": 82
    },
    {
      "midi": 64,
      "hit": false,
      "t": 122844.73749999907,
      "d": 253.23257291666232,
      "v": 82
    },
    {
      "midi": 68,
      "hit": false,
      "t": 123103.35799999883,
      "d": 382.54282291667187,
      "v": 82
    },
    {
      "midi": 57,
      "hit": false,
      "t": 123103.35799999906,
      "d": 253.23257291666232,
      "v": 82
    },
    {
      "midi": 59,
      "hit": false,
      "t": 123103.35799999906,
      "d": 253.23257291666232,
      "v": 82
    },
    {
      "midi": 62,
      "hit": false,
      "t": 123103.35799999906,
      "d": 253.23257291666232,
      "v": 82
    },
    {
      "midi": 64,
      "hit": false,
      "t": 123103.35799999906,
      "d": 253.23257291666232,
      "v": 82
    },
    {
      "midi": 57,
      "hit": false,
      "t": 123361.97849999905,
      "d": 253.23257291666232,
      "v": 82
    },
    {
      "midi": 59,
      "hit": false,
      "t": 123361.97849999905,
      "d": 253.23257291666232,
      "v": 82
    },
    {
      "midi": 62,
      "hit": false,
      "t": 123361.97849999905,
      "d": 253.23257291666232,
      "v": 82
    },
    {
      "midi": 64,
      "hit": false,
      "t": 123361.97849999905,
      "d": 253.23257291666232,
      "v": 82
    },
    {
      "midi": 68,
      "hit": false,
      "t": 123491.28874999883,
      "d": 123.92232291666733,
      "v": 82
    },
    {
      "midi": 74,
      "hit": false,
      "t": 123620.59899999882,
      "d": 382.54282291667187,
      "v": 82
    },
    {
      "midi": 57,
      "hit": false,
      "t": 123620.59899999904,
      "d": 253.23257291666232,
      "v": 82
    },
    {
      "midi": 59,
      "hit": false,
      "t": 123620.59899999904,
      "d": 253.23257291666232,
      "v": 82
    },
    {
      "midi": 62,
      "hit": false,
      "t": 123620.59899999904,
      "d": 253.23257291666232,
      "v": 82
    },
    {
      "midi": 64,
      "hit": false,
      "t": 123620.59899999904,
      "d": 253.23257291666232,
      "v": 82
    },
    {
      "midi": 57,
      "hit": false,
      "t": 123879.21949999903,
      "d": 253.23257291666232,
      "v": 82
    },
    {
      "midi": 59,
      "hit": false,
      "t": 123879.21949999903,
      "d": 253.23257291666232,
      "v": 82
    },
    {
      "midi": 62,
      "hit": false,
      "t": 123879.21949999903,
      "d": 253.23257291666232,
      "v": 82
    },
    {
      "midi": 64,
      "hit": false,
      "t": 123879.21949999903,
      "d": 253.23257291666232,
      "v": 82
    },
    {
      "midi": 71,
      "hit": false,
      "t": 124008.52974999882,
      "d": 123.92232291666733,
      "v": 82
    },
    {
      "midi": 76,
      "hit": false,
      "t": 124137.83999999882,
      "d": 511.85307291666686,
      "v": 75
    },
    {
      "midi": 57,
      "hit": false,
      "t": 124137.83999999902,
      "d": 253.23257291666232,
      "v": 76
    },
    {
      "midi": 60,
      "hit": false,
      "t": 124137.83999999902,
      "d": 253.23257291666232,
      "v": 76
    },
    {
      "midi": 64,
      "hit": false,
      "t": 124137.83999999902,
      "d": 253.23257291666232,
      "v": 76
    },
    {
      "midi": 57,
      "hit": false,
      "t": 124396.46049999901,
      "d": 253.23257291666232,
      "v": 76
    },
    {
      "midi": 60,
      "hit": false,
      "t": 124396.46049999901,
      "d": 253.23257291666232,
      "v": 76
    },
    {
      "midi": 64,
      "hit": false,
      "t": 124396.46049999901,
      "d": 253.23257291666232,
      "v": 76
    },
    {
      "midi": 76,
      "hit": false,
      "t": 124655.08099999881,
      "d": 382.54282291667187,
      "v": 75
    },
    {
      "midi": 57,
      "hit": false,
      "t": 124655.080999999,
      "d": 253.23257291666232,
      "v": 76
    },
    {
      "midi": 60,
      "hit": false,
      "t": 124655.080999999,
      "d": 253.23257291666232,
      "v": 76
    },
    {
      "midi": 64,
      "hit": false,
      "t": 124655.080999999,
      "d": 253.23257291666232,
      "v": 76
    },
    {
      "midi": 57,
      "hit": false,
      "t": 124913.70149999899,
      "d": 253.23257291666232,
      "v": 76
    },
    {
      "midi": 60,
      "hit": false,
      "t": 124913.70149999899,
      "d": 253.23257291666232,
      "v": 76
    },
    {
      "midi": 64,
      "hit": false,
      "t": 124913.70149999899,
      "d": 253.23257291666232,
      "v": 76
    },
    {
      "midi": 76,
      "hit": false,
      "t": 125043.01174999881,
      "d": 123.92232291666733,
      "v": 75
    },
    {
      "midi": 75,
      "hit": false,
      "t": 125172.3219999988,
      "d": 123.92232291666733,
      "v": 75
    },
    {
      "midi": 57,
      "hit": false,
      "t": 125172.32199999898,
      "d": 253.23257291666232,
      "v": 76
    },
    {
      "midi": 60,
      "hit": false,
      "t": 125172.32199999898,
      "d": 253.23257291666232,
      "v": 76
    },
    {
      "midi": 64,
      "hit": false,
      "t": 125172.32199999898,
      "d": 253.23257291666232,
      "v": 76
    },
    {
      "midi": 76,
      "hit": false,
      "t": 125301.6322499988,
      "d": 123.92232291666733,
      "v": 75
    },
    {
      "midi": 77,
      "hit": false,
      "t": 125430.9424999988,
      "d": 123.92232291666733,
      "v": 75
    },
    {
      "midi": 57,
      "hit": false,
      "t": 125430.94249999897,
      "d": 253.23257291666232,
      "v": 76
    },
    {
      "midi": 60,
      "hit": false,
      "t": 125430.94249999897,
      "d": 253.23257291666232,
      "v": 76
    },
    {
      "midi": 64,
      "hit": false,
      "t": 125430.94249999897,
      "d": 253.23257291666232,
      "v": 76
    },
    {
      "midi": 76,
      "hit": false,
      "t": 125560.25274999879,
      "d": 123.92232291666733,
      "v": 75
    },
    {
      "midi": 74,
      "hit": false,
      "t": 125689.56299999879,
      "d": 123.92232291666733,
      "v": 75
    },
    {
      "midi": 57,
      "hit": false,
      "t": 125689.56299999896,
      "d": 253.23257291666232,
      "v": 76
    },
    {
      "midi": 60,
      "hit": false,
      "t": 125689.56299999896,
      "d": 253.23257291666232,
      "v": 76
    },
    {
      "midi": 64,
      "hit": false,
      "t": 125689.56299999896,
      "d": 253.23257291666232,
      "v": 76
    },
    {
      "midi": 72,
      "hit": false,
      "t": 125818.87324999878,
      "d": 123.92232291666733,
      "v": 75
    },
    {
      "midi": 71,
      "hit": false,
      "t": 125948.18349999878,
      "d": 123.92232291666733,
      "v": 75
    },
    {
      "midi": 57,
      "hit": false,
      "t": 125948.18349999895,
      "d": 253.23257291666232,
      "v": 76
    },
    {
      "midi": 60,
      "hit": false,
      "t": 125948.18349999895,
      "d": 253.23257291666232,
      "v": 76
    },
    {
      "midi": 64,
      "hit": false,
      "t": 125948.18349999895,
      "d": 253.23257291666232,
      "v": 76
    },
    {
      "midi": 69,
      "hit": false,
      "t": 126077.49374999877,
      "d": 123.92232291666733,
      "v": 75
    },
    {
      "midi": 72,
      "hit": false,
      "t": 126206.80399999877,
      "d": 253.23257291666232,
      "v": 75
    },
    {
      "midi": 55,
      "hit": false,
      "t": 126206.80399999894,
      "d": 253.23257291666232,
      "v": 76
    },
    {
      "midi": 58,
      "hit": false,
      "t": 126206.80399999894,
      "d": 253.23257291666232,
      "v": 76
    },
    {
      "midi": 60,
      "hit": false,
      "t": 126206.80399999894,
      "d": 253.23257291666232,
      "v": 76
    },
    {
      "midi": 64,
      "hit": false,
      "t": 126206.80399999894,
      "d": 253.23257291666232,
      "v": 76
    },
    {
      "midi": 70,
      "hit": false,
      "t": 126465.42449999876,
      "d": 253.23257291666232,
      "v": 75
    },
    {
      "midi": 55,
      "hit": false,
      "t": 126465.42449999893,
      "d": 253.23257291666232,
      "v": 76
    },
    {
      "midi": 58,
      "hit": false,
      "t": 126465.42449999893,
      "d": 253.23257291666232,
      "v": 76
    },
    {
      "midi": 60,
      "hit": false,
      "t": 126465.42449999893,
      "d": 253.23257291666232,
      "v": 76
    },
    {
      "midi": 64,
      "hit": false,
      "t": 126465.42449999893,
      "d": 253.23257291666232,
      "v": 76
    },
    {
      "midi": 70,
      "hit": false,
      "t": 126724.04499999875,
      "d": 511.85307291666686,
      "v": 75
    },
    {
      "midi": 55,
      "hit": false,
      "t": 126724.04499999892,
      "d": 253.23257291666232,
      "v": 76
    },
    {
      "midi": 58,
      "hit": false,
      "t": 126724.04499999892,
      "d": 253.23257291666232,
      "v": 76
    },
    {
      "midi": 60,
      "hit": false,
      "t": 126724.04499999892,
      "d": 253.23257291666232,
      "v": 76
    },
    {
      "midi": 64,
      "hit": false,
      "t": 126724.04499999892,
      "d": 253.23257291666232,
      "v": 76
    },
    {
      "midi": 55,
      "hit": false,
      "t": 126982.66549999891,
      "d": 253.23257291666232,
      "v": 76
    },
    {
      "midi": 58,
      "hit": false,
      "t": 126982.66549999891,
      "d": 253.23257291666232,
      "v": 76
    },
    {
      "midi": 60,
      "hit": false,
      "t": 126982.66549999891,
      "d": 253.23257291666232,
      "v": 76
    },
    {
      "midi": 64,
      "hit": false,
      "t": 126982.66549999891,
      "d": 253.23257291666232,
      "v": 76
    },
    {
      "midi": 70,
      "hit": false,
      "t": 127241.28599999874,
      "d": 382.54282291667187,
      "v": 75
    },
    {
      "midi": 55,
      "hit": false,
      "t": 127241.2859999989,
      "d": 253.23257291666232,
      "v": 76
    },
    {
      "midi": 58,
      "hit": false,
      "t": 127241.2859999989,
      "d": 253.23257291666232,
      "v": 76
    },
    {
      "midi": 60,
      "hit": false,
      "t": 127241.2859999989,
      "d": 253.23257291666232,
      "v": 76
    },
    {
      "midi": 64,
      "hit": false,
      "t": 127241.2859999989,
      "d": 253.23257291666232,
      "v": 76
    },
    {
      "midi": 55,
      "hit": false,
      "t": 127499.90649999889,
      "d": 253.23257291666232,
      "v": 76
    },
    {
      "midi": 58,
      "hit": false,
      "t": 127499.90649999889,
      "d": 253.23257291666232,
      "v": 76
    },
    {
      "midi": 60,
      "hit": false,
      "t": 127499.90649999889,
      "d": 253.23257291666232,
      "v": 76
    },
    {
      "midi": 64,
      "hit": false,
      "t": 127499.90649999889,
      "d": 253.23257291666232,
      "v": 76
    },
    {
      "midi": 76,
      "hit": false,
      "t": 127629.21674999874,
      "d": 123.92232291666733,
      "v": 75
    },
    {
      "midi": 79,
      "hit": false,
      "t": 127758.52699999874,
      "d": 382.54282291667187,
      "v": 79
    },
    {
      "midi": 55,
      "hit": false,
      "t": 127758.52699999888,
      "d": 253.23257291666232,
      "v": 76
    },
    {
      "midi": 58,
      "hit": false,
      "t": 127758.52699999888,
      "d": 253.23257291666232,
      "v": 76
    },
    {
      "midi": 60,
      "hit": false,
      "t": 127758.52699999888,
      "d": 253.23257291666232,
      "v": 76
    },
    {
      "midi": 64,
      "hit": false,
      "t": 127758.52699999888,
      "d": 253.23257291666232,
      "v": 76
    },
    {
      "midi": 55,
      "hit": false,
      "t": 128017.14749999887,
      "d": 253.23257291666232,
      "v": 76
    },
    {
      "midi": 58,
      "hit": false,
      "t": 128017.14749999887,
      "d": 253.23257291666232,
      "v": 76
    },
    {
      "midi": 60,
      "hit": false,
      "t": 128017.14749999887,
      "d": 253.23257291666232,
      "v": 76
    },
    {
      "midi": 64,
      "hit": false,
      "t": 128017.14749999887,
      "d": 253.23257291666232,
      "v": 76
    },
    {
      "midi": 82,
      "hit": false,
      "t": 128146.45774999874,
      "d": 123.92232291666733,
      "v": 82
    },
    {
      "midi": 82,
      "hit": false,
      "t": 128275.76799999873,
      "d": 253.23257291666232,
      "v": 82
    },
    {
      "midi": 53,
      "hit": false,
      "t": 128275.76799999886,
      "d": 253.23257291666232,
      "v": 76
    },
    {
      "midi": 60,
      "hit": false,
      "t": 128275.76799999886,
      "d": 253.23257291666232,
      "v": 76
    },
    {
      "midi": 65,
      "hit": false,
      "t": 128275.76799999886,
      "d": 253.23257291666232,
      "v": 76
    },
    {
      "midi": 81,
      "hit": false,
      "t": 128534.38849999872,
      "d": 253.23257291666232,
      "v": 79
    },
    {
      "midi": 53,
      "hit": false,
      "t": 128534.38849999885,
      "d": 253.23257291666232,
      "v": 76
    },
    {
      "midi": 60,
      "hit": false,
      "t": 128534.38849999885,
      "d": 253.23257291666232,
      "v": 76
    },
    {
      "midi": 65,
      "hit": false,
      "t": 128534.38849999885,
      "d": 253.23257291666232,
      "v": 76
    },
    {
      "midi": 77,
      "hit": false,
      "t": 128793.00899999871,
      "d": 253.23257291666232,
      "v": 75
    },
    {
      "midi": 53,
      "hit": false,
      "t": 128793.00899999884,
      "d": 253.23257291666232,
      "v": 76
    },
    {
      "midi": 57,
      "hit": false,
      "t": 128793.00899999884,
      "d": 253.23257291666232,
      "v": 76
    },
    {
      "midi": 62,
      "hit": false,
      "t": 128793.00899999884,
      "d": 253.23257291666232,
      "v": 76
    },
    {
      "midi": 74,
      "hit": false,
      "t": 129051.6294999987,
      "d": 253.23257291666232,
      "v": 75
    },
    {
      "midi": 53,
      "hit": false,
      "t": 129051.62949999883,
      "d": 253.23257291666232,
      "v": 76
    },
    {
      "midi": 57,
      "hit": false,
      "t": 129051.62949999883,
      "d": 253.23257291666232,
      "v": 76
    },
    {
      "midi": 62,
      "hit": false,
      "t": 129051.62949999883,
      "d": 253.23257291666232,
      "v": 76
    },
    {
      "midi": 74,
      "hit": false,
      "t": 129310.24999999869,
      "d": 253.23257291666232,
      "v": 75
    },
    {
      "midi": 52,
      "hit": false,
      "t": 129310.24999999882,
      "d": 253.23257291666232,
      "v": 76
    },
    {
      "midi": 55,
      "hit": false,
      "t": 129310.24999999882,
      "d": 253.23257291666232,
      "v": 76
    },
    {
      "midi": 57,
      "hit": false,
      "t": 129310.24999999882,
      "d": 253.23257291666232,
      "v": 76
    },
    {
      "midi": 73,
      "hit": false,
      "t": 129568.87049999868,
      "d": 253.23257291666232,
      "v": 75
    },
    {
      "midi": 52,
      "hit": false,
      "t": 129568.87049999881,
      "d": 253.23257291666232,
      "v": 76
    },
    {
      "midi": 55,
      "hit": false,
      "t": 129568.87049999881,
      "d": 253.23257291666232,
      "v": 76
    },
    {
      "midi": 57,
      "hit": false,
      "t": 129568.87049999881,
      "d": 253.23257291666232,
      "v": 76
    },
    {
      "midi": 76,
      "hit": false,
      "t": 129827.49099999867,
      "d": 253.23257291666232,
      "v": 75
    },
    {
      "midi": 52,
      "hit": false,
      "t": 129827.4909999988,
      "d": 253.23257291666232,
      "v": 76
    },
    {
      "midi": 57,
      "hit": false,
      "t": 129827.4909999988,
      "d": 253.23257291666232,
      "v": 76
    },
    {
      "midi": 60,
      "hit": false,
      "t": 129827.4909999988,
      "d": 253.23257291666232,
      "v": 76
    },
    {
      "midi": 79,
      "hit": false,
      "t": 130086.11149999866,
      "d": 253.23257291666232,
      "v": 75
    },
    {
      "midi": 52,
      "hit": false,
      "t": 130086.11149999879,
      "d": 253.23257291666232,
      "v": 76
    },
    {
      "midi": 57,
      "hit": false,
      "t": 130086.11149999879,
      "d": 253.23257291666232,
      "v": 76
    },
    {
      "midi": 60,
      "hit": false,
      "t": 130086.11149999879,
      "d": 253.23257291666232,
      "v": 76
    },
    {
      "midi": 79,
      "hit": false,
      "t": 130344.73199999865,
      "d": 253.23257291666232,
      "v": 75
    },
    {
      "midi": 50,
      "hit": false,
      "t": 130344.73199999878,
      "d": 511.85307291666686,
      "v": 76
    },
    {
      "midi": 57,
      "hit": false,
      "t": 130344.73199999878,
      "d": 511.85307291666686,
      "v": 76
    },
    {
      "midi": 62,
      "hit": false,
      "t": 130344.73199999878,
      "d": 511.85307291666686,
      "v": 76
    },
    {
      "midi": 78,
      "hit": false,
      "t": 130603.35249999864,
      "d": 253.23257291666232,
      "v": 75
    },
    {
      "midi": 47,
      "hit": false,
      "t": 130861.97299999878,
      "d": 511.8530729166523,
      "v": 76
    },
    {
      "midi": 50,
      "hit": false,
      "t": 130861.97299999878,
      "d": 511.8530729166523,
      "v": 76
    },
    {
      "midi": 55,
      "hit": false,
      "t": 130861.97299999878,
      "d": 511.8530729166523,
      "v": 76
    },
    {
      "midi": 77,
      "hit": false,
      "t": 131120.59349999865,
      "d": 253.23257291666232,
      "v": 75
    },
    {
      "midi": 48,
      "hit": false,
      "t": 131379.21399999876,
      "d": 511.8530729166523,
      "v": 76
    },
    {
      "midi": 55,
      "hit": false,
      "t": 131379.21399999876,
      "d": 511.8530729166523,
      "v": 76
    },
    {
      "midi": 75,
      "hit": false,
      "t": 131637.83449999866,
      "d": 253.23257291666232,
      "v": 75
    },
    {
      "midi": 57,
      "hit": false,
      "t": 131896.45499999874,
      "d": 511.8530729166523,
      "v": 76
    },
    {
      "midi": 60,
      "hit": false,
      "t": 131896.45499999874,
      "d": 511.8530729166523,
      "v": 76
    },
    {
      "midi": 76,
      "hit": false,
      "t": 132155.07549999867,
      "d": 253.23257291666232,
      "v": 75
    },
    {
      "midi": 76,
      "hit": false,
      "t": 132413.69599999866,
      "d": 253.23257291666232,
      "v": 60
    },
    {
      "midi": 53,
      "hit": false,
      "t": 132413.69599999872,
      "d": 253.23257291666232,
      "v": 57
    },
    {
      "midi": 74,
      "hit": false,
      "t": 132672.31649999865,
      "d": 253.23257291666232,
      "v": 60
    },
    {
      "midi": 57,
      "hit": false,
      "t": 132672.3164999987,
      "d": 253.23257291666232,
      "v": 57
    },
    {
      "midi": 74,
      "hit": false,
      "t": 132930.93699999864,
      "d": 770.4735729166714,
      "v": 60
    },
    {
      "midi": 53,
      "hit": false,
      "t": 132930.9369999987,
      "d": 253.23257291666232,
      "v": 57
    },
    {
      "midi": 57,
      "hit": false,
      "t": 133189.5574999987,
      "d": 253.23257291666232,
      "v": 57
    },
    {
      "midi": 53,
      "hit": false,
      "t": 133448.17799999868,
      "d": 253.23257291666232,
      "v": 57
    },
    {
      "midi": 76,
      "hit": false,
      "t": 133706.79849999864,
      "d": 123.92232291665277,
      "v": 60
    },
    {
      "midi": 57,
      "hit": false,
      "t": 133706.79849999867,
      "d": 253.23257291666232,
      "v": 57
    },
    {
      "midi": 74,
      "hit": false,
      "t": 133836.10874999862,
      "d": 123.92232291665277,
      "v": 60
    },
    {
      "midi": 74,
      "hit": false,
      "t": 133965.4189999986,
      "d": 123.92232291665277,
      "v": 60
    },
    {
      "midi": 54,
      "hit": false,
      "t": 133965.41899999866,
      "d": 253.23257291666232,
      "v": 57
    },
    {
      "midi": 72,
      "hit": false,
      "t": 134094.72924999858,
      "d": 123.92232291665277,
      "v": 60
    },
    {
      "midi": 71,
      "hit": false,
      "t": 134224.03949999856,
      "d": 123.92232291665277,
      "v": 60
    },
    {
      "midi": 57,
      "hit": false,
      "t": 134224.03949999865,
      "d": 253.23257291666232,
      "v": 57
    },
    {
      "midi": 72,
      "hit": false,
      "t": 134353.34974999854,
      "d": 123.92232291665277,
      "v": 60
    },
    {
      "midi": 71,
      "hit": false,
      "t": 134482.65999999852,
      "d": 511.8530729166523,
      "v": 60
    },
    {
      "midi": 55,
      "hit": false,
      "t": 134482.65999999864,
      "d": 123.92232291665277,
      "v": 90
    },
    {
      "midi": 62,
      "hit": false,
      "t": 134611.97024999862,
      "d": 123.92232291665277,
      "v": 90
    },
    {
      "midi": 59,
      "hit": false,
      "t": 134741.2804999986,
      "d": 123.92232291665277,
      "v": 90
    },
    {
      "midi": 62,
      "hit": false,
      "t": 134870.59074999858,
      "d": 123.92232291665277,
      "v": 90
    },
    {
      "midi": 79,
      "hit": false,
      "t": 134999.9009999985,
      "d": 382.54282291667187,
      "v": 90
    },
    {
      "midi": 55,
      "hit": false,
      "t": 134999.90099999856,
      "d": 123.92232291665277,
      "v": 90
    },
    {
      "midi": 62,
      "hit": false,
      "t": 135129.21124999854,
      "d": 123.92232291665277,
      "v": 90
    },
    {
      "midi": 59,
      "hit": false,
      "t": 135258.52149999852,
      "d": 123.92232291665277,
      "v": 90
    },
    {
      "midi": 79,
      "hit": false,
      "t": 135387.8317499985,
      "d": 123.92232291665277,
      "v": 90
    },
    {
      "midi": 62,
      "hit": false,
      "t": 135387.8317499985,
      "d": 123.92232291665277,
      "v": 90
    },
    {
      "midi": 79,
      "hit": false,
      "t": 135517.14199999848,
      "d": 511.8530729166523,
      "v": 90
    },
    {
      "midi": 55,
      "hit": false,
      "t": 135517.14199999848,
      "d": 123.92232291665277,
      "v": 90
    },
    {
      "midi": 63,
      "hit": false,
      "t": 135646.45224999846,
      "d": 123.92232291665277,
      "v": 90
    },
    {
      "midi": 60,
      "hit": false,
      "t": 135775.76249999844,
      "d": 123.92232291665277,
      "v": 90
    },
    {
      "midi": 63,
      "hit": false,
      "t": 135905.07274999842,
      "d": 123.92232291665277,
      "v": 90
    },
    {
      "midi": 55,
      "hit": false,
      "t": 136034.3829999984,
      "d": 123.92232291665277,
      "v": 90
    },
    {
      "midi": 79,
      "hit": false,
      "t": 136034.38299999846,
      "d": 511.8530729166523,
      "v": 90
    },
    {
      "midi": 65,
      "hit": false,
      "t": 136163.69324999838,
      "d": 123.92232291665277,
      "v": 90
    },
    {
      "midi": 62,
      "hit": false,
      "t": 136293.00349999836,
      "d": 123.92232291665277,
      "v": 90
    },
    {
      "midi": 65,
      "hit": false,
      "t": 136422.31374999834,
      "d": 123.92232291665277,
      "v": 90
    },
    {
      "midi": 55,
      "hit": false,
      "t": 136551.62399999832,
      "d": 123.92232291665277,
      "v": 76
    },
    {
      "midi": 84,
      "hit": false,
      "t": 136551.62399999844,
      "d": 770.4735729166714,
      "v": 75
    },
    {
      "midi": 72,
      "hit": false,
      "t": 136551.62399999844,
      "d": 2063.5760729165922,
      "v": 75
    },
    {
      "midi": 63,
      "hit": false,
      "t": 136680.9342499983,
      "d": 123.92232291665277,
      "v": 76
    },
    {
      "midi": 60,
      "hit": false,
      "t": 136810.24449999828,
      "d": 123.92232291665277,
      "v": 76
    },
    {
      "midi": 63,
      "hit": false,
      "t": 136939.55474999826,
      "d": 123.92232291665277,
      "v": 76
    },
    {
      "midi": 55,
      "hit": false,
      "t": 137068.86499999824,
      "d": 123.92232291665277,
      "v": 76
    },
    {
      "midi": 63,
      "hit": false,
      "t": 137198.17524999822,
      "d": 123.92232291665277,
      "v": 76
    },
    {
      "midi": 60,
      "hit": false,
      "t": 137327.4854999982,
      "d": 123.92232291665277,
      "v": 76
    },
    {
      "midi": 82,
      "hit": false,
      "t": 137327.48549999844,
      "d": 123.92232291665277,
      "v": 75
    },
    {
      "midi": 63,
      "hit": false,
      "t": 137456.7957499982,
      "d": 123.92232291665277,
      "v": 76
    },
    {
      "midi": 80,
      "hit": false,
      "t": 137456.79574999842,
      "d": 123.92232291665277,
      "v": 75
    },
    {
      "midi": 55,
      "hit": false,
      "t": 137586.10599999817,
      "d": 123.92232291665277,
      "v": 76
    },
    {
      "midi": 79,
      "hit": false,
      "t": 137586.1059999984,
      "d": 511.8530729166523,
      "v": 75
    },
    {
      "midi": 63,
      "hit": false,
      "t": 137715.41624999815,
      "d": 123.92232291665277,
      "v": 76
    },
    {
      "midi": 60,
      "hit": false,
      "t": 137844.72649999813,
      "d": 123.92232291665277,
      "v": 76
    },
    {
      "midi": 63,
      "hit": false,
      "t": 137974.0367499981,
      "d": 123.92232291665277,
      "v": 76
    },
    {
      "midi": 55,
      "hit": false,
      "t": 138103.3469999981,
      "d": 123.92232291665277,
      "v": 76
    },
    {
      "midi": 78,
      "hit": false,
      "t": 138103.34699999838,
      "d": 511.8530729166523,
      "v": 75
    },
    {
      "midi": 63,
      "hit": false,
      "t": 138232.65724999807,
      "d": 123.92232291665277,
      "v": 76
    },
    {
      "midi": 60,
      "hit": false,
      "t": 138361.96749999805,
      "d": 123.92232291665277,
      "v": 76
    },
    {
      "midi": 63,
      "hit": false,
      "t": 138491.27774999803,
      "d": 123.92232291665277,
      "v": 76
    },
    {
      "midi": 55,
      "hit": false,
      "t": 138620.587999998,
      "d": 123.92232291665277,
      "v": 76
    },
    {
      "midi": 71,
      "hit": false,
      "t": 138620.58799999836,
      "d": 511.8530729166523,
      "v": 75
    },
    {
      "midi": 79,
      "hit": false,
      "t": 138620.58799999836,
      "d": 511.8530729166523,
      "v": 75
    },
    {
      "midi": 62,
      "hit": false,
      "t": 138749.898249998,
      "d": 123.92232291665277,
      "v": 76
    },
    {
      "midi": 59,
      "hit": false,
      "t": 138879.20849999797,
      "d": 123.92232291665277,
      "v": 76
    },
    {
      "midi": 62,
      "hit": false,
      "t": 139008.51874999795,
      "d": 123.92232291665277,
      "v": 76
    },
    {
      "midi": 55,
      "hit": false,
      "t": 139137.82899999793,
      "d": 123.92232291665277,
      "v": 76
    },
    {
      "midi": 79,
      "hit": false,
      "t": 139137.82899999834,
      "d": 382.54282291667187,
      "v": 60
    },
    {
      "midi": 62,
      "hit": false,
      "t": 139267.1392499979,
      "d": 123.92232291665277,
      "v": 76
    },
    {
      "midi": 59,
      "hit": false,
      "t": 139396.4494999979,
      "d": 123.92232291665277,
      "v": 76
    },
    {
      "midi": 62,
      "hit": false,
      "t": 139525.75974999787,
      "d": 123.92232291665277,
      "v": 76
    },
    {
      "midi": 79,
      "hit": false,
      "t": 139525.75974999834,
      "d": 123.92232291665277,
      "v": 60
    },
    {
      "midi": 55,
      "hit": false,
      "t": 139655.06999999785,
      "d": 123.92232291665277,
      "v": 76
    },
    {
      "midi": 79,
      "hit": false,
      "t": 139655.06999999832,
      "d": 511.8530729166523,
      "v": 60
    },
    {
      "midi": 63,
      "hit": false,
      "t": 139784.38024999783,
      "d": 123.92232291665277,
      "v": 76
    },
    {
      "midi": 60,
      "hit": false,
      "t": 139913.6904999978,
      "d": 123.92232291665277,
      "v": 76
    },
    {
      "midi": 63,
      "hit": false,
      "t": 140043.0007499978,
      "d": 123.92232291665277,
      "v": 76
    },
    {
      "midi": 55,
      "hit": false,
      "t": 140172.31099999778,
      "d": 123.92232291665277,
      "v": 76
    },
    {
      "midi": 79,
      "hit": false,
      "t": 140172.3109999983,
      "d": 511.8530729166523,
      "v": 60
    },
    {
      "midi": 65,
      "hit": false,
      "t": 140301.62124999776,
      "d": 123.92232291665277,
      "v": 76
    },
    {
      "midi": 62,
      "hit": false,
      "t": 140430.93149999774,
      "d": 123.92232291665277,
      "v": 76
    },
    {
      "midi": 65,
      "hit": false,
      "t": 140560.24174999772,
      "d": 123.92232291665277,
      "v": 76
    },
    {
      "midi": 55,
      "hit": false,
      "t": 140689.5519999977,
      "d": 123.92232291665277,
      "v": 76
    },
    {
      "midi": 84,
      "hit": false,
      "t": 140689.55199999828,
      "d": 770.4735729166714,
      "v": 75
    },
    {
      "midi": 63,
      "hit": false,
      "t": 140818.86224999768,
      "d": 123.92232291665277,
      "v": 76
    },
    {
      "midi": 60,
      "hit": false,
      "t": 140948.17249999766,
      "d": 123.92232291665277,
      "v": 76
    },
    {
      "midi": 63,
      "hit": false,
      "t": 141077.48274999764,
      "d": 123.92232291665277,
      "v": 76
    },
    {
      "midi": 55,
      "hit": false,
      "t": 141206.79299999762,
      "d": 123.92232291665277,
      "v": 76
    },
    {
      "midi": 63,
      "hit": false,
      "t": 141336.1032499976,
      "d": 123.92232291665277,
      "v": 76
    },
    {
      "midi": 60,
      "hit": false,
      "t": 141465.41349999758,
      "d": 123.92232291665277,
      "v": 76
    },
    {
      "midi": 82,
      "hit": false,
      "t": 141465.41349999828,
      "d": 123.92232291665277,
      "v": 75
    },
    {
      "midi": 63,
      "hit": false,
      "t": 141594.72374999756,
      "d": 123.92232291665277,
      "v": 76
    },
    {
      "midi": 80,
      "hit": false,
      "t": 141594.72374999826,
      "d": 123.92232291665277,
      "v": 75
    },
    {
      "midi": 55,
      "hit": false,
      "t": 141724.03399999754,
      "d": 123.92232291665277,
      "v": 76
    },
    {
      "midi": 79,
      "hit": false,
      "t": 141724.03399999824,
      "d": 511.8530729166523,
      "v": 75
    },
    {
      "midi": 63,
      "hit": false,
      "t": 141853.34424999752,
      "d": 123.92232291665277,
      "v": 76
    },
    {
      "midi": 60,
      "hit": false,
      "t": 141982.6544999975,
      "d": 123.92232291665277,
      "v": 76
    },
    {
      "midi": 63,
      "hit": false,
      "t": 142111.96474999748,
      "d": 123.92232291665277,
      "v": 76
    },
    {
      "midi": 55,
      "hit": false,
      "t": 142241.27499999746,
      "d": 123.92232291665277,
      "v": 76
    },
    {
      "midi": 78,
      "hit": false,
      "t": 142241.27499999822,
      "d": 511.8530729166523,
      "v": 75
    },
    {
      "midi": 63,
      "hit": false,
      "t": 142370.58524999744,
      "d": 123.92232291665277,
      "v": 76
    },
    {
      "midi": 60,
      "hit": false,
      "t": 142499.89549999742,
      "d": 123.92232291665277,
      "v": 76
    },
    {
      "midi": 63,
      "hit": false,
      "t": 142629.2057499974,
      "d": 123.92232291665277,
      "v": 76
    },
    {
      "midi": 55,
      "hit": false,
      "t": 142758.51599999738,
      "d": 511.8530729166523,
      "v": 90
    },
    {
      "midi": 59,
      "hit": false,
      "t": 142758.51599999738,
      "d": 511.8530729166523,
      "v": 90
    },
    {
      "midi": 62,
      "hit": false,
      "t": 142758.51599999738,
      "d": 511.8530729166523,
      "v": 90
    },
    {
      "midi": 79,
      "hit": false,
      "t": 142758.5159999982,
      "d": 123.92232291665277,
      "v": 82
    },
    {
      "midi": 74,
      "hit": false,
      "t": 142887.82624999818,
      "d": 123.92232291665277,
      "v": 82
    },
    {
      "midi": 71,
      "hit": false,
      "t": 143017.13649999816,
      "d": 123.92232291665277,
      "v": 82
    },
    {
      "midi": 74,
      "hit": false,
      "t": 143146.44674999814,
      "d": 123.92232291665277,
      "v": 82
    },
    {
      "midi": 79,
      "hit": false,
      "t": 143275.75699999812,
      "d": 123.92232291665277,
      "v": 82
    },
    {
      "midi": 75,
      "hit": false,
      "t": 143405.0672499981,
      "d": 123.92232291665277,
      "v": 82
    },
    {
      "midi": 48,
      "hit": false,
      "t": 143534.37749999738,
      "d": 253.23257291666232,
      "v": 90
    },
    {
      "midi": 60,
      "hit": false,
      "t": 143534.37749999738,
      "d": 253.23257291666232,
      "v": 90
    },
    {
      "midi": 72,
      "hit": false,
      "t": 143534.37749999808,
      "d": 123.92232291665277,
      "v": 82
    },
    {
      "midi": 75,
      "hit": false,
      "t": 143663.68774999806,
      "d": 123.92232291665277,
      "v": 82
    },
    {
      "midi": 43,
      "hit": false,
      "t": 143792.99799999737,
      "d": 511.8530729166523,
      "v": 90
    },
    {
      "midi": 55,
      "hit": false,
      "t": 143792.99799999737,
      "d": 511.8530729166523,
      "v": 90
    },
    {
      "midi": 79,
      "hit": false,
      "t": 143792.99799999804,
      "d": 123.92232291665277,
      "v": 82
    },
    {
      "midi": 74,
      "hit": false,
      "t": 143922.30824999802,
      "d": 123.92232291665277,
      "v": 82
    },
    {
      "midi": 71,
      "hit": false,
      "t": 144051.618499998,
      "d": 123.92232291665277,
      "v": 82
    },
    {
      "midi": 74,
      "hit": false,
      "t": 144180.92874999798,
      "d": 123.92232291665277,
      "v": 82
    },
    {
      "midi": 79,
      "hit": false,
      "t": 144310.23899999796,
      "d": 123.92232291665277,
      "v": 82
    },
    {
      "midi": 75,
      "hit": false,
      "t": 144439.54924999794,
      "d": 123.92232291665277,
      "v": 82
    },
    {
      "midi": 48,
      "hit": false,
      "t": 144568.85949999737,
      "d": 253.23257291666232,
      "v": 90
    },
    {
      "midi": 60,
      "hit": false,
      "t": 144568.85949999737,
      "d": 253.23257291666232,
      "v": 90
    },
    {
      "midi": 72,
      "hit": false,
      "t": 144568.85949999793,
      "d": 123.92232291665277,
      "v": 82
    },
    {
      "midi": 75,
      "hit": false,
      "t": 144698.1697499979,
      "d": 123.92232291665277,
      "v": 82
    },
    {
      "midi": 43,
      "hit": false,
      "t": 144827.47999999736,
      "d": 511.8530729166523,
      "v": 90
    },
    {
      "midi": 55,
      "hit": false,
      "t": 144827.47999999736,
      "d": 511.8530729166523,
      "v": 90
    },
    {
      "midi": 79,
      "hit": false,
      "t": 144827.4799999979,
      "d": 123.92232291665277,
      "v": 82
    },
    {
      "midi": 74,
      "hit": false,
      "t": 144956.79024999787,
      "d": 123.92232291665277,
      "v": 82
    },
    {
      "midi": 71,
      "hit": false,
      "t": 145086.10049999785,
      "d": 123.92232291665277,
      "v": 82
    },
    {
      "midi": 74,
      "hit": false,
      "t": 145215.41074999783,
      "d": 123.92232291665277,
      "v": 82
    },
    {
      "midi": 79,
      "hit": false,
      "t": 145344.7209999978,
      "d": 123.92232291665277,
      "v": 82
    },
    {
      "midi": 76,
      "hit": false,
      "t": 145474.0312499978,
      "d": 123.92232291665277,
      "v": 82
    },
    {
      "midi": 48,
      "hit": false,
      "t": 145603.34149999736,
      "d": 253.23257291666232,
      "v": 90
    },
    {
      "midi": 60,
      "hit": false,
      "t": 145603.34149999736,
      "d": 253.23257291666232,
      "v": 90
    },
    {
      "midi": 72,
      "hit": false,
      "t": 145603.34149999777,
      "d": 123.92232291665277,
      "v": 82
    },
    {
      "midi": 76,
      "hit": false,
      "t": 145732.65174999775,
      "d": 123.92232291665277,
      "v": 82
    },
    {
      "midi": 43,
      "hit": false,
      "t": 145861.96199999735,
      "d": 253.23257291666232,
      "v": 90
    },
    {
      "midi": 55,
      "hit": false,
      "t": 145861.96199999735,
      "d": 253.23257291666232,
      "v": 90
    },
    {
      "midi": 74,
      "hit": false,
      "t": 145861.96199999773,
      "d": 123.92232291665277,
      "v": 82
    },
    {
      "midi": 71,
      "hit": false,
      "t": 145861.96199999773,
      "d": 253.23257291663322,
      "v": 82
    },
    {
      "midi": 79,
      "hit": false,
      "t": 145991.2722499977,
      "d": 123.92232291665277,
      "v": 82
    },
    {
      "midi": 48,
      "hit": false,
      "t": 146120.58249999734,
      "d": 253.23257291666232,
      "v": 90
    },
    {
      "midi": 60,
      "hit": false,
      "t": 146120.58249999734,
      "d": 253.23257291666232,
      "v": 90
    },
    {
      "midi": 76,
      "hit": false,
      "t": 146120.5824999977,
      "d": 123.92232291665277,
      "v": 82
    },
    {
      "midi": 72,
      "hit": false,
      "t": 146120.5824999977,
      "d": 253.23257291663322,
      "v": 82
    },
    {
      "midi": 79,
      "hit": false,
      "t": 146249.89274999767,
      "d": 123.92232291665277,
      "v": 82
    },
    {
      "midi": 43,
      "hit": false,
      "t": 146379.20299999733,
      "d": 253.23257291666232,
      "v": 90
    },
    {
      "midi": 55,
      "hit": false,
      "t": 146379.20299999733,
      "d": 253.23257291666232,
      "v": 90
    },
    {
      "midi": 74,
      "hit": false,
      "t": 146379.20299999765,
      "d": 123.92232291665277,
      "v": 82
    },
    {
      "midi": 71,
      "hit": false,
      "t": 146379.20299999765,
      "d": 253.23257291663322,
      "v": 82
    },
    {
      "midi": 79,
      "hit": false,
      "t": 146508.51324999763,
      "d": 123.92232291665277,
      "v": 82
    },
    {
      "midi": 48,
      "hit": false,
      "t": 146637.82349999732,
      "d": 253.23257291666232,
      "v": 90
    },
    {
      "midi": 60,
      "hit": false,
      "t": 146637.82349999732,
      "d": 253.23257291666232,
      "v": 90
    },
    {
      "midi": 76,
      "hit": false,
      "t": 146637.8234999976,
      "d": 123.92232291665277,
      "v": 82
    },
    {
      "midi": 72,
      "hit": false,
      "t": 146637.8234999976,
      "d": 253.23257291663322,
      "v": 82
    },
    {
      "midi": 79,
      "hit": false,
      "t": 146767.1337499976,
      "d": 123.92232291665277,
      "v": 82
    },
    {
      "midi": 43,
      "hit": false,
      "t": 146896.4439999973,
      "d": 511.8530729166523,
      "v": 90
    },
    {
      "midi": 55,
      "hit": false,
      "t": 146896.4439999973,
      "d": 511.8530729166523,
      "v": 90
    },
    {
      "midi": 71,
      "hit": false,
      "t": 146896.44399999757,
      "d": 511.8530729166523,
      "v": 82
    },
    {
      "midi": 74,
      "hit": false,
      "t": 146896.44399999757,
      "d": 511.8530729166523,
      "v": 82
    },
    {
      "midi": 31,
      "hit": false,
      "t": 147413.6849999973,
      "d": 511.8530729166523,
      "v": 90
    },
    {
      "midi": 43,
      "hit": false,
      "t": 147413.6849999973,
      "d": 511.8530729166523,
      "v": 90
    },
    {
      "midi": 67,
      "hit": false,
      "t": 147413.68499999755,
      "d": 511.8530729166523,
      "v": 82
    },
    {
      "midi": 71,
      "hit": false,
      "t": 147413.68499999755,
      "d": 511.8530729166523,
      "v": 82
    },
    {
      "midi": 74,
      "hit": false,
      "t": 147413.68499999755,
      "d": 511.8530729166523,
      "v": 82
    },
    {
      "midi": 79,
      "hit": false,
      "t": 147413.68499999755,
      "d": 511.8530729166523,
      "v": 82
    },
    {
      "midi": 31,
      "hit": false,
      "t": 147930.92599999727,
      "d": 511.8530729166523,
      "v": 90
    },
    {
      "midi": 43,
      "hit": false,
      "t": 147930.92599999727,
      "d": 511.8530729166523,
      "v": 90
    },
    {
      "midi": 79,
      "hit": false,
      "t": 148189.54649999755,
      "d": 253.23257291666232,
      "v": 60
    },
    {
      "midi": 81,
      "hit": false,
      "t": 148448.16699999754,
      "d": 253.23257291666232,
      "v": 60
    },
    {
      "midi": 83,
      "hit": false,
      "t": 148706.78749999753,
      "d": 253.23257291666232,
      "v": 60
    },
    {
      "midi": 84,
      "hit": false,
      "t": 148965.40799999752,
      "d": 123.92232291665277,
      "v": 75
    },
    {
      "midi": 64,
      "hit": false,
      "t": 148965.40799999752,
      "d": 253.23257291663322,
      "v": 75
    },
    {
      "midi": 67,
      "hit": false,
      "t": 148965.40799999752,
      "d": 253.23257291663322,
      "v": 75
    },
    {
      "midi": 86,
      "hit": false,
      "t": 149094.7182499975,
      "d": 123.92232291665277,
      "v": 75
    },
    {
      "midi": 83,
      "hit": false,
      "t": 149224.02849999748,
      "d": 123.92232291665277,
      "v": 75
    },
    {
      "midi": 64,
      "hit": false,
      "t": 149224.02849999748,
      "d": 253.23257291663322,
      "v": 75
    },
    {
      "midi": 67,
      "hit": false,
      "t": 149224.02849999748,
      "d": 253.23257291663322,
      "v": 75
    },
    {
      "midi": 86,
      "hit": false,
      "t": 149353.33874999746,
      "d": 123.92232291665277,
      "v": 75
    },
    {
      "midi": 84,
      "hit": false,
      "t": 149482.64899999744,
      "d": 123.92232291665277,
      "v": 75
    },
    {
      "midi": 64,
      "hit": false,
      "t": 149482.64899999744,
      "d": 253.23257291663322,
      "v": 75
    },
    {
      "midi": 67,
      "hit": false,
      "t": 149482.64899999744,
      "d": 253.23257291663322,
      "v": 75
    },
    {
      "midi": 86,
      "hit": false,
      "t": 149611.95924999742,
      "d": 123.92232291665277,
      "v": 75
    },
    {
      "midi": 83,
      "hit": false,
      "t": 149741.2694999974,
      "d": 123.92232291665277,
      "v": 75
    },
    {
      "midi": 64,
      "hit": false,
      "t": 149741.2694999974,
      "d": 253.23257291663322,
      "v": 75
    },
    {
      "midi": 67,
      "hit": false,
      "t": 149741.2694999974,
      "d": 253.23257291663322,
      "v": 75
    },
    {
      "midi": 86,
      "hit": false,
      "t": 149870.57974999739,
      "d": 123.92232291665277,
      "v": 75
    },
    {
      "midi": 84,
      "hit": false,
      "t": 149999.88999999737,
      "d": 123.92232291665277,
      "v": 75
    },
    {
      "midi": 64,
      "hit": false,
      "t": 149999.88999999737,
      "d": 511.8530729165941,
      "v": 75
    },
    {
      "midi": 67,
      "hit": false,
      "t": 149999.88999999737,
      "d": 511.8530729165941,
      "v": 75
    },
    {
      "midi": 86,
      "hit": false,
      "t": 150129.20024999735,
      "d": 123.92232291665277,
      "v": 75
    },
    {
      "midi": 83,
      "hit": false,
      "t": 150258.51049999733,
      "d": 123.92232291665277,
      "v": 75
    },
    {
      "midi": 84,
      "hit": false,
      "t": 150387.8207499973,
      "d": 123.92232291665277,
      "v": 75
    },
    {
      "midi": 81,
      "hit": false,
      "t": 150517.1309999973,
      "d": 123.92232291665277,
      "v": 75
    },
    {
      "midi": 83,
      "hit": false,
      "t": 150646.44124999727,
      "d": 123.92232291665277,
      "v": 75
    },
    {
      "midi": 79,
      "hit": false,
      "t": 150775.75149999725,
      "d": 123.92232291665277,
      "v": 75
    },
    {
      "midi": 81,
      "hit": false,
      "t": 150905.06174999723,
      "d": 123.92232291665277,
      "v": 75
    },
    {
      "midi": 77,
      "hit": false,
      "t": 151034.3719999972,
      "d": 123.92232291665277,
      "v": 75
    },
    {
      "midi": 62,
      "hit": false,
      "t": 151034.3719999972,
      "d": 253.23257291663322,
      "v": 75
    },
    {
      "midi": 69,
      "hit": false,
      "t": 151034.3719999972,
      "d": 253.23257291663322,
      "v": 75
    },
    {
      "midi": 79,
      "hit": false,
      "t": 151163.6822499972,
      "d": 123.92232291665277,
      "v": 75
    },
    {
      "midi": 76,
      "hit": false,
      "t": 151292.99249999717,
      "d": 123.92232291665277,
      "v": 75
    },
    {
      "midi": 62,
      "hit": false,
      "t": 151292.99249999717,
      "d": 253.23257291663322,
      "v": 75
    },
    {
      "midi": 69,
      "hit": false,
      "t": 151292.99249999717,
      "d": 253.23257291663322,
      "v": 75
    },
    {
      "midi": 79,
      "hit": false,
      "t": 151422.30274999715,
      "d": 123.92232291665277,
      "v": 75
    },
    {
      "midi": 77,
      "hit": false,
      "t": 151551.61299999713,
      "d": 123.92232291665277,
      "v": 75
    },
    {
      "midi": 62,
      "hit": false,
      "t": 151551.61299999713,
      "d": 253.23257291663322,
      "v": 75
    },
    {
      "midi": 69,
      "hit": false,
      "t": 151551.61299999713,
      "d": 253.23257291663322,
      "v": 75
    },
    {
      "midi": 79,
      "hit": false,
      "t": 151680.9232499971,
      "d": 123.92232291665277,
      "v": 75
    },
    {
      "midi": 76,
      "hit": false,
      "t": 151810.2334999971,
      "d": 123.92232291665277,
      "v": 75
    },
    {
      "midi": 62,
      "hit": false,
      "t": 151810.2334999971,
      "d": 253.23257291663322,
      "v": 75
    },
    {
      "midi": 69,
      "hit": false,
      "t": 151810.2334999971,
      "d": 253.23257291663322,
      "v": 75
    },
    {
      "midi": 79,
      "hit": false,
      "t": 151939.54374999707,
      "d": 123.92232291665277,
      "v": 75
    },
    {
      "midi": 77,
      "hit": false,
      "t": 152068.85399999705,
      "d": 123.92232291665277,
      "v": 75
    },
    {
      "midi": 62,
      "hit": false,
      "t": 152068.85399999705,
      "d": 511.8530729165941,
      "v": 75
    },
    {
      "midi": 69,
      "hit": false,
      "t": 152068.85399999705,
      "d": 511.8530729165941,
      "v": 75
    },
    {
      "midi": 79,
      "hit": false,
      "t": 152198.16424999703,
      "d": 123.92232291665277,
      "v": 75
    },
    {
      "midi": 76,
      "hit": false,
      "t": 152327.474499997,
      "d": 123.92232291665277,
      "v": 75
    },
    {
      "midi": 77,
      "hit": false,
      "t": 152456.784749997,
      "d": 123.92232291665277,
      "v": 75
    },
    {
      "midi": 74,
      "hit": false,
      "t": 152586.09499999697,
      "d": 123.92232291665277,
      "v": 75
    },
    {
      "midi": 76,
      "hit": false,
      "t": 152715.40524999695,
      "d": 123.92232291665277,
      "v": 75
    },
    {
      "midi": 72,
      "hit": false,
      "t": 152844.71549999694,
      "d": 123.92232291665277,
      "v": 75
    },
    {
      "midi": 74,
      "hit": false,
      "t": 152974.02574999692,
      "d": 123.92232291665277,
      "v": 75
    },
    {
      "midi": 71,
      "hit": false,
      "t": 153103.3359999969,
      "d": 123.92232291665277,
      "v": 75
    },
    {
      "midi": 55,
      "hit": false,
      "t": 153103.33599999725,
      "d": 253.23257291666232,
      "v": 76
    },
    {
      "midi": 62,
      "hit": false,
      "t": 153103.33599999725,
      "d": 253.23257291666232,
      "v": 76
    },
    {
      "midi": 65,
      "hit": false,
      "t": 153103.33599999725,
      "d": 253.23257291666232,
      "v": 76
    },
    {
      "midi": 72,
      "hit": false,
      "t": 153232.64624999688,
      "d": 123.92232291665277,
      "v": 75
    },
    {
      "midi": 69,
      "hit": false,
      "t": 153361.95649999686,
      "d": 123.92232291665277,
      "v": 75
    },
    {
      "midi": 55,
      "hit": false,
      "t": 153361.95649999724,
      "d": 253.23257291666232,
      "v": 76
    },
    {
      "midi": 62,
      "hit": false,
      "t": 153361.95649999724,
      "d": 253.23257291666232,
      "v": 76
    },
    {
      "midi": 65,
      "hit": false,
      "t": 153361.95649999724,
      "d": 253.23257291666232,
      "v": 76
    },
    {
      "midi": 72,
      "hit": false,
      "t": 153491.26674999684,
      "d": 123.92232291665277,
      "v": 75
    },
    {
      "midi": 71,
      "hit": false,
      "t": 153620.57699999682,
      "d": 123.92232291665277,
      "v": 75
    },
    {
      "midi": 55,
      "hit": false,
      "t": 153620.57699999723,
      "d": 253.23257291666232,
      "v": 76
    },
    {
      "midi": 62,
      "hit": false,
      "t": 153620.57699999723,
      "d": 253.23257291666232,
      "v": 76
    },
    {
      "midi": 65,
      "hit": false,
      "t": 153620.57699999723,
      "d": 253.23257291666232,
      "v": 76
    },
    {
      "midi": 72,
      "hit": false,
      "t": 153749.8872499968,
      "d": 123.92232291665277,
      "v": 75
    },
    {
      "midi": 69,
      "hit": false,
      "t": 153879.19749999678,
      "d": 123.92232291665277,
      "v": 75
    },
    {
      "midi": 55,
      "hit": false,
      "t": 153879.19749999722,
      "d": 253.23257291666232,
      "v": 76
    },
    {
      "midi": 62,
      "hit": false,
      "t": 153879.19749999722,
      "d": 253.23257291666232,
      "v": 76
    },
    {
      "midi": 65,
      "hit": false,
      "t": 153879.19749999722,
      "d": 253.23257291666232,
      "v": 76
    },
    {
      "midi": 72,
      "hit": false,
      "t": 154008.50774999676,
      "d": 123.92232291665277,
      "v": 75
    },
    {
      "midi": 71,
      "hit": false,
      "t": 154137.81799999674,
      "d": 123.92232291665277,
      "v": 75
    },
    {
      "midi": 55,
      "hit": false,
      "t": 154137.8179999972,
      "d": 511.8530729166523,
      "v": 76
    },
    {
      "midi": 62,
      "hit": false,
      "t": 154137.8179999972,
      "d": 511.8530729166523,
      "v": 76
    },
    {
      "midi": 65,
      "hit": false,
      "t": 154137.8179999972,
      "d": 511.8530729166523,
      "v": 76
    },
    {
      "midi": 72,
      "hit": false,
      "t": 154267.12824999672,
      "d": 123.92232291665277,
      "v": 75
    },
    {
      "midi": 69,
      "hit": false,
      "t": 154396.4384999967,
      "d": 123.92232291665277,
      "v": 75
    },
    {
      "midi": 71,
      "hit": false,
      "t": 154525.74874999668,
      "d": 123.92232291665277,
      "v": 75
    },
    {
      "midi": 67,
      "hit": false,
      "t": 154655.05899999666,
      "d": 123.92232291665277,
      "v": 75
    },
    {
      "midi": 69,
      "hit": false,
      "t": 154784.36924999664,
      "d": 123.92232291665277,
      "v": 75
    },
    {
      "midi": 65,
      "hit": false,
      "t": 154913.67949999662,
      "d": 123.92232291665277,
      "v": 75
    },
    {
      "midi": 67,
      "hit": false,
      "t": 155042.9897499966,
      "d": 123.92232291665277,
      "v": 75
    },
    {
      "midi": 64,
      "hit": false,
      "t": 155172.29999999658,
      "d": 123.92232291665277,
      "v": 75
    },
    {
      "midi": 60,
      "hit": false,
      "t": 155172.2999999972,
      "d": 511.8530729166523,
      "v": 76
    },
    {
      "midi": 67,
      "hit": false,
      "t": 155301.61024999656,
      "d": 123.92232291665277,
      "v": 75
    },
    {
      "midi": 65,
      "hit": false,
      "t": 155430.92049999654,
      "d": 123.92232291665277,
      "v": 75
    },
    {
      "midi": 64,
      "hit": false,
      "t": 155560.23074999652,
      "d": 123.92232291665277,
      "v": 75
    },
    {
      "midi": 65,
      "hit": false,
      "t": 155689.5409999965,
      "d": 123.92232291665277,
      "v": 75
    },
    {
      "midi": 67,
      "hit": false,
      "t": 155818.85124999649,
      "d": 123.92232291665277,
      "v": 75
    },
    {
      "midi": 69,
      "hit": false,
      "t": 155948.16149999647,
      "d": 123.92232291665277,
      "v": 75
    },
    {
      "midi": 71,
      "hit": false,
      "t": 156077.47174999645,
      "d": 123.92232291665277,
      "v": 75
    },
    {
      "midi": 72,
      "hit": false,
      "t": 156206.78199999643,
      "d": 123.92232291665277,
      "v": 75
    },
    {
      "midi": 74,
      "hit": false,
      "t": 156336.0922499964,
      "d": 123.92232291665277,
      "v": 75
    },
    {
      "midi": 72,
      "hit": false,
      "t": 156465.4024999964,
      "d": 123.92232291665277,
      "v": 75
    },
    {
      "midi": 71,
      "hit": false,
      "t": 156594.71274999637,
      "d": 123.92232291665277,
      "v": 75
    },
    {
      "midi": 72,
      "hit": false,
      "t": 156724.02299999635,
      "d": 123.92232291665277,
      "v": 75
    },
    {
      "midi": 74,
      "hit": false,
      "t": 156853.33324999633,
      "d": 123.92232291665277,
      "v": 75
    },
    {
      "midi": 76,
      "hit": false,
      "t": 156982.6434999963,
      "d": 123.92232291665277,
      "v": 75
    },
    {
      "midi": 77,
      "hit": false,
      "t": 157111.9537499963,
      "d": 123.92232291665277,
      "v": 75
    },
    {
      "midi": 79,
      "hit": false,
      "t": 157241.26399999627,
      "d": 123.92232291665277,
      "v": 60
    },
    {
      "midi": 52,
      "hit": false,
      "t": 157241.26399999717,
      "d": 253.23257291666232,
      "v": 57
    },
    {
      "midi": 60,
      "hit": false,
      "t": 157241.26399999717,
      "d": 253.23257291666232,
      "v": 57
    },
    {
      "midi": 81,
      "hit": false,
      "t": 157370.57424999625,
      "d": 123.92232291665277,
      "v": 60
    },
    {
      "midi": 78,
      "hit": false,
      "t": 157499.88449999623,
      "d": 123.92232291665277,
      "v": 60
    },
    {
      "midi": 52,
      "hit": false,
      "t": 157499.88449999716,
      "d": 253.23257291666232,
      "v": 57
    },
    {
      "midi": 60,
      "hit": false,
      "t": 157499.88449999716,
      "d": 253.23257291666232,
      "v": 57
    },
    {
      "midi": 81,
      "hit": false,
      "t": 157629.1947499962,
      "d": 123.92232291665277,
      "v": 60
    },
    {
      "midi": 79,
      "hit": false,
      "t": 157758.5049999962,
      "d": 123.92232291665277,
      "v": 60
    },
    {
      "midi": 52,
      "hit": false,
      "t": 157758.50499999715,
      "d": 253.23257291666232,
      "v": 57
    },
    {
      "midi": 60,
      "hit": false,
      "t": 157758.50499999715,
      "d": 253.23257291666232,
      "v": 57
    },
    {
      "midi": 81,
      "hit": false,
      "t": 157887.81524999617,
      "d": 123.92232291665277,
      "v": 60
    },
    {
      "midi": 78,
      "hit": false,
      "t": 158017.12549999615,
      "d": 123.92232291665277,
      "v": 60
    },
    {
      "midi": 52,
      "hit": false,
      "t": 158017.12549999714,
      "d": 253.23257291666232,
      "v": 57
    },
    {
      "midi": 60,
      "hit": false,
      "t": 158017.12549999714,
      "d": 253.23257291666232,
      "v": 57
    },
    {
      "midi": 81,
      "hit": false,
      "t": 158146.43574999613,
      "d": 123.92232291665277,
      "v": 60
    },
    {
      "midi": 79,
      "hit": false,
      "t": 158275.7459999961,
      "d": 123.92232291665277,
      "v": 60
    },
    {
      "midi": 52,
      "hit": false,
      "t": 158275.74599999713,
      "d": 511.8530729166523,
      "v": 57
    },
    {
      "midi": 60,
      "hit": false,
      "t": 158275.74599999713,
      "d": 511.8530729166523,
      "v": 57
    },
    {
      "midi": 84,
      "hit": false,
      "t": 158405.0562499961,
      "d": 123.92232291665277,
      "v": 60
    },
    {
      "midi": 83,
      "hit": false,
      "t": 158534.36649999607,
      "d": 123.92232291665277,
      "v": 60
    },
    {
      "midi": 84,
      "hit": false,
      "t": 158663.67674999606,
      "d": 123.92232291665277,
      "v": 60
    },
    {
      "midi": 86,
      "hit": false,
      "t": 158792.98699999604,
      "d": 123.92232291665277,
      "v": 60
    },
    {
      "midi": 84,
      "hit": false,
      "t": 158922.29724999602,
      "d": 123.92232291665277,
      "v": 60
    },
    {
      "midi": 83,
      "hit": false,
      "t": 159051.607499996,
      "d": 123.92232291665277,
      "v": 60
    },
    {
      "midi": 84,
      "hit": false,
      "t": 159180.91774999598,
      "d": 123.92232291665277,
      "v": 60
    },
    {
      "midi": 83,
      "hit": false,
      "t": 159310.22799999596,
      "d": 123.92232291665277,
      "v": 75
    },
    {
      "midi": 53,
      "hit": false,
      "t": 159310.22799999712,
      "d": 1546.3350729166414,
      "v": 76
    },
    {
      "midi": 81,
      "hit": false,
      "t": 159439.53824999594,
      "d": 123.92232291665277,
      "v": 75
    },
    {
      "midi": 80,
      "hit": false,
      "t": 159568.84849999592,
      "d": 123.92232291665277,
      "v": 75
    },
    {
      "midi": 81,
      "hit": false,
      "t": 159698.1587499959,
      "d": 123.92232291665277,
      "v": 75
    },
    {
      "midi": 79,
      "hit": false,
      "t": 159827.46899999588,
      "d": 123.92232291665277,
      "v": 75
    },
    {
      "midi": 57,
      "hit": false,
      "t": 159827.46899999713,
      "d": 511.8530729166523,
      "v": 76
    },
    {
      "midi": 77,
      "hit": false,
      "t": 159956.77924999586,
      "d": 123.92232291665277,
      "v": 75
    },
    {
      "midi": 76,
      "hit": false,
      "t": 160086.08949999584,
      "d": 123.92232291665277,
      "v": 75
    },
    {
      "midi": 77,
      "hit": false,
      "t": 160215.39974999582,
      "d": 123.92232291665277,
      "v": 75
    },
    {
      "midi": 76,
      "hit": false,
      "t": 160344.7099999958,
      "d": 123.92232291665277,
      "v": 75
    },
    {
      "midi": 62,
      "hit": false,
      "t": 160344.7099999971,
      "d": 1029.0940729166323,
      "v": 76
    },
    {
      "midi": 74,
      "hit": false,
      "t": 160474.02024999578,
      "d": 123.92232291665277,
      "v": 75
    },
    {
      "midi": 73,
      "hit": false,
      "t": 160603.33049999576,
      "d": 123.92232291665277,
      "v": 75
    },
    {
      "midi": 74,
      "hit": false,
      "t": 160732.64074999574,
      "d": 123.92232291665277,
      "v": 75
    },
    {
      "midi": 73,
      "hit": false,
      "t": 160861.95099999572,
      "d": 123.92232291665277,
      "v": 75
    },
    {
      "midi": 53,
      "hit": false,
      "t": 160861.9509999971,
      "d": 511.8530729166523,
      "v": 76
    },
    {
      "midi": 74,
      "hit": false,
      "t": 160991.2612499957,
      "d": 123.92232291665277,
      "v": 75
    },
    {
      "midi": 76,
      "hit": false,
      "t": 161120.57149999568,
      "d": 123.92232291665277,
      "v": 75
    },
    {
      "midi": 77,
      "hit": false,
      "t": 161249.88174999566,
      "d": 123.92232291665277,
      "v": 75
    },
    {
      "midi": 81,
      "hit": false,
      "t": 161379.19199999564,
      "d": 123.92232291665277,
      "v": 75
    },
    {
      "midi": 62,
      "hit": false,
      "t": 161379.19199999707,
      "d": 511.8530729166523,
      "v": 76
    },
    {
      "midi": 52,
      "hit": false,
      "t": 161379.19199999707,
      "d": 1546.3350729166123,
      "v": 76
    },
    {
      "midi": 79,
      "hit": false,
      "t": 161508.50224999562,
      "d": 123.92232291665277,
      "v": 75
    },
    {
      "midi": 78,
      "hit": false,
      "t": 161637.8124999956,
      "d": 123.92232291665277,
      "v": 75
    },
    {
      "midi": 79,
      "hit": false,
      "t": 161767.1227499956,
      "d": 123.92232291665277,
      "v": 75
    },
    {
      "midi": 77,
      "hit": false,
      "t": 161896.43299999557,
      "d": 123.92232291665277,
      "v": 75
    },
    {
      "midi": 55,
      "hit": false,
      "t": 161896.43299999705,
      "d": 511.8530729166523,
      "v": 76
    },
    {
      "midi": 76,
      "hit": false,
      "t": 162025.74324999555,
      "d": 123.92232291665277,
      "v": 75
    },
    {
      "midi": 74,
      "hit": false,
      "t": 162155.05349999553,
      "d": 123.92232291665277,
      "v": 75
    },
    {
      "midi": 76,
      "hit": false,
      "t": 162284.3637499955,
      "d": 123.92232291665277,
      "v": 75
    },
    {
      "midi": 74,
      "hit": false,
      "t": 162413.6739999955,
      "d": 123.92232291665277,
      "v": 75
    },
    {
      "midi": 60,
      "hit": false,
      "t": 162413.67399999703,
      "d": 1029.0940729166323,
      "v": 76
    },
    {
      "midi": 72,
      "hit": false,
      "t": 162542.98424999547,
      "d": 123.92232291665277,
      "v": 75
    },
    {
      "midi": 71,
      "hit": false,
      "t": 162672.29449999545,
      "d": 123.92232291665277,
      "v": 75
    },
    {
      "midi": 72,
      "hit": false,
      "t": 162801.60474999543,
      "d": 123.92232291665277,
      "v": 75
    },
    {
      "midi": 71,
      "hit": false,
      "t": 162930.9149999954,
      "d": 123.92232291665277,
      "v": 75
    },
    {
      "midi": 52,
      "hit": false,
      "t": 162930.914999997,
      "d": 511.8530729166523,
      "v": 76
    },
    {
      "midi": 72,
      "hit": false,
      "t": 163060.2252499954,
      "d": 123.92232291665277,
      "v": 75
    },
    {
      "midi": 74,
      "hit": false,
      "t": 163189.53549999537,
      "d": 123.92232291665277,
      "v": 75
    },
    {
      "midi": 76,
      "hit": false,
      "t": 163318.84574999535,
      "d": 123.92232291665277,
      "v": 75
    },
    {
      "midi": 77,
      "hit": false,
      "t": 163448.15599999533,
      "d": 123.92232291665277,
      "v": 75
    },
    {
      "midi": 50,
      "hit": false,
      "t": 163448.155999997,
      "d": 511.8530729166523,
      "v": 76
    },
    {
      "midi": 60,
      "hit": false,
      "t": 163448.155999997,
      "d": 511.8530729166523,
      "v": 76
    },
    {
      "midi": 79,
      "hit": false,
      "t": 163577.4662499953,
      "d": 123.92232291665277,
      "v": 75
    },
    {
      "midi": 76,
      "hit": false,
      "t": 163706.7764999953,
      "d": 123.92232291665277,
      "v": 75
    },
    {
      "midi": 77,
      "hit": false,
      "t": 163836.08674999527,
      "d": 123.92232291665277,
      "v": 75
    },
    {
      "midi": 74,
      "hit": false,
      "t": 163965.39699999525,
      "d": 123.92232291665277,
      "v": 75
    },
    {
      "midi": 53,
      "hit": false,
      "t": 163965.39699999697,
      "d": 511.8530729166523,
      "v": 76
    },
    {
      "midi": 57,
      "hit": false,
      "t": 163965.39699999697,
      "d": 511.8530729166523,
      "v": 76
    },
    {
      "midi": 76,
      "hit": false,
      "t": 164094.70724999523,
      "d": 123.92232291665277,
      "v": 75
    },
    {
      "midi": 72,
      "hit": false,
      "t": 164224.0174999952,
      "d": 123.92232291665277,
      "v": 75
    },
    {
      "midi": 74,
      "hit": false,
      "t": 164353.3277499952,
      "d": 123.92232291665277,
      "v": 75
    },
    {
      "midi": 71,
      "hit": false,
      "t": 164482.63799999518,
      "d": 123.92232291665277,
      "v": 75
    },
    {
      "midi": 55,
      "hit": false,
      "t": 164482.63799999695,
      "d": 511.8530729166523,
      "v": 76
    },
    {
      "midi": 72,
      "hit": false,
      "t": 164611.94824999516,
      "d": 123.92232291665277,
      "v": 75
    },
    {
      "midi": 69,
      "hit": false,
      "t": 164741.25849999514,
      "d": 123.92232291665277,
      "v": 75
    },
    {
      "midi": 71,
      "hit": false,
      "t": 164870.56874999512,
      "d": 123.92232291665277,
      "v": 75
    },
    {
      "midi": 67,
      "hit": false,
      "t": 164999.8789999951,
      "d": 123.92232291665277,
      "v": 75
    },
    {
      "midi": 47,
      "hit": false,
      "t": 164999.87899999693,
      "d": 511.8530729166523,
      "v": 76
    },
    {
      "midi": 69,
      "hit": false,
      "t": 165129.18924999508,
      "d": 123.92232291665277,
      "v": 75
    },
    {
      "midi": 65,
      "hit": false,
      "t": 165258.49949999506,
      "d": 123.92232291665277,
      "v": 75
    },
    {
      "midi": 67,
      "hit": false,
      "t": 165387.80974999504,
      "d": 123.92232291665277,
      "v": 75
    },
    {
      "midi": 64,
      "hit": false,
      "t": 165517.11999999502,
      "d": 123.92232291665277,
      "v": 75
    },
    {
      "midi": 48,
      "hit": false,
      "t": 165517.1199999969,
      "d": 511.8530729166523,
      "v": 76
    },
    {
      "midi": 67,
      "hit": false,
      "t": 165646.430249995,
      "d": 123.92232291665277,
      "v": 75
    },
    {
      "midi": 65,
      "hit": false,
      "t": 165775.74049999498,
      "d": 123.92232291665277,
      "v": 75
    },
    {
      "midi": 64,
      "hit": false,
      "t": 165905.05074999496,
      "d": 123.92232291665277,
      "v": 75
    },
    {
      "midi": 65,
      "hit": false,
      "t": 166034.36099999494,
      "d": 123.92232291665277,
      "v": 75
    },
    {
      "midi": 50,
      "hit": false,
      "t": 166034.3609999969,
      "d": 511.8530729166523,
      "v": 76
    },
    {
      "midi": 55,
      "hit": false,
      "t": 166034.3609999969,
      "d": 1029.0940729166323,
      "v": 76
    },
    {
      "midi": 67,
      "hit": false,
      "t": 166163.67124999492,
      "d": 123.92232291665277,
      "v": 75
    },
    {
      "midi": 69,
      "hit": false,
      "t": 166292.9814999949,
      "d": 123.92232291665277,
      "v": 75
    },
    {
      "midi": 71,
      "hit": false,
      "t": 166422.29174999488,
      "d": 123.92232291665277,
      "v": 75
    },
    {
      "midi": 72,
      "hit": false,
      "t": 166551.60199999486,
      "d": 123.92232291665277,
      "v": 75
    },
    {
      "midi": 52,
      "hit": false,
      "t": 166551.60199999687,
      "d": 1029.0940729166323,
      "v": 76
    },
    {
      "midi": 74,
      "hit": false,
      "t": 166680.91224999484,
      "d": 123.92232291665277,
      "v": 75
    },
    {
      "midi": 76,
      "hit": false,
      "t": 166810.22249999482,
      "d": 123.92232291665277,
      "v": 75
    },
    {
      "midi": 74,
      "hit": false,
      "t": 166939.5327499948,
      "d": 123.92232291665277,
      "v": 75
    },
    {
      "midi": 72,
      "hit": false,
      "t": 167068.84299999478,
      "d": 123.92232291665277,
      "v": 75
    },
    {
      "midi": 60,
      "hit": false,
      "t": 167068.84299999685,
      "d": 511.8530729166523,
      "v": 76
    },
    {
      "midi": 70,
      "hit": false,
      "t": 167198.15324999476,
      "d": 123.92232291665277,
      "v": 75
    },
    {
      "midi": 69,
      "hit": false,
      "t": 167327.46349999474,
      "d": 123.92232291665277,
      "v": 75
    },
    {
      "midi": 68,
      "hit": false,
      "t": 167456.77374999473,
      "d": 123.92232291665277,
      "v": 75
    },
    {
      "midi": 69,
      "hit": false,
      "t": 167586.0839999947,
      "d": 123.92232291665277,
      "v": 76
    },
    {
      "midi": 53,
      "hit": false,
      "t": 167586.08399999683,
      "d": 511.8530729166523,
      "v": 76
    },
    {
      "midi": 60,
      "hit": false,
      "t": 167586.08399999683,
      "d": 511.8530729166523,
      "v": 76
    },
    {
      "midi": 71,
      "hit": false,
      "t": 167715.3942499947,
      "d": 123.92232291665277,
      "v": 78
    },
    {
      "midi": 72,
      "hit": false,
      "t": 167844.70449999467,
      "d": 123.92232291665277,
      "v": 78
    },
    {
      "midi": 71,
      "hit": false,
      "t": 167974.01474999465,
      "d": 123.92232291665277,
      "v": 79
    },
    {
      "midi": 72,
      "hit": false,
      "t": 168103.32499999463,
      "d": 123.92232291665277,
      "v": 79
    },
    {
      "midi": 73,
      "hit": false,
      "t": 168232.6352499946,
      "d": 123.92232291665277,
      "v": 81
    },
    {
      "midi": 74,
      "hit": false,
      "t": 168361.9454999946,
      "d": 123.92232291665277,
      "v": 81
    },
    {
      "midi": 73,
      "hit": false,
      "t": 168491.25574999457,
      "d": 123.92232291665277,
      "v": 82
    },
    {
      "midi": 74,
      "hit": false,
      "t": 168620.56599999455,
      "d": 123.92232291665277,
      "v": 82
    },
    {
      "midi": 76,
      "hit": false,
      "t": 168749.87624999453,
      "d": 123.92232291665277,
      "v": 84
    },
    {
      "midi": 77,
      "hit": false,
      "t": 168879.1864999945,
      "d": 123.92232291665277,
      "v": 84
    },
    {
      "midi": 76,
      "hit": false,
      "t": 169008.4967499945,
      "d": 123.92232291665277,
      "v": 85
    },
    {
      "midi": 77,
      "hit": false,
      "t": 169137.80699999447,
      "d": 123.92232291665277,
      "v": 85
    },
    {
      "midi": 80,
      "hit": false,
      "t": 169267.11724999445,
      "d": 123.92232291665277,
      "v": 87
    },
    {
      "midi": 81,
      "hit": false,
      "t": 169396.42749999443,
      "d": 123.92232291665277,
      "v": 87
    },
    {
      "midi": 80,
      "hit": false,
      "t": 169525.7377499944,
      "d": 123.92232291665277,
      "v": 88
    },
    {
      "midi": 81,
      "hit": false,
      "t": 169655.0479999944,
      "d": 123.92232291665277,
      "v": 90
    },
    {
      "midi": 53,
      "hit": false,
      "t": 169655.0479999968,
      "d": 123.92232291665277,
      "v": 90
    },
    {
      "midi": 83,
      "hit": false,
      "t": 169784.35824999437,
      "d": 123.92232291665277,
      "v": 90
    },
    {
      "midi": 62,
      "hit": false,
      "t": 169784.3582499968,
      "d": 123.92232291665277,
      "v": 90
    },
    {
      "midi": 84,
      "hit": false,
      "t": 169913.66849999435,
      "d": 123.92232291665277,
      "v": 90
    },
    {
      "midi": 57,
      "hit": false,
      "t": 169913.66849999677,
      "d": 123.92232291665277,
      "v": 90
    },
    {
      "midi": 83,
      "hit": false,
      "t": 170042.97874999433,
      "d": 123.92232291665277,
      "v": 90
    },
    {
      "midi": 62,
      "hit": false,
      "t": 170042.97874999675,
      "d": 123.92232291665277,
      "v": 90
    },
    {
      "midi": 84,
      "hit": false,
      "t": 170172.2889999943,
      "d": 123.92232291665277,
      "v": 90
    },
    {
      "midi": 53,
      "hit": false,
      "t": 170172.28899999673,
      "d": 123.92232291665277,
      "v": 90
    },
    {
      "midi": 83,
      "hit": false,
      "t": 170301.5992499943,
      "d": 123.92232291665277,
      "v": 90
    },
    {
      "midi": 62,
      "hit": false,
      "t": 170301.5992499967,
      "d": 123.92232291665277,
      "v": 90
    },
    {
      "midi": 84,
      "hit": false,
      "t": 170430.90949999428,
      "d": 123.92232291665277,
      "v": 90
    },
    {
      "midi": 57,
      "hit": false,
      "t": 170430.9094999967,
      "d": 123.92232291665277,
      "v": 90
    },
    {
      "midi": 83,
      "hit": false,
      "t": 170560.21974999426,
      "d": 123.92232291665277,
      "v": 90
    },
    {
      "midi": 62,
      "hit": false,
      "t": 170560.21974999667,
      "d": 123.92232291665277,
      "v": 90
    },
    {
      "midi": 86,
      "hit": false,
      "t": 170689.52999999424,
      "d": 123.92232291665277,
      "v": 90
    },
    {
      "midi": 53,
      "hit": false,
      "t": 170689.52999999665,
      "d": 123.92232291665277,
      "v": 90
    },
    {
      "midi": 84,
      "hit": false,
      "t": 170818.84024999422,
      "d": 123.92232291665277,
      "v": 90
    },
    {
      "midi": 62,
      "hit": false,
      "t": 170818.84024999663,
      "d": 123.92232291665277,
      "v": 90
    },
    {
      "midi": 83,
      "hit": false,
      "t": 170948.1504999942,
      "d": 123.92232291665277,
      "v": 90
    },
    {
      "midi": 57,
      "hit": false,
      "t": 170948.1504999966,
      "d": 123.92232291665277,
      "v": 90
    },
    {
      "midi": 81,
      "hit": false,
      "t": 171077.46074999418,
      "d": 123.92232291665277,
      "v": 90
    },
    {
      "midi": 62,
      "hit": false,
      "t": 171077.4607499966,
      "d": 123.92232291665277,
      "v": 90
    },
    {
      "midi": 83,
      "hit": false,
      "t": 171206.77099999416,
      "d": 123.92232291665277,
      "v": 90
    },
    {
      "midi": 53,
      "hit": false,
      "t": 171206.77099999657,
      "d": 123.92232291665277,
      "v": 90
    },
    {
      "midi": 81,
      "hit": false,
      "t": 171336.08124999414,
      "d": 123.92232291665277,
      "v": 90
    },
    {
      "midi": 62,
      "hit": false,
      "t": 171336.08124999655,
      "d": 123.92232291665277,
      "v": 90
    },
    {
      "midi": 79,
      "hit": false,
      "t": 171465.39149999412,
      "d": 123.92232291665277,
      "v": 90
    },
    {
      "midi": 57,
      "hit": false,
      "t": 171465.39149999653,
      "d": 123.92232291665277,
      "v": 90
    },
    {
      "midi": 77,
      "hit": false,
      "t": 171594.7017499941,
      "d": 123.92232291665277,
      "v": 90
    },
    {
      "midi": 62,
      "hit": false,
      "t": 171594.70174999651,
      "d": 123.92232291665277,
      "v": 90
    },
    {
      "midi": 76,
      "hit": false,
      "t": 171724.01199999408,
      "d": 123.92232291665277,
      "v": 82
    },
    {
      "midi": 55,
      "hit": false,
      "t": 171724.0119999965,
      "d": 123.92232291665277,
      "v": 76
    },
    {
      "midi": 79,
      "hit": false,
      "t": 171853.32224999406,
      "d": 123.92232291665277,
      "v": 82
    },
    {
      "midi": 64,
      "hit": false,
      "t": 171853.32224999648,
      "d": 123.92232291665277,
      "v": 76
    },
    {
      "midi": 81,
      "hit": false,
      "t": 171982.63249999404,
      "d": 123.92232291665277,
      "v": 82
    },
    {
      "midi": 60,
      "hit": false,
      "t": 171982.63249999646,
      "d": 123.92232291665277,
      "v": 76
    },
    {
      "midi": 79,
      "hit": false,
      "t": 172111.94274999402,
      "d": 123.92232291665277,
      "v": 82
    },
    {
      "midi": 64,
      "hit": false,
      "t": 172111.94274999644,
      "d": 123.92232291665277,
      "v": 76
    },
    {
      "midi": 77,
      "hit": false,
      "t": 172241.252999994,
      "d": 123.92232291665277,
      "v": 75
    },
    {
      "midi": 55,
      "hit": false,
      "t": 172241.25299999642,
      "d": 123.92232291665277,
      "v": 76
    },
    {
      "midi": 76,
      "hit": false,
      "t": 172370.56324999398,
      "d": 123.92232291665277,
      "v": 75
    },
    {
      "midi": 64,
      "hit": false,
      "t": 172370.5632499964,
      "d": 123.92232291665277,
      "v": 76
    },
    {
      "midi": 74,
      "hit": false,
      "t": 172499.87349999396,
      "d": 123.92232291665277,
      "v": 75
    },
    {
      "midi": 60,
      "hit": false,
      "t": 172499.87349999638,
      "d": 123.92232291665277,
      "v": 76
    },
    {
      "midi": 72,
      "hit": false,
      "t": 172629.18374999394,
      "d": 123.92232291665277,
      "v": 75
    },
    {
      "midi": 64,
      "hit": false,
      "t": 172629.18374999636,
      "d": 123.92232291665277,
      "v": 76
    },
    {
      "midi": 76,
      "hit": false,
      "t": 172758.49399999392,
      "d": 59.26719791666255,
      "v": 75
    },
    {
      "midi": 55,
      "hit": false,
      "t": 172758.49399999634,
      "d": 123.92232291665277,
      "v": 76
    },
    {
      "midi": 74,
      "hit": false,
      "t": 172823.1491249939,
      "d": 59.26719791666255,
      "v": 75
    },
    {
      "midi": 76,
      "hit": false,
      "t": 172887.8042499939,
      "d": 59.26719791666255,
      "v": 75
    },
    {
      "midi": 65,
      "hit": false,
      "t": 172887.80424999632,
      "d": 123.92232291665277,
      "v": 76
    },
    {
      "midi": 74,
      "hit": false,
      "t": 172952.4593749939,
      "d": 59.26719791666255,
      "v": 75
    },
    {
      "midi": 76,
      "hit": false,
      "t": 173017.11449999388,
      "d": 59.26719791666255,
      "v": 75
    },
    {
      "midi": 59,
      "hit": false,
      "t": 173017.1144999963,
      "d": 123.92232291665277,
      "v": 76
    },
    {
      "midi": 74,
      "hit": false,
      "t": 173081.76962499387,
      "d": 59.26719791666255,
      "v": 75
    },
    {
      "midi": 76,
      "hit": false,
      "t": 173146.42474999386,
      "d": 59.26719791666255,
      "v": 75
    },
    {
      "midi": 65,
      "hit": false,
      "t": 173146.42474999628,
      "d": 123.92232291665277,
      "v": 76
    },
    {
      "midi": 74,
      "hit": false,
      "t": 173211.07987499385,
      "d": 59.26719791666255,
      "v": 75
    },
    {
      "midi": 76,
      "hit": false,
      "t": 173275.73499999385,
      "d": 59.26719791666255,
      "v": 75
    },
    {
      "midi": 55,
      "hit": false,
      "t": 173275.73499999626,
      "d": 123.92232291665277,
      "v": 76
    },
    {
      "midi": 74,
      "hit": false,
      "t": 173340.39012499384,
      "d": 59.26719791666255,
      "v": 75
    },
    {
      "midi": 76,
      "hit": false,
      "t": 173405.04524999383,
      "d": 59.26719791666255,
      "v": 75
    },
    {
      "midi": 65,
      "hit": false,
      "t": 173405.04524999624,
      "d": 123.92232291665277,
      "v": 76
    },
    {
      "midi": 74,
      "hit": false,
      "t": 173469.70037499382,
      "d": 59.26719791666255,
      "v": 75
    },
    {
      "midi": 72,
      "hit": false,
      "t": 173534.3554999938,
      "d": 123.92232291665277,
      "v": 75
    },
    {
      "midi": 59,
      "hit": false,
      "t": 173534.35549999622,
      "d": 123.92232291665277,
      "v": 76
    },
    {
      "midi": 74,
      "hit": false,
      "t": 173663.6657499938,
      "d": 123.92232291665277,
      "v": 75
    },
    {
      "midi": 65,
      "hit": false,
      "t": 173663.6657499962,
      "d": 123.92232291665277,
      "v": 76
    },
    {
      "midi": 60,
      "hit": false,
      "t": 173792.97599999618,
      "d": 511.8530729166523,
      "v": 57
    },
    {
      "midi": 64,
      "hit": false,
      "t": 173792.97599999618,
      "d": 511.8530729166523,
      "v": 57
    },
    {
      "midi": 84,
      "hit": false,
      "t": 173922.28624999378,
      "d": 123.92232291665277,
      "v": 60
    },
    {
      "midi": 83,
      "hit": false,
      "t": 174051.59649999376,
      "d": 123.92232291665277,
      "v": 60
    },
    {
      "midi": 81,
      "hit": false,
      "t": 174180.90674999374,
      "d": 123.92232291665277,
      "v": 60
    },
    {
      "midi": 79,
      "hit": false,
      "t": 174310.21699999372,
      "d": 123.92232291665277,
      "v": 60
    },
    {
      "midi": 81,
      "hit": false,
      "t": 174439.5272499937,
      "d": 123.92232291665277,
      "v": 60
    },
    {
      "midi": 78,
      "hit": false,
      "t": 174568.83749999368,
      "d": 123.92232291665277,
      "v": 60
    },
    {
      "midi": 81,
      "hit": false,
      "t": 174698.14774999366,
      "d": 123.92232291665277,
      "v": 60
    },
    {
      "midi": 79,
      "hit": false,
      "t": 174827.45799999364,
      "d": 123.92232291665277,
      "v": 60
    },
    {
      "midi": 81,
      "hit": false,
      "t": 174956.76824999362,
      "d": 123.92232291665277,
      "v": 60
    },
    {
      "midi": 78,
      "hit": false,
      "t": 175086.0784999936,
      "d": 123.92232291665277,
      "v": 60
    },
    {
      "midi": 81,
      "hit": false,
      "t": 175215.38874999358,
      "d": 123.92232291665277,
      "v": 60
    },
    {
      "midi": 79,
      "hit": false,
      "t": 175344.69899999356,
      "d": 123.92232291665277,
      "v": 60
    },
    {
      "midi": 71,
      "hit": false,
      "t": 175344.69899999356,
      "d": 253.23257291663322,
      "v": 75
    },
    {
      "midi": 81,
      "hit": false,
      "t": 175474.00924999354,
      "d": 123.92232291665277,
      "v": 60
    },
    {
      "midi": 77,
      "hit": false,
      "t": 175603.31949999352,
      "d": 123.92232291665277,
      "v": 60
    },
    {
      "midi": 67,
      "hit": false,
      "t": 175603.31949999352,
      "d": 253.23257291663322,
      "v": 75
    },
    {
      "midi": 79,
      "hit": false,
      "t": 175732.6297499935,
      "d": 123.92232291665277,
      "v": 60
    },
    {
      "midi": 76,
      "hit": false,
      "t": 175861.93999999348,
      "d": 123.92232291665277,
      "v": 75
    },
    {
      "midi": 72,
      "hit": false,
      "t": 175861.93999999348,
      "d": 511.8530729165941,
      "v": 82
    },
    {
      "midi": 84,
      "hit": false,
      "t": 175991.25024999346,
      "d": 123.92232291665277,
      "v": 75
    },
    {
      "midi": 83,
      "hit": false,
      "t": 176120.56049999344,
      "d": 123.92232291665277,
      "v": 75
    },
    {
      "midi": 81,
      "hit": false,
      "t": 176249.87074999342,
      "d": 123.92232291665277,
      "v": 75
    },
    {
      "midi": 79,
      "hit": false,
      "t": 176379.1809999934,
      "d": 123.92232291665277,
      "v": 75
    },
    {
      "midi": 81,
      "hit": false,
      "t": 176508.49124999339,
      "d": 123.92232291665277,
      "v": 75
    },
    {
      "midi": 78,
      "hit": false,
      "t": 176637.80149999337,
      "d": 123.92232291665277,
      "v": 75
    },
    {
      "midi": 81,
      "hit": false,
      "t": 176767.11174999335,
      "d": 123.92232291665277,
      "v": 75
    },
    {
      "midi": 79,
      "hit": false,
      "t": 176896.42199999333,
      "d": 123.92232291665277,
      "v": 75
    },
    {
      "midi": 81,
      "hit": false,
      "t": 177025.7322499933,
      "d": 123.92232291665277,
      "v": 75
    },
    {
      "midi": 78,
      "hit": false,
      "t": 177155.0424999933,
      "d": 123.92232291665277,
      "v": 75
    },
    {
      "midi": 81,
      "hit": false,
      "t": 177284.35274999327,
      "d": 123.92232291665277,
      "v": 75
    },
    {
      "midi": 79,
      "hit": false,
      "t": 177413.66299999325,
      "d": 123.92232291665277,
      "v": 75
    },
    {
      "midi": 71,
      "hit": false,
      "t": 177413.66299999325,
      "d": 253.23257291663322,
      "v": 82
    },
    {
      "midi": 81,
      "hit": false,
      "t": 177542.97324999323,
      "d": 123.92232291665277,
      "v": 75
    },
    {
      "midi": 77,
      "hit": false,
      "t": 177672.2834999932,
      "d": 123.92232291665277,
      "v": 75
    },
    {
      "midi": 67,
      "hit": false,
      "t": 177672.2834999932,
      "d": 253.23257291663322,
      "v": 82
    },
    {
      "midi": 79,
      "hit": false,
      "t": 177801.5937499932,
      "d": 123.92232291665277,
      "v": 75
    },
    {
      "midi": 76,
      "hit": false,
      "t": 177930.90399999317,
      "d": 123.92232291665277,
      "v": 75
    },
    {
      "midi": 72,
      "hit": false,
      "t": 177930.90399999317,
      "d": 511.8530729165941,
      "v": 82
    },
    {
      "midi": 77,
      "hit": false,
      "t": 178060.21424999315,
      "d": 123.92232291665277,
      "v": 75
    },
    {
      "midi": 74,
      "hit": false,
      "t": 178189.52449999313,
      "d": 123.92232291665277,
      "v": 75
    },
    {
      "midi": 76,
      "hit": false,
      "t": 178318.8347499931,
      "d": 123.92232291665277,
      "v": 75
    },
    {
      "midi": 72,
      "hit": false,
      "t": 178448.1449999931,
      "d": 123.92232291665277,
      "v": 75
    },
    {
      "midi": 74,
      "hit": false,
      "t": 178577.45524999307,
      "d": 123.92232291665277,
      "v": 75
    },
    {
      "midi": 71,
      "hit": false,
      "t": 178706.76549999305,
      "d": 123.92232291665277,
      "v": 75
    },
    {
      "midi": 72,
      "hit": false,
      "t": 178836.07574999303,
      "d": 123.92232291665277,
      "v": 75
    },
    {
      "midi": 69,
      "hit": false,
      "t": 178965.385999993,
      "d": 123.92232291665277,
      "v": 75
    },
    {
      "midi": 60,
      "hit": false,
      "t": 178965.38599999616,
      "d": 511.8530729166523,
      "v": 82
    },
    {
      "midi": 52,
      "hit": false,
      "t": 178965.38599999616,
      "d": 1029.0940729166323,
      "v": 82
    },
    {
      "midi": 71,
      "hit": false,
      "t": 179094.696249993,
      "d": 123.92232291665277,
      "v": 75
    },
    {
      "midi": 67,
      "hit": false,
      "t": 179224.00649999297,
      "d": 123.92232291665277,
      "v": 75
    },
    {
      "midi": 69,
      "hit": false,
      "t": 179353.31674999296,
      "d": 123.92232291665277,
      "v": 75
    },
    {
      "midi": 65,
      "hit": false,
      "t": 179482.62699999294,
      "d": 123.92232291665277,
      "v": 75
    },
    {
      "midi": 55,
      "hit": false,
      "t": 179482.62699999614,
      "d": 511.8530729166523,
      "v": 82
    },
    {
      "midi": 67,
      "hit": false,
      "t": 179611.93724999292,
      "d": 123.92232291665277,
      "v": 75
    },
    {
      "midi": 64,
      "hit": false,
      "t": 179741.2474999929,
      "d": 123.92232291665277,
      "v": 75
    },
    {
      "midi": 65,
      "hit": false,
      "t": 179870.55774999288,
      "d": 123.92232291665277,
      "v": 75
    },
    {
      "midi": 62,
      "hit": false,
      "t": 179999.86799999286,
      "d": 253.23257291666232,
      "v": 75
    },
    {
      "midi": 53,
      "hit": false,
      "t": 179999.86799999612,
      "d": 1029.0940729166614,
      "v": 76
    },
    {
      "midi": 57,
      "hit": false,
      "t": 179999.86799999612,
      "d": 1029.0940729166614,
      "v": 76
    },
    {
      "midi": 64,
      "hit": false,
      "t": 180258.48849999285,
      "d": 123.92232291665277,
      "v": 75
    },
    {
      "midi": 65,
      "hit": false,
      "t": 180387.79874999283,
      "d": 123.92232291665277,
      "v": 75
    },
    {
      "midi": 67,
      "hit": false,
      "t": 180517.1089999928,
      "d": 123.92232291665277,
      "v": 75
    },
    {
      "midi": 69,
      "hit": false,
      "t": 180646.4192499928,
      "d": 123.92232291665277,
      "v": 75
    },
    {
      "midi": 71,
      "hit": false,
      "t": 180775.72949999277,
      "d": 123.92232291665277,
      "v": 75
    },
    {
      "midi": 72,
      "hit": false,
      "t": 180905.03974999275,
      "d": 123.92232291665277,
      "v": 75
    },
    {
      "midi": 74,
      "hit": false,
      "t": 181034.34999999273,
      "d": 123.92232291665277,
      "v": 75
    },
    {
      "midi": 53,
      "hit": false,
      "t": 181034.3499999961,
      "d": 1029.0940729166614,
      "v": 82
    },
    {
      "midi": 55,
      "hit": false,
      "t": 181034.3499999961,
      "d": 1029.0940729166614,
      "v": 82
    },
    {
      "midi": 59,
      "hit": false,
      "t": 181034.3499999961,
      "d": 1029.0940729166614,
      "v": 82
    },
    {
      "midi": 76,
      "hit": false,
      "t": 181163.6602499927,
      "d": 123.92232291665277,
      "v": 75
    },
    {
      "midi": 77,
      "hit": false,
      "t": 181292.9704999927,
      "d": 123.92232291665277,
      "v": 75
    },
    {
      "midi": 79,
      "hit": false,
      "t": 181422.28074999267,
      "d": 123.92232291665277,
      "v": 75
    },
    {
      "midi": 81,
      "hit": false,
      "t": 181551.59099999265,
      "d": 123.92232291665277,
      "v": 82
    },
    {
      "midi": 83,
      "hit": false,
      "t": 181680.90124999263,
      "d": 123.92232291665277,
      "v": 82
    },
    {
      "midi": 84,
      "hit": false,
      "t": 181810.2114999926,
      "d": 123.92232291665277,
      "v": 82
    },
    {
      "midi": 86,
      "hit": false,
      "t": 181939.5217499926,
      "d": 123.92232291665277,
      "v": 82
    },
    {
      "midi": 88,
      "hit": false,
      "t": 182068.83199999257,
      "d": 123.92232291665277,
      "v": 90
    },
    {
      "midi": 52,
      "hit": false,
      "t": 182068.8319999961,
      "d": 511.8530729166523,
      "v": 90
    },
    {
      "midi": 55,
      "hit": false,
      "t": 182068.8319999961,
      "d": 511.8530729166523,
      "v": 90
    },
    {
      "midi": 60,
      "hit": false,
      "t": 182068.8319999961,
      "d": 511.8530729166523,
      "v": 90
    },
    {
      "midi": 84,
      "hit": false,
      "t": 182198.14224999255,
      "d": 123.92232291665277,
      "v": 90
    },
    {
      "midi": 83,
      "hit": false,
      "t": 182327.45249999253,
      "d": 123.92232291665277,
      "v": 90
    },
    {
      "midi": 84,
      "hit": false,
      "t": 182456.76274999251,
      "d": 123.92232291665277,
      "v": 90
    },
    {
      "midi": 83,
      "hit": false,
      "t": 182586.0729999925,
      "d": 123.92232291665277,
      "v": 90
    },
    {
      "midi": 53,
      "hit": false,
      "t": 182586.07299999607,
      "d": 511.8530729166523,
      "v": 90
    },
    {
      "midi": 60,
      "hit": false,
      "t": 182586.07299999607,
      "d": 1029.0940729166323,
      "v": 90
    },
    {
      "midi": 81,
      "hit": false,
      "t": 182715.38324999248,
      "d": 123.92232291665277,
      "v": 90
    },
    {
      "midi": 79,
      "hit": false,
      "t": 182844.69349999246,
      "d": 123.92232291665277,
      "v": 90
    },
    {
      "midi": 77,
      "hit": false,
      "t": 182974.00374999244,
      "d": 123.92232291665277,
      "v": 90
    },
    {
      "midi": 76,
      "hit": false,
      "t": 183103.31399999242,
      "d": 511.8530729166523,
      "v": 90
    },
    {
      "midi": 55,
      "hit": false,
      "t": 183103.31399999605,
      "d": 511.8530729166523,
      "v": 90
    },
    {
      "midi": 76,
      "hit": false,
      "t": 183620.5549999924,
      "d": 59.26719791666255,
      "v": 90
    },
    {
      "midi": 55,
      "hit": false,
      "t": 183620.55499999603,
      "d": 511.8530729166523,
      "v": 90
    },
    {
      "midi": 59,
      "hit": false,
      "t": 183620.55499999603,
      "d": 511.8530729166523,
      "v": 90
    },
    {
      "midi": 74,
      "hit": false,
      "t": 183685.2101249924,
      "d": 59.26719791666255,
      "v": 90
    },
    {
      "midi": 76,
      "hit": false,
      "t": 183749.86524999238,
      "d": 59.26719791666255,
      "v": 90
    },
    {
      "midi": 74,
      "hit": false,
      "t": 183814.52037499237,
      "d": 59.26719791666255,
      "v": 90
    },
    {
      "midi": 72,
      "hit": false,
      "t": 183879.17549999236,
      "d": 123.92232291665277,
      "v": 90
    },
    {
      "midi": 74,
      "hit": false,
      "t": 184008.48574999234,
      "d": 123.92232291665277,
      "v": 90
    },
    {
      "midi": 72,
      "hit": false,
      "t": 184137.79599999232,
      "d": 123.92232291665277,
      "v": 90
    },
    {
      "midi": 72,
      "hit": false,
      "t": 184267.1062499923,
      "d": 123.92232291665277,
      "v": 60
    },
    {
      "midi": 71,
      "hit": false,
      "t": 184396.41649999228,
      "d": 123.92232291665277,
      "v": 60
    },
    {
      "midi": 69,
      "hit": false,
      "t": 184525.72674999226,
      "d": 123.92232291665277,
      "v": 60
    },
    {
      "midi": 67,
      "hit": false,
      "t": 184655.03699999224,
      "d": 123.92232291665277,
      "v": 60
    },
    {
      "midi": 69,
      "hit": false,
      "t": 184784.34724999222,
      "d": 123.92232291665277,
      "v": 60
    },
    {
      "midi": 66,
      "hit": false,
      "t": 184913.6574999922,
      "d": 123.92232291665277,
      "v": 60
    },
    {
      "midi": 69,
      "hit": false,
      "t": 185042.96774999218,
      "d": 123.92232291665277,
      "v": 60
    },
    {
      "midi": 67,
      "hit": false,
      "t": 185172.27799999216,
      "d": 123.92232291665277,
      "v": 60
    },
    {
      "midi": 69,
      "hit": false,
      "t": 185301.58824999214,
      "d": 123.92232291665277,
      "v": 60
    },
    {
      "midi": 66,
      "hit": false,
      "t": 185430.89849999212,
      "d": 123.92232291665277,
      "v": 60
    },
    {
      "midi": 69,
      "hit": false,
      "t": 185560.2087499921,
      "d": 123.92232291665277,
      "v": 60
    },
    {
      "midi": 65,
      "hit": false,
      "t": 185689.51899999208,
      "d": 123.92232291665277,
      "v": 60
    },
    {
      "midi": 83,
      "hit": false,
      "t": 185689.51899999208,
      "d": 253.23257291663322,
      "v": 75
    },
    {
      "midi": 74,
      "hit": false,
      "t": 185689.51899999208,
      "d": 511.8530729166232,
      "v": 75
    },
    {
      "midi": 67,
      "hit": false,
      "t": 185818.82924999206,
      "d": 123.92232291665277,
      "v": 60
    },
    {
      "midi": 79,
      "hit": false,
      "t": 185948.13949999204,
      "d": 253.23257291666232,
      "v": 75
    },
    {
      "midi": 64,
      "hit": false,
      "t": 186206.75999999203,
      "d": 123.92232291665277,
      "v": 75
    },
    {
      "midi": 76,
      "hit": false,
      "t": 186206.75999999203,
      "d": 511.8530729165941,
      "v": 82
    },
    {
      "midi": 84,
      "hit": false,
      "t": 186206.75999999203,
      "d": 511.8530729165941,
      "v": 82
    },
    {
      "midi": 72,
      "hit": false,
      "t": 186336.07024999202,
      "d": 123.92232291665277,
      "v": 75
    },
    {
      "midi": 71,
      "hit": false,
      "t": 186465.380499992,
      "d": 123.92232291665277,
      "v": 75
    },
    {
      "midi": 69,
      "hit": false,
      "t": 186594.69074999198,
      "d": 123.92232291665277,
      "v": 75
    },
    {
      "midi": 67,
      "hit": false,
      "t": 186724.00099999196,
      "d": 123.92232291665277,
      "v": 75
    },
    {
      "midi": 69,
      "hit": false,
      "t": 186853.31124999194,
      "d": 123.92232291665277,
      "v": 75
    },
    {
      "midi": 65,
      "hit": false,
      "t": 186982.62149999192,
      "d": 123.92232291665277,
      "v": 75
    },
    {
      "midi": 69,
      "hit": false,
      "t": 187111.9317499919,
      "d": 123.92232291665277,
      "v": 75
    },
    {
      "midi": 67,
      "hit": false,
      "t": 187241.24199999188,
      "d": 123.92232291665277,
      "v": 75
    },
    {
      "midi": 69,
      "hit": false,
      "t": 187370.55224999186,
      "d": 123.92232291665277,
      "v": 75
    },
    {
      "midi": 65,
      "hit": false,
      "t": 187499.86249999184,
      "d": 123.92232291665277,
      "v": 75
    },
    {
      "midi": 69,
      "hit": false,
      "t": 187629.17274999182,
      "d": 123.92232291665277,
      "v": 75
    },
    {
      "midi": 67,
      "hit": false,
      "t": 187758.4829999918,
      "d": 123.92232291665277,
      "v": 75
    },
    {
      "midi": 83,
      "hit": false,
      "t": 187758.4829999918,
      "d": 253.23257291663322,
      "v": 82
    },
    {
      "midi": 74,
      "hit": false,
      "t": 187758.4829999918,
      "d": 511.8530729165941,
      "v": 82
    },
    {
      "midi": 69,
      "hit": false,
      "t": 187887.79324999178,
      "d": 123.92232291665277,
      "v": 75
    },
    {
      "midi": 65,
      "hit": false,
      "t": 188017.10349999176,
      "d": 123.92232291665277,
      "v": 75
    },
    {
      "midi": 79,
      "hit": false,
      "t": 188017.10349999176,
      "d": 253.23257291663322,
      "v": 82
    },
    {
      "midi": 67,
      "hit": false,
      "t": 188146.41374999174,
      "d": 123.92232291665277,
      "v": 75
    },
    {
      "midi": 76,
      "hit": false,
      "t": 188275.72399999172,
      "d": 511.8530729166523,
      "v": 82
    },
    {
      "midi": 84,
      "hit": false,
      "t": 188275.72399999172,
      "d": 511.8530729166523,
      "v": 82
    },
    {
      "midi": 64,
      "hit": false,
      "t": 188275.72399999603,
      "d": 123.92232291665277,
      "v": 76
    },
    {
      "midi": 65,
      "hit": false,
      "t": 188405.034249996,
      "d": 123.92232291665277,
      "v": 76
    },
    {
      "midi": 62,
      "hit": false,
      "t": 188534.344499996,
      "d": 123.92232291665277,
      "v": 76
    },
    {
      "midi": 64,
      "hit": false,
      "t": 188663.65474999597,
      "d": 123.92232291665277,
      "v": 76
    },
    {
      "midi": 81,
      "hit": false,
      "t": 188792.9649999917,
      "d": 59.26719791666255,
      "v": 75
    },
    {
      "midi": 60,
      "hit": false,
      "t": 188792.96499999595,
      "d": 123.92232291665277,
      "v": 76
    },
    {
      "midi": 79,
      "hit": false,
      "t": 188857.6201249917,
      "d": 59.26719791666255,
      "v": 75
    },
    {
      "midi": 81,
      "hit": false,
      "t": 188922.27524999168,
      "d": 59.26719791666255,
      "v": 75
    },
    {
      "midi": 62,
      "hit": false,
      "t": 188922.27524999593,
      "d": 123.92232291665277,
      "v": 76
    },
    {
      "midi": 79,
      "hit": false,
      "t": 188986.93037499167,
      "d": 59.26719791666255,
      "v": 75
    },
    {
      "midi": 81,
      "hit": false,
      "t": 189051.58549999166,
      "d": 59.26719791666255,
      "v": 75
    },
    {
      "midi": 59,
      "hit": false,
      "t": 189051.5854999959,
      "d": 123.92232291665277,
      "v": 76
    },
    {
      "midi": 79,
      "hit": false,
      "t": 189116.24062499165,
      "d": 59.26719791666255,
      "v": 75
    },
    {
      "midi": 78,
      "hit": false,
      "t": 189180.89574999164,
      "d": 59.26719791666255,
      "v": 75
    },
    {
      "midi": 60,
      "hit": false,
      "t": 189180.8957499959,
      "d": 123.92232291665277,
      "v": 76
    },
    {
      "midi": 79,
      "hit": false,
      "t": 189245.55087499163,
      "d": 59.26719791666255,
      "v": 75
    },
    {
      "midi": 84,
      "hit": false,
      "t": 189310.20599999162,
      "d": 1029.0940729166614,
      "v": 82
    },
    {
      "midi": 57,
      "hit": false,
      "t": 189310.20599999587,
      "d": 123.92232291665277,
      "v": 76
    },
    {
      "midi": 59,
      "hit": false,
      "t": 189439.51624999585,
      "d": 123.92232291665277,
      "v": 76
    },
    {
      "midi": 55,
      "hit": false,
      "t": 189568.82649999583,
      "d": 123.92232291665277,
      "v": 76
    },
    {
      "midi": 57,
      "hit": false,
      "t": 189698.1367499958,
      "d": 123.92232291665277,
      "v": 76
    },
    {
      "midi": 77,
      "hit": false,
      "t": 189827.44699999163,
      "d": 59.26719791666255,
      "v": 75
    },
    {
      "midi": 53,
      "hit": false,
      "t": 189827.4469999958,
      "d": 123.92232291665277,
      "v": 76
    },
    {
      "midi": 76,
      "hit": false,
      "t": 189892.10212499162,
      "d": 59.26719791666255,
      "v": 75
    },
    {
      "midi": 77,
      "hit": false,
      "t": 189956.7572499916,
      "d": 59.26719791669166,
      "v": 75
    },
    {
      "midi": 55,
      "hit": false,
      "t": 189956.75724999578,
      "d": 123.92232291665277,
      "v": 76
    },
    {
      "midi": 76,
      "hit": false,
      "t": 189999.8606666583,
      "d": 59.26719791669166,
      "v": 75
    },
    {
      "midi": 77,
      "hit": false,
      "t": 190086.06749999165,
      "d": 59.26719791666255,
      "v": 75
    },
    {
      "midi": 52,
      "hit": false,
      "t": 190086.06749999576,
      "d": 123.92232291665277,
      "v": 76
    },
    {
      "midi": 76,
      "hit": false,
      "t": 190150.72262499164,
      "d": 59.26719791666255,
      "v": 75
    },
    {
      "midi": 74,
      "hit": false,
      "t": 190215.37774999163,
      "d": 59.26719791666255,
      "v": 75
    },
    {
      "midi": 53,
      "hit": false,
      "t": 190215.37774999574,
      "d": 123.92232291665277,
      "v": 76
    },
    {
      "midi": 76,
      "hit": false,
      "t": 190280.03287499162,
      "d": 59.26719791666255,
      "v": 75
    },
    {
      "midi": 81,
      "hit": false,
      "t": 190344.6879999916,
      "d": 511.8530729166523,
      "v": 81
    },
    {
      "midi": 77,
      "hit": false,
      "t": 190344.6879999916,
      "d": 1546.3350729166123,
      "v": 81
    },
    {
      "midi": 50,
      "hit": false,
      "t": 190344.68799999572,
      "d": 123.92232291665277,
      "v": 76
    },
    {
      "midi": 52,
      "hit": false,
      "t": 190473.9982499957,
      "d": 123.92232291665277,
      "v": 76
    },
    {
      "midi": 48,
      "hit": false,
      "t": 190603.30849999568,
      "d": 123.92232291665277,
      "v": 76
    },
    {
      "midi": 50,
      "hit": false,
      "t": 190732.61874999566,
      "d": 123.92232291665277,
      "v": 76
    },
    {
      "midi": 86,
      "hit": false,
      "t": 190861.9289999916,
      "d": 382.54282291667187,
      "v": 84
    },
    {
      "midi": 47,
      "hit": false,
      "t": 190861.92899999564,
      "d": 123.92232291665277,
      "v": 76
    },
    {
      "midi": 48,
      "hit": false,
      "t": 190991.23924999562,
      "d": 123.92232291665277,
      "v": 76
    },
    {
      "midi": 45,
      "hit": false,
      "t": 191120.5494999956,
      "d": 123.92232291665277,
      "v": 76
    },
    {
      "midi": 88,
      "hit": false,
      "t": 191249.8597499916,
      "d": 123.92232291665277,
      "v": 85
    },
    {
      "midi": 47,
      "hit": false,
      "t": 191249.85974999558,
      "d": 123.92232291665277,
      "v": 76
    },
    {
      "midi": 89,
      "hit": false,
      "t": 191379.16999999157,
      "d": 511.8530729166523,
      "v": 87
    },
    {
      "midi": 43,
      "hit": false,
      "t": 191379.16999999556,
      "d": 123.92232291665277,
      "v": 76
    },
    {
      "midi": 45,
      "hit": false,
      "t": 191508.48024999554,
      "d": 123.92232291665277,
      "v": 76
    },
    {
      "midi": 41,
      "hit": false,
      "t": 191637.79049999552,
      "d": 123.92232291665277,
      "v": 76
    },
    {
      "midi": 43,
      "hit": false,
      "t": 191767.1007499955,
      "d": 123.92232291665277,
      "v": 76
    },
    {
      "midi": 84,
      "hit": false,
      "t": 191896.41099999155,
      "d": 59.26719791666255,
      "v": 75
    },
    {
      "midi": 79,
      "hit": false,
      "t": 191896.41099999155,
      "d": 511.8530729165941,
      "v": 75
    },
    {
      "midi": 40,
      "hit": false,
      "t": 191896.41099999548,
      "d": 123.92232291665277,
      "v": 76
    },
    {
      "midi": 83,
      "hit": false,
      "t": 191961.06612499154,
      "d": 59.26719791666255,
      "v": 75
    },
    {
      "midi": 84,
      "hit": false,
      "t": 192025.72124999153,
      "d": 59.26719791666255,
      "v": 75
    },
    {
      "midi": 41,
      "hit": false,
      "t": 192025.72124999546,
      "d": 123.92232291665277,
      "v": 76
    },
    {
      "midi": 83,
      "hit": false,
      "t": 192090.37637499152,
      "d": 59.26719791666255,
      "v": 75
    },
    {
      "midi": 84,
      "hit": false,
      "t": 192155.0314999915,
      "d": 59.26719791666255,
      "v": 75
    },
    {
      "midi": 38,
      "hit": false,
      "t": 192155.03149999544,
      "d": 123.92232291665277,
      "v": 76
    },
    {
      "midi": 83,
      "hit": false,
      "t": 192219.6866249915,
      "d": 59.26719791666255,
      "v": 75
    },
    {
      "midi": 81,
      "hit": false,
      "t": 192284.3417499915,
      "d": 59.26719791666255,
      "v": 75
    },
    {
      "midi": 41,
      "hit": false,
      "t": 192284.34174999542,
      "d": 123.92232291665277,
      "v": 76
    },
    {
      "midi": 83,
      "hit": false,
      "t": 192348.99687499148,
      "d": 59.26719791666255,
      "v": 75
    },
    {
      "midi": 79,
      "hit": false,
      "t": 192413.65199999147,
      "d": 123.92232291665277,
      "v": 90
    },
    {
      "midi": 84,
      "hit": false,
      "t": 192413.65199999147,
      "d": 123.92232291665277,
      "v": 82
    },
    {
      "midi": 40,
      "hit": false,
      "t": 192413.6519999954,
      "d": 123.92232291665277,
      "v": 97
    },
    {
      "midi": 83,
      "hit": false,
      "t": 192542.96224999145,
      "d": 123.92232291665277,
      "v": 82
    },
    {
      "midi": 84,
      "hit": false,
      "t": 192672.27249999144,
      "d": 123.92232291665277,
      "v": 82
    },
    {
      "midi": 79,
      "hit": false,
      "t": 192801.58274999142,
      "d": 123.92232291665277,
      "v": 82
    },
    {
      "midi": 74,
      "hit": false,
      "t": 192930.8929999914,
      "d": 123.92232291665277,
      "v": 90
    },
    {
      "midi": 83,
      "hit": false,
      "t": 192930.8929999914,
      "d": 123.92232291665277,
      "v": 82
    },
    {
      "midi": 41,
      "hit": false,
      "t": 192930.89299999538,
      "d": 123.92232291665277,
      "v": 97
    },
    {
      "midi": 81,
      "hit": false,
      "t": 193060.20324999138,
      "d": 123.92232291665277,
      "v": 82
    },
    {
      "midi": 79,
      "hit": false,
      "t": 193189.51349999136,
      "d": 123.92232291665277,
      "v": 82
    },
    {
      "midi": 77,
      "hit": false,
      "t": 193318.82374999134,
      "d": 123.92232291665277,
      "v": 82
    },
    {
      "midi": 72,
      "hit": false,
      "t": 193448.13399999132,
      "d": 123.92232291665277,
      "v": 90
    },
    {
      "midi": 76,
      "hit": false,
      "t": 193448.13399999132,
      "d": 123.92232291665277,
      "v": 82
    },
    {
      "midi": 43,
      "hit": false,
      "t": 193448.13399999536,
      "d": 123.92232291665277,
      "v": 97
    },
    {
      "midi": 77,
      "hit": false,
      "t": 193577.4442499913,
      "d": 123.92232291665277,
      "v": 82
    },
    {
      "midi": 79,
      "hit": false,
      "t": 193706.75449999128,
      "d": 123.92232291665277,
      "v": 82
    },
    {
      "midi": 76,
      "hit": false,
      "t": 193836.06474999126,
      "d": 123.92232291665277,
      "v": 82
    },
    {
      "midi": 71,
      "hit": false,
      "t": 193965.37499999124,
      "d": 123.92232291665277,
      "v": 90
    },
    {
      "midi": 74,
      "hit": false,
      "t": 193965.37499999124,
      "d": 123.92232291665277,
      "v": 82
    },
    {
      "midi": 31,
      "hit": false,
      "t": 193965.37499999534,
      "d": 123.92232291665277,
      "v": 97
    },
    {
      "midi": 76,
      "hit": false,
      "t": 194094.68524999122,
      "d": 123.92232291665277,
      "v": 82
    },
    {
      "midi": 77,
      "hit": false,
      "t": 194223.9954999912,
      "d": 123.92232291665277,
      "v": 82
    },
    {
      "midi": 74,
      "hit": false,
      "t": 194353.30574999118,
      "d": 123.92232291665277,
      "v": 82
    },
    {
      "midi": 72,
      "hit": false,
      "t": 194482.61599999116,
      "d": 511.8530729166523,
      "v": 60
    },
    {
      "midi": 60,
      "hit": false,
      "t": 194482.61599999532,
      "d": 123.92232291665277,
      "v": 57
    },
    {
      "midi": 62,
      "hit": false,
      "t": 194611.9262499953,
      "d": 123.92232291665277,
      "v": 57
    },
    {
      "midi": 64,
      "hit": false,
      "t": 194741.23649999528,
      "d": 123.92232291665277,
      "v": 57
    },
    {
      "midi": 62,
      "hit": false,
      "t": 194870.54674999526,
      "d": 123.92232291665277,
      "v": 57
    },
    {
      "midi": 72,
      "hit": false,
      "t": 194999.85699999114,
      "d": 382.54282291667187,
      "v": 60
    },
    {
      "midi": 76,
      "hit": false,
      "t": 194999.85699999114,
      "d": 382.54282291667187,
      "v": 60
    },
    {
      "midi": 60,
      "hit": false,
      "t": 194999.85699999525,
      "d": 123.92232291665277,
      "v": 57
    },
    {
      "midi": 59,
      "hit": false,
      "t": 195129.16724999523,
      "d": 123.92232291665277,
      "v": 57
    },
    {
      "midi": 57,
      "hit": false,
      "t": 195258.4774999952,
      "d": 123.92232291665277,
      "v": 57
    },
    {
      "midi": 72,
      "hit": false,
      "t": 195387.78774999114,
      "d": 123.92232291665277,
      "v": 60
    },
    {
      "midi": 76,
      "hit": false,
      "t": 195387.78774999114,
      "d": 123.92232291665277,
      "v": 60
    },
    {
      "midi": 55,
      "hit": false,
      "t": 195387.7877499952,
      "d": 123.92232291665277,
      "v": 57
    },
    {
      "midi": 72,
      "hit": false,
      "t": 195517.09799999112,
      "d": 511.8530729166523,
      "v": 67
    },
    {
      "midi": 76,
      "hit": false,
      "t": 195517.09799999112,
      "d": 511.8530729166523,
      "v": 67
    },
    {
      "midi": 57,
      "hit": false,
      "t": 195517.09799999517,
      "d": 123.92232291665277,
      "v": 57
    },
    {
      "midi": 59,
      "hit": false,
      "t": 195646.40824999515,
      "d": 123.92232291665277,
      "v": 57
    },
    {
      "midi": 60,
      "hit": false,
      "t": 195775.71849999513,
      "d": 123.92232291665277,
      "v": 57
    },
    {
      "midi": 59,
      "hit": false,
      "t": 195905.0287499951,
      "d": 123.92232291665277,
      "v": 57
    },
    {
      "midi": 72,
      "hit": false,
      "t": 196034.3389999911,
      "d": 382.54282291667187,
      "v": 70
    },
    {
      "midi": 76,
      "hit": false,
      "t": 196034.3389999911,
      "d": 382.54282291667187,
      "v": 70
    },
    {
      "midi": 57,
      "hit": false,
      "t": 196034.3389999951,
      "d": 123.92232291665277,
      "v": 57
    },
    {
      "midi": 55,
      "hit": false,
      "t": 196163.64924999507,
      "d": 123.92232291665277,
      "v": 57
    },
    {
      "midi": 53,
      "hit": false,
      "t": 196292.95949999505,
      "d": 123.92232291665277,
      "v": 57
    },
    {
      "midi": 72,
      "hit": false,
      "t": 196422.2697499911,
      "d": 123.92232291665277,
      "v": 73
    },
    {
      "midi": 76,
      "hit": false,
      "t": 196422.2697499911,
      "d": 123.92232291665277,
      "v": 73
    },
    {
      "midi": 52,
      "hit": false,
      "t": 196422.26974999503,
      "d": 123.92232291665277,
      "v": 57
    },
    {
      "midi": 72,
      "hit": false,
      "t": 196551.57999999108,
      "d": 511.8530729166523,
      "v": 75
    },
    {
      "midi": 74,
      "hit": false,
      "t": 196551.57999999108,
      "d": 511.8530729166523,
      "v": 75
    },
    {
      "midi": 53,
      "hit": false,
      "t": 196551.579999995,
      "d": 123.92232291665277,
      "v": 76
    },
    {
      "midi": 55,
      "hit": false,
      "t": 196680.890249995,
      "d": 123.92232291665277,
      "v": 76
    },
    {
      "midi": 57,
      "hit": false,
      "t": 196810.20049999497,
      "d": 123.92232291665277,
      "v": 76
    },
    {
      "midi": 55,
      "hit": false,
      "t": 196939.51074999495,
      "d": 123.92232291665277,
      "v": 76
    },
    {
      "midi": 72,
      "hit": false,
      "t": 197068.82099999106,
      "d": 382.54282291667187,
      "v": 75
    },
    {
      "midi": 74,
      "hit": false,
      "t": 197068.82099999106,
      "d": 382.54282291667187,
      "v": 75
    },
    {
      "midi": 53,
      "hit": false,
      "t": 197068.82099999493,
      "d": 123.92232291665277,
      "v": 76
    },
    {
      "midi": 50,
      "hit": false,
      "t": 197198.1312499949,
      "d": 123.92232291665277,
      "v": 76
    },
    {
      "midi": 52,
      "hit": false,
      "t": 197327.4414999949,
      "d": 123.92232291665277,
      "v": 76
    },
    {
      "midi": 72,
      "hit": false,
      "t": 197456.75174999106,
      "d": 123.92232291665277,
      "v": 75
    },
    {
      "midi": 74,
      "hit": false,
      "t": 197456.75174999106,
      "d": 123.92232291665277,
      "v": 75
    },
    {
      "midi": 53,
      "hit": false,
      "t": 197456.75174999487,
      "d": 123.92232291665277,
      "v": 76
    },
    {
      "midi": 71,
      "hit": false,
      "t": 197586.06199999104,
      "d": 511.8530729166523,
      "v": 75
    },
    {
      "midi": 74,
      "hit": false,
      "t": 197586.06199999104,
      "d": 511.8530729166523,
      "v": 75
    },
    {
      "midi": 55,
      "hit": false,
      "t": 197586.06199999485,
      "d": 123.92232291665277,
      "v": 76
    },
    {
      "midi": 54,
      "hit": false,
      "t": 197715.37224999483,
      "d": 123.92232291665277,
      "v": 76
    },
    {
      "midi": 55,
      "hit": false,
      "t": 197844.68249999481,
      "d": 123.92232291665277,
      "v": 76
    },
    {
      "midi": 54,
      "hit": false,
      "t": 197973.9927499948,
      "d": 123.92232291665277,
      "v": 76
    },
    {
      "midi": 71,
      "hit": false,
      "t": 198103.30299999102,
      "d": 382.54282291667187,
      "v": 75
    },
    {
      "midi": 79,
      "hit": false,
      "t": 198103.30299999102,
      "d": 382.54282291667187,
      "v": 75
    },
    {
      "midi": 55,
      "hit": false,
      "t": 198103.30299999478,
      "d": 123.92232291665277,
      "v": 76
    },
    {
      "midi": 53,
      "hit": false,
      "t": 198232.61324999476,
      "d": 123.92232291665277,
      "v": 76
    },
    {
      "midi": 52,
      "hit": false,
      "t": 198361.92349999474,
      "d": 123.92232291665277,
      "v": 76
    },
    {
      "midi": 71,
      "hit": false,
      "t": 198491.23374999102,
      "d": 123.92232291665277,
      "v": 75
    },
    {
      "midi": 79,
      "hit": false,
      "t": 198491.23374999102,
      "d": 123.92232291665277,
      "v": 75
    },
    {
      "midi": 50,
      "hit": false,
      "t": 198491.23374999472,
      "d": 123.92232291665277,
      "v": 76
    },
    {
      "midi": 72,
      "hit": false,
      "t": 198620.543999991,
      "d": 511.8530729166523,
      "v": 90
    },
    {
      "midi": 76,
      "hit": false,
      "t": 198620.543999991,
      "d": 511.8530729166523,
      "v": 90
    },
    {
      "midi": 48,
      "hit": false,
      "t": 198620.5439999947,
      "d": 123.92232291665277,
      "v": 90
    },
    {
      "midi": 50,
      "hit": false,
      "t": 198749.85424999468,
      "d": 123.92232291665277,
      "v": 90
    },
    {
      "midi": 52,
      "hit": false,
      "t": 198879.16449999466,
      "d": 123.92232291665277,
      "v": 90
    },
    {
      "midi": 50,
      "hit": false,
      "t": 199008.47474999464,
      "d": 123.92232291665277,
      "v": 90
    },
    {
      "midi": 72,
      "hit": false,
      "t": 199137.78499999098,
      "d": 382.54282291667187,
      "v": 90
    },
    {
      "midi": 76,
      "hit": false,
      "t": 199137.78499999098,
      "d": 382.54282291667187,
      "v": 90
    },
    {
      "midi": 84,
      "hit": false,
      "t": 199137.78499999098,
      "d": 382.54282291667187,
      "v": 90
    },
    {
      "midi": 48,
      "hit": false,
      "t": 199137.78499999462,
      "d": 123.92232291665277,
      "v": 90
    },
    {
      "midi": 47,
      "hit": false,
      "t": 199267.0952499946,
      "d": 123.92232291665277,
      "v": 90
    },
    {
      "midi": 45,
      "hit": false,
      "t": 199396.40549999458,
      "d": 123.92232291665277,
      "v": 90
    },
    {
      "midi": 72,
      "hit": false,
      "t": 199525.71574999098,
      "d": 123.92232291665277,
      "v": 90
    },
    {
      "midi": 76,
      "hit": false,
      "t": 199525.71574999098,
      "d": 123.92232291665277,
      "v": 90
    },
    {
      "midi": 84,
      "hit": false,
      "t": 199525.71574999098,
      "d": 123.92232291665277,
      "v": 90
    },
    {
      "midi": 44,
      "hit": false,
      "t": 199525.71574999456,
      "d": 123.92232291665277,
      "v": 90
    },
    {
      "midi": 72,
      "hit": false,
      "t": 199655.02599999096,
      "d": 511.8530729166523,
      "v": 90
    },
    {
      "midi": 76,
      "hit": false,
      "t": 199655.02599999096,
      "d": 511.8530729166523,
      "v": 90
    },
    {
      "midi": 84,
      "hit": false,
      "t": 199655.02599999096,
      "d": 511.8530729166523,
      "v": 90
    },
    {
      "midi": 45,
      "hit": false,
      "t": 199655.02599999454,
      "d": 123.92232291665277,
      "v": 90
    },
    {
      "midi": 47,
      "hit": false,
      "t": 199784.33624999452,
      "d": 123.92232291665277,
      "v": 90
    },
    {
      "midi": 48,
      "hit": false,
      "t": 199913.6464999945,
      "d": 123.92232291665277,
      "v": 90
    },
    {
      "midi": 47,
      "hit": false,
      "t": 200042.95674999448,
      "d": 123.92232291665277,
      "v": 90
    },
    {
      "midi": 72,
      "hit": false,
      "t": 200172.26699999094,
      "d": 382.54282291667187,
      "v": 90
    },
    {
      "midi": 76,
      "hit": false,
      "t": 200172.26699999094,
      "d": 382.54282291667187,
      "v": 90
    },
    {
      "midi": 84,
      "hit": false,
      "t": 200172.26699999094,
      "d": 382.54282291667187,
      "v": 90
    },
    {
      "midi": 45,
      "hit": false,
      "t": 200172.26699999446,
      "d": 123.92232291665277,
      "v": 90
    },
    {
      "midi": 43,
      "hit": false,
      "t": 200301.57724999444,
      "d": 123.92232291665277,
      "v": 90
    },
    {
      "midi": 41,
      "hit": false,
      "t": 200430.88749999442,
      "d": 123.92232291665277,
      "v": 90
    },
    {
      "midi": 72,
      "hit": false,
      "t": 200560.19774999094,
      "d": 123.92232291665277,
      "v": 90
    },
    {
      "midi": 76,
      "hit": false,
      "t": 200560.19774999094,
      "d": 123.92232291665277,
      "v": 90
    },
    {
      "midi": 84,
      "hit": false,
      "t": 200560.19774999094,
      "d": 123.92232291665277,
      "v": 90
    },
    {
      "midi": 40,
      "hit": false,
      "t": 200560.1977499944,
      "d": 123.92232291665277,
      "v": 90
    },
    {
      "midi": 81,
      "hit": false,
      "t": 200689.50799999092,
      "d": 511.8530729166523,
      "v": 90
    },
    {
      "midi": 84,
      "hit": false,
      "t": 200689.50799999092,
      "d": 511.8530729166523,
      "v": 90
    },
    {
      "midi": 41,
      "hit": false,
      "t": 200689.50799999438,
      "d": 123.92232291665277,
      "v": 90
    },
    {
      "midi": 43,
      "hit": false,
      "t": 200818.81824999437,
      "d": 123.92232291665277,
      "v": 94
    },
    {
      "midi": 45,
      "hit": false,
      "t": 200948.12849999435,
      "d": 123.92232291665277,
      "v": 94
    },
    {
      "midi": 43,
      "hit": false,
      "t": 201077.43874999433,
      "d": 123.92232291665277,
      "v": 96
    },
    {
      "midi": 74,
      "hit": false,
      "t": 201206.7489999909,
      "d": 382.54282291667187,
      "v": 91
    },
    {
      "midi": 81,
      "hit": false,
      "t": 201206.7489999909,
      "d": 382.54282291667187,
      "v": 91
    },
    {
      "midi": 84,
      "hit": false,
      "t": 201206.7489999909,
      "d": 382.54282291667187,
      "v": 91
    },
    {
      "midi": 41,
      "hit": false,
      "t": 201206.7489999943,
      "d": 123.92232291665277,
      "v": 96
    },
    {
      "midi": 38,
      "hit": false,
      "t": 201336.0592499943,
      "d": 123.92232291665277,
      "v": 96
    },
    {
      "midi": 40,
      "hit": false,
      "t": 201465.36949999427,
      "d": 123.92232291665277,
      "v": 96
    },
    {
      "midi": 74,
      "hit": false,
      "t": 201594.6797499909,
      "d": 123.92232291665277,
      "v": 94
    },
    {
      "midi": 81,
      "hit": false,
      "t": 201594.6797499909,
      "d": 123.92232291665277,
      "v": 94
    },
    {
      "midi": 84,
      "hit": false,
      "t": 201594.6797499909,
      "d": 123.92232291665277,
      "v": 94
    },
    {
      "midi": 41,
      "hit": false,
      "t": 201594.67974999425,
      "d": 123.92232291665277,
      "v": 97
    },
    {
      "midi": 74,
      "hit": false,
      "t": 201723.98999999088,
      "d": 511.8530729166523,
      "v": 97
    },
    {
      "midi": 79,
      "hit": false,
      "t": 201723.98999999088,
      "d": 511.8530729166523,
      "v": 97
    },
    {
      "midi": 83,
      "hit": false,
      "t": 201723.98999999088,
      "d": 511.8530729166523,
      "v": 97
    },
    {
      "midi": 43,
      "hit": false,
      "t": 201723.98999999423,
      "d": 123.92232291665277,
      "v": 97
    },
    {
      "midi": 42,
      "hit": false,
      "t": 201853.3002499942,
      "d": 123.92232291665277,
      "v": 99
    },
    {
      "midi": 43,
      "hit": false,
      "t": 201982.6104999942,
      "d": 123.92232291665277,
      "v": 99
    },
    {
      "midi": 42,
      "hit": false,
      "t": 202111.92074999417,
      "d": 123.92232291665277,
      "v": 102
    },
    {
      "midi": 74,
      "hit": false,
      "t": 202241.23099999086,
      "d": 382.54282291667187,
      "v": 100
    },
    {
      "midi": 79,
      "hit": false,
      "t": 202241.23099999086,
      "d": 382.54282291667187,
      "v": 100
    },
    {
      "midi": 83,
      "hit": false,
      "t": 202241.23099999086,
      "d": 382.54282291667187,
      "v": 100
    },
    {
      "midi": 43,
      "hit": false,
      "t": 202241.23099999415,
      "d": 123.92232291665277,
      "v": 102
    },
    {
      "midi": 41,
      "hit": false,
      "t": 202370.54124999413,
      "d": 123.92232291665277,
      "v": 103
    },
    {
      "midi": 40,
      "hit": false,
      "t": 202499.8514999941,
      "d": 123.92232291665277,
      "v": 103
    },
    {
      "midi": 74,
      "hit": false,
      "t": 202629.16174999086,
      "d": 123.92232291665277,
      "v": 103
    },
    {
      "midi": 79,
      "hit": false,
      "t": 202629.16174999086,
      "d": 123.92232291665277,
      "v": 103
    },
    {
      "midi": 83,
      "hit": false,
      "t": 202629.16174999086,
      "d": 123.92232291665277,
      "v": 103
    },
    {
      "midi": 38,
      "hit": false,
      "t": 202629.1617499941,
      "d": 123.92232291665277,
      "v": 105
    },
    {
      "midi": 76,
      "hit": false,
      "t": 202758.47199999084,
      "d": 511.8530729166523,
      "v": 105
    },
    {
      "midi": 79,
      "hit": false,
      "t": 202758.47199999084,
      "d": 511.8530729166523,
      "v": 105
    },
    {
      "midi": 84,
      "hit": false,
      "t": 202758.47199999084,
      "d": 511.8530729166523,
      "v": 105
    },
    {
      "midi": 36,
      "hit": false,
      "t": 202758.47199999407,
      "d": 511.8530729166523,
      "v": 106
    },
    {
      "midi": 72,
      "hit": false,
      "t": 203275.71299999082,
      "d": 511.8530729166523,
      "v": 105
    },
    {
      "midi": 76,
      "hit": false,
      "t": 203275.71299999082,
      "d": 511.8530729166523,
      "v": 105
    },
    {
      "midi": 79,
      "hit": false,
      "t": 203275.71299999082,
      "d": 511.8530729166523,
      "v": 105
    },
    {
      "midi": 36,
      "hit": false,
      "t": 203275.71299999405,
      "d": 511.8530729166523,
      "v": 106
    },
    {
      "midi": 48,
      "hit": false,
      "t": 203275.71299999405,
      "d": 511.8530729166523,
      "v": 106
    },
    {
      "midi": 67,
      "hit": false,
      "t": 203792.9539999908,
      "d": 511.8530729166523,
      "v": 105
    },
    {
      "midi": 72,
      "hit": false,
      "t": 203792.9539999908,
      "d": 511.8530729166523,
      "v": 105
    },
    {
      "midi": 76,
      "hit": false,
      "t": 203792.9539999908,
      "d": 511.8530729166523,
      "v": 105
    },
    {
      "midi": 36,
      "hit": false,
      "t": 203792.95399999403,
      "d": 511.8530729166523,
      "v": 106
    },
    {
      "midi": 48,
      "hit": false,
      "t": 203792.95399999403,
      "d": 511.8530729166523,
      "v": 106
    },
    {
      "midi": 77,
      "hit": false,
      "t": 204827.4359999908,
      "d": 59.26719791666255,
      "v": 67
    },
    {
      "midi": 79,
      "hit": false,
      "t": 204827.4359999908,
      "d": 511.8530729166523,
      "v": 67
    },
    {
      "midi": 48,
      "hit": false,
      "t": 204827.43599999402,
      "d": 253.23257291666232,
      "v": 57
    },
    {
      "midi": 52,
      "hit": false,
      "t": 204827.43599999402,
      "d": 253.23257291666232,
      "v": 57
    },
    {
      "midi": 55,
      "hit": false,
      "t": 204827.43599999402,
      "d": 253.23257291666232,
      "v": 57
    },
    {
      "midi": 48,
      "hit": false,
      "t": 205086.056499994,
      "d": 253.23257291666232,
      "v": 57
    },
    {
      "midi": 52,
      "hit": false,
      "t": 205086.056499994,
      "d": 253.23257291666232,
      "v": 57
    },
    {
      "midi": 55,
      "hit": false,
      "t": 205086.056499994,
      "d": 253.23257291666232,
      "v": 57
    },
    {
      "midi": 79,
      "hit": false,
      "t": 205344.67699999077,
      "d": 382.54282291667187,
      "v": 67
    },
    {
      "midi": 48,
      "hit": false,
      "t": 205344.676999994,
      "d": 253.23257291666232,
      "v": 57
    },
    {
      "midi": 52,
      "hit": false,
      "t": 205344.676999994,
      "d": 253.23257291666232,
      "v": 57
    },
    {
      "midi": 55,
      "hit": false,
      "t": 205344.676999994,
      "d": 253.23257291666232,
      "v": 57
    },
    {
      "midi": 48,
      "hit": false,
      "t": 205603.297499994,
      "d": 253.23257291666232,
      "v": 57
    },
    {
      "midi": 52,
      "hit": false,
      "t": 205603.297499994,
      "d": 253.23257291666232,
      "v": 57
    },
    {
      "midi": 55,
      "hit": false,
      "t": 205603.297499994,
      "d": 253.23257291666232,
      "v": 57
    },
    {
      "midi": 79,
      "hit": false,
      "t": 205732.60774999077,
      "d": 123.92232291665277,
      "v": 67
    },
    {
      "midi": 79,
      "hit": false,
      "t": 205861.91799999075,
      "d": 511.8530729166523,
      "v": 67
    },
    {
      "midi": 48,
      "hit": false,
      "t": 205861.91799999398,
      "d": 253.23257291666232,
      "v": 57
    },
    {
      "midi": 52,
      "hit": false,
      "t": 205861.91799999398,
      "d": 253.23257291666232,
      "v": 57
    },
    {
      "midi": 55,
      "hit": false,
      "t": 205861.91799999398,
      "d": 253.23257291666232,
      "v": 57
    },
    {
      "midi": 48,
      "hit": false,
      "t": 206120.53849999397,
      "d": 253.23257291666232,
      "v": 57
    },
    {
      "midi": 52,
      "hit": false,
      "t": 206120.53849999397,
      "d": 253.23257291666232,
      "v": 57
    },
    {
      "midi": 55,
      "hit": false,
      "t": 206120.53849999397,
      "d": 253.23257291666232,
      "v": 57
    },
    {
      "midi": 76,
      "hit": false,
      "t": 206379.15899999073,
      "d": 382.54282291667187,
      "v": 67
    },
    {
      "midi": 48,
      "hit": false,
      "t": 206379.15899999396,
      "d": 253.23257291666232,
      "v": 57
    },
    {
      "midi": 52,
      "hit": false,
      "t": 206379.15899999396,
      "d": 253.23257291666232,
      "v": 57
    },
    {
      "midi": 55,
      "hit": false,
      "t": 206379.15899999396,
      "d": 253.23257291666232,
      "v": 57
    },
    {
      "midi": 48,
      "hit": false,
      "t": 206637.77949999395,
      "d": 253.23257291666232,
      "v": 57
    },
    {
      "midi": 52,
      "hit": false,
      "t": 206637.77949999395,
      "d": 253.23257291666232,
      "v": 57
    },
    {
      "midi": 55,
      "hit": false,
      "t": 206637.77949999395,
      "d": 253.23257291666232,
      "v": 57
    },
    {
      "midi": 72,
      "hit": false,
      "t": 206767.08974999073,
      "d": 123.92232291665277,
      "v": 67
    },
    {
      "midi": 72,
      "hit": false,
      "t": 206896.3999999907,
      "d": 253.23257291666232,
      "v": 67
    },
    {
      "midi": 48,
      "hit": false,
      "t": 206896.39999999394,
      "d": 253.23257291666232,
      "v": 66
    },
    {
      "midi": 50,
      "hit": false,
      "t": 206896.39999999394,
      "d": 253.23257291666232,
      "v": 66
    },
    {
      "midi": 53,
      "hit": false,
      "t": 206896.39999999394,
      "d": 253.23257291666232,
      "v": 66
    },
    {
      "midi": 55,
      "hit": false,
      "t": 206896.39999999394,
      "d": 253.23257291666232,
      "v": 66
    },
    {
      "midi": 71,
      "hit": false,
      "t": 207155.0204999907,
      "d": 253.23257291666232,
      "v": 67
    },
    {
      "midi": 48,
      "hit": false,
      "t": 207155.02049999393,
      "d": 253.23257291666232,
      "v": 66
    },
    {
      "midi": 50,
      "hit": false,
      "t": 207155.02049999393,
      "d": 253.23257291666232,
      "v": 66
    },
    {
      "midi": 53,
      "hit": false,
      "t": 207155.02049999393,
      "d": 253.23257291666232,
      "v": 66
    },
    {
      "midi": 55,
      "hit": false,
      "t": 207155.02049999393,
      "d": 253.23257291666232,
      "v": 66
    },
    {
      "midi": 71,
      "hit": false,
      "t": 207413.6409999907,
      "d": 1029.0940729166614,
      "v": 67
    },
    {
      "midi": 48,
      "hit": false,
      "t": 207413.64099999392,
      "d": 253.23257291666232,
      "v": 66
    },
    {
      "midi": 50,
      "hit": false,
      "t": 207413.64099999392,
      "d": 253.23257291666232,
      "v": 66
    },
    {
      "midi": 53,
      "hit": false,
      "t": 207413.64099999392,
      "d": 253.23257291666232,
      "v": 66
    },
    {
      "midi": 55,
      "hit": false,
      "t": 207413.64099999392,
      "d": 253.23257291666232,
      "v": 66
    },
    {
      "midi": 48,
      "hit": false,
      "t": 207672.2614999939,
      "d": 253.23257291666232,
      "v": 66
    },
    {
      "midi": 50,
      "hit": false,
      "t": 207672.2614999939,
      "d": 253.23257291666232,
      "v": 66
    },
    {
      "midi": 53,
      "hit": false,
      "t": 207672.2614999939,
      "d": 253.23257291666232,
      "v": 66
    },
    {
      "midi": 55,
      "hit": false,
      "t": 207672.2614999939,
      "d": 253.23257291666232,
      "v": 66
    },
    {
      "midi": 48,
      "hit": false,
      "t": 207930.8819999939,
      "d": 253.23257291666232,
      "v": 66
    },
    {
      "midi": 50,
      "hit": false,
      "t": 207930.8819999939,
      "d": 253.23257291666232,
      "v": 66
    },
    {
      "midi": 53,
      "hit": false,
      "t": 207930.8819999939,
      "d": 253.23257291666232,
      "v": 66
    },
    {
      "midi": 55,
      "hit": false,
      "t": 207930.8819999939,
      "d": 253.23257291666232,
      "v": 66
    },
    {
      "midi": 48,
      "hit": false,
      "t": 208189.5024999939,
      "d": 253.23257291666232,
      "v": 66
    },
    {
      "midi": 50,
      "hit": false,
      "t": 208189.5024999939,
      "d": 253.23257291666232,
      "v": 66
    },
    {
      "midi": 53,
      "hit": false,
      "t": 208189.5024999939,
      "d": 253.23257291666232,
      "v": 66
    },
    {
      "midi": 55,
      "hit": false,
      "t": 208189.5024999939,
      "d": 253.23257291666232,
      "v": 66
    },
    {
      "midi": 77,
      "hit": false,
      "t": 208448.12299999068,
      "d": 382.54282291667187,
      "v": 67
    },
    {
      "midi": 48,
      "hit": false,
      "t": 208448.12299999388,
      "d": 253.23257291666232,
      "v": 66
    },
    {
      "midi": 50,
      "hit": false,
      "t": 208448.12299999388,
      "d": 253.23257291666232,
      "v": 66
    },
    {
      "midi": 53,
      "hit": false,
      "t": 208448.12299999388,
      "d": 253.23257291666232,
      "v": 66
    },
    {
      "midi": 55,
      "hit": false,
      "t": 208448.12299999388,
      "d": 253.23257291666232,
      "v": 66
    },
    {
      "midi": 48,
      "hit": false,
      "t": 208706.74349999387,
      "d": 253.23257291666232,
      "v": 66
    },
    {
      "midi": 50,
      "hit": false,
      "t": 208706.74349999387,
      "d": 253.23257291666232,
      "v": 66
    },
    {
      "midi": 53,
      "hit": false,
      "t": 208706.74349999387,
      "d": 253.23257291666232,
      "v": 66
    },
    {
      "midi": 55,
      "hit": false,
      "t": 208706.74349999387,
      "d": 253.23257291666232,
      "v": 66
    },
    {
      "midi": 74,
      "hit": false,
      "t": 208836.05374999068,
      "d": 123.92232291665277,
      "v": 67
    },
    {
      "midi": 79,
      "hit": false,
      "t": 208965.36399999066,
      "d": 511.8530729166523,
      "v": 75
    },
    {
      "midi": 48,
      "hit": false,
      "t": 208965.36399999386,
      "d": 253.23257291666232,
      "v": 76
    },
    {
      "midi": 52,
      "hit": false,
      "t": 208965.36399999386,
      "d": 253.23257291666232,
      "v": 76
    },
    {
      "midi": 55,
      "hit": false,
      "t": 208965.36399999386,
      "d": 253.23257291666232,
      "v": 76
    },
    {
      "midi": 48,
      "hit": false,
      "t": 209223.98449999385,
      "d": 253.23257291666232,
      "v": 76
    },
    {
      "midi": 52,
      "hit": false,
      "t": 209223.98449999385,
      "d": 253.23257291666232,
      "v": 76
    },
    {
      "midi": 55,
      "hit": false,
      "t": 209223.98449999385,
      "d": 253.23257291666232,
      "v": 76
    },
    {
      "midi": 79,
      "hit": false,
      "t": 209482.60499999064,
      "d": 382.54282291667187,
      "v": 75
    },
    {
      "midi": 48,
      "hit": false,
      "t": 209482.60499999384,
      "d": 253.23257291666232,
      "v": 76
    },
    {
      "midi": 52,
      "hit": false,
      "t": 209482.60499999384,
      "d": 253.23257291666232,
      "v": 76
    },
    {
      "midi": 55,
      "hit": false,
      "t": 209482.60499999384,
      "d": 253.23257291666232,
      "v": 76
    },
    {
      "midi": 48,
      "hit": false,
      "t": 209741.22549999383,
      "d": 253.23257291666232,
      "v": 76
    },
    {
      "midi": 52,
      "hit": false,
      "t": 209741.22549999383,
      "d": 253.23257291666232,
      "v": 76
    },
    {
      "midi": 55,
      "hit": false,
      "t": 209741.22549999383,
      "d": 253.23257291666232,
      "v": 76
    },
    {
      "midi": 79,
      "hit": false,
      "t": 209870.53574999064,
      "d": 123.92232291665277,
      "v": 75
    },
    {
      "midi": 79,
      "hit": false,
      "t": 209999.84599999062,
      "d": 253.23257291666232,
      "v": 75
    },
    {
      "midi": 48,
      "hit": false,
      "t": 209999.84599999382,
      "d": 253.23257291666232,
      "v": 76
    },
    {
      "midi": 52,
      "hit": false,
      "t": 209999.84599999382,
      "d": 253.23257291666232,
      "v": 76
    },
    {
      "midi": 55,
      "hit": false,
      "t": 209999.84599999382,
      "d": 253.23257291666232,
      "v": 76
    },
    {
      "midi": 81,
      "hit": false,
      "t": 210258.4664999906,
      "d": 123.92232291665277,
      "v": 75
    },
    {
      "midi": 48,
      "hit": false,
      "t": 210258.4664999938,
      "d": 253.23257291666232,
      "v": 76
    },
    {
      "midi": 52,
      "hit": false,
      "t": 210258.4664999938,
      "d": 253.23257291666232,
      "v": 76
    },
    {
      "midi": 55,
      "hit": false,
      "t": 210258.4664999938,
      "d": 253.23257291666232,
      "v": 76
    },
    {
      "midi": 79,
      "hit": false,
      "t": 210387.7767499906,
      "d": 123.92232291665277,
      "v": 75
    },
    {
      "midi": 77,
      "hit": false,
      "t": 210517.08699999057,
      "d": 123.92232291665277,
      "v": 75
    },
    {
      "midi": 48,
      "hit": false,
      "t": 210517.0869999938,
      "d": 253.23257291666232,
      "v": 76
    },
    {
      "midi": 52,
      "hit": false,
      "t": 210517.0869999938,
      "d": 253.23257291666232,
      "v": 76
    },
    {
      "midi": 55,
      "hit": false,
      "t": 210517.0869999938,
      "d": 253.23257291666232,
      "v": 76
    },
    {
      "midi": 76,
      "hit": false,
      "t": 210646.39724999055,
      "d": 123.92232291665277,
      "v": 75
    },
    {
      "midi": 74,
      "hit": false,
      "t": 210775.70749999053,
      "d": 123.92232291665277,
      "v": 75
    },
    {
      "midi": 48,
      "hit": false,
      "t": 210775.7074999938,
      "d": 253.23257291666232,
      "v": 76
    },
    {
      "midi": 52,
      "hit": false,
      "t": 210775.7074999938,
      "d": 253.23257291666232,
      "v": 76
    },
    {
      "midi": 55,
      "hit": false,
      "t": 210775.7074999938,
      "d": 253.23257291666232,
      "v": 76
    },
    {
      "midi": 72,
      "hit": false,
      "t": 210905.0177499905,
      "d": 123.92232291665277,
      "v": 75
    },
    {
      "midi": 72,
      "hit": false,
      "t": 211034.3279999905,
      "d": 253.23257291666232,
      "v": 75
    },
    {
      "midi": 49,
      "hit": false,
      "t": 211034.32799999378,
      "d": 253.23257291666232,
      "v": 76
    },
    {
      "midi": 52,
      "hit": false,
      "t": 211034.32799999378,
      "d": 253.23257291666232,
      "v": 76
    },
    {
      "midi": 55,
      "hit": false,
      "t": 211034.32799999378,
      "d": 253.23257291666232,
      "v": 76
    },
    {
      "midi": 70,
      "hit": false,
      "t": 211292.94849999048,
      "d": 253.23257291666232,
      "v": 75
    },
    {
      "midi": 49,
      "hit": false,
      "t": 211292.94849999377,
      "d": 253.23257291666232,
      "v": 76
    },
    {
      "midi": 52,
      "hit": false,
      "t": 211292.94849999377,
      "d": 253.23257291666232,
      "v": 76
    },
    {
      "midi": 55,
      "hit": false,
      "t": 211292.94849999377,
      "d": 253.23257291666232,
      "v": 76
    },
    {
      "midi": 70,
      "hit": false,
      "t": 211551.56899999047,
      "d": 770.4735729166714,
      "v": 75
    },
    {
      "midi": 49,
      "hit": false,
      "t": 211551.56899999376,
      "d": 253.23257291666232,
      "v": 76
    },
    {
      "midi": 52,
      "hit": false,
      "t": 211551.56899999376,
      "d": 253.23257291666232,
      "v": 76
    },
    {
      "midi": 55,
      "hit": false,
      "t": 211551.56899999376,
      "d": 253.23257291666232,
      "v": 76
    },
    {
      "midi": 49,
      "hit": false,
      "t": 211810.18949999375,
      "d": 253.23257291666232,
      "v": 76
    },
    {
      "midi": 52,
      "hit": false,
      "t": 211810.18949999375,
      "d": 253.23257291666232,
      "v": 76
    },
    {
      "midi": 55,
      "hit": false,
      "t": 211810.18949999375,
      "d": 253.23257291666232,
      "v": 76
    },
    {
      "midi": 49,
      "hit": false,
      "t": 212068.80999999374,
      "d": 253.23257291666232,
      "v": 76
    },
    {
      "midi": 52,
      "hit": false,
      "t": 212068.80999999374,
      "d": 253.23257291666232,
      "v": 76
    },
    {
      "midi": 55,
      "hit": false,
      "t": 212068.80999999374,
      "d": 253.23257291666232,
      "v": 76
    },
    {
      "midi": 73,
      "hit": false,
      "t": 212327.43049999047,
      "d": 253.23257291666232,
      "v": 75
    },
    {
      "midi": 49,
      "hit": false,
      "t": 212327.43049999373,
      "d": 253.23257291666232,
      "v": 76
    },
    {
      "midi": 52,
      "hit": false,
      "t": 212327.43049999373,
      "d": 253.23257291666232,
      "v": 76
    },
    {
      "midi": 55,
      "hit": false,
      "t": 212327.43049999373,
      "d": 253.23257291666232,
      "v": 76
    },
    {
      "midi": 76,
      "hit": false,
      "t": 212586.05099999046,
      "d": 253.23257291666232,
      "v": 75
    },
    {
      "midi": 49,
      "hit": false,
      "t": 212586.05099999372,
      "d": 253.23257291666232,
      "v": 76
    },
    {
      "midi": 52,
      "hit": false,
      "t": 212586.05099999372,
      "d": 253.23257291666232,
      "v": 76
    },
    {
      "midi": 55,
      "hit": false,
      "t": 212586.05099999372,
      "d": 253.23257291666232,
      "v": 76
    },
    {
      "midi": 79,
      "hit": false,
      "t": 212844.67149999045,
      "d": 253.23257291666232,
      "v": 75
    },
    {
      "midi": 49,
      "hit": false,
      "t": 212844.6714999937,
      "d": 253.23257291666232,
      "v": 76
    },
    {
      "midi": 52,
      "hit": false,
      "t": 212844.6714999937,
      "d": 253.23257291666232,
      "v": 76
    },
    {
      "midi": 55,
      "hit": false,
      "t": 212844.6714999937,
      "d": 253.23257291666232,
      "v": 76
    },
    {
      "midi": 82,
      "hit": false,
      "t": 213103.29199999044,
      "d": 253.23257291666232,
      "v": 90
    },
    {
      "midi": 48,
      "hit": false,
      "t": 213103.2919999937,
      "d": 253.23257291666232,
      "v": 90
    },
    {
      "midi": 52,
      "hit": false,
      "t": 213103.2919999937,
      "d": 253.23257291666232,
      "v": 90
    },
    {
      "midi": 55,
      "hit": false,
      "t": 213103.2919999937,
      "d": 253.23257291666232,
      "v": 90
    },
    {
      "midi": 79,
      "hit": false,
      "t": 213361.91249999043,
      "d": 253.23257291666232,
      "v": 60
    },
    {
      "midi": 48,
      "hit": false,
      "t": 213361.9124999937,
      "d": 253.23257291666232,
      "v": 57
    },
    {
      "midi": 52,
      "hit": false,
      "t": 213361.9124999937,
      "d": 253.23257291666232,
      "v": 57
    },
    {
      "midi": 55,
      "hit": false,
      "t": 213361.9124999937,
      "d": 253.23257291666232,
      "v": 57
    },
    {
      "midi": 76,
      "hit": false,
      "t": 213620.53299999042,
      "d": 253.23257291666232,
      "v": 60
    },
    {
      "midi": 48,
      "hit": false,
      "t": 213620.53299999368,
      "d": 253.23257291666232,
      "v": 57
    },
    {
      "midi": 52,
      "hit": false,
      "t": 213620.53299999368,
      "d": 253.23257291666232,
      "v": 57
    },
    {
      "midi": 55,
      "hit": false,
      "t": 213620.53299999368,
      "d": 253.23257291666232,
      "v": 57
    },
    {
      "midi": 72,
      "hit": false,
      "t": 213879.1534999904,
      "d": 253.23257291666232,
      "v": 60
    },
    {
      "midi": 48,
      "hit": false,
      "t": 213879.15349999367,
      "d": 253.23257291666232,
      "v": 57
    },
    {
      "midi": 52,
      "hit": false,
      "t": 213879.15349999367,
      "d": 253.23257291666232,
      "v": 57
    },
    {
      "midi": 55,
      "hit": false,
      "t": 213879.15349999367,
      "d": 253.23257291666232,
      "v": 57
    },
    {
      "midi": 70,
      "hit": false,
      "t": 214137.7739999904,
      "d": 253.23257291666232,
      "v": 60
    },
    {
      "midi": 49,
      "hit": false,
      "t": 214137.77399999366,
      "d": 253.23257291666232,
      "v": 57
    },
    {
      "midi": 52,
      "hit": false,
      "t": 214137.77399999366,
      "d": 253.23257291666232,
      "v": 57
    },
    {
      "midi": 55,
      "hit": false,
      "t": 214137.77399999366,
      "d": 253.23257291666232,
      "v": 57
    },
    {
      "midi": 73,
      "hit": false,
      "t": 214396.3944999904,
      "d": 253.23257291666232,
      "v": 67
    },
    {
      "midi": 49,
      "hit": false,
      "t": 214396.39449999365,
      "d": 253.23257291666232,
      "v": 57
    },
    {
      "midi": 52,
      "hit": false,
      "t": 214396.39449999365,
      "d": 253.23257291666232,
      "v": 57
    },
    {
      "midi": 55,
      "hit": false,
      "t": 214396.39449999365,
      "d": 253.23257291666232,
      "v": 57
    },
    {
      "midi": 76,
      "hit": false,
      "t": 214655.01499999038,
      "d": 253.23257291666232,
      "v": 75
    },
    {
      "midi": 49,
      "hit": false,
      "t": 214655.01499999364,
      "d": 253.23257291666232,
      "v": 57
    },
    {
      "midi": 52,
      "hit": false,
      "t": 214655.01499999364,
      "d": 253.23257291666232,
      "v": 57
    },
    {
      "midi": 55,
      "hit": false,
      "t": 214655.01499999364,
      "d": 253.23257291666232,
      "v": 57
    },
    {
      "midi": 79,
      "hit": false,
      "t": 214913.63549999037,
      "d": 253.23257291666232,
      "v": 82
    },
    {
      "midi": 49,
      "hit": false,
      "t": 214913.63549999363,
      "d": 253.23257291666232,
      "v": 57
    },
    {
      "midi": 52,
      "hit": false,
      "t": 214913.63549999363,
      "d": 253.23257291666232,
      "v": 57
    },
    {
      "midi": 55,
      "hit": false,
      "t": 214913.63549999363,
      "d": 253.23257291666232,
      "v": 57
    },
    {
      "midi": 82,
      "hit": false,
      "t": 215172.25599999036,
      "d": 253.23257291666232,
      "v": 90
    },
    {
      "midi": 48,
      "hit": false,
      "t": 215172.25599999362,
      "d": 253.23257291666232,
      "v": 90
    },
    {
      "midi": 52,
      "hit": false,
      "t": 215172.25599999362,
      "d": 253.23257291666232,
      "v": 90
    },
    {
      "midi": 55,
      "hit": false,
      "t": 215172.25599999362,
      "d": 253.23257291666232,
      "v": 90
    },
    {
      "midi": 79,
      "hit": false,
      "t": 215430.87649999035,
      "d": 253.23257291666232,
      "v": 60
    },
    {
      "midi": 48,
      "hit": false,
      "t": 215430.8764999936,
      "d": 253.23257291666232,
      "v": 57
    },
    {
      "midi": 52,
      "hit": false,
      "t": 215430.8764999936,
      "d": 253.23257291666232,
      "v": 57
    },
    {
      "midi": 55,
      "hit": false,
      "t": 215430.8764999936,
      "d": 253.23257291666232,
      "v": 57
    },
    {
      "midi": 76,
      "hit": false,
      "t": 215689.49699999034,
      "d": 253.23257291666232,
      "v": 60
    },
    {
      "midi": 48,
      "hit": false,
      "t": 215689.4969999936,
      "d": 253.23257291666232,
      "v": 57
    },
    {
      "midi": 52,
      "hit": false,
      "t": 215689.4969999936,
      "d": 253.23257291666232,
      "v": 57
    },
    {
      "midi": 55,
      "hit": false,
      "t": 215689.4969999936,
      "d": 253.23257291666232,
      "v": 57
    },
    {
      "midi": 72,
      "hit": false,
      "t": 215948.11749999033,
      "d": 253.23257291666232,
      "v": 60
    },
    {
      "midi": 48,
      "hit": false,
      "t": 215948.1174999936,
      "d": 253.23257291666232,
      "v": 57
    },
    {
      "midi": 52,
      "hit": false,
      "t": 215948.1174999936,
      "d": 253.23257291666232,
      "v": 57
    },
    {
      "midi": 55,
      "hit": false,
      "t": 215948.1174999936,
      "d": 253.23257291666232,
      "v": 57
    },
    {
      "midi": 70,
      "hit": false,
      "t": 216206.73799999032,
      "d": 253.23257291666232,
      "v": 60
    },
    {
      "midi": 49,
      "hit": false,
      "t": 216206.73799999358,
      "d": 253.23257291666232,
      "v": 57
    },
    {
      "midi": 52,
      "hit": false,
      "t": 216206.73799999358,
      "d": 253.23257291666232,
      "v": 57
    },
    {
      "midi": 55,
      "hit": false,
      "t": 216206.73799999358,
      "d": 253.23257291666232,
      "v": 57
    },
    {
      "midi": 73,
      "hit": false,
      "t": 216465.3584999903,
      "d": 253.23257291666232,
      "v": 67
    },
    {
      "midi": 49,
      "hit": false,
      "t": 216465.35849999357,
      "d": 253.23257291666232,
      "v": 57
    },
    {
      "midi": 52,
      "hit": false,
      "t": 216465.35849999357,
      "d": 253.23257291666232,
      "v": 57
    },
    {
      "midi": 55,
      "hit": false,
      "t": 216465.35849999357,
      "d": 253.23257291666232,
      "v": 57
    },
    {
      "midi": 76,
      "hit": false,
      "t": 216723.9789999903,
      "d": 253.23257291666232,
      "v": 75
    },
    {
      "midi": 49,
      "hit": false,
      "t": 216723.97899999356,
      "d": 253.23257291666232,
      "v": 57
    },
    {
      "midi": 52,
      "hit": false,
      "t": 216723.97899999356,
      "d": 253.23257291666232,
      "v": 57
    },
    {
      "midi": 55,
      "hit": false,
      "t": 216723.97899999356,
      "d": 253.23257291666232,
      "v": 57
    },
    {
      "midi": 79,
      "hit": false,
      "t": 216982.5994999903,
      "d": 253.23257291666232,
      "v": 82
    },
    {
      "midi": 49,
      "hit": false,
      "t": 216982.59949999355,
      "d": 253.23257291666232,
      "v": 57
    },
    {
      "midi": 52,
      "hit": false,
      "t": 216982.59949999355,
      "d": 253.23257291666232,
      "v": 57
    },
    {
      "midi": 55,
      "hit": false,
      "t": 216982.59949999355,
      "d": 253.23257291666232,
      "v": 57
    },
    {
      "midi": 82,
      "hit": false,
      "t": 217241.21999999028,
      "d": 123.92232291665277,
      "v": 90
    },
    {
      "midi": 48,
      "hit": false,
      "t": 217241.21999999354,
      "d": 511.8530729166523,
      "v": 90
    },
    {
      "midi": 52,
      "hit": false,
      "t": 217241.21999999354,
      "d": 511.8530729166523,
      "v": 90
    },
    {
      "midi": 55,
      "hit": false,
      "t": 217241.21999999354,
      "d": 511.8530729166523,
      "v": 90
    },
    {
      "midi": 79,
      "hit": false,
      "t": 217370.53024999026,
      "d": 123.92232291665277,
      "v": 90
    },
    {
      "midi": 76,
      "hit": false,
      "t": 217499.84049999024,
      "d": 123.92232291665277,
      "v": 90
    },
    {
      "midi": 72,
      "hit": false,
      "t": 217629.15074999022,
      "d": 123.92232291665277,
      "v": 90
    },
    {
      "midi": 79,
      "hit": false,
      "t": 217758.4609999902,
      "d": 123.92232291665277,
      "v": 90
    },
    {
      "midi": 76,
      "hit": false,
      "t": 217887.77124999018,
      "d": 123.92232291665277,
      "v": 90
    },
    {
      "midi": 72,
      "hit": false,
      "t": 218017.08149999016,
      "d": 123.92232291665277,
      "v": 90
    },
    {
      "midi": 70,
      "hit": false,
      "t": 218146.39174999014,
      "d": 123.92232291665277,
      "v": 90
    },
    {
      "midi": 76,
      "hit": false,
      "t": 218275.70199999012,
      "d": 123.92232291665277,
      "v": 90
    },
    {
      "midi": 72,
      "hit": false,
      "t": 218405.0122499901,
      "d": 123.92232291665277,
      "v": 90
    },
    {
      "midi": 70,
      "hit": false,
      "t": 218534.32249999008,
      "d": 123.92232291665277,
      "v": 90
    },
    {
      "midi": 67,
      "hit": false,
      "t": 218663.63274999007,
      "d": 123.92232291665277,
      "v": 90
    },
    {
      "midi": 72,
      "hit": false,
      "t": 218792.94299999005,
      "d": 123.92232291665277,
      "v": 90
    },
    {
      "midi": 70,
      "hit": false,
      "t": 218922.25324999003,
      "d": 123.92232291665277,
      "v": 90
    },
    {
      "midi": 67,
      "hit": false,
      "t": 219051.56349999,
      "d": 123.92232291665277,
      "v": 90
    },
    {
      "midi": 64,
      "hit": false,
      "t": 219180.87374999,
      "d": 123.92232291665277,
      "v": 90
    },
    {
      "midi": 70,
      "hit": false,
      "t": 219310.18399998997,
      "d": 123.92232291665277,
      "v": 90
    },
    {
      "midi": 36,
      "hit": false,
      "t": 219310.18399999352,
      "d": 2063.5760729166795,
      "v": 90
    },
    {
      "midi": 40,
      "hit": false,
      "t": 219310.18399999352,
      "d": 2063.5760729166795,
      "v": 90
    },
    {
      "midi": 43,
      "hit": false,
      "t": 219310.18399999352,
      "d": 2063.5760729166795,
      "v": 90
    },
    {
      "midi": 46,
      "hit": false,
      "t": 219310.18399999352,
      "d": 2063.5760729166795,
      "v": 90
    },
    {
      "midi": 67,
      "hit": false,
      "t": 219439.49424998995,
      "d": 123.92232291665277,
      "v": 90
    },
    {
      "midi": 64,
      "hit": false,
      "t": 219568.80449998993,
      "d": 123.92232291665277,
      "v": 90
    },
    {
      "midi": 60,
      "hit": false,
      "t": 219698.1147499899,
      "d": 123.92232291665277,
      "v": 90
    },
    {
      "midi": 67,
      "hit": false,
      "t": 219827.4249999899,
      "d": 123.92232291665277,
      "v": 90
    },
    {
      "midi": 64,
      "hit": false,
      "t": 219956.73524998987,
      "d": 123.92232291665277,
      "v": 90
    },
    {
      "midi": 60,
      "hit": false,
      "t": 220086.04549998985,
      "d": 123.92232291665277,
      "v": 90
    },
    {
      "midi": 59,
      "hit": false,
      "t": 220215.35574998983,
      "d": 123.92232291665277,
      "v": 90
    },
    {
      "midi": 58,
      "hit": false,
      "t": 220344.6659999898,
      "d": 123.92232291665277,
      "v": 90
    },
    {
      "midi": 67,
      "hit": false,
      "t": 220473.9762499898,
      "d": 123.92232291665277,
      "v": 90
    },
    {
      "midi": 66,
      "hit": false,
      "t": 220603.28649998977,
      "d": 123.92232291665277,
      "v": 90
    },
    {
      "midi": 67,
      "hit": false,
      "t": 220732.59674998975,
      "d": 123.92232291665277,
      "v": 90
    },
    {
      "midi": 69,
      "hit": false,
      "t": 220861.90699998973,
      "d": 123.92232291665277,
      "v": 90
    },
    {
      "midi": 67,
      "hit": false,
      "t": 220991.2172499897,
      "d": 123.92232291665277,
      "v": 90
    },
    {
      "midi": 66,
      "hit": false,
      "t": 221120.5274999897,
      "d": 123.92232291665277,
      "v": 90
    },
    {
      "midi": 64,
      "hit": false,
      "t": 221249.83774998967,
      "d": 123.92232291665277,
      "v": 90
    },
    {
      "midi": 63,
      "hit": false,
      "t": 221379.14799998965,
      "d": 511.8530729166523,
      "v": 105
    },
    {
      "midi": 71,
      "hit": false,
      "t": 221379.14799998965,
      "d": 511.8530729166523,
      "v": 105
    },
    {
      "midi": 35,
      "hit": false,
      "t": 221379.14799999353,
      "d": 123.92232291665277,
      "v": 106
    },
    {
      "midi": 47,
      "hit": false,
      "t": 221508.4582499935,
      "d": 123.92232291665277,
      "v": 106
    },
    {
      "midi": 46,
      "hit": false,
      "t": 221637.7684999935,
      "d": 123.92232291665277,
      "v": 106
    },
    {
      "midi": 47,
      "hit": false,
      "t": 221767.07874999347,
      "d": 123.92232291665277,
      "v": 106
    },
    {
      "midi": 63,
      "hit": false,
      "t": 221896.38899998963,
      "d": 382.54282291667187,
      "v": 105
    },
    {
      "midi": 71,
      "hit": false,
      "t": 221896.38899998963,
      "d": 382.54282291667187,
      "v": 105
    },
    {
      "midi": 46,
      "hit": false,
      "t": 221896.38899999345,
      "d": 123.92232291665277,
      "v": 106
    },
    {
      "midi": 47,
      "hit": false,
      "t": 222025.69924999343,
      "d": 123.92232291665277,
      "v": 106
    },
    {
      "midi": 46,
      "hit": false,
      "t": 222155.0094999934,
      "d": 123.92232291665277,
      "v": 106
    },
    {
      "midi": 63,
      "hit": false,
      "t": 222284.31974998963,
      "d": 123.92232291665277,
      "v": 105
    },
    {
      "midi": 71,
      "hit": false,
      "t": 222284.31974998963,
      "d": 123.92232291665277,
      "v": 105
    },
    {
      "midi": 47,
      "hit": false,
      "t": 222284.3197499934,
      "d": 123.92232291665277,
      "v": 106
    },
    {
      "midi": 63,
      "hit": false,
      "t": 222413.62999998961,
      "d": 511.8530729166523,
      "v": 105
    },
    {
      "midi": 71,
      "hit": false,
      "t": 222413.62999998961,
      "d": 511.8530729166523,
      "v": 105
    },
    {
      "midi": 35,
      "hit": false,
      "t": 222413.62999999337,
      "d": 123.92232291665277,
      "v": 106
    },
    {
      "midi": 47,
      "hit": false,
      "t": 222542.94024999335,
      "d": 123.92232291665277,
      "v": 106
    },
    {
      "midi": 46,
      "hit": false,
      "t": 222672.25049999333,
      "d": 123.92232291665277,
      "v": 106
    },
    {
      "midi": 47,
      "hit": false,
      "t": 222801.5607499933,
      "d": 123.92232291665277,
      "v": 106
    },
    {
      "midi": 63,
      "hit": false,
      "t": 222930.8709999896,
      "d": 511.8530729166523,
      "v": 105
    },
    {
      "midi": 71,
      "hit": false,
      "t": 222930.8709999896,
      "d": 511.8530729166523,
      "v": 105
    },
    {
      "midi": 46,
      "hit": false,
      "t": 222930.8709999933,
      "d": 123.92232291665277,
      "v": 106
    },
    {
      "midi": 47,
      "hit": false,
      "t": 223060.18124999327,
      "d": 123.92232291665277,
      "v": 106
    },
    {
      "midi": 46,
      "hit": false,
      "t": 223189.49149999325,
      "d": 123.92232291665277,
      "v": 106
    },
    {
      "midi": 47,
      "hit": false,
      "t": 223318.80174999323,
      "d": 123.92232291665277,
      "v": 106
    },
    {
      "midi": 71,
      "hit": false,
      "t": 223448.11199998957,
      "d": 382.54282291667187,
      "v": 90
    },
    {
      "midi": 64,
      "hit": false,
      "t": 223448.11199998957,
      "d": 1029.0940729166323,
      "v": 90
    },
    {
      "midi": 72,
      "hit": false,
      "t": 223448.11199998957,
      "d": 1029.0940729166323,
      "v": 90
    },
    {
      "midi": 35,
      "hit": false,
      "t": 223448.1119999932,
      "d": 123.92232291665277,
      "v": 90
    },
    {
      "midi": 47,
      "hit": false,
      "t": 223577.4222499932,
      "d": 123.92232291665277,
      "v": 90
    },
    {
      "midi": 46,
      "hit": false,
      "t": 223706.73249999317,
      "d": 123.92232291665277,
      "v": 90
    },
    {
      "midi": 71,
      "hit": false,
      "t": 223836.04274998957,
      "d": 123.92232291665277,
      "v": 90
    },
    {
      "midi": 47,
      "hit": false,
      "t": 223836.04274999315,
      "d": 123.92232291665277,
      "v": 90
    },
    {
      "midi": 69,
      "hit": false,
      "t": 223965.35299998955,
      "d": 382.54282291667187,
      "v": 90
    },
    {
      "midi": 46,
      "hit": false,
      "t": 223965.35299999313,
      "d": 123.92232291665277,
      "v": 90
    },
    {
      "midi": 47,
      "hit": false,
      "t": 224094.66324999311,
      "d": 123.92232291665277,
      "v": 90
    },
    {
      "midi": 46,
      "hit": false,
      "t": 224223.9734999931,
      "d": 123.92232291665277,
      "v": 90
    },
    {
      "midi": 68,
      "hit": false,
      "t": 224353.28374998955,
      "d": 123.92232291665277,
      "v": 90
    },
    {
      "midi": 47,
      "hit": false,
      "t": 224353.28374999308,
      "d": 123.92232291665277,
      "v": 90
    },
    {
      "midi": 72,
      "hit": false,
      "t": 224482.59399998953,
      "d": 382.54282291667187,
      "v": 90
    },
    {
      "midi": 66,
      "hit": false,
      "t": 224482.59399998953,
      "d": 1029.0940729166323,
      "v": 90
    },
    {
      "midi": 69,
      "hit": false,
      "t": 224482.59399998953,
      "d": 1029.0940729166323,
      "v": 90
    },
    {
      "midi": 35,
      "hit": false,
      "t": 224482.59399999306,
      "d": 123.92232291665277,
      "v": 90
    },
    {
      "midi": 47,
      "hit": false,
      "t": 224611.90424999304,
      "d": 123.92232291665277,
      "v": 90
    },
    {
      "midi": 46,
      "hit": false,
      "t": 224741.21449999302,
      "d": 123.92232291665277,
      "v": 90
    },
    {
      "midi": 75,
      "hit": false,
      "t": 224870.52474998953,
      "d": 123.92232291665277,
      "v": 90
    },
    {
      "midi": 47,
      "hit": false,
      "t": 224870.524749993,
      "d": 123.92232291665277,
      "v": 90
    },
    {
      "midi": 76,
      "hit": false,
      "t": 224999.8349999895,
      "d": 382.54282291667187,
      "v": 90
    },
    {
      "midi": 46,
      "hit": false,
      "t": 224999.83499999298,
      "d": 123.92232291665277,
      "v": 90
    },
    {
      "midi": 47,
      "hit": false,
      "t": 225129.14524999296,
      "d": 123.92232291665277,
      "v": 90
    },
    {
      "midi": 46,
      "hit": false,
      "t": 225258.45549999294,
      "d": 123.92232291665277,
      "v": 90
    },
    {
      "midi": 72,
      "hit": false,
      "t": 225387.7657499895,
      "d": 123.92232291665277,
      "v": 90
    },
    {
      "midi": 47,
      "hit": false,
      "t": 225387.76574999292,
      "d": 123.92232291665277,
      "v": 90
    },
    {
      "midi": 69,
      "hit": false,
      "t": 225517.0759999895,
      "d": 382.54282291667187,
      "v": 75
    },
    {
      "midi": 63,
      "hit": false,
      "t": 225517.0759999895,
      "d": 1029.0940729166323,
      "v": 75
    },
    {
      "midi": 71,
      "hit": false,
      "t": 225517.0759999895,
      "d": 1029.0940729166323,
      "v": 75
    },
    {
      "midi": 35,
      "hit": false,
      "t": 225517.0759999929,
      "d": 123.92232291665277,
      "v": 76
    },
    {
      "midi": 47,
      "hit": false,
      "t": 225646.38624999288,
      "d": 123.92232291665277,
      "v": 76
    },
    {
      "midi": 46,
      "hit": false,
      "t": 225775.69649999286,
      "d": 123.92232291665277,
      "v": 76
    },
    {
      "midi": 69,
      "hit": false,
      "t": 225905.0067499895,
      "d": 123.92232291665277,
      "v": 75
    },
    {
      "midi": 47,
      "hit": false,
      "t": 225905.00674999284,
      "d": 123.92232291665277,
      "v": 76
    },
    {
      "midi": 67,
      "hit": false,
      "t": 226034.31699998947,
      "d": 382.54282291667187,
      "v": 75
    },
    {
      "midi": 46,
      "hit": false,
      "t": 226034.31699999282,
      "d": 123.92232291665277,
      "v": 76
    },
    {
      "midi": 47,
      "hit": false,
      "t": 226163.6272499928,
      "d": 123.92232291665277,
      "v": 76
    },
    {
      "midi": 46,
      "hit": false,
      "t": 226292.93749999278,
      "d": 123.92232291665277,
      "v": 76
    },
    {
      "midi": 66,
      "hit": false,
      "t": 226422.24774998947,
      "d": 123.92232291665277,
      "v": 75
    },
    {
      "midi": 47,
      "hit": false,
      "t": 226422.24774999276,
      "d": 123.92232291665277,
      "v": 76
    },
    {
      "midi": 71,
      "hit": false,
      "t": 226551.55799998945,
      "d": 382.54282291667187,
      "v": 75
    },
    {
      "midi": 64,
      "hit": false,
      "t": 226551.55799998945,
      "d": 1029.0940729166323,
      "v": 75
    },
    {
      "midi": 67,
      "hit": false,
      "t": 226551.55799998945,
      "d": 1029.0940729166323,
      "v": 75
    },
    {
      "midi": 35,
      "hit": false,
      "t": 226551.55799999274,
      "d": 123.92232291665277,
      "v": 76
    },
    {
      "midi": 47,
      "hit": false,
      "t": 226680.86824999272,
      "d": 123.92232291665277,
      "v": 76
    },
    {
      "midi": 46,
      "hit": false,
      "t": 226810.1784999927,
      "d": 123.92232291665277,
      "v": 76
    },
    {
      "midi": 75,
      "hit": false,
      "t": 226939.48874998945,
      "d": 123.92232291665277,
      "v": 75
    },
    {
      "midi": 47,
      "hit": false,
      "t": 226939.48874999268,
      "d": 123.92232291665277,
      "v": 76
    },
    {
      "midi": 76,
      "hit": false,
      "t": 227068.79899998943,
      "d": 382.54282291667187,
      "v": 75
    },
    {
      "midi": 46,
      "hit": false,
      "t": 227068.79899999266,
      "d": 123.92232291665277,
      "v": 76
    },
    {
      "midi": 47,
      "hit": false,
      "t": 227198.10924999265,
      "d": 123.92232291665277,
      "v": 76
    },
    {
      "midi": 46,
      "hit": false,
      "t": 227327.41949999263,
      "d": 123.92232291665277,
      "v": 76
    },
    {
      "midi": 71,
      "hit": false,
      "t": 227456.72974998943,
      "d": 123.92232291665277,
      "v": 75
    },
    {
      "midi": 47,
      "hit": false,
      "t": 227456.7297499926,
      "d": 123.92232291665277,
      "v": 76
    },
    {
      "midi": 67,
      "hit": false,
      "t": 227586.0399999894,
      "d": 382.54282291667187,
      "v": 75
    },
    {
      "midi": 61,
      "hit": false,
      "t": 227586.0399999894,
      "d": 1029.0940729166323,
      "v": 75
    },
    {
      "midi": 69,
      "hit": false,
      "t": 227586.0399999894,
      "d": 1029.0940729166323,
      "v": 75
    },
    {
      "midi": 35,
      "hit": false,
      "t": 227586.0399999926,
      "d": 123.92232291665277,
      "v": 76
    },
    {
      "midi": 47,
      "hit": false,
      "t": 227715.35024999257,
      "d": 123.92232291665277,
      "v": 76
    },
    {
      "midi": 46,
      "hit": false,
      "t": 227844.66049999255,
      "d": 123.92232291665277,
      "v": 76
    },
    {
      "midi": 67,
      "hit": false,
      "t": 227973.9707499894,
      "d": 123.92232291665277,
      "v": 75
    },
    {
      "midi": 47,
      "hit": false,
      "t": 227973.97074999253,
      "d": 123.92232291665277,
      "v": 76
    },
    {
      "midi": 66,
      "hit": false,
      "t": 228103.2809999894,
      "d": 382.54282291667187,
      "v": 75
    },
    {
      "midi": 46,
      "hit": false,
      "t": 228103.2809999925,
      "d": 123.92232291665277,
      "v": 76
    },
    {
      "midi": 47,
      "hit": false,
      "t": 228232.5912499925,
      "d": 123.92232291665277,
      "v": 76
    },
    {
      "midi": 46,
      "hit": false,
      "t": 228361.90149999247,
      "d": 123.92232291665277,
      "v": 76
    },
    {
      "midi": 64,
      "hit": false,
      "t": 228491.2117499894,
      "d": 123.92232291665277,
      "v": 75
    },
    {
      "midi": 47,
      "hit": false,
      "t": 228491.21174999245,
      "d": 123.92232291665277,
      "v": 76
    },
    {
      "midi": 69,
      "hit": false,
      "t": 228620.52199998937,
      "d": 382.54282291667187,
      "v": 75
    },
    {
      "midi": 63,
      "hit": false,
      "t": 228620.52199998937,
      "d": 1029.0940729166323,
      "v": 75
    },
    {
      "midi": 66,
      "hit": false,
      "t": 228620.52199998937,
      "d": 1029.0940729166323,
      "v": 75
    },
    {
      "midi": 35,
      "hit": false,
      "t": 228620.52199999243,
      "d": 123.92232291665277,
      "v": 76
    },
    {
      "midi": 47,
      "hit": false,
      "t": 228749.8322499924,
      "d": 123.92232291665277,
      "v": 76
    },
    {
      "midi": 46,
      "hit": false,
      "t": 228879.1424999924,
      "d": 123.92232291665277,
      "v": 76
    },
    {
      "midi": 71,
      "hit": false,
      "t": 229008.45274998937,
      "d": 123.92232291665277,
      "v": 75
    },
    {
      "midi": 47,
      "hit": false,
      "t": 229008.45274999237,
      "d": 123.92232291665277,
      "v": 76
    },
    {
      "midi": 72,
      "hit": false,
      "t": 229137.76299998935,
      "d": 382.54282291667187,
      "v": 75
    },
    {
      "midi": 46,
      "hit": false,
      "t": 229137.76299999235,
      "d": 123.92232291665277,
      "v": 76
    },
    {
      "midi": 47,
      "hit": false,
      "t": 229267.07324999233,
      "d": 123.92232291665277,
      "v": 76
    },
    {
      "midi": 46,
      "hit": false,
      "t": 229396.3834999923,
      "d": 123.92232291665277,
      "v": 76
    },
    {
      "midi": 69,
      "hit": false,
      "t": 229525.69374998935,
      "d": 123.92232291665277,
      "v": 75
    },
    {
      "midi": 47,
      "hit": false,
      "t": 229525.6937499923,
      "d": 123.92232291665277,
      "v": 76
    },
    {
      "midi": 64,
      "hit": false,
      "t": 229655.00399998933,
      "d": 511.8530729166523,
      "v": 45
    },
    {
      "midi": 68,
      "hit": false,
      "t": 229655.00399998933,
      "d": 511.8530729166523,
      "v": 45
    },
    {
      "midi": 40,
      "hit": false,
      "t": 229655.00399999227,
      "d": 123.92232291665277,
      "v": 42
    },
    {
      "midi": 52,
      "hit": false,
      "t": 229784.31424999225,
      "d": 123.92232291665277,
      "v": 42
    },
    {
      "midi": 51,
      "hit": false,
      "t": 229913.62449999223,
      "d": 123.92232291665277,
      "v": 42
    },
    {
      "midi": 52,
      "hit": false,
      "t": 230042.93474999222,
      "d": 123.92232291665277,
      "v": 42
    },
    {
      "midi": 68,
      "hit": false,
      "t": 230172.2449999893,
      "d": 382.54282291667187,
      "v": 45
    },
    {
      "midi": 76,
      "hit": false,
      "t": 230172.2449999893,
      "d": 382.54282291667187,
      "v": 45
    },
    {
      "midi": 51,
      "hit": false,
      "t": 230172.2449999922,
      "d": 123.92232291665277,
      "v": 42
    },
    {
      "midi": 52,
      "hit": false,
      "t": 230301.55524999218,
      "d": 123.92232291665277,
      "v": 42
    },
    {
      "midi": 51,
      "hit": false,
      "t": 230430.86549999216,
      "d": 123.92232291665277,
      "v": 42
    },
    {
      "midi": 68,
      "hit": false,
      "t": 230560.1757499893,
      "d": 123.92232291665277,
      "v": 45
    },
    {
      "midi": 76,
      "hit": false,
      "t": 230560.1757499893,
      "d": 123.92232291665277,
      "v": 45
    },
    {
      "midi": 52,
      "hit": false,
      "t": 230560.17574999214,
      "d": 123.92232291665277,
      "v": 42
    },
    {
      "midi": 68,
      "hit": false,
      "t": 230689.4859999893,
      "d": 511.8530729166523,
      "v": 45
    },
    {
      "midi": 76,
      "hit": false,
      "t": 230689.4859999893,
      "d": 511.8530729166523,
      "v": 45
    },
    {
      "midi": 40,
      "hit": false,
      "t": 230689.48599999212,
      "d": 123.92232291665277,
      "v": 42
    },
    {
      "midi": 52,
      "hit": false,
      "t": 230818.7962499921,
      "d": 123.92232291665277,
      "v": 42
    },
    {
      "midi": 51,
      "hit": false,
      "t": 230948.10649999208,
      "d": 123.92232291665277,
      "v": 42
    },
    {
      "midi": 52,
      "hit": false,
      "t": 231077.41674999206,
      "d": 123.92232291665277,
      "v": 42
    },
    {
      "midi": 68,
      "hit": false,
      "t": 231206.72699998927,
      "d": 511.8530729166523,
      "v": 45
    },
    {
      "midi": 76,
      "hit": false,
      "t": 231206.72699998927,
      "d": 511.8530729166523,
      "v": 45
    },
    {
      "midi": 51,
      "hit": false,
      "t": 231206.72699999204,
      "d": 123.92232291665277,
      "v": 42
    },
    {
      "midi": 52,
      "hit": false,
      "t": 231336.03724999202,
      "d": 123.92232291665277,
      "v": 42
    },
    {
      "midi": 51,
      "hit": false,
      "t": 231465.347499992,
      "d": 123.92232291665277,
      "v": 42
    },
    {
      "midi": 52,
      "hit": false,
      "t": 231594.65774999198,
      "d": 123.92232291665277,
      "v": 42
    },
    {
      "midi": 76,
      "hit": false,
      "t": 231723.96799998925,
      "d": 382.54282291667187,
      "v": 60
    },
    {
      "midi": 69,
      "hit": false,
      "t": 231723.96799998925,
      "d": 1029.0940729166323,
      "v": 60
    },
    {
      "midi": 77,
      "hit": false,
      "t": 231723.96799998925,
      "d": 1029.0940729166323,
      "v": 60
    },
    {
      "midi": 40,
      "hit": false,
      "t": 231723.96799999196,
      "d": 123.92232291665277,
      "v": 57
    },
    {
      "midi": 52,
      "hit": false,
      "t": 231853.27824999194,
      "d": 123.92232291665277,
      "v": 57
    },
    {
      "midi": 51,
      "hit": false,
      "t": 231982.58849999192,
      "d": 123.92232291665277,
      "v": 57
    },
    {
      "midi": 76,
      "hit": false,
      "t": 232111.89874998925,
      "d": 123.92232291665277,
      "v": 60
    },
    {
      "midi": 52,
      "hit": false,
      "t": 232111.8987499919,
      "d": 123.92232291665277,
      "v": 57
    },
    {
      "midi": 74,
      "hit": false,
      "t": 232241.20899998923,
      "d": 382.54282291667187,
      "v": 60
    },
    {
      "midi": 51,
      "hit": false,
      "t": 232241.20899999188,
      "d": 123.92232291665277,
      "v": 57
    },
    {
      "midi": 52,
      "hit": false,
      "t": 232370.51924999186,
      "d": 123.92232291665277,
      "v": 57
    },
    {
      "midi": 51,
      "hit": false,
      "t": 232499.82949999184,
      "d": 123.92232291665277,
      "v": 57
    },
    {
      "midi": 73,
      "hit": false,
      "t": 232629.13974998923,
      "d": 123.92232291665277,
      "v": 60
    },
    {
      "midi": 52,
      "hit": false,
      "t": 232629.13974999182,
      "d": 123.92232291665277,
      "v": 57
    },
    {
      "midi": 77,
      "hit": false,
      "t": 232758.4499999892,
      "d": 382.54282291667187,
      "v": 60
    },
    {
      "midi": 71,
      "hit": false,
      "t": 232758.4499999892,
      "d": 1029.0940729166323,
      "v": 60
    },
    {
      "midi": 74,
      "hit": false,
      "t": 232758.4499999892,
      "d": 1029.0940729166323,
      "v": 60
    },
    {
      "midi": 40,
      "hit": false,
      "t": 232758.4499999918,
      "d": 123.92232291665277,
      "v": 57
    },
    {
      "midi": 52,
      "hit": false,
      "t": 232887.76024999178,
      "d": 123.92232291665277,
      "v": 57
    },
    {
      "midi": 51,
      "hit": false,
      "t": 233017.07049999177,
      "d": 123.92232291665277,
      "v": 57
    },
    {
      "midi": 80,
      "hit": false,
      "t": 233146.3807499892,
      "d": 123.92232291665277,
      "v": 60
    },
    {
      "midi": 52,
      "hit": false,
      "t": 233146.38074999175,
      "d": 123.92232291665277,
      "v": 57
    },
    {
      "midi": 81,
      "hit": false,
      "t": 233275.6909999892,
      "d": 382.54282291667187,
      "v": 60
    },
    {
      "midi": 51,
      "hit": false,
      "t": 233275.69099999173,
      "d": 123.92232291665277,
      "v": 57
    },
    {
      "midi": 52,
      "hit": false,
      "t": 233405.0012499917,
      "d": 123.92232291665277,
      "v": 57
    },
    {
      "midi": 51,
      "hit": false,
      "t": 233534.3114999917,
      "d": 123.92232291665277,
      "v": 57
    },
    {
      "midi": 77,
      "hit": false,
      "t": 233663.6217499892,
      "d": 123.92232291665277,
      "v": 60
    },
    {
      "midi": 52,
      "hit": false,
      "t": 233663.62174999167,
      "d": 123.92232291665277,
      "v": 57
    },
    {
      "midi": 74,
      "hit": false,
      "t": 233792.93199998917,
      "d": 382.54282291667187,
      "v": 75
    },
    {
      "midi": 68,
      "hit": false,
      "t": 233792.93199998917,
      "d": 1029.0940729166323,
      "v": 75
    },
    {
      "midi": 76,
      "hit": false,
      "t": 233792.93199998917,
      "d": 1029.0940729166323,
      "v": 75
    },
    {
      "midi": 40,
      "hit": false,
      "t": 233792.93199999165,
      "d": 123.92232291665277,
      "v": 76
    },
    {
      "midi": 52,
      "hit": false,
      "t": 233922.24224999163,
      "d": 123.92232291665277,
      "v": 76
    },
    {
      "midi": 51,
      "hit": false,
      "t": 234051.5524999916,
      "d": 123.92232291665277,
      "v": 76
    },
    {
      "midi": 74,
      "hit": false,
      "t": 234180.86274998917,
      "d": 123.92232291665277,
      "v": 75
    },
    {
      "midi": 52,
      "hit": false,
      "t": 234180.8627499916,
      "d": 123.92232291665277,
      "v": 76
    },
    {
      "midi": 72,
      "hit": false,
      "t": 234310.17299998915,
      "d": 382.54282291667187,
      "v": 75
    },
    {
      "midi": 51,
      "hit": false,
      "t": 234310.17299999157,
      "d": 123.92232291665277,
      "v": 76
    },
    {
      "midi": 52,
      "hit": false,
      "t": 234439.48324999155,
      "d": 123.92232291665277,
      "v": 76
    },
    {
      "midi": 51,
      "hit": false,
      "t": 234568.79349999153,
      "d": 123.92232291665277,
      "v": 76
    },
    {
      "midi": 71,
      "hit": false,
      "t": 234698.10374998915,
      "d": 123.92232291665277,
      "v": 75
    },
    {
      "midi": 52,
      "hit": false,
      "t": 234698.1037499915,
      "d": 123.92232291665277,
      "v": 76
    },
    {
      "midi": 76,
      "hit": false,
      "t": 234827.41399998913,
      "d": 382.54282291667187,
      "v": 75
    },
    {
      "midi": 69,
      "hit": false,
      "t": 234827.41399998913,
      "d": 1029.0940729166323,
      "v": 75
    },
    {
      "midi": 72,
      "hit": false,
      "t": 234827.41399998913,
      "d": 1029.0940729166323,
      "v": 75
    },
    {
      "midi": 40,
      "hit": false,
      "t": 234827.4139999915,
      "d": 123.92232291665277,
      "v": 76
    },
    {
      "midi": 52,
      "hit": false,
      "t": 234956.72424999147,
      "d": 123.92232291665277,
      "v": 76
    },
    {
      "midi": 51,
      "hit": false,
      "t": 235086.03449999145,
      "d": 123.92232291665277,
      "v": 76
    },
    {
      "midi": 80,
      "hit": false,
      "t": 235215.34474998913,
      "d": 123.92232291665277,
      "v": 75
    },
    {
      "midi": 52,
      "hit": false,
      "t": 235215.34474999143,
      "d": 123.92232291665277,
      "v": 76
    },
    {
      "midi": 81,
      "hit": false,
      "t": 235344.6549999891,
      "d": 382.54282291667187,
      "v": 75
    },
    {
      "midi": 51,
      "hit": false,
      "t": 235344.6549999914,
      "d": 123.92232291665277,
      "v": 76
    },
    {
      "midi": 52,
      "hit": false,
      "t": 235473.9652499914,
      "d": 123.92232291665277,
      "v": 76
    },
    {
      "midi": 51,
      "hit": false,
      "t": 235603.27549999137,
      "d": 123.92232291665277,
      "v": 76
    },
    {
      "midi": 76,
      "hit": false,
      "t": 235732.5857499891,
      "d": 123.92232291665277,
      "v": 75
    },
    {
      "midi": 52,
      "hit": false,
      "t": 235732.58574999135,
      "d": 123.92232291665277,
      "v": 76
    },
    {
      "midi": 72,
      "hit": false,
      "t": 235861.8959999891,
      "d": 382.54282291667187,
      "v": 75
    },
    {
      "midi": 66,
      "hit": false,
      "t": 235861.8959999891,
      "d": 1029.0940729166323,
      "v": 75
    },
    {
      "midi": 74,
      "hit": false,
      "t": 235861.8959999891,
      "d": 1029.0940729166323,
      "v": 75
    },
    {
      "midi": 40,
      "hit": false,
      "t": 235861.89599999133,
      "d": 123.92232291665277,
      "v": 76
    },
    {
      "midi": 52,
      "hit": false,
      "t": 235991.20624999132,
      "d": 123.92232291665277,
      "v": 76
    },
    {
      "midi": 51,
      "hit": false,
      "t": 236120.5164999913,
      "d": 123.92232291665277,
      "v": 76
    },
    {
      "midi": 72,
      "hit": false,
      "t": 236249.8267499891,
      "d": 123.92232291665277,
      "v": 75
    },
    {
      "midi": 52,
      "hit": false,
      "t": 236249.82674999128,
      "d": 123.92232291665277,
      "v": 76
    },
    {
      "midi": 71,
      "hit": false,
      "t": 236379.13699998907,
      "d": 382.54282291667187,
      "v": 75
    },
    {
      "midi": 51,
      "hit": false,
      "t": 236379.13699999126,
      "d": 123.92232291665277,
      "v": 76
    },
    {
      "midi": 52,
      "hit": false,
      "t": 236508.44724999124,
      "d": 123.92232291665277,
      "v": 76
    },
    {
      "midi": 51,
      "hit": false,
      "t": 236637.75749999122,
      "d": 123.92232291665277,
      "v": 76
    },
    {
      "midi": 69,
      "hit": false,
      "t": 236767.06774998907,
      "d": 123.92232291665277,
      "v": 75
    },
    {
      "midi": 52,
      "hit": false,
      "t": 236767.0677499912,
      "d": 123.92232291665277,
      "v": 76
    },
    {
      "midi": 74,
      "hit": false,
      "t": 236896.37799998905,
      "d": 382.54282291667187,
      "v": 75
    },
    {
      "midi": 68,
      "hit": false,
      "t": 236896.37799998905,
      "d": 1029.0940729166323,
      "v": 75
    },
    {
      "midi": 71,
      "hit": false,
      "t": 236896.37799998905,
      "d": 1029.0940729166323,
      "v": 75
    },
    {
      "midi": 40,
      "hit": false,
      "t": 236896.37799999118,
      "d": 123.92232291665277,
      "v": 76
    },
    {
      "midi": 52,
      "hit": false,
      "t": 237025.68824999116,
      "d": 123.92232291665277,
      "v": 76
    },
    {
      "midi": 51,
      "hit": false,
      "t": 237154.99849999114,
      "d": 123.92232291665277,
      "v": 76
    },
    {
      "midi": 76,
      "hit": false,
      "t": 237284.30874998905,
      "d": 123.92232291665277,
      "v": 75
    },
    {
      "midi": 52,
      "hit": false,
      "t": 237284.30874999112,
      "d": 123.92232291665277,
      "v": 76
    },
    {
      "midi": 77,
      "hit": false,
      "t": 237413.61899998903,
      "d": 382.54282291667187,
      "v": 75
    },
    {
      "midi": 51,
      "hit": false,
      "t": 237413.6189999911,
      "d": 123.92232291665277,
      "v": 76
    },
    {
      "midi": 52,
      "hit": false,
      "t": 237542.92924999108,
      "d": 123.92232291665277,
      "v": 76
    },
    {
      "midi": 51,
      "hit": false,
      "t": 237672.23949999106,
      "d": 123.92232291665277,
      "v": 76
    },
    {
      "midi": 74,
      "hit": false,
      "t": 237801.54974998903,
      "d": 123.92232291665277,
      "v": 75
    },
    {
      "midi": 52,
      "hit": false,
      "t": 237801.54974999104,
      "d": 123.92232291665277,
      "v": 76
    },
    {
      "midi": 69,
      "hit": false,
      "t": 237930.859999989,
      "d": 511.8530729166523,
      "v": 105
    },
    {
      "midi": 73,
      "hit": false,
      "t": 237930.859999989,
      "d": 511.8530729166523,
      "v": 105
    },
    {
      "midi": 45,
      "hit": false,
      "t": 237930.85999999102,
      "d": 123.92232291665277,
      "v": 106
    },
    {
      "midi": 57,
      "hit": false,
      "t": 238060.170249991,
      "d": 123.92232291665277,
      "v": 106
    },
    {
      "midi": 56,
      "hit": false,
      "t": 238189.48049999098,
      "d": 123.92232291665277,
      "v": 106
    },
    {
      "midi": 57,
      "hit": false,
      "t": 238318.79074999096,
      "d": 123.92232291665277,
      "v": 106
    },
    {
      "midi": 73,
      "hit": false,
      "t": 238448.100999989,
      "d": 382.54282291667187,
      "v": 105
    },
    {
      "midi": 81,
      "hit": false,
      "t": 238448.100999989,
      "d": 382.54282291667187,
      "v": 105
    },
    {
      "midi": 56,
      "hit": false,
      "t": 238448.10099999094,
      "d": 123.92232291665277,
      "v": 106
    },
    {
      "midi": 57,
      "hit": false,
      "t": 238577.41124999092,
      "d": 123.92232291665277,
      "v": 106
    },
    {
      "midi": 56,
      "hit": false,
      "t": 238706.7214999909,
      "d": 123.92232291665277,
      "v": 106
    },
    {
      "midi": 73,
      "hit": false,
      "t": 238836.031749989,
      "d": 123.92232291665277,
      "v": 105
    },
    {
      "midi": 81,
      "hit": false,
      "t": 238836.031749989,
      "d": 123.92232291665277,
      "v": 105
    },
    {
      "midi": 57,
      "hit": false,
      "t": 238836.03174999089,
      "d": 123.92232291665277,
      "v": 106
    },
    {
      "midi": 73,
      "hit": false,
      "t": 238965.34199998897,
      "d": 511.8530729166523,
      "v": 105
    },
    {
      "midi": 81,
      "hit": false,
      "t": 238965.34199998897,
      "d": 511.8530729166523,
      "v": 105
    },
    {
      "midi": 45,
      "hit": false,
      "t": 238965.34199999087,
      "d": 123.92232291665277,
      "v": 106
    },
    {
      "midi": 57,
      "hit": false,
      "t": 239094.65224999085,
      "d": 123.92232291665277,
      "v": 106
    },
    {
      "midi": 56,
      "hit": false,
      "t": 239223.96249999083,
      "d": 123.92232291665277,
      "v": 106
    },
    {
      "midi": 57,
      "hit": false,
      "t": 239353.2727499908,
      "d": 123.92232291665277,
      "v": 106
    },
    {
      "midi": 73,
      "hit": false,
      "t": 239482.58299998895,
      "d": 511.8530729166523,
      "v": 105
    },
    {
      "midi": 81,
      "hit": false,
      "t": 239482.58299998895,
      "d": 511.8530729166523,
      "v": 105
    },
    {
      "midi": 56,
      "hit": false,
      "t": 239482.5829999908,
      "d": 123.92232291665277,
      "v": 106
    },
    {
      "midi": 57,
      "hit": false,
      "t": 239611.89324999077,
      "d": 123.92232291665277,
      "v": 106
    },
    {
      "midi": 56,
      "hit": false,
      "t": 239741.20349999075,
      "d": 123.92232291665277,
      "v": 106
    },
    {
      "midi": 57,
      "hit": false,
      "t": 239870.51374999073,
      "d": 123.92232291665277,
      "v": 106
    },
    {
      "midi": 81,
      "hit": false,
      "t": 239999.82399998893,
      "d": 382.54282291667187,
      "v": 90
    },
    {
      "midi": 74,
      "hit": false,
      "t": 239999.82399998893,
      "d": 1029.0940729166323,
      "v": 90
    },
    {
      "midi": 82,
      "hit": false,
      "t": 239999.82399998893,
      "d": 1029.0940729166323,
      "v": 90
    },
    {
      "midi": 45,
      "hit": false,
      "t": 239999.8239999907,
      "d": 123.92232291665277,
      "v": 90
    },
    {
      "midi": 57,
      "hit": false,
      "t": 240129.1342499907,
      "d": 123.92232291665277,
      "v": 90
    },
    {
      "midi": 56,
      "hit": false,
      "t": 240258.44449999067,
      "d": 123.92232291665277,
      "v": 90
    },
    {
      "midi": 81,
      "hit": false,
      "t": 240387.75474998893,
      "d": 123.92232291665277,
      "v": 90
    },
    {
      "midi": 57,
      "hit": false,
      "t": 240387.75474999065,
      "d": 123.92232291665277,
      "v": 90
    },
    {
      "midi": 79,
      "hit": false,
      "t": 240517.0649999889,
      "d": 382.54282291667187,
      "v": 90
    },
    {
      "midi": 56,
      "hit": false,
      "t": 240517.06499999063,
      "d": 123.92232291665277,
      "v": 90
    },
    {
      "midi": 57,
      "hit": false,
      "t": 240646.3752499906,
      "d": 123.92232291665277,
      "v": 90
    },
    {
      "midi": 56,
      "hit": false,
      "t": 240775.6854999906,
      "d": 123.92232291665277,
      "v": 90
    },
    {
      "midi": 78,
      "hit": false,
      "t": 240904.9957499889,
      "d": 123.92232291665277,
      "v": 90
    },
    {
      "midi": 57,
      "hit": false,
      "t": 240904.99574999057,
      "d": 123.92232291665277,
      "v": 90
    },
    {
      "midi": 83,
      "hit": false,
      "t": 241034.3059999889,
      "d": 382.54282291667187,
      "v": 90
    },
    {
      "midi": 76,
      "hit": false,
      "t": 241034.3059999889,
      "d": 1029.0940729166323,
      "v": 90
    },
    {
      "midi": 79,
      "hit": false,
      "t": 241034.3059999889,
      "d": 1029.0940729166323,
      "v": 90
    },
    {
      "midi": 45,
      "hit": false,
      "t": 241034.30599999055,
      "d": 123.92232291665277,
      "v": 90
    },
    {
      "midi": 57,
      "hit": false,
      "t": 241163.61624999053,
      "d": 123.92232291665277,
      "v": 90
    },
    {
      "midi": 56,
      "hit": false,
      "t": 241292.9264999905,
      "d": 123.92232291665277,
      "v": 90
    },
    {
      "midi": 85,
      "hit": false,
      "t": 241422.2367499889,
      "d": 123.92232291665277,
      "v": 90
    },
    {
      "midi": 57,
      "hit": false,
      "t": 241422.2367499905,
      "d": 123.92232291665277,
      "v": 90
    },
    {
      "midi": 86,
      "hit": false,
      "t": 241551.54699998887,
      "d": 382.54282291667187,
      "v": 90
    },
    {
      "midi": 56,
      "hit": false,
      "t": 241551.54699999047,
      "d": 123.92232291665277,
      "v": 90
    },
    {
      "midi": 57,
      "hit": false,
      "t": 241680.85724999045,
      "d": 123.92232291665277,
      "v": 90
    },
    {
      "midi": 56,
      "hit": false,
      "t": 241810.16749999044,
      "d": 123.92232291665277,
      "v": 90
    },
    {
      "midi": 83,
      "hit": false,
      "t": 241939.47774998887,
      "d": 123.92232291665277,
      "v": 90
    },
    {
      "midi": 57,
      "hit": false,
      "t": 241939.47774999042,
      "d": 123.92232291665277,
      "v": 90
    },
    {
      "midi": 79,
      "hit": false,
      "t": 242068.78799998885,
      "d": 382.54282291667187,
      "v": 75
    },
    {
      "midi": 73,
      "hit": false,
      "t": 242068.78799998885,
      "d": 1029.0940729166323,
      "v": 75
    },
    {
      "midi": 81,
      "hit": false,
      "t": 242068.78799998885,
      "d": 1029.0940729166323,
      "v": 75
    },
    {
      "midi": 45,
      "hit": false,
      "t": 242068.7879999904,
      "d": 123.92232291665277,
      "v": 76
    },
    {
      "midi": 57,
      "hit": false,
      "t": 242198.09824999038,
      "d": 123.92232291665277,
      "v": 76
    },
    {
      "midi": 56,
      "hit": false,
      "t": 242327.40849999036,
      "d": 123.92232291665277,
      "v": 76
    },
    {
      "midi": 79,
      "hit": false,
      "t": 242456.71874998885,
      "d": 123.92232291665277,
      "v": 75
    },
    {
      "midi": 57,
      "hit": false,
      "t": 242456.71874999034,
      "d": 123.92232291665277,
      "v": 76
    },
    {
      "midi": 77,
      "hit": false,
      "t": 242586.02899998883,
      "d": 382.54282291667187,
      "v": 75
    },
    {
      "midi": 56,
      "hit": false,
      "t": 242586.02899999032,
      "d": 123.92232291665277,
      "v": 76
    },
    {
      "midi": 57,
      "hit": false,
      "t": 242715.3392499903,
      "d": 123.92232291665277,
      "v": 76
    },
    {
      "midi": 56,
      "hit": false,
      "t": 242844.64949999028,
      "d": 123.92232291665277,
      "v": 76
    },
    {
      "midi": 76,
      "hit": false,
      "t": 242973.95974998883,
      "d": 123.92232291665277,
      "v": 75
    },
    {
      "midi": 57,
      "hit": false,
      "t": 242973.95974999026,
      "d": 123.92232291665277,
      "v": 76
    },
    {
      "midi": 81,
      "hit": false,
      "t": 243103.2699999888,
      "d": 382.54282291667187,
      "v": 75
    },
    {
      "midi": 74,
      "hit": false,
      "t": 243103.2699999888,
      "d": 1029.0940729166323,
      "v": 75
    },
    {
      "midi": 77,
      "hit": false,
      "t": 243103.2699999888,
      "d": 1029.0940729166323,
      "v": 75
    },
    {
      "midi": 45,
      "hit": false,
      "t": 243103.26999999024,
      "d": 123.92232291665277,
      "v": 76
    },
    {
      "midi": 57,
      "hit": false,
      "t": 243232.58024999022,
      "d": 123.92232291665277,
      "v": 76
    },
    {
      "midi": 56,
      "hit": false,
      "t": 243361.8904999902,
      "d": 123.92232291665277,
      "v": 76
    },
    {
      "midi": 85,
      "hit": false,
      "t": 243491.2007499888,
      "d": 123.92232291665277,
      "v": 75
    },
    {
      "midi": 57,
      "hit": false,
      "t": 243491.20074999018,
      "d": 123.92232291665277,
      "v": 76
    },
    {
      "midi": 86,
      "hit": false,
      "t": 243620.5109999888,
      "d": 382.54282291667187,
      "v": 75
    },
    {
      "midi": 56,
      "hit": false,
      "t": 243620.51099999016,
      "d": 123.92232291665277,
      "v": 76
    },
    {
      "midi": 57,
      "hit": false,
      "t": 243749.82124999014,
      "d": 123.92232291665277,
      "v": 76
    },
    {
      "midi": 56,
      "hit": false,
      "t": 243879.13149999012,
      "d": 123.92232291665277,
      "v": 76
    },
    {
      "midi": 81,
      "hit": false,
      "t": 244008.4417499888,
      "d": 123.92232291665277,
      "v": 75
    },
    {
      "midi": 57,
      "hit": false,
      "t": 244008.4417499901,
      "d": 123.92232291665277,
      "v": 76
    },
    {
      "midi": 77,
      "hit": false,
      "t": 244137.75199998877,
      "d": 382.54282291667187,
      "v": 75
    },
    {
      "midi": 71,
      "hit": false,
      "t": 244137.75199998877,
      "d": 1029.0940729166323,
      "v": 75
    },
    {
      "midi": 79,
      "hit": false,
      "t": 244137.75199998877,
      "d": 1029.0940729166323,
      "v": 75
    },
    {
      "midi": 45,
      "hit": false,
      "t": 244137.75199999008,
      "d": 123.92232291665277,
      "v": 76
    },
    {
      "midi": 57,
      "hit": false,
      "t": 244267.06224999006,
      "d": 123.92232291665277,
      "v": 76
    },
    {
      "midi": 56,
      "hit": false,
      "t": 244396.37249999004,
      "d": 123.92232291665277,
      "v": 76
    },
    {
      "midi": 77,
      "hit": false,
      "t": 244525.68274998877,
      "d": 123.92232291665277,
      "v": 75
    },
    {
      "midi": 57,
      "hit": false,
      "t": 244525.68274999002,
      "d": 123.92232291665277,
      "v": 76
    },
    {
      "midi": 76,
      "hit": false,
      "t": 244654.99299998875,
      "d": 382.54282291667187,
      "v": 75
    },
    {
      "midi": 56,
      "hit": false,
      "t": 244654.99299999,
      "d": 123.92232291665277,
      "v": 76
    },
    {
      "midi": 57,
      "hit": false,
      "t": 244784.30324999,
      "d": 123.92232291665277,
      "v": 76
    },
    {
      "midi": 56,
      "hit": false,
      "t": 244913.61349998997,
      "d": 123.92232291665277,
      "v": 76
    },
    {
      "midi": 74,
      "hit": false,
      "t": 245042.92374998875,
      "d": 123.92232291665277,
      "v": 75
    },
    {
      "midi": 57,
      "hit": false,
      "t": 245042.92374998995,
      "d": 123.92232291665277,
      "v": 76
    },
    {
      "midi": 79,
      "hit": false,
      "t": 245172.23399998873,
      "d": 382.54282291667187,
      "v": 75
    },
    {
      "midi": 73,
      "hit": false,
      "t": 245172.23399998873,
      "d": 1029.0940729166323,
      "v": 75
    },
    {
      "midi": 76,
      "hit": false,
      "t": 245172.23399998873,
      "d": 1029.0940729166323,
      "v": 75
    },
    {
      "midi": 45,
      "hit": false,
      "t": 245172.23399998993,
      "d": 123.92232291665277,
      "v": 76
    },
    {
      "midi": 57,
      "hit": false,
      "t": 245301.5442499899,
      "d": 123.92232291665277,
      "v": 76
    },
    {
      "midi": 56,
      "hit": false,
      "t": 245430.8544999899,
      "d": 123.92232291665277,
      "v": 76
    },
    {
      "midi": 81,
      "hit": false,
      "t": 245560.16474998873,
      "d": 123.92232291665277,
      "v": 75
    },
    {
      "midi": 57,
      "hit": false,
      "t": 245560.16474998987,
      "d": 123.92232291665277,
      "v": 76
    },
    {
      "midi": 82,
      "hit": false,
      "t": 245689.4749999887,
      "d": 382.54282291667187,
      "v": 75
    },
    {
      "midi": 56,
      "hit": false,
      "t": 245689.47499998985,
      "d": 123.92232291665277,
      "v": 76
    },
    {
      "midi": 57,
      "hit": false,
      "t": 245818.78524998983,
      "d": 123.92232291665277,
      "v": 76
    },
    {
      "midi": 56,
      "hit": false,
      "t": 245948.0954999898,
      "d": 123.92232291665277,
      "v": 76
    },
    {
      "midi": 79,
      "hit": false,
      "t": 246077.4057499887,
      "d": 123.92232291665277,
      "v": 75
    },
    {
      "midi": 57,
      "hit": false,
      "t": 246077.4057499898,
      "d": 123.92232291665277,
      "v": 76
    },
    {
      "midi": 74,
      "hit": false,
      "t": 246206.7159999887,
      "d": 511.8530729166523,
      "v": 90
    },
    {
      "midi": 79,
      "hit": false,
      "t": 246206.7159999887,
      "d": 511.8530729166523,
      "v": 90
    },
    {
      "midi": 50,
      "hit": false,
      "t": 246206.71599998977,
      "d": 123.92232291665277,
      "v": 90
    },
    {
      "midi": 53,
      "hit": false,
      "t": 246336.02624998975,
      "d": 123.92232291665277,
      "v": 90
    },
    {
      "midi": 57,
      "hit": false,
      "t": 246465.33649998973,
      "d": 123.92232291665277,
      "v": 90
    },
    {
      "midi": 62,
      "hit": false,
      "t": 246594.6467499897,
      "d": 123.92232291665277,
      "v": 90
    },
    {
      "midi": 65,
      "hit": false,
      "t": 246723.9569999897,
      "d": 123.92232291665277,
      "v": 90
    },
    {
      "midi": 64,
      "hit": false,
      "t": 246853.26724998967,
      "d": 123.92232291665277,
      "v": 90
    },
    {
      "midi": 62,
      "hit": false,
      "t": 246982.57749998965,
      "d": 123.92232291665277,
      "v": 90
    },
    {
      "midi": 74,
      "hit": false,
      "t": 247111.88774998867,
      "d": 123.92232291665277,
      "v": 90
    },
    {
      "midi": 77,
      "hit": false,
      "t": 247111.88774998867,
      "d": 123.92232291665277,
      "v": 90
    },
    {
      "midi": 60,
      "hit": false,
      "t": 247111.88774998963,
      "d": 123.92232291665277,
      "v": 90
    },
    {
      "midi": 77,
      "hit": false,
      "t": 247241.19799998865,
      "d": 511.8530729166523,
      "v": 90
    },
    {
      "midi": 86,
      "hit": false,
      "t": 247241.19799998865,
      "d": 511.8530729166523,
      "v": 90
    },
    {
      "midi": 59,
      "hit": false,
      "t": 247241.1979999896,
      "d": 123.92232291665277,
      "v": 90
    },
    {
      "midi": 60,
      "hit": false,
      "t": 247370.5082499896,
      "d": 123.92232291665277,
      "v": 90
    },
    {
      "midi": 62,
      "hit": false,
      "t": 247499.81849998957,
      "d": 123.92232291665277,
      "v": 90
    },
    {
      "midi": 60,
      "hit": false,
      "t": 247629.12874998956,
      "d": 123.92232291665277,
      "v": 90
    },
    {
      "midi": 79,
      "hit": false,
      "t": 247758.43899998863,
      "d": 59.26719791666255,
      "v": 90
    },
    {
      "midi": 74,
      "hit": false,
      "t": 247758.43899998863,
      "d": 511.8530729165941,
      "v": 90
    },
    {
      "midi": 59,
      "hit": false,
      "t": 247758.43899998954,
      "d": 123.92232291665277,
      "v": 90
    },
    {
      "midi": 77,
      "hit": false,
      "t": 247823.09412498862,
      "d": 59.26719791666255,
      "v": 90
    },
    {
      "midi": 79,
      "hit": false,
      "t": 247887.7492499886,
      "d": 59.26719791666255,
      "v": 90
    },
    {
      "midi": 55,
      "hit": false,
      "t": 247887.74924998952,
      "d": 123.92232291665277,
      "v": 90
    },
    {
      "midi": 77,
      "hit": false,
      "t": 247952.4043749886,
      "d": 59.26719791666255,
      "v": 90
    },
    {
      "midi": 79,
      "hit": false,
      "t": 248017.0594999886,
      "d": 59.26719791666255,
      "v": 90
    },
    {
      "midi": 57,
      "hit": false,
      "t": 248017.0594999895,
      "d": 123.92232291665277,
      "v": 90
    },
    {
      "midi": 77,
      "hit": false,
      "t": 248081.71462498858,
      "d": 59.26719791666255,
      "v": 90
    },
    {
      "midi": 76,
      "hit": false,
      "t": 248146.36974998857,
      "d": 59.26719791666255,
      "v": 90
    },
    {
      "midi": 59,
      "hit": false,
      "t": 248146.36974998948,
      "d": 123.92232291665277,
      "v": 90
    },
    {
      "midi": 77,
      "hit": false,
      "t": 248211.02487498856,
      "d": 59.26719791666255,
      "v": 90
    },
    {
      "midi": 72,
      "hit": false,
      "t": 248275.67999998856,
      "d": 511.8530729166523,
      "v": 75
    },
    {
      "midi": 76,
      "hit": false,
      "t": 248275.67999998856,
      "d": 511.8530729166523,
      "v": 75
    },
    {
      "midi": 60,
      "hit": false,
      "t": 248275.67999998946,
      "d": 123.92232291665277,
      "v": 76
    },
    {
      "midi": 59,
      "hit": false,
      "t": 248404.99024998944,
      "d": 123.92232291665277,
      "v": 76
    },
    {
      "midi": 60,
      "hit": false,
      "t": 248534.30049998942,
      "d": 123.92232291665277,
      "v": 76
    },
    {
      "midi": 62,
      "hit": false,
      "t": 248663.6107499894,
      "d": 123.92232291665277,
      "v": 76
    },
    {
      "midi": 64,
      "hit": false,
      "t": 248792.92099998938,
      "d": 123.92232291665277,
      "v": 76
    },
    {
      "midi": 62,
      "hit": false,
      "t": 248922.23124998936,
      "d": 123.92232291665277,
      "v": 76
    },
    {
      "midi": 60,
      "hit": false,
      "t": 249051.54149998934,
      "d": 123.92232291665277,
      "v": 76
    },
    {
      "midi": 72,
      "hit": false,
      "t": 249180.85174998853,
      "d": 123.92232291665277,
      "v": 75
    },
    {
      "midi": 76,
      "hit": false,
      "t": 249180.85174998853,
      "d": 123.92232291665277,
      "v": 75
    },
    {
      "midi": 59,
      "hit": false,
      "t": 249180.85174998932,
      "d": 123.92232291665277,
      "v": 76
    },
    {
      "midi": 76,
      "hit": false,
      "t": 249310.16199998852,
      "d": 511.8530729166523,
      "v": 75
    },
    {
      "midi": 84,
      "hit": false,
      "t": 249310.16199998852,
      "d": 511.8530729166523,
      "v": 75
    },
    {
      "midi": 57,
      "hit": false,
      "t": 249310.1619999893,
      "d": 123.92232291665277,
      "v": 76
    },
    {
      "midi": 59,
      "hit": false,
      "t": 249439.47224998928,
      "d": 123.92232291665277,
      "v": 76
    },
    {
      "midi": 60,
      "hit": false,
      "t": 249568.78249998926,
      "d": 123.92232291665277,
      "v": 76
    },
    {
      "midi": 59,
      "hit": false,
      "t": 249698.09274998924,
      "d": 123.92232291665277,
      "v": 76
    },
    {
      "midi": 77,
      "hit": false,
      "t": 249827.4029999885,
      "d": 59.26719791666255,
      "v": 75
    },
    {
      "midi": 72,
      "hit": false,
      "t": 249827.4029999885,
      "d": 511.8530729165941,
      "v": 75
    },
    {
      "midi": 57,
      "hit": false,
      "t": 249827.40299998922,
      "d": 123.92232291665277,
      "v": 76
    },
    {
      "midi": 76,
      "hit": false,
      "t": 249892.05812498849,
      "d": 59.26719791666255,
      "v": 75
    },
    {
      "midi": 77,
      "hit": false,
      "t": 249956.71324998848,
      "d": 59.26719791666255,
      "v": 75
    },
    {
      "midi": 53,
      "hit": false,
      "t": 249956.7132499892,
      "d": 123.92232291665277,
      "v": 76
    },
    {
      "midi": 76,
      "hit": false,
      "t": 250021.36837498847,
      "d": 59.26719791666255,
      "v": 75
    },
    {
      "midi": 77,
      "hit": false,
      "t": 250086.02349998846,
      "d": 59.26719791666255,
      "v": 75
    },
    {
      "midi": 55,
      "hit": false,
      "t": 250086.02349998918,
      "d": 123.92232291665277,
      "v": 76
    },
    {
      "midi": 76,
      "hit": false,
      "t": 250150.67862498845,
      "d": 59.26719791666255,
      "v": 75
    },
    {
      "midi": 74,
      "hit": false,
      "t": 250215.33374998844,
      "d": 59.26719791666255,
      "v": 75
    },
    {
      "midi": 57,
      "hit": false,
      "t": 250215.33374998916,
      "d": 123.92232291665277,
      "v": 76
    },
    {
      "midi": 76,
      "hit": false,
      "t": 250279.98887498843,
      "d": 59.26719791666255,
      "v": 75
    },
    {
      "midi": 71,
      "hit": false,
      "t": 250344.64399998842,
      "d": 511.8530729166523,
      "v": 75
    },
    {
      "midi": 74,
      "hit": false,
      "t": 250344.64399998842,
      "d": 511.8530729166523,
      "v": 75
    },
    {
      "midi": 59,
      "hit": false,
      "t": 250344.64399998914,
      "d": 123.92232291665277,
      "v": 76
    },
    {
      "midi": 57,
      "hit": false,
      "t": 250473.95424998912,
      "d": 123.92232291665277,
      "v": 76
    },
    {
      "midi": 59,
      "hit": false,
      "t": 250603.2644999891,
      "d": 123.92232291665277,
      "v": 76
    },
    {
      "midi": 60,
      "hit": false,
      "t": 250732.5747499891,
      "d": 123.92232291665277,
      "v": 76
    },
    {
      "midi": 62,
      "hit": false,
      "t": 250861.88499998907,
      "d": 123.92232291665277,
      "v": 76
    },
    {
      "midi": 60,
      "hit": false,
      "t": 250991.19524998905,
      "d": 123.92232291665277,
      "v": 76
    },
    {
      "midi": 59,
      "hit": false,
      "t": 251120.50549998903,
      "d": 123.92232291665277,
      "v": 76
    },
    {
      "midi": 71,
      "hit": false,
      "t": 251249.8157499884,
      "d": 123.92232291665277,
      "v": 75
    },
    {
      "midi": 74,
      "hit": false,
      "t": 251249.8157499884,
      "d": 123.92232291665277,
      "v": 75
    },
    {
      "midi": 57,
      "hit": false,
      "t": 251249.815749989,
      "d": 123.92232291665277,
      "v": 76
    },
    {
      "midi": 74,
      "hit": false,
      "t": 251379.12599998838,
      "d": 511.8530729166523,
      "v": 75
    },
    {
      "midi": 83,
      "hit": false,
      "t": 251379.12599998838,
      "d": 511.8530729166523,
      "v": 75
    },
    {
      "midi": 56,
      "hit": false,
      "t": 251379.125999989,
      "d": 123.92232291665277,
      "v": 76
    },
    {
      "midi": 57,
      "hit": false,
      "t": 251508.43624998897,
      "d": 123.92232291665277,
      "v": 76
    },
    {
      "midi": 59,
      "hit": false,
      "t": 251637.74649998895,
      "d": 123.92232291665277,
      "v": 76
    },
    {
      "midi": 57,
      "hit": false,
      "t": 251767.05674998893,
      "d": 123.92232291665277,
      "v": 76
    },
    {
      "midi": 76,
      "hit": false,
      "t": 251896.36699998836,
      "d": 59.26719791666255,
      "v": 75
    },
    {
      "midi": 71,
      "hit": false,
      "t": 251896.36699998836,
      "d": 511.8530729165941,
      "v": 75
    },
    {
      "midi": 56,
      "hit": false,
      "t": 251896.3669999889,
      "d": 123.92232291665277,
      "v": 76
    },
    {
      "midi": 74,
      "hit": false,
      "t": 251961.02212498835,
      "d": 59.26719791666255,
      "v": 75
    },
    {
      "midi": 76,
      "hit": false,
      "t": 252025.67724998834,
      "d": 59.26719791666255,
      "v": 75
    },
    {
      "midi": 52,
      "hit": false,
      "t": 252025.6772499889,
      "d": 123.92232291665277,
      "v": 76
    },
    {
      "midi": 74,
      "hit": false,
      "t": 252090.33237498833,
      "d": 59.26719791666255,
      "v": 75
    },
    {
      "midi": 76,
      "hit": false,
      "t": 252154.98749998832,
      "d": 59.26719791666255,
      "v": 75
    },
    {
      "midi": 54,
      "hit": false,
      "t": 252154.98749998887,
      "d": 123.92232291665277,
      "v": 76
    },
    {
      "midi": 74,
      "hit": false,
      "t": 252219.6426249883,
      "d": 59.26719791666255,
      "v": 75
    },
    {
      "midi": 72,
      "hit": false,
      "t": 252284.2977499883,
      "d": 59.26719791666255,
      "v": 75
    },
    {
      "midi": 56,
      "hit": false,
      "t": 252284.29774998885,
      "d": 123.92232291665277,
      "v": 76
    },
    {
      "midi": 74,
      "hit": false,
      "t": 252348.9528749883,
      "d": 59.26719791666255,
      "v": 75
    },
    {
      "midi": 72,
      "hit": false,
      "t": 252413.60799998828,
      "d": 123.92232291665277,
      "v": 75
    },
    {
      "midi": 57,
      "hit": false,
      "t": 252413.60799998883,
      "d": 511.8530729166523,
      "v": 90
    },
    {
      "midi": 69,
      "hit": false,
      "t": 252542.91824998826,
      "d": 123.92232291665277,
      "v": 75
    },
    {
      "midi": 72,
      "hit": false,
      "t": 252672.22849998824,
      "d": 123.92232291665277,
      "v": 75
    },
    {
      "midi": 76,
      "hit": false,
      "t": 252801.53874998822,
      "d": 123.92232291665277,
      "v": 75
    },
    {
      "midi": 64,
      "hit": false,
      "t": 252930.8489999882,
      "d": 123.92232291665277,
      "v": 75
    },
    {
      "midi": 43,
      "hit": false,
      "t": 252930.8489999888,
      "d": 511.8530729166523,
      "v": 90
    },
    {
      "midi": 55,
      "hit": false,
      "t": 252930.8489999888,
      "d": 511.8530729166523,
      "v": 90
    },
    {
      "midi": 67,
      "hit": false,
      "t": 253060.15924998818,
      "d": 123.92232291665277,
      "v": 75
    },
    {
      "midi": 71,
      "hit": false,
      "t": 253189.46949998816,
      "d": 123.92232291665277,
      "v": 75
    },
    {
      "midi": 76,
      "hit": false,
      "t": 253318.77974998814,
      "d": 123.92232291665277,
      "v": 75
    },
    {
      "midi": 64,
      "hit": false,
      "t": 253448.08999998812,
      "d": 123.92232291665277,
      "v": 75
    },
    {
      "midi": 42,
      "hit": false,
      "t": 253448.0899999888,
      "d": 511.8530729166523,
      "v": 90
    },
    {
      "midi": 54,
      "hit": false,
      "t": 253448.0899999888,
      "d": 511.8530729166523,
      "v": 90
    },
    {
      "midi": 69,
      "hit": false,
      "t": 253577.4002499881,
      "d": 123.92232291665277,
      "v": 75
    },
    {
      "midi": 72,
      "hit": false,
      "t": 253706.71049998808,
      "d": 123.92232291665277,
      "v": 75
    },
    {
      "midi": 76,
      "hit": false,
      "t": 253836.02074998806,
      "d": 123.92232291665277,
      "v": 75
    },
    {
      "midi": 63,
      "hit": false,
      "t": 253965.33099998804,
      "d": 123.92232291665277,
      "v": 75
    },
    {
      "midi": 41,
      "hit": false,
      "t": 253965.33099998877,
      "d": 511.8530729166523,
      "v": 90
    },
    {
      "midi": 53,
      "hit": false,
      "t": 253965.33099998877,
      "d": 511.8530729166523,
      "v": 90
    },
    {
      "midi": 69,
      "hit": false,
      "t": 254094.64124998802,
      "d": 123.92232291665277,
      "v": 75
    },
    {
      "midi": 72,
      "hit": false,
      "t": 254223.951499988,
      "d": 123.92232291665277,
      "v": 75
    },
    {
      "midi": 75,
      "hit": false,
      "t": 254353.26174998799,
      "d": 123.92232291665277,
      "v": 75
    },
    {
      "midi": 76,
      "hit": false,
      "t": 254482.57199998797,
      "d": 123.92232291665277,
      "v": 75
    },
    {
      "midi": 40,
      "hit": false,
      "t": 254482.57199998875,
      "d": 511.8530729166523,
      "v": 90
    },
    {
      "midi": 52,
      "hit": false,
      "t": 254482.57199998875,
      "d": 511.8530729166523,
      "v": 90
    },
    {
      "midi": 64,
      "hit": false,
      "t": 254611.88224998795,
      "d": 123.92232291665277,
      "v": 75
    },
    {
      "midi": 68,
      "hit": false,
      "t": 254741.19249998793,
      "d": 123.92232291665277,
      "v": 75
    },
    {
      "midi": 71,
      "hit": false,
      "t": 254870.5027499879,
      "d": 123.92232291665277,
      "v": 75
    },
    {
      "midi": 76,
      "hit": false,
      "t": 254999.8129999879,
      "d": 123.92232291665277,
      "v": 75
    },
    {
      "midi": 68,
      "hit": false,
      "t": 255129.12324998787,
      "d": 123.92232291665277,
      "v": 75
    },
    {
      "midi": 71,
      "hit": false,
      "t": 255258.43349998785,
      "d": 123.92232291665277,
      "v": 75
    },
    {
      "midi": 76,
      "hit": false,
      "t": 255387.74374998783,
      "d": 123.92232291665277,
      "v": 75
    },
    {
      "midi": 52,
      "hit": false,
      "t": 255387.74374998873,
      "d": 123.92232291665277,
      "v": 76
    },
    {
      "midi": 80,
      "hit": false,
      "t": 255517.0539999878,
      "d": 123.92232291665277,
      "v": 75
    },
    {
      "midi": 64,
      "hit": false,
      "t": 255517.0539999887,
      "d": 511.8530729166523,
      "v": 76
    },
    {
      "midi": 71,
      "hit": false,
      "t": 255646.3642499878,
      "d": 123.92232291665277,
      "v": 75
    },
    {
      "midi": 76,
      "hit": false,
      "t": 255775.67449998777,
      "d": 123.92232291665277,
      "v": 75
    },
    {
      "midi": 80,
      "hit": false,
      "t": 255904.98474998775,
      "d": 123.92232291665277,
      "v": 75
    },
    {
      "midi": 83,
      "hit": false,
      "t": 256034.29499998773,
      "d": 123.92232291665277,
      "v": 75
    },
    {
      "midi": 57,
      "hit": false,
      "t": 256034.2949999887,
      "d": 59.26719791666255,
      "v": 76
    },
    {
      "midi": 56,
      "hit": false,
      "t": 256098.95012498868,
      "d": 59.26719791666255,
      "v": 76
    },
    {
      "midi": 80,
      "hit": false,
      "t": 256163.6052499877,
      "d": 123.92232291665277,
      "v": 75
    },
    {
      "midi": 57,
      "hit": false,
      "t": 256163.60524998867,
      "d": 59.26719791666255,
      "v": 76
    },
    {
      "midi": 56,
      "hit": false,
      "t": 256228.26037498866,
      "d": 59.26719791666255,
      "v": 76
    },
    {
      "midi": 76,
      "hit": false,
      "t": 256292.9154999877,
      "d": 123.92232291665277,
      "v": 75
    },
    {
      "midi": 57,
      "hit": false,
      "t": 256292.91549998865,
      "d": 59.26719791666255,
      "v": 76
    },
    {
      "midi": 56,
      "hit": false,
      "t": 256357.57062498864,
      "d": 59.26719791666255,
      "v": 76
    },
    {
      "midi": 74,
      "hit": false,
      "t": 256422.22574998767,
      "d": 123.92232291665277,
      "v": 75
    },
    {
      "midi": 54,
      "hit": false,
      "t": 256422.22574998863,
      "d": 59.26719791669166,
      "v": 76
    },
    {
      "midi": 56,
      "hit": false,
      "t": 256465.3291666553,
      "d": 59.26719791669166,
      "v": 76
    },
    {
      "midi": 72,
      "hit": false,
      "t": 256551.53599998765,
      "d": 123.92232291665277,
      "v": 75
    },
    {
      "midi": 57,
      "hit": false,
      "t": 256551.53599998867,
      "d": 511.8530729166523,
      "v": 76
    },
    {
      "midi": 69,
      "hit": false,
      "t": 256680.84624998763,
      "d": 123.92232291665277,
      "v": 75
    },
    {
      "midi": 72,
      "hit": false,
      "t": 256810.1564999876,
      "d": 123.92232291665277,
      "v": 75
    },
    {
      "midi": 76,
      "hit": false,
      "t": 256939.4667499876,
      "d": 123.92232291665277,
      "v": 75
    },
    {
      "midi": 81,
      "hit": false,
      "t": 257068.77699998757,
      "d": 123.92232291665277,
      "v": 75
    },
    {
      "midi": 72,
      "hit": false,
      "t": 257198.08724998755,
      "d": 123.92232291665277,
      "v": 75
    },
    {
      "midi": 76,
      "hit": false,
      "t": 257327.39749998754,
      "d": 123.92232291665277,
      "v": 75
    },
    {
      "midi": 81,
      "hit": false,
      "t": 257456.70774998752,
      "d": 123.92232291665277,
      "v": 75
    },
    {
      "midi": 45,
      "hit": false,
      "t": 257456.70774998865,
      "d": 123.92232291665277,
      "v": 76
    },
    {
      "midi": 84,
      "hit": false,
      "t": 257586.0179999875,
      "d": 123.92232291665277,
      "v": 75
    },
    {
      "midi": 57,
      "hit": false,
      "t": 257586.01799998863,
      "d": 511.8530729166523,
      "v": 76
    },
    {
      "midi": 81,
      "hit": false,
      "t": 257715.32824998748,
      "d": 123.92232291665277,
      "v": 75
    },
    {
      "midi": 76,
      "hit": false,
      "t": 257844.63849998746,
      "d": 123.92232291665277,
      "v": 75
    },
    {
      "midi": 72,
      "hit": false,
      "t": 257973.94874998744,
      "d": 123.92232291665277,
      "v": 75
    },
    {
      "midi": 81,
      "hit": false,
      "t": 258103.25899998742,
      "d": 123.92232291665277,
      "v": 75
    },
    {
      "midi": 52,
      "hit": false,
      "t": 258103.2589999886,
      "d": 59.26719791666255,
      "v": 76
    },
    {
      "midi": 51,
      "hit": false,
      "t": 258167.9141249886,
      "d": 59.26719791666255,
      "v": 76
    },
    {
      "midi": 78,
      "hit": false,
      "t": 258232.5692499874,
      "d": 123.92232291665277,
      "v": 75
    },
    {
      "midi": 52,
      "hit": false,
      "t": 258232.5692499886,
      "d": 59.26719791666255,
      "v": 76
    },
    {
      "midi": 51,
      "hit": false,
      "t": 258297.22437498858,
      "d": 59.26719791666255,
      "v": 76
    },
    {
      "midi": 72,
      "hit": false,
      "t": 258361.87949998738,
      "d": 123.92232291665277,
      "v": 75
    },
    {
      "midi": 52,
      "hit": false,
      "t": 258361.87949998857,
      "d": 59.26719791666255,
      "v": 76
    },
    {
      "midi": 51,
      "hit": false,
      "t": 258426.53462498856,
      "d": 59.26719791666255,
      "v": 76
    },
    {
      "midi": 69,
      "hit": false,
      "t": 258491.18974998736,
      "d": 123.92232291665277,
      "v": 75
    },
    {
      "midi": 49,
      "hit": false,
      "t": 258491.18974998855,
      "d": 59.26719791666255,
      "v": 76
    },
    {
      "midi": 51,
      "hit": false,
      "t": 258555.84487498854,
      "d": 59.26719791666255,
      "v": 76
    },
    {
      "midi": 68,
      "hit": false,
      "t": 258620.49999998734,
      "d": 123.92232291665277,
      "v": 75
    },
    {
      "midi": 52,
      "hit": false,
      "t": 258620.49999998853,
      "d": 511.8530729166523,
      "v": 76
    },
    {
      "midi": 64,
      "hit": false,
      "t": 258749.81024998732,
      "d": 123.92232291665277,
      "v": 75
    },
    {
      "midi": 68,
      "hit": false,
      "t": 258879.1204999873,
      "d": 123.92232291665277,
      "v": 75
    },
    {
      "midi": 71,
      "hit": false,
      "t": 259008.43074998728,
      "d": 123.92232291665277,
      "v": 75
    },
    {
      "midi": 76,
      "hit": false,
      "t": 259137.74099998726,
      "d": 123.92232291665277,
      "v": 75
    },
    {
      "midi": 68,
      "hit": false,
      "t": 259267.05124998724,
      "d": 123.92232291665277,
      "v": 75
    },
    {
      "midi": 71,
      "hit": false,
      "t": 259396.36149998722,
      "d": 123.92232291665277,
      "v": 75
    },
    {
      "midi": 76,
      "hit": false,
      "t": 259525.6717499872,
      "d": 123.92232291665277,
      "v": 75
    },
    {
      "midi": 52,
      "hit": false,
      "t": 259525.6717499885,
      "d": 123.92232291665277,
      "v": 76
    },
    {
      "midi": 80,
      "hit": false,
      "t": 259654.98199998718,
      "d": 123.92232291665277,
      "v": 75
    },
    {
      "midi": 64,
      "hit": false,
      "t": 259654.9819999885,
      "d": 511.8530729166523,
      "v": 76
    },
    {
      "midi": 71,
      "hit": false,
      "t": 259784.29224998716,
      "d": 123.92232291665277,
      "v": 75
    },
    {
      "midi": 76,
      "hit": false,
      "t": 259913.60249998714,
      "d": 123.92232291665277,
      "v": 75
    },
    {
      "midi": 80,
      "hit": false,
      "t": 260042.91274998712,
      "d": 123.92232291665277,
      "v": 75
    },
    {
      "midi": 83,
      "hit": false,
      "t": 260172.2229999871,
      "d": 123.92232291665277,
      "v": 75
    },
    {
      "midi": 57,
      "hit": false,
      "t": 260172.22299998847,
      "d": 59.26719791666255,
      "v": 76
    },
    {
      "midi": 56,
      "hit": false,
      "t": 260236.87812498846,
      "d": 59.26719791666255,
      "v": 76
    },
    {
      "midi": 80,
      "hit": false,
      "t": 260301.5332499871,
      "d": 123.92232291665277,
      "v": 75
    },
    {
      "midi": 57,
      "hit": false,
      "t": 260301.53324998845,
      "d": 59.26719791666255,
      "v": 76
    },
    {
      "midi": 56,
      "hit": false,
      "t": 260366.18837498844,
      "d": 59.26719791666255,
      "v": 76
    },
    {
      "midi": 76,
      "hit": false,
      "t": 260430.84349998707,
      "d": 123.92232291665277,
      "v": 75
    },
    {
      "midi": 57,
      "hit": false,
      "t": 260430.84349998843,
      "d": 59.26719791666255,
      "v": 76
    },
    {
      "midi": 56,
      "hit": false,
      "t": 260495.49862498842,
      "d": 59.26719791666255,
      "v": 76
    },
    {
      "midi": 74,
      "hit": false,
      "t": 260560.15374998705,
      "d": 123.92232291665277,
      "v": 75
    },
    {
      "midi": 54,
      "hit": false,
      "t": 260560.1537499884,
      "d": 59.26719791666255,
      "v": 76
    },
    {
      "midi": 56,
      "hit": false,
      "t": 260624.8088749884,
      "d": 59.26719791666255,
      "v": 76
    },
    {
      "midi": 72,
      "hit": false,
      "t": 260689.46399998703,
      "d": 123.92232291665277,
      "v": 75
    },
    {
      "midi": 57,
      "hit": false,
      "t": 260689.4639999884,
      "d": 511.8530729166523,
      "v": 82
    },
    {
      "midi": 69,
      "hit": false,
      "t": 260818.774249987,
      "d": 123.92232291665277,
      "v": 75
    },
    {
      "midi": 72,
      "hit": false,
      "t": 260948.084499987,
      "d": 123.92232291665277,
      "v": 75
    },
    {
      "midi": 76,
      "hit": false,
      "t": 261077.39474998697,
      "d": 123.92232291665277,
      "v": 75
    },
    {
      "midi": 81,
      "hit": false,
      "t": 261206.70499998695,
      "d": 123.92232291665277,
      "v": 75
    },
    {
      "midi": 72,
      "hit": false,
      "t": 261336.01524998693,
      "d": 123.92232291665277,
      "v": 75
    },
    {
      "midi": 76,
      "hit": false,
      "t": 261465.3254999869,
      "d": 123.92232291665277,
      "v": 75
    },
    {
      "midi": 81,
      "hit": false,
      "t": 261594.6357499869,
      "d": 123.92232291665277,
      "v": 75
    },
    {
      "midi": 45,
      "hit": false,
      "t": 261594.63574998837,
      "d": 123.92232291665277,
      "v": 82
    },
    {
      "midi": 84,
      "hit": false,
      "t": 261723.94599998687,
      "d": 123.92232291665277,
      "v": 75
    },
    {
      "midi": 57,
      "hit": false,
      "t": 261723.94599998835,
      "d": 511.8530729166814,
      "v": 82
    },
    {
      "midi": 81,
      "hit": false,
      "t": 261853.25624998685,
      "d": 123.92232291665277,
      "v": 75
    },
    {
      "midi": 76,
      "hit": false,
      "t": 261982.56649998683,
      "d": 123.92232291665277,
      "v": 75
    },
    {
      "midi": 72,
      "hit": false,
      "t": 262111.8767499868,
      "d": 123.92232291665277,
      "v": 75
    },
    {
      "midi": 81,
      "hit": false,
      "t": 262241.1869999868,
      "d": 123.92232291668188,
      "v": 75
    },
    {
      "midi": 52,
      "hit": false,
      "t": 262241.1869999884,
      "d": 59.26719791669166,
      "v": 82
    },
    {
      "midi": 51,
      "hit": false,
      "t": 262305.84212498844,
      "d": 59.26719791669166,
      "v": 82
    },
    {
      "midi": 78,
      "hit": false,
      "t": 262370.49724998686,
      "d": 123.92232291668188,
      "v": 75
    },
    {
      "midi": 52,
      "hit": false,
      "t": 262370.4972499885,
      "d": 59.26719791669166,
      "v": 82
    },
    {
      "midi": 51,
      "hit": false,
      "t": 262435.15237498854,
      "d": 59.26719791669166,
      "v": 82
    },
    {
      "midi": 72,
      "hit": false,
      "t": 262499.8074999869,
      "d": 123.92232291668188,
      "v": 75
    },
    {
      "midi": 52,
      "hit": false,
      "t": 262499.8074999886,
      "d": 59.26719791669166,
      "v": 82
    },
    {
      "midi": 51,
      "hit": false,
      "t": 262564.46262498864,
      "d": 59.26719791669166,
      "v": 82
    },
    {
      "midi": 69,
      "hit": false,
      "t": 262629.11774998694,
      "d": 123.92232291668188,
      "v": 75
    },
    {
      "midi": 49,
      "hit": false,
      "t": 262629.1177499887,
      "d": 59.26719791669166,
      "v": 82
    },
    {
      "midi": 51,
      "hit": false,
      "t": 262693.77287498873,
      "d": 59.26719791669166,
      "v": 82
    },
    {
      "midi": 68,
      "hit": false,
      "t": 262758.427999987,
      "d": 123.92232291668188,
      "v": 75
    },
    {
      "midi": 52,
      "hit": false,
      "t": 262758.4279999888,
      "d": 511.8530729166814,
      "v": 82
    },
    {
      "midi": 71,
      "hit": false,
      "t": 262887.738249987,
      "d": 123.92232291668188,
      "v": 75
    },
    {
      "midi": 76,
      "hit": false,
      "t": 263017.04849998705,
      "d": 123.92232291668188,
      "v": 75
    },
    {
      "midi": 68,
      "hit": false,
      "t": 263146.3587499871,
      "d": 123.92232291668188,
      "v": 75
    },
    {
      "midi": 69,
      "hit": false,
      "t": 263275.66899998713,
      "d": 123.92232291668188,
      "v": 75
    },
    {
      "midi": 41,
      "hit": false,
      "t": 263275.6689999888,
      "d": 511.8530729166814,
      "v": 82
    },
    {
      "midi": 53,
      "hit": false,
      "t": 263275.6689999888,
      "d": 511.8530729166814,
      "v": 82
    },
    {
      "midi": 71,
      "hit": false,
      "t": 263404.97924998717,
      "d": 123.92232291668188,
      "v": 75
    },
    {
      "midi": 75,
      "hit": false,
      "t": 263534.2894999872,
      "d": 123.92232291668188,
      "v": 75
    },
    {
      "midi": 69,
      "hit": false,
      "t": 263663.59974998725,
      "d": 123.92232291668188,
      "v": 75
    },
    {
      "midi": 68,
      "hit": false,
      "t": 263792.9099999873,
      "d": 123.92232291668188,
      "v": 75
    },
    {
      "midi": 40,
      "hit": false,
      "t": 263792.90999998886,
      "d": 511.8530729166814,
      "v": 82
    },
    {
      "midi": 52,
      "hit": false,
      "t": 263792.90999998886,
      "d": 511.8530729166814,
      "v": 82
    },
    {
      "midi": 71,
      "hit": false,
      "t": 263922.2202499873,
      "d": 123.92232291668188,
      "v": 75
    },
    {
      "midi": 76,
      "hit": false,
      "t": 264051.53049998736,
      "d": 123.92232291668188,
      "v": 75
    },
    {
      "midi": 68,
      "hit": false,
      "t": 264180.8407499874,
      "d": 123.92232291668188,
      "v": 75
    },
    {
      "midi": 69,
      "hit": false,
      "t": 264310.15099998744,
      "d": 123.92232291668188,
      "v": 75
    },
    {
      "midi": 41,
      "hit": false,
      "t": 264310.1509999889,
      "d": 511.8530729166814,
      "v": 82
    },
    {
      "midi": 53,
      "hit": false,
      "t": 264310.1509999889,
      "d": 511.8530729166814,
      "v": 82
    },
    {
      "midi": 71,
      "hit": false,
      "t": 264439.4612499875,
      "d": 123.92232291668188,
      "v": 75
    },
    {
      "midi": 75,
      "hit": false,
      "t": 264568.7714999875,
      "d": 123.92232291668188,
      "v": 75
    },
    {
      "midi": 69,
      "hit": false,
      "t": 264698.08174998756,
      "d": 123.92232291668188,
      "v": 75
    },
    {
      "midi": 68,
      "hit": false,
      "t": 264827.3919999876,
      "d": 253.23257291666232,
      "v": 75
    },
    {
      "midi": 71,
      "hit": false,
      "t": 264827.3919999876,
      "d": 253.23257291666232,
      "v": 75
    },
    {
      "midi": 76,
      "hit": false,
      "t": 264827.3919999876,
      "d": 253.23257291666232,
      "v": 75
    },
    {
      "midi": 40,
      "hit": false,
      "t": 264827.39199998893,
      "d": 511.8530729166814,
      "v": 82
    },
    {
      "midi": 52,
      "hit": false,
      "t": 264827.39199998893,
      "d": 511.8530729166814,
      "v": 82
    },
    {
      "midi": 64,
      "hit": false,
      "t": 265086.0124999876,
      "d": 123.92232291668188,
      "v": 60
    },
    {
      "midi": 63,
      "hit": false,
      "t": 265215.32274998765,
      "d": 123.92232291668188,
      "v": 60
    },
    {
      "midi": 64,
      "hit": false,
      "t": 265344.6329999877,
      "d": 123.92232291668188,
      "v": 60
    },
    {
      "midi": 65,
      "hit": false,
      "t": 265473.94324998773,
      "d": 123.92232291668188,
      "v": 60
    },
    {
      "midi": 66,
      "hit": false,
      "t": 265603.25349998777,
      "d": 123.92232291668188,
      "v": 60
    },
    {
      "midi": 67,
      "hit": false,
      "t": 265732.5637499878,
      "d": 123.92232291668188,
      "v": 60
    },
    {
      "midi": 68,
      "hit": false,
      "t": 265861.87399998785,
      "d": 123.92232291668188,
      "v": 60
    },
    {
      "midi": 69,
      "hit": false,
      "t": 265991.1842499879,
      "d": 123.92232291668188,
      "v": 60
    },
    {
      "midi": 70,
      "hit": false,
      "t": 266120.4944999879,
      "d": 123.92232291668188,
      "v": 60
    },
    {
      "midi": 71,
      "hit": false,
      "t": 266249.80474998796,
      "d": 123.92232291668188,
      "v": 60
    },
    {
      "midi": 72,
      "hit": false,
      "t": 266379.114999988,
      "d": 123.92232291668188,
      "v": 60
    },
    {
      "midi": 73,
      "hit": false,
      "t": 266508.42524998804,
      "d": 123.92232291668188,
      "v": 60
    },
    {
      "midi": 74,
      "hit": false,
      "t": 266637.7354999881,
      "d": 123.92232291668188,
      "v": 60
    },
    {
      "midi": 75,
      "hit": false,
      "t": 266767.0457499881,
      "d": 123.92232291668188,
      "v": 60
    },
    {
      "midi": 75,
      "hit": false,
      "t": 266896.35599998815,
      "d": 59.26719791669166,
      "v": 90
    },
    {
      "midi": 57,
      "hit": false,
      "t": 266896.35599998897,
      "d": 253.23257291666232,
      "v": 82
    },
    {
      "midi": 60,
      "hit": false,
      "t": 266896.35599998897,
      "d": 253.23257291666232,
      "v": 82
    },
    {
      "midi": 64,
      "hit": false,
      "t": 266896.35599998897,
      "d": 253.23257291666232,
      "v": 82
    },
    {
      "midi": 57,
      "hit": false,
      "t": 267154.976499989,
      "d": 253.23257291666232,
      "v": 82
    },
    {
      "midi": 60,
      "hit": false,
      "t": 267154.976499989,
      "d": 253.23257291666232,
      "v": 82
    },
    {
      "midi": 64,
      "hit": false,
      "t": 267154.976499989,
      "d": 253.23257291666232,
      "v": 82
    },
    {
      "midi": 76,
      "hit": false,
      "t": 267413.5969999882,
      "d": 59.26719791669166,
      "v": 90
    },
    {
      "midi": 57,
      "hit": false,
      "t": 267413.596999989,
      "d": 253.23257291666232,
      "v": 82
    },
    {
      "midi": 60,
      "hit": false,
      "t": 267413.596999989,
      "d": 253.23257291666232,
      "v": 82
    },
    {
      "midi": 64,
      "hit": false,
      "t": 267413.596999989,
      "d": 253.23257291666232,
      "v": 82
    },
    {
      "midi": 57,
      "hit": false,
      "t": 267672.217499989,
      "d": 253.23257291666232,
      "v": 82
    },
    {
      "midi": 60,
      "hit": false,
      "t": 267672.217499989,
      "d": 253.23257291666232,
      "v": 82
    },
    {
      "midi": 64,
      "hit": false,
      "t": 267672.217499989,
      "d": 253.23257291666232,
      "v": 82
    },
    {
      "midi": 76,
      "hit": false,
      "t": 267801.5277499882,
      "d": 123.92232291668188,
      "v": 90
    },
    {
      "midi": 76,
      "hit": false,
      "t": 267930.83799998823,
      "d": 511.8530729166814,
      "v": 90
    },
    {
      "midi": 57,
      "hit": false,
      "t": 267930.83799998905,
      "d": 253.23257291666232,
      "v": 82
    },
    {
      "midi": 60,
      "hit": false,
      "t": 267930.83799998905,
      "d": 253.23257291666232,
      "v": 82
    },
    {
      "midi": 64,
      "hit": false,
      "t": 267930.83799998905,
      "d": 253.23257291666232,
      "v": 82
    },
    {
      "midi": 57,
      "hit": false,
      "t": 268189.45849998906,
      "d": 253.23257291666232,
      "v": 82
    },
    {
      "midi": 60,
      "hit": false,
      "t": 268189.45849998906,
      "d": 253.23257291666232,
      "v": 82
    },
    {
      "midi": 64,
      "hit": false,
      "t": 268189.45849998906,
      "d": 253.23257291666232,
      "v": 82
    },
    {
      "midi": 72,
      "hit": false,
      "t": 268448.07899998827,
      "d": 382.54282291664276,
      "v": 90
    },
    {
      "midi": 57,
      "hit": false,
      "t": 268448.0789999891,
      "d": 253.23257291666232,
      "v": 82
    },
    {
      "midi": 60,
      "hit": false,
      "t": 268448.0789999891,
      "d": 253.23257291666232,
      "v": 82
    },
    {
      "midi": 64,
      "hit": false,
      "t": 268448.0789999891,
      "d": 253.23257291666232,
      "v": 82
    },
    {
      "midi": 57,
      "hit": false,
      "t": 268706.6994999891,
      "d": 253.23257291666232,
      "v": 82
    },
    {
      "midi": 60,
      "hit": false,
      "t": 268706.6994999891,
      "d": 253.23257291666232,
      "v": 82
    },
    {
      "midi": 64,
      "hit": false,
      "t": 268706.6994999891,
      "d": 253.23257291666232,
      "v": 82
    },
    {
      "midi": 69,
      "hit": false,
      "t": 268836.00974998827,
      "d": 123.92232291668188,
      "v": 90
    },
    {
      "midi": 69,
      "hit": false,
      "t": 268965.3199999883,
      "d": 253.23257291666232,
      "v": 82
    },
    {
      "midi": 57,
      "hit": false,
      "t": 268965.3199999891,
      "d": 253.23257291666232,
      "v": 81
    },
    {
      "midi": 59,
      "hit": false,
      "t": 268965.3199999891,
      "d": 253.23257291666232,
      "v": 81
    },
    {
      "midi": 64,
      "hit": false,
      "t": 268965.3199999891,
      "d": 253.23257291666232,
      "v": 81
    },
    {
      "midi": 62,
      "hit": false,
      "t": 269202.3887916558,
      "d": 16.163781250012107,
      "v": 81
    },
    {
      "midi": 68,
      "hit": false,
      "t": 269223.9404999883,
      "d": 253.23257291666232,
      "v": 82
    },
    {
      "midi": 57,
      "hit": false,
      "t": 269223.94049998914,
      "d": 253.23257291666232,
      "v": 81
    },
    {
      "midi": 59,
      "hit": false,
      "t": 269223.94049998914,
      "d": 253.23257291666232,
      "v": 81
    },
    {
      "midi": 64,
      "hit": false,
      "t": 269223.94049998914,
      "d": 253.23257291666232,
      "v": 81
    },
    {
      "midi": 68,
      "hit": false,
      "t": 269482.56099998835,
      "d": 1029.0940729166614,
      "v": 82
    },
    {
      "midi": 57,
      "hit": false,
      "t": 269482.56099998916,
      "d": 253.23257291666232,
      "v": 81
    },
    {
      "midi": 59,
      "hit": false,
      "t": 269482.56099998916,
      "d": 253.23257291666232,
      "v": 81
    },
    {
      "midi": 62,
      "hit": false,
      "t": 269482.56099998916,
      "d": 253.23257291666232,
      "v": 81
    },
    {
      "midi": 64,
      "hit": false,
      "t": 269482.56099998916,
      "d": 253.23257291666232,
      "v": 81
    },
    {
      "midi": 57,
      "hit": false,
      "t": 269741.1814999892,
      "d": 253.23257291666232,
      "v": 81
    },
    {
      "midi": 59,
      "hit": false,
      "t": 269741.1814999892,
      "d": 253.23257291666232,
      "v": 81
    },
    {
      "midi": 62,
      "hit": false,
      "t": 269741.1814999892,
      "d": 253.23257291666232,
      "v": 81
    },
    {
      "midi": 64,
      "hit": false,
      "t": 269741.1814999892,
      "d": 253.23257291666232,
      "v": 81
    },
    {
      "midi": 57,
      "hit": false,
      "t": 269999.8019999892,
      "d": 253.23257291666232,
      "v": 81
    },
    {
      "midi": 59,
      "hit": false,
      "t": 269999.8019999892,
      "d": 253.23257291666232,
      "v": 81
    },
    {
      "midi": 62,
      "hit": false,
      "t": 269999.8019999892,
      "d": 253.23257291666232,
      "v": 81
    },
    {
      "midi": 64,
      "hit": false,
      "t": 269999.8019999892,
      "d": 253.23257291666232,
      "v": 81
    },
    {
      "midi": 57,
      "hit": false,
      "t": 270258.4224999892,
      "d": 253.23257291666232,
      "v": 81
    },
    {
      "midi": 59,
      "hit": false,
      "t": 270258.4224999892,
      "d": 253.23257291666232,
      "v": 81
    },
    {
      "midi": 62,
      "hit": false,
      "t": 270258.4224999892,
      "d": 253.23257291666232,
      "v": 81
    },
    {
      "midi": 64,
      "hit": false,
      "t": 270258.4224999892,
      "d": 253.23257291666232,
      "v": 81
    },
    {
      "midi": 74,
      "hit": false,
      "t": 270517.04299998836,
      "d": 382.54282291664276,
      "v": 82
    },
    {
      "midi": 62,
      "hit": false,
      "t": 270517.04299998924,
      "d": 253.23257291666232,
      "v": 81
    },
    {
      "midi": 64,
      "hit": false,
      "t": 270517.04299998924,
      "d": 253.23257291666232,
      "v": 81
    },
    {
      "midi": 57,
      "hit": false,
      "t": 270775.66349998926,
      "d": 16.163781250012107,
      "v": 81
    },
    {
      "midi": 59,
      "hit": false,
      "t": 270775.66349998926,
      "d": 16.163781250012107,
      "v": 81
    },
    {
      "midi": 62,
      "hit": false,
      "t": 270775.66349998926,
      "d": 253.23257291666232,
      "v": 81
    },
    {
      "midi": 64,
      "hit": false,
      "t": 270775.66349998926,
      "d": 253.23257291666232,
      "v": 81
    },
    {
      "midi": 71,
      "hit": false,
      "t": 270904.97374998836,
      "d": 123.92232291668188,
      "v": 82
    },
    {
      "midi": 76,
      "hit": false,
      "t": 271034.2839999884,
      "d": 511.8530729166814,
      "v": 75
    },
    {
      "midi": 57,
      "hit": false,
      "t": 271034.2839999893,
      "d": 253.23257291666232,
      "v": 76
    },
    {
      "midi": 60,
      "hit": false,
      "t": 271034.2839999893,
      "d": 253.23257291666232,
      "v": 76
    },
    {
      "midi": 64,
      "hit": false,
      "t": 271034.2839999893,
      "d": 253.23257291666232,
      "v": 76
    },
    {
      "midi": 57,
      "hit": false,
      "t": 271292.9044999893,
      "d": 253.23257291666232,
      "v": 76
    },
    {
      "midi": 60,
      "hit": false,
      "t": 271292.9044999893,
      "d": 253.23257291666232,
      "v": 76
    },
    {
      "midi": 64,
      "hit": false,
      "t": 271292.9044999893,
      "d": 253.23257291666232,
      "v": 76
    },
    {
      "midi": 76,
      "hit": false,
      "t": 271551.52499998844,
      "d": 382.54282291664276,
      "v": 75
    },
    {
      "midi": 57,
      "hit": false,
      "t": 271551.5249999893,
      "d": 253.23257291666232,
      "v": 76
    },
    {
      "midi": 60,
      "hit": false,
      "t": 271551.5249999893,
      "d": 253.23257291666232,
      "v": 76
    },
    {
      "midi": 64,
      "hit": false,
      "t": 271551.5249999893,
      "d": 253.23257291666232,
      "v": 76
    },
    {
      "midi": 57,
      "hit": false,
      "t": 271810.14549998933,
      "d": 253.23257291666232,
      "v": 76
    },
    {
      "midi": 60,
      "hit": false,
      "t": 271810.14549998933,
      "d": 253.23257291666232,
      "v": 76
    },
    {
      "midi": 64,
      "hit": false,
      "t": 271810.14549998933,
      "d": 253.23257291666232,
      "v": 76
    },
    {
      "midi": 76,
      "hit": false,
      "t": 271939.45574998844,
      "d": 123.92232291668188,
      "v": 75
    },
    {
      "midi": 76,
      "hit": false,
      "t": 272068.7659999885,
      "d": 253.23257291666232,
      "v": 75
    },
    {
      "midi": 57,
      "hit": false,
      "t": 272068.76599998935,
      "d": 253.23257291666232,
      "v": 76
    },
    {
      "midi": 60,
      "hit": false,
      "t": 272068.76599998935,
      "d": 253.23257291666232,
      "v": 76
    },
    {
      "midi": 64,
      "hit": false,
      "t": 272068.76599998935,
      "d": 253.23257291666232,
      "v": 76
    },
    {
      "midi": 77,
      "hit": false,
      "t": 272327.3864999885,
      "d": 123.92232291668188,
      "v": 75
    },
    {
      "midi": 57,
      "hit": false,
      "t": 272327.38649998937,
      "d": 253.23257291666232,
      "v": 76
    },
    {
      "midi": 60,
      "hit": false,
      "t": 272327.38649998937,
      "d": 253.23257291666232,
      "v": 76
    },
    {
      "midi": 64,
      "hit": false,
      "t": 272327.38649998937,
      "d": 253.23257291666232,
      "v": 76
    },
    {
      "midi": 76,
      "hit": false,
      "t": 272456.69674998854,
      "d": 123.92232291668188,
      "v": 75
    },
    {
      "midi": 74,
      "hit": false,
      "t": 272586.0069999886,
      "d": 123.92232291668188,
      "v": 75
    },
    {
      "midi": 57,
      "hit": false,
      "t": 272586.0069999894,
      "d": 253.23257291666232,
      "v": 76
    },
    {
      "midi": 60,
      "hit": false,
      "t": 272586.0069999894,
      "d": 253.23257291666232,
      "v": 76
    },
    {
      "midi": 64,
      "hit": false,
      "t": 272586.0069999894,
      "d": 253.23257291666232,
      "v": 76
    },
    {
      "midi": 72,
      "hit": false,
      "t": 272715.3172499886,
      "d": 123.92232291668188,
      "v": 75
    },
    {
      "midi": 71,
      "hit": false,
      "t": 272844.62749998865,
      "d": 123.92232291668188,
      "v": 75
    },
    {
      "midi": 57,
      "hit": false,
      "t": 272844.6274999894,
      "d": 253.23257291666232,
      "v": 76
    },
    {
      "midi": 60,
      "hit": false,
      "t": 272844.6274999894,
      "d": 253.23257291666232,
      "v": 76
    },
    {
      "midi": 64,
      "hit": false,
      "t": 272844.6274999894,
      "d": 253.23257291666232,
      "v": 76
    },
    {
      "midi": 69,
      "hit": false,
      "t": 272973.9377499887,
      "d": 123.92232291668188,
      "v": 75
    },
    {
      "midi": 69,
      "hit": false,
      "t": 273103.24799998873,
      "d": 253.23257291666232,
      "v": 75
    },
    {
      "midi": 57,
      "hit": false,
      "t": 273103.2479999894,
      "d": 253.23257291666232,
      "v": 76
    },
    {
      "midi": 59,
      "hit": false,
      "t": 273103.2479999894,
      "d": 253.23257291666232,
      "v": 76
    },
    {
      "midi": 62,
      "hit": false,
      "t": 273103.2479999894,
      "d": 253.23257291666232,
      "v": 76
    },
    {
      "midi": 64,
      "hit": false,
      "t": 273103.2479999894,
      "d": 253.23257291666232,
      "v": 76
    },
    {
      "midi": 68,
      "hit": false,
      "t": 273361.86849998875,
      "d": 253.23257291666232,
      "v": 75
    },
    {
      "midi": 57,
      "hit": false,
      "t": 273361.86849998945,
      "d": 253.23257291666232,
      "v": 76
    },
    {
      "midi": 59,
      "hit": false,
      "t": 273361.86849998945,
      "d": 253.23257291666232,
      "v": 76
    },
    {
      "midi": 62,
      "hit": false,
      "t": 273361.86849998945,
      "d": 253.23257291666232,
      "v": 76
    },
    {
      "midi": 64,
      "hit": false,
      "t": 273361.86849998945,
      "d": 253.23257291666232,
      "v": 76
    },
    {
      "midi": 68,
      "hit": false,
      "t": 273620.48899998877,
      "d": 1029.0940729166614,
      "v": 75
    },
    {
      "midi": 57,
      "hit": false,
      "t": 273620.48899998947,
      "d": 253.23257291666232,
      "v": 76
    },
    {
      "midi": 59,
      "hit": false,
      "t": 273620.48899998947,
      "d": 253.23257291666232,
      "v": 76
    },
    {
      "midi": 62,
      "hit": false,
      "t": 273620.48899998947,
      "d": 253.23257291666232,
      "v": 76
    },
    {
      "midi": 64,
      "hit": false,
      "t": 273620.48899998947,
      "d": 253.23257291666232,
      "v": 76
    },
    {
      "midi": 57,
      "hit": false,
      "t": 273879.1094999895,
      "d": 253.23257291666232,
      "v": 76
    },
    {
      "midi": 59,
      "hit": false,
      "t": 273879.1094999895,
      "d": 253.23257291666232,
      "v": 76
    },
    {
      "midi": 62,
      "hit": false,
      "t": 273879.1094999895,
      "d": 253.23257291666232,
      "v": 76
    },
    {
      "midi": 64,
      "hit": false,
      "t": 273879.1094999895,
      "d": 253.23257291666232,
      "v": 76
    },
    {
      "midi": 57,
      "hit": false,
      "t": 274137.7299999895,
      "d": 253.23257291666232,
      "v": 76
    },
    {
      "midi": 59,
      "hit": false,
      "t": 274137.7299999895,
      "d": 253.23257291666232,
      "v": 76
    },
    {
      "midi": 62,
      "hit": false,
      "t": 274137.7299999895,
      "d": 253.23257291666232,
      "v": 76
    },
    {
      "midi": 64,
      "hit": false,
      "t": 274137.7299999895,
      "d": 253.23257291666232,
      "v": 76
    },
    {
      "midi": 57,
      "hit": false,
      "t": 274396.3504999895,
      "d": 253.23257291666232,
      "v": 76
    },
    {
      "midi": 59,
      "hit": false,
      "t": 274396.3504999895,
      "d": 253.23257291666232,
      "v": 76
    },
    {
      "midi": 62,
      "hit": false,
      "t": 274396.3504999895,
      "d": 253.23257291666232,
      "v": 76
    },
    {
      "midi": 64,
      "hit": false,
      "t": 274396.3504999895,
      "d": 253.23257291666232,
      "v": 76
    },
    {
      "midi": 74,
      "hit": false,
      "t": 274654.9709999888,
      "d": 382.54282291664276,
      "v": 75
    },
    {
      "midi": 57,
      "hit": false,
      "t": 274654.97099998954,
      "d": 253.23257291666232,
      "v": 76
    },
    {
      "midi": 59,
      "hit": false,
      "t": 274654.97099998954,
      "d": 253.23257291666232,
      "v": 76
    },
    {
      "midi": 62,
      "hit": false,
      "t": 274654.97099998954,
      "d": 253.23257291666232,
      "v": 76
    },
    {
      "midi": 64,
      "hit": false,
      "t": 274654.97099998954,
      "d": 253.23257291666232,
      "v": 76
    },
    {
      "midi": 57,
      "hit": false,
      "t": 274913.59149998956,
      "d": 253.23257291666232,
      "v": 76
    },
    {
      "midi": 59,
      "hit": false,
      "t": 274913.59149998956,
      "d": 253.23257291666232,
      "v": 76
    },
    {
      "midi": 62,
      "hit": false,
      "t": 274913.59149998956,
      "d": 253.23257291666232,
      "v": 76
    },
    {
      "midi": 64,
      "hit": false,
      "t": 274913.59149998956,
      "d": 253.23257291666232,
      "v": 76
    },
    {
      "midi": 71,
      "hit": false,
      "t": 275042.9017499888,
      "d": 123.92232291668188,
      "v": 75
    },
    {
      "midi": 72,
      "hit": false,
      "t": 275172.2119999888,
      "d": 382.54282291664276,
      "v": 82
    },
    {
      "midi": 76,
      "hit": false,
      "t": 275172.2119999888,
      "d": 382.54282291664276,
      "v": 82
    },
    {
      "midi": 57,
      "hit": false,
      "t": 275172.2119999896,
      "d": 253.23257291666232,
      "v": 90
    },
    {
      "midi": 60,
      "hit": false,
      "t": 275172.2119999896,
      "d": 253.23257291666232,
      "v": 90
    },
    {
      "midi": 64,
      "hit": false,
      "t": 275172.2119999896,
      "d": 253.23257291666232,
      "v": 90
    },
    {
      "midi": 57,
      "hit": false,
      "t": 275430.8324999896,
      "d": 253.23257291666232,
      "v": 90
    },
    {
      "midi": 69,
      "hit": false,
      "t": 275560.1427499888,
      "d": 123.92232291668188,
      "v": 82
    },
    {
      "midi": 72,
      "hit": false,
      "t": 275560.1427499888,
      "d": 123.92232291668188,
      "v": 82
    },
    {
      "midi": 72,
      "hit": false,
      "t": 275689.45299998886,
      "d": 511.8530729166814,
      "v": 82
    },
    {
      "midi": 76,
      "hit": false,
      "t": 275689.45299998886,
      "d": 511.8530729166814,
      "v": 82
    },
    {
      "midi": 52,
      "hit": false,
      "t": 275689.4529999896,
      "d": 253.23257291666232,
      "v": 90
    },
    {
      "midi": 48,
      "hit": false,
      "t": 275948.07349998964,
      "d": 253.23257291666232,
      "v": 90
    },
    {
      "midi": 45,
      "hit": false,
      "t": 276206.69399998966,
      "d": 253.23257291666232,
      "v": 90
    },
    {
      "midi": 69,
      "hit": false,
      "t": 276465.31449998886,
      "d": 253.23257291666232,
      "v": 60
    },
    {
      "midi": 72,
      "hit": false,
      "t": 276465.31449998886,
      "d": 253.23257291666232,
      "v": 60
    },
    {
      "midi": 71,
      "hit": false,
      "t": 276723.9349999889,
      "d": 253.23257291666232,
      "v": 60
    },
    {
      "midi": 74,
      "hit": false,
      "t": 276723.9349999889,
      "d": 253.23257291666232,
      "v": 60
    },
    {
      "midi": 72,
      "hit": false,
      "t": 276982.5554999889,
      "d": 253.23257291666232,
      "v": 60
    },
    {
      "midi": 76,
      "hit": false,
      "t": 276982.5554999889,
      "d": 253.23257291666232,
      "v": 60
    },
    {
      "midi": 73,
      "hit": false,
      "t": 277241.1759999889,
      "d": 511.8530729166814,
      "v": 90
    },
    {
      "midi": 76,
      "hit": false,
      "t": 277241.1759999889,
      "d": 511.8530729166814,
      "v": 90
    },
    {
      "midi": 74,
      "hit": false,
      "t": 277758.41699998896,
      "d": 253.23257291666232,
      "v": 90
    },
    {
      "midi": 77,
      "hit": false,
      "t": 277758.41699998896,
      "d": 253.23257291666232,
      "v": 90
    },
    {
      "midi": 53,
      "hit": false,
      "t": 277758.41699998965,
      "d": 511.8530729166814,
      "v": 90
    },
    {
      "midi": 57,
      "hit": false,
      "t": 277758.41699998965,
      "d": 511.8530729166814,
      "v": 90
    },
    {
      "midi": 60,
      "hit": false,
      "t": 277758.41699998965,
      "d": 511.8530729166814,
      "v": 90
    },
    {
      "midi": 62,
      "hit": false,
      "t": 277758.41699998965,
      "d": 511.8530729166814,
      "v": 90
    },
    {
      "midi": 55,
      "hit": false,
      "t": 278275.6579999897,
      "d": 253.23257291666232,
      "v": 90
    },
    {
      "midi": 59,
      "hit": false,
      "t": 278275.6579999897,
      "d": 253.23257291666232,
      "v": 90
    },
    {
      "midi": 62,
      "hit": false,
      "t": 278275.6579999897,
      "d": 253.23257291666232,
      "v": 90
    },
    {
      "midi": 67,
      "hit": false,
      "t": 278534.27849998896,
      "d": 253.23257291666232,
      "v": 60
    },
    {
      "midi": 71,
      "hit": false,
      "t": 278534.27849998896,
      "d": 253.23257291666232,
      "v": 60
    },
    {
      "midi": 69,
      "hit": false,
      "t": 278792.898999989,
      "d": 253.23257291666232,
      "v": 60
    },
    {
      "midi": 72,
      "hit": false,
      "t": 278792.898999989,
      "d": 253.23257291666232,
      "v": 60
    },
    {
      "midi": 71,
      "hit": false,
      "t": 279051.519499989,
      "d": 253.23257291666232,
      "v": 60
    },
    {
      "midi": 74,
      "hit": false,
      "t": 279051.519499989,
      "d": 253.23257291666232,
      "v": 60
    },
    {
      "midi": 71,
      "hit": false,
      "t": 279310.139999989,
      "d": 511.8530729166814,
      "v": 90
    },
    {
      "midi": 75,
      "hit": false,
      "t": 279310.139999989,
      "d": 511.8530729166814,
      "v": 90
    },
    {
      "midi": 72,
      "hit": false,
      "t": 279827.38099998905,
      "d": 253.23257291666232,
      "v": 90
    },
    {
      "midi": 76,
      "hit": false,
      "t": 279827.38099998905,
      "d": 253.23257291666232,
      "v": 90
    },
    {
      "midi": 52,
      "hit": false,
      "t": 279827.3809999897,
      "d": 511.8530729166814,
      "v": 90
    },
    {
      "midi": 55,
      "hit": false,
      "t": 279827.3809999897,
      "d": 511.8530729166814,
      "v": 90
    },
    {
      "midi": 59,
      "hit": false,
      "t": 279827.3809999897,
      "d": 511.8530729166814,
      "v": 90
    },
    {
      "midi": 60,
      "hit": false,
      "t": 279827.3809999897,
      "d": 511.8530729166814,
      "v": 90
    },
    {
      "midi": 53,
      "hit": false,
      "t": 280344.62199998973,
      "d": 253.23257291666232,
      "v": 90
    },
    {
      "midi": 57,
      "hit": false,
      "t": 280344.62199998973,
      "d": 253.23257291666232,
      "v": 90
    },
    {
      "midi": 60,
      "hit": false,
      "t": 280344.62199998973,
      "d": 253.23257291666232,
      "v": 90
    },
    {
      "midi": 65,
      "hit": false,
      "t": 280603.24249998905,
      "d": 253.23257291666232,
      "v": 60
    },
    {
      "midi": 69,
      "hit": false,
      "t": 280603.24249998905,
      "d": 253.23257291666232,
      "v": 60
    },
    {
      "midi": 67,
      "hit": false,
      "t": 280861.86299998907,
      "d": 253.23257291666232,
      "v": 60
    },
    {
      "midi": 71,
      "hit": false,
      "t": 280861.86299998907,
      "d": 253.23257291666232,
      "v": 60
    },
    {
      "midi": 69,
      "hit": false,
      "t": 281120.4834999891,
      "d": 253.23257291666232,
      "v": 60
    },
    {
      "midi": 72,
      "hit": false,
      "t": 281120.4834999891,
      "d": 253.23257291666232,
      "v": 60
    },
    {
      "midi": 72,
      "hit": false,
      "t": 281379.1039999891,
      "d": 382.54282291664276,
      "v": 90
    },
    {
      "midi": 71,
      "hit": false,
      "t": 281767.0347499891,
      "d": 123.92232291668188,
      "v": 90
    },
    {
      "midi": 77,
      "hit": false,
      "t": 281896.34499998915,
      "d": 382.54282291664276,
      "v": 90
    },
    {
      "midi": 50,
      "hit": false,
      "t": 281896.3449999897,
      "d": 511.8530729166814,
      "v": 75
    },
    {
      "midi": 53,
      "hit": false,
      "t": 281896.3449999897,
      "d": 511.8530729166814,
      "v": 75
    },
    {
      "midi": 59,
      "hit": false,
      "t": 281896.3449999897,
      "d": 511.8530729166814,
      "v": 75
    },
    {
      "midi": 74,
      "hit": false,
      "t": 282284.27574998914,
      "d": 123.92232291668188,
      "v": 90
    },
    {
      "midi": 72,
      "hit": false,
      "t": 282413.5859999892,
      "d": 382.54282291664276,
      "v": 90
    },
    {
      "midi": 52,
      "hit": false,
      "t": 282413.58599998977,
      "d": 511.8530729166814,
      "v": 90
    },
    {
      "midi": 57,
      "hit": false,
      "t": 282413.58599998977,
      "d": 511.8530729166814,
      "v": 90
    },
    {
      "midi": 60,
      "hit": false,
      "t": 282413.58599998977,
      "d": 511.8530729166814,
      "v": 90
    },
    {
      "midi": 76,
      "hit": false,
      "t": 282801.5167499892,
      "d": 123.92232291668188,
      "v": 90
    },
    {
      "midi": 74,
      "hit": false,
      "t": 282909.27529165585,
      "d": 382.54282291670097,
      "v": 90
    },
    {
      "midi": 52,
      "hit": false,
      "t": 282930.8269999898,
      "d": 511.8530729166814,
      "v": 90
    },
    {
      "midi": 56,
      "hit": false,
      "t": 282930.8269999898,
      "d": 511.8530729166814,
      "v": 90
    },
    {
      "midi": 59,
      "hit": false,
      "t": 282930.8269999898,
      "d": 511.8530729166814,
      "v": 90
    },
    {
      "midi": 71,
      "hit": false,
      "t": 283318.7577499892,
      "d": 123.92232291668188,
      "v": 90
    },
    {
      "midi": 72,
      "hit": false,
      "t": 283448.06799998926,
      "d": 123.92232291668188,
      "v": 90
    },
    {
      "midi": 45,
      "hit": false,
      "t": 283448.06799998984,
      "d": 511.8530729166814,
      "v": 90
    },
    {
      "midi": 57,
      "hit": false,
      "t": 283448.06799998984,
      "d": 511.8530729166814,
      "v": 90
    },
    {
      "midi": 81,
      "hit": false,
      "t": 283577.3782499893,
      "d": 123.92232291668188,
      "v": 90
    },
    {
      "midi": 72,
      "hit": false,
      "t": 283706.68849998934,
      "d": 123.92232291668188,
      "v": 90
    },
    {
      "midi": 81,
      "hit": false,
      "t": 283835.9987499894,
      "d": 123.92232291668188,
      "v": 90
    },
    {
      "midi": 72,
      "hit": false,
      "t": 283965.3089999894,
      "d": 123.92232291668188,
      "v": 90
    },
    {
      "midi": 57,
      "hit": false,
      "t": 283965.3089999899,
      "d": 382.54282291664276,
      "v": 90
    },
    {
      "midi": 81,
      "hit": false,
      "t": 284094.61924998945,
      "d": 123.92232291668188,
      "v": 90
    },
    {
      "midi": 72,
      "hit": false,
      "t": 284223.9294999895,
      "d": 123.92232291668188,
      "v": 90
    },
    {
      "midi": 81,
      "hit": false,
      "t": 284353.23974998953,
      "d": 123.92232291668188,
      "v": 90
    },
    {
      "midi": 57,
      "hit": false,
      "t": 284353.2397499899,
      "d": 123.92232291668188,
      "v": 90
    },
    {
      "midi": 72,
      "hit": false,
      "t": 284482.54999998957,
      "d": 123.92232291668188,
      "v": 90
    },
    {
      "midi": 57,
      "hit": false,
      "t": 284482.5499999899,
      "d": 511.8530729166814,
      "v": 90
    },
    {
      "midi": 81,
      "hit": false,
      "t": 284611.8602499896,
      "d": 123.92232291668188,
      "v": 90
    },
    {
      "midi": 72,
      "hit": false,
      "t": 284762.72220832296,
      "d": 123.92232291668188,
      "v": 90
    },
    {
      "midi": 81,
      "hit": false,
      "t": 284870.4807499896,
      "d": 123.92232291668188,
      "v": 90
    },
    {
      "midi": 72,
      "hit": false,
      "t": 284999.79099998967,
      "d": 123.92232291668188,
      "v": 90
    },
    {
      "midi": 53,
      "hit": false,
      "t": 284999.79099998996,
      "d": 382.54282291664276,
      "v": 90
    },
    {
      "midi": 81,
      "hit": false,
      "t": 285129.1012499897,
      "d": 123.92232291668188,
      "v": 90
    },
    {
      "midi": 72,
      "hit": false,
      "t": 285258.41149998974,
      "d": 123.92232291668188,
      "v": 90
    },
    {
      "midi": 81,
      "hit": false,
      "t": 285387.7217499898,
      "d": 123.92232291668188,
      "v": 90
    },
    {
      "midi": 51,
      "hit": false,
      "t": 285387.72174998996,
      "d": 123.92232291668188,
      "v": 90
    },
    {
      "midi": 71,
      "hit": false,
      "t": 285517.0319999898,
      "d": 123.92232291668188,
      "v": 75
    },
    {
      "midi": 53,
      "hit": false,
      "t": 285517.03199999,
      "d": 253.23257291666232,
      "v": 75
    },
    {
      "midi": 81,
      "hit": false,
      "t": 285646.34224998986,
      "d": 123.92232291668188,
      "v": 75
    },
    {
      "midi": 71,
      "hit": false,
      "t": 285775.6524999899,
      "d": 123.92232291668188,
      "v": 75
    },
    {
      "midi": 52,
      "hit": false,
      "t": 285775.65249999,
      "d": 253.23257291666232,
      "v": 75
    },
    {
      "midi": 62,
      "hit": false,
      "t": 285904.96274998994,
      "d": 123.92232291668188,
      "v": 75
    },
    {
      "midi": 81,
      "hit": false,
      "t": 285904.96274998994,
      "d": 123.92232291668188,
      "v": 75
    },
    {
      "midi": 71,
      "hit": false,
      "t": 286034.27299999,
      "d": 123.92232291668188,
      "v": 75
    },
    {
      "midi": 52,
      "hit": false,
      "t": 286034.27299999003,
      "d": 1029.0940729166614,
      "v": 75
    },
    {
      "midi": 81,
      "hit": false,
      "t": 286163.58324999,
      "d": 123.92232291668188,
      "v": 75
    },
    {
      "midi": 71,
      "hit": false,
      "t": 286292.89349999005,
      "d": 123.92232291668188,
      "v": 75
    },
    {
      "midi": 81,
      "hit": false,
      "t": 286422.2037499901,
      "d": 123.92232291668188,
      "v": 75
    },
    {
      "midi": 71,
      "hit": false,
      "t": 286551.51399999013,
      "d": 123.92232291668188,
      "v": 75
    },
    {
      "midi": 79,
      "hit": false,
      "t": 286659.2725416568,
      "d": 123.92232291668188,
      "v": 75
    },
    {
      "midi": 71,
      "hit": false,
      "t": 286810.13449999015,
      "d": 123.92232291668188,
      "v": 75
    },
    {
      "midi": 79,
      "hit": false,
      "t": 286939.4447499902,
      "d": 123.92232291668188,
      "v": 75
    },
    {
      "midi": 55,
      "hit": false,
      "t": 287068.75499999005,
      "d": 382.54282291664276,
      "v": 75
    },
    {
      "midi": 70,
      "hit": false,
      "t": 287090.30670832354,
      "d": 123.92232291668188,
      "v": 75
    },
    {
      "midi": 79,
      "hit": false,
      "t": 287198.0652499902,
      "d": 123.92232291668188,
      "v": 75
    },
    {
      "midi": 70,
      "hit": false,
      "t": 287327.37549999024,
      "d": 123.92232291668188,
      "v": 75
    },
    {
      "midi": 52,
      "hit": false,
      "t": 287456.68574999005,
      "d": 123.92232291668188,
      "v": 75
    },
    {
      "midi": 79,
      "hit": false,
      "t": 287456.6857499903,
      "d": 123.92232291668188,
      "v": 75
    },
    {
      "midi": 53,
      "hit": false,
      "t": 287585.9959999901,
      "d": 511.8530729166814,
      "v": 75
    },
    {
      "midi": 69,
      "hit": false,
      "t": 287585.9959999903,
      "d": 123.92232291668188,
      "v": 75
    },
    {
      "midi": 79,
      "hit": false,
      "t": 287715.30624999036,
      "d": 123.92232291668188,
      "v": 75
    },
    {
      "midi": 69,
      "hit": false,
      "t": 287844.6164999904,
      "d": 123.92232291668188,
      "v": 75
    },
    {
      "midi": 79,
      "hit": false,
      "t": 287973.92674999044,
      "d": 123.92232291668188,
      "v": 75
    },
    {
      "midi": 53,
      "hit": false,
      "t": 288103.2369999901,
      "d": 382.54282291664276,
      "v": 75
    },
    {
      "midi": 69,
      "hit": false,
      "t": 288103.2369999905,
      "d": 123.92232291668188,
      "v": 75
    },
    {
      "midi": 79,
      "hit": false,
      "t": 288232.5472499905,
      "d": 123.92232291668188,
      "v": 75
    },
    {
      "midi": 69,
      "hit": false,
      "t": 288361.85749999055,
      "d": 123.92232291668188,
      "v": 75
    },
    {
      "midi": 53,
      "hit": false,
      "t": 288491.1677499901,
      "d": 123.92232291668188,
      "v": 75
    },
    {
      "midi": 79,
      "hit": false,
      "t": 288491.1677499906,
      "d": 123.92232291668188,
      "v": 75
    },
    {
      "midi": 53,
      "hit": false,
      "t": 288620.47799999017,
      "d": 253.23257291666232,
      "v": 75
    },
    {
      "midi": 69,
      "hit": false,
      "t": 288620.47799999063,
      "d": 123.92232291668188,
      "v": 75
    },
    {
      "midi": 77,
      "hit": false,
      "t": 288749.78824999067,
      "d": 123.92232291668188,
      "v": 75
    },
    {
      "midi": 55,
      "hit": false,
      "t": 288879.0984999902,
      "d": 123.92232291668188,
      "v": 75
    },
    {
      "midi": 69,
      "hit": false,
      "t": 288879.0984999907,
      "d": 123.92232291668188,
      "v": 75
    },
    {
      "midi": 53,
      "hit": false,
      "t": 289008.4087499902,
      "d": 123.92232291668188,
      "v": 75
    },
    {
      "midi": 77,
      "hit": false,
      "t": 289008.40874999075,
      "d": 123.92232291668188,
      "v": 75
    },
    {
      "midi": 52,
      "hit": false,
      "t": 289137.71899999026,
      "d": 123.92232291668188,
      "v": 75
    },
    {
      "midi": 69,
      "hit": false,
      "t": 289137.7189999908,
      "d": 123.92232291668188,
      "v": 75
    },
    {
      "midi": 50,
      "hit": false,
      "t": 289267.0292499903,
      "d": 123.92232291668188,
      "v": 75
    },
    {
      "midi": 77,
      "hit": false,
      "t": 289267.0292499908,
      "d": 123.92232291668188,
      "v": 75
    },
    {
      "midi": 48,
      "hit": false,
      "t": 289396.33949999034,
      "d": 123.92232291668188,
      "v": 75
    },
    {
      "midi": 69,
      "hit": false,
      "t": 289396.33949999086,
      "d": 123.92232291668188,
      "v": 75
    },
    {
      "midi": 47,
      "hit": false,
      "t": 289525.6497499904,
      "d": 123.92232291668188,
      "v": 75
    },
    {
      "midi": 77,
      "hit": false,
      "t": 289525.6497499909,
      "d": 123.92232291668188,
      "v": 75
    },
    {
      "midi": 50,
      "hit": false,
      "t": 289654.9599999904,
      "d": 253.23257291666232,
      "v": 75
    },
    {
      "midi": 67,
      "hit": false,
      "t": 289654.95999999094,
      "d": 123.92232291668188,
      "v": 75
    },
    {
      "midi": 77,
      "hit": false,
      "t": 289784.270249991,
      "d": 123.92232291668188,
      "v": 75
    },
    {
      "midi": 48,
      "hit": false,
      "t": 289913.58049999044,
      "d": 253.23257291666232,
      "v": 75
    },
    {
      "midi": 67,
      "hit": false,
      "t": 289913.580499991,
      "d": 123.92232291668188,
      "v": 75
    },
    {
      "midi": 77,
      "hit": false,
      "t": 290042.89074999106,
      "d": 123.92232291668188,
      "v": 75
    },
    {
      "midi": 67,
      "hit": false,
      "t": 290172.2009999911,
      "d": 123.92232291668188,
      "v": 75
    },
    {
      "midi": 77,
      "hit": false,
      "t": 290301.51124999113,
      "d": 123.92232291668188,
      "v": 75
    },
    {
      "midi": 67,
      "hit": false,
      "t": 290430.8214999912,
      "d": 123.92232291668188,
      "v": 75
    },
    {
      "midi": 77,
      "hit": false,
      "t": 290560.1317499912,
      "d": 123.92232291668188,
      "v": 75
    },
    {
      "midi": 48,
      "hit": false,
      "t": 290667.8902916571,
      "d": 16.163781250012107,
      "v": 75
    },
    {
      "midi": 67,
      "hit": false,
      "t": 290689.44199999125,
      "d": 123.92232291668188,
      "v": 75
    },
    {
      "midi": 76,
      "hit": false,
      "t": 290818.7522499913,
      "d": 123.92232291668188,
      "v": 75
    },
    {
      "midi": 67,
      "hit": false,
      "t": 290948.0624999913,
      "d": 123.92232291668188,
      "v": 75
    },
    {
      "midi": 55,
      "hit": false,
      "t": 291077.3727499905,
      "d": 123.92232291668188,
      "v": 75
    },
    {
      "midi": 76,
      "hit": false,
      "t": 291077.37274999137,
      "d": 123.92232291668188,
      "v": 75
    },
    {
      "midi": 52,
      "hit": false,
      "t": 291206.68299999053,
      "d": 382.54282291664276,
      "v": 75
    },
    {
      "midi": 67,
      "hit": false,
      "t": 291206.6829999914,
      "d": 123.92232291668188,
      "v": 75
    },
    {
      "midi": 76,
      "hit": false,
      "t": 291335.99324999144,
      "d": 123.92232291668188,
      "v": 75
    },
    {
      "midi": 67,
      "hit": false,
      "t": 291465.3034999915,
      "d": 123.92232291668188,
      "v": 75
    },
    {
      "midi": 49,
      "hit": false,
      "t": 291594.61374999053,
      "d": 123.92232291668188,
      "v": 75
    },
    {
      "midi": 76,
      "hit": false,
      "t": 291594.6137499915,
      "d": 123.92232291668188,
      "v": 75
    },
    {
      "midi": 52,
      "hit": false,
      "t": 291723.92399999057,
      "d": 253.23257291666232,
      "v": 75
    },
    {
      "midi": 65,
      "hit": false,
      "t": 291723.92399999156,
      "d": 123.92232291668188,
      "v": 75
    },
    {
      "midi": 76,
      "hit": false,
      "t": 291874.7859583249,
      "d": 123.92232291668188,
      "v": 75
    },
    {
      "midi": 65,
      "hit": false,
      "t": 291960.99279165827,
      "d": 123.92232291668188,
      "v": 75
    },
    {
      "midi": 50,
      "hit": false,
      "t": 291982.5444999906,
      "d": 253.23257291666232,
      "v": 75
    },
    {
      "midi": 76,
      "hit": false,
      "t": 292111.8547499916,
      "d": 123.92232291668188,
      "v": 75
    },
    {
      "midi": 50,
      "hit": false,
      "t": 292241.1649999906,
      "d": 253.23257291666232,
      "v": 75
    },
    {
      "midi": 65,
      "hit": false,
      "t": 292241.16499999166,
      "d": 123.92232291668188,
      "v": 75
    },
    {
      "midi": 76,
      "hit": false,
      "t": 292370.4752499917,
      "d": 123.92232291668188,
      "v": 75
    },
    {
      "midi": 50,
      "hit": false,
      "t": 292499.7854999906,
      "d": 253.23257291666232,
      "v": 75
    },
    {
      "midi": 65,
      "hit": false,
      "t": 292499.78549999173,
      "d": 123.92232291668188,
      "v": 75
    },
    {
      "midi": 76,
      "hit": false,
      "t": 292629.0957499918,
      "d": 123.92232291668188,
      "v": 75
    },
    {
      "midi": 50,
      "hit": false,
      "t": 292758.40599999065,
      "d": 253.23257291666232,
      "v": 75
    },
    {
      "midi": 65,
      "hit": false,
      "t": 292758.4059999918,
      "d": 123.92232291668188,
      "v": 75
    },
    {
      "midi": 74,
      "hit": false,
      "t": 292887.71624999185,
      "d": 123.92232291668188,
      "v": 75
    },
    {
      "midi": 52,
      "hit": false,
      "t": 293017.02649999066,
      "d": 123.92232291668188,
      "v": 75
    },
    {
      "midi": 65,
      "hit": false,
      "t": 293017.0264999919,
      "d": 123.92232291668188,
      "v": 75
    },
    {
      "midi": 50,
      "hit": false,
      "t": 293146.3367499907,
      "d": 123.92232291668188,
      "v": 75
    },
    {
      "midi": 74,
      "hit": false,
      "t": 293146.3367499919,
      "d": 123.92232291668188,
      "v": 75
    },
    {
      "midi": 65,
      "hit": false,
      "t": 293275.64699999196,
      "d": 123.92232291668188,
      "v": 75
    },
    {
      "midi": 48,
      "hit": false,
      "t": 293297.19870832405,
      "d": 123.92232291668188,
      "v": 75
    },
    {
      "midi": 47,
      "hit": false,
      "t": 293404.9572499907,
      "d": 123.92232291668188,
      "v": 75
    },
    {
      "midi": 74,
      "hit": false,
      "t": 293404.957249992,
      "d": 123.92232291668188,
      "v": 75
    },
    {
      "midi": 45,
      "hit": false,
      "t": 293534.26749999076,
      "d": 123.92232291668188,
      "v": 75
    },
    {
      "midi": 65,
      "hit": false,
      "t": 293534.26749999204,
      "d": 123.92232291668188,
      "v": 75
    },
    {
      "midi": 44,
      "hit": false,
      "t": 293663.5777499908,
      "d": 123.92232291668188,
      "v": 75
    },
    {
      "midi": 74,
      "hit": false,
      "t": 293663.5777499921,
      "d": 123.92232291668188,
      "v": 75
    },
    {
      "midi": 48,
      "hit": false,
      "t": 293792.88799999084,
      "d": 253.23257291666232,
      "v": 75
    },
    {
      "midi": 64,
      "hit": false,
      "t": 293792.8879999921,
      "d": 123.92232291668188,
      "v": 75
    },
    {
      "midi": 74,
      "hit": false,
      "t": 293922.19824999216,
      "d": 123.92232291668188,
      "v": 75
    },
    {
      "midi": 45,
      "hit": false,
      "t": 294051.50849999086,
      "d": 253.23257291666232,
      "v": 75
    },
    {
      "midi": 64,
      "hit": false,
      "t": 294051.5084999922,
      "d": 123.92232291668188,
      "v": 75
    },
    {
      "midi": 74,
      "hit": false,
      "t": 294180.81874999224,
      "d": 123.92232291668188,
      "v": 75
    },
    {
      "midi": 45,
      "hit": false,
      "t": 294310.1289999909,
      "d": 253.23257291666232,
      "v": 75
    },
    {
      "midi": 64,
      "hit": false,
      "t": 294310.1289999923,
      "d": 123.92232291668188,
      "v": 75
    },
    {
      "midi": 72,
      "hit": false,
      "t": 294439.4392499923,
      "d": 123.92232291668188,
      "v": 75
    },
    {
      "midi": 45,
      "hit": false,
      "t": 294568.7494999909,
      "d": 253.23257291666232,
      "v": 75
    },
    {
      "midi": 64,
      "hit": false,
      "t": 294568.74949999235,
      "d": 123.92232291668188,
      "v": 75
    },
    {
      "midi": 72,
      "hit": false,
      "t": 294698.0597499924,
      "d": 123.92232291668188,
      "v": 75
    },
    {
      "midi": 45,
      "hit": false,
      "t": 294827.3699999909,
      "d": 253.23257291666232,
      "v": 75
    },
    {
      "midi": 64,
      "hit": false,
      "t": 294827.3699999924,
      "d": 123.92232291668188,
      "v": 75
    },
    {
      "midi": 71,
      "hit": false,
      "t": 294956.68024999247,
      "d": 123.92232291668188,
      "v": 75
    },
    {
      "midi": 43,
      "hit": false,
      "t": 295085.99049999093,
      "d": 253.23257291666232,
      "v": 75
    },
    {
      "midi": 64,
      "hit": false,
      "t": 295085.9904999925,
      "d": 123.92232291668188,
      "v": 75
    },
    {
      "midi": 71,
      "hit": false,
      "t": 295215.30074999254,
      "d": 123.92232291668188,
      "v": 75
    },
    {
      "midi": 43,
      "hit": false,
      "t": 295344.61099999095,
      "d": 253.23257291666232,
      "v": 75
    },
    {
      "midi": 64,
      "hit": false,
      "t": 295344.6109999926,
      "d": 123.92232291668188,
      "v": 75
    },
    {
      "midi": 71,
      "hit": false,
      "t": 295344.6109999926,
      "d": 123.92232291668188,
      "v": 75
    },
    {
      "midi": 76,
      "hit": false,
      "t": 295473.9212499926,
      "d": 123.92232291668188,
      "v": 75
    },
    {
      "midi": 55,
      "hit": false,
      "t": 295603.231499991,
      "d": 253.23257291666232,
      "v": 75
    },
    {
      "midi": 64,
      "hit": false,
      "t": 295603.23149999266,
      "d": 123.92232291668188,
      "v": 75
    },
    {
      "midi": 71,
      "hit": false,
      "t": 295603.23149999266,
      "d": 123.92232291668188,
      "v": 75
    },
    {
      "midi": 76,
      "hit": false,
      "t": 295732.5417499927,
      "d": 123.92232291668188,
      "v": 75
    },
    {
      "midi": 54,
      "hit": false,
      "t": 295861.851999991,
      "d": 511.8530729166814,
      "v": 75
    },
    {
      "midi": 76,
      "hit": false,
      "t": 295861.85199999274,
      "d": 253.23257291666232,
      "v": 75
    },
    {
      "midi": 69,
      "hit": false,
      "t": 295861.85199999274,
      "d": 511.8530729166814,
      "v": 75
    },
    {
      "midi": 75,
      "hit": false,
      "t": 296120.47249999276,
      "d": 253.23257291666232,
      "v": 75
    },
    {
      "midi": 53,
      "hit": false,
      "t": 296379.09299999103,
      "d": 511.8530729166814,
      "v": 75
    },
    {
      "midi": 69,
      "hit": false,
      "t": 296637.71349999274,
      "d": 253.23257291666232,
      "v": 75
    },
    {
      "midi": 74,
      "hit": false,
      "t": 296637.71349999274,
      "d": 253.23257291666232,
      "v": 75
    },
    {
      "midi": 52,
      "hit": false,
      "t": 296896.33399999107,
      "d": 511.8530729166814,
      "v": 75
    },
    {
      "midi": 74,
      "hit": false,
      "t": 296896.33399999276,
      "d": 253.23257291666232,
      "v": 75
    },
    {
      "midi": 69,
      "hit": false,
      "t": 296896.33399999276,
      "d": 511.8530729166814,
      "v": 75
    },
    {
      "midi": 73,
      "hit": false,
      "t": 297154.9544999928,
      "d": 253.23257291666232,
      "v": 75
    },
    {
      "midi": 52,
      "hit": false,
      "t": 297413.5749999911,
      "d": 511.8530729166814,
      "v": 75
    },
    {
      "midi": 69,
      "hit": false,
      "t": 297672.19549999275,
      "d": 253.23257291666232,
      "v": 75
    },
    {
      "midi": 72,
      "hit": false,
      "t": 297672.19549999275,
      "d": 253.23257291666232,
      "v": 75
    },
    {
      "midi": 50,
      "hit": false,
      "t": 297930.81599999114,
      "d": 511.8530729166814,
      "v": 60
    },
    {
      "midi": 70,
      "hit": false,
      "t": 297930.8159999928,
      "d": 253.23257291666232,
      "v": 60
    },
    {
      "midi": 69,
      "hit": false,
      "t": 297930.8159999928,
      "d": 511.8530729166814,
      "v": 60
    },
    {
      "midi": 71,
      "hit": false,
      "t": 298189.4364999928,
      "d": 253.23257291666232,
      "v": 60
    },
    {
      "midi": 52,
      "hit": false,
      "t": 298448.0569999912,
      "d": 511.8530729166814,
      "v": 60
    },
    {
      "midi": 69,
      "hit": false,
      "t": 298706.6774999928,
      "d": 253.23257291666232,
      "v": 60
    },
    {
      "midi": 73,
      "hit": false,
      "t": 298706.6774999928,
      "d": 253.23257291666232,
      "v": 60
    },
    {
      "midi": 53,
      "hit": false,
      "t": 298965.2979999912,
      "d": 511.8530729166814,
      "v": 60
    },
    {
      "midi": 69,
      "hit": false,
      "t": 299223.91849999275,
      "d": 253.23257291666232,
      "v": 67
    },
    {
      "midi": 74,
      "hit": false,
      "t": 299223.91849999275,
      "d": 253.23257291666232,
      "v": 67
    },
    {
      "midi": 49,
      "hit": false,
      "t": 299482.53899999126,
      "d": 511.8530729166814,
      "v": 60
    },
    {
      "midi": 69,
      "hit": false,
      "t": 299741.15949999273,
      "d": 253.23257291666232,
      "v": 75
    },
    {
      "midi": 76,
      "hit": false,
      "t": 299741.15949999273,
      "d": 253.23257291666232,
      "v": 75
    },
    {
      "midi": 50,
      "hit": false,
      "t": 299999.7799999913,
      "d": 511.8530729166814,
      "v": 75
    },
    {
      "midi": 79,
      "hit": false,
      "t": 299999.77999999275,
      "d": 253.23257291666232,
      "v": 75
    },
    {
      "midi": 69,
      "hit": false,
      "t": 299999.77999999275,
      "d": 1546.3350729167578,
      "v": 75
    },
    {
      "midi": 77,
      "hit": false,
      "t": 300258.4004999928,
      "d": 511.8530729166814,
      "v": 69
    },
    {
      "midi": 52,
      "hit": false,
      "t": 300517.02099999133,
      "d": 511.8530729166814,
      "v": 75
    },
    {
      "midi": 76,
      "hit": false,
      "t": 300775.6414999928,
      "d": 253.23257291666232,
      "v": 69
    },
    {
      "midi": 53,
      "hit": false,
      "t": 301034.2619999914,
      "d": 511.8530729166814,
      "v": 75
    },
    {
      "midi": 74,
      "hit": false,
      "t": 301034.2619999928,
      "d": 253.23257291666232,
      "v": 66
    },
    {
      "midi": 72,
      "hit": false,
      "t": 301292.88249999285,
      "d": 253.23257291666232,
      "v": 66
    },
    {
      "midi": 51,
      "hit": false,
      "t": 301551.5029999914,
      "d": 511.8530729166814,
      "v": 75
    },
    {
      "midi": 71,
      "hit": false,
      "t": 301551.50299999287,
      "d": 253.23257291666232,
      "v": 63
    },
    {
      "midi": 66,
      "hit": false,
      "t": 301551.50299999287,
      "d": 511.8530729166814,
      "v": 63
    },
    {
      "midi": 69,
      "hit": false,
      "t": 301810.1234999929,
      "d": 253.23257291666232,
      "v": 60
    },
    {
      "midi": 52,
      "hit": false,
      "t": 302068.74399999145,
      "d": 123.92232291668188,
      "v": 90
    },
    {
      "midi": 68,
      "hit": false,
      "t": 302068.7439999929,
      "d": 511.8530729166814,
      "v": 90
    },
    {
      "midi": 71,
      "hit": false,
      "t": 302084.9077812429,
      "d": 511.8530729166814,
      "v": 90
    },
    {
      "midi": 59,
      "hit": false,
      "t": 302198.0542499915,
      "d": 123.92232291668188,
      "v": 90
    },
    {
      "midi": 56,
      "hit": false,
      "t": 302327.3644999915,
      "d": 123.92232291668188,
      "v": 90
    },
    {
      "midi": 59,
      "hit": false,
      "t": 302456.67474999157,
      "d": 123.92232291668188,
      "v": 90
    },
    {
      "midi": 52,
      "hit": false,
      "t": 302585.9849999916,
      "d": 123.92232291668188,
      "v": 90
    },
    {
      "midi": 76,
      "hit": false,
      "t": 302585.98499999294,
      "d": 32.32756249996601,
      "v": 90
    },
    {
      "midi": 59,
      "hit": false,
      "t": 302715.29524999164,
      "d": 123.92232291668188,
      "v": 90
    },
    {
      "midi": 56,
      "hit": false,
      "t": 302844.6054999917,
      "d": 123.92232291668188,
      "v": 90
    },
    {
      "midi": 59,
      "hit": false,
      "t": 302973.9157499917,
      "d": 123.92232291668188,
      "v": 90
    },
    {
      "midi": 76,
      "hit": false,
      "t": 302973.9157499929,
      "d": 123.92232291668188,
      "v": 90
    },
    {
      "midi": 52,
      "hit": false,
      "t": 303103.22599999176,
      "d": 123.92232291668188,
      "v": 90
    },
    {
      "midi": 76,
      "hit": false,
      "t": 303103.2259999929,
      "d": 511.8530729166814,
      "v": 90
    },
    {
      "midi": 60,
      "hit": false,
      "t": 303232.5362499918,
      "d": 123.92232291668188,
      "v": 90
    },
    {
      "midi": 57,
      "hit": false,
      "t": 303361.84649999184,
      "d": 123.92232291668188,
      "v": 90
    },
    {
      "midi": 60,
      "hit": false,
      "t": 303491.1567499919,
      "d": 123.92232291668188,
      "v": 90
    },
    {
      "midi": 52,
      "hit": false,
      "t": 303620.4669999919,
      "d": 123.92232291668188,
      "v": 90
    },
    {
      "midi": 76,
      "hit": false,
      "t": 303620.46699999296,
      "d": 511.8530729166814,
      "v": 90
    },
    {
      "midi": 62,
      "hit": false,
      "t": 303749.77724999195,
      "d": 123.92232291668188,
      "v": 90
    },
    {
      "midi": 59,
      "hit": false,
      "t": 303879.087499992,
      "d": 123.92232291668188,
      "v": 90
    },
    {
      "midi": 62,
      "hit": false,
      "t": 304008.39774999203,
      "d": 123.92232291668188,
      "v": 90
    },
    {
      "midi": 52,
      "hit": false,
      "t": 304137.70799999207,
      "d": 123.92232291668188,
      "v": 75
    },
    {
      "midi": 81,
      "hit": false,
      "t": 304137.707999993,
      "d": 770.4735729166423,
      "v": 75
    },
    {
      "midi": 69,
      "hit": false,
      "t": 304137.707999993,
      "d": 2063.576072916796,
      "v": 75
    },
    {
      "midi": 60,
      "hit": false,
      "t": 304245.46654165874,
      "d": 123.92232291668188,
      "v": 75
    },
    {
      "midi": 57,
      "hit": false,
      "t": 304396.3284999921,
      "d": 123.92232291668188,
      "v": 75
    },
    {
      "midi": 60,
      "hit": false,
      "t": 304525.6387499921,
      "d": 123.92232291668188,
      "v": 75
    },
    {
      "midi": 52,
      "hit": false,
      "t": 304654.94899999216,
      "d": 123.92232291668188,
      "v": 75
    },
    {
      "midi": 60,
      "hit": false,
      "t": 304784.2592499922,
      "d": 123.92232291668188,
      "v": 75
    },
    {
      "midi": 57,
      "hit": false,
      "t": 304913.56949999224,
      "d": 123.92232291668188,
      "v": 75
    },
    {
      "midi": 79,
      "hit": false,
      "t": 304913.569499993,
      "d": 123.92232291668188,
      "v": 75
    },
    {
      "midi": 60,
      "hit": false,
      "t": 305042.8797499923,
      "d": 123.92232291668188,
      "v": 75
    },
    {
      "midi": 77,
      "hit": false,
      "t": 305042.87974999304,
      "d": 123.92232291668188,
      "v": 75
    },
    {
      "midi": 52,
      "hit": false,
      "t": 305172.1899999923,
      "d": 123.92232291668188,
      "v": 75
    },
    {
      "midi": 76,
      "hit": false,
      "t": 305172.1899999931,
      "d": 511.8530729166814,
      "v": 75
    },
    {
      "midi": 60,
      "hit": false,
      "t": 305301.50024999236,
      "d": 123.92232291668188,
      "v": 75
    },
    {
      "midi": 57,
      "hit": false,
      "t": 305430.8104999924,
      "d": 123.92232291668188,
      "v": 75
    },
    {
      "midi": 60,
      "hit": false,
      "t": 305560.12074999243,
      "d": 123.92232291668188,
      "v": 75
    },
    {
      "midi": 52,
      "hit": false,
      "t": 305689.4309999925,
      "d": 123.92232291668188,
      "v": 75
    },
    {
      "midi": 75,
      "hit": false,
      "t": 305689.4309999931,
      "d": 511.8530729166814,
      "v": 75
    },
    {
      "midi": 60,
      "hit": false,
      "t": 305818.7412499925,
      "d": 123.92232291668188,
      "v": 75
    },
    {
      "midi": 57,
      "hit": false,
      "t": 305948.05149999255,
      "d": 123.92232291668188,
      "v": 75
    },
    {
      "midi": 60,
      "hit": false,
      "t": 306077.3617499926,
      "d": 123.92232291668188,
      "v": 75
    },
    {
      "midi": 52,
      "hit": false,
      "t": 306206.6719999926,
      "d": 123.92232291668188,
      "v": 60
    },
    {
      "midi": 68,
      "hit": false,
      "t": 306206.67199999315,
      "d": 511.8530729166814,
      "v": 67
    },
    {
      "midi": 71,
      "hit": false,
      "t": 306222.83578124316,
      "d": 511.8530729166814,
      "v": 67
    },
    {
      "midi": 59,
      "hit": false,
      "t": 306335.98224999267,
      "d": 123.92232291668188,
      "v": 60
    },
    {
      "midi": 56,
      "hit": false,
      "t": 306465.2924999927,
      "d": 123.92232291668188,
      "v": 60
    },
    {
      "midi": 59,
      "hit": false,
      "t": 306594.60274999274,
      "d": 123.92232291668188,
      "v": 60
    },
    {
      "midi": 52,
      "hit": false,
      "t": 306723.9129999928,
      "d": 123.92232291668188,
      "v": 60
    },
    {
      "midi": 76,
      "hit": false,
      "t": 306723.9129999932,
      "d": 32.32756249996601,
      "v": 60
    },
    {
      "midi": 59,
      "hit": false,
      "t": 306853.2232499928,
      "d": 123.92232291668188,
      "v": 60
    },
    {
      "midi": 56,
      "hit": false,
      "t": 306982.53349999286,
      "d": 123.92232291668188,
      "v": 60
    },
    {
      "midi": 59,
      "hit": false,
      "t": 307111.8437499929,
      "d": 123.92232291668188,
      "v": 60
    },
    {
      "midi": 76,
      "hit": false,
      "t": 307111.84374999313,
      "d": 123.92232291668188,
      "v": 60
    },
    {
      "midi": 52,
      "hit": false,
      "t": 307241.15399999294,
      "d": 123.92232291668188,
      "v": 60
    },
    {
      "midi": 76,
      "hit": false,
      "t": 307241.15399999317,
      "d": 511.8530729166814,
      "v": 60
    },
    {
      "midi": 60,
      "hit": false,
      "t": 307370.464249993,
      "d": 123.92232291668188,
      "v": 60
    },
    {
      "midi": 57,
      "hit": false,
      "t": 307499.774499993,
      "d": 123.92232291668188,
      "v": 60
    },
    {
      "midi": 60,
      "hit": false,
      "t": 307629.08474999305,
      "d": 123.92232291668188,
      "v": 60
    },
    {
      "midi": 52,
      "hit": false,
      "t": 307758.3949999931,
      "d": 123.92232291668188,
      "v": 60
    },
    {
      "midi": 76,
      "hit": false,
      "t": 307758.3949999932,
      "d": 511.8530729166814,
      "v": 60
    },
    {
      "midi": 62,
      "hit": false,
      "t": 307887.70524999313,
      "d": 123.92232291668188,
      "v": 60
    },
    {
      "midi": 59,
      "hit": false,
      "t": 308017.01549999317,
      "d": 123.92232291668188,
      "v": 60
    },
    {
      "midi": 62,
      "hit": false,
      "t": 308146.3257499932,
      "d": 123.92232291668188,
      "v": 60
    },
    {
      "midi": 81,
      "hit": false,
      "t": 308275.63599999325,
      "d": 770.4735729166423,
      "v": 75
    },
    {
      "midi": 69,
      "hit": false,
      "t": 308275.63599999325,
      "d": 2063.576072916796,
      "v": 75
    },
    {
      "midi": 52,
      "hit": false,
      "t": 308275.63599999325,
      "d": 123.92232291668188,
      "v": 75
    },
    {
      "midi": 60,
      "hit": false,
      "t": 308404.9462499933,
      "d": 123.92232291668188,
      "v": 75
    },
    {
      "midi": 57,
      "hit": false,
      "t": 308534.2564999933,
      "d": 123.92232291668188,
      "v": 75
    },
    {
      "midi": 60,
      "hit": false,
      "t": 308663.56674999336,
      "d": 123.92232291668188,
      "v": 75
    },
    {
      "midi": 52,
      "hit": false,
      "t": 308792.8769999934,
      "d": 123.92232291668188,
      "v": 75
    },
    {
      "midi": 60,
      "hit": false,
      "t": 308922.18724999344,
      "d": 123.92232291668188,
      "v": 75
    },
    {
      "midi": 79,
      "hit": false,
      "t": 309051.49749999325,
      "d": 123.92232291668188,
      "v": 75
    },
    {
      "midi": 57,
      "hit": false,
      "t": 309051.4974999935,
      "d": 123.92232291668188,
      "v": 75
    },
    {
      "midi": 77,
      "hit": false,
      "t": 309180.8077499933,
      "d": 123.92232291668188,
      "v": 75
    },
    {
      "midi": 60,
      "hit": false,
      "t": 309180.8077499935,
      "d": 123.92232291668188,
      "v": 75
    },
    {
      "midi": 76,
      "hit": false,
      "t": 309310.1179999933,
      "d": 511.8530729166814,
      "v": 75
    },
    {
      "midi": 52,
      "hit": false,
      "t": 309310.11799999356,
      "d": 123.92232291668188,
      "v": 75
    },
    {
      "midi": 60,
      "hit": false,
      "t": 309439.4282499936,
      "d": 123.92232291668188,
      "v": 75
    },
    {
      "midi": 57,
      "hit": false,
      "t": 309568.73849999363,
      "d": 123.92232291668188,
      "v": 75
    },
    {
      "midi": 60,
      "hit": false,
      "t": 309698.0487499937,
      "d": 123.92232291668188,
      "v": 75
    },
    {
      "midi": 75,
      "hit": false,
      "t": 309827.35899999336,
      "d": 511.8530729166814,
      "v": 75
    },
    {
      "midi": 52,
      "hit": false,
      "t": 309827.3589999937,
      "d": 123.92232291668188,
      "v": 75
    },
    {
      "midi": 60,
      "hit": false,
      "t": 309956.66924999375,
      "d": 123.92232291668188,
      "v": 75
    },
    {
      "midi": 57,
      "hit": false,
      "t": 310085.9794999938,
      "d": 123.92232291668188,
      "v": 75
    },
    {
      "midi": 60,
      "hit": false,
      "t": 310215.2897499938,
      "d": 123.92232291668188,
      "v": 75
    },
    {
      "midi": 76,
      "hit": false,
      "t": 310344.5999999934,
      "d": 123.92232291668188,
      "v": 90
    },
    {
      "midi": 52,
      "hit": false,
      "t": 310344.59999999386,
      "d": 511.8530729166814,
      "v": 90
    },
    {
      "midi": 56,
      "hit": false,
      "t": 310344.59999999386,
      "d": 511.8530729166814,
      "v": 90
    },
    {
      "midi": 59,
      "hit": false,
      "t": 310344.59999999386,
      "d": 511.8530729166814,
      "v": 90
    },
    {
      "midi": 71,
      "hit": false,
      "t": 310473.91024999344,
      "d": 123.92232291668188,
      "v": 90
    },
    {
      "midi": 68,
      "hit": false,
      "t": 310603.2204999935,
      "d": 123.92232291668188,
      "v": 90
    },
    {
      "midi": 71,
      "hit": false,
      "t": 310732.5307499935,
      "d": 123.92232291668188,
      "v": 90
    },
    {
      "midi": 76,
      "hit": false,
      "t": 310861.84099999355,
      "d": 123.92232291668188,
      "v": 90
    },
    {
      "midi": 72,
      "hit": false,
      "t": 310991.1512499936,
      "d": 123.92232291668188,
      "v": 90
    },
    {
      "midi": 69,
      "hit": false,
      "t": 311120.46149999363,
      "d": 123.92232291668188,
      "v": 90
    },
    {
      "midi": 45,
      "hit": false,
      "t": 311120.46149999386,
      "d": 253.23257291666232,
      "v": 90
    },
    {
      "midi": 57,
      "hit": false,
      "t": 311120.46149999386,
      "d": 253.23257291666232,
      "v": 90
    },
    {
      "midi": 72,
      "hit": false,
      "t": 311249.77174999367,
      "d": 123.92232291668188,
      "v": 90
    },
    {
      "midi": 76,
      "hit": false,
      "t": 311379.0819999937,
      "d": 123.92232291668188,
      "v": 90
    },
    {
      "midi": 40,
      "hit": false,
      "t": 311379.0819999939,
      "d": 511.8530729166814,
      "v": 90
    },
    {
      "midi": 52,
      "hit": false,
      "t": 311379.0819999939,
      "d": 511.8530729166814,
      "v": 90
    },
    {
      "midi": 71,
      "hit": false,
      "t": 311508.39224999375,
      "d": 123.92232291668188,
      "v": 90
    },
    {
      "midi": 68,
      "hit": false,
      "t": 311637.7024999938,
      "d": 123.92232291668188,
      "v": 90
    },
    {
      "midi": 71,
      "hit": false,
      "t": 311767.0127499938,
      "d": 123.92232291668188,
      "v": 90
    },
    {
      "midi": 76,
      "hit": false,
      "t": 311896.32299999386,
      "d": 123.92232291668188,
      "v": 90
    },
    {
      "midi": 72,
      "hit": false,
      "t": 312025.6332499939,
      "d": 123.92232291668188,
      "v": 90
    },
    {
      "midi": 45,
      "hit": false,
      "t": 312154.9434999939,
      "d": 253.23257291666232,
      "v": 90
    },
    {
      "midi": 57,
      "hit": false,
      "t": 312154.9434999939,
      "d": 253.23257291666232,
      "v": 90
    },
    {
      "midi": 69,
      "hit": false,
      "t": 312154.94349999394,
      "d": 123.92232291668188,
      "v": 90
    },
    {
      "midi": 72,
      "hit": false,
      "t": 312284.253749994,
      "d": 123.92232291668188,
      "v": 90
    },
    {
      "midi": 40,
      "hit": false,
      "t": 312413.5639999939,
      "d": 511.8530729166814,
      "v": 90
    },
    {
      "midi": 52,
      "hit": false,
      "t": 312413.5639999939,
      "d": 511.8530729166814,
      "v": 90
    },
    {
      "midi": 76,
      "hit": false,
      "t": 312413.563999994,
      "d": 123.92232291668188,
      "v": 82
    },
    {
      "midi": 71,
      "hit": false,
      "t": 312542.87424999406,
      "d": 123.92232291668188,
      "v": 82
    },
    {
      "midi": 68,
      "hit": false,
      "t": 312672.1844999941,
      "d": 123.92232291668188,
      "v": 82
    },
    {
      "midi": 71,
      "hit": false,
      "t": 312801.49474999413,
      "d": 123.92232291668188,
      "v": 82
    },
    {
      "midi": 76,
      "hit": false,
      "t": 312930.8049999942,
      "d": 123.92232291668188,
      "v": 82
    },
    {
      "midi": 72,
      "hit": false,
      "t": 313060.1152499942,
      "d": 123.92232291668188,
      "v": 82
    },
    {
      "midi": 45,
      "hit": false,
      "t": 313189.4254999939,
      "d": 253.23257291666232,
      "v": 90
    },
    {
      "midi": 57,
      "hit": false,
      "t": 313189.4254999939,
      "d": 253.23257291666232,
      "v": 90
    },
    {
      "midi": 69,
      "hit": false,
      "t": 313189.42549999425,
      "d": 123.92232291668188,
      "v": 82
    },
    {
      "midi": 72,
      "hit": false,
      "t": 313318.7357499943,
      "d": 123.92232291668188,
      "v": 82
    },
    {
      "midi": 40,
      "hit": false,
      "t": 313448.0459999939,
      "d": 253.23257291666232,
      "v": 90
    },
    {
      "midi": 52,
      "hit": false,
      "t": 313448.0459999939,
      "d": 253.23257291666232,
      "v": 90
    },
    {
      "midi": 71,
      "hit": false,
      "t": 313448.0459999943,
      "d": 123.92232291668188,
      "v": 82
    },
    {
      "midi": 68,
      "hit": false,
      "t": 313448.0459999943,
      "d": 253.23257291672053,
      "v": 82
    },
    {
      "midi": 76,
      "hit": false,
      "t": 313577.35624999437,
      "d": 123.92232291668188,
      "v": 82
    },
    {
      "midi": 45,
      "hit": false,
      "t": 313706.66649999394,
      "d": 253.23257291666232,
      "v": 90
    },
    {
      "midi": 57,
      "hit": false,
      "t": 313706.66649999394,
      "d": 253.23257291666232,
      "v": 90
    },
    {
      "midi": 72,
      "hit": false,
      "t": 313706.6664999944,
      "d": 123.92232291668188,
      "v": 82
    },
    {
      "midi": 69,
      "hit": false,
      "t": 313706.6664999944,
      "d": 253.23257291672053,
      "v": 82
    },
    {
      "midi": 76,
      "hit": false,
      "t": 313835.97674999444,
      "d": 123.92232291668188,
      "v": 82
    },
    {
      "midi": 40,
      "hit": false,
      "t": 313965.28699999396,
      "d": 253.23257291666232,
      "v": 90
    },
    {
      "midi": 52,
      "hit": false,
      "t": 313965.28699999396,
      "d": 253.23257291666232,
      "v": 90
    },
    {
      "midi": 71,
      "hit": false,
      "t": 313965.2869999945,
      "d": 123.92232291668188,
      "v": 82
    },
    {
      "midi": 68,
      "hit": false,
      "t": 313965.2869999945,
      "d": 253.23257291672053,
      "v": 82
    },
    {
      "midi": 76,
      "hit": false,
      "t": 314094.5972499945,
      "d": 123.92232291668188,
      "v": 82
    },
    {
      "midi": 45,
      "hit": false,
      "t": 314223.907499994,
      "d": 253.23257291666232,
      "v": 90
    },
    {
      "midi": 57,
      "hit": false,
      "t": 314223.907499994,
      "d": 253.23257291666232,
      "v": 90
    },
    {
      "midi": 72,
      "hit": false,
      "t": 314223.90749999456,
      "d": 123.92232291668188,
      "v": 82
    },
    {
      "midi": 69,
      "hit": false,
      "t": 314223.90749999456,
      "d": 253.23257291672053,
      "v": 82
    },
    {
      "midi": 76,
      "hit": false,
      "t": 314353.2177499946,
      "d": 123.92232291668188,
      "v": 82
    },
    {
      "midi": 40,
      "hit": false,
      "t": 314482.527999994,
      "d": 511.8530729166814,
      "v": 90
    },
    {
      "midi": 52,
      "hit": false,
      "t": 314482.527999994,
      "d": 511.8530729166814,
      "v": 90
    },
    {
      "midi": 68,
      "hit": false,
      "t": 314482.52799999464,
      "d": 511.8530729166814,
      "v": 82
    },
    {
      "midi": 71,
      "hit": false,
      "t": 314482.52799999464,
      "d": 511.8530729166814,
      "v": 82
    },
    {
      "midi": 40,
      "hit": false,
      "t": 314999.76899999403,
      "d": 511.8530729166814,
      "v": 90
    },
    {
      "midi": 52,
      "hit": false,
      "t": 314999.76899999403,
      "d": 511.8530729166814,
      "v": 90
    },
    {
      "midi": 64,
      "hit": false,
      "t": 314999.7689999947,
      "d": 511.8530729166814,
      "v": 82
    },
    {
      "midi": 68,
      "hit": false,
      "t": 314999.7689999947,
      "d": 511.8530729166814,
      "v": 82
    },
    {
      "midi": 71,
      "hit": false,
      "t": 314999.7689999947,
      "d": 511.8530729166814,
      "v": 82
    },
    {
      "midi": 76,
      "hit": false,
      "t": 314999.7689999947,
      "d": 511.8530729166814,
      "v": 82
    },
    {
      "midi": 40,
      "hit": false,
      "t": 315517.0099999941,
      "d": 511.8530729166814,
      "v": 90
    },
    {
      "midi": 52,
      "hit": false,
      "t": 315517.0099999941,
      "d": 511.8530729166814,
      "v": 90
    },
    {
      "midi": 76,
      "hit": false,
      "t": 315775.6304999947,
      "d": 253.23257291666232,
      "v": 60
    },
    {
      "midi": 78,
      "hit": false,
      "t": 316034.2509999947,
      "d": 253.23257291666232,
      "v": 60
    },
    {
      "midi": 80,
      "hit": false,
      "t": 316292.8714999947,
      "d": 253.23257291666232,
      "v": 60
    },
    {
      "midi": 81,
      "hit": false,
      "t": 316551.49199999473,
      "d": 123.92232291668188,
      "v": 75
    },
    {
      "midi": 60,
      "hit": false,
      "t": 316551.49199999473,
      "d": 253.23257291672053,
      "v": 75
    },
    {
      "midi": 64,
      "hit": false,
      "t": 316551.49199999473,
      "d": 253.23257291672053,
      "v": 75
    },
    {
      "midi": 83,
      "hit": false,
      "t": 316680.80224999477,
      "d": 123.92232291668188,
      "v": 75
    },
    {
      "midi": 80,
      "hit": false,
      "t": 316810.1124999948,
      "d": 123.92232291668188,
      "v": 75
    },
    {
      "midi": 62,
      "hit": false,
      "t": 316810.1124999948,
      "d": 253.23257291672053,
      "v": 75
    },
    {
      "midi": 65,
      "hit": false,
      "t": 316810.1124999948,
      "d": 253.23257291672053,
      "v": 75
    },
    {
      "midi": 83,
      "hit": false,
      "t": 316939.42274999485,
      "d": 123.92232291668188,
      "v": 75
    },
    {
      "midi": 81,
      "hit": false,
      "t": 317068.7329999949,
      "d": 123.92232291668188,
      "v": 75
    },
    {
      "midi": 60,
      "hit": false,
      "t": 317068.7329999949,
      "d": 253.23257291672053,
      "v": 75
    },
    {
      "midi": 64,
      "hit": false,
      "t": 317068.7329999949,
      "d": 253.23257291672053,
      "v": 75
    },
    {
      "midi": 83,
      "hit": false,
      "t": 317198.0432499949,
      "d": 123.92232291668188,
      "v": 75
    },
    {
      "midi": 80,
      "hit": false,
      "t": 317327.35349999496,
      "d": 123.92232291668188,
      "v": 75
    },
    {
      "midi": 62,
      "hit": false,
      "t": 317327.35349999496,
      "d": 253.23257291672053,
      "v": 75
    },
    {
      "midi": 65,
      "hit": false,
      "t": 317327.35349999496,
      "d": 253.23257291672053,
      "v": 75
    },
    {
      "midi": 83,
      "hit": false,
      "t": 317456.663749995,
      "d": 123.92232291668188,
      "v": 75
    },
    {
      "midi": 81,
      "hit": false,
      "t": 317585.97399999504,
      "d": 123.92232291668188,
      "v": 75
    },
    {
      "midi": 60,
      "hit": false,
      "t": 317585.97399999504,
      "d": 511.8530729167978,
      "v": 75
    },
    {
      "midi": 64,
      "hit": false,
      "t": 317585.97399999504,
      "d": 511.8530729167978,
      "v": 75
    },
    {
      "midi": 83,
      "hit": false,
      "t": 317715.2842499951,
      "d": 123.92232291668188,
      "v": 75
    },
    {
      "midi": 79,
      "hit": false,
      "t": 317844.5944999951,
      "d": 123.92232291668188,
      "v": 75
    },
    {
      "midi": 83,
      "hit": false,
      "t": 317973.90474999516,
      "d": 123.92232291668188,
      "v": 75
    },
    {
      "midi": 77,
      "hit": false,
      "t": 318103.2149999952,
      "d": 123.92232291668188,
      "v": 75
    },
    {
      "midi": 79,
      "hit": false,
      "t": 318232.52524999523,
      "d": 123.92232291668188,
      "v": 75
    },
    {
      "midi": 76,
      "hit": false,
      "t": 318361.8354999953,
      "d": 123.92232291668188,
      "v": 75
    },
    {
      "midi": 77,
      "hit": false,
      "t": 318491.1457499953,
      "d": 123.92232291668188,
      "v": 75
    },
    {
      "midi": 74,
      "hit": false,
      "t": 318620.45599999535,
      "d": 123.92232291668188,
      "v": 75
    },
    {
      "midi": 65,
      "hit": false,
      "t": 318620.45599999535,
      "d": 253.23257291672053,
      "v": 75
    },
    {
      "midi": 69,
      "hit": false,
      "t": 318620.45599999535,
      "d": 253.23257291672053,
      "v": 75
    },
    {
      "midi": 76,
      "hit": false,
      "t": 318749.7662499954,
      "d": 123.92232291668188,
      "v": 75
    },
    {
      "midi": 73,
      "hit": false,
      "t": 318879.0764999954,
      "d": 123.92232291668188,
      "v": 75
    },
    {
      "midi": 67,
      "hit": false,
      "t": 318879.0764999954,
      "d": 253.23257291672053,
      "v": 75
    },
    {
      "midi": 71,
      "hit": false,
      "t": 318879.0764999954,
      "d": 253.23257291672053,
      "v": 75
    },
    {
      "midi": 76,
      "hit": false,
      "t": 319008.38674999546,
      "d": 123.92232291668188,
      "v": 75
    },
    {
      "midi": 74,
      "hit": false,
      "t": 319137.6969999955,
      "d": 123.92232291668188,
      "v": 75
    },
    {
      "midi": 65,
      "hit": false,
      "t": 319137.6969999955,
      "d": 253.23257291672053,
      "v": 75
    },
    {
      "midi": 69,
      "hit": false,
      "t": 319137.6969999955,
      "d": 253.23257291672053,
      "v": 75
    },
    {
      "midi": 76,
      "hit": false,
      "t": 319267.00724999554,
      "d": 123.92232291668188,
      "v": 75
    },
    {
      "midi": 73,
      "hit": false,
      "t": 319396.3174999956,
      "d": 123.92232291668188,
      "v": 75
    },
    {
      "midi": 67,
      "hit": false,
      "t": 319396.3174999956,
      "d": 253.23257291672053,
      "v": 75
    },
    {
      "midi": 71,
      "hit": false,
      "t": 319396.3174999956,
      "d": 253.23257291672053,
      "v": 75
    },
    {
      "midi": 76,
      "hit": false,
      "t": 319525.6277499956,
      "d": 123.92232291668188,
      "v": 75
    },
    {
      "midi": 74,
      "hit": false,
      "t": 319654.93799999566,
      "d": 123.92232291668188,
      "v": 75
    },
    {
      "midi": 65,
      "hit": false,
      "t": 319654.93799999566,
      "d": 511.8530729167978,
      "v": 75
    },
    {
      "midi": 69,
      "hit": false,
      "t": 319654.93799999566,
      "d": 511.8530729167978,
      "v": 75
    },
    {
      "midi": 76,
      "hit": false,
      "t": 319784.2482499957,
      "d": 123.92232291668188,
      "v": 75
    },
    {
      "midi": 72,
      "hit": false,
      "t": 319913.55849999574,
      "d": 123.92232291668188,
      "v": 75
    },
    {
      "midi": 74,
      "hit": false,
      "t": 320042.8687499958,
      "d": 123.92232291668188,
      "v": 75
    },
    {
      "midi": 71,
      "hit": false,
      "t": 320172.1789999958,
      "d": 123.92232291668188,
      "v": 75
    },
    {
      "midi": 72,
      "hit": false,
      "t": 320301.48924999585,
      "d": 123.92232291668188,
      "v": 75
    },
    {
      "midi": 69,
      "hit": false,
      "t": 320430.7994999959,
      "d": 123.92232291668188,
      "v": 75
    },
    {
      "midi": 71,
      "hit": false,
      "t": 320560.1097499959,
      "d": 123.92232291668188,
      "v": 75
    },
    {
      "midi": 52,
      "hit": false,
      "t": 320689.4199999941,
      "d": 253.23257291666232,
      "v": 75
    },
    {
      "midi": 68,
      "hit": false,
      "t": 320689.41999999597,
      "d": 123.92232291668188,
      "v": 75
    },
    {
      "midi": 71,
      "hit": false,
      "t": 320818.730249996,
      "d": 123.92232291668188,
      "v": 75
    },
    {
      "midi": 53,
      "hit": false,
      "t": 320948.0404999941,
      "d": 253.23257291666232,
      "v": 75
    },
    {
      "midi": 69,
      "hit": false,
      "t": 320948.04049999604,
      "d": 123.92232291668188,
      "v": 75
    },
    {
      "midi": 71,
      "hit": false,
      "t": 321077.3507499961,
      "d": 123.92232291668188,
      "v": 75
    },
    {
      "midi": 52,
      "hit": false,
      "t": 321206.66099999414,
      "d": 253.23257291666232,
      "v": 75
    },
    {
      "midi": 68,
      "hit": false,
      "t": 321206.6609999961,
      "d": 123.92232291668188,
      "v": 75
    },
    {
      "midi": 71,
      "hit": false,
      "t": 321335.97124999616,
      "d": 123.92232291668188,
      "v": 75
    },
    {
      "midi": 53,
      "hit": false,
      "t": 321465.28149999416,
      "d": 253.23257291666232,
      "v": 75
    },
    {
      "midi": 69,
      "hit": false,
      "t": 321465.2814999962,
      "d": 123.92232291668188,
      "v": 75
    },
    {
      "midi": 71,
      "hit": false,
      "t": 321594.59174999624,
      "d": 123.92232291668188,
      "v": 75
    },
    {
      "midi": 52,
      "hit": false,
      "t": 321723.9019999942,
      "d": 511.8530729166814,
      "v": 75
    },
    {
      "midi": 59,
      "hit": false,
      "t": 321723.9019999942,
      "d": 511.8530729166814,
      "v": 75
    },
    {
      "midi": 62,
      "hit": false,
      "t": 321723.9019999942,
      "d": 511.8530729166814,
      "v": 75
    },
    {
      "midi": 68,
      "hit": false,
      "t": 321723.9019999963,
      "d": 123.92232291668188,
      "v": 75
    },
    {
      "midi": 71,
      "hit": false,
      "t": 321853.2122499963,
      "d": 123.92232291668188,
      "v": 75
    },
    {
      "midi": 65,
      "hit": false,
      "t": 321982.52249999635,
      "d": 123.92232291668188,
      "v": 75
    },
    {
      "midi": 71,
      "hit": false,
      "t": 322111.8327499964,
      "d": 123.92232291668188,
      "v": 75
    },
    {
      "midi": 64,
      "hit": false,
      "t": 322241.14299999643,
      "d": 123.92232291668188,
      "v": 75
    },
    {
      "midi": 71,
      "hit": false,
      "t": 322370.45324999647,
      "d": 123.92232291668188,
      "v": 75
    },
    {
      "midi": 62,
      "hit": false,
      "t": 322499.7634999965,
      "d": 123.92232291668188,
      "v": 75
    },
    {
      "midi": 71,
      "hit": false,
      "t": 322629.07374999655,
      "d": 123.92232291668188,
      "v": 75
    },
    {
      "midi": 45,
      "hit": false,
      "t": 322758.3839999942,
      "d": 511.8530729166814,
      "v": 75
    },
    {
      "midi": 59,
      "hit": false,
      "t": 322758.3839999942,
      "d": 511.8530729166814,
      "v": 75
    },
    {
      "midi": 60,
      "hit": false,
      "t": 322758.3839999966,
      "d": 123.92232291668188,
      "v": 75
    },
    {
      "midi": 64,
      "hit": false,
      "t": 322887.6942499966,
      "d": 123.92232291668188,
      "v": 75
    },
    {
      "midi": 63,
      "hit": false,
      "t": 323017.00449999666,
      "d": 123.92232291668188,
      "v": 75
    },
    {
      "midi": 64,
      "hit": false,
      "t": 323146.3147499967,
      "d": 123.92232291668188,
      "v": 75
    },
    {
      "midi": 65,
      "hit": false,
      "t": 323275.62499999674,
      "d": 123.92232291668188,
      "v": 75
    },
    {
      "midi": 64,
      "hit": false,
      "t": 323404.9352499968,
      "d": 123.92232291668188,
      "v": 75
    },
    {
      "midi": 68,
      "hit": false,
      "t": 323534.2454999968,
      "d": 123.92232291668188,
      "v": 75
    },
    {
      "midi": 64,
      "hit": false,
      "t": 323663.55574999686,
      "d": 123.92232291668188,
      "v": 75
    },
    {
      "midi": 69,
      "hit": false,
      "t": 323792.8659999969,
      "d": 123.92232291668188,
      "v": 75
    },
    {
      "midi": 64,
      "hit": false,
      "t": 323922.17624999693,
      "d": 123.92232291668188,
      "v": 75
    },
    {
      "midi": 71,
      "hit": false,
      "t": 324051.486499997,
      "d": 123.92232291668188,
      "v": 75
    },
    {
      "midi": 64,
      "hit": false,
      "t": 324180.796749997,
      "d": 123.92232291668188,
      "v": 75
    },
    {
      "midi": 72,
      "hit": false,
      "t": 324310.10699999705,
      "d": 123.92232291668188,
      "v": 75
    },
    {
      "midi": 64,
      "hit": false,
      "t": 324439.4172499971,
      "d": 123.92232291668188,
      "v": 75
    },
    {
      "midi": 74,
      "hit": false,
      "t": 324568.7274999971,
      "d": 123.92232291668188,
      "v": 75
    },
    {
      "midi": 64,
      "hit": false,
      "t": 324698.03774999717,
      "d": 123.92232291668188,
      "v": 75
    },
    {
      "midi": 48,
      "hit": false,
      "t": 324827.34799999424,
      "d": 253.23257291666232,
      "v": 60
    },
    {
      "midi": 57,
      "hit": false,
      "t": 324827.34799999424,
      "d": 253.23257291666232,
      "v": 60
    },
    {
      "midi": 76,
      "hit": false,
      "t": 324827.3479999972,
      "d": 123.92232291668188,
      "v": 60
    },
    {
      "midi": 77,
      "hit": false,
      "t": 324956.65824999724,
      "d": 123.92232291668188,
      "v": 60
    },
    {
      "midi": 48,
      "hit": false,
      "t": 325085.96849999425,
      "d": 253.23257291666232,
      "v": 60
    },
    {
      "midi": 57,
      "hit": false,
      "t": 325085.96849999425,
      "d": 253.23257291666232,
      "v": 60
    },
    {
      "midi": 75,
      "hit": false,
      "t": 325085.9684999973,
      "d": 123.92232291668188,
      "v": 60
    },
    {
      "midi": 77,
      "hit": false,
      "t": 325215.2787499973,
      "d": 123.92232291668188,
      "v": 60
    },
    {
      "midi": 48,
      "hit": false,
      "t": 325344.5889999943,
      "d": 253.23257291666232,
      "v": 60
    },
    {
      "midi": 57,
      "hit": false,
      "t": 325344.5889999943,
      "d": 253.23257291666232,
      "v": 60
    },
    {
      "midi": 76,
      "hit": false,
      "t": 325344.58899999736,
      "d": 123.92232291668188,
      "v": 60
    },
    {
      "midi": 77,
      "hit": false,
      "t": 325473.8992499974,
      "d": 123.92232291668188,
      "v": 60
    },
    {
      "midi": 48,
      "hit": false,
      "t": 325603.2094999943,
      "d": 253.23257291666232,
      "v": 60
    },
    {
      "midi": 57,
      "hit": false,
      "t": 325603.2094999943,
      "d": 253.23257291666232,
      "v": 60
    },
    {
      "midi": 75,
      "hit": false,
      "t": 325603.20949999744,
      "d": 123.92232291668188,
      "v": 60
    },
    {
      "midi": 77,
      "hit": false,
      "t": 325732.5197499975,
      "d": 123.92232291668188,
      "v": 60
    },
    {
      "midi": 48,
      "hit": false,
      "t": 325861.8299999943,
      "d": 511.8530729166814,
      "v": 60
    },
    {
      "midi": 57,
      "hit": false,
      "t": 325861.8299999943,
      "d": 511.8530729166814,
      "v": 60
    },
    {
      "midi": 76,
      "hit": false,
      "t": 325861.8299999975,
      "d": 123.92232291668188,
      "v": 60
    },
    {
      "midi": 81,
      "hit": false,
      "t": 325991.14024999755,
      "d": 123.92232291668188,
      "v": 60
    },
    {
      "midi": 80,
      "hit": false,
      "t": 326120.4504999976,
      "d": 123.92232291668188,
      "v": 60
    },
    {
      "midi": 81,
      "hit": false,
      "t": 326249.76074999763,
      "d": 123.92232291668188,
      "v": 60
    },
    {
      "midi": 83,
      "hit": false,
      "t": 326379.07099999767,
      "d": 123.92232291668188,
      "v": 60
    },
    {
      "midi": 81,
      "hit": false,
      "t": 326508.3812499977,
      "d": 123.92232291668188,
      "v": 60
    },
    {
      "midi": 80,
      "hit": false,
      "t": 326637.69149999775,
      "d": 123.92232291668188,
      "v": 60
    },
    {
      "midi": 81,
      "hit": false,
      "t": 326767.0017499978,
      "d": 123.92232291668188,
      "v": 60
    },
    {
      "midi": 50,
      "hit": false,
      "t": 326896.31199999433,
      "d": 1546.3350729166996,
      "v": 75
    },
    {
      "midi": 79,
      "hit": false,
      "t": 326896.3119999978,
      "d": 123.92232291668188,
      "v": 75
    },
    {
      "midi": 77,
      "hit": false,
      "t": 327025.62224999786,
      "d": 123.92232291668188,
      "v": 75
    },
    {
      "midi": 76,
      "hit": false,
      "t": 327154.9324999979,
      "d": 123.92232291668188,
      "v": 75
    },
    {
      "midi": 77,
      "hit": false,
      "t": 327284.24274999794,
      "d": 123.92232291668188,
      "v": 75
    },
    {
      "midi": 53,
      "hit": false,
      "t": 327413.5529999943,
      "d": 511.8530729166814,
      "v": 75
    },
    {
      "midi": 76,
      "hit": false,
      "t": 327413.552999998,
      "d": 123.92232291668188,
      "v": 75
    },
    {
      "midi": 74,
      "hit": false,
      "t": 327542.863249998,
      "d": 123.92232291668188,
      "v": 75
    },
    {
      "midi": 73,
      "hit": false,
      "t": 327672.17349999805,
      "d": 123.92232291668188,
      "v": 75
    },
    {
      "midi": 74,
      "hit": false,
      "t": 327801.4837499981,
      "d": 123.92232291668188,
      "v": 75
    },
    {
      "midi": 58,
      "hit": false,
      "t": 327930.79399999435,
      "d": 1546.3350729167578,
      "v": 75
    },
    {
      "midi": 72,
      "hit": false,
      "t": 327930.79399999813,
      "d": 123.92232291668188,
      "v": 75
    },
    {
      "midi": 70,
      "hit": false,
      "t": 328060.10424999817,
      "d": 123.92232291668188,
      "v": 75
    },
    {
      "midi": 69,
      "hit": false,
      "t": 328189.4144999982,
      "d": 123.92232291668188,
      "v": 75
    },
    {
      "midi": 70,
      "hit": false,
      "t": 328318.72474999825,
      "d": 123.92232291668188,
      "v": 75
    },
    {
      "midi": 50,
      "hit": false,
      "t": 328448.0349999944,
      "d": 511.8530729166814,
      "v": 75
    },
    {
      "midi": 69,
      "hit": false,
      "t": 328448.0349999983,
      "d": 123.92232291668188,
      "v": 75
    },
    {
      "midi": 70,
      "hit": false,
      "t": 328577.3452499983,
      "d": 123.92232291668188,
      "v": 75
    },
    {
      "midi": 72,
      "hit": false,
      "t": 328706.65549999836,
      "d": 123.92232291668188,
      "v": 75
    },
    {
      "midi": 74,
      "hit": false,
      "t": 328835.9657499984,
      "d": 123.92232291668188,
      "v": 75
    },
    {
      "midi": 48,
      "hit": false,
      "t": 328965.2759999944,
      "d": 1546.3350729167578,
      "v": 75
    },
    {
      "midi": 77,
      "hit": false,
      "t": 328965.27599999844,
      "d": 123.92232291668188,
      "v": 75
    },
    {
      "midi": 76,
      "hit": false,
      "t": 329094.5862499985,
      "d": 123.92232291668188,
      "v": 75
    },
    {
      "midi": 75,
      "hit": false,
      "t": 329223.8964999985,
      "d": 123.92232291668188,
      "v": 75
    },
    {
      "midi": 76,
      "hit": false,
      "t": 329353.20674999856,
      "d": 123.92232291668188,
      "v": 75
    },
    {
      "midi": 56,
      "hit": false,
      "t": 329482.51699999446,
      "d": 511.8530729166814,
      "v": 75
    },
    {
      "midi": 74,
      "hit": false,
      "t": 329482.5169999986,
      "d": 123.92232291668188,
      "v": 75
    },
    {
      "midi": 72,
      "hit": false,
      "t": 329611.82724999863,
      "d": 123.92232291668188,
      "v": 75
    },
    {
      "midi": 71,
      "hit": false,
      "t": 329741.1374999987,
      "d": 123.92232291668188,
      "v": 75
    },
    {
      "midi": 72,
      "hit": false,
      "t": 329870.4477499987,
      "d": 123.92232291668188,
      "v": 75
    },
    {
      "midi": 57,
      "hit": false,
      "t": 329999.7579999945,
      "d": 1029.0940729167196,
      "v": 75
    },
    {
      "midi": 71,
      "hit": false,
      "t": 329999.75799999875,
      "d": 123.92232291668188,
      "v": 75
    },
    {
      "midi": 69,
      "hit": false,
      "t": 330129.0682499988,
      "d": 123.92232291668188,
      "v": 75
    },
    {
      "midi": 68,
      "hit": false,
      "t": 330258.3784999988,
      "d": 123.92232291668188,
      "v": 75
    },
    {
      "midi": 69,
      "hit": false,
      "t": 330387.68874999887,
      "d": 123.92232291668188,
      "v": 75
    },
    {
      "midi": 48,
      "hit": false,
      "t": 330516.99899999454,
      "d": 511.8530729166814,
      "v": 75
    },
    {
      "midi": 68,
      "hit": false,
      "t": 330516.9989999989,
      "d": 123.92232291668188,
      "v": 75
    },
    {
      "midi": 69,
      "hit": false,
      "t": 330646.30924999894,
      "d": 123.92232291668188,
      "v": 75
    },
    {
      "midi": 71,
      "hit": false,
      "t": 330775.619499999,
      "d": 123.92232291668188,
      "v": 75
    },
    {
      "midi": 72,
      "hit": false,
      "t": 330904.929749999,
      "d": 123.92232291668188,
      "v": 75
    },
    {
      "midi": 47,
      "hit": false,
      "t": 331034.2399999946,
      "d": 511.8530729166814,
      "v": 75
    },
    {
      "midi": 57,
      "hit": false,
      "t": 331034.2399999946,
      "d": 511.8530729166814,
      "v": 75
    },
    {
      "midi": 74,
      "hit": false,
      "t": 331034.23999999906,
      "d": 123.92232291668188,
      "v": 75
    },
    {
      "midi": 77,
      "hit": false,
      "t": 331163.5502499991,
      "d": 123.92232291668188,
      "v": 75
    },
    {
      "midi": 72,
      "hit": false,
      "t": 331292.86049999914,
      "d": 123.92232291668188,
      "v": 75
    },
    {
      "midi": 77,
      "hit": false,
      "t": 331422.1707499992,
      "d": 123.92232291668188,
      "v": 75
    },
    {
      "midi": 53,
      "hit": false,
      "t": 331551.4809999946,
      "d": 511.8530729166814,
      "v": 75
    },
    {
      "midi": 62,
      "hit": false,
      "t": 331551.4809999946,
      "d": 1029.0940729167196,
      "v": 75
    },
    {
      "midi": 71,
      "hit": false,
      "t": 331551.4809999992,
      "d": 123.92232291668188,
      "v": 75
    },
    {
      "midi": 77,
      "hit": false,
      "t": 331680.79124999925,
      "d": 123.92232291668188,
      "v": 75
    },
    {
      "midi": 69,
      "hit": false,
      "t": 331810.1014999993,
      "d": 123.92232291668188,
      "v": 75
    },
    {
      "midi": 77,
      "hit": false,
      "t": 331939.41174999933,
      "d": 123.92232291668188,
      "v": 75
    },
    {
      "midi": 52,
      "hit": false,
      "t": 332068.72199999465,
      "d": 511.8530729166814,
      "v": 75
    },
    {
      "midi": 68,
      "hit": false,
      "t": 332068.72199999937,
      "d": 123.92232291668188,
      "v": 75
    },
    {
      "midi": 71,
      "hit": false,
      "t": 332198.0322499994,
      "d": 123.92232291668188,
      "v": 75
    },
    {
      "midi": 65,
      "hit": false,
      "t": 332327.34249999945,
      "d": 123.92232291668188,
      "v": 75
    },
    {
      "midi": 71,
      "hit": false,
      "t": 332478.2044583328,
      "d": 123.92232291668188,
      "v": 75
    },
    {
      "midi": 56,
      "hit": false,
      "t": 332585.9629999947,
      "d": 511.8530729166814,
      "v": 75
    },
    {
      "midi": 59,
      "hit": false,
      "t": 332585.9629999947,
      "d": 511.8530729166814,
      "v": 75
    },
    {
      "midi": 64,
      "hit": false,
      "t": 332585.96299999946,
      "d": 123.92232291668188,
      "v": 75
    },
    {
      "midi": 71,
      "hit": false,
      "t": 332715.2732499995,
      "d": 123.92232291668188,
      "v": 75
    },
    {
      "midi": 62,
      "hit": false,
      "t": 332844.58349999954,
      "d": 123.92232291668188,
      "v": 75
    },
    {
      "midi": 71,
      "hit": false,
      "t": 332973.8937499996,
      "d": 123.92232291668188,
      "v": 75
    },
    {
      "midi": 57,
      "hit": false,
      "t": 333103.20399999473,
      "d": 511.8530729166814,
      "v": 75
    },
    {
      "midi": 60,
      "hit": false,
      "t": 333103.2039999996,
      "d": 123.92232291668188,
      "v": 78
    },
    {
      "midi": 72,
      "hit": false,
      "t": 333232.51424999966,
      "d": 123.92232291668188,
      "v": 78
    },
    {
      "midi": 71,
      "hit": false,
      "t": 333361.8244999997,
      "d": 123.92232291668188,
      "v": 78
    },
    {
      "midi": 72,
      "hit": false,
      "t": 333491.13474999974,
      "d": 123.92232291668188,
      "v": 78
    },
    {
      "midi": 45,
      "hit": false,
      "t": 333620.44499999477,
      "d": 511.8530729166814,
      "v": 76
    },
    {
      "midi": 52,
      "hit": false,
      "t": 333620.44499999477,
      "d": 1029.0940729167196,
      "v": 76
    },
    {
      "midi": 74,
      "hit": false,
      "t": 333620.4449999998,
      "d": 123.92232291668188,
      "v": 79
    },
    {
      "midi": 72,
      "hit": false,
      "t": 333749.7552499998,
      "d": 123.92232291668188,
      "v": 79
    },
    {
      "midi": 71,
      "hit": false,
      "t": 333879.06549999985,
      "d": 123.92232291668188,
      "v": 79
    },
    {
      "midi": 69,
      "hit": false,
      "t": 334008.3757499999,
      "d": 123.92232291668188,
      "v": 79
    },
    {
      "midi": 47,
      "hit": false,
      "t": 334137.6859999948,
      "d": 511.8530729166814,
      "v": 78
    },
    {
      "midi": 68,
      "hit": false,
      "t": 334137.6859999999,
      "d": 123.92232291668188,
      "v": 81
    },
    {
      "midi": 74,
      "hit": false,
      "t": 334266.99624999997,
      "d": 123.92232291668188,
      "v": 81
    },
    {
      "midi": 73,
      "hit": false,
      "t": 334396.3065,
      "d": 123.92232291668188,
      "v": 81
    },
    {
      "midi": 74,
      "hit": false,
      "t": 334525.61675000004,
      "d": 123.92232291668188,
      "v": 81
    },
    {
      "midi": 50,
      "hit": false,
      "t": 334654.92699999484,
      "d": 511.8530729166814,
      "v": 79
    },
    {
      "midi": 52,
      "hit": false,
      "t": 334654.92699999484,
      "d": 511.8530729166814,
      "v": 79
    },
    {
      "midi": 56,
      "hit": false,
      "t": 334654.92699999484,
      "d": 511.8530729166814,
      "v": 79
    },
    {
      "midi": 76,
      "hit": false,
      "t": 334654.9270000001,
      "d": 123.92232291668188,
      "v": 82
    },
    {
      "midi": 74,
      "hit": false,
      "t": 334784.2372500001,
      "d": 123.92232291668188,
      "v": 82
    },
    {
      "midi": 72,
      "hit": false,
      "t": 334913.54750000016,
      "d": 123.92232291668188,
      "v": 82
    },
    {
      "midi": 71,
      "hit": false,
      "t": 335042.8577500002,
      "d": 123.92232291668188,
      "v": 82
    },
    {
      "midi": 48,
      "hit": false,
      "t": 335172.1679999949,
      "d": 511.8530729166814,
      "v": 82
    },
    {
      "midi": 52,
      "hit": false,
      "t": 335172.1679999949,
      "d": 511.8530729166814,
      "v": 82
    },
    {
      "midi": 57,
      "hit": false,
      "t": 335172.1679999949,
      "d": 511.8530729166814,
      "v": 82
    },
    {
      "midi": 69,
      "hit": false,
      "t": 335172.16800000024,
      "d": 123.92232291668188,
      "v": 84
    },
    {
      "midi": 71,
      "hit": false,
      "t": 335301.4782500003,
      "d": 123.92232291668188,
      "v": 84
    },
    {
      "midi": 72,
      "hit": false,
      "t": 335430.7885000003,
      "d": 123.92232291668188,
      "v": 84
    },
    {
      "midi": 71,
      "hit": false,
      "t": 335560.09875000035,
      "d": 123.92232291668188,
      "v": 84
    },
    {
      "midi": 72,
      "hit": false,
      "t": 335689.4090000004,
      "d": 123.92232291668188,
      "v": 85
    },
    {
      "midi": 75,
      "hit": false,
      "t": 335818.71925000043,
      "d": 123.92232291668188,
      "v": 85
    },
    {
      "midi": 76,
      "hit": false,
      "t": 335948.02950000047,
      "d": 123.92232291668188,
      "v": 85
    },
    {
      "midi": 75,
      "hit": false,
      "t": 336077.3397500005,
      "d": 123.92232291668188,
      "v": 85
    },
    {
      "midi": 76,
      "hit": false,
      "t": 336206.65000000055,
      "d": 123.92232291668188,
      "v": 87
    },
    {
      "midi": 80,
      "hit": false,
      "t": 336335.9602500006,
      "d": 123.92232291668188,
      "v": 87
    },
    {
      "midi": 81,
      "hit": false,
      "t": 336465.2705000006,
      "d": 123.92232291668188,
      "v": 87
    },
    {
      "midi": 80,
      "hit": false,
      "t": 336594.58075000066,
      "d": 123.92232291668188,
      "v": 87
    },
    {
      "midi": 49,
      "hit": false,
      "t": 336723.8909999949,
      "d": 511.8530729166814,
      "v": 85
    },
    {
      "midi": 52,
      "hit": false,
      "t": 336723.8909999949,
      "d": 511.8530729166814,
      "v": 85
    },
    {
      "midi": 57,
      "hit": false,
      "t": 336723.8909999949,
      "d": 511.8530729166814,
      "v": 85
    },
    {
      "midi": 81,
      "hit": false,
      "t": 336723.8910000007,
      "d": 123.92232291668188,
      "v": 88
    },
    {
      "midi": 79,
      "hit": false,
      "t": 336853.20125000074,
      "d": 123.92232291668188,
      "v": 88
    },
    {
      "midi": 77,
      "hit": false,
      "t": 336982.5115000008,
      "d": 123.92232291668188,
      "v": 88
    },
    {
      "midi": 76,
      "hit": false,
      "t": 337111.8217500008,
      "d": 123.92232291668188,
      "v": 88
    },
    {
      "midi": 50,
      "hit": false,
      "t": 337241.1319999949,
      "d": 123.92232291668188,
      "v": 90
    },
    {
      "midi": 77,
      "hit": false,
      "t": 337241.13200000086,
      "d": 123.92232291668188,
      "v": 90
    },
    {
      "midi": 57,
      "hit": false,
      "t": 337370.44224999496,
      "d": 123.92232291668188,
      "v": 90
    },
    {
      "midi": 79,
      "hit": false,
      "t": 337370.4422500009,
      "d": 123.92232291668188,
      "v": 90
    },
    {
      "midi": 53,
      "hit": false,
      "t": 337499.752499995,
      "d": 123.92232291668188,
      "v": 90
    },
    {
      "midi": 81,
      "hit": false,
      "t": 337499.75250000093,
      "d": 123.92232291668188,
      "v": 90
    },
    {
      "midi": 57,
      "hit": false,
      "t": 337629.06274999504,
      "d": 123.92232291668188,
      "v": 90
    },
    {
      "midi": 77,
      "hit": false,
      "t": 337629.062750001,
      "d": 123.92232291668188,
      "v": 90
    },
    {
      "midi": 50,
      "hit": false,
      "t": 337758.3729999951,
      "d": 123.92232291668188,
      "v": 90
    },
    {
      "midi": 74,
      "hit": false,
      "t": 337758.373000001,
      "d": 123.92232291668188,
      "v": 90
    },
    {
      "midi": 57,
      "hit": false,
      "t": 337887.6832499951,
      "d": 123.92232291668188,
      "v": 90
    },
    {
      "midi": 76,
      "hit": false,
      "t": 337887.68325000105,
      "d": 123.92232291668188,
      "v": 90
    },
    {
      "midi": 53,
      "hit": false,
      "t": 338016.99349999515,
      "d": 123.92232291668188,
      "v": 90
    },
    {
      "midi": 77,
      "hit": false,
      "t": 338016.9935000011,
      "d": 123.92232291668188,
      "v": 90
    },
    {
      "midi": 57,
      "hit": false,
      "t": 338146.3037499952,
      "d": 123.92232291668188,
      "v": 90
    },
    {
      "midi": 74,
      "hit": false,
      "t": 338146.3037500011,
      "d": 123.92232291668188,
      "v": 90
    },
    {
      "midi": 50,
      "hit": false,
      "t": 338275.6139999952,
      "d": 123.92232291668188,
      "v": 90
    },
    {
      "midi": 71,
      "hit": false,
      "t": 338275.61400000117,
      "d": 123.92232291668188,
      "v": 90
    },
    {
      "midi": 59,
      "hit": false,
      "t": 338404.92424999527,
      "d": 123.92232291668188,
      "v": 90
    },
    {
      "midi": 72,
      "hit": false,
      "t": 338404.9242500012,
      "d": 123.92232291668188,
      "v": 90
    },
    {
      "midi": 53,
      "hit": false,
      "t": 338534.2344999953,
      "d": 123.92232291668188,
      "v": 90
    },
    {
      "midi": 74,
      "hit": false,
      "t": 338534.23450000124,
      "d": 123.92232291668188,
      "v": 90
    },
    {
      "midi": 59,
      "hit": false,
      "t": 338663.54474999534,
      "d": 123.92232291668188,
      "v": 90
    },
    {
      "midi": 71,
      "hit": false,
      "t": 338663.5447500013,
      "d": 123.92232291668188,
      "v": 90
    },
    {
      "midi": 50,
      "hit": false,
      "t": 338792.8549999954,
      "d": 123.92232291668188,
      "v": 90
    },
    {
      "midi": 76,
      "hit": false,
      "t": 338792.8550000013,
      "d": 123.92232291668188,
      "v": 90
    },
    {
      "midi": 59,
      "hit": false,
      "t": 338922.1652499954,
      "d": 123.92232291668188,
      "v": 90
    },
    {
      "midi": 77,
      "hit": false,
      "t": 338922.16525000136,
      "d": 123.92232291668188,
      "v": 90
    },
    {
      "midi": 53,
      "hit": false,
      "t": 339051.47549999546,
      "d": 123.92232291668188,
      "v": 90
    },
    {
      "midi": 74,
      "hit": false,
      "t": 339051.4755000014,
      "d": 123.92232291668188,
      "v": 90
    },
    {
      "midi": 59,
      "hit": false,
      "t": 339180.7857499955,
      "d": 123.92232291668188,
      "v": 90
    },
    {
      "midi": 71,
      "hit": false,
      "t": 339180.78575000144,
      "d": 123.92232291668188,
      "v": 90
    },
    {
      "midi": 52,
      "hit": false,
      "t": 339310.09599999554,
      "d": 123.92232291668188,
      "v": 75
    },
    {
      "midi": 75,
      "hit": false,
      "t": 339310.0960000015,
      "d": 123.92232291668188,
      "v": 75
    },
    {
      "midi": 60,
      "hit": false,
      "t": 339439.4062499956,
      "d": 123.92232291668188,
      "v": 75
    },
    {
      "midi": 76,
      "hit": false,
      "t": 339439.4062500015,
      "d": 123.92232291668188,
      "v": 75
    },
    {
      "midi": 57,
      "hit": false,
      "t": 339568.7164999956,
      "d": 123.92232291668188,
      "v": 75
    },
    {
      "midi": 77,
      "hit": false,
      "t": 339568.71650000155,
      "d": 123.92232291668188,
      "v": 75
    },
    {
      "midi": 60,
      "hit": false,
      "t": 339698.02674999565,
      "d": 123.92232291668188,
      "v": 75
    },
    {
      "midi": 76,
      "hit": false,
      "t": 339698.0267500016,
      "d": 123.92232291668188,
      "v": 75
    },
    {
      "midi": 52,
      "hit": false,
      "t": 339827.3369999957,
      "d": 123.92232291668188,
      "v": 75
    },
    {
      "midi": 74,
      "hit": false,
      "t": 339827.33700000163,
      "d": 123.92232291668188,
      "v": 75
    },
    {
      "midi": 60,
      "hit": false,
      "t": 339956.64724999573,
      "d": 123.92232291668188,
      "v": 75
    },
    {
      "midi": 72,
      "hit": false,
      "t": 339956.64725000167,
      "d": 123.92232291668188,
      "v": 75
    },
    {
      "midi": 57,
      "hit": false,
      "t": 340085.95749999577,
      "d": 123.92232291668188,
      "v": 75
    },
    {
      "midi": 71,
      "hit": false,
      "t": 340085.9575000017,
      "d": 123.92232291668188,
      "v": 75
    },
    {
      "midi": 60,
      "hit": false,
      "t": 340215.2677499958,
      "d": 123.92232291668188,
      "v": 75
    },
    {
      "midi": 69,
      "hit": false,
      "t": 340215.26775000175,
      "d": 123.92232291668188,
      "v": 75
    },
    {
      "midi": 52,
      "hit": false,
      "t": 340344.57799999585,
      "d": 123.92232291668188,
      "v": 75
    },
    {
      "midi": 72,
      "hit": false,
      "t": 340344.5780000018,
      "d": 59.26719791669166,
      "v": 75
    },
    {
      "midi": 71,
      "hit": false,
      "t": 340409.23312500183,
      "d": 59.26719791669166,
      "v": 75
    },
    {
      "midi": 62,
      "hit": false,
      "t": 340473.8882499959,
      "d": 123.92232291668188,
      "v": 75
    },
    {
      "midi": 72,
      "hit": false,
      "t": 340473.8882500019,
      "d": 59.26719791669166,
      "v": 75
    },
    {
      "midi": 71,
      "hit": false,
      "t": 340538.54337500193,
      "d": 59.26719791669166,
      "v": 75
    },
    {
      "midi": 56,
      "hit": false,
      "t": 340603.1984999959,
      "d": 123.92232291668188,
      "v": 75
    },
    {
      "midi": 72,
      "hit": false,
      "t": 340603.198500002,
      "d": 59.26719791669166,
      "v": 75
    },
    {
      "midi": 71,
      "hit": false,
      "t": 340667.853625002,
      "d": 59.26719791669166,
      "v": 75
    },
    {
      "midi": 62,
      "hit": false,
      "t": 340732.50874999596,
      "d": 123.92232291668188,
      "v": 75
    },
    {
      "midi": 72,
      "hit": false,
      "t": 340732.5087500021,
      "d": 59.26719791669166,
      "v": 75
    },
    {
      "midi": 71,
      "hit": false,
      "t": 340797.1638750021,
      "d": 59.26719791669166,
      "v": 75
    },
    {
      "midi": 52,
      "hit": false,
      "t": 340861.818999996,
      "d": 123.92232291668188,
      "v": 75
    },
    {
      "midi": 72,
      "hit": false,
      "t": 340861.8190000022,
      "d": 59.26719791669166,
      "v": 75
    },
    {
      "midi": 71,
      "hit": false,
      "t": 340926.4741250022,
      "d": 59.26719791669166,
      "v": 75
    },
    {
      "midi": 62,
      "hit": false,
      "t": 340991.12924999604,
      "d": 123.92232291668188,
      "v": 75
    },
    {
      "midi": 72,
      "hit": false,
      "t": 340991.12925000227,
      "d": 59.26719791669166,
      "v": 75
    },
    {
      "midi": 71,
      "hit": false,
      "t": 341055.7843750023,
      "d": 59.26719791669166,
      "v": 75
    },
    {
      "midi": 56,
      "hit": false,
      "t": 341120.4394999961,
      "d": 123.92232291668188,
      "v": 75
    },
    {
      "midi": 69,
      "hit": false,
      "t": 341120.43950000237,
      "d": 123.92232291668188,
      "v": 75
    },
    {
      "midi": 62,
      "hit": false,
      "t": 341249.7497499961,
      "d": 123.92232291668188,
      "v": 75
    },
    {
      "midi": 71,
      "hit": false,
      "t": 341249.7497500024,
      "d": 123.92232291668188,
      "v": 75
    },
    {
      "midi": 57,
      "hit": false,
      "t": 341379.05999999616,
      "d": 511.8530729166814,
      "v": 60
    },
    {
      "midi": 60,
      "hit": false,
      "t": 341379.05999999616,
      "d": 511.8530729166814,
      "v": 60
    },
    {
      "midi": 81,
      "hit": false,
      "t": 341508.3702500024,
      "d": 123.92232291668188,
      "v": 60
    },
    {
      "midi": 79,
      "hit": false,
      "t": 341637.68050000246,
      "d": 123.92232291668188,
      "v": 60
    },
    {
      "midi": 77,
      "hit": false,
      "t": 341766.9907500025,
      "d": 123.92232291668188,
      "v": 60
    },
    {
      "midi": 76,
      "hit": false,
      "t": 341896.30100000254,
      "d": 123.92232291668188,
      "v": 60
    },
    {
      "midi": 77,
      "hit": false,
      "t": 342025.6112500026,
      "d": 123.92232291668188,
      "v": 60
    },
    {
      "midi": 75,
      "hit": false,
      "t": 342154.9215000026,
      "d": 123.92232291668188,
      "v": 60
    },
    {
      "midi": 77,
      "hit": false,
      "t": 342284.23175000265,
      "d": 123.92232291668188,
      "v": 60
    },
    {
      "midi": 76,
      "hit": false,
      "t": 342413.5420000027,
      "d": 123.92232291668188,
      "v": 60
    },
    {
      "midi": 77,
      "hit": false,
      "t": 342542.85225000273,
      "d": 123.92232291668188,
      "v": 60
    },
    {
      "midi": 75,
      "hit": false,
      "t": 342672.16250000277,
      "d": 123.92232291668188,
      "v": 60
    },
    {
      "midi": 77,
      "hit": false,
      "t": 342801.4727500028,
      "d": 123.92232291668188,
      "v": 60
    },
    {
      "midi": 76,
      "hit": false,
      "t": 342930.78300000285,
      "d": 123.92232291668188,
      "v": 60
    },
    {
      "midi": 68,
      "hit": false,
      "t": 342930.78300000285,
      "d": 253.23257291672053,
      "v": 60
    },
    {
      "midi": 77,
      "hit": false,
      "t": 343060.0932500029,
      "d": 123.92232291668188,
      "v": 60
    },
    {
      "midi": 74,
      "hit": false,
      "t": 343189.4035000029,
      "d": 123.92232291668188,
      "v": 60
    },
    {
      "midi": 64,
      "hit": false,
      "t": 343189.4035000029,
      "d": 253.23257291672053,
      "v": 60
    },
    {
      "midi": 76,
      "hit": false,
      "t": 343318.71375000296,
      "d": 123.92232291668188,
      "v": 60
    },
    {
      "midi": 72,
      "hit": false,
      "t": 343448.024000003,
      "d": 123.92232291668188,
      "v": 75
    },
    {
      "midi": 69,
      "hit": false,
      "t": 343448.024000003,
      "d": 511.8530729167978,
      "v": 75
    },
    {
      "midi": 81,
      "hit": false,
      "t": 343577.33425000304,
      "d": 123.92232291668188,
      "v": 75
    },
    {
      "midi": 79,
      "hit": false,
      "t": 343706.6445000031,
      "d": 123.92232291668188,
      "v": 75
    },
    {
      "midi": 77,
      "hit": false,
      "t": 343835.9547500031,
      "d": 123.92232291668188,
      "v": 75
    },
    {
      "midi": 76,
      "hit": false,
      "t": 343965.26500000316,
      "d": 123.92232291668188,
      "v": 75
    },
    {
      "midi": 77,
      "hit": false,
      "t": 344094.5752500032,
      "d": 123.92232291668188,
      "v": 75
    },
    {
      "midi": 75,
      "hit": false,
      "t": 344223.88550000323,
      "d": 123.92232291668188,
      "v": 75
    },
    {
      "midi": 77,
      "hit": false,
      "t": 344353.1957500033,
      "d": 123.92232291668188,
      "v": 75
    },
    {
      "midi": 76,
      "hit": false,
      "t": 344482.5060000033,
      "d": 123.92232291668188,
      "v": 75
    },
    {
      "midi": 77,
      "hit": false,
      "t": 344611.81625000335,
      "d": 123.92232291668188,
      "v": 75
    },
    {
      "midi": 75,
      "hit": false,
      "t": 344741.1265000034,
      "d": 123.92232291668188,
      "v": 75
    },
    {
      "midi": 77,
      "hit": false,
      "t": 344870.4367500034,
      "d": 123.92232291668188,
      "v": 75
    },
    {
      "midi": 68,
      "hit": false,
      "t": 344999.74700000347,
      "d": 253.23257291666232,
      "v": 75
    },
    {
      "midi": 76,
      "hit": false,
      "t": 345021.2987083368,
      "d": 123.92232291668188,
      "v": 75
    },
    {
      "midi": 77,
      "hit": false,
      "t": 345129.05725000345,
      "d": 123.92232291668188,
      "v": 75
    },
    {
      "midi": 74,
      "hit": false,
      "t": 345258.3675000035,
      "d": 123.92232291668188,
      "v": 75
    },
    {
      "midi": 64,
      "hit": false,
      "t": 345258.3675000035,
      "d": 253.23257291672053,
      "v": 75
    },
    {
      "midi": 76,
      "hit": false,
      "t": 345387.6777500035,
      "d": 123.92232291668188,
      "v": 75
    },
    {
      "midi": 72,
      "hit": false,
      "t": 345516.98800000356,
      "d": 123.92232291668188,
      "v": 75
    },
    {
      "midi": 69,
      "hit": false,
      "t": 345516.98800000356,
      "d": 511.8530729167978,
      "v": 75
    },
    {
      "midi": 74,
      "hit": false,
      "t": 345646.2982500036,
      "d": 123.92232291668188,
      "v": 75
    },
    {
      "midi": 76,
      "hit": false,
      "t": 345775.60850000364,
      "d": 123.92232291668188,
      "v": 75
    },
    {
      "midi": 74,
      "hit": false,
      "t": 345904.9187500037,
      "d": 123.92232291668188,
      "v": 75
    },
    {
      "midi": 72,
      "hit": false,
      "t": 346034.2290000037,
      "d": 123.92232291668188,
      "v": 75
    },
    {
      "midi": 71,
      "hit": false,
      "t": 346163.53925000376,
      "d": 123.92232291668188,
      "v": 75
    },
    {
      "midi": 69,
      "hit": false,
      "t": 346292.8495000038,
      "d": 123.92232291668188,
      "v": 76
    },
    {
      "midi": 68,
      "hit": false,
      "t": 346422.15975000383,
      "d": 123.92232291668188,
      "v": 76
    },
    {
      "midi": 48,
      "hit": false,
      "t": 346551.4699999962,
      "d": 1029.0940729166614,
      "v": 75
    },
    {
      "midi": 52,
      "hit": false,
      "t": 346551.4699999962,
      "d": 1029.0940729166614,
      "v": 75
    },
    {
      "midi": 57,
      "hit": false,
      "t": 346551.4699999962,
      "d": 1029.0940729166614,
      "v": 75
    },
    {
      "midi": 69,
      "hit": false,
      "t": 346551.4700000039,
      "d": 123.92232291668188,
      "v": 78
    },
    {
      "midi": 71,
      "hit": false,
      "t": 346680.7802500039,
      "d": 123.92232291668188,
      "v": 78
    },
    {
      "midi": 72,
      "hit": false,
      "t": 346810.09050000395,
      "d": 123.92232291668188,
      "v": 79
    },
    {
      "midi": 71,
      "hit": false,
      "t": 346939.400750004,
      "d": 123.92232291668188,
      "v": 79
    },
    {
      "midi": 69,
      "hit": false,
      "t": 347068.711000004,
      "d": 123.92232291668188,
      "v": 81
    },
    {
      "midi": 67,
      "hit": false,
      "t": 347198.02125000407,
      "d": 123.92232291668188,
      "v": 81
    },
    {
      "midi": 65,
      "hit": false,
      "t": 347327.3315000041,
      "d": 123.92232291668188,
      "v": 82
    },
    {
      "midi": 64,
      "hit": false,
      "t": 347456.64175000414,
      "d": 123.92232291668188,
      "v": 82
    },
    {
      "midi": 50,
      "hit": false,
      "t": 347585.9519999962,
      "d": 1029.0940729166614,
      "v": 75
    },
    {
      "midi": 53,
      "hit": false,
      "t": 347585.9519999962,
      "d": 1029.0940729166614,
      "v": 75
    },
    {
      "midi": 62,
      "hit": false,
      "t": 347585.9520000042,
      "d": 123.92232291668188,
      "v": 84
    },
    {
      "midi": 58,
      "hit": false,
      "t": 347715.2622500042,
      "d": 123.92232291668188,
      "v": 84
    },
    {
      "midi": 65,
      "hit": false,
      "t": 347844.57250000426,
      "d": 123.92232291668188,
      "v": 85
    },
    {
      "midi": 62,
      "hit": false,
      "t": 347973.8827500043,
      "d": 123.92232291668188,
      "v": 85
    },
    {
      "midi": 70,
      "hit": false,
      "t": 348103.19300000434,
      "d": 123.92232291668188,
      "v": 87
    },
    {
      "midi": 65,
      "hit": false,
      "t": 348232.5032500044,
      "d": 123.92232291668188,
      "v": 87
    },
    {
      "midi": 74,
      "hit": false,
      "t": 348361.8135000044,
      "d": 123.92232291668188,
      "v": 88
    },
    {
      "midi": 70,
      "hit": false,
      "t": 348491.12375000445,
      "d": 123.92232291668188,
      "v": 88
    },
    {
      "midi": 50,
      "hit": false,
      "t": 348620.4339999962,
      "d": 1029.0940729166614,
      "v": 90
    },
    {
      "midi": 53,
      "hit": false,
      "t": 348620.4339999962,
      "d": 1029.0940729166614,
      "v": 90
    },
    {
      "midi": 56,
      "hit": false,
      "t": 348620.4339999962,
      "d": 1029.0940729166614,
      "v": 90
    },
    {
      "midi": 59,
      "hit": false,
      "t": 348620.4339999962,
      "d": 1029.0940729166614,
      "v": 90
    },
    {
      "midi": 77,
      "hit": false,
      "t": 348620.4340000045,
      "d": 123.92232291668188,
      "v": 90
    },
    {
      "midi": 74,
      "hit": false,
      "t": 348749.7442500045,
      "d": 123.92232291668188,
      "v": 90
    },
    {
      "midi": 80,
      "hit": false,
      "t": 348879.05450000457,
      "d": 123.92232291668188,
      "v": 90
    },
    {
      "midi": 77,
      "hit": false,
      "t": 349008.3647500046,
      "d": 123.92232291668188,
      "v": 90
    },
    {
      "midi": 83,
      "hit": false,
      "t": 349137.67500000464,
      "d": 123.92232291668188,
      "v": 90
    },
    {
      "midi": 80,
      "hit": false,
      "t": 349266.9852500047,
      "d": 123.92232291668188,
      "v": 90
    },
    {
      "midi": 86,
      "hit": false,
      "t": 349396.2955000047,
      "d": 123.92232291668188,
      "v": 90
    },
    {
      "midi": 83,
      "hit": false,
      "t": 349525.60575000476,
      "d": 123.92232291668188,
      "v": 90
    },
    {
      "midi": 48,
      "hit": false,
      "t": 349654.91599999624,
      "d": 511.8530729166814,
      "v": 90
    },
    {
      "midi": 52,
      "hit": false,
      "t": 349654.91599999624,
      "d": 511.8530729166814,
      "v": 90
    },
    {
      "midi": 59,
      "hit": false,
      "t": 349654.91599999624,
      "d": 511.8530729166814,
      "v": 90
    },
    {
      "midi": 88,
      "hit": false,
      "t": 349654.9160000048,
      "d": 123.92232291668188,
      "v": 90
    },
    {
      "midi": 84,
      "hit": false,
      "t": 349784.22625000484,
      "d": 123.92232291668188,
      "v": 90
    },
    {
      "midi": 81,
      "hit": false,
      "t": 349913.5365000049,
      "d": 123.92232291668188,
      "v": 90
    },
    {
      "midi": 76,
      "hit": false,
      "t": 350042.8467500049,
      "d": 123.92232291668188,
      "v": 90
    },
    {
      "midi": 50,
      "hit": false,
      "t": 350172.1569999963,
      "d": 511.8530729166814,
      "v": 90
    },
    {
      "midi": 57,
      "hit": false,
      "t": 350172.1569999963,
      "d": 1029.0940729167196,
      "v": 90
    },
    {
      "midi": 79,
      "hit": false,
      "t": 350172.15700000495,
      "d": 123.92232291668188,
      "v": 90
    },
    {
      "midi": 77,
      "hit": false,
      "t": 350301.467250005,
      "d": 123.92232291668188,
      "v": 90
    },
    {
      "midi": 76,
      "hit": false,
      "t": 350430.77750000503,
      "d": 123.92232291668188,
      "v": 90
    },
    {
      "midi": 74,
      "hit": false,
      "t": 350560.08775000507,
      "d": 123.92232291668188,
      "v": 90
    },
    {
      "midi": 52,
      "hit": false,
      "t": 350689.3979999963,
      "d": 511.8530729166814,
      "v": 90
    },
    {
      "midi": 72,
      "hit": false,
      "t": 350689.3980000051,
      "d": 511.8530729166814,
      "v": 90
    },
    {
      "midi": 52,
      "hit": false,
      "t": 351206.63899999636,
      "d": 511.8530729166814,
      "v": 90
    },
    {
      "midi": 56,
      "hit": false,
      "t": 351206.63899999636,
      "d": 511.8530729166814,
      "v": 90
    },
    {
      "midi": 72,
      "hit": false,
      "t": 351206.63900000515,
      "d": 59.26719791669166,
      "v": 90
    },
    {
      "midi": 71,
      "hit": false,
      "t": 351271.2941250052,
      "d": 59.26719791669166,
      "v": 90
    },
    {
      "midi": 72,
      "hit": false,
      "t": 351335.94925000524,
      "d": 59.26719791669166,
      "v": 90
    },
    {
      "midi": 71,
      "hit": false,
      "t": 351400.6043750053,
      "d": 59.26719791669166,
      "v": 90
    },
    {
      "midi": 69,
      "hit": false,
      "t": 351465.25950000534,
      "d": 123.92232291668188,
      "v": 90
    },
    {
      "midi": 71,
      "hit": false,
      "t": 351594.5697500054,
      "d": 123.92232291668188,
      "v": 90
    },
    {
      "midi": 69,
      "hit": false,
      "t": 351723.8800000054,
      "d": 123.92232291668188,
      "v": 67
    },
    {
      "midi": 69,
      "hit": false,
      "t": 351853.19025000546,
      "d": 123.92232291668188,
      "v": 60
    },
    {
      "midi": 67,
      "hit": false,
      "t": 351982.5005000055,
      "d": 123.92232291668188,
      "v": 60
    },
    {
      "midi": 65,
      "hit": false,
      "t": 352111.81075000553,
      "d": 123.92232291668188,
      "v": 60
    },
    {
      "midi": 64,
      "hit": false,
      "t": 352241.1210000056,
      "d": 123.92232291668188,
      "v": 60
    },
    {
      "midi": 65,
      "hit": false,
      "t": 352370.4312500056,
      "d": 123.92232291668188,
      "v": 60
    },
    {
      "midi": 63,
      "hit": false,
      "t": 352499.74150000565,
      "d": 123.92232291668188,
      "v": 60
    },
    {
      "midi": 65,
      "hit": false,
      "t": 352629.0517500057,
      "d": 123.92232291668188,
      "v": 60
    },
    {
      "midi": 64,
      "hit": false,
      "t": 352758.3620000057,
      "d": 123.92232291668188,
      "v": 60
    },
    {
      "midi": 65,
      "hit": false,
      "t": 352887.67225000577,
      "d": 123.92232291668188,
      "v": 60
    },
    {
      "midi": 63,
      "hit": false,
      "t": 353016.9825000058,
      "d": 123.92232291668188,
      "v": 60
    },
    {
      "midi": 65,
      "hit": false,
      "t": 353146.29275000584,
      "d": 123.92232291668188,
      "v": 60
    },
    {
      "midi": 64,
      "hit": false,
      "t": 353275.6030000059,
      "d": 123.92232291668188,
      "v": 60
    },
    {
      "midi": 80,
      "hit": false,
      "t": 353275.6030000059,
      "d": 253.23257291672053,
      "v": 67
    },
    {
      "midi": 71,
      "hit": false,
      "t": 353275.6030000059,
      "d": 511.8530729167978,
      "v": 67
    },
    {
      "midi": 65,
      "hit": false,
      "t": 353404.9132500059,
      "d": 123.92232291668188,
      "v": 60
    },
    {
      "midi": 62,
      "hit": false,
      "t": 353534.22350000596,
      "d": 123.92232291668188,
      "v": 60
    },
    {
      "midi": 76,
      "hit": false,
      "t": 353534.22350000596,
      "d": 253.23257291672053,
      "v": 67
    },
    {
      "midi": 65,
      "hit": false,
      "t": 353663.533750006,
      "d": 123.92232291668188,
      "v": 60
    },
    {
      "midi": 60,
      "hit": false,
      "t": 353792.84400000604,
      "d": 123.92232291668188,
      "v": 75
    },
    {
      "midi": 72,
      "hit": false,
      "t": 353792.84400000604,
      "d": 511.8530729167978,
      "v": 82
    },
    {
      "midi": 81,
      "hit": false,
      "t": 353792.84400000604,
      "d": 511.8530729167978,
      "v": 82
    },
    {
      "midi": 69,
      "hit": false,
      "t": 353922.1542500061,
      "d": 123.92232291668188,
      "v": 75
    },
    {
      "midi": 67,
      "hit": false,
      "t": 354051.4645000061,
      "d": 123.92232291668188,
      "v": 75
    },
    {
      "midi": 65,
      "hit": false,
      "t": 354180.77475000615,
      "d": 123.92232291668188,
      "v": 75
    },
    {
      "midi": 64,
      "hit": false,
      "t": 354310.0850000062,
      "d": 123.92232291668188,
      "v": 75
    },
    {
      "midi": 65,
      "hit": false,
      "t": 354439.39525000623,
      "d": 123.92232291668188,
      "v": 75
    },
    {
      "midi": 63,
      "hit": false,
      "t": 354568.70550000627,
      "d": 123.92232291668188,
      "v": 75
    },
    {
      "midi": 65,
      "hit": false,
      "t": 354698.0157500063,
      "d": 123.92232291668188,
      "v": 75
    },
    {
      "midi": 64,
      "hit": false,
      "t": 354827.32600000635,
      "d": 123.92232291668188,
      "v": 75
    },
    {
      "midi": 65,
      "hit": false,
      "t": 354956.6362500064,
      "d": 123.92232291668188,
      "v": 75
    },
    {
      "midi": 63,
      "hit": false,
      "t": 355085.9465000064,
      "d": 123.92232291668188,
      "v": 75
    },
    {
      "midi": 65,
      "hit": false,
      "t": 355215.25675000646,
      "d": 123.92232291668188,
      "v": 75
    },
    {
      "midi": 64,
      "hit": false,
      "t": 355344.5670000065,
      "d": 123.92232291668188,
      "v": 75
    },
    {
      "midi": 80,
      "hit": false,
      "t": 355344.5670000065,
      "d": 253.23257291672053,
      "v": 82
    },
    {
      "midi": 71,
      "hit": false,
      "t": 355344.5670000065,
      "d": 511.8530729167978,
      "v": 82
    },
    {
      "midi": 65,
      "hit": false,
      "t": 355473.87725000654,
      "d": 123.92232291668188,
      "v": 75
    },
    {
      "midi": 62,
      "hit": false,
      "t": 355603.1875000066,
      "d": 123.92232291668188,
      "v": 75
    },
    {
      "midi": 76,
      "hit": false,
      "t": 355603.1875000066,
      "d": 253.23257291672053,
      "v": 82
    },
    {
      "midi": 65,
      "hit": false,
      "t": 355732.4977500066,
      "d": 123.92232291668188,
      "v": 75
    },
    {
      "midi": 60,
      "hit": false,
      "t": 355861.80799999635,
      "d": 123.92232291668188,
      "v": 75
    },
    {
      "midi": 72,
      "hit": false,
      "t": 355861.80800000665,
      "d": 511.8530729166814,
      "v": 75
    },
    {
      "midi": 81,
      "hit": false,
      "t": 355861.80800000665,
      "d": 511.8530729166814,
      "v": 75
    },
    {
      "midi": 62,
      "hit": false,
      "t": 355991.1182499964,
      "d": 123.92232291668188,
      "v": 75
    },
    {
      "midi": 59,
      "hit": false,
      "t": 356120.42849999643,
      "d": 123.92232291668188,
      "v": 75
    },
    {
      "midi": 60,
      "hit": false,
      "t": 356249.73874999647,
      "d": 123.92232291668188,
      "v": 75
    },
    {
      "midi": 57,
      "hit": false,
      "t": 356379.0489999965,
      "d": 123.92232291668188,
      "v": 75
    },
    {
      "midi": 77,
      "hit": false,
      "t": 356379.0490000067,
      "d": 59.26719791669166,
      "v": 75
    },
    {
      "midi": 76,
      "hit": false,
      "t": 356443.70412500674,
      "d": 59.26719791669166,
      "v": 75
    },
    {
      "midi": 59,
      "hit": false,
      "t": 356508.35924999655,
      "d": 123.92232291668188,
      "v": 75
    },
    {
      "midi": 77,
      "hit": false,
      "t": 356508.3592500068,
      "d": 59.26719791669166,
      "v": 75
    },
    {
      "midi": 76,
      "hit": false,
      "t": 356573.01437500684,
      "d": 59.26719791669166,
      "v": 75
    },
    {
      "midi": 55,
      "hit": false,
      "t": 356637.6694999966,
      "d": 123.92232291668188,
      "v": 75
    },
    {
      "midi": 77,
      "hit": false,
      "t": 356637.6695000069,
      "d": 59.26719791669166,
      "v": 75
    },
    {
      "midi": 76,
      "hit": false,
      "t": 356702.32462500694,
      "d": 59.26719791669166,
      "v": 75
    },
    {
      "midi": 57,
      "hit": false,
      "t": 356766.9797499966,
      "d": 123.92232291668188,
      "v": 75
    },
    {
      "midi": 74,
      "hit": false,
      "t": 356766.979750007,
      "d": 59.26719791669166,
      "v": 75
    },
    {
      "midi": 76,
      "hit": false,
      "t": 356831.63487500703,
      "d": 59.26719791669166,
      "v": 75
    },
    {
      "midi": 53,
      "hit": false,
      "t": 356896.28999999666,
      "d": 123.92232291668188,
      "v": 75
    },
    {
      "midi": 81,
      "hit": false,
      "t": 356917.8417083404,
      "d": 1546.3350729170488,
      "v": 75
    },
    {
      "midi": 55,
      "hit": false,
      "t": 357025.6002499967,
      "d": 123.92232291668188,
      "v": 75
    },
    {
      "midi": 52,
      "hit": false,
      "t": 357154.91049999674,
      "d": 123.92232291668188,
      "v": 75
    },
    {
      "midi": 53,
      "hit": false,
      "t": 357284.2207499968,
      "d": 123.92232291668188,
      "v": 75
    },
    {
      "midi": 50,
      "hit": false,
      "t": 357413.5309999968,
      "d": 123.92232291668188,
      "v": 76
    },
    {
      "midi": 74,
      "hit": false,
      "t": 357413.53100000706,
      "d": 59.26719791669166,
      "v": 78
    },
    {
      "midi": 72,
      "hit": false,
      "t": 357478.1861250071,
      "d": 59.26719791669166,
      "v": 78
    },
    {
      "midi": 52,
      "hit": false,
      "t": 357542.84124999685,
      "d": 123.92232291668188,
      "v": 76
    },
    {
      "midi": 74,
      "hit": false,
      "t": 357542.84125000716,
      "d": 59.26719791669166,
      "v": 79
    },
    {
      "midi": 72,
      "hit": false,
      "t": 357607.4963750072,
      "d": 59.26719791669166,
      "v": 79
    },
    {
      "midi": 48,
      "hit": false,
      "t": 357672.1514999969,
      "d": 123.92232291668188,
      "v": 76
    },
    {
      "midi": 74,
      "hit": false,
      "t": 357672.15150000725,
      "d": 59.26719791669166,
      "v": 81
    },
    {
      "midi": 72,
      "hit": false,
      "t": 357736.8066250073,
      "d": 59.26719791669166,
      "v": 81
    },
    {
      "midi": 50,
      "hit": false,
      "t": 357801.46174999693,
      "d": 123.92232291668188,
      "v": 76
    },
    {
      "midi": 71,
      "hit": false,
      "t": 357801.46175000735,
      "d": 59.26719791669166,
      "v": 82
    },
    {
      "midi": 72,
      "hit": false,
      "t": 357866.1168750074,
      "d": 59.26719791669166,
      "v": 82
    },
    {
      "midi": 47,
      "hit": false,
      "t": 357930.77199999697,
      "d": 123.92232291668188,
      "v": 78
    },
    {
      "midi": 74,
      "hit": false,
      "t": 357930.77200000745,
      "d": 1546.3350729167578,
      "v": 84
    },
    {
      "midi": 48,
      "hit": false,
      "t": 358060.082249997,
      "d": 123.92232291668188,
      "v": 78
    },
    {
      "midi": 45,
      "hit": false,
      "t": 358189.39249999705,
      "d": 123.92232291668188,
      "v": 79
    },
    {
      "midi": 47,
      "hit": false,
      "t": 358318.7027499971,
      "d": 123.92232291668188,
      "v": 79
    },
    {
      "midi": 44,
      "hit": false,
      "t": 358448.0129999971,
      "d": 123.92232291668188,
      "v": 81
    },
    {
      "midi": 83,
      "hit": false,
      "t": 358448.0130000074,
      "d": 382.54282291670097,
      "v": 85
    },
    {
      "midi": 45,
      "hit": false,
      "t": 358577.32324999716,
      "d": 123.92232291668188,
      "v": 81
    },
    {
      "midi": 42,
      "hit": false,
      "t": 358706.6334999972,
      "d": 123.92232291668188,
      "v": 82
    },
    {
      "midi": 44,
      "hit": false,
      "t": 358835.94374999724,
      "d": 123.92232291668188,
      "v": 82
    },
    {
      "midi": 84,
      "hit": false,
      "t": 358835.9437500075,
      "d": 123.92232291668188,
      "v": 85
    },
    {
      "midi": 40,
      "hit": false,
      "t": 358965.2539999973,
      "d": 123.92232291668188,
      "v": 84
    },
    {
      "midi": 86,
      "hit": false,
      "t": 358965.2540000075,
      "d": 511.8530729166814,
      "v": 85
    },
    {
      "midi": 41,
      "hit": false,
      "t": 359094.5642499973,
      "d": 123.92232291668188,
      "v": 84
    },
    {
      "midi": 38,
      "hit": false,
      "t": 359223.87449999736,
      "d": 123.92232291668188,
      "v": 85
    },
    {
      "midi": 40,
      "hit": false,
      "t": 359353.1847499974,
      "d": 123.92232291668188,
      "v": 85
    },
    {
      "midi": 36,
      "hit": false,
      "t": 359482.49499999743,
      "d": 123.92232291668188,
      "v": 87
    },
    {
      "midi": 81,
      "hit": false,
      "t": 359482.49500000756,
      "d": 59.26719791669166,
      "v": 87
    },
    {
      "midi": 76,
      "hit": false,
      "t": 359482.49500000756,
      "d": 511.85307291703066,
      "v": 87
    },
    {
      "midi": 80,
      "hit": false,
      "t": 359547.1501250076,
      "d": 59.26719791669166,
      "v": 87
    },
    {
      "midi": 38,
      "hit": false,
      "t": 359611.8052499975,
      "d": 123.92232291668188,
      "v": 87
    },
    {
      "midi": 81,
      "hit": false,
      "t": 359611.80525000766,
      "d": 59.26719791669166,
      "v": 87
    },
    {
      "midi": 80,
      "hit": false,
      "t": 359676.4603750077,
      "d": 59.26719791669166,
      "v": 87
    },
    {
      "midi": 35,
      "hit": false,
      "t": 359741.1154999975,
      "d": 123.92232291668188,
      "v": 88
    },
    {
      "midi": 81,
      "hit": false,
      "t": 359741.11550000776,
      "d": 59.26719791669166,
      "v": 88
    },
    {
      "midi": 80,
      "hit": false,
      "t": 359805.7706250078,
      "d": 59.26719791669166,
      "v": 88
    },
    {
      "midi": 38,
      "hit": false,
      "t": 359870.42574999755,
      "d": 123.92232291668188,
      "v": 88
    },
    {
      "midi": 78,
      "hit": false,
      "t": 359870.42575000785,
      "d": 59.26719791669166,
      "v": 90
    },
    {
      "midi": 80,
      "hit": false,
      "t": 359935.0808750079,
      "d": 59.26719791669166,
      "v": 90
    },
    {
      "midi": 36,
      "hit": false,
      "t": 359999.7359999976,
      "d": 253.23257291666232,
      "v": 90
    },
    {
      "midi": 76,
      "hit": false,
      "t": 359999.73600000795,
      "d": 123.92232291668188,
      "v": 94
    },
    {
      "midi": 81,
      "hit": false,
      "t": 359999.73600000795,
      "d": 123.92232291668188,
      "v": 90
    },
    {
      "midi": 80,
      "hit": false,
      "t": 360129.046250008,
      "d": 123.92232291668188,
      "v": 90
    },
    {
      "midi": 81,
      "hit": false,
      "t": 360258.356500008,
      "d": 123.92232291668188,
      "v": 90
    },
    {
      "midi": 76,
      "hit": false,
      "t": 360387.66675000807,
      "d": 123.92232291668188,
      "v": 90
    },
    {
      "midi": 38,
      "hit": false,
      "t": 360516.97699999757,
      "d": 253.23257291666232,
      "v": 90
    },
    {
      "midi": 72,
      "hit": false,
      "t": 360516.9770000081,
      "d": 123.92232291668188,
      "v": 94
    },
    {
      "midi": 79,
      "hit": false,
      "t": 360516.9770000081,
      "d": 123.92232291668188,
      "v": 90
    },
    {
      "midi": 77,
      "hit": false,
      "t": 360646.28725000814,
      "d": 123.92232291668188,
      "v": 90
    },
    {
      "midi": 76,
      "hit": false,
      "t": 360775.5975000082,
      "d": 123.92232291668188,
      "v": 90
    },
    {
      "midi": 74,
      "hit": false,
      "t": 360904.9077500082,
      "d": 123.92232291668188,
      "v": 90
    },
    {
      "midi": 40,
      "hit": false,
      "t": 361034.21799999755,
      "d": 253.23257291666232,
      "v": 90
    },
    {
      "midi": 69,
      "hit": false,
      "t": 361034.21800000826,
      "d": 123.92232291668188,
      "v": 94
    },
    {
      "midi": 72,
      "hit": false,
      "t": 361034.21800000826,
      "d": 123.92232291668188,
      "v": 90
    },
    {
      "midi": 74,
      "hit": false,
      "t": 361163.5282500083,
      "d": 123.92232291668188,
      "v": 90
    },
    {
      "midi": 76,
      "hit": false,
      "t": 361292.83850000834,
      "d": 123.92232291668188,
      "v": 90
    },
    {
      "midi": 72,
      "hit": false,
      "t": 361422.1487500084,
      "d": 123.92232291668188,
      "v": 90
    },
    {
      "midi": 40,
      "hit": false,
      "t": 361551.4589999975,
      "d": 253.23257291666232,
      "v": 90
    },
    {
      "midi": 68,
      "hit": false,
      "t": 361551.4590000084,
      "d": 123.92232291668188,
      "v": 94
    },
    {
      "midi": 71,
      "hit": false,
      "t": 361551.4590000084,
      "d": 123.92232291668188,
      "v": 90
    },
    {
      "midi": 72,
      "hit": false,
      "t": 361680.76925000845,
      "d": 123.92232291668188,
      "v": 90
    },
    {
      "midi": 74,
      "hit": false,
      "t": 361810.0795000085,
      "d": 123.92232291668188,
      "v": 90
    },
    {
      "midi": 71,
      "hit": false,
      "t": 361939.38975000853,
      "d": 123.92232291668188,
      "v": 90
    },
    {
      "midi": 50,
      "hit": false,
      "t": 362068.6999999975,
      "d": 2063.5760729166795,
      "v": 90
    },
    {
      "midi": 53,
      "hit": false,
      "t": 362068.6999999975,
      "d": 2063.5760729166795,
      "v": 90
    },
    {
      "midi": 56,
      "hit": false,
      "t": 362068.6999999975,
      "d": 2063.5760729166795,
      "v": 90
    },
    {
      "midi": 59,
      "hit": false,
      "t": 362068.6999999975,
      "d": 2063.5760729166795,
      "v": 90
    },
    {
      "midi": 86,
      "hit": false,
      "t": 362068.70000000857,
      "d": 123.92232291668188,
      "v": 105
    },
    {
      "midi": 89,
      "hit": false,
      "t": 362198.0102500086,
      "d": 123.92232291668188,
      "v": 105
    },
    {
      "midi": 83,
      "hit": false,
      "t": 362327.32050000865,
      "d": 123.92232291668188,
      "v": 105
    },
    {
      "midi": 86,
      "hit": false,
      "t": 362456.6307500087,
      "d": 123.92232291668188,
      "v": 105
    },
    {
      "midi": 80,
      "hit": false,
      "t": 362585.9410000087,
      "d": 123.92232291668188,
      "v": 105
    },
    {
      "midi": 83,
      "hit": false,
      "t": 362715.25125000876,
      "d": 123.92232291668188,
      "v": 105
    },
    {
      "midi": 77,
      "hit": false,
      "t": 362844.5615000088,
      "d": 123.92232291668188,
      "v": 105
    },
    {
      "midi": 80,
      "hit": false,
      "t": 362973.87175000884,
      "d": 123.92232291668188,
      "v": 105
    },
    {
      "midi": 74,
      "hit": false,
      "t": 363103.1820000089,
      "d": 123.92232291668188,
      "v": 105
    },
    {
      "midi": 77,
      "hit": false,
      "t": 363232.4922500089,
      "d": 123.92232291668188,
      "v": 105
    },
    {
      "midi": 71,
      "hit": false,
      "t": 363361.80250000895,
      "d": 123.92232291668188,
      "v": 105
    },
    {
      "midi": 74,
      "hit": false,
      "t": 363491.112750009,
      "d": 123.92232291668188,
      "v": 105
    },
    {
      "midi": 68,
      "hit": false,
      "t": 363620.42300000903,
      "d": 123.92232291668188,
      "v": 105
    },
    {
      "midi": 71,
      "hit": false,
      "t": 363749.73325000907,
      "d": 123.92232291668188,
      "v": 105
    },
    {
      "midi": 65,
      "hit": false,
      "t": 363879.0435000091,
      "d": 123.92232291668188,
      "v": 105
    },
    {
      "midi": 68,
      "hit": false,
      "t": 364008.35375000915,
      "d": 123.92232291668188,
      "v": 105
    },
    {
      "midi": 60,
      "hit": false,
      "t": 364137.66399999755,
      "d": 123.92232291668188,
      "v": 105
    },
    {
      "midi": 72,
      "hit": false,
      "t": 364137.6640000092,
      "d": 2063.5760729166795,
      "v": 90
    },
    {
      "midi": 75,
      "hit": false,
      "t": 364137.6640000092,
      "d": 2063.5760729166795,
      "v": 90
    },
    {
      "midi": 78,
      "hit": false,
      "t": 364137.6640000092,
      "d": 2063.5760729166795,
      "v": 90
    },
    {
      "midi": 81,
      "hit": false,
      "t": 364137.6640000092,
      "d": 2063.5760729166795,
      "v": 90
    },
    {
      "midi": 84,
      "hit": false,
      "t": 364137.6640000092,
      "d": 2063.5760729166795,
      "v": 90
    },
    {
      "midi": 63,
      "hit": false,
      "t": 364266.9742499976,
      "d": 123.92232291668188,
      "v": 105
    },
    {
      "midi": 57,
      "hit": false,
      "t": 364396.2844999976,
      "d": 123.92232291668188,
      "v": 105
    },
    {
      "midi": 60,
      "hit": false,
      "t": 364525.59474999766,
      "d": 123.92232291668188,
      "v": 105
    },
    {
      "midi": 54,
      "hit": false,
      "t": 364654.9049999977,
      "d": 123.92232291668188,
      "v": 105
    },
    {
      "midi": 57,
      "hit": false,
      "t": 364784.21524999774,
      "d": 123.92232291668188,
      "v": 105
    },
    {
      "midi": 51,
      "hit": false,
      "t": 364913.5254999978,
      "d": 123.92232291668188,
      "v": 105
    },
    {
      "midi": 54,
      "hit": false,
      "t": 365042.8357499978,
      "d": 123.92232291668188,
      "v": 105
    },
    {
      "midi": 48,
      "hit": false,
      "t": 365172.14599999785,
      "d": 123.92232291668188,
      "v": 105
    },
    {
      "midi": 51,
      "hit": false,
      "t": 365301.4562499979,
      "d": 123.92232291668188,
      "v": 105
    },
    {
      "midi": 45,
      "hit": false,
      "t": 365430.76649999793,
      "d": 123.92232291668188,
      "v": 105
    },
    {
      "midi": 48,
      "hit": false,
      "t": 365560.07674999797,
      "d": 123.92232291668188,
      "v": 105
    },
    {
      "midi": 42,
      "hit": false,
      "t": 365689.386999998,
      "d": 123.92232291668188,
      "v": 105
    },
    {
      "midi": 45,
      "hit": false,
      "t": 365818.69724999805,
      "d": 123.92232291668188,
      "v": 105
    },
    {
      "midi": 39,
      "hit": false,
      "t": 365948.0074999981,
      "d": 123.92232291668188,
      "v": 105
    },
    {
      "midi": 42,
      "hit": false,
      "t": 366077.3177499981,
      "d": 123.92232291668188,
      "v": 105
    },
    {
      "midi": 40,
      "hit": false,
      "t": 366206.62799999816,
      "d": 511.8530729166814,
      "v": 105
    },
    {
      "midi": 81,
      "hit": false,
      "t": 366335.9382500092,
      "d": 123.92232291668188,
      "v": 90
    },
    {
      "midi": 76,
      "hit": false,
      "t": 366465.24850000924,
      "d": 123.92232291668188,
      "v": 90
    },
    {
      "midi": 72,
      "hit": false,
      "t": 366594.5587500093,
      "d": 123.92232291668188,
      "v": 90
    },
    {
      "midi": 69,
      "hit": false,
      "t": 366723.8690000093,
      "d": 123.92232291668188,
      "v": 90
    },
    {
      "midi": 52,
      "hit": false,
      "t": 366853.1792499982,
      "d": 123.92232291668188,
      "v": 90
    },
    {
      "midi": 64,
      "hit": false,
      "t": 366853.17925000936,
      "d": 123.92232291668188,
      "v": 90
    },
    {
      "midi": 48,
      "hit": false,
      "t": 366982.4894999982,
      "d": 123.92232291668188,
      "v": 90
    },
    {
      "midi": 60,
      "hit": false,
      "t": 366982.4895000094,
      "d": 123.92232291668188,
      "v": 90
    },
    {
      "midi": 45,
      "hit": false,
      "t": 367111.79974999826,
      "d": 123.92232291668188,
      "v": 90
    },
    {
      "midi": 57,
      "hit": false,
      "t": 367111.79975000944,
      "d": 123.92232291668188,
      "v": 90
    },
    {
      "midi": 40,
      "hit": false,
      "t": 367241.1099999983,
      "d": 511.8530729166814,
      "v": 90
    },
    {
      "midi": 64,
      "hit": false,
      "t": 367241.1100000095,
      "d": 511.8530729166814,
      "v": 90
    },
    {
      "midi": 52,
      "hit": false,
      "t": 367758.35099999834,
      "d": 511.8530729166814,
      "v": 90
    },
    {
      "midi": 64,
      "hit": false,
      "t": 367758.3510000095,
      "d": 511.8530729166814,
      "v": 90
    },
    {
      "midi": 68,
      "hit": false,
      "t": 367758.3510000095,
      "d": 511.8530729166814,
      "v": 90
    },
    {
      "midi": 71,
      "hit": false,
      "t": 367758.3510000095,
      "d": 511.8530729166814,
      "v": 90
    },
    {
      "midi": 76,
      "hit": false,
      "t": 367758.3510000095,
      "d": 511.8530729166814,
      "v": 90
    },
    {
      "midi": 57,
      "hit": false,
      "t": 368275.5919999984,
      "d": 123.92232291668188,
      "v": 60
    },
    {
      "midi": 69,
      "hit": false,
      "t": 368275.59200000955,
      "d": 511.8530729166814,
      "v": 60
    },
    {
      "midi": 59,
      "hit": false,
      "t": 368404.9022499984,
      "d": 123.92232291668188,
      "v": 60
    },
    {
      "midi": 60,
      "hit": false,
      "t": 368534.21249999845,
      "d": 123.92232291668188,
      "v": 60
    },
    {
      "midi": 59,
      "hit": false,
      "t": 368663.5227499985,
      "d": 123.92232291668188,
      "v": 60
    },
    {
      "midi": 57,
      "hit": false,
      "t": 368792.8329999985,
      "d": 123.92232291668188,
      "v": 60
    },
    {
      "midi": 69,
      "hit": false,
      "t": 368792.8330000096,
      "d": 382.54282291664276,
      "v": 60
    },
    {
      "midi": 72,
      "hit": false,
      "t": 368792.8330000096,
      "d": 382.54282291664276,
      "v": 60
    },
    {
      "midi": 55,
      "hit": false,
      "t": 368922.14324999857,
      "d": 123.92232291668188,
      "v": 60
    },
    {
      "midi": 53,
      "hit": false,
      "t": 369051.4534999986,
      "d": 123.92232291668188,
      "v": 60
    },
    {
      "midi": 52,
      "hit": false,
      "t": 369180.76374999864,
      "d": 123.92232291668188,
      "v": 60
    },
    {
      "midi": 69,
      "hit": false,
      "t": 369180.7637500096,
      "d": 123.92232291668188,
      "v": 60
    },
    {
      "midi": 72,
      "hit": false,
      "t": 369180.7637500096,
      "d": 123.92232291668188,
      "v": 60
    },
    {
      "midi": 53,
      "hit": false,
      "t": 369310.0739999987,
      "d": 123.92232291668188,
      "v": 60
    },
    {
      "midi": 69,
      "hit": false,
      "t": 369310.0740000096,
      "d": 511.8530729166814,
      "v": 60
    },
    {
      "midi": 72,
      "hit": false,
      "t": 369310.0740000096,
      "d": 511.8530729166814,
      "v": 60
    },
    {
      "midi": 55,
      "hit": false,
      "t": 369439.3842499987,
      "d": 123.92232291668188,
      "v": 60
    },
    {
      "midi": 57,
      "hit": false,
      "t": 369568.69449999876,
      "d": 123.92232291668188,
      "v": 60
    },
    {
      "midi": 55,
      "hit": false,
      "t": 369698.0047499988,
      "d": 123.92232291668188,
      "v": 60
    },
    {
      "midi": 53,
      "hit": false,
      "t": 369827.31499999884,
      "d": 123.92232291668188,
      "v": 60
    },
    {
      "midi": 69,
      "hit": false,
      "t": 369827.31500000966,
      "d": 382.54282291664276,
      "v": 60
    },
    {
      "midi": 72,
      "hit": false,
      "t": 369827.31500000966,
      "d": 382.54282291664276,
      "v": 60
    },
    {
      "midi": 52,
      "hit": false,
      "t": 369956.6252499989,
      "d": 123.92232291668188,
      "v": 60
    },
    {
      "midi": 50,
      "hit": false,
      "t": 370085.9354999989,
      "d": 123.92232291668188,
      "v": 60
    },
    {
      "midi": 48,
      "hit": false,
      "t": 370215.24574999895,
      "d": 123.92232291668188,
      "v": 60
    },
    {
      "midi": 69,
      "hit": false,
      "t": 370215.24575000966,
      "d": 123.92232291668188,
      "v": 60
    },
    {
      "midi": 72,
      "hit": false,
      "t": 370215.24575000966,
      "d": 123.92232291668188,
      "v": 60
    },
    {
      "midi": 50,
      "hit": false,
      "t": 370344.555999999,
      "d": 123.92232291668188,
      "v": 75
    },
    {
      "midi": 69,
      "hit": false,
      "t": 370344.5560000097,
      "d": 511.8530729166814,
      "v": 75
    },
    {
      "midi": 71,
      "hit": false,
      "t": 370344.5560000097,
      "d": 511.8530729166814,
      "v": 75
    },
    {
      "midi": 52,
      "hit": false,
      "t": 370473.86624999903,
      "d": 123.92232291668188,
      "v": 75
    },
    {
      "midi": 53,
      "hit": false,
      "t": 370603.17649999907,
      "d": 123.92232291668188,
      "v": 75
    },
    {
      "midi": 52,
      "hit": false,
      "t": 370732.4867499991,
      "d": 123.92232291668188,
      "v": 75
    },
    {
      "midi": 50,
      "hit": false,
      "t": 370861.79699999915,
      "d": 123.92232291668188,
      "v": 75
    },
    {
      "midi": 69,
      "hit": false,
      "t": 370861.79700000974,
      "d": 382.54282291664276,
      "v": 75
    },
    {
      "midi": 47,
      "hit": false,
      "t": 370991.1072499992,
      "d": 123.92232291668188,
      "v": 75
    },
    {
      "midi": 48,
      "hit": false,
      "t": 371120.4174999992,
      "d": 123.92232291668188,
      "v": 75
    },
    {
      "midi": 50,
      "hit": false,
      "t": 371249.72774999926,
      "d": 123.92232291668188,
      "v": 75
    },
    {
      "midi": 71,
      "hit": false,
      "t": 371249.72775000974,
      "d": 16.163781250012107,
      "v": 75
    },
    {
      "midi": 69,
      "hit": false,
      "t": 371249.72775000974,
      "d": 123.92232291668188,
      "v": 75
    },
    {
      "midi": 52,
      "hit": false,
      "t": 371379.0379999993,
      "d": 123.92232291668188,
      "v": 75
    },
    {
      "midi": 68,
      "hit": false,
      "t": 371379.0380000098,
      "d": 511.8530729166814,
      "v": 75
    },
    {
      "midi": 71,
      "hit": false,
      "t": 371379.0380000098,
      "d": 511.8530729166814,
      "v": 75
    },
    {
      "midi": 76,
      "hit": false,
      "t": 371379.0380000098,
      "d": 511.8530729166814,
      "v": 75
    },
    {
      "midi": 51,
      "hit": false,
      "t": 371508.34824999934,
      "d": 123.92232291668188,
      "v": 75
    },
    {
      "midi": 52,
      "hit": false,
      "t": 371637.6584999994,
      "d": 123.92232291668188,
      "v": 75
    },
    {
      "midi": 51,
      "hit": false,
      "t": 371766.9687499994,
      "d": 123.92232291668188,
      "v": 75
    },
    {
      "midi": 52,
      "hit": false,
      "t": 371896.27899999946,
      "d": 123.92232291668188,
      "v": 75
    },
    {
      "midi": 68,
      "hit": false,
      "t": 371896.2790000098,
      "d": 382.54282291664276,
      "v": 75
    },
    {
      "midi": 71,
      "hit": false,
      "t": 371896.2790000098,
      "d": 382.54282291664276,
      "v": 75
    },
    {
      "midi": 76,
      "hit": false,
      "t": 371896.2790000098,
      "d": 382.54282291664276,
      "v": 75
    },
    {
      "midi": 50,
      "hit": false,
      "t": 372025.5892499995,
      "d": 123.92232291668188,
      "v": 75
    },
    {
      "midi": 48,
      "hit": false,
      "t": 372154.89949999953,
      "d": 123.92232291668188,
      "v": 75
    },
    {
      "midi": 47,
      "hit": false,
      "t": 372284.2097499996,
      "d": 123.92232291668188,
      "v": 75
    },
    {
      "midi": 68,
      "hit": false,
      "t": 372284.2097500098,
      "d": 123.92232291668188,
      "v": 75
    },
    {
      "midi": 71,
      "hit": false,
      "t": 372284.2097500098,
      "d": 123.92232291668188,
      "v": 75
    },
    {
      "midi": 76,
      "hit": false,
      "t": 372284.2097500098,
      "d": 123.92232291668188,
      "v": 75
    },
    {
      "midi": 45,
      "hit": false,
      "t": 372413.5199999996,
      "d": 123.92232291668188,
      "v": 90
    },
    {
      "midi": 69,
      "hit": false,
      "t": 372413.52000000986,
      "d": 511.8530729166814,
      "v": 90
    },
    {
      "midi": 72,
      "hit": false,
      "t": 372413.52000000986,
      "d": 511.8530729166814,
      "v": 90
    },
    {
      "midi": 47,
      "hit": false,
      "t": 372542.83024999965,
      "d": 123.92232291668188,
      "v": 90
    },
    {
      "midi": 48,
      "hit": false,
      "t": 372672.1404999997,
      "d": 123.92232291668188,
      "v": 90
    },
    {
      "midi": 47,
      "hit": false,
      "t": 372801.4507499997,
      "d": 123.92232291668188,
      "v": 90
    },
    {
      "midi": 45,
      "hit": false,
      "t": 372930.76099999977,
      "d": 123.92232291668188,
      "v": 90
    },
    {
      "midi": 69,
      "hit": false,
      "t": 372930.7610000099,
      "d": 382.54282291664276,
      "v": 90
    },
    {
      "midi": 72,
      "hit": false,
      "t": 372930.7610000099,
      "d": 382.54282291664276,
      "v": 90
    },
    {
      "midi": 81,
      "hit": false,
      "t": 372930.7610000099,
      "d": 382.54282291664276,
      "v": 90
    },
    {
      "midi": 43,
      "hit": false,
      "t": 373060.0712499998,
      "d": 123.92232291668188,
      "v": 90
    },
    {
      "midi": 41,
      "hit": false,
      "t": 373189.38149999984,
      "d": 123.92232291668188,
      "v": 90
    },
    {
      "midi": 40,
      "hit": false,
      "t": 373318.6917499999,
      "d": 123.92232291668188,
      "v": 90
    },
    {
      "midi": 69,
      "hit": false,
      "t": 373318.6917500099,
      "d": 123.92232291668188,
      "v": 90
    },
    {
      "midi": 72,
      "hit": false,
      "t": 373318.6917500099,
      "d": 123.92232291668188,
      "v": 90
    },
    {
      "midi": 81,
      "hit": false,
      "t": 373318.6917500099,
      "d": 123.92232291668188,
      "v": 90
    },
    {
      "midi": 41,
      "hit": false,
      "t": 373448.0019999999,
      "d": 123.92232291668188,
      "v": 90
    },
    {
      "midi": 69,
      "hit": false,
      "t": 373448.00200000993,
      "d": 511.8530729166814,
      "v": 90
    },
    {
      "midi": 72,
      "hit": false,
      "t": 373448.00200000993,
      "d": 511.8530729166814,
      "v": 90
    },
    {
      "midi": 81,
      "hit": false,
      "t": 373448.00200000993,
      "d": 511.8530729166814,
      "v": 90
    },
    {
      "midi": 43,
      "hit": false,
      "t": 373577.31224999996,
      "d": 123.92232291668188,
      "v": 90
    },
    {
      "midi": 45,
      "hit": false,
      "t": 373706.6225,
      "d": 123.92232291668188,
      "v": 90
    },
    {
      "midi": 43,
      "hit": false,
      "t": 373835.93275000004,
      "d": 123.92232291668188,
      "v": 90
    },
    {
      "midi": 41,
      "hit": false,
      "t": 373965.2430000001,
      "d": 123.92232291668188,
      "v": 90
    },
    {
      "midi": 69,
      "hit": false,
      "t": 373965.24300000997,
      "d": 382.54282291664276,
      "v": 90
    },
    {
      "midi": 72,
      "hit": false,
      "t": 373965.24300000997,
      "d": 382.54282291664276,
      "v": 90
    },
    {
      "midi": 81,
      "hit": false,
      "t": 373965.24300000997,
      "d": 382.54282291664276,
      "v": 90
    },
    {
      "midi": 40,
      "hit": false,
      "t": 374094.5532500001,
      "d": 123.92232291668188,
      "v": 90
    },
    {
      "midi": 38,
      "hit": false,
      "t": 374223.86350000015,
      "d": 123.92232291668188,
      "v": 90
    },
    {
      "midi": 36,
      "hit": false,
      "t": 374353.1737500002,
      "d": 123.92232291668188,
      "v": 90
    },
    {
      "midi": 69,
      "hit": false,
      "t": 374353.17375000997,
      "d": 123.92232291668188,
      "v": 90
    },
    {
      "midi": 72,
      "hit": false,
      "t": 374353.17375000997,
      "d": 123.92232291668188,
      "v": 90
    },
    {
      "midi": 81,
      "hit": false,
      "t": 374353.17375000997,
      "d": 123.92232291668188,
      "v": 90
    },
    {
      "midi": 38,
      "hit": false,
      "t": 374482.48400000023,
      "d": 123.92232291668188,
      "v": 93
    },
    {
      "midi": 71,
      "hit": false,
      "t": 374482.48400001,
      "d": 511.8530729166814,
      "v": 90
    },
    {
      "midi": 77,
      "hit": false,
      "t": 374482.48400001,
      "d": 511.8530729166814,
      "v": 90
    },
    {
      "midi": 81,
      "hit": false,
      "t": 374482.48400001,
      "d": 511.8530729166814,
      "v": 90
    },
    {
      "midi": 40,
      "hit": false,
      "t": 374611.79425000027,
      "d": 123.92232291668188,
      "v": 93
    },
    {
      "midi": 41,
      "hit": false,
      "t": 374741.1045000003,
      "d": 123.92232291668188,
      "v": 94
    },
    {
      "midi": 40,
      "hit": false,
      "t": 374870.41475000035,
      "d": 123.92232291668188,
      "v": 94
    },
    {
      "midi": 38,
      "hit": false,
      "t": 374999.7250000004,
      "d": 123.92232291668188,
      "v": 96
    },
    {
      "midi": 71,
      "hit": false,
      "t": 374999.72500001005,
      "d": 382.54282291664276,
      "v": 91
    },
    {
      "midi": 77,
      "hit": false,
      "t": 374999.72500001005,
      "d": 382.54282291664276,
      "v": 91
    },
    {
      "midi": 81,
      "hit": false,
      "t": 374999.72500001005,
      "d": 382.54282291664276,
      "v": 91
    },
    {
      "midi": 35,
      "hit": false,
      "t": 375129.0352500004,
      "d": 123.92232291668188,
      "v": 96
    },
    {
      "midi": 36,
      "hit": false,
      "t": 375258.34550000046,
      "d": 123.92232291668188,
      "v": 97
    },
    {
      "midi": 38,
      "hit": false,
      "t": 375387.6557500005,
      "d": 123.92232291668188,
      "v": 97
    },
    {
      "midi": 77,
      "hit": false,
      "t": 375409.20745834336,
      "d": 123.92232291668188,
      "v": 93
    },
    {
      "midi": 81,
      "hit": false,
      "t": 375409.20745834336,
      "d": 123.92232291668188,
      "v": 93
    },
    {
      "midi": 40,
      "hit": false,
      "t": 375516.96600000054,
      "d": 123.92232291668188,
      "v": 99
    },
    {
      "midi": 71,
      "hit": false,
      "t": 375516.96600001,
      "d": 16.163781250012107,
      "v": 96
    },
    {
      "midi": 76,
      "hit": false,
      "t": 375516.96600001,
      "d": 511.8530729166814,
      "v": 96
    },
    {
      "midi": 80,
      "hit": false,
      "t": 375516.96600001,
      "d": 511.8530729166814,
      "v": 96
    },
    {
      "midi": 39,
      "hit": false,
      "t": 375646.2762500006,
      "d": 123.92232291668188,
      "v": 99
    },
    {
      "midi": 40,
      "hit": false,
      "t": 375775.5865000006,
      "d": 123.92232291668188,
      "v": 100
    },
    {
      "midi": 39,
      "hit": false,
      "t": 375904.89675000065,
      "d": 123.92232291668188,
      "v": 100
    },
    {
      "midi": 40,
      "hit": false,
      "t": 376034.2070000007,
      "d": 123.92232291668188,
      "v": 102
    },
    {
      "midi": 71,
      "hit": false,
      "t": 376034.20700001006,
      "d": 382.54282291664276,
      "v": 99
    },
    {
      "midi": 76,
      "hit": false,
      "t": 376034.20700001006,
      "d": 382.54282291664276,
      "v": 99
    },
    {
      "midi": 80,
      "hit": false,
      "t": 376034.20700001006,
      "d": 382.54282291664276,
      "v": 99
    },
    {
      "midi": 38,
      "hit": false,
      "t": 376163.51725000073,
      "d": 123.92232291668188,
      "v": 102
    },
    {
      "midi": 36,
      "hit": false,
      "t": 376292.82750000077,
      "d": 123.92232291668188,
      "v": 103
    },
    {
      "midi": 35,
      "hit": false,
      "t": 376422.1377500008,
      "d": 123.92232291668188,
      "v": 103
    },
    {
      "midi": 71,
      "hit": false,
      "t": 376422.13775001006,
      "d": 123.92232291668188,
      "v": 102
    },
    {
      "midi": 76,
      "hit": false,
      "t": 376422.13775001006,
      "d": 123.92232291668188,
      "v": 102
    },
    {
      "midi": 80,
      "hit": false,
      "t": 376422.13775001006,
      "d": 123.92232291668188,
      "v": 102
    },
    {
      "midi": 33,
      "hit": false,
      "t": 376551.44800000085,
      "d": 511.8530729166814,
      "v": 105
    },
    {
      "midi": 72,
      "hit": false,
      "t": 376551.4480000101,
      "d": 511.8530729166814,
      "v": 105
    },
    {
      "midi": 76,
      "hit": false,
      "t": 376551.4480000101,
      "d": 511.8530729166814,
      "v": 105
    },
    {
      "midi": 81,
      "hit": false,
      "t": 376551.4480000101,
      "d": 511.8530729166814,
      "v": 105
    },
    {
      "midi": 33,
      "hit": false,
      "t": 377068.6890000009,
      "d": 511.8530729166814,
      "v": 105
    },
    {
      "midi": 45,
      "hit": false,
      "t": 377068.6890000009,
      "d": 511.8530729166814,
      "v": 105
    },
    {
      "midi": 69,
      "hit": false,
      "t": 377068.68900001014,
      "d": 511.8530729166814,
      "v": 105
    },
    {
      "midi": 72,
      "hit": false,
      "t": 377068.68900001014,
      "d": 511.8530729166814,
      "v": 105
    },
    {
      "midi": 76,
      "hit": false,
      "t": 377068.68900001014,
      "d": 511.8530729166814,
      "v": 105
    },
    {
      "midi": 33,
      "hit": false,
      "t": 377585.9300000009,
      "d": 511.8530729166814,
      "v": 105
    },
    {
      "midi": 45,
      "hit": false,
      "t": 377585.9300000009,
      "d": 511.8530729166814,
      "v": 105
    },
    {
      "midi": 64,
      "hit": false,
      "t": 377585.9300000102,
      "d": 511.8530729166814,
      "v": 105
    },
    {
      "midi": 69,
      "hit": false,
      "t": 377585.9300000102,
      "d": 511.8530729166814,
      "v": 105
    },
    {
      "midi": 72,
      "hit": false,
      "t": 377585.9300000102,
      "d": 511.8530729166814,
      "v": 105
    }
  ]
}