{
  "jsonPath": "Rock/Art Rock/Tangerine Dream/purple-nightfall.json",
  "path": "Rock\\Art Rock\\Tangerine Dream\\Purple Nightfall.mid",
  "name": "Purple Nightfall",
  "difficulty": "Advanced",
  "bpm": 75,
  "notes": [
    {
      "midi": 67,
      "hit": false,
      "t": 0,
      "d": 800,
      "v": 100
    },
    {
      "midi": 71,
      "hit": false,
      "t": 0,
      "d": 800,
      "v": 100
    },
    {
      "midi": 72,
      "hit": false,
      "t": 0,
      "d": 800,
      "v": 100
    },
    {
      "midi": 67,
      "hit": false,
      "t": 800,
      "d": 800,
      "v": 100
    },
    {
      "midi": 71,
      "hit": false,
      "t": 800,
      "d": 800,
      "v": 100
    },
    {
      "midi": 72,
      "hit": false,
      "t": 800,
      "d": 800,
      "v": 100
    },
    {
      "midi": 67,
      "hit": false,
      "t": 1600,
      "d": 800,
      "v": 100
    },
    {
      "midi": 71,
      "hit": false,
      "t": 1600,
      "d": 800,
      "v": 100
    },
    {
      "midi": 72,
      "hit": false,
      "t": 1600,
      "d": 800,
      "v": 100
    },
    {
      "midi": 67,
      "hit": false,
      "t": 2400,
      "d": 800,
      "v": 100
    },
    {
      "midi": 71,
      "hit": false,
      "t": 2400,
      "d": 800,
      "v": 100
    },
    {
      "midi": 74,
      "hit": false,
      "t": 2400,
      "d": 800,
      "v": 100
    },
    {
      "midi": 64,
      "hit": false,
      "t": 3200,
      "d": 400,
      "v": 100
    },
    {
      "midi": 67,
      "hit": false,
      "t": 3200,
      "d": 400,
      "v": 100
    },
    {
      "midi": 71,
      "hit": false,
      "t": 3200,
      "d": 400,
      "v": 100
    },
    {
      "midi": 64,
      "hit": false,
      "t": 3600,
      "d": 400,
      "v": 100
    },
    {
      "midi": 67,
      "hit": false,
      "t": 3600,
      "d": 400,
      "v": 100
    },
    {
      "midi": 71,
      "hit": false,
      "t": 3600,
      "d": 400,
      "v": 100
    },
    {
      "midi": 71,
      "hit": false,
      "t": 4000,
      "d": 400,
      "v": 100
    },
    {
      "midi": 76,
      "hit": false,
      "t": 4400,
      "d": 400,
      "v": 100
    },
    {
      "midi": 71,
      "hit": false,
      "t": 4800,
      "d": 800,
      "v": 100
    },
    {
      "midi": 76,
      "hit": false,
      "t": 4800,
      "d": 800,
      "v": 100
    },
    {
      "midi": 79,
      "hit": false,
      "t": 4800,
      "d": 800,
      "v": 100
    },
    {
      "midi": 76,
      "hit": false,
      "t": 5600,
      "d": 400,
      "v": 100
    },
    {
      "midi": 71,
      "hit": false,
      "t": 6000,
      "d": 400,
      "v": 100
    },
    {
      "midi": 67,
      "hit": false,
      "t": 6400,
      "d": 800,
      "v": 100
    },
    {
      "midi": 74,
      "hit": false,
      "t": 6400,
      "d": 800,
      "v": 100
    },
    {
      "midi": 78,
      "hit": false,
      "t": 6400,
      "d": 800,
      "v": 100
    },
    {
      "midi": 67,
      "hit": false,
      "t": 7200,
      "d": 800,
      "v": 100
    },
    {
      "midi": 74,
      "hit": false,
      "t": 7200,
      "d": 800,
      "v": 100
    },
    {
      "midi": 78,
      "hit": false,
      "t": 7200,
      "d": 800,
      "v": 100
    },
    {
      "midi": 67,
      "hit": false,
      "t": 8000,
      "d": 800,
      "v": 100
    },
    {
      "midi": 74,
      "hit": false,
      "t": 8000,
      "d": 800,
      "v": 100
    },
    {
      "midi": 78,
      "hit": false,
      "t": 8000,
      "d": 800,
      "v": 100
    },
    {
      "midi": 67,
      "hit": false,
      "t": 8800,
      "d": 800,
      "v": 100
    },
    {
      "midi": 71,
      "hit": false,
      "t": 8800,
      "d": 800,
      "v": 100
    },
    {
      "midi": 74,
      "hit": false,
      "t": 8800,
      "d": 800,
      "v": 100
    },
    {
      "midi": 64,
      "hit": false,
      "t": 9600,
      "d": 800,
      "v": 100
    },
    {
      "midi": 67,
      "hit": false,
      "t": 9600,
      "d": 800,
      "v": 100
    },
    {
      "midi": 71,
      "hit": false,
      "t": 9600,
      "d": 800,
      "v": 100
    },
    {
      "midi": 64,
      "hit": false,
      "t": 10400,
      "d": 200,
      "v": 100
    },
    {
      "midi": 66,
      "hit": false,
      "t": 10600,
      "d": 200,
      "v": 100
    },
    {
      "midi": 69,
      "hit": false,
      "t": 10800,
      "d": 200,
      "v": 100
    },
    {
      "midi": 71,
      "hit": false,
      "t": 11000,
      "d": 200,
      "v": 100
    },
    {
      "midi": 64,
      "hit": false,
      "t": 11200,
      "d": 1600,
      "v": 100
    },
    {
      "midi": 67,
      "hit": false,
      "t": 11200,
      "d": 1600,
      "v": 100
    },
    {
      "midi": 71,
      "hit": false,
      "t": 11200,
      "d": 1600,
      "v": 100
    },
    {
      "midi": 67,
      "hit": false,
      "t": 12800,
      "d": 800,
      "v": 100
    },
    {
      "midi": 71,
      "hit": false,
      "t": 12800,
      "d": 800,
      "v": 100
    },
    {
      "midi": 72,
      "hit": false,
      "t": 12800,
      "d": 800,
      "v": 100
    },
    {
      "midi": 67,
      "hit": false,
      "t": 13600,
      "d": 800,
      "v": 100
    },
    {
      "midi": 71,
      "hit": false,
      "t": 13600,
      "d": 800,
      "v": 100
    },
    {
      "midi": 72,
      "hit": false,
      "t": 13600,
      "d": 800,
      "v": 100
    },
    {
      "midi": 67,
      "hit": false,
      "t": 14400,
      "d": 800,
      "v": 100
    },
    {
      "midi": 71,
      "hit": false,
      "t": 14400,
      "d": 800,
      "v": 100
    },
    {
      "midi": 72,
      "hit": false,
      "t": 14400,
      "d": 800,
      "v": 100
    },
    {
      "midi": 67,
      "hit": false,
      "t": 15200,
      "d": 800,
      "v": 100
    },
    {
      "midi": 71,
      "hit": false,
      "t": 15200,
      "d": 800,
      "v": 100
    },
    {
      "midi": 74,
      "hit": false,
      "t": 15200,
      "d": 800,
      "v": 100
    },
    {
      "midi": 64,
      "hit": false,
      "t": 16000,
      "d": 400,
      "v": 100
    },
    {
      "midi": 67,
      "hit": false,
      "t": 16000,
      "d": 400,
      "v": 100
    },
    {
      "midi": 71,
      "hit": false,
      "t": 16000,
      "d": 400,
      "v": 100
    },
    {
      "midi": 64,
      "hit": false,
      "t": 16400,
      "d": 400,
      "v": 100
    },
    {
      "midi": 67,
      "hit": false,
      "t": 16400,
      "d": 400,
      "v": 100
    },
    {
      "midi": 71,
      "hit": false,
      "t": 16400,
      "d": 400,
      "v": 100
    },
    {
      "midi": 71,
      "hit": false,
      "t": 16800,
      "d": 400,
      "v": 100
    },
    {
      "midi": 76,
      "hit": false,
      "t": 17200,
      "d": 400,
      "v": 100
    },
    {
      "midi": 71,
      "hit": false,
      "t": 17600,
      "d": 800,
      "v": 100
    },
    {
      "midi": 76,
      "hit": false,
      "t": 17600,
      "d": 800,
      "v": 100
    },
    {
      "midi": 79,
      "hit": false,
      "t": 17600,
      "d": 800,
      "v": 100
    },
    {
      "midi": 76,
      "hit": false,
      "t": 18400,
      "d": 400,
      "v": 100
    },
    {
      "midi": 71,
      "hit": false,
      "t": 18800,
      "d": 400,
      "v": 100
    },
    {
      "midi": 67,
      "hit": false,
      "t": 19200,
      "d": 800,
      "v": 100
    },
    {
      "midi": 74,
      "hit": false,
      "t": 19200,
      "d": 800,
      "v": 100
    },
    {
      "midi": 78,
      "hit": false,
      "t": 19200,
      "d": 800,
      "v": 100
    },
    {
      "midi": 67,
      "hit": false,
      "t": 20000,
      "d": 800,
      "v": 100
    },
    {
      "midi": 74,
      "hit": false,
      "t": 20000,
      "d": 800,
      "v": 100
    },
    {
      "midi": 78,
      "hit": false,
      "t": 20000,
      "d": 800,
      "v": 100
    },
    {
      "midi": 67,
      "hit": false,
      "t": 20800,
      "d": 800,
      "v": 100
    },
    {
      "midi": 74,
      "hit": false,
      "t": 20800,
      "d": 800,
      "v": 100
    },
    {
      "midi": 78,
      "hit": false,
      "t": 20800,
      "d": 800,
      "v": 100
    },
    {
      "midi": 67,
      "hit": false,
      "t": 21600,
      "d": 800,
      "v": 100
    },
    {
      "midi": 71,
      "hit": false,
      "t": 21600,
      "d": 800,
      "v": 100
    },
    {
      "midi": 74,
      "hit": false,
      "t": 21600,
      "d": 800,
      "v": 100
    },
    {
      "midi": 64,
      "hit": false,
      "t": 22400,
      "d": 800,
      "v": 100
    },
    {
      "midi": 67,
      "hit": false,
      "t": 22400,
      "d": 800,
      "v": 100
    },
    {
      "midi": 71,
      "hit": false,
      "t": 22400,
      "d": 800,
      "v": 100
    },
    {
      "midi": 64,
      "hit": false,
      "t": 23200,
      "d": 200,
      "v": 100
    },
    {
      "midi": 66,
      "hit": false,
      "t": 23400,
      "d": 200,
      "v": 100
    },
    {
      "midi": 69,
      "hit": false,
      "t": 23600,
      "d": 200,
      "v": 100
    },
    {
      "midi": 71,
      "hit": false,
      "t": 23800,
      "d": 200,
      "v": 100
    },
    {
      "midi": 64,
      "hit": false,
      "t": 24000,
      "d": 1600,
      "v": 100
    },
    {
      "midi": 67,
      "hit": false,
      "t": 24000,
      "d": 1600,
      "v": 100
    },
    {
      "midi": 71,
      "hit": false,
      "t": 24000,
      "d": 1600,
      "v": 100
    },
    {
      "midi": 62,
      "hit": false,
      "t": 25600,
      "d": 800,
      "v": 100
    },
    {
      "midi": 69,
      "hit": false,
      "t": 25600,
      "d": 800,
      "v": 100
    },
    {
      "midi": 74,
      "hit": false,
      "t": 25600,
      "d": 800,
      "v": 100
    },
    {
      "midi": 50,
      "hit": false,
      "t": 25600,
      "d": 2400,
      "v": 100
    },
    {
      "midi": 62,
      "hit": false,
      "t": 26400,
      "d": 800,
      "v": 100
    },
    {
      "midi": 69,
      "hit": false,
      "t": 26400,
      "d": 800,
      "v": 100
    },
    {
      "midi": 74,
      "hit": false,
      "t": 26400,
      "d": 800,
      "v": 100
    },
    {
      "midi": 62,
      "hit": false,
      "t": 27200,
      "d": 800,
      "v": 100
    },
    {
      "midi": 69,
      "hit": false,
      "t": 27200,
      "d": 800,
      "v": 100
    },
    {
      "midi": 74,
      "hit": false,
      "t": 27200,
      "d": 800,
      "v": 100
    },
    {
      "midi": 50,
      "hit": false,
      "t": 28000,
      "d": 400,
      "v": 100
    },
    {
      "midi": 62,
      "hit": false,
      "t": 28000,
      "d": 800,
      "v": 100
    },
    {
      "midi": 69,
      "hit": false,
      "t": 28000,
      "d": 800,
      "v": 100
    },
    {
      "midi": 74,
      "hit": false,
      "t": 28000,
      "d": 800,
      "v": 100
    },
    {
      "midi": 54,
      "hit": false,
      "t": 28400,
      "d": 400,
      "v": 100
    },
    {
      "midi": 67,
      "hit": false,
      "t": 28800,
      "d": 800,
      "v": 100
    },
    {
      "midi": 74,
      "hit": false,
      "t": 28800,
      "d": 800,
      "v": 100
    },
    {
      "midi": 79,
      "hit": false,
      "t": 28800,
      "d": 800,
      "v": 100
    },
    {
      "midi": 55,
      "hit": false,
      "t": 28800,
      "d": 2400,
      "v": 100
    },
    {
      "midi": 67,
      "hit": false,
      "t": 29600,
      "d": 800,
      "v": 100
    },
    {
      "midi": 74,
      "hit": false,
      "t": 29600,
      "d": 800,
      "v": 100
    },
    {
      "midi": 79,
      "hit": false,
      "t": 29600,
      "d": 800,
      "v": 100
    },
    {
      "midi": 76,
      "hit": false,
      "t": 30400,
      "d": 400,
      "v": 100
    },
    {
      "midi": 74,
      "hit": false,
      "t": 30800,
      "d": 400,
      "v": 100
    },
    {
      "midi": 55,
      "hit": false,
      "t": 31200,
      "d": 200,
      "v": 100
    },
    {
      "midi": 67,
      "hit": false,
      "t": 31200,
      "d": 800,
      "v": 100
    },
    {
      "midi": 74,
      "hit": false,
      "t": 31200,
      "d": 800,
      "v": 100
    },
    {
      "midi": 79,
      "hit": false,
      "t": 31200,
      "d": 800,
      "v": 100
    },
    {
      "midi": 54,
      "hit": false,
      "t": 31400,
      "d": 200,
      "v": 100
    },
    {
      "midi": 52,
      "hit": false,
      "t": 31600,
      "d": 400,
      "v": 100
    },
    {
      "midi": 62,
      "hit": false,
      "t": 32000,
      "d": 800,
      "v": 100
    },
    {
      "midi": 69,
      "hit": false,
      "t": 32000,
      "d": 800,
      "v": 100
    },
    {
      "midi": 74,
      "hit": false,
      "t": 32000,
      "d": 800,
      "v": 100
    },
    {
      "midi": 50,
      "hit": false,
      "t": 32000,
      "d": 2400,
      "v": 100
    },
    {
      "midi": 62,
      "hit": false,
      "t": 32800,
      "d": 800,
      "v": 100
    },
    {
      "midi": 69,
      "hit": false,
      "t": 32800,
      "d": 800,
      "v": 100
    },
    {
      "midi": 74,
      "hit": false,
      "t": 32800,
      "d": 800,
      "v": 100
    },
    {
      "midi": 62,
      "hit": false,
      "t": 33600,
      "d": 800,
      "v": 100
    },
    {
      "midi": 69,
      "hit": false,
      "t": 33600,
      "d": 800,
      "v": 100
    },
    {
      "midi": 74,
      "hit": false,
      "t": 33600,
      "d": 800,
      "v": 100
    },
    {
      "midi": 50,
      "hit": false,
      "t": 34400,
      "d": 800,
      "v": 100
    },
    {
      "midi": 62,
      "hit": false,
      "t": 34400,
      "d": 800,
      "v": 100
    },
    {
      "midi": 69,
      "hit": false,
      "t": 34400,
      "d": 800,
      "v": 100
    },
    {
      "midi": 74,
      "hit": false,
      "t": 34400,
      "d": 800,
      "v": 100
    },
    {
      "midi": 54,
      "hit": false,
      "t": 35200,
      "d": 1600,
      "v": 100
    },
    {
      "midi": 66,
      "hit": false,
      "t": 35200,
      "d": 1600,
      "v": 100
    },
    {
      "midi": 73,
      "hit": false,
      "t": 35200,
      "d": 1600,
      "v": 100
    },
    {
      "midi": 78,
      "hit": false,
      "t": 35200,
      "d": 1600,
      "v": 100
    },
    {
      "midi": 54,
      "hit": false,
      "t": 36800,
      "d": 400,
      "v": 100
    },
    {
      "midi": 73,
      "hit": false,
      "t": 36800,
      "d": 400,
      "v": 100
    },
    {
      "midi": 54,
      "hit": false,
      "t": 37200,
      "d": 400,
      "v": 100
    },
    {
      "midi": 66,
      "hit": false,
      "t": 37200,
      "d": 400,
      "v": 100
    },
    {
      "midi": 73,
      "hit": false,
      "t": 37200,
      "d": 400,
      "v": 100
    },
    {
      "midi": 78,
      "hit": false,
      "t": 37200,
      "d": 400,
      "v": 100
    },
    {
      "midi": 52,
      "hit": false,
      "t": 37600,
      "d": 400,
      "v": 100
    },
    {
      "midi": 64,
      "hit": false,
      "t": 37600,
      "d": 400,
      "v": 100
    },
    {
      "midi": 71,
      "hit": false,
      "t": 37600,
      "d": 400,
      "v": 100
    },
    {
      "midi": 76,
      "hit": false,
      "t": 37600,
      "d": 400,
      "v": 100
    },
    {
      "midi": 50,
      "hit": false,
      "t": 38000,
      "d": 400,
      "v": 100
    },
    {
      "midi": 62,
      "hit": false,
      "t": 38000,
      "d": 400,
      "v": 100
    },
    {
      "midi": 69,
      "hit": false,
      "t": 38000,
      "d": 400,
      "v": 100
    },
    {
      "midi": 74,
      "hit": false,
      "t": 38000,
      "d": 400,
      "v": 100
    },
    {
      "midi": 62,
      "hit": false,
      "t": 38400,
      "d": 800,
      "v": 100
    },
    {
      "midi": 69,
      "hit": false,
      "t": 38400,
      "d": 800,
      "v": 100
    },
    {
      "midi": 74,
      "hit": false,
      "t": 38400,
      "d": 800,
      "v": 100
    },
    {
      "midi": 50,
      "hit": false,
      "t": 38400,
      "d": 2400,
      "v": 100
    },
    {
      "midi": 62,
      "hit": false,
      "t": 39200,
      "d": 800,
      "v": 100
    },
    {
      "midi": 69,
      "hit": false,
      "t": 39200,
      "d": 800,
      "v": 100
    },
    {
      "midi": 74,
      "hit": false,
      "t": 39200,
      "d": 800,
      "v": 100
    },
    {
      "midi": 62,
      "hit": false,
      "t": 40000,
      "d": 800,
      "v": 100
    },
    {
      "midi": 69,
      "hit": false,
      "t": 40000,
      "d": 800,
      "v": 100
    },
    {
      "midi": 74,
      "hit": false,
      "t": 40000,
      "d": 800,
      "v": 100
    },
    {
      "midi": 50,
      "hit": false,
      "t": 40800,
      "d": 400,
      "v": 100
    },
    {
      "midi": 62,
      "hit": false,
      "t": 40800,
      "d": 800,
      "v": 100
    },
    {
      "midi": 69,
      "hit": false,
      "t": 40800,
      "d": 800,
      "v": 100
    },
    {
      "midi": 74,
      "hit": false,
      "t": 40800,
      "d": 800,
      "v": 100
    },
    {
      "midi": 54,
      "hit": false,
      "t": 41200,
      "d": 400,
      "v": 100
    },
    {
      "midi": 67,
      "hit": false,
      "t": 41600,
      "d": 800,
      "v": 100
    },
    {
      "midi": 74,
      "hit": false,
      "t": 41600,
      "d": 800,
      "v": 100
    },
    {
      "midi": 79,
      "hit": false,
      "t": 41600,
      "d": 800,
      "v": 100
    },
    {
      "midi": 55,
      "hit": false,
      "t": 41600,
      "d": 2400,
      "v": 100
    },
    {
      "midi": 67,
      "hit": false,
      "t": 42400,
      "d": 800,
      "v": 100
    },
    {
      "midi": 74,
      "hit": false,
      "t": 42400,
      "d": 800,
      "v": 100
    },
    {
      "midi": 79,
      "hit": false,
      "t": 42400,
      "d": 800,
      "v": 100
    },
    {
      "midi": 76,
      "hit": false,
      "t": 43200,
      "d": 400,
      "v": 100
    },
    {
      "midi": 74,
      "hit": false,
      "t": 43600,
      "d": 400,
      "v": 100
    },
    {
      "midi": 55,
      "hit": false,
      "t": 44000,
      "d": 200,
      "v": 100
    },
    {
      "midi": 67,
      "hit": false,
      "t": 44000,
      "d": 800,
      "v": 100
    },
    {
      "midi": 74,
      "hit": false,
      "t": 44000,
      "d": 800,
      "v": 100
    },
    {
      "midi": 79,
      "hit": false,
      "t": 44000,
      "d": 800,
      "v": 100
    },
    {
      "midi": 54,
      "hit": false,
      "t": 44200,
      "d": 200,
      "v": 100
    },
    {
      "midi": 52,
      "hit": false,
      "t": 44400,
      "d": 400,
      "v": 100
    },
    {
      "midi": 62,
      "hit": false,
      "t": 44800,
      "d": 800,
      "v": 100
    },
    {
      "midi": 69,
      "hit": false,
      "t": 44800,
      "d": 800,
      "v": 100
    },
    {
      "midi": 74,
      "hit": false,
      "t": 44800,
      "d": 800,
      "v": 100
    },
    {
      "midi": 50,
      "hit": false,
      "t": 44800,
      "d": 2400,
      "v": 100
    },
    {
      "midi": 62,
      "hit": false,
      "t": 45600,
      "d": 800,
      "v": 100
    },
    {
      "midi": 69,
      "hit": false,
      "t": 45600,
      "d": 800,
      "v": 100
    },
    {
      "midi": 74,
      "hit": false,
      "t": 45600,
      "d": 800,
      "v": 100
    },
    {
      "midi": 62,
      "hit": false,
      "t": 46400,
      "d": 800,
      "v": 100
    },
    {
      "midi": 69,
      "hit": false,
      "t": 46400,
      "d": 800,
      "v": 100
    },
    {
      "midi": 74,
      "hit": false,
      "t": 46400,
      "d": 800,
      "v": 100
    },
    {
      "midi": 50,
      "hit": false,
      "t": 47200,
      "d": 800,
      "v": 100
    },
    {
      "midi": 62,
      "hit": false,
      "t": 47200,
      "d": 800,
      "v": 100
    },
    {
      "midi": 69,
      "hit": false,
      "t": 47200,
      "d": 800,
      "v": 100
    },
    {
      "midi": 74,
      "hit": false,
      "t": 47200,
      "d": 800,
      "v": 100
    },
    {
      "midi": 54,
      "hit": false,
      "t": 48000,
      "d": 1600,
      "v": 100
    },
    {
      "midi": 66,
      "hit": false,
      "t": 48000,
      "d": 1600,
      "v": 100
    },
    {
      "midi": 73,
      "hit": false,
      "t": 48000,
      "d": 1600,
      "v": 100
    },
    {
      "midi": 78,
      "hit": false,
      "t": 48000,
      "d": 1600,
      "v": 100
    },
    {
      "midi": 54,
      "hit": false,
      "t": 49600,
      "d": 400,
      "v": 100
    },
    {
      "midi": 73,
      "hit": false,
      "t": 49600,
      "d": 400,
      "v": 100
    },
    {
      "midi": 54,
      "hit": false,
      "t": 50000,
      "d": 400,
      "v": 100
    },
    {
      "midi": 66,
      "hit": false,
      "t": 50000,
      "d": 400,
      "v": 100
    },
    {
      "midi": 73,
      "hit": false,
      "t": 50000,
      "d": 400,
      "v": 100
    },
    {
      "midi": 78,
      "hit": false,
      "t": 50000,
      "d": 400,
      "v": 100
    },
    {
      "midi": 52,
      "hit": false,
      "t": 50400,
      "d": 400,
      "v": 100
    },
    {
      "midi": 64,
      "hit": false,
      "t": 50400,
      "d": 400,
      "v": 100
    },
    {
      "midi": 71,
      "hit": false,
      "t": 50400,
      "d": 400,
      "v": 100
    },
    {
      "midi": 76,
      "hit": false,
      "t": 50400,
      "d": 400,
      "v": 100
    },
    {
      "midi": 50,
      "hit": false,
      "t": 50800,
      "d": 400,
      "v": 100
    },
    {
      "midi": 62,
      "hit": false,
      "t": 50800,
      "d": 400,
      "v": 100
    },
    {
      "midi": 69,
      "hit": false,
      "t": 50800,
      "d": 400,
      "v": 100
    },
    {
      "midi": 74,
      "hit": false,
      "t": 50800,
      "d": 400,
      "v": 100
    },
    {
      "midi": 62,
      "hit": false,
      "t": 51200,
      "d": 800,
      "v": 100
    },
    {
      "midi": 69,
      "hit": false,
      "t": 51200,
      "d": 800,
      "v": 100
    },
    {
      "midi": 74,
      "hit": false,
      "t": 51200,
      "d": 800,
      "v": 100
    },
    {
      "midi": 50,
      "hit": false,
      "t": 51200,
      "d": 2400,
      "v": 100
    },
    {
      "midi": 62,
      "hit": false,
      "t": 52000,
      "d": 800,
      "v": 100
    },
    {
      "midi": 69,
      "hit": false,
      "t": 52000,
      "d": 800,
      "v": 100
    },
    {
      "midi": 74,
      "hit": false,
      "t": 52000,
      "d": 800,
      "v": 100
    },
    {
      "midi": 62,
      "hit": false,
      "t": 52800,
      "d": 800,
      "v": 100
    },
    {
      "midi": 69,
      "hit": false,
      "t": 52800,
      "d": 800,
      "v": 100
    },
    {
      "midi": 74,
      "hit": false,
      "t": 52800,
      "d": 800,
      "v": 100
    },
    {
      "midi": 50,
      "hit": false,
      "t": 53600,
      "d": 400,
      "v": 100
    },
    {
      "midi": 62,
      "hit": false,
      "t": 53600,
      "d": 800,
      "v": 100
    },
    {
      "midi": 69,
      "hit": false,
      "t": 53600,
      "d": 800,
      "v": 100
    },
    {
      "midi": 74,
      "hit": false,
      "t": 53600,
      "d": 800,
      "v": 100
    },
    {
      "midi": 54,
      "hit": false,
      "t": 54000,
      "d": 400,
      "v": 100
    },
    {
      "midi": 67,
      "hit": false,
      "t": 54400,
      "d": 800,
      "v": 100
    },
    {
      "midi": 74,
      "hit": false,
      "t": 54400,
      "d": 800,
      "v": 100
    },
    {
      "midi": 79,
      "hit": false,
      "t": 54400,
      "d": 800,
      "v": 100
    },
    {
      "midi": 55,
      "hit": false,
      "t": 54400,
      "d": 2400,
      "v": 100
    },
    {
      "midi": 67,
      "hit": false,
      "t": 55200,
      "d": 800,
      "v": 100
    },
    {
      "midi": 74,
      "hit": false,
      "t": 55200,
      "d": 800,
      "v": 100
    },
    {
      "midi": 79,
      "hit": false,
      "t": 55200,
      "d": 800,
      "v": 100
    },
    {
      "midi": 76,
      "hit": false,
      "t": 56000,
      "d": 400,
      "v": 100
    },
    {
      "midi": 74,
      "hit": false,
      "t": 56400,
      "d": 400,
      "v": 100
    },
    {
      "midi": 55,
      "hit": false,
      "t": 56800,
      "d": 200,
      "v": 100
    },
    {
      "midi": 67,
      "hit": false,
      "t": 56800,
      "d": 800,
      "v": 100
    },
    {
      "midi": 74,
      "hit": false,
      "t": 56800,
      "d": 800,
      "v": 100
    },
    {
      "midi": 79,
      "hit": false,
      "t": 56800,
      "d": 800,
      "v": 100
    },
    {
      "midi": 54,
      "hit": false,
      "t": 57000,
      "d": 200,
      "v": 100
    },
    {
      "midi": 52,
      "hit": false,
      "t": 57200,
      "d": 400,
      "v": 100
    },
    {
      "midi": 62,
      "hit": false,
      "t": 57600,
      "d": 800,
      "v": 100
    },
    {
      "midi": 69,
      "hit": false,
      "t": 57600,
      "d": 800,
      "v": 100
    },
    {
      "midi": 74,
      "hit": false,
      "t": 57600,
      "d": 800,
      "v": 100
    },
    {
      "midi": 50,
      "hit": false,
      "t": 57600,
      "d": 2400,
      "v": 100
    },
    {
      "midi": 62,
      "hit": false,
      "t": 58400,
      "d": 800,
      "v": 100
    },
    {
      "midi": 69,
      "hit": false,
      "t": 58400,
      "d": 800,
      "v": 100
    },
    {
      "midi": 74,
      "hit": false,
      "t": 58400,
      "d": 800,
      "v": 100
    },
    {
      "midi": 62,
      "hit": false,
      "t": 59200,
      "d": 800,
      "v": 100
    },
    {
      "midi": 69,
      "hit": false,
      "t": 59200,
      "d": 800,
      "v": 100
    },
    {
      "midi": 74,
      "hit": false,
      "t": 59200,
      "d": 800,
      "v": 100
    },
    {
      "midi": 50,
      "hit": false,
      "t": 60000,
      "d": 800,
      "v": 100
    },
    {
      "midi": 62,
      "hit": false,
      "t": 60000,
      "d": 800,
      "v": 100
    },
    {
      "midi": 69,
      "hit": false,
      "t": 60000,
      "d": 800,
      "v": 100
    },
    {
      "midi": 74,
      "hit": false,
      "t": 60000,
      "d": 800,
      "v": 100
    },
    {
      "midi": 54,
      "hit": false,
      "t": 60800,
      "d": 1600,
      "v": 100
    },
    {
      "midi": 66,
      "hit": false,
      "t": 60800,
      "d": 1600,
      "v": 100
    },
    {
      "midi": 73,
      "hit": false,
      "t": 60800,
      "d": 1600,
      "v": 100
    },
    {
      "midi": 78,
      "hit": false,
      "t": 60800,
      "d": 1600,
      "v": 100
    },
    {
      "midi": 54,
      "hit": false,
      "t": 62400,
      "d": 400,
      "v": 100
    },
    {
      "midi": 73,
      "hit": false,
      "t": 62400,
      "d": 400,
      "v": 100
    },
    {
      "midi": 54,
      "hit": false,
      "t": 62800,
      "d": 400,
      "v": 100
    },
    {
      "midi": 66,
      "hit": false,
      "t": 62800,
      "d": 400,
      "v": 100
    },
    {
      "midi": 73,
      "hit": false,
      "t": 62800,
      "d": 400,
      "v": 100
    },
    {
      "midi": 78,
      "hit": false,
      "t": 62800,
      "d": 400,
      "v": 100
    },
    {
      "midi": 52,
      "hit": false,
      "t": 63200,
      "d": 400,
      "v": 100
    },
    {
      "midi": 64,
      "hit": false,
      "t": 63200,
      "d": 400,
      "v": 100
    },
    {
      "midi": 71,
      "hit": false,
      "t": 63200,
      "d": 400,
      "v": 100
    },
    {
      "midi": 76,
      "hit": false,
      "t": 63200,
      "d": 400,
      "v": 100
    },
    {
      "midi": 50,
      "hit": false,
      "t": 63600,
      "d": 400,
      "v": 100
    },
    {
      "midi": 62,
      "hit": false,
      "t": 63600,
      "d": 400,
      "v": 100
    },
    {
      "midi": 69,
      "hit": false,
      "t": 63600,
      "d": 400,
      "v": 100
    },
    {
      "midi": 74,
      "hit": false,
      "t": 63600,
      "d": 400,
      "v": 100
    },
    {
      "midi": 62,
      "hit": false,
      "t": 64000,
      "d": 1600,
      "v": 100
    },
    {
      "midi": 67,
      "hit": false,
      "t": 64000,
      "d": 1600,
      "v": 100
    },
    {
      "midi": 71,
      "hit": false,
      "t": 64000,
      "d": 1600,
      "v": 100
    },
    {
      "midi": 64,
      "hit": false,
      "t": 65600,
      "d": 400,
      "v": 100
    },
    {
      "midi": 67,
      "hit": false,
      "t": 66000,
      "d": 400,
      "v": 100
    },
    {
      "midi": 71,
      "hit": false,
      "t": 66400,
      "d": 400,
      "v": 100
    },
    {
      "midi": 67,
      "hit": false,
      "t": 66800,
      "d": 400,
      "v": 100
    },
    {
      "midi": 59,
      "hit": false,
      "t": 67200,
      "d": 3200,
      "v": 100
    },
    {
      "midi": 64,
      "hit": false,
      "t": 67200,
      "d": 3200,
      "v": 100
    },
    {
      "midi": 67,
      "hit": false,
      "t": 67200,
      "d": 3200,
      "v": 100
    },
    {
      "midi": 62,
      "hit": false,
      "t": 70400,
      "d": 1600,
      "v": 100
    },
    {
      "midi": 67,
      "hit": false,
      "t": 70400,
      "d": 1600,
      "v": 100
    },
    {
      "midi": 71,
      "hit": false,
      "t": 70400,
      "d": 1600,
      "v": 100
    },
    {
      "midi": 64,
      "hit": false,
      "t": 72000,
      "d": 400,
      "v": 100
    },
    {
      "midi": 67,
      "hit": false,
      "t": 72400,
      "d": 400,
      "v": 100
    },
    {
      "midi": 71,
      "hit": false,
      "t": 72800,
      "d": 400,
      "v": 100
    },
    {
      "midi": 67,
      "hit": false,
      "t": 73200,
      "d": 400,
      "v": 100
    },
    {
      "midi": 59,
      "hit": false,
      "t": 73600,
      "d": 3200,
      "v": 100
    },
    {
      "midi": 64,
      "hit": false,
      "t": 73600,
      "d": 3200,
      "v": 100
    },
    {
      "midi": 67,
      "hit": false,
      "t": 73600,
      "d": 3200,
      "v": 100
    },
    {
      "midi": 62,
      "hit": false,
      "t": 76800,
      "d": 1600,
      "v": 100
    },
    {
      "midi": 67,
      "hit": false,
      "t": 76800,
      "d": 1600,
      "v": 100
    },
    {
      "midi": 71,
      "hit": false,
      "t": 76800,
      "d": 1600,
      "v": 100
    },
    {
      "midi": 64,
      "hit": false,
      "t": 78400,
      "d": 400,
      "v": 100
    },
    {
      "midi": 67,
      "hit": false,
      "t": 78800,
      "d": 400,
      "v": 100
    },
    {
      "midi": 71,
      "hit": false,
      "t": 79200,
      "d": 400,
      "v": 100
    },
    {
      "midi": 67,
      "hit": false,
      "t": 79600,
      "d": 400,
      "v": 100
    },
    {
      "midi": 59,
      "hit": false,
      "t": 80000,
      "d": 3200,
      "v": 100
    },
    {
      "midi": 64,
      "hit": false,
      "t": 80000,
      "d": 3200,
      "v": 100
    },
    {
      "midi": 67,
      "hit": false,
      "t": 80000,
      "d": 3200,
      "v": 100
    },
    {
      "midi": 62,
      "hit": false,
      "t": 83200,
      "d": 1600,
      "v": 100
    },
    {
      "midi": 67,
      "hit": false,
      "t": 83200,
      "d": 1600,
      "v": 100
    },
    {
      "midi": 71,
      "hit": false,
      "t": 83200,
      "d": 1600,
      "v": 100
    },
    {
      "midi": 64,
      "hit": false,
      "t": 84800,
      "d": 400,
      "v": 100
    },
    {
      "midi": 67,
      "hit": false,
      "t": 85200,
      "d": 400,
      "v": 100
    },
    {
      "midi": 71,
      "hit": false,
      "t": 85600,
      "d": 400,
      "v": 100
    },
    {
      "midi": 67,
      "hit": false,
      "t": 86000,
      "d": 400,
      "v": 100
    },
    {
      "midi": 59,
      "hit": false,
      "t": 86400,
      "d": 3200,
      "v": 100
    },
    {
      "midi": 64,
      "hit": false,
      "t": 86400,
      "d": 3200,
      "v": 100
    },
    {
      "midi": 67,
      "hit": false,
      "t": 86400,
      "d": 3200,
      "v": 100
    },
    {
      "midi": 64,
      "hit": false,
      "t": 89600,
      "d": 200,
      "v": 100
    },
    {
      "midi": 66,
      "hit": false,
      "t": 89800,
      "d": 200,
      "v": 100
    },
    {
      "midi": 64,
      "hit": false,
      "t": 90000,
      "d": 200,
      "v": 100
    },
    {
      "midi": 66,
      "hit": false,
      "t": 90200,
      "d": 200,
      "v": 100
    },
    {
      "midi": 67,
      "hit": false,
      "t": 90400,
      "d": 400,
      "v": 100
    },
    {
      "midi": 71,
      "hit": false,
      "t": 90400,
      "d": 400,
      "v": 100
    },
    {
      "midi": 74,
      "hit": false,
      "t": 90400,
      "d": 400,
      "v": 100
    },
    {
      "midi": 67,
      "hit": false,
      "t": 90800,
      "d": 400,
      "v": 100
    },
    {
      "midi": 71,
      "hit": false,
      "t": 90800,
      "d": 400,
      "v": 100
    },
    {
      "midi": 76,
      "hit": false,
      "t": 90800,
      "d": 400,
      "v": 100
    },
    {
      "midi": 64,
      "hit": false,
      "t": 91200,
      "d": 400,
      "v": 100
    },
    {
      "midi": 66,
      "hit": false,
      "t": 91600,
      "d": 400,
      "v": 100
    },
    {
      "midi": 71,
      "hit": false,
      "t": 92000,
      "d": 400,
      "v": 100
    },
    {
      "midi": 69,
      "hit": false,
      "t": 92400,
      "d": 200,
      "v": 100
    },
    {
      "midi": 67,
      "hit": false,
      "t": 92600,
      "d": 200,
      "v": 100
    },
    {
      "midi": 62,
      "hit": false,
      "t": 92800,
      "d": 800,
      "v": 100
    },
    {
      "midi": 67,
      "hit": false,
      "t": 92800,
      "d": 800,
      "v": 100
    },
    {
      "midi": 71,
      "hit": false,
      "t": 92800,
      "d": 800,
      "v": 100
    },
    {
      "midi": 67,
      "hit": false,
      "t": 93600,
      "d": 400,
      "v": 100
    },
    {
      "midi": 66,
      "hit": false,
      "t": 94000,
      "d": 400,
      "v": 100
    },
    {
      "midi": 60,
      "hit": false,
      "t": 94400,
      "d": 200,
      "v": 100
    },
    {
      "midi": 62,
      "hit": false,
      "t": 94600,
      "d": 200,
      "v": 100
    },
    {
      "midi": 64,
      "hit": false,
      "t": 94800,
      "d": 400,
      "v": 100
    },
    {
      "midi": 71,
      "hit": false,
      "t": 94800,
      "d": 400,
      "v": 100
    },
    {
      "midi": 59,
      "hit": false,
      "t": 95200,
      "d": 800,
      "v": 100
    },
    {
      "midi": 67,
      "hit": false,
      "t": 95200,
      "d": 800,
      "v": 100
    },
    {
      "midi": 73,
      "hit": false,
      "t": 95200,
      "d": 800,
      "v": 100
    },
    {
      "midi": 62,
      "hit": false,
      "t": 96000,
      "d": 1600,
      "v": 100
    },
    {
      "midi": 67,
      "hit": false,
      "t": 96000,
      "d": 1600,
      "v": 100
    },
    {
      "midi": 71,
      "hit": false,
      "t": 96000,
      "d": 1600,
      "v": 100
    },
    {
      "midi": 64,
      "hit": false,
      "t": 97600,
      "d": 400,
      "v": 100
    },
    {
      "midi": 71,
      "hit": false,
      "t": 98000,
      "d": 200,
      "v": 100
    },
    {
      "midi": 76,
      "hit": false,
      "t": 98200,
      "d": 200,
      "v": 100
    },
    {
      "midi": 72,
      "hit": false,
      "t": 98400,
      "d": 200,
      "v": 100
    },
    {
      "midi": 79,
      "hit": false,
      "t": 98600,
      "d": 200,
      "v": 100
    },
    {
      "midi": 74,
      "hit": false,
      "t": 98800,
      "d": 400,
      "v": 100
    },
    {
      "midi": 79,
      "hit": false,
      "t": 98800,
      "d": 400,
      "v": 100
    },
    {
      "midi": 71,
      "hit": false,
      "t": 99200,
      "d": 200,
      "v": 100
    },
    {
      "midi": 79,
      "hit": false,
      "t": 99400,
      "d": 200,
      "v": 100
    },
    {
      "midi": 83,
      "hit": false,
      "t": 99600,
      "d": 200,
      "v": 100
    },
    {
      "midi": 79,
      "hit": false,
      "t": 99800,
      "d": 200,
      "v": 100
    },
    {
      "midi": 74,
      "hit": false,
      "t": 100000,
      "d": 200,
      "v": 100
    },
    {
      "midi": 76,
      "hit": false,
      "t": 100200,
      "d": 200,
      "v": 100
    },
    {
      "midi": 71,
      "hit": false,
      "t": 100400,
      "d": 400,
      "v": 100
    },
    {
      "midi": 76,
      "hit": false,
      "t": 100400,
      "d": 400,
      "v": 100
    },
    {
      "midi": 80,
      "hit": false,
      "t": 100400,
      "d": 400,
      "v": 100
    },
    {
      "midi": 67,
      "hit": false,
      "t": 100800,
      "d": 800,
      "v": 100
    },
    {
      "midi": 71,
      "hit": false,
      "t": 100800,
      "d": 800,
      "v": 100
    },
    {
      "midi": 74,
      "hit": false,
      "t": 100800,
      "d": 800,
      "v": 100
    },
    {
      "midi": 71,
      "hit": false,
      "t": 101600,
      "d": 800,
      "v": 100
    },
    {
      "midi": 74,
      "hit": false,
      "t": 101600,
      "d": 800,
      "v": 100
    },
    {
      "midi": 76,
      "hit": false,
      "t": 101600,
      "d": 800,
      "v": 100
    },
    {
      "midi": 60,
      "hit": false,
      "t": 102400,
      "d": 3200,
      "v": 100
    },
    {
      "midi": 71,
      "hit": false,
      "t": 102400,
      "d": 3200,
      "v": 100
    },
    {
      "midi": 79,
      "hit": false,
      "t": 102400,
      "d": 3200,
      "v": 100
    },
    {
      "midi": 57,
      "hit": false,
      "t": 105600,
      "d": 3200,
      "v": 100
    },
    {
      "midi": 67,
      "hit": false,
      "t": 105600,
      "d": 3200,
      "v": 100
    },
    {
      "midi": 76,
      "hit": false,
      "t": 105600,
      "d": 3200,
      "v": 100
    },
    {
      "midi": 55,
      "hit": false,
      "t": 108800,
      "d": 3200,
      "v": 100
    },
    {
      "midi": 66,
      "hit": false,
      "t": 108800,
      "d": 3200,
      "v": 100
    },
    {
      "midi": 74,
      "hit": false,
      "t": 108800,
      "d": 3200,
      "v": 100
    },
    {
      "midi": 54,
      "hit": false,
      "t": 112000,
      "d": 3200,
      "v": 100
    },
    {
      "midi": 64,
      "hit": false,
      "t": 112000,
      "d": 3200,
      "v": 100
    },
    {
      "midi": 72,
      "hit": false,
      "t": 112000,
      "d": 3200,
      "v": 100
    },
    {
      "midi": 62,
      "hit": false,
      "t": 115200,
      "d": 800,
      "v": 100
    },
    {
      "midi": 69,
      "hit": false,
      "t": 115200,
      "d": 800,
      "v": 100
    },
    {
      "midi": 74,
      "hit": false,
      "t": 115200,
      "d": 800,
      "v": 100
    },
    {
      "midi": 50,
      "hit": false,
      "t": 115200,
      "d": 2400,
      "v": 100
    },
    {
      "midi": 62,
      "hit": false,
      "t": 116000,
      "d": 800,
      "v": 100
    },
    {
      "midi": 69,
      "hit": false,
      "t": 116000,
      "d": 800,
      "v": 100
    },
    {
      "midi": 74,
      "hit": false,
      "t": 116000,
      "d": 800,
      "v": 100
    },
    {
      "midi": 62,
      "hit": false,
      "t": 116800,
      "d": 800,
      "v": 100
    },
    {
      "midi": 69,
      "hit": false,
      "t": 116800,
      "d": 800,
      "v": 100
    },
    {
      "midi": 74,
      "hit": false,
      "t": 116800,
      "d": 800,
      "v": 100
    },
    {
      "midi": 50,
      "hit": false,
      "t": 117600,
      "d": 400,
      "v": 100
    },
    {
      "midi": 62,
      "hit": false,
      "t": 117600,
      "d": 800,
      "v": 100
    },
    {
      "midi": 69,
      "hit": false,
      "t": 117600,
      "d": 800,
      "v": 100
    },
    {
      "midi": 74,
      "hit": false,
      "t": 117600,
      "d": 800,
      "v": 100
    },
    {
      "midi": 54,
      "hit": false,
      "t": 118000,
      "d": 400,
      "v": 100
    },
    {
      "midi": 67,
      "hit": false,
      "t": 118400,
      "d": 800,
      "v": 100
    },
    {
      "midi": 74,
      "hit": false,
      "t": 118400,
      "d": 800,
      "v": 100
    },
    {
      "midi": 79,
      "hit": false,
      "t": 118400,
      "d": 800,
      "v": 100
    },
    {
      "midi": 55,
      "hit": false,
      "t": 118400,
      "d": 2400,
      "v": 100
    },
    {
      "midi": 67,
      "hit": false,
      "t": 119200,
      "d": 800,
      "v": 100
    },
    {
      "midi": 74,
      "hit": false,
      "t": 119200,
      "d": 800,
      "v": 100
    },
    {
      "midi": 79,
      "hit": false,
      "t": 119200,
      "d": 800,
      "v": 100
    },
    {
      "midi": 76,
      "hit": false,
      "t": 120000,
      "d": 400,
      "v": 100
    },
    {
      "midi": 74,
      "hit": false,
      "t": 120400,
      "d": 400,
      "v": 100
    },
    {
      "midi": 55,
      "hit": false,
      "t": 120800,
      "d": 200,
      "v": 100
    },
    {
      "midi": 67,
      "hit": false,
      "t": 120800,
      "d": 800,
      "v": 100
    },
    {
      "midi": 74,
      "hit": false,
      "t": 120800,
      "d": 800,
      "v": 100
    },
    {
      "midi": 79,
      "hit": false,
      "t": 120800,
      "d": 800,
      "v": 100
    },
    {
      "midi": 54,
      "hit": false,
      "t": 121000,
      "d": 200,
      "v": 100
    },
    {
      "midi": 52,
      "hit": false,
      "t": 121200,
      "d": 400,
      "v": 100
    },
    {
      "midi": 62,
      "hit": false,
      "t": 121600,
      "d": 800,
      "v": 100
    },
    {
      "midi": 69,
      "hit": false,
      "t": 121600,
      "d": 800,
      "v": 100
    },
    {
      "midi": 74,
      "hit": false,
      "t": 121600,
      "d": 800,
      "v": 100
    },
    {
      "midi": 50,
      "hit": false,
      "t": 121600,
      "d": 2400,
      "v": 100
    },
    {
      "midi": 62,
      "hit": false,
      "t": 122400,
      "d": 800,
      "v": 100
    },
    {
      "midi": 69,
      "hit": false,
      "t": 122400,
      "d": 800,
      "v": 100
    },
    {
      "midi": 74,
      "hit": false,
      "t": 122400,
      "d": 800,
      "v": 100
    },
    {
      "midi": 62,
      "hit": false,
      "t": 123200,
      "d": 800,
      "v": 100
    },
    {
      "midi": 69,
      "hit": false,
      "t": 123200,
      "d": 800,
      "v": 100
    },
    {
      "midi": 74,
      "hit": false,
      "t": 123200,
      "d": 800,
      "v": 100
    },
    {
      "midi": 50,
      "hit": false,
      "t": 124000,
      "d": 800,
      "v": 100
    },
    {
      "midi": 62,
      "hit": false,
      "t": 124000,
      "d": 800,
      "v": 100
    },
    {
      "midi": 69,
      "hit": false,
      "t": 124000,
      "d": 800,
      "v": 100
    },
    {
      "midi": 74,
      "hit": false,
      "t": 124000,
      "d": 800,
      "v": 100
    },
    {
      "midi": 54,
      "hit": false,
      "t": 124800,
      "d": 1600,
      "v": 100
    },
    {
      "midi": 66,
      "hit": false,
      "t": 124800,
      "d": 1600,
      "v": 100
    },
    {
      "midi": 73,
      "hit": false,
      "t": 124800,
      "d": 1600,
      "v": 100
    },
    {
      "midi": 78,
      "hit": false,
      "t": 124800,
      "d": 1600,
      "v": 100
    },
    {
      "midi": 54,
      "hit": false,
      "t": 126400,
      "d": 400,
      "v": 100
    },
    {
      "midi": 73,
      "hit": false,
      "t": 126400,
      "d": 400,
      "v": 100
    },
    {
      "midi": 54,
      "hit": false,
      "t": 126800,
      "d": 400,
      "v": 100
    },
    {
      "midi": 66,
      "hit": false,
      "t": 126800,
      "d": 400,
      "v": 100
    },
    {
      "midi": 73,
      "hit": false,
      "t": 126800,
      "d": 400,
      "v": 100
    },
    {
      "midi": 78,
      "hit": false,
      "t": 126800,
      "d": 400,
      "v": 100
    },
    {
      "midi": 52,
      "hit": false,
      "t": 127200,
      "d": 400,
      "v": 100
    },
    {
      "midi": 64,
      "hit": false,
      "t": 127200,
      "d": 400,
      "v": 100
    },
    {
      "midi": 71,
      "hit": false,
      "t": 127200,
      "d": 400,
      "v": 100
    },
    {
      "midi": 76,
      "hit": false,
      "t": 127200,
      "d": 400,
      "v": 100
    },
    {
      "midi": 50,
      "hit": false,
      "t": 127600,
      "d": 400,
      "v": 100
    },
    {
      "midi": 62,
      "hit": false,
      "t": 127600,
      "d": 400,
      "v": 100
    },
    {
      "midi": 69,
      "hit": false,
      "t": 127600,
      "d": 400,
      "v": 100
    },
    {
      "midi": 74,
      "hit": false,
      "t": 127600,
      "d": 400,
      "v": 100
    },
    {
      "midi": 62,
      "hit": false,
      "t": 128000,
      "d": 800,
      "v": 100
    },
    {
      "midi": 69,
      "hit": false,
      "t": 128000,
      "d": 800,
      "v": 100
    },
    {
      "midi": 74,
      "hit": false,
      "t": 128000,
      "d": 800,
      "v": 100
    },
    {
      "midi": 50,
      "hit": false,
      "t": 128000,
      "d": 2400,
      "v": 100
    },
    {
      "midi": 62,
      "hit": false,
      "t": 128800,
      "d": 800,
      "v": 100
    },
    {
      "midi": 69,
      "hit": false,
      "t": 128800,
      "d": 800,
      "v": 100
    },
    {
      "midi": 74,
      "hit": false,
      "t": 128800,
      "d": 800,
      "v": 100
    },
    {
      "midi": 62,
      "hit": false,
      "t": 129600,
      "d": 800,
      "v": 100
    },
    {
      "midi": 69,
      "hit": false,
      "t": 129600,
      "d": 800,
      "v": 100
    },
    {
      "midi": 74,
      "hit": false,
      "t": 129600,
      "d": 800,
      "v": 100
    },
    {
      "midi": 50,
      "hit": false,
      "t": 130400,
      "d": 400,
      "v": 100
    },
    {
      "midi": 62,
      "hit": false,
      "t": 130400,
      "d": 800,
      "v": 100
    },
    {
      "midi": 69,
      "hit": false,
      "t": 130400,
      "d": 800,
      "v": 100
    },
    {
      "midi": 74,
      "hit": false,
      "t": 130400,
      "d": 800,
      "v": 100
    },
    {
      "midi": 54,
      "hit": false,
      "t": 130800,
      "d": 400,
      "v": 100
    },
    {
      "midi": 67,
      "hit": false,
      "t": 131200,
      "d": 800,
      "v": 100
    },
    {
      "midi": 74,
      "hit": false,
      "t": 131200,
      "d": 800,
      "v": 100
    },
    {
      "midi": 79,
      "hit": false,
      "t": 131200,
      "d": 800,
      "v": 100
    },
    {
      "midi": 55,
      "hit": false,
      "t": 131200,
      "d": 2400,
      "v": 100
    },
    {
      "midi": 67,
      "hit": false,
      "t": 132000,
      "d": 800,
      "v": 100
    },
    {
      "midi": 74,
      "hit": false,
      "t": 132000,
      "d": 800,
      "v": 100
    },
    {
      "midi": 79,
      "hit": false,
      "t": 132000,
      "d": 800,
      "v": 100
    },
    {
      "midi": 76,
      "hit": false,
      "t": 132800,
      "d": 400,
      "v": 100
    },
    {
      "midi": 74,
      "hit": false,
      "t": 133200,
      "d": 400,
      "v": 100
    },
    {
      "midi": 55,
      "hit": false,
      "t": 133600,
      "d": 200,
      "v": 100
    },
    {
      "midi": 67,
      "hit": false,
      "t": 133600,
      "d": 800,
      "v": 100
    },
    {
      "midi": 74,
      "hit": false,
      "t": 133600,
      "d": 800,
      "v": 100
    },
    {
      "midi": 79,
      "hit": false,
      "t": 133600,
      "d": 800,
      "v": 100
    },
    {
      "midi": 54,
      "hit": false,
      "t": 133800,
      "d": 200,
      "v": 100
    },
    {
      "midi": 52,
      "hit": false,
      "t": 134000,
      "d": 400,
      "v": 100
    },
    {
      "midi": 62,
      "hit": false,
      "t": 134400,
      "d": 800,
      "v": 100
    },
    {
      "midi": 69,
      "hit": false,
      "t": 134400,
      "d": 800,
      "v": 100
    },
    {
      "midi": 74,
      "hit": false,
      "t": 134400,
      "d": 800,
      "v": 100
    },
    {
      "midi": 50,
      "hit": false,
      "t": 134400,
      "d": 2400,
      "v": 100
    },
    {
      "midi": 62,
      "hit": false,
      "t": 135200,
      "d": 800,
      "v": 100
    },
    {
      "midi": 69,
      "hit": false,
      "t": 135200,
      "d": 800,
      "v": 100
    },
    {
      "midi": 74,
      "hit": false,
      "t": 135200,
      "d": 800,
      "v": 100
    },
    {
      "midi": 62,
      "hit": false,
      "t": 136000,
      "d": 800,
      "v": 100
    },
    {
      "midi": 69,
      "hit": false,
      "t": 136000,
      "d": 800,
      "v": 100
    },
    {
      "midi": 74,
      "hit": false,
      "t": 136000,
      "d": 800,
      "v": 100
    },
    {
      "midi": 50,
      "hit": false,
      "t": 136800,
      "d": 800,
      "v": 100
    },
    {
      "midi": 62,
      "hit": false,
      "t": 136800,
      "d": 800,
      "v": 100
    },
    {
      "midi": 69,
      "hit": false,
      "t": 136800,
      "d": 800,
      "v": 100
    },
    {
      "midi": 74,
      "hit": false,
      "t": 136800,
      "d": 800,
      "v": 100
    },
    {
      "midi": 54,
      "hit": false,
      "t": 137600,
      "d": 1600,
      "v": 100
    },
    {
      "midi": 66,
      "hit": false,
      "t": 137600,
      "d": 1600,
      "v": 100
    },
    {
      "midi": 73,
      "hit": false,
      "t": 137600,
      "d": 1600,
      "v": 100
    },
    {
      "midi": 78,
      "hit": false,
      "t": 137600,
      "d": 1600,
      "v": 100
    },
    {
      "midi": 54,
      "hit": false,
      "t": 139200,
      "d": 400,
      "v": 100
    },
    {
      "midi": 73,
      "hit": false,
      "t": 139200,
      "d": 400,
      "v": 100
    },
    {
      "midi": 54,
      "hit": false,
      "t": 139600,
      "d": 400,
      "v": 100
    },
    {
      "midi": 66,
      "hit": false,
      "t": 139600,
      "d": 400,
      "v": 100
    },
    {
      "midi": 73,
      "hit": false,
      "t": 139600,
      "d": 400,
      "v": 100
    },
    {
      "midi": 78,
      "hit": false,
      "t": 139600,
      "d": 400,
      "v": 100
    },
    {
      "midi": 52,
      "hit": false,
      "t": 140000,
      "d": 400,
      "v": 100
    },
    {
      "midi": 64,
      "hit": false,
      "t": 140000,
      "d": 400,
      "v": 100
    },
    {
      "midi": 71,
      "hit": false,
      "t": 140000,
      "d": 400,
      "v": 100
    },
    {
      "midi": 76,
      "hit": false,
      "t": 140000,
      "d": 400,
      "v": 100
    },
    {
      "midi": 50,
      "hit": false,
      "t": 140400,
      "d": 400,
      "v": 100
    },
    {
      "midi": 62,
      "hit": false,
      "t": 140400,
      "d": 400,
      "v": 100
    },
    {
      "midi": 69,
      "hit": false,
      "t": 140400,
      "d": 400,
      "v": 100
    },
    {
      "midi": 74,
      "hit": false,
      "t": 140400,
      "d": 400,
      "v": 100
    },
    {
      "midi": 62,
      "hit": false,
      "t": 140800,
      "d": 800,
      "v": 100
    },
    {
      "midi": 69,
      "hit": false,
      "t": 140800,
      "d": 800,
      "v": 100
    },
    {
      "midi": 74,
      "hit": false,
      "t": 140800,
      "d": 800,
      "v": 100
    },
    {
      "midi": 50,
      "hit": false,
      "t": 140800,
      "d": 2400,
      "v": 100
    },
    {
      "midi": 62,
      "hit": false,
      "t": 141600,
      "d": 800,
      "v": 100
    },
    {
      "midi": 69,
      "hit": false,
      "t": 141600,
      "d": 800,
      "v": 100
    },
    {
      "midi": 74,
      "hit": false,
      "t": 141600,
      "d": 800,
      "v": 100
    },
    {
      "midi": 62,
      "hit": false,
      "t": 142400,
      "d": 800,
      "v": 100
    },
    {
      "midi": 69,
      "hit": false,
      "t": 142400,
      "d": 800,
      "v": 100
    },
    {
      "midi": 74,
      "hit": false,
      "t": 142400,
      "d": 800,
      "v": 100
    },
    {
      "midi": 50,
      "hit": false,
      "t": 143200,
      "d": 400,
      "v": 100
    },
    {
      "midi": 62,
      "hit": false,
      "t": 143200,
      "d": 800,
      "v": 100
    },
    {
      "midi": 69,
      "hit": false,
      "t": 143200,
      "d": 800,
      "v": 100
    },
    {
      "midi": 74,
      "hit": false,
      "t": 143200,
      "d": 800,
      "v": 100
    },
    {
      "midi": 54,
      "hit": false,
      "t": 143600,
      "d": 400,
      "v": 100
    },
    {
      "midi": 67,
      "hit": false,
      "t": 144000,
      "d": 800,
      "v": 100
    },
    {
      "midi": 74,
      "hit": false,
      "t": 144000,
      "d": 800,
      "v": 100
    },
    {
      "midi": 79,
      "hit": false,
      "t": 144000,
      "d": 800,
      "v": 100
    },
    {
      "midi": 55,
      "hit": false,
      "t": 144000,
      "d": 2400,
      "v": 100
    },
    {
      "midi": 67,
      "hit": false,
      "t": 144800,
      "d": 800,
      "v": 100
    },
    {
      "midi": 74,
      "hit": false,
      "t": 144800,
      "d": 800,
      "v": 100
    },
    {
      "midi": 79,
      "hit": false,
      "t": 144800,
      "d": 800,
      "v": 100
    },
    {
      "midi": 76,
      "hit": false,
      "t": 145600,
      "d": 400,
      "v": 100
    },
    {
      "midi": 74,
      "hit": false,
      "t": 146000,
      "d": 400,
      "v": 100
    },
    {
      "midi": 55,
      "hit": false,
      "t": 146400,
      "d": 200,
      "v": 100
    },
    {
      "midi": 67,
      "hit": false,
      "t": 146400,
      "d": 800,
      "v": 100
    },
    {
      "midi": 74,
      "hit": false,
      "t": 146400,
      "d": 800,
      "v": 100
    },
    {
      "midi": 79,
      "hit": false,
      "t": 146400,
      "d": 800,
      "v": 100
    },
    {
      "midi": 54,
      "hit": false,
      "t": 146600,
      "d": 200,
      "v": 100
    },
    {
      "midi": 52,
      "hit": false,
      "t": 146800,
      "d": 400,
      "v": 100
    },
    {
      "midi": 62,
      "hit": false,
      "t": 147200,
      "d": 800,
      "v": 100
    },
    {
      "midi": 69,
      "hit": false,
      "t": 147200,
      "d": 800,
      "v": 100
    },
    {
      "midi": 74,
      "hit": false,
      "t": 147200,
      "d": 800,
      "v": 100
    },
    {
      "midi": 50,
      "hit": false,
      "t": 147200,
      "d": 2400,
      "v": 100
    },
    {
      "midi": 62,
      "hit": false,
      "t": 148000,
      "d": 800,
      "v": 100
    },
    {
      "midi": 69,
      "hit": false,
      "t": 148000,
      "d": 800,
      "v": 100
    },
    {
      "midi": 74,
      "hit": false,
      "t": 148000,
      "d": 800,
      "v": 100
    },
    {
      "midi": 62,
      "hit": false,
      "t": 148800,
      "d": 800,
      "v": 100
    },
    {
      "midi": 69,
      "hit": false,
      "t": 148800,
      "d": 800,
      "v": 100
    },
    {
      "midi": 74,
      "hit": false,
      "t": 148800,
      "d": 800,
      "v": 100
    },
    {
      "midi": 50,
      "hit": false,
      "t": 149600,
      "d": 800,
      "v": 100
    },
    {
      "midi": 62,
      "hit": false,
      "t": 149600,
      "d": 800,
      "v": 100
    },
    {
      "midi": 69,
      "hit": false,
      "t": 149600,
      "d": 800,
      "v": 100
    },
    {
      "midi": 74,
      "hit": false,
      "t": 149600,
      "d": 800,
      "v": 100
    },
    {
      "midi": 54,
      "hit": false,
      "t": 150400,
      "d": 1600,
      "v": 100
    },
    {
      "midi": 66,
      "hit": false,
      "t": 150400,
      "d": 1600,
      "v": 100
    },
    {
      "midi": 73,
      "hit": false,
      "t": 150400,
      "d": 1600,
      "v": 100
    },
    {
      "midi": 78,
      "hit": false,
      "t": 150400,
      "d": 1600,
      "v": 100
    },
    {
      "midi": 54,
      "hit": false,
      "t": 152000,
      "d": 400,
      "v": 100
    },
    {
      "midi": 73,
      "hit": false,
      "t": 152000,
      "d": 400,
      "v": 100
    },
    {
      "midi": 54,
      "hit": false,
      "t": 152400,
      "d": 400,
      "v": 100
    },
    {
      "midi": 66,
      "hit": false,
      "t": 152400,
      "d": 400,
      "v": 100
    },
    {
      "midi": 73,
      "hit": false,
      "t": 152400,
      "d": 400,
      "v": 100
    },
    {
      "midi": 78,
      "hit": false,
      "t": 152400,
      "d": 400,
      "v": 100
    },
    {
      "midi": 52,
      "hit": false,
      "t": 152800,
      "d": 400,
      "v": 100
    },
    {
      "midi": 64,
      "hit": false,
      "t": 152800,
      "d": 400,
      "v": 100
    },
    {
      "midi": 71,
      "hit": false,
      "t": 152800,
      "d": 400,
      "v": 100
    },
    {
      "midi": 76,
      "hit": false,
      "t": 152800,
      "d": 400,
      "v": 100
    },
    {
      "midi": 50,
      "hit": false,
      "t": 153200,
      "d": 400,
      "v": 100
    },
    {
      "midi": 62,
      "hit": false,
      "t": 153200,
      "d": 400,
      "v": 100
    },
    {
      "midi": 69,
      "hit": false,
      "t": 153200,
      "d": 400,
      "v": 100
    },
    {
      "midi": 74,
      "hit": false,
      "t": 153200,
      "d": 400,
      "v": 100
    },
    {
      "midi": 62,
      "hit": false,
      "t": 153600,
      "d": 1600,
      "v": 100
    },
    {
      "midi": 67,
      "hit": false,
      "t": 153600,
      "d": 1600,
      "v": 100
    },
    {
      "midi": 71,
      "hit": false,
      "t": 153600,
      "d": 1600,
      "v": 100
    },
    {
      "midi": 64,
      "hit": false,
      "t": 155200,
      "d": 400,
      "v": 100
    },
    {
      "midi": 67,
      "hit": false,
      "t": 155600,
      "d": 400,
      "v": 100
    },
    {
      "midi": 71,
      "hit": false,
      "t": 156000,
      "d": 400,
      "v": 100
    },
    {
      "midi": 67,
      "hit": false,
      "t": 156400,
      "d": 400,
      "v": 100
    },
    {
      "midi": 59,
      "hit": false,
      "t": 156800,
      "d": 3200,
      "v": 100
    },
    {
      "midi": 64,
      "hit": false,
      "t": 156800,
      "d": 3200,
      "v": 100
    },
    {
      "midi": 67,
      "hit": false,
      "t": 156800,
      "d": 3200,
      "v": 100
    },
    {
      "midi": 62,
      "hit": false,
      "t": 160000,
      "d": 1600,
      "v": 100
    },
    {
      "midi": 67,
      "hit": false,
      "t": 160000,
      "d": 1600,
      "v": 100
    },
    {
      "midi": 71,
      "hit": false,
      "t": 160000,
      "d": 1600,
      "v": 100
    },
    {
      "midi": 64,
      "hit": false,
      "t": 161600,
      "d": 400,
      "v": 100
    },
    {
      "midi": 67,
      "hit": false,
      "t": 162000,
      "d": 400,
      "v": 100
    },
    {
      "midi": 71,
      "hit": false,
      "t": 162400,
      "d": 400,
      "v": 100
    },
    {
      "midi": 67,
      "hit": false,
      "t": 162800,
      "d": 400,
      "v": 100
    },
    {
      "midi": 59,
      "hit": false,
      "t": 163200,
      "d": 3200,
      "v": 100
    },
    {
      "midi": 64,
      "hit": false,
      "t": 163200,
      "d": 3200,
      "v": 100
    },
    {
      "midi": 67,
      "hit": false,
      "t": 163200,
      "d": 3200,
      "v": 100
    },
    {
      "midi": 62,
      "hit": false,
      "t": 166400,
      "d": 1600,
      "v": 100
    },
    {
      "midi": 67,
      "hit": false,
      "t": 166400,
      "d": 1600,
      "v": 100
    },
    {
      "midi": 71,
      "hit": false,
      "t": 166400,
      "d": 1600,
      "v": 100
    },
    {
      "midi": 64,
      "hit": false,
      "t": 168000,
      "d": 400,
      "v": 100
    },
    {
      "midi": 67,
      "hit": false,
      "t": 168400,
      "d": 400,
      "v": 100
    },
    {
      "midi": 71,
      "hit": false,
      "t": 168800,
      "d": 400,
      "v": 100
    },
    {
      "midi": 67,
      "hit": false,
      "t": 169200,
      "d": 400,
      "v": 100
    },
    {
      "midi": 59,
      "hit": false,
      "t": 169600,
      "d": 3200,
      "v": 100
    },
    {
      "midi": 64,
      "hit": false,
      "t": 169600,
      "d": 3200,
      "v": 100
    },
    {
      "midi": 67,
      "hit": false,
      "t": 169600,
      "d": 3200,
      "v": 100
    },
    {
      "midi": 62,
      "hit": false,
      "t": 172800,
      "d": 1600,
      "v": 100
    },
    {
      "midi": 67,
      "hit": false,
      "t": 172800,
      "d": 1600,
      "v": 100
    },
    {
      "midi": 71,
      "hit": false,
      "t": 172800,
      "d": 1600,
      "v": 100
    },
    {
      "midi": 64,
      "hit": false,
      "t": 174400,
      "d": 400,
      "v": 100
    },
    {
      "midi": 67,
      "hit": false,
      "t": 174800,
      "d": 400,
      "v": 100
    },
    {
      "midi": 71,
      "hit": false,
      "t": 175200,
      "d": 400,
      "v": 100
    },
    {
      "midi": 67,
      "hit": false,
      "t": 175600,
      "d": 400,
      "v": 100
    },
    {
      "midi": 59,
      "hit": false,
      "t": 176000,
      "d": 3200,
      "v": 100
    },
    {
      "midi": 64,
      "hit": false,
      "t": 176000,
      "d": 3200,
      "v": 100
    },
    {
      "midi": 67,
      "hit": false,
      "t": 176000,
      "d": 3200,
      "v": 100
    },
    {
      "midi": 57,
      "hit": false,
      "t": 179200,
      "d": 400,
      "v": 100
    },
    {
      "midi": 57,
      "hit": false,
      "t": 179600,
      "d": 400,
      "v": 100
    },
    {
      "midi": 64,
      "hit": false,
      "t": 180000,
      "d": 400,
      "v": 100
    },
    {
      "midi": 73,
      "hit": false,
      "t": 180400,
      "d": 400,
      "v": 100
    },
    {
      "midi": 64,
      "hit": false,
      "t": 180800,
      "d": 400,
      "v": 100
    },
    {
      "midi": 76,
      "hit": false,
      "t": 181200,
      "d": 400,
      "v": 100
    },
    {
      "midi": 81,
      "hit": false,
      "t": 181600,
      "d": 400,
      "v": 100
    },
    {
      "midi": 73,
      "hit": false,
      "t": 182000,
      "d": 400,
      "v": 100
    },
    {
      "midi": 57,
      "hit": false,
      "t": 182400,
      "d": 800,
      "v": 100
    },
    {
      "midi": 64,
      "hit": false,
      "t": 182400,
      "d": 800,
      "v": 100
    },
    {
      "midi": 73,
      "hit": false,
      "t": 182400,
      "d": 800,
      "v": 100
    },
    {
      "midi": 73,
      "hit": false,
      "t": 183200,
      "d": 200,
      "v": 100
    },
    {
      "midi": 76,
      "hit": false,
      "t": 183400,
      "d": 200,
      "v": 100
    },
    {
      "midi": 73,
      "hit": false,
      "t": 183600,
      "d": 200,
      "v": 100
    },
    {
      "midi": 81,
      "hit": false,
      "t": 183600,
      "d": 200,
      "v": 100
    },
    {
      "midi": 76,
      "hit": false,
      "t": 183800,
      "d": 200,
      "v": 100
    },
    {
      "midi": 73,
      "hit": false,
      "t": 184000,
      "d": 1600,
      "v": 100
    },
    {
      "midi": 76,
      "hit": false,
      "t": 184000,
      "d": 1600,
      "v": 100
    },
    {
      "midi": 81,
      "hit": false,
      "t": 184000,
      "d": 1600,
      "v": 100
    },
    {
      "midi": 55,
      "hit": false,
      "t": 185600,
      "d": 400,
      "v": 100
    },
    {
      "midi": 55,
      "hit": false,
      "t": 186000,
      "d": 400,
      "v": 100
    },
    {
      "midi": 62,
      "hit": false,
      "t": 186400,
      "d": 400,
      "v": 100
    },
    {
      "midi": 71,
      "hit": false,
      "t": 186800,
      "d": 400,
      "v": 100
    },
    {
      "midi": 62,
      "hit": false,
      "t": 187200,
      "d": 400,
      "v": 100
    },
    {
      "midi": 74,
      "hit": false,
      "t": 187600,
      "d": 400,
      "v": 100
    },
    {
      "midi": 79,
      "hit": false,
      "t": 188000,
      "d": 400,
      "v": 100
    },
    {
      "midi": 71,
      "hit": false,
      "t": 188400,
      "d": 400,
      "v": 100
    },
    {
      "midi": 55,
      "hit": false,
      "t": 188800,
      "d": 800,
      "v": 100
    },
    {
      "midi": 62,
      "hit": false,
      "t": 188800,
      "d": 800,
      "v": 100
    },
    {
      "midi": 71,
      "hit": false,
      "t": 188800,
      "d": 800,
      "v": 100
    },
    {
      "midi": 71,
      "hit": false,
      "t": 189600,
      "d": 200,
      "v": 100
    },
    {
      "midi": 74,
      "hit": false,
      "t": 189800,
      "d": 200,
      "v": 100
    },
    {
      "midi": 71,
      "hit": false,
      "t": 190000,
      "d": 200,
      "v": 100
    },
    {
      "midi": 79,
      "hit": false,
      "t": 190000,
      "d": 200,
      "v": 100
    },
    {
      "midi": 74,
      "hit": false,
      "t": 190200,
      "d": 200,
      "v": 100
    },
    {
      "midi": 71,
      "hit": false,
      "t": 190400,
      "d": 1600,
      "v": 100
    },
    {
      "midi": 74,
      "hit": false,
      "t": 190400,
      "d": 1600,
      "v": 100
    },
    {
      "midi": 79,
      "hit": false,
      "t": 190400,
      "d": 1600,
      "v": 100
    },
    {
      "midi": 54,
      "hit": false,
      "t": 192000,
      "d": 400,
      "v": 100
    },
    {
      "midi": 54,
      "hit": false,
      "t": 192400,
      "d": 400,
      "v": 100
    },
    {
      "midi": 61,
      "hit": false,
      "t": 192800,
      "d": 400,
      "v": 100
    },
    {
      "midi": 69,
      "hit": false,
      "t": 193200,
      "d": 400,
      "v": 100
    },
    {
      "midi": 61,
      "hit": false,
      "t": 193600,
      "d": 400,
      "v": 100
    },
    {
      "midi": 73,
      "hit": false,
      "t": 194000,
      "d": 400,
      "v": 100
    },
    {
      "midi": 78,
      "hit": false,
      "t": 194400,
      "d": 400,
      "v": 100
    },
    {
      "midi": 69,
      "hit": false,
      "t": 194800,
      "d": 400,
      "v": 100
    },
    {
      "midi": 54,
      "hit": false,
      "t": 195200,
      "d": 800,
      "v": 100
    },
    {
      "midi": 61,
      "hit": false,
      "t": 195200,
      "d": 800,
      "v": 100
    },
    {
      "midi": 69,
      "hit": false,
      "t": 195200,
      "d": 800,
      "v": 100
    },
    {
      "midi": 69,
      "hit": false,
      "t": 196000,
      "d": 200,
      "v": 100
    },
    {
      "midi": 73,
      "hit": false,
      "t": 196200,
      "d": 200,
      "v": 100
    },
    {
      "midi": 69,
      "hit": false,
      "t": 196400,
      "d": 200,
      "v": 100
    },
    {
      "midi": 78,
      "hit": false,
      "t": 196400,
      "d": 200,
      "v": 100
    },
    {
      "midi": 73,
      "hit": false,
      "t": 196600,
      "d": 200,
      "v": 100
    },
    {
      "midi": 69,
      "hit": false,
      "t": 196800,
      "d": 1600,
      "v": 100
    },
    {
      "midi": 73,
      "hit": false,
      "t": 196800,
      "d": 1600,
      "v": 100
    },
    {
      "midi": 78,
      "hit": false,
      "t": 196800,
      "d": 1600,
      "v": 100
    },
    {
      "midi": 52,
      "hit": false,
      "t": 198400,
      "d": 400,
      "v": 100
    },
    {
      "midi": 52,
      "hit": false,
      "t": 198800,
      "d": 400,
      "v": 100
    },
    {
      "midi": 59,
      "hit": false,
      "t": 199200,
      "d": 400,
      "v": 100
    },
    {
      "midi": 68,
      "hit": false,
      "t": 199600,
      "d": 400,
      "v": 100
    },
    {
      "midi": 59,
      "hit": false,
      "t": 200000,
      "d": 400,
      "v": 100
    },
    {
      "midi": 71,
      "hit": false,
      "t": 200400,
      "d": 400,
      "v": 100
    },
    {
      "midi": 76,
      "hit": false,
      "t": 200800,
      "d": 400,
      "v": 100
    },
    {
      "midi": 68,
      "hit": false,
      "t": 201200,
      "d": 400,
      "v": 100
    },
    {
      "midi": 52,
      "hit": false,
      "t": 201600,
      "d": 800,
      "v": 100
    },
    {
      "midi": 59,
      "hit": false,
      "t": 201600,
      "d": 800,
      "v": 100
    },
    {
      "midi": 68,
      "hit": false,
      "t": 201600,
      "d": 800,
      "v": 100
    },
    {
      "midi": 68,
      "hit": false,
      "t": 202400,
      "d": 200,
      "v": 100
    },
    {
      "midi": 71,
      "hit": false,
      "t": 202600,
      "d": 200,
      "v": 100
    },
    {
      "midi": 68,
      "hit": false,
      "t": 202800,
      "d": 200,
      "v": 100
    },
    {
      "midi": 76,
      "hit": false,
      "t": 202800,
      "d": 200,
      "v": 100
    },
    {
      "midi": 71,
      "hit": false,
      "t": 203000,
      "d": 200,
      "v": 100
    },
    {
      "midi": 68,
      "hit": false,
      "t": 203200,
      "d": 1600,
      "v": 100
    },
    {
      "midi": 71,
      "hit": false,
      "t": 203200,
      "d": 1600,
      "v": 100
    },
    {
      "midi": 76,
      "hit": false,
      "t": 203200,
      "d": 1600,
      "v": 100
    },
    {
      "midi": 57,
      "hit": false,
      "t": 204800,
      "d": 400,
      "v": 100
    },
    {
      "midi": 57,
      "hit": false,
      "t": 205200,
      "d": 400,
      "v": 100
    },
    {
      "midi": 64,
      "hit": false,
      "t": 205600,
      "d": 400,
      "v": 100
    },
    {
      "midi": 73,
      "hit": false,
      "t": 206000,
      "d": 400,
      "v": 100
    },
    {
      "midi": 64,
      "hit": false,
      "t": 206400,
      "d": 400,
      "v": 100
    },
    {
      "midi": 76,
      "hit": false,
      "t": 206800,
      "d": 400,
      "v": 100
    },
    {
      "midi": 81,
      "hit": false,
      "t": 207200,
      "d": 400,
      "v": 100
    },
    {
      "midi": 73,
      "hit": false,
      "t": 207600,
      "d": 400,
      "v": 100
    },
    {
      "midi": 57,
      "hit": false,
      "t": 208000,
      "d": 800,
      "v": 100
    },
    {
      "midi": 64,
      "hit": false,
      "t": 208000,
      "d": 800,
      "v": 100
    },
    {
      "midi": 73,
      "hit": false,
      "t": 208000,
      "d": 800,
      "v": 100
    },
    {
      "midi": 73,
      "hit": false,
      "t": 208800,
      "d": 200,
      "v": 100
    },
    {
      "midi": 76,
      "hit": false,
      "t": 209000,
      "d": 200,
      "v": 100
    },
    {
      "midi": 73,
      "hit": false,
      "t": 209200,
      "d": 200,
      "v": 100
    },
    {
      "midi": 81,
      "hit": false,
      "t": 209200,
      "d": 200,
      "v": 100
    },
    {
      "midi": 76,
      "hit": false,
      "t": 209400,
      "d": 200,
      "v": 100
    },
    {
      "midi": 73,
      "hit": false,
      "t": 209600,
      "d": 1600,
      "v": 100
    },
    {
      "midi": 76,
      "hit": false,
      "t": 209600,
      "d": 1600,
      "v": 100
    },
    {
      "midi": 81,
      "hit": false,
      "t": 209600,
      "d": 1600,
      "v": 100
    },
    {
      "midi": 55,
      "hit": false,
      "t": 211200,
      "d": 400,
      "v": 100
    },
    {
      "midi": 55,
      "hit": false,
      "t": 211600,
      "d": 400,
      "v": 100
    },
    {
      "midi": 62,
      "hit": false,
      "t": 212000,
      "d": 400,
      "v": 100
    },
    {
      "midi": 71,
      "hit": false,
      "t": 212400,
      "d": 400,
      "v": 100
    },
    {
      "midi": 62,
      "hit": false,
      "t": 212800,
      "d": 400,
      "v": 100
    },
    {
      "midi": 74,
      "hit": false,
      "t": 213200,
      "d": 400,
      "v": 100
    },
    {
      "midi": 79,
      "hit": false,
      "t": 213600,
      "d": 400,
      "v": 100
    },
    {
      "midi": 71,
      "hit": false,
      "t": 214000,
      "d": 400,
      "v": 100
    },
    {
      "midi": 55,
      "hit": false,
      "t": 214400,
      "d": 800,
      "v": 100
    },
    {
      "midi": 62,
      "hit": false,
      "t": 214400,
      "d": 800,
      "v": 100
    },
    {
      "midi": 71,
      "hit": false,
      "t": 214400,
      "d": 800,
      "v": 100
    },
    {
      "midi": 71,
      "hit": false,
      "t": 215200,
      "d": 200,
      "v": 100
    },
    {
      "midi": 74,
      "hit": false,
      "t": 215400,
      "d": 200,
      "v": 100
    },
    {
      "midi": 71,
      "hit": false,
      "t": 215600,
      "d": 200,
      "v": 100
    },
    {
      "midi": 79,
      "hit": false,
      "t": 215600,
      "d": 200,
      "v": 100
    },
    {
      "midi": 74,
      "hit": false,
      "t": 215800,
      "d": 200,
      "v": 100
    },
    {
      "midi": 71,
      "hit": false,
      "t": 216000,
      "d": 1600,
      "v": 100
    },
    {
      "midi": 74,
      "hit": false,
      "t": 216000,
      "d": 1600,
      "v": 100
    },
    {
      "midi": 79,
      "hit": false,
      "t": 216000,
      "d": 1600,
      "v": 100
    },
    {
      "midi": 54,
      "hit": false,
      "t": 217600,
      "d": 400,
      "v": 100
    },
    {
      "midi": 54,
      "hit": false,
      "t": 218000,
      "d": 400,
      "v": 100
    },
    {
      "midi": 61,
      "hit": false,
      "t": 218400,
      "d": 400,
      "v": 100
    },
    {
      "midi": 69,
      "hit": false,
      "t": 218800,
      "d": 400,
      "v": 100
    },
    {
      "midi": 61,
      "hit": false,
      "t": 219200,
      "d": 400,
      "v": 100
    },
    {
      "midi": 73,
      "hit": false,
      "t": 219600,
      "d": 400,
      "v": 100
    },
    {
      "midi": 78,
      "hit": false,
      "t": 220000,
      "d": 400,
      "v": 100
    },
    {
      "midi": 69,
      "hit": false,
      "t": 220400,
      "d": 400,
      "v": 100
    },
    {
      "midi": 54,
      "hit": false,
      "t": 220800,
      "d": 800,
      "v": 100
    },
    {
      "midi": 61,
      "hit": false,
      "t": 220800,
      "d": 800,
      "v": 100
    },
    {
      "midi": 69,
      "hit": false,
      "t": 220800,
      "d": 800,
      "v": 100
    },
    {
      "midi": 69,
      "hit": false,
      "t": 221600,
      "d": 200,
      "v": 100
    },
    {
      "midi": 73,
      "hit": false,
      "t": 221800,
      "d": 200,
      "v": 100
    },
    {
      "midi": 69,
      "hit": false,
      "t": 222000,
      "d": 200,
      "v": 100
    },
    {
      "midi": 78,
      "hit": false,
      "t": 222000,
      "d": 200,
      "v": 100
    },
    {
      "midi": 73,
      "hit": false,
      "t": 222200,
      "d": 200,
      "v": 100
    },
    {
      "midi": 69,
      "hit": false,
      "t": 222400,
      "d": 1600,
      "v": 100
    },
    {
      "midi": 73,
      "hit": false,
      "t": 222400,
      "d": 1600,
      "v": 100
    },
    {
      "midi": 78,
      "hit": false,
      "t": 222400,
      "d": 1600,
      "v": 100
    },
    {
      "midi": 52,
      "hit": false,
      "t": 224000,
      "d": 400,
      "v": 100
    },
    {
      "midi": 52,
      "hit": false,
      "t": 224400,
      "d": 400,
      "v": 100
    },
    {
      "midi": 59,
      "hit": false,
      "t": 224800,
      "d": 400,
      "v": 100
    },
    {
      "midi": 68,
      "hit": false,
      "t": 225200,
      "d": 400,
      "v": 100
    },
    {
      "midi": 59,
      "hit": false,
      "t": 225600,
      "d": 400,
      "v": 100
    },
    {
      "midi": 71,
      "hit": false,
      "t": 226000,
      "d": 400,
      "v": 100
    },
    {
      "midi": 76,
      "hit": false,
      "t": 226400,
      "d": 400,
      "v": 100
    },
    {
      "midi": 68,
      "hit": false,
      "t": 226800,
      "d": 400,
      "v": 100
    },
    {
      "midi": 52,
      "hit": false,
      "t": 227200,
      "d": 800,
      "v": 100
    },
    {
      "midi": 59,
      "hit": false,
      "t": 227200,
      "d": 800,
      "v": 100
    },
    {
      "midi": 68,
      "hit": false,
      "t": 227200,
      "d": 800,
      "v": 100
    },
    {
      "midi": 68,
      "hit": false,
      "t": 228000,
      "d": 200,
      "v": 100
    },
    {
      "midi": 71,
      "hit": false,
      "t": 228200,
      "d": 200,
      "v": 100
    },
    {
      "midi": 68,
      "hit": false,
      "t": 228400,
      "d": 200,
      "v": 100
    },
    {
      "midi": 76,
      "hit": false,
      "t": 228400,
      "d": 200,
      "v": 100
    },
    {
      "midi": 71,
      "hit": false,
      "t": 228600,
      "d": 200,
      "v": 100
    },
    {
      "midi": 68,
      "hit": false,
      "t": 228800,
      "d": 1600,
      "v": 100
    },
    {
      "midi": 71,
      "hit": false,
      "t": 228800,
      "d": 1600,
      "v": 100
    },
    {
      "midi": 76,
      "hit": false,
      "t": 228800,
      "d": 1600,
      "v": 100
    },
    {
      "midi": 57,
      "hit": false,
      "t": 230400,
      "d": 400,
      "v": 100
    },
    {
      "midi": 57,
      "hit": false,
      "t": 230800,
      "d": 400,
      "v": 100
    },
    {
      "midi": 64,
      "hit": false,
      "t": 231200,
      "d": 400,
      "v": 100
    },
    {
      "midi": 73,
      "hit": false,
      "t": 231600,
      "d": 400,
      "v": 100
    },
    {
      "midi": 64,
      "hit": false,
      "t": 232000,
      "d": 400,
      "v": 100
    },
    {
      "midi": 76,
      "hit": false,
      "t": 232400,
      "d": 400,
      "v": 100
    },
    {
      "midi": 81,
      "hit": false,
      "t": 232800,
      "d": 400,
      "v": 100
    },
    {
      "midi": 73,
      "hit": false,
      "t": 233200,
      "d": 400,
      "v": 100
    },
    {
      "midi": 57,
      "hit": false,
      "t": 233600,
      "d": 800,
      "v": 100
    },
    {
      "midi": 64,
      "hit": false,
      "t": 233600,
      "d": 800,
      "v": 100
    },
    {
      "midi": 73,
      "hit": false,
      "t": 233600,
      "d": 800,
      "v": 100
    },
    {
      "midi": 73,
      "hit": false,
      "t": 234400,
      "d": 200,
      "v": 100
    },
    {
      "midi": 76,
      "hit": false,
      "t": 234600,
      "d": 200,
      "v": 100
    },
    {
      "midi": 73,
      "hit": false,
      "t": 234800,
      "d": 200,
      "v": 100
    },
    {
      "midi": 81,
      "hit": false,
      "t": 234800,
      "d": 200,
      "v": 100
    },
    {
      "midi": 76,
      "hit": false,
      "t": 235000,
      "d": 200,
      "v": 100
    },
    {
      "midi": 73,
      "hit": false,
      "t": 235200,
      "d": 1600,
      "v": 100
    },
    {
      "midi": 76,
      "hit": false,
      "t": 235200,
      "d": 1600,
      "v": 100
    },
    {
      "midi": 81,
      "hit": false,
      "t": 235200,
      "d": 1600,
      "v": 100
    },
    {
      "midi": 55,
      "hit": false,
      "t": 236800,
      "d": 400,
      "v": 100
    },
    {
      "midi": 55,
      "hit": false,
      "t": 237200,
      "d": 400,
      "v": 100
    },
    {
      "midi": 62,
      "hit": false,
      "t": 237600,
      "d": 400,
      "v": 100
    },
    {
      "midi": 71,
      "hit": false,
      "t": 238000,
      "d": 400,
      "v": 100
    },
    {
      "midi": 62,
      "hit": false,
      "t": 238400,
      "d": 400,
      "v": 100
    },
    {
      "midi": 74,
      "hit": false,
      "t": 238800,
      "d": 400,
      "v": 100
    },
    {
      "midi": 79,
      "hit": false,
      "t": 239200,
      "d": 400,
      "v": 100
    },
    {
      "midi": 71,
      "hit": false,
      "t": 239600,
      "d": 400,
      "v": 100
    },
    {
      "midi": 55,
      "hit": false,
      "t": 240000,
      "d": 800,
      "v": 100
    },
    {
      "midi": 62,
      "hit": false,
      "t": 240000,
      "d": 800,
      "v": 100
    },
    {
      "midi": 71,
      "hit": false,
      "t": 240000,
      "d": 800,
      "v": 100
    },
    {
      "midi": 71,
      "hit": false,
      "t": 240800,
      "d": 200,
      "v": 100
    },
    {
      "midi": 74,
      "hit": false,
      "t": 241000,
      "d": 200,
      "v": 100
    },
    {
      "midi": 71,
      "hit": false,
      "t": 241200,
      "d": 200,
      "v": 100
    },
    {
      "midi": 79,
      "hit": false,
      "t": 241200,
      "d": 200,
      "v": 100
    },
    {
      "midi": 74,
      "hit": false,
      "t": 241400,
      "d": 200,
      "v": 100
    },
    {
      "midi": 71,
      "hit": false,
      "t": 241600,
      "d": 1600,
      "v": 100
    },
    {
      "midi": 74,
      "hit": false,
      "t": 241600,
      "d": 1600,
      "v": 100
    },
    {
      "midi": 79,
      "hit": false,
      "t": 241600,
      "d": 1600,
      "v": 100
    },
    {
      "midi": 54,
      "hit": false,
      "t": 243200,
      "d": 400,
      "v": 100
    },
    {
      "midi": 54,
      "hit": false,
      "t": 243600,
      "d": 400,
      "v": 100
    },
    {
      "midi": 61,
      "hit": false,
      "t": 244000,
      "d": 400,
      "v": 100
    },
    {
      "midi": 69,
      "hit": false,
      "t": 244400,
      "d": 400,
      "v": 100
    },
    {
      "midi": 61,
      "hit": false,
      "t": 244800,
      "d": 400,
      "v": 100
    },
    {
      "midi": 73,
      "hit": false,
      "t": 245200,
      "d": 400,
      "v": 100
    },
    {
      "midi": 78,
      "hit": false,
      "t": 245600,
      "d": 400,
      "v": 100
    },
    {
      "midi": 69,
      "hit": false,
      "t": 246000,
      "d": 400,
      "v": 100
    },
    {
      "midi": 54,
      "hit": false,
      "t": 246400,
      "d": 800,
      "v": 100
    },
    {
      "midi": 61,
      "hit": false,
      "t": 246400,
      "d": 800,
      "v": 100
    },
    {
      "midi": 69,
      "hit": false,
      "t": 246400,
      "d": 800,
      "v": 100
    },
    {
      "midi": 69,
      "hit": false,
      "t": 247200,
      "d": 200,
      "v": 100
    },
    {
      "midi": 73,
      "hit": false,
      "t": 247400,
      "d": 200,
      "v": 100
    },
    {
      "midi": 69,
      "hit": false,
      "t": 247600,
      "d": 200,
      "v": 100
    },
    {
      "midi": 78,
      "hit": false,
      "t": 247600,
      "d": 200,
      "v": 100
    },
    {
      "midi": 73,
      "hit": false,
      "t": 247800,
      "d": 200,
      "v": 100
    },
    {
      "midi": 69,
      "hit": false,
      "t": 248000,
      "d": 1600,
      "v": 100
    },
    {
      "midi": 73,
      "hit": false,
      "t": 248000,
      "d": 1600,
      "v": 100
    },
    {
      "midi": 78,
      "hit": false,
      "t": 248000,
      "d": 1600,
      "v": 100
    },
    {
      "midi": 52,
      "hit": false,
      "t": 249600,
      "d": 400,
      "v": 100
    },
    {
      "midi": 52,
      "hit": false,
      "t": 250000,
      "d": 400,
      "v": 100
    },
    {
      "midi": 59,
      "hit": false,
      "t": 250400,
      "d": 400,
      "v": 100
    },
    {
      "midi": 68,
      "hit": false,
      "t": 250800,
      "d": 400,
      "v": 100
    },
    {
      "midi": 59,
      "hit": false,
      "t": 251200,
      "d": 400,
      "v": 100
    },
    {
      "midi": 71,
      "hit": false,
      "t": 251600,
      "d": 400,
      "v": 100
    },
    {
      "midi": 76,
      "hit": false,
      "t": 252000,
      "d": 400,
      "v": 100
    },
    {
      "midi": 68,
      "hit": false,
      "t": 252400,
      "d": 400,
      "v": 100
    },
    {
      "midi": 52,
      "hit": false,
      "t": 252800,
      "d": 800,
      "v": 100
    },
    {
      "midi": 59,
      "hit": false,
      "t": 252800,
      "d": 800,
      "v": 100
    },
    {
      "midi": 68,
      "hit": false,
      "t": 252800,
      "d": 800,
      "v": 100
    },
    {
      "midi": 68,
      "hit": false,
      "t": 253600,
      "d": 200,
      "v": 100
    },
    {
      "midi": 71,
      "hit": false,
      "t": 253800,
      "d": 200,
      "v": 100
    },
    {
      "midi": 68,
      "hit": false,
      "t": 254000,
      "d": 200,
      "v": 100
    },
    {
      "midi": 76,
      "hit": false,
      "t": 254000,
      "d": 200,
      "v": 100
    },
    {
      "midi": 71,
      "hit": false,
      "t": 254200,
      "d": 200,
      "v": 100
    },
    {
      "midi": 68,
      "hit": false,
      "t": 254400,
      "d": 1600,
      "v": 100
    },
    {
      "midi": 71,
      "hit": false,
      "t": 254400,
      "d": 1600,
      "v": 100
    },
    {
      "midi": 76,
      "hit": false,
      "t": 254400,
      "d": 1600,
      "v": 100
    },
    {
      "midi": 62,
      "hit": false,
      "t": 256000,
      "d": 800,
      "v": 100
    },
    {
      "midi": 69,
      "hit": false,
      "t": 256000,
      "d": 800,
      "v": 100
    },
    {
      "midi": 74,
      "hit": false,
      "t": 256000,
      "d": 800,
      "v": 100
    },
    {
      "midi": 50,
      "hit": false,
      "t": 256000,
      "d": 2400,
      "v": 100
    },
    {
      "midi": 62,
      "hit": false,
      "t": 256800,
      "d": 800,
      "v": 100
    },
    {
      "midi": 69,
      "hit": false,
      "t": 256800,
      "d": 800,
      "v": 100
    },
    {
      "midi": 74,
      "hit": false,
      "t": 256800,
      "d": 800,
      "v": 100
    },
    {
      "midi": 62,
      "hit": false,
      "t": 257600,
      "d": 800,
      "v": 100
    },
    {
      "midi": 69,
      "hit": false,
      "t": 257600,
      "d": 800,
      "v": 100
    },
    {
      "midi": 74,
      "hit": false,
      "t": 257600,
      "d": 800,
      "v": 100
    },
    {
      "midi": 50,
      "hit": false,
      "t": 258400,
      "d": 400,
      "v": 100
    },
    {
      "midi": 62,
      "hit": false,
      "t": 258400,
      "d": 800,
      "v": 100
    },
    {
      "midi": 69,
      "hit": false,
      "t": 258400,
      "d": 800,
      "v": 100
    },
    {
      "midi": 74,
      "hit": false,
      "t": 258400,
      "d": 800,
      "v": 100
    },
    {
      "midi": 54,
      "hit": false,
      "t": 258800,
      "d": 400,
      "v": 100
    },
    {
      "midi": 67,
      "hit": false,
      "t": 259200,
      "d": 800,
      "v": 100
    },
    {
      "midi": 74,
      "hit": false,
      "t": 259200,
      "d": 800,
      "v": 100
    },
    {
      "midi": 79,
      "hit": false,
      "t": 259200,
      "d": 800,
      "v": 100
    },
    {
      "midi": 55,
      "hit": false,
      "t": 259200,
      "d": 2400,
      "v": 100
    },
    {
      "midi": 67,
      "hit": false,
      "t": 260000,
      "d": 800,
      "v": 100
    },
    {
      "midi": 74,
      "hit": false,
      "t": 260000,
      "d": 800,
      "v": 100
    },
    {
      "midi": 79,
      "hit": false,
      "t": 260000,
      "d": 800,
      "v": 100
    },
    {
      "midi": 76,
      "hit": false,
      "t": 260800,
      "d": 400,
      "v": 100
    },
    {
      "midi": 74,
      "hit": false,
      "t": 261200,
      "d": 400,
      "v": 100
    },
    {
      "midi": 55,
      "hit": false,
      "t": 261600,
      "d": 200,
      "v": 100
    },
    {
      "midi": 67,
      "hit": false,
      "t": 261600,
      "d": 800,
      "v": 100
    },
    {
      "midi": 74,
      "hit": false,
      "t": 261600,
      "d": 800,
      "v": 100
    },
    {
      "midi": 79,
      "hit": false,
      "t": 261600,
      "d": 800,
      "v": 100
    },
    {
      "midi": 54,
      "hit": false,
      "t": 261800,
      "d": 200,
      "v": 100
    },
    {
      "midi": 52,
      "hit": false,
      "t": 262000,
      "d": 400,
      "v": 100
    },
    {
      "midi": 62,
      "hit": false,
      "t": 262400,
      "d": 800,
      "v": 100
    },
    {
      "midi": 69,
      "hit": false,
      "t": 262400,
      "d": 800,
      "v": 100
    },
    {
      "midi": 74,
      "hit": false,
      "t": 262400,
      "d": 800,
      "v": 100
    },
    {
      "midi": 50,
      "hit": false,
      "t": 262400,
      "d": 2400,
      "v": 100
    },
    {
      "midi": 62,
      "hit": false,
      "t": 263200,
      "d": 800,
      "v": 100
    },
    {
      "midi": 69,
      "hit": false,
      "t": 263200,
      "d": 800,
      "v": 100
    },
    {
      "midi": 74,
      "hit": false,
      "t": 263200,
      "d": 800,
      "v": 100
    },
    {
      "midi": 62,
      "hit": false,
      "t": 264000,
      "d": 800,
      "v": 100
    },
    {
      "midi": 69,
      "hit": false,
      "t": 264000,
      "d": 800,
      "v": 100
    },
    {
      "midi": 74,
      "hit": false,
      "t": 264000,
      "d": 800,
      "v": 100
    },
    {
      "midi": 50,
      "hit": false,
      "t": 264800,
      "d": 800,
      "v": 100
    },
    {
      "midi": 62,
      "hit": false,
      "t": 264800,
      "d": 800,
      "v": 100
    },
    {
      "midi": 69,
      "hit": false,
      "t": 264800,
      "d": 800,
      "v": 100
    },
    {
      "midi": 74,
      "hit": false,
      "t": 264800,
      "d": 800,
      "v": 100
    },
    {
      "midi": 54,
      "hit": false,
      "t": 265600,
      "d": 1600,
      "v": 100
    },
    {
      "midi": 66,
      "hit": false,
      "t": 265600,
      "d": 1600,
      "v": 100
    },
    {
      "midi": 73,
      "hit": false,
      "t": 265600,
      "d": 1600,
      "v": 100
    },
    {
      "midi": 78,
      "hit": false,
      "t": 265600,
      "d": 1600,
      "v": 100
    },
    {
      "midi": 54,
      "hit": false,
      "t": 267200,
      "d": 400,
      "v": 100
    },
    {
      "midi": 73,
      "hit": false,
      "t": 267200,
      "d": 400,
      "v": 100
    },
    {
      "midi": 54,
      "hit": false,
      "t": 267600,
      "d": 400,
      "v": 100
    },
    {
      "midi": 66,
      "hit": false,
      "t": 267600,
      "d": 400,
      "v": 100
    },
    {
      "midi": 73,
      "hit": false,
      "t": 267600,
      "d": 400,
      "v": 100
    },
    {
      "midi": 78,
      "hit": false,
      "t": 267600,
      "d": 400,
      "v": 100
    },
    {
      "midi": 52,
      "hit": false,
      "t": 268000,
      "d": 400,
      "v": 100
    },
    {
      "midi": 64,
      "hit": false,
      "t": 268000,
      "d": 400,
      "v": 100
    },
    {
      "midi": 71,
      "hit": false,
      "t": 268000,
      "d": 400,
      "v": 100
    },
    {
      "midi": 76,
      "hit": false,
      "t": 268000,
      "d": 400,
      "v": 100
    },
    {
      "midi": 50,
      "hit": false,
      "t": 268400,
      "d": 400,
      "v": 100
    },
    {
      "midi": 62,
      "hit": false,
      "t": 268400,
      "d": 400,
      "v": 100
    },
    {
      "midi": 69,
      "hit": false,
      "t": 268400,
      "d": 400,
      "v": 100
    },
    {
      "midi": 74,
      "hit": false,
      "t": 268400,
      "d": 400,
      "v": 100
    },
    {
      "midi": 62,
      "hit": false,
      "t": 268800,
      "d": 800,
      "v": 100
    },
    {
      "midi": 69,
      "hit": false,
      "t": 268800,
      "d": 800,
      "v": 100
    },
    {
      "midi": 74,
      "hit": false,
      "t": 268800,
      "d": 800,
      "v": 100
    },
    {
      "midi": 50,
      "hit": false,
      "t": 268800,
      "d": 2400,
      "v": 100
    },
    {
      "midi": 62,
      "hit": false,
      "t": 269600,
      "d": 800,
      "v": 100
    },
    {
      "midi": 69,
      "hit": false,
      "t": 269600,
      "d": 800,
      "v": 100
    },
    {
      "midi": 74,
      "hit": false,
      "t": 269600,
      "d": 800,
      "v": 100
    },
    {
      "midi": 62,
      "hit": false,
      "t": 270400,
      "d": 800,
      "v": 100
    },
    {
      "midi": 69,
      "hit": false,
      "t": 270400,
      "d": 800,
      "v": 100
    },
    {
      "midi": 74,
      "hit": false,
      "t": 270400,
      "d": 800,
      "v": 100
    },
    {
      "midi": 50,
      "hit": false,
      "t": 271200,
      "d": 400,
      "v": 100
    },
    {
      "midi": 62,
      "hit": false,
      "t": 271200,
      "d": 800,
      "v": 100
    },
    {
      "midi": 69,
      "hit": false,
      "t": 271200,
      "d": 800,
      "v": 100
    },
    {
      "midi": 74,
      "hit": false,
      "t": 271200,
      "d": 800,
      "v": 100
    },
    {
      "midi": 54,
      "hit": false,
      "t": 271600,
      "d": 400,
      "v": 100
    },
    {
      "midi": 67,
      "hit": false,
      "t": 272000,
      "d": 800,
      "v": 100
    },
    {
      "midi": 74,
      "hit": false,
      "t": 272000,
      "d": 800,
      "v": 100
    },
    {
      "midi": 79,
      "hit": false,
      "t": 272000,
      "d": 800,
      "v": 100
    },
    {
      "midi": 55,
      "hit": false,
      "t": 272000,
      "d": 2400,
      "v": 100
    },
    {
      "midi": 67,
      "hit": false,
      "t": 272800,
      "d": 800,
      "v": 100
    },
    {
      "midi": 74,
      "hit": false,
      "t": 272800,
      "d": 800,
      "v": 100
    },
    {
      "midi": 79,
      "hit": false,
      "t": 272800,
      "d": 800,
      "v": 100
    },
    {
      "midi": 76,
      "hit": false,
      "t": 273600,
      "d": 400,
      "v": 100
    },
    {
      "midi": 74,
      "hit": false,
      "t": 274000,
      "d": 400,
      "v": 100
    },
    {
      "midi": 55,
      "hit": false,
      "t": 274400,
      "d": 200,
      "v": 100
    },
    {
      "midi": 67,
      "hit": false,
      "t": 274400,
      "d": 800,
      "v": 100
    },
    {
      "midi": 74,
      "hit": false,
      "t": 274400,
      "d": 800,
      "v": 100
    },
    {
      "midi": 79,
      "hit": false,
      "t": 274400,
      "d": 800,
      "v": 100
    },
    {
      "midi": 54,
      "hit": false,
      "t": 274600,
      "d": 200,
      "v": 100
    },
    {
      "midi": 52,
      "hit": false,
      "t": 274800,
      "d": 400,
      "v": 100
    },
    {
      "midi": 62,
      "hit": false,
      "t": 275200,
      "d": 800,
      "v": 100
    },
    {
      "midi": 69,
      "hit": false,
      "t": 275200,
      "d": 800,
      "v": 100
    },
    {
      "midi": 74,
      "hit": false,
      "t": 275200,
      "d": 800,
      "v": 100
    },
    {
      "midi": 50,
      "hit": false,
      "t": 275200,
      "d": 2400,
      "v": 100
    },
    {
      "midi": 62,
      "hit": false,
      "t": 276000,
      "d": 800,
      "v": 100
    },
    {
      "midi": 69,
      "hit": false,
      "t": 276000,
      "d": 800,
      "v": 100
    },
    {
      "midi": 74,
      "hit": false,
      "t": 276000,
      "d": 800,
      "v": 100
    },
    {
      "midi": 62,
      "hit": false,
      "t": 276800,
      "d": 800,
      "v": 100
    },
    {
      "midi": 69,
      "hit": false,
      "t": 276800,
      "d": 800,
      "v": 100
    },
    {
      "midi": 74,
      "hit": false,
      "t": 276800,
      "d": 800,
      "v": 100
    },
    {
      "midi": 50,
      "hit": false,
      "t": 277600,
      "d": 800,
      "v": 100
    },
    {
      "midi": 62,
      "hit": false,
      "t": 277600,
      "d": 800,
      "v": 100
    },
    {
      "midi": 69,
      "hit": false,
      "t": 277600,
      "d": 800,
      "v": 100
    },
    {
      "midi": 74,
      "hit": false,
      "t": 277600,
      "d": 800,
      "v": 100
    },
    {
      "midi": 54,
      "hit": false,
      "t": 278400,
      "d": 1600,
      "v": 100
    },
    {
      "midi": 66,
      "hit": false,
      "t": 278400,
      "d": 1600,
      "v": 100
    },
    {
      "midi": 73,
      "hit": false,
      "t": 278400,
      "d": 1600,
      "v": 100
    },
    {
      "midi": 78,
      "hit": false,
      "t": 278400,
      "d": 1600,
      "v": 100
    },
    {
      "midi": 54,
      "hit": false,
      "t": 280000,
      "d": 400,
      "v": 100
    },
    {
      "midi": 73,
      "hit": false,
      "t": 280000,
      "d": 400,
      "v": 100
    },
    {
      "midi": 54,
      "hit": false,
      "t": 280400,
      "d": 400,
      "v": 100
    },
    {
      "midi": 66,
      "hit": false,
      "t": 280400,
      "d": 400,
      "v": 100
    },
    {
      "midi": 73,
      "hit": false,
      "t": 280400,
      "d": 400,
      "v": 100
    },
    {
      "midi": 78,
      "hit": false,
      "t": 280400,
      "d": 400,
      "v": 100
    },
    {
      "midi": 52,
      "hit": false,
      "t": 280800,
      "d": 400,
      "v": 100
    },
    {
      "midi": 64,
      "hit": false,
      "t": 280800,
      "d": 400,
      "v": 100
    },
    {
      "midi": 71,
      "hit": false,
      "t": 280800,
      "d": 400,
      "v": 100
    },
    {
      "midi": 76,
      "hit": false,
      "t": 280800,
      "d": 400,
      "v": 100
    },
    {
      "midi": 50,
      "hit": false,
      "t": 281200,
      "d": 400,
      "v": 100
    },
    {
      "midi": 62,
      "hit": false,
      "t": 281200,
      "d": 400,
      "v": 100
    },
    {
      "midi": 69,
      "hit": false,
      "t": 281200,
      "d": 400,
      "v": 100
    },
    {
      "midi": 74,
      "hit": false,
      "t": 281200,
      "d": 400,
      "v": 100
    },
    {
      "midi": 62,
      "hit": false,
      "t": 281600,
      "d": 800,
      "v": 100
    },
    {
      "midi": 69,
      "hit": false,
      "t": 281600,
      "d": 800,
      "v": 100
    },
    {
      "midi": 74,
      "hit": false,
      "t": 281600,
      "d": 800,
      "v": 100
    },
    {
      "midi": 50,
      "hit": false,
      "t": 281600,
      "d": 2400,
      "v": 100
    },
    {
      "midi": 62,
      "hit": false,
      "t": 282400,
      "d": 800,
      "v": 100
    },
    {
      "midi": 69,
      "hit": false,
      "t": 282400,
      "d": 800,
      "v": 100
    },
    {
      "midi": 74,
      "hit": false,
      "t": 282400,
      "d": 800,
      "v": 100
    },
    {
      "midi": 62,
      "hit": false,
      "t": 283200,
      "d": 800,
      "v": 100
    },
    {
      "midi": 69,
      "hit": false,
      "t": 283200,
      "d": 800,
      "v": 100
    },
    {
      "midi": 74,
      "hit": false,
      "t": 283200,
      "d": 800,
      "v": 100
    },
    {
      "midi": 50,
      "hit": false,
      "t": 284000,
      "d": 400,
      "v": 100
    },
    {
      "midi": 62,
      "hit": false,
      "t": 284000,
      "d": 800,
      "v": 100
    },
    {
      "midi": 69,
      "hit": false,
      "t": 284000,
      "d": 800,
      "v": 100
    },
    {
      "midi": 74,
      "hit": false,
      "t": 284000,
      "d": 800,
      "v": 100
    },
    {
      "midi": 54,
      "hit": false,
      "t": 284400,
      "d": 400,
      "v": 100
    },
    {
      "midi": 67,
      "hit": false,
      "t": 284800,
      "d": 800,
      "v": 100
    },
    {
      "midi": 74,
      "hit": false,
      "t": 284800,
      "d": 800,
      "v": 100
    },
    {
      "midi": 79,
      "hit": false,
      "t": 284800,
      "d": 800,
      "v": 100
    },
    {
      "midi": 55,
      "hit": false,
      "t": 284800,
      "d": 2400,
      "v": 100
    },
    {
      "midi": 67,
      "hit": false,
      "t": 285600,
      "d": 800,
      "v": 100
    },
    {
      "midi": 74,
      "hit": false,
      "t": 285600,
      "d": 800,
      "v": 100
    },
    {
      "midi": 79,
      "hit": false,
      "t": 285600,
      "d": 800,
      "v": 100
    },
    {
      "midi": 76,
      "hit": false,
      "t": 286400,
      "d": 400,
      "v": 100
    },
    {
      "midi": 74,
      "hit": false,
      "t": 286800,
      "d": 400,
      "v": 100
    },
    {
      "midi": 55,
      "hit": false,
      "t": 287200,
      "d": 200,
      "v": 100
    },
    {
      "midi": 67,
      "hit": false,
      "t": 287200,
      "d": 800,
      "v": 100
    },
    {
      "midi": 74,
      "hit": false,
      "t": 287200,
      "d": 800,
      "v": 100
    },
    {
      "midi": 79,
      "hit": false,
      "t": 287200,
      "d": 800,
      "v": 100
    },
    {
      "midi": 54,
      "hit": false,
      "t": 287400,
      "d": 200,
      "v": 100
    },
    {
      "midi": 52,
      "hit": false,
      "t": 287600,
      "d": 400,
      "v": 100
    },
    {
      "midi": 62,
      "hit": false,
      "t": 288000,
      "d": 800,
      "v": 100
    },
    {
      "midi": 69,
      "hit": false,
      "t": 288000,
      "d": 800,
      "v": 100
    },
    {
      "midi": 74,
      "hit": false,
      "t": 288000,
      "d": 800,
      "v": 100
    },
    {
      "midi": 50,
      "hit": false,
      "t": 288000,
      "d": 2400,
      "v": 100
    },
    {
      "midi": 62,
      "hit": false,
      "t": 288800,
      "d": 800,
      "v": 100
    },
    {
      "midi": 69,
      "hit": false,
      "t": 288800,
      "d": 800,
      "v": 100
    },
    {
      "midi": 74,
      "hit": false,
      "t": 288800,
      "d": 800,
      "v": 100
    },
    {
      "midi": 62,
      "hit": false,
      "t": 289600,
      "d": 800,
      "v": 100
    },
    {
      "midi": 69,
      "hit": false,
      "t": 289600,
      "d": 800,
      "v": 100
    },
    {
      "midi": 74,
      "hit": false,
      "t": 289600,
      "d": 800,
      "v": 100
    },
    {
      "midi": 50,
      "hit": false,
      "t": 290400,
      "d": 800,
      "v": 100
    },
    {
      "midi": 62,
      "hit": false,
      "t": 290400,
      "d": 800,
      "v": 100
    },
    {
      "midi": 69,
      "hit": false,
      "t": 290400,
      "d": 800,
      "v": 100
    },
    {
      "midi": 74,
      "hit": false,
      "t": 290400,
      "d": 800,
      "v": 100
    },
    {
      "midi": 54,
      "hit": false,
      "t": 291200,
      "d": 1600,
      "v": 100
    },
    {
      "midi": 66,
      "hit": false,
      "t": 291200,
      "d": 1600,
      "v": 100
    },
    {
      "midi": 73,
      "hit": false,
      "t": 291200,
      "d": 1600,
      "v": 100
    },
    {
      "midi": 78,
      "hit": false,
      "t": 291200,
      "d": 1600,
      "v": 100
    },
    {
      "midi": 54,
      "hit": false,
      "t": 292800,
      "d": 400,
      "v": 100
    },
    {
      "midi": 73,
      "hit": false,
      "t": 292800,
      "d": 400,
      "v": 100
    },
    {
      "midi": 54,
      "hit": false,
      "t": 293200,
      "d": 400,
      "v": 100
    },
    {
      "midi": 66,
      "hit": false,
      "t": 293200,
      "d": 400,
      "v": 100
    },
    {
      "midi": 73,
      "hit": false,
      "t": 293200,
      "d": 400,
      "v": 100
    },
    {
      "midi": 78,
      "hit": false,
      "t": 293200,
      "d": 400,
      "v": 100
    },
    {
      "midi": 52,
      "hit": false,
      "t": 293600,
      "d": 400,
      "v": 100
    },
    {
      "midi": 64,
      "hit": false,
      "t": 293600,
      "d": 400,
      "v": 100
    },
    {
      "midi": 71,
      "hit": false,
      "t": 293600,
      "d": 400,
      "v": 100
    },
    {
      "midi": 76,
      "hit": false,
      "t": 293600,
      "d": 400,
      "v": 100
    },
    {
      "midi": 50,
      "hit": false,
      "t": 294000,
      "d": 400,
      "v": 100
    },
    {
      "midi": 62,
      "hit": false,
      "t": 294000,
      "d": 400,
      "v": 100
    },
    {
      "midi": 69,
      "hit": false,
      "t": 294000,
      "d": 400,
      "v": 100
    },
    {
      "midi": 74,
      "hit": false,
      "t": 294000,
      "d": 400,
      "v": 100
    },
    {
      "midi": 62,
      "hit": false,
      "t": 294400,
      "d": 1600,
      "v": 100
    },
    {
      "midi": 67,
      "hit": false,
      "t": 294400,
      "d": 1600,
      "v": 100
    },
    {
      "midi": 71,
      "hit": false,
      "t": 294400,
      "d": 1600,
      "v": 100
    },
    {
      "midi": 64,
      "hit": false,
      "t": 296000,
      "d": 400,
      "v": 100
    },
    {
      "midi": 67,
      "hit": false,
      "t": 296400,
      "d": 400,
      "v": 100
    },
    {
      "midi": 71,
      "hit": false,
      "t": 296800,
      "d": 400,
      "v": 100
    },
    {
      "midi": 67,
      "hit": false,
      "t": 297200,
      "d": 400,
      "v": 100
    },
    {
      "midi": 59,
      "hit": false,
      "t": 297600,
      "d": 3200,
      "v": 100
    },
    {
      "midi": 64,
      "hit": false,
      "t": 297600,
      "d": 3200,
      "v": 100
    },
    {
      "midi": 67,
      "hit": false,
      "t": 297600,
      "d": 3200,
      "v": 100
    },
    {
      "midi": 62,
      "hit": false,
      "t": 300800,
      "d": 1600,
      "v": 100
    },
    {
      "midi": 67,
      "hit": false,
      "t": 300800,
      "d": 1600,
      "v": 100
    },
    {
      "midi": 71,
      "hit": false,
      "t": 300800,
      "d": 1600,
      "v": 100
    },
    {
      "midi": 64,
      "hit": false,
      "t": 302400,
      "d": 400,
      "v": 100
    },
    {
      "midi": 67,
      "hit": false,
      "t": 302800,
      "d": 400,
      "v": 100
    },
    {
      "midi": 71,
      "hit": false,
      "t": 303200,
      "d": 400,
      "v": 100
    },
    {
      "midi": 67,
      "hit": false,
      "t": 303600,
      "d": 400,
      "v": 100
    },
    {
      "midi": 59,
      "hit": false,
      "t": 304000,
      "d": 3200,
      "v": 100
    },
    {
      "midi": 64,
      "hit": false,
      "t": 304000,
      "d": 3200,
      "v": 100
    },
    {
      "midi": 67,
      "hit": false,
      "t": 304000,
      "d": 3200,
      "v": 100
    },
    {
      "midi": 62,
      "hit": false,
      "t": 307200,
      "d": 1600,
      "v": 100
    },
    {
      "midi": 67,
      "hit": false,
      "t": 307200,
      "d": 1600,
      "v": 100
    },
    {
      "midi": 71,
      "hit": false,
      "t": 307200,
      "d": 1600,
      "v": 100
    },
    {
      "midi": 64,
      "hit": false,
      "t": 308800,
      "d": 400,
      "v": 100
    },
    {
      "midi": 67,
      "hit": false,
      "t": 309200,
      "d": 400,
      "v": 100
    },
    {
      "midi": 71,
      "hit": false,
      "t": 309600,
      "d": 400,
      "v": 100
    },
    {
      "midi": 67,
      "hit": false,
      "t": 310000,
      "d": 400,
      "v": 100
    },
    {
      "midi": 59,
      "hit": false,
      "t": 310400,
      "d": 3200,
      "v": 100
    },
    {
      "midi": 64,
      "hit": false,
      "t": 310400,
      "d": 3200,
      "v": 100
    },
    {
      "midi": 67,
      "hit": false,
      "t": 310400,
      "d": 3200,
      "v": 100
    },
    {
      "midi": 62,
      "hit": false,
      "t": 313600,
      "d": 1600,
      "v": 100
    },
    {
      "midi": 67,
      "hit": false,
      "t": 313600,
      "d": 1600,
      "v": 100
    },
    {
      "midi": 71,
      "hit": false,
      "t": 313600,
      "d": 1600,
      "v": 100
    },
    {
      "midi": 64,
      "hit": false,
      "t": 315200,
      "d": 400,
      "v": 100
    },
    {
      "midi": 67,
      "hit": false,
      "t": 315600,
      "d": 400,
      "v": 100
    },
    {
      "midi": 71,
      "hit": false,
      "t": 316000,
      "d": 400,
      "v": 100
    },
    {
      "midi": 67,
      "hit": false,
      "t": 316400,
      "d": 400,
      "v": 100
    },
    {
      "midi": 59,
      "hit": false,
      "t": 316800,
      "d": 3200,
      "v": 100
    },
    {
      "midi": 64,
      "hit": false,
      "t": 316800,
      "d": 3200,
      "v": 100
    },
    {
      "midi": 67,
      "hit": false,
      "t": 316800,
      "d": 3200,
      "v": 100
    },
    {
      "midi": 64,
      "hit": false,
      "t": 320000,
      "d": 200,
      "v": 100
    },
    {
      "midi": 66,
      "hit": false,
      "t": 320200,
      "d": 200,
      "v": 100
    },
    {
      "midi": 64,
      "hit": false,
      "t": 320400,
      "d": 200,
      "v": 100
    },
    {
      "midi": 66,
      "hit": false,
      "t": 320600,
      "d": 200,
      "v": 100
    },
    {
      "midi": 67,
      "hit": false,
      "t": 320800,
      "d": 400,
      "v": 100
    },
    {
      "midi": 71,
      "hit": false,
      "t": 320800,
      "d": 400,
      "v": 100
    },
    {
      "midi": 74,
      "hit": false,
      "t": 320800,
      "d": 400,
      "v": 100
    },
    {
      "midi": 67,
      "hit": false,
      "t": 321200,
      "d": 400,
      "v": 100
    },
    {
      "midi": 71,
      "hit": false,
      "t": 321200,
      "d": 400,
      "v": 100
    },
    {
      "midi": 76,
      "hit": false,
      "t": 321200,
      "d": 400,
      "v": 100
    },
    {
      "midi": 64,
      "hit": false,
      "t": 321600,
      "d": 400,
      "v": 100
    },
    {
      "midi": 66,
      "hit": false,
      "t": 322000,
      "d": 400,
      "v": 100
    },
    {
      "midi": 71,
      "hit": false,
      "t": 322400,
      "d": 400,
      "v": 100
    },
    {
      "midi": 69,
      "hit": false,
      "t": 322800,
      "d": 200,
      "v": 100
    },
    {
      "midi": 67,
      "hit": false,
      "t": 323000,
      "d": 200,
      "v": 100
    },
    {
      "midi": 62,
      "hit": false,
      "t": 323200,
      "d": 800,
      "v": 100
    },
    {
      "midi": 67,
      "hit": false,
      "t": 323200,
      "d": 800,
      "v": 100
    },
    {
      "midi": 71,
      "hit": false,
      "t": 323200,
      "d": 800,
      "v": 100
    },
    {
      "midi": 67,
      "hit": false,
      "t": 324000,
      "d": 400,
      "v": 100
    },
    {
      "midi": 66,
      "hit": false,
      "t": 324400,
      "d": 400,
      "v": 100
    },
    {
      "midi": 60,
      "hit": false,
      "t": 324800,
      "d": 200,
      "v": 100
    },
    {
      "midi": 62,
      "hit": false,
      "t": 325000,
      "d": 200,
      "v": 100
    },
    {
      "midi": 64,
      "hit": false,
      "t": 325200,
      "d": 400,
      "v": 100
    },
    {
      "midi": 71,
      "hit": false,
      "t": 325200,
      "d": 400,
      "v": 100
    },
    {
      "midi": 59,
      "hit": false,
      "t": 325600,
      "d": 800,
      "v": 100
    },
    {
      "midi": 67,
      "hit": false,
      "t": 325600,
      "d": 800,
      "v": 100
    },
    {
      "midi": 73,
      "hit": false,
      "t": 325600,
      "d": 800,
      "v": 100
    },
    {
      "midi": 62,
      "hit": false,
      "t": 326400,
      "d": 1600,
      "v": 100
    },
    {
      "midi": 67,
      "hit": false,
      "t": 326400,
      "d": 1600,
      "v": 100
    },
    {
      "midi": 71,
      "hit": false,
      "t": 326400,
      "d": 1600,
      "v": 100
    },
    {
      "midi": 64,
      "hit": false,
      "t": 328000,
      "d": 400,
      "v": 100
    },
    {
      "midi": 71,
      "hit": false,
      "t": 328400,
      "d": 200,
      "v": 100
    },
    {
      "midi": 76,
      "hit": false,
      "t": 328600,
      "d": 200,
      "v": 100
    },
    {
      "midi": 72,
      "hit": false,
      "t": 328800,
      "d": 200,
      "v": 100
    },
    {
      "midi": 79,
      "hit": false,
      "t": 329000,
      "d": 200,
      "v": 100
    },
    {
      "midi": 74,
      "hit": false,
      "t": 329200,
      "d": 400,
      "v": 100
    },
    {
      "midi": 79,
      "hit": false,
      "t": 329200,
      "d": 400,
      "v": 100
    },
    {
      "midi": 71,
      "hit": false,
      "t": 329600,
      "d": 200,
      "v": 100
    },
    {
      "midi": 79,
      "hit": false,
      "t": 329800,
      "d": 200,
      "v": 100
    },
    {
      "midi": 83,
      "hit": false,
      "t": 330000,
      "d": 200,
      "v": 100
    },
    {
      "midi": 79,
      "hit": false,
      "t": 330200,
      "d": 200,
      "v": 100
    },
    {
      "midi": 74,
      "hit": false,
      "t": 330400,
      "d": 200,
      "v": 100
    },
    {
      "midi": 76,
      "hit": false,
      "t": 330600,
      "d": 200,
      "v": 100
    },
    {
      "midi": 71,
      "hit": false,
      "t": 330800,
      "d": 400,
      "v": 100
    },
    {
      "midi": 76,
      "hit": false,
      "t": 330800,
      "d": 400,
      "v": 100
    },
    {
      "midi": 80,
      "hit": false,
      "t": 330800,
      "d": 400,
      "v": 100
    },
    {
      "midi": 67,
      "hit": false,
      "t": 331200,
      "d": 800,
      "v": 100
    },
    {
      "midi": 71,
      "hit": false,
      "t": 331200,
      "d": 800,
      "v": 100
    },
    {
      "midi": 74,
      "hit": false,
      "t": 331200,
      "d": 800,
      "v": 100
    },
    {
      "midi": 71,
      "hit": false,
      "t": 332000,
      "d": 800,
      "v": 100
    },
    {
      "midi": 74,
      "hit": false,
      "t": 332000,
      "d": 800,
      "v": 100
    },
    {
      "midi": 76,
      "hit": false,
      "t": 332000,
      "d": 800,
      "v": 100
    },
    {
      "midi": 60,
      "hit": false,
      "t": 332800,
      "d": 3200,
      "v": 100
    },
    {
      "midi": 71,
      "hit": false,
      "t": 332800,
      "d": 3200,
      "v": 100
    },
    {
      "midi": 79,
      "hit": false,
      "t": 332800,
      "d": 3200,
      "v": 100
    },
    {
      "midi": 57,
      "hit": false,
      "t": 336000,
      "d": 3200,
      "v": 100
    },
    {
      "midi": 67,
      "hit": false,
      "t": 336000,
      "d": 3200,
      "v": 100
    },
    {
      "midi": 76,
      "hit": false,
      "t": 336000,
      "d": 3200,
      "v": 100
    },
    {
      "midi": 55,
      "hit": false,
      "t": 339200,
      "d": 3200,
      "v": 100
    },
    {
      "midi": 66,
      "hit": false,
      "t": 339200,
      "d": 3200,
      "v": 100
    },
    {
      "midi": 74,
      "hit": false,
      "t": 339200,
      "d": 3200,
      "v": 100
    },
    {
      "midi": 54,
      "hit": false,
      "t": 342400,
      "d": 3200,
      "v": 100
    },
    {
      "midi": 64,
      "hit": false,
      "t": 342400,
      "d": 3200,
      "v": 100
    },
    {
      "midi": 72,
      "hit": false,
      "t": 342400,
      "d": 3200,
      "v": 100
    },
    {
      "midi": 67,
      "hit": false,
      "t": 345600,
      "d": 800,
      "v": 100
    },
    {
      "midi": 71,
      "hit": false,
      "t": 345600,
      "d": 800,
      "v": 100
    },
    {
      "midi": 72,
      "hit": false,
      "t": 345600,
      "d": 800,
      "v": 100
    },
    {
      "midi": 67,
      "hit": false,
      "t": 346400,
      "d": 800,
      "v": 100
    },
    {
      "midi": 71,
      "hit": false,
      "t": 346400,
      "d": 800,
      "v": 100
    },
    {
      "midi": 72,
      "hit": false,
      "t": 346400,
      "d": 800,
      "v": 100
    },
    {
      "midi": 67,
      "hit": false,
      "t": 347200,
      "d": 800,
      "v": 100
    },
    {
      "midi": 71,
      "hit": false,
      "t": 347200,
      "d": 800,
      "v": 100
    },
    {
      "midi": 72,
      "hit": false,
      "t": 347200,
      "d": 800,
      "v": 100
    },
    {
      "midi": 67,
      "hit": false,
      "t": 348000,
      "d": 800,
      "v": 100
    },
    {
      "midi": 71,
      "hit": false,
      "t": 348000,
      "d": 800,
      "v": 100
    },
    {
      "midi": 74,
      "hit": false,
      "t": 348000,
      "d": 800,
      "v": 100
    },
    {
      "midi": 64,
      "hit": false,
      "t": 348800,
      "d": 400,
      "v": 100
    },
    {
      "midi": 67,
      "hit": false,
      "t": 348800,
      "d": 400,
      "v": 100
    },
    {
      "midi": 71,
      "hit": false,
      "t": 348800,
      "d": 400,
      "v": 100
    },
    {
      "midi": 64,
      "hit": false,
      "t": 349200,
      "d": 400,
      "v": 100
    },
    {
      "midi": 67,
      "hit": false,
      "t": 349200,
      "d": 400,
      "v": 100
    },
    {
      "midi": 71,
      "hit": false,
      "t": 349200,
      "d": 400,
      "v": 100
    },
    {
      "midi": 71,
      "hit": false,
      "t": 349600,
      "d": 400,
      "v": 100
    },
    {
      "midi": 76,
      "hit": false,
      "t": 350000,
      "d": 400,
      "v": 100
    },
    {
      "midi": 71,
      "hit": false,
      "t": 350400,
      "d": 800,
      "v": 100
    },
    {
      "midi": 76,
      "hit": false,
      "t": 350400,
      "d": 800,
      "v": 100
    },
    {
      "midi": 79,
      "hit": false,
      "t": 350400,
      "d": 800,
      "v": 100
    },
    {
      "midi": 76,
      "hit": false,
      "t": 351200,
      "d": 400,
      "v": 100
    },
    {
      "midi": 71,
      "hit": false,
      "t": 351600,
      "d": 400,
      "v": 100
    },
    {
      "midi": 67,
      "hit": false,
      "t": 352000,
      "d": 800,
      "v": 100
    },
    {
      "midi": 74,
      "hit": false,
      "t": 352000,
      "d": 800,
      "v": 100
    },
    {
      "midi": 78,
      "hit": false,
      "t": 352000,
      "d": 800,
      "v": 100
    },
    {
      "midi": 67,
      "hit": false,
      "t": 352800,
      "d": 800,
      "v": 100
    },
    {
      "midi": 74,
      "hit": false,
      "t": 352800,
      "d": 800,
      "v": 100
    },
    {
      "midi": 78,
      "hit": false,
      "t": 352800,
      "d": 800,
      "v": 100
    },
    {
      "midi": 67,
      "hit": false,
      "t": 353600,
      "d": 800,
      "v": 100
    },
    {
      "midi": 74,
      "hit": false,
      "t": 353600,
      "d": 800,
      "v": 100
    },
    {
      "midi": 78,
      "hit": false,
      "t": 353600,
      "d": 800,
      "v": 100
    },
    {
      "midi": 67,
      "hit": false,
      "t": 354400,
      "d": 800,
      "v": 100
    },
    {
      "midi": 71,
      "hit": false,
      "t": 354400,
      "d": 800,
      "v": 100
    },
    {
      "midi": 74,
      "hit": false,
      "t": 354400,
      "d": 800,
      "v": 100
    },
    {
      "midi": 64,
      "hit": false,
      "t": 355200,
      "d": 800,
      "v": 100
    },
    {
      "midi": 67,
      "hit": false,
      "t": 355200,
      "d": 800,
      "v": 100
    },
    {
      "midi": 71,
      "hit": false,
      "t": 355200,
      "d": 800,
      "v": 100
    },
    {
      "midi": 64,
      "hit": false,
      "t": 356000,
      "d": 200,
      "v": 100
    },
    {
      "midi": 66,
      "hit": false,
      "t": 356200,
      "d": 200,
      "v": 100
    },
    {
      "midi": 69,
      "hit": false,
      "t": 356400,
      "d": 200,
      "v": 100
    },
    {
      "midi": 71,
      "hit": false,
      "t": 356600,
      "d": 200,
      "v": 100
    },
    {
      "midi": 64,
      "hit": false,
      "t": 356800,
      "d": 1600,
      "v": 100
    },
    {
      "midi": 67,
      "hit": false,
      "t": 356800,
      "d": 1600,
      "v": 100
    },
    {
      "midi": 71,
      "hit": false,
      "t": 356800,
      "d": 1600,
      "v": 100
    },
    {
      "midi": 67,
      "hit": false,
      "t": 358400,
      "d": 800,
      "v": 100
    },
    {
      "midi": 71,
      "hit": false,
      "t": 358400,
      "d": 800,
      "v": 100
    },
    {
      "midi": 72,
      "hit": false,
      "t": 358400,
      "d": 800,
      "v": 100
    },
    {
      "midi": 67,
      "hit": false,
      "t": 359200,
      "d": 800,
      "v": 100
    },
    {
      "midi": 71,
      "hit": false,
      "t": 359200,
      "d": 800,
      "v": 100
    },
    {
      "midi": 72,
      "hit": false,
      "t": 359200,
      "d": 800,
      "v": 100
    },
    {
      "midi": 67,
      "hit": false,
      "t": 360000,
      "d": 800,
      "v": 100
    },
    {
      "midi": 71,
      "hit": false,
      "t": 360000,
      "d": 800,
      "v": 100
    },
    {
      "midi": 72,
      "hit": false,
      "t": 360000,
      "d": 800,
      "v": 100
    },
    {
      "midi": 67,
      "hit": false,
      "t": 360800,
      "d": 800,
      "v": 100
    },
    {
      "midi": 71,
      "hit": false,
      "t": 360800,
      "d": 800,
      "v": 100
    },
    {
      "midi": 74,
      "hit": false,
      "t": 360800,
      "d": 800,
      "v": 100
    },
    {
      "midi": 64,
      "hit": false,
      "t": 361600,
      "d": 400,
      "v": 100
    },
    {
      "midi": 67,
      "hit": false,
      "t": 361600,
      "d": 400,
      "v": 100
    },
    {
      "midi": 71,
      "hit": false,
      "t": 361600,
      "d": 400,
      "v": 100
    },
    {
      "midi": 64,
      "hit": false,
      "t": 362000,
      "d": 400,
      "v": 100
    },
    {
      "midi": 67,
      "hit": false,
      "t": 362000,
      "d": 400,
      "v": 100
    },
    {
      "midi": 71,
      "hit": false,
      "t": 362000,
      "d": 400,
      "v": 100
    },
    {
      "midi": 71,
      "hit": false,
      "t": 362400,
      "d": 400,
      "v": 100
    },
    {
      "midi": 76,
      "hit": false,
      "t": 362800,
      "d": 400,
      "v": 100
    },
    {
      "midi": 71,
      "hit": false,
      "t": 363200,
      "d": 800,
      "v": 100
    },
    {
      "midi": 76,
      "hit": false,
      "t": 363200,
      "d": 800,
      "v": 100
    },
    {
      "midi": 79,
      "hit": false,
      "t": 363200,
      "d": 800,
      "v": 100
    },
    {
      "midi": 76,
      "hit": false,
      "t": 364000,
      "d": 400,
      "v": 100
    },
    {
      "midi": 71,
      "hit": false,
      "t": 364400,
      "d": 400,
      "v": 100
    },
    {
      "midi": 67,
      "hit": false,
      "t": 364800,
      "d": 800,
      "v": 100
    },
    {
      "midi": 74,
      "hit": false,
      "t": 364800,
      "d": 800,
      "v": 100
    },
    {
      "midi": 78,
      "hit": false,
      "t": 364800,
      "d": 800,
      "v": 100
    },
    {
      "midi": 67,
      "hit": false,
      "t": 365600,
      "d": 800,
      "v": 100
    },
    {
      "midi": 74,
      "hit": false,
      "t": 365600,
      "d": 800,
      "v": 100
    },
    {
      "midi": 78,
      "hit": false,
      "t": 365600,
      "d": 800,
      "v": 100
    },
    {
      "midi": 67,
      "hit": false,
      "t": 366400,
      "d": 800,
      "v": 100
    },
    {
      "midi": 74,
      "hit": false,
      "t": 366400,
      "d": 800,
      "v": 100
    },
    {
      "midi": 78,
      "hit": false,
      "t": 366400,
      "d": 800,
      "v": 100
    },
    {
      "midi": 67,
      "hit": false,
      "t": 367200,
      "d": 800,
      "v": 100
    },
    {
      "midi": 71,
      "hit": false,
      "t": 367200,
      "d": 800,
      "v": 100
    },
    {
      "midi": 74,
      "hit": false,
      "t": 367200,
      "d": 800,
      "v": 100
    },
    {
      "midi": 64,
      "hit": false,
      "t": 368000,
      "d": 800,
      "v": 100
    },
    {
      "midi": 67,
      "hit": false,
      "t": 368000,
      "d": 800,
      "v": 100
    },
    {
      "midi": 71,
      "hit": false,
      "t": 368000,
      "d": 800,
      "v": 100
    },
    {
      "midi": 64,
      "hit": false,
      "t": 368800,
      "d": 200,
      "v": 100
    },
    {
      "midi": 66,
      "hit": false,
      "t": 369000,
      "d": 200,
      "v": 100
    },
    {
      "midi": 69,
      "hit": false,
      "t": 369200,
      "d": 200,
      "v": 100
    },
    {
      "midi": 71,
      "hit": false,
      "t": 369400,
      "d": 200,
      "v": 100
    },
    {
      "midi": 64,
      "hit": false,
      "t": 369600,
      "d": 1600,
      "v": 100
    },
    {
      "midi": 67,
      "hit": false,
      "t": 369600,
      "d": 1600,
      "v": 100
    },
    {
      "midi": 71,
      "hit": false,
      "t": 369600,
      "d": 1600,
      "v": 100
    }
  ]
}