{
  "jsonPath": "Rock/Album Rock/Barclay James Harvest/kiev.json",
  "path": "Rock\\Album Rock\\Barclay James Harvest\\Kiev.mid",
  "name": "Kiev",
  "difficulty": "Advanced",
  "bpm": 120,
  "notes": [
    {
      "midi": 77,
      "hit": false,
      "t": 6126.951531250001,
      "d": 345.5364687500005,
      "v": 1
    },
    {
      "midi": 60,
      "hit": false,
      "t": 6472.488000000001,
      "d": 724.7838124999998,
      "v": 118
    },
    {
      "midi": 67,
      "hit": false,
      "t": 6472.488000000001,
      "d": 733.21153125,
      "v": 120
    },
    {
      "midi": 64,
      "hit": false,
      "t": 6472.488000000001,
      "d": 750.0669687500003,
      "v": 119
    },
    {
      "midi": 36,
      "hit": false,
      "t": 6472.488000000001,
      "d": 438.2413749999996,
      "v": 101
    },
    {
      "midi": 48,
      "hit": false,
      "t": 6877.018500000001,
      "d": 421.3859375000002,
      "v": 104
    },
    {
      "midi": 52,
      "hit": false,
      "t": 7281.549000000001,
      "d": 396.1027812500006,
      "v": 106
    },
    {
      "midi": 60,
      "hit": false,
      "t": 7281.549000000002,
      "d": 640.506625,
      "v": 118
    },
    {
      "midi": 67,
      "hit": false,
      "t": 7281.549000000002,
      "d": 648.9343437500002,
      "v": 120
    },
    {
      "midi": 64,
      "hit": false,
      "t": 7281.549000000002,
      "d": 707.9283750000004,
      "v": 119
    },
    {
      "midi": 48,
      "hit": false,
      "t": 7686.079500000002,
      "d": 429.81365624999944,
      "v": 104
    },
    {
      "midi": 55,
      "hit": false,
      "t": 8090.6100000000015,
      "d": 353.96418749999884,
      "v": 107
    },
    {
      "midi": 67,
      "hit": false,
      "t": 8090.610000000002,
      "d": 640.506625,
      "v": 120
    },
    {
      "midi": 60,
      "hit": false,
      "t": 8090.610000000002,
      "d": 665.7897812499996,
      "v": 118
    },
    {
      "midi": 64,
      "hit": false,
      "t": 8090.610000000002,
      "d": 682.6452187499999,
      "v": 119
    },
    {
      "midi": 48,
      "hit": false,
      "t": 8495.1405,
      "d": 404.53050000000076,
      "v": 104
    },
    {
      "midi": 52,
      "hit": false,
      "t": 8899.671,
      "d": 345.5364687500005,
      "v": 106
    },
    {
      "midi": 60,
      "hit": false,
      "t": 8899.671000000002,
      "d": 573.0848750000005,
      "v": 118
    },
    {
      "midi": 67,
      "hit": false,
      "t": 8899.671000000002,
      "d": 606.7957500000011,
      "v": 120
    },
    {
      "midi": 64,
      "hit": false,
      "t": 8899.671000000002,
      "d": 691.072937500001,
      "v": 119
    },
    {
      "midi": 48,
      "hit": false,
      "t": 9304.201500000001,
      "d": 294.9701562499995,
      "v": 104
    },
    {
      "midi": 36,
      "hit": false,
      "t": 9708.732,
      "d": 455.09681249999994,
      "v": 101
    },
    {
      "midi": 60,
      "hit": false,
      "t": 9708.732000000004,
      "d": 615.2234687500004,
      "v": 118
    },
    {
      "midi": 67,
      "hit": false,
      "t": 9708.732000000004,
      "d": 623.6511874999997,
      "v": 120
    },
    {
      "midi": 64,
      "hit": false,
      "t": 9708.732000000004,
      "d": 691.0729374999992,
      "v": 119
    },
    {
      "midi": 48,
      "hit": false,
      "t": 10113.2625,
      "d": 412.9582187499982,
      "v": 104
    },
    {
      "midi": 52,
      "hit": false,
      "t": 10517.793,
      "d": 362.391906249999,
      "v": 106
    },
    {
      "midi": 67,
      "hit": false,
      "t": 10517.793000000003,
      "d": 640.506625,
      "v": 120
    },
    {
      "midi": 60,
      "hit": false,
      "t": 10517.793000000003,
      "d": 648.9343437499992,
      "v": 118
    },
    {
      "midi": 64,
      "hit": false,
      "t": 10517.793000000003,
      "d": 699.5006562499984,
      "v": 119
    },
    {
      "midi": 48,
      "hit": false,
      "t": 10922.323499999999,
      "d": 387.6750625000004,
      "v": 104
    },
    {
      "midi": 55,
      "hit": false,
      "t": 11326.854,
      "d": 370.8196250000001,
      "v": 107
    },
    {
      "midi": 67,
      "hit": false,
      "t": 11326.854000000001,
      "d": 589.9403125000008,
      "v": 120
    },
    {
      "midi": 60,
      "hit": false,
      "t": 11326.854000000001,
      "d": 606.7957500000011,
      "v": 118
    },
    {
      "midi": 64,
      "hit": false,
      "t": 11326.854000000001,
      "d": 648.9343437500011,
      "v": 119
    },
    {
      "midi": 48,
      "hit": false,
      "t": 11731.3845,
      "d": 412.95821875,
      "v": 104
    },
    {
      "midi": 52,
      "hit": false,
      "t": 12135.915,
      "d": 387.6750624999986,
      "v": 106
    },
    {
      "midi": 67,
      "hit": false,
      "t": 12135.915000000003,
      "d": 564.6571562499994,
      "v": 120
    },
    {
      "midi": 60,
      "hit": false,
      "t": 12135.915000000003,
      "d": 581.5125937499997,
      "v": 118
    },
    {
      "midi": 64,
      "hit": false,
      "t": 12135.915000000003,
      "d": 682.6452187499999,
      "v": 119
    },
    {
      "midi": 48,
      "hit": false,
      "t": 12540.4455,
      "d": 404.53050000000076,
      "v": 104
    },
    {
      "midi": 60,
      "hit": false,
      "t": 12944.976000000002,
      "d": 665.7897812499996,
      "v": 118
    },
    {
      "midi": 57,
      "hit": false,
      "t": 12944.976000000002,
      "d": 674.2174999999988,
      "v": 117
    },
    {
      "midi": 65,
      "hit": false,
      "t": 12944.976000000002,
      "d": 699.5006562499984,
      "v": 120
    },
    {
      "midi": 57,
      "hit": false,
      "t": 13754.037,
      "d": 682.6452187499999,
      "v": 117
    },
    {
      "midi": 60,
      "hit": false,
      "t": 13754.037,
      "d": 682.6452187499999,
      "v": 118
    },
    {
      "midi": 65,
      "hit": false,
      "t": 13754.037,
      "d": 699.5006562500002,
      "v": 120
    },
    {
      "midi": 65,
      "hit": false,
      "t": 14563.098,
      "d": 606.7957499999993,
      "v": 120
    },
    {
      "midi": 60,
      "hit": false,
      "t": 14563.098,
      "d": 623.6511874999997,
      "v": 118
    },
    {
      "midi": 57,
      "hit": false,
      "t": 14563.098,
      "d": 640.506625,
      "v": 117
    },
    {
      "midi": 60,
      "hit": false,
      "t": 15372.159,
      "d": 598.3680312500001,
      "v": 118
    },
    {
      "midi": 57,
      "hit": false,
      "t": 15372.159,
      "d": 623.6511874999997,
      "v": 117
    },
    {
      "midi": 65,
      "hit": false,
      "t": 15372.159,
      "d": 623.6511874999997,
      "v": 120
    },
    {
      "midi": 59,
      "hit": false,
      "t": 16181.22,
      "d": 716.3560937499988,
      "v": 118
    },
    {
      "midi": 64,
      "hit": false,
      "t": 16181.22,
      "d": 716.3560937499988,
      "v": 119
    },
    {
      "midi": 67,
      "hit": false,
      "t": 16181.22,
      "d": 733.2115312499973,
      "v": 120
    },
    {
      "midi": 59,
      "hit": false,
      "t": 16990.280999999995,
      "d": 699.5006562499984,
      "v": 118
    },
    {
      "midi": 64,
      "hit": false,
      "t": 16990.280999999995,
      "d": 707.9283749999995,
      "v": 119
    },
    {
      "midi": 67,
      "hit": false,
      "t": 16990.280999999995,
      "d": 707.9283749999995,
      "v": 120
    },
    {
      "midi": 59,
      "hit": false,
      "t": 17799.341999999993,
      "d": 615.2234687499986,
      "v": 118
    },
    {
      "midi": 67,
      "hit": false,
      "t": 17799.341999999993,
      "d": 648.9343437499992,
      "v": 120
    },
    {
      "midi": 64,
      "hit": false,
      "t": 17799.341999999993,
      "d": 665.7897812499978,
      "v": 119
    },
    {
      "midi": 59,
      "hit": false,
      "t": 18608.40299999999,
      "d": 598.3680312500001,
      "v": 118
    },
    {
      "midi": 67,
      "hit": false,
      "t": 18608.40299999999,
      "d": 615.2234687499986,
      "v": 120
    },
    {
      "midi": 64,
      "hit": false,
      "t": 18608.40299999999,
      "d": 691.0729374999974,
      "v": 119
    },
    {
      "midi": 65,
      "hit": false,
      "t": 19417.46399999999,
      "d": 699.5006562499984,
      "v": 120
    },
    {
      "midi": 57,
      "hit": false,
      "t": 19417.46399999999,
      "d": 716.356093749997,
      "v": 117
    },
    {
      "midi": 60,
      "hit": false,
      "t": 19417.46399999999,
      "d": 716.356093749997,
      "v": 118
    },
    {
      "midi": 60,
      "hit": false,
      "t": 20226.524999999987,
      "d": 691.072937500001,
      "v": 118
    },
    {
      "midi": 57,
      "hit": false,
      "t": 20226.524999999987,
      "d": 707.9283749999995,
      "v": 117
    },
    {
      "midi": 65,
      "hit": false,
      "t": 20226.524999999987,
      "d": 707.9283749999995,
      "v": 120
    },
    {
      "midi": 60,
      "hit": false,
      "t": 21035.585999999985,
      "d": 665.7897812500014,
      "v": 118
    },
    {
      "midi": 57,
      "hit": false,
      "t": 21035.585999999985,
      "d": 682.6452187499999,
      "v": 117
    },
    {
      "midi": 65,
      "hit": false,
      "t": 21035.585999999985,
      "d": 682.6452187499999,
      "v": 120
    },
    {
      "midi": 60,
      "hit": false,
      "t": 21844.646999999986,
      "d": 606.7957500000011,
      "v": 118
    },
    {
      "midi": 57,
      "hit": false,
      "t": 21844.646999999986,
      "d": 640.5066250000018,
      "v": 117
    },
    {
      "midi": 65,
      "hit": false,
      "t": 21844.646999999986,
      "d": 674.2175000000025,
      "v": 120
    },
    {
      "midi": 67,
      "hit": false,
      "t": 22653.707999999988,
      "d": 623.6511874999997,
      "v": 120
    },
    {
      "midi": 60,
      "hit": false,
      "t": 22653.707999999988,
      "d": 640.5066249999982,
      "v": 118
    },
    {
      "midi": 64,
      "hit": false,
      "t": 22653.707999999988,
      "d": 648.9343437499992,
      "v": 119
    },
    {
      "midi": 60,
      "hit": false,
      "t": 23462.768999999986,
      "d": 615.2234687499986,
      "v": 118
    },
    {
      "midi": 67,
      "hit": false,
      "t": 23462.768999999986,
      "d": 632.0789062499971,
      "v": 120
    },
    {
      "midi": 64,
      "hit": false,
      "t": 23462.768999999986,
      "d": 665.7897812499978,
      "v": 119
    },
    {
      "midi": 60,
      "hit": false,
      "t": 24271.829999999984,
      "d": 632.0789062500007,
      "v": 118
    },
    {
      "midi": 67,
      "hit": false,
      "t": 24271.829999999984,
      "d": 640.5066250000018,
      "v": 120
    },
    {
      "midi": 64,
      "hit": false,
      "t": 24271.829999999984,
      "d": 674.2175000000025,
      "v": 119
    },
    {
      "midi": 60,
      "hit": false,
      "t": 25080.890999999985,
      "d": 598.3680312500001,
      "v": 118
    },
    {
      "midi": 67,
      "hit": false,
      "t": 25080.890999999985,
      "d": 606.7957500000011,
      "v": 120
    },
    {
      "midi": 64,
      "hit": false,
      "t": 25080.890999999985,
      "d": 657.3620625000003,
      "v": 119
    },
    {
      "midi": 60,
      "hit": false,
      "t": 25889.951999999987,
      "d": 716.3560937500006,
      "v": 118
    },
    {
      "midi": 65,
      "hit": false,
      "t": 25889.951999999987,
      "d": 716.3560937500006,
      "v": 120
    },
    {
      "midi": 57,
      "hit": false,
      "t": 25889.951999999987,
      "d": 724.7838125000017,
      "v": 117
    },
    {
      "midi": 60,
      "hit": false,
      "t": 26699.012999999988,
      "d": 665.7897812500014,
      "v": 118
    },
    {
      "midi": 57,
      "hit": false,
      "t": 26699.012999999988,
      "d": 691.072937500001,
      "v": 117
    },
    {
      "midi": 65,
      "hit": false,
      "t": 26699.012999999988,
      "d": 699.5006562500021,
      "v": 120
    },
    {
      "midi": 57,
      "hit": false,
      "t": 27508.07399999999,
      "d": 665.7897812500014,
      "v": 117
    },
    {
      "midi": 60,
      "hit": false,
      "t": 27508.07399999999,
      "d": 665.7897812500014,
      "v": 118
    },
    {
      "midi": 65,
      "hit": false,
      "t": 27508.07399999999,
      "d": 665.7897812500014,
      "v": 120
    },
    {
      "midi": 60,
      "hit": false,
      "t": 28317.13499999999,
      "d": 632.0789062500007,
      "v": 118
    },
    {
      "midi": 65,
      "hit": false,
      "t": 28317.13499999999,
      "d": 648.9343437499992,
      "v": 120
    },
    {
      "midi": 57,
      "hit": false,
      "t": 28317.13499999999,
      "d": 657.3620625000003,
      "v": 117
    },
    {
      "midi": 60,
      "hit": false,
      "t": 29126.195999999993,
      "d": 682.6452187499999,
      "v": 118
    },
    {
      "midi": 65,
      "hit": false,
      "t": 29126.195999999993,
      "d": 691.072937500001,
      "v": 120
    },
    {
      "midi": 57,
      "hit": false,
      "t": 29126.195999999993,
      "d": 716.3560937500006,
      "v": 117
    },
    {
      "midi": 60,
      "hit": false,
      "t": 29935.256999999994,
      "d": 665.7897812500014,
      "v": 118
    },
    {
      "midi": 65,
      "hit": false,
      "t": 29935.256999999994,
      "d": 665.7897812500014,
      "v": 120
    },
    {
      "midi": 57,
      "hit": false,
      "t": 29935.256999999994,
      "d": 691.072937500001,
      "v": 117
    },
    {
      "midi": 60,
      "hit": false,
      "t": 30744.317999999996,
      "d": 674.2174999999988,
      "v": 118
    },
    {
      "midi": 65,
      "hit": false,
      "t": 30744.317999999996,
      "d": 707.9283749999995,
      "v": 120
    },
    {
      "midi": 57,
      "hit": false,
      "t": 30744.317999999996,
      "d": 724.783812499998,
      "v": 117
    },
    {
      "midi": 57,
      "hit": false,
      "t": 31553.378999999994,
      "d": 733.2115312499991,
      "v": 117
    },
    {
      "midi": 60,
      "hit": false,
      "t": 31553.378999999994,
      "d": 733.2115312499991,
      "v": 118
    },
    {
      "midi": 65,
      "hit": false,
      "t": 31553.378999999994,
      "d": 733.2115312499991,
      "v": 120
    },
    {
      "midi": 67,
      "hit": false,
      "t": 32362.43999999999,
      "d": 724.7838125000017,
      "v": 120
    },
    {
      "midi": 59,
      "hit": false,
      "t": 32362.43999999999,
      "d": 733.2115312499991,
      "v": 118
    },
    {
      "midi": 64,
      "hit": false,
      "t": 32362.43999999999,
      "d": 758.4946874999987,
      "v": 119
    },
    {
      "midi": 79,
      "hit": false,
      "t": 32396.150875000003,
      "d": 244.4038437499985,
      "v": 27
    },
    {
      "midi": 79,
      "hit": false,
      "t": 32792.25365625,
      "d": 92.70490625000093,
      "v": 27
    },
    {
      "midi": 79,
      "hit": false,
      "t": 32977.663468750005,
      "d": 210.69296875000146,
      "v": 27
    },
    {
      "midi": 67,
      "hit": false,
      "t": 33171.50099999999,
      "d": 598.3680312500001,
      "v": 120
    },
    {
      "midi": 59,
      "hit": false,
      "t": 33171.50099999999,
      "d": 615.2234687500022,
      "v": 118
    },
    {
      "midi": 64,
      "hit": false,
      "t": 33171.50099999999,
      "d": 682.6452187500036,
      "v": 119
    },
    {
      "midi": 79,
      "hit": false,
      "t": 33382.193968750005,
      "d": 92.70490625000093,
      "v": 27
    },
    {
      "midi": 79,
      "hit": false,
      "t": 33601.314656250004,
      "d": 185.40981250000186,
      "v": 27
    },
    {
      "midi": 65,
      "hit": false,
      "t": 33980.56199999999,
      "d": 733.2115312500027,
      "v": 120
    },
    {
      "midi": 60,
      "hit": false,
      "t": 33980.56199999999,
      "d": 750.0669687500049,
      "v": 118
    },
    {
      "midi": 57,
      "hit": false,
      "t": 33980.56199999999,
      "d": 758.4946875000023,
      "v": 117
    },
    {
      "midi": 57,
      "hit": false,
      "t": 34789.62299999999,
      "d": 665.7897812500014,
      "v": 117
    },
    {
      "midi": 60,
      "hit": false,
      "t": 34789.62299999999,
      "d": 665.7897812500014,
      "v": 118
    },
    {
      "midi": 65,
      "hit": false,
      "t": 34789.62299999999,
      "d": 674.2174999999988,
      "v": 120
    },
    {
      "midi": 60,
      "hit": false,
      "t": 35598.683999999994,
      "d": 682.6452187500036,
      "v": 118
    },
    {
      "midi": 65,
      "hit": false,
      "t": 35598.683999999994,
      "d": 699.5006562500057,
      "v": 120
    },
    {
      "midi": 57,
      "hit": false,
      "t": 35598.683999999994,
      "d": 707.9283750000031,
      "v": 117
    },
    {
      "midi": 65,
      "hit": false,
      "t": 36407.744999999995,
      "d": 640.5066250000018,
      "v": 120
    },
    {
      "midi": 60,
      "hit": false,
      "t": 36407.744999999995,
      "d": 674.2174999999988,
      "v": 118
    },
    {
      "midi": 57,
      "hit": false,
      "t": 36407.744999999995,
      "d": 699.5006562499984,
      "v": 117
    },
    {
      "midi": 79,
      "hit": false,
      "t": 36416.17271875001,
      "d": 101.13262499999837,
      "v": 27
    },
    {
      "midi": 79,
      "hit": false,
      "t": 36610.01025000001,
      "d": 101.13262499999837,
      "v": 27
    },
    {
      "midi": 79,
      "hit": false,
      "t": 36812.2755,
      "d": 101.13262499999837,
      "v": 27
    },
    {
      "midi": 79,
      "hit": false,
      "t": 37014.54075,
      "d": 235.97612500000105,
      "v": 27
    },
    {
      "midi": 62,
      "hit": false,
      "t": 37216.806,
      "d": 699.5006562499984,
      "v": 119
    },
    {
      "midi": 67,
      "hit": false,
      "t": 37216.806,
      "d": 733.2115312499955,
      "v": 120
    },
    {
      "midi": 59,
      "hit": false,
      "t": 37216.806,
      "d": 741.6392499999929,
      "v": 118
    },
    {
      "midi": 79,
      "hit": false,
      "t": 37612.90878125,
      "d": 109.56034375000309,
      "v": 27
    },
    {
      "midi": 79,
      "hit": false,
      "t": 37832.029468750006,
      "d": 160.12665625000227,
      "v": 27
    },
    {
      "midi": 62,
      "hit": false,
      "t": 38025.86699999999,
      "d": 623.6511874999997,
      "v": 119
    },
    {
      "midi": 59,
      "hit": false,
      "t": 38025.86699999999,
      "d": 665.7897812500014,
      "v": 118
    },
    {
      "midi": 67,
      "hit": false,
      "t": 38025.86699999999,
      "d": 682.6452187500036,
      "v": 120
    },
    {
      "midi": 79,
      "hit": false,
      "t": 38228.13225000001,
      "d": 176.98209374999715,
      "v": 27
    },
    {
      "midi": 79,
      "hit": false,
      "t": 38649.518187500005,
      "d": 92.70490625000093,
      "v": 27
    },
    {
      "midi": 59,
      "hit": false,
      "t": 38834.92799999999,
      "d": 682.6452187500036,
      "v": 118
    },
    {
      "midi": 67,
      "hit": false,
      "t": 38834.92799999999,
      "d": 699.5006562500057,
      "v": 120
    },
    {
      "midi": 64,
      "hit": false,
      "t": 38834.92799999999,
      "d": 733.2115312500027,
      "v": 119
    },
    {
      "midi": 79,
      "hit": false,
      "t": 38860.21115625001,
      "d": 160.12665625000227,
      "v": 27
    },
    {
      "midi": 79,
      "hit": false,
      "t": 39264.74165625001,
      "d": 84.27718750000349,
      "v": 27
    },
    {
      "midi": 79,
      "hit": false,
      "t": 39467.00690625001,
      "d": 134.84350000000268,
      "v": 27
    },
    {
      "midi": 67,
      "hit": false,
      "t": 39643.988999999994,
      "d": 640.5066250000018,
      "v": 120
    },
    {
      "midi": 59,
      "hit": false,
      "t": 39643.988999999994,
      "d": 674.2174999999988,
      "v": 118
    },
    {
      "midi": 64,
      "hit": false,
      "t": 39643.988999999994,
      "d": 716.3560937500006,
      "v": 119
    },
    {
      "midi": 79,
      "hit": false,
      "t": 39863.109687500015,
      "d": 151.69893749999756,
      "v": 27
    },
    {
      "midi": 79,
      "hit": false,
      "t": 40267.640187500016,
      "d": 160.12665625000227,
      "v": 27
    },
    {
      "midi": 60,
      "hit": false,
      "t": 40453.049999999996,
      "d": 674.2174999999988,
      "v": 118
    },
    {
      "midi": 67,
      "hit": false,
      "t": 40453.049999999996,
      "d": 691.072937500001,
      "v": 120
    },
    {
      "midi": 64,
      "hit": false,
      "t": 40453.049999999996,
      "d": 716.3560937500006,
      "v": 119
    },
    {
      "midi": 67,
      "hit": false,
      "t": 41262.111,
      "d": 665.7897812500014,
      "v": 120
    },
    {
      "midi": 60,
      "hit": false,
      "t": 41262.111,
      "d": 691.072937500001,
      "v": 118
    },
    {
      "midi": 64,
      "hit": false,
      "t": 41262.111,
      "d": 724.783812499998,
      "v": 119
    },
    {
      "midi": 60,
      "hit": false,
      "t": 42071.172,
      "d": 665.7897812500014,
      "v": 118
    },
    {
      "midi": 57,
      "hit": false,
      "t": 42071.172,
      "d": 674.2174999999988,
      "v": 117
    },
    {
      "midi": 65,
      "hit": false,
      "t": 42071.172,
      "d": 674.2174999999988,
      "v": 120
    },
    {
      "midi": 79,
      "hit": false,
      "t": 42871.80528125002,
      "d": 92.70490625000093,
      "v": 27
    },
    {
      "midi": 57,
      "hit": false,
      "t": 42880.233,
      "d": 682.6452187500036,
      "v": 117
    },
    {
      "midi": 60,
      "hit": false,
      "t": 42880.233,
      "d": 691.072937500001,
      "v": 118
    },
    {
      "midi": 65,
      "hit": false,
      "t": 42880.233,
      "d": 691.072937500001,
      "v": 120
    },
    {
      "midi": 79,
      "hit": false,
      "t": 43082.49825000002,
      "d": 92.70490625000093,
      "v": 27
    },
    {
      "midi": 79,
      "hit": false,
      "t": 43276.33578125002,
      "d": 92.70490625000093,
      "v": 27
    },
    {
      "midi": 79,
      "hit": false,
      "t": 43478.60103125002,
      "d": 210.69296875000146,
      "v": 27
    },
    {
      "midi": 60,
      "hit": false,
      "t": 43689.294,
      "d": 573.0848750000005,
      "v": 118
    },
    {
      "midi": 57,
      "hit": false,
      "t": 43689.294,
      "d": 598.3680312500001,
      "v": 117
    },
    {
      "midi": 65,
      "hit": false,
      "t": 43689.294,
      "d": 598.3680312500001,
      "v": 120
    },
    {
      "midi": 79,
      "hit": false,
      "t": 44093.824500000024,
      "d": 92.70490625000093,
      "v": 27
    },
    {
      "midi": 79,
      "hit": false,
      "t": 44296.08975000003,
      "d": 143.27121875000012,
      "v": 27
    },
    {
      "midi": 60,
      "hit": false,
      "t": 44498.355,
      "d": 615.2234687500022,
      "v": 118
    },
    {
      "midi": 57,
      "hit": false,
      "t": 44498.355,
      "d": 623.6511874999997,
      "v": 117
    },
    {
      "midi": 65,
      "hit": false,
      "t": 44498.355,
      "d": 632.0789062499971,
      "v": 120
    },
    {
      "midi": 79,
      "hit": false,
      "t": 44902.885500000026,
      "d": 84.27718750000349,
      "v": 27
    },
    {
      "midi": 79,
      "hit": false,
      "t": 45113.57846875003,
      "d": 185.40981250000186,
      "v": 27
    },
    {
      "midi": 59,
      "hit": false,
      "t": 45307.416,
      "d": 640.5066250000018,
      "v": 118
    },
    {
      "midi": 67,
      "hit": false,
      "t": 45307.416,
      "d": 657.362062500004,
      "v": 120
    },
    {
      "midi": 64,
      "hit": false,
      "t": 45307.416,
      "d": 674.2175000000061,
      "v": 119
    },
    {
      "midi": 79,
      "hit": false,
      "t": 45914.21175000003,
      "d": 84.27718750000349,
      "v": 27
    },
    {
      "midi": 67,
      "hit": false,
      "t": 46116.477000000006,
      "d": 589.9403125000026,
      "v": 120
    },
    {
      "midi": 59,
      "hit": false,
      "t": 46116.477000000006,
      "d": 657.362062500004,
      "v": 118
    },
    {
      "midi": 64,
      "hit": false,
      "t": 46116.477000000006,
      "d": 741.6392500000075,
      "v": 119
    },
    {
      "midi": 79,
      "hit": false,
      "t": 46116.477000000035,
      "d": 92.70490625000093,
      "v": 27
    },
    {
      "midi": 79,
      "hit": false,
      "t": 46310.314531250035,
      "d": 134.84350000000268,
      "v": 27
    },
    {
      "midi": 79,
      "hit": false,
      "t": 46546.290656250036,
      "d": 193.8375312499993,
      "v": 27
    },
    {
      "midi": 60,
      "hit": false,
      "t": 46925.538000000015,
      "d": 707.9283750000031,
      "v": 118
    },
    {
      "midi": 57,
      "hit": false,
      "t": 46925.538000000015,
      "d": 733.2115312500027,
      "v": 117
    },
    {
      "midi": 65,
      "hit": false,
      "t": 46925.538000000015,
      "d": 733.2115312500027,
      "v": 120
    },
    {
      "midi": 60,
      "hit": false,
      "t": 47734.59900000002,
      "d": 682.6452187500036,
      "v": 118
    },
    {
      "midi": 57,
      "hit": false,
      "t": 47734.59900000002,
      "d": 699.5006562500057,
      "v": 117
    },
    {
      "midi": 65,
      "hit": false,
      "t": 47734.59900000002,
      "d": 707.9283750000031,
      "v": 120
    },
    {
      "midi": 79,
      "hit": false,
      "t": 47936.864250000035,
      "d": 202.26524999999674,
      "v": 27
    },
    {
      "midi": 79,
      "hit": false,
      "t": 48349.82246875003,
      "d": 202.26524999999674,
      "v": 1
    },
    {
      "midi": 59,
      "hit": false,
      "t": 48543.66000000002,
      "d": 716.3560937500006,
      "v": 118
    },
    {
      "midi": 67,
      "hit": false,
      "t": 48543.66000000002,
      "d": 724.783812499998,
      "v": 120
    },
    {
      "midi": 64,
      "hit": false,
      "t": 48543.66000000002,
      "d": 733.2115312499955,
      "v": 119
    },
    {
      "midi": 79,
      "hit": false,
      "t": 48602.65403125003,
      "d": 92.70490625000093,
      "v": 27
    },
    {
      "midi": 79,
      "hit": false,
      "t": 48779.636125000034,
      "d": 92.70490625000093,
      "v": 27
    },
    {
      "midi": 79,
      "hit": false,
      "t": 49344.29328125004,
      "d": 202.26524999999674,
      "v": 1
    },
    {
      "midi": 67,
      "hit": false,
      "t": 49352.72100000001,
      "d": 632.0789062499971,
      "v": 120
    },
    {
      "midi": 59,
      "hit": false,
      "t": 49352.72100000001,
      "d": 674.2174999999988,
      "v": 118
    },
    {
      "midi": 64,
      "hit": false,
      "t": 49352.72100000001,
      "d": 716.3560937500006,
      "v": 119
    },
    {
      "midi": 79,
      "hit": false,
      "t": 49740.39606250003,
      "d": 92.70490625000093,
      "v": 27
    },
    {
      "midi": 79,
      "hit": false,
      "t": 49942.66131250004,
      "d": 134.84350000000268,
      "v": 27
    },
    {
      "midi": 57,
      "hit": false,
      "t": 50161.782000000014,
      "d": 716.3560937500006,
      "v": 117
    },
    {
      "midi": 60,
      "hit": false,
      "t": 50161.782000000014,
      "d": 716.3560937500006,
      "v": 118
    },
    {
      "midi": 65,
      "hit": false,
      "t": 50161.782000000014,
      "d": 716.3560937500006,
      "v": 120
    },
    {
      "midi": 57,
      "hit": false,
      "t": 50970.843000000015,
      "d": 564.657156250003,
      "v": 117
    },
    {
      "midi": 60,
      "hit": false,
      "t": 50970.843000000015,
      "d": 564.657156250003,
      "v": 118
    },
    {
      "midi": 65,
      "hit": false,
      "t": 50970.843000000015,
      "d": 640.5066250000018,
      "v": 120
    },
    {
      "midi": 79,
      "hit": false,
      "t": 51400.65665625004,
      "d": 143.27121875000012,
      "v": 27
    },
    {
      "midi": 59,
      "hit": false,
      "t": 51779.90400000002,
      "d": 657.3620624999967,
      "v": 118
    },
    {
      "midi": 67,
      "hit": false,
      "t": 51779.90400000002,
      "d": 657.3620624999967,
      "v": 120
    },
    {
      "midi": 64,
      "hit": false,
      "t": 51779.90400000002,
      "d": 674.2174999999988,
      "v": 119
    },
    {
      "midi": 79,
      "hit": false,
      "t": 51805.18715625004,
      "d": 185.40981250000186,
      "v": 27
    },
    {
      "midi": 59,
      "hit": false,
      "t": 52588.96500000002,
      "d": 665.7897812500014,
      "v": 118
    },
    {
      "midi": 67,
      "hit": false,
      "t": 52588.96500000002,
      "d": 691.072937500001,
      "v": 120
    },
    {
      "midi": 64,
      "hit": false,
      "t": 52588.96500000002,
      "d": 733.2115312500027,
      "v": 119
    },
    {
      "midi": 59,
      "hit": false,
      "t": 53398.02600000002,
      "d": 665.7897812500014,
      "v": 118
    },
    {
      "midi": 67,
      "hit": false,
      "t": 53398.02600000002,
      "d": 682.6452187500036,
      "v": 120
    },
    {
      "midi": 64,
      "hit": false,
      "t": 53398.02600000002,
      "d": 707.9283750000031,
      "v": 119
    },
    {
      "midi": 64,
      "hit": false,
      "t": 53802.556500000006,
      "d": 353.9641875000016,
      "v": 120
    },
    {
      "midi": 67,
      "hit": false,
      "t": 54207.08700000001,
      "d": 370.81962499999645,
      "v": 120
    },
    {
      "midi": 67,
      "hit": false,
      "t": 54207.08700000002,
      "d": 606.7957499999975,
      "v": 120
    },
    {
      "midi": 59,
      "hit": false,
      "t": 54207.08700000002,
      "d": 615.2234687499949,
      "v": 118
    },
    {
      "midi": 64,
      "hit": false,
      "t": 54207.08700000002,
      "d": 691.0729374999937,
      "v": 119
    },
    {
      "midi": 64,
      "hit": false,
      "t": 54611.6175,
      "d": 278.1147187500028,
      "v": 120
    },
    {
      "midi": 62,
      "hit": false,
      "t": 55016.148,
      "d": 311.8255937499998,
      "v": 120
    },
    {
      "midi": 57,
      "hit": false,
      "t": 55016.148000000016,
      "d": 691.072937500001,
      "v": 117
    },
    {
      "midi": 65,
      "hit": false,
      "t": 55016.148000000016,
      "d": 691.072937500001,
      "v": 120
    },
    {
      "midi": 60,
      "hit": false,
      "t": 55016.148000000016,
      "d": 707.9283750000031,
      "v": 118
    },
    {
      "midi": 65,
      "hit": false,
      "t": 55420.6785,
      "d": 396.1027812500033,
      "v": 120
    },
    {
      "midi": 65,
      "hit": false,
      "t": 55825.20900000002,
      "d": 707.9283750000031,
      "v": 120
    },
    {
      "midi": 57,
      "hit": false,
      "t": 55825.20900000002,
      "d": 716.3560937500006,
      "v": 117
    },
    {
      "midi": 60,
      "hit": false,
      "t": 55825.20900000002,
      "d": 716.3560937500006,
      "v": 118
    },
    {
      "midi": 69,
      "hit": false,
      "t": 56229.7395,
      "d": 345.53646874999686,
      "v": 120
    },
    {
      "midi": 65,
      "hit": false,
      "t": 56229.7395,
      "d": 353.9641874999943,
      "v": 120
    },
    {
      "midi": 65,
      "hit": false,
      "t": 56634.27000000002,
      "d": 665.7897812500014,
      "v": 120
    },
    {
      "midi": 60,
      "hit": false,
      "t": 56634.27000000002,
      "d": 674.2174999999988,
      "v": 118
    },
    {
      "midi": 57,
      "hit": false,
      "t": 56634.27000000002,
      "d": 691.072937500001,
      "v": 117
    },
    {
      "midi": 72,
      "hit": false,
      "t": 57038.8005,
      "d": 514.0908437499966,
      "v": 120
    },
    {
      "midi": 65,
      "hit": false,
      "t": 57038.8005,
      "d": 564.6571562499958,
      "v": 120
    },
    {
      "midi": 69,
      "hit": false,
      "t": 57038.8005,
      "d": 598.3680312499928,
      "v": 120
    },
    {
      "midi": 57,
      "hit": false,
      "t": 57443.33100000002,
      "d": 699.5006562499984,
      "v": 117
    },
    {
      "midi": 60,
      "hit": false,
      "t": 57443.33100000002,
      "d": 707.9283749999959,
      "v": 118
    },
    {
      "midi": 65,
      "hit": false,
      "t": 57443.33100000002,
      "d": 707.9283749999959,
      "v": 120
    },
    {
      "midi": 69,
      "hit": false,
      "t": 57847.86149999999,
      "d": 168.5543749999997,
      "v": 120
    },
    {
      "midi": 67,
      "hit": false,
      "t": 58252.39199999999,
      "d": 825.9164375000037,
      "v": 120
    },
    {
      "midi": 64,
      "hit": false,
      "t": 58252.39199999999,
      "d": 851.1995937500033,
      "v": 120
    },
    {
      "midi": 60,
      "hit": false,
      "t": 58252.39199999999,
      "d": 859.6273125000007,
      "v": 120
    },
    {
      "midi": 67,
      "hit": false,
      "t": 58252.392000000014,
      "d": 724.783812499998,
      "v": 120
    },
    {
      "midi": 59,
      "hit": false,
      "t": 58252.392000000014,
      "d": 733.2115312499955,
      "v": 118
    },
    {
      "midi": 64,
      "hit": false,
      "t": 58252.392000000014,
      "d": 758.494687499995,
      "v": 119
    },
    {
      "midi": 79,
      "hit": false,
      "t": 58286.10287500004,
      "d": 176.98209374999715,
      "v": 27
    },
    {
      "midi": 79,
      "hit": false,
      "t": 58699.06109375004,
      "d": 84.27718750000349,
      "v": 27
    },
    {
      "midi": 79,
      "hit": false,
      "t": 58884.47090625004,
      "d": 235.97612500000105,
      "v": 27
    },
    {
      "midi": 67,
      "hit": false,
      "t": 59061.45300000001,
      "d": 598.3680312500001,
      "v": 120
    },
    {
      "midi": 59,
      "hit": false,
      "t": 59061.45300000001,
      "d": 615.2234687500022,
      "v": 118
    },
    {
      "midi": 64,
      "hit": false,
      "t": 59061.45300000001,
      "d": 682.6452187500036,
      "v": 119
    },
    {
      "midi": 79,
      "hit": false,
      "t": 59499.69437500004,
      "d": 109.56034375000309,
      "v": 27
    },
    {
      "midi": 79,
      "hit": false,
      "t": 59710.387343750044,
      "d": 235.97612500000105,
      "v": 27
    },
    {
      "midi": 65,
      "hit": false,
      "t": 59870.51400000001,
      "d": 733.2115312500027,
      "v": 120
    },
    {
      "midi": 60,
      "hit": false,
      "t": 59870.51400000001,
      "d": 750.0669687500049,
      "v": 118
    },
    {
      "midi": 57,
      "hit": false,
      "t": 59870.51400000001,
      "d": 758.4946875000023,
      "v": 117
    },
    {
      "midi": 57,
      "hit": false,
      "t": 60679.57500000001,
      "d": 665.7897812500014,
      "v": 117
    },
    {
      "midi": 60,
      "hit": false,
      "t": 60679.57500000001,
      "d": 665.7897812500014,
      "v": 118
    },
    {
      "midi": 65,
      "hit": false,
      "t": 60679.57500000001,
      "d": 674.2174999999988,
      "v": 120
    },
    {
      "midi": 60,
      "hit": false,
      "t": 61488.63600000001,
      "d": 682.6452187500036,
      "v": 118
    },
    {
      "midi": 65,
      "hit": false,
      "t": 61488.63600000001,
      "d": 699.5006562500057,
      "v": 120
    },
    {
      "midi": 57,
      "hit": false,
      "t": 61488.63600000001,
      "d": 707.9283750000031,
      "v": 117
    },
    {
      "midi": 65,
      "hit": false,
      "t": 62297.697000000015,
      "d": 640.5066250000018,
      "v": 120
    },
    {
      "midi": 60,
      "hit": false,
      "t": 62297.697000000015,
      "d": 674.2174999999988,
      "v": 118
    },
    {
      "midi": 57,
      "hit": false,
      "t": 62297.697000000015,
      "d": 699.5006562499984,
      "v": 117
    },
    {
      "midi": 79,
      "hit": false,
      "t": 62297.697000000044,
      "d": 101.13262499999837,
      "v": 27
    },
    {
      "midi": 79,
      "hit": false,
      "t": 62499.96225000004,
      "d": 101.13262499999837,
      "v": 27
    },
    {
      "midi": 79,
      "hit": false,
      "t": 62702.22750000004,
      "d": 92.70490625000093,
      "v": 27
    },
    {
      "midi": 79,
      "hit": false,
      "t": 62896.06503125004,
      "d": 227.5484062500036,
      "v": 27
    },
    {
      "midi": 62,
      "hit": false,
      "t": 63106.758000000016,
      "d": 699.5006562499984,
      "v": 119
    },
    {
      "midi": 67,
      "hit": false,
      "t": 63106.758000000016,
      "d": 733.2115312499955,
      "v": 120
    },
    {
      "midi": 59,
      "hit": false,
      "t": 63106.758000000016,
      "d": 741.6392499999929,
      "v": 118
    },
    {
      "midi": 79,
      "hit": false,
      "t": 63544.99937500004,
      "d": 84.27718750000349,
      "v": 27
    },
    {
      "midi": 79,
      "hit": false,
      "t": 63730.409187500045,
      "d": 168.5543749999997,
      "v": 27
    },
    {
      "midi": 62,
      "hit": false,
      "t": 63915.81900000001,
      "d": 623.6511874999997,
      "v": 119
    },
    {
      "midi": 59,
      "hit": false,
      "t": 63915.81900000001,
      "d": 665.7897812500014,
      "v": 118
    },
    {
      "midi": 67,
      "hit": false,
      "t": 63915.81900000001,
      "d": 682.6452187500036,
      "v": 120
    },
    {
      "midi": 79,
      "hit": false,
      "t": 64362.48809375004,
      "d": 84.27718750000349,
      "v": 27
    },
    {
      "midi": 79,
      "hit": false,
      "t": 64556.32562500005,
      "d": 168.5543749999997,
      "v": 27
    },
    {
      "midi": 59,
      "hit": false,
      "t": 64724.88000000001,
      "d": 682.6452187500036,
      "v": 118
    },
    {
      "midi": 67,
      "hit": false,
      "t": 64724.88000000001,
      "d": 699.5006562500057,
      "v": 120
    },
    {
      "midi": 64,
      "hit": false,
      "t": 64724.88000000001,
      "d": 733.2115312500027,
      "v": 119
    },
    {
      "midi": 79,
      "hit": false,
      "t": 65137.83821875005,
      "d": 126.41578124999796,
      "v": 27
    },
    {
      "midi": 79,
      "hit": false,
      "t": 65331.675750000046,
      "d": 219.1206874999989,
      "v": 27
    },
    {
      "midi": 67,
      "hit": false,
      "t": 65533.94100000001,
      "d": 640.5066250000018,
      "v": 120
    },
    {
      "midi": 59,
      "hit": false,
      "t": 65533.94100000001,
      "d": 674.2175000000061,
      "v": 118
    },
    {
      "midi": 64,
      "hit": false,
      "t": 65533.94100000001,
      "d": 716.3560937500079,
      "v": 119
    },
    {
      "midi": 79,
      "hit": false,
      "t": 65930.04378125005,
      "d": 84.27718750000349,
      "v": 27
    },
    {
      "midi": 79,
      "hit": false,
      "t": 66132.30903125004,
      "d": 126.41578125000524,
      "v": 27
    },
    {
      "midi": 60,
      "hit": false,
      "t": 66343.00200000002,
      "d": 674.2174999999988,
      "v": 118
    },
    {
      "midi": 67,
      "hit": false,
      "t": 66343.00200000002,
      "d": 691.0729374999937,
      "v": 120
    },
    {
      "midi": 64,
      "hit": false,
      "t": 66343.00200000002,
      "d": 716.3560937500006,
      "v": 119
    },
    {
      "midi": 67,
      "hit": false,
      "t": 67152.06300000002,
      "d": 665.7897812500014,
      "v": 120
    },
    {
      "midi": 60,
      "hit": false,
      "t": 67152.06300000002,
      "d": 691.0729375000083,
      "v": 118
    },
    {
      "midi": 64,
      "hit": false,
      "t": 67152.06300000002,
      "d": 724.7838125000126,
      "v": 119
    },
    {
      "midi": 60,
      "hit": false,
      "t": 67961.12400000004,
      "d": 665.7897812500014,
      "v": 118
    },
    {
      "midi": 57,
      "hit": false,
      "t": 67961.12400000004,
      "d": 674.2174999999988,
      "v": 117
    },
    {
      "midi": 65,
      "hit": false,
      "t": 67961.12400000004,
      "d": 674.2174999999988,
      "v": 120
    },
    {
      "midi": 79,
      "hit": false,
      "t": 68753.32956250005,
      "d": 109.56034374999581,
      "v": 27
    },
    {
      "midi": 57,
      "hit": false,
      "t": 68770.18500000004,
      "d": 682.6452187499963,
      "v": 117
    },
    {
      "midi": 60,
      "hit": false,
      "t": 68770.18500000004,
      "d": 691.0729374999937,
      "v": 118
    },
    {
      "midi": 65,
      "hit": false,
      "t": 68770.18500000004,
      "d": 691.0729374999937,
      "v": 120
    },
    {
      "midi": 79,
      "hit": false,
      "t": 68964.02253125004,
      "d": 84.27718750000349,
      "v": 27
    },
    {
      "midi": 79,
      "hit": false,
      "t": 69157.86006250004,
      "d": 109.56034374999581,
      "v": 27
    },
    {
      "midi": 79,
      "hit": false,
      "t": 69385.40846875003,
      "d": 176.98209375000442,
      "v": 27
    },
    {
      "midi": 60,
      "hit": false,
      "t": 69579.24600000003,
      "d": 573.0848750000005,
      "v": 118
    },
    {
      "midi": 57,
      "hit": false,
      "t": 69579.24600000003,
      "d": 598.3680312500073,
      "v": 117
    },
    {
      "midi": 65,
      "hit": false,
      "t": 69579.24600000003,
      "d": 598.3680312500073,
      "v": 120
    },
    {
      "midi": 79,
      "hit": false,
      "t": 69975.34878125004,
      "d": 92.70490625000093,
      "v": 27
    },
    {
      "midi": 79,
      "hit": false,
      "t": 70177.61403125004,
      "d": 160.126656249995,
      "v": 27
    },
    {
      "midi": 60,
      "hit": false,
      "t": 70388.30700000003,
      "d": 615.2234687500022,
      "v": 118
    },
    {
      "midi": 57,
      "hit": false,
      "t": 70388.30700000003,
      "d": 623.6511874999997,
      "v": 117
    },
    {
      "midi": 65,
      "hit": false,
      "t": 70388.30700000003,
      "d": 632.0789062499971,
      "v": 120
    },
    {
      "midi": 79,
      "hit": false,
      "t": 70573.71681250003,
      "d": 185.40981250000186,
      "v": 27
    },
    {
      "midi": 59,
      "hit": false,
      "t": 71197.36800000003,
      "d": 640.5066249999945,
      "v": 118
    },
    {
      "midi": 67,
      "hit": false,
      "t": 71197.36800000003,
      "d": 657.3620624999894,
      "v": 120
    },
    {
      "midi": 64,
      "hit": false,
      "t": 71197.36800000003,
      "d": 674.2174999999843,
      "v": 119
    },
    {
      "midi": 79,
      "hit": false,
      "t": 71205.79571875003,
      "d": 126.41578125000524,
      "v": 27
    },
    {
      "midi": 79,
      "hit": false,
      "t": 71804.16375000004,
      "d": 84.27718750000349,
      "v": 27
    },
    {
      "midi": 67,
      "hit": false,
      "t": 72006.42900000002,
      "d": 589.9403124999953,
      "v": 120
    },
    {
      "midi": 59,
      "hit": false,
      "t": 72006.42900000002,
      "d": 657.3620624999894,
      "v": 118
    },
    {
      "midi": 64,
      "hit": false,
      "t": 72006.42900000002,
      "d": 741.6392499999929,
      "v": 119
    },
    {
      "midi": 79,
      "hit": false,
      "t": 72014.85671875004,
      "d": 117.98806249999325,
      "v": 27
    },
    {
      "midi": 79,
      "hit": false,
      "t": 72233.97740625004,
      "d": 84.27718750000349,
      "v": 27
    },
    {
      "midi": 79,
      "hit": false,
      "t": 72436.24265625003,
      "d": 193.8375312499993,
      "v": 27
    },
    {
      "midi": 60,
      "hit": false,
      "t": 72815.49,
      "d": 707.9283750000031,
      "v": 118
    },
    {
      "midi": 57,
      "hit": false,
      "t": 72815.49,
      "d": 733.21153125001,
      "v": 117
    },
    {
      "midi": 65,
      "hit": false,
      "t": 72815.49,
      "d": 733.21153125001,
      "v": 120
    },
    {
      "midi": 60,
      "hit": false,
      "t": 73624.55100000002,
      "d": 682.6452187499963,
      "v": 118
    },
    {
      "midi": 57,
      "hit": false,
      "t": 73624.55100000002,
      "d": 699.5006562499912,
      "v": 117
    },
    {
      "midi": 65,
      "hit": false,
      "t": 73624.55100000002,
      "d": 707.9283749999886,
      "v": 120
    },
    {
      "midi": 79,
      "hit": false,
      "t": 73826.81625000003,
      "d": 160.126656249995,
      "v": 27
    },
    {
      "midi": 79,
      "hit": false,
      "t": 74265.05762500003,
      "d": 67.42174999999406,
      "v": 27
    },
    {
      "midi": 59,
      "hit": false,
      "t": 74433.61200000001,
      "d": 716.3560937500006,
      "v": 118
    },
    {
      "midi": 67,
      "hit": false,
      "t": 74433.61200000001,
      "d": 724.783812499998,
      "v": 120
    },
    {
      "midi": 64,
      "hit": false,
      "t": 74433.61200000001,
      "d": 733.2115312499955,
      "v": 119
    },
    {
      "midi": 79,
      "hit": false,
      "t": 74467.32287500003,
      "d": 84.27718750000349,
      "v": 27
    },
    {
      "midi": 79,
      "hit": false,
      "t": 74661.16040625003,
      "d": 92.70490625000093,
      "v": 27
    },
    {
      "midi": 79,
      "hit": false,
      "t": 74854.99793750003,
      "d": 92.70490625000093,
      "v": 27
    },
    {
      "midi": 79,
      "hit": false,
      "t": 75040.40775000003,
      "d": 67.42174999999406,
      "v": 27
    },
    {
      "midi": 79,
      "hit": false,
      "t": 75234.24528125003,
      "d": 92.70490625000093,
      "v": 27
    },
    {
      "midi": 67,
      "hit": false,
      "t": 75242.67300000001,
      "d": 632.0789062499971,
      "v": 120
    },
    {
      "midi": 59,
      "hit": false,
      "t": 75242.67300000001,
      "d": 674.2174999999988,
      "v": 118
    },
    {
      "midi": 64,
      "hit": false,
      "t": 75242.67300000001,
      "d": 716.3560937500006,
      "v": 119
    },
    {
      "midi": 79,
      "hit": false,
      "t": 75436.51053125002,
      "d": 109.56034374999581,
      "v": 27
    },
    {
      "midi": 79,
      "hit": false,
      "t": 75866.32418750002,
      "d": 168.55437500000698,
      "v": 27
    },
    {
      "midi": 57,
      "hit": false,
      "t": 76051.73400000001,
      "d": 716.3560937500006,
      "v": 117
    },
    {
      "midi": 60,
      "hit": false,
      "t": 76051.73400000001,
      "d": 716.3560937500006,
      "v": 118
    },
    {
      "midi": 65,
      "hit": false,
      "t": 76051.73400000001,
      "d": 716.3560937500006,
      "v": 120
    },
    {
      "midi": 57,
      "hit": false,
      "t": 76860.79500000001,
      "d": 564.657156250003,
      "v": 117
    },
    {
      "midi": 60,
      "hit": false,
      "t": 76860.79500000001,
      "d": 564.657156250003,
      "v": 118
    },
    {
      "midi": 65,
      "hit": false,
      "t": 76860.79500000001,
      "d": 640.5066250000091,
      "v": 120
    },
    {
      "midi": 79,
      "hit": false,
      "t": 77492.87390625002,
      "d": 84.27718750000349,
      "v": 27
    },
    {
      "midi": 59,
      "hit": false,
      "t": 77669.85600000003,
      "d": 657.362062500004,
      "v": 118
    },
    {
      "midi": 67,
      "hit": false,
      "t": 77669.85600000003,
      "d": 657.362062500004,
      "v": 120
    },
    {
      "midi": 64,
      "hit": false,
      "t": 77669.85600000003,
      "d": 674.2174999999988,
      "v": 119
    },
    {
      "midi": 79,
      "hit": false,
      "t": 77703.56687500003,
      "d": 261.25928124999336,
      "v": 27
    },
    {
      "midi": 79,
      "hit": false,
      "t": 78116.52509375002,
      "d": 75.84946875000605,
      "v": 27
    },
    {
      "midi": 79,
      "hit": false,
      "t": 78310.36262500002,
      "d": 252.83156249999593,
      "v": 27
    },
    {
      "midi": 59,
      "hit": false,
      "t": 78478.91700000003,
      "d": 665.7897812500014,
      "v": 118
    },
    {
      "midi": 67,
      "hit": false,
      "t": 78478.91700000003,
      "d": 691.0729375000083,
      "v": 120
    },
    {
      "midi": 64,
      "hit": false,
      "t": 78478.91700000003,
      "d": 733.21153125001,
      "v": 119
    },
    {
      "midi": 79,
      "hit": false,
      "t": 78698.03768750002,
      "d": 185.40981250000186,
      "v": 27
    },
    {
      "midi": 79,
      "hit": false,
      "t": 79085.71275000002,
      "d": 202.26524999999674,
      "v": 27
    },
    {
      "midi": 59,
      "hit": false,
      "t": 79287.97800000005,
      "d": 665.7897812500014,
      "v": 118
    },
    {
      "midi": 67,
      "hit": false,
      "t": 79287.97800000005,
      "d": 682.6452187499963,
      "v": 120
    },
    {
      "midi": 64,
      "hit": false,
      "t": 79287.97800000005,
      "d": 707.9283750000031,
      "v": 119
    },
    {
      "midi": 67,
      "hit": false,
      "t": 80097.03900000005,
      "d": 606.7957500000048,
      "v": 120
    },
    {
      "midi": 59,
      "hit": false,
      "t": 80097.03900000005,
      "d": 615.2234687500022,
      "v": 118
    },
    {
      "midi": 64,
      "hit": false,
      "t": 80097.03900000005,
      "d": 691.0729375000083,
      "v": 119
    },
    {
      "midi": 79,
      "hit": false,
      "t": 80307.73196875001,
      "d": 67.42174999999406,
      "v": 27
    },
    {
      "midi": 79,
      "hit": false,
      "t": 80493.14178125,
      "d": 92.70490625000093,
      "v": 27
    },
    {
      "midi": 79,
      "hit": false,
      "t": 80703.83475,
      "d": 278.1147187500028,
      "v": 27
    },
    {
      "midi": 57,
      "hit": false,
      "t": 80906.10000000005,
      "d": 691.0729374999937,
      "v": 117
    },
    {
      "midi": 65,
      "hit": false,
      "t": 80906.10000000005,
      "d": 691.0729374999937,
      "v": 120
    },
    {
      "midi": 60,
      "hit": false,
      "t": 80906.10000000005,
      "d": 707.9283749999886,
      "v": 118
    },
    {
      "midi": 50,
      "hit": false,
      "t": 81310.6305,
      "d": 455.09681249999267,
      "v": 105
    },
    {
      "midi": 53,
      "hit": false,
      "t": 81715.161,
      "d": 412.9582187499909,
      "v": 106
    },
    {
      "midi": 65,
      "hit": false,
      "t": 81715.16100000004,
      "d": 707.9283750000031,
      "v": 120
    },
    {
      "midi": 57,
      "hit": false,
      "t": 81715.16100000004,
      "d": 716.3560937500006,
      "v": 117
    },
    {
      "midi": 60,
      "hit": false,
      "t": 81715.16100000004,
      "d": 716.3560937500006,
      "v": 118
    },
    {
      "midi": 50,
      "hit": false,
      "t": 82119.69149999999,
      "d": 421.38593749998836,
      "v": 105
    },
    {
      "midi": 57,
      "hit": false,
      "t": 82524.22199999998,
      "d": 421.38593749998836,
      "v": 107
    },
    {
      "midi": 65,
      "hit": false,
      "t": 82524.22200000004,
      "d": 665.7897812500014,
      "v": 120
    },
    {
      "midi": 60,
      "hit": false,
      "t": 82524.22200000004,
      "d": 674.2174999999988,
      "v": 118
    },
    {
      "midi": 57,
      "hit": false,
      "t": 82524.22200000004,
      "d": 691.0729374999937,
      "v": 117
    },
    {
      "midi": 79,
      "hit": false,
      "t": 82557.932875,
      "d": 227.5484062500036,
      "v": 27
    },
    {
      "midi": 50,
      "hit": false,
      "t": 82928.75249999997,
      "d": 842.7718749999913,
      "v": 105
    },
    {
      "midi": 60,
      "hit": false,
      "t": 83333.28299999997,
      "d": 396.10278124999604,
      "v": 108
    },
    {
      "midi": 57,
      "hit": false,
      "t": 83333.28300000002,
      "d": 699.5006562500057,
      "v": 117
    },
    {
      "midi": 60,
      "hit": false,
      "t": 83333.28300000002,
      "d": 707.9283750000031,
      "v": 118
    },
    {
      "midi": 65,
      "hit": false,
      "t": 83333.28300000002,
      "d": 707.9283750000031,
      "v": 120
    },
    {
      "midi": 57,
      "hit": false,
      "t": 83737.81349999996,
      "d": 463.52453125000466,
      "v": 107
    },
    {
      "midi": 62,
      "hit": false,
      "t": 84142.34399999997,
      "d": 825.9164374999964,
      "v": 109
    },
    {
      "midi": 50,
      "hit": false,
      "t": 84546.87449999996,
      "d": 379.24734375000116,
      "v": 105
    },
    {
      "midi": 57,
      "hit": false,
      "t": 84951.40499999997,
      "d": 421.38593749998836,
      "v": 107
    },
    {
      "midi": 50,
      "hit": false,
      "t": 85355.93549999996,
      "d": 438.2413749999978,
      "v": 105
    },
    {
      "midi": 79,
      "hit": false,
      "t": 85566.62846875,
      "d": 92.70490625000093,
      "v": 27
    },
    {
      "midi": 48,
      "hit": false,
      "t": 85760.46599999996,
      "d": 809.0610000000015,
      "v": 104
    },
    {
      "midi": 55,
      "hit": false,
      "t": 85760.46599999996,
      "d": 809.0610000000015,
      "v": 107
    },
    {
      "midi": 67,
      "hit": false,
      "t": 85760.46600000003,
      "d": 699.5006562500057,
      "v": 120
    },
    {
      "midi": 60,
      "hit": false,
      "t": 85760.46600000003,
      "d": 707.9283750000031,
      "v": 118
    },
    {
      "midi": 64,
      "hit": false,
      "t": 85760.46600000003,
      "d": 758.4946875000023,
      "v": 119
    },
    {
      "midi": 79,
      "hit": false,
      "t": 85768.89371875,
      "d": 235.97612500000105,
      "v": 27
    },
    {
      "midi": 52,
      "hit": false,
      "t": 86164.99649999996,
      "d": 387.6750624999986,
      "v": 106
    },
    {
      "midi": 79,
      "hit": false,
      "t": 86190.27965625,
      "d": 84.27718750000349,
      "v": 27
    },
    {
      "midi": 79,
      "hit": false,
      "t": 86384.1171875,
      "d": 210.69296874999418,
      "v": 27
    },
    {
      "midi": 55,
      "hit": false,
      "t": 86569.52699999996,
      "d": 505.66312499999185,
      "v": 107
    },
    {
      "midi": 60,
      "hit": false,
      "t": 86569.52700000003,
      "d": 615.2234687500022,
      "v": 118
    },
    {
      "midi": 64,
      "hit": false,
      "t": 86569.52700000003,
      "d": 682.6452187499963,
      "v": 119
    },
    {
      "midi": 67,
      "hit": false,
      "t": 86569.52700000003,
      "d": 691.0729374999937,
      "v": 120
    },
    {
      "midi": 48,
      "hit": false,
      "t": 86974.05749999995,
      "d": 396.10278124999604,
      "v": 104
    },
    {
      "midi": 79,
      "hit": false,
      "t": 86974.0575,
      "d": 92.70490625000093,
      "v": 27
    },
    {
      "midi": 79,
      "hit": false,
      "t": 87201.60590625,
      "d": 219.12068750000617,
      "v": 27
    },
    {
      "midi": 56,
      "hit": false,
      "t": 87378.58799999995,
      "d": 404.5304999999935,
      "v": 107
    },
    {
      "midi": 60,
      "hit": false,
      "t": 87378.58800000002,
      "d": 716.3560937500006,
      "v": 118
    },
    {
      "midi": 56,
      "hit": false,
      "t": 87378.58800000002,
      "d": 741.6392500000075,
      "v": 117
    },
    {
      "midi": 64,
      "hit": false,
      "t": 87378.58800000002,
      "d": 750.0669687500049,
      "v": 119
    },
    {
      "midi": 48,
      "hit": false,
      "t": 87783.11849999994,
      "d": 455.09681249999267,
      "v": 104
    },
    {
      "midi": 56,
      "hit": false,
      "t": 88187.64899999993,
      "d": 396.10278124999604,
      "v": 107
    },
    {
      "midi": 56,
      "hit": false,
      "t": 88187.64900000002,
      "d": 674.2174999999988,
      "v": 117
    },
    {
      "midi": 60,
      "hit": false,
      "t": 88187.64900000002,
      "d": 674.2174999999988,
      "v": 118
    },
    {
      "midi": 64,
      "hit": false,
      "t": 88187.64900000002,
      "d": 724.783812499998,
      "v": 119
    },
    {
      "midi": 48,
      "hit": false,
      "t": 88592.17949999993,
      "d": 455.09681249999267,
      "v": 104
    },
    {
      "midi": 79,
      "hit": false,
      "t": 88600.60721875001,
      "d": 84.27718750000349,
      "v": 27
    },
    {
      "midi": 79,
      "hit": false,
      "t": 88802.87246875,
      "d": 75.84946875000605,
      "v": 27
    },
    {
      "midi": 57,
      "hit": false,
      "t": 88996.70999999992,
      "d": 396.10278124999604,
      "v": 107
    },
    {
      "midi": 79,
      "hit": false,
      "t": 88996.71,
      "d": 219.12068750000617,
      "v": 27
    },
    {
      "midi": 60,
      "hit": false,
      "t": 88996.71000000002,
      "d": 648.9343437500065,
      "v": 118
    },
    {
      "midi": 57,
      "hit": false,
      "t": 88996.71000000002,
      "d": 674.2175000000134,
      "v": 117
    },
    {
      "midi": 64,
      "hit": false,
      "t": 88996.71000000002,
      "d": 707.9283750000177,
      "v": 119
    },
    {
      "midi": 79,
      "hit": false,
      "t": 89392.81278125002,
      "d": 92.70490625000093,
      "v": 27
    },
    {
      "midi": 48,
      "hit": false,
      "t": 89401.24049999991,
      "d": 429.81365625000035,
      "v": 104
    },
    {
      "midi": 79,
      "hit": false,
      "t": 89620.36118750002,
      "d": 193.8375312499993,
      "v": 27
    },
    {
      "midi": 57,
      "hit": false,
      "t": 89805.7709999999,
      "d": 421.3859375000029,
      "v": 107
    },
    {
      "midi": 60,
      "hit": false,
      "t": 89805.77100000004,
      "d": 640.5066249999945,
      "v": 118
    },
    {
      "midi": 57,
      "hit": false,
      "t": 89805.77100000004,
      "d": 648.934343749992,
      "v": 117
    },
    {
      "midi": 64,
      "hit": false,
      "t": 89805.77100000004,
      "d": 682.6452187499963,
      "v": 119
    },
    {
      "midi": 79,
      "hit": false,
      "t": 90008.03625000002,
      "d": 151.69893749999756,
      "v": 27
    },
    {
      "midi": 48,
      "hit": false,
      "t": 90210.30149999991,
      "d": 387.6750624999986,
      "v": 104
    },
    {
      "midi": 58,
      "hit": false,
      "t": 90614.83199999991,
      "d": 396.10278124999604,
      "v": 107
    },
    {
      "midi": 58,
      "hit": false,
      "t": 90614.83200000004,
      "d": 674.2174999999988,
      "v": 117
    },
    {
      "midi": 67,
      "hit": false,
      "t": 90614.83200000004,
      "d": 674.2174999999988,
      "v": 120
    },
    {
      "midi": 60,
      "hit": false,
      "t": 90614.83200000004,
      "d": 691.0729374999937,
      "v": 118
    },
    {
      "midi": 64,
      "hit": false,
      "t": 90614.83200000004,
      "d": 707.9283749999886,
      "v": 119
    },
    {
      "midi": 79,
      "hit": false,
      "t": 90631.68743750002,
      "d": 202.26524999999674,
      "v": 27
    },
    {
      "midi": 48,
      "hit": false,
      "t": 91019.3624999999,
      "d": 429.81365625000035,
      "v": 104
    },
    {
      "midi": 79,
      "hit": false,
      "t": 91027.79021875001,
      "d": 92.70490625000093,
      "v": 27
    },
    {
      "midi": 79,
      "hit": false,
      "t": 91246.91090625002,
      "d": 202.26524999999674,
      "v": 27
    },
    {
      "midi": 58,
      "hit": false,
      "t": 91423.8929999999,
      "d": 412.95821875000547,
      "v": 107
    },
    {
      "midi": 58,
      "hit": false,
      "t": 91423.89300000003,
      "d": 581.5125937499979,
      "v": 117
    },
    {
      "midi": 60,
      "hit": false,
      "t": 91423.89300000003,
      "d": 589.9403124999953,
      "v": 118
    },
    {
      "midi": 67,
      "hit": false,
      "t": 91423.89300000003,
      "d": 606.7957499999902,
      "v": 120
    },
    {
      "midi": 64,
      "hit": false,
      "t": 91423.89300000003,
      "d": 682.6452187499963,
      "v": 119
    },
    {
      "midi": 48,
      "hit": false,
      "t": 91828.4234999999,
      "d": 404.5304999999935,
      "v": 104
    },
    {
      "midi": 79,
      "hit": false,
      "t": 91828.42350000002,
      "d": 92.70490625000093,
      "v": 27
    },
    {
      "midi": 79,
      "hit": false,
      "t": 92022.26103125002,
      "d": 84.27718750000349,
      "v": 27
    },
    {
      "midi": 57,
      "hit": false,
      "t": 92232.9539999999,
      "d": 387.6750624999986,
      "v": 107
    },
    {
      "midi": 65,
      "hit": false,
      "t": 92232.95400000003,
      "d": 724.783812499998,
      "v": 120
    },
    {
      "midi": 57,
      "hit": false,
      "t": 92232.95400000003,
      "d": 733.2115312499955,
      "v": 117
    },
    {
      "midi": 60,
      "hit": false,
      "t": 92232.95400000003,
      "d": 733.2115312499955,
      "v": 118
    },
    {
      "midi": 79,
      "hit": false,
      "t": 92241.38171875002,
      "d": 219.12068750000617,
      "v": 27
    },
    {
      "midi": 48,
      "hit": false,
      "t": 92637.48449999989,
      "d": 421.38593749998836,
      "v": 104
    },
    {
      "midi": 79,
      "hit": false,
      "t": 92637.48450000004,
      "d": 75.84946875000605,
      "v": 27
    },
    {
      "midi": 79,
      "hit": false,
      "t": 92839.74975000005,
      "d": 185.40981250000186,
      "v": 27
    },
    {
      "midi": 53,
      "hit": false,
      "t": 93042.01499999988,
      "d": 429.81365625000035,
      "v": 106
    },
    {
      "midi": 60,
      "hit": false,
      "t": 93042.01500000003,
      "d": 632.0789062499971,
      "v": 118
    },
    {
      "midi": 65,
      "hit": false,
      "t": 93042.01500000003,
      "d": 657.362062500004,
      "v": 120
    },
    {
      "midi": 57,
      "hit": false,
      "t": 93042.01500000003,
      "d": 674.2174999999988,
      "v": 117
    },
    {
      "midi": 48,
      "hit": false,
      "t": 93446.54549999988,
      "d": 421.3859375000029,
      "v": 104
    },
    {
      "midi": 79,
      "hit": false,
      "t": 93463.40093750005,
      "d": 84.27718750000349,
      "v": 27
    },
    {
      "midi": 79,
      "hit": false,
      "t": 93665.66618750004,
      "d": 219.12068750000617,
      "v": 27
    },
    {
      "midi": 57,
      "hit": false,
      "t": 93851.07599999988,
      "d": 396.10278124999604,
      "v": 107
    },
    {
      "midi": 60,
      "hit": false,
      "t": 93851.07600000003,
      "d": 657.362062500004,
      "v": 118
    },
    {
      "midi": 65,
      "hit": false,
      "t": 93851.07600000003,
      "d": 657.362062500004,
      "v": 120
    },
    {
      "midi": 57,
      "hit": false,
      "t": 93851.07600000003,
      "d": 674.2174999999988,
      "v": 117
    },
    {
      "midi": 53,
      "hit": false,
      "t": 94255.60649999988,
      "d": 396.10278124999604,
      "v": 106
    },
    {
      "midi": 48,
      "hit": false,
      "t": 94660.13699999987,
      "d": 396.10278124999604,
      "v": 104
    },
    {
      "midi": 60,
      "hit": false,
      "t": 94660.13700000003,
      "d": 589.9403124999953,
      "v": 118
    },
    {
      "midi": 57,
      "hit": false,
      "t": 94660.13700000003,
      "d": 657.3620624999894,
      "v": 117
    },
    {
      "midi": 65,
      "hit": false,
      "t": 94660.13700000003,
      "d": 682.6452187499963,
      "v": 120
    },
    {
      "midi": 79,
      "hit": false,
      "t": 94870.82996875005,
      "d": 92.70490625000093,
      "v": 27
    },
    {
      "midi": 57,
      "hit": false,
      "t": 95064.66749999986,
      "d": 387.6750624999986,
      "v": 107
    },
    {
      "midi": 79,
      "hit": false,
      "t": 95064.66750000005,
      "d": 134.84350000000268,
      "v": 27
    },
    {
      "midi": 79,
      "hit": false,
      "t": 95452.34256250005,
      "d": 117.98806249999325,
      "v": 27
    },
    {
      "midi": 54,
      "hit": false,
      "t": 95469.19799999986,
      "d": 809.060999999987,
      "v": 106
    },
    {
      "midi": 66,
      "hit": false,
      "t": 95469.19800000003,
      "d": 707.9283750000031,
      "v": 120
    },
    {
      "midi": 60,
      "hit": false,
      "t": 95469.19800000003,
      "d": 716.3560937500006,
      "v": 118
    },
    {
      "midi": 57,
      "hit": false,
      "t": 95469.19800000003,
      "d": 724.783812499998,
      "v": 117
    },
    {
      "midi": 79,
      "hit": false,
      "t": 95722.02956250004,
      "d": 126.41578125000524,
      "v": 27
    },
    {
      "midi": 57,
      "hit": false,
      "t": 95873.72849999985,
      "d": 387.6750624999986,
      "v": 107
    },
    {
      "midi": 79,
      "hit": false,
      "t": 96033.85515625005,
      "d": 92.70490625000093,
      "v": 27
    },
    {
      "midi": 60,
      "hit": false,
      "t": 96278.25899999985,
      "d": 412.9582187499909,
      "v": 108
    },
    {
      "midi": 60,
      "hit": false,
      "t": 96278.25900000003,
      "d": 699.5006562500057,
      "v": 118
    },
    {
      "midi": 66,
      "hit": false,
      "t": 96278.25900000003,
      "d": 699.5006562500057,
      "v": 120
    },
    {
      "midi": 57,
      "hit": false,
      "t": 96278.25900000003,
      "d": 707.9283750000031,
      "v": 117
    },
    {
      "midi": 79,
      "hit": false,
      "t": 96278.25900000005,
      "d": 219.12068750000617,
      "v": 27
    },
    {
      "midi": 54,
      "hit": false,
      "t": 96682.78949999984,
      "d": 471.95224999998754,
      "v": 106
    },
    {
      "midi": 79,
      "hit": false,
      "t": 96691.21721875005,
      "d": 84.27718750000349,
      "v": 27
    },
    {
      "midi": 79,
      "hit": false,
      "t": 96893.48246875005,
      "d": 227.5484062500036,
      "v": 27
    },
    {
      "midi": 63,
      "hit": false,
      "t": 97087.31999999983,
      "d": 438.2413749999978,
      "v": 109
    },
    {
      "midi": 60,
      "hit": false,
      "t": 97087.32000000004,
      "d": 674.2174999999988,
      "v": 118
    },
    {
      "midi": 57,
      "hit": false,
      "t": 97087.32000000004,
      "d": 682.6452187499963,
      "v": 117
    },
    {
      "midi": 66,
      "hit": false,
      "t": 97087.32000000004,
      "d": 691.0729374999937,
      "v": 120
    },
    {
      "midi": 60,
      "hit": false,
      "t": 97491.85049999983,
      "d": 412.95821875000547,
      "v": 108
    },
    {
      "midi": 57,
      "hit": false,
      "t": 97896.38099999983,
      "d": 429.81365625000035,
      "v": 107
    },
    {
      "midi": 60,
      "hit": false,
      "t": 97896.38100000002,
      "d": 640.5066249999945,
      "v": 118
    },
    {
      "midi": 57,
      "hit": false,
      "t": 97896.38100000002,
      "d": 674.2174999999988,
      "v": 117
    },
    {
      "midi": 66,
      "hit": false,
      "t": 97896.38100000002,
      "d": 674.2174999999988,
      "v": 120
    },
    {
      "midi": 54,
      "hit": false,
      "t": 98300.91149999983,
      "d": 109.56034375001036,
      "v": 106
    },
    {
      "midi": 79,
      "hit": false,
      "t": 98520.03218750005,
      "d": 92.70490625000093,
      "v": 27
    },
    {
      "midi": 48,
      "hit": false,
      "t": 98705.44199999984,
      "d": 834.3441562500084,
      "v": 104
    },
    {
      "midi": 67,
      "hit": false,
      "t": 98705.44200000002,
      "d": 682.6452187499963,
      "v": 120
    },
    {
      "midi": 60,
      "hit": false,
      "t": 98705.44200000002,
      "d": 716.3560937500006,
      "v": 118
    },
    {
      "midi": 64,
      "hit": false,
      "t": 98705.44200000002,
      "d": 750.0669687500049,
      "v": 119
    },
    {
      "midi": 79,
      "hit": false,
      "t": 98739.15287500006,
      "d": 227.5484062500036,
      "v": 27
    },
    {
      "midi": 52,
      "hit": false,
      "t": 99109.97249999983,
      "d": 362.3919062500063,
      "v": 106
    },
    {
      "midi": 79,
      "hit": false,
      "t": 99126.82793750006,
      "d": 92.70490625000093,
      "v": 27
    },
    {
      "midi": 79,
      "hit": false,
      "t": 99320.66546875006,
      "d": 168.55437500000698,
      "v": 27
    },
    {
      "midi": 55,
      "hit": false,
      "t": 99514.50299999984,
      "d": 353.96418750000885,
      "v": 107
    },
    {
      "midi": 67,
      "hit": false,
      "t": 99514.50300000003,
      "d": 657.362062500004,
      "v": 120
    },
    {
      "midi": 60,
      "hit": false,
      "t": 99514.50300000003,
      "d": 665.7897812500014,
      "v": 118
    },
    {
      "midi": 64,
      "hit": false,
      "t": 99514.50300000003,
      "d": 674.2174999999988,
      "v": 119
    },
    {
      "midi": 79,
      "hit": false,
      "t": 99733.62368750006,
      "d": 160.126656249995,
      "v": 27
    },
    {
      "midi": 52,
      "hit": false,
      "t": 99919.03349999984,
      "d": 379.24734375000116,
      "v": 106
    },
    {
      "midi": 79,
      "hit": false,
      "t": 100146.58190625005,
      "d": 219.12068750000617,
      "v": 27
    },
    {
      "midi": 57,
      "hit": false,
      "t": 100323.56399999985,
      "d": 421.38593749998836,
      "v": 107
    },
    {
      "midi": 60,
      "hit": false,
      "t": 100323.56400000003,
      "d": 716.3560937500006,
      "v": 118
    },
    {
      "midi": 57,
      "hit": false,
      "t": 100323.56400000003,
      "d": 724.783812499998,
      "v": 117
    },
    {
      "midi": 64,
      "hit": false,
      "t": 100323.56400000003,
      "d": 733.2115312499955,
      "v": 119
    },
    {
      "midi": 48,
      "hit": false,
      "t": 100728.09449999985,
      "d": 471.95224999998754,
      "v": 104
    },
    {
      "midi": 57,
      "hit": false,
      "t": 101132.62499999984,
      "d": 396.10278124999604,
      "v": 107
    },
    {
      "midi": 60,
      "hit": false,
      "t": 101132.62500000003,
      "d": 598.3680312499928,
      "v": 118
    },
    {
      "midi": 57,
      "hit": false,
      "t": 101132.62500000003,
      "d": 606.7957499999902,
      "v": 117
    },
    {
      "midi": 64,
      "hit": false,
      "t": 101132.62500000003,
      "d": 640.5066249999945,
      "v": 119
    },
    {
      "midi": 48,
      "hit": false,
      "t": 101537.15549999983,
      "d": 421.38593749998836,
      "v": 104
    },
    {
      "midi": 79,
      "hit": false,
      "t": 101764.70390625006,
      "d": 92.70490625000093,
      "v": 27
    },
    {
      "midi": 55,
      "hit": false,
      "t": 101941.68599999983,
      "d": 396.10278124999604,
      "v": 107
    },
    {
      "midi": 60,
      "hit": false,
      "t": 101941.68600000003,
      "d": 674.2174999999988,
      "v": 118
    },
    {
      "midi": 67,
      "hit": false,
      "t": 101941.68600000003,
      "d": 691.0729374999937,
      "v": 120
    },
    {
      "midi": 64,
      "hit": false,
      "t": 101941.68600000003,
      "d": 733.2115312499955,
      "v": 119
    },
    {
      "midi": 79,
      "hit": false,
      "t": 101958.54143750005,
      "d": 244.4038437499985,
      "v": 27
    },
    {
      "midi": 48,
      "hit": false,
      "t": 102346.21649999982,
      "d": 429.81365625000035,
      "v": 104
    },
    {
      "midi": 79,
      "hit": false,
      "t": 102363.07193750005,
      "d": 92.70490625000093,
      "v": 27
    },
    {
      "midi": 79,
      "hit": false,
      "t": 102573.76490625004,
      "d": 193.8375312499993,
      "v": 27
    },
    {
      "midi": 52,
      "hit": false,
      "t": 102750.74699999981,
      "d": 345.5364687500114,
      "v": 106
    },
    {
      "midi": 60,
      "hit": false,
      "t": 102750.74700000003,
      "d": 632.0789062499971,
      "v": 118
    },
    {
      "midi": 67,
      "hit": false,
      "t": 102750.74700000003,
      "d": 640.5066249999945,
      "v": 120
    },
    {
      "midi": 64,
      "hit": false,
      "t": 102750.74700000003,
      "d": 699.5006562499912,
      "v": 119
    },
    {
      "midi": 79,
      "hit": false,
      "t": 102961.43996875004,
      "d": 193.8375312499993,
      "v": 27
    },
    {
      "midi": 48,
      "hit": false,
      "t": 103155.27749999982,
      "d": 404.5304999999935,
      "v": 104
    },
    {
      "midi": 79,
      "hit": false,
      "t": 103365.97046875003,
      "d": 252.83156249999593,
      "v": 27
    },
    {
      "midi": 57,
      "hit": false,
      "t": 103559.80799999982,
      "d": 396.10278124999604,
      "v": 107
    },
    {
      "midi": 60,
      "hit": false,
      "t": 103559.80800000002,
      "d": 699.5006562500057,
      "v": 118
    },
    {
      "midi": 57,
      "hit": false,
      "t": 103559.80800000002,
      "d": 707.9283750000031,
      "v": 117
    },
    {
      "midi": 64,
      "hit": false,
      "t": 103559.80800000002,
      "d": 733.21153125001,
      "v": 119
    },
    {
      "midi": 48,
      "hit": false,
      "t": 103964.33849999981,
      "d": 438.2413749999978,
      "v": 104
    },
    {
      "midi": 57,
      "hit": false,
      "t": 104368.8689999998,
      "d": 387.6750624999986,
      "v": 107
    },
    {
      "midi": 57,
      "hit": false,
      "t": 104368.86900000004,
      "d": 598.3680312499928,
      "v": 117
    },
    {
      "midi": 60,
      "hit": false,
      "t": 104368.86900000004,
      "d": 598.3680312499928,
      "v": 118
    },
    {
      "midi": 64,
      "hit": false,
      "t": 104368.86900000004,
      "d": 648.934343749992,
      "v": 119
    },
    {
      "midi": 48,
      "hit": false,
      "t": 104773.3994999998,
      "d": 227.5484062500036,
      "v": 104
    },
    {
      "midi": 79,
      "hit": false,
      "t": 104967.23703125003,
      "d": 84.27718750000349,
      "v": 27
    },
    {
      "midi": 50,
      "hit": false,
      "t": 105177.9299999998,
      "d": 455.09681249999267,
      "v": 105
    },
    {
      "midi": 60,
      "hit": false,
      "t": 105177.93000000002,
      "d": 657.362062500004,
      "v": 118
    },
    {
      "midi": 65,
      "hit": false,
      "t": 105177.93000000002,
      "d": 682.6452187500108,
      "v": 120
    },
    {
      "midi": 57,
      "hit": false,
      "t": 105177.93000000002,
      "d": 691.0729375000083,
      "v": 117
    },
    {
      "midi": 79,
      "hit": false,
      "t": 105177.93000000004,
      "d": 244.4038437499985,
      "v": 27
    },
    {
      "midi": 53,
      "hit": false,
      "t": 105582.4604999998,
      "d": 412.9582187499909,
      "v": 106
    },
    {
      "midi": 79,
      "hit": false,
      "t": 105599.31593750004,
      "d": 84.27718750000349,
      "v": 27
    },
    {
      "midi": 79,
      "hit": false,
      "t": 105810.00890625005,
      "d": 193.8375312499993,
      "v": 27
    },
    {
      "midi": 57,
      "hit": false,
      "t": 105986.99099999979,
      "d": 404.5304999999935,
      "v": 107
    },
    {
      "midi": 65,
      "hit": false,
      "t": 105986.99100000002,
      "d": 665.7897812500014,
      "v": 120
    },
    {
      "midi": 60,
      "hit": false,
      "t": 105986.99100000002,
      "d": 674.2174999999988,
      "v": 118
    },
    {
      "midi": 57,
      "hit": false,
      "t": 105986.99100000002,
      "d": 699.5006562500057,
      "v": 117
    },
    {
      "midi": 79,
      "hit": false,
      "t": 106206.11168750004,
      "d": 193.8375312499993,
      "v": 27
    },
    {
      "midi": 50,
      "hit": false,
      "t": 106391.52149999978,
      "d": 379.24734375000116,
      "v": 105
    },
    {
      "midi": 53,
      "hit": false,
      "t": 106796.05199999979,
      "d": 412.9582187499909,
      "v": 106
    },
    {
      "midi": 60,
      "hit": false,
      "t": 106796.05200000003,
      "d": 674.2174999999988,
      "v": 118
    },
    {
      "midi": 57,
      "hit": false,
      "t": 106796.05200000003,
      "d": 682.6452187499963,
      "v": 117
    },
    {
      "midi": 65,
      "hit": false,
      "t": 106796.05200000003,
      "d": 691.0729374999937,
      "v": 120
    },
    {
      "midi": 79,
      "hit": false,
      "t": 106804.47971875004,
      "d": 261.25928124999336,
      "v": 27
    },
    {
      "midi": 50,
      "hit": false,
      "t": 107200.58249999979,
      "d": 438.2413749999978,
      "v": 105
    },
    {
      "midi": 57,
      "hit": false,
      "t": 107605.11299999978,
      "d": 724.783812499998,
      "v": 107
    },
    {
      "midi": 65,
      "hit": false,
      "t": 107605.11300000001,
      "d": 682.6452187499963,
      "v": 120
    },
    {
      "midi": 57,
      "hit": false,
      "t": 107605.11300000001,
      "d": 707.9283750000031,
      "v": 117
    },
    {
      "midi": 60,
      "hit": false,
      "t": 107605.11300000001,
      "d": 707.9283750000031,
      "v": 118
    },
    {
      "midi": 79,
      "hit": false,
      "t": 108186.62559375002,
      "d": 84.27718750000349,
      "v": 27
    },
    {
      "midi": 48,
      "hit": false,
      "t": 108414.17399999978,
      "d": 404.5304999999935,
      "v": 104
    },
    {
      "midi": 36,
      "hit": false,
      "t": 108414.17399999978,
      "d": 421.38593749998836,
      "v": 101
    },
    {
      "midi": 60,
      "hit": false,
      "t": 108414.17400000001,
      "d": 724.783812499998,
      "v": 118
    },
    {
      "midi": 67,
      "hit": false,
      "t": 108414.17400000001,
      "d": 733.2115312499955,
      "v": 120
    },
    {
      "midi": 64,
      "hit": false,
      "t": 108414.17400000001,
      "d": 750.0669687499903,
      "v": 119
    },
    {
      "midi": 79,
      "hit": false,
      "t": 108422.60171875003,
      "d": 235.97612500000105,
      "v": 27
    },
    {
      "midi": 48,
      "hit": false,
      "t": 108818.70449999977,
      "d": 396.10278124999604,
      "v": 104
    },
    {
      "midi": 52,
      "hit": false,
      "t": 109223.23499999977,
      "d": 421.38593749998836,
      "v": 106
    },
    {
      "midi": 60,
      "hit": false,
      "t": 109223.235,
      "d": 640.5066249999945,
      "v": 118
    },
    {
      "midi": 67,
      "hit": false,
      "t": 109223.235,
      "d": 648.934343749992,
      "v": 120
    },
    {
      "midi": 64,
      "hit": false,
      "t": 109223.235,
      "d": 707.9283749999886,
      "v": 119
    },
    {
      "midi": 48,
      "hit": false,
      "t": 109627.76549999976,
      "d": 438.2413749999978,
      "v": 104
    },
    {
      "midi": 55,
      "hit": false,
      "t": 110032.29599999975,
      "d": 337.1087499999994,
      "v": 107
    },
    {
      "midi": 67,
      "hit": false,
      "t": 110032.29599999999,
      "d": 640.5066249999945,
      "v": 120
    },
    {
      "midi": 60,
      "hit": false,
      "t": 110032.29599999999,
      "d": 665.7897812500014,
      "v": 118
    },
    {
      "midi": 64,
      "hit": false,
      "t": 110032.29599999999,
      "d": 682.6452187499963,
      "v": 119
    },
    {
      "midi": 52,
      "hit": false,
      "t": 110436.82649999975,
      "d": 455.09681249999267,
      "v": 106
    },
    {
      "midi": 55,
      "hit": false,
      "t": 110841.35699999974,
      "d": 396.10278124999604,
      "v": 107
    },
    {
      "midi": 60,
      "hit": false,
      "t": 110841.35699999999,
      "d": 573.0848750000005,
      "v": 118
    },
    {
      "midi": 67,
      "hit": false,
      "t": 110841.35699999999,
      "d": 606.7957500000048,
      "v": 120
    },
    {
      "midi": 64,
      "hit": false,
      "t": 110841.35699999999,
      "d": 691.0729375000083,
      "v": 119
    },
    {
      "midi": 52,
      "hit": false,
      "t": 111245.88749999974,
      "d": 311.8255937500071,
      "v": 106
    },
    {
      "midi": 36,
      "hit": false,
      "t": 111650.41799999974,
      "d": 691.0729374999937,
      "v": 101
    },
    {
      "midi": 60,
      "hit": false,
      "t": 111650.41799999999,
      "d": 615.2234687500022,
      "v": 118
    },
    {
      "midi": 67,
      "hit": false,
      "t": 111650.41799999999,
      "d": 623.6511874999997,
      "v": 120
    },
    {
      "midi": 64,
      "hit": false,
      "t": 111650.41799999999,
      "d": 691.0729374999937,
      "v": 119
    },
    {
      "midi": 48,
      "hit": false,
      "t": 112054.94849999974,
      "d": 404.5304999999935,
      "v": 104
    },
    {
      "midi": 52,
      "hit": false,
      "t": 112459.47899999973,
      "d": 362.3919062500063,
      "v": 106
    },
    {
      "midi": 67,
      "hit": false,
      "t": 112459.47899999998,
      "d": 640.5066249999945,
      "v": 120
    },
    {
      "midi": 60,
      "hit": false,
      "t": 112459.47899999998,
      "d": 648.934343749992,
      "v": 118
    },
    {
      "midi": 64,
      "hit": false,
      "t": 112459.47899999998,
      "d": 699.5006562499912,
      "v": 119
    },
    {
      "midi": 48,
      "hit": false,
      "t": 112864.00949999974,
      "d": 446.6690937499952,
      "v": 104
    },
    {
      "midi": 55,
      "hit": false,
      "t": 113268.53999999973,
      "d": 328.681031250002,
      "v": 107
    },
    {
      "midi": 67,
      "hit": false,
      "t": 113268.53999999996,
      "d": 589.9403124999953,
      "v": 120
    },
    {
      "midi": 60,
      "hit": false,
      "t": 113268.53999999996,
      "d": 606.7957499999902,
      "v": 118
    },
    {
      "midi": 64,
      "hit": false,
      "t": 113268.53999999996,
      "d": 648.934343749992,
      "v": 119
    },
    {
      "midi": 52,
      "hit": false,
      "t": 113673.07049999974,
      "d": 370.8196250000037,
      "v": 106
    },
    {
      "midi": 48,
      "hit": false,
      "t": 114077.60099999975,
      "d": 412.9582187499909,
      "v": 104
    },
    {
      "midi": 67,
      "hit": false,
      "t": 114077.60099999995,
      "d": 564.657156250003,
      "v": 120
    },
    {
      "midi": 60,
      "hit": false,
      "t": 114077.60099999995,
      "d": 581.5125937499979,
      "v": 118
    },
    {
      "midi": 64,
      "hit": false,
      "t": 114077.60099999995,
      "d": 682.6452187499963,
      "v": 119
    },
    {
      "midi": 52,
      "hit": false,
      "t": 114482.13149999974,
      "d": 151.69893749999756,
      "v": 106
    },
    {
      "midi": 60,
      "hit": false,
      "t": 114886.66199999995,
      "d": 665.7897812500014,
      "v": 118
    },
    {
      "midi": 57,
      "hit": false,
      "t": 114886.66199999995,
      "d": 674.2174999999988,
      "v": 117
    },
    {
      "midi": 65,
      "hit": false,
      "t": 114886.66199999995,
      "d": 699.5006562500057,
      "v": 120
    },
    {
      "midi": 57,
      "hit": false,
      "t": 115695.72299999995,
      "d": 682.6452187499963,
      "v": 117
    },
    {
      "midi": 60,
      "hit": false,
      "t": 115695.72299999995,
      "d": 682.6452187499963,
      "v": 118
    },
    {
      "midi": 65,
      "hit": false,
      "t": 115695.72299999995,
      "d": 699.5006562499912,
      "v": 120
    },
    {
      "midi": 65,
      "hit": false,
      "t": 116504.78399999994,
      "d": 606.7957500000048,
      "v": 120
    },
    {
      "midi": 60,
      "hit": false,
      "t": 116504.78399999994,
      "d": 623.6511874999997,
      "v": 118
    },
    {
      "midi": 57,
      "hit": false,
      "t": 116504.78399999994,
      "d": 640.5066249999945,
      "v": 117
    },
    {
      "midi": 60,
      "hit": false,
      "t": 117313.84499999994,
      "d": 598.3680312499928,
      "v": 118
    },
    {
      "midi": 57,
      "hit": false,
      "t": 117313.84499999994,
      "d": 623.6511874999997,
      "v": 117
    },
    {
      "midi": 65,
      "hit": false,
      "t": 117313.84499999994,
      "d": 623.6511874999997,
      "v": 120
    },
    {
      "midi": 59,
      "hit": false,
      "t": 118122.90599999994,
      "d": 716.3560937500006,
      "v": 118
    },
    {
      "midi": 64,
      "hit": false,
      "t": 118122.90599999994,
      "d": 716.3560937500006,
      "v": 119
    },
    {
      "midi": 67,
      "hit": false,
      "t": 118122.90599999994,
      "d": 733.2115312499955,
      "v": 120
    },
    {
      "midi": 59,
      "hit": false,
      "t": 118931.96699999995,
      "d": 699.5006562500057,
      "v": 118
    },
    {
      "midi": 64,
      "hit": false,
      "t": 118931.96699999995,
      "d": 707.9283750000031,
      "v": 119
    },
    {
      "midi": 67,
      "hit": false,
      "t": 118931.96699999995,
      "d": 707.9283750000031,
      "v": 120
    },
    {
      "midi": 59,
      "hit": false,
      "t": 119741.02799999995,
      "d": 615.2234687500022,
      "v": 118
    },
    {
      "midi": 67,
      "hit": false,
      "t": 119741.02799999995,
      "d": 648.9343437500065,
      "v": 120
    },
    {
      "midi": 64,
      "hit": false,
      "t": 119741.02799999995,
      "d": 665.7897812500014,
      "v": 119
    },
    {
      "midi": 59,
      "hit": false,
      "t": 120550.08899999995,
      "d": 598.3680312499928,
      "v": 118
    },
    {
      "midi": 67,
      "hit": false,
      "t": 120550.08899999995,
      "d": 615.2234687499877,
      "v": 120
    },
    {
      "midi": 64,
      "hit": false,
      "t": 120550.08899999995,
      "d": 691.0729374999937,
      "v": 119
    },
    {
      "midi": 65,
      "hit": false,
      "t": 121359.14999999994,
      "d": 699.5006562500057,
      "v": 120
    },
    {
      "midi": 57,
      "hit": false,
      "t": 121359.14999999994,
      "d": 716.3560937500006,
      "v": 117
    },
    {
      "midi": 60,
      "hit": false,
      "t": 121359.14999999994,
      "d": 716.3560937500006,
      "v": 118
    },
    {
      "midi": 60,
      "hit": false,
      "t": 122168.21099999994,
      "d": 691.0729374999937,
      "v": 118
    },
    {
      "midi": 57,
      "hit": false,
      "t": 122168.21099999994,
      "d": 707.9283749999886,
      "v": 117
    },
    {
      "midi": 65,
      "hit": false,
      "t": 122168.21099999994,
      "d": 707.9283749999886,
      "v": 120
    },
    {
      "midi": 60,
      "hit": false,
      "t": 122977.27199999992,
      "d": 665.7897812500014,
      "v": 118
    },
    {
      "midi": 57,
      "hit": false,
      "t": 122977.27199999992,
      "d": 682.6452187499963,
      "v": 117
    },
    {
      "midi": 65,
      "hit": false,
      "t": 122977.27199999992,
      "d": 682.6452187499963,
      "v": 120
    },
    {
      "midi": 60,
      "hit": false,
      "t": 123786.33299999993,
      "d": 606.7957500000048,
      "v": 118
    },
    {
      "midi": 57,
      "hit": false,
      "t": 123786.33299999993,
      "d": 640.5066250000091,
      "v": 117
    },
    {
      "midi": 65,
      "hit": false,
      "t": 123786.33299999993,
      "d": 674.2175000000134,
      "v": 120
    },
    {
      "midi": 67,
      "hit": false,
      "t": 124595.39399999994,
      "d": 623.6511874999997,
      "v": 120
    },
    {
      "midi": 60,
      "hit": false,
      "t": 124595.39399999994,
      "d": 640.5066249999945,
      "v": 118
    },
    {
      "midi": 64,
      "hit": false,
      "t": 124595.39399999994,
      "d": 648.934343749992,
      "v": 119
    },
    {
      "midi": 60,
      "hit": false,
      "t": 125404.45499999993,
      "d": 615.2234687500022,
      "v": 118
    },
    {
      "midi": 67,
      "hit": false,
      "t": 125404.45499999993,
      "d": 632.0789062499971,
      "v": 120
    },
    {
      "midi": 64,
      "hit": false,
      "t": 125404.45499999993,
      "d": 665.7897812500014,
      "v": 119
    },
    {
      "midi": 60,
      "hit": false,
      "t": 126213.51599999993,
      "d": 632.0789062499971,
      "v": 118
    },
    {
      "midi": 67,
      "hit": false,
      "t": 126213.51599999993,
      "d": 640.5066249999945,
      "v": 120
    },
    {
      "midi": 64,
      "hit": false,
      "t": 126213.51599999993,
      "d": 674.2174999999988,
      "v": 119
    },
    {
      "midi": 60,
      "hit": false,
      "t": 127022.57699999993,
      "d": 598.3680312499928,
      "v": 118
    },
    {
      "midi": 67,
      "hit": false,
      "t": 127022.57699999993,
      "d": 606.7957499999902,
      "v": 120
    },
    {
      "midi": 64,
      "hit": false,
      "t": 127022.57699999993,
      "d": 657.3620624999894,
      "v": 119
    },
    {
      "midi": 60,
      "hit": false,
      "t": 127831.63799999992,
      "d": 716.3560937500006,
      "v": 118
    },
    {
      "midi": 65,
      "hit": false,
      "t": 127831.63799999992,
      "d": 716.3560937500006,
      "v": 120
    },
    {
      "midi": 57,
      "hit": false,
      "t": 127831.63799999992,
      "d": 724.783812499998,
      "v": 117
    },
    {
      "midi": 55,
      "hit": false,
      "t": 128640.69899999975,
      "d": 1575.9834062500013,
      "v": 107
    },
    {
      "midi": 60,
      "hit": false,
      "t": 128640.69899999992,
      "d": 665.7897812500014,
      "v": 118
    },
    {
      "midi": 57,
      "hit": false,
      "t": 128640.69899999992,
      "d": 691.0729375000083,
      "v": 117
    },
    {
      "midi": 65,
      "hit": false,
      "t": 128640.69899999992,
      "d": 699.5006562500057,
      "v": 120
    },
    {
      "midi": 50,
      "hit": false,
      "t": 128649.12671874974,
      "d": 699.5006562500057,
      "v": 105
    },
    {
      "midi": 57,
      "hit": false,
      "t": 129449.75999999992,
      "d": 665.7897812500014,
      "v": 117
    },
    {
      "midi": 60,
      "hit": false,
      "t": 129449.75999999992,
      "d": 665.7897812500014,
      "v": 118
    },
    {
      "midi": 65,
      "hit": false,
      "t": 129449.75999999992,
      "d": 665.7897812500014,
      "v": 120
    },
    {
      "midi": 50,
      "hit": false,
      "t": 129458.18771874974,
      "d": 716.3560937500006,
      "v": 105
    },
    {
      "midi": 69,
      "hit": false,
      "t": 130225.11012499974,
      "d": 691.0729374999937,
      "v": 111
    },
    {
      "midi": 62,
      "hit": false,
      "t": 130225.11012499974,
      "d": 960.7599374999991,
      "v": 109
    },
    {
      "midi": 65,
      "hit": false,
      "t": 130233.53784374974,
      "d": 733.2115312499955,
      "v": 110
    },
    {
      "midi": 60,
      "hit": false,
      "t": 130258.82099999992,
      "d": 632.0789062499971,
      "v": 118
    },
    {
      "midi": 65,
      "hit": false,
      "t": 130258.82099999992,
      "d": 648.934343749992,
      "v": 120
    },
    {
      "midi": 57,
      "hit": false,
      "t": 130258.82099999992,
      "d": 657.3620624999894,
      "v": 117
    },
    {
      "midi": 65,
      "hit": false,
      "t": 131051.02656249974,
      "d": 160.126656249995,
      "v": 110
    },
    {
      "midi": 69,
      "hit": false,
      "t": 131051.02656249974,
      "d": 185.4098124999873,
      "v": 111
    },
    {
      "midi": 60,
      "hit": false,
      "t": 131067.88199999991,
      "d": 682.6452187500108,
      "v": 118
    },
    {
      "midi": 65,
      "hit": false,
      "t": 131067.88199999991,
      "d": 691.0729375000083,
      "v": 120
    },
    {
      "midi": 57,
      "hit": false,
      "t": 131067.88199999991,
      "d": 716.3560937500006,
      "v": 117
    },
    {
      "midi": 69,
      "hit": false,
      "t": 131851.65984374972,
      "d": 632.0789062500116,
      "v": 111
    },
    {
      "midi": 72,
      "hit": false,
      "t": 131851.65984374972,
      "d": 648.9343437500065,
      "v": 112
    },
    {
      "midi": 65,
      "hit": false,
      "t": 131851.65984374972,
      "d": 699.5006562500203,
      "v": 110
    },
    {
      "midi": 60,
      "hit": false,
      "t": 131876.9429999999,
      "d": 665.7897812500014,
      "v": 118
    },
    {
      "midi": 65,
      "hit": false,
      "t": 131876.9429999999,
      "d": 665.7897812500014,
      "v": 120
    },
    {
      "midi": 57,
      "hit": false,
      "t": 131876.9429999999,
      "d": 691.0729374999937,
      "v": 117
    },
    {
      "midi": 69,
      "hit": false,
      "t": 132686.00399999972,
      "d": 809.060999999987,
      "v": 111
    },
    {
      "midi": 60,
      "hit": false,
      "t": 132686.0039999999,
      "d": 674.2174999999988,
      "v": 118
    },
    {
      "midi": 65,
      "hit": false,
      "t": 132686.0039999999,
      "d": 707.9283749999886,
      "v": 120
    },
    {
      "midi": 57,
      "hit": false,
      "t": 132686.0039999999,
      "d": 724.7838124999835,
      "v": 117
    },
    {
      "midi": 65,
      "hit": false,
      "t": 132694.43171874972,
      "d": 143.27121874998556,
      "v": 110
    },
    {
      "midi": 65,
      "hit": false,
      "t": 133495.0649999997,
      "d": 632.0789062500116,
      "v": 110
    },
    {
      "midi": 57,
      "hit": false,
      "t": 133495.0649999999,
      "d": 733.21153125001,
      "v": 117
    },
    {
      "midi": 60,
      "hit": false,
      "t": 133495.0649999999,
      "d": 733.21153125001,
      "v": 118
    },
    {
      "midi": 65,
      "hit": false,
      "t": 133495.0649999999,
      "d": 733.21153125001,
      "v": 120
    },
    {
      "midi": 67,
      "hit": false,
      "t": 134304.1259999999,
      "d": 724.7838125000126,
      "v": 120
    },
    {
      "midi": 59,
      "hit": false,
      "t": 134304.1259999999,
      "d": 733.21153125001,
      "v": 118
    },
    {
      "midi": 64,
      "hit": false,
      "t": 134304.1259999999,
      "d": 758.4946875000023,
      "v": 119
    },
    {
      "midi": 79,
      "hit": false,
      "t": 134329.40915625004,
      "d": 278.1147187500028,
      "v": 27
    },
    {
      "midi": 79,
      "hit": false,
      "t": 134750.79509375003,
      "d": 84.27718750000349,
      "v": 27
    },
    {
      "midi": 79,
      "hit": false,
      "t": 134927.77718750003,
      "d": 252.83156250001048,
      "v": 27
    },
    {
      "midi": 67,
      "hit": false,
      "t": 135113.18699999992,
      "d": 598.3680312499928,
      "v": 120
    },
    {
      "midi": 59,
      "hit": false,
      "t": 135113.18699999992,
      "d": 615.2234687499877,
      "v": 118
    },
    {
      "midi": 64,
      "hit": false,
      "t": 135113.18699999992,
      "d": 682.6452187499963,
      "v": 119
    },
    {
      "midi": 79,
      "hit": false,
      "t": 135357.59084375005,
      "d": 92.70490625000093,
      "v": 27
    },
    {
      "midi": 79,
      "hit": false,
      "t": 135585.13925000004,
      "d": 261.2592812500079,
      "v": 27
    },
    {
      "midi": 65,
      "hit": false,
      "t": 135922.2479999999,
      "d": 733.21153125001,
      "v": 120
    },
    {
      "midi": 60,
      "hit": false,
      "t": 135922.2479999999,
      "d": 750.0669687500049,
      "v": 118
    },
    {
      "midi": 57,
      "hit": false,
      "t": 135922.2479999999,
      "d": 758.4946875000023,
      "v": 117
    },
    {
      "midi": 57,
      "hit": false,
      "t": 136731.30899999992,
      "d": 665.7897812500014,
      "v": 117
    },
    {
      "midi": 60,
      "hit": false,
      "t": 136731.30899999992,
      "d": 665.7897812500014,
      "v": 118
    },
    {
      "midi": 65,
      "hit": false,
      "t": 136731.30899999992,
      "d": 674.2174999999988,
      "v": 120
    },
    {
      "midi": 60,
      "hit": false,
      "t": 137540.3699999999,
      "d": 682.6452187499963,
      "v": 118
    },
    {
      "midi": 65,
      "hit": false,
      "t": 137540.3699999999,
      "d": 699.5006562499912,
      "v": 120
    },
    {
      "midi": 57,
      "hit": false,
      "t": 137540.3699999999,
      "d": 707.9283749999886,
      "v": 117
    },
    {
      "midi": 65,
      "hit": false,
      "t": 138349.4309999999,
      "d": 640.5066250000091,
      "v": 120
    },
    {
      "midi": 60,
      "hit": false,
      "t": 138349.4309999999,
      "d": 674.2174999999988,
      "v": 118
    },
    {
      "midi": 57,
      "hit": false,
      "t": 138349.4309999999,
      "d": 699.5006562499912,
      "v": 117
    },
    {
      "midi": 79,
      "hit": false,
      "t": 138349.43100000004,
      "d": 101.13262499999837,
      "v": 27
    },
    {
      "midi": 79,
      "hit": false,
      "t": 138551.69625000004,
      "d": 101.13262499999837,
      "v": 27
    },
    {
      "midi": 79,
      "hit": false,
      "t": 138753.96150000003,
      "d": 84.27718750000349,
      "v": 27
    },
    {
      "midi": 79,
      "hit": false,
      "t": 138973.08218750003,
      "d": 210.69296874999418,
      "v": 27
    },
    {
      "midi": 62,
      "hit": false,
      "t": 139158.49199999988,
      "d": 699.5006562499912,
      "v": 119
    },
    {
      "midi": 67,
      "hit": false,
      "t": 139158.49199999988,
      "d": 733.2115312499809,
      "v": 120
    },
    {
      "midi": 59,
      "hit": false,
      "t": 139158.49199999988,
      "d": 741.6392499999783,
      "v": 118
    },
    {
      "midi": 79,
      "hit": false,
      "t": 139596.733375,
      "d": 92.70490625000093,
      "v": 27
    },
    {
      "midi": 79,
      "hit": false,
      "t": 139798.998625,
      "d": 168.55437500000698,
      "v": 27
    },
    {
      "midi": 62,
      "hit": false,
      "t": 139967.55299999987,
      "d": 623.6511875000142,
      "v": 119
    },
    {
      "midi": 59,
      "hit": false,
      "t": 139967.55299999987,
      "d": 665.7897812500014,
      "v": 118
    },
    {
      "midi": 67,
      "hit": false,
      "t": 139967.55299999987,
      "d": 682.6452187499963,
      "v": 120
    },
    {
      "midi": 79,
      "hit": false,
      "t": 140161.39053125,
      "d": 219.12068749999162,
      "v": 27
    },
    {
      "midi": 59,
      "hit": false,
      "t": 140776.61399999986,
      "d": 682.6452187499963,
      "v": 118
    },
    {
      "midi": 67,
      "hit": false,
      "t": 140776.61399999986,
      "d": 699.5006562499912,
      "v": 120
    },
    {
      "midi": 64,
      "hit": false,
      "t": 140776.61399999986,
      "d": 733.2115312499809,
      "v": 119
    },
    {
      "midi": 79,
      "hit": false,
      "t": 140776.614,
      "d": 244.40384375001304,
      "v": 27
    },
    {
      "midi": 79,
      "hit": false,
      "t": 141189.57221875002,
      "d": 84.27718750000349,
      "v": 27
    },
    {
      "midi": 79,
      "hit": false,
      "t": 141391.83746875002,
      "d": 286.54243750000023,
      "v": 27
    },
    {
      "midi": 67,
      "hit": false,
      "t": 141585.67499999984,
      "d": 640.5066250000091,
      "v": 120
    },
    {
      "midi": 59,
      "hit": false,
      "t": 141585.67499999984,
      "d": 674.2174999999988,
      "v": 118
    },
    {
      "midi": 64,
      "hit": false,
      "t": 141585.67499999984,
      "d": 716.356093749986,
      "v": 119
    },
    {
      "midi": 79,
      "hit": false,
      "t": 141981.77778125,
      "d": 101.13262499999837,
      "v": 27
    },
    {
      "midi": 79,
      "hit": false,
      "t": 142184.04303125,
      "d": 345.5364687500114,
      "v": 27
    },
    {
      "midi": 60,
      "hit": false,
      "t": 142394.73599999983,
      "d": 674.2174999999988,
      "v": 118
    },
    {
      "midi": 67,
      "hit": false,
      "t": 142394.73599999983,
      "d": 691.0729374999937,
      "v": 120
    },
    {
      "midi": 64,
      "hit": false,
      "t": 142394.73599999983,
      "d": 716.356093749986,
      "v": 119
    },
    {
      "midi": 67,
      "hit": false,
      "t": 143203.79699999982,
      "d": 665.7897812500014,
      "v": 120
    },
    {
      "midi": 60,
      "hit": false,
      "t": 143203.79699999982,
      "d": 691.0729374999937,
      "v": 118
    },
    {
      "midi": 64,
      "hit": false,
      "t": 143203.79699999982,
      "d": 724.7838124999835,
      "v": 119
    },
    {
      "midi": 60,
      "hit": false,
      "t": 144012.8579999998,
      "d": 665.7897812500014,
      "v": 118
    },
    {
      "midi": 57,
      "hit": false,
      "t": 144012.8579999998,
      "d": 674.2174999999988,
      "v": 117
    },
    {
      "midi": 65,
      "hit": false,
      "t": 144012.8579999998,
      "d": 674.2174999999988,
      "v": 120
    },
    {
      "midi": 79,
      "hit": false,
      "t": 144611.22603125003,
      "d": 101.13262499999837,
      "v": 27
    },
    {
      "midi": 79,
      "hit": false,
      "t": 144813.49128125003,
      "d": 117.98806249999325,
      "v": 27
    },
    {
      "midi": 57,
      "hit": false,
      "t": 144821.9189999998,
      "d": 682.6452187499963,
      "v": 117
    },
    {
      "midi": 60,
      "hit": false,
      "t": 144821.9189999998,
      "d": 691.0729374999937,
      "v": 118
    },
    {
      "midi": 65,
      "hit": false,
      "t": 144821.9189999998,
      "d": 691.0729374999937,
      "v": 120
    },
    {
      "midi": 79,
      "hit": false,
      "t": 145015.75653125002,
      "d": 109.56034374999581,
      "v": 27
    },
    {
      "midi": 79,
      "hit": false,
      "t": 145243.3049375,
      "d": 92.70490625000093,
      "v": 27
    },
    {
      "midi": 79,
      "hit": false,
      "t": 145437.14246875,
      "d": 151.6989375000121,
      "v": 27
    },
    {
      "midi": 60,
      "hit": false,
      "t": 145630.97999999978,
      "d": 573.0848750000005,
      "v": 118
    },
    {
      "midi": 57,
      "hit": false,
      "t": 145630.97999999978,
      "d": 598.3680312499928,
      "v": 117
    },
    {
      "midi": 65,
      "hit": false,
      "t": 145630.97999999978,
      "d": 598.3680312499928,
      "v": 120
    },
    {
      "midi": 79,
      "hit": false,
      "t": 146027.08278125004,
      "d": 92.70490625000093,
      "v": 27
    },
    {
      "midi": 79,
      "hit": false,
      "t": 146237.77575000003,
      "d": 244.40384375001304,
      "v": 27
    },
    {
      "midi": 60,
      "hit": false,
      "t": 146440.04099999976,
      "d": 615.2234687499877,
      "v": 118
    },
    {
      "midi": 57,
      "hit": false,
      "t": 146440.04099999976,
      "d": 623.6511874999851,
      "v": 117
    },
    {
      "midi": 65,
      "hit": false,
      "t": 146440.04099999976,
      "d": 632.0789062499825,
      "v": 120
    },
    {
      "midi": 79,
      "hit": false,
      "t": 146895.13781250003,
      "d": 101.13262499999837,
      "v": 27
    },
    {
      "midi": 79,
      "hit": false,
      "t": 147088.97534375003,
      "d": 294.9701562499977,
      "v": 27
    },
    {
      "midi": 59,
      "hit": false,
      "t": 147249.10199999975,
      "d": 640.5066250000091,
      "v": 118
    },
    {
      "midi": 67,
      "hit": false,
      "t": 147249.10199999975,
      "d": 657.362062500004,
      "v": 120
    },
    {
      "midi": 64,
      "hit": false,
      "t": 147249.10199999975,
      "d": 674.2174999999988,
      "v": 119
    },
    {
      "midi": 79,
      "hit": false,
      "t": 147662.06021875003,
      "d": 92.70490625000093,
      "v": 27
    },
    {
      "midi": 79,
      "hit": false,
      "t": 147872.75318750003,
      "d": 269.68700000000536,
      "v": 27
    },
    {
      "midi": 67,
      "hit": false,
      "t": 148058.16299999974,
      "d": 589.9403124999953,
      "v": 120
    },
    {
      "midi": 59,
      "hit": false,
      "t": 148058.16299999974,
      "d": 657.362062500004,
      "v": 118
    },
    {
      "midi": 64,
      "hit": false,
      "t": 148058.16299999974,
      "d": 741.6392500000075,
      "v": 119
    },
    {
      "midi": 79,
      "hit": false,
      "t": 148285.71140625002,
      "d": 92.70490625000093,
      "v": 27
    },
    {
      "midi": 79,
      "hit": false,
      "t": 148496.404375,
      "d": 235.9761249999865,
      "v": 27
    },
    {
      "midi": 60,
      "hit": false,
      "t": 148867.22399999975,
      "d": 707.9283749999886,
      "v": 118
    },
    {
      "midi": 57,
      "hit": false,
      "t": 148867.22399999975,
      "d": 733.2115312499809,
      "v": 117
    },
    {
      "midi": 65,
      "hit": false,
      "t": 148867.22399999975,
      "d": 733.2115312499809,
      "v": 120
    },
    {
      "midi": 60,
      "hit": false,
      "t": 149676.28499999974,
      "d": 682.6452187499963,
      "v": 118
    },
    {
      "midi": 57,
      "hit": false,
      "t": 149676.28499999974,
      "d": 699.5006562499912,
      "v": 117
    },
    {
      "midi": 65,
      "hit": false,
      "t": 149676.28499999974,
      "d": 707.9283749999886,
      "v": 120
    },
    {
      "midi": 79,
      "hit": false,
      "t": 150080.8155,
      "d": 101.13262499999837,
      "v": 27
    },
    {
      "midi": 79,
      "hit": false,
      "t": 150291.50846875,
      "d": 84.27718750000349,
      "v": 27
    },
    {
      "midi": 79,
      "hit": false,
      "t": 150476.91828125,
      "d": 92.70490625000093,
      "v": 27
    },
    {
      "midi": 59,
      "hit": false,
      "t": 150485.34599999973,
      "d": 716.356093749986,
      "v": 118
    },
    {
      "midi": 67,
      "hit": false,
      "t": 150485.34599999973,
      "d": 724.7838124999835,
      "v": 120
    },
    {
      "midi": 64,
      "hit": false,
      "t": 150485.34599999973,
      "d": 733.2115312499809,
      "v": 119
    },
    {
      "midi": 79,
      "hit": false,
      "t": 150679.18353125,
      "d": 84.27718750000349,
      "v": 27
    },
    {
      "midi": 79,
      "hit": false,
      "t": 150881.44878125,
      "d": 160.12665625000955,
      "v": 27
    },
    {
      "midi": 67,
      "hit": false,
      "t": 151294.40699999972,
      "d": 632.0789062500116,
      "v": 120
    },
    {
      "midi": 59,
      "hit": false,
      "t": 151294.40699999972,
      "d": 674.2174999999988,
      "v": 118
    },
    {
      "midi": 64,
      "hit": false,
      "t": 151294.40699999972,
      "d": 716.356093749986,
      "v": 119
    },
    {
      "midi": 79,
      "hit": false,
      "t": 151302.83471875,
      "d": 92.70490625000093,
      "v": 27
    },
    {
      "midi": 79,
      "hit": false,
      "t": 151513.5276875,
      "d": 160.12665625000955,
      "v": 27
    },
    {
      "midi": 79,
      "hit": false,
      "t": 151918.05818750002,
      "d": 210.69296874999418,
      "v": 27
    },
    {
      "midi": 57,
      "hit": false,
      "t": 152103.4679999997,
      "d": 716.356093749986,
      "v": 117
    },
    {
      "midi": 60,
      "hit": false,
      "t": 152103.4679999997,
      "d": 716.356093749986,
      "v": 118
    },
    {
      "midi": 65,
      "hit": false,
      "t": 152103.4679999997,
      "d": 716.356093749986,
      "v": 120
    },
    {
      "midi": 57,
      "hit": false,
      "t": 152912.5289999997,
      "d": 564.657156250003,
      "v": 117
    },
    {
      "midi": 60,
      "hit": false,
      "t": 152912.5289999997,
      "d": 564.657156250003,
      "v": 118
    },
    {
      "midi": 65,
      "hit": false,
      "t": 152912.5289999997,
      "d": 640.5066250000091,
      "v": 120
    },
    {
      "midi": 79,
      "hit": false,
      "t": 153510.89703125,
      "d": 92.70490625000093,
      "v": 27
    },
    {
      "midi": 59,
      "hit": false,
      "t": 153721.5899999997,
      "d": 657.362062500004,
      "v": 118
    },
    {
      "midi": 67,
      "hit": false,
      "t": 153721.5899999997,
      "d": 657.362062500004,
      "v": 120
    },
    {
      "midi": 64,
      "hit": false,
      "t": 153721.5899999997,
      "d": 674.2174999999988,
      "v": 119
    },
    {
      "midi": 79,
      "hit": false,
      "t": 153730.01771875,
      "d": 193.8375312499993,
      "v": 27
    },
    {
      "midi": 79,
      "hit": false,
      "t": 154109.2650625,
      "d": 92.70490625000093,
      "v": 27
    },
    {
      "midi": 79,
      "hit": false,
      "t": 154319.95803125,
      "d": 185.40981250000186,
      "v": 27
    },
    {
      "midi": 59,
      "hit": false,
      "t": 154530.6509999997,
      "d": 665.7897812500014,
      "v": 118
    },
    {
      "midi": 67,
      "hit": false,
      "t": 154530.6509999997,
      "d": 691.0729374999937,
      "v": 120
    },
    {
      "midi": 64,
      "hit": false,
      "t": 154530.6509999997,
      "d": 733.2115312499809,
      "v": 119
    },
    {
      "midi": 79,
      "hit": false,
      "t": 154918.32606249998,
      "d": 84.27718750000349,
      "v": 27
    },
    {
      "midi": 79,
      "hit": false,
      "t": 155129.01903124998,
      "d": 151.6989375000121,
      "v": 27
    },
    {
      "midi": 59,
      "hit": false,
      "t": 155339.71199999968,
      "d": 665.7897812500014,
      "v": 118
    },
    {
      "midi": 67,
      "hit": false,
      "t": 155339.71199999968,
      "d": 682.6452187499963,
      "v": 120
    },
    {
      "midi": 64,
      "hit": false,
      "t": 155339.71199999968,
      "d": 707.9283749999886,
      "v": 119
    },
    {
      "midi": 67,
      "hit": false,
      "t": 156148.77299999967,
      "d": 606.7957499999902,
      "v": 120
    },
    {
      "midi": 59,
      "hit": false,
      "t": 156148.77299999967,
      "d": 615.2234687499877,
      "v": 118
    },
    {
      "midi": 64,
      "hit": false,
      "t": 156148.77299999967,
      "d": 691.0729374999937,
      "v": 119
    },
    {
      "midi": 79,
      "hit": false,
      "t": 156334.1828125,
      "d": 92.70490625000093,
      "v": 27
    },
    {
      "midi": 79,
      "hit": false,
      "t": 156544.87578124998,
      "d": 84.27718750000349,
      "v": 27
    },
    {
      "midi": 79,
      "hit": false,
      "t": 156755.56874999998,
      "d": 286.54243750000023,
      "v": 27
    },
    {
      "midi": 57,
      "hit": false,
      "t": 156957.83399999965,
      "d": 691.0729374999937,
      "v": 117
    },
    {
      "midi": 65,
      "hit": false,
      "t": 156957.83399999965,
      "d": 691.0729374999937,
      "v": 120
    },
    {
      "midi": 60,
      "hit": false,
      "t": 156957.83399999965,
      "d": 707.9283749999886,
      "v": 118
    },
    {
      "midi": 50,
      "hit": false,
      "t": 157362.36449999973,
      "d": 455.0968125000072,
      "v": 105
    },
    {
      "midi": 65,
      "hit": false,
      "t": 157766.89499999964,
      "d": 707.9283749999886,
      "v": 120
    },
    {
      "midi": 57,
      "hit": false,
      "t": 157766.89499999964,
      "d": 716.356093749986,
      "v": 117
    },
    {
      "midi": 60,
      "hit": false,
      "t": 157766.89499999964,
      "d": 716.356093749986,
      "v": 118
    },
    {
      "midi": 53,
      "hit": false,
      "t": 157766.89499999973,
      "d": 412.95821875002,
      "v": 106
    },
    {
      "midi": 50,
      "hit": false,
      "t": 158171.42549999975,
      "d": 421.38593749998836,
      "v": 105
    },
    {
      "midi": 65,
      "hit": false,
      "t": 158575.95599999963,
      "d": 665.7897812500014,
      "v": 120
    },
    {
      "midi": 60,
      "hit": false,
      "t": 158575.95599999963,
      "d": 674.2174999999988,
      "v": 118
    },
    {
      "midi": 57,
      "hit": false,
      "t": 158575.95599999963,
      "d": 691.0729374999937,
      "v": 117
    },
    {
      "midi": 57,
      "hit": false,
      "t": 158575.95599999974,
      "d": 421.38593749998836,
      "v": 107
    },
    {
      "midi": 79,
      "hit": false,
      "t": 158601.23915624997,
      "d": 320.25331249999,
      "v": 27
    },
    {
      "midi": 50,
      "hit": false,
      "t": 158980.48649999974,
      "d": 842.7718749999767,
      "v": 105
    },
    {
      "midi": 57,
      "hit": false,
      "t": 159385.0169999996,
      "d": 699.5006562499912,
      "v": 117
    },
    {
      "midi": 60,
      "hit": false,
      "t": 159385.0169999996,
      "d": 707.9283749999886,
      "v": 118
    },
    {
      "midi": 65,
      "hit": false,
      "t": 159385.0169999996,
      "d": 707.9283749999886,
      "v": 120
    },
    {
      "midi": 60,
      "hit": false,
      "t": 159385.01699999973,
      "d": 396.10278124999604,
      "v": 108
    },
    {
      "midi": 57,
      "hit": false,
      "t": 159789.54749999972,
      "d": 463.52453125000466,
      "v": 107
    },
    {
      "midi": 62,
      "hit": false,
      "t": 160194.07799999972,
      "d": 825.9164375000109,
      "v": 109
    },
    {
      "midi": 50,
      "hit": false,
      "t": 160598.60849999974,
      "d": 379.24734375000116,
      "v": 105
    },
    {
      "midi": 57,
      "hit": false,
      "t": 161003.13899999973,
      "d": 421.38593749998836,
      "v": 107
    },
    {
      "midi": 50,
      "hit": false,
      "t": 161407.66949999973,
      "d": 438.24137499998324,
      "v": 105
    },
    {
      "midi": 79,
      "hit": false,
      "t": 161618.36246874995,
      "d": 84.27718750000349,
      "v": 27
    },
    {
      "midi": 67,
      "hit": false,
      "t": 161812.1999999996,
      "d": 699.5006562499912,
      "v": 120
    },
    {
      "midi": 60,
      "hit": false,
      "t": 161812.1999999996,
      "d": 707.9283749999886,
      "v": 118
    },
    {
      "midi": 64,
      "hit": false,
      "t": 161812.1999999996,
      "d": 758.4946875000023,
      "v": 119
    },
    {
      "midi": 48,
      "hit": false,
      "t": 161812.19999999972,
      "d": 809.060999999987,
      "v": 104
    },
    {
      "midi": 55,
      "hit": false,
      "t": 161812.19999999972,
      "d": 809.060999999987,
      "v": 107
    },
    {
      "midi": 79,
      "hit": false,
      "t": 161829.05543749995,
      "d": 227.54840624998906,
      "v": 27
    },
    {
      "midi": 52,
      "hit": false,
      "t": 162216.7304999997,
      "d": 387.6750624999986,
      "v": 106
    },
    {
      "midi": 79,
      "hit": false,
      "t": 162242.01365624994,
      "d": 84.27718750000349,
      "v": 27
    },
    {
      "midi": 79,
      "hit": false,
      "t": 162444.27890624994,
      "d": 210.69296874999418,
      "v": 27
    },
    {
      "midi": 60,
      "hit": false,
      "t": 162621.26099999962,
      "d": 615.2234687499877,
      "v": 118
    },
    {
      "midi": 64,
      "hit": false,
      "t": 162621.26099999962,
      "d": 682.6452187499963,
      "v": 119
    },
    {
      "midi": 67,
      "hit": false,
      "t": 162621.26099999962,
      "d": 691.0729374999937,
      "v": 120
    },
    {
      "midi": 55,
      "hit": false,
      "t": 162621.2609999997,
      "d": 505.66312499999185,
      "v": 107
    },
    {
      "midi": 48,
      "hit": false,
      "t": 163025.7914999997,
      "d": 396.10278124999604,
      "v": 104
    },
    {
      "midi": 79,
      "hit": false,
      "t": 163034.21921874993,
      "d": 101.13262499999837,
      "v": 27
    },
    {
      "midi": 79,
      "hit": false,
      "t": 163236.48446874993,
      "d": 244.40384375001304,
      "v": 27
    },
    {
      "midi": 60,
      "hit": false,
      "t": 163430.3219999996,
      "d": 716.356093749986,
      "v": 118
    },
    {
      "midi": 56,
      "hit": false,
      "t": 163430.3219999996,
      "d": 741.6392499999783,
      "v": 117
    },
    {
      "midi": 64,
      "hit": false,
      "t": 163430.3219999996,
      "d": 750.0669687499758,
      "v": 119
    },
    {
      "midi": 56,
      "hit": false,
      "t": 163430.3219999997,
      "d": 404.5304999999935,
      "v": 107
    },
    {
      "midi": 48,
      "hit": false,
      "t": 163834.8524999997,
      "d": 455.0968125000072,
      "v": 104
    },
    {
      "midi": 56,
      "hit": false,
      "t": 164239.3829999996,
      "d": 674.2174999999988,
      "v": 117
    },
    {
      "midi": 60,
      "hit": false,
      "t": 164239.3829999996,
      "d": 674.2174999999988,
      "v": 118
    },
    {
      "midi": 64,
      "hit": false,
      "t": 164239.3829999996,
      "d": 724.7838125000126,
      "v": 119
    },
    {
      "midi": 56,
      "hit": false,
      "t": 164239.38299999968,
      "d": 396.10278125002515,
      "v": 107
    },
    {
      "midi": 48,
      "hit": false,
      "t": 164643.9134999997,
      "d": 455.0968125000072,
      "v": 104
    },
    {
      "midi": 79,
      "hit": false,
      "t": 164660.76893749993,
      "d": 92.70490625000093,
      "v": 27
    },
    {
      "midi": 79,
      "hit": false,
      "t": 164854.60646874993,
      "d": 84.27718750000349,
      "v": 27
    },
    {
      "midi": 60,
      "hit": false,
      "t": 165048.4439999996,
      "d": 648.9343437500065,
      "v": 118
    },
    {
      "midi": 57,
      "hit": false,
      "t": 165048.4439999996,
      "d": 674.2174999999988,
      "v": 117
    },
    {
      "midi": 64,
      "hit": false,
      "t": 165048.4439999996,
      "d": 707.9283749999886,
      "v": 119
    },
    {
      "midi": 57,
      "hit": false,
      "t": 165048.4439999997,
      "d": 396.10278125002515,
      "v": 107
    },
    {
      "midi": 79,
      "hit": false,
      "t": 165056.87171874993,
      "d": 252.83156250001048,
      "v": 27
    },
    {
      "midi": 48,
      "hit": false,
      "t": 165452.97449999972,
      "d": 429.8136562499858,
      "v": 104
    },
    {
      "midi": 79,
      "hit": false,
      "t": 165520.39624999993,
      "d": 75.84946875000605,
      "v": 27
    },
    {
      "midi": 79,
      "hit": false,
      "t": 165705.80606249993,
      "d": 219.12068749999162,
      "v": 27
    },
    {
      "midi": 60,
      "hit": false,
      "t": 165857.5049999996,
      "d": 640.5066250000091,
      "v": 118
    },
    {
      "midi": 57,
      "hit": false,
      "t": 165857.5049999996,
      "d": 648.9343437500065,
      "v": 117
    },
    {
      "midi": 64,
      "hit": false,
      "t": 165857.5049999996,
      "d": 682.6452187499963,
      "v": 119
    },
    {
      "midi": 57,
      "hit": false,
      "t": 165857.5049999997,
      "d": 421.38593749998836,
      "v": 107
    },
    {
      "midi": 79,
      "hit": false,
      "t": 166085.05340624994,
      "d": 244.40384375001304,
      "v": 27
    },
    {
      "midi": 48,
      "hit": false,
      "t": 166262.0354999997,
      "d": 387.6750624999986,
      "v": 104
    },
    {
      "midi": 79,
      "hit": false,
      "t": 166447.44531249994,
      "d": 269.68700000000536,
      "v": 27
    },
    {
      "midi": 58,
      "hit": false,
      "t": 166666.56599999958,
      "d": 674.2174999999988,
      "v": 117
    },
    {
      "midi": 67,
      "hit": false,
      "t": 166666.56599999958,
      "d": 674.2174999999988,
      "v": 120
    },
    {
      "midi": 60,
      "hit": false,
      "t": 166666.56599999958,
      "d": 691.0729374999937,
      "v": 118
    },
    {
      "midi": 64,
      "hit": false,
      "t": 166666.56599999958,
      "d": 707.9283749999886,
      "v": 119
    },
    {
      "midi": 58,
      "hit": false,
      "t": 166666.5659999997,
      "d": 396.10278124999604,
      "v": 107
    },
    {
      "midi": 48,
      "hit": false,
      "t": 167071.0964999997,
      "d": 429.8136562499858,
      "v": 104
    },
    {
      "midi": 79,
      "hit": false,
      "t": 167071.09649999996,
      "d": 92.70490625000093,
      "v": 27
    },
    {
      "midi": 79,
      "hit": false,
      "t": 167264.93403124996,
      "d": 193.8375312499993,
      "v": 27
    },
    {
      "midi": 58,
      "hit": false,
      "t": 167475.62699999957,
      "d": 581.5125937499979,
      "v": 117
    },
    {
      "midi": 60,
      "hit": false,
      "t": 167475.62699999957,
      "d": 589.9403124999953,
      "v": 118
    },
    {
      "midi": 67,
      "hit": false,
      "t": 167475.62699999957,
      "d": 606.7957499999902,
      "v": 120
    },
    {
      "midi": 64,
      "hit": false,
      "t": 167475.62699999957,
      "d": 682.6452187499963,
      "v": 119
    },
    {
      "midi": 58,
      "hit": false,
      "t": 167475.6269999997,
      "d": 412.9582187499909,
      "v": 107
    },
    {
      "midi": 48,
      "hit": false,
      "t": 167880.15749999968,
      "d": 404.5304999999935,
      "v": 104
    },
    {
      "midi": 79,
      "hit": false,
      "t": 168031.85643749993,
      "d": 58.994031250011176,
      "v": 27
    },
    {
      "midi": 79,
      "hit": false,
      "t": 168158.27221874995,
      "d": 67.42175000000861,
      "v": 27
    },
    {
      "midi": 65,
      "hit": false,
      "t": 168284.68799999956,
      "d": 724.7838125000126,
      "v": 120
    },
    {
      "midi": 57,
      "hit": false,
      "t": 168284.68799999956,
      "d": 733.21153125001,
      "v": 117
    },
    {
      "midi": 60,
      "hit": false,
      "t": 168284.68799999956,
      "d": 733.21153125001,
      "v": 118
    },
    {
      "midi": 57,
      "hit": false,
      "t": 168284.68799999967,
      "d": 387.6750624999986,
      "v": 107
    },
    {
      "midi": 79,
      "hit": false,
      "t": 168293.11571874996,
      "d": 252.83156250001048,
      "v": 27
    },
    {
      "midi": 48,
      "hit": false,
      "t": 168689.21849999967,
      "d": 421.38593749998836,
      "v": 104
    },
    {
      "midi": 79,
      "hit": false,
      "t": 168697.64621875,
      "d": 92.70490625000093,
      "v": 27
    },
    {
      "midi": 79,
      "hit": false,
      "t": 168899.91146874998,
      "d": 227.54840624998906,
      "v": 27
    },
    {
      "midi": 60,
      "hit": false,
      "t": 169093.74899999957,
      "d": 632.0789062500116,
      "v": 118
    },
    {
      "midi": 65,
      "hit": false,
      "t": 169093.74899999957,
      "d": 657.362062500004,
      "v": 120
    },
    {
      "midi": 57,
      "hit": false,
      "t": 169093.74899999957,
      "d": 674.2174999999988,
      "v": 117
    },
    {
      "midi": 53,
      "hit": false,
      "t": 169093.74899999966,
      "d": 429.8136562499858,
      "v": 106
    },
    {
      "midi": 79,
      "hit": false,
      "t": 169312.86968749997,
      "d": 160.12665625000955,
      "v": 27
    },
    {
      "midi": 48,
      "hit": false,
      "t": 169498.27949999965,
      "d": 421.38593749998836,
      "v": 104
    },
    {
      "midi": 79,
      "hit": false,
      "t": 169700.54474999997,
      "d": 227.54840624998906,
      "v": 27
    },
    {
      "midi": 60,
      "hit": false,
      "t": 169902.80999999956,
      "d": 657.362062500004,
      "v": 118
    },
    {
      "midi": 65,
      "hit": false,
      "t": 169902.80999999956,
      "d": 657.362062500004,
      "v": 120
    },
    {
      "midi": 57,
      "hit": false,
      "t": 169902.80999999956,
      "d": 674.2174999999988,
      "v": 117
    },
    {
      "midi": 57,
      "hit": false,
      "t": 169902.80999999965,
      "d": 396.10278124999604,
      "v": 107
    },
    {
      "midi": 53,
      "hit": false,
      "t": 170307.34049999964,
      "d": 396.10278124999604,
      "v": 106
    },
    {
      "midi": 60,
      "hit": false,
      "t": 170711.87099999955,
      "d": 589.9403124999953,
      "v": 118
    },
    {
      "midi": 57,
      "hit": false,
      "t": 170711.87099999955,
      "d": 657.362062500004,
      "v": 117
    },
    {
      "midi": 65,
      "hit": false,
      "t": 170711.87099999955,
      "d": 682.6452187499963,
      "v": 120
    },
    {
      "midi": 48,
      "hit": false,
      "t": 170711.87099999964,
      "d": 396.10278124999604,
      "v": 104
    },
    {
      "midi": 79,
      "hit": false,
      "t": 170964.70256249997,
      "d": 126.41578124999069,
      "v": 27
    },
    {
      "midi": 57,
      "hit": false,
      "t": 171116.40149999963,
      "d": 387.6750624999986,
      "v": 107
    },
    {
      "midi": 79,
      "hit": false,
      "t": 171259.67271874996,
      "d": 109.56034374999581,
      "v": 27
    },
    {
      "midi": 66,
      "hit": false,
      "t": 171520.93199999954,
      "d": 707.9283749999886,
      "v": 120
    },
    {
      "midi": 60,
      "hit": false,
      "t": 171520.93199999954,
      "d": 716.356093749986,
      "v": 118
    },
    {
      "midi": 57,
      "hit": false,
      "t": 171520.93199999954,
      "d": 724.7838124999835,
      "v": 117
    },
    {
      "midi": 54,
      "hit": false,
      "t": 171520.93199999962,
      "d": 809.060999999987,
      "v": 106
    },
    {
      "midi": 79,
      "hit": false,
      "t": 171537.78743749997,
      "d": 126.41578124999069,
      "v": 27
    },
    {
      "midi": 79,
      "hit": false,
      "t": 171832.75759374996,
      "d": 109.56034374999581,
      "v": 27
    },
    {
      "midi": 57,
      "hit": false,
      "t": 171925.46249999962,
      "d": 387.6750624999986,
      "v": 107
    },
    {
      "midi": 79,
      "hit": false,
      "t": 172110.87231249997,
      "d": 92.70490625000093,
      "v": 27
    },
    {
      "midi": 60,
      "hit": false,
      "t": 172329.99299999952,
      "d": 699.5006562499912,
      "v": 118
    },
    {
      "midi": 66,
      "hit": false,
      "t": 172329.99299999952,
      "d": 699.5006562499912,
      "v": 120
    },
    {
      "midi": 57,
      "hit": false,
      "t": 172329.99299999952,
      "d": 707.9283749999886,
      "v": 117
    },
    {
      "midi": 60,
      "hit": false,
      "t": 172329.9929999996,
      "d": 412.9582187499909,
      "v": 108
    },
    {
      "midi": 79,
      "hit": false,
      "t": 172346.84843749995,
      "d": 109.56034374999581,
      "v": 27
    },
    {
      "midi": 79,
      "hit": false,
      "t": 172574.39684374994,
      "d": 134.84349999998813,
      "v": 27
    },
    {
      "midi": 54,
      "hit": false,
      "t": 172734.5234999996,
      "d": 471.9522500000021,
      "v": 106
    },
    {
      "midi": 79,
      "hit": false,
      "t": 172953.64418749994,
      "d": 202.26524999999674,
      "v": 27
    },
    {
      "midi": 60,
      "hit": false,
      "t": 173139.0539999995,
      "d": 674.2174999999988,
      "v": 118
    },
    {
      "midi": 57,
      "hit": false,
      "t": 173139.0539999995,
      "d": 682.6452187499963,
      "v": 117
    },
    {
      "midi": 66,
      "hit": false,
      "t": 173139.0539999995,
      "d": 691.0729374999937,
      "v": 120
    },
    {
      "midi": 63,
      "hit": false,
      "t": 173139.0539999996,
      "d": 438.24137500001234,
      "v": 109
    },
    {
      "midi": 79,
      "hit": false,
      "t": 173526.72906249994,
      "d": 92.70490625000093,
      "v": 27
    },
    {
      "midi": 60,
      "hit": false,
      "t": 173543.58449999962,
      "d": 412.9582187499909,
      "v": 108
    },
    {
      "midi": 79,
      "hit": false,
      "t": 173737.42203124994,
      "d": 143.27121874998556,
      "v": 27
    },
    {
      "midi": 60,
      "hit": false,
      "t": 173948.1149999995,
      "d": 640.5066250000091,
      "v": 118
    },
    {
      "midi": 57,
      "hit": false,
      "t": 173948.1149999995,
      "d": 674.2174999999988,
      "v": 117
    },
    {
      "midi": 66,
      "hit": false,
      "t": 173948.1149999995,
      "d": 674.2174999999988,
      "v": 120
    },
    {
      "midi": 57,
      "hit": false,
      "t": 173948.1149999996,
      "d": 429.8136562499858,
      "v": 107
    },
    {
      "midi": 54,
      "hit": false,
      "t": 174352.6454999996,
      "d": 109.56034374999581,
      "v": 106
    },
    {
      "midi": 79,
      "hit": false,
      "t": 174571.76618749992,
      "d": 84.27718750000349,
      "v": 27
    },
    {
      "midi": 67,
      "hit": false,
      "t": 174757.17599999948,
      "d": 682.6452187499963,
      "v": 120
    },
    {
      "midi": 60,
      "hit": false,
      "t": 174757.17599999948,
      "d": 716.356093749986,
      "v": 118
    },
    {
      "midi": 64,
      "hit": false,
      "t": 174757.17599999948,
      "d": 750.0669687499758,
      "v": 119
    },
    {
      "midi": 48,
      "hit": false,
      "t": 174757.1759999996,
      "d": 834.3441562499793,
      "v": 104
    },
    {
      "midi": 79,
      "hit": false,
      "t": 174774.0314374999,
      "d": 227.54840624998906,
      "v": 27
    },
    {
      "midi": 79,
      "hit": false,
      "t": 175153.27878124992,
      "d": 109.56034374999581,
      "v": 27
    },
    {
      "midi": 52,
      "hit": false,
      "t": 175161.7064999996,
      "d": 362.3919062500063,
      "v": 106
    },
    {
      "midi": 79,
      "hit": false,
      "t": 175363.9717499999,
      "d": 176.98209375000442,
      "v": 27
    },
    {
      "midi": 67,
      "hit": false,
      "t": 175566.23699999947,
      "d": 657.362062500004,
      "v": 120
    },
    {
      "midi": 60,
      "hit": false,
      "t": 175566.23699999947,
      "d": 665.7897812500014,
      "v": 118
    },
    {
      "midi": 64,
      "hit": false,
      "t": 175566.23699999947,
      "d": 674.2174999999988,
      "v": 119
    },
    {
      "midi": 55,
      "hit": false,
      "t": 175566.2369999996,
      "d": 353.96418749997974,
      "v": 107
    },
    {
      "midi": 79,
      "hit": false,
      "t": 175760.0745312499,
      "d": 244.40384375001304,
      "v": 27
    },
    {
      "midi": 52,
      "hit": false,
      "t": 175970.76749999958,
      "d": 379.24734375000116,
      "v": 106
    },
    {
      "midi": 79,
      "hit": false,
      "t": 176181.46046874992,
      "d": 134.84349999998813,
      "v": 27
    },
    {
      "midi": 60,
      "hit": false,
      "t": 176375.29799999946,
      "d": 716.356093749986,
      "v": 118
    },
    {
      "midi": 57,
      "hit": false,
      "t": 176375.29799999946,
      "d": 724.7838124999835,
      "v": 117
    },
    {
      "midi": 64,
      "hit": false,
      "t": 176375.29799999946,
      "d": 733.2115312499809,
      "v": 119
    },
    {
      "midi": 57,
      "hit": false,
      "t": 176375.29799999957,
      "d": 421.38593749998836,
      "v": 107
    },
    {
      "midi": 48,
      "hit": false,
      "t": 176779.82849999957,
      "d": 471.9522500000021,
      "v": 104
    },
    {
      "midi": 60,
      "hit": false,
      "t": 177184.35899999944,
      "d": 598.3680312499928,
      "v": 118
    },
    {
      "midi": 57,
      "hit": false,
      "t": 177184.35899999944,
      "d": 606.7957499999902,
      "v": 117
    },
    {
      "midi": 64,
      "hit": false,
      "t": 177184.35899999944,
      "d": 640.50662499998,
      "v": 119
    },
    {
      "midi": 57,
      "hit": false,
      "t": 177184.35899999956,
      "d": 396.10278124999604,
      "v": 107
    },
    {
      "midi": 48,
      "hit": false,
      "t": 177588.88949999955,
      "d": 421.38593749998836,
      "v": 104
    },
    {
      "midi": 79,
      "hit": false,
      "t": 177782.7270312499,
      "d": 84.27718750000349,
      "v": 27
    },
    {
      "midi": 60,
      "hit": false,
      "t": 177993.41999999943,
      "d": 674.2174999999988,
      "v": 118
    },
    {
      "midi": 67,
      "hit": false,
      "t": 177993.41999999943,
      "d": 691.0729374999937,
      "v": 120
    },
    {
      "midi": 64,
      "hit": false,
      "t": 177993.41999999943,
      "d": 733.2115312499809,
      "v": 119
    },
    {
      "midi": 55,
      "hit": false,
      "t": 177993.41999999955,
      "d": 396.10278124999604,
      "v": 107
    },
    {
      "midi": 79,
      "hit": false,
      "t": 178001.8477187499,
      "d": 202.26524999999674,
      "v": 27
    },
    {
      "midi": 48,
      "hit": false,
      "t": 178397.95049999954,
      "d": 429.8136562499858,
      "v": 104
    },
    {
      "midi": 79,
      "hit": false,
      "t": 178414.80593749988,
      "d": 84.27718750000349,
      "v": 27
    },
    {
      "midi": 79,
      "hit": false,
      "t": 178625.49890624988,
      "d": 176.98209375000442,
      "v": 27
    },
    {
      "midi": 60,
      "hit": false,
      "t": 178802.48099999942,
      "d": 632.0789062500116,
      "v": 118
    },
    {
      "midi": 67,
      "hit": false,
      "t": 178802.48099999942,
      "d": 640.5066250000091,
      "v": 120
    },
    {
      "midi": 64,
      "hit": false,
      "t": 178802.48099999942,
      "d": 699.5006562500203,
      "v": 119
    },
    {
      "midi": 52,
      "hit": false,
      "t": 178802.48099999953,
      "d": 345.5364687499823,
      "v": 106
    },
    {
      "midi": 79,
      "hit": false,
      "t": 179030.02940624987,
      "d": 160.12665625000955,
      "v": 27
    },
    {
      "midi": 48,
      "hit": false,
      "t": 179207.01149999953,
      "d": 404.5304999999935,
      "v": 104
    },
    {
      "midi": 79,
      "hit": false,
      "t": 179417.70446874987,
      "d": 219.12068749999162,
      "v": 27
    },
    {
      "midi": 60,
      "hit": false,
      "t": 179611.54199999943,
      "d": 699.5006562499912,
      "v": 118
    },
    {
      "midi": 57,
      "hit": false,
      "t": 179611.54199999943,
      "d": 707.9283749999886,
      "v": 117
    },
    {
      "midi": 64,
      "hit": false,
      "t": 179611.54199999943,
      "d": 733.2115312499809,
      "v": 119
    },
    {
      "midi": 57,
      "hit": false,
      "t": 179611.54199999952,
      "d": 396.10278124999604,
      "v": 107
    },
    {
      "midi": 48,
      "hit": false,
      "t": 180016.0724999995,
      "d": 438.24137499998324,
      "v": 104
    },
    {
      "midi": 57,
      "hit": false,
      "t": 180420.60299999942,
      "d": 598.3680312499928,
      "v": 117
    },
    {
      "midi": 60,
      "hit": false,
      "t": 180420.60299999942,
      "d": 598.3680312499928,
      "v": 118
    },
    {
      "midi": 64,
      "hit": false,
      "t": 180420.60299999942,
      "d": 648.9343437500065,
      "v": 119
    },
    {
      "midi": 57,
      "hit": false,
      "t": 180420.6029999995,
      "d": 387.6750624999986,
      "v": 107
    },
    {
      "midi": 48,
      "hit": false,
      "t": 180825.1334999995,
      "d": 227.54840624998906,
      "v": 104
    },
    {
      "midi": 79,
      "hit": false,
      "t": 180985.26015624986,
      "d": 92.70490625000093,
      "v": 27
    },
    {
      "midi": 79,
      "hit": false,
      "t": 181212.80856249985,
      "d": 244.40384375001304,
      "v": 27
    },
    {
      "midi": 60,
      "hit": false,
      "t": 181229.66399999944,
      "d": 657.362062500004,
      "v": 118
    },
    {
      "midi": 65,
      "hit": false,
      "t": 181229.66399999944,
      "d": 682.6452187499963,
      "v": 120
    },
    {
      "midi": 57,
      "hit": false,
      "t": 181229.66399999944,
      "d": 691.0729374999937,
      "v": 117
    },
    {
      "midi": 50,
      "hit": false,
      "t": 181229.6639999995,
      "d": 455.0968125000072,
      "v": 105
    },
    {
      "midi": 79,
      "hit": false,
      "t": 181625.76678124987,
      "d": 92.70490625000093,
      "v": 27
    },
    {
      "midi": 53,
      "hit": false,
      "t": 181634.1944999995,
      "d": 412.95821875002,
      "v": 106
    },
    {
      "midi": 79,
      "hit": false,
      "t": 181836.45974999986,
      "d": 176.98209375000442,
      "v": 27
    },
    {
      "midi": 65,
      "hit": false,
      "t": 182038.72499999942,
      "d": 665.7897812500014,
      "v": 120
    },
    {
      "midi": 60,
      "hit": false,
      "t": 182038.72499999942,
      "d": 674.2174999999988,
      "v": 118
    },
    {
      "midi": 57,
      "hit": false,
      "t": 182038.72499999942,
      "d": 699.5006562499912,
      "v": 117
    },
    {
      "midi": 57,
      "hit": false,
      "t": 182038.7249999995,
      "d": 404.5304999999935,
      "v": 107
    },
    {
      "midi": 79,
      "hit": false,
      "t": 182232.56253124986,
      "d": 185.40981250000186,
      "v": 27
    },
    {
      "midi": 50,
      "hit": false,
      "t": 182443.2554999995,
      "d": 379.24734375000116,
      "v": 105
    },
    {
      "midi": 60,
      "hit": false,
      "t": 182847.7859999994,
      "d": 674.2174999999988,
      "v": 118
    },
    {
      "midi": 57,
      "hit": false,
      "t": 182847.7859999994,
      "d": 682.6452187499963,
      "v": 117
    },
    {
      "midi": 65,
      "hit": false,
      "t": 182847.7859999994,
      "d": 691.0729374999937,
      "v": 120
    },
    {
      "midi": 53,
      "hit": false,
      "t": 182847.7859999995,
      "d": 412.9582187499909,
      "v": 106
    },
    {
      "midi": 79,
      "hit": false,
      "t": 182864.64143749987,
      "d": 278.1147187500028,
      "v": 27
    },
    {
      "midi": 50,
      "hit": false,
      "t": 183252.3164999995,
      "d": 438.24137499998324,
      "v": 105
    },
    {
      "midi": 65,
      "hit": false,
      "t": 183656.8469999994,
      "d": 682.6452187499963,
      "v": 120
    },
    {
      "midi": 57,
      "hit": false,
      "t": 183656.8469999994,
      "d": 707.9283749999886,
      "v": 117
    },
    {
      "midi": 60,
      "hit": false,
      "t": 183656.8469999994,
      "d": 707.9283749999886,
      "v": 118
    },
    {
      "midi": 57,
      "hit": false,
      "t": 183656.84699999948,
      "d": 724.7838124999835,
      "v": 107
    },
    {
      "midi": 62,
      "hit": false,
      "t": 184465.90799999938,
      "d": 724.7838125000126,
      "v": 119
    },
    {
      "midi": 59,
      "hit": false,
      "t": 184465.90799999938,
      "d": 733.21153125001,
      "v": 118
    },
    {
      "midi": 67,
      "hit": false,
      "t": 184465.90799999938,
      "d": 750.0669687500049,
      "v": 120
    },
    {
      "midi": 79,
      "hit": false,
      "t": 184491.19115624987,
      "d": 581.5125937499979,
      "v": 27
    },
    {
      "midi": 62,
      "hit": false,
      "t": 185274.9689999994,
      "d": 640.5066250000091,
      "v": 119
    },
    {
      "midi": 59,
      "hit": false,
      "t": 185274.9689999994,
      "d": 648.9343437500065,
      "v": 118
    },
    {
      "midi": 67,
      "hit": false,
      "t": 185274.9689999994,
      "d": 707.9283750000177,
      "v": 120
    },
    {
      "midi": 60,
      "hit": false,
      "t": 186084.02999999942,
      "d": 724.7838125000126,
      "v": 118
    },
    {
      "midi": 67,
      "hit": false,
      "t": 186084.02999999942,
      "d": 733.21153125001,
      "v": 120
    },
    {
      "midi": 64,
      "hit": false,
      "t": 186084.02999999942,
      "d": 750.0669687500049,
      "v": 119
    },
    {
      "midi": 36,
      "hit": false,
      "t": 186084.02999999947,
      "d": 724.7838124999835,
      "v": 101
    },
    {
      "midi": 79,
      "hit": false,
      "t": 186092.45771874988,
      "d": 480.37996874999953,
      "v": 27
    },
    {
      "midi": 48,
      "hit": false,
      "t": 186488.56049999947,
      "d": 404.5304999999935,
      "v": 104
    },
    {
      "midi": 60,
      "hit": false,
      "t": 186893.09099999943,
      "d": 640.5066250000091,
      "v": 118
    },
    {
      "midi": 67,
      "hit": false,
      "t": 186893.09099999943,
      "d": 648.9343437500065,
      "v": 120
    },
    {
      "midi": 64,
      "hit": false,
      "t": 186893.09099999943,
      "d": 707.9283750000177,
      "v": 119
    },
    {
      "midi": 52,
      "hit": false,
      "t": 186893.09099999946,
      "d": 421.38593749998836,
      "v": 106
    },
    {
      "midi": 48,
      "hit": false,
      "t": 187297.62149999946,
      "d": 396.10278124999604,
      "v": 104
    },
    {
      "midi": 67,
      "hit": false,
      "t": 187702.15199999945,
      "d": 640.5066250000091,
      "v": 120
    },
    {
      "midi": 60,
      "hit": false,
      "t": 187702.15199999945,
      "d": 665.7897812500014,
      "v": 118
    },
    {
      "midi": 64,
      "hit": false,
      "t": 187702.15199999945,
      "d": 682.6452187499963,
      "v": 119
    },
    {
      "midi": 55,
      "hit": false,
      "t": 187702.15199999945,
      "d": 446.6690937499807,
      "v": 107
    },
    {
      "midi": 48,
      "hit": false,
      "t": 188106.68249999944,
      "d": 404.5304999999935,
      "v": 104
    },
    {
      "midi": 60,
      "hit": false,
      "t": 188511.21299999944,
      "d": 573.0848750000005,
      "v": 118
    },
    {
      "midi": 67,
      "hit": false,
      "t": 188511.21299999944,
      "d": 606.7957499999902,
      "v": 120
    },
    {
      "midi": 64,
      "hit": false,
      "t": 188511.21299999944,
      "d": 691.0729374999937,
      "v": 119
    },
    {
      "midi": 52,
      "hit": false,
      "t": 188511.21299999944,
      "d": 396.10278124999604,
      "v": 106
    },
    {
      "midi": 55,
      "hit": false,
      "t": 188915.74349999943,
      "d": 387.6750624999986,
      "v": 107
    },
    {
      "midi": 57,
      "hit": false,
      "t": 189320.27399999942,
      "d": 809.060999999987,
      "v": 117
    },
    {
      "midi": 60,
      "hit": false,
      "t": 189320.27399999942,
      "d": 809.060999999987,
      "v": 118
    },
    {
      "midi": 65,
      "hit": false,
      "t": 189320.27399999942,
      "d": 809.060999999987,
      "v": 120
    },
    {
      "midi": 38,
      "hit": false,
      "t": 189320.27399999942,
      "d": 2519.887906249962,
      "v": 101
    },
    {
      "midi": 50,
      "hit": false,
      "t": 189724.80449999942,
      "d": 404.5304999999935,
      "v": 105
    },
    {
      "midi": 60,
      "hit": false,
      "t": 190129.3349999994,
      "d": 733.21153125001,
      "v": 118
    },
    {
      "midi": 65,
      "hit": false,
      "t": 190129.3349999994,
      "d": 766.9224062499998,
      "v": 120
    },
    {
      "midi": 57,
      "hit": false,
      "t": 190129.3349999994,
      "d": 775.3501249999972,
      "v": 117
    },
    {
      "midi": 53,
      "hit": false,
      "t": 190129.3349999994,
      "d": 404.5304999999935,
      "v": 106
    },
    {
      "midi": 50,
      "hit": false,
      "t": 190533.8654999994,
      "d": 379.24734375000116,
      "v": 105
    },
    {
      "midi": 60,
      "hit": false,
      "t": 190938.3959999994,
      "d": 716.356093749986,
      "v": 118
    },
    {
      "midi": 57,
      "hit": false,
      "t": 190938.3959999994,
      "d": 750.0669687499758,
      "v": 117
    },
    {
      "midi": 65,
      "hit": false,
      "t": 190938.3959999994,
      "d": 766.9224062499707,
      "v": 120
    },
    {
      "midi": 57,
      "hit": false,
      "t": 190938.3959999994,
      "d": 404.5304999999935,
      "v": 107
    },
    {
      "midi": 53,
      "hit": false,
      "t": 191342.9264999994,
      "d": 404.5304999999935,
      "v": 106
    },
    {
      "midi": 60,
      "hit": false,
      "t": 191747.45699999935,
      "d": 691.0729374999937,
      "v": 118
    },
    {
      "midi": 57,
      "hit": false,
      "t": 191747.45699999935,
      "d": 724.7838124999835,
      "v": 117
    },
    {
      "midi": 65,
      "hit": false,
      "t": 191747.45699999935,
      "d": 766.9224062499707,
      "v": 120
    },
    {
      "midi": 50,
      "hit": false,
      "t": 191747.45699999938,
      "d": 396.10278124999604,
      "v": 105
    },
    {
      "midi": 79,
      "hit": false,
      "t": 191764.31243749987,
      "d": 109.56034374999581,
      "v": 27
    },
    {
      "midi": 79,
      "hit": false,
      "t": 191991.86084374986,
      "d": 210.69296874999418,
      "v": 27
    },
    {
      "midi": 53,
      "hit": false,
      "t": 192151.98749999938,
      "d": 134.84349999998813,
      "v": 106
    },
    {
      "midi": 79,
      "hit": false,
      "t": 192539.66256249987,
      "d": 269.68700000000536,
      "v": 27
    },
    {
      "midi": 67,
      "hit": false,
      "t": 192556.5179999993,
      "d": 792.2055624999921,
      "v": 120
    },
    {
      "midi": 59,
      "hit": false,
      "t": 192556.5179999993,
      "d": 809.060999999987,
      "v": 118
    },
    {
      "midi": 64,
      "hit": false,
      "t": 192556.5179999993,
      "d": 809.060999999987,
      "v": 119
    },
    {
      "midi": 36,
      "hit": false,
      "t": 192556.51799999937,
      "d": 2865.424374999973,
      "v": 101
    },
    {
      "midi": 48,
      "hit": false,
      "t": 192961.04849999936,
      "d": 404.5304999999935,
      "v": 104
    },
    {
      "midi": 67,
      "hit": false,
      "t": 193365.5789999993,
      "d": 775.3501249999972,
      "v": 120
    },
    {
      "midi": 59,
      "hit": false,
      "t": 193365.5789999993,
      "d": 783.7778437499946,
      "v": 118
    },
    {
      "midi": 64,
      "hit": false,
      "t": 193365.5789999993,
      "d": 800.6332812499895,
      "v": 119
    },
    {
      "midi": 52,
      "hit": false,
      "t": 193365.57899999936,
      "d": 362.3919062500063,
      "v": 106
    },
    {
      "midi": 48,
      "hit": false,
      "t": 193770.10949999935,
      "d": 396.10278124999604,
      "v": 104
    },
    {
      "midi": 59,
      "hit": false,
      "t": 194174.6399999993,
      "d": 741.6392500000075,
      "v": 118
    },
    {
      "midi": 64,
      "hit": false,
      "t": 194174.6399999993,
      "d": 758.4946875000023,
      "v": 119
    },
    {
      "midi": 67,
      "hit": false,
      "t": 194174.6399999993,
      "d": 758.4946875000023,
      "v": 120
    },
    {
      "midi": 55,
      "hit": false,
      "t": 194174.63999999934,
      "d": 345.5364687500114,
      "v": 107
    },
    {
      "midi": 48,
      "hit": false,
      "t": 194579.17049999937,
      "d": 396.10278124999604,
      "v": 104
    },
    {
      "midi": 67,
      "hit": false,
      "t": 194983.7009999993,
      "d": 657.362062500004,
      "v": 120
    },
    {
      "midi": 59,
      "hit": false,
      "t": 194983.7009999993,
      "d": 699.5006562499912,
      "v": 118
    },
    {
      "midi": 64,
      "hit": false,
      "t": 194983.7009999993,
      "d": 775.3501249999972,
      "v": 119
    },
    {
      "midi": 52,
      "hit": false,
      "t": 194983.70099999936,
      "d": 412.9582187499909,
      "v": 106
    },
    {
      "midi": 55,
      "hit": false,
      "t": 195388.23149999935,
      "d": 311.82559374999255,
      "v": 107
    },
    {
      "midi": 60,
      "hit": false,
      "t": 195792.7619999993,
      "d": 766.9224062499998,
      "v": 118
    },
    {
      "midi": 57,
      "hit": false,
      "t": 195792.7619999993,
      "d": 783.7778437499946,
      "v": 117
    },
    {
      "midi": 65,
      "hit": false,
      "t": 195792.7619999993,
      "d": 800.6332812499895,
      "v": 120
    },
    {
      "midi": 38,
      "hit": false,
      "t": 195792.76199999935,
      "d": 2435.6107187499874,
      "v": 101
    },
    {
      "midi": 50,
      "hit": false,
      "t": 196197.29249999934,
      "d": 396.10278124999604,
      "v": 105
    },
    {
      "midi": 60,
      "hit": false,
      "t": 196601.82299999928,
      "d": 758.4946875000023,
      "v": 118
    },
    {
      "midi": 57,
      "hit": false,
      "t": 196601.82299999928,
      "d": 783.7778437499946,
      "v": 117
    },
    {
      "midi": 65,
      "hit": false,
      "t": 196601.82299999928,
      "d": 783.7778437499946,
      "v": 120
    },
    {
      "midi": 53,
      "hit": false,
      "t": 196601.82299999933,
      "d": 741.6392500000075,
      "v": 106
    },
    {
      "midi": 60,
      "hit": false,
      "t": 197410.88399999926,
      "d": 699.5006562499912,
      "v": 118
    },
    {
      "midi": 57,
      "hit": false,
      "t": 197410.88399999926,
      "d": 707.9283749999886,
      "v": 117
    },
    {
      "midi": 65,
      "hit": false,
      "t": 197410.88399999926,
      "d": 707.9283749999886,
      "v": 120
    },
    {
      "midi": 50,
      "hit": false,
      "t": 197410.88399999935,
      "d": 160.12665625000955,
      "v": 105
    },
    {
      "midi": 53,
      "hit": false,
      "t": 197410.88399999935,
      "d": 168.55437500000698,
      "v": 106
    },
    {
      "midi": 57,
      "hit": false,
      "t": 197410.88399999935,
      "d": 210.69296874999418,
      "v": 107
    },
    {
      "midi": 57,
      "hit": false,
      "t": 198219.94499999925,
      "d": 775.3501249999972,
      "v": 117
    },
    {
      "midi": 60,
      "hit": false,
      "t": 198219.94499999925,
      "d": 783.7778437499946,
      "v": 118
    },
    {
      "midi": 65,
      "hit": false,
      "t": 198219.94499999925,
      "d": 783.7778437499946,
      "v": 120
    },
    {
      "midi": 62,
      "hit": false,
      "t": 198219.94499999934,
      "d": 615.2234687499877,
      "v": 109
    },
    {
      "midi": 60,
      "hit": false,
      "t": 198219.94499999934,
      "d": 623.6511874999851,
      "v": 108
    },
    {
      "midi": 67,
      "hit": false,
      "t": 198219.94499999934,
      "d": 623.6511874999851,
      "v": 110
    },
    {
      "midi": 79,
      "hit": false,
      "t": 198835.16846874988,
      "d": 92.70490625000093,
      "v": 27
    },
    {
      "midi": 67,
      "hit": false,
      "t": 199029.00599999924,
      "d": 699.5006562499912,
      "v": 120
    },
    {
      "midi": 60,
      "hit": false,
      "t": 199029.00599999924,
      "d": 707.9283749999886,
      "v": 118
    },
    {
      "midi": 64,
      "hit": false,
      "t": 199029.00599999924,
      "d": 758.4946875000023,
      "v": 119
    },
    {
      "midi": 48,
      "hit": false,
      "t": 199029.00599999932,
      "d": 809.060999999987,
      "v": 104
    },
    {
      "midi": 55,
      "hit": false,
      "t": 199029.00599999932,
      "d": 809.060999999987,
      "v": 107
    },
    {
      "midi": 79,
      "hit": false,
      "t": 199062.71687499987,
      "d": 202.26524999999674,
      "v": 27
    },
    {
      "midi": 52,
      "hit": false,
      "t": 199433.53649999932,
      "d": 387.6750624999986,
      "v": 106
    },
    {
      "midi": 79,
      "hit": false,
      "t": 199450.39193749987,
      "d": 84.27718750000349,
      "v": 27
    },
    {
      "midi": 79,
      "hit": false,
      "t": 199661.08490624986,
      "d": 244.40384375001304,
      "v": 27
    },
    {
      "midi": 60,
      "hit": false,
      "t": 199838.06699999925,
      "d": 615.2234687499877,
      "v": 118
    },
    {
      "midi": 64,
      "hit": false,
      "t": 199838.06699999925,
      "d": 682.6452187499963,
      "v": 119
    },
    {
      "midi": 67,
      "hit": false,
      "t": 199838.06699999925,
      "d": 691.0729374999937,
      "v": 120
    },
    {
      "midi": 55,
      "hit": false,
      "t": 199838.0669999993,
      "d": 505.66312499999185,
      "v": 107
    },
    {
      "midi": 79,
      "hit": false,
      "t": 200225.74206249986,
      "d": 75.84946875000605,
      "v": 27
    },
    {
      "midi": 48,
      "hit": false,
      "t": 200242.5974999993,
      "d": 396.10278124999604,
      "v": 104
    },
    {
      "midi": 79,
      "hit": false,
      "t": 200419.57959374986,
      "d": 227.54840624998906,
      "v": 27
    },
    {
      "midi": 60,
      "hit": false,
      "t": 200647.12799999924,
      "d": 716.356093749986,
      "v": 118
    },
    {
      "midi": 56,
      "hit": false,
      "t": 200647.12799999924,
      "d": 741.6392499999783,
      "v": 117
    },
    {
      "midi": 64,
      "hit": false,
      "t": 200647.12799999924,
      "d": 750.0669687499758,
      "v": 119
    },
    {
      "midi": 56,
      "hit": false,
      "t": 200647.1279999993,
      "d": 404.5304999999935,
      "v": 107
    },
    {
      "midi": 48,
      "hit": false,
      "t": 201051.6584999993,
      "d": 455.0968125000072,
      "v": 104
    },
    {
      "midi": 56,
      "hit": false,
      "t": 201456.18899999923,
      "d": 674.2174999999988,
      "v": 117
    },
    {
      "midi": 60,
      "hit": false,
      "t": 201456.18899999923,
      "d": 674.2174999999988,
      "v": 118
    },
    {
      "midi": 64,
      "hit": false,
      "t": 201456.18899999923,
      "d": 724.7838125000126,
      "v": 119
    },
    {
      "midi": 56,
      "hit": false,
      "t": 201456.18899999929,
      "d": 396.10278125002515,
      "v": 107
    },
    {
      "midi": 48,
      "hit": false,
      "t": 201860.7194999993,
      "d": 455.0968125000072,
      "v": 104
    },
    {
      "midi": 79,
      "hit": false,
      "t": 201860.71949999986,
      "d": 101.13262499999837,
      "v": 27
    },
    {
      "midi": 79,
      "hit": false,
      "t": 202062.98474999986,
      "d": 92.70490625000093,
      "v": 27
    },
    {
      "midi": 60,
      "hit": false,
      "t": 202265.24999999924,
      "d": 648.9343437500065,
      "v": 118
    },
    {
      "midi": 57,
      "hit": false,
      "t": 202265.24999999924,
      "d": 674.2174999999988,
      "v": 117
    },
    {
      "midi": 64,
      "hit": false,
      "t": 202265.24999999924,
      "d": 707.9283749999886,
      "v": 119
    },
    {
      "midi": 57,
      "hit": false,
      "t": 202265.2499999993,
      "d": 396.10278125002515,
      "v": 107
    },
    {
      "midi": 79,
      "hit": false,
      "t": 202282.10543749985,
      "d": 210.69296874999418,
      "v": 27
    },
    {
      "midi": 48,
      "hit": false,
      "t": 202669.78049999932,
      "d": 429.8136562499858,
      "v": 104
    },
    {
      "midi": 79,
      "hit": false,
      "t": 202686.63593749984,
      "d": 84.27718750000349,
      "v": 27
    },
    {
      "midi": 79,
      "hit": false,
      "t": 202897.32890624984,
      "d": 202.26524999999674,
      "v": 27
    },
    {
      "midi": 60,
      "hit": false,
      "t": 203074.31099999923,
      "d": 640.5066250000091,
      "v": 118
    },
    {
      "midi": 57,
      "hit": false,
      "t": 203074.31099999923,
      "d": 648.9343437500065,
      "v": 117
    },
    {
      "midi": 64,
      "hit": false,
      "t": 203074.31099999923,
      "d": 682.6452187499963,
      "v": 119
    },
    {
      "midi": 57,
      "hit": false,
      "t": 203074.31099999932,
      "d": 421.38593749998836,
      "v": 107
    },
    {
      "midi": 79,
      "hit": false,
      "t": 203276.57624999984,
      "d": 176.98209375000442,
      "v": 27
    },
    {
      "midi": 48,
      "hit": false,
      "t": 203478.8414999993,
      "d": 387.6750624999986,
      "v": 104
    },
    {
      "midi": 79,
      "hit": false,
      "t": 203672.67903124983,
      "d": 303.3978749999951,
      "v": 27
    },
    {
      "midi": 58,
      "hit": false,
      "t": 203883.37199999922,
      "d": 674.2174999999988,
      "v": 117
    },
    {
      "midi": 67,
      "hit": false,
      "t": 203883.37199999922,
      "d": 674.2174999999988,
      "v": 120
    },
    {
      "midi": 60,
      "hit": false,
      "t": 203883.37199999922,
      "d": 691.0729374999937,
      "v": 118
    },
    {
      "midi": 64,
      "hit": false,
      "t": 203883.37199999922,
      "d": 707.9283749999886,
      "v": 119
    },
    {
      "midi": 58,
      "hit": false,
      "t": 203883.3719999993,
      "d": 396.10278124999604,
      "v": 107
    },
    {
      "midi": 79,
      "hit": false,
      "t": 204279.47478124982,
      "d": 75.84946875000605,
      "v": 27
    },
    {
      "midi": 48,
      "hit": false,
      "t": 204287.9024999993,
      "d": 429.8136562499858,
      "v": 104
    },
    {
      "midi": 79,
      "hit": false,
      "t": 204473.31231249982,
      "d": 193.8375312499993,
      "v": 27
    },
    {
      "midi": 58,
      "hit": false,
      "t": 204692.4329999992,
      "d": 581.5125937499979,
      "v": 117
    },
    {
      "midi": 60,
      "hit": false,
      "t": 204692.4329999992,
      "d": 589.9403124999953,
      "v": 118
    },
    {
      "midi": 67,
      "hit": false,
      "t": 204692.4329999992,
      "d": 606.7957499999902,
      "v": 120
    },
    {
      "midi": 64,
      "hit": false,
      "t": 204692.4329999992,
      "d": 682.6452187499963,
      "v": 119
    },
    {
      "midi": 58,
      "hit": false,
      "t": 204692.4329999993,
      "d": 412.9582187499909,
      "v": 107
    },
    {
      "midi": 48,
      "hit": false,
      "t": 205096.96349999928,
      "d": 404.5304999999935,
      "v": 104
    },
    {
      "midi": 79,
      "hit": false,
      "t": 205273.9455937498,
      "d": 25.283156249992317,
      "v": 27
    },
    {
      "midi": 79,
      "hit": false,
      "t": 205408.7890937498,
      "d": 75.84946875000605,
      "v": 27
    },
    {
      "midi": 65,
      "hit": false,
      "t": 205501.4939999992,
      "d": 724.7838125000126,
      "v": 120
    },
    {
      "midi": 57,
      "hit": false,
      "t": 205501.4939999992,
      "d": 733.21153125001,
      "v": 117
    },
    {
      "midi": 60,
      "hit": false,
      "t": 205501.4939999992,
      "d": 733.21153125001,
      "v": 118
    },
    {
      "midi": 57,
      "hit": false,
      "t": 205501.49399999928,
      "d": 387.6750624999986,
      "v": 107
    },
    {
      "midi": 79,
      "hit": false,
      "t": 205552.06031249982,
      "d": 160.12665625000955,
      "v": 27
    },
    {
      "midi": 48,
      "hit": false,
      "t": 205906.02449999927,
      "d": 421.38593749998836,
      "v": 104
    },
    {
      "midi": 79,
      "hit": false,
      "t": 205914.45221874982,
      "d": 67.42175000000861,
      "v": 27
    },
    {
      "midi": 79,
      "hit": false,
      "t": 206099.86203124982,
      "d": 176.98209375000442,
      "v": 27
    },
    {
      "midi": 60,
      "hit": false,
      "t": 206310.5549999992,
      "d": 632.0789062500116,
      "v": 118
    },
    {
      "midi": 65,
      "hit": false,
      "t": 206310.5549999992,
      "d": 657.362062500004,
      "v": 120
    },
    {
      "midi": 57,
      "hit": false,
      "t": 206310.5549999992,
      "d": 674.2174999999988,
      "v": 117
    },
    {
      "midi": 53,
      "hit": false,
      "t": 206310.55499999927,
      "d": 429.8136562499858,
      "v": 106
    },
    {
      "midi": 79,
      "hit": false,
      "t": 206504.39253124982,
      "d": 160.12665625000955,
      "v": 27
    },
    {
      "midi": 48,
      "hit": false,
      "t": 206715.08549999926,
      "d": 421.38593749998836,
      "v": 104
    },
    {
      "midi": 79,
      "hit": false,
      "t": 206908.92303124984,
      "d": 219.12068749999162,
      "v": 27
    },
    {
      "midi": 60,
      "hit": false,
      "t": 207119.6159999992,
      "d": 657.362062500004,
      "v": 118
    },
    {
      "midi": 65,
      "hit": false,
      "t": 207119.6159999992,
      "d": 657.362062500004,
      "v": 120
    },
    {
      "midi": 57,
      "hit": false,
      "t": 207119.6159999992,
      "d": 674.2174999999988,
      "v": 117
    },
    {
      "midi": 57,
      "hit": false,
      "t": 207119.61599999925,
      "d": 396.10278124999604,
      "v": 107
    },
    {
      "midi": 53,
      "hit": false,
      "t": 207524.14649999925,
      "d": 396.10278124999604,
      "v": 106
    },
    {
      "midi": 60,
      "hit": false,
      "t": 207928.67699999918,
      "d": 589.9403124999953,
      "v": 118
    },
    {
      "midi": 57,
      "hit": false,
      "t": 207928.67699999918,
      "d": 657.362062500004,
      "v": 117
    },
    {
      "midi": 65,
      "hit": false,
      "t": 207928.67699999918,
      "d": 682.6452187499963,
      "v": 120
    },
    {
      "midi": 48,
      "hit": false,
      "t": 207928.67699999924,
      "d": 396.10278124999604,
      "v": 104
    },
    {
      "midi": 79,
      "hit": false,
      "t": 208130.94224999982,
      "d": 160.12665625000955,
      "v": 27
    },
    {
      "midi": 57,
      "hit": false,
      "t": 208333.20749999923,
      "d": 387.6750624999986,
      "v": 107
    },
    {
      "midi": 79,
      "hit": false,
      "t": 208442.76784374984,
      "d": 117.98806249999325,
      "v": 27
    },
    {
      "midi": 66,
      "hit": false,
      "t": 208737.73799999917,
      "d": 707.9283749999886,
      "v": 120
    },
    {
      "midi": 60,
      "hit": false,
      "t": 208737.73799999917,
      "d": 716.356093749986,
      "v": 118
    },
    {
      "midi": 57,
      "hit": false,
      "t": 208737.73799999917,
      "d": 724.7838124999835,
      "v": 117
    },
    {
      "midi": 54,
      "hit": false,
      "t": 208737.73799999923,
      "d": 809.060999999987,
      "v": 106
    },
    {
      "midi": 79,
      "hit": false,
      "t": 208737.73799999984,
      "d": 117.98806249999325,
      "v": 27
    },
    {
      "midi": 79,
      "hit": false,
      "t": 209024.28043749984,
      "d": 117.98806249999325,
      "v": 27
    },
    {
      "midi": 57,
      "hit": false,
      "t": 209142.26849999922,
      "d": 387.6750624999986,
      "v": 107
    },
    {
      "midi": 79,
      "hit": false,
      "t": 209310.82287499984,
      "d": 101.13262499999837,
      "v": 27
    },
    {
      "midi": 60,
      "hit": false,
      "t": 209546.79899999916,
      "d": 699.5006562499912,
      "v": 118
    },
    {
      "midi": 66,
      "hit": false,
      "t": 209546.79899999916,
      "d": 699.5006562499912,
      "v": 120
    },
    {
      "midi": 57,
      "hit": false,
      "t": 209546.79899999916,
      "d": 707.9283749999886,
      "v": 117
    },
    {
      "midi": 60,
      "hit": false,
      "t": 209546.7989999992,
      "d": 412.9582187499909,
      "v": 108
    },
    {
      "midi": 79,
      "hit": false,
      "t": 209555.22671874982,
      "d": 117.98806249999325,
      "v": 27
    },
    {
      "midi": 79,
      "hit": false,
      "t": 209791.2028437498,
      "d": 151.6989375000121,
      "v": 27
    },
    {
      "midi": 54,
      "hit": false,
      "t": 209951.3294999992,
      "d": 471.9522500000021,
      "v": 106
    },
    {
      "midi": 79,
      "hit": false,
      "t": 210170.4501874998,
      "d": 227.54840624998906,
      "v": 27
    },
    {
      "midi": 60,
      "hit": false,
      "t": 210355.85999999914,
      "d": 674.2174999999988,
      "v": 118
    },
    {
      "midi": 57,
      "hit": false,
      "t": 210355.85999999914,
      "d": 682.6452187499963,
      "v": 117
    },
    {
      "midi": 66,
      "hit": false,
      "t": 210355.85999999914,
      "d": 691.0729374999937,
      "v": 120
    },
    {
      "midi": 63,
      "hit": false,
      "t": 210355.8599999992,
      "d": 438.24137500001234,
      "v": 109
    },
    {
      "midi": 60,
      "hit": false,
      "t": 210760.39049999922,
      "d": 412.9582187499909,
      "v": 108
    },
    {
      "midi": 79,
      "hit": false,
      "t": 210760.3904999998,
      "d": 84.27718750000349,
      "v": 27
    },
    {
      "midi": 79,
      "hit": false,
      "t": 210962.6557499998,
      "d": 160.12665625000955,
      "v": 27
    },
    {
      "midi": 60,
      "hit": false,
      "t": 211164.92099999913,
      "d": 640.5066250000091,
      "v": 118
    },
    {
      "midi": 57,
      "hit": false,
      "t": 211164.92099999913,
      "d": 674.2174999999988,
      "v": 117
    },
    {
      "midi": 66,
      "hit": false,
      "t": 211164.92099999913,
      "d": 674.2174999999988,
      "v": 120
    },
    {
      "midi": 57,
      "hit": false,
      "t": 211164.92099999922,
      "d": 429.8136562499858,
      "v": 107
    },
    {
      "midi": 54,
      "hit": false,
      "t": 211569.4514999992,
      "d": 109.56034374999581,
      "v": 106
    },
    {
      "midi": 79,
      "hit": false,
      "t": 211788.5721874998,
      "d": 84.27718750000349,
      "v": 27
    },
    {
      "midi": 67,
      "hit": false,
      "t": 211973.98199999912,
      "d": 682.6452187499963,
      "v": 120
    },
    {
      "midi": 60,
      "hit": false,
      "t": 211973.98199999912,
      "d": 716.356093749986,
      "v": 118
    },
    {
      "midi": 64,
      "hit": false,
      "t": 211973.98199999912,
      "d": 750.0669687499758,
      "v": 119
    },
    {
      "midi": 48,
      "hit": false,
      "t": 211973.9819999992,
      "d": 834.3441562499793,
      "v": 104
    },
    {
      "midi": 79,
      "hit": false,
      "t": 211982.4097187498,
      "d": 252.83156250001048,
      "v": 27
    },
    {
      "midi": 52,
      "hit": false,
      "t": 212378.5124999992,
      "d": 362.3919062500063,
      "v": 106
    },
    {
      "midi": 79,
      "hit": false,
      "t": 212386.94021874983,
      "d": 92.70490625000093,
      "v": 27
    },
    {
      "midi": 79,
      "hit": false,
      "t": 212589.20546874983,
      "d": 185.40981250000186,
      "v": 27
    },
    {
      "midi": 67,
      "hit": false,
      "t": 212783.0429999991,
      "d": 657.362062500004,
      "v": 120
    },
    {
      "midi": 60,
      "hit": false,
      "t": 212783.0429999991,
      "d": 665.7897812500014,
      "v": 118
    },
    {
      "midi": 64,
      "hit": false,
      "t": 212783.0429999991,
      "d": 674.2174999999988,
      "v": 119
    },
    {
      "midi": 55,
      "hit": false,
      "t": 212783.0429999992,
      "d": 353.96418749997974,
      "v": 107
    },
    {
      "midi": 79,
      "hit": false,
      "t": 213002.16368749982,
      "d": 185.40981250000186,
      "v": 27
    },
    {
      "midi": 52,
      "hit": false,
      "t": 213187.57349999918,
      "d": 379.24734375000116,
      "v": 106
    },
    {
      "midi": 79,
      "hit": false,
      "t": 213381.41103124982,
      "d": 143.27121874998556,
      "v": 27
    },
    {
      "midi": 60,
      "hit": false,
      "t": 213592.1039999991,
      "d": 716.356093749986,
      "v": 118
    },
    {
      "midi": 57,
      "hit": false,
      "t": 213592.1039999991,
      "d": 724.7838124999835,
      "v": 117
    },
    {
      "midi": 64,
      "hit": false,
      "t": 213592.1039999991,
      "d": 733.2115312499809,
      "v": 119
    },
    {
      "midi": 57,
      "hit": false,
      "t": 213592.10399999918,
      "d": 421.38593749998836,
      "v": 107
    },
    {
      "midi": 48,
      "hit": false,
      "t": 213996.63449999917,
      "d": 471.9522500000021,
      "v": 104
    },
    {
      "midi": 60,
      "hit": false,
      "t": 214401.16499999908,
      "d": 598.3680312499928,
      "v": 118
    },
    {
      "midi": 57,
      "hit": false,
      "t": 214401.16499999908,
      "d": 606.7957499999902,
      "v": 117
    },
    {
      "midi": 64,
      "hit": false,
      "t": 214401.16499999908,
      "d": 640.50662499998,
      "v": 119
    },
    {
      "midi": 57,
      "hit": false,
      "t": 214401.16499999916,
      "d": 396.10278124999604,
      "v": 107
    },
    {
      "midi": 48,
      "hit": false,
      "t": 214805.69549999916,
      "d": 421.38593749998836,
      "v": 104
    },
    {
      "midi": 79,
      "hit": false,
      "t": 215024.81618749982,
      "d": 92.70490625000093,
      "v": 27
    },
    {
      "midi": 60,
      "hit": false,
      "t": 215210.22599999906,
      "d": 674.2174999999988,
      "v": 118
    },
    {
      "midi": 67,
      "hit": false,
      "t": 215210.22599999906,
      "d": 691.0729374999937,
      "v": 120
    },
    {
      "midi": 64,
      "hit": false,
      "t": 215210.22599999906,
      "d": 733.2115312499809,
      "v": 119
    },
    {
      "midi": 55,
      "hit": false,
      "t": 215210.22599999915,
      "d": 396.10278124999604,
      "v": 107
    },
    {
      "midi": 79,
      "hit": false,
      "t": 215243.9368749998,
      "d": 151.6989375000121,
      "v": 27
    },
    {
      "midi": 48,
      "hit": false,
      "t": 215614.75649999914,
      "d": 429.8136562499858,
      "v": 104
    },
    {
      "midi": 79,
      "hit": false,
      "t": 215631.6119374998,
      "d": 75.84946875000605,
      "v": 27
    },
    {
      "midi": 79,
      "hit": false,
      "t": 215833.8771874998,
      "d": 168.55437500000698,
      "v": 27
    },
    {
      "midi": 60,
      "hit": false,
      "t": 216019.28699999905,
      "d": 632.0789062500116,
      "v": 118
    },
    {
      "midi": 67,
      "hit": false,
      "t": 216019.28699999905,
      "d": 640.5066250000091,
      "v": 120
    },
    {
      "midi": 64,
      "hit": false,
      "t": 216019.28699999905,
      "d": 699.5006562500203,
      "v": 119
    },
    {
      "midi": 52,
      "hit": false,
      "t": 216019.28699999914,
      "d": 345.5364687499823,
      "v": 106
    },
    {
      "midi": 79,
      "hit": false,
      "t": 216272.11856249982,
      "d": 126.41578124999069,
      "v": 27
    },
    {
      "midi": 48,
      "hit": false,
      "t": 216423.81749999913,
      "d": 404.5304999999935,
      "v": 104
    },
    {
      "midi": 79,
      "hit": false,
      "t": 216634.5104687498,
      "d": 185.40981250000186,
      "v": 27
    },
    {
      "midi": 60,
      "hit": false,
      "t": 216828.34799999907,
      "d": 699.5006562499912,
      "v": 118
    },
    {
      "midi": 57,
      "hit": false,
      "t": 216828.34799999907,
      "d": 707.9283749999886,
      "v": 117
    },
    {
      "midi": 64,
      "hit": false,
      "t": 216828.34799999907,
      "d": 733.2115312499809,
      "v": 119
    },
    {
      "midi": 57,
      "hit": false,
      "t": 216828.34799999913,
      "d": 396.10278124999604,
      "v": 107
    },
    {
      "midi": 48,
      "hit": false,
      "t": 217232.87849999912,
      "d": 438.24137499998324,
      "v": 104
    },
    {
      "midi": 57,
      "hit": false,
      "t": 217637.40899999905,
      "d": 598.3680312499928,
      "v": 117
    },
    {
      "midi": 60,
      "hit": false,
      "t": 217637.40899999905,
      "d": 598.3680312499928,
      "v": 118
    },
    {
      "midi": 64,
      "hit": false,
      "t": 217637.40899999905,
      "d": 648.9343437500065,
      "v": 119
    },
    {
      "midi": 57,
      "hit": false,
      "t": 217637.4089999991,
      "d": 387.6750624999986,
      "v": 107
    },
    {
      "midi": 48,
      "hit": false,
      "t": 218041.9394999991,
      "d": 227.54840624998906,
      "v": 104
    },
    {
      "midi": 79,
      "hit": false,
      "t": 218235.7770312498,
      "d": 92.70490625000093,
      "v": 27
    },
    {
      "midi": 60,
      "hit": false,
      "t": 218446.46999999907,
      "d": 657.362062500004,
      "v": 118
    },
    {
      "midi": 65,
      "hit": false,
      "t": 218446.46999999907,
      "d": 682.6452187499963,
      "v": 120
    },
    {
      "midi": 57,
      "hit": false,
      "t": 218446.46999999907,
      "d": 691.0729374999937,
      "v": 117
    },
    {
      "midi": 50,
      "hit": false,
      "t": 218446.4699999991,
      "d": 455.0968125000072,
      "v": 105
    },
    {
      "midi": 79,
      "hit": false,
      "t": 218454.8977187498,
      "d": 193.8375312499993,
      "v": 27
    },
    {
      "midi": 53,
      "hit": false,
      "t": 218851.0004999991,
      "d": 412.95821875002,
      "v": 106
    },
    {
      "midi": 79,
      "hit": false,
      "t": 218859.4282187498,
      "d": 84.27718750000349,
      "v": 27
    },
    {
      "midi": 79,
      "hit": false,
      "t": 219070.12118749978,
      "d": 176.98209375000442,
      "v": 27
    },
    {
      "midi": 65,
      "hit": false,
      "t": 219255.53099999906,
      "d": 665.7897812500014,
      "v": 120
    },
    {
      "midi": 60,
      "hit": false,
      "t": 219255.53099999906,
      "d": 674.2174999999988,
      "v": 118
    },
    {
      "midi": 57,
      "hit": false,
      "t": 219255.53099999906,
      "d": 699.5006562499912,
      "v": 117
    },
    {
      "midi": 57,
      "hit": false,
      "t": 219255.53099999912,
      "d": 404.5304999999935,
      "v": 107
    },
    {
      "midi": 79,
      "hit": false,
      "t": 219457.79624999978,
      "d": 134.84349999998813,
      "v": 27
    },
    {
      "midi": 50,
      "hit": false,
      "t": 219660.0614999991,
      "d": 379.24734375000116,
      "v": 105
    },
    {
      "midi": 60,
      "hit": false,
      "t": 220064.59199999904,
      "d": 674.2174999999988,
      "v": 118
    },
    {
      "midi": 57,
      "hit": false,
      "t": 220064.59199999904,
      "d": 682.6452187499963,
      "v": 117
    },
    {
      "midi": 65,
      "hit": false,
      "t": 220064.59199999904,
      "d": 691.0729374999937,
      "v": 120
    },
    {
      "midi": 53,
      "hit": false,
      "t": 220064.5919999991,
      "d": 412.9582187499909,
      "v": 106
    },
    {
      "midi": 79,
      "hit": false,
      "t": 220073.01971874977,
      "d": 193.8375312499993,
      "v": 27
    },
    {
      "midi": 50,
      "hit": false,
      "t": 220469.1224999991,
      "d": 438.24137499998324,
      "v": 105
    },
    {
      "midi": 65,
      "hit": false,
      "t": 220873.65299999903,
      "d": 682.6452187499963,
      "v": 120
    },
    {
      "midi": 57,
      "hit": false,
      "t": 220873.65299999903,
      "d": 707.9283749999886,
      "v": 117
    },
    {
      "midi": 60,
      "hit": false,
      "t": 220873.65299999903,
      "d": 707.9283749999886,
      "v": 118
    },
    {
      "midi": 57,
      "hit": false,
      "t": 220873.6529999991,
      "d": 724.7838124999835,
      "v": 107
    },
    {
      "midi": 62,
      "hit": false,
      "t": 221682.71399999902,
      "d": 724.7838125000126,
      "v": 119
    },
    {
      "midi": 59,
      "hit": false,
      "t": 221682.71399999902,
      "d": 733.21153125001,
      "v": 118
    },
    {
      "midi": 67,
      "hit": false,
      "t": 221682.71399999902,
      "d": 750.0669687500049,
      "v": 120
    },
    {
      "midi": 79,
      "hit": false,
      "t": 221682.71399999977,
      "d": 269.68700000000536,
      "v": 27
    },
    {
      "midi": 62,
      "hit": false,
      "t": 222491.77499999903,
      "d": 640.5066250000091,
      "v": 119
    },
    {
      "midi": 59,
      "hit": false,
      "t": 222491.77499999903,
      "d": 648.9343437500065,
      "v": 118
    },
    {
      "midi": 67,
      "hit": false,
      "t": 222491.77499999903,
      "d": 707.9283750000177,
      "v": 120
    },
    {
      "midi": 67,
      "hit": false,
      "t": 223300.83599999905,
      "d": 699.5006562499912,
      "v": 120
    },
    {
      "midi": 60,
      "hit": false,
      "t": 223300.83599999905,
      "d": 707.9283749999886,
      "v": 118
    },
    {
      "midi": 64,
      "hit": false,
      "t": 223300.83599999905,
      "d": 758.4946875000023,
      "v": 119
    },
    {
      "midi": 48,
      "hit": false,
      "t": 223300.83599999908,
      "d": 269.68700000000536,
      "v": 104
    },
    {
      "midi": 52,
      "hit": false,
      "t": 223300.83599999908,
      "d": 396.10278124999604,
      "v": 106
    },
    {
      "midi": 55,
      "hit": false,
      "t": 223300.83599999908,
      "d": 792.2055624999921,
      "v": 107
    },
    {
      "midi": 36,
      "hit": false,
      "t": 223300.83599999908,
      "d": 1306.2964062499814,
      "v": 101
    },
    {
      "midi": 79,
      "hit": false,
      "t": 223309.26371874977,
      "d": 244.40384375001304,
      "v": 27
    },
    {
      "midi": 48,
      "hit": false,
      "t": 223705.36649999907,
      "d": 1163.0251874999958,
      "v": 104
    },
    {
      "midi": 60,
      "hit": false,
      "t": 224109.89699999907,
      "d": 615.2234687499877,
      "v": 118
    },
    {
      "midi": 64,
      "hit": false,
      "t": 224109.89699999907,
      "d": 682.6452187499963,
      "v": 119
    },
    {
      "midi": 67,
      "hit": false,
      "t": 224109.89699999907,
      "d": 691.0729374999937,
      "v": 120
    },
    {
      "midi": 52,
      "hit": false,
      "t": 224109.89699999907,
      "d": 750.0669687500049,
      "v": 106
    },
    {
      "midi": 55,
      "hit": false,
      "t": 224514.42749999906,
      "d": 269.68700000000536,
      "v": 107
    },
    {
      "midi": 60,
      "hit": false,
      "t": 224918.95799999905,
      "d": 716.356093749986,
      "v": 118
    },
    {
      "midi": 56,
      "hit": false,
      "t": 224918.95799999905,
      "d": 741.6392499999783,
      "v": 117
    },
    {
      "midi": 64,
      "hit": false,
      "t": 224918.95799999905,
      "d": 750.0669687499758,
      "v": 119
    },
    {
      "midi": 48,
      "hit": false,
      "t": 224918.95799999908,
      "d": 278.1147187500028,
      "v": 104
    },
    {
      "midi": 52,
      "hit": false,
      "t": 224918.95799999908,
      "d": 421.38593749998836,
      "v": 106
    },
    {
      "midi": 56,
      "hit": false,
      "t": 224918.95799999908,
      "d": 809.060999999987,
      "v": 107
    },
    {
      "midi": 80,
      "hit": false,
      "t": 224918.958,
      "d": 809.060999999987,
      "v": 104
    },
    {
      "midi": 48,
      "hit": false,
      "t": 225323.48849999908,
      "d": 859.6273125000007,
      "v": 104
    },
    {
      "midi": 56,
      "hit": false,
      "t": 225728.01899999904,
      "d": 674.2174999999988,
      "v": 117
    },
    {
      "midi": 60,
      "hit": false,
      "t": 225728.01899999904,
      "d": 674.2174999999988,
      "v": 118
    },
    {
      "midi": 64,
      "hit": false,
      "t": 225728.01899999904,
      "d": 724.7838125000126,
      "v": 119
    },
    {
      "midi": 52,
      "hit": false,
      "t": 225728.01899999907,
      "d": 724.7838125000126,
      "v": 106
    },
    {
      "midi": 83,
      "hit": false,
      "t": 225728.019,
      "d": 429.8136562499858,
      "v": 105
    },
    {
      "midi": 56,
      "hit": false,
      "t": 226132.54949999906,
      "d": 151.6989375000121,
      "v": 107
    },
    {
      "midi": 84,
      "hit": false,
      "t": 226132.5495,
      "d": 396.10278124999604,
      "v": 105
    },
    {
      "midi": 60,
      "hit": false,
      "t": 226537.07999999906,
      "d": 648.9343437500065,
      "v": 118
    },
    {
      "midi": 57,
      "hit": false,
      "t": 226537.07999999906,
      "d": 674.2174999999988,
      "v": 117
    },
    {
      "midi": 64,
      "hit": false,
      "t": 226537.07999999906,
      "d": 707.9283749999886,
      "v": 119
    },
    {
      "midi": 48,
      "hit": false,
      "t": 226537.07999999908,
      "d": 345.5364687500114,
      "v": 104
    },
    {
      "midi": 52,
      "hit": false,
      "t": 226537.07999999908,
      "d": 463.52453125003376,
      "v": 106
    },
    {
      "midi": 57,
      "hit": false,
      "t": 226537.07999999908,
      "d": 825.91643750004,
      "v": 107
    },
    {
      "midi": 81,
      "hit": false,
      "t": 226537.08,
      "d": 825.9164374999818,
      "v": 104
    },
    {
      "midi": 48,
      "hit": false,
      "t": 226941.6104999991,
      "d": 792.2055625000212,
      "v": 104
    },
    {
      "midi": 60,
      "hit": false,
      "t": 227346.14099999904,
      "d": 640.5066250000091,
      "v": 118
    },
    {
      "midi": 57,
      "hit": false,
      "t": 227346.14099999904,
      "d": 648.9343437500065,
      "v": 117
    },
    {
      "midi": 64,
      "hit": false,
      "t": 227346.14099999904,
      "d": 682.6452187499963,
      "v": 119
    },
    {
      "midi": 52,
      "hit": false,
      "t": 227346.14099999913,
      "d": 640.5066250000091,
      "v": 106
    },
    {
      "midi": 83,
      "hit": false,
      "t": 227346.14099999997,
      "d": 412.9582187499909,
      "v": 105
    },
    {
      "midi": 57,
      "hit": false,
      "t": 227750.67149999912,
      "d": 160.12665625000955,
      "v": 107
    },
    {
      "midi": 84,
      "hit": false,
      "t": 227750.67149999997,
      "d": 421.38593749998836,
      "v": 105
    },
    {
      "midi": 58,
      "hit": false,
      "t": 228155.20199999903,
      "d": 674.2174999999988,
      "v": 117
    },
    {
      "midi": 67,
      "hit": false,
      "t": 228155.20199999903,
      "d": 674.2174999999988,
      "v": 120
    },
    {
      "midi": 60,
      "hit": false,
      "t": 228155.20199999903,
      "d": 691.0729374999937,
      "v": 118
    },
    {
      "midi": 64,
      "hit": false,
      "t": 228155.20199999903,
      "d": 707.9283749999886,
      "v": 119
    },
    {
      "midi": 48,
      "hit": false,
      "t": 228155.20199999915,
      "d": 252.83156250001048,
      "v": 104
    },
    {
      "midi": 52,
      "hit": false,
      "t": 228155.20199999915,
      "d": 404.5305000000226,
      "v": 106
    },
    {
      "midi": 58,
      "hit": false,
      "t": 228155.20199999915,
      "d": 817.4887187500135,
      "v": 107
    },
    {
      "midi": 82,
      "hit": false,
      "t": 228155.20199999996,
      "d": 775.3501249999972,
      "v": 105
    },
    {
      "midi": 48,
      "hit": false,
      "t": 228559.73249999917,
      "d": 1137.7420312499744,
      "v": 104
    },
    {
      "midi": 58,
      "hit": false,
      "t": 228964.26299999902,
      "d": 581.5125937499979,
      "v": 117
    },
    {
      "midi": 60,
      "hit": false,
      "t": 228964.26299999902,
      "d": 589.9403124999953,
      "v": 118
    },
    {
      "midi": 67,
      "hit": false,
      "t": 228964.26299999902,
      "d": 606.7957499999902,
      "v": 120
    },
    {
      "midi": 64,
      "hit": false,
      "t": 228964.26299999902,
      "d": 682.6452187499963,
      "v": 119
    },
    {
      "midi": 52,
      "hit": false,
      "t": 228964.26299999916,
      "d": 505.66312499999185,
      "v": 106
    },
    {
      "midi": 84,
      "hit": false,
      "t": 228964.26299999995,
      "d": 615.2234687499877,
      "v": 105
    },
    {
      "midi": 58,
      "hit": false,
      "t": 229368.79349999916,
      "d": 143.27121874998556,
      "v": 107
    },
    {
      "midi": 82,
      "hit": false,
      "t": 229571.05874999994,
      "d": 185.40981250000186,
      "v": 105
    },
    {
      "midi": 65,
      "hit": false,
      "t": 229773.323999999,
      "d": 724.7838125000126,
      "v": 120
    },
    {
      "midi": 57,
      "hit": false,
      "t": 229773.323999999,
      "d": 733.21153125001,
      "v": 117
    },
    {
      "midi": 60,
      "hit": false,
      "t": 229773.323999999,
      "d": 733.21153125001,
      "v": 118
    },
    {
      "midi": 48,
      "hit": false,
      "t": 229773.32399999915,
      "d": 252.83156250001048,
      "v": 104
    },
    {
      "midi": 53,
      "hit": false,
      "t": 229773.32399999915,
      "d": 412.95821875002,
      "v": 106
    },
    {
      "midi": 57,
      "hit": false,
      "t": 229773.32399999915,
      "d": 825.9164375000109,
      "v": 107
    },
    {
      "midi": 41,
      "hit": false,
      "t": 229773.32399999915,
      "d": 1550.7002499999944,
      "v": 102
    },
    {
      "midi": 81,
      "hit": false,
      "t": 229773.32399999994,
      "d": 353.96418750000885,
      "v": 104
    },
    {
      "midi": 48,
      "hit": false,
      "t": 230177.85449999917,
      "d": 480.37996874999953,
      "v": 104
    },
    {
      "midi": 81,
      "hit": false,
      "t": 230177.85449999996,
      "d": 278.1147187500028,
      "v": 104
    },
    {
      "midi": 83,
      "hit": false,
      "t": 230380.11974999995,
      "d": 168.55437500000698,
      "v": 105
    },
    {
      "midi": 60,
      "hit": false,
      "t": 230582.38499999902,
      "d": 632.0789062500116,
      "v": 118
    },
    {
      "midi": 65,
      "hit": false,
      "t": 230582.38499999902,
      "d": 657.362062500004,
      "v": 120
    },
    {
      "midi": 57,
      "hit": false,
      "t": 230582.38499999902,
      "d": 674.2174999999988,
      "v": 117
    },
    {
      "midi": 53,
      "hit": false,
      "t": 230582.38499999917,
      "d": 707.9283749999886,
      "v": 106
    },
    {
      "midi": 84,
      "hit": false,
      "t": 230582.38499999995,
      "d": 244.40384374998393,
      "v": 105
    },
    {
      "midi": 83,
      "hit": false,
      "t": 230784.65024999995,
      "d": 193.8375312499993,
      "v": 105
    },
    {
      "midi": 48,
      "hit": false,
      "t": 230986.91549999916,
      "d": 328.6810312499874,
      "v": 104
    },
    {
      "midi": 81,
      "hit": false,
      "t": 230986.91549999994,
      "d": 252.83156250001048,
      "v": 104
    },
    {
      "midi": 83,
      "hit": false,
      "t": 231189.18074999994,
      "d": 160.12665625000955,
      "v": 105
    },
    {
      "midi": 60,
      "hit": false,
      "t": 231391.445999999,
      "d": 657.362062500004,
      "v": 118
    },
    {
      "midi": 65,
      "hit": false,
      "t": 231391.445999999,
      "d": 657.362062500004,
      "v": 120
    },
    {
      "midi": 57,
      "hit": false,
      "t": 231391.445999999,
      "d": 674.2174999999988,
      "v": 117
    },
    {
      "midi": 48,
      "hit": false,
      "t": 231391.44599999915,
      "d": 227.54840624998906,
      "v": 104
    },
    {
      "midi": 53,
      "hit": false,
      "t": 231391.44599999915,
      "d": 379.24734375000116,
      "v": 106
    },
    {
      "midi": 57,
      "hit": false,
      "t": 231391.44599999915,
      "d": 716.356093749986,
      "v": 107
    },
    {
      "midi": 41,
      "hit": false,
      "t": 231391.44599999915,
      "d": 1567.5556874999893,
      "v": 102
    },
    {
      "midi": 84,
      "hit": false,
      "t": 231391.44599999994,
      "d": 1365.2904374999925,
      "v": 105
    },
    {
      "midi": 48,
      "hit": false,
      "t": 231795.97649999915,
      "d": 362.3919062500063,
      "v": 104
    },
    {
      "midi": 60,
      "hit": false,
      "t": 232200.506999999,
      "d": 589.9403124999953,
      "v": 118
    },
    {
      "midi": 57,
      "hit": false,
      "t": 232200.506999999,
      "d": 657.362062500004,
      "v": 117
    },
    {
      "midi": 65,
      "hit": false,
      "t": 232200.506999999,
      "d": 682.6452187499963,
      "v": 120
    },
    {
      "midi": 48,
      "hit": false,
      "t": 232200.50699999914,
      "d": 320.25331249999,
      "v": 104
    },
    {
      "midi": 53,
      "hit": false,
      "t": 232200.50699999914,
      "d": 379.24734375000116,
      "v": 106
    },
    {
      "midi": 57,
      "hit": false,
      "t": 232200.50699999914,
      "d": 404.5304999999935,
      "v": 107
    },
    {
      "midi": 83,
      "hit": false,
      "t": 232807.30274999994,
      "d": 168.55437500000698,
      "v": 105
    },
    {
      "midi": 66,
      "hit": false,
      "t": 233009.56799999898,
      "d": 707.9283749999886,
      "v": 120
    },
    {
      "midi": 60,
      "hit": false,
      "t": 233009.56799999898,
      "d": 716.356093749986,
      "v": 118
    },
    {
      "midi": 57,
      "hit": false,
      "t": 233009.56799999898,
      "d": 724.7838124999835,
      "v": 117
    },
    {
      "midi": 54,
      "hit": false,
      "t": 233009.56799999916,
      "d": 657.362062500004,
      "v": 106
    },
    {
      "midi": 60,
      "hit": false,
      "t": 233009.56799999916,
      "d": 665.7897812500014,
      "v": 108
    },
    {
      "midi": 57,
      "hit": false,
      "t": 233009.56799999916,
      "d": 691.0729374999937,
      "v": 107
    },
    {
      "midi": 34,
      "hit": false,
      "t": 233009.56799999916,
      "d": 1407.4290312499797,
      "v": 100
    },
    {
      "midi": 81,
      "hit": false,
      "t": 233009.56799999994,
      "d": 244.40384374998393,
      "v": 104
    },
    {
      "midi": 83,
      "hit": false,
      "t": 233211.83324999994,
      "d": 176.98209374997532,
      "v": 105
    },
    {
      "midi": 84,
      "hit": false,
      "t": 233414.0984999999,
      "d": 1104.0311562500137,
      "v": 105
    },
    {
      "midi": 60,
      "hit": false,
      "t": 233818.62899999897,
      "d": 699.5006562499912,
      "v": 118
    },
    {
      "midi": 66,
      "hit": false,
      "t": 233818.62899999897,
      "d": 699.5006562499912,
      "v": 120
    },
    {
      "midi": 57,
      "hit": false,
      "t": 233818.62899999897,
      "d": 707.9283749999886,
      "v": 117
    },
    {
      "midi": 54,
      "hit": false,
      "t": 233818.62899999914,
      "d": 286.54243750000023,
      "v": 106
    },
    {
      "midi": 60,
      "hit": false,
      "t": 233818.62899999914,
      "d": 598.3680312499928,
      "v": 108
    },
    {
      "midi": 57,
      "hit": false,
      "t": 233818.62899999914,
      "d": 691.0729374999937,
      "v": 107
    },
    {
      "midi": 86,
      "hit": false,
      "t": 234425.42474999992,
      "d": 219.12068749999162,
      "v": 106
    },
    {
      "midi": 60,
      "hit": false,
      "t": 234627.68999999895,
      "d": 674.2174999999988,
      "v": 118
    },
    {
      "midi": 57,
      "hit": false,
      "t": 234627.68999999895,
      "d": 682.6452187499963,
      "v": 117
    },
    {
      "midi": 66,
      "hit": false,
      "t": 234627.68999999895,
      "d": 691.0729374999937,
      "v": 120
    },
    {
      "midi": 54,
      "hit": false,
      "t": 234627.68999999913,
      "d": 792.2055624999921,
      "v": 106
    },
    {
      "midi": 60,
      "hit": false,
      "t": 234627.68999999913,
      "d": 800.6332812499895,
      "v": 108
    },
    {
      "midi": 57,
      "hit": false,
      "t": 234627.68999999913,
      "d": 809.060999999987,
      "v": 107
    },
    {
      "midi": 34,
      "hit": false,
      "t": 234627.68999999913,
      "d": 960.7599374999991,
      "v": 100
    },
    {
      "midi": 87,
      "hit": false,
      "t": 234627.68999999992,
      "d": 1618.122000000003,
      "v": 106
    },
    {
      "midi": 60,
      "hit": false,
      "t": 235436.75099999894,
      "d": 640.5066250000091,
      "v": 118
    },
    {
      "midi": 57,
      "hit": false,
      "t": 235436.75099999894,
      "d": 674.2174999999988,
      "v": 117
    },
    {
      "midi": 66,
      "hit": false,
      "t": 235436.75099999894,
      "d": 674.2174999999988,
      "v": 120
    },
    {
      "midi": 60,
      "hit": false,
      "t": 235436.75099999912,
      "d": 463.52453125000466,
      "v": 108
    },
    {
      "midi": 54,
      "hit": false,
      "t": 235436.75099999912,
      "d": 471.9522500000021,
      "v": 106
    },
    {
      "midi": 57,
      "hit": false,
      "t": 235436.75099999912,
      "d": 471.9522500000021,
      "v": 107
    },
    {
      "midi": 88,
      "hit": false,
      "t": 236245.81199999992,
      "d": 3253.099437500001,
      "v": 107
    },
    {
      "midi": 48,
      "hit": false,
      "t": 236245.81200000003,
      "d": 75.84946875000605,
      "v": 98
    },
    {
      "midi": 52,
      "hit": false,
      "t": 236346.94462500003,
      "d": 75.84946875000605,
      "v": 100
    },
    {
      "midi": 55,
      "hit": false,
      "t": 236448.07725000003,
      "d": 75.84946875000605,
      "v": 101
    },
    {
      "midi": 52,
      "hit": false,
      "t": 236549.20987500003,
      "d": 75.84946875000605,
      "v": 100
    },
    {
      "midi": 55,
      "hit": false,
      "t": 236650.34250000003,
      "d": 75.84946875000605,
      "v": 101
    },
    {
      "midi": 60,
      "hit": false,
      "t": 236751.47512500003,
      "d": 75.84946875000605,
      "v": 102
    },
    {
      "midi": 55,
      "hit": false,
      "t": 236852.60775000002,
      "d": 75.84946875000605,
      "v": 101
    },
    {
      "midi": 60,
      "hit": false,
      "t": 236953.74037500002,
      "d": 75.84946875000605,
      "v": 102
    },
    {
      "midi": 64,
      "hit": false,
      "t": 237054.87300000002,
      "d": 75.84946875000605,
      "v": 103
    },
    {
      "midi": 60,
      "hit": false,
      "t": 237156.00562500002,
      "d": 75.84946875000605,
      "v": 102
    },
    {
      "midi": 64,
      "hit": false,
      "t": 237257.13825000002,
      "d": 75.84946875000605,
      "v": 103
    },
    {
      "midi": 67,
      "hit": false,
      "t": 237358.27087500002,
      "d": 75.84946875000605,
      "v": 104
    },
    {
      "midi": 64,
      "hit": false,
      "t": 237459.40350000001,
      "d": 75.84946875000605,
      "v": 103
    },
    {
      "midi": 67,
      "hit": false,
      "t": 237560.536125,
      "d": 75.84946875000605,
      "v": 104
    },
    {
      "midi": 72,
      "hit": false,
      "t": 237661.66875,
      "d": 75.84946875000605,
      "v": 106
    },
    {
      "midi": 67,
      "hit": false,
      "t": 237762.801375,
      "d": 75.84946875000605,
      "v": 104
    },
    {
      "midi": 72,
      "hit": false,
      "t": 237863.934,
      "d": 75.84946875000605,
      "v": 106
    },
    {
      "midi": 76,
      "hit": false,
      "t": 237965.066625,
      "d": 75.84946875000605,
      "v": 107
    },
    {
      "midi": 72,
      "hit": false,
      "t": 238066.19925,
      "d": 75.84946875000605,
      "v": 106
    },
    {
      "midi": 76,
      "hit": false,
      "t": 238167.331875,
      "d": 75.84946875000605,
      "v": 107
    },
    {
      "midi": 79,
      "hit": false,
      "t": 238268.4645,
      "d": 75.84946875000605,
      "v": 108
    },
    {
      "midi": 76,
      "hit": false,
      "t": 238369.597125,
      "d": 75.84946875000605,
      "v": 107
    },
    {
      "midi": 79,
      "hit": false,
      "t": 238470.72975,
      "d": 75.84946875000605,
      "v": 108
    },
    {
      "midi": 84,
      "hit": false,
      "t": 238571.862375,
      "d": 75.84946875000605,
      "v": 109
    },
    {
      "midi": 79,
      "hit": false,
      "t": 238672.995,
      "d": 75.84946875000605,
      "v": 108
    },
    {
      "midi": 84,
      "hit": false,
      "t": 238774.127625,
      "d": 75.84946875000605,
      "v": 109
    },
    {
      "midi": 88,
      "hit": false,
      "t": 238875.26025,
      "d": 75.84946875000605,
      "v": 111
    },
    {
      "midi": 84,
      "hit": false,
      "t": 238976.392875,
      "d": 75.84946875000605,
      "v": 109
    },
    {
      "midi": 88,
      "hit": false,
      "t": 239077.5255,
      "d": 75.84946875000605,
      "v": 111
    },
    {
      "midi": 91,
      "hit": false,
      "t": 239178.658125,
      "d": 75.84946875000605,
      "v": 111
    },
    {
      "midi": 88,
      "hit": false,
      "t": 239279.79075,
      "d": 75.84946875000605,
      "v": 111
    },
    {
      "midi": 86,
      "hit": false,
      "t": 239380.92337499998,
      "d": 75.84946875000605,
      "v": 110
    },
    {
      "midi": 84,
      "hit": false,
      "t": 239482.05599999998,
      "d": 75.84946875000605,
      "v": 109
    }
  ]
}