{
  "jsonPath": "Ambient/New Age/Tom Barabas/moonlight-sonata-l-beethoven.json",
  "path": "Ambient\\New Age\\Tom Barabas\\Moonlight Sonata (L Beethoven).mid",
  "name": "Moonlight Sonata (L Beethoven)",
  "difficulty": "Advanced",
  "bpm": 68.0000725334107,
  "notes": [
    {
      "midi": 56,
      "hit": false,
      "t": 27.573500000000003,
      "d": 476.10243333333335,
      "v": 65
    },
    {
      "midi": 37,
      "hit": false,
      "t": 33.0882,
      "d": 2898.8939666666674,
      "v": 50
    },
    {
      "midi": 49,
      "hit": false,
      "t": 40.44113333333333,
      "d": 2693.0118333333344,
      "v": 29
    },
    {
      "midi": 61,
      "hit": false,
      "t": 365.80843333333337,
      "d": 259.19090000000006,
      "v": 48
    },
    {
      "midi": 64,
      "hit": false,
      "t": 650.7346000000001,
      "d": 272.05853333333334,
      "v": 45
    },
    {
      "midi": 56,
      "hit": false,
      "t": 954.0431000000001,
      "d": 321.69083333333356,
      "v": 58
    },
    {
      "midi": 61,
      "hit": false,
      "t": 1237.1310333333336,
      "d": 264.7056,
      "v": 55
    },
    {
      "midi": 64,
      "hit": false,
      "t": 1538.6013000000003,
      "d": 226.1026999999999,
      "v": 44
    },
    {
      "midi": 56,
      "hit": false,
      "t": 1816.1745333333336,
      "d": 277.5732333333333,
      "v": 55
    },
    {
      "midi": 61,
      "hit": false,
      "t": 2095.5860000000002,
      "d": 249.99973333333355,
      "v": 55
    },
    {
      "midi": 64,
      "hit": false,
      "t": 2376.8357000000005,
      "d": 262.86736666666684,
      "v": 53
    },
    {
      "midi": 56,
      "hit": false,
      "t": 2672.7912666666675,
      "d": 259.19090000000006,
      "v": 55
    },
    {
      "midi": 61,
      "hit": false,
      "t": 2966.908600000001,
      "d": 275.7350000000001,
      "v": 53
    },
    {
      "midi": 64,
      "hit": false,
      "t": 3264.702400000001,
      "d": 251.83796666666694,
      "v": 44
    },
    {
      "midi": 35,
      "hit": false,
      "t": 3466.9080666666678,
      "d": 3286.7612,
      "v": 57
    },
    {
      "midi": 47,
      "hit": false,
      "t": 3544.113866666668,
      "d": 3220.5848,
      "v": 47
    },
    {
      "midi": 56,
      "hit": false,
      "t": 3560.657966666668,
      "d": 376.8378333333335,
      "v": 59
    },
    {
      "midi": 61,
      "hit": false,
      "t": 3865.8047000000015,
      "d": 255.51443333333373,
      "v": 53
    },
    {
      "midi": 64,
      "hit": false,
      "t": 4147.054400000002,
      "d": 264.70560000000023,
      "v": 55
    },
    {
      "midi": 56,
      "hit": false,
      "t": 4454.039366666669,
      "d": 306.98496666666597,
      "v": 59
    },
    {
      "midi": 61,
      "hit": false,
      "t": 4713.230266666668,
      "d": 262.8673666666664,
      "v": 75
    },
    {
      "midi": 64,
      "hit": false,
      "t": 5005.509366666668,
      "d": 249.9997333333331,
      "v": 68
    },
    {
      "midi": 56,
      "hit": false,
      "t": 5303.3031666666675,
      "d": 301.47026666666716,
      "v": 75
    },
    {
      "midi": 61,
      "hit": false,
      "t": 5571.6852333333345,
      "d": 261.02913333333345,
      "v": 83
    },
    {
      "midi": 64,
      "hit": false,
      "t": 5871.317266666668,
      "d": 279.41146666666646,
      "v": 72
    },
    {
      "midi": 56,
      "hit": false,
      "t": 6191.169866666668,
      "d": 299.6320333333333,
      "v": 68
    },
    {
      "midi": 61,
      "hit": false,
      "t": 6494.478366666668,
      "d": 321.6908333333331,
      "v": 71
    },
    {
      "midi": 64,
      "hit": false,
      "t": 6794.110400000001,
      "d": 268.3820666666661,
      "v": 65
    },
    {
      "midi": 33,
      "hit": false,
      "t": 7033.080733333334,
      "d": 1316.1750666666667,
      "v": 53
    },
    {
      "midi": 45,
      "hit": false,
      "t": 7038.595433333334,
      "d": 1257.3516,
      "v": 50
    },
    {
      "midi": 57,
      "hit": false,
      "t": 7071.683633333334,
      "d": 547.7935333333326,
      "v": 73
    },
    {
      "midi": 61,
      "hit": false,
      "t": 7374.992133333333,
      "d": 299.6320333333333,
      "v": 86
    },
    {
      "midi": 64,
      "hit": false,
      "t": 7672.785933333334,
      "d": 310.66143333333275,
      "v": 92
    },
    {
      "midi": 57,
      "hit": false,
      "t": 7983.447366666666,
      "d": 527.5729666666675,
      "v": 88
    },
    {
      "midi": 61,
      "hit": false,
      "t": 8268.373533333333,
      "d": 266.54383333333317,
      "v": 102
    },
    {
      "midi": 64,
      "hit": false,
      "t": 8547.785,
      "d": 292.27909999999974,
      "v": 88
    },
    {
      "midi": 30,
      "hit": false,
      "t": 8755.505366666666,
      "d": 1345.586800000001,
      "v": 78
    },
    {
      "midi": 57,
      "hit": false,
      "t": 8863.961133333332,
      "d": 523.8965000000007,
      "v": 80
    },
    {
      "midi": 42,
      "hit": false,
      "t": 8895.211099999999,
      "d": 1533.0866000000024,
      "v": 52
    },
    {
      "midi": 62,
      "hit": false,
      "t": 9163.593166666666,
      "d": 277.57323333333443,
      "v": 79
    },
    {
      "midi": 66,
      "hit": false,
      "t": 9444.842866666666,
      "d": 273.89676666666674,
      "v": 76
    },
    {
      "midi": 57,
      "hit": false,
      "t": 9764.695466666666,
      "d": 382.3525333333346,
      "v": 62
    },
    {
      "midi": 62,
      "hit": false,
      "t": 10066.165733333333,
      "d": 270.22030000000086,
      "v": 50
    },
    {
      "midi": 66,
      "hit": false,
      "t": 10347.415433333334,
      "d": 299.6320333333333,
      "v": 67
    },
    {
      "midi": 32,
      "hit": false,
      "t": 10443.003566666668,
      "d": 3152.570166666661,
      "v": 47
    },
    {
      "midi": 44,
      "hit": false,
      "t": 10663.591566666666,
      "d": 3196.687766666664,
      "v": 42
    },
    {
      "midi": 56,
      "hit": false,
      "t": 10665.4298,
      "d": 402.5730999999996,
      "v": 55
    },
    {
      "midi": 60,
      "hit": false,
      "t": 10996.3118,
      "d": 264.7055999999993,
      "v": 47
    },
    {
      "midi": 66,
      "hit": false,
      "t": 11262.855633333333,
      "d": 224.26446666666743,
      "v": 60
    },
    {
      "midi": 56,
      "hit": false,
      "t": 11580.87,
      "d": 362.1319666666659,
      "v": 64
    },
    {
      "midi": 61,
      "hit": false,
      "t": 11845.5756,
      "d": 238.97033333333275,
      "v": 69
    },
    {
      "midi": 64,
      "hit": false,
      "t": 12136.016466666666,
      "d": 235.29386666666687,
      "v": 46
    },
    {
      "midi": 56,
      "hit": false,
      "t": 12397.0456,
      "d": 525.7347333333328,
      "v": 62
    },
    {
      "midi": 61,
      "hit": false,
      "t": 12667.265899999999,
      "d": 233.45563333333303,
      "v": 61
    },
    {
      "midi": 63,
      "hit": false,
      "t": 12939.324433333331,
      "d": 303.3084999999992,
      "v": 62
    },
    {
      "midi": 54,
      "hit": false,
      "t": 13261.015266666664,
      "d": 534.9258999999984,
      "v": 60
    },
    {
      "midi": 60,
      "hit": false,
      "t": 13558.809066666663,
      "d": 294.1173333333336,
      "v": 59
    },
    {
      "midi": 63,
      "hit": false,
      "t": 13851.088166666663,
      "d": 156.2498333333333,
      "v": 50
    },
    {
      "midi": 37,
      "hit": false,
      "t": 13996.308599999997,
      "d": 3591.9079333333284,
      "v": 42
    },
    {
      "midi": 44,
      "hit": false,
      "t": 14102.926133333329,
      "d": 3562.496199999996,
      "v": 41
    },
    {
      "midi": 52,
      "hit": false,
      "t": 14163.58783333333,
      "d": 485.29359999999906,
      "v": 64
    },
    {
      "midi": 49,
      "hit": false,
      "t": 14202.19073333333,
      "d": 3240.8053666666638,
      "v": 26
    },
    {
      "midi": 56,
      "hit": false,
      "t": 14454.028699999995,
      "d": 314.3378999999986,
      "v": 51
    },
    {
      "midi": 61,
      "hit": false,
      "t": 14731.601933333328,
      "d": 181.98509999999987,
      "v": 62
    },
    {
      "midi": 56,
      "hit": false,
      "t": 15042.26336666666,
      "d": 262.8673666666673,
      "v": 48
    },
    {
      "midi": 61,
      "hit": false,
      "t": 15334.54246666666,
      "d": 231.61739999999918,
      "v": 67
    },
    {
      "midi": 64,
      "hit": false,
      "t": 15650.718599999993,
      "d": 248.16150000000016,
      "v": 52
    },
    {
      "midi": 56,
      "hit": false,
      "t": 15954.027099999994,
      "d": 288.60263333333387,
      "v": 47
    },
    {
      "midi": 61,
      "hit": false,
      "t": 16281.232633333328,
      "d": 253.67619999999988,
      "v": 55
    },
    {
      "midi": 64,
      "hit": false,
      "t": 16556.967633333326,
      "d": 205.8821333333326,
      "v": 50
    },
    {
      "midi": 56,
      "hit": false,
      "t": 16715.055699999994,
      "d": 544.1170666666658,
      "v": 75
    },
    {
      "midi": 68,
      "hit": false,
      "t": 16860.276133333326,
      "d": 485.2936000000009,
      "v": 106
    },
    {
      "midi": 61,
      "hit": false,
      "t": 17187.48166666666,
      "d": 240.8085666666666,
      "v": 92
    },
    {
      "midi": 64,
      "hit": false,
      "t": 17413.58436666666,
      "d": 169.1174666666666,
      "v": 72
    },
    {
      "midi": 68,
      "hit": false,
      "t": 17582.701833333325,
      "d": 91.91166666666686,
      "v": 100
    },
    {
      "midi": 44,
      "hit": false,
      "t": 17720.569333333326,
      "d": 3207.717166666669,
      "v": 38
    },
    {
      "midi": 48,
      "hit": false,
      "t": 17731.598733333325,
      "d": 3154.408400000004,
      "v": 68
    },
    {
      "midi": 56,
      "hit": false,
      "t": 17740.789899999992,
      "d": 433.8230666666677,
      "v": 104
    },
    {
      "midi": 68,
      "hit": false,
      "t": 17744.46636666666,
      "d": 2273.8946333333333,
      "v": 108
    },
    {
      "midi": 36,
      "hit": false,
      "t": 17748.142833333328,
      "d": 2974.2615333333342,
      "v": 62
    },
    {
      "midi": 63,
      "hit": false,
      "t": 18075.34836666666,
      "d": 235.29386666666687,
      "v": 62
    },
    {
      "midi": 66,
      "hit": false,
      "t": 18321.671633333328,
      "d": 264.70560000000114,
      "v": 68
    },
    {
      "midi": 56,
      "hit": false,
      "t": 18648.87716666666,
      "d": 231.61739999999918,
      "v": 64
    },
    {
      "midi": 63,
      "hit": false,
      "t": 18902.55336666666,
      "d": 235.29386666666687,
      "v": 48
    },
    {
      "midi": 66,
      "hit": false,
      "t": 19158.067799999993,
      "d": 220.58799999999974,
      "v": 62
    },
    {
      "midi": 56,
      "hit": false,
      "t": 19444.832199999993,
      "d": 275.7350000000006,
      "v": 56
    },
    {
      "midi": 63,
      "hit": false,
      "t": 19731.596599999993,
      "d": 246.3232666666663,
      "v": 42
    },
    {
      "midi": 66,
      "hit": false,
      "t": 20001.816899999994,
      "d": 205.8821333333326,
      "v": 61
    },
    {
      "midi": 68,
      "hit": false,
      "t": 20277.551899999995,
      "d": 457.72009999999864,
      "v": 104
    },
    {
      "midi": 56,
      "hit": false,
      "t": 20284.904833333327,
      "d": 439.33776666666745,
      "v": 98
    },
    {
      "midi": 63,
      "hit": false,
      "t": 20610.27213333333,
      "d": 180.14686666666603,
      "v": 67
    },
    {
      "midi": 66,
      "hit": false,
      "t": 20845.565999999995,
      "d": 110.29399999999805,
      "v": 75
    },
    {
      "midi": 68,
      "hit": false,
      "t": 21005.492299999994,
      "d": 110.29400000000169,
      "v": 98
    },
    {
      "midi": 37,
      "hit": false,
      "t": 21148.874499999994,
      "d": 1154.4105333333318,
      "v": 38
    },
    {
      "midi": 68,
      "hit": false,
      "t": 21187.477399999992,
      "d": 1389.7043999999987,
      "v": 86
    },
    {
      "midi": 44,
      "hit": false,
      "t": 21202.18326666666,
      "d": 1056.9841666666653,
      "v": 43
    },
    {
      "midi": 56,
      "hit": false,
      "t": 21204.02149999999,
      "d": 371.3231333333315,
      "v": 92
    },
    {
      "midi": 49,
      "hit": false,
      "t": 21215.05089999999,
      "d": 920.9549000000006,
      "v": 37
    },
    {
      "midi": 61,
      "hit": false,
      "t": 21496.30059999999,
      "d": 240.8085666666666,
      "v": 83
    },
    {
      "midi": 64,
      "hit": false,
      "t": 21775.71206666666,
      "d": 283.08793333333233,
      "v": 56
    },
    {
      "midi": 56,
      "hit": false,
      "t": 22069.82939999999,
      "d": 248.16150000000198,
      "v": 57
    },
    {
      "midi": 61,
      "hit": false,
      "t": 22319.829133333325,
      "d": 415.4407333333329,
      "v": 65
    },
    {
      "midi": 64,
      "hit": false,
      "t": 22593.72589999999,
      "d": 205.88213333333624,
      "v": 61
    },
    {
      "midi": 30,
      "hit": false,
      "t": 22716.887533333324,
      "d": 1066.1753333333436,
      "v": 67
    },
    {
      "midi": 57,
      "hit": false,
      "t": 22795.93156666666,
      "d": 902.5725666666731,
      "v": 64
    },
    {
      "midi": 42,
      "hit": false,
      "t": 22874.975599999994,
      "d": 999.9989333333397,
      "v": 37
    },
    {
      "midi": 69,
      "hit": false,
      "t": 22946.666699999994,
      "d": 630.5140333333366,
      "v": 100
    },
    {
      "midi": 61,
      "hit": false,
      "t": 23257.32813333333,
      "d": 253.6762000000017,
      "v": 83
    },
    {
      "midi": 66,
      "hit": false,
      "t": 23523.871966666666,
      "d": 224.26446666666743,
      "v": 73
    },
    {
      "midi": 57,
      "hit": false,
      "t": 23795.930500000002,
      "d": 400.73486666666577,
      "v": 55
    },
    {
      "midi": 61,
      "hit": false,
      "t": 24086.371366666666,
      "d": 240.8085666666666,
      "v": 67
    },
    {
      "midi": 66,
      "hit": false,
      "t": 24380.488699999998,
      "d": 176.47040000000197,
      "v": 47
    },
    {
      "midi": 35,
      "hit": false,
      "t": 24536.738533333333,
      "d": 1619.4835666666695,
      "v": 45
    },
    {
      "midi": 56,
      "hit": false,
      "t": 24610.267866666665,
      "d": 667.2787000000026,
      "v": 61
    },
    {
      "midi": 47,
      "hit": false,
      "t": 24628.6502,
      "d": 1674.6305666666667,
      "v": 33
    },
    {
      "midi": 68,
      "hit": false,
      "t": 24737.105966666666,
      "d": 1229.7781000000032,
      "v": 79
    },
    {
      "midi": 59,
      "hit": false,
      "t": 25027.546833333334,
      "d": 235.29386666666687,
      "v": 47
    },
    {
      "midi": 64,
      "hit": false,
      "t": 25329.0171,
      "d": 257.35266666666575,
      "v": 45
    },
    {
      "midi": 56,
      "hit": false,
      "t": 25610.2668,
      "d": 306.9849666666669,
      "v": 51
    },
    {
      "midi": 59,
      "hit": false,
      "t": 25909.898833333336,
      "d": 299.6320333333315,
      "v": 54
    },
    {
      "midi": 64,
      "hit": false,
      "t": 26198.50146666667,
      "d": 174.6321666666663,
      "v": 46
    },
    {
      "midi": 35,
      "hit": false,
      "t": 26444.824733333335,
      "d": 1336.3956333333335,
      "v": 54
    },
    {
      "midi": 66,
      "hit": false,
      "t": 26461.368833333334,
      "d": 404.41133333333346,
      "v": 76
    },
    {
      "midi": 57,
      "hit": false,
      "t": 26466.883533333334,
      "d": 365.8084333333354,
      "v": 65
    },
    {
      "midi": 47,
      "hit": false,
      "t": 26472.398233333333,
      "d": 1452.204333333335,
      "v": 36
    },
    {
      "midi": 59,
      "hit": false,
      "t": 26812.471400000002,
      "d": 341.91139999999723,
      "v": 54
    },
    {
      "midi": 63,
      "hit": false,
      "t": 27062.471133333333,
      "d": 130.51456666666854,
      "v": 61
    },
    {
      "midi": 57,
      "hit": false,
      "t": 27272.029733333333,
      "d": 264.70560000000114,
      "v": 62
    },
    {
      "midi": 71,
      "hit": false,
      "t": 27476.073633333333,
      "d": 209.5586000000003,
      "v": 94
    },
    {
      "midi": 59,
      "hit": false,
      "t": 27709.52926666667,
      "d": 323.52906666666604,
      "v": 76
    },
    {
      "midi": 63,
      "hit": false,
      "t": 27987.1025,
      "d": 75.3675666666677,
      "v": 76
    },
    {
      "midi": 40,
      "hit": false,
      "t": 28187.469933333334,
      "d": 3220.584799999997,
      "v": 45
    },
    {
      "midi": 52,
      "hit": false,
      "t": 28286.734533333332,
      "d": 3288.599433333333,
      "v": 60
    },
    {
      "midi": 56,
      "hit": false,
      "t": 28303.27863333333,
      "d": 624.9993333333332,
      "v": 78
    },
    {
      "midi": 64,
      "hit": false,
      "t": 28461.3667,
      "d": 292.27909999999974,
      "v": 86
    },
    {
      "midi": 59,
      "hit": false,
      "t": 28751.807566666666,
      "d": 191.17626666666547,
      "v": 48
    },
    {
      "midi": 64,
      "hit": false,
      "t": 28983.424966666666,
      "d": 233.45563333333484,
      "v": 41
    },
    {
      "midi": 56,
      "hit": false,
      "t": 29242.615866666667,
      "d": 292.27909999999974,
      "v": 62
    },
    {
      "midi": 59,
      "hit": false,
      "t": 29545.924366666666,
      "d": 200.36743333333288,
      "v": 42
    },
    {
      "midi": 64,
      "hit": false,
      "t": 29792.247633333332,
      "d": 253.6762000000017,
      "v": 51
    },
    {
      "midi": 56,
      "hit": false,
      "t": 30077.1738,
      "d": 277.5732333333326,
      "v": 57
    },
    {
      "midi": 59,
      "hit": false,
      "t": 30360.261733333333,
      "d": 183.82333333333372,
      "v": 45
    },
    {
      "midi": 64,
      "hit": false,
      "t": 30626.805566666666,
      "d": 253.6762000000017,
      "v": 41
    },
    {
      "midi": 56,
      "hit": false,
      "t": 30906.217033333334,
      "d": 299.6320333333315,
      "v": 50
    },
    {
      "midi": 59,
      "hit": false,
      "t": 31204.010833333334,
      "d": 292.2790999999961,
      "v": 48
    },
    {
      "midi": 64,
      "hit": false,
      "t": 31505.481099999997,
      "d": 246.32326666666995,
      "v": 45
    },
    {
      "midi": 40,
      "hit": false,
      "t": 31641.510366666666,
      "d": 3522.055066666664,
      "v": 38
    },
    {
      "midi": 55,
      "hit": false,
      "t": 31773.863166666666,
      "d": 450.36716666666325,
      "v": 54
    },
    {
      "midi": 52,
      "hit": false,
      "t": 31806.951366666664,
      "d": 3249.996533333335,
      "v": 36
    },
    {
      "midi": 59,
      "hit": false,
      "t": 32058.78933333333,
      "d": 240.8085666666666,
      "v": 47
    },
    {
      "midi": 64,
      "hit": false,
      "t": 32336.362566666663,
      "d": 279.4114666666683,
      "v": 42
    },
    {
      "midi": 55,
      "hit": false,
      "t": 32634.156366666666,
      "d": 301.47026666666716,
      "v": 45
    },
    {
      "midi": 59,
      "hit": false,
      "t": 32909.89136666666,
      "d": 211.3968333333396,
      "v": 47
    },
    {
      "midi": 64,
      "hit": false,
      "t": 33189.302833333335,
      "d": 259.1909000000014,
      "v": 51
    },
    {
      "midi": 55,
      "hit": false,
      "t": 33503.64073333333,
      "d": 347.42609999999695,
      "v": 47
    },
    {
      "midi": 59,
      "hit": false,
      "t": 33858.419766666666,
      "d": 242.64680000000226,
      "v": 40
    },
    {
      "midi": 64,
      "hit": false,
      "t": 34170.919433333336,
      "d": 145.22043333333568,
      "v": 48
    },
    {
      "midi": 55,
      "hit": false,
      "t": 34363.93393333334,
      "d": 472.42596666666213,
      "v": 69
    },
    {
      "midi": 67,
      "hit": false,
      "t": 34472.38970000001,
      "d": 402.57309999999416,
      "v": 106
    },
    {
      "midi": 59,
      "hit": false,
      "t": 34779.37466666667,
      "d": 207.720366666661,
      "v": 76
    },
    {
      "midi": 64,
      "hit": false,
      "t": 35023.8597,
      "d": 112.13223333333008,
      "v": 88
    },
    {
      "midi": 67,
      "hit": false,
      "t": 35196.65363333333,
      "d": 123.1616333333368,
      "v": 100
    },
    {
      "midi": 50,
      "hit": false,
      "t": 35362.09463333333,
      "d": 3082.7172999999893,
      "v": 58
    },
    {
      "midi": 55,
      "hit": false,
      "t": 35363.93286666666,
      "d": 272.05853333332925,
      "v": 88
    },
    {
      "midi": 67,
      "hit": false,
      "t": 35363.93286666666,
      "d": 503.67593333333207,
      "v": 78
    },
    {
      "midi": 38,
      "hit": false,
      "t": 35373.124033333326,
      "d": 3148.893699999986,
      "v": 59
    },
    {
      "midi": 59,
      "hit": false,
      "t": 35630.47669999999,
      "d": 238.9703333333382,
      "v": 80
    },
    {
      "midi": 65,
      "hit": false,
      "t": 35908.04993333333,
      "d": 226.1027000000031,
      "v": 64
    },
    {
      "midi": 55,
      "hit": false,
      "t": 36192.9761,
      "d": 261.0291333333298,
      "v": 59
    },
    {
      "midi": 59,
      "hit": false,
      "t": 36472.387566666664,
      "d": 216.91153333333205,
      "v": 62
    },
    {
      "midi": 65,
      "hit": false,
      "t": 36770.181366666664,
      "d": 242.64680000000226,
      "v": 56
    },
    {
      "midi": 55,
      "hit": false,
      "t": 37080.8428,
      "d": 283.08793333333597,
      "v": 43
    },
    {
      "midi": 59,
      "hit": false,
      "t": 37384.1513,
      "d": 233.4556333333312,
      "v": 55
    },
    {
      "midi": 65,
      "hit": false,
      "t": 37715.033299999996,
      "d": 124.99986666666518,
      "v": 21
    },
    {
      "midi": 67,
      "hit": false,
      "t": 37957.68009999999,
      "d": 397.05839999999444,
      "v": 90
    },
    {
      "midi": 55,
      "hit": false,
      "t": 37966.871266666654,
      "d": 237.13210000000254,
      "v": 72
    },
    {
      "midi": 59,
      "hit": false,
      "t": 38270.17976666665,
      "d": 145.2204333333284,
      "v": 65
    },
    {
      "midi": 65,
      "hit": false,
      "t": 38505.47363333331,
      "d": 102.9410666666663,
      "v": 47
    },
    {
      "midi": 67,
      "hit": false,
      "t": 38647.01759999998,
      "d": 91.91166666666686,
      "v": 82
    },
    {
      "midi": 67,
      "hit": false,
      "t": 38812.458599999976,
      "d": 2249.997599999995,
      "v": 88
    },
    {
      "midi": 55,
      "hit": false,
      "t": 38825.32623333331,
      "d": 301.4702666666635,
      "v": 71
    },
    {
      "midi": 36,
      "hit": false,
      "t": 38849.223266666646,
      "d": 470.58773333332647,
      "v": 53
    },
    {
      "midi": 48,
      "hit": false,
      "t": 38865.767366666645,
      "d": 411.76426666665793,
      "v": 32
    },
    {
      "midi": 60,
      "hit": false,
      "t": 39130.47296666664,
      "d": 240.8085666666666,
      "v": 72
    },
    {
      "midi": 64,
      "hit": false,
      "t": 39382.310933333305,
      "d": 233.4556333333312,
      "v": 78
    },
    {
      "midi": 55,
      "hit": false,
      "t": 39654.36946666664,
      "d": 397.05839999999444,
      "v": 86
    },
    {
      "midi": 35,
      "hit": false,
      "t": 39659.88416666664,
      "d": 544.1170666666585,
      "v": 76
    },
    {
      "midi": 47,
      "hit": false,
      "t": 39661.72239999998,
      "d": 602.9405333333198,
      "v": 68
    },
    {
      "midi": 59,
      "hit": false,
      "t": 39979.73676666664,
      "d": 227.9409333333242,
      "v": 82
    },
    {
      "midi": 64,
      "hit": false,
      "t": 40242.6041333333,
      "d": 281.2497000000003,
      "v": 78
    },
    {
      "midi": 34,
      "hit": false,
      "t": 40437.45686666663,
      "d": 1707.7187666666723,
      "v": 69
    },
    {
      "midi": 55,
      "hit": false,
      "t": 40566.13319999996,
      "d": 465.0730333333413,
      "v": 86
    },
    {
      "midi": 46,
      "hit": false,
      "t": 40602.89786666663,
      "d": 1437.4984666666714,
      "v": 67
    },
    {
      "midi": 61,
      "hit": false,
      "t": 40898.8534333333,
      "d": 481.61713333334046,
      "v": 83
    },
    {
      "midi": 64,
      "hit": false,
      "t": 41172.75019999997,
      "d": 191.1762666666691,
      "v": 68
    },
    {
      "midi": 66,
      "hit": false,
      "t": 41452.16166666664,
      "d": 461.3965666666627,
      "v": 96
    },
    {
      "midi": 54,
      "hit": false,
      "t": 41457.67636666664,
      "d": 389.7054666666663,
      "v": 96
    },
    {
      "midi": 61,
      "hit": false,
      "t": 41799.587766666635,
      "d": 165.4409999999989,
      "v": 78
    },
    {
      "midi": 64,
      "hit": false,
      "t": 42012.8228333333,
      "d": 99.26460000000225,
      "v": 82
    },
    {
      "midi": 66,
      "hit": false,
      "t": 42174.58736666664,
      "d": 1496.3219333333254,
      "v": 90
    },
    {
      "midi": 54,
      "hit": false,
      "t": 42319.807799999966,
      "d": 345.5878666666613,
      "v": 94
    },
    {
      "midi": 35,
      "hit": false,
      "t": 42328.99896666663,
      "d": 1005.5136333333285,
      "v": 71
    },
    {
      "midi": 47,
      "hit": false,
      "t": 42334.51366666663,
      "d": 906.2490333333262,
      "v": 64
    },
    {
      "midi": 59,
      "hit": false,
      "t": 42623.11629999996,
      "d": 266.5438333333368,
      "v": 65
    },
    {
      "midi": 62,
      "hit": false,
      "t": 42902.52776666663,
      "d": 299.63203333332785,
      "v": 62
    },
    {
      "midi": 54,
      "hit": false,
      "t": 43187.453933333294,
      "d": 349.2643333333326,
      "v": 79
    },
    {
      "midi": 59,
      "hit": false,
      "t": 43505.46829999996,
      "d": 294.1173333333427,
      "v": 58
    },
    {
      "midi": 61,
      "hit": false,
      "t": 43770.173899999965,
      "d": 226.1027000000031,
      "v": 80
    },
    {
      "midi": 67,
      "hit": false,
      "t": 44047.7471333333,
      "d": 525.7347333333382,
      "v": 79
    },
    {
      "midi": 55,
      "hit": false,
      "t": 44062.452999999965,
      "d": 457.7201000000059,
      "v": 60
    },
    {
      "midi": 28,
      "hit": false,
      "t": 44080.8353333333,
      "d": 308.8232000000062,
      "v": 53
    },
    {
      "midi": 40,
      "hit": false,
      "t": 44106.57059999997,
      "d": 534.925900000002,
      "v": 27
    },
    {
      "midi": 59,
      "hit": false,
      "t": 44387.82029999997,
      "d": 329.0437666666694,
      "v": 55
    },
    {
      "midi": 61,
      "hit": false,
      "t": 44659.87883333331,
      "d": 123.16163333332952,
      "v": 71
    },
    {
      "midi": 31,
      "hit": false,
      "t": 44801.42279999997,
      "d": 551.4700000000012,
      "v": 52
    },
    {
      "midi": 43,
      "hit": false,
      "t": 44948.481466666635,
      "d": 433.82306666667137,
      "v": 41
    },
    {
      "midi": 64,
      "hit": false,
      "t": 44970.540266666634,
      "d": 435.66130000000703,
      "v": 59
    },
    {
      "midi": 52,
      "hit": false,
      "t": 45010.98139999997,
      "d": 373.16136666667444,
      "v": 37
    },
    {
      "midi": 59,
      "hit": false,
      "t": 45330.83399999997,
      "d": 283.08793333333597,
      "v": 52
    },
    {
      "midi": 61,
      "hit": false,
      "t": 45584.510199999975,
      "d": 102.9410666666663,
      "v": 62
    },
    {
      "midi": 54,
      "hit": false,
      "t": 45893.333399999974,
      "d": 408.08780000000115,
      "v": 50
    },
    {
      "midi": 66,
      "hit": false,
      "t": 45895.17163333331,
      "d": 1417.2779000000082,
      "v": 58
    },
    {
      "midi": 42,
      "hit": false,
      "t": 45928.25983333331,
      "d": 1477.9396000000052,
      "v": 35
    },
    {
      "midi": 59,
      "hit": false,
      "t": 46242.59773333331,
      "d": 237.13210000000254,
      "v": 41
    },
    {
      "midi": 62,
      "hit": false,
      "t": 46514.65626666664,
      "d": 202.20566666666855,
      "v": 43
    },
    {
      "midi": 54,
      "hit": false,
      "t": 46757.303066666645,
      "d": 336.3967000000048,
      "v": 51
    },
    {
      "midi": 59,
      "hit": false,
      "t": 47091.861533333315,
      "d": 275.7350000000006,
      "v": 37
    },
    {
      "midi": 62,
      "hit": false,
      "t": 47367.596533333315,
      "d": 148.89689999999973,
      "v": 42
    },
    {
      "midi": 30,
      "hit": false,
      "t": 47613.91979999998,
      "d": 981.6166000000012,
      "v": 55
    },
    {
      "midi": 42,
      "hit": false,
      "t": 47621.27273333332,
      "d": 1047.7929999999978,
      "v": 35
    },
    {
      "midi": 66,
      "hit": false,
      "t": 47623.11096666665,
      "d": 1494.483699999997,
      "v": 58
    },
    {
      "midi": 54,
      "hit": false,
      "t": 47637.816833333316,
      "d": 534.9258999999947,
      "v": 40
    },
    {
      "midi": 58,
      "hit": false,
      "t": 47942.96356666664,
      "d": 277.57323333333625,
      "v": 54
    },
    {
      "midi": 61,
      "hit": false,
      "t": 48259.13969999998,
      "d": 207.72036666666827,
      "v": 44
    },
    {
      "midi": 54,
      "hit": false,
      "t": 48523.84529999998,
      "d": 268.3820666666725,
      "v": 52
    },
    {
      "midi": 58,
      "hit": false,
      "t": 48803.25676666665,
      "d": 338.2349333333332,
      "v": 58
    },
    {
      "midi": 61,
      "hit": false,
      "t": 49110.241733333314,
      "d": 60.6617000000042,
      "v": 61
    },
    {
      "midi": 35,
      "hit": false,
      "t": 49402.52083333332,
      "d": 3819.8488666666744,
      "v": 55
    },
    {
      "midi": 47,
      "hit": false,
      "t": 49402.52083333332,
      "d": 3935.657566666676,
      "v": 42
    },
    {
      "midi": 59,
      "hit": false,
      "t": 49420.903166666656,
      "d": 393.3819333333304,
      "v": 56
    },
    {
      "midi": 62,
      "hit": false,
      "t": 49751.785166666654,
      "d": 205.8821333333326,
      "v": 27
    },
    {
      "midi": 66,
      "hit": false,
      "t": 49994.431966666656,
      "d": 246.3232666666663,
      "v": 53
    },
    {
      "midi": 59,
      "hit": false,
      "t": 50316.12279999999,
      "d": 323.5290666666624,
      "v": 48
    },
    {
      "midi": 62,
      "hit": false,
      "t": 50595.534266666655,
      "d": 286.7644,
      "v": 50
    },
    {
      "midi": 66,
      "hit": false,
      "t": 50876.783966666655,
      "d": 248.16150000000198,
      "v": 59
    },
    {
      "midi": 59,
      "hit": false,
      "t": 51194.798333333325,
      "d": 420.955433333329,
      "v": 46
    },
    {
      "midi": 63,
      "hit": false,
      "t": 51455.827466666655,
      "d": 238.97033333333093,
      "v": 43
    },
    {
      "midi": 66,
      "hit": false,
      "t": 51753.621266666654,
      "d": 137.8675000000003,
      "v": 57
    },
    {
      "midi": 59,
      "hit": false,
      "t": 51933.768133333324,
      "d": 650.7346000000034,
      "v": 61
    },
    {
      "midi": 71,
      "hit": false,
      "t": 52047.73859999999,
      "d": 507.3524000000034,
      "v": 92
    },
    {
      "midi": 63,
      "hit": false,
      "t": 52352.885333333325,
      "d": 297.79379999999946,
      "v": 67
    },
    {
      "midi": 66,
      "hit": false,
      "t": 52612.076233333326,
      "d": 93.74989999999525,
      "v": 75
    },
    {
      "midi": 59,
      "hit": false,
      "t": 52749.94373333332,
      "d": 799.6315000000104,
      "v": 80
    },
    {
      "midi": 72,
      "hit": false,
      "t": 52895.164166666655,
      "d": 2455.8797333333205,
      "v": 102
    },
    {
      "midi": 64,
      "hit": false,
      "t": 53248.104966666666,
      "d": 336.3966999999975,
      "v": 69
    },
    {
      "midi": 67,
      "hit": false,
      "t": 53527.51643333333,
      "d": 233.4556333333312,
      "v": 65
    },
    {
      "midi": 40,
      "hit": false,
      "t": 53786.70733333333,
      "d": 336.3966999999975,
      "v": 48
    },
    {
      "midi": 52,
      "hit": false,
      "t": 53792.22203333333,
      "d": 531.2494333333307,
      "v": 59
    },
    {
      "midi": 59,
      "hit": false,
      "t": 53792.22203333333,
      "d": 591.9111333333276,
      "v": 71
    },
    {
      "midi": 64,
      "hit": false,
      "t": 54104.721699999995,
      "d": 330.8819999999978,
      "v": 71
    },
    {
      "midi": 67,
      "hit": false,
      "t": 54384.13316666666,
      "d": 290.4408666666641,
      "v": 61
    },
    {
      "midi": 59,
      "hit": false,
      "t": 54685.60343333332,
      "d": 485.29359999998996,
      "v": 69
    },
    {
      "midi": 55,
      "hit": false,
      "t": 54700.309299999986,
      "d": 189.33803333332617,
      "v": 59
    },
    {
      "midi": 43,
      "hit": false,
      "t": 54703.98576666665,
      "d": 283.0879333333287,
      "v": 67
    },
    {
      "midi": 64,
      "hit": false,
      "t": 54987.07369999998,
      "d": 488.9700666666613,
      "v": 61
    },
    {
      "midi": 67,
      "hit": false,
      "t": 55284.86749999998,
      "d": 207.720366666661,
      "v": 75
    },
    {
      "midi": 52,
      "hit": false,
      "t": 55533.02899999997,
      "d": 428.30836666666437,
      "v": 38
    },
    {
      "midi": 59,
      "hit": false,
      "t": 55569.793666666636,
      "d": 343.7496333333329,
      "v": 82
    },
    {
      "midi": 70,
      "hit": false,
      "t": 55582.66129999997,
      "d": 327.20553333333373,
      "v": 55
    },
    {
      "midi": 40,
      "hit": false,
      "t": 55591.852466666634,
      "d": 448.52893333333486,
      "v": 24
    },
    {
      "midi": 64,
      "hit": false,
      "t": 55908.02859999997,
      "d": 380.51430000000255,
      "v": 71
    },
    {
      "midi": 67,
      "hit": false,
      "t": 56202.145933333304,
      "d": 185.6615666666694,
      "v": 75
    },
    {
      "midi": 35,
      "hit": false,
      "t": 56441.11626666664,
      "d": 3823.5253333333167,
      "v": 47
    },
    {
      "midi": 47,
      "hit": false,
      "t": 56453.98389999998,
      "d": 3920.951699999976,
      "v": 37
    },
    {
      "midi": 71,
      "hit": false,
      "t": 56465.01329999998,
      "d": 2374.997466666653,
      "v": 65
    },
    {
      "midi": 59,
      "hit": false,
      "t": 56476.042699999976,
      "d": 531.2494333333234,
      "v": 52
    },
    {
      "midi": 63,
      "hit": false,
      "t": 56808.7629333333,
      "d": 237.13209999999526,
      "v": 49
    },
    {
      "midi": 66,
      "hit": false,
      "t": 57077.14499999997,
      "d": 238.97033333333093,
      "v": 60
    },
    {
      "midi": 59,
      "hit": false,
      "t": 57384.12996666663,
      "d": 444.85246666666353,
      "v": 39
    },
    {
      "midi": 63,
      "hit": false,
      "t": 57639.64439999996,
      "d": 233.4556333333312,
      "v": 40
    },
    {
      "midi": 66,
      "hit": false,
      "t": 57908.026466666626,
      "d": 268.3820666666652,
      "v": 57
    },
    {
      "midi": 59,
      "hit": false,
      "t": 58233.393766666624,
      "d": 498.1612333333396,
      "v": 45
    },
    {
      "midi": 63,
      "hit": false,
      "t": 58516.48169999996,
      "d": 547.7935333333371,
      "v": 46
    },
    {
      "midi": 66,
      "hit": false,
      "t": 58836.334299999966,
      "d": 227.9409333333315,
      "v": 53
    },
    {
      "midi": 71,
      "hit": false,
      "t": 59134.128099999965,
      "d": 529.411199999995,
      "v": 82
    },
    {
      "midi": 59,
      "hit": false,
      "t": 59148.83396666663,
      "d": 454.0436333333346,
      "v": 69
    },
    {
      "midi": 63,
      "hit": false,
      "t": 59431.921899999965,
      "d": 310.6614333333273,
      "v": 64
    },
    {
      "midi": 66,
      "hit": false,
      "t": 59669.05399999996,
      "d": 121.32340000000113,
      "v": 69
    },
    {
      "midi": 59,
      "hit": false,
      "t": 59830.818533333295,
      "d": 783.0873999999822,
      "v": 82
    },
    {
      "midi": 72,
      "hit": false,
      "t": 59979.715433333295,
      "d": 2259.188766666637,
      "v": 90
    },
    {
      "midi": 64,
      "hit": false,
      "t": 60303.24449999996,
      "d": 295.9555666666565,
      "v": 76
    },
    {
      "midi": 67,
      "hit": false,
      "t": 60584.49419999995,
      "d": 226.10269999999582,
      "v": 69
    },
    {
      "midi": 40,
      "hit": false,
      "t": 60854.714499999944,
      "d": 391.5436999999947,
      "v": 57
    },
    {
      "midi": 59,
      "hit": false,
      "t": 60856.55273333328,
      "d": 556.9846999999863,
      "v": 62
    },
    {
      "midi": 52,
      "hit": false,
      "t": 60865.74389999994,
      "d": 533.0876666666591,
      "v": 62
    },
    {
      "midi": 64,
      "hit": false,
      "t": 61154.34653333327,
      "d": 301.4702666666635,
      "v": 68
    },
    {
      "midi": 67,
      "hit": false,
      "t": 61419.052133333265,
      "d": 259.1909000000014,
      "v": 71
    },
    {
      "midi": 59,
      "hit": false,
      "t": 61726.037099999936,
      "d": 441.1759999999995,
      "v": 62
    },
    {
      "midi": 55,
      "hit": false,
      "t": 61740.7429666666,
      "d": 255.51443333333737,
      "v": 51
    },
    {
      "midi": 43,
      "hit": false,
      "t": 61742.581199999935,
      "d": 347.42609999999695,
      "v": 65
    },
    {
      "midi": 64,
      "hit": false,
      "t": 62040.374999999935,
      "d": 472.4259666666694,
      "v": 58
    },
    {
      "midi": 67,
      "hit": false,
      "t": 62316.109999999935,
      "d": 204.04390000000421,
      "v": 68
    },
    {
      "midi": 70,
      "hit": false,
      "t": 62628.609666666605,
      "d": 343.74963333334017,
      "v": 90
    },
    {
      "midi": 59,
      "hit": false,
      "t": 62639.639066666605,
      "d": 294.1173333333354,
      "v": 57
    },
    {
      "midi": 40,
      "hit": false,
      "t": 62643.31553333327,
      "d": 422.7936666666792,
      "v": 48
    },
    {
      "midi": 52,
      "hit": false,
      "t": 62645.153766666604,
      "d": 314.3379000000059,
      "v": 44
    },
    {
      "midi": 64,
      "hit": false,
      "t": 62935.594633333276,
      "d": 373.16136666667444,
      "v": 59
    },
    {
      "midi": 67,
      "hit": false,
      "t": 63216.84433333328,
      "d": 204.04389999999694,
      "v": 61
    },
    {
      "midi": 35,
      "hit": false,
      "t": 63487.06463333328,
      "d": 1325.366233333334,
      "v": 48
    },
    {
      "midi": 47,
      "hit": false,
      "t": 63494.41756666661,
      "d": 1273.895700000001,
      "v": 34
    },
    {
      "midi": 71,
      "hit": false,
      "t": 63505.44696666661,
      "d": 1534.9248333333308,
      "v": 64
    },
    {
      "midi": 59,
      "hit": false,
      "t": 63516.47636666661,
      "d": 566.1758666666647,
      "v": 45
    },
    {
      "midi": 63,
      "hit": false,
      "t": 63852.87306666661,
      "d": 262.8673666666655,
      "v": 47
    },
    {
      "midi": 66,
      "hit": false,
      "t": 64134.12276666661,
      "d": 248.16150000000198,
      "v": 55
    },
    {
      "midi": 59,
      "hit": false,
      "t": 64450.29889999994,
      "d": 483.45536666666885,
      "v": 46
    },
    {
      "midi": 63,
      "hit": false,
      "t": 64715.004499999945,
      "d": 292.27909999999974,
      "v": 52
    },
    {
      "midi": 66,
      "hit": false,
      "t": 64974.195399999946,
      "d": 178.30863333332672,
      "v": 60
    },
    {
      "midi": 32,
      "hit": false,
      "t": 65132.28346666661,
      "d": 1419.1161333333366,
      "v": 61
    },
    {
      "midi": 59,
      "hit": false,
      "t": 65198.459866666606,
      "d": 709.558066666672,
      "v": 84
    },
    {
      "midi": 44,
      "hit": false,
      "t": 65279.34213333327,
      "d": 1139.7046666666793,
      "v": 64
    },
    {
      "midi": 71,
      "hit": false,
      "t": 65325.29796666661,
      "d": 1636.027666666676,
      "v": 92
    },
    {
      "midi": 62,
      "hit": false,
      "t": 65602.87119999994,
      "d": 279.4114666666719,
      "v": 83
    },
    {
      "midi": 65,
      "hit": false,
      "t": 65891.47383333328,
      "d": 253.6762000000017,
      "v": 60
    },
    {
      "midi": 59,
      "hit": false,
      "t": 66150.66473333328,
      "d": 448.52893333333486,
      "v": 76
    },
    {
      "midi": 62,
      "hit": false,
      "t": 66516.47316666662,
      "d": 371.3231333333242,
      "v": 60
    },
    {
      "midi": 65,
      "hit": false,
      "t": 66841.84046666662,
      "d": 178.308633333334,
      "v": 49
    },
    {
      "midi": 29,
      "hit": false,
      "t": 67018.31086666662,
      "d": 1259.189833333352,
      "v": 48
    },
    {
      "midi": 59,
      "hit": false,
      "t": 67056.91376666662,
      "d": 555.1464666666725,
      "v": 83
    },
    {
      "midi": 41,
      "hit": false,
      "t": 67060.59023333329,
      "d": 1459.5572666666849,
      "v": 40
    },
    {
      "midi": 71,
      "hit": false,
      "t": 67126.7666333333,
      "d": 1211.3957666666684,
      "v": 83
    },
    {
      "midi": 61,
      "hit": false,
      "t": 67415.36926666663,
      "d": 275.7350000000006,
      "v": 82
    },
    {
      "midi": 68,
      "hit": false,
      "t": 67685.58956666663,
      "d": 237.13210000000254,
      "v": 67
    },
    {
      "midi": 59,
      "hit": false,
      "t": 67957.64809999996,
      "d": 520.2200333333458,
      "v": 84
    },
    {
      "midi": 61,
      "hit": false,
      "t": 68220.51546666663,
      "d": 351.10256666668283,
      "v": 79
    },
    {
      "midi": 68,
      "hit": false,
      "t": 68498.08869999998,
      "d": 169.1174666666775,
      "v": 86
    },
    {
      "midi": 30,
      "hit": false,
      "t": 68674.55909999998,
      "d": 1310.6603666666633,
      "v": 55
    },
    {
      "midi": 57,
      "hit": false,
      "t": 68773.82369999998,
      "d": 698.5286666666652,
      "v": 73
    },
    {
      "midi": 42,
      "hit": false,
      "t": 68814.2648333333,
      "d": 1196.6898999999976,
      "v": 48
    },
    {
      "midi": 69,
      "hit": false,
      "t": 68909.85296666664,
      "d": 1207.719299999997,
      "v": 64
    },
    {
      "midi": 61,
      "hit": false,
      "t": 69178.23503333332,
      "d": 283.0879333333287,
      "v": 75
    },
    {
      "midi": 66,
      "hit": false,
      "t": 69433.74946666665,
      "d": 218.74976666666043,
      "v": 58
    },
    {
      "midi": 57,
      "hit": false,
      "t": 69689.26389999998,
      "d": 591.9111333333276,
      "v": 59
    },
    {
      "midi": 61,
      "hit": false,
      "t": 69998.08709999998,
      "d": 301.47026666665624,
      "v": 62
    },
    {
      "midi": 66,
      "hit": false,
      "t": 70314.2632333333,
      "d": 113.97046666666574,
      "v": 58
    },
    {
      "midi": 67,
      "hit": false,
      "t": 70542.20416666663,
      "d": 645.219900000011,
      "v": 86
    },
    {
      "midi": 55,
      "hit": false,
      "t": 70547.71886666663,
      "d": 518.3818000000174,
      "v": 67
    },
    {
      "midi": 35,
      "hit": false,
      "t": 70547.71886666663,
      "d": 1306.9839000000065,
      "v": 64
    },
    {
      "midi": 47,
      "hit": false,
      "t": 70567.9394333333,
      "d": 1503.6748666666826,
      "v": 45
    },
    {
      "midi": 59,
      "hit": false,
      "t": 70895.14496666664,
      "d": 246.3232666666736,
      "v": 55
    },
    {
      "midi": 62,
      "hit": false,
      "t": 71159.85056666665,
      "d": 261.0291333333298,
      "v": 72
    },
    {
      "midi": 55,
      "hit": false,
      "t": 71464.99729999997,
      "d": 279.4114666666719,
      "v": 65
    },
    {
      "midi": 59,
      "hit": false,
      "t": 71762.79109999997,
      "d": 193.01450000000477,
      "v": 52
    },
    {
      "midi": 62,
      "hit": false,
      "t": 72020.14376666665,
      "d": 56.98523333334015,
      "v": 62
    },
    {
      "midi": 36,
      "hit": false,
      "t": 72192.93769999998,
      "d": 1422.7926000000007,
      "v": 60
    },
    {
      "midi": 48,
      "hit": false,
      "t": 72299.55523333332,
      "d": 1211.3957666666684,
      "v": 59
    },
    {
      "midi": 54,
      "hit": false,
      "t": 72339.99636666664,
      "d": 520.2200333333312,
      "v": 90
    },
    {
      "midi": 66,
      "hit": false,
      "t": 72345.51106666664,
      "d": 1341.9103333333333,
      "v": 92
    },
    {
      "midi": 57,
      "hit": false,
      "t": 72661.68719999997,
      "d": 272.0585333333438,
      "v": 46
    },
    {
      "midi": 63,
      "hit": false,
      "t": 72939.26043333331,
      "d": 163.60276666666323,
      "v": 60
    },
    {
      "midi": 54,
      "hit": false,
      "t": 73220.51013333332,
      "d": 656.2492999999813,
      "v": 86
    },
    {
      "midi": 57,
      "hit": false,
      "t": 73518.30393333331,
      "d": 277.573233333329,
      "v": 48
    },
    {
      "midi": 63,
      "hit": false,
      "t": 73806.90656666664,
      "d": 45.955833333326154,
      "v": 56
    },
    {
      "midi": 61,
      "hit": false,
      "t": 74088.15626666663,
      "d": 1498.160166666683,
      "v": 84
    },
    {
      "midi": 37,
      "hit": false,
      "t": 74117.56799999996,
      "d": 1619.4835666666913,
      "v": 47
    },
    {
      "midi": 49,
      "hit": false,
      "t": 74123.08269999996,
      "d": 393.38193333333766,
      "v": 45
    },
    {
      "midi": 54,
      "hit": false,
      "t": 74426.39119999995,
      "d": 207.72036666667555,
      "v": 55
    },
    {
      "midi": 57,
      "hit": false,
      "t": 74722.34676666663,
      "d": 238.97033333333093,
      "v": 30
    },
    {
      "midi": 49,
      "hit": false,
      "t": 75034.8464333333,
      "d": 314.3379000000132,
      "v": 31
    },
    {
      "midi": 54,
      "hit": false,
      "t": 75297.71379999997,
      "d": 395.2201666666806,
      "v": 52
    },
    {
      "midi": 57,
      "hit": false,
      "t": 75606.53699999998,
      "d": 170.95569999999134,
      "v": 41
    },
    {
      "midi": 61,
      "hit": false,
      "t": 75880.43376666664,
      "d": 632.3522666666686,
      "v": 76
    },
    {
      "midi": 49,
      "hit": false,
      "t": 75891.46316666664,
      "d": 387.86723333333794,
      "v": 49
    },
    {
      "midi": 37,
      "hit": false,
      "t": 75898.81609999998,
      "d": 1319.8515333333198,
      "v": 53
    },
    {
      "midi": 54,
      "hit": false,
      "t": 76180.06579999998,
      "d": 283.0879333333287,
      "v": 52
    },
    {
      "midi": 56,
      "hit": false,
      "t": 76485.21253333331,
      "d": 189.33803333333344,
      "v": 46
    },
    {
      "midi": 61,
      "hit": false,
      "t": 76781.16809999997,
      "d": 652.57283333331,
      "v": 68
    },
    {
      "midi": 49,
      "hit": false,
      "t": 76794.0357333333,
      "d": 540.4406000000017,
      "v": 40
    },
    {
      "midi": 53,
      "hit": false,
      "t": 77089.99129999997,
      "d": 314.3378999999841,
      "v": 40
    },
    {
      "midi": 56,
      "hit": false,
      "t": 77374.91746666662,
      "d": 132.3527999999933,
      "v": 48
    },
    {
      "midi": 30,
      "hit": false,
      "t": 77577.12313333328,
      "d": 2705.8794666666654,
      "v": 38
    },
    {
      "midi": 54,
      "hit": false,
      "t": 77663.52009999995,
      "d": 329.04376666665485,
      "v": 58
    },
    {
      "midi": 42,
      "hit": false,
      "t": 77692.93183333328,
      "d": 2665.438333333339,
      "v": 33
    },
    {
      "midi": 57,
      "hit": false,
      "t": 77992.5638666666,
      "d": 240.80856666667387,
      "v": 30
    },
    {
      "midi": 61,
      "hit": false,
      "t": 78246.2400666666,
      "d": 161.76453333333484,
      "v": 52
    },
    {
      "midi": 57,
      "hit": false,
      "t": 78534.84269999994,
      "d": 310.66143333334185,
      "v": 41
    },
    {
      "midi": 61,
      "hit": false,
      "t": 78825.2835666666,
      "d": 297.79379999999946,
      "v": 51
    },
    {
      "midi": 66,
      "hit": false,
      "t": 79112.0479666666,
      "d": 161.76453333333484,
      "v": 54
    },
    {
      "midi": 61,
      "hit": false,
      "t": 79439.25349999995,
      "d": 222.42623333333177,
      "v": 40
    },
    {
      "midi": 66,
      "hit": false,
      "t": 79731.53259999995,
      "d": 209.55860000000393,
      "v": 52
    },
    {
      "midi": 69,
      "hit": false,
      "t": 80049.54696666662,
      "d": 194.85273333333316,
      "v": 28
    },
    {
      "midi": 73,
      "hit": false,
      "t": 80295.87023333328,
      "d": 454.04363333334913,
      "v": 88
    },
    {
      "midi": 61,
      "hit": false,
      "t": 80299.54669999995,
      "d": 299.6320333333424,
      "v": 94
    },
    {
      "midi": 66,
      "hit": false,
      "t": 80637.78163333329,
      "d": 198.5292000000045,
      "v": 79
    },
    {
      "midi": 69,
      "hit": false,
      "t": 80917.19309999996,
      "d": 141.54396666666435,
      "v": 60
    },
    {
      "midi": 73,
      "hit": false,
      "t": 81086.31056666662,
      "d": 90.07343333333847,
      "v": 84
    },
    {
      "midi": 73,
      "hit": false,
      "t": 81249.9133333333,
      "d": 1512.8660333333246,
      "v": 76
    },
    {
      "midi": 61,
      "hit": false,
      "t": 81262.78096666663,
      "d": 310.66143333334185,
      "v": 98
    },
    {
      "midi": 53,
      "hit": false,
      "t": 81266.4574333333,
      "d": 3134.1878333333298,
      "v": 44
    },
    {
      "midi": 41,
      "hit": false,
      "t": 81277.4868333333,
      "d": 3040.4379333333345,
      "v": 45
    },
    {
      "midi": 68,
      "hit": false,
      "t": 81536.6777333333,
      "d": 229.77916666667443,
      "v": 76
    },
    {
      "midi": 71,
      "hit": false,
      "t": 81799.54509999997,
      "d": 216.91153333333205,
      "v": 52
    },
    {
      "midi": 61,
      "hit": false,
      "t": 82088.1477333333,
      "d": 297.79379999999946,
      "v": 58
    },
    {
      "midi": 68,
      "hit": false,
      "t": 82362.04449999997,
      "d": 257.3526666666585,
      "v": 68
    },
    {
      "midi": 71,
      "hit": false,
      "t": 82669.02946666663,
      "d": 207.720366666661,
      "v": 48
    },
    {
      "midi": 61,
      "hit": false,
      "t": 82955.79386666663,
      "d": 345.58786666666856,
      "v": 75
    },
    {
      "midi": 73,
      "hit": false,
      "t": 82977.85266666663,
      "d": 80.88226666666742,
      "v": 34
    },
    {
      "midi": 68,
      "hit": false,
      "t": 83227.85239999996,
      "d": 237.13210000000254,
      "v": 73
    },
    {
      "midi": 71,
      "hit": false,
      "t": 83538.5138333333,
      "d": 167.27923333333456,
      "v": 53
    },
    {
      "midi": 61,
      "hit": false,
      "t": 83817.92529999997,
      "d": 321.69083333332674,
      "v": 112
    },
    {
      "midi": 73,
      "hit": false,
      "t": 83817.92529999997,
      "d": 437.49953333332087,
      "v": 96
    },
    {
      "midi": 68,
      "hit": false,
      "t": 84146.96906666663,
      "d": 161.76453333333484,
      "v": 71
    },
    {
      "midi": 71,
      "hit": false,
      "t": 84387.7776333333,
      "d": 90.07343333332392,
      "v": 65
    },
    {
      "midi": 73,
      "hit": false,
      "t": 84531.1598333333,
      "d": 99.26459999999497,
      "v": 86
    },
    {
      "midi": 73,
      "hit": false,
      "t": 84698.43906666663,
      "d": 1238.9692666666524,
      "v": 69
    },
    {
      "midi": 61,
      "hit": false,
      "t": 84716.82139999996,
      "d": 367.64666666666744,
      "v": 92
    },
    {
      "midi": 54,
      "hit": false,
      "t": 84727.85079999996,
      "d": 1249.9986666666518,
      "v": 43
    },
    {
      "midi": 42,
      "hit": false,
      "t": 84727.85079999996,
      "d": 1382.3514666666451,
      "v": 58
    },
    {
      "midi": 66,
      "hit": false,
      "t": 85025.64459999996,
      "d": 227.9409333333315,
      "v": 62
    },
    {
      "midi": 69,
      "hit": false,
      "t": 85292.18843333329,
      "d": 270.22030000000086,
      "v": 48
    },
    {
      "midi": 61,
      "hit": false,
      "t": 85584.46753333329,
      "d": 299.63203333332785,
      "v": 68
    },
    {
      "midi": 66,
      "hit": false,
      "t": 85865.71723333329,
      "d": 251.8379666666442,
      "v": 68
    },
    {
      "midi": 69,
      "hit": false,
      "t": 86178.21689999993,
      "d": 216.91153333333205,
      "v": 67
    },
    {
      "midi": 39,
      "hit": false,
      "t": 86352.84906666659,
      "d": 663.6022333333385,
      "v": 72
    },
    {
      "midi": 60,
      "hit": false,
      "t": 86453.95189999993,
      "d": 360.2937333333248,
      "v": 98
    },
    {
      "midi": 72,
      "hit": false,
      "t": 86455.79013333326,
      "d": 509.1906333333318,
      "v": 106
    },
    {
      "midi": 51,
      "hit": false,
      "t": 86512.77536666658,
      "d": 397.058400000009,
      "v": 68
    },
    {
      "midi": 66,
      "hit": false,
      "t": 86781.15743333325,
      "d": 310.66143333334185,
      "v": 86
    },
    {
      "midi": 69,
      "hit": false,
      "t": 87053.2159666666,
      "d": 237.13210000000254,
      "v": 61
    },
    {
      "midi": 37,
      "hit": false,
      "t": 87150.64233333326,
      "d": 742.646266666663,
      "v": 86
    },
    {
      "midi": 49,
      "hit": false,
      "t": 87306.8921666666,
      "d": 459.55833333331975,
      "v": 67
    },
    {
      "midi": 61,
      "hit": false,
      "t": 87351.0097666666,
      "d": 365.8084333333245,
      "v": 100
    },
    {
      "midi": 73,
      "hit": false,
      "t": 87352.84799999993,
      "d": 466.9112666666624,
      "v": 90
    },
    {
      "midi": 66,
      "hit": false,
      "t": 87656.15649999992,
      "d": 305.1467333333421,
      "v": 79
    },
    {
      "midi": 69,
      "hit": false,
      "t": 87919.0238666666,
      "d": 198.5292000000045,
      "v": 62
    },
    {
      "midi": 36,
      "hit": false,
      "t": 88036.67079999993,
      "d": 2538.6002333333163,
      "v": 61
    },
    {
      "midi": 44,
      "hit": false,
      "t": 88089.9795666666,
      "d": 2597.423699999985,
      "v": 64
    },
    {
      "midi": 63,
      "hit": false,
      "t": 88145.1265666666,
      "d": 661.7639999999956,
      "v": 92
    },
    {
      "midi": 48,
      "hit": false,
      "t": 88156.1559666666,
      "d": 2527.570833333317,
      "v": 44
    },
    {
      "midi": 75,
      "hit": false,
      "t": 88284.83229999994,
      "d": 2194.8505999999907,
      "v": 98
    },
    {
      "midi": 66,
      "hit": false,
      "t": 88578.94963333326,
      "d": 270.22030000000086,
      "v": 83
    },
    {
      "midi": 68,
      "hit": false,
      "t": 88867.5522666666,
      "d": 233.4556333333312,
      "v": 69
    },
    {
      "midi": 63,
      "hit": false,
      "t": 89150.64019999992,
      "d": 246.3232666666736,
      "v": 78
    },
    {
      "midi": 66,
      "hit": false,
      "t": 89402.4781666666,
      "d": 235.2938666666596,
      "v": 65
    },
    {
      "midi": 68,
      "hit": false,
      "t": 89698.43373333325,
      "d": 240.80856666667387,
      "v": 51
    },
    {
      "midi": 63,
      "hit": false,
      "t": 90018.28633333326,
      "d": 318.01436666666996,
      "v": 65
    },
    {
      "midi": 66,
      "hit": false,
      "t": 90321.59483333326,
      "d": 281.24969999998575,
      "v": 56
    },
    {
      "midi": 68,
      "hit": false,
      "t": 90562.40339999992,
      "d": 156.24983333333512,
      "v": 55
    },
    {
      "midi": 36,
      "hit": false,
      "t": 90744.38849999993,
      "d": 584.558200000014,
      "v": 49
    },
    {
      "midi": 63,
      "hit": false,
      "t": 90764.6090666666,
      "d": 661.7640000000247,
      "v": 90
    },
    {
      "midi": 44,
      "hit": false,
      "t": 90797.6972666666,
      "d": 832.7197000000306,
      "v": 54
    },
    {
      "midi": 48,
      "hit": false,
      "t": 90841.8148666666,
      "d": 575.3670333333575,
      "v": 47
    },
    {
      "midi": 75,
      "hit": false,
      "t": 90895.12363333326,
      "d": 465.0730333333486,
      "v": 94
    },
    {
      "midi": 66,
      "hit": false,
      "t": 91200.2703666666,
      "d": 332.7202333333553,
      "v": 75
    },
    {
      "midi": 68,
      "hit": false,
      "t": 91459.46126666662,
      "d": 150.7351333333354,
      "v": 72
    },
    {
      "midi": 37,
      "hit": false,
      "t": 91586.29936666663,
      "d": 1367.645599999989,
      "v": 40
    },
    {
      "midi": 64,
      "hit": false,
      "t": 91659.82869999995,
      "d": 724.26393333335,
      "v": 80
    },
    {
      "midi": 49,
      "hit": false,
      "t": 91722.3286333333,
      "d": 1115.8076333333302,
      "v": 40
    },
    {
      "midi": 76,
      "hit": false,
      "t": 91817.91676666663,
      "d": 867.6461333333282,
      "v": 102
    },
    {
      "midi": 68,
      "hit": false,
      "t": 92141.4458333333,
      "d": 226.1027000000031,
      "v": 76
    },
    {
      "midi": 73,
      "hit": false,
      "t": 92415.34259999997,
      "d": 218.74976666666043,
      "v": 62
    },
    {
      "midi": 64,
      "hit": false,
      "t": 92667.18056666663,
      "d": 481.61713333331863,
      "v": 69
    },
    {
      "midi": 68,
      "hit": false,
      "t": 92961.29789999995,
      "d": 209.55860000000393,
      "v": 73
    },
    {
      "midi": 73,
      "hit": false,
      "t": 93238.87113333329,
      "d": 156.24983333333512,
      "v": 47
    },
    {
      "midi": 30,
      "hit": false,
      "t": 93343.65043333329,
      "d": 683.8228000000381,
      "v": 62
    },
    {
      "midi": 63,
      "hit": false,
      "t": 93457.62089999997,
      "d": 584.5582000000286,
      "v": 86
    },
    {
      "midi": 42,
      "hit": false,
      "t": 93483.35616666664,
      "d": 531.2494333333452,
      "v": 50
    },
    {
      "midi": 75,
      "hit": false,
      "t": 93553.2090333333,
      "d": 402.5731000000087,
      "v": 84
    },
    {
      "midi": 66,
      "hit": false,
      "t": 93790.3411333333,
      "d": 233.45563333334576,
      "v": 65
    },
    {
      "midi": 69,
      "hit": false,
      "t": 94062.39966666666,
      "d": 189.33803333333344,
      "v": 38
    },
    {
      "midi": 43,
      "hit": false,
      "t": 94334.4582,
      "d": 623.161099999983,
      "v": 43
    },
    {
      "midi": 31,
      "hit": false,
      "t": 94336.29643333332,
      "d": 534.925900000002,
      "v": 54
    },
    {
      "midi": 73,
      "hit": false,
      "t": 94349.16406666665,
      "d": 617.6463999999978,
      "v": 75
    },
    {
      "midi": 61,
      "hit": false,
      "t": 94352.84053333332,
      "d": 378.6760666666669,
      "v": 71
    },
    {
      "midi": 64,
      "hit": false,
      "t": 94661.66373333332,
      "d": 227.9409333333315,
      "v": 52
    },
    {
      "midi": 70,
      "hit": false,
      "t": 94928.20756666665,
      "d": 181.98509999999078,
      "v": 62
    },
    {
      "midi": 32,
      "hit": false,
      "t": 95235.1925333333,
      "d": 3251.8347666666523,
      "v": 50
    },
    {
      "midi": 72,
      "hit": false,
      "t": 95251.7366333333,
      "d": 272.05853333332925,
      "v": 59
    },
    {
      "midi": 44,
      "hit": false,
      "t": 95262.7660333333,
      "d": 3183.8201333333272,
      "v": 28
    },
    {
      "midi": 60,
      "hit": false,
      "t": 95549.5304333333,
      "d": 419.11720000000787,
      "v": 49
    },
    {
      "midi": 63,
      "hit": false,
      "t": 95851.00069999998,
      "d": 237.13210000000254,
      "v": 49
    },
    {
      "midi": 68,
      "hit": false,
      "t": 96154.30919999997,
      "d": 213.2350666666607,
      "v": 71
    },
    {
      "midi": 60,
      "hit": false,
      "t": 96426.3677333333,
      "d": 354.7790333333396,
      "v": 57
    },
    {
      "midi": 63,
      "hit": false,
      "t": 96691.0733333333,
      "d": 198.5292000000045,
      "v": 47
    },
    {
      "midi": 69,
      "hit": false,
      "t": 96963.13186666665,
      "d": 235.2938666666596,
      "v": 65
    },
    {
      "midi": 60,
      "hit": false,
      "t": 97259.0874333333,
      "d": 540.4406000000017,
      "v": 35
    },
    {
      "midi": 63,
      "hit": false,
      "t": 97604.67529999997,
      "d": 224.26446666666016,
      "v": 38
    },
    {
      "midi": 66,
      "hit": false,
      "t": 97902.46909999997,
      "d": 207.720366666661,
      "v": 62
    },
    {
      "midi": 60,
      "hit": false,
      "t": 98198.42466666663,
      "d": 580.8817333333282,
      "v": 43
    },
    {
      "midi": 63,
      "hit": false,
      "t": 98525.63019999996,
      "d": 187.49980000000505,
      "v": 34
    },
    {
      "midi": 32,
      "hit": false,
      "t": 98782.98286666663,
      "d": 3180.143666666656,
      "v": 69
    },
    {
      "midi": 44,
      "hit": false,
      "t": 98792.17403333329,
      "d": 3371.3199333333323,
      "v": 55
    },
    {
      "midi": 60,
      "hit": false,
      "t": 99069.74726666663,
      "d": 262.86736666667275,
      "v": 62
    },
    {
      "midi": 63,
      "hit": false,
      "t": 99358.34989999997,
      "d": 222.42623333333177,
      "v": 55
    },
    {
      "midi": 56,
      "hit": false,
      "t": 99687.39366666664,
      "d": 457.72009999999136,
      "v": 71
    },
    {
      "midi": 60,
      "hit": false,
      "t": 100029.30506666664,
      "d": 294.11733333332813,
      "v": 45
    },
    {
      "midi": 63,
      "hit": false,
      "t": 100288.49596666664,
      "d": 268.3820666666579,
      "v": 58
    },
    {
      "midi": 57,
      "hit": false,
      "t": 100580.77506666663,
      "d": 459.5583333333343,
      "v": 71
    },
    {
      "midi": 60,
      "hit": false,
      "t": 100928.20116666662,
      "d": 329.0437666666694,
      "v": 48
    },
    {
      "midi": 63,
      "hit": false,
      "t": 101222.31849999996,
      "d": 441.1759999999922,
      "v": 69
    },
    {
      "midi": 54,
      "hit": false,
      "t": 101501.72996666662,
      "d": 700.3668999999936,
      "v": 69
    },
    {
      "midi": 60,
      "hit": false,
      "t": 101794.00906666662,
      "d": 321.69083333332674,
      "v": 65
    },
    {
      "midi": 63,
      "hit": false,
      "t": 102075.25876666662,
      "d": 262.8673666666582,
      "v": 75
    },
    {
      "midi": 32,
      "hit": false,
      "t": 102235.18506666661,
      "d": 3284.922966666636,
      "v": 83
    },
    {
      "midi": 44,
      "hit": false,
      "t": 102356.50846666661,
      "d": 3161.761333333314,
      "v": 83
    },
    {
      "midi": 52,
      "hit": false,
      "t": 102371.21433333328,
      "d": 163.60276666666323,
      "v": 88
    },
    {
      "midi": 64,
      "hit": false,
      "t": 102742.5374666666,
      "d": 301.4702666666708,
      "v": 47
    },
    {
      "midi": 68,
      "hit": false,
      "t": 102996.2136666666,
      "d": 224.2644666666747,
      "v": 80
    },
    {
      "midi": 73,
      "hit": false,
      "t": 103275.62513333328,
      "d": 283.0879333333287,
      "v": 82
    },
    {
      "midi": 64,
      "hit": false,
      "t": 103575.2571666666,
      "d": 297.79379999999946,
      "v": 55
    },
    {
      "midi": 68,
      "hit": false,
      "t": 103828.9333666666,
      "d": 261.0291333333298,
      "v": 60
    },
    {
      "midi": 76,
      "hit": false,
      "t": 104145.10949999993,
      "d": 439.3377666666638,
      "v": 86
    },
    {
      "midi": 64,
      "hit": false,
      "t": 104411.65333333326,
      "d": 397.05839999999444,
      "v": 46
    },
    {
      "midi": 68,
      "hit": false,
      "t": 104700.25596666659,
      "d": 227.9409333333315,
      "v": 59
    },
    {
      "midi": 73,
      "hit": false,
      "t": 105001.72623333326,
      "d": 514.7053333333315,
      "v": 64
    },
    {
      "midi": 64,
      "hit": false,
      "t": 105305.03473333326,
      "d": 318.0143666666554,
      "v": 42
    },
    {
      "midi": 68,
      "hit": false,
      "t": 105547.68153333325,
      "d": 82.72049999999581,
      "v": 68
    },
    {
      "midi": 44,
      "hit": false,
      "t": 105847.31356666658,
      "d": 3257.3494666666666,
      "v": 75
    },
    {
      "midi": 32,
      "hit": false,
      "t": 105849.1517999999,
      "d": 3191.17306666667,
      "v": 76
    },
    {
      "midi": 52,
      "hit": false,
      "t": 106178.19556666657,
      "d": 349.2643333333399,
      "v": 27
    },
    {
      "midi": 56,
      "hit": false,
      "t": 106442.90116666658,
      "d": 227.94093333334604,
      "v": 51
    },
    {
      "midi": 61,
      "hit": false,
      "t": 106755.40083333326,
      "d": 272.05853333332925,
      "v": 69
    },
    {
      "midi": 52,
      "hit": false,
      "t": 107060.54756666659,
      "d": 323.5290666666697,
      "v": 50
    },
    {
      "midi": 56,
      "hit": false,
      "t": 107319.73846666659,
      "d": 226.1027000000031,
      "v": 53
    },
    {
      "midi": 64,
      "hit": false,
      "t": 107628.56166666659,
      "d": 294.11733333332813,
      "v": 54
    },
    {
      "midi": 52,
      "hit": false,
      "t": 107939.22309999992,
      "d": 417.2789666666649,
      "v": 32
    },
    {
      "midi": 56,
      "hit": false,
      "t": 108238.85513333324,
      "d": 229.77916666667443,
      "v": 46
    },
    {
      "midi": 61,
      "hit": false,
      "t": 108545.84009999991,
      "d": 494.484766666661,
      "v": 59
    },
    {
      "midi": 52,
      "hit": false,
      "t": 108832.60449999991,
      "d": 330.8819999999978,
      "v": 42
    },
    {
      "midi": 56,
      "hit": false,
      "t": 109141.42769999991,
      "d": 119.48516666666546,
      "v": 48
    },
    {
      "midi": 32,
      "hit": false,
      "t": 109339.95689999992,
      "d": 3187.4965999999695,
      "v": 57
    },
    {
      "midi": 44,
      "hit": false,
      "t": 109341.79513333325,
      "d": 3360.2905333333038,
      "v": 48
    },
    {
      "midi": 51,
      "hit": false,
      "t": 109413.48623333324,
      "d": 306.9849666666705,
      "v": 56
    },
    {
      "midi": 57,
      "hit": false,
      "t": 109709.44179999991,
      "d": 253.6762000000017,
      "v": 39
    },
    {
      "midi": 54,
      "hit": false,
      "t": 109972.30916666659,
      "d": 294.11733333332813,
      "v": 72
    },
    {
      "midi": 60,
      "hit": false,
      "t": 110295.83823333324,
      "d": 336.3966999999975,
      "v": 65
    },
    {
      "midi": 57,
      "hit": false,
      "t": 110597.30849999991,
      "d": 101.10283333332336,
      "v": 65
    },
    {
      "midi": 63,
      "hit": false,
      "t": 110878.5581999999,
      "d": 266.54383333332953,
      "v": 76
    },
    {
      "midi": 60,
      "hit": false,
      "t": 111150.61673333323,
      "d": 283.0879333333287,
      "v": 76
    },
    {
      "midi": 66,
      "hit": false,
      "t": 111441.05759999988,
      "d": 441.17600000000675,
      "v": 96
    },
    {
      "midi": 63,
      "hit": false,
      "t": 111742.52786666655,
      "d": 246.3232666666736,
      "v": 88
    },
    {
      "midi": 69,
      "hit": false,
      "t": 112060.54223333322,
      "d": 378.6760666666669,
      "v": 67
    },
    {
      "midi": 66,
      "hit": false,
      "t": 112360.17426666655,
      "d": 259.1909000000014,
      "v": 75
    },
    {
      "midi": 72,
      "hit": false,
      "t": 112624.87986666655,
      "d": 259.1909000000014,
      "v": 75
    },
    {
      "midi": 32,
      "hit": false,
      "t": 112771.93853333322,
      "d": 3330.8787999999768,
      "v": 58
    },
    {
      "midi": 44,
      "hit": false,
      "t": 112891.4236999999,
      "d": 3382.349333333288,
      "v": 56
    },
    {
      "midi": 52,
      "hit": false,
      "t": 112987.01183333324,
      "d": 459.5583333333343,
      "v": 72
    },
    {
      "midi": 61,
      "hit": false,
      "t": 113255.39389999991,
      "d": 231.61739999998827,
      "v": 55
    },
    {
      "midi": 56,
      "hit": false,
      "t": 113499.87893333322,
      "d": 255.5144333333301,
      "v": 64
    },
    {
      "midi": 64,
      "hit": false,
      "t": 113788.48156666655,
      "d": 224.26446666666016,
      "v": 68
    },
    {
      "midi": 61,
      "hit": false,
      "t": 114115.68709999988,
      "d": 112.13223333333735,
      "v": 61
    },
    {
      "midi": 68,
      "hit": false,
      "t": 114415.31913333322,
      "d": 264.70560000000114,
      "v": 80
    },
    {
      "midi": 64,
      "hit": false,
      "t": 114724.14233333322,
      "d": 327.20553333332646,
      "v": 56
    },
    {
      "midi": 73,
      "hit": false,
      "t": 114990.68616666655,
      "d": 270.22030000000086,
      "v": 84
    },
    {
      "midi": 68,
      "hit": false,
      "t": 115277.45056666655,
      "d": 216.91153333333205,
      "v": 79
    },
    {
      "midi": 76,
      "hit": false,
      "t": 115555.02379999988,
      "d": 340.0731666666543,
      "v": 86
    },
    {
      "midi": 73,
      "hit": false,
      "t": 115860.1705333332,
      "d": 273.89676666665764,
      "v": 83
    },
    {
      "midi": 68,
      "hit": false,
      "t": 116174.50843333319,
      "d": 58.82346666666854,
      "v": 82
    },
    {
      "midi": 32,
      "hit": false,
      "t": 116327.08179999985,
      "d": 3318.0111666666344,
      "v": 94
    },
    {
      "midi": 44,
      "hit": false,
      "t": 116452.08166666652,
      "d": 3393.378733333302,
      "v": 98
    },
    {
      "midi": 61,
      "hit": false,
      "t": 116463.11106666652,
      "d": 288.6026333333284,
      "v": 108
    },
    {
      "midi": 67,
      "hit": false,
      "t": 116760.90486666652,
      "d": 351.10256666665373,
      "v": 73
    },
    {
      "midi": 64,
      "hit": false,
      "t": 117066.05159999985,
      "d": 97.42636666666658,
      "v": 55
    },
    {
      "midi": 70,
      "hit": false,
      "t": 117336.27189999985,
      "d": 229.77916666665988,
      "v": 78
    },
    {
      "midi": 67,
      "hit": false,
      "t": 117621.1980666665,
      "d": 249.99973333333037,
      "v": 62
    },
    {
      "midi": 73,
      "hit": false,
      "t": 117917.15363333316,
      "d": 349.26433333332534,
      "v": 102
    },
    {
      "midi": 70,
      "hit": false,
      "t": 118225.97683333316,
      "d": 222.42623333333177,
      "v": 83
    },
    {
      "midi": 76,
      "hit": false,
      "t": 118512.74123333316,
      "d": 262.86736666667275,
      "v": 86
    },
    {
      "midi": 73,
      "hit": false,
      "t": 118793.99093333316,
      "d": 303.3084999999992,
      "v": 86
    },
    {
      "midi": 79,
      "hit": false,
      "t": 119084.43179999983,
      "d": 352.94079999999667,
      "v": 88
    },
    {
      "midi": 76,
      "hit": false,
      "t": 119389.57853333316,
      "d": 80.88226666666742,
      "v": 59
    },
    {
      "midi": 82,
      "hit": false,
      "t": 119696.56349999983,
      "d": 77.20579999999609,
      "v": 72
    },
    {
      "midi": 32,
      "hit": false,
      "t": 119900.60739999982,
      "d": 10316.165466666629,
      "v": 88
    },
    {
      "midi": 44,
      "hit": false,
      "t": 120020.09256666648,
      "d": 10371.31246666664,
      "v": 94
    },
    {
      "midi": 66,
      "hit": false,
      "t": 120045.82783333314,
      "d": 262.8673666666582,
      "v": 96
    },
    {
      "midi": 72,
      "hit": false,
      "t": 120305.01873333313,
      "d": 262.86736666667275,
      "v": 76
    },
    {
      "midi": 69,
      "hit": false,
      "t": 120602.81253333313,
      "d": 112.13223333333735,
      "v": 72
    },
    {
      "midi": 75,
      "hit": false,
      "t": 120904.2827999998,
      "d": 249.99973333333037,
      "v": 102
    },
    {
      "midi": 72,
      "hit": false,
      "t": 121183.69426666645,
      "d": 235.2938666666596,
      "v": 64
    },
    {
      "midi": 78,
      "hit": false,
      "t": 121463.10573333311,
      "d": 281.2497000000003,
      "v": 108
    },
    {
      "midi": 75,
      "hit": false,
      "t": 121753.54659999978,
      "d": 235.2938666666596,
      "v": 83
    },
    {
      "midi": 81,
      "hit": false,
      "t": 122066.04626666644,
      "d": 240.80856666667387,
      "v": 96
    },
    {
      "midi": 78,
      "hit": false,
      "t": 122362.00183333311,
      "d": 266.5438333333441,
      "v": 98
    },
    {
      "midi": 84,
      "hit": false,
      "t": 122624.86919999978,
      "d": 327.205533333341,
      "v": 82
    },
    {
      "midi": 81,
      "hit": false,
      "t": 122941.04533333312,
      "d": 93.74989999999525,
      "v": 68
    },
    {
      "midi": 87,
      "hit": false,
      "t": 123220.45679999978,
      "d": 266.54383333332953,
      "v": 96
    },
    {
      "midi": 84,
      "hit": false,
      "t": 123520.08883333311,
      "d": 95.58813333333819,
      "v": 83
    },
    {
      "midi": 78,
      "hit": false,
      "t": 123819.72086666645,
      "d": 222.42623333333177,
      "v": 73
    },
    {
      "midi": 81,
      "hit": false,
      "t": 124117.51466666645,
      "d": 215.07330000000366,
      "v": 73
    },
    {
      "midi": 75,
      "hit": false,
      "t": 124406.1172999998,
      "d": 194.85273333333316,
      "v": 90
    },
    {
      "midi": 78,
      "hit": false,
      "t": 124689.20523333312,
      "d": 227.9409333333315,
      "v": 73
    },
    {
      "midi": 72,
      "hit": false,
      "t": 124970.45493333312,
      "d": 227.9409333333315,
      "v": 73
    },
    {
      "midi": 75,
      "hit": false,
      "t": 125244.35169999978,
      "d": 233.4556333333312,
      "v": 78
    },
    {
      "midi": 69,
      "hit": false,
      "t": 125529.27786666645,
      "d": 238.97033333333093,
      "v": 60
    },
    {
      "midi": 72,
      "hit": false,
      "t": 125852.80693333312,
      "d": 80.88226666666742,
      "v": 62
    },
    {
      "midi": 66,
      "hit": false,
      "t": 126178.17423333312,
      "d": 191.17626666666183,
      "v": 65
    },
    {
      "midi": 69,
      "hit": false,
      "t": 126452.07099999978,
      "d": 262.86736666667275,
      "v": 55
    },
    {
      "midi": 63,
      "hit": false,
      "t": 126744.35009999978,
      "d": 215.07330000000366,
      "v": 71
    },
    {
      "midi": 66,
      "hit": false,
      "t": 127010.89393333312,
      "d": 261.0291333333298,
      "v": 69
    },
    {
      "midi": 60,
      "hit": false,
      "t": 127319.71713333312,
      "d": 340.07316666666884,
      "v": 49
    },
    {
      "midi": 63,
      "hit": false,
      "t": 127637.73149999979,
      "d": 71.69109999999637,
      "v": 64
    },
    {
      "midi": 57,
      "hit": false,
      "t": 127950.23116666646,
      "d": 187.49980000000505,
      "v": 83
    },
    {
      "midi": 60,
      "hit": false,
      "t": 128240.67203333313,
      "d": 336.3966999999975,
      "v": 65
    },
    {
      "midi": 54,
      "hit": false,
      "t": 128545.81876666646,
      "d": 215.07330000000366,
      "v": 78
    },
    {
      "midi": 57,
      "hit": false,
      "t": 128830.74493333313,
      "d": 159.92630000000645,
      "v": 82
    },
    {
      "midi": 51,
      "hit": false,
      "t": 129124.86226666647,
      "d": 235.2938666666596,
      "v": 72
    },
    {
      "midi": 54,
      "hit": false,
      "t": 129400.59726666646,
      "d": 261.0291333333298,
      "v": 68
    },
    {
      "midi": 49,
      "hit": false,
      "t": 129707.58223333312,
      "d": 338.2349333333259,
      "v": 98
    },
    {
      "midi": 54,
      "hit": false,
      "t": 130010.89073333312,
      "d": 231.61740000000282,
      "v": 60
    },
    {
      "midi": 57,
      "hit": false,
      "t": 130279.27279999979,
      "d": 301.4702666666708,
      "v": 73
    },
    {
      "midi": 32,
      "hit": false,
      "t": 130417.1402999998,
      "d": 3474.2609999999695,
      "v": 69
    },
    {
      "midi": 44,
      "hit": false,
      "t": 130564.19896666646,
      "d": 3428.3051666666433,
      "v": 55
    },
    {
      "midi": 48,
      "hit": false,
      "t": 130582.58129999979,
      "d": 571.6905666666571,
      "v": 75
    },
    {
      "midi": 54,
      "hit": false,
      "t": 130878.53686666644,
      "d": 308.8231999999989,
      "v": 61
    },
    {
      "midi": 56,
      "hit": false,
      "t": 131165.30126666644,
      "d": 264.7055999999866,
      "v": 59
    },
    {
      "midi": 57,
      "hit": false,
      "t": 131481.47739999977,
      "d": 290.44086666667135,
      "v": 44
    },
    {
      "midi": 56,
      "hit": false,
      "t": 131782.94766666644,
      "d": 286.7644000000146,
      "v": 53
    },
    {
      "midi": 54,
      "hit": false,
      "t": 132084.4179333331,
      "d": 251.8379666666733,
      "v": 55
    },
    {
      "midi": 51,
      "hit": false,
      "t": 132380.37349999978,
      "d": 318.01436666666996,
      "v": 60
    },
    {
      "midi": 54,
      "hit": false,
      "t": 132645.0790999998,
      "d": 226.10269999998854,
      "v": 53
    },
    {
      "midi": 57,
      "hit": false,
      "t": 132918.97586666644,
      "d": 237.132099999988,
      "v": 42
    },
    {
      "midi": 49,
      "hit": false,
      "t": 133249.85786666643,
      "d": 310.6614333333273,
      "v": 58
    },
    {
      "midi": 54,
      "hit": false,
      "t": 133534.7840333331,
      "d": 275.73499999998603,
      "v": 50
    },
    {
      "midi": 57,
      "hit": false,
      "t": 133834.41606666642,
      "d": 249.99973333333037,
      "v": 45
    },
    {
      "midi": 32,
      "hit": false,
      "t": 134036.6217333331,
      "d": 3321.687633333291,
      "v": 65
    },
    {
      "midi": 48,
      "hit": false,
      "t": 134154.2686666664,
      "d": 648.8963666666823,
      "v": 56
    },
    {
      "midi": 44,
      "hit": false,
      "t": 134181.8421666664,
      "d": 3262.8641666666663,
      "v": 38
    },
    {
      "midi": 54,
      "hit": false,
      "t": 134385.88606666643,
      "d": 411.7642666666652,
      "v": 49
    },
    {
      "midi": 56,
      "hit": false,
      "t": 134691.03279999975,
      "d": 261.0291333333298,
      "v": 55
    },
    {
      "midi": 57,
      "hit": false,
      "t": 134970.44426666643,
      "d": 310.6614333333273,
      "v": 55
    },
    {
      "midi": 56,
      "hit": false,
      "t": 135281.10569999975,
      "d": 323.5290666666697,
      "v": 62
    },
    {
      "midi": 54,
      "hit": false,
      "t": 135584.41419999977,
      "d": 281.24969999998575,
      "v": 71
    },
    {
      "midi": 50,
      "hit": false,
      "t": 135882.20799999975,
      "d": 523.8964999999735,
      "v": 92
    },
    {
      "midi": 54,
      "hit": false,
      "t": 136167.1341666664,
      "d": 268.3820666666725,
      "v": 71
    },
    {
      "midi": 57,
      "hit": false,
      "t": 136453.8985666664,
      "d": 270.2202999999863,
      "v": 59
    },
    {
      "midi": 49,
      "hit": false,
      "t": 136779.2658666664,
      "d": 288.6026333333284,
      "v": 71
    },
    {
      "midi": 54,
      "hit": false,
      "t": 137084.41259999972,
      "d": 275.73500000001513,
      "v": 55
    },
    {
      "midi": 57,
      "hit": false,
      "t": 137365.66229999973,
      "d": 238.97033333333093,
      "v": 50
    },
    {
      "midi": 32,
      "hit": false,
      "t": 137525.58859999973,
      "d": 1466.910199999984,
      "v": 55
    },
    {
      "midi": 48,
      "hit": false,
      "t": 137646.91199999972,
      "d": 999.9989333333215,
      "v": 49
    },
    {
      "midi": 44,
      "hit": false,
      "t": 137667.13256666638,
      "d": 1273.8956999999937,
      "v": 35
    },
    {
      "midi": 54,
      "hit": false,
      "t": 137955.7351999997,
      "d": 536.7641333333158,
      "v": 48
    },
    {
      "midi": 56,
      "hit": false,
      "t": 138236.9848999997,
      "d": 279.4114666666719,
      "v": 64
    },
    {
      "midi": 57,
      "hit": false,
      "t": 138529.2639999997,
      "d": 347.4261000000115,
      "v": 56
    },
    {
      "midi": 56,
      "hit": false,
      "t": 138863.82246666637,
      "d": 330.88199999998324,
      "v": 72
    },
    {
      "midi": 54,
      "hit": false,
      "t": 139163.4544999997,
      "d": 264.7055999999866,
      "v": 62
    },
    {
      "midi": 33,
      "hit": false,
      "t": 139227.79266666636,
      "d": 1420.954366666614,
      "v": 56
    },
    {
      "midi": 45,
      "hit": false,
      "t": 139358.30723333303,
      "d": 1242.64573333328,
      "v": 58
    },
    {
      "midi": 49,
      "hit": false,
      "t": 139466.7629999997,
      "d": 496.32299999997485,
      "v": 80
    },
    {
      "midi": 52,
      "hit": false,
      "t": 139773.74796666633,
      "d": 295.9555666666711,
      "v": 65
    },
    {
      "midi": 61,
      "hit": false,
      "t": 140053.159433333,
      "d": 612.131699999969,
      "v": 78
    },
    {
      "midi": 49,
      "hit": false,
      "t": 140396.90906666633,
      "d": 454.04363333332003,
      "v": 68
    },
    {
      "midi": 52,
      "hit": false,
      "t": 140709.40873333297,
      "d": 275.73500000001513,
      "v": 57
    },
    {
      "midi": 61,
      "hit": false,
      "t": 141007.20253333298,
      "d": 310.6614333333564,
      "v": 62
    },
    {
      "midi": 30,
      "hit": false,
      "t": 141148.74649999966,
      "d": 1919.11559999999,
      "v": 52
    },
    {
      "midi": 42,
      "hit": false,
      "t": 141321.540433333,
      "d": 2014.7037333332992,
      "v": 37
    },
    {
      "midi": 51,
      "hit": false,
      "t": 141373.01096666633,
      "d": 610.2934666666551,
      "v": 78
    },
    {
      "midi": 57,
      "hit": false,
      "t": 141740.657633333,
      "d": 294.11733333332813,
      "v": 40
    },
    {
      "midi": 61,
      "hit": false,
      "t": 142060.51023333299,
      "d": 670.9551666666812,
      "v": 64
    },
    {
      "midi": 51,
      "hit": false,
      "t": 142417.12749999965,
      "d": 400.73486666666577,
      "v": 71
    },
    {
      "midi": 57,
      "hit": false,
      "t": 142781.09769999966,
      "d": 330.88199999998324,
      "v": 46
    },
    {
      "midi": 61,
      "hit": false,
      "t": 143132.2002666663,
      "d": 338.2349333333259,
      "v": 62
    },
    {
      "midi": 32,
      "hit": false,
      "t": 143369.3323666663,
      "d": 2238.9681999999448,
      "v": 54
    },
    {
      "midi": 51,
      "hit": false,
      "t": 143510.87633333297,
      "d": 659.9257666666235,
      "v": 62
    },
    {
      "midi": 44,
      "hit": false,
      "t": 143551.31746666628,
      "d": 2433.820933333278,
      "v": 36
    },
    {
      "midi": 54,
      "hit": false,
      "t": 143931.83176666626,
      "d": 305.1467333333276,
      "v": 41
    },
    {
      "midi": 60,
      "hit": false,
      "t": 144314.1842999996,
      "d": 343.7496333333256,
      "v": 45
    },
    {
      "midi": 51,
      "hit": false,
      "t": 144694.69859999957,
      "d": 501.8377000000037,
      "v": 55
    },
    {
      "midi": 56,
      "hit": false,
      "t": 145222.27156666623,
      "d": 314.3379000000132,
      "v": 38
    },
    {
      "midi": 60,
      "hit": false,
      "t": 145773.74156666623,
      "d": 452.2054000000062,
      "v": 43
    },
    {
      "midi": 37,
      "hit": false,
      "t": 146459.40259999956,
      "d": 1571.6895000000077,
      "v": 59
    },
    {
      "midi": 44,
      "hit": false,
      "t": 146683.66706666624,
      "d": 1261.0280666666804,
      "v": 27
    },
    {
      "midi": 52,
      "hit": false,
      "t": 146736.9758333329,
      "d": 2336.394566666684,
      "v": 60
    },
    {
      "midi": 49,
      "hit": false,
      "t": 146792.1228333329,
      "d": 1073.52826666669,
      "v": 27
    },
    {
      "midi": 56,
      "hit": false,
      "t": 146917.12269999957,
      "d": 2158.08593333335,
      "v": 62
    },
    {
      "midi": 61,
      "hit": false,
      "t": 147161.6077333329,
      "d": 1926.4685333333618,
      "v": 56
    },
    {
      "midi": 25,
      "hit": false,
      "t": 148588.07679999957,
      "d": 485.2936000000045,
      "v": 55
    },
    {
      "midi": 37,
      "hit": false,
      "t": 148588.07679999957,
      "d": 533.0876666666882,
      "v": 51
    }
  ]
}