{
  "jsonPath": "Ambient/New Age/Tom Barabas/piano-concerto-in-c-major.json",
  "path": "Ambient\\New Age\\Tom Barabas\\Piano Concerto In C Major.mid",
  "name": "Piano Concerto In C Major",
  "difficulty": "Advanced",
  "bpm": 58.00004253336452,
  "notes": [
    {
      "midi": 53,
      "hit": false,
      "t": 66000,
      "d": 1500,
      "v": 61
    },
    {
      "midi": 57,
      "hit": false,
      "t": 66249.0234375,
      "d": 249.0234375,
      "v": 46
    },
    {
      "midi": 60,
      "hit": false,
      "t": 66249.0234375,
      "d": 249.0234375,
      "v": 46
    },
    {
      "midi": 57,
      "hit": false,
      "t": 66498.046875,
      "d": 251.953125,
      "v": 52
    },
    {
      "midi": 60,
      "hit": false,
      "t": 66498.046875,
      "d": 251.953125,
      "v": 52
    },
    {
      "midi": 57,
      "hit": false,
      "t": 66750,
      "d": 249.0234375,
      "v": 51
    },
    {
      "midi": 60,
      "hit": false,
      "t": 66750,
      "d": 249.0234375,
      "v": 51
    },
    {
      "midi": 57,
      "hit": false,
      "t": 66999.0234375,
      "d": 249.0234375,
      "v": 49
    },
    {
      "midi": 60,
      "hit": false,
      "t": 66999.0234375,
      "d": 249.0234375,
      "v": 49
    },
    {
      "midi": 57,
      "hit": false,
      "t": 67248.046875,
      "d": 251.953125,
      "v": 50
    },
    {
      "midi": 60,
      "hit": false,
      "t": 67248.046875,
      "d": 251.953125,
      "v": 50
    },
    {
      "midi": 53,
      "hit": false,
      "t": 67500,
      "d": 1500,
      "v": 50
    },
    {
      "midi": 57,
      "hit": false,
      "t": 67749.0234375,
      "d": 249.0234375,
      "v": 47
    },
    {
      "midi": 60,
      "hit": false,
      "t": 67749.0234375,
      "d": 249.0234375,
      "v": 47
    },
    {
      "midi": 57,
      "hit": false,
      "t": 67998.046875,
      "d": 251.953125,
      "v": 53
    },
    {
      "midi": 60,
      "hit": false,
      "t": 67998.046875,
      "d": 251.953125,
      "v": 53
    },
    {
      "midi": 57,
      "hit": false,
      "t": 68250,
      "d": 249.0234375,
      "v": 52
    },
    {
      "midi": 60,
      "hit": false,
      "t": 68250,
      "d": 249.0234375,
      "v": 52
    },
    {
      "midi": 57,
      "hit": false,
      "t": 68499.0234375,
      "d": 249.0234375,
      "v": 50
    },
    {
      "midi": 60,
      "hit": false,
      "t": 68499.0234375,
      "d": 249.0234375,
      "v": 50
    },
    {
      "midi": 57,
      "hit": false,
      "t": 68748.046875,
      "d": 251.953125,
      "v": 49
    },
    {
      "midi": 60,
      "hit": false,
      "t": 68748.046875,
      "d": 251.953125,
      "v": 49
    },
    {
      "midi": 77,
      "hit": false,
      "t": 69000,
      "d": 1312.5,
      "v": 87
    },
    {
      "midi": 53,
      "hit": false,
      "t": 69000,
      "d": 1500,
      "v": 70
    },
    {
      "midi": 57,
      "hit": false,
      "t": 69249.0234375,
      "d": 249.0234375,
      "v": 40
    },
    {
      "midi": 60,
      "hit": false,
      "t": 69249.0234375,
      "d": 249.0234375,
      "v": 40
    },
    {
      "midi": 57,
      "hit": false,
      "t": 69498.046875,
      "d": 251.953125,
      "v": 43
    },
    {
      "midi": 60,
      "hit": false,
      "t": 69498.046875,
      "d": 251.953125,
      "v": 43
    },
    {
      "midi": 57,
      "hit": false,
      "t": 69750,
      "d": 249.0234375,
      "v": 43
    },
    {
      "midi": 60,
      "hit": false,
      "t": 69750,
      "d": 249.0234375,
      "v": 43
    },
    {
      "midi": 57,
      "hit": false,
      "t": 69999.0234375,
      "d": 249.0234375,
      "v": 42
    },
    {
      "midi": 60,
      "hit": false,
      "t": 69999.0234375,
      "d": 249.0234375,
      "v": 42
    },
    {
      "midi": 57,
      "hit": false,
      "t": 70248.046875,
      "d": 251.953125,
      "v": 43
    },
    {
      "midi": 60,
      "hit": false,
      "t": 70248.046875,
      "d": 251.953125,
      "v": 43
    },
    {
      "midi": 72,
      "hit": false,
      "t": 70312.5,
      "d": 187.5,
      "v": 92
    },
    {
      "midi": 81,
      "hit": false,
      "t": 70500,
      "d": 1312.5,
      "v": 107
    },
    {
      "midi": 53,
      "hit": false,
      "t": 70500,
      "d": 1500,
      "v": 67
    },
    {
      "midi": 57,
      "hit": false,
      "t": 70749.0234375,
      "d": 249.0234375,
      "v": 37
    },
    {
      "midi": 60,
      "hit": false,
      "t": 70749.0234375,
      "d": 249.0234375,
      "v": 37
    },
    {
      "midi": 57,
      "hit": false,
      "t": 70998.046875,
      "d": 251.953125,
      "v": 39
    },
    {
      "midi": 60,
      "hit": false,
      "t": 70998.046875,
      "d": 251.953125,
      "v": 39
    },
    {
      "midi": 57,
      "hit": false,
      "t": 71250,
      "d": 249.0234375,
      "v": 43
    },
    {
      "midi": 60,
      "hit": false,
      "t": 71250,
      "d": 249.0234375,
      "v": 43
    },
    {
      "midi": 57,
      "hit": false,
      "t": 71499.0234375,
      "d": 249.0234375,
      "v": 42
    },
    {
      "midi": 60,
      "hit": false,
      "t": 71499.0234375,
      "d": 249.0234375,
      "v": 42
    },
    {
      "midi": 57,
      "hit": false,
      "t": 71748.046875,
      "d": 251.953125,
      "v": 42
    },
    {
      "midi": 60,
      "hit": false,
      "t": 71748.046875,
      "d": 251.953125,
      "v": 42
    },
    {
      "midi": 77,
      "hit": false,
      "t": 71812.5,
      "d": 187.5,
      "v": 93
    },
    {
      "midi": 53,
      "hit": false,
      "t": 72000,
      "d": 1500,
      "v": 69
    },
    {
      "midi": 84,
      "hit": false,
      "t": 72000,
      "d": 2250,
      "v": 107
    },
    {
      "midi": 57,
      "hit": false,
      "t": 72249.0234375,
      "d": 249.0234375,
      "v": 39
    },
    {
      "midi": 60,
      "hit": false,
      "t": 72249.0234375,
      "d": 249.0234375,
      "v": 39
    },
    {
      "midi": 57,
      "hit": false,
      "t": 72498.046875,
      "d": 251.953125,
      "v": 42
    },
    {
      "midi": 60,
      "hit": false,
      "t": 72498.046875,
      "d": 251.953125,
      "v": 42
    },
    {
      "midi": 57,
      "hit": false,
      "t": 72750,
      "d": 249.0234375,
      "v": 43
    },
    {
      "midi": 60,
      "hit": false,
      "t": 72750,
      "d": 249.0234375,
      "v": 43
    },
    {
      "midi": 57,
      "hit": false,
      "t": 72999.0234375,
      "d": 249.0234375,
      "v": 42
    },
    {
      "midi": 60,
      "hit": false,
      "t": 72999.0234375,
      "d": 249.0234375,
      "v": 42
    },
    {
      "midi": 57,
      "hit": false,
      "t": 73248.046875,
      "d": 251.953125,
      "v": 41
    },
    {
      "midi": 60,
      "hit": false,
      "t": 73248.046875,
      "d": 251.953125,
      "v": 41
    },
    {
      "midi": 53,
      "hit": false,
      "t": 73500,
      "d": 1500,
      "v": 69
    },
    {
      "midi": 57,
      "hit": false,
      "t": 73749.0234375,
      "d": 249.0234375,
      "v": 39
    },
    {
      "midi": 60,
      "hit": false,
      "t": 73749.0234375,
      "d": 249.0234375,
      "v": 39
    },
    {
      "midi": 57,
      "hit": false,
      "t": 73998.046875,
      "d": 251.953125,
      "v": 41
    },
    {
      "midi": 60,
      "hit": false,
      "t": 73998.046875,
      "d": 251.953125,
      "v": 41
    },
    {
      "midi": 82,
      "hit": false,
      "t": 74250,
      "d": 187.5,
      "v": 96
    },
    {
      "midi": 57,
      "hit": false,
      "t": 74250,
      "d": 249.0234375,
      "v": 42
    },
    {
      "midi": 60,
      "hit": false,
      "t": 74250,
      "d": 249.0234375,
      "v": 42
    },
    {
      "midi": 81,
      "hit": false,
      "t": 74446.2890625,
      "d": 187.5,
      "v": 96
    },
    {
      "midi": 57,
      "hit": false,
      "t": 74499.0234375,
      "d": 249.0234375,
      "v": 42
    },
    {
      "midi": 60,
      "hit": false,
      "t": 74499.0234375,
      "d": 249.0234375,
      "v": 42
    },
    {
      "midi": 79,
      "hit": false,
      "t": 74630.859375,
      "d": 187.5,
      "v": 95
    },
    {
      "midi": 57,
      "hit": false,
      "t": 74748.046875,
      "d": 251.953125,
      "v": 44
    },
    {
      "midi": 60,
      "hit": false,
      "t": 74748.046875,
      "d": 251.953125,
      "v": 44
    },
    {
      "midi": 77,
      "hit": false,
      "t": 74815.4296875,
      "d": 187.5,
      "v": 95
    },
    {
      "midi": 78,
      "hit": false,
      "t": 75000,
      "d": 764.6484375,
      "v": 102
    },
    {
      "midi": 48,
      "hit": false,
      "t": 75000,
      "d": 1500,
      "v": 67
    },
    {
      "midi": 52,
      "hit": false,
      "t": 75249.0234375,
      "d": 249.0234375,
      "v": 30
    },
    {
      "midi": 55,
      "hit": false,
      "t": 75249.0234375,
      "d": 249.0234375,
      "v": 30
    },
    {
      "midi": 58,
      "hit": false,
      "t": 75249.0234375,
      "d": 249.0234375,
      "v": 30
    },
    {
      "midi": 52,
      "hit": false,
      "t": 75498.046875,
      "d": 251.953125,
      "v": 30
    },
    {
      "midi": 55,
      "hit": false,
      "t": 75498.046875,
      "d": 251.953125,
      "v": 30
    },
    {
      "midi": 58,
      "hit": false,
      "t": 75498.046875,
      "d": 251.953125,
      "v": 30
    },
    {
      "midi": 52,
      "hit": false,
      "t": 75750,
      "d": 249.0234375,
      "v": 30
    },
    {
      "midi": 55,
      "hit": false,
      "t": 75750,
      "d": 249.0234375,
      "v": 30
    },
    {
      "midi": 58,
      "hit": false,
      "t": 75750,
      "d": 249.0234375,
      "v": 30
    },
    {
      "midi": 79,
      "hit": false,
      "t": 75750,
      "d": 711.9140625,
      "v": 106
    },
    {
      "midi": 52,
      "hit": false,
      "t": 75999.0234375,
      "d": 249.0234375,
      "v": 30
    },
    {
      "midi": 55,
      "hit": false,
      "t": 75999.0234375,
      "d": 249.0234375,
      "v": 30
    },
    {
      "midi": 58,
      "hit": false,
      "t": 75999.0234375,
      "d": 249.0234375,
      "v": 30
    },
    {
      "midi": 52,
      "hit": false,
      "t": 76248.046875,
      "d": 251.953125,
      "v": 30
    },
    {
      "midi": 55,
      "hit": false,
      "t": 76248.046875,
      "d": 251.953125,
      "v": 30
    },
    {
      "midi": 58,
      "hit": false,
      "t": 76248.046875,
      "d": 251.953125,
      "v": 30
    },
    {
      "midi": 48,
      "hit": false,
      "t": 76500,
      "d": 1500,
      "v": 68
    },
    {
      "midi": 52,
      "hit": false,
      "t": 76749.0234375,
      "d": 249.0234375,
      "v": 30
    },
    {
      "midi": 55,
      "hit": false,
      "t": 76749.0234375,
      "d": 249.0234375,
      "v": 30
    },
    {
      "midi": 58,
      "hit": false,
      "t": 76749.0234375,
      "d": 249.0234375,
      "v": 30
    },
    {
      "midi": 52,
      "hit": false,
      "t": 76998.046875,
      "d": 251.953125,
      "v": 30
    },
    {
      "midi": 55,
      "hit": false,
      "t": 76998.046875,
      "d": 251.953125,
      "v": 30
    },
    {
      "midi": 58,
      "hit": false,
      "t": 76998.046875,
      "d": 251.953125,
      "v": 30
    },
    {
      "midi": 52,
      "hit": false,
      "t": 77250,
      "d": 249.0234375,
      "v": 30
    },
    {
      "midi": 55,
      "hit": false,
      "t": 77250,
      "d": 249.0234375,
      "v": 30
    },
    {
      "midi": 58,
      "hit": false,
      "t": 77250,
      "d": 249.0234375,
      "v": 30
    },
    {
      "midi": 52,
      "hit": false,
      "t": 77499.0234375,
      "d": 249.0234375,
      "v": 30
    },
    {
      "midi": 55,
      "hit": false,
      "t": 77499.0234375,
      "d": 249.0234375,
      "v": 30
    },
    {
      "midi": 58,
      "hit": false,
      "t": 77499.0234375,
      "d": 249.0234375,
      "v": 30
    },
    {
      "midi": 52,
      "hit": false,
      "t": 77748.046875,
      "d": 251.953125,
      "v": 30
    },
    {
      "midi": 55,
      "hit": false,
      "t": 77748.046875,
      "d": 251.953125,
      "v": 30
    },
    {
      "midi": 58,
      "hit": false,
      "t": 77748.046875,
      "d": 251.953125,
      "v": 30
    },
    {
      "midi": 48,
      "hit": false,
      "t": 78000,
      "d": 1500,
      "v": 69
    },
    {
      "midi": 72,
      "hit": false,
      "t": 78000,
      "d": 1529.296875,
      "v": 89
    },
    {
      "midi": 52,
      "hit": false,
      "t": 78249.0234375,
      "d": 249.0234375,
      "v": 30
    },
    {
      "midi": 55,
      "hit": false,
      "t": 78249.0234375,
      "d": 249.0234375,
      "v": 30
    },
    {
      "midi": 58,
      "hit": false,
      "t": 78249.0234375,
      "d": 249.0234375,
      "v": 30
    },
    {
      "midi": 52,
      "hit": false,
      "t": 78498.046875,
      "d": 251.953125,
      "v": 30
    },
    {
      "midi": 55,
      "hit": false,
      "t": 78498.046875,
      "d": 251.953125,
      "v": 30
    },
    {
      "midi": 58,
      "hit": false,
      "t": 78498.046875,
      "d": 251.953125,
      "v": 30
    },
    {
      "midi": 52,
      "hit": false,
      "t": 78750,
      "d": 249.0234375,
      "v": 30
    },
    {
      "midi": 55,
      "hit": false,
      "t": 78750,
      "d": 249.0234375,
      "v": 30
    },
    {
      "midi": 58,
      "hit": false,
      "t": 78750,
      "d": 249.0234375,
      "v": 30
    },
    {
      "midi": 52,
      "hit": false,
      "t": 78999.0234375,
      "d": 249.0234375,
      "v": 30
    },
    {
      "midi": 55,
      "hit": false,
      "t": 78999.0234375,
      "d": 249.0234375,
      "v": 30
    },
    {
      "midi": 58,
      "hit": false,
      "t": 78999.0234375,
      "d": 249.0234375,
      "v": 30
    },
    {
      "midi": 52,
      "hit": false,
      "t": 79248.046875,
      "d": 251.953125,
      "v": 30
    },
    {
      "midi": 55,
      "hit": false,
      "t": 79248.046875,
      "d": 251.953125,
      "v": 30
    },
    {
      "midi": 58,
      "hit": false,
      "t": 79248.046875,
      "d": 251.953125,
      "v": 30
    },
    {
      "midi": 76,
      "hit": false,
      "t": 79500,
      "d": 764.6484375,
      "v": 91
    },
    {
      "midi": 48,
      "hit": false,
      "t": 79500,
      "d": 1500,
      "v": 68
    },
    {
      "midi": 52,
      "hit": false,
      "t": 79749.0234375,
      "d": 249.0234375,
      "v": 30
    },
    {
      "midi": 55,
      "hit": false,
      "t": 79749.0234375,
      "d": 249.0234375,
      "v": 30
    },
    {
      "midi": 58,
      "hit": false,
      "t": 79749.0234375,
      "d": 249.0234375,
      "v": 30
    },
    {
      "midi": 52,
      "hit": false,
      "t": 79998.046875,
      "d": 251.953125,
      "v": 30
    },
    {
      "midi": 55,
      "hit": false,
      "t": 79998.046875,
      "d": 251.953125,
      "v": 30
    },
    {
      "midi": 58,
      "hit": false,
      "t": 79998.046875,
      "d": 251.953125,
      "v": 30
    },
    {
      "midi": 52,
      "hit": false,
      "t": 80250,
      "d": 249.0234375,
      "v": 30
    },
    {
      "midi": 55,
      "hit": false,
      "t": 80250,
      "d": 249.0234375,
      "v": 30
    },
    {
      "midi": 58,
      "hit": false,
      "t": 80250,
      "d": 249.0234375,
      "v": 30
    },
    {
      "midi": 79,
      "hit": false,
      "t": 80250,
      "d": 711.9140625,
      "v": 102
    },
    {
      "midi": 52,
      "hit": false,
      "t": 80499.0234375,
      "d": 249.0234375,
      "v": 30
    },
    {
      "midi": 55,
      "hit": false,
      "t": 80499.0234375,
      "d": 249.0234375,
      "v": 30
    },
    {
      "midi": 58,
      "hit": false,
      "t": 80499.0234375,
      "d": 249.0234375,
      "v": 30
    },
    {
      "midi": 52,
      "hit": false,
      "t": 80748.046875,
      "d": 251.953125,
      "v": 30
    },
    {
      "midi": 55,
      "hit": false,
      "t": 80748.046875,
      "d": 251.953125,
      "v": 30
    },
    {
      "midi": 58,
      "hit": false,
      "t": 80748.046875,
      "d": 251.953125,
      "v": 30
    },
    {
      "midi": 48,
      "hit": false,
      "t": 81000,
      "d": 1500,
      "v": 68
    },
    {
      "midi": 82,
      "hit": false,
      "t": 81000,
      "d": 1875,
      "v": 104
    },
    {
      "midi": 52,
      "hit": false,
      "t": 81249.0234375,
      "d": 249.0234375,
      "v": 30
    },
    {
      "midi": 55,
      "hit": false,
      "t": 81249.0234375,
      "d": 249.0234375,
      "v": 30
    },
    {
      "midi": 58,
      "hit": false,
      "t": 81249.0234375,
      "d": 249.0234375,
      "v": 30
    },
    {
      "midi": 52,
      "hit": false,
      "t": 81498.046875,
      "d": 251.953125,
      "v": 30
    },
    {
      "midi": 55,
      "hit": false,
      "t": 81498.046875,
      "d": 251.953125,
      "v": 30
    },
    {
      "midi": 58,
      "hit": false,
      "t": 81498.046875,
      "d": 251.953125,
      "v": 30
    },
    {
      "midi": 52,
      "hit": false,
      "t": 81750,
      "d": 249.0234375,
      "v": 30
    },
    {
      "midi": 55,
      "hit": false,
      "t": 81750,
      "d": 249.0234375,
      "v": 30
    },
    {
      "midi": 58,
      "hit": false,
      "t": 81750,
      "d": 249.0234375,
      "v": 30
    },
    {
      "midi": 52,
      "hit": false,
      "t": 81999.0234375,
      "d": 249.0234375,
      "v": 30
    },
    {
      "midi": 55,
      "hit": false,
      "t": 81999.0234375,
      "d": 249.0234375,
      "v": 30
    },
    {
      "midi": 58,
      "hit": false,
      "t": 81999.0234375,
      "d": 249.0234375,
      "v": 30
    },
    {
      "midi": 52,
      "hit": false,
      "t": 82248.046875,
      "d": 251.953125,
      "v": 30
    },
    {
      "midi": 55,
      "hit": false,
      "t": 82248.046875,
      "d": 251.953125,
      "v": 30
    },
    {
      "midi": 58,
      "hit": false,
      "t": 82248.046875,
      "d": 251.953125,
      "v": 30
    },
    {
      "midi": 48,
      "hit": false,
      "t": 82500,
      "d": 1500,
      "v": 68
    },
    {
      "midi": 52,
      "hit": false,
      "t": 82749.0234375,
      "d": 249.0234375,
      "v": 30
    },
    {
      "midi": 55,
      "hit": false,
      "t": 82749.0234375,
      "d": 249.0234375,
      "v": 30
    },
    {
      "midi": 58,
      "hit": false,
      "t": 82749.0234375,
      "d": 249.0234375,
      "v": 30
    },
    {
      "midi": 86,
      "hit": false,
      "t": 82866.2109375,
      "d": 380.859375,
      "v": 102
    },
    {
      "midi": 52,
      "hit": false,
      "t": 82998.046875,
      "d": 251.953125,
      "v": 30
    },
    {
      "midi": 55,
      "hit": false,
      "t": 82998.046875,
      "d": 251.953125,
      "v": 30
    },
    {
      "midi": 58,
      "hit": false,
      "t": 82998.046875,
      "d": 251.953125,
      "v": 30
    },
    {
      "midi": 84,
      "hit": false,
      "t": 83244.140625,
      "d": 380.859375,
      "v": 97
    },
    {
      "midi": 52,
      "hit": false,
      "t": 83250,
      "d": 249.0234375,
      "v": 30
    },
    {
      "midi": 55,
      "hit": false,
      "t": 83250,
      "d": 249.0234375,
      "v": 30
    },
    {
      "midi": 58,
      "hit": false,
      "t": 83250,
      "d": 249.0234375,
      "v": 30
    },
    {
      "midi": 52,
      "hit": false,
      "t": 83499.0234375,
      "d": 249.0234375,
      "v": 30
    },
    {
      "midi": 55,
      "hit": false,
      "t": 83499.0234375,
      "d": 249.0234375,
      "v": 30
    },
    {
      "midi": 58,
      "hit": false,
      "t": 83499.0234375,
      "d": 249.0234375,
      "v": 30
    },
    {
      "midi": 82,
      "hit": false,
      "t": 83625,
      "d": 354.4921875,
      "v": 96
    },
    {
      "midi": 52,
      "hit": false,
      "t": 83748.046875,
      "d": 251.953125,
      "v": 30
    },
    {
      "midi": 55,
      "hit": false,
      "t": 83748.046875,
      "d": 251.953125,
      "v": 30
    },
    {
      "midi": 58,
      "hit": false,
      "t": 83748.046875,
      "d": 251.953125,
      "v": 30
    },
    {
      "midi": 80,
      "hit": false,
      "t": 84000,
      "d": 380.859375,
      "v": 94
    },
    {
      "midi": 53,
      "hit": false,
      "t": 84000,
      "d": 1500,
      "v": 71
    },
    {
      "midi": 57,
      "hit": false,
      "t": 84249.0234375,
      "d": 249.0234375,
      "v": 39
    },
    {
      "midi": 60,
      "hit": false,
      "t": 84249.0234375,
      "d": 249.0234375,
      "v": 39
    },
    {
      "midi": 81,
      "hit": false,
      "t": 84375,
      "d": 354.4921875,
      "v": 94
    },
    {
      "midi": 57,
      "hit": false,
      "t": 84498.046875,
      "d": 251.953125,
      "v": 42
    },
    {
      "midi": 60,
      "hit": false,
      "t": 84498.046875,
      "d": 251.953125,
      "v": 42
    },
    {
      "midi": 57,
      "hit": false,
      "t": 84750,
      "d": 249.0234375,
      "v": 43
    },
    {
      "midi": 60,
      "hit": false,
      "t": 84750,
      "d": 249.0234375,
      "v": 43
    },
    {
      "midi": 81,
      "hit": false,
      "t": 84750,
      "d": 750,
      "v": 98
    },
    {
      "midi": 57,
      "hit": false,
      "t": 84999.0234375,
      "d": 249.0234375,
      "v": 45
    },
    {
      "midi": 60,
      "hit": false,
      "t": 84999.0234375,
      "d": 249.0234375,
      "v": 45
    },
    {
      "midi": 57,
      "hit": false,
      "t": 85248.046875,
      "d": 251.953125,
      "v": 43
    },
    {
      "midi": 60,
      "hit": false,
      "t": 85248.046875,
      "d": 251.953125,
      "v": 43
    },
    {
      "midi": 53,
      "hit": false,
      "t": 85500,
      "d": 1500,
      "v": 69
    },
    {
      "midi": 57,
      "hit": false,
      "t": 85749.0234375,
      "d": 249.0234375,
      "v": 39
    },
    {
      "midi": 60,
      "hit": false,
      "t": 85749.0234375,
      "d": 249.0234375,
      "v": 39
    },
    {
      "midi": 57,
      "hit": false,
      "t": 85998.046875,
      "d": 251.953125,
      "v": 44
    },
    {
      "midi": 60,
      "hit": false,
      "t": 85998.046875,
      "d": 251.953125,
      "v": 44
    },
    {
      "midi": 57,
      "hit": false,
      "t": 86250,
      "d": 249.0234375,
      "v": 44
    },
    {
      "midi": 60,
      "hit": false,
      "t": 86250,
      "d": 249.0234375,
      "v": 44
    },
    {
      "midi": 57,
      "hit": false,
      "t": 86499.0234375,
      "d": 249.0234375,
      "v": 44
    },
    {
      "midi": 60,
      "hit": false,
      "t": 86499.0234375,
      "d": 249.0234375,
      "v": 44
    },
    {
      "midi": 57,
      "hit": false,
      "t": 86748.046875,
      "d": 251.953125,
      "v": 45
    },
    {
      "midi": 60,
      "hit": false,
      "t": 86748.046875,
      "d": 251.953125,
      "v": 45
    },
    {
      "midi": 57,
      "hit": false,
      "t": 87000,
      "d": 1500,
      "v": 78
    },
    {
      "midi": 84,
      "hit": false,
      "t": 87000,
      "d": 1500,
      "v": 100
    },
    {
      "midi": 60,
      "hit": false,
      "t": 87249.0234375,
      "d": 249.0234375,
      "v": 45
    },
    {
      "midi": 63,
      "hit": false,
      "t": 87249.0234375,
      "d": 249.0234375,
      "v": 45
    },
    {
      "midi": 65,
      "hit": false,
      "t": 87249.0234375,
      "d": 249.0234375,
      "v": 45
    },
    {
      "midi": 60,
      "hit": false,
      "t": 87498.046875,
      "d": 251.953125,
      "v": 51
    },
    {
      "midi": 63,
      "hit": false,
      "t": 87498.046875,
      "d": 251.953125,
      "v": 51
    },
    {
      "midi": 65,
      "hit": false,
      "t": 87498.046875,
      "d": 251.953125,
      "v": 51
    },
    {
      "midi": 60,
      "hit": false,
      "t": 87750,
      "d": 249.0234375,
      "v": 50
    },
    {
      "midi": 63,
      "hit": false,
      "t": 87750,
      "d": 249.0234375,
      "v": 50
    },
    {
      "midi": 65,
      "hit": false,
      "t": 87750,
      "d": 249.0234375,
      "v": 50
    },
    {
      "midi": 60,
      "hit": false,
      "t": 87999.0234375,
      "d": 249.0234375,
      "v": 49
    },
    {
      "midi": 63,
      "hit": false,
      "t": 87999.0234375,
      "d": 249.0234375,
      "v": 49
    },
    {
      "midi": 65,
      "hit": false,
      "t": 87999.0234375,
      "d": 249.0234375,
      "v": 49
    },
    {
      "midi": 60,
      "hit": false,
      "t": 88248.046875,
      "d": 251.953125,
      "v": 51
    },
    {
      "midi": 63,
      "hit": false,
      "t": 88248.046875,
      "d": 251.953125,
      "v": 51
    },
    {
      "midi": 65,
      "hit": false,
      "t": 88248.046875,
      "d": 251.953125,
      "v": 51
    },
    {
      "midi": 45,
      "hit": false,
      "t": 88500,
      "d": 1125,
      "v": 88
    },
    {
      "midi": 57,
      "hit": false,
      "t": 88500,
      "d": 1500,
      "v": 75
    },
    {
      "midi": 60,
      "hit": false,
      "t": 88749.0234375,
      "d": 249.0234375,
      "v": 47
    },
    {
      "midi": 63,
      "hit": false,
      "t": 88749.0234375,
      "d": 249.0234375,
      "v": 47
    },
    {
      "midi": 65,
      "hit": false,
      "t": 88749.0234375,
      "d": 249.0234375,
      "v": 47
    },
    {
      "midi": 60,
      "hit": false,
      "t": 88998.046875,
      "d": 251.953125,
      "v": 51
    },
    {
      "midi": 63,
      "hit": false,
      "t": 88998.046875,
      "d": 251.953125,
      "v": 51
    },
    {
      "midi": 65,
      "hit": false,
      "t": 88998.046875,
      "d": 251.953125,
      "v": 51
    },
    {
      "midi": 60,
      "hit": false,
      "t": 89250,
      "d": 249.0234375,
      "v": 51
    },
    {
      "midi": 63,
      "hit": false,
      "t": 89250,
      "d": 249.0234375,
      "v": 51
    },
    {
      "midi": 65,
      "hit": false,
      "t": 89250,
      "d": 249.0234375,
      "v": 51
    },
    {
      "midi": 60,
      "hit": false,
      "t": 89499.0234375,
      "d": 249.0234375,
      "v": 53
    },
    {
      "midi": 63,
      "hit": false,
      "t": 89499.0234375,
      "d": 249.0234375,
      "v": 53
    },
    {
      "midi": 65,
      "hit": false,
      "t": 89499.0234375,
      "d": 249.0234375,
      "v": 53
    },
    {
      "midi": 45,
      "hit": false,
      "t": 89625,
      "d": 375,
      "v": 97
    },
    {
      "midi": 60,
      "hit": false,
      "t": 89748.046875,
      "d": 251.953125,
      "v": 48
    },
    {
      "midi": 63,
      "hit": false,
      "t": 89748.046875,
      "d": 251.953125,
      "v": 48
    },
    {
      "midi": 65,
      "hit": false,
      "t": 89748.046875,
      "d": 251.953125,
      "v": 48
    },
    {
      "midi": 48,
      "hit": false,
      "t": 90000,
      "d": 380.859375,
      "v": 101
    },
    {
      "midi": 58,
      "hit": false,
      "t": 90000,
      "d": 1500,
      "v": 77
    },
    {
      "midi": 62,
      "hit": false,
      "t": 90249.0234375,
      "d": 249.0234375,
      "v": 46
    },
    {
      "midi": 65,
      "hit": false,
      "t": 90249.0234375,
      "d": 249.0234375,
      "v": 46
    },
    {
      "midi": 46,
      "hit": false,
      "t": 90375,
      "d": 354.4921875,
      "v": 99
    },
    {
      "midi": 62,
      "hit": false,
      "t": 90498.046875,
      "d": 251.953125,
      "v": 52
    },
    {
      "midi": 65,
      "hit": false,
      "t": 90498.046875,
      "d": 251.953125,
      "v": 52
    },
    {
      "midi": 62,
      "hit": false,
      "t": 90750,
      "d": 249.0234375,
      "v": 50
    },
    {
      "midi": 65,
      "hit": false,
      "t": 90750,
      "d": 249.0234375,
      "v": 50
    },
    {
      "midi": 46,
      "hit": false,
      "t": 90750,
      "d": 750,
      "v": 96
    },
    {
      "midi": 62,
      "hit": false,
      "t": 90999.0234375,
      "d": 249.0234375,
      "v": 51
    },
    {
      "midi": 65,
      "hit": false,
      "t": 90999.0234375,
      "d": 249.0234375,
      "v": 51
    },
    {
      "midi": 62,
      "hit": false,
      "t": 91248.046875,
      "d": 251.953125,
      "v": 49
    },
    {
      "midi": 65,
      "hit": false,
      "t": 91248.046875,
      "d": 251.953125,
      "v": 49
    },
    {
      "midi": 58,
      "hit": false,
      "t": 91500,
      "d": 1500,
      "v": 77
    },
    {
      "midi": 62,
      "hit": false,
      "t": 91749.0234375,
      "d": 249.0234375,
      "v": 48
    },
    {
      "midi": 65,
      "hit": false,
      "t": 91749.0234375,
      "d": 249.0234375,
      "v": 48
    },
    {
      "midi": 62,
      "hit": false,
      "t": 91998.046875,
      "d": 251.953125,
      "v": 52
    },
    {
      "midi": 65,
      "hit": false,
      "t": 91998.046875,
      "d": 251.953125,
      "v": 52
    },
    {
      "midi": 62,
      "hit": false,
      "t": 92250,
      "d": 249.0234375,
      "v": 50
    },
    {
      "midi": 65,
      "hit": false,
      "t": 92250,
      "d": 249.0234375,
      "v": 50
    },
    {
      "midi": 62,
      "hit": false,
      "t": 92499.0234375,
      "d": 249.0234375,
      "v": 53
    },
    {
      "midi": 65,
      "hit": false,
      "t": 92499.0234375,
      "d": 249.0234375,
      "v": 53
    },
    {
      "midi": 62,
      "hit": false,
      "t": 92748.046875,
      "d": 251.953125,
      "v": 52
    },
    {
      "midi": 65,
      "hit": false,
      "t": 92748.046875,
      "d": 251.953125,
      "v": 52
    },
    {
      "midi": 59,
      "hit": false,
      "t": 93000,
      "d": 1500,
      "v": 76
    },
    {
      "midi": 86,
      "hit": false,
      "t": 93000,
      "d": 1500,
      "v": 103
    },
    {
      "midi": 62,
      "hit": false,
      "t": 93249.0234375,
      "d": 249.0234375,
      "v": 45
    },
    {
      "midi": 65,
      "hit": false,
      "t": 93249.0234375,
      "d": 249.0234375,
      "v": 45
    },
    {
      "midi": 68,
      "hit": false,
      "t": 93249.0234375,
      "d": 249.0234375,
      "v": 45
    },
    {
      "midi": 62,
      "hit": false,
      "t": 93498.046875,
      "d": 251.953125,
      "v": 50
    },
    {
      "midi": 65,
      "hit": false,
      "t": 93498.046875,
      "d": 251.953125,
      "v": 50
    },
    {
      "midi": 68,
      "hit": false,
      "t": 93498.046875,
      "d": 251.953125,
      "v": 50
    },
    {
      "midi": 62,
      "hit": false,
      "t": 93750,
      "d": 249.0234375,
      "v": 50
    },
    {
      "midi": 65,
      "hit": false,
      "t": 93750,
      "d": 249.0234375,
      "v": 50
    },
    {
      "midi": 68,
      "hit": false,
      "t": 93750,
      "d": 249.0234375,
      "v": 50
    },
    {
      "midi": 62,
      "hit": false,
      "t": 93999.0234375,
      "d": 249.0234375,
      "v": 49
    },
    {
      "midi": 65,
      "hit": false,
      "t": 93999.0234375,
      "d": 249.0234375,
      "v": 49
    },
    {
      "midi": 68,
      "hit": false,
      "t": 93999.0234375,
      "d": 249.0234375,
      "v": 49
    },
    {
      "midi": 62,
      "hit": false,
      "t": 94248.046875,
      "d": 251.953125,
      "v": 51
    },
    {
      "midi": 65,
      "hit": false,
      "t": 94248.046875,
      "d": 251.953125,
      "v": 51
    },
    {
      "midi": 68,
      "hit": false,
      "t": 94248.046875,
      "d": 251.953125,
      "v": 51
    },
    {
      "midi": 47,
      "hit": false,
      "t": 94500,
      "d": 1125,
      "v": 92
    },
    {
      "midi": 59,
      "hit": false,
      "t": 94500,
      "d": 1500,
      "v": 79
    },
    {
      "midi": 62,
      "hit": false,
      "t": 94749.0234375,
      "d": 249.0234375,
      "v": 45
    },
    {
      "midi": 65,
      "hit": false,
      "t": 94749.0234375,
      "d": 249.0234375,
      "v": 45
    },
    {
      "midi": 68,
      "hit": false,
      "t": 94749.0234375,
      "d": 249.0234375,
      "v": 45
    },
    {
      "midi": 62,
      "hit": false,
      "t": 94998.046875,
      "d": 251.953125,
      "v": 50
    },
    {
      "midi": 65,
      "hit": false,
      "t": 94998.046875,
      "d": 251.953125,
      "v": 50
    },
    {
      "midi": 68,
      "hit": false,
      "t": 94998.046875,
      "d": 251.953125,
      "v": 50
    },
    {
      "midi": 62,
      "hit": false,
      "t": 95250,
      "d": 249.0234375,
      "v": 52
    },
    {
      "midi": 65,
      "hit": false,
      "t": 95250,
      "d": 249.0234375,
      "v": 52
    },
    {
      "midi": 68,
      "hit": false,
      "t": 95250,
      "d": 249.0234375,
      "v": 52
    },
    {
      "midi": 62,
      "hit": false,
      "t": 95499.0234375,
      "d": 249.0234375,
      "v": 49
    },
    {
      "midi": 65,
      "hit": false,
      "t": 95499.0234375,
      "d": 249.0234375,
      "v": 49
    },
    {
      "midi": 68,
      "hit": false,
      "t": 95499.0234375,
      "d": 249.0234375,
      "v": 49
    },
    {
      "midi": 47,
      "hit": false,
      "t": 95625,
      "d": 375,
      "v": 98
    },
    {
      "midi": 62,
      "hit": false,
      "t": 95748.046875,
      "d": 251.953125,
      "v": 51
    },
    {
      "midi": 65,
      "hit": false,
      "t": 95748.046875,
      "d": 251.953125,
      "v": 51
    },
    {
      "midi": 68,
      "hit": false,
      "t": 95748.046875,
      "d": 251.953125,
      "v": 51
    },
    {
      "midi": 48,
      "hit": false,
      "t": 96000,
      "d": 750,
      "v": 96
    },
    {
      "midi": 60,
      "hit": false,
      "t": 96000,
      "d": 1500,
      "v": 78
    },
    {
      "midi": 65,
      "hit": false,
      "t": 96249.0234375,
      "d": 249.0234375,
      "v": 46
    },
    {
      "midi": 69,
      "hit": false,
      "t": 96249.0234375,
      "d": 249.0234375,
      "v": 46
    },
    {
      "midi": 65,
      "hit": false,
      "t": 96498.046875,
      "d": 251.953125,
      "v": 53
    },
    {
      "midi": 69,
      "hit": false,
      "t": 96498.046875,
      "d": 251.953125,
      "v": 53
    },
    {
      "midi": 65,
      "hit": false,
      "t": 96750,
      "d": 249.0234375,
      "v": 50
    },
    {
      "midi": 69,
      "hit": false,
      "t": 96750,
      "d": 249.0234375,
      "v": 50
    },
    {
      "midi": 84,
      "hit": false,
      "t": 96750,
      "d": 1500,
      "v": 110
    },
    {
      "midi": 65,
      "hit": false,
      "t": 96999.0234375,
      "d": 249.0234375,
      "v": 51
    },
    {
      "midi": 69,
      "hit": false,
      "t": 96999.0234375,
      "d": 249.0234375,
      "v": 51
    },
    {
      "midi": 65,
      "hit": false,
      "t": 97248.046875,
      "d": 251.953125,
      "v": 51
    },
    {
      "midi": 69,
      "hit": false,
      "t": 97248.046875,
      "d": 251.953125,
      "v": 51
    },
    {
      "midi": 60,
      "hit": false,
      "t": 97500,
      "d": 1500,
      "v": 72
    },
    {
      "midi": 65,
      "hit": false,
      "t": 97749.0234375,
      "d": 249.0234375,
      "v": 44
    },
    {
      "midi": 69,
      "hit": false,
      "t": 97749.0234375,
      "d": 249.0234375,
      "v": 44
    },
    {
      "midi": 65,
      "hit": false,
      "t": 97998.046875,
      "d": 251.953125,
      "v": 49
    },
    {
      "midi": 69,
      "hit": false,
      "t": 97998.046875,
      "d": 251.953125,
      "v": 49
    },
    {
      "midi": 82,
      "hit": false,
      "t": 98250,
      "d": 187.5,
      "v": 97
    },
    {
      "midi": 65,
      "hit": false,
      "t": 98250,
      "d": 249.0234375,
      "v": 53
    },
    {
      "midi": 69,
      "hit": false,
      "t": 98250,
      "d": 249.0234375,
      "v": 53
    },
    {
      "midi": 81,
      "hit": false,
      "t": 98446.2890625,
      "d": 187.5,
      "v": 96
    },
    {
      "midi": 65,
      "hit": false,
      "t": 98499.0234375,
      "d": 249.0234375,
      "v": 50
    },
    {
      "midi": 69,
      "hit": false,
      "t": 98499.0234375,
      "d": 249.0234375,
      "v": 50
    },
    {
      "midi": 79,
      "hit": false,
      "t": 98630.859375,
      "d": 187.5,
      "v": 98
    },
    {
      "midi": 65,
      "hit": false,
      "t": 98748.046875,
      "d": 251.953125,
      "v": 53
    },
    {
      "midi": 69,
      "hit": false,
      "t": 98748.046875,
      "d": 251.953125,
      "v": 53
    },
    {
      "midi": 77,
      "hit": false,
      "t": 98815.4296875,
      "d": 187.5,
      "v": 94
    },
    {
      "midi": 76,
      "hit": false,
      "t": 99000,
      "d": 58.59375,
      "v": 93
    },
    {
      "midi": 60,
      "hit": false,
      "t": 99000,
      "d": 1500,
      "v": 75
    },
    {
      "midi": 77,
      "hit": false,
      "t": 99073.2421875,
      "d": 58.59375,
      "v": 93
    },
    {
      "midi": 76,
      "hit": false,
      "t": 99146.484375,
      "d": 58.59375,
      "v": 93
    },
    {
      "midi": 77,
      "hit": false,
      "t": 99219.7265625,
      "d": 58.59375,
      "v": 93
    },
    {
      "midi": 67,
      "hit": false,
      "t": 99249.0234375,
      "d": 249.0234375,
      "v": 45
    },
    {
      "midi": 70,
      "hit": false,
      "t": 99249.0234375,
      "d": 249.0234375,
      "v": 45
    },
    {
      "midi": 76,
      "hit": false,
      "t": 99292.96875,
      "d": 58.59375,
      "v": 93
    },
    {
      "midi": 77,
      "hit": false,
      "t": 99366.2109375,
      "d": 58.59375,
      "v": 93
    },
    {
      "midi": 76,
      "hit": false,
      "t": 99439.453125,
      "d": 58.59375,
      "v": 93
    },
    {
      "midi": 67,
      "hit": false,
      "t": 99498.046875,
      "d": 251.953125,
      "v": 50
    },
    {
      "midi": 70,
      "hit": false,
      "t": 99498.046875,
      "d": 251.953125,
      "v": 50
    },
    {
      "midi": 77,
      "hit": false,
      "t": 99509.765625,
      "d": 55.6640625,
      "v": 93
    },
    {
      "midi": 76,
      "hit": false,
      "t": 99580.078125,
      "d": 55.6640625,
      "v": 93
    },
    {
      "midi": 77,
      "hit": false,
      "t": 99650.390625,
      "d": 55.6640625,
      "v": 93
    },
    {
      "midi": 76,
      "hit": false,
      "t": 99720.703125,
      "d": 55.6640625,
      "v": 93
    },
    {
      "midi": 67,
      "hit": false,
      "t": 99750,
      "d": 249.0234375,
      "v": 50
    },
    {
      "midi": 70,
      "hit": false,
      "t": 99750,
      "d": 249.0234375,
      "v": 50
    },
    {
      "midi": 77,
      "hit": false,
      "t": 99791.015625,
      "d": 55.6640625,
      "v": 93
    },
    {
      "midi": 76,
      "hit": false,
      "t": 99861.328125,
      "d": 55.6640625,
      "v": 93
    },
    {
      "midi": 77,
      "hit": false,
      "t": 99928.7109375,
      "d": 52.734375,
      "v": 93
    },
    {
      "midi": 76,
      "hit": false,
      "t": 99996.09375,
      "d": 52.734375,
      "v": 93
    },
    {
      "midi": 67,
      "hit": false,
      "t": 99999.0234375,
      "d": 249.0234375,
      "v": 50
    },
    {
      "midi": 70,
      "hit": false,
      "t": 99999.0234375,
      "d": 249.0234375,
      "v": 50
    },
    {
      "midi": 77,
      "hit": false,
      "t": 100063.4765625,
      "d": 52.734375,
      "v": 93
    },
    {
      "midi": 76,
      "hit": false,
      "t": 100130.859375,
      "d": 52.734375,
      "v": 93
    },
    {
      "midi": 77,
      "hit": false,
      "t": 100198.2421875,
      "d": 52.734375,
      "v": 93
    },
    {
      "midi": 67,
      "hit": false,
      "t": 100248.046875,
      "d": 251.953125,
      "v": 51
    },
    {
      "midi": 70,
      "hit": false,
      "t": 100248.046875,
      "d": 251.953125,
      "v": 51
    },
    {
      "midi": 76,
      "hit": false,
      "t": 100265.625,
      "d": 52.734375,
      "v": 93
    },
    {
      "midi": 77,
      "hit": false,
      "t": 100330.078125,
      "d": 49.8046875,
      "v": 93
    },
    {
      "midi": 76,
      "hit": false,
      "t": 100394.53125,
      "d": 49.8046875,
      "v": 93
    },
    {
      "midi": 77,
      "hit": false,
      "t": 100458.984375,
      "d": 49.8046875,
      "v": 93
    },
    {
      "midi": 60,
      "hit": false,
      "t": 100500,
      "d": 1500,
      "v": 76
    },
    {
      "midi": 76,
      "hit": false,
      "t": 100523.4375,
      "d": 49.8046875,
      "v": 93
    },
    {
      "midi": 77,
      "hit": false,
      "t": 100587.890625,
      "d": 49.8046875,
      "v": 93
    },
    {
      "midi": 76,
      "hit": false,
      "t": 100652.34375,
      "d": 49.8046875,
      "v": 93
    },
    {
      "midi": 77,
      "hit": false,
      "t": 100716.796875,
      "d": 49.8046875,
      "v": 93
    },
    {
      "midi": 67,
      "hit": false,
      "t": 100749.0234375,
      "d": 249.0234375,
      "v": 46
    },
    {
      "midi": 70,
      "hit": false,
      "t": 100749.0234375,
      "d": 249.0234375,
      "v": 46
    },
    {
      "midi": 76,
      "hit": false,
      "t": 100784.1796875,
      "d": 52.734375,
      "v": 93
    },
    {
      "midi": 77,
      "hit": false,
      "t": 100851.5625,
      "d": 52.734375,
      "v": 93
    },
    {
      "midi": 76,
      "hit": false,
      "t": 100918.9453125,
      "d": 52.734375,
      "v": 93
    },
    {
      "midi": 77,
      "hit": false,
      "t": 100986.328125,
      "d": 52.734375,
      "v": 93
    },
    {
      "midi": 67,
      "hit": false,
      "t": 100998.046875,
      "d": 251.953125,
      "v": 51
    },
    {
      "midi": 70,
      "hit": false,
      "t": 100998.046875,
      "d": 251.953125,
      "v": 51
    },
    {
      "midi": 76,
      "hit": false,
      "t": 101053.7109375,
      "d": 52.734375,
      "v": 93
    },
    {
      "midi": 77,
      "hit": false,
      "t": 101121.09375,
      "d": 52.734375,
      "v": 93
    },
    {
      "midi": 76,
      "hit": false,
      "t": 101188.4765625,
      "d": 52.734375,
      "v": 93
    },
    {
      "midi": 67,
      "hit": false,
      "t": 101250,
      "d": 249.0234375,
      "v": 52
    },
    {
      "midi": 70,
      "hit": false,
      "t": 101250,
      "d": 249.0234375,
      "v": 52
    },
    {
      "midi": 77,
      "hit": false,
      "t": 101258.7890625,
      "d": 55.6640625,
      "v": 93
    },
    {
      "midi": 76,
      "hit": false,
      "t": 101329.1015625,
      "d": 55.6640625,
      "v": 93
    },
    {
      "midi": 77,
      "hit": false,
      "t": 101399.4140625,
      "d": 55.6640625,
      "v": 93
    },
    {
      "midi": 76,
      "hit": false,
      "t": 101469.7265625,
      "d": 55.6640625,
      "v": 93
    },
    {
      "midi": 67,
      "hit": false,
      "t": 101499.0234375,
      "d": 249.0234375,
      "v": 51
    },
    {
      "midi": 70,
      "hit": false,
      "t": 101499.0234375,
      "d": 249.0234375,
      "v": 51
    },
    {
      "midi": 77,
      "hit": false,
      "t": 101540.0390625,
      "d": 55.6640625,
      "v": 93
    },
    {
      "midi": 76,
      "hit": false,
      "t": 101610.3515625,
      "d": 35.15625,
      "v": 93
    },
    {
      "midi": 74,
      "hit": false,
      "t": 101648.4375,
      "d": 175.78125,
      "v": 99
    },
    {
      "midi": 67,
      "hit": false,
      "t": 101748.046875,
      "d": 251.953125,
      "v": 51
    },
    {
      "midi": 70,
      "hit": false,
      "t": 101748.046875,
      "d": 251.953125,
      "v": 51
    },
    {
      "midi": 76,
      "hit": false,
      "t": 101824.21875,
      "d": 175.78125,
      "v": 99
    },
    {
      "midi": 65,
      "hit": false,
      "t": 102000,
      "d": 750,
      "v": 49
    },
    {
      "midi": 69,
      "hit": false,
      "t": 102000,
      "d": 750,
      "v": 49
    },
    {
      "midi": 77,
      "hit": false,
      "t": 102000,
      "d": 750,
      "v": 99
    },
    {
      "midi": 69,
      "hit": false,
      "t": 107961.9140625,
      "d": 38.0859375,
      "v": 110
    },
    {
      "midi": 81,
      "hit": false,
      "t": 108000,
      "d": 711.9140625,
      "v": 98
    },
    {
      "midi": 50,
      "hit": false,
      "t": 108000,
      "d": 750,
      "v": 68
    },
    {
      "midi": 81,
      "hit": false,
      "t": 108750,
      "d": 999.0234375,
      "v": 100
    },
    {
      "midi": 62,
      "hit": false,
      "t": 109500,
      "d": 750,
      "v": 68
    },
    {
      "midi": 77,
      "hit": false,
      "t": 109749.0234375,
      "d": 249.0234375,
      "v": 93
    },
    {
      "midi": 74,
      "hit": false,
      "t": 109998.046875,
      "d": 251.953125,
      "v": 94
    },
    {
      "midi": 79,
      "hit": false,
      "t": 110250,
      "d": 249.0234375,
      "v": 103
    },
    {
      "midi": 57,
      "hit": false,
      "t": 110250,
      "d": 750,
      "v": 77
    },
    {
      "midi": 76,
      "hit": false,
      "t": 110499.0234375,
      "d": 249.0234375,
      "v": 95
    },
    {
      "midi": 73,
      "hit": false,
      "t": 110748.046875,
      "d": 251.953125,
      "v": 93
    },
    {
      "midi": 74,
      "hit": false,
      "t": 111000,
      "d": 187.5,
      "v": 67
    },
    {
      "midi": 50,
      "hit": false,
      "t": 111000,
      "d": 750,
      "v": 74
    },
    {
      "midi": 76,
      "hit": false,
      "t": 111187.5,
      "d": 61.5234375,
      "v": 79
    },
    {
      "midi": 74,
      "hit": false,
      "t": 111249.0234375,
      "d": 61.5234375,
      "v": 75
    },
    {
      "midi": 73,
      "hit": false,
      "t": 111310.546875,
      "d": 64.453125,
      "v": 77
    },
    {
      "midi": 74,
      "hit": false,
      "t": 111375,
      "d": 187.5,
      "v": 77
    },
    {
      "midi": 76,
      "hit": false,
      "t": 111562.5,
      "d": 187.5,
      "v": 101
    },
    {
      "midi": 77,
      "hit": false,
      "t": 111750,
      "d": 750,
      "v": 100
    },
    {
      "midi": 50,
      "hit": false,
      "t": 112500,
      "d": 750,
      "v": 68
    },
    {
      "midi": 77,
      "hit": false,
      "t": 112875,
      "d": 375,
      "v": 89
    },
    {
      "midi": 79,
      "hit": false,
      "t": 113250,
      "d": 375,
      "v": 99
    },
    {
      "midi": 81,
      "hit": false,
      "t": 113625,
      "d": 304.6875,
      "v": 101
    },
    {
      "midi": 76,
      "hit": false,
      "t": 113929.6875,
      "d": 70.3125,
      "v": 103
    },
    {
      "midi": 79,
      "hit": false,
      "t": 113961.9140625,
      "d": 38.0859375,
      "v": 103
    },
    {
      "midi": 82,
      "hit": false,
      "t": 114000,
      "d": 375,
      "v": 103
    },
    {
      "midi": 36,
      "hit": false,
      "t": 114000,
      "d": 750,
      "v": 68
    },
    {
      "midi": 48,
      "hit": false,
      "t": 114000,
      "d": 750,
      "v": 68
    },
    {
      "midi": 82,
      "hit": false,
      "t": 114750,
      "d": 937.5,
      "v": 88
    },
    {
      "midi": 48,
      "hit": false,
      "t": 115500,
      "d": 750,
      "v": 67
    },
    {
      "midi": 79,
      "hit": false,
      "t": 115687.5,
      "d": 175.78125,
      "v": 96
    },
    {
      "midi": 79,
      "hit": false,
      "t": 115875,
      "d": 190.4296875,
      "v": 99
    },
    {
      "midi": 76,
      "hit": false,
      "t": 116062.5,
      "d": 175.78125,
      "v": 96
    },
    {
      "midi": 76,
      "hit": false,
      "t": 116250,
      "d": 190.4296875,
      "v": 100
    },
    {
      "midi": 72,
      "hit": false,
      "t": 116437.5,
      "d": 175.78125,
      "v": 94
    },
    {
      "midi": 79,
      "hit": false,
      "t": 116625,
      "d": 190.4296875,
      "v": 106
    },
    {
      "midi": 70,
      "hit": false,
      "t": 116812.5,
      "d": 175.78125,
      "v": 98
    },
    {
      "midi": 72,
      "hit": false,
      "t": 117000,
      "d": 380.859375,
      "v": 100
    },
    {
      "midi": 53,
      "hit": false,
      "t": 117000,
      "d": 750,
      "v": 68
    },
    {
      "midi": 70,
      "hit": false,
      "t": 117375,
      "d": 46.875,
      "v": 96
    },
    {
      "midi": 72,
      "hit": false,
      "t": 117433.59375,
      "d": 46.875,
      "v": 98
    },
    {
      "midi": 70,
      "hit": false,
      "t": 117492.1875,
      "d": 46.875,
      "v": 98
    },
    {
      "midi": 72,
      "hit": false,
      "t": 117550.78125,
      "d": 46.875,
      "v": 98
    },
    {
      "midi": 70,
      "hit": false,
      "t": 117606.4453125,
      "d": 43.9453125,
      "v": 98
    },
    {
      "midi": 72,
      "hit": false,
      "t": 117662.109375,
      "d": 43.9453125,
      "v": 98
    },
    {
      "midi": 70,
      "hit": false,
      "t": 117717.7734375,
      "d": 8.7890625,
      "v": 98
    },
    {
      "midi": 69,
      "hit": false,
      "t": 117750,
      "d": 1125,
      "v": 97
    },
    {
      "midi": 53,
      "hit": false,
      "t": 118500,
      "d": 750,
      "v": 69
    },
    {
      "midi": 72,
      "hit": false,
      "t": 118875,
      "d": 375,
      "v": 100
    },
    {
      "midi": 77,
      "hit": false,
      "t": 119250,
      "d": 375,
      "v": 108
    },
    {
      "midi": 81,
      "hit": false,
      "t": 119625,
      "d": 375,
      "v": 104
    },
    {
      "midi": 84,
      "hit": false,
      "t": 120000,
      "d": 380.859375,
      "v": 102
    },
    {
      "midi": 52,
      "hit": false,
      "t": 120000,
      "d": 750,
      "v": 69
    },
    {
      "midi": 79,
      "hit": false,
      "t": 120375,
      "d": 354.4921875,
      "v": 97
    },
    {
      "midi": 79,
      "hit": false,
      "t": 120750,
      "d": 1529.296875,
      "v": 96
    },
    {
      "midi": 52,
      "hit": false,
      "t": 121500,
      "d": 750,
      "v": 69
    },
    {
      "midi": 77,
      "hit": false,
      "t": 122250,
      "d": 380.859375,
      "v": 92
    },
    {
      "midi": 76,
      "hit": false,
      "t": 122625,
      "d": 354.4921875,
      "v": 95
    },
    {
      "midi": 53,
      "hit": false,
      "t": 123000,
      "d": 750,
      "v": 67
    },
    {
      "midi": 73,
      "hit": false,
      "t": 123000,
      "d": 764.6484375,
      "v": 94
    },
    {
      "midi": 74,
      "hit": false,
      "t": 123750,
      "d": 711.9140625,
      "v": 94
    },
    {
      "midi": 53,
      "hit": false,
      "t": 124500,
      "d": 750,
      "v": 69
    },
    {
      "midi": 74,
      "hit": false,
      "t": 124875,
      "d": 375,
      "v": 86
    },
    {
      "midi": 74,
      "hit": false,
      "t": 125250,
      "d": 375,
      "v": 97
    },
    {
      "midi": 74,
      "hit": false,
      "t": 125625,
      "d": 375,
      "v": 97
    },
    {
      "midi": 74,
      "hit": false,
      "t": 126000,
      "d": 562.5,
      "v": 97
    },
    {
      "midi": 54,
      "hit": false,
      "t": 126000,
      "d": 750,
      "v": 68
    },
    {
      "midi": 76,
      "hit": false,
      "t": 126562.5,
      "d": 187.5,
      "v": 103
    },
    {
      "midi": 78,
      "hit": false,
      "t": 126750,
      "d": 562.5,
      "v": 102
    },
    {
      "midi": 79,
      "hit": false,
      "t": 127312.5,
      "d": 187.5,
      "v": 100
    },
    {
      "midi": 81,
      "hit": false,
      "t": 127500,
      "d": 562.5,
      "v": 102
    },
    {
      "midi": 54,
      "hit": false,
      "t": 127500,
      "d": 750,
      "v": 67
    },
    {
      "midi": 83,
      "hit": false,
      "t": 128062.5,
      "d": 187.5,
      "v": 102
    },
    {
      "midi": 84,
      "hit": false,
      "t": 128250,
      "d": 562.5,
      "v": 102
    },
    {
      "midi": 72,
      "hit": false,
      "t": 128812.5,
      "d": 187.5,
      "v": 85
    },
    {
      "midi": 72,
      "hit": false,
      "t": 129000,
      "d": 190.4296875,
      "v": 97
    },
    {
      "midi": 55,
      "hit": false,
      "t": 129000,
      "d": 750,
      "v": 68
    },
    {
      "midi": 71,
      "hit": false,
      "t": 129199.21875,
      "d": 190.4296875,
      "v": 96
    },
    {
      "midi": 69,
      "hit": false,
      "t": 129380.859375,
      "d": 190.4296875,
      "v": 96
    },
    {
      "midi": 67,
      "hit": false,
      "t": 129565.4296875,
      "d": 175.78125,
      "v": 94
    },
    {
      "midi": 67,
      "hit": false,
      "t": 129750,
      "d": 750,
      "v": 98
    },
    {
      "midi": 79,
      "hit": false,
      "t": 131250,
      "d": 750,
      "v": 86
    },
    {
      "midi": 43,
      "hit": false,
      "t": 132000,
      "d": 750,
      "v": 68
    },
    {
      "midi": 55,
      "hit": false,
      "t": 132000,
      "d": 750,
      "v": 68
    },
    {
      "midi": 80,
      "hit": false,
      "t": 132000,
      "d": 1749.0234375,
      "v": 99
    },
    {
      "midi": 74,
      "hit": false,
      "t": 133749.0234375,
      "d": 249.0234375,
      "v": 90
    },
    {
      "midi": 73,
      "hit": false,
      "t": 133998.046875,
      "d": 251.953125,
      "v": 95
    },
    {
      "midi": 74,
      "hit": false,
      "t": 134250,
      "d": 249.0234375,
      "v": 101
    },
    {
      "midi": 75,
      "hit": false,
      "t": 134499.0234375,
      "d": 249.0234375,
      "v": 99
    },
    {
      "midi": 77,
      "hit": false,
      "t": 134748.046875,
      "d": 251.953125,
      "v": 100
    },
    {
      "midi": 43,
      "hit": false,
      "t": 135000,
      "d": 750,
      "v": 69
    },
    {
      "midi": 55,
      "hit": false,
      "t": 135000,
      "d": 750,
      "v": 69
    },
    {
      "midi": 79,
      "hit": false,
      "t": 135000,
      "d": 1749.0234375,
      "v": 103
    },
    {
      "midi": 72,
      "hit": false,
      "t": 136749.0234375,
      "d": 249.0234375,
      "v": 90
    },
    {
      "midi": 71,
      "hit": false,
      "t": 136998.046875,
      "d": 251.953125,
      "v": 96
    },
    {
      "midi": 72,
      "hit": false,
      "t": 137250,
      "d": 249.0234375,
      "v": 100
    },
    {
      "midi": 74,
      "hit": false,
      "t": 137499.0234375,
      "d": 249.0234375,
      "v": 99
    },
    {
      "midi": 75,
      "hit": false,
      "t": 137748.046875,
      "d": 251.953125,
      "v": 99
    },
    {
      "midi": 43,
      "hit": false,
      "t": 138000,
      "d": 750,
      "v": 69
    },
    {
      "midi": 55,
      "hit": false,
      "t": 138000,
      "d": 750,
      "v": 69
    },
    {
      "midi": 77,
      "hit": false,
      "t": 138000,
      "d": 1749.0234375,
      "v": 100
    },
    {
      "midi": 71,
      "hit": false,
      "t": 139749.0234375,
      "d": 249.0234375,
      "v": 89
    },
    {
      "midi": 69,
      "hit": false,
      "t": 139998.046875,
      "d": 251.953125,
      "v": 93
    },
    {
      "midi": 71,
      "hit": false,
      "t": 140250,
      "d": 249.0234375,
      "v": 97
    },
    {
      "midi": 72,
      "hit": false,
      "t": 140499.0234375,
      "d": 249.0234375,
      "v": 98
    },
    {
      "midi": 74,
      "hit": false,
      "t": 140748.046875,
      "d": 251.953125,
      "v": 100
    },
    {
      "midi": 43,
      "hit": false,
      "t": 141000,
      "d": 750,
      "v": 68
    },
    {
      "midi": 55,
      "hit": false,
      "t": 141000,
      "d": 750,
      "v": 68
    },
    {
      "midi": 75,
      "hit": false,
      "t": 141000,
      "d": 1749.0234375,
      "v": 102
    },
    {
      "midi": 69,
      "hit": false,
      "t": 142749.0234375,
      "d": 249.0234375,
      "v": 89
    },
    {
      "midi": 68,
      "hit": false,
      "t": 142998.046875,
      "d": 251.953125,
      "v": 95
    },
    {
      "midi": 69,
      "hit": false,
      "t": 143250,
      "d": 249.0234375,
      "v": 102
    },
    {
      "midi": 71,
      "hit": false,
      "t": 143499.0234375,
      "d": 249.0234375,
      "v": 101
    },
    {
      "midi": 72,
      "hit": false,
      "t": 143748.046875,
      "d": 251.953125,
      "v": 100
    },
    {
      "midi": 43,
      "hit": false,
      "t": 144000,
      "d": 750,
      "v": 66
    },
    {
      "midi": 55,
      "hit": false,
      "t": 144000,
      "d": 750,
      "v": 66
    },
    {
      "midi": 74,
      "hit": false,
      "t": 144000,
      "d": 1749.0234375,
      "v": 101
    },
    {
      "midi": 67,
      "hit": false,
      "t": 145749.0234375,
      "d": 249.0234375,
      "v": 87
    },
    {
      "midi": 66,
      "hit": false,
      "t": 145998.046875,
      "d": 251.953125,
      "v": 96
    },
    {
      "midi": 67,
      "hit": false,
      "t": 146250,
      "d": 249.0234375,
      "v": 103
    },
    {
      "midi": 53,
      "hit": false,
      "t": 146250,
      "d": 750,
      "v": 68
    },
    {
      "midi": 69,
      "hit": false,
      "t": 146499.0234375,
      "d": 249.0234375,
      "v": 103
    },
    {
      "midi": 71,
      "hit": false,
      "t": 146748.046875,
      "d": 210.9375,
      "v": 102
    },
    {
      "midi": 72,
      "hit": false,
      "t": 146958.984375,
      "d": 41.015625,
      "v": 111
    },
    {
      "midi": 52,
      "hit": false,
      "t": 147000,
      "d": 249.0234375,
      "v": 68
    },
    {
      "midi": 84,
      "hit": false,
      "t": 147000,
      "d": 1500,
      "v": 98
    },
    {
      "midi": 55,
      "hit": false,
      "t": 147249.0234375,
      "d": 249.0234375,
      "v": 71
    },
    {
      "midi": 60,
      "hit": false,
      "t": 147498.046875,
      "d": 251.953125,
      "v": 73
    },
    {
      "midi": 48,
      "hit": false,
      "t": 147750,
      "d": 249.0234375,
      "v": 66
    },
    {
      "midi": 52,
      "hit": false,
      "t": 147999.0234375,
      "d": 249.0234375,
      "v": 70
    },
    {
      "midi": 60,
      "hit": false,
      "t": 148248.046875,
      "d": 251.953125,
      "v": 76
    },
    {
      "midi": 53,
      "hit": false,
      "t": 148500,
      "d": 249.0234375,
      "v": 67
    },
    {
      "midi": 83,
      "hit": false,
      "t": 148500,
      "d": 380.859375,
      "v": 97
    },
    {
      "midi": 57,
      "hit": false,
      "t": 148749.0234375,
      "d": 249.0234375,
      "v": 68
    },
    {
      "midi": 81,
      "hit": false,
      "t": 148875,
      "d": 354.4921875,
      "v": 95
    },
    {
      "midi": 60,
      "hit": false,
      "t": 148998.046875,
      "d": 251.953125,
      "v": 73
    },
    {
      "midi": 50,
      "hit": false,
      "t": 149250,
      "d": 249.0234375,
      "v": 64
    },
    {
      "midi": 79,
      "hit": false,
      "t": 149250,
      "d": 380.859375,
      "v": 94
    },
    {
      "midi": 57,
      "hit": false,
      "t": 149499.0234375,
      "d": 249.0234375,
      "v": 72
    },
    {
      "midi": 77,
      "hit": false,
      "t": 149625,
      "d": 342.7734375,
      "v": 91
    },
    {
      "midi": 60,
      "hit": false,
      "t": 149748.046875,
      "d": 251.953125,
      "v": 70
    },
    {
      "midi": 76,
      "hit": false,
      "t": 149967.7734375,
      "d": 375,
      "v": 94
    },
    {
      "midi": 55,
      "hit": false,
      "t": 150000,
      "d": 249.0234375,
      "v": 66
    },
    {
      "midi": 60,
      "hit": false,
      "t": 150249.0234375,
      "d": 249.0234375,
      "v": 73
    },
    {
      "midi": 74,
      "hit": false,
      "t": 150375,
      "d": 1875,
      "v": 94
    },
    {
      "midi": 62,
      "hit": false,
      "t": 150498.046875,
      "d": 251.953125,
      "v": 72
    },
    {
      "midi": 53,
      "hit": false,
      "t": 150750,
      "d": 249.0234375,
      "v": 67
    },
    {
      "midi": 60,
      "hit": false,
      "t": 150999.0234375,
      "d": 249.0234375,
      "v": 75
    },
    {
      "midi": 62,
      "hit": false,
      "t": 151248.046875,
      "d": 251.953125,
      "v": 72
    },
    {
      "midi": 55,
      "hit": false,
      "t": 151500,
      "d": 249.0234375,
      "v": 66
    },
    {
      "midi": 60,
      "hit": false,
      "t": 151749.0234375,
      "d": 249.0234375,
      "v": 71
    },
    {
      "midi": 62,
      "hit": false,
      "t": 151998.046875,
      "d": 251.953125,
      "v": 71
    },
    {
      "midi": 55,
      "hit": false,
      "t": 152250,
      "d": 249.0234375,
      "v": 62
    },
    {
      "midi": 79,
      "hit": false,
      "t": 152250,
      "d": 711.9140625,
      "v": 104
    },
    {
      "midi": 59,
      "hit": false,
      "t": 152499.0234375,
      "d": 249.0234375,
      "v": 71
    },
    {
      "midi": 62,
      "hit": false,
      "t": 152748.046875,
      "d": 251.953125,
      "v": 70
    },
    {
      "midi": 56,
      "hit": false,
      "t": 153000,
      "d": 249.0234375,
      "v": 70
    },
    {
      "midi": 77,
      "hit": false,
      "t": 153000,
      "d": 764.6484375,
      "v": 96
    },
    {
      "midi": 59,
      "hit": false,
      "t": 153249.0234375,
      "d": 249.0234375,
      "v": 71
    },
    {
      "midi": 62,
      "hit": false,
      "t": 153498.046875,
      "d": 251.953125,
      "v": 70
    },
    {
      "midi": 57,
      "hit": false,
      "t": 153750,
      "d": 249.0234375,
      "v": 67
    },
    {
      "midi": 76,
      "hit": false,
      "t": 153750,
      "d": 711.9140625,
      "v": 94
    },
    {
      "midi": 60,
      "hit": false,
      "t": 153999.0234375,
      "d": 249.0234375,
      "v": 68
    },
    {
      "midi": 64,
      "hit": false,
      "t": 154248.046875,
      "d": 251.953125,
      "v": 71
    },
    {
      "midi": 55,
      "hit": false,
      "t": 154500,
      "d": 249.0234375,
      "v": 63
    },
    {
      "midi": 60,
      "hit": false,
      "t": 154749.0234375,
      "d": 249.0234375,
      "v": 72
    },
    {
      "midi": 64,
      "hit": false,
      "t": 154998.046875,
      "d": 251.953125,
      "v": 72
    },
    {
      "midi": 53,
      "hit": false,
      "t": 155250,
      "d": 249.0234375,
      "v": 66
    },
    {
      "midi": 59,
      "hit": false,
      "t": 155499.0234375,
      "d": 249.0234375,
      "v": 72
    },
    {
      "midi": 62,
      "hit": false,
      "t": 155748.046875,
      "d": 251.953125,
      "v": 71
    },
    {
      "midi": 72,
      "hit": false,
      "t": 155958.984375,
      "d": 41.015625,
      "v": 109
    },
    {
      "midi": 52,
      "hit": false,
      "t": 156000,
      "d": 249.0234375,
      "v": 64
    },
    {
      "midi": 84,
      "hit": false,
      "t": 156000,
      "d": 1500,
      "v": 109
    },
    {
      "midi": 55,
      "hit": false,
      "t": 156249.0234375,
      "d": 249.0234375,
      "v": 69
    },
    {
      "midi": 60,
      "hit": false,
      "t": 156498.046875,
      "d": 251.953125,
      "v": 71
    },
    {
      "midi": 48,
      "hit": false,
      "t": 156750,
      "d": 249.0234375,
      "v": 66
    },
    {
      "midi": 52,
      "hit": false,
      "t": 156999.0234375,
      "d": 249.0234375,
      "v": 71
    },
    {
      "midi": 60,
      "hit": false,
      "t": 157248.046875,
      "d": 251.953125,
      "v": 74
    },
    {
      "midi": 53,
      "hit": false,
      "t": 157500,
      "d": 249.0234375,
      "v": 68
    },
    {
      "midi": 83,
      "hit": false,
      "t": 157500,
      "d": 380.859375,
      "v": 99
    },
    {
      "midi": 57,
      "hit": false,
      "t": 157749.0234375,
      "d": 249.0234375,
      "v": 70
    },
    {
      "midi": 81,
      "hit": false,
      "t": 157875,
      "d": 354.4921875,
      "v": 96
    },
    {
      "midi": 60,
      "hit": false,
      "t": 157998.046875,
      "d": 251.953125,
      "v": 70
    },
    {
      "midi": 50,
      "hit": false,
      "t": 158250,
      "d": 249.0234375,
      "v": 64
    },
    {
      "midi": 79,
      "hit": false,
      "t": 158250,
      "d": 380.859375,
      "v": 94
    },
    {
      "midi": 57,
      "hit": false,
      "t": 158499.0234375,
      "d": 249.0234375,
      "v": 73
    },
    {
      "midi": 77,
      "hit": false,
      "t": 158625,
      "d": 342.7734375,
      "v": 91
    },
    {
      "midi": 60,
      "hit": false,
      "t": 158748.046875,
      "d": 251.953125,
      "v": 72
    },
    {
      "midi": 76,
      "hit": false,
      "t": 158967.7734375,
      "d": 375,
      "v": 94
    },
    {
      "midi": 55,
      "hit": false,
      "t": 159000,
      "d": 249.0234375,
      "v": 64
    },
    {
      "midi": 60,
      "hit": false,
      "t": 159249.0234375,
      "d": 249.0234375,
      "v": 71
    },
    {
      "midi": 74,
      "hit": false,
      "t": 159375,
      "d": 1875,
      "v": 94
    },
    {
      "midi": 62,
      "hit": false,
      "t": 159498.046875,
      "d": 251.953125,
      "v": 71
    },
    {
      "midi": 53,
      "hit": false,
      "t": 159750,
      "d": 249.0234375,
      "v": 65
    },
    {
      "midi": 60,
      "hit": false,
      "t": 159999.0234375,
      "d": 249.0234375,
      "v": 75
    },
    {
      "midi": 62,
      "hit": false,
      "t": 160248.046875,
      "d": 251.953125,
      "v": 71
    },
    {
      "midi": 55,
      "hit": false,
      "t": 160500,
      "d": 249.0234375,
      "v": 67
    },
    {
      "midi": 60,
      "hit": false,
      "t": 160749.0234375,
      "d": 249.0234375,
      "v": 73
    },
    {
      "midi": 62,
      "hit": false,
      "t": 160998.046875,
      "d": 251.953125,
      "v": 69
    },
    {
      "midi": 55,
      "hit": false,
      "t": 161250,
      "d": 249.0234375,
      "v": 65
    },
    {
      "midi": 79,
      "hit": false,
      "t": 161250,
      "d": 711.9140625,
      "v": 106
    },
    {
      "midi": 59,
      "hit": false,
      "t": 161499.0234375,
      "d": 249.0234375,
      "v": 70
    },
    {
      "midi": 65,
      "hit": false,
      "t": 161748.046875,
      "d": 251.953125,
      "v": 74
    },
    {
      "midi": 60,
      "hit": false,
      "t": 162000,
      "d": 750,
      "v": 68
    },
    {
      "midi": 64,
      "hit": false,
      "t": 162000,
      "d": 750,
      "v": 68
    },
    {
      "midi": 72,
      "hit": false,
      "t": 162000,
      "d": 750,
      "v": 90
    },
    {
      "midi": 55,
      "hit": false,
      "t": 171000,
      "d": 249.0234375,
      "v": 60
    },
    {
      "midi": 67,
      "hit": false,
      "t": 171000,
      "d": 3000,
      "v": 89
    },
    {
      "midi": 58,
      "hit": false,
      "t": 171249.0234375,
      "d": 249.0234375,
      "v": 71
    },
    {
      "midi": 62,
      "hit": false,
      "t": 171498.046875,
      "d": 251.953125,
      "v": 71
    },
    {
      "midi": 55,
      "hit": false,
      "t": 171750,
      "d": 249.0234375,
      "v": 66
    },
    {
      "midi": 58,
      "hit": false,
      "t": 171999.0234375,
      "d": 249.0234375,
      "v": 68
    },
    {
      "midi": 62,
      "hit": false,
      "t": 172248.046875,
      "d": 251.953125,
      "v": 71
    },
    {
      "midi": 55,
      "hit": false,
      "t": 172500,
      "d": 249.0234375,
      "v": 67
    },
    {
      "midi": 58,
      "hit": false,
      "t": 172749.0234375,
      "d": 249.0234375,
      "v": 69
    },
    {
      "midi": 62,
      "hit": false,
      "t": 172998.046875,
      "d": 251.953125,
      "v": 72
    },
    {
      "midi": 55,
      "hit": false,
      "t": 173250,
      "d": 249.0234375,
      "v": 65
    },
    {
      "midi": 58,
      "hit": false,
      "t": 173499.0234375,
      "d": 249.0234375,
      "v": 70
    },
    {
      "midi": 62,
      "hit": false,
      "t": 173748.046875,
      "d": 251.953125,
      "v": 73
    },
    {
      "midi": 55,
      "hit": false,
      "t": 174000,
      "d": 249.0234375,
      "v": 49
    },
    {
      "midi": 82,
      "hit": false,
      "t": 174000,
      "d": 3000,
      "v": 95
    },
    {
      "midi": 58,
      "hit": false,
      "t": 174249.0234375,
      "d": 249.0234375,
      "v": 52
    },
    {
      "midi": 61,
      "hit": false,
      "t": 174498.046875,
      "d": 251.953125,
      "v": 52
    },
    {
      "midi": 55,
      "hit": false,
      "t": 174750,
      "d": 249.0234375,
      "v": 49
    },
    {
      "midi": 58,
      "hit": false,
      "t": 174999.0234375,
      "d": 249.0234375,
      "v": 52
    },
    {
      "midi": 61,
      "hit": false,
      "t": 175248.046875,
      "d": 251.953125,
      "v": 53
    },
    {
      "midi": 55,
      "hit": false,
      "t": 175500,
      "d": 249.0234375,
      "v": 49
    },
    {
      "midi": 58,
      "hit": false,
      "t": 175749.0234375,
      "d": 249.0234375,
      "v": 52
    },
    {
      "midi": 61,
      "hit": false,
      "t": 175998.046875,
      "d": 251.953125,
      "v": 52
    },
    {
      "midi": 55,
      "hit": false,
      "t": 176250,
      "d": 249.0234375,
      "v": 47
    },
    {
      "midi": 58,
      "hit": false,
      "t": 176499.0234375,
      "d": 249.0234375,
      "v": 51
    },
    {
      "midi": 62,
      "hit": false,
      "t": 176748.046875,
      "d": 251.953125,
      "v": 54
    },
    {
      "midi": 55,
      "hit": false,
      "t": 177000,
      "d": 249.0234375,
      "v": 48
    },
    {
      "midi": 81,
      "hit": false,
      "t": 177000,
      "d": 1500,
      "v": 81
    },
    {
      "midi": 57,
      "hit": false,
      "t": 177249.0234375,
      "d": 249.0234375,
      "v": 52
    },
    {
      "midi": 64,
      "hit": false,
      "t": 177498.046875,
      "d": 251.953125,
      "v": 53
    },
    {
      "midi": 55,
      "hit": false,
      "t": 177750,
      "d": 249.0234375,
      "v": 47
    },
    {
      "midi": 57,
      "hit": false,
      "t": 177999.0234375,
      "d": 249.0234375,
      "v": 53
    },
    {
      "midi": 64,
      "hit": false,
      "t": 178248.046875,
      "d": 251.953125,
      "v": 56
    },
    {
      "midi": 79,
      "hit": false,
      "t": 178500,
      "d": 52.734375,
      "v": 83
    },
    {
      "midi": 57,
      "hit": false,
      "t": 178500,
      "d": 249.0234375,
      "v": 48
    },
    {
      "midi": 81,
      "hit": false,
      "t": 178567.3828125,
      "d": 52.734375,
      "v": 83
    },
    {
      "midi": 79,
      "hit": false,
      "t": 178634.765625,
      "d": 52.734375,
      "v": 83
    },
    {
      "midi": 81,
      "hit": false,
      "t": 178699.21875,
      "d": 49.8046875,
      "v": 83
    },
    {
      "midi": 64,
      "hit": false,
      "t": 178749.0234375,
      "d": 249.0234375,
      "v": 56
    },
    {
      "midi": 79,
      "hit": false,
      "t": 178763.671875,
      "d": 49.8046875,
      "v": 83
    },
    {
      "midi": 81,
      "hit": false,
      "t": 178828.125,
      "d": 49.8046875,
      "v": 83
    },
    {
      "midi": 79,
      "hit": false,
      "t": 178889.6484375,
      "d": 46.875,
      "v": 83
    },
    {
      "midi": 81,
      "hit": false,
      "t": 178951.171875,
      "d": 46.875,
      "v": 83
    },
    {
      "midi": 69,
      "hit": false,
      "t": 178998.046875,
      "d": 251.953125,
      "v": 57
    },
    {
      "midi": 79,
      "hit": false,
      "t": 179012.6953125,
      "d": 46.875,
      "v": 83
    },
    {
      "midi": 81,
      "hit": false,
      "t": 179071.2890625,
      "d": 46.875,
      "v": 83
    },
    {
      "midi": 79,
      "hit": false,
      "t": 179129.8828125,
      "d": 46.875,
      "v": 83
    },
    {
      "midi": 81,
      "hit": false,
      "t": 179188.4765625,
      "d": 46.875,
      "v": 83
    },
    {
      "midi": 79,
      "hit": false,
      "t": 179247.0703125,
      "d": 46.875,
      "v": 83
    },
    {
      "midi": 57,
      "hit": false,
      "t": 179250,
      "d": 249.0234375,
      "v": 47
    },
    {
      "midi": 81,
      "hit": false,
      "t": 179308.59375,
      "d": 46.875,
      "v": 83
    },
    {
      "midi": 79,
      "hit": false,
      "t": 179370.1171875,
      "d": 46.875,
      "v": 83
    },
    {
      "midi": 81,
      "hit": false,
      "t": 179431.640625,
      "d": 46.875,
      "v": 83
    },
    {
      "midi": 79,
      "hit": false,
      "t": 179496.09375,
      "d": 49.8046875,
      "v": 83
    },
    {
      "midi": 64,
      "hit": false,
      "t": 179499.0234375,
      "d": 249.0234375,
      "v": 56
    },
    {
      "midi": 81,
      "hit": false,
      "t": 179560.546875,
      "d": 49.8046875,
      "v": 83
    },
    {
      "midi": 77,
      "hit": false,
      "t": 179625,
      "d": 187.5,
      "v": 79
    },
    {
      "midi": 69,
      "hit": false,
      "t": 179748.046875,
      "d": 251.953125,
      "v": 55
    },
    {
      "midi": 79,
      "hit": false,
      "t": 179812.5,
      "d": 187.5,
      "v": 87
    },
    {
      "midi": 62,
      "hit": false,
      "t": 180000,
      "d": 750,
      "v": 50
    },
    {
      "midi": 69,
      "hit": false,
      "t": 180000,
      "d": 750,
      "v": 50
    },
    {
      "midi": 77,
      "hit": false,
      "t": 180000,
      "d": 750,
      "v": 83
    },
    {
      "midi": 58,
      "hit": false,
      "t": 183000,
      "d": 750,
      "v": 46
    },
    {
      "midi": 82,
      "hit": false,
      "t": 183000,
      "d": 1500,
      "v": 77
    },
    {
      "midi": 77,
      "hit": false,
      "t": 184500,
      "d": 571.2890625,
      "v": 68
    },
    {
      "midi": 58,
      "hit": false,
      "t": 184500,
      "d": 750,
      "v": 45
    },
    {
      "midi": 79,
      "hit": false,
      "t": 185062.5,
      "d": 61.5234375,
      "v": 69
    },
    {
      "midi": 77,
      "hit": false,
      "t": 185124.0234375,
      "d": 61.5234375,
      "v": 73
    },
    {
      "midi": 76,
      "hit": false,
      "t": 185185.546875,
      "d": 64.453125,
      "v": 77
    },
    {
      "midi": 77,
      "hit": false,
      "t": 185250,
      "d": 380.859375,
      "v": 78
    },
    {
      "midi": 79,
      "hit": false,
      "t": 185625,
      "d": 354.4921875,
      "v": 81
    },
    {
      "midi": 60,
      "hit": false,
      "t": 186000,
      "d": 750,
      "v": 45
    },
    {
      "midi": 70,
      "hit": false,
      "t": 186000,
      "d": 750,
      "v": 76
    },
    {
      "midi": 69,
      "hit": false,
      "t": 186750,
      "d": 750,
      "v": 81
    },
    {
      "midi": 60,
      "hit": false,
      "t": 187500,
      "d": 750,
      "v": 46
    },
    {
      "midi": 75,
      "hit": false,
      "t": 188062.5,
      "d": 190.4296875,
      "v": 78
    },
    {
      "midi": 84,
      "hit": false,
      "t": 188250,
      "d": 571.2890625,
      "v": 87
    },
    {
      "midi": 81,
      "hit": false,
      "t": 188812.5,
      "d": 175.78125,
      "v": 80
    },
    {
      "midi": 87,
      "hit": false,
      "t": 189000,
      "d": 375,
      "v": 92
    },
    {
      "midi": 53,
      "hit": false,
      "t": 189000,
      "d": 750,
      "v": 46
    },
    {
      "midi": 84,
      "hit": false,
      "t": 189375,
      "d": 750,
      "v": 79
    },
    {
      "midi": 81,
      "hit": false,
      "t": 190125,
      "d": 750,
      "v": 79
    },
    {
      "midi": 53,
      "hit": false,
      "t": 190500,
      "d": 750,
      "v": 47
    },
    {
      "midi": 77,
      "hit": false,
      "t": 190875,
      "d": 750,
      "v": 78
    },
    {
      "midi": 75,
      "hit": false,
      "t": 191625,
      "d": 375,
      "v": 79
    },
    {
      "midi": 77,
      "hit": false,
      "t": 192000,
      "d": 380.859375,
      "v": 85
    },
    {
      "midi": 58,
      "hit": false,
      "t": 192000,
      "d": 750,
      "v": 48
    },
    {
      "midi": 75,
      "hit": false,
      "t": 192375,
      "d": 52.734375,
      "v": 82
    },
    {
      "midi": 77,
      "hit": false,
      "t": 192439.453125,
      "d": 49.8046875,
      "v": 84
    },
    {
      "midi": 75,
      "hit": false,
      "t": 192500.9765625,
      "d": 46.875,
      "v": 84
    },
    {
      "midi": 77,
      "hit": false,
      "t": 192559.5703125,
      "d": 46.875,
      "v": 84
    },
    {
      "midi": 75,
      "hit": false,
      "t": 192621.09375,
      "d": 46.875,
      "v": 84
    },
    {
      "midi": 77,
      "hit": false,
      "t": 192685.546875,
      "d": 41.015625,
      "v": 84
    },
    {
      "midi": 74,
      "hit": false,
      "t": 192750,
      "d": 750,
      "v": 82
    },
    {
      "midi": 58,
      "hit": false,
      "t": 193500,
      "d": 750,
      "v": 46
    },
    {
      "midi": 45,
      "hit": false,
      "t": 195000,
      "d": 750,
      "v": 76
    },
    {
      "midi": 57,
      "hit": false,
      "t": 195000,
      "d": 750,
      "v": 76
    },
    {
      "midi": 75,
      "hit": false,
      "t": 196749.0234375,
      "d": 249.0234375,
      "v": 88
    },
    {
      "midi": 78,
      "hit": false,
      "t": 196998.046875,
      "d": 251.953125,
      "v": 99
    },
    {
      "midi": 81,
      "hit": false,
      "t": 197250,
      "d": 249.0234375,
      "v": 102
    },
    {
      "midi": 84,
      "hit": false,
      "t": 197499.0234375,
      "d": 249.0234375,
      "v": 102
    },
    {
      "midi": 87,
      "hit": false,
      "t": 197748.046875,
      "d": 251.953125,
      "v": 100
    },
    {
      "midi": 46,
      "hit": false,
      "t": 198000,
      "d": 750,
      "v": 76
    },
    {
      "midi": 58,
      "hit": false,
      "t": 198000,
      "d": 750,
      "v": 76
    },
    {
      "midi": 70,
      "hit": false,
      "t": 199749.0234375,
      "d": 249.0234375,
      "v": 88
    },
    {
      "midi": 74,
      "hit": false,
      "t": 199998.046875,
      "d": 251.953125,
      "v": 103
    },
    {
      "midi": 79,
      "hit": false,
      "t": 200250,
      "d": 249.0234375,
      "v": 107
    },
    {
      "midi": 82,
      "hit": false,
      "t": 200499.0234375,
      "d": 249.0234375,
      "v": 102
    },
    {
      "midi": 86,
      "hit": false,
      "t": 200748.046875,
      "d": 251.953125,
      "v": 106
    },
    {
      "midi": 43,
      "hit": false,
      "t": 201000,
      "d": 750,
      "v": 76
    },
    {
      "midi": 55,
      "hit": false,
      "t": 201000,
      "d": 750,
      "v": 76
    },
    {
      "midi": 73,
      "hit": false,
      "t": 202749.0234375,
      "d": 249.0234375,
      "v": 88
    },
    {
      "midi": 76,
      "hit": false,
      "t": 202998.046875,
      "d": 251.953125,
      "v": 101
    },
    {
      "midi": 79,
      "hit": false,
      "t": 203250,
      "d": 249.0234375,
      "v": 102
    },
    {
      "midi": 82,
      "hit": false,
      "t": 203499.0234375,
      "d": 249.0234375,
      "v": 102
    },
    {
      "midi": 85,
      "hit": false,
      "t": 203748.046875,
      "d": 251.953125,
      "v": 104
    },
    {
      "midi": 44,
      "hit": false,
      "t": 204000,
      "d": 750,
      "v": 78
    },
    {
      "midi": 56,
      "hit": false,
      "t": 204000,
      "d": 750,
      "v": 78
    },
    {
      "midi": 68,
      "hit": false,
      "t": 205749.0234375,
      "d": 249.0234375,
      "v": 88
    },
    {
      "midi": 72,
      "hit": false,
      "t": 205998.046875,
      "d": 251.953125,
      "v": 103
    },
    {
      "midi": 77,
      "hit": false,
      "t": 206250,
      "d": 249.0234375,
      "v": 91
    },
    {
      "midi": 80,
      "hit": false,
      "t": 206499.0234375,
      "d": 249.0234375,
      "v": 89
    },
    {
      "midi": 84,
      "hit": false,
      "t": 206748.046875,
      "d": 251.953125,
      "v": 89
    },
    {
      "midi": 84,
      "hit": false,
      "t": 207000,
      "d": 380.859375,
      "v": 84
    },
    {
      "midi": 49,
      "hit": false,
      "t": 207000,
      "d": 3000,
      "v": 73
    },
    {
      "midi": 83,
      "hit": false,
      "t": 207375,
      "d": 354.4921875,
      "v": 80
    },
    {
      "midi": 80,
      "hit": false,
      "t": 207750,
      "d": 1529.296875,
      "v": 81
    },
    {
      "midi": 59,
      "hit": false,
      "t": 208500,
      "d": 1500,
      "v": 68
    },
    {
      "midi": 79,
      "hit": false,
      "t": 209250,
      "d": 380.859375,
      "v": 77
    },
    {
      "midi": 77,
      "hit": false,
      "t": 209625,
      "d": 354.4921875,
      "v": 79
    },
    {
      "midi": 77,
      "hit": false,
      "t": 210000,
      "d": 380.859375,
      "v": 78
    },
    {
      "midi": 48,
      "hit": false,
      "t": 210000,
      "d": 750,
      "v": 73
    },
    {
      "midi": 60,
      "hit": false,
      "t": 210000,
      "d": 750,
      "v": 76
    },
    {
      "midi": 76,
      "hit": false,
      "t": 210375,
      "d": 380.859375,
      "v": 73
    },
    {
      "midi": 74,
      "hit": false,
      "t": 210750,
      "d": 380.859375,
      "v": 74
    },
    {
      "midi": 72,
      "hit": false,
      "t": 211125,
      "d": 380.859375,
      "v": 69
    },
    {
      "midi": 71,
      "hit": false,
      "t": 211500,
      "d": 380.859375,
      "v": 72
    },
    {
      "midi": 72,
      "hit": false,
      "t": 211875,
      "d": 380.859375,
      "v": 75
    },
    {
      "midi": 73,
      "hit": false,
      "t": 212250,
      "d": 380.859375,
      "v": 79
    },
    {
      "midi": 72,
      "hit": false,
      "t": 212625,
      "d": 354.4921875,
      "v": 76
    },
    {
      "midi": 72,
      "hit": false,
      "t": 213000,
      "d": 375,
      "v": 81
    },
    {
      "midi": 73,
      "hit": false,
      "t": 213375,
      "d": 93.75,
      "v": 83
    },
    {
      "midi": 72,
      "hit": false,
      "t": 213468.75,
      "d": 93.75,
      "v": 83
    },
    {
      "midi": 71,
      "hit": false,
      "t": 213562.5,
      "d": 93.75,
      "v": 81
    },
    {
      "midi": 72,
      "hit": false,
      "t": 213656.25,
      "d": 93.75,
      "v": 86
    },
    {
      "midi": 75,
      "hit": false,
      "t": 213750,
      "d": 562.5,
      "v": 80
    },
    {
      "midi": 73,
      "hit": false,
      "t": 214312.5,
      "d": 187.5,
      "v": 74
    },
    {
      "midi": 73,
      "hit": false,
      "t": 214500,
      "d": 375,
      "v": 75
    },
    {
      "midi": 75,
      "hit": false,
      "t": 214875,
      "d": 93.75,
      "v": 83
    },
    {
      "midi": 73,
      "hit": false,
      "t": 214968.75,
      "d": 93.75,
      "v": 83
    },
    {
      "midi": 72,
      "hit": false,
      "t": 215062.5,
      "d": 93.75,
      "v": 81
    },
    {
      "midi": 73,
      "hit": false,
      "t": 215156.25,
      "d": 93.75,
      "v": 84
    },
    {
      "midi": 77,
      "hit": false,
      "t": 215250,
      "d": 562.5,
      "v": 80
    },
    {
      "midi": 75,
      "hit": false,
      "t": 215812.5,
      "d": 187.5,
      "v": 72
    },
    {
      "midi": 75,
      "hit": false,
      "t": 216000,
      "d": 1335.9375,
      "v": 76
    },
    {
      "midi": 56,
      "hit": false,
      "t": 216000,
      "d": 1500,
      "v": 72
    },
    {
      "midi": 60,
      "hit": false,
      "t": 216249.0234375,
      "d": 249.0234375,
      "v": 39
    },
    {
      "midi": 63,
      "hit": false,
      "t": 216249.0234375,
      "d": 249.0234375,
      "v": 39
    },
    {
      "midi": 60,
      "hit": false,
      "t": 216498.046875,
      "d": 251.953125,
      "v": 44
    },
    {
      "midi": 63,
      "hit": false,
      "t": 216498.046875,
      "d": 251.953125,
      "v": 44
    },
    {
      "midi": 60,
      "hit": false,
      "t": 216750,
      "d": 249.0234375,
      "v": 43
    },
    {
      "midi": 63,
      "hit": false,
      "t": 216750,
      "d": 249.0234375,
      "v": 43
    },
    {
      "midi": 60,
      "hit": false,
      "t": 216999.0234375,
      "d": 249.0234375,
      "v": 42
    },
    {
      "midi": 63,
      "hit": false,
      "t": 216999.0234375,
      "d": 249.0234375,
      "v": 42
    },
    {
      "midi": 60,
      "hit": false,
      "t": 217248.046875,
      "d": 251.953125,
      "v": 44
    },
    {
      "midi": 63,
      "hit": false,
      "t": 217248.046875,
      "d": 251.953125,
      "v": 44
    },
    {
      "midi": 72,
      "hit": false,
      "t": 217312.5,
      "d": 175.78125,
      "v": 74
    },
    {
      "midi": 80,
      "hit": false,
      "t": 217500,
      "d": 571.2890625,
      "v": 83
    },
    {
      "midi": 56,
      "hit": false,
      "t": 217500,
      "d": 1500,
      "v": 67
    },
    {
      "midi": 60,
      "hit": false,
      "t": 217749.0234375,
      "d": 249.0234375,
      "v": 39
    },
    {
      "midi": 63,
      "hit": false,
      "t": 217749.0234375,
      "d": 249.0234375,
      "v": 39
    },
    {
      "midi": 60,
      "hit": false,
      "t": 217998.046875,
      "d": 251.953125,
      "v": 44
    },
    {
      "midi": 63,
      "hit": false,
      "t": 217998.046875,
      "d": 251.953125,
      "v": 44
    },
    {
      "midi": 75,
      "hit": false,
      "t": 218062.5,
      "d": 175.78125,
      "v": 78
    },
    {
      "midi": 60,
      "hit": false,
      "t": 218250,
      "d": 249.0234375,
      "v": 42
    },
    {
      "midi": 63,
      "hit": false,
      "t": 218250,
      "d": 249.0234375,
      "v": 42
    },
    {
      "midi": 84,
      "hit": false,
      "t": 218250,
      "d": 571.2890625,
      "v": 85
    },
    {
      "midi": 60,
      "hit": false,
      "t": 218499.0234375,
      "d": 249.0234375,
      "v": 43
    },
    {
      "midi": 63,
      "hit": false,
      "t": 218499.0234375,
      "d": 249.0234375,
      "v": 43
    },
    {
      "midi": 60,
      "hit": false,
      "t": 218748.046875,
      "d": 251.953125,
      "v": 45
    },
    {
      "midi": 63,
      "hit": false,
      "t": 218748.046875,
      "d": 251.953125,
      "v": 45
    },
    {
      "midi": 80,
      "hit": false,
      "t": 218812.5,
      "d": 175.78125,
      "v": 79
    },
    {
      "midi": 56,
      "hit": false,
      "t": 219000,
      "d": 1500,
      "v": 67
    },
    {
      "midi": 87,
      "hit": false,
      "t": 219000,
      "d": 2293.9453125,
      "v": 84
    },
    {
      "midi": 60,
      "hit": false,
      "t": 219249.0234375,
      "d": 249.0234375,
      "v": 37
    },
    {
      "midi": 63,
      "hit": false,
      "t": 219249.0234375,
      "d": 249.0234375,
      "v": 37
    },
    {
      "midi": 60,
      "hit": false,
      "t": 219498.046875,
      "d": 251.953125,
      "v": 43
    },
    {
      "midi": 63,
      "hit": false,
      "t": 219498.046875,
      "d": 251.953125,
      "v": 43
    },
    {
      "midi": 60,
      "hit": false,
      "t": 219750,
      "d": 249.0234375,
      "v": 42
    },
    {
      "midi": 63,
      "hit": false,
      "t": 219750,
      "d": 249.0234375,
      "v": 42
    },
    {
      "midi": 60,
      "hit": false,
      "t": 219999.0234375,
      "d": 249.0234375,
      "v": 46
    },
    {
      "midi": 63,
      "hit": false,
      "t": 219999.0234375,
      "d": 249.0234375,
      "v": 46
    },
    {
      "midi": 60,
      "hit": false,
      "t": 220248.046875,
      "d": 251.953125,
      "v": 44
    },
    {
      "midi": 63,
      "hit": false,
      "t": 220248.046875,
      "d": 251.953125,
      "v": 44
    },
    {
      "midi": 56,
      "hit": false,
      "t": 220500,
      "d": 1500,
      "v": 68
    },
    {
      "midi": 60,
      "hit": false,
      "t": 220749.0234375,
      "d": 249.0234375,
      "v": 40
    },
    {
      "midi": 63,
      "hit": false,
      "t": 220749.0234375,
      "d": 249.0234375,
      "v": 40
    },
    {
      "midi": 60,
      "hit": false,
      "t": 220998.046875,
      "d": 251.953125,
      "v": 44
    },
    {
      "midi": 63,
      "hit": false,
      "t": 220998.046875,
      "d": 251.953125,
      "v": 44
    },
    {
      "midi": 85,
      "hit": false,
      "t": 221250,
      "d": 190.4296875,
      "v": 80
    },
    {
      "midi": 60,
      "hit": false,
      "t": 221250,
      "d": 249.0234375,
      "v": 44
    },
    {
      "midi": 63,
      "hit": false,
      "t": 221250,
      "d": 249.0234375,
      "v": 44
    },
    {
      "midi": 84,
      "hit": false,
      "t": 221437.5,
      "d": 190.4296875,
      "v": 74
    },
    {
      "midi": 60,
      "hit": false,
      "t": 221499.0234375,
      "d": 249.0234375,
      "v": 44
    },
    {
      "midi": 63,
      "hit": false,
      "t": 221499.0234375,
      "d": 249.0234375,
      "v": 44
    },
    {
      "midi": 82,
      "hit": false,
      "t": 221625,
      "d": 190.4296875,
      "v": 74
    },
    {
      "midi": 60,
      "hit": false,
      "t": 221748.046875,
      "d": 251.953125,
      "v": 44
    },
    {
      "midi": 63,
      "hit": false,
      "t": 221748.046875,
      "d": 251.953125,
      "v": 44
    },
    {
      "midi": 80,
      "hit": false,
      "t": 221812.5,
      "d": 175.78125,
      "v": 74
    },
    {
      "midi": 81,
      "hit": false,
      "t": 222000,
      "d": 380.859375,
      "v": 78
    },
    {
      "midi": 55,
      "hit": false,
      "t": 222000,
      "d": 1500,
      "v": 68
    },
    {
      "midi": 58,
      "hit": false,
      "t": 222249.0234375,
      "d": 249.0234375,
      "v": 30
    },
    {
      "midi": 61,
      "hit": false,
      "t": 222249.0234375,
      "d": 249.0234375,
      "v": 30
    },
    {
      "midi": 63,
      "hit": false,
      "t": 222249.0234375,
      "d": 249.0234375,
      "v": 30
    },
    {
      "midi": 82,
      "hit": false,
      "t": 222375,
      "d": 354.4921875,
      "v": 82
    },
    {
      "midi": 58,
      "hit": false,
      "t": 222498.046875,
      "d": 251.953125,
      "v": 30
    },
    {
      "midi": 61,
      "hit": false,
      "t": 222498.046875,
      "d": 251.953125,
      "v": 30
    },
    {
      "midi": 63,
      "hit": false,
      "t": 222498.046875,
      "d": 251.953125,
      "v": 30
    },
    {
      "midi": 58,
      "hit": false,
      "t": 222750,
      "d": 249.0234375,
      "v": 30
    },
    {
      "midi": 61,
      "hit": false,
      "t": 222750,
      "d": 249.0234375,
      "v": 30
    },
    {
      "midi": 63,
      "hit": false,
      "t": 222750,
      "d": 249.0234375,
      "v": 30
    },
    {
      "midi": 82,
      "hit": false,
      "t": 222750,
      "d": 750,
      "v": 74
    },
    {
      "midi": 58,
      "hit": false,
      "t": 222999.0234375,
      "d": 249.0234375,
      "v": 30
    },
    {
      "midi": 61,
      "hit": false,
      "t": 222999.0234375,
      "d": 249.0234375,
      "v": 30
    },
    {
      "midi": 63,
      "hit": false,
      "t": 222999.0234375,
      "d": 249.0234375,
      "v": 30
    },
    {
      "midi": 58,
      "hit": false,
      "t": 223248.046875,
      "d": 251.953125,
      "v": 30
    },
    {
      "midi": 61,
      "hit": false,
      "t": 223248.046875,
      "d": 251.953125,
      "v": 30
    },
    {
      "midi": 63,
      "hit": false,
      "t": 223248.046875,
      "d": 251.953125,
      "v": 30
    },
    {
      "midi": 55,
      "hit": false,
      "t": 223500,
      "d": 1500,
      "v": 68
    },
    {
      "midi": 58,
      "hit": false,
      "t": 223749.0234375,
      "d": 249.0234375,
      "v": 30
    },
    {
      "midi": 61,
      "hit": false,
      "t": 223749.0234375,
      "d": 249.0234375,
      "v": 30
    },
    {
      "midi": 63,
      "hit": false,
      "t": 223749.0234375,
      "d": 249.0234375,
      "v": 30
    },
    {
      "midi": 58,
      "hit": false,
      "t": 223998.046875,
      "d": 251.953125,
      "v": 30
    },
    {
      "midi": 61,
      "hit": false,
      "t": 223998.046875,
      "d": 251.953125,
      "v": 30
    },
    {
      "midi": 63,
      "hit": false,
      "t": 223998.046875,
      "d": 251.953125,
      "v": 30
    },
    {
      "midi": 58,
      "hit": false,
      "t": 224250,
      "d": 249.0234375,
      "v": 30
    },
    {
      "midi": 61,
      "hit": false,
      "t": 224250,
      "d": 249.0234375,
      "v": 30
    },
    {
      "midi": 63,
      "hit": false,
      "t": 224250,
      "d": 249.0234375,
      "v": 30
    },
    {
      "midi": 75,
      "hit": false,
      "t": 224250,
      "d": 750,
      "v": 66
    },
    {
      "midi": 58,
      "hit": false,
      "t": 224499.0234375,
      "d": 249.0234375,
      "v": 30
    },
    {
      "midi": 61,
      "hit": false,
      "t": 224499.0234375,
      "d": 249.0234375,
      "v": 30
    },
    {
      "midi": 63,
      "hit": false,
      "t": 224499.0234375,
      "d": 249.0234375,
      "v": 30
    },
    {
      "midi": 58,
      "hit": false,
      "t": 224748.046875,
      "d": 251.953125,
      "v": 30
    },
    {
      "midi": 61,
      "hit": false,
      "t": 224748.046875,
      "d": 251.953125,
      "v": 30
    },
    {
      "midi": 63,
      "hit": false,
      "t": 224748.046875,
      "d": 251.953125,
      "v": 30
    },
    {
      "midi": 75,
      "hit": false,
      "t": 225000,
      "d": 1145.5078125,
      "v": 76
    },
    {
      "midi": 51,
      "hit": false,
      "t": 225000,
      "d": 1500,
      "v": 66
    },
    {
      "midi": 55,
      "hit": false,
      "t": 225249.0234375,
      "d": 249.0234375,
      "v": 30
    },
    {
      "midi": 58,
      "hit": false,
      "t": 225249.0234375,
      "d": 249.0234375,
      "v": 30
    },
    {
      "midi": 61,
      "hit": false,
      "t": 225249.0234375,
      "d": 249.0234375,
      "v": 30
    },
    {
      "midi": 55,
      "hit": false,
      "t": 225498.046875,
      "d": 251.953125,
      "v": 30
    },
    {
      "midi": 58,
      "hit": false,
      "t": 225498.046875,
      "d": 251.953125,
      "v": 30
    },
    {
      "midi": 61,
      "hit": false,
      "t": 225498.046875,
      "d": 251.953125,
      "v": 30
    },
    {
      "midi": 55,
      "hit": false,
      "t": 225750,
      "d": 249.0234375,
      "v": 30
    },
    {
      "midi": 58,
      "hit": false,
      "t": 225750,
      "d": 249.0234375,
      "v": 30
    },
    {
      "midi": 61,
      "hit": false,
      "t": 225750,
      "d": 249.0234375,
      "v": 30
    },
    {
      "midi": 55,
      "hit": false,
      "t": 225999.0234375,
      "d": 249.0234375,
      "v": 30
    },
    {
      "midi": 58,
      "hit": false,
      "t": 225999.0234375,
      "d": 249.0234375,
      "v": 30
    },
    {
      "midi": 61,
      "hit": false,
      "t": 225999.0234375,
      "d": 249.0234375,
      "v": 30
    },
    {
      "midi": 77,
      "hit": false,
      "t": 226125,
      "d": 93.75,
      "v": 78
    },
    {
      "midi": 75,
      "hit": false,
      "t": 226218.75,
      "d": 93.75,
      "v": 81
    },
    {
      "midi": 55,
      "hit": false,
      "t": 226248.046875,
      "d": 251.953125,
      "v": 30
    },
    {
      "midi": 58,
      "hit": false,
      "t": 226248.046875,
      "d": 251.953125,
      "v": 30
    },
    {
      "midi": 61,
      "hit": false,
      "t": 226248.046875,
      "d": 251.953125,
      "v": 30
    },
    {
      "midi": 74,
      "hit": false,
      "t": 226312.5,
      "d": 93.75,
      "v": 81
    },
    {
      "midi": 75,
      "hit": false,
      "t": 226406.25,
      "d": 87.890625,
      "v": 86
    },
    {
      "midi": 79,
      "hit": false,
      "t": 226500,
      "d": 764.6484375,
      "v": 83
    },
    {
      "midi": 51,
      "hit": false,
      "t": 226500,
      "d": 1500,
      "v": 66
    },
    {
      "midi": 55,
      "hit": false,
      "t": 226749.0234375,
      "d": 249.0234375,
      "v": 30
    },
    {
      "midi": 58,
      "hit": false,
      "t": 226749.0234375,
      "d": 249.0234375,
      "v": 30
    },
    {
      "midi": 61,
      "hit": false,
      "t": 226749.0234375,
      "d": 249.0234375,
      "v": 30
    },
    {
      "midi": 55,
      "hit": false,
      "t": 226998.046875,
      "d": 251.953125,
      "v": 30
    },
    {
      "midi": 58,
      "hit": false,
      "t": 226998.046875,
      "d": 251.953125,
      "v": 30
    },
    {
      "midi": 61,
      "hit": false,
      "t": 226998.046875,
      "d": 251.953125,
      "v": 30
    },
    {
      "midi": 55,
      "hit": false,
      "t": 227250,
      "d": 249.0234375,
      "v": 30
    },
    {
      "midi": 58,
      "hit": false,
      "t": 227250,
      "d": 249.0234375,
      "v": 30
    },
    {
      "midi": 61,
      "hit": false,
      "t": 227250,
      "d": 249.0234375,
      "v": 30
    },
    {
      "midi": 82,
      "hit": false,
      "t": 227250,
      "d": 711.9140625,
      "v": 86
    },
    {
      "midi": 55,
      "hit": false,
      "t": 227499.0234375,
      "d": 249.0234375,
      "v": 30
    },
    {
      "midi": 58,
      "hit": false,
      "t": 227499.0234375,
      "d": 249.0234375,
      "v": 30
    },
    {
      "midi": 61,
      "hit": false,
      "t": 227499.0234375,
      "d": 249.0234375,
      "v": 30
    },
    {
      "midi": 55,
      "hit": false,
      "t": 227748.046875,
      "d": 251.953125,
      "v": 30
    },
    {
      "midi": 58,
      "hit": false,
      "t": 227748.046875,
      "d": 251.953125,
      "v": 30
    },
    {
      "midi": 61,
      "hit": false,
      "t": 227748.046875,
      "d": 251.953125,
      "v": 30
    },
    {
      "midi": 85,
      "hit": false,
      "t": 228000,
      "d": 1145.5078125,
      "v": 80
    },
    {
      "midi": 51,
      "hit": false,
      "t": 228000,
      "d": 1500,
      "v": 71
    },
    {
      "midi": 55,
      "hit": false,
      "t": 228249.0234375,
      "d": 249.0234375,
      "v": 30
    },
    {
      "midi": 58,
      "hit": false,
      "t": 228249.0234375,
      "d": 249.0234375,
      "v": 30
    },
    {
      "midi": 61,
      "hit": false,
      "t": 228249.0234375,
      "d": 249.0234375,
      "v": 30
    },
    {
      "midi": 55,
      "hit": false,
      "t": 228498.046875,
      "d": 251.953125,
      "v": 30
    },
    {
      "midi": 58,
      "hit": false,
      "t": 228498.046875,
      "d": 251.953125,
      "v": 30
    },
    {
      "midi": 61,
      "hit": false,
      "t": 228498.046875,
      "d": 251.953125,
      "v": 30
    },
    {
      "midi": 55,
      "hit": false,
      "t": 228750,
      "d": 249.0234375,
      "v": 30
    },
    {
      "midi": 58,
      "hit": false,
      "t": 228750,
      "d": 249.0234375,
      "v": 30
    },
    {
      "midi": 61,
      "hit": false,
      "t": 228750,
      "d": 249.0234375,
      "v": 30
    },
    {
      "midi": 55,
      "hit": false,
      "t": 228999.0234375,
      "d": 249.0234375,
      "v": 30
    },
    {
      "midi": 58,
      "hit": false,
      "t": 228999.0234375,
      "d": 249.0234375,
      "v": 30
    },
    {
      "midi": 61,
      "hit": false,
      "t": 228999.0234375,
      "d": 249.0234375,
      "v": 30
    },
    {
      "midi": 84,
      "hit": false,
      "t": 229125,
      "d": 190.4296875,
      "v": 78
    },
    {
      "midi": 55,
      "hit": false,
      "t": 229248.046875,
      "d": 251.953125,
      "v": 30
    },
    {
      "midi": 58,
      "hit": false,
      "t": 229248.046875,
      "d": 251.953125,
      "v": 30
    },
    {
      "midi": 61,
      "hit": false,
      "t": 229248.046875,
      "d": 251.953125,
      "v": 30
    },
    {
      "midi": 82,
      "hit": false,
      "t": 229312.5,
      "d": 190.4296875,
      "v": 75
    },
    {
      "midi": 80,
      "hit": false,
      "t": 229500,
      "d": 190.4296875,
      "v": 74
    },
    {
      "midi": 51,
      "hit": false,
      "t": 229500,
      "d": 1500,
      "v": 70
    },
    {
      "midi": 79,
      "hit": false,
      "t": 229687.5,
      "d": 190.4296875,
      "v": 76
    },
    {
      "midi": 55,
      "hit": false,
      "t": 229749.0234375,
      "d": 249.0234375,
      "v": 30
    },
    {
      "midi": 58,
      "hit": false,
      "t": 229749.0234375,
      "d": 249.0234375,
      "v": 30
    },
    {
      "midi": 61,
      "hit": false,
      "t": 229749.0234375,
      "d": 249.0234375,
      "v": 30
    },
    {
      "midi": 77,
      "hit": false,
      "t": 229875,
      "d": 190.4296875,
      "v": 74
    },
    {
      "midi": 55,
      "hit": false,
      "t": 229998.046875,
      "d": 251.953125,
      "v": 30
    },
    {
      "midi": 58,
      "hit": false,
      "t": 229998.046875,
      "d": 251.953125,
      "v": 30
    },
    {
      "midi": 61,
      "hit": false,
      "t": 229998.046875,
      "d": 251.953125,
      "v": 30
    },
    {
      "midi": 75,
      "hit": false,
      "t": 230062.5,
      "d": 190.4296875,
      "v": 74
    },
    {
      "midi": 74,
      "hit": false,
      "t": 230250,
      "d": 190.4296875,
      "v": 71
    },
    {
      "midi": 55,
      "hit": false,
      "t": 230250,
      "d": 249.0234375,
      "v": 30
    },
    {
      "midi": 58,
      "hit": false,
      "t": 230250,
      "d": 249.0234375,
      "v": 30
    },
    {
      "midi": 61,
      "hit": false,
      "t": 230250,
      "d": 249.0234375,
      "v": 30
    },
    {
      "midi": 75,
      "hit": false,
      "t": 230437.5,
      "d": 190.4296875,
      "v": 78
    },
    {
      "midi": 55,
      "hit": false,
      "t": 230499.0234375,
      "d": 249.0234375,
      "v": 30
    },
    {
      "midi": 58,
      "hit": false,
      "t": 230499.0234375,
      "d": 249.0234375,
      "v": 30
    },
    {
      "midi": 61,
      "hit": false,
      "t": 230499.0234375,
      "d": 249.0234375,
      "v": 30
    },
    {
      "midi": 77,
      "hit": false,
      "t": 230625,
      "d": 190.4296875,
      "v": 80
    },
    {
      "midi": 55,
      "hit": false,
      "t": 230748.046875,
      "d": 251.953125,
      "v": 30
    },
    {
      "midi": 58,
      "hit": false,
      "t": 230748.046875,
      "d": 251.953125,
      "v": 30
    },
    {
      "midi": 61,
      "hit": false,
      "t": 230748.046875,
      "d": 251.953125,
      "v": 30
    },
    {
      "midi": 73,
      "hit": false,
      "t": 230812.5,
      "d": 175.78125,
      "v": 72
    },
    {
      "midi": 75,
      "hit": false,
      "t": 231000,
      "d": 380.859375,
      "v": 78
    },
    {
      "midi": 56,
      "hit": false,
      "t": 231000,
      "d": 1500,
      "v": 69
    },
    {
      "midi": 60,
      "hit": false,
      "t": 231249.0234375,
      "d": 249.0234375,
      "v": 30
    },
    {
      "midi": 63,
      "hit": false,
      "t": 231249.0234375,
      "d": 249.0234375,
      "v": 30
    },
    {
      "midi": 73,
      "hit": false,
      "t": 231375,
      "d": 55.6640625,
      "v": 75
    },
    {
      "midi": 75,
      "hit": false,
      "t": 231442.3828125,
      "d": 52.734375,
      "v": 76
    },
    {
      "midi": 60,
      "hit": false,
      "t": 231498.046875,
      "d": 251.953125,
      "v": 30
    },
    {
      "midi": 63,
      "hit": false,
      "t": 231498.046875,
      "d": 251.953125,
      "v": 30
    },
    {
      "midi": 73,
      "hit": false,
      "t": 231506.8359375,
      "d": 49.8046875,
      "v": 76
    },
    {
      "midi": 75,
      "hit": false,
      "t": 231568.359375,
      "d": 46.875,
      "v": 76
    },
    {
      "midi": 73,
      "hit": false,
      "t": 231632.8125,
      "d": 49.8046875,
      "v": 76
    },
    {
      "midi": 75,
      "hit": false,
      "t": 231700.1953125,
      "d": 52.734375,
      "v": 76
    },
    {
      "midi": 60,
      "hit": false,
      "t": 231750,
      "d": 249.0234375,
      "v": 30
    },
    {
      "midi": 63,
      "hit": false,
      "t": 231750,
      "d": 249.0234375,
      "v": 30
    },
    {
      "midi": 72,
      "hit": false,
      "t": 231750,
      "d": 298.828125,
      "v": 74
    },
    {
      "midi": 60,
      "hit": false,
      "t": 231999.0234375,
      "d": 249.0234375,
      "v": 30
    },
    {
      "midi": 63,
      "hit": false,
      "t": 231999.0234375,
      "d": 249.0234375,
      "v": 30
    },
    {
      "midi": 60,
      "hit": false,
      "t": 232248.046875,
      "d": 251.953125,
      "v": 30
    },
    {
      "midi": 63,
      "hit": false,
      "t": 232248.046875,
      "d": 251.953125,
      "v": 30
    },
    {
      "midi": 72,
      "hit": false,
      "t": 232500,
      "d": 298.828125,
      "v": 74
    },
    {
      "midi": 56,
      "hit": false,
      "t": 232500,
      "d": 750,
      "v": 68
    },
    {
      "midi": 60,
      "hit": false,
      "t": 232749.0234375,
      "d": 249.0234375,
      "v": 30
    },
    {
      "midi": 63,
      "hit": false,
      "t": 232749.0234375,
      "d": 249.0234375,
      "v": 30
    },
    {
      "midi": 75,
      "hit": false,
      "t": 232875,
      "d": 187.5,
      "v": 69
    },
    {
      "midi": 60,
      "hit": false,
      "t": 232998.046875,
      "d": 251.953125,
      "v": 30
    },
    {
      "midi": 63,
      "hit": false,
      "t": 232998.046875,
      "d": 251.953125,
      "v": 30
    },
    {
      "midi": 74,
      "hit": false,
      "t": 233062.5,
      "d": 187.5,
      "v": 73
    },
    {
      "midi": 77,
      "hit": false,
      "t": 233250,
      "d": 190.4296875,
      "v": 79
    },
    {
      "midi": 54,
      "hit": false,
      "t": 233250,
      "d": 750,
      "v": 67
    },
    {
      "midi": 75,
      "hit": false,
      "t": 233437.5,
      "d": 190.4296875,
      "v": 78
    },
    {
      "midi": 60,
      "hit": false,
      "t": 233499.0234375,
      "d": 249.0234375,
      "v": 30
    },
    {
      "midi": 63,
      "hit": false,
      "t": 233499.0234375,
      "d": 249.0234375,
      "v": 30
    },
    {
      "midi": 73,
      "hit": false,
      "t": 233625,
      "d": 190.4296875,
      "v": 73
    },
    {
      "midi": 60,
      "hit": false,
      "t": 233748.046875,
      "d": 251.953125,
      "v": 30
    },
    {
      "midi": 63,
      "hit": false,
      "t": 233748.046875,
      "d": 251.953125,
      "v": 30
    },
    {
      "midi": 72,
      "hit": false,
      "t": 233812.5,
      "d": 175.78125,
      "v": 72
    },
    {
      "midi": 70,
      "hit": false,
      "t": 234000,
      "d": 380.859375,
      "v": 97
    },
    {
      "midi": 53,
      "hit": false,
      "t": 234000,
      "d": 1500,
      "v": 67
    },
    {
      "midi": 57,
      "hit": false,
      "t": 234249.0234375,
      "d": 249.0234375,
      "v": 30
    },
    {
      "midi": 60,
      "hit": false,
      "t": 234249.0234375,
      "d": 249.0234375,
      "v": 30
    },
    {
      "midi": 63,
      "hit": false,
      "t": 234249.0234375,
      "d": 249.0234375,
      "v": 30
    },
    {
      "midi": 69,
      "hit": false,
      "t": 234375,
      "d": 354.4921875,
      "v": 94
    },
    {
      "midi": 57,
      "hit": false,
      "t": 234498.046875,
      "d": 251.953125,
      "v": 30
    },
    {
      "midi": 60,
      "hit": false,
      "t": 234498.046875,
      "d": 251.953125,
      "v": 30
    },
    {
      "midi": 63,
      "hit": false,
      "t": 234498.046875,
      "d": 251.953125,
      "v": 30
    },
    {
      "midi": 57,
      "hit": false,
      "t": 234750,
      "d": 249.0234375,
      "v": 30
    },
    {
      "midi": 60,
      "hit": false,
      "t": 234750,
      "d": 249.0234375,
      "v": 30
    },
    {
      "midi": 63,
      "hit": false,
      "t": 234750,
      "d": 249.0234375,
      "v": 30
    },
    {
      "midi": 57,
      "hit": false,
      "t": 234999.0234375,
      "d": 249.0234375,
      "v": 30
    },
    {
      "midi": 60,
      "hit": false,
      "t": 234999.0234375,
      "d": 249.0234375,
      "v": 30
    },
    {
      "midi": 63,
      "hit": false,
      "t": 234999.0234375,
      "d": 249.0234375,
      "v": 30
    },
    {
      "midi": 84,
      "hit": false,
      "t": 235125,
      "d": 375,
      "v": 90
    },
    {
      "midi": 57,
      "hit": false,
      "t": 235248.046875,
      "d": 251.953125,
      "v": 30
    },
    {
      "midi": 60,
      "hit": false,
      "t": 235248.046875,
      "d": 251.953125,
      "v": 30
    },
    {
      "midi": 63,
      "hit": false,
      "t": 235248.046875,
      "d": 251.953125,
      "v": 30
    },
    {
      "midi": 53,
      "hit": false,
      "t": 235500,
      "d": 1500,
      "v": 70
    },
    {
      "midi": 57,
      "hit": false,
      "t": 235749.0234375,
      "d": 249.0234375,
      "v": 30
    },
    {
      "midi": 60,
      "hit": false,
      "t": 235749.0234375,
      "d": 249.0234375,
      "v": 30
    },
    {
      "midi": 63,
      "hit": false,
      "t": 235749.0234375,
      "d": 249.0234375,
      "v": 30
    },
    {
      "midi": 87,
      "hit": false,
      "t": 235875,
      "d": 375,
      "v": 87
    },
    {
      "midi": 57,
      "hit": false,
      "t": 235998.046875,
      "d": 251.953125,
      "v": 30
    },
    {
      "midi": 60,
      "hit": false,
      "t": 235998.046875,
      "d": 251.953125,
      "v": 30
    },
    {
      "midi": 63,
      "hit": false,
      "t": 235998.046875,
      "d": 251.953125,
      "v": 30
    },
    {
      "midi": 57,
      "hit": false,
      "t": 236250,
      "d": 249.0234375,
      "v": 30
    },
    {
      "midi": 60,
      "hit": false,
      "t": 236250,
      "d": 249.0234375,
      "v": 30
    },
    {
      "midi": 63,
      "hit": false,
      "t": 236250,
      "d": 249.0234375,
      "v": 30
    },
    {
      "midi": 57,
      "hit": false,
      "t": 236499.0234375,
      "d": 249.0234375,
      "v": 30
    },
    {
      "midi": 60,
      "hit": false,
      "t": 236499.0234375,
      "d": 249.0234375,
      "v": 30
    },
    {
      "midi": 63,
      "hit": false,
      "t": 236499.0234375,
      "d": 249.0234375,
      "v": 30
    },
    {
      "midi": 81,
      "hit": false,
      "t": 236625,
      "d": 375,
      "v": 89
    },
    {
      "midi": 57,
      "hit": false,
      "t": 236748.046875,
      "d": 251.953125,
      "v": 30
    },
    {
      "midi": 60,
      "hit": false,
      "t": 236748.046875,
      "d": 251.953125,
      "v": 30
    },
    {
      "midi": 63,
      "hit": false,
      "t": 236748.046875,
      "d": 251.953125,
      "v": 30
    },
    {
      "midi": 84,
      "hit": false,
      "t": 237000,
      "d": 764.6484375,
      "v": 102
    },
    {
      "midi": 58,
      "hit": false,
      "t": 237000,
      "d": 1500,
      "v": 71
    },
    {
      "midi": 61,
      "hit": false,
      "t": 237249.0234375,
      "d": 249.0234375,
      "v": 30
    },
    {
      "midi": 65,
      "hit": false,
      "t": 237249.0234375,
      "d": 249.0234375,
      "v": 30
    },
    {
      "midi": 61,
      "hit": false,
      "t": 237498.046875,
      "d": 251.953125,
      "v": 30
    },
    {
      "midi": 65,
      "hit": false,
      "t": 237498.046875,
      "d": 251.953125,
      "v": 30
    },
    {
      "midi": 61,
      "hit": false,
      "t": 237750,
      "d": 249.0234375,
      "v": 30
    },
    {
      "midi": 65,
      "hit": false,
      "t": 237750,
      "d": 249.0234375,
      "v": 30
    },
    {
      "midi": 82,
      "hit": false,
      "t": 237750,
      "d": 711.9140625,
      "v": 99
    },
    {
      "midi": 61,
      "hit": false,
      "t": 237999.0234375,
      "d": 249.0234375,
      "v": 30
    },
    {
      "midi": 65,
      "hit": false,
      "t": 237999.0234375,
      "d": 249.0234375,
      "v": 30
    },
    {
      "midi": 61,
      "hit": false,
      "t": 238248.046875,
      "d": 251.953125,
      "v": 30
    },
    {
      "midi": 65,
      "hit": false,
      "t": 238248.046875,
      "d": 251.953125,
      "v": 30
    },
    {
      "midi": 58,
      "hit": false,
      "t": 238500,
      "d": 750,
      "v": 67
    },
    {
      "midi": 77,
      "hit": false,
      "t": 238687.5,
      "d": 190.4296875,
      "v": 87
    },
    {
      "midi": 61,
      "hit": false,
      "t": 238749.0234375,
      "d": 249.0234375,
      "v": 30
    },
    {
      "midi": 65,
      "hit": false,
      "t": 238749.0234375,
      "d": 249.0234375,
      "v": 30
    },
    {
      "midi": 76,
      "hit": false,
      "t": 238875,
      "d": 190.4296875,
      "v": 85
    },
    {
      "midi": 61,
      "hit": false,
      "t": 238998.046875,
      "d": 251.953125,
      "v": 30
    },
    {
      "midi": 65,
      "hit": false,
      "t": 238998.046875,
      "d": 251.953125,
      "v": 30
    },
    {
      "midi": 77,
      "hit": false,
      "t": 239062.5,
      "d": 190.4296875,
      "v": 99
    },
    {
      "midi": 78,
      "hit": false,
      "t": 239250,
      "d": 190.4296875,
      "v": 101
    },
    {
      "midi": 56,
      "hit": false,
      "t": 239250,
      "d": 750,
      "v": 67
    },
    {
      "midi": 77,
      "hit": false,
      "t": 239437.5,
      "d": 190.4296875,
      "v": 95
    },
    {
      "midi": 60,
      "hit": false,
      "t": 239499.0234375,
      "d": 249.0234375,
      "v": 30
    },
    {
      "midi": 65,
      "hit": false,
      "t": 239499.0234375,
      "d": 249.0234375,
      "v": 30
    },
    {
      "midi": 75,
      "hit": false,
      "t": 239625,
      "d": 190.4296875,
      "v": 91
    },
    {
      "midi": 60,
      "hit": false,
      "t": 239748.046875,
      "d": 251.953125,
      "v": 30
    },
    {
      "midi": 65,
      "hit": false,
      "t": 239748.046875,
      "d": 251.953125,
      "v": 30
    },
    {
      "midi": 74,
      "hit": false,
      "t": 239812.5,
      "d": 175.78125,
      "v": 97
    },
    {
      "midi": 72,
      "hit": false,
      "t": 240000,
      "d": 380.859375,
      "v": 97
    },
    {
      "midi": 55,
      "hit": false,
      "t": 240000,
      "d": 1500,
      "v": 69
    },
    {
      "midi": 59,
      "hit": false,
      "t": 240249.0234375,
      "d": 249.0234375,
      "v": 30
    },
    {
      "midi": 62,
      "hit": false,
      "t": 240249.0234375,
      "d": 249.0234375,
      "v": 30
    },
    {
      "midi": 65,
      "hit": false,
      "t": 240249.0234375,
      "d": 249.0234375,
      "v": 30
    },
    {
      "midi": 71,
      "hit": false,
      "t": 240375,
      "d": 354.4921875,
      "v": 95
    },
    {
      "midi": 59,
      "hit": false,
      "t": 240498.046875,
      "d": 251.953125,
      "v": 30
    },
    {
      "midi": 62,
      "hit": false,
      "t": 240498.046875,
      "d": 251.953125,
      "v": 30
    },
    {
      "midi": 65,
      "hit": false,
      "t": 240498.046875,
      "d": 251.953125,
      "v": 30
    },
    {
      "midi": 59,
      "hit": false,
      "t": 240750,
      "d": 249.0234375,
      "v": 30
    },
    {
      "midi": 62,
      "hit": false,
      "t": 240750,
      "d": 249.0234375,
      "v": 30
    },
    {
      "midi": 65,
      "hit": false,
      "t": 240750,
      "d": 249.0234375,
      "v": 30
    },
    {
      "midi": 59,
      "hit": false,
      "t": 240999.0234375,
      "d": 249.0234375,
      "v": 30
    },
    {
      "midi": 62,
      "hit": false,
      "t": 240999.0234375,
      "d": 249.0234375,
      "v": 30
    },
    {
      "midi": 65,
      "hit": false,
      "t": 240999.0234375,
      "d": 249.0234375,
      "v": 30
    },
    {
      "midi": 86,
      "hit": false,
      "t": 241125,
      "d": 375,
      "v": 88
    },
    {
      "midi": 59,
      "hit": false,
      "t": 241248.046875,
      "d": 251.953125,
      "v": 30
    },
    {
      "midi": 62,
      "hit": false,
      "t": 241248.046875,
      "d": 251.953125,
      "v": 30
    },
    {
      "midi": 65,
      "hit": false,
      "t": 241248.046875,
      "d": 251.953125,
      "v": 30
    },
    {
      "midi": 55,
      "hit": false,
      "t": 241500,
      "d": 1500,
      "v": 70
    },
    {
      "midi": 59,
      "hit": false,
      "t": 241749.0234375,
      "d": 249.0234375,
      "v": 30
    },
    {
      "midi": 62,
      "hit": false,
      "t": 241749.0234375,
      "d": 249.0234375,
      "v": 30
    },
    {
      "midi": 65,
      "hit": false,
      "t": 241749.0234375,
      "d": 249.0234375,
      "v": 30
    },
    {
      "midi": 89,
      "hit": false,
      "t": 241875,
      "d": 375,
      "v": 85
    },
    {
      "midi": 59,
      "hit": false,
      "t": 241998.046875,
      "d": 251.953125,
      "v": 30
    },
    {
      "midi": 62,
      "hit": false,
      "t": 241998.046875,
      "d": 251.953125,
      "v": 30
    },
    {
      "midi": 65,
      "hit": false,
      "t": 241998.046875,
      "d": 251.953125,
      "v": 30
    },
    {
      "midi": 59,
      "hit": false,
      "t": 242250,
      "d": 249.0234375,
      "v": 30
    },
    {
      "midi": 62,
      "hit": false,
      "t": 242250,
      "d": 249.0234375,
      "v": 30
    },
    {
      "midi": 65,
      "hit": false,
      "t": 242250,
      "d": 249.0234375,
      "v": 30
    },
    {
      "midi": 59,
      "hit": false,
      "t": 242499.0234375,
      "d": 249.0234375,
      "v": 30
    },
    {
      "midi": 62,
      "hit": false,
      "t": 242499.0234375,
      "d": 249.0234375,
      "v": 30
    },
    {
      "midi": 65,
      "hit": false,
      "t": 242499.0234375,
      "d": 249.0234375,
      "v": 30
    },
    {
      "midi": 83,
      "hit": false,
      "t": 242625,
      "d": 375,
      "v": 88
    },
    {
      "midi": 59,
      "hit": false,
      "t": 242748.046875,
      "d": 251.953125,
      "v": 30
    },
    {
      "midi": 62,
      "hit": false,
      "t": 242748.046875,
      "d": 251.953125,
      "v": 30
    },
    {
      "midi": 65,
      "hit": false,
      "t": 242748.046875,
      "d": 251.953125,
      "v": 30
    },
    {
      "midi": 60,
      "hit": false,
      "t": 243000,
      "d": 750,
      "v": 51
    },
    {
      "midi": 64,
      "hit": false,
      "t": 243000,
      "d": 750,
      "v": 51
    },
    {
      "midi": 86,
      "hit": false,
      "t": 243000,
      "d": 764.6484375,
      "v": 100
    },
    {
      "midi": 84,
      "hit": false,
      "t": 243750,
      "d": 711.9140625,
      "v": 95
    },
    {
      "midi": 84,
      "hit": false,
      "t": 245250,
      "d": 750,
      "v": 90
    },
    {
      "midi": 48,
      "hit": false,
      "t": 246000,
      "d": 750,
      "v": 45
    },
    {
      "midi": 60,
      "hit": false,
      "t": 246000,
      "d": 750,
      "v": 45
    },
    {
      "midi": 85,
      "hit": false,
      "t": 246000,
      "d": 1749.0234375,
      "v": 100
    },
    {
      "midi": 79,
      "hit": false,
      "t": 247749.0234375,
      "d": 249.0234375,
      "v": 90
    },
    {
      "midi": 78,
      "hit": false,
      "t": 247998.046875,
      "d": 251.953125,
      "v": 94
    },
    {
      "midi": 79,
      "hit": false,
      "t": 248250,
      "d": 249.0234375,
      "v": 102
    },
    {
      "midi": 80,
      "hit": false,
      "t": 248499.0234375,
      "d": 249.0234375,
      "v": 100
    },
    {
      "midi": 82,
      "hit": false,
      "t": 248748.046875,
      "d": 251.953125,
      "v": 100
    },
    {
      "midi": 48,
      "hit": false,
      "t": 249000,
      "d": 750,
      "v": 45
    },
    {
      "midi": 60,
      "hit": false,
      "t": 249000,
      "d": 750,
      "v": 45
    },
    {
      "midi": 84,
      "hit": false,
      "t": 249000,
      "d": 1749.0234375,
      "v": 102
    },
    {
      "midi": 77,
      "hit": false,
      "t": 250749.0234375,
      "d": 249.0234375,
      "v": 88
    },
    {
      "midi": 76,
      "hit": false,
      "t": 250998.046875,
      "d": 251.953125,
      "v": 95
    },
    {
      "midi": 77,
      "hit": false,
      "t": 251250,
      "d": 249.0234375,
      "v": 99
    },
    {
      "midi": 79,
      "hit": false,
      "t": 251499.0234375,
      "d": 249.0234375,
      "v": 102
    },
    {
      "midi": 80,
      "hit": false,
      "t": 251748.046875,
      "d": 251.953125,
      "v": 99
    },
    {
      "midi": 48,
      "hit": false,
      "t": 252000,
      "d": 750,
      "v": 43
    },
    {
      "midi": 60,
      "hit": false,
      "t": 252000,
      "d": 750,
      "v": 43
    },
    {
      "midi": 82,
      "hit": false,
      "t": 252000,
      "d": 1749.0234375,
      "v": 101
    },
    {
      "midi": 76,
      "hit": false,
      "t": 253749.0234375,
      "d": 249.0234375,
      "v": 90
    },
    {
      "midi": 74,
      "hit": false,
      "t": 253998.046875,
      "d": 251.953125,
      "v": 92
    },
    {
      "midi": 76,
      "hit": false,
      "t": 254250,
      "d": 249.0234375,
      "v": 101
    },
    {
      "midi": 77,
      "hit": false,
      "t": 254499.0234375,
      "d": 249.0234375,
      "v": 99
    },
    {
      "midi": 79,
      "hit": false,
      "t": 254748.046875,
      "d": 251.953125,
      "v": 102
    },
    {
      "midi": 48,
      "hit": false,
      "t": 255000,
      "d": 750,
      "v": 45
    },
    {
      "midi": 60,
      "hit": false,
      "t": 255000,
      "d": 750,
      "v": 45
    },
    {
      "midi": 80,
      "hit": false,
      "t": 255000,
      "d": 1749.0234375,
      "v": 100
    },
    {
      "midi": 74,
      "hit": false,
      "t": 256749.0234375,
      "d": 249.0234375,
      "v": 91
    },
    {
      "midi": 73,
      "hit": false,
      "t": 256998.046875,
      "d": 251.953125,
      "v": 94
    },
    {
      "midi": 74,
      "hit": false,
      "t": 257250,
      "d": 249.0234375,
      "v": 99
    },
    {
      "midi": 76,
      "hit": false,
      "t": 257499.0234375,
      "d": 249.0234375,
      "v": 101
    },
    {
      "midi": 77,
      "hit": false,
      "t": 257748.046875,
      "d": 251.953125,
      "v": 100
    },
    {
      "midi": 48,
      "hit": false,
      "t": 258000,
      "d": 750,
      "v": 46
    },
    {
      "midi": 60,
      "hit": false,
      "t": 258000,
      "d": 750,
      "v": 46
    },
    {
      "midi": 79,
      "hit": false,
      "t": 258000,
      "d": 1749.0234375,
      "v": 99
    },
    {
      "midi": 72,
      "hit": false,
      "t": 259749.0234375,
      "d": 249.0234375,
      "v": 69
    },
    {
      "midi": 73,
      "hit": false,
      "t": 259998.046875,
      "d": 251.953125,
      "v": 79
    },
    {
      "midi": 74,
      "hit": false,
      "t": 260250,
      "d": 249.0234375,
      "v": 77
    },
    {
      "midi": 46,
      "hit": false,
      "t": 260250,
      "d": 750,
      "v": 44
    },
    {
      "midi": 75,
      "hit": false,
      "t": 260499.0234375,
      "d": 249.0234375,
      "v": 79
    },
    {
      "midi": 76,
      "hit": false,
      "t": 260748.046875,
      "d": 251.953125,
      "v": 81
    },
    {
      "midi": 45,
      "hit": false,
      "t": 261000,
      "d": 249.0234375,
      "v": 51
    },
    {
      "midi": 77,
      "hit": false,
      "t": 261000,
      "d": 1500,
      "v": 78
    },
    {
      "midi": 48,
      "hit": false,
      "t": 261249.0234375,
      "d": 249.0234375,
      "v": 51
    },
    {
      "midi": 53,
      "hit": false,
      "t": 261498.046875,
      "d": 251.953125,
      "v": 53
    },
    {
      "midi": 41,
      "hit": false,
      "t": 261750,
      "d": 249.0234375,
      "v": 45
    },
    {
      "midi": 45,
      "hit": false,
      "t": 261999.0234375,
      "d": 249.0234375,
      "v": 52
    },
    {
      "midi": 53,
      "hit": false,
      "t": 262248.046875,
      "d": 251.953125,
      "v": 53
    },
    {
      "midi": 46,
      "hit": false,
      "t": 262500,
      "d": 249.0234375,
      "v": 49
    },
    {
      "midi": 76,
      "hit": false,
      "t": 262500,
      "d": 380.859375,
      "v": 74
    },
    {
      "midi": 50,
      "hit": false,
      "t": 262749.0234375,
      "d": 249.0234375,
      "v": 53
    },
    {
      "midi": 74,
      "hit": false,
      "t": 262875,
      "d": 354.4921875,
      "v": 71
    },
    {
      "midi": 53,
      "hit": false,
      "t": 262998.046875,
      "d": 251.953125,
      "v": 52
    },
    {
      "midi": 43,
      "hit": false,
      "t": 263250,
      "d": 249.0234375,
      "v": 48
    },
    {
      "midi": 72,
      "hit": false,
      "t": 263250,
      "d": 380.859375,
      "v": 74
    },
    {
      "midi": 50,
      "hit": false,
      "t": 263499.0234375,
      "d": 249.0234375,
      "v": 52
    },
    {
      "midi": 70,
      "hit": false,
      "t": 263625,
      "d": 342.7734375,
      "v": 74
    },
    {
      "midi": 53,
      "hit": false,
      "t": 263748.046875,
      "d": 251.953125,
      "v": 50
    },
    {
      "midi": 69,
      "hit": false,
      "t": 263967.7734375,
      "d": 375,
      "v": 73
    },
    {
      "midi": 48,
      "hit": false,
      "t": 264000,
      "d": 249.0234375,
      "v": 48
    },
    {
      "midi": 53,
      "hit": false,
      "t": 264249.0234375,
      "d": 249.0234375,
      "v": 54
    },
    {
      "midi": 67,
      "hit": false,
      "t": 264375,
      "d": 1875,
      "v": 73
    },
    {
      "midi": 55,
      "hit": false,
      "t": 264498.046875,
      "d": 251.953125,
      "v": 52
    },
    {
      "midi": 46,
      "hit": false,
      "t": 264750,
      "d": 249.0234375,
      "v": 48
    },
    {
      "midi": 53,
      "hit": false,
      "t": 264999.0234375,
      "d": 249.0234375,
      "v": 56
    },
    {
      "midi": 55,
      "hit": false,
      "t": 265248.046875,
      "d": 251.953125,
      "v": 51
    },
    {
      "midi": 48,
      "hit": false,
      "t": 265500,
      "d": 249.0234375,
      "v": 48
    },
    {
      "midi": 53,
      "hit": false,
      "t": 265749.0234375,
      "d": 249.0234375,
      "v": 54
    },
    {
      "midi": 55,
      "hit": false,
      "t": 265998.046875,
      "d": 251.953125,
      "v": 53
    },
    {
      "midi": 48,
      "hit": false,
      "t": 266250,
      "d": 249.0234375,
      "v": 50
    },
    {
      "midi": 72,
      "hit": false,
      "t": 266250,
      "d": 711.9140625,
      "v": 79
    },
    {
      "midi": 52,
      "hit": false,
      "t": 266499.0234375,
      "d": 249.0234375,
      "v": 51
    },
    {
      "midi": 55,
      "hit": false,
      "t": 266748.046875,
      "d": 251.953125,
      "v": 53
    },
    {
      "midi": 49,
      "hit": false,
      "t": 267000,
      "d": 249.0234375,
      "v": 49
    },
    {
      "midi": 70,
      "hit": false,
      "t": 267000,
      "d": 764.6484375,
      "v": 74
    },
    {
      "midi": 52,
      "hit": false,
      "t": 267249.0234375,
      "d": 249.0234375,
      "v": 50
    },
    {
      "midi": 55,
      "hit": false,
      "t": 267498.046875,
      "d": 251.953125,
      "v": 53
    },
    {
      "midi": 50,
      "hit": false,
      "t": 267750,
      "d": 249.0234375,
      "v": 50
    },
    {
      "midi": 69,
      "hit": false,
      "t": 267750,
      "d": 820.3125,
      "v": 70
    },
    {
      "midi": 53,
      "hit": false,
      "t": 267999.0234375,
      "d": 249.0234375,
      "v": 52
    },
    {
      "midi": 57,
      "hit": false,
      "t": 268248.046875,
      "d": 251.953125,
      "v": 54
    },
    {
      "midi": 48,
      "hit": false,
      "t": 268500,
      "d": 249.0234375,
      "v": 46
    },
    {
      "midi": 53,
      "hit": false,
      "t": 268749.0234375,
      "d": 249.0234375,
      "v": 54
    },
    {
      "midi": 57,
      "hit": false,
      "t": 268998.046875,
      "d": 251.953125,
      "v": 53
    },
    {
      "midi": 46,
      "hit": false,
      "t": 269250,
      "d": 249.0234375,
      "v": 48
    },
    {
      "midi": 52,
      "hit": false,
      "t": 269499.0234375,
      "d": 249.0234375,
      "v": 53
    },
    {
      "midi": 55,
      "hit": false,
      "t": 269748.046875,
      "d": 251.953125,
      "v": 53
    },
    {
      "midi": 45,
      "hit": false,
      "t": 270000,
      "d": 249.0234375,
      "v": 48
    },
    {
      "midi": 77,
      "hit": false,
      "t": 270000,
      "d": 1500,
      "v": 68
    },
    {
      "midi": 48,
      "hit": false,
      "t": 270249.0234375,
      "d": 249.0234375,
      "v": 49
    },
    {
      "midi": 53,
      "hit": false,
      "t": 270498.046875,
      "d": 251.953125,
      "v": 55
    },
    {
      "midi": 41,
      "hit": false,
      "t": 270750,
      "d": 249.0234375,
      "v": 46
    },
    {
      "midi": 45,
      "hit": false,
      "t": 270999.0234375,
      "d": 249.0234375,
      "v": 51
    },
    {
      "midi": 53,
      "hit": false,
      "t": 271248.046875,
      "d": 251.953125,
      "v": 53
    },
    {
      "midi": 46,
      "hit": false,
      "t": 271500,
      "d": 249.0234375,
      "v": 53
    },
    {
      "midi": 76,
      "hit": false,
      "t": 271500,
      "d": 380.859375,
      "v": 72
    },
    {
      "midi": 50,
      "hit": false,
      "t": 271749.0234375,
      "d": 249.0234375,
      "v": 51
    },
    {
      "midi": 74,
      "hit": false,
      "t": 271875,
      "d": 354.4921875,
      "v": 70
    },
    {
      "midi": 53,
      "hit": false,
      "t": 271998.046875,
      "d": 251.953125,
      "v": 53
    },
    {
      "midi": 43,
      "hit": false,
      "t": 272250,
      "d": 249.0234375,
      "v": 47
    },
    {
      "midi": 72,
      "hit": false,
      "t": 272250,
      "d": 380.859375,
      "v": 73
    },
    {
      "midi": 50,
      "hit": false,
      "t": 272499.0234375,
      "d": 249.0234375,
      "v": 53
    },
    {
      "midi": 70,
      "hit": false,
      "t": 272625,
      "d": 342.7734375,
      "v": 70
    },
    {
      "midi": 53,
      "hit": false,
      "t": 272748.046875,
      "d": 251.953125,
      "v": 53
    },
    {
      "midi": 69,
      "hit": false,
      "t": 272967.7734375,
      "d": 375,
      "v": 75
    },
    {
      "midi": 48,
      "hit": false,
      "t": 273000,
      "d": 249.0234375,
      "v": 49
    },
    {
      "midi": 53,
      "hit": false,
      "t": 273249.0234375,
      "d": 249.0234375,
      "v": 52
    },
    {
      "midi": 67,
      "hit": false,
      "t": 273375,
      "d": 1875,
      "v": 75
    },
    {
      "midi": 55,
      "hit": false,
      "t": 273498.046875,
      "d": 251.953125,
      "v": 53
    },
    {
      "midi": 46,
      "hit": false,
      "t": 273750,
      "d": 249.0234375,
      "v": 51
    },
    {
      "midi": 53,
      "hit": false,
      "t": 273999.0234375,
      "d": 249.0234375,
      "v": 53
    },
    {
      "midi": 55,
      "hit": false,
      "t": 274248.046875,
      "d": 251.953125,
      "v": 51
    },
    {
      "midi": 48,
      "hit": false,
      "t": 274500,
      "d": 249.0234375,
      "v": 52
    },
    {
      "midi": 53,
      "hit": false,
      "t": 274749.0234375,
      "d": 249.0234375,
      "v": 52
    },
    {
      "midi": 55,
      "hit": false,
      "t": 274998.046875,
      "d": 251.953125,
      "v": 52
    },
    {
      "midi": 48,
      "hit": false,
      "t": 275250,
      "d": 249.0234375,
      "v": 47
    },
    {
      "midi": 72,
      "hit": false,
      "t": 275250,
      "d": 711.9140625,
      "v": 81
    },
    {
      "midi": 52,
      "hit": false,
      "t": 275499.0234375,
      "d": 249.0234375,
      "v": 52
    },
    {
      "midi": 58,
      "hit": false,
      "t": 275748.046875,
      "d": 251.953125,
      "v": 53
    },
    {
      "midi": 53,
      "hit": false,
      "t": 276000,
      "d": 750,
      "v": 51
    },
    {
      "midi": 57,
      "hit": false,
      "t": 276000,
      "d": 750,
      "v": 51
    },
    {
      "midi": 65,
      "hit": false,
      "t": 276000,
      "d": 750,
      "v": 71
    },
    {
      "midi": 57,
      "hit": false,
      "t": 279000,
      "d": 1500,
      "v": 76
    },
    {
      "midi": 84,
      "hit": false,
      "t": 279000,
      "d": 1500,
      "v": 103
    },
    {
      "midi": 60,
      "hit": false,
      "t": 279249.0234375,
      "d": 249.0234375,
      "v": 45
    },
    {
      "midi": 63,
      "hit": false,
      "t": 279249.0234375,
      "d": 249.0234375,
      "v": 45
    },
    {
      "midi": 65,
      "hit": false,
      "t": 279249.0234375,
      "d": 249.0234375,
      "v": 45
    },
    {
      "midi": 60,
      "hit": false,
      "t": 279498.046875,
      "d": 251.953125,
      "v": 50
    },
    {
      "midi": 63,
      "hit": false,
      "t": 279498.046875,
      "d": 251.953125,
      "v": 50
    },
    {
      "midi": 65,
      "hit": false,
      "t": 279498.046875,
      "d": 251.953125,
      "v": 50
    },
    {
      "midi": 60,
      "hit": false,
      "t": 279750,
      "d": 249.0234375,
      "v": 51
    },
    {
      "midi": 63,
      "hit": false,
      "t": 279750,
      "d": 249.0234375,
      "v": 51
    },
    {
      "midi": 65,
      "hit": false,
      "t": 279750,
      "d": 249.0234375,
      "v": 51
    },
    {
      "midi": 60,
      "hit": false,
      "t": 279999.0234375,
      "d": 249.0234375,
      "v": 51
    },
    {
      "midi": 63,
      "hit": false,
      "t": 279999.0234375,
      "d": 249.0234375,
      "v": 51
    },
    {
      "midi": 65,
      "hit": false,
      "t": 279999.0234375,
      "d": 249.0234375,
      "v": 51
    },
    {
      "midi": 60,
      "hit": false,
      "t": 280248.046875,
      "d": 251.953125,
      "v": 52
    },
    {
      "midi": 63,
      "hit": false,
      "t": 280248.046875,
      "d": 251.953125,
      "v": 52
    },
    {
      "midi": 65,
      "hit": false,
      "t": 280248.046875,
      "d": 251.953125,
      "v": 52
    },
    {
      "midi": 45,
      "hit": false,
      "t": 280500,
      "d": 1125,
      "v": 76
    },
    {
      "midi": 57,
      "hit": false,
      "t": 280500,
      "d": 1500,
      "v": 74
    },
    {
      "midi": 60,
      "hit": false,
      "t": 280749.0234375,
      "d": 249.0234375,
      "v": 46
    },
    {
      "midi": 63,
      "hit": false,
      "t": 280749.0234375,
      "d": 249.0234375,
      "v": 46
    },
    {
      "midi": 65,
      "hit": false,
      "t": 280749.0234375,
      "d": 249.0234375,
      "v": 46
    },
    {
      "midi": 60,
      "hit": false,
      "t": 280998.046875,
      "d": 251.953125,
      "v": 52
    },
    {
      "midi": 63,
      "hit": false,
      "t": 280998.046875,
      "d": 251.953125,
      "v": 52
    },
    {
      "midi": 65,
      "hit": false,
      "t": 280998.046875,
      "d": 251.953125,
      "v": 52
    },
    {
      "midi": 60,
      "hit": false,
      "t": 281250,
      "d": 249.0234375,
      "v": 50
    },
    {
      "midi": 63,
      "hit": false,
      "t": 281250,
      "d": 249.0234375,
      "v": 50
    },
    {
      "midi": 65,
      "hit": false,
      "t": 281250,
      "d": 249.0234375,
      "v": 50
    },
    {
      "midi": 60,
      "hit": false,
      "t": 281499.0234375,
      "d": 249.0234375,
      "v": 50
    },
    {
      "midi": 63,
      "hit": false,
      "t": 281499.0234375,
      "d": 249.0234375,
      "v": 50
    },
    {
      "midi": 65,
      "hit": false,
      "t": 281499.0234375,
      "d": 249.0234375,
      "v": 50
    },
    {
      "midi": 45,
      "hit": false,
      "t": 281625,
      "d": 375,
      "v": 84
    },
    {
      "midi": 60,
      "hit": false,
      "t": 281748.046875,
      "d": 251.953125,
      "v": 51
    },
    {
      "midi": 63,
      "hit": false,
      "t": 281748.046875,
      "d": 251.953125,
      "v": 51
    },
    {
      "midi": 65,
      "hit": false,
      "t": 281748.046875,
      "d": 251.953125,
      "v": 51
    },
    {
      "midi": 48,
      "hit": false,
      "t": 282000,
      "d": 380.859375,
      "v": 84
    },
    {
      "midi": 58,
      "hit": false,
      "t": 282000,
      "d": 750,
      "v": 51
    },
    {
      "midi": 62,
      "hit": false,
      "t": 282000,
      "d": 750,
      "v": 51
    },
    {
      "midi": 65,
      "hit": false,
      "t": 282000,
      "d": 750,
      "v": 51
    },
    {
      "midi": 46,
      "hit": false,
      "t": 282375,
      "d": 354.4921875,
      "v": 80
    },
    {
      "midi": 46,
      "hit": false,
      "t": 282750,
      "d": 750,
      "v": 85
    },
    {
      "midi": 59,
      "hit": false,
      "t": 285000,
      "d": 1500,
      "v": 77
    },
    {
      "midi": 86,
      "hit": false,
      "t": 285000,
      "d": 1500,
      "v": 103
    },
    {
      "midi": 62,
      "hit": false,
      "t": 285249.0234375,
      "d": 249.0234375,
      "v": 45
    },
    {
      "midi": 65,
      "hit": false,
      "t": 285249.0234375,
      "d": 249.0234375,
      "v": 45
    },
    {
      "midi": 68,
      "hit": false,
      "t": 285249.0234375,
      "d": 249.0234375,
      "v": 45
    },
    {
      "midi": 62,
      "hit": false,
      "t": 285498.046875,
      "d": 251.953125,
      "v": 51
    },
    {
      "midi": 65,
      "hit": false,
      "t": 285498.046875,
      "d": 251.953125,
      "v": 51
    },
    {
      "midi": 68,
      "hit": false,
      "t": 285498.046875,
      "d": 251.953125,
      "v": 51
    },
    {
      "midi": 62,
      "hit": false,
      "t": 285750,
      "d": 249.0234375,
      "v": 50
    },
    {
      "midi": 65,
      "hit": false,
      "t": 285750,
      "d": 249.0234375,
      "v": 50
    },
    {
      "midi": 68,
      "hit": false,
      "t": 285750,
      "d": 249.0234375,
      "v": 50
    },
    {
      "midi": 62,
      "hit": false,
      "t": 285999.0234375,
      "d": 249.0234375,
      "v": 53
    },
    {
      "midi": 65,
      "hit": false,
      "t": 285999.0234375,
      "d": 249.0234375,
      "v": 53
    },
    {
      "midi": 68,
      "hit": false,
      "t": 285999.0234375,
      "d": 249.0234375,
      "v": 53
    },
    {
      "midi": 62,
      "hit": false,
      "t": 286248.046875,
      "d": 251.953125,
      "v": 50
    },
    {
      "midi": 65,
      "hit": false,
      "t": 286248.046875,
      "d": 251.953125,
      "v": 50
    },
    {
      "midi": 68,
      "hit": false,
      "t": 286248.046875,
      "d": 251.953125,
      "v": 50
    },
    {
      "midi": 47,
      "hit": false,
      "t": 286500,
      "d": 1125,
      "v": 79
    },
    {
      "midi": 59,
      "hit": false,
      "t": 286500,
      "d": 1500,
      "v": 76
    },
    {
      "midi": 62,
      "hit": false,
      "t": 286749.0234375,
      "d": 249.0234375,
      "v": 45
    },
    {
      "midi": 65,
      "hit": false,
      "t": 286749.0234375,
      "d": 249.0234375,
      "v": 45
    },
    {
      "midi": 68,
      "hit": false,
      "t": 286749.0234375,
      "d": 249.0234375,
      "v": 45
    },
    {
      "midi": 62,
      "hit": false,
      "t": 286998.046875,
      "d": 251.953125,
      "v": 51
    },
    {
      "midi": 65,
      "hit": false,
      "t": 286998.046875,
      "d": 251.953125,
      "v": 51
    },
    {
      "midi": 68,
      "hit": false,
      "t": 286998.046875,
      "d": 251.953125,
      "v": 51
    },
    {
      "midi": 62,
      "hit": false,
      "t": 287250,
      "d": 249.0234375,
      "v": 53
    },
    {
      "midi": 65,
      "hit": false,
      "t": 287250,
      "d": 249.0234375,
      "v": 53
    },
    {
      "midi": 68,
      "hit": false,
      "t": 287250,
      "d": 249.0234375,
      "v": 53
    },
    {
      "midi": 62,
      "hit": false,
      "t": 287499.0234375,
      "d": 249.0234375,
      "v": 49
    },
    {
      "midi": 65,
      "hit": false,
      "t": 287499.0234375,
      "d": 249.0234375,
      "v": 49
    },
    {
      "midi": 68,
      "hit": false,
      "t": 287499.0234375,
      "d": 249.0234375,
      "v": 49
    },
    {
      "midi": 47,
      "hit": false,
      "t": 287625,
      "d": 375,
      "v": 83
    },
    {
      "midi": 62,
      "hit": false,
      "t": 287748.046875,
      "d": 251.953125,
      "v": 50
    },
    {
      "midi": 65,
      "hit": false,
      "t": 287748.046875,
      "d": 251.953125,
      "v": 50
    },
    {
      "midi": 68,
      "hit": false,
      "t": 287748.046875,
      "d": 251.953125,
      "v": 50
    },
    {
      "midi": 48,
      "hit": false,
      "t": 288000,
      "d": 750,
      "v": 83
    },
    {
      "midi": 60,
      "hit": false,
      "t": 288000,
      "d": 1500,
      "v": 79
    },
    {
      "midi": 65,
      "hit": false,
      "t": 288249.0234375,
      "d": 249.0234375,
      "v": 44
    },
    {
      "midi": 69,
      "hit": false,
      "t": 288249.0234375,
      "d": 249.0234375,
      "v": 44
    },
    {
      "midi": 65,
      "hit": false,
      "t": 288498.046875,
      "d": 251.953125,
      "v": 53
    },
    {
      "midi": 69,
      "hit": false,
      "t": 288498.046875,
      "d": 251.953125,
      "v": 53
    },
    {
      "midi": 65,
      "hit": false,
      "t": 288750,
      "d": 249.0234375,
      "v": 51
    },
    {
      "midi": 69,
      "hit": false,
      "t": 288750,
      "d": 249.0234375,
      "v": 51
    },
    {
      "midi": 89,
      "hit": false,
      "t": 288750,
      "d": 1125,
      "v": 110
    },
    {
      "midi": 65,
      "hit": false,
      "t": 288999.0234375,
      "d": 249.0234375,
      "v": 52
    },
    {
      "midi": 69,
      "hit": false,
      "t": 288999.0234375,
      "d": 249.0234375,
      "v": 52
    },
    {
      "midi": 65,
      "hit": false,
      "t": 289248.046875,
      "d": 251.953125,
      "v": 50
    },
    {
      "midi": 69,
      "hit": false,
      "t": 289248.046875,
      "d": 251.953125,
      "v": 50
    },
    {
      "midi": 60,
      "hit": false,
      "t": 289500,
      "d": 1500,
      "v": 76
    },
    {
      "midi": 65,
      "hit": false,
      "t": 289749.0234375,
      "d": 249.0234375,
      "v": 46
    },
    {
      "midi": 69,
      "hit": false,
      "t": 289749.0234375,
      "d": 249.0234375,
      "v": 46
    },
    {
      "midi": 84,
      "hit": false,
      "t": 289875,
      "d": 375,
      "v": 93
    },
    {
      "midi": 65,
      "hit": false,
      "t": 289998.046875,
      "d": 251.953125,
      "v": 51
    },
    {
      "midi": 69,
      "hit": false,
      "t": 289998.046875,
      "d": 251.953125,
      "v": 51
    },
    {
      "midi": 65,
      "hit": false,
      "t": 290250,
      "d": 249.0234375,
      "v": 52
    },
    {
      "midi": 69,
      "hit": false,
      "t": 290250,
      "d": 249.0234375,
      "v": 52
    },
    {
      "midi": 81,
      "hit": false,
      "t": 290250,
      "d": 375,
      "v": 96
    },
    {
      "midi": 65,
      "hit": false,
      "t": 290499.0234375,
      "d": 249.0234375,
      "v": 50
    },
    {
      "midi": 69,
      "hit": false,
      "t": 290499.0234375,
      "d": 249.0234375,
      "v": 50
    },
    {
      "midi": 77,
      "hit": false,
      "t": 290625,
      "d": 375,
      "v": 93
    },
    {
      "midi": 65,
      "hit": false,
      "t": 290748.046875,
      "d": 251.953125,
      "v": 50
    },
    {
      "midi": 69,
      "hit": false,
      "t": 290748.046875,
      "d": 251.953125,
      "v": 50
    },
    {
      "midi": 76,
      "hit": false,
      "t": 291000,
      "d": 55.6640625,
      "v": 97
    },
    {
      "midi": 60,
      "hit": false,
      "t": 291000,
      "d": 1500,
      "v": 77
    },
    {
      "midi": 77,
      "hit": false,
      "t": 291070.3125,
      "d": 55.6640625,
      "v": 97
    },
    {
      "midi": 76,
      "hit": false,
      "t": 291140.625,
      "d": 55.6640625,
      "v": 97
    },
    {
      "midi": 77,
      "hit": false,
      "t": 291210.9375,
      "d": 55.6640625,
      "v": 97
    },
    {
      "midi": 67,
      "hit": false,
      "t": 291249.0234375,
      "d": 249.0234375,
      "v": 47
    },
    {
      "midi": 70,
      "hit": false,
      "t": 291249.0234375,
      "d": 249.0234375,
      "v": 47
    },
    {
      "midi": 76,
      "hit": false,
      "t": 291278.3203125,
      "d": 52.734375,
      "v": 97
    },
    {
      "midi": 77,
      "hit": false,
      "t": 291345.703125,
      "d": 52.734375,
      "v": 97
    },
    {
      "midi": 76,
      "hit": false,
      "t": 291413.0859375,
      "d": 52.734375,
      "v": 97
    },
    {
      "midi": 77,
      "hit": false,
      "t": 291480.46875,
      "d": 52.734375,
      "v": 97
    },
    {
      "midi": 67,
      "hit": false,
      "t": 291498.046875,
      "d": 251.953125,
      "v": 50
    },
    {
      "midi": 70,
      "hit": false,
      "t": 291498.046875,
      "d": 251.953125,
      "v": 50
    },
    {
      "midi": 76,
      "hit": false,
      "t": 291544.921875,
      "d": 49.8046875,
      "v": 97
    },
    {
      "midi": 77,
      "hit": false,
      "t": 291609.375,
      "d": 49.8046875,
      "v": 97
    },
    {
      "midi": 76,
      "hit": false,
      "t": 291673.828125,
      "d": 49.8046875,
      "v": 97
    },
    {
      "midi": 77,
      "hit": false,
      "t": 291738.28125,
      "d": 49.8046875,
      "v": 97
    },
    {
      "midi": 67,
      "hit": false,
      "t": 291750,
      "d": 249.0234375,
      "v": 50
    },
    {
      "midi": 70,
      "hit": false,
      "t": 291750,
      "d": 249.0234375,
      "v": 50
    },
    {
      "midi": 76,
      "hit": false,
      "t": 291799.8046875,
      "d": 46.875,
      "v": 97
    },
    {
      "midi": 77,
      "hit": false,
      "t": 291861.328125,
      "d": 46.875,
      "v": 97
    },
    {
      "midi": 76,
      "hit": false,
      "t": 291922.8515625,
      "d": 46.875,
      "v": 97
    },
    {
      "midi": 77,
      "hit": false,
      "t": 291984.375,
      "d": 46.875,
      "v": 97
    },
    {
      "midi": 67,
      "hit": false,
      "t": 291999.0234375,
      "d": 249.0234375,
      "v": 51
    },
    {
      "midi": 70,
      "hit": false,
      "t": 291999.0234375,
      "d": 249.0234375,
      "v": 51
    },
    {
      "midi": 76,
      "hit": false,
      "t": 292048.828125,
      "d": 49.8046875,
      "v": 97
    },
    {
      "midi": 77,
      "hit": false,
      "t": 292113.28125,
      "d": 49.8046875,
      "v": 97
    },
    {
      "midi": 76,
      "hit": false,
      "t": 292177.734375,
      "d": 49.8046875,
      "v": 97
    },
    {
      "midi": 77,
      "hit": false,
      "t": 292242.1875,
      "d": 49.8046875,
      "v": 97
    },
    {
      "midi": 67,
      "hit": false,
      "t": 292248.046875,
      "d": 251.953125,
      "v": 51
    },
    {
      "midi": 70,
      "hit": false,
      "t": 292248.046875,
      "d": 251.953125,
      "v": 51
    },
    {
      "midi": 76,
      "hit": false,
      "t": 292309.5703125,
      "d": 52.734375,
      "v": 97
    },
    {
      "midi": 77,
      "hit": false,
      "t": 292376.953125,
      "d": 52.734375,
      "v": 97
    },
    {
      "midi": 76,
      "hit": false,
      "t": 292444.3359375,
      "d": 52.734375,
      "v": 97
    },
    {
      "midi": 79,
      "hit": false,
      "t": 292500,
      "d": 49.8046875,
      "v": 103
    },
    {
      "midi": 60,
      "hit": false,
      "t": 292500,
      "d": 1500,
      "v": 77
    },
    {
      "midi": 81,
      "hit": false,
      "t": 292564.453125,
      "d": 49.8046875,
      "v": 103
    },
    {
      "midi": 79,
      "hit": false,
      "t": 292628.90625,
      "d": 49.8046875,
      "v": 103
    },
    {
      "midi": 81,
      "hit": false,
      "t": 292690.4296875,
      "d": 46.875,
      "v": 103
    },
    {
      "midi": 64,
      "hit": false,
      "t": 292749.0234375,
      "d": 249.0234375,
      "v": 44
    },
    {
      "midi": 70,
      "hit": false,
      "t": 292749.0234375,
      "d": 249.0234375,
      "v": 44
    },
    {
      "midi": 79,
      "hit": false,
      "t": 292751.953125,
      "d": 46.875,
      "v": 103
    },
    {
      "midi": 81,
      "hit": false,
      "t": 292813.4765625,
      "d": 46.875,
      "v": 103
    },
    {
      "midi": 79,
      "hit": false,
      "t": 292872.0703125,
      "d": 46.875,
      "v": 103
    },
    {
      "midi": 81,
      "hit": false,
      "t": 292930.6640625,
      "d": 46.875,
      "v": 103
    },
    {
      "midi": 79,
      "hit": false,
      "t": 292989.2578125,
      "d": 46.875,
      "v": 103
    },
    {
      "midi": 64,
      "hit": false,
      "t": 292998.046875,
      "d": 251.953125,
      "v": 52
    },
    {
      "midi": 70,
      "hit": false,
      "t": 292998.046875,
      "d": 251.953125,
      "v": 52
    },
    {
      "midi": 81,
      "hit": false,
      "t": 293047.8515625,
      "d": 46.875,
      "v": 103
    },
    {
      "midi": 79,
      "hit": false,
      "t": 293103.515625,
      "d": 43.9453125,
      "v": 103
    },
    {
      "midi": 81,
      "hit": false,
      "t": 293159.1796875,
      "d": 43.9453125,
      "v": 103
    },
    {
      "midi": 79,
      "hit": false,
      "t": 293214.84375,
      "d": 43.9453125,
      "v": 103
    },
    {
      "midi": 64,
      "hit": false,
      "t": 293250,
      "d": 249.0234375,
      "v": 52
    },
    {
      "midi": 70,
      "hit": false,
      "t": 293250,
      "d": 249.0234375,
      "v": 52
    },
    {
      "midi": 81,
      "hit": false,
      "t": 293273.4375,
      "d": 46.875,
      "v": 103
    },
    {
      "midi": 79,
      "hit": false,
      "t": 293332.03125,
      "d": 46.875,
      "v": 103
    },
    {
      "midi": 81,
      "hit": false,
      "t": 293390.625,
      "d": 46.875,
      "v": 103
    },
    {
      "midi": 79,
      "hit": false,
      "t": 293452.1484375,
      "d": 46.875,
      "v": 103
    },
    {
      "midi": 64,
      "hit": false,
      "t": 293499.0234375,
      "d": 249.0234375,
      "v": 52
    },
    {
      "midi": 70,
      "hit": false,
      "t": 293499.0234375,
      "d": 249.0234375,
      "v": 52
    },
    {
      "midi": 81,
      "hit": false,
      "t": 293513.671875,
      "d": 46.875,
      "v": 103
    },
    {
      "midi": 79,
      "hit": false,
      "t": 293575.1953125,
      "d": 46.875,
      "v": 103
    },
    {
      "midi": 77,
      "hit": false,
      "t": 293625,
      "d": 187.5,
      "v": 89
    },
    {
      "midi": 64,
      "hit": false,
      "t": 293748.046875,
      "d": 251.953125,
      "v": 51
    },
    {
      "midi": 70,
      "hit": false,
      "t": 293748.046875,
      "d": 251.953125,
      "v": 51
    },
    {
      "midi": 79,
      "hit": false,
      "t": 293812.5,
      "d": 187.5,
      "v": 100
    },
    {
      "midi": 65,
      "hit": false,
      "t": 294000,
      "d": 750,
      "v": 50
    },
    {
      "midi": 69,
      "hit": false,
      "t": 294000,
      "d": 750,
      "v": 50
    },
    {
      "midi": 77,
      "hit": false,
      "t": 294000,
      "d": 750,
      "v": 95
    },
    {
      "midi": 69,
      "hit": false,
      "t": 296250,
      "d": 571.2890625,
      "v": 47
    },
    {
      "midi": 81,
      "hit": false,
      "t": 296250,
      "d": 571.2890625,
      "v": 88
    },
    {
      "midi": 65,
      "hit": false,
      "t": 296812.5,
      "d": 175.78125,
      "v": 47
    },
    {
      "midi": 77,
      "hit": false,
      "t": 296812.5,
      "d": 175.78125,
      "v": 84
    },
    {
      "midi": 72,
      "hit": false,
      "t": 297000,
      "d": 750,
      "v": 56
    },
    {
      "midi": 84,
      "hit": false,
      "t": 297000,
      "d": 750,
      "v": 105
    },
    {
      "midi": 72,
      "hit": false,
      "t": 297750,
      "d": 750,
      "v": 52
    },
    {
      "midi": 84,
      "hit": false,
      "t": 297750,
      "d": 750,
      "v": 100
    },
    {
      "midi": 72,
      "hit": false,
      "t": 298500,
      "d": 750,
      "v": 50
    },
    {
      "midi": 84,
      "hit": false,
      "t": 298500,
      "d": 750,
      "v": 99
    },
    {
      "midi": 72,
      "hit": false,
      "t": 299250,
      "d": 750,
      "v": 51
    },
    {
      "midi": 84,
      "hit": false,
      "t": 299250,
      "d": 750,
      "v": 98
    },
    {
      "midi": 72,
      "hit": false,
      "t": 300000,
      "d": 764.6484375,
      "v": 51
    },
    {
      "midi": 84,
      "hit": false,
      "t": 300000,
      "d": 764.6484375,
      "v": 99
    },
    {
      "midi": 77,
      "hit": false,
      "t": 300750,
      "d": 711.9140625,
      "v": 53
    },
    {
      "midi": 89,
      "hit": false,
      "t": 300750,
      "d": 711.9140625,
      "v": 107
    },
    {
      "midi": 69,
      "hit": false,
      "t": 302250,
      "d": 571.2890625,
      "v": 44
    },
    {
      "midi": 81,
      "hit": false,
      "t": 302250,
      "d": 571.2890625,
      "v": 86
    },
    {
      "midi": 65,
      "hit": false,
      "t": 302812.5,
      "d": 175.78125,
      "v": 41
    },
    {
      "midi": 77,
      "hit": false,
      "t": 302812.5,
      "d": 175.78125,
      "v": 81
    },
    {
      "midi": 72,
      "hit": false,
      "t": 303000,
      "d": 750,
      "v": 53
    },
    {
      "midi": 84,
      "hit": false,
      "t": 303000,
      "d": 750,
      "v": 105
    },
    {
      "midi": 72,
      "hit": false,
      "t": 303750,
      "d": 750,
      "v": 52
    },
    {
      "midi": 84,
      "hit": false,
      "t": 303750,
      "d": 750,
      "v": 99
    },
    {
      "midi": 72,
      "hit": false,
      "t": 304500,
      "d": 1145.5078125,
      "v": 52
    },
    {
      "midi": 84,
      "hit": false,
      "t": 304500,
      "d": 1145.5078125,
      "v": 97
    },
    {
      "midi": 70,
      "hit": false,
      "t": 305625,
      "d": 123.046875,
      "v": 52
    },
    {
      "midi": 82,
      "hit": false,
      "t": 305625,
      "d": 123.046875,
      "v": 94
    },
    {
      "midi": 69,
      "hit": false,
      "t": 305748.046875,
      "d": 125.9765625,
      "v": 49
    },
    {
      "midi": 81,
      "hit": false,
      "t": 305748.046875,
      "d": 125.9765625,
      "v": 96
    },
    {
      "midi": 67,
      "hit": false,
      "t": 305874.0234375,
      "d": 117.1875,
      "v": 52
    },
    {
      "midi": 79,
      "hit": false,
      "t": 305874.0234375,
      "d": 117.1875,
      "v": 96
    },
    {
      "midi": 65,
      "hit": false,
      "t": 306000,
      "d": 750,
      "v": 48
    },
    {
      "midi": 77,
      "hit": false,
      "t": 306000,
      "d": 750,
      "v": 95
    },
    {
      "midi": 65,
      "hit": false,
      "t": 307500,
      "d": 750,
      "v": 48
    },
    {
      "midi": 69,
      "hit": false,
      "t": 307500,
      "d": 750,
      "v": 48
    },
    {
      "midi": 72,
      "hit": false,
      "t": 307500,
      "d": 750,
      "v": 86
    },
    {
      "midi": 84,
      "hit": false,
      "t": 307500,
      "d": 750,
      "v": 86
    },
    {
      "midi": 65,
      "hit": false,
      "t": 309000,
      "d": 750,
      "v": 46
    },
    {
      "midi": 69,
      "hit": false,
      "t": 309000,
      "d": 750,
      "v": 46
    },
    {
      "midi": 77,
      "hit": false,
      "t": 309000,
      "d": 750,
      "v": 89
    },
    {
      "midi": 89,
      "hit": false,
      "t": 309000,
      "d": 750,
      "v": 89
    }
  ]
}