{
  "jsonPath": "Animes/Ranma ½ MIDI Collection/ccms.json",
  "path": "Animes\\Ranma ½ MIDI Collection\\ccms.mid",
  "name": "ccms",
  "difficulty": "Advanced",
  "bpm": 165.000165000165,
  "notes": [
    {
      "midi": 72,
      "hit": false,
      "t": 1454.544,
      "d": 81.81809999999996,
      "v": 100
    },
    {
      "midi": 67,
      "hit": false,
      "t": 1454.544,
      "d": 81.81809999999996,
      "v": 100
    },
    {
      "midi": 60,
      "hit": false,
      "t": 1454.544,
      "d": 1309.089599999999,
      "v": 100
    },
    {
      "midi": 36,
      "hit": false,
      "t": 1454.544,
      "d": 1309.089599999999,
      "v": 100
    },
    {
      "midi": 52,
      "hit": false,
      "t": 1454.544,
      "d": 1309.089599999999,
      "v": 100
    },
    {
      "midi": 46,
      "hit": false,
      "t": 1454.544,
      "d": 1309.089599999999,
      "v": 100
    },
    {
      "midi": 72,
      "hit": false,
      "t": 1545.453,
      "d": 81.81809999999996,
      "v": 100
    },
    {
      "midi": 67,
      "hit": false,
      "t": 1545.453,
      "d": 81.81809999999996,
      "v": 100
    },
    {
      "midi": 72,
      "hit": false,
      "t": 1636.3619999999999,
      "d": 163.63619999999992,
      "v": 100
    },
    {
      "midi": 67,
      "hit": false,
      "t": 1636.3619999999999,
      "d": 163.63619999999992,
      "v": 100
    },
    {
      "midi": 69,
      "hit": false,
      "t": 1818.1799999999998,
      "d": 163.63619999999992,
      "v": 100
    },
    {
      "midi": 64,
      "hit": false,
      "t": 1818.1799999999998,
      "d": 163.63619999999992,
      "v": 100
    },
    {
      "midi": 69,
      "hit": false,
      "t": 1999.9979999999998,
      "d": 163.63620000000014,
      "v": 100
    },
    {
      "midi": 64,
      "hit": false,
      "t": 1999.9979999999998,
      "d": 163.63620000000014,
      "v": 100
    },
    {
      "midi": 67,
      "hit": false,
      "t": 2181.816,
      "d": 163.63619999999992,
      "v": 100
    },
    {
      "midi": 62,
      "hit": false,
      "t": 2181.816,
      "d": 163.63619999999992,
      "v": 100
    },
    {
      "midi": 67,
      "hit": false,
      "t": 2363.6339999999996,
      "d": 163.63619999999992,
      "v": 100
    },
    {
      "midi": 62,
      "hit": false,
      "t": 2363.6339999999996,
      "d": 163.63619999999992,
      "v": 100
    },
    {
      "midi": 64,
      "hit": false,
      "t": 2545.4519999999993,
      "d": 163.63619999999992,
      "v": 100
    },
    {
      "midi": 59,
      "hit": false,
      "t": 2545.4519999999993,
      "d": 163.63619999999992,
      "v": 100
    },
    {
      "midi": 67,
      "hit": false,
      "t": 2727.269999999999,
      "d": 36.36360000000013,
      "v": 100
    },
    {
      "midi": 62,
      "hit": false,
      "t": 2727.269999999999,
      "d": 163.63619999999992,
      "v": 100
    },
    {
      "midi": 72,
      "hit": false,
      "t": 2909.087999999999,
      "d": 81.81809999999996,
      "v": 100
    },
    {
      "midi": 67,
      "hit": false,
      "t": 2909.087999999999,
      "d": 81.81809999999996,
      "v": 100
    },
    {
      "midi": 60,
      "hit": false,
      "t": 2909.087999999999,
      "d": 1309.0895999999993,
      "v": 100
    },
    {
      "midi": 36,
      "hit": false,
      "t": 2909.087999999999,
      "d": 1309.0895999999993,
      "v": 100
    },
    {
      "midi": 46,
      "hit": false,
      "t": 2909.087999999999,
      "d": 1309.0895999999993,
      "v": 100
    },
    {
      "midi": 72,
      "hit": false,
      "t": 2999.996999999999,
      "d": 81.81809999999996,
      "v": 100
    },
    {
      "midi": 67,
      "hit": false,
      "t": 2999.996999999999,
      "d": 81.81809999999996,
      "v": 100
    },
    {
      "midi": 72,
      "hit": false,
      "t": 3090.905999999999,
      "d": 163.63619999999992,
      "v": 100
    },
    {
      "midi": 67,
      "hit": false,
      "t": 3090.905999999999,
      "d": 163.63619999999992,
      "v": 100
    },
    {
      "midi": 69,
      "hit": false,
      "t": 3272.723999999999,
      "d": 163.63619999999992,
      "v": 100
    },
    {
      "midi": 64,
      "hit": false,
      "t": 3272.723999999999,
      "d": 163.63619999999992,
      "v": 100
    },
    {
      "midi": 69,
      "hit": false,
      "t": 3454.5419999999986,
      "d": 163.63619999999992,
      "v": 100
    },
    {
      "midi": 64,
      "hit": false,
      "t": 3454.5419999999986,
      "d": 163.63619999999992,
      "v": 100
    },
    {
      "midi": 67,
      "hit": false,
      "t": 3636.3599999999983,
      "d": 163.63619999999992,
      "v": 100
    },
    {
      "midi": 62,
      "hit": false,
      "t": 3636.3599999999983,
      "d": 163.63619999999992,
      "v": 100
    },
    {
      "midi": 67,
      "hit": false,
      "t": 3818.177999999998,
      "d": 163.63619999999992,
      "v": 100
    },
    {
      "midi": 62,
      "hit": false,
      "t": 3818.177999999998,
      "d": 163.63619999999992,
      "v": 100
    },
    {
      "midi": 64,
      "hit": false,
      "t": 3999.995999999998,
      "d": 163.63620000000037,
      "v": 100
    },
    {
      "midi": 59,
      "hit": false,
      "t": 3999.995999999998,
      "d": 163.63620000000037,
      "v": 100
    },
    {
      "midi": 67,
      "hit": false,
      "t": 4181.8139999999985,
      "d": 36.36359999999968,
      "v": 100
    },
    {
      "midi": 62,
      "hit": false,
      "t": 4181.8139999999985,
      "d": 163.63619999999992,
      "v": 100
    },
    {
      "midi": 69,
      "hit": false,
      "t": 4363.631999999999,
      "d": 163.63619999999992,
      "v": 100
    },
    {
      "midi": 64,
      "hit": false,
      "t": 4363.631999999999,
      "d": 163.63619999999992,
      "v": 100
    },
    {
      "midi": 38,
      "hit": false,
      "t": 4363.631999999999,
      "d": 490.90860000000066,
      "v": 100
    },
    {
      "midi": 49,
      "hit": false,
      "t": 4363.631999999999,
      "d": 490.90860000000066,
      "v": 100
    },
    {
      "midi": 67,
      "hit": false,
      "t": 4545.449999999999,
      "d": 163.63619999999992,
      "v": 100
    },
    {
      "midi": 62,
      "hit": false,
      "t": 4545.449999999999,
      "d": 163.63619999999992,
      "v": 100
    },
    {
      "midi": 69,
      "hit": false,
      "t": 4727.267999999999,
      "d": 127.27260000000024,
      "v": 100
    },
    {
      "midi": 64,
      "hit": false,
      "t": 4727.267999999999,
      "d": 163.63619999999992,
      "v": 100
    },
    {
      "midi": 72,
      "hit": false,
      "t": 4909.085999999999,
      "d": 163.63619999999992,
      "v": 100
    },
    {
      "midi": 67,
      "hit": false,
      "t": 4909.085999999999,
      "d": 163.63619999999992,
      "v": 100
    },
    {
      "midi": 60,
      "hit": false,
      "t": 4909.085999999999,
      "d": 490.90860000000066,
      "v": 100
    },
    {
      "midi": 36,
      "hit": false,
      "t": 4909.085999999999,
      "d": 490.90860000000066,
      "v": 100
    },
    {
      "midi": 46,
      "hit": false,
      "t": 4909.085999999999,
      "d": 490.90860000000066,
      "v": 100
    },
    {
      "midi": 69,
      "hit": false,
      "t": 5090.9039999999995,
      "d": 163.63619999999992,
      "v": 100
    },
    {
      "midi": 64,
      "hit": false,
      "t": 5090.9039999999995,
      "d": 163.63619999999992,
      "v": 100
    },
    {
      "midi": 67,
      "hit": false,
      "t": 5272.722,
      "d": 127.27260000000024,
      "v": 100
    },
    {
      "midi": 72,
      "hit": false,
      "t": 5272.722,
      "d": 163.63619999999992,
      "v": 100
    },
    {
      "midi": 74,
      "hit": false,
      "t": 5454.54,
      "d": 163.63619999999992,
      "v": 100
    },
    {
      "midi": 69,
      "hit": false,
      "t": 5454.54,
      "d": 163.63619999999992,
      "v": 100
    },
    {
      "midi": 62,
      "hit": false,
      "t": 5454.54,
      "d": 490.90860000000066,
      "v": 100
    },
    {
      "midi": 38,
      "hit": false,
      "t": 5454.54,
      "d": 490.90860000000066,
      "v": 100
    },
    {
      "midi": 49,
      "hit": false,
      "t": 5454.54,
      "d": 490.90860000000066,
      "v": 100
    },
    {
      "midi": 72,
      "hit": false,
      "t": 5636.358,
      "d": 163.63619999999992,
      "v": 100
    },
    {
      "midi": 67,
      "hit": false,
      "t": 5636.358,
      "d": 163.63619999999992,
      "v": 100
    },
    {
      "midi": 69,
      "hit": false,
      "t": 5818.176,
      "d": 127.27260000000024,
      "v": 100
    },
    {
      "midi": 74,
      "hit": false,
      "t": 5818.176,
      "d": 163.63619999999992,
      "v": 100
    },
    {
      "midi": 76,
      "hit": false,
      "t": 5999.994000000001,
      "d": 163.63619999999992,
      "v": 100
    },
    {
      "midi": 71,
      "hit": false,
      "t": 5999.994000000001,
      "d": 163.63619999999992,
      "v": 100
    },
    {
      "midi": 36,
      "hit": false,
      "t": 5999.994000000001,
      "d": 327.27239999999983,
      "v": 100
    },
    {
      "midi": 60,
      "hit": false,
      "t": 5999.994000000001,
      "d": 490.90860000000066,
      "v": 100
    },
    {
      "midi": 67,
      "hit": false,
      "t": 5999.994000000001,
      "d": 490.90860000000066,
      "v": 100
    },
    {
      "midi": 46,
      "hit": false,
      "t": 5999.994000000001,
      "d": 490.90860000000066,
      "v": 100
    },
    {
      "midi": 74,
      "hit": false,
      "t": 6181.812000000001,
      "d": 163.63619999999992,
      "v": 100
    },
    {
      "midi": 69,
      "hit": false,
      "t": 6181.812000000001,
      "d": 163.63619999999992,
      "v": 100
    },
    {
      "midi": 76,
      "hit": false,
      "t": 6363.630000000001,
      "d": 163.63619999999992,
      "v": 100
    },
    {
      "midi": 71,
      "hit": false,
      "t": 6363.630000000001,
      "d": 163.63619999999992,
      "v": 100
    },
    {
      "midi": 59,
      "hit": false,
      "t": 6545.448000000001,
      "d": 163.63619999999992,
      "v": 100
    },
    {
      "midi": 79,
      "hit": false,
      "t": 6545.448000000001,
      "d": 163.63619999999992,
      "v": 100
    },
    {
      "midi": 74,
      "hit": false,
      "t": 6545.448000000001,
      "d": 163.63619999999992,
      "v": 100
    },
    {
      "midi": 64,
      "hit": false,
      "t": 6545.448000000001,
      "d": 327.27239999999983,
      "v": 100
    },
    {
      "midi": 38,
      "hit": false,
      "t": 6545.448000000001,
      "d": 327.27239999999983,
      "v": 100
    },
    {
      "midi": 46,
      "hit": false,
      "t": 6545.448000000001,
      "d": 327.27239999999983,
      "v": 100
    },
    {
      "midi": 76,
      "hit": false,
      "t": 6727.266000000001,
      "d": 163.63619999999992,
      "v": 100
    },
    {
      "midi": 71,
      "hit": false,
      "t": 6727.266000000001,
      "d": 163.63619999999992,
      "v": 100
    },
    {
      "midi": 59,
      "hit": false,
      "t": 6909.084000000002,
      "d": 163.63619999999992,
      "v": 100
    },
    {
      "midi": 74,
      "hit": false,
      "t": 6909.084000000002,
      "d": 163.63619999999992,
      "v": 100
    },
    {
      "midi": 69,
      "hit": false,
      "t": 6909.084000000002,
      "d": 163.63619999999992,
      "v": 100
    },
    {
      "midi": 64,
      "hit": false,
      "t": 6909.084000000002,
      "d": 327.27239999999983,
      "v": 100
    },
    {
      "midi": 40,
      "hit": false,
      "t": 6909.084000000002,
      "d": 327.27239999999983,
      "v": 100
    },
    {
      "midi": 46,
      "hit": false,
      "t": 6909.084000000002,
      "d": 327.27239999999983,
      "v": 100
    },
    {
      "midi": 71,
      "hit": false,
      "t": 7090.902000000002,
      "d": 163.63619999999992,
      "v": 100
    },
    {
      "midi": 76,
      "hit": false,
      "t": 7090.902000000002,
      "d": 163.63619999999992,
      "v": 100
    },
    {
      "midi": 35,
      "hit": false,
      "t": 7272.720000000002,
      "d": 163.63619999999992,
      "v": 100
    },
    {
      "midi": 41,
      "hit": false,
      "t": 7272.720000000002,
      "d": 490.90859999999975,
      "v": 100
    },
    {
      "midi": 65,
      "hit": false,
      "t": 7272.720000000002,
      "d": 1309.089600000002,
      "v": 100
    },
    {
      "midi": 60,
      "hit": false,
      "t": 7272.720000000002,
      "d": 1309.089600000002,
      "v": 100
    },
    {
      "midi": 77,
      "hit": false,
      "t": 7272.720000000002,
      "d": 1309.089600000002,
      "v": 100
    },
    {
      "midi": 49,
      "hit": false,
      "t": 7272.720000000002,
      "d": 1309.089600000002,
      "v": 100
    },
    {
      "midi": 41,
      "hit": false,
      "t": 7818.174000000002,
      "d": 163.63619999999992,
      "v": 100
    },
    {
      "midi": 35,
      "hit": false,
      "t": 7818.174000000002,
      "d": 163.63619999999992,
      "v": 100
    },
    {
      "midi": 35,
      "hit": false,
      "t": 7999.992000000002,
      "d": 163.63619999999992,
      "v": 100
    },
    {
      "midi": 41,
      "hit": false,
      "t": 7999.992000000002,
      "d": 327.27239999999983,
      "v": 100
    },
    {
      "midi": 38,
      "hit": false,
      "t": 8363.628000000002,
      "d": 163.63620000000083,
      "v": 100
    },
    {
      "midi": 36,
      "hit": false,
      "t": 8545.446000000004,
      "d": 163.63620000000083,
      "v": 100
    },
    {
      "midi": 77,
      "hit": false,
      "t": 8727.264000000005,
      "d": 163.63620000000083,
      "v": 100
    },
    {
      "midi": 72,
      "hit": false,
      "t": 8727.264000000005,
      "d": 163.63620000000083,
      "v": 100
    },
    {
      "midi": 35,
      "hit": false,
      "t": 8727.264000000005,
      "d": 163.63620000000083,
      "v": 100
    },
    {
      "midi": 41,
      "hit": false,
      "t": 8727.264000000005,
      "d": 490.9086000000025,
      "v": 100
    },
    {
      "midi": 74,
      "hit": false,
      "t": 8909.082000000006,
      "d": 163.63620000000083,
      "v": 100
    },
    {
      "midi": 69,
      "hit": false,
      "t": 8909.082000000006,
      "d": 163.63620000000083,
      "v": 100
    },
    {
      "midi": 72,
      "hit": false,
      "t": 9090.900000000007,
      "d": 163.63620000000083,
      "v": 100
    },
    {
      "midi": 67,
      "hit": false,
      "t": 9090.900000000007,
      "d": 163.63620000000083,
      "v": 100
    },
    {
      "midi": 69,
      "hit": false,
      "t": 9272.718000000008,
      "d": 163.63620000000083,
      "v": 100
    },
    {
      "midi": 64,
      "hit": false,
      "t": 9272.718000000008,
      "d": 163.63620000000083,
      "v": 100
    },
    {
      "midi": 41,
      "hit": false,
      "t": 9272.718000000008,
      "d": 163.63620000000083,
      "v": 100
    },
    {
      "midi": 35,
      "hit": false,
      "t": 9272.718000000008,
      "d": 163.63620000000083,
      "v": 100
    },
    {
      "midi": 67,
      "hit": false,
      "t": 9454.53600000001,
      "d": 163.63620000000083,
      "v": 100
    },
    {
      "midi": 62,
      "hit": false,
      "t": 9454.53600000001,
      "d": 163.63620000000083,
      "v": 100
    },
    {
      "midi": 35,
      "hit": false,
      "t": 9454.53600000001,
      "d": 163.63620000000083,
      "v": 100
    },
    {
      "midi": 41,
      "hit": false,
      "t": 9454.53600000001,
      "d": 490.9086000000025,
      "v": 100
    },
    {
      "midi": 65,
      "hit": false,
      "t": 9636.35400000001,
      "d": 163.63620000000083,
      "v": 100
    },
    {
      "midi": 60,
      "hit": false,
      "t": 9636.35400000001,
      "d": 163.63620000000083,
      "v": 100
    },
    {
      "midi": 62,
      "hit": false,
      "t": 9818.172000000011,
      "d": 163.63620000000083,
      "v": 100
    },
    {
      "midi": 57,
      "hit": false,
      "t": 9818.172000000011,
      "d": 163.63620000000083,
      "v": 100
    },
    {
      "midi": 60,
      "hit": false,
      "t": 9999.990000000013,
      "d": 163.63620000000083,
      "v": 100
    },
    {
      "midi": 55,
      "hit": false,
      "t": 9999.990000000013,
      "d": 163.63620000000083,
      "v": 100
    },
    {
      "midi": 35,
      "hit": false,
      "t": 10181.808000000014,
      "d": 163.63620000000083,
      "v": 100
    },
    {
      "midi": 65,
      "hit": false,
      "t": 10181.808000000014,
      "d": 327.27240000000165,
      "v": 100
    },
    {
      "midi": 41,
      "hit": false,
      "t": 10181.808000000014,
      "d": 490.9086000000025,
      "v": 100
    },
    {
      "midi": 49,
      "hit": false,
      "t": 10181.808000000014,
      "d": 654.5448000000015,
      "v": 100
    },
    {
      "midi": 57,
      "hit": false,
      "t": 10181.808000000014,
      "d": 1309.0896000000048,
      "v": 100
    },
    {
      "midi": 69,
      "hit": false,
      "t": 10363.626000000015,
      "d": 163.63620000000083,
      "v": 100
    },
    {
      "midi": 65,
      "hit": false,
      "t": 10545.444000000016,
      "d": 81.81810000000041,
      "v": 100
    },
    {
      "midi": 67,
      "hit": false,
      "t": 10545.444000000016,
      "d": 327.272399999998,
      "v": 100
    },
    {
      "midi": 40,
      "hit": false,
      "t": 10545.444000000016,
      "d": 327.272399999998,
      "v": 100
    },
    {
      "midi": 65,
      "hit": false,
      "t": 10727.262000000015,
      "d": 81.81810000000041,
      "v": 100
    },
    {
      "midi": 41,
      "hit": false,
      "t": 10727.262000000015,
      "d": 163.636199999999,
      "v": 100
    },
    {
      "midi": 35,
      "hit": false,
      "t": 10727.262000000015,
      "d": 163.636199999999,
      "v": 100
    },
    {
      "midi": 69,
      "hit": false,
      "t": 10909.080000000014,
      "d": 163.63620000000083,
      "v": 100
    },
    {
      "midi": 35,
      "hit": false,
      "t": 10909.080000000014,
      "d": 163.63620000000083,
      "v": 100
    },
    {
      "midi": 62,
      "hit": false,
      "t": 10909.080000000014,
      "d": 327.27240000000165,
      "v": 100
    },
    {
      "midi": 41,
      "hit": false,
      "t": 10909.080000000014,
      "d": 327.27240000000165,
      "v": 100
    },
    {
      "midi": 65,
      "hit": false,
      "t": 11272.716000000017,
      "d": 81.81810000000041,
      "v": 100
    },
    {
      "midi": 60,
      "hit": false,
      "t": 11272.716000000017,
      "d": 163.63620000000083,
      "v": 100
    },
    {
      "midi": 38,
      "hit": false,
      "t": 11272.716000000017,
      "d": 163.63620000000083,
      "v": 100
    },
    {
      "midi": 40,
      "hit": false,
      "t": 11272.716000000017,
      "d": 327.27240000000165,
      "v": 100
    },
    {
      "midi": 62,
      "hit": false,
      "t": 11454.534000000018,
      "d": 163.63620000000083,
      "v": 100
    },
    {
      "midi": 36,
      "hit": false,
      "t": 11454.534000000018,
      "d": 163.63620000000083,
      "v": 100
    },
    {
      "midi": 65,
      "hit": false,
      "t": 11636.352000000019,
      "d": 163.63620000000083,
      "v": 100
    },
    {
      "midi": 41,
      "hit": false,
      "t": 11636.352000000019,
      "d": 163.63620000000083,
      "v": 100
    },
    {
      "midi": 35,
      "hit": false,
      "t": 11636.352000000019,
      "d": 163.63620000000083,
      "v": 100
    },
    {
      "midi": 65,
      "hit": false,
      "t": 11818.17000000002,
      "d": 163.63620000000083,
      "v": 100
    },
    {
      "midi": 69,
      "hit": false,
      "t": 11818.17000000002,
      "d": 163.63620000000083,
      "v": 100
    },
    {
      "midi": 41,
      "hit": false,
      "t": 11818.17000000002,
      "d": 327.27240000000165,
      "v": 100
    },
    {
      "midi": 65,
      "hit": false,
      "t": 11999.988000000021,
      "d": 81.81810000000041,
      "v": 100
    },
    {
      "midi": 40,
      "hit": false,
      "t": 11999.988000000021,
      "d": 327.27240000000165,
      "v": 100
    },
    {
      "midi": 65,
      "hit": false,
      "t": 12181.806000000022,
      "d": 81.81810000000041,
      "v": 100
    },
    {
      "midi": 67,
      "hit": false,
      "t": 12181.806000000022,
      "d": 163.63620000000083,
      "v": 100
    },
    {
      "midi": 36,
      "hit": false,
      "t": 12181.806000000022,
      "d": 163.63620000000083,
      "v": 100
    },
    {
      "midi": 35,
      "hit": false,
      "t": 12181.806000000022,
      "d": 163.63620000000083,
      "v": 100
    },
    {
      "midi": 41,
      "hit": false,
      "t": 12363.624000000023,
      "d": 163.63620000000083,
      "v": 100
    },
    {
      "midi": 69,
      "hit": false,
      "t": 12363.624000000023,
      "d": 163.63620000000083,
      "v": 100
    },
    {
      "midi": 35,
      "hit": false,
      "t": 12363.624000000023,
      "d": 163.63620000000083,
      "v": 100
    },
    {
      "midi": 62,
      "hit": false,
      "t": 12363.624000000023,
      "d": 654.5448000000015,
      "v": 100
    },
    {
      "midi": 28,
      "hit": false,
      "t": 12545.442000000025,
      "d": 81.81810000000041,
      "v": 100
    },
    {
      "midi": 28,
      "hit": false,
      "t": 12636.351000000024,
      "d": 81.81810000000041,
      "v": 100
    },
    {
      "midi": 65,
      "hit": false,
      "t": 12727.260000000024,
      "d": 81.81810000000041,
      "v": 100
    },
    {
      "midi": 77,
      "hit": false,
      "t": 12727.260000000024,
      "d": 163.63620000000083,
      "v": 100
    },
    {
      "midi": 36,
      "hit": false,
      "t": 12727.260000000024,
      "d": 327.27240000000165,
      "v": 100
    },
    {
      "midi": 40,
      "hit": false,
      "t": 12727.260000000024,
      "d": 327.27240000000165,
      "v": 100
    },
    {
      "midi": 28,
      "hit": false,
      "t": 12727.260000000024,
      "d": 327.27240000000165,
      "v": 100
    },
    {
      "midi": 77,
      "hit": false,
      "t": 12909.078000000025,
      "d": 163.63620000000083,
      "v": 100
    },
    {
      "midi": 35,
      "hit": false,
      "t": 13090.896000000026,
      "d": 163.63620000000083,
      "v": 100
    },
    {
      "midi": 65,
      "hit": false,
      "t": 13090.896000000026,
      "d": 327.27240000000165,
      "v": 100
    },
    {
      "midi": 38,
      "hit": false,
      "t": 13090.896000000026,
      "d": 490.9086000000025,
      "v": 100
    },
    {
      "midi": 57,
      "hit": false,
      "t": 13090.896000000026,
      "d": 1309.0896000000084,
      "v": 100
    },
    {
      "midi": 69,
      "hit": false,
      "t": 13272.714000000027,
      "d": 163.63620000000083,
      "v": 100
    },
    {
      "midi": 62,
      "hit": false,
      "t": 13454.532000000028,
      "d": 81.81810000000041,
      "v": 100
    },
    {
      "midi": 67,
      "hit": false,
      "t": 13454.532000000028,
      "d": 327.27240000000165,
      "v": 100
    },
    {
      "midi": 40,
      "hit": false,
      "t": 13454.532000000028,
      "d": 327.27240000000165,
      "v": 100
    },
    {
      "midi": 62,
      "hit": false,
      "t": 13636.35000000003,
      "d": 81.81810000000041,
      "v": 100
    },
    {
      "midi": 38,
      "hit": false,
      "t": 13636.35000000003,
      "d": 163.63620000000083,
      "v": 100
    },
    {
      "midi": 35,
      "hit": false,
      "t": 13636.35000000003,
      "d": 163.63620000000083,
      "v": 100
    },
    {
      "midi": 69,
      "hit": false,
      "t": 13818.16800000003,
      "d": 163.63620000000083,
      "v": 100
    },
    {
      "midi": 35,
      "hit": false,
      "t": 13818.16800000003,
      "d": 163.63620000000083,
      "v": 100
    },
    {
      "midi": 62,
      "hit": false,
      "t": 13818.16800000003,
      "d": 327.27240000000165,
      "v": 100
    },
    {
      "midi": 38,
      "hit": false,
      "t": 13818.16800000003,
      "d": 327.27240000000165,
      "v": 100
    },
    {
      "midi": 62,
      "hit": false,
      "t": 14181.804000000033,
      "d": 81.81810000000041,
      "v": 100
    },
    {
      "midi": 60,
      "hit": false,
      "t": 14181.804000000033,
      "d": 163.63620000000083,
      "v": 100
    },
    {
      "midi": 36,
      "hit": false,
      "t": 14181.804000000033,
      "d": 163.63620000000083,
      "v": 100
    },
    {
      "midi": 40,
      "hit": false,
      "t": 14181.804000000033,
      "d": 327.27240000000165,
      "v": 100
    },
    {
      "midi": 62,
      "hit": false,
      "t": 14363.622000000034,
      "d": 36.36360000000059,
      "v": 100
    },
    {
      "midi": 33,
      "hit": false,
      "t": 14363.622000000034,
      "d": 163.63620000000083,
      "v": 100
    },
    {
      "midi": 65,
      "hit": false,
      "t": 14545.440000000035,
      "d": 163.63620000000083,
      "v": 100
    },
    {
      "midi": 38,
      "hit": false,
      "t": 14545.440000000035,
      "d": 163.63620000000083,
      "v": 100
    },
    {
      "midi": 35,
      "hit": false,
      "t": 14545.440000000035,
      "d": 163.63620000000083,
      "v": 100
    },
    {
      "midi": 65,
      "hit": false,
      "t": 14727.258000000036,
      "d": 163.63620000000083,
      "v": 100
    },
    {
      "midi": 69,
      "hit": false,
      "t": 14727.258000000036,
      "d": 312.87847500000134,
      "v": 100
    },
    {
      "midi": 38,
      "hit": false,
      "t": 14727.258000000036,
      "d": 327.27240000000165,
      "v": 100
    },
    {
      "midi": 62,
      "hit": false,
      "t": 14909.076000000037,
      "d": 81.81810000000041,
      "v": 100
    },
    {
      "midi": 65,
      "hit": false,
      "t": 14909.076000000037,
      "d": 163.63620000000083,
      "v": 100
    },
    {
      "midi": 40,
      "hit": false,
      "t": 14909.076000000037,
      "d": 327.27240000000165,
      "v": 100
    },
    {
      "midi": 62,
      "hit": false,
      "t": 15090.894000000038,
      "d": 81.81810000000041,
      "v": 100
    },
    {
      "midi": 67,
      "hit": false,
      "t": 15090.894000000038,
      "d": 163.63620000000083,
      "v": 100
    },
    {
      "midi": 33,
      "hit": false,
      "t": 15090.894000000038,
      "d": 163.63620000000083,
      "v": 100
    },
    {
      "midi": 35,
      "hit": false,
      "t": 15090.894000000038,
      "d": 163.63620000000083,
      "v": 100
    },
    {
      "midi": 38,
      "hit": false,
      "t": 15272.71200000004,
      "d": 163.63620000000083,
      "v": 100
    },
    {
      "midi": 69,
      "hit": false,
      "t": 15272.71200000004,
      "d": 163.63620000000083,
      "v": 100
    },
    {
      "midi": 35,
      "hit": false,
      "t": 15272.71200000004,
      "d": 163.63620000000083,
      "v": 100
    },
    {
      "midi": 39,
      "hit": false,
      "t": 15454.53000000004,
      "d": 163.63620000000083,
      "v": 100
    },
    {
      "midi": 62,
      "hit": false,
      "t": 15636.348000000042,
      "d": 81.81810000000041,
      "v": 100
    },
    {
      "midi": 77,
      "hit": false,
      "t": 15636.348000000042,
      "d": 163.63620000000083,
      "v": 100
    },
    {
      "midi": 33,
      "hit": false,
      "t": 15636.348000000042,
      "d": 327.27240000000165,
      "v": 100
    },
    {
      "midi": 40,
      "hit": false,
      "t": 15636.348000000042,
      "d": 327.27240000000165,
      "v": 100
    },
    {
      "midi": 39,
      "hit": false,
      "t": 15636.348000000042,
      "d": 327.27240000000165,
      "v": 100
    },
    {
      "midi": 77,
      "hit": false,
      "t": 15818.166000000043,
      "d": 163.63620000000083,
      "v": 100
    },
    {
      "midi": 35,
      "hit": false,
      "t": 15999.984000000044,
      "d": 163.636199999999,
      "v": 100
    },
    {
      "midi": 65,
      "hit": false,
      "t": 15999.984000000044,
      "d": 327.272399999998,
      "v": 100
    },
    {
      "midi": 34,
      "hit": false,
      "t": 15999.984000000044,
      "d": 490.90859999999884,
      "v": 100
    },
    {
      "midi": 58,
      "hit": false,
      "t": 15999.984000000044,
      "d": 1309.0895999999957,
      "v": 100
    },
    {
      "midi": 69,
      "hit": false,
      "t": 16181.802000000043,
      "d": 163.636199999999,
      "v": 100
    },
    {
      "midi": 65,
      "hit": false,
      "t": 16363.620000000043,
      "d": 81.81810000000041,
      "v": 100
    },
    {
      "midi": 67,
      "hit": false,
      "t": 16363.620000000043,
      "d": 327.272399999998,
      "v": 100
    },
    {
      "midi": 40,
      "hit": false,
      "t": 16363.620000000043,
      "d": 474.241949999996,
      "v": 100
    },
    {
      "midi": 65,
      "hit": false,
      "t": 16545.438000000042,
      "d": 81.81810000000041,
      "v": 100
    },
    {
      "midi": 34,
      "hit": false,
      "t": 16545.438000000042,
      "d": 163.6361999999972,
      "v": 100
    },
    {
      "midi": 35,
      "hit": false,
      "t": 16545.438000000042,
      "d": 163.6361999999972,
      "v": 100
    },
    {
      "midi": 69,
      "hit": false,
      "t": 16727.256000000038,
      "d": 163.63620000000083,
      "v": 100
    },
    {
      "midi": 35,
      "hit": false,
      "t": 16727.256000000038,
      "d": 163.63620000000083,
      "v": 100
    },
    {
      "midi": 62,
      "hit": false,
      "t": 16727.256000000038,
      "d": 327.27240000000165,
      "v": 100
    },
    {
      "midi": 34,
      "hit": false,
      "t": 16727.256000000038,
      "d": 327.27240000000165,
      "v": 100
    },
    {
      "midi": 65,
      "hit": false,
      "t": 17090.89200000004,
      "d": 81.81810000000041,
      "v": 100
    },
    {
      "midi": 33,
      "hit": false,
      "t": 17090.89200000004,
      "d": 163.63620000000083,
      "v": 100
    },
    {
      "midi": 40,
      "hit": false,
      "t": 17090.89200000004,
      "d": 327.27240000000165,
      "v": 100
    },
    {
      "midi": 67,
      "hit": false,
      "t": 17272.71000000004,
      "d": 163.63620000000083,
      "v": 100
    },
    {
      "midi": 31,
      "hit": false,
      "t": 17272.71000000004,
      "d": 163.63620000000083,
      "v": 100
    },
    {
      "midi": 36,
      "hit": false,
      "t": 17454.52800000004,
      "d": 163.63620000000083,
      "v": 100
    },
    {
      "midi": 35,
      "hit": false,
      "t": 17454.52800000004,
      "d": 163.63620000000083,
      "v": 100
    },
    {
      "midi": 72,
      "hit": false,
      "t": 17454.52800000004,
      "d": 327.272399999998,
      "v": 100
    },
    {
      "midi": 58,
      "hit": false,
      "t": 17454.52800000004,
      "d": 1309.0895999999957,
      "v": 100
    },
    {
      "midi": 36,
      "hit": false,
      "t": 17636.346000000038,
      "d": 163.6361999999972,
      "v": 100
    },
    {
      "midi": 69,
      "hit": false,
      "t": 17636.346000000038,
      "d": 163.6361999999972,
      "v": 100
    },
    {
      "midi": 65,
      "hit": false,
      "t": 17818.164000000033,
      "d": 81.81810000000041,
      "v": 100
    },
    {
      "midi": 69,
      "hit": false,
      "t": 17818.164000000033,
      "d": 163.63620000000083,
      "v": 100
    },
    {
      "midi": 40,
      "hit": false,
      "t": 17818.164000000033,
      "d": 571.21155,
      "v": 100
    },
    {
      "midi": 65,
      "hit": false,
      "t": 17999.982000000033,
      "d": 81.81810000000041,
      "v": 100
    },
    {
      "midi": 67,
      "hit": false,
      "t": 17999.982000000033,
      "d": 163.63620000000083,
      "v": 100
    },
    {
      "midi": 36,
      "hit": false,
      "t": 17999.982000000033,
      "d": 163.63620000000083,
      "v": 100
    },
    {
      "midi": 35,
      "hit": false,
      "t": 17999.982000000033,
      "d": 163.63620000000083,
      "v": 100
    },
    {
      "midi": 69,
      "hit": false,
      "t": 18181.800000000032,
      "d": 163.63620000000083,
      "v": 100
    },
    {
      "midi": 35,
      "hit": false,
      "t": 18181.800000000032,
      "d": 163.63620000000083,
      "v": 100
    },
    {
      "midi": 65,
      "hit": false,
      "t": 18181.800000000032,
      "d": 327.27240000000165,
      "v": 100
    },
    {
      "midi": 36,
      "hit": false,
      "t": 18181.800000000032,
      "d": 327.27240000000165,
      "v": 100
    },
    {
      "midi": 65,
      "hit": false,
      "t": 18545.436000000034,
      "d": 81.81810000000041,
      "v": 100
    },
    {
      "midi": 77,
      "hit": false,
      "t": 18545.436000000034,
      "d": 163.63620000000083,
      "v": 100
    },
    {
      "midi": 62,
      "hit": false,
      "t": 18545.436000000034,
      "d": 218.1815999999999,
      "v": 100
    },
    {
      "midi": 38,
      "hit": false,
      "t": 18545.436000000034,
      "d": 327.27240000000165,
      "v": 100
    },
    {
      "midi": 40,
      "hit": false,
      "t": 18545.436000000034,
      "d": 327.27240000000165,
      "v": 100
    },
    {
      "midi": 77,
      "hit": false,
      "t": 18727.254000000034,
      "d": 163.63620000000083,
      "v": 100
    },
    {
      "midi": 35,
      "hit": false,
      "t": 18909.072000000033,
      "d": 163.63620000000083,
      "v": 100
    },
    {
      "midi": 41,
      "hit": false,
      "t": 18909.072000000033,
      "d": 490.90859999999884,
      "v": 100
    },
    {
      "midi": 60,
      "hit": false,
      "t": 18909.072000000033,
      "d": 1309.0895999999957,
      "v": 100
    },
    {
      "midi": 57,
      "hit": false,
      "t": 18909.072000000033,
      "d": 1309.0895999999957,
      "v": 100
    },
    {
      "midi": 69,
      "hit": false,
      "t": 19090.890000000032,
      "d": 163.63620000000083,
      "v": 100
    },
    {
      "midi": 65,
      "hit": false,
      "t": 19272.70800000003,
      "d": 81.81810000000041,
      "v": 100
    },
    {
      "midi": 40,
      "hit": false,
      "t": 19272.70800000003,
      "d": 327.272399999998,
      "v": 100
    },
    {
      "midi": 65,
      "hit": false,
      "t": 19454.52600000003,
      "d": 81.81810000000041,
      "v": 100
    },
    {
      "midi": 41,
      "hit": false,
      "t": 19454.52600000003,
      "d": 163.6361999999972,
      "v": 100
    },
    {
      "midi": 35,
      "hit": false,
      "t": 19454.52600000003,
      "d": 163.6361999999972,
      "v": 100
    },
    {
      "midi": 69,
      "hit": false,
      "t": 19636.344000000026,
      "d": 163.63620000000083,
      "v": 100
    },
    {
      "midi": 35,
      "hit": false,
      "t": 19636.344000000026,
      "d": 163.63620000000083,
      "v": 100
    },
    {
      "midi": 41,
      "hit": false,
      "t": 19636.344000000026,
      "d": 327.27240000000165,
      "v": 100
    },
    {
      "midi": 65,
      "hit": false,
      "t": 19999.98000000003,
      "d": 81.81810000000041,
      "v": 100
    },
    {
      "midi": 38,
      "hit": false,
      "t": 19999.98000000003,
      "d": 163.63620000000083,
      "v": 100
    },
    {
      "midi": 40,
      "hit": false,
      "t": 19999.98000000003,
      "d": 327.272399999998,
      "v": 100
    },
    {
      "midi": 65,
      "hit": false,
      "t": 20181.798000000028,
      "d": 81.81810000000041,
      "v": 100
    },
    {
      "midi": 36,
      "hit": false,
      "t": 20181.798000000028,
      "d": 163.6361999999972,
      "v": 100
    },
    {
      "midi": 69,
      "hit": false,
      "t": 20363.616000000024,
      "d": 163.63620000000083,
      "v": 100
    },
    {
      "midi": 64,
      "hit": false,
      "t": 20363.616000000024,
      "d": 163.63620000000083,
      "v": 100
    },
    {
      "midi": 38,
      "hit": false,
      "t": 20363.616000000024,
      "d": 163.63620000000083,
      "v": 100
    },
    {
      "midi": 35,
      "hit": false,
      "t": 20363.616000000024,
      "d": 163.63620000000083,
      "v": 100
    },
    {
      "midi": 67,
      "hit": false,
      "t": 20545.434000000023,
      "d": 163.63620000000083,
      "v": 100
    },
    {
      "midi": 62,
      "hit": false,
      "t": 20545.434000000023,
      "d": 163.63620000000083,
      "v": 100
    },
    {
      "midi": 69,
      "hit": false,
      "t": 20545.434000000023,
      "d": 163.63620000000083,
      "v": 100
    },
    {
      "midi": 38,
      "hit": false,
      "t": 20545.434000000023,
      "d": 327.272399999998,
      "v": 100
    },
    {
      "midi": 65,
      "hit": false,
      "t": 20727.252000000022,
      "d": 81.81810000000041,
      "v": 100
    },
    {
      "midi": 69,
      "hit": false,
      "t": 20727.252000000022,
      "d": 163.6361999999972,
      "v": 100
    },
    {
      "midi": 64,
      "hit": false,
      "t": 20727.252000000022,
      "d": 163.6361999999972,
      "v": 100
    },
    {
      "midi": 40,
      "hit": false,
      "t": 20727.252000000022,
      "d": 327.2723999999944,
      "v": 100
    },
    {
      "midi": 65,
      "hit": false,
      "t": 20909.070000000018,
      "d": 81.81810000000041,
      "v": 100
    },
    {
      "midi": 72,
      "hit": false,
      "t": 20909.070000000018,
      "d": 163.6361999999972,
      "v": 100
    },
    {
      "midi": 67,
      "hit": false,
      "t": 20909.070000000018,
      "d": 163.6361999999972,
      "v": 100
    },
    {
      "midi": 43,
      "hit": false,
      "t": 20909.070000000018,
      "d": 163.6361999999972,
      "v": 100
    },
    {
      "midi": 35,
      "hit": false,
      "t": 20909.070000000018,
      "d": 163.6361999999972,
      "v": 100
    },
    {
      "midi": 69,
      "hit": false,
      "t": 21090.888000000014,
      "d": 163.63620000000083,
      "v": 100
    },
    {
      "midi": 35,
      "hit": false,
      "t": 21090.888000000014,
      "d": 163.63620000000083,
      "v": 100
    },
    {
      "midi": 64,
      "hit": false,
      "t": 21090.888000000014,
      "d": 327.272399999998,
      "v": 100
    },
    {
      "midi": 38,
      "hit": false,
      "t": 21090.888000000014,
      "d": 327.272399999998,
      "v": 100
    },
    {
      "midi": 40,
      "hit": false,
      "t": 21272.706000000013,
      "d": 163.6361999999972,
      "v": 100
    },
    {
      "midi": 60,
      "hit": false,
      "t": 21454.52400000001,
      "d": 81.81810000000041,
      "v": 100
    },
    {
      "midi": 40,
      "hit": false,
      "t": 21454.52400000001,
      "d": 163.63620000000083,
      "v": 100
    },
    {
      "midi": 77,
      "hit": false,
      "t": 21454.52400000001,
      "d": 163.63620000000083,
      "v": 100
    },
    {
      "midi": 67,
      "hit": false,
      "t": 21454.52400000001,
      "d": 327.272399999998,
      "v": 100
    },
    {
      "midi": 62,
      "hit": false,
      "t": 21454.52400000001,
      "d": 327.272399999998,
      "v": 100
    },
    {
      "midi": 36,
      "hit": false,
      "t": 21454.52400000001,
      "d": 327.272399999998,
      "v": 100
    },
    {
      "midi": 77,
      "hit": false,
      "t": 21636.342000000008,
      "d": 163.6361999999972,
      "v": 100
    },
    {
      "midi": 35,
      "hit": false,
      "t": 21818.160000000003,
      "d": 163.63620000000083,
      "v": 100
    },
    {
      "midi": 65,
      "hit": false,
      "t": 21818.160000000003,
      "d": 327.272399999998,
      "v": 100
    },
    {
      "midi": 41,
      "hit": false,
      "t": 21818.160000000003,
      "d": 490.9085999999952,
      "v": 100
    },
    {
      "midi": 49,
      "hit": false,
      "t": 21818.160000000003,
      "d": 654.544799999996,
      "v": 100
    },
    {
      "midi": 57,
      "hit": false,
      "t": 21818.160000000003,
      "d": 1309.0895999999957,
      "v": 100
    },
    {
      "midi": 69,
      "hit": false,
      "t": 21999.978000000003,
      "d": 163.6361999999972,
      "v": 100
    },
    {
      "midi": 65,
      "hit": false,
      "t": 22181.796,
      "d": 81.81810000000041,
      "v": 100
    },
    {
      "midi": 67,
      "hit": false,
      "t": 22181.796,
      "d": 327.27240000000165,
      "v": 100
    },
    {
      "midi": 40,
      "hit": false,
      "t": 22181.796,
      "d": 327.27240000000165,
      "v": 100
    },
    {
      "midi": 65,
      "hit": false,
      "t": 22363.613999999998,
      "d": 81.81810000000041,
      "v": 100
    },
    {
      "midi": 41,
      "hit": false,
      "t": 22363.613999999998,
      "d": 163.63620000000083,
      "v": 100
    },
    {
      "midi": 35,
      "hit": false,
      "t": 22363.613999999998,
      "d": 163.63620000000083,
      "v": 100
    },
    {
      "midi": 69,
      "hit": false,
      "t": 22545.431999999997,
      "d": 163.63620000000083,
      "v": 100
    },
    {
      "midi": 35,
      "hit": false,
      "t": 22545.431999999997,
      "d": 163.63620000000083,
      "v": 100
    },
    {
      "midi": 62,
      "hit": false,
      "t": 22545.431999999997,
      "d": 327.27240000000165,
      "v": 100
    },
    {
      "midi": 41,
      "hit": false,
      "t": 22545.431999999997,
      "d": 327.27240000000165,
      "v": 100
    },
    {
      "midi": 65,
      "hit": false,
      "t": 22909.068,
      "d": 81.81810000000041,
      "v": 100
    },
    {
      "midi": 60,
      "hit": false,
      "t": 22909.068,
      "d": 163.63620000000083,
      "v": 100
    },
    {
      "midi": 38,
      "hit": false,
      "t": 22909.068,
      "d": 163.63620000000083,
      "v": 100
    },
    {
      "midi": 40,
      "hit": false,
      "t": 22909.068,
      "d": 327.27240000000165,
      "v": 100
    },
    {
      "midi": 62,
      "hit": false,
      "t": 23090.886,
      "d": 163.63620000000083,
      "v": 100
    },
    {
      "midi": 36,
      "hit": false,
      "t": 23090.886,
      "d": 163.63620000000083,
      "v": 100
    },
    {
      "midi": 65,
      "hit": false,
      "t": 23272.703999999998,
      "d": 163.63620000000083,
      "v": 100
    },
    {
      "midi": 41,
      "hit": false,
      "t": 23272.703999999998,
      "d": 163.63620000000083,
      "v": 100
    },
    {
      "midi": 35,
      "hit": false,
      "t": 23272.703999999998,
      "d": 163.63620000000083,
      "v": 100
    },
    {
      "midi": 65,
      "hit": false,
      "t": 23454.521999999997,
      "d": 163.63620000000083,
      "v": 100
    },
    {
      "midi": 69,
      "hit": false,
      "t": 23454.521999999997,
      "d": 163.63620000000083,
      "v": 100
    },
    {
      "midi": 41,
      "hit": false,
      "t": 23454.521999999997,
      "d": 327.272399999998,
      "v": 100
    },
    {
      "midi": 65,
      "hit": false,
      "t": 23636.339999999997,
      "d": 81.81810000000041,
      "v": 100
    },
    {
      "midi": 40,
      "hit": false,
      "t": 23636.339999999997,
      "d": 327.2723999999944,
      "v": 100
    },
    {
      "midi": 65,
      "hit": false,
      "t": 23818.157999999992,
      "d": 81.81810000000041,
      "v": 100
    },
    {
      "midi": 67,
      "hit": false,
      "t": 23818.157999999992,
      "d": 163.6361999999972,
      "v": 100
    },
    {
      "midi": 36,
      "hit": false,
      "t": 23818.157999999992,
      "d": 163.6361999999972,
      "v": 100
    },
    {
      "midi": 35,
      "hit": false,
      "t": 23818.157999999992,
      "d": 163.6361999999972,
      "v": 100
    },
    {
      "midi": 41,
      "hit": false,
      "t": 23999.975999999988,
      "d": 163.63620000000083,
      "v": 100
    },
    {
      "midi": 69,
      "hit": false,
      "t": 23999.975999999988,
      "d": 163.63620000000083,
      "v": 100
    },
    {
      "midi": 35,
      "hit": false,
      "t": 23999.975999999988,
      "d": 163.63620000000083,
      "v": 100
    },
    {
      "midi": 62,
      "hit": false,
      "t": 23999.975999999988,
      "d": 654.5447999999997,
      "v": 100
    },
    {
      "midi": 28,
      "hit": false,
      "t": 24181.793999999987,
      "d": 81.81810000000041,
      "v": 100
    },
    {
      "midi": 28,
      "hit": false,
      "t": 24272.702999999987,
      "d": 81.81810000000041,
      "v": 100
    },
    {
      "midi": 65,
      "hit": false,
      "t": 24363.611999999986,
      "d": 81.81810000000041,
      "v": 100
    },
    {
      "midi": 77,
      "hit": false,
      "t": 24363.611999999986,
      "d": 163.63620000000083,
      "v": 100
    },
    {
      "midi": 36,
      "hit": false,
      "t": 24363.611999999986,
      "d": 327.27240000000165,
      "v": 100
    },
    {
      "midi": 40,
      "hit": false,
      "t": 24363.611999999986,
      "d": 327.27240000000165,
      "v": 100
    },
    {
      "midi": 28,
      "hit": false,
      "t": 24363.611999999986,
      "d": 327.27240000000165,
      "v": 100
    },
    {
      "midi": 35,
      "hit": false,
      "t": 24727.24799999999,
      "d": 163.63620000000083,
      "v": 100
    },
    {
      "midi": 65,
      "hit": false,
      "t": 24727.24799999999,
      "d": 327.272399999998,
      "v": 100
    },
    {
      "midi": 38,
      "hit": false,
      "t": 24727.24799999999,
      "d": 490.9085999999952,
      "v": 100
    },
    {
      "midi": 57,
      "hit": false,
      "t": 24727.24799999999,
      "d": 1309.089599999992,
      "v": 100
    },
    {
      "midi": 69,
      "hit": false,
      "t": 24909.065999999988,
      "d": 163.6361999999972,
      "v": 100
    },
    {
      "midi": 62,
      "hit": false,
      "t": 25090.883999999984,
      "d": 81.81810000000041,
      "v": 100
    },
    {
      "midi": 67,
      "hit": false,
      "t": 25090.883999999984,
      "d": 327.272399999998,
      "v": 100
    },
    {
      "midi": 40,
      "hit": false,
      "t": 25090.883999999984,
      "d": 327.272399999998,
      "v": 100
    },
    {
      "midi": 62,
      "hit": false,
      "t": 25272.701999999983,
      "d": 81.81810000000041,
      "v": 100
    },
    {
      "midi": 38,
      "hit": false,
      "t": 25272.701999999983,
      "d": 163.6361999999972,
      "v": 100
    },
    {
      "midi": 35,
      "hit": false,
      "t": 25272.701999999983,
      "d": 163.6361999999972,
      "v": 100
    },
    {
      "midi": 69,
      "hit": false,
      "t": 25454.51999999998,
      "d": 163.63620000000083,
      "v": 100
    },
    {
      "midi": 35,
      "hit": false,
      "t": 25454.51999999998,
      "d": 163.63620000000083,
      "v": 100
    },
    {
      "midi": 62,
      "hit": false,
      "t": 25454.51999999998,
      "d": 327.27240000000165,
      "v": 100
    },
    {
      "midi": 38,
      "hit": false,
      "t": 25454.51999999998,
      "d": 327.27240000000165,
      "v": 100
    },
    {
      "midi": 62,
      "hit": false,
      "t": 25818.15599999998,
      "d": 81.81810000000041,
      "v": 100
    },
    {
      "midi": 60,
      "hit": false,
      "t": 25818.15599999998,
      "d": 163.63620000000083,
      "v": 100
    },
    {
      "midi": 36,
      "hit": false,
      "t": 25818.15599999998,
      "d": 163.63620000000083,
      "v": 100
    },
    {
      "midi": 40,
      "hit": false,
      "t": 25818.15599999998,
      "d": 327.27240000000165,
      "v": 100
    },
    {
      "midi": 62,
      "hit": false,
      "t": 25999.97399999998,
      "d": 36.36360000000059,
      "v": 100
    },
    {
      "midi": 33,
      "hit": false,
      "t": 25999.97399999998,
      "d": 163.63620000000083,
      "v": 100
    },
    {
      "midi": 65,
      "hit": false,
      "t": 26181.79199999998,
      "d": 163.63620000000083,
      "v": 100
    },
    {
      "midi": 38,
      "hit": false,
      "t": 26181.79199999998,
      "d": 163.63620000000083,
      "v": 100
    },
    {
      "midi": 35,
      "hit": false,
      "t": 26181.79199999998,
      "d": 163.63620000000083,
      "v": 100
    },
    {
      "midi": 65,
      "hit": false,
      "t": 26363.60999999998,
      "d": 163.63620000000083,
      "v": 100
    },
    {
      "midi": 69,
      "hit": false,
      "t": 26363.60999999998,
      "d": 163.63620000000083,
      "v": 100
    },
    {
      "midi": 38,
      "hit": false,
      "t": 26363.60999999998,
      "d": 327.272399999998,
      "v": 100
    },
    {
      "midi": 62,
      "hit": false,
      "t": 26545.427999999978,
      "d": 81.81810000000041,
      "v": 100
    },
    {
      "midi": 65,
      "hit": false,
      "t": 26545.427999999978,
      "d": 163.6361999999972,
      "v": 100
    },
    {
      "midi": 40,
      "hit": false,
      "t": 26545.427999999978,
      "d": 327.2723999999944,
      "v": 100
    },
    {
      "midi": 62,
      "hit": false,
      "t": 26727.245999999974,
      "d": 81.81810000000041,
      "v": 100
    },
    {
      "midi": 67,
      "hit": false,
      "t": 26727.245999999974,
      "d": 163.6361999999972,
      "v": 100
    },
    {
      "midi": 33,
      "hit": false,
      "t": 26727.245999999974,
      "d": 163.6361999999972,
      "v": 100
    },
    {
      "midi": 35,
      "hit": false,
      "t": 26727.245999999974,
      "d": 163.6361999999972,
      "v": 100
    },
    {
      "midi": 38,
      "hit": false,
      "t": 26909.06399999997,
      "d": 163.63620000000083,
      "v": 100
    },
    {
      "midi": 69,
      "hit": false,
      "t": 26909.06399999997,
      "d": 163.63620000000083,
      "v": 100
    },
    {
      "midi": 35,
      "hit": false,
      "t": 26909.06399999997,
      "d": 163.63620000000083,
      "v": 100
    },
    {
      "midi": 39,
      "hit": false,
      "t": 27090.88199999997,
      "d": 163.63620000000083,
      "v": 100
    },
    {
      "midi": 62,
      "hit": false,
      "t": 27272.699999999968,
      "d": 81.81810000000041,
      "v": 100
    },
    {
      "midi": 77,
      "hit": false,
      "t": 27272.699999999968,
      "d": 163.63620000000083,
      "v": 100
    },
    {
      "midi": 33,
      "hit": false,
      "t": 27272.699999999968,
      "d": 327.27240000000165,
      "v": 100
    },
    {
      "midi": 39,
      "hit": false,
      "t": 27272.699999999968,
      "d": 327.27240000000165,
      "v": 100
    },
    {
      "midi": 40,
      "hit": false,
      "t": 27272.699999999968,
      "d": 390.1511250000003,
      "v": 100
    },
    {
      "midi": 77,
      "hit": false,
      "t": 27454.517999999967,
      "d": 163.63620000000083,
      "v": 100
    },
    {
      "midi": 35,
      "hit": false,
      "t": 27636.335999999967,
      "d": 163.63620000000446,
      "v": 100
    },
    {
      "midi": 65,
      "hit": false,
      "t": 27636.335999999967,
      "d": 327.27240000000165,
      "v": 100
    },
    {
      "midi": 34,
      "hit": false,
      "t": 27636.335999999967,
      "d": 490.90859999999884,
      "v": 100
    },
    {
      "midi": 58,
      "hit": false,
      "t": 27636.335999999967,
      "d": 1309.0895999999957,
      "v": 100
    },
    {
      "midi": 69,
      "hit": false,
      "t": 27818.15399999997,
      "d": 163.6361999999972,
      "v": 100
    },
    {
      "midi": 65,
      "hit": false,
      "t": 27999.971999999965,
      "d": 81.81810000000041,
      "v": 100
    },
    {
      "midi": 67,
      "hit": false,
      "t": 27999.971999999965,
      "d": 327.272399999998,
      "v": 100
    },
    {
      "midi": 40,
      "hit": false,
      "t": 27999.971999999965,
      "d": 327.272399999998,
      "v": 100
    },
    {
      "midi": 65,
      "hit": false,
      "t": 28181.789999999964,
      "d": 81.81810000000041,
      "v": 100
    },
    {
      "midi": 34,
      "hit": false,
      "t": 28181.789999999964,
      "d": 163.6361999999972,
      "v": 100
    },
    {
      "midi": 35,
      "hit": false,
      "t": 28181.789999999964,
      "d": 163.6361999999972,
      "v": 100
    },
    {
      "midi": 35,
      "hit": false,
      "t": 28363.60799999996,
      "d": 163.63620000000083,
      "v": 100
    },
    {
      "midi": 62,
      "hit": false,
      "t": 28363.60799999996,
      "d": 327.27240000000165,
      "v": 100
    },
    {
      "midi": 34,
      "hit": false,
      "t": 28363.60799999996,
      "d": 327.27240000000165,
      "v": 100
    },
    {
      "midi": 69,
      "hit": false,
      "t": 28363.60799999996,
      "d": 680.3023500000018,
      "v": 100
    },
    {
      "midi": 65,
      "hit": false,
      "t": 28727.243999999962,
      "d": 81.81810000000041,
      "v": 100
    },
    {
      "midi": 33,
      "hit": false,
      "t": 28727.243999999962,
      "d": 163.63620000000083,
      "v": 100
    },
    {
      "midi": 40,
      "hit": false,
      "t": 28727.243999999962,
      "d": 327.272399999998,
      "v": 100
    },
    {
      "midi": 67,
      "hit": false,
      "t": 28909.06199999996,
      "d": 163.6361999999972,
      "v": 100
    },
    {
      "midi": 31,
      "hit": false,
      "t": 28909.06199999996,
      "d": 163.6361999999972,
      "v": 100
    },
    {
      "midi": 36,
      "hit": false,
      "t": 29090.879999999957,
      "d": 163.63620000000083,
      "v": 100
    },
    {
      "midi": 35,
      "hit": false,
      "t": 29090.879999999957,
      "d": 163.63620000000083,
      "v": 100
    },
    {
      "midi": 72,
      "hit": false,
      "t": 29090.879999999957,
      "d": 327.272399999998,
      "v": 100
    },
    {
      "midi": 62,
      "hit": false,
      "t": 29090.879999999957,
      "d": 1309.0895999999957,
      "v": 100
    },
    {
      "midi": 58,
      "hit": false,
      "t": 29090.879999999957,
      "d": 1309.0895999999957,
      "v": 100
    },
    {
      "midi": 36,
      "hit": false,
      "t": 29272.697999999957,
      "d": 163.6361999999972,
      "v": 100
    },
    {
      "midi": 69,
      "hit": false,
      "t": 29272.697999999957,
      "d": 163.6361999999972,
      "v": 100
    },
    {
      "midi": 65,
      "hit": false,
      "t": 29454.515999999952,
      "d": 81.81810000000041,
      "v": 100
    },
    {
      "midi": 69,
      "hit": false,
      "t": 29454.515999999952,
      "d": 163.63620000000083,
      "v": 100
    },
    {
      "midi": 40,
      "hit": false,
      "t": 29454.515999999952,
      "d": 571.21155,
      "v": 100
    },
    {
      "midi": 65,
      "hit": false,
      "t": 29636.33399999995,
      "d": 81.81810000000041,
      "v": 100
    },
    {
      "midi": 67,
      "hit": false,
      "t": 29636.33399999995,
      "d": 163.63620000000083,
      "v": 100
    },
    {
      "midi": 36,
      "hit": false,
      "t": 29636.33399999995,
      "d": 163.63620000000083,
      "v": 100
    },
    {
      "midi": 35,
      "hit": false,
      "t": 29636.33399999995,
      "d": 163.63620000000083,
      "v": 100
    },
    {
      "midi": 69,
      "hit": false,
      "t": 29818.15199999995,
      "d": 163.63620000000083,
      "v": 100
    },
    {
      "midi": 35,
      "hit": false,
      "t": 29818.15199999995,
      "d": 163.63620000000083,
      "v": 100
    },
    {
      "midi": 65,
      "hit": false,
      "t": 29818.15199999995,
      "d": 327.27240000000165,
      "v": 100
    },
    {
      "midi": 36,
      "hit": false,
      "t": 29818.15199999995,
      "d": 327.27240000000165,
      "v": 100
    },
    {
      "midi": 65,
      "hit": false,
      "t": 30181.787999999953,
      "d": 81.81810000000041,
      "v": 100
    },
    {
      "midi": 77,
      "hit": false,
      "t": 30181.787999999953,
      "d": 163.63620000000083,
      "v": 100
    },
    {
      "midi": 67,
      "hit": false,
      "t": 30181.787999999953,
      "d": 327.27240000000165,
      "v": 100
    },
    {
      "midi": 38,
      "hit": false,
      "t": 30181.787999999953,
      "d": 327.27240000000165,
      "v": 100
    },
    {
      "midi": 40,
      "hit": false,
      "t": 30181.787999999953,
      "d": 327.27240000000165,
      "v": 100
    },
    {
      "midi": 77,
      "hit": false,
      "t": 30363.605999999952,
      "d": 163.63620000000083,
      "v": 100
    },
    {
      "midi": 41,
      "hit": false,
      "t": 30545.42399999995,
      "d": 490.90859999999884,
      "v": 100
    },
    {
      "midi": 69,
      "hit": false,
      "t": 30727.24199999995,
      "d": 163.63620000000083,
      "v": 100
    },
    {
      "midi": 65,
      "hit": false,
      "t": 30909.05999999995,
      "d": 81.81810000000041,
      "v": 100
    },
    {
      "midi": 60,
      "hit": false,
      "t": 30909.05999999995,
      "d": 163.63620000000083,
      "v": 100
    },
    {
      "midi": 55,
      "hit": false,
      "t": 30909.05999999995,
      "d": 163.63620000000083,
      "v": 100
    },
    {
      "midi": 35,
      "hit": false,
      "t": 30909.05999999995,
      "d": 163.63620000000083,
      "v": 100
    },
    {
      "midi": 40,
      "hit": false,
      "t": 30909.05999999995,
      "d": 327.272399999998,
      "v": 100
    },
    {
      "midi": 65,
      "hit": false,
      "t": 31090.87799999995,
      "d": 81.81810000000041,
      "v": 100
    },
    {
      "midi": 62,
      "hit": false,
      "t": 31090.87799999995,
      "d": 163.6361999999972,
      "v": 100
    },
    {
      "midi": 57,
      "hit": false,
      "t": 31090.87799999995,
      "d": 163.6361999999972,
      "v": 100
    },
    {
      "midi": 41,
      "hit": false,
      "t": 31090.87799999995,
      "d": 163.6361999999972,
      "v": 100
    },
    {
      "midi": 35,
      "hit": false,
      "t": 31090.87799999995,
      "d": 163.6361999999972,
      "v": 100
    },
    {
      "midi": 65,
      "hit": false,
      "t": 31272.695999999945,
      "d": 163.63620000000083,
      "v": 100
    },
    {
      "midi": 60,
      "hit": false,
      "t": 31272.695999999945,
      "d": 163.63620000000083,
      "v": 100
    },
    {
      "midi": 69,
      "hit": false,
      "t": 31272.695999999945,
      "d": 163.63620000000083,
      "v": 100
    },
    {
      "midi": 35,
      "hit": false,
      "t": 31272.695999999945,
      "d": 163.63620000000083,
      "v": 100
    },
    {
      "midi": 41,
      "hit": false,
      "t": 31272.695999999945,
      "d": 327.272399999998,
      "v": 100
    },
    {
      "midi": 67,
      "hit": false,
      "t": 31454.513999999945,
      "d": 163.6361999999972,
      "v": 100
    },
    {
      "midi": 62,
      "hit": false,
      "t": 31454.513999999945,
      "d": 163.6361999999972,
      "v": 100
    },
    {
      "midi": 35,
      "hit": false,
      "t": 31454.513999999945,
      "d": 163.6361999999972,
      "v": 100
    },
    {
      "midi": 65,
      "hit": false,
      "t": 31636.33199999994,
      "d": 81.81810000000041,
      "v": 100
    },
    {
      "midi": 69,
      "hit": false,
      "t": 31636.33199999994,
      "d": 163.63620000000083,
      "v": 100
    },
    {
      "midi": 64,
      "hit": false,
      "t": 31636.33199999994,
      "d": 163.63620000000083,
      "v": 100
    },
    {
      "midi": 38,
      "hit": false,
      "t": 31636.33199999994,
      "d": 163.63620000000083,
      "v": 100
    },
    {
      "midi": 35,
      "hit": false,
      "t": 31636.33199999994,
      "d": 163.63620000000083,
      "v": 100
    },
    {
      "midi": 40,
      "hit": false,
      "t": 31636.33199999994,
      "d": 327.272399999998,
      "v": 100
    },
    {
      "midi": 65,
      "hit": false,
      "t": 31818.14999999994,
      "d": 36.36360000000059,
      "v": 100
    },
    {
      "midi": 72,
      "hit": false,
      "t": 31818.14999999994,
      "d": 163.6361999999972,
      "v": 100
    },
    {
      "midi": 67,
      "hit": false,
      "t": 31818.14999999994,
      "d": 163.6361999999972,
      "v": 100
    },
    {
      "midi": 36,
      "hit": false,
      "t": 31818.14999999994,
      "d": 163.6361999999972,
      "v": 100
    },
    {
      "midi": 35,
      "hit": false,
      "t": 31818.14999999994,
      "d": 163.6361999999972,
      "v": 100
    },
    {
      "midi": 77,
      "hit": false,
      "t": 32363.603999999938,
      "d": 163.63620000000083,
      "v": 100
    },
    {
      "midi": 72,
      "hit": false,
      "t": 32363.603999999938,
      "d": 163.63620000000083,
      "v": 100
    },
    {
      "midi": 41,
      "hit": false,
      "t": 32363.603999999938,
      "d": 163.63620000000083,
      "v": 100
    },
    {
      "midi": 35,
      "hit": false,
      "t": 32363.603999999938,
      "d": 163.63620000000083,
      "v": 100
    },
    {
      "midi": 69,
      "hit": false,
      "t": 32363.603999999938,
      "d": 327.27240000000165,
      "v": 100
    },
    {
      "midi": 40,
      "hit": false,
      "t": 32363.603999999938,
      "d": 327.27240000000165,
      "v": 100
    },
    {
      "midi": 77,
      "hit": false,
      "t": 32727.23999999994,
      "d": 163.63620000000083,
      "v": 100
    },
    {
      "midi": 72,
      "hit": false,
      "t": 32727.23999999994,
      "d": 163.63620000000083,
      "v": 100
    },
    {
      "midi": 41,
      "hit": false,
      "t": 32727.23999999994,
      "d": 163.63620000000083,
      "v": 100
    },
    {
      "midi": 69,
      "hit": false,
      "t": 32727.23999999994,
      "d": 163.63620000000083,
      "v": 100
    },
    {
      "midi": 40,
      "hit": false,
      "t": 32727.23999999994,
      "d": 163.63620000000083,
      "v": 100
    },
    {
      "midi": 35,
      "hit": false,
      "t": 32727.23999999994,
      "d": 163.63620000000083,
      "v": 100
    },
    {
      "midi": 35,
      "hit": false,
      "t": 33454.511999999944,
      "d": 327.27240000000165,
      "v": 100
    },
    {
      "midi": 60,
      "hit": false,
      "t": 33454.511999999944,
      "d": 1309.089599999992,
      "v": 100
    },
    {
      "midi": 36,
      "hit": false,
      "t": 33454.511999999944,
      "d": 1309.089599999992,
      "v": 100
    },
    {
      "midi": 72,
      "hit": false,
      "t": 33636.32999999994,
      "d": 163.63620000000083,
      "v": 100
    },
    {
      "midi": 67,
      "hit": false,
      "t": 33636.32999999994,
      "d": 163.63620000000083,
      "v": 100
    },
    {
      "midi": 72,
      "hit": false,
      "t": 33818.14799999994,
      "d": 163.63620000000083,
      "v": 100
    },
    {
      "midi": 67,
      "hit": false,
      "t": 33818.14799999994,
      "d": 163.63620000000083,
      "v": 100
    },
    {
      "midi": 35,
      "hit": false,
      "t": 33818.14799999994,
      "d": 327.27240000000165,
      "v": 100
    },
    {
      "midi": 72,
      "hit": false,
      "t": 33999.96599999994,
      "d": 163.63620000000083,
      "v": 100
    },
    {
      "midi": 67,
      "hit": false,
      "t": 33999.96599999994,
      "d": 163.63620000000083,
      "v": 100
    },
    {
      "midi": 72,
      "hit": false,
      "t": 34181.78399999994,
      "d": 163.63620000000083,
      "v": 100
    },
    {
      "midi": 67,
      "hit": false,
      "t": 34181.78399999994,
      "d": 163.63620000000083,
      "v": 100
    },
    {
      "midi": 35,
      "hit": false,
      "t": 34181.78399999994,
      "d": 327.27240000000165,
      "v": 100
    },
    {
      "midi": 72,
      "hit": false,
      "t": 34363.60199999994,
      "d": 163.63620000000083,
      "v": 100
    },
    {
      "midi": 67,
      "hit": false,
      "t": 34363.60199999994,
      "d": 163.63620000000083,
      "v": 100
    },
    {
      "midi": 74,
      "hit": false,
      "t": 34545.41999999994,
      "d": 163.63620000000083,
      "v": 100
    },
    {
      "midi": 69,
      "hit": false,
      "t": 34545.41999999994,
      "d": 163.63620000000083,
      "v": 100
    },
    {
      "midi": 35,
      "hit": false,
      "t": 34545.41999999994,
      "d": 327.2723999999944,
      "v": 100
    },
    {
      "midi": 67,
      "hit": false,
      "t": 34727.23799999994,
      "d": 36.36359999999695,
      "v": 100
    },
    {
      "midi": 72,
      "hit": false,
      "t": 34727.23799999994,
      "d": 163.63619999999355,
      "v": 100
    },
    {
      "midi": 77,
      "hit": false,
      "t": 34909.05599999993,
      "d": 163.63620000000083,
      "v": 100
    },
    {
      "midi": 72,
      "hit": false,
      "t": 34909.05599999993,
      "d": 163.63620000000083,
      "v": 100
    },
    {
      "midi": 67,
      "hit": false,
      "t": 34909.05599999993,
      "d": 327.27240000000165,
      "v": 100
    },
    {
      "midi": 60,
      "hit": false,
      "t": 34909.05599999993,
      "d": 327.27240000000165,
      "v": 100
    },
    {
      "midi": 36,
      "hit": false,
      "t": 34909.05599999993,
      "d": 327.27240000000165,
      "v": 100
    },
    {
      "midi": 35,
      "hit": false,
      "t": 34909.05599999993,
      "d": 327.27240000000165,
      "v": 100
    },
    {
      "midi": 46,
      "hit": false,
      "t": 34909.05599999993,
      "d": 327.27240000000165,
      "v": 100
    },
    {
      "midi": 74,
      "hit": false,
      "t": 35090.87399999993,
      "d": 163.63620000000083,
      "v": 100
    },
    {
      "midi": 69,
      "hit": false,
      "t": 35090.87399999993,
      "d": 163.63620000000083,
      "v": 100
    },
    {
      "midi": 72,
      "hit": false,
      "t": 35272.69199999993,
      "d": 163.63620000000083,
      "v": 100
    },
    {
      "midi": 67,
      "hit": false,
      "t": 35272.69199999993,
      "d": 163.63620000000083,
      "v": 100
    },
    {
      "midi": 60,
      "hit": false,
      "t": 35272.69199999993,
      "d": 327.27240000000165,
      "v": 100
    },
    {
      "midi": 36,
      "hit": false,
      "t": 35272.69199999993,
      "d": 327.27240000000165,
      "v": 100
    },
    {
      "midi": 35,
      "hit": false,
      "t": 35272.69199999993,
      "d": 327.27240000000165,
      "v": 100
    },
    {
      "midi": 46,
      "hit": false,
      "t": 35272.69199999993,
      "d": 327.27240000000165,
      "v": 100
    },
    {
      "midi": 69,
      "hit": false,
      "t": 35454.50999999993,
      "d": 163.63620000000083,
      "v": 100
    },
    {
      "midi": 64,
      "hit": false,
      "t": 35454.50999999993,
      "d": 163.63620000000083,
      "v": 100
    },
    {
      "midi": 67,
      "hit": false,
      "t": 35636.32799999993,
      "d": 163.63620000000083,
      "v": 100
    },
    {
      "midi": 62,
      "hit": false,
      "t": 35636.32799999993,
      "d": 163.63620000000083,
      "v": 100
    },
    {
      "midi": 36,
      "hit": false,
      "t": 35636.32799999993,
      "d": 327.27240000000165,
      "v": 100
    },
    {
      "midi": 35,
      "hit": false,
      "t": 35636.32799999993,
      "d": 327.27240000000165,
      "v": 100
    },
    {
      "midi": 46,
      "hit": false,
      "t": 35636.32799999993,
      "d": 327.27240000000165,
      "v": 100
    },
    {
      "midi": 60,
      "hit": false,
      "t": 35818.14599999993,
      "d": 145.45440000000235,
      "v": 100
    },
    {
      "midi": 65,
      "hit": false,
      "t": 35818.14599999993,
      "d": 163.63620000000083,
      "v": 100
    },
    {
      "midi": 62,
      "hit": false,
      "t": 35999.96399999993,
      "d": 163.63620000000083,
      "v": 100
    },
    {
      "midi": 57,
      "hit": false,
      "t": 35999.96399999993,
      "d": 163.63620000000083,
      "v": 100
    },
    {
      "midi": 67,
      "hit": false,
      "t": 35999.96399999993,
      "d": 327.27240000000165,
      "v": 100
    },
    {
      "midi": 36,
      "hit": false,
      "t": 35999.96399999993,
      "d": 327.27240000000165,
      "v": 100
    },
    {
      "midi": 35,
      "hit": false,
      "t": 35999.96399999993,
      "d": 327.27240000000165,
      "v": 100
    },
    {
      "midi": 46,
      "hit": false,
      "t": 35999.96399999993,
      "d": 327.27240000000165,
      "v": 100
    },
    {
      "midi": 60,
      "hit": false,
      "t": 36181.78199999993,
      "d": 145.45440000000235,
      "v": 100
    },
    {
      "midi": 55,
      "hit": false,
      "t": 36181.78199999993,
      "d": 163.63620000000083,
      "v": 100
    },
    {
      "midi": 69,
      "hit": false,
      "t": 36363.599999999926,
      "d": 163.63620000000083,
      "v": 100
    },
    {
      "midi": 77,
      "hit": false,
      "t": 36363.599999999926,
      "d": 163.63620000000083,
      "v": 100
    },
    {
      "midi": 38,
      "hit": false,
      "t": 36363.599999999926,
      "d": 327.27240000000165,
      "v": 100
    },
    {
      "midi": 46,
      "hit": false,
      "t": 36363.599999999926,
      "d": 327.27240000000165,
      "v": 100
    },
    {
      "midi": 35,
      "hit": false,
      "t": 36363.599999999926,
      "d": 327.27240000000165,
      "v": 100
    },
    {
      "midi": 58,
      "hit": false,
      "t": 36363.599999999926,
      "d": 654.5447999999888,
      "v": 100
    },
    {
      "midi": 62,
      "hit": false,
      "t": 36363.599999999926,
      "d": 654.5447999999888,
      "v": 100
    },
    {
      "midi": 72,
      "hit": false,
      "t": 36545.417999999925,
      "d": 163.63620000000083,
      "v": 100
    },
    {
      "midi": 77,
      "hit": false,
      "t": 36545.417999999925,
      "d": 163.63620000000083,
      "v": 100
    },
    {
      "midi": 65,
      "hit": false,
      "t": 36727.235999999924,
      "d": 81.81809999999678,
      "v": 100
    },
    {
      "midi": 69,
      "hit": false,
      "t": 36727.235999999924,
      "d": 163.63619999999355,
      "v": 100
    },
    {
      "midi": 41,
      "hit": false,
      "t": 36727.235999999924,
      "d": 163.63619999999355,
      "v": 100
    },
    {
      "midi": 40,
      "hit": false,
      "t": 36727.235999999924,
      "d": 163.63619999999355,
      "v": 100
    },
    {
      "midi": 35,
      "hit": false,
      "t": 36727.235999999924,
      "d": 327.2723999999871,
      "v": 100
    },
    {
      "midi": 65,
      "hit": false,
      "t": 36909.05399999992,
      "d": 81.81809999999678,
      "v": 100
    },
    {
      "midi": 72,
      "hit": false,
      "t": 36909.05399999992,
      "d": 163.63619999999355,
      "v": 100
    },
    {
      "midi": 43,
      "hit": false,
      "t": 36909.05399999992,
      "d": 163.63619999999355,
      "v": 100
    },
    {
      "midi": 40,
      "hit": false,
      "t": 36909.05399999992,
      "d": 163.63619999999355,
      "v": 100
    },
    {
      "midi": 77,
      "hit": false,
      "t": 36909.05399999992,
      "d": 163.63619999999355,
      "v": 100
    },
    {
      "midi": 69,
      "hit": false,
      "t": 37090.87199999991,
      "d": 163.63620000000083,
      "v": 100
    },
    {
      "midi": 77,
      "hit": false,
      "t": 37090.87199999991,
      "d": 163.63620000000083,
      "v": 100
    },
    {
      "midi": 36,
      "hit": false,
      "t": 37090.87199999991,
      "d": 327.27240000000165,
      "v": 100
    },
    {
      "midi": 35,
      "hit": false,
      "t": 37090.87199999991,
      "d": 327.27240000000165,
      "v": 100
    },
    {
      "midi": 60,
      "hit": false,
      "t": 37090.87199999991,
      "d": 654.5447999999888,
      "v": 100
    },
    {
      "midi": 64,
      "hit": false,
      "t": 37090.87199999991,
      "d": 654.5447999999888,
      "v": 100
    },
    {
      "midi": 55,
      "hit": false,
      "t": 37090.87199999991,
      "d": 654.5447999999888,
      "v": 100
    },
    {
      "midi": 67,
      "hit": false,
      "t": 37272.68999999991,
      "d": 163.63620000000083,
      "v": 100
    },
    {
      "midi": 77,
      "hit": false,
      "t": 37272.68999999991,
      "d": 163.63620000000083,
      "v": 100
    },
    {
      "midi": 65,
      "hit": false,
      "t": 37454.50799999991,
      "d": 81.81809999999678,
      "v": 100
    },
    {
      "midi": 38,
      "hit": false,
      "t": 37454.50799999991,
      "d": 163.63619999999355,
      "v": 100
    },
    {
      "midi": 40,
      "hit": false,
      "t": 37454.50799999991,
      "d": 163.63619999999355,
      "v": 100
    },
    {
      "midi": 35,
      "hit": false,
      "t": 37454.50799999991,
      "d": 327.2723999999871,
      "v": 100
    },
    {
      "midi": 65,
      "hit": false,
      "t": 37636.3259999999,
      "d": 81.81809999999678,
      "v": 100
    },
    {
      "midi": 62,
      "hit": false,
      "t": 37636.3259999999,
      "d": 163.63619999999355,
      "v": 100
    },
    {
      "midi": 41,
      "hit": false,
      "t": 37636.3259999999,
      "d": 163.63619999999355,
      "v": 100
    },
    {
      "midi": 77,
      "hit": false,
      "t": 37636.3259999999,
      "d": 163.63619999999355,
      "v": 100
    },
    {
      "midi": 60,
      "hit": false,
      "t": 37818.14399999989,
      "d": 163.63620000000083,
      "v": 100
    },
    {
      "midi": 77,
      "hit": false,
      "t": 37818.14399999989,
      "d": 163.63620000000083,
      "v": 100
    },
    {
      "midi": 33,
      "hit": false,
      "t": 37818.14399999989,
      "d": 327.27240000000165,
      "v": 100
    },
    {
      "midi": 35,
      "hit": false,
      "t": 37818.14399999989,
      "d": 327.27240000000165,
      "v": 100
    },
    {
      "midi": 57,
      "hit": false,
      "t": 37999.96199999989,
      "d": 163.63620000000083,
      "v": 100
    },
    {
      "midi": 77,
      "hit": false,
      "t": 37999.96199999989,
      "d": 163.63620000000083,
      "v": 100
    },
    {
      "midi": 65,
      "hit": false,
      "t": 38181.77999999989,
      "d": 81.81809999999678,
      "v": 100
    },
    {
      "midi": 60,
      "hit": false,
      "t": 38181.77999999989,
      "d": 163.63619999999355,
      "v": 100
    },
    {
      "midi": 36,
      "hit": false,
      "t": 38181.77999999989,
      "d": 163.63619999999355,
      "v": 100
    },
    {
      "midi": 40,
      "hit": false,
      "t": 38181.77999999989,
      "d": 163.63619999999355,
      "v": 100
    },
    {
      "midi": 35,
      "hit": false,
      "t": 38181.77999999989,
      "d": 327.2723999999871,
      "v": 100
    },
    {
      "midi": 65,
      "hit": false,
      "t": 38363.59799999988,
      "d": 81.81809999999678,
      "v": 100
    },
    {
      "midi": 62,
      "hit": false,
      "t": 38363.59799999988,
      "d": 163.63619999999355,
      "v": 100
    },
    {
      "midi": 38,
      "hit": false,
      "t": 38363.59799999988,
      "d": 163.63619999999355,
      "v": 100
    },
    {
      "midi": 40,
      "hit": false,
      "t": 38363.59799999988,
      "d": 163.63619999999355,
      "v": 100
    },
    {
      "midi": 77,
      "hit": false,
      "t": 38363.59799999988,
      "d": 163.63619999999355,
      "v": 100
    },
    {
      "midi": 77,
      "hit": false,
      "t": 38545.415999999874,
      "d": 163.63620000000083,
      "v": 100
    },
    {
      "midi": 35,
      "hit": false,
      "t": 38545.415999999874,
      "d": 327.27240000000165,
      "v": 100
    },
    {
      "midi": 36,
      "hit": false,
      "t": 38545.415999999874,
      "d": 654.5447999999888,
      "v": 100
    },
    {
      "midi": 77,
      "hit": false,
      "t": 38727.23399999987,
      "d": 163.63620000000083,
      "v": 100
    },
    {
      "midi": 65,
      "hit": false,
      "t": 38909.05199999987,
      "d": 81.81809999999678,
      "v": 100
    },
    {
      "midi": 40,
      "hit": false,
      "t": 38909.05199999987,
      "d": 163.63619999999355,
      "v": 100
    },
    {
      "midi": 77,
      "hit": false,
      "t": 38909.05199999987,
      "d": 163.63619999999355,
      "v": 100
    },
    {
      "midi": 49,
      "hit": false,
      "t": 38909.05199999987,
      "d": 163.63619999999355,
      "v": 100
    },
    {
      "midi": 35,
      "hit": false,
      "t": 38909.05199999987,
      "d": 327.2723999999871,
      "v": 100
    },
    {
      "midi": 77,
      "hit": false,
      "t": 39090.869999999864,
      "d": 81.81809999999678,
      "v": 100
    },
    {
      "midi": 77,
      "hit": false,
      "t": 39181.778999999864,
      "d": 81.81809999999678,
      "v": 100
    },
    {
      "midi": 69,
      "hit": false,
      "t": 39272.687999999864,
      "d": 163.63620000000083,
      "v": 100
    },
    {
      "midi": 77,
      "hit": false,
      "t": 39272.687999999864,
      "d": 163.63620000000083,
      "v": 100
    },
    {
      "midi": 38,
      "hit": false,
      "t": 39272.687999999864,
      "d": 327.27240000000165,
      "v": 100
    },
    {
      "midi": 35,
      "hit": false,
      "t": 39272.687999999864,
      "d": 327.27240000000165,
      "v": 100
    },
    {
      "midi": 62,
      "hit": false,
      "t": 39272.687999999864,
      "d": 654.5447999999888,
      "v": 100
    },
    {
      "midi": 58,
      "hit": false,
      "t": 39272.687999999864,
      "d": 654.5447999999888,
      "v": 100
    },
    {
      "midi": 72,
      "hit": false,
      "t": 39454.50599999986,
      "d": 163.63620000000083,
      "v": 100
    },
    {
      "midi": 77,
      "hit": false,
      "t": 39454.50599999986,
      "d": 163.63620000000083,
      "v": 100
    },
    {
      "midi": 65,
      "hit": false,
      "t": 39636.32399999986,
      "d": 81.81809999999678,
      "v": 100
    },
    {
      "midi": 69,
      "hit": false,
      "t": 39636.32399999986,
      "d": 163.63619999999355,
      "v": 100
    },
    {
      "midi": 41,
      "hit": false,
      "t": 39636.32399999986,
      "d": 163.63619999999355,
      "v": 100
    },
    {
      "midi": 40,
      "hit": false,
      "t": 39636.32399999986,
      "d": 163.63619999999355,
      "v": 100
    },
    {
      "midi": 35,
      "hit": false,
      "t": 39636.32399999986,
      "d": 690.908399999993,
      "v": 100
    },
    {
      "midi": 65,
      "hit": false,
      "t": 39818.141999999854,
      "d": 81.81809999999678,
      "v": 100
    },
    {
      "midi": 72,
      "hit": false,
      "t": 39818.141999999854,
      "d": 163.63620000000083,
      "v": 100
    },
    {
      "midi": 43,
      "hit": false,
      "t": 39818.141999999854,
      "d": 163.63620000000083,
      "v": 100
    },
    {
      "midi": 40,
      "hit": false,
      "t": 39818.141999999854,
      "d": 163.63620000000083,
      "v": 100
    },
    {
      "midi": 77,
      "hit": false,
      "t": 39818.141999999854,
      "d": 163.63620000000083,
      "v": 100
    },
    {
      "midi": 69,
      "hit": false,
      "t": 39999.95999999985,
      "d": 163.63620000000083,
      "v": 100
    },
    {
      "midi": 77,
      "hit": false,
      "t": 39999.95999999985,
      "d": 163.63620000000083,
      "v": 100
    },
    {
      "midi": 36,
      "hit": false,
      "t": 39999.95999999985,
      "d": 327.27240000000165,
      "v": 100
    },
    {
      "midi": 62,
      "hit": false,
      "t": 39999.95999999985,
      "d": 654.544799999996,
      "v": 100
    },
    {
      "midi": 58,
      "hit": false,
      "t": 39999.95999999985,
      "d": 654.544799999996,
      "v": 100
    },
    {
      "midi": 67,
      "hit": false,
      "t": 40181.77799999985,
      "d": 163.63620000000083,
      "v": 100
    },
    {
      "midi": 77,
      "hit": false,
      "t": 40181.77799999985,
      "d": 264.39367499999935,
      "v": 100
    },
    {
      "midi": 65,
      "hit": false,
      "t": 40363.59599999985,
      "d": 81.81809999999678,
      "v": 100
    },
    {
      "midi": 38,
      "hit": false,
      "t": 40363.59599999985,
      "d": 163.63620000000083,
      "v": 100
    },
    {
      "midi": 40,
      "hit": false,
      "t": 40363.59599999985,
      "d": 163.63620000000083,
      "v": 100
    },
    {
      "midi": 35,
      "hit": false,
      "t": 40363.59599999985,
      "d": 327.2723999999944,
      "v": 100
    },
    {
      "midi": 65,
      "hit": false,
      "t": 40545.41399999985,
      "d": 81.81809999999678,
      "v": 100
    },
    {
      "midi": 64,
      "hit": false,
      "t": 40545.41399999985,
      "d": 163.63619999999355,
      "v": 100
    },
    {
      "midi": 41,
      "hit": false,
      "t": 40545.41399999985,
      "d": 163.63619999999355,
      "v": 100
    },
    {
      "midi": 77,
      "hit": false,
      "t": 40545.41399999985,
      "d": 163.63619999999355,
      "v": 100
    },
    {
      "midi": 77,
      "hit": false,
      "t": 40727.23199999984,
      "d": 163.63620000000083,
      "v": 100
    },
    {
      "midi": 62,
      "hit": false,
      "t": 40727.23199999984,
      "d": 327.27240000000165,
      "v": 100
    },
    {
      "midi": 38,
      "hit": false,
      "t": 40727.23199999984,
      "d": 327.27240000000165,
      "v": 100
    },
    {
      "midi": 35,
      "hit": false,
      "t": 40727.23199999984,
      "d": 327.27240000000165,
      "v": 100
    },
    {
      "midi": 57,
      "hit": false,
      "t": 40727.23199999984,
      "d": 654.544799999996,
      "v": 100
    },
    {
      "midi": 77,
      "hit": false,
      "t": 40909.04999999984,
      "d": 163.63620000000083,
      "v": 100
    },
    {
      "midi": 65,
      "hit": false,
      "t": 41090.86799999984,
      "d": 81.81809999999678,
      "v": 100
    },
    {
      "midi": 41,
      "hit": false,
      "t": 41090.86799999984,
      "d": 163.63620000000083,
      "v": 100
    },
    {
      "midi": 40,
      "hit": false,
      "t": 41090.86799999984,
      "d": 163.63620000000083,
      "v": 100
    },
    {
      "midi": 35,
      "hit": false,
      "t": 41090.86799999984,
      "d": 327.27240000000165,
      "v": 100
    },
    {
      "midi": 65,
      "hit": false,
      "t": 41272.68599999984,
      "d": 81.81809999999678,
      "v": 100
    },
    {
      "midi": 45,
      "hit": false,
      "t": 41272.68599999984,
      "d": 163.63620000000083,
      "v": 100
    },
    {
      "midi": 40,
      "hit": false,
      "t": 41272.68599999984,
      "d": 163.63620000000083,
      "v": 100
    },
    {
      "midi": 77,
      "hit": false,
      "t": 41272.68599999984,
      "d": 163.63620000000083,
      "v": 100
    },
    {
      "midi": 77,
      "hit": false,
      "t": 41454.50399999984,
      "d": 163.63620000000083,
      "v": 100
    },
    {
      "midi": 35,
      "hit": false,
      "t": 41454.50399999984,
      "d": 327.27240000000165,
      "v": 100
    },
    {
      "midi": 62,
      "hit": false,
      "t": 41454.50399999984,
      "d": 654.5447999999888,
      "v": 100
    },
    {
      "midi": 38,
      "hit": false,
      "t": 41454.50399999984,
      "d": 654.5447999999888,
      "v": 100
    },
    {
      "midi": 77,
      "hit": false,
      "t": 41636.32199999984,
      "d": 163.63620000000083,
      "v": 100
    },
    {
      "midi": 45,
      "hit": false,
      "t": 41636.32199999984,
      "d": 163.63620000000083,
      "v": 100
    },
    {
      "midi": 65,
      "hit": false,
      "t": 41818.13999999984,
      "d": 81.81809999999678,
      "v": 100
    },
    {
      "midi": 40,
      "hit": false,
      "t": 41818.13999999984,
      "d": 163.63619999999355,
      "v": 100
    },
    {
      "midi": 77,
      "hit": false,
      "t": 41818.13999999984,
      "d": 163.63619999999355,
      "v": 100
    },
    {
      "midi": 49,
      "hit": false,
      "t": 41818.13999999984,
      "d": 163.63619999999355,
      "v": 100
    },
    {
      "midi": 35,
      "hit": false,
      "t": 41818.13999999984,
      "d": 188.63617499999236,
      "v": 100
    },
    {
      "midi": 77,
      "hit": false,
      "t": 41999.95799999983,
      "d": 172.72709999999643,
      "v": 100
    },
    {
      "midi": 69,
      "hit": false,
      "t": 42181.77599999983,
      "d": 163.63620000000083,
      "v": 100
    },
    {
      "midi": 77,
      "hit": false,
      "t": 42181.77599999983,
      "d": 163.63620000000083,
      "v": 100
    },
    {
      "midi": 46,
      "hit": false,
      "t": 42181.77599999983,
      "d": 163.63620000000083,
      "v": 100
    },
    {
      "midi": 38,
      "hit": false,
      "t": 42181.77599999983,
      "d": 327.27240000000165,
      "v": 100
    },
    {
      "midi": 35,
      "hit": false,
      "t": 42181.77599999983,
      "d": 327.27240000000165,
      "v": 100
    },
    {
      "midi": 57,
      "hit": false,
      "t": 42181.77599999983,
      "d": 654.5447999999888,
      "v": 100
    },
    {
      "midi": 62,
      "hit": false,
      "t": 42181.77599999983,
      "d": 654.5447999999888,
      "v": 100
    },
    {
      "midi": 72,
      "hit": false,
      "t": 42363.59399999983,
      "d": 163.63620000000083,
      "v": 100
    },
    {
      "midi": 77,
      "hit": false,
      "t": 42363.59399999983,
      "d": 163.63620000000083,
      "v": 100
    },
    {
      "midi": 65,
      "hit": false,
      "t": 42545.41199999983,
      "d": 81.81809999999678,
      "v": 100
    },
    {
      "midi": 69,
      "hit": false,
      "t": 42545.41199999983,
      "d": 163.63619999999355,
      "v": 100
    },
    {
      "midi": 41,
      "hit": false,
      "t": 42545.41199999983,
      "d": 163.63619999999355,
      "v": 100
    },
    {
      "midi": 40,
      "hit": false,
      "t": 42545.41199999983,
      "d": 163.63619999999355,
      "v": 100
    },
    {
      "midi": 35,
      "hit": false,
      "t": 42545.41199999983,
      "d": 327.2723999999871,
      "v": 100
    },
    {
      "midi": 65,
      "hit": false,
      "t": 42727.22999999982,
      "d": 81.81809999999678,
      "v": 100
    },
    {
      "midi": 72,
      "hit": false,
      "t": 42727.22999999982,
      "d": 163.63619999999355,
      "v": 100
    },
    {
      "midi": 43,
      "hit": false,
      "t": 42727.22999999982,
      "d": 163.63619999999355,
      "v": 100
    },
    {
      "midi": 40,
      "hit": false,
      "t": 42727.22999999982,
      "d": 163.63619999999355,
      "v": 100
    },
    {
      "midi": 77,
      "hit": false,
      "t": 42727.22999999982,
      "d": 163.63619999999355,
      "v": 100
    },
    {
      "midi": 69,
      "hit": false,
      "t": 42909.04799999981,
      "d": 163.63620000000083,
      "v": 100
    },
    {
      "midi": 77,
      "hit": false,
      "t": 42909.04799999981,
      "d": 163.63620000000083,
      "v": 100
    },
    {
      "midi": 35,
      "hit": false,
      "t": 42909.04799999981,
      "d": 193.9392000000007,
      "v": 100
    },
    {
      "midi": 36,
      "hit": false,
      "t": 42909.04799999981,
      "d": 327.27240000000165,
      "v": 100
    },
    {
      "midi": 64,
      "hit": false,
      "t": 42909.04799999981,
      "d": 654.5447999999888,
      "v": 100
    },
    {
      "midi": 60,
      "hit": false,
      "t": 42909.04799999981,
      "d": 654.5447999999888,
      "v": 100
    },
    {
      "midi": 55,
      "hit": false,
      "t": 42909.04799999981,
      "d": 654.5447999999888,
      "v": 100
    },
    {
      "midi": 67,
      "hit": false,
      "t": 43090.86599999981,
      "d": 163.63620000000083,
      "v": 100
    },
    {
      "midi": 77,
      "hit": false,
      "t": 43090.86599999981,
      "d": 163.63620000000083,
      "v": 100
    },
    {
      "midi": 65,
      "hit": false,
      "t": 43272.68399999981,
      "d": 81.81809999999678,
      "v": 100
    },
    {
      "midi": 38,
      "hit": false,
      "t": 43272.68399999981,
      "d": 163.63619999999355,
      "v": 100
    },
    {
      "midi": 40,
      "hit": false,
      "t": 43272.68399999981,
      "d": 163.63619999999355,
      "v": 100
    },
    {
      "midi": 35,
      "hit": false,
      "t": 43272.68399999981,
      "d": 264.3936749999921,
      "v": 100
    },
    {
      "midi": 65,
      "hit": false,
      "t": 43454.501999999804,
      "d": 81.81809999999678,
      "v": 100
    },
    {
      "midi": 62,
      "hit": false,
      "t": 43454.501999999804,
      "d": 163.63620000000083,
      "v": 100
    },
    {
      "midi": 41,
      "hit": false,
      "t": 43454.501999999804,
      "d": 163.63620000000083,
      "v": 100
    },
    {
      "midi": 60,
      "hit": false,
      "t": 43636.3199999998,
      "d": 163.63620000000083,
      "v": 100
    },
    {
      "midi": 33,
      "hit": false,
      "t": 43636.3199999998,
      "d": 327.27240000000165,
      "v": 100
    },
    {
      "midi": 35,
      "hit": false,
      "t": 43636.3199999998,
      "d": 327.27240000000165,
      "v": 100
    },
    {
      "midi": 57,
      "hit": false,
      "t": 43818.1379999998,
      "d": 163.63620000000083,
      "v": 100
    },
    {
      "midi": 77,
      "hit": false,
      "t": 43818.1379999998,
      "d": 163.63620000000083,
      "v": 100
    },
    {
      "midi": 65,
      "hit": false,
      "t": 43999.9559999998,
      "d": 81.81809999999678,
      "v": 100
    },
    {
      "midi": 60,
      "hit": false,
      "t": 43999.9559999998,
      "d": 163.63619999999355,
      "v": 100
    },
    {
      "midi": 36,
      "hit": false,
      "t": 43999.9559999998,
      "d": 163.63619999999355,
      "v": 100
    },
    {
      "midi": 40,
      "hit": false,
      "t": 43999.9559999998,
      "d": 163.63619999999355,
      "v": 100
    },
    {
      "midi": 35,
      "hit": false,
      "t": 43999.9559999998,
      "d": 327.2723999999871,
      "v": 100
    },
    {
      "midi": 65,
      "hit": false,
      "t": 44181.773999999794,
      "d": 81.81809999999678,
      "v": 100
    },
    {
      "midi": 62,
      "hit": false,
      "t": 44181.773999999794,
      "d": 163.63619999999355,
      "v": 100
    },
    {
      "midi": 38,
      "hit": false,
      "t": 44181.773999999794,
      "d": 163.63619999999355,
      "v": 100
    },
    {
      "midi": 40,
      "hit": false,
      "t": 44181.773999999794,
      "d": 163.63619999999355,
      "v": 100
    },
    {
      "midi": 77,
      "hit": false,
      "t": 44181.773999999794,
      "d": 163.63619999999355,
      "v": 100
    },
    {
      "midi": 77,
      "hit": false,
      "t": 44363.591999999786,
      "d": 163.63620000000083,
      "v": 100
    },
    {
      "midi": 65,
      "hit": false,
      "t": 44363.591999999786,
      "d": 327.27240000000165,
      "v": 100
    },
    {
      "midi": 35,
      "hit": false,
      "t": 44363.591999999786,
      "d": 327.27240000000165,
      "v": 100
    },
    {
      "midi": 60,
      "hit": false,
      "t": 44363.591999999786,
      "d": 654.5447999999888,
      "v": 100
    },
    {
      "midi": 57,
      "hit": false,
      "t": 44363.591999999786,
      "d": 654.5447999999888,
      "v": 100
    },
    {
      "midi": 36,
      "hit": false,
      "t": 44363.591999999786,
      "d": 654.5447999999888,
      "v": 100
    },
    {
      "midi": 77,
      "hit": false,
      "t": 44545.409999999785,
      "d": 163.63620000000083,
      "v": 100
    },
    {
      "midi": 65,
      "hit": false,
      "t": 44727.227999999785,
      "d": 81.81809999999678,
      "v": 100
    },
    {
      "midi": 62,
      "hit": false,
      "t": 44727.227999999785,
      "d": 163.63619999999355,
      "v": 100
    },
    {
      "midi": 40,
      "hit": false,
      "t": 44727.227999999785,
      "d": 163.63619999999355,
      "v": 100
    },
    {
      "midi": 77,
      "hit": false,
      "t": 44727.227999999785,
      "d": 163.63619999999355,
      "v": 100
    },
    {
      "midi": 49,
      "hit": false,
      "t": 44727.227999999785,
      "d": 163.63619999999355,
      "v": 100
    },
    {
      "midi": 35,
      "hit": false,
      "t": 44727.227999999785,
      "d": 327.2723999999871,
      "v": 100
    },
    {
      "midi": 77,
      "hit": false,
      "t": 44909.04599999978,
      "d": 81.81809999999678,
      "v": 100
    },
    {
      "midi": 65,
      "hit": false,
      "t": 44909.04599999978,
      "d": 109.09079999999813,
      "v": 100
    },
    {
      "midi": 77,
      "hit": false,
      "t": 44999.954999999776,
      "d": 81.81809999999678,
      "v": 100
    },
    {
      "midi": 77,
      "hit": false,
      "t": 45090.863999999776,
      "d": 163.63620000000083,
      "v": 100
    },
    {
      "midi": 55,
      "hit": false,
      "t": 45090.863999999776,
      "d": 163.63620000000083,
      "v": 100
    },
    {
      "midi": 69,
      "hit": false,
      "t": 45090.863999999776,
      "d": 327.27240000000165,
      "v": 100
    },
    {
      "midi": 38,
      "hit": false,
      "t": 45090.863999999776,
      "d": 327.27240000000165,
      "v": 100
    },
    {
      "midi": 35,
      "hit": false,
      "t": 45090.863999999776,
      "d": 327.27240000000165,
      "v": 100
    },
    {
      "midi": 58,
      "hit": false,
      "t": 45090.863999999776,
      "d": 1309.0895999999702,
      "v": 100
    },
    {
      "midi": 77,
      "hit": false,
      "t": 45272.681999999775,
      "d": 163.63620000000083,
      "v": 100
    },
    {
      "midi": 65,
      "hit": false,
      "t": 45454.499999999774,
      "d": 81.81809999999678,
      "v": 100
    },
    {
      "midi": 67,
      "hit": false,
      "t": 45454.499999999774,
      "d": 163.63619999999355,
      "v": 100
    },
    {
      "midi": 41,
      "hit": false,
      "t": 45454.499999999774,
      "d": 163.63619999999355,
      "v": 100
    },
    {
      "midi": 40,
      "hit": false,
      "t": 45454.499999999774,
      "d": 163.63619999999355,
      "v": 100
    },
    {
      "midi": 35,
      "hit": false,
      "t": 45454.499999999774,
      "d": 327.2723999999871,
      "v": 100
    },
    {
      "midi": 65,
      "hit": false,
      "t": 45636.31799999977,
      "d": 81.81809999999678,
      "v": 100
    },
    {
      "midi": 45,
      "hit": false,
      "t": 45636.31799999977,
      "d": 163.63619999999355,
      "v": 100
    },
    {
      "midi": 40,
      "hit": false,
      "t": 45636.31799999977,
      "d": 163.63619999999355,
      "v": 100
    },
    {
      "midi": 77,
      "hit": false,
      "t": 45636.31799999977,
      "d": 163.63619999999355,
      "v": 100
    },
    {
      "midi": 77,
      "hit": false,
      "t": 45818.13599999976,
      "d": 163.63620000000083,
      "v": 100
    },
    {
      "midi": 62,
      "hit": false,
      "t": 45818.13599999976,
      "d": 327.27240000000165,
      "v": 100
    },
    {
      "midi": 38,
      "hit": false,
      "t": 45818.13599999976,
      "d": 327.27240000000165,
      "v": 100
    },
    {
      "midi": 35,
      "hit": false,
      "t": 45818.13599999976,
      "d": 351.5147999999972,
      "v": 100
    },
    {
      "midi": 77,
      "hit": false,
      "t": 45999.95399999976,
      "d": 163.63620000000083,
      "v": 100
    },
    {
      "midi": 65,
      "hit": false,
      "t": 46181.77199999976,
      "d": 81.81809999999678,
      "v": 100
    },
    {
      "midi": 38,
      "hit": false,
      "t": 46181.77199999976,
      "d": 163.63619999999355,
      "v": 100
    },
    {
      "midi": 40,
      "hit": false,
      "t": 46181.77199999976,
      "d": 163.63619999999355,
      "v": 100
    },
    {
      "midi": 35,
      "hit": false,
      "t": 46181.77199999976,
      "d": 327.2723999999871,
      "v": 100
    },
    {
      "midi": 67,
      "hit": false,
      "t": 46363.58999999975,
      "d": 163.63619999999355,
      "v": 100
    },
    {
      "midi": 41,
      "hit": false,
      "t": 46363.58999999975,
      "d": 163.63619999999355,
      "v": 100
    },
    {
      "midi": 77,
      "hit": false,
      "t": 46363.58999999975,
      "d": 169.69679999999062,
      "v": 100
    },
    {
      "midi": 77,
      "hit": false,
      "t": 46545.40799999974,
      "d": 163.63620000000083,
      "v": 100
    },
    {
      "midi": 69,
      "hit": false,
      "t": 46545.40799999974,
      "d": 327.27240000000165,
      "v": 100
    },
    {
      "midi": 38,
      "hit": false,
      "t": 46545.40799999974,
      "d": 327.27240000000165,
      "v": 100
    },
    {
      "midi": 58,
      "hit": false,
      "t": 46545.40799999974,
      "d": 654.5447999999888,
      "v": 100
    },
    {
      "midi": 62,
      "hit": false,
      "t": 46545.40799999974,
      "d": 654.5447999999888,
      "v": 100
    },
    {
      "midi": 35,
      "hit": false,
      "t": 46545.40799999974,
      "d": 690.9083999999857,
      "v": 100
    },
    {
      "midi": 77,
      "hit": false,
      "t": 46727.22599999974,
      "d": 163.63620000000083,
      "v": 100
    },
    {
      "midi": 65,
      "hit": false,
      "t": 46909.04399999974,
      "d": 81.81809999999678,
      "v": 100
    },
    {
      "midi": 67,
      "hit": false,
      "t": 46909.04399999974,
      "d": 163.63619999999355,
      "v": 100
    },
    {
      "midi": 41,
      "hit": false,
      "t": 46909.04399999974,
      "d": 163.63619999999355,
      "v": 100
    },
    {
      "midi": 40,
      "hit": false,
      "t": 46909.04399999974,
      "d": 345.4541999999856,
      "v": 100
    },
    {
      "midi": 65,
      "hit": false,
      "t": 47090.86199999973,
      "d": 81.81809999999678,
      "v": 100
    },
    {
      "midi": 45,
      "hit": false,
      "t": 47090.86199999973,
      "d": 163.63619999999355,
      "v": 100
    },
    {
      "midi": 77,
      "hit": false,
      "t": 47090.86199999973,
      "d": 345.45419999999285,
      "v": 100
    },
    {
      "midi": 62,
      "hit": false,
      "t": 47272.679999999724,
      "d": 327.27240000000165,
      "v": 100
    },
    {
      "midi": 38,
      "hit": false,
      "t": 47272.679999999724,
      "d": 327.27240000000165,
      "v": 100
    },
    {
      "midi": 35,
      "hit": false,
      "t": 47272.679999999724,
      "d": 327.27240000000165,
      "v": 100
    },
    {
      "midi": 77,
      "hit": false,
      "t": 47454.49799999972,
      "d": 163.63620000000083,
      "v": 100
    },
    {
      "midi": 65,
      "hit": false,
      "t": 47636.31599999972,
      "d": 81.81809999999678,
      "v": 100
    },
    {
      "midi": 62,
      "hit": false,
      "t": 47636.31599999972,
      "d": 163.63619999999355,
      "v": 100
    },
    {
      "midi": 58,
      "hit": false,
      "t": 47636.31599999972,
      "d": 163.63619999999355,
      "v": 100
    },
    {
      "midi": 38,
      "hit": false,
      "t": 47636.31599999972,
      "d": 163.63619999999355,
      "v": 100
    },
    {
      "midi": 40,
      "hit": false,
      "t": 47636.31599999972,
      "d": 163.63619999999355,
      "v": 100
    },
    {
      "midi": 77,
      "hit": false,
      "t": 47636.31599999972,
      "d": 163.63619999999355,
      "v": 100
    },
    {
      "midi": 49,
      "hit": false,
      "t": 47636.31599999972,
      "d": 163.63619999999355,
      "v": 100
    },
    {
      "midi": 35,
      "hit": false,
      "t": 47636.31599999972,
      "d": 327.2723999999944,
      "v": 100
    },
    {
      "midi": 77,
      "hit": false,
      "t": 47818.133999999714,
      "d": 81.81809999999678,
      "v": 100
    },
    {
      "midi": 67,
      "hit": false,
      "t": 47818.133999999714,
      "d": 163.63620000000083,
      "v": 100
    },
    {
      "midi": 36,
      "hit": false,
      "t": 47818.133999999714,
      "d": 163.63620000000083,
      "v": 100
    },
    {
      "midi": 40,
      "hit": false,
      "t": 47818.133999999714,
      "d": 163.63620000000083,
      "v": 100
    },
    {
      "midi": 77,
      "hit": false,
      "t": 47909.042999999714,
      "d": 81.81810000000405,
      "v": 100
    },
    {
      "midi": 40,
      "hit": false,
      "t": 48181.76999999972,
      "d": 163.63620000000083,
      "v": 100
    },
    {
      "midi": 35,
      "hit": false,
      "t": 48181.76999999972,
      "d": 163.63620000000083,
      "v": 100
    },
    {
      "midi": 77,
      "hit": false,
      "t": 48181.76999999972,
      "d": 163.63620000000083,
      "v": 100
    },
    {
      "midi": 44,
      "hit": false,
      "t": 48181.76999999972,
      "d": 163.63620000000083,
      "v": 100
    },
    {
      "midi": 69,
      "hit": false,
      "t": 48181.76999999972,
      "d": 327.2723999999944,
      "v": 100
    },
    {
      "midi": 38,
      "hit": false,
      "t": 48181.76999999972,
      "d": 327.2723999999944,
      "v": 100
    },
    {
      "midi": 58,
      "hit": false,
      "t": 48181.76999999972,
      "d": 490.9085999999879,
      "v": 100
    },
    {
      "midi": 62,
      "hit": false,
      "t": 48181.76999999972,
      "d": 490.9085999999879,
      "v": 100
    },
    {
      "midi": 65,
      "hit": false,
      "t": 48363.58799999972,
      "d": 81.81809999999678,
      "v": 100
    },
    {
      "midi": 65,
      "hit": false,
      "t": 48545.40599999971,
      "d": 81.81809999999678,
      "v": 100
    },
    {
      "midi": 67,
      "hit": false,
      "t": 48545.40599999971,
      "d": 163.63619999999355,
      "v": 100
    },
    {
      "midi": 36,
      "hit": false,
      "t": 48545.40599999971,
      "d": 163.63619999999355,
      "v": 100
    },
    {
      "midi": 40,
      "hit": false,
      "t": 48545.40599999971,
      "d": 163.63619999999355,
      "v": 100
    },
    {
      "midi": 35,
      "hit": false,
      "t": 48545.40599999971,
      "d": 163.63619999999355,
      "v": 100
    },
    {
      "midi": 77,
      "hit": false,
      "t": 48545.40599999971,
      "d": 163.63619999999355,
      "v": 100
    },
    {
      "midi": 44,
      "hit": false,
      "t": 48545.40599999971,
      "d": 163.63619999999355,
      "v": 100
    },
    {
      "midi": 40,
      "hit": false,
      "t": 48727.223999999704,
      "d": 163.63620000000083,
      "v": 100
    },
    {
      "midi": 35,
      "hit": false,
      "t": 48727.223999999704,
      "d": 163.63620000000083,
      "v": 100
    },
    {
      "midi": 77,
      "hit": false,
      "t": 48727.223999999704,
      "d": 163.63620000000083,
      "v": 100
    },
    {
      "midi": 44,
      "hit": false,
      "t": 48727.223999999704,
      "d": 163.63620000000083,
      "v": 100
    },
    {
      "midi": 69,
      "hit": false,
      "t": 48727.223999999704,
      "d": 327.27240000000165,
      "v": 100
    },
    {
      "midi": 58,
      "hit": false,
      "t": 48727.223999999704,
      "d": 327.27240000000165,
      "v": 100
    },
    {
      "midi": 62,
      "hit": false,
      "t": 48727.223999999704,
      "d": 327.27240000000165,
      "v": 100
    },
    {
      "midi": 65,
      "hit": false,
      "t": 48727.223999999704,
      "d": 327.27240000000165,
      "v": 100
    },
    {
      "midi": 38,
      "hit": false,
      "t": 48727.223999999704,
      "d": 327.27240000000165,
      "v": 100
    },
    {
      "midi": 65,
      "hit": false,
      "t": 49090.8599999997,
      "d": 81.81809999999678,
      "v": 100
    },
    {
      "midi": 35,
      "hit": false,
      "t": 49090.8599999997,
      "d": 131.81805000000168,
      "v": 100
    },
    {
      "midi": 77,
      "hit": false,
      "t": 49090.8599999997,
      "d": 163.63620000000083,
      "v": 100
    },
    {
      "midi": 44,
      "hit": false,
      "t": 49090.8599999997,
      "d": 163.63620000000083,
      "v": 100
    },
    {
      "midi": 40,
      "hit": false,
      "t": 49090.8599999997,
      "d": 222.72705000000133,
      "v": 100
    },
    {
      "midi": 72,
      "hit": false,
      "t": 49090.8599999997,
      "d": 327.27240000000165,
      "v": 100
    },
    {
      "midi": 58,
      "hit": false,
      "t": 49090.8599999997,
      "d": 327.27240000000165,
      "v": 100
    },
    {
      "midi": 62,
      "hit": false,
      "t": 49090.8599999997,
      "d": 327.27240000000165,
      "v": 100
    },
    {
      "midi": 38,
      "hit": false,
      "t": 49090.8599999997,
      "d": 327.27240000000165,
      "v": 100
    },
    {
      "midi": 40,
      "hit": false,
      "t": 49454.4959999997,
      "d": 131.81805000000168,
      "v": 100
    },
    {
      "midi": 77,
      "hit": false,
      "t": 49454.4959999997,
      "d": 163.63620000000083,
      "v": 100
    },
    {
      "midi": 55,
      "hit": false,
      "t": 49454.4959999997,
      "d": 163.63620000000083,
      "v": 100
    },
    {
      "midi": 35,
      "hit": false,
      "t": 49454.4959999997,
      "d": 222.72705000000133,
      "v": 100
    },
    {
      "midi": 67,
      "hit": false,
      "t": 49454.4959999997,
      "d": 327.27240000000165,
      "v": 100
    },
    {
      "midi": 36,
      "hit": false,
      "t": 49454.4959999997,
      "d": 1309.0895999999848,
      "v": 100
    },
    {
      "midi": 64,
      "hit": false,
      "t": 49818.1319999997,
      "d": 81.81809999999678,
      "v": 100
    },
    {
      "midi": 60,
      "hit": false,
      "t": 49818.1319999997,
      "d": 163.63619999999355,
      "v": 100
    },
    {
      "midi": 35,
      "hit": false,
      "t": 49818.1319999997,
      "d": 327.2723999999871,
      "v": 100
    },
    {
      "midi": 64,
      "hit": false,
      "t": 49999.94999999969,
      "d": 81.81809999999678,
      "v": 100
    },
    {
      "midi": 62,
      "hit": false,
      "t": 49999.94999999969,
      "d": 163.63619999999355,
      "v": 100
    },
    {
      "midi": 64,
      "hit": false,
      "t": 50181.76799999968,
      "d": 327.27240000000165,
      "v": 100
    },
    {
      "midi": 35,
      "hit": false,
      "t": 50181.76799999968,
      "d": 327.27240000000165,
      "v": 100
    },
    {
      "midi": 65,
      "hit": false,
      "t": 50545.40399999968,
      "d": 327.27240000000165,
      "v": 100
    },
    {
      "midi": 35,
      "hit": false,
      "t": 50545.40399999968,
      "d": 327.27240000000165,
      "v": 100
    },
    {
      "midi": 35,
      "hit": false,
      "t": 50909.03999999968,
      "d": 163.63620000002265,
      "v": 100
    },
    {
      "midi": 55,
      "hit": false,
      "t": 50909.03999999968,
      "d": 163.63620000002265,
      "v": 100
    },
    {
      "midi": 52,
      "hit": false,
      "t": 50909.03999999968,
      "d": 163.63620000002265,
      "v": 100
    },
    {
      "midi": 65,
      "hit": false,
      "t": 50909.03999999968,
      "d": 1309.0896000001958,
      "v": 100
    },
    {
      "midi": 62,
      "hit": false,
      "t": 50909.03999999968,
      "d": 1309.0896000001958,
      "v": 100
    },
    {
      "midi": 57,
      "hit": false,
      "t": 50909.03999999968,
      "d": 1309.0896000001958,
      "v": 100
    },
    {
      "midi": 35,
      "hit": false,
      "t": 51636.31199999979,
      "d": 163.63620000002265,
      "v": 100
    },
    {
      "midi": 35,
      "hit": false,
      "t": 52363.58399999989,
      "d": 163.63620000002265,
      "v": 100
    },
    {
      "midi": 35,
      "hit": false,
      "t": 52909.03799999997,
      "d": 163.63620000002265,
      "v": 100
    },
    {
      "midi": 35,
      "hit": false,
      "t": 53090.85599999999,
      "d": 527.2721999999994,
      "v": 100
    },
    {
      "midi": 60,
      "hit": false,
      "t": 53272.67399999999,
      "d": 163.63620000000083,
      "v": 100
    },
    {
      "midi": 40,
      "hit": false,
      "t": 53272.67399999999,
      "d": 163.63620000000083,
      "v": 100
    },
    {
      "midi": 60,
      "hit": false,
      "t": 53454.49199999999,
      "d": 163.63620000000083,
      "v": 100
    },
    {
      "midi": 40,
      "hit": false,
      "t": 53454.49199999999,
      "d": 163.63620000000083,
      "v": 100
    },
    {
      "midi": 60,
      "hit": false,
      "t": 53636.30999999999,
      "d": 163.63620000000083,
      "v": 100
    },
    {
      "midi": 40,
      "hit": false,
      "t": 53636.30999999999,
      "d": 163.63620000000083,
      "v": 100
    },
    {
      "midi": 35,
      "hit": false,
      "t": 53636.30999999999,
      "d": 163.63620000000083,
      "v": 100
    },
    {
      "midi": 35,
      "hit": false,
      "t": 53818.12799999999,
      "d": 163.63620000000083,
      "v": 100
    },
    {
      "midi": 65,
      "hit": false,
      "t": 53818.12799999999,
      "d": 327.27240000000165,
      "v": 100
    },
    {
      "midi": 41,
      "hit": false,
      "t": 53818.12799999999,
      "d": 490.9085999999952,
      "v": 100
    },
    {
      "midi": 49,
      "hit": false,
      "t": 53818.12799999999,
      "d": 654.544799999996,
      "v": 100
    },
    {
      "midi": 57,
      "hit": false,
      "t": 53818.12799999999,
      "d": 1309.0895999999848,
      "v": 100
    },
    {
      "midi": 69,
      "hit": false,
      "t": 53999.94599999999,
      "d": 163.63620000000083,
      "v": 100
    },
    {
      "midi": 65,
      "hit": false,
      "t": 54181.76399999999,
      "d": 81.81809999999678,
      "v": 100
    },
    {
      "midi": 67,
      "hit": false,
      "t": 54181.76399999999,
      "d": 327.27240000000165,
      "v": 100
    },
    {
      "midi": 40,
      "hit": false,
      "t": 54181.76399999999,
      "d": 327.27240000000165,
      "v": 100
    },
    {
      "midi": 65,
      "hit": false,
      "t": 54363.58199999999,
      "d": 81.81809999999678,
      "v": 100
    },
    {
      "midi": 41,
      "hit": false,
      "t": 54363.58199999999,
      "d": 163.63620000000083,
      "v": 100
    },
    {
      "midi": 35,
      "hit": false,
      "t": 54363.58199999999,
      "d": 163.63620000000083,
      "v": 100
    },
    {
      "midi": 69,
      "hit": false,
      "t": 54545.39999999999,
      "d": 163.63620000000083,
      "v": 100
    },
    {
      "midi": 35,
      "hit": false,
      "t": 54545.39999999999,
      "d": 163.63620000000083,
      "v": 100
    },
    {
      "midi": 62,
      "hit": false,
      "t": 54545.39999999999,
      "d": 327.27240000000165,
      "v": 100
    },
    {
      "midi": 41,
      "hit": false,
      "t": 54545.39999999999,
      "d": 327.27240000000165,
      "v": 100
    },
    {
      "midi": 65,
      "hit": false,
      "t": 54909.035999999986,
      "d": 81.81809999999678,
      "v": 100
    },
    {
      "midi": 60,
      "hit": false,
      "t": 54909.035999999986,
      "d": 163.63619999999355,
      "v": 100
    },
    {
      "midi": 38,
      "hit": false,
      "t": 54909.035999999986,
      "d": 163.63619999999355,
      "v": 100
    },
    {
      "midi": 40,
      "hit": false,
      "t": 54909.035999999986,
      "d": 327.2723999999871,
      "v": 100
    },
    {
      "midi": 62,
      "hit": false,
      "t": 55090.85399999998,
      "d": 163.63619999999355,
      "v": 100
    },
    {
      "midi": 36,
      "hit": false,
      "t": 55090.85399999998,
      "d": 163.63619999999355,
      "v": 100
    },
    {
      "midi": 65,
      "hit": false,
      "t": 55272.67199999997,
      "d": 163.63620000000083,
      "v": 100
    },
    {
      "midi": 41,
      "hit": false,
      "t": 55272.67199999997,
      "d": 163.63620000000083,
      "v": 100
    },
    {
      "midi": 35,
      "hit": false,
      "t": 55272.67199999997,
      "d": 163.63620000000083,
      "v": 100
    },
    {
      "midi": 65,
      "hit": false,
      "t": 55454.48999999997,
      "d": 163.63620000000083,
      "v": 100
    },
    {
      "midi": 69,
      "hit": false,
      "t": 55454.48999999997,
      "d": 163.63620000000083,
      "v": 100
    },
    {
      "midi": 41,
      "hit": false,
      "t": 55454.48999999997,
      "d": 327.2723999999944,
      "v": 100
    },
    {
      "midi": 65,
      "hit": false,
      "t": 55636.30799999997,
      "d": 81.81809999999678,
      "v": 100
    },
    {
      "midi": 40,
      "hit": false,
      "t": 55636.30799999997,
      "d": 327.2723999999871,
      "v": 100
    },
    {
      "midi": 65,
      "hit": false,
      "t": 55818.12599999996,
      "d": 81.81809999999678,
      "v": 100
    },
    {
      "midi": 67,
      "hit": false,
      "t": 55818.12599999996,
      "d": 163.63619999999355,
      "v": 100
    },
    {
      "midi": 36,
      "hit": false,
      "t": 55818.12599999996,
      "d": 163.63619999999355,
      "v": 100
    },
    {
      "midi": 35,
      "hit": false,
      "t": 55818.12599999996,
      "d": 163.63619999999355,
      "v": 100
    },
    {
      "midi": 41,
      "hit": false,
      "t": 55999.94399999995,
      "d": 163.63620000000083,
      "v": 100
    },
    {
      "midi": 69,
      "hit": false,
      "t": 55999.94399999995,
      "d": 163.63620000000083,
      "v": 100
    },
    {
      "midi": 35,
      "hit": false,
      "t": 55999.94399999995,
      "d": 163.63620000000083,
      "v": 100
    },
    {
      "midi": 62,
      "hit": false,
      "t": 55999.94399999995,
      "d": 654.5447999999888,
      "v": 100
    },
    {
      "midi": 28,
      "hit": false,
      "t": 56181.76199999995,
      "d": 81.81809999999678,
      "v": 100
    },
    {
      "midi": 28,
      "hit": false,
      "t": 56272.67099999995,
      "d": 81.81809999999678,
      "v": 100
    },
    {
      "midi": 65,
      "hit": false,
      "t": 56363.57999999995,
      "d": 81.81809999999678,
      "v": 100
    },
    {
      "midi": 77,
      "hit": false,
      "t": 56363.57999999995,
      "d": 163.63619999999355,
      "v": 100
    },
    {
      "midi": 36,
      "hit": false,
      "t": 56363.57999999995,
      "d": 327.2723999999871,
      "v": 100
    },
    {
      "midi": 40,
      "hit": false,
      "t": 56363.57999999995,
      "d": 327.2723999999871,
      "v": 100
    },
    {
      "midi": 28,
      "hit": false,
      "t": 56363.57999999995,
      "d": 327.2723999999871,
      "v": 100
    },
    {
      "midi": 77,
      "hit": false,
      "t": 56545.39799999994,
      "d": 163.63619999999355,
      "v": 100
    },
    {
      "midi": 35,
      "hit": false,
      "t": 56727.215999999935,
      "d": 163.63620000000083,
      "v": 100
    },
    {
      "midi": 65,
      "hit": false,
      "t": 56727.215999999935,
      "d": 327.27240000000165,
      "v": 100
    },
    {
      "midi": 38,
      "hit": false,
      "t": 56727.215999999935,
      "d": 490.9085999999952,
      "v": 100
    },
    {
      "midi": 57,
      "hit": false,
      "t": 56727.215999999935,
      "d": 1309.0895999999775,
      "v": 100
    },
    {
      "midi": 69,
      "hit": false,
      "t": 56909.033999999934,
      "d": 163.63620000000083,
      "v": 100
    },
    {
      "midi": 62,
      "hit": false,
      "t": 57090.85199999993,
      "d": 81.81809999999678,
      "v": 100
    },
    {
      "midi": 67,
      "hit": false,
      "t": 57090.85199999993,
      "d": 327.2723999999944,
      "v": 100
    },
    {
      "midi": 40,
      "hit": false,
      "t": 57090.85199999993,
      "d": 327.2723999999944,
      "v": 100
    },
    {
      "midi": 62,
      "hit": false,
      "t": 57272.66999999993,
      "d": 81.81809999999678,
      "v": 100
    },
    {
      "midi": 38,
      "hit": false,
      "t": 57272.66999999993,
      "d": 163.63619999999355,
      "v": 100
    },
    {
      "midi": 35,
      "hit": false,
      "t": 57272.66999999993,
      "d": 163.63619999999355,
      "v": 100
    },
    {
      "midi": 69,
      "hit": false,
      "t": 57454.487999999925,
      "d": 163.63620000000083,
      "v": 100
    },
    {
      "midi": 35,
      "hit": false,
      "t": 57454.487999999925,
      "d": 163.63620000000083,
      "v": 100
    },
    {
      "midi": 62,
      "hit": false,
      "t": 57454.487999999925,
      "d": 327.27240000000165,
      "v": 100
    },
    {
      "midi": 38,
      "hit": false,
      "t": 57454.487999999925,
      "d": 327.27240000000165,
      "v": 100
    },
    {
      "midi": 62,
      "hit": false,
      "t": 57818.12399999992,
      "d": 81.81809999999678,
      "v": 100
    },
    {
      "midi": 60,
      "hit": false,
      "t": 57818.12399999992,
      "d": 163.63619999999355,
      "v": 100
    },
    {
      "midi": 36,
      "hit": false,
      "t": 57818.12399999992,
      "d": 163.63619999999355,
      "v": 100
    },
    {
      "midi": 40,
      "hit": false,
      "t": 57818.12399999992,
      "d": 327.2723999999871,
      "v": 100
    },
    {
      "midi": 62,
      "hit": false,
      "t": 57999.941999999915,
      "d": 36.36359999999695,
      "v": 100
    },
    {
      "midi": 33,
      "hit": false,
      "t": 57999.941999999915,
      "d": 163.63619999999355,
      "v": 100
    },
    {
      "midi": 65,
      "hit": false,
      "t": 58181.75999999991,
      "d": 163.63620000000083,
      "v": 100
    },
    {
      "midi": 38,
      "hit": false,
      "t": 58181.75999999991,
      "d": 163.63620000000083,
      "v": 100
    },
    {
      "midi": 35,
      "hit": false,
      "t": 58181.75999999991,
      "d": 163.63620000000083,
      "v": 100
    },
    {
      "midi": 65,
      "hit": false,
      "t": 58363.57799999991,
      "d": 163.63620000000083,
      "v": 100
    },
    {
      "midi": 69,
      "hit": false,
      "t": 58363.57799999991,
      "d": 312.8784749999977,
      "v": 100
    },
    {
      "midi": 38,
      "hit": false,
      "t": 58363.57799999991,
      "d": 327.2723999999944,
      "v": 100
    },
    {
      "midi": 62,
      "hit": false,
      "t": 58545.395999999906,
      "d": 81.81809999999678,
      "v": 100
    },
    {
      "midi": 65,
      "hit": false,
      "t": 58545.395999999906,
      "d": 163.63619999999355,
      "v": 100
    },
    {
      "midi": 40,
      "hit": false,
      "t": 58545.395999999906,
      "d": 327.2723999999871,
      "v": 100
    },
    {
      "midi": 62,
      "hit": false,
      "t": 58727.2139999999,
      "d": 81.81809999999678,
      "v": 100
    },
    {
      "midi": 67,
      "hit": false,
      "t": 58727.2139999999,
      "d": 163.63619999999355,
      "v": 100
    },
    {
      "midi": 33,
      "hit": false,
      "t": 58727.2139999999,
      "d": 163.63619999999355,
      "v": 100
    },
    {
      "midi": 35,
      "hit": false,
      "t": 58727.2139999999,
      "d": 163.63619999999355,
      "v": 100
    },
    {
      "midi": 38,
      "hit": false,
      "t": 58909.03199999989,
      "d": 163.63620000000083,
      "v": 100
    },
    {
      "midi": 69,
      "hit": false,
      "t": 58909.03199999989,
      "d": 163.63620000000083,
      "v": 100
    },
    {
      "midi": 35,
      "hit": false,
      "t": 58909.03199999989,
      "d": 163.63620000000083,
      "v": 100
    },
    {
      "midi": 39,
      "hit": false,
      "t": 59090.84999999989,
      "d": 163.63620000000083,
      "v": 100
    },
    {
      "midi": 62,
      "hit": false,
      "t": 59272.66799999989,
      "d": 81.81809999999678,
      "v": 100
    },
    {
      "midi": 77,
      "hit": false,
      "t": 59272.66799999989,
      "d": 163.63619999999355,
      "v": 100
    },
    {
      "midi": 33,
      "hit": false,
      "t": 59272.66799999989,
      "d": 327.2723999999871,
      "v": 100
    },
    {
      "midi": 40,
      "hit": false,
      "t": 59272.66799999989,
      "d": 327.2723999999871,
      "v": 100
    },
    {
      "midi": 39,
      "hit": false,
      "t": 59272.66799999989,
      "d": 327.2723999999871,
      "v": 100
    },
    {
      "midi": 77,
      "hit": false,
      "t": 59454.48599999988,
      "d": 163.63619999999355,
      "v": 100
    },
    {
      "midi": 35,
      "hit": false,
      "t": 59636.30399999987,
      "d": 163.63620000000083,
      "v": 100
    },
    {
      "midi": 65,
      "hit": false,
      "t": 59636.30399999987,
      "d": 327.27240000000165,
      "v": 100
    },
    {
      "midi": 34,
      "hit": false,
      "t": 59636.30399999987,
      "d": 490.9085999999952,
      "v": 100
    },
    {
      "midi": 58,
      "hit": false,
      "t": 59636.30399999987,
      "d": 1309.0895999999848,
      "v": 100
    },
    {
      "midi": 69,
      "hit": false,
      "t": 59818.12199999987,
      "d": 163.63620000000083,
      "v": 100
    },
    {
      "midi": 65,
      "hit": false,
      "t": 59999.93999999987,
      "d": 81.81809999999678,
      "v": 100
    },
    {
      "midi": 67,
      "hit": false,
      "t": 59999.93999999987,
      "d": 327.27240000000165,
      "v": 100
    },
    {
      "midi": 40,
      "hit": false,
      "t": 59999.93999999987,
      "d": 474.241949999996,
      "v": 100
    },
    {
      "midi": 65,
      "hit": false,
      "t": 60181.75799999987,
      "d": 81.81809999999678,
      "v": 100
    },
    {
      "midi": 34,
      "hit": false,
      "t": 60181.75799999987,
      "d": 163.63620000000083,
      "v": 100
    },
    {
      "midi": 35,
      "hit": false,
      "t": 60181.75799999987,
      "d": 163.63620000000083,
      "v": 100
    },
    {
      "midi": 69,
      "hit": false,
      "t": 60363.57599999987,
      "d": 163.63620000000083,
      "v": 100
    },
    {
      "midi": 35,
      "hit": false,
      "t": 60363.57599999987,
      "d": 163.63620000000083,
      "v": 100
    },
    {
      "midi": 62,
      "hit": false,
      "t": 60363.57599999987,
      "d": 327.27240000000165,
      "v": 100
    },
    {
      "midi": 34,
      "hit": false,
      "t": 60363.57599999987,
      "d": 327.27240000000165,
      "v": 100
    },
    {
      "midi": 65,
      "hit": false,
      "t": 60727.21199999987,
      "d": 81.81809999999678,
      "v": 100
    },
    {
      "midi": 33,
      "hit": false,
      "t": 60727.21199999987,
      "d": 163.63619999999355,
      "v": 100
    },
    {
      "midi": 40,
      "hit": false,
      "t": 60727.21199999987,
      "d": 327.2723999999871,
      "v": 100
    },
    {
      "midi": 67,
      "hit": false,
      "t": 60909.02999999986,
      "d": 163.63619999999355,
      "v": 100
    },
    {
      "midi": 31,
      "hit": false,
      "t": 60909.02999999986,
      "d": 163.63619999999355,
      "v": 100
    },
    {
      "midi": 36,
      "hit": false,
      "t": 61090.84799999985,
      "d": 163.63620000000083,
      "v": 100
    },
    {
      "midi": 35,
      "hit": false,
      "t": 61090.84799999985,
      "d": 163.63620000000083,
      "v": 100
    },
    {
      "midi": 72,
      "hit": false,
      "t": 61090.84799999985,
      "d": 327.27240000000165,
      "v": 100
    },
    {
      "midi": 58,
      "hit": false,
      "t": 61090.84799999985,
      "d": 1309.0895999999702,
      "v": 100
    },
    {
      "midi": 36,
      "hit": false,
      "t": 61272.66599999985,
      "d": 163.63620000000083,
      "v": 100
    },
    {
      "midi": 69,
      "hit": false,
      "t": 61272.66599999985,
      "d": 163.63620000000083,
      "v": 100
    },
    {
      "midi": 65,
      "hit": false,
      "t": 61454.48399999985,
      "d": 81.81809999999678,
      "v": 100
    },
    {
      "midi": 69,
      "hit": false,
      "t": 61454.48399999985,
      "d": 163.63619999999355,
      "v": 100
    },
    {
      "midi": 40,
      "hit": false,
      "t": 61454.48399999985,
      "d": 571.2115499999854,
      "v": 100
    },
    {
      "midi": 65,
      "hit": false,
      "t": 61636.30199999984,
      "d": 81.81809999999678,
      "v": 100
    },
    {
      "midi": 67,
      "hit": false,
      "t": 61636.30199999984,
      "d": 163.63619999999355,
      "v": 100
    },
    {
      "midi": 36,
      "hit": false,
      "t": 61636.30199999984,
      "d": 163.63619999999355,
      "v": 100
    },
    {
      "midi": 35,
      "hit": false,
      "t": 61636.30199999984,
      "d": 163.63619999999355,
      "v": 100
    },
    {
      "midi": 69,
      "hit": false,
      "t": 61818.119999999835,
      "d": 163.63620000000083,
      "v": 100
    },
    {
      "midi": 35,
      "hit": false,
      "t": 61818.119999999835,
      "d": 163.63620000000083,
      "v": 100
    },
    {
      "midi": 65,
      "hit": false,
      "t": 61818.119999999835,
      "d": 327.27240000000165,
      "v": 100
    },
    {
      "midi": 36,
      "hit": false,
      "t": 61818.119999999835,
      "d": 327.27240000000165,
      "v": 100
    },
    {
      "midi": 65,
      "hit": false,
      "t": 62181.755999999834,
      "d": 81.81809999999678,
      "v": 100
    },
    {
      "midi": 77,
      "hit": false,
      "t": 62181.755999999834,
      "d": 163.63619999999355,
      "v": 100
    },
    {
      "midi": 62,
      "hit": false,
      "t": 62181.755999999834,
      "d": 218.18159999998898,
      "v": 100
    },
    {
      "midi": 38,
      "hit": false,
      "t": 62181.755999999834,
      "d": 327.2723999999871,
      "v": 100
    },
    {
      "midi": 40,
      "hit": false,
      "t": 62181.755999999834,
      "d": 327.2723999999871,
      "v": 100
    },
    {
      "midi": 77,
      "hit": false,
      "t": 62363.573999999826,
      "d": 163.63619999999355,
      "v": 100
    },
    {
      "midi": 35,
      "hit": false,
      "t": 62545.39199999982,
      "d": 163.63620000000083,
      "v": 100
    },
    {
      "midi": 41,
      "hit": false,
      "t": 62545.39199999982,
      "d": 490.9085999999952,
      "v": 100
    },
    {
      "midi": 60,
      "hit": false,
      "t": 62545.39199999982,
      "d": 1309.0895999999775,
      "v": 100
    },
    {
      "midi": 57,
      "hit": false,
      "t": 62545.39199999982,
      "d": 1309.0895999999775,
      "v": 100
    },
    {
      "midi": 69,
      "hit": false,
      "t": 62727.20999999982,
      "d": 163.63620000000083,
      "v": 100
    },
    {
      "midi": 65,
      "hit": false,
      "t": 62909.02799999982,
      "d": 81.81809999999678,
      "v": 100
    },
    {
      "midi": 40,
      "hit": false,
      "t": 62909.02799999982,
      "d": 327.2723999999944,
      "v": 100
    },
    {
      "midi": 65,
      "hit": false,
      "t": 63090.845999999816,
      "d": 81.81809999999678,
      "v": 100
    },
    {
      "midi": 41,
      "hit": false,
      "t": 63090.845999999816,
      "d": 163.63619999999355,
      "v": 100
    },
    {
      "midi": 35,
      "hit": false,
      "t": 63090.845999999816,
      "d": 163.63619999999355,
      "v": 100
    },
    {
      "midi": 69,
      "hit": false,
      "t": 63272.66399999981,
      "d": 163.63620000000083,
      "v": 100
    },
    {
      "midi": 35,
      "hit": false,
      "t": 63272.66399999981,
      "d": 163.63620000000083,
      "v": 100
    },
    {
      "midi": 41,
      "hit": false,
      "t": 63272.66399999981,
      "d": 327.27240000000165,
      "v": 100
    },
    {
      "midi": 65,
      "hit": false,
      "t": 63636.29999999981,
      "d": 81.81809999999678,
      "v": 100
    },
    {
      "midi": 38,
      "hit": false,
      "t": 63636.29999999981,
      "d": 163.63619999999355,
      "v": 100
    },
    {
      "midi": 40,
      "hit": false,
      "t": 63636.29999999981,
      "d": 327.2723999999944,
      "v": 100
    },
    {
      "midi": 65,
      "hit": false,
      "t": 63818.1179999998,
      "d": 81.81809999999678,
      "v": 100
    },
    {
      "midi": 36,
      "hit": false,
      "t": 63818.1179999998,
      "d": 163.63620000000083,
      "v": 100
    },
    {
      "midi": 69,
      "hit": false,
      "t": 63999.9359999998,
      "d": 163.63620000000083,
      "v": 100
    },
    {
      "midi": 64,
      "hit": false,
      "t": 63999.9359999998,
      "d": 163.63620000000083,
      "v": 100
    },
    {
      "midi": 38,
      "hit": false,
      "t": 63999.9359999998,
      "d": 163.63620000000083,
      "v": 100
    },
    {
      "midi": 35,
      "hit": false,
      "t": 63999.9359999998,
      "d": 163.63620000000083,
      "v": 100
    },
    {
      "midi": 67,
      "hit": false,
      "t": 64181.7539999998,
      "d": 163.63620000000083,
      "v": 100
    },
    {
      "midi": 62,
      "hit": false,
      "t": 64181.7539999998,
      "d": 163.63620000000083,
      "v": 100
    },
    {
      "midi": 69,
      "hit": false,
      "t": 64181.7539999998,
      "d": 163.63620000000083,
      "v": 100
    },
    {
      "midi": 38,
      "hit": false,
      "t": 64181.7539999998,
      "d": 327.2723999999944,
      "v": 100
    },
    {
      "midi": 65,
      "hit": false,
      "t": 64363.5719999998,
      "d": 81.81809999999678,
      "v": 100
    },
    {
      "midi": 69,
      "hit": false,
      "t": 64363.5719999998,
      "d": 163.63619999999355,
      "v": 100
    },
    {
      "midi": 64,
      "hit": false,
      "t": 64363.5719999998,
      "d": 163.63619999999355,
      "v": 100
    },
    {
      "midi": 40,
      "hit": false,
      "t": 64363.5719999998,
      "d": 327.2723999999871,
      "v": 100
    },
    {
      "midi": 65,
      "hit": false,
      "t": 64545.38999999979,
      "d": 81.81809999999678,
      "v": 100
    },
    {
      "midi": 72,
      "hit": false,
      "t": 64545.38999999979,
      "d": 163.63619999999355,
      "v": 100
    },
    {
      "midi": 67,
      "hit": false,
      "t": 64545.38999999979,
      "d": 163.63619999999355,
      "v": 100
    },
    {
      "midi": 43,
      "hit": false,
      "t": 64545.38999999979,
      "d": 163.63619999999355,
      "v": 100
    },
    {
      "midi": 35,
      "hit": false,
      "t": 64545.38999999979,
      "d": 163.63619999999355,
      "v": 100
    },
    {
      "midi": 69,
      "hit": false,
      "t": 64727.20799999978,
      "d": 163.63620000000083,
      "v": 100
    },
    {
      "midi": 35,
      "hit": false,
      "t": 64727.20799999978,
      "d": 163.63620000000083,
      "v": 100
    },
    {
      "midi": 64,
      "hit": false,
      "t": 64727.20799999978,
      "d": 327.27240000000165,
      "v": 100
    },
    {
      "midi": 38,
      "hit": false,
      "t": 64727.20799999978,
      "d": 327.27240000000165,
      "v": 100
    },
    {
      "midi": 40,
      "hit": false,
      "t": 64909.02599999978,
      "d": 163.63620000000083,
      "v": 100
    },
    {
      "midi": 60,
      "hit": false,
      "t": 65090.84399999978,
      "d": 81.81809999999678,
      "v": 100
    },
    {
      "midi": 40,
      "hit": false,
      "t": 65090.84399999978,
      "d": 163.63619999999355,
      "v": 100
    },
    {
      "midi": 77,
      "hit": false,
      "t": 65090.84399999978,
      "d": 163.63619999999355,
      "v": 100
    },
    {
      "midi": 67,
      "hit": false,
      "t": 65090.84399999978,
      "d": 327.2723999999944,
      "v": 100
    },
    {
      "midi": 62,
      "hit": false,
      "t": 65090.84399999978,
      "d": 327.2723999999944,
      "v": 100
    },
    {
      "midi": 36,
      "hit": false,
      "t": 65090.84399999978,
      "d": 327.2723999999944,
      "v": 100
    },
    {
      "midi": 77,
      "hit": false,
      "t": 65272.66199999977,
      "d": 163.63620000000083,
      "v": 100
    },
    {
      "midi": 35,
      "hit": false,
      "t": 65454.47999999977,
      "d": 163.63620000000083,
      "v": 100
    },
    {
      "midi": 65,
      "hit": false,
      "t": 65454.47999999977,
      "d": 327.27240000000893,
      "v": 100
    },
    {
      "midi": 41,
      "hit": false,
      "t": 65454.47999999977,
      "d": 490.9086000000316,
      "v": 100
    },
    {
      "midi": 49,
      "hit": false,
      "t": 65454.47999999977,
      "d": 654.5448000000397,
      "v": 100
    },
    {
      "midi": 57,
      "hit": false,
      "t": 65454.47999999977,
      "d": 1309.089600000043,
      "v": 100
    },
    {
      "midi": 69,
      "hit": false,
      "t": 65636.29799999978,
      "d": 163.6362000000081,
      "v": 100
    },
    {
      "midi": 65,
      "hit": false,
      "t": 65818.11599999979,
      "d": 81.81810000000405,
      "v": 100
    },
    {
      "midi": 67,
      "hit": false,
      "t": 65818.11599999979,
      "d": 327.2724000000162,
      "v": 100
    },
    {
      "midi": 40,
      "hit": false,
      "t": 65818.11599999979,
      "d": 327.2724000000162,
      "v": 100
    },
    {
      "midi": 65,
      "hit": false,
      "t": 65999.9339999998,
      "d": 81.81810000000405,
      "v": 100
    },
    {
      "midi": 41,
      "hit": false,
      "t": 65999.9339999998,
      "d": 163.6362000000081,
      "v": 100
    },
    {
      "midi": 35,
      "hit": false,
      "t": 65999.9339999998,
      "d": 163.6362000000081,
      "v": 100
    },
    {
      "midi": 69,
      "hit": false,
      "t": 66181.75199999982,
      "d": 163.63619999999355,
      "v": 100
    },
    {
      "midi": 35,
      "hit": false,
      "t": 66181.75199999982,
      "d": 163.63619999999355,
      "v": 100
    },
    {
      "midi": 62,
      "hit": false,
      "t": 66181.75199999982,
      "d": 327.2723999999871,
      "v": 100
    },
    {
      "midi": 41,
      "hit": false,
      "t": 66181.75199999982,
      "d": 327.2723999999871,
      "v": 100
    },
    {
      "midi": 65,
      "hit": false,
      "t": 66545.3879999998,
      "d": 81.81810000000405,
      "v": 100
    },
    {
      "midi": 60,
      "hit": false,
      "t": 66545.3879999998,
      "d": 163.6362000000081,
      "v": 100
    },
    {
      "midi": 38,
      "hit": false,
      "t": 66545.3879999998,
      "d": 163.6362000000081,
      "v": 100
    },
    {
      "midi": 40,
      "hit": false,
      "t": 66545.3879999998,
      "d": 327.2724000000162,
      "v": 100
    },
    {
      "midi": 62,
      "hit": false,
      "t": 66727.20599999982,
      "d": 163.6362000000081,
      "v": 100
    },
    {
      "midi": 36,
      "hit": false,
      "t": 66727.20599999982,
      "d": 163.6362000000081,
      "v": 100
    },
    {
      "midi": 65,
      "hit": false,
      "t": 66909.02399999983,
      "d": 163.63619999999355,
      "v": 100
    },
    {
      "midi": 41,
      "hit": false,
      "t": 66909.02399999983,
      "d": 163.63619999999355,
      "v": 100
    },
    {
      "midi": 35,
      "hit": false,
      "t": 66909.02399999983,
      "d": 163.63619999999355,
      "v": 100
    },
    {
      "midi": 65,
      "hit": false,
      "t": 67090.84199999983,
      "d": 163.63619999999355,
      "v": 100
    },
    {
      "midi": 69,
      "hit": false,
      "t": 67090.84199999983,
      "d": 163.63619999999355,
      "v": 100
    },
    {
      "midi": 41,
      "hit": false,
      "t": 67090.84199999983,
      "d": 327.27240000000165,
      "v": 100
    },
    {
      "midi": 65,
      "hit": false,
      "t": 67272.65999999983,
      "d": 81.81810000000405,
      "v": 100
    },
    {
      "midi": 40,
      "hit": false,
      "t": 67272.65999999983,
      "d": 327.2724000000162,
      "v": 100
    },
    {
      "midi": 65,
      "hit": false,
      "t": 67454.47799999984,
      "d": 81.81810000000405,
      "v": 100
    },
    {
      "midi": 67,
      "hit": false,
      "t": 67454.47799999984,
      "d": 163.6362000000081,
      "v": 100
    },
    {
      "midi": 36,
      "hit": false,
      "t": 67454.47799999984,
      "d": 163.6362000000081,
      "v": 100
    },
    {
      "midi": 35,
      "hit": false,
      "t": 67454.47799999984,
      "d": 163.6362000000081,
      "v": 100
    },
    {
      "midi": 41,
      "hit": false,
      "t": 67636.29599999986,
      "d": 163.63619999999355,
      "v": 100
    },
    {
      "midi": 69,
      "hit": false,
      "t": 67636.29599999986,
      "d": 163.63619999999355,
      "v": 100
    },
    {
      "midi": 35,
      "hit": false,
      "t": 67636.29599999986,
      "d": 163.63619999999355,
      "v": 100
    },
    {
      "midi": 62,
      "hit": false,
      "t": 67636.29599999986,
      "d": 654.5448000000033,
      "v": 100
    },
    {
      "midi": 28,
      "hit": false,
      "t": 67818.11399999986,
      "d": 81.81810000000405,
      "v": 100
    },
    {
      "midi": 28,
      "hit": false,
      "t": 67909.02299999986,
      "d": 81.81810000000405,
      "v": 100
    },
    {
      "midi": 65,
      "hit": false,
      "t": 67999.93199999986,
      "d": 81.81810000000405,
      "v": 100
    },
    {
      "midi": 77,
      "hit": false,
      "t": 67999.93199999986,
      "d": 163.6362000000081,
      "v": 100
    },
    {
      "midi": 36,
      "hit": false,
      "t": 67999.93199999986,
      "d": 327.27240000000165,
      "v": 100
    },
    {
      "midi": 40,
      "hit": false,
      "t": 67999.93199999986,
      "d": 327.27240000000165,
      "v": 100
    },
    {
      "midi": 28,
      "hit": false,
      "t": 67999.93199999986,
      "d": 327.27240000000165,
      "v": 100
    },
    {
      "midi": 35,
      "hit": false,
      "t": 68363.56799999985,
      "d": 163.63619999999355,
      "v": 100
    },
    {
      "midi": 65,
      "hit": false,
      "t": 68363.56799999985,
      "d": 327.27240000000165,
      "v": 100
    },
    {
      "midi": 38,
      "hit": false,
      "t": 68363.56799999985,
      "d": 490.9086000000243,
      "v": 100
    },
    {
      "midi": 57,
      "hit": false,
      "t": 68363.56799999985,
      "d": 1309.0896000000357,
      "v": 100
    },
    {
      "midi": 69,
      "hit": false,
      "t": 68545.38599999985,
      "d": 163.6362000000081,
      "v": 100
    },
    {
      "midi": 62,
      "hit": false,
      "t": 68727.20399999987,
      "d": 81.81810000000405,
      "v": 100
    },
    {
      "midi": 67,
      "hit": false,
      "t": 68727.20399999987,
      "d": 327.2724000000162,
      "v": 100
    },
    {
      "midi": 40,
      "hit": false,
      "t": 68727.20399999987,
      "d": 327.2724000000162,
      "v": 100
    },
    {
      "midi": 62,
      "hit": false,
      "t": 68909.02199999988,
      "d": 81.81810000000405,
      "v": 100
    },
    {
      "midi": 38,
      "hit": false,
      "t": 68909.02199999988,
      "d": 163.6362000000081,
      "v": 100
    },
    {
      "midi": 35,
      "hit": false,
      "t": 68909.02199999988,
      "d": 163.6362000000081,
      "v": 100
    },
    {
      "midi": 69,
      "hit": false,
      "t": 69090.8399999999,
      "d": 163.63619999999355,
      "v": 100
    },
    {
      "midi": 35,
      "hit": false,
      "t": 69090.8399999999,
      "d": 163.63619999999355,
      "v": 100
    },
    {
      "midi": 62,
      "hit": false,
      "t": 69090.8399999999,
      "d": 327.2723999999871,
      "v": 100
    },
    {
      "midi": 38,
      "hit": false,
      "t": 69090.8399999999,
      "d": 327.2723999999871,
      "v": 100
    },
    {
      "midi": 62,
      "hit": false,
      "t": 69454.47599999988,
      "d": 81.81810000000405,
      "v": 100
    },
    {
      "midi": 60,
      "hit": false,
      "t": 69454.47599999988,
      "d": 163.6362000000081,
      "v": 100
    },
    {
      "midi": 36,
      "hit": false,
      "t": 69454.47599999988,
      "d": 163.6362000000081,
      "v": 100
    },
    {
      "midi": 40,
      "hit": false,
      "t": 69454.47599999988,
      "d": 327.2724000000162,
      "v": 100
    },
    {
      "midi": 62,
      "hit": false,
      "t": 69636.29399999989,
      "d": 36.36359999999695,
      "v": 100
    },
    {
      "midi": 33,
      "hit": false,
      "t": 69636.29399999989,
      "d": 163.6362000000081,
      "v": 100
    },
    {
      "midi": 65,
      "hit": false,
      "t": 69818.1119999999,
      "d": 163.63619999999355,
      "v": 100
    },
    {
      "midi": 38,
      "hit": false,
      "t": 69818.1119999999,
      "d": 163.63619999999355,
      "v": 100
    },
    {
      "midi": 35,
      "hit": false,
      "t": 69818.1119999999,
      "d": 163.63619999999355,
      "v": 100
    },
    {
      "midi": 65,
      "hit": false,
      "t": 69999.9299999999,
      "d": 163.63619999999355,
      "v": 100
    },
    {
      "midi": 69,
      "hit": false,
      "t": 69999.9299999999,
      "d": 163.63619999999355,
      "v": 100
    },
    {
      "midi": 38,
      "hit": false,
      "t": 69999.9299999999,
      "d": 327.27240000000165,
      "v": 100
    },
    {
      "midi": 62,
      "hit": false,
      "t": 70181.7479999999,
      "d": 81.81810000000405,
      "v": 100
    },
    {
      "midi": 65,
      "hit": false,
      "t": 70181.7479999999,
      "d": 163.6362000000081,
      "v": 100
    },
    {
      "midi": 40,
      "hit": false,
      "t": 70181.7479999999,
      "d": 327.2724000000162,
      "v": 100
    },
    {
      "midi": 62,
      "hit": false,
      "t": 70363.56599999992,
      "d": 81.81810000000405,
      "v": 100
    },
    {
      "midi": 67,
      "hit": false,
      "t": 70363.56599999992,
      "d": 163.6362000000081,
      "v": 100
    },
    {
      "midi": 33,
      "hit": false,
      "t": 70363.56599999992,
      "d": 163.6362000000081,
      "v": 100
    },
    {
      "midi": 35,
      "hit": false,
      "t": 70363.56599999992,
      "d": 163.6362000000081,
      "v": 100
    },
    {
      "midi": 38,
      "hit": false,
      "t": 70545.38399999993,
      "d": 163.63619999999355,
      "v": 100
    },
    {
      "midi": 69,
      "hit": false,
      "t": 70545.38399999993,
      "d": 163.63619999999355,
      "v": 100
    },
    {
      "midi": 35,
      "hit": false,
      "t": 70545.38399999993,
      "d": 163.63619999999355,
      "v": 100
    },
    {
      "midi": 39,
      "hit": false,
      "t": 70727.20199999993,
      "d": 163.63619999999355,
      "v": 100
    },
    {
      "midi": 62,
      "hit": false,
      "t": 70909.01999999993,
      "d": 81.81810000000405,
      "v": 100
    },
    {
      "midi": 77,
      "hit": false,
      "t": 70909.01999999993,
      "d": 163.6362000000081,
      "v": 100
    },
    {
      "midi": 33,
      "hit": false,
      "t": 70909.01999999993,
      "d": 327.2724000000162,
      "v": 100
    },
    {
      "midi": 39,
      "hit": false,
      "t": 70909.01999999993,
      "d": 327.2724000000162,
      "v": 100
    },
    {
      "midi": 40,
      "hit": false,
      "t": 70909.01999999993,
      "d": 390.15112500003306,
      "v": 100
    },
    {
      "midi": 77,
      "hit": false,
      "t": 71090.83799999995,
      "d": 163.6362000000081,
      "v": 100
    },
    {
      "midi": 35,
      "hit": false,
      "t": 71272.65599999996,
      "d": 163.63620000002265,
      "v": 100
    },
    {
      "midi": 65,
      "hit": false,
      "t": 71272.65599999996,
      "d": 327.2724000000453,
      "v": 100
    },
    {
      "midi": 34,
      "hit": false,
      "t": 71272.65599999996,
      "d": 490.9086000000534,
      "v": 100
    },
    {
      "midi": 58,
      "hit": false,
      "t": 71272.65599999996,
      "d": 1309.0896000000648,
      "v": 100
    },
    {
      "midi": 69,
      "hit": false,
      "t": 71454.47399999999,
      "d": 163.63620000002265,
      "v": 100
    },
    {
      "midi": 65,
      "hit": false,
      "t": 71636.29200000002,
      "d": 81.81810000000405,
      "v": 100
    },
    {
      "midi": 67,
      "hit": false,
      "t": 71636.29200000002,
      "d": 327.27240000000165,
      "v": 100
    },
    {
      "midi": 40,
      "hit": false,
      "t": 71636.29200000002,
      "d": 327.27240000000165,
      "v": 100
    },
    {
      "midi": 65,
      "hit": false,
      "t": 71818.11000000002,
      "d": 81.81810000000405,
      "v": 100
    },
    {
      "midi": 34,
      "hit": false,
      "t": 71818.11000000002,
      "d": 163.6362000000081,
      "v": 100
    },
    {
      "midi": 35,
      "hit": false,
      "t": 71818.11000000002,
      "d": 163.6362000000081,
      "v": 100
    },
    {
      "midi": 35,
      "hit": false,
      "t": 71999.92800000003,
      "d": 163.63619999999355,
      "v": 100
    },
    {
      "midi": 62,
      "hit": false,
      "t": 71999.92800000003,
      "d": 327.2723999999871,
      "v": 100
    },
    {
      "midi": 34,
      "hit": false,
      "t": 71999.92800000003,
      "d": 327.2723999999871,
      "v": 100
    },
    {
      "midi": 69,
      "hit": false,
      "t": 71999.92800000003,
      "d": 680.3023499999981,
      "v": 100
    },
    {
      "midi": 65,
      "hit": false,
      "t": 72363.56400000001,
      "d": 81.81810000000405,
      "v": 100
    },
    {
      "midi": 33,
      "hit": false,
      "t": 72363.56400000001,
      "d": 163.6362000000081,
      "v": 100
    },
    {
      "midi": 40,
      "hit": false,
      "t": 72363.56400000001,
      "d": 327.2724000000162,
      "v": 100
    },
    {
      "midi": 67,
      "hit": false,
      "t": 72545.38200000003,
      "d": 163.6362000000081,
      "v": 100
    },
    {
      "midi": 31,
      "hit": false,
      "t": 72545.38200000003,
      "d": 163.6362000000081,
      "v": 100
    },
    {
      "midi": 36,
      "hit": false,
      "t": 72727.20000000004,
      "d": 163.63619999999355,
      "v": 100
    },
    {
      "midi": 35,
      "hit": false,
      "t": 72727.20000000004,
      "d": 163.63619999999355,
      "v": 100
    },
    {
      "midi": 72,
      "hit": false,
      "t": 72727.20000000004,
      "d": 327.27240000000165,
      "v": 100
    },
    {
      "midi": 62,
      "hit": false,
      "t": 72727.20000000004,
      "d": 1309.0896000000357,
      "v": 100
    },
    {
      "midi": 58,
      "hit": false,
      "t": 72727.20000000004,
      "d": 1309.0896000000357,
      "v": 100
    },
    {
      "midi": 36,
      "hit": false,
      "t": 72909.01800000004,
      "d": 163.6362000000081,
      "v": 100
    },
    {
      "midi": 69,
      "hit": false,
      "t": 72909.01800000004,
      "d": 163.6362000000081,
      "v": 100
    },
    {
      "midi": 65,
      "hit": false,
      "t": 73090.83600000005,
      "d": 81.81810000000405,
      "v": 100
    },
    {
      "midi": 69,
      "hit": false,
      "t": 73090.83600000005,
      "d": 163.6362000000081,
      "v": 100
    },
    {
      "midi": 40,
      "hit": false,
      "t": 73090.83600000005,
      "d": 571.2115500000218,
      "v": 100
    },
    {
      "midi": 65,
      "hit": false,
      "t": 73272.65400000007,
      "d": 81.81810000000405,
      "v": 100
    },
    {
      "midi": 67,
      "hit": false,
      "t": 73272.65400000007,
      "d": 163.6362000000081,
      "v": 100
    },
    {
      "midi": 36,
      "hit": false,
      "t": 73272.65400000007,
      "d": 163.6362000000081,
      "v": 100
    },
    {
      "midi": 35,
      "hit": false,
      "t": 73272.65400000007,
      "d": 163.6362000000081,
      "v": 100
    },
    {
      "midi": 69,
      "hit": false,
      "t": 73454.47200000008,
      "d": 163.63619999999355,
      "v": 100
    },
    {
      "midi": 35,
      "hit": false,
      "t": 73454.47200000008,
      "d": 163.63619999999355,
      "v": 100
    },
    {
      "midi": 65,
      "hit": false,
      "t": 73454.47200000008,
      "d": 327.2723999999871,
      "v": 100
    },
    {
      "midi": 36,
      "hit": false,
      "t": 73454.47200000008,
      "d": 327.2723999999871,
      "v": 100
    },
    {
      "midi": 65,
      "hit": false,
      "t": 73818.10800000007,
      "d": 81.81810000000405,
      "v": 100
    },
    {
      "midi": 77,
      "hit": false,
      "t": 73818.10800000007,
      "d": 163.6362000000081,
      "v": 100
    },
    {
      "midi": 67,
      "hit": false,
      "t": 73818.10800000007,
      "d": 327.2724000000162,
      "v": 100
    },
    {
      "midi": 38,
      "hit": false,
      "t": 73818.10800000007,
      "d": 327.2724000000162,
      "v": 100
    },
    {
      "midi": 40,
      "hit": false,
      "t": 73818.10800000007,
      "d": 327.2724000000162,
      "v": 100
    },
    {
      "midi": 77,
      "hit": false,
      "t": 73999.92600000008,
      "d": 163.6362000000081,
      "v": 100
    },
    {
      "midi": 41,
      "hit": false,
      "t": 74181.7440000001,
      "d": 490.90860000000976,
      "v": 100
    },
    {
      "midi": 69,
      "hit": false,
      "t": 74363.56200000009,
      "d": 163.63619999999355,
      "v": 100
    },
    {
      "midi": 65,
      "hit": false,
      "t": 74545.38000000009,
      "d": 81.81810000000405,
      "v": 100
    },
    {
      "midi": 60,
      "hit": false,
      "t": 74545.38000000009,
      "d": 163.6362000000081,
      "v": 100
    },
    {
      "midi": 55,
      "hit": false,
      "t": 74545.38000000009,
      "d": 163.6362000000081,
      "v": 100
    },
    {
      "midi": 35,
      "hit": false,
      "t": 74545.38000000009,
      "d": 163.6362000000081,
      "v": 100
    },
    {
      "midi": 40,
      "hit": false,
      "t": 74545.38000000009,
      "d": 327.2724000000162,
      "v": 100
    },
    {
      "midi": 65,
      "hit": false,
      "t": 74727.1980000001,
      "d": 81.81810000000405,
      "v": 100
    },
    {
      "midi": 62,
      "hit": false,
      "t": 74727.1980000001,
      "d": 163.6362000000081,
      "v": 100
    },
    {
      "midi": 57,
      "hit": false,
      "t": 74727.1980000001,
      "d": 163.6362000000081,
      "v": 100
    },
    {
      "midi": 41,
      "hit": false,
      "t": 74727.1980000001,
      "d": 163.6362000000081,
      "v": 100
    },
    {
      "midi": 35,
      "hit": false,
      "t": 74727.1980000001,
      "d": 163.6362000000081,
      "v": 100
    },
    {
      "midi": 65,
      "hit": false,
      "t": 74909.01600000012,
      "d": 163.63619999999355,
      "v": 100
    },
    {
      "midi": 60,
      "hit": false,
      "t": 74909.01600000012,
      "d": 163.63619999999355,
      "v": 100
    },
    {
      "midi": 69,
      "hit": false,
      "t": 74909.01600000012,
      "d": 163.63619999999355,
      "v": 100
    },
    {
      "midi": 35,
      "hit": false,
      "t": 74909.01600000012,
      "d": 163.63619999999355,
      "v": 100
    },
    {
      "midi": 41,
      "hit": false,
      "t": 74909.01600000012,
      "d": 327.27240000000165,
      "v": 100
    },
    {
      "midi": 67,
      "hit": false,
      "t": 75090.83400000012,
      "d": 163.6362000000081,
      "v": 100
    },
    {
      "midi": 62,
      "hit": false,
      "t": 75090.83400000012,
      "d": 163.6362000000081,
      "v": 100
    },
    {
      "midi": 35,
      "hit": false,
      "t": 75090.83400000012,
      "d": 163.6362000000081,
      "v": 100
    },
    {
      "midi": 65,
      "hit": false,
      "t": 75272.65200000013,
      "d": 81.81810000000405,
      "v": 100
    },
    {
      "midi": 69,
      "hit": false,
      "t": 75272.65200000013,
      "d": 163.6362000000081,
      "v": 100
    },
    {
      "midi": 64,
      "hit": false,
      "t": 75272.65200000013,
      "d": 163.6362000000081,
      "v": 100
    },
    {
      "midi": 38,
      "hit": false,
      "t": 75272.65200000013,
      "d": 163.6362000000081,
      "v": 100
    },
    {
      "midi": 35,
      "hit": false,
      "t": 75272.65200000013,
      "d": 163.6362000000081,
      "v": 100
    },
    {
      "midi": 40,
      "hit": false,
      "t": 75272.65200000013,
      "d": 327.2724000000162,
      "v": 100
    },
    {
      "midi": 65,
      "hit": false,
      "t": 75454.47000000015,
      "d": 36.36359999999695,
      "v": 100
    },
    {
      "midi": 72,
      "hit": false,
      "t": 75454.47000000015,
      "d": 163.6362000000081,
      "v": 100
    },
    {
      "midi": 67,
      "hit": false,
      "t": 75454.47000000015,
      "d": 163.6362000000081,
      "v": 100
    },
    {
      "midi": 36,
      "hit": false,
      "t": 75454.47000000015,
      "d": 163.6362000000081,
      "v": 100
    },
    {
      "midi": 35,
      "hit": false,
      "t": 75454.47000000015,
      "d": 163.6362000000081,
      "v": 100
    },
    {
      "midi": 77,
      "hit": false,
      "t": 75999.92400000016,
      "d": 163.63619999999355,
      "v": 100
    },
    {
      "midi": 72,
      "hit": false,
      "t": 75999.92400000016,
      "d": 163.63619999999355,
      "v": 100
    },
    {
      "midi": 41,
      "hit": false,
      "t": 75999.92400000016,
      "d": 163.63619999999355,
      "v": 100
    },
    {
      "midi": 35,
      "hit": false,
      "t": 75999.92400000016,
      "d": 163.63619999999355,
      "v": 100
    },
    {
      "midi": 69,
      "hit": false,
      "t": 75999.92400000016,
      "d": 327.2723999999871,
      "v": 100
    },
    {
      "midi": 40,
      "hit": false,
      "t": 75999.92400000016,
      "d": 327.2723999999871,
      "v": 100
    },
    {
      "midi": 77,
      "hit": false,
      "t": 76363.56000000014,
      "d": 163.63619999999355,
      "v": 100
    },
    {
      "midi": 72,
      "hit": false,
      "t": 76363.56000000014,
      "d": 163.63619999999355,
      "v": 100
    },
    {
      "midi": 41,
      "hit": false,
      "t": 76363.56000000014,
      "d": 163.63619999999355,
      "v": 100
    },
    {
      "midi": 69,
      "hit": false,
      "t": 76363.56000000014,
      "d": 163.63619999999355,
      "v": 100
    },
    {
      "midi": 40,
      "hit": false,
      "t": 76363.56000000014,
      "d": 163.63619999999355,
      "v": 100
    },
    {
      "midi": 35,
      "hit": false,
      "t": 76363.56000000014,
      "d": 163.63619999999355,
      "v": 100
    },
    {
      "midi": 60,
      "hit": false,
      "t": 77090.83200000014,
      "d": 163.63619999999355,
      "v": 100
    },
    {
      "midi": 57,
      "hit": false,
      "t": 77090.83200000014,
      "d": 163.63619999999355,
      "v": 100
    },
    {
      "midi": 35,
      "hit": false,
      "t": 77090.83200000014,
      "d": 654.5448000000033,
      "v": 100
    },
    {
      "midi": 45,
      "hit": false,
      "t": 77090.83200000014,
      "d": 654.5448000000033,
      "v": 100
    },
    {
      "midi": 60,
      "hit": false,
      "t": 77272.65000000014,
      "d": 327.27240000000165,
      "v": 100
    },
    {
      "midi": 57,
      "hit": false,
      "t": 77272.65000000014,
      "d": 327.27240000000165,
      "v": 100
    },
    {
      "midi": 60,
      "hit": false,
      "t": 77636.28600000014,
      "d": 163.6362000000081,
      "v": 100
    },
    {
      "midi": 57,
      "hit": false,
      "t": 77636.28600000014,
      "d": 163.6362000000081,
      "v": 100
    },
    {
      "midi": 60,
      "hit": false,
      "t": 77818.10400000015,
      "d": 163.63619999999355,
      "v": 100
    },
    {
      "midi": 57,
      "hit": false,
      "t": 77818.10400000015,
      "d": 163.63619999999355,
      "v": 100
    },
    {
      "midi": 35,
      "hit": false,
      "t": 77818.10400000015,
      "d": 654.5448000000033,
      "v": 100
    },
    {
      "midi": 45,
      "hit": false,
      "t": 77818.10400000015,
      "d": 654.5448000000033,
      "v": 100
    },
    {
      "midi": 60,
      "hit": false,
      "t": 77999.92200000015,
      "d": 327.27240000000165,
      "v": 100
    },
    {
      "midi": 57,
      "hit": false,
      "t": 77999.92200000015,
      "d": 327.27240000000165,
      "v": 100
    },
    {
      "midi": 60,
      "hit": false,
      "t": 78363.55800000015,
      "d": 163.6362000000081,
      "v": 100
    },
    {
      "midi": 57,
      "hit": false,
      "t": 78363.55800000015,
      "d": 163.6362000000081,
      "v": 100
    },
    {
      "midi": 60,
      "hit": false,
      "t": 78545.37600000016,
      "d": 163.63619999999355,
      "v": 100
    },
    {
      "midi": 57,
      "hit": false,
      "t": 78545.37600000016,
      "d": 163.63619999999355,
      "v": 100
    },
    {
      "midi": 35,
      "hit": false,
      "t": 78545.37600000016,
      "d": 654.5448000000179,
      "v": 100
    },
    {
      "midi": 45,
      "hit": false,
      "t": 78545.37600000016,
      "d": 654.5448000000179,
      "v": 100
    },
    {
      "midi": 60,
      "hit": false,
      "t": 78727.19400000016,
      "d": 327.27240000000165,
      "v": 100
    },
    {
      "midi": 57,
      "hit": false,
      "t": 78727.19400000016,
      "d": 327.27240000000165,
      "v": 100
    },
    {
      "midi": 51,
      "hit": false,
      "t": 78909.01200000016,
      "d": 163.6362000000081,
      "v": 100
    },
    {
      "midi": 60,
      "hit": false,
      "t": 79090.83000000018,
      "d": 163.6362000000081,
      "v": 100
    },
    {
      "midi": 57,
      "hit": false,
      "t": 79090.83000000018,
      "d": 163.6362000000081,
      "v": 100
    },
    {
      "midi": 51,
      "hit": false,
      "t": 79090.83000000018,
      "d": 163.6362000000081,
      "v": 100
    },
    {
      "midi": 60,
      "hit": false,
      "t": 79272.64800000019,
      "d": 163.63619999999355,
      "v": 100
    },
    {
      "midi": 57,
      "hit": false,
      "t": 79272.64800000019,
      "d": 163.63619999999355,
      "v": 100
    },
    {
      "midi": 51,
      "hit": false,
      "t": 79272.64800000019,
      "d": 163.63619999999355,
      "v": 100
    },
    {
      "midi": 35,
      "hit": false,
      "t": 79272.64800000019,
      "d": 654.5448000000179,
      "v": 100
    },
    {
      "midi": 60,
      "hit": false,
      "t": 79454.46600000019,
      "d": 327.27240000000165,
      "v": 100
    },
    {
      "midi": 57,
      "hit": false,
      "t": 79454.46600000019,
      "d": 327.27240000000165,
      "v": 100
    },
    {
      "midi": 51,
      "hit": false,
      "t": 79636.28400000019,
      "d": 163.6362000000081,
      "v": 100
    },
    {
      "midi": 60,
      "hit": false,
      "t": 79818.1020000002,
      "d": 163.6362000000081,
      "v": 100
    },
    {
      "midi": 57,
      "hit": false,
      "t": 79818.1020000002,
      "d": 163.6362000000081,
      "v": 100
    },
    {
      "midi": 51,
      "hit": false,
      "t": 79818.1020000002,
      "d": 163.6362000000081,
      "v": 100
    },
    {
      "midi": 60,
      "hit": false,
      "t": 79999.92000000022,
      "d": 163.63619999999355,
      "v": 100
    },
    {
      "midi": 57,
      "hit": false,
      "t": 79999.92000000022,
      "d": 163.63619999999355,
      "v": 100
    },
    {
      "midi": 45,
      "hit": false,
      "t": 79999.92000000022,
      "d": 163.63619999999355,
      "v": 100
    },
    {
      "midi": 35,
      "hit": false,
      "t": 79999.92000000022,
      "d": 654.5448000000179,
      "v": 100
    },
    {
      "midi": 60,
      "hit": false,
      "t": 80181.73800000022,
      "d": 327.27240000000165,
      "v": 100
    },
    {
      "midi": 57,
      "hit": false,
      "t": 80181.73800000022,
      "d": 327.27240000000165,
      "v": 100
    },
    {
      "midi": 45,
      "hit": false,
      "t": 80363.55600000022,
      "d": 163.6362000000081,
      "v": 100
    },
    {
      "midi": 57,
      "hit": false,
      "t": 80545.37400000023,
      "d": 109.0908000000054,
      "v": 100
    },
    {
      "midi": 60,
      "hit": false,
      "t": 80545.37400000023,
      "d": 163.6362000000081,
      "v": 100
    },
    {
      "midi": 45,
      "hit": false,
      "t": 80545.37400000023,
      "d": 163.6362000000081,
      "v": 100
    },
    {
      "midi": 60,
      "hit": false,
      "t": 80727.19200000024,
      "d": 163.63619999999355,
      "v": 100
    },
    {
      "midi": 57,
      "hit": false,
      "t": 80727.19200000024,
      "d": 163.63619999999355,
      "v": 100
    },
    {
      "midi": 51,
      "hit": false,
      "t": 80727.19200000024,
      "d": 163.63619999999355,
      "v": 100
    },
    {
      "midi": 55,
      "hit": false,
      "t": 80727.19200000024,
      "d": 163.63619999999355,
      "v": 100
    },
    {
      "midi": 35,
      "hit": false,
      "t": 80727.19200000024,
      "d": 654.5448000000179,
      "v": 100
    },
    {
      "midi": 53,
      "hit": false,
      "t": 80909.01000000024,
      "d": 163.63619999999355,
      "v": 100
    },
    {
      "midi": 60,
      "hit": false,
      "t": 80909.01000000024,
      "d": 327.27240000000165,
      "v": 100
    },
    {
      "midi": 57,
      "hit": false,
      "t": 80909.01000000024,
      "d": 327.27240000000165,
      "v": 100
    },
    {
      "midi": 45,
      "hit": false,
      "t": 81090.82800000024,
      "d": 163.6362000000081,
      "v": 100
    },
    {
      "midi": 55,
      "hit": false,
      "t": 81090.82800000024,
      "d": 163.6362000000081,
      "v": 100
    },
    {
      "midi": 60,
      "hit": false,
      "t": 81272.64600000026,
      "d": 163.6362000000081,
      "v": 100
    },
    {
      "midi": 57,
      "hit": false,
      "t": 81272.64600000026,
      "d": 163.6362000000081,
      "v": 100
    },
    {
      "midi": 57,
      "hit": false,
      "t": 81454.46400000027,
      "d": 145.45440000000235,
      "v": 100
    },
    {
      "midi": 60,
      "hit": false,
      "t": 81454.46400000027,
      "d": 163.6362000000081,
      "v": 100
    },
    {
      "midi": 45,
      "hit": false,
      "t": 81454.46400000027,
      "d": 163.6362000000081,
      "v": 100
    },
    {
      "midi": 60,
      "hit": false,
      "t": 81636.28200000028,
      "d": 327.27240000000165,
      "v": 100
    },
    {
      "midi": 57,
      "hit": false,
      "t": 81636.28200000028,
      "d": 327.27240000000165,
      "v": 100
    },
    {
      "midi": 62,
      "hit": false,
      "t": 81636.28200000028,
      "d": 1254.544200000033,
      "v": 100
    },
    {
      "midi": 51,
      "hit": false,
      "t": 81818.10000000028,
      "d": 163.6362000000081,
      "v": 100
    },
    {
      "midi": 60,
      "hit": false,
      "t": 81999.9180000003,
      "d": 163.63619999999355,
      "v": 100
    },
    {
      "midi": 57,
      "hit": false,
      "t": 81999.9180000003,
      "d": 163.63619999999355,
      "v": 100
    },
    {
      "midi": 60,
      "hit": false,
      "t": 82181.7360000003,
      "d": 163.63619999999355,
      "v": 100
    },
    {
      "midi": 57,
      "hit": false,
      "t": 82181.7360000003,
      "d": 163.63619999999355,
      "v": 100
    },
    {
      "midi": 51,
      "hit": false,
      "t": 82181.7360000003,
      "d": 163.63619999999355,
      "v": 100
    },
    {
      "midi": 35,
      "hit": false,
      "t": 82181.7360000003,
      "d": 654.5448000000179,
      "v": 100
    },
    {
      "midi": 60,
      "hit": false,
      "t": 82363.5540000003,
      "d": 327.27240000000165,
      "v": 100
    },
    {
      "midi": 57,
      "hit": false,
      "t": 82363.5540000003,
      "d": 327.27240000000165,
      "v": 100
    },
    {
      "midi": 51,
      "hit": false,
      "t": 82545.3720000003,
      "d": 163.6362000000081,
      "v": 100
    },
    {
      "midi": 60,
      "hit": false,
      "t": 82727.19000000031,
      "d": 163.6362000000081,
      "v": 100
    },
    {
      "midi": 57,
      "hit": false,
      "t": 82727.19000000031,
      "d": 163.6362000000081,
      "v": 100
    },
    {
      "midi": 51,
      "hit": false,
      "t": 82727.19000000031,
      "d": 163.6362000000081,
      "v": 100
    },
    {
      "midi": 60,
      "hit": false,
      "t": 82909.00800000032,
      "d": 163.63619999999355,
      "v": 100
    },
    {
      "midi": 57,
      "hit": false,
      "t": 82909.00800000032,
      "d": 163.63619999999355,
      "v": 100
    },
    {
      "midi": 45,
      "hit": false,
      "t": 82909.00800000032,
      "d": 163.63619999999355,
      "v": 100
    },
    {
      "midi": 35,
      "hit": false,
      "t": 82909.00800000032,
      "d": 654.5448000000179,
      "v": 100
    },
    {
      "midi": 60,
      "hit": false,
      "t": 83090.82600000032,
      "d": 327.27240000000165,
      "v": 100
    },
    {
      "midi": 57,
      "hit": false,
      "t": 83090.82600000032,
      "d": 327.27240000000165,
      "v": 100
    },
    {
      "midi": 45,
      "hit": false,
      "t": 83272.64400000032,
      "d": 163.6362000000081,
      "v": 100
    },
    {
      "midi": 60,
      "hit": false,
      "t": 83454.46200000033,
      "d": 163.6362000000081,
      "v": 100
    },
    {
      "midi": 57,
      "hit": false,
      "t": 83454.46200000033,
      "d": 163.6362000000081,
      "v": 100
    },
    {
      "midi": 60,
      "hit": false,
      "t": 83636.28000000035,
      "d": 163.63619999999355,
      "v": 100
    },
    {
      "midi": 57,
      "hit": false,
      "t": 83636.28000000035,
      "d": 163.63619999999355,
      "v": 100
    },
    {
      "midi": 51,
      "hit": false,
      "t": 83636.28000000035,
      "d": 163.63619999999355,
      "v": 100
    },
    {
      "midi": 35,
      "hit": false,
      "t": 83636.28000000035,
      "d": 654.5448000000033,
      "v": 100
    },
    {
      "midi": 60,
      "hit": false,
      "t": 83818.09800000035,
      "d": 327.27240000000165,
      "v": 100
    },
    {
      "midi": 57,
      "hit": false,
      "t": 83818.09800000035,
      "d": 327.27240000000165,
      "v": 100
    },
    {
      "midi": 45,
      "hit": false,
      "t": 83999.91600000035,
      "d": 163.6362000000081,
      "v": 100
    },
    {
      "midi": 60,
      "hit": false,
      "t": 84181.73400000036,
      "d": 36.36359999999695,
      "v": 100
    },
    {
      "midi": 57,
      "hit": false,
      "t": 84181.73400000036,
      "d": 163.63619999999355,
      "v": 100
    },
    {
      "midi": 60,
      "hit": false,
      "t": 84363.55200000036,
      "d": 163.63619999999355,
      "v": 100
    },
    {
      "midi": 57,
      "hit": false,
      "t": 84363.55200000036,
      "d": 163.63619999999355,
      "v": 100
    },
    {
      "midi": 45,
      "hit": false,
      "t": 84363.55200000036,
      "d": 163.63619999999355,
      "v": 100
    },
    {
      "midi": 53,
      "hit": false,
      "t": 84363.55200000036,
      "d": 327.27240000000165,
      "v": 100
    },
    {
      "midi": 35,
      "hit": false,
      "t": 84363.55200000036,
      "d": 654.5448000000179,
      "v": 100
    },
    {
      "midi": 60,
      "hit": false,
      "t": 84545.37000000036,
      "d": 327.27240000000165,
      "v": 100
    },
    {
      "midi": 57,
      "hit": false,
      "t": 84545.37000000036,
      "d": 327.27240000000165,
      "v": 100
    },
    {
      "midi": 51,
      "hit": false,
      "t": 84727.18800000036,
      "d": 163.6362000000081,
      "v": 100
    },
    {
      "midi": 55,
      "hit": false,
      "t": 84727.18800000036,
      "d": 163.6362000000081,
      "v": 100
    },
    {
      "midi": 60,
      "hit": false,
      "t": 84909.00600000037,
      "d": 163.6362000000081,
      "v": 100
    },
    {
      "midi": 57,
      "hit": false,
      "t": 84909.00600000037,
      "d": 163.6362000000081,
      "v": 100
    },
    {
      "midi": 51,
      "hit": false,
      "t": 84909.00600000037,
      "d": 163.6362000000081,
      "v": 100
    },
    {
      "midi": 57,
      "hit": false,
      "t": 85090.82400000039,
      "d": 145.45440000000235,
      "v": 100
    },
    {
      "midi": 60,
      "hit": false,
      "t": 85090.82400000039,
      "d": 163.6362000000081,
      "v": 100
    },
    {
      "midi": 51,
      "hit": false,
      "t": 85090.82400000039,
      "d": 163.6362000000081,
      "v": 100
    },
    {
      "midi": 35,
      "hit": false,
      "t": 85090.82400000039,
      "d": 654.5448000000324,
      "v": 100
    },
    {
      "midi": 60,
      "hit": false,
      "t": 85272.6420000004,
      "d": 327.27240000000165,
      "v": 100
    },
    {
      "midi": 57,
      "hit": false,
      "t": 85272.6420000004,
      "d": 327.27240000000165,
      "v": 100
    },
    {
      "midi": 58,
      "hit": false,
      "t": 85272.6420000004,
      "d": 490.9086000000243,
      "v": 100
    },
    {
      "midi": 51,
      "hit": false,
      "t": 85454.4600000004,
      "d": 163.6362000000081,
      "v": 100
    },
    {
      "midi": 60,
      "hit": false,
      "t": 85636.27800000041,
      "d": 163.6362000000081,
      "v": 100
    },
    {
      "midi": 57,
      "hit": false,
      "t": 85636.27800000041,
      "d": 163.6362000000081,
      "v": 100
    },
    {
      "midi": 51,
      "hit": false,
      "t": 85636.27800000041,
      "d": 163.6362000000081,
      "v": 100
    },
    {
      "midi": 60,
      "hit": false,
      "t": 85818.09600000043,
      "d": 163.63619999999355,
      "v": 100
    },
    {
      "midi": 57,
      "hit": false,
      "t": 85818.09600000043,
      "d": 163.63619999999355,
      "v": 100
    },
    {
      "midi": 45,
      "hit": false,
      "t": 85818.09600000043,
      "d": 163.63619999999355,
      "v": 100
    },
    {
      "midi": 35,
      "hit": false,
      "t": 85818.09600000043,
      "d": 654.5448000000179,
      "v": 100
    },
    {
      "midi": 60,
      "hit": false,
      "t": 85999.91400000043,
      "d": 327.27240000000165,
      "v": 100
    },
    {
      "midi": 57,
      "hit": false,
      "t": 85999.91400000043,
      "d": 327.27240000000165,
      "v": 100
    },
    {
      "midi": 45,
      "hit": false,
      "t": 86181.73200000043,
      "d": 163.6362000000081,
      "v": 100
    },
    {
      "midi": 57,
      "hit": false,
      "t": 86363.55000000044,
      "d": 109.0908000000054,
      "v": 100
    },
    {
      "midi": 60,
      "hit": false,
      "t": 86363.55000000044,
      "d": 163.6362000000081,
      "v": 100
    },
    {
      "midi": 60,
      "hit": false,
      "t": 86545.36800000045,
      "d": 163.63619999999355,
      "v": 100
    },
    {
      "midi": 57,
      "hit": false,
      "t": 86545.36800000045,
      "d": 163.63619999999355,
      "v": 100
    },
    {
      "midi": 51,
      "hit": false,
      "t": 86545.36800000045,
      "d": 163.63619999999355,
      "v": 100
    },
    {
      "midi": 35,
      "hit": false,
      "t": 86545.36800000045,
      "d": 654.5448000000179,
      "v": 100
    },
    {
      "midi": 53,
      "hit": false,
      "t": 86545.36800000045,
      "d": 654.5448000000179,
      "v": 100
    },
    {
      "midi": 60,
      "hit": false,
      "t": 86727.18600000045,
      "d": 327.27240000000165,
      "v": 100
    },
    {
      "midi": 57,
      "hit": false,
      "t": 86727.18600000045,
      "d": 327.27240000000165,
      "v": 100
    },
    {
      "midi": 45,
      "hit": false,
      "t": 86909.00400000045,
      "d": 163.6362000000081,
      "v": 100
    },
    {
      "midi": 60,
      "hit": false,
      "t": 87090.82200000047,
      "d": 163.6362000000081,
      "v": 100
    },
    {
      "midi": 57,
      "hit": false,
      "t": 87090.82200000047,
      "d": 163.6362000000081,
      "v": 100
    },
    {
      "midi": 72,
      "hit": false,
      "t": 87272.64000000048,
      "d": 163.63619999999355,
      "v": 100
    },
    {
      "midi": 69,
      "hit": false,
      "t": 87272.64000000048,
      "d": 163.63619999999355,
      "v": 100
    },
    {
      "midi": 84,
      "hit": false,
      "t": 87272.64000000048,
      "d": 163.63619999999355,
      "v": 100
    },
    {
      "midi": 36,
      "hit": false,
      "t": 87272.64000000048,
      "d": 163.63619999999355,
      "v": 100
    },
    {
      "midi": 35,
      "hit": false,
      "t": 87272.64000000048,
      "d": 163.63619999999355,
      "v": 100
    },
    {
      "midi": 45,
      "hit": false,
      "t": 87272.64000000048,
      "d": 163.63619999999355,
      "v": 100
    },
    {
      "midi": 51,
      "hit": false,
      "t": 87272.64000000048,
      "d": 163.63619999999355,
      "v": 100
    },
    {
      "midi": 72,
      "hit": false,
      "t": 87636.27600000048,
      "d": 163.63619999999355,
      "v": 100
    },
    {
      "midi": 69,
      "hit": false,
      "t": 87636.27600000048,
      "d": 163.63619999999355,
      "v": 100
    },
    {
      "midi": 84,
      "hit": false,
      "t": 87636.27600000048,
      "d": 163.63619999999355,
      "v": 100
    },
    {
      "midi": 36,
      "hit": false,
      "t": 87636.27600000048,
      "d": 163.63619999999355,
      "v": 100
    },
    {
      "midi": 35,
      "hit": false,
      "t": 87636.27600000048,
      "d": 163.63619999999355,
      "v": 100
    },
    {
      "midi": 45,
      "hit": false,
      "t": 87636.27600000048,
      "d": 163.63619999999355,
      "v": 100
    },
    {
      "midi": 51,
      "hit": false,
      "t": 87636.27600000048,
      "d": 163.63619999999355,
      "v": 100
    },
    {
      "midi": 72,
      "hit": false,
      "t": 88181.73000000048,
      "d": 163.63619999999355,
      "v": 100
    },
    {
      "midi": 69,
      "hit": false,
      "t": 88181.73000000048,
      "d": 163.63619999999355,
      "v": 100
    },
    {
      "midi": 84,
      "hit": false,
      "t": 88181.73000000048,
      "d": 163.63619999999355,
      "v": 100
    },
    {
      "midi": 36,
      "hit": false,
      "t": 88181.73000000048,
      "d": 163.63619999999355,
      "v": 100
    },
    {
      "midi": 35,
      "hit": false,
      "t": 88181.73000000048,
      "d": 163.63619999999355,
      "v": 100
    },
    {
      "midi": 72,
      "hit": false,
      "t": 88363.54800000048,
      "d": 163.63619999999355,
      "v": 100
    },
    {
      "midi": 69,
      "hit": false,
      "t": 88363.54800000048,
      "d": 163.63619999999355,
      "v": 100
    },
    {
      "midi": 84,
      "hit": false,
      "t": 88363.54800000048,
      "d": 163.63619999999355,
      "v": 100
    },
    {
      "midi": 36,
      "hit": false,
      "t": 88363.54800000048,
      "d": 163.63619999999355,
      "v": 100
    },
    {
      "midi": 35,
      "hit": false,
      "t": 88363.54800000048,
      "d": 163.63619999999355,
      "v": 100
    },
    {
      "midi": 72,
      "hit": false,
      "t": 88545.36600000047,
      "d": 163.63619999999355,
      "v": 100
    },
    {
      "midi": 69,
      "hit": false,
      "t": 88545.36600000047,
      "d": 163.63619999999355,
      "v": 100
    },
    {
      "midi": 84,
      "hit": false,
      "t": 88545.36600000047,
      "d": 163.63619999999355,
      "v": 100
    },
    {
      "midi": 36,
      "hit": false,
      "t": 88545.36600000047,
      "d": 163.63619999999355,
      "v": 100
    },
    {
      "midi": 35,
      "hit": false,
      "t": 88545.36600000047,
      "d": 163.63619999999355,
      "v": 100
    },
    {
      "midi": 69,
      "hit": false,
      "t": 88727.18400000047,
      "d": 163.63619999999355,
      "v": 100
    },
    {
      "midi": 77,
      "hit": false,
      "t": 88727.18400000047,
      "d": 163.63619999999355,
      "v": 100
    },
    {
      "midi": 38,
      "hit": false,
      "t": 88727.18400000047,
      "d": 327.27240000000165,
      "v": 100
    },
    {
      "midi": 46,
      "hit": false,
      "t": 88727.18400000047,
      "d": 327.27240000000165,
      "v": 100
    },
    {
      "midi": 35,
      "hit": false,
      "t": 88727.18400000047,
      "d": 327.27240000000165,
      "v": 100
    },
    {
      "midi": 58,
      "hit": false,
      "t": 88727.18400000047,
      "d": 654.5448000000324,
      "v": 100
    },
    {
      "midi": 62,
      "hit": false,
      "t": 88727.18400000047,
      "d": 654.5448000000324,
      "v": 100
    },
    {
      "midi": 72,
      "hit": false,
      "t": 88909.00200000047,
      "d": 163.6362000000081,
      "v": 100
    },
    {
      "midi": 77,
      "hit": false,
      "t": 88909.00200000047,
      "d": 163.6362000000081,
      "v": 100
    },
    {
      "midi": 65,
      "hit": false,
      "t": 89090.82000000049,
      "d": 81.81810000000405,
      "v": 100
    },
    {
      "midi": 69,
      "hit": false,
      "t": 89090.82000000049,
      "d": 163.6362000000081,
      "v": 100
    },
    {
      "midi": 41,
      "hit": false,
      "t": 89090.82000000049,
      "d": 163.6362000000081,
      "v": 100
    },
    {
      "midi": 40,
      "hit": false,
      "t": 89090.82000000049,
      "d": 163.6362000000081,
      "v": 100
    },
    {
      "midi": 35,
      "hit": false,
      "t": 89090.82000000049,
      "d": 327.2724000000162,
      "v": 100
    },
    {
      "midi": 65,
      "hit": false,
      "t": 89272.6380000005,
      "d": 81.81810000000405,
      "v": 100
    },
    {
      "midi": 72,
      "hit": false,
      "t": 89272.6380000005,
      "d": 163.6362000000081,
      "v": 100
    },
    {
      "midi": 43,
      "hit": false,
      "t": 89272.6380000005,
      "d": 163.6362000000081,
      "v": 100
    },
    {
      "midi": 40,
      "hit": false,
      "t": 89272.6380000005,
      "d": 163.6362000000081,
      "v": 100
    },
    {
      "midi": 77,
      "hit": false,
      "t": 89272.6380000005,
      "d": 163.6362000000081,
      "v": 100
    },
    {
      "midi": 69,
      "hit": false,
      "t": 89454.45600000051,
      "d": 163.63619999999355,
      "v": 100
    },
    {
      "midi": 77,
      "hit": false,
      "t": 89454.45600000051,
      "d": 163.63619999999355,
      "v": 100
    },
    {
      "midi": 36,
      "hit": false,
      "t": 89454.45600000051,
      "d": 327.27240000000165,
      "v": 100
    },
    {
      "midi": 35,
      "hit": false,
      "t": 89454.45600000051,
      "d": 327.27240000000165,
      "v": 100
    },
    {
      "midi": 60,
      "hit": false,
      "t": 89454.45600000051,
      "d": 654.5448000000324,
      "v": 100
    },
    {
      "midi": 64,
      "hit": false,
      "t": 89454.45600000051,
      "d": 654.5448000000324,
      "v": 100
    },
    {
      "midi": 55,
      "hit": false,
      "t": 89454.45600000051,
      "d": 654.5448000000324,
      "v": 100
    },
    {
      "midi": 67,
      "hit": false,
      "t": 89636.27400000051,
      "d": 163.6362000000081,
      "v": 100
    },
    {
      "midi": 77,
      "hit": false,
      "t": 89636.27400000051,
      "d": 163.6362000000081,
      "v": 100
    },
    {
      "midi": 65,
      "hit": false,
      "t": 89818.09200000053,
      "d": 81.81810000000405,
      "v": 100
    },
    {
      "midi": 38,
      "hit": false,
      "t": 89818.09200000053,
      "d": 163.6362000000081,
      "v": 100
    },
    {
      "midi": 40,
      "hit": false,
      "t": 89818.09200000053,
      "d": 163.6362000000081,
      "v": 100
    },
    {
      "midi": 35,
      "hit": false,
      "t": 89818.09200000053,
      "d": 327.2724000000162,
      "v": 100
    },
    {
      "midi": 65,
      "hit": false,
      "t": 89999.91000000054,
      "d": 81.81810000000405,
      "v": 100
    },
    {
      "midi": 62,
      "hit": false,
      "t": 89999.91000000054,
      "d": 163.6362000000081,
      "v": 100
    },
    {
      "midi": 41,
      "hit": false,
      "t": 89999.91000000054,
      "d": 163.6362000000081,
      "v": 100
    },
    {
      "midi": 77,
      "hit": false,
      "t": 89999.91000000054,
      "d": 163.6362000000081,
      "v": 100
    },
    {
      "midi": 60,
      "hit": false,
      "t": 90181.72800000056,
      "d": 163.63619999999355,
      "v": 100
    },
    {
      "midi": 77,
      "hit": false,
      "t": 90181.72800000056,
      "d": 163.63619999999355,
      "v": 100
    },
    {
      "midi": 33,
      "hit": false,
      "t": 90181.72800000056,
      "d": 327.27240000000165,
      "v": 100
    },
    {
      "midi": 35,
      "hit": false,
      "t": 90181.72800000056,
      "d": 327.27240000000165,
      "v": 100
    },
    {
      "midi": 57,
      "hit": false,
      "t": 90363.54600000056,
      "d": 163.6362000000081,
      "v": 100
    },
    {
      "midi": 77,
      "hit": false,
      "t": 90363.54600000056,
      "d": 163.6362000000081,
      "v": 100
    },
    {
      "midi": 65,
      "hit": false,
      "t": 90545.36400000057,
      "d": 81.81810000000405,
      "v": 100
    },
    {
      "midi": 60,
      "hit": false,
      "t": 90545.36400000057,
      "d": 163.6362000000081,
      "v": 100
    },
    {
      "midi": 36,
      "hit": false,
      "t": 90545.36400000057,
      "d": 163.6362000000081,
      "v": 100
    },
    {
      "midi": 40,
      "hit": false,
      "t": 90545.36400000057,
      "d": 163.6362000000081,
      "v": 100
    },
    {
      "midi": 35,
      "hit": false,
      "t": 90545.36400000057,
      "d": 327.2724000000162,
      "v": 100
    },
    {
      "midi": 65,
      "hit": false,
      "t": 90727.18200000058,
      "d": 81.81810000000405,
      "v": 100
    },
    {
      "midi": 62,
      "hit": false,
      "t": 90727.18200000058,
      "d": 163.6362000000081,
      "v": 100
    },
    {
      "midi": 38,
      "hit": false,
      "t": 90727.18200000058,
      "d": 163.6362000000081,
      "v": 100
    },
    {
      "midi": 40,
      "hit": false,
      "t": 90727.18200000058,
      "d": 163.6362000000081,
      "v": 100
    },
    {
      "midi": 77,
      "hit": false,
      "t": 90727.18200000058,
      "d": 163.6362000000081,
      "v": 100
    },
    {
      "midi": 77,
      "hit": false,
      "t": 90909.0000000006,
      "d": 163.63619999999355,
      "v": 100
    },
    {
      "midi": 35,
      "hit": false,
      "t": 90909.0000000006,
      "d": 327.27240000000165,
      "v": 100
    },
    {
      "midi": 36,
      "hit": false,
      "t": 90909.0000000006,
      "d": 654.5448000000324,
      "v": 100
    },
    {
      "midi": 77,
      "hit": false,
      "t": 91090.8180000006,
      "d": 163.6362000000081,
      "v": 100
    },
    {
      "midi": 65,
      "hit": false,
      "t": 91272.63600000061,
      "d": 81.81810000000405,
      "v": 100
    },
    {
      "midi": 40,
      "hit": false,
      "t": 91272.63600000061,
      "d": 163.6362000000081,
      "v": 100
    },
    {
      "midi": 77,
      "hit": false,
      "t": 91272.63600000061,
      "d": 163.6362000000081,
      "v": 100
    },
    {
      "midi": 49,
      "hit": false,
      "t": 91272.63600000061,
      "d": 163.6362000000081,
      "v": 100
    },
    {
      "midi": 35,
      "hit": false,
      "t": 91272.63600000061,
      "d": 327.2724000000162,
      "v": 100
    },
    {
      "midi": 77,
      "hit": false,
      "t": 91454.45400000062,
      "d": 81.81810000000405,
      "v": 100
    },
    {
      "midi": 77,
      "hit": false,
      "t": 91545.36300000062,
      "d": 81.81810000000405,
      "v": 100
    },
    {
      "midi": 69,
      "hit": false,
      "t": 91636.27200000062,
      "d": 163.63619999999355,
      "v": 100
    },
    {
      "midi": 77,
      "hit": false,
      "t": 91636.27200000062,
      "d": 163.63619999999355,
      "v": 100
    },
    {
      "midi": 38,
      "hit": false,
      "t": 91636.27200000062,
      "d": 327.27240000000165,
      "v": 100
    },
    {
      "midi": 35,
      "hit": false,
      "t": 91636.27200000062,
      "d": 327.27240000000165,
      "v": 100
    },
    {
      "midi": 62,
      "hit": false,
      "t": 91636.27200000062,
      "d": 654.5448000000324,
      "v": 100
    },
    {
      "midi": 58,
      "hit": false,
      "t": 91636.27200000062,
      "d": 654.5448000000324,
      "v": 100
    },
    {
      "midi": 72,
      "hit": false,
      "t": 91818.09000000062,
      "d": 163.6362000000081,
      "v": 100
    },
    {
      "midi": 77,
      "hit": false,
      "t": 91818.09000000062,
      "d": 163.6362000000081,
      "v": 100
    },
    {
      "midi": 65,
      "hit": false,
      "t": 91999.90800000064,
      "d": 81.81810000000405,
      "v": 100
    },
    {
      "midi": 69,
      "hit": false,
      "t": 91999.90800000064,
      "d": 163.6362000000081,
      "v": 100
    },
    {
      "midi": 41,
      "hit": false,
      "t": 91999.90800000064,
      "d": 163.6362000000081,
      "v": 100
    },
    {
      "midi": 40,
      "hit": false,
      "t": 91999.90800000064,
      "d": 163.6362000000081,
      "v": 100
    },
    {
      "midi": 35,
      "hit": false,
      "t": 91999.90800000064,
      "d": 690.9084000000294,
      "v": 100
    },
    {
      "midi": 65,
      "hit": false,
      "t": 92181.72600000065,
      "d": 81.81810000000405,
      "v": 100
    },
    {
      "midi": 72,
      "hit": false,
      "t": 92181.72600000065,
      "d": 163.6362000000081,
      "v": 100
    },
    {
      "midi": 43,
      "hit": false,
      "t": 92181.72600000065,
      "d": 163.6362000000081,
      "v": 100
    },
    {
      "midi": 40,
      "hit": false,
      "t": 92181.72600000065,
      "d": 163.6362000000081,
      "v": 100
    },
    {
      "midi": 77,
      "hit": false,
      "t": 92181.72600000065,
      "d": 163.6362000000081,
      "v": 100
    },
    {
      "midi": 69,
      "hit": false,
      "t": 92363.54400000066,
      "d": 163.63619999999355,
      "v": 100
    },
    {
      "midi": 77,
      "hit": false,
      "t": 92363.54400000066,
      "d": 163.63619999999355,
      "v": 100
    },
    {
      "midi": 36,
      "hit": false,
      "t": 92363.54400000066,
      "d": 327.27240000000165,
      "v": 100
    },
    {
      "midi": 62,
      "hit": false,
      "t": 92363.54400000066,
      "d": 654.5448000000179,
      "v": 100
    },
    {
      "midi": 58,
      "hit": false,
      "t": 92363.54400000066,
      "d": 654.5448000000179,
      "v": 100
    },
    {
      "midi": 67,
      "hit": false,
      "t": 92545.36200000066,
      "d": 163.6362000000081,
      "v": 100
    },
    {
      "midi": 77,
      "hit": false,
      "t": 92545.36200000066,
      "d": 264.3936750000139,
      "v": 100
    },
    {
      "midi": 65,
      "hit": false,
      "t": 92727.18000000068,
      "d": 81.81810000000405,
      "v": 100
    },
    {
      "midi": 38,
      "hit": false,
      "t": 92727.18000000068,
      "d": 163.63619999999355,
      "v": 100
    },
    {
      "midi": 40,
      "hit": false,
      "t": 92727.18000000068,
      "d": 163.63619999999355,
      "v": 100
    },
    {
      "midi": 35,
      "hit": false,
      "t": 92727.18000000068,
      "d": 327.27240000000165,
      "v": 100
    },
    {
      "midi": 65,
      "hit": false,
      "t": 92908.99800000068,
      "d": 81.81810000000405,
      "v": 100
    },
    {
      "midi": 64,
      "hit": false,
      "t": 92908.99800000068,
      "d": 163.6362000000081,
      "v": 100
    },
    {
      "midi": 41,
      "hit": false,
      "t": 92908.99800000068,
      "d": 163.6362000000081,
      "v": 100
    },
    {
      "midi": 77,
      "hit": false,
      "t": 92908.99800000068,
      "d": 163.6362000000081,
      "v": 100
    },
    {
      "midi": 77,
      "hit": false,
      "t": 93090.81600000069,
      "d": 163.63619999999355,
      "v": 100
    },
    {
      "midi": 62,
      "hit": false,
      "t": 93090.81600000069,
      "d": 327.27240000000165,
      "v": 100
    },
    {
      "midi": 38,
      "hit": false,
      "t": 93090.81600000069,
      "d": 327.27240000000165,
      "v": 100
    },
    {
      "midi": 35,
      "hit": false,
      "t": 93090.81600000069,
      "d": 327.27240000000165,
      "v": 100
    },
    {
      "midi": 57,
      "hit": false,
      "t": 93090.81600000069,
      "d": 654.5448000000324,
      "v": 100
    },
    {
      "midi": 77,
      "hit": false,
      "t": 93272.63400000069,
      "d": 163.6362000000081,
      "v": 100
    },
    {
      "midi": 65,
      "hit": false,
      "t": 93454.4520000007,
      "d": 81.81810000000405,
      "v": 100
    },
    {
      "midi": 41,
      "hit": false,
      "t": 93454.4520000007,
      "d": 163.6362000000081,
      "v": 100
    },
    {
      "midi": 40,
      "hit": false,
      "t": 93454.4520000007,
      "d": 163.6362000000081,
      "v": 100
    },
    {
      "midi": 35,
      "hit": false,
      "t": 93454.4520000007,
      "d": 327.2724000000162,
      "v": 100
    },
    {
      "midi": 65,
      "hit": false,
      "t": 93636.27000000072,
      "d": 81.81810000000405,
      "v": 100
    },
    {
      "midi": 45,
      "hit": false,
      "t": 93636.27000000072,
      "d": 163.6362000000081,
      "v": 100
    },
    {
      "midi": 40,
      "hit": false,
      "t": 93636.27000000072,
      "d": 163.6362000000081,
      "v": 100
    },
    {
      "midi": 77,
      "hit": false,
      "t": 93636.27000000072,
      "d": 163.6362000000081,
      "v": 100
    },
    {
      "midi": 77,
      "hit": false,
      "t": 93818.08800000073,
      "d": 163.63619999999355,
      "v": 100
    },
    {
      "midi": 35,
      "hit": false,
      "t": 93818.08800000073,
      "d": 327.27240000000165,
      "v": 100
    },
    {
      "midi": 62,
      "hit": false,
      "t": 93818.08800000073,
      "d": 654.5448000000179,
      "v": 100
    },
    {
      "midi": 38,
      "hit": false,
      "t": 93818.08800000073,
      "d": 654.5448000000179,
      "v": 100
    },
    {
      "midi": 77,
      "hit": false,
      "t": 93999.90600000073,
      "d": 163.6362000000081,
      "v": 100
    },
    {
      "midi": 45,
      "hit": false,
      "t": 93999.90600000073,
      "d": 163.6362000000081,
      "v": 100
    },
    {
      "midi": 65,
      "hit": false,
      "t": 94181.72400000074,
      "d": 81.81810000000405,
      "v": 100
    },
    {
      "midi": 40,
      "hit": false,
      "t": 94181.72400000074,
      "d": 163.6362000000081,
      "v": 100
    },
    {
      "midi": 77,
      "hit": false,
      "t": 94181.72400000074,
      "d": 163.6362000000081,
      "v": 100
    },
    {
      "midi": 49,
      "hit": false,
      "t": 94181.72400000074,
      "d": 163.6362000000081,
      "v": 100
    },
    {
      "midi": 35,
      "hit": false,
      "t": 94181.72400000074,
      "d": 188.63617500000692,
      "v": 100
    },
    {
      "midi": 77,
      "hit": false,
      "t": 94363.54200000076,
      "d": 172.72709999998915,
      "v": 100
    },
    {
      "midi": 69,
      "hit": false,
      "t": 94545.36000000074,
      "d": 163.63619999999355,
      "v": 100
    },
    {
      "midi": 77,
      "hit": false,
      "t": 94545.36000000074,
      "d": 163.63619999999355,
      "v": 100
    },
    {
      "midi": 46,
      "hit": false,
      "t": 94545.36000000074,
      "d": 163.63619999999355,
      "v": 100
    },
    {
      "midi": 38,
      "hit": false,
      "t": 94545.36000000074,
      "d": 327.27240000000165,
      "v": 100
    },
    {
      "midi": 35,
      "hit": false,
      "t": 94545.36000000074,
      "d": 327.27240000000165,
      "v": 100
    },
    {
      "midi": 62,
      "hit": false,
      "t": 94545.36000000074,
      "d": 654.5448000000324,
      "v": 100
    },
    {
      "midi": 57,
      "hit": false,
      "t": 94545.36000000074,
      "d": 654.5448000000324,
      "v": 100
    },
    {
      "midi": 72,
      "hit": false,
      "t": 94727.17800000074,
      "d": 163.6362000000081,
      "v": 100
    },
    {
      "midi": 77,
      "hit": false,
      "t": 94727.17800000074,
      "d": 163.6362000000081,
      "v": 100
    },
    {
      "midi": 65,
      "hit": false,
      "t": 94908.99600000076,
      "d": 81.81810000000405,
      "v": 100
    },
    {
      "midi": 69,
      "hit": false,
      "t": 94908.99600000076,
      "d": 163.6362000000081,
      "v": 100
    },
    {
      "midi": 41,
      "hit": false,
      "t": 94908.99600000076,
      "d": 163.6362000000081,
      "v": 100
    },
    {
      "midi": 40,
      "hit": false,
      "t": 94908.99600000076,
      "d": 163.6362000000081,
      "v": 100
    },
    {
      "midi": 35,
      "hit": false,
      "t": 94908.99600000076,
      "d": 327.2724000000162,
      "v": 100
    },
    {
      "midi": 65,
      "hit": false,
      "t": 95090.81400000077,
      "d": 81.81810000000405,
      "v": 100
    },
    {
      "midi": 72,
      "hit": false,
      "t": 95090.81400000077,
      "d": 163.6362000000081,
      "v": 100
    },
    {
      "midi": 43,
      "hit": false,
      "t": 95090.81400000077,
      "d": 163.6362000000081,
      "v": 100
    },
    {
      "midi": 40,
      "hit": false,
      "t": 95090.81400000077,
      "d": 163.6362000000081,
      "v": 100
    },
    {
      "midi": 77,
      "hit": false,
      "t": 95090.81400000077,
      "d": 163.6362000000081,
      "v": 100
    },
    {
      "midi": 69,
      "hit": false,
      "t": 95272.63200000078,
      "d": 163.63619999999355,
      "v": 100
    },
    {
      "midi": 77,
      "hit": false,
      "t": 95272.63200000078,
      "d": 163.63619999999355,
      "v": 100
    },
    {
      "midi": 35,
      "hit": false,
      "t": 95272.63200000078,
      "d": 193.93919999999343,
      "v": 100
    },
    {
      "midi": 36,
      "hit": false,
      "t": 95272.63200000078,
      "d": 327.2723999999871,
      "v": 100
    },
    {
      "midi": 64,
      "hit": false,
      "t": 95272.63200000078,
      "d": 654.5448000000179,
      "v": 100
    },
    {
      "midi": 60,
      "hit": false,
      "t": 95272.63200000078,
      "d": 654.5448000000179,
      "v": 100
    },
    {
      "midi": 55,
      "hit": false,
      "t": 95272.63200000078,
      "d": 654.5448000000179,
      "v": 100
    },
    {
      "midi": 67,
      "hit": false,
      "t": 95454.45000000078,
      "d": 163.63619999999355,
      "v": 100
    },
    {
      "midi": 77,
      "hit": false,
      "t": 95454.45000000078,
      "d": 163.63619999999355,
      "v": 100
    },
    {
      "midi": 65,
      "hit": false,
      "t": 95636.26800000078,
      "d": 81.81810000000405,
      "v": 100
    },
    {
      "midi": 38,
      "hit": false,
      "t": 95636.26800000078,
      "d": 163.6362000000081,
      "v": 100
    },
    {
      "midi": 40,
      "hit": false,
      "t": 95636.26800000078,
      "d": 163.6362000000081,
      "v": 100
    },
    {
      "midi": 35,
      "hit": false,
      "t": 95636.26800000078,
      "d": 264.3936750000139,
      "v": 100
    },
    {
      "midi": 65,
      "hit": false,
      "t": 95818.0860000008,
      "d": 81.81810000000405,
      "v": 100
    },
    {
      "midi": 62,
      "hit": false,
      "t": 95818.0860000008,
      "d": 163.6362000000081,
      "v": 100
    },
    {
      "midi": 41,
      "hit": false,
      "t": 95818.0860000008,
      "d": 163.6362000000081,
      "v": 100
    },
    {
      "midi": 60,
      "hit": false,
      "t": 95999.90400000081,
      "d": 163.63619999999355,
      "v": 100
    },
    {
      "midi": 33,
      "hit": false,
      "t": 95999.90400000081,
      "d": 327.27240000000165,
      "v": 100
    },
    {
      "midi": 35,
      "hit": false,
      "t": 95999.90400000081,
      "d": 327.27240000000165,
      "v": 100
    },
    {
      "midi": 57,
      "hit": false,
      "t": 96181.72200000081,
      "d": 163.6362000000081,
      "v": 100
    },
    {
      "midi": 77,
      "hit": false,
      "t": 96181.72200000081,
      "d": 163.6362000000081,
      "v": 100
    },
    {
      "midi": 65,
      "hit": false,
      "t": 96363.54000000082,
      "d": 81.81810000000405,
      "v": 100
    },
    {
      "midi": 60,
      "hit": false,
      "t": 96363.54000000082,
      "d": 163.6362000000081,
      "v": 100
    },
    {
      "midi": 36,
      "hit": false,
      "t": 96363.54000000082,
      "d": 163.6362000000081,
      "v": 100
    },
    {
      "midi": 40,
      "hit": false,
      "t": 96363.54000000082,
      "d": 163.6362000000081,
      "v": 100
    },
    {
      "midi": 35,
      "hit": false,
      "t": 96363.54000000082,
      "d": 327.2724000000162,
      "v": 100
    },
    {
      "midi": 65,
      "hit": false,
      "t": 96545.35800000084,
      "d": 81.81810000000405,
      "v": 100
    },
    {
      "midi": 62,
      "hit": false,
      "t": 96545.35800000084,
      "d": 163.6362000000081,
      "v": 100
    },
    {
      "midi": 38,
      "hit": false,
      "t": 96545.35800000084,
      "d": 163.6362000000081,
      "v": 100
    },
    {
      "midi": 40,
      "hit": false,
      "t": 96545.35800000084,
      "d": 163.6362000000081,
      "v": 100
    },
    {
      "midi": 77,
      "hit": false,
      "t": 96545.35800000084,
      "d": 163.6362000000081,
      "v": 100
    },
    {
      "midi": 77,
      "hit": false,
      "t": 96727.17600000085,
      "d": 163.63619999999355,
      "v": 100
    },
    {
      "midi": 65,
      "hit": false,
      "t": 96727.17600000085,
      "d": 327.27240000000165,
      "v": 100
    },
    {
      "midi": 35,
      "hit": false,
      "t": 96727.17600000085,
      "d": 327.27240000000165,
      "v": 100
    },
    {
      "midi": 60,
      "hit": false,
      "t": 96727.17600000085,
      "d": 654.5448000000324,
      "v": 100
    },
    {
      "midi": 57,
      "hit": false,
      "t": 96727.17600000085,
      "d": 654.5448000000324,
      "v": 100
    },
    {
      "midi": 36,
      "hit": false,
      "t": 96727.17600000085,
      "d": 654.5448000000324,
      "v": 100
    },
    {
      "midi": 77,
      "hit": false,
      "t": 96908.99400000085,
      "d": 163.6362000000081,
      "v": 100
    },
    {
      "midi": 65,
      "hit": false,
      "t": 97090.81200000086,
      "d": 81.81810000000405,
      "v": 100
    },
    {
      "midi": 62,
      "hit": false,
      "t": 97090.81200000086,
      "d": 163.6362000000081,
      "v": 100
    },
    {
      "midi": 40,
      "hit": false,
      "t": 97090.81200000086,
      "d": 163.6362000000081,
      "v": 100
    },
    {
      "midi": 77,
      "hit": false,
      "t": 97090.81200000086,
      "d": 163.6362000000081,
      "v": 100
    },
    {
      "midi": 49,
      "hit": false,
      "t": 97090.81200000086,
      "d": 163.6362000000081,
      "v": 100
    },
    {
      "midi": 35,
      "hit": false,
      "t": 97090.81200000086,
      "d": 327.2724000000162,
      "v": 100
    },
    {
      "midi": 77,
      "hit": false,
      "t": 97272.63000000088,
      "d": 81.81810000000405,
      "v": 100
    },
    {
      "midi": 65,
      "hit": false,
      "t": 97272.63000000088,
      "d": 109.0908000000054,
      "v": 100
    },
    {
      "midi": 77,
      "hit": false,
      "t": 97363.53900000088,
      "d": 81.81810000000405,
      "v": 100
    },
    {
      "midi": 77,
      "hit": false,
      "t": 97454.44800000088,
      "d": 163.63619999999355,
      "v": 100
    },
    {
      "midi": 55,
      "hit": false,
      "t": 97454.44800000088,
      "d": 163.63619999999355,
      "v": 100
    },
    {
      "midi": 69,
      "hit": false,
      "t": 97454.44800000088,
      "d": 327.27240000000165,
      "v": 100
    },
    {
      "midi": 38,
      "hit": false,
      "t": 97454.44800000088,
      "d": 327.27240000000165,
      "v": 100
    },
    {
      "midi": 35,
      "hit": false,
      "t": 97454.44800000088,
      "d": 327.27240000000165,
      "v": 100
    },
    {
      "midi": 58,
      "hit": false,
      "t": 97454.44800000088,
      "d": 1309.0896000000503,
      "v": 100
    },
    {
      "midi": 77,
      "hit": false,
      "t": 97636.26600000088,
      "d": 163.6362000000081,
      "v": 100
    },
    {
      "midi": 65,
      "hit": false,
      "t": 97818.08400000089,
      "d": 81.81810000000405,
      "v": 100
    },
    {
      "midi": 67,
      "hit": false,
      "t": 97818.08400000089,
      "d": 163.6362000000081,
      "v": 100
    },
    {
      "midi": 41,
      "hit": false,
      "t": 97818.08400000089,
      "d": 163.6362000000081,
      "v": 100
    },
    {
      "midi": 40,
      "hit": false,
      "t": 97818.08400000089,
      "d": 163.6362000000081,
      "v": 100
    },
    {
      "midi": 35,
      "hit": false,
      "t": 97818.08400000089,
      "d": 327.2724000000162,
      "v": 100
    },
    {
      "midi": 65,
      "hit": false,
      "t": 97999.9020000009,
      "d": 81.81810000000405,
      "v": 100
    },
    {
      "midi": 45,
      "hit": false,
      "t": 97999.9020000009,
      "d": 163.6362000000081,
      "v": 100
    },
    {
      "midi": 40,
      "hit": false,
      "t": 97999.9020000009,
      "d": 163.6362000000081,
      "v": 100
    },
    {
      "midi": 77,
      "hit": false,
      "t": 97999.9020000009,
      "d": 163.6362000000081,
      "v": 100
    },
    {
      "midi": 77,
      "hit": false,
      "t": 98181.72000000092,
      "d": 163.63619999999355,
      "v": 100
    },
    {
      "midi": 62,
      "hit": false,
      "t": 98181.72000000092,
      "d": 327.27240000000165,
      "v": 100
    },
    {
      "midi": 38,
      "hit": false,
      "t": 98181.72000000092,
      "d": 327.27240000000165,
      "v": 100
    },
    {
      "midi": 35,
      "hit": false,
      "t": 98181.72000000092,
      "d": 351.51480000000447,
      "v": 100
    },
    {
      "midi": 77,
      "hit": false,
      "t": 98363.53800000092,
      "d": 163.6362000000081,
      "v": 100
    },
    {
      "midi": 65,
      "hit": false,
      "t": 98545.35600000092,
      "d": 81.81810000000405,
      "v": 100
    },
    {
      "midi": 38,
      "hit": false,
      "t": 98545.35600000092,
      "d": 163.6362000000081,
      "v": 100
    },
    {
      "midi": 40,
      "hit": false,
      "t": 98545.35600000092,
      "d": 163.6362000000081,
      "v": 100
    },
    {
      "midi": 35,
      "hit": false,
      "t": 98545.35600000092,
      "d": 327.2724000000162,
      "v": 100
    },
    {
      "midi": 67,
      "hit": false,
      "t": 98727.17400000093,
      "d": 163.6362000000081,
      "v": 100
    },
    {
      "midi": 41,
      "hit": false,
      "t": 98727.17400000093,
      "d": 163.6362000000081,
      "v": 100
    },
    {
      "midi": 77,
      "hit": false,
      "t": 98727.17400000093,
      "d": 169.69680000000517,
      "v": 100
    },
    {
      "midi": 77,
      "hit": false,
      "t": 98908.99200000093,
      "d": 163.63619999999355,
      "v": 100
    },
    {
      "midi": 69,
      "hit": false,
      "t": 98908.99200000093,
      "d": 327.27240000000165,
      "v": 100
    },
    {
      "midi": 38,
      "hit": false,
      "t": 98908.99200000093,
      "d": 327.27240000000165,
      "v": 100
    },
    {
      "midi": 58,
      "hit": false,
      "t": 98908.99200000093,
      "d": 654.5448000000324,
      "v": 100
    },
    {
      "midi": 62,
      "hit": false,
      "t": 98908.99200000093,
      "d": 654.5448000000324,
      "v": 100
    },
    {
      "midi": 35,
      "hit": false,
      "t": 98908.99200000093,
      "d": 690.9084000000294,
      "v": 100
    },
    {
      "midi": 77,
      "hit": false,
      "t": 99090.81000000093,
      "d": 163.6362000000081,
      "v": 100
    },
    {
      "midi": 65,
      "hit": false,
      "t": 99272.62800000094,
      "d": 81.81810000000405,
      "v": 100
    },
    {
      "midi": 67,
      "hit": false,
      "t": 99272.62800000094,
      "d": 163.6362000000081,
      "v": 100
    },
    {
      "midi": 41,
      "hit": false,
      "t": 99272.62800000094,
      "d": 163.6362000000081,
      "v": 100
    },
    {
      "midi": 40,
      "hit": false,
      "t": 99272.62800000094,
      "d": 345.45420000002196,
      "v": 100
    },
    {
      "midi": 65,
      "hit": false,
      "t": 99454.44600000096,
      "d": 81.81810000000405,
      "v": 100
    },
    {
      "midi": 45,
      "hit": false,
      "t": 99454.44600000096,
      "d": 163.6362000000081,
      "v": 100
    },
    {
      "midi": 77,
      "hit": false,
      "t": 99454.44600000096,
      "d": 345.4542000000074,
      "v": 100
    },
    {
      "midi": 62,
      "hit": false,
      "t": 99636.26400000097,
      "d": 327.27240000000165,
      "v": 100
    },
    {
      "midi": 38,
      "hit": false,
      "t": 99636.26400000097,
      "d": 327.27240000000165,
      "v": 100
    },
    {
      "midi": 35,
      "hit": false,
      "t": 99636.26400000097,
      "d": 327.27240000000165,
      "v": 100
    },
    {
      "midi": 77,
      "hit": false,
      "t": 99818.08200000097,
      "d": 163.6362000000081,
      "v": 100
    },
    {
      "midi": 65,
      "hit": false,
      "t": 99999.90000000098,
      "d": 81.81810000000405,
      "v": 100
    },
    {
      "midi": 62,
      "hit": false,
      "t": 99999.90000000098,
      "d": 163.6362000000081,
      "v": 100
    },
    {
      "midi": 58,
      "hit": false,
      "t": 99999.90000000098,
      "d": 163.6362000000081,
      "v": 100
    },
    {
      "midi": 38,
      "hit": false,
      "t": 99999.90000000098,
      "d": 163.6362000000081,
      "v": 100
    },
    {
      "midi": 40,
      "hit": false,
      "t": 99999.90000000098,
      "d": 163.6362000000081,
      "v": 100
    },
    {
      "midi": 77,
      "hit": false,
      "t": 99999.90000000098,
      "d": 163.6362000000081,
      "v": 100
    },
    {
      "midi": 49,
      "hit": false,
      "t": 99999.90000000098,
      "d": 163.6362000000081,
      "v": 100
    },
    {
      "midi": 35,
      "hit": false,
      "t": 99999.90000000098,
      "d": 327.2724000000162,
      "v": 100
    },
    {
      "midi": 77,
      "hit": false,
      "t": 100181.718000001,
      "d": 81.81810000000405,
      "v": 100
    },
    {
      "midi": 67,
      "hit": false,
      "t": 100181.718000001,
      "d": 163.6362000000081,
      "v": 100
    },
    {
      "midi": 36,
      "hit": false,
      "t": 100181.718000001,
      "d": 163.6362000000081,
      "v": 100
    },
    {
      "midi": 40,
      "hit": false,
      "t": 100181.718000001,
      "d": 163.6362000000081,
      "v": 100
    },
    {
      "midi": 77,
      "hit": false,
      "t": 100272.627000001,
      "d": 81.81810000000405,
      "v": 100
    },
    {
      "midi": 40,
      "hit": false,
      "t": 100545.354000001,
      "d": 163.63619999999355,
      "v": 100
    },
    {
      "midi": 35,
      "hit": false,
      "t": 100545.354000001,
      "d": 163.63619999999355,
      "v": 100
    },
    {
      "midi": 77,
      "hit": false,
      "t": 100545.354000001,
      "d": 163.63619999999355,
      "v": 100
    },
    {
      "midi": 44,
      "hit": false,
      "t": 100545.354000001,
      "d": 163.63619999999355,
      "v": 100
    },
    {
      "midi": 69,
      "hit": false,
      "t": 100545.354000001,
      "d": 327.27240000000165,
      "v": 100
    },
    {
      "midi": 38,
      "hit": false,
      "t": 100545.354000001,
      "d": 327.27240000000165,
      "v": 100
    },
    {
      "midi": 58,
      "hit": false,
      "t": 100545.354000001,
      "d": 490.90860000000976,
      "v": 100
    },
    {
      "midi": 62,
      "hit": false,
      "t": 100545.354000001,
      "d": 490.90860000000976,
      "v": 100
    },
    {
      "midi": 65,
      "hit": false,
      "t": 100727.172000001,
      "d": 81.81810000000405,
      "v": 100
    },
    {
      "midi": 65,
      "hit": false,
      "t": 100908.990000001,
      "d": 81.81810000000405,
      "v": 100
    },
    {
      "midi": 67,
      "hit": false,
      "t": 100908.990000001,
      "d": 163.6362000000081,
      "v": 100
    },
    {
      "midi": 36,
      "hit": false,
      "t": 100908.990000001,
      "d": 163.6362000000081,
      "v": 100
    },
    {
      "midi": 40,
      "hit": false,
      "t": 100908.990000001,
      "d": 163.6362000000081,
      "v": 100
    },
    {
      "midi": 35,
      "hit": false,
      "t": 100908.990000001,
      "d": 163.6362000000081,
      "v": 100
    },
    {
      "midi": 77,
      "hit": false,
      "t": 100908.990000001,
      "d": 163.6362000000081,
      "v": 100
    },
    {
      "midi": 44,
      "hit": false,
      "t": 100908.990000001,
      "d": 163.6362000000081,
      "v": 100
    },
    {
      "midi": 40,
      "hit": false,
      "t": 101090.80800000101,
      "d": 163.63619999999355,
      "v": 100
    },
    {
      "midi": 35,
      "hit": false,
      "t": 101090.80800000101,
      "d": 163.63619999999355,
      "v": 100
    },
    {
      "midi": 77,
      "hit": false,
      "t": 101090.80800000101,
      "d": 163.63619999999355,
      "v": 100
    },
    {
      "midi": 44,
      "hit": false,
      "t": 101090.80800000101,
      "d": 163.63619999999355,
      "v": 100
    },
    {
      "midi": 69,
      "hit": false,
      "t": 101090.80800000101,
      "d": 327.2723999999871,
      "v": 100
    },
    {
      "midi": 58,
      "hit": false,
      "t": 101090.80800000101,
      "d": 327.2723999999871,
      "v": 100
    },
    {
      "midi": 62,
      "hit": false,
      "t": 101090.80800000101,
      "d": 327.2723999999871,
      "v": 100
    },
    {
      "midi": 65,
      "hit": false,
      "t": 101090.80800000101,
      "d": 327.2723999999871,
      "v": 100
    },
    {
      "midi": 38,
      "hit": false,
      "t": 101090.80800000101,
      "d": 327.2723999999871,
      "v": 100
    },
    {
      "midi": 65,
      "hit": false,
      "t": 101454.44400000099,
      "d": 81.81810000000405,
      "v": 100
    },
    {
      "midi": 35,
      "hit": false,
      "t": 101454.44400000099,
      "d": 131.81805000000168,
      "v": 100
    },
    {
      "midi": 77,
      "hit": false,
      "t": 101454.44400000099,
      "d": 163.6362000000081,
      "v": 100
    },
    {
      "midi": 44,
      "hit": false,
      "t": 101454.44400000099,
      "d": 163.6362000000081,
      "v": 100
    },
    {
      "midi": 40,
      "hit": false,
      "t": 101454.44400000099,
      "d": 222.72705000001588,
      "v": 100
    },
    {
      "midi": 72,
      "hit": false,
      "t": 101454.44400000099,
      "d": 327.27240000003076,
      "v": 100
    },
    {
      "midi": 58,
      "hit": false,
      "t": 101454.44400000099,
      "d": 327.27240000003076,
      "v": 100
    },
    {
      "midi": 62,
      "hit": false,
      "t": 101454.44400000099,
      "d": 327.27240000003076,
      "v": 100
    },
    {
      "midi": 38,
      "hit": false,
      "t": 101454.44400000099,
      "d": 327.27240000003076,
      "v": 100
    },
    {
      "midi": 40,
      "hit": false,
      "t": 101818.08000000102,
      "d": 131.81805000000168,
      "v": 100
    },
    {
      "midi": 77,
      "hit": false,
      "t": 101818.08000000102,
      "d": 163.6362000000081,
      "v": 100
    },
    {
      "midi": 55,
      "hit": false,
      "t": 101818.08000000102,
      "d": 163.6362000000081,
      "v": 100
    },
    {
      "midi": 35,
      "hit": false,
      "t": 101818.08000000102,
      "d": 222.72705000000133,
      "v": 100
    },
    {
      "midi": 67,
      "hit": false,
      "t": 101818.08000000102,
      "d": 327.27240000000165,
      "v": 100
    },
    {
      "midi": 36,
      "hit": false,
      "t": 101818.08000000102,
      "d": 1309.0896000000212,
      "v": 100
    },
    {
      "midi": 64,
      "hit": false,
      "t": 102181.71600000102,
      "d": 81.81810000000405,
      "v": 100
    },
    {
      "midi": 60,
      "hit": false,
      "t": 102181.71600000102,
      "d": 163.6362000000081,
      "v": 100
    },
    {
      "midi": 35,
      "hit": false,
      "t": 102181.71600000102,
      "d": 327.2724000000162,
      "v": 100
    },
    {
      "midi": 64,
      "hit": false,
      "t": 102363.53400000103,
      "d": 81.81810000000405,
      "v": 100
    },
    {
      "midi": 62,
      "hit": false,
      "t": 102363.53400000103,
      "d": 163.6362000000081,
      "v": 100
    },
    {
      "midi": 64,
      "hit": false,
      "t": 102545.35200000105,
      "d": 327.27240000000165,
      "v": 100
    },
    {
      "midi": 35,
      "hit": false,
      "t": 102545.35200000105,
      "d": 327.27240000000165,
      "v": 100
    },
    {
      "midi": 65,
      "hit": false,
      "t": 102908.98800000105,
      "d": 327.27240000000165,
      "v": 100
    },
    {
      "midi": 35,
      "hit": false,
      "t": 102908.98800000105,
      "d": 327.27240000000165,
      "v": 100
    },
    {
      "midi": 35,
      "hit": false,
      "t": 103272.62400000104,
      "d": 163.636199999979,
      "v": 100
    },
    {
      "midi": 55,
      "hit": false,
      "t": 103272.62400000104,
      "d": 163.636199999979,
      "v": 100
    },
    {
      "midi": 52,
      "hit": false,
      "t": 103272.62400000104,
      "d": 163.636199999979,
      "v": 100
    },
    {
      "midi": 65,
      "hit": false,
      "t": 103272.62400000104,
      "d": 1309.0895999998029,
      "v": 100
    },
    {
      "midi": 62,
      "hit": false,
      "t": 103272.62400000104,
      "d": 1309.0895999998029,
      "v": 100
    },
    {
      "midi": 57,
      "hit": false,
      "t": 103272.62400000104,
      "d": 1309.0895999998029,
      "v": 100
    },
    {
      "midi": 35,
      "hit": false,
      "t": 103999.89600000094,
      "d": 163.636199999979,
      "v": 100
    },
    {
      "midi": 35,
      "hit": false,
      "t": 104727.16800000083,
      "d": 163.636199999979,
      "v": 100
    },
    {
      "midi": 35,
      "hit": false,
      "t": 105272.62200000076,
      "d": 163.636199999979,
      "v": 100
    },
    {
      "midi": 35,
      "hit": false,
      "t": 105454.44000000074,
      "d": 527.2721999999922,
      "v": 100
    },
    {
      "midi": 60,
      "hit": false,
      "t": 105636.25800000074,
      "d": 163.63619999999355,
      "v": 100
    },
    {
      "midi": 40,
      "hit": false,
      "t": 105636.25800000074,
      "d": 163.63619999999355,
      "v": 100
    },
    {
      "midi": 60,
      "hit": false,
      "t": 105818.07600000074,
      "d": 163.63619999999355,
      "v": 100
    },
    {
      "midi": 40,
      "hit": false,
      "t": 105818.07600000074,
      "d": 163.63619999999355,
      "v": 100
    },
    {
      "midi": 60,
      "hit": false,
      "t": 105999.89400000074,
      "d": 163.63619999999355,
      "v": 100
    },
    {
      "midi": 40,
      "hit": false,
      "t": 105999.89400000074,
      "d": 163.63619999999355,
      "v": 100
    },
    {
      "midi": 35,
      "hit": false,
      "t": 105999.89400000074,
      "d": 163.63619999999355,
      "v": 100
    },
    {
      "midi": 35,
      "hit": false,
      "t": 106181.71200000074,
      "d": 163.63619999999355,
      "v": 100
    },
    {
      "midi": 65,
      "hit": false,
      "t": 106181.71200000074,
      "d": 327.27240000000165,
      "v": 100
    },
    {
      "midi": 41,
      "hit": false,
      "t": 106181.71200000074,
      "d": 490.90860000000976,
      "v": 100
    },
    {
      "midi": 49,
      "hit": false,
      "t": 106181.71200000074,
      "d": 654.5448000000179,
      "v": 100
    },
    {
      "midi": 57,
      "hit": false,
      "t": 106181.71200000074,
      "d": 1309.0896000000212,
      "v": 100
    },
    {
      "midi": 69,
      "hit": false,
      "t": 106363.53000000074,
      "d": 163.6362000000081,
      "v": 100
    },
    {
      "midi": 65,
      "hit": false,
      "t": 106545.34800000075,
      "d": 81.81810000000405,
      "v": 100
    },
    {
      "midi": 67,
      "hit": false,
      "t": 106545.34800000075,
      "d": 327.27240000000165,
      "v": 100
    },
    {
      "midi": 40,
      "hit": false,
      "t": 106545.34800000075,
      "d": 327.27240000000165,
      "v": 100
    },
    {
      "midi": 65,
      "hit": false,
      "t": 106727.16600000075,
      "d": 81.81810000000405,
      "v": 100
    },
    {
      "midi": 41,
      "hit": false,
      "t": 106727.16600000075,
      "d": 163.6362000000081,
      "v": 100
    },
    {
      "midi": 35,
      "hit": false,
      "t": 106727.16600000075,
      "d": 163.6362000000081,
      "v": 100
    },
    {
      "midi": 69,
      "hit": false,
      "t": 106908.98400000077,
      "d": 163.63619999999355,
      "v": 100
    },
    {
      "midi": 35,
      "hit": false,
      "t": 106908.98400000077,
      "d": 163.63619999999355,
      "v": 100
    },
    {
      "midi": 62,
      "hit": false,
      "t": 106908.98400000077,
      "d": 327.2723999999871,
      "v": 100
    },
    {
      "midi": 41,
      "hit": false,
      "t": 106908.98400000077,
      "d": 327.2723999999871,
      "v": 100
    },
    {
      "midi": 65,
      "hit": false,
      "t": 107272.62000000075,
      "d": 81.81810000000405,
      "v": 100
    },
    {
      "midi": 60,
      "hit": false,
      "t": 107272.62000000075,
      "d": 163.6362000000081,
      "v": 100
    },
    {
      "midi": 38,
      "hit": false,
      "t": 107272.62000000075,
      "d": 163.6362000000081,
      "v": 100
    },
    {
      "midi": 40,
      "hit": false,
      "t": 107272.62000000075,
      "d": 327.2724000000162,
      "v": 100
    },
    {
      "midi": 62,
      "hit": false,
      "t": 107454.43800000077,
      "d": 163.6362000000081,
      "v": 100
    },
    {
      "midi": 36,
      "hit": false,
      "t": 107454.43800000077,
      "d": 163.6362000000081,
      "v": 100
    },
    {
      "midi": 65,
      "hit": false,
      "t": 107636.25600000078,
      "d": 163.63619999999355,
      "v": 100
    },
    {
      "midi": 41,
      "hit": false,
      "t": 107636.25600000078,
      "d": 163.63619999999355,
      "v": 100
    },
    {
      "midi": 35,
      "hit": false,
      "t": 107636.25600000078,
      "d": 163.63619999999355,
      "v": 100
    },
    {
      "midi": 65,
      "hit": false,
      "t": 107818.07400000078,
      "d": 163.63619999999355,
      "v": 100
    },
    {
      "midi": 69,
      "hit": false,
      "t": 107818.07400000078,
      "d": 163.63619999999355,
      "v": 100
    },
    {
      "midi": 41,
      "hit": false,
      "t": 107818.07400000078,
      "d": 327.27240000000165,
      "v": 100
    },
    {
      "midi": 65,
      "hit": false,
      "t": 107999.89200000078,
      "d": 81.81810000000405,
      "v": 100
    },
    {
      "midi": 40,
      "hit": false,
      "t": 107999.89200000078,
      "d": 327.2724000000162,
      "v": 100
    },
    {
      "midi": 65,
      "hit": false,
      "t": 108181.71000000079,
      "d": 81.81810000000405,
      "v": 100
    },
    {
      "midi": 67,
      "hit": false,
      "t": 108181.71000000079,
      "d": 163.6362000000081,
      "v": 100
    },
    {
      "midi": 36,
      "hit": false,
      "t": 108181.71000000079,
      "d": 163.6362000000081,
      "v": 100
    },
    {
      "midi": 35,
      "hit": false,
      "t": 108181.71000000079,
      "d": 163.6362000000081,
      "v": 100
    },
    {
      "midi": 41,
      "hit": false,
      "t": 108363.5280000008,
      "d": 163.63619999999355,
      "v": 100
    },
    {
      "midi": 69,
      "hit": false,
      "t": 108363.5280000008,
      "d": 163.63619999999355,
      "v": 100
    },
    {
      "midi": 35,
      "hit": false,
      "t": 108363.5280000008,
      "d": 163.63619999999355,
      "v": 100
    },
    {
      "midi": 62,
      "hit": false,
      "t": 108363.5280000008,
      "d": 654.5448000000179,
      "v": 100
    },
    {
      "midi": 28,
      "hit": false,
      "t": 108545.3460000008,
      "d": 81.81810000000405,
      "v": 100
    },
    {
      "midi": 28,
      "hit": false,
      "t": 108636.2550000008,
      "d": 81.81810000000405,
      "v": 100
    },
    {
      "midi": 65,
      "hit": false,
      "t": 108727.1640000008,
      "d": 81.81810000000405,
      "v": 100
    },
    {
      "midi": 77,
      "hit": false,
      "t": 108727.1640000008,
      "d": 163.6362000000081,
      "v": 100
    },
    {
      "midi": 36,
      "hit": false,
      "t": 108727.1640000008,
      "d": 327.2724000000162,
      "v": 100
    },
    {
      "midi": 40,
      "hit": false,
      "t": 108727.1640000008,
      "d": 327.2724000000162,
      "v": 100
    },
    {
      "midi": 28,
      "hit": false,
      "t": 108727.1640000008,
      "d": 327.2724000000162,
      "v": 100
    },
    {
      "midi": 77,
      "hit": false,
      "t": 108908.98200000082,
      "d": 163.6362000000081,
      "v": 100
    },
    {
      "midi": 35,
      "hit": false,
      "t": 109090.80000000083,
      "d": 163.63619999999355,
      "v": 100
    },
    {
      "midi": 65,
      "hit": false,
      "t": 109090.80000000083,
      "d": 327.27240000000165,
      "v": 100
    },
    {
      "midi": 38,
      "hit": false,
      "t": 109090.80000000083,
      "d": 490.9086000000243,
      "v": 100
    },
    {
      "midi": 57,
      "hit": false,
      "t": 109090.80000000083,
      "d": 1309.0896000000357,
      "v": 100
    },
    {
      "midi": 69,
      "hit": false,
      "t": 109272.61800000083,
      "d": 163.6362000000081,
      "v": 100
    },
    {
      "midi": 62,
      "hit": false,
      "t": 109454.43600000085,
      "d": 81.81810000000405,
      "v": 100
    },
    {
      "midi": 67,
      "hit": false,
      "t": 109454.43600000085,
      "d": 327.2724000000162,
      "v": 100
    },
    {
      "midi": 40,
      "hit": false,
      "t": 109454.43600000085,
      "d": 327.2724000000162,
      "v": 100
    },
    {
      "midi": 62,
      "hit": false,
      "t": 109636.25400000086,
      "d": 81.81810000000405,
      "v": 100
    },
    {
      "midi": 38,
      "hit": false,
      "t": 109636.25400000086,
      "d": 163.6362000000081,
      "v": 100
    },
    {
      "midi": 35,
      "hit": false,
      "t": 109636.25400000086,
      "d": 163.6362000000081,
      "v": 100
    },
    {
      "midi": 69,
      "hit": false,
      "t": 109818.07200000087,
      "d": 163.63619999999355,
      "v": 100
    },
    {
      "midi": 35,
      "hit": false,
      "t": 109818.07200000087,
      "d": 163.63619999999355,
      "v": 100
    },
    {
      "midi": 62,
      "hit": false,
      "t": 109818.07200000087,
      "d": 327.2723999999871,
      "v": 100
    },
    {
      "midi": 38,
      "hit": false,
      "t": 109818.07200000087,
      "d": 327.2723999999871,
      "v": 100
    },
    {
      "midi": 62,
      "hit": false,
      "t": 110181.70800000086,
      "d": 81.81810000000405,
      "v": 100
    },
    {
      "midi": 60,
      "hit": false,
      "t": 110181.70800000086,
      "d": 163.6362000000081,
      "v": 100
    },
    {
      "midi": 36,
      "hit": false,
      "t": 110181.70800000086,
      "d": 163.6362000000081,
      "v": 100
    },
    {
      "midi": 40,
      "hit": false,
      "t": 110181.70800000086,
      "d": 327.2724000000162,
      "v": 100
    },
    {
      "midi": 62,
      "hit": false,
      "t": 110363.52600000087,
      "d": 36.36359999999695,
      "v": 100
    },
    {
      "midi": 33,
      "hit": false,
      "t": 110363.52600000087,
      "d": 163.6362000000081,
      "v": 100
    },
    {
      "midi": 65,
      "hit": false,
      "t": 110545.34400000088,
      "d": 163.63619999999355,
      "v": 100
    },
    {
      "midi": 38,
      "hit": false,
      "t": 110545.34400000088,
      "d": 163.63619999999355,
      "v": 100
    },
    {
      "midi": 35,
      "hit": false,
      "t": 110545.34400000088,
      "d": 163.63619999999355,
      "v": 100
    },
    {
      "midi": 65,
      "hit": false,
      "t": 110727.16200000088,
      "d": 163.63619999999355,
      "v": 100
    },
    {
      "midi": 69,
      "hit": false,
      "t": 110727.16200000088,
      "d": 312.878475000005,
      "v": 100
    },
    {
      "midi": 38,
      "hit": false,
      "t": 110727.16200000088,
      "d": 327.27240000000165,
      "v": 100
    },
    {
      "midi": 62,
      "hit": false,
      "t": 110908.98000000088,
      "d": 81.81810000000405,
      "v": 100
    },
    {
      "midi": 65,
      "hit": false,
      "t": 110908.98000000088,
      "d": 163.6362000000081,
      "v": 100
    },
    {
      "midi": 40,
      "hit": false,
      "t": 110908.98000000088,
      "d": 327.2724000000162,
      "v": 100
    },
    {
      "midi": 62,
      "hit": false,
      "t": 111090.7980000009,
      "d": 81.81810000000405,
      "v": 100
    },
    {
      "midi": 67,
      "hit": false,
      "t": 111090.7980000009,
      "d": 163.6362000000081,
      "v": 100
    },
    {
      "midi": 33,
      "hit": false,
      "t": 111090.7980000009,
      "d": 163.6362000000081,
      "v": 100
    },
    {
      "midi": 35,
      "hit": false,
      "t": 111090.7980000009,
      "d": 163.6362000000081,
      "v": 100
    },
    {
      "midi": 38,
      "hit": false,
      "t": 111272.61600000091,
      "d": 163.63619999999355,
      "v": 100
    },
    {
      "midi": 69,
      "hit": false,
      "t": 111272.61600000091,
      "d": 163.63619999999355,
      "v": 100
    },
    {
      "midi": 35,
      "hit": false,
      "t": 111272.61600000091,
      "d": 163.63619999999355,
      "v": 100
    },
    {
      "midi": 39,
      "hit": false,
      "t": 111454.43400000091,
      "d": 163.63619999999355,
      "v": 100
    },
    {
      "midi": 62,
      "hit": false,
      "t": 111636.25200000091,
      "d": 81.81810000000405,
      "v": 100
    },
    {
      "midi": 77,
      "hit": false,
      "t": 111636.25200000091,
      "d": 163.6362000000081,
      "v": 100
    },
    {
      "midi": 33,
      "hit": false,
      "t": 111636.25200000091,
      "d": 327.2724000000162,
      "v": 100
    },
    {
      "midi": 40,
      "hit": false,
      "t": 111636.25200000091,
      "d": 327.2724000000162,
      "v": 100
    },
    {
      "midi": 39,
      "hit": false,
      "t": 111636.25200000091,
      "d": 327.2724000000162,
      "v": 100
    },
    {
      "midi": 77,
      "hit": false,
      "t": 111818.07000000092,
      "d": 163.6362000000081,
      "v": 100
    },
    {
      "midi": 35,
      "hit": false,
      "t": 111999.88800000094,
      "d": 163.63620000002265,
      "v": 100
    },
    {
      "midi": 65,
      "hit": false,
      "t": 111999.88800000094,
      "d": 327.2724000000453,
      "v": 100
    },
    {
      "midi": 34,
      "hit": false,
      "t": 111999.88800000094,
      "d": 490.9086000000534,
      "v": 100
    },
    {
      "midi": 58,
      "hit": false,
      "t": 111999.88800000094,
      "d": 1309.0896000000648,
      "v": 100
    },
    {
      "midi": 69,
      "hit": false,
      "t": 112181.70600000097,
      "d": 163.63620000002265,
      "v": 100
    },
    {
      "midi": 65,
      "hit": false,
      "t": 112363.524000001,
      "d": 81.81810000000405,
      "v": 100
    },
    {
      "midi": 67,
      "hit": false,
      "t": 112363.524000001,
      "d": 327.27240000000165,
      "v": 100
    },
    {
      "midi": 40,
      "hit": false,
      "t": 112363.524000001,
      "d": 474.24195000001055,
      "v": 100
    },
    {
      "midi": 65,
      "hit": false,
      "t": 112545.342000001,
      "d": 81.81810000000405,
      "v": 100
    },
    {
      "midi": 34,
      "hit": false,
      "t": 112545.342000001,
      "d": 163.6362000000081,
      "v": 100
    },
    {
      "midi": 35,
      "hit": false,
      "t": 112545.342000001,
      "d": 163.6362000000081,
      "v": 100
    },
    {
      "midi": 69,
      "hit": false,
      "t": 112727.16000000101,
      "d": 163.63619999999355,
      "v": 100
    },
    {
      "midi": 35,
      "hit": false,
      "t": 112727.16000000101,
      "d": 163.63619999999355,
      "v": 100
    },
    {
      "midi": 62,
      "hit": false,
      "t": 112727.16000000101,
      "d": 327.2723999999871,
      "v": 100
    },
    {
      "midi": 34,
      "hit": false,
      "t": 112727.16000000101,
      "d": 327.2723999999871,
      "v": 100
    },
    {
      "midi": 65,
      "hit": false,
      "t": 113090.79600000099,
      "d": 81.81810000000405,
      "v": 100
    },
    {
      "midi": 33,
      "hit": false,
      "t": 113090.79600000099,
      "d": 163.6362000000081,
      "v": 100
    },
    {
      "midi": 40,
      "hit": false,
      "t": 113090.79600000099,
      "d": 327.2724000000162,
      "v": 100
    },
    {
      "midi": 67,
      "hit": false,
      "t": 113272.614000001,
      "d": 163.6362000000081,
      "v": 100
    },
    {
      "midi": 31,
      "hit": false,
      "t": 113272.614000001,
      "d": 163.6362000000081,
      "v": 100
    },
    {
      "midi": 36,
      "hit": false,
      "t": 113454.43200000102,
      "d": 163.63619999999355,
      "v": 100
    },
    {
      "midi": 35,
      "hit": false,
      "t": 113454.43200000102,
      "d": 163.63619999999355,
      "v": 100
    },
    {
      "midi": 72,
      "hit": false,
      "t": 113454.43200000102,
      "d": 327.27240000000165,
      "v": 100
    },
    {
      "midi": 58,
      "hit": false,
      "t": 113454.43200000102,
      "d": 1309.0896000000357,
      "v": 100
    },
    {
      "midi": 36,
      "hit": false,
      "t": 113636.25000000102,
      "d": 163.6362000000081,
      "v": 100
    },
    {
      "midi": 69,
      "hit": false,
      "t": 113636.25000000102,
      "d": 163.6362000000081,
      "v": 100
    },
    {
      "midi": 65,
      "hit": false,
      "t": 113818.06800000103,
      "d": 81.81810000000405,
      "v": 100
    },
    {
      "midi": 69,
      "hit": false,
      "t": 113818.06800000103,
      "d": 163.6362000000081,
      "v": 100
    },
    {
      "midi": 40,
      "hit": false,
      "t": 113818.06800000103,
      "d": 571.2115500000218,
      "v": 100
    },
    {
      "midi": 65,
      "hit": false,
      "t": 113999.88600000105,
      "d": 81.81810000000405,
      "v": 100
    },
    {
      "midi": 67,
      "hit": false,
      "t": 113999.88600000105,
      "d": 163.6362000000081,
      "v": 100
    },
    {
      "midi": 36,
      "hit": false,
      "t": 113999.88600000105,
      "d": 163.6362000000081,
      "v": 100
    },
    {
      "midi": 35,
      "hit": false,
      "t": 113999.88600000105,
      "d": 163.6362000000081,
      "v": 100
    },
    {
      "midi": 69,
      "hit": false,
      "t": 114181.70400000106,
      "d": 163.63619999999355,
      "v": 100
    },
    {
      "midi": 35,
      "hit": false,
      "t": 114181.70400000106,
      "d": 163.63619999999355,
      "v": 100
    },
    {
      "midi": 65,
      "hit": false,
      "t": 114181.70400000106,
      "d": 327.2723999999871,
      "v": 100
    },
    {
      "midi": 36,
      "hit": false,
      "t": 114181.70400000106,
      "d": 327.2723999999871,
      "v": 100
    },
    {
      "midi": 65,
      "hit": false,
      "t": 114545.34000000104,
      "d": 81.81810000000405,
      "v": 100
    },
    {
      "midi": 77,
      "hit": false,
      "t": 114545.34000000104,
      "d": 163.6362000000081,
      "v": 100
    },
    {
      "midi": 62,
      "hit": false,
      "t": 114545.34000000104,
      "d": 218.1816000000108,
      "v": 100
    },
    {
      "midi": 38,
      "hit": false,
      "t": 114545.34000000104,
      "d": 327.2724000000162,
      "v": 100
    },
    {
      "midi": 40,
      "hit": false,
      "t": 114545.34000000104,
      "d": 327.2724000000162,
      "v": 100
    },
    {
      "midi": 77,
      "hit": false,
      "t": 114727.15800000106,
      "d": 163.6362000000081,
      "v": 100
    },
    {
      "midi": 35,
      "hit": false,
      "t": 114908.97600000107,
      "d": 163.63619999999355,
      "v": 100
    },
    {
      "midi": 41,
      "hit": false,
      "t": 114908.97600000107,
      "d": 490.90860000000976,
      "v": 100
    },
    {
      "midi": 60,
      "hit": false,
      "t": 114908.97600000107,
      "d": 1309.0896000000212,
      "v": 100
    },
    {
      "midi": 57,
      "hit": false,
      "t": 114908.97600000107,
      "d": 1309.0896000000212,
      "v": 100
    },
    {
      "midi": 69,
      "hit": false,
      "t": 115090.79400000107,
      "d": 163.63619999999355,
      "v": 100
    },
    {
      "midi": 65,
      "hit": false,
      "t": 115272.61200000107,
      "d": 81.81810000000405,
      "v": 100
    },
    {
      "midi": 40,
      "hit": false,
      "t": 115272.61200000107,
      "d": 327.2724000000162,
      "v": 100
    },
    {
      "midi": 65,
      "hit": false,
      "t": 115454.43000000108,
      "d": 81.81810000000405,
      "v": 100
    },
    {
      "midi": 41,
      "hit": false,
      "t": 115454.43000000108,
      "d": 163.6362000000081,
      "v": 100
    },
    {
      "midi": 35,
      "hit": false,
      "t": 115454.43000000108,
      "d": 163.6362000000081,
      "v": 100
    },
    {
      "midi": 69,
      "hit": false,
      "t": 115636.2480000011,
      "d": 163.63619999999355,
      "v": 100
    },
    {
      "midi": 35,
      "hit": false,
      "t": 115636.2480000011,
      "d": 163.63619999999355,
      "v": 100
    },
    {
      "midi": 41,
      "hit": false,
      "t": 115636.2480000011,
      "d": 327.2723999999871,
      "v": 100
    },
    {
      "midi": 65,
      "hit": false,
      "t": 115999.88400000108,
      "d": 81.81810000000405,
      "v": 100
    },
    {
      "midi": 38,
      "hit": false,
      "t": 115999.88400000108,
      "d": 163.6362000000081,
      "v": 100
    },
    {
      "midi": 40,
      "hit": false,
      "t": 115999.88400000108,
      "d": 327.2724000000162,
      "v": 100
    },
    {
      "midi": 65,
      "hit": false,
      "t": 116181.7020000011,
      "d": 81.81810000000405,
      "v": 100
    },
    {
      "midi": 36,
      "hit": false,
      "t": 116181.7020000011,
      "d": 163.6362000000081,
      "v": 100
    },
    {
      "midi": 69,
      "hit": false,
      "t": 116363.52000000111,
      "d": 163.63619999999355,
      "v": 100
    },
    {
      "midi": 64,
      "hit": false,
      "t": 116363.52000000111,
      "d": 163.63619999999355,
      "v": 100
    },
    {
      "midi": 38,
      "hit": false,
      "t": 116363.52000000111,
      "d": 163.63619999999355,
      "v": 100
    },
    {
      "midi": 35,
      "hit": false,
      "t": 116363.52000000111,
      "d": 163.63619999999355,
      "v": 100
    },
    {
      "midi": 67,
      "hit": false,
      "t": 116545.33800000111,
      "d": 163.63619999999355,
      "v": 100
    },
    {
      "midi": 62,
      "hit": false,
      "t": 116545.33800000111,
      "d": 163.63619999999355,
      "v": 100
    },
    {
      "midi": 69,
      "hit": false,
      "t": 116545.33800000111,
      "d": 163.63619999999355,
      "v": 100
    },
    {
      "midi": 38,
      "hit": false,
      "t": 116545.33800000111,
      "d": 327.27240000000165,
      "v": 100
    },
    {
      "midi": 65,
      "hit": false,
      "t": 116727.15600000111,
      "d": 81.81810000000405,
      "v": 100
    },
    {
      "midi": 69,
      "hit": false,
      "t": 116727.15600000111,
      "d": 163.6362000000081,
      "v": 100
    },
    {
      "midi": 64,
      "hit": false,
      "t": 116727.15600000111,
      "d": 163.6362000000081,
      "v": 100
    },
    {
      "midi": 40,
      "hit": false,
      "t": 116727.15600000111,
      "d": 327.2724000000162,
      "v": 100
    },
    {
      "midi": 65,
      "hit": false,
      "t": 116908.97400000112,
      "d": 81.81810000000405,
      "v": 100
    },
    {
      "midi": 72,
      "hit": false,
      "t": 116908.97400000112,
      "d": 163.6362000000081,
      "v": 100
    },
    {
      "midi": 67,
      "hit": false,
      "t": 116908.97400000112,
      "d": 163.6362000000081,
      "v": 100
    },
    {
      "midi": 43,
      "hit": false,
      "t": 116908.97400000112,
      "d": 163.6362000000081,
      "v": 100
    },
    {
      "midi": 35,
      "hit": false,
      "t": 116908.97400000112,
      "d": 163.6362000000081,
      "v": 100
    },
    {
      "midi": 69,
      "hit": false,
      "t": 117090.79200000114,
      "d": 163.63619999999355,
      "v": 100
    },
    {
      "midi": 35,
      "hit": false,
      "t": 117090.79200000114,
      "d": 163.63619999999355,
      "v": 100
    },
    {
      "midi": 64,
      "hit": false,
      "t": 117090.79200000114,
      "d": 327.27240000000165,
      "v": 100
    },
    {
      "midi": 38,
      "hit": false,
      "t": 117090.79200000114,
      "d": 327.27240000000165,
      "v": 100
    },
    {
      "midi": 40,
      "hit": false,
      "t": 117272.61000000114,
      "d": 163.6362000000081,
      "v": 100
    },
    {
      "midi": 60,
      "hit": false,
      "t": 117454.42800000115,
      "d": 81.81810000000405,
      "v": 100
    },
    {
      "midi": 40,
      "hit": false,
      "t": 117454.42800000115,
      "d": 163.6362000000081,
      "v": 100
    },
    {
      "midi": 77,
      "hit": false,
      "t": 117454.42800000115,
      "d": 163.6362000000081,
      "v": 100
    },
    {
      "midi": 67,
      "hit": false,
      "t": 117454.42800000115,
      "d": 327.2724000000162,
      "v": 100
    },
    {
      "midi": 62,
      "hit": false,
      "t": 117454.42800000115,
      "d": 327.2724000000162,
      "v": 100
    },
    {
      "midi": 36,
      "hit": false,
      "t": 117454.42800000115,
      "d": 327.2724000000162,
      "v": 100
    },
    {
      "midi": 77,
      "hit": false,
      "t": 117636.24600000116,
      "d": 163.6362000000081,
      "v": 100
    },
    {
      "midi": 35,
      "hit": false,
      "t": 117818.06400000118,
      "d": 163.63619999999355,
      "v": 100
    },
    {
      "midi": 65,
      "hit": false,
      "t": 117818.06400000118,
      "d": 327.27240000000165,
      "v": 100
    },
    {
      "midi": 41,
      "hit": false,
      "t": 117818.06400000118,
      "d": 490.9086000000243,
      "v": 100
    },
    {
      "midi": 49,
      "hit": false,
      "t": 117818.06400000118,
      "d": 654.5448000000324,
      "v": 100
    },
    {
      "midi": 57,
      "hit": false,
      "t": 117818.06400000118,
      "d": 1309.0896000000357,
      "v": 100
    },
    {
      "midi": 69,
      "hit": false,
      "t": 117999.88200000118,
      "d": 163.6362000000081,
      "v": 100
    },
    {
      "midi": 65,
      "hit": false,
      "t": 118181.70000000119,
      "d": 81.81810000000405,
      "v": 100
    },
    {
      "midi": 67,
      "hit": false,
      "t": 118181.70000000119,
      "d": 327.2724000000162,
      "v": 100
    },
    {
      "midi": 40,
      "hit": false,
      "t": 118181.70000000119,
      "d": 327.2724000000162,
      "v": 100
    },
    {
      "midi": 65,
      "hit": false,
      "t": 118363.5180000012,
      "d": 81.81810000000405,
      "v": 100
    },
    {
      "midi": 41,
      "hit": false,
      "t": 118363.5180000012,
      "d": 163.6362000000081,
      "v": 100
    },
    {
      "midi": 35,
      "hit": false,
      "t": 118363.5180000012,
      "d": 163.6362000000081,
      "v": 100
    },
    {
      "midi": 69,
      "hit": false,
      "t": 118545.33600000122,
      "d": 163.63619999999355,
      "v": 100
    },
    {
      "midi": 35,
      "hit": false,
      "t": 118545.33600000122,
      "d": 163.63619999999355,
      "v": 100
    },
    {
      "midi": 62,
      "hit": false,
      "t": 118545.33600000122,
      "d": 327.2723999999871,
      "v": 100
    },
    {
      "midi": 41,
      "hit": false,
      "t": 118545.33600000122,
      "d": 327.2723999999871,
      "v": 100
    },
    {
      "midi": 65,
      "hit": false,
      "t": 118908.9720000012,
      "d": 81.81810000000405,
      "v": 100
    },
    {
      "midi": 60,
      "hit": false,
      "t": 118908.9720000012,
      "d": 163.6362000000081,
      "v": 100
    },
    {
      "midi": 38,
      "hit": false,
      "t": 118908.9720000012,
      "d": 163.6362000000081,
      "v": 100
    },
    {
      "midi": 40,
      "hit": false,
      "t": 118908.9720000012,
      "d": 327.2724000000162,
      "v": 100
    },
    {
      "midi": 62,
      "hit": false,
      "t": 119090.79000000122,
      "d": 163.6362000000081,
      "v": 100
    },
    {
      "midi": 36,
      "hit": false,
      "t": 119090.79000000122,
      "d": 163.6362000000081,
      "v": 100
    },
    {
      "midi": 65,
      "hit": false,
      "t": 119272.60800000123,
      "d": 163.63619999999355,
      "v": 100
    },
    {
      "midi": 41,
      "hit": false,
      "t": 119272.60800000123,
      "d": 163.63619999999355,
      "v": 100
    },
    {
      "midi": 35,
      "hit": false,
      "t": 119272.60800000123,
      "d": 163.63619999999355,
      "v": 100
    },
    {
      "midi": 65,
      "hit": false,
      "t": 119454.42600000123,
      "d": 163.63619999999355,
      "v": 100
    },
    {
      "midi": 69,
      "hit": false,
      "t": 119454.42600000123,
      "d": 163.63619999999355,
      "v": 100
    },
    {
      "midi": 41,
      "hit": false,
      "t": 119454.42600000123,
      "d": 327.27240000000165,
      "v": 100
    },
    {
      "midi": 65,
      "hit": false,
      "t": 119636.24400000123,
      "d": 81.81810000000405,
      "v": 100
    },
    {
      "midi": 40,
      "hit": false,
      "t": 119636.24400000123,
      "d": 327.2724000000162,
      "v": 100
    },
    {
      "midi": 65,
      "hit": false,
      "t": 119818.06200000124,
      "d": 81.81810000000405,
      "v": 100
    },
    {
      "midi": 67,
      "hit": false,
      "t": 119818.06200000124,
      "d": 163.6362000000081,
      "v": 100
    },
    {
      "midi": 36,
      "hit": false,
      "t": 119818.06200000124,
      "d": 163.6362000000081,
      "v": 100
    },
    {
      "midi": 35,
      "hit": false,
      "t": 119818.06200000124,
      "d": 163.6362000000081,
      "v": 100
    },
    {
      "midi": 41,
      "hit": false,
      "t": 119999.88000000126,
      "d": 163.63619999999355,
      "v": 100
    },
    {
      "midi": 69,
      "hit": false,
      "t": 119999.88000000126,
      "d": 163.63619999999355,
      "v": 100
    },
    {
      "midi": 35,
      "hit": false,
      "t": 119999.88000000126,
      "d": 163.63619999999355,
      "v": 100
    },
    {
      "midi": 62,
      "hit": false,
      "t": 119999.88000000126,
      "d": 654.5448000000033,
      "v": 100
    },
    {
      "midi": 28,
      "hit": false,
      "t": 120181.69800000126,
      "d": 81.81810000000405,
      "v": 100
    },
    {
      "midi": 28,
      "hit": false,
      "t": 120272.60700000126,
      "d": 81.81810000000405,
      "v": 100
    },
    {
      "midi": 65,
      "hit": false,
      "t": 120363.51600000125,
      "d": 81.81810000000405,
      "v": 100
    },
    {
      "midi": 77,
      "hit": false,
      "t": 120363.51600000125,
      "d": 163.6362000000081,
      "v": 100
    },
    {
      "midi": 36,
      "hit": false,
      "t": 120363.51600000125,
      "d": 327.27240000000165,
      "v": 100
    },
    {
      "midi": 40,
      "hit": false,
      "t": 120363.51600000125,
      "d": 327.27240000000165,
      "v": 100
    },
    {
      "midi": 28,
      "hit": false,
      "t": 120363.51600000125,
      "d": 327.27240000000165,
      "v": 100
    },
    {
      "midi": 35,
      "hit": false,
      "t": 120727.15200000125,
      "d": 163.63619999999355,
      "v": 100
    },
    {
      "midi": 65,
      "hit": false,
      "t": 120727.15200000125,
      "d": 327.27240000000165,
      "v": 100
    },
    {
      "midi": 38,
      "hit": false,
      "t": 120727.15200000125,
      "d": 490.9086000000243,
      "v": 100
    },
    {
      "midi": 57,
      "hit": false,
      "t": 120727.15200000125,
      "d": 1309.0896000000357,
      "v": 100
    },
    {
      "midi": 69,
      "hit": false,
      "t": 120908.97000000125,
      "d": 163.6362000000081,
      "v": 100
    },
    {
      "midi": 62,
      "hit": false,
      "t": 121090.78800000127,
      "d": 81.81810000000405,
      "v": 100
    },
    {
      "midi": 67,
      "hit": false,
      "t": 121090.78800000127,
      "d": 327.2724000000162,
      "v": 100
    },
    {
      "midi": 40,
      "hit": false,
      "t": 121090.78800000127,
      "d": 327.2724000000162,
      "v": 100
    },
    {
      "midi": 62,
      "hit": false,
      "t": 121272.60600000128,
      "d": 81.81810000000405,
      "v": 100
    },
    {
      "midi": 38,
      "hit": false,
      "t": 121272.60600000128,
      "d": 163.6362000000081,
      "v": 100
    },
    {
      "midi": 35,
      "hit": false,
      "t": 121272.60600000128,
      "d": 163.6362000000081,
      "v": 100
    },
    {
      "midi": 69,
      "hit": false,
      "t": 121454.4240000013,
      "d": 163.63619999999355,
      "v": 100
    },
    {
      "midi": 35,
      "hit": false,
      "t": 121454.4240000013,
      "d": 163.63619999999355,
      "v": 100
    },
    {
      "midi": 62,
      "hit": false,
      "t": 121454.4240000013,
      "d": 327.2723999999871,
      "v": 100
    },
    {
      "midi": 38,
      "hit": false,
      "t": 121454.4240000013,
      "d": 327.2723999999871,
      "v": 100
    },
    {
      "midi": 62,
      "hit": false,
      "t": 121818.06000000128,
      "d": 81.81810000000405,
      "v": 100
    },
    {
      "midi": 60,
      "hit": false,
      "t": 121818.06000000128,
      "d": 163.6362000000081,
      "v": 100
    },
    {
      "midi": 36,
      "hit": false,
      "t": 121818.06000000128,
      "d": 163.6362000000081,
      "v": 100
    },
    {
      "midi": 40,
      "hit": false,
      "t": 121818.06000000128,
      "d": 327.2724000000162,
      "v": 100
    },
    {
      "midi": 62,
      "hit": false,
      "t": 121999.87800000129,
      "d": 36.36359999999695,
      "v": 100
    },
    {
      "midi": 33,
      "hit": false,
      "t": 121999.87800000129,
      "d": 163.6362000000081,
      "v": 100
    },
    {
      "midi": 65,
      "hit": false,
      "t": 122181.6960000013,
      "d": 163.63619999999355,
      "v": 100
    },
    {
      "midi": 38,
      "hit": false,
      "t": 122181.6960000013,
      "d": 163.63619999999355,
      "v": 100
    },
    {
      "midi": 35,
      "hit": false,
      "t": 122181.6960000013,
      "d": 163.63619999999355,
      "v": 100
    },
    {
      "midi": 65,
      "hit": false,
      "t": 122363.5140000013,
      "d": 163.63619999999355,
      "v": 100
    },
    {
      "midi": 69,
      "hit": false,
      "t": 122363.5140000013,
      "d": 163.63619999999355,
      "v": 100
    },
    {
      "midi": 38,
      "hit": false,
      "t": 122363.5140000013,
      "d": 327.27240000000165,
      "v": 100
    },
    {
      "midi": 62,
      "hit": false,
      "t": 122545.3320000013,
      "d": 81.81810000000405,
      "v": 100
    },
    {
      "midi": 65,
      "hit": false,
      "t": 122545.3320000013,
      "d": 163.6362000000081,
      "v": 100
    },
    {
      "midi": 40,
      "hit": false,
      "t": 122545.3320000013,
      "d": 327.2724000000162,
      "v": 100
    },
    {
      "midi": 62,
      "hit": false,
      "t": 122727.15000000132,
      "d": 81.81810000000405,
      "v": 100
    },
    {
      "midi": 67,
      "hit": false,
      "t": 122727.15000000132,
      "d": 163.6362000000081,
      "v": 100
    },
    {
      "midi": 33,
      "hit": false,
      "t": 122727.15000000132,
      "d": 163.6362000000081,
      "v": 100
    },
    {
      "midi": 35,
      "hit": false,
      "t": 122727.15000000132,
      "d": 163.6362000000081,
      "v": 100
    },
    {
      "midi": 38,
      "hit": false,
      "t": 122908.96800000133,
      "d": 163.63619999999355,
      "v": 100
    },
    {
      "midi": 69,
      "hit": false,
      "t": 122908.96800000133,
      "d": 163.63619999999355,
      "v": 100
    },
    {
      "midi": 35,
      "hit": false,
      "t": 122908.96800000133,
      "d": 163.63619999999355,
      "v": 100
    },
    {
      "midi": 39,
      "hit": false,
      "t": 123090.78600000133,
      "d": 163.63619999999355,
      "v": 100
    },
    {
      "midi": 62,
      "hit": false,
      "t": 123272.60400000133,
      "d": 81.81810000000405,
      "v": 100
    },
    {
      "midi": 77,
      "hit": false,
      "t": 123272.60400000133,
      "d": 163.6362000000081,
      "v": 100
    },
    {
      "midi": 33,
      "hit": false,
      "t": 123272.60400000133,
      "d": 327.2724000000162,
      "v": 100
    },
    {
      "midi": 39,
      "hit": false,
      "t": 123272.60400000133,
      "d": 327.2724000000162,
      "v": 100
    },
    {
      "midi": 40,
      "hit": false,
      "t": 123272.60400000133,
      "d": 390.15112500003306,
      "v": 100
    },
    {
      "midi": 77,
      "hit": false,
      "t": 123454.42200000134,
      "d": 163.6362000000081,
      "v": 100
    },
    {
      "midi": 35,
      "hit": false,
      "t": 123636.24000000136,
      "d": 163.63620000002265,
      "v": 100
    },
    {
      "midi": 65,
      "hit": false,
      "t": 123636.24000000136,
      "d": 327.2724000000453,
      "v": 100
    },
    {
      "midi": 34,
      "hit": false,
      "t": 123636.24000000136,
      "d": 490.9086000000534,
      "v": 100
    },
    {
      "midi": 58,
      "hit": false,
      "t": 123636.24000000136,
      "d": 1309.0896000000648,
      "v": 100
    },
    {
      "midi": 69,
      "hit": false,
      "t": 123818.05800000139,
      "d": 163.63620000002265,
      "v": 100
    },
    {
      "midi": 65,
      "hit": false,
      "t": 123999.87600000142,
      "d": 81.81810000000405,
      "v": 100
    },
    {
      "midi": 67,
      "hit": false,
      "t": 123999.87600000142,
      "d": 327.27240000000165,
      "v": 100
    },
    {
      "midi": 40,
      "hit": false,
      "t": 123999.87600000142,
      "d": 327.27240000000165,
      "v": 100
    },
    {
      "midi": 65,
      "hit": false,
      "t": 124181.69400000141,
      "d": 81.81810000000405,
      "v": 100
    },
    {
      "midi": 34,
      "hit": false,
      "t": 124181.69400000141,
      "d": 163.6362000000081,
      "v": 100
    },
    {
      "midi": 35,
      "hit": false,
      "t": 124181.69400000141,
      "d": 163.6362000000081,
      "v": 100
    },
    {
      "midi": 35,
      "hit": false,
      "t": 124363.51200000143,
      "d": 163.63619999999355,
      "v": 100
    },
    {
      "midi": 62,
      "hit": false,
      "t": 124363.51200000143,
      "d": 327.2723999999871,
      "v": 100
    },
    {
      "midi": 34,
      "hit": false,
      "t": 124363.51200000143,
      "d": 327.2723999999871,
      "v": 100
    },
    {
      "midi": 69,
      "hit": false,
      "t": 124363.51200000143,
      "d": 680.3023499999981,
      "v": 100
    },
    {
      "midi": 65,
      "hit": false,
      "t": 124727.14800000141,
      "d": 81.81810000000405,
      "v": 100
    },
    {
      "midi": 33,
      "hit": false,
      "t": 124727.14800000141,
      "d": 163.6362000000081,
      "v": 100
    },
    {
      "midi": 40,
      "hit": false,
      "t": 124727.14800000141,
      "d": 327.2724000000162,
      "v": 100
    },
    {
      "midi": 67,
      "hit": false,
      "t": 124908.96600000143,
      "d": 163.6362000000081,
      "v": 100
    },
    {
      "midi": 31,
      "hit": false,
      "t": 124908.96600000143,
      "d": 163.6362000000081,
      "v": 100
    },
    {
      "midi": 36,
      "hit": false,
      "t": 125090.78400000144,
      "d": 163.63619999999355,
      "v": 100
    },
    {
      "midi": 35,
      "hit": false,
      "t": 125090.78400000144,
      "d": 163.63619999999355,
      "v": 100
    },
    {
      "midi": 72,
      "hit": false,
      "t": 125090.78400000144,
      "d": 327.27240000000165,
      "v": 100
    },
    {
      "midi": 62,
      "hit": false,
      "t": 125090.78400000144,
      "d": 1309.0896000000357,
      "v": 100
    },
    {
      "midi": 58,
      "hit": false,
      "t": 125090.78400000144,
      "d": 1309.0896000000357,
      "v": 100
    },
    {
      "midi": 36,
      "hit": false,
      "t": 125272.60200000144,
      "d": 163.6362000000081,
      "v": 100
    },
    {
      "midi": 69,
      "hit": false,
      "t": 125272.60200000144,
      "d": 163.6362000000081,
      "v": 100
    },
    {
      "midi": 65,
      "hit": false,
      "t": 125454.42000000145,
      "d": 81.81810000000405,
      "v": 100
    },
    {
      "midi": 69,
      "hit": false,
      "t": 125454.42000000145,
      "d": 163.6362000000081,
      "v": 100
    },
    {
      "midi": 40,
      "hit": false,
      "t": 125454.42000000145,
      "d": 571.2115500000218,
      "v": 100
    },
    {
      "midi": 65,
      "hit": false,
      "t": 125636.23800000147,
      "d": 81.81810000000405,
      "v": 100
    },
    {
      "midi": 67,
      "hit": false,
      "t": 125636.23800000147,
      "d": 163.6362000000081,
      "v": 100
    },
    {
      "midi": 36,
      "hit": false,
      "t": 125636.23800000147,
      "d": 163.6362000000081,
      "v": 100
    },
    {
      "midi": 35,
      "hit": false,
      "t": 125636.23800000147,
      "d": 345.4542000000074,
      "v": 100
    },
    {
      "midi": 69,
      "hit": false,
      "t": 125818.05600000148,
      "d": 163.63619999999355,
      "v": 100
    },
    {
      "midi": 65,
      "hit": false,
      "t": 125818.05600000148,
      "d": 327.2723999999871,
      "v": 100
    },
    {
      "midi": 36,
      "hit": false,
      "t": 125818.05600000148,
      "d": 327.2723999999871,
      "v": 100
    },
    {
      "midi": 65,
      "hit": false,
      "t": 126181.69200000147,
      "d": 81.81810000000405,
      "v": 100
    },
    {
      "midi": 77,
      "hit": false,
      "t": 126181.69200000147,
      "d": 163.6362000000081,
      "v": 100
    },
    {
      "midi": 67,
      "hit": false,
      "t": 126181.69200000147,
      "d": 327.2724000000162,
      "v": 100
    },
    {
      "midi": 38,
      "hit": false,
      "t": 126181.69200000147,
      "d": 327.2724000000162,
      "v": 100
    },
    {
      "midi": 40,
      "hit": false,
      "t": 126181.69200000147,
      "d": 327.2724000000162,
      "v": 100
    },
    {
      "midi": 77,
      "hit": false,
      "t": 126363.51000000148,
      "d": 163.6362000000081,
      "v": 100
    },
    {
      "midi": 41,
      "hit": false,
      "t": 126545.3280000015,
      "d": 490.90860000000976,
      "v": 100
    },
    {
      "midi": 69,
      "hit": false,
      "t": 126727.14600000149,
      "d": 163.63619999999355,
      "v": 100
    },
    {
      "midi": 65,
      "hit": false,
      "t": 126908.96400000149,
      "d": 81.81810000000405,
      "v": 100
    },
    {
      "midi": 60,
      "hit": false,
      "t": 126908.96400000149,
      "d": 163.6362000000081,
      "v": 100
    },
    {
      "midi": 55,
      "hit": false,
      "t": 126908.96400000149,
      "d": 163.6362000000081,
      "v": 100
    },
    {
      "midi": 35,
      "hit": false,
      "t": 126908.96400000149,
      "d": 163.6362000000081,
      "v": 100
    },
    {
      "midi": 40,
      "hit": false,
      "t": 126908.96400000149,
      "d": 1054.544400000057,
      "v": 100
    },
    {
      "midi": 65,
      "hit": false,
      "t": 127090.7820000015,
      "d": 81.81810000000405,
      "v": 100
    },
    {
      "midi": 62,
      "hit": false,
      "t": 127090.7820000015,
      "d": 163.6362000000081,
      "v": 100
    },
    {
      "midi": 57,
      "hit": false,
      "t": 127090.7820000015,
      "d": 163.6362000000081,
      "v": 100
    },
    {
      "midi": 41,
      "hit": false,
      "t": 127090.7820000015,
      "d": 163.6362000000081,
      "v": 100
    },
    {
      "midi": 35,
      "hit": false,
      "t": 127090.7820000015,
      "d": 163.6362000000081,
      "v": 100
    },
    {
      "midi": 65,
      "hit": false,
      "t": 127272.60000000152,
      "d": 163.63619999999355,
      "v": 100
    },
    {
      "midi": 60,
      "hit": false,
      "t": 127272.60000000152,
      "d": 163.63619999999355,
      "v": 100
    },
    {
      "midi": 69,
      "hit": false,
      "t": 127272.60000000152,
      "d": 163.63619999999355,
      "v": 100
    },
    {
      "midi": 35,
      "hit": false,
      "t": 127272.60000000152,
      "d": 163.63619999999355,
      "v": 100
    },
    {
      "midi": 41,
      "hit": false,
      "t": 127272.60000000152,
      "d": 327.27240000000165,
      "v": 100
    },
    {
      "midi": 67,
      "hit": false,
      "t": 127454.41800000152,
      "d": 163.6362000000081,
      "v": 100
    },
    {
      "midi": 62,
      "hit": false,
      "t": 127454.41800000152,
      "d": 163.6362000000081,
      "v": 100
    },
    {
      "midi": 35,
      "hit": false,
      "t": 127454.41800000152,
      "d": 163.6362000000081,
      "v": 100
    },
    {
      "midi": 65,
      "hit": false,
      "t": 127636.23600000153,
      "d": 81.81810000000405,
      "v": 100
    },
    {
      "midi": 69,
      "hit": false,
      "t": 127636.23600000153,
      "d": 163.6362000000081,
      "v": 100
    },
    {
      "midi": 64,
      "hit": false,
      "t": 127636.23600000153,
      "d": 163.6362000000081,
      "v": 100
    },
    {
      "midi": 38,
      "hit": false,
      "t": 127636.23600000153,
      "d": 163.6362000000081,
      "v": 100
    },
    {
      "midi": 35,
      "hit": false,
      "t": 127636.23600000153,
      "d": 163.6362000000081,
      "v": 100
    },
    {
      "midi": 65,
      "hit": false,
      "t": 127818.05400000155,
      "d": 36.36359999999695,
      "v": 100
    },
    {
      "midi": 72,
      "hit": false,
      "t": 127818.05400000155,
      "d": 163.6362000000081,
      "v": 100
    },
    {
      "midi": 67,
      "hit": false,
      "t": 127818.05400000155,
      "d": 163.6362000000081,
      "v": 100
    },
    {
      "midi": 36,
      "hit": false,
      "t": 127818.05400000155,
      "d": 163.6362000000081,
      "v": 100
    },
    {
      "midi": 35,
      "hit": false,
      "t": 127818.05400000155,
      "d": 163.6362000000081,
      "v": 100
    },
    {
      "midi": 70,
      "hit": false,
      "t": 127999.87200000156,
      "d": 163.63619999999355,
      "v": 100
    },
    {
      "midi": 65,
      "hit": false,
      "t": 127999.87200000156,
      "d": 163.63619999999355,
      "v": 100
    },
    {
      "midi": 62,
      "hit": false,
      "t": 127999.87200000156,
      "d": 163.63619999999355,
      "v": 100
    },
    {
      "midi": 77,
      "hit": false,
      "t": 127999.87200000156,
      "d": 163.63619999999355,
      "v": 100
    },
    {
      "midi": 72,
      "hit": false,
      "t": 127999.87200000156,
      "d": 163.63619999999355,
      "v": 100
    },
    {
      "midi": 41,
      "hit": false,
      "t": 127999.87200000156,
      "d": 163.63619999999355,
      "v": 100
    },
    {
      "midi": 65,
      "hit": false,
      "t": 128363.50800000156,
      "d": 163.63619999999355,
      "v": 100
    },
    {
      "midi": 67,
      "hit": false,
      "t": 128545.32600000156,
      "d": 163.6362000000081,
      "v": 100
    },
    {
      "midi": 41,
      "hit": false,
      "t": 128545.32600000156,
      "d": 163.6362000000081,
      "v": 100
    },
    {
      "midi": 35,
      "hit": false,
      "t": 128727.14400000157,
      "d": 163.63619999999355,
      "v": 100
    },
    {
      "midi": 62,
      "hit": false,
      "t": 128727.14400000157,
      "d": 327.2723999999871,
      "v": 100
    },
    {
      "midi": 41,
      "hit": false,
      "t": 128727.14400000157,
      "d": 327.2723999999871,
      "v": 100
    },
    {
      "midi": 70,
      "hit": false,
      "t": 128727.14400000157,
      "d": 654.5447999999888,
      "v": 100
    },
    {
      "midi": 65,
      "hit": false,
      "t": 128727.14400000157,
      "d": 654.5447999999888,
      "v": 100
    },
    {
      "midi": 38,
      "hit": false,
      "t": 129090.78000000156,
      "d": 163.63619999999355,
      "v": 100
    },
    {
      "midi": 35,
      "hit": false,
      "t": 129090.78000000156,
      "d": 163.63619999999355,
      "v": 100
    },
    {
      "midi": 40,
      "hit": false,
      "t": 129090.78000000156,
      "d": 163.63619999999355,
      "v": 100
    },
    {
      "midi": 60,
      "hit": false,
      "t": 129090.78000000156,
      "d": 327.27240000000165,
      "v": 100
    },
    {
      "midi": 36,
      "hit": false,
      "t": 129272.59800000156,
      "d": 163.6362000000081,
      "v": 100
    },
    {
      "midi": 41,
      "hit": false,
      "t": 129454.41600000157,
      "d": 490.9085999999952,
      "v": 100
    },
    {
      "midi": 65,
      "hit": false,
      "t": 129454.41600000157,
      "d": 1309.0896000000212,
      "v": 100
    },
    {
      "midi": 60,
      "hit": false,
      "t": 129454.41600000157,
      "d": 1309.0896000000212,
      "v": 100
    },
    {
      "midi": 69,
      "hit": false,
      "t": 129636.23400000157,
      "d": 163.63619999999355,
      "v": 100
    },
    {
      "midi": 72,
      "hit": false,
      "t": 129818.05200000157,
      "d": 163.63619999999355,
      "v": 100
    },
    {
      "midi": 67,
      "hit": false,
      "t": 129818.05200000157,
      "d": 163.63619999999355,
      "v": 100
    },
    {
      "midi": 35,
      "hit": false,
      "t": 129818.05200000157,
      "d": 163.63619999999355,
      "v": 100
    },
    {
      "midi": 40,
      "hit": false,
      "t": 129818.05200000157,
      "d": 327.27240000000165,
      "v": 100
    },
    {
      "midi": 74,
      "hit": false,
      "t": 129999.87000000157,
      "d": 163.6362000000081,
      "v": 100
    },
    {
      "midi": 69,
      "hit": false,
      "t": 129999.87000000157,
      "d": 163.6362000000081,
      "v": 100
    },
    {
      "midi": 41,
      "hit": false,
      "t": 129999.87000000157,
      "d": 163.6362000000081,
      "v": 100
    },
    {
      "midi": 35,
      "hit": false,
      "t": 129999.87000000157,
      "d": 163.6362000000081,
      "v": 100
    },
    {
      "midi": 77,
      "hit": false,
      "t": 130181.68800000158,
      "d": 163.63619999999355,
      "v": 100
    },
    {
      "midi": 72,
      "hit": false,
      "t": 130181.68800000158,
      "d": 163.63619999999355,
      "v": 100
    },
    {
      "midi": 69,
      "hit": false,
      "t": 130181.68800000158,
      "d": 163.63619999999355,
      "v": 100
    },
    {
      "midi": 35,
      "hit": false,
      "t": 130181.68800000158,
      "d": 163.63619999999355,
      "v": 100
    },
    {
      "midi": 41,
      "hit": false,
      "t": 130181.68800000158,
      "d": 327.27240000000165,
      "v": 100
    },
    {
      "midi": 79,
      "hit": false,
      "t": 130363.50600000158,
      "d": 163.6362000000081,
      "v": 100
    },
    {
      "midi": 74,
      "hit": false,
      "t": 130363.50600000158,
      "d": 163.6362000000081,
      "v": 100
    },
    {
      "midi": 35,
      "hit": false,
      "t": 130363.50600000158,
      "d": 163.6362000000081,
      "v": 100
    },
    {
      "midi": 81,
      "hit": false,
      "t": 130545.3240000016,
      "d": 163.63619999999355,
      "v": 100
    },
    {
      "midi": 76,
      "hit": false,
      "t": 130545.3240000016,
      "d": 163.63619999999355,
      "v": 100
    },
    {
      "midi": 38,
      "hit": false,
      "t": 130545.3240000016,
      "d": 163.63619999999355,
      "v": 100
    },
    {
      "midi": 35,
      "hit": false,
      "t": 130545.3240000016,
      "d": 163.63619999999355,
      "v": 100
    },
    {
      "midi": 40,
      "hit": false,
      "t": 130545.3240000016,
      "d": 327.27240000000165,
      "v": 100
    },
    {
      "midi": 84,
      "hit": false,
      "t": 130727.1420000016,
      "d": 163.6362000000081,
      "v": 100
    },
    {
      "midi": 79,
      "hit": false,
      "t": 130727.1420000016,
      "d": 163.6362000000081,
      "v": 100
    },
    {
      "midi": 36,
      "hit": false,
      "t": 130727.1420000016,
      "d": 163.6362000000081,
      "v": 100
    },
    {
      "midi": 35,
      "hit": false,
      "t": 130727.1420000016,
      "d": 163.6362000000081,
      "v": 100
    },
    {
      "midi": 70,
      "hit": false,
      "t": 130908.9600000016,
      "d": 163.63619999999355,
      "v": 100
    },
    {
      "midi": 65,
      "hit": false,
      "t": 130908.9600000016,
      "d": 163.63619999999355,
      "v": 100
    },
    {
      "midi": 62,
      "hit": false,
      "t": 130908.9600000016,
      "d": 163.63619999999355,
      "v": 100
    },
    {
      "midi": 77,
      "hit": false,
      "t": 130908.9600000016,
      "d": 163.63619999999355,
      "v": 100
    },
    {
      "midi": 72,
      "hit": false,
      "t": 130908.9600000016,
      "d": 163.63619999999355,
      "v": 100
    },
    {
      "midi": 41,
      "hit": false,
      "t": 130908.9600000016,
      "d": 163.63619999999355,
      "v": 100
    },
    {
      "midi": 65,
      "hit": false,
      "t": 131272.5960000016,
      "d": 163.6362000000081,
      "v": 100
    },
    {
      "midi": 67,
      "hit": false,
      "t": 131454.4140000016,
      "d": 163.6362000000081,
      "v": 100
    },
    {
      "midi": 41,
      "hit": false,
      "t": 131454.4140000016,
      "d": 163.6362000000081,
      "v": 100
    },
    {
      "midi": 35,
      "hit": false,
      "t": 131636.2320000016,
      "d": 163.6362000000081,
      "v": 100
    },
    {
      "midi": 62,
      "hit": false,
      "t": 131636.2320000016,
      "d": 327.2723999999871,
      "v": 100
    },
    {
      "midi": 41,
      "hit": false,
      "t": 131636.2320000016,
      "d": 327.2723999999871,
      "v": 100
    },
    {
      "midi": 70,
      "hit": false,
      "t": 131636.2320000016,
      "d": 654.5447999999742,
      "v": 100
    },
    {
      "midi": 65,
      "hit": false,
      "t": 131636.2320000016,
      "d": 654.5447999999742,
      "v": 100
    },
    {
      "midi": 40,
      "hit": false,
      "t": 131818.0500000016,
      "d": 163.636199999979,
      "v": 100
    },
    {
      "midi": 38,
      "hit": false,
      "t": 131999.86800000156,
      "d": 163.6362000000081,
      "v": 100
    },
    {
      "midi": 35,
      "hit": false,
      "t": 131999.86800000156,
      "d": 163.6362000000081,
      "v": 100
    },
    {
      "midi": 40,
      "hit": false,
      "t": 131999.86800000156,
      "d": 163.6362000000081,
      "v": 100
    },
    {
      "midi": 60,
      "hit": false,
      "t": 131999.86800000156,
      "d": 327.2724000000162,
      "v": 100
    },
    {
      "midi": 36,
      "hit": false,
      "t": 132181.68600000156,
      "d": 163.6362000000081,
      "v": 100
    },
    {
      "midi": 40,
      "hit": false,
      "t": 132181.68600000156,
      "d": 163.6362000000081,
      "v": 100
    },
    {
      "midi": 41,
      "hit": false,
      "t": 132363.50400000156,
      "d": 490.9085999999952,
      "v": 100
    },
    {
      "midi": 72,
      "hit": false,
      "t": 132545.32200000156,
      "d": 163.6362000000081,
      "v": 100
    },
    {
      "midi": 67,
      "hit": false,
      "t": 132545.32200000156,
      "d": 163.6362000000081,
      "v": 100
    },
    {
      "midi": 69,
      "hit": false,
      "t": 132545.32200000156,
      "d": 163.6362000000081,
      "v": 100
    },
    {
      "midi": 69,
      "hit": false,
      "t": 132727.14000000156,
      "d": 163.6362000000081,
      "v": 100
    },
    {
      "midi": 64,
      "hit": false,
      "t": 132727.14000000156,
      "d": 163.6362000000081,
      "v": 100
    },
    {
      "midi": 35,
      "hit": false,
      "t": 132727.14000000156,
      "d": 163.6362000000081,
      "v": 100
    },
    {
      "midi": 40,
      "hit": false,
      "t": 132727.14000000156,
      "d": 327.2723999999871,
      "v": 100
    },
    {
      "midi": 67,
      "hit": false,
      "t": 132908.95800000156,
      "d": 163.636199999979,
      "v": 100
    },
    {
      "midi": 62,
      "hit": false,
      "t": 132908.95800000156,
      "d": 163.636199999979,
      "v": 100
    },
    {
      "midi": 41,
      "hit": false,
      "t": 132908.95800000156,
      "d": 163.636199999979,
      "v": 100
    },
    {
      "midi": 35,
      "hit": false,
      "t": 132908.95800000156,
      "d": 163.636199999979,
      "v": 100
    },
    {
      "midi": 65,
      "hit": false,
      "t": 133090.77600000153,
      "d": 163.6362000000081,
      "v": 100
    },
    {
      "midi": 60,
      "hit": false,
      "t": 133090.77600000153,
      "d": 163.6362000000081,
      "v": 100
    },
    {
      "midi": 69,
      "hit": false,
      "t": 133090.77600000153,
      "d": 163.6362000000081,
      "v": 100
    },
    {
      "midi": 35,
      "hit": false,
      "t": 133090.77600000153,
      "d": 163.6362000000081,
      "v": 100
    },
    {
      "midi": 41,
      "hit": false,
      "t": 133090.77600000153,
      "d": 327.2723999999871,
      "v": 100
    },
    {
      "midi": 62,
      "hit": false,
      "t": 133272.59400000153,
      "d": 163.636199999979,
      "v": 100
    },
    {
      "midi": 57,
      "hit": false,
      "t": 133272.59400000153,
      "d": 163.636199999979,
      "v": 100
    },
    {
      "midi": 35,
      "hit": false,
      "t": 133272.59400000153,
      "d": 163.636199999979,
      "v": 100
    },
    {
      "midi": 60,
      "hit": false,
      "t": 133454.4120000015,
      "d": 163.6362000000081,
      "v": 100
    },
    {
      "midi": 55,
      "hit": false,
      "t": 133454.4120000015,
      "d": 163.6362000000081,
      "v": 100
    },
    {
      "midi": 38,
      "hit": false,
      "t": 133454.4120000015,
      "d": 163.6362000000081,
      "v": 100
    },
    {
      "midi": 35,
      "hit": false,
      "t": 133454.4120000015,
      "d": 163.6362000000081,
      "v": 100
    },
    {
      "midi": 40,
      "hit": false,
      "t": 133454.4120000015,
      "d": 327.2724000000162,
      "v": 100
    },
    {
      "midi": 57,
      "hit": false,
      "t": 133636.2300000015,
      "d": 163.6362000000081,
      "v": 100
    },
    {
      "midi": 52,
      "hit": false,
      "t": 133636.2300000015,
      "d": 163.6362000000081,
      "v": 100
    },
    {
      "midi": 36,
      "hit": false,
      "t": 133636.2300000015,
      "d": 163.6362000000081,
      "v": 100
    },
    {
      "midi": 35,
      "hit": false,
      "t": 133636.2300000015,
      "d": 163.6362000000081,
      "v": 100
    },
    {
      "midi": 60,
      "hit": false,
      "t": 133818.0480000015,
      "d": 163.6362000000081,
      "v": 100
    },
    {
      "midi": 84,
      "hit": false,
      "t": 133818.0480000015,
      "d": 163.6362000000081,
      "v": 100
    },
    {
      "midi": 35,
      "hit": false,
      "t": 133818.0480000015,
      "d": 163.6362000000081,
      "v": 100
    },
    {
      "midi": 65,
      "hit": false,
      "t": 133818.0480000015,
      "d": 327.2724000000162,
      "v": 100
    },
    {
      "midi": 89,
      "hit": false,
      "t": 133818.0480000015,
      "d": 327.2724000000162,
      "v": 100
    },
    {
      "midi": 52,
      "hit": false,
      "t": 134545.32000000152,
      "d": 2608.330725000007,
      "v": 100
    }
  ]
}