{
  "jsonPath": "Animes/Ranma ½ MIDI Collection/equal-romance.json",
  "path": "Animes\\Ranma ½ MIDI Collection\\Equal Romance.mid",
  "name": "Equal Romance",
  "difficulty": "Advanced",
  "bpm": 126.000126000126,
  "notes": [
    {
      "midi": 74,
      "hit": false,
      "t": 1904.76,
      "d": 292.6584375,
      "v": 80
    },
    {
      "midi": 37,
      "hit": false,
      "t": 2142.855,
      "d": 79.36499999999978,
      "v": 80
    },
    {
      "midi": 37,
      "hit": false,
      "t": 2261.9024999999997,
      "d": 79.36499999999978,
      "v": 80
    },
    {
      "midi": 73,
      "hit": false,
      "t": 2331.346875,
      "d": 267.85687499999995,
      "v": 80
    },
    {
      "midi": 37,
      "hit": false,
      "t": 2380.9499999999994,
      "d": 79.36499999999978,
      "v": 80
    },
    {
      "midi": 37,
      "hit": false,
      "t": 2499.997499999999,
      "d": 79.36499999999978,
      "v": 80
    },
    {
      "midi": 37,
      "hit": false,
      "t": 2614.084687499999,
      "d": 158.73000000000002,
      "v": 80
    },
    {
      "midi": 71,
      "hit": false,
      "t": 2703.3703125,
      "d": 714.2849999999999,
      "v": 80
    },
    {
      "midi": 37,
      "hit": false,
      "t": 2857.139999999999,
      "d": 158.73000000000002,
      "v": 80
    },
    {
      "midi": 37,
      "hit": false,
      "t": 3095.2349999999988,
      "d": 158.73000000000002,
      "v": 80
    },
    {
      "midi": 46,
      "hit": false,
      "t": 3095.2349999999997,
      "d": 158.73000000000002,
      "v": 75
    },
    {
      "midi": 37,
      "hit": false,
      "t": 3333.3299999999986,
      "d": 158.73000000000002,
      "v": 80
    },
    {
      "midi": 42,
      "hit": false,
      "t": 3571.4249999999997,
      "d": 158.73000000000002,
      "v": 75
    },
    {
      "midi": 69,
      "hit": false,
      "t": 3576.3853124999996,
      "d": 302.57906249999996,
      "v": 100
    },
    {
      "midi": 61,
      "hit": false,
      "t": 3834.3215625000003,
      "d": 1721.2284375,
      "v": 80
    },
    {
      "midi": 69,
      "hit": false,
      "t": 3844.2421875000005,
      "d": 1686.50625,
      "v": 80
    },
    {
      "midi": 64,
      "hit": false,
      "t": 3854.1628125000007,
      "d": 1661.7046874999996,
      "v": 80
    },
    {
      "midi": 69,
      "hit": false,
      "t": 3948.4087499999996,
      "d": 262.8965625000001,
      "v": 100
    },
    {
      "midi": 37,
      "hit": false,
      "t": 4047.6149999999984,
      "d": 79.36500000000024,
      "v": 80
    },
    {
      "midi": 37,
      "hit": false,
      "t": 4166.6624999999985,
      "d": 79.36499999999978,
      "v": 80
    },
    {
      "midi": 37,
      "hit": false,
      "t": 4285.709999999998,
      "d": 79.36499999999978,
      "v": 80
    },
    {
      "midi": 69,
      "hit": false,
      "t": 4305.5512499999995,
      "d": 208.3331250000001,
      "v": 100
    },
    {
      "midi": 37,
      "hit": false,
      "t": 4404.757499999998,
      "d": 79.36499999999978,
      "v": 80
    },
    {
      "midi": 37,
      "hit": false,
      "t": 4518.844687499997,
      "d": 158.72999999999956,
      "v": 80
    },
    {
      "midi": 71,
      "hit": false,
      "t": 4558.5271875,
      "d": 282.73781249999956,
      "v": 100
    },
    {
      "midi": 37,
      "hit": false,
      "t": 4761.899999999997,
      "d": 158.72999999999956,
      "v": 80
    },
    {
      "midi": 73,
      "hit": false,
      "t": 4851.185624999999,
      "d": 317.46000000000004,
      "v": 100
    },
    {
      "midi": 37,
      "hit": false,
      "t": 4999.994999999996,
      "d": 158.72999999999956,
      "v": 80
    },
    {
      "midi": 46,
      "hit": false,
      "t": 4999.995,
      "d": 158.72999999999956,
      "v": 75
    },
    {
      "midi": 69,
      "hit": false,
      "t": 5183.526562499999,
      "d": 178.57124999999996,
      "v": 100
    },
    {
      "midi": 37,
      "hit": false,
      "t": 5238.089999999996,
      "d": 158.72999999999956,
      "v": 80
    },
    {
      "midi": 71,
      "hit": false,
      "t": 5441.462812499999,
      "d": 1215.2765625000002,
      "v": 100
    },
    {
      "midi": 42,
      "hit": false,
      "t": 5476.1849999999995,
      "d": 158.72999999999956,
      "v": 75
    },
    {
      "midi": 67,
      "hit": false,
      "t": 5709.3196875,
      "d": 1765.8712500000001,
      "v": 80
    },
    {
      "midi": 71,
      "hit": false,
      "t": 5714.280000000001,
      "d": 1770.8315624999996,
      "v": 80
    },
    {
      "midi": 62,
      "hit": false,
      "t": 5714.280000000001,
      "d": 1899.7996875,
      "v": 80
    },
    {
      "midi": 37,
      "hit": false,
      "t": 5952.374999999995,
      "d": 79.36499999999978,
      "v": 80
    },
    {
      "midi": 37,
      "hit": false,
      "t": 6071.422499999995,
      "d": 79.36499999999978,
      "v": 80
    },
    {
      "midi": 37,
      "hit": false,
      "t": 6190.469999999995,
      "d": 79.36499999999978,
      "v": 80
    },
    {
      "midi": 37,
      "hit": false,
      "t": 6309.5174999999945,
      "d": 79.36499999999978,
      "v": 80
    },
    {
      "midi": 37,
      "hit": false,
      "t": 6423.604687499994,
      "d": 158.72999999999956,
      "v": 80
    },
    {
      "midi": 71,
      "hit": false,
      "t": 6423.604687499999,
      "d": 376.9837500000003,
      "v": 63
    },
    {
      "midi": 37,
      "hit": false,
      "t": 6666.6599999999935,
      "d": 158.72999999999956,
      "v": 80
    },
    {
      "midi": 74,
      "hit": false,
      "t": 6899.7946875,
      "d": 153.76968750000015,
      "v": 64
    },
    {
      "midi": 37,
      "hit": false,
      "t": 6904.754999999993,
      "d": 158.72999999999956,
      "v": 80
    },
    {
      "midi": 76,
      "hit": false,
      "t": 6904.754999999999,
      "d": 1899.7996875000008,
      "v": 100
    },
    {
      "midi": 46,
      "hit": false,
      "t": 6904.754999999999,
      "d": 158.72999999999956,
      "v": 75
    },
    {
      "midi": 37,
      "hit": false,
      "t": 7142.849999999992,
      "d": 158.72999999999956,
      "v": 80
    },
    {
      "midi": 78,
      "hit": false,
      "t": 7142.85,
      "d": 178.57124999999996,
      "v": 64
    },
    {
      "midi": 76,
      "hit": false,
      "t": 7375.9846875,
      "d": 456.3487500000001,
      "v": 64
    },
    {
      "midi": 42,
      "hit": false,
      "t": 7380.944999999999,
      "d": 158.72999999999956,
      "v": 75
    },
    {
      "midi": 62,
      "hit": false,
      "t": 7619.040000000001,
      "d": 1899.799687499999,
      "v": 80
    },
    {
      "midi": 64,
      "hit": false,
      "t": 7619.040000000001,
      "d": 1899.799687499999,
      "v": 80
    },
    {
      "midi": 69,
      "hit": false,
      "t": 7619.040000000001,
      "d": 1899.799687499999,
      "v": 80
    },
    {
      "midi": 74,
      "hit": false,
      "t": 7852.174687500001,
      "d": 124.0078125,
      "v": 64
    },
    {
      "midi": 37,
      "hit": false,
      "t": 7857.134999999992,
      "d": 79.36499999999978,
      "v": 80
    },
    {
      "midi": 37,
      "hit": false,
      "t": 7976.182499999992,
      "d": 79.36499999999978,
      "v": 80
    },
    {
      "midi": 37,
      "hit": false,
      "t": 8095.229999999991,
      "d": 79.36499999999978,
      "v": 80
    },
    {
      "midi": 73,
      "hit": false,
      "t": 8095.2300000000005,
      "d": 104.1665624999996,
      "v": 64
    },
    {
      "midi": 37,
      "hit": false,
      "t": 8214.277499999991,
      "d": 79.36499999999978,
      "v": 80
    },
    {
      "midi": 37,
      "hit": false,
      "t": 8328.36468749999,
      "d": 158.72999999999956,
      "v": 80
    },
    {
      "midi": 69,
      "hit": false,
      "t": 8328.3646875,
      "d": 897.8165625000001,
      "v": 64
    },
    {
      "midi": 37,
      "hit": false,
      "t": 8571.41999999999,
      "d": 158.72999999999956,
      "v": 80
    },
    {
      "midi": 48,
      "hit": false,
      "t": 8809.515,
      "d": 79.36499999999978,
      "v": 80
    },
    {
      "midi": 48,
      "hit": false,
      "t": 8928.5625,
      "d": 79.36499999999978,
      "v": 80
    },
    {
      "midi": 48,
      "hit": false,
      "t": 9047.61,
      "d": 79.36499999999978,
      "v": 80
    },
    {
      "midi": 45,
      "hit": false,
      "t": 9166.6575,
      "d": 79.36499999999978,
      "v": 80
    },
    {
      "midi": 45,
      "hit": false,
      "t": 9285.705,
      "d": 79.36499999999978,
      "v": 80
    },
    {
      "midi": 45,
      "hit": false,
      "t": 9404.7525,
      "d": 79.36499999999978,
      "v": 80
    },
    {
      "midi": 41,
      "hit": false,
      "t": 9523.8,
      "d": 79.36499999999978,
      "v": 80
    },
    {
      "midi": 35,
      "hit": false,
      "t": 9523.8,
      "d": 317.4599999999991,
      "v": 100
    },
    {
      "midi": 54,
      "hit": false,
      "t": 9523.8,
      "d": 79.36499999999978,
      "v": 50
    },
    {
      "midi": 74,
      "hit": false,
      "t": 9528.760312499999,
      "d": 1393.8478125000001,
      "v": 80
    },
    {
      "midi": 74,
      "hit": false,
      "t": 9528.760312499999,
      "d": 1393.8478125000001,
      "v": 50
    },
    {
      "midi": 47,
      "hit": false,
      "t": 9553.561875,
      "d": 119.04750000000058,
      "v": 64
    },
    {
      "midi": 54,
      "hit": false,
      "t": 9642.8475,
      "d": 79.36499999999978,
      "v": 50
    },
    {
      "midi": 37,
      "hit": false,
      "t": 9761.89499999999,
      "d": 79.36499999999978,
      "v": 80
    },
    {
      "midi": 54,
      "hit": false,
      "t": 9761.895,
      "d": 79.36499999999978,
      "v": 50
    },
    {
      "midi": 37,
      "hit": false,
      "t": 9880.94249999999,
      "d": 79.36499999999978,
      "v": 80
    },
    {
      "midi": 54,
      "hit": false,
      "t": 9880.942500000001,
      "d": 79.36499999999978,
      "v": 50
    },
    {
      "midi": 37,
      "hit": false,
      "t": 9999.98999999999,
      "d": 79.36499999999978,
      "v": 80
    },
    {
      "midi": 35,
      "hit": false,
      "t": 9999.989999999998,
      "d": 317.4599999999991,
      "v": 100
    },
    {
      "midi": 47,
      "hit": false,
      "t": 9999.99,
      "d": 173.61093749999964,
      "v": 64
    },
    {
      "midi": 54,
      "hit": false,
      "t": 9999.990000000002,
      "d": 79.36499999999978,
      "v": 50
    },
    {
      "midi": 37,
      "hit": false,
      "t": 10119.037499999991,
      "d": 79.36499999999978,
      "v": 80
    },
    {
      "midi": 54,
      "hit": false,
      "t": 10119.037500000002,
      "d": 79.36499999999978,
      "v": 50
    },
    {
      "midi": 37,
      "hit": false,
      "t": 10233.12468749999,
      "d": 158.72999999999956,
      "v": 80
    },
    {
      "midi": 54,
      "hit": false,
      "t": 10238.085000000003,
      "d": 79.36499999999978,
      "v": 50
    },
    {
      "midi": 45,
      "hit": false,
      "t": 10332.330937499999,
      "d": 69.44437499999913,
      "v": 64
    },
    {
      "midi": 54,
      "hit": false,
      "t": 10357.132500000003,
      "d": 79.36499999999978,
      "v": 50
    },
    {
      "midi": 47,
      "hit": false,
      "t": 10451.378437499998,
      "d": 69.44437499999913,
      "v": 64
    },
    {
      "midi": 37,
      "hit": false,
      "t": 10476.17999999999,
      "d": 158.72999999999956,
      "v": 80
    },
    {
      "midi": 35,
      "hit": false,
      "t": 10476.179999999997,
      "d": 317.4599999999991,
      "v": 100
    },
    {
      "midi": 54,
      "hit": false,
      "t": 10476.180000000004,
      "d": 79.36499999999978,
      "v": 50
    },
    {
      "midi": 47,
      "hit": false,
      "t": 10550.584687499997,
      "d": 183.5315625000003,
      "v": 64
    },
    {
      "midi": 54,
      "hit": false,
      "t": 10595.227500000005,
      "d": 79.36499999999978,
      "v": 50
    },
    {
      "midi": 37,
      "hit": false,
      "t": 10714.274999999989,
      "d": 158.72999999999956,
      "v": 80
    },
    {
      "midi": 54,
      "hit": false,
      "t": 10714.275000000005,
      "d": 79.36499999999978,
      "v": 50
    },
    {
      "midi": 54,
      "hit": false,
      "t": 10833.322500000006,
      "d": 79.36499999999978,
      "v": 50
    },
    {
      "midi": 47,
      "hit": false,
      "t": 10843.243124999997,
      "d": 148.80937500000073,
      "v": 64
    },
    {
      "midi": 78,
      "hit": false,
      "t": 10942.449374999998,
      "d": 228.1743750000005,
      "v": 80
    },
    {
      "midi": 78,
      "hit": false,
      "t": 10942.449374999998,
      "d": 228.1743750000005,
      "v": 50
    },
    {
      "midi": 37,
      "hit": false,
      "t": 10952.369999999988,
      "d": 158.72999999999956,
      "v": 80
    },
    {
      "midi": 35,
      "hit": false,
      "t": 10952.369999999995,
      "d": 317.4599999999991,
      "v": 100
    },
    {
      "midi": 54,
      "hit": false,
      "t": 10952.370000000006,
      "d": 79.36499999999978,
      "v": 50
    },
    {
      "midi": 54,
      "hit": false,
      "t": 11071.417500000007,
      "d": 79.36499999999978,
      "v": 50
    },
    {
      "midi": 45,
      "hit": false,
      "t": 11175.584062499998,
      "d": 153.76968750000015,
      "v": 64
    },
    {
      "midi": 76,
      "hit": false,
      "t": 11180.544375,
      "d": 1349.205,
      "v": 80
    },
    {
      "midi": 76,
      "hit": false,
      "t": 11180.544375,
      "d": 1349.205,
      "v": 50
    },
    {
      "midi": 54,
      "hit": false,
      "t": 11190.465000000007,
      "d": 79.36499999999978,
      "v": 50
    },
    {
      "midi": 54,
      "hit": false,
      "t": 11309.512500000008,
      "d": 79.36499999999978,
      "v": 50
    },
    {
      "midi": 35,
      "hit": false,
      "t": 11428.559999999994,
      "d": 317.4599999999991,
      "v": 100
    },
    {
      "midi": 54,
      "hit": false,
      "t": 11428.560000000009,
      "d": 79.36499999999978,
      "v": 50
    },
    {
      "midi": 54,
      "hit": false,
      "t": 11547.60750000001,
      "d": 79.36499999999978,
      "v": 50
    },
    {
      "midi": 45,
      "hit": false,
      "t": 11641.853437499998,
      "d": 84.3253124999992,
      "v": 64
    },
    {
      "midi": 37,
      "hit": false,
      "t": 11666.654999999988,
      "d": 79.36499999999978,
      "v": 80
    },
    {
      "midi": 54,
      "hit": false,
      "t": 11666.65500000001,
      "d": 79.36499999999978,
      "v": 50
    },
    {
      "midi": 81,
      "hit": false,
      "t": 11686.49625,
      "d": 188.4918749999997,
      "v": 64
    },
    {
      "midi": 37,
      "hit": false,
      "t": 11785.702499999989,
      "d": 79.36499999999978,
      "v": 80
    },
    {
      "midi": 54,
      "hit": false,
      "t": 11785.70250000001,
      "d": 79.36499999999978,
      "v": 50
    },
    {
      "midi": 45,
      "hit": false,
      "t": 11894.829374999998,
      "d": 158.72999999999956,
      "v": 64
    },
    {
      "midi": 37,
      "hit": false,
      "t": 11904.749999999989,
      "d": 79.36499999999978,
      "v": 80
    },
    {
      "midi": 35,
      "hit": false,
      "t": 11904.749999999993,
      "d": 317.4599999999991,
      "v": 100
    },
    {
      "midi": 69,
      "hit": false,
      "t": 11904.75,
      "d": 188.4918749999997,
      "v": 64
    },
    {
      "midi": 54,
      "hit": false,
      "t": 11904.750000000011,
      "d": 79.36499999999978,
      "v": 50
    },
    {
      "midi": 37,
      "hit": false,
      "t": 12023.79749999999,
      "d": 79.36499999999978,
      "v": 80
    },
    {
      "midi": 54,
      "hit": false,
      "t": 12023.797500000011,
      "d": 79.36499999999978,
      "v": 50
    },
    {
      "midi": 37,
      "hit": false,
      "t": 12137.884687499989,
      "d": 158.72999999999956,
      "v": 80
    },
    {
      "midi": 54,
      "hit": false,
      "t": 12142.845000000012,
      "d": 79.36499999999978,
      "v": 50
    },
    {
      "midi": 54,
      "hit": false,
      "t": 12261.892500000013,
      "d": 79.36499999999978,
      "v": 50
    },
    {
      "midi": 43,
      "hit": false,
      "t": 12301.574999999997,
      "d": 59.52375000000029,
      "v": 64
    },
    {
      "midi": 81,
      "hit": false,
      "t": 12361.09875,
      "d": 188.4918749999997,
      "v": 64
    },
    {
      "midi": 37,
      "hit": false,
      "t": 12380.939999999988,
      "d": 158.72999999999956,
      "v": 80
    },
    {
      "midi": 35,
      "hit": false,
      "t": 12380.939999999991,
      "d": 317.4599999999991,
      "v": 100
    },
    {
      "midi": 54,
      "hit": false,
      "t": 12380.940000000013,
      "d": 79.36499999999978,
      "v": 50
    },
    {
      "midi": 45,
      "hit": false,
      "t": 12415.662187499998,
      "d": 54.56343750000087,
      "v": 64
    },
    {
      "midi": 54,
      "hit": false,
      "t": 12499.987500000014,
      "d": 79.36499999999978,
      "v": 50
    },
    {
      "midi": 45,
      "hit": false,
      "t": 12509.908125,
      "d": 143.8490624999995,
      "v": 64
    },
    {
      "midi": 37,
      "hit": false,
      "t": 12619.034999999987,
      "d": 158.72999999999956,
      "v": 80
    },
    {
      "midi": 69,
      "hit": false,
      "t": 12619.034999999998,
      "d": 188.4918749999997,
      "v": 64
    },
    {
      "midi": 54,
      "hit": false,
      "t": 12619.035000000014,
      "d": 79.36499999999978,
      "v": 50
    },
    {
      "midi": 76,
      "hit": false,
      "t": 12623.9953125,
      "d": 119.04750000000058,
      "v": 80
    },
    {
      "midi": 76,
      "hit": false,
      "t": 12623.9953125,
      "d": 119.04750000000058,
      "v": 50
    },
    {
      "midi": 88,
      "hit": false,
      "t": 12623.9953125,
      "d": 119.04750000000058,
      "v": 50
    },
    {
      "midi": 54,
      "hit": false,
      "t": 12738.082500000015,
      "d": 79.36499999999978,
      "v": 50
    },
    {
      "midi": 45,
      "hit": false,
      "t": 12777.765,
      "d": 203.37281249999978,
      "v": 64
    },
    {
      "midi": 37,
      "hit": false,
      "t": 12857.129999999986,
      "d": 158.72999999999956,
      "v": 80
    },
    {
      "midi": 35,
      "hit": false,
      "t": 12857.12999999999,
      "d": 317.4599999999991,
      "v": 100
    },
    {
      "midi": 54,
      "hit": false,
      "t": 12857.130000000016,
      "d": 79.36499999999978,
      "v": 50
    },
    {
      "midi": 76,
      "hit": false,
      "t": 12872.0109375,
      "d": 257.93625000000065,
      "v": 80
    },
    {
      "midi": 76,
      "hit": false,
      "t": 12872.0109375,
      "d": 257.93625000000065,
      "v": 50
    },
    {
      "midi": 88,
      "hit": false,
      "t": 12872.0109375,
      "d": 257.93625000000065,
      "v": 50
    },
    {
      "midi": 54,
      "hit": false,
      "t": 12976.177500000016,
      "d": 79.36499999999978,
      "v": 50
    },
    {
      "midi": 78,
      "hit": false,
      "t": 13090.2646875,
      "d": 282.7378125000014,
      "v": 80
    },
    {
      "midi": 78,
      "hit": false,
      "t": 13090.2646875,
      "d": 282.7378125000014,
      "v": 50
    },
    {
      "midi": 90,
      "hit": false,
      "t": 13090.2646875,
      "d": 282.7378125000014,
      "v": 50
    },
    {
      "midi": 54,
      "hit": false,
      "t": 13095.225000000017,
      "d": 79.36499999999978,
      "v": 50
    },
    {
      "midi": 54,
      "hit": false,
      "t": 13214.272500000017,
      "d": 79.36499999999978,
      "v": 50
    },
    {
      "midi": 35,
      "hit": false,
      "t": 13333.319999999989,
      "d": 317.4599999999991,
      "v": 100
    },
    {
      "midi": 43,
      "hit": false,
      "t": 13333.32,
      "d": 143.8490624999995,
      "v": 64
    },
    {
      "midi": 54,
      "hit": false,
      "t": 13333.320000000018,
      "d": 79.36499999999978,
      "v": 50
    },
    {
      "midi": 79,
      "hit": false,
      "t": 13343.240625,
      "d": 545.6343750000015,
      "v": 80
    },
    {
      "midi": 79,
      "hit": false,
      "t": 13343.240625,
      "d": 545.6343750000015,
      "v": 50
    },
    {
      "midi": 91,
      "hit": false,
      "t": 13343.240625,
      "d": 545.6343750000015,
      "v": 50
    },
    {
      "midi": 54,
      "hit": false,
      "t": 13452.367500000018,
      "d": 79.36499999999978,
      "v": 50
    },
    {
      "midi": 37,
      "hit": false,
      "t": 13571.414999999986,
      "d": 79.36499999999978,
      "v": 80
    },
    {
      "midi": 54,
      "hit": false,
      "t": 13571.415000000019,
      "d": 79.36499999999978,
      "v": 50
    },
    {
      "midi": 37,
      "hit": false,
      "t": 13690.462499999987,
      "d": 79.36499999999978,
      "v": 80
    },
    {
      "midi": 54,
      "hit": false,
      "t": 13690.46250000002,
      "d": 79.36499999999978,
      "v": 50
    },
    {
      "midi": 37,
      "hit": false,
      "t": 13809.509999999987,
      "d": 79.36499999999978,
      "v": 80
    },
    {
      "midi": 35,
      "hit": false,
      "t": 13809.509999999987,
      "d": 317.4599999999991,
      "v": 100
    },
    {
      "midi": 54,
      "hit": false,
      "t": 13809.51000000002,
      "d": 79.36499999999978,
      "v": 50
    },
    {
      "midi": 78,
      "hit": false,
      "t": 13834.311562500001,
      "d": 223.2140625000011,
      "v": 80
    },
    {
      "midi": 78,
      "hit": false,
      "t": 13834.311562500001,
      "d": 223.2140625000011,
      "v": 50
    },
    {
      "midi": 90,
      "hit": false,
      "t": 13834.311562500001,
      "d": 223.2140625000011,
      "v": 50
    },
    {
      "midi": 43,
      "hit": false,
      "t": 13839.271874999999,
      "d": 213.29343750000044,
      "v": 64
    },
    {
      "midi": 37,
      "hit": false,
      "t": 13928.557499999988,
      "d": 79.36499999999978,
      "v": 80
    },
    {
      "midi": 54,
      "hit": false,
      "t": 13928.55750000002,
      "d": 79.36499999999978,
      "v": 50
    },
    {
      "midi": 37,
      "hit": false,
      "t": 14042.644687499987,
      "d": 158.72999999999956,
      "v": 80
    },
    {
      "midi": 54,
      "hit": false,
      "t": 14047.605000000021,
      "d": 79.36499999999978,
      "v": 50
    },
    {
      "midi": 74,
      "hit": false,
      "t": 14067.446250000003,
      "d": 426.58687499999905,
      "v": 80
    },
    {
      "midi": 74,
      "hit": false,
      "t": 14067.446250000003,
      "d": 426.58687499999905,
      "v": 50
    },
    {
      "midi": 86,
      "hit": false,
      "t": 14067.446250000003,
      "d": 426.58687499999905,
      "v": 50
    },
    {
      "midi": 54,
      "hit": false,
      "t": 14166.652500000022,
      "d": 79.36499999999978,
      "v": 50
    },
    {
      "midi": 42,
      "hit": false,
      "t": 14201.3746875,
      "d": 84.3253124999992,
      "v": 64
    },
    {
      "midi": 37,
      "hit": false,
      "t": 14285.699999999986,
      "d": 158.72999999999956,
      "v": 80
    },
    {
      "midi": 35,
      "hit": false,
      "t": 14285.699999999986,
      "d": 317.4599999999991,
      "v": 100
    },
    {
      "midi": 54,
      "hit": false,
      "t": 14285.700000000023,
      "d": 79.36499999999978,
      "v": 50
    },
    {
      "midi": 43,
      "hit": false,
      "t": 14330.3428125,
      "d": 84.3253124999992,
      "v": 64
    },
    {
      "midi": 54,
      "hit": false,
      "t": 14404.747500000023,
      "d": 79.36499999999978,
      "v": 50
    },
    {
      "midi": 43,
      "hit": false,
      "t": 14444.429999999998,
      "d": 203.37281249999978,
      "v": 64
    },
    {
      "midi": 78,
      "hit": false,
      "t": 14518.834687500002,
      "d": 451.3884374999998,
      "v": 80
    },
    {
      "midi": 78,
      "hit": false,
      "t": 14518.834687500002,
      "d": 451.3884374999998,
      "v": 50
    },
    {
      "midi": 90,
      "hit": false,
      "t": 14518.834687500002,
      "d": 451.3884374999998,
      "v": 50
    },
    {
      "midi": 37,
      "hit": false,
      "t": 14523.794999999986,
      "d": 158.72999999999956,
      "v": 80
    },
    {
      "midi": 54,
      "hit": false,
      "t": 14523.795000000024,
      "d": 79.36499999999978,
      "v": 50
    },
    {
      "midi": 54,
      "hit": false,
      "t": 14642.842500000024,
      "d": 79.36499999999978,
      "v": 50
    },
    {
      "midi": 43,
      "hit": false,
      "t": 14717.247187499997,
      "d": 173.61093749999964,
      "v": 64
    },
    {
      "midi": 37,
      "hit": false,
      "t": 14761.889999999985,
      "d": 158.72999999999956,
      "v": 80
    },
    {
      "midi": 35,
      "hit": false,
      "t": 14761.889999999985,
      "d": 317.4599999999991,
      "v": 100
    },
    {
      "midi": 54,
      "hit": false,
      "t": 14761.890000000025,
      "d": 79.36499999999978,
      "v": 50
    },
    {
      "midi": 54,
      "hit": false,
      "t": 14880.937500000025,
      "d": 79.36499999999978,
      "v": 50
    },
    {
      "midi": 76,
      "hit": false,
      "t": 14980.143750000003,
      "d": 2033.7281250000015,
      "v": 80
    },
    {
      "midi": 76,
      "hit": false,
      "t": 14980.143750000003,
      "d": 2033.7281250000015,
      "v": 50
    },
    {
      "midi": 88,
      "hit": false,
      "t": 14980.143750000003,
      "d": 2033.7281250000015,
      "v": 50
    },
    {
      "midi": 54,
      "hit": false,
      "t": 14999.985000000026,
      "d": 79.36499999999978,
      "v": 50
    },
    {
      "midi": 43,
      "hit": false,
      "t": 15014.865937499997,
      "d": 218.25374999999985,
      "v": 64
    },
    {
      "midi": 54,
      "hit": false,
      "t": 15119.032500000027,
      "d": 79.36499999999978,
      "v": 50
    },
    {
      "midi": 45,
      "hit": false,
      "t": 15213.278437499997,
      "d": 178.57124999999905,
      "v": 64
    },
    {
      "midi": 35,
      "hit": false,
      "t": 15238.079999999984,
      "d": 317.4599999999991,
      "v": 100
    },
    {
      "midi": 54,
      "hit": false,
      "t": 15238.080000000027,
      "d": 79.36499999999978,
      "v": 50
    },
    {
      "midi": 54,
      "hit": false,
      "t": 15357.127500000028,
      "d": 79.36499999999978,
      "v": 50
    },
    {
      "midi": 37,
      "hit": false,
      "t": 15476.174999999985,
      "d": 79.36499999999978,
      "v": 80
    },
    {
      "midi": 54,
      "hit": false,
      "t": 15476.175000000028,
      "d": 79.36499999999978,
      "v": 50
    },
    {
      "midi": 81,
      "hit": false,
      "t": 15496.016249999997,
      "d": 188.4918749999997,
      "v": 64
    },
    {
      "midi": 37,
      "hit": false,
      "t": 15595.222499999985,
      "d": 79.36499999999978,
      "v": 80
    },
    {
      "midi": 54,
      "hit": false,
      "t": 15595.222500000029,
      "d": 79.36499999999978,
      "v": 50
    },
    {
      "midi": 35,
      "hit": false,
      "t": 15714.269999999982,
      "d": 317.4599999999991,
      "v": 100
    },
    {
      "midi": 37,
      "hit": false,
      "t": 15714.269999999986,
      "d": 79.36499999999978,
      "v": 80
    },
    {
      "midi": 69,
      "hit": false,
      "t": 15714.269999999997,
      "d": 188.4918749999997,
      "v": 64
    },
    {
      "midi": 54,
      "hit": false,
      "t": 15714.27000000003,
      "d": 79.36499999999978,
      "v": 50
    },
    {
      "midi": 45,
      "hit": false,
      "t": 15748.992187499996,
      "d": 168.65062500000022,
      "v": 64
    },
    {
      "midi": 37,
      "hit": false,
      "t": 15833.317499999986,
      "d": 79.36499999999978,
      "v": 80
    },
    {
      "midi": 54,
      "hit": false,
      "t": 15833.31750000003,
      "d": 79.36499999999978,
      "v": 50
    },
    {
      "midi": 37,
      "hit": false,
      "t": 15947.404687499986,
      "d": 158.72999999999956,
      "v": 80
    },
    {
      "midi": 54,
      "hit": false,
      "t": 15952.36500000003,
      "d": 79.36499999999978,
      "v": 50
    },
    {
      "midi": 54,
      "hit": false,
      "t": 16071.412500000031,
      "d": 79.36499999999978,
      "v": 50
    },
    {
      "midi": 43,
      "hit": false,
      "t": 16106.134687499996,
      "d": 74.40468750000036,
      "v": 64
    },
    {
      "midi": 81,
      "hit": false,
      "t": 16170.618749999996,
      "d": 188.4918749999997,
      "v": 64
    },
    {
      "midi": 35,
      "hit": false,
      "t": 16190.459999999981,
      "d": 317.4599999999991,
      "v": 100
    },
    {
      "midi": 37,
      "hit": false,
      "t": 16190.459999999985,
      "d": 158.72999999999956,
      "v": 80
    },
    {
      "midi": 54,
      "hit": false,
      "t": 16190.460000000032,
      "d": 79.36499999999978,
      "v": 50
    },
    {
      "midi": 45,
      "hit": false,
      "t": 16225.182187499997,
      "d": 49.603124999999636,
      "v": 64
    },
    {
      "midi": 45,
      "hit": false,
      "t": 16309.507499999996,
      "d": 233.13468750000175,
      "v": 64
    },
    {
      "midi": 54,
      "hit": false,
      "t": 16309.507500000032,
      "d": 79.3650000000016,
      "v": 50
    },
    {
      "midi": 37,
      "hit": false,
      "t": 16428.554999999986,
      "d": 158.72999999999956,
      "v": 80
    },
    {
      "midi": 69,
      "hit": false,
      "t": 16428.554999999997,
      "d": 188.4918749999997,
      "v": 64
    },
    {
      "midi": 54,
      "hit": false,
      "t": 16428.555000000033,
      "d": 79.3650000000016,
      "v": 50
    },
    {
      "midi": 54,
      "hit": false,
      "t": 16547.602500000034,
      "d": 79.3650000000016,
      "v": 50
    },
    {
      "midi": 45,
      "hit": false,
      "t": 16656.729375,
      "d": 277.77750000000015,
      "v": 64
    },
    {
      "midi": 35,
      "hit": false,
      "t": 16666.64999999998,
      "d": 317.4599999999991,
      "v": 100
    },
    {
      "midi": 37,
      "hit": false,
      "t": 16666.649999999987,
      "d": 158.72999999999956,
      "v": 80
    },
    {
      "midi": 54,
      "hit": false,
      "t": 16666.650000000034,
      "d": 79.3650000000016,
      "v": 50
    },
    {
      "midi": 54,
      "hit": false,
      "t": 16785.697500000035,
      "d": 79.3650000000016,
      "v": 50
    },
    {
      "midi": 54,
      "hit": false,
      "t": 16904.745000000035,
      "d": 79.3650000000016,
      "v": 50
    },
    {
      "midi": 54,
      "hit": false,
      "t": 17023.792500000036,
      "d": 79.3650000000016,
      "v": 50
    },
    {
      "midi": 74,
      "hit": false,
      "t": 17113.078125000004,
      "d": 957.3403125000004,
      "v": 80
    },
    {
      "midi": 74,
      "hit": false,
      "t": 17113.078125000004,
      "d": 957.3403125000004,
      "v": 50
    },
    {
      "midi": 35,
      "hit": false,
      "t": 17142.83999999998,
      "d": 317.4599999999991,
      "v": 100
    },
    {
      "midi": 54,
      "hit": false,
      "t": 17142.840000000037,
      "d": 79.3650000000016,
      "v": 50
    },
    {
      "midi": 47,
      "hit": false,
      "t": 17217.2446875,
      "d": 153.76968750000015,
      "v": 64
    },
    {
      "midi": 54,
      "hit": false,
      "t": 17261.887500000037,
      "d": 79.3650000000016,
      "v": 50
    },
    {
      "midi": 37,
      "hit": false,
      "t": 17380.934999999987,
      "d": 79.3650000000016,
      "v": 80
    },
    {
      "midi": 54,
      "hit": false,
      "t": 17380.935000000038,
      "d": 79.3650000000016,
      "v": 50
    },
    {
      "midi": 37,
      "hit": false,
      "t": 17499.982499999987,
      "d": 79.3650000000016,
      "v": 80
    },
    {
      "midi": 54,
      "hit": false,
      "t": 17499.98250000004,
      "d": 79.3650000000016,
      "v": 50
    },
    {
      "midi": 35,
      "hit": false,
      "t": 17619.029999999977,
      "d": 317.4599999999991,
      "v": 100
    },
    {
      "midi": 37,
      "hit": false,
      "t": 17619.029999999988,
      "d": 79.3650000000016,
      "v": 80
    },
    {
      "midi": 54,
      "hit": false,
      "t": 17619.03000000004,
      "d": 79.3650000000016,
      "v": 50
    },
    {
      "midi": 47,
      "hit": false,
      "t": 17658.712499999998,
      "d": 213.29343750000044,
      "v": 64
    },
    {
      "midi": 37,
      "hit": false,
      "t": 17738.07749999999,
      "d": 79.3650000000016,
      "v": 80
    },
    {
      "midi": 54,
      "hit": false,
      "t": 17738.07750000004,
      "d": 79.3650000000016,
      "v": 50
    },
    {
      "midi": 37,
      "hit": false,
      "t": 17852.16468749999,
      "d": 158.72999999999956,
      "v": 80
    },
    {
      "midi": 54,
      "hit": false,
      "t": 17857.12500000004,
      "d": 79.3650000000016,
      "v": 50
    },
    {
      "midi": 54,
      "hit": false,
      "t": 17976.17250000004,
      "d": 79.3650000000016,
      "v": 50
    },
    {
      "midi": 45,
      "hit": false,
      "t": 17991.0534375,
      "d": 74.40468749999854,
      "v": 64
    },
    {
      "midi": 71,
      "hit": false,
      "t": 18075.378750000003,
      "d": 500.9915624999994,
      "v": 80
    },
    {
      "midi": 71,
      "hit": false,
      "t": 18075.378750000003,
      "d": 500.9915624999994,
      "v": 50
    },
    {
      "midi": 35,
      "hit": false,
      "t": 18095.219999999976,
      "d": 317.4599999999991,
      "v": 100
    },
    {
      "midi": 37,
      "hit": false,
      "t": 18095.21999999999,
      "d": 158.72999999999956,
      "v": 80
    },
    {
      "midi": 54,
      "hit": false,
      "t": 18095.22000000004,
      "d": 79.3650000000016,
      "v": 50
    },
    {
      "midi": 47,
      "hit": false,
      "t": 18100.180312499997,
      "d": 89.28562500000044,
      "v": 64
    },
    {
      "midi": 47,
      "hit": false,
      "t": 18209.3071875,
      "d": 198.41249999999854,
      "v": 64
    },
    {
      "midi": 54,
      "hit": false,
      "t": 18214.26750000004,
      "d": 79.3650000000016,
      "v": 50
    },
    {
      "midi": 37,
      "hit": false,
      "t": 18333.31499999999,
      "d": 158.72999999999956,
      "v": 80
    },
    {
      "midi": 54,
      "hit": false,
      "t": 18333.315000000042,
      "d": 79.3650000000016,
      "v": 50
    },
    {
      "midi": 54,
      "hit": false,
      "t": 18452.362500000043,
      "d": 79.3650000000016,
      "v": 50
    },
    {
      "midi": 47,
      "hit": false,
      "t": 18511.886249999996,
      "d": 178.57125000000087,
      "v": 64
    },
    {
      "midi": 78,
      "hit": false,
      "t": 18551.568750000002,
      "d": 252.97593749999942,
      "v": 80
    },
    {
      "midi": 78,
      "hit": false,
      "t": 18551.568750000002,
      "d": 252.97593749999942,
      "v": 50
    },
    {
      "midi": 35,
      "hit": false,
      "t": 18571.409999999974,
      "d": 317.4599999999991,
      "v": 100
    },
    {
      "midi": 37,
      "hit": false,
      "t": 18571.409999999993,
      "d": 158.72999999999956,
      "v": 80
    },
    {
      "midi": 54,
      "hit": false,
      "t": 18571.410000000044,
      "d": 79.3650000000016,
      "v": 50
    },
    {
      "midi": 54,
      "hit": false,
      "t": 18690.457500000044,
      "d": 79.3650000000016,
      "v": 50
    },
    {
      "midi": 54,
      "hit": false,
      "t": 18809.505000000045,
      "d": 79.3650000000016,
      "v": 50
    },
    {
      "midi": 45,
      "hit": false,
      "t": 18844.227187499997,
      "d": 163.69031249999898,
      "v": 64
    },
    {
      "midi": 76,
      "hit": false,
      "t": 18844.2271875,
      "d": 1438.4906249999985,
      "v": 80
    },
    {
      "midi": 76,
      "hit": false,
      "t": 18844.2271875,
      "d": 1438.4906249999985,
      "v": 50
    },
    {
      "midi": 54,
      "hit": false,
      "t": 18928.552500000045,
      "d": 79.3650000000016,
      "v": 50
    },
    {
      "midi": 35,
      "hit": false,
      "t": 19047.599999999973,
      "d": 317.4599999999991,
      "v": 100
    },
    {
      "midi": 54,
      "hit": false,
      "t": 19047.600000000046,
      "d": 79.3650000000016,
      "v": 50
    },
    {
      "midi": 54,
      "hit": false,
      "t": 19166.647500000046,
      "d": 79.3650000000016,
      "v": 50
    },
    {
      "midi": 37,
      "hit": false,
      "t": 19285.694999999992,
      "d": 79.3650000000016,
      "v": 80
    },
    {
      "midi": 54,
      "hit": false,
      "t": 19285.695000000047,
      "d": 79.3650000000016,
      "v": 50
    },
    {
      "midi": 81,
      "hit": false,
      "t": 19305.536249999997,
      "d": 188.4918749999997,
      "v": 64
    },
    {
      "midi": 45,
      "hit": false,
      "t": 19305.536249999997,
      "d": 74.40468749999854,
      "v": 64
    },
    {
      "midi": 37,
      "hit": false,
      "t": 19404.742499999993,
      "d": 79.3650000000016,
      "v": 80
    },
    {
      "midi": 54,
      "hit": false,
      "t": 19404.742500000048,
      "d": 79.3650000000016,
      "v": 50
    },
    {
      "midi": 35,
      "hit": false,
      "t": 19523.78999999997,
      "d": 317.4599999999991,
      "v": 100
    },
    {
      "midi": 37,
      "hit": false,
      "t": 19523.789999999994,
      "d": 79.3650000000016,
      "v": 80
    },
    {
      "midi": 69,
      "hit": false,
      "t": 19523.789999999997,
      "d": 188.4918749999997,
      "v": 64
    },
    {
      "midi": 54,
      "hit": false,
      "t": 19523.790000000048,
      "d": 79.3650000000016,
      "v": 50
    },
    {
      "midi": 45,
      "hit": false,
      "t": 19573.393124999995,
      "d": 163.69031249999898,
      "v": 64
    },
    {
      "midi": 37,
      "hit": false,
      "t": 19642.837499999994,
      "d": 79.3650000000016,
      "v": 80
    },
    {
      "midi": 54,
      "hit": false,
      "t": 19642.83750000005,
      "d": 79.3650000000016,
      "v": 50
    },
    {
      "midi": 37,
      "hit": false,
      "t": 19756.924687499995,
      "d": 158.72999999999956,
      "v": 80
    },
    {
      "midi": 64,
      "hit": false,
      "t": 19756.9246875,
      "d": 158.72999999999956,
      "v": 127
    },
    {
      "midi": 54,
      "hit": false,
      "t": 19761.88500000005,
      "d": 79.3650000000016,
      "v": 50
    },
    {
      "midi": 54,
      "hit": false,
      "t": 19880.93250000005,
      "d": 79.3650000000016,
      "v": 50
    },
    {
      "midi": 43,
      "hit": false,
      "t": 19925.575312499994,
      "d": 79.3650000000016,
      "v": 64
    },
    {
      "midi": 81,
      "hit": false,
      "t": 19980.13875,
      "d": 188.4918749999997,
      "v": 64
    },
    {
      "midi": 35,
      "hit": false,
      "t": 19999.97999999997,
      "d": 317.4599999999991,
      "v": 100
    },
    {
      "midi": 37,
      "hit": false,
      "t": 19999.979999999996,
      "d": 158.72999999999956,
      "v": 80
    },
    {
      "midi": 64,
      "hit": false,
      "t": 19999.98,
      "d": 218.25374999999985,
      "v": 127
    },
    {
      "midi": 54,
      "hit": false,
      "t": 19999.98000000005,
      "d": 79.3650000000016,
      "v": 50
    },
    {
      "midi": 45,
      "hit": false,
      "t": 20049.583124999994,
      "d": 64.48406249999971,
      "v": 64
    },
    {
      "midi": 54,
      "hit": false,
      "t": 20119.02750000005,
      "d": 79.3650000000016,
      "v": 50
    },
    {
      "midi": 45,
      "hit": false,
      "t": 20158.709999999992,
      "d": 148.80937500000073,
      "v": 64
    },
    {
      "midi": 66,
      "hit": false,
      "t": 20233.114687499998,
      "d": 218.25374999999985,
      "v": 127
    },
    {
      "midi": 69,
      "hit": false,
      "t": 20238.074999999997,
      "d": 188.4918749999997,
      "v": 64
    },
    {
      "midi": 37,
      "hit": false,
      "t": 20238.074999999997,
      "d": 158.72999999999956,
      "v": 80
    },
    {
      "midi": 78,
      "hit": false,
      "t": 20238.075,
      "d": 252.97593749999578,
      "v": 80
    },
    {
      "midi": 78,
      "hit": false,
      "t": 20238.075,
      "d": 252.97593749999578,
      "v": 50
    },
    {
      "midi": 90,
      "hit": false,
      "t": 20238.075000000004,
      "d": 252.97593749999942,
      "v": 50
    },
    {
      "midi": 54,
      "hit": false,
      "t": 20238.07500000005,
      "d": 79.3650000000016,
      "v": 50
    },
    {
      "midi": 54,
      "hit": false,
      "t": 20357.122500000052,
      "d": 79.3650000000016,
      "v": 50
    },
    {
      "midi": 79,
      "hit": false,
      "t": 20446.408124999998,
      "d": 272.8171874999971,
      "v": 80
    },
    {
      "midi": 79,
      "hit": false,
      "t": 20446.408124999998,
      "d": 272.8171874999971,
      "v": 50
    },
    {
      "midi": 91,
      "hit": false,
      "t": 20446.408125000005,
      "d": 272.8171874999971,
      "v": 50
    },
    {
      "midi": 35,
      "hit": false,
      "t": 20476.16999999997,
      "d": 317.4599999999991,
      "v": 100
    },
    {
      "midi": 67,
      "hit": false,
      "t": 20476.17,
      "d": 218.25374999999985,
      "v": 127
    },
    {
      "midi": 37,
      "hit": false,
      "t": 20476.17,
      "d": 158.72999999999956,
      "v": 80
    },
    {
      "midi": 54,
      "hit": false,
      "t": 20476.170000000053,
      "d": 79.3650000000016,
      "v": 50
    },
    {
      "midi": 45,
      "hit": false,
      "t": 20481.130312499994,
      "d": 148.80937500000073,
      "v": 64
    },
    {
      "midi": 54,
      "hit": false,
      "t": 20595.217500000053,
      "d": 79.3650000000016,
      "v": 50
    },
    {
      "midi": 69,
      "hit": false,
      "t": 20709.304687499996,
      "d": 2936.505000000001,
      "v": 127
    },
    {
      "midi": 48,
      "hit": false,
      "t": 20714.265,
      "d": 158.72999999999956,
      "v": 80
    },
    {
      "midi": 54,
      "hit": false,
      "t": 20714.265000000054,
      "d": 79.3650000000016,
      "v": 50
    },
    {
      "midi": 81,
      "hit": false,
      "t": 20719.225312499995,
      "d": 3065.4731250000004,
      "v": 80
    },
    {
      "midi": 81,
      "hit": false,
      "t": 20719.225312499995,
      "d": 3065.4731250000004,
      "v": 50
    },
    {
      "midi": 93,
      "hit": false,
      "t": 20719.225312500002,
      "d": 3065.4731250000004,
      "v": 50
    },
    {
      "midi": 81,
      "hit": false,
      "t": 20734.106249999997,
      "d": 188.4918749999997,
      "v": 64
    },
    {
      "midi": 54,
      "hit": false,
      "t": 20833.312500000055,
      "d": 79.3650000000016,
      "v": 50
    },
    {
      "midi": 35,
      "hit": false,
      "t": 20952.359999999968,
      "d": 317.4599999999991,
      "v": 100
    },
    {
      "midi": 54,
      "hit": false,
      "t": 20952.360000000055,
      "d": 79.3650000000016,
      "v": 50
    },
    {
      "midi": 45,
      "hit": false,
      "t": 20997.002812499995,
      "d": 114.08718750000116,
      "v": 64
    },
    {
      "midi": 54,
      "hit": false,
      "t": 21071.407500000056,
      "d": 79.3650000000016,
      "v": 50
    },
    {
      "midi": 81,
      "hit": false,
      "t": 21190.454999999998,
      "d": 188.4918749999997,
      "v": 64
    },
    {
      "midi": 37,
      "hit": false,
      "t": 21190.454999999998,
      "d": 79.3650000000016,
      "v": 80
    },
    {
      "midi": 54,
      "hit": false,
      "t": 21190.455000000056,
      "d": 79.3650000000016,
      "v": 50
    },
    {
      "midi": 37,
      "hit": false,
      "t": 21309.5025,
      "d": 79.3650000000016,
      "v": 80
    },
    {
      "midi": 54,
      "hit": false,
      "t": 21309.502500000057,
      "d": 79.3650000000016,
      "v": 50
    },
    {
      "midi": 35,
      "hit": false,
      "t": 21428.549999999967,
      "d": 317.4599999999991,
      "v": 100
    },
    {
      "midi": 69,
      "hit": false,
      "t": 21428.55,
      "d": 188.4918749999997,
      "v": 64
    },
    {
      "midi": 37,
      "hit": false,
      "t": 21428.55,
      "d": 79.3650000000016,
      "v": 80
    },
    {
      "midi": 54,
      "hit": false,
      "t": 21428.550000000057,
      "d": 79.3650000000016,
      "v": 50
    },
    {
      "midi": 45,
      "hit": false,
      "t": 21483.113437499997,
      "d": 114.08718750000116,
      "v": 64
    },
    {
      "midi": 37,
      "hit": false,
      "t": 21547.5975,
      "d": 79.3650000000016,
      "v": 80
    },
    {
      "midi": 54,
      "hit": false,
      "t": 21547.597500000058,
      "d": 79.3650000000016,
      "v": 50
    },
    {
      "midi": 37,
      "hit": false,
      "t": 21661.6846875,
      "d": 158.72999999999956,
      "v": 80
    },
    {
      "midi": 48,
      "hit": false,
      "t": 21666.645,
      "d": 158.72999999999956,
      "v": 80
    },
    {
      "midi": 54,
      "hit": false,
      "t": 21666.64500000006,
      "d": 79.3650000000016,
      "v": 50
    },
    {
      "midi": 54,
      "hit": false,
      "t": 21785.69250000006,
      "d": 79.3650000000016,
      "v": 50
    },
    {
      "midi": 43,
      "hit": false,
      "t": 21810.494062499998,
      "d": 64.48406249999971,
      "v": 64
    },
    {
      "midi": 81,
      "hit": false,
      "t": 21884.89875,
      "d": 188.4918749999997,
      "v": 64
    },
    {
      "midi": 35,
      "hit": false,
      "t": 21904.739999999965,
      "d": 317.4599999999991,
      "v": 100
    },
    {
      "midi": 37,
      "hit": false,
      "t": 21904.74,
      "d": 158.72999999999956,
      "v": 80
    },
    {
      "midi": 48,
      "hit": false,
      "t": 21904.74,
      "d": 158.72999999999956,
      "v": 80
    },
    {
      "midi": 54,
      "hit": false,
      "t": 21904.74000000006,
      "d": 79.3650000000016,
      "v": 50
    },
    {
      "midi": 45,
      "hit": false,
      "t": 21929.5415625,
      "d": 54.56343750000087,
      "v": 64
    },
    {
      "midi": 45,
      "hit": false,
      "t": 22023.7875,
      "d": 178.57125000000087,
      "v": 64
    },
    {
      "midi": 54,
      "hit": false,
      "t": 22023.78750000006,
      "d": 79.3650000000016,
      "v": 50
    },
    {
      "midi": 69,
      "hit": false,
      "t": 22142.835,
      "d": 188.4918749999997,
      "v": 64
    },
    {
      "midi": 45,
      "hit": false,
      "t": 22142.835,
      "d": 158.72999999999956,
      "v": 80
    },
    {
      "midi": 37,
      "hit": false,
      "t": 22142.835000000003,
      "d": 158.72999999999956,
      "v": 80
    },
    {
      "midi": 54,
      "hit": false,
      "t": 22142.83500000006,
      "d": 79.3650000000016,
      "v": 50
    },
    {
      "midi": 54,
      "hit": false,
      "t": 22261.88250000006,
      "d": 79.3650000000016,
      "v": 50
    },
    {
      "midi": 45,
      "hit": false,
      "t": 22331.326875,
      "d": 173.61093750000146,
      "v": 64
    },
    {
      "midi": 35,
      "hit": false,
      "t": 22380.929999999964,
      "d": 317.4599999999991,
      "v": 100
    },
    {
      "midi": 37,
      "hit": false,
      "t": 22380.930000000004,
      "d": 158.72999999999956,
      "v": 80
    },
    {
      "midi": 54,
      "hit": false,
      "t": 22380.930000000062,
      "d": 79.3650000000016,
      "v": 50
    },
    {
      "midi": 54,
      "hit": false,
      "t": 22499.977500000063,
      "d": 79.3650000000016,
      "v": 50
    },
    {
      "midi": 41,
      "hit": false,
      "t": 22619.024999999998,
      "d": 158.72999999999956,
      "v": 80
    },
    {
      "midi": 54,
      "hit": false,
      "t": 22619.025000000063,
      "d": 79.3650000000016,
      "v": 50
    },
    {
      "midi": 45,
      "hit": false,
      "t": 22658.7075,
      "d": 124.0078125,
      "v": 64
    },
    {
      "midi": 54,
      "hit": false,
      "t": 22738.072500000064,
      "d": 79.3650000000016,
      "v": 50
    },
    {
      "midi": 35,
      "hit": false,
      "t": 22857.119999999963,
      "d": 317.4599999999991,
      "v": 100
    },
    {
      "midi": 54,
      "hit": false,
      "t": 22857.120000000064,
      "d": 79.3650000000016,
      "v": 50
    },
    {
      "midi": 54,
      "hit": false,
      "t": 22976.167500000065,
      "d": 79.3650000000016,
      "v": 50
    },
    {
      "midi": 48,
      "hit": false,
      "t": 23095.215,
      "d": 158.72999999999956,
      "v": 80
    },
    {
      "midi": 37,
      "hit": false,
      "t": 23095.215000000004,
      "d": 79.3650000000016,
      "v": 80
    },
    {
      "midi": 54,
      "hit": false,
      "t": 23095.215000000066,
      "d": 79.3650000000016,
      "v": 50
    },
    {
      "midi": 81,
      "hit": false,
      "t": 23115.056249999998,
      "d": 188.4918749999997,
      "v": 64
    },
    {
      "midi": 45,
      "hit": false,
      "t": 23144.818125,
      "d": 59.52375000000029,
      "v": 64
    },
    {
      "midi": 37,
      "hit": false,
      "t": 23214.262500000004,
      "d": 79.3650000000016,
      "v": 80
    },
    {
      "midi": 54,
      "hit": false,
      "t": 23214.262500000066,
      "d": 79.3650000000016,
      "v": 50
    },
    {
      "midi": 35,
      "hit": false,
      "t": 23333.30999999996,
      "d": 317.4599999999991,
      "v": 100
    },
    {
      "midi": 69,
      "hit": false,
      "t": 23333.309999999998,
      "d": 188.4918749999997,
      "v": 64
    },
    {
      "midi": 41,
      "hit": false,
      "t": 23333.309999999998,
      "d": 158.72999999999956,
      "v": 80
    },
    {
      "midi": 37,
      "hit": false,
      "t": 23333.310000000005,
      "d": 79.3650000000016,
      "v": 80
    },
    {
      "midi": 54,
      "hit": false,
      "t": 23333.310000000067,
      "d": 79.3650000000016,
      "v": 50
    },
    {
      "midi": 45,
      "hit": false,
      "t": 23382.913125000003,
      "d": 124.0078125,
      "v": 64
    },
    {
      "midi": 37,
      "hit": false,
      "t": 23452.357500000006,
      "d": 79.3650000000016,
      "v": 80
    },
    {
      "midi": 54,
      "hit": false,
      "t": 23452.357500000067,
      "d": 79.3650000000016,
      "v": 50
    },
    {
      "midi": 37,
      "hit": false,
      "t": 23566.444687500007,
      "d": 158.72999999999956,
      "v": 80
    },
    {
      "midi": 54,
      "hit": false,
      "t": 23571.405000000068,
      "d": 79.3650000000016,
      "v": 50
    },
    {
      "midi": 54,
      "hit": false,
      "t": 23690.45250000007,
      "d": 79.3650000000016,
      "v": 50
    },
    {
      "midi": 43,
      "hit": false,
      "t": 23774.777812500004,
      "d": 59.52375000000029,
      "v": 64
    },
    {
      "midi": 35,
      "hit": false,
      "t": 23809.49999999996,
      "d": 317.4599999999991,
      "v": 100
    },
    {
      "midi": 66,
      "hit": false,
      "t": 23809.499999999996,
      "d": 436.5074999999997,
      "v": 127
    },
    {
      "midi": 45,
      "hit": false,
      "t": 23809.5,
      "d": 158.72999999999956,
      "v": 80
    },
    {
      "midi": 37,
      "hit": false,
      "t": 23809.500000000007,
      "d": 158.72999999999956,
      "v": 80
    },
    {
      "midi": 54,
      "hit": false,
      "t": 23809.50000000007,
      "d": 79.3650000000016,
      "v": 50
    },
    {
      "midi": 45,
      "hit": false,
      "t": 23878.944375000003,
      "d": 262.89656249999825,
      "v": 64
    },
    {
      "midi": 54,
      "hit": false,
      "t": 23928.54750000007,
      "d": 79.3650000000016,
      "v": 50
    },
    {
      "midi": 45,
      "hit": false,
      "t": 24047.595,
      "d": 158.72999999999956,
      "v": 80
    },
    {
      "midi": 37,
      "hit": false,
      "t": 24047.59500000001,
      "d": 158.72999999999956,
      "v": 80
    },
    {
      "midi": 54,
      "hit": false,
      "t": 24047.59500000007,
      "d": 79.3650000000016,
      "v": 50
    },
    {
      "midi": 54,
      "hit": false,
      "t": 24166.64250000007,
      "d": 79.3650000000016,
      "v": 50
    },
    {
      "midi": 35,
      "hit": false,
      "t": 24285.68999999996,
      "d": 317.4599999999991,
      "v": 100
    },
    {
      "midi": 67,
      "hit": false,
      "t": 24285.689999999995,
      "d": 436.5074999999997,
      "v": 127
    },
    {
      "midi": 45,
      "hit": false,
      "t": 24285.690000000002,
      "d": 79.3650000000016,
      "v": 80
    },
    {
      "midi": 37,
      "hit": false,
      "t": 24285.69000000001,
      "d": 158.72999999999956,
      "v": 80
    },
    {
      "midi": 54,
      "hit": false,
      "t": 24285.69000000007,
      "d": 79.3650000000016,
      "v": 50
    },
    {
      "midi": 45,
      "hit": false,
      "t": 24360.0946875,
      "d": 138.88874999999825,
      "v": 64
    },
    {
      "midi": 45,
      "hit": false,
      "t": 24404.737500000003,
      "d": 79.3650000000016,
      "v": 80
    },
    {
      "midi": 54,
      "hit": false,
      "t": 24404.737500000072,
      "d": 79.3650000000016,
      "v": 50
    },
    {
      "midi": 45,
      "hit": false,
      "t": 24523.785000000003,
      "d": 79.3650000000016,
      "v": 80
    },
    {
      "midi": 54,
      "hit": false,
      "t": 24523.785000000073,
      "d": 79.3650000000016,
      "v": 50
    },
    {
      "midi": 45,
      "hit": false,
      "t": 24642.832500000004,
      "d": 79.3650000000016,
      "v": 80
    },
    {
      "midi": 54,
      "hit": false,
      "t": 24642.832500000073,
      "d": 79.3650000000016,
      "v": 50
    },
    {
      "midi": 35,
      "hit": false,
      "t": 24761.879999999957,
      "d": 317.4599999999991,
      "v": 100
    },
    {
      "midi": 74,
      "hit": false,
      "t": 24761.879999999997,
      "d": 952.380000000001,
      "v": 50
    },
    {
      "midi": 41,
      "hit": false,
      "t": 24761.879999999997,
      "d": 158.72999999999956,
      "v": 80
    },
    {
      "midi": 54,
      "hit": false,
      "t": 24761.880000000074,
      "d": 79.3650000000016,
      "v": 50
    },
    {
      "midi": 54,
      "hit": false,
      "t": 24880.927500000074,
      "d": 79.3650000000016,
      "v": 50
    },
    {
      "midi": 37,
      "hit": false,
      "t": 24999.97500000001,
      "d": 79.3650000000016,
      "v": 80
    },
    {
      "midi": 54,
      "hit": false,
      "t": 24999.975000000075,
      "d": 79.3650000000016,
      "v": 50
    },
    {
      "midi": 37,
      "hit": false,
      "t": 25119.02250000001,
      "d": 79.3650000000016,
      "v": 80
    },
    {
      "midi": 54,
      "hit": false,
      "t": 25119.022500000076,
      "d": 79.3650000000016,
      "v": 50
    },
    {
      "midi": 35,
      "hit": false,
      "t": 25238.069999999956,
      "d": 317.4599999999991,
      "v": 100
    },
    {
      "midi": 69,
      "hit": false,
      "t": 25238.069999999996,
      "d": 223.21406249999927,
      "v": 127
    },
    {
      "midi": 37,
      "hit": false,
      "t": 25238.07000000001,
      "d": 79.3650000000016,
      "v": 80
    },
    {
      "midi": 54,
      "hit": false,
      "t": 25238.070000000076,
      "d": 79.3650000000016,
      "v": 50
    },
    {
      "midi": 37,
      "hit": false,
      "t": 25357.11750000001,
      "d": 79.3650000000016,
      "v": 80
    },
    {
      "midi": 54,
      "hit": false,
      "t": 25357.117500000077,
      "d": 79.3650000000016,
      "v": 50
    },
    {
      "midi": 37,
      "hit": false,
      "t": 25471.204687500012,
      "d": 158.72999999999956,
      "v": 80
    },
    {
      "midi": 54,
      "hit": false,
      "t": 25476.165000000077,
      "d": 79.3650000000016,
      "v": 50
    },
    {
      "midi": 54,
      "hit": false,
      "t": 25595.212500000078,
      "d": 79.3650000000016,
      "v": 50
    },
    {
      "midi": 69,
      "hit": false,
      "t": 25694.418749999997,
      "d": 267.8568750000013,
      "v": 127
    },
    {
      "midi": 35,
      "hit": false,
      "t": 25714.259999999955,
      "d": 317.4599999999991,
      "v": 100
    },
    {
      "midi": 73,
      "hit": false,
      "t": 25714.26,
      "d": 952.380000000001,
      "v": 50
    },
    {
      "midi": 37,
      "hit": false,
      "t": 25714.260000000013,
      "d": 158.72999999999956,
      "v": 80
    },
    {
      "midi": 54,
      "hit": false,
      "t": 25714.26000000008,
      "d": 79.3650000000016,
      "v": 50
    },
    {
      "midi": 54,
      "hit": false,
      "t": 25833.30750000008,
      "d": 79.3650000000016,
      "v": 50
    },
    {
      "midi": 37,
      "hit": false,
      "t": 25952.355000000014,
      "d": 158.72999999999956,
      "v": 80
    },
    {
      "midi": 54,
      "hit": false,
      "t": 25952.35500000008,
      "d": 79.3650000000016,
      "v": 50
    },
    {
      "midi": 71,
      "hit": false,
      "t": 26021.799375,
      "d": 252.97593749999942,
      "v": 127
    },
    {
      "midi": 54,
      "hit": false,
      "t": 26071.40250000008,
      "d": 79.3650000000016,
      "v": 50
    },
    {
      "midi": 35,
      "hit": false,
      "t": 26190.449999999953,
      "d": 317.4599999999991,
      "v": 100
    },
    {
      "midi": 37,
      "hit": false,
      "t": 26190.450000000015,
      "d": 158.72999999999956,
      "v": 80
    },
    {
      "midi": 54,
      "hit": false,
      "t": 26190.45000000008,
      "d": 79.3650000000016,
      "v": 50
    },
    {
      "midi": 54,
      "hit": false,
      "t": 26309.49750000008,
      "d": 79.3650000000016,
      "v": 50
    },
    {
      "midi": 54,
      "hit": false,
      "t": 26428.545000000082,
      "d": 79.3650000000016,
      "v": 50
    },
    {
      "midi": 54,
      "hit": false,
      "t": 26547.592500000083,
      "d": 79.3650000000016,
      "v": 50
    },
    {
      "midi": 35,
      "hit": false,
      "t": 26666.639999999952,
      "d": 317.4599999999991,
      "v": 100
    },
    {
      "midi": 71,
      "hit": false,
      "t": 26666.64,
      "d": 952.380000000001,
      "v": 50
    },
    {
      "midi": 54,
      "hit": false,
      "t": 26666.640000000083,
      "d": 79.3650000000016,
      "v": 50
    },
    {
      "midi": 54,
      "hit": false,
      "t": 26785.687500000084,
      "d": 79.3650000000016,
      "v": 50
    },
    {
      "midi": 37,
      "hit": false,
      "t": 26904.735000000015,
      "d": 79.3650000000016,
      "v": 80
    },
    {
      "midi": 54,
      "hit": false,
      "t": 26904.735000000084,
      "d": 79.3650000000016,
      "v": 50
    },
    {
      "midi": 37,
      "hit": false,
      "t": 27023.782500000016,
      "d": 79.3650000000016,
      "v": 80
    },
    {
      "midi": 54,
      "hit": false,
      "t": 27023.782500000085,
      "d": 79.3650000000016,
      "v": 50
    },
    {
      "midi": 35,
      "hit": false,
      "t": 27142.82999999995,
      "d": 317.4599999999991,
      "v": 100
    },
    {
      "midi": 62,
      "hit": false,
      "t": 27142.829999999998,
      "d": 128.96812499999942,
      "v": 127
    },
    {
      "midi": 37,
      "hit": false,
      "t": 27142.830000000016,
      "d": 79.3650000000016,
      "v": 80
    },
    {
      "midi": 54,
      "hit": false,
      "t": 27142.830000000085,
      "d": 79.3650000000016,
      "v": 50
    },
    {
      "midi": 37,
      "hit": false,
      "t": 27261.877500000017,
      "d": 79.3650000000016,
      "v": 80
    },
    {
      "midi": 54,
      "hit": false,
      "t": 27261.877500000086,
      "d": 79.3650000000016,
      "v": 50
    },
    {
      "midi": 59,
      "hit": false,
      "t": 27375.964687499996,
      "d": 218.25374999999985,
      "v": 127
    },
    {
      "midi": 37,
      "hit": false,
      "t": 27375.964687500018,
      "d": 158.72999999999956,
      "v": 80
    },
    {
      "midi": 54,
      "hit": false,
      "t": 27380.925000000087,
      "d": 79.3650000000016,
      "v": 50
    },
    {
      "midi": 54,
      "hit": false,
      "t": 27499.972500000087,
      "d": 79.3650000000016,
      "v": 50
    },
    {
      "midi": 35,
      "hit": false,
      "t": 27619.01999999995,
      "d": 317.4599999999991,
      "v": 100
    },
    {
      "midi": 62,
      "hit": false,
      "t": 27619.019999999997,
      "d": 570.4359374999985,
      "v": 127
    },
    {
      "midi": 69,
      "hit": false,
      "t": 27619.02,
      "d": 952.380000000001,
      "v": 50
    },
    {
      "midi": 37,
      "hit": false,
      "t": 27619.02000000002,
      "d": 158.72999999999956,
      "v": 80
    },
    {
      "midi": 54,
      "hit": false,
      "t": 27619.020000000088,
      "d": 79.3650000000016,
      "v": 50
    },
    {
      "midi": 54,
      "hit": false,
      "t": 27738.06750000009,
      "d": 79.3650000000016,
      "v": 50
    },
    {
      "midi": 37,
      "hit": false,
      "t": 27857.11500000002,
      "d": 158.72999999999956,
      "v": 80
    },
    {
      "midi": 54,
      "hit": false,
      "t": 27857.11500000009,
      "d": 79.3650000000016,
      "v": 50
    },
    {
      "midi": 54,
      "hit": false,
      "t": 27976.16250000009,
      "d": 79.3650000000016,
      "v": 50
    },
    {
      "midi": 35,
      "hit": false,
      "t": 28095.20999999995,
      "d": 317.4599999999991,
      "v": 100
    },
    {
      "midi": 74,
      "hit": false,
      "t": 28095.21,
      "d": 218.25374999999985,
      "v": 64
    },
    {
      "midi": 86,
      "hit": false,
      "t": 28095.210000000003,
      "d": 436.5074999999997,
      "v": 64
    },
    {
      "midi": 37,
      "hit": false,
      "t": 28095.21000000002,
      "d": 158.72999999999956,
      "v": 80
    },
    {
      "midi": 54,
      "hit": false,
      "t": 28095.21000000009,
      "d": 79.3650000000016,
      "v": 50
    },
    {
      "midi": 54,
      "hit": false,
      "t": 28214.25750000009,
      "d": 79.3650000000016,
      "v": 50
    },
    {
      "midi": 54,
      "hit": false,
      "t": 28333.30500000009,
      "d": 79.3650000000016,
      "v": 50
    },
    {
      "midi": 54,
      "hit": false,
      "t": 28452.352500000092,
      "d": 79.3650000000016,
      "v": 50
    },
    {
      "midi": 35,
      "hit": false,
      "t": 28571.399999999947,
      "d": 317.4599999999991,
      "v": 100
    },
    {
      "midi": 62,
      "hit": false,
      "t": 28571.399999999994,
      "d": 436.5074999999997,
      "v": 127
    },
    {
      "midi": 71,
      "hit": false,
      "t": 28571.4,
      "d": 952.380000000001,
      "v": 50
    },
    {
      "midi": 54,
      "hit": false,
      "t": 28571.400000000092,
      "d": 79.3650000000016,
      "v": 50
    },
    {
      "midi": 54,
      "hit": false,
      "t": 28690.447500000093,
      "d": 79.3650000000016,
      "v": 50
    },
    {
      "midi": 37,
      "hit": false,
      "t": 28809.49500000002,
      "d": 79.3650000000016,
      "v": 80
    },
    {
      "midi": 54,
      "hit": false,
      "t": 28809.495000000094,
      "d": 79.3650000000016,
      "v": 50
    },
    {
      "midi": 37,
      "hit": false,
      "t": 28928.54250000002,
      "d": 79.3650000000016,
      "v": 80
    },
    {
      "midi": 54,
      "hit": false,
      "t": 28928.542500000094,
      "d": 79.3650000000016,
      "v": 50
    },
    {
      "midi": 35,
      "hit": false,
      "t": 29047.589999999946,
      "d": 317.4599999999991,
      "v": 100
    },
    {
      "midi": 64,
      "hit": false,
      "t": 29047.589999999993,
      "d": 436.5074999999997,
      "v": 127
    },
    {
      "midi": 37,
      "hit": false,
      "t": 29047.590000000022,
      "d": 79.3650000000016,
      "v": 80
    },
    {
      "midi": 54,
      "hit": false,
      "t": 29047.590000000095,
      "d": 79.3650000000016,
      "v": 50
    },
    {
      "midi": 37,
      "hit": false,
      "t": 29166.637500000023,
      "d": 79.3650000000016,
      "v": 80
    },
    {
      "midi": 54,
      "hit": false,
      "t": 29166.637500000095,
      "d": 79.3650000000016,
      "v": 50
    },
    {
      "midi": 37,
      "hit": false,
      "t": 29280.724687500024,
      "d": 158.72999999999956,
      "v": 80
    },
    {
      "midi": 54,
      "hit": false,
      "t": 29285.685000000096,
      "d": 79.3650000000016,
      "v": 50
    },
    {
      "midi": 54,
      "hit": false,
      "t": 29404.732500000096,
      "d": 79.3650000000016,
      "v": 50
    },
    {
      "midi": 35,
      "hit": false,
      "t": 29523.779999999944,
      "d": 317.4599999999991,
      "v": 100
    },
    {
      "midi": 62,
      "hit": false,
      "t": 29523.77999999999,
      "d": 267.8568750000013,
      "v": 127
    },
    {
      "midi": 69,
      "hit": false,
      "t": 29523.780000000002,
      "d": 952.380000000001,
      "v": 50
    },
    {
      "midi": 37,
      "hit": false,
      "t": 29523.780000000024,
      "d": 158.72999999999956,
      "v": 80
    },
    {
      "midi": 54,
      "hit": false,
      "t": 29523.780000000097,
      "d": 79.3650000000016,
      "v": 50
    },
    {
      "midi": 54,
      "hit": false,
      "t": 29642.827500000098,
      "d": 79.3650000000016,
      "v": 50
    },
    {
      "midi": 37,
      "hit": false,
      "t": 29761.875000000025,
      "d": 158.72999999999956,
      "v": 80
    },
    {
      "midi": 54,
      "hit": false,
      "t": 29761.8750000001,
      "d": 79.3650000000016,
      "v": 50
    },
    {
      "midi": 54,
      "hit": false,
      "t": 29880.9225000001,
      "d": 79.3650000000016,
      "v": 50
    },
    {
      "midi": 35,
      "hit": false,
      "t": 29999.969999999943,
      "d": 317.4599999999991,
      "v": 100
    },
    {
      "midi": 69,
      "hit": false,
      "t": 29999.969999999994,
      "d": 218.25374999999985,
      "v": 127
    },
    {
      "midi": 37,
      "hit": false,
      "t": 29999.970000000027,
      "d": 158.72999999999956,
      "v": 80
    },
    {
      "midi": 54,
      "hit": false,
      "t": 29999.9700000001,
      "d": 79.3650000000016,
      "v": 50
    },
    {
      "midi": 54,
      "hit": false,
      "t": 30119.0175000001,
      "d": 79.3650000000016,
      "v": 50
    },
    {
      "midi": 67,
      "hit": false,
      "t": 30233.104687499992,
      "d": 436.5074999999997,
      "v": 127
    },
    {
      "midi": 45,
      "hit": false,
      "t": 30238.065000000006,
      "d": 158.72999999999956,
      "v": 80
    },
    {
      "midi": 54,
      "hit": false,
      "t": 30238.0650000001,
      "d": 79.3650000000016,
      "v": 50
    },
    {
      "midi": 54,
      "hit": false,
      "t": 30357.1125000001,
      "d": 79.3650000000016,
      "v": 50
    },
    {
      "midi": 35,
      "hit": false,
      "t": 30476.15999999994,
      "d": 317.4599999999991,
      "v": 100
    },
    {
      "midi": 74,
      "hit": false,
      "t": 30476.160000000003,
      "d": 1904.7599999999984,
      "v": 50
    },
    {
      "midi": 54,
      "hit": false,
      "t": 30476.1600000001,
      "d": 79.3650000000016,
      "v": 50
    },
    {
      "midi": 54,
      "hit": false,
      "t": 30595.207500000102,
      "d": 79.3650000000016,
      "v": 50
    },
    {
      "midi": 66,
      "hit": false,
      "t": 30709.29468749999,
      "d": 218.25374999999985,
      "v": 127
    },
    {
      "midi": 45,
      "hit": false,
      "t": 30714.255000000005,
      "d": 158.72999999999956,
      "v": 80
    },
    {
      "midi": 37,
      "hit": false,
      "t": 30714.255000000026,
      "d": 79.3650000000016,
      "v": 80
    },
    {
      "midi": 54,
      "hit": false,
      "t": 30714.255000000103,
      "d": 79.3650000000016,
      "v": 50
    },
    {
      "midi": 37,
      "hit": false,
      "t": 30833.302500000027,
      "d": 79.3650000000016,
      "v": 80
    },
    {
      "midi": 54,
      "hit": false,
      "t": 30833.302500000103,
      "d": 79.3650000000016,
      "v": 50
    },
    {
      "midi": 35,
      "hit": false,
      "t": 30952.34999999994,
      "d": 317.4599999999991,
      "v": 100
    },
    {
      "midi": 64,
      "hit": false,
      "t": 30952.34999999999,
      "d": 218.25374999999985,
      "v": 127
    },
    {
      "midi": 45,
      "hit": false,
      "t": 30952.350000000006,
      "d": 158.72999999999956,
      "v": 80
    },
    {
      "midi": 37,
      "hit": false,
      "t": 30952.350000000028,
      "d": 79.3650000000016,
      "v": 80
    },
    {
      "midi": 54,
      "hit": false,
      "t": 30952.350000000104,
      "d": 79.3650000000016,
      "v": 50
    },
    {
      "midi": 37,
      "hit": false,
      "t": 31071.39750000003,
      "d": 79.3650000000016,
      "v": 80
    },
    {
      "midi": 54,
      "hit": false,
      "t": 31071.397500000105,
      "d": 79.3650000000016,
      "v": 50
    },
    {
      "midi": 62,
      "hit": false,
      "t": 31185.48468749999,
      "d": 158.72999999999956,
      "v": 127
    },
    {
      "midi": 37,
      "hit": false,
      "t": 31185.48468750003,
      "d": 158.72999999999956,
      "v": 80
    },
    {
      "midi": 54,
      "hit": false,
      "t": 31190.445000000105,
      "d": 79.3650000000016,
      "v": 50
    },
    {
      "midi": 54,
      "hit": false,
      "t": 31309.492500000106,
      "d": 79.3650000000016,
      "v": 50
    },
    {
      "midi": 35,
      "hit": false,
      "t": 31428.53999999994,
      "d": 317.4599999999991,
      "v": 100
    },
    {
      "midi": 62,
      "hit": false,
      "t": 31428.53999999999,
      "d": 218.25374999999985,
      "v": 127
    },
    {
      "midi": 37,
      "hit": false,
      "t": 31428.54000000003,
      "d": 158.72999999999956,
      "v": 80
    },
    {
      "midi": 54,
      "hit": false,
      "t": 31428.540000000106,
      "d": 79.3650000000016,
      "v": 50
    },
    {
      "midi": 54,
      "hit": false,
      "t": 31547.587500000107,
      "d": 79.3650000000016,
      "v": 50
    },
    {
      "midi": 64,
      "hit": false,
      "t": 31661.674687499988,
      "d": 218.25374999999985,
      "v": 127
    },
    {
      "midi": 37,
      "hit": false,
      "t": 31666.63500000003,
      "d": 158.72999999999956,
      "v": 80
    },
    {
      "midi": 54,
      "hit": false,
      "t": 31666.635000000108,
      "d": 79.3650000000016,
      "v": 50
    },
    {
      "midi": 54,
      "hit": false,
      "t": 31785.682500000108,
      "d": 79.3650000000016,
      "v": 50
    },
    {
      "midi": 35,
      "hit": false,
      "t": 31904.729999999938,
      "d": 317.4599999999991,
      "v": 100
    },
    {
      "midi": 66,
      "hit": false,
      "t": 31904.72999999999,
      "d": 218.25374999999985,
      "v": 127
    },
    {
      "midi": 45,
      "hit": false,
      "t": 31904.730000000007,
      "d": 158.72999999999956,
      "v": 80
    },
    {
      "midi": 37,
      "hit": false,
      "t": 31904.730000000032,
      "d": 158.72999999999956,
      "v": 80
    },
    {
      "midi": 54,
      "hit": false,
      "t": 31904.73000000011,
      "d": 79.3650000000016,
      "v": 50
    },
    {
      "midi": 54,
      "hit": false,
      "t": 32023.77750000011,
      "d": 79.3650000000016,
      "v": 50
    },
    {
      "midi": 64,
      "hit": false,
      "t": 32137.864687499987,
      "d": 500.9915624999994,
      "v": 127
    },
    {
      "midi": 45,
      "hit": false,
      "t": 32142.825000000008,
      "d": 158.72999999999956,
      "v": 80
    },
    {
      "midi": 54,
      "hit": false,
      "t": 32142.82500000011,
      "d": 79.3650000000016,
      "v": 50
    },
    {
      "midi": 54,
      "hit": false,
      "t": 32261.87250000011,
      "d": 79.3650000000016,
      "v": 50
    },
    {
      "midi": 35,
      "hit": false,
      "t": 32380.919999999936,
      "d": 317.4599999999991,
      "v": 100
    },
    {
      "midi": 74,
      "hit": false,
      "t": 32380.920000000002,
      "d": 952.380000000001,
      "v": 50
    },
    {
      "midi": 45,
      "hit": false,
      "t": 32380.92000000001,
      "d": 158.72999999999956,
      "v": 80
    },
    {
      "midi": 54,
      "hit": false,
      "t": 32380.92000000011,
      "d": 79.3650000000016,
      "v": 50
    },
    {
      "midi": 54,
      "hit": false,
      "t": 32499.96750000011,
      "d": 79.3650000000016,
      "v": 50
    },
    {
      "midi": 45,
      "hit": false,
      "t": 32619.01500000001,
      "d": 79.3650000000016,
      "v": 80
    },
    {
      "midi": 37,
      "hit": false,
      "t": 32619.015000000032,
      "d": 79.3650000000016,
      "v": 80
    },
    {
      "midi": 54,
      "hit": false,
      "t": 32619.015000000112,
      "d": 79.3650000000016,
      "v": 50
    },
    {
      "midi": 45,
      "hit": false,
      "t": 32738.06250000001,
      "d": 79.3650000000016,
      "v": 80
    },
    {
      "midi": 37,
      "hit": false,
      "t": 32738.062500000033,
      "d": 79.3650000000016,
      "v": 80
    },
    {
      "midi": 54,
      "hit": false,
      "t": 32738.062500000113,
      "d": 79.3650000000016,
      "v": 50
    },
    {
      "midi": 35,
      "hit": false,
      "t": 32857.109999999935,
      "d": 317.4599999999991,
      "v": 100
    },
    {
      "midi": 41,
      "hit": false,
      "t": 32857.11,
      "d": 158.7300000000032,
      "v": 80
    },
    {
      "midi": 37,
      "hit": false,
      "t": 32857.11000000004,
      "d": 79.36499999999796,
      "v": 80
    },
    {
      "midi": 54,
      "hit": false,
      "t": 32857.11000000012,
      "d": 79.36499999999796,
      "v": 50
    },
    {
      "midi": 69,
      "hit": false,
      "t": 32886.87187499998,
      "d": 163.69031250000262,
      "v": 127
    },
    {
      "midi": 37,
      "hit": false,
      "t": 32976.15750000004,
      "d": 79.36499999999796,
      "v": 80
    },
    {
      "midi": 54,
      "hit": false,
      "t": 32976.15750000012,
      "d": 79.36499999999796,
      "v": 50
    },
    {
      "midi": 37,
      "hit": false,
      "t": 33090.24468750004,
      "d": 158.7300000000032,
      "v": 80
    },
    {
      "midi": 54,
      "hit": false,
      "t": 33095.20500000012,
      "d": 79.36499999999796,
      "v": 50
    },
    {
      "midi": 66,
      "hit": false,
      "t": 33105.125624999986,
      "d": 153.7696874999965,
      "v": 127
    },
    {
      "midi": 54,
      "hit": false,
      "t": 33214.25250000012,
      "d": 79.36499999999796,
      "v": 50
    },
    {
      "midi": 35,
      "hit": false,
      "t": 33333.29999999994,
      "d": 317.4599999999991,
      "v": 100
    },
    {
      "midi": 73,
      "hit": false,
      "t": 33333.3,
      "d": 952.3799999999974,
      "v": 50
    },
    {
      "midi": 37,
      "hit": false,
      "t": 33333.30000000004,
      "d": 158.7300000000032,
      "v": 80
    },
    {
      "midi": 54,
      "hit": false,
      "t": 33333.30000000012,
      "d": 79.36499999999796,
      "v": 50
    },
    {
      "midi": 69,
      "hit": false,
      "t": 33363.061874999985,
      "d": 243.05531250000058,
      "v": 127
    },
    {
      "midi": 54,
      "hit": false,
      "t": 33452.34750000012,
      "d": 79.36499999999796,
      "v": 50
    },
    {
      "midi": 37,
      "hit": false,
      "t": 33571.39500000004,
      "d": 158.7300000000032,
      "v": 80
    },
    {
      "midi": 54,
      "hit": false,
      "t": 33571.39500000012,
      "d": 79.36499999999796,
      "v": 50
    },
    {
      "midi": 54,
      "hit": false,
      "t": 33690.44250000012,
      "d": 79.36499999999796,
      "v": 50
    },
    {
      "midi": 71,
      "hit": false,
      "t": 33705.32343749999,
      "d": 218.2537500000035,
      "v": 127
    },
    {
      "midi": 35,
      "hit": false,
      "t": 33809.48999999994,
      "d": 317.4599999999991,
      "v": 100
    },
    {
      "midi": 37,
      "hit": false,
      "t": 33809.49000000004,
      "d": 158.7300000000032,
      "v": 80
    },
    {
      "midi": 54,
      "hit": false,
      "t": 33809.49000000012,
      "d": 79.36499999999796,
      "v": 50
    },
    {
      "midi": 54,
      "hit": false,
      "t": 33928.53750000012,
      "d": 79.36499999999796,
      "v": 50
    },
    {
      "midi": 54,
      "hit": false,
      "t": 34047.58500000012,
      "d": 79.36499999999796,
      "v": 50
    },
    {
      "midi": 62,
      "hit": false,
      "t": 34092.227812499994,
      "d": 362.10281250000116,
      "v": 127
    },
    {
      "midi": 54,
      "hit": false,
      "t": 34166.63250000012,
      "d": 79.36499999999796,
      "v": 50
    },
    {
      "midi": 35,
      "hit": false,
      "t": 34285.67999999994,
      "d": 317.4599999999991,
      "v": 100
    },
    {
      "midi": 71,
      "hit": false,
      "t": 34285.68,
      "d": 952.3799999999974,
      "v": 50
    },
    {
      "midi": 54,
      "hit": false,
      "t": 34285.680000000124,
      "d": 79.36499999999796,
      "v": 50
    },
    {
      "midi": 54,
      "hit": false,
      "t": 34404.727500000125,
      "d": 79.36499999999796,
      "v": 50
    },
    {
      "midi": 62,
      "hit": false,
      "t": 34518.814687499995,
      "d": 158.7300000000032,
      "v": 127
    },
    {
      "midi": 37,
      "hit": false,
      "t": 34523.775000000045,
      "d": 79.36499999999796,
      "v": 80
    },
    {
      "midi": 54,
      "hit": false,
      "t": 34523.775000000125,
      "d": 79.36499999999796,
      "v": 50
    },
    {
      "midi": 37,
      "hit": false,
      "t": 34642.822500000046,
      "d": 79.36499999999796,
      "v": 80
    },
    {
      "midi": 54,
      "hit": false,
      "t": 34642.822500000126,
      "d": 79.36499999999796,
      "v": 50
    },
    {
      "midi": 35,
      "hit": false,
      "t": 34761.869999999944,
      "d": 317.4599999999991,
      "v": 100
    },
    {
      "midi": 62,
      "hit": false,
      "t": 34761.869999999995,
      "d": 218.2537500000035,
      "v": 127
    },
    {
      "midi": 37,
      "hit": false,
      "t": 34761.870000000046,
      "d": 79.36499999999796,
      "v": 80
    },
    {
      "midi": 54,
      "hit": false,
      "t": 34761.870000000126,
      "d": 79.36499999999796,
      "v": 50
    },
    {
      "midi": 37,
      "hit": false,
      "t": 34880.91750000005,
      "d": 79.36499999999796,
      "v": 80
    },
    {
      "midi": 54,
      "hit": false,
      "t": 34880.91750000013,
      "d": 79.36499999999796,
      "v": 50
    },
    {
      "midi": 59,
      "hit": false,
      "t": 34995.0046875,
      "d": 218.2537500000035,
      "v": 127
    },
    {
      "midi": 37,
      "hit": false,
      "t": 34995.00468750005,
      "d": 158.7300000000032,
      "v": 80
    },
    {
      "midi": 54,
      "hit": false,
      "t": 34999.96500000013,
      "d": 79.36499999999796,
      "v": 50
    },
    {
      "midi": 54,
      "hit": false,
      "t": 35119.01250000013,
      "d": 79.36499999999796,
      "v": 50
    },
    {
      "midi": 35,
      "hit": false,
      "t": 35238.05999999995,
      "d": 317.4599999999991,
      "v": 100
    },
    {
      "midi": 62,
      "hit": false,
      "t": 35238.06,
      "d": 634.9199999999983,
      "v": 127
    },
    {
      "midi": 69,
      "hit": false,
      "t": 35238.06,
      "d": 952.3799999999974,
      "v": 50
    },
    {
      "midi": 37,
      "hit": false,
      "t": 35238.06000000005,
      "d": 158.7300000000032,
      "v": 80
    },
    {
      "midi": 54,
      "hit": false,
      "t": 35238.06000000013,
      "d": 79.36499999999796,
      "v": 50
    },
    {
      "midi": 54,
      "hit": false,
      "t": 35357.10750000013,
      "d": 79.36499999999796,
      "v": 50
    },
    {
      "midi": 37,
      "hit": false,
      "t": 35476.15500000005,
      "d": 158.7300000000032,
      "v": 80
    },
    {
      "midi": 54,
      "hit": false,
      "t": 35476.15500000013,
      "d": 79.36499999999796,
      "v": 50
    },
    {
      "midi": 54,
      "hit": false,
      "t": 35595.20250000013,
      "d": 79.36499999999796,
      "v": 50
    },
    {
      "midi": 35,
      "hit": false,
      "t": 35714.24999999995,
      "d": 317.4599999999991,
      "v": 100
    },
    {
      "midi": 74,
      "hit": false,
      "t": 35714.25,
      "d": 218.2537500000035,
      "v": 64
    },
    {
      "midi": 86,
      "hit": false,
      "t": 35714.25,
      "d": 436.5074999999997,
      "v": 64
    },
    {
      "midi": 37,
      "hit": false,
      "t": 35714.25000000005,
      "d": 158.7300000000032,
      "v": 80
    },
    {
      "midi": 54,
      "hit": false,
      "t": 35714.25000000013,
      "d": 79.36499999999796,
      "v": 50
    },
    {
      "midi": 54,
      "hit": false,
      "t": 35833.29750000013,
      "d": 79.36499999999796,
      "v": 50
    },
    {
      "midi": 54,
      "hit": false,
      "t": 35952.34500000013,
      "d": 79.36499999999796,
      "v": 50
    },
    {
      "midi": 54,
      "hit": false,
      "t": 36071.39250000013,
      "d": 79.36499999999796,
      "v": 50
    },
    {
      "midi": 35,
      "hit": false,
      "t": 36190.43999999995,
      "d": 317.4599999999991,
      "v": 100
    },
    {
      "midi": 62,
      "hit": false,
      "t": 36190.439999999995,
      "d": 436.5074999999997,
      "v": 127
    },
    {
      "midi": 71,
      "hit": false,
      "t": 36190.439999999995,
      "d": 952.3799999999974,
      "v": 50
    },
    {
      "midi": 54,
      "hit": false,
      "t": 36190.44000000013,
      "d": 79.36499999999796,
      "v": 50
    },
    {
      "midi": 54,
      "hit": false,
      "t": 36309.487500000134,
      "d": 79.36499999999796,
      "v": 50
    },
    {
      "midi": 37,
      "hit": false,
      "t": 36428.535000000054,
      "d": 79.36499999999796,
      "v": 80
    },
    {
      "midi": 54,
      "hit": false,
      "t": 36428.535000000134,
      "d": 79.36499999999796,
      "v": 50
    },
    {
      "midi": 37,
      "hit": false,
      "t": 36547.582500000055,
      "d": 79.36499999999796,
      "v": 80
    },
    {
      "midi": 54,
      "hit": false,
      "t": 36547.582500000135,
      "d": 79.36499999999796,
      "v": 50
    },
    {
      "midi": 35,
      "hit": false,
      "t": 36666.629999999954,
      "d": 317.4599999999991,
      "v": 100
    },
    {
      "midi": 64,
      "hit": false,
      "t": 36666.63,
      "d": 436.5074999999997,
      "v": 127
    },
    {
      "midi": 37,
      "hit": false,
      "t": 36666.630000000056,
      "d": 79.36499999999796,
      "v": 80
    },
    {
      "midi": 54,
      "hit": false,
      "t": 36666.630000000136,
      "d": 79.36499999999796,
      "v": 50
    },
    {
      "midi": 37,
      "hit": false,
      "t": 36785.677500000056,
      "d": 79.36499999999796,
      "v": 80
    },
    {
      "midi": 54,
      "hit": false,
      "t": 36785.677500000136,
      "d": 79.36499999999796,
      "v": 50
    },
    {
      "midi": 37,
      "hit": false,
      "t": 36899.76468750006,
      "d": 158.7300000000032,
      "v": 80
    },
    {
      "midi": 54,
      "hit": false,
      "t": 36904.72500000014,
      "d": 79.36499999999796,
      "v": 50
    },
    {
      "midi": 54,
      "hit": false,
      "t": 37023.77250000014,
      "d": 79.36499999999796,
      "v": 50
    },
    {
      "midi": 35,
      "hit": false,
      "t": 37142.819999999956,
      "d": 317.4599999999991,
      "v": 100
    },
    {
      "midi": 69,
      "hit": false,
      "t": 37142.81999999999,
      "d": 952.3799999999974,
      "v": 50
    },
    {
      "midi": 62,
      "hit": false,
      "t": 37142.82,
      "d": 218.2537500000035,
      "v": 127
    },
    {
      "midi": 37,
      "hit": false,
      "t": 37142.82000000006,
      "d": 158.7300000000032,
      "v": 80
    },
    {
      "midi": 54,
      "hit": false,
      "t": 37142.82000000014,
      "d": 79.36499999999796,
      "v": 50
    },
    {
      "midi": 54,
      "hit": false,
      "t": 37261.86750000014,
      "d": 79.36499999999796,
      "v": 50
    },
    {
      "midi": 37,
      "hit": false,
      "t": 37380.91500000006,
      "d": 158.7300000000032,
      "v": 80
    },
    {
      "midi": 54,
      "hit": false,
      "t": 37380.91500000014,
      "d": 79.36499999999796,
      "v": 50
    },
    {
      "midi": 54,
      "hit": false,
      "t": 37499.96250000014,
      "d": 79.36499999999796,
      "v": 50
    },
    {
      "midi": 35,
      "hit": false,
      "t": 37619.00999999996,
      "d": 317.4599999999991,
      "v": 100
    },
    {
      "midi": 69,
      "hit": false,
      "t": 37619.01,
      "d": 218.2537500000035,
      "v": 127
    },
    {
      "midi": 37,
      "hit": false,
      "t": 37619.01000000006,
      "d": 158.7300000000032,
      "v": 80
    },
    {
      "midi": 54,
      "hit": false,
      "t": 37619.01000000014,
      "d": 79.36499999999796,
      "v": 50
    },
    {
      "midi": 54,
      "hit": false,
      "t": 37738.05750000014,
      "d": 79.36499999999796,
      "v": 50
    },
    {
      "midi": 67,
      "hit": false,
      "t": 37852.144687500004,
      "d": 436.5074999999997,
      "v": 127
    },
    {
      "midi": 48,
      "hit": false,
      "t": 37857.104999999996,
      "d": 158.7300000000032,
      "v": 80
    },
    {
      "midi": 54,
      "hit": false,
      "t": 37857.10500000014,
      "d": 79.36499999999796,
      "v": 50
    },
    {
      "midi": 54,
      "hit": false,
      "t": 37976.15250000014,
      "d": 79.36499999999796,
      "v": 50
    },
    {
      "midi": 35,
      "hit": false,
      "t": 38095.19999999996,
      "d": 317.4599999999991,
      "v": 100
    },
    {
      "midi": 74,
      "hit": false,
      "t": 38095.19999999999,
      "d": 2857.1399999999994,
      "v": 50
    },
    {
      "midi": 54,
      "hit": false,
      "t": 38095.20000000014,
      "d": 79.36499999999796,
      "v": 50
    },
    {
      "midi": 54,
      "hit": false,
      "t": 38214.24750000014,
      "d": 79.36499999999796,
      "v": 50
    },
    {
      "midi": 66,
      "hit": false,
      "t": 38328.334687500006,
      "d": 218.2537500000035,
      "v": 127
    },
    {
      "midi": 37,
      "hit": false,
      "t": 38333.295000000064,
      "d": 79.36499999999796,
      "v": 80
    },
    {
      "midi": 54,
      "hit": false,
      "t": 38333.295000000144,
      "d": 79.36499999999796,
      "v": 50
    },
    {
      "midi": 37,
      "hit": false,
      "t": 38452.342500000064,
      "d": 79.36499999999796,
      "v": 80
    },
    {
      "midi": 54,
      "hit": false,
      "t": 38452.342500000144,
      "d": 79.36499999999796,
      "v": 50
    },
    {
      "midi": 35,
      "hit": false,
      "t": 38571.38999999996,
      "d": 317.4599999999991,
      "v": 100
    },
    {
      "midi": 64,
      "hit": false,
      "t": 38571.39000000001,
      "d": 218.2537500000035,
      "v": 127
    },
    {
      "midi": 45,
      "hit": false,
      "t": 38571.390000000014,
      "d": 158.7300000000032,
      "v": 80
    },
    {
      "midi": 37,
      "hit": false,
      "t": 38571.390000000065,
      "d": 79.36499999999796,
      "v": 80
    },
    {
      "midi": 54,
      "hit": false,
      "t": 38571.390000000145,
      "d": 79.36499999999796,
      "v": 50
    },
    {
      "midi": 37,
      "hit": false,
      "t": 38690.437500000065,
      "d": 79.36499999999796,
      "v": 80
    },
    {
      "midi": 54,
      "hit": false,
      "t": 38690.437500000146,
      "d": 79.36499999999796,
      "v": 50
    },
    {
      "midi": 62,
      "hit": false,
      "t": 38804.52468750001,
      "d": 1979.1646875000006,
      "v": 127
    },
    {
      "midi": 37,
      "hit": false,
      "t": 38804.52468750007,
      "d": 158.7300000000032,
      "v": 80
    },
    {
      "midi": 41,
      "hit": false,
      "t": 38809.485,
      "d": 158.7300000000032,
      "v": 80
    },
    {
      "midi": 54,
      "hit": false,
      "t": 38809.485000000146,
      "d": 79.36499999999796,
      "v": 50
    },
    {
      "midi": 54,
      "hit": false,
      "t": 38928.53250000015,
      "d": 79.36499999999796,
      "v": 50
    },
    {
      "midi": 35,
      "hit": false,
      "t": 39047.579999999965,
      "d": 317.4599999999991,
      "v": 100
    },
    {
      "midi": 37,
      "hit": false,
      "t": 39047.58000000007,
      "d": 158.7300000000032,
      "v": 80
    },
    {
      "midi": 54,
      "hit": false,
      "t": 39047.58000000015,
      "d": 79.36499999999796,
      "v": 50
    },
    {
      "midi": 54,
      "hit": false,
      "t": 39166.62750000015,
      "d": 79.36499999999796,
      "v": 50
    },
    {
      "midi": 81,
      "hit": false,
      "t": 39270.7940625,
      "d": 277.7774999999965,
      "v": 64
    },
    {
      "midi": 48,
      "hit": false,
      "t": 39285.674999999996,
      "d": 158.7300000000032,
      "v": 80
    },
    {
      "midi": 37,
      "hit": false,
      "t": 39285.67500000007,
      "d": 158.7300000000032,
      "v": 80
    },
    {
      "midi": 54,
      "hit": false,
      "t": 39285.67500000015,
      "d": 79.36499999999796,
      "v": 50
    },
    {
      "midi": 54,
      "hit": false,
      "t": 39404.72250000015,
      "d": 79.36499999999796,
      "v": 50
    },
    {
      "midi": 83,
      "hit": false,
      "t": 39479.127187499995,
      "d": 252.97593749999942,
      "v": 64
    },
    {
      "midi": 35,
      "hit": false,
      "t": 39523.76999999997,
      "d": 317.4599999999991,
      "v": 100
    },
    {
      "midi": 45,
      "hit": false,
      "t": 39523.77000000002,
      "d": 158.7300000000032,
      "v": 80
    },
    {
      "midi": 37,
      "hit": false,
      "t": 39523.77000000007,
      "d": 158.7300000000032,
      "v": 80
    },
    {
      "midi": 54,
      "hit": false,
      "t": 39523.77000000015,
      "d": 79.36499999999796,
      "v": 50
    },
    {
      "midi": 54,
      "hit": false,
      "t": 39642.81750000015,
      "d": 79.36499999999796,
      "v": 50
    },
    {
      "midi": 86,
      "hit": false,
      "t": 39707.3015625,
      "d": 203.37281249999796,
      "v": 64
    },
    {
      "midi": 41,
      "hit": false,
      "t": 39761.865000000005,
      "d": 158.7300000000032,
      "v": 80
    },
    {
      "midi": 54,
      "hit": false,
      "t": 39761.86500000015,
      "d": 79.36499999999796,
      "v": 50
    },
    {
      "midi": 54,
      "hit": false,
      "t": 39880.91250000015,
      "d": 79.36499999999796,
      "v": 50
    },
    {
      "midi": 93,
      "hit": false,
      "t": 39940.43624999999,
      "d": 1284.720937500002,
      "v": 64
    },
    {
      "midi": 35,
      "hit": false,
      "t": 39999.95999999997,
      "d": 317.4599999999991,
      "v": 100
    },
    {
      "midi": 54,
      "hit": false,
      "t": 39999.96000000015,
      "d": 79.36499999999796,
      "v": 50
    },
    {
      "midi": 54,
      "hit": false,
      "t": 40119.00750000015,
      "d": 79.36499999999796,
      "v": 50
    },
    {
      "midi": 37,
      "hit": false,
      "t": 40238.05500000007,
      "d": 79.36499999999796,
      "v": 80
    },
    {
      "midi": 54,
      "hit": false,
      "t": 40238.05500000015,
      "d": 79.36499999999796,
      "v": 50
    },
    {
      "midi": 37,
      "hit": false,
      "t": 40357.10250000007,
      "d": 79.36499999999796,
      "v": 80
    },
    {
      "midi": 54,
      "hit": false,
      "t": 40357.102500000154,
      "d": 79.36499999999796,
      "v": 50
    },
    {
      "midi": 35,
      "hit": false,
      "t": 40476.14999999997,
      "d": 317.4599999999991,
      "v": 100
    },
    {
      "midi": 37,
      "hit": false,
      "t": 40476.150000000074,
      "d": 79.36499999999796,
      "v": 80
    },
    {
      "midi": 54,
      "hit": false,
      "t": 40476.150000000154,
      "d": 79.36499999999796,
      "v": 50
    },
    {
      "midi": 37,
      "hit": false,
      "t": 40595.197500000075,
      "d": 79.36499999999796,
      "v": 80
    },
    {
      "midi": 54,
      "hit": false,
      "t": 40595.197500000155,
      "d": 79.36499999999796,
      "v": 50
    },
    {
      "midi": 37,
      "hit": false,
      "t": 40709.284687500076,
      "d": 158.7300000000032,
      "v": 80
    },
    {
      "midi": 54,
      "hit": false,
      "t": 40714.245000000155,
      "d": 79.36499999999796,
      "v": 50
    },
    {
      "midi": 54,
      "hit": false,
      "t": 40833.292500000156,
      "d": 79.36499999999796,
      "v": 50
    },
    {
      "midi": 35,
      "hit": false,
      "t": 40952.339999999975,
      "d": 317.4599999999991,
      "v": 100
    },
    {
      "midi": 62,
      "hit": false,
      "t": 40952.34000000001,
      "d": 218.2537500000035,
      "v": 127
    },
    {
      "midi": 37,
      "hit": false,
      "t": 40952.34000000008,
      "d": 158.7300000000032,
      "v": 80
    },
    {
      "midi": 54,
      "hit": false,
      "t": 40952.34000000016,
      "d": 79.36499999999796,
      "v": 50
    },
    {
      "midi": 54,
      "hit": false,
      "t": 41071.38750000016,
      "d": 79.36499999999796,
      "v": 50
    },
    {
      "midi": 64,
      "hit": false,
      "t": 41185.47468750001,
      "d": 218.2537500000035,
      "v": 127
    },
    {
      "midi": 37,
      "hit": false,
      "t": 41190.43500000008,
      "d": 158.7300000000032,
      "v": 80
    },
    {
      "midi": 54,
      "hit": false,
      "t": 41190.43500000016,
      "d": 79.36499999999796,
      "v": 50
    },
    {
      "midi": 54,
      "hit": false,
      "t": 41309.48250000016,
      "d": 79.36499999999796,
      "v": 50
    },
    {
      "midi": 35,
      "hit": false,
      "t": 41428.52999999998,
      "d": 317.4599999999991,
      "v": 100
    },
    {
      "midi": 66,
      "hit": false,
      "t": 41428.53000000001,
      "d": 218.2537500000035,
      "v": 127
    },
    {
      "midi": 37,
      "hit": false,
      "t": 41428.53000000008,
      "d": 158.7300000000032,
      "v": 80
    },
    {
      "midi": 54,
      "hit": false,
      "t": 41428.53000000016,
      "d": 79.36499999999796,
      "v": 50
    },
    {
      "midi": 54,
      "hit": false,
      "t": 41547.57750000016,
      "d": 79.36499999999796,
      "v": 50
    },
    {
      "midi": 64,
      "hit": false,
      "t": 41661.664687500015,
      "d": 436.5074999999997,
      "v": 127
    },
    {
      "midi": 54,
      "hit": false,
      "t": 41666.62500000016,
      "d": 79.36499999999796,
      "v": 50
    },
    {
      "midi": 54,
      "hit": false,
      "t": 41785.67250000016,
      "d": 79.36499999999796,
      "v": 50
    },
    {
      "midi": 35,
      "hit": false,
      "t": 41904.71999999998,
      "d": 317.4599999999991,
      "v": 100
    },
    {
      "midi": 54,
      "hit": false,
      "t": 41904.72000000016,
      "d": 79.36499999999796,
      "v": 50
    },
    {
      "midi": 54,
      "hit": false,
      "t": 42023.76750000016,
      "d": 79.36499999999796,
      "v": 50
    },
    {
      "midi": 62,
      "hit": false,
      "t": 42137.85468750002,
      "d": 158.7300000000032,
      "v": 127
    },
    {
      "midi": 37,
      "hit": false,
      "t": 42142.81500000008,
      "d": 79.36499999999796,
      "v": 80
    },
    {
      "midi": 54,
      "hit": false,
      "t": 42142.81500000016,
      "d": 79.36499999999796,
      "v": 50
    },
    {
      "midi": 37,
      "hit": false,
      "t": 42261.86250000008,
      "d": 79.36499999999796,
      "v": 80
    },
    {
      "midi": 54,
      "hit": false,
      "t": 42261.86250000016,
      "d": 79.36499999999796,
      "v": 50
    },
    {
      "midi": 35,
      "hit": false,
      "t": 42380.90999999998,
      "d": 317.4599999999991,
      "v": 100
    },
    {
      "midi": 62,
      "hit": false,
      "t": 42380.91000000002,
      "d": 1478.1731250000012,
      "v": 127
    },
    {
      "midi": 37,
      "hit": false,
      "t": 42380.91000000008,
      "d": 79.36499999999796,
      "v": 80
    },
    {
      "midi": 54,
      "hit": false,
      "t": 42380.91000000016,
      "d": 79.36499999999796,
      "v": 50
    },
    {
      "midi": 37,
      "hit": false,
      "t": 42499.957500000084,
      "d": 79.36499999999796,
      "v": 80
    },
    {
      "midi": 54,
      "hit": false,
      "t": 42499.957500000164,
      "d": 79.36499999999796,
      "v": 50
    },
    {
      "midi": 37,
      "hit": false,
      "t": 42614.044687500085,
      "d": 158.7300000000032,
      "v": 80
    },
    {
      "midi": 54,
      "hit": false,
      "t": 42619.005000000165,
      "d": 79.36499999999796,
      "v": 50
    },
    {
      "midi": 54,
      "hit": false,
      "t": 42738.052500000165,
      "d": 79.36499999999796,
      "v": 50
    },
    {
      "midi": 35,
      "hit": false,
      "t": 42857.099999999984,
      "d": 317.4599999999991,
      "v": 100
    },
    {
      "midi": 37,
      "hit": false,
      "t": 42857.100000000086,
      "d": 158.7300000000032,
      "v": 80
    },
    {
      "midi": 54,
      "hit": false,
      "t": 42857.100000000166,
      "d": 79.36499999999796,
      "v": 50
    },
    {
      "midi": 54,
      "hit": false,
      "t": 42976.14750000017,
      "d": 79.36499999999796,
      "v": 50
    },
    {
      "midi": 86,
      "hit": false,
      "t": 43085.27437499999,
      "d": 277.7775000000038,
      "v": 64
    },
    {
      "midi": 48,
      "hit": false,
      "t": 43095.195,
      "d": 158.7300000000032,
      "v": 80
    },
    {
      "midi": 37,
      "hit": false,
      "t": 43095.19500000009,
      "d": 158.7300000000032,
      "v": 80
    },
    {
      "midi": 54,
      "hit": false,
      "t": 43095.19500000017,
      "d": 79.36499999999796,
      "v": 50
    },
    {
      "midi": 54,
      "hit": false,
      "t": 43214.24250000017,
      "d": 79.36499999999796,
      "v": 50
    },
    {
      "midi": 83,
      "hit": false,
      "t": 43313.448749999996,
      "d": 238.09500000000116,
      "v": 64
    },
    {
      "midi": 35,
      "hit": false,
      "t": 43333.289999999986,
      "d": 317.4599999999991,
      "v": 100
    },
    {
      "midi": 45,
      "hit": false,
      "t": 43333.29000000002,
      "d": 158.7300000000032,
      "v": 80
    },
    {
      "midi": 37,
      "hit": false,
      "t": 43333.29000000009,
      "d": 158.7300000000032,
      "v": 80
    },
    {
      "midi": 54,
      "hit": false,
      "t": 43333.29000000017,
      "d": 79.36499999999796,
      "v": 50
    },
    {
      "midi": 54,
      "hit": false,
      "t": 43452.33750000017,
      "d": 79.36499999999796,
      "v": 50
    },
    {
      "midi": 93,
      "hit": false,
      "t": 43561.464374999996,
      "d": 1423.6096875000003,
      "v": 64
    },
    {
      "midi": 41,
      "hit": false,
      "t": 43571.38500000001,
      "d": 158.7300000000032,
      "v": 80
    },
    {
      "midi": 54,
      "hit": false,
      "t": 43571.38500000017,
      "d": 79.36499999999796,
      "v": 50
    },
    {
      "midi": 54,
      "hit": false,
      "t": 43690.43250000017,
      "d": 79.36499999999796,
      "v": 50
    },
    {
      "midi": 35,
      "hit": false,
      "t": 43809.47999999999,
      "d": 317.4599999999991,
      "v": 100
    },
    {
      "midi": 54,
      "hit": false,
      "t": 43809.48000000017,
      "d": 79.36499999999796,
      "v": 50
    },
    {
      "midi": 54,
      "hit": false,
      "t": 43928.52750000017,
      "d": 79.36499999999796,
      "v": 50
    },
    {
      "midi": 69,
      "hit": false,
      "t": 44042.61468750002,
      "d": 218.2537500000035,
      "v": 127
    },
    {
      "midi": 37,
      "hit": false,
      "t": 44047.57500000009,
      "d": 79.36499999999796,
      "v": 80
    },
    {
      "midi": 54,
      "hit": false,
      "t": 44047.57500000017,
      "d": 79.36499999999796,
      "v": 50
    },
    {
      "midi": 37,
      "hit": false,
      "t": 44166.62250000009,
      "d": 79.36499999999796,
      "v": 80
    },
    {
      "midi": 54,
      "hit": false,
      "t": 44166.62250000017,
      "d": 79.36499999999796,
      "v": 50
    },
    {
      "midi": 35,
      "hit": false,
      "t": 44285.66999999999,
      "d": 317.4599999999991,
      "v": 100
    },
    {
      "midi": 37,
      "hit": false,
      "t": 44285.67000000009,
      "d": 79.36499999999796,
      "v": 80
    },
    {
      "midi": 54,
      "hit": false,
      "t": 44285.67000000017,
      "d": 79.36499999999796,
      "v": 50
    },
    {
      "midi": 37,
      "hit": false,
      "t": 44404.71750000009,
      "d": 79.36499999999796,
      "v": 80
    },
    {
      "midi": 54,
      "hit": false,
      "t": 44404.71750000017,
      "d": 79.36499999999796,
      "v": 50
    },
    {
      "midi": 69,
      "hit": false,
      "t": 44518.80468750002,
      "d": 158.7300000000032,
      "v": 127
    },
    {
      "midi": 37,
      "hit": false,
      "t": 44518.804687500095,
      "d": 158.7300000000032,
      "v": 80
    },
    {
      "midi": 54,
      "hit": false,
      "t": 44523.765000000174,
      "d": 79.36499999999796,
      "v": 50
    },
    {
      "midi": 54,
      "hit": false,
      "t": 44642.812500000175,
      "d": 79.36499999999796,
      "v": 50
    },
    {
      "midi": 35,
      "hit": false,
      "t": 44761.85999999999,
      "d": 317.4599999999991,
      "v": 100
    },
    {
      "midi": 37,
      "hit": false,
      "t": 44761.860000000095,
      "d": 158.7300000000032,
      "v": 80
    },
    {
      "midi": 54,
      "hit": false,
      "t": 44761.860000000175,
      "d": 79.36499999999796,
      "v": 50
    },
    {
      "midi": 69,
      "hit": false,
      "t": 44786.66156250003,
      "d": 312.4996874999997,
      "v": 127
    },
    {
      "midi": 54,
      "hit": false,
      "t": 44880.907500000176,
      "d": 79.36499999999796,
      "v": 50
    },
    {
      "midi": 37,
      "hit": false,
      "t": 44999.955000000096,
      "d": 158.7300000000032,
      "v": 80
    },
    {
      "midi": 54,
      "hit": false,
      "t": 44999.95500000018,
      "d": 79.36499999999796,
      "v": 50
    },
    {
      "midi": 54,
      "hit": false,
      "t": 45119.00250000018,
      "d": 79.36499999999796,
      "v": 50
    },
    {
      "midi": 71,
      "hit": false,
      "t": 45143.80406250003,
      "d": 213.2934374999968,
      "v": 127
    },
    {
      "midi": 35,
      "hit": false,
      "t": 45238.049999999996,
      "d": 317.4599999999991,
      "v": 100
    },
    {
      "midi": 37,
      "hit": false,
      "t": 45238.0500000001,
      "d": 158.7300000000032,
      "v": 80
    },
    {
      "midi": 54,
      "hit": false,
      "t": 45238.05000000018,
      "d": 79.36499999999796,
      "v": 50
    },
    {
      "midi": 54,
      "hit": false,
      "t": 45357.09750000018,
      "d": 79.36499999999796,
      "v": 50
    },
    {
      "midi": 62,
      "hit": false,
      "t": 45471.18468750003,
      "d": 2058.5296874999985,
      "v": 127
    },
    {
      "midi": 54,
      "hit": false,
      "t": 45476.14500000018,
      "d": 79.36499999999796,
      "v": 50
    },
    {
      "midi": 54,
      "hit": false,
      "t": 45595.19250000018,
      "d": 79.36499999999796,
      "v": 50
    },
    {
      "midi": 64,
      "hit": false,
      "t": 45714.23999999999,
      "d": 947.419687499998,
      "v": 50
    },
    {
      "midi": 35,
      "hit": false,
      "t": 45714.24,
      "d": 317.4599999999991,
      "v": 100
    },
    {
      "midi": 54,
      "hit": false,
      "t": 45714.24000000018,
      "d": 79.36499999999796,
      "v": 50
    },
    {
      "midi": 54,
      "hit": false,
      "t": 45833.28750000018,
      "d": 79.36499999999796,
      "v": 50
    },
    {
      "midi": 48,
      "hit": false,
      "t": 45952.33500000001,
      "d": 158.7300000000032,
      "v": 80
    },
    {
      "midi": 37,
      "hit": false,
      "t": 45952.3350000001,
      "d": 79.36499999999796,
      "v": 80
    },
    {
      "midi": 54,
      "hit": false,
      "t": 45952.33500000018,
      "d": 79.36499999999796,
      "v": 50
    },
    {
      "midi": 37,
      "hit": false,
      "t": 46071.3825000001,
      "d": 79.36499999999796,
      "v": 80
    },
    {
      "midi": 54,
      "hit": false,
      "t": 46071.38250000018,
      "d": 79.36499999999796,
      "v": 50
    },
    {
      "midi": 35,
      "hit": false,
      "t": 46190.43,
      "d": 317.4599999999991,
      "v": 100
    },
    {
      "midi": 41,
      "hit": false,
      "t": 46190.430000000015,
      "d": 158.7300000000032,
      "v": 80
    },
    {
      "midi": 37,
      "hit": false,
      "t": 46190.4300000001,
      "d": 79.36499999999796,
      "v": 80
    },
    {
      "midi": 54,
      "hit": false,
      "t": 46190.43000000018,
      "d": 79.36499999999796,
      "v": 50
    },
    {
      "midi": 37,
      "hit": false,
      "t": 46309.4775000001,
      "d": 79.36499999999796,
      "v": 80
    },
    {
      "midi": 54,
      "hit": false,
      "t": 46309.47750000018,
      "d": 79.36499999999796,
      "v": 50
    },
    {
      "midi": 37,
      "hit": false,
      "t": 46423.564687500104,
      "d": 158.7300000000032,
      "v": 80
    },
    {
      "midi": 54,
      "hit": false,
      "t": 46428.52500000018,
      "d": 79.36499999999796,
      "v": 50
    },
    {
      "midi": 54,
      "hit": false,
      "t": 46547.572500000184,
      "d": 79.36499999999796,
      "v": 50
    },
    {
      "midi": 62,
      "hit": false,
      "t": 46666.61999999999,
      "d": 947.419687499998,
      "v": 50
    },
    {
      "midi": 35,
      "hit": false,
      "t": 46666.62,
      "d": 317.4599999999991,
      "v": 100
    },
    {
      "midi": 48,
      "hit": false,
      "t": 46666.62000000001,
      "d": 79.36499999999796,
      "v": 80
    },
    {
      "midi": 37,
      "hit": false,
      "t": 46666.620000000104,
      "d": 158.7300000000032,
      "v": 80
    },
    {
      "midi": 54,
      "hit": false,
      "t": 46666.620000000185,
      "d": 79.36499999999796,
      "v": 50
    },
    {
      "midi": 48,
      "hit": false,
      "t": 46785.66750000001,
      "d": 79.36499999999796,
      "v": 80
    },
    {
      "midi": 54,
      "hit": false,
      "t": 46785.667500000185,
      "d": 79.36499999999796,
      "v": 50
    },
    {
      "midi": 45,
      "hit": false,
      "t": 46904.715000000026,
      "d": 158.7300000000032,
      "v": 80
    },
    {
      "midi": 37,
      "hit": false,
      "t": 46904.715000000106,
      "d": 158.7300000000032,
      "v": 80
    },
    {
      "midi": 54,
      "hit": false,
      "t": 46904.715000000186,
      "d": 79.36499999999796,
      "v": 50
    },
    {
      "midi": 54,
      "hit": false,
      "t": 47023.762500000186,
      "d": 79.36499999999796,
      "v": 50
    },
    {
      "midi": 35,
      "hit": false,
      "t": 47142.810000000005,
      "d": 317.4599999999991,
      "v": 100
    },
    {
      "midi": 41,
      "hit": false,
      "t": 47142.81000000002,
      "d": 158.7300000000032,
      "v": 80
    },
    {
      "midi": 37,
      "hit": false,
      "t": 47142.81000000011,
      "d": 158.7300000000032,
      "v": 80
    },
    {
      "midi": 54,
      "hit": false,
      "t": 47142.81000000019,
      "d": 79.36499999999796,
      "v": 50
    },
    {
      "midi": 54,
      "hit": false,
      "t": 47261.85750000019,
      "d": 79.36499999999796,
      "v": 50
    },
    {
      "midi": 41,
      "hit": false,
      "t": 47380.90500000002,
      "d": 158.7300000000032,
      "v": 80
    },
    {
      "midi": 54,
      "hit": false,
      "t": 47380.90500000019,
      "d": 79.36499999999796,
      "v": 50
    },
    {
      "midi": 54,
      "hit": false,
      "t": 47499.95250000019,
      "d": 79.36499999999796,
      "v": 50
    },
    {
      "midi": 86,
      "hit": false,
      "t": 47579.3175,
      "d": 520.8328124999971,
      "v": 64
    },
    {
      "midi": 35,
      "hit": false,
      "t": 47619.00000000001,
      "d": 317.4599999999991,
      "v": 100
    },
    {
      "midi": 54,
      "hit": false,
      "t": 47619.00000000019,
      "d": 79.36499999999796,
      "v": 50
    },
    {
      "midi": 54,
      "hit": false,
      "t": 47738.04750000019,
      "d": 79.36499999999796,
      "v": 50
    },
    {
      "midi": 37,
      "hit": false,
      "t": 47857.09500000011,
      "d": 79.36499999999796,
      "v": 80
    },
    {
      "midi": 54,
      "hit": false,
      "t": 47857.09500000019,
      "d": 79.36499999999796,
      "v": 50
    },
    {
      "midi": 37,
      "hit": false,
      "t": 47976.14250000011,
      "d": 79.36499999999796,
      "v": 80
    },
    {
      "midi": 54,
      "hit": false,
      "t": 47976.14250000019,
      "d": 79.36499999999796,
      "v": 50
    },
    {
      "midi": 83,
      "hit": false,
      "t": 48085.269374999996,
      "d": 535.7137500000026,
      "v": 64
    },
    {
      "midi": 35,
      "hit": false,
      "t": 48095.19000000001,
      "d": 317.4599999999991,
      "v": 100
    },
    {
      "midi": 37,
      "hit": false,
      "t": 48095.19000000011,
      "d": 79.36499999999796,
      "v": 80
    },
    {
      "midi": 54,
      "hit": false,
      "t": 48095.19000000019,
      "d": 79.36499999999796,
      "v": 50
    },
    {
      "midi": 37,
      "hit": false,
      "t": 48214.23750000011,
      "d": 79.36499999999796,
      "v": 80
    },
    {
      "midi": 54,
      "hit": false,
      "t": 48214.23750000019,
      "d": 79.36499999999796,
      "v": 50
    },
    {
      "midi": 37,
      "hit": false,
      "t": 48328.32468750011,
      "d": 158.7300000000032,
      "v": 80
    },
    {
      "midi": 54,
      "hit": false,
      "t": 48333.28500000019,
      "d": 79.36499999999796,
      "v": 50
    },
    {
      "midi": 54,
      "hit": false,
      "t": 48452.33250000019,
      "d": 79.36499999999796,
      "v": 50
    },
    {
      "midi": 35,
      "hit": false,
      "t": 48571.38000000001,
      "d": 317.4599999999991,
      "v": 100
    },
    {
      "midi": 37,
      "hit": false,
      "t": 48571.380000000114,
      "d": 158.7300000000032,
      "v": 80
    },
    {
      "midi": 54,
      "hit": false,
      "t": 48571.380000000194,
      "d": 79.36499999999796,
      "v": 50
    },
    {
      "midi": 79,
      "hit": false,
      "t": 48576.3403125,
      "d": 481.15031250000175,
      "v": 64
    },
    {
      "midi": 54,
      "hit": false,
      "t": 48690.427500000194,
      "d": 79.36499999999796,
      "v": 50
    },
    {
      "midi": 37,
      "hit": false,
      "t": 48809.475000000115,
      "d": 158.7300000000032,
      "v": 80
    },
    {
      "midi": 54,
      "hit": false,
      "t": 48809.475000000195,
      "d": 79.36499999999796,
      "v": 50
    },
    {
      "midi": 54,
      "hit": false,
      "t": 48928.522500000196,
      "d": 79.36499999999796,
      "v": 50
    },
    {
      "midi": 35,
      "hit": false,
      "t": 49047.570000000014,
      "d": 317.4599999999991,
      "v": 100
    },
    {
      "midi": 37,
      "hit": false,
      "t": 49047.570000000116,
      "d": 158.7300000000032,
      "v": 80
    },
    {
      "midi": 54,
      "hit": false,
      "t": 49047.570000000196,
      "d": 79.36499999999796,
      "v": 50
    },
    {
      "midi": 76,
      "hit": false,
      "t": 49057.490625,
      "d": 436.5074999999997,
      "v": 64
    },
    {
      "midi": 54,
      "hit": false,
      "t": 49166.6175000002,
      "d": 79.36499999999796,
      "v": 50
    },
    {
      "midi": 54,
      "hit": false,
      "t": 49285.6650000002,
      "d": 79.36499999999796,
      "v": 50
    },
    {
      "midi": 54,
      "hit": false,
      "t": 49404.7125000002,
      "d": 79.36499999999796,
      "v": 50
    },
    {
      "midi": 35,
      "hit": false,
      "t": 49523.76000000002,
      "d": 317.4599999999991,
      "v": 100
    },
    {
      "midi": 54,
      "hit": false,
      "t": 49523.7600000002,
      "d": 79.36499999999796,
      "v": 50
    },
    {
      "midi": 81,
      "hit": false,
      "t": 49533.680625,
      "d": 1532.736562500002,
      "v": 64
    },
    {
      "midi": 54,
      "hit": false,
      "t": 49642.8075000002,
      "d": 79.36499999999796,
      "v": 50
    },
    {
      "midi": 37,
      "hit": false,
      "t": 49761.85500000012,
      "d": 79.36499999999796,
      "v": 80
    },
    {
      "midi": 54,
      "hit": false,
      "t": 49761.8550000002,
      "d": 79.36499999999796,
      "v": 50
    },
    {
      "midi": 37,
      "hit": false,
      "t": 49880.90250000012,
      "d": 79.36499999999796,
      "v": 80
    },
    {
      "midi": 54,
      "hit": false,
      "t": 49880.9025000002,
      "d": 79.36499999999796,
      "v": 50
    },
    {
      "midi": 35,
      "hit": false,
      "t": 49999.95000000002,
      "d": 317.4599999999991,
      "v": 100
    },
    {
      "midi": 37,
      "hit": false,
      "t": 49999.95000000012,
      "d": 79.36499999999796,
      "v": 80
    },
    {
      "midi": 54,
      "hit": false,
      "t": 49999.9500000002,
      "d": 79.36499999999796,
      "v": 50
    },
    {
      "midi": 37,
      "hit": false,
      "t": 50118.99750000012,
      "d": 79.36499999999796,
      "v": 80
    },
    {
      "midi": 54,
      "hit": false,
      "t": 50118.9975000002,
      "d": 79.36499999999796,
      "v": 50
    },
    {
      "midi": 37,
      "hit": false,
      "t": 50233.08468750012,
      "d": 158.7300000000032,
      "v": 80
    },
    {
      "midi": 54,
      "hit": false,
      "t": 50238.0450000002,
      "d": 79.36499999999796,
      "v": 50
    },
    {
      "midi": 54,
      "hit": false,
      "t": 50357.0925000002,
      "d": 79.36499999999796,
      "v": 50
    },
    {
      "midi": 35,
      "hit": false,
      "t": 50476.14000000002,
      "d": 317.4599999999991,
      "v": 100
    },
    {
      "midi": 37,
      "hit": false,
      "t": 50476.14000000012,
      "d": 158.7300000000032,
      "v": 80
    },
    {
      "midi": 54,
      "hit": false,
      "t": 50476.1400000002,
      "d": 79.36499999999796,
      "v": 50
    },
    {
      "midi": 54,
      "hit": false,
      "t": 50595.187500000204,
      "d": 79.36499999999796,
      "v": 50
    },
    {
      "midi": 37,
      "hit": false,
      "t": 50714.235000000124,
      "d": 158.7300000000032,
      "v": 80
    },
    {
      "midi": 54,
      "hit": false,
      "t": 50714.235000000204,
      "d": 79.36499999999796,
      "v": 50
    },
    {
      "midi": 54,
      "hit": false,
      "t": 50833.282500000205,
      "d": 79.36499999999796,
      "v": 50
    },
    {
      "midi": 35,
      "hit": false,
      "t": 50952.33000000002,
      "d": 317.4599999999991,
      "v": 100
    },
    {
      "midi": 37,
      "hit": false,
      "t": 50952.330000000125,
      "d": 158.7300000000032,
      "v": 80
    },
    {
      "midi": 54,
      "hit": false,
      "t": 50952.330000000205,
      "d": 79.36499999999796,
      "v": 50
    },
    {
      "midi": 54,
      "hit": false,
      "t": 51071.377500000206,
      "d": 79.36499999999796,
      "v": 50
    },
    {
      "midi": 54,
      "hit": false,
      "t": 51190.42500000021,
      "d": 79.36499999999796,
      "v": 50
    },
    {
      "midi": 54,
      "hit": false,
      "t": 51309.47250000021,
      "d": 79.36499999999796,
      "v": 50
    },
    {
      "midi": 86,
      "hit": false,
      "t": 51398.758125,
      "d": 545.6343750000015,
      "v": 64
    },
    {
      "midi": 35,
      "hit": false,
      "t": 51428.520000000026,
      "d": 317.4599999999991,
      "v": 100
    },
    {
      "midi": 54,
      "hit": false,
      "t": 51428.52000000021,
      "d": 79.36499999999796,
      "v": 50
    },
    {
      "midi": 54,
      "hit": false,
      "t": 51547.56750000021,
      "d": 79.36499999999796,
      "v": 50
    },
    {
      "midi": 37,
      "hit": false,
      "t": 51666.61500000013,
      "d": 79.36499999999796,
      "v": 80
    },
    {
      "midi": 54,
      "hit": false,
      "t": 51666.61500000021,
      "d": 79.36499999999796,
      "v": 50
    },
    {
      "midi": 37,
      "hit": false,
      "t": 51785.66250000013,
      "d": 79.36499999999796,
      "v": 80
    },
    {
      "midi": 54,
      "hit": false,
      "t": 51785.66250000021,
      "d": 79.36499999999796,
      "v": 50
    },
    {
      "midi": 83,
      "hit": false,
      "t": 51899.7496875,
      "d": 505.95187499999884,
      "v": 64
    },
    {
      "midi": 35,
      "hit": false,
      "t": 51904.71000000003,
      "d": 317.4599999999991,
      "v": 100
    },
    {
      "midi": 37,
      "hit": false,
      "t": 51904.71000000013,
      "d": 79.36499999999796,
      "v": 80
    },
    {
      "midi": 54,
      "hit": false,
      "t": 51904.71000000021,
      "d": 79.36499999999796,
      "v": 50
    },
    {
      "midi": 37,
      "hit": false,
      "t": 52023.75750000013,
      "d": 79.36499999999796,
      "v": 80
    },
    {
      "midi": 54,
      "hit": false,
      "t": 52023.75750000021,
      "d": 79.36499999999796,
      "v": 50
    },
    {
      "midi": 37,
      "hit": false,
      "t": 52137.84468750013,
      "d": 158.7300000000032,
      "v": 80
    },
    {
      "midi": 54,
      "hit": false,
      "t": 52142.80500000021,
      "d": 79.36499999999796,
      "v": 50
    },
    {
      "midi": 54,
      "hit": false,
      "t": 52261.85250000021,
      "d": 79.36499999999796,
      "v": 50
    },
    {
      "midi": 79,
      "hit": false,
      "t": 52375.9396875,
      "d": 505.95187499999884,
      "v": 64
    },
    {
      "midi": 35,
      "hit": false,
      "t": 52380.90000000003,
      "d": 317.4599999999991,
      "v": 100
    },
    {
      "midi": 37,
      "hit": false,
      "t": 52380.90000000013,
      "d": 158.7300000000032,
      "v": 80
    },
    {
      "midi": 54,
      "hit": false,
      "t": 52380.90000000021,
      "d": 79.36499999999796,
      "v": 50
    },
    {
      "midi": 54,
      "hit": false,
      "t": 52499.94750000021,
      "d": 79.36499999999796,
      "v": 50
    },
    {
      "midi": 37,
      "hit": false,
      "t": 52618.99500000013,
      "d": 158.7300000000032,
      "v": 80
    },
    {
      "midi": 54,
      "hit": false,
      "t": 52618.99500000021,
      "d": 79.36499999999796,
      "v": 50
    },
    {
      "midi": 54,
      "hit": false,
      "t": 52738.042500000214,
      "d": 79.36499999999796,
      "v": 50
    },
    {
      "midi": 35,
      "hit": false,
      "t": 52857.09000000003,
      "d": 317.4599999999991,
      "v": 100
    },
    {
      "midi": 37,
      "hit": false,
      "t": 52857.090000000135,
      "d": 158.7300000000032,
      "v": 80
    },
    {
      "midi": 54,
      "hit": false,
      "t": 52857.090000000215,
      "d": 79.36499999999796,
      "v": 50
    },
    {
      "midi": 76,
      "hit": false,
      "t": 52886.851875,
      "d": 327.38062499999796,
      "v": 64
    },
    {
      "midi": 54,
      "hit": false,
      "t": 52976.137500000215,
      "d": 79.36499999999796,
      "v": 50
    },
    {
      "midi": 54,
      "hit": false,
      "t": 53095.185000000216,
      "d": 79.36499999999796,
      "v": 50
    },
    {
      "midi": 54,
      "hit": false,
      "t": 53214.23250000022,
      "d": 79.36499999999796,
      "v": 50
    },
    {
      "midi": 81,
      "hit": false,
      "t": 53333.28,
      "d": 476.1900000000023,
      "v": 64
    },
    {
      "midi": 35,
      "hit": false,
      "t": 53333.280000000035,
      "d": 317.4599999999991,
      "v": 100
    },
    {
      "midi": 54,
      "hit": false,
      "t": 53333.28000000022,
      "d": 79.36499999999796,
      "v": 50
    },
    {
      "midi": 76,
      "hit": false,
      "t": 53338.2403125,
      "d": 138.88874999999825,
      "v": 64
    },
    {
      "midi": 76,
      "hit": false,
      "t": 53338.2403125,
      "d": 138.88874999999825,
      "v": 64
    },
    {
      "midi": 54,
      "hit": false,
      "t": 53452.32750000022,
      "d": 79.36499999999796,
      "v": 50
    },
    {
      "midi": 78,
      "hit": false,
      "t": 53571.375,
      "d": 168.65062500000204,
      "v": 64
    },
    {
      "midi": 78,
      "hit": false,
      "t": 53571.375,
      "d": 168.65062500000204,
      "v": 64
    },
    {
      "midi": 37,
      "hit": false,
      "t": 53571.37500000014,
      "d": 79.36499999999796,
      "v": 80
    },
    {
      "midi": 54,
      "hit": false,
      "t": 53571.37500000022,
      "d": 79.36499999999796,
      "v": 50
    },
    {
      "midi": 37,
      "hit": false,
      "t": 53690.42250000014,
      "d": 79.36499999999796,
      "v": 80
    },
    {
      "midi": 54,
      "hit": false,
      "t": 53690.42250000022,
      "d": 79.36499999999796,
      "v": 50
    },
    {
      "midi": 35,
      "hit": false,
      "t": 53809.47000000004,
      "d": 317.4599999999991,
      "v": 100
    },
    {
      "midi": 37,
      "hit": false,
      "t": 53809.47000000014,
      "d": 79.36499999999796,
      "v": 80
    },
    {
      "midi": 54,
      "hit": false,
      "t": 53809.47000000022,
      "d": 79.36499999999796,
      "v": 50
    },
    {
      "midi": 81,
      "hit": false,
      "t": 53834.271562500006,
      "d": 114.08718750000116,
      "v": 64
    },
    {
      "midi": 81,
      "hit": false,
      "t": 53834.271562500006,
      "d": 114.08718750000116,
      "v": 64
    },
    {
      "midi": 37,
      "hit": false,
      "t": 53928.51750000014,
      "d": 79.36499999999796,
      "v": 80
    },
    {
      "midi": 54,
      "hit": false,
      "t": 53928.51750000022,
      "d": 79.36499999999796,
      "v": 50
    },
    {
      "midi": 37,
      "hit": false,
      "t": 54042.60468750014,
      "d": 158.7300000000032,
      "v": 80
    },
    {
      "midi": 54,
      "hit": false,
      "t": 54047.56500000022,
      "d": 79.36499999999796,
      "v": 50
    },
    {
      "midi": 54,
      "hit": false,
      "t": 54166.61250000022,
      "d": 79.36499999999796,
      "v": 50
    },
    {
      "midi": 81,
      "hit": false,
      "t": 54265.818750000006,
      "d": 114.08718750000116,
      "v": 64
    },
    {
      "midi": 81,
      "hit": false,
      "t": 54265.818750000006,
      "d": 114.08718750000116,
      "v": 64
    },
    {
      "midi": 35,
      "hit": false,
      "t": 54285.66000000004,
      "d": 317.4599999999991,
      "v": 100
    },
    {
      "midi": 37,
      "hit": false,
      "t": 54285.66000000014,
      "d": 158.7300000000032,
      "v": 80
    },
    {
      "midi": 54,
      "hit": false,
      "t": 54285.66000000022,
      "d": 79.36499999999796,
      "v": 50
    },
    {
      "midi": 54,
      "hit": false,
      "t": 54404.70750000022,
      "d": 79.36499999999796,
      "v": 50
    },
    {
      "midi": 37,
      "hit": false,
      "t": 54523.75500000014,
      "d": 158.7300000000032,
      "v": 80
    },
    {
      "midi": 54,
      "hit": false,
      "t": 54523.75500000022,
      "d": 79.36499999999796,
      "v": 50
    },
    {
      "midi": 81,
      "hit": false,
      "t": 54627.92156250001,
      "d": 218.2537500000035,
      "v": 64
    },
    {
      "midi": 81,
      "hit": false,
      "t": 54627.92156250001,
      "d": 218.2537500000035,
      "v": 64
    },
    {
      "midi": 54,
      "hit": false,
      "t": 54642.80250000022,
      "d": 79.36499999999796,
      "v": 50
    },
    {
      "midi": 35,
      "hit": false,
      "t": 54761.85000000004,
      "d": 317.4599999999991,
      "v": 100
    },
    {
      "midi": 37,
      "hit": false,
      "t": 54761.850000000144,
      "d": 158.7300000000032,
      "v": 80
    },
    {
      "midi": 54,
      "hit": false,
      "t": 54761.850000000224,
      "d": 79.36499999999796,
      "v": 50
    },
    {
      "midi": 54,
      "hit": false,
      "t": 54880.897500000225,
      "d": 79.36499999999796,
      "v": 50
    },
    {
      "midi": 66,
      "hit": false,
      "t": 54994.98468750002,
      "d": 218.2537500000035,
      "v": 127
    },
    {
      "midi": 54,
      "hit": false,
      "t": 54999.945000000225,
      "d": 79.36499999999796,
      "v": 50
    },
    {
      "midi": 54,
      "hit": false,
      "t": 55118.992500000226,
      "d": 79.36499999999796,
      "v": 50
    },
    {
      "midi": 62,
      "hit": false,
      "t": 55238.04000000002,
      "d": 912.697500000002,
      "v": 127
    },
    {
      "midi": 35,
      "hit": false,
      "t": 55238.040000000045,
      "d": 317.4599999999991,
      "v": 100
    },
    {
      "midi": 54,
      "hit": false,
      "t": 55238.04000000023,
      "d": 79.36499999999796,
      "v": 50
    },
    {
      "midi": 54,
      "hit": false,
      "t": 55357.08750000023,
      "d": 79.36499999999796,
      "v": 50
    },
    {
      "midi": 37,
      "hit": false,
      "t": 55476.13500000015,
      "d": 79.36499999999796,
      "v": 80
    },
    {
      "midi": 54,
      "hit": false,
      "t": 55476.13500000023,
      "d": 79.36499999999796,
      "v": 50
    },
    {
      "midi": 37,
      "hit": false,
      "t": 55595.18250000015,
      "d": 79.36499999999796,
      "v": 80
    },
    {
      "midi": 54,
      "hit": false,
      "t": 55595.18250000023,
      "d": 79.36499999999796,
      "v": 50
    },
    {
      "midi": 74,
      "hit": false,
      "t": 55714.229999999996,
      "d": 1249.9987499999988,
      "v": 64
    },
    {
      "midi": 35,
      "hit": false,
      "t": 55714.23000000005,
      "d": 317.4599999999991,
      "v": 100
    },
    {
      "midi": 37,
      "hit": false,
      "t": 55714.23000000015,
      "d": 79.36499999999796,
      "v": 80
    },
    {
      "midi": 54,
      "hit": false,
      "t": 55714.23000000023,
      "d": 79.36499999999796,
      "v": 50
    },
    {
      "midi": 37,
      "hit": false,
      "t": 55833.27750000015,
      "d": 79.36499999999796,
      "v": 80
    },
    {
      "midi": 54,
      "hit": false,
      "t": 55833.27750000023,
      "d": 79.36499999999796,
      "v": 50
    },
    {
      "midi": 37,
      "hit": false,
      "t": 55947.36468750015,
      "d": 158.7300000000032,
      "v": 80
    },
    {
      "midi": 54,
      "hit": false,
      "t": 55952.32500000023,
      "d": 79.36499999999796,
      "v": 50
    },
    {
      "midi": 54,
      "hit": false,
      "t": 56071.37250000023,
      "d": 79.36499999999796,
      "v": 50
    },
    {
      "midi": 66,
      "hit": false,
      "t": 56190.42000000003,
      "d": 218.2537500000035,
      "v": 127
    },
    {
      "midi": 35,
      "hit": false,
      "t": 56190.42000000005,
      "d": 317.4599999999991,
      "v": 100
    },
    {
      "midi": 37,
      "hit": false,
      "t": 56190.42000000015,
      "d": 158.7300000000032,
      "v": 80
    },
    {
      "midi": 54,
      "hit": false,
      "t": 56190.42000000023,
      "d": 79.36499999999796,
      "v": 50
    },
    {
      "midi": 54,
      "hit": false,
      "t": 56309.46750000023,
      "d": 79.36499999999796,
      "v": 50
    },
    {
      "midi": 69,
      "hit": false,
      "t": 56423.55468750003,
      "d": 218.2537500000035,
      "v": 127
    },
    {
      "midi": 37,
      "hit": false,
      "t": 56428.51500000015,
      "d": 158.7300000000032,
      "v": 80
    },
    {
      "midi": 54,
      "hit": false,
      "t": 56428.51500000023,
      "d": 79.36499999999796,
      "v": 50
    },
    {
      "midi": 54,
      "hit": false,
      "t": 56547.56250000023,
      "d": 79.36499999999796,
      "v": 50
    },
    {
      "midi": 66,
      "hit": false,
      "t": 56666.61000000003,
      "d": 218.2537500000035,
      "v": 127
    },
    {
      "midi": 35,
      "hit": false,
      "t": 56666.61000000005,
      "d": 317.4599999999991,
      "v": 100
    },
    {
      "midi": 37,
      "hit": false,
      "t": 56666.61000000015,
      "d": 158.7300000000032,
      "v": 80
    },
    {
      "midi": 54,
      "hit": false,
      "t": 56666.61000000023,
      "d": 79.36499999999796,
      "v": 50
    },
    {
      "midi": 54,
      "hit": false,
      "t": 56785.657500000234,
      "d": 79.36499999999796,
      "v": 50
    },
    {
      "midi": 64,
      "hit": false,
      "t": 56899.74468750003,
      "d": 2003.9662499999977,
      "v": 127
    },
    {
      "midi": 54,
      "hit": false,
      "t": 56904.705000000235,
      "d": 79.36499999999796,
      "v": 50
    },
    {
      "midi": 69,
      "hit": false,
      "t": 56959.268437499995,
      "d": 342.2615624999962,
      "v": 64
    },
    {
      "midi": 54,
      "hit": false,
      "t": 57023.752500000235,
      "d": 79.36499999999796,
      "v": 50
    },
    {
      "midi": 35,
      "hit": false,
      "t": 57142.800000000054,
      "d": 317.4599999999991,
      "v": 100
    },
    {
      "midi": 54,
      "hit": false,
      "t": 57142.800000000236,
      "d": 79.36499999999796,
      "v": 50
    },
    {
      "midi": 54,
      "hit": false,
      "t": 57261.847500000236,
      "d": 79.36499999999796,
      "v": 50
    },
    {
      "midi": 37,
      "hit": false,
      "t": 57380.89500000016,
      "d": 79.36499999999796,
      "v": 80
    },
    {
      "midi": 54,
      "hit": false,
      "t": 57380.89500000024,
      "d": 79.36499999999796,
      "v": 50
    },
    {
      "midi": 76,
      "hit": false,
      "t": 57385.85531249999,
      "d": 297.61875000000146,
      "v": 64
    },
    {
      "midi": 37,
      "hit": false,
      "t": 57499.94250000016,
      "d": 79.36499999999796,
      "v": 80
    },
    {
      "midi": 54,
      "hit": false,
      "t": 57499.94250000024,
      "d": 79.36499999999796,
      "v": 50
    },
    {
      "midi": 35,
      "hit": false,
      "t": 57618.990000000056,
      "d": 317.4599999999991,
      "v": 100
    },
    {
      "midi": 37,
      "hit": false,
      "t": 57618.99000000016,
      "d": 79.36499999999796,
      "v": 80
    },
    {
      "midi": 54,
      "hit": false,
      "t": 57618.99000000024,
      "d": 79.36499999999796,
      "v": 50
    },
    {
      "midi": 74,
      "hit": false,
      "t": 57648.75187499999,
      "d": 188.4918749999997,
      "v": 64
    },
    {
      "midi": 37,
      "hit": false,
      "t": 57738.03750000016,
      "d": 79.36499999999796,
      "v": 80
    },
    {
      "midi": 54,
      "hit": false,
      "t": 57738.03750000024,
      "d": 79.36499999999796,
      "v": 50
    },
    {
      "midi": 37,
      "hit": false,
      "t": 57852.12468750016,
      "d": 158.7300000000032,
      "v": 80
    },
    {
      "midi": 54,
      "hit": false,
      "t": 57857.08500000024,
      "d": 79.36499999999796,
      "v": 50
    },
    {
      "midi": 73,
      "hit": false,
      "t": 57886.84687499999,
      "d": 178.57125000000087,
      "v": 64
    },
    {
      "midi": 54,
      "hit": false,
      "t": 57976.13250000024,
      "d": 79.36499999999796,
      "v": 50
    },
    {
      "midi": 35,
      "hit": false,
      "t": 58095.18000000006,
      "d": 317.4599999999991,
      "v": 100
    },
    {
      "midi": 37,
      "hit": false,
      "t": 58095.18000000016,
      "d": 158.7300000000032,
      "v": 80
    },
    {
      "midi": 54,
      "hit": false,
      "t": 58095.18000000024,
      "d": 79.36499999999796,
      "v": 50
    },
    {
      "midi": 69,
      "hit": false,
      "t": 58124.94187499999,
      "d": 922.6181250000009,
      "v": 50
    },
    {
      "midi": 54,
      "hit": false,
      "t": 58214.22750000024,
      "d": 79.36499999999796,
      "v": 50
    },
    {
      "midi": 69,
      "hit": false,
      "t": 58328.31468749999,
      "d": 758.9278124999983,
      "v": 64
    },
    {
      "midi": 37,
      "hit": false,
      "t": 58333.27500000016,
      "d": 158.7300000000032,
      "v": 80
    },
    {
      "midi": 54,
      "hit": false,
      "t": 58333.27500000024,
      "d": 79.36499999999796,
      "v": 50
    },
    {
      "midi": 54,
      "hit": false,
      "t": 58452.32250000024,
      "d": 79.36499999999796,
      "v": 50
    },
    {
      "midi": 35,
      "hit": false,
      "t": 58571.37000000006,
      "d": 317.4599999999991,
      "v": 100
    },
    {
      "midi": 37,
      "hit": false,
      "t": 58571.37000000016,
      "d": 158.7300000000032,
      "v": 80
    },
    {
      "midi": 54,
      "hit": false,
      "t": 58571.37000000024,
      "d": 79.36499999999796,
      "v": 50
    },
    {
      "midi": 54,
      "hit": false,
      "t": 58690.41750000024,
      "d": 79.36499999999796,
      "v": 50
    },
    {
      "midi": 54,
      "hit": false,
      "t": 58809.465000000244,
      "d": 79.36499999999796,
      "v": 50
    },
    {
      "midi": 54,
      "hit": false,
      "t": 58928.512500000244,
      "d": 79.36499999999796,
      "v": 50
    },
    {
      "midi": 67,
      "hit": false,
      "t": 59047.56000000003,
      "d": 158.7300000000032,
      "v": 127
    },
    {
      "midi": 35,
      "hit": false,
      "t": 59047.56000000006,
      "d": 317.4599999999991,
      "v": 100
    },
    {
      "midi": 54,
      "hit": false,
      "t": 59047.560000000245,
      "d": 79.36499999999796,
      "v": 50
    },
    {
      "midi": 67,
      "hit": false,
      "t": 59072.36156249999,
      "d": 1760.910937499997,
      "v": 50
    },
    {
      "midi": 54,
      "hit": false,
      "t": 59166.607500000246,
      "d": 79.36499999999796,
      "v": 50
    },
    {
      "midi": 67,
      "hit": false,
      "t": 59280.69468750003,
      "d": 158.7300000000032,
      "v": 127
    },
    {
      "midi": 37,
      "hit": false,
      "t": 59285.655000000166,
      "d": 79.36499999999796,
      "v": 80
    },
    {
      "midi": 54,
      "hit": false,
      "t": 59285.655000000246,
      "d": 79.36499999999796,
      "v": 50
    },
    {
      "midi": 37,
      "hit": false,
      "t": 59404.70250000017,
      "d": 79.36499999999796,
      "v": 80
    },
    {
      "midi": 54,
      "hit": false,
      "t": 59404.70250000025,
      "d": 79.36499999999796,
      "v": 50
    },
    {
      "midi": 67,
      "hit": false,
      "t": 59523.75000000003,
      "d": 158.7300000000032,
      "v": 127
    },
    {
      "midi": 35,
      "hit": false,
      "t": 59523.750000000065,
      "d": 317.4599999999991,
      "v": 100
    },
    {
      "midi": 37,
      "hit": false,
      "t": 59523.75000000017,
      "d": 79.36499999999796,
      "v": 80
    },
    {
      "midi": 54,
      "hit": false,
      "t": 59523.75000000025,
      "d": 79.36499999999796,
      "v": 50
    },
    {
      "midi": 37,
      "hit": false,
      "t": 59642.79750000017,
      "d": 79.36499999999796,
      "v": 80
    },
    {
      "midi": 54,
      "hit": false,
      "t": 59642.79750000025,
      "d": 79.36499999999796,
      "v": 50
    },
    {
      "midi": 67,
      "hit": false,
      "t": 59756.88468750003,
      "d": 158.7300000000032,
      "v": 127
    },
    {
      "midi": 37,
      "hit": false,
      "t": 59756.88468750017,
      "d": 158.7300000000032,
      "v": 80
    },
    {
      "midi": 54,
      "hit": false,
      "t": 59761.84500000025,
      "d": 79.36499999999796,
      "v": 50
    },
    {
      "midi": 54,
      "hit": false,
      "t": 59880.89250000025,
      "d": 79.36499999999796,
      "v": 50
    },
    {
      "midi": 67,
      "hit": false,
      "t": 59999.94000000003,
      "d": 436.5074999999997,
      "v": 127
    },
    {
      "midi": 35,
      "hit": false,
      "t": 59999.94000000007,
      "d": 317.4599999999991,
      "v": 100
    },
    {
      "midi": 37,
      "hit": false,
      "t": 59999.94000000017,
      "d": 158.7300000000032,
      "v": 80
    },
    {
      "midi": 54,
      "hit": false,
      "t": 59999.94000000025,
      "d": 79.36499999999796,
      "v": 50
    },
    {
      "midi": 54,
      "hit": false,
      "t": 60118.98750000025,
      "d": 79.36499999999796,
      "v": 50
    },
    {
      "midi": 37,
      "hit": false,
      "t": 60238.03500000017,
      "d": 158.7300000000032,
      "v": 80
    },
    {
      "midi": 54,
      "hit": false,
      "t": 60238.03500000025,
      "d": 79.36499999999796,
      "v": 50
    },
    {
      "midi": 54,
      "hit": false,
      "t": 60357.08250000025,
      "d": 79.36499999999796,
      "v": 50
    },
    {
      "midi": 69,
      "hit": false,
      "t": 60476.130000000034,
      "d": 436.5074999999997,
      "v": 127
    },
    {
      "midi": 35,
      "hit": false,
      "t": 60476.13000000007,
      "d": 317.4599999999991,
      "v": 100
    },
    {
      "midi": 37,
      "hit": false,
      "t": 60476.13000000017,
      "d": 158.7300000000032,
      "v": 80
    },
    {
      "midi": 54,
      "hit": false,
      "t": 60476.13000000025,
      "d": 79.36499999999796,
      "v": 50
    },
    {
      "midi": 54,
      "hit": false,
      "t": 60595.17750000025,
      "d": 79.36499999999796,
      "v": 50
    },
    {
      "midi": 54,
      "hit": false,
      "t": 60714.22500000025,
      "d": 79.36499999999796,
      "v": 50
    },
    {
      "midi": 54,
      "hit": false,
      "t": 60833.272500000254,
      "d": 79.36499999999796,
      "v": 50
    },
    {
      "midi": 66,
      "hit": false,
      "t": 60912.63749999998,
      "d": 600.1978125000023,
      "v": 50
    },
    {
      "midi": 66,
      "hit": false,
      "t": 60952.320000000036,
      "d": 436.5074999999997,
      "v": 127
    },
    {
      "midi": 35,
      "hit": false,
      "t": 60952.32000000007,
      "d": 317.4599999999991,
      "v": 100
    },
    {
      "midi": 54,
      "hit": false,
      "t": 60952.320000000254,
      "d": 79.36499999999796,
      "v": 50
    },
    {
      "midi": 54,
      "hit": false,
      "t": 61071.367500000255,
      "d": 79.36499999999796,
      "v": 50
    },
    {
      "midi": 37,
      "hit": false,
      "t": 61190.415000000175,
      "d": 79.36499999999796,
      "v": 80
    },
    {
      "midi": 54,
      "hit": false,
      "t": 61190.415000000256,
      "d": 79.36499999999796,
      "v": 50
    },
    {
      "midi": 37,
      "hit": false,
      "t": 61309.462500000176,
      "d": 79.36499999999796,
      "v": 80
    },
    {
      "midi": 54,
      "hit": false,
      "t": 61309.462500000256,
      "d": 79.36499999999796,
      "v": 50
    },
    {
      "midi": 64,
      "hit": false,
      "t": 61428.51000000004,
      "d": 218.2537500000035,
      "v": 127
    },
    {
      "midi": 35,
      "hit": false,
      "t": 61428.510000000075,
      "d": 317.4599999999991,
      "v": 100
    },
    {
      "midi": 37,
      "hit": false,
      "t": 61428.51000000018,
      "d": 79.36499999999796,
      "v": 80
    },
    {
      "midi": 54,
      "hit": false,
      "t": 61428.51000000026,
      "d": 79.36499999999796,
      "v": 50
    },
    {
      "midi": 37,
      "hit": false,
      "t": 61547.55750000018,
      "d": 79.36499999999796,
      "v": 80
    },
    {
      "midi": 54,
      "hit": false,
      "t": 61547.55750000026,
      "d": 79.36499999999796,
      "v": 50
    },
    {
      "midi": 62,
      "hit": false,
      "t": 61661.64468750004,
      "d": 436.5074999999997,
      "v": 127
    },
    {
      "midi": 37,
      "hit": false,
      "t": 61661.64468750018,
      "d": 158.7300000000032,
      "v": 80
    },
    {
      "midi": 54,
      "hit": false,
      "t": 61666.60500000026,
      "d": 79.36499999999796,
      "v": 50
    },
    {
      "midi": 54,
      "hit": false,
      "t": 61785.65250000026,
      "d": 79.36499999999796,
      "v": 50
    },
    {
      "midi": 35,
      "hit": false,
      "t": 61904.70000000008,
      "d": 317.4599999999991,
      "v": 100
    },
    {
      "midi": 37,
      "hit": false,
      "t": 61904.70000000018,
      "d": 158.7300000000032,
      "v": 80
    },
    {
      "midi": 54,
      "hit": false,
      "t": 61904.70000000026,
      "d": 79.36499999999796,
      "v": 50
    },
    {
      "midi": 54,
      "hit": false,
      "t": 62023.74750000026,
      "d": 79.36499999999796,
      "v": 50
    },
    {
      "midi": 64,
      "hit": false,
      "t": 62137.83468750004,
      "d": 436.5074999999997,
      "v": 127
    },
    {
      "midi": 37,
      "hit": false,
      "t": 62142.79500000018,
      "d": 158.7300000000032,
      "v": 80
    },
    {
      "midi": 54,
      "hit": false,
      "t": 62142.79500000026,
      "d": 79.36499999999796,
      "v": 50
    },
    {
      "midi": 54,
      "hit": false,
      "t": 62261.84250000026,
      "d": 79.36499999999796,
      "v": 50
    },
    {
      "midi": 35,
      "hit": false,
      "t": 62380.89000000008,
      "d": 317.4599999999991,
      "v": 100
    },
    {
      "midi": 37,
      "hit": false,
      "t": 62380.89000000018,
      "d": 158.7300000000032,
      "v": 80
    },
    {
      "midi": 54,
      "hit": false,
      "t": 62380.89000000026,
      "d": 79.36499999999796,
      "v": 50
    },
    {
      "midi": 54,
      "hit": false,
      "t": 62499.93750000026,
      "d": 79.36499999999796,
      "v": 50
    },
    {
      "midi": 66,
      "hit": false,
      "t": 62614.024687500045,
      "d": 218.2537500000035,
      "v": 127
    },
    {
      "midi": 54,
      "hit": false,
      "t": 62618.98500000026,
      "d": 79.36499999999796,
      "v": 50
    },
    {
      "midi": 66,
      "hit": false,
      "t": 62628.905624999985,
      "d": 148.8093749999971,
      "v": 50
    },
    {
      "midi": 54,
      "hit": false,
      "t": 62738.03250000026,
      "d": 79.36499999999796,
      "v": 50
    },
    {
      "midi": 62,
      "hit": false,
      "t": 62857.080000000045,
      "d": 912.697500000002,
      "v": 127
    },
    {
      "midi": 35,
      "hit": false,
      "t": 62857.08000000008,
      "d": 317.4599999999991,
      "v": 100
    },
    {
      "midi": 54,
      "hit": false,
      "t": 62857.080000000264,
      "d": 79.36499999999796,
      "v": 50
    },
    {
      "midi": 62,
      "hit": false,
      "t": 62862.04031249998,
      "d": 768.8484374999971,
      "v": 50
    },
    {
      "midi": 54,
      "hit": false,
      "t": 62976.127500000264,
      "d": 79.36499999999796,
      "v": 50
    },
    {
      "midi": 37,
      "hit": false,
      "t": 63095.175000000185,
      "d": 79.36499999999796,
      "v": 80
    },
    {
      "midi": 54,
      "hit": false,
      "t": 63095.175000000265,
      "d": 79.36499999999796,
      "v": 50
    },
    {
      "midi": 37,
      "hit": false,
      "t": 63214.222500000185,
      "d": 79.36499999999796,
      "v": 80
    },
    {
      "midi": 54,
      "hit": false,
      "t": 63214.222500000265,
      "d": 79.36499999999796,
      "v": 50
    },
    {
      "midi": 74,
      "hit": false,
      "t": 63333.26999999999,
      "d": 1200.3956249999974,
      "v": 64
    },
    {
      "midi": 35,
      "hit": false,
      "t": 63333.270000000084,
      "d": 317.4599999999991,
      "v": 100
    },
    {
      "midi": 37,
      "hit": false,
      "t": 63333.270000000186,
      "d": 79.36499999999796,
      "v": 80
    },
    {
      "midi": 54,
      "hit": false,
      "t": 63333.270000000266,
      "d": 79.36499999999796,
      "v": 50
    },
    {
      "midi": 37,
      "hit": false,
      "t": 63452.31750000019,
      "d": 79.36499999999796,
      "v": 80
    },
    {
      "midi": 54,
      "hit": false,
      "t": 63452.31750000027,
      "d": 79.36499999999796,
      "v": 50
    },
    {
      "midi": 37,
      "hit": false,
      "t": 63566.40468750019,
      "d": 158.7300000000032,
      "v": 80
    },
    {
      "midi": 54,
      "hit": false,
      "t": 63571.36500000027,
      "d": 79.36499999999796,
      "v": 50
    },
    {
      "midi": 54,
      "hit": false,
      "t": 63690.41250000027,
      "d": 79.36499999999796,
      "v": 50
    },
    {
      "midi": 66,
      "hit": false,
      "t": 63809.46000000005,
      "d": 218.2537500000035,
      "v": 127
    },
    {
      "midi": 35,
      "hit": false,
      "t": 63809.46000000009,
      "d": 317.4599999999991,
      "v": 100
    },
    {
      "midi": 37,
      "hit": false,
      "t": 63809.46000000019,
      "d": 158.7300000000032,
      "v": 80
    },
    {
      "midi": 54,
      "hit": false,
      "t": 63809.46000000027,
      "d": 79.36499999999796,
      "v": 50
    },
    {
      "midi": 54,
      "hit": false,
      "t": 63928.50750000027,
      "d": 79.36499999999796,
      "v": 50
    },
    {
      "midi": 69,
      "hit": false,
      "t": 64042.59468750005,
      "d": 218.2537500000035,
      "v": 127
    },
    {
      "midi": 37,
      "hit": false,
      "t": 64047.55500000019,
      "d": 158.7300000000032,
      "v": 80
    },
    {
      "midi": 54,
      "hit": false,
      "t": 64047.55500000027,
      "d": 79.36499999999796,
      "v": 50
    },
    {
      "midi": 54,
      "hit": false,
      "t": 64166.60250000027,
      "d": 79.36499999999796,
      "v": 50
    },
    {
      "midi": 66,
      "hit": false,
      "t": 64285.65000000005,
      "d": 218.2537500000035,
      "v": 127
    },
    {
      "midi": 35,
      "hit": false,
      "t": 64285.65000000009,
      "d": 317.4599999999991,
      "v": 100
    },
    {
      "midi": 37,
      "hit": false,
      "t": 64285.65000000019,
      "d": 158.7300000000032,
      "v": 80
    },
    {
      "midi": 54,
      "hit": false,
      "t": 64285.65000000027,
      "d": 79.36499999999796,
      "v": 50
    },
    {
      "midi": 54,
      "hit": false,
      "t": 64404.69750000027,
      "d": 79.36499999999796,
      "v": 50
    },
    {
      "midi": 64,
      "hit": false,
      "t": 64518.784687500054,
      "d": 2003.9662499999977,
      "v": 127
    },
    {
      "midi": 54,
      "hit": false,
      "t": 64523.74500000027,
      "d": 79.36499999999796,
      "v": 50
    },
    {
      "midi": 69,
      "hit": false,
      "t": 64528.70531249999,
      "d": 381.94406249999884,
      "v": 64
    },
    {
      "midi": 54,
      "hit": false,
      "t": 64642.79250000027,
      "d": 79.36499999999796,
      "v": 50
    },
    {
      "midi": 35,
      "hit": false,
      "t": 64761.84000000009,
      "d": 317.4599999999991,
      "v": 100
    },
    {
      "midi": 54,
      "hit": false,
      "t": 64761.84000000027,
      "d": 79.36499999999796,
      "v": 50
    },
    {
      "midi": 54,
      "hit": false,
      "t": 64880.88750000027,
      "d": 79.36499999999796,
      "v": 50
    },
    {
      "midi": 37,
      "hit": false,
      "t": 64999.935000000194,
      "d": 79.36499999999796,
      "v": 80
    },
    {
      "midi": 54,
      "hit": false,
      "t": 64999.935000000274,
      "d": 79.36499999999796,
      "v": 50
    },
    {
      "midi": 76,
      "hit": false,
      "t": 65024.73656249999,
      "d": 243.05531250000058,
      "v": 64
    },
    {
      "midi": 37,
      "hit": false,
      "t": 65118.982500000195,
      "d": 79.36499999999796,
      "v": 80
    },
    {
      "midi": 54,
      "hit": false,
      "t": 65118.982500000275,
      "d": 79.36499999999796,
      "v": 50
    },
    {
      "midi": 35,
      "hit": false,
      "t": 65238.03000000009,
      "d": 317.4599999999991,
      "v": 100
    },
    {
      "midi": 37,
      "hit": false,
      "t": 65238.030000000195,
      "d": 79.36499999999796,
      "v": 80
    },
    {
      "midi": 54,
      "hit": false,
      "t": 65238.030000000275,
      "d": 79.36499999999796,
      "v": 50
    },
    {
      "midi": 74,
      "hit": false,
      "t": 65247.95062499999,
      "d": 208.33312499999738,
      "v": 64
    },
    {
      "midi": 37,
      "hit": false,
      "t": 65357.077500000196,
      "d": 79.36499999999796,
      "v": 80
    },
    {
      "midi": 54,
      "hit": false,
      "t": 65357.077500000276,
      "d": 79.36499999999796,
      "v": 50
    },
    {
      "midi": 37,
      "hit": false,
      "t": 65471.1646875002,
      "d": 158.7300000000032,
      "v": 80
    },
    {
      "midi": 73,
      "hit": false,
      "t": 65476.124999999985,
      "d": 233.13468750000175,
      "v": 64
    },
    {
      "midi": 54,
      "hit": false,
      "t": 65476.12500000028,
      "d": 79.36500000000524,
      "v": 50
    },
    {
      "midi": 54,
      "hit": false,
      "t": 65595.17250000028,
      "d": 79.36500000000524,
      "v": 50
    },
    {
      "midi": 69,
      "hit": false,
      "t": 65674.53749999998,
      "d": 927.578437499993,
      "v": 50
    },
    {
      "midi": 35,
      "hit": false,
      "t": 65714.22000000009,
      "d": 317.4600000000064,
      "v": 100
    },
    {
      "midi": 37,
      "hit": false,
      "t": 65714.2200000002,
      "d": 158.72999999999593,
      "v": 80
    },
    {
      "midi": 54,
      "hit": false,
      "t": 65714.22000000028,
      "d": 79.36500000000524,
      "v": 50
    },
    {
      "midi": 54,
      "hit": false,
      "t": 65833.26750000028,
      "d": 79.36500000000524,
      "v": 50
    },
    {
      "midi": 37,
      "hit": false,
      "t": 65952.3150000002,
      "d": 158.72999999999593,
      "v": 80
    },
    {
      "midi": 54,
      "hit": false,
      "t": 65952.31500000028,
      "d": 79.36500000000524,
      "v": 50
    },
    {
      "midi": 76,
      "hit": false,
      "t": 65957.27531249999,
      "d": 897.8165624999965,
      "v": 64
    },
    {
      "midi": 54,
      "hit": false,
      "t": 66071.36250000028,
      "d": 79.36500000000524,
      "v": 50
    },
    {
      "midi": 35,
      "hit": false,
      "t": 66190.41000000009,
      "d": 317.4600000000064,
      "v": 100
    },
    {
      "midi": 37,
      "hit": false,
      "t": 66190.4100000002,
      "d": 158.72999999999593,
      "v": 80
    },
    {
      "midi": 54,
      "hit": false,
      "t": 66190.41000000028,
      "d": 79.36500000000524,
      "v": 50
    },
    {
      "midi": 54,
      "hit": false,
      "t": 66309.45750000028,
      "d": 79.36500000000524,
      "v": 50
    },
    {
      "midi": 54,
      "hit": false,
      "t": 66428.50500000028,
      "d": 79.36500000000524,
      "v": 50
    },
    {
      "midi": 54,
      "hit": false,
      "t": 66547.55250000028,
      "d": 79.36500000000524,
      "v": 50
    },
    {
      "midi": 67,
      "hit": false,
      "t": 66666.60000000005,
      "d": 158.72999999999593,
      "v": 127
    },
    {
      "midi": 35,
      "hit": false,
      "t": 66666.6000000001,
      "d": 317.4600000000064,
      "v": 100
    },
    {
      "midi": 54,
      "hit": false,
      "t": 66666.60000000028,
      "d": 79.36500000000524,
      "v": 50
    },
    {
      "midi": 67,
      "hit": false,
      "t": 66676.52062499998,
      "d": 1825.395000000004,
      "v": 50
    },
    {
      "midi": 54,
      "hit": false,
      "t": 66785.64750000028,
      "d": 79.36500000000524,
      "v": 50
    },
    {
      "midi": 67,
      "hit": false,
      "t": 66899.73468750005,
      "d": 158.72999999999593,
      "v": 127
    },
    {
      "midi": 37,
      "hit": false,
      "t": 66904.6950000002,
      "d": 79.36500000000524,
      "v": 80
    },
    {
      "midi": 54,
      "hit": false,
      "t": 66904.69500000028,
      "d": 79.36500000000524,
      "v": 50
    },
    {
      "midi": 37,
      "hit": false,
      "t": 67023.7425000002,
      "d": 79.36500000000524,
      "v": 80
    },
    {
      "midi": 54,
      "hit": false,
      "t": 67023.74250000028,
      "d": 79.36500000000524,
      "v": 50
    },
    {
      "midi": 67,
      "hit": false,
      "t": 67142.79000000005,
      "d": 158.72999999999593,
      "v": 127
    },
    {
      "midi": 35,
      "hit": false,
      "t": 67142.7900000001,
      "d": 317.4600000000064,
      "v": 100
    },
    {
      "midi": 37,
      "hit": false,
      "t": 67142.7900000002,
      "d": 79.36500000000524,
      "v": 80
    },
    {
      "midi": 54,
      "hit": false,
      "t": 67142.79000000028,
      "d": 79.36500000000524,
      "v": 50
    },
    {
      "midi": 37,
      "hit": false,
      "t": 67261.8375000002,
      "d": 79.36500000000524,
      "v": 80
    },
    {
      "midi": 54,
      "hit": false,
      "t": 67261.83750000029,
      "d": 79.36500000000524,
      "v": 50
    },
    {
      "midi": 67,
      "hit": false,
      "t": 67375.92468750005,
      "d": 158.72999999999593,
      "v": 127
    },
    {
      "midi": 37,
      "hit": false,
      "t": 67375.9246875002,
      "d": 158.72999999999593,
      "v": 80
    },
    {
      "midi": 54,
      "hit": false,
      "t": 67380.88500000029,
      "d": 79.36500000000524,
      "v": 50
    },
    {
      "midi": 54,
      "hit": false,
      "t": 67499.93250000029,
      "d": 79.36500000000524,
      "v": 50
    },
    {
      "midi": 67,
      "hit": false,
      "t": 67618.98000000005,
      "d": 436.507500000007,
      "v": 127
    },
    {
      "midi": 35,
      "hit": false,
      "t": 67618.9800000001,
      "d": 317.4600000000064,
      "v": 100
    },
    {
      "midi": 37,
      "hit": false,
      "t": 67618.9800000002,
      "d": 158.72999999999593,
      "v": 80
    },
    {
      "midi": 54,
      "hit": false,
      "t": 67618.98000000029,
      "d": 79.36500000000524,
      "v": 50
    },
    {
      "midi": 54,
      "hit": false,
      "t": 67738.02750000029,
      "d": 79.36500000000524,
      "v": 50
    },
    {
      "midi": 37,
      "hit": false,
      "t": 67857.0750000002,
      "d": 158.72999999999593,
      "v": 80
    },
    {
      "midi": 54,
      "hit": false,
      "t": 67857.07500000029,
      "d": 79.36500000000524,
      "v": 50
    },
    {
      "midi": 54,
      "hit": false,
      "t": 67976.12250000029,
      "d": 79.36500000000524,
      "v": 50
    },
    {
      "midi": 69,
      "hit": false,
      "t": 68095.17000000006,
      "d": 436.507500000007,
      "v": 127
    },
    {
      "midi": 35,
      "hit": false,
      "t": 68095.1700000001,
      "d": 317.4600000000064,
      "v": 100
    },
    {
      "midi": 37,
      "hit": false,
      "t": 68095.1700000002,
      "d": 158.72999999999593,
      "v": 80
    },
    {
      "midi": 54,
      "hit": false,
      "t": 68095.17000000029,
      "d": 79.36500000000524,
      "v": 50
    },
    {
      "midi": 54,
      "hit": false,
      "t": 68214.21750000029,
      "d": 79.36500000000524,
      "v": 50
    },
    {
      "midi": 54,
      "hit": false,
      "t": 68333.26500000029,
      "d": 79.36500000000524,
      "v": 50
    },
    {
      "midi": 54,
      "hit": false,
      "t": 68452.31250000029,
      "d": 79.36500000000524,
      "v": 50
    },
    {
      "midi": 66,
      "hit": false,
      "t": 68561.43937499997,
      "d": 709.3246875000041,
      "v": 50
    },
    {
      "midi": 66,
      "hit": false,
      "t": 68571.36000000006,
      "d": 476.1900000000023,
      "v": 127
    },
    {
      "midi": 35,
      "hit": false,
      "t": 68571.3600000001,
      "d": 317.4600000000064,
      "v": 100
    },
    {
      "midi": 54,
      "hit": false,
      "t": 68571.36000000029,
      "d": 79.36500000000524,
      "v": 50
    },
    {
      "midi": 54,
      "hit": false,
      "t": 68690.40750000029,
      "d": 79.36500000000524,
      "v": 50
    },
    {
      "midi": 37,
      "hit": false,
      "t": 68809.45500000019,
      "d": 79.36500000000524,
      "v": 80
    },
    {
      "midi": 54,
      "hit": false,
      "t": 68809.4550000003,
      "d": 79.36500000000524,
      "v": 50
    },
    {
      "midi": 37,
      "hit": false,
      "t": 68928.50250000019,
      "d": 79.36500000000524,
      "v": 80
    },
    {
      "midi": 54,
      "hit": false,
      "t": 68928.5025000003,
      "d": 79.36500000000524,
      "v": 50
    },
    {
      "midi": 64,
      "hit": false,
      "t": 69047.55000000006,
      "d": 158.72999999999593,
      "v": 127
    },
    {
      "midi": 35,
      "hit": false,
      "t": 69047.5500000001,
      "d": 317.4600000000064,
      "v": 100
    },
    {
      "midi": 37,
      "hit": false,
      "t": 69047.55000000019,
      "d": 79.36500000000524,
      "v": 80
    },
    {
      "midi": 54,
      "hit": false,
      "t": 69047.5500000003,
      "d": 79.36500000000524,
      "v": 50
    },
    {
      "midi": 37,
      "hit": false,
      "t": 69166.59750000019,
      "d": 79.36500000000524,
      "v": 80
    },
    {
      "midi": 54,
      "hit": false,
      "t": 69166.5975000003,
      "d": 79.36500000000524,
      "v": 50
    },
    {
      "midi": 64,
      "hit": false,
      "t": 69280.68468750006,
      "d": 1750.9903124999983,
      "v": 127
    },
    {
      "midi": 37,
      "hit": false,
      "t": 69280.6846875002,
      "d": 158.72999999999593,
      "v": 80
    },
    {
      "midi": 54,
      "hit": false,
      "t": 69285.6450000003,
      "d": 79.36500000000524,
      "v": 50
    },
    {
      "midi": 54,
      "hit": false,
      "t": 69404.6925000003,
      "d": 79.36500000000524,
      "v": 50
    },
    {
      "midi": 35,
      "hit": false,
      "t": 69523.7400000001,
      "d": 317.4600000000064,
      "v": 100
    },
    {
      "midi": 37,
      "hit": false,
      "t": 69523.7400000002,
      "d": 158.72999999999593,
      "v": 80
    },
    {
      "midi": 54,
      "hit": false,
      "t": 69523.7400000003,
      "d": 79.36500000000524,
      "v": 50
    },
    {
      "midi": 54,
      "hit": false,
      "t": 69642.7875000003,
      "d": 79.36500000000524,
      "v": 50
    },
    {
      "midi": 69,
      "hit": false,
      "t": 69756.8746875,
      "d": 233.13468750000175,
      "v": 64
    },
    {
      "midi": 37,
      "hit": false,
      "t": 69761.8350000002,
      "d": 158.72999999999593,
      "v": 80
    },
    {
      "midi": 54,
      "hit": false,
      "t": 69761.8350000003,
      "d": 79.36500000000524,
      "v": 50
    },
    {
      "midi": 57,
      "hit": false,
      "t": 69771.75562499998,
      "d": 262.89656249999825,
      "v": 50
    },
    {
      "midi": 54,
      "hit": false,
      "t": 69880.8825000003,
      "d": 79.36500000000524,
      "v": 50
    },
    {
      "midi": 71,
      "hit": false,
      "t": 69975.12843750001,
      "d": 243.05531250000058,
      "v": 64
    },
    {
      "midi": 35,
      "hit": false,
      "t": 69999.93000000011,
      "d": 317.4600000000064,
      "v": 100
    },
    {
      "midi": 37,
      "hit": false,
      "t": 69999.9300000002,
      "d": 158.72999999999593,
      "v": 80
    },
    {
      "midi": 54,
      "hit": false,
      "t": 69999.9300000003,
      "d": 79.36500000000524,
      "v": 50
    },
    {
      "midi": 59,
      "hit": false,
      "t": 70024.73156249998,
      "d": 267.8568749999977,
      "v": 50
    },
    {
      "midi": 54,
      "hit": false,
      "t": 70118.9775000003,
      "d": 79.36500000000524,
      "v": 50
    },
    {
      "midi": 73,
      "hit": false,
      "t": 70208.26312500001,
      "d": 203.37281250000524,
      "v": 64
    },
    {
      "midi": 54,
      "hit": false,
      "t": 70238.0250000003,
      "d": 79.36500000000524,
      "v": 50
    },
    {
      "midi": 61,
      "hit": false,
      "t": 70272.74718749998,
      "d": 223.2140625000029,
      "v": 50
    },
    {
      "midi": 54,
      "hit": false,
      "t": 70357.0725000003,
      "d": 79.36500000000524,
      "v": 50
    },
    {
      "midi": 74,
      "hit": false,
      "t": 70436.43750000001,
      "d": 1830.3553125000035,
      "v": 64
    },
    {
      "midi": 35,
      "hit": false,
      "t": 70476.12000000011,
      "d": 317.4600000000064,
      "v": 100
    },
    {
      "midi": 54,
      "hit": false,
      "t": 70476.1200000003,
      "d": 79.36500000000524,
      "v": 50
    },
    {
      "midi": 62,
      "hit": false,
      "t": 70515.80249999998,
      "d": 1775.7918749999953,
      "v": 50
    },
    {
      "midi": 54,
      "hit": false,
      "t": 70595.1675000003,
      "d": 79.36500000000524,
      "v": 50
    },
    {
      "midi": 37,
      "hit": false,
      "t": 70714.21500000019,
      "d": 79.36500000000524,
      "v": 80
    },
    {
      "midi": 54,
      "hit": false,
      "t": 70714.2150000003,
      "d": 79.36500000000524,
      "v": 50
    },
    {
      "midi": 37,
      "hit": false,
      "t": 70833.26250000019,
      "d": 79.36500000000524,
      "v": 80
    },
    {
      "midi": 54,
      "hit": false,
      "t": 70833.2625000003,
      "d": 79.36500000000524,
      "v": 50
    },
    {
      "midi": 67,
      "hit": false,
      "t": 70952.31000000006,
      "d": 436.507500000007,
      "v": 127
    },
    {
      "midi": 35,
      "hit": false,
      "t": 70952.31000000011,
      "d": 317.4600000000064,
      "v": 100
    },
    {
      "midi": 37,
      "hit": false,
      "t": 70952.31000000019,
      "d": 79.36500000000524,
      "v": 80
    },
    {
      "midi": 54,
      "hit": false,
      "t": 70952.3100000003,
      "d": 79.36500000000524,
      "v": 50
    },
    {
      "midi": 37,
      "hit": false,
      "t": 71071.35750000019,
      "d": 79.36500000000524,
      "v": 80
    },
    {
      "midi": 54,
      "hit": false,
      "t": 71071.3575000003,
      "d": 79.36500000000524,
      "v": 50
    },
    {
      "midi": 37,
      "hit": false,
      "t": 71185.44468750019,
      "d": 158.72999999999593,
      "v": 80
    },
    {
      "midi": 54,
      "hit": false,
      "t": 71190.4050000003,
      "d": 79.36500000000524,
      "v": 50
    },
    {
      "midi": 54,
      "hit": false,
      "t": 71309.4525000003,
      "d": 79.36500000000524,
      "v": 50
    },
    {
      "midi": 69,
      "hit": false,
      "t": 71428.50000000006,
      "d": 436.507500000007,
      "v": 127
    },
    {
      "midi": 35,
      "hit": false,
      "t": 71428.50000000012,
      "d": 317.4600000000064,
      "v": 100
    },
    {
      "midi": 37,
      "hit": false,
      "t": 71428.50000000019,
      "d": 158.72999999999593,
      "v": 80
    },
    {
      "midi": 54,
      "hit": false,
      "t": 71428.5000000003,
      "d": 79.36500000000524,
      "v": 50
    },
    {
      "midi": 54,
      "hit": false,
      "t": 71547.5475000003,
      "d": 79.36500000000524,
      "v": 50
    },
    {
      "midi": 37,
      "hit": false,
      "t": 71666.59500000019,
      "d": 158.72999999999593,
      "v": 80
    },
    {
      "midi": 54,
      "hit": false,
      "t": 71666.5950000003,
      "d": 79.36500000000524,
      "v": 50
    },
    {
      "midi": 54,
      "hit": false,
      "t": 71785.64250000031,
      "d": 79.36500000000524,
      "v": 50
    },
    {
      "midi": 67,
      "hit": false,
      "t": 71904.69000000006,
      "d": 436.507500000007,
      "v": 127
    },
    {
      "midi": 35,
      "hit": false,
      "t": 71904.69000000012,
      "d": 317.4600000000064,
      "v": 100
    },
    {
      "midi": 37,
      "hit": false,
      "t": 71904.69000000019,
      "d": 158.72999999999593,
      "v": 80
    },
    {
      "midi": 54,
      "hit": false,
      "t": 71904.69000000031,
      "d": 79.36500000000524,
      "v": 50
    },
    {
      "midi": 54,
      "hit": false,
      "t": 72023.73750000031,
      "d": 79.36500000000524,
      "v": 50
    },
    {
      "midi": 54,
      "hit": false,
      "t": 72142.78500000031,
      "d": 79.36500000000524,
      "v": 50
    },
    {
      "midi": 54,
      "hit": false,
      "t": 72261.83250000031,
      "d": 79.36500000000524,
      "v": 50
    },
    {
      "midi": 64,
      "hit": false,
      "t": 72365.99906249998,
      "d": 1686.5062500000058,
      "v": 50
    },
    {
      "midi": 76,
      "hit": false,
      "t": 72365.99906250002,
      "d": 1622.0221874999988,
      "v": 64
    },
    {
      "midi": 66,
      "hit": false,
      "t": 72380.88000000006,
      "d": 218.2537500000035,
      "v": 127
    },
    {
      "midi": 35,
      "hit": false,
      "t": 72380.88000000012,
      "d": 317.4600000000064,
      "v": 100
    },
    {
      "midi": 54,
      "hit": false,
      "t": 72380.88000000031,
      "d": 79.36500000000524,
      "v": 50
    },
    {
      "midi": 54,
      "hit": false,
      "t": 72499.92750000031,
      "d": 79.36500000000524,
      "v": 50
    },
    {
      "midi": 67,
      "hit": false,
      "t": 72614.01468750006,
      "d": 218.2537500000035,
      "v": 127
    },
    {
      "midi": 37,
      "hit": false,
      "t": 72618.97500000018,
      "d": 79.36500000000524,
      "v": 80
    },
    {
      "midi": 54,
      "hit": false,
      "t": 72618.97500000031,
      "d": 79.36500000000524,
      "v": 50
    },
    {
      "midi": 37,
      "hit": false,
      "t": 72738.02250000018,
      "d": 79.36500000000524,
      "v": 80
    },
    {
      "midi": 54,
      "hit": false,
      "t": 72738.02250000031,
      "d": 79.36500000000524,
      "v": 50
    },
    {
      "midi": 66,
      "hit": false,
      "t": 72857.07000000007,
      "d": 218.2537500000035,
      "v": 127
    },
    {
      "midi": 35,
      "hit": false,
      "t": 72857.07000000012,
      "d": 317.4600000000064,
      "v": 100
    },
    {
      "midi": 37,
      "hit": false,
      "t": 72857.07000000018,
      "d": 79.36500000000524,
      "v": 80
    },
    {
      "midi": 54,
      "hit": false,
      "t": 72857.07000000031,
      "d": 79.36500000000524,
      "v": 50
    },
    {
      "midi": 37,
      "hit": false,
      "t": 72976.11750000018,
      "d": 79.36500000000524,
      "v": 80
    },
    {
      "midi": 54,
      "hit": false,
      "t": 72976.11750000031,
      "d": 79.36500000000524,
      "v": 50
    },
    {
      "midi": 64,
      "hit": false,
      "t": 73090.20468750007,
      "d": 1021.8243750000111,
      "v": 127
    },
    {
      "midi": 37,
      "hit": false,
      "t": 73090.20468750018,
      "d": 158.72999999999593,
      "v": 80
    },
    {
      "midi": 54,
      "hit": false,
      "t": 73095.16500000031,
      "d": 79.36500000000524,
      "v": 50
    },
    {
      "midi": 54,
      "hit": false,
      "t": 73214.21250000031,
      "d": 79.36500000000524,
      "v": 50
    },
    {
      "midi": 35,
      "hit": false,
      "t": 73333.26000000013,
      "d": 317.4600000000064,
      "v": 100
    },
    {
      "midi": 37,
      "hit": false,
      "t": 73333.26000000018,
      "d": 158.72999999999593,
      "v": 80
    },
    {
      "midi": 54,
      "hit": false,
      "t": 73333.26000000031,
      "d": 79.36500000000524,
      "v": 50
    },
    {
      "midi": 54,
      "hit": false,
      "t": 73452.30750000032,
      "d": 79.36500000000524,
      "v": 50
    },
    {
      "midi": 37,
      "hit": false,
      "t": 73571.35500000019,
      "d": 158.72999999999593,
      "v": 80
    },
    {
      "midi": 54,
      "hit": false,
      "t": 73571.35500000032,
      "d": 79.36500000000524,
      "v": 50
    },
    {
      "midi": 54,
      "hit": false,
      "t": 73690.40250000032,
      "d": 79.36500000000524,
      "v": 50
    },
    {
      "midi": 35,
      "hit": false,
      "t": 73809.45000000013,
      "d": 317.4600000000064,
      "v": 100
    },
    {
      "midi": 37,
      "hit": false,
      "t": 73809.45000000019,
      "d": 158.72999999999593,
      "v": 80
    },
    {
      "midi": 54,
      "hit": false,
      "t": 73809.45000000032,
      "d": 79.36500000000524,
      "v": 50
    },
    {
      "midi": 54,
      "hit": false,
      "t": 73928.49750000032,
      "d": 79.36500000000524,
      "v": 50
    },
    {
      "midi": 69,
      "hit": false,
      "t": 74042.58468750007,
      "d": 436.507500000007,
      "v": 127
    },
    {
      "midi": 54,
      "hit": false,
      "t": 74047.54500000032,
      "d": 79.36500000000524,
      "v": 50
    },
    {
      "midi": 54,
      "hit": false,
      "t": 74166.59250000032,
      "d": 79.36500000000524,
      "v": 50
    },
    {
      "midi": 78,
      "hit": false,
      "t": 74285.64000000001,
      "d": 1428.570000000007,
      "v": 64
    },
    {
      "midi": 35,
      "hit": false,
      "t": 74285.64000000013,
      "d": 317.4600000000064,
      "v": 100
    },
    {
      "midi": 54,
      "hit": false,
      "t": 74285.64000000032,
      "d": 79.36500000000524,
      "v": 50
    },
    {
      "midi": 54,
      "hit": false,
      "t": 74404.68750000032,
      "d": 79.36500000000524,
      "v": 50
    },
    {
      "midi": 69,
      "hit": false,
      "t": 74518.77468750007,
      "d": 218.2537500000035,
      "v": 127
    },
    {
      "midi": 37,
      "hit": false,
      "t": 74523.73500000018,
      "d": 79.36500000000524,
      "v": 80
    },
    {
      "midi": 54,
      "hit": false,
      "t": 74523.73500000032,
      "d": 79.36500000000524,
      "v": 50
    },
    {
      "midi": 37,
      "hit": false,
      "t": 74642.78250000018,
      "d": 79.36500000000524,
      "v": 80
    },
    {
      "midi": 54,
      "hit": false,
      "t": 74642.78250000032,
      "d": 79.36500000000524,
      "v": 50
    },
    {
      "midi": 67,
      "hit": false,
      "t": 74761.83000000007,
      "d": 158.72999999999593,
      "v": 127
    },
    {
      "midi": 35,
      "hit": false,
      "t": 74761.83000000013,
      "d": 317.4600000000064,
      "v": 100
    },
    {
      "midi": 37,
      "hit": false,
      "t": 74761.83000000018,
      "d": 79.36500000000524,
      "v": 80
    },
    {
      "midi": 54,
      "hit": false,
      "t": 74761.83000000032,
      "d": 79.36500000000524,
      "v": 50
    },
    {
      "midi": 37,
      "hit": false,
      "t": 74880.87750000018,
      "d": 79.36500000000524,
      "v": 80
    },
    {
      "midi": 54,
      "hit": false,
      "t": 74880.87750000032,
      "d": 79.36500000000524,
      "v": 50
    },
    {
      "midi": 67,
      "hit": false,
      "t": 74994.96468750008,
      "d": 218.2537500000035,
      "v": 127
    },
    {
      "midi": 37,
      "hit": false,
      "t": 74994.96468750018,
      "d": 158.72999999999593,
      "v": 80
    },
    {
      "midi": 54,
      "hit": false,
      "t": 74999.92500000032,
      "d": 79.36500000000524,
      "v": 50
    },
    {
      "midi": 54,
      "hit": false,
      "t": 75118.97250000032,
      "d": 79.36500000000524,
      "v": 50
    },
    {
      "midi": 66,
      "hit": false,
      "t": 75238.02000000008,
      "d": 436.507500000007,
      "v": 127
    },
    {
      "midi": 35,
      "hit": false,
      "t": 75238.02000000014,
      "d": 317.4600000000064,
      "v": 100
    },
    {
      "midi": 37,
      "hit": false,
      "t": 75238.02000000018,
      "d": 158.72999999999593,
      "v": 80
    },
    {
      "midi": 54,
      "hit": false,
      "t": 75238.02000000032,
      "d": 79.36500000000524,
      "v": 50
    },
    {
      "midi": 54,
      "hit": false,
      "t": 75357.06750000032,
      "d": 79.36500000000524,
      "v": 50
    },
    {
      "midi": 37,
      "hit": false,
      "t": 75476.11500000018,
      "d": 158.72999999999593,
      "v": 80
    },
    {
      "midi": 54,
      "hit": false,
      "t": 75476.11500000033,
      "d": 79.36500000000524,
      "v": 50
    },
    {
      "midi": 54,
      "hit": false,
      "t": 75595.16250000033,
      "d": 79.36500000000524,
      "v": 50
    },
    {
      "midi": 81,
      "hit": false,
      "t": 75714.21000000002,
      "d": 476.1900000000023,
      "v": 64
    },
    {
      "midi": 62,
      "hit": false,
      "t": 75714.21000000008,
      "d": 436.507500000007,
      "v": 127
    },
    {
      "midi": 35,
      "hit": false,
      "t": 75714.21000000014,
      "d": 317.4600000000064,
      "v": 100
    },
    {
      "midi": 37,
      "hit": false,
      "t": 75714.21000000018,
      "d": 158.72999999999593,
      "v": 80
    },
    {
      "midi": 54,
      "hit": false,
      "t": 75714.21000000033,
      "d": 79.36500000000524,
      "v": 50
    },
    {
      "midi": 54,
      "hit": false,
      "t": 75833.25750000033,
      "d": 79.36500000000524,
      "v": 50
    },
    {
      "midi": 54,
      "hit": false,
      "t": 75952.30500000033,
      "d": 79.36500000000524,
      "v": 50
    },
    {
      "midi": 54,
      "hit": false,
      "t": 76071.35250000033,
      "d": 79.36500000000524,
      "v": 50
    },
    {
      "midi": 85,
      "hit": false,
      "t": 76190.40000000002,
      "d": 952.3800000000047,
      "v": 64
    },
    {
      "midi": 64,
      "hit": false,
      "t": 76190.40000000008,
      "d": 218.2537500000035,
      "v": 127
    },
    {
      "midi": 35,
      "hit": false,
      "t": 76190.40000000014,
      "d": 317.4600000000064,
      "v": 100
    },
    {
      "midi": 54,
      "hit": false,
      "t": 76190.40000000033,
      "d": 79.36500000000524,
      "v": 50
    },
    {
      "midi": 54,
      "hit": false,
      "t": 76309.44750000033,
      "d": 79.36500000000524,
      "v": 50
    },
    {
      "midi": 66,
      "hit": false,
      "t": 76423.53468750008,
      "d": 218.2537500000035,
      "v": 127
    },
    {
      "midi": 37,
      "hit": false,
      "t": 76428.49500000017,
      "d": 79.36500000000524,
      "v": 80
    },
    {
      "midi": 54,
      "hit": false,
      "t": 76428.49500000033,
      "d": 79.36500000000524,
      "v": 50
    },
    {
      "midi": 37,
      "hit": false,
      "t": 76547.54250000017,
      "d": 79.36500000000524,
      "v": 80
    },
    {
      "midi": 54,
      "hit": false,
      "t": 76547.54250000033,
      "d": 79.36500000000524,
      "v": 50
    },
    {
      "midi": 64,
      "hit": false,
      "t": 76666.59000000008,
      "d": 218.2537500000035,
      "v": 127
    },
    {
      "midi": 35,
      "hit": false,
      "t": 76666.59000000014,
      "d": 317.4600000000064,
      "v": 100
    },
    {
      "midi": 37,
      "hit": false,
      "t": 76666.59000000017,
      "d": 79.36500000000524,
      "v": 80
    },
    {
      "midi": 54,
      "hit": false,
      "t": 76666.59000000033,
      "d": 79.36500000000524,
      "v": 50
    },
    {
      "midi": 37,
      "hit": false,
      "t": 76785.63750000017,
      "d": 79.36500000000524,
      "v": 80
    },
    {
      "midi": 54,
      "hit": false,
      "t": 76785.63750000033,
      "d": 79.36500000000524,
      "v": 50
    },
    {
      "midi": 62,
      "hit": false,
      "t": 76899.72468750009,
      "d": 1170.6337499999936,
      "v": 127
    },
    {
      "midi": 37,
      "hit": false,
      "t": 76899.72468750017,
      "d": 158.72999999999593,
      "v": 80
    },
    {
      "midi": 54,
      "hit": false,
      "t": 76904.68500000033,
      "d": 79.36500000000524,
      "v": 50
    },
    {
      "midi": 54,
      "hit": false,
      "t": 77023.73250000033,
      "d": 79.36500000000524,
      "v": 50
    },
    {
      "midi": 86,
      "hit": false,
      "t": 77142.78000000003,
      "d": 476.1900000000023,
      "v": 64
    },
    {
      "midi": 35,
      "hit": false,
      "t": 77142.78000000014,
      "d": 317.4600000000064,
      "v": 100
    },
    {
      "midi": 37,
      "hit": false,
      "t": 77142.78000000017,
      "d": 158.72999999999593,
      "v": 80
    },
    {
      "midi": 54,
      "hit": false,
      "t": 77142.78000000033,
      "d": 79.36500000000524,
      "v": 50
    },
    {
      "midi": 54,
      "hit": false,
      "t": 77261.82750000033,
      "d": 79.36500000000524,
      "v": 50
    },
    {
      "midi": 37,
      "hit": false,
      "t": 77380.87500000017,
      "d": 158.72999999999593,
      "v": 80
    },
    {
      "midi": 54,
      "hit": false,
      "t": 77380.87500000033,
      "d": 79.36500000000524,
      "v": 50
    },
    {
      "midi": 54,
      "hit": false,
      "t": 77499.92250000034,
      "d": 79.36500000000524,
      "v": 50
    },
    {
      "midi": 83,
      "hit": false,
      "t": 77618.97000000003,
      "d": 476.1900000000023,
      "v": 64
    },
    {
      "midi": 35,
      "hit": false,
      "t": 77618.97000000015,
      "d": 317.4600000000064,
      "v": 100
    },
    {
      "midi": 37,
      "hit": false,
      "t": 77618.97000000018,
      "d": 158.72999999999593,
      "v": 80
    },
    {
      "midi": 54,
      "hit": false,
      "t": 77618.97000000034,
      "d": 79.36500000000524,
      "v": 50
    },
    {
      "midi": 54,
      "hit": false,
      "t": 77738.01750000034,
      "d": 79.36500000000524,
      "v": 50
    },
    {
      "midi": 54,
      "hit": false,
      "t": 77857.06500000034,
      "d": 79.36500000000524,
      "v": 50
    },
    {
      "midi": 54,
      "hit": false,
      "t": 77976.11250000034,
      "d": 79.36500000000524,
      "v": 50
    },
    {
      "midi": 67,
      "hit": false,
      "t": 78085.23937499998,
      "d": 1760.910937499997,
      "v": 50
    },
    {
      "midi": 79,
      "hit": false,
      "t": 78095.16000000003,
      "d": 1904.7599999999948,
      "v": 64
    },
    {
      "midi": 35,
      "hit": false,
      "t": 78095.16000000015,
      "d": 317.4600000000064,
      "v": 100
    },
    {
      "midi": 54,
      "hit": false,
      "t": 78095.16000000034,
      "d": 79.36500000000524,
      "v": 50
    },
    {
      "midi": 54,
      "hit": false,
      "t": 78214.20750000034,
      "d": 79.36500000000524,
      "v": 50
    },
    {
      "midi": 37,
      "hit": false,
      "t": 78333.25500000016,
      "d": 79.36500000000524,
      "v": 80
    },
    {
      "midi": 54,
      "hit": false,
      "t": 78333.25500000034,
      "d": 79.36500000000524,
      "v": 50
    },
    {
      "midi": 37,
      "hit": false,
      "t": 78452.30250000017,
      "d": 79.36500000000524,
      "v": 80
    },
    {
      "midi": 54,
      "hit": false,
      "t": 78452.30250000034,
      "d": 79.36500000000524,
      "v": 50
    },
    {
      "midi": 71,
      "hit": false,
      "t": 78571.35000000008,
      "d": 436.507500000007,
      "v": 127
    },
    {
      "midi": 35,
      "hit": false,
      "t": 78571.35000000015,
      "d": 317.4600000000064,
      "v": 100
    },
    {
      "midi": 37,
      "hit": false,
      "t": 78571.35000000017,
      "d": 79.36500000000524,
      "v": 80
    },
    {
      "midi": 54,
      "hit": false,
      "t": 78571.35000000034,
      "d": 79.36500000000524,
      "v": 50
    },
    {
      "midi": 37,
      "hit": false,
      "t": 78690.39750000017,
      "d": 79.36500000000524,
      "v": 80
    },
    {
      "midi": 54,
      "hit": false,
      "t": 78690.39750000034,
      "d": 79.36500000000524,
      "v": 50
    },
    {
      "midi": 37,
      "hit": false,
      "t": 78804.48468750017,
      "d": 158.72999999999593,
      "v": 80
    },
    {
      "midi": 54,
      "hit": false,
      "t": 78809.44500000034,
      "d": 79.36500000000524,
      "v": 50
    },
    {
      "midi": 54,
      "hit": false,
      "t": 78928.49250000034,
      "d": 79.36500000000524,
      "v": 50
    },
    {
      "midi": 67,
      "hit": false,
      "t": 79047.54000000008,
      "d": 218.2537500000035,
      "v": 127
    },
    {
      "midi": 35,
      "hit": false,
      "t": 79047.54000000015,
      "d": 317.4600000000064,
      "v": 100
    },
    {
      "midi": 37,
      "hit": false,
      "t": 79047.54000000017,
      "d": 158.72999999999593,
      "v": 80
    },
    {
      "midi": 54,
      "hit": false,
      "t": 79047.54000000034,
      "d": 79.36500000000524,
      "v": 50
    },
    {
      "midi": 54,
      "hit": false,
      "t": 79166.58750000034,
      "d": 79.36500000000524,
      "v": 50
    },
    {
      "midi": 69,
      "hit": false,
      "t": 79280.67468750008,
      "d": 436.507500000007,
      "v": 127
    },
    {
      "midi": 37,
      "hit": false,
      "t": 79285.63500000017,
      "d": 158.72999999999593,
      "v": 80
    },
    {
      "midi": 54,
      "hit": false,
      "t": 79285.63500000034,
      "d": 79.36500000000524,
      "v": 50
    },
    {
      "midi": 54,
      "hit": false,
      "t": 79404.68250000034,
      "d": 79.36500000000524,
      "v": 50
    },
    {
      "midi": 35,
      "hit": false,
      "t": 79523.73000000016,
      "d": 317.4600000000064,
      "v": 100
    },
    {
      "midi": 37,
      "hit": false,
      "t": 79523.73000000017,
      "d": 158.72999999999593,
      "v": 80
    },
    {
      "midi": 54,
      "hit": false,
      "t": 79523.73000000035,
      "d": 79.36500000000524,
      "v": 50
    },
    {
      "midi": 54,
      "hit": false,
      "t": 79642.77750000035,
      "d": 79.36500000000524,
      "v": 50
    },
    {
      "midi": 71,
      "hit": false,
      "t": 79756.86468750008,
      "d": 218.2537500000035,
      "v": 127
    },
    {
      "midi": 54,
      "hit": false,
      "t": 79761.82500000035,
      "d": 79.36500000000524,
      "v": 50
    },
    {
      "midi": 54,
      "hit": false,
      "t": 79880.87250000035,
      "d": 79.36500000000524,
      "v": 50
    },
    {
      "midi": 69,
      "hit": false,
      "t": 79945.35656249998,
      "d": 4022.8134374999936,
      "v": 50
    },
    {
      "midi": 81,
      "hit": false,
      "t": 79999.92000000003,
      "d": 3809.520000000004,
      "v": 64
    },
    {
      "midi": 69,
      "hit": false,
      "t": 79999.92000000009,
      "d": 912.6974999999948,
      "v": 127
    },
    {
      "midi": 35,
      "hit": false,
      "t": 79999.92000000016,
      "d": 317.4600000000064,
      "v": 100
    },
    {
      "midi": 54,
      "hit": false,
      "t": 79999.92000000035,
      "d": 79.36500000000524,
      "v": 50
    },
    {
      "midi": 54,
      "hit": false,
      "t": 80118.96750000035,
      "d": 79.36500000000524,
      "v": 50
    },
    {
      "midi": 37,
      "hit": false,
      "t": 80238.01500000016,
      "d": 79.36500000000524,
      "v": 80
    },
    {
      "midi": 54,
      "hit": false,
      "t": 80238.01500000035,
      "d": 79.36500000000524,
      "v": 50
    },
    {
      "midi": 37,
      "hit": false,
      "t": 80357.06250000016,
      "d": 79.36500000000524,
      "v": 80
    },
    {
      "midi": 54,
      "hit": false,
      "t": 80357.06250000035,
      "d": 79.36500000000524,
      "v": 50
    },
    {
      "midi": 37,
      "hit": false,
      "t": 80476.11000000016,
      "d": 79.36500000000524,
      "v": 80
    },
    {
      "midi": 35,
      "hit": false,
      "t": 80476.11000000016,
      "d": 317.4600000000064,
      "v": 100
    },
    {
      "midi": 54,
      "hit": false,
      "t": 80476.11000000035,
      "d": 79.36500000000524,
      "v": 50
    },
    {
      "midi": 37,
      "hit": false,
      "t": 80595.15750000016,
      "d": 79.36500000000524,
      "v": 80
    },
    {
      "midi": 54,
      "hit": false,
      "t": 80595.15750000035,
      "d": 79.36500000000524,
      "v": 50
    },
    {
      "midi": 37,
      "hit": false,
      "t": 80709.24468750016,
      "d": 158.72999999999593,
      "v": 80
    },
    {
      "midi": 54,
      "hit": false,
      "t": 80714.20500000035,
      "d": 79.36500000000524,
      "v": 50
    },
    {
      "midi": 54,
      "hit": false,
      "t": 80833.25250000035,
      "d": 79.36500000000524,
      "v": 50
    },
    {
      "midi": 62,
      "hit": false,
      "t": 80952.30000000008,
      "d": 436.507500000007,
      "v": 127
    },
    {
      "midi": 37,
      "hit": false,
      "t": 80952.30000000016,
      "d": 158.72999999999593,
      "v": 80
    },
    {
      "midi": 35,
      "hit": false,
      "t": 80952.30000000016,
      "d": 317.4600000000064,
      "v": 100
    },
    {
      "midi": 54,
      "hit": false,
      "t": 80952.30000000035,
      "d": 79.36500000000524,
      "v": 50
    },
    {
      "midi": 54,
      "hit": false,
      "t": 81071.34750000035,
      "d": 79.36500000000524,
      "v": 50
    },
    {
      "midi": 37,
      "hit": false,
      "t": 81190.39500000016,
      "d": 158.72999999999593,
      "v": 80
    },
    {
      "midi": 54,
      "hit": false,
      "t": 81190.39500000035,
      "d": 79.36500000000524,
      "v": 50
    },
    {
      "midi": 54,
      "hit": false,
      "t": 81309.44250000035,
      "d": 79.36500000000524,
      "v": 50
    },
    {
      "midi": 66,
      "hit": false,
      "t": 81428.49000000008,
      "d": 436.507500000007,
      "v": 127
    },
    {
      "midi": 37,
      "hit": false,
      "t": 81428.49000000017,
      "d": 158.72999999999593,
      "v": 80
    },
    {
      "midi": 35,
      "hit": false,
      "t": 81428.49000000017,
      "d": 317.4600000000064,
      "v": 100
    },
    {
      "midi": 54,
      "hit": false,
      "t": 81428.49000000035,
      "d": 79.36500000000524,
      "v": 50
    },
    {
      "midi": 54,
      "hit": false,
      "t": 81547.53750000036,
      "d": 79.36500000000524,
      "v": 50
    },
    {
      "midi": 54,
      "hit": false,
      "t": 81666.58500000036,
      "d": 79.36500000000524,
      "v": 50
    },
    {
      "midi": 54,
      "hit": false,
      "t": 81785.63250000036,
      "d": 79.36500000000524,
      "v": 50
    },
    {
      "midi": 64,
      "hit": false,
      "t": 81904.68000000008,
      "d": 1904.7599999999948,
      "v": 127
    },
    {
      "midi": 35,
      "hit": false,
      "t": 81904.68000000017,
      "d": 317.4600000000064,
      "v": 100
    },
    {
      "midi": 54,
      "hit": false,
      "t": 81904.68000000036,
      "d": 79.36500000000524,
      "v": 50
    },
    {
      "midi": 54,
      "hit": false,
      "t": 82023.72750000036,
      "d": 79.36500000000524,
      "v": 50
    },
    {
      "midi": 37,
      "hit": false,
      "t": 82142.77500000015,
      "d": 79.36500000000524,
      "v": 80
    },
    {
      "midi": 54,
      "hit": false,
      "t": 82142.77500000036,
      "d": 79.36500000000524,
      "v": 50
    },
    {
      "midi": 74,
      "hit": false,
      "t": 82182.4575,
      "d": 163.69031249999534,
      "v": 64
    },
    {
      "midi": 37,
      "hit": false,
      "t": 82261.82250000015,
      "d": 79.36500000000524,
      "v": 80
    },
    {
      "midi": 54,
      "hit": false,
      "t": 82261.82250000036,
      "d": 79.36500000000524,
      "v": 50
    },
    {
      "midi": 62,
      "hit": false,
      "t": 82380.87,
      "d": 163.69031249999534,
      "v": 64
    },
    {
      "midi": 37,
      "hit": false,
      "t": 82380.87000000016,
      "d": 79.36500000000524,
      "v": 80
    },
    {
      "midi": 35,
      "hit": false,
      "t": 82380.87000000017,
      "d": 317.4600000000064,
      "v": 100
    },
    {
      "midi": 54,
      "hit": false,
      "t": 82380.87000000036,
      "d": 79.36500000000524,
      "v": 50
    },
    {
      "midi": 37,
      "hit": false,
      "t": 82499.91750000016,
      "d": 79.36500000000524,
      "v": 80
    },
    {
      "midi": 54,
      "hit": false,
      "t": 82499.91750000036,
      "d": 79.36500000000524,
      "v": 50
    },
    {
      "midi": 37,
      "hit": false,
      "t": 82614.00468750016,
      "d": 158.72999999999593,
      "v": 80
    },
    {
      "midi": 54,
      "hit": false,
      "t": 82618.96500000036,
      "d": 79.36500000000524,
      "v": 50
    },
    {
      "midi": 54,
      "hit": false,
      "t": 82738.01250000036,
      "d": 79.36500000000524,
      "v": 50
    },
    {
      "midi": 37,
      "hit": false,
      "t": 82857.06000000016,
      "d": 158.72999999999593,
      "v": 80
    },
    {
      "midi": 35,
      "hit": false,
      "t": 82857.06000000017,
      "d": 317.4600000000064,
      "v": 100
    },
    {
      "midi": 54,
      "hit": false,
      "t": 82857.06000000036,
      "d": 79.36500000000524,
      "v": 50
    },
    {
      "midi": 76,
      "hit": false,
      "t": 82886.821875,
      "d": 163.69031249999534,
      "v": 64
    },
    {
      "midi": 54,
      "hit": false,
      "t": 82976.10750000036,
      "d": 79.36500000000524,
      "v": 50
    },
    {
      "midi": 64,
      "hit": false,
      "t": 83095.15499999998,
      "d": 163.69031249999534,
      "v": 64
    },
    {
      "midi": 37,
      "hit": false,
      "t": 83095.15500000016,
      "d": 158.72999999999593,
      "v": 80
    },
    {
      "midi": 54,
      "hit": false,
      "t": 83095.15500000036,
      "d": 79.36500000000524,
      "v": 50
    },
    {
      "midi": 54,
      "hit": false,
      "t": 83214.20250000036,
      "d": 79.36500000000524,
      "v": 50
    },
    {
      "midi": 37,
      "hit": false,
      "t": 83333.25000000016,
      "d": 158.72999999999593,
      "v": 80
    },
    {
      "midi": 35,
      "hit": false,
      "t": 83333.25000000017,
      "d": 317.4600000000064,
      "v": 100
    },
    {
      "midi": 54,
      "hit": false,
      "t": 83333.25000000036,
      "d": 79.36500000000524,
      "v": 50
    },
    {
      "midi": 54,
      "hit": false,
      "t": 83452.29750000036,
      "d": 79.36500000000524,
      "v": 50
    },
    {
      "midi": 54,
      "hit": false,
      "t": 83571.34500000036,
      "d": 79.36500000000524,
      "v": 50
    },
    {
      "midi": 54,
      "hit": false,
      "t": 83690.39250000037,
      "d": 79.36500000000524,
      "v": 50
    },
    {
      "midi": 82,
      "hit": false,
      "t": 83809.44000000003,
      "d": 4761.899999999994,
      "v": 64
    },
    {
      "midi": 35,
      "hit": false,
      "t": 83809.44000000018,
      "d": 317.4600000000064,
      "v": 100
    },
    {
      "midi": 54,
      "hit": false,
      "t": 83809.44000000037,
      "d": 79.36500000000524,
      "v": 50
    },
    {
      "midi": 54,
      "hit": false,
      "t": 83928.48750000037,
      "d": 79.36500000000524,
      "v": 50
    },
    {
      "midi": 37,
      "hit": false,
      "t": 84047.53500000015,
      "d": 79.36500000000524,
      "v": 80
    },
    {
      "midi": 54,
      "hit": false,
      "t": 84047.53500000037,
      "d": 79.36500000000524,
      "v": 50
    },
    {
      "midi": 77,
      "hit": false,
      "t": 84087.21749999997,
      "d": 163.69031249999534,
      "v": 64
    },
    {
      "midi": 37,
      "hit": false,
      "t": 84166.58250000015,
      "d": 79.36500000000524,
      "v": 80
    },
    {
      "midi": 54,
      "hit": false,
      "t": 84166.58250000037,
      "d": 79.36500000000524,
      "v": 50
    },
    {
      "midi": 65,
      "hit": false,
      "t": 84285.62999999996,
      "d": 163.69031249999534,
      "v": 64
    },
    {
      "midi": 37,
      "hit": false,
      "t": 84285.63000000015,
      "d": 79.36500000000524,
      "v": 80
    },
    {
      "midi": 35,
      "hit": false,
      "t": 84285.63000000018,
      "d": 317.4600000000064,
      "v": 100
    },
    {
      "midi": 54,
      "hit": false,
      "t": 84285.63000000037,
      "d": 79.36500000000524,
      "v": 50
    },
    {
      "midi": 37,
      "hit": false,
      "t": 84404.67750000015,
      "d": 79.36500000000524,
      "v": 80
    },
    {
      "midi": 54,
      "hit": false,
      "t": 84404.67750000037,
      "d": 79.36500000000524,
      "v": 50
    },
    {
      "midi": 37,
      "hit": false,
      "t": 84518.76468750015,
      "d": 158.72999999999593,
      "v": 80
    },
    {
      "midi": 54,
      "hit": false,
      "t": 84523.72500000037,
      "d": 79.36500000000524,
      "v": 50
    },
    {
      "midi": 54,
      "hit": false,
      "t": 84642.77250000037,
      "d": 79.36500000000524,
      "v": 50
    },
    {
      "midi": 37,
      "hit": false,
      "t": 84761.82000000015,
      "d": 158.72999999999593,
      "v": 80
    },
    {
      "midi": 35,
      "hit": false,
      "t": 84761.82000000018,
      "d": 317.4600000000064,
      "v": 100
    },
    {
      "midi": 54,
      "hit": false,
      "t": 84761.82000000037,
      "d": 79.36500000000524,
      "v": 50
    },
    {
      "midi": 79,
      "hit": false,
      "t": 84791.58187499996,
      "d": 163.69031249999534,
      "v": 64
    },
    {
      "midi": 54,
      "hit": false,
      "t": 84880.86750000037,
      "d": 79.36500000000524,
      "v": 50
    },
    {
      "midi": 67,
      "hit": false,
      "t": 84994.95468749997,
      "d": 243.05531250000058,
      "v": 50
    },
    {
      "midi": 67,
      "hit": false,
      "t": 84994.95468750008,
      "d": 218.2537500000035,
      "v": 127
    },
    {
      "midi": 67,
      "hit": false,
      "t": 84999.91499999995,
      "d": 163.69031249999534,
      "v": 64
    },
    {
      "midi": 37,
      "hit": false,
      "t": 84999.91500000015,
      "d": 158.72999999999593,
      "v": 80
    },
    {
      "midi": 54,
      "hit": false,
      "t": 84999.91500000037,
      "d": 79.36500000000524,
      "v": 50
    },
    {
      "midi": 54,
      "hit": false,
      "t": 85118.96250000037,
      "d": 79.36500000000524,
      "v": 50
    },
    {
      "midi": 68,
      "hit": false,
      "t": 85213.20843749997,
      "d": 238.09500000000116,
      "v": 50
    },
    {
      "midi": 68,
      "hit": false,
      "t": 85238.01000000008,
      "d": 218.2537500000035,
      "v": 127
    },
    {
      "midi": 37,
      "hit": false,
      "t": 85238.01000000015,
      "d": 158.72999999999593,
      "v": 80
    },
    {
      "midi": 35,
      "hit": false,
      "t": 85238.01000000018,
      "d": 317.4600000000064,
      "v": 100
    },
    {
      "midi": 54,
      "hit": false,
      "t": 85238.01000000037,
      "d": 79.36500000000524,
      "v": 50
    },
    {
      "midi": 54,
      "hit": false,
      "t": 85357.05750000037,
      "d": 79.36500000000524,
      "v": 50
    },
    {
      "midi": 70,
      "hit": false,
      "t": 85471.14468750008,
      "d": 2936.5050000000047,
      "v": 127
    },
    {
      "midi": 48,
      "hit": false,
      "t": 85476.10500000001,
      "d": 158.72999999999593,
      "v": 80
    },
    {
      "midi": 54,
      "hit": false,
      "t": 85476.10500000037,
      "d": 79.36500000000524,
      "v": 50
    },
    {
      "midi": 70,
      "hit": false,
      "t": 85486.02562499997,
      "d": 3105.1556249999994,
      "v": 50
    },
    {
      "midi": 82,
      "hit": false,
      "t": 85520.74781249995,
      "d": 153.7696874999965,
      "v": 64
    },
    {
      "midi": 54,
      "hit": false,
      "t": 85595.15250000037,
      "d": 79.36500000000524,
      "v": 50
    },
    {
      "midi": 35,
      "hit": false,
      "t": 85714.20000000019,
      "d": 317.4600000000064,
      "v": 100
    },
    {
      "midi": 54,
      "hit": false,
      "t": 85714.20000000038,
      "d": 79.36500000000524,
      "v": 50
    },
    {
      "midi": 54,
      "hit": false,
      "t": 85833.24750000038,
      "d": 79.36500000000524,
      "v": 50
    },
    {
      "midi": 82,
      "hit": false,
      "t": 85952.29499999994,
      "d": 173.61093749999418,
      "v": 64
    },
    {
      "midi": 37,
      "hit": false,
      "t": 85952.29500000014,
      "d": 79.36500000000524,
      "v": 80
    },
    {
      "midi": 54,
      "hit": false,
      "t": 85952.29500000038,
      "d": 79.36500000000524,
      "v": 50
    },
    {
      "midi": 37,
      "hit": false,
      "t": 86071.34250000014,
      "d": 79.36500000000524,
      "v": 80
    },
    {
      "midi": 54,
      "hit": false,
      "t": 86071.34250000038,
      "d": 79.36500000000524,
      "v": 50
    },
    {
      "midi": 70,
      "hit": false,
      "t": 86190.38999999994,
      "d": 148.8093749999971,
      "v": 64
    },
    {
      "midi": 37,
      "hit": false,
      "t": 86190.39000000014,
      "d": 79.36500000000524,
      "v": 80
    },
    {
      "midi": 35,
      "hit": false,
      "t": 86190.39000000019,
      "d": 317.4600000000064,
      "v": 100
    },
    {
      "midi": 54,
      "hit": false,
      "t": 86190.39000000038,
      "d": 79.36500000000524,
      "v": 50
    },
    {
      "midi": 37,
      "hit": false,
      "t": 86309.43750000015,
      "d": 79.36500000000524,
      "v": 80
    },
    {
      "midi": 54,
      "hit": false,
      "t": 86309.43750000038,
      "d": 79.36500000000524,
      "v": 50
    },
    {
      "midi": 37,
      "hit": false,
      "t": 86423.52468750015,
      "d": 158.72999999999593,
      "v": 80
    },
    {
      "midi": 48,
      "hit": false,
      "t": 86428.485,
      "d": 158.72999999999593,
      "v": 80
    },
    {
      "midi": 54,
      "hit": false,
      "t": 86428.48500000038,
      "d": 79.36500000000524,
      "v": 50
    },
    {
      "midi": 54,
      "hit": false,
      "t": 86547.53250000038,
      "d": 79.36500000000524,
      "v": 50
    },
    {
      "midi": 82,
      "hit": false,
      "t": 86666.57999999994,
      "d": 168.65062499999476,
      "v": 64
    },
    {
      "midi": 48,
      "hit": false,
      "t": 86666.58,
      "d": 158.72999999999593,
      "v": 80
    },
    {
      "midi": 37,
      "hit": false,
      "t": 86666.58000000015,
      "d": 158.72999999999593,
      "v": 80
    },
    {
      "midi": 35,
      "hit": false,
      "t": 86666.58000000019,
      "d": 317.4600000000064,
      "v": 100
    },
    {
      "midi": 54,
      "hit": false,
      "t": 86666.58000000038,
      "d": 79.36500000000524,
      "v": 50
    },
    {
      "midi": 54,
      "hit": false,
      "t": 86785.62750000038,
      "d": 79.36500000000524,
      "v": 50
    },
    {
      "midi": 45,
      "hit": false,
      "t": 86904.67500000002,
      "d": 158.72999999999593,
      "v": 80
    },
    {
      "midi": 37,
      "hit": false,
      "t": 86904.67500000015,
      "d": 158.72999999999593,
      "v": 80
    },
    {
      "midi": 54,
      "hit": false,
      "t": 86904.67500000038,
      "d": 79.36500000000524,
      "v": 50
    },
    {
      "midi": 70,
      "hit": false,
      "t": 86929.47656249994,
      "d": 84.32531250000466,
      "v": 64
    },
    {
      "midi": 54,
      "hit": false,
      "t": 87023.72250000038,
      "d": 79.36500000000524,
      "v": 50
    },
    {
      "midi": 37,
      "hit": false,
      "t": 87142.77000000015,
      "d": 158.72999999999593,
      "v": 80
    },
    {
      "midi": 35,
      "hit": false,
      "t": 87142.7700000002,
      "d": 317.4600000000064,
      "v": 100
    },
    {
      "midi": 54,
      "hit": false,
      "t": 87142.77000000038,
      "d": 79.36500000000524,
      "v": 50
    },
    {
      "midi": 54,
      "hit": false,
      "t": 87261.81750000038,
      "d": 79.36500000000524,
      "v": 50
    },
    {
      "midi": 41,
      "hit": false,
      "t": 87380.86500000002,
      "d": 158.72999999999593,
      "v": 80
    },
    {
      "midi": 54,
      "hit": false,
      "t": 87380.86500000038,
      "d": 79.36500000000524,
      "v": 50
    },
    {
      "midi": 94,
      "hit": false,
      "t": 87420.54749999994,
      "d": 396.8249999999971,
      "v": 64
    },
    {
      "midi": 54,
      "hit": false,
      "t": 87499.91250000038,
      "d": 79.36500000000524,
      "v": 50
    },
    {
      "midi": 35,
      "hit": false,
      "t": 87618.9600000002,
      "d": 317.4600000000064,
      "v": 100
    },
    {
      "midi": 54,
      "hit": false,
      "t": 87618.96000000038,
      "d": 79.36500000000524,
      "v": 50
    },
    {
      "midi": 54,
      "hit": false,
      "t": 87738.00750000039,
      "d": 79.36500000000524,
      "v": 50
    },
    {
      "midi": 48,
      "hit": false,
      "t": 87857.055,
      "d": 158.72999999999593,
      "v": 80
    },
    {
      "midi": 37,
      "hit": false,
      "t": 87857.05500000014,
      "d": 79.36500000000524,
      "v": 80
    },
    {
      "midi": 54,
      "hit": false,
      "t": 87857.05500000039,
      "d": 79.36500000000524,
      "v": 50
    },
    {
      "midi": 82,
      "hit": false,
      "t": 87896.73749999994,
      "d": 193.4521875000064,
      "v": 64
    },
    {
      "midi": 37,
      "hit": false,
      "t": 87976.10250000014,
      "d": 79.36500000000524,
      "v": 80
    },
    {
      "midi": 54,
      "hit": false,
      "t": 87976.10250000039,
      "d": 79.36500000000524,
      "v": 50
    },
    {
      "midi": 41,
      "hit": false,
      "t": 88095.15000000001,
      "d": 158.72999999999593,
      "v": 80
    },
    {
      "midi": 37,
      "hit": false,
      "t": 88095.15000000014,
      "d": 79.36500000000524,
      "v": 80
    },
    {
      "midi": 35,
      "hit": false,
      "t": 88095.1500000002,
      "d": 317.4600000000064,
      "v": 100
    },
    {
      "midi": 54,
      "hit": false,
      "t": 88095.15000000039,
      "d": 79.36500000000524,
      "v": 50
    },
    {
      "midi": 70,
      "hit": false,
      "t": 88129.87218749995,
      "d": 203.37281250000524,
      "v": 64
    },
    {
      "midi": 37,
      "hit": false,
      "t": 88214.19750000014,
      "d": 79.36500000000524,
      "v": 80
    },
    {
      "midi": 54,
      "hit": false,
      "t": 88214.19750000039,
      "d": 79.36500000000524,
      "v": 50
    },
    {
      "midi": 37,
      "hit": false,
      "t": 88328.28468750014,
      "d": 158.72999999999593,
      "v": 80
    },
    {
      "midi": 54,
      "hit": false,
      "t": 88333.24500000039,
      "d": 79.36500000000524,
      "v": 50
    },
    {
      "midi": 54,
      "hit": false,
      "t": 88452.29250000039,
      "d": 79.36500000000524,
      "v": 50
    },
    {
      "midi": 45,
      "hit": false,
      "t": 88571.34000000001,
      "d": 158.72999999999593,
      "v": 80
    },
    {
      "midi": 67,
      "hit": false,
      "t": 88571.34000000008,
      "d": 362.10281250000116,
      "v": 127
    },
    {
      "midi": 37,
      "hit": false,
      "t": 88571.34000000014,
      "d": 158.72999999999593,
      "v": 80
    },
    {
      "midi": 35,
      "hit": false,
      "t": 88571.3400000002,
      "d": 317.4600000000064,
      "v": 100
    },
    {
      "midi": 54,
      "hit": false,
      "t": 88571.34000000039,
      "d": 79.36500000000524,
      "v": 50
    },
    {
      "midi": 54,
      "hit": false,
      "t": 88690.38750000039,
      "d": 79.36500000000524,
      "v": 50
    },
    {
      "midi": 45,
      "hit": false,
      "t": 88809.43500000001,
      "d": 158.72999999999593,
      "v": 80
    },
    {
      "midi": 37,
      "hit": false,
      "t": 88809.43500000014,
      "d": 158.72999999999593,
      "v": 80
    },
    {
      "midi": 54,
      "hit": false,
      "t": 88809.43500000039,
      "d": 79.36500000000524,
      "v": 50
    },
    {
      "midi": 54,
      "hit": false,
      "t": 88928.48250000039,
      "d": 79.36500000000524,
      "v": 50
    },
    {
      "midi": 45,
      "hit": false,
      "t": 89047.53000000001,
      "d": 79.36500000000524,
      "v": 80
    },
    {
      "midi": 68,
      "hit": false,
      "t": 89047.53000000009,
      "d": 436.507500000007,
      "v": 127
    },
    {
      "midi": 37,
      "hit": false,
      "t": 89047.53000000014,
      "d": 158.72999999999593,
      "v": 80
    },
    {
      "midi": 35,
      "hit": false,
      "t": 89047.5300000002,
      "d": 317.4600000000064,
      "v": 100
    },
    {
      "midi": 54,
      "hit": false,
      "t": 89047.53000000039,
      "d": 79.36500000000524,
      "v": 50
    },
    {
      "midi": 45,
      "hit": false,
      "t": 89166.57750000001,
      "d": 79.36500000000524,
      "v": 80
    },
    {
      "midi": 54,
      "hit": false,
      "t": 89166.57750000039,
      "d": 79.36500000000524,
      "v": 50
    },
    {
      "midi": 45,
      "hit": false,
      "t": 89285.62500000001,
      "d": 79.36500000000524,
      "v": 80
    },
    {
      "midi": 54,
      "hit": false,
      "t": 89285.6250000004,
      "d": 79.36500000000524,
      "v": 50
    },
    {
      "midi": 45,
      "hit": false,
      "t": 89404.67250000002,
      "d": 79.36500000000524,
      "v": 80
    },
    {
      "midi": 54,
      "hit": false,
      "t": 89404.6725000004,
      "d": 79.36500000000524,
      "v": 50
    },
    {
      "midi": 75,
      "hit": false,
      "t": 89523.71999999997,
      "d": 952.3800000000047,
      "v": 50
    },
    {
      "midi": 41,
      "hit": false,
      "t": 89523.72,
      "d": 158.72999999999593,
      "v": 80
    },
    {
      "midi": 35,
      "hit": false,
      "t": 89523.7200000002,
      "d": 317.4600000000064,
      "v": 100
    },
    {
      "midi": 54,
      "hit": false,
      "t": 89523.7200000004,
      "d": 79.36500000000524,
      "v": 50
    },
    {
      "midi": 54,
      "hit": false,
      "t": 89642.7675000004,
      "d": 79.36500000000524,
      "v": 50
    },
    {
      "midi": 37,
      "hit": false,
      "t": 89761.81500000013,
      "d": 79.36500000000524,
      "v": 80
    },
    {
      "midi": 54,
      "hit": false,
      "t": 89761.8150000004,
      "d": 79.36500000000524,
      "v": 50
    },
    {
      "midi": 37,
      "hit": false,
      "t": 89880.86250000013,
      "d": 79.36500000000524,
      "v": 80
    },
    {
      "midi": 54,
      "hit": false,
      "t": 89880.8625000004,
      "d": 79.36500000000524,
      "v": 50
    },
    {
      "midi": 70,
      "hit": false,
      "t": 89999.91000000009,
      "d": 223.2140625000029,
      "v": 127
    },
    {
      "midi": 37,
      "hit": false,
      "t": 89999.91000000013,
      "d": 79.36500000000524,
      "v": 80
    },
    {
      "midi": 35,
      "hit": false,
      "t": 89999.9100000002,
      "d": 317.4600000000064,
      "v": 100
    },
    {
      "midi": 54,
      "hit": false,
      "t": 89999.9100000004,
      "d": 79.36500000000524,
      "v": 50
    },
    {
      "midi": 37,
      "hit": false,
      "t": 90118.95750000014,
      "d": 79.36500000000524,
      "v": 80
    },
    {
      "midi": 54,
      "hit": false,
      "t": 90118.9575000004,
      "d": 79.36500000000524,
      "v": 50
    },
    {
      "midi": 37,
      "hit": false,
      "t": 90233.04468750014,
      "d": 158.72999999999593,
      "v": 80
    },
    {
      "midi": 54,
      "hit": false,
      "t": 90238.0050000004,
      "d": 79.36500000000524,
      "v": 50
    },
    {
      "midi": 54,
      "hit": false,
      "t": 90357.0525000004,
      "d": 79.36500000000524,
      "v": 50
    },
    {
      "midi": 70,
      "hit": false,
      "t": 90456.2587500001,
      "d": 267.8568749999977,
      "v": 127
    },
    {
      "midi": 74,
      "hit": false,
      "t": 90476.09999999998,
      "d": 952.3800000000047,
      "v": 50
    },
    {
      "midi": 37,
      "hit": false,
      "t": 90476.10000000014,
      "d": 158.72999999999593,
      "v": 80
    },
    {
      "midi": 35,
      "hit": false,
      "t": 90476.10000000021,
      "d": 317.4600000000064,
      "v": 100
    },
    {
      "midi": 54,
      "hit": false,
      "t": 90476.1000000004,
      "d": 79.36500000000524,
      "v": 50
    },
    {
      "midi": 54,
      "hit": false,
      "t": 90595.1475000004,
      "d": 79.36500000000524,
      "v": 50
    },
    {
      "midi": 37,
      "hit": false,
      "t": 90714.19500000014,
      "d": 158.72999999999593,
      "v": 80
    },
    {
      "midi": 54,
      "hit": false,
      "t": 90714.1950000004,
      "d": 79.36500000000524,
      "v": 50
    },
    {
      "midi": 72,
      "hit": false,
      "t": 90783.63937500009,
      "d": 252.97593749999942,
      "v": 127
    },
    {
      "midi": 54,
      "hit": false,
      "t": 90833.2425000004,
      "d": 79.36500000000524,
      "v": 50
    },
    {
      "midi": 37,
      "hit": false,
      "t": 90952.29000000014,
      "d": 158.72999999999593,
      "v": 80
    },
    {
      "midi": 35,
      "hit": false,
      "t": 90952.29000000021,
      "d": 317.4600000000064,
      "v": 100
    },
    {
      "midi": 54,
      "hit": false,
      "t": 90952.2900000004,
      "d": 79.36500000000524,
      "v": 50
    },
    {
      "midi": 54,
      "hit": false,
      "t": 91071.3375000004,
      "d": 79.36500000000524,
      "v": 50
    },
    {
      "midi": 54,
      "hit": false,
      "t": 91190.3850000004,
      "d": 79.36500000000524,
      "v": 50
    },
    {
      "midi": 63,
      "hit": false,
      "t": 91225.10718750009,
      "d": 332.34093750000466,
      "v": 127
    },
    {
      "midi": 54,
      "hit": false,
      "t": 91309.4325000004,
      "d": 79.36500000000524,
      "v": 50
    },
    {
      "midi": 72,
      "hit": false,
      "t": 91428.47999999998,
      "d": 952.3800000000047,
      "v": 50
    },
    {
      "midi": 35,
      "hit": false,
      "t": 91428.48000000021,
      "d": 317.4600000000064,
      "v": 100
    },
    {
      "midi": 54,
      "hit": false,
      "t": 91428.4800000004,
      "d": 79.36500000000524,
      "v": 50
    },
    {
      "midi": 54,
      "hit": false,
      "t": 91547.5275000004,
      "d": 79.36500000000524,
      "v": 50
    },
    {
      "midi": 63,
      "hit": false,
      "t": 91661.6146875001,
      "d": 158.72999999999593,
      "v": 127
    },
    {
      "midi": 37,
      "hit": false,
      "t": 91666.57500000013,
      "d": 79.36500000000524,
      "v": 80
    },
    {
      "midi": 54,
      "hit": false,
      "t": 91666.5750000004,
      "d": 79.36500000000524,
      "v": 50
    },
    {
      "midi": 37,
      "hit": false,
      "t": 91785.62250000013,
      "d": 79.36500000000524,
      "v": 80
    },
    {
      "midi": 54,
      "hit": false,
      "t": 91785.6225000004,
      "d": 79.36500000000524,
      "v": 50
    },
    {
      "midi": 63,
      "hit": false,
      "t": 91904.6700000001,
      "d": 218.2537500000035,
      "v": 127
    },
    {
      "midi": 37,
      "hit": false,
      "t": 91904.67000000013,
      "d": 79.36500000000524,
      "v": 80
    },
    {
      "midi": 35,
      "hit": false,
      "t": 91904.67000000022,
      "d": 317.4600000000064,
      "v": 100
    },
    {
      "midi": 54,
      "hit": false,
      "t": 91904.6700000004,
      "d": 79.36500000000524,
      "v": 50
    },
    {
      "midi": 37,
      "hit": false,
      "t": 92023.71750000013,
      "d": 79.36500000000524,
      "v": 80
    },
    {
      "midi": 54,
      "hit": false,
      "t": 92023.7175000004,
      "d": 79.36500000000524,
      "v": 50
    },
    {
      "midi": 60,
      "hit": false,
      "t": 92137.8046875001,
      "d": 218.2537500000035,
      "v": 127
    },
    {
      "midi": 37,
      "hit": false,
      "t": 92137.80468750013,
      "d": 158.72999999999593,
      "v": 80
    },
    {
      "midi": 54,
      "hit": false,
      "t": 92142.7650000004,
      "d": 79.36500000000524,
      "v": 50
    },
    {
      "midi": 54,
      "hit": false,
      "t": 92261.81250000041,
      "d": 79.36500000000524,
      "v": 50
    },
    {
      "midi": 70,
      "hit": false,
      "t": 92380.85999999999,
      "d": 952.3800000000047,
      "v": 50
    },
    {
      "midi": 63,
      "hit": false,
      "t": 92380.8600000001,
      "d": 570.4359375000058,
      "v": 127
    },
    {
      "midi": 37,
      "hit": false,
      "t": 92380.86000000013,
      "d": 158.72999999999593,
      "v": 80
    },
    {
      "midi": 35,
      "hit": false,
      "t": 92380.86000000022,
      "d": 317.4600000000064,
      "v": 100
    },
    {
      "midi": 54,
      "hit": false,
      "t": 92380.86000000041,
      "d": 79.36500000000524,
      "v": 50
    },
    {
      "midi": 54,
      "hit": false,
      "t": 92499.90750000041,
      "d": 79.36500000000524,
      "v": 50
    },
    {
      "midi": 37,
      "hit": false,
      "t": 92618.95500000013,
      "d": 158.72999999999593,
      "v": 80
    },
    {
      "midi": 54,
      "hit": false,
      "t": 92618.95500000041,
      "d": 79.36500000000524,
      "v": 50
    },
    {
      "midi": 54,
      "hit": false,
      "t": 92738.00250000041,
      "d": 79.36500000000524,
      "v": 50
    },
    {
      "midi": 75,
      "hit": false,
      "t": 92857.04999999994,
      "d": 218.2537500000035,
      "v": 64
    },
    {
      "midi": 87,
      "hit": false,
      "t": 92857.05,
      "d": 436.507500000007,
      "v": 64
    },
    {
      "midi": 37,
      "hit": false,
      "t": 92857.05000000013,
      "d": 158.72999999999593,
      "v": 80
    },
    {
      "midi": 35,
      "hit": false,
      "t": 92857.05000000022,
      "d": 317.4600000000064,
      "v": 100
    },
    {
      "midi": 54,
      "hit": false,
      "t": 92857.05000000041,
      "d": 79.36500000000524,
      "v": 50
    },
    {
      "midi": 54,
      "hit": false,
      "t": 92976.09750000041,
      "d": 79.36500000000524,
      "v": 50
    },
    {
      "midi": 54,
      "hit": false,
      "t": 93095.14500000041,
      "d": 79.36500000000524,
      "v": 50
    },
    {
      "midi": 54,
      "hit": false,
      "t": 93214.19250000041,
      "d": 79.36500000000524,
      "v": 50
    },
    {
      "midi": 72,
      "hit": false,
      "t": 93333.23999999999,
      "d": 952.3800000000047,
      "v": 50
    },
    {
      "midi": 63,
      "hit": false,
      "t": 93333.2400000001,
      "d": 436.507500000007,
      "v": 127
    },
    {
      "midi": 35,
      "hit": false,
      "t": 93333.24000000022,
      "d": 317.4600000000064,
      "v": 100
    },
    {
      "midi": 54,
      "hit": false,
      "t": 93333.24000000041,
      "d": 79.36500000000524,
      "v": 50
    },
    {
      "midi": 54,
      "hit": false,
      "t": 93452.28750000041,
      "d": 79.36500000000524,
      "v": 50
    },
    {
      "midi": 37,
      "hit": false,
      "t": 93571.33500000012,
      "d": 79.36500000000524,
      "v": 80
    },
    {
      "midi": 54,
      "hit": false,
      "t": 93571.33500000041,
      "d": 79.36500000000524,
      "v": 50
    },
    {
      "midi": 37,
      "hit": false,
      "t": 93690.38250000012,
      "d": 79.36500000000524,
      "v": 80
    },
    {
      "midi": 54,
      "hit": false,
      "t": 93690.38250000041,
      "d": 79.36500000000524,
      "v": 50
    },
    {
      "midi": 65,
      "hit": false,
      "t": 93809.43000000011,
      "d": 436.507500000007,
      "v": 127
    },
    {
      "midi": 37,
      "hit": false,
      "t": 93809.43000000012,
      "d": 79.36500000000524,
      "v": 80
    },
    {
      "midi": 35,
      "hit": false,
      "t": 93809.43000000023,
      "d": 317.4600000000064,
      "v": 100
    },
    {
      "midi": 54,
      "hit": false,
      "t": 93809.43000000042,
      "d": 79.36500000000524,
      "v": 50
    },
    {
      "midi": 37,
      "hit": false,
      "t": 93928.47750000012,
      "d": 79.36500000000524,
      "v": 80
    },
    {
      "midi": 54,
      "hit": false,
      "t": 93928.47750000042,
      "d": 79.36500000000524,
      "v": 50
    },
    {
      "midi": 37,
      "hit": false,
      "t": 94042.56468750013,
      "d": 158.72999999999593,
      "v": 80
    },
    {
      "midi": 54,
      "hit": false,
      "t": 94047.52500000042,
      "d": 79.36500000000524,
      "v": 50
    },
    {
      "midi": 54,
      "hit": false,
      "t": 94166.57250000042,
      "d": 79.36500000000524,
      "v": 50
    },
    {
      "midi": 70,
      "hit": false,
      "t": 94285.62,
      "d": 952.3800000000047,
      "v": 50
    },
    {
      "midi": 63,
      "hit": false,
      "t": 94285.62000000011,
      "d": 267.8568749999977,
      "v": 127
    },
    {
      "midi": 37,
      "hit": false,
      "t": 94285.62000000013,
      "d": 158.72999999999593,
      "v": 80
    },
    {
      "midi": 35,
      "hit": false,
      "t": 94285.62000000023,
      "d": 317.4600000000064,
      "v": 100
    },
    {
      "midi": 54,
      "hit": false,
      "t": 94285.62000000042,
      "d": 79.36500000000524,
      "v": 50
    },
    {
      "midi": 54,
      "hit": false,
      "t": 94404.66750000042,
      "d": 79.36500000000524,
      "v": 50
    },
    {
      "midi": 37,
      "hit": false,
      "t": 94523.71500000013,
      "d": 158.72999999999593,
      "v": 80
    },
    {
      "midi": 54,
      "hit": false,
      "t": 94523.71500000042,
      "d": 79.36500000000524,
      "v": 50
    },
    {
      "midi": 54,
      "hit": false,
      "t": 94642.76250000042,
      "d": 79.36500000000524,
      "v": 50
    },
    {
      "midi": 70,
      "hit": false,
      "t": 94761.81000000011,
      "d": 218.2537500000035,
      "v": 127
    },
    {
      "midi": 37,
      "hit": false,
      "t": 94761.81000000013,
      "d": 158.72999999999593,
      "v": 80
    },
    {
      "midi": 35,
      "hit": false,
      "t": 94761.81000000023,
      "d": 317.4600000000064,
      "v": 100
    },
    {
      "midi": 54,
      "hit": false,
      "t": 94761.81000000042,
      "d": 79.36500000000524,
      "v": 50
    },
    {
      "midi": 54,
      "hit": false,
      "t": 94880.85750000042,
      "d": 79.36500000000524,
      "v": 50
    },
    {
      "midi": 68,
      "hit": false,
      "t": 94994.94468750012,
      "d": 436.507500000007,
      "v": 127
    },
    {
      "midi": 45,
      "hit": false,
      "t": 94999.90500000001,
      "d": 158.72999999999593,
      "v": 80
    },
    {
      "midi": 54,
      "hit": false,
      "t": 94999.90500000042,
      "d": 79.36500000000524,
      "v": 50
    },
    {
      "midi": 54,
      "hit": false,
      "t": 95118.95250000042,
      "d": 79.36500000000524,
      "v": 50
    },
    {
      "midi": 75,
      "hit": false,
      "t": 95238,
      "d": 1904.7599999999948,
      "v": 50
    },
    {
      "midi": 35,
      "hit": false,
      "t": 95238.00000000023,
      "d": 317.4600000000064,
      "v": 100
    },
    {
      "midi": 54,
      "hit": false,
      "t": 95238.00000000042,
      "d": 79.36500000000524,
      "v": 50
    },
    {
      "midi": 54,
      "hit": false,
      "t": 95357.04750000042,
      "d": 79.36500000000524,
      "v": 50
    },
    {
      "midi": 67,
      "hit": false,
      "t": 95471.13468750012,
      "d": 218.2537500000035,
      "v": 127
    },
    {
      "midi": 45,
      "hit": false,
      "t": 95476.09500000002,
      "d": 158.72999999999593,
      "v": 80
    },
    {
      "midi": 37,
      "hit": false,
      "t": 95476.09500000012,
      "d": 79.36500000000524,
      "v": 80
    },
    {
      "midi": 54,
      "hit": false,
      "t": 95476.09500000042,
      "d": 79.36500000000524,
      "v": 50
    },
    {
      "midi": 37,
      "hit": false,
      "t": 95595.14250000012,
      "d": 79.36500000000524,
      "v": 80
    },
    {
      "midi": 54,
      "hit": false,
      "t": 95595.14250000042,
      "d": 79.36500000000524,
      "v": 50
    },
    {
      "midi": 45,
      "hit": false,
      "t": 95714.19000000002,
      "d": 158.72999999999593,
      "v": 80
    },
    {
      "midi": 65,
      "hit": false,
      "t": 95714.19000000012,
      "d": 218.2537500000035,
      "v": 127
    },
    {
      "midi": 37,
      "hit": false,
      "t": 95714.19000000012,
      "d": 79.36500000000524,
      "v": 80
    },
    {
      "midi": 35,
      "hit": false,
      "t": 95714.19000000024,
      "d": 317.4600000000064,
      "v": 100
    },
    {
      "midi": 54,
      "hit": false,
      "t": 95714.19000000042,
      "d": 79.36500000000524,
      "v": 50
    },
    {
      "midi": 37,
      "hit": false,
      "t": 95833.23750000012,
      "d": 79.36500000000524,
      "v": 80
    },
    {
      "midi": 54,
      "hit": false,
      "t": 95833.23750000042,
      "d": 79.36500000000524,
      "v": 50
    },
    {
      "midi": 63,
      "hit": false,
      "t": 95947.32468750012,
      "d": 158.72999999999593,
      "v": 127
    },
    {
      "midi": 37,
      "hit": false,
      "t": 95947.32468750012,
      "d": 158.72999999999593,
      "v": 80
    },
    {
      "midi": 54,
      "hit": false,
      "t": 95952.28500000043,
      "d": 79.36500000000524,
      "v": 50
    },
    {
      "midi": 54,
      "hit": false,
      "t": 96071.33250000043,
      "d": 79.36500000000524,
      "v": 50
    },
    {
      "midi": 63,
      "hit": false,
      "t": 96190.38000000012,
      "d": 218.2537500000035,
      "v": 127
    },
    {
      "midi": 37,
      "hit": false,
      "t": 96190.38000000012,
      "d": 158.72999999999593,
      "v": 80
    },
    {
      "midi": 35,
      "hit": false,
      "t": 96190.38000000024,
      "d": 317.4600000000064,
      "v": 100
    },
    {
      "midi": 54,
      "hit": false,
      "t": 96190.38000000043,
      "d": 79.36500000000524,
      "v": 50
    },
    {
      "midi": 54,
      "hit": false,
      "t": 96309.42750000043,
      "d": 79.36500000000524,
      "v": 50
    },
    {
      "midi": 65,
      "hit": false,
      "t": 96423.51468750012,
      "d": 218.2537500000035,
      "v": 127
    },
    {
      "midi": 37,
      "hit": false,
      "t": 96428.47500000012,
      "d": 158.72999999999593,
      "v": 80
    },
    {
      "midi": 54,
      "hit": false,
      "t": 96428.47500000043,
      "d": 79.36500000000524,
      "v": 50
    },
    {
      "midi": 54,
      "hit": false,
      "t": 96547.52250000043,
      "d": 79.36500000000524,
      "v": 50
    },
    {
      "midi": 45,
      "hit": false,
      "t": 96666.57,
      "d": 158.72999999999593,
      "v": 80
    },
    {
      "midi": 67,
      "hit": false,
      "t": 96666.57000000012,
      "d": 218.2537500000035,
      "v": 127
    },
    {
      "midi": 37,
      "hit": false,
      "t": 96666.57000000012,
      "d": 158.72999999999593,
      "v": 80
    },
    {
      "midi": 35,
      "hit": false,
      "t": 96666.57000000024,
      "d": 317.4600000000064,
      "v": 100
    },
    {
      "midi": 54,
      "hit": false,
      "t": 96666.57000000043,
      "d": 79.36500000000524,
      "v": 50
    },
    {
      "midi": 54,
      "hit": false,
      "t": 96785.61750000043,
      "d": 79.36500000000524,
      "v": 50
    },
    {
      "midi": 65,
      "hit": false,
      "t": 96899.70468750013,
      "d": 500.9915624999994,
      "v": 127
    },
    {
      "midi": 45,
      "hit": false,
      "t": 96904.66500000001,
      "d": 158.72999999999593,
      "v": 80
    },
    {
      "midi": 54,
      "hit": false,
      "t": 96904.66500000043,
      "d": 79.36500000000524,
      "v": 50
    },
    {
      "midi": 54,
      "hit": false,
      "t": 97023.71250000043,
      "d": 79.36500000000524,
      "v": 50
    },
    {
      "midi": 75,
      "hit": false,
      "t": 97142.76,
      "d": 952.3800000000047,
      "v": 50
    },
    {
      "midi": 45,
      "hit": false,
      "t": 97142.76000000001,
      "d": 158.72999999999593,
      "v": 80
    },
    {
      "midi": 35,
      "hit": false,
      "t": 97142.76000000024,
      "d": 317.4600000000064,
      "v": 100
    },
    {
      "midi": 54,
      "hit": false,
      "t": 97142.76000000043,
      "d": 79.36500000000524,
      "v": 50
    },
    {
      "midi": 54,
      "hit": false,
      "t": 97261.80750000043,
      "d": 79.36500000000524,
      "v": 50
    },
    {
      "midi": 45,
      "hit": false,
      "t": 97380.85500000001,
      "d": 79.36500000000524,
      "v": 80
    },
    {
      "midi": 37,
      "hit": false,
      "t": 97380.85500000011,
      "d": 79.36500000000524,
      "v": 80
    },
    {
      "midi": 54,
      "hit": false,
      "t": 97380.85500000043,
      "d": 79.36500000000524,
      "v": 50
    },
    {
      "midi": 45,
      "hit": false,
      "t": 97499.90250000001,
      "d": 79.36500000000524,
      "v": 80
    },
    {
      "midi": 37,
      "hit": false,
      "t": 97499.90250000011,
      "d": 79.36500000000524,
      "v": 80
    },
    {
      "midi": 54,
      "hit": false,
      "t": 97499.90250000043,
      "d": 79.36500000000524,
      "v": 50
    },
    {
      "midi": 41,
      "hit": false,
      "t": 97618.95,
      "d": 158.72999999999593,
      "v": 80
    },
    {
      "midi": 37,
      "hit": false,
      "t": 97618.95000000011,
      "d": 79.36500000000524,
      "v": 80
    },
    {
      "midi": 35,
      "hit": false,
      "t": 97618.95000000024,
      "d": 317.4600000000064,
      "v": 100
    },
    {
      "midi": 54,
      "hit": false,
      "t": 97618.95000000043,
      "d": 79.36500000000524,
      "v": 50
    },
    {
      "midi": 70,
      "hit": false,
      "t": 97648.71187500012,
      "d": 163.69031249999534,
      "v": 127
    },
    {
      "midi": 37,
      "hit": false,
      "t": 97737.99750000011,
      "d": 79.36500000000524,
      "v": 80
    },
    {
      "midi": 54,
      "hit": false,
      "t": 97737.99750000043,
      "d": 79.36500000000524,
      "v": 50
    },
    {
      "midi": 37,
      "hit": false,
      "t": 97852.08468750012,
      "d": 158.72999999999593,
      "v": 80
    },
    {
      "midi": 54,
      "hit": false,
      "t": 97857.04500000043,
      "d": 79.36500000000524,
      "v": 50
    },
    {
      "midi": 67,
      "hit": false,
      "t": 97866.96562500011,
      "d": 153.7696874999965,
      "v": 127
    },
    {
      "midi": 54,
      "hit": false,
      "t": 97976.09250000044,
      "d": 79.36500000000524,
      "v": 50
    },
    {
      "midi": 74,
      "hit": false,
      "t": 98095.14,
      "d": 952.3800000000047,
      "v": 50
    },
    {
      "midi": 37,
      "hit": false,
      "t": 98095.14000000012,
      "d": 158.72999999999593,
      "v": 80
    },
    {
      "midi": 35,
      "hit": false,
      "t": 98095.14000000025,
      "d": 317.4600000000064,
      "v": 100
    },
    {
      "midi": 54,
      "hit": false,
      "t": 98095.14000000044,
      "d": 79.36500000000524,
      "v": 50
    },
    {
      "midi": 70,
      "hit": false,
      "t": 98124.90187500011,
      "d": 243.05531250000058,
      "v": 127
    },
    {
      "midi": 54,
      "hit": false,
      "t": 98214.18750000044,
      "d": 79.36500000000524,
      "v": 50
    },
    {
      "midi": 37,
      "hit": false,
      "t": 98333.23500000012,
      "d": 158.72999999999593,
      "v": 80
    },
    {
      "midi": 54,
      "hit": false,
      "t": 98333.23500000044,
      "d": 79.36500000000524,
      "v": 50
    },
    {
      "midi": 54,
      "hit": false,
      "t": 98452.28250000044,
      "d": 79.36500000000524,
      "v": 50
    },
    {
      "midi": 72,
      "hit": false,
      "t": 98467.16343750012,
      "d": 218.2537500000035,
      "v": 127
    },
    {
      "midi": 37,
      "hit": false,
      "t": 98571.33000000012,
      "d": 158.72999999999593,
      "v": 80
    },
    {
      "midi": 35,
      "hit": false,
      "t": 98571.33000000025,
      "d": 317.4600000000064,
      "v": 100
    },
    {
      "midi": 54,
      "hit": false,
      "t": 98571.33000000044,
      "d": 79.36500000000524,
      "v": 50
    },
    {
      "midi": 54,
      "hit": false,
      "t": 98690.37750000044,
      "d": 79.36500000000524,
      "v": 50
    },
    {
      "midi": 54,
      "hit": false,
      "t": 98809.42500000044,
      "d": 79.36500000000524,
      "v": 50
    },
    {
      "midi": 63,
      "hit": false,
      "t": 98854.06781250011,
      "d": 362.10281250000116,
      "v": 127
    },
    {
      "midi": 54,
      "hit": false,
      "t": 98928.47250000044,
      "d": 79.36500000000524,
      "v": 50
    },
    {
      "midi": 72,
      "hit": false,
      "t": 99047.52,
      "d": 952.3800000000047,
      "v": 50
    },
    {
      "midi": 35,
      "hit": false,
      "t": 99047.52000000025,
      "d": 317.4600000000064,
      "v": 100
    },
    {
      "midi": 54,
      "hit": false,
      "t": 99047.52000000044,
      "d": 79.36500000000524,
      "v": 50
    },
    {
      "midi": 54,
      "hit": false,
      "t": 99166.56750000044,
      "d": 79.36500000000524,
      "v": 50
    },
    {
      "midi": 63,
      "hit": false,
      "t": 99280.65468750012,
      "d": 158.72999999999593,
      "v": 127
    },
    {
      "midi": 37,
      "hit": false,
      "t": 99285.6150000001,
      "d": 79.36500000000524,
      "v": 80
    },
    {
      "midi": 54,
      "hit": false,
      "t": 99285.61500000044,
      "d": 79.36500000000524,
      "v": 50
    },
    {
      "midi": 37,
      "hit": false,
      "t": 99404.66250000011,
      "d": 79.36500000000524,
      "v": 80
    },
    {
      "midi": 54,
      "hit": false,
      "t": 99404.66250000044,
      "d": 79.36500000000524,
      "v": 50
    },
    {
      "midi": 37,
      "hit": false,
      "t": 99523.71000000011,
      "d": 79.36500000000524,
      "v": 80
    },
    {
      "midi": 63,
      "hit": false,
      "t": 99523.71000000012,
      "d": 218.2537500000035,
      "v": 127
    },
    {
      "midi": 35,
      "hit": false,
      "t": 99523.71000000025,
      "d": 317.4600000000064,
      "v": 100
    },
    {
      "midi": 54,
      "hit": false,
      "t": 99523.71000000044,
      "d": 79.36500000000524,
      "v": 50
    },
    {
      "midi": 37,
      "hit": false,
      "t": 99642.75750000011,
      "d": 79.36500000000524,
      "v": 80
    },
    {
      "midi": 54,
      "hit": false,
      "t": 99642.75750000044,
      "d": 79.36500000000524,
      "v": 50
    },
    {
      "midi": 37,
      "hit": false,
      "t": 99756.84468750011,
      "d": 158.72999999999593,
      "v": 80
    },
    {
      "midi": 60,
      "hit": false,
      "t": 99756.84468750012,
      "d": 218.2537500000035,
      "v": 127
    },
    {
      "midi": 54,
      "hit": false,
      "t": 99761.80500000044,
      "d": 79.36500000000524,
      "v": 50
    },
    {
      "midi": 54,
      "hit": false,
      "t": 99880.85250000044,
      "d": 79.36500000000524,
      "v": 50
    },
    {
      "midi": 70,
      "hit": false,
      "t": 99999.90000000001,
      "d": 952.3800000000047,
      "v": 50
    },
    {
      "midi": 37,
      "hit": false,
      "t": 99999.90000000011,
      "d": 158.72999999999593,
      "v": 80
    },
    {
      "midi": 63,
      "hit": false,
      "t": 99999.90000000013,
      "d": 634.9199999999983,
      "v": 127
    },
    {
      "midi": 35,
      "hit": false,
      "t": 99999.90000000026,
      "d": 317.4600000000064,
      "v": 100
    },
    {
      "midi": 54,
      "hit": false,
      "t": 99999.90000000045,
      "d": 79.36500000000524,
      "v": 50
    },
    {
      "midi": 54,
      "hit": false,
      "t": 100118.94750000045,
      "d": 79.36500000000524,
      "v": 50
    },
    {
      "midi": 37,
      "hit": false,
      "t": 100237.99500000011,
      "d": 158.72999999999593,
      "v": 80
    },
    {
      "midi": 54,
      "hit": false,
      "t": 100237.99500000045,
      "d": 79.36500000000524,
      "v": 50
    },
    {
      "midi": 54,
      "hit": false,
      "t": 100357.04250000045,
      "d": 79.36500000000524,
      "v": 50
    },
    {
      "midi": 75,
      "hit": false,
      "t": 100476.08999999995,
      "d": 218.2537500000035,
      "v": 64
    },
    {
      "midi": 87,
      "hit": false,
      "t": 100476.09000000001,
      "d": 436.507500000007,
      "v": 64
    },
    {
      "midi": 37,
      "hit": false,
      "t": 100476.09000000011,
      "d": 158.72999999999593,
      "v": 80
    },
    {
      "midi": 35,
      "hit": false,
      "t": 100476.09000000026,
      "d": 317.4600000000064,
      "v": 100
    },
    {
      "midi": 54,
      "hit": false,
      "t": 100476.09000000045,
      "d": 79.36500000000524,
      "v": 50
    },
    {
      "midi": 54,
      "hit": false,
      "t": 100595.13750000045,
      "d": 79.36500000000524,
      "v": 50
    },
    {
      "midi": 54,
      "hit": false,
      "t": 100714.18500000045,
      "d": 79.36500000000524,
      "v": 50
    },
    {
      "midi": 54,
      "hit": false,
      "t": 100833.23250000045,
      "d": 79.36500000000524,
      "v": 50
    },
    {
      "midi": 72,
      "hit": false,
      "t": 100952.28000000001,
      "d": 952.3800000000047,
      "v": 50
    },
    {
      "midi": 63,
      "hit": false,
      "t": 100952.28000000013,
      "d": 436.507500000007,
      "v": 127
    },
    {
      "midi": 35,
      "hit": false,
      "t": 100952.28000000026,
      "d": 317.4600000000064,
      "v": 100
    },
    {
      "midi": 54,
      "hit": false,
      "t": 100952.28000000045,
      "d": 79.36500000000524,
      "v": 50
    },
    {
      "midi": 54,
      "hit": false,
      "t": 101071.32750000045,
      "d": 79.36500000000524,
      "v": 50
    },
    {
      "midi": 37,
      "hit": false,
      "t": 101190.3750000001,
      "d": 79.36500000000524,
      "v": 80
    },
    {
      "midi": 54,
      "hit": false,
      "t": 101190.37500000045,
      "d": 79.36500000000524,
      "v": 50
    },
    {
      "midi": 37,
      "hit": false,
      "t": 101309.4225000001,
      "d": 79.36500000000524,
      "v": 80
    },
    {
      "midi": 54,
      "hit": false,
      "t": 101309.42250000045,
      "d": 79.36500000000524,
      "v": 50
    },
    {
      "midi": 37,
      "hit": false,
      "t": 101428.4700000001,
      "d": 79.36500000000524,
      "v": 80
    },
    {
      "midi": 65,
      "hit": false,
      "t": 101428.47000000013,
      "d": 436.507500000007,
      "v": 127
    },
    {
      "midi": 35,
      "hit": false,
      "t": 101428.47000000026,
      "d": 317.4600000000064,
      "v": 100
    },
    {
      "midi": 54,
      "hit": false,
      "t": 101428.47000000045,
      "d": 79.36500000000524,
      "v": 50
    },
    {
      "midi": 37,
      "hit": false,
      "t": 101547.5175000001,
      "d": 79.36500000000524,
      "v": 80
    },
    {
      "midi": 54,
      "hit": false,
      "t": 101547.51750000045,
      "d": 79.36500000000524,
      "v": 50
    },
    {
      "midi": 37,
      "hit": false,
      "t": 101661.6046875001,
      "d": 158.72999999999593,
      "v": 80
    },
    {
      "midi": 54,
      "hit": false,
      "t": 101666.56500000045,
      "d": 79.36500000000524,
      "v": 50
    },
    {
      "midi": 54,
      "hit": false,
      "t": 101785.61250000045,
      "d": 79.36500000000524,
      "v": 50
    },
    {
      "midi": 70,
      "hit": false,
      "t": 101904.66000000002,
      "d": 952.3800000000047,
      "v": 50
    },
    {
      "midi": 37,
      "hit": false,
      "t": 101904.6600000001,
      "d": 158.72999999999593,
      "v": 80
    },
    {
      "midi": 63,
      "hit": false,
      "t": 101904.66000000013,
      "d": 218.2537500000035,
      "v": 127
    },
    {
      "midi": 35,
      "hit": false,
      "t": 101904.66000000027,
      "d": 317.4600000000064,
      "v": 100
    },
    {
      "midi": 54,
      "hit": false,
      "t": 101904.66000000045,
      "d": 79.36500000000524,
      "v": 50
    },
    {
      "midi": 54,
      "hit": false,
      "t": 102023.70750000046,
      "d": 79.36500000000524,
      "v": 50
    },
    {
      "midi": 37,
      "hit": false,
      "t": 102142.7550000001,
      "d": 158.72999999999593,
      "v": 80
    },
    {
      "midi": 54,
      "hit": false,
      "t": 102142.75500000046,
      "d": 79.36500000000524,
      "v": 50
    },
    {
      "midi": 54,
      "hit": false,
      "t": 102261.80250000046,
      "d": 79.36500000000524,
      "v": 50
    },
    {
      "midi": 37,
      "hit": false,
      "t": 102380.85000000011,
      "d": 158.72999999999593,
      "v": 80
    },
    {
      "midi": 70,
      "hit": false,
      "t": 102380.85000000014,
      "d": 218.2537500000035,
      "v": 127
    },
    {
      "midi": 35,
      "hit": false,
      "t": 102380.85000000027,
      "d": 317.4600000000064,
      "v": 100
    },
    {
      "midi": 54,
      "hit": false,
      "t": 102380.85000000046,
      "d": 79.36500000000524,
      "v": 50
    },
    {
      "midi": 54,
      "hit": false,
      "t": 102499.89750000046,
      "d": 79.36500000000524,
      "v": 50
    },
    {
      "midi": 68,
      "hit": false,
      "t": 102613.98468750014,
      "d": 436.507500000007,
      "v": 127
    },
    {
      "midi": 48,
      "hit": false,
      "t": 102618.94499999999,
      "d": 158.72999999999593,
      "v": 80
    },
    {
      "midi": 54,
      "hit": false,
      "t": 102618.94500000046,
      "d": 79.36500000000524,
      "v": 50
    },
    {
      "midi": 54,
      "hit": false,
      "t": 102737.99250000046,
      "d": 79.36500000000524,
      "v": 50
    },
    {
      "midi": 75,
      "hit": false,
      "t": 102857.04000000002,
      "d": 2857.1399999999994,
      "v": 50
    },
    {
      "midi": 35,
      "hit": false,
      "t": 102857.04000000027,
      "d": 317.4600000000064,
      "v": 100
    },
    {
      "midi": 54,
      "hit": false,
      "t": 102857.04000000046,
      "d": 79.36500000000524,
      "v": 50
    },
    {
      "midi": 54,
      "hit": false,
      "t": 102976.08750000046,
      "d": 79.36500000000524,
      "v": 50
    },
    {
      "midi": 67,
      "hit": false,
      "t": 103090.17468750014,
      "d": 218.2537500000035,
      "v": 127
    },
    {
      "midi": 37,
      "hit": false,
      "t": 103095.1350000001,
      "d": 79.36500000000524,
      "v": 80
    },
    {
      "midi": 54,
      "hit": false,
      "t": 103095.13500000046,
      "d": 79.36500000000524,
      "v": 50
    },
    {
      "midi": 37,
      "hit": false,
      "t": 103214.1825000001,
      "d": 79.36500000000524,
      "v": 80
    },
    {
      "midi": 54,
      "hit": false,
      "t": 103214.18250000046,
      "d": 79.36500000000524,
      "v": 50
    },
    {
      "midi": 45,
      "hit": false,
      "t": 103333.23000000001,
      "d": 158.72999999999593,
      "v": 80
    },
    {
      "midi": 37,
      "hit": false,
      "t": 103333.2300000001,
      "d": 79.36500000000524,
      "v": 80
    },
    {
      "midi": 65,
      "hit": false,
      "t": 103333.23000000014,
      "d": 218.2537500000035,
      "v": 127
    },
    {
      "midi": 35,
      "hit": false,
      "t": 103333.23000000027,
      "d": 317.4600000000064,
      "v": 100
    },
    {
      "midi": 54,
      "hit": false,
      "t": 103333.23000000046,
      "d": 79.36500000000524,
      "v": 50
    },
    {
      "midi": 37,
      "hit": false,
      "t": 103452.2775000001,
      "d": 79.36500000000524,
      "v": 80
    },
    {
      "midi": 54,
      "hit": false,
      "t": 103452.27750000046,
      "d": 79.36500000000524,
      "v": 50
    },
    {
      "midi": 37,
      "hit": false,
      "t": 103566.3646875001,
      "d": 158.72999999999593,
      "v": 80
    },
    {
      "midi": 63,
      "hit": false,
      "t": 103566.36468750014,
      "d": 1979.1646875000006,
      "v": 127
    },
    {
      "midi": 41,
      "hit": false,
      "t": 103571.325,
      "d": 158.72999999999593,
      "v": 80
    },
    {
      "midi": 54,
      "hit": false,
      "t": 103571.32500000046,
      "d": 79.36500000000524,
      "v": 50
    },
    {
      "midi": 54,
      "hit": false,
      "t": 103690.37250000046,
      "d": 79.36500000000524,
      "v": 50
    },
    {
      "midi": 37,
      "hit": false,
      "t": 103809.4200000001,
      "d": 158.72999999999593,
      "v": 80
    },
    {
      "midi": 35,
      "hit": false,
      "t": 103809.42000000027,
      "d": 317.4600000000064,
      "v": 100
    },
    {
      "midi": 54,
      "hit": false,
      "t": 103809.42000000046,
      "d": 79.36500000000524,
      "v": 50
    },
    {
      "midi": 54,
      "hit": false,
      "t": 103928.46750000046,
      "d": 79.36500000000524,
      "v": 50
    },
    {
      "midi": 82,
      "hit": false,
      "t": 104032.63406250002,
      "d": 277.77750000001106,
      "v": 64
    },
    {
      "midi": 48,
      "hit": false,
      "t": 104047.51499999998,
      "d": 158.72999999999593,
      "v": 80
    },
    {
      "midi": 37,
      "hit": false,
      "t": 104047.5150000001,
      "d": 158.72999999999593,
      "v": 80
    },
    {
      "midi": 54,
      "hit": false,
      "t": 104047.51500000047,
      "d": 79.36500000000524,
      "v": 50
    },
    {
      "midi": 54,
      "hit": false,
      "t": 104166.56250000047,
      "d": 79.36500000000524,
      "v": 50
    },
    {
      "midi": 84,
      "hit": false,
      "t": 104240.96718750002,
      "d": 252.97593749999942,
      "v": 64
    },
    {
      "midi": 45,
      "hit": false,
      "t": 104285.61,
      "d": 158.72999999999593,
      "v": 80
    },
    {
      "midi": 37,
      "hit": false,
      "t": 104285.6100000001,
      "d": 158.72999999999593,
      "v": 80
    },
    {
      "midi": 35,
      "hit": false,
      "t": 104285.61000000028,
      "d": 317.4600000000064,
      "v": 100
    },
    {
      "midi": 54,
      "hit": false,
      "t": 104285.61000000047,
      "d": 79.36500000000524,
      "v": 50
    },
    {
      "midi": 54,
      "hit": false,
      "t": 104404.65750000047,
      "d": 79.36500000000524,
      "v": 50
    },
    {
      "midi": 87,
      "hit": false,
      "t": 104469.14156250002,
      "d": 203.3728124999907,
      "v": 64
    },
    {
      "midi": 41,
      "hit": false,
      "t": 104523.70499999999,
      "d": 158.72999999999593,
      "v": 80
    },
    {
      "midi": 54,
      "hit": false,
      "t": 104523.70500000047,
      "d": 79.36500000000524,
      "v": 50
    },
    {
      "midi": 54,
      "hit": false,
      "t": 104642.75250000047,
      "d": 79.36500000000524,
      "v": 50
    },
    {
      "midi": 94,
      "hit": false,
      "t": 104702.27625000001,
      "d": 1284.7209374999948,
      "v": 64
    },
    {
      "midi": 35,
      "hit": false,
      "t": 104761.80000000028,
      "d": 317.4600000000064,
      "v": 100
    },
    {
      "midi": 54,
      "hit": false,
      "t": 104761.80000000047,
      "d": 79.36500000000524,
      "v": 50
    },
    {
      "midi": 54,
      "hit": false,
      "t": 104880.84750000047,
      "d": 79.36500000000524,
      "v": 50
    },
    {
      "midi": 37,
      "hit": false,
      "t": 104999.89500000009,
      "d": 79.36500000000524,
      "v": 80
    },
    {
      "midi": 54,
      "hit": false,
      "t": 104999.89500000047,
      "d": 79.36500000000524,
      "v": 50
    },
    {
      "midi": 37,
      "hit": false,
      "t": 105118.94250000009,
      "d": 79.36500000000524,
      "v": 80
    },
    {
      "midi": 54,
      "hit": false,
      "t": 105118.94250000047,
      "d": 79.36500000000524,
      "v": 50
    },
    {
      "midi": 37,
      "hit": false,
      "t": 105237.99000000009,
      "d": 79.36500000000524,
      "v": 80
    },
    {
      "midi": 35,
      "hit": false,
      "t": 105237.99000000028,
      "d": 317.4600000000064,
      "v": 100
    },
    {
      "midi": 54,
      "hit": false,
      "t": 105237.99000000047,
      "d": 79.36500000000524,
      "v": 50
    },
    {
      "midi": 37,
      "hit": false,
      "t": 105357.0375000001,
      "d": 79.36500000000524,
      "v": 80
    },
    {
      "midi": 54,
      "hit": false,
      "t": 105357.03750000047,
      "d": 79.36500000000524,
      "v": 50
    },
    {
      "midi": 37,
      "hit": false,
      "t": 105471.1246875001,
      "d": 158.72999999999593,
      "v": 80
    },
    {
      "midi": 54,
      "hit": false,
      "t": 105476.08500000047,
      "d": 79.36500000000524,
      "v": 50
    },
    {
      "midi": 54,
      "hit": false,
      "t": 105595.13250000047,
      "d": 79.36500000000524,
      "v": 50
    },
    {
      "midi": 37,
      "hit": false,
      "t": 105714.1800000001,
      "d": 158.72999999999593,
      "v": 80
    },
    {
      "midi": 63,
      "hit": false,
      "t": 105714.18000000014,
      "d": 218.2537500000035,
      "v": 127
    },
    {
      "midi": 35,
      "hit": false,
      "t": 105714.18000000028,
      "d": 317.4600000000064,
      "v": 100
    },
    {
      "midi": 54,
      "hit": false,
      "t": 105714.18000000047,
      "d": 79.36500000000524,
      "v": 50
    },
    {
      "midi": 54,
      "hit": false,
      "t": 105833.22750000047,
      "d": 79.36500000000524,
      "v": 50
    },
    {
      "midi": 65,
      "hit": false,
      "t": 105947.31468750014,
      "d": 218.2537500000035,
      "v": 127
    },
    {
      "midi": 37,
      "hit": false,
      "t": 105952.2750000001,
      "d": 158.72999999999593,
      "v": 80
    },
    {
      "midi": 54,
      "hit": false,
      "t": 105952.27500000047,
      "d": 79.36500000000524,
      "v": 50
    },
    {
      "midi": 54,
      "hit": false,
      "t": 106071.32250000047,
      "d": 79.36500000000524,
      "v": 50
    },
    {
      "midi": 37,
      "hit": false,
      "t": 106190.3700000001,
      "d": 158.72999999999593,
      "v": 80
    },
    {
      "midi": 67,
      "hit": false,
      "t": 106190.37000000014,
      "d": 218.2537500000035,
      "v": 127
    },
    {
      "midi": 35,
      "hit": false,
      "t": 106190.37000000029,
      "d": 317.4600000000064,
      "v": 100
    },
    {
      "midi": 54,
      "hit": false,
      "t": 106190.37000000048,
      "d": 79.36500000000524,
      "v": 50
    },
    {
      "midi": 54,
      "hit": false,
      "t": 106309.41750000048,
      "d": 79.36500000000524,
      "v": 50
    },
    {
      "midi": 65,
      "hit": false,
      "t": 106423.50468750014,
      "d": 436.507500000007,
      "v": 127
    },
    {
      "midi": 54,
      "hit": false,
      "t": 106428.46500000048,
      "d": 79.36500000000524,
      "v": 50
    },
    {
      "midi": 54,
      "hit": false,
      "t": 106547.51250000048,
      "d": 79.36500000000524,
      "v": 50
    },
    {
      "midi": 35,
      "hit": false,
      "t": 106666.56000000029,
      "d": 317.4600000000064,
      "v": 100
    },
    {
      "midi": 54,
      "hit": false,
      "t": 106666.56000000048,
      "d": 79.36500000000524,
      "v": 50
    },
    {
      "midi": 54,
      "hit": false,
      "t": 106785.60750000048,
      "d": 79.36500000000524,
      "v": 50
    },
    {
      "midi": 63,
      "hit": false,
      "t": 106899.69468750014,
      "d": 158.72999999999593,
      "v": 127
    },
    {
      "midi": 37,
      "hit": false,
      "t": 106904.65500000009,
      "d": 79.36500000000524,
      "v": 80
    },
    {
      "midi": 54,
      "hit": false,
      "t": 106904.65500000048,
      "d": 79.36500000000524,
      "v": 50
    },
    {
      "midi": 37,
      "hit": false,
      "t": 107023.70250000009,
      "d": 79.36500000000524,
      "v": 80
    },
    {
      "midi": 54,
      "hit": false,
      "t": 107023.70250000048,
      "d": 79.36500000000524,
      "v": 50
    },
    {
      "midi": 37,
      "hit": false,
      "t": 107142.75000000009,
      "d": 79.36500000000524,
      "v": 80
    },
    {
      "midi": 63,
      "hit": false,
      "t": 107142.75000000015,
      "d": 1478.1731250000012,
      "v": 127
    },
    {
      "midi": 35,
      "hit": false,
      "t": 107142.75000000029,
      "d": 317.4600000000064,
      "v": 100
    },
    {
      "midi": 54,
      "hit": false,
      "t": 107142.75000000048,
      "d": 79.36500000000524,
      "v": 50
    },
    {
      "midi": 37,
      "hit": false,
      "t": 107261.79750000009,
      "d": 79.36500000000524,
      "v": 80
    },
    {
      "midi": 54,
      "hit": false,
      "t": 107261.79750000048,
      "d": 79.36500000000524,
      "v": 50
    },
    {
      "midi": 37,
      "hit": false,
      "t": 107375.88468750009,
      "d": 158.72999999999593,
      "v": 80
    },
    {
      "midi": 54,
      "hit": false,
      "t": 107380.84500000048,
      "d": 79.36500000000524,
      "v": 50
    },
    {
      "midi": 54,
      "hit": false,
      "t": 107499.89250000048,
      "d": 79.36500000000524,
      "v": 50
    },
    {
      "midi": 37,
      "hit": false,
      "t": 107618.94000000009,
      "d": 158.72999999999593,
      "v": 80
    },
    {
      "midi": 35,
      "hit": false,
      "t": 107618.9400000003,
      "d": 317.4600000000064,
      "v": 100
    },
    {
      "midi": 54,
      "hit": false,
      "t": 107618.94000000048,
      "d": 79.36500000000524,
      "v": 50
    },
    {
      "midi": 54,
      "hit": false,
      "t": 107737.98750000048,
      "d": 79.36500000000524,
      "v": 50
    },
    {
      "midi": 87,
      "hit": false,
      "t": 107847.114375,
      "d": 277.7774999999965,
      "v": 64
    },
    {
      "midi": 48,
      "hit": false,
      "t": 107857.03499999997,
      "d": 158.72999999999593,
      "v": 80
    },
    {
      "midi": 37,
      "hit": false,
      "t": 107857.03500000009,
      "d": 158.72999999999593,
      "v": 80
    },
    {
      "midi": 54,
      "hit": false,
      "t": 107857.03500000048,
      "d": 79.36500000000524,
      "v": 50
    },
    {
      "midi": 54,
      "hit": false,
      "t": 107976.08250000048,
      "d": 79.36500000000524,
      "v": 50
    },
    {
      "midi": 84,
      "hit": false,
      "t": 108075.28875,
      "d": 238.09500000000116,
      "v": 64
    },
    {
      "midi": 45,
      "hit": false,
      "t": 108095.12999999999,
      "d": 158.72999999999593,
      "v": 80
    },
    {
      "midi": 37,
      "hit": false,
      "t": 108095.13000000009,
      "d": 158.72999999999593,
      "v": 80
    },
    {
      "midi": 35,
      "hit": false,
      "t": 108095.1300000003,
      "d": 317.4600000000064,
      "v": 100
    },
    {
      "midi": 54,
      "hit": false,
      "t": 108095.13000000048,
      "d": 79.36500000000524,
      "v": 50
    },
    {
      "midi": 54,
      "hit": false,
      "t": 108214.17750000049,
      "d": 79.36500000000524,
      "v": 50
    },
    {
      "midi": 94,
      "hit": false,
      "t": 108323.304375,
      "d": 1423.609687499993,
      "v": 64
    },
    {
      "midi": 41,
      "hit": false,
      "t": 108333.22499999998,
      "d": 158.72999999999593,
      "v": 80
    },
    {
      "midi": 54,
      "hit": false,
      "t": 108333.22500000049,
      "d": 79.36500000000524,
      "v": 50
    },
    {
      "midi": 54,
      "hit": false,
      "t": 108452.27250000049,
      "d": 79.36500000000524,
      "v": 50
    },
    {
      "midi": 35,
      "hit": false,
      "t": 108571.3200000003,
      "d": 317.4600000000064,
      "v": 100
    },
    {
      "midi": 54,
      "hit": false,
      "t": 108571.32000000049,
      "d": 79.36500000000524,
      "v": 50
    },
    {
      "midi": 54,
      "hit": false,
      "t": 108690.36750000049,
      "d": 79.36500000000524,
      "v": 50
    },
    {
      "midi": 70,
      "hit": false,
      "t": 108804.45468750014,
      "d": 158.72999999999593,
      "v": 127
    },
    {
      "midi": 37,
      "hit": false,
      "t": 108809.41500000008,
      "d": 79.36500000000524,
      "v": 80
    },
    {
      "midi": 54,
      "hit": false,
      "t": 108809.41500000049,
      "d": 79.36500000000524,
      "v": 50
    },
    {
      "midi": 37,
      "hit": false,
      "t": 108928.46250000008,
      "d": 79.36500000000524,
      "v": 80
    },
    {
      "midi": 54,
      "hit": false,
      "t": 108928.46250000049,
      "d": 79.36500000000524,
      "v": 50
    },
    {
      "midi": 37,
      "hit": false,
      "t": 109047.51000000008,
      "d": 79.36500000000524,
      "v": 80
    },
    {
      "midi": 70,
      "hit": false,
      "t": 109047.51000000014,
      "d": 158.72999999999593,
      "v": 127
    },
    {
      "midi": 35,
      "hit": false,
      "t": 109047.5100000003,
      "d": 317.4600000000064,
      "v": 100
    },
    {
      "midi": 54,
      "hit": false,
      "t": 109047.51000000049,
      "d": 79.36500000000524,
      "v": 50
    },
    {
      "midi": 37,
      "hit": false,
      "t": 109166.55750000008,
      "d": 79.36500000000524,
      "v": 80
    },
    {
      "midi": 54,
      "hit": false,
      "t": 109166.55750000049,
      "d": 79.36500000000524,
      "v": 50
    },
    {
      "midi": 37,
      "hit": false,
      "t": 109280.64468750008,
      "d": 158.72999999999593,
      "v": 80
    },
    {
      "midi": 70,
      "hit": false,
      "t": 109280.64468750014,
      "d": 158.72999999999593,
      "v": 127
    },
    {
      "midi": 54,
      "hit": false,
      "t": 109285.60500000049,
      "d": 79.36500000000524,
      "v": 50
    },
    {
      "midi": 54,
      "hit": false,
      "t": 109404.65250000049,
      "d": 79.36500000000524,
      "v": 50
    },
    {
      "midi": 37,
      "hit": false,
      "t": 109523.70000000008,
      "d": 158.72999999999593,
      "v": 80
    },
    {
      "midi": 35,
      "hit": false,
      "t": 109523.7000000003,
      "d": 317.4600000000064,
      "v": 100
    },
    {
      "midi": 54,
      "hit": false,
      "t": 109523.70000000049,
      "d": 79.36500000000524,
      "v": 50
    },
    {
      "midi": 70,
      "hit": false,
      "t": 109548.50156250014,
      "d": 312.499687500007,
      "v": 127
    },
    {
      "midi": 54,
      "hit": false,
      "t": 109642.74750000049,
      "d": 79.36500000000524,
      "v": 50
    },
    {
      "midi": 37,
      "hit": false,
      "t": 109761.79500000009,
      "d": 158.72999999999593,
      "v": 80
    },
    {
      "midi": 54,
      "hit": false,
      "t": 109761.7950000005,
      "d": 79.36500000000524,
      "v": 50
    },
    {
      "midi": 54,
      "hit": false,
      "t": 109880.8425000005,
      "d": 79.36500000000524,
      "v": 50
    },
    {
      "midi": 72,
      "hit": false,
      "t": 109905.64406250014,
      "d": 213.29343750000407,
      "v": 127
    },
    {
      "midi": 37,
      "hit": false,
      "t": 109999.89000000009,
      "d": 158.72999999999593,
      "v": 80
    },
    {
      "midi": 35,
      "hit": false,
      "t": 109999.8900000003,
      "d": 317.4600000000064,
      "v": 100
    },
    {
      "midi": 54,
      "hit": false,
      "t": 109999.8900000005,
      "d": 79.36500000000524,
      "v": 50
    },
    {
      "midi": 54,
      "hit": false,
      "t": 110118.9375000005,
      "d": 79.36500000000524,
      "v": 50
    },
    {
      "midi": 63,
      "hit": false,
      "t": 110233.02468750015,
      "d": 2058.529687500006,
      "v": 127
    },
    {
      "midi": 54,
      "hit": false,
      "t": 110237.9850000005,
      "d": 79.36500000000524,
      "v": 50
    },
    {
      "midi": 54,
      "hit": false,
      "t": 110357.0325000005,
      "d": 79.36500000000524,
      "v": 50
    },
    {
      "midi": 65,
      "hit": false,
      "t": 110476.08000000002,
      "d": 947.4196875000052,
      "v": 50
    },
    {
      "midi": 35,
      "hit": false,
      "t": 110476.08000000031,
      "d": 317.4600000000064,
      "v": 100
    },
    {
      "midi": 54,
      "hit": false,
      "t": 110476.0800000005,
      "d": 79.36500000000524,
      "v": 50
    },
    {
      "midi": 54,
      "hit": false,
      "t": 110595.1275000005,
      "d": 79.36500000000524,
      "v": 50
    },
    {
      "midi": 48,
      "hit": false,
      "t": 110714.17499999997,
      "d": 158.72999999999593,
      "v": 80
    },
    {
      "midi": 37,
      "hit": false,
      "t": 110714.17500000008,
      "d": 79.36500000000524,
      "v": 80
    },
    {
      "midi": 54,
      "hit": false,
      "t": 110714.1750000005,
      "d": 79.36500000000524,
      "v": 50
    },
    {
      "midi": 37,
      "hit": false,
      "t": 110833.22250000008,
      "d": 79.36500000000524,
      "v": 80
    },
    {
      "midi": 54,
      "hit": false,
      "t": 110833.2225000005,
      "d": 79.36500000000524,
      "v": 50
    },
    {
      "midi": 41,
      "hit": false,
      "t": 110952.26999999997,
      "d": 158.72999999999593,
      "v": 80
    },
    {
      "midi": 37,
      "hit": false,
      "t": 110952.27000000008,
      "d": 79.36500000000524,
      "v": 80
    },
    {
      "midi": 35,
      "hit": false,
      "t": 110952.27000000031,
      "d": 317.4600000000064,
      "v": 100
    },
    {
      "midi": 54,
      "hit": false,
      "t": 110952.2700000005,
      "d": 79.36500000000524,
      "v": 50
    },
    {
      "midi": 37,
      "hit": false,
      "t": 111071.31750000008,
      "d": 79.36500000000524,
      "v": 80
    },
    {
      "midi": 54,
      "hit": false,
      "t": 111071.3175000005,
      "d": 79.36500000000524,
      "v": 50
    },
    {
      "midi": 37,
      "hit": false,
      "t": 111185.40468750008,
      "d": 158.72999999999593,
      "v": 80
    },
    {
      "midi": 54,
      "hit": false,
      "t": 111190.3650000005,
      "d": 79.36500000000524,
      "v": 50
    },
    {
      "midi": 54,
      "hit": false,
      "t": 111309.4125000005,
      "d": 79.36500000000524,
      "v": 50
    },
    {
      "midi": 48,
      "hit": false,
      "t": 111428.45999999996,
      "d": 79.36500000000524,
      "v": 80
    },
    {
      "midi": 63,
      "hit": false,
      "t": 111428.46000000002,
      "d": 947.4196875000052,
      "v": 50
    },
    {
      "midi": 37,
      "hit": false,
      "t": 111428.46000000008,
      "d": 158.72999999999593,
      "v": 80
    },
    {
      "midi": 35,
      "hit": false,
      "t": 111428.46000000031,
      "d": 317.4600000000064,
      "v": 100
    },
    {
      "midi": 54,
      "hit": false,
      "t": 111428.4600000005,
      "d": 79.36500000000524,
      "v": 50
    },
    {
      "midi": 48,
      "hit": false,
      "t": 111547.50749999996,
      "d": 79.36500000000524,
      "v": 80
    },
    {
      "midi": 54,
      "hit": false,
      "t": 111547.5075000005,
      "d": 79.36500000000524,
      "v": 50
    },
    {
      "midi": 45,
      "hit": false,
      "t": 111666.555,
      "d": 158.72999999999593,
      "v": 80
    },
    {
      "midi": 37,
      "hit": false,
      "t": 111666.55500000008,
      "d": 158.72999999999593,
      "v": 80
    },
    {
      "midi": 54,
      "hit": false,
      "t": 111666.5550000005,
      "d": 79.36500000000524,
      "v": 50
    },
    {
      "midi": 54,
      "hit": false,
      "t": 111785.6025000005,
      "d": 79.36500000000524,
      "v": 50
    },
    {
      "midi": 41,
      "hit": false,
      "t": 111904.64999999997,
      "d": 158.72999999999593,
      "v": 80
    },
    {
      "midi": 37,
      "hit": false,
      "t": 111904.65000000008,
      "d": 158.72999999999593,
      "v": 80
    },
    {
      "midi": 35,
      "hit": false,
      "t": 111904.65000000031,
      "d": 317.4600000000064,
      "v": 100
    },
    {
      "midi": 54,
      "hit": false,
      "t": 111904.6500000005,
      "d": 79.36500000000524,
      "v": 50
    },
    {
      "midi": 54,
      "hit": false,
      "t": 112023.6975000005,
      "d": 79.36500000000524,
      "v": 50
    },
    {
      "midi": 41,
      "hit": false,
      "t": 112142.74499999997,
      "d": 158.72999999999593,
      "v": 80
    },
    {
      "midi": 54,
      "hit": false,
      "t": 112142.7450000005,
      "d": 79.36500000000524,
      "v": 50
    },
    {
      "midi": 54,
      "hit": false,
      "t": 112261.7925000005,
      "d": 79.36500000000524,
      "v": 50
    },
    {
      "midi": 87,
      "hit": false,
      "t": 112341.1575,
      "d": 520.8328124999971,
      "v": 64
    },
    {
      "midi": 35,
      "hit": false,
      "t": 112380.84000000032,
      "d": 317.4600000000064,
      "v": 100
    },
    {
      "midi": 54,
      "hit": false,
      "t": 112380.8400000005,
      "d": 79.36500000000524,
      "v": 50
    },
    {
      "midi": 54,
      "hit": false,
      "t": 112499.8875000005,
      "d": 79.36500000000524,
      "v": 50
    },
    {
      "midi": 37,
      "hit": false,
      "t": 112618.93500000007,
      "d": 79.36500000000524,
      "v": 80
    },
    {
      "midi": 54,
      "hit": false,
      "t": 112618.9350000005,
      "d": 79.36500000000524,
      "v": 50
    },
    {
      "midi": 37,
      "hit": false,
      "t": 112737.98250000007,
      "d": 79.36500000000524,
      "v": 80
    },
    {
      "midi": 54,
      "hit": false,
      "t": 112737.98250000051,
      "d": 79.36500000000524,
      "v": 50
    },
    {
      "midi": 84,
      "hit": false,
      "t": 112847.109375,
      "d": 535.7137499999953,
      "v": 64
    },
    {
      "midi": 37,
      "hit": false,
      "t": 112857.03000000007,
      "d": 79.36500000000524,
      "v": 80
    },
    {
      "midi": 35,
      "hit": false,
      "t": 112857.03000000032,
      "d": 317.4600000000064,
      "v": 100
    },
    {
      "midi": 54,
      "hit": false,
      "t": 112857.03000000051,
      "d": 79.36500000000524,
      "v": 50
    },
    {
      "midi": 37,
      "hit": false,
      "t": 112976.07750000007,
      "d": 79.36500000000524,
      "v": 80
    },
    {
      "midi": 54,
      "hit": false,
      "t": 112976.07750000051,
      "d": 79.36500000000524,
      "v": 50
    },
    {
      "midi": 37,
      "hit": false,
      "t": 113090.16468750007,
      "d": 158.72999999999593,
      "v": 80
    },
    {
      "midi": 54,
      "hit": false,
      "t": 113095.12500000051,
      "d": 79.36500000000524,
      "v": 50
    },
    {
      "midi": 54,
      "hit": false,
      "t": 113214.17250000051,
      "d": 79.36500000000524,
      "v": 50
    },
    {
      "midi": 37,
      "hit": false,
      "t": 113333.22000000007,
      "d": 158.72999999999593,
      "v": 80
    },
    {
      "midi": 35,
      "hit": false,
      "t": 113333.22000000032,
      "d": 317.4600000000064,
      "v": 100
    },
    {
      "midi": 54,
      "hit": false,
      "t": 113333.22000000051,
      "d": 79.36500000000524,
      "v": 50
    },
    {
      "midi": 80,
      "hit": false,
      "t": 113338.1803125,
      "d": 481.15031250000175,
      "v": 64
    },
    {
      "midi": 54,
      "hit": false,
      "t": 113452.26750000051,
      "d": 79.36500000000524,
      "v": 50
    },
    {
      "midi": 37,
      "hit": false,
      "t": 113571.31500000008,
      "d": 158.72999999999593,
      "v": 80
    },
    {
      "midi": 54,
      "hit": false,
      "t": 113571.31500000051,
      "d": 79.36500000000524,
      "v": 50
    },
    {
      "midi": 54,
      "hit": false,
      "t": 113690.36250000051,
      "d": 79.36500000000524,
      "v": 50
    },
    {
      "midi": 37,
      "hit": false,
      "t": 113809.41000000008,
      "d": 158.72999999999593,
      "v": 80
    },
    {
      "midi": 35,
      "hit": false,
      "t": 113809.41000000032,
      "d": 317.4600000000064,
      "v": 100
    },
    {
      "midi": 54,
      "hit": false,
      "t": 113809.41000000051,
      "d": 79.36500000000524,
      "v": 50
    },
    {
      "midi": 77,
      "hit": false,
      "t": 113819.330625,
      "d": 436.507500000007,
      "v": 64
    },
    {
      "midi": 54,
      "hit": false,
      "t": 113928.45750000051,
      "d": 79.36500000000524,
      "v": 50
    },
    {
      "midi": 54,
      "hit": false,
      "t": 114047.50500000051,
      "d": 79.36500000000524,
      "v": 50
    },
    {
      "midi": 54,
      "hit": false,
      "t": 114166.55250000051,
      "d": 79.36500000000524,
      "v": 50
    },
    {
      "midi": 35,
      "hit": false,
      "t": 114285.60000000033,
      "d": 317.4600000000064,
      "v": 100
    },
    {
      "midi": 54,
      "hit": false,
      "t": 114285.60000000052,
      "d": 79.36500000000524,
      "v": 50
    },
    {
      "midi": 82,
      "hit": false,
      "t": 114295.520625,
      "d": 1532.7365624999948,
      "v": 64
    },
    {
      "midi": 54,
      "hit": false,
      "t": 114404.64750000052,
      "d": 79.36500000000524,
      "v": 50
    },
    {
      "midi": 37,
      "hit": false,
      "t": 114523.69500000007,
      "d": 79.36500000000524,
      "v": 80
    },
    {
      "midi": 54,
      "hit": false,
      "t": 114523.69500000052,
      "d": 79.36500000000524,
      "v": 50
    },
    {
      "midi": 37,
      "hit": false,
      "t": 114642.74250000007,
      "d": 79.36500000000524,
      "v": 80
    },
    {
      "midi": 54,
      "hit": false,
      "t": 114642.74250000052,
      "d": 79.36500000000524,
      "v": 50
    },
    {
      "midi": 37,
      "hit": false,
      "t": 114761.79000000007,
      "d": 79.36500000000524,
      "v": 80
    },
    {
      "midi": 35,
      "hit": false,
      "t": 114761.79000000033,
      "d": 317.4600000000064,
      "v": 100
    },
    {
      "midi": 54,
      "hit": false,
      "t": 114761.79000000052,
      "d": 79.36500000000524,
      "v": 50
    },
    {
      "midi": 37,
      "hit": false,
      "t": 114880.83750000007,
      "d": 79.36500000000524,
      "v": 80
    },
    {
      "midi": 54,
      "hit": false,
      "t": 114880.83750000052,
      "d": 79.36500000000524,
      "v": 50
    },
    {
      "midi": 37,
      "hit": false,
      "t": 114994.92468750007,
      "d": 158.72999999999593,
      "v": 80
    },
    {
      "midi": 54,
      "hit": false,
      "t": 114999.88500000052,
      "d": 79.36500000000524,
      "v": 50
    },
    {
      "midi": 54,
      "hit": false,
      "t": 115118.93250000052,
      "d": 79.36500000000524,
      "v": 50
    },
    {
      "midi": 37,
      "hit": false,
      "t": 115237.98000000007,
      "d": 158.72999999999593,
      "v": 80
    },
    {
      "midi": 35,
      "hit": false,
      "t": 115237.98000000033,
      "d": 317.4600000000064,
      "v": 100
    },
    {
      "midi": 54,
      "hit": false,
      "t": 115237.98000000052,
      "d": 79.36500000000524,
      "v": 50
    },
    {
      "midi": 54,
      "hit": false,
      "t": 115357.02750000052,
      "d": 79.36500000000524,
      "v": 50
    },
    {
      "midi": 37,
      "hit": false,
      "t": 115476.07500000007,
      "d": 158.72999999999593,
      "v": 80
    },
    {
      "midi": 54,
      "hit": false,
      "t": 115476.07500000052,
      "d": 79.36500000000524,
      "v": 50
    },
    {
      "midi": 54,
      "hit": false,
      "t": 115595.12250000052,
      "d": 79.36500000000524,
      "v": 50
    },
    {
      "midi": 37,
      "hit": false,
      "t": 115714.17000000007,
      "d": 158.72999999999593,
      "v": 80
    },
    {
      "midi": 35,
      "hit": false,
      "t": 115714.17000000033,
      "d": 317.4600000000064,
      "v": 100
    },
    {
      "midi": 54,
      "hit": false,
      "t": 115714.17000000052,
      "d": 79.36500000000524,
      "v": 50
    },
    {
      "midi": 54,
      "hit": false,
      "t": 115833.21750000052,
      "d": 79.36500000000524,
      "v": 50
    },
    {
      "midi": 54,
      "hit": false,
      "t": 115952.26500000052,
      "d": 79.36500000000524,
      "v": 50
    },
    {
      "midi": 54,
      "hit": false,
      "t": 116071.31250000052,
      "d": 79.36500000000524,
      "v": 50
    },
    {
      "midi": 86,
      "hit": false,
      "t": 116160.598125,
      "d": 545.6343749999942,
      "v": 64
    },
    {
      "midi": 35,
      "hit": false,
      "t": 116190.36000000034,
      "d": 317.4600000000064,
      "v": 100
    },
    {
      "midi": 54,
      "hit": false,
      "t": 116190.36000000052,
      "d": 79.36500000000524,
      "v": 50
    },
    {
      "midi": 54,
      "hit": false,
      "t": 116309.40750000053,
      "d": 79.36500000000524,
      "v": 50
    },
    {
      "midi": 37,
      "hit": false,
      "t": 116428.45500000006,
      "d": 79.36500000000524,
      "v": 80
    },
    {
      "midi": 54,
      "hit": false,
      "t": 116428.45500000053,
      "d": 79.36500000000524,
      "v": 50
    },
    {
      "midi": 37,
      "hit": false,
      "t": 116547.50250000006,
      "d": 79.36500000000524,
      "v": 80
    },
    {
      "midi": 54,
      "hit": false,
      "t": 116547.50250000053,
      "d": 79.36500000000524,
      "v": 50
    },
    {
      "midi": 83,
      "hit": false,
      "t": 116661.5896875,
      "d": 505.9518749999843,
      "v": 64
    },
    {
      "midi": 37,
      "hit": false,
      "t": 116666.55000000006,
      "d": 79.36500000000524,
      "v": 80
    },
    {
      "midi": 35,
      "hit": false,
      "t": 116666.55000000034,
      "d": 317.4600000000064,
      "v": 100
    },
    {
      "midi": 54,
      "hit": false,
      "t": 116666.55000000053,
      "d": 79.36500000000524,
      "v": 50
    },
    {
      "midi": 37,
      "hit": false,
      "t": 116785.59750000006,
      "d": 79.36500000000524,
      "v": 80
    },
    {
      "midi": 54,
      "hit": false,
      "t": 116785.59750000053,
      "d": 79.36500000000524,
      "v": 50
    },
    {
      "midi": 37,
      "hit": false,
      "t": 116899.68468750006,
      "d": 158.72999999999593,
      "v": 80
    },
    {
      "midi": 54,
      "hit": false,
      "t": 116904.64500000053,
      "d": 79.36500000000524,
      "v": 50
    },
    {
      "midi": 54,
      "hit": false,
      "t": 117023.69250000053,
      "d": 79.36500000000524,
      "v": 50
    },
    {
      "midi": 79,
      "hit": false,
      "t": 117137.77968749999,
      "d": 505.95187499999884,
      "v": 64
    },
    {
      "midi": 37,
      "hit": false,
      "t": 117142.74000000006,
      "d": 158.72999999999593,
      "v": 80
    },
    {
      "midi": 35,
      "hit": false,
      "t": 117142.74000000034,
      "d": 317.4600000000064,
      "v": 100
    },
    {
      "midi": 54,
      "hit": false,
      "t": 117142.74000000053,
      "d": 79.36500000000524,
      "v": 50
    },
    {
      "midi": 54,
      "hit": false,
      "t": 117261.78750000053,
      "d": 79.36500000000524,
      "v": 50
    },
    {
      "midi": 37,
      "hit": false,
      "t": 117380.83500000006,
      "d": 158.72999999999593,
      "v": 80
    },
    {
      "midi": 54,
      "hit": false,
      "t": 117380.83500000053,
      "d": 79.36500000000524,
      "v": 50
    },
    {
      "midi": 54,
      "hit": false,
      "t": 117499.88250000053,
      "d": 79.36500000000524,
      "v": 50
    },
    {
      "midi": 37,
      "hit": false,
      "t": 117618.93000000007,
      "d": 158.72999999999593,
      "v": 80
    },
    {
      "midi": 35,
      "hit": false,
      "t": 117618.93000000034,
      "d": 317.4600000000064,
      "v": 100
    },
    {
      "midi": 54,
      "hit": false,
      "t": 117618.93000000053,
      "d": 79.36500000000524,
      "v": 50
    },
    {
      "midi": 76,
      "hit": false,
      "t": 117648.69187499999,
      "d": 327.38062500000524,
      "v": 64
    },
    {
      "midi": 54,
      "hit": false,
      "t": 117737.97750000053,
      "d": 79.36500000000524,
      "v": 50
    },
    {
      "midi": 54,
      "hit": false,
      "t": 117857.02500000053,
      "d": 79.36500000000524,
      "v": 50
    },
    {
      "midi": 54,
      "hit": false,
      "t": 117976.07250000053,
      "d": 79.36500000000524,
      "v": 50
    },
    {
      "midi": 81,
      "hit": false,
      "t": 118095.12,
      "d": 476.1900000000023,
      "v": 64
    },
    {
      "midi": 35,
      "hit": false,
      "t": 118095.12000000034,
      "d": 317.4600000000064,
      "v": 100
    },
    {
      "midi": 54,
      "hit": false,
      "t": 118095.12000000053,
      "d": 79.36500000000524,
      "v": 50
    },
    {
      "midi": 76,
      "hit": false,
      "t": 118100.08031249995,
      "d": 138.88874999999825,
      "v": 64
    },
    {
      "midi": 76,
      "hit": false,
      "t": 118100.08031250001,
      "d": 138.88874999999825,
      "v": 64
    },
    {
      "midi": 54,
      "hit": false,
      "t": 118214.16750000053,
      "d": 79.36500000000524,
      "v": 50
    },
    {
      "midi": 78,
      "hit": false,
      "t": 118333.21499999995,
      "d": 168.65062499999476,
      "v": 64
    },
    {
      "midi": 78,
      "hit": false,
      "t": 118333.21500000001,
      "d": 168.65062499999476,
      "v": 64
    },
    {
      "midi": 37,
      "hit": false,
      "t": 118333.21500000005,
      "d": 79.36500000000524,
      "v": 80
    },
    {
      "midi": 54,
      "hit": false,
      "t": 118333.21500000053,
      "d": 79.36500000000524,
      "v": 50
    },
    {
      "midi": 37,
      "hit": false,
      "t": 118452.26250000006,
      "d": 79.36500000000524,
      "v": 80
    },
    {
      "midi": 54,
      "hit": false,
      "t": 118452.26250000054,
      "d": 79.36500000000524,
      "v": 50
    },
    {
      "midi": 37,
      "hit": false,
      "t": 118571.31000000006,
      "d": 79.36500000000524,
      "v": 80
    },
    {
      "midi": 35,
      "hit": false,
      "t": 118571.31000000035,
      "d": 317.4600000000064,
      "v": 100
    },
    {
      "midi": 54,
      "hit": false,
      "t": 118571.31000000054,
      "d": 79.36500000000524,
      "v": 50
    },
    {
      "midi": 81,
      "hit": false,
      "t": 118596.11156249995,
      "d": 114.08718750000116,
      "v": 64
    },
    {
      "midi": 81,
      "hit": false,
      "t": 118596.11156250001,
      "d": 114.08718750000116,
      "v": 64
    },
    {
      "midi": 37,
      "hit": false,
      "t": 118690.35750000006,
      "d": 79.36500000000524,
      "v": 80
    },
    {
      "midi": 54,
      "hit": false,
      "t": 118690.35750000054,
      "d": 79.36500000000524,
      "v": 50
    },
    {
      "midi": 37,
      "hit": false,
      "t": 118804.44468750006,
      "d": 158.72999999999593,
      "v": 80
    },
    {
      "midi": 54,
      "hit": false,
      "t": 118809.40500000054,
      "d": 79.36500000000524,
      "v": 50
    },
    {
      "midi": 54,
      "hit": false,
      "t": 118928.45250000054,
      "d": 79.36500000000524,
      "v": 50
    },
    {
      "midi": 81,
      "hit": false,
      "t": 119027.65874999996,
      "d": 114.08718750000116,
      "v": 64
    },
    {
      "midi": 81,
      "hit": false,
      "t": 119027.65875000002,
      "d": 114.08718750000116,
      "v": 64
    },
    {
      "midi": 37,
      "hit": false,
      "t": 119047.50000000006,
      "d": 158.72999999999593,
      "v": 80
    },
    {
      "midi": 35,
      "hit": false,
      "t": 119047.50000000035,
      "d": 317.4600000000064,
      "v": 100
    },
    {
      "midi": 54,
      "hit": false,
      "t": 119047.50000000054,
      "d": 79.36500000000524,
      "v": 50
    },
    {
      "midi": 54,
      "hit": false,
      "t": 119166.54750000054,
      "d": 79.36500000000524,
      "v": 50
    },
    {
      "midi": 37,
      "hit": false,
      "t": 119285.59500000006,
      "d": 158.72999999999593,
      "v": 80
    },
    {
      "midi": 54,
      "hit": false,
      "t": 119285.59500000054,
      "d": 79.36500000000524,
      "v": 50
    },
    {
      "midi": 81,
      "hit": false,
      "t": 119389.76156249996,
      "d": 218.2537500000035,
      "v": 64
    },
    {
      "midi": 81,
      "hit": false,
      "t": 119389.76156250002,
      "d": 218.2537500000035,
      "v": 64
    },
    {
      "midi": 54,
      "hit": false,
      "t": 119404.64250000054,
      "d": 79.36500000000524,
      "v": 50
    },
    {
      "midi": 37,
      "hit": false,
      "t": 119523.69000000006,
      "d": 158.72999999999593,
      "v": 80
    },
    {
      "midi": 35,
      "hit": false,
      "t": 119523.69000000035,
      "d": 317.4600000000064,
      "v": 100
    },
    {
      "midi": 54,
      "hit": false,
      "t": 119523.69000000054,
      "d": 79.36500000000524,
      "v": 50
    },
    {
      "midi": 54,
      "hit": false,
      "t": 119642.73750000054,
      "d": 79.36500000000524,
      "v": 50
    },
    {
      "midi": 66,
      "hit": false,
      "t": 119756.82468750015,
      "d": 218.2537500000035,
      "v": 127
    },
    {
      "midi": 54,
      "hit": false,
      "t": 119761.78500000054,
      "d": 79.36500000000524,
      "v": 50
    },
    {
      "midi": 54,
      "hit": false,
      "t": 119880.83250000054,
      "d": 79.36500000000524,
      "v": 50
    },
    {
      "midi": 62,
      "hit": false,
      "t": 119999.88000000015,
      "d": 912.6974999999948,
      "v": 127
    },
    {
      "midi": 35,
      "hit": false,
      "t": 119999.88000000035,
      "d": 317.4600000000064,
      "v": 100
    },
    {
      "midi": 54,
      "hit": false,
      "t": 119999.88000000054,
      "d": 79.36500000000524,
      "v": 50
    },
    {
      "midi": 54,
      "hit": false,
      "t": 120118.92750000054,
      "d": 79.36500000000524,
      "v": 50
    },
    {
      "midi": 37,
      "hit": false,
      "t": 120237.97500000005,
      "d": 79.36500000000524,
      "v": 80
    },
    {
      "midi": 54,
      "hit": false,
      "t": 120237.97500000054,
      "d": 79.36500000000524,
      "v": 50
    },
    {
      "midi": 37,
      "hit": false,
      "t": 120357.02250000005,
      "d": 79.36500000000524,
      "v": 80
    },
    {
      "midi": 54,
      "hit": false,
      "t": 120357.02250000054,
      "d": 79.36500000000524,
      "v": 50
    },
    {
      "midi": 74,
      "hit": false,
      "t": 120476.06999999999,
      "d": 1249.9987499999988,
      "v": 64
    },
    {
      "midi": 37,
      "hit": false,
      "t": 120476.07000000005,
      "d": 79.36500000000524,
      "v": 80
    },
    {
      "midi": 35,
      "hit": false,
      "t": 120476.07000000036,
      "d": 317.4600000000064,
      "v": 100
    },
    {
      "midi": 54,
      "hit": false,
      "t": 120476.07000000055,
      "d": 79.36500000000524,
      "v": 50
    },
    {
      "midi": 37,
      "hit": false,
      "t": 120595.11750000005,
      "d": 79.36500000000524,
      "v": 80
    },
    {
      "midi": 54,
      "hit": false,
      "t": 120595.11750000055,
      "d": 79.36500000000524,
      "v": 50
    },
    {
      "midi": 37,
      "hit": false,
      "t": 120709.20468750005,
      "d": 158.72999999999593,
      "v": 80
    },
    {
      "midi": 54,
      "hit": false,
      "t": 120714.16500000055,
      "d": 79.36500000000524,
      "v": 50
    },
    {
      "midi": 54,
      "hit": false,
      "t": 120833.21250000055,
      "d": 79.36500000000524,
      "v": 50
    },
    {
      "midi": 37,
      "hit": false,
      "t": 120952.26000000005,
      "d": 158.72999999999593,
      "v": 80
    },
    {
      "midi": 66,
      "hit": false,
      "t": 120952.26000000014,
      "d": 218.2537500000035,
      "v": 127
    },
    {
      "midi": 35,
      "hit": false,
      "t": 120952.26000000036,
      "d": 317.4600000000064,
      "v": 100
    },
    {
      "midi": 54,
      "hit": false,
      "t": 120952.26000000055,
      "d": 79.36500000000524,
      "v": 50
    },
    {
      "midi": 54,
      "hit": false,
      "t": 121071.30750000055,
      "d": 79.36500000000524,
      "v": 50
    },
    {
      "midi": 69,
      "hit": false,
      "t": 121185.39468750014,
      "d": 218.2537500000035,
      "v": 127
    },
    {
      "midi": 37,
      "hit": false,
      "t": 121190.35500000005,
      "d": 158.72999999999593,
      "v": 80
    },
    {
      "midi": 54,
      "hit": false,
      "t": 121190.35500000055,
      "d": 79.36500000000524,
      "v": 50
    },
    {
      "midi": 54,
      "hit": false,
      "t": 121309.40250000055,
      "d": 79.36500000000524,
      "v": 50
    },
    {
      "midi": 37,
      "hit": false,
      "t": 121428.45000000006,
      "d": 158.72999999999593,
      "v": 80
    },
    {
      "midi": 66,
      "hit": false,
      "t": 121428.45000000014,
      "d": 218.2537500000035,
      "v": 127
    },
    {
      "midi": 35,
      "hit": false,
      "t": 121428.45000000036,
      "d": 317.4600000000064,
      "v": 100
    },
    {
      "midi": 54,
      "hit": false,
      "t": 121428.45000000055,
      "d": 79.36500000000524,
      "v": 50
    },
    {
      "midi": 54,
      "hit": false,
      "t": 121547.49750000055,
      "d": 79.36500000000524,
      "v": 50
    },
    {
      "midi": 64,
      "hit": false,
      "t": 121661.58468750014,
      "d": 2003.9662499999977,
      "v": 127
    },
    {
      "midi": 54,
      "hit": false,
      "t": 121666.54500000055,
      "d": 79.36500000000524,
      "v": 50
    },
    {
      "midi": 69,
      "hit": false,
      "t": 121721.10843749999,
      "d": 342.2615625000035,
      "v": 64
    },
    {
      "midi": 54,
      "hit": false,
      "t": 121785.59250000055,
      "d": 79.36500000000524,
      "v": 50
    },
    {
      "midi": 35,
      "hit": false,
      "t": 121904.64000000036,
      "d": 317.4600000000064,
      "v": 100
    },
    {
      "midi": 54,
      "hit": false,
      "t": 121904.64000000055,
      "d": 79.36500000000524,
      "v": 50
    },
    {
      "midi": 54,
      "hit": false,
      "t": 122023.68750000055,
      "d": 79.36500000000524,
      "v": 50
    },
    {
      "midi": 37,
      "hit": false,
      "t": 122142.73500000004,
      "d": 79.36500000000524,
      "v": 80
    },
    {
      "midi": 54,
      "hit": false,
      "t": 122142.73500000055,
      "d": 79.36500000000524,
      "v": 50
    },
    {
      "midi": 76,
      "hit": false,
      "t": 122147.6953125,
      "d": 297.6187499999942,
      "v": 64
    },
    {
      "midi": 37,
      "hit": false,
      "t": 122261.78250000004,
      "d": 79.36500000000524,
      "v": 80
    },
    {
      "midi": 54,
      "hit": false,
      "t": 122261.78250000055,
      "d": 79.36500000000524,
      "v": 50
    },
    {
      "midi": 37,
      "hit": false,
      "t": 122380.83000000005,
      "d": 79.36500000000524,
      "v": 80
    },
    {
      "midi": 35,
      "hit": false,
      "t": 122380.83000000037,
      "d": 317.4600000000064,
      "v": 100
    },
    {
      "midi": 54,
      "hit": false,
      "t": 122380.83000000055,
      "d": 79.36500000000524,
      "v": 50
    },
    {
      "midi": 74,
      "hit": false,
      "t": 122410.591875,
      "d": 188.49187499999243,
      "v": 64
    },
    {
      "midi": 37,
      "hit": false,
      "t": 122499.87750000005,
      "d": 79.36500000000524,
      "v": 80
    },
    {
      "midi": 54,
      "hit": false,
      "t": 122499.87750000056,
      "d": 79.36500000000524,
      "v": 50
    },
    {
      "midi": 37,
      "hit": false,
      "t": 122613.96468750005,
      "d": 158.72999999999593,
      "v": 80
    },
    {
      "midi": 54,
      "hit": false,
      "t": 122618.92500000056,
      "d": 79.36500000000524,
      "v": 50
    },
    {
      "midi": 73,
      "hit": false,
      "t": 122648.68687499998,
      "d": 178.5712499999936,
      "v": 64
    },
    {
      "midi": 54,
      "hit": false,
      "t": 122737.97250000056,
      "d": 79.36500000000524,
      "v": 50
    },
    {
      "midi": 37,
      "hit": false,
      "t": 122857.02000000005,
      "d": 158.72999999999593,
      "v": 80
    },
    {
      "midi": 35,
      "hit": false,
      "t": 122857.02000000037,
      "d": 317.4600000000064,
      "v": 100
    },
    {
      "midi": 54,
      "hit": false,
      "t": 122857.02000000056,
      "d": 79.36500000000524,
      "v": 50
    },
    {
      "midi": 69,
      "hit": false,
      "t": 122886.78187500003,
      "d": 922.6181249999936,
      "v": 50
    },
    {
      "midi": 54,
      "hit": false,
      "t": 122976.06750000056,
      "d": 79.36500000000524,
      "v": 50
    },
    {
      "midi": 69,
      "hit": false,
      "t": 123090.15468749998,
      "d": 758.9278124999983,
      "v": 64
    },
    {
      "midi": 37,
      "hit": false,
      "t": 123095.11500000005,
      "d": 158.72999999999593,
      "v": 80
    },
    {
      "midi": 54,
      "hit": false,
      "t": 123095.11500000056,
      "d": 79.36500000000524,
      "v": 50
    },
    {
      "midi": 54,
      "hit": false,
      "t": 123214.16250000056,
      "d": 79.36500000000524,
      "v": 50
    },
    {
      "midi": 37,
      "hit": false,
      "t": 123333.21000000005,
      "d": 158.72999999999593,
      "v": 80
    },
    {
      "midi": 35,
      "hit": false,
      "t": 123333.21000000037,
      "d": 317.4600000000064,
      "v": 100
    },
    {
      "midi": 54,
      "hit": false,
      "t": 123333.21000000056,
      "d": 79.36500000000524,
      "v": 50
    },
    {
      "midi": 54,
      "hit": false,
      "t": 123452.25750000056,
      "d": 79.36500000000524,
      "v": 50
    },
    {
      "midi": 54,
      "hit": false,
      "t": 123571.30500000056,
      "d": 79.36500000000524,
      "v": 50
    },
    {
      "midi": 54,
      "hit": false,
      "t": 123690.35250000056,
      "d": 79.36500000000524,
      "v": 50
    },
    {
      "midi": 67,
      "hit": false,
      "t": 123809.40000000014,
      "d": 158.72999999999593,
      "v": 127
    },
    {
      "midi": 35,
      "hit": false,
      "t": 123809.40000000037,
      "d": 317.4600000000064,
      "v": 100
    },
    {
      "midi": 54,
      "hit": false,
      "t": 123809.40000000056,
      "d": 79.36500000000524,
      "v": 50
    },
    {
      "midi": 67,
      "hit": false,
      "t": 123834.20156250002,
      "d": 1760.910937499997,
      "v": 50
    },
    {
      "midi": 54,
      "hit": false,
      "t": 123928.44750000056,
      "d": 79.36500000000524,
      "v": 50
    },
    {
      "midi": 67,
      "hit": false,
      "t": 124042.53468750014,
      "d": 158.72999999999593,
      "v": 127
    },
    {
      "midi": 37,
      "hit": false,
      "t": 124047.49500000004,
      "d": 79.36500000000524,
      "v": 80
    },
    {
      "midi": 54,
      "hit": false,
      "t": 124047.49500000056,
      "d": 79.36500000000524,
      "v": 50
    },
    {
      "midi": 37,
      "hit": false,
      "t": 124166.54250000004,
      "d": 79.36500000000524,
      "v": 80
    },
    {
      "midi": 54,
      "hit": false,
      "t": 124166.54250000056,
      "d": 79.36500000000524,
      "v": 50
    },
    {
      "midi": 37,
      "hit": false,
      "t": 124285.59000000004,
      "d": 79.36500000000524,
      "v": 80
    },
    {
      "midi": 67,
      "hit": false,
      "t": 124285.59000000014,
      "d": 158.72999999999593,
      "v": 127
    },
    {
      "midi": 35,
      "hit": false,
      "t": 124285.59000000037,
      "d": 317.4600000000064,
      "v": 100
    },
    {
      "midi": 54,
      "hit": false,
      "t": 124285.59000000056,
      "d": 79.36500000000524,
      "v": 50
    },
    {
      "midi": 37,
      "hit": false,
      "t": 124404.63750000004,
      "d": 79.36500000000524,
      "v": 80
    },
    {
      "midi": 54,
      "hit": false,
      "t": 124404.63750000056,
      "d": 79.36500000000524,
      "v": 50
    },
    {
      "midi": 37,
      "hit": false,
      "t": 124518.72468750004,
      "d": 158.72999999999593,
      "v": 80
    },
    {
      "midi": 67,
      "hit": false,
      "t": 124518.72468750014,
      "d": 158.72999999999593,
      "v": 127
    },
    {
      "midi": 54,
      "hit": false,
      "t": 124523.68500000057,
      "d": 79.36500000000524,
      "v": 50
    },
    {
      "midi": 54,
      "hit": false,
      "t": 124642.73250000057,
      "d": 79.36500000000524,
      "v": 50
    },
    {
      "midi": 37,
      "hit": false,
      "t": 124761.78000000004,
      "d": 158.72999999999593,
      "v": 80
    },
    {
      "midi": 67,
      "hit": false,
      "t": 124761.78000000014,
      "d": 436.507500000007,
      "v": 127
    },
    {
      "midi": 35,
      "hit": false,
      "t": 124761.78000000038,
      "d": 317.4600000000064,
      "v": 100
    },
    {
      "midi": 54,
      "hit": false,
      "t": 124761.78000000057,
      "d": 79.36500000000524,
      "v": 50
    },
    {
      "midi": 54,
      "hit": false,
      "t": 124880.82750000057,
      "d": 79.36500000000524,
      "v": 50
    },
    {
      "midi": 37,
      "hit": false,
      "t": 124999.87500000004,
      "d": 158.72999999999593,
      "v": 80
    },
    {
      "midi": 54,
      "hit": false,
      "t": 124999.87500000057,
      "d": 79.36500000000524,
      "v": 50
    },
    {
      "midi": 54,
      "hit": false,
      "t": 125118.92250000057,
      "d": 79.36500000000524,
      "v": 50
    },
    {
      "midi": 37,
      "hit": false,
      "t": 125237.97000000004,
      "d": 158.72999999999593,
      "v": 80
    },
    {
      "midi": 69,
      "hit": false,
      "t": 125237.97000000015,
      "d": 436.507500000007,
      "v": 127
    },
    {
      "midi": 35,
      "hit": false,
      "t": 125237.97000000038,
      "d": 317.4600000000064,
      "v": 100
    },
    {
      "midi": 54,
      "hit": false,
      "t": 125237.97000000057,
      "d": 79.36500000000524,
      "v": 50
    },
    {
      "midi": 54,
      "hit": false,
      "t": 125357.01750000057,
      "d": 79.36500000000524,
      "v": 50
    },
    {
      "midi": 54,
      "hit": false,
      "t": 125476.06500000057,
      "d": 79.36500000000524,
      "v": 50
    },
    {
      "midi": 54,
      "hit": false,
      "t": 125595.11250000057,
      "d": 79.36500000000524,
      "v": 50
    },
    {
      "midi": 66,
      "hit": false,
      "t": 125674.47750000002,
      "d": 600.1978125000023,
      "v": 50
    },
    {
      "midi": 66,
      "hit": false,
      "t": 125714.16000000015,
      "d": 436.507500000007,
      "v": 127
    },
    {
      "midi": 35,
      "hit": false,
      "t": 125714.16000000038,
      "d": 317.4600000000064,
      "v": 100
    },
    {
      "midi": 54,
      "hit": false,
      "t": 125714.16000000057,
      "d": 79.36500000000524,
      "v": 50
    },
    {
      "midi": 54,
      "hit": false,
      "t": 125833.20750000057,
      "d": 79.36500000000524,
      "v": 50
    },
    {
      "midi": 37,
      "hit": false,
      "t": 125952.25500000003,
      "d": 79.36500000000524,
      "v": 80
    },
    {
      "midi": 54,
      "hit": false,
      "t": 125952.25500000057,
      "d": 79.36500000000524,
      "v": 50
    },
    {
      "midi": 37,
      "hit": false,
      "t": 126071.30250000003,
      "d": 79.36500000000524,
      "v": 80
    },
    {
      "midi": 54,
      "hit": false,
      "t": 126071.30250000057,
      "d": 79.36500000000524,
      "v": 50
    },
    {
      "midi": 37,
      "hit": false,
      "t": 126190.35000000003,
      "d": 79.36500000000524,
      "v": 80
    },
    {
      "midi": 64,
      "hit": false,
      "t": 126190.35000000015,
      "d": 218.2537500000035,
      "v": 127
    },
    {
      "midi": 35,
      "hit": false,
      "t": 126190.35000000038,
      "d": 317.4600000000064,
      "v": 100
    },
    {
      "midi": 54,
      "hit": false,
      "t": 126190.35000000057,
      "d": 79.36500000000524,
      "v": 50
    },
    {
      "midi": 37,
      "hit": false,
      "t": 126309.39750000004,
      "d": 79.36500000000524,
      "v": 80
    },
    {
      "midi": 54,
      "hit": false,
      "t": 126309.39750000057,
      "d": 79.36500000000524,
      "v": 50
    },
    {
      "midi": 37,
      "hit": false,
      "t": 126423.48468750004,
      "d": 158.72999999999593,
      "v": 80
    },
    {
      "midi": 62,
      "hit": false,
      "t": 126423.48468750015,
      "d": 436.507500000007,
      "v": 127
    },
    {
      "midi": 54,
      "hit": false,
      "t": 126428.44500000057,
      "d": 79.36500000000524,
      "v": 50
    },
    {
      "midi": 54,
      "hit": false,
      "t": 126547.49250000058,
      "d": 79.36500000000524,
      "v": 50
    },
    {
      "midi": 37,
      "hit": false,
      "t": 126666.54000000004,
      "d": 158.72999999999593,
      "v": 80
    },
    {
      "midi": 35,
      "hit": false,
      "t": 126666.54000000039,
      "d": 317.4600000000064,
      "v": 100
    },
    {
      "midi": 54,
      "hit": false,
      "t": 126666.54000000058,
      "d": 79.36500000000524,
      "v": 50
    },
    {
      "midi": 54,
      "hit": false,
      "t": 126785.58750000058,
      "d": 79.36500000000524,
      "v": 50
    },
    {
      "midi": 64,
      "hit": false,
      "t": 126899.67468750016,
      "d": 436.507500000007,
      "v": 127
    },
    {
      "midi": 37,
      "hit": false,
      "t": 126904.63500000004,
      "d": 158.72999999999593,
      "v": 80
    },
    {
      "midi": 54,
      "hit": false,
      "t": 126904.63500000058,
      "d": 79.36500000000524,
      "v": 50
    },
    {
      "midi": 54,
      "hit": false,
      "t": 127023.68250000058,
      "d": 79.36500000000524,
      "v": 50
    },
    {
      "midi": 37,
      "hit": false,
      "t": 127142.73000000004,
      "d": 158.72999999999593,
      "v": 80
    },
    {
      "midi": 35,
      "hit": false,
      "t": 127142.73000000039,
      "d": 317.4600000000064,
      "v": 100
    },
    {
      "midi": 54,
      "hit": false,
      "t": 127142.73000000058,
      "d": 79.36500000000524,
      "v": 50
    },
    {
      "midi": 54,
      "hit": false,
      "t": 127261.77750000058,
      "d": 79.36500000000524,
      "v": 50
    },
    {
      "midi": 66,
      "hit": false,
      "t": 127375.86468750016,
      "d": 218.2537500000035,
      "v": 127
    },
    {
      "midi": 54,
      "hit": false,
      "t": 127380.82500000058,
      "d": 79.36500000000524,
      "v": 50
    },
    {
      "midi": 66,
      "hit": false,
      "t": 127390.74562500003,
      "d": 148.8093749999971,
      "v": 50
    },
    {
      "midi": 54,
      "hit": false,
      "t": 127499.87250000058,
      "d": 79.36500000000524,
      "v": 50
    },
    {
      "midi": 62,
      "hit": false,
      "t": 127618.92000000016,
      "d": 912.6974999999948,
      "v": 127
    },
    {
      "midi": 35,
      "hit": false,
      "t": 127618.92000000039,
      "d": 317.4600000000064,
      "v": 100
    },
    {
      "midi": 54,
      "hit": false,
      "t": 127618.92000000058,
      "d": 79.36500000000524,
      "v": 50
    },
    {
      "midi": 62,
      "hit": false,
      "t": 127623.88031250003,
      "d": 768.8484374999971,
      "v": 50
    },
    {
      "midi": 54,
      "hit": false,
      "t": 127737.96750000058,
      "d": 79.36500000000524,
      "v": 50
    },
    {
      "midi": 37,
      "hit": false,
      "t": 127857.01500000003,
      "d": 79.36500000000524,
      "v": 80
    },
    {
      "midi": 54,
      "hit": false,
      "t": 127857.01500000058,
      "d": 79.36500000000524,
      "v": 50
    },
    {
      "midi": 37,
      "hit": false,
      "t": 127976.06250000003,
      "d": 79.36500000000524,
      "v": 80
    },
    {
      "midi": 54,
      "hit": false,
      "t": 127976.06250000058,
      "d": 79.36500000000524,
      "v": 50
    },
    {
      "midi": 74,
      "hit": false,
      "t": 128095.10999999997,
      "d": 1200.3956250000047,
      "v": 64
    },
    {
      "midi": 37,
      "hit": false,
      "t": 128095.11000000003,
      "d": 79.36500000000524,
      "v": 80
    },
    {
      "midi": 35,
      "hit": false,
      "t": 128095.1100000004,
      "d": 317.4600000000064,
      "v": 100
    },
    {
      "midi": 54,
      "hit": false,
      "t": 128095.11000000058,
      "d": 79.36500000000524,
      "v": 50
    },
    {
      "midi": 37,
      "hit": false,
      "t": 128214.15750000003,
      "d": 79.36500000000524,
      "v": 80
    },
    {
      "midi": 54,
      "hit": false,
      "t": 128214.15750000058,
      "d": 79.36500000000524,
      "v": 50
    },
    {
      "midi": 37,
      "hit": false,
      "t": 128328.24468750003,
      "d": 158.72999999999593,
      "v": 80
    },
    {
      "midi": 54,
      "hit": false,
      "t": 128333.20500000058,
      "d": 79.36500000000524,
      "v": 50
    },
    {
      "midi": 54,
      "hit": false,
      "t": 128452.25250000058,
      "d": 79.36500000000524,
      "v": 50
    },
    {
      "midi": 37,
      "hit": false,
      "t": 128571.30000000003,
      "d": 158.72999999999593,
      "v": 80
    },
    {
      "midi": 66,
      "hit": false,
      "t": 128571.30000000015,
      "d": 218.2537500000035,
      "v": 127
    },
    {
      "midi": 35,
      "hit": false,
      "t": 128571.3000000004,
      "d": 317.4600000000064,
      "v": 100
    },
    {
      "midi": 54,
      "hit": false,
      "t": 128571.30000000058,
      "d": 79.36500000000524,
      "v": 50
    },
    {
      "midi": 54,
      "hit": false,
      "t": 128690.34750000059,
      "d": 79.36500000000524,
      "v": 50
    },
    {
      "midi": 69,
      "hit": false,
      "t": 128804.43468750015,
      "d": 218.2537500000035,
      "v": 127
    },
    {
      "midi": 37,
      "hit": false,
      "t": 128809.39500000003,
      "d": 158.72999999999593,
      "v": 80
    },
    {
      "midi": 54,
      "hit": false,
      "t": 128809.39500000059,
      "d": 79.36500000000524,
      "v": 50
    },
    {
      "midi": 54,
      "hit": false,
      "t": 128928.44250000059,
      "d": 79.36500000000524,
      "v": 50
    },
    {
      "midi": 37,
      "hit": false,
      "t": 129047.49000000003,
      "d": 158.72999999999593,
      "v": 80
    },
    {
      "midi": 66,
      "hit": false,
      "t": 129047.49000000015,
      "d": 218.2537500000035,
      "v": 127
    },
    {
      "midi": 35,
      "hit": false,
      "t": 129047.4900000004,
      "d": 317.4600000000064,
      "v": 100
    },
    {
      "midi": 54,
      "hit": false,
      "t": 129047.49000000059,
      "d": 79.36500000000524,
      "v": 50
    },
    {
      "midi": 54,
      "hit": false,
      "t": 129166.53750000059,
      "d": 79.36500000000524,
      "v": 50
    },
    {
      "midi": 64,
      "hit": false,
      "t": 129280.62468750015,
      "d": 2003.9662499999977,
      "v": 127
    },
    {
      "midi": 54,
      "hit": false,
      "t": 129285.58500000059,
      "d": 79.36500000000524,
      "v": 50
    },
    {
      "midi": 69,
      "hit": false,
      "t": 129290.54531249998,
      "d": 381.94406249999884,
      "v": 64
    },
    {
      "midi": 54,
      "hit": false,
      "t": 129404.63250000059,
      "d": 79.36500000000524,
      "v": 50
    },
    {
      "midi": 35,
      "hit": false,
      "t": 129523.6800000004,
      "d": 317.4600000000064,
      "v": 100
    },
    {
      "midi": 54,
      "hit": false,
      "t": 129523.68000000059,
      "d": 79.36500000000524,
      "v": 50
    },
    {
      "midi": 54,
      "hit": false,
      "t": 129642.72750000059,
      "d": 79.36500000000524,
      "v": 50
    },
    {
      "midi": 37,
      "hit": false,
      "t": 129761.77500000002,
      "d": 79.36500000000524,
      "v": 80
    },
    {
      "midi": 54,
      "hit": false,
      "t": 129761.77500000059,
      "d": 79.36500000000524,
      "v": 50
    },
    {
      "midi": 76,
      "hit": false,
      "t": 129786.57656249998,
      "d": 243.05531250000058,
      "v": 64
    },
    {
      "midi": 37,
      "hit": false,
      "t": 129880.82250000002,
      "d": 79.36500000000524,
      "v": 80
    },
    {
      "midi": 54,
      "hit": false,
      "t": 129880.82250000059,
      "d": 79.36500000000524,
      "v": 50
    },
    {
      "midi": 37,
      "hit": false,
      "t": 129999.87000000002,
      "d": 79.36500000000524,
      "v": 80
    },
    {
      "midi": 35,
      "hit": false,
      "t": 129999.8700000004,
      "d": 317.4600000000064,
      "v": 100
    },
    {
      "midi": 54,
      "hit": false,
      "t": 129999.87000000059,
      "d": 79.36500000000524,
      "v": 50
    },
    {
      "midi": 74,
      "hit": false,
      "t": 130009.79062499998,
      "d": 208.33312500000466,
      "v": 64
    },
    {
      "midi": 37,
      "hit": false,
      "t": 130118.91750000003,
      "d": 79.36500000000524,
      "v": 80
    },
    {
      "midi": 54,
      "hit": false,
      "t": 130118.91750000059,
      "d": 79.36500000000524,
      "v": 50
    },
    {
      "midi": 37,
      "hit": false,
      "t": 130233.00468750003,
      "d": 158.72999999999593,
      "v": 80
    },
    {
      "midi": 73,
      "hit": false,
      "t": 130237.96499999998,
      "d": 233.13468750000175,
      "v": 64
    },
    {
      "midi": 54,
      "hit": false,
      "t": 130237.9650000006,
      "d": 79.36500000000524,
      "v": 50
    },
    {
      "midi": 54,
      "hit": false,
      "t": 130357.0125000006,
      "d": 79.36500000000524,
      "v": 50
    },
    {
      "midi": 69,
      "hit": false,
      "t": 130436.37750000002,
      "d": 927.5784375000076,
      "v": 50
    },
    {
      "midi": 37,
      "hit": false,
      "t": 130476.06000000003,
      "d": 158.72999999999593,
      "v": 80
    },
    {
      "midi": 35,
      "hit": false,
      "t": 130476.0600000004,
      "d": 317.4600000000064,
      "v": 100
    },
    {
      "midi": 54,
      "hit": false,
      "t": 130476.0600000006,
      "d": 79.36500000000524,
      "v": 50
    },
    {
      "midi": 54,
      "hit": false,
      "t": 130595.1075000006,
      "d": 79.36500000000524,
      "v": 50
    },
    {
      "midi": 37,
      "hit": false,
      "t": 130714.15500000003,
      "d": 158.72999999999593,
      "v": 80
    },
    {
      "midi": 54,
      "hit": false,
      "t": 130714.1550000006,
      "d": 79.36500000000524,
      "v": 50
    },
    {
      "midi": 76,
      "hit": false,
      "t": 130719.11531249998,
      "d": 897.8165624999965,
      "v": 64
    },
    {
      "midi": 54,
      "hit": false,
      "t": 130833.2025000006,
      "d": 79.36500000000524,
      "v": 50
    },
    {
      "midi": 37,
      "hit": false,
      "t": 130952.25000000003,
      "d": 158.73000000001048,
      "v": 80
    },
    {
      "midi": 35,
      "hit": false,
      "t": 130952.25000000041,
      "d": 317.45999999999185,
      "v": 100
    },
    {
      "midi": 54,
      "hit": false,
      "t": 130952.2500000006,
      "d": 79.36500000000524,
      "v": 50
    },
    {
      "midi": 54,
      "hit": false,
      "t": 131071.2975000006,
      "d": 79.36499999999069,
      "v": 50
    },
    {
      "midi": 54,
      "hit": false,
      "t": 131190.34500000058,
      "d": 79.36499999999069,
      "v": 50
    },
    {
      "midi": 54,
      "hit": false,
      "t": 131309.39250000057,
      "d": 79.36499999999069,
      "v": 50
    },
    {
      "midi": 67,
      "hit": false,
      "t": 131428.44000000015,
      "d": 158.73000000001048,
      "v": 127
    },
    {
      "midi": 35,
      "hit": false,
      "t": 131428.4400000004,
      "d": 317.45999999999185,
      "v": 100
    },
    {
      "midi": 54,
      "hit": false,
      "t": 131428.44000000056,
      "d": 79.36499999999069,
      "v": 50
    },
    {
      "midi": 67,
      "hit": false,
      "t": 131438.36062500003,
      "d": 1825.3949999999895,
      "v": 50
    },
    {
      "midi": 54,
      "hit": false,
      "t": 131547.48750000054,
      "d": 79.36499999999069,
      "v": 50
    },
    {
      "midi": 67,
      "hit": false,
      "t": 131661.57468750016,
      "d": 158.73000000001048,
      "v": 127
    },
    {
      "midi": 37,
      "hit": false,
      "t": 131666.53500000003,
      "d": 79.36499999999069,
      "v": 80
    },
    {
      "midi": 54,
      "hit": false,
      "t": 131666.53500000053,
      "d": 79.36499999999069,
      "v": 50
    },
    {
      "midi": 37,
      "hit": false,
      "t": 131785.58250000002,
      "d": 79.36499999999069,
      "v": 80
    },
    {
      "midi": 54,
      "hit": false,
      "t": 131785.5825000005,
      "d": 79.36499999999069,
      "v": 50
    },
    {
      "midi": 37,
      "hit": false,
      "t": 131904.63,
      "d": 79.36499999999069,
      "v": 80
    },
    {
      "midi": 67,
      "hit": false,
      "t": 131904.63000000018,
      "d": 158.73000000001048,
      "v": 127
    },
    {
      "midi": 35,
      "hit": false,
      "t": 131904.6300000004,
      "d": 317.45999999999185,
      "v": 100
    },
    {
      "midi": 54,
      "hit": false,
      "t": 131904.6300000005,
      "d": 79.36499999999069,
      "v": 50
    },
    {
      "midi": 37,
      "hit": false,
      "t": 132023.6775,
      "d": 79.36499999999069,
      "v": 80
    },
    {
      "midi": 54,
      "hit": false,
      "t": 132023.6775000005,
      "d": 79.36499999999069,
      "v": 50
    },
    {
      "midi": 37,
      "hit": false,
      "t": 132137.7646875,
      "d": 158.73000000001048,
      "v": 80
    },
    {
      "midi": 67,
      "hit": false,
      "t": 132137.7646875002,
      "d": 158.73000000001048,
      "v": 127
    },
    {
      "midi": 54,
      "hit": false,
      "t": 132142.72500000047,
      "d": 79.36499999999069,
      "v": 50
    },
    {
      "midi": 54,
      "hit": false,
      "t": 132261.77250000046,
      "d": 79.36499999999069,
      "v": 50
    },
    {
      "midi": 37,
      "hit": false,
      "t": 132380.82,
      "d": 158.73000000001048,
      "v": 80
    },
    {
      "midi": 67,
      "hit": false,
      "t": 132380.8200000002,
      "d": 436.507500000007,
      "v": 127
    },
    {
      "midi": 35,
      "hit": false,
      "t": 132380.8200000004,
      "d": 317.45999999999185,
      "v": 100
    },
    {
      "midi": 54,
      "hit": false,
      "t": 132380.82000000044,
      "d": 79.36499999999069,
      "v": 50
    },
    {
      "midi": 54,
      "hit": false,
      "t": 132499.86750000043,
      "d": 79.36499999999069,
      "v": 50
    },
    {
      "midi": 37,
      "hit": false,
      "t": 132618.915,
      "d": 158.73000000001048,
      "v": 80
    },
    {
      "midi": 54,
      "hit": false,
      "t": 132618.91500000042,
      "d": 79.36499999999069,
      "v": 50
    },
    {
      "midi": 54,
      "hit": false,
      "t": 132737.9625000004,
      "d": 79.36499999999069,
      "v": 50
    },
    {
      "midi": 37,
      "hit": false,
      "t": 132857.01,
      "d": 158.73000000001048,
      "v": 80
    },
    {
      "midi": 69,
      "hit": false,
      "t": 132857.0100000002,
      "d": 436.507500000007,
      "v": 127
    },
    {
      "midi": 54,
      "hit": false,
      "t": 132857.0100000004,
      "d": 79.36499999999069,
      "v": 50
    },
    {
      "midi": 35,
      "hit": false,
      "t": 132857.01000000042,
      "d": 317.45999999999185,
      "v": 100
    },
    {
      "midi": 54,
      "hit": false,
      "t": 132976.05750000037,
      "d": 79.36499999999069,
      "v": 50
    },
    {
      "midi": 54,
      "hit": false,
      "t": 133095.10500000036,
      "d": 79.36499999999069,
      "v": 50
    },
    {
      "midi": 54,
      "hit": false,
      "t": 133214.15250000035,
      "d": 79.36499999999069,
      "v": 50
    },
    {
      "midi": 66,
      "hit": false,
      "t": 133323.279375,
      "d": 709.3246874999895,
      "v": 50
    },
    {
      "midi": 66,
      "hit": false,
      "t": 133333.20000000022,
      "d": 476.1900000000023,
      "v": 127
    },
    {
      "midi": 54,
      "hit": false,
      "t": 133333.20000000033,
      "d": 79.36499999999069,
      "v": 50
    },
    {
      "midi": 35,
      "hit": false,
      "t": 133333.20000000042,
      "d": 317.45999999999185,
      "v": 100
    },
    {
      "midi": 54,
      "hit": false,
      "t": 133452.24750000032,
      "d": 79.36499999999069,
      "v": 50
    },
    {
      "midi": 37,
      "hit": false,
      "t": 133571.295,
      "d": 79.36499999999069,
      "v": 80
    },
    {
      "midi": 54,
      "hit": false,
      "t": 133571.2950000003,
      "d": 79.36499999999069,
      "v": 50
    },
    {
      "midi": 37,
      "hit": false,
      "t": 133690.3425,
      "d": 79.36499999999069,
      "v": 80
    },
    {
      "midi": 54,
      "hit": false,
      "t": 133690.3425000003,
      "d": 79.36499999999069,
      "v": 50
    },
    {
      "midi": 37,
      "hit": false,
      "t": 133809.38999999998,
      "d": 79.36499999999069,
      "v": 80
    },
    {
      "midi": 64,
      "hit": false,
      "t": 133809.39000000022,
      "d": 158.73000000001048,
      "v": 127
    },
    {
      "midi": 54,
      "hit": false,
      "t": 133809.39000000028,
      "d": 79.36499999999069,
      "v": 50
    },
    {
      "midi": 35,
      "hit": false,
      "t": 133809.39000000042,
      "d": 317.45999999999185,
      "v": 100
    },
    {
      "midi": 37,
      "hit": false,
      "t": 133928.43749999997,
      "d": 79.36499999999069,
      "v": 80
    },
    {
      "midi": 54,
      "hit": false,
      "t": 133928.43750000026,
      "d": 79.36499999999069,
      "v": 50
    },
    {
      "midi": 37,
      "hit": false,
      "t": 134042.52468749997,
      "d": 158.73000000001048,
      "v": 80
    },
    {
      "midi": 64,
      "hit": false,
      "t": 134042.52468750023,
      "d": 1750.9903124999837,
      "v": 127
    },
    {
      "midi": 54,
      "hit": false,
      "t": 134047.48500000025,
      "d": 79.36499999999069,
      "v": 50
    },
    {
      "midi": 54,
      "hit": false,
      "t": 134166.53250000023,
      "d": 79.36499999999069,
      "v": 50
    },
    {
      "midi": 37,
      "hit": false,
      "t": 134285.58,
      "d": 158.73000000001048,
      "v": 80
    },
    {
      "midi": 54,
      "hit": false,
      "t": 134285.58000000022,
      "d": 79.36499999999069,
      "v": 50
    },
    {
      "midi": 35,
      "hit": false,
      "t": 134285.58000000042,
      "d": 317.45999999999185,
      "v": 100
    },
    {
      "midi": 54,
      "hit": false,
      "t": 134404.6275000002,
      "d": 79.36499999999069,
      "v": 50
    },
    {
      "midi": 69,
      "hit": false,
      "t": 134518.71468750003,
      "d": 233.1346875000163,
      "v": 64
    },
    {
      "midi": 37,
      "hit": false,
      "t": 134523.675,
      "d": 158.73000000001048,
      "v": 80
    },
    {
      "midi": 54,
      "hit": false,
      "t": 134523.6750000002,
      "d": 79.36499999999069,
      "v": 50
    },
    {
      "midi": 57,
      "hit": false,
      "t": 134533.59562500002,
      "d": 262.8965625000128,
      "v": 50
    },
    {
      "midi": 54,
      "hit": false,
      "t": 134642.72250000018,
      "d": 79.36499999999069,
      "v": 50
    },
    {
      "midi": 71,
      "hit": false,
      "t": 134736.96843750004,
      "d": 243.05531250001513,
      "v": 64
    },
    {
      "midi": 37,
      "hit": false,
      "t": 134761.77,
      "d": 158.73000000001048,
      "v": 80
    },
    {
      "midi": 54,
      "hit": false,
      "t": 134761.77000000016,
      "d": 79.36499999999069,
      "v": 50
    },
    {
      "midi": 35,
      "hit": false,
      "t": 134761.77000000043,
      "d": 317.45999999999185,
      "v": 100
    },
    {
      "midi": 59,
      "hit": false,
      "t": 134786.57156250003,
      "d": 267.8568749999977,
      "v": 50
    },
    {
      "midi": 54,
      "hit": false,
      "t": 134880.81750000015,
      "d": 79.36499999999069,
      "v": 50
    },
    {
      "midi": 73,
      "hit": false,
      "t": 134970.10312500005,
      "d": 203.3728124999907,
      "v": 64
    },
    {
      "midi": 54,
      "hit": false,
      "t": 134999.86500000014,
      "d": 79.36499999999069,
      "v": 50
    },
    {
      "midi": 61,
      "hit": false,
      "t": 135034.58718750003,
      "d": 223.21406249998836,
      "v": 50
    },
    {
      "midi": 54,
      "hit": false,
      "t": 135118.91250000012,
      "d": 79.36499999999069,
      "v": 50
    },
    {
      "midi": 74,
      "hit": false,
      "t": 135237.96000000005,
      "d": 947.4196874999907,
      "v": 64
    },
    {
      "midi": 54,
      "hit": false,
      "t": 135237.9600000001,
      "d": 79.36499999999069,
      "v": 50
    },
    {
      "midi": 35,
      "hit": false,
      "t": 135237.96000000043,
      "d": 317.45999999999185,
      "v": 100
    },
    {
      "midi": 62,
      "hit": false,
      "t": 135277.64250000002,
      "d": 1775.7918749999953,
      "v": 50
    },
    {
      "midi": 54,
      "hit": false,
      "t": 135357.0075000001,
      "d": 79.36499999999069,
      "v": 50
    },
    {
      "midi": 37,
      "hit": false,
      "t": 135476.055,
      "d": 79.36499999999069,
      "v": 80
    },
    {
      "midi": 54,
      "hit": false,
      "t": 135476.05500000008,
      "d": 79.36499999999069,
      "v": 50
    },
    {
      "midi": 37,
      "hit": false,
      "t": 135595.10249999998,
      "d": 79.36499999999069,
      "v": 80
    },
    {
      "midi": 54,
      "hit": false,
      "t": 135595.10250000007,
      "d": 79.36499999999069,
      "v": 50
    },
    {
      "midi": 37,
      "hit": false,
      "t": 135714.14999999997,
      "d": 79.36499999999069,
      "v": 80
    },
    {
      "midi": 54,
      "hit": false,
      "t": 135714.15000000005,
      "d": 79.36499999999069,
      "v": 50
    },
    {
      "midi": 67,
      "hit": false,
      "t": 135714.15000000023,
      "d": 436.5074999999779,
      "v": 127
    },
    {
      "midi": 35,
      "hit": false,
      "t": 135714.15000000043,
      "d": 317.45999999999185,
      "v": 100
    },
    {
      "midi": 37,
      "hit": false,
      "t": 135833.19749999995,
      "d": 79.36499999999069,
      "v": 80
    },
    {
      "midi": 54,
      "hit": false,
      "t": 135833.19750000004,
      "d": 79.36499999999069,
      "v": 50
    },
    {
      "midi": 37,
      "hit": false,
      "t": 135947.28468749995,
      "d": 158.73000000001048,
      "v": 80
    },
    {
      "midi": 54,
      "hit": false,
      "t": 135952.24500000002,
      "d": 79.36499999999069,
      "v": 50
    },
    {
      "midi": 54,
      "hit": false,
      "t": 136071.2925,
      "d": 79.36499999999069,
      "v": 50
    },
    {
      "midi": 37,
      "hit": false,
      "t": 136190.33999999997,
      "d": 158.73000000001048,
      "v": 80
    },
    {
      "midi": 54,
      "hit": false,
      "t": 136190.34,
      "d": 79.36499999999069,
      "v": 50
    },
    {
      "midi": 69,
      "hit": false,
      "t": 136190.3400000002,
      "d": 436.507500000007,
      "v": 127
    },
    {
      "midi": 35,
      "hit": false,
      "t": 136190.34000000043,
      "d": 317.45999999999185,
      "v": 100
    },
    {
      "midi": 83,
      "hit": false,
      "t": 136210.18125000005,
      "d": 446.4281250000058,
      "v": 64
    },
    {
      "midi": 54,
      "hit": false,
      "t": 136309.38749999998,
      "d": 79.36499999999069,
      "v": 50
    },
    {
      "midi": 37,
      "hit": false,
      "t": 136428.43499999997,
      "d": 158.73000000001048,
      "v": 80
    },
    {
      "midi": 54,
      "hit": false,
      "t": 136428.43499999997,
      "d": 79.36499999999069,
      "v": 50
    },
    {
      "midi": 54,
      "hit": false,
      "t": 136547.48249999995,
      "d": 79.36499999999069,
      "v": 50
    },
    {
      "midi": 86,
      "hit": false,
      "t": 136646.68875000006,
      "d": 446.4281250000058,
      "v": 64
    },
    {
      "midi": 54,
      "hit": false,
      "t": 136666.52999999994,
      "d": 79.36499999999069,
      "v": 50
    },
    {
      "midi": 37,
      "hit": false,
      "t": 136666.52999999997,
      "d": 158.73000000001048,
      "v": 80
    },
    {
      "midi": 67,
      "hit": false,
      "t": 136666.5300000002,
      "d": 436.507500000007,
      "v": 127
    },
    {
      "midi": 35,
      "hit": false,
      "t": 136666.53000000044,
      "d": 317.45999999999185,
      "v": 100
    },
    {
      "midi": 54,
      "hit": false,
      "t": 136785.57749999993,
      "d": 79.36499999999069,
      "v": 50
    },
    {
      "midi": 54,
      "hit": false,
      "t": 136904.6249999999,
      "d": 79.36499999999069,
      "v": 50
    },
    {
      "midi": 54,
      "hit": false,
      "t": 137023.6724999999,
      "d": 79.36499999999069,
      "v": 50
    },
    {
      "midi": 81,
      "hit": false,
      "t": 137112.95812500006,
      "d": 1423.609687499993,
      "v": 64
    },
    {
      "midi": 64,
      "hit": false,
      "t": 137127.83906250002,
      "d": 1686.5062500000058,
      "v": 50
    },
    {
      "midi": 54,
      "hit": false,
      "t": 137142.71999999988,
      "d": 79.36499999999069,
      "v": 50
    },
    {
      "midi": 66,
      "hit": false,
      "t": 137142.7200000002,
      "d": 218.2537500000035,
      "v": 127
    },
    {
      "midi": 35,
      "hit": false,
      "t": 137142.72000000044,
      "d": 317.45999999999185,
      "v": 100
    },
    {
      "midi": 54,
      "hit": false,
      "t": 137261.76749999987,
      "d": 79.36499999999069,
      "v": 50
    },
    {
      "midi": 67,
      "hit": false,
      "t": 137375.85468750022,
      "d": 218.2537500000035,
      "v": 127
    },
    {
      "midi": 54,
      "hit": false,
      "t": 137380.81499999986,
      "d": 79.36499999999069,
      "v": 50
    },
    {
      "midi": 37,
      "hit": false,
      "t": 137380.81499999997,
      "d": 79.36499999999069,
      "v": 80
    },
    {
      "midi": 54,
      "hit": false,
      "t": 137499.86249999984,
      "d": 79.36499999999069,
      "v": 50
    },
    {
      "midi": 37,
      "hit": false,
      "t": 137499.86249999996,
      "d": 79.36499999999069,
      "v": 80
    },
    {
      "midi": 54,
      "hit": false,
      "t": 137618.90999999983,
      "d": 79.36499999999069,
      "v": 50
    },
    {
      "midi": 37,
      "hit": false,
      "t": 137618.90999999995,
      "d": 79.36499999999069,
      "v": 80
    },
    {
      "midi": 66,
      "hit": false,
      "t": 137618.91000000024,
      "d": 218.2537500000035,
      "v": 127
    },
    {
      "midi": 35,
      "hit": false,
      "t": 137618.91000000044,
      "d": 317.45999999999185,
      "v": 100
    },
    {
      "midi": 54,
      "hit": false,
      "t": 137737.95749999981,
      "d": 79.36499999999069,
      "v": 50
    },
    {
      "midi": 37,
      "hit": false,
      "t": 137737.95749999993,
      "d": 79.36499999999069,
      "v": 80
    },
    {
      "midi": 37,
      "hit": false,
      "t": 137852.04468749993,
      "d": 158.73000000001048,
      "v": 80
    },
    {
      "midi": 64,
      "hit": false,
      "t": 137852.04468750025,
      "d": 1021.8243749999965,
      "v": 127
    },
    {
      "midi": 54,
      "hit": false,
      "t": 137857.0049999998,
      "d": 79.36499999999069,
      "v": 50
    },
    {
      "midi": 54,
      "hit": false,
      "t": 137976.0524999998,
      "d": 79.36499999999069,
      "v": 50
    },
    {
      "midi": 54,
      "hit": false,
      "t": 138095.09999999977,
      "d": 79.36499999999069,
      "v": 50
    },
    {
      "midi": 37,
      "hit": false,
      "t": 138095.09999999995,
      "d": 158.73000000001048,
      "v": 80
    },
    {
      "midi": 35,
      "hit": false,
      "t": 138095.10000000044,
      "d": 317.45999999999185,
      "v": 100
    },
    {
      "midi": 54,
      "hit": false,
      "t": 138214.14749999976,
      "d": 79.36499999999069,
      "v": 50
    },
    {
      "midi": 54,
      "hit": false,
      "t": 138333.19499999975,
      "d": 79.36499999999069,
      "v": 50
    },
    {
      "midi": 37,
      "hit": false,
      "t": 138333.19499999995,
      "d": 158.73000000001048,
      "v": 80
    },
    {
      "midi": 54,
      "hit": false,
      "t": 138452.24249999973,
      "d": 79.36499999999069,
      "v": 50
    },
    {
      "midi": 85,
      "hit": false,
      "t": 138541.52812500007,
      "d": 456.34875000000466,
      "v": 64
    },
    {
      "midi": 54,
      "hit": false,
      "t": 138571.28999999972,
      "d": 79.36499999999069,
      "v": 50
    },
    {
      "midi": 37,
      "hit": false,
      "t": 138571.28999999995,
      "d": 158.73000000001048,
      "v": 80
    },
    {
      "midi": 35,
      "hit": false,
      "t": 138571.29000000044,
      "d": 317.45999999999185,
      "v": 100
    },
    {
      "midi": 54,
      "hit": false,
      "t": 138690.3374999997,
      "d": 79.36499999999069,
      "v": 50
    },
    {
      "midi": 69,
      "hit": false,
      "t": 138804.42468750026,
      "d": 436.5074999999779,
      "v": 127
    },
    {
      "midi": 54,
      "hit": false,
      "t": 138809.3849999997,
      "d": 79.36499999999069,
      "v": 50
    },
    {
      "midi": 54,
      "hit": false,
      "t": 138928.43249999968,
      "d": 79.36499999999069,
      "v": 50
    },
    {
      "midi": 86,
      "hit": false,
      "t": 139027.63875000007,
      "d": 1874.9981250000128,
      "v": 64
    },
    {
      "midi": 54,
      "hit": false,
      "t": 139047.47999999966,
      "d": 79.36499999999069,
      "v": 50
    },
    {
      "midi": 35,
      "hit": false,
      "t": 139047.48000000045,
      "d": 317.45999999999185,
      "v": 100
    },
    {
      "midi": 54,
      "hit": false,
      "t": 139166.52749999965,
      "d": 79.36499999999069,
      "v": 50
    },
    {
      "midi": 69,
      "hit": false,
      "t": 139280.61468750023,
      "d": 218.2537500000035,
      "v": 127
    },
    {
      "midi": 54,
      "hit": false,
      "t": 139285.57499999963,
      "d": 79.36499999999069,
      "v": 50
    },
    {
      "midi": 37,
      "hit": false,
      "t": 139285.57499999995,
      "d": 79.36499999999069,
      "v": 80
    },
    {
      "midi": 54,
      "hit": false,
      "t": 139404.62249999962,
      "d": 79.36499999999069,
      "v": 50
    },
    {
      "midi": 37,
      "hit": false,
      "t": 139404.62249999994,
      "d": 79.36499999999069,
      "v": 80
    },
    {
      "midi": 54,
      "hit": false,
      "t": 139523.6699999996,
      "d": 79.36499999999069,
      "v": 50
    },
    {
      "midi": 37,
      "hit": false,
      "t": 139523.66999999993,
      "d": 79.36499999999069,
      "v": 80
    },
    {
      "midi": 67,
      "hit": false,
      "t": 139523.67000000025,
      "d": 158.73000000001048,
      "v": 127
    },
    {
      "midi": 35,
      "hit": false,
      "t": 139523.67000000045,
      "d": 317.45999999999185,
      "v": 100
    },
    {
      "midi": 54,
      "hit": false,
      "t": 139642.7174999996,
      "d": 79.36499999999069,
      "v": 50
    },
    {
      "midi": 37,
      "hit": false,
      "t": 139642.7174999999,
      "d": 79.36499999999069,
      "v": 80
    },
    {
      "midi": 37,
      "hit": false,
      "t": 139756.8046874999,
      "d": 158.73000000001048,
      "v": 80
    },
    {
      "midi": 67,
      "hit": false,
      "t": 139756.80468750026,
      "d": 218.2537500000035,
      "v": 127
    },
    {
      "midi": 54,
      "hit": false,
      "t": 139761.76499999958,
      "d": 79.36499999999069,
      "v": 50
    },
    {
      "midi": 54,
      "hit": false,
      "t": 139880.81249999956,
      "d": 79.36499999999069,
      "v": 50
    },
    {
      "midi": 54,
      "hit": false,
      "t": 139999.85999999955,
      "d": 79.36499999999069,
      "v": 50
    },
    {
      "midi": 37,
      "hit": false,
      "t": 139999.85999999993,
      "d": 158.73000000001048,
      "v": 80
    },
    {
      "midi": 66,
      "hit": false,
      "t": 139999.86000000028,
      "d": 436.507500000007,
      "v": 127
    },
    {
      "midi": 35,
      "hit": false,
      "t": 139999.86000000045,
      "d": 317.45999999999185,
      "v": 100
    },
    {
      "midi": 54,
      "hit": false,
      "t": 140118.90749999954,
      "d": 79.36499999999069,
      "v": 50
    },
    {
      "midi": 54,
      "hit": false,
      "t": 140237.95499999952,
      "d": 79.36499999999069,
      "v": 50
    },
    {
      "midi": 37,
      "hit": false,
      "t": 140237.95499999993,
      "d": 158.73000000001048,
      "v": 80
    },
    {
      "midi": 54,
      "hit": false,
      "t": 140357.0024999995,
      "d": 79.36499999999069,
      "v": 50
    },
    {
      "midi": 54,
      "hit": false,
      "t": 140476.0499999995,
      "d": 79.36499999999069,
      "v": 50
    },
    {
      "midi": 37,
      "hit": false,
      "t": 140476.04999999993,
      "d": 158.73000000001048,
      "v": 80
    },
    {
      "midi": 62,
      "hit": false,
      "t": 140476.05000000028,
      "d": 436.507500000007,
      "v": 127
    },
    {
      "midi": 35,
      "hit": false,
      "t": 140476.05000000045,
      "d": 317.45999999999185,
      "v": 100
    },
    {
      "midi": 54,
      "hit": false,
      "t": 140595.09749999948,
      "d": 79.36499999999069,
      "v": 50
    },
    {
      "midi": 54,
      "hit": false,
      "t": 140714.14499999947,
      "d": 79.36499999999069,
      "v": 50
    },
    {
      "midi": 54,
      "hit": false,
      "t": 140833.19249999945,
      "d": 79.36499999999069,
      "v": 50
    },
    {
      "midi": 85,
      "hit": false,
      "t": 140942.31937500008,
      "d": 654.7612500000105,
      "v": 64
    },
    {
      "midi": 54,
      "hit": false,
      "t": 140952.23999999944,
      "d": 79.36499999999069,
      "v": 50
    },
    {
      "midi": 64,
      "hit": false,
      "t": 140952.24000000028,
      "d": 218.2537500000035,
      "v": 127
    },
    {
      "midi": 35,
      "hit": false,
      "t": 140952.24000000046,
      "d": 317.45999999999185,
      "v": 100
    },
    {
      "midi": 54,
      "hit": false,
      "t": 141071.28749999942,
      "d": 79.36499999999069,
      "v": 50
    },
    {
      "midi": 66,
      "hit": false,
      "t": 141185.3746875003,
      "d": 218.2537500000035,
      "v": 127
    },
    {
      "midi": 54,
      "hit": false,
      "t": 141190.3349999994,
      "d": 79.36499999999069,
      "v": 50
    },
    {
      "midi": 37,
      "hit": false,
      "t": 141190.33499999993,
      "d": 79.36499999999069,
      "v": 80
    },
    {
      "midi": 54,
      "hit": false,
      "t": 141309.3824999994,
      "d": 79.36499999999069,
      "v": 50
    },
    {
      "midi": 37,
      "hit": false,
      "t": 141309.38249999992,
      "d": 79.36499999999069,
      "v": 80
    },
    {
      "midi": 54,
      "hit": false,
      "t": 141428.42999999938,
      "d": 79.36499999999069,
      "v": 50
    },
    {
      "midi": 37,
      "hit": false,
      "t": 141428.4299999999,
      "d": 79.36499999999069,
      "v": 80
    },
    {
      "midi": 64,
      "hit": false,
      "t": 141428.4300000003,
      "d": 218.2537500000035,
      "v": 127
    },
    {
      "midi": 35,
      "hit": false,
      "t": 141428.43000000046,
      "d": 317.45999999999185,
      "v": 100
    },
    {
      "midi": 54,
      "hit": false,
      "t": 141547.47749999937,
      "d": 79.36499999999069,
      "v": 50
    },
    {
      "midi": 37,
      "hit": false,
      "t": 141547.4774999999,
      "d": 79.36499999999069,
      "v": 80
    },
    {
      "midi": 86,
      "hit": false,
      "t": 141636.76312500008,
      "d": 744.046875,
      "v": 64
    },
    {
      "midi": 37,
      "hit": false,
      "t": 141661.5646874999,
      "d": 158.73000000001048,
      "v": 80
    },
    {
      "midi": 62,
      "hit": false,
      "t": 141661.56468750033,
      "d": 1170.6337500000081,
      "v": 127
    },
    {
      "midi": 54,
      "hit": false,
      "t": 141666.52499999935,
      "d": 79.36499999999069,
      "v": 50
    },
    {
      "midi": 54,
      "hit": false,
      "t": 141785.57249999934,
      "d": 79.36499999999069,
      "v": 50
    },
    {
      "midi": 54,
      "hit": false,
      "t": 141904.61999999933,
      "d": 79.36499999999069,
      "v": 50
    },
    {
      "midi": 37,
      "hit": false,
      "t": 141904.6199999999,
      "d": 158.73000000001048,
      "v": 80
    },
    {
      "midi": 35,
      "hit": false,
      "t": 141904.62000000046,
      "d": 317.45999999999185,
      "v": 100
    },
    {
      "midi": 54,
      "hit": false,
      "t": 142023.6674999993,
      "d": 79.36499999999069,
      "v": 50
    },
    {
      "midi": 54,
      "hit": false,
      "t": 142142.7149999993,
      "d": 79.36499999999069,
      "v": 50
    },
    {
      "midi": 37,
      "hit": false,
      "t": 142142.7149999999,
      "d": 158.73000000001048,
      "v": 80
    },
    {
      "midi": 54,
      "hit": false,
      "t": 142261.76249999928,
      "d": 79.36499999999069,
      "v": 50
    },
    {
      "midi": 54,
      "hit": false,
      "t": 142380.80999999927,
      "d": 79.36499999999069,
      "v": 50
    },
    {
      "midi": 37,
      "hit": false,
      "t": 142380.8099999999,
      "d": 158.73000000001048,
      "v": 80
    },
    {
      "midi": 35,
      "hit": false,
      "t": 142380.81000000046,
      "d": 317.45999999999185,
      "v": 100
    },
    {
      "midi": 90,
      "hit": false,
      "t": 142385.7703125001,
      "d": 441.46781249999185,
      "v": 64
    },
    {
      "midi": 54,
      "hit": false,
      "t": 142499.85749999926,
      "d": 79.36499999999069,
      "v": 50
    },
    {
      "midi": 54,
      "hit": false,
      "t": 142618.90499999924,
      "d": 79.36499999999069,
      "v": 50
    },
    {
      "midi": 54,
      "hit": false,
      "t": 142737.95249999923,
      "d": 79.36499999999069,
      "v": 50
    },
    {
      "midi": 83,
      "hit": false,
      "t": 142837.1587500001,
      "d": 1874.9981250000128,
      "v": 64
    },
    {
      "midi": 67,
      "hit": false,
      "t": 142847.07937500003,
      "d": 1760.9109375000116,
      "v": 50
    },
    {
      "midi": 54,
      "hit": false,
      "t": 142856.9999999992,
      "d": 79.36499999999069,
      "v": 50
    },
    {
      "midi": 35,
      "hit": false,
      "t": 142857.00000000047,
      "d": 317.45999999999185,
      "v": 100
    },
    {
      "midi": 54,
      "hit": false,
      "t": 142976.0474999992,
      "d": 79.36499999999069,
      "v": 50
    },
    {
      "midi": 54,
      "hit": false,
      "t": 143095.0949999992,
      "d": 79.36499999999069,
      "v": 50
    },
    {
      "midi": 37,
      "hit": false,
      "t": 143095.0949999999,
      "d": 79.36499999999069,
      "v": 80
    },
    {
      "midi": 54,
      "hit": false,
      "t": 143214.14249999917,
      "d": 79.36499999999069,
      "v": 50
    },
    {
      "midi": 37,
      "hit": false,
      "t": 143214.1424999999,
      "d": 79.36499999999069,
      "v": 80
    },
    {
      "midi": 54,
      "hit": false,
      "t": 143333.18999999916,
      "d": 79.36499999999069,
      "v": 50
    },
    {
      "midi": 37,
      "hit": false,
      "t": 143333.1899999999,
      "d": 79.36499999999069,
      "v": 80
    },
    {
      "midi": 71,
      "hit": false,
      "t": 143333.19000000035,
      "d": 436.507500000007,
      "v": 127
    },
    {
      "midi": 35,
      "hit": false,
      "t": 143333.19000000047,
      "d": 317.45999999999185,
      "v": 100
    },
    {
      "midi": 54,
      "hit": false,
      "t": 143452.23749999914,
      "d": 79.36499999999069,
      "v": 50
    },
    {
      "midi": 37,
      "hit": false,
      "t": 143452.23749999987,
      "d": 79.36499999999069,
      "v": 80
    },
    {
      "midi": 37,
      "hit": false,
      "t": 143566.32468749987,
      "d": 158.73000000001048,
      "v": 80
    },
    {
      "midi": 54,
      "hit": false,
      "t": 143571.28499999913,
      "d": 79.36499999999069,
      "v": 50
    },
    {
      "midi": 54,
      "hit": false,
      "t": 143690.33249999912,
      "d": 79.36499999999069,
      "v": 50
    },
    {
      "midi": 54,
      "hit": false,
      "t": 143809.3799999991,
      "d": 79.36499999999069,
      "v": 50
    },
    {
      "midi": 37,
      "hit": false,
      "t": 143809.3799999999,
      "d": 158.73000000001048,
      "v": 80
    },
    {
      "midi": 67,
      "hit": false,
      "t": 143809.38000000035,
      "d": 218.2537500000035,
      "v": 127
    },
    {
      "midi": 35,
      "hit": false,
      "t": 143809.38000000047,
      "d": 317.45999999999185,
      "v": 100
    },
    {
      "midi": 54,
      "hit": false,
      "t": 143928.4274999991,
      "d": 79.36499999999069,
      "v": 50
    },
    {
      "midi": 69,
      "hit": false,
      "t": 144042.51468750037,
      "d": 436.507500000007,
      "v": 127
    },
    {
      "midi": 54,
      "hit": false,
      "t": 144047.47499999907,
      "d": 79.36499999999069,
      "v": 50
    },
    {
      "midi": 37,
      "hit": false,
      "t": 144047.4749999999,
      "d": 158.73000000001048,
      "v": 80
    },
    {
      "midi": 54,
      "hit": false,
      "t": 144166.52249999906,
      "d": 79.36499999999069,
      "v": 50
    },
    {
      "midi": 54,
      "hit": false,
      "t": 144285.56999999905,
      "d": 79.36499999999069,
      "v": 50
    },
    {
      "midi": 37,
      "hit": false,
      "t": 144285.5699999999,
      "d": 158.73000000001048,
      "v": 80
    },
    {
      "midi": 35,
      "hit": false,
      "t": 144285.57000000047,
      "d": 317.45999999999185,
      "v": 100
    },
    {
      "midi": 54,
      "hit": false,
      "t": 144404.61749999903,
      "d": 79.36499999999069,
      "v": 50
    },
    {
      "midi": 71,
      "hit": false,
      "t": 144518.70468750037,
      "d": 218.2537500000035,
      "v": 127
    },
    {
      "midi": 54,
      "hit": false,
      "t": 144523.66499999902,
      "d": 79.36499999999069,
      "v": 50
    },
    {
      "midi": 54,
      "hit": false,
      "t": 144642.712499999,
      "d": 79.36499999999069,
      "v": 50
    },
    {
      "midi": 69,
      "hit": false,
      "t": 144707.19656250003,
      "d": 4022.813437500008,
      "v": 50
    },
    {
      "midi": 54,
      "hit": false,
      "t": 144761.759999999,
      "d": 79.36499999999069,
      "v": 50
    },
    {
      "midi": 81,
      "hit": false,
      "t": 144761.7600000001,
      "d": 3809.5199999999895,
      "v": 64
    },
    {
      "midi": 69,
      "hit": false,
      "t": 144761.7600000004,
      "d": 912.6975000000093,
      "v": 127
    },
    {
      "midi": 35,
      "hit": false,
      "t": 144761.76000000047,
      "d": 317.45999999999185,
      "v": 100
    },
    {
      "midi": 54,
      "hit": false,
      "t": 144880.80749999898,
      "d": 79.36499999999069,
      "v": 50
    },
    {
      "midi": 54,
      "hit": false,
      "t": 144999.85499999896,
      "d": 79.36499999999069,
      "v": 50
    },
    {
      "midi": 37,
      "hit": false,
      "t": 144999.8549999999,
      "d": 79.36499999999069,
      "v": 80
    },
    {
      "midi": 54,
      "hit": false,
      "t": 145118.90249999895,
      "d": 79.36499999999069,
      "v": 50
    },
    {
      "midi": 37,
      "hit": false,
      "t": 145118.90249999988,
      "d": 79.36499999999069,
      "v": 80
    },
    {
      "midi": 54,
      "hit": false,
      "t": 145237.94999999893,
      "d": 79.36499999999069,
      "v": 50
    },
    {
      "midi": 37,
      "hit": false,
      "t": 145237.94999999987,
      "d": 79.36499999999069,
      "v": 80
    },
    {
      "midi": 35,
      "hit": false,
      "t": 145237.95000000048,
      "d": 317.45999999999185,
      "v": 100
    },
    {
      "midi": 54,
      "hit": false,
      "t": 145356.99749999892,
      "d": 79.36499999999069,
      "v": 50
    },
    {
      "midi": 37,
      "hit": false,
      "t": 145356.99749999985,
      "d": 79.36499999999069,
      "v": 80
    },
    {
      "midi": 37,
      "hit": false,
      "t": 145471.08468749985,
      "d": 158.73000000001048,
      "v": 80
    },
    {
      "midi": 54,
      "hit": false,
      "t": 145476.0449999989,
      "d": 79.36499999999069,
      "v": 50
    },
    {
      "midi": 54,
      "hit": false,
      "t": 145595.0924999989,
      "d": 79.36499999999069,
      "v": 50
    },
    {
      "midi": 54,
      "hit": false,
      "t": 145714.13999999888,
      "d": 79.36499999999069,
      "v": 50
    },
    {
      "midi": 37,
      "hit": false,
      "t": 145714.13999999987,
      "d": 158.73000000001048,
      "v": 80
    },
    {
      "midi": 62,
      "hit": false,
      "t": 145714.1400000004,
      "d": 436.507500000007,
      "v": 127
    },
    {
      "midi": 35,
      "hit": false,
      "t": 145714.14000000048,
      "d": 317.45999999999185,
      "v": 100
    },
    {
      "midi": 54,
      "hit": false,
      "t": 145833.18749999886,
      "d": 79.36499999999069,
      "v": 50
    },
    {
      "midi": 54,
      "hit": false,
      "t": 145952.23499999885,
      "d": 79.36499999999069,
      "v": 50
    },
    {
      "midi": 37,
      "hit": false,
      "t": 145952.23499999987,
      "d": 158.73000000001048,
      "v": 80
    },
    {
      "midi": 54,
      "hit": false,
      "t": 146071.28249999884,
      "d": 79.36499999999069,
      "v": 50
    },
    {
      "midi": 54,
      "hit": false,
      "t": 146190.32999999882,
      "d": 79.36499999999069,
      "v": 50
    },
    {
      "midi": 37,
      "hit": false,
      "t": 146190.32999999987,
      "d": 158.73000000001048,
      "v": 80
    },
    {
      "midi": 66,
      "hit": false,
      "t": 146190.3300000004,
      "d": 436.507500000007,
      "v": 127
    },
    {
      "midi": 35,
      "hit": false,
      "t": 146190.33000000048,
      "d": 317.45999999999185,
      "v": 100
    },
    {
      "midi": 54,
      "hit": false,
      "t": 146309.3774999988,
      "d": 79.36499999999069,
      "v": 50
    },
    {
      "midi": 54,
      "hit": false,
      "t": 146428.4249999988,
      "d": 79.36499999999069,
      "v": 50
    },
    {
      "midi": 54,
      "hit": false,
      "t": 146547.47249999878,
      "d": 79.36499999999069,
      "v": 50
    },
    {
      "midi": 54,
      "hit": false,
      "t": 146666.51999999877,
      "d": 79.36499999999069,
      "v": 50
    },
    {
      "midi": 64,
      "hit": false,
      "t": 146666.5200000004,
      "d": 1904.7600000000093,
      "v": 127
    },
    {
      "midi": 35,
      "hit": false,
      "t": 146666.52000000048,
      "d": 317.45999999999185,
      "v": 100
    },
    {
      "midi": 54,
      "hit": false,
      "t": 146785.56749999875,
      "d": 79.36499999999069,
      "v": 50
    },
    {
      "midi": 54,
      "hit": false,
      "t": 146904.61499999874,
      "d": 79.36499999999069,
      "v": 50
    },
    {
      "midi": 37,
      "hit": false,
      "t": 146904.61499999987,
      "d": 79.36499999999069,
      "v": 80
    },
    {
      "midi": 74,
      "hit": false,
      "t": 146944.29749999996,
      "d": 163.69031249999534,
      "v": 64
    },
    {
      "midi": 54,
      "hit": false,
      "t": 147023.66249999873,
      "d": 79.36499999999069,
      "v": 50
    },
    {
      "midi": 37,
      "hit": false,
      "t": 147023.66249999986,
      "d": 79.36499999999069,
      "v": 80
    },
    {
      "midi": 54,
      "hit": false,
      "t": 147142.7099999987,
      "d": 79.36499999999069,
      "v": 50
    },
    {
      "midi": 37,
      "hit": false,
      "t": 147142.70999999985,
      "d": 79.36499999999069,
      "v": 80
    },
    {
      "midi": 62,
      "hit": false,
      "t": 147142.70999999996,
      "d": 163.69031249999534,
      "v": 64
    },
    {
      "midi": 35,
      "hit": false,
      "t": 147142.7100000005,
      "d": 317.45999999999185,
      "v": 100
    },
    {
      "midi": 54,
      "hit": false,
      "t": 147261.7574999987,
      "d": 79.36499999999069,
      "v": 50
    },
    {
      "midi": 37,
      "hit": false,
      "t": 147261.75749999983,
      "d": 79.36499999999069,
      "v": 80
    },
    {
      "midi": 37,
      "hit": false,
      "t": 147375.84468749983,
      "d": 158.73000000001048,
      "v": 80
    },
    {
      "midi": 54,
      "hit": false,
      "t": 147380.80499999868,
      "d": 79.36499999999069,
      "v": 50
    },
    {
      "midi": 54,
      "hit": false,
      "t": 147499.85249999867,
      "d": 79.36499999999069,
      "v": 50
    },
    {
      "midi": 54,
      "hit": false,
      "t": 147618.89999999866,
      "d": 79.36499999999069,
      "v": 50
    },
    {
      "midi": 37,
      "hit": false,
      "t": 147618.89999999985,
      "d": 158.73000000001048,
      "v": 80
    },
    {
      "midi": 35,
      "hit": false,
      "t": 147618.9000000005,
      "d": 317.45999999999185,
      "v": 100
    },
    {
      "midi": 76,
      "hit": false,
      "t": 147648.66187499996,
      "d": 163.69031249999534,
      "v": 64
    },
    {
      "midi": 54,
      "hit": false,
      "t": 147737.94749999864,
      "d": 79.36499999999069,
      "v": 50
    },
    {
      "midi": 54,
      "hit": false,
      "t": 147856.99499999863,
      "d": 79.36499999999069,
      "v": 50
    },
    {
      "midi": 37,
      "hit": false,
      "t": 147856.99499999985,
      "d": 158.73000000001048,
      "v": 80
    },
    {
      "midi": 64,
      "hit": false,
      "t": 147856.99499999997,
      "d": 163.69031249999534,
      "v": 64
    },
    {
      "midi": 54,
      "hit": false,
      "t": 147976.0424999986,
      "d": 79.36499999999069,
      "v": 50
    },
    {
      "midi": 54,
      "hit": false,
      "t": 148095.0899999986,
      "d": 79.36499999999069,
      "v": 50
    },
    {
      "midi": 37,
      "hit": false,
      "t": 148095.08999999985,
      "d": 158.73000000001048,
      "v": 80
    },
    {
      "midi": 35,
      "hit": false,
      "t": 148095.0900000005,
      "d": 317.45999999999185,
      "v": 100
    },
    {
      "midi": 54,
      "hit": false,
      "t": 148214.1374999986,
      "d": 79.36499999999069,
      "v": 50
    },
    {
      "midi": 54,
      "hit": false,
      "t": 148333.18499999857,
      "d": 79.36499999999069,
      "v": 50
    },
    {
      "midi": 54,
      "hit": false,
      "t": 148452.23249999856,
      "d": 79.36499999999069,
      "v": 50
    },
    {
      "midi": 54,
      "hit": false,
      "t": 148571.27999999854,
      "d": 79.36499999999069,
      "v": 50
    },
    {
      "midi": 82,
      "hit": false,
      "t": 148571.2800000001,
      "d": 4761.899999999994,
      "v": 64
    },
    {
      "midi": 35,
      "hit": false,
      "t": 148571.2800000005,
      "d": 317.45999999999185,
      "v": 100
    },
    {
      "midi": 54,
      "hit": false,
      "t": 148690.32749999853,
      "d": 79.36499999999069,
      "v": 50
    },
    {
      "midi": 54,
      "hit": false,
      "t": 148809.37499999852,
      "d": 79.36499999999069,
      "v": 50
    },
    {
      "midi": 37,
      "hit": false,
      "t": 148809.37499999985,
      "d": 79.36499999999069,
      "v": 80
    },
    {
      "midi": 77,
      "hit": false,
      "t": 148849.05749999997,
      "d": 163.69031249999534,
      "v": 64
    },
    {
      "midi": 54,
      "hit": false,
      "t": 148928.4224999985,
      "d": 79.36499999999069,
      "v": 50
    },
    {
      "midi": 37,
      "hit": false,
      "t": 148928.42249999984,
      "d": 79.36499999999069,
      "v": 80
    },
    {
      "midi": 54,
      "hit": false,
      "t": 149047.4699999985,
      "d": 79.36499999999069,
      "v": 50
    },
    {
      "midi": 37,
      "hit": false,
      "t": 149047.46999999983,
      "d": 79.36499999999069,
      "v": 80
    },
    {
      "midi": 65,
      "hit": false,
      "t": 149047.46999999997,
      "d": 163.69031249999534,
      "v": 64
    },
    {
      "midi": 35,
      "hit": false,
      "t": 149047.4700000005,
      "d": 317.45999999999185,
      "v": 100
    },
    {
      "midi": 54,
      "hit": false,
      "t": 149166.51749999847,
      "d": 79.36499999999069,
      "v": 50
    },
    {
      "midi": 37,
      "hit": false,
      "t": 149166.5174999998,
      "d": 79.36499999999069,
      "v": 80
    },
    {
      "midi": 37,
      "hit": false,
      "t": 149280.6046874998,
      "d": 158.73000000001048,
      "v": 80
    },
    {
      "midi": 54,
      "hit": false,
      "t": 149285.56499999846,
      "d": 79.36499999999069,
      "v": 50
    },
    {
      "midi": 54,
      "hit": false,
      "t": 149404.61249999845,
      "d": 79.36499999999069,
      "v": 50
    },
    {
      "midi": 54,
      "hit": false,
      "t": 149523.65999999843,
      "d": 79.36499999999069,
      "v": 50
    },
    {
      "midi": 37,
      "hit": false,
      "t": 149523.65999999983,
      "d": 158.73000000001048,
      "v": 80
    },
    {
      "midi": 35,
      "hit": false,
      "t": 149523.6600000005,
      "d": 317.45999999999185,
      "v": 100
    },
    {
      "midi": 79,
      "hit": false,
      "t": 149553.42187499997,
      "d": 163.69031249999534,
      "v": 64
    },
    {
      "midi": 54,
      "hit": false,
      "t": 149642.70749999842,
      "d": 79.36499999999069,
      "v": 50
    },
    {
      "midi": 67,
      "hit": false,
      "t": 149756.79468750005,
      "d": 243.05531250001513,
      "v": 50
    },
    {
      "midi": 67,
      "hit": false,
      "t": 149756.7946875004,
      "d": 218.2537500000035,
      "v": 127
    },
    {
      "midi": 54,
      "hit": false,
      "t": 149761.7549999984,
      "d": 79.36499999999069,
      "v": 50
    },
    {
      "midi": 37,
      "hit": false,
      "t": 149761.75499999983,
      "d": 158.73000000001048,
      "v": 80
    },
    {
      "midi": 67,
      "hit": false,
      "t": 149761.75499999998,
      "d": 163.69031249999534,
      "v": 64
    },
    {
      "midi": 54,
      "hit": false,
      "t": 149880.8024999984,
      "d": 79.36499999999069,
      "v": 50
    },
    {
      "midi": 68,
      "hit": false,
      "t": 149975.04843750005,
      "d": 238.09500000000116,
      "v": 50
    },
    {
      "midi": 54,
      "hit": false,
      "t": 149999.84999999838,
      "d": 79.36499999999069,
      "v": 50
    },
    {
      "midi": 37,
      "hit": false,
      "t": 149999.84999999983,
      "d": 158.73000000001048,
      "v": 80
    },
    {
      "midi": 68,
      "hit": false,
      "t": 149999.8500000004,
      "d": 218.2537500000035,
      "v": 127
    },
    {
      "midi": 35,
      "hit": false,
      "t": 149999.8500000005,
      "d": 317.45999999999185,
      "v": 100
    },
    {
      "midi": 54,
      "hit": false,
      "t": 150118.89749999836,
      "d": 79.36499999999069,
      "v": 50
    },
    {
      "midi": 70,
      "hit": false,
      "t": 150232.98468750043,
      "d": 2936.5050000000047,
      "v": 127
    },
    {
      "midi": 54,
      "hit": false,
      "t": 150237.94499999835,
      "d": 79.36499999999069,
      "v": 50
    },
    {
      "midi": 48,
      "hit": false,
      "t": 150237.94499999995,
      "d": 158.73000000001048,
      "v": 80
    },
    {
      "midi": 70,
      "hit": false,
      "t": 150247.86562500006,
      "d": 3105.155625000014,
      "v": 50
    },
    {
      "midi": 82,
      "hit": false,
      "t": 150282.58781249996,
      "d": 153.7696874999965,
      "v": 64
    },
    {
      "midi": 54,
      "hit": false,
      "t": 150356.99249999833,
      "d": 79.36499999999069,
      "v": 50
    },
    {
      "midi": 54,
      "hit": false,
      "t": 150476.03999999832,
      "d": 79.36499999999069,
      "v": 50
    },
    {
      "midi": 35,
      "hit": false,
      "t": 150476.0400000005,
      "d": 317.45999999999185,
      "v": 100
    },
    {
      "midi": 54,
      "hit": false,
      "t": 150595.0874999983,
      "d": 79.36499999999069,
      "v": 50
    },
    {
      "midi": 54,
      "hit": false,
      "t": 150714.1349999983,
      "d": 79.36499999999069,
      "v": 50
    },
    {
      "midi": 37,
      "hit": false,
      "t": 150714.13499999983,
      "d": 79.36499999999069,
      "v": 80
    },
    {
      "midi": 82,
      "hit": false,
      "t": 150714.13499999995,
      "d": 173.61093749999418,
      "v": 64
    },
    {
      "midi": 54,
      "hit": false,
      "t": 150833.18249999828,
      "d": 79.36499999999069,
      "v": 50
    },
    {
      "midi": 37,
      "hit": false,
      "t": 150833.18249999982,
      "d": 79.36499999999069,
      "v": 80
    },
    {
      "midi": 54,
      "hit": false,
      "t": 150952.22999999826,
      "d": 79.36499999999069,
      "v": 50
    },
    {
      "midi": 37,
      "hit": false,
      "t": 150952.2299999998,
      "d": 79.36499999999069,
      "v": 80
    },
    {
      "midi": 70,
      "hit": false,
      "t": 150952.22999999995,
      "d": 148.80937500001164,
      "v": 64
    },
    {
      "midi": 35,
      "hit": false,
      "t": 150952.2300000005,
      "d": 317.45999999999185,
      "v": 100
    },
    {
      "midi": 54,
      "hit": false,
      "t": 151071.27749999825,
      "d": 79.36499999999069,
      "v": 50
    },
    {
      "midi": 37,
      "hit": false,
      "t": 151071.2774999998,
      "d": 79.36499999999069,
      "v": 80
    },
    {
      "midi": 37,
      "hit": false,
      "t": 151185.3646874998,
      "d": 158.73000000001048,
      "v": 80
    },
    {
      "midi": 54,
      "hit": false,
      "t": 151190.32499999824,
      "d": 79.36499999999069,
      "v": 50
    },
    {
      "midi": 48,
      "hit": false,
      "t": 151190.32499999995,
      "d": 158.73000000001048,
      "v": 80
    },
    {
      "midi": 54,
      "hit": false,
      "t": 151309.37249999822,
      "d": 79.36499999999069,
      "v": 50
    },
    {
      "midi": 54,
      "hit": false,
      "t": 151428.4199999982,
      "d": 79.36499999999069,
      "v": 50
    },
    {
      "midi": 37,
      "hit": false,
      "t": 151428.4199999998,
      "d": 158.73000000001048,
      "v": 80
    },
    {
      "midi": 82,
      "hit": false,
      "t": 151428.41999999995,
      "d": 168.6506250000093,
      "v": 64
    },
    {
      "midi": 48,
      "hit": false,
      "t": 151428.41999999995,
      "d": 158.73000000001048,
      "v": 80
    },
    {
      "midi": 35,
      "hit": false,
      "t": 151428.4200000005,
      "d": 317.45999999999185,
      "v": 100
    },
    {
      "midi": 54,
      "hit": false,
      "t": 151547.4674999982,
      "d": 79.36499999999069,
      "v": 50
    },
    {
      "midi": 54,
      "hit": false,
      "t": 151666.51499999818,
      "d": 79.36499999999069,
      "v": 50
    },
    {
      "midi": 37,
      "hit": false,
      "t": 151666.5149999998,
      "d": 158.73000000001048,
      "v": 80
    },
    {
      "midi": 45,
      "hit": false,
      "t": 151666.51499999998,
      "d": 158.73000000001048,
      "v": 80
    },
    {
      "midi": 70,
      "hit": false,
      "t": 151691.31656249997,
      "d": 84.32531250000466,
      "v": 64
    },
    {
      "midi": 54,
      "hit": false,
      "t": 151785.56249999817,
      "d": 79.36499999999069,
      "v": 50
    },
    {
      "midi": 54,
      "hit": false,
      "t": 151904.60999999815,
      "d": 79.36499999999069,
      "v": 50
    },
    {
      "midi": 37,
      "hit": false,
      "t": 151904.6099999998,
      "d": 158.73000000001048,
      "v": 80
    },
    {
      "midi": 35,
      "hit": false,
      "t": 151904.6100000005,
      "d": 317.45999999999185,
      "v": 100
    },
    {
      "midi": 54,
      "hit": false,
      "t": 152023.65749999814,
      "d": 79.36499999999069,
      "v": 50
    },
    {
      "midi": 54,
      "hit": false,
      "t": 152142.70499999812,
      "d": 79.36499999999069,
      "v": 50
    },
    {
      "midi": 41,
      "hit": false,
      "t": 152142.70499999996,
      "d": 158.73000000001048,
      "v": 80
    },
    {
      "midi": 94,
      "hit": false,
      "t": 152182.38749999998,
      "d": 396.82500000001164,
      "v": 64
    },
    {
      "midi": 54,
      "hit": false,
      "t": 152261.7524999981,
      "d": 79.36499999999069,
      "v": 50
    },
    {
      "midi": 54,
      "hit": false,
      "t": 152380.7999999981,
      "d": 79.36499999999069,
      "v": 50
    },
    {
      "midi": 35,
      "hit": false,
      "t": 152380.8000000005,
      "d": 317.45999999999185,
      "v": 100
    },
    {
      "midi": 54,
      "hit": false,
      "t": 152499.84749999808,
      "d": 79.36499999999069,
      "v": 50
    },
    {
      "midi": 54,
      "hit": false,
      "t": 152618.89499999807,
      "d": 79.36499999999069,
      "v": 50
    },
    {
      "midi": 37,
      "hit": false,
      "t": 152618.89499999981,
      "d": 79.36499999999069,
      "v": 80
    },
    {
      "midi": 48,
      "hit": false,
      "t": 152618.89499999996,
      "d": 158.73000000001048,
      "v": 80
    },
    {
      "midi": 82,
      "hit": false,
      "t": 152658.57749999998,
      "d": 193.45218749999185,
      "v": 64
    },
    {
      "midi": 54,
      "hit": false,
      "t": 152737.94249999805,
      "d": 79.36499999999069,
      "v": 50
    },
    {
      "midi": 37,
      "hit": false,
      "t": 152737.9424999998,
      "d": 79.36499999999069,
      "v": 80
    },
    {
      "midi": 54,
      "hit": false,
      "t": 152856.98999999804,
      "d": 79.36499999999069,
      "v": 50
    },
    {
      "midi": 37,
      "hit": false,
      "t": 152856.9899999998,
      "d": 79.36499999999069,
      "v": 80
    },
    {
      "midi": 41,
      "hit": false,
      "t": 152856.98999999996,
      "d": 158.73000000001048,
      "v": 80
    },
    {
      "midi": 35,
      "hit": false,
      "t": 152856.99000000051,
      "d": 317.45999999999185,
      "v": 100
    },
    {
      "midi": 70,
      "hit": false,
      "t": 152891.71218749997,
      "d": 203.3728124999907,
      "v": 64
    },
    {
      "midi": 54,
      "hit": false,
      "t": 152976.03749999803,
      "d": 79.36499999999069,
      "v": 50
    },
    {
      "midi": 37,
      "hit": false,
      "t": 152976.03749999977,
      "d": 79.36499999999069,
      "v": 80
    },
    {
      "midi": 37,
      "hit": false,
      "t": 153090.12468749977,
      "d": 158.73000000001048,
      "v": 80
    },
    {
      "midi": 54,
      "hit": false,
      "t": 153095.084999998,
      "d": 79.36499999999069,
      "v": 50
    },
    {
      "midi": 54,
      "hit": false,
      "t": 153214.132499998,
      "d": 79.36499999999069,
      "v": 50
    },
    {
      "midi": 54,
      "hit": false,
      "t": 153333.17999999798,
      "d": 79.36499999999069,
      "v": 50
    },
    {
      "midi": 37,
      "hit": false,
      "t": 153333.1799999998,
      "d": 158.73000000001048,
      "v": 80
    },
    {
      "midi": 45,
      "hit": false,
      "t": 153333.18,
      "d": 158.73000000001048,
      "v": 80
    },
    {
      "midi": 67,
      "hit": false,
      "t": 153333.18000000043,
      "d": 436.507500000007,
      "v": 127
    },
    {
      "midi": 35,
      "hit": false,
      "t": 153333.18000000052,
      "d": 317.45999999999185,
      "v": 100
    },
    {
      "midi": 54,
      "hit": false,
      "t": 153452.22749999797,
      "d": 79.36499999999069,
      "v": 50
    },
    {
      "midi": 54,
      "hit": false,
      "t": 153571.27499999796,
      "d": 79.36499999999069,
      "v": 50
    },
    {
      "midi": 37,
      "hit": false,
      "t": 153571.2749999998,
      "d": 158.73000000001048,
      "v": 80
    },
    {
      "midi": 45,
      "hit": false,
      "t": 153571.275,
      "d": 158.73000000001048,
      "v": 80
    },
    {
      "midi": 54,
      "hit": false,
      "t": 153690.32249999794,
      "d": 79.36499999999069,
      "v": 50
    },
    {
      "midi": 54,
      "hit": false,
      "t": 153809.36999999793,
      "d": 79.36499999999069,
      "v": 50
    },
    {
      "midi": 37,
      "hit": false,
      "t": 153809.3699999998,
      "d": 158.73000000001048,
      "v": 80
    },
    {
      "midi": 45,
      "hit": false,
      "t": 153809.37,
      "d": 79.36499999999069,
      "v": 80
    },
    {
      "midi": 68,
      "hit": false,
      "t": 153809.37000000043,
      "d": 436.507500000007,
      "v": 127
    },
    {
      "midi": 35,
      "hit": false,
      "t": 153809.37000000052,
      "d": 317.45999999999185,
      "v": 100
    },
    {
      "midi": 54,
      "hit": false,
      "t": 153928.41749999792,
      "d": 79.36499999999069,
      "v": 50
    },
    {
      "midi": 45,
      "hit": false,
      "t": 153928.41749999998,
      "d": 79.36499999999069,
      "v": 80
    },
    {
      "midi": 54,
      "hit": false,
      "t": 154047.4649999979,
      "d": 79.36499999999069,
      "v": 50
    },
    {
      "midi": 45,
      "hit": false,
      "t": 154047.46499999997,
      "d": 79.36499999999069,
      "v": 80
    },
    {
      "midi": 54,
      "hit": false,
      "t": 154166.5124999979,
      "d": 79.36499999999069,
      "v": 50
    },
    {
      "midi": 45,
      "hit": false,
      "t": 154166.51249999995,
      "d": 79.36499999999069,
      "v": 80
    },
    {
      "midi": 54,
      "hit": false,
      "t": 154285.55999999787,
      "d": 79.36499999999069,
      "v": 50
    },
    {
      "midi": 41,
      "hit": false,
      "t": 154285.55999999997,
      "d": 158.73000000001048,
      "v": 80
    },
    {
      "midi": 75,
      "hit": false,
      "t": 154285.56000000008,
      "d": 952.3800000000047,
      "v": 50
    },
    {
      "midi": 35,
      "hit": false,
      "t": 154285.56000000052,
      "d": 317.45999999999185,
      "v": 100
    },
    {
      "midi": 54,
      "hit": false,
      "t": 154404.60749999786,
      "d": 79.36499999999069,
      "v": 50
    },
    {
      "midi": 54,
      "hit": false,
      "t": 154523.65499999785,
      "d": 79.36499999999069,
      "v": 50
    },
    {
      "midi": 37,
      "hit": false,
      "t": 154523.6549999998,
      "d": 79.36499999999069,
      "v": 80
    },
    {
      "midi": 54,
      "hit": false,
      "t": 154642.70249999783,
      "d": 79.36499999999069,
      "v": 50
    },
    {
      "midi": 37,
      "hit": false,
      "t": 154642.70249999978,
      "d": 79.36499999999069,
      "v": 80
    },
    {
      "midi": 54,
      "hit": false,
      "t": 154761.74999999782,
      "d": 79.36499999999069,
      "v": 50
    },
    {
      "midi": 37,
      "hit": false,
      "t": 154761.74999999977,
      "d": 79.36499999999069,
      "v": 80
    },
    {
      "midi": 70,
      "hit": false,
      "t": 154761.75000000044,
      "d": 223.21406249998836,
      "v": 127
    },
    {
      "midi": 35,
      "hit": false,
      "t": 154761.75000000052,
      "d": 317.45999999999185,
      "v": 100
    },
    {
      "midi": 54,
      "hit": false,
      "t": 154880.7974999978,
      "d": 79.36499999999069,
      "v": 50
    },
    {
      "midi": 37,
      "hit": false,
      "t": 154880.79749999975,
      "d": 79.36499999999069,
      "v": 80
    },
    {
      "midi": 37,
      "hit": false,
      "t": 154994.88468749975,
      "d": 158.73000000001048,
      "v": 80
    },
    {
      "midi": 54,
      "hit": false,
      "t": 154999.8449999978,
      "d": 79.36499999999069,
      "v": 50
    },
    {
      "midi": 54,
      "hit": false,
      "t": 155118.89249999778,
      "d": 79.36499999999069,
      "v": 50
    },
    {
      "midi": 70,
      "hit": false,
      "t": 155218.0987500004,
      "d": 267.8568749999977,
      "v": 127
    },
    {
      "midi": 54,
      "hit": false,
      "t": 155237.93999999776,
      "d": 79.36499999999069,
      "v": 50
    },
    {
      "midi": 37,
      "hit": false,
      "t": 155237.93999999977,
      "d": 158.73000000001048,
      "v": 80
    },
    {
      "midi": 74,
      "hit": false,
      "t": 155237.9400000001,
      "d": 952.3800000000047,
      "v": 50
    },
    {
      "midi": 35,
      "hit": false,
      "t": 155237.94000000053,
      "d": 317.45999999999185,
      "v": 100
    },
    {
      "midi": 54,
      "hit": false,
      "t": 155356.98749999775,
      "d": 79.36499999999069,
      "v": 50
    },
    {
      "midi": 54,
      "hit": false,
      "t": 155476.03499999773,
      "d": 79.36499999999069,
      "v": 50
    },
    {
      "midi": 37,
      "hit": false,
      "t": 155476.03499999977,
      "d": 158.73000000001048,
      "v": 80
    },
    {
      "midi": 72,
      "hit": false,
      "t": 155545.4793750004,
      "d": 252.97593750001397,
      "v": 127
    },
    {
      "midi": 54,
      "hit": false,
      "t": 155595.08249999772,
      "d": 79.36499999999069,
      "v": 50
    },
    {
      "midi": 54,
      "hit": false,
      "t": 155714.1299999977,
      "d": 79.36499999999069,
      "v": 50
    },
    {
      "midi": 37,
      "hit": false,
      "t": 155714.12999999977,
      "d": 158.73000000001048,
      "v": 80
    },
    {
      "midi": 35,
      "hit": false,
      "t": 155714.13000000053,
      "d": 317.45999999999185,
      "v": 100
    },
    {
      "midi": 54,
      "hit": false,
      "t": 155833.1774999977,
      "d": 79.36499999999069,
      "v": 50
    },
    {
      "midi": 54,
      "hit": false,
      "t": 155952.22499999768,
      "d": 79.36499999999069,
      "v": 50
    },
    {
      "midi": 54,
      "hit": false,
      "t": 156071.27249999766,
      "d": 79.36499999999069,
      "v": 50
    },
    {
      "midi": 54,
      "hit": false,
      "t": 156190.31999999765,
      "d": 79.36499999999069,
      "v": 50
    },
    {
      "midi": 72,
      "hit": false,
      "t": 156190.3200000001,
      "d": 952.3800000000047,
      "v": 50
    },
    {
      "midi": 35,
      "hit": false,
      "t": 156190.32000000053,
      "d": 317.45999999999185,
      "v": 100
    },
    {
      "midi": 54,
      "hit": false,
      "t": 156309.36749999764,
      "d": 79.36499999999069,
      "v": 50
    },
    {
      "midi": 54,
      "hit": false,
      "t": 156428.41499999762,
      "d": 79.36499999999069,
      "v": 50
    },
    {
      "midi": 37,
      "hit": false,
      "t": 156428.41499999978,
      "d": 79.36499999999069,
      "v": 80
    },
    {
      "midi": 54,
      "hit": false,
      "t": 156547.4624999976,
      "d": 79.36499999999069,
      "v": 50
    },
    {
      "midi": 37,
      "hit": false,
      "t": 156547.46249999976,
      "d": 79.36499999999069,
      "v": 80
    },
    {
      "midi": 54,
      "hit": false,
      "t": 156666.5099999976,
      "d": 79.36499999999069,
      "v": 50
    },
    {
      "midi": 37,
      "hit": false,
      "t": 156666.50999999975,
      "d": 79.36499999999069,
      "v": 80
    },
    {
      "midi": 63,
      "hit": false,
      "t": 156666.51000000042,
      "d": 128.96812500001397,
      "v": 127
    },
    {
      "midi": 35,
      "hit": false,
      "t": 156666.51000000053,
      "d": 317.45999999999185,
      "v": 100
    },
    {
      "midi": 54,
      "hit": false,
      "t": 156785.55749999758,
      "d": 79.36499999999069,
      "v": 50
    },
    {
      "midi": 37,
      "hit": false,
      "t": 156785.55749999973,
      "d": 79.36499999999069,
      "v": 80
    },
    {
      "midi": 37,
      "hit": false,
      "t": 156899.64468749973,
      "d": 158.73000000001048,
      "v": 80
    },
    {
      "midi": 60,
      "hit": false,
      "t": 156899.64468750043,
      "d": 218.2537500000035,
      "v": 127
    },
    {
      "midi": 54,
      "hit": false,
      "t": 156904.60499999757,
      "d": 79.36499999999069,
      "v": 50
    },
    {
      "midi": 54,
      "hit": false,
      "t": 157023.65249999755,
      "d": 79.36499999999069,
      "v": 50
    },
    {
      "midi": 54,
      "hit": false,
      "t": 157142.69999999754,
      "d": 79.36499999999069,
      "v": 50
    },
    {
      "midi": 37,
      "hit": false,
      "t": 157142.69999999975,
      "d": 158.73000000001048,
      "v": 80
    },
    {
      "midi": 70,
      "hit": false,
      "t": 157142.7000000001,
      "d": 952.3800000000047,
      "v": 50
    },
    {
      "midi": 63,
      "hit": false,
      "t": 157142.70000000045,
      "d": 570.4359375000058,
      "v": 127
    },
    {
      "midi": 35,
      "hit": false,
      "t": 157142.70000000054,
      "d": 317.45999999999185,
      "v": 100
    },
    {
      "midi": 54,
      "hit": false,
      "t": 157261.74749999752,
      "d": 79.36499999999069,
      "v": 50
    },
    {
      "midi": 54,
      "hit": false,
      "t": 157380.7949999975,
      "d": 79.36499999999069,
      "v": 50
    },
    {
      "midi": 37,
      "hit": false,
      "t": 157380.79499999975,
      "d": 158.73000000001048,
      "v": 80
    },
    {
      "midi": 54,
      "hit": false,
      "t": 157499.8424999975,
      "d": 79.36499999999069,
      "v": 50
    },
    {
      "midi": 54,
      "hit": false,
      "t": 157618.88999999748,
      "d": 79.36499999999069,
      "v": 50
    },
    {
      "midi": 37,
      "hit": false,
      "t": 157618.88999999975,
      "d": 158.73000000001048,
      "v": 80
    },
    {
      "midi": 75,
      "hit": false,
      "t": 157618.88999999996,
      "d": 218.2537500000035,
      "v": 64
    },
    {
      "midi": 87,
      "hit": false,
      "t": 157618.88999999998,
      "d": 436.507500000007,
      "v": 64
    },
    {
      "midi": 35,
      "hit": false,
      "t": 157618.89000000054,
      "d": 317.45999999999185,
      "v": 100
    },
    {
      "midi": 54,
      "hit": false,
      "t": 157737.93749999747,
      "d": 79.36499999999069,
      "v": 50
    },
    {
      "midi": 54,
      "hit": false,
      "t": 157856.98499999745,
      "d": 79.36499999999069,
      "v": 50
    },
    {
      "midi": 54,
      "hit": false,
      "t": 157976.03249999744,
      "d": 79.36499999999069,
      "v": 50
    },
    {
      "midi": 54,
      "hit": false,
      "t": 158095.07999999743,
      "d": 79.36499999999069,
      "v": 50
    },
    {
      "midi": 72,
      "hit": false,
      "t": 158095.0800000001,
      "d": 952.3800000000047,
      "v": 50
    },
    {
      "midi": 63,
      "hit": false,
      "t": 158095.08000000045,
      "d": 436.507500000007,
      "v": 127
    },
    {
      "midi": 35,
      "hit": false,
      "t": 158095.08000000054,
      "d": 317.45999999999185,
      "v": 100
    },
    {
      "midi": 54,
      "hit": false,
      "t": 158214.1274999974,
      "d": 79.36499999999069,
      "v": 50
    },
    {
      "midi": 54,
      "hit": false,
      "t": 158333.1749999974,
      "d": 79.36499999999069,
      "v": 50
    },
    {
      "midi": 37,
      "hit": false,
      "t": 158333.17499999976,
      "d": 79.36499999999069,
      "v": 80
    },
    {
      "midi": 54,
      "hit": false,
      "t": 158452.22249999738,
      "d": 79.36499999999069,
      "v": 50
    },
    {
      "midi": 37,
      "hit": false,
      "t": 158452.22249999974,
      "d": 79.36499999999069,
      "v": 80
    },
    {
      "midi": 54,
      "hit": false,
      "t": 158571.26999999737,
      "d": 79.36499999999069,
      "v": 50
    },
    {
      "midi": 37,
      "hit": false,
      "t": 158571.26999999973,
      "d": 79.36499999999069,
      "v": 80
    },
    {
      "midi": 65,
      "hit": false,
      "t": 158571.27000000046,
      "d": 436.507500000007,
      "v": 127
    },
    {
      "midi": 35,
      "hit": false,
      "t": 158571.27000000054,
      "d": 317.45999999999185,
      "v": 100
    },
    {
      "midi": 54,
      "hit": false,
      "t": 158690.31749999736,
      "d": 79.36499999999069,
      "v": 50
    },
    {
      "midi": 37,
      "hit": false,
      "t": 158690.3174999997,
      "d": 79.36499999999069,
      "v": 80
    },
    {
      "midi": 37,
      "hit": false,
      "t": 158804.40468749971,
      "d": 158.73000000001048,
      "v": 80
    },
    {
      "midi": 54,
      "hit": false,
      "t": 158809.36499999734,
      "d": 79.36499999999069,
      "v": 50
    },
    {
      "midi": 54,
      "hit": false,
      "t": 158928.41249999733,
      "d": 79.36499999999069,
      "v": 50
    },
    {
      "midi": 54,
      "hit": false,
      "t": 159047.4599999973,
      "d": 79.36499999999069,
      "v": 50
    },
    {
      "midi": 37,
      "hit": false,
      "t": 159047.45999999973,
      "d": 158.73000000001048,
      "v": 80
    },
    {
      "midi": 70,
      "hit": false,
      "t": 159047.4600000001,
      "d": 952.3800000000047,
      "v": 50
    },
    {
      "midi": 63,
      "hit": false,
      "t": 159047.46000000046,
      "d": 267.8568749999977,
      "v": 127
    },
    {
      "midi": 35,
      "hit": false,
      "t": 159047.46000000054,
      "d": 317.45999999999185,
      "v": 100
    },
    {
      "midi": 54,
      "hit": false,
      "t": 159166.5074999973,
      "d": 79.36499999999069,
      "v": 50
    },
    {
      "midi": 54,
      "hit": false,
      "t": 159285.5549999973,
      "d": 79.36499999999069,
      "v": 50
    },
    {
      "midi": 37,
      "hit": false,
      "t": 159285.55499999973,
      "d": 158.73000000001048,
      "v": 80
    },
    {
      "midi": 54,
      "hit": false,
      "t": 159404.60249999727,
      "d": 79.36499999999069,
      "v": 50
    },
    {
      "midi": 54,
      "hit": false,
      "t": 159523.64999999726,
      "d": 79.36499999999069,
      "v": 50
    },
    {
      "midi": 37,
      "hit": false,
      "t": 159523.64999999973,
      "d": 158.73000000001048,
      "v": 80
    },
    {
      "midi": 70,
      "hit": false,
      "t": 159523.65000000046,
      "d": 218.2537500000035,
      "v": 127
    },
    {
      "midi": 35,
      "hit": false,
      "t": 159523.65000000055,
      "d": 317.45999999999185,
      "v": 100
    },
    {
      "midi": 54,
      "hit": false,
      "t": 159642.69749999724,
      "d": 79.36499999999069,
      "v": 50
    },
    {
      "midi": 68,
      "hit": false,
      "t": 159756.78468750048,
      "d": 436.507500000007,
      "v": 127
    },
    {
      "midi": 54,
      "hit": false,
      "t": 159761.74499999723,
      "d": 79.36499999999069,
      "v": 50
    },
    {
      "midi": 45,
      "hit": false,
      "t": 159761.74499999994,
      "d": 158.73000000001048,
      "v": 80
    },
    {
      "midi": 54,
      "hit": false,
      "t": 159880.79249999722,
      "d": 79.36499999999069,
      "v": 50
    },
    {
      "midi": 54,
      "hit": false,
      "t": 159999.8399999972,
      "d": 79.36499999999069,
      "v": 50
    },
    {
      "midi": 75,
      "hit": false,
      "t": 159999.8400000001,
      "d": 1904.7600000000093,
      "v": 50
    },
    {
      "midi": 35,
      "hit": false,
      "t": 159999.84000000055,
      "d": 317.45999999999185,
      "v": 100
    },
    {
      "midi": 54,
      "hit": false,
      "t": 160118.8874999972,
      "d": 79.36499999999069,
      "v": 50
    },
    {
      "midi": 67,
      "hit": false,
      "t": 160232.97468750048,
      "d": 218.2537500000035,
      "v": 127
    },
    {
      "midi": 54,
      "hit": false,
      "t": 160237.93499999717,
      "d": 79.36499999999069,
      "v": 50
    },
    {
      "midi": 37,
      "hit": false,
      "t": 160237.93499999974,
      "d": 79.36499999999069,
      "v": 80
    },
    {
      "midi": 45,
      "hit": false,
      "t": 160237.93499999994,
      "d": 158.73000000001048,
      "v": 80
    },
    {
      "midi": 54,
      "hit": false,
      "t": 160356.98249999716,
      "d": 79.36499999999069,
      "v": 50
    },
    {
      "midi": 37,
      "hit": false,
      "t": 160356.98249999972,
      "d": 79.36499999999069,
      "v": 80
    },
    {
      "midi": 54,
      "hit": false,
      "t": 160476.02999999715,
      "d": 79.36499999999069,
      "v": 50
    },
    {
      "midi": 37,
      "hit": false,
      "t": 160476.0299999997,
      "d": 79.36499999999069,
      "v": 80
    },
    {
      "midi": 45,
      "hit": false,
      "t": 160476.02999999994,
      "d": 158.73000000001048,
      "v": 80
    },
    {
      "midi": 65,
      "hit": false,
      "t": 160476.0300000005,
      "d": 218.2537500000035,
      "v": 127
    },
    {
      "midi": 35,
      "hit": false,
      "t": 160476.03000000055,
      "d": 317.45999999999185,
      "v": 100
    },
    {
      "midi": 54,
      "hit": false,
      "t": 160595.07749999713,
      "d": 79.36499999999069,
      "v": 50
    },
    {
      "midi": 37,
      "hit": false,
      "t": 160595.0774999997,
      "d": 79.36499999999069,
      "v": 80
    },
    {
      "midi": 37,
      "hit": false,
      "t": 160709.1646874997,
      "d": 158.73000000001048,
      "v": 80
    },
    {
      "midi": 63,
      "hit": false,
      "t": 160709.1646875005,
      "d": 158.73000000001048,
      "v": 127
    },
    {
      "midi": 54,
      "hit": false,
      "t": 160714.12499999712,
      "d": 79.36499999999069,
      "v": 50
    },
    {
      "midi": 54,
      "hit": false,
      "t": 160833.1724999971,
      "d": 79.36499999999069,
      "v": 50
    },
    {
      "midi": 54,
      "hit": false,
      "t": 160952.2199999971,
      "d": 79.36499999999069,
      "v": 50
    },
    {
      "midi": 37,
      "hit": false,
      "t": 160952.2199999997,
      "d": 158.73000000001048,
      "v": 80
    },
    {
      "midi": 63,
      "hit": false,
      "t": 160952.22000000053,
      "d": 218.2537500000035,
      "v": 127
    },
    {
      "midi": 35,
      "hit": false,
      "t": 160952.22000000055,
      "d": 317.45999999999185,
      "v": 100
    },
    {
      "midi": 54,
      "hit": false,
      "t": 161071.26749999708,
      "d": 79.36499999999069,
      "v": 50
    },
    {
      "midi": 65,
      "hit": false,
      "t": 161185.35468750054,
      "d": 218.2537500000035,
      "v": 127
    },
    {
      "midi": 54,
      "hit": false,
      "t": 161190.31499999706,
      "d": 79.36499999999069,
      "v": 50
    },
    {
      "midi": 37,
      "hit": false,
      "t": 161190.3149999997,
      "d": 158.73000000001048,
      "v": 80
    },
    {
      "midi": 54,
      "hit": false,
      "t": 161309.36249999705,
      "d": 79.36499999999069,
      "v": 50
    },
    {
      "midi": 54,
      "hit": false,
      "t": 161428.40999999703,
      "d": 79.36499999999069,
      "v": 50
    },
    {
      "midi": 37,
      "hit": false,
      "t": 161428.4099999997,
      "d": 158.73000000001048,
      "v": 80
    },
    {
      "midi": 45,
      "hit": false,
      "t": 161428.40999999995,
      "d": 158.73000000001048,
      "v": 80
    },
    {
      "midi": 67,
      "hit": false,
      "t": 161428.41000000056,
      "d": 218.2537500000035,
      "v": 127
    },
    {
      "midi": 35,
      "hit": false,
      "t": 161428.41000000056,
      "d": 317.45999999999185,
      "v": 100
    },
    {
      "midi": 54,
      "hit": false,
      "t": 161547.45749999702,
      "d": 79.36499999999069,
      "v": 50
    },
    {
      "midi": 65,
      "hit": false,
      "t": 161661.54468750057,
      "d": 500.99156250001397,
      "v": 127
    },
    {
      "midi": 54,
      "hit": false,
      "t": 161666.504999997,
      "d": 79.36499999999069,
      "v": 50
    },
    {
      "midi": 45,
      "hit": false,
      "t": 161666.50499999995,
      "d": 158.73000000001048,
      "v": 80
    },
    {
      "midi": 54,
      "hit": false,
      "t": 161785.552499997,
      "d": 79.36499999999069,
      "v": 50
    },
    {
      "midi": 54,
      "hit": false,
      "t": 161904.59999999698,
      "d": 79.36499999999069,
      "v": 50
    },
    {
      "midi": 45,
      "hit": false,
      "t": 161904.59999999995,
      "d": 158.73000000001048,
      "v": 80
    },
    {
      "midi": 75,
      "hit": false,
      "t": 161904.60000000012,
      "d": 952.3800000000047,
      "v": 50
    },
    {
      "midi": 35,
      "hit": false,
      "t": 161904.60000000056,
      "d": 317.45999999999185,
      "v": 100
    },
    {
      "midi": 54,
      "hit": false,
      "t": 162023.64749999697,
      "d": 79.36499999999069,
      "v": 50
    },
    {
      "midi": 54,
      "hit": false,
      "t": 162142.69499999695,
      "d": 79.36499999999069,
      "v": 50
    },
    {
      "midi": 37,
      "hit": false,
      "t": 162142.69499999972,
      "d": 79.36499999999069,
      "v": 80
    },
    {
      "midi": 45,
      "hit": false,
      "t": 162142.69499999995,
      "d": 79.36499999999069,
      "v": 80
    },
    {
      "midi": 54,
      "hit": false,
      "t": 162261.74249999694,
      "d": 79.36499999999069,
      "v": 50
    },
    {
      "midi": 37,
      "hit": false,
      "t": 162261.7424999997,
      "d": 79.36499999999069,
      "v": 80
    },
    {
      "midi": 45,
      "hit": false,
      "t": 162261.74249999993,
      "d": 79.36499999999069,
      "v": 80
    },
    {
      "midi": 54,
      "hit": false,
      "t": 162380.78999999692,
      "d": 79.36499999999069,
      "v": 50
    },
    {
      "midi": 37,
      "hit": false,
      "t": 162380.7899999997,
      "d": 79.36499999999069,
      "v": 80
    },
    {
      "midi": 41,
      "hit": false,
      "t": 162380.78999999998,
      "d": 158.73000000001048,
      "v": 80
    },
    {
      "midi": 35,
      "hit": false,
      "t": 162380.79000000056,
      "d": 317.45999999999185,
      "v": 100
    },
    {
      "midi": 70,
      "hit": false,
      "t": 162410.5518750006,
      "d": 163.69031249999534,
      "v": 127
    },
    {
      "midi": 54,
      "hit": false,
      "t": 162499.8374999969,
      "d": 79.36499999999069,
      "v": 50
    },
    {
      "midi": 37,
      "hit": false,
      "t": 162499.83749999967,
      "d": 79.36499999999069,
      "v": 80
    },
    {
      "midi": 37,
      "hit": false,
      "t": 162613.92468749968,
      "d": 158.73000000001048,
      "v": 80
    },
    {
      "midi": 54,
      "hit": false,
      "t": 162618.8849999969,
      "d": 79.36499999999069,
      "v": 50
    },
    {
      "midi": 67,
      "hit": false,
      "t": 162628.8056250006,
      "d": 153.7696874999965,
      "v": 127
    },
    {
      "midi": 54,
      "hit": false,
      "t": 162737.93249999688,
      "d": 79.36499999999069,
      "v": 50
    },
    {
      "midi": 54,
      "hit": false,
      "t": 162856.97999999687,
      "d": 79.36499999999069,
      "v": 50
    },
    {
      "midi": 37,
      "hit": false,
      "t": 162856.9799999997,
      "d": 158.73000000001048,
      "v": 80
    },
    {
      "midi": 74,
      "hit": false,
      "t": 162856.98000000013,
      "d": 952.3800000000047,
      "v": 50
    },
    {
      "midi": 35,
      "hit": false,
      "t": 162856.98000000056,
      "d": 317.45999999999185,
      "v": 100
    },
    {
      "midi": 70,
      "hit": false,
      "t": 162886.7418750006,
      "d": 243.05531249998603,
      "v": 127
    },
    {
      "midi": 54,
      "hit": false,
      "t": 162976.02749999685,
      "d": 79.36499999999069,
      "v": 50
    },
    {
      "midi": 54,
      "hit": false,
      "t": 163095.07499999684,
      "d": 79.36499999999069,
      "v": 50
    },
    {
      "midi": 37,
      "hit": false,
      "t": 163095.0749999997,
      "d": 158.73000000001048,
      "v": 80
    },
    {
      "midi": 54,
      "hit": false,
      "t": 163214.12249999683,
      "d": 79.36499999999069,
      "v": 50
    },
    {
      "midi": 72,
      "hit": false,
      "t": 163229.00343750056,
      "d": 218.2537500000035,
      "v": 127
    },
    {
      "midi": 54,
      "hit": false,
      "t": 163333.1699999968,
      "d": 79.36499999999069,
      "v": 50
    },
    {
      "midi": 37,
      "hit": false,
      "t": 163333.1699999997,
      "d": 158.73000000001048,
      "v": 80
    },
    {
      "midi": 35,
      "hit": false,
      "t": 163333.17000000057,
      "d": 317.45999999999185,
      "v": 100
    },
    {
      "midi": 54,
      "hit": false,
      "t": 163452.2174999968,
      "d": 79.36499999999069,
      "v": 50
    },
    {
      "midi": 54,
      "hit": false,
      "t": 163571.26499999678,
      "d": 79.36499999999069,
      "v": 50
    },
    {
      "midi": 63,
      "hit": false,
      "t": 163615.90781250058,
      "d": 362.10281250000116,
      "v": 127
    },
    {
      "midi": 54,
      "hit": false,
      "t": 163690.31249999677,
      "d": 79.36499999999069,
      "v": 50
    },
    {
      "midi": 54,
      "hit": false,
      "t": 163809.35999999676,
      "d": 79.36499999999069,
      "v": 50
    },
    {
      "midi": 72,
      "hit": false,
      "t": 163809.36000000013,
      "d": 952.3800000000047,
      "v": 50
    },
    {
      "midi": 35,
      "hit": false,
      "t": 163809.36000000057,
      "d": 317.45999999999185,
      "v": 100
    },
    {
      "midi": 54,
      "hit": false,
      "t": 163928.40749999674,
      "d": 79.36499999999069,
      "v": 50
    },
    {
      "midi": 63,
      "hit": false,
      "t": 164042.49468750058,
      "d": 158.73000000001048,
      "v": 127
    },
    {
      "midi": 54,
      "hit": false,
      "t": 164047.45499999673,
      "d": 79.36499999999069,
      "v": 50
    },
    {
      "midi": 37,
      "hit": false,
      "t": 164047.4549999997,
      "d": 79.36499999999069,
      "v": 80
    },
    {
      "midi": 54,
      "hit": false,
      "t": 164166.5024999967,
      "d": 79.36499999999069,
      "v": 50
    },
    {
      "midi": 37,
      "hit": false,
      "t": 164166.50249999968,
      "d": 79.36499999999069,
      "v": 80
    },
    {
      "midi": 54,
      "hit": false,
      "t": 164285.5499999967,
      "d": 79.36499999999069,
      "v": 50
    },
    {
      "midi": 37,
      "hit": false,
      "t": 164285.54999999967,
      "d": 79.36499999999069,
      "v": 80
    },
    {
      "midi": 35,
      "hit": false,
      "t": 164285.55000000057,
      "d": 317.45999999999185,
      "v": 100
    },
    {
      "midi": 63,
      "hit": false,
      "t": 164285.5500000006,
      "d": 218.2537500000035,
      "v": 127
    },
    {
      "midi": 54,
      "hit": false,
      "t": 164404.5974999967,
      "d": 79.36499999999069,
      "v": 50
    },
    {
      "midi": 37,
      "hit": false,
      "t": 164404.59749999965,
      "d": 79.36499999999069,
      "v": 80
    },
    {
      "midi": 37,
      "hit": false,
      "t": 164518.68468749966,
      "d": 158.73000000001048,
      "v": 80
    },
    {
      "midi": 60,
      "hit": false,
      "t": 164518.68468750062,
      "d": 218.2537500000035,
      "v": 127
    },
    {
      "midi": 54,
      "hit": false,
      "t": 164523.64499999667,
      "d": 79.36499999999069,
      "v": 50
    },
    {
      "midi": 54,
      "hit": false,
      "t": 164642.69249999666,
      "d": 79.36499999999069,
      "v": 50
    },
    {
      "midi": 54,
      "hit": false,
      "t": 164761.73999999664,
      "d": 79.36499999999069,
      "v": 50
    },
    {
      "midi": 37,
      "hit": false,
      "t": 164761.73999999967,
      "d": 158.73000000001048,
      "v": 80
    },
    {
      "midi": 70,
      "hit": false,
      "t": 164761.74000000014,
      "d": 952.3800000000047,
      "v": 50
    },
    {
      "midi": 35,
      "hit": false,
      "t": 164761.74000000057,
      "d": 317.45999999999185,
      "v": 100
    },
    {
      "midi": 63,
      "hit": false,
      "t": 164761.74000000063,
      "d": 634.9200000000128,
      "v": 127
    },
    {
      "midi": 54,
      "hit": false,
      "t": 164880.78749999663,
      "d": 79.36499999999069,
      "v": 50
    },
    {
      "midi": 54,
      "hit": false,
      "t": 164999.83499999662,
      "d": 79.36499999999069,
      "v": 50
    },
    {
      "midi": 37,
      "hit": false,
      "t": 164999.83499999967,
      "d": 158.73000000001048,
      "v": 80
    },
    {
      "midi": 54,
      "hit": false,
      "t": 165118.8824999966,
      "d": 79.36499999999069,
      "v": 50
    },
    {
      "midi": 54,
      "hit": false,
      "t": 165237.9299999966,
      "d": 79.36499999999069,
      "v": 50
    },
    {
      "midi": 37,
      "hit": false,
      "t": 165237.92999999967,
      "d": 158.73000000001048,
      "v": 80
    },
    {
      "midi": 75,
      "hit": false,
      "t": 165237.92999999996,
      "d": 218.2537500000035,
      "v": 64
    },
    {
      "midi": 87,
      "hit": false,
      "t": 165237.93,
      "d": 436.507500000007,
      "v": 64
    },
    {
      "midi": 35,
      "hit": false,
      "t": 165237.93000000058,
      "d": 317.45999999999185,
      "v": 100
    },
    {
      "midi": 54,
      "hit": false,
      "t": 165356.97749999657,
      "d": 79.36499999999069,
      "v": 50
    },
    {
      "midi": 54,
      "hit": false,
      "t": 165476.02499999656,
      "d": 79.36499999999069,
      "v": 50
    },
    {
      "midi": 54,
      "hit": false,
      "t": 165595.07249999655,
      "d": 79.36499999999069,
      "v": 50
    },
    {
      "midi": 54,
      "hit": false,
      "t": 165714.11999999653,
      "d": 79.36499999999069,
      "v": 50
    },
    {
      "midi": 72,
      "hit": false,
      "t": 165714.12000000014,
      "d": 952.3800000000047,
      "v": 50
    },
    {
      "midi": 35,
      "hit": false,
      "t": 165714.12000000058,
      "d": 317.45999999999185,
      "v": 100
    },
    {
      "midi": 63,
      "hit": false,
      "t": 165714.12000000064,
      "d": 436.507500000007,
      "v": 127
    },
    {
      "midi": 54,
      "hit": false,
      "t": 165833.16749999652,
      "d": 79.36499999999069,
      "v": 50
    },
    {
      "midi": 54,
      "hit": false,
      "t": 165952.2149999965,
      "d": 79.36499999999069,
      "v": 50
    },
    {
      "midi": 37,
      "hit": false,
      "t": 165952.21499999968,
      "d": 79.36499999999069,
      "v": 80
    },
    {
      "midi": 54,
      "hit": false,
      "t": 166071.2624999965,
      "d": 79.36499999999069,
      "v": 50
    },
    {
      "midi": 37,
      "hit": false,
      "t": 166071.26249999966,
      "d": 79.36499999999069,
      "v": 80
    },
    {
      "midi": 54,
      "hit": false,
      "t": 166190.30999999648,
      "d": 79.36499999999069,
      "v": 50
    },
    {
      "midi": 37,
      "hit": false,
      "t": 166190.30999999965,
      "d": 79.36499999999069,
      "v": 80
    },
    {
      "midi": 35,
      "hit": false,
      "t": 166190.31000000058,
      "d": 317.45999999999185,
      "v": 100
    },
    {
      "midi": 65,
      "hit": false,
      "t": 166190.31000000064,
      "d": 436.507500000007,
      "v": 127
    },
    {
      "midi": 54,
      "hit": false,
      "t": 166309.35749999646,
      "d": 79.36499999999069,
      "v": 50
    },
    {
      "midi": 37,
      "hit": false,
      "t": 166309.35749999963,
      "d": 79.36499999999069,
      "v": 80
    },
    {
      "midi": 37,
      "hit": false,
      "t": 166423.44468749964,
      "d": 158.73000000001048,
      "v": 80
    },
    {
      "midi": 54,
      "hit": false,
      "t": 166428.40499999645,
      "d": 79.36499999999069,
      "v": 50
    },
    {
      "midi": 54,
      "hit": false,
      "t": 166547.45249999643,
      "d": 79.36499999999069,
      "v": 50
    },
    {
      "midi": 54,
      "hit": false,
      "t": 166666.49999999642,
      "d": 79.36499999999069,
      "v": 50
    },
    {
      "midi": 37,
      "hit": false,
      "t": 166666.49999999965,
      "d": 158.73000000001048,
      "v": 80
    },
    {
      "midi": 70,
      "hit": false,
      "t": 166666.50000000015,
      "d": 952.3800000000047,
      "v": 50
    },
    {
      "midi": 35,
      "hit": false,
      "t": 166666.50000000058,
      "d": 317.45999999999185,
      "v": 100
    },
    {
      "midi": 63,
      "hit": false,
      "t": 166666.50000000064,
      "d": 218.2537500000035,
      "v": 127
    },
    {
      "midi": 54,
      "hit": false,
      "t": 166785.5474999964,
      "d": 79.36499999999069,
      "v": 50
    },
    {
      "midi": 54,
      "hit": false,
      "t": 166904.5949999964,
      "d": 79.36499999999069,
      "v": 50
    },
    {
      "midi": 37,
      "hit": false,
      "t": 166904.59499999965,
      "d": 158.73000000001048,
      "v": 80
    },
    {
      "midi": 54,
      "hit": false,
      "t": 167023.64249999638,
      "d": 79.36499999999069,
      "v": 50
    },
    {
      "midi": 54,
      "hit": false,
      "t": 167142.68999999636,
      "d": 79.36499999999069,
      "v": 50
    },
    {
      "midi": 37,
      "hit": false,
      "t": 167142.68999999965,
      "d": 158.73000000001048,
      "v": 80
    },
    {
      "midi": 35,
      "hit": false,
      "t": 167142.69000000058,
      "d": 317.45999999999185,
      "v": 100
    },
    {
      "midi": 70,
      "hit": false,
      "t": 167142.69000000064,
      "d": 218.2537500000035,
      "v": 127
    },
    {
      "midi": 54,
      "hit": false,
      "t": 167261.73749999635,
      "d": 79.36499999999069,
      "v": 50
    },
    {
      "midi": 68,
      "hit": false,
      "t": 167375.82468750066,
      "d": 436.507500000007,
      "v": 127
    },
    {
      "midi": 54,
      "hit": false,
      "t": 167380.78499999634,
      "d": 79.36499999999069,
      "v": 50
    },
    {
      "midi": 48,
      "hit": false,
      "t": 167380.78499999997,
      "d": 158.73000000001048,
      "v": 80
    },
    {
      "midi": 54,
      "hit": false,
      "t": 167499.83249999632,
      "d": 79.36499999999069,
      "v": 50
    },
    {
      "midi": 54,
      "hit": false,
      "t": 167618.8799999963,
      "d": 79.36499999999069,
      "v": 50
    },
    {
      "midi": 75,
      "hit": false,
      "t": 167618.88000000015,
      "d": 2857.140000000014,
      "v": 50
    },
    {
      "midi": 35,
      "hit": false,
      "t": 167618.8800000006,
      "d": 317.45999999999185,
      "v": 100
    },
    {
      "midi": 54,
      "hit": false,
      "t": 167737.9274999963,
      "d": 79.36499999999069,
      "v": 50
    },
    {
      "midi": 67,
      "hit": false,
      "t": 167852.01468750066,
      "d": 218.2537500000035,
      "v": 127
    },
    {
      "midi": 54,
      "hit": false,
      "t": 167856.97499999628,
      "d": 79.36499999999069,
      "v": 50
    },
    {
      "midi": 37,
      "hit": false,
      "t": 167856.97499999966,
      "d": 79.36499999999069,
      "v": 80
    },
    {
      "midi": 54,
      "hit": false,
      "t": 167976.02249999627,
      "d": 79.36499999999069,
      "v": 50
    },
    {
      "midi": 37,
      "hit": false,
      "t": 167976.02249999964,
      "d": 79.36499999999069,
      "v": 80
    },
    {
      "midi": 54,
      "hit": false,
      "t": 168095.06999999625,
      "d": 79.36499999999069,
      "v": 50
    },
    {
      "midi": 37,
      "hit": false,
      "t": 168095.06999999963,
      "d": 79.36499999999069,
      "v": 80
    },
    {
      "midi": 45,
      "hit": false,
      "t": 168095.06999999992,
      "d": 158.73000000001048,
      "v": 80
    },
    {
      "midi": 35,
      "hit": false,
      "t": 168095.0700000006,
      "d": 317.45999999999185,
      "v": 100
    },
    {
      "midi": 65,
      "hit": false,
      "t": 168095.07000000068,
      "d": 218.2537500000035,
      "v": 127
    },
    {
      "midi": 54,
      "hit": false,
      "t": 168214.11749999624,
      "d": 79.36499999999069,
      "v": 50
    },
    {
      "midi": 37,
      "hit": false,
      "t": 168214.11749999961,
      "d": 79.36499999999069,
      "v": 80
    },
    {
      "midi": 37,
      "hit": false,
      "t": 168328.20468749962,
      "d": 158.73000000001048,
      "v": 80
    },
    {
      "midi": 63,
      "hit": false,
      "t": 168328.2046875007,
      "d": 1979.164687499986,
      "v": 127
    },
    {
      "midi": 54,
      "hit": false,
      "t": 168333.16499999622,
      "d": 79.36499999999069,
      "v": 50
    },
    {
      "midi": 41,
      "hit": false,
      "t": 168333.16499999998,
      "d": 158.73000000001048,
      "v": 80
    },
    {
      "midi": 54,
      "hit": false,
      "t": 168452.2124999962,
      "d": 79.36499999999069,
      "v": 50
    },
    {
      "midi": 54,
      "hit": false,
      "t": 168571.2599999962,
      "d": 79.36499999999069,
      "v": 50
    },
    {
      "midi": 37,
      "hit": false,
      "t": 168571.25999999963,
      "d": 158.73000000001048,
      "v": 80
    },
    {
      "midi": 35,
      "hit": false,
      "t": 168571.2600000006,
      "d": 317.45999999999185,
      "v": 100
    },
    {
      "midi": 54,
      "hit": false,
      "t": 168690.30749999618,
      "d": 79.36499999999069,
      "v": 50
    },
    {
      "midi": 82,
      "hit": false,
      "t": 168794.4740625,
      "d": 277.7774999999965,
      "v": 64
    },
    {
      "midi": 54,
      "hit": false,
      "t": 168809.35499999617,
      "d": 79.36499999999069,
      "v": 50
    },
    {
      "midi": 37,
      "hit": false,
      "t": 168809.35499999963,
      "d": 158.73000000001048,
      "v": 80
    },
    {
      "midi": 48,
      "hit": false,
      "t": 168809.35499999998,
      "d": 158.73000000001048,
      "v": 80
    },
    {
      "midi": 54,
      "hit": false,
      "t": 168928.40249999615,
      "d": 79.36499999999069,
      "v": 50
    },
    {
      "midi": 84,
      "hit": false,
      "t": 169002.8071875,
      "d": 252.97593750001397,
      "v": 64
    },
    {
      "midi": 54,
      "hit": false,
      "t": 169047.44999999614,
      "d": 79.36499999999069,
      "v": 50
    },
    {
      "midi": 37,
      "hit": false,
      "t": 169047.44999999963,
      "d": 158.73000000001048,
      "v": 80
    },
    {
      "midi": 45,
      "hit": false,
      "t": 169047.44999999992,
      "d": 158.73000000001048,
      "v": 80
    },
    {
      "midi": 35,
      "hit": false,
      "t": 169047.4500000006,
      "d": 317.45999999999185,
      "v": 100
    },
    {
      "midi": 54,
      "hit": false,
      "t": 169166.49749999613,
      "d": 79.36499999999069,
      "v": 50
    },
    {
      "midi": 87,
      "hit": false,
      "t": 169230.9815625,
      "d": 203.3728125000198,
      "v": 64
    },
    {
      "midi": 54,
      "hit": false,
      "t": 169285.5449999961,
      "d": 79.36499999999069,
      "v": 50
    },
    {
      "midi": 41,
      "hit": false,
      "t": 169285.54499999998,
      "d": 158.73000000001048,
      "v": 80
    },
    {
      "midi": 54,
      "hit": false,
      "t": 169404.5924999961,
      "d": 79.36499999999069,
      "v": 50
    },
    {
      "midi": 94,
      "hit": false,
      "t": 169464.11625000002,
      "d": 1284.7209375000093,
      "v": 64
    },
    {
      "midi": 54,
      "hit": false,
      "t": 169523.63999999608,
      "d": 79.36499999999069,
      "v": 50
    },
    {
      "midi": 35,
      "hit": false,
      "t": 169523.6400000006,
      "d": 317.45999999999185,
      "v": 100
    },
    {
      "midi": 54,
      "hit": false,
      "t": 169642.68749999607,
      "d": 79.36499999999069,
      "v": 50
    },
    {
      "midi": 54,
      "hit": false,
      "t": 169761.73499999606,
      "d": 79.36499999999069,
      "v": 50
    },
    {
      "midi": 37,
      "hit": false,
      "t": 169761.73499999964,
      "d": 79.36499999999069,
      "v": 80
    },
    {
      "midi": 54,
      "hit": false,
      "t": 169880.78249999604,
      "d": 79.36499999999069,
      "v": 50
    },
    {
      "midi": 37,
      "hit": false,
      "t": 169880.78249999962,
      "d": 79.36499999999069,
      "v": 80
    },
    {
      "midi": 54,
      "hit": false,
      "t": 169999.82999999603,
      "d": 79.36499999999069,
      "v": 50
    },
    {
      "midi": 37,
      "hit": false,
      "t": 169999.8299999996,
      "d": 79.36499999999069,
      "v": 80
    },
    {
      "midi": 35,
      "hit": false,
      "t": 169999.8300000006,
      "d": 317.45999999999185,
      "v": 100
    },
    {
      "midi": 54,
      "hit": false,
      "t": 170118.87749999602,
      "d": 79.36499999999069,
      "v": 50
    },
    {
      "midi": 37,
      "hit": false,
      "t": 170118.8774999996,
      "d": 79.36499999999069,
      "v": 80
    },
    {
      "midi": 37,
      "hit": false,
      "t": 170232.9646874996,
      "d": 158.73000000001048,
      "v": 80
    },
    {
      "midi": 54,
      "hit": false,
      "t": 170237.924999996,
      "d": 79.36499999999069,
      "v": 50
    },
    {
      "midi": 54,
      "hit": false,
      "t": 170356.972499996,
      "d": 79.36499999999069,
      "v": 50
    },
    {
      "midi": 54,
      "hit": false,
      "t": 170476.01999999597,
      "d": 79.36499999999069,
      "v": 50
    },
    {
      "midi": 37,
      "hit": false,
      "t": 170476.0199999996,
      "d": 158.73000000001048,
      "v": 80
    },
    {
      "midi": 35,
      "hit": false,
      "t": 170476.0200000006,
      "d": 317.45999999999185,
      "v": 100
    },
    {
      "midi": 63,
      "hit": false,
      "t": 170476.0200000007,
      "d": 218.2537500000035,
      "v": 127
    },
    {
      "midi": 54,
      "hit": false,
      "t": 170595.06749999596,
      "d": 79.36499999999069,
      "v": 50
    },
    {
      "midi": 65,
      "hit": false,
      "t": 170709.1546875007,
      "d": 218.2537500000035,
      "v": 127
    },
    {
      "midi": 54,
      "hit": false,
      "t": 170714.11499999595,
      "d": 79.36499999999069,
      "v": 50
    },
    {
      "midi": 37,
      "hit": false,
      "t": 170714.1149999996,
      "d": 158.73000000001048,
      "v": 80
    },
    {
      "midi": 54,
      "hit": false,
      "t": 170833.16249999593,
      "d": 79.36499999999069,
      "v": 50
    },
    {
      "midi": 54,
      "hit": false,
      "t": 170952.20999999592,
      "d": 79.36499999999069,
      "v": 50
    },
    {
      "midi": 37,
      "hit": false,
      "t": 170952.2099999996,
      "d": 158.73000000001048,
      "v": 80
    },
    {
      "midi": 35,
      "hit": false,
      "t": 170952.2100000006,
      "d": 317.45999999999185,
      "v": 100
    },
    {
      "midi": 67,
      "hit": false,
      "t": 170952.21000000072,
      "d": 218.2537500000035,
      "v": 127
    },
    {
      "midi": 54,
      "hit": false,
      "t": 171071.2574999959,
      "d": 79.36499999999069,
      "v": 50
    },
    {
      "midi": 65,
      "hit": false,
      "t": 171185.34468750074,
      "d": 436.507500000007,
      "v": 127
    },
    {
      "midi": 54,
      "hit": false,
      "t": 171190.3049999959,
      "d": 79.36499999999069,
      "v": 50
    },
    {
      "midi": 54,
      "hit": false,
      "t": 171309.35249999588,
      "d": 79.36499999999069,
      "v": 50
    },
    {
      "midi": 54,
      "hit": false,
      "t": 171428.39999999586,
      "d": 79.36499999999069,
      "v": 50
    },
    {
      "midi": 35,
      "hit": false,
      "t": 171428.4000000006,
      "d": 317.45999999999185,
      "v": 100
    },
    {
      "midi": 54,
      "hit": false,
      "t": 171547.44749999585,
      "d": 79.36499999999069,
      "v": 50
    },
    {
      "midi": 63,
      "hit": false,
      "t": 171661.53468750074,
      "d": 158.73000000001048,
      "v": 127
    },
    {
      "midi": 54,
      "hit": false,
      "t": 171666.49499999583,
      "d": 79.36499999999069,
      "v": 50
    },
    {
      "midi": 37,
      "hit": false,
      "t": 171666.49499999962,
      "d": 79.36499999999069,
      "v": 80
    },
    {
      "midi": 54,
      "hit": false,
      "t": 171785.54249999582,
      "d": 79.36499999999069,
      "v": 50
    },
    {
      "midi": 37,
      "hit": false,
      "t": 171785.5424999996,
      "d": 79.36499999999069,
      "v": 80
    },
    {
      "midi": 54,
      "hit": false,
      "t": 171904.5899999958,
      "d": 79.36499999999069,
      "v": 50
    },
    {
      "midi": 37,
      "hit": false,
      "t": 171904.5899999996,
      "d": 79.36499999999069,
      "v": 80
    },
    {
      "midi": 35,
      "hit": false,
      "t": 171904.5900000006,
      "d": 317.45999999999185,
      "v": 100
    },
    {
      "midi": 63,
      "hit": false,
      "t": 171904.59000000075,
      "d": 1428.570000000007,
      "v": 127
    },
    {
      "midi": 54,
      "hit": false,
      "t": 172023.6374999958,
      "d": 79.36499999999069,
      "v": 50
    },
    {
      "midi": 37,
      "hit": false,
      "t": 172023.63749999958,
      "d": 79.36499999999069,
      "v": 80
    },
    {
      "midi": 37,
      "hit": false,
      "t": 172137.72468749958,
      "d": 158.73000000001048,
      "v": 80
    },
    {
      "midi": 54,
      "hit": false,
      "t": 172142.68499999578,
      "d": 79.36499999999069,
      "v": 50
    },
    {
      "midi": 54,
      "hit": false,
      "t": 172261.73249999576,
      "d": 79.36499999999069,
      "v": 50
    },
    {
      "midi": 54,
      "hit": false,
      "t": 172380.77999999575,
      "d": 79.36499999999069,
      "v": 50
    },
    {
      "midi": 37,
      "hit": false,
      "t": 172380.7799999996,
      "d": 158.73000000001048,
      "v": 80
    },
    {
      "midi": 35,
      "hit": false,
      "t": 172380.7800000006,
      "d": 317.45999999999185,
      "v": 100
    },
    {
      "midi": 54,
      "hit": false,
      "t": 172499.82749999574,
      "d": 79.36499999999069,
      "v": 50
    },
    {
      "midi": 87,
      "hit": false,
      "t": 172608.95437500003,
      "d": 277.7774999999965,
      "v": 64
    },
    {
      "midi": 54,
      "hit": false,
      "t": 172618.87499999572,
      "d": 79.36499999999069,
      "v": 50
    },
    {
      "midi": 37,
      "hit": false,
      "t": 172618.8749999996,
      "d": 158.73000000001048,
      "v": 80
    },
    {
      "midi": 48,
      "hit": false,
      "t": 172618.875,
      "d": 158.73000000001048,
      "v": 80
    },
    {
      "midi": 54,
      "hit": false,
      "t": 172737.9224999957,
      "d": 79.36499999999069,
      "v": 50
    },
    {
      "midi": 84,
      "hit": false,
      "t": 172837.12875000003,
      "d": 238.09500000000116,
      "v": 64
    },
    {
      "midi": 54,
      "hit": false,
      "t": 172856.9699999957,
      "d": 79.36499999999069,
      "v": 50
    },
    {
      "midi": 37,
      "hit": false,
      "t": 172856.9699999996,
      "d": 158.73000000001048,
      "v": 80
    },
    {
      "midi": 45,
      "hit": false,
      "t": 172856.96999999994,
      "d": 158.73000000001048,
      "v": 80
    },
    {
      "midi": 35,
      "hit": false,
      "t": 172856.9700000006,
      "d": 317.45999999999185,
      "v": 100
    },
    {
      "midi": 54,
      "hit": false,
      "t": 172976.01749999568,
      "d": 79.36499999999069,
      "v": 50
    },
    {
      "midi": 94,
      "hit": false,
      "t": 173085.14437500003,
      "d": 1423.609687499993,
      "v": 64
    },
    {
      "midi": 54,
      "hit": false,
      "t": 173095.06499999567,
      "d": 79.36499999999069,
      "v": 50
    },
    {
      "midi": 41,
      "hit": false,
      "t": 173095.065,
      "d": 158.73000000001048,
      "v": 80
    },
    {
      "midi": 54,
      "hit": false,
      "t": 173214.11249999565,
      "d": 79.36499999999069,
      "v": 50
    },
    {
      "midi": 54,
      "hit": false,
      "t": 173333.15999999564,
      "d": 79.36499999999069,
      "v": 50
    },
    {
      "midi": 35,
      "hit": false,
      "t": 173333.16000000061,
      "d": 317.45999999999185,
      "v": 100
    },
    {
      "midi": 54,
      "hit": false,
      "t": 173452.20749999562,
      "d": 79.36499999999069,
      "v": 50
    },
    {
      "midi": 70,
      "hit": false,
      "t": 173566.29468750075,
      "d": 218.2537500000035,
      "v": 127
    },
    {
      "midi": 54,
      "hit": false,
      "t": 173571.2549999956,
      "d": 79.36499999999069,
      "v": 50
    },
    {
      "midi": 37,
      "hit": false,
      "t": 173571.2549999996,
      "d": 79.36499999999069,
      "v": 80
    },
    {
      "midi": 54,
      "hit": false,
      "t": 173690.3024999956,
      "d": 79.36499999999069,
      "v": 50
    },
    {
      "midi": 37,
      "hit": false,
      "t": 173690.30249999958,
      "d": 79.36499999999069,
      "v": 80
    },
    {
      "midi": 54,
      "hit": false,
      "t": 173809.34999999558,
      "d": 79.36499999999069,
      "v": 50
    },
    {
      "midi": 37,
      "hit": false,
      "t": 173809.34999999957,
      "d": 79.36499999999069,
      "v": 80
    },
    {
      "midi": 35,
      "hit": false,
      "t": 173809.35000000062,
      "d": 317.45999999999185,
      "v": 100
    },
    {
      "midi": 54,
      "hit": false,
      "t": 173928.39749999557,
      "d": 79.36499999999069,
      "v": 50
    },
    {
      "midi": 37,
      "hit": false,
      "t": 173928.39749999956,
      "d": 79.36499999999069,
      "v": 80
    },
    {
      "midi": 37,
      "hit": false,
      "t": 174042.48468749956,
      "d": 158.73000000001048,
      "v": 80
    },
    {
      "midi": 70,
      "hit": false,
      "t": 174042.48468750075,
      "d": 158.73000000001048,
      "v": 127
    },
    {
      "midi": 54,
      "hit": false,
      "t": 174047.44499999555,
      "d": 79.36499999999069,
      "v": 50
    },
    {
      "midi": 54,
      "hit": false,
      "t": 174166.49249999554,
      "d": 79.36499999999069,
      "v": 50
    },
    {
      "midi": 54,
      "hit": false,
      "t": 174285.53999999553,
      "d": 79.36499999999069,
      "v": 50
    },
    {
      "midi": 37,
      "hit": false,
      "t": 174285.53999999957,
      "d": 158.73000000001048,
      "v": 80
    },
    {
      "midi": 35,
      "hit": false,
      "t": 174285.54000000062,
      "d": 317.45999999999185,
      "v": 100
    },
    {
      "midi": 70,
      "hit": false,
      "t": 174310.34156250075,
      "d": 312.499687500007,
      "v": 127
    },
    {
      "midi": 54,
      "hit": false,
      "t": 174404.5874999955,
      "d": 79.36499999999069,
      "v": 50
    },
    {
      "midi": 54,
      "hit": false,
      "t": 174523.6349999955,
      "d": 79.36499999999069,
      "v": 50
    },
    {
      "midi": 37,
      "hit": false,
      "t": 174523.63499999957,
      "d": 158.73000000001048,
      "v": 80
    },
    {
      "midi": 54,
      "hit": false,
      "t": 174642.68249999548,
      "d": 79.36499999999069,
      "v": 50
    },
    {
      "midi": 72,
      "hit": false,
      "t": 174667.48406250076,
      "d": 213.29343749998952,
      "v": 127
    },
    {
      "midi": 54,
      "hit": false,
      "t": 174761.72999999547,
      "d": 79.36499999999069,
      "v": 50
    },
    {
      "midi": 37,
      "hit": false,
      "t": 174761.72999999957,
      "d": 158.73000000001048,
      "v": 80
    },
    {
      "midi": 35,
      "hit": false,
      "t": 174761.73000000062,
      "d": 317.45999999999185,
      "v": 100
    },
    {
      "midi": 54,
      "hit": false,
      "t": 174880.77749999546,
      "d": 79.36499999999069,
      "v": 50
    },
    {
      "midi": 63,
      "hit": false,
      "t": 174994.86468750075,
      "d": 2058.529687500006,
      "v": 127
    },
    {
      "midi": 54,
      "hit": false,
      "t": 174999.82499999544,
      "d": 79.36499999999069,
      "v": 50
    },
    {
      "midi": 54,
      "hit": false,
      "t": 175118.87249999543,
      "d": 79.36499999999069,
      "v": 50
    },
    {
      "midi": 54,
      "hit": false,
      "t": 175237.9199999954,
      "d": 79.36499999999069,
      "v": 50
    },
    {
      "midi": 65,
      "hit": false,
      "t": 175237.92000000016,
      "d": 947.4196874999907,
      "v": 50
    },
    {
      "midi": 35,
      "hit": false,
      "t": 175237.92000000062,
      "d": 317.45999999999185,
      "v": 100
    },
    {
      "midi": 54,
      "hit": false,
      "t": 175356.9674999954,
      "d": 79.36499999999069,
      "v": 50
    },
    {
      "midi": 54,
      "hit": false,
      "t": 175476.0149999954,
      "d": 79.36499999999069,
      "v": 50
    },
    {
      "midi": 37,
      "hit": false,
      "t": 175476.01499999958,
      "d": 79.36499999999069,
      "v": 80
    },
    {
      "midi": 48,
      "hit": false,
      "t": 175476.015,
      "d": 158.73000000001048,
      "v": 80
    },
    {
      "midi": 54,
      "hit": false,
      "t": 175595.06249999537,
      "d": 79.36499999999069,
      "v": 50
    },
    {
      "midi": 37,
      "hit": false,
      "t": 175595.06249999956,
      "d": 79.36499999999069,
      "v": 80
    },
    {
      "midi": 54,
      "hit": false,
      "t": 175714.10999999536,
      "d": 79.36499999999069,
      "v": 50
    },
    {
      "midi": 37,
      "hit": false,
      "t": 175714.10999999955,
      "d": 79.36499999999069,
      "v": 80
    },
    {
      "midi": 41,
      "hit": false,
      "t": 175714.11000000002,
      "d": 158.73000000001048,
      "v": 80
    },
    {
      "midi": 35,
      "hit": false,
      "t": 175714.11000000063,
      "d": 317.45999999999185,
      "v": 100
    },
    {
      "midi": 54,
      "hit": false,
      "t": 175833.15749999534,
      "d": 79.36499999999069,
      "v": 50
    },
    {
      "midi": 37,
      "hit": false,
      "t": 175833.15749999954,
      "d": 79.36499999999069,
      "v": 80
    },
    {
      "midi": 37,
      "hit": false,
      "t": 175947.24468749954,
      "d": 158.73000000001048,
      "v": 80
    },
    {
      "midi": 54,
      "hit": false,
      "t": 175952.20499999533,
      "d": 79.36499999999069,
      "v": 50
    },
    {
      "midi": 54,
      "hit": false,
      "t": 176071.25249999532,
      "d": 79.36499999999069,
      "v": 50
    },
    {
      "midi": 54,
      "hit": false,
      "t": 176190.2999999953,
      "d": 79.36499999999069,
      "v": 50
    },
    {
      "midi": 37,
      "hit": false,
      "t": 176190.29999999955,
      "d": 158.73000000001048,
      "v": 80
    },
    {
      "midi": 48,
      "hit": false,
      "t": 176190.30000000002,
      "d": 79.36499999999069,
      "v": 80
    },
    {
      "midi": 63,
      "hit": false,
      "t": 176190.30000000016,
      "d": 947.4196874999907,
      "v": 50
    },
    {
      "midi": 35,
      "hit": false,
      "t": 176190.30000000063,
      "d": 317.45999999999185,
      "v": 100
    },
    {
      "midi": 54,
      "hit": false,
      "t": 176309.3474999953,
      "d": 79.36499999999069,
      "v": 50
    },
    {
      "midi": 48,
      "hit": false,
      "t": 176309.3475,
      "d": 79.36499999999069,
      "v": 80
    },
    {
      "midi": 54,
      "hit": false,
      "t": 176428.39499999527,
      "d": 79.36499999999069,
      "v": 50
    },
    {
      "midi": 37,
      "hit": false,
      "t": 176428.39499999955,
      "d": 158.73000000001048,
      "v": 80
    },
    {
      "midi": 45,
      "hit": false,
      "t": 176428.39499999996,
      "d": 158.73000000001048,
      "v": 80
    },
    {
      "midi": 54,
      "hit": false,
      "t": 176547.44249999526,
      "d": 79.36499999999069,
      "v": 50
    },
    {
      "midi": 54,
      "hit": false,
      "t": 176666.48999999525,
      "d": 79.36499999999069,
      "v": 50
    },
    {
      "midi": 37,
      "hit": false,
      "t": 176666.48999999955,
      "d": 158.73000000001048,
      "v": 80
    },
    {
      "midi": 70,
      "hit": false,
      "t": 176666.48999999996,
      "d": 1904.7600000000093,
      "v": 64
    },
    {
      "midi": 41,
      "hit": false,
      "t": 176666.49000000002,
      "d": 158.73000000001048,
      "v": 80
    },
    {
      "midi": 35,
      "hit": false,
      "t": 176666.49000000063,
      "d": 317.45999999999185,
      "v": 100
    },
    {
      "midi": 54,
      "hit": false,
      "t": 176785.53749999523,
      "d": 79.36499999999069,
      "v": 50
    },
    {
      "midi": 54,
      "hit": false,
      "t": 176904.58499999522,
      "d": 79.36499999999069,
      "v": 50
    },
    {
      "midi": 41,
      "hit": false,
      "t": 176904.58500000002,
      "d": 158.73000000001048,
      "v": 80
    },
    {
      "midi": 54,
      "hit": false,
      "t": 177023.6324999952,
      "d": 79.36499999999069,
      "v": 50
    },
    {
      "midi": 54,
      "hit": false,
      "t": 177142.6799999952,
      "d": 79.36499999999069,
      "v": 50
    },
    {
      "midi": 35,
      "hit": false,
      "t": 177142.68000000063,
      "d": 317.45999999999185,
      "v": 100
    },
    {
      "midi": 54,
      "hit": false,
      "t": 177261.72749999518,
      "d": 79.36499999999069,
      "v": 50
    },
    {
      "midi": 54,
      "hit": false,
      "t": 177380.77499999516,
      "d": 79.36499999999069,
      "v": 50
    },
    {
      "midi": 37,
      "hit": false,
      "t": 177380.77499999956,
      "d": 79.36499999999069,
      "v": 80
    },
    {
      "midi": 54,
      "hit": false,
      "t": 177499.82249999515,
      "d": 79.36499999999069,
      "v": 50
    },
    {
      "midi": 37,
      "hit": false,
      "t": 177499.82249999954,
      "d": 79.36499999999069,
      "v": 80
    },
    {
      "midi": 54,
      "hit": false,
      "t": 177618.86999999514,
      "d": 79.36499999999069,
      "v": 50
    },
    {
      "midi": 37,
      "hit": false,
      "t": 177618.86999999953,
      "d": 79.36499999999069,
      "v": 80
    },
    {
      "midi": 35,
      "hit": false,
      "t": 177618.87000000064,
      "d": 317.45999999999185,
      "v": 100
    },
    {
      "midi": 54,
      "hit": false,
      "t": 177737.91749999512,
      "d": 79.36499999999069,
      "v": 50
    },
    {
      "midi": 37,
      "hit": false,
      "t": 177737.91749999952,
      "d": 79.36499999999069,
      "v": 80
    },
    {
      "midi": 37,
      "hit": false,
      "t": 177852.00468749952,
      "d": 158.73000000001048,
      "v": 80
    },
    {
      "midi": 54,
      "hit": false,
      "t": 177856.9649999951,
      "d": 79.36499999999069,
      "v": 50
    },
    {
      "midi": 54,
      "hit": false,
      "t": 177976.0124999951,
      "d": 79.36499999999069,
      "v": 50
    },
    {
      "midi": 54,
      "hit": false,
      "t": 178095.05999999508,
      "d": 79.36499999999069,
      "v": 50
    },
    {
      "midi": 37,
      "hit": false,
      "t": 178095.05999999953,
      "d": 158.73000000001048,
      "v": 80
    },
    {
      "midi": 35,
      "hit": false,
      "t": 178095.06000000064,
      "d": 317.45999999999185,
      "v": 100
    },
    {
      "midi": 54,
      "hit": false,
      "t": 178214.10749999507,
      "d": 79.36499999999069,
      "v": 50
    },
    {
      "midi": 54,
      "hit": false,
      "t": 178333.15499999505,
      "d": 79.36499999999069,
      "v": 50
    },
    {
      "midi": 37,
      "hit": false,
      "t": 178333.15499999953,
      "d": 158.73000000001048,
      "v": 80
    },
    {
      "midi": 54,
      "hit": false,
      "t": 178452.20249999504,
      "d": 79.36499999999069,
      "v": 50
    },
    {
      "midi": 54,
      "hit": false,
      "t": 178571.24999999502,
      "d": 79.36499999999069,
      "v": 50
    },
    {
      "midi": 37,
      "hit": false,
      "t": 178571.24999999953,
      "d": 158.73000000001048,
      "v": 80
    },
    {
      "midi": 79,
      "hit": false,
      "t": 178571.24999999997,
      "d": 238.09500000000116,
      "v": 64
    },
    {
      "midi": 35,
      "hit": false,
      "t": 178571.25000000064,
      "d": 317.45999999999185,
      "v": 100
    },
    {
      "midi": 54,
      "hit": false,
      "t": 178690.297499995,
      "d": 79.36499999999069,
      "v": 50
    },
    {
      "midi": 54,
      "hit": false,
      "t": 178809.344999995,
      "d": 79.36499999999069,
      "v": 50
    },
    {
      "midi": 77,
      "hit": false,
      "t": 178809.34499999997,
      "d": 1428.570000000007,
      "v": 64
    },
    {
      "midi": 54,
      "hit": false,
      "t": 178928.39249999498,
      "d": 79.36499999999069,
      "v": 50
    },
    {
      "midi": 54,
      "hit": false,
      "t": 179047.43999999497,
      "d": 79.36499999999069,
      "v": 50
    },
    {
      "midi": 35,
      "hit": false,
      "t": 179047.44000000064,
      "d": 317.45999999999185,
      "v": 100
    },
    {
      "midi": 54,
      "hit": false,
      "t": 179166.48749999495,
      "d": 79.36499999999069,
      "v": 50
    },
    {
      "midi": 54,
      "hit": false,
      "t": 179285.53499999494,
      "d": 79.36499999999069,
      "v": 50
    },
    {
      "midi": 37,
      "hit": false,
      "t": 179285.53499999954,
      "d": 79.36499999999069,
      "v": 80
    },
    {
      "midi": 82,
      "hit": false,
      "t": 179305.37624999997,
      "d": 188.49187500000698,
      "v": 64
    },
    {
      "midi": 54,
      "hit": false,
      "t": 179404.58249999493,
      "d": 79.36499999999069,
      "v": 50
    },
    {
      "midi": 37,
      "hit": false,
      "t": 179404.58249999952,
      "d": 79.36499999999069,
      "v": 80
    },
    {
      "midi": 54,
      "hit": false,
      "t": 179523.6299999949,
      "d": 79.36499999999069,
      "v": 50
    },
    {
      "midi": 37,
      "hit": false,
      "t": 179523.6299999995,
      "d": 79.36499999999069,
      "v": 80
    },
    {
      "midi": 70,
      "hit": false,
      "t": 179523.62999999998,
      "d": 188.49187500000698,
      "v": 64
    },
    {
      "midi": 35,
      "hit": false,
      "t": 179523.63000000064,
      "d": 317.45999999999185,
      "v": 100
    },
    {
      "midi": 54,
      "hit": false,
      "t": 179642.6774999949,
      "d": 79.36499999999069,
      "v": 50
    },
    {
      "midi": 37,
      "hit": false,
      "t": 179642.6774999995,
      "d": 79.36499999999069,
      "v": 80
    },
    {
      "midi": 37,
      "hit": false,
      "t": 179756.7646874995,
      "d": 158.73000000001048,
      "v": 80
    },
    {
      "midi": 54,
      "hit": false,
      "t": 179761.72499999488,
      "d": 79.36499999999069,
      "v": 50
    },
    {
      "midi": 54,
      "hit": false,
      "t": 179880.77249999487,
      "d": 79.36499999999069,
      "v": 50
    },
    {
      "midi": 82,
      "hit": false,
      "t": 179979.97874999998,
      "d": 188.49187500000698,
      "v": 64
    },
    {
      "midi": 54,
      "hit": false,
      "t": 179999.81999999486,
      "d": 79.36499999999069,
      "v": 50
    },
    {
      "midi": 37,
      "hit": false,
      "t": 179999.8199999995,
      "d": 158.73000000001048,
      "v": 80
    },
    {
      "midi": 35,
      "hit": false,
      "t": 179999.82000000065,
      "d": 317.45999999999185,
      "v": 100
    },
    {
      "midi": 54,
      "hit": false,
      "t": 180118.86749999484,
      "d": 79.36499999999069,
      "v": 50
    },
    {
      "midi": 54,
      "hit": false,
      "t": 180237.91499999483,
      "d": 79.36499999999069,
      "v": 50
    },
    {
      "midi": 37,
      "hit": false,
      "t": 180237.9149999995,
      "d": 158.73000000001048,
      "v": 80
    },
    {
      "midi": 79,
      "hit": false,
      "t": 180237.91499999998,
      "d": 238.09500000000116,
      "v": 64
    },
    {
      "midi": 70,
      "hit": false,
      "t": 180237.91499999998,
      "d": 188.49187500000698,
      "v": 64
    },
    {
      "midi": 54,
      "hit": false,
      "t": 180356.9624999948,
      "d": 79.36499999999069,
      "v": 50
    },
    {
      "midi": 54,
      "hit": false,
      "t": 180476.0099999948,
      "d": 79.36499999999069,
      "v": 50
    },
    {
      "midi": 37,
      "hit": false,
      "t": 180476.0099999995,
      "d": 158.73000000001048,
      "v": 80
    },
    {
      "midi": 77,
      "hit": false,
      "t": 180476.00999999998,
      "d": 238.09500000000116,
      "v": 64
    },
    {
      "midi": 35,
      "hit": false,
      "t": 180476.01000000065,
      "d": 317.45999999999185,
      "v": 100
    },
    {
      "midi": 54,
      "hit": false,
      "t": 180595.0574999948,
      "d": 79.36499999999069,
      "v": 50
    },
    {
      "midi": 54,
      "hit": false,
      "t": 180714.10499999477,
      "d": 79.36499999999069,
      "v": 50
    },
    {
      "midi": 75,
      "hit": false,
      "t": 180714.10499999998,
      "d": 952.3800000000047,
      "v": 64
    },
    {
      "midi": 54,
      "hit": false,
      "t": 180833.15249999476,
      "d": 79.36499999999069,
      "v": 50
    },
    {
      "midi": 54,
      "hit": false,
      "t": 180952.19999999474,
      "d": 79.36499999999069,
      "v": 50
    },
    {
      "midi": 35,
      "hit": false,
      "t": 180952.20000000065,
      "d": 317.45999999999185,
      "v": 100
    },
    {
      "midi": 54,
      "hit": false,
      "t": 181071.24749999473,
      "d": 79.36499999999069,
      "v": 50
    },
    {
      "midi": 54,
      "hit": false,
      "t": 181190.29499999472,
      "d": 79.36499999999069,
      "v": 50
    },
    {
      "midi": 37,
      "hit": false,
      "t": 181190.29499999952,
      "d": 79.36499999999069,
      "v": 80
    },
    {
      "midi": 54,
      "hit": false,
      "t": 181309.3424999947,
      "d": 79.36499999999069,
      "v": 50
    },
    {
      "midi": 37,
      "hit": false,
      "t": 181309.3424999995,
      "d": 79.36499999999069,
      "v": 80
    },
    {
      "midi": 54,
      "hit": false,
      "t": 181428.3899999947,
      "d": 79.36499999999069,
      "v": 50
    },
    {
      "midi": 37,
      "hit": false,
      "t": 181428.3899999995,
      "d": 79.36499999999069,
      "v": 80
    },
    {
      "midi": 35,
      "hit": false,
      "t": 181428.39000000065,
      "d": 317.45999999999185,
      "v": 100
    },
    {
      "midi": 54,
      "hit": false,
      "t": 181547.43749999467,
      "d": 79.36499999999069,
      "v": 50
    },
    {
      "midi": 37,
      "hit": false,
      "t": 181547.43749999948,
      "d": 79.36499999999069,
      "v": 80
    },
    {
      "midi": 37,
      "hit": false,
      "t": 181661.52468749948,
      "d": 158.73000000001048,
      "v": 80
    },
    {
      "midi": 54,
      "hit": false,
      "t": 181666.48499999466,
      "d": 79.36499999999069,
      "v": 50
    },
    {
      "midi": 72,
      "hit": false,
      "t": 181666.485,
      "d": 238.09500000000116,
      "v": 64
    },
    {
      "midi": 54,
      "hit": false,
      "t": 181785.53249999465,
      "d": 79.36499999999069,
      "v": 50
    },
    {
      "midi": 54,
      "hit": false,
      "t": 181904.57999999463,
      "d": 79.36499999999069,
      "v": 50
    },
    {
      "midi": 37,
      "hit": false,
      "t": 181904.5799999995,
      "d": 158.73000000001048,
      "v": 80
    },
    {
      "midi": 75,
      "hit": false,
      "t": 181904.58,
      "d": 158.73000000001048,
      "v": 64
    },
    {
      "midi": 35,
      "hit": false,
      "t": 181904.58000000066,
      "d": 317.45999999999185,
      "v": 100
    },
    {
      "midi": 54,
      "hit": false,
      "t": 182023.62749999462,
      "d": 79.36499999999069,
      "v": 50
    },
    {
      "midi": 54,
      "hit": false,
      "t": 182142.6749999946,
      "d": 79.36499999999069,
      "v": 50
    },
    {
      "midi": 37,
      "hit": false,
      "t": 182142.6749999995,
      "d": 158.73000000001048,
      "v": 80
    },
    {
      "midi": 75,
      "hit": false,
      "t": 182142.675,
      "d": 476.1900000000023,
      "v": 64
    },
    {
      "midi": 54,
      "hit": false,
      "t": 182261.7224999946,
      "d": 79.36499999999069,
      "v": 50
    },
    {
      "midi": 54,
      "hit": false,
      "t": 182380.76999999458,
      "d": 79.36499999999069,
      "v": 50
    },
    {
      "midi": 37,
      "hit": false,
      "t": 182380.7699999995,
      "d": 158.73000000001048,
      "v": 80
    },
    {
      "midi": 35,
      "hit": false,
      "t": 182380.77000000066,
      "d": 317.45999999999185,
      "v": 100
    },
    {
      "midi": 54,
      "hit": false,
      "t": 182499.81749999456,
      "d": 79.36499999999069,
      "v": 50
    },
    {
      "midi": 54,
      "hit": false,
      "t": 182618.86499999455,
      "d": 79.36499999999069,
      "v": 50
    },
    {
      "midi": 77,
      "hit": false,
      "t": 182618.865,
      "d": 1904.7600000000093,
      "v": 64
    },
    {
      "midi": 54,
      "hit": false,
      "t": 182737.91249999453,
      "d": 79.36499999999069,
      "v": 50
    },
    {
      "midi": 54,
      "hit": false,
      "t": 182856.95999999452,
      "d": 79.36499999999069,
      "v": 50
    },
    {
      "midi": 35,
      "hit": false,
      "t": 182856.96000000066,
      "d": 317.45999999999185,
      "v": 100
    },
    {
      "midi": 54,
      "hit": false,
      "t": 182976.0074999945,
      "d": 79.36499999999069,
      "v": 50
    },
    {
      "midi": 54,
      "hit": false,
      "t": 183095.0549999945,
      "d": 79.36499999999069,
      "v": 50
    },
    {
      "midi": 37,
      "hit": false,
      "t": 183095.0549999995,
      "d": 79.36499999999069,
      "v": 80
    },
    {
      "midi": 82,
      "hit": false,
      "t": 183114.89625,
      "d": 188.49187500000698,
      "v": 64
    },
    {
      "midi": 54,
      "hit": false,
      "t": 183214.10249999448,
      "d": 79.36499999999069,
      "v": 50
    },
    {
      "midi": 37,
      "hit": false,
      "t": 183214.10249999948,
      "d": 79.36499999999069,
      "v": 80
    },
    {
      "midi": 54,
      "hit": false,
      "t": 183333.14999999446,
      "d": 79.36499999999069,
      "v": 50
    },
    {
      "midi": 37,
      "hit": false,
      "t": 183333.14999999947,
      "d": 79.36499999999069,
      "v": 80
    },
    {
      "midi": 70,
      "hit": false,
      "t": 183333.15,
      "d": 188.49187500000698,
      "v": 64
    },
    {
      "midi": 35,
      "hit": false,
      "t": 183333.15000000066,
      "d": 317.45999999999185,
      "v": 100
    },
    {
      "midi": 54,
      "hit": false,
      "t": 183452.19749999445,
      "d": 79.36499999999069,
      "v": 50
    },
    {
      "midi": 37,
      "hit": false,
      "t": 183452.19749999946,
      "d": 79.36499999999069,
      "v": 80
    },
    {
      "midi": 37,
      "hit": false,
      "t": 183566.28468749946,
      "d": 158.73000000001048,
      "v": 80
    },
    {
      "midi": 54,
      "hit": false,
      "t": 183571.24499999444,
      "d": 79.36499999999069,
      "v": 50
    },
    {
      "midi": 54,
      "hit": false,
      "t": 183690.29249999442,
      "d": 79.36499999999069,
      "v": 50
    },
    {
      "midi": 82,
      "hit": false,
      "t": 183789.49875,
      "d": 188.49187500000698,
      "v": 64
    },
    {
      "midi": 54,
      "hit": false,
      "t": 183809.3399999944,
      "d": 79.36499999999069,
      "v": 50
    },
    {
      "midi": 37,
      "hit": false,
      "t": 183809.33999999947,
      "d": 158.73000000001048,
      "v": 80
    },
    {
      "midi": 35,
      "hit": false,
      "t": 183809.34000000067,
      "d": 317.45999999999185,
      "v": 100
    },
    {
      "midi": 54,
      "hit": false,
      "t": 183928.3874999944,
      "d": 79.36499999999069,
      "v": 50
    },
    {
      "midi": 54,
      "hit": false,
      "t": 184047.43499999438,
      "d": 79.36499999999069,
      "v": 50
    },
    {
      "midi": 37,
      "hit": false,
      "t": 184047.43499999947,
      "d": 158.73000000001048,
      "v": 80
    },
    {
      "midi": 70,
      "hit": false,
      "t": 184047.435,
      "d": 188.49187500000698,
      "v": 64
    },
    {
      "midi": 54,
      "hit": false,
      "t": 184166.48249999437,
      "d": 79.36499999999069,
      "v": 50
    },
    {
      "midi": 54,
      "hit": false,
      "t": 184285.52999999435,
      "d": 79.36499999999069,
      "v": 50
    },
    {
      "midi": 37,
      "hit": false,
      "t": 184285.52999999947,
      "d": 158.73000000001048,
      "v": 80
    },
    {
      "midi": 35,
      "hit": false,
      "t": 184285.53000000067,
      "d": 317.45999999999185,
      "v": 100
    },
    {
      "midi": 54,
      "hit": false,
      "t": 184404.57749999434,
      "d": 79.36499999999069,
      "v": 50
    },
    {
      "midi": 54,
      "hit": false,
      "t": 184523.62499999432,
      "d": 79.36499999999069,
      "v": 50
    },
    {
      "midi": 54,
      "hit": false,
      "t": 184642.6724999943,
      "d": 79.36499999999069,
      "v": 50
    },
    {
      "midi": 54,
      "hit": false,
      "t": 184761.7199999943,
      "d": 79.36499999999069,
      "v": 50
    },
    {
      "midi": 75,
      "hit": false,
      "t": 184761.72,
      "d": 952.3800000000047,
      "v": 64
    },
    {
      "midi": 35,
      "hit": false,
      "t": 184761.72000000067,
      "d": 317.45999999999185,
      "v": 100
    },
    {
      "midi": 54,
      "hit": false,
      "t": 184880.76749999428,
      "d": 79.36499999999069,
      "v": 50
    },
    {
      "midi": 54,
      "hit": false,
      "t": 184999.81499999427,
      "d": 79.36499999999069,
      "v": 50
    },
    {
      "midi": 37,
      "hit": false,
      "t": 184999.81499999948,
      "d": 79.36499999999069,
      "v": 80
    },
    {
      "midi": 54,
      "hit": false,
      "t": 185118.86249999425,
      "d": 79.36499999999069,
      "v": 50
    },
    {
      "midi": 37,
      "hit": false,
      "t": 185118.86249999946,
      "d": 79.36499999999069,
      "v": 80
    },
    {
      "midi": 54,
      "hit": false,
      "t": 185237.90999999424,
      "d": 79.36499999999069,
      "v": 50
    },
    {
      "midi": 37,
      "hit": false,
      "t": 185237.90999999945,
      "d": 79.36499999999069,
      "v": 80
    },
    {
      "midi": 35,
      "hit": false,
      "t": 185237.91000000067,
      "d": 317.45999999999185,
      "v": 100
    },
    {
      "midi": 54,
      "hit": false,
      "t": 185356.95749999423,
      "d": 79.36499999999069,
      "v": 50
    },
    {
      "midi": 37,
      "hit": false,
      "t": 185356.95749999944,
      "d": 79.36499999999069,
      "v": 80
    },
    {
      "midi": 37,
      "hit": false,
      "t": 185471.04468749944,
      "d": 158.73000000001048,
      "v": 80
    },
    {
      "midi": 54,
      "hit": false,
      "t": 185476.0049999942,
      "d": 79.36499999999069,
      "v": 50
    },
    {
      "midi": 54,
      "hit": false,
      "t": 185595.0524999942,
      "d": 79.36499999999069,
      "v": 50
    },
    {
      "midi": 54,
      "hit": false,
      "t": 185714.09999999419,
      "d": 79.36499999999069,
      "v": 50
    },
    {
      "midi": 37,
      "hit": false,
      "t": 185714.09999999945,
      "d": 158.73000000001048,
      "v": 80
    },
    {
      "midi": 70,
      "hit": false,
      "t": 185714.1,
      "d": 476.1900000000023,
      "v": 64
    },
    {
      "midi": 35,
      "hit": false,
      "t": 185714.10000000068,
      "d": 317.45999999999185,
      "v": 100
    },
    {
      "midi": 54,
      "hit": false,
      "t": 185833.14749999417,
      "d": 79.36499999999069,
      "v": 50
    },
    {
      "midi": 54,
      "hit": false,
      "t": 185952.19499999416,
      "d": 79.36499999999069,
      "v": 50
    },
    {
      "midi": 37,
      "hit": false,
      "t": 185952.19499999945,
      "d": 158.73000000001048,
      "v": 80
    },
    {
      "midi": 54,
      "hit": false,
      "t": 186071.24249999414,
      "d": 79.36499999999069,
      "v": 50
    },
    {
      "midi": 54,
      "hit": false,
      "t": 186190.28999999413,
      "d": 79.36499999999069,
      "v": 50
    },
    {
      "midi": 37,
      "hit": false,
      "t": 186190.28999999946,
      "d": 158.73000000001048,
      "v": 80
    },
    {
      "midi": 79,
      "hit": false,
      "t": 186190.29,
      "d": 238.09500000000116,
      "v": 64
    },
    {
      "midi": 35,
      "hit": false,
      "t": 186190.29000000068,
      "d": 317.45999999999185,
      "v": 100
    },
    {
      "midi": 54,
      "hit": false,
      "t": 186309.33749999412,
      "d": 79.36499999999069,
      "v": 50
    },
    {
      "midi": 54,
      "hit": false,
      "t": 186428.3849999941,
      "d": 79.36499999999069,
      "v": 50
    },
    {
      "midi": 77,
      "hit": false,
      "t": 186428.385,
      "d": 1428.570000000007,
      "v": 64
    },
    {
      "midi": 54,
      "hit": false,
      "t": 186547.4324999941,
      "d": 79.36499999999069,
      "v": 50
    },
    {
      "midi": 54,
      "hit": false,
      "t": 186666.47999999407,
      "d": 79.36499999999069,
      "v": 50
    },
    {
      "midi": 35,
      "hit": false,
      "t": 186666.48000000068,
      "d": 317.45999999999185,
      "v": 100
    },
    {
      "midi": 54,
      "hit": false,
      "t": 186785.52749999406,
      "d": 79.36499999999069,
      "v": 50
    },
    {
      "midi": 54,
      "hit": false,
      "t": 186904.57499999405,
      "d": 79.36499999999069,
      "v": 50
    },
    {
      "midi": 37,
      "hit": false,
      "t": 186904.57499999946,
      "d": 79.36499999999069,
      "v": 80
    },
    {
      "midi": 82,
      "hit": false,
      "t": 186924.41625,
      "d": 188.49187500000698,
      "v": 64
    },
    {
      "midi": 54,
      "hit": false,
      "t": 187023.62249999403,
      "d": 79.36499999999069,
      "v": 50
    },
    {
      "midi": 37,
      "hit": false,
      "t": 187023.62249999944,
      "d": 79.36499999999069,
      "v": 80
    },
    {
      "midi": 54,
      "hit": false,
      "t": 187142.66999999402,
      "d": 79.36499999999069,
      "v": 50
    },
    {
      "midi": 37,
      "hit": false,
      "t": 187142.66999999943,
      "d": 79.36499999999069,
      "v": 80
    },
    {
      "midi": 70,
      "hit": false,
      "t": 187142.67,
      "d": 188.49187500000698,
      "v": 64
    },
    {
      "midi": 35,
      "hit": false,
      "t": 187142.67000000068,
      "d": 317.45999999999185,
      "v": 100
    },
    {
      "midi": 54,
      "hit": false,
      "t": 187261.717499994,
      "d": 79.36499999999069,
      "v": 50
    },
    {
      "midi": 37,
      "hit": false,
      "t": 187261.71749999942,
      "d": 79.36499999999069,
      "v": 80
    },
    {
      "midi": 37,
      "hit": false,
      "t": 187375.80468749942,
      "d": 158.73000000001048,
      "v": 80
    },
    {
      "midi": 54,
      "hit": false,
      "t": 187380.764999994,
      "d": 79.36499999999069,
      "v": 50
    },
    {
      "midi": 54,
      "hit": false,
      "t": 187499.81249999398,
      "d": 79.36499999999069,
      "v": 50
    },
    {
      "midi": 82,
      "hit": false,
      "t": 187599.01875000002,
      "d": 188.49187500000698,
      "v": 64
    },
    {
      "midi": 54,
      "hit": false,
      "t": 187618.85999999396,
      "d": 79.36499999999069,
      "v": 50
    },
    {
      "midi": 37,
      "hit": false,
      "t": 187618.85999999943,
      "d": 158.73000000001048,
      "v": 80
    },
    {
      "midi": 35,
      "hit": false,
      "t": 187618.86000000068,
      "d": 317.45999999999185,
      "v": 100
    },
    {
      "midi": 54,
      "hit": false,
      "t": 187737.90749999395,
      "d": 79.36499999999069,
      "v": 50
    },
    {
      "midi": 54,
      "hit": false,
      "t": 187856.95499999393,
      "d": 79.36499999999069,
      "v": 50
    },
    {
      "midi": 37,
      "hit": false,
      "t": 187856.95499999943,
      "d": 158.73000000001048,
      "v": 80
    },
    {
      "midi": 77,
      "hit": false,
      "t": 187856.95500000002,
      "d": 158.73000000001048,
      "v": 64
    },
    {
      "midi": 70,
      "hit": false,
      "t": 187856.95500000002,
      "d": 188.49187500000698,
      "v": 64
    },
    {
      "midi": 54,
      "hit": false,
      "t": 187976.00249999392,
      "d": 79.36499999999069,
      "v": 50
    },
    {
      "midi": 54,
      "hit": false,
      "t": 188095.0499999939,
      "d": 79.36499999999069,
      "v": 50
    },
    {
      "midi": 37,
      "hit": false,
      "t": 188095.04999999944,
      "d": 158.73000000001048,
      "v": 80
    },
    {
      "midi": 77,
      "hit": false,
      "t": 188095.05000000002,
      "d": 238.09500000000116,
      "v": 64
    },
    {
      "midi": 35,
      "hit": false,
      "t": 188095.0500000007,
      "d": 317.45999999999185,
      "v": 100
    },
    {
      "midi": 54,
      "hit": false,
      "t": 188214.0974999939,
      "d": 79.36499999999069,
      "v": 50
    },
    {
      "midi": 54,
      "hit": false,
      "t": 188333.14499999388,
      "d": 79.36499999999069,
      "v": 50
    },
    {
      "midi": 79,
      "hit": false,
      "t": 188333.14500000002,
      "d": 238.09500000000116,
      "v": 64
    },
    {
      "midi": 54,
      "hit": false,
      "t": 188452.19249999386,
      "d": 79.36499999999069,
      "v": 50
    },
    {
      "midi": 54,
      "hit": false,
      "t": 188571.23999999385,
      "d": 79.36499999999069,
      "v": 50
    },
    {
      "midi": 80,
      "hit": false,
      "t": 188571.24000000002,
      "d": 476.1900000000023,
      "v": 64
    },
    {
      "midi": 35,
      "hit": false,
      "t": 188571.2400000007,
      "d": 317.45999999999185,
      "v": 100
    },
    {
      "midi": 54,
      "hit": false,
      "t": 188690.28749999384,
      "d": 79.36499999999069,
      "v": 50
    },
    {
      "midi": 54,
      "hit": false,
      "t": 188809.33499999382,
      "d": 79.36499999999069,
      "v": 50
    },
    {
      "midi": 37,
      "hit": false,
      "t": 188809.33499999944,
      "d": 79.36499999999069,
      "v": 80
    },
    {
      "midi": 54,
      "hit": false,
      "t": 188928.3824999938,
      "d": 79.36499999999069,
      "v": 50
    },
    {
      "midi": 37,
      "hit": false,
      "t": 188928.38249999942,
      "d": 79.36499999999069,
      "v": 80
    },
    {
      "midi": 54,
      "hit": false,
      "t": 189047.4299999938,
      "d": 79.36499999999069,
      "v": 50
    },
    {
      "midi": 37,
      "hit": false,
      "t": 189047.4299999994,
      "d": 79.36499999999069,
      "v": 80
    },
    {
      "midi": 79,
      "hit": false,
      "t": 189047.43000000002,
      "d": 238.09500000000116,
      "v": 64
    },
    {
      "midi": 35,
      "hit": false,
      "t": 189047.4300000007,
      "d": 317.45999999999185,
      "v": 100
    },
    {
      "midi": 54,
      "hit": false,
      "t": 189166.47749999378,
      "d": 79.36499999999069,
      "v": 50
    },
    {
      "midi": 37,
      "hit": false,
      "t": 189166.4774999994,
      "d": 79.36499999999069,
      "v": 80
    },
    {
      "midi": 37,
      "hit": false,
      "t": 189280.5646874994,
      "d": 158.73000000001048,
      "v": 80
    },
    {
      "midi": 54,
      "hit": false,
      "t": 189285.52499999377,
      "d": 79.36499999999069,
      "v": 50
    },
    {
      "midi": 75,
      "hit": false,
      "t": 189285.52500000002,
      "d": 476.1900000000023,
      "v": 64
    },
    {
      "midi": 54,
      "hit": false,
      "t": 189404.57249999375,
      "d": 79.36499999999069,
      "v": 50
    },
    {
      "midi": 54,
      "hit": false,
      "t": 189523.61999999374,
      "d": 79.36499999999069,
      "v": 50
    },
    {
      "midi": 37,
      "hit": false,
      "t": 189523.6199999994,
      "d": 158.73000000001048,
      "v": 80
    },
    {
      "midi": 35,
      "hit": false,
      "t": 189523.6200000007,
      "d": 317.45999999999185,
      "v": 100
    },
    {
      "midi": 54,
      "hit": false,
      "t": 189642.66749999372,
      "d": 79.36499999999069,
      "v": 50
    },
    {
      "midi": 54,
      "hit": false,
      "t": 189761.7149999937,
      "d": 79.36499999999069,
      "v": 50
    },
    {
      "midi": 37,
      "hit": false,
      "t": 189761.7149999994,
      "d": 158.73000000001048,
      "v": 80
    },
    {
      "midi": 79,
      "hit": false,
      "t": 189761.71500000003,
      "d": 476.1900000000023,
      "v": 64
    },
    {
      "midi": 54,
      "hit": false,
      "t": 189880.7624999937,
      "d": 79.36499999999069,
      "v": 50
    },
    {
      "midi": 54,
      "hit": false,
      "t": 189999.80999999368,
      "d": 79.36499999999069,
      "v": 50
    },
    {
      "midi": 37,
      "hit": false,
      "t": 189999.80999999942,
      "d": 158.73000000001048,
      "v": 80
    },
    {
      "midi": 35,
      "hit": false,
      "t": 189999.8100000007,
      "d": 317.45999999999185,
      "v": 100
    },
    {
      "midi": 54,
      "hit": false,
      "t": 190118.85749999367,
      "d": 79.36499999999069,
      "v": 50
    },
    {
      "midi": 54,
      "hit": false,
      "t": 190237.90499999365,
      "d": 79.36499999999069,
      "v": 50
    },
    {
      "midi": 77,
      "hit": false,
      "t": 190237.90500000003,
      "d": 1428.570000000007,
      "v": 64
    },
    {
      "midi": 54,
      "hit": false,
      "t": 190356.95249999364,
      "d": 79.36499999999069,
      "v": 50
    },
    {
      "midi": 54,
      "hit": false,
      "t": 190475.99999999363,
      "d": 79.36499999999069,
      "v": 50
    },
    {
      "midi": 35,
      "hit": false,
      "t": 190476.0000000007,
      "d": 317.45999999999185,
      "v": 100
    },
    {
      "midi": 54,
      "hit": false,
      "t": 190595.0474999936,
      "d": 79.36499999999069,
      "v": 50
    },
    {
      "midi": 54,
      "hit": false,
      "t": 190714.0949999936,
      "d": 79.36499999999069,
      "v": 50
    },
    {
      "midi": 37,
      "hit": false,
      "t": 190714.09499999942,
      "d": 79.36499999999069,
      "v": 80
    },
    {
      "midi": 82,
      "hit": false,
      "t": 190733.93625000003,
      "d": 188.49187500000698,
      "v": 64
    },
    {
      "midi": 54,
      "hit": false,
      "t": 190833.14249999358,
      "d": 79.36499999999069,
      "v": 50
    },
    {
      "midi": 37,
      "hit": false,
      "t": 190833.1424999994,
      "d": 79.36499999999069,
      "v": 80
    },
    {
      "midi": 54,
      "hit": false,
      "t": 190952.18999999357,
      "d": 79.36499999999069,
      "v": 50
    },
    {
      "midi": 37,
      "hit": false,
      "t": 190952.1899999994,
      "d": 79.36499999999069,
      "v": 80
    },
    {
      "midi": 70,
      "hit": false,
      "t": 190952.19000000003,
      "d": 188.49187500000698,
      "v": 64
    },
    {
      "midi": 35,
      "hit": false,
      "t": 190952.1900000007,
      "d": 317.45999999999185,
      "v": 100
    },
    {
      "midi": 54,
      "hit": false,
      "t": 191071.23749999356,
      "d": 79.36499999999069,
      "v": 50
    },
    {
      "midi": 37,
      "hit": false,
      "t": 191071.23749999938,
      "d": 79.36499999999069,
      "v": 80
    },
    {
      "midi": 37,
      "hit": false,
      "t": 191185.32468749938,
      "d": 158.73000000001048,
      "v": 80
    },
    {
      "midi": 54,
      "hit": false,
      "t": 191190.28499999354,
      "d": 79.36499999999069,
      "v": 50
    },
    {
      "midi": 54,
      "hit": false,
      "t": 191309.33249999353,
      "d": 79.36499999999069,
      "v": 50
    },
    {
      "midi": 82,
      "hit": false,
      "t": 191408.53875000004,
      "d": 188.49187500000698,
      "v": 64
    },
    {
      "midi": 54,
      "hit": false,
      "t": 191428.3799999935,
      "d": 79.36499999999069,
      "v": 50
    },
    {
      "midi": 37,
      "hit": false,
      "t": 191428.3799999994,
      "d": 158.73000000001048,
      "v": 80
    },
    {
      "midi": 35,
      "hit": false,
      "t": 191428.3800000007,
      "d": 317.45999999999185,
      "v": 100
    },
    {
      "midi": 54,
      "hit": false,
      "t": 191547.4274999935,
      "d": 79.36499999999069,
      "v": 50
    },
    {
      "midi": 54,
      "hit": false,
      "t": 191666.4749999935,
      "d": 79.36499999999069,
      "v": 50
    },
    {
      "midi": 37,
      "hit": false,
      "t": 191666.4749999994,
      "d": 158.73000000001048,
      "v": 80
    },
    {
      "midi": 70,
      "hit": false,
      "t": 191666.47500000003,
      "d": 238.09500000000116,
      "v": 64
    },
    {
      "midi": 70,
      "hit": false,
      "t": 191666.47500000003,
      "d": 188.49187500000698,
      "v": 64
    },
    {
      "midi": 54,
      "hit": false,
      "t": 191785.52249999347,
      "d": 79.36499999999069,
      "v": 50
    },
    {
      "midi": 54,
      "hit": false,
      "t": 191904.56999999346,
      "d": 79.36499999999069,
      "v": 50
    },
    {
      "midi": 37,
      "hit": false,
      "t": 191904.5699999994,
      "d": 158.73000000001048,
      "v": 80
    },
    {
      "midi": 72,
      "hit": false,
      "t": 191904.57000000004,
      "d": 238.09500000000116,
      "v": 64
    },
    {
      "midi": 35,
      "hit": false,
      "t": 191904.5700000007,
      "d": 317.45999999999185,
      "v": 100
    },
    {
      "midi": 54,
      "hit": false,
      "t": 192023.61749999344,
      "d": 79.36499999999069,
      "v": 50
    },
    {
      "midi": 54,
      "hit": false,
      "t": 192142.66499999343,
      "d": 79.36499999999069,
      "v": 50
    },
    {
      "midi": 75,
      "hit": false,
      "t": 192142.66500000004,
      "d": 1190.4750000000058,
      "v": 64
    },
    {
      "midi": 54,
      "hit": false,
      "t": 192261.71249999342,
      "d": 79.36499999999069,
      "v": 50
    },
    {
      "midi": 54,
      "hit": false,
      "t": 192380.7599999934,
      "d": 79.36499999999069,
      "v": 50
    },
    {
      "midi": 87,
      "hit": false,
      "t": 192380.76,
      "d": 714.2850000000035,
      "v": 64
    },
    {
      "midi": 35,
      "hit": false,
      "t": 192380.7600000007,
      "d": 317.45999999999185,
      "v": 100
    },
    {
      "midi": 54,
      "hit": false,
      "t": 192499.8074999934,
      "d": 79.36499999999069,
      "v": 50
    },
    {
      "midi": 54,
      "hit": false,
      "t": 192618.85499999337,
      "d": 79.36499999999069,
      "v": 50
    },
    {
      "midi": 37,
      "hit": false,
      "t": 192618.8549999994,
      "d": 79.36499999999069,
      "v": 80
    },
    {
      "midi": 54,
      "hit": false,
      "t": 192737.90249999336,
      "d": 79.36499999999069,
      "v": 50
    },
    {
      "midi": 37,
      "hit": false,
      "t": 192737.90249999939,
      "d": 79.36499999999069,
      "v": 80
    },
    {
      "midi": 54,
      "hit": false,
      "t": 192856.94999999335,
      "d": 79.36499999999069,
      "v": 50
    },
    {
      "midi": 37,
      "hit": false,
      "t": 192856.94999999937,
      "d": 79.36499999999069,
      "v": 80
    },
    {
      "midi": 35,
      "hit": false,
      "t": 192856.9500000007,
      "d": 317.45999999999185,
      "v": 100
    },
    {
      "midi": 54,
      "hit": false,
      "t": 192975.99749999333,
      "d": 79.36499999999069,
      "v": 50
    },
    {
      "midi": 37,
      "hit": false,
      "t": 192975.99749999936,
      "d": 79.36499999999069,
      "v": 80
    },
    {
      "midi": 37,
      "hit": false,
      "t": 193090.08468749936,
      "d": 158.73000000001048,
      "v": 80
    },
    {
      "midi": 54,
      "hit": false,
      "t": 193095.04499999332,
      "d": 79.36499999999069,
      "v": 50
    },
    {
      "midi": 54,
      "hit": false,
      "t": 193214.0924999933,
      "d": 79.36499999999069,
      "v": 50
    },
    {
      "midi": 54,
      "hit": false,
      "t": 193333.1399999933,
      "d": 79.36499999999069,
      "v": 50
    },
    {
      "midi": 37,
      "hit": false,
      "t": 193333.13999999937,
      "d": 158.73000000001048,
      "v": 80
    },
    {
      "midi": 87,
      "hit": false,
      "t": 193333.14,
      "d": 476.1900000000023,
      "v": 64
    },
    {
      "midi": 75,
      "hit": false,
      "t": 193333.14000000004,
      "d": 714.2850000000035,
      "v": 64
    },
    {
      "midi": 35,
      "hit": false,
      "t": 193333.1400000007,
      "d": 317.45999999999185,
      "v": 100
    },
    {
      "midi": 54,
      "hit": false,
      "t": 193452.18749999328,
      "d": 79.36499999999069,
      "v": 50
    },
    {
      "midi": 54,
      "hit": false,
      "t": 193571.23499999326,
      "d": 79.36499999999069,
      "v": 50
    },
    {
      "midi": 37,
      "hit": false,
      "t": 193571.23499999937,
      "d": 158.73000000001048,
      "v": 80
    },
    {
      "midi": 54,
      "hit": false,
      "t": 193690.28249999325,
      "d": 79.36499999999069,
      "v": 50
    },
    {
      "midi": 54,
      "hit": false,
      "t": 193809.32999999324,
      "d": 79.36499999999069,
      "v": 50
    },
    {
      "midi": 37,
      "hit": false,
      "t": 193809.32999999938,
      "d": 158.73000000001048,
      "v": 80
    },
    {
      "midi": 77,
      "hit": false,
      "t": 193809.33000000005,
      "d": 158.73000000001048,
      "v": 64
    },
    {
      "midi": 35,
      "hit": false,
      "t": 193809.33000000071,
      "d": 317.45999999999185,
      "v": 100
    },
    {
      "midi": 54,
      "hit": false,
      "t": 193928.37749999322,
      "d": 79.36499999999069,
      "v": 50
    },
    {
      "midi": 54,
      "hit": false,
      "t": 194047.4249999932,
      "d": 79.36499999999069,
      "v": 50
    },
    {
      "midi": 86,
      "hit": false,
      "t": 194047.42500000002,
      "d": 1904.7600000000093,
      "v": 64
    },
    {
      "midi": 74,
      "hit": false,
      "t": 194047.42500000005,
      "d": 2142.8550000000105,
      "v": 64
    },
    {
      "midi": 54,
      "hit": false,
      "t": 194166.4724999932,
      "d": 79.36499999999069,
      "v": 50
    },
    {
      "midi": 54,
      "hit": false,
      "t": 194285.51999999318,
      "d": 79.36499999999069,
      "v": 50
    },
    {
      "midi": 35,
      "hit": false,
      "t": 194285.52000000072,
      "d": 317.45999999999185,
      "v": 100
    },
    {
      "midi": 54,
      "hit": false,
      "t": 194404.56749999317,
      "d": 79.36499999999069,
      "v": 50
    },
    {
      "midi": 54,
      "hit": false,
      "t": 194523.61499999315,
      "d": 79.36499999999069,
      "v": 50
    },
    {
      "midi": 37,
      "hit": false,
      "t": 194523.61499999938,
      "d": 79.36499999999069,
      "v": 80
    },
    {
      "midi": 54,
      "hit": false,
      "t": 194642.66249999314,
      "d": 79.36499999999069,
      "v": 50
    },
    {
      "midi": 37,
      "hit": false,
      "t": 194642.66249999937,
      "d": 79.36499999999069,
      "v": 80
    },
    {
      "midi": 54,
      "hit": false,
      "t": 194761.70999999312,
      "d": 79.36499999999069,
      "v": 50
    },
    {
      "midi": 37,
      "hit": false,
      "t": 194761.70999999935,
      "d": 79.36499999999069,
      "v": 80
    },
    {
      "midi": 35,
      "hit": false,
      "t": 194761.71000000072,
      "d": 317.45999999999185,
      "v": 100
    },
    {
      "midi": 54,
      "hit": false,
      "t": 194880.7574999931,
      "d": 79.36499999999069,
      "v": 50
    },
    {
      "midi": 37,
      "hit": false,
      "t": 194880.75749999934,
      "d": 79.36499999999069,
      "v": 80
    },
    {
      "midi": 37,
      "hit": false,
      "t": 194994.84468749934,
      "d": 158.73000000001048,
      "v": 80
    },
    {
      "midi": 54,
      "hit": false,
      "t": 194999.8049999931,
      "d": 79.36499999999069,
      "v": 50
    },
    {
      "midi": 54,
      "hit": false,
      "t": 195118.85249999308,
      "d": 79.36499999999069,
      "v": 50
    },
    {
      "midi": 54,
      "hit": false,
      "t": 195237.89999999307,
      "d": 79.36499999999069,
      "v": 50
    },
    {
      "midi": 37,
      "hit": false,
      "t": 195237.89999999935,
      "d": 158.73000000001048,
      "v": 80
    },
    {
      "midi": 35,
      "hit": false,
      "t": 195237.90000000072,
      "d": 317.45999999999185,
      "v": 100
    },
    {
      "midi": 54,
      "hit": false,
      "t": 195356.94749999305,
      "d": 79.36499999999069,
      "v": 50
    },
    {
      "midi": 54,
      "hit": false,
      "t": 195475.99499999304,
      "d": 79.36499999999069,
      "v": 50
    },
    {
      "midi": 37,
      "hit": false,
      "t": 195475.99499999936,
      "d": 158.73000000001048,
      "v": 80
    },
    {
      "midi": 54,
      "hit": false,
      "t": 195595.04249999303,
      "d": 79.36499999999069,
      "v": 50
    },
    {
      "midi": 54,
      "hit": false,
      "t": 195714.089999993,
      "d": 79.36499999999069,
      "v": 50
    },
    {
      "midi": 37,
      "hit": false,
      "t": 195714.08999999936,
      "d": 158.73000000001048,
      "v": 80
    },
    {
      "midi": 35,
      "hit": false,
      "t": 195714.09000000072,
      "d": 317.45999999999185,
      "v": 100
    },
    {
      "midi": 54,
      "hit": false,
      "t": 195833.137499993,
      "d": 79.36499999999069,
      "v": 50
    },
    {
      "midi": 54,
      "hit": false,
      "t": 195952.18499999298,
      "d": 79.36499999999069,
      "v": 50
    },
    {
      "midi": 54,
      "hit": false,
      "t": 196071.23249999297,
      "d": 79.36499999999069,
      "v": 50
    },
    {
      "midi": 54,
      "hit": false,
      "t": 196190.27999999296,
      "d": 79.36499999999069,
      "v": 50
    },
    {
      "midi": 86,
      "hit": false,
      "t": 196190.28000000003,
      "d": 714.2850000000035,
      "v": 64
    },
    {
      "midi": 74,
      "hit": false,
      "t": 196190.28000000006,
      "d": 952.3800000000047,
      "v": 64
    },
    {
      "midi": 35,
      "hit": false,
      "t": 196190.28000000073,
      "d": 317.45999999999185,
      "v": 100
    },
    {
      "midi": 54,
      "hit": false,
      "t": 196309.32749999294,
      "d": 79.36499999999069,
      "v": 50
    },
    {
      "midi": 54,
      "hit": false,
      "t": 196428.37499999293,
      "d": 79.36499999999069,
      "v": 50
    },
    {
      "midi": 37,
      "hit": false,
      "t": 196428.37499999936,
      "d": 79.36499999999069,
      "v": 80
    },
    {
      "midi": 54,
      "hit": false,
      "t": 196547.4224999929,
      "d": 79.36499999999069,
      "v": 50
    },
    {
      "midi": 37,
      "hit": false,
      "t": 196547.42249999935,
      "d": 79.36499999999069,
      "v": 80
    },
    {
      "midi": 54,
      "hit": false,
      "t": 196666.4699999929,
      "d": 79.36499999999069,
      "v": 50
    },
    {
      "midi": 37,
      "hit": false,
      "t": 196666.46999999933,
      "d": 79.36499999999069,
      "v": 80
    },
    {
      "midi": 35,
      "hit": false,
      "t": 196666.47000000073,
      "d": 317.45999999999185,
      "v": 100
    },
    {
      "midi": 54,
      "hit": false,
      "t": 196785.5174999929,
      "d": 79.36499999999069,
      "v": 50
    },
    {
      "midi": 37,
      "hit": false,
      "t": 196785.51749999932,
      "d": 79.36499999999069,
      "v": 80
    },
    {
      "midi": 37,
      "hit": false,
      "t": 196899.60468749932,
      "d": 158.73000000001048,
      "v": 80
    },
    {
      "midi": 54,
      "hit": false,
      "t": 196904.56499999287,
      "d": 79.36499999999069,
      "v": 50
    },
    {
      "midi": 54,
      "hit": false,
      "t": 197023.61249999286,
      "d": 79.36499999999069,
      "v": 50
    },
    {
      "midi": 54,
      "hit": false,
      "t": 197142.65999999284,
      "d": 79.36499999999069,
      "v": 50
    },
    {
      "midi": 37,
      "hit": false,
      "t": 197142.65999999933,
      "d": 158.73000000001048,
      "v": 80
    },
    {
      "midi": 86,
      "hit": false,
      "t": 197142.66000000003,
      "d": 476.1900000000023,
      "v": 64
    },
    {
      "midi": 74,
      "hit": false,
      "t": 197142.66000000006,
      "d": 476.1900000000023,
      "v": 64
    },
    {
      "midi": 35,
      "hit": false,
      "t": 197142.66000000073,
      "d": 317.45999999999185,
      "v": 100
    },
    {
      "midi": 54,
      "hit": false,
      "t": 197261.70749999283,
      "d": 79.36499999999069,
      "v": 50
    },
    {
      "midi": 54,
      "hit": false,
      "t": 197380.75499999282,
      "d": 79.36499999999069,
      "v": 50
    },
    {
      "midi": 37,
      "hit": false,
      "t": 197380.75499999934,
      "d": 158.73000000001048,
      "v": 80
    },
    {
      "midi": 54,
      "hit": false,
      "t": 197499.8024999928,
      "d": 79.36499999999069,
      "v": 50
    },
    {
      "midi": 54,
      "hit": false,
      "t": 197618.8499999928,
      "d": 79.36499999999069,
      "v": 50
    },
    {
      "midi": 37,
      "hit": false,
      "t": 197618.84999999934,
      "d": 158.73000000001048,
      "v": 80
    },
    {
      "midi": 76,
      "hit": false,
      "t": 197618.85000000006,
      "d": 238.09500000000116,
      "v": 64
    },
    {
      "midi": 35,
      "hit": false,
      "t": 197618.85000000073,
      "d": 317.45999999999185,
      "v": 100
    },
    {
      "midi": 54,
      "hit": false,
      "t": 197737.89749999277,
      "d": 79.36499999999069,
      "v": 50
    },
    {
      "midi": 54,
      "hit": false,
      "t": 197856.94499999276,
      "d": 79.36499999999069,
      "v": 50
    },
    {
      "midi": 85,
      "hit": false,
      "t": 197856.94500000004,
      "d": 714.2850000000035,
      "v": 64
    },
    {
      "midi": 73,
      "hit": false,
      "t": 197856.94500000007,
      "d": 1666.6650000000081,
      "v": 64
    },
    {
      "midi": 54,
      "hit": false,
      "t": 197975.99249999275,
      "d": 79.36499999999069,
      "v": 50
    },
    {
      "midi": 54,
      "hit": false,
      "t": 198095.03999999273,
      "d": 79.36499999999069,
      "v": 50
    },
    {
      "midi": 35,
      "hit": false,
      "t": 198095.04000000074,
      "d": 317.45999999999185,
      "v": 100
    },
    {
      "midi": 54,
      "hit": false,
      "t": 198214.08749999272,
      "d": 79.36499999999069,
      "v": 50
    },
    {
      "midi": 54,
      "hit": false,
      "t": 198333.1349999927,
      "d": 79.36499999999069,
      "v": 50
    },
    {
      "midi": 37,
      "hit": false,
      "t": 198333.13499999934,
      "d": 79.36499999999069,
      "v": 80
    },
    {
      "midi": 54,
      "hit": false,
      "t": 198452.1824999927,
      "d": 79.36499999999069,
      "v": 50
    },
    {
      "midi": 37,
      "hit": false,
      "t": 198452.18249999933,
      "d": 79.36499999999069,
      "v": 80
    },
    {
      "midi": 54,
      "hit": false,
      "t": 198571.22999999268,
      "d": 79.36499999999069,
      "v": 50
    },
    {
      "midi": 37,
      "hit": false,
      "t": 198571.2299999993,
      "d": 79.36499999999069,
      "v": 80
    },
    {
      "midi": 83,
      "hit": false,
      "t": 198571.23000000004,
      "d": 476.1900000000023,
      "v": 64
    },
    {
      "midi": 35,
      "hit": false,
      "t": 198571.23000000074,
      "d": 317.45999999999185,
      "v": 100
    },
    {
      "midi": 54,
      "hit": false,
      "t": 198690.27749999266,
      "d": 79.36499999999069,
      "v": 50
    },
    {
      "midi": 37,
      "hit": false,
      "t": 198690.2774999993,
      "d": 79.36499999999069,
      "v": 80
    },
    {
      "midi": 37,
      "hit": false,
      "t": 198804.3646874993,
      "d": 158.73000000001048,
      "v": 80
    },
    {
      "midi": 54,
      "hit": false,
      "t": 198809.32499999265,
      "d": 79.36499999999069,
      "v": 50
    },
    {
      "midi": 54,
      "hit": false,
      "t": 198928.37249999263,
      "d": 79.36499999999069,
      "v": 50
    },
    {
      "midi": 54,
      "hit": false,
      "t": 199047.41999999262,
      "d": 79.36499999999069,
      "v": 50
    },
    {
      "midi": 37,
      "hit": false,
      "t": 199047.4199999993,
      "d": 158.73000000001048,
      "v": 80
    },
    {
      "midi": 81,
      "hit": false,
      "t": 199047.42000000004,
      "d": 476.1900000000023,
      "v": 64
    },
    {
      "midi": 35,
      "hit": false,
      "t": 199047.42000000074,
      "d": 317.45999999999185,
      "v": 100
    },
    {
      "midi": 54,
      "hit": false,
      "t": 199166.4674999926,
      "d": 79.36499999999069,
      "v": 50
    },
    {
      "midi": 54,
      "hit": false,
      "t": 199285.5149999926,
      "d": 79.36499999999069,
      "v": 50
    },
    {
      "midi": 37,
      "hit": false,
      "t": 199285.51499999932,
      "d": 158.73000000001048,
      "v": 80
    },
    {
      "midi": 54,
      "hit": false,
      "t": 199404.56249999258,
      "d": 79.36499999999069,
      "v": 50
    },
    {
      "midi": 54,
      "hit": false,
      "t": 199523.60999999256,
      "d": 79.36499999999069,
      "v": 50
    },
    {
      "midi": 37,
      "hit": false,
      "t": 199523.60999999932,
      "d": 158.73000000001048,
      "v": 80
    },
    {
      "midi": 69,
      "hit": false,
      "t": 199523.61,
      "d": 238.09500000000116,
      "v": 64
    },
    {
      "midi": 79,
      "hit": false,
      "t": 199523.61000000004,
      "d": 476.1900000000023,
      "v": 64
    },
    {
      "midi": 35,
      "hit": false,
      "t": 199523.61000000074,
      "d": 317.45999999999185,
      "v": 100
    },
    {
      "midi": 54,
      "hit": false,
      "t": 199642.65749999255,
      "d": 79.36499999999069,
      "v": 50
    },
    {
      "midi": 54,
      "hit": false,
      "t": 199761.70499999254,
      "d": 79.36499999999069,
      "v": 50
    },
    {
      "midi": 71,
      "hit": false,
      "t": 199761.705,
      "d": 238.09500000000116,
      "v": 64
    },
    {
      "midi": 54,
      "hit": false,
      "t": 199880.75249999252,
      "d": 79.36499999999069,
      "v": 50
    },
    {
      "midi": 71,
      "hit": false,
      "t": 199999.8,
      "d": 1904.7600000000093,
      "v": 64
    },
    {
      "midi": 35,
      "hit": false,
      "t": 199999.80000000075,
      "d": 317.45999999999185,
      "v": 100
    },
    {
      "midi": 59,
      "hit": false,
      "t": 200480.95031250076,
      "d": 436.507500000007,
      "v": 127
    },
    {
      "midi": 35,
      "hit": false,
      "t": 200952.18000000075,
      "d": 317.45999999999185,
      "v": 100
    },
    {
      "midi": 61,
      "hit": false,
      "t": 200957.14031250076,
      "d": 436.507500000007,
      "v": 127
    },
    {
      "midi": 62,
      "hit": false,
      "t": 201443.25093750076,
      "d": 436.507500000007,
      "v": 127
    },
    {
      "midi": 70,
      "hit": false,
      "t": 201904.56,
      "d": 1428.570000000007,
      "v": 64
    },
    {
      "midi": 35,
      "hit": false,
      "t": 201904.56000000075,
      "d": 317.45999999999185,
      "v": 100
    },
    {
      "midi": 66,
      "hit": false,
      "t": 201904.56000000078,
      "d": 218.2537500000035,
      "v": 127
    },
    {
      "midi": 64,
      "hit": false,
      "t": 202137.6946875008,
      "d": 218.2537500000035,
      "v": 127
    },
    {
      "midi": 62,
      "hit": false,
      "t": 202380.75000000081,
      "d": 218.2537500000035,
      "v": 127
    },
    {
      "midi": 64,
      "hit": false,
      "t": 202613.88468750083,
      "d": 1428.570000000007,
      "v": 127
    },
    {
      "midi": 35,
      "hit": false,
      "t": 202856.94000000076,
      "d": 317.45999999999185,
      "v": 100
    },
    {
      "midi": 66,
      "hit": false,
      "t": 203333.13,
      "d": 476.1900000000023,
      "v": 64
    },
    {
      "midi": 69,
      "hit": false,
      "t": 203809.32,
      "d": 1904.7600000000093,
      "v": 64
    },
    {
      "midi": 35,
      "hit": false,
      "t": 203809.32000000076,
      "d": 317.45999999999185,
      "v": 100
    },
    {
      "midi": 59,
      "hit": false,
      "t": 204285.51000000082,
      "d": 436.507500000007,
      "v": 127
    },
    {
      "midi": 35,
      "hit": false,
      "t": 204761.70000000077,
      "d": 317.45999999999185,
      "v": 100
    },
    {
      "midi": 61,
      "hit": false,
      "t": 204761.70000000083,
      "d": 436.507500000007,
      "v": 127
    },
    {
      "midi": 62,
      "hit": false,
      "t": 205237.89000000083,
      "d": 436.507500000007,
      "v": 127
    },
    {
      "midi": 68,
      "hit": false,
      "t": 205714.08000000002,
      "d": 714.2850000000035,
      "v": 64
    },
    {
      "midi": 35,
      "hit": false,
      "t": 205714.08000000077,
      "d": 317.45999999999185,
      "v": 100
    },
    {
      "midi": 66,
      "hit": false,
      "t": 205714.08000000083,
      "d": 218.2537500000035,
      "v": 127
    },
    {
      "midi": 64,
      "hit": false,
      "t": 205947.21468750085,
      "d": 218.2537500000035,
      "v": 127
    },
    {
      "midi": 62,
      "hit": false,
      "t": 206190.27000000086,
      "d": 218.2537500000035,
      "v": 127
    },
    {
      "midi": 59,
      "hit": false,
      "t": 206423.40468750088,
      "d": 778.7690625000105,
      "v": 127
    },
    {
      "midi": 66,
      "hit": false,
      "t": 206428.36500000002,
      "d": 952.3800000000047,
      "v": 64
    },
    {
      "midi": 35,
      "hit": false,
      "t": 206666.46000000078,
      "d": 317.45999999999185,
      "v": 100
    },
    {
      "midi": 59,
      "hit": false,
      "t": 207375.78468750088,
      "d": 218.2537500000035,
      "v": 127
    },
    {
      "midi": 35,
      "hit": false,
      "t": 207618.84000000078,
      "d": 317.45999999999185,
      "v": 100
    },
    {
      "midi": 66,
      "hit": false,
      "t": 207618.8400000009,
      "d": 218.2537500000035,
      "v": 127
    },
    {
      "midi": 64,
      "hit": false,
      "t": 207851.97468750092,
      "d": 218.2537500000035,
      "v": 127
    },
    {
      "midi": 35,
      "hit": false,
      "t": 208095.03000000078,
      "d": 317.45999999999185,
      "v": 100
    },
    {
      "midi": 62,
      "hit": false,
      "t": 208095.03000000093,
      "d": 436.507500000007,
      "v": 127
    },
    {
      "midi": 35,
      "hit": false,
      "t": 208571.2200000008,
      "d": 317.45999999999185,
      "v": 100
    },
    {
      "midi": 64,
      "hit": false,
      "t": 208571.22000000093,
      "d": 436.507500000007,
      "v": 127
    },
    {
      "midi": 69,
      "hit": false,
      "t": 208809.31500000003,
      "d": 238.09500000000116,
      "v": 64
    },
    {
      "midi": 71,
      "hit": false,
      "t": 209047.41000000003,
      "d": 238.09500000000116,
      "v": 64
    },
    {
      "midi": 35,
      "hit": false,
      "t": 209047.4100000008,
      "d": 317.45999999999185,
      "v": 100
    },
    {
      "midi": 76,
      "hit": false,
      "t": 209285.50500000003,
      "d": 714.2850000000035,
      "v": 64
    },
    {
      "midi": 35,
      "hit": false,
      "t": 209523.6000000008,
      "d": 317.45999999999185,
      "v": 100
    },
    {
      "midi": 37,
      "hit": false,
      "t": 209761.69499999934,
      "d": 79.36499999999069,
      "v": 80
    },
    {
      "midi": 37,
      "hit": false,
      "t": 209880.74249999932,
      "d": 79.36499999999069,
      "v": 80
    },
    {
      "midi": 37,
      "hit": false,
      "t": 209999.7899999993,
      "d": 79.36499999999069,
      "v": 80
    },
    {
      "midi": 78,
      "hit": false,
      "t": 209999.79000000004,
      "d": 238.09500000000116,
      "v": 64
    },
    {
      "midi": 35,
      "hit": false,
      "t": 209999.7900000008,
      "d": 317.45999999999185,
      "v": 100
    },
    {
      "midi": 37,
      "hit": false,
      "t": 210118.8374999993,
      "d": 79.36499999999069,
      "v": 80
    },
    {
      "midi": 37,
      "hit": false,
      "t": 210232.9246874993,
      "d": 158.73000000001048,
      "v": 80
    },
    {
      "midi": 74,
      "hit": false,
      "t": 210237.88500000004,
      "d": 952.3800000000047,
      "v": 64
    },
    {
      "midi": 37,
      "hit": false,
      "t": 210475.9799999993,
      "d": 158.73000000001048,
      "v": 80
    },
    {
      "midi": 35,
      "hit": false,
      "t": 210475.9800000008,
      "d": 317.45999999999185,
      "v": 100
    },
    {
      "midi": 37,
      "hit": false,
      "t": 210714.0749999993,
      "d": 158.73000000001048,
      "v": 80
    },
    {
      "midi": 35,
      "hit": false,
      "t": 210952.1700000008,
      "d": 317.45999999999185,
      "v": 100
    },
    {
      "midi": 59,
      "hit": false,
      "t": 211185.30468750093,
      "d": 218.2537500000035,
      "v": 127
    },
    {
      "midi": 35,
      "hit": false,
      "t": 211428.3600000008,
      "d": 317.45999999999185,
      "v": 100
    },
    {
      "midi": 66,
      "hit": false,
      "t": 211428.36000000095,
      "d": 218.2537500000035,
      "v": 127
    },
    {
      "midi": 64,
      "hit": false,
      "t": 211661.49468750096,
      "d": 218.2537500000035,
      "v": 127
    },
    {
      "midi": 35,
      "hit": false,
      "t": 211904.5500000008,
      "d": 317.45999999999185,
      "v": 100
    },
    {
      "midi": 64,
      "hit": false,
      "t": 211904.55000000098,
      "d": 218.2537500000035,
      "v": 127
    },
    {
      "midi": 62,
      "hit": false,
      "t": 212137.684687501,
      "d": 218.2537500000035,
      "v": 127
    },
    {
      "midi": 35,
      "hit": false,
      "t": 212380.7400000008,
      "d": 317.45999999999185,
      "v": 100
    },
    {
      "midi": 64,
      "hit": false,
      "t": 212380.740000001,
      "d": 292.6584375000093,
      "v": 127
    },
    {
      "midi": 62,
      "hit": false,
      "t": 212723.001562501,
      "d": 367.06312499998603,
      "v": 127
    },
    {
      "midi": 35,
      "hit": false,
      "t": 212856.9300000008,
      "d": 317.45999999999185,
      "v": 100
    },
    {
      "midi": 64,
      "hit": false,
      "t": 213134.707500001,
      "d": 1651.7840624999953,
      "v": 127
    },
    {
      "midi": 35,
      "hit": false,
      "t": 213333.1200000008,
      "d": 317.45999999999185,
      "v": 100
    },
    {
      "midi": 37,
      "hit": false,
      "t": 213571.21499999933,
      "d": 79.36499999999069,
      "v": 80
    },
    {
      "midi": 64,
      "hit": false,
      "t": 213571.21500000005,
      "d": 238.09500000000116,
      "v": 64
    },
    {
      "midi": 37,
      "hit": false,
      "t": 213690.2624999993,
      "d": 79.36499999999069,
      "v": 80
    },
    {
      "midi": 37,
      "hit": false,
      "t": 213809.3099999993,
      "d": 79.36499999999069,
      "v": 80
    },
    {
      "midi": 69,
      "hit": false,
      "t": 213809.31000000006,
      "d": 238.09500000000116,
      "v": 64
    },
    {
      "midi": 35,
      "hit": false,
      "t": 213809.3100000008,
      "d": 317.45999999999185,
      "v": 100
    },
    {
      "midi": 37,
      "hit": false,
      "t": 213928.35749999929,
      "d": 79.36499999999069,
      "v": 80
    },
    {
      "midi": 37,
      "hit": false,
      "t": 214042.4446874993,
      "d": 158.73000000001048,
      "v": 80
    },
    {
      "midi": 71,
      "hit": false,
      "t": 214047.40500000006,
      "d": 476.1900000000023,
      "v": 64
    },
    {
      "midi": 37,
      "hit": false,
      "t": 214285.4999999993,
      "d": 158.73000000001048,
      "v": 80
    },
    {
      "midi": 35,
      "hit": false,
      "t": 214285.50000000081,
      "d": 317.45999999999185,
      "v": 100
    },
    {
      "midi": 37,
      "hit": false,
      "t": 214523.5949999993,
      "d": 158.73000000001048,
      "v": 80
    },
    {
      "midi": 74,
      "hit": false,
      "t": 214523.59500000006,
      "d": 476.1900000000023,
      "v": 64
    },
    {
      "midi": 35,
      "hit": false,
      "t": 214761.69000000082,
      "d": 317.45999999999185,
      "v": 100
    },
    {
      "midi": 63,
      "hit": false,
      "t": 214994.824687501,
      "d": 476.1899999999732,
      "v": 127
    },
    {
      "midi": 75,
      "hit": false,
      "t": 214999.78500000006,
      "d": 952.3800000000047,
      "v": 64
    },
    {
      "midi": 54,
      "hit": false,
      "t": 215237.87999999252,
      "d": 79.36499999999069,
      "v": 50
    },
    {
      "midi": 82,
      "hit": false,
      "t": 215237.8800000001,
      "d": 4761.899999999994,
      "v": 64
    },
    {
      "midi": 35,
      "hit": false,
      "t": 215237.88000000082,
      "d": 317.45999999999185,
      "v": 100
    },
    {
      "midi": 54,
      "hit": false,
      "t": 215356.9274999925,
      "d": 79.36499999999069,
      "v": 50
    },
    {
      "midi": 65,
      "hit": false,
      "t": 215471.01468750098,
      "d": 218.2537500000035,
      "v": 127
    },
    {
      "midi": 54,
      "hit": false,
      "t": 215475.9749999925,
      "d": 79.36499999999069,
      "v": 50
    },
    {
      "midi": 37,
      "hit": false,
      "t": 215475.9749999993,
      "d": 79.36499999999069,
      "v": 80
    },
    {
      "midi": 54,
      "hit": false,
      "t": 215595.02249999248,
      "d": 79.36499999999069,
      "v": 50
    },
    {
      "midi": 37,
      "hit": false,
      "t": 215595.0224999993,
      "d": 79.36499999999069,
      "v": 80
    },
    {
      "midi": 54,
      "hit": false,
      "t": 215714.06999999247,
      "d": 79.36499999999069,
      "v": 50
    },
    {
      "midi": 37,
      "hit": false,
      "t": 215714.06999999928,
      "d": 79.36499999999069,
      "v": 80
    },
    {
      "midi": 35,
      "hit": false,
      "t": 215714.07000000082,
      "d": 317.45999999999185,
      "v": 100
    },
    {
      "midi": 67,
      "hit": false,
      "t": 215714.070000001,
      "d": 218.2537500000035,
      "v": 127
    },
    {
      "midi": 54,
      "hit": false,
      "t": 215833.11749999246,
      "d": 79.36499999999069,
      "v": 50
    },
    {
      "midi": 37,
      "hit": false,
      "t": 215833.11749999927,
      "d": 79.36499999999069,
      "v": 80
    },
    {
      "midi": 37,
      "hit": false,
      "t": 215947.20468749927,
      "d": 158.73000000001048,
      "v": 80
    },
    {
      "midi": 65,
      "hit": false,
      "t": 215947.204687501,
      "d": 436.507500000007,
      "v": 127
    },
    {
      "midi": 54,
      "hit": false,
      "t": 215952.16499999244,
      "d": 79.36499999999069,
      "v": 50
    },
    {
      "midi": 77,
      "hit": false,
      "t": 215952.16500000007,
      "d": 952.3800000000047,
      "v": 64
    },
    {
      "midi": 54,
      "hit": false,
      "t": 216071.21249999243,
      "d": 79.36499999999069,
      "v": 50
    },
    {
      "midi": 54,
      "hit": false,
      "t": 216190.2599999924,
      "d": 79.36499999999069,
      "v": 50
    },
    {
      "midi": 37,
      "hit": false,
      "t": 216190.25999999928,
      "d": 158.73000000001048,
      "v": 80
    },
    {
      "midi": 35,
      "hit": false,
      "t": 216190.26000000082,
      "d": 317.45999999999185,
      "v": 100
    },
    {
      "midi": 54,
      "hit": false,
      "t": 216309.3074999924,
      "d": 79.36499999999069,
      "v": 50
    },
    {
      "midi": 67,
      "hit": false,
      "t": 216423.39468750014,
      "d": 243.05531250001513,
      "v": 50
    },
    {
      "midi": 67,
      "hit": false,
      "t": 216423.39468750102,
      "d": 218.2537500000035,
      "v": 127
    },
    {
      "midi": 54,
      "hit": false,
      "t": 216428.35499999239,
      "d": 79.36499999999069,
      "v": 50
    },
    {
      "midi": 37,
      "hit": false,
      "t": 216428.35499999928,
      "d": 158.73000000001048,
      "v": 80
    },
    {
      "midi": 54,
      "hit": false,
      "t": 216547.40249999237,
      "d": 79.36499999999069,
      "v": 50
    },
    {
      "midi": 68,
      "hit": false,
      "t": 216641.64843750015,
      "d": 238.09500000000116,
      "v": 50
    },
    {
      "midi": 54,
      "hit": false,
      "t": 216666.44999999236,
      "d": 79.36499999999069,
      "v": 50
    },
    {
      "midi": 37,
      "hit": false,
      "t": 216666.44999999928,
      "d": 158.73000000001048,
      "v": 80
    },
    {
      "midi": 35,
      "hit": false,
      "t": 216666.45000000083,
      "d": 317.45999999999185,
      "v": 100
    },
    {
      "midi": 68,
      "hit": false,
      "t": 216666.45000000103,
      "d": 218.2537500000035,
      "v": 127
    },
    {
      "midi": 54,
      "hit": false,
      "t": 216785.49749999234,
      "d": 79.36499999999069,
      "v": 50
    },
    {
      "midi": 70,
      "hit": false,
      "t": 216899.58468750105,
      "d": 3075.3937499999884,
      "v": 127
    },
    {
      "midi": 54,
      "hit": false,
      "t": 216904.54499999233,
      "d": 79.36499999999069,
      "v": 50
    },
    {
      "midi": 48,
      "hit": false,
      "t": 216904.54499999998,
      "d": 158.73000000001048,
      "v": 80
    },
    {
      "midi": 82,
      "hit": false,
      "t": 216904.54500000007,
      "d": 3095.234999999986,
      "v": 64
    },
    {
      "midi": 70,
      "hit": false,
      "t": 216914.46562500016,
      "d": 3105.155625000014,
      "v": 50
    },
    {
      "midi": 82,
      "hit": false,
      "t": 216949.18781250002,
      "d": 153.7696874999965,
      "v": 64
    },
    {
      "midi": 54,
      "hit": false,
      "t": 217023.59249999232,
      "d": 79.36499999999069,
      "v": 50
    },
    {
      "midi": 54,
      "hit": false,
      "t": 217142.6399999923,
      "d": 79.36499999999069,
      "v": 50
    },
    {
      "midi": 35,
      "hit": false,
      "t": 217142.64000000083,
      "d": 317.45999999999185,
      "v": 100
    },
    {
      "midi": 54,
      "hit": false,
      "t": 217261.6874999923,
      "d": 79.36499999999069,
      "v": 50
    },
    {
      "midi": 54,
      "hit": false,
      "t": 217380.73499999227,
      "d": 79.36499999999069,
      "v": 50
    },
    {
      "midi": 37,
      "hit": false,
      "t": 217380.7349999993,
      "d": 79.36499999999069,
      "v": 80
    },
    {
      "midi": 82,
      "hit": false,
      "t": 217380.73500000002,
      "d": 173.61093749999418,
      "v": 64
    },
    {
      "midi": 54,
      "hit": false,
      "t": 217499.78249999226,
      "d": 79.36499999999069,
      "v": 50
    },
    {
      "midi": 37,
      "hit": false,
      "t": 217499.78249999927,
      "d": 79.36499999999069,
      "v": 80
    },
    {
      "midi": 54,
      "hit": false,
      "t": 217618.82999999225,
      "d": 79.36499999999069,
      "v": 50
    },
    {
      "midi": 37,
      "hit": false,
      "t": 217618.82999999926,
      "d": 79.36499999999069,
      "v": 80
    },
    {
      "midi": 70,
      "hit": false,
      "t": 217618.83000000002,
      "d": 148.80937500001164,
      "v": 64
    },
    {
      "midi": 35,
      "hit": false,
      "t": 217618.83000000083,
      "d": 317.45999999999185,
      "v": 100
    },
    {
      "midi": 54,
      "hit": false,
      "t": 217737.87749999223,
      "d": 79.36499999999069,
      "v": 50
    },
    {
      "midi": 37,
      "hit": false,
      "t": 217737.87749999925,
      "d": 79.36499999999069,
      "v": 80
    },
    {
      "midi": 37,
      "hit": false,
      "t": 217851.96468749925,
      "d": 158.73000000001048,
      "v": 80
    },
    {
      "midi": 54,
      "hit": false,
      "t": 217856.92499999222,
      "d": 79.36499999999069,
      "v": 50
    },
    {
      "midi": 48,
      "hit": false,
      "t": 217856.925,
      "d": 158.73000000001048,
      "v": 80
    },
    {
      "midi": 54,
      "hit": false,
      "t": 217975.9724999922,
      "d": 79.36499999999069,
      "v": 50
    },
    {
      "midi": 54,
      "hit": false,
      "t": 218095.0199999922,
      "d": 79.36499999999069,
      "v": 50
    },
    {
      "midi": 37,
      "hit": false,
      "t": 218095.01999999926,
      "d": 158.73000000001048,
      "v": 80
    },
    {
      "midi": 48,
      "hit": false,
      "t": 218095.02,
      "d": 158.73000000001048,
      "v": 80
    },
    {
      "midi": 82,
      "hit": false,
      "t": 218095.02000000002,
      "d": 168.6506250000093,
      "v": 64
    },
    {
      "midi": 35,
      "hit": false,
      "t": 218095.02000000083,
      "d": 317.45999999999185,
      "v": 100
    },
    {
      "midi": 54,
      "hit": false,
      "t": 218214.06749999218,
      "d": 79.36499999999069,
      "v": 50
    },
    {
      "midi": 54,
      "hit": false,
      "t": 218333.11499999216,
      "d": 79.36499999999069,
      "v": 50
    },
    {
      "midi": 37,
      "hit": false,
      "t": 218333.11499999926,
      "d": 158.73000000001048,
      "v": 80
    },
    {
      "midi": 45,
      "hit": false,
      "t": 218333.11499999996,
      "d": 158.73000000001048,
      "v": 80
    },
    {
      "midi": 70,
      "hit": false,
      "t": 218357.91656250003,
      "d": 84.32531250000466,
      "v": 64
    },
    {
      "midi": 54,
      "hit": false,
      "t": 218452.16249999215,
      "d": 79.36499999999069,
      "v": 50
    },
    {
      "midi": 54,
      "hit": false,
      "t": 218571.20999999213,
      "d": 79.36499999999069,
      "v": 50
    },
    {
      "midi": 37,
      "hit": false,
      "t": 218571.20999999926,
      "d": 158.73000000001048,
      "v": 80
    },
    {
      "midi": 35,
      "hit": false,
      "t": 218571.21000000084,
      "d": 317.45999999999185,
      "v": 100
    },
    {
      "midi": 54,
      "hit": false,
      "t": 218690.25749999212,
      "d": 79.36499999999069,
      "v": 50
    },
    {
      "midi": 54,
      "hit": false,
      "t": 218809.3049999921,
      "d": 79.36499999999069,
      "v": 50
    },
    {
      "midi": 41,
      "hit": false,
      "t": 218809.30500000002,
      "d": 158.73000000001048,
      "v": 80
    },
    {
      "midi": 94,
      "hit": false,
      "t": 218848.98750000005,
      "d": 396.82500000001164,
      "v": 64
    },
    {
      "midi": 54,
      "hit": false,
      "t": 218928.3524999921,
      "d": 79.36499999999069,
      "v": 50
    },
    {
      "midi": 54,
      "hit": false,
      "t": 219047.39999999208,
      "d": 79.36499999999069,
      "v": 50
    },
    {
      "midi": 35,
      "hit": false,
      "t": 219047.40000000084,
      "d": 317.45999999999185,
      "v": 100
    },
    {
      "midi": 54,
      "hit": false,
      "t": 219166.44749999206,
      "d": 79.36499999999069,
      "v": 50
    },
    {
      "midi": 54,
      "hit": false,
      "t": 219285.49499999205,
      "d": 79.36499999999069,
      "v": 50
    },
    {
      "midi": 37,
      "hit": false,
      "t": 219285.49499999927,
      "d": 79.36499999999069,
      "v": 80
    },
    {
      "midi": 48,
      "hit": false,
      "t": 219285.495,
      "d": 158.73000000001048,
      "v": 80
    },
    {
      "midi": 82,
      "hit": false,
      "t": 219325.17750000005,
      "d": 193.45218749999185,
      "v": 64
    },
    {
      "midi": 54,
      "hit": false,
      "t": 219404.54249999204,
      "d": 79.36499999999069,
      "v": 50
    },
    {
      "midi": 37,
      "hit": false,
      "t": 219404.54249999925,
      "d": 79.36499999999069,
      "v": 80
    },
    {
      "midi": 54,
      "hit": false,
      "t": 219523.58999999202,
      "d": 79.36499999999069,
      "v": 50
    },
    {
      "midi": 37,
      "hit": false,
      "t": 219523.58999999924,
      "d": 79.36499999999069,
      "v": 80
    },
    {
      "midi": 41,
      "hit": false,
      "t": 219523.59000000003,
      "d": 158.73000000001048,
      "v": 80
    },
    {
      "midi": 35,
      "hit": false,
      "t": 219523.59000000084,
      "d": 317.45999999999185,
      "v": 100
    },
    {
      "midi": 70,
      "hit": false,
      "t": 219558.31218750004,
      "d": 203.3728124999907,
      "v": 64
    },
    {
      "midi": 54,
      "hit": false,
      "t": 219642.637499992,
      "d": 79.36499999999069,
      "v": 50
    },
    {
      "midi": 37,
      "hit": false,
      "t": 219642.63749999923,
      "d": 79.36499999999069,
      "v": 80
    },
    {
      "midi": 37,
      "hit": false,
      "t": 219756.72468749923,
      "d": 158.73000000001048,
      "v": 80
    },
    {
      "midi": 54,
      "hit": false,
      "t": 219761.684999992,
      "d": 79.36499999999069,
      "v": 50
    },
    {
      "midi": 54,
      "hit": false,
      "t": 219880.73249999198,
      "d": 79.36499999999069,
      "v": 50
    },
    {
      "midi": 54,
      "hit": false,
      "t": 219999.77999999197,
      "d": 79.36499999999069,
      "v": 50
    },
    {
      "midi": 37,
      "hit": false,
      "t": 219999.77999999924,
      "d": 158.73000000001048,
      "v": 80
    },
    {
      "midi": 45,
      "hit": false,
      "t": 219999.77999999997,
      "d": 158.73000000001048,
      "v": 80
    },
    {
      "midi": 35,
      "hit": false,
      "t": 219999.78000000084,
      "d": 317.45999999999185,
      "v": 100
    },
    {
      "midi": 67,
      "hit": false,
      "t": 219999.78000000105,
      "d": 436.507500000007,
      "v": 127
    },
    {
      "midi": 54,
      "hit": false,
      "t": 220118.82749999195,
      "d": 79.36499999999069,
      "v": 50
    },
    {
      "midi": 54,
      "hit": false,
      "t": 220237.87499999194,
      "d": 79.36499999999069,
      "v": 50
    },
    {
      "midi": 37,
      "hit": false,
      "t": 220237.87499999924,
      "d": 158.73000000001048,
      "v": 80
    },
    {
      "midi": 45,
      "hit": false,
      "t": 220237.87499999997,
      "d": 158.73000000001048,
      "v": 80
    },
    {
      "midi": 54,
      "hit": false,
      "t": 220356.92249999192,
      "d": 79.36499999999069,
      "v": 50
    },
    {
      "midi": 54,
      "hit": false,
      "t": 220475.9699999919,
      "d": 79.36499999999069,
      "v": 50
    },
    {
      "midi": 37,
      "hit": false,
      "t": 220475.96999999924,
      "d": 158.73000000001048,
      "v": 80
    },
    {
      "midi": 45,
      "hit": false,
      "t": 220475.96999999997,
      "d": 79.36499999999069,
      "v": 80
    },
    {
      "midi": 35,
      "hit": false,
      "t": 220475.97000000085,
      "d": 317.45999999999185,
      "v": 100
    },
    {
      "midi": 68,
      "hit": false,
      "t": 220475.97000000105,
      "d": 436.507500000007,
      "v": 127
    },
    {
      "midi": 54,
      "hit": false,
      "t": 220595.0174999919,
      "d": 79.36499999999069,
      "v": 50
    },
    {
      "midi": 45,
      "hit": false,
      "t": 220595.01749999996,
      "d": 79.36499999999069,
      "v": 80
    },
    {
      "midi": 54,
      "hit": false,
      "t": 220714.06499999188,
      "d": 79.36499999999069,
      "v": 50
    },
    {
      "midi": 45,
      "hit": false,
      "t": 220714.06499999994,
      "d": 79.36499999999069,
      "v": 80
    },
    {
      "midi": 54,
      "hit": false,
      "t": 220833.11249999187,
      "d": 79.36499999999069,
      "v": 50
    },
    {
      "midi": 45,
      "hit": false,
      "t": 220833.11249999993,
      "d": 79.36499999999069,
      "v": 80
    },
    {
      "midi": 54,
      "hit": false,
      "t": 220952.15999999185,
      "d": 79.36499999999069,
      "v": 50
    },
    {
      "midi": 41,
      "hit": false,
      "t": 220952.16000000003,
      "d": 158.73000000001048,
      "v": 80
    },
    {
      "midi": 75,
      "hit": false,
      "t": 220952.16000000018,
      "d": 952.3800000000047,
      "v": 50
    },
    {
      "midi": 35,
      "hit": false,
      "t": 220952.16000000085,
      "d": 317.45999999999185,
      "v": 100
    },
    {
      "midi": 54,
      "hit": false,
      "t": 221071.20749999184,
      "d": 79.36499999999069,
      "v": 50
    },
    {
      "midi": 54,
      "hit": false,
      "t": 221190.25499999183,
      "d": 79.36499999999069,
      "v": 50
    },
    {
      "midi": 37,
      "hit": false,
      "t": 221190.25499999925,
      "d": 79.36499999999069,
      "v": 80
    },
    {
      "midi": 54,
      "hit": false,
      "t": 221309.3024999918,
      "d": 79.36499999999069,
      "v": 50
    },
    {
      "midi": 37,
      "hit": false,
      "t": 221309.30249999923,
      "d": 79.36499999999069,
      "v": 80
    },
    {
      "midi": 54,
      "hit": false,
      "t": 221428.3499999918,
      "d": 79.36499999999069,
      "v": 50
    },
    {
      "midi": 37,
      "hit": false,
      "t": 221428.34999999922,
      "d": 79.36499999999069,
      "v": 80
    },
    {
      "midi": 35,
      "hit": false,
      "t": 221428.35000000085,
      "d": 317.45999999999185,
      "v": 100
    },
    {
      "midi": 70,
      "hit": false,
      "t": 221428.35000000105,
      "d": 223.21406249998836,
      "v": 127
    },
    {
      "midi": 54,
      "hit": false,
      "t": 221547.39749999178,
      "d": 79.36499999999069,
      "v": 50
    },
    {
      "midi": 37,
      "hit": false,
      "t": 221547.3974999992,
      "d": 79.36499999999069,
      "v": 80
    },
    {
      "midi": 37,
      "hit": false,
      "t": 221661.4846874992,
      "d": 158.73000000001048,
      "v": 80
    },
    {
      "midi": 54,
      "hit": false,
      "t": 221666.44499999177,
      "d": 79.36499999999069,
      "v": 50
    },
    {
      "midi": 54,
      "hit": false,
      "t": 221785.49249999176,
      "d": 79.36499999999069,
      "v": 50
    },
    {
      "midi": 70,
      "hit": false,
      "t": 221884.69875000103,
      "d": 267.8568749999977,
      "v": 127
    },
    {
      "midi": 54,
      "hit": false,
      "t": 221904.53999999174,
      "d": 79.36499999999069,
      "v": 50
    },
    {
      "midi": 37,
      "hit": false,
      "t": 221904.53999999922,
      "d": 158.73000000001048,
      "v": 80
    },
    {
      "midi": 74,
      "hit": false,
      "t": 221904.54000000018,
      "d": 952.3800000000047,
      "v": 50
    },
    {
      "midi": 35,
      "hit": false,
      "t": 221904.54000000085,
      "d": 317.45999999999185,
      "v": 100
    },
    {
      "midi": 54,
      "hit": false,
      "t": 222023.58749999173,
      "d": 79.36499999999069,
      "v": 50
    },
    {
      "midi": 54,
      "hit": false,
      "t": 222142.63499999171,
      "d": 79.36499999999069,
      "v": 50
    },
    {
      "midi": 37,
      "hit": false,
      "t": 222142.63499999922,
      "d": 158.73000000001048,
      "v": 80
    },
    {
      "midi": 72,
      "hit": false,
      "t": 222212.07937500102,
      "d": 252.97593750001397,
      "v": 127
    },
    {
      "midi": 54,
      "hit": false,
      "t": 222261.6824999917,
      "d": 79.36499999999069,
      "v": 50
    },
    {
      "midi": 54,
      "hit": false,
      "t": 222380.7299999917,
      "d": 79.36499999999069,
      "v": 50
    },
    {
      "midi": 37,
      "hit": false,
      "t": 222380.72999999922,
      "d": 158.73000000001048,
      "v": 80
    },
    {
      "midi": 35,
      "hit": false,
      "t": 222380.73000000085,
      "d": 317.45999999999185,
      "v": 100
    },
    {
      "midi": 54,
      "hit": false,
      "t": 222499.77749999167,
      "d": 79.36499999999069,
      "v": 50
    },
    {
      "midi": 54,
      "hit": false,
      "t": 222618.82499999166,
      "d": 79.36499999999069,
      "v": 50
    },
    {
      "midi": 54,
      "hit": false,
      "t": 222737.87249999164,
      "d": 79.36499999999069,
      "v": 50
    },
    {
      "midi": 54,
      "hit": false,
      "t": 222856.91999999163,
      "d": 79.36499999999069,
      "v": 50
    },
    {
      "midi": 72,
      "hit": false,
      "t": 222856.9200000002,
      "d": 952.3800000000047,
      "v": 50
    },
    {
      "midi": 35,
      "hit": false,
      "t": 222856.92000000086,
      "d": 317.45999999999185,
      "v": 100
    },
    {
      "midi": 54,
      "hit": false,
      "t": 222975.96749999162,
      "d": 79.36499999999069,
      "v": 50
    },
    {
      "midi": 54,
      "hit": false,
      "t": 223095.0149999916,
      "d": 79.36499999999069,
      "v": 50
    },
    {
      "midi": 37,
      "hit": false,
      "t": 223095.01499999923,
      "d": 79.36499999999069,
      "v": 80
    },
    {
      "midi": 54,
      "hit": false,
      "t": 223214.0624999916,
      "d": 79.36499999999069,
      "v": 50
    },
    {
      "midi": 37,
      "hit": false,
      "t": 223214.0624999992,
      "d": 79.36499999999069,
      "v": 80
    },
    {
      "midi": 54,
      "hit": false,
      "t": 223333.10999999158,
      "d": 79.36499999999069,
      "v": 50
    },
    {
      "midi": 37,
      "hit": false,
      "t": 223333.1099999992,
      "d": 79.36499999999069,
      "v": 80
    },
    {
      "midi": 35,
      "hit": false,
      "t": 223333.11000000086,
      "d": 317.45999999999185,
      "v": 100
    },
    {
      "midi": 63,
      "hit": false,
      "t": 223333.11000000103,
      "d": 128.96812500001397,
      "v": 127
    },
    {
      "midi": 54,
      "hit": false,
      "t": 223452.15749999156,
      "d": 79.36499999999069,
      "v": 50
    },
    {
      "midi": 37,
      "hit": false,
      "t": 223452.1574999992,
      "d": 79.36499999999069,
      "v": 80
    },
    {
      "midi": 37,
      "hit": false,
      "t": 223566.2446874992,
      "d": 158.73000000001048,
      "v": 80
    },
    {
      "midi": 60,
      "hit": false,
      "t": 223566.24468750105,
      "d": 218.2537500000035,
      "v": 127
    },
    {
      "midi": 54,
      "hit": false,
      "t": 223571.20499999155,
      "d": 79.36499999999069,
      "v": 50
    },
    {
      "midi": 54,
      "hit": false,
      "t": 223690.25249999153,
      "d": 79.36499999999069,
      "v": 50
    },
    {
      "midi": 54,
      "hit": false,
      "t": 223809.29999999152,
      "d": 79.36499999999069,
      "v": 50
    },
    {
      "midi": 37,
      "hit": false,
      "t": 223809.2999999992,
      "d": 158.73000000001048,
      "v": 80
    },
    {
      "midi": 70,
      "hit": false,
      "t": 223809.3000000002,
      "d": 952.3800000000047,
      "v": 50
    },
    {
      "midi": 35,
      "hit": false,
      "t": 223809.30000000086,
      "d": 317.45999999999185,
      "v": 100
    },
    {
      "midi": 63,
      "hit": false,
      "t": 223809.30000000107,
      "d": 570.4359375000058,
      "v": 127
    },
    {
      "midi": 54,
      "hit": false,
      "t": 223928.3474999915,
      "d": 79.36499999999069,
      "v": 50
    },
    {
      "midi": 54,
      "hit": false,
      "t": 224047.3949999915,
      "d": 79.36499999999069,
      "v": 50
    },
    {
      "midi": 37,
      "hit": false,
      "t": 224047.3949999992,
      "d": 158.73000000001048,
      "v": 80
    },
    {
      "midi": 54,
      "hit": false,
      "t": 224166.44249999148,
      "d": 79.36499999999069,
      "v": 50
    },
    {
      "midi": 54,
      "hit": false,
      "t": 224285.48999999146,
      "d": 79.36499999999069,
      "v": 50
    },
    {
      "midi": 37,
      "hit": false,
      "t": 224285.4899999992,
      "d": 158.73000000001048,
      "v": 80
    },
    {
      "midi": 75,
      "hit": false,
      "t": 224285.49000000002,
      "d": 218.2537500000035,
      "v": 64
    },
    {
      "midi": 87,
      "hit": false,
      "t": 224285.49000000002,
      "d": 436.507500000007,
      "v": 64
    },
    {
      "midi": 35,
      "hit": false,
      "t": 224285.49000000086,
      "d": 317.45999999999185,
      "v": 100
    },
    {
      "midi": 54,
      "hit": false,
      "t": 224404.53749999145,
      "d": 79.36499999999069,
      "v": 50
    },
    {
      "midi": 54,
      "hit": false,
      "t": 224523.58499999144,
      "d": 79.36499999999069,
      "v": 50
    },
    {
      "midi": 54,
      "hit": false,
      "t": 224642.63249999142,
      "d": 79.36499999999069,
      "v": 50
    },
    {
      "midi": 54,
      "hit": false,
      "t": 224761.6799999914,
      "d": 79.36499999999069,
      "v": 50
    },
    {
      "midi": 72,
      "hit": false,
      "t": 224761.6800000002,
      "d": 952.3800000000047,
      "v": 50
    },
    {
      "midi": 35,
      "hit": false,
      "t": 224761.68000000087,
      "d": 317.45999999999185,
      "v": 100
    },
    {
      "midi": 63,
      "hit": false,
      "t": 224761.68000000107,
      "d": 436.507500000007,
      "v": 127
    },
    {
      "midi": 54,
      "hit": false,
      "t": 224880.7274999914,
      "d": 79.36499999999069,
      "v": 50
    },
    {
      "midi": 54,
      "hit": false,
      "t": 224999.77499999138,
      "d": 79.36499999999069,
      "v": 50
    },
    {
      "midi": 37,
      "hit": false,
      "t": 224999.7749999992,
      "d": 79.36499999999069,
      "v": 80
    },
    {
      "midi": 54,
      "hit": false,
      "t": 225118.82249999137,
      "d": 79.36499999999069,
      "v": 50
    },
    {
      "midi": 37,
      "hit": false,
      "t": 225118.8224999992,
      "d": 79.36499999999069,
      "v": 80
    },
    {
      "midi": 54,
      "hit": false,
      "t": 225237.86999999135,
      "d": 79.36499999999069,
      "v": 50
    },
    {
      "midi": 37,
      "hit": false,
      "t": 225237.86999999918,
      "d": 79.36499999999069,
      "v": 80
    },
    {
      "midi": 35,
      "hit": false,
      "t": 225237.87000000087,
      "d": 317.45999999999185,
      "v": 100
    },
    {
      "midi": 65,
      "hit": false,
      "t": 225237.87000000107,
      "d": 436.507500000007,
      "v": 127
    },
    {
      "midi": 54,
      "hit": false,
      "t": 225356.91749999134,
      "d": 79.36499999999069,
      "v": 50
    },
    {
      "midi": 37,
      "hit": false,
      "t": 225356.91749999917,
      "d": 79.36499999999069,
      "v": 80
    },
    {
      "midi": 37,
      "hit": false,
      "t": 225471.00468749917,
      "d": 158.73000000001048,
      "v": 80
    },
    {
      "midi": 54,
      "hit": false,
      "t": 225475.96499999132,
      "d": 79.36499999999069,
      "v": 50
    },
    {
      "midi": 54,
      "hit": false,
      "t": 225595.0124999913,
      "d": 79.36499999999069,
      "v": 50
    },
    {
      "midi": 54,
      "hit": false,
      "t": 225714.0599999913,
      "d": 79.36499999999069,
      "v": 50
    },
    {
      "midi": 37,
      "hit": false,
      "t": 225714.05999999918,
      "d": 158.73000000001048,
      "v": 80
    },
    {
      "midi": 70,
      "hit": false,
      "t": 225714.0600000002,
      "d": 952.3800000000047,
      "v": 50
    },
    {
      "midi": 35,
      "hit": false,
      "t": 225714.06000000087,
      "d": 317.45999999999185,
      "v": 100
    },
    {
      "midi": 63,
      "hit": false,
      "t": 225714.06000000107,
      "d": 267.8568749999977,
      "v": 127
    },
    {
      "midi": 54,
      "hit": false,
      "t": 225833.10749999128,
      "d": 79.36499999999069,
      "v": 50
    },
    {
      "midi": 54,
      "hit": false,
      "t": 225952.15499999127,
      "d": 79.36499999999069,
      "v": 50
    },
    {
      "midi": 37,
      "hit": false,
      "t": 225952.15499999918,
      "d": 158.73000000001048,
      "v": 80
    },
    {
      "midi": 54,
      "hit": false,
      "t": 226071.20249999125,
      "d": 79.36499999999069,
      "v": 50
    },
    {
      "midi": 54,
      "hit": false,
      "t": 226190.24999999124,
      "d": 79.36499999999069,
      "v": 50
    },
    {
      "midi": 37,
      "hit": false,
      "t": 226190.24999999919,
      "d": 158.73000000001048,
      "v": 80
    },
    {
      "midi": 35,
      "hit": false,
      "t": 226190.25000000087,
      "d": 317.45999999999185,
      "v": 100
    },
    {
      "midi": 70,
      "hit": false,
      "t": 226190.25000000108,
      "d": 218.2537500000035,
      "v": 127
    },
    {
      "midi": 54,
      "hit": false,
      "t": 226309.29749999123,
      "d": 79.36499999999069,
      "v": 50
    },
    {
      "midi": 68,
      "hit": false,
      "t": 226423.3846875011,
      "d": 436.507500000007,
      "v": 127
    },
    {
      "midi": 54,
      "hit": false,
      "t": 226428.3449999912,
      "d": 79.36499999999069,
      "v": 50
    },
    {
      "midi": 45,
      "hit": false,
      "t": 226428.3449999999,
      "d": 158.73000000001048,
      "v": 80
    },
    {
      "midi": 54,
      "hit": false,
      "t": 226547.3924999912,
      "d": 79.36499999999069,
      "v": 50
    },
    {
      "midi": 54,
      "hit": false,
      "t": 226666.43999999118,
      "d": 79.36499999999069,
      "v": 50
    },
    {
      "midi": 75,
      "hit": false,
      "t": 226666.4400000002,
      "d": 1904.7600000000093,
      "v": 50
    },
    {
      "midi": 35,
      "hit": false,
      "t": 226666.44000000088,
      "d": 317.45999999999185,
      "v": 100
    },
    {
      "midi": 54,
      "hit": false,
      "t": 226785.48749999117,
      "d": 79.36499999999069,
      "v": 50
    },
    {
      "midi": 67,
      "hit": false,
      "t": 226899.5746875011,
      "d": 218.2537500000035,
      "v": 127
    },
    {
      "midi": 54,
      "hit": false,
      "t": 226904.53499999116,
      "d": 79.36499999999069,
      "v": 50
    },
    {
      "midi": 37,
      "hit": false,
      "t": 226904.5349999992,
      "d": 79.36499999999069,
      "v": 80
    },
    {
      "midi": 45,
      "hit": false,
      "t": 226904.53499999992,
      "d": 158.73000000001048,
      "v": 80
    },
    {
      "midi": 54,
      "hit": false,
      "t": 227023.58249999114,
      "d": 79.36499999999069,
      "v": 50
    },
    {
      "midi": 37,
      "hit": false,
      "t": 227023.58249999917,
      "d": 79.36499999999069,
      "v": 80
    },
    {
      "midi": 54,
      "hit": false,
      "t": 227142.62999999113,
      "d": 79.36499999999069,
      "v": 50
    },
    {
      "midi": 37,
      "hit": false,
      "t": 227142.62999999916,
      "d": 79.36499999999069,
      "v": 80
    },
    {
      "midi": 45,
      "hit": false,
      "t": 227142.62999999992,
      "d": 158.73000000001048,
      "v": 80
    },
    {
      "midi": 35,
      "hit": false,
      "t": 227142.63000000088,
      "d": 317.45999999999185,
      "v": 100
    },
    {
      "midi": 65,
      "hit": false,
      "t": 227142.6300000011,
      "d": 218.2537500000035,
      "v": 127
    },
    {
      "midi": 54,
      "hit": false,
      "t": 227261.6774999911,
      "d": 79.36499999999069,
      "v": 50
    },
    {
      "midi": 37,
      "hit": false,
      "t": 227261.67749999915,
      "d": 79.36499999999069,
      "v": 80
    },
    {
      "midi": 37,
      "hit": false,
      "t": 227375.76468749915,
      "d": 158.73000000001048,
      "v": 80
    },
    {
      "midi": 63,
      "hit": false,
      "t": 227375.76468750113,
      "d": 158.73000000001048,
      "v": 127
    },
    {
      "midi": 54,
      "hit": false,
      "t": 227380.7249999911,
      "d": 79.36499999999069,
      "v": 50
    },
    {
      "midi": 54,
      "hit": false,
      "t": 227499.7724999911,
      "d": 79.36499999999069,
      "v": 50
    },
    {
      "midi": 54,
      "hit": false,
      "t": 227618.81999999107,
      "d": 79.36499999999069,
      "v": 50
    },
    {
      "midi": 37,
      "hit": false,
      "t": 227618.81999999916,
      "d": 158.73000000001048,
      "v": 80
    },
    {
      "midi": 35,
      "hit": false,
      "t": 227618.82000000088,
      "d": 317.45999999999185,
      "v": 100
    },
    {
      "midi": 63,
      "hit": false,
      "t": 227618.82000000114,
      "d": 218.2537500000035,
      "v": 127
    },
    {
      "midi": 54,
      "hit": false,
      "t": 227737.86749999106,
      "d": 79.36499999999069,
      "v": 50
    },
    {
      "midi": 65,
      "hit": false,
      "t": 227851.95468750116,
      "d": 218.2537500000035,
      "v": 127
    },
    {
      "midi": 54,
      "hit": false,
      "t": 227856.91499999104,
      "d": 79.36499999999069,
      "v": 50
    },
    {
      "midi": 37,
      "hit": false,
      "t": 227856.91499999916,
      "d": 158.73000000001048,
      "v": 80
    },
    {
      "midi": 54,
      "hit": false,
      "t": 227975.96249999103,
      "d": 79.36499999999069,
      "v": 50
    },
    {
      "midi": 54,
      "hit": false,
      "t": 228095.00999999102,
      "d": 79.36499999999069,
      "v": 50
    },
    {
      "midi": 37,
      "hit": false,
      "t": 228095.00999999917,
      "d": 158.73000000001048,
      "v": 80
    },
    {
      "midi": 45,
      "hit": false,
      "t": 228095.00999999992,
      "d": 158.73000000001048,
      "v": 80
    },
    {
      "midi": 35,
      "hit": false,
      "t": 228095.01000000088,
      "d": 317.45999999999185,
      "v": 100
    },
    {
      "midi": 67,
      "hit": false,
      "t": 228095.01000000117,
      "d": 218.2537500000035,
      "v": 127
    },
    {
      "midi": 54,
      "hit": false,
      "t": 228214.057499991,
      "d": 79.36499999999069,
      "v": 50
    },
    {
      "midi": 65,
      "hit": false,
      "t": 228328.1446875012,
      "d": 500.99156250001397,
      "v": 127
    },
    {
      "midi": 54,
      "hit": false,
      "t": 228333.104999991,
      "d": 79.36499999999069,
      "v": 50
    },
    {
      "midi": 45,
      "hit": false,
      "t": 228333.10499999992,
      "d": 158.73000000001048,
      "v": 80
    },
    {
      "midi": 54,
      "hit": false,
      "t": 228452.15249999097,
      "d": 79.36499999999069,
      "v": 50
    },
    {
      "midi": 54,
      "hit": false,
      "t": 228571.19999999096,
      "d": 79.36499999999069,
      "v": 50
    },
    {
      "midi": 45,
      "hit": false,
      "t": 228571.19999999992,
      "d": 158.73000000001048,
      "v": 80
    },
    {
      "midi": 75,
      "hit": false,
      "t": 228571.20000000022,
      "d": 952.3800000000047,
      "v": 50
    },
    {
      "midi": 35,
      "hit": false,
      "t": 228571.20000000088,
      "d": 317.45999999999185,
      "v": 100
    },
    {
      "midi": 54,
      "hit": false,
      "t": 228690.24749999095,
      "d": 79.36499999999069,
      "v": 50
    },
    {
      "midi": 54,
      "hit": false,
      "t": 228809.29499999093,
      "d": 79.36499999999069,
      "v": 50
    },
    {
      "midi": 37,
      "hit": false,
      "t": 228809.29499999917,
      "d": 79.36499999999069,
      "v": 80
    },
    {
      "midi": 45,
      "hit": false,
      "t": 228809.29499999993,
      "d": 79.36499999999069,
      "v": 80
    },
    {
      "midi": 54,
      "hit": false,
      "t": 228928.34249999092,
      "d": 79.36499999999069,
      "v": 50
    },
    {
      "midi": 37,
      "hit": false,
      "t": 228928.34249999915,
      "d": 79.36499999999069,
      "v": 80
    },
    {
      "midi": 45,
      "hit": false,
      "t": 228928.3424999999,
      "d": 79.36499999999069,
      "v": 80
    },
    {
      "midi": 54,
      "hit": false,
      "t": 229047.3899999909,
      "d": 79.36499999999069,
      "v": 50
    },
    {
      "midi": 37,
      "hit": false,
      "t": 229047.38999999914,
      "d": 79.36499999999069,
      "v": 80
    },
    {
      "midi": 41,
      "hit": false,
      "t": 229047.39000000004,
      "d": 158.73000000001048,
      "v": 80
    },
    {
      "midi": 35,
      "hit": false,
      "t": 229047.3900000009,
      "d": 317.45999999999185,
      "v": 100
    },
    {
      "midi": 70,
      "hit": false,
      "t": 229077.1518750012,
      "d": 163.69031249999534,
      "v": 127
    },
    {
      "midi": 54,
      "hit": false,
      "t": 229166.4374999909,
      "d": 79.36499999999069,
      "v": 50
    },
    {
      "midi": 37,
      "hit": false,
      "t": 229166.43749999913,
      "d": 79.36499999999069,
      "v": 80
    },
    {
      "midi": 37,
      "hit": false,
      "t": 229280.52468749913,
      "d": 158.73000000001048,
      "v": 80
    },
    {
      "midi": 54,
      "hit": false,
      "t": 229285.48499999088,
      "d": 79.36499999999069,
      "v": 50
    },
    {
      "midi": 67,
      "hit": false,
      "t": 229295.4056250012,
      "d": 153.7696874999965,
      "v": 127
    },
    {
      "midi": 54,
      "hit": false,
      "t": 229404.53249999086,
      "d": 79.36499999999069,
      "v": 50
    },
    {
      "midi": 54,
      "hit": false,
      "t": 229523.57999999085,
      "d": 79.36499999999069,
      "v": 50
    },
    {
      "midi": 37,
      "hit": false,
      "t": 229523.57999999914,
      "d": 158.73000000001048,
      "v": 80
    },
    {
      "midi": 74,
      "hit": false,
      "t": 229523.58000000022,
      "d": 952.3800000000047,
      "v": 50
    },
    {
      "midi": 35,
      "hit": false,
      "t": 229523.5800000009,
      "d": 317.45999999999185,
      "v": 100
    },
    {
      "midi": 70,
      "hit": false,
      "t": 229553.3418750012,
      "d": 243.05531249998603,
      "v": 127
    },
    {
      "midi": 54,
      "hit": false,
      "t": 229642.62749999083,
      "d": 79.36499999999069,
      "v": 50
    },
    {
      "midi": 54,
      "hit": false,
      "t": 229761.67499999082,
      "d": 79.36499999999069,
      "v": 50
    },
    {
      "midi": 37,
      "hit": false,
      "t": 229761.67499999914,
      "d": 158.73000000001048,
      "v": 80
    },
    {
      "midi": 54,
      "hit": false,
      "t": 229880.7224999908,
      "d": 79.36499999999069,
      "v": 50
    },
    {
      "midi": 72,
      "hit": false,
      "t": 229895.60343750118,
      "d": 218.2537500000035,
      "v": 127
    },
    {
      "midi": 54,
      "hit": false,
      "t": 229999.7699999908,
      "d": 79.36499999999069,
      "v": 50
    },
    {
      "midi": 37,
      "hit": false,
      "t": 229999.76999999915,
      "d": 158.73000000001048,
      "v": 80
    },
    {
      "midi": 35,
      "hit": false,
      "t": 229999.7700000009,
      "d": 317.45999999999185,
      "v": 100
    },
    {
      "midi": 54,
      "hit": false,
      "t": 230118.81749999078,
      "d": 79.36499999999069,
      "v": 50
    },
    {
      "midi": 54,
      "hit": false,
      "t": 230237.86499999076,
      "d": 79.36499999999069,
      "v": 50
    },
    {
      "midi": 63,
      "hit": false,
      "t": 230282.5078125012,
      "d": 362.10281250000116,
      "v": 127
    },
    {
      "midi": 54,
      "hit": false,
      "t": 230356.91249999075,
      "d": 79.36499999999069,
      "v": 50
    },
    {
      "midi": 54,
      "hit": false,
      "t": 230475.95999999074,
      "d": 79.36499999999069,
      "v": 50
    },
    {
      "midi": 72,
      "hit": false,
      "t": 230475.96000000022,
      "d": 952.3800000000047,
      "v": 50
    },
    {
      "midi": 35,
      "hit": false,
      "t": 230475.9600000009,
      "d": 317.45999999999185,
      "v": 100
    },
    {
      "midi": 54,
      "hit": false,
      "t": 230595.00749999072,
      "d": 79.36499999999069,
      "v": 50
    },
    {
      "midi": 63,
      "hit": false,
      "t": 230709.0946875012,
      "d": 158.73000000001048,
      "v": 127
    },
    {
      "midi": 54,
      "hit": false,
      "t": 230714.0549999907,
      "d": 79.36499999999069,
      "v": 50
    },
    {
      "midi": 37,
      "hit": false,
      "t": 230714.05499999915,
      "d": 79.36499999999069,
      "v": 80
    },
    {
      "midi": 54,
      "hit": false,
      "t": 230833.1024999907,
      "d": 79.36499999999069,
      "v": 50
    },
    {
      "midi": 37,
      "hit": false,
      "t": 230833.10249999914,
      "d": 79.36499999999069,
      "v": 80
    },
    {
      "midi": 54,
      "hit": false,
      "t": 230952.14999999068,
      "d": 79.36499999999069,
      "v": 50
    },
    {
      "midi": 37,
      "hit": false,
      "t": 230952.14999999912,
      "d": 79.36499999999069,
      "v": 80
    },
    {
      "midi": 35,
      "hit": false,
      "t": 230952.1500000009,
      "d": 317.45999999999185,
      "v": 100
    },
    {
      "midi": 63,
      "hit": false,
      "t": 230952.15000000122,
      "d": 218.2537500000035,
      "v": 127
    },
    {
      "midi": 54,
      "hit": false,
      "t": 231071.19749999067,
      "d": 79.36499999999069,
      "v": 50
    },
    {
      "midi": 37,
      "hit": false,
      "t": 231071.1974999991,
      "d": 79.36499999999069,
      "v": 80
    },
    {
      "midi": 37,
      "hit": false,
      "t": 231185.2846874991,
      "d": 158.73000000001048,
      "v": 80
    },
    {
      "midi": 60,
      "hit": false,
      "t": 231185.28468750123,
      "d": 218.2537500000035,
      "v": 127
    },
    {
      "midi": 54,
      "hit": false,
      "t": 231190.24499999065,
      "d": 79.36499999999069,
      "v": 50
    },
    {
      "midi": 54,
      "hit": false,
      "t": 231309.29249999064,
      "d": 79.36499999999069,
      "v": 50
    },
    {
      "midi": 54,
      "hit": false,
      "t": 231428.33999999063,
      "d": 79.36499999999069,
      "v": 50
    },
    {
      "midi": 37,
      "hit": false,
      "t": 231428.33999999912,
      "d": 158.73000000001048,
      "v": 80
    },
    {
      "midi": 70,
      "hit": false,
      "t": 231428.34000000023,
      "d": 952.3800000000047,
      "v": 50
    },
    {
      "midi": 35,
      "hit": false,
      "t": 231428.3400000009,
      "d": 317.45999999999185,
      "v": 100
    },
    {
      "midi": 63,
      "hit": false,
      "t": 231428.34000000125,
      "d": 634.9200000000128,
      "v": 127
    },
    {
      "midi": 54,
      "hit": false,
      "t": 231547.3874999906,
      "d": 79.36499999999069,
      "v": 50
    },
    {
      "midi": 54,
      "hit": false,
      "t": 231666.4349999906,
      "d": 79.36499999999069,
      "v": 50
    },
    {
      "midi": 37,
      "hit": false,
      "t": 231666.43499999912,
      "d": 158.73000000001048,
      "v": 80
    },
    {
      "midi": 54,
      "hit": false,
      "t": 231785.48249999058,
      "d": 79.36499999999069,
      "v": 50
    },
    {
      "midi": 54,
      "hit": false,
      "t": 231904.52999999057,
      "d": 79.36499999999069,
      "v": 50
    },
    {
      "midi": 37,
      "hit": false,
      "t": 231904.52999999913,
      "d": 158.73000000001048,
      "v": 80
    },
    {
      "midi": 75,
      "hit": false,
      "t": 231904.53000000003,
      "d": 218.2537500000035,
      "v": 64
    },
    {
      "midi": 87,
      "hit": false,
      "t": 231904.53000000003,
      "d": 436.507500000007,
      "v": 64
    },
    {
      "midi": 35,
      "hit": false,
      "t": 231904.5300000009,
      "d": 317.45999999999185,
      "v": 100
    },
    {
      "midi": 54,
      "hit": false,
      "t": 232023.57749999056,
      "d": 79.36499999999069,
      "v": 50
    },
    {
      "midi": 54,
      "hit": false,
      "t": 232142.62499999054,
      "d": 79.36499999999069,
      "v": 50
    },
    {
      "midi": 54,
      "hit": false,
      "t": 232261.67249999053,
      "d": 79.36499999999069,
      "v": 50
    },
    {
      "midi": 54,
      "hit": false,
      "t": 232380.7199999905,
      "d": 79.36499999999069,
      "v": 50
    },
    {
      "midi": 72,
      "hit": false,
      "t": 232380.72000000023,
      "d": 952.3800000000047,
      "v": 50
    },
    {
      "midi": 35,
      "hit": false,
      "t": 232380.7200000009,
      "d": 317.45999999999185,
      "v": 100
    },
    {
      "midi": 63,
      "hit": false,
      "t": 232380.72000000125,
      "d": 436.507500000007,
      "v": 127
    },
    {
      "midi": 54,
      "hit": false,
      "t": 232499.7674999905,
      "d": 79.36499999999069,
      "v": 50
    },
    {
      "midi": 54,
      "hit": false,
      "t": 232618.81499999049,
      "d": 79.36499999999069,
      "v": 50
    },
    {
      "midi": 37,
      "hit": false,
      "t": 232618.81499999913,
      "d": 79.36499999999069,
      "v": 80
    },
    {
      "midi": 54,
      "hit": false,
      "t": 232737.86249999047,
      "d": 79.36499999999069,
      "v": 50
    },
    {
      "midi": 37,
      "hit": false,
      "t": 232737.86249999912,
      "d": 79.36499999999069,
      "v": 80
    },
    {
      "midi": 54,
      "hit": false,
      "t": 232856.90999999046,
      "d": 79.36499999999069,
      "v": 50
    },
    {
      "midi": 37,
      "hit": false,
      "t": 232856.9099999991,
      "d": 79.36499999999069,
      "v": 80
    },
    {
      "midi": 35,
      "hit": false,
      "t": 232856.9100000009,
      "d": 317.45999999999185,
      "v": 100
    },
    {
      "midi": 65,
      "hit": false,
      "t": 232856.91000000125,
      "d": 436.507500000007,
      "v": 127
    },
    {
      "midi": 54,
      "hit": false,
      "t": 232975.95749999044,
      "d": 79.36499999999069,
      "v": 50
    },
    {
      "midi": 37,
      "hit": false,
      "t": 232975.9574999991,
      "d": 79.36499999999069,
      "v": 80
    },
    {
      "midi": 37,
      "hit": false,
      "t": 233090.0446874991,
      "d": 158.73000000001048,
      "v": 80
    },
    {
      "midi": 54,
      "hit": false,
      "t": 233095.00499999043,
      "d": 79.36499999999069,
      "v": 50
    },
    {
      "midi": 54,
      "hit": false,
      "t": 233214.05249999042,
      "d": 79.36499999999069,
      "v": 50
    },
    {
      "midi": 54,
      "hit": false,
      "t": 233333.0999999904,
      "d": 79.36499999999069,
      "v": 50
    },
    {
      "midi": 37,
      "hit": false,
      "t": 233333.0999999991,
      "d": 158.73000000001048,
      "v": 80
    },
    {
      "midi": 70,
      "hit": false,
      "t": 233333.10000000024,
      "d": 952.3800000000047,
      "v": 50
    },
    {
      "midi": 35,
      "hit": false,
      "t": 233333.1000000009,
      "d": 317.45999999999185,
      "v": 100
    },
    {
      "midi": 63,
      "hit": false,
      "t": 233333.10000000126,
      "d": 218.2537500000035,
      "v": 127
    },
    {
      "midi": 54,
      "hit": false,
      "t": 233452.1474999904,
      "d": 79.36499999999069,
      "v": 50
    },
    {
      "midi": 54,
      "hit": false,
      "t": 233571.19499999037,
      "d": 79.36499999999069,
      "v": 50
    },
    {
      "midi": 37,
      "hit": false,
      "t": 233571.1949999991,
      "d": 158.73000000001048,
      "v": 80
    },
    {
      "midi": 54,
      "hit": false,
      "t": 233690.24249999036,
      "d": 79.36499999999069,
      "v": 50
    },
    {
      "midi": 54,
      "hit": false,
      "t": 233809.28999999035,
      "d": 79.36499999999069,
      "v": 50
    },
    {
      "midi": 37,
      "hit": false,
      "t": 233809.2899999991,
      "d": 158.73000000001048,
      "v": 80
    },
    {
      "midi": 35,
      "hit": false,
      "t": 233809.2900000009,
      "d": 317.45999999999185,
      "v": 100
    },
    {
      "midi": 70,
      "hit": false,
      "t": 233809.29000000126,
      "d": 218.2537500000035,
      "v": 127
    },
    {
      "midi": 54,
      "hit": false,
      "t": 233928.33749999033,
      "d": 79.36499999999069,
      "v": 50
    },
    {
      "midi": 68,
      "hit": false,
      "t": 234042.42468750128,
      "d": 436.507500000007,
      "v": 127
    },
    {
      "midi": 54,
      "hit": false,
      "t": 234047.38499999032,
      "d": 79.36499999999069,
      "v": 50
    },
    {
      "midi": 48,
      "hit": false,
      "t": 234047.385,
      "d": 158.73000000001048,
      "v": 80
    },
    {
      "midi": 54,
      "hit": false,
      "t": 234166.4324999903,
      "d": 79.36499999999069,
      "v": 50
    },
    {
      "midi": 54,
      "hit": false,
      "t": 234285.4799999903,
      "d": 79.36499999999069,
      "v": 50
    },
    {
      "midi": 75,
      "hit": false,
      "t": 234285.48000000024,
      "d": 2857.140000000014,
      "v": 50
    },
    {
      "midi": 35,
      "hit": false,
      "t": 234285.4800000009,
      "d": 317.45999999999185,
      "v": 100
    },
    {
      "midi": 54,
      "hit": false,
      "t": 234404.52749999028,
      "d": 79.36499999999069,
      "v": 50
    },
    {
      "midi": 67,
      "hit": false,
      "t": 234518.61468750128,
      "d": 218.2537500000035,
      "v": 127
    },
    {
      "midi": 54,
      "hit": false,
      "t": 234523.57499999026,
      "d": 79.36499999999069,
      "v": 50
    },
    {
      "midi": 37,
      "hit": false,
      "t": 234523.5749999991,
      "d": 79.36499999999069,
      "v": 80
    },
    {
      "midi": 54,
      "hit": false,
      "t": 234642.62249999025,
      "d": 79.36499999999069,
      "v": 50
    },
    {
      "midi": 37,
      "hit": false,
      "t": 234642.6224999991,
      "d": 79.36499999999069,
      "v": 80
    },
    {
      "midi": 54,
      "hit": false,
      "t": 234761.66999999023,
      "d": 79.36499999999069,
      "v": 50
    },
    {
      "midi": 37,
      "hit": false,
      "t": 234761.66999999908,
      "d": 79.36499999999069,
      "v": 80
    },
    {
      "midi": 45,
      "hit": false,
      "t": 234761.6699999999,
      "d": 158.73000000001048,
      "v": 80
    },
    {
      "midi": 35,
      "hit": false,
      "t": 234761.67000000092,
      "d": 317.45999999999185,
      "v": 100
    },
    {
      "midi": 65,
      "hit": false,
      "t": 234761.6700000013,
      "d": 218.2537500000035,
      "v": 127
    },
    {
      "midi": 54,
      "hit": false,
      "t": 234880.71749999022,
      "d": 79.36499999999069,
      "v": 50
    },
    {
      "midi": 37,
      "hit": false,
      "t": 234880.71749999907,
      "d": 79.36499999999069,
      "v": 80
    },
    {
      "midi": 37,
      "hit": false,
      "t": 234994.80468749907,
      "d": 158.73000000001048,
      "v": 80
    },
    {
      "midi": 63,
      "hit": false,
      "t": 234994.8046875013,
      "d": 1979.164687499986,
      "v": 127
    },
    {
      "midi": 54,
      "hit": false,
      "t": 234999.7649999902,
      "d": 79.36499999999069,
      "v": 50
    },
    {
      "midi": 41,
      "hit": false,
      "t": 234999.76500000004,
      "d": 158.73000000001048,
      "v": 80
    },
    {
      "midi": 54,
      "hit": false,
      "t": 235118.8124999902,
      "d": 79.36499999999069,
      "v": 50
    },
    {
      "midi": 54,
      "hit": false,
      "t": 235237.85999999018,
      "d": 79.36499999999069,
      "v": 50
    },
    {
      "midi": 37,
      "hit": false,
      "t": 235237.85999999908,
      "d": 158.73000000001048,
      "v": 80
    },
    {
      "midi": 35,
      "hit": false,
      "t": 235237.86000000092,
      "d": 317.45999999999185,
      "v": 100
    },
    {
      "midi": 54,
      "hit": false,
      "t": 235356.90749999016,
      "d": 79.36499999999069,
      "v": 50
    },
    {
      "midi": 82,
      "hit": false,
      "t": 235461.07406250003,
      "d": 277.7774999999965,
      "v": 64
    },
    {
      "midi": 54,
      "hit": false,
      "t": 235475.95499999015,
      "d": 79.36499999999069,
      "v": 50
    },
    {
      "midi": 37,
      "hit": false,
      "t": 235475.95499999908,
      "d": 158.73000000001048,
      "v": 80
    },
    {
      "midi": 48,
      "hit": false,
      "t": 235475.95500000002,
      "d": 158.73000000001048,
      "v": 80
    },
    {
      "midi": 54,
      "hit": false,
      "t": 235595.00249999014,
      "d": 79.36499999999069,
      "v": 50
    },
    {
      "midi": 84,
      "hit": false,
      "t": 235669.40718750004,
      "d": 252.97593750001397,
      "v": 64
    },
    {
      "midi": 54,
      "hit": false,
      "t": 235714.04999999012,
      "d": 79.36499999999069,
      "v": 50
    },
    {
      "midi": 37,
      "hit": false,
      "t": 235714.0499999991,
      "d": 158.73000000001048,
      "v": 80
    },
    {
      "midi": 45,
      "hit": false,
      "t": 235714.0499999999,
      "d": 158.73000000001048,
      "v": 80
    },
    {
      "midi": 35,
      "hit": false,
      "t": 235714.05000000092,
      "d": 317.45999999999185,
      "v": 100
    },
    {
      "midi": 54,
      "hit": false,
      "t": 235833.0974999901,
      "d": 79.36499999999069,
      "v": 50
    },
    {
      "midi": 87,
      "hit": false,
      "t": 235897.58156250004,
      "d": 203.3728125000198,
      "v": 64
    },
    {
      "midi": 54,
      "hit": false,
      "t": 235952.1449999901,
      "d": 79.36499999999069,
      "v": 50
    },
    {
      "midi": 41,
      "hit": false,
      "t": 235952.14500000005,
      "d": 158.73000000001048,
      "v": 80
    },
    {
      "midi": 54,
      "hit": false,
      "t": 236071.19249999008,
      "d": 79.36499999999069,
      "v": 50
    },
    {
      "midi": 94,
      "hit": false,
      "t": 236130.71625000006,
      "d": 1284.7209375000093,
      "v": 64
    },
    {
      "midi": 54,
      "hit": false,
      "t": 236190.23999999007,
      "d": 79.36499999999069,
      "v": 50
    },
    {
      "midi": 35,
      "hit": false,
      "t": 236190.24000000092,
      "d": 317.45999999999185,
      "v": 100
    },
    {
      "midi": 54,
      "hit": false,
      "t": 236309.28749999005,
      "d": 79.36499999999069,
      "v": 50
    },
    {
      "midi": 54,
      "hit": false,
      "t": 236428.33499999004,
      "d": 79.36499999999069,
      "v": 50
    },
    {
      "midi": 37,
      "hit": false,
      "t": 236428.3349999991,
      "d": 79.36499999999069,
      "v": 80
    },
    {
      "midi": 54,
      "hit": false,
      "t": 236547.38249999002,
      "d": 79.36499999999069,
      "v": 50
    },
    {
      "midi": 37,
      "hit": false,
      "t": 236547.38249999908,
      "d": 79.36499999999069,
      "v": 80
    },
    {
      "midi": 54,
      "hit": false,
      "t": 236666.42999999,
      "d": 79.36499999999069,
      "v": 50
    },
    {
      "midi": 37,
      "hit": false,
      "t": 236666.42999999906,
      "d": 79.36499999999069,
      "v": 80
    },
    {
      "midi": 35,
      "hit": false,
      "t": 236666.43000000092,
      "d": 317.45999999999185,
      "v": 100
    },
    {
      "midi": 54,
      "hit": false,
      "t": 236785.47749999,
      "d": 79.36499999999069,
      "v": 50
    },
    {
      "midi": 37,
      "hit": false,
      "t": 236785.47749999905,
      "d": 79.36499999999069,
      "v": 80
    },
    {
      "midi": 37,
      "hit": false,
      "t": 236899.56468749905,
      "d": 158.73000000001048,
      "v": 80
    },
    {
      "midi": 54,
      "hit": false,
      "t": 236904.52499998998,
      "d": 79.36499999999069,
      "v": 50
    },
    {
      "midi": 54,
      "hit": false,
      "t": 237023.57249998997,
      "d": 79.36499999999069,
      "v": 50
    },
    {
      "midi": 54,
      "hit": false,
      "t": 237142.61999998995,
      "d": 79.36499999999069,
      "v": 50
    },
    {
      "midi": 37,
      "hit": false,
      "t": 237142.61999999906,
      "d": 158.73000000001048,
      "v": 80
    },
    {
      "midi": 35,
      "hit": false,
      "t": 237142.62000000093,
      "d": 317.45999999999185,
      "v": 100
    },
    {
      "midi": 63,
      "hit": false,
      "t": 237142.6200000013,
      "d": 218.2537500000035,
      "v": 127
    },
    {
      "midi": 54,
      "hit": false,
      "t": 237261.66749998994,
      "d": 79.36499999999069,
      "v": 50
    },
    {
      "midi": 65,
      "hit": false,
      "t": 237375.75468750132,
      "d": 218.2537500000035,
      "v": 127
    },
    {
      "midi": 54,
      "hit": false,
      "t": 237380.71499998993,
      "d": 79.36499999999069,
      "v": 50
    },
    {
      "midi": 37,
      "hit": false,
      "t": 237380.71499999907,
      "d": 158.73000000001048,
      "v": 80
    },
    {
      "midi": 54,
      "hit": false,
      "t": 237499.7624999899,
      "d": 79.36499999999069,
      "v": 50
    },
    {
      "midi": 54,
      "hit": false,
      "t": 237618.8099999899,
      "d": 79.36499999999069,
      "v": 50
    },
    {
      "midi": 37,
      "hit": false,
      "t": 237618.80999999907,
      "d": 158.73000000001048,
      "v": 80
    },
    {
      "midi": 35,
      "hit": false,
      "t": 237618.81000000093,
      "d": 317.45999999999185,
      "v": 100
    },
    {
      "midi": 67,
      "hit": false,
      "t": 237618.81000000134,
      "d": 218.2537500000035,
      "v": 127
    },
    {
      "midi": 54,
      "hit": false,
      "t": 237737.85749998988,
      "d": 79.36499999999069,
      "v": 50
    },
    {
      "midi": 65,
      "hit": false,
      "t": 237851.94468750135,
      "d": 436.507500000007,
      "v": 127
    },
    {
      "midi": 54,
      "hit": false,
      "t": 237856.90499998987,
      "d": 79.36499999999069,
      "v": 50
    },
    {
      "midi": 54,
      "hit": false,
      "t": 237975.95249998986,
      "d": 79.36499999999069,
      "v": 50
    },
    {
      "midi": 54,
      "hit": false,
      "t": 238094.99999998984,
      "d": 79.36499999999069,
      "v": 50
    },
    {
      "midi": 35,
      "hit": false,
      "t": 238095.00000000093,
      "d": 317.45999999999185,
      "v": 100
    },
    {
      "midi": 54,
      "hit": false,
      "t": 238214.04749998983,
      "d": 79.36499999999069,
      "v": 50
    },
    {
      "midi": 63,
      "hit": false,
      "t": 238328.13468750136,
      "d": 158.73000000001048,
      "v": 127
    },
    {
      "midi": 54,
      "hit": false,
      "t": 238333.09499998981,
      "d": 79.36499999999069,
      "v": 50
    },
    {
      "midi": 37,
      "hit": false,
      "t": 238333.09499999907,
      "d": 79.36499999999069,
      "v": 80
    },
    {
      "midi": 54,
      "hit": false,
      "t": 238452.1424999898,
      "d": 79.36499999999069,
      "v": 50
    },
    {
      "midi": 37,
      "hit": false,
      "t": 238452.14249999906,
      "d": 79.36499999999069,
      "v": 80
    },
    {
      "midi": 54,
      "hit": false,
      "t": 238571.1899999898,
      "d": 79.36499999999069,
      "v": 50
    },
    {
      "midi": 37,
      "hit": false,
      "t": 238571.18999999904,
      "d": 79.36499999999069,
      "v": 80
    },
    {
      "midi": 35,
      "hit": false,
      "t": 238571.19000000093,
      "d": 317.45999999999185,
      "v": 100
    },
    {
      "midi": 63,
      "hit": false,
      "t": 238571.19000000137,
      "d": 1478.1731250000012,
      "v": 127
    },
    {
      "midi": 54,
      "hit": false,
      "t": 238690.23749998977,
      "d": 79.36499999999069,
      "v": 50
    },
    {
      "midi": 37,
      "hit": false,
      "t": 238690.23749999903,
      "d": 79.36499999999069,
      "v": 80
    },
    {
      "midi": 37,
      "hit": false,
      "t": 238804.32468749903,
      "d": 158.73000000001048,
      "v": 80
    },
    {
      "midi": 54,
      "hit": false,
      "t": 238809.28499998976,
      "d": 79.36499999999069,
      "v": 50
    },
    {
      "midi": 54,
      "hit": false,
      "t": 238928.33249998974,
      "d": 79.36499999999069,
      "v": 50
    },
    {
      "midi": 54,
      "hit": false,
      "t": 239047.37999998973,
      "d": 79.36499999999069,
      "v": 50
    },
    {
      "midi": 37,
      "hit": false,
      "t": 239047.37999999904,
      "d": 158.73000000001048,
      "v": 80
    },
    {
      "midi": 35,
      "hit": false,
      "t": 239047.38000000094,
      "d": 317.45999999999185,
      "v": 100
    },
    {
      "midi": 54,
      "hit": false,
      "t": 239166.42749998972,
      "d": 79.36499999999069,
      "v": 50
    },
    {
      "midi": 87,
      "hit": false,
      "t": 239275.55437500007,
      "d": 277.7774999999965,
      "v": 64
    },
    {
      "midi": 54,
      "hit": false,
      "t": 239285.4749999897,
      "d": 79.36499999999069,
      "v": 50
    },
    {
      "midi": 37,
      "hit": false,
      "t": 239285.47499999905,
      "d": 158.73000000001048,
      "v": 80
    },
    {
      "midi": 48,
      "hit": false,
      "t": 239285.47500000003,
      "d": 158.73000000001048,
      "v": 80
    },
    {
      "midi": 54,
      "hit": false,
      "t": 239404.5224999897,
      "d": 79.36499999999069,
      "v": 50
    },
    {
      "midi": 84,
      "hit": false,
      "t": 239503.72875000007,
      "d": 238.09500000000116,
      "v": 64
    },
    {
      "midi": 54,
      "hit": false,
      "t": 239523.56999998968,
      "d": 79.36499999999069,
      "v": 50
    },
    {
      "midi": 37,
      "hit": false,
      "t": 239523.56999999905,
      "d": 158.73000000001048,
      "v": 80
    },
    {
      "midi": 45,
      "hit": false,
      "t": 239523.56999999992,
      "d": 158.73000000001048,
      "v": 80
    },
    {
      "midi": 35,
      "hit": false,
      "t": 239523.57000000094,
      "d": 317.45999999999185,
      "v": 100
    },
    {
      "midi": 54,
      "hit": false,
      "t": 239642.61749998966,
      "d": 79.36499999999069,
      "v": 50
    },
    {
      "midi": 94,
      "hit": false,
      "t": 239751.74437500007,
      "d": 1423.609687499993,
      "v": 64
    },
    {
      "midi": 54,
      "hit": false,
      "t": 239761.66499998965,
      "d": 79.36499999999069,
      "v": 50
    },
    {
      "midi": 41,
      "hit": false,
      "t": 239761.66500000007,
      "d": 158.73000000001048,
      "v": 80
    },
    {
      "midi": 54,
      "hit": false,
      "t": 239880.71249998963,
      "d": 79.36499999999069,
      "v": 50
    },
    {
      "midi": 54,
      "hit": false,
      "t": 239999.75999998962,
      "d": 79.36499999999069,
      "v": 50
    },
    {
      "midi": 35,
      "hit": false,
      "t": 239999.76000000094,
      "d": 317.45999999999185,
      "v": 100
    },
    {
      "midi": 54,
      "hit": false,
      "t": 240118.8074999896,
      "d": 79.36499999999069,
      "v": 50
    },
    {
      "midi": 70,
      "hit": false,
      "t": 240232.89468750136,
      "d": 218.2537500000035,
      "v": 127
    },
    {
      "midi": 54,
      "hit": false,
      "t": 240237.8549999896,
      "d": 79.36499999999069,
      "v": 50
    },
    {
      "midi": 37,
      "hit": false,
      "t": 240237.85499999905,
      "d": 79.36499999999069,
      "v": 80
    },
    {
      "midi": 54,
      "hit": false,
      "t": 240356.90249998958,
      "d": 79.36499999999069,
      "v": 50
    },
    {
      "midi": 37,
      "hit": false,
      "t": 240356.90249999904,
      "d": 79.36499999999069,
      "v": 80
    },
    {
      "midi": 54,
      "hit": false,
      "t": 240475.94999998956,
      "d": 79.36499999999069,
      "v": 50
    },
    {
      "midi": 37,
      "hit": false,
      "t": 240475.94999999902,
      "d": 79.36499999999069,
      "v": 80
    },
    {
      "midi": 35,
      "hit": false,
      "t": 240475.95000000094,
      "d": 317.45999999999185,
      "v": 100
    },
    {
      "midi": 54,
      "hit": false,
      "t": 240594.99749998955,
      "d": 79.36499999999069,
      "v": 50
    },
    {
      "midi": 37,
      "hit": false,
      "t": 240594.997499999,
      "d": 79.36499999999069,
      "v": 80
    },
    {
      "midi": 37,
      "hit": false,
      "t": 240709.084687499,
      "d": 158.73000000001048,
      "v": 80
    },
    {
      "midi": 70,
      "hit": false,
      "t": 240709.08468750137,
      "d": 158.73000000001048,
      "v": 127
    },
    {
      "midi": 54,
      "hit": false,
      "t": 240714.04499998954,
      "d": 79.36499999999069,
      "v": 50
    },
    {
      "midi": 54,
      "hit": false,
      "t": 240833.09249998952,
      "d": 79.36499999999069,
      "v": 50
    },
    {
      "midi": 54,
      "hit": false,
      "t": 240952.1399999895,
      "d": 79.36499999999069,
      "v": 50
    },
    {
      "midi": 37,
      "hit": false,
      "t": 240952.13999999902,
      "d": 158.73000000001048,
      "v": 80
    },
    {
      "midi": 35,
      "hit": false,
      "t": 240952.14000000095,
      "d": 317.45999999999185,
      "v": 100
    },
    {
      "midi": 70,
      "hit": false,
      "t": 240976.94156250136,
      "d": 312.499687500007,
      "v": 127
    },
    {
      "midi": 54,
      "hit": false,
      "t": 241071.1874999895,
      "d": 79.36499999999069,
      "v": 50
    },
    {
      "midi": 54,
      "hit": false,
      "t": 241190.23499998948,
      "d": 79.36499999999069,
      "v": 50
    },
    {
      "midi": 37,
      "hit": false,
      "t": 241190.23499999903,
      "d": 158.73000000001048,
      "v": 80
    },
    {
      "midi": 54,
      "hit": false,
      "t": 241309.28249998947,
      "d": 79.36499999999069,
      "v": 50
    },
    {
      "midi": 72,
      "hit": false,
      "t": 241334.08406250138,
      "d": 213.29343749998952,
      "v": 127
    },
    {
      "midi": 54,
      "hit": false,
      "t": 241428.32999998945,
      "d": 79.36499999999069,
      "v": 50
    },
    {
      "midi": 37,
      "hit": false,
      "t": 241428.32999999903,
      "d": 158.73000000001048,
      "v": 80
    },
    {
      "midi": 35,
      "hit": false,
      "t": 241428.33000000095,
      "d": 317.45999999999185,
      "v": 100
    },
    {
      "midi": 54,
      "hit": false,
      "t": 241547.37749998944,
      "d": 79.36499999999069,
      "v": 50
    },
    {
      "midi": 63,
      "hit": false,
      "t": 241661.46468750137,
      "d": 2058.529687500006,
      "v": 127
    },
    {
      "midi": 54,
      "hit": false,
      "t": 241666.42499998942,
      "d": 79.36499999999069,
      "v": 50
    },
    {
      "midi": 54,
      "hit": false,
      "t": 241785.4724999894,
      "d": 79.36499999999069,
      "v": 50
    },
    {
      "midi": 54,
      "hit": false,
      "t": 241904.5199999894,
      "d": 79.36499999999069,
      "v": 50
    },
    {
      "midi": 65,
      "hit": false,
      "t": 241904.52000000025,
      "d": 947.4196874999907,
      "v": 50
    },
    {
      "midi": 35,
      "hit": false,
      "t": 241904.52000000095,
      "d": 317.45999999999185,
      "v": 100
    },
    {
      "midi": 54,
      "hit": false,
      "t": 242023.56749998938,
      "d": 79.36499999999069,
      "v": 50
    },
    {
      "midi": 54,
      "hit": false,
      "t": 242142.61499998937,
      "d": 79.36499999999069,
      "v": 50
    },
    {
      "midi": 37,
      "hit": false,
      "t": 242142.61499999903,
      "d": 79.36499999999069,
      "v": 80
    },
    {
      "midi": 48,
      "hit": false,
      "t": 242142.61500000005,
      "d": 158.73000000001048,
      "v": 80
    },
    {
      "midi": 54,
      "hit": false,
      "t": 242261.66249998935,
      "d": 79.36499999999069,
      "v": 50
    },
    {
      "midi": 37,
      "hit": false,
      "t": 242261.66249999902,
      "d": 79.36499999999069,
      "v": 80
    },
    {
      "midi": 54,
      "hit": false,
      "t": 242380.70999998934,
      "d": 79.36499999999069,
      "v": 50
    },
    {
      "midi": 37,
      "hit": false,
      "t": 242380.709999999,
      "d": 79.36499999999069,
      "v": 80
    },
    {
      "midi": 41,
      "hit": false,
      "t": 242380.71000000008,
      "d": 158.73000000001048,
      "v": 80
    },
    {
      "midi": 35,
      "hit": false,
      "t": 242380.71000000095,
      "d": 317.45999999999185,
      "v": 100
    },
    {
      "midi": 54,
      "hit": false,
      "t": 242499.75749998933,
      "d": 79.36499999999069,
      "v": 50
    },
    {
      "midi": 37,
      "hit": false,
      "t": 242499.757499999,
      "d": 79.36499999999069,
      "v": 80
    },
    {
      "midi": 37,
      "hit": false,
      "t": 242613.844687499,
      "d": 158.73000000001048,
      "v": 80
    },
    {
      "midi": 54,
      "hit": false,
      "t": 242618.8049999893,
      "d": 79.36499999999069,
      "v": 50
    },
    {
      "midi": 54,
      "hit": false,
      "t": 242737.8524999893,
      "d": 79.36499999999069,
      "v": 50
    },
    {
      "midi": 54,
      "hit": false,
      "t": 242856.89999998928,
      "d": 79.36499999999069,
      "v": 50
    },
    {
      "midi": 37,
      "hit": false,
      "t": 242856.899999999,
      "d": 158.73000000001048,
      "v": 80
    },
    {
      "midi": 48,
      "hit": false,
      "t": 242856.90000000005,
      "d": 79.36499999999069,
      "v": 80
    },
    {
      "midi": 63,
      "hit": false,
      "t": 242856.90000000026,
      "d": 947.4196874999907,
      "v": 50
    },
    {
      "midi": 35,
      "hit": false,
      "t": 242856.90000000095,
      "d": 317.45999999999185,
      "v": 100
    },
    {
      "midi": 54,
      "hit": false,
      "t": 242975.94749998927,
      "d": 79.36499999999069,
      "v": 50
    },
    {
      "midi": 48,
      "hit": false,
      "t": 242975.94750000004,
      "d": 79.36499999999069,
      "v": 80
    },
    {
      "midi": 54,
      "hit": false,
      "t": 243094.99499998926,
      "d": 79.36499999999069,
      "v": 50
    },
    {
      "midi": 37,
      "hit": false,
      "t": 243094.994999999,
      "d": 158.73000000001048,
      "v": 80
    },
    {
      "midi": 45,
      "hit": false,
      "t": 243094.99499999994,
      "d": 158.73000000001048,
      "v": 80
    },
    {
      "midi": 54,
      "hit": false,
      "t": 243214.04249998924,
      "d": 79.36499999999069,
      "v": 50
    },
    {
      "midi": 54,
      "hit": false,
      "t": 243333.08999998923,
      "d": 79.36499999999069,
      "v": 50
    },
    {
      "midi": 37,
      "hit": false,
      "t": 243333.089999999,
      "d": 158.73000000001048,
      "v": 80
    },
    {
      "midi": 41,
      "hit": false,
      "t": 243333.09000000008,
      "d": 158.73000000001048,
      "v": 80
    },
    {
      "midi": 35,
      "hit": false,
      "t": 243333.09000000096,
      "d": 317.45999999999185,
      "v": 100
    },
    {
      "midi": 54,
      "hit": false,
      "t": 243452.1374999892,
      "d": 79.36499999999069,
      "v": 50
    },
    {
      "midi": 54,
      "hit": false,
      "t": 243571.1849999892,
      "d": 79.36499999999069,
      "v": 50
    },
    {
      "midi": 41,
      "hit": false,
      "t": 243571.18500000008,
      "d": 158.73000000001048,
      "v": 80
    },
    {
      "midi": 54,
      "hit": false,
      "t": 243690.2324999892,
      "d": 79.36499999999069,
      "v": 50
    },
    {
      "midi": 54,
      "hit": false,
      "t": 243809.27999998917,
      "d": 79.36499999999069,
      "v": 50
    },
    {
      "midi": 35,
      "hit": false,
      "t": 243809.28000000096,
      "d": 317.45999999999185,
      "v": 100
    },
    {
      "midi": 75,
      "hit": false,
      "t": 243814.24031250007,
      "d": 1393.8478124999965,
      "v": 80
    },
    {
      "midi": 75,
      "hit": false,
      "t": 243814.2403125001,
      "d": 1393.8478124999965,
      "v": 50
    },
    {
      "midi": 48,
      "hit": false,
      "t": 243839.041875,
      "d": 119.04749999998603,
      "v": 64
    },
    {
      "midi": 54,
      "hit": false,
      "t": 243928.32749998916,
      "d": 79.36499999999069,
      "v": 50
    },
    {
      "midi": 54,
      "hit": false,
      "t": 244047.37499998914,
      "d": 79.36499999999069,
      "v": 50
    },
    {
      "midi": 37,
      "hit": false,
      "t": 244047.374999999,
      "d": 79.36499999999069,
      "v": 80
    },
    {
      "midi": 54,
      "hit": false,
      "t": 244166.42249998913,
      "d": 79.36499999999069,
      "v": 50
    },
    {
      "midi": 37,
      "hit": false,
      "t": 244166.422499999,
      "d": 79.36499999999069,
      "v": 80
    },
    {
      "midi": 54,
      "hit": false,
      "t": 244285.46999998912,
      "d": 79.36499999999069,
      "v": 50
    },
    {
      "midi": 37,
      "hit": false,
      "t": 244285.46999999898,
      "d": 79.36499999999069,
      "v": 80
    },
    {
      "midi": 48,
      "hit": false,
      "t": 244285.46999999997,
      "d": 173.61093749999418,
      "v": 64
    },
    {
      "midi": 35,
      "hit": false,
      "t": 244285.47000000096,
      "d": 317.45999999999185,
      "v": 100
    },
    {
      "midi": 54,
      "hit": false,
      "t": 244404.5174999891,
      "d": 79.36499999999069,
      "v": 50
    },
    {
      "midi": 37,
      "hit": false,
      "t": 244404.51749999897,
      "d": 79.36499999999069,
      "v": 80
    },
    {
      "midi": 37,
      "hit": false,
      "t": 244518.60468749897,
      "d": 158.73000000001048,
      "v": 80
    },
    {
      "midi": 54,
      "hit": false,
      "t": 244523.5649999891,
      "d": 79.36499999999069,
      "v": 50
    },
    {
      "midi": 46,
      "hit": false,
      "t": 244617.81093749998,
      "d": 69.44437499999185,
      "v": 64
    },
    {
      "midi": 54,
      "hit": false,
      "t": 244642.61249998907,
      "d": 79.36499999999069,
      "v": 50
    },
    {
      "midi": 48,
      "hit": false,
      "t": 244736.85843749996,
      "d": 69.44437499999185,
      "v": 64
    },
    {
      "midi": 54,
      "hit": false,
      "t": 244761.65999998906,
      "d": 79.36499999999069,
      "v": 50
    },
    {
      "midi": 37,
      "hit": false,
      "t": 244761.65999999898,
      "d": 158.73000000001048,
      "v": 80
    },
    {
      "midi": 35,
      "hit": false,
      "t": 244761.66000000096,
      "d": 317.45999999999185,
      "v": 100
    },
    {
      "midi": 48,
      "hit": false,
      "t": 244836.06468749995,
      "d": 183.53156249999302,
      "v": 64
    },
    {
      "midi": 54,
      "hit": false,
      "t": 244880.70749998905,
      "d": 79.36499999999069,
      "v": 50
    },
    {
      "midi": 54,
      "hit": false,
      "t": 244999.75499998903,
      "d": 79.36499999999069,
      "v": 50
    },
    {
      "midi": 37,
      "hit": false,
      "t": 244999.754999999,
      "d": 158.73000000001048,
      "v": 80
    },
    {
      "midi": 54,
      "hit": false,
      "t": 245118.80249998902,
      "d": 79.36499999999069,
      "v": 50
    },
    {
      "midi": 48,
      "hit": false,
      "t": 245128.72312499993,
      "d": 148.80937500001164,
      "v": 64
    },
    {
      "midi": 79,
      "hit": false,
      "t": 245227.92937500007,
      "d": 228.17437500000233,
      "v": 80
    },
    {
      "midi": 79,
      "hit": false,
      "t": 245227.9293750001,
      "d": 228.17437500000233,
      "v": 50
    },
    {
      "midi": 54,
      "hit": false,
      "t": 245237.849999989,
      "d": 79.36499999999069,
      "v": 50
    },
    {
      "midi": 37,
      "hit": false,
      "t": 245237.849999999,
      "d": 158.73000000001048,
      "v": 80
    },
    {
      "midi": 35,
      "hit": false,
      "t": 245237.85000000097,
      "d": 317.45999999999185,
      "v": 100
    },
    {
      "midi": 54,
      "hit": false,
      "t": 245356.897499989,
      "d": 79.36499999999069,
      "v": 50
    },
    {
      "midi": 46,
      "hit": false,
      "t": 245461.06406249994,
      "d": 153.7696874999965,
      "v": 64
    },
    {
      "midi": 77,
      "hit": false,
      "t": 245466.02437500007,
      "d": 1349.2049999999872,
      "v": 80
    },
    {
      "midi": 77,
      "hit": false,
      "t": 245466.0243750001,
      "d": 1349.2049999999872,
      "v": 50
    },
    {
      "midi": 54,
      "hit": false,
      "t": 245475.94499998898,
      "d": 79.36499999999069,
      "v": 50
    },
    {
      "midi": 54,
      "hit": false,
      "t": 245594.99249998896,
      "d": 79.36499999999069,
      "v": 50
    },
    {
      "midi": 54,
      "hit": false,
      "t": 245714.03999998895,
      "d": 79.36499999999069,
      "v": 50
    },
    {
      "midi": 35,
      "hit": false,
      "t": 245714.04000000097,
      "d": 317.45999999999185,
      "v": 100
    },
    {
      "midi": 54,
      "hit": false,
      "t": 245833.08749998893,
      "d": 79.36499999999069,
      "v": 50
    },
    {
      "midi": 46,
      "hit": false,
      "t": 245927.33343749994,
      "d": 84.32531250000466,
      "v": 64
    },
    {
      "midi": 54,
      "hit": false,
      "t": 245952.13499998892,
      "d": 79.36499999999069,
      "v": 50
    },
    {
      "midi": 37,
      "hit": false,
      "t": 245952.134999999,
      "d": 79.36499999999069,
      "v": 80
    },
    {
      "midi": 82,
      "hit": false,
      "t": 245971.97625000004,
      "d": 188.49187500000698,
      "v": 64
    },
    {
      "midi": 54,
      "hit": false,
      "t": 246071.1824999889,
      "d": 79.36499999999069,
      "v": 50
    },
    {
      "midi": 37,
      "hit": false,
      "t": 246071.18249999898,
      "d": 79.36499999999069,
      "v": 80
    },
    {
      "midi": 46,
      "hit": false,
      "t": 246180.30937499995,
      "d": 158.73000000001048,
      "v": 64
    },
    {
      "midi": 54,
      "hit": false,
      "t": 246190.2299999889,
      "d": 79.36499999999069,
      "v": 50
    },
    {
      "midi": 37,
      "hit": false,
      "t": 246190.22999999896,
      "d": 79.36499999999069,
      "v": 80
    },
    {
      "midi": 70,
      "hit": false,
      "t": 246190.23000000004,
      "d": 188.49187500000698,
      "v": 64
    },
    {
      "midi": 35,
      "hit": false,
      "t": 246190.23000000097,
      "d": 317.45999999999185,
      "v": 100
    },
    {
      "midi": 54,
      "hit": false,
      "t": 246309.27749998888,
      "d": 79.36499999999069,
      "v": 50
    },
    {
      "midi": 37,
      "hit": false,
      "t": 246309.27749999895,
      "d": 79.36499999999069,
      "v": 80
    },
    {
      "midi": 37,
      "hit": false,
      "t": 246423.36468749895,
      "d": 158.73000000001048,
      "v": 80
    },
    {
      "midi": 54,
      "hit": false,
      "t": 246428.32499998886,
      "d": 79.36499999999069,
      "v": 50
    },
    {
      "midi": 54,
      "hit": false,
      "t": 246547.37249998885,
      "d": 79.36499999999069,
      "v": 50
    },
    {
      "midi": 44,
      "hit": false,
      "t": 246587.05499999996,
      "d": 59.523749999993015,
      "v": 64
    },
    {
      "midi": 82,
      "hit": false,
      "t": 246646.57875000004,
      "d": 188.49187500000698,
      "v": 64
    },
    {
      "midi": 54,
      "hit": false,
      "t": 246666.41999998884,
      "d": 79.36499999999069,
      "v": 50
    },
    {
      "midi": 37,
      "hit": false,
      "t": 246666.41999999897,
      "d": 158.73000000001048,
      "v": 80
    },
    {
      "midi": 35,
      "hit": false,
      "t": 246666.42000000097,
      "d": 317.45999999999185,
      "v": 100
    },
    {
      "midi": 46,
      "hit": false,
      "t": 246701.14218749997,
      "d": 54.56343750000815,
      "v": 64
    },
    {
      "midi": 54,
      "hit": false,
      "t": 246785.46749998882,
      "d": 79.36499999999069,
      "v": 50
    },
    {
      "midi": 46,
      "hit": false,
      "t": 246795.38812499997,
      "d": 143.84906249999767,
      "v": 64
    },
    {
      "midi": 54,
      "hit": false,
      "t": 246904.5149999888,
      "d": 79.36499999999069,
      "v": 50
    },
    {
      "midi": 37,
      "hit": false,
      "t": 246904.51499999897,
      "d": 158.73000000001048,
      "v": 80
    },
    {
      "midi": 70,
      "hit": false,
      "t": 246904.51500000004,
      "d": 188.49187500000698,
      "v": 64
    },
    {
      "midi": 77,
      "hit": false,
      "t": 246909.47531250006,
      "d": 119.04749999998603,
      "v": 80
    },
    {
      "midi": 89,
      "hit": false,
      "t": 246909.47531250006,
      "d": 119.04749999998603,
      "v": 50
    },
    {
      "midi": 77,
      "hit": false,
      "t": 246909.4753125001,
      "d": 119.04749999998603,
      "v": 50
    },
    {
      "midi": 54,
      "hit": false,
      "t": 247023.5624999888,
      "d": 79.36499999999069,
      "v": 50
    },
    {
      "midi": 46,
      "hit": false,
      "t": 247063.24499999997,
      "d": 203.3728124999907,
      "v": 64
    },
    {
      "midi": 54,
      "hit": false,
      "t": 247142.60999998878,
      "d": 79.36499999999069,
      "v": 50
    },
    {
      "midi": 37,
      "hit": false,
      "t": 247142.60999999897,
      "d": 158.73000000001048,
      "v": 80
    },
    {
      "midi": 35,
      "hit": false,
      "t": 247142.61000000098,
      "d": 317.45999999999185,
      "v": 100
    },
    {
      "midi": 77,
      "hit": false,
      "t": 247157.49093750006,
      "d": 257.93624999999884,
      "v": 80
    },
    {
      "midi": 89,
      "hit": false,
      "t": 247157.49093750006,
      "d": 257.93624999999884,
      "v": 50
    },
    {
      "midi": 77,
      "hit": false,
      "t": 247157.4909375001,
      "d": 257.93624999999884,
      "v": 50
    },
    {
      "midi": 54,
      "hit": false,
      "t": 247261.65749998877,
      "d": 79.36499999999069,
      "v": 50
    },
    {
      "midi": 79,
      "hit": false,
      "t": 247375.74468750006,
      "d": 282.7378124999814,
      "v": 80
    },
    {
      "midi": 91,
      "hit": false,
      "t": 247375.74468750006,
      "d": 282.7378124999814,
      "v": 50
    },
    {
      "midi": 79,
      "hit": false,
      "t": 247375.7446875001,
      "d": 282.7378124999814,
      "v": 50
    },
    {
      "midi": 54,
      "hit": false,
      "t": 247380.70499998875,
      "d": 79.36499999999069,
      "v": 50
    },
    {
      "midi": 54,
      "hit": false,
      "t": 247499.75249998874,
      "d": 79.36499999999069,
      "v": 50
    },
    {
      "midi": 54,
      "hit": false,
      "t": 247618.79999998873,
      "d": 79.36499999999069,
      "v": 50
    },
    {
      "midi": 44,
      "hit": false,
      "t": 247618.79999999996,
      "d": 143.84906249999767,
      "v": 64
    },
    {
      "midi": 35,
      "hit": false,
      "t": 247618.80000000098,
      "d": 317.45999999999185,
      "v": 100
    },
    {
      "midi": 80,
      "hit": false,
      "t": 247628.72062500005,
      "d": 545.6343749999942,
      "v": 80
    },
    {
      "midi": 92,
      "hit": false,
      "t": 247628.72062500005,
      "d": 545.6343749999942,
      "v": 50
    },
    {
      "midi": 80,
      "hit": false,
      "t": 247628.72062500007,
      "d": 545.6343749999942,
      "v": 50
    },
    {
      "midi": 54,
      "hit": false,
      "t": 247737.8474999887,
      "d": 79.36499999999069,
      "v": 50
    },
    {
      "midi": 54,
      "hit": false,
      "t": 247856.8949999887,
      "d": 79.36499999999069,
      "v": 50
    },
    {
      "midi": 37,
      "hit": false,
      "t": 247856.89499999897,
      "d": 79.36499999999069,
      "v": 80
    },
    {
      "midi": 54,
      "hit": false,
      "t": 247975.94249998868,
      "d": 79.36499999999069,
      "v": 50
    },
    {
      "midi": 37,
      "hit": false,
      "t": 247975.94249999896,
      "d": 79.36499999999069,
      "v": 80
    },
    {
      "midi": 54,
      "hit": false,
      "t": 248094.98999998867,
      "d": 79.36499999999069,
      "v": 50
    },
    {
      "midi": 37,
      "hit": false,
      "t": 248094.98999999894,
      "d": 79.36499999999069,
      "v": 80
    },
    {
      "midi": 35,
      "hit": false,
      "t": 248094.99000000098,
      "d": 317.45999999999185,
      "v": 100
    },
    {
      "midi": 79,
      "hit": false,
      "t": 248119.79156250003,
      "d": 223.21406250001746,
      "v": 80
    },
    {
      "midi": 91,
      "hit": false,
      "t": 248119.79156250003,
      "d": 223.21406250001746,
      "v": 50
    },
    {
      "midi": 79,
      "hit": false,
      "t": 248119.79156250006,
      "d": 223.21406250001746,
      "v": 50
    },
    {
      "midi": 44,
      "hit": false,
      "t": 248124.75187499996,
      "d": 213.29343749998952,
      "v": 64
    },
    {
      "midi": 54,
      "hit": false,
      "t": 248214.03749998866,
      "d": 79.36499999999069,
      "v": 50
    },
    {
      "midi": 37,
      "hit": false,
      "t": 248214.03749999893,
      "d": 79.36499999999069,
      "v": 80
    },
    {
      "midi": 37,
      "hit": false,
      "t": 248328.12468749893,
      "d": 158.73000000001048,
      "v": 80
    },
    {
      "midi": 54,
      "hit": false,
      "t": 248333.08499998864,
      "d": 79.36499999999069,
      "v": 50
    },
    {
      "midi": 75,
      "hit": false,
      "t": 248352.92625000005,
      "d": 426.58687500000815,
      "v": 80
    },
    {
      "midi": 87,
      "hit": false,
      "t": 248352.92625000005,
      "d": 426.58687500000815,
      "v": 50
    },
    {
      "midi": 75,
      "hit": false,
      "t": 248352.92625000008,
      "d": 426.58687500000815,
      "v": 50
    },
    {
      "midi": 54,
      "hit": false,
      "t": 248452.13249998863,
      "d": 79.36499999999069,
      "v": 50
    },
    {
      "midi": 43,
      "hit": false,
      "t": 248486.85468749996,
      "d": 84.32531250000466,
      "v": 64
    },
    {
      "midi": 54,
      "hit": false,
      "t": 248571.1799999886,
      "d": 79.36499999999069,
      "v": 50
    },
    {
      "midi": 37,
      "hit": false,
      "t": 248571.17999999895,
      "d": 158.73000000001048,
      "v": 80
    },
    {
      "midi": 35,
      "hit": false,
      "t": 248571.18000000098,
      "d": 317.45999999999185,
      "v": 100
    },
    {
      "midi": 44,
      "hit": false,
      "t": 248615.82281249997,
      "d": 84.32531250000466,
      "v": 64
    },
    {
      "midi": 54,
      "hit": false,
      "t": 248690.2274999886,
      "d": 79.36499999999069,
      "v": 50
    },
    {
      "midi": 44,
      "hit": false,
      "t": 248729.90999999997,
      "d": 203.3728124999907,
      "v": 64
    },
    {
      "midi": 79,
      "hit": false,
      "t": 248804.31468750007,
      "d": 451.3884374999907,
      "v": 80
    },
    {
      "midi": 91,
      "hit": false,
      "t": 248804.31468750007,
      "d": 451.3884374999907,
      "v": 50
    },
    {
      "midi": 79,
      "hit": false,
      "t": 248804.3146875001,
      "d": 451.3884374999907,
      "v": 50
    },
    {
      "midi": 54,
      "hit": false,
      "t": 248809.2749999886,
      "d": 79.36499999999069,
      "v": 50
    },
    {
      "midi": 37,
      "hit": false,
      "t": 248809.27499999895,
      "d": 158.73000000001048,
      "v": 80
    },
    {
      "midi": 54,
      "hit": false,
      "t": 248928.32249998857,
      "d": 79.36499999999069,
      "v": 50
    },
    {
      "midi": 44,
      "hit": false,
      "t": 249002.72718749996,
      "d": 173.61093749999418,
      "v": 64
    },
    {
      "midi": 54,
      "hit": false,
      "t": 249047.36999998856,
      "d": 79.36499999999069,
      "v": 50
    },
    {
      "midi": 37,
      "hit": false,
      "t": 249047.36999999895,
      "d": 158.73000000001048,
      "v": 80
    },
    {
      "midi": 35,
      "hit": false,
      "t": 249047.37000000098,
      "d": 317.45999999999185,
      "v": 100
    },
    {
      "midi": 54,
      "hit": false,
      "t": 249166.41749998854,
      "d": 79.36499999999069,
      "v": 50
    },
    {
      "midi": 77,
      "hit": false,
      "t": 249265.62375000006,
      "d": 2033.7281249999942,
      "v": 80
    },
    {
      "midi": 89,
      "hit": false,
      "t": 249265.62375000006,
      "d": 2033.7281249999942,
      "v": 50
    },
    {
      "midi": 77,
      "hit": false,
      "t": 249265.6237500001,
      "d": 2033.7281249999942,
      "v": 50
    },
    {
      "midi": 54,
      "hit": false,
      "t": 249285.46499998853,
      "d": 79.36499999999069,
      "v": 50
    },
    {
      "midi": 44,
      "hit": false,
      "t": 249300.34593749995,
      "d": 218.2537500000035,
      "v": 64
    },
    {
      "midi": 54,
      "hit": false,
      "t": 249404.51249998852,
      "d": 79.36499999999069,
      "v": 50
    },
    {
      "midi": 46,
      "hit": false,
      "t": 249498.75843749996,
      "d": 178.57125000000815,
      "v": 64
    },
    {
      "midi": 54,
      "hit": false,
      "t": 249523.5599999885,
      "d": 79.36499999999069,
      "v": 50
    },
    {
      "midi": 35,
      "hit": false,
      "t": 249523.560000001,
      "d": 317.45999999999185,
      "v": 100
    },
    {
      "midi": 54,
      "hit": false,
      "t": 249642.6074999885,
      "d": 79.36499999999069,
      "v": 50
    },
    {
      "midi": 54,
      "hit": false,
      "t": 249761.65499998847,
      "d": 79.36499999999069,
      "v": 50
    },
    {
      "midi": 37,
      "hit": false,
      "t": 249761.65499999895,
      "d": 79.36499999999069,
      "v": 80
    },
    {
      "midi": 82,
      "hit": false,
      "t": 249781.49625000005,
      "d": 188.49187500000698,
      "v": 64
    },
    {
      "midi": 54,
      "hit": false,
      "t": 249880.70249998846,
      "d": 79.36499999999069,
      "v": 50
    },
    {
      "midi": 37,
      "hit": false,
      "t": 249880.70249999894,
      "d": 79.36499999999069,
      "v": 80
    },
    {
      "midi": 54,
      "hit": false,
      "t": 249999.74999998845,
      "d": 79.36499999999069,
      "v": 50
    },
    {
      "midi": 37,
      "hit": false,
      "t": 249999.74999999892,
      "d": 79.36499999999069,
      "v": 80
    },
    {
      "midi": 70,
      "hit": false,
      "t": 249999.75000000006,
      "d": 188.49187500000698,
      "v": 64
    },
    {
      "midi": 35,
      "hit": false,
      "t": 249999.750000001,
      "d": 317.45999999999185,
      "v": 100
    },
    {
      "midi": 46,
      "hit": false,
      "t": 250034.47218749995,
      "d": 168.6506250000093,
      "v": 64
    },
    {
      "midi": 54,
      "hit": false,
      "t": 250118.79749998843,
      "d": 79.36499999999069,
      "v": 50
    },
    {
      "midi": 37,
      "hit": false,
      "t": 250118.7974999989,
      "d": 79.36499999999069,
      "v": 80
    },
    {
      "midi": 37,
      "hit": false,
      "t": 250232.8846874989,
      "d": 158.73000000001048,
      "v": 80
    },
    {
      "midi": 54,
      "hit": false,
      "t": 250237.84499998842,
      "d": 79.36499999999069,
      "v": 50
    },
    {
      "midi": 54,
      "hit": false,
      "t": 250356.8924999884,
      "d": 79.36499999999069,
      "v": 50
    },
    {
      "midi": 44,
      "hit": false,
      "t": 250391.61468749997,
      "d": 74.40468750000582,
      "v": 64
    },
    {
      "midi": 82,
      "hit": false,
      "t": 250456.09875000006,
      "d": 188.49187500000698,
      "v": 64
    },
    {
      "midi": 54,
      "hit": false,
      "t": 250475.9399999884,
      "d": 79.36499999999069,
      "v": 50
    },
    {
      "midi": 37,
      "hit": false,
      "t": 250475.93999999893,
      "d": 158.73000000001048,
      "v": 80
    },
    {
      "midi": 35,
      "hit": false,
      "t": 250475.940000001,
      "d": 317.45999999999185,
      "v": 100
    },
    {
      "midi": 46,
      "hit": false,
      "t": 250510.66218749998,
      "d": 49.60312499999418,
      "v": 64
    },
    {
      "midi": 54,
      "hit": false,
      "t": 250594.98749998838,
      "d": 79.36499999999069,
      "v": 50
    },
    {
      "midi": 46,
      "hit": false,
      "t": 250594.9875,
      "d": 233.1346874999872,
      "v": 64
    },
    {
      "midi": 54,
      "hit": false,
      "t": 250714.03499998836,
      "d": 79.36499999999069,
      "v": 50
    },
    {
      "midi": 37,
      "hit": false,
      "t": 250714.03499999893,
      "d": 158.73000000001048,
      "v": 80
    },
    {
      "midi": 70,
      "hit": false,
      "t": 250714.03500000006,
      "d": 188.49187500000698,
      "v": 64
    },
    {
      "midi": 54,
      "hit": false,
      "t": 250833.08249998835,
      "d": 79.36499999999069,
      "v": 50
    },
    {
      "midi": 46,
      "hit": false,
      "t": 250942.20937499998,
      "d": 277.7774999999965,
      "v": 64
    },
    {
      "midi": 54,
      "hit": false,
      "t": 250952.12999998833,
      "d": 79.36499999999069,
      "v": 50
    },
    {
      "midi": 37,
      "hit": false,
      "t": 250952.12999999893,
      "d": 158.73000000001048,
      "v": 80
    },
    {
      "midi": 35,
      "hit": false,
      "t": 250952.130000001,
      "d": 317.45999999999185,
      "v": 100
    },
    {
      "midi": 54,
      "hit": false,
      "t": 251071.17749998832,
      "d": 79.36499999999069,
      "v": 50
    },
    {
      "midi": 54,
      "hit": false,
      "t": 251190.2249999883,
      "d": 79.36499999999069,
      "v": 50
    },
    {
      "midi": 54,
      "hit": false,
      "t": 251309.2724999883,
      "d": 79.36499999999069,
      "v": 50
    },
    {
      "midi": 75,
      "hit": false,
      "t": 251398.55812500004,
      "d": 957.3403124999895,
      "v": 80
    },
    {
      "midi": 75,
      "hit": false,
      "t": 251398.55812500007,
      "d": 957.3403124999895,
      "v": 50
    },
    {
      "midi": 54,
      "hit": false,
      "t": 251428.31999998828,
      "d": 79.36499999999069,
      "v": 50
    },
    {
      "midi": 35,
      "hit": false,
      "t": 251428.320000001,
      "d": 317.45999999999185,
      "v": 100
    },
    {
      "midi": 48,
      "hit": false,
      "t": 251502.72468749998,
      "d": 153.7696874999965,
      "v": 64
    },
    {
      "midi": 54,
      "hit": false,
      "t": 251547.36749998826,
      "d": 79.36499999999069,
      "v": 50
    },
    {
      "midi": 54,
      "hit": false,
      "t": 251666.41499998825,
      "d": 79.36499999999069,
      "v": 50
    },
    {
      "midi": 37,
      "hit": false,
      "t": 251666.41499999893,
      "d": 79.36499999999069,
      "v": 80
    },
    {
      "midi": 54,
      "hit": false,
      "t": 251785.46249998824,
      "d": 79.36499999999069,
      "v": 50
    },
    {
      "midi": 37,
      "hit": false,
      "t": 251785.46249999892,
      "d": 79.36499999999069,
      "v": 80
    },
    {
      "midi": 54,
      "hit": false,
      "t": 251904.50999998822,
      "d": 79.36499999999069,
      "v": 50
    },
    {
      "midi": 37,
      "hit": false,
      "t": 251904.5099999989,
      "d": 79.36499999999069,
      "v": 80
    },
    {
      "midi": 35,
      "hit": false,
      "t": 251904.510000001,
      "d": 317.45999999999185,
      "v": 100
    },
    {
      "midi": 48,
      "hit": false,
      "t": 251944.19249999998,
      "d": 213.29343749998952,
      "v": 64
    },
    {
      "midi": 54,
      "hit": false,
      "t": 252023.5574999882,
      "d": 79.36499999999069,
      "v": 50
    },
    {
      "midi": 37,
      "hit": false,
      "t": 252023.5574999989,
      "d": 79.36499999999069,
      "v": 80
    },
    {
      "midi": 37,
      "hit": false,
      "t": 252137.6446874989,
      "d": 158.73000000001048,
      "v": 80
    },
    {
      "midi": 54,
      "hit": false,
      "t": 252142.6049999882,
      "d": 79.36499999999069,
      "v": 50
    },
    {
      "midi": 54,
      "hit": false,
      "t": 252261.65249998818,
      "d": 79.36499999999069,
      "v": 50
    },
    {
      "midi": 46,
      "hit": false,
      "t": 252276.53343749995,
      "d": 74.40468750000582,
      "v": 64
    },
    {
      "midi": 72,
      "hit": false,
      "t": 252360.85875000004,
      "d": 500.99156250001397,
      "v": 80
    },
    {
      "midi": 72,
      "hit": false,
      "t": 252360.85875000007,
      "d": 500.99156250001397,
      "v": 50
    },
    {
      "midi": 54,
      "hit": false,
      "t": 252380.69999998817,
      "d": 79.36499999999069,
      "v": 50
    },
    {
      "midi": 37,
      "hit": false,
      "t": 252380.6999999989,
      "d": 158.73000000001048,
      "v": 80
    },
    {
      "midi": 35,
      "hit": false,
      "t": 252380.700000001,
      "d": 317.45999999999185,
      "v": 100
    },
    {
      "midi": 48,
      "hit": false,
      "t": 252385.66031249997,
      "d": 89.28562499998952,
      "v": 64
    },
    {
      "midi": 48,
      "hit": false,
      "t": 252494.78718749995,
      "d": 198.41250000000582,
      "v": 64
    },
    {
      "midi": 54,
      "hit": false,
      "t": 252499.74749998815,
      "d": 79.36499999999069,
      "v": 50
    },
    {
      "midi": 54,
      "hit": false,
      "t": 252618.79499998814,
      "d": 79.36499999999069,
      "v": 50
    },
    {
      "midi": 37,
      "hit": false,
      "t": 252618.7949999989,
      "d": 158.73000000001048,
      "v": 80
    },
    {
      "midi": 54,
      "hit": false,
      "t": 252737.84249998812,
      "d": 79.36499999999069,
      "v": 50
    },
    {
      "midi": 48,
      "hit": false,
      "t": 252797.36624999996,
      "d": 178.57125000000815,
      "v": 64
    },
    {
      "midi": 79,
      "hit": false,
      "t": 252837.04875000005,
      "d": 252.97593750001397,
      "v": 80
    },
    {
      "midi": 79,
      "hit": false,
      "t": 252837.04875000007,
      "d": 252.97593750001397,
      "v": 50
    },
    {
      "midi": 54,
      "hit": false,
      "t": 252856.8899999881,
      "d": 79.36499999999069,
      "v": 50
    },
    {
      "midi": 37,
      "hit": false,
      "t": 252856.8899999989,
      "d": 158.73000000001048,
      "v": 80
    },
    {
      "midi": 35,
      "hit": false,
      "t": 252856.890000001,
      "d": 317.45999999999185,
      "v": 100
    },
    {
      "midi": 54,
      "hit": false,
      "t": 252975.9374999881,
      "d": 79.36499999999069,
      "v": 50
    },
    {
      "midi": 54,
      "hit": false,
      "t": 253094.98499998808,
      "d": 79.36499999999069,
      "v": 50
    },
    {
      "midi": 46,
      "hit": false,
      "t": 253129.70718749997,
      "d": 163.69031249999534,
      "v": 64
    },
    {
      "midi": 77,
      "hit": false,
      "t": 253129.70718750005,
      "d": 1438.4906250000058,
      "v": 80
    },
    {
      "midi": 77,
      "hit": false,
      "t": 253129.70718750008,
      "d": 1438.4906250000058,
      "v": 50
    },
    {
      "midi": 54,
      "hit": false,
      "t": 253214.03249998807,
      "d": 79.36499999999069,
      "v": 50
    },
    {
      "midi": 54,
      "hit": false,
      "t": 253333.07999998805,
      "d": 79.36499999999069,
      "v": 50
    },
    {
      "midi": 35,
      "hit": false,
      "t": 253333.080000001,
      "d": 317.45999999999185,
      "v": 100
    },
    {
      "midi": 54,
      "hit": false,
      "t": 253452.12749998804,
      "d": 79.36499999999069,
      "v": 50
    },
    {
      "midi": 54,
      "hit": false,
      "t": 253571.17499998803,
      "d": 79.36499999999069,
      "v": 50
    },
    {
      "midi": 37,
      "hit": false,
      "t": 253571.1749999989,
      "d": 79.36499999999069,
      "v": 80
    },
    {
      "midi": 46,
      "hit": false,
      "t": 253591.01624999996,
      "d": 74.40468750000582,
      "v": 64
    },
    {
      "midi": 82,
      "hit": false,
      "t": 253591.01625000007,
      "d": 188.49187500000698,
      "v": 64
    },
    {
      "midi": 54,
      "hit": false,
      "t": 253690.222499988,
      "d": 79.36499999999069,
      "v": 50
    },
    {
      "midi": 37,
      "hit": false,
      "t": 253690.2224999989,
      "d": 79.36499999999069,
      "v": 80
    },
    {
      "midi": 54,
      "hit": false,
      "t": 253809.269999988,
      "d": 79.36499999999069,
      "v": 50
    },
    {
      "midi": 37,
      "hit": false,
      "t": 253809.26999999888,
      "d": 79.36499999999069,
      "v": 80
    },
    {
      "midi": 70,
      "hit": false,
      "t": 253809.27000000008,
      "d": 188.49187500000698,
      "v": 64
    },
    {
      "midi": 35,
      "hit": false,
      "t": 253809.270000001,
      "d": 317.45999999999185,
      "v": 100
    },
    {
      "midi": 46,
      "hit": false,
      "t": 253858.87312499995,
      "d": 163.69031249999534,
      "v": 64
    },
    {
      "midi": 54,
      "hit": false,
      "t": 253928.31749998798,
      "d": 79.36499999999069,
      "v": 50
    },
    {
      "midi": 37,
      "hit": false,
      "t": 253928.31749999887,
      "d": 79.36499999999069,
      "v": 80
    },
    {
      "midi": 37,
      "hit": false,
      "t": 254042.40468749887,
      "d": 158.73000000001048,
      "v": 80
    },
    {
      "midi": 54,
      "hit": false,
      "t": 254047.36499998797,
      "d": 79.36499999999069,
      "v": 50
    },
    {
      "midi": 54,
      "hit": false,
      "t": 254166.41249998796,
      "d": 79.36499999999069,
      "v": 50
    },
    {
      "midi": 44,
      "hit": false,
      "t": 254211.05531249996,
      "d": 79.36499999999069,
      "v": 64
    },
    {
      "midi": 82,
      "hit": false,
      "t": 254265.61875000008,
      "d": 188.49187500000698,
      "v": 64
    },
    {
      "midi": 54,
      "hit": false,
      "t": 254285.45999998794,
      "d": 79.36499999999069,
      "v": 50
    },
    {
      "midi": 37,
      "hit": false,
      "t": 254285.4599999989,
      "d": 158.73000000001048,
      "v": 80
    },
    {
      "midi": 35,
      "hit": false,
      "t": 254285.460000001,
      "d": 317.45999999999185,
      "v": 100
    },
    {
      "midi": 46,
      "hit": false,
      "t": 254335.06312499996,
      "d": 64.48406250000698,
      "v": 64
    },
    {
      "midi": 54,
      "hit": false,
      "t": 254404.50749998793,
      "d": 79.36499999999069,
      "v": 50
    },
    {
      "midi": 46,
      "hit": false,
      "t": 254444.18999999997,
      "d": 148.80937500001164,
      "v": 64
    },
    {
      "midi": 54,
      "hit": false,
      "t": 254523.55499998791,
      "d": 79.36499999999069,
      "v": 50
    },
    {
      "midi": 37,
      "hit": false,
      "t": 254523.5549999989,
      "d": 158.73000000001048,
      "v": 80
    },
    {
      "midi": 79,
      "hit": false,
      "t": 254523.55500000005,
      "d": 252.97593750001397,
      "v": 80
    },
    {
      "midi": 91,
      "hit": false,
      "t": 254523.55500000005,
      "d": 252.97593750001397,
      "v": 50
    },
    {
      "midi": 70,
      "hit": false,
      "t": 254523.55500000008,
      "d": 188.49187500000698,
      "v": 64
    },
    {
      "midi": 79,
      "hit": false,
      "t": 254523.55500000008,
      "d": 252.97593750001397,
      "v": 50
    },
    {
      "midi": 54,
      "hit": false,
      "t": 254642.6024999879,
      "d": 79.36499999999069,
      "v": 50
    },
    {
      "midi": 80,
      "hit": false,
      "t": 254731.88812500006,
      "d": 272.81718750001164,
      "v": 80
    },
    {
      "midi": 92,
      "hit": false,
      "t": 254731.88812500006,
      "d": 272.81718750001164,
      "v": 50
    },
    {
      "midi": 80,
      "hit": false,
      "t": 254731.88812500008,
      "d": 272.81718750001164,
      "v": 50
    },
    {
      "midi": 54,
      "hit": false,
      "t": 254761.6499999879,
      "d": 79.36499999999069,
      "v": 50
    },
    {
      "midi": 37,
      "hit": false,
      "t": 254761.6499999989,
      "d": 158.73000000001048,
      "v": 80
    },
    {
      "midi": 35,
      "hit": false,
      "t": 254761.650000001,
      "d": 317.45999999999185,
      "v": 100
    },
    {
      "midi": 46,
      "hit": false,
      "t": 254766.61031249998,
      "d": 148.80937500001164,
      "v": 64
    },
    {
      "midi": 54,
      "hit": false,
      "t": 254880.69749998787,
      "d": 79.36499999999069,
      "v": 50
    },
    {
      "midi": 54,
      "hit": false,
      "t": 254999.74499998786,
      "d": 79.36499999999069,
      "v": 50
    },
    {
      "midi": 48,
      "hit": false,
      "t": 254999.74500000002,
      "d": 158.73000000001048,
      "v": 80
    },
    {
      "midi": 82,
      "hit": false,
      "t": 255004.70531250007,
      "d": 3065.4731249999895,
      "v": 80
    },
    {
      "midi": 94,
      "hit": false,
      "t": 255004.70531250007,
      "d": 3065.4731249999895,
      "v": 50
    },
    {
      "midi": 82,
      "hit": false,
      "t": 255004.7053125001,
      "d": 3065.4731249999895,
      "v": 50
    },
    {
      "midi": 82,
      "hit": false,
      "t": 255019.58625000008,
      "d": 188.49187500000698,
      "v": 64
    },
    {
      "midi": 54,
      "hit": false,
      "t": 255118.79249998785,
      "d": 79.36499999999069,
      "v": 50
    },
    {
      "midi": 54,
      "hit": false,
      "t": 255237.83999998783,
      "d": 79.36499999999069,
      "v": 50
    },
    {
      "midi": 35,
      "hit": false,
      "t": 255237.84000000102,
      "d": 317.45999999999185,
      "v": 100
    },
    {
      "midi": 46,
      "hit": false,
      "t": 255282.48281249998,
      "d": 114.08718750000116,
      "v": 64
    },
    {
      "midi": 54,
      "hit": false,
      "t": 255356.88749998782,
      "d": 79.36499999999069,
      "v": 50
    },
    {
      "midi": 54,
      "hit": false,
      "t": 255475.9349999878,
      "d": 79.36499999999069,
      "v": 50
    },
    {
      "midi": 37,
      "hit": false,
      "t": 255475.9349999989,
      "d": 79.36499999999069,
      "v": 80
    },
    {
      "midi": 82,
      "hit": false,
      "t": 255475.93500000008,
      "d": 188.49187500000698,
      "v": 64
    },
    {
      "midi": 54,
      "hit": false,
      "t": 255594.9824999878,
      "d": 79.36499999999069,
      "v": 50
    },
    {
      "midi": 37,
      "hit": false,
      "t": 255594.98249999888,
      "d": 79.36499999999069,
      "v": 80
    },
    {
      "midi": 54,
      "hit": false,
      "t": 255714.02999998778,
      "d": 79.36499999999069,
      "v": 50
    },
    {
      "midi": 37,
      "hit": false,
      "t": 255714.02999999886,
      "d": 79.36499999999069,
      "v": 80
    },
    {
      "midi": 70,
      "hit": false,
      "t": 255714.0300000001,
      "d": 188.49187500000698,
      "v": 64
    },
    {
      "midi": 35,
      "hit": false,
      "t": 255714.03000000102,
      "d": 317.45999999999185,
      "v": 100
    },
    {
      "midi": 46,
      "hit": false,
      "t": 255768.59343749998,
      "d": 114.08718750000116,
      "v": 64
    },
    {
      "midi": 54,
      "hit": false,
      "t": 255833.07749998776,
      "d": 79.36499999999069,
      "v": 50
    },
    {
      "midi": 37,
      "hit": false,
      "t": 255833.07749999885,
      "d": 79.36499999999069,
      "v": 80
    },
    {
      "midi": 37,
      "hit": false,
      "t": 255947.16468749885,
      "d": 158.73000000001048,
      "v": 80
    },
    {
      "midi": 54,
      "hit": false,
      "t": 255952.12499998775,
      "d": 79.36499999999069,
      "v": 50
    },
    {
      "midi": 48,
      "hit": false,
      "t": 255952.12500000003,
      "d": 158.73000000001048,
      "v": 80
    },
    {
      "midi": 54,
      "hit": false,
      "t": 256071.17249998773,
      "d": 79.36499999999069,
      "v": 50
    },
    {
      "midi": 44,
      "hit": false,
      "t": 256095.97406249997,
      "d": 64.48406250000698,
      "v": 64
    },
    {
      "midi": 82,
      "hit": false,
      "t": 256170.3787500001,
      "d": 188.49187500000698,
      "v": 64
    },
    {
      "midi": 54,
      "hit": false,
      "t": 256190.21999998772,
      "d": 79.36499999999069,
      "v": 50
    },
    {
      "midi": 37,
      "hit": false,
      "t": 256190.21999999887,
      "d": 158.73000000001048,
      "v": 80
    },
    {
      "midi": 48,
      "hit": false,
      "t": 256190.22000000003,
      "d": 158.73000000001048,
      "v": 80
    },
    {
      "midi": 35,
      "hit": false,
      "t": 256190.22000000102,
      "d": 317.45999999999185,
      "v": 100
    },
    {
      "midi": 46,
      "hit": false,
      "t": 256215.02156249998,
      "d": 54.56343750000815,
      "v": 64
    },
    {
      "midi": 54,
      "hit": false,
      "t": 256309.2674999877,
      "d": 79.36499999999069,
      "v": 50
    },
    {
      "midi": 46,
      "hit": false,
      "t": 256309.2675,
      "d": 178.57125000000815,
      "v": 64
    },
    {
      "midi": 54,
      "hit": false,
      "t": 256428.3149999877,
      "d": 79.36499999999069,
      "v": 50
    },
    {
      "midi": 37,
      "hit": false,
      "t": 256428.31499999887,
      "d": 158.73000000001048,
      "v": 80
    },
    {
      "midi": 45,
      "hit": false,
      "t": 256428.31499999994,
      "d": 158.73000000001048,
      "v": 80
    },
    {
      "midi": 70,
      "hit": false,
      "t": 256428.3150000001,
      "d": 188.49187500000698,
      "v": 64
    },
    {
      "midi": 54,
      "hit": false,
      "t": 256547.36249998768,
      "d": 79.36499999999069,
      "v": 50
    },
    {
      "midi": 46,
      "hit": false,
      "t": 256616.806875,
      "d": 173.61093749999418,
      "v": 64
    },
    {
      "midi": 54,
      "hit": false,
      "t": 256666.40999998766,
      "d": 79.36499999999069,
      "v": 50
    },
    {
      "midi": 37,
      "hit": false,
      "t": 256666.40999999887,
      "d": 158.73000000001048,
      "v": 80
    },
    {
      "midi": 35,
      "hit": false,
      "t": 256666.41000000102,
      "d": 317.45999999999185,
      "v": 100
    },
    {
      "midi": 54,
      "hit": false,
      "t": 256785.45749998765,
      "d": 79.36499999999069,
      "v": 50
    },
    {
      "midi": 54,
      "hit": false,
      "t": 256904.50499998764,
      "d": 79.36499999999069,
      "v": 50
    },
    {
      "midi": 41,
      "hit": false,
      "t": 256904.5050000001,
      "d": 158.73000000001048,
      "v": 80
    },
    {
      "midi": 46,
      "hit": false,
      "t": 256944.1875,
      "d": 124.0078125,
      "v": 64
    },
    {
      "midi": 54,
      "hit": false,
      "t": 257023.55249998762,
      "d": 79.36499999999069,
      "v": 50
    },
    {
      "midi": 54,
      "hit": false,
      "t": 257142.5999999876,
      "d": 79.36499999999069,
      "v": 50
    },
    {
      "midi": 35,
      "hit": false,
      "t": 257142.60000000102,
      "d": 317.45999999999185,
      "v": 100
    },
    {
      "midi": 54,
      "hit": false,
      "t": 257261.6474999876,
      "d": 79.36499999999069,
      "v": 50
    },
    {
      "midi": 54,
      "hit": false,
      "t": 257380.69499998758,
      "d": 79.36499999999069,
      "v": 50
    },
    {
      "midi": 37,
      "hit": false,
      "t": 257380.69499999887,
      "d": 79.36499999999069,
      "v": 80
    },
    {
      "midi": 48,
      "hit": false,
      "t": 257380.69500000004,
      "d": 158.73000000001048,
      "v": 80
    },
    {
      "midi": 82,
      "hit": false,
      "t": 257400.5362500001,
      "d": 188.49187500000698,
      "v": 64
    },
    {
      "midi": 46,
      "hit": false,
      "t": 257430.298125,
      "d": 59.523749999993015,
      "v": 64
    },
    {
      "midi": 54,
      "hit": false,
      "t": 257499.74249998757,
      "d": 79.36499999999069,
      "v": 50
    },
    {
      "midi": 37,
      "hit": false,
      "t": 257499.74249999886,
      "d": 79.36499999999069,
      "v": 80
    },
    {
      "midi": 54,
      "hit": false,
      "t": 257618.78999998755,
      "d": 79.36499999999069,
      "v": 50
    },
    {
      "midi": 37,
      "hit": false,
      "t": 257618.78999999884,
      "d": 79.36499999999069,
      "v": 80
    },
    {
      "midi": 70,
      "hit": false,
      "t": 257618.7900000001,
      "d": 188.49187500000698,
      "v": 64
    },
    {
      "midi": 41,
      "hit": false,
      "t": 257618.7900000001,
      "d": 158.73000000001048,
      "v": 80
    },
    {
      "midi": 35,
      "hit": false,
      "t": 257618.79000000103,
      "d": 317.45999999999185,
      "v": 100
    },
    {
      "midi": 46,
      "hit": false,
      "t": 257668.393125,
      "d": 124.0078125,
      "v": 64
    },
    {
      "midi": 54,
      "hit": false,
      "t": 257737.83749998754,
      "d": 79.36499999999069,
      "v": 50
    },
    {
      "midi": 37,
      "hit": false,
      "t": 257737.83749999883,
      "d": 79.36499999999069,
      "v": 80
    },
    {
      "midi": 37,
      "hit": false,
      "t": 257851.92468749883,
      "d": 158.73000000001048,
      "v": 80
    },
    {
      "midi": 54,
      "hit": false,
      "t": 257856.88499998752,
      "d": 79.36499999999069,
      "v": 50
    },
    {
      "midi": 54,
      "hit": false,
      "t": 257975.9324999875,
      "d": 79.36499999999069,
      "v": 50
    },
    {
      "midi": 44,
      "hit": false,
      "t": 258060.2578125,
      "d": 59.523749999993015,
      "v": 64
    },
    {
      "midi": 54,
      "hit": false,
      "t": 258094.9799999875,
      "d": 79.36499999999069,
      "v": 50
    },
    {
      "midi": 37,
      "hit": false,
      "t": 258094.97999999885,
      "d": 158.73000000001048,
      "v": 80
    },
    {
      "midi": 45,
      "hit": false,
      "t": 258094.97999999995,
      "d": 158.73000000001048,
      "v": 80
    },
    {
      "midi": 75,
      "hit": false,
      "t": 258094.9800000001,
      "d": 436.507500000007,
      "v": 64
    },
    {
      "midi": 35,
      "hit": false,
      "t": 258094.98000000103,
      "d": 317.45999999999185,
      "v": 100
    },
    {
      "midi": 46,
      "hit": false,
      "t": 258164.424375,
      "d": 262.8965625000128,
      "v": 64
    },
    {
      "midi": 54,
      "hit": false,
      "t": 258214.02749998748,
      "d": 79.36499999999069,
      "v": 50
    },
    {
      "midi": 54,
      "hit": false,
      "t": 258333.07499998747,
      "d": 79.36499999999069,
      "v": 50
    },
    {
      "midi": 37,
      "hit": false,
      "t": 258333.07499999885,
      "d": 158.73000000001048,
      "v": 80
    },
    {
      "midi": 45,
      "hit": false,
      "t": 258333.07499999995,
      "d": 158.73000000001048,
      "v": 80
    },
    {
      "midi": 54,
      "hit": false,
      "t": 258452.12249998745,
      "d": 79.36499999999069,
      "v": 50
    },
    {
      "midi": 54,
      "hit": false,
      "t": 258571.16999998744,
      "d": 79.36499999999069,
      "v": 50
    },
    {
      "midi": 37,
      "hit": false,
      "t": 258571.16999999885,
      "d": 158.73000000001048,
      "v": 80
    },
    {
      "midi": 45,
      "hit": false,
      "t": 258571.16999999995,
      "d": 79.36499999999069,
      "v": 80
    },
    {
      "midi": 74,
      "hit": false,
      "t": 258571.1700000001,
      "d": 436.507500000007,
      "v": 64
    },
    {
      "midi": 35,
      "hit": false,
      "t": 258571.17000000103,
      "d": 317.45999999999185,
      "v": 100
    },
    {
      "midi": 46,
      "hit": false,
      "t": 258645.57468750002,
      "d": 138.8887500000128,
      "v": 64
    },
    {
      "midi": 54,
      "hit": false,
      "t": 258690.21749998743,
      "d": 79.36499999999069,
      "v": 50
    },
    {
      "midi": 45,
      "hit": false,
      "t": 258690.21749999994,
      "d": 79.36499999999069,
      "v": 80
    },
    {
      "midi": 54,
      "hit": false,
      "t": 258809.2649999874,
      "d": 79.36499999999069,
      "v": 50
    },
    {
      "midi": 45,
      "hit": false,
      "t": 258809.26499999993,
      "d": 79.36499999999069,
      "v": 80
    },
    {
      "midi": 54,
      "hit": false,
      "t": 258928.3124999874,
      "d": 79.36499999999069,
      "v": 50
    },
    {
      "midi": 45,
      "hit": false,
      "t": 258928.3124999999,
      "d": 79.36499999999069,
      "v": 80
    },
    {
      "midi": 75,
      "hit": false,
      "t": 259047.3600000001,
      "d": 292.6584375000093,
      "v": 80
    },
    {
      "midi": 41,
      "hit": false,
      "t": 259047.3600000001,
      "d": 158.73000000001048,
      "v": 80
    },
    {
      "midi": 35,
      "hit": false,
      "t": 259047.36000000103,
      "d": 317.45999999999185,
      "v": 100
    },
    {
      "midi": 37,
      "hit": false,
      "t": 259285.45499999885,
      "d": 79.36499999999069,
      "v": 80
    },
    {
      "midi": 37,
      "hit": false,
      "t": 259404.50249999884,
      "d": 79.36499999999069,
      "v": 80
    },
    {
      "midi": 74,
      "hit": false,
      "t": 259473.9468750001,
      "d": 267.8568749999977,
      "v": 80
    },
    {
      "midi": 37,
      "hit": false,
      "t": 259523.54999999882,
      "d": 79.36499999999069,
      "v": 80
    },
    {
      "midi": 35,
      "hit": false,
      "t": 259523.55000000104,
      "d": 317.45999999999185,
      "v": 100
    },
    {
      "midi": 37,
      "hit": false,
      "t": 259642.5974999988,
      "d": 79.36499999999069,
      "v": 80
    },
    {
      "midi": 37,
      "hit": false,
      "t": 259756.6846874988,
      "d": 158.73000000001048,
      "v": 80
    },
    {
      "midi": 72,
      "hit": false,
      "t": 259845.9703125001,
      "d": 714.2850000000035,
      "v": 80
    },
    {
      "midi": 37,
      "hit": false,
      "t": 259999.73999999883,
      "d": 158.73000000001048,
      "v": 80
    },
    {
      "midi": 35,
      "hit": false,
      "t": 259999.74000000104,
      "d": 317.45999999999185,
      "v": 100
    },
    {
      "midi": 37,
      "hit": false,
      "t": 260237.83499999883,
      "d": 158.73000000001048,
      "v": 80
    },
    {
      "midi": 46,
      "hit": false,
      "t": 260237.83499999996,
      "d": 158.73000000001048,
      "v": 75
    },
    {
      "midi": 37,
      "hit": false,
      "t": 260475.92999999883,
      "d": 158.73000000001048,
      "v": 80
    },
    {
      "midi": 35,
      "hit": false,
      "t": 260475.93000000104,
      "d": 317.45999999999185,
      "v": 100
    },
    {
      "midi": 42,
      "hit": false,
      "t": 260714.02499999997,
      "d": 158.73000000001048,
      "v": 75
    },
    {
      "midi": 70,
      "hit": false,
      "t": 260718.9853125001,
      "d": 302.57906250000815,
      "v": 100
    },
    {
      "midi": 35,
      "hit": false,
      "t": 260952.12000000104,
      "d": 317.45999999999185,
      "v": 100
    },
    {
      "midi": 62,
      "hit": false,
      "t": 260976.92156250012,
      "d": 1721.2284375000163,
      "v": 80
    },
    {
      "midi": 70,
      "hit": false,
      "t": 260986.84218750012,
      "d": 1686.5062500000058,
      "v": 80
    },
    {
      "midi": 65,
      "hit": false,
      "t": 260996.76281250012,
      "d": 1661.7046875000233,
      "v": 80
    },
    {
      "midi": 70,
      "hit": false,
      "t": 261091.0087500001,
      "d": 262.8965625000128,
      "v": 100
    },
    {
      "midi": 37,
      "hit": false,
      "t": 261190.21499999883,
      "d": 79.36499999999069,
      "v": 80
    },
    {
      "midi": 37,
      "hit": false,
      "t": 261309.26249999882,
      "d": 79.36499999999069,
      "v": 80
    },
    {
      "midi": 37,
      "hit": false,
      "t": 261428.3099999988,
      "d": 79.36499999999069,
      "v": 80
    },
    {
      "midi": 35,
      "hit": false,
      "t": 261428.31000000105,
      "d": 317.45999999999185,
      "v": 100
    },
    {
      "midi": 70,
      "hit": false,
      "t": 261448.1512500001,
      "d": 208.33312500000466,
      "v": 100
    },
    {
      "midi": 37,
      "hit": false,
      "t": 261547.3574999988,
      "d": 79.36499999999069,
      "v": 80
    },
    {
      "midi": 37,
      "hit": false,
      "t": 261661.4446874988,
      "d": 158.73000000001048,
      "v": 80
    },
    {
      "midi": 72,
      "hit": false,
      "t": 261701.12718750013,
      "d": 282.7378125000105,
      "v": 100
    },
    {
      "midi": 37,
      "hit": false,
      "t": 261904.4999999988,
      "d": 158.73000000001048,
      "v": 80
    },
    {
      "midi": 35,
      "hit": false,
      "t": 261904.50000000105,
      "d": 317.46000000002095,
      "v": 100
    },
    {
      "midi": 74,
      "hit": false,
      "t": 261993.78562500014,
      "d": 317.46000000002095,
      "v": 100
    },
    {
      "midi": 37,
      "hit": false,
      "t": 262142.5949999988,
      "d": 158.72999999998137,
      "v": 80
    },
    {
      "midi": 46,
      "hit": false,
      "t": 262142.59499999997,
      "d": 158.72999999998137,
      "v": 75
    },
    {
      "midi": 70,
      "hit": false,
      "t": 262326.12656250014,
      "d": 178.57124999997905,
      "v": 100
    },
    {
      "midi": 37,
      "hit": false,
      "t": 262380.6899999988,
      "d": 158.72999999998137,
      "v": 80
    },
    {
      "midi": 35,
      "hit": false,
      "t": 262380.69000000105,
      "d": 317.46000000002095,
      "v": 100
    },
    {
      "midi": 72,
      "hit": false,
      "t": 262584.0628125001,
      "d": 1215.2765624999884,
      "v": 100
    },
    {
      "midi": 42,
      "hit": false,
      "t": 262618.785,
      "d": 158.72999999998137,
      "v": 75
    },
    {
      "midi": 68,
      "hit": false,
      "t": 262851.91968750017,
      "d": 1765.8712500000256,
      "v": 80
    },
    {
      "midi": 72,
      "hit": false,
      "t": 262856.8800000002,
      "d": 1770.8315625000396,
      "v": 80
    },
    {
      "midi": 63,
      "hit": false,
      "t": 262856.8800000002,
      "d": 1899.7996875000536,
      "v": 80
    },
    {
      "midi": 35,
      "hit": false,
      "t": 262856.88000000105,
      "d": 317.46000000002095,
      "v": 100
    },
    {
      "midi": 37,
      "hit": false,
      "t": 263094.97499999875,
      "d": 79.36499999999069,
      "v": 80
    },
    {
      "midi": 37,
      "hit": false,
      "t": 263214.02249999874,
      "d": 79.36499999999069,
      "v": 80
    },
    {
      "midi": 37,
      "hit": false,
      "t": 263333.0699999987,
      "d": 79.36499999999069,
      "v": 80
    },
    {
      "midi": 35,
      "hit": false,
      "t": 263333.07000000105,
      "d": 317.46000000002095,
      "v": 100
    },
    {
      "midi": 37,
      "hit": false,
      "t": 263452.1174999987,
      "d": 79.36499999999069,
      "v": 80
    },
    {
      "midi": 37,
      "hit": false,
      "t": 263566.2046874987,
      "d": 158.72999999998137,
      "v": 80
    },
    {
      "midi": 72,
      "hit": false,
      "t": 263566.2046875001,
      "d": 376.98375000001397,
      "v": 63
    },
    {
      "midi": 37,
      "hit": false,
      "t": 263809.25999999867,
      "d": 158.72999999998137,
      "v": 80
    },
    {
      "midi": 35,
      "hit": false,
      "t": 263809.26000000106,
      "d": 317.46000000002095,
      "v": 100
    },
    {
      "midi": 75,
      "hit": false,
      "t": 264042.3946875001,
      "d": 153.7696875000256,
      "v": 64
    },
    {
      "midi": 37,
      "hit": false,
      "t": 264047.35499999864,
      "d": 158.72999999998137,
      "v": 80
    },
    {
      "midi": 76,
      "hit": false,
      "t": 264047.355,
      "d": 1899.7996874999953,
      "v": 100
    },
    {
      "midi": 46,
      "hit": false,
      "t": 264047.355,
      "d": 158.72999999998137,
      "v": 75
    },
    {
      "midi": 37,
      "hit": false,
      "t": 264285.4499999986,
      "d": 158.72999999998137,
      "v": 80
    },
    {
      "midi": 79,
      "hit": false,
      "t": 264285.4500000001,
      "d": 178.57124999997905,
      "v": 64
    },
    {
      "midi": 35,
      "hit": false,
      "t": 264285.45000000106,
      "d": 317.46000000002095,
      "v": 100
    },
    {
      "midi": 77,
      "hit": false,
      "t": 264518.5846875001,
      "d": 456.34875000000466,
      "v": 64
    },
    {
      "midi": 42,
      "hit": false,
      "t": 264523.545,
      "d": 158.72999999998137,
      "v": 75
    },
    {
      "midi": 63,
      "hit": false,
      "t": 264761.64000000025,
      "d": 1899.7996874999953,
      "v": 80
    },
    {
      "midi": 65,
      "hit": false,
      "t": 264761.64000000025,
      "d": 1899.7996874999953,
      "v": 80
    },
    {
      "midi": 70,
      "hit": false,
      "t": 264761.64000000025,
      "d": 1899.7996874999953,
      "v": 80
    },
    {
      "midi": 35,
      "hit": false,
      "t": 264761.64000000106,
      "d": 317.46000000002095,
      "v": 100
    },
    {
      "midi": 75,
      "hit": false,
      "t": 264994.7746875001,
      "d": 124.0078125,
      "v": 64
    },
    {
      "midi": 37,
      "hit": false,
      "t": 264999.7349999986,
      "d": 79.36499999999069,
      "v": 80
    },
    {
      "midi": 37,
      "hit": false,
      "t": 265118.7824999986,
      "d": 79.36499999999069,
      "v": 80
    },
    {
      "midi": 37,
      "hit": false,
      "t": 265237.82999999856,
      "d": 79.36499999999069,
      "v": 80
    },
    {
      "midi": 74,
      "hit": false,
      "t": 265237.8300000001,
      "d": 104.16656250000233,
      "v": 64
    },
    {
      "midi": 35,
      "hit": false,
      "t": 265237.83000000106,
      "d": 317.46000000002095,
      "v": 100
    },
    {
      "midi": 70,
      "hit": false,
      "t": 265470.9646875001,
      "d": 897.8165625000256,
      "v": 64
    },
    {
      "midi": 48,
      "hit": false,
      "t": 265952.11500000005,
      "d": 79.36499999999069,
      "v": 80
    },
    {
      "midi": 48,
      "hit": false,
      "t": 266071.16250000003,
      "d": 79.36499999999069,
      "v": 80
    },
    {
      "midi": 48,
      "hit": false,
      "t": 266190.21,
      "d": 79.36499999999069,
      "v": 80
    },
    {
      "midi": 45,
      "hit": false,
      "t": 266309.2574999999,
      "d": 79.36499999999069,
      "v": 80
    },
    {
      "midi": 45,
      "hit": false,
      "t": 266428.3049999999,
      "d": 79.36499999999069,
      "v": 80
    },
    {
      "midi": 45,
      "hit": false,
      "t": 266547.35249999986,
      "d": 79.36499999999069,
      "v": 80
    },
    {
      "midi": 75,
      "hit": false,
      "t": 266666.4000000001,
      "d": 119.04749999998603,
      "v": 80
    },
    {
      "midi": 41,
      "hit": false,
      "t": 266666.40000000014,
      "d": 79.36499999999069,
      "v": 80
    },
    {
      "midi": 75,
      "hit": false,
      "t": 266666.40000000026,
      "d": 119.04749999998603,
      "v": 80
    },
    {
      "midi": 35,
      "hit": false,
      "t": 266666.4000000011,
      "d": 317.46000000002095,
      "v": 100
    },
    {
      "midi": 37,
      "hit": false,
      "t": 266904.49499999854,
      "d": 79.36499999999069,
      "v": 80
    },
    {
      "midi": 37,
      "hit": false,
      "t": 267023.5424999985,
      "d": 79.36499999999069,
      "v": 80
    },
    {
      "midi": 37,
      "hit": false,
      "t": 267142.5899999985,
      "d": 79.36499999999069,
      "v": 80
    },
    {
      "midi": 75,
      "hit": false,
      "t": 267142.5900000001,
      "d": 119.04749999998603,
      "v": 80
    },
    {
      "midi": 75,
      "hit": false,
      "t": 267142.59000000026,
      "d": 119.04749999998603,
      "v": 80
    },
    {
      "midi": 35,
      "hit": false,
      "t": 267142.5900000011,
      "d": 317.46000000002095,
      "v": 100
    },
    {
      "midi": 70,
      "hit": false,
      "t": 267380.68500000006,
      "d": 119.04749999998603,
      "v": 80
    },
    {
      "midi": 70,
      "hit": false,
      "t": 267380.68500000023,
      "d": 119.04749999998603,
      "v": 80
    },
    {
      "midi": 72,
      "hit": false,
      "t": 267499.73250000004,
      "d": 119.04749999998603,
      "v": 80
    },
    {
      "midi": 72,
      "hit": false,
      "t": 267499.7325000002,
      "d": 119.04749999998603,
      "v": 80
    },
    {
      "midi": 45,
      "hit": false,
      "t": 267618.77999999985,
      "d": 119.04749999998603,
      "v": 80
    },
    {
      "midi": 75,
      "hit": false,
      "t": 267618.78,
      "d": 119.04749999998603,
      "v": 80
    },
    {
      "midi": 48,
      "hit": false,
      "t": 267618.78,
      "d": 119.04749999998603,
      "v": 80
    },
    {
      "midi": 41,
      "hit": false,
      "t": 267618.78000000014,
      "d": 119.04749999998603,
      "v": 80
    },
    {
      "midi": 75,
      "hit": false,
      "t": 267618.7800000002,
      "d": 119.04749999998603,
      "v": 80
    },
    {
      "midi": 35,
      "hit": false,
      "t": 267618.7800000011,
      "d": 119.04749999998603,
      "v": 100
    },
    {
      "midi": 45,
      "hit": false,
      "t": 267737.82749999984,
      "d": 119.04749999998603,
      "v": 80
    },
    {
      "midi": 75,
      "hit": false,
      "t": 267737.8275,
      "d": 119.04749999998603,
      "v": 80
    },
    {
      "midi": 48,
      "hit": false,
      "t": 267737.8275,
      "d": 119.04749999998603,
      "v": 80
    },
    {
      "midi": 41,
      "hit": false,
      "t": 267737.82750000013,
      "d": 119.04749999998603,
      "v": 80
    },
    {
      "midi": 75,
      "hit": false,
      "t": 267737.8275000002,
      "d": 119.04749999998603,
      "v": 80
    },
    {
      "midi": 35,
      "hit": false,
      "t": 267737.82750000106,
      "d": 119.04749999998603,
      "v": 100
    },
    {
      "midi": 45,
      "hit": false,
      "t": 267975.9224999998,
      "d": 119.04749999998603,
      "v": 80
    },
    {
      "midi": 75,
      "hit": false,
      "t": 267975.9225,
      "d": 119.04749999998603,
      "v": 80
    },
    {
      "midi": 48,
      "hit": false,
      "t": 267975.9225,
      "d": 119.04749999998603,
      "v": 80
    },
    {
      "midi": 41,
      "hit": false,
      "t": 267975.9225000001,
      "d": 119.04749999998603,
      "v": 80
    },
    {
      "midi": 75,
      "hit": false,
      "t": 267975.92250000016,
      "d": 119.04749999998603,
      "v": 80
    },
    {
      "midi": 35,
      "hit": false,
      "t": 267975.92250000103,
      "d": 119.04749999998603,
      "v": 100
    },
    {
      "midi": 45,
      "hit": false,
      "t": 268333.06499999977,
      "d": 218.2537499999744,
      "v": 80
    },
    {
      "midi": 75,
      "hit": false,
      "t": 268333.06499999994,
      "d": 218.2537499999744,
      "v": 80
    },
    {
      "midi": 48,
      "hit": false,
      "t": 268333.06499999994,
      "d": 218.2537499999744,
      "v": 80
    },
    {
      "midi": 63,
      "hit": false,
      "t": 268333.06500000006,
      "d": 218.2537499999744,
      "v": 64
    },
    {
      "midi": 41,
      "hit": false,
      "t": 268333.06500000006,
      "d": 218.2537499999744,
      "v": 80
    },
    {
      "midi": 75,
      "hit": false,
      "t": 268333.0650000001,
      "d": 218.2537499999744,
      "v": 80
    },
    {
      "midi": 35,
      "hit": false,
      "t": 268333.065000001,
      "d": 218.2537499999744,
      "v": 100
    }
  ]
}