{
  "jsonPath": "Animes/Ranma ½ MIDI Collection/equal-love.json",
  "path": "Animes\\Ranma ½ MIDI Collection\\Equal love.mid",
  "name": "Equal love",
  "difficulty": "Advanced",
  "bpm": 120,
  "notes": [
    {
      "midi": 48,
      "hit": false,
      "t": 1250,
      "d": 225,
      "v": 100
    },
    {
      "midi": 47,
      "hit": false,
      "t": 1250,
      "d": 225,
      "v": 90
    },
    {
      "midi": 43,
      "hit": false,
      "t": 1500,
      "d": 450,
      "v": 90
    },
    {
      "midi": 69,
      "hit": false,
      "t": 2000,
      "d": 75,
      "v": 100
    },
    {
      "midi": 42,
      "hit": false,
      "t": 2000,
      "d": 225.00000000000045,
      "v": 90
    },
    {
      "midi": 72,
      "hit": false,
      "t": 2000,
      "d": 450.0000000000009,
      "v": 100
    },
    {
      "midi": 76,
      "hit": false,
      "t": 2000,
      "d": 450.0000000000009,
      "v": 100
    },
    {
      "midi": 45,
      "hit": false,
      "t": 2000,
      "d": 675.0000000000014,
      "v": 100
    },
    {
      "midi": 69,
      "hit": false,
      "t": 2083.3333333333335,
      "d": 75,
      "v": 100
    },
    {
      "midi": 69,
      "hit": false,
      "t": 2166.666666666667,
      "d": 75,
      "v": 100
    },
    {
      "midi": 69,
      "hit": false,
      "t": 2250.0000000000005,
      "d": 75,
      "v": 100
    },
    {
      "midi": 64,
      "hit": false,
      "t": 2250.0000000000005,
      "d": 250.00000000000045,
      "v": 100
    },
    {
      "midi": 69,
      "hit": false,
      "t": 2333.333333333334,
      "d": 75,
      "v": 100
    },
    {
      "midi": 69,
      "hit": false,
      "t": 2416.6666666666674,
      "d": 33.333333333333485,
      "v": 100
    },
    {
      "midi": 69,
      "hit": false,
      "t": 2500.000000000001,
      "d": 75,
      "v": 100
    },
    {
      "midi": 42,
      "hit": false,
      "t": 2500.000000000001,
      "d": 225.00000000000045,
      "v": 90
    },
    {
      "midi": 62,
      "hit": false,
      "t": 2500.000000000001,
      "d": 250.00000000000045,
      "v": 100
    },
    {
      "midi": 72,
      "hit": false,
      "t": 2500.000000000001,
      "d": 450.0000000000009,
      "v": 100
    },
    {
      "midi": 76,
      "hit": false,
      "t": 2500.000000000001,
      "d": 450.0000000000009,
      "v": 100
    },
    {
      "midi": 69,
      "hit": false,
      "t": 2583.3333333333344,
      "d": 75,
      "v": 100
    },
    {
      "midi": 69,
      "hit": false,
      "t": 2666.666666666668,
      "d": 75,
      "v": 100
    },
    {
      "midi": 69,
      "hit": false,
      "t": 2750.0000000000014,
      "d": 75,
      "v": 100
    },
    {
      "midi": 45,
      "hit": false,
      "t": 2750.0000000000014,
      "d": 225.00000000000045,
      "v": 100
    },
    {
      "midi": 60,
      "hit": false,
      "t": 2750.0000000000014,
      "d": 250.00000000000045,
      "v": 100
    },
    {
      "midi": 69,
      "hit": false,
      "t": 2833.333333333335,
      "d": 66.66666666666652,
      "v": 100
    },
    {
      "midi": 69,
      "hit": false,
      "t": 2916.6666666666683,
      "d": 33.333333333333485,
      "v": 100
    },
    {
      "midi": 76,
      "hit": false,
      "t": 3000.000000000002,
      "d": 75,
      "v": 100
    },
    {
      "midi": 42,
      "hit": false,
      "t": 3000.000000000002,
      "d": 225.00000000000045,
      "v": 90
    },
    {
      "midi": 45,
      "hit": false,
      "t": 3000.000000000002,
      "d": 450.0000000000009,
      "v": 100
    },
    {
      "midi": 69,
      "hit": false,
      "t": 3000.000000000002,
      "d": 450.0000000000009,
      "v": 100
    },
    {
      "midi": 72,
      "hit": false,
      "t": 3000.000000000002,
      "d": 450.0000000000009,
      "v": 100
    },
    {
      "midi": 57,
      "hit": false,
      "t": 3000.000000000002,
      "d": 500.0000000000009,
      "v": 100
    },
    {
      "midi": 76,
      "hit": false,
      "t": 3083.3333333333353,
      "d": 75,
      "v": 100
    },
    {
      "midi": 76,
      "hit": false,
      "t": 3166.666666666669,
      "d": 75,
      "v": 100
    },
    {
      "midi": 76,
      "hit": false,
      "t": 3250.0000000000023,
      "d": 75,
      "v": 100
    },
    {
      "midi": 76,
      "hit": false,
      "t": 3333.3333333333358,
      "d": 75,
      "v": 100
    },
    {
      "midi": 76,
      "hit": false,
      "t": 3416.6666666666692,
      "d": 33.333333333333485,
      "v": 100
    },
    {
      "midi": 74,
      "hit": false,
      "t": 3500.0000000000027,
      "d": 75,
      "v": 100
    },
    {
      "midi": 42,
      "hit": false,
      "t": 3500.0000000000027,
      "d": 225.00000000000045,
      "v": 90
    },
    {
      "midi": 54,
      "hit": false,
      "t": 3500.0000000000027,
      "d": 225.00000000000045,
      "v": 81
    },
    {
      "midi": 69,
      "hit": false,
      "t": 3500.0000000000027,
      "d": 450.0000000000009,
      "v": 100
    },
    {
      "midi": 72,
      "hit": false,
      "t": 3500.0000000000027,
      "d": 450.0000000000009,
      "v": 100
    },
    {
      "midi": 74,
      "hit": false,
      "t": 3583.333333333336,
      "d": 75,
      "v": 100
    },
    {
      "midi": 74,
      "hit": false,
      "t": 3666.6666666666697,
      "d": 58.333333333333485,
      "v": 100
    },
    {
      "midi": 76,
      "hit": false,
      "t": 3750.000000000003,
      "d": 75,
      "v": 100
    },
    {
      "midi": 76,
      "hit": false,
      "t": 3833.3333333333367,
      "d": 75,
      "v": 100
    },
    {
      "midi": 76,
      "hit": false,
      "t": 3916.66666666667,
      "d": 33.333333333333485,
      "v": 100
    },
    {
      "midi": 74,
      "hit": false,
      "t": 4000.0000000000036,
      "d": 75,
      "v": 100
    },
    {
      "midi": 42,
      "hit": false,
      "t": 4000.0000000000036,
      "d": 225,
      "v": 90
    },
    {
      "midi": 67,
      "hit": false,
      "t": 4000.0000000000036,
      "d": 449.9999999999991,
      "v": 100
    },
    {
      "midi": 71,
      "hit": false,
      "t": 4000.0000000000036,
      "d": 449.9999999999991,
      "v": 100
    },
    {
      "midi": 40,
      "hit": false,
      "t": 4000.0000000000036,
      "d": 674.9999999999982,
      "v": 100
    },
    {
      "midi": 74,
      "hit": false,
      "t": 4083.333333333337,
      "d": 75.00000000000045,
      "v": 100
    },
    {
      "midi": 74,
      "hit": false,
      "t": 4166.666666666671,
      "d": 75,
      "v": 100
    },
    {
      "midi": 74,
      "hit": false,
      "t": 4250.000000000004,
      "d": 75,
      "v": 100
    },
    {
      "midi": 74,
      "hit": false,
      "t": 4333.333333333337,
      "d": 75,
      "v": 100
    },
    {
      "midi": 74,
      "hit": false,
      "t": 4416.66666666667,
      "d": 33.33333333333303,
      "v": 100
    },
    {
      "midi": 71,
      "hit": false,
      "t": 4500.000000000003,
      "d": 75,
      "v": 100
    },
    {
      "midi": 42,
      "hit": false,
      "t": 4500.000000000003,
      "d": 224.9999999999991,
      "v": 90
    },
    {
      "midi": 67,
      "hit": false,
      "t": 4500.000000000003,
      "d": 449.9999999999982,
      "v": 100
    },
    {
      "midi": 74,
      "hit": false,
      "t": 4500.000000000003,
      "d": 449.9999999999982,
      "v": 100
    },
    {
      "midi": 71,
      "hit": false,
      "t": 4583.333333333336,
      "d": 75,
      "v": 100
    },
    {
      "midi": 71,
      "hit": false,
      "t": 4666.666666666669,
      "d": 75,
      "v": 100
    },
    {
      "midi": 71,
      "hit": false,
      "t": 4750.000000000002,
      "d": 75,
      "v": 100
    },
    {
      "midi": 40,
      "hit": false,
      "t": 4750.000000000002,
      "d": 224.9999999999991,
      "v": 100
    },
    {
      "midi": 71,
      "hit": false,
      "t": 4833.333333333335,
      "d": 75,
      "v": 100
    },
    {
      "midi": 71,
      "hit": false,
      "t": 4916.666666666668,
      "d": 33.33333333333303,
      "v": 100
    },
    {
      "midi": 67,
      "hit": false,
      "t": 5000.000000000001,
      "d": 75,
      "v": 100
    },
    {
      "midi": 42,
      "hit": false,
      "t": 5000.000000000001,
      "d": 224.9999999999991,
      "v": 90
    },
    {
      "midi": 43,
      "hit": false,
      "t": 5000.000000000001,
      "d": 449.9999999999982,
      "v": 100
    },
    {
      "midi": 71,
      "hit": false,
      "t": 5000.000000000001,
      "d": 449.9999999999982,
      "v": 100
    },
    {
      "midi": 74,
      "hit": false,
      "t": 5000.000000000001,
      "d": 449.9999999999982,
      "v": 100
    },
    {
      "midi": 67,
      "hit": false,
      "t": 5083.333333333334,
      "d": 75,
      "v": 100
    },
    {
      "midi": 67,
      "hit": false,
      "t": 5166.666666666667,
      "d": 75,
      "v": 100
    },
    {
      "midi": 67,
      "hit": false,
      "t": 5250,
      "d": 75,
      "v": 100
    },
    {
      "midi": 67,
      "hit": false,
      "t": 5333.333333333333,
      "d": 75,
      "v": 100
    },
    {
      "midi": 67,
      "hit": false,
      "t": 5416.666666666666,
      "d": 33.33333333333303,
      "v": 100
    },
    {
      "midi": 67,
      "hit": false,
      "t": 5499.999999999999,
      "d": 75,
      "v": 100
    },
    {
      "midi": 42,
      "hit": false,
      "t": 5499.999999999999,
      "d": 224.9999999999991,
      "v": 90
    },
    {
      "midi": 54,
      "hit": false,
      "t": 5499.999999999999,
      "d": 224.9999999999991,
      "v": 81
    },
    {
      "midi": 47,
      "hit": false,
      "t": 5499.999999999999,
      "d": 449.9999999999982,
      "v": 100
    },
    {
      "midi": 71,
      "hit": false,
      "t": 5499.999999999999,
      "d": 449.9999999999982,
      "v": 100
    },
    {
      "midi": 74,
      "hit": false,
      "t": 5499.999999999999,
      "d": 449.9999999999982,
      "v": 100
    },
    {
      "midi": 67,
      "hit": false,
      "t": 5583.333333333332,
      "d": 75,
      "v": 100
    },
    {
      "midi": 67,
      "hit": false,
      "t": 5666.666666666665,
      "d": 75,
      "v": 100
    },
    {
      "midi": 67,
      "hit": false,
      "t": 5749.999999999998,
      "d": 75,
      "v": 100
    },
    {
      "midi": 67,
      "hit": false,
      "t": 5833.333333333331,
      "d": 66.66666666666697,
      "v": 100
    },
    {
      "midi": 67,
      "hit": false,
      "t": 5916.666666666664,
      "d": 33.33333333333303,
      "v": 100
    },
    {
      "midi": 72,
      "hit": false,
      "t": 5999.999999999997,
      "d": 75,
      "v": 100
    },
    {
      "midi": 42,
      "hit": false,
      "t": 5999.999999999997,
      "d": 224.9999999999991,
      "v": 90
    },
    {
      "midi": 65,
      "hit": false,
      "t": 5999.999999999997,
      "d": 449.9999999999982,
      "v": 100
    },
    {
      "midi": 69,
      "hit": false,
      "t": 5999.999999999997,
      "d": 449.9999999999982,
      "v": 100
    },
    {
      "midi": 41,
      "hit": false,
      "t": 5999.999999999997,
      "d": 674.9999999999973,
      "v": 100
    },
    {
      "midi": 72,
      "hit": false,
      "t": 6083.33333333333,
      "d": 75,
      "v": 100
    },
    {
      "midi": 72,
      "hit": false,
      "t": 6166.666666666663,
      "d": 75,
      "v": 100
    },
    {
      "midi": 72,
      "hit": false,
      "t": 6249.999999999996,
      "d": 75,
      "v": 100
    },
    {
      "midi": 72,
      "hit": false,
      "t": 6333.333333333329,
      "d": 75,
      "v": 100
    },
    {
      "midi": 72,
      "hit": false,
      "t": 6416.666666666662,
      "d": 33.33333333333303,
      "v": 100
    },
    {
      "midi": 72,
      "hit": false,
      "t": 6499.999999999995,
      "d": 75,
      "v": 100
    },
    {
      "midi": 42,
      "hit": false,
      "t": 6499.999999999995,
      "d": 224.9999999999991,
      "v": 90
    },
    {
      "midi": 65,
      "hit": false,
      "t": 6499.999999999995,
      "d": 449.9999999999982,
      "v": 100
    },
    {
      "midi": 69,
      "hit": false,
      "t": 6499.999999999995,
      "d": 449.9999999999982,
      "v": 100
    },
    {
      "midi": 72,
      "hit": false,
      "t": 6583.3333333333285,
      "d": 75,
      "v": 100
    },
    {
      "midi": 72,
      "hit": false,
      "t": 6666.6666666666615,
      "d": 8.33333333333303,
      "v": 100
    },
    {
      "midi": 71,
      "hit": false,
      "t": 6749.9999999999945,
      "d": 75,
      "v": 100
    },
    {
      "midi": 41,
      "hit": false,
      "t": 6749.9999999999945,
      "d": 224.9999999999991,
      "v": 100
    },
    {
      "midi": 71,
      "hit": false,
      "t": 6833.333333333328,
      "d": 75,
      "v": 100
    },
    {
      "midi": 71,
      "hit": false,
      "t": 6916.666666666661,
      "d": 58.33333333333303,
      "v": 100
    },
    {
      "midi": 69,
      "hit": false,
      "t": 6999.999999999994,
      "d": 75,
      "v": 100
    },
    {
      "midi": 42,
      "hit": false,
      "t": 6999.999999999994,
      "d": 224.9999999999991,
      "v": 90
    },
    {
      "midi": 41,
      "hit": false,
      "t": 6999.999999999994,
      "d": 449.9999999999982,
      "v": 100
    },
    {
      "midi": 65,
      "hit": false,
      "t": 6999.999999999994,
      "d": 449.9999999999982,
      "v": 100
    },
    {
      "midi": 72,
      "hit": false,
      "t": 6999.999999999994,
      "d": 449.9999999999982,
      "v": 100
    },
    {
      "midi": 69,
      "hit": false,
      "t": 7083.333333333327,
      "d": 75,
      "v": 100
    },
    {
      "midi": 69,
      "hit": false,
      "t": 7166.66666666666,
      "d": 75,
      "v": 100
    },
    {
      "midi": 69,
      "hit": false,
      "t": 7249.999999999993,
      "d": 75,
      "v": 100
    },
    {
      "midi": 69,
      "hit": false,
      "t": 7333.333333333326,
      "d": 75,
      "v": 100
    },
    {
      "midi": 69,
      "hit": false,
      "t": 7416.666666666659,
      "d": 33.33333333333303,
      "v": 100
    },
    {
      "midi": 69,
      "hit": false,
      "t": 7499.999999999992,
      "d": 75,
      "v": 100
    },
    {
      "midi": 42,
      "hit": false,
      "t": 7499.999999999992,
      "d": 224.9999999999991,
      "v": 90
    },
    {
      "midi": 54,
      "hit": false,
      "t": 7499.999999999992,
      "d": 224.9999999999991,
      "v": 81
    },
    {
      "midi": 65,
      "hit": false,
      "t": 7499.999999999992,
      "d": 449.9999999999982,
      "v": 100
    },
    {
      "midi": 72,
      "hit": false,
      "t": 7499.999999999992,
      "d": 449.9999999999982,
      "v": 100
    },
    {
      "midi": 69,
      "hit": false,
      "t": 7583.333333333325,
      "d": 75,
      "v": 100
    },
    {
      "midi": 69,
      "hit": false,
      "t": 7666.666666666658,
      "d": 75,
      "v": 100
    },
    {
      "midi": 69,
      "hit": false,
      "t": 7749.999999999991,
      "d": 75,
      "v": 100
    },
    {
      "midi": 69,
      "hit": false,
      "t": 7833.333333333324,
      "d": 66.66666666666697,
      "v": 100
    },
    {
      "midi": 69,
      "hit": false,
      "t": 7916.666666666657,
      "d": 33.33333333333303,
      "v": 100
    },
    {
      "midi": 67,
      "hit": false,
      "t": 7999.99999999999,
      "d": 75,
      "v": 100
    },
    {
      "midi": 42,
      "hit": false,
      "t": 7999.99999999999,
      "d": 224.9999999999991,
      "v": 90
    },
    {
      "midi": 72,
      "hit": false,
      "t": 7999.99999999999,
      "d": 450.0000000000009,
      "v": 100
    },
    {
      "midi": 76,
      "hit": false,
      "t": 7999.99999999999,
      "d": 450.0000000000009,
      "v": 100
    },
    {
      "midi": 48,
      "hit": false,
      "t": 7999.99999999999,
      "d": 675.0000000000027,
      "v": 100
    },
    {
      "midi": 67,
      "hit": false,
      "t": 8083.333333333323,
      "d": 75,
      "v": 100
    },
    {
      "midi": 67,
      "hit": false,
      "t": 8166.666666666656,
      "d": 74.99999999999909,
      "v": 100
    },
    {
      "midi": 67,
      "hit": false,
      "t": 8249.999999999989,
      "d": 75,
      "v": 100
    },
    {
      "midi": 67,
      "hit": false,
      "t": 8333.333333333323,
      "d": 75,
      "v": 100
    },
    {
      "midi": 67,
      "hit": false,
      "t": 8416.666666666657,
      "d": 33.33333333333394,
      "v": 100
    },
    {
      "midi": 69,
      "hit": false,
      "t": 8499.99999999999,
      "d": 75,
      "v": 100
    },
    {
      "midi": 42,
      "hit": false,
      "t": 8499.99999999999,
      "d": 225.00000000000182,
      "v": 90
    },
    {
      "midi": 76,
      "hit": false,
      "t": 8499.99999999999,
      "d": 450.00000000000364,
      "v": 100
    },
    {
      "midi": 72,
      "hit": false,
      "t": 8499.99999999999,
      "d": 450.00000000000364,
      "v": 100
    },
    {
      "midi": 67,
      "hit": false,
      "t": 8499.99999999999,
      "d": 450.00000000000364,
      "v": 100
    },
    {
      "midi": 69,
      "hit": false,
      "t": 8583.333333333325,
      "d": 75,
      "v": 100
    },
    {
      "midi": 69,
      "hit": false,
      "t": 8666.666666666659,
      "d": 75,
      "v": 100
    },
    {
      "midi": 69,
      "hit": false,
      "t": 8749.999999999993,
      "d": 75,
      "v": 100
    },
    {
      "midi": 48,
      "hit": false,
      "t": 8749.999999999993,
      "d": 225.00000000000182,
      "v": 100
    },
    {
      "midi": 69,
      "hit": false,
      "t": 8833.333333333327,
      "d": 75,
      "v": 100
    },
    {
      "midi": 69,
      "hit": false,
      "t": 8916.66666666666,
      "d": 33.33333333333394,
      "v": 100
    },
    {
      "midi": 72,
      "hit": false,
      "t": 8999.999999999995,
      "d": 75,
      "v": 100
    },
    {
      "midi": 42,
      "hit": false,
      "t": 8999.999999999995,
      "d": 225.00000000000182,
      "v": 90
    },
    {
      "midi": 48,
      "hit": false,
      "t": 8999.999999999995,
      "d": 450.00000000000364,
      "v": 100
    },
    {
      "midi": 76,
      "hit": false,
      "t": 8999.999999999995,
      "d": 450.00000000000364,
      "v": 100
    },
    {
      "midi": 67,
      "hit": false,
      "t": 8999.999999999995,
      "d": 450.00000000000364,
      "v": 100
    },
    {
      "midi": 72,
      "hit": false,
      "t": 9083.333333333328,
      "d": 75,
      "v": 100
    },
    {
      "midi": 72,
      "hit": false,
      "t": 9166.666666666662,
      "d": 75,
      "v": 100
    },
    {
      "midi": 72,
      "hit": false,
      "t": 9249.999999999996,
      "d": 75,
      "v": 100
    },
    {
      "midi": 72,
      "hit": false,
      "t": 9333.33333333333,
      "d": 75,
      "v": 100
    },
    {
      "midi": 72,
      "hit": false,
      "t": 9416.666666666664,
      "d": 33.33333333333394,
      "v": 100
    },
    {
      "midi": 74,
      "hit": false,
      "t": 9499.999999999998,
      "d": 75,
      "v": 100
    },
    {
      "midi": 42,
      "hit": false,
      "t": 9499.999999999998,
      "d": 225.00000000000182,
      "v": 90
    },
    {
      "midi": 54,
      "hit": false,
      "t": 9499.999999999998,
      "d": 225.00000000000182,
      "v": 80
    },
    {
      "midi": 47,
      "hit": false,
      "t": 9499.999999999998,
      "d": 450.00000000000364,
      "v": 100
    },
    {
      "midi": 67,
      "hit": false,
      "t": 9499.999999999998,
      "d": 450.00000000000364,
      "v": 100
    },
    {
      "midi": 71,
      "hit": false,
      "t": 9499.999999999998,
      "d": 450.00000000000364,
      "v": 100
    },
    {
      "midi": 74,
      "hit": false,
      "t": 9583.333333333332,
      "d": 75,
      "v": 100
    },
    {
      "midi": 74,
      "hit": false,
      "t": 9666.666666666666,
      "d": 75,
      "v": 100
    },
    {
      "midi": 74,
      "hit": false,
      "t": 9750,
      "d": 75,
      "v": 100
    },
    {
      "midi": 74,
      "hit": false,
      "t": 9833.333333333334,
      "d": 75,
      "v": 100
    },
    {
      "midi": 74,
      "hit": false,
      "t": 9916.666666666668,
      "d": 33.33333333333394,
      "v": 100
    },
    {
      "midi": 69,
      "hit": false,
      "t": 10000.000000000002,
      "d": 75,
      "v": 100
    },
    {
      "midi": 42,
      "hit": false,
      "t": 10000.000000000002,
      "d": 225.00000000000182,
      "v": 90
    },
    {
      "midi": 72,
      "hit": false,
      "t": 10000.000000000002,
      "d": 450.00000000000364,
      "v": 100
    },
    {
      "midi": 76,
      "hit": false,
      "t": 10000.000000000002,
      "d": 450.00000000000364,
      "v": 100
    },
    {
      "midi": 45,
      "hit": false,
      "t": 10000.000000000002,
      "d": 675.0000000000055,
      "v": 100
    },
    {
      "midi": 69,
      "hit": false,
      "t": 10083.333333333336,
      "d": 75,
      "v": 100
    },
    {
      "midi": 69,
      "hit": false,
      "t": 10166.66666666667,
      "d": 75,
      "v": 100
    },
    {
      "midi": 69,
      "hit": false,
      "t": 10250.000000000004,
      "d": 75,
      "v": 100
    },
    {
      "midi": 64,
      "hit": false,
      "t": 10250.000000000004,
      "d": 250.00000000000182,
      "v": 100
    },
    {
      "midi": 69,
      "hit": false,
      "t": 10333.333333333338,
      "d": 75,
      "v": 100
    },
    {
      "midi": 69,
      "hit": false,
      "t": 10416.666666666672,
      "d": 33.33333333333394,
      "v": 100
    },
    {
      "midi": 69,
      "hit": false,
      "t": 10500.000000000005,
      "d": 75,
      "v": 100
    },
    {
      "midi": 42,
      "hit": false,
      "t": 10500.000000000005,
      "d": 225.00000000000182,
      "v": 90
    },
    {
      "midi": 62,
      "hit": false,
      "t": 10500.000000000005,
      "d": 250.00000000000182,
      "v": 100
    },
    {
      "midi": 72,
      "hit": false,
      "t": 10500.000000000005,
      "d": 450.00000000000364,
      "v": 100
    },
    {
      "midi": 76,
      "hit": false,
      "t": 10500.000000000005,
      "d": 450.00000000000364,
      "v": 100
    },
    {
      "midi": 69,
      "hit": false,
      "t": 10583.33333333334,
      "d": 75,
      "v": 100
    },
    {
      "midi": 69,
      "hit": false,
      "t": 10666.666666666673,
      "d": 75,
      "v": 100
    },
    {
      "midi": 69,
      "hit": false,
      "t": 10750.000000000007,
      "d": 75,
      "v": 100
    },
    {
      "midi": 45,
      "hit": false,
      "t": 10750.000000000007,
      "d": 225.00000000000182,
      "v": 100
    },
    {
      "midi": 60,
      "hit": false,
      "t": 10750.000000000007,
      "d": 250.00000000000182,
      "v": 100
    },
    {
      "midi": 69,
      "hit": false,
      "t": 10833.333333333341,
      "d": 66.66666666666606,
      "v": 100
    },
    {
      "midi": 69,
      "hit": false,
      "t": 10916.666666666675,
      "d": 33.33333333333394,
      "v": 100
    },
    {
      "midi": 76,
      "hit": false,
      "t": 11000.00000000001,
      "d": 75,
      "v": 100
    },
    {
      "midi": 42,
      "hit": false,
      "t": 11000.00000000001,
      "d": 225.00000000000182,
      "v": 90
    },
    {
      "midi": 45,
      "hit": false,
      "t": 11000.00000000001,
      "d": 450.00000000000364,
      "v": 100
    },
    {
      "midi": 69,
      "hit": false,
      "t": 11000.00000000001,
      "d": 450.00000000000364,
      "v": 100
    },
    {
      "midi": 72,
      "hit": false,
      "t": 11000.00000000001,
      "d": 450.00000000000364,
      "v": 100
    },
    {
      "midi": 57,
      "hit": false,
      "t": 11000.00000000001,
      "d": 500.00000000000364,
      "v": 100
    },
    {
      "midi": 76,
      "hit": false,
      "t": 11083.333333333343,
      "d": 75,
      "v": 100
    },
    {
      "midi": 76,
      "hit": false,
      "t": 11166.666666666677,
      "d": 75,
      "v": 100
    },
    {
      "midi": 76,
      "hit": false,
      "t": 11250.000000000011,
      "d": 75,
      "v": 100
    },
    {
      "midi": 76,
      "hit": false,
      "t": 11333.333333333345,
      "d": 75,
      "v": 100
    },
    {
      "midi": 76,
      "hit": false,
      "t": 11416.666666666679,
      "d": 33.33333333333394,
      "v": 100
    },
    {
      "midi": 74,
      "hit": false,
      "t": 11500.000000000013,
      "d": 75,
      "v": 100
    },
    {
      "midi": 42,
      "hit": false,
      "t": 11500.000000000013,
      "d": 225.00000000000182,
      "v": 90
    },
    {
      "midi": 54,
      "hit": false,
      "t": 11500.000000000013,
      "d": 225.00000000000182,
      "v": 81
    },
    {
      "midi": 69,
      "hit": false,
      "t": 11500.000000000013,
      "d": 450.00000000000364,
      "v": 100
    },
    {
      "midi": 72,
      "hit": false,
      "t": 11500.000000000013,
      "d": 450.00000000000364,
      "v": 100
    },
    {
      "midi": 74,
      "hit": false,
      "t": 11583.333333333347,
      "d": 75,
      "v": 100
    },
    {
      "midi": 74,
      "hit": false,
      "t": 11666.66666666668,
      "d": 58.33333333333394,
      "v": 100
    },
    {
      "midi": 76,
      "hit": false,
      "t": 11750.000000000015,
      "d": 75,
      "v": 100
    },
    {
      "midi": 76,
      "hit": false,
      "t": 11833.333333333348,
      "d": 75,
      "v": 100
    },
    {
      "midi": 76,
      "hit": false,
      "t": 11916.666666666682,
      "d": 33.33333333333394,
      "v": 100
    },
    {
      "midi": 79,
      "hit": false,
      "t": 12000.000000000016,
      "d": 75,
      "v": 100
    },
    {
      "midi": 42,
      "hit": false,
      "t": 12000.000000000016,
      "d": 225.00000000000182,
      "v": 90
    },
    {
      "midi": 67,
      "hit": false,
      "t": 12000.000000000016,
      "d": 450.00000000000364,
      "v": 100
    },
    {
      "midi": 71,
      "hit": false,
      "t": 12000.000000000016,
      "d": 450.00000000000364,
      "v": 100
    },
    {
      "midi": 74,
      "hit": false,
      "t": 12000.000000000016,
      "d": 450.00000000000364,
      "v": 100
    },
    {
      "midi": 40,
      "hit": false,
      "t": 12000.000000000016,
      "d": 675.0000000000055,
      "v": 100
    },
    {
      "midi": 79,
      "hit": false,
      "t": 12083.33333333335,
      "d": 75,
      "v": 100
    },
    {
      "midi": 79,
      "hit": false,
      "t": 12166.666666666684,
      "d": 75,
      "v": 100
    },
    {
      "midi": 79,
      "hit": false,
      "t": 12250.000000000018,
      "d": 75,
      "v": 100
    },
    {
      "midi": 79,
      "hit": false,
      "t": 12333.333333333352,
      "d": 75,
      "v": 100
    },
    {
      "midi": 79,
      "hit": false,
      "t": 12416.666666666686,
      "d": 33.33333333333394,
      "v": 100
    },
    {
      "midi": 76,
      "hit": false,
      "t": 12500.00000000002,
      "d": 75,
      "v": 100
    },
    {
      "midi": 42,
      "hit": false,
      "t": 12500.00000000002,
      "d": 225.00000000000182,
      "v": 90
    },
    {
      "midi": 67,
      "hit": false,
      "t": 12500.00000000002,
      "d": 450.00000000000364,
      "v": 100
    },
    {
      "midi": 71,
      "hit": false,
      "t": 12500.00000000002,
      "d": 450.00000000000364,
      "v": 100
    },
    {
      "midi": 74,
      "hit": false,
      "t": 12500.00000000002,
      "d": 450.00000000000364,
      "v": 100
    },
    {
      "midi": 76,
      "hit": false,
      "t": 12583.333333333354,
      "d": 75,
      "v": 100
    },
    {
      "midi": 76,
      "hit": false,
      "t": 12666.666666666688,
      "d": 75,
      "v": 100
    },
    {
      "midi": 76,
      "hit": false,
      "t": 12750.000000000022,
      "d": 75,
      "v": 100
    },
    {
      "midi": 40,
      "hit": false,
      "t": 12750.000000000022,
      "d": 225.00000000000182,
      "v": 100
    },
    {
      "midi": 76,
      "hit": false,
      "t": 12833.333333333356,
      "d": 75,
      "v": 100
    },
    {
      "midi": 76,
      "hit": false,
      "t": 12916.66666666669,
      "d": 33.33333333333394,
      "v": 100
    },
    {
      "midi": 74,
      "hit": false,
      "t": 13000.000000000024,
      "d": 75,
      "v": 100
    },
    {
      "midi": 42,
      "hit": false,
      "t": 13000.000000000024,
      "d": 225.00000000000182,
      "v": 90
    },
    {
      "midi": 43,
      "hit": false,
      "t": 13000.000000000024,
      "d": 450.00000000000364,
      "v": 100
    },
    {
      "midi": 67,
      "hit": false,
      "t": 13000.000000000024,
      "d": 450.00000000000364,
      "v": 100
    },
    {
      "midi": 71,
      "hit": false,
      "t": 13000.000000000024,
      "d": 450.00000000000364,
      "v": 100
    },
    {
      "midi": 74,
      "hit": false,
      "t": 13083.333333333358,
      "d": 75,
      "v": 100
    },
    {
      "midi": 74,
      "hit": false,
      "t": 13166.666666666692,
      "d": 75,
      "v": 100
    },
    {
      "midi": 74,
      "hit": false,
      "t": 13250.000000000025,
      "d": 75,
      "v": 100
    },
    {
      "midi": 74,
      "hit": false,
      "t": 13333.33333333336,
      "d": 75,
      "v": 100
    },
    {
      "midi": 74,
      "hit": false,
      "t": 13416.666666666693,
      "d": 33.33333333333394,
      "v": 100
    },
    {
      "midi": 76,
      "hit": false,
      "t": 13500.000000000027,
      "d": 75,
      "v": 100
    },
    {
      "midi": 42,
      "hit": false,
      "t": 13500.000000000027,
      "d": 225.00000000000182,
      "v": 90
    },
    {
      "midi": 54,
      "hit": false,
      "t": 13500.000000000027,
      "d": 225.00000000000182,
      "v": 80
    },
    {
      "midi": 47,
      "hit": false,
      "t": 13500.000000000027,
      "d": 450.00000000000364,
      "v": 100
    },
    {
      "midi": 67,
      "hit": false,
      "t": 13500.000000000027,
      "d": 450.00000000000364,
      "v": 100
    },
    {
      "midi": 71,
      "hit": false,
      "t": 13500.000000000027,
      "d": 450.00000000000364,
      "v": 100
    },
    {
      "midi": 74,
      "hit": false,
      "t": 13500.000000000027,
      "d": 450.00000000000364,
      "v": 100
    },
    {
      "midi": 76,
      "hit": false,
      "t": 13583.333333333361,
      "d": 75,
      "v": 100
    },
    {
      "midi": 76,
      "hit": false,
      "t": 13666.666666666695,
      "d": 75,
      "v": 100
    },
    {
      "midi": 76,
      "hit": false,
      "t": 13750.00000000003,
      "d": 75,
      "v": 100
    },
    {
      "midi": 76,
      "hit": false,
      "t": 13833.333333333363,
      "d": 75,
      "v": 100
    },
    {
      "midi": 76,
      "hit": false,
      "t": 13916.666666666697,
      "d": 33.33333333333394,
      "v": 100
    },
    {
      "midi": 81,
      "hit": false,
      "t": 14000.000000000031,
      "d": 75,
      "v": 100
    },
    {
      "midi": 42,
      "hit": false,
      "t": 14000.000000000031,
      "d": 225.00000000000182,
      "v": 90
    },
    {
      "midi": 69,
      "hit": false,
      "t": 14000.000000000031,
      "d": 450.00000000000364,
      "v": 100
    },
    {
      "midi": 72,
      "hit": false,
      "t": 14000.000000000031,
      "d": 450.00000000000364,
      "v": 100
    },
    {
      "midi": 76,
      "hit": false,
      "t": 14000.000000000031,
      "d": 450.00000000000364,
      "v": 100
    },
    {
      "midi": 41,
      "hit": false,
      "t": 14000.000000000031,
      "d": 675.0000000000055,
      "v": 100
    },
    {
      "midi": 81,
      "hit": false,
      "t": 14083.333333333365,
      "d": 75,
      "v": 100
    },
    {
      "midi": 81,
      "hit": false,
      "t": 14166.666666666699,
      "d": 75,
      "v": 100
    },
    {
      "midi": 81,
      "hit": false,
      "t": 14250.000000000033,
      "d": 75,
      "v": 100
    },
    {
      "midi": 81,
      "hit": false,
      "t": 14333.333333333367,
      "d": 75,
      "v": 100
    },
    {
      "midi": 81,
      "hit": false,
      "t": 14416.6666666667,
      "d": 75,
      "v": 100
    },
    {
      "midi": 81,
      "hit": false,
      "t": 14500.000000000035,
      "d": 75,
      "v": 100
    },
    {
      "midi": 42,
      "hit": false,
      "t": 14500.000000000035,
      "d": 225.00000000000182,
      "v": 90
    },
    {
      "midi": 69,
      "hit": false,
      "t": 14500.000000000035,
      "d": 450.00000000000364,
      "v": 100
    },
    {
      "midi": 72,
      "hit": false,
      "t": 14500.000000000035,
      "d": 450.00000000000364,
      "v": 100
    },
    {
      "midi": 76,
      "hit": false,
      "t": 14500.000000000035,
      "d": 450.00000000000364,
      "v": 100
    },
    {
      "midi": 81,
      "hit": false,
      "t": 14583.333333333369,
      "d": 75,
      "v": 100
    },
    {
      "midi": 81,
      "hit": false,
      "t": 14666.666666666702,
      "d": 75,
      "v": 100
    },
    {
      "midi": 81,
      "hit": false,
      "t": 14750.000000000036,
      "d": 75,
      "v": 100
    },
    {
      "midi": 41,
      "hit": false,
      "t": 14750.000000000036,
      "d": 225.00000000000182,
      "v": 100
    },
    {
      "midi": 81,
      "hit": false,
      "t": 14833.33333333337,
      "d": 75,
      "v": 100
    },
    {
      "midi": 81,
      "hit": false,
      "t": 14916.666666666704,
      "d": 75,
      "v": 100
    },
    {
      "midi": 81,
      "hit": false,
      "t": 15000.000000000038,
      "d": 75,
      "v": 100
    },
    {
      "midi": 42,
      "hit": false,
      "t": 15000.000000000038,
      "d": 225.00000000000182,
      "v": 90
    },
    {
      "midi": 41,
      "hit": false,
      "t": 15000.000000000038,
      "d": 450.00000000000364,
      "v": 100
    },
    {
      "midi": 69,
      "hit": false,
      "t": 15000.000000000038,
      "d": 450.00000000000364,
      "v": 100
    },
    {
      "midi": 72,
      "hit": false,
      "t": 15000.000000000038,
      "d": 450.00000000000364,
      "v": 100
    },
    {
      "midi": 76,
      "hit": false,
      "t": 15000.000000000038,
      "d": 450.00000000000364,
      "v": 100
    },
    {
      "midi": 81,
      "hit": false,
      "t": 15083.333333333372,
      "d": 75,
      "v": 100
    },
    {
      "midi": 81,
      "hit": false,
      "t": 15166.666666666706,
      "d": 75,
      "v": 100
    },
    {
      "midi": 81,
      "hit": false,
      "t": 15250.00000000004,
      "d": 75,
      "v": 100
    },
    {
      "midi": 81,
      "hit": false,
      "t": 15333.333333333374,
      "d": 75,
      "v": 100
    },
    {
      "midi": 81,
      "hit": false,
      "t": 15416.666666666708,
      "d": 75,
      "v": 100
    },
    {
      "midi": 81,
      "hit": false,
      "t": 15500.000000000042,
      "d": 75,
      "v": 100
    },
    {
      "midi": 42,
      "hit": false,
      "t": 15500.000000000042,
      "d": 225.00000000000182,
      "v": 90
    },
    {
      "midi": 54,
      "hit": false,
      "t": 15500.000000000042,
      "d": 225.00000000000182,
      "v": 80
    },
    {
      "midi": 69,
      "hit": false,
      "t": 15500.000000000042,
      "d": 450.00000000000364,
      "v": 100
    },
    {
      "midi": 72,
      "hit": false,
      "t": 15500.000000000042,
      "d": 450.00000000000364,
      "v": 100
    },
    {
      "midi": 76,
      "hit": false,
      "t": 15500.000000000042,
      "d": 450.00000000000364,
      "v": 100
    },
    {
      "midi": 81,
      "hit": false,
      "t": 15583.333333333376,
      "d": 75,
      "v": 100
    },
    {
      "midi": 81,
      "hit": false,
      "t": 15666.66666666671,
      "d": 75,
      "v": 100
    },
    {
      "midi": 81,
      "hit": false,
      "t": 15750.000000000044,
      "d": 50,
      "v": 100
    },
    {
      "midi": 81,
      "hit": false,
      "t": 15833.333333333378,
      "d": 75,
      "v": 100
    },
    {
      "midi": 81,
      "hit": false,
      "t": 15916.666666666712,
      "d": 75,
      "v": 100
    },
    {
      "midi": 83,
      "hit": false,
      "t": 16000.000000000045,
      "d": 75,
      "v": 100
    },
    {
      "midi": 42,
      "hit": false,
      "t": 16000.000000000045,
      "d": 225.00000000000182,
      "v": 90
    },
    {
      "midi": 67,
      "hit": false,
      "t": 16000.000000000045,
      "d": 449.9999999999982,
      "v": 100
    },
    {
      "midi": 71,
      "hit": false,
      "t": 16000.000000000045,
      "d": 449.9999999999982,
      "v": 100
    },
    {
      "midi": 74,
      "hit": false,
      "t": 16000.000000000045,
      "d": 449.9999999999982,
      "v": 100
    },
    {
      "midi": 43,
      "hit": false,
      "t": 16000.000000000045,
      "d": 674.9999999999945,
      "v": 100
    },
    {
      "midi": 83,
      "hit": false,
      "t": 16083.33333333338,
      "d": 75,
      "v": 100
    },
    {
      "midi": 83,
      "hit": false,
      "t": 16166.666666666713,
      "d": 75,
      "v": 100
    },
    {
      "midi": 83,
      "hit": false,
      "t": 16250.000000000047,
      "d": 75,
      "v": 100
    },
    {
      "midi": 83,
      "hit": false,
      "t": 16333.333333333381,
      "d": 74.99999999999818,
      "v": 100
    },
    {
      "midi": 83,
      "hit": false,
      "t": 16416.66666666671,
      "d": 75,
      "v": 100
    },
    {
      "midi": 83,
      "hit": false,
      "t": 16500.000000000044,
      "d": 75,
      "v": 100
    },
    {
      "midi": 42,
      "hit": false,
      "t": 16500.000000000044,
      "d": 224.99999999999636,
      "v": 90
    },
    {
      "midi": 67,
      "hit": false,
      "t": 16500.000000000044,
      "d": 449.9999999999927,
      "v": 100
    },
    {
      "midi": 71,
      "hit": false,
      "t": 16500.000000000044,
      "d": 449.9999999999927,
      "v": 100
    },
    {
      "midi": 74,
      "hit": false,
      "t": 16500.000000000044,
      "d": 449.9999999999927,
      "v": 100
    },
    {
      "midi": 83,
      "hit": false,
      "t": 16583.333333333376,
      "d": 75,
      "v": 100
    },
    {
      "midi": 83,
      "hit": false,
      "t": 16666.666666666708,
      "d": 75,
      "v": 100
    },
    {
      "midi": 83,
      "hit": false,
      "t": 16750.00000000004,
      "d": 75,
      "v": 100
    },
    {
      "midi": 43,
      "hit": false,
      "t": 16750.00000000004,
      "d": 224.99999999999636,
      "v": 100
    },
    {
      "midi": 83,
      "hit": false,
      "t": 16833.333333333372,
      "d": 75,
      "v": 100
    },
    {
      "midi": 83,
      "hit": false,
      "t": 16916.666666666704,
      "d": 75,
      "v": 100
    },
    {
      "midi": 83,
      "hit": false,
      "t": 17000.000000000036,
      "d": 75,
      "v": 100
    },
    {
      "midi": 42,
      "hit": false,
      "t": 17000.000000000036,
      "d": 224.99999999999636,
      "v": 90
    },
    {
      "midi": 43,
      "hit": false,
      "t": 17000.000000000036,
      "d": 449.9999999999927,
      "v": 100
    },
    {
      "midi": 67,
      "hit": false,
      "t": 17000.000000000036,
      "d": 449.9999999999927,
      "v": 100
    },
    {
      "midi": 71,
      "hit": false,
      "t": 17000.000000000036,
      "d": 449.9999999999927,
      "v": 100
    },
    {
      "midi": 74,
      "hit": false,
      "t": 17000.000000000036,
      "d": 449.9999999999927,
      "v": 100
    },
    {
      "midi": 83,
      "hit": false,
      "t": 17083.33333333337,
      "d": 75,
      "v": 100
    },
    {
      "midi": 83,
      "hit": false,
      "t": 17166.6666666667,
      "d": 75,
      "v": 100
    },
    {
      "midi": 83,
      "hit": false,
      "t": 17250.000000000033,
      "d": 75,
      "v": 100
    },
    {
      "midi": 83,
      "hit": false,
      "t": 17333.333333333365,
      "d": 75,
      "v": 100
    },
    {
      "midi": 83,
      "hit": false,
      "t": 17416.666666666697,
      "d": 75,
      "v": 100
    },
    {
      "midi": 83,
      "hit": false,
      "t": 17500.00000000003,
      "d": 75,
      "v": 100
    },
    {
      "midi": 42,
      "hit": false,
      "t": 17500.00000000003,
      "d": 224.99999999999636,
      "v": 90
    },
    {
      "midi": 54,
      "hit": false,
      "t": 17500.00000000003,
      "d": 224.99999999999636,
      "v": 81
    },
    {
      "midi": 67,
      "hit": false,
      "t": 17500.00000000003,
      "d": 449.9999999999927,
      "v": 100
    },
    {
      "midi": 71,
      "hit": false,
      "t": 17500.00000000003,
      "d": 449.9999999999927,
      "v": 100
    },
    {
      "midi": 74,
      "hit": false,
      "t": 17500.00000000003,
      "d": 449.9999999999927,
      "v": 100
    },
    {
      "midi": 76,
      "hit": false,
      "t": 17500.00000000003,
      "d": 449.9999999999927,
      "v": 100
    },
    {
      "midi": 83,
      "hit": false,
      "t": 17583.33333333336,
      "d": 75,
      "v": 100
    },
    {
      "midi": 83,
      "hit": false,
      "t": 17666.666666666693,
      "d": 75,
      "v": 100
    },
    {
      "midi": 83,
      "hit": false,
      "t": 17750.000000000025,
      "d": 50,
      "v": 100
    },
    {
      "midi": 83,
      "hit": false,
      "t": 17833.333333333358,
      "d": 75,
      "v": 100
    },
    {
      "midi": 83,
      "hit": false,
      "t": 17916.66666666669,
      "d": 75,
      "v": 100
    },
    {
      "midi": 42,
      "hit": false,
      "t": 18000.000000000022,
      "d": 225,
      "v": 90
    },
    {
      "midi": 45,
      "hit": false,
      "t": 18000.000000000022,
      "d": 750,
      "v": 100
    },
    {
      "midi": 81,
      "hit": false,
      "t": 18000.000000000022,
      "d": 900,
      "v": 100
    },
    {
      "midi": 64,
      "hit": false,
      "t": 18000.000000000022,
      "d": 900,
      "v": 100
    },
    {
      "midi": 60,
      "hit": false,
      "t": 18000.000000000022,
      "d": 2000,
      "v": 100
    },
    {
      "midi": 57,
      "hit": false,
      "t": 18000.000000000022,
      "d": 2000,
      "v": 100
    },
    {
      "midi": 42,
      "hit": false,
      "t": 18500.000000000022,
      "d": 225,
      "v": 90
    },
    {
      "midi": 84,
      "hit": false,
      "t": 18500.000000000022,
      "d": 225,
      "v": 100
    },
    {
      "midi": 88,
      "hit": false,
      "t": 18500.000000000022,
      "d": 225,
      "v": 100
    },
    {
      "midi": 84,
      "hit": false,
      "t": 18750.000000000022,
      "d": 225,
      "v": 100
    },
    {
      "midi": 88,
      "hit": false,
      "t": 18750.000000000022,
      "d": 225,
      "v": 100
    },
    {
      "midi": 45,
      "hit": false,
      "t": 18750.000000000022,
      "d": 250,
      "v": 100
    },
    {
      "midi": 42,
      "hit": false,
      "t": 19000.000000000022,
      "d": 225,
      "v": 90
    },
    {
      "midi": 45,
      "hit": false,
      "t": 19000.000000000022,
      "d": 500,
      "v": 100
    },
    {
      "midi": 42,
      "hit": false,
      "t": 19500.000000000022,
      "d": 225,
      "v": 90
    },
    {
      "midi": 42,
      "hit": false,
      "t": 20000.000000000022,
      "d": 225,
      "v": 90
    },
    {
      "midi": 47,
      "hit": false,
      "t": 20000.000000000022,
      "d": 750,
      "v": 100
    },
    {
      "midi": 55,
      "hit": false,
      "t": 20000.000000000022,
      "d": 2000,
      "v": 100
    },
    {
      "midi": 59,
      "hit": false,
      "t": 20000.000000000022,
      "d": 2000,
      "v": 100
    },
    {
      "midi": 62,
      "hit": false,
      "t": 20000.000000000022,
      "d": 2000,
      "v": 100
    },
    {
      "midi": 79,
      "hit": false,
      "t": 20250.000000000022,
      "d": 225,
      "v": 100
    },
    {
      "midi": 79,
      "hit": false,
      "t": 20500.000000000022,
      "d": 225,
      "v": 100
    },
    {
      "midi": 42,
      "hit": false,
      "t": 20500.000000000022,
      "d": 225,
      "v": 90
    },
    {
      "midi": 86,
      "hit": false,
      "t": 20500.000000000022,
      "d": 225,
      "v": 100
    },
    {
      "midi": 83,
      "hit": false,
      "t": 20500.000000000022,
      "d": 225,
      "v": 100
    },
    {
      "midi": 79,
      "hit": false,
      "t": 20750.000000000022,
      "d": 225,
      "v": 100
    },
    {
      "midi": 83,
      "hit": false,
      "t": 20750.000000000022,
      "d": 225,
      "v": 100
    },
    {
      "midi": 86,
      "hit": false,
      "t": 20750.000000000022,
      "d": 225,
      "v": 100
    },
    {
      "midi": 47,
      "hit": false,
      "t": 20750.000000000022,
      "d": 250,
      "v": 100
    },
    {
      "midi": 79,
      "hit": false,
      "t": 21000.000000000022,
      "d": 225,
      "v": 100
    },
    {
      "midi": 42,
      "hit": false,
      "t": 21000.000000000022,
      "d": 225,
      "v": 90
    },
    {
      "midi": 47,
      "hit": false,
      "t": 21000.000000000022,
      "d": 500,
      "v": 100
    },
    {
      "midi": 79,
      "hit": false,
      "t": 21250.000000000022,
      "d": 225,
      "v": 100
    },
    {
      "midi": 81,
      "hit": false,
      "t": 21500.000000000022,
      "d": 225,
      "v": 100
    },
    {
      "midi": 42,
      "hit": false,
      "t": 21500.000000000022,
      "d": 225,
      "v": 90
    },
    {
      "midi": 54,
      "hit": false,
      "t": 21500.000000000022,
      "d": 225,
      "v": 81
    },
    {
      "midi": 79,
      "hit": false,
      "t": 21750.000000000022,
      "d": 225,
      "v": 100
    },
    {
      "midi": 42,
      "hit": false,
      "t": 22000.000000000022,
      "d": 225,
      "v": 90
    },
    {
      "midi": 76,
      "hit": false,
      "t": 22000.000000000022,
      "d": 450,
      "v": 100
    },
    {
      "midi": 48,
      "hit": false,
      "t": 22000.000000000022,
      "d": 750,
      "v": 100
    },
    {
      "midi": 55,
      "hit": false,
      "t": 22000.000000000022,
      "d": 4000,
      "v": 100
    },
    {
      "midi": 60,
      "hit": false,
      "t": 22000.000000000022,
      "d": 4000,
      "v": 100
    },
    {
      "midi": 64,
      "hit": false,
      "t": 22000.000000000022,
      "d": 4000,
      "v": 100
    },
    {
      "midi": 42,
      "hit": false,
      "t": 22500.000000000022,
      "d": 225,
      "v": 90
    },
    {
      "midi": 84,
      "hit": false,
      "t": 22500.000000000022,
      "d": 225,
      "v": 100
    },
    {
      "midi": 88,
      "hit": false,
      "t": 22500.000000000022,
      "d": 225,
      "v": 100
    },
    {
      "midi": 74,
      "hit": false,
      "t": 22500.000000000022,
      "d": 450,
      "v": 100
    },
    {
      "midi": 84,
      "hit": false,
      "t": 22750.000000000022,
      "d": 225,
      "v": 100
    },
    {
      "midi": 88,
      "hit": false,
      "t": 22750.000000000022,
      "d": 225,
      "v": 100
    },
    {
      "midi": 48,
      "hit": false,
      "t": 22750.000000000022,
      "d": 250,
      "v": 100
    },
    {
      "midi": 42,
      "hit": false,
      "t": 23000.000000000022,
      "d": 225,
      "v": 90
    },
    {
      "midi": 72,
      "hit": false,
      "t": 23000.000000000022,
      "d": 450,
      "v": 100
    },
    {
      "midi": 48,
      "hit": false,
      "t": 23000.000000000022,
      "d": 500,
      "v": 100
    },
    {
      "midi": 74,
      "hit": false,
      "t": 23500.000000000022,
      "d": 225,
      "v": 100
    },
    {
      "midi": 42,
      "hit": false,
      "t": 23500.000000000022,
      "d": 225,
      "v": 90
    },
    {
      "midi": 76,
      "hit": false,
      "t": 23750.000000000022,
      "d": 1150,
      "v": 100
    },
    {
      "midi": 42,
      "hit": false,
      "t": 24000.000000000022,
      "d": 225,
      "v": 90
    },
    {
      "midi": 48,
      "hit": false,
      "t": 24000.000000000022,
      "d": 750,
      "v": 100
    },
    {
      "midi": 42,
      "hit": false,
      "t": 24500.000000000022,
      "d": 225,
      "v": 90
    },
    {
      "midi": 84,
      "hit": false,
      "t": 24500.000000000022,
      "d": 225,
      "v": 100
    },
    {
      "midi": 88,
      "hit": false,
      "t": 24500.000000000022,
      "d": 225,
      "v": 100
    },
    {
      "midi": 84,
      "hit": false,
      "t": 24750.000000000022,
      "d": 225,
      "v": 100
    },
    {
      "midi": 88,
      "hit": false,
      "t": 24750.000000000022,
      "d": 225,
      "v": 100
    },
    {
      "midi": 48,
      "hit": false,
      "t": 24750.000000000022,
      "d": 250,
      "v": 100
    },
    {
      "midi": 42,
      "hit": false,
      "t": 25000.000000000022,
      "d": 225,
      "v": 90
    },
    {
      "midi": 48,
      "hit": false,
      "t": 25000.000000000022,
      "d": 500,
      "v": 100
    },
    {
      "midi": 67,
      "hit": false,
      "t": 25250.000000000022,
      "d": 250,
      "v": 100
    },
    {
      "midi": 42,
      "hit": false,
      "t": 25500.000000000022,
      "d": 225,
      "v": 90
    },
    {
      "midi": 54,
      "hit": false,
      "t": 25500.000000000022,
      "d": 225,
      "v": 81
    },
    {
      "midi": 69,
      "hit": false,
      "t": 25500.000000000022,
      "d": 250,
      "v": 100
    },
    {
      "midi": 72,
      "hit": false,
      "t": 25750.000000000022,
      "d": 250,
      "v": 100
    },
    {
      "midi": 42,
      "hit": false,
      "t": 26000.000000000022,
      "d": 225,
      "v": 90
    },
    {
      "midi": 74,
      "hit": false,
      "t": 26000.000000000022,
      "d": 500,
      "v": 100
    },
    {
      "midi": 41,
      "hit": false,
      "t": 26000.000000000022,
      "d": 750,
      "v": 100
    },
    {
      "midi": 53,
      "hit": false,
      "t": 26000.000000000022,
      "d": 4000,
      "v": 100
    },
    {
      "midi": 57,
      "hit": false,
      "t": 26000.000000000022,
      "d": 4000,
      "v": 100
    },
    {
      "midi": 60,
      "hit": false,
      "t": 26000.000000000022,
      "d": 4000,
      "v": 100
    },
    {
      "midi": 62,
      "hit": false,
      "t": 26000.000000000022,
      "d": 4000,
      "v": 100
    },
    {
      "midi": 42,
      "hit": false,
      "t": 26500.000000000022,
      "d": 225,
      "v": 90
    },
    {
      "midi": 84,
      "hit": false,
      "t": 26500.000000000022,
      "d": 225,
      "v": 100
    },
    {
      "midi": 86,
      "hit": false,
      "t": 26500.000000000022,
      "d": 225,
      "v": 100
    },
    {
      "midi": 69,
      "hit": false,
      "t": 26500.000000000022,
      "d": 250,
      "v": 100
    },
    {
      "midi": 84,
      "hit": false,
      "t": 26750.000000000022,
      "d": 225,
      "v": 100
    },
    {
      "midi": 86,
      "hit": false,
      "t": 26750.000000000022,
      "d": 225,
      "v": 100
    },
    {
      "midi": 41,
      "hit": false,
      "t": 26750.000000000022,
      "d": 250,
      "v": 100
    },
    {
      "midi": 72,
      "hit": false,
      "t": 26750.000000000022,
      "d": 500,
      "v": 100
    },
    {
      "midi": 42,
      "hit": false,
      "t": 27000.000000000022,
      "d": 225,
      "v": 90
    },
    {
      "midi": 41,
      "hit": false,
      "t": 27000.000000000022,
      "d": 500,
      "v": 100
    },
    {
      "midi": 74,
      "hit": false,
      "t": 27250.000000000022,
      "d": 500,
      "v": 100
    },
    {
      "midi": 42,
      "hit": false,
      "t": 27500.000000000022,
      "d": 225,
      "v": 90
    },
    {
      "midi": 74,
      "hit": false,
      "t": 27750.000000000022,
      "d": 750,
      "v": 100
    },
    {
      "midi": 42,
      "hit": false,
      "t": 28000.000000000022,
      "d": 225,
      "v": 90
    },
    {
      "midi": 38,
      "hit": false,
      "t": 28000.000000000022,
      "d": 750,
      "v": 100
    },
    {
      "midi": 42,
      "hit": false,
      "t": 28500.000000000022,
      "d": 225,
      "v": 90
    },
    {
      "midi": 84,
      "hit": false,
      "t": 28500.000000000022,
      "d": 225,
      "v": 100
    },
    {
      "midi": 86,
      "hit": false,
      "t": 28500.000000000022,
      "d": 225,
      "v": 100
    },
    {
      "midi": 74,
      "hit": false,
      "t": 28500.000000000022,
      "d": 500,
      "v": 100
    },
    {
      "midi": 84,
      "hit": false,
      "t": 28750.000000000022,
      "d": 225,
      "v": 100
    },
    {
      "midi": 86,
      "hit": false,
      "t": 28750.000000000022,
      "d": 225,
      "v": 100
    },
    {
      "midi": 38,
      "hit": false,
      "t": 28750.000000000022,
      "d": 250,
      "v": 100
    },
    {
      "midi": 42,
      "hit": false,
      "t": 29000.000000000022,
      "d": 225,
      "v": 90
    },
    {
      "midi": 38,
      "hit": false,
      "t": 29000.000000000022,
      "d": 500,
      "v": 100
    },
    {
      "midi": 72,
      "hit": false,
      "t": 29000.000000000022,
      "d": 500,
      "v": 100
    },
    {
      "midi": 42,
      "hit": false,
      "t": 29500.000000000022,
      "d": 225,
      "v": 90
    },
    {
      "midi": 54,
      "hit": false,
      "t": 29500.000000000022,
      "d": 225,
      "v": 81
    },
    {
      "midi": 74,
      "hit": false,
      "t": 29500.000000000022,
      "d": 500,
      "v": 100
    },
    {
      "midi": 42,
      "hit": false,
      "t": 30000.000000000022,
      "d": 225,
      "v": 90
    },
    {
      "midi": 76,
      "hit": false,
      "t": 30000.000000000022,
      "d": 500,
      "v": 100
    },
    {
      "midi": 40,
      "hit": false,
      "t": 30000.000000000022,
      "d": 750,
      "v": 100
    },
    {
      "midi": 56,
      "hit": false,
      "t": 30000.000000000022,
      "d": 2500,
      "v": 100
    },
    {
      "midi": 59,
      "hit": false,
      "t": 30000.000000000022,
      "d": 2500,
      "v": 100
    },
    {
      "midi": 64,
      "hit": false,
      "t": 30000.000000000022,
      "d": 2500,
      "v": 100
    },
    {
      "midi": 42,
      "hit": false,
      "t": 30500.000000000022,
      "d": 225,
      "v": 90
    },
    {
      "midi": 84,
      "hit": false,
      "t": 30500.000000000022,
      "d": 225,
      "v": 100
    },
    {
      "midi": 80,
      "hit": false,
      "t": 30500.000000000022,
      "d": 225,
      "v": 100
    },
    {
      "midi": 77,
      "hit": false,
      "t": 30500.000000000022,
      "d": 250,
      "v": 100
    },
    {
      "midi": 84,
      "hit": false,
      "t": 30750.000000000022,
      "d": 225,
      "v": 100
    },
    {
      "midi": 80,
      "hit": false,
      "t": 30750.000000000022,
      "d": 225,
      "v": 100
    },
    {
      "midi": 40,
      "hit": false,
      "t": 30750.000000000022,
      "d": 250,
      "v": 100
    },
    {
      "midi": 76,
      "hit": false,
      "t": 30750.000000000022,
      "d": 750,
      "v": 100
    },
    {
      "midi": 42,
      "hit": false,
      "t": 31000.000000000022,
      "d": 225,
      "v": 90
    },
    {
      "midi": 40,
      "hit": false,
      "t": 31000.000000000022,
      "d": 500,
      "v": 100
    },
    {
      "midi": 42,
      "hit": false,
      "t": 31500.000000000022,
      "d": 225,
      "v": 90
    },
    {
      "midi": 77,
      "hit": false,
      "t": 31500.000000000022,
      "d": 500,
      "v": 100
    },
    {
      "midi": 42,
      "hit": false,
      "t": 32000.000000000022,
      "d": 225,
      "v": 90
    },
    {
      "midi": 40,
      "hit": false,
      "t": 32000.000000000022,
      "d": 750,
      "v": 100
    },
    {
      "midi": 76,
      "hit": false,
      "t": 32000.000000000022,
      "d": 1000,
      "v": 100
    },
    {
      "midi": 42,
      "hit": false,
      "t": 32500.000000000022,
      "d": 225,
      "v": 90
    },
    {
      "midi": 59,
      "hit": false,
      "t": 32500.000000000022,
      "d": 450,
      "v": 100
    },
    {
      "midi": 40,
      "hit": false,
      "t": 32750.000000000022,
      "d": 250,
      "v": 100
    },
    {
      "midi": 42,
      "hit": false,
      "t": 33000.00000000002,
      "d": 225,
      "v": 90
    },
    {
      "midi": 60,
      "hit": false,
      "t": 33000.00000000002,
      "d": 450,
      "v": 100
    },
    {
      "midi": 40,
      "hit": false,
      "t": 33000.00000000002,
      "d": 500,
      "v": 100
    },
    {
      "midi": 76,
      "hit": false,
      "t": 33500.00000000002,
      "d": 225,
      "v": 100
    },
    {
      "midi": 42,
      "hit": false,
      "t": 33500.00000000002,
      "d": 225,
      "v": 90
    },
    {
      "midi": 62,
      "hit": false,
      "t": 33500.00000000002,
      "d": 450,
      "v": 100
    },
    {
      "midi": 76,
      "hit": false,
      "t": 33750.00000000002,
      "d": 225,
      "v": 100
    },
    {
      "midi": 42,
      "hit": false,
      "t": 34000.00000000002,
      "d": 225,
      "v": 90
    },
    {
      "midi": 45,
      "hit": false,
      "t": 34000.00000000002,
      "d": 675,
      "v": 100
    },
    {
      "midi": 81,
      "hit": false,
      "t": 34000.00000000002,
      "d": 900,
      "v": 100
    },
    {
      "midi": 64,
      "hit": false,
      "t": 34000.00000000002,
      "d": 1800,
      "v": 100
    },
    {
      "midi": 60,
      "hit": false,
      "t": 34000.00000000002,
      "d": 2000,
      "v": 100
    },
    {
      "midi": 57,
      "hit": false,
      "t": 34000.00000000002,
      "d": 2000,
      "v": 100
    },
    {
      "midi": 42,
      "hit": false,
      "t": 34500.00000000002,
      "d": 225,
      "v": 90
    },
    {
      "midi": 84,
      "hit": false,
      "t": 34500.00000000002,
      "d": 250,
      "v": 100
    },
    {
      "midi": 88,
      "hit": false,
      "t": 34500.00000000002,
      "d": 250,
      "v": 100
    },
    {
      "midi": 45,
      "hit": false,
      "t": 34750.00000000002,
      "d": 225,
      "v": 100
    },
    {
      "midi": 88,
      "hit": false,
      "t": 34750.00000000002,
      "d": 250,
      "v": 100
    },
    {
      "midi": 84,
      "hit": false,
      "t": 34750.00000000002,
      "d": 250,
      "v": 100
    },
    {
      "midi": 42,
      "hit": false,
      "t": 35000.00000000002,
      "d": 225,
      "v": 90
    },
    {
      "midi": 45,
      "hit": false,
      "t": 35000.00000000002,
      "d": 450,
      "v": 100
    },
    {
      "midi": 42,
      "hit": false,
      "t": 35500.00000000002,
      "d": 225,
      "v": 90
    },
    {
      "midi": 54,
      "hit": false,
      "t": 35500.00000000002,
      "d": 225,
      "v": 81
    },
    {
      "midi": 42,
      "hit": false,
      "t": 36000.00000000002,
      "d": 225,
      "v": 90
    },
    {
      "midi": 47,
      "hit": false,
      "t": 36000.00000000002,
      "d": 675,
      "v": 100
    },
    {
      "midi": 62,
      "hit": false,
      "t": 36000.00000000002,
      "d": 1800,
      "v": 100
    },
    {
      "midi": 55,
      "hit": false,
      "t": 36000.00000000002,
      "d": 2000,
      "v": 100
    },
    {
      "midi": 59,
      "hit": false,
      "t": 36000.00000000002,
      "d": 2000,
      "v": 100
    },
    {
      "midi": 79,
      "hit": false,
      "t": 36250.00000000002,
      "d": 225,
      "v": 100
    },
    {
      "midi": 79,
      "hit": false,
      "t": 36500.00000000002,
      "d": 225,
      "v": 100
    },
    {
      "midi": 42,
      "hit": false,
      "t": 36500.00000000002,
      "d": 225,
      "v": 90
    },
    {
      "midi": 86,
      "hit": false,
      "t": 36500.00000000002,
      "d": 250,
      "v": 100
    },
    {
      "midi": 83,
      "hit": false,
      "t": 36500.00000000002,
      "d": 250,
      "v": 100
    },
    {
      "midi": 47,
      "hit": false,
      "t": 36750.00000000002,
      "d": 225,
      "v": 100
    },
    {
      "midi": 79,
      "hit": false,
      "t": 36750.00000000002,
      "d": 225,
      "v": 100
    },
    {
      "midi": 83,
      "hit": false,
      "t": 36750.00000000002,
      "d": 250,
      "v": 100
    },
    {
      "midi": 86,
      "hit": false,
      "t": 36750.00000000002,
      "d": 250,
      "v": 100
    },
    {
      "midi": 79,
      "hit": false,
      "t": 37000.00000000002,
      "d": 225,
      "v": 100
    },
    {
      "midi": 42,
      "hit": false,
      "t": 37000.00000000002,
      "d": 225,
      "v": 90
    },
    {
      "midi": 47,
      "hit": false,
      "t": 37000.00000000002,
      "d": 450,
      "v": 100
    },
    {
      "midi": 79,
      "hit": false,
      "t": 37250.00000000002,
      "d": 225,
      "v": 100
    },
    {
      "midi": 81,
      "hit": false,
      "t": 37500.00000000002,
      "d": 225,
      "v": 100
    },
    {
      "midi": 42,
      "hit": false,
      "t": 37500.00000000002,
      "d": 225,
      "v": 90
    },
    {
      "midi": 79,
      "hit": false,
      "t": 37750.00000000002,
      "d": 225,
      "v": 100
    },
    {
      "midi": 42,
      "hit": false,
      "t": 38000.00000000002,
      "d": 225,
      "v": 90
    },
    {
      "midi": 76,
      "hit": false,
      "t": 38000.00000000002,
      "d": 450,
      "v": 100
    },
    {
      "midi": 48,
      "hit": false,
      "t": 38000.00000000002,
      "d": 675,
      "v": 100
    },
    {
      "midi": 60,
      "hit": false,
      "t": 38000.00000000002,
      "d": 1800,
      "v": 100
    },
    {
      "midi": 64,
      "hit": false,
      "t": 38000.00000000002,
      "d": 4000,
      "v": 100
    },
    {
      "midi": 42,
      "hit": false,
      "t": 38500.00000000002,
      "d": 225,
      "v": 90
    },
    {
      "midi": 88,
      "hit": false,
      "t": 38500.00000000002,
      "d": 250,
      "v": 100
    },
    {
      "midi": 84,
      "hit": false,
      "t": 38500.00000000002,
      "d": 250,
      "v": 100
    },
    {
      "midi": 74,
      "hit": false,
      "t": 38500.00000000002,
      "d": 450,
      "v": 100
    },
    {
      "midi": 48,
      "hit": false,
      "t": 38750.00000000002,
      "d": 225,
      "v": 100
    },
    {
      "midi": 88,
      "hit": false,
      "t": 38750.00000000002,
      "d": 250,
      "v": 100
    },
    {
      "midi": 84,
      "hit": false,
      "t": 38750.00000000002,
      "d": 250,
      "v": 100
    },
    {
      "midi": 42,
      "hit": false,
      "t": 39000.00000000002,
      "d": 225,
      "v": 90
    },
    {
      "midi": 48,
      "hit": false,
      "t": 39000.00000000002,
      "d": 450,
      "v": 100
    },
    {
      "midi": 72,
      "hit": false,
      "t": 39000.00000000002,
      "d": 450,
      "v": 100
    },
    {
      "midi": 74,
      "hit": false,
      "t": 39500.00000000002,
      "d": 225,
      "v": 100
    },
    {
      "midi": 42,
      "hit": false,
      "t": 39500.00000000002,
      "d": 225,
      "v": 90
    },
    {
      "midi": 54,
      "hit": false,
      "t": 39500.00000000002,
      "d": 225,
      "v": 81
    },
    {
      "midi": 76,
      "hit": false,
      "t": 39750.00000000002,
      "d": 1150,
      "v": 100
    },
    {
      "midi": 42,
      "hit": false,
      "t": 40000.00000000002,
      "d": 225,
      "v": 90
    },
    {
      "midi": 48,
      "hit": false,
      "t": 40000.00000000002,
      "d": 675,
      "v": 100
    },
    {
      "midi": 55,
      "hit": false,
      "t": 40000.00000000002,
      "d": 2000,
      "v": 100
    },
    {
      "midi": 42,
      "hit": false,
      "t": 40500.00000000002,
      "d": 225,
      "v": 90
    },
    {
      "midi": 88,
      "hit": false,
      "t": 40500.00000000002,
      "d": 250,
      "v": 100
    },
    {
      "midi": 84,
      "hit": false,
      "t": 40500.00000000002,
      "d": 250,
      "v": 100
    },
    {
      "midi": 48,
      "hit": false,
      "t": 40750.00000000002,
      "d": 225,
      "v": 100
    },
    {
      "midi": 88,
      "hit": false,
      "t": 40750.00000000002,
      "d": 250,
      "v": 100
    },
    {
      "midi": 84,
      "hit": false,
      "t": 40750.00000000002,
      "d": 250,
      "v": 100
    },
    {
      "midi": 42,
      "hit": false,
      "t": 41000.00000000002,
      "d": 225,
      "v": 90
    },
    {
      "midi": 48,
      "hit": false,
      "t": 41000.00000000002,
      "d": 450,
      "v": 100
    },
    {
      "midi": 67,
      "hit": false,
      "t": 41250.00000000002,
      "d": 225,
      "v": 100
    },
    {
      "midi": 69,
      "hit": false,
      "t": 41500.00000000002,
      "d": 225,
      "v": 100
    },
    {
      "midi": 42,
      "hit": false,
      "t": 41500.00000000002,
      "d": 225,
      "v": 90
    },
    {
      "midi": 72,
      "hit": false,
      "t": 41750.00000000002,
      "d": 225,
      "v": 100
    },
    {
      "midi": 42,
      "hit": false,
      "t": 42000.00000000002,
      "d": 225,
      "v": 90
    },
    {
      "midi": 74,
      "hit": false,
      "t": 42000.00000000002,
      "d": 450,
      "v": 100
    },
    {
      "midi": 41,
      "hit": false,
      "t": 42000.00000000002,
      "d": 750,
      "v": 100
    },
    {
      "midi": 57,
      "hit": false,
      "t": 42000.00000000002,
      "d": 1800,
      "v": 100
    },
    {
      "midi": 60,
      "hit": false,
      "t": 42000.00000000002,
      "d": 1800,
      "v": 100
    },
    {
      "midi": 62,
      "hit": false,
      "t": 42000.00000000002,
      "d": 1800,
      "v": 100
    },
    {
      "midi": 72,
      "hit": false,
      "t": 42500.00000000002,
      "d": 225,
      "v": 100
    },
    {
      "midi": 42,
      "hit": false,
      "t": 42500.00000000002,
      "d": 225,
      "v": 90
    },
    {
      "midi": 84,
      "hit": false,
      "t": 42500.00000000002,
      "d": 250,
      "v": 100
    },
    {
      "midi": 86,
      "hit": false,
      "t": 42500.00000000002,
      "d": 250,
      "v": 100
    },
    {
      "midi": 41,
      "hit": false,
      "t": 42750.00000000002,
      "d": 250,
      "v": 100
    },
    {
      "midi": 84,
      "hit": false,
      "t": 42750.00000000002,
      "d": 250,
      "v": 100
    },
    {
      "midi": 86,
      "hit": false,
      "t": 42750.00000000002,
      "d": 250,
      "v": 100
    },
    {
      "midi": 74,
      "hit": false,
      "t": 42750.00000000002,
      "d": 475,
      "v": 100
    },
    {
      "midi": 42,
      "hit": false,
      "t": 43000.00000000002,
      "d": 225,
      "v": 90
    },
    {
      "midi": 41,
      "hit": false,
      "t": 43000.00000000002,
      "d": 500,
      "v": 100
    },
    {
      "midi": 72,
      "hit": false,
      "t": 43250.00000000002,
      "d": 500,
      "v": 100
    },
    {
      "midi": 42,
      "hit": false,
      "t": 43500.00000000002,
      "d": 225,
      "v": 90
    },
    {
      "midi": 54,
      "hit": false,
      "t": 43500.00000000002,
      "d": 225,
      "v": 81
    },
    {
      "midi": 74,
      "hit": false,
      "t": 43750.00000000002,
      "d": 750,
      "v": 100
    },
    {
      "midi": 42,
      "hit": false,
      "t": 44000.00000000002,
      "d": 225,
      "v": 90
    },
    {
      "midi": 40,
      "hit": false,
      "t": 44000.00000000002,
      "d": 750,
      "v": 100
    },
    {
      "midi": 55,
      "hit": false,
      "t": 44000.00000000002,
      "d": 1800,
      "v": 100
    },
    {
      "midi": 59,
      "hit": false,
      "t": 44000.00000000002,
      "d": 1800,
      "v": 100
    },
    {
      "midi": 64,
      "hit": false,
      "t": 44000.00000000002,
      "d": 1800,
      "v": 100
    },
    {
      "midi": 42,
      "hit": false,
      "t": 44500.00000000002,
      "d": 225,
      "v": 90
    },
    {
      "midi": 83,
      "hit": false,
      "t": 44500.00000000002,
      "d": 250,
      "v": 100
    },
    {
      "midi": 88,
      "hit": false,
      "t": 44500.00000000002,
      "d": 250,
      "v": 100
    },
    {
      "midi": 76,
      "hit": false,
      "t": 44500.00000000002,
      "d": 500,
      "v": 100
    },
    {
      "midi": 40,
      "hit": false,
      "t": 44750.00000000002,
      "d": 250,
      "v": 100
    },
    {
      "midi": 83,
      "hit": false,
      "t": 44750.00000000002,
      "d": 250,
      "v": 100
    },
    {
      "midi": 88,
      "hit": false,
      "t": 44750.00000000002,
      "d": 250,
      "v": 100
    },
    {
      "midi": 42,
      "hit": false,
      "t": 45000.00000000002,
      "d": 225,
      "v": 90
    },
    {
      "midi": 40,
      "hit": false,
      "t": 45000.00000000002,
      "d": 500,
      "v": 100
    },
    {
      "midi": 79,
      "hit": false,
      "t": 45000.00000000002,
      "d": 500,
      "v": 100
    },
    {
      "midi": 42,
      "hit": false,
      "t": 45500.00000000002,
      "d": 225,
      "v": 90
    },
    {
      "midi": 76,
      "hit": false,
      "t": 45500.00000000002,
      "d": 250,
      "v": 100
    },
    {
      "midi": 81,
      "hit": false,
      "t": 45750.00000000002,
      "d": 1750,
      "v": 100
    },
    {
      "midi": 42,
      "hit": false,
      "t": 46000.00000000002,
      "d": 225,
      "v": 90
    },
    {
      "midi": 45,
      "hit": false,
      "t": 46000.00000000002,
      "d": 750,
      "v": 100
    },
    {
      "midi": 57,
      "hit": false,
      "t": 46000.00000000002,
      "d": 3800,
      "v": 100
    },
    {
      "midi": 60,
      "hit": false,
      "t": 46000.00000000002,
      "d": 3800,
      "v": 100
    },
    {
      "midi": 42,
      "hit": false,
      "t": 46500.00000000002,
      "d": 225,
      "v": 90
    },
    {
      "midi": 84,
      "hit": false,
      "t": 46500.00000000002,
      "d": 250,
      "v": 100
    },
    {
      "midi": 88,
      "hit": false,
      "t": 46500.00000000002,
      "d": 250,
      "v": 100
    },
    {
      "midi": 45,
      "hit": false,
      "t": 46750.00000000002,
      "d": 250,
      "v": 100
    },
    {
      "midi": 88,
      "hit": false,
      "t": 46750.00000000002,
      "d": 250,
      "v": 100
    },
    {
      "midi": 84,
      "hit": false,
      "t": 46750.00000000002,
      "d": 250,
      "v": 100
    },
    {
      "midi": 42,
      "hit": false,
      "t": 47000.00000000002,
      "d": 225,
      "v": 90
    },
    {
      "midi": 45,
      "hit": false,
      "t": 47000.00000000002,
      "d": 500,
      "v": 100
    },
    {
      "midi": 42,
      "hit": false,
      "t": 47500.00000000002,
      "d": 225,
      "v": 90
    },
    {
      "midi": 54,
      "hit": false,
      "t": 47500.00000000002,
      "d": 225,
      "v": 81
    },
    {
      "midi": 42,
      "hit": false,
      "t": 48000.00000000002,
      "d": 225,
      "v": 90
    },
    {
      "midi": 45,
      "hit": false,
      "t": 48000.00000000002,
      "d": 750,
      "v": 100
    },
    {
      "midi": 72,
      "hit": false,
      "t": 48250.00000000002,
      "d": 250,
      "v": 100
    },
    {
      "midi": 42,
      "hit": false,
      "t": 48500.00000000002,
      "d": 225,
      "v": 90
    },
    {
      "midi": 71,
      "hit": false,
      "t": 48500.00000000002,
      "d": 250,
      "v": 100
    },
    {
      "midi": 84,
      "hit": false,
      "t": 48500.00000000002,
      "d": 250,
      "v": 100
    },
    {
      "midi": 88,
      "hit": false,
      "t": 48500.00000000002,
      "d": 250,
      "v": 100
    },
    {
      "midi": 45,
      "hit": false,
      "t": 48750.00000000002,
      "d": 250,
      "v": 100
    },
    {
      "midi": 69,
      "hit": false,
      "t": 48750.00000000002,
      "d": 250,
      "v": 100
    },
    {
      "midi": 88,
      "hit": false,
      "t": 48750.00000000002,
      "d": 250,
      "v": 100
    },
    {
      "midi": 84,
      "hit": false,
      "t": 48750.00000000002,
      "d": 250,
      "v": 100
    },
    {
      "midi": 42,
      "hit": false,
      "t": 49000.00000000002,
      "d": 225,
      "v": 90
    },
    {
      "midi": 45,
      "hit": false,
      "t": 49000.00000000002,
      "d": 500,
      "v": 100
    },
    {
      "midi": 64,
      "hit": false,
      "t": 49000.00000000002,
      "d": 500,
      "v": 100
    },
    {
      "midi": 42,
      "hit": false,
      "t": 49500.00000000002,
      "d": 225,
      "v": 90
    },
    {
      "midi": 38,
      "hit": false,
      "t": 49500.00000000002,
      "d": 225,
      "v": 81
    },
    {
      "midi": 38,
      "hit": false,
      "t": 49750.00000000002,
      "d": 225,
      "v": 81
    },
    {
      "midi": 79,
      "hit": false,
      "t": 50000.00000000002,
      "d": 225,
      "v": 100
    },
    {
      "midi": 42,
      "hit": false,
      "t": 50000.00000000002,
      "d": 225,
      "v": 90
    },
    {
      "midi": 57,
      "hit": false,
      "t": 50000.00000000002,
      "d": 225,
      "v": 81
    },
    {
      "midi": 67,
      "hit": false,
      "t": 50000.00000000002,
      "d": 500,
      "v": 100
    },
    {
      "midi": 71,
      "hit": false,
      "t": 50000.00000000002,
      "d": 500,
      "v": 100
    },
    {
      "midi": 74,
      "hit": false,
      "t": 50000.00000000002,
      "d": 500,
      "v": 100
    },
    {
      "midi": 43,
      "hit": false,
      "t": 50000.00000000002,
      "d": 750,
      "v": 100
    },
    {
      "midi": 86,
      "hit": false,
      "t": 50000.00000000002,
      "d": 1000,
      "v": 100
    },
    {
      "midi": 55,
      "hit": false,
      "t": 50000.00000000002,
      "d": 2000,
      "v": 100
    },
    {
      "midi": 59,
      "hit": false,
      "t": 50000.00000000002,
      "d": 2000,
      "v": 100
    },
    {
      "midi": 62,
      "hit": false,
      "t": 50000.00000000002,
      "d": 2000,
      "v": 100
    },
    {
      "midi": 81,
      "hit": false,
      "t": 50250.00000000002,
      "d": 225,
      "v": 100
    },
    {
      "midi": 79,
      "hit": false,
      "t": 50500.00000000002,
      "d": 225,
      "v": 100
    },
    {
      "midi": 42,
      "hit": false,
      "t": 50500.00000000002,
      "d": 225,
      "v": 90
    },
    {
      "midi": 67,
      "hit": false,
      "t": 50500.00000000002,
      "d": 500,
      "v": 100
    },
    {
      "midi": 71,
      "hit": false,
      "t": 50500.00000000002,
      "d": 500,
      "v": 100
    },
    {
      "midi": 74,
      "hit": false,
      "t": 50500.00000000002,
      "d": 500,
      "v": 100
    },
    {
      "midi": 77,
      "hit": false,
      "t": 50750.00000000002,
      "d": 225,
      "v": 100
    },
    {
      "midi": 43,
      "hit": false,
      "t": 50750.00000000002,
      "d": 250,
      "v": 100
    },
    {
      "midi": 42,
      "hit": false,
      "t": 51000.00000000002,
      "d": 225,
      "v": 90
    },
    {
      "midi": 76,
      "hit": false,
      "t": 51000.00000000002,
      "d": 450,
      "v": 100
    },
    {
      "midi": 43,
      "hit": false,
      "t": 51000.00000000002,
      "d": 500,
      "v": 100
    },
    {
      "midi": 67,
      "hit": false,
      "t": 51000.00000000002,
      "d": 500,
      "v": 100
    },
    {
      "midi": 71,
      "hit": false,
      "t": 51000.00000000002,
      "d": 500,
      "v": 100
    },
    {
      "midi": 74,
      "hit": false,
      "t": 51000.00000000002,
      "d": 500,
      "v": 100
    },
    {
      "midi": 42,
      "hit": false,
      "t": 51500.00000000002,
      "d": 225,
      "v": 90
    },
    {
      "midi": 74,
      "hit": false,
      "t": 51500.00000000002,
      "d": 450,
      "v": 100
    },
    {
      "midi": 67,
      "hit": false,
      "t": 51500.00000000002,
      "d": 500,
      "v": 100
    },
    {
      "midi": 71,
      "hit": false,
      "t": 51500.00000000002,
      "d": 500,
      "v": 100
    },
    {
      "midi": 42,
      "hit": false,
      "t": 52000.00000000002,
      "d": 225,
      "v": 90
    },
    {
      "midi": 72,
      "hit": false,
      "t": 52000.00000000002,
      "d": 500,
      "v": 100
    },
    {
      "midi": 76,
      "hit": false,
      "t": 52000.00000000002,
      "d": 500,
      "v": 100
    },
    {
      "midi": 67,
      "hit": false,
      "t": 52000.00000000002,
      "d": 500,
      "v": 100
    },
    {
      "midi": 88,
      "hit": false,
      "t": 52000.00000000002,
      "d": 500,
      "v": 100
    },
    {
      "midi": 48,
      "hit": false,
      "t": 52000.00000000002,
      "d": 750,
      "v": 100
    },
    {
      "midi": 55,
      "hit": false,
      "t": 52000.00000000002,
      "d": 2000,
      "v": 100
    },
    {
      "midi": 60,
      "hit": false,
      "t": 52000.00000000002,
      "d": 2000,
      "v": 100
    },
    {
      "midi": 64,
      "hit": false,
      "t": 52000.00000000002,
      "d": 2000,
      "v": 100
    },
    {
      "midi": 42,
      "hit": false,
      "t": 52500.00000000002,
      "d": 225,
      "v": 90
    },
    {
      "midi": 76,
      "hit": false,
      "t": 52500.00000000002,
      "d": 400,
      "v": 100
    },
    {
      "midi": 72,
      "hit": false,
      "t": 52500.00000000002,
      "d": 500,
      "v": 100
    },
    {
      "midi": 67,
      "hit": false,
      "t": 52500.00000000002,
      "d": 500,
      "v": 100
    },
    {
      "midi": 89,
      "hit": false,
      "t": 52500.00000000002,
      "d": 500,
      "v": 100
    },
    {
      "midi": 48,
      "hit": false,
      "t": 52750.00000000002,
      "d": 250,
      "v": 100
    },
    {
      "midi": 42,
      "hit": false,
      "t": 53000.00000000002,
      "d": 225,
      "v": 90
    },
    {
      "midi": 48,
      "hit": false,
      "t": 53000.00000000002,
      "d": 500,
      "v": 100
    },
    {
      "midi": 72,
      "hit": false,
      "t": 53000.00000000002,
      "d": 500,
      "v": 100
    },
    {
      "midi": 76,
      "hit": false,
      "t": 53000.00000000002,
      "d": 500,
      "v": 100
    },
    {
      "midi": 67,
      "hit": false,
      "t": 53000.00000000002,
      "d": 500,
      "v": 100
    },
    {
      "midi": 91,
      "hit": false,
      "t": 53000.00000000002,
      "d": 500,
      "v": 100
    },
    {
      "midi": 42,
      "hit": false,
      "t": 53500.00000000002,
      "d": 225,
      "v": 90
    },
    {
      "midi": 72,
      "hit": false,
      "t": 53500.00000000002,
      "d": 500,
      "v": 100
    },
    {
      "midi": 76,
      "hit": false,
      "t": 53500.00000000002,
      "d": 500,
      "v": 100
    },
    {
      "midi": 67,
      "hit": false,
      "t": 53500.00000000002,
      "d": 500,
      "v": 100
    },
    {
      "midi": 88,
      "hit": false,
      "t": 53500.00000000002,
      "d": 500,
      "v": 100
    },
    {
      "midi": 74,
      "hit": false,
      "t": 54000.00000000002,
      "d": 225,
      "v": 100
    },
    {
      "midi": 42,
      "hit": false,
      "t": 54000.00000000002,
      "d": 225,
      "v": 90
    },
    {
      "midi": 72,
      "hit": false,
      "t": 54000.00000000002,
      "d": 500,
      "v": 100
    },
    {
      "midi": 69,
      "hit": false,
      "t": 54000.00000000002,
      "d": 500,
      "v": 100
    },
    {
      "midi": 41,
      "hit": false,
      "t": 54000.00000000002,
      "d": 750,
      "v": 100
    },
    {
      "midi": 86,
      "hit": false,
      "t": 54000.00000000002,
      "d": 1000,
      "v": 100
    },
    {
      "midi": 57,
      "hit": false,
      "t": 54000.00000000002,
      "d": 2000,
      "v": 100
    },
    {
      "midi": 60,
      "hit": false,
      "t": 54000.00000000002,
      "d": 2000,
      "v": 100
    },
    {
      "midi": 62,
      "hit": false,
      "t": 54000.00000000002,
      "d": 2000,
      "v": 100
    },
    {
      "midi": 74,
      "hit": false,
      "t": 54250.00000000002,
      "d": 225,
      "v": 100
    },
    {
      "midi": 74,
      "hit": false,
      "t": 54500.00000000002,
      "d": 225,
      "v": 100
    },
    {
      "midi": 42,
      "hit": false,
      "t": 54500.00000000002,
      "d": 225,
      "v": 90
    },
    {
      "midi": 72,
      "hit": false,
      "t": 54500.00000000002,
      "d": 500,
      "v": 100
    },
    {
      "midi": 69,
      "hit": false,
      "t": 54500.00000000002,
      "d": 500,
      "v": 100
    },
    {
      "midi": 74,
      "hit": false,
      "t": 54750.00000000002,
      "d": 225,
      "v": 100
    },
    {
      "midi": 41,
      "hit": false,
      "t": 54750.00000000002,
      "d": 250,
      "v": 100
    },
    {
      "midi": 42,
      "hit": false,
      "t": 55000.00000000002,
      "d": 225,
      "v": 90
    },
    {
      "midi": 72,
      "hit": false,
      "t": 55000.00000000002,
      "d": 450,
      "v": 100
    },
    {
      "midi": 41,
      "hit": false,
      "t": 55000.00000000002,
      "d": 500,
      "v": 100
    },
    {
      "midi": 69,
      "hit": false,
      "t": 55000.00000000002,
      "d": 500,
      "v": 100
    },
    {
      "midi": 74,
      "hit": false,
      "t": 55000.00000000002,
      "d": 500,
      "v": 100
    },
    {
      "midi": 42,
      "hit": false,
      "t": 55500.00000000002,
      "d": 225,
      "v": 90
    },
    {
      "midi": 74,
      "hit": false,
      "t": 55500.00000000002,
      "d": 450,
      "v": 100
    },
    {
      "midi": 72,
      "hit": false,
      "t": 55500.00000000002,
      "d": 500,
      "v": 100
    },
    {
      "midi": 69,
      "hit": false,
      "t": 55500.00000000002,
      "d": 500,
      "v": 100
    },
    {
      "midi": 42,
      "hit": false,
      "t": 56000.00000000002,
      "d": 225,
      "v": 90
    },
    {
      "midi": 68,
      "hit": false,
      "t": 56000.00000000002,
      "d": 500,
      "v": 100
    },
    {
      "midi": 71,
      "hit": false,
      "t": 56000.00000000002,
      "d": 500,
      "v": 100
    },
    {
      "midi": 76,
      "hit": false,
      "t": 56000.00000000002,
      "d": 500,
      "v": 100
    },
    {
      "midi": 83,
      "hit": false,
      "t": 56000.00000000002,
      "d": 500,
      "v": 100
    },
    {
      "midi": 40,
      "hit": false,
      "t": 56000.00000000002,
      "d": 750,
      "v": 100
    },
    {
      "midi": 56,
      "hit": false,
      "t": 56000.00000000002,
      "d": 2000,
      "v": 100
    },
    {
      "midi": 59,
      "hit": false,
      "t": 56000.00000000002,
      "d": 2000,
      "v": 100
    },
    {
      "midi": 64,
      "hit": false,
      "t": 56000.00000000002,
      "d": 2000,
      "v": 100
    },
    {
      "midi": 42,
      "hit": false,
      "t": 56500.00000000002,
      "d": 225,
      "v": 90
    },
    {
      "midi": 76,
      "hit": false,
      "t": 56500.00000000002,
      "d": 400,
      "v": 100
    },
    {
      "midi": 68,
      "hit": false,
      "t": 56500.00000000002,
      "d": 500,
      "v": 100
    },
    {
      "midi": 71,
      "hit": false,
      "t": 56500.00000000002,
      "d": 500,
      "v": 100
    },
    {
      "midi": 84,
      "hit": false,
      "t": 56500.00000000002,
      "d": 500,
      "v": 100
    },
    {
      "midi": 40,
      "hit": false,
      "t": 56750.00000000002,
      "d": 250,
      "v": 100
    },
    {
      "midi": 42,
      "hit": false,
      "t": 57000.00000000002,
      "d": 225,
      "v": 90
    },
    {
      "midi": 40,
      "hit": false,
      "t": 57000.00000000002,
      "d": 500,
      "v": 100
    },
    {
      "midi": 68,
      "hit": false,
      "t": 57000.00000000002,
      "d": 500,
      "v": 100
    },
    {
      "midi": 71,
      "hit": false,
      "t": 57000.00000000002,
      "d": 500,
      "v": 100
    },
    {
      "midi": 76,
      "hit": false,
      "t": 57000.00000000002,
      "d": 500,
      "v": 100
    },
    {
      "midi": 86,
      "hit": false,
      "t": 57000.00000000002,
      "d": 500,
      "v": 100
    },
    {
      "midi": 42,
      "hit": false,
      "t": 57500.00000000002,
      "d": 225,
      "v": 90
    },
    {
      "midi": 68,
      "hit": false,
      "t": 57500.00000000002,
      "d": 500,
      "v": 100
    },
    {
      "midi": 71,
      "hit": false,
      "t": 57500.00000000002,
      "d": 500,
      "v": 100
    },
    {
      "midi": 76,
      "hit": false,
      "t": 57500.00000000002,
      "d": 500,
      "v": 100
    },
    {
      "midi": 83,
      "hit": false,
      "t": 57500.00000000002,
      "d": 500,
      "v": 100
    },
    {
      "midi": 79,
      "hit": false,
      "t": 58000.00000000002,
      "d": 225,
      "v": 100
    },
    {
      "midi": 42,
      "hit": false,
      "t": 58000.00000000002,
      "d": 225,
      "v": 90
    },
    {
      "midi": 57,
      "hit": false,
      "t": 58000.00000000002,
      "d": 225,
      "v": 81
    },
    {
      "midi": 67,
      "hit": false,
      "t": 58000.00000000002,
      "d": 500,
      "v": 100
    },
    {
      "midi": 71,
      "hit": false,
      "t": 58000.00000000002,
      "d": 500,
      "v": 100
    },
    {
      "midi": 74,
      "hit": false,
      "t": 58000.00000000002,
      "d": 500,
      "v": 100
    },
    {
      "midi": 43,
      "hit": false,
      "t": 58000.00000000002,
      "d": 750,
      "v": 100
    },
    {
      "midi": 86,
      "hit": false,
      "t": 58000.00000000002,
      "d": 1000,
      "v": 100
    },
    {
      "midi": 55,
      "hit": false,
      "t": 58000.00000000002,
      "d": 2000,
      "v": 100
    },
    {
      "midi": 59,
      "hit": false,
      "t": 58000.00000000002,
      "d": 2000,
      "v": 100
    },
    {
      "midi": 62,
      "hit": false,
      "t": 58000.00000000002,
      "d": 2000,
      "v": 100
    },
    {
      "midi": 81,
      "hit": false,
      "t": 58250.00000000002,
      "d": 225,
      "v": 100
    },
    {
      "midi": 79,
      "hit": false,
      "t": 58500.00000000002,
      "d": 225,
      "v": 100
    },
    {
      "midi": 42,
      "hit": false,
      "t": 58500.00000000002,
      "d": 225,
      "v": 90
    },
    {
      "midi": 67,
      "hit": false,
      "t": 58500.00000000002,
      "d": 500,
      "v": 100
    },
    {
      "midi": 71,
      "hit": false,
      "t": 58500.00000000002,
      "d": 500,
      "v": 100
    },
    {
      "midi": 74,
      "hit": false,
      "t": 58500.00000000002,
      "d": 500,
      "v": 100
    },
    {
      "midi": 77,
      "hit": false,
      "t": 58750.00000000002,
      "d": 225,
      "v": 100
    },
    {
      "midi": 43,
      "hit": false,
      "t": 58750.00000000002,
      "d": 250,
      "v": 100
    },
    {
      "midi": 42,
      "hit": false,
      "t": 59000.00000000002,
      "d": 225,
      "v": 90
    },
    {
      "midi": 76,
      "hit": false,
      "t": 59000.00000000002,
      "d": 450,
      "v": 100
    },
    {
      "midi": 43,
      "hit": false,
      "t": 59000.00000000002,
      "d": 500,
      "v": 100
    },
    {
      "midi": 67,
      "hit": false,
      "t": 59000.00000000002,
      "d": 500,
      "v": 100
    },
    {
      "midi": 71,
      "hit": false,
      "t": 59000.00000000002,
      "d": 500,
      "v": 100
    },
    {
      "midi": 74,
      "hit": false,
      "t": 59000.00000000002,
      "d": 500,
      "v": 100
    },
    {
      "midi": 42,
      "hit": false,
      "t": 59500.00000000002,
      "d": 225,
      "v": 90
    },
    {
      "midi": 74,
      "hit": false,
      "t": 59500.00000000002,
      "d": 450,
      "v": 100
    },
    {
      "midi": 67,
      "hit": false,
      "t": 59500.00000000002,
      "d": 500,
      "v": 100
    },
    {
      "midi": 71,
      "hit": false,
      "t": 59500.00000000002,
      "d": 500,
      "v": 100
    },
    {
      "midi": 42,
      "hit": false,
      "t": 60000.00000000002,
      "d": 225,
      "v": 90
    },
    {
      "midi": 67,
      "hit": false,
      "t": 60000.00000000002,
      "d": 500,
      "v": 100
    },
    {
      "midi": 72,
      "hit": false,
      "t": 60000.00000000002,
      "d": 500,
      "v": 100
    },
    {
      "midi": 76,
      "hit": false,
      "t": 60000.00000000002,
      "d": 500,
      "v": 100
    },
    {
      "midi": 88,
      "hit": false,
      "t": 60000.00000000002,
      "d": 500,
      "v": 100
    },
    {
      "midi": 48,
      "hit": false,
      "t": 60000.00000000002,
      "d": 750,
      "v": 100
    },
    {
      "midi": 55,
      "hit": false,
      "t": 60000.00000000002,
      "d": 2000,
      "v": 100
    },
    {
      "midi": 60,
      "hit": false,
      "t": 60000.00000000002,
      "d": 2000,
      "v": 100
    },
    {
      "midi": 64,
      "hit": false,
      "t": 60000.00000000002,
      "d": 2000,
      "v": 100
    },
    {
      "midi": 42,
      "hit": false,
      "t": 60500.00000000002,
      "d": 225,
      "v": 90
    },
    {
      "midi": 76,
      "hit": false,
      "t": 60500.00000000002,
      "d": 400,
      "v": 100
    },
    {
      "midi": 67,
      "hit": false,
      "t": 60500.00000000002,
      "d": 500,
      "v": 100
    },
    {
      "midi": 72,
      "hit": false,
      "t": 60500.00000000002,
      "d": 500,
      "v": 100
    },
    {
      "midi": 89,
      "hit": false,
      "t": 60500.00000000002,
      "d": 500,
      "v": 100
    },
    {
      "midi": 48,
      "hit": false,
      "t": 60750.00000000002,
      "d": 250,
      "v": 100
    },
    {
      "midi": 42,
      "hit": false,
      "t": 61000.00000000002,
      "d": 225,
      "v": 90
    },
    {
      "midi": 48,
      "hit": false,
      "t": 61000.00000000002,
      "d": 500,
      "v": 100
    },
    {
      "midi": 67,
      "hit": false,
      "t": 61000.00000000002,
      "d": 500,
      "v": 100
    },
    {
      "midi": 72,
      "hit": false,
      "t": 61000.00000000002,
      "d": 500,
      "v": 100
    },
    {
      "midi": 76,
      "hit": false,
      "t": 61000.00000000002,
      "d": 500,
      "v": 100
    },
    {
      "midi": 91,
      "hit": false,
      "t": 61000.00000000002,
      "d": 500,
      "v": 100
    },
    {
      "midi": 42,
      "hit": false,
      "t": 61500.00000000002,
      "d": 225,
      "v": 90
    },
    {
      "midi": 67,
      "hit": false,
      "t": 61500.00000000002,
      "d": 500,
      "v": 100
    },
    {
      "midi": 72,
      "hit": false,
      "t": 61500.00000000002,
      "d": 500,
      "v": 100
    },
    {
      "midi": 76,
      "hit": false,
      "t": 61500.00000000002,
      "d": 500,
      "v": 100
    },
    {
      "midi": 88,
      "hit": false,
      "t": 61500.00000000002,
      "d": 500,
      "v": 100
    },
    {
      "midi": 74,
      "hit": false,
      "t": 62000.00000000002,
      "d": 225,
      "v": 100
    },
    {
      "midi": 42,
      "hit": false,
      "t": 62000.00000000002,
      "d": 225,
      "v": 90
    },
    {
      "midi": 69,
      "hit": false,
      "t": 62000.00000000002,
      "d": 500,
      "v": 100
    },
    {
      "midi": 72,
      "hit": false,
      "t": 62000.00000000002,
      "d": 500,
      "v": 100
    },
    {
      "midi": 41,
      "hit": false,
      "t": 62000.00000000002,
      "d": 750,
      "v": 100
    },
    {
      "midi": 86,
      "hit": false,
      "t": 62000.00000000002,
      "d": 1000,
      "v": 100
    },
    {
      "midi": 57,
      "hit": false,
      "t": 62000.00000000002,
      "d": 2000,
      "v": 100
    },
    {
      "midi": 60,
      "hit": false,
      "t": 62000.00000000002,
      "d": 2000,
      "v": 100
    },
    {
      "midi": 62,
      "hit": false,
      "t": 62000.00000000002,
      "d": 2000,
      "v": 100
    },
    {
      "midi": 74,
      "hit": false,
      "t": 62250.00000000002,
      "d": 225,
      "v": 100
    },
    {
      "midi": 74,
      "hit": false,
      "t": 62500.00000000002,
      "d": 225,
      "v": 100
    },
    {
      "midi": 42,
      "hit": false,
      "t": 62500.00000000002,
      "d": 225,
      "v": 90
    },
    {
      "midi": 69,
      "hit": false,
      "t": 62500.00000000002,
      "d": 500,
      "v": 100
    },
    {
      "midi": 72,
      "hit": false,
      "t": 62500.00000000002,
      "d": 500,
      "v": 100
    },
    {
      "midi": 74,
      "hit": false,
      "t": 62750.00000000002,
      "d": 225,
      "v": 100
    },
    {
      "midi": 41,
      "hit": false,
      "t": 62750.00000000002,
      "d": 250,
      "v": 100
    },
    {
      "midi": 42,
      "hit": false,
      "t": 63000.00000000002,
      "d": 225,
      "v": 90
    },
    {
      "midi": 72,
      "hit": false,
      "t": 63000.00000000002,
      "d": 450,
      "v": 100
    },
    {
      "midi": 41,
      "hit": false,
      "t": 63000.00000000002,
      "d": 500,
      "v": 100
    },
    {
      "midi": 69,
      "hit": false,
      "t": 63000.00000000002,
      "d": 500,
      "v": 100
    },
    {
      "midi": 74,
      "hit": false,
      "t": 63000.00000000002,
      "d": 500,
      "v": 100
    },
    {
      "midi": 42,
      "hit": false,
      "t": 63500.00000000002,
      "d": 225,
      "v": 90
    },
    {
      "midi": 74,
      "hit": false,
      "t": 63500.00000000002,
      "d": 450,
      "v": 100
    },
    {
      "midi": 69,
      "hit": false,
      "t": 63500.00000000002,
      "d": 500,
      "v": 100
    },
    {
      "midi": 72,
      "hit": false,
      "t": 63500.00000000002,
      "d": 500,
      "v": 100
    },
    {
      "midi": 71,
      "hit": false,
      "t": 64000.00000000002,
      "d": 83.33333333333576,
      "v": 61
    },
    {
      "midi": 57,
      "hit": false,
      "t": 64000.00000000002,
      "d": 225.00000000000728,
      "v": 81
    },
    {
      "midi": 40,
      "hit": false,
      "t": 64000.00000000002,
      "d": 1000.0000000000218,
      "v": 100
    },
    {
      "midi": 56,
      "hit": false,
      "t": 64000.00000000002,
      "d": 1000.0000000000218,
      "v": 100
    },
    {
      "midi": 59,
      "hit": false,
      "t": 64000.00000000002,
      "d": 1000.0000000000218,
      "v": 100
    },
    {
      "midi": 68,
      "hit": false,
      "t": 64000.00000000002,
      "d": 1000.0000000000218,
      "v": 61
    },
    {
      "midi": 76,
      "hit": false,
      "t": 64000.00000000002,
      "d": 1350.000000000029,
      "v": 100
    },
    {
      "midi": 71,
      "hit": false,
      "t": 64083.33333333336,
      "d": 83.33333333333576,
      "v": 100
    },
    {
      "midi": 71,
      "hit": false,
      "t": 64166.66666666669,
      "d": 83.33333333333576,
      "v": 100
    },
    {
      "midi": 71,
      "hit": false,
      "t": 64250.00000000003,
      "d": 83.33333333333576,
      "v": 100
    },
    {
      "midi": 71,
      "hit": false,
      "t": 64333.333333333365,
      "d": 83.33333333333576,
      "v": 100
    },
    {
      "midi": 71,
      "hit": false,
      "t": 64416.6666666667,
      "d": 83.33333333333576,
      "v": 100
    },
    {
      "midi": 71,
      "hit": false,
      "t": 64500.00000000004,
      "d": 83.33333333333576,
      "v": 100
    },
    {
      "midi": 71,
      "hit": false,
      "t": 64583.33333333337,
      "d": 83.33333333333576,
      "v": 100
    },
    {
      "midi": 71,
      "hit": false,
      "t": 64666.66666666671,
      "d": 83.33333333333576,
      "v": 100
    },
    {
      "midi": 71,
      "hit": false,
      "t": 64750.000000000044,
      "d": 83.33333333333576,
      "v": 100
    },
    {
      "midi": 71,
      "hit": false,
      "t": 64833.33333333338,
      "d": 66.66666666666424,
      "v": 100
    },
    {
      "midi": 71,
      "hit": false,
      "t": 64916.66666666671,
      "d": 83.33333333333576,
      "v": 100
    },
    {
      "midi": 72,
      "hit": false,
      "t": 65000.000000000044,
      "d": 83.33333333333576,
      "v": 72
    },
    {
      "midi": 57,
      "hit": false,
      "t": 65000.000000000044,
      "d": 225.00000000000728,
      "v": 81
    },
    {
      "midi": 40,
      "hit": false,
      "t": 65000.000000000044,
      "d": 1000,
      "v": 100
    },
    {
      "midi": 60,
      "hit": false,
      "t": 65000.000000000044,
      "d": 1000,
      "v": 100
    },
    {
      "midi": 69,
      "hit": false,
      "t": 65000.000000000044,
      "d": 1000,
      "v": 73
    },
    {
      "midi": 72,
      "hit": false,
      "t": 65083.33333333338,
      "d": 83.33333333333576,
      "v": 100
    },
    {
      "midi": 72,
      "hit": false,
      "t": 65166.666666666715,
      "d": 83.33333333333576,
      "v": 100
    },
    {
      "midi": 72,
      "hit": false,
      "t": 65250.00000000005,
      "d": 83.33333333333576,
      "v": 100
    },
    {
      "midi": 72,
      "hit": false,
      "t": 65333.33333333339,
      "d": 83.33333333332848,
      "v": 100
    },
    {
      "midi": 72,
      "hit": false,
      "t": 65416.666666666715,
      "d": 83.33333333333576,
      "v": 100
    },
    {
      "midi": 72,
      "hit": false,
      "t": 65500.00000000005,
      "d": 83.33333333333576,
      "v": 100
    },
    {
      "midi": 72,
      "hit": false,
      "t": 65583.33333333339,
      "d": 83.33333333332848,
      "v": 100
    },
    {
      "midi": 72,
      "hit": false,
      "t": 65666.66666666672,
      "d": 83.33333333332848,
      "v": 100
    },
    {
      "midi": 72,
      "hit": false,
      "t": 65750.00000000004,
      "d": 83.33333333332848,
      "v": 100
    },
    {
      "midi": 72,
      "hit": false,
      "t": 65833.33333333337,
      "d": 66.66666666667152,
      "v": 100
    },
    {
      "midi": 72,
      "hit": false,
      "t": 65916.66666666672,
      "d": 83.33333333332848,
      "v": 100
    },
    {
      "midi": 74,
      "hit": false,
      "t": 66000.00000000004,
      "d": 83.33333333332848,
      "v": 81
    },
    {
      "midi": 57,
      "hit": false,
      "t": 66000.00000000004,
      "d": 224.99999999998545,
      "v": 81
    },
    {
      "midi": 59,
      "hit": false,
      "t": 66000.00000000004,
      "d": 999.9999999999563,
      "v": 100
    },
    {
      "midi": 62,
      "hit": false,
      "t": 66000.00000000004,
      "d": 999.9999999999563,
      "v": 100
    },
    {
      "midi": 71,
      "hit": false,
      "t": 66000.00000000004,
      "d": 999.9999999999563,
      "v": 82
    },
    {
      "midi": 74,
      "hit": false,
      "t": 66083.33333333337,
      "d": 83.33333333332848,
      "v": 100
    },
    {
      "midi": 74,
      "hit": false,
      "t": 66166.6666666667,
      "d": 83.33333333332848,
      "v": 100
    },
    {
      "midi": 74,
      "hit": false,
      "t": 66250.00000000003,
      "d": 83.33333333332848,
      "v": 100
    },
    {
      "midi": 74,
      "hit": false,
      "t": 66333.33333333336,
      "d": 83.33333333332848,
      "v": 100
    },
    {
      "midi": 74,
      "hit": false,
      "t": 66416.66666666669,
      "d": 83.33333333332848,
      "v": 100
    },
    {
      "midi": 74,
      "hit": false,
      "t": 66500.00000000001,
      "d": 83.33333333332848,
      "v": 100
    },
    {
      "midi": 74,
      "hit": false,
      "t": 66583.33333333334,
      "d": 83.33333333332848,
      "v": 100
    },
    {
      "midi": 74,
      "hit": false,
      "t": 66666.66666666667,
      "d": 83.33333333332848,
      "v": 100
    },
    {
      "midi": 74,
      "hit": false,
      "t": 66750,
      "d": 83.33333333332848,
      "v": 100
    },
    {
      "midi": 40,
      "hit": false,
      "t": 66750,
      "d": 225,
      "v": 80
    },
    {
      "midi": 74,
      "hit": false,
      "t": 66833.33333333333,
      "d": 66.66666666667152,
      "v": 100
    },
    {
      "midi": 74,
      "hit": false,
      "t": 66916.66666666667,
      "d": 83.33333333332848,
      "v": 100
    },
    {
      "midi": 76,
      "hit": false,
      "t": 67000,
      "d": 83.33333333332848,
      "v": 95
    },
    {
      "midi": 57,
      "hit": false,
      "t": 67000,
      "d": 224.99999999998545,
      "v": 81
    },
    {
      "midi": 40,
      "hit": false,
      "t": 67000,
      "d": 499.9999999999709,
      "v": 100
    },
    {
      "midi": 56,
      "hit": false,
      "t": 67000,
      "d": 999.9999999999709,
      "v": 100
    },
    {
      "midi": 59,
      "hit": false,
      "t": 67000,
      "d": 999.9999999999709,
      "v": 100
    },
    {
      "midi": 64,
      "hit": false,
      "t": 67000,
      "d": 999.9999999999709,
      "v": 100
    },
    {
      "midi": 68,
      "hit": false,
      "t": 67000,
      "d": 999.9999999999709,
      "v": 94
    },
    {
      "midi": 71,
      "hit": false,
      "t": 67000,
      "d": 999.9999999999709,
      "v": 96
    },
    {
      "midi": 76,
      "hit": false,
      "t": 67083.33333333333,
      "d": 83.33333333332848,
      "v": 100
    },
    {
      "midi": 76,
      "hit": false,
      "t": 67166.66666666666,
      "d": 83.33333333332848,
      "v": 100
    },
    {
      "midi": 76,
      "hit": false,
      "t": 67249.99999999999,
      "d": 83.33333333332848,
      "v": 100
    },
    {
      "midi": 76,
      "hit": false,
      "t": 67333.33333333331,
      "d": 83.33333333332848,
      "v": 100
    },
    {
      "midi": 76,
      "hit": false,
      "t": 67416.66666666664,
      "d": 83.33333333332848,
      "v": 100
    },
    {
      "midi": 76,
      "hit": false,
      "t": 67499.99999999997,
      "d": 83.33333333332848,
      "v": 100
    },
    {
      "midi": 40,
      "hit": false,
      "t": 67499.99999999997,
      "d": 112.5,
      "v": 80
    },
    {
      "midi": 76,
      "hit": false,
      "t": 67583.3333333333,
      "d": 83.33333333334303,
      "v": 100
    },
    {
      "midi": 40,
      "hit": false,
      "t": 67624.99999999997,
      "d": 112.5,
      "v": 80
    },
    {
      "midi": 76,
      "hit": false,
      "t": 67666.66666666664,
      "d": 83.33333333332848,
      "v": 100
    },
    {
      "midi": 76,
      "hit": false,
      "t": 67749.99999999997,
      "d": 83.33333333332848,
      "v": 100
    },
    {
      "midi": 40,
      "hit": false,
      "t": 67749.99999999997,
      "d": 112.5,
      "v": 90
    },
    {
      "midi": 76,
      "hit": false,
      "t": 67833.3333333333,
      "d": 66.66666666667152,
      "v": 100
    },
    {
      "midi": 76,
      "hit": false,
      "t": 67916.66666666664,
      "d": 83.33333333332848,
      "v": 100
    },
    {
      "midi": 81,
      "hit": false,
      "t": 67999.99999999997,
      "d": 225,
      "v": 100
    },
    {
      "midi": 46,
      "hit": false,
      "t": 67999.99999999997,
      "d": 225,
      "v": 80
    },
    {
      "midi": 38,
      "hit": false,
      "t": 67999.99999999997,
      "d": 749.9999999999854,
      "v": 100
    },
    {
      "midi": 57,
      "hit": false,
      "t": 67999.99999999997,
      "d": 3999.9999999999854,
      "v": 100
    },
    {
      "midi": 62,
      "hit": false,
      "t": 67999.99999999997,
      "d": 3999.9999999999854,
      "v": 100
    },
    {
      "midi": 65,
      "hit": false,
      "t": 67999.99999999997,
      "d": 3999.9999999999854,
      "v": 100
    },
    {
      "midi": 69,
      "hit": false,
      "t": 67999.99999999997,
      "d": 3999.9999999999854,
      "v": 100
    },
    {
      "midi": 74,
      "hit": false,
      "t": 67999.99999999997,
      "d": 3999.9999999999854,
      "v": 100
    },
    {
      "midi": 77,
      "hit": false,
      "t": 67999.99999999997,
      "d": 3999.9999999999854,
      "v": 100
    },
    {
      "midi": 42,
      "hit": false,
      "t": 68249.99999999997,
      "d": 75,
      "v": 80
    },
    {
      "midi": 81,
      "hit": false,
      "t": 68249.99999999997,
      "d": 224.99999999998545,
      "v": 100
    },
    {
      "midi": 54,
      "hit": false,
      "t": 68249.99999999997,
      "d": 224.99999999998545,
      "v": 50
    },
    {
      "midi": 42,
      "hit": false,
      "t": 68333.3333333333,
      "d": 75,
      "v": 70
    },
    {
      "midi": 42,
      "hit": false,
      "t": 68416.66666666663,
      "d": 75,
      "v": 60
    },
    {
      "midi": 81,
      "hit": false,
      "t": 68499.99999999996,
      "d": 225,
      "v": 100
    },
    {
      "midi": 40,
      "hit": false,
      "t": 68499.99999999996,
      "d": 225,
      "v": 80
    },
    {
      "midi": 81,
      "hit": false,
      "t": 68749.99999999996,
      "d": 225,
      "v": 100
    },
    {
      "midi": 54,
      "hit": false,
      "t": 68749.99999999996,
      "d": 225,
      "v": 50
    },
    {
      "midi": 38,
      "hit": false,
      "t": 68749.99999999996,
      "d": 250,
      "v": 100
    },
    {
      "midi": 81,
      "hit": false,
      "t": 68999.99999999996,
      "d": 450,
      "v": 100
    },
    {
      "midi": 38,
      "hit": false,
      "t": 68999.99999999996,
      "d": 500,
      "v": 100
    },
    {
      "midi": 54,
      "hit": false,
      "t": 69249.99999999996,
      "d": 225,
      "v": 50
    },
    {
      "midi": 40,
      "hit": false,
      "t": 69499.99999999996,
      "d": 225,
      "v": 80
    },
    {
      "midi": 81,
      "hit": false,
      "t": 69499.99999999996,
      "d": 450,
      "v": 100
    },
    {
      "midi": 54,
      "hit": false,
      "t": 69749.99999999996,
      "d": 225,
      "v": 50
    },
    {
      "midi": 83,
      "hit": false,
      "t": 69999.99999999996,
      "d": 675,
      "v": 100
    },
    {
      "midi": 38,
      "hit": false,
      "t": 69999.99999999996,
      "d": 750,
      "v": 100
    },
    {
      "midi": 54,
      "hit": false,
      "t": 70249.99999999996,
      "d": 225,
      "v": 50
    },
    {
      "midi": 40,
      "hit": false,
      "t": 70499.99999999996,
      "d": 225,
      "v": 80
    },
    {
      "midi": 54,
      "hit": false,
      "t": 70749.99999999996,
      "d": 225,
      "v": 50
    },
    {
      "midi": 81,
      "hit": false,
      "t": 70749.99999999996,
      "d": 250,
      "v": 100
    },
    {
      "midi": 38,
      "hit": false,
      "t": 70749.99999999996,
      "d": 250,
      "v": 100
    },
    {
      "midi": 38,
      "hit": false,
      "t": 70999.99999999996,
      "d": 500,
      "v": 100
    },
    {
      "midi": 84,
      "hit": false,
      "t": 70999.99999999996,
      "d": 500,
      "v": 100
    },
    {
      "midi": 54,
      "hit": false,
      "t": 71249.99999999996,
      "d": 225,
      "v": 50
    },
    {
      "midi": 40,
      "hit": false,
      "t": 71499.99999999996,
      "d": 225,
      "v": 80
    },
    {
      "midi": 86,
      "hit": false,
      "t": 71499.99999999996,
      "d": 500,
      "v": 100
    },
    {
      "midi": 54,
      "hit": false,
      "t": 71749.99999999996,
      "d": 225,
      "v": 50
    },
    {
      "midi": 46,
      "hit": false,
      "t": 71999.99999999996,
      "d": 75,
      "v": 80
    },
    {
      "midi": 81,
      "hit": false,
      "t": 71999.99999999996,
      "d": 250,
      "v": 100
    },
    {
      "midi": 45,
      "hit": false,
      "t": 71999.99999999996,
      "d": 749.9999999999854,
      "v": 100
    },
    {
      "midi": 88,
      "hit": false,
      "t": 71999.99999999996,
      "d": 2499.9999999999854,
      "v": 100
    },
    {
      "midi": 57,
      "hit": false,
      "t": 71999.99999999996,
      "d": 3999.9999999999854,
      "v": 100
    },
    {
      "midi": 60,
      "hit": false,
      "t": 71999.99999999996,
      "d": 3999.9999999999854,
      "v": 100
    },
    {
      "midi": 64,
      "hit": false,
      "t": 71999.99999999996,
      "d": 3999.9999999999854,
      "v": 100
    },
    {
      "midi": 69,
      "hit": false,
      "t": 71999.99999999996,
      "d": 3999.9999999999854,
      "v": 100
    },
    {
      "midi": 42,
      "hit": false,
      "t": 72249.99999999996,
      "d": 75,
      "v": 70
    },
    {
      "midi": 54,
      "hit": false,
      "t": 72249.99999999996,
      "d": 224.99999999998545,
      "v": 50
    },
    {
      "midi": 81,
      "hit": false,
      "t": 72249.99999999996,
      "d": 249.99999999998545,
      "v": 100
    },
    {
      "midi": 42,
      "hit": false,
      "t": 72333.33333333328,
      "d": 75,
      "v": 60
    },
    {
      "midi": 42,
      "hit": false,
      "t": 72416.66666666661,
      "d": 75,
      "v": 80
    },
    {
      "midi": 40,
      "hit": false,
      "t": 72499.99999999994,
      "d": 225,
      "v": 80
    },
    {
      "midi": 81,
      "hit": false,
      "t": 72499.99999999994,
      "d": 250,
      "v": 100
    },
    {
      "midi": 54,
      "hit": false,
      "t": 72749.99999999994,
      "d": 225,
      "v": 50
    },
    {
      "midi": 45,
      "hit": false,
      "t": 72749.99999999994,
      "d": 250,
      "v": 100
    },
    {
      "midi": 81,
      "hit": false,
      "t": 72749.99999999994,
      "d": 250,
      "v": 100
    },
    {
      "midi": 45,
      "hit": false,
      "t": 72999.99999999994,
      "d": 500,
      "v": 100
    },
    {
      "midi": 76,
      "hit": false,
      "t": 72999.99999999994,
      "d": 500,
      "v": 100
    },
    {
      "midi": 54,
      "hit": false,
      "t": 73249.99999999994,
      "d": 225,
      "v": 50
    },
    {
      "midi": 40,
      "hit": false,
      "t": 73499.99999999994,
      "d": 225,
      "v": 80
    },
    {
      "midi": 74,
      "hit": false,
      "t": 73499.99999999994,
      "d": 500,
      "v": 100
    },
    {
      "midi": 54,
      "hit": false,
      "t": 73749.99999999994,
      "d": 225,
      "v": 50
    },
    {
      "midi": 45,
      "hit": false,
      "t": 73999.99999999994,
      "d": 750,
      "v": 100
    },
    {
      "midi": 72,
      "hit": false,
      "t": 73999.99999999994,
      "d": 1000,
      "v": 100
    },
    {
      "midi": 54,
      "hit": false,
      "t": 74249.99999999994,
      "d": 225,
      "v": 50
    },
    {
      "midi": 40,
      "hit": false,
      "t": 74499.99999999994,
      "d": 225,
      "v": 80
    },
    {
      "midi": 86,
      "hit": false,
      "t": 74499.99999999994,
      "d": 500,
      "v": 100
    },
    {
      "midi": 54,
      "hit": false,
      "t": 74749.99999999994,
      "d": 225,
      "v": 50
    },
    {
      "midi": 45,
      "hit": false,
      "t": 74749.99999999994,
      "d": 250,
      "v": 100
    },
    {
      "midi": 45,
      "hit": false,
      "t": 74999.99999999994,
      "d": 500,
      "v": 100
    },
    {
      "midi": 88,
      "hit": false,
      "t": 74999.99999999994,
      "d": 500,
      "v": 100
    },
    {
      "midi": 54,
      "hit": false,
      "t": 75249.99999999994,
      "d": 225,
      "v": 50
    },
    {
      "midi": 40,
      "hit": false,
      "t": 75499.99999999994,
      "d": 225,
      "v": 80
    },
    {
      "midi": 84,
      "hit": false,
      "t": 75499.99999999994,
      "d": 500,
      "v": 100
    },
    {
      "midi": 54,
      "hit": false,
      "t": 75749.99999999994,
      "d": 225,
      "v": 50
    },
    {
      "midi": 46,
      "hit": false,
      "t": 75999.99999999994,
      "d": 225,
      "v": 80
    },
    {
      "midi": 74,
      "hit": false,
      "t": 75999.99999999994,
      "d": 250,
      "v": 100
    },
    {
      "midi": 47,
      "hit": false,
      "t": 75999.99999999994,
      "d": 749.9999999999854,
      "v": 100
    },
    {
      "midi": 57,
      "hit": false,
      "t": 75999.99999999994,
      "d": 1999.9999999999854,
      "v": 100
    },
    {
      "midi": 62,
      "hit": false,
      "t": 75999.99999999994,
      "d": 1999.9999999999854,
      "v": 100
    },
    {
      "midi": 65,
      "hit": false,
      "t": 75999.99999999994,
      "d": 1999.9999999999854,
      "v": 100
    },
    {
      "midi": 86,
      "hit": false,
      "t": 75999.99999999994,
      "d": 1999.9999999999854,
      "v": 100
    },
    {
      "midi": 69,
      "hit": false,
      "t": 75999.99999999994,
      "d": 1999.9999999999854,
      "v": 100
    },
    {
      "midi": 42,
      "hit": false,
      "t": 76249.99999999994,
      "d": 75,
      "v": 70
    },
    {
      "midi": 54,
      "hit": false,
      "t": 76249.99999999994,
      "d": 224.99999999998545,
      "v": 50
    },
    {
      "midi": 74,
      "hit": false,
      "t": 76249.99999999994,
      "d": 249.99999999998545,
      "v": 100
    },
    {
      "midi": 42,
      "hit": false,
      "t": 76333.33333333327,
      "d": 75,
      "v": 60
    },
    {
      "midi": 42,
      "hit": false,
      "t": 76416.6666666666,
      "d": 75,
      "v": 60
    },
    {
      "midi": 40,
      "hit": false,
      "t": 76499.99999999993,
      "d": 225,
      "v": 80
    },
    {
      "midi": 74,
      "hit": false,
      "t": 76499.99999999993,
      "d": 250,
      "v": 100
    },
    {
      "midi": 54,
      "hit": false,
      "t": 76749.99999999993,
      "d": 225,
      "v": 50
    },
    {
      "midi": 47,
      "hit": false,
      "t": 76749.99999999993,
      "d": 250,
      "v": 100
    },
    {
      "midi": 74,
      "hit": false,
      "t": 76749.99999999993,
      "d": 250,
      "v": 100
    },
    {
      "midi": 47,
      "hit": false,
      "t": 76999.99999999993,
      "d": 500,
      "v": 100
    },
    {
      "midi": 76,
      "hit": false,
      "t": 76999.99999999993,
      "d": 500,
      "v": 100
    },
    {
      "midi": 54,
      "hit": false,
      "t": 77249.99999999993,
      "d": 225,
      "v": 50
    },
    {
      "midi": 40,
      "hit": false,
      "t": 77499.99999999993,
      "d": 225,
      "v": 80
    },
    {
      "midi": 77,
      "hit": false,
      "t": 77499.99999999993,
      "d": 500,
      "v": 100
    },
    {
      "midi": 54,
      "hit": false,
      "t": 77749.99999999993,
      "d": 225,
      "v": 50
    },
    {
      "midi": 76,
      "hit": false,
      "t": 77999.99999999993,
      "d": 500,
      "v": 100
    },
    {
      "midi": 83,
      "hit": false,
      "t": 77999.99999999993,
      "d": 1000,
      "v": 100
    },
    {
      "midi": 56,
      "hit": false,
      "t": 77999.99999999993,
      "d": 2000,
      "v": 100
    },
    {
      "midi": 62,
      "hit": false,
      "t": 77999.99999999993,
      "d": 2000,
      "v": 100
    },
    {
      "midi": 64,
      "hit": false,
      "t": 77999.99999999993,
      "d": 2000,
      "v": 100
    },
    {
      "midi": 68,
      "hit": false,
      "t": 77999.99999999993,
      "d": 2000,
      "v": 100
    },
    {
      "midi": 54,
      "hit": false,
      "t": 78249.99999999993,
      "d": 225,
      "v": 50
    },
    {
      "midi": 40,
      "hit": false,
      "t": 78499.99999999993,
      "d": 225,
      "v": 80
    },
    {
      "midi": 74,
      "hit": false,
      "t": 78499.99999999993,
      "d": 500,
      "v": 100
    },
    {
      "midi": 54,
      "hit": false,
      "t": 78749.99999999993,
      "d": 225,
      "v": 50
    },
    {
      "midi": 40,
      "hit": false,
      "t": 78749.99999999993,
      "d": 250,
      "v": 100
    },
    {
      "midi": 40,
      "hit": false,
      "t": 78999.99999999993,
      "d": 500,
      "v": 100
    },
    {
      "midi": 72,
      "hit": false,
      "t": 78999.99999999993,
      "d": 500,
      "v": 100
    },
    {
      "midi": 88,
      "hit": false,
      "t": 78999.99999999993,
      "d": 1999.9999999999854,
      "v": 100
    },
    {
      "midi": 54,
      "hit": false,
      "t": 79249.99999999993,
      "d": 225,
      "v": 50
    },
    {
      "midi": 40,
      "hit": false,
      "t": 79499.99999999993,
      "d": 225,
      "v": 80
    },
    {
      "midi": 74,
      "hit": false,
      "t": 79499.99999999993,
      "d": 500,
      "v": 100
    },
    {
      "midi": 54,
      "hit": false,
      "t": 79749.99999999993,
      "d": 225,
      "v": 50
    },
    {
      "midi": 46,
      "hit": false,
      "t": 79999.99999999993,
      "d": 225,
      "v": 80
    },
    {
      "midi": 45,
      "hit": false,
      "t": 79999.99999999993,
      "d": 749.9999999999854,
      "v": 100
    },
    {
      "midi": 72,
      "hit": false,
      "t": 79999.99999999993,
      "d": 999.9999999999854,
      "v": 100
    },
    {
      "midi": 57,
      "hit": false,
      "t": 79999.99999999993,
      "d": 999.9999999999854,
      "v": 100
    },
    {
      "midi": 60,
      "hit": false,
      "t": 79999.99999999993,
      "d": 999.9999999999854,
      "v": 100
    },
    {
      "midi": 64,
      "hit": false,
      "t": 79999.99999999993,
      "d": 999.9999999999854,
      "v": 100
    },
    {
      "midi": 69,
      "hit": false,
      "t": 79999.99999999993,
      "d": 999.9999999999854,
      "v": 100
    },
    {
      "midi": 76,
      "hit": false,
      "t": 79999.99999999993,
      "d": 999.9999999999854,
      "v": 100
    },
    {
      "midi": 42,
      "hit": false,
      "t": 80249.99999999993,
      "d": 75,
      "v": 60
    },
    {
      "midi": 54,
      "hit": false,
      "t": 80249.99999999993,
      "d": 224.99999999998545,
      "v": 50
    },
    {
      "midi": 42,
      "hit": false,
      "t": 80333.33333333326,
      "d": 75,
      "v": 70
    },
    {
      "midi": 42,
      "hit": false,
      "t": 80416.66666666658,
      "d": 75,
      "v": 60
    },
    {
      "midi": 40,
      "hit": false,
      "t": 80499.99999999991,
      "d": 225,
      "v": 80
    },
    {
      "midi": 54,
      "hit": false,
      "t": 80749.99999999991,
      "d": 225,
      "v": 50
    },
    {
      "midi": 45,
      "hit": false,
      "t": 80749.99999999991,
      "d": 250,
      "v": 100
    },
    {
      "midi": 47,
      "hit": false,
      "t": 80999.99999999991,
      "d": 750,
      "v": 100
    },
    {
      "midi": 74,
      "hit": false,
      "t": 80999.99999999991,
      "d": 1000,
      "v": 100
    },
    {
      "midi": 55,
      "hit": false,
      "t": 80999.99999999991,
      "d": 1000,
      "v": 100
    },
    {
      "midi": 59,
      "hit": false,
      "t": 80999.99999999991,
      "d": 1000,
      "v": 100
    },
    {
      "midi": 62,
      "hit": false,
      "t": 80999.99999999991,
      "d": 1000,
      "v": 100
    },
    {
      "midi": 86,
      "hit": false,
      "t": 80999.99999999991,
      "d": 1000,
      "v": 100
    },
    {
      "midi": 67,
      "hit": false,
      "t": 80999.99999999991,
      "d": 1000,
      "v": 100
    },
    {
      "midi": 71,
      "hit": false,
      "t": 80999.99999999991,
      "d": 1000,
      "v": 100
    },
    {
      "midi": 54,
      "hit": false,
      "t": 81249.99999999991,
      "d": 225,
      "v": 50
    },
    {
      "midi": 40,
      "hit": false,
      "t": 81499.99999999991,
      "d": 225,
      "v": 80
    },
    {
      "midi": 54,
      "hit": false,
      "t": 81749.99999999991,
      "d": 225,
      "v": 50
    },
    {
      "midi": 47,
      "hit": false,
      "t": 81749.99999999991,
      "d": 250,
      "v": 100
    },
    {
      "midi": 37,
      "hit": false,
      "t": 81999.99999999991,
      "d": 750,
      "v": 100
    },
    {
      "midi": 85,
      "hit": false,
      "t": 81999.99999999991,
      "d": 1000,
      "v": 100
    },
    {
      "midi": 76,
      "hit": false,
      "t": 81999.99999999991,
      "d": 1500,
      "v": 100
    },
    {
      "midi": 57,
      "hit": false,
      "t": 81999.99999999991,
      "d": 2000,
      "v": 100
    },
    {
      "midi": 64,
      "hit": false,
      "t": 81999.99999999991,
      "d": 2000,
      "v": 100
    },
    {
      "midi": 61,
      "hit": false,
      "t": 81999.99999999991,
      "d": 2000,
      "v": 100
    },
    {
      "midi": 69,
      "hit": false,
      "t": 81999.99999999991,
      "d": 2000,
      "v": 100
    },
    {
      "midi": 73,
      "hit": false,
      "t": 81999.99999999991,
      "d": 2000,
      "v": 100
    },
    {
      "midi": 54,
      "hit": false,
      "t": 82249.99999999991,
      "d": 225,
      "v": 50
    },
    {
      "midi": 40,
      "hit": false,
      "t": 82499.99999999991,
      "d": 225,
      "v": 80
    },
    {
      "midi": 54,
      "hit": false,
      "t": 82749.99999999991,
      "d": 225,
      "v": 50
    },
    {
      "midi": 37,
      "hit": false,
      "t": 82749.99999999991,
      "d": 250,
      "v": 100
    },
    {
      "midi": 45,
      "hit": false,
      "t": 82999.99999999991,
      "d": 500,
      "v": 100
    },
    {
      "midi": 88,
      "hit": false,
      "t": 82999.99999999991,
      "d": 1000,
      "v": 100
    },
    {
      "midi": 54,
      "hit": false,
      "t": 83249.99999999991,
      "d": 225,
      "v": 50
    },
    {
      "midi": 40,
      "hit": false,
      "t": 83499.99999999991,
      "d": 225,
      "v": 80
    },
    {
      "midi": 45,
      "hit": false,
      "t": 83499.99999999991,
      "d": 500,
      "v": 100
    },
    {
      "midi": 54,
      "hit": false,
      "t": 83749.99999999991,
      "d": 225,
      "v": 50
    },
    {
      "midi": 40,
      "hit": false,
      "t": 83749.99999999991,
      "d": 225,
      "v": 80
    },
    {
      "midi": 46,
      "hit": false,
      "t": 83999.99999999991,
      "d": 225,
      "v": 80
    },
    {
      "midi": 81,
      "hit": false,
      "t": 83999.99999999991,
      "d": 250,
      "v": 100
    },
    {
      "midi": 38,
      "hit": false,
      "t": 83999.99999999991,
      "d": 749.9999999999854,
      "v": 100
    },
    {
      "midi": 93,
      "hit": false,
      "t": 83999.99999999991,
      "d": 2999.9999999999854,
      "v": 100
    },
    {
      "midi": 57,
      "hit": false,
      "t": 83999.99999999991,
      "d": 3999.9999999999854,
      "v": 100
    },
    {
      "midi": 62,
      "hit": false,
      "t": 83999.99999999991,
      "d": 3999.9999999999854,
      "v": 100
    },
    {
      "midi": 65,
      "hit": false,
      "t": 83999.99999999991,
      "d": 3999.9999999999854,
      "v": 100
    },
    {
      "midi": 69,
      "hit": false,
      "t": 83999.99999999991,
      "d": 3999.9999999999854,
      "v": 100
    },
    {
      "midi": 74,
      "hit": false,
      "t": 83999.99999999991,
      "d": 3999.9999999999854,
      "v": 100
    },
    {
      "midi": 77,
      "hit": false,
      "t": 83999.99999999991,
      "d": 3999.9999999999854,
      "v": 100
    },
    {
      "midi": 42,
      "hit": false,
      "t": 84249.99999999991,
      "d": 75,
      "v": 70
    },
    {
      "midi": 54,
      "hit": false,
      "t": 84249.99999999991,
      "d": 224.99999999998545,
      "v": 50
    },
    {
      "midi": 81,
      "hit": false,
      "t": 84249.99999999991,
      "d": 249.99999999998545,
      "v": 100
    },
    {
      "midi": 42,
      "hit": false,
      "t": 84333.33333333324,
      "d": 75,
      "v": 60
    },
    {
      "midi": 42,
      "hit": false,
      "t": 84416.66666666657,
      "d": 75,
      "v": 60
    },
    {
      "midi": 40,
      "hit": false,
      "t": 84499.9999999999,
      "d": 225,
      "v": 80
    },
    {
      "midi": 81,
      "hit": false,
      "t": 84499.9999999999,
      "d": 250,
      "v": 100
    },
    {
      "midi": 54,
      "hit": false,
      "t": 84749.9999999999,
      "d": 225,
      "v": 50
    },
    {
      "midi": 38,
      "hit": false,
      "t": 84749.9999999999,
      "d": 250,
      "v": 100
    },
    {
      "midi": 81,
      "hit": false,
      "t": 84749.9999999999,
      "d": 250,
      "v": 100
    },
    {
      "midi": 38,
      "hit": false,
      "t": 84999.9999999999,
      "d": 500,
      "v": 100
    },
    {
      "midi": 81,
      "hit": false,
      "t": 84999.9999999999,
      "d": 500,
      "v": 100
    },
    {
      "midi": 54,
      "hit": false,
      "t": 85249.9999999999,
      "d": 225,
      "v": 50
    },
    {
      "midi": 40,
      "hit": false,
      "t": 85499.9999999999,
      "d": 225,
      "v": 80
    },
    {
      "midi": 81,
      "hit": false,
      "t": 85499.9999999999,
      "d": 500,
      "v": 100
    },
    {
      "midi": 54,
      "hit": false,
      "t": 85749.9999999999,
      "d": 225,
      "v": 50
    },
    {
      "midi": 83,
      "hit": false,
      "t": 85999.9999999999,
      "d": 500,
      "v": 100
    },
    {
      "midi": 38,
      "hit": false,
      "t": 85999.9999999999,
      "d": 750,
      "v": 100
    },
    {
      "midi": 54,
      "hit": false,
      "t": 86249.9999999999,
      "d": 225,
      "v": 50
    },
    {
      "midi": 40,
      "hit": false,
      "t": 86499.9999999999,
      "d": 225,
      "v": 80
    },
    {
      "midi": 83,
      "hit": false,
      "t": 86499.9999999999,
      "d": 250,
      "v": 100
    },
    {
      "midi": 54,
      "hit": false,
      "t": 86749.9999999999,
      "d": 225,
      "v": 50
    },
    {
      "midi": 38,
      "hit": false,
      "t": 86749.9999999999,
      "d": 250,
      "v": 100
    },
    {
      "midi": 81,
      "hit": false,
      "t": 86749.9999999999,
      "d": 750,
      "v": 100
    },
    {
      "midi": 38,
      "hit": false,
      "t": 86999.9999999999,
      "d": 500,
      "v": 100
    },
    {
      "midi": 95,
      "hit": false,
      "t": 86999.9999999999,
      "d": 500,
      "v": 100
    },
    {
      "midi": 54,
      "hit": false,
      "t": 87249.9999999999,
      "d": 225,
      "v": 50
    },
    {
      "midi": 40,
      "hit": false,
      "t": 87499.9999999999,
      "d": 225,
      "v": 80
    },
    {
      "midi": 93,
      "hit": false,
      "t": 87499.9999999999,
      "d": 2999.9999999999854,
      "v": 100
    },
    {
      "midi": 54,
      "hit": false,
      "t": 87749.9999999999,
      "d": 225,
      "v": 50
    },
    {
      "midi": 46,
      "hit": false,
      "t": 87999.9999999999,
      "d": 225,
      "v": 80
    },
    {
      "midi": 81,
      "hit": false,
      "t": 87999.9999999999,
      "d": 250,
      "v": 100
    },
    {
      "midi": 45,
      "hit": false,
      "t": 87999.9999999999,
      "d": 749.9999999999854,
      "v": 100
    },
    {
      "midi": 57,
      "hit": false,
      "t": 87999.9999999999,
      "d": 3999.9999999999854,
      "v": 100
    },
    {
      "midi": 60,
      "hit": false,
      "t": 87999.9999999999,
      "d": 3999.9999999999854,
      "v": 100
    },
    {
      "midi": 64,
      "hit": false,
      "t": 87999.9999999999,
      "d": 3999.9999999999854,
      "v": 100
    },
    {
      "midi": 69,
      "hit": false,
      "t": 87999.9999999999,
      "d": 3999.9999999999854,
      "v": 100
    },
    {
      "midi": 42,
      "hit": false,
      "t": 88249.9999999999,
      "d": 75,
      "v": 70
    },
    {
      "midi": 54,
      "hit": false,
      "t": 88249.9999999999,
      "d": 224.99999999998545,
      "v": 50
    },
    {
      "midi": 81,
      "hit": false,
      "t": 88249.9999999999,
      "d": 249.99999999998545,
      "v": 100
    },
    {
      "midi": 42,
      "hit": false,
      "t": 88333.33333333323,
      "d": 75,
      "v": 60
    },
    {
      "midi": 42,
      "hit": false,
      "t": 88416.66666666656,
      "d": 75,
      "v": 60
    },
    {
      "midi": 40,
      "hit": false,
      "t": 88499.99999999988,
      "d": 225,
      "v": 80
    },
    {
      "midi": 81,
      "hit": false,
      "t": 88499.99999999988,
      "d": 250,
      "v": 100
    },
    {
      "midi": 54,
      "hit": false,
      "t": 88749.99999999988,
      "d": 225,
      "v": 50
    },
    {
      "midi": 45,
      "hit": false,
      "t": 88749.99999999988,
      "d": 250,
      "v": 100
    },
    {
      "midi": 81,
      "hit": false,
      "t": 88749.99999999988,
      "d": 250,
      "v": 100
    },
    {
      "midi": 45,
      "hit": false,
      "t": 88999.99999999988,
      "d": 500,
      "v": 100
    },
    {
      "midi": 76,
      "hit": false,
      "t": 88999.99999999988,
      "d": 500,
      "v": 100
    },
    {
      "midi": 54,
      "hit": false,
      "t": 89249.99999999988,
      "d": 225,
      "v": 50
    },
    {
      "midi": 40,
      "hit": false,
      "t": 89499.99999999988,
      "d": 225,
      "v": 80
    },
    {
      "midi": 74,
      "hit": false,
      "t": 89499.99999999988,
      "d": 500,
      "v": 100
    },
    {
      "midi": 54,
      "hit": false,
      "t": 89749.99999999988,
      "d": 225,
      "v": 50
    },
    {
      "midi": 45,
      "hit": false,
      "t": 89999.99999999988,
      "d": 750,
      "v": 100
    },
    {
      "midi": 72,
      "hit": false,
      "t": 89999.99999999988,
      "d": 1000,
      "v": 100
    },
    {
      "midi": 54,
      "hit": false,
      "t": 90249.99999999988,
      "d": 225,
      "v": 50
    },
    {
      "midi": 40,
      "hit": false,
      "t": 90499.99999999988,
      "d": 225,
      "v": 80
    },
    {
      "midi": 93,
      "hit": false,
      "t": 90499.99999999988,
      "d": 500,
      "v": 100
    },
    {
      "midi": 54,
      "hit": false,
      "t": 90749.99999999988,
      "d": 225,
      "v": 50
    },
    {
      "midi": 45,
      "hit": false,
      "t": 90749.99999999988,
      "d": 250,
      "v": 100
    },
    {
      "midi": 45,
      "hit": false,
      "t": 90999.99999999988,
      "d": 500,
      "v": 100
    },
    {
      "midi": 88,
      "hit": false,
      "t": 90999.99999999988,
      "d": 500,
      "v": 100
    },
    {
      "midi": 54,
      "hit": false,
      "t": 91249.99999999988,
      "d": 225,
      "v": 50
    },
    {
      "midi": 40,
      "hit": false,
      "t": 91499.99999999988,
      "d": 225,
      "v": 80
    },
    {
      "midi": 84,
      "hit": false,
      "t": 91499.99999999988,
      "d": 500,
      "v": 100
    },
    {
      "midi": 54,
      "hit": false,
      "t": 91749.99999999988,
      "d": 225,
      "v": 50
    },
    {
      "midi": 46,
      "hit": false,
      "t": 91999.99999999988,
      "d": 225,
      "v": 80
    },
    {
      "midi": 47,
      "hit": false,
      "t": 91999.99999999988,
      "d": 749.9999999999854,
      "v": 100
    },
    {
      "midi": 74,
      "hit": false,
      "t": 91999.99999999988,
      "d": 749.9999999999854,
      "v": 100
    },
    {
      "midi": 57,
      "hit": false,
      "t": 91999.99999999988,
      "d": 1999.9999999999854,
      "v": 100
    },
    {
      "midi": 62,
      "hit": false,
      "t": 91999.99999999988,
      "d": 1999.9999999999854,
      "v": 100
    },
    {
      "midi": 65,
      "hit": false,
      "t": 91999.99999999988,
      "d": 1999.9999999999854,
      "v": 100
    },
    {
      "midi": 69,
      "hit": false,
      "t": 91999.99999999988,
      "d": 1999.9999999999854,
      "v": 100
    },
    {
      "midi": 86,
      "hit": false,
      "t": 91999.99999999988,
      "d": 2001.041666666657,
      "v": 100
    },
    {
      "midi": 42,
      "hit": false,
      "t": 92249.99999999988,
      "d": 75,
      "v": 70
    },
    {
      "midi": 54,
      "hit": false,
      "t": 92249.99999999988,
      "d": 224.99999999998545,
      "v": 50
    },
    {
      "midi": 42,
      "hit": false,
      "t": 92333.33333333321,
      "d": 75,
      "v": 60
    },
    {
      "midi": 42,
      "hit": false,
      "t": 92416.66666666654,
      "d": 75,
      "v": 60
    },
    {
      "midi": 40,
      "hit": false,
      "t": 92499.99999999987,
      "d": 225,
      "v": 80
    },
    {
      "midi": 54,
      "hit": false,
      "t": 92749.99999999987,
      "d": 225,
      "v": 50
    },
    {
      "midi": 47,
      "hit": false,
      "t": 92749.99999999987,
      "d": 250,
      "v": 100
    },
    {
      "midi": 76,
      "hit": false,
      "t": 92749.99999999987,
      "d": 750,
      "v": 100
    },
    {
      "midi": 47,
      "hit": false,
      "t": 92999.99999999987,
      "d": 500,
      "v": 100
    },
    {
      "midi": 54,
      "hit": false,
      "t": 93249.99999999987,
      "d": 225,
      "v": 50
    },
    {
      "midi": 40,
      "hit": false,
      "t": 93499.99999999987,
      "d": 225,
      "v": 80
    },
    {
      "midi": 77,
      "hit": false,
      "t": 93499.99999999987,
      "d": 500,
      "v": 100
    },
    {
      "midi": 54,
      "hit": false,
      "t": 93749.99999999987,
      "d": 225,
      "v": 50
    },
    {
      "midi": 40,
      "hit": false,
      "t": 93999.99999999987,
      "d": 225,
      "v": 80
    },
    {
      "midi": 42,
      "hit": false,
      "t": 93999.99999999987,
      "d": 225,
      "v": 70
    },
    {
      "midi": 36,
      "hit": false,
      "t": 93999.99999999987,
      "d": 225,
      "v": 70
    },
    {
      "midi": 76,
      "hit": false,
      "t": 93999.99999999987,
      "d": 500,
      "v": 100
    },
    {
      "midi": 55,
      "hit": false,
      "t": 93999.99999999987,
      "d": 1999.9999999999418,
      "v": 100
    },
    {
      "midi": 59,
      "hit": false,
      "t": 93999.99999999987,
      "d": 1999.9999999999418,
      "v": 100
    },
    {
      "midi": 64,
      "hit": false,
      "t": 93999.99999999987,
      "d": 1999.9999999999418,
      "v": 100
    },
    {
      "midi": 67,
      "hit": false,
      "t": 93999.99999999987,
      "d": 1999.9999999999418,
      "v": 100
    },
    {
      "midi": 71,
      "hit": false,
      "t": 93999.99999999987,
      "d": 1999.9999999999418,
      "v": 100
    },
    {
      "midi": 54,
      "hit": false,
      "t": 94499.99999999987,
      "d": 75,
      "v": 80
    },
    {
      "midi": 40,
      "hit": false,
      "t": 94499.99999999987,
      "d": 224.99999999998545,
      "v": 80
    },
    {
      "midi": 42,
      "hit": false,
      "t": 94499.99999999987,
      "d": 224.99999999998545,
      "v": 70
    },
    {
      "midi": 36,
      "hit": false,
      "t": 94499.99999999987,
      "d": 224.99999999998545,
      "v": 70
    },
    {
      "midi": 54,
      "hit": false,
      "t": 94583.3333333332,
      "d": 75,
      "v": 80
    },
    {
      "midi": 54,
      "hit": false,
      "t": 94666.66666666653,
      "d": 75,
      "v": 80
    },
    {
      "midi": 54,
      "hit": false,
      "t": 94749.99999999985,
      "d": 75,
      "v": 80
    },
    {
      "midi": 54,
      "hit": false,
      "t": 94833.33333333318,
      "d": 75,
      "v": 80
    },
    {
      "midi": 54,
      "hit": false,
      "t": 94916.66666666651,
      "d": 75,
      "v": 80
    },
    {
      "midi": 54,
      "hit": false,
      "t": 94999.99999999984,
      "d": 75,
      "v": 80
    },
    {
      "midi": 79,
      "hit": false,
      "t": 94999.99999999984,
      "d": 499.9999999999709,
      "v": 100
    },
    {
      "midi": 54,
      "hit": false,
      "t": 95083.33333333317,
      "d": 75,
      "v": 80
    },
    {
      "midi": 54,
      "hit": false,
      "t": 95166.6666666665,
      "d": 75,
      "v": 80
    },
    {
      "midi": 54,
      "hit": false,
      "t": 95249.99999999983,
      "d": 75,
      "v": 80
    },
    {
      "midi": 54,
      "hit": false,
      "t": 95333.33333333315,
      "d": 75,
      "v": 80
    },
    {
      "midi": 54,
      "hit": false,
      "t": 95416.66666666648,
      "d": 75,
      "v": 80
    },
    {
      "midi": 54,
      "hit": false,
      "t": 95499.99999999981,
      "d": 75,
      "v": 80
    },
    {
      "midi": 76,
      "hit": false,
      "t": 95499.99999999981,
      "d": 500,
      "v": 100
    },
    {
      "midi": 40,
      "hit": false,
      "t": 95499.99999999981,
      "d": 500,
      "v": 100
    },
    {
      "midi": 54,
      "hit": false,
      "t": 95583.33333333314,
      "d": 75,
      "v": 80
    },
    {
      "midi": 54,
      "hit": false,
      "t": 95666.66666666647,
      "d": 75,
      "v": 80
    },
    {
      "midi": 42,
      "hit": false,
      "t": 95999.99999999981,
      "d": 225,
      "v": 70
    },
    {
      "midi": 41,
      "hit": false,
      "t": 95999.99999999981,
      "d": 750,
      "v": 100
    },
    {
      "midi": 81,
      "hit": false,
      "t": 95999.99999999981,
      "d": 2000,
      "v": 100
    },
    {
      "midi": 53,
      "hit": false,
      "t": 95999.99999999981,
      "d": 2000,
      "v": 100
    },
    {
      "midi": 57,
      "hit": false,
      "t": 95999.99999999981,
      "d": 2000,
      "v": 100
    },
    {
      "midi": 60,
      "hit": false,
      "t": 95999.99999999981,
      "d": 2000,
      "v": 100
    },
    {
      "midi": 77,
      "hit": false,
      "t": 95999.99999999981,
      "d": 2000,
      "v": 100
    },
    {
      "midi": 65,
      "hit": false,
      "t": 95999.99999999981,
      "d": 2000,
      "v": 100
    },
    {
      "midi": 69,
      "hit": false,
      "t": 95999.99999999981,
      "d": 2000,
      "v": 100
    },
    {
      "midi": 72,
      "hit": false,
      "t": 95999.99999999981,
      "d": 2000,
      "v": 100
    },
    {
      "midi": 42,
      "hit": false,
      "t": 96499.99999999981,
      "d": 225,
      "v": 70
    },
    {
      "midi": 41,
      "hit": false,
      "t": 96749.99999999981,
      "d": 250,
      "v": 100
    },
    {
      "midi": 42,
      "hit": false,
      "t": 96999.99999999981,
      "d": 225,
      "v": 70
    },
    {
      "midi": 41,
      "hit": false,
      "t": 96999.99999999981,
      "d": 500,
      "v": 100
    },
    {
      "midi": 42,
      "hit": false,
      "t": 97499.99999999981,
      "d": 225,
      "v": 70
    },
    {
      "midi": 54,
      "hit": false,
      "t": 97499.99999999981,
      "d": 225,
      "v": 70
    },
    {
      "midi": 40,
      "hit": false,
      "t": 97499.99999999981,
      "d": 225,
      "v": 70
    },
    {
      "midi": 42,
      "hit": false,
      "t": 97999.99999999981,
      "d": 225,
      "v": 70
    },
    {
      "midi": 43,
      "hit": false,
      "t": 97999.99999999981,
      "d": 750,
      "v": 100
    },
    {
      "midi": 55,
      "hit": false,
      "t": 97999.99999999981,
      "d": 2000,
      "v": 100
    },
    {
      "midi": 59,
      "hit": false,
      "t": 97999.99999999981,
      "d": 2000,
      "v": 100
    },
    {
      "midi": 62,
      "hit": false,
      "t": 97999.99999999981,
      "d": 2000,
      "v": 100
    },
    {
      "midi": 67,
      "hit": false,
      "t": 97999.99999999981,
      "d": 2000,
      "v": 100
    },
    {
      "midi": 71,
      "hit": false,
      "t": 97999.99999999981,
      "d": 2000,
      "v": 100
    },
    {
      "midi": 74,
      "hit": false,
      "t": 97999.99999999981,
      "d": 2000,
      "v": 100
    },
    {
      "midi": 42,
      "hit": false,
      "t": 98499.99999999981,
      "d": 225,
      "v": 70
    },
    {
      "midi": 81,
      "hit": false,
      "t": 98499.99999999981,
      "d": 500,
      "v": 100
    },
    {
      "midi": 43,
      "hit": false,
      "t": 98749.99999999981,
      "d": 250,
      "v": 100
    },
    {
      "midi": 42,
      "hit": false,
      "t": 98999.99999999981,
      "d": 225,
      "v": 70
    },
    {
      "midi": 43,
      "hit": false,
      "t": 98999.99999999981,
      "d": 500,
      "v": 100
    },
    {
      "midi": 79,
      "hit": false,
      "t": 98999.99999999981,
      "d": 500,
      "v": 100
    },
    {
      "midi": 40,
      "hit": false,
      "t": 99249.99999999981,
      "d": 225,
      "v": 70
    },
    {
      "midi": 54,
      "hit": false,
      "t": 99249.99999999981,
      "d": 225,
      "v": 60
    },
    {
      "midi": 42,
      "hit": false,
      "t": 99499.99999999981,
      "d": 225,
      "v": 70
    },
    {
      "midi": 40,
      "hit": false,
      "t": 99499.99999999981,
      "d": 225,
      "v": 70
    },
    {
      "midi": 54,
      "hit": false,
      "t": 99499.99999999981,
      "d": 225,
      "v": 60
    },
    {
      "midi": 76,
      "hit": false,
      "t": 99499.99999999981,
      "d": 250,
      "v": 100
    },
    {
      "midi": 40,
      "hit": false,
      "t": 99749.99999999981,
      "d": 225,
      "v": 60
    },
    {
      "midi": 54,
      "hit": false,
      "t": 99749.99999999981,
      "d": 225,
      "v": 60
    },
    {
      "midi": 81,
      "hit": false,
      "t": 99749.99999999981,
      "d": 251.04166666667152,
      "v": 100
    },
    {
      "midi": 69,
      "hit": false,
      "t": 99999.99999999981,
      "d": 75,
      "v": 100
    },
    {
      "midi": 42,
      "hit": false,
      "t": 99999.99999999981,
      "d": 224.99999999998545,
      "v": 90
    },
    {
      "midi": 72,
      "hit": false,
      "t": 99999.99999999981,
      "d": 449.9999999999709,
      "v": 100
    },
    {
      "midi": 76,
      "hit": false,
      "t": 99999.99999999981,
      "d": 449.9999999999709,
      "v": 100
    },
    {
      "midi": 45,
      "hit": false,
      "t": 99999.99999999981,
      "d": 674.9999999999563,
      "v": 100
    },
    {
      "midi": 69,
      "hit": false,
      "t": 100083.33333333314,
      "d": 75,
      "v": 100
    },
    {
      "midi": 69,
      "hit": false,
      "t": 100166.66666666647,
      "d": 75,
      "v": 100
    },
    {
      "midi": 69,
      "hit": false,
      "t": 100249.9999999998,
      "d": 75,
      "v": 100
    },
    {
      "midi": 64,
      "hit": false,
      "t": 100249.9999999998,
      "d": 249.99999999998545,
      "v": 100
    },
    {
      "midi": 69,
      "hit": false,
      "t": 100333.33333333312,
      "d": 75,
      "v": 100
    },
    {
      "midi": 69,
      "hit": false,
      "t": 100416.66666666645,
      "d": 33.33333333332848,
      "v": 100
    },
    {
      "midi": 69,
      "hit": false,
      "t": 100499.99999999978,
      "d": 75,
      "v": 100
    },
    {
      "midi": 42,
      "hit": false,
      "t": 100499.99999999978,
      "d": 224.99999999998545,
      "v": 90
    },
    {
      "midi": 62,
      "hit": false,
      "t": 100499.99999999978,
      "d": 249.99999999998545,
      "v": 100
    },
    {
      "midi": 72,
      "hit": false,
      "t": 100499.99999999978,
      "d": 449.9999999999709,
      "v": 100
    },
    {
      "midi": 76,
      "hit": false,
      "t": 100499.99999999978,
      "d": 449.9999999999709,
      "v": 100
    },
    {
      "midi": 69,
      "hit": false,
      "t": 100583.33333333311,
      "d": 75,
      "v": 100
    },
    {
      "midi": 69,
      "hit": false,
      "t": 100666.66666666644,
      "d": 75,
      "v": 100
    },
    {
      "midi": 69,
      "hit": false,
      "t": 100749.99999999977,
      "d": 75,
      "v": 100
    },
    {
      "midi": 45,
      "hit": false,
      "t": 100749.99999999977,
      "d": 224.99999999998545,
      "v": 100
    },
    {
      "midi": 60,
      "hit": false,
      "t": 100749.99999999977,
      "d": 249.99999999998545,
      "v": 100
    },
    {
      "midi": 69,
      "hit": false,
      "t": 100833.3333333331,
      "d": 66.66666666667152,
      "v": 100
    },
    {
      "midi": 69,
      "hit": false,
      "t": 100916.66666666642,
      "d": 33.33333333332848,
      "v": 100
    },
    {
      "midi": 76,
      "hit": false,
      "t": 100999.99999999975,
      "d": 75,
      "v": 100
    },
    {
      "midi": 42,
      "hit": false,
      "t": 100999.99999999975,
      "d": 224.99999999998545,
      "v": 90
    },
    {
      "midi": 45,
      "hit": false,
      "t": 100999.99999999975,
      "d": 449.9999999999709,
      "v": 100
    },
    {
      "midi": 69,
      "hit": false,
      "t": 100999.99999999975,
      "d": 449.9999999999709,
      "v": 100
    },
    {
      "midi": 72,
      "hit": false,
      "t": 100999.99999999975,
      "d": 449.9999999999709,
      "v": 100
    },
    {
      "midi": 57,
      "hit": false,
      "t": 100999.99999999975,
      "d": 499.9999999999709,
      "v": 100
    },
    {
      "midi": 76,
      "hit": false,
      "t": 101083.33333333308,
      "d": 75,
      "v": 100
    },
    {
      "midi": 76,
      "hit": false,
      "t": 101166.66666666641,
      "d": 75,
      "v": 100
    },
    {
      "midi": 76,
      "hit": false,
      "t": 101249.99999999974,
      "d": 75,
      "v": 100
    },
    {
      "midi": 76,
      "hit": false,
      "t": 101333.33333333307,
      "d": 75,
      "v": 100
    },
    {
      "midi": 76,
      "hit": false,
      "t": 101416.6666666664,
      "d": 33.33333333332848,
      "v": 100
    },
    {
      "midi": 74,
      "hit": false,
      "t": 101499.99999999972,
      "d": 75,
      "v": 100
    },
    {
      "midi": 42,
      "hit": false,
      "t": 101499.99999999972,
      "d": 224.99999999998545,
      "v": 90
    },
    {
      "midi": 54,
      "hit": false,
      "t": 101499.99999999972,
      "d": 224.99999999998545,
      "v": 81
    },
    {
      "midi": 69,
      "hit": false,
      "t": 101499.99999999972,
      "d": 449.9999999999709,
      "v": 100
    },
    {
      "midi": 72,
      "hit": false,
      "t": 101499.99999999972,
      "d": 449.9999999999709,
      "v": 100
    },
    {
      "midi": 74,
      "hit": false,
      "t": 101583.33333333305,
      "d": 75,
      "v": 100
    },
    {
      "midi": 74,
      "hit": false,
      "t": 101666.66666666638,
      "d": 58.33333333332848,
      "v": 100
    },
    {
      "midi": 76,
      "hit": false,
      "t": 101749.99999999971,
      "d": 75,
      "v": 100
    },
    {
      "midi": 76,
      "hit": false,
      "t": 101833.33333333304,
      "d": 75,
      "v": 100
    },
    {
      "midi": 76,
      "hit": false,
      "t": 101916.66666666637,
      "d": 33.33333333332848,
      "v": 100
    },
    {
      "midi": 74,
      "hit": false,
      "t": 101999.9999999997,
      "d": 75,
      "v": 100
    },
    {
      "midi": 42,
      "hit": false,
      "t": 101999.9999999997,
      "d": 224.99999999998545,
      "v": 90
    },
    {
      "midi": 67,
      "hit": false,
      "t": 101999.9999999997,
      "d": 449.9999999999709,
      "v": 100
    },
    {
      "midi": 71,
      "hit": false,
      "t": 101999.9999999997,
      "d": 449.9999999999709,
      "v": 100
    },
    {
      "midi": 40,
      "hit": false,
      "t": 101999.9999999997,
      "d": 674.9999999999563,
      "v": 100
    },
    {
      "midi": 74,
      "hit": false,
      "t": 102083.33333333302,
      "d": 75,
      "v": 100
    },
    {
      "midi": 74,
      "hit": false,
      "t": 102166.66666666635,
      "d": 75,
      "v": 100
    },
    {
      "midi": 74,
      "hit": false,
      "t": 102249.99999999968,
      "d": 75,
      "v": 100
    },
    {
      "midi": 74,
      "hit": false,
      "t": 102333.33333333301,
      "d": 75,
      "v": 100
    },
    {
      "midi": 74,
      "hit": false,
      "t": 102416.66666666634,
      "d": 33.33333333332848,
      "v": 100
    },
    {
      "midi": 71,
      "hit": false,
      "t": 102499.99999999967,
      "d": 75,
      "v": 100
    },
    {
      "midi": 42,
      "hit": false,
      "t": 102499.99999999967,
      "d": 224.99999999998545,
      "v": 90
    },
    {
      "midi": 67,
      "hit": false,
      "t": 102499.99999999967,
      "d": 449.9999999999709,
      "v": 100
    },
    {
      "midi": 74,
      "hit": false,
      "t": 102499.99999999967,
      "d": 449.9999999999709,
      "v": 100
    },
    {
      "midi": 71,
      "hit": false,
      "t": 102583.333333333,
      "d": 75,
      "v": 100
    },
    {
      "midi": 71,
      "hit": false,
      "t": 102666.66666666632,
      "d": 75,
      "v": 100
    },
    {
      "midi": 71,
      "hit": false,
      "t": 102749.99999999965,
      "d": 75,
      "v": 100
    },
    {
      "midi": 40,
      "hit": false,
      "t": 102749.99999999965,
      "d": 224.99999999998545,
      "v": 100
    },
    {
      "midi": 71,
      "hit": false,
      "t": 102833.33333333298,
      "d": 75,
      "v": 100
    },
    {
      "midi": 71,
      "hit": false,
      "t": 102916.66666666631,
      "d": 33.33333333332848,
      "v": 100
    },
    {
      "midi": 67,
      "hit": false,
      "t": 102999.99999999964,
      "d": 75,
      "v": 100
    },
    {
      "midi": 42,
      "hit": false,
      "t": 102999.99999999964,
      "d": 224.99999999998545,
      "v": 90
    },
    {
      "midi": 43,
      "hit": false,
      "t": 102999.99999999964,
      "d": 449.9999999999709,
      "v": 100
    },
    {
      "midi": 71,
      "hit": false,
      "t": 102999.99999999964,
      "d": 449.9999999999709,
      "v": 100
    },
    {
      "midi": 74,
      "hit": false,
      "t": 102999.99999999964,
      "d": 449.9999999999709,
      "v": 100
    },
    {
      "midi": 67,
      "hit": false,
      "t": 103083.33333333296,
      "d": 75,
      "v": 100
    },
    {
      "midi": 67,
      "hit": false,
      "t": 103166.6666666663,
      "d": 75,
      "v": 100
    },
    {
      "midi": 67,
      "hit": false,
      "t": 103249.99999999962,
      "d": 75,
      "v": 100
    },
    {
      "midi": 67,
      "hit": false,
      "t": 103333.33333333295,
      "d": 75,
      "v": 100
    },
    {
      "midi": 67,
      "hit": false,
      "t": 103416.66666666628,
      "d": 33.33333333332848,
      "v": 100
    },
    {
      "midi": 67,
      "hit": false,
      "t": 103499.9999999996,
      "d": 75,
      "v": 100
    },
    {
      "midi": 42,
      "hit": false,
      "t": 103499.9999999996,
      "d": 224.99999999998545,
      "v": 90
    },
    {
      "midi": 54,
      "hit": false,
      "t": 103499.9999999996,
      "d": 224.99999999998545,
      "v": 81
    },
    {
      "midi": 47,
      "hit": false,
      "t": 103499.9999999996,
      "d": 449.9999999999709,
      "v": 100
    },
    {
      "midi": 71,
      "hit": false,
      "t": 103499.9999999996,
      "d": 449.9999999999709,
      "v": 100
    },
    {
      "midi": 74,
      "hit": false,
      "t": 103499.9999999996,
      "d": 449.9999999999709,
      "v": 100
    },
    {
      "midi": 67,
      "hit": false,
      "t": 103583.33333333294,
      "d": 75,
      "v": 100
    },
    {
      "midi": 67,
      "hit": false,
      "t": 103666.66666666626,
      "d": 75,
      "v": 100
    },
    {
      "midi": 67,
      "hit": false,
      "t": 103749.99999999959,
      "d": 75,
      "v": 100
    },
    {
      "midi": 67,
      "hit": false,
      "t": 103833.33333333292,
      "d": 66.66666666667152,
      "v": 100
    },
    {
      "midi": 67,
      "hit": false,
      "t": 103916.66666666625,
      "d": 33.33333333332848,
      "v": 100
    },
    {
      "midi": 72,
      "hit": false,
      "t": 103999.99999999958,
      "d": 75,
      "v": 100
    },
    {
      "midi": 42,
      "hit": false,
      "t": 103999.99999999958,
      "d": 224.99999999998545,
      "v": 90
    },
    {
      "midi": 65,
      "hit": false,
      "t": 103999.99999999958,
      "d": 449.9999999999709,
      "v": 100
    },
    {
      "midi": 69,
      "hit": false,
      "t": 103999.99999999958,
      "d": 449.9999999999709,
      "v": 100
    },
    {
      "midi": 41,
      "hit": false,
      "t": 103999.99999999958,
      "d": 674.9999999999563,
      "v": 100
    },
    {
      "midi": 72,
      "hit": false,
      "t": 104083.3333333329,
      "d": 75,
      "v": 100
    },
    {
      "midi": 72,
      "hit": false,
      "t": 104166.66666666623,
      "d": 75,
      "v": 100
    },
    {
      "midi": 72,
      "hit": false,
      "t": 104249.99999999956,
      "d": 75,
      "v": 100
    },
    {
      "midi": 72,
      "hit": false,
      "t": 104333.33333333289,
      "d": 75,
      "v": 100
    },
    {
      "midi": 72,
      "hit": false,
      "t": 104416.66666666622,
      "d": 33.33333333332848,
      "v": 100
    },
    {
      "midi": 72,
      "hit": false,
      "t": 104499.99999999955,
      "d": 75,
      "v": 100
    },
    {
      "midi": 42,
      "hit": false,
      "t": 104499.99999999955,
      "d": 224.99999999998545,
      "v": 90
    },
    {
      "midi": 65,
      "hit": false,
      "t": 104499.99999999955,
      "d": 449.9999999999709,
      "v": 100
    },
    {
      "midi": 69,
      "hit": false,
      "t": 104499.99999999955,
      "d": 449.9999999999709,
      "v": 100
    },
    {
      "midi": 72,
      "hit": false,
      "t": 104583.33333333288,
      "d": 75,
      "v": 100
    },
    {
      "midi": 72,
      "hit": false,
      "t": 104666.6666666662,
      "d": 8.333333333328483,
      "v": 100
    },
    {
      "midi": 71,
      "hit": false,
      "t": 104749.99999999953,
      "d": 75,
      "v": 100
    },
    {
      "midi": 41,
      "hit": false,
      "t": 104749.99999999953,
      "d": 224.99999999998545,
      "v": 100
    },
    {
      "midi": 71,
      "hit": false,
      "t": 104833.33333333286,
      "d": 75,
      "v": 100
    },
    {
      "midi": 71,
      "hit": false,
      "t": 104916.66666666619,
      "d": 58.33333333332848,
      "v": 100
    },
    {
      "midi": 69,
      "hit": false,
      "t": 104999.99999999952,
      "d": 75,
      "v": 100
    },
    {
      "midi": 42,
      "hit": false,
      "t": 104999.99999999952,
      "d": 224.99999999998545,
      "v": 90
    },
    {
      "midi": 41,
      "hit": false,
      "t": 104999.99999999952,
      "d": 449.9999999999709,
      "v": 100
    },
    {
      "midi": 65,
      "hit": false,
      "t": 104999.99999999952,
      "d": 449.9999999999709,
      "v": 100
    },
    {
      "midi": 72,
      "hit": false,
      "t": 104999.99999999952,
      "d": 449.9999999999709,
      "v": 100
    },
    {
      "midi": 69,
      "hit": false,
      "t": 105083.33333333285,
      "d": 75,
      "v": 100
    },
    {
      "midi": 69,
      "hit": false,
      "t": 105166.66666666618,
      "d": 75,
      "v": 100
    },
    {
      "midi": 69,
      "hit": false,
      "t": 105249.9999999995,
      "d": 75,
      "v": 100
    },
    {
      "midi": 69,
      "hit": false,
      "t": 105333.33333333283,
      "d": 75,
      "v": 100
    },
    {
      "midi": 69,
      "hit": false,
      "t": 105416.66666666616,
      "d": 33.33333333332848,
      "v": 100
    },
    {
      "midi": 69,
      "hit": false,
      "t": 105499.99999999949,
      "d": 75,
      "v": 100
    },
    {
      "midi": 42,
      "hit": false,
      "t": 105499.99999999949,
      "d": 224.99999999998545,
      "v": 90
    },
    {
      "midi": 54,
      "hit": false,
      "t": 105499.99999999949,
      "d": 224.99999999998545,
      "v": 81
    },
    {
      "midi": 65,
      "hit": false,
      "t": 105499.99999999949,
      "d": 449.9999999999709,
      "v": 100
    },
    {
      "midi": 72,
      "hit": false,
      "t": 105499.99999999949,
      "d": 449.9999999999709,
      "v": 100
    },
    {
      "midi": 69,
      "hit": false,
      "t": 105583.33333333282,
      "d": 75,
      "v": 100
    },
    {
      "midi": 69,
      "hit": false,
      "t": 105666.66666666615,
      "d": 75,
      "v": 100
    },
    {
      "midi": 69,
      "hit": false,
      "t": 105749.99999999948,
      "d": 75,
      "v": 100
    },
    {
      "midi": 69,
      "hit": false,
      "t": 105833.3333333328,
      "d": 66.66666666667152,
      "v": 100
    },
    {
      "midi": 69,
      "hit": false,
      "t": 105916.66666666613,
      "d": 33.33333333332848,
      "v": 100
    },
    {
      "midi": 67,
      "hit": false,
      "t": 105999.99999999946,
      "d": 75,
      "v": 100
    },
    {
      "midi": 42,
      "hit": false,
      "t": 105999.99999999946,
      "d": 224.99999999998545,
      "v": 90
    },
    {
      "midi": 72,
      "hit": false,
      "t": 105999.99999999946,
      "d": 449.9999999999709,
      "v": 100
    },
    {
      "midi": 76,
      "hit": false,
      "t": 105999.99999999946,
      "d": 449.9999999999709,
      "v": 100
    },
    {
      "midi": 48,
      "hit": false,
      "t": 105999.99999999946,
      "d": 674.9999999999563,
      "v": 100
    },
    {
      "midi": 67,
      "hit": false,
      "t": 106083.33333333279,
      "d": 75,
      "v": 100
    },
    {
      "midi": 67,
      "hit": false,
      "t": 106166.66666666612,
      "d": 75,
      "v": 100
    },
    {
      "midi": 67,
      "hit": false,
      "t": 106249.99999999945,
      "d": 75,
      "v": 100
    },
    {
      "midi": 67,
      "hit": false,
      "t": 106333.33333333278,
      "d": 75,
      "v": 100
    },
    {
      "midi": 67,
      "hit": false,
      "t": 106416.6666666661,
      "d": 33.33333333332848,
      "v": 100
    },
    {
      "midi": 69,
      "hit": false,
      "t": 106499.99999999943,
      "d": 75,
      "v": 100
    },
    {
      "midi": 42,
      "hit": false,
      "t": 106499.99999999943,
      "d": 224.99999999998545,
      "v": 90
    },
    {
      "midi": 76,
      "hit": false,
      "t": 106499.99999999943,
      "d": 449.9999999999709,
      "v": 100
    },
    {
      "midi": 72,
      "hit": false,
      "t": 106499.99999999943,
      "d": 449.9999999999709,
      "v": 100
    },
    {
      "midi": 67,
      "hit": false,
      "t": 106499.99999999943,
      "d": 449.9999999999709,
      "v": 100
    },
    {
      "midi": 69,
      "hit": false,
      "t": 106583.33333333276,
      "d": 75,
      "v": 100
    },
    {
      "midi": 69,
      "hit": false,
      "t": 106666.66666666609,
      "d": 75,
      "v": 100
    },
    {
      "midi": 69,
      "hit": false,
      "t": 106749.99999999942,
      "d": 75,
      "v": 100
    },
    {
      "midi": 48,
      "hit": false,
      "t": 106749.99999999942,
      "d": 224.99999999998545,
      "v": 100
    },
    {
      "midi": 69,
      "hit": false,
      "t": 106833.33333333275,
      "d": 75,
      "v": 100
    },
    {
      "midi": 69,
      "hit": false,
      "t": 106916.66666666607,
      "d": 33.33333333332848,
      "v": 100
    },
    {
      "midi": 72,
      "hit": false,
      "t": 106999.9999999994,
      "d": 75,
      "v": 100
    },
    {
      "midi": 42,
      "hit": false,
      "t": 106999.9999999994,
      "d": 224.99999999998545,
      "v": 90
    },
    {
      "midi": 48,
      "hit": false,
      "t": 106999.9999999994,
      "d": 449.9999999999709,
      "v": 100
    },
    {
      "midi": 76,
      "hit": false,
      "t": 106999.9999999994,
      "d": 449.9999999999709,
      "v": 100
    },
    {
      "midi": 67,
      "hit": false,
      "t": 106999.9999999994,
      "d": 449.9999999999709,
      "v": 100
    },
    {
      "midi": 72,
      "hit": false,
      "t": 107083.33333333273,
      "d": 75,
      "v": 100
    },
    {
      "midi": 72,
      "hit": false,
      "t": 107166.66666666606,
      "d": 75,
      "v": 100
    },
    {
      "midi": 72,
      "hit": false,
      "t": 107249.99999999939,
      "d": 75,
      "v": 100
    },
    {
      "midi": 72,
      "hit": false,
      "t": 107333.33333333272,
      "d": 75,
      "v": 100
    },
    {
      "midi": 72,
      "hit": false,
      "t": 107416.66666666605,
      "d": 33.33333333332848,
      "v": 100
    },
    {
      "midi": 74,
      "hit": false,
      "t": 107499.99999999937,
      "d": 75,
      "v": 100
    },
    {
      "midi": 42,
      "hit": false,
      "t": 107499.99999999937,
      "d": 224.99999999998545,
      "v": 90
    },
    {
      "midi": 54,
      "hit": false,
      "t": 107499.99999999937,
      "d": 224.99999999998545,
      "v": 80
    },
    {
      "midi": 47,
      "hit": false,
      "t": 107499.99999999937,
      "d": 449.9999999999709,
      "v": 100
    },
    {
      "midi": 67,
      "hit": false,
      "t": 107499.99999999937,
      "d": 449.9999999999709,
      "v": 100
    },
    {
      "midi": 71,
      "hit": false,
      "t": 107499.99999999937,
      "d": 449.9999999999709,
      "v": 100
    },
    {
      "midi": 74,
      "hit": false,
      "t": 107583.3333333327,
      "d": 75,
      "v": 100
    },
    {
      "midi": 74,
      "hit": false,
      "t": 107666.66666666603,
      "d": 75,
      "v": 100
    },
    {
      "midi": 74,
      "hit": false,
      "t": 107749.99999999936,
      "d": 75,
      "v": 100
    },
    {
      "midi": 74,
      "hit": false,
      "t": 107833.33333333269,
      "d": 75,
      "v": 100
    },
    {
      "midi": 74,
      "hit": false,
      "t": 107916.66666666602,
      "d": 33.33333333332848,
      "v": 100
    },
    {
      "midi": 69,
      "hit": false,
      "t": 107999.99999999935,
      "d": 75,
      "v": 100
    },
    {
      "midi": 42,
      "hit": false,
      "t": 107999.99999999935,
      "d": 224.99999999998545,
      "v": 90
    },
    {
      "midi": 72,
      "hit": false,
      "t": 107999.99999999935,
      "d": 449.9999999999709,
      "v": 100
    },
    {
      "midi": 76,
      "hit": false,
      "t": 107999.99999999935,
      "d": 449.9999999999709,
      "v": 100
    },
    {
      "midi": 45,
      "hit": false,
      "t": 107999.99999999935,
      "d": 674.9999999999563,
      "v": 100
    },
    {
      "midi": 69,
      "hit": false,
      "t": 108083.33333333267,
      "d": 75,
      "v": 100
    },
    {
      "midi": 69,
      "hit": false,
      "t": 108166.666666666,
      "d": 75,
      "v": 100
    },
    {
      "midi": 69,
      "hit": false,
      "t": 108249.99999999933,
      "d": 75,
      "v": 100
    },
    {
      "midi": 64,
      "hit": false,
      "t": 108249.99999999933,
      "d": 249.99999999998545,
      "v": 100
    },
    {
      "midi": 69,
      "hit": false,
      "t": 108333.33333333266,
      "d": 75,
      "v": 100
    },
    {
      "midi": 69,
      "hit": false,
      "t": 108416.66666666599,
      "d": 33.33333333332848,
      "v": 100
    },
    {
      "midi": 69,
      "hit": false,
      "t": 108499.99999999932,
      "d": 75,
      "v": 100
    },
    {
      "midi": 42,
      "hit": false,
      "t": 108499.99999999932,
      "d": 224.99999999998545,
      "v": 90
    },
    {
      "midi": 62,
      "hit": false,
      "t": 108499.99999999932,
      "d": 249.99999999998545,
      "v": 100
    },
    {
      "midi": 72,
      "hit": false,
      "t": 108499.99999999932,
      "d": 449.9999999999709,
      "v": 100
    },
    {
      "midi": 76,
      "hit": false,
      "t": 108499.99999999932,
      "d": 449.9999999999709,
      "v": 100
    },
    {
      "midi": 69,
      "hit": false,
      "t": 108583.33333333264,
      "d": 75,
      "v": 100
    },
    {
      "midi": 69,
      "hit": false,
      "t": 108666.66666666597,
      "d": 75,
      "v": 100
    },
    {
      "midi": 69,
      "hit": false,
      "t": 108749.9999999993,
      "d": 75,
      "v": 100
    },
    {
      "midi": 45,
      "hit": false,
      "t": 108749.9999999993,
      "d": 224.99999999998545,
      "v": 100
    },
    {
      "midi": 60,
      "hit": false,
      "t": 108749.9999999993,
      "d": 249.99999999998545,
      "v": 100
    },
    {
      "midi": 69,
      "hit": false,
      "t": 108833.33333333263,
      "d": 66.66666666667152,
      "v": 100
    },
    {
      "midi": 69,
      "hit": false,
      "t": 108916.66666666596,
      "d": 33.33333333332848,
      "v": 100
    },
    {
      "midi": 76,
      "hit": false,
      "t": 108999.99999999929,
      "d": 75,
      "v": 100
    },
    {
      "midi": 42,
      "hit": false,
      "t": 108999.99999999929,
      "d": 224.99999999998545,
      "v": 90
    },
    {
      "midi": 45,
      "hit": false,
      "t": 108999.99999999929,
      "d": 449.9999999999709,
      "v": 100
    },
    {
      "midi": 69,
      "hit": false,
      "t": 108999.99999999929,
      "d": 449.9999999999709,
      "v": 100
    },
    {
      "midi": 72,
      "hit": false,
      "t": 108999.99999999929,
      "d": 449.9999999999709,
      "v": 100
    },
    {
      "midi": 57,
      "hit": false,
      "t": 108999.99999999929,
      "d": 499.9999999999709,
      "v": 100
    },
    {
      "midi": 76,
      "hit": false,
      "t": 109083.33333333262,
      "d": 75,
      "v": 100
    },
    {
      "midi": 76,
      "hit": false,
      "t": 109166.66666666594,
      "d": 75,
      "v": 100
    },
    {
      "midi": 76,
      "hit": false,
      "t": 109249.99999999927,
      "d": 75,
      "v": 100
    },
    {
      "midi": 76,
      "hit": false,
      "t": 109333.3333333326,
      "d": 75,
      "v": 100
    },
    {
      "midi": 76,
      "hit": false,
      "t": 109416.66666666593,
      "d": 33.33333333332848,
      "v": 100
    },
    {
      "midi": 74,
      "hit": false,
      "t": 109499.99999999926,
      "d": 75,
      "v": 100
    },
    {
      "midi": 42,
      "hit": false,
      "t": 109499.99999999926,
      "d": 224.99999999998545,
      "v": 90
    },
    {
      "midi": 54,
      "hit": false,
      "t": 109499.99999999926,
      "d": 224.99999999998545,
      "v": 81
    },
    {
      "midi": 69,
      "hit": false,
      "t": 109499.99999999926,
      "d": 449.9999999999709,
      "v": 100
    },
    {
      "midi": 72,
      "hit": false,
      "t": 109499.99999999926,
      "d": 449.9999999999709,
      "v": 100
    },
    {
      "midi": 74,
      "hit": false,
      "t": 109583.33333333259,
      "d": 75,
      "v": 100
    },
    {
      "midi": 74,
      "hit": false,
      "t": 109666.66666666591,
      "d": 58.33333333332848,
      "v": 100
    },
    {
      "midi": 76,
      "hit": false,
      "t": 109749.99999999924,
      "d": 75,
      "v": 100
    },
    {
      "midi": 76,
      "hit": false,
      "t": 109833.33333333257,
      "d": 75,
      "v": 100
    },
    {
      "midi": 76,
      "hit": false,
      "t": 109916.6666666659,
      "d": 33.33333333332848,
      "v": 100
    },
    {
      "midi": 79,
      "hit": false,
      "t": 109999.99999999923,
      "d": 75,
      "v": 100
    },
    {
      "midi": 42,
      "hit": false,
      "t": 109999.99999999923,
      "d": 224.99999999998545,
      "v": 90
    },
    {
      "midi": 67,
      "hit": false,
      "t": 109999.99999999923,
      "d": 449.9999999999709,
      "v": 100
    },
    {
      "midi": 71,
      "hit": false,
      "t": 109999.99999999923,
      "d": 449.9999999999709,
      "v": 100
    },
    {
      "midi": 74,
      "hit": false,
      "t": 109999.99999999923,
      "d": 449.9999999999709,
      "v": 100
    },
    {
      "midi": 40,
      "hit": false,
      "t": 109999.99999999923,
      "d": 674.9999999999563,
      "v": 100
    },
    {
      "midi": 79,
      "hit": false,
      "t": 110083.33333333256,
      "d": 75,
      "v": 100
    },
    {
      "midi": 79,
      "hit": false,
      "t": 110166.66666666589,
      "d": 75,
      "v": 100
    },
    {
      "midi": 79,
      "hit": false,
      "t": 110249.99999999921,
      "d": 75,
      "v": 100
    },
    {
      "midi": 79,
      "hit": false,
      "t": 110333.33333333254,
      "d": 75,
      "v": 100
    },
    {
      "midi": 79,
      "hit": false,
      "t": 110416.66666666587,
      "d": 33.33333333332848,
      "v": 100
    },
    {
      "midi": 76,
      "hit": false,
      "t": 110499.9999999992,
      "d": 75,
      "v": 100
    },
    {
      "midi": 42,
      "hit": false,
      "t": 110499.9999999992,
      "d": 224.99999999998545,
      "v": 90
    },
    {
      "midi": 67,
      "hit": false,
      "t": 110499.9999999992,
      "d": 449.9999999999709,
      "v": 100
    },
    {
      "midi": 71,
      "hit": false,
      "t": 110499.9999999992,
      "d": 449.9999999999709,
      "v": 100
    },
    {
      "midi": 74,
      "hit": false,
      "t": 110499.9999999992,
      "d": 449.9999999999709,
      "v": 100
    },
    {
      "midi": 76,
      "hit": false,
      "t": 110583.33333333253,
      "d": 75,
      "v": 100
    },
    {
      "midi": 76,
      "hit": false,
      "t": 110666.66666666586,
      "d": 75,
      "v": 100
    },
    {
      "midi": 76,
      "hit": false,
      "t": 110749.99999999919,
      "d": 75,
      "v": 100
    },
    {
      "midi": 40,
      "hit": false,
      "t": 110749.99999999919,
      "d": 224.99999999998545,
      "v": 100
    },
    {
      "midi": 76,
      "hit": false,
      "t": 110833.33333333251,
      "d": 75,
      "v": 100
    },
    {
      "midi": 76,
      "hit": false,
      "t": 110916.66666666584,
      "d": 33.33333333332848,
      "v": 100
    },
    {
      "midi": 74,
      "hit": false,
      "t": 110999.99999999917,
      "d": 75,
      "v": 100
    },
    {
      "midi": 42,
      "hit": false,
      "t": 110999.99999999917,
      "d": 224.99999999998545,
      "v": 90
    },
    {
      "midi": 43,
      "hit": false,
      "t": 110999.99999999917,
      "d": 449.9999999999709,
      "v": 100
    },
    {
      "midi": 67,
      "hit": false,
      "t": 110999.99999999917,
      "d": 449.9999999999709,
      "v": 100
    },
    {
      "midi": 71,
      "hit": false,
      "t": 110999.99999999917,
      "d": 449.9999999999709,
      "v": 100
    },
    {
      "midi": 74,
      "hit": false,
      "t": 111083.3333333325,
      "d": 75,
      "v": 100
    },
    {
      "midi": 74,
      "hit": false,
      "t": 111166.66666666583,
      "d": 75,
      "v": 100
    },
    {
      "midi": 74,
      "hit": false,
      "t": 111249.99999999916,
      "d": 75,
      "v": 100
    },
    {
      "midi": 74,
      "hit": false,
      "t": 111333.33333333248,
      "d": 75,
      "v": 100
    },
    {
      "midi": 74,
      "hit": false,
      "t": 111416.66666666581,
      "d": 33.33333333332848,
      "v": 100
    },
    {
      "midi": 76,
      "hit": false,
      "t": 111499.99999999914,
      "d": 75,
      "v": 100
    },
    {
      "midi": 42,
      "hit": false,
      "t": 111499.99999999914,
      "d": 224.99999999998545,
      "v": 90
    },
    {
      "midi": 54,
      "hit": false,
      "t": 111499.99999999914,
      "d": 224.99999999998545,
      "v": 80
    },
    {
      "midi": 47,
      "hit": false,
      "t": 111499.99999999914,
      "d": 449.9999999999709,
      "v": 100
    },
    {
      "midi": 67,
      "hit": false,
      "t": 111499.99999999914,
      "d": 449.9999999999709,
      "v": 100
    },
    {
      "midi": 71,
      "hit": false,
      "t": 111499.99999999914,
      "d": 449.9999999999709,
      "v": 100
    },
    {
      "midi": 74,
      "hit": false,
      "t": 111499.99999999914,
      "d": 449.9999999999709,
      "v": 100
    },
    {
      "midi": 76,
      "hit": false,
      "t": 111583.33333333247,
      "d": 75,
      "v": 100
    },
    {
      "midi": 76,
      "hit": false,
      "t": 111666.6666666658,
      "d": 75,
      "v": 100
    },
    {
      "midi": 76,
      "hit": false,
      "t": 111749.99999999913,
      "d": 75,
      "v": 100
    },
    {
      "midi": 76,
      "hit": false,
      "t": 111833.33333333246,
      "d": 75,
      "v": 100
    },
    {
      "midi": 76,
      "hit": false,
      "t": 111916.66666666578,
      "d": 33.33333333332848,
      "v": 100
    },
    {
      "midi": 81,
      "hit": false,
      "t": 111999.99999999911,
      "d": 75,
      "v": 100
    },
    {
      "midi": 42,
      "hit": false,
      "t": 111999.99999999911,
      "d": 224.99999999998545,
      "v": 90
    },
    {
      "midi": 69,
      "hit": false,
      "t": 111999.99999999911,
      "d": 449.9999999999709,
      "v": 100
    },
    {
      "midi": 72,
      "hit": false,
      "t": 111999.99999999911,
      "d": 449.9999999999709,
      "v": 100
    },
    {
      "midi": 76,
      "hit": false,
      "t": 111999.99999999911,
      "d": 449.9999999999709,
      "v": 100
    },
    {
      "midi": 41,
      "hit": false,
      "t": 111999.99999999911,
      "d": 674.9999999999563,
      "v": 100
    },
    {
      "midi": 81,
      "hit": false,
      "t": 112083.33333333244,
      "d": 75,
      "v": 100
    },
    {
      "midi": 81,
      "hit": false,
      "t": 112166.66666666577,
      "d": 75,
      "v": 100
    },
    {
      "midi": 81,
      "hit": false,
      "t": 112249.9999999991,
      "d": 75,
      "v": 100
    },
    {
      "midi": 81,
      "hit": false,
      "t": 112333.33333333243,
      "d": 75,
      "v": 100
    },
    {
      "midi": 81,
      "hit": false,
      "t": 112416.66666666575,
      "d": 75,
      "v": 100
    },
    {
      "midi": 81,
      "hit": false,
      "t": 112499.99999999908,
      "d": 75,
      "v": 100
    },
    {
      "midi": 42,
      "hit": false,
      "t": 112499.99999999908,
      "d": 224.99999999998545,
      "v": 90
    },
    {
      "midi": 69,
      "hit": false,
      "t": 112499.99999999908,
      "d": 449.9999999999709,
      "v": 100
    },
    {
      "midi": 72,
      "hit": false,
      "t": 112499.99999999908,
      "d": 449.9999999999709,
      "v": 100
    },
    {
      "midi": 76,
      "hit": false,
      "t": 112499.99999999908,
      "d": 449.9999999999709,
      "v": 100
    },
    {
      "midi": 81,
      "hit": false,
      "t": 112583.33333333241,
      "d": 75,
      "v": 100
    },
    {
      "midi": 81,
      "hit": false,
      "t": 112666.66666666574,
      "d": 75,
      "v": 100
    },
    {
      "midi": 81,
      "hit": false,
      "t": 112749.99999999907,
      "d": 75,
      "v": 100
    },
    {
      "midi": 41,
      "hit": false,
      "t": 112749.99999999907,
      "d": 224.99999999998545,
      "v": 100
    },
    {
      "midi": 81,
      "hit": false,
      "t": 112833.3333333324,
      "d": 75,
      "v": 100
    },
    {
      "midi": 81,
      "hit": false,
      "t": 112916.66666666573,
      "d": 75,
      "v": 100
    },
    {
      "midi": 81,
      "hit": false,
      "t": 112999.99999999905,
      "d": 75,
      "v": 100
    },
    {
      "midi": 42,
      "hit": false,
      "t": 112999.99999999905,
      "d": 224.99999999998545,
      "v": 90
    },
    {
      "midi": 41,
      "hit": false,
      "t": 112999.99999999905,
      "d": 449.9999999999709,
      "v": 100
    },
    {
      "midi": 69,
      "hit": false,
      "t": 112999.99999999905,
      "d": 449.9999999999709,
      "v": 100
    },
    {
      "midi": 72,
      "hit": false,
      "t": 112999.99999999905,
      "d": 449.9999999999709,
      "v": 100
    },
    {
      "midi": 76,
      "hit": false,
      "t": 112999.99999999905,
      "d": 449.9999999999709,
      "v": 100
    },
    {
      "midi": 81,
      "hit": false,
      "t": 113083.33333333238,
      "d": 75,
      "v": 100
    },
    {
      "midi": 81,
      "hit": false,
      "t": 113166.66666666571,
      "d": 75,
      "v": 100
    },
    {
      "midi": 81,
      "hit": false,
      "t": 113249.99999999904,
      "d": 75,
      "v": 100
    },
    {
      "midi": 81,
      "hit": false,
      "t": 113333.33333333237,
      "d": 75,
      "v": 100
    },
    {
      "midi": 81,
      "hit": false,
      "t": 113416.6666666657,
      "d": 75,
      "v": 100
    },
    {
      "midi": 81,
      "hit": false,
      "t": 113499.99999999903,
      "d": 75,
      "v": 100
    },
    {
      "midi": 42,
      "hit": false,
      "t": 113499.99999999903,
      "d": 224.99999999998545,
      "v": 90
    },
    {
      "midi": 54,
      "hit": false,
      "t": 113499.99999999903,
      "d": 224.99999999998545,
      "v": 80
    },
    {
      "midi": 69,
      "hit": false,
      "t": 113499.99999999903,
      "d": 449.9999999999709,
      "v": 100
    },
    {
      "midi": 72,
      "hit": false,
      "t": 113499.99999999903,
      "d": 449.9999999999709,
      "v": 100
    },
    {
      "midi": 76,
      "hit": false,
      "t": 113499.99999999903,
      "d": 449.9999999999709,
      "v": 100
    },
    {
      "midi": 81,
      "hit": false,
      "t": 113583.33333333235,
      "d": 75,
      "v": 100
    },
    {
      "midi": 81,
      "hit": false,
      "t": 113666.66666666568,
      "d": 75,
      "v": 100
    },
    {
      "midi": 81,
      "hit": false,
      "t": 113749.99999999901,
      "d": 50,
      "v": 100
    },
    {
      "midi": 81,
      "hit": false,
      "t": 113833.33333333234,
      "d": 75,
      "v": 100
    },
    {
      "midi": 81,
      "hit": false,
      "t": 113916.66666666567,
      "d": 75,
      "v": 100
    },
    {
      "midi": 83,
      "hit": false,
      "t": 113999.999999999,
      "d": 75,
      "v": 100
    },
    {
      "midi": 42,
      "hit": false,
      "t": 113999.999999999,
      "d": 224.99999999998545,
      "v": 90
    },
    {
      "midi": 67,
      "hit": false,
      "t": 113999.999999999,
      "d": 449.9999999999709,
      "v": 100
    },
    {
      "midi": 71,
      "hit": false,
      "t": 113999.999999999,
      "d": 449.9999999999709,
      "v": 100
    },
    {
      "midi": 74,
      "hit": false,
      "t": 113999.999999999,
      "d": 449.9999999999709,
      "v": 100
    },
    {
      "midi": 43,
      "hit": false,
      "t": 113999.999999999,
      "d": 674.9999999999563,
      "v": 100
    },
    {
      "midi": 83,
      "hit": false,
      "t": 114083.33333333232,
      "d": 75,
      "v": 100
    },
    {
      "midi": 83,
      "hit": false,
      "t": 114166.66666666565,
      "d": 75,
      "v": 100
    },
    {
      "midi": 83,
      "hit": false,
      "t": 114249.99999999898,
      "d": 75,
      "v": 100
    },
    {
      "midi": 83,
      "hit": false,
      "t": 114333.33333333231,
      "d": 75,
      "v": 100
    },
    {
      "midi": 83,
      "hit": false,
      "t": 114416.66666666564,
      "d": 75,
      "v": 100
    },
    {
      "midi": 83,
      "hit": false,
      "t": 114499.99999999897,
      "d": 75,
      "v": 100
    },
    {
      "midi": 42,
      "hit": false,
      "t": 114499.99999999897,
      "d": 224.99999999998545,
      "v": 90
    },
    {
      "midi": 67,
      "hit": false,
      "t": 114499.99999999897,
      "d": 449.9999999999709,
      "v": 100
    },
    {
      "midi": 71,
      "hit": false,
      "t": 114499.99999999897,
      "d": 449.9999999999709,
      "v": 100
    },
    {
      "midi": 74,
      "hit": false,
      "t": 114499.99999999897,
      "d": 449.9999999999709,
      "v": 100
    },
    {
      "midi": 83,
      "hit": false,
      "t": 114583.3333333323,
      "d": 75,
      "v": 100
    },
    {
      "midi": 83,
      "hit": false,
      "t": 114666.66666666562,
      "d": 75,
      "v": 100
    },
    {
      "midi": 83,
      "hit": false,
      "t": 114749.99999999895,
      "d": 75,
      "v": 100
    },
    {
      "midi": 43,
      "hit": false,
      "t": 114749.99999999895,
      "d": 224.99999999998545,
      "v": 100
    },
    {
      "midi": 83,
      "hit": false,
      "t": 114833.33333333228,
      "d": 75,
      "v": 100
    },
    {
      "midi": 83,
      "hit": false,
      "t": 114916.66666666561,
      "d": 75,
      "v": 100
    },
    {
      "midi": 83,
      "hit": false,
      "t": 114999.99999999894,
      "d": 75,
      "v": 100
    },
    {
      "midi": 42,
      "hit": false,
      "t": 114999.99999999894,
      "d": 224.99999999998545,
      "v": 90
    },
    {
      "midi": 43,
      "hit": false,
      "t": 114999.99999999894,
      "d": 449.9999999999709,
      "v": 100
    },
    {
      "midi": 67,
      "hit": false,
      "t": 114999.99999999894,
      "d": 449.9999999999709,
      "v": 100
    },
    {
      "midi": 71,
      "hit": false,
      "t": 114999.99999999894,
      "d": 449.9999999999709,
      "v": 100
    },
    {
      "midi": 74,
      "hit": false,
      "t": 114999.99999999894,
      "d": 449.9999999999709,
      "v": 100
    },
    {
      "midi": 83,
      "hit": false,
      "t": 115083.33333333227,
      "d": 75,
      "v": 100
    },
    {
      "midi": 83,
      "hit": false,
      "t": 115166.6666666656,
      "d": 75,
      "v": 100
    },
    {
      "midi": 83,
      "hit": false,
      "t": 115249.99999999892,
      "d": 75,
      "v": 100
    },
    {
      "midi": 83,
      "hit": false,
      "t": 115333.33333333225,
      "d": 75,
      "v": 100
    },
    {
      "midi": 83,
      "hit": false,
      "t": 115416.66666666558,
      "d": 75,
      "v": 100
    },
    {
      "midi": 83,
      "hit": false,
      "t": 115499.99999999891,
      "d": 75,
      "v": 100
    },
    {
      "midi": 42,
      "hit": false,
      "t": 115499.99999999891,
      "d": 224.99999999998545,
      "v": 90
    },
    {
      "midi": 54,
      "hit": false,
      "t": 115499.99999999891,
      "d": 224.99999999998545,
      "v": 81
    },
    {
      "midi": 67,
      "hit": false,
      "t": 115499.99999999891,
      "d": 449.9999999999709,
      "v": 100
    },
    {
      "midi": 71,
      "hit": false,
      "t": 115499.99999999891,
      "d": 449.9999999999709,
      "v": 100
    },
    {
      "midi": 74,
      "hit": false,
      "t": 115499.99999999891,
      "d": 449.9999999999709,
      "v": 100
    },
    {
      "midi": 76,
      "hit": false,
      "t": 115499.99999999891,
      "d": 449.9999999999709,
      "v": 100
    },
    {
      "midi": 83,
      "hit": false,
      "t": 115583.33333333224,
      "d": 75,
      "v": 100
    },
    {
      "midi": 83,
      "hit": false,
      "t": 115666.66666666557,
      "d": 75,
      "v": 100
    },
    {
      "midi": 83,
      "hit": false,
      "t": 115749.9999999989,
      "d": 50,
      "v": 100
    },
    {
      "midi": 83,
      "hit": false,
      "t": 115833.33333333222,
      "d": 75,
      "v": 100
    },
    {
      "midi": 83,
      "hit": false,
      "t": 115916.66666666555,
      "d": 75,
      "v": 100
    },
    {
      "midi": 42,
      "hit": false,
      "t": 115999.99999999888,
      "d": 225,
      "v": 90
    },
    {
      "midi": 45,
      "hit": false,
      "t": 115999.99999999888,
      "d": 750,
      "v": 100
    },
    {
      "midi": 81,
      "hit": false,
      "t": 115999.99999999888,
      "d": 900,
      "v": 100
    },
    {
      "midi": 64,
      "hit": false,
      "t": 115999.99999999888,
      "d": 900,
      "v": 100
    },
    {
      "midi": 60,
      "hit": false,
      "t": 115999.99999999888,
      "d": 2000,
      "v": 100
    },
    {
      "midi": 57,
      "hit": false,
      "t": 115999.99999999888,
      "d": 2000,
      "v": 100
    },
    {
      "midi": 42,
      "hit": false,
      "t": 116499.99999999888,
      "d": 225,
      "v": 90
    },
    {
      "midi": 84,
      "hit": false,
      "t": 116499.99999999888,
      "d": 225,
      "v": 100
    },
    {
      "midi": 88,
      "hit": false,
      "t": 116499.99999999888,
      "d": 225,
      "v": 100
    },
    {
      "midi": 84,
      "hit": false,
      "t": 116749.99999999888,
      "d": 225,
      "v": 100
    },
    {
      "midi": 88,
      "hit": false,
      "t": 116749.99999999888,
      "d": 225,
      "v": 100
    },
    {
      "midi": 45,
      "hit": false,
      "t": 116749.99999999888,
      "d": 250,
      "v": 100
    },
    {
      "midi": 42,
      "hit": false,
      "t": 116999.99999999888,
      "d": 225,
      "v": 90
    },
    {
      "midi": 45,
      "hit": false,
      "t": 116999.99999999888,
      "d": 500,
      "v": 100
    },
    {
      "midi": 42,
      "hit": false,
      "t": 117499.99999999888,
      "d": 225,
      "v": 90
    },
    {
      "midi": 42,
      "hit": false,
      "t": 117999.99999999888,
      "d": 225,
      "v": 90
    },
    {
      "midi": 47,
      "hit": false,
      "t": 117999.99999999888,
      "d": 750,
      "v": 100
    },
    {
      "midi": 55,
      "hit": false,
      "t": 117999.99999999888,
      "d": 2000,
      "v": 100
    },
    {
      "midi": 59,
      "hit": false,
      "t": 117999.99999999888,
      "d": 2000,
      "v": 100
    },
    {
      "midi": 62,
      "hit": false,
      "t": 117999.99999999888,
      "d": 2000,
      "v": 100
    },
    {
      "midi": 79,
      "hit": false,
      "t": 118249.99999999888,
      "d": 225,
      "v": 100
    },
    {
      "midi": 79,
      "hit": false,
      "t": 118499.99999999888,
      "d": 225,
      "v": 100
    },
    {
      "midi": 42,
      "hit": false,
      "t": 118499.99999999888,
      "d": 225,
      "v": 90
    },
    {
      "midi": 86,
      "hit": false,
      "t": 118499.99999999888,
      "d": 225,
      "v": 100
    },
    {
      "midi": 83,
      "hit": false,
      "t": 118499.99999999888,
      "d": 225,
      "v": 100
    },
    {
      "midi": 79,
      "hit": false,
      "t": 118749.99999999888,
      "d": 225,
      "v": 100
    },
    {
      "midi": 83,
      "hit": false,
      "t": 118749.99999999888,
      "d": 225,
      "v": 100
    },
    {
      "midi": 86,
      "hit": false,
      "t": 118749.99999999888,
      "d": 225,
      "v": 100
    },
    {
      "midi": 47,
      "hit": false,
      "t": 118749.99999999888,
      "d": 250,
      "v": 100
    },
    {
      "midi": 79,
      "hit": false,
      "t": 118999.99999999888,
      "d": 225,
      "v": 100
    },
    {
      "midi": 42,
      "hit": false,
      "t": 118999.99999999888,
      "d": 225,
      "v": 90
    },
    {
      "midi": 47,
      "hit": false,
      "t": 118999.99999999888,
      "d": 500,
      "v": 100
    },
    {
      "midi": 79,
      "hit": false,
      "t": 119249.99999999888,
      "d": 225,
      "v": 100
    },
    {
      "midi": 81,
      "hit": false,
      "t": 119499.99999999888,
      "d": 225,
      "v": 100
    },
    {
      "midi": 42,
      "hit": false,
      "t": 119499.99999999888,
      "d": 225,
      "v": 90
    },
    {
      "midi": 54,
      "hit": false,
      "t": 119499.99999999888,
      "d": 225,
      "v": 81
    },
    {
      "midi": 79,
      "hit": false,
      "t": 119749.99999999888,
      "d": 225,
      "v": 100
    },
    {
      "midi": 42,
      "hit": false,
      "t": 119999.99999999888,
      "d": 225,
      "v": 90
    },
    {
      "midi": 76,
      "hit": false,
      "t": 119999.99999999888,
      "d": 450,
      "v": 100
    },
    {
      "midi": 48,
      "hit": false,
      "t": 119999.99999999888,
      "d": 750,
      "v": 100
    },
    {
      "midi": 55,
      "hit": false,
      "t": 119999.99999999888,
      "d": 4000,
      "v": 100
    },
    {
      "midi": 60,
      "hit": false,
      "t": 119999.99999999888,
      "d": 4000,
      "v": 100
    },
    {
      "midi": 64,
      "hit": false,
      "t": 119999.99999999888,
      "d": 4000,
      "v": 100
    },
    {
      "midi": 42,
      "hit": false,
      "t": 120499.99999999888,
      "d": 225,
      "v": 90
    },
    {
      "midi": 84,
      "hit": false,
      "t": 120499.99999999888,
      "d": 225,
      "v": 100
    },
    {
      "midi": 88,
      "hit": false,
      "t": 120499.99999999888,
      "d": 225,
      "v": 100
    },
    {
      "midi": 74,
      "hit": false,
      "t": 120499.99999999888,
      "d": 450,
      "v": 100
    },
    {
      "midi": 84,
      "hit": false,
      "t": 120749.99999999888,
      "d": 225,
      "v": 100
    },
    {
      "midi": 88,
      "hit": false,
      "t": 120749.99999999888,
      "d": 225,
      "v": 100
    },
    {
      "midi": 48,
      "hit": false,
      "t": 120749.99999999888,
      "d": 250,
      "v": 100
    },
    {
      "midi": 42,
      "hit": false,
      "t": 120999.99999999888,
      "d": 225,
      "v": 90
    },
    {
      "midi": 72,
      "hit": false,
      "t": 120999.99999999888,
      "d": 450,
      "v": 100
    },
    {
      "midi": 48,
      "hit": false,
      "t": 120999.99999999888,
      "d": 500,
      "v": 100
    },
    {
      "midi": 74,
      "hit": false,
      "t": 121499.99999999888,
      "d": 225,
      "v": 100
    },
    {
      "midi": 42,
      "hit": false,
      "t": 121499.99999999888,
      "d": 225,
      "v": 90
    },
    {
      "midi": 76,
      "hit": false,
      "t": 121749.99999999888,
      "d": 1150,
      "v": 100
    },
    {
      "midi": 42,
      "hit": false,
      "t": 121999.99999999888,
      "d": 225,
      "v": 90
    },
    {
      "midi": 48,
      "hit": false,
      "t": 121999.99999999888,
      "d": 750,
      "v": 100
    },
    {
      "midi": 42,
      "hit": false,
      "t": 122499.99999999888,
      "d": 225,
      "v": 90
    },
    {
      "midi": 84,
      "hit": false,
      "t": 122499.99999999888,
      "d": 225,
      "v": 100
    },
    {
      "midi": 88,
      "hit": false,
      "t": 122499.99999999888,
      "d": 225,
      "v": 100
    },
    {
      "midi": 84,
      "hit": false,
      "t": 122749.99999999888,
      "d": 225,
      "v": 100
    },
    {
      "midi": 88,
      "hit": false,
      "t": 122749.99999999888,
      "d": 225,
      "v": 100
    },
    {
      "midi": 48,
      "hit": false,
      "t": 122749.99999999888,
      "d": 250,
      "v": 100
    },
    {
      "midi": 42,
      "hit": false,
      "t": 122999.99999999888,
      "d": 225,
      "v": 90
    },
    {
      "midi": 48,
      "hit": false,
      "t": 122999.99999999888,
      "d": 500,
      "v": 100
    },
    {
      "midi": 67,
      "hit": false,
      "t": 123249.99999999888,
      "d": 250,
      "v": 100
    },
    {
      "midi": 42,
      "hit": false,
      "t": 123499.99999999888,
      "d": 225,
      "v": 90
    },
    {
      "midi": 54,
      "hit": false,
      "t": 123499.99999999888,
      "d": 225,
      "v": 81
    },
    {
      "midi": 69,
      "hit": false,
      "t": 123499.99999999888,
      "d": 250,
      "v": 100
    },
    {
      "midi": 72,
      "hit": false,
      "t": 123749.99999999888,
      "d": 250,
      "v": 100
    },
    {
      "midi": 42,
      "hit": false,
      "t": 123999.99999999888,
      "d": 225,
      "v": 90
    },
    {
      "midi": 74,
      "hit": false,
      "t": 123999.99999999888,
      "d": 500,
      "v": 100
    },
    {
      "midi": 41,
      "hit": false,
      "t": 123999.99999999888,
      "d": 750,
      "v": 100
    },
    {
      "midi": 53,
      "hit": false,
      "t": 123999.99999999888,
      "d": 4000,
      "v": 100
    },
    {
      "midi": 57,
      "hit": false,
      "t": 123999.99999999888,
      "d": 4000,
      "v": 100
    },
    {
      "midi": 60,
      "hit": false,
      "t": 123999.99999999888,
      "d": 4000,
      "v": 100
    },
    {
      "midi": 62,
      "hit": false,
      "t": 123999.99999999888,
      "d": 4000,
      "v": 100
    },
    {
      "midi": 42,
      "hit": false,
      "t": 124499.99999999888,
      "d": 225,
      "v": 90
    },
    {
      "midi": 84,
      "hit": false,
      "t": 124499.99999999888,
      "d": 225,
      "v": 100
    },
    {
      "midi": 86,
      "hit": false,
      "t": 124499.99999999888,
      "d": 225,
      "v": 100
    },
    {
      "midi": 69,
      "hit": false,
      "t": 124499.99999999888,
      "d": 250,
      "v": 100
    },
    {
      "midi": 84,
      "hit": false,
      "t": 124749.99999999888,
      "d": 225,
      "v": 100
    },
    {
      "midi": 86,
      "hit": false,
      "t": 124749.99999999888,
      "d": 225,
      "v": 100
    },
    {
      "midi": 41,
      "hit": false,
      "t": 124749.99999999888,
      "d": 250,
      "v": 100
    },
    {
      "midi": 72,
      "hit": false,
      "t": 124749.99999999888,
      "d": 500,
      "v": 100
    },
    {
      "midi": 42,
      "hit": false,
      "t": 124999.99999999888,
      "d": 225,
      "v": 90
    },
    {
      "midi": 41,
      "hit": false,
      "t": 124999.99999999888,
      "d": 500,
      "v": 100
    },
    {
      "midi": 74,
      "hit": false,
      "t": 125249.99999999888,
      "d": 500,
      "v": 100
    },
    {
      "midi": 42,
      "hit": false,
      "t": 125499.99999999888,
      "d": 225,
      "v": 90
    },
    {
      "midi": 74,
      "hit": false,
      "t": 125749.99999999888,
      "d": 750,
      "v": 100
    },
    {
      "midi": 42,
      "hit": false,
      "t": 125999.99999999888,
      "d": 225,
      "v": 90
    },
    {
      "midi": 38,
      "hit": false,
      "t": 125999.99999999888,
      "d": 750,
      "v": 100
    },
    {
      "midi": 42,
      "hit": false,
      "t": 126499.99999999888,
      "d": 225,
      "v": 90
    },
    {
      "midi": 84,
      "hit": false,
      "t": 126499.99999999888,
      "d": 225,
      "v": 100
    },
    {
      "midi": 86,
      "hit": false,
      "t": 126499.99999999888,
      "d": 225,
      "v": 100
    },
    {
      "midi": 74,
      "hit": false,
      "t": 126499.99999999888,
      "d": 500,
      "v": 100
    },
    {
      "midi": 84,
      "hit": false,
      "t": 126749.99999999888,
      "d": 225,
      "v": 100
    },
    {
      "midi": 86,
      "hit": false,
      "t": 126749.99999999888,
      "d": 225,
      "v": 100
    },
    {
      "midi": 38,
      "hit": false,
      "t": 126749.99999999888,
      "d": 250,
      "v": 100
    },
    {
      "midi": 42,
      "hit": false,
      "t": 126999.99999999888,
      "d": 225,
      "v": 90
    },
    {
      "midi": 38,
      "hit": false,
      "t": 126999.99999999888,
      "d": 500,
      "v": 100
    },
    {
      "midi": 72,
      "hit": false,
      "t": 126999.99999999888,
      "d": 500,
      "v": 100
    },
    {
      "midi": 42,
      "hit": false,
      "t": 127499.99999999888,
      "d": 225,
      "v": 90
    },
    {
      "midi": 54,
      "hit": false,
      "t": 127499.99999999888,
      "d": 225,
      "v": 81
    },
    {
      "midi": 74,
      "hit": false,
      "t": 127499.99999999888,
      "d": 500,
      "v": 100
    },
    {
      "midi": 42,
      "hit": false,
      "t": 127999.99999999888,
      "d": 225,
      "v": 90
    },
    {
      "midi": 76,
      "hit": false,
      "t": 127999.99999999888,
      "d": 500,
      "v": 100
    },
    {
      "midi": 40,
      "hit": false,
      "t": 127999.99999999888,
      "d": 750,
      "v": 100
    },
    {
      "midi": 56,
      "hit": false,
      "t": 127999.99999999888,
      "d": 2500,
      "v": 100
    },
    {
      "midi": 59,
      "hit": false,
      "t": 127999.99999999888,
      "d": 2500,
      "v": 100
    },
    {
      "midi": 64,
      "hit": false,
      "t": 127999.99999999888,
      "d": 2500,
      "v": 100
    },
    {
      "midi": 42,
      "hit": false,
      "t": 128499.99999999888,
      "d": 225,
      "v": 90
    },
    {
      "midi": 84,
      "hit": false,
      "t": 128499.99999999888,
      "d": 225,
      "v": 100
    },
    {
      "midi": 80,
      "hit": false,
      "t": 128499.99999999888,
      "d": 225,
      "v": 100
    },
    {
      "midi": 77,
      "hit": false,
      "t": 128499.99999999888,
      "d": 250,
      "v": 100
    },
    {
      "midi": 84,
      "hit": false,
      "t": 128749.99999999888,
      "d": 225,
      "v": 100
    },
    {
      "midi": 80,
      "hit": false,
      "t": 128749.99999999888,
      "d": 225,
      "v": 100
    },
    {
      "midi": 40,
      "hit": false,
      "t": 128749.99999999888,
      "d": 250,
      "v": 100
    },
    {
      "midi": 76,
      "hit": false,
      "t": 128749.99999999888,
      "d": 750,
      "v": 100
    },
    {
      "midi": 42,
      "hit": false,
      "t": 128999.99999999888,
      "d": 225,
      "v": 90
    },
    {
      "midi": 40,
      "hit": false,
      "t": 128999.99999999888,
      "d": 500,
      "v": 100
    },
    {
      "midi": 42,
      "hit": false,
      "t": 129499.99999999888,
      "d": 225,
      "v": 90
    },
    {
      "midi": 77,
      "hit": false,
      "t": 129499.99999999888,
      "d": 500,
      "v": 100
    },
    {
      "midi": 42,
      "hit": false,
      "t": 129999.99999999888,
      "d": 225,
      "v": 90
    },
    {
      "midi": 40,
      "hit": false,
      "t": 129999.99999999888,
      "d": 750,
      "v": 100
    },
    {
      "midi": 76,
      "hit": false,
      "t": 129999.99999999888,
      "d": 1000,
      "v": 100
    },
    {
      "midi": 42,
      "hit": false,
      "t": 130499.99999999888,
      "d": 225,
      "v": 90
    },
    {
      "midi": 59,
      "hit": false,
      "t": 130499.99999999888,
      "d": 450,
      "v": 100
    },
    {
      "midi": 40,
      "hit": false,
      "t": 130749.99999999888,
      "d": 250,
      "v": 100
    },
    {
      "midi": 42,
      "hit": false,
      "t": 130999.99999999888,
      "d": 225.00000000001455,
      "v": 90
    },
    {
      "midi": 60,
      "hit": false,
      "t": 130999.99999999888,
      "d": 450.00000000001455,
      "v": 100
    },
    {
      "midi": 40,
      "hit": false,
      "t": 130999.99999999888,
      "d": 500.00000000001455,
      "v": 100
    },
    {
      "midi": 76,
      "hit": false,
      "t": 131499.9999999989,
      "d": 225,
      "v": 100
    },
    {
      "midi": 42,
      "hit": false,
      "t": 131499.9999999989,
      "d": 225,
      "v": 90
    },
    {
      "midi": 62,
      "hit": false,
      "t": 131499.9999999989,
      "d": 450,
      "v": 100
    },
    {
      "midi": 76,
      "hit": false,
      "t": 131749.9999999989,
      "d": 225,
      "v": 100
    },
    {
      "midi": 42,
      "hit": false,
      "t": 131999.9999999989,
      "d": 225,
      "v": 90
    },
    {
      "midi": 45,
      "hit": false,
      "t": 131999.9999999989,
      "d": 675,
      "v": 100
    },
    {
      "midi": 81,
      "hit": false,
      "t": 131999.9999999989,
      "d": 900,
      "v": 100
    },
    {
      "midi": 64,
      "hit": false,
      "t": 131999.9999999989,
      "d": 1800,
      "v": 100
    },
    {
      "midi": 60,
      "hit": false,
      "t": 131999.9999999989,
      "d": 2000,
      "v": 100
    },
    {
      "midi": 57,
      "hit": false,
      "t": 131999.9999999989,
      "d": 2000,
      "v": 100
    },
    {
      "midi": 42,
      "hit": false,
      "t": 132499.9999999989,
      "d": 225,
      "v": 90
    },
    {
      "midi": 84,
      "hit": false,
      "t": 132499.9999999989,
      "d": 250,
      "v": 100
    },
    {
      "midi": 88,
      "hit": false,
      "t": 132499.9999999989,
      "d": 250,
      "v": 100
    },
    {
      "midi": 45,
      "hit": false,
      "t": 132749.9999999989,
      "d": 225,
      "v": 100
    },
    {
      "midi": 88,
      "hit": false,
      "t": 132749.9999999989,
      "d": 250,
      "v": 100
    },
    {
      "midi": 84,
      "hit": false,
      "t": 132749.9999999989,
      "d": 250,
      "v": 100
    },
    {
      "midi": 42,
      "hit": false,
      "t": 132999.9999999989,
      "d": 225,
      "v": 90
    },
    {
      "midi": 45,
      "hit": false,
      "t": 132999.9999999989,
      "d": 450,
      "v": 100
    },
    {
      "midi": 42,
      "hit": false,
      "t": 133499.9999999989,
      "d": 225,
      "v": 90
    },
    {
      "midi": 54,
      "hit": false,
      "t": 133499.9999999989,
      "d": 225,
      "v": 81
    },
    {
      "midi": 42,
      "hit": false,
      "t": 133999.9999999989,
      "d": 225,
      "v": 90
    },
    {
      "midi": 47,
      "hit": false,
      "t": 133999.9999999989,
      "d": 675,
      "v": 100
    },
    {
      "midi": 62,
      "hit": false,
      "t": 133999.9999999989,
      "d": 1800,
      "v": 100
    },
    {
      "midi": 55,
      "hit": false,
      "t": 133999.9999999989,
      "d": 2000,
      "v": 100
    },
    {
      "midi": 59,
      "hit": false,
      "t": 133999.9999999989,
      "d": 2000,
      "v": 100
    },
    {
      "midi": 79,
      "hit": false,
      "t": 134249.9999999989,
      "d": 225,
      "v": 100
    },
    {
      "midi": 79,
      "hit": false,
      "t": 134499.9999999989,
      "d": 225,
      "v": 100
    },
    {
      "midi": 42,
      "hit": false,
      "t": 134499.9999999989,
      "d": 225,
      "v": 90
    },
    {
      "midi": 86,
      "hit": false,
      "t": 134499.9999999989,
      "d": 250,
      "v": 100
    },
    {
      "midi": 83,
      "hit": false,
      "t": 134499.9999999989,
      "d": 250,
      "v": 100
    },
    {
      "midi": 47,
      "hit": false,
      "t": 134749.9999999989,
      "d": 225,
      "v": 100
    },
    {
      "midi": 79,
      "hit": false,
      "t": 134749.9999999989,
      "d": 225,
      "v": 100
    },
    {
      "midi": 83,
      "hit": false,
      "t": 134749.9999999989,
      "d": 250,
      "v": 100
    },
    {
      "midi": 86,
      "hit": false,
      "t": 134749.9999999989,
      "d": 250,
      "v": 100
    },
    {
      "midi": 79,
      "hit": false,
      "t": 134999.9999999989,
      "d": 225,
      "v": 100
    },
    {
      "midi": 42,
      "hit": false,
      "t": 134999.9999999989,
      "d": 225,
      "v": 90
    },
    {
      "midi": 47,
      "hit": false,
      "t": 134999.9999999989,
      "d": 450,
      "v": 100
    },
    {
      "midi": 79,
      "hit": false,
      "t": 135249.9999999989,
      "d": 225,
      "v": 100
    },
    {
      "midi": 81,
      "hit": false,
      "t": 135499.9999999989,
      "d": 225,
      "v": 100
    },
    {
      "midi": 42,
      "hit": false,
      "t": 135499.9999999989,
      "d": 225,
      "v": 90
    },
    {
      "midi": 79,
      "hit": false,
      "t": 135749.9999999989,
      "d": 225,
      "v": 100
    },
    {
      "midi": 42,
      "hit": false,
      "t": 135999.9999999989,
      "d": 225,
      "v": 90
    },
    {
      "midi": 76,
      "hit": false,
      "t": 135999.9999999989,
      "d": 450,
      "v": 100
    },
    {
      "midi": 48,
      "hit": false,
      "t": 135999.9999999989,
      "d": 675,
      "v": 100
    },
    {
      "midi": 60,
      "hit": false,
      "t": 135999.9999999989,
      "d": 1800,
      "v": 100
    },
    {
      "midi": 64,
      "hit": false,
      "t": 135999.9999999989,
      "d": 4000,
      "v": 100
    },
    {
      "midi": 42,
      "hit": false,
      "t": 136499.9999999989,
      "d": 225,
      "v": 90
    },
    {
      "midi": 88,
      "hit": false,
      "t": 136499.9999999989,
      "d": 250,
      "v": 100
    },
    {
      "midi": 84,
      "hit": false,
      "t": 136499.9999999989,
      "d": 250,
      "v": 100
    },
    {
      "midi": 74,
      "hit": false,
      "t": 136499.9999999989,
      "d": 450,
      "v": 100
    },
    {
      "midi": 48,
      "hit": false,
      "t": 136749.9999999989,
      "d": 225,
      "v": 100
    },
    {
      "midi": 88,
      "hit": false,
      "t": 136749.9999999989,
      "d": 250,
      "v": 100
    },
    {
      "midi": 84,
      "hit": false,
      "t": 136749.9999999989,
      "d": 250,
      "v": 100
    },
    {
      "midi": 42,
      "hit": false,
      "t": 136999.9999999989,
      "d": 225,
      "v": 90
    },
    {
      "midi": 48,
      "hit": false,
      "t": 136999.9999999989,
      "d": 450,
      "v": 100
    },
    {
      "midi": 72,
      "hit": false,
      "t": 136999.9999999989,
      "d": 450,
      "v": 100
    },
    {
      "midi": 74,
      "hit": false,
      "t": 137499.9999999989,
      "d": 225,
      "v": 100
    },
    {
      "midi": 42,
      "hit": false,
      "t": 137499.9999999989,
      "d": 225,
      "v": 90
    },
    {
      "midi": 54,
      "hit": false,
      "t": 137499.9999999989,
      "d": 225,
      "v": 81
    },
    {
      "midi": 76,
      "hit": false,
      "t": 137749.9999999989,
      "d": 1150,
      "v": 100
    },
    {
      "midi": 42,
      "hit": false,
      "t": 137999.9999999989,
      "d": 225,
      "v": 90
    },
    {
      "midi": 48,
      "hit": false,
      "t": 137999.9999999989,
      "d": 675,
      "v": 100
    },
    {
      "midi": 55,
      "hit": false,
      "t": 137999.9999999989,
      "d": 2000,
      "v": 100
    },
    {
      "midi": 42,
      "hit": false,
      "t": 138499.9999999989,
      "d": 225,
      "v": 90
    },
    {
      "midi": 88,
      "hit": false,
      "t": 138499.9999999989,
      "d": 250,
      "v": 100
    },
    {
      "midi": 84,
      "hit": false,
      "t": 138499.9999999989,
      "d": 250,
      "v": 100
    },
    {
      "midi": 48,
      "hit": false,
      "t": 138749.9999999989,
      "d": 225,
      "v": 100
    },
    {
      "midi": 88,
      "hit": false,
      "t": 138749.9999999989,
      "d": 250,
      "v": 100
    },
    {
      "midi": 84,
      "hit": false,
      "t": 138749.9999999989,
      "d": 250,
      "v": 100
    },
    {
      "midi": 42,
      "hit": false,
      "t": 138999.9999999989,
      "d": 225,
      "v": 90
    },
    {
      "midi": 48,
      "hit": false,
      "t": 138999.9999999989,
      "d": 450,
      "v": 100
    },
    {
      "midi": 67,
      "hit": false,
      "t": 139249.9999999989,
      "d": 225,
      "v": 100
    },
    {
      "midi": 69,
      "hit": false,
      "t": 139499.9999999989,
      "d": 225,
      "v": 100
    },
    {
      "midi": 42,
      "hit": false,
      "t": 139499.9999999989,
      "d": 225,
      "v": 90
    },
    {
      "midi": 72,
      "hit": false,
      "t": 139749.9999999989,
      "d": 225,
      "v": 100
    },
    {
      "midi": 42,
      "hit": false,
      "t": 139999.9999999989,
      "d": 225,
      "v": 90
    },
    {
      "midi": 74,
      "hit": false,
      "t": 139999.9999999989,
      "d": 450,
      "v": 100
    },
    {
      "midi": 41,
      "hit": false,
      "t": 139999.9999999989,
      "d": 750,
      "v": 100
    },
    {
      "midi": 57,
      "hit": false,
      "t": 139999.9999999989,
      "d": 1800,
      "v": 100
    },
    {
      "midi": 60,
      "hit": false,
      "t": 139999.9999999989,
      "d": 1800,
      "v": 100
    },
    {
      "midi": 62,
      "hit": false,
      "t": 139999.9999999989,
      "d": 1800,
      "v": 100
    },
    {
      "midi": 72,
      "hit": false,
      "t": 140499.9999999989,
      "d": 225,
      "v": 100
    },
    {
      "midi": 42,
      "hit": false,
      "t": 140499.9999999989,
      "d": 225,
      "v": 90
    },
    {
      "midi": 84,
      "hit": false,
      "t": 140499.9999999989,
      "d": 250,
      "v": 100
    },
    {
      "midi": 86,
      "hit": false,
      "t": 140499.9999999989,
      "d": 250,
      "v": 100
    },
    {
      "midi": 41,
      "hit": false,
      "t": 140749.9999999989,
      "d": 250,
      "v": 100
    },
    {
      "midi": 84,
      "hit": false,
      "t": 140749.9999999989,
      "d": 250,
      "v": 100
    },
    {
      "midi": 86,
      "hit": false,
      "t": 140749.9999999989,
      "d": 250,
      "v": 100
    },
    {
      "midi": 74,
      "hit": false,
      "t": 140749.9999999989,
      "d": 475,
      "v": 100
    },
    {
      "midi": 42,
      "hit": false,
      "t": 140999.9999999989,
      "d": 225,
      "v": 90
    },
    {
      "midi": 41,
      "hit": false,
      "t": 140999.9999999989,
      "d": 500,
      "v": 100
    },
    {
      "midi": 72,
      "hit": false,
      "t": 141249.9999999989,
      "d": 500,
      "v": 100
    },
    {
      "midi": 42,
      "hit": false,
      "t": 141499.9999999989,
      "d": 225,
      "v": 90
    },
    {
      "midi": 54,
      "hit": false,
      "t": 141499.9999999989,
      "d": 225,
      "v": 81
    },
    {
      "midi": 74,
      "hit": false,
      "t": 141749.9999999989,
      "d": 750,
      "v": 100
    },
    {
      "midi": 42,
      "hit": false,
      "t": 141999.9999999989,
      "d": 225,
      "v": 90
    },
    {
      "midi": 40,
      "hit": false,
      "t": 141999.9999999989,
      "d": 750,
      "v": 100
    },
    {
      "midi": 55,
      "hit": false,
      "t": 141999.9999999989,
      "d": 1800,
      "v": 100
    },
    {
      "midi": 59,
      "hit": false,
      "t": 141999.9999999989,
      "d": 1800,
      "v": 100
    },
    {
      "midi": 64,
      "hit": false,
      "t": 141999.9999999989,
      "d": 1800,
      "v": 100
    },
    {
      "midi": 42,
      "hit": false,
      "t": 142499.9999999989,
      "d": 225,
      "v": 90
    },
    {
      "midi": 83,
      "hit": false,
      "t": 142499.9999999989,
      "d": 250,
      "v": 100
    },
    {
      "midi": 88,
      "hit": false,
      "t": 142499.9999999989,
      "d": 250,
      "v": 100
    },
    {
      "midi": 76,
      "hit": false,
      "t": 142499.9999999989,
      "d": 500,
      "v": 100
    },
    {
      "midi": 40,
      "hit": false,
      "t": 142749.9999999989,
      "d": 250,
      "v": 100
    },
    {
      "midi": 83,
      "hit": false,
      "t": 142749.9999999989,
      "d": 250,
      "v": 100
    },
    {
      "midi": 88,
      "hit": false,
      "t": 142749.9999999989,
      "d": 250,
      "v": 100
    },
    {
      "midi": 42,
      "hit": false,
      "t": 142999.9999999989,
      "d": 225,
      "v": 90
    },
    {
      "midi": 40,
      "hit": false,
      "t": 142999.9999999989,
      "d": 500,
      "v": 100
    },
    {
      "midi": 79,
      "hit": false,
      "t": 142999.9999999989,
      "d": 500,
      "v": 100
    },
    {
      "midi": 42,
      "hit": false,
      "t": 143499.9999999989,
      "d": 225,
      "v": 90
    },
    {
      "midi": 76,
      "hit": false,
      "t": 143499.9999999989,
      "d": 250,
      "v": 100
    },
    {
      "midi": 81,
      "hit": false,
      "t": 143749.9999999989,
      "d": 1750,
      "v": 100
    },
    {
      "midi": 42,
      "hit": false,
      "t": 143999.9999999989,
      "d": 225,
      "v": 90
    },
    {
      "midi": 45,
      "hit": false,
      "t": 143999.9999999989,
      "d": 750,
      "v": 100
    },
    {
      "midi": 57,
      "hit": false,
      "t": 143999.9999999989,
      "d": 3800,
      "v": 100
    },
    {
      "midi": 60,
      "hit": false,
      "t": 143999.9999999989,
      "d": 3800,
      "v": 100
    },
    {
      "midi": 42,
      "hit": false,
      "t": 144499.9999999989,
      "d": 225,
      "v": 90
    },
    {
      "midi": 84,
      "hit": false,
      "t": 144499.9999999989,
      "d": 250,
      "v": 100
    },
    {
      "midi": 88,
      "hit": false,
      "t": 144499.9999999989,
      "d": 250,
      "v": 100
    },
    {
      "midi": 45,
      "hit": false,
      "t": 144749.9999999989,
      "d": 250,
      "v": 100
    },
    {
      "midi": 88,
      "hit": false,
      "t": 144749.9999999989,
      "d": 250,
      "v": 100
    },
    {
      "midi": 84,
      "hit": false,
      "t": 144749.9999999989,
      "d": 250,
      "v": 100
    },
    {
      "midi": 42,
      "hit": false,
      "t": 144999.9999999989,
      "d": 225,
      "v": 90
    },
    {
      "midi": 45,
      "hit": false,
      "t": 144999.9999999989,
      "d": 500,
      "v": 100
    },
    {
      "midi": 42,
      "hit": false,
      "t": 145499.9999999989,
      "d": 225,
      "v": 90
    },
    {
      "midi": 54,
      "hit": false,
      "t": 145499.9999999989,
      "d": 225,
      "v": 81
    },
    {
      "midi": 42,
      "hit": false,
      "t": 145999.9999999989,
      "d": 225,
      "v": 90
    },
    {
      "midi": 45,
      "hit": false,
      "t": 145999.9999999989,
      "d": 750,
      "v": 100
    },
    {
      "midi": 72,
      "hit": false,
      "t": 146249.9999999989,
      "d": 250,
      "v": 100
    },
    {
      "midi": 42,
      "hit": false,
      "t": 146499.9999999989,
      "d": 225,
      "v": 90
    },
    {
      "midi": 71,
      "hit": false,
      "t": 146499.9999999989,
      "d": 250,
      "v": 100
    },
    {
      "midi": 84,
      "hit": false,
      "t": 146499.9999999989,
      "d": 250,
      "v": 100
    },
    {
      "midi": 88,
      "hit": false,
      "t": 146499.9999999989,
      "d": 250,
      "v": 100
    },
    {
      "midi": 45,
      "hit": false,
      "t": 146749.9999999989,
      "d": 250,
      "v": 100
    },
    {
      "midi": 69,
      "hit": false,
      "t": 146749.9999999989,
      "d": 250,
      "v": 100
    },
    {
      "midi": 88,
      "hit": false,
      "t": 146749.9999999989,
      "d": 250,
      "v": 100
    },
    {
      "midi": 84,
      "hit": false,
      "t": 146749.9999999989,
      "d": 250,
      "v": 100
    },
    {
      "midi": 42,
      "hit": false,
      "t": 146999.9999999989,
      "d": 225,
      "v": 90
    },
    {
      "midi": 45,
      "hit": false,
      "t": 146999.9999999989,
      "d": 500,
      "v": 100
    },
    {
      "midi": 64,
      "hit": false,
      "t": 146999.9999999989,
      "d": 500,
      "v": 100
    },
    {
      "midi": 42,
      "hit": false,
      "t": 147499.9999999989,
      "d": 225,
      "v": 90
    },
    {
      "midi": 38,
      "hit": false,
      "t": 147499.9999999989,
      "d": 225,
      "v": 81
    },
    {
      "midi": 38,
      "hit": false,
      "t": 147749.9999999989,
      "d": 225,
      "v": 81
    },
    {
      "midi": 79,
      "hit": false,
      "t": 147999.9999999989,
      "d": 225,
      "v": 100
    },
    {
      "midi": 42,
      "hit": false,
      "t": 147999.9999999989,
      "d": 225,
      "v": 90
    },
    {
      "midi": 57,
      "hit": false,
      "t": 147999.9999999989,
      "d": 225,
      "v": 81
    },
    {
      "midi": 67,
      "hit": false,
      "t": 147999.9999999989,
      "d": 500,
      "v": 100
    },
    {
      "midi": 71,
      "hit": false,
      "t": 147999.9999999989,
      "d": 500,
      "v": 100
    },
    {
      "midi": 74,
      "hit": false,
      "t": 147999.9999999989,
      "d": 500,
      "v": 100
    },
    {
      "midi": 43,
      "hit": false,
      "t": 147999.9999999989,
      "d": 750,
      "v": 100
    },
    {
      "midi": 86,
      "hit": false,
      "t": 147999.9999999989,
      "d": 1000,
      "v": 100
    },
    {
      "midi": 55,
      "hit": false,
      "t": 147999.9999999989,
      "d": 2000,
      "v": 100
    },
    {
      "midi": 59,
      "hit": false,
      "t": 147999.9999999989,
      "d": 2000,
      "v": 100
    },
    {
      "midi": 62,
      "hit": false,
      "t": 147999.9999999989,
      "d": 2000,
      "v": 100
    },
    {
      "midi": 81,
      "hit": false,
      "t": 148249.9999999989,
      "d": 225,
      "v": 100
    },
    {
      "midi": 79,
      "hit": false,
      "t": 148499.9999999989,
      "d": 225,
      "v": 100
    },
    {
      "midi": 42,
      "hit": false,
      "t": 148499.9999999989,
      "d": 225,
      "v": 90
    },
    {
      "midi": 67,
      "hit": false,
      "t": 148499.9999999989,
      "d": 500,
      "v": 100
    },
    {
      "midi": 71,
      "hit": false,
      "t": 148499.9999999989,
      "d": 500,
      "v": 100
    },
    {
      "midi": 74,
      "hit": false,
      "t": 148499.9999999989,
      "d": 500,
      "v": 100
    },
    {
      "midi": 77,
      "hit": false,
      "t": 148749.9999999989,
      "d": 225,
      "v": 100
    },
    {
      "midi": 43,
      "hit": false,
      "t": 148749.9999999989,
      "d": 250,
      "v": 100
    },
    {
      "midi": 42,
      "hit": false,
      "t": 148999.9999999989,
      "d": 225,
      "v": 90
    },
    {
      "midi": 76,
      "hit": false,
      "t": 148999.9999999989,
      "d": 450,
      "v": 100
    },
    {
      "midi": 43,
      "hit": false,
      "t": 148999.9999999989,
      "d": 500,
      "v": 100
    },
    {
      "midi": 67,
      "hit": false,
      "t": 148999.9999999989,
      "d": 500,
      "v": 100
    },
    {
      "midi": 71,
      "hit": false,
      "t": 148999.9999999989,
      "d": 500,
      "v": 100
    },
    {
      "midi": 74,
      "hit": false,
      "t": 148999.9999999989,
      "d": 500,
      "v": 100
    },
    {
      "midi": 42,
      "hit": false,
      "t": 149499.9999999989,
      "d": 225,
      "v": 90
    },
    {
      "midi": 74,
      "hit": false,
      "t": 149499.9999999989,
      "d": 450,
      "v": 100
    },
    {
      "midi": 67,
      "hit": false,
      "t": 149499.9999999989,
      "d": 500,
      "v": 100
    },
    {
      "midi": 71,
      "hit": false,
      "t": 149499.9999999989,
      "d": 500,
      "v": 100
    },
    {
      "midi": 42,
      "hit": false,
      "t": 149999.9999999989,
      "d": 225,
      "v": 90
    },
    {
      "midi": 72,
      "hit": false,
      "t": 149999.9999999989,
      "d": 500,
      "v": 100
    },
    {
      "midi": 76,
      "hit": false,
      "t": 149999.9999999989,
      "d": 500,
      "v": 100
    },
    {
      "midi": 67,
      "hit": false,
      "t": 149999.9999999989,
      "d": 500,
      "v": 100
    },
    {
      "midi": 88,
      "hit": false,
      "t": 149999.9999999989,
      "d": 500,
      "v": 100
    },
    {
      "midi": 48,
      "hit": false,
      "t": 149999.9999999989,
      "d": 750,
      "v": 100
    },
    {
      "midi": 55,
      "hit": false,
      "t": 149999.9999999989,
      "d": 2000,
      "v": 100
    },
    {
      "midi": 60,
      "hit": false,
      "t": 149999.9999999989,
      "d": 2000,
      "v": 100
    },
    {
      "midi": 64,
      "hit": false,
      "t": 149999.9999999989,
      "d": 2000,
      "v": 100
    },
    {
      "midi": 42,
      "hit": false,
      "t": 150499.9999999989,
      "d": 225,
      "v": 90
    },
    {
      "midi": 76,
      "hit": false,
      "t": 150499.9999999989,
      "d": 400,
      "v": 100
    },
    {
      "midi": 72,
      "hit": false,
      "t": 150499.9999999989,
      "d": 500,
      "v": 100
    },
    {
      "midi": 67,
      "hit": false,
      "t": 150499.9999999989,
      "d": 500,
      "v": 100
    },
    {
      "midi": 89,
      "hit": false,
      "t": 150499.9999999989,
      "d": 500,
      "v": 100
    },
    {
      "midi": 48,
      "hit": false,
      "t": 150749.9999999989,
      "d": 250,
      "v": 100
    },
    {
      "midi": 42,
      "hit": false,
      "t": 150999.9999999989,
      "d": 225,
      "v": 90
    },
    {
      "midi": 48,
      "hit": false,
      "t": 150999.9999999989,
      "d": 500,
      "v": 100
    },
    {
      "midi": 72,
      "hit": false,
      "t": 150999.9999999989,
      "d": 500,
      "v": 100
    },
    {
      "midi": 76,
      "hit": false,
      "t": 150999.9999999989,
      "d": 500,
      "v": 100
    },
    {
      "midi": 67,
      "hit": false,
      "t": 150999.9999999989,
      "d": 500,
      "v": 100
    },
    {
      "midi": 91,
      "hit": false,
      "t": 150999.9999999989,
      "d": 500,
      "v": 100
    },
    {
      "midi": 42,
      "hit": false,
      "t": 151499.9999999989,
      "d": 225,
      "v": 90
    },
    {
      "midi": 72,
      "hit": false,
      "t": 151499.9999999989,
      "d": 500,
      "v": 100
    },
    {
      "midi": 76,
      "hit": false,
      "t": 151499.9999999989,
      "d": 500,
      "v": 100
    },
    {
      "midi": 67,
      "hit": false,
      "t": 151499.9999999989,
      "d": 500,
      "v": 100
    },
    {
      "midi": 88,
      "hit": false,
      "t": 151499.9999999989,
      "d": 500,
      "v": 100
    },
    {
      "midi": 74,
      "hit": false,
      "t": 151999.9999999989,
      "d": 225,
      "v": 100
    },
    {
      "midi": 42,
      "hit": false,
      "t": 151999.9999999989,
      "d": 225,
      "v": 90
    },
    {
      "midi": 72,
      "hit": false,
      "t": 151999.9999999989,
      "d": 500,
      "v": 100
    },
    {
      "midi": 69,
      "hit": false,
      "t": 151999.9999999989,
      "d": 500,
      "v": 100
    },
    {
      "midi": 41,
      "hit": false,
      "t": 151999.9999999989,
      "d": 750,
      "v": 100
    },
    {
      "midi": 86,
      "hit": false,
      "t": 151999.9999999989,
      "d": 1000,
      "v": 100
    },
    {
      "midi": 57,
      "hit": false,
      "t": 151999.9999999989,
      "d": 2000,
      "v": 100
    },
    {
      "midi": 60,
      "hit": false,
      "t": 151999.9999999989,
      "d": 2000,
      "v": 100
    },
    {
      "midi": 62,
      "hit": false,
      "t": 151999.9999999989,
      "d": 2000,
      "v": 100
    },
    {
      "midi": 74,
      "hit": false,
      "t": 152249.9999999989,
      "d": 225,
      "v": 100
    },
    {
      "midi": 74,
      "hit": false,
      "t": 152499.9999999989,
      "d": 225,
      "v": 100
    },
    {
      "midi": 42,
      "hit": false,
      "t": 152499.9999999989,
      "d": 225,
      "v": 90
    },
    {
      "midi": 72,
      "hit": false,
      "t": 152499.9999999989,
      "d": 500,
      "v": 100
    },
    {
      "midi": 69,
      "hit": false,
      "t": 152499.9999999989,
      "d": 500,
      "v": 100
    },
    {
      "midi": 74,
      "hit": false,
      "t": 152749.9999999989,
      "d": 225,
      "v": 100
    },
    {
      "midi": 41,
      "hit": false,
      "t": 152749.9999999989,
      "d": 250,
      "v": 100
    },
    {
      "midi": 42,
      "hit": false,
      "t": 152999.9999999989,
      "d": 225,
      "v": 90
    },
    {
      "midi": 72,
      "hit": false,
      "t": 152999.9999999989,
      "d": 450,
      "v": 100
    },
    {
      "midi": 41,
      "hit": false,
      "t": 152999.9999999989,
      "d": 500,
      "v": 100
    },
    {
      "midi": 69,
      "hit": false,
      "t": 152999.9999999989,
      "d": 500,
      "v": 100
    },
    {
      "midi": 74,
      "hit": false,
      "t": 152999.9999999989,
      "d": 500,
      "v": 100
    },
    {
      "midi": 42,
      "hit": false,
      "t": 153499.9999999989,
      "d": 225,
      "v": 90
    },
    {
      "midi": 74,
      "hit": false,
      "t": 153499.9999999989,
      "d": 450,
      "v": 100
    },
    {
      "midi": 72,
      "hit": false,
      "t": 153499.9999999989,
      "d": 500,
      "v": 100
    },
    {
      "midi": 69,
      "hit": false,
      "t": 153499.9999999989,
      "d": 500,
      "v": 100
    },
    {
      "midi": 42,
      "hit": false,
      "t": 153999.9999999989,
      "d": 225,
      "v": 90
    },
    {
      "midi": 68,
      "hit": false,
      "t": 153999.9999999989,
      "d": 500,
      "v": 100
    },
    {
      "midi": 71,
      "hit": false,
      "t": 153999.9999999989,
      "d": 500,
      "v": 100
    },
    {
      "midi": 76,
      "hit": false,
      "t": 153999.9999999989,
      "d": 500,
      "v": 100
    },
    {
      "midi": 83,
      "hit": false,
      "t": 153999.9999999989,
      "d": 500,
      "v": 100
    },
    {
      "midi": 40,
      "hit": false,
      "t": 153999.9999999989,
      "d": 750,
      "v": 100
    },
    {
      "midi": 56,
      "hit": false,
      "t": 153999.9999999989,
      "d": 2000,
      "v": 100
    },
    {
      "midi": 59,
      "hit": false,
      "t": 153999.9999999989,
      "d": 2000,
      "v": 100
    },
    {
      "midi": 64,
      "hit": false,
      "t": 153999.9999999989,
      "d": 2000,
      "v": 100
    },
    {
      "midi": 42,
      "hit": false,
      "t": 154499.9999999989,
      "d": 225,
      "v": 90
    },
    {
      "midi": 76,
      "hit": false,
      "t": 154499.9999999989,
      "d": 400,
      "v": 100
    },
    {
      "midi": 68,
      "hit": false,
      "t": 154499.9999999989,
      "d": 500,
      "v": 100
    },
    {
      "midi": 71,
      "hit": false,
      "t": 154499.9999999989,
      "d": 500,
      "v": 100
    },
    {
      "midi": 84,
      "hit": false,
      "t": 154499.9999999989,
      "d": 500,
      "v": 100
    },
    {
      "midi": 40,
      "hit": false,
      "t": 154749.9999999989,
      "d": 250,
      "v": 100
    },
    {
      "midi": 42,
      "hit": false,
      "t": 154999.9999999989,
      "d": 225,
      "v": 90
    },
    {
      "midi": 40,
      "hit": false,
      "t": 154999.9999999989,
      "d": 500,
      "v": 100
    },
    {
      "midi": 68,
      "hit": false,
      "t": 154999.9999999989,
      "d": 500,
      "v": 100
    },
    {
      "midi": 71,
      "hit": false,
      "t": 154999.9999999989,
      "d": 500,
      "v": 100
    },
    {
      "midi": 76,
      "hit": false,
      "t": 154999.9999999989,
      "d": 500,
      "v": 100
    },
    {
      "midi": 86,
      "hit": false,
      "t": 154999.9999999989,
      "d": 500,
      "v": 100
    },
    {
      "midi": 42,
      "hit": false,
      "t": 155499.9999999989,
      "d": 225,
      "v": 90
    },
    {
      "midi": 68,
      "hit": false,
      "t": 155499.9999999989,
      "d": 500,
      "v": 100
    },
    {
      "midi": 71,
      "hit": false,
      "t": 155499.9999999989,
      "d": 500,
      "v": 100
    },
    {
      "midi": 76,
      "hit": false,
      "t": 155499.9999999989,
      "d": 500,
      "v": 100
    },
    {
      "midi": 83,
      "hit": false,
      "t": 155499.9999999989,
      "d": 500,
      "v": 100
    },
    {
      "midi": 79,
      "hit": false,
      "t": 155999.9999999989,
      "d": 225,
      "v": 100
    },
    {
      "midi": 42,
      "hit": false,
      "t": 155999.9999999989,
      "d": 225,
      "v": 90
    },
    {
      "midi": 57,
      "hit": false,
      "t": 155999.9999999989,
      "d": 225,
      "v": 81
    },
    {
      "midi": 67,
      "hit": false,
      "t": 155999.9999999989,
      "d": 500,
      "v": 100
    },
    {
      "midi": 71,
      "hit": false,
      "t": 155999.9999999989,
      "d": 500,
      "v": 100
    },
    {
      "midi": 74,
      "hit": false,
      "t": 155999.9999999989,
      "d": 500,
      "v": 100
    },
    {
      "midi": 43,
      "hit": false,
      "t": 155999.9999999989,
      "d": 750,
      "v": 100
    },
    {
      "midi": 86,
      "hit": false,
      "t": 155999.9999999989,
      "d": 1000,
      "v": 100
    },
    {
      "midi": 55,
      "hit": false,
      "t": 155999.9999999989,
      "d": 2000,
      "v": 100
    },
    {
      "midi": 59,
      "hit": false,
      "t": 155999.9999999989,
      "d": 2000,
      "v": 100
    },
    {
      "midi": 62,
      "hit": false,
      "t": 155999.9999999989,
      "d": 2000,
      "v": 100
    },
    {
      "midi": 81,
      "hit": false,
      "t": 156249.9999999989,
      "d": 225,
      "v": 100
    },
    {
      "midi": 79,
      "hit": false,
      "t": 156499.9999999989,
      "d": 225,
      "v": 100
    },
    {
      "midi": 42,
      "hit": false,
      "t": 156499.9999999989,
      "d": 225,
      "v": 90
    },
    {
      "midi": 67,
      "hit": false,
      "t": 156499.9999999989,
      "d": 500,
      "v": 100
    },
    {
      "midi": 71,
      "hit": false,
      "t": 156499.9999999989,
      "d": 500,
      "v": 100
    },
    {
      "midi": 74,
      "hit": false,
      "t": 156499.9999999989,
      "d": 500,
      "v": 100
    },
    {
      "midi": 77,
      "hit": false,
      "t": 156749.9999999989,
      "d": 225,
      "v": 100
    },
    {
      "midi": 43,
      "hit": false,
      "t": 156749.9999999989,
      "d": 250,
      "v": 100
    },
    {
      "midi": 42,
      "hit": false,
      "t": 156999.9999999989,
      "d": 225,
      "v": 90
    },
    {
      "midi": 76,
      "hit": false,
      "t": 156999.9999999989,
      "d": 450,
      "v": 100
    },
    {
      "midi": 43,
      "hit": false,
      "t": 156999.9999999989,
      "d": 500,
      "v": 100
    },
    {
      "midi": 67,
      "hit": false,
      "t": 156999.9999999989,
      "d": 500,
      "v": 100
    },
    {
      "midi": 71,
      "hit": false,
      "t": 156999.9999999989,
      "d": 500,
      "v": 100
    },
    {
      "midi": 74,
      "hit": false,
      "t": 156999.9999999989,
      "d": 500,
      "v": 100
    },
    {
      "midi": 42,
      "hit": false,
      "t": 157499.9999999989,
      "d": 225,
      "v": 90
    },
    {
      "midi": 74,
      "hit": false,
      "t": 157499.9999999989,
      "d": 450,
      "v": 100
    },
    {
      "midi": 67,
      "hit": false,
      "t": 157499.9999999989,
      "d": 500,
      "v": 100
    },
    {
      "midi": 71,
      "hit": false,
      "t": 157499.9999999989,
      "d": 500,
      "v": 100
    },
    {
      "midi": 42,
      "hit": false,
      "t": 157999.9999999989,
      "d": 225,
      "v": 90
    },
    {
      "midi": 67,
      "hit": false,
      "t": 157999.9999999989,
      "d": 500,
      "v": 100
    },
    {
      "midi": 72,
      "hit": false,
      "t": 157999.9999999989,
      "d": 500,
      "v": 100
    },
    {
      "midi": 76,
      "hit": false,
      "t": 157999.9999999989,
      "d": 500,
      "v": 100
    },
    {
      "midi": 88,
      "hit": false,
      "t": 157999.9999999989,
      "d": 500,
      "v": 100
    },
    {
      "midi": 48,
      "hit": false,
      "t": 157999.9999999989,
      "d": 750,
      "v": 100
    },
    {
      "midi": 55,
      "hit": false,
      "t": 157999.9999999989,
      "d": 2000,
      "v": 100
    },
    {
      "midi": 60,
      "hit": false,
      "t": 157999.9999999989,
      "d": 2000,
      "v": 100
    },
    {
      "midi": 64,
      "hit": false,
      "t": 157999.9999999989,
      "d": 2000,
      "v": 100
    },
    {
      "midi": 42,
      "hit": false,
      "t": 158499.9999999989,
      "d": 225,
      "v": 90
    },
    {
      "midi": 76,
      "hit": false,
      "t": 158499.9999999989,
      "d": 400,
      "v": 100
    },
    {
      "midi": 67,
      "hit": false,
      "t": 158499.9999999989,
      "d": 500,
      "v": 100
    },
    {
      "midi": 72,
      "hit": false,
      "t": 158499.9999999989,
      "d": 500,
      "v": 100
    },
    {
      "midi": 89,
      "hit": false,
      "t": 158499.9999999989,
      "d": 500,
      "v": 100
    },
    {
      "midi": 48,
      "hit": false,
      "t": 158749.9999999989,
      "d": 250,
      "v": 100
    },
    {
      "midi": 42,
      "hit": false,
      "t": 158999.9999999989,
      "d": 225,
      "v": 90
    },
    {
      "midi": 48,
      "hit": false,
      "t": 158999.9999999989,
      "d": 500,
      "v": 100
    },
    {
      "midi": 67,
      "hit": false,
      "t": 158999.9999999989,
      "d": 500,
      "v": 100
    },
    {
      "midi": 72,
      "hit": false,
      "t": 158999.9999999989,
      "d": 500,
      "v": 100
    },
    {
      "midi": 76,
      "hit": false,
      "t": 158999.9999999989,
      "d": 500,
      "v": 100
    },
    {
      "midi": 91,
      "hit": false,
      "t": 158999.9999999989,
      "d": 500,
      "v": 100
    },
    {
      "midi": 42,
      "hit": false,
      "t": 159499.9999999989,
      "d": 225,
      "v": 90
    },
    {
      "midi": 67,
      "hit": false,
      "t": 159499.9999999989,
      "d": 500,
      "v": 100
    },
    {
      "midi": 72,
      "hit": false,
      "t": 159499.9999999989,
      "d": 500,
      "v": 100
    },
    {
      "midi": 76,
      "hit": false,
      "t": 159499.9999999989,
      "d": 500,
      "v": 100
    },
    {
      "midi": 88,
      "hit": false,
      "t": 159499.9999999989,
      "d": 500,
      "v": 100
    },
    {
      "midi": 74,
      "hit": false,
      "t": 159999.9999999989,
      "d": 225,
      "v": 100
    },
    {
      "midi": 42,
      "hit": false,
      "t": 159999.9999999989,
      "d": 225,
      "v": 90
    },
    {
      "midi": 69,
      "hit": false,
      "t": 159999.9999999989,
      "d": 500,
      "v": 100
    },
    {
      "midi": 72,
      "hit": false,
      "t": 159999.9999999989,
      "d": 500,
      "v": 100
    },
    {
      "midi": 41,
      "hit": false,
      "t": 159999.9999999989,
      "d": 750,
      "v": 100
    },
    {
      "midi": 86,
      "hit": false,
      "t": 159999.9999999989,
      "d": 1000,
      "v": 100
    },
    {
      "midi": 57,
      "hit": false,
      "t": 159999.9999999989,
      "d": 2000,
      "v": 100
    },
    {
      "midi": 60,
      "hit": false,
      "t": 159999.9999999989,
      "d": 2000,
      "v": 100
    },
    {
      "midi": 62,
      "hit": false,
      "t": 159999.9999999989,
      "d": 2000,
      "v": 100
    },
    {
      "midi": 74,
      "hit": false,
      "t": 160249.9999999989,
      "d": 225,
      "v": 100
    },
    {
      "midi": 74,
      "hit": false,
      "t": 160499.9999999989,
      "d": 225,
      "v": 100
    },
    {
      "midi": 42,
      "hit": false,
      "t": 160499.9999999989,
      "d": 225,
      "v": 90
    },
    {
      "midi": 69,
      "hit": false,
      "t": 160499.9999999989,
      "d": 500,
      "v": 100
    },
    {
      "midi": 72,
      "hit": false,
      "t": 160499.9999999989,
      "d": 500,
      "v": 100
    },
    {
      "midi": 74,
      "hit": false,
      "t": 160749.9999999989,
      "d": 225,
      "v": 100
    },
    {
      "midi": 41,
      "hit": false,
      "t": 160749.9999999989,
      "d": 250,
      "v": 100
    },
    {
      "midi": 42,
      "hit": false,
      "t": 160999.9999999989,
      "d": 225,
      "v": 90
    },
    {
      "midi": 72,
      "hit": false,
      "t": 160999.9999999989,
      "d": 450,
      "v": 100
    },
    {
      "midi": 41,
      "hit": false,
      "t": 160999.9999999989,
      "d": 500,
      "v": 100
    },
    {
      "midi": 69,
      "hit": false,
      "t": 160999.9999999989,
      "d": 500,
      "v": 100
    },
    {
      "midi": 74,
      "hit": false,
      "t": 160999.9999999989,
      "d": 500,
      "v": 100
    },
    {
      "midi": 42,
      "hit": false,
      "t": 161499.9999999989,
      "d": 225,
      "v": 90
    },
    {
      "midi": 74,
      "hit": false,
      "t": 161499.9999999989,
      "d": 450,
      "v": 100
    },
    {
      "midi": 69,
      "hit": false,
      "t": 161499.9999999989,
      "d": 500,
      "v": 100
    },
    {
      "midi": 72,
      "hit": false,
      "t": 161499.9999999989,
      "d": 500,
      "v": 100
    },
    {
      "midi": 71,
      "hit": false,
      "t": 161999.9999999989,
      "d": 83.33333333334303,
      "v": 100
    },
    {
      "midi": 57,
      "hit": false,
      "t": 161999.9999999989,
      "d": 225.0000000000291,
      "v": 81
    },
    {
      "midi": 40,
      "hit": false,
      "t": 161999.9999999989,
      "d": 1000.0000000000873,
      "v": 100
    },
    {
      "midi": 56,
      "hit": false,
      "t": 161999.9999999989,
      "d": 1000.0000000000873,
      "v": 100
    },
    {
      "midi": 59,
      "hit": false,
      "t": 161999.9999999989,
      "d": 1000.0000000000873,
      "v": 100
    },
    {
      "midi": 76,
      "hit": false,
      "t": 161999.9999999989,
      "d": 1350.0000000001164,
      "v": 100
    },
    {
      "midi": 71,
      "hit": false,
      "t": 162083.33333333224,
      "d": 83.33333333334303,
      "v": 100
    },
    {
      "midi": 71,
      "hit": false,
      "t": 162166.66666666558,
      "d": 83.33333333334303,
      "v": 100
    },
    {
      "midi": 71,
      "hit": false,
      "t": 162249.99999999892,
      "d": 83.33333333334303,
      "v": 100
    },
    {
      "midi": 71,
      "hit": false,
      "t": 162333.33333333227,
      "d": 83.33333333334303,
      "v": 100
    },
    {
      "midi": 71,
      "hit": false,
      "t": 162416.6666666656,
      "d": 83.33333333334303,
      "v": 100
    },
    {
      "midi": 71,
      "hit": false,
      "t": 162499.99999999895,
      "d": 83.33333333334303,
      "v": 100
    },
    {
      "midi": 71,
      "hit": false,
      "t": 162583.3333333323,
      "d": 83.33333333334303,
      "v": 100
    },
    {
      "midi": 71,
      "hit": false,
      "t": 162666.66666666564,
      "d": 83.33333333334303,
      "v": 100
    },
    {
      "midi": 71,
      "hit": false,
      "t": 162749.99999999898,
      "d": 83.33333333334303,
      "v": 100
    },
    {
      "midi": 71,
      "hit": false,
      "t": 162833.33333333232,
      "d": 66.66666666665697,
      "v": 100
    },
    {
      "midi": 71,
      "hit": false,
      "t": 162916.66666666564,
      "d": 83.33333333334303,
      "v": 100
    },
    {
      "midi": 72,
      "hit": false,
      "t": 162999.99999999898,
      "d": 83.33333333334303,
      "v": 100
    },
    {
      "midi": 57,
      "hit": false,
      "t": 162999.99999999898,
      "d": 225.0000000000291,
      "v": 81
    },
    {
      "midi": 40,
      "hit": false,
      "t": 162999.99999999898,
      "d": 1000.0000000000582,
      "v": 100
    },
    {
      "midi": 60,
      "hit": false,
      "t": 162999.99999999898,
      "d": 1000.0000000000582,
      "v": 100
    },
    {
      "midi": 72,
      "hit": false,
      "t": 163083.33333333232,
      "d": 83.33333333334303,
      "v": 100
    },
    {
      "midi": 72,
      "hit": false,
      "t": 163166.66666666567,
      "d": 83.33333333334303,
      "v": 100
    },
    {
      "midi": 72,
      "hit": false,
      "t": 163249.999999999,
      "d": 83.33333333334303,
      "v": 100
    },
    {
      "midi": 72,
      "hit": false,
      "t": 163333.33333333235,
      "d": 83.33333333331393,
      "v": 100
    },
    {
      "midi": 72,
      "hit": false,
      "t": 163416.66666666567,
      "d": 83.33333333334303,
      "v": 100
    },
    {
      "midi": 72,
      "hit": false,
      "t": 163499.999999999,
      "d": 83.33333333334303,
      "v": 100
    },
    {
      "midi": 72,
      "hit": false,
      "t": 163583.33333333235,
      "d": 83.33333333334303,
      "v": 100
    },
    {
      "midi": 72,
      "hit": false,
      "t": 163666.6666666657,
      "d": 83.33333333334303,
      "v": 100
    },
    {
      "midi": 72,
      "hit": false,
      "t": 163749.99999999904,
      "d": 83.33333333334303,
      "v": 100
    },
    {
      "midi": 72,
      "hit": false,
      "t": 163833.33333333238,
      "d": 66.66666666665697,
      "v": 100
    },
    {
      "midi": 72,
      "hit": false,
      "t": 163916.6666666657,
      "d": 83.33333333334303,
      "v": 100
    },
    {
      "midi": 74,
      "hit": false,
      "t": 163999.99999999904,
      "d": 83.33333333334303,
      "v": 100
    },
    {
      "midi": 57,
      "hit": false,
      "t": 163999.99999999904,
      "d": 225.0000000000291,
      "v": 81
    },
    {
      "midi": 59,
      "hit": false,
      "t": 163999.99999999904,
      "d": 1000.0000000000873,
      "v": 100
    },
    {
      "midi": 62,
      "hit": false,
      "t": 163999.99999999904,
      "d": 1000.0000000000873,
      "v": 100
    },
    {
      "midi": 74,
      "hit": false,
      "t": 164083.33333333238,
      "d": 83.33333333334303,
      "v": 100
    },
    {
      "midi": 74,
      "hit": false,
      "t": 164166.66666666573,
      "d": 83.33333333334303,
      "v": 100
    },
    {
      "midi": 74,
      "hit": false,
      "t": 164249.99999999907,
      "d": 83.33333333334303,
      "v": 100
    },
    {
      "midi": 74,
      "hit": false,
      "t": 164333.3333333324,
      "d": 83.33333333334303,
      "v": 100
    },
    {
      "midi": 74,
      "hit": false,
      "t": 164416.66666666575,
      "d": 83.33333333334303,
      "v": 100
    },
    {
      "midi": 74,
      "hit": false,
      "t": 164499.9999999991,
      "d": 83.33333333334303,
      "v": 100
    },
    {
      "midi": 74,
      "hit": false,
      "t": 164583.33333333244,
      "d": 83.33333333334303,
      "v": 100
    },
    {
      "midi": 74,
      "hit": false,
      "t": 164666.66666666578,
      "d": 83.33333333334303,
      "v": 100
    },
    {
      "midi": 74,
      "hit": false,
      "t": 164749.99999999913,
      "d": 83.33333333334303,
      "v": 100
    },
    {
      "midi": 40,
      "hit": false,
      "t": 164749.99999999913,
      "d": 225,
      "v": 80
    },
    {
      "midi": 74,
      "hit": false,
      "t": 164833.33333333247,
      "d": 66.66666666665697,
      "v": 100
    },
    {
      "midi": 74,
      "hit": false,
      "t": 164916.66666666578,
      "d": 83.33333333334303,
      "v": 100
    },
    {
      "midi": 76,
      "hit": false,
      "t": 164999.99999999913,
      "d": 83.33333333334303,
      "v": 100
    },
    {
      "midi": 57,
      "hit": false,
      "t": 164999.99999999913,
      "d": 225.0000000000291,
      "v": 81
    },
    {
      "midi": 40,
      "hit": false,
      "t": 164999.99999999913,
      "d": 500.0000000000582,
      "v": 100
    },
    {
      "midi": 56,
      "hit": false,
      "t": 164999.99999999913,
      "d": 1000.0000000000582,
      "v": 100
    },
    {
      "midi": 59,
      "hit": false,
      "t": 164999.99999999913,
      "d": 1000.0000000000582,
      "v": 100
    },
    {
      "midi": 64,
      "hit": false,
      "t": 164999.99999999913,
      "d": 1000.0000000000582,
      "v": 100
    },
    {
      "midi": 76,
      "hit": false,
      "t": 165083.33333333247,
      "d": 83.33333333334303,
      "v": 100
    },
    {
      "midi": 76,
      "hit": false,
      "t": 165166.6666666658,
      "d": 83.33333333334303,
      "v": 100
    },
    {
      "midi": 76,
      "hit": false,
      "t": 165249.99999999916,
      "d": 83.33333333334303,
      "v": 100
    },
    {
      "midi": 76,
      "hit": false,
      "t": 165333.3333333325,
      "d": 83.33333333334303,
      "v": 100
    },
    {
      "midi": 76,
      "hit": false,
      "t": 165416.66666666584,
      "d": 83.33333333334303,
      "v": 100
    },
    {
      "midi": 76,
      "hit": false,
      "t": 165499.99999999919,
      "d": 83.33333333334303,
      "v": 100
    },
    {
      "midi": 40,
      "hit": false,
      "t": 165499.99999999919,
      "d": 112.5,
      "v": 80
    },
    {
      "midi": 76,
      "hit": false,
      "t": 165583.33333333253,
      "d": 83.33333333331393,
      "v": 100
    },
    {
      "midi": 40,
      "hit": false,
      "t": 165624.99999999919,
      "d": 112.5,
      "v": 80
    },
    {
      "midi": 76,
      "hit": false,
      "t": 165666.66666666584,
      "d": 83.33333333334303,
      "v": 100
    },
    {
      "midi": 76,
      "hit": false,
      "t": 165749.99999999919,
      "d": 83.33333333334303,
      "v": 100
    },
    {
      "midi": 40,
      "hit": false,
      "t": 165749.99999999919,
      "d": 112.5,
      "v": 90
    },
    {
      "midi": 76,
      "hit": false,
      "t": 165833.33333333253,
      "d": 66.66666666665697,
      "v": 100
    },
    {
      "midi": 76,
      "hit": false,
      "t": 165916.66666666584,
      "d": 83.33333333334303,
      "v": 100
    },
    {
      "midi": 81,
      "hit": false,
      "t": 165999.99999999919,
      "d": 224.9999999999709,
      "v": 100
    },
    {
      "midi": 46,
      "hit": false,
      "t": 165999.99999999919,
      "d": 224.9999999999709,
      "v": 80
    },
    {
      "midi": 38,
      "hit": false,
      "t": 165999.99999999919,
      "d": 750,
      "v": 100
    },
    {
      "midi": 57,
      "hit": false,
      "t": 165999.99999999919,
      "d": 4000,
      "v": 100
    },
    {
      "midi": 62,
      "hit": false,
      "t": 165999.99999999919,
      "d": 4000,
      "v": 100
    },
    {
      "midi": 65,
      "hit": false,
      "t": 165999.99999999919,
      "d": 4000,
      "v": 100
    },
    {
      "midi": 42,
      "hit": false,
      "t": 166249.99999999916,
      "d": 75,
      "v": 80
    },
    {
      "midi": 81,
      "hit": false,
      "t": 166249.99999999916,
      "d": 225,
      "v": 100
    },
    {
      "midi": 54,
      "hit": false,
      "t": 166249.99999999916,
      "d": 225,
      "v": 50
    },
    {
      "midi": 42,
      "hit": false,
      "t": 166333.3333333325,
      "d": 75,
      "v": 70
    },
    {
      "midi": 42,
      "hit": false,
      "t": 166416.66666666584,
      "d": 75,
      "v": 60
    },
    {
      "midi": 81,
      "hit": false,
      "t": 166499.99999999919,
      "d": 225,
      "v": 100
    },
    {
      "midi": 40,
      "hit": false,
      "t": 166499.99999999919,
      "d": 225,
      "v": 80
    },
    {
      "midi": 81,
      "hit": false,
      "t": 166749.99999999919,
      "d": 225,
      "v": 100
    },
    {
      "midi": 54,
      "hit": false,
      "t": 166749.99999999919,
      "d": 225,
      "v": 50
    },
    {
      "midi": 38,
      "hit": false,
      "t": 166749.99999999919,
      "d": 250,
      "v": 100
    },
    {
      "midi": 81,
      "hit": false,
      "t": 166999.99999999919,
      "d": 450,
      "v": 100
    },
    {
      "midi": 38,
      "hit": false,
      "t": 166999.99999999919,
      "d": 500,
      "v": 100
    },
    {
      "midi": 54,
      "hit": false,
      "t": 167249.99999999919,
      "d": 225,
      "v": 50
    },
    {
      "midi": 40,
      "hit": false,
      "t": 167499.99999999919,
      "d": 225,
      "v": 80
    },
    {
      "midi": 81,
      "hit": false,
      "t": 167499.99999999919,
      "d": 450,
      "v": 100
    },
    {
      "midi": 54,
      "hit": false,
      "t": 167749.99999999919,
      "d": 225,
      "v": 50
    },
    {
      "midi": 83,
      "hit": false,
      "t": 167999.99999999919,
      "d": 675,
      "v": 100
    },
    {
      "midi": 38,
      "hit": false,
      "t": 167999.99999999919,
      "d": 750,
      "v": 100
    },
    {
      "midi": 54,
      "hit": false,
      "t": 168249.99999999919,
      "d": 225,
      "v": 50
    },
    {
      "midi": 40,
      "hit": false,
      "t": 168499.99999999919,
      "d": 225,
      "v": 80
    },
    {
      "midi": 54,
      "hit": false,
      "t": 168749.99999999919,
      "d": 225,
      "v": 50
    },
    {
      "midi": 81,
      "hit": false,
      "t": 168749.99999999919,
      "d": 250,
      "v": 100
    },
    {
      "midi": 38,
      "hit": false,
      "t": 168749.99999999919,
      "d": 250,
      "v": 100
    },
    {
      "midi": 38,
      "hit": false,
      "t": 168999.99999999919,
      "d": 500,
      "v": 100
    },
    {
      "midi": 84,
      "hit": false,
      "t": 168999.99999999919,
      "d": 500,
      "v": 100
    },
    {
      "midi": 54,
      "hit": false,
      "t": 169249.99999999919,
      "d": 225,
      "v": 50
    },
    {
      "midi": 40,
      "hit": false,
      "t": 169499.99999999919,
      "d": 225,
      "v": 80
    },
    {
      "midi": 86,
      "hit": false,
      "t": 169499.99999999919,
      "d": 500,
      "v": 100
    },
    {
      "midi": 54,
      "hit": false,
      "t": 169749.99999999919,
      "d": 225,
      "v": 50
    },
    {
      "midi": 46,
      "hit": false,
      "t": 169999.99999999919,
      "d": 75,
      "v": 80
    },
    {
      "midi": 81,
      "hit": false,
      "t": 169999.99999999919,
      "d": 250,
      "v": 100
    },
    {
      "midi": 45,
      "hit": false,
      "t": 169999.99999999919,
      "d": 750.0000000000291,
      "v": 100
    },
    {
      "midi": 88,
      "hit": false,
      "t": 169999.99999999919,
      "d": 2500.000000000029,
      "v": 100
    },
    {
      "midi": 57,
      "hit": false,
      "t": 169999.99999999919,
      "d": 4000.000000000029,
      "v": 100
    },
    {
      "midi": 60,
      "hit": false,
      "t": 169999.99999999919,
      "d": 4000.000000000029,
      "v": 100
    },
    {
      "midi": 64,
      "hit": false,
      "t": 169999.99999999919,
      "d": 4000.000000000029,
      "v": 100
    },
    {
      "midi": 42,
      "hit": false,
      "t": 170249.99999999919,
      "d": 75,
      "v": 70
    },
    {
      "midi": 54,
      "hit": false,
      "t": 170249.99999999919,
      "d": 225.0000000000291,
      "v": 50
    },
    {
      "midi": 81,
      "hit": false,
      "t": 170249.99999999919,
      "d": 250.0000000000291,
      "v": 100
    },
    {
      "midi": 42,
      "hit": false,
      "t": 170333.33333333253,
      "d": 75,
      "v": 60
    },
    {
      "midi": 42,
      "hit": false,
      "t": 170416.66666666587,
      "d": 75,
      "v": 80
    },
    {
      "midi": 40,
      "hit": false,
      "t": 170499.9999999992,
      "d": 225,
      "v": 80
    },
    {
      "midi": 81,
      "hit": false,
      "t": 170499.9999999992,
      "d": 250,
      "v": 100
    },
    {
      "midi": 54,
      "hit": false,
      "t": 170749.9999999992,
      "d": 225,
      "v": 50
    },
    {
      "midi": 45,
      "hit": false,
      "t": 170749.9999999992,
      "d": 250,
      "v": 100
    },
    {
      "midi": 81,
      "hit": false,
      "t": 170749.9999999992,
      "d": 250,
      "v": 100
    },
    {
      "midi": 45,
      "hit": false,
      "t": 170999.9999999992,
      "d": 500,
      "v": 100
    },
    {
      "midi": 76,
      "hit": false,
      "t": 170999.9999999992,
      "d": 500,
      "v": 100
    },
    {
      "midi": 54,
      "hit": false,
      "t": 171249.9999999992,
      "d": 225,
      "v": 50
    },
    {
      "midi": 40,
      "hit": false,
      "t": 171499.9999999992,
      "d": 225,
      "v": 80
    },
    {
      "midi": 74,
      "hit": false,
      "t": 171499.9999999992,
      "d": 500,
      "v": 100
    },
    {
      "midi": 54,
      "hit": false,
      "t": 171749.9999999992,
      "d": 225,
      "v": 50
    },
    {
      "midi": 45,
      "hit": false,
      "t": 171999.9999999992,
      "d": 750,
      "v": 100
    },
    {
      "midi": 72,
      "hit": false,
      "t": 171999.9999999992,
      "d": 1000,
      "v": 100
    },
    {
      "midi": 54,
      "hit": false,
      "t": 172249.9999999992,
      "d": 225,
      "v": 50
    },
    {
      "midi": 40,
      "hit": false,
      "t": 172499.9999999992,
      "d": 225,
      "v": 80
    },
    {
      "midi": 86,
      "hit": false,
      "t": 172499.9999999992,
      "d": 500,
      "v": 100
    },
    {
      "midi": 54,
      "hit": false,
      "t": 172749.9999999992,
      "d": 225,
      "v": 50
    },
    {
      "midi": 45,
      "hit": false,
      "t": 172749.9999999992,
      "d": 250,
      "v": 100
    },
    {
      "midi": 45,
      "hit": false,
      "t": 172999.9999999992,
      "d": 500,
      "v": 100
    },
    {
      "midi": 88,
      "hit": false,
      "t": 172999.9999999992,
      "d": 500,
      "v": 100
    },
    {
      "midi": 54,
      "hit": false,
      "t": 173249.9999999992,
      "d": 225,
      "v": 50
    },
    {
      "midi": 40,
      "hit": false,
      "t": 173499.9999999992,
      "d": 225,
      "v": 80
    },
    {
      "midi": 84,
      "hit": false,
      "t": 173499.9999999992,
      "d": 500,
      "v": 100
    },
    {
      "midi": 54,
      "hit": false,
      "t": 173749.9999999992,
      "d": 225,
      "v": 50
    },
    {
      "midi": 46,
      "hit": false,
      "t": 173999.9999999992,
      "d": 225,
      "v": 80
    },
    {
      "midi": 74,
      "hit": false,
      "t": 173999.9999999992,
      "d": 250,
      "v": 100
    },
    {
      "midi": 47,
      "hit": false,
      "t": 173999.9999999992,
      "d": 750.0000000000291,
      "v": 100
    },
    {
      "midi": 57,
      "hit": false,
      "t": 173999.9999999992,
      "d": 2000.000000000029,
      "v": 100
    },
    {
      "midi": 62,
      "hit": false,
      "t": 173999.9999999992,
      "d": 2000.000000000029,
      "v": 100
    },
    {
      "midi": 65,
      "hit": false,
      "t": 173999.9999999992,
      "d": 2000.000000000029,
      "v": 100
    },
    {
      "midi": 86,
      "hit": false,
      "t": 173999.9999999992,
      "d": 2000.000000000029,
      "v": 100
    },
    {
      "midi": 42,
      "hit": false,
      "t": 174249.9999999992,
      "d": 75,
      "v": 70
    },
    {
      "midi": 54,
      "hit": false,
      "t": 174249.9999999992,
      "d": 225.0000000000291,
      "v": 50
    },
    {
      "midi": 74,
      "hit": false,
      "t": 174249.9999999992,
      "d": 250.0000000000291,
      "v": 100
    },
    {
      "midi": 42,
      "hit": false,
      "t": 174333.33333333256,
      "d": 75,
      "v": 60
    },
    {
      "midi": 42,
      "hit": false,
      "t": 174416.6666666659,
      "d": 75,
      "v": 60
    },
    {
      "midi": 40,
      "hit": false,
      "t": 174499.99999999924,
      "d": 225,
      "v": 80
    },
    {
      "midi": 74,
      "hit": false,
      "t": 174499.99999999924,
      "d": 250,
      "v": 100
    },
    {
      "midi": 54,
      "hit": false,
      "t": 174749.99999999924,
      "d": 225,
      "v": 50
    },
    {
      "midi": 47,
      "hit": false,
      "t": 174749.99999999924,
      "d": 250,
      "v": 100
    },
    {
      "midi": 74,
      "hit": false,
      "t": 174749.99999999924,
      "d": 250,
      "v": 100
    },
    {
      "midi": 47,
      "hit": false,
      "t": 174999.99999999924,
      "d": 500,
      "v": 100
    },
    {
      "midi": 76,
      "hit": false,
      "t": 174999.99999999924,
      "d": 500,
      "v": 100
    },
    {
      "midi": 54,
      "hit": false,
      "t": 175249.99999999924,
      "d": 225,
      "v": 50
    },
    {
      "midi": 40,
      "hit": false,
      "t": 175499.99999999924,
      "d": 225,
      "v": 80
    },
    {
      "midi": 77,
      "hit": false,
      "t": 175499.99999999924,
      "d": 500,
      "v": 100
    },
    {
      "midi": 54,
      "hit": false,
      "t": 175749.99999999924,
      "d": 225,
      "v": 50
    },
    {
      "midi": 76,
      "hit": false,
      "t": 175999.99999999924,
      "d": 500,
      "v": 100
    },
    {
      "midi": 83,
      "hit": false,
      "t": 175999.99999999924,
      "d": 1000,
      "v": 100
    },
    {
      "midi": 56,
      "hit": false,
      "t": 175999.99999999924,
      "d": 2000,
      "v": 100
    },
    {
      "midi": 62,
      "hit": false,
      "t": 175999.99999999924,
      "d": 2000,
      "v": 100
    },
    {
      "midi": 64,
      "hit": false,
      "t": 175999.99999999924,
      "d": 2000,
      "v": 100
    },
    {
      "midi": 54,
      "hit": false,
      "t": 176249.99999999924,
      "d": 225,
      "v": 50
    },
    {
      "midi": 40,
      "hit": false,
      "t": 176499.99999999924,
      "d": 225,
      "v": 80
    },
    {
      "midi": 74,
      "hit": false,
      "t": 176499.99999999924,
      "d": 500,
      "v": 100
    },
    {
      "midi": 54,
      "hit": false,
      "t": 176749.99999999924,
      "d": 225,
      "v": 50
    },
    {
      "midi": 40,
      "hit": false,
      "t": 176749.99999999924,
      "d": 250,
      "v": 100
    },
    {
      "midi": 40,
      "hit": false,
      "t": 176999.99999999924,
      "d": 500,
      "v": 100
    },
    {
      "midi": 72,
      "hit": false,
      "t": 176999.99999999924,
      "d": 500,
      "v": 100
    },
    {
      "midi": 88,
      "hit": false,
      "t": 176999.99999999924,
      "d": 2000.000000000029,
      "v": 100
    },
    {
      "midi": 54,
      "hit": false,
      "t": 177249.99999999924,
      "d": 225,
      "v": 50
    },
    {
      "midi": 40,
      "hit": false,
      "t": 177499.99999999924,
      "d": 225,
      "v": 80
    },
    {
      "midi": 74,
      "hit": false,
      "t": 177499.99999999924,
      "d": 500,
      "v": 100
    },
    {
      "midi": 54,
      "hit": false,
      "t": 177749.99999999924,
      "d": 225,
      "v": 50
    },
    {
      "midi": 46,
      "hit": false,
      "t": 177999.99999999924,
      "d": 225,
      "v": 80
    },
    {
      "midi": 45,
      "hit": false,
      "t": 177999.99999999924,
      "d": 750.0000000000291,
      "v": 100
    },
    {
      "midi": 72,
      "hit": false,
      "t": 177999.99999999924,
      "d": 1000.0000000000291,
      "v": 100
    },
    {
      "midi": 57,
      "hit": false,
      "t": 177999.99999999924,
      "d": 1000.0000000000291,
      "v": 100
    },
    {
      "midi": 60,
      "hit": false,
      "t": 177999.99999999924,
      "d": 1000.0000000000291,
      "v": 100
    },
    {
      "midi": 64,
      "hit": false,
      "t": 177999.99999999924,
      "d": 1000.0000000000291,
      "v": 100
    },
    {
      "midi": 42,
      "hit": false,
      "t": 178249.99999999924,
      "d": 75,
      "v": 60
    },
    {
      "midi": 54,
      "hit": false,
      "t": 178249.99999999924,
      "d": 225.0000000000291,
      "v": 50
    },
    {
      "midi": 42,
      "hit": false,
      "t": 178333.3333333326,
      "d": 75,
      "v": 70
    },
    {
      "midi": 42,
      "hit": false,
      "t": 178416.66666666593,
      "d": 75,
      "v": 60
    },
    {
      "midi": 40,
      "hit": false,
      "t": 178499.99999999927,
      "d": 225,
      "v": 80
    },
    {
      "midi": 54,
      "hit": false,
      "t": 178749.99999999927,
      "d": 225,
      "v": 50
    },
    {
      "midi": 45,
      "hit": false,
      "t": 178749.99999999927,
      "d": 250,
      "v": 100
    },
    {
      "midi": 47,
      "hit": false,
      "t": 178999.99999999927,
      "d": 750,
      "v": 100
    },
    {
      "midi": 74,
      "hit": false,
      "t": 178999.99999999927,
      "d": 1000,
      "v": 100
    },
    {
      "midi": 55,
      "hit": false,
      "t": 178999.99999999927,
      "d": 1000,
      "v": 100
    },
    {
      "midi": 59,
      "hit": false,
      "t": 178999.99999999927,
      "d": 1000,
      "v": 100
    },
    {
      "midi": 62,
      "hit": false,
      "t": 178999.99999999927,
      "d": 1000,
      "v": 100
    },
    {
      "midi": 86,
      "hit": false,
      "t": 178999.99999999927,
      "d": 1000,
      "v": 100
    },
    {
      "midi": 54,
      "hit": false,
      "t": 179249.99999999927,
      "d": 225,
      "v": 50
    },
    {
      "midi": 40,
      "hit": false,
      "t": 179499.99999999927,
      "d": 225,
      "v": 80
    },
    {
      "midi": 54,
      "hit": false,
      "t": 179749.99999999927,
      "d": 225,
      "v": 50
    },
    {
      "midi": 47,
      "hit": false,
      "t": 179749.99999999927,
      "d": 250,
      "v": 100
    },
    {
      "midi": 37,
      "hit": false,
      "t": 179999.99999999927,
      "d": 750,
      "v": 100
    },
    {
      "midi": 85,
      "hit": false,
      "t": 179999.99999999927,
      "d": 1000,
      "v": 100
    },
    {
      "midi": 76,
      "hit": false,
      "t": 179999.99999999927,
      "d": 1500,
      "v": 100
    },
    {
      "midi": 57,
      "hit": false,
      "t": 179999.99999999927,
      "d": 2000,
      "v": 100
    },
    {
      "midi": 64,
      "hit": false,
      "t": 179999.99999999927,
      "d": 2000,
      "v": 100
    },
    {
      "midi": 61,
      "hit": false,
      "t": 179999.99999999927,
      "d": 2000,
      "v": 100
    },
    {
      "midi": 54,
      "hit": false,
      "t": 180249.99999999927,
      "d": 225,
      "v": 50
    },
    {
      "midi": 40,
      "hit": false,
      "t": 180499.99999999927,
      "d": 225,
      "v": 80
    },
    {
      "midi": 54,
      "hit": false,
      "t": 180749.99999999927,
      "d": 225,
      "v": 50
    },
    {
      "midi": 37,
      "hit": false,
      "t": 180749.99999999927,
      "d": 250,
      "v": 100
    },
    {
      "midi": 45,
      "hit": false,
      "t": 180999.99999999927,
      "d": 500,
      "v": 100
    },
    {
      "midi": 88,
      "hit": false,
      "t": 180999.99999999927,
      "d": 1000,
      "v": 100
    },
    {
      "midi": 54,
      "hit": false,
      "t": 181249.99999999927,
      "d": 225,
      "v": 50
    },
    {
      "midi": 40,
      "hit": false,
      "t": 181499.99999999927,
      "d": 225,
      "v": 80
    },
    {
      "midi": 45,
      "hit": false,
      "t": 181499.99999999927,
      "d": 500,
      "v": 100
    },
    {
      "midi": 54,
      "hit": false,
      "t": 181749.99999999927,
      "d": 225,
      "v": 50
    },
    {
      "midi": 40,
      "hit": false,
      "t": 181749.99999999927,
      "d": 225,
      "v": 80
    },
    {
      "midi": 46,
      "hit": false,
      "t": 181999.99999999927,
      "d": 225,
      "v": 80
    },
    {
      "midi": 81,
      "hit": false,
      "t": 181999.99999999927,
      "d": 250,
      "v": 100
    },
    {
      "midi": 38,
      "hit": false,
      "t": 181999.99999999927,
      "d": 750.0000000000291,
      "v": 100
    },
    {
      "midi": 93,
      "hit": false,
      "t": 181999.99999999927,
      "d": 3000.000000000029,
      "v": 100
    },
    {
      "midi": 57,
      "hit": false,
      "t": 181999.99999999927,
      "d": 4000.000000000029,
      "v": 100
    },
    {
      "midi": 62,
      "hit": false,
      "t": 181999.99999999927,
      "d": 4000.000000000029,
      "v": 100
    },
    {
      "midi": 65,
      "hit": false,
      "t": 181999.99999999927,
      "d": 4000.000000000029,
      "v": 100
    },
    {
      "midi": 42,
      "hit": false,
      "t": 182249.99999999927,
      "d": 75,
      "v": 70
    },
    {
      "midi": 54,
      "hit": false,
      "t": 182249.99999999927,
      "d": 225.0000000000291,
      "v": 50
    },
    {
      "midi": 81,
      "hit": false,
      "t": 182249.99999999927,
      "d": 250.0000000000291,
      "v": 100
    },
    {
      "midi": 42,
      "hit": false,
      "t": 182333.33333333262,
      "d": 75,
      "v": 60
    },
    {
      "midi": 42,
      "hit": false,
      "t": 182416.66666666596,
      "d": 75,
      "v": 60
    },
    {
      "midi": 40,
      "hit": false,
      "t": 182499.9999999993,
      "d": 225,
      "v": 80
    },
    {
      "midi": 81,
      "hit": false,
      "t": 182499.9999999993,
      "d": 250,
      "v": 100
    },
    {
      "midi": 54,
      "hit": false,
      "t": 182749.9999999993,
      "d": 225,
      "v": 50
    },
    {
      "midi": 38,
      "hit": false,
      "t": 182749.9999999993,
      "d": 250,
      "v": 100
    },
    {
      "midi": 81,
      "hit": false,
      "t": 182749.9999999993,
      "d": 250,
      "v": 100
    },
    {
      "midi": 38,
      "hit": false,
      "t": 182999.9999999993,
      "d": 500,
      "v": 100
    },
    {
      "midi": 81,
      "hit": false,
      "t": 182999.9999999993,
      "d": 500,
      "v": 100
    },
    {
      "midi": 54,
      "hit": false,
      "t": 183249.9999999993,
      "d": 225,
      "v": 50
    },
    {
      "midi": 40,
      "hit": false,
      "t": 183499.9999999993,
      "d": 225,
      "v": 80
    },
    {
      "midi": 81,
      "hit": false,
      "t": 183499.9999999993,
      "d": 500,
      "v": 100
    },
    {
      "midi": 54,
      "hit": false,
      "t": 183749.9999999993,
      "d": 225,
      "v": 50
    },
    {
      "midi": 83,
      "hit": false,
      "t": 183999.9999999993,
      "d": 500,
      "v": 100
    },
    {
      "midi": 38,
      "hit": false,
      "t": 183999.9999999993,
      "d": 750,
      "v": 100
    },
    {
      "midi": 54,
      "hit": false,
      "t": 184249.9999999993,
      "d": 225,
      "v": 50
    },
    {
      "midi": 40,
      "hit": false,
      "t": 184499.9999999993,
      "d": 225,
      "v": 80
    },
    {
      "midi": 83,
      "hit": false,
      "t": 184499.9999999993,
      "d": 250,
      "v": 100
    },
    {
      "midi": 54,
      "hit": false,
      "t": 184749.9999999993,
      "d": 225,
      "v": 50
    },
    {
      "midi": 38,
      "hit": false,
      "t": 184749.9999999993,
      "d": 250,
      "v": 100
    },
    {
      "midi": 81,
      "hit": false,
      "t": 184749.9999999993,
      "d": 750,
      "v": 100
    },
    {
      "midi": 38,
      "hit": false,
      "t": 184999.9999999993,
      "d": 500,
      "v": 100
    },
    {
      "midi": 95,
      "hit": false,
      "t": 184999.9999999993,
      "d": 500,
      "v": 100
    },
    {
      "midi": 54,
      "hit": false,
      "t": 185249.9999999993,
      "d": 225,
      "v": 50
    },
    {
      "midi": 40,
      "hit": false,
      "t": 185499.9999999993,
      "d": 225,
      "v": 80
    },
    {
      "midi": 93,
      "hit": false,
      "t": 185499.9999999993,
      "d": 3000.000000000029,
      "v": 100
    },
    {
      "midi": 54,
      "hit": false,
      "t": 185749.9999999993,
      "d": 225,
      "v": 50
    },
    {
      "midi": 46,
      "hit": false,
      "t": 185999.9999999993,
      "d": 225,
      "v": 80
    },
    {
      "midi": 81,
      "hit": false,
      "t": 185999.9999999993,
      "d": 250,
      "v": 100
    },
    {
      "midi": 45,
      "hit": false,
      "t": 185999.9999999993,
      "d": 750.0000000000291,
      "v": 100
    },
    {
      "midi": 57,
      "hit": false,
      "t": 185999.9999999993,
      "d": 4000.000000000029,
      "v": 100
    },
    {
      "midi": 60,
      "hit": false,
      "t": 185999.9999999993,
      "d": 4000.000000000029,
      "v": 100
    },
    {
      "midi": 64,
      "hit": false,
      "t": 185999.9999999993,
      "d": 4000.000000000029,
      "v": 100
    },
    {
      "midi": 42,
      "hit": false,
      "t": 186249.9999999993,
      "d": 75,
      "v": 70
    },
    {
      "midi": 54,
      "hit": false,
      "t": 186249.9999999993,
      "d": 225.0000000000291,
      "v": 50
    },
    {
      "midi": 81,
      "hit": false,
      "t": 186249.9999999993,
      "d": 250.0000000000291,
      "v": 100
    },
    {
      "midi": 42,
      "hit": false,
      "t": 186333.33333333264,
      "d": 75,
      "v": 60
    },
    {
      "midi": 42,
      "hit": false,
      "t": 186416.666666666,
      "d": 75,
      "v": 60
    },
    {
      "midi": 40,
      "hit": false,
      "t": 186499.99999999933,
      "d": 225,
      "v": 80
    },
    {
      "midi": 81,
      "hit": false,
      "t": 186499.99999999933,
      "d": 250,
      "v": 100
    },
    {
      "midi": 54,
      "hit": false,
      "t": 186749.99999999933,
      "d": 225,
      "v": 50
    },
    {
      "midi": 45,
      "hit": false,
      "t": 186749.99999999933,
      "d": 250,
      "v": 100
    },
    {
      "midi": 81,
      "hit": false,
      "t": 186749.99999999933,
      "d": 250,
      "v": 100
    },
    {
      "midi": 45,
      "hit": false,
      "t": 186999.99999999933,
      "d": 500,
      "v": 100
    },
    {
      "midi": 76,
      "hit": false,
      "t": 186999.99999999933,
      "d": 500,
      "v": 100
    },
    {
      "midi": 54,
      "hit": false,
      "t": 187249.99999999933,
      "d": 225,
      "v": 50
    },
    {
      "midi": 40,
      "hit": false,
      "t": 187499.99999999933,
      "d": 225,
      "v": 80
    },
    {
      "midi": 74,
      "hit": false,
      "t": 187499.99999999933,
      "d": 500,
      "v": 100
    },
    {
      "midi": 54,
      "hit": false,
      "t": 187749.99999999933,
      "d": 225,
      "v": 50
    },
    {
      "midi": 45,
      "hit": false,
      "t": 187999.99999999933,
      "d": 750,
      "v": 100
    },
    {
      "midi": 72,
      "hit": false,
      "t": 187999.99999999933,
      "d": 1000,
      "v": 100
    },
    {
      "midi": 54,
      "hit": false,
      "t": 188249.99999999933,
      "d": 225,
      "v": 50
    },
    {
      "midi": 40,
      "hit": false,
      "t": 188499.99999999933,
      "d": 225,
      "v": 80
    },
    {
      "midi": 93,
      "hit": false,
      "t": 188499.99999999933,
      "d": 500,
      "v": 100
    },
    {
      "midi": 54,
      "hit": false,
      "t": 188749.99999999933,
      "d": 225,
      "v": 50
    },
    {
      "midi": 45,
      "hit": false,
      "t": 188749.99999999933,
      "d": 250,
      "v": 100
    },
    {
      "midi": 45,
      "hit": false,
      "t": 188999.99999999933,
      "d": 500,
      "v": 100
    },
    {
      "midi": 88,
      "hit": false,
      "t": 188999.99999999933,
      "d": 500,
      "v": 100
    },
    {
      "midi": 54,
      "hit": false,
      "t": 189249.99999999933,
      "d": 225,
      "v": 50
    },
    {
      "midi": 40,
      "hit": false,
      "t": 189499.99999999933,
      "d": 225,
      "v": 80
    },
    {
      "midi": 84,
      "hit": false,
      "t": 189499.99999999933,
      "d": 500,
      "v": 100
    },
    {
      "midi": 54,
      "hit": false,
      "t": 189749.99999999933,
      "d": 225,
      "v": 50
    },
    {
      "midi": 46,
      "hit": false,
      "t": 189999.99999999933,
      "d": 225,
      "v": 80
    },
    {
      "midi": 47,
      "hit": false,
      "t": 189999.99999999933,
      "d": 750.0000000000291,
      "v": 100
    },
    {
      "midi": 74,
      "hit": false,
      "t": 189999.99999999933,
      "d": 750.0000000000291,
      "v": 100
    },
    {
      "midi": 57,
      "hit": false,
      "t": 189999.99999999933,
      "d": 2000.000000000029,
      "v": 100
    },
    {
      "midi": 62,
      "hit": false,
      "t": 189999.99999999933,
      "d": 2000.000000000029,
      "v": 100
    },
    {
      "midi": 65,
      "hit": false,
      "t": 189999.99999999933,
      "d": 2000.000000000029,
      "v": 100
    },
    {
      "midi": 86,
      "hit": false,
      "t": 189999.99999999933,
      "d": 2001.041666666686,
      "v": 100
    },
    {
      "midi": 42,
      "hit": false,
      "t": 190249.99999999933,
      "d": 75,
      "v": 70
    },
    {
      "midi": 54,
      "hit": false,
      "t": 190249.99999999933,
      "d": 225.0000000000291,
      "v": 50
    },
    {
      "midi": 42,
      "hit": false,
      "t": 190333.33333333267,
      "d": 75,
      "v": 60
    },
    {
      "midi": 42,
      "hit": false,
      "t": 190416.66666666602,
      "d": 75,
      "v": 60
    },
    {
      "midi": 40,
      "hit": false,
      "t": 190499.99999999936,
      "d": 225,
      "v": 80
    },
    {
      "midi": 54,
      "hit": false,
      "t": 190749.99999999936,
      "d": 225,
      "v": 50
    },
    {
      "midi": 47,
      "hit": false,
      "t": 190749.99999999936,
      "d": 250,
      "v": 100
    },
    {
      "midi": 76,
      "hit": false,
      "t": 190749.99999999936,
      "d": 750,
      "v": 100
    },
    {
      "midi": 47,
      "hit": false,
      "t": 190999.99999999936,
      "d": 500,
      "v": 100
    },
    {
      "midi": 54,
      "hit": false,
      "t": 191249.99999999936,
      "d": 225,
      "v": 50
    },
    {
      "midi": 40,
      "hit": false,
      "t": 191499.99999999936,
      "d": 225,
      "v": 80
    },
    {
      "midi": 77,
      "hit": false,
      "t": 191499.99999999936,
      "d": 500,
      "v": 100
    },
    {
      "midi": 54,
      "hit": false,
      "t": 191749.99999999936,
      "d": 225,
      "v": 50
    },
    {
      "midi": 40,
      "hit": false,
      "t": 191999.99999999936,
      "d": 225,
      "v": 80
    },
    {
      "midi": 42,
      "hit": false,
      "t": 191999.99999999936,
      "d": 225,
      "v": 70
    },
    {
      "midi": 36,
      "hit": false,
      "t": 191999.99999999936,
      "d": 225,
      "v": 70
    },
    {
      "midi": 76,
      "hit": false,
      "t": 191999.99999999936,
      "d": 500,
      "v": 100
    },
    {
      "midi": 55,
      "hit": false,
      "t": 191999.99999999936,
      "d": 2000.0000000001164,
      "v": 100
    },
    {
      "midi": 59,
      "hit": false,
      "t": 191999.99999999936,
      "d": 2000.0000000001164,
      "v": 100
    },
    {
      "midi": 64,
      "hit": false,
      "t": 191999.99999999936,
      "d": 2000.0000000001164,
      "v": 100
    },
    {
      "midi": 54,
      "hit": false,
      "t": 192499.99999999936,
      "d": 75,
      "v": 80
    },
    {
      "midi": 40,
      "hit": false,
      "t": 192499.99999999936,
      "d": 225.0000000000291,
      "v": 80
    },
    {
      "midi": 42,
      "hit": false,
      "t": 192499.99999999936,
      "d": 225.0000000000291,
      "v": 70
    },
    {
      "midi": 36,
      "hit": false,
      "t": 192499.99999999936,
      "d": 225.0000000000291,
      "v": 70
    },
    {
      "midi": 54,
      "hit": false,
      "t": 192583.3333333327,
      "d": 75,
      "v": 80
    },
    {
      "midi": 54,
      "hit": false,
      "t": 192666.66666666605,
      "d": 75,
      "v": 80
    },
    {
      "midi": 54,
      "hit": false,
      "t": 192749.9999999994,
      "d": 75,
      "v": 80
    },
    {
      "midi": 54,
      "hit": false,
      "t": 192833.33333333273,
      "d": 75,
      "v": 80
    },
    {
      "midi": 54,
      "hit": false,
      "t": 192916.66666666607,
      "d": 75,
      "v": 80
    },
    {
      "midi": 54,
      "hit": false,
      "t": 192999.99999999942,
      "d": 75,
      "v": 80
    },
    {
      "midi": 79,
      "hit": false,
      "t": 192999.99999999942,
      "d": 500.0000000000582,
      "v": 100
    },
    {
      "midi": 54,
      "hit": false,
      "t": 193083.33333333276,
      "d": 75,
      "v": 80
    },
    {
      "midi": 54,
      "hit": false,
      "t": 193166.6666666661,
      "d": 75,
      "v": 80
    },
    {
      "midi": 54,
      "hit": false,
      "t": 193249.99999999945,
      "d": 75,
      "v": 80
    },
    {
      "midi": 54,
      "hit": false,
      "t": 193333.3333333328,
      "d": 75,
      "v": 80
    },
    {
      "midi": 54,
      "hit": false,
      "t": 193416.66666666613,
      "d": 75,
      "v": 80
    },
    {
      "midi": 54,
      "hit": false,
      "t": 193499.99999999948,
      "d": 75,
      "v": 80
    },
    {
      "midi": 40,
      "hit": false,
      "t": 193499.99999999948,
      "d": 500,
      "v": 100
    },
    {
      "midi": 76,
      "hit": false,
      "t": 193499.99999999948,
      "d": 500,
      "v": 100
    },
    {
      "midi": 54,
      "hit": false,
      "t": 193583.33333333282,
      "d": 75,
      "v": 80
    },
    {
      "midi": 54,
      "hit": false,
      "t": 193666.66666666616,
      "d": 75,
      "v": 80
    },
    {
      "midi": 42,
      "hit": false,
      "t": 193999.99999999948,
      "d": 225,
      "v": 70
    },
    {
      "midi": 41,
      "hit": false,
      "t": 193999.99999999948,
      "d": 750,
      "v": 100
    },
    {
      "midi": 81,
      "hit": false,
      "t": 193999.99999999948,
      "d": 2000,
      "v": 100
    },
    {
      "midi": 53,
      "hit": false,
      "t": 193999.99999999948,
      "d": 2000,
      "v": 100
    },
    {
      "midi": 57,
      "hit": false,
      "t": 193999.99999999948,
      "d": 2000,
      "v": 100
    },
    {
      "midi": 60,
      "hit": false,
      "t": 193999.99999999948,
      "d": 2000,
      "v": 100
    },
    {
      "midi": 77,
      "hit": false,
      "t": 193999.99999999948,
      "d": 2000,
      "v": 100
    },
    {
      "midi": 42,
      "hit": false,
      "t": 194499.99999999948,
      "d": 225,
      "v": 70
    },
    {
      "midi": 41,
      "hit": false,
      "t": 194749.99999999948,
      "d": 250,
      "v": 100
    },
    {
      "midi": 42,
      "hit": false,
      "t": 194999.99999999948,
      "d": 225,
      "v": 70
    },
    {
      "midi": 41,
      "hit": false,
      "t": 194999.99999999948,
      "d": 500,
      "v": 100
    },
    {
      "midi": 42,
      "hit": false,
      "t": 195499.99999999948,
      "d": 225,
      "v": 70
    },
    {
      "midi": 54,
      "hit": false,
      "t": 195499.99999999948,
      "d": 225,
      "v": 70
    },
    {
      "midi": 40,
      "hit": false,
      "t": 195499.99999999948,
      "d": 225,
      "v": 70
    },
    {
      "midi": 42,
      "hit": false,
      "t": 195999.99999999948,
      "d": 225,
      "v": 70
    },
    {
      "midi": 43,
      "hit": false,
      "t": 195999.99999999948,
      "d": 750,
      "v": 100
    },
    {
      "midi": 55,
      "hit": false,
      "t": 195999.99999999948,
      "d": 2000,
      "v": 100
    },
    {
      "midi": 59,
      "hit": false,
      "t": 195999.99999999948,
      "d": 2000,
      "v": 100
    },
    {
      "midi": 62,
      "hit": false,
      "t": 195999.99999999948,
      "d": 2000,
      "v": 100
    },
    {
      "midi": 42,
      "hit": false,
      "t": 196499.99999999948,
      "d": 225,
      "v": 70
    },
    {
      "midi": 81,
      "hit": false,
      "t": 196499.99999999948,
      "d": 500,
      "v": 100
    },
    {
      "midi": 43,
      "hit": false,
      "t": 196749.99999999948,
      "d": 250,
      "v": 100
    },
    {
      "midi": 42,
      "hit": false,
      "t": 196999.99999999948,
      "d": 225,
      "v": 70
    },
    {
      "midi": 43,
      "hit": false,
      "t": 196999.99999999948,
      "d": 500,
      "v": 100
    },
    {
      "midi": 79,
      "hit": false,
      "t": 196999.99999999948,
      "d": 500,
      "v": 100
    },
    {
      "midi": 40,
      "hit": false,
      "t": 197249.99999999948,
      "d": 225,
      "v": 70
    },
    {
      "midi": 54,
      "hit": false,
      "t": 197249.99999999948,
      "d": 225,
      "v": 60
    },
    {
      "midi": 42,
      "hit": false,
      "t": 197499.99999999948,
      "d": 225,
      "v": 70
    },
    {
      "midi": 40,
      "hit": false,
      "t": 197499.99999999948,
      "d": 225,
      "v": 70
    },
    {
      "midi": 54,
      "hit": false,
      "t": 197499.99999999948,
      "d": 225,
      "v": 60
    },
    {
      "midi": 76,
      "hit": false,
      "t": 197499.99999999948,
      "d": 250,
      "v": 100
    },
    {
      "midi": 40,
      "hit": false,
      "t": 197749.99999999948,
      "d": 225,
      "v": 60
    },
    {
      "midi": 54,
      "hit": false,
      "t": 197749.99999999948,
      "d": 225,
      "v": 60
    },
    {
      "midi": 81,
      "hit": false,
      "t": 197749.99999999948,
      "d": 3100,
      "v": 100
    },
    {
      "midi": 42,
      "hit": false,
      "t": 197999.99999999948,
      "d": 225,
      "v": 70
    },
    {
      "midi": 45,
      "hit": false,
      "t": 197999.99999999948,
      "d": 675,
      "v": 100
    },
    {
      "midi": 57,
      "hit": false,
      "t": 197999.99999999948,
      "d": 2000,
      "v": 100
    },
    {
      "midi": 60,
      "hit": false,
      "t": 197999.99999999948,
      "d": 2000,
      "v": 100
    },
    {
      "midi": 64,
      "hit": false,
      "t": 197999.99999999948,
      "d": 2000,
      "v": 100
    },
    {
      "midi": 42,
      "hit": false,
      "t": 198499.99999999948,
      "d": 225,
      "v": 70
    },
    {
      "midi": 45,
      "hit": false,
      "t": 198749.99999999948,
      "d": 225,
      "v": 100
    },
    {
      "midi": 42,
      "hit": false,
      "t": 198999.99999999948,
      "d": 225,
      "v": 70
    },
    {
      "midi": 45,
      "hit": false,
      "t": 198999.99999999948,
      "d": 450,
      "v": 100
    },
    {
      "midi": 42,
      "hit": false,
      "t": 199499.99999999948,
      "d": 225,
      "v": 70
    },
    {
      "midi": 54,
      "hit": false,
      "t": 199499.99999999948,
      "d": 225,
      "v": 70
    },
    {
      "midi": 40,
      "hit": false,
      "t": 199499.99999999948,
      "d": 225,
      "v": 70
    },
    {
      "midi": 42,
      "hit": false,
      "t": 199999.99999999948,
      "d": 225,
      "v": 70
    },
    {
      "midi": 49,
      "hit": false,
      "t": 199999.99999999948,
      "d": 450,
      "v": 100
    },
    {
      "midi": 45,
      "hit": false,
      "t": 199999.99999999948,
      "d": 675,
      "v": 100
    },
    {
      "midi": 57,
      "hit": false,
      "t": 199999.99999999948,
      "d": 1999.999999999971,
      "v": 100
    },
    {
      "midi": 64,
      "hit": false,
      "t": 199999.99999999948,
      "d": 1999.999999999971,
      "v": 100
    },
    {
      "midi": 61,
      "hit": false,
      "t": 199999.99999999948,
      "d": 1999.999999999971,
      "v": 100
    },
    {
      "midi": 42,
      "hit": false,
      "t": 200499.99999999948,
      "d": 225,
      "v": 70
    },
    {
      "midi": 50,
      "hit": false,
      "t": 200499.99999999948,
      "d": 450,
      "v": 100
    },
    {
      "midi": 45,
      "hit": false,
      "t": 200749.99999999948,
      "d": 225,
      "v": 100
    },
    {
      "midi": 42,
      "hit": false,
      "t": 200999.99999999948,
      "d": 224.9999999999709,
      "v": 70
    },
    {
      "midi": 45,
      "hit": false,
      "t": 200999.99999999948,
      "d": 449.9999999999709,
      "v": 100
    },
    {
      "midi": 52,
      "hit": false,
      "t": 200999.99999999948,
      "d": 449.9999999999709,
      "v": 100
    },
    {
      "midi": 42,
      "hit": false,
      "t": 201499.99999999945,
      "d": 225,
      "v": 70
    },
    {
      "midi": 54,
      "hit": false,
      "t": 201499.99999999945,
      "d": 225,
      "v": 70
    },
    {
      "midi": 40,
      "hit": false,
      "t": 201499.99999999945,
      "d": 225,
      "v": 70
    },
    {
      "midi": 55,
      "hit": false,
      "t": 201499.99999999945,
      "d": 450,
      "v": 100
    },
    {
      "midi": 81,
      "hit": false,
      "t": 201999.99999999945,
      "d": 224.9999999999709,
      "v": 100
    },
    {
      "midi": 46,
      "hit": false,
      "t": 201999.99999999945,
      "d": 224.9999999999709,
      "v": 80
    },
    {
      "midi": 38,
      "hit": false,
      "t": 201999.99999999945,
      "d": 750,
      "v": 100
    },
    {
      "midi": 57,
      "hit": false,
      "t": 201999.99999999945,
      "d": 4000,
      "v": 100
    },
    {
      "midi": 62,
      "hit": false,
      "t": 201999.99999999945,
      "d": 4000,
      "v": 100
    },
    {
      "midi": 65,
      "hit": false,
      "t": 201999.99999999945,
      "d": 4000,
      "v": 100
    },
    {
      "midi": 42,
      "hit": false,
      "t": 202249.99999999942,
      "d": 75,
      "v": 80
    },
    {
      "midi": 81,
      "hit": false,
      "t": 202249.99999999942,
      "d": 225,
      "v": 100
    },
    {
      "midi": 54,
      "hit": false,
      "t": 202249.99999999942,
      "d": 225,
      "v": 50
    },
    {
      "midi": 42,
      "hit": false,
      "t": 202333.33333333276,
      "d": 75,
      "v": 70
    },
    {
      "midi": 42,
      "hit": false,
      "t": 202416.6666666661,
      "d": 75,
      "v": 60
    },
    {
      "midi": 81,
      "hit": false,
      "t": 202499.99999999945,
      "d": 225,
      "v": 100
    },
    {
      "midi": 40,
      "hit": false,
      "t": 202499.99999999945,
      "d": 225,
      "v": 80
    },
    {
      "midi": 81,
      "hit": false,
      "t": 202749.99999999945,
      "d": 225,
      "v": 100
    },
    {
      "midi": 54,
      "hit": false,
      "t": 202749.99999999945,
      "d": 225,
      "v": 50
    },
    {
      "midi": 38,
      "hit": false,
      "t": 202749.99999999945,
      "d": 250,
      "v": 100
    },
    {
      "midi": 81,
      "hit": false,
      "t": 202999.99999999945,
      "d": 450,
      "v": 100
    },
    {
      "midi": 38,
      "hit": false,
      "t": 202999.99999999945,
      "d": 500,
      "v": 100
    },
    {
      "midi": 54,
      "hit": false,
      "t": 203249.99999999945,
      "d": 225,
      "v": 50
    },
    {
      "midi": 40,
      "hit": false,
      "t": 203499.99999999945,
      "d": 225,
      "v": 80
    },
    {
      "midi": 81,
      "hit": false,
      "t": 203499.99999999945,
      "d": 450,
      "v": 100
    },
    {
      "midi": 54,
      "hit": false,
      "t": 203749.99999999945,
      "d": 225,
      "v": 50
    },
    {
      "midi": 83,
      "hit": false,
      "t": 203999.99999999945,
      "d": 675,
      "v": 100
    },
    {
      "midi": 38,
      "hit": false,
      "t": 203999.99999999945,
      "d": 750,
      "v": 100
    },
    {
      "midi": 54,
      "hit": false,
      "t": 204249.99999999945,
      "d": 225,
      "v": 50
    },
    {
      "midi": 40,
      "hit": false,
      "t": 204499.99999999945,
      "d": 225,
      "v": 80
    },
    {
      "midi": 54,
      "hit": false,
      "t": 204749.99999999945,
      "d": 225,
      "v": 50
    },
    {
      "midi": 81,
      "hit": false,
      "t": 204749.99999999945,
      "d": 250,
      "v": 100
    },
    {
      "midi": 38,
      "hit": false,
      "t": 204749.99999999945,
      "d": 250,
      "v": 100
    },
    {
      "midi": 38,
      "hit": false,
      "t": 204999.99999999945,
      "d": 500,
      "v": 100
    },
    {
      "midi": 84,
      "hit": false,
      "t": 204999.99999999945,
      "d": 500,
      "v": 100
    },
    {
      "midi": 54,
      "hit": false,
      "t": 205249.99999999945,
      "d": 225,
      "v": 50
    },
    {
      "midi": 40,
      "hit": false,
      "t": 205499.99999999945,
      "d": 225,
      "v": 80
    },
    {
      "midi": 86,
      "hit": false,
      "t": 205499.99999999945,
      "d": 500,
      "v": 100
    },
    {
      "midi": 54,
      "hit": false,
      "t": 205749.99999999945,
      "d": 225,
      "v": 50
    },
    {
      "midi": 46,
      "hit": false,
      "t": 205999.99999999945,
      "d": 75,
      "v": 80
    },
    {
      "midi": 81,
      "hit": false,
      "t": 205999.99999999945,
      "d": 250,
      "v": 100
    },
    {
      "midi": 45,
      "hit": false,
      "t": 205999.99999999945,
      "d": 750.0000000000291,
      "v": 100
    },
    {
      "midi": 88,
      "hit": false,
      "t": 205999.99999999945,
      "d": 2500.000000000029,
      "v": 100
    },
    {
      "midi": 57,
      "hit": false,
      "t": 205999.99999999945,
      "d": 4000.000000000029,
      "v": 100
    },
    {
      "midi": 60,
      "hit": false,
      "t": 205999.99999999945,
      "d": 4000.000000000029,
      "v": 100
    },
    {
      "midi": 64,
      "hit": false,
      "t": 205999.99999999945,
      "d": 4000.000000000029,
      "v": 100
    },
    {
      "midi": 42,
      "hit": false,
      "t": 206249.99999999945,
      "d": 75,
      "v": 70
    },
    {
      "midi": 54,
      "hit": false,
      "t": 206249.99999999945,
      "d": 225.0000000000291,
      "v": 50
    },
    {
      "midi": 81,
      "hit": false,
      "t": 206249.99999999945,
      "d": 250.0000000000291,
      "v": 100
    },
    {
      "midi": 42,
      "hit": false,
      "t": 206333.3333333328,
      "d": 75,
      "v": 60
    },
    {
      "midi": 42,
      "hit": false,
      "t": 206416.66666666613,
      "d": 75,
      "v": 80
    },
    {
      "midi": 40,
      "hit": false,
      "t": 206499.99999999948,
      "d": 225,
      "v": 80
    },
    {
      "midi": 81,
      "hit": false,
      "t": 206499.99999999948,
      "d": 250,
      "v": 100
    },
    {
      "midi": 54,
      "hit": false,
      "t": 206749.99999999948,
      "d": 225,
      "v": 50
    },
    {
      "midi": 45,
      "hit": false,
      "t": 206749.99999999948,
      "d": 250,
      "v": 100
    },
    {
      "midi": 81,
      "hit": false,
      "t": 206749.99999999948,
      "d": 250,
      "v": 100
    },
    {
      "midi": 45,
      "hit": false,
      "t": 206999.99999999948,
      "d": 500,
      "v": 100
    },
    {
      "midi": 76,
      "hit": false,
      "t": 206999.99999999948,
      "d": 500,
      "v": 100
    },
    {
      "midi": 54,
      "hit": false,
      "t": 207249.99999999948,
      "d": 225,
      "v": 50
    },
    {
      "midi": 40,
      "hit": false,
      "t": 207499.99999999948,
      "d": 225,
      "v": 80
    },
    {
      "midi": 74,
      "hit": false,
      "t": 207499.99999999948,
      "d": 500,
      "v": 100
    },
    {
      "midi": 54,
      "hit": false,
      "t": 207749.99999999948,
      "d": 225,
      "v": 50
    },
    {
      "midi": 45,
      "hit": false,
      "t": 207999.99999999948,
      "d": 750,
      "v": 100
    },
    {
      "midi": 72,
      "hit": false,
      "t": 207999.99999999948,
      "d": 1000,
      "v": 100
    },
    {
      "midi": 54,
      "hit": false,
      "t": 208249.99999999948,
      "d": 225,
      "v": 50
    },
    {
      "midi": 40,
      "hit": false,
      "t": 208499.99999999948,
      "d": 225,
      "v": 80
    },
    {
      "midi": 86,
      "hit": false,
      "t": 208499.99999999948,
      "d": 500,
      "v": 100
    },
    {
      "midi": 54,
      "hit": false,
      "t": 208749.99999999948,
      "d": 225,
      "v": 50
    },
    {
      "midi": 45,
      "hit": false,
      "t": 208749.99999999948,
      "d": 250,
      "v": 100
    },
    {
      "midi": 45,
      "hit": false,
      "t": 208999.99999999948,
      "d": 500,
      "v": 100
    },
    {
      "midi": 88,
      "hit": false,
      "t": 208999.99999999948,
      "d": 500,
      "v": 100
    },
    {
      "midi": 54,
      "hit": false,
      "t": 209249.99999999948,
      "d": 225,
      "v": 50
    },
    {
      "midi": 40,
      "hit": false,
      "t": 209499.99999999948,
      "d": 225,
      "v": 80
    },
    {
      "midi": 84,
      "hit": false,
      "t": 209499.99999999948,
      "d": 500,
      "v": 100
    },
    {
      "midi": 54,
      "hit": false,
      "t": 209749.99999999948,
      "d": 225,
      "v": 50
    },
    {
      "midi": 46,
      "hit": false,
      "t": 209999.99999999948,
      "d": 225,
      "v": 80
    },
    {
      "midi": 74,
      "hit": false,
      "t": 209999.99999999948,
      "d": 250,
      "v": 100
    },
    {
      "midi": 47,
      "hit": false,
      "t": 209999.99999999948,
      "d": 750.0000000000291,
      "v": 100
    },
    {
      "midi": 57,
      "hit": false,
      "t": 209999.99999999948,
      "d": 2000.000000000029,
      "v": 100
    },
    {
      "midi": 62,
      "hit": false,
      "t": 209999.99999999948,
      "d": 2000.000000000029,
      "v": 100
    },
    {
      "midi": 65,
      "hit": false,
      "t": 209999.99999999948,
      "d": 2000.000000000029,
      "v": 100
    },
    {
      "midi": 86,
      "hit": false,
      "t": 209999.99999999948,
      "d": 2000.000000000029,
      "v": 100
    },
    {
      "midi": 42,
      "hit": false,
      "t": 210249.99999999948,
      "d": 75,
      "v": 70
    },
    {
      "midi": 54,
      "hit": false,
      "t": 210249.99999999948,
      "d": 225.0000000000291,
      "v": 50
    },
    {
      "midi": 74,
      "hit": false,
      "t": 210249.99999999948,
      "d": 250.0000000000291,
      "v": 100
    },
    {
      "midi": 42,
      "hit": false,
      "t": 210333.33333333282,
      "d": 75,
      "v": 60
    },
    {
      "midi": 42,
      "hit": false,
      "t": 210416.66666666616,
      "d": 75,
      "v": 60
    },
    {
      "midi": 40,
      "hit": false,
      "t": 210499.9999999995,
      "d": 225,
      "v": 80
    },
    {
      "midi": 74,
      "hit": false,
      "t": 210499.9999999995,
      "d": 250,
      "v": 100
    },
    {
      "midi": 54,
      "hit": false,
      "t": 210749.9999999995,
      "d": 225,
      "v": 50
    },
    {
      "midi": 47,
      "hit": false,
      "t": 210749.9999999995,
      "d": 250,
      "v": 100
    },
    {
      "midi": 74,
      "hit": false,
      "t": 210749.9999999995,
      "d": 250,
      "v": 100
    },
    {
      "midi": 47,
      "hit": false,
      "t": 210999.9999999995,
      "d": 500,
      "v": 100
    },
    {
      "midi": 76,
      "hit": false,
      "t": 210999.9999999995,
      "d": 500,
      "v": 100
    },
    {
      "midi": 54,
      "hit": false,
      "t": 211249.9999999995,
      "d": 225,
      "v": 50
    },
    {
      "midi": 40,
      "hit": false,
      "t": 211499.9999999995,
      "d": 225,
      "v": 80
    },
    {
      "midi": 77,
      "hit": false,
      "t": 211499.9999999995,
      "d": 500,
      "v": 100
    },
    {
      "midi": 54,
      "hit": false,
      "t": 211749.9999999995,
      "d": 225,
      "v": 50
    },
    {
      "midi": 76,
      "hit": false,
      "t": 211999.9999999995,
      "d": 500,
      "v": 100
    },
    {
      "midi": 83,
      "hit": false,
      "t": 211999.9999999995,
      "d": 1000,
      "v": 100
    },
    {
      "midi": 56,
      "hit": false,
      "t": 211999.9999999995,
      "d": 2000,
      "v": 100
    },
    {
      "midi": 62,
      "hit": false,
      "t": 211999.9999999995,
      "d": 2000,
      "v": 100
    },
    {
      "midi": 64,
      "hit": false,
      "t": 211999.9999999995,
      "d": 2000,
      "v": 100
    },
    {
      "midi": 54,
      "hit": false,
      "t": 212249.9999999995,
      "d": 225,
      "v": 50
    },
    {
      "midi": 40,
      "hit": false,
      "t": 212499.9999999995,
      "d": 225,
      "v": 80
    },
    {
      "midi": 74,
      "hit": false,
      "t": 212499.9999999995,
      "d": 500,
      "v": 100
    },
    {
      "midi": 54,
      "hit": false,
      "t": 212749.9999999995,
      "d": 225,
      "v": 50
    },
    {
      "midi": 40,
      "hit": false,
      "t": 212749.9999999995,
      "d": 250,
      "v": 100
    },
    {
      "midi": 40,
      "hit": false,
      "t": 212999.9999999995,
      "d": 500,
      "v": 100
    },
    {
      "midi": 72,
      "hit": false,
      "t": 212999.9999999995,
      "d": 500,
      "v": 100
    },
    {
      "midi": 88,
      "hit": false,
      "t": 212999.9999999995,
      "d": 2000.000000000029,
      "v": 100
    },
    {
      "midi": 54,
      "hit": false,
      "t": 213249.9999999995,
      "d": 225,
      "v": 50
    },
    {
      "midi": 40,
      "hit": false,
      "t": 213499.9999999995,
      "d": 225,
      "v": 80
    },
    {
      "midi": 74,
      "hit": false,
      "t": 213499.9999999995,
      "d": 500,
      "v": 100
    },
    {
      "midi": 54,
      "hit": false,
      "t": 213749.9999999995,
      "d": 225,
      "v": 50
    },
    {
      "midi": 46,
      "hit": false,
      "t": 213999.9999999995,
      "d": 225,
      "v": 80
    },
    {
      "midi": 45,
      "hit": false,
      "t": 213999.9999999995,
      "d": 750.0000000000291,
      "v": 100
    },
    {
      "midi": 72,
      "hit": false,
      "t": 213999.9999999995,
      "d": 1000.0000000000291,
      "v": 100
    },
    {
      "midi": 57,
      "hit": false,
      "t": 213999.9999999995,
      "d": 1000.0000000000291,
      "v": 100
    },
    {
      "midi": 60,
      "hit": false,
      "t": 213999.9999999995,
      "d": 1000.0000000000291,
      "v": 100
    },
    {
      "midi": 64,
      "hit": false,
      "t": 213999.9999999995,
      "d": 1000.0000000000291,
      "v": 100
    },
    {
      "midi": 42,
      "hit": false,
      "t": 214249.9999999995,
      "d": 75,
      "v": 60
    },
    {
      "midi": 54,
      "hit": false,
      "t": 214249.9999999995,
      "d": 225.0000000000291,
      "v": 50
    },
    {
      "midi": 42,
      "hit": false,
      "t": 214333.33333333285,
      "d": 75,
      "v": 70
    },
    {
      "midi": 42,
      "hit": false,
      "t": 214416.6666666662,
      "d": 75,
      "v": 60
    },
    {
      "midi": 40,
      "hit": false,
      "t": 214499.99999999953,
      "d": 225,
      "v": 80
    },
    {
      "midi": 54,
      "hit": false,
      "t": 214749.99999999953,
      "d": 225,
      "v": 50
    },
    {
      "midi": 45,
      "hit": false,
      "t": 214749.99999999953,
      "d": 250,
      "v": 100
    },
    {
      "midi": 47,
      "hit": false,
      "t": 214999.99999999953,
      "d": 750,
      "v": 100
    },
    {
      "midi": 74,
      "hit": false,
      "t": 214999.99999999953,
      "d": 1000,
      "v": 100
    },
    {
      "midi": 55,
      "hit": false,
      "t": 214999.99999999953,
      "d": 1000,
      "v": 100
    },
    {
      "midi": 59,
      "hit": false,
      "t": 214999.99999999953,
      "d": 1000,
      "v": 100
    },
    {
      "midi": 62,
      "hit": false,
      "t": 214999.99999999953,
      "d": 1000,
      "v": 100
    },
    {
      "midi": 86,
      "hit": false,
      "t": 214999.99999999953,
      "d": 1000,
      "v": 100
    },
    {
      "midi": 54,
      "hit": false,
      "t": 215249.99999999953,
      "d": 225,
      "v": 50
    },
    {
      "midi": 40,
      "hit": false,
      "t": 215499.99999999953,
      "d": 225,
      "v": 80
    },
    {
      "midi": 54,
      "hit": false,
      "t": 215749.99999999953,
      "d": 225,
      "v": 50
    },
    {
      "midi": 47,
      "hit": false,
      "t": 215749.99999999953,
      "d": 250,
      "v": 100
    },
    {
      "midi": 37,
      "hit": false,
      "t": 215999.99999999953,
      "d": 750,
      "v": 100
    },
    {
      "midi": 85,
      "hit": false,
      "t": 215999.99999999953,
      "d": 1000,
      "v": 100
    },
    {
      "midi": 76,
      "hit": false,
      "t": 215999.99999999953,
      "d": 1500,
      "v": 100
    },
    {
      "midi": 57,
      "hit": false,
      "t": 215999.99999999953,
      "d": 2000,
      "v": 100
    },
    {
      "midi": 64,
      "hit": false,
      "t": 215999.99999999953,
      "d": 2000,
      "v": 100
    },
    {
      "midi": 61,
      "hit": false,
      "t": 215999.99999999953,
      "d": 2000,
      "v": 100
    },
    {
      "midi": 54,
      "hit": false,
      "t": 216249.99999999953,
      "d": 225,
      "v": 50
    },
    {
      "midi": 40,
      "hit": false,
      "t": 216499.99999999953,
      "d": 225,
      "v": 80
    },
    {
      "midi": 54,
      "hit": false,
      "t": 216749.99999999953,
      "d": 225,
      "v": 50
    },
    {
      "midi": 37,
      "hit": false,
      "t": 216749.99999999953,
      "d": 250,
      "v": 100
    },
    {
      "midi": 45,
      "hit": false,
      "t": 216999.99999999953,
      "d": 500,
      "v": 100
    },
    {
      "midi": 88,
      "hit": false,
      "t": 216999.99999999953,
      "d": 1000,
      "v": 100
    },
    {
      "midi": 54,
      "hit": false,
      "t": 217249.99999999953,
      "d": 225,
      "v": 50
    },
    {
      "midi": 40,
      "hit": false,
      "t": 217499.99999999953,
      "d": 225,
      "v": 80
    },
    {
      "midi": 45,
      "hit": false,
      "t": 217499.99999999953,
      "d": 500,
      "v": 100
    },
    {
      "midi": 54,
      "hit": false,
      "t": 217749.99999999953,
      "d": 225,
      "v": 50
    },
    {
      "midi": 40,
      "hit": false,
      "t": 217749.99999999953,
      "d": 225,
      "v": 80
    },
    {
      "midi": 46,
      "hit": false,
      "t": 217999.99999999953,
      "d": 225,
      "v": 80
    },
    {
      "midi": 81,
      "hit": false,
      "t": 217999.99999999953,
      "d": 250,
      "v": 100
    },
    {
      "midi": 38,
      "hit": false,
      "t": 217999.99999999953,
      "d": 750.0000000000291,
      "v": 100
    },
    {
      "midi": 93,
      "hit": false,
      "t": 217999.99999999953,
      "d": 3000.000000000029,
      "v": 100
    },
    {
      "midi": 57,
      "hit": false,
      "t": 217999.99999999953,
      "d": 4000.000000000029,
      "v": 100
    },
    {
      "midi": 62,
      "hit": false,
      "t": 217999.99999999953,
      "d": 4000.000000000029,
      "v": 100
    },
    {
      "midi": 65,
      "hit": false,
      "t": 217999.99999999953,
      "d": 4000.000000000029,
      "v": 100
    },
    {
      "midi": 42,
      "hit": false,
      "t": 218249.99999999953,
      "d": 75,
      "v": 70
    },
    {
      "midi": 54,
      "hit": false,
      "t": 218249.99999999953,
      "d": 225.0000000000291,
      "v": 50
    },
    {
      "midi": 81,
      "hit": false,
      "t": 218249.99999999953,
      "d": 250.0000000000291,
      "v": 100
    },
    {
      "midi": 42,
      "hit": false,
      "t": 218333.33333333288,
      "d": 75,
      "v": 60
    },
    {
      "midi": 42,
      "hit": false,
      "t": 218416.66666666622,
      "d": 75,
      "v": 60
    },
    {
      "midi": 40,
      "hit": false,
      "t": 218499.99999999956,
      "d": 225,
      "v": 80
    },
    {
      "midi": 81,
      "hit": false,
      "t": 218499.99999999956,
      "d": 250,
      "v": 100
    },
    {
      "midi": 54,
      "hit": false,
      "t": 218749.99999999956,
      "d": 225,
      "v": 50
    },
    {
      "midi": 38,
      "hit": false,
      "t": 218749.99999999956,
      "d": 250,
      "v": 100
    },
    {
      "midi": 81,
      "hit": false,
      "t": 218749.99999999956,
      "d": 250,
      "v": 100
    },
    {
      "midi": 38,
      "hit": false,
      "t": 218999.99999999956,
      "d": 500,
      "v": 100
    },
    {
      "midi": 81,
      "hit": false,
      "t": 218999.99999999956,
      "d": 500,
      "v": 100
    },
    {
      "midi": 54,
      "hit": false,
      "t": 219249.99999999956,
      "d": 225,
      "v": 50
    },
    {
      "midi": 40,
      "hit": false,
      "t": 219499.99999999956,
      "d": 225,
      "v": 80
    },
    {
      "midi": 81,
      "hit": false,
      "t": 219499.99999999956,
      "d": 500,
      "v": 100
    },
    {
      "midi": 54,
      "hit": false,
      "t": 219749.99999999956,
      "d": 225,
      "v": 50
    },
    {
      "midi": 83,
      "hit": false,
      "t": 219999.99999999956,
      "d": 500,
      "v": 100
    },
    {
      "midi": 38,
      "hit": false,
      "t": 219999.99999999956,
      "d": 750,
      "v": 100
    },
    {
      "midi": 54,
      "hit": false,
      "t": 220249.99999999956,
      "d": 225,
      "v": 50
    },
    {
      "midi": 40,
      "hit": false,
      "t": 220499.99999999956,
      "d": 225,
      "v": 80
    },
    {
      "midi": 83,
      "hit": false,
      "t": 220499.99999999956,
      "d": 250,
      "v": 100
    },
    {
      "midi": 54,
      "hit": false,
      "t": 220749.99999999956,
      "d": 225,
      "v": 50
    },
    {
      "midi": 38,
      "hit": false,
      "t": 220749.99999999956,
      "d": 250,
      "v": 100
    },
    {
      "midi": 81,
      "hit": false,
      "t": 220749.99999999956,
      "d": 750,
      "v": 100
    },
    {
      "midi": 38,
      "hit": false,
      "t": 220999.99999999956,
      "d": 500,
      "v": 100
    },
    {
      "midi": 95,
      "hit": false,
      "t": 220999.99999999956,
      "d": 500,
      "v": 100
    },
    {
      "midi": 54,
      "hit": false,
      "t": 221249.99999999956,
      "d": 225,
      "v": 50
    },
    {
      "midi": 40,
      "hit": false,
      "t": 221499.99999999956,
      "d": 225,
      "v": 80
    },
    {
      "midi": 93,
      "hit": false,
      "t": 221499.99999999956,
      "d": 3000.000000000029,
      "v": 100
    },
    {
      "midi": 54,
      "hit": false,
      "t": 221749.99999999956,
      "d": 225,
      "v": 50
    },
    {
      "midi": 46,
      "hit": false,
      "t": 221999.99999999956,
      "d": 225,
      "v": 80
    },
    {
      "midi": 81,
      "hit": false,
      "t": 221999.99999999956,
      "d": 250,
      "v": 100
    },
    {
      "midi": 45,
      "hit": false,
      "t": 221999.99999999956,
      "d": 750.0000000000291,
      "v": 100
    },
    {
      "midi": 57,
      "hit": false,
      "t": 221999.99999999956,
      "d": 4000.000000000029,
      "v": 100
    },
    {
      "midi": 60,
      "hit": false,
      "t": 221999.99999999956,
      "d": 4000.000000000029,
      "v": 100
    },
    {
      "midi": 64,
      "hit": false,
      "t": 221999.99999999956,
      "d": 4000.000000000029,
      "v": 100
    },
    {
      "midi": 42,
      "hit": false,
      "t": 222249.99999999956,
      "d": 75,
      "v": 70
    },
    {
      "midi": 54,
      "hit": false,
      "t": 222249.99999999956,
      "d": 225.0000000000291,
      "v": 50
    },
    {
      "midi": 81,
      "hit": false,
      "t": 222249.99999999956,
      "d": 250.0000000000291,
      "v": 100
    },
    {
      "midi": 42,
      "hit": false,
      "t": 222333.3333333329,
      "d": 75,
      "v": 60
    },
    {
      "midi": 42,
      "hit": false,
      "t": 222416.66666666625,
      "d": 75,
      "v": 60
    },
    {
      "midi": 40,
      "hit": false,
      "t": 222499.9999999996,
      "d": 225,
      "v": 80
    },
    {
      "midi": 81,
      "hit": false,
      "t": 222499.9999999996,
      "d": 250,
      "v": 100
    },
    {
      "midi": 54,
      "hit": false,
      "t": 222749.9999999996,
      "d": 225,
      "v": 50
    },
    {
      "midi": 45,
      "hit": false,
      "t": 222749.9999999996,
      "d": 250,
      "v": 100
    },
    {
      "midi": 81,
      "hit": false,
      "t": 222749.9999999996,
      "d": 250,
      "v": 100
    },
    {
      "midi": 45,
      "hit": false,
      "t": 222999.9999999996,
      "d": 500,
      "v": 100
    },
    {
      "midi": 76,
      "hit": false,
      "t": 222999.9999999996,
      "d": 500,
      "v": 100
    },
    {
      "midi": 54,
      "hit": false,
      "t": 223249.9999999996,
      "d": 225,
      "v": 50
    },
    {
      "midi": 40,
      "hit": false,
      "t": 223499.9999999996,
      "d": 225,
      "v": 80
    },
    {
      "midi": 74,
      "hit": false,
      "t": 223499.9999999996,
      "d": 500,
      "v": 100
    },
    {
      "midi": 54,
      "hit": false,
      "t": 223749.9999999996,
      "d": 225,
      "v": 50
    },
    {
      "midi": 45,
      "hit": false,
      "t": 223999.9999999996,
      "d": 750,
      "v": 100
    },
    {
      "midi": 72,
      "hit": false,
      "t": 223999.9999999996,
      "d": 1000,
      "v": 100
    },
    {
      "midi": 54,
      "hit": false,
      "t": 224249.9999999996,
      "d": 225,
      "v": 50
    },
    {
      "midi": 40,
      "hit": false,
      "t": 224499.9999999996,
      "d": 225,
      "v": 80
    },
    {
      "midi": 93,
      "hit": false,
      "t": 224499.9999999996,
      "d": 500,
      "v": 100
    },
    {
      "midi": 54,
      "hit": false,
      "t": 224749.9999999996,
      "d": 225,
      "v": 50
    },
    {
      "midi": 45,
      "hit": false,
      "t": 224749.9999999996,
      "d": 250,
      "v": 100
    },
    {
      "midi": 45,
      "hit": false,
      "t": 224999.9999999996,
      "d": 500,
      "v": 100
    },
    {
      "midi": 88,
      "hit": false,
      "t": 224999.9999999996,
      "d": 500,
      "v": 100
    },
    {
      "midi": 54,
      "hit": false,
      "t": 225249.9999999996,
      "d": 225,
      "v": 50
    },
    {
      "midi": 40,
      "hit": false,
      "t": 225499.9999999996,
      "d": 225,
      "v": 80
    },
    {
      "midi": 84,
      "hit": false,
      "t": 225499.9999999996,
      "d": 500,
      "v": 100
    },
    {
      "midi": 54,
      "hit": false,
      "t": 225749.9999999996,
      "d": 225,
      "v": 50
    },
    {
      "midi": 46,
      "hit": false,
      "t": 225999.9999999996,
      "d": 225,
      "v": 80
    },
    {
      "midi": 47,
      "hit": false,
      "t": 225999.9999999996,
      "d": 750.0000000000291,
      "v": 100
    },
    {
      "midi": 74,
      "hit": false,
      "t": 225999.9999999996,
      "d": 750.0000000000291,
      "v": 100
    },
    {
      "midi": 57,
      "hit": false,
      "t": 225999.9999999996,
      "d": 2000.000000000029,
      "v": 100
    },
    {
      "midi": 62,
      "hit": false,
      "t": 225999.9999999996,
      "d": 2000.000000000029,
      "v": 100
    },
    {
      "midi": 65,
      "hit": false,
      "t": 225999.9999999996,
      "d": 2000.000000000029,
      "v": 100
    },
    {
      "midi": 86,
      "hit": false,
      "t": 225999.9999999996,
      "d": 2001.041666666686,
      "v": 100
    },
    {
      "midi": 42,
      "hit": false,
      "t": 226249.9999999996,
      "d": 75,
      "v": 70
    },
    {
      "midi": 54,
      "hit": false,
      "t": 226249.9999999996,
      "d": 225.0000000000291,
      "v": 50
    },
    {
      "midi": 42,
      "hit": false,
      "t": 226333.33333333294,
      "d": 75,
      "v": 60
    },
    {
      "midi": 42,
      "hit": false,
      "t": 226416.66666666628,
      "d": 75,
      "v": 60
    },
    {
      "midi": 40,
      "hit": false,
      "t": 226499.99999999962,
      "d": 225,
      "v": 80
    },
    {
      "midi": 54,
      "hit": false,
      "t": 226749.99999999962,
      "d": 225,
      "v": 50
    },
    {
      "midi": 47,
      "hit": false,
      "t": 226749.99999999962,
      "d": 250,
      "v": 100
    },
    {
      "midi": 76,
      "hit": false,
      "t": 226749.99999999962,
      "d": 750,
      "v": 100
    },
    {
      "midi": 47,
      "hit": false,
      "t": 226999.99999999962,
      "d": 500,
      "v": 100
    },
    {
      "midi": 54,
      "hit": false,
      "t": 227249.99999999962,
      "d": 225,
      "v": 50
    },
    {
      "midi": 40,
      "hit": false,
      "t": 227499.99999999962,
      "d": 225,
      "v": 80
    },
    {
      "midi": 77,
      "hit": false,
      "t": 227499.99999999962,
      "d": 500,
      "v": 100
    },
    {
      "midi": 54,
      "hit": false,
      "t": 227749.99999999962,
      "d": 225,
      "v": 50
    },
    {
      "midi": 40,
      "hit": false,
      "t": 227999.99999999962,
      "d": 225,
      "v": 80
    },
    {
      "midi": 42,
      "hit": false,
      "t": 227999.99999999962,
      "d": 225,
      "v": 70
    },
    {
      "midi": 36,
      "hit": false,
      "t": 227999.99999999962,
      "d": 225,
      "v": 70
    },
    {
      "midi": 76,
      "hit": false,
      "t": 227999.99999999962,
      "d": 500,
      "v": 100
    },
    {
      "midi": 55,
      "hit": false,
      "t": 227999.99999999962,
      "d": 2000.0000000001164,
      "v": 100
    },
    {
      "midi": 59,
      "hit": false,
      "t": 227999.99999999962,
      "d": 2000.0000000001164,
      "v": 100
    },
    {
      "midi": 64,
      "hit": false,
      "t": 227999.99999999962,
      "d": 2000.0000000001164,
      "v": 100
    },
    {
      "midi": 54,
      "hit": false,
      "t": 228499.99999999962,
      "d": 75,
      "v": 80
    },
    {
      "midi": 40,
      "hit": false,
      "t": 228499.99999999962,
      "d": 225.0000000000291,
      "v": 80
    },
    {
      "midi": 42,
      "hit": false,
      "t": 228499.99999999962,
      "d": 225.0000000000291,
      "v": 70
    },
    {
      "midi": 36,
      "hit": false,
      "t": 228499.99999999962,
      "d": 225.0000000000291,
      "v": 70
    },
    {
      "midi": 54,
      "hit": false,
      "t": 228583.33333333296,
      "d": 75,
      "v": 80
    },
    {
      "midi": 54,
      "hit": false,
      "t": 228666.6666666663,
      "d": 75,
      "v": 80
    },
    {
      "midi": 54,
      "hit": false,
      "t": 228749.99999999965,
      "d": 75,
      "v": 80
    },
    {
      "midi": 54,
      "hit": false,
      "t": 228833.333333333,
      "d": 75,
      "v": 80
    },
    {
      "midi": 54,
      "hit": false,
      "t": 228916.66666666634,
      "d": 75,
      "v": 80
    },
    {
      "midi": 54,
      "hit": false,
      "t": 228999.99999999968,
      "d": 75,
      "v": 80
    },
    {
      "midi": 79,
      "hit": false,
      "t": 228999.99999999968,
      "d": 500.0000000000582,
      "v": 100
    },
    {
      "midi": 54,
      "hit": false,
      "t": 229083.33333333302,
      "d": 75,
      "v": 80
    },
    {
      "midi": 54,
      "hit": false,
      "t": 229166.66666666637,
      "d": 75,
      "v": 80
    },
    {
      "midi": 54,
      "hit": false,
      "t": 229249.9999999997,
      "d": 75,
      "v": 80
    },
    {
      "midi": 54,
      "hit": false,
      "t": 229333.33333333305,
      "d": 75,
      "v": 80
    },
    {
      "midi": 54,
      "hit": false,
      "t": 229416.6666666664,
      "d": 75,
      "v": 80
    },
    {
      "midi": 54,
      "hit": false,
      "t": 229499.99999999974,
      "d": 75,
      "v": 80
    },
    {
      "midi": 40,
      "hit": false,
      "t": 229499.99999999974,
      "d": 500,
      "v": 100
    },
    {
      "midi": 76,
      "hit": false,
      "t": 229499.99999999974,
      "d": 500,
      "v": 100
    },
    {
      "midi": 54,
      "hit": false,
      "t": 229583.33333333308,
      "d": 75,
      "v": 80
    },
    {
      "midi": 54,
      "hit": false,
      "t": 229666.66666666642,
      "d": 75,
      "v": 80
    },
    {
      "midi": 42,
      "hit": false,
      "t": 229999.99999999974,
      "d": 225,
      "v": 70
    },
    {
      "midi": 41,
      "hit": false,
      "t": 229999.99999999974,
      "d": 750,
      "v": 100
    },
    {
      "midi": 81,
      "hit": false,
      "t": 229999.99999999974,
      "d": 2000,
      "v": 100
    },
    {
      "midi": 53,
      "hit": false,
      "t": 229999.99999999974,
      "d": 2000,
      "v": 100
    },
    {
      "midi": 57,
      "hit": false,
      "t": 229999.99999999974,
      "d": 2000,
      "v": 100
    },
    {
      "midi": 60,
      "hit": false,
      "t": 229999.99999999974,
      "d": 2000,
      "v": 100
    },
    {
      "midi": 42,
      "hit": false,
      "t": 230499.99999999974,
      "d": 225,
      "v": 70
    },
    {
      "midi": 41,
      "hit": false,
      "t": 230749.99999999974,
      "d": 250,
      "v": 100
    },
    {
      "midi": 42,
      "hit": false,
      "t": 230999.99999999974,
      "d": 225,
      "v": 70
    },
    {
      "midi": 41,
      "hit": false,
      "t": 230999.99999999974,
      "d": 500,
      "v": 100
    },
    {
      "midi": 42,
      "hit": false,
      "t": 231499.99999999974,
      "d": 225,
      "v": 70
    },
    {
      "midi": 54,
      "hit": false,
      "t": 231499.99999999974,
      "d": 225,
      "v": 70
    },
    {
      "midi": 40,
      "hit": false,
      "t": 231499.99999999974,
      "d": 225,
      "v": 70
    },
    {
      "midi": 42,
      "hit": false,
      "t": 231999.99999999974,
      "d": 225,
      "v": 70
    },
    {
      "midi": 43,
      "hit": false,
      "t": 231999.99999999974,
      "d": 750,
      "v": 100
    },
    {
      "midi": 55,
      "hit": false,
      "t": 231999.99999999974,
      "d": 2000,
      "v": 100
    },
    {
      "midi": 59,
      "hit": false,
      "t": 231999.99999999974,
      "d": 2000,
      "v": 100
    },
    {
      "midi": 62,
      "hit": false,
      "t": 231999.99999999974,
      "d": 2000,
      "v": 100
    },
    {
      "midi": 42,
      "hit": false,
      "t": 232499.99999999974,
      "d": 225,
      "v": 70
    },
    {
      "midi": 81,
      "hit": false,
      "t": 232499.99999999974,
      "d": 500,
      "v": 100
    },
    {
      "midi": 43,
      "hit": false,
      "t": 232749.99999999974,
      "d": 250,
      "v": 100
    },
    {
      "midi": 42,
      "hit": false,
      "t": 232999.99999999974,
      "d": 225,
      "v": 70
    },
    {
      "midi": 43,
      "hit": false,
      "t": 232999.99999999974,
      "d": 500,
      "v": 100
    },
    {
      "midi": 79,
      "hit": false,
      "t": 232999.99999999974,
      "d": 500,
      "v": 100
    },
    {
      "midi": 40,
      "hit": false,
      "t": 233249.99999999974,
      "d": 225,
      "v": 70
    },
    {
      "midi": 54,
      "hit": false,
      "t": 233249.99999999974,
      "d": 225,
      "v": 60
    },
    {
      "midi": 42,
      "hit": false,
      "t": 233499.99999999974,
      "d": 225,
      "v": 70
    },
    {
      "midi": 40,
      "hit": false,
      "t": 233499.99999999974,
      "d": 225,
      "v": 70
    },
    {
      "midi": 54,
      "hit": false,
      "t": 233499.99999999974,
      "d": 225,
      "v": 60
    },
    {
      "midi": 76,
      "hit": false,
      "t": 233499.99999999974,
      "d": 250,
      "v": 100
    },
    {
      "midi": 40,
      "hit": false,
      "t": 233749.99999999974,
      "d": 225,
      "v": 60
    },
    {
      "midi": 54,
      "hit": false,
      "t": 233749.99999999974,
      "d": 225,
      "v": 60
    },
    {
      "midi": 81,
      "hit": false,
      "t": 233749.99999999974,
      "d": 2250.000000000233,
      "v": 100
    },
    {
      "midi": 69,
      "hit": false,
      "t": 233999.99999999974,
      "d": 75,
      "v": 100
    },
    {
      "midi": 42,
      "hit": false,
      "t": 233999.99999999974,
      "d": 225.0000000000291,
      "v": 90
    },
    {
      "midi": 72,
      "hit": false,
      "t": 233999.99999999974,
      "d": 450.0000000000582,
      "v": 100
    },
    {
      "midi": 76,
      "hit": false,
      "t": 233999.99999999974,
      "d": 450.0000000000582,
      "v": 100
    },
    {
      "midi": 45,
      "hit": false,
      "t": 233999.99999999974,
      "d": 675.0000000000873,
      "v": 100
    },
    {
      "midi": 69,
      "hit": false,
      "t": 234083.33333333308,
      "d": 75,
      "v": 100
    },
    {
      "midi": 69,
      "hit": false,
      "t": 234166.66666666642,
      "d": 75,
      "v": 100
    },
    {
      "midi": 69,
      "hit": false,
      "t": 234249.99999999977,
      "d": 75,
      "v": 100
    },
    {
      "midi": 64,
      "hit": false,
      "t": 234249.99999999977,
      "d": 250.0000000000291,
      "v": 100
    },
    {
      "midi": 69,
      "hit": false,
      "t": 234333.3333333331,
      "d": 75,
      "v": 100
    },
    {
      "midi": 69,
      "hit": false,
      "t": 234416.66666666645,
      "d": 33.333333333343035,
      "v": 100
    },
    {
      "midi": 69,
      "hit": false,
      "t": 234499.9999999998,
      "d": 75,
      "v": 100
    },
    {
      "midi": 42,
      "hit": false,
      "t": 234499.9999999998,
      "d": 225.0000000000291,
      "v": 90
    },
    {
      "midi": 62,
      "hit": false,
      "t": 234499.9999999998,
      "d": 250.0000000000291,
      "v": 100
    },
    {
      "midi": 72,
      "hit": false,
      "t": 234499.9999999998,
      "d": 450.0000000000582,
      "v": 100
    },
    {
      "midi": 76,
      "hit": false,
      "t": 234499.9999999998,
      "d": 450.0000000000582,
      "v": 100
    },
    {
      "midi": 69,
      "hit": false,
      "t": 234583.33333333314,
      "d": 75,
      "v": 100
    },
    {
      "midi": 69,
      "hit": false,
      "t": 234666.66666666648,
      "d": 75,
      "v": 100
    },
    {
      "midi": 69,
      "hit": false,
      "t": 234749.99999999983,
      "d": 75,
      "v": 100
    },
    {
      "midi": 45,
      "hit": false,
      "t": 234749.99999999983,
      "d": 225.0000000000291,
      "v": 100
    },
    {
      "midi": 60,
      "hit": false,
      "t": 234749.99999999983,
      "d": 250.0000000000291,
      "v": 100
    },
    {
      "midi": 69,
      "hit": false,
      "t": 234833.33333333317,
      "d": 75,
      "v": 100
    },
    {
      "midi": 69,
      "hit": false,
      "t": 234916.6666666665,
      "d": 33.333333333343035,
      "v": 100
    },
    {
      "midi": 76,
      "hit": false,
      "t": 234999.99999999985,
      "d": 75,
      "v": 100
    },
    {
      "midi": 42,
      "hit": false,
      "t": 234999.99999999985,
      "d": 225.0000000000291,
      "v": 90
    },
    {
      "midi": 45,
      "hit": false,
      "t": 234999.99999999985,
      "d": 450.0000000000582,
      "v": 100
    },
    {
      "midi": 69,
      "hit": false,
      "t": 234999.99999999985,
      "d": 450.0000000000582,
      "v": 100
    },
    {
      "midi": 72,
      "hit": false,
      "t": 234999.99999999985,
      "d": 450.0000000000582,
      "v": 100
    },
    {
      "midi": 57,
      "hit": false,
      "t": 234999.99999999985,
      "d": 500.0000000000582,
      "v": 100
    },
    {
      "midi": 76,
      "hit": false,
      "t": 235083.3333333332,
      "d": 75,
      "v": 100
    },
    {
      "midi": 76,
      "hit": false,
      "t": 235166.66666666654,
      "d": 75,
      "v": 100
    },
    {
      "midi": 76,
      "hit": false,
      "t": 235249.99999999988,
      "d": 75,
      "v": 100
    },
    {
      "midi": 76,
      "hit": false,
      "t": 235333.33333333323,
      "d": 75,
      "v": 100
    },
    {
      "midi": 76,
      "hit": false,
      "t": 235416.66666666657,
      "d": 33.333333333343035,
      "v": 100
    },
    {
      "midi": 74,
      "hit": false,
      "t": 235499.9999999999,
      "d": 75,
      "v": 100
    },
    {
      "midi": 42,
      "hit": false,
      "t": 235499.9999999999,
      "d": 225.0000000000291,
      "v": 90
    },
    {
      "midi": 54,
      "hit": false,
      "t": 235499.9999999999,
      "d": 225.0000000000291,
      "v": 81
    },
    {
      "midi": 69,
      "hit": false,
      "t": 235499.9999999999,
      "d": 450.0000000000582,
      "v": 100
    },
    {
      "midi": 72,
      "hit": false,
      "t": 235499.9999999999,
      "d": 450.0000000000582,
      "v": 100
    },
    {
      "midi": 74,
      "hit": false,
      "t": 235583.33333333326,
      "d": 75,
      "v": 100
    },
    {
      "midi": 74,
      "hit": false,
      "t": 235666.6666666666,
      "d": 75,
      "v": 100
    },
    {
      "midi": 76,
      "hit": false,
      "t": 235749.99999999994,
      "d": 75,
      "v": 100
    },
    {
      "midi": 76,
      "hit": false,
      "t": 235833.33333333328,
      "d": 75,
      "v": 100
    },
    {
      "midi": 76,
      "hit": false,
      "t": 235916.66666666663,
      "d": 33.333333333343035,
      "v": 100
    },
    {
      "midi": 74,
      "hit": false,
      "t": 235999.99999999997,
      "d": 75,
      "v": 100
    },
    {
      "midi": 42,
      "hit": false,
      "t": 235999.99999999997,
      "d": 225.0000000000291,
      "v": 90
    },
    {
      "midi": 67,
      "hit": false,
      "t": 235999.99999999997,
      "d": 450.0000000000582,
      "v": 100
    },
    {
      "midi": 71,
      "hit": false,
      "t": 235999.99999999997,
      "d": 450.0000000000582,
      "v": 100
    },
    {
      "midi": 40,
      "hit": false,
      "t": 235999.99999999997,
      "d": 675.0000000000873,
      "v": 100
    },
    {
      "midi": 55,
      "hit": false,
      "t": 235999.99999999997,
      "d": 1800.0000000002037,
      "v": 100
    },
    {
      "midi": 59,
      "hit": false,
      "t": 235999.99999999997,
      "d": 1800.0000000002037,
      "v": 100
    },
    {
      "midi": 62,
      "hit": false,
      "t": 235999.99999999997,
      "d": 1800.0000000002037,
      "v": 100
    },
    {
      "midi": 74,
      "hit": false,
      "t": 236083.3333333333,
      "d": 75,
      "v": 100
    },
    {
      "midi": 74,
      "hit": false,
      "t": 236166.66666666666,
      "d": 75,
      "v": 100
    },
    {
      "midi": 74,
      "hit": false,
      "t": 236250,
      "d": 75,
      "v": 100
    },
    {
      "midi": 74,
      "hit": false,
      "t": 236333.33333333334,
      "d": 75,
      "v": 100
    },
    {
      "midi": 74,
      "hit": false,
      "t": 236416.6666666667,
      "d": 33.333333333343035,
      "v": 100
    },
    {
      "midi": 71,
      "hit": false,
      "t": 236500.00000000003,
      "d": 75,
      "v": 100
    },
    {
      "midi": 42,
      "hit": false,
      "t": 236500.00000000003,
      "d": 225.0000000000291,
      "v": 90
    },
    {
      "midi": 67,
      "hit": false,
      "t": 236500.00000000003,
      "d": 450.0000000000582,
      "v": 100
    },
    {
      "midi": 74,
      "hit": false,
      "t": 236500.00000000003,
      "d": 450.0000000000582,
      "v": 100
    },
    {
      "midi": 71,
      "hit": false,
      "t": 236583.33333333337,
      "d": 75,
      "v": 100
    },
    {
      "midi": 71,
      "hit": false,
      "t": 236666.66666666672,
      "d": 75,
      "v": 100
    },
    {
      "midi": 71,
      "hit": false,
      "t": 236750.00000000006,
      "d": 75,
      "v": 100
    },
    {
      "midi": 40,
      "hit": false,
      "t": 236750.00000000006,
      "d": 225.0000000000291,
      "v": 100
    },
    {
      "midi": 71,
      "hit": false,
      "t": 236833.3333333334,
      "d": 75,
      "v": 100
    },
    {
      "midi": 71,
      "hit": false,
      "t": 236916.66666666674,
      "d": 33.333333333343035,
      "v": 100
    },
    {
      "midi": 67,
      "hit": false,
      "t": 237000.0000000001,
      "d": 75,
      "v": 100
    },
    {
      "midi": 42,
      "hit": false,
      "t": 237000.0000000001,
      "d": 225.0000000000291,
      "v": 90
    },
    {
      "midi": 40,
      "hit": false,
      "t": 237000.0000000001,
      "d": 450.0000000000582,
      "v": 100
    },
    {
      "midi": 71,
      "hit": false,
      "t": 237000.0000000001,
      "d": 450.0000000000582,
      "v": 100
    },
    {
      "midi": 74,
      "hit": false,
      "t": 237000.0000000001,
      "d": 450.0000000000582,
      "v": 100
    },
    {
      "midi": 67,
      "hit": false,
      "t": 237083.33333333343,
      "d": 75,
      "v": 100
    },
    {
      "midi": 67,
      "hit": false,
      "t": 237166.66666666677,
      "d": 75,
      "v": 100
    },
    {
      "midi": 67,
      "hit": false,
      "t": 237250.00000000012,
      "d": 75,
      "v": 100
    },
    {
      "midi": 67,
      "hit": false,
      "t": 237333.33333333346,
      "d": 75,
      "v": 100
    },
    {
      "midi": 67,
      "hit": false,
      "t": 237416.6666666668,
      "d": 33.333333333343035,
      "v": 100
    },
    {
      "midi": 67,
      "hit": false,
      "t": 237500.00000000015,
      "d": 75,
      "v": 100
    },
    {
      "midi": 42,
      "hit": false,
      "t": 237500.00000000015,
      "d": 225.0000000000291,
      "v": 90
    },
    {
      "midi": 54,
      "hit": false,
      "t": 237500.00000000015,
      "d": 225.0000000000291,
      "v": 81
    },
    {
      "midi": 71,
      "hit": false,
      "t": 237500.00000000015,
      "d": 450.0000000000582,
      "v": 100
    },
    {
      "midi": 74,
      "hit": false,
      "t": 237500.00000000015,
      "d": 450.0000000000582,
      "v": 100
    },
    {
      "midi": 67,
      "hit": false,
      "t": 237583.3333333335,
      "d": 75,
      "v": 100
    },
    {
      "midi": 67,
      "hit": false,
      "t": 237666.66666666683,
      "d": 75,
      "v": 100
    },
    {
      "midi": 67,
      "hit": false,
      "t": 237750.00000000017,
      "d": 75,
      "v": 100
    },
    {
      "midi": 67,
      "hit": false,
      "t": 237833.33333333352,
      "d": 75,
      "v": 100
    },
    {
      "midi": 67,
      "hit": false,
      "t": 237916.66666666686,
      "d": 33.333333333343035,
      "v": 100
    },
    {
      "midi": 72,
      "hit": false,
      "t": 238000.0000000002,
      "d": 75,
      "v": 100
    },
    {
      "midi": 42,
      "hit": false,
      "t": 238000.0000000002,
      "d": 225.0000000000291,
      "v": 90
    },
    {
      "midi": 65,
      "hit": false,
      "t": 238000.0000000002,
      "d": 450.0000000000582,
      "v": 100
    },
    {
      "midi": 69,
      "hit": false,
      "t": 238000.0000000002,
      "d": 450.0000000000582,
      "v": 100
    },
    {
      "midi": 41,
      "hit": false,
      "t": 238000.0000000002,
      "d": 675.0000000000873,
      "v": 100
    },
    {
      "midi": 53,
      "hit": false,
      "t": 238000.0000000002,
      "d": 1800.0000000002037,
      "v": 100
    },
    {
      "midi": 57,
      "hit": false,
      "t": 238000.0000000002,
      "d": 1800.0000000002037,
      "v": 100
    },
    {
      "midi": 60,
      "hit": false,
      "t": 238000.0000000002,
      "d": 1800.0000000002037,
      "v": 100
    },
    {
      "midi": 72,
      "hit": false,
      "t": 238083.33333333355,
      "d": 75,
      "v": 100
    },
    {
      "midi": 72,
      "hit": false,
      "t": 238166.6666666669,
      "d": 75,
      "v": 100
    },
    {
      "midi": 72,
      "hit": false,
      "t": 238250.00000000023,
      "d": 75,
      "v": 100
    },
    {
      "midi": 72,
      "hit": false,
      "t": 238333.33333333358,
      "d": 75,
      "v": 100
    },
    {
      "midi": 72,
      "hit": false,
      "t": 238416.66666666692,
      "d": 33.333333333343035,
      "v": 100
    },
    {
      "midi": 72,
      "hit": false,
      "t": 238500.00000000026,
      "d": 75,
      "v": 100
    },
    {
      "midi": 42,
      "hit": false,
      "t": 238500.00000000026,
      "d": 225.0000000000291,
      "v": 90
    },
    {
      "midi": 65,
      "hit": false,
      "t": 238500.00000000026,
      "d": 450.0000000000582,
      "v": 100
    },
    {
      "midi": 69,
      "hit": false,
      "t": 238500.00000000026,
      "d": 450.0000000000582,
      "v": 100
    },
    {
      "midi": 72,
      "hit": false,
      "t": 238583.3333333336,
      "d": 75,
      "v": 100
    },
    {
      "midi": 72,
      "hit": false,
      "t": 238666.66666666695,
      "d": 75,
      "v": 100
    },
    {
      "midi": 71,
      "hit": false,
      "t": 238750.0000000003,
      "d": 75,
      "v": 100
    },
    {
      "midi": 41,
      "hit": false,
      "t": 238750.0000000003,
      "d": 225.0000000000291,
      "v": 100
    },
    {
      "midi": 71,
      "hit": false,
      "t": 238833.33333333363,
      "d": 75,
      "v": 100
    },
    {
      "midi": 71,
      "hit": false,
      "t": 238916.66666666698,
      "d": 75,
      "v": 100
    },
    {
      "midi": 69,
      "hit": false,
      "t": 239000.00000000032,
      "d": 75,
      "v": 100
    },
    {
      "midi": 42,
      "hit": false,
      "t": 239000.00000000032,
      "d": 225.0000000000291,
      "v": 90
    },
    {
      "midi": 41,
      "hit": false,
      "t": 239000.00000000032,
      "d": 450.0000000000582,
      "v": 100
    },
    {
      "midi": 65,
      "hit": false,
      "t": 239000.00000000032,
      "d": 450.0000000000582,
      "v": 100
    },
    {
      "midi": 72,
      "hit": false,
      "t": 239000.00000000032,
      "d": 450.0000000000582,
      "v": 100
    },
    {
      "midi": 69,
      "hit": false,
      "t": 239083.33333333366,
      "d": 75,
      "v": 100
    },
    {
      "midi": 69,
      "hit": false,
      "t": 239166.666666667,
      "d": 75,
      "v": 100
    },
    {
      "midi": 69,
      "hit": false,
      "t": 239250.00000000035,
      "d": 75,
      "v": 100
    },
    {
      "midi": 69,
      "hit": false,
      "t": 239333.3333333337,
      "d": 75,
      "v": 100
    },
    {
      "midi": 69,
      "hit": false,
      "t": 239416.66666666704,
      "d": 33.333333333343035,
      "v": 100
    },
    {
      "midi": 69,
      "hit": false,
      "t": 239500.00000000038,
      "d": 75,
      "v": 100
    },
    {
      "midi": 42,
      "hit": false,
      "t": 239500.00000000038,
      "d": 225.0000000000291,
      "v": 90
    },
    {
      "midi": 54,
      "hit": false,
      "t": 239500.00000000038,
      "d": 225.0000000000291,
      "v": 81
    },
    {
      "midi": 65,
      "hit": false,
      "t": 239500.00000000038,
      "d": 450.0000000000582,
      "v": 100
    },
    {
      "midi": 72,
      "hit": false,
      "t": 239500.00000000038,
      "d": 450.0000000000582,
      "v": 100
    },
    {
      "midi": 69,
      "hit": false,
      "t": 239583.33333333372,
      "d": 75,
      "v": 100
    },
    {
      "midi": 69,
      "hit": false,
      "t": 239666.66666666706,
      "d": 75,
      "v": 100
    },
    {
      "midi": 69,
      "hit": false,
      "t": 239750.0000000004,
      "d": 75,
      "v": 100
    },
    {
      "midi": 69,
      "hit": false,
      "t": 239833.33333333375,
      "d": 75,
      "v": 100
    },
    {
      "midi": 69,
      "hit": false,
      "t": 239916.6666666671,
      "d": 33.333333333343035,
      "v": 100
    },
    {
      "midi": 67,
      "hit": false,
      "t": 240000.00000000044,
      "d": 75,
      "v": 100
    },
    {
      "midi": 42,
      "hit": false,
      "t": 240000.00000000044,
      "d": 225.0000000000291,
      "v": 90
    },
    {
      "midi": 72,
      "hit": false,
      "t": 240000.00000000044,
      "d": 450.0000000000582,
      "v": 100
    },
    {
      "midi": 76,
      "hit": false,
      "t": 240000.00000000044,
      "d": 450.0000000000582,
      "v": 100
    },
    {
      "midi": 48,
      "hit": false,
      "t": 240000.00000000044,
      "d": 675.0000000000873,
      "v": 100
    },
    {
      "midi": 55,
      "hit": false,
      "t": 240000.00000000044,
      "d": 1350.0000000001455,
      "v": 100
    },
    {
      "midi": 60,
      "hit": false,
      "t": 240000.00000000044,
      "d": 1350.0000000001455,
      "v": 100
    },
    {
      "midi": 64,
      "hit": false,
      "t": 240000.00000000044,
      "d": 1350.0000000001455,
      "v": 100
    },
    {
      "midi": 67,
      "hit": false,
      "t": 240083.33333333378,
      "d": 75,
      "v": 100
    },
    {
      "midi": 67,
      "hit": false,
      "t": 240166.66666666712,
      "d": 75,
      "v": 100
    },
    {
      "midi": 67,
      "hit": false,
      "t": 240250.00000000047,
      "d": 75,
      "v": 100
    },
    {
      "midi": 67,
      "hit": false,
      "t": 240333.3333333338,
      "d": 75,
      "v": 100
    },
    {
      "midi": 67,
      "hit": false,
      "t": 240416.66666666715,
      "d": 33.333333333343035,
      "v": 100
    },
    {
      "midi": 69,
      "hit": false,
      "t": 240500.0000000005,
      "d": 75,
      "v": 100
    },
    {
      "midi": 42,
      "hit": false,
      "t": 240500.0000000005,
      "d": 225.0000000000291,
      "v": 90
    },
    {
      "midi": 76,
      "hit": false,
      "t": 240500.0000000005,
      "d": 450.0000000000582,
      "v": 100
    },
    {
      "midi": 72,
      "hit": false,
      "t": 240500.0000000005,
      "d": 450.0000000000582,
      "v": 100
    },
    {
      "midi": 67,
      "hit": false,
      "t": 240500.0000000005,
      "d": 450.0000000000582,
      "v": 100
    },
    {
      "midi": 69,
      "hit": false,
      "t": 240583.33333333384,
      "d": 75,
      "v": 100
    },
    {
      "midi": 69,
      "hit": false,
      "t": 240666.66666666718,
      "d": 75,
      "v": 100
    },
    {
      "midi": 69,
      "hit": false,
      "t": 240750.00000000052,
      "d": 75,
      "v": 100
    },
    {
      "midi": 48,
      "hit": false,
      "t": 240750.00000000052,
      "d": 225.0000000000291,
      "v": 100
    },
    {
      "midi": 69,
      "hit": false,
      "t": 240833.33333333387,
      "d": 75,
      "v": 100
    },
    {
      "midi": 69,
      "hit": false,
      "t": 240916.6666666672,
      "d": 75,
      "v": 100
    },
    {
      "midi": 72,
      "hit": false,
      "t": 241000.00000000055,
      "d": 75,
      "v": 100
    },
    {
      "midi": 42,
      "hit": false,
      "t": 241000.00000000055,
      "d": 225.0000000000291,
      "v": 90
    },
    {
      "midi": 48,
      "hit": false,
      "t": 241000.00000000055,
      "d": 450.0000000000582,
      "v": 100
    },
    {
      "midi": 76,
      "hit": false,
      "t": 241000.00000000055,
      "d": 450.0000000000582,
      "v": 100
    },
    {
      "midi": 67,
      "hit": false,
      "t": 241000.00000000055,
      "d": 450.0000000000582,
      "v": 100
    },
    {
      "midi": 72,
      "hit": false,
      "t": 241083.3333333339,
      "d": 75,
      "v": 100
    },
    {
      "midi": 72,
      "hit": false,
      "t": 241166.66666666724,
      "d": 75,
      "v": 100
    },
    {
      "midi": 72,
      "hit": false,
      "t": 241250.00000000058,
      "d": 75,
      "v": 100
    },
    {
      "midi": 72,
      "hit": false,
      "t": 241333.33333333393,
      "d": 75,
      "v": 100
    },
    {
      "midi": 72,
      "hit": false,
      "t": 241416.66666666727,
      "d": 33.333333333343035,
      "v": 100
    },
    {
      "midi": 74,
      "hit": false,
      "t": 241500.0000000006,
      "d": 75,
      "v": 100
    },
    {
      "midi": 42,
      "hit": false,
      "t": 241500.0000000006,
      "d": 225.0000000000291,
      "v": 90
    },
    {
      "midi": 54,
      "hit": false,
      "t": 241500.0000000006,
      "d": 225.0000000000291,
      "v": 81
    },
    {
      "midi": 47,
      "hit": false,
      "t": 241500.0000000006,
      "d": 450.0000000000582,
      "v": 100
    },
    {
      "midi": 67,
      "hit": false,
      "t": 241500.0000000006,
      "d": 450.0000000000582,
      "v": 100
    },
    {
      "midi": 71,
      "hit": false,
      "t": 241500.0000000006,
      "d": 450.0000000000582,
      "v": 100
    },
    {
      "midi": 55,
      "hit": false,
      "t": 241500.0000000006,
      "d": 450.0000000000582,
      "v": 100
    },
    {
      "midi": 59,
      "hit": false,
      "t": 241500.0000000006,
      "d": 450.0000000000582,
      "v": 100
    },
    {
      "midi": 62,
      "hit": false,
      "t": 241500.0000000006,
      "d": 450.0000000000582,
      "v": 100
    },
    {
      "midi": 74,
      "hit": false,
      "t": 241583.33333333395,
      "d": 75,
      "v": 100
    },
    {
      "midi": 74,
      "hit": false,
      "t": 241666.6666666673,
      "d": 75,
      "v": 100
    },
    {
      "midi": 74,
      "hit": false,
      "t": 241750.00000000064,
      "d": 75,
      "v": 100
    },
    {
      "midi": 74,
      "hit": false,
      "t": 241833.33333333398,
      "d": 75,
      "v": 100
    },
    {
      "midi": 74,
      "hit": false,
      "t": 241916.66666666733,
      "d": 33.333333333343035,
      "v": 100
    },
    {
      "midi": 69,
      "hit": false,
      "t": 242000.00000000067,
      "d": 75,
      "v": 100
    },
    {
      "midi": 42,
      "hit": false,
      "t": 242000.00000000067,
      "d": 225.0000000000291,
      "v": 90
    },
    {
      "midi": 72,
      "hit": false,
      "t": 242000.00000000067,
      "d": 450.0000000000582,
      "v": 100
    },
    {
      "midi": 76,
      "hit": false,
      "t": 242000.00000000067,
      "d": 450.0000000000582,
      "v": 100
    },
    {
      "midi": 45,
      "hit": false,
      "t": 242000.00000000067,
      "d": 675.0000000000873,
      "v": 100
    },
    {
      "midi": 69,
      "hit": false,
      "t": 242083.333333334,
      "d": 75,
      "v": 100
    },
    {
      "midi": 69,
      "hit": false,
      "t": 242166.66666666736,
      "d": 75,
      "v": 100
    },
    {
      "midi": 69,
      "hit": false,
      "t": 242250.0000000007,
      "d": 75,
      "v": 100
    },
    {
      "midi": 64,
      "hit": false,
      "t": 242250.0000000007,
      "d": 250.0000000000291,
      "v": 100
    },
    {
      "midi": 69,
      "hit": false,
      "t": 242333.33333333404,
      "d": 75,
      "v": 100
    },
    {
      "midi": 69,
      "hit": false,
      "t": 242416.66666666738,
      "d": 33.333333333343035,
      "v": 100
    },
    {
      "midi": 69,
      "hit": false,
      "t": 242500.00000000073,
      "d": 75,
      "v": 100
    },
    {
      "midi": 42,
      "hit": false,
      "t": 242500.00000000073,
      "d": 225.0000000000291,
      "v": 90
    },
    {
      "midi": 62,
      "hit": false,
      "t": 242500.00000000073,
      "d": 250.0000000000291,
      "v": 100
    },
    {
      "midi": 72,
      "hit": false,
      "t": 242500.00000000073,
      "d": 450.0000000000582,
      "v": 100
    },
    {
      "midi": 76,
      "hit": false,
      "t": 242500.00000000073,
      "d": 450.0000000000582,
      "v": 100
    },
    {
      "midi": 69,
      "hit": false,
      "t": 242583.33333333407,
      "d": 75,
      "v": 100
    },
    {
      "midi": 69,
      "hit": false,
      "t": 242666.6666666674,
      "d": 75,
      "v": 100
    },
    {
      "midi": 69,
      "hit": false,
      "t": 242750.00000000076,
      "d": 75,
      "v": 100
    },
    {
      "midi": 45,
      "hit": false,
      "t": 242750.00000000076,
      "d": 225.0000000000291,
      "v": 100
    },
    {
      "midi": 60,
      "hit": false,
      "t": 242750.00000000076,
      "d": 250.0000000000291,
      "v": 100
    },
    {
      "midi": 69,
      "hit": false,
      "t": 242833.3333333341,
      "d": 75,
      "v": 100
    },
    {
      "midi": 69,
      "hit": false,
      "t": 242916.66666666744,
      "d": 33.333333333343035,
      "v": 100
    },
    {
      "midi": 76,
      "hit": false,
      "t": 243000.0000000008,
      "d": 75,
      "v": 100
    },
    {
      "midi": 42,
      "hit": false,
      "t": 243000.0000000008,
      "d": 225.0000000000291,
      "v": 90
    },
    {
      "midi": 45,
      "hit": false,
      "t": 243000.0000000008,
      "d": 450.0000000000582,
      "v": 100
    },
    {
      "midi": 69,
      "hit": false,
      "t": 243000.0000000008,
      "d": 450.0000000000582,
      "v": 100
    },
    {
      "midi": 72,
      "hit": false,
      "t": 243000.0000000008,
      "d": 450.0000000000582,
      "v": 100
    },
    {
      "midi": 57,
      "hit": false,
      "t": 243000.0000000008,
      "d": 500.0000000000582,
      "v": 100
    },
    {
      "midi": 76,
      "hit": false,
      "t": 243083.33333333413,
      "d": 75,
      "v": 100
    },
    {
      "midi": 76,
      "hit": false,
      "t": 243166.66666666747,
      "d": 75,
      "v": 100
    },
    {
      "midi": 76,
      "hit": false,
      "t": 243250.00000000081,
      "d": 75,
      "v": 100
    },
    {
      "midi": 76,
      "hit": false,
      "t": 243333.33333333416,
      "d": 75,
      "v": 100
    },
    {
      "midi": 76,
      "hit": false,
      "t": 243416.6666666675,
      "d": 33.333333333343035,
      "v": 100
    },
    {
      "midi": 74,
      "hit": false,
      "t": 243500.00000000084,
      "d": 75,
      "v": 100
    },
    {
      "midi": 42,
      "hit": false,
      "t": 243500.00000000084,
      "d": 225.0000000000291,
      "v": 90
    },
    {
      "midi": 54,
      "hit": false,
      "t": 243500.00000000084,
      "d": 225.0000000000291,
      "v": 81
    },
    {
      "midi": 69,
      "hit": false,
      "t": 243500.00000000084,
      "d": 450.0000000000582,
      "v": 100
    },
    {
      "midi": 72,
      "hit": false,
      "t": 243500.00000000084,
      "d": 450.0000000000582,
      "v": 100
    },
    {
      "midi": 74,
      "hit": false,
      "t": 243583.3333333342,
      "d": 75,
      "v": 100
    },
    {
      "midi": 74,
      "hit": false,
      "t": 243666.66666666753,
      "d": 75,
      "v": 100
    },
    {
      "midi": 76,
      "hit": false,
      "t": 243750.00000000087,
      "d": 75,
      "v": 100
    },
    {
      "midi": 76,
      "hit": false,
      "t": 243833.33333333422,
      "d": 75,
      "v": 100
    },
    {
      "midi": 76,
      "hit": false,
      "t": 243916.66666666756,
      "d": 33.333333333343035,
      "v": 100
    },
    {
      "midi": 79,
      "hit": false,
      "t": 244000.0000000009,
      "d": 75,
      "v": 100
    },
    {
      "midi": 42,
      "hit": false,
      "t": 244000.0000000009,
      "d": 225.0000000000291,
      "v": 90
    },
    {
      "midi": 67,
      "hit": false,
      "t": 244000.0000000009,
      "d": 450.0000000000582,
      "v": 100
    },
    {
      "midi": 71,
      "hit": false,
      "t": 244000.0000000009,
      "d": 450.0000000000582,
      "v": 100
    },
    {
      "midi": 74,
      "hit": false,
      "t": 244000.0000000009,
      "d": 450.0000000000582,
      "v": 100
    },
    {
      "midi": 40,
      "hit": false,
      "t": 244000.0000000009,
      "d": 675.0000000000873,
      "v": 100
    },
    {
      "midi": 55,
      "hit": false,
      "t": 244000.0000000009,
      "d": 1800.0000000002037,
      "v": 100
    },
    {
      "midi": 59,
      "hit": false,
      "t": 244000.0000000009,
      "d": 1800.0000000002037,
      "v": 100
    },
    {
      "midi": 62,
      "hit": false,
      "t": 244000.0000000009,
      "d": 1800.0000000002037,
      "v": 100
    },
    {
      "midi": 79,
      "hit": false,
      "t": 244083.33333333425,
      "d": 75,
      "v": 100
    },
    {
      "midi": 79,
      "hit": false,
      "t": 244166.6666666676,
      "d": 75,
      "v": 100
    },
    {
      "midi": 79,
      "hit": false,
      "t": 244250.00000000093,
      "d": 75,
      "v": 100
    },
    {
      "midi": 79,
      "hit": false,
      "t": 244333.33333333427,
      "d": 75,
      "v": 100
    },
    {
      "midi": 79,
      "hit": false,
      "t": 244416.66666666762,
      "d": 75,
      "v": 100
    },
    {
      "midi": 76,
      "hit": false,
      "t": 244500.00000000096,
      "d": 75,
      "v": 100
    },
    {
      "midi": 42,
      "hit": false,
      "t": 244500.00000000096,
      "d": 225.0000000000291,
      "v": 90
    },
    {
      "midi": 67,
      "hit": false,
      "t": 244500.00000000096,
      "d": 450.0000000000582,
      "v": 100
    },
    {
      "midi": 71,
      "hit": false,
      "t": 244500.00000000096,
      "d": 450.0000000000582,
      "v": 100
    },
    {
      "midi": 74,
      "hit": false,
      "t": 244500.00000000096,
      "d": 450.0000000000582,
      "v": 100
    },
    {
      "midi": 76,
      "hit": false,
      "t": 244583.3333333343,
      "d": 75,
      "v": 100
    },
    {
      "midi": 76,
      "hit": false,
      "t": 244666.66666666765,
      "d": 75,
      "v": 100
    },
    {
      "midi": 76,
      "hit": false,
      "t": 244750.000000001,
      "d": 75,
      "v": 100
    },
    {
      "midi": 40,
      "hit": false,
      "t": 244750.000000001,
      "d": 225.0000000000291,
      "v": 100
    },
    {
      "midi": 76,
      "hit": false,
      "t": 244833.33333333433,
      "d": 75,
      "v": 100
    },
    {
      "midi": 76,
      "hit": false,
      "t": 244916.66666666768,
      "d": 75,
      "v": 100
    },
    {
      "midi": 74,
      "hit": false,
      "t": 245000.00000000102,
      "d": 75,
      "v": 100
    },
    {
      "midi": 42,
      "hit": false,
      "t": 245000.00000000102,
      "d": 225.0000000000291,
      "v": 90
    },
    {
      "midi": 40,
      "hit": false,
      "t": 245000.00000000102,
      "d": 450.0000000000582,
      "v": 100
    },
    {
      "midi": 67,
      "hit": false,
      "t": 245000.00000000102,
      "d": 450.0000000000582,
      "v": 100
    },
    {
      "midi": 71,
      "hit": false,
      "t": 245000.00000000102,
      "d": 450.0000000000582,
      "v": 100
    },
    {
      "midi": 74,
      "hit": false,
      "t": 245083.33333333436,
      "d": 75,
      "v": 100
    },
    {
      "midi": 74,
      "hit": false,
      "t": 245166.6666666677,
      "d": 75,
      "v": 100
    },
    {
      "midi": 74,
      "hit": false,
      "t": 245250.00000000105,
      "d": 75,
      "v": 100
    },
    {
      "midi": 74,
      "hit": false,
      "t": 245333.3333333344,
      "d": 75,
      "v": 100
    },
    {
      "midi": 74,
      "hit": false,
      "t": 245416.66666666773,
      "d": 33.333333333343035,
      "v": 100
    },
    {
      "midi": 76,
      "hit": false,
      "t": 245500.00000000108,
      "d": 75,
      "v": 100
    },
    {
      "midi": 42,
      "hit": false,
      "t": 245500.00000000108,
      "d": 225.0000000000291,
      "v": 90
    },
    {
      "midi": 54,
      "hit": false,
      "t": 245500.00000000108,
      "d": 225.0000000000291,
      "v": 81
    },
    {
      "midi": 67,
      "hit": false,
      "t": 245500.00000000108,
      "d": 450.0000000000582,
      "v": 100
    },
    {
      "midi": 71,
      "hit": false,
      "t": 245500.00000000108,
      "d": 450.0000000000582,
      "v": 100
    },
    {
      "midi": 74,
      "hit": false,
      "t": 245500.00000000108,
      "d": 450.0000000000582,
      "v": 100
    },
    {
      "midi": 76,
      "hit": false,
      "t": 245583.33333333442,
      "d": 75,
      "v": 100
    },
    {
      "midi": 76,
      "hit": false,
      "t": 245666.66666666776,
      "d": 75,
      "v": 100
    },
    {
      "midi": 76,
      "hit": false,
      "t": 245750.0000000011,
      "d": 75,
      "v": 100
    },
    {
      "midi": 76,
      "hit": false,
      "t": 245833.33333333445,
      "d": 75,
      "v": 100
    },
    {
      "midi": 76,
      "hit": false,
      "t": 245916.6666666678,
      "d": 75,
      "v": 100
    },
    {
      "midi": 81,
      "hit": false,
      "t": 246000.00000000114,
      "d": 75,
      "v": 100
    },
    {
      "midi": 57,
      "hit": false,
      "t": 246000.00000000114,
      "d": 225.0000000000291,
      "v": 81
    },
    {
      "midi": 69,
      "hit": false,
      "t": 246000.00000000114,
      "d": 450.0000000000582,
      "v": 100
    },
    {
      "midi": 72,
      "hit": false,
      "t": 246000.00000000114,
      "d": 450.0000000000582,
      "v": 83
    },
    {
      "midi": 76,
      "hit": false,
      "t": 246000.00000000114,
      "d": 450.0000000000582,
      "v": 100
    },
    {
      "midi": 41,
      "hit": false,
      "t": 246000.00000000114,
      "d": 675.0000000000873,
      "v": 100
    },
    {
      "midi": 53,
      "hit": false,
      "t": 246000.00000000114,
      "d": 1800.0000000001746,
      "v": 100
    },
    {
      "midi": 60,
      "hit": false,
      "t": 246000.00000000114,
      "d": 1800.0000000001746,
      "v": 100
    },
    {
      "midi": 81,
      "hit": false,
      "t": 246083.33333333448,
      "d": 75,
      "v": 100
    },
    {
      "midi": 81,
      "hit": false,
      "t": 246166.66666666782,
      "d": 75,
      "v": 100
    },
    {
      "midi": 81,
      "hit": false,
      "t": 246250.00000000116,
      "d": 75,
      "v": 100
    },
    {
      "midi": 81,
      "hit": false,
      "t": 246333.3333333345,
      "d": 75,
      "v": 100
    },
    {
      "midi": 81,
      "hit": false,
      "t": 246416.66666666785,
      "d": 75,
      "v": 100
    },
    {
      "midi": 81,
      "hit": false,
      "t": 246500.0000000012,
      "d": 75,
      "v": 100
    },
    {
      "midi": 69,
      "hit": false,
      "t": 246500.0000000012,
      "d": 450.0000000000291,
      "v": 100
    },
    {
      "midi": 72,
      "hit": false,
      "t": 246500.0000000012,
      "d": 450.0000000000291,
      "v": 100
    },
    {
      "midi": 76,
      "hit": false,
      "t": 246500.0000000012,
      "d": 450.0000000000291,
      "v": 100
    },
    {
      "midi": 81,
      "hit": false,
      "t": 246583.33333333454,
      "d": 75,
      "v": 100
    },
    {
      "midi": 81,
      "hit": false,
      "t": 246666.66666666788,
      "d": 75,
      "v": 100
    },
    {
      "midi": 81,
      "hit": false,
      "t": 246750.00000000122,
      "d": 75,
      "v": 100
    },
    {
      "midi": 41,
      "hit": false,
      "t": 246750.00000000122,
      "d": 225,
      "v": 100
    },
    {
      "midi": 81,
      "hit": false,
      "t": 246833.33333333457,
      "d": 75,
      "v": 100
    },
    {
      "midi": 81,
      "hit": false,
      "t": 246916.6666666679,
      "d": 74.9999999999709,
      "v": 100
    },
    {
      "midi": 81,
      "hit": false,
      "t": 247000.00000000122,
      "d": 75,
      "v": 100
    },
    {
      "midi": 41,
      "hit": false,
      "t": 247000.00000000122,
      "d": 450.0000000000291,
      "v": 100
    },
    {
      "midi": 69,
      "hit": false,
      "t": 247000.00000000122,
      "d": 450.0000000000291,
      "v": 100
    },
    {
      "midi": 72,
      "hit": false,
      "t": 247000.00000000122,
      "d": 450.0000000000291,
      "v": 100
    },
    {
      "midi": 76,
      "hit": false,
      "t": 247000.00000000122,
      "d": 450.0000000000291,
      "v": 100
    },
    {
      "midi": 81,
      "hit": false,
      "t": 247083.33333333457,
      "d": 75,
      "v": 100
    },
    {
      "midi": 81,
      "hit": false,
      "t": 247166.6666666679,
      "d": 75,
      "v": 100
    },
    {
      "midi": 81,
      "hit": false,
      "t": 247250.00000000125,
      "d": 75,
      "v": 100
    },
    {
      "midi": 81,
      "hit": false,
      "t": 247333.3333333346,
      "d": 75,
      "v": 100
    },
    {
      "midi": 81,
      "hit": false,
      "t": 247416.66666666794,
      "d": 75,
      "v": 100
    },
    {
      "midi": 81,
      "hit": false,
      "t": 247500.00000000128,
      "d": 75,
      "v": 100
    },
    {
      "midi": 69,
      "hit": false,
      "t": 247500.00000000128,
      "d": 450.0000000000582,
      "v": 100
    },
    {
      "midi": 72,
      "hit": false,
      "t": 247500.00000000128,
      "d": 450.0000000000582,
      "v": 100
    },
    {
      "midi": 76,
      "hit": false,
      "t": 247500.00000000128,
      "d": 450.0000000000582,
      "v": 100
    },
    {
      "midi": 81,
      "hit": false,
      "t": 247583.33333333462,
      "d": 75,
      "v": 100
    },
    {
      "midi": 81,
      "hit": false,
      "t": 247666.66666666797,
      "d": 75,
      "v": 100
    },
    {
      "midi": 81,
      "hit": false,
      "t": 247750.0000000013,
      "d": 75,
      "v": 100
    },
    {
      "midi": 81,
      "hit": false,
      "t": 247833.33333333465,
      "d": 75,
      "v": 100
    },
    {
      "midi": 81,
      "hit": false,
      "t": 247916.666666668,
      "d": 75,
      "v": 100
    },
    {
      "midi": 83,
      "hit": false,
      "t": 248000.00000000134,
      "d": 75,
      "v": 100
    },
    {
      "midi": 57,
      "hit": false,
      "t": 248000.00000000134,
      "d": 225.0000000000291,
      "v": 81
    },
    {
      "midi": 67,
      "hit": false,
      "t": 248000.00000000134,
      "d": 450.0000000000582,
      "v": 100
    },
    {
      "midi": 71,
      "hit": false,
      "t": 248000.00000000134,
      "d": 450.0000000000582,
      "v": 100
    },
    {
      "midi": 74,
      "hit": false,
      "t": 248000.00000000134,
      "d": 450.0000000000582,
      "v": 91
    },
    {
      "midi": 43,
      "hit": false,
      "t": 248000.00000000134,
      "d": 675.0000000000873,
      "v": 100
    },
    {
      "midi": 55,
      "hit": false,
      "t": 248000.00000000134,
      "d": 1800.0000000002037,
      "v": 100
    },
    {
      "midi": 59,
      "hit": false,
      "t": 248000.00000000134,
      "d": 1800.0000000002037,
      "v": 100
    },
    {
      "midi": 62,
      "hit": false,
      "t": 248000.00000000134,
      "d": 1800.0000000002037,
      "v": 100
    },
    {
      "midi": 83,
      "hit": false,
      "t": 248083.33333333468,
      "d": 75,
      "v": 100
    },
    {
      "midi": 83,
      "hit": false,
      "t": 248166.66666666802,
      "d": 75,
      "v": 100
    },
    {
      "midi": 83,
      "hit": false,
      "t": 248250.00000000137,
      "d": 75,
      "v": 100
    },
    {
      "midi": 83,
      "hit": false,
      "t": 248333.3333333347,
      "d": 75,
      "v": 100
    },
    {
      "midi": 83,
      "hit": false,
      "t": 248416.66666666805,
      "d": 75,
      "v": 100
    },
    {
      "midi": 83,
      "hit": false,
      "t": 248500.0000000014,
      "d": 75,
      "v": 100
    },
    {
      "midi": 67,
      "hit": false,
      "t": 248500.0000000014,
      "d": 450.0000000000582,
      "v": 100
    },
    {
      "midi": 71,
      "hit": false,
      "t": 248500.0000000014,
      "d": 450.0000000000582,
      "v": 100
    },
    {
      "midi": 74,
      "hit": false,
      "t": 248500.0000000014,
      "d": 450.0000000000582,
      "v": 100
    },
    {
      "midi": 83,
      "hit": false,
      "t": 248583.33333333474,
      "d": 75,
      "v": 100
    },
    {
      "midi": 83,
      "hit": false,
      "t": 248666.66666666808,
      "d": 75,
      "v": 100
    },
    {
      "midi": 83,
      "hit": false,
      "t": 248750.00000000143,
      "d": 75,
      "v": 100
    },
    {
      "midi": 43,
      "hit": false,
      "t": 248750.00000000143,
      "d": 225.0000000000291,
      "v": 100
    },
    {
      "midi": 83,
      "hit": false,
      "t": 248833.33333333477,
      "d": 75,
      "v": 100
    },
    {
      "midi": 83,
      "hit": false,
      "t": 248916.6666666681,
      "d": 75,
      "v": 100
    },
    {
      "midi": 84,
      "hit": false,
      "t": 249000.00000000146,
      "d": 75,
      "v": 100
    },
    {
      "midi": 43,
      "hit": false,
      "t": 249000.00000000146,
      "d": 450.0000000000582,
      "v": 100
    },
    {
      "midi": 67,
      "hit": false,
      "t": 249000.00000000146,
      "d": 450.0000000000582,
      "v": 100
    },
    {
      "midi": 71,
      "hit": false,
      "t": 249000.00000000146,
      "d": 450.0000000000582,
      "v": 100
    },
    {
      "midi": 74,
      "hit": false,
      "t": 249000.00000000146,
      "d": 450.0000000000582,
      "v": 100
    },
    {
      "midi": 84,
      "hit": false,
      "t": 249083.3333333348,
      "d": 75,
      "v": 100
    },
    {
      "midi": 84,
      "hit": false,
      "t": 249166.66666666814,
      "d": 75,
      "v": 100
    },
    {
      "midi": 84,
      "hit": false,
      "t": 249250.00000000148,
      "d": 75,
      "v": 100
    },
    {
      "midi": 84,
      "hit": false,
      "t": 249333.33333333483,
      "d": 75,
      "v": 100
    },
    {
      "midi": 84,
      "hit": false,
      "t": 249416.66666666817,
      "d": 75,
      "v": 100
    },
    {
      "midi": 86,
      "hit": false,
      "t": 249500.0000000015,
      "d": 75,
      "v": 100
    },
    {
      "midi": 50,
      "hit": false,
      "t": 249500.0000000015,
      "d": 166.66666666668607,
      "v": 106
    },
    {
      "midi": 67,
      "hit": false,
      "t": 249500.0000000015,
      "d": 450.0000000000582,
      "v": 100
    },
    {
      "midi": 71,
      "hit": false,
      "t": 249500.0000000015,
      "d": 450.0000000000582,
      "v": 100
    },
    {
      "midi": 74,
      "hit": false,
      "t": 249500.0000000015,
      "d": 450.0000000000582,
      "v": 100
    },
    {
      "midi": 86,
      "hit": false,
      "t": 249583.33333333486,
      "d": 75,
      "v": 100
    },
    {
      "midi": 52,
      "hit": false,
      "t": 249625.00000000154,
      "d": 62.5,
      "v": 106
    },
    {
      "midi": 86,
      "hit": false,
      "t": 249666.6666666682,
      "d": 75,
      "v": 100
    },
    {
      "midi": 86,
      "hit": false,
      "t": 249750.00000000154,
      "d": 75,
      "v": 100
    },
    {
      "midi": 86,
      "hit": false,
      "t": 249833.3333333349,
      "d": 75,
      "v": 100
    },
    {
      "midi": 50,
      "hit": false,
      "t": 249833.3333333349,
      "d": 166.66666666671517,
      "v": 105
    },
    {
      "midi": 86,
      "hit": false,
      "t": 249916.66666666823,
      "d": 75.0000000000291,
      "v": 100
    },
    {
      "midi": 48,
      "hit": false,
      "t": 250000.0000000016,
      "d": 166.66666666665697,
      "v": 100
    },
    {
      "midi": 45,
      "hit": false,
      "t": 250166.66666666826,
      "d": 166.66666666665697,
      "v": 100
    },
    {
      "midi": 40,
      "hit": false,
      "t": 250333.33333333491,
      "d": 166.66666666662786,
      "v": 100
    },
    {
      "midi": 57,
      "hit": false,
      "t": 250500.00000000154,
      "d": 224.99999999988358,
      "v": 81
    },
    {
      "midi": 36,
      "hit": false,
      "t": 250500.00000000154,
      "d": 1499.9999999993015,
      "v": 88
    },
    {
      "midi": 45,
      "hit": false,
      "t": 250500.00000000154,
      "d": 2849.9999999987485,
      "v": 100
    },
    {
      "midi": 60,
      "hit": false,
      "t": 250500.00000000154,
      "d": 2849.9999999987485,
      "v": 90
    },
    {
      "midi": 64,
      "hit": false,
      "t": 250500.00000000154,
      "d": 2849.9999999987485,
      "v": 91
    },
    {
      "midi": 69,
      "hit": false,
      "t": 250500.00000000154,
      "d": 2849.9999999987485,
      "v": 100
    },
    {
      "midi": 72,
      "hit": false,
      "t": 250500.00000000154,
      "d": 2849.9999999987485,
      "v": 100
    },
    {
      "midi": 76,
      "hit": false,
      "t": 250500.00000000154,
      "d": 2849.9999999987485,
      "v": 100
    }
  ]
}