{
  "jsonPath": "Animes/Ranma ½ MIDI Collection/hard-battle-theme.json",
  "path": "Animes\\Ranma ½ MIDI Collection\\Hard battle theme.mid",
  "name": "Hard battle theme",
  "difficulty": "Advanced",
  "bpm": 128,
  "notes": [
    {
      "midi": 38,
      "hit": false,
      "t": 2343.75,
      "d": 464.84375,
      "v": 127
    },
    {
      "midi": 35,
      "hit": false,
      "t": 3046.875,
      "d": 230.46875,
      "v": 127
    },
    {
      "midi": 38,
      "hit": false,
      "t": 3046.875,
      "d": 230.46875,
      "v": 127
    },
    {
      "midi": 35,
      "hit": false,
      "t": 3281.25,
      "d": 230.46875,
      "v": 127
    },
    {
      "midi": 38,
      "hit": false,
      "t": 3281.25,
      "d": 230.46875,
      "v": 127
    },
    {
      "midi": 35,
      "hit": false,
      "t": 3515.625,
      "d": 230.46875,
      "v": 127
    },
    {
      "midi": 38,
      "hit": false,
      "t": 3515.625,
      "d": 230.46875,
      "v": 127
    },
    {
      "midi": 70,
      "hit": false,
      "t": 3750,
      "d": 699.21875,
      "v": 127
    },
    {
      "midi": 77,
      "hit": false,
      "t": 3750,
      "d": 230.46875,
      "v": 127
    },
    {
      "midi": 77,
      "hit": false,
      "t": 3750,
      "d": 230.46875,
      "v": 127
    },
    {
      "midi": 67,
      "hit": false,
      "t": 3750,
      "d": 699.21875,
      "v": 114
    },
    {
      "midi": 63,
      "hit": false,
      "t": 3750,
      "d": 699.21875,
      "v": 124
    },
    {
      "midi": 39,
      "hit": false,
      "t": 3750,
      "d": 230.46875,
      "v": 127
    },
    {
      "midi": 35,
      "hit": false,
      "t": 3750,
      "d": 464.84375,
      "v": 127
    },
    {
      "midi": 42,
      "hit": false,
      "t": 3750,
      "d": 230.46875,
      "v": 127
    },
    {
      "midi": 79,
      "hit": false,
      "t": 3984.375,
      "d": 230.46875,
      "v": 127
    },
    {
      "midi": 79,
      "hit": false,
      "t": 3984.375,
      "d": 230.46875,
      "v": 127
    },
    {
      "midi": 39,
      "hit": false,
      "t": 3984.375,
      "d": 230.46875,
      "v": 127
    },
    {
      "midi": 42,
      "hit": false,
      "t": 3984.375,
      "d": 113.28125,
      "v": 127
    },
    {
      "midi": 42,
      "hit": false,
      "t": 4101.5625,
      "d": 113.28125,
      "v": 127
    },
    {
      "midi": 79,
      "hit": false,
      "t": 4218.75,
      "d": 230.46875,
      "v": 127
    },
    {
      "midi": 79,
      "hit": false,
      "t": 4218.75,
      "d": 230.46875,
      "v": 127
    },
    {
      "midi": 39,
      "hit": false,
      "t": 4218.75,
      "d": 230.46875,
      "v": 127
    },
    {
      "midi": 35,
      "hit": false,
      "t": 4218.75,
      "d": 464.84375,
      "v": 127
    },
    {
      "midi": 38,
      "hit": false,
      "t": 4218.75,
      "d": 464.84375,
      "v": 127
    },
    {
      "midi": 42,
      "hit": false,
      "t": 4218.75,
      "d": 230.46875,
      "v": 127
    },
    {
      "midi": 70,
      "hit": false,
      "t": 4453.125,
      "d": 230.46875,
      "v": 127
    },
    {
      "midi": 77,
      "hit": false,
      "t": 4453.125,
      "d": 230.46875,
      "v": 127
    },
    {
      "midi": 77,
      "hit": false,
      "t": 4453.125,
      "d": 230.46875,
      "v": 127
    },
    {
      "midi": 67,
      "hit": false,
      "t": 4453.125,
      "d": 230.46875,
      "v": 114
    },
    {
      "midi": 63,
      "hit": false,
      "t": 4453.125,
      "d": 230.46875,
      "v": 124
    },
    {
      "midi": 39,
      "hit": false,
      "t": 4453.125,
      "d": 230.46875,
      "v": 127
    },
    {
      "midi": 42,
      "hit": false,
      "t": 4453.125,
      "d": 113.28125,
      "v": 127
    },
    {
      "midi": 42,
      "hit": false,
      "t": 4570.3125,
      "d": 113.28125,
      "v": 127
    },
    {
      "midi": 70,
      "hit": false,
      "t": 4687.5,
      "d": 933.59375,
      "v": 127
    },
    {
      "midi": 79,
      "hit": false,
      "t": 4687.5,
      "d": 1167.96875,
      "v": 127
    },
    {
      "midi": 79,
      "hit": false,
      "t": 4687.5,
      "d": 1167.96875,
      "v": 127
    },
    {
      "midi": 67,
      "hit": false,
      "t": 4687.5,
      "d": 933.59375,
      "v": 114
    },
    {
      "midi": 63,
      "hit": false,
      "t": 4687.5,
      "d": 933.59375,
      "v": 124
    },
    {
      "midi": 39,
      "hit": false,
      "t": 4687.5,
      "d": 230.46875,
      "v": 127
    },
    {
      "midi": 35,
      "hit": false,
      "t": 4687.5,
      "d": 464.84375,
      "v": 127
    },
    {
      "midi": 42,
      "hit": false,
      "t": 4687.5,
      "d": 230.46875,
      "v": 127
    },
    {
      "midi": 39,
      "hit": false,
      "t": 4921.875,
      "d": 230.46875,
      "v": 127
    },
    {
      "midi": 42,
      "hit": false,
      "t": 4921.875,
      "d": 113.28125,
      "v": 127
    },
    {
      "midi": 42,
      "hit": false,
      "t": 5039.0625,
      "d": 113.28125,
      "v": 127
    },
    {
      "midi": 39,
      "hit": false,
      "t": 5156.25,
      "d": 230.46875,
      "v": 127
    },
    {
      "midi": 35,
      "hit": false,
      "t": 5156.25,
      "d": 464.84375,
      "v": 127
    },
    {
      "midi": 38,
      "hit": false,
      "t": 5156.25,
      "d": 464.84375,
      "v": 127
    },
    {
      "midi": 42,
      "hit": false,
      "t": 5156.25,
      "d": 230.46875,
      "v": 127
    },
    {
      "midi": 39,
      "hit": false,
      "t": 5390.625,
      "d": 230.46875,
      "v": 127
    },
    {
      "midi": 42,
      "hit": false,
      "t": 5390.625,
      "d": 113.28125,
      "v": 127
    },
    {
      "midi": 42,
      "hit": false,
      "t": 5507.8125,
      "d": 113.28125,
      "v": 127
    },
    {
      "midi": 70,
      "hit": false,
      "t": 5625,
      "d": 933.59375,
      "v": 127
    },
    {
      "midi": 67,
      "hit": false,
      "t": 5625,
      "d": 933.59375,
      "v": 114
    },
    {
      "midi": 63,
      "hit": false,
      "t": 5625,
      "d": 933.59375,
      "v": 124
    },
    {
      "midi": 39,
      "hit": false,
      "t": 5625,
      "d": 230.46875,
      "v": 127
    },
    {
      "midi": 35,
      "hit": false,
      "t": 5625,
      "d": 464.84375,
      "v": 127
    },
    {
      "midi": 42,
      "hit": false,
      "t": 5625,
      "d": 230.46875,
      "v": 127
    },
    {
      "midi": 77,
      "hit": false,
      "t": 5859.375,
      "d": 230.46875,
      "v": 127
    },
    {
      "midi": 77,
      "hit": false,
      "t": 5859.375,
      "d": 230.46875,
      "v": 127
    },
    {
      "midi": 39,
      "hit": false,
      "t": 5859.375,
      "d": 230.46875,
      "v": 127
    },
    {
      "midi": 42,
      "hit": false,
      "t": 5859.375,
      "d": 113.28125,
      "v": 127
    },
    {
      "midi": 42,
      "hit": false,
      "t": 5976.5625,
      "d": 113.28125,
      "v": 127
    },
    {
      "midi": 79,
      "hit": false,
      "t": 6093.75,
      "d": 230.46875,
      "v": 127
    },
    {
      "midi": 79,
      "hit": false,
      "t": 6093.75,
      "d": 230.46875,
      "v": 127
    },
    {
      "midi": 39,
      "hit": false,
      "t": 6093.75,
      "d": 230.46875,
      "v": 127
    },
    {
      "midi": 35,
      "hit": false,
      "t": 6093.75,
      "d": 464.84375,
      "v": 127
    },
    {
      "midi": 38,
      "hit": false,
      "t": 6093.75,
      "d": 464.84375,
      "v": 127
    },
    {
      "midi": 42,
      "hit": false,
      "t": 6093.75,
      "d": 230.46875,
      "v": 127
    },
    {
      "midi": 80,
      "hit": false,
      "t": 6328.125,
      "d": 230.46875,
      "v": 127
    },
    {
      "midi": 80,
      "hit": false,
      "t": 6328.125,
      "d": 230.46875,
      "v": 127
    },
    {
      "midi": 39,
      "hit": false,
      "t": 6328.125,
      "d": 230.46875,
      "v": 127
    },
    {
      "midi": 42,
      "hit": false,
      "t": 6328.125,
      "d": 113.28125,
      "v": 127
    },
    {
      "midi": 42,
      "hit": false,
      "t": 6445.3125,
      "d": 113.28125,
      "v": 127
    },
    {
      "midi": 70,
      "hit": false,
      "t": 6562.5,
      "d": 464.84375,
      "v": 127
    },
    {
      "midi": 79,
      "hit": false,
      "t": 6562.5,
      "d": 464.84375,
      "v": 127
    },
    {
      "midi": 79,
      "hit": false,
      "t": 6562.5,
      "d": 464.84375,
      "v": 127
    },
    {
      "midi": 67,
      "hit": false,
      "t": 6562.5,
      "d": 464.84375,
      "v": 114
    },
    {
      "midi": 63,
      "hit": false,
      "t": 6562.5,
      "d": 464.84375,
      "v": 124
    },
    {
      "midi": 39,
      "hit": false,
      "t": 6562.5,
      "d": 230.46875,
      "v": 127
    },
    {
      "midi": 35,
      "hit": false,
      "t": 6562.5,
      "d": 464.84375,
      "v": 127
    },
    {
      "midi": 42,
      "hit": false,
      "t": 6562.5,
      "d": 230.46875,
      "v": 127
    },
    {
      "midi": 39,
      "hit": false,
      "t": 6796.875,
      "d": 230.46875,
      "v": 127
    },
    {
      "midi": 42,
      "hit": false,
      "t": 6796.875,
      "d": 113.28125,
      "v": 127
    },
    {
      "midi": 42,
      "hit": false,
      "t": 6914.0625,
      "d": 113.28125,
      "v": 127
    },
    {
      "midi": 70,
      "hit": false,
      "t": 7031.25,
      "d": 464.84375,
      "v": 127
    },
    {
      "midi": 77,
      "hit": false,
      "t": 7031.25,
      "d": 464.84375,
      "v": 127
    },
    {
      "midi": 77,
      "hit": false,
      "t": 7031.25,
      "d": 699.21875,
      "v": 127
    },
    {
      "midi": 65,
      "hit": false,
      "t": 7031.25,
      "d": 464.84375,
      "v": 114
    },
    {
      "midi": 62,
      "hit": false,
      "t": 7031.25,
      "d": 464.84375,
      "v": 124
    },
    {
      "midi": 38,
      "hit": false,
      "t": 7031.25,
      "d": 230.46875,
      "v": 127
    },
    {
      "midi": 35,
      "hit": false,
      "t": 7031.25,
      "d": 464.84375,
      "v": 127
    },
    {
      "midi": 38,
      "hit": false,
      "t": 7031.25,
      "d": 464.84375,
      "v": 127
    },
    {
      "midi": 42,
      "hit": false,
      "t": 7031.25,
      "d": 230.46875,
      "v": 127
    },
    {
      "midi": 38,
      "hit": false,
      "t": 7265.625,
      "d": 230.46875,
      "v": 127
    },
    {
      "midi": 42,
      "hit": false,
      "t": 7265.625,
      "d": 113.28125,
      "v": 127
    },
    {
      "midi": 42,
      "hit": false,
      "t": 7382.8125,
      "d": 113.28125,
      "v": 127
    },
    {
      "midi": 67,
      "hit": false,
      "t": 7500,
      "d": 699.21875,
      "v": 127
    },
    {
      "midi": 77,
      "hit": false,
      "t": 7500,
      "d": 230.46875,
      "v": 127
    },
    {
      "midi": 63,
      "hit": false,
      "t": 7500,
      "d": 699.21875,
      "v": 114
    },
    {
      "midi": 60,
      "hit": false,
      "t": 7500,
      "d": 699.21875,
      "v": 124
    },
    {
      "midi": 36,
      "hit": false,
      "t": 7500,
      "d": 230.46875,
      "v": 127
    },
    {
      "midi": 35,
      "hit": false,
      "t": 7500,
      "d": 464.84375,
      "v": 127
    },
    {
      "midi": 42,
      "hit": false,
      "t": 7500,
      "d": 230.46875,
      "v": 127
    },
    {
      "midi": 79,
      "hit": false,
      "t": 7734.375,
      "d": 230.46875,
      "v": 127
    },
    {
      "midi": 79,
      "hit": false,
      "t": 7734.375,
      "d": 230.46875,
      "v": 127
    },
    {
      "midi": 36,
      "hit": false,
      "t": 7734.375,
      "d": 230.46875,
      "v": 127
    },
    {
      "midi": 42,
      "hit": false,
      "t": 7734.375,
      "d": 113.28125,
      "v": 127
    },
    {
      "midi": 42,
      "hit": false,
      "t": 7851.5625,
      "d": 113.28125,
      "v": 127
    },
    {
      "midi": 79,
      "hit": false,
      "t": 7968.75,
      "d": 230.46875,
      "v": 127
    },
    {
      "midi": 79,
      "hit": false,
      "t": 7968.75,
      "d": 230.46875,
      "v": 127
    },
    {
      "midi": 36,
      "hit": false,
      "t": 7968.75,
      "d": 230.46875,
      "v": 127
    },
    {
      "midi": 35,
      "hit": false,
      "t": 7968.75,
      "d": 464.84375,
      "v": 127
    },
    {
      "midi": 38,
      "hit": false,
      "t": 7968.75,
      "d": 464.84375,
      "v": 127
    },
    {
      "midi": 42,
      "hit": false,
      "t": 7968.75,
      "d": 230.46875,
      "v": 127
    },
    {
      "midi": 67,
      "hit": false,
      "t": 8203.125,
      "d": 230.46875,
      "v": 127
    },
    {
      "midi": 77,
      "hit": false,
      "t": 8203.125,
      "d": 230.46875,
      "v": 127
    },
    {
      "midi": 77,
      "hit": false,
      "t": 8203.125,
      "d": 230.46875,
      "v": 127
    },
    {
      "midi": 63,
      "hit": false,
      "t": 8203.125,
      "d": 230.46875,
      "v": 114
    },
    {
      "midi": 60,
      "hit": false,
      "t": 8203.125,
      "d": 230.46875,
      "v": 124
    },
    {
      "midi": 36,
      "hit": false,
      "t": 8203.125,
      "d": 230.46875,
      "v": 127
    },
    {
      "midi": 42,
      "hit": false,
      "t": 8203.125,
      "d": 113.28125,
      "v": 127
    },
    {
      "midi": 42,
      "hit": false,
      "t": 8320.3125,
      "d": 113.28125,
      "v": 127
    },
    {
      "midi": 67,
      "hit": false,
      "t": 8437.5,
      "d": 933.59375,
      "v": 127
    },
    {
      "midi": 79,
      "hit": false,
      "t": 8437.5,
      "d": 1167.96875,
      "v": 127
    },
    {
      "midi": 79,
      "hit": false,
      "t": 8437.5,
      "d": 1167.96875,
      "v": 127
    },
    {
      "midi": 63,
      "hit": false,
      "t": 8437.5,
      "d": 933.59375,
      "v": 114
    },
    {
      "midi": 60,
      "hit": false,
      "t": 8437.5,
      "d": 933.59375,
      "v": 124
    },
    {
      "midi": 36,
      "hit": false,
      "t": 8437.5,
      "d": 230.46875,
      "v": 127
    },
    {
      "midi": 35,
      "hit": false,
      "t": 8437.5,
      "d": 464.84375,
      "v": 127
    },
    {
      "midi": 42,
      "hit": false,
      "t": 8437.5,
      "d": 230.46875,
      "v": 127
    },
    {
      "midi": 36,
      "hit": false,
      "t": 8671.875,
      "d": 230.46875,
      "v": 127
    },
    {
      "midi": 42,
      "hit": false,
      "t": 8671.875,
      "d": 113.28125,
      "v": 127
    },
    {
      "midi": 42,
      "hit": false,
      "t": 8789.0625,
      "d": 113.28125,
      "v": 127
    },
    {
      "midi": 36,
      "hit": false,
      "t": 8906.25,
      "d": 230.46875,
      "v": 127
    },
    {
      "midi": 35,
      "hit": false,
      "t": 8906.25,
      "d": 464.84375,
      "v": 127
    },
    {
      "midi": 38,
      "hit": false,
      "t": 8906.25,
      "d": 464.84375,
      "v": 127
    },
    {
      "midi": 42,
      "hit": false,
      "t": 8906.25,
      "d": 230.46875,
      "v": 127
    },
    {
      "midi": 36,
      "hit": false,
      "t": 9140.625,
      "d": 230.46875,
      "v": 127
    },
    {
      "midi": 42,
      "hit": false,
      "t": 9140.625,
      "d": 113.28125,
      "v": 127
    },
    {
      "midi": 42,
      "hit": false,
      "t": 9257.8125,
      "d": 113.28125,
      "v": 127
    },
    {
      "midi": 67,
      "hit": false,
      "t": 9375,
      "d": 933.59375,
      "v": 127
    },
    {
      "midi": 63,
      "hit": false,
      "t": 9375,
      "d": 933.59375,
      "v": 114
    },
    {
      "midi": 60,
      "hit": false,
      "t": 9375,
      "d": 933.59375,
      "v": 124
    },
    {
      "midi": 36,
      "hit": false,
      "t": 9375,
      "d": 230.46875,
      "v": 127
    },
    {
      "midi": 35,
      "hit": false,
      "t": 9375,
      "d": 464.84375,
      "v": 127
    },
    {
      "midi": 42,
      "hit": false,
      "t": 9375,
      "d": 230.46875,
      "v": 127
    },
    {
      "midi": 77,
      "hit": false,
      "t": 9609.375,
      "d": 230.46875,
      "v": 127
    },
    {
      "midi": 77,
      "hit": false,
      "t": 9609.375,
      "d": 230.46875,
      "v": 127
    },
    {
      "midi": 36,
      "hit": false,
      "t": 9609.375,
      "d": 230.46875,
      "v": 127
    },
    {
      "midi": 42,
      "hit": false,
      "t": 9609.375,
      "d": 113.28125,
      "v": 127
    },
    {
      "midi": 42,
      "hit": false,
      "t": 9726.5625,
      "d": 113.28125,
      "v": 127
    },
    {
      "midi": 79,
      "hit": false,
      "t": 9843.75,
      "d": 230.46875,
      "v": 127
    },
    {
      "midi": 79,
      "hit": false,
      "t": 9843.75,
      "d": 230.46875,
      "v": 127
    },
    {
      "midi": 36,
      "hit": false,
      "t": 9843.75,
      "d": 230.46875,
      "v": 127
    },
    {
      "midi": 35,
      "hit": false,
      "t": 9843.75,
      "d": 464.84375,
      "v": 127
    },
    {
      "midi": 38,
      "hit": false,
      "t": 9843.75,
      "d": 464.84375,
      "v": 127
    },
    {
      "midi": 42,
      "hit": false,
      "t": 9843.75,
      "d": 230.46875,
      "v": 127
    },
    {
      "midi": 82,
      "hit": false,
      "t": 10078.125,
      "d": 230.46875,
      "v": 127
    },
    {
      "midi": 82,
      "hit": false,
      "t": 10078.125,
      "d": 230.46875,
      "v": 127
    },
    {
      "midi": 36,
      "hit": false,
      "t": 10078.125,
      "d": 230.46875,
      "v": 127
    },
    {
      "midi": 42,
      "hit": false,
      "t": 10078.125,
      "d": 113.28125,
      "v": 127
    },
    {
      "midi": 42,
      "hit": false,
      "t": 10195.3125,
      "d": 113.28125,
      "v": 127
    },
    {
      "midi": 67,
      "hit": false,
      "t": 10312.5,
      "d": 464.84375,
      "v": 127
    },
    {
      "midi": 79,
      "hit": false,
      "t": 10312.5,
      "d": 464.84375,
      "v": 127
    },
    {
      "midi": 79,
      "hit": false,
      "t": 10312.5,
      "d": 230.46875,
      "v": 127
    },
    {
      "midi": 63,
      "hit": false,
      "t": 10312.5,
      "d": 464.84375,
      "v": 114
    },
    {
      "midi": 60,
      "hit": false,
      "t": 10312.5,
      "d": 464.84375,
      "v": 124
    },
    {
      "midi": 36,
      "hit": false,
      "t": 10312.5,
      "d": 230.46875,
      "v": 127
    },
    {
      "midi": 35,
      "hit": false,
      "t": 10312.5,
      "d": 464.84375,
      "v": 127
    },
    {
      "midi": 42,
      "hit": false,
      "t": 10312.5,
      "d": 230.46875,
      "v": 127
    },
    {
      "midi": 80,
      "hit": false,
      "t": 10546.875,
      "d": 113.28125,
      "v": 127
    },
    {
      "midi": 36,
      "hit": false,
      "t": 10546.875,
      "d": 230.46875,
      "v": 127
    },
    {
      "midi": 42,
      "hit": false,
      "t": 10546.875,
      "d": 113.28125,
      "v": 127
    },
    {
      "midi": 79,
      "hit": false,
      "t": 10664.0625,
      "d": 113.28125,
      "v": 127
    },
    {
      "midi": 42,
      "hit": false,
      "t": 10664.0625,
      "d": 113.28125,
      "v": 127
    },
    {
      "midi": 65,
      "hit": false,
      "t": 10781.25,
      "d": 464.84375,
      "v": 127
    },
    {
      "midi": 77,
      "hit": false,
      "t": 10781.25,
      "d": 464.84375,
      "v": 127
    },
    {
      "midi": 77,
      "hit": false,
      "t": 10781.25,
      "d": 464.84375,
      "v": 127
    },
    {
      "midi": 62,
      "hit": false,
      "t": 10781.25,
      "d": 464.84375,
      "v": 114
    },
    {
      "midi": 58,
      "hit": false,
      "t": 10781.25,
      "d": 464.84375,
      "v": 124
    },
    {
      "midi": 34,
      "hit": false,
      "t": 10781.25,
      "d": 230.46875,
      "v": 127
    },
    {
      "midi": 35,
      "hit": false,
      "t": 10781.25,
      "d": 464.84375,
      "v": 127
    },
    {
      "midi": 38,
      "hit": false,
      "t": 10781.25,
      "d": 464.84375,
      "v": 127
    },
    {
      "midi": 42,
      "hit": false,
      "t": 10781.25,
      "d": 230.46875,
      "v": 127
    },
    {
      "midi": 34,
      "hit": false,
      "t": 11015.625,
      "d": 230.46875,
      "v": 127
    },
    {
      "midi": 42,
      "hit": false,
      "t": 11015.625,
      "d": 113.28125,
      "v": 127
    },
    {
      "midi": 42,
      "hit": false,
      "t": 11132.8125,
      "d": 113.28125,
      "v": 127
    },
    {
      "midi": 68,
      "hit": false,
      "t": 11250,
      "d": 699.21875,
      "v": 127
    },
    {
      "midi": 79,
      "hit": false,
      "t": 11250,
      "d": 230.46875,
      "v": 127
    },
    {
      "midi": 79,
      "hit": false,
      "t": 11250,
      "d": 230.46875,
      "v": 127
    },
    {
      "midi": 63,
      "hit": false,
      "t": 11250,
      "d": 699.21875,
      "v": 114
    },
    {
      "midi": 60,
      "hit": false,
      "t": 11250,
      "d": 699.21875,
      "v": 124
    },
    {
      "midi": 32,
      "hit": false,
      "t": 11250,
      "d": 230.46875,
      "v": 127
    },
    {
      "midi": 35,
      "hit": false,
      "t": 11250,
      "d": 464.84375,
      "v": 127
    },
    {
      "midi": 42,
      "hit": false,
      "t": 11250,
      "d": 230.46875,
      "v": 127
    },
    {
      "midi": 80,
      "hit": false,
      "t": 11484.375,
      "d": 230.46875,
      "v": 127
    },
    {
      "midi": 80,
      "hit": false,
      "t": 11484.375,
      "d": 230.46875,
      "v": 127
    },
    {
      "midi": 32,
      "hit": false,
      "t": 11484.375,
      "d": 230.46875,
      "v": 127
    },
    {
      "midi": 42,
      "hit": false,
      "t": 11484.375,
      "d": 113.28125,
      "v": 127
    },
    {
      "midi": 42,
      "hit": false,
      "t": 11601.5625,
      "d": 113.28125,
      "v": 127
    },
    {
      "midi": 80,
      "hit": false,
      "t": 11718.75,
      "d": 230.46875,
      "v": 127
    },
    {
      "midi": 80,
      "hit": false,
      "t": 11718.75,
      "d": 230.46875,
      "v": 127
    },
    {
      "midi": 32,
      "hit": false,
      "t": 11718.75,
      "d": 230.46875,
      "v": 127
    },
    {
      "midi": 35,
      "hit": false,
      "t": 11718.75,
      "d": 464.84375,
      "v": 127
    },
    {
      "midi": 38,
      "hit": false,
      "t": 11718.75,
      "d": 464.84375,
      "v": 127
    },
    {
      "midi": 42,
      "hit": false,
      "t": 11718.75,
      "d": 230.46875,
      "v": 127
    },
    {
      "midi": 68,
      "hit": false,
      "t": 11953.125,
      "d": 230.46875,
      "v": 127
    },
    {
      "midi": 79,
      "hit": false,
      "t": 11953.125,
      "d": 230.46875,
      "v": 127
    },
    {
      "midi": 79,
      "hit": false,
      "t": 11953.125,
      "d": 230.46875,
      "v": 127
    },
    {
      "midi": 63,
      "hit": false,
      "t": 11953.125,
      "d": 230.46875,
      "v": 114
    },
    {
      "midi": 60,
      "hit": false,
      "t": 11953.125,
      "d": 230.46875,
      "v": 124
    },
    {
      "midi": 32,
      "hit": false,
      "t": 11953.125,
      "d": 230.46875,
      "v": 127
    },
    {
      "midi": 42,
      "hit": false,
      "t": 11953.125,
      "d": 113.28125,
      "v": 127
    },
    {
      "midi": 42,
      "hit": false,
      "t": 12070.3125,
      "d": 113.28125,
      "v": 127
    },
    {
      "midi": 68,
      "hit": false,
      "t": 12187.5,
      "d": 933.59375,
      "v": 127
    },
    {
      "midi": 80,
      "hit": false,
      "t": 12187.5,
      "d": 1167.96875,
      "v": 127
    },
    {
      "midi": 80,
      "hit": false,
      "t": 12187.5,
      "d": 1167.96875,
      "v": 127
    },
    {
      "midi": 63,
      "hit": false,
      "t": 12187.5,
      "d": 933.59375,
      "v": 114
    },
    {
      "midi": 60,
      "hit": false,
      "t": 12187.5,
      "d": 933.59375,
      "v": 124
    },
    {
      "midi": 32,
      "hit": false,
      "t": 12187.5,
      "d": 230.46875,
      "v": 127
    },
    {
      "midi": 35,
      "hit": false,
      "t": 12187.5,
      "d": 464.84375,
      "v": 127
    },
    {
      "midi": 42,
      "hit": false,
      "t": 12187.5,
      "d": 230.46875,
      "v": 127
    },
    {
      "midi": 32,
      "hit": false,
      "t": 12421.875,
      "d": 230.46875,
      "v": 127
    },
    {
      "midi": 42,
      "hit": false,
      "t": 12421.875,
      "d": 113.28125,
      "v": 127
    },
    {
      "midi": 42,
      "hit": false,
      "t": 12539.0625,
      "d": 113.28125,
      "v": 127
    },
    {
      "midi": 32,
      "hit": false,
      "t": 12656.25,
      "d": 230.46875,
      "v": 127
    },
    {
      "midi": 35,
      "hit": false,
      "t": 12656.25,
      "d": 464.84375,
      "v": 127
    },
    {
      "midi": 38,
      "hit": false,
      "t": 12656.25,
      "d": 464.84375,
      "v": 127
    },
    {
      "midi": 42,
      "hit": false,
      "t": 12656.25,
      "d": 230.46875,
      "v": 127
    },
    {
      "midi": 32,
      "hit": false,
      "t": 12890.625,
      "d": 230.46875,
      "v": 127
    },
    {
      "midi": 42,
      "hit": false,
      "t": 12890.625,
      "d": 113.28125,
      "v": 127
    },
    {
      "midi": 42,
      "hit": false,
      "t": 13007.8125,
      "d": 113.28125,
      "v": 127
    },
    {
      "midi": 68,
      "hit": false,
      "t": 13125,
      "d": 933.59375,
      "v": 127
    },
    {
      "midi": 63,
      "hit": false,
      "t": 13125,
      "d": 933.59375,
      "v": 114
    },
    {
      "midi": 60,
      "hit": false,
      "t": 13125,
      "d": 933.59375,
      "v": 124
    },
    {
      "midi": 32,
      "hit": false,
      "t": 13125,
      "d": 230.46875,
      "v": 127
    },
    {
      "midi": 35,
      "hit": false,
      "t": 13125,
      "d": 464.84375,
      "v": 127
    },
    {
      "midi": 42,
      "hit": false,
      "t": 13125,
      "d": 230.46875,
      "v": 127
    },
    {
      "midi": 79,
      "hit": false,
      "t": 13359.375,
      "d": 230.46875,
      "v": 127
    },
    {
      "midi": 79,
      "hit": false,
      "t": 13359.375,
      "d": 230.46875,
      "v": 127
    },
    {
      "midi": 32,
      "hit": false,
      "t": 13359.375,
      "d": 230.46875,
      "v": 127
    },
    {
      "midi": 42,
      "hit": false,
      "t": 13359.375,
      "d": 113.28125,
      "v": 127
    },
    {
      "midi": 42,
      "hit": false,
      "t": 13476.5625,
      "d": 113.28125,
      "v": 127
    },
    {
      "midi": 80,
      "hit": false,
      "t": 13593.75,
      "d": 230.46875,
      "v": 127
    },
    {
      "midi": 80,
      "hit": false,
      "t": 13593.75,
      "d": 230.46875,
      "v": 127
    },
    {
      "midi": 32,
      "hit": false,
      "t": 13593.75,
      "d": 230.46875,
      "v": 127
    },
    {
      "midi": 35,
      "hit": false,
      "t": 13593.75,
      "d": 464.84375,
      "v": 127
    },
    {
      "midi": 38,
      "hit": false,
      "t": 13593.75,
      "d": 464.84375,
      "v": 127
    },
    {
      "midi": 42,
      "hit": false,
      "t": 13593.75,
      "d": 230.46875,
      "v": 127
    },
    {
      "midi": 82,
      "hit": false,
      "t": 13828.125,
      "d": 230.46875,
      "v": 127
    },
    {
      "midi": 82,
      "hit": false,
      "t": 13828.125,
      "d": 230.46875,
      "v": 127
    },
    {
      "midi": 32,
      "hit": false,
      "t": 13828.125,
      "d": 230.46875,
      "v": 127
    },
    {
      "midi": 42,
      "hit": false,
      "t": 13828.125,
      "d": 113.28125,
      "v": 127
    },
    {
      "midi": 42,
      "hit": false,
      "t": 13945.3125,
      "d": 113.28125,
      "v": 127
    },
    {
      "midi": 68,
      "hit": false,
      "t": 14062.5,
      "d": 464.84375,
      "v": 127
    },
    {
      "midi": 80,
      "hit": false,
      "t": 14062.5,
      "d": 464.84375,
      "v": 127
    },
    {
      "midi": 80,
      "hit": false,
      "t": 14062.5,
      "d": 464.84375,
      "v": 127
    },
    {
      "midi": 63,
      "hit": false,
      "t": 14062.5,
      "d": 464.84375,
      "v": 114
    },
    {
      "midi": 60,
      "hit": false,
      "t": 14062.5,
      "d": 464.84375,
      "v": 124
    },
    {
      "midi": 32,
      "hit": false,
      "t": 14062.5,
      "d": 230.46875,
      "v": 127
    },
    {
      "midi": 35,
      "hit": false,
      "t": 14062.5,
      "d": 464.84375,
      "v": 127
    },
    {
      "midi": 42,
      "hit": false,
      "t": 14062.5,
      "d": 230.46875,
      "v": 127
    },
    {
      "midi": 32,
      "hit": false,
      "t": 14296.875,
      "d": 230.46875,
      "v": 127
    },
    {
      "midi": 42,
      "hit": false,
      "t": 14296.875,
      "d": 113.28125,
      "v": 127
    },
    {
      "midi": 42,
      "hit": false,
      "t": 14414.0625,
      "d": 113.28125,
      "v": 127
    },
    {
      "midi": 67,
      "hit": false,
      "t": 14531.25,
      "d": 464.84375,
      "v": 127
    },
    {
      "midi": 79,
      "hit": false,
      "t": 14531.25,
      "d": 464.84375,
      "v": 127
    },
    {
      "midi": 79,
      "hit": false,
      "t": 14531.25,
      "d": 464.84375,
      "v": 127
    },
    {
      "midi": 63,
      "hit": false,
      "t": 14531.25,
      "d": 464.84375,
      "v": 114
    },
    {
      "midi": 60,
      "hit": false,
      "t": 14531.25,
      "d": 464.84375,
      "v": 124
    },
    {
      "midi": 31,
      "hit": false,
      "t": 14531.25,
      "d": 230.46875,
      "v": 127
    },
    {
      "midi": 35,
      "hit": false,
      "t": 14531.25,
      "d": 464.84375,
      "v": 127
    },
    {
      "midi": 38,
      "hit": false,
      "t": 14531.25,
      "d": 464.84375,
      "v": 127
    },
    {
      "midi": 42,
      "hit": false,
      "t": 14531.25,
      "d": 230.46875,
      "v": 127
    },
    {
      "midi": 31,
      "hit": false,
      "t": 14765.625,
      "d": 230.46875,
      "v": 127
    },
    {
      "midi": 42,
      "hit": false,
      "t": 14765.625,
      "d": 113.28125,
      "v": 127
    },
    {
      "midi": 42,
      "hit": false,
      "t": 14882.8125,
      "d": 113.28125,
      "v": 127
    },
    {
      "midi": 68,
      "hit": false,
      "t": 15000,
      "d": 699.21875,
      "v": 127
    },
    {
      "midi": 80,
      "hit": false,
      "t": 15000,
      "d": 1402.34375,
      "v": 127
    },
    {
      "midi": 80,
      "hit": false,
      "t": 15000,
      "d": 1402.34375,
      "v": 127
    },
    {
      "midi": 63,
      "hit": false,
      "t": 15000,
      "d": 699.21875,
      "v": 114
    },
    {
      "midi": 60,
      "hit": false,
      "t": 15000,
      "d": 699.21875,
      "v": 124
    },
    {
      "midi": 29,
      "hit": false,
      "t": 15000,
      "d": 230.46875,
      "v": 127
    },
    {
      "midi": 35,
      "hit": false,
      "t": 15000,
      "d": 464.84375,
      "v": 127
    },
    {
      "midi": 42,
      "hit": false,
      "t": 15000,
      "d": 230.46875,
      "v": 127
    },
    {
      "midi": 29,
      "hit": false,
      "t": 15234.375,
      "d": 230.46875,
      "v": 127
    },
    {
      "midi": 42,
      "hit": false,
      "t": 15234.375,
      "d": 113.28125,
      "v": 127
    },
    {
      "midi": 42,
      "hit": false,
      "t": 15351.5625,
      "d": 113.28125,
      "v": 127
    },
    {
      "midi": 29,
      "hit": false,
      "t": 15468.75,
      "d": 230.46875,
      "v": 127
    },
    {
      "midi": 35,
      "hit": false,
      "t": 15468.75,
      "d": 464.84375,
      "v": 127
    },
    {
      "midi": 38,
      "hit": false,
      "t": 15468.75,
      "d": 464.84375,
      "v": 127
    },
    {
      "midi": 42,
      "hit": false,
      "t": 15468.75,
      "d": 230.46875,
      "v": 127
    },
    {
      "midi": 68,
      "hit": false,
      "t": 15703.125,
      "d": 1167.96875,
      "v": 127
    },
    {
      "midi": 63,
      "hit": false,
      "t": 15703.125,
      "d": 1167.96875,
      "v": 114
    },
    {
      "midi": 60,
      "hit": false,
      "t": 15703.125,
      "d": 1167.96875,
      "v": 124
    },
    {
      "midi": 29,
      "hit": false,
      "t": 15703.125,
      "d": 230.46875,
      "v": 127
    },
    {
      "midi": 42,
      "hit": false,
      "t": 15703.125,
      "d": 113.28125,
      "v": 127
    },
    {
      "midi": 42,
      "hit": false,
      "t": 15820.3125,
      "d": 113.28125,
      "v": 127
    },
    {
      "midi": 29,
      "hit": false,
      "t": 15937.5,
      "d": 230.46875,
      "v": 127
    },
    {
      "midi": 35,
      "hit": false,
      "t": 15937.5,
      "d": 464.84375,
      "v": 127
    },
    {
      "midi": 42,
      "hit": false,
      "t": 15937.5,
      "d": 230.46875,
      "v": 127
    },
    {
      "midi": 29,
      "hit": false,
      "t": 16171.875,
      "d": 230.46875,
      "v": 127
    },
    {
      "midi": 42,
      "hit": false,
      "t": 16171.875,
      "d": 113.28125,
      "v": 127
    },
    {
      "midi": 42,
      "hit": false,
      "t": 16289.0625,
      "d": 113.28125,
      "v": 127
    },
    {
      "midi": 75,
      "hit": false,
      "t": 16406.25,
      "d": 464.84375,
      "v": 127
    },
    {
      "midi": 75,
      "hit": false,
      "t": 16406.25,
      "d": 464.84375,
      "v": 127
    },
    {
      "midi": 32,
      "hit": false,
      "t": 16406.25,
      "d": 230.46875,
      "v": 127
    },
    {
      "midi": 35,
      "hit": false,
      "t": 16406.25,
      "d": 464.84375,
      "v": 127
    },
    {
      "midi": 38,
      "hit": false,
      "t": 16406.25,
      "d": 464.84375,
      "v": 127
    },
    {
      "midi": 42,
      "hit": false,
      "t": 16406.25,
      "d": 230.46875,
      "v": 127
    },
    {
      "midi": 32,
      "hit": false,
      "t": 16640.625,
      "d": 230.46875,
      "v": 127
    },
    {
      "midi": 42,
      "hit": false,
      "t": 16640.625,
      "d": 113.28125,
      "v": 127
    },
    {
      "midi": 42,
      "hit": false,
      "t": 16757.8125,
      "d": 113.28125,
      "v": 127
    },
    {
      "midi": 70,
      "hit": false,
      "t": 16875,
      "d": 699.21875,
      "v": 127
    },
    {
      "midi": 77,
      "hit": false,
      "t": 16875,
      "d": 933.59375,
      "v": 127
    },
    {
      "midi": 77,
      "hit": false,
      "t": 16875,
      "d": 933.59375,
      "v": 127
    },
    {
      "midi": 65,
      "hit": false,
      "t": 16875,
      "d": 699.21875,
      "v": 114
    },
    {
      "midi": 62,
      "hit": false,
      "t": 16875,
      "d": 699.21875,
      "v": 124
    },
    {
      "midi": 34,
      "hit": false,
      "t": 16875,
      "d": 230.46875,
      "v": 127
    },
    {
      "midi": 35,
      "hit": false,
      "t": 16875,
      "d": 464.84375,
      "v": 127
    },
    {
      "midi": 42,
      "hit": false,
      "t": 16875,
      "d": 230.46875,
      "v": 127
    },
    {
      "midi": 34,
      "hit": false,
      "t": 17109.375,
      "d": 230.46875,
      "v": 127
    },
    {
      "midi": 42,
      "hit": false,
      "t": 17109.375,
      "d": 113.28125,
      "v": 127
    },
    {
      "midi": 42,
      "hit": false,
      "t": 17226.5625,
      "d": 113.28125,
      "v": 127
    },
    {
      "midi": 34,
      "hit": false,
      "t": 17343.75,
      "d": 230.46875,
      "v": 127
    },
    {
      "midi": 35,
      "hit": false,
      "t": 17343.75,
      "d": 464.84375,
      "v": 127
    },
    {
      "midi": 38,
      "hit": false,
      "t": 17343.75,
      "d": 464.84375,
      "v": 127
    },
    {
      "midi": 42,
      "hit": false,
      "t": 17343.75,
      "d": 230.46875,
      "v": 127
    },
    {
      "midi": 70,
      "hit": false,
      "t": 17578.125,
      "d": 1167.96875,
      "v": 127
    },
    {
      "midi": 65,
      "hit": false,
      "t": 17578.125,
      "d": 1167.96875,
      "v": 114
    },
    {
      "midi": 62,
      "hit": false,
      "t": 17578.125,
      "d": 1167.96875,
      "v": 124
    },
    {
      "midi": 34,
      "hit": false,
      "t": 17578.125,
      "d": 230.46875,
      "v": 127
    },
    {
      "midi": 42,
      "hit": false,
      "t": 17578.125,
      "d": 113.28125,
      "v": 127
    },
    {
      "midi": 42,
      "hit": false,
      "t": 17695.3125,
      "d": 113.28125,
      "v": 127
    },
    {
      "midi": 34,
      "hit": false,
      "t": 17812.5,
      "d": 230.46875,
      "v": 127
    },
    {
      "midi": 35,
      "hit": false,
      "t": 17812.5,
      "d": 464.84375,
      "v": 127
    },
    {
      "midi": 57,
      "hit": false,
      "t": 17812.5,
      "d": 230.46875,
      "v": 127
    },
    {
      "midi": 77,
      "hit": false,
      "t": 18046.875,
      "d": 113.28125,
      "v": 127
    },
    {
      "midi": 34,
      "hit": false,
      "t": 18046.875,
      "d": 230.46875,
      "v": 127
    },
    {
      "midi": 57,
      "hit": false,
      "t": 18046.875,
      "d": 230.46875,
      "v": 127
    },
    {
      "midi": 76,
      "hit": false,
      "t": 18164.0625,
      "d": 113.28125,
      "v": 127
    },
    {
      "midi": 74,
      "hit": false,
      "t": 18281.25,
      "d": 230.46875,
      "v": 127
    },
    {
      "midi": 34,
      "hit": false,
      "t": 18281.25,
      "d": 230.46875,
      "v": 127
    },
    {
      "midi": 35,
      "hit": false,
      "t": 18281.25,
      "d": 464.84375,
      "v": 127
    },
    {
      "midi": 38,
      "hit": false,
      "t": 18281.25,
      "d": 230.46875,
      "v": 127
    },
    {
      "midi": 70,
      "hit": false,
      "t": 18515.625,
      "d": 230.46875,
      "v": 127
    },
    {
      "midi": 34,
      "hit": false,
      "t": 18515.625,
      "d": 230.46875,
      "v": 127
    },
    {
      "midi": 38,
      "hit": false,
      "t": 18515.625,
      "d": 230.46875,
      "v": 127
    },
    {
      "midi": 63,
      "hit": false,
      "t": 18750,
      "d": 230.46875,
      "v": 127
    },
    {
      "midi": 63,
      "hit": false,
      "t": 18750,
      "d": 230.46875,
      "v": 127
    },
    {
      "midi": 67,
      "hit": false,
      "t": 18750,
      "d": 1871.09375,
      "v": 114
    },
    {
      "midi": 63,
      "hit": false,
      "t": 18750,
      "d": 1871.09375,
      "v": 124
    },
    {
      "midi": 39,
      "hit": false,
      "t": 18750,
      "d": 230.46875,
      "v": 127
    },
    {
      "midi": 35,
      "hit": false,
      "t": 18750,
      "d": 464.84375,
      "v": 127
    },
    {
      "midi": 42,
      "hit": false,
      "t": 18750,
      "d": 230.46875,
      "v": 127
    },
    {
      "midi": 63,
      "hit": false,
      "t": 18984.375,
      "d": 230.46875,
      "v": 127
    },
    {
      "midi": 63,
      "hit": false,
      "t": 18984.375,
      "d": 230.46875,
      "v": 127
    },
    {
      "midi": 39,
      "hit": false,
      "t": 18984.375,
      "d": 230.46875,
      "v": 127
    },
    {
      "midi": 42,
      "hit": false,
      "t": 18984.375,
      "d": 113.28125,
      "v": 127
    },
    {
      "midi": 42,
      "hit": false,
      "t": 19101.5625,
      "d": 113.28125,
      "v": 127
    },
    {
      "midi": 63,
      "hit": false,
      "t": 19218.75,
      "d": 230.46875,
      "v": 127
    },
    {
      "midi": 63,
      "hit": false,
      "t": 19218.75,
      "d": 230.46875,
      "v": 127
    },
    {
      "midi": 39,
      "hit": false,
      "t": 19218.75,
      "d": 230.46875,
      "v": 127
    },
    {
      "midi": 35,
      "hit": false,
      "t": 19218.75,
      "d": 464.84375,
      "v": 127
    },
    {
      "midi": 38,
      "hit": false,
      "t": 19218.75,
      "d": 464.84375,
      "v": 127
    },
    {
      "midi": 42,
      "hit": false,
      "t": 19218.75,
      "d": 230.46875,
      "v": 127
    },
    {
      "midi": 62,
      "hit": false,
      "t": 19453.125,
      "d": 464.84375,
      "v": 127
    },
    {
      "midi": 63,
      "hit": false,
      "t": 19453.125,
      "d": 230.46875,
      "v": 127
    },
    {
      "midi": 62,
      "hit": false,
      "t": 19453.125,
      "d": 464.84375,
      "v": 127
    },
    {
      "midi": 39,
      "hit": false,
      "t": 19453.125,
      "d": 230.46875,
      "v": 127
    },
    {
      "midi": 42,
      "hit": false,
      "t": 19453.125,
      "d": 113.28125,
      "v": 127
    },
    {
      "midi": 42,
      "hit": false,
      "t": 19570.3125,
      "d": 113.28125,
      "v": 127
    },
    {
      "midi": 65,
      "hit": false,
      "t": 19687.5,
      "d": 230.46875,
      "v": 127
    },
    {
      "midi": 39,
      "hit": false,
      "t": 19687.5,
      "d": 230.46875,
      "v": 127
    },
    {
      "midi": 35,
      "hit": false,
      "t": 19687.5,
      "d": 464.84375,
      "v": 127
    },
    {
      "midi": 42,
      "hit": false,
      "t": 19687.5,
      "d": 230.46875,
      "v": 127
    },
    {
      "midi": 58,
      "hit": false,
      "t": 19921.875,
      "d": 464.84375,
      "v": 127
    },
    {
      "midi": 63,
      "hit": false,
      "t": 19921.875,
      "d": 230.46875,
      "v": 127
    },
    {
      "midi": 58,
      "hit": false,
      "t": 19921.875,
      "d": 464.84375,
      "v": 127
    },
    {
      "midi": 39,
      "hit": false,
      "t": 19921.875,
      "d": 230.46875,
      "v": 127
    },
    {
      "midi": 42,
      "hit": false,
      "t": 19921.875,
      "d": 113.28125,
      "v": 127
    },
    {
      "midi": 42,
      "hit": false,
      "t": 20039.0625,
      "d": 113.28125,
      "v": 127
    },
    {
      "midi": 62,
      "hit": false,
      "t": 20156.25,
      "d": 230.46875,
      "v": 127
    },
    {
      "midi": 39,
      "hit": false,
      "t": 20156.25,
      "d": 230.46875,
      "v": 127
    },
    {
      "midi": 35,
      "hit": false,
      "t": 20156.25,
      "d": 464.84375,
      "v": 127
    },
    {
      "midi": 38,
      "hit": false,
      "t": 20156.25,
      "d": 464.84375,
      "v": 127
    },
    {
      "midi": 42,
      "hit": false,
      "t": 20156.25,
      "d": 230.46875,
      "v": 127
    },
    {
      "midi": 58,
      "hit": false,
      "t": 20390.625,
      "d": 230.46875,
      "v": 127
    },
    {
      "midi": 58,
      "hit": false,
      "t": 20390.625,
      "d": 699.21875,
      "v": 127
    },
    {
      "midi": 58,
      "hit": false,
      "t": 20390.625,
      "d": 230.46875,
      "v": 127
    },
    {
      "midi": 39,
      "hit": false,
      "t": 20390.625,
      "d": 230.46875,
      "v": 127
    },
    {
      "midi": 42,
      "hit": false,
      "t": 20390.625,
      "d": 113.28125,
      "v": 127
    },
    {
      "midi": 42,
      "hit": false,
      "t": 20507.8125,
      "d": 113.28125,
      "v": 127
    },
    {
      "midi": 65,
      "hit": false,
      "t": 20625,
      "d": 230.46875,
      "v": 127
    },
    {
      "midi": 65,
      "hit": false,
      "t": 20625,
      "d": 230.46875,
      "v": 127
    },
    {
      "midi": 63,
      "hit": false,
      "t": 20625,
      "d": 1871.09375,
      "v": 114
    },
    {
      "midi": 60,
      "hit": false,
      "t": 20625,
      "d": 1871.09375,
      "v": 124
    },
    {
      "midi": 36,
      "hit": false,
      "t": 20625,
      "d": 230.46875,
      "v": 127
    },
    {
      "midi": 35,
      "hit": false,
      "t": 20625,
      "d": 464.84375,
      "v": 127
    },
    {
      "midi": 42,
      "hit": false,
      "t": 20625,
      "d": 230.46875,
      "v": 127
    },
    {
      "midi": 65,
      "hit": false,
      "t": 20859.375,
      "d": 230.46875,
      "v": 127
    },
    {
      "midi": 65,
      "hit": false,
      "t": 20859.375,
      "d": 230.46875,
      "v": 127
    },
    {
      "midi": 36,
      "hit": false,
      "t": 20859.375,
      "d": 230.46875,
      "v": 127
    },
    {
      "midi": 42,
      "hit": false,
      "t": 20859.375,
      "d": 113.28125,
      "v": 127
    },
    {
      "midi": 42,
      "hit": false,
      "t": 20976.5625,
      "d": 113.28125,
      "v": 127
    },
    {
      "midi": 65,
      "hit": false,
      "t": 21093.75,
      "d": 230.46875,
      "v": 127
    },
    {
      "midi": 65,
      "hit": false,
      "t": 21093.75,
      "d": 230.46875,
      "v": 127
    },
    {
      "midi": 36,
      "hit": false,
      "t": 21093.75,
      "d": 230.46875,
      "v": 127
    },
    {
      "midi": 35,
      "hit": false,
      "t": 21093.75,
      "d": 464.84375,
      "v": 127
    },
    {
      "midi": 38,
      "hit": false,
      "t": 21093.75,
      "d": 464.84375,
      "v": 127
    },
    {
      "midi": 42,
      "hit": false,
      "t": 21093.75,
      "d": 230.46875,
      "v": 127
    },
    {
      "midi": 63,
      "hit": false,
      "t": 21328.125,
      "d": 464.84375,
      "v": 127
    },
    {
      "midi": 63,
      "hit": false,
      "t": 21328.125,
      "d": 230.46875,
      "v": 127
    },
    {
      "midi": 63,
      "hit": false,
      "t": 21328.125,
      "d": 464.84375,
      "v": 127
    },
    {
      "midi": 36,
      "hit": false,
      "t": 21328.125,
      "d": 230.46875,
      "v": 127
    },
    {
      "midi": 42,
      "hit": false,
      "t": 21328.125,
      "d": 113.28125,
      "v": 127
    },
    {
      "midi": 42,
      "hit": false,
      "t": 21445.3125,
      "d": 113.28125,
      "v": 127
    },
    {
      "midi": 65,
      "hit": false,
      "t": 21562.5,
      "d": 230.46875,
      "v": 127
    },
    {
      "midi": 36,
      "hit": false,
      "t": 21562.5,
      "d": 230.46875,
      "v": 127
    },
    {
      "midi": 35,
      "hit": false,
      "t": 21562.5,
      "d": 464.84375,
      "v": 127
    },
    {
      "midi": 42,
      "hit": false,
      "t": 21562.5,
      "d": 230.46875,
      "v": 127
    },
    {
      "midi": 60,
      "hit": false,
      "t": 21796.875,
      "d": 699.21875,
      "v": 127
    },
    {
      "midi": 63,
      "hit": false,
      "t": 21796.875,
      "d": 230.46875,
      "v": 127
    },
    {
      "midi": 60,
      "hit": false,
      "t": 21796.875,
      "d": 699.21875,
      "v": 127
    },
    {
      "midi": 36,
      "hit": false,
      "t": 21796.875,
      "d": 230.46875,
      "v": 127
    },
    {
      "midi": 42,
      "hit": false,
      "t": 21796.875,
      "d": 113.28125,
      "v": 127
    },
    {
      "midi": 42,
      "hit": false,
      "t": 21914.0625,
      "d": 113.28125,
      "v": 127
    },
    {
      "midi": 62,
      "hit": false,
      "t": 22031.25,
      "d": 230.46875,
      "v": 127
    },
    {
      "midi": 36,
      "hit": false,
      "t": 22031.25,
      "d": 230.46875,
      "v": 127
    },
    {
      "midi": 35,
      "hit": false,
      "t": 22031.25,
      "d": 464.84375,
      "v": 127
    },
    {
      "midi": 38,
      "hit": false,
      "t": 22031.25,
      "d": 464.84375,
      "v": 127
    },
    {
      "midi": 42,
      "hit": false,
      "t": 22031.25,
      "d": 230.46875,
      "v": 127
    },
    {
      "midi": 58,
      "hit": false,
      "t": 22265.625,
      "d": 699.21875,
      "v": 127
    },
    {
      "midi": 36,
      "hit": false,
      "t": 22265.625,
      "d": 230.46875,
      "v": 127
    },
    {
      "midi": 42,
      "hit": false,
      "t": 22265.625,
      "d": 113.28125,
      "v": 127
    },
    {
      "midi": 42,
      "hit": false,
      "t": 22382.8125,
      "d": 113.28125,
      "v": 127
    },
    {
      "midi": 63,
      "hit": false,
      "t": 22500,
      "d": 230.46875,
      "v": 127
    },
    {
      "midi": 63,
      "hit": false,
      "t": 22500,
      "d": 230.46875,
      "v": 127
    },
    {
      "midi": 67,
      "hit": false,
      "t": 22500,
      "d": 1871.09375,
      "v": 114
    },
    {
      "midi": 63,
      "hit": false,
      "t": 22500,
      "d": 1871.09375,
      "v": 124
    },
    {
      "midi": 39,
      "hit": false,
      "t": 22500,
      "d": 230.46875,
      "v": 127
    },
    {
      "midi": 35,
      "hit": false,
      "t": 22500,
      "d": 464.84375,
      "v": 127
    },
    {
      "midi": 42,
      "hit": false,
      "t": 22500,
      "d": 230.46875,
      "v": 127
    },
    {
      "midi": 63,
      "hit": false,
      "t": 22734.375,
      "d": 230.46875,
      "v": 127
    },
    {
      "midi": 63,
      "hit": false,
      "t": 22734.375,
      "d": 230.46875,
      "v": 127
    },
    {
      "midi": 39,
      "hit": false,
      "t": 22734.375,
      "d": 230.46875,
      "v": 127
    },
    {
      "midi": 42,
      "hit": false,
      "t": 22734.375,
      "d": 113.28125,
      "v": 127
    },
    {
      "midi": 42,
      "hit": false,
      "t": 22851.5625,
      "d": 113.28125,
      "v": 127
    },
    {
      "midi": 63,
      "hit": false,
      "t": 22968.75,
      "d": 230.46875,
      "v": 127
    },
    {
      "midi": 63,
      "hit": false,
      "t": 22968.75,
      "d": 230.46875,
      "v": 127
    },
    {
      "midi": 39,
      "hit": false,
      "t": 22968.75,
      "d": 230.46875,
      "v": 127
    },
    {
      "midi": 35,
      "hit": false,
      "t": 22968.75,
      "d": 464.84375,
      "v": 127
    },
    {
      "midi": 38,
      "hit": false,
      "t": 22968.75,
      "d": 464.84375,
      "v": 127
    },
    {
      "midi": 42,
      "hit": false,
      "t": 22968.75,
      "d": 230.46875,
      "v": 127
    },
    {
      "midi": 62,
      "hit": false,
      "t": 23203.125,
      "d": 464.84375,
      "v": 127
    },
    {
      "midi": 63,
      "hit": false,
      "t": 23203.125,
      "d": 230.46875,
      "v": 127
    },
    {
      "midi": 62,
      "hit": false,
      "t": 23203.125,
      "d": 464.84375,
      "v": 127
    },
    {
      "midi": 39,
      "hit": false,
      "t": 23203.125,
      "d": 230.46875,
      "v": 127
    },
    {
      "midi": 42,
      "hit": false,
      "t": 23203.125,
      "d": 113.28125,
      "v": 127
    },
    {
      "midi": 42,
      "hit": false,
      "t": 23320.3125,
      "d": 113.28125,
      "v": 127
    },
    {
      "midi": 65,
      "hit": false,
      "t": 23437.5,
      "d": 230.46875,
      "v": 127
    },
    {
      "midi": 39,
      "hit": false,
      "t": 23437.5,
      "d": 230.46875,
      "v": 127
    },
    {
      "midi": 35,
      "hit": false,
      "t": 23437.5,
      "d": 464.84375,
      "v": 127
    },
    {
      "midi": 42,
      "hit": false,
      "t": 23437.5,
      "d": 230.46875,
      "v": 127
    },
    {
      "midi": 58,
      "hit": false,
      "t": 23671.875,
      "d": 464.84375,
      "v": 127
    },
    {
      "midi": 63,
      "hit": false,
      "t": 23671.875,
      "d": 230.46875,
      "v": 127
    },
    {
      "midi": 58,
      "hit": false,
      "t": 23671.875,
      "d": 464.84375,
      "v": 127
    },
    {
      "midi": 39,
      "hit": false,
      "t": 23671.875,
      "d": 230.46875,
      "v": 127
    },
    {
      "midi": 42,
      "hit": false,
      "t": 23671.875,
      "d": 113.28125,
      "v": 127
    },
    {
      "midi": 42,
      "hit": false,
      "t": 23789.0625,
      "d": 113.28125,
      "v": 127
    },
    {
      "midi": 62,
      "hit": false,
      "t": 23906.25,
      "d": 230.46875,
      "v": 127
    },
    {
      "midi": 39,
      "hit": false,
      "t": 23906.25,
      "d": 230.46875,
      "v": 127
    },
    {
      "midi": 35,
      "hit": false,
      "t": 23906.25,
      "d": 464.84375,
      "v": 127
    },
    {
      "midi": 38,
      "hit": false,
      "t": 23906.25,
      "d": 464.84375,
      "v": 127
    },
    {
      "midi": 42,
      "hit": false,
      "t": 23906.25,
      "d": 230.46875,
      "v": 127
    },
    {
      "midi": 58,
      "hit": false,
      "t": 24140.625,
      "d": 230.46875,
      "v": 127
    },
    {
      "midi": 58,
      "hit": false,
      "t": 24140.625,
      "d": 699.21875,
      "v": 127
    },
    {
      "midi": 58,
      "hit": false,
      "t": 24140.625,
      "d": 230.46875,
      "v": 127
    },
    {
      "midi": 39,
      "hit": false,
      "t": 24140.625,
      "d": 230.46875,
      "v": 127
    },
    {
      "midi": 42,
      "hit": false,
      "t": 24140.625,
      "d": 113.28125,
      "v": 127
    },
    {
      "midi": 42,
      "hit": false,
      "t": 24257.8125,
      "d": 113.28125,
      "v": 127
    },
    {
      "midi": 65,
      "hit": false,
      "t": 24375,
      "d": 230.46875,
      "v": 127
    },
    {
      "midi": 65,
      "hit": false,
      "t": 24375,
      "d": 230.46875,
      "v": 127
    },
    {
      "midi": 63,
      "hit": false,
      "t": 24375,
      "d": 1871.09375,
      "v": 114
    },
    {
      "midi": 60,
      "hit": false,
      "t": 24375,
      "d": 1871.09375,
      "v": 124
    },
    {
      "midi": 36,
      "hit": false,
      "t": 24375,
      "d": 230.46875,
      "v": 127
    },
    {
      "midi": 35,
      "hit": false,
      "t": 24375,
      "d": 464.84375,
      "v": 127
    },
    {
      "midi": 42,
      "hit": false,
      "t": 24375,
      "d": 230.46875,
      "v": 127
    },
    {
      "midi": 65,
      "hit": false,
      "t": 24609.375,
      "d": 230.46875,
      "v": 127
    },
    {
      "midi": 65,
      "hit": false,
      "t": 24609.375,
      "d": 230.46875,
      "v": 127
    },
    {
      "midi": 36,
      "hit": false,
      "t": 24609.375,
      "d": 230.46875,
      "v": 127
    },
    {
      "midi": 42,
      "hit": false,
      "t": 24609.375,
      "d": 113.28125,
      "v": 127
    },
    {
      "midi": 42,
      "hit": false,
      "t": 24726.5625,
      "d": 113.28125,
      "v": 127
    },
    {
      "midi": 65,
      "hit": false,
      "t": 24843.75,
      "d": 230.46875,
      "v": 127
    },
    {
      "midi": 65,
      "hit": false,
      "t": 24843.75,
      "d": 230.46875,
      "v": 127
    },
    {
      "midi": 36,
      "hit": false,
      "t": 24843.75,
      "d": 230.46875,
      "v": 127
    },
    {
      "midi": 35,
      "hit": false,
      "t": 24843.75,
      "d": 464.84375,
      "v": 127
    },
    {
      "midi": 38,
      "hit": false,
      "t": 24843.75,
      "d": 464.84375,
      "v": 127
    },
    {
      "midi": 42,
      "hit": false,
      "t": 24843.75,
      "d": 230.46875,
      "v": 127
    },
    {
      "midi": 63,
      "hit": false,
      "t": 25078.125,
      "d": 464.84375,
      "v": 127
    },
    {
      "midi": 63,
      "hit": false,
      "t": 25078.125,
      "d": 230.46875,
      "v": 127
    },
    {
      "midi": 63,
      "hit": false,
      "t": 25078.125,
      "d": 464.84375,
      "v": 127
    },
    {
      "midi": 36,
      "hit": false,
      "t": 25078.125,
      "d": 230.46875,
      "v": 127
    },
    {
      "midi": 42,
      "hit": false,
      "t": 25078.125,
      "d": 113.28125,
      "v": 127
    },
    {
      "midi": 42,
      "hit": false,
      "t": 25195.3125,
      "d": 113.28125,
      "v": 127
    },
    {
      "midi": 65,
      "hit": false,
      "t": 25312.5,
      "d": 230.46875,
      "v": 127
    },
    {
      "midi": 36,
      "hit": false,
      "t": 25312.5,
      "d": 230.46875,
      "v": 127
    },
    {
      "midi": 35,
      "hit": false,
      "t": 25312.5,
      "d": 464.84375,
      "v": 127
    },
    {
      "midi": 42,
      "hit": false,
      "t": 25312.5,
      "d": 230.46875,
      "v": 127
    },
    {
      "midi": 60,
      "hit": false,
      "t": 25546.875,
      "d": 464.84375,
      "v": 127
    },
    {
      "midi": 63,
      "hit": false,
      "t": 25546.875,
      "d": 230.46875,
      "v": 127
    },
    {
      "midi": 60,
      "hit": false,
      "t": 25546.875,
      "d": 464.84375,
      "v": 127
    },
    {
      "midi": 36,
      "hit": false,
      "t": 25546.875,
      "d": 230.46875,
      "v": 127
    },
    {
      "midi": 42,
      "hit": false,
      "t": 25546.875,
      "d": 113.28125,
      "v": 127
    },
    {
      "midi": 42,
      "hit": false,
      "t": 25664.0625,
      "d": 113.28125,
      "v": 127
    },
    {
      "midi": 62,
      "hit": false,
      "t": 25781.25,
      "d": 230.46875,
      "v": 127
    },
    {
      "midi": 36,
      "hit": false,
      "t": 25781.25,
      "d": 230.46875,
      "v": 127
    },
    {
      "midi": 35,
      "hit": false,
      "t": 25781.25,
      "d": 464.84375,
      "v": 127
    },
    {
      "midi": 38,
      "hit": false,
      "t": 25781.25,
      "d": 464.84375,
      "v": 127
    },
    {
      "midi": 42,
      "hit": false,
      "t": 25781.25,
      "d": 230.46875,
      "v": 127
    },
    {
      "midi": 60,
      "hit": false,
      "t": 26015.625,
      "d": 230.46875,
      "v": 127
    },
    {
      "midi": 58,
      "hit": false,
      "t": 26015.625,
      "d": 699.21875,
      "v": 127
    },
    {
      "midi": 60,
      "hit": false,
      "t": 26015.625,
      "d": 230.46875,
      "v": 127
    },
    {
      "midi": 36,
      "hit": false,
      "t": 26015.625,
      "d": 230.46875,
      "v": 127
    },
    {
      "midi": 42,
      "hit": false,
      "t": 26015.625,
      "d": 113.28125,
      "v": 127
    },
    {
      "midi": 42,
      "hit": false,
      "t": 26132.8125,
      "d": 113.28125,
      "v": 127
    },
    {
      "midi": 67,
      "hit": false,
      "t": 26250,
      "d": 464.84375,
      "v": 127
    },
    {
      "midi": 67,
      "hit": false,
      "t": 26250,
      "d": 464.84375,
      "v": 127
    },
    {
      "midi": 60,
      "hit": false,
      "t": 26250,
      "d": 1871.09375,
      "v": 114
    },
    {
      "midi": 56,
      "hit": false,
      "t": 26250,
      "d": 1871.09375,
      "v": 124
    },
    {
      "midi": 32,
      "hit": false,
      "t": 26250,
      "d": 230.46875,
      "v": 127
    },
    {
      "midi": 35,
      "hit": false,
      "t": 26250,
      "d": 464.84375,
      "v": 127
    },
    {
      "midi": 42,
      "hit": false,
      "t": 26250,
      "d": 230.46875,
      "v": 127
    },
    {
      "midi": 32,
      "hit": false,
      "t": 26484.375,
      "d": 230.46875,
      "v": 127
    },
    {
      "midi": 42,
      "hit": false,
      "t": 26484.375,
      "d": 113.28125,
      "v": 127
    },
    {
      "midi": 42,
      "hit": false,
      "t": 26601.5625,
      "d": 113.28125,
      "v": 127
    },
    {
      "midi": 67,
      "hit": false,
      "t": 26718.75,
      "d": 230.46875,
      "v": 127
    },
    {
      "midi": 67,
      "hit": false,
      "t": 26718.75,
      "d": 230.46875,
      "v": 127
    },
    {
      "midi": 32,
      "hit": false,
      "t": 26718.75,
      "d": 230.46875,
      "v": 127
    },
    {
      "midi": 35,
      "hit": false,
      "t": 26718.75,
      "d": 464.84375,
      "v": 127
    },
    {
      "midi": 38,
      "hit": false,
      "t": 26718.75,
      "d": 464.84375,
      "v": 127
    },
    {
      "midi": 42,
      "hit": false,
      "t": 26718.75,
      "d": 230.46875,
      "v": 127
    },
    {
      "midi": 65,
      "hit": false,
      "t": 26953.125,
      "d": 699.21875,
      "v": 127
    },
    {
      "midi": 67,
      "hit": false,
      "t": 26953.125,
      "d": 230.46875,
      "v": 127
    },
    {
      "midi": 65,
      "hit": false,
      "t": 26953.125,
      "d": 699.21875,
      "v": 127
    },
    {
      "midi": 32,
      "hit": false,
      "t": 26953.125,
      "d": 230.46875,
      "v": 127
    },
    {
      "midi": 42,
      "hit": false,
      "t": 26953.125,
      "d": 113.28125,
      "v": 127
    },
    {
      "midi": 42,
      "hit": false,
      "t": 27070.3125,
      "d": 113.28125,
      "v": 127
    },
    {
      "midi": 68,
      "hit": false,
      "t": 27187.5,
      "d": 230.46875,
      "v": 127
    },
    {
      "midi": 32,
      "hit": false,
      "t": 27187.5,
      "d": 230.46875,
      "v": 127
    },
    {
      "midi": 35,
      "hit": false,
      "t": 27187.5,
      "d": 464.84375,
      "v": 127
    },
    {
      "midi": 42,
      "hit": false,
      "t": 27187.5,
      "d": 230.46875,
      "v": 127
    },
    {
      "midi": 67,
      "hit": false,
      "t": 27421.875,
      "d": 230.46875,
      "v": 127
    },
    {
      "midi": 32,
      "hit": false,
      "t": 27421.875,
      "d": 230.46875,
      "v": 127
    },
    {
      "midi": 42,
      "hit": false,
      "t": 27421.875,
      "d": 113.28125,
      "v": 127
    },
    {
      "midi": 42,
      "hit": false,
      "t": 27539.0625,
      "d": 113.28125,
      "v": 127
    },
    {
      "midi": 60,
      "hit": false,
      "t": 27656.25,
      "d": 464.84375,
      "v": 127
    },
    {
      "midi": 63,
      "hit": false,
      "t": 27656.25,
      "d": 230.46875,
      "v": 127
    },
    {
      "midi": 60,
      "hit": false,
      "t": 27656.25,
      "d": 464.84375,
      "v": 127
    },
    {
      "midi": 32,
      "hit": false,
      "t": 27656.25,
      "d": 230.46875,
      "v": 127
    },
    {
      "midi": 35,
      "hit": false,
      "t": 27656.25,
      "d": 464.84375,
      "v": 127
    },
    {
      "midi": 38,
      "hit": false,
      "t": 27656.25,
      "d": 464.84375,
      "v": 127
    },
    {
      "midi": 42,
      "hit": false,
      "t": 27656.25,
      "d": 230.46875,
      "v": 127
    },
    {
      "midi": 60,
      "hit": false,
      "t": 27890.625,
      "d": 230.46875,
      "v": 127
    },
    {
      "midi": 32,
      "hit": false,
      "t": 27890.625,
      "d": 230.46875,
      "v": 127
    },
    {
      "midi": 42,
      "hit": false,
      "t": 27890.625,
      "d": 113.28125,
      "v": 127
    },
    {
      "midi": 42,
      "hit": false,
      "t": 28007.8125,
      "d": 113.28125,
      "v": 127
    },
    {
      "midi": 68,
      "hit": false,
      "t": 28125,
      "d": 1402.34375,
      "v": 127
    },
    {
      "midi": 68,
      "hit": false,
      "t": 28125,
      "d": 1402.34375,
      "v": 127
    },
    {
      "midi": 62,
      "hit": false,
      "t": 28125,
      "d": 1871.09375,
      "v": 114
    },
    {
      "midi": 58,
      "hit": false,
      "t": 28125,
      "d": 1871.09375,
      "v": 124
    },
    {
      "midi": 34,
      "hit": false,
      "t": 28125,
      "d": 230.46875,
      "v": 127
    },
    {
      "midi": 35,
      "hit": false,
      "t": 28125,
      "d": 464.84375,
      "v": 127
    },
    {
      "midi": 42,
      "hit": false,
      "t": 28125,
      "d": 230.46875,
      "v": 127
    },
    {
      "midi": 34,
      "hit": false,
      "t": 28359.375,
      "d": 230.46875,
      "v": 127
    },
    {
      "midi": 42,
      "hit": false,
      "t": 28359.375,
      "d": 113.28125,
      "v": 127
    },
    {
      "midi": 42,
      "hit": false,
      "t": 28476.5625,
      "d": 113.28125,
      "v": 127
    },
    {
      "midi": 34,
      "hit": false,
      "t": 28593.75,
      "d": 230.46875,
      "v": 127
    },
    {
      "midi": 35,
      "hit": false,
      "t": 28593.75,
      "d": 464.84375,
      "v": 127
    },
    {
      "midi": 38,
      "hit": false,
      "t": 28593.75,
      "d": 464.84375,
      "v": 127
    },
    {
      "midi": 42,
      "hit": false,
      "t": 28593.75,
      "d": 230.46875,
      "v": 127
    },
    {
      "midi": 34,
      "hit": false,
      "t": 28828.125,
      "d": 230.46875,
      "v": 127
    },
    {
      "midi": 42,
      "hit": false,
      "t": 28828.125,
      "d": 113.28125,
      "v": 127
    },
    {
      "midi": 42,
      "hit": false,
      "t": 28945.3125,
      "d": 113.28125,
      "v": 127
    },
    {
      "midi": 34,
      "hit": false,
      "t": 29062.5,
      "d": 230.46875,
      "v": 127
    },
    {
      "midi": 35,
      "hit": false,
      "t": 29062.5,
      "d": 464.84375,
      "v": 127
    },
    {
      "midi": 42,
      "hit": false,
      "t": 29062.5,
      "d": 230.46875,
      "v": 127
    },
    {
      "midi": 34,
      "hit": false,
      "t": 29296.875,
      "d": 230.46875,
      "v": 127
    },
    {
      "midi": 42,
      "hit": false,
      "t": 29296.875,
      "d": 113.28125,
      "v": 127
    },
    {
      "midi": 42,
      "hit": false,
      "t": 29414.0625,
      "d": 113.28125,
      "v": 127
    },
    {
      "midi": 67,
      "hit": false,
      "t": 29531.25,
      "d": 464.84375,
      "v": 127
    },
    {
      "midi": 67,
      "hit": false,
      "t": 29531.25,
      "d": 464.84375,
      "v": 127
    },
    {
      "midi": 34,
      "hit": false,
      "t": 29531.25,
      "d": 230.46875,
      "v": 127
    },
    {
      "midi": 35,
      "hit": false,
      "t": 29531.25,
      "d": 464.84375,
      "v": 127
    },
    {
      "midi": 38,
      "hit": false,
      "t": 29531.25,
      "d": 464.84375,
      "v": 127
    },
    {
      "midi": 42,
      "hit": false,
      "t": 29531.25,
      "d": 230.46875,
      "v": 127
    },
    {
      "midi": 34,
      "hit": false,
      "t": 29765.625,
      "d": 230.46875,
      "v": 127
    },
    {
      "midi": 42,
      "hit": false,
      "t": 29765.625,
      "d": 113.28125,
      "v": 127
    },
    {
      "midi": 42,
      "hit": false,
      "t": 29882.8125,
      "d": 113.28125,
      "v": 127
    },
    {
      "midi": 70,
      "hit": false,
      "t": 30000,
      "d": 1871.09375,
      "v": 127
    },
    {
      "midi": 70,
      "hit": false,
      "t": 30000,
      "d": 1871.09375,
      "v": 127
    },
    {
      "midi": 58,
      "hit": false,
      "t": 30000,
      "d": 1871.09375,
      "v": 114
    },
    {
      "midi": 55,
      "hit": false,
      "t": 30000,
      "d": 1871.09375,
      "v": 124
    },
    {
      "midi": 31,
      "hit": false,
      "t": 30000,
      "d": 230.46875,
      "v": 127
    },
    {
      "midi": 35,
      "hit": false,
      "t": 30000,
      "d": 464.84375,
      "v": 127
    },
    {
      "midi": 42,
      "hit": false,
      "t": 30000,
      "d": 230.46875,
      "v": 127
    },
    {
      "midi": 31,
      "hit": false,
      "t": 30234.375,
      "d": 230.46875,
      "v": 127
    },
    {
      "midi": 42,
      "hit": false,
      "t": 30234.375,
      "d": 113.28125,
      "v": 127
    },
    {
      "midi": 42,
      "hit": false,
      "t": 30351.5625,
      "d": 113.28125,
      "v": 127
    },
    {
      "midi": 31,
      "hit": false,
      "t": 30468.75,
      "d": 230.46875,
      "v": 127
    },
    {
      "midi": 35,
      "hit": false,
      "t": 30468.75,
      "d": 464.84375,
      "v": 127
    },
    {
      "midi": 38,
      "hit": false,
      "t": 30468.75,
      "d": 464.84375,
      "v": 127
    },
    {
      "midi": 42,
      "hit": false,
      "t": 30468.75,
      "d": 230.46875,
      "v": 127
    },
    {
      "midi": 31,
      "hit": false,
      "t": 30703.125,
      "d": 230.46875,
      "v": 127
    },
    {
      "midi": 42,
      "hit": false,
      "t": 30703.125,
      "d": 113.28125,
      "v": 127
    },
    {
      "midi": 42,
      "hit": false,
      "t": 30820.3125,
      "d": 113.28125,
      "v": 127
    },
    {
      "midi": 68,
      "hit": false,
      "t": 30937.5,
      "d": 230.46875,
      "v": 127
    },
    {
      "midi": 31,
      "hit": false,
      "t": 30937.5,
      "d": 230.46875,
      "v": 127
    },
    {
      "midi": 35,
      "hit": false,
      "t": 30937.5,
      "d": 464.84375,
      "v": 127
    },
    {
      "midi": 42,
      "hit": false,
      "t": 30937.5,
      "d": 230.46875,
      "v": 127
    },
    {
      "midi": 67,
      "hit": false,
      "t": 31171.875,
      "d": 230.46875,
      "v": 127
    },
    {
      "midi": 31,
      "hit": false,
      "t": 31171.875,
      "d": 230.46875,
      "v": 127
    },
    {
      "midi": 42,
      "hit": false,
      "t": 31171.875,
      "d": 113.28125,
      "v": 127
    },
    {
      "midi": 42,
      "hit": false,
      "t": 31289.0625,
      "d": 113.28125,
      "v": 127
    },
    {
      "midi": 65,
      "hit": false,
      "t": 31406.25,
      "d": 230.46875,
      "v": 127
    },
    {
      "midi": 31,
      "hit": false,
      "t": 31406.25,
      "d": 230.46875,
      "v": 127
    },
    {
      "midi": 35,
      "hit": false,
      "t": 31406.25,
      "d": 464.84375,
      "v": 127
    },
    {
      "midi": 38,
      "hit": false,
      "t": 31406.25,
      "d": 464.84375,
      "v": 127
    },
    {
      "midi": 42,
      "hit": false,
      "t": 31406.25,
      "d": 230.46875,
      "v": 127
    },
    {
      "midi": 67,
      "hit": false,
      "t": 31640.625,
      "d": 230.46875,
      "v": 127
    },
    {
      "midi": 31,
      "hit": false,
      "t": 31640.625,
      "d": 230.46875,
      "v": 127
    },
    {
      "midi": 42,
      "hit": false,
      "t": 31640.625,
      "d": 113.28125,
      "v": 127
    },
    {
      "midi": 42,
      "hit": false,
      "t": 31757.8125,
      "d": 113.28125,
      "v": 127
    },
    {
      "midi": 68,
      "hit": false,
      "t": 31875,
      "d": 230.46875,
      "v": 127
    },
    {
      "midi": 63,
      "hit": false,
      "t": 31875,
      "d": 933.59375,
      "v": 114
    },
    {
      "midi": 60,
      "hit": false,
      "t": 31875,
      "d": 933.59375,
      "v": 124
    },
    {
      "midi": 32,
      "hit": false,
      "t": 31875,
      "d": 464.84375,
      "v": 127
    },
    {
      "midi": 35,
      "hit": false,
      "t": 31875,
      "d": 464.84375,
      "v": 127
    },
    {
      "midi": 42,
      "hit": false,
      "t": 31875,
      "d": 230.46875,
      "v": 127
    },
    {
      "midi": 42,
      "hit": false,
      "t": 32109.375,
      "d": 113.28125,
      "v": 127
    },
    {
      "midi": 42,
      "hit": false,
      "t": 32226.5625,
      "d": 113.28125,
      "v": 127
    },
    {
      "midi": 65,
      "hit": false,
      "t": 32343.75,
      "d": 230.46875,
      "v": 127
    },
    {
      "midi": 35,
      "hit": false,
      "t": 32343.75,
      "d": 464.84375,
      "v": 127
    },
    {
      "midi": 42,
      "hit": false,
      "t": 32343.75,
      "d": 230.46875,
      "v": 127
    },
    {
      "midi": 42,
      "hit": false,
      "t": 32578.125,
      "d": 113.28125,
      "v": 127
    },
    {
      "midi": 42,
      "hit": false,
      "t": 32695.3125,
      "d": 113.28125,
      "v": 127
    },
    {
      "midi": 62,
      "hit": false,
      "t": 32812.5,
      "d": 230.46875,
      "v": 127
    },
    {
      "midi": 58,
      "hit": false,
      "t": 32812.5,
      "d": 113.28125,
      "v": 127
    },
    {
      "midi": 62,
      "hit": false,
      "t": 32812.5,
      "d": 933.59375,
      "v": 114
    },
    {
      "midi": 58,
      "hit": false,
      "t": 32812.5,
      "d": 933.59375,
      "v": 124
    },
    {
      "midi": 34,
      "hit": false,
      "t": 32812.5,
      "d": 464.84375,
      "v": 127
    },
    {
      "midi": 35,
      "hit": false,
      "t": 32812.5,
      "d": 464.84375,
      "v": 127
    },
    {
      "midi": 42,
      "hit": false,
      "t": 32812.5,
      "d": 230.46875,
      "v": 127
    },
    {
      "midi": 62,
      "hit": false,
      "t": 32929.6875,
      "d": 113.28125,
      "v": 127
    },
    {
      "midi": 65,
      "hit": false,
      "t": 33046.875,
      "d": 699.21875,
      "v": 127
    },
    {
      "midi": 38,
      "hit": false,
      "t": 33046.875,
      "d": 230.46875,
      "v": 127
    },
    {
      "midi": 42,
      "hit": false,
      "t": 33046.875,
      "d": 113.28125,
      "v": 127
    },
    {
      "midi": 42,
      "hit": false,
      "t": 33164.0625,
      "d": 113.28125,
      "v": 127
    },
    {
      "midi": 58,
      "hit": false,
      "t": 33281.25,
      "d": 347.65625,
      "v": 127
    },
    {
      "midi": 35,
      "hit": false,
      "t": 33281.25,
      "d": 464.84375,
      "v": 127
    },
    {
      "midi": 38,
      "hit": false,
      "t": 33281.25,
      "d": 230.46875,
      "v": 127
    },
    {
      "midi": 42,
      "hit": false,
      "t": 33281.25,
      "d": 230.46875,
      "v": 127
    },
    {
      "midi": 38,
      "hit": false,
      "t": 33515.625,
      "d": 230.46875,
      "v": 127
    },
    {
      "midi": 42,
      "hit": false,
      "t": 33515.625,
      "d": 113.28125,
      "v": 127
    },
    {
      "midi": 42,
      "hit": false,
      "t": 33632.8125,
      "d": 113.28125,
      "v": 127
    },
    {
      "midi": 63,
      "hit": false,
      "t": 33750,
      "d": 230.46875,
      "v": 127
    },
    {
      "midi": 63,
      "hit": false,
      "t": 33750,
      "d": 230.46875,
      "v": 127
    },
    {
      "midi": 67,
      "hit": false,
      "t": 33750,
      "d": 1871.09375,
      "v": 114
    },
    {
      "midi": 63,
      "hit": false,
      "t": 33750,
      "d": 1871.09375,
      "v": 124
    },
    {
      "midi": 39,
      "hit": false,
      "t": 33750,
      "d": 230.46875,
      "v": 127
    },
    {
      "midi": 35,
      "hit": false,
      "t": 33750,
      "d": 464.84375,
      "v": 127
    },
    {
      "midi": 42,
      "hit": false,
      "t": 33750,
      "d": 230.46875,
      "v": 127
    },
    {
      "midi": 63,
      "hit": false,
      "t": 33984.375,
      "d": 230.46875,
      "v": 127
    },
    {
      "midi": 63,
      "hit": false,
      "t": 33984.375,
      "d": 230.46875,
      "v": 127
    },
    {
      "midi": 39,
      "hit": false,
      "t": 33984.375,
      "d": 230.46875,
      "v": 127
    },
    {
      "midi": 42,
      "hit": false,
      "t": 33984.375,
      "d": 113.28125,
      "v": 127
    },
    {
      "midi": 42,
      "hit": false,
      "t": 34101.5625,
      "d": 113.28125,
      "v": 127
    },
    {
      "midi": 63,
      "hit": false,
      "t": 34218.75,
      "d": 230.46875,
      "v": 127
    },
    {
      "midi": 63,
      "hit": false,
      "t": 34218.75,
      "d": 230.46875,
      "v": 127
    },
    {
      "midi": 39,
      "hit": false,
      "t": 34218.75,
      "d": 230.46875,
      "v": 127
    },
    {
      "midi": 35,
      "hit": false,
      "t": 34218.75,
      "d": 464.84375,
      "v": 127
    },
    {
      "midi": 38,
      "hit": false,
      "t": 34218.75,
      "d": 464.84375,
      "v": 127
    },
    {
      "midi": 42,
      "hit": false,
      "t": 34218.75,
      "d": 230.46875,
      "v": 127
    },
    {
      "midi": 62,
      "hit": false,
      "t": 34453.125,
      "d": 464.84375,
      "v": 127
    },
    {
      "midi": 63,
      "hit": false,
      "t": 34453.125,
      "d": 230.46875,
      "v": 127
    },
    {
      "midi": 62,
      "hit": false,
      "t": 34453.125,
      "d": 464.84375,
      "v": 127
    },
    {
      "midi": 39,
      "hit": false,
      "t": 34453.125,
      "d": 230.46875,
      "v": 127
    },
    {
      "midi": 42,
      "hit": false,
      "t": 34453.125,
      "d": 113.28125,
      "v": 127
    },
    {
      "midi": 42,
      "hit": false,
      "t": 34570.3125,
      "d": 113.28125,
      "v": 127
    },
    {
      "midi": 65,
      "hit": false,
      "t": 34687.5,
      "d": 230.46875,
      "v": 127
    },
    {
      "midi": 39,
      "hit": false,
      "t": 34687.5,
      "d": 230.46875,
      "v": 127
    },
    {
      "midi": 35,
      "hit": false,
      "t": 34687.5,
      "d": 464.84375,
      "v": 127
    },
    {
      "midi": 42,
      "hit": false,
      "t": 34687.5,
      "d": 230.46875,
      "v": 127
    },
    {
      "midi": 58,
      "hit": false,
      "t": 34921.875,
      "d": 464.84375,
      "v": 127
    },
    {
      "midi": 63,
      "hit": false,
      "t": 34921.875,
      "d": 230.46875,
      "v": 127
    },
    {
      "midi": 58,
      "hit": false,
      "t": 34921.875,
      "d": 464.84375,
      "v": 127
    },
    {
      "midi": 39,
      "hit": false,
      "t": 34921.875,
      "d": 230.46875,
      "v": 127
    },
    {
      "midi": 42,
      "hit": false,
      "t": 34921.875,
      "d": 113.28125,
      "v": 127
    },
    {
      "midi": 42,
      "hit": false,
      "t": 35039.0625,
      "d": 113.28125,
      "v": 127
    },
    {
      "midi": 62,
      "hit": false,
      "t": 35156.25,
      "d": 230.46875,
      "v": 127
    },
    {
      "midi": 39,
      "hit": false,
      "t": 35156.25,
      "d": 230.46875,
      "v": 127
    },
    {
      "midi": 35,
      "hit": false,
      "t": 35156.25,
      "d": 464.84375,
      "v": 127
    },
    {
      "midi": 38,
      "hit": false,
      "t": 35156.25,
      "d": 464.84375,
      "v": 127
    },
    {
      "midi": 42,
      "hit": false,
      "t": 35156.25,
      "d": 230.46875,
      "v": 127
    },
    {
      "midi": 58,
      "hit": false,
      "t": 35390.625,
      "d": 230.46875,
      "v": 127
    },
    {
      "midi": 58,
      "hit": false,
      "t": 35390.625,
      "d": 699.21875,
      "v": 127
    },
    {
      "midi": 58,
      "hit": false,
      "t": 35390.625,
      "d": 230.46875,
      "v": 127
    },
    {
      "midi": 39,
      "hit": false,
      "t": 35390.625,
      "d": 230.46875,
      "v": 127
    },
    {
      "midi": 42,
      "hit": false,
      "t": 35390.625,
      "d": 113.28125,
      "v": 127
    },
    {
      "midi": 42,
      "hit": false,
      "t": 35507.8125,
      "d": 113.28125,
      "v": 127
    },
    {
      "midi": 65,
      "hit": false,
      "t": 35625,
      "d": 230.46875,
      "v": 127
    },
    {
      "midi": 65,
      "hit": false,
      "t": 35625,
      "d": 230.46875,
      "v": 127
    },
    {
      "midi": 63,
      "hit": false,
      "t": 35625,
      "d": 1871.09375,
      "v": 114
    },
    {
      "midi": 60,
      "hit": false,
      "t": 35625,
      "d": 1871.09375,
      "v": 124
    },
    {
      "midi": 36,
      "hit": false,
      "t": 35625,
      "d": 230.46875,
      "v": 127
    },
    {
      "midi": 35,
      "hit": false,
      "t": 35625,
      "d": 464.84375,
      "v": 127
    },
    {
      "midi": 42,
      "hit": false,
      "t": 35625,
      "d": 230.46875,
      "v": 127
    },
    {
      "midi": 65,
      "hit": false,
      "t": 35859.375,
      "d": 230.46875,
      "v": 127
    },
    {
      "midi": 65,
      "hit": false,
      "t": 35859.375,
      "d": 230.46875,
      "v": 127
    },
    {
      "midi": 36,
      "hit": false,
      "t": 35859.375,
      "d": 230.46875,
      "v": 127
    },
    {
      "midi": 42,
      "hit": false,
      "t": 35859.375,
      "d": 113.28125,
      "v": 127
    },
    {
      "midi": 42,
      "hit": false,
      "t": 35976.5625,
      "d": 113.28125,
      "v": 127
    },
    {
      "midi": 65,
      "hit": false,
      "t": 36093.75,
      "d": 230.46875,
      "v": 127
    },
    {
      "midi": 65,
      "hit": false,
      "t": 36093.75,
      "d": 230.46875,
      "v": 127
    },
    {
      "midi": 36,
      "hit": false,
      "t": 36093.75,
      "d": 230.46875,
      "v": 127
    },
    {
      "midi": 35,
      "hit": false,
      "t": 36093.75,
      "d": 464.84375,
      "v": 127
    },
    {
      "midi": 38,
      "hit": false,
      "t": 36093.75,
      "d": 464.84375,
      "v": 127
    },
    {
      "midi": 42,
      "hit": false,
      "t": 36093.75,
      "d": 230.46875,
      "v": 127
    },
    {
      "midi": 63,
      "hit": false,
      "t": 36328.125,
      "d": 464.84375,
      "v": 127
    },
    {
      "midi": 63,
      "hit": false,
      "t": 36328.125,
      "d": 230.46875,
      "v": 127
    },
    {
      "midi": 63,
      "hit": false,
      "t": 36328.125,
      "d": 464.84375,
      "v": 127
    },
    {
      "midi": 36,
      "hit": false,
      "t": 36328.125,
      "d": 230.46875,
      "v": 127
    },
    {
      "midi": 42,
      "hit": false,
      "t": 36328.125,
      "d": 113.28125,
      "v": 127
    },
    {
      "midi": 42,
      "hit": false,
      "t": 36445.3125,
      "d": 113.28125,
      "v": 127
    },
    {
      "midi": 65,
      "hit": false,
      "t": 36562.5,
      "d": 230.46875,
      "v": 127
    },
    {
      "midi": 36,
      "hit": false,
      "t": 36562.5,
      "d": 230.46875,
      "v": 127
    },
    {
      "midi": 35,
      "hit": false,
      "t": 36562.5,
      "d": 464.84375,
      "v": 127
    },
    {
      "midi": 42,
      "hit": false,
      "t": 36562.5,
      "d": 230.46875,
      "v": 127
    },
    {
      "midi": 60,
      "hit": false,
      "t": 36796.875,
      "d": 699.21875,
      "v": 127
    },
    {
      "midi": 63,
      "hit": false,
      "t": 36796.875,
      "d": 230.46875,
      "v": 127
    },
    {
      "midi": 60,
      "hit": false,
      "t": 36796.875,
      "d": 699.21875,
      "v": 127
    },
    {
      "midi": 36,
      "hit": false,
      "t": 36796.875,
      "d": 230.46875,
      "v": 127
    },
    {
      "midi": 42,
      "hit": false,
      "t": 36796.875,
      "d": 113.28125,
      "v": 127
    },
    {
      "midi": 42,
      "hit": false,
      "t": 36914.0625,
      "d": 113.28125,
      "v": 127
    },
    {
      "midi": 62,
      "hit": false,
      "t": 37031.25,
      "d": 230.46875,
      "v": 127
    },
    {
      "midi": 36,
      "hit": false,
      "t": 37031.25,
      "d": 230.46875,
      "v": 127
    },
    {
      "midi": 35,
      "hit": false,
      "t": 37031.25,
      "d": 464.84375,
      "v": 127
    },
    {
      "midi": 38,
      "hit": false,
      "t": 37031.25,
      "d": 464.84375,
      "v": 127
    },
    {
      "midi": 42,
      "hit": false,
      "t": 37031.25,
      "d": 230.46875,
      "v": 127
    },
    {
      "midi": 58,
      "hit": false,
      "t": 37265.625,
      "d": 699.21875,
      "v": 127
    },
    {
      "midi": 36,
      "hit": false,
      "t": 37265.625,
      "d": 230.46875,
      "v": 127
    },
    {
      "midi": 42,
      "hit": false,
      "t": 37265.625,
      "d": 113.28125,
      "v": 127
    },
    {
      "midi": 42,
      "hit": false,
      "t": 37382.8125,
      "d": 113.28125,
      "v": 127
    },
    {
      "midi": 63,
      "hit": false,
      "t": 37500,
      "d": 230.46875,
      "v": 127
    },
    {
      "midi": 63,
      "hit": false,
      "t": 37500,
      "d": 230.46875,
      "v": 127
    },
    {
      "midi": 67,
      "hit": false,
      "t": 37500,
      "d": 1871.09375,
      "v": 114
    },
    {
      "midi": 63,
      "hit": false,
      "t": 37500,
      "d": 1871.09375,
      "v": 124
    },
    {
      "midi": 39,
      "hit": false,
      "t": 37500,
      "d": 230.46875,
      "v": 127
    },
    {
      "midi": 35,
      "hit": false,
      "t": 37500,
      "d": 464.84375,
      "v": 127
    },
    {
      "midi": 42,
      "hit": false,
      "t": 37500,
      "d": 230.46875,
      "v": 127
    },
    {
      "midi": 63,
      "hit": false,
      "t": 37734.375,
      "d": 230.46875,
      "v": 127
    },
    {
      "midi": 63,
      "hit": false,
      "t": 37734.375,
      "d": 230.46875,
      "v": 127
    },
    {
      "midi": 39,
      "hit": false,
      "t": 37734.375,
      "d": 230.46875,
      "v": 127
    },
    {
      "midi": 42,
      "hit": false,
      "t": 37734.375,
      "d": 113.28125,
      "v": 127
    },
    {
      "midi": 42,
      "hit": false,
      "t": 37851.5625,
      "d": 113.28125,
      "v": 127
    },
    {
      "midi": 63,
      "hit": false,
      "t": 37968.75,
      "d": 230.46875,
      "v": 127
    },
    {
      "midi": 63,
      "hit": false,
      "t": 37968.75,
      "d": 230.46875,
      "v": 127
    },
    {
      "midi": 39,
      "hit": false,
      "t": 37968.75,
      "d": 230.46875,
      "v": 127
    },
    {
      "midi": 35,
      "hit": false,
      "t": 37968.75,
      "d": 464.84375,
      "v": 127
    },
    {
      "midi": 38,
      "hit": false,
      "t": 37968.75,
      "d": 464.84375,
      "v": 127
    },
    {
      "midi": 42,
      "hit": false,
      "t": 37968.75,
      "d": 230.46875,
      "v": 127
    },
    {
      "midi": 62,
      "hit": false,
      "t": 38203.125,
      "d": 464.84375,
      "v": 127
    },
    {
      "midi": 63,
      "hit": false,
      "t": 38203.125,
      "d": 230.46875,
      "v": 127
    },
    {
      "midi": 62,
      "hit": false,
      "t": 38203.125,
      "d": 464.84375,
      "v": 127
    },
    {
      "midi": 39,
      "hit": false,
      "t": 38203.125,
      "d": 230.46875,
      "v": 127
    },
    {
      "midi": 42,
      "hit": false,
      "t": 38203.125,
      "d": 113.28125,
      "v": 127
    },
    {
      "midi": 42,
      "hit": false,
      "t": 38320.3125,
      "d": 113.28125,
      "v": 127
    },
    {
      "midi": 65,
      "hit": false,
      "t": 38437.5,
      "d": 230.46875,
      "v": 127
    },
    {
      "midi": 39,
      "hit": false,
      "t": 38437.5,
      "d": 230.46875,
      "v": 127
    },
    {
      "midi": 35,
      "hit": false,
      "t": 38437.5,
      "d": 464.84375,
      "v": 127
    },
    {
      "midi": 42,
      "hit": false,
      "t": 38437.5,
      "d": 230.46875,
      "v": 127
    },
    {
      "midi": 58,
      "hit": false,
      "t": 38671.875,
      "d": 464.84375,
      "v": 127
    },
    {
      "midi": 63,
      "hit": false,
      "t": 38671.875,
      "d": 230.46875,
      "v": 127
    },
    {
      "midi": 58,
      "hit": false,
      "t": 38671.875,
      "d": 464.84375,
      "v": 127
    },
    {
      "midi": 39,
      "hit": false,
      "t": 38671.875,
      "d": 230.46875,
      "v": 127
    },
    {
      "midi": 42,
      "hit": false,
      "t": 38671.875,
      "d": 113.28125,
      "v": 127
    },
    {
      "midi": 42,
      "hit": false,
      "t": 38789.0625,
      "d": 113.28125,
      "v": 127
    },
    {
      "midi": 62,
      "hit": false,
      "t": 38906.25,
      "d": 230.46875,
      "v": 127
    },
    {
      "midi": 39,
      "hit": false,
      "t": 38906.25,
      "d": 230.46875,
      "v": 127
    },
    {
      "midi": 35,
      "hit": false,
      "t": 38906.25,
      "d": 464.84375,
      "v": 127
    },
    {
      "midi": 38,
      "hit": false,
      "t": 38906.25,
      "d": 464.84375,
      "v": 127
    },
    {
      "midi": 42,
      "hit": false,
      "t": 38906.25,
      "d": 230.46875,
      "v": 127
    },
    {
      "midi": 58,
      "hit": false,
      "t": 39140.625,
      "d": 230.46875,
      "v": 127
    },
    {
      "midi": 58,
      "hit": false,
      "t": 39140.625,
      "d": 699.21875,
      "v": 127
    },
    {
      "midi": 58,
      "hit": false,
      "t": 39140.625,
      "d": 230.46875,
      "v": 127
    },
    {
      "midi": 39,
      "hit": false,
      "t": 39140.625,
      "d": 230.46875,
      "v": 127
    },
    {
      "midi": 42,
      "hit": false,
      "t": 39140.625,
      "d": 113.28125,
      "v": 127
    },
    {
      "midi": 42,
      "hit": false,
      "t": 39257.8125,
      "d": 113.28125,
      "v": 127
    },
    {
      "midi": 65,
      "hit": false,
      "t": 39375,
      "d": 230.46875,
      "v": 127
    },
    {
      "midi": 65,
      "hit": false,
      "t": 39375,
      "d": 230.46875,
      "v": 127
    },
    {
      "midi": 63,
      "hit": false,
      "t": 39375,
      "d": 1871.09375,
      "v": 114
    },
    {
      "midi": 60,
      "hit": false,
      "t": 39375,
      "d": 1871.09375,
      "v": 124
    },
    {
      "midi": 36,
      "hit": false,
      "t": 39375,
      "d": 230.46875,
      "v": 127
    },
    {
      "midi": 35,
      "hit": false,
      "t": 39375,
      "d": 464.84375,
      "v": 127
    },
    {
      "midi": 42,
      "hit": false,
      "t": 39375,
      "d": 230.46875,
      "v": 127
    },
    {
      "midi": 65,
      "hit": false,
      "t": 39609.375,
      "d": 230.46875,
      "v": 127
    },
    {
      "midi": 65,
      "hit": false,
      "t": 39609.375,
      "d": 230.46875,
      "v": 127
    },
    {
      "midi": 36,
      "hit": false,
      "t": 39609.375,
      "d": 230.46875,
      "v": 127
    },
    {
      "midi": 42,
      "hit": false,
      "t": 39609.375,
      "d": 113.28125,
      "v": 127
    },
    {
      "midi": 42,
      "hit": false,
      "t": 39726.5625,
      "d": 113.28125,
      "v": 127
    },
    {
      "midi": 65,
      "hit": false,
      "t": 39843.75,
      "d": 230.46875,
      "v": 127
    },
    {
      "midi": 65,
      "hit": false,
      "t": 39843.75,
      "d": 230.46875,
      "v": 127
    },
    {
      "midi": 36,
      "hit": false,
      "t": 39843.75,
      "d": 230.46875,
      "v": 127
    },
    {
      "midi": 35,
      "hit": false,
      "t": 39843.75,
      "d": 464.84375,
      "v": 127
    },
    {
      "midi": 38,
      "hit": false,
      "t": 39843.75,
      "d": 464.84375,
      "v": 127
    },
    {
      "midi": 42,
      "hit": false,
      "t": 39843.75,
      "d": 230.46875,
      "v": 127
    },
    {
      "midi": 63,
      "hit": false,
      "t": 40078.125,
      "d": 464.84375,
      "v": 127
    },
    {
      "midi": 63,
      "hit": false,
      "t": 40078.125,
      "d": 230.46875,
      "v": 127
    },
    {
      "midi": 63,
      "hit": false,
      "t": 40078.125,
      "d": 464.84375,
      "v": 127
    },
    {
      "midi": 36,
      "hit": false,
      "t": 40078.125,
      "d": 230.46875,
      "v": 127
    },
    {
      "midi": 42,
      "hit": false,
      "t": 40078.125,
      "d": 113.28125,
      "v": 127
    },
    {
      "midi": 42,
      "hit": false,
      "t": 40195.3125,
      "d": 113.28125,
      "v": 127
    },
    {
      "midi": 65,
      "hit": false,
      "t": 40312.5,
      "d": 230.46875,
      "v": 127
    },
    {
      "midi": 36,
      "hit": false,
      "t": 40312.5,
      "d": 230.46875,
      "v": 127
    },
    {
      "midi": 35,
      "hit": false,
      "t": 40312.5,
      "d": 464.84375,
      "v": 127
    },
    {
      "midi": 42,
      "hit": false,
      "t": 40312.5,
      "d": 230.46875,
      "v": 127
    },
    {
      "midi": 60,
      "hit": false,
      "t": 40546.875,
      "d": 464.84375,
      "v": 127
    },
    {
      "midi": 63,
      "hit": false,
      "t": 40546.875,
      "d": 230.46875,
      "v": 127
    },
    {
      "midi": 60,
      "hit": false,
      "t": 40546.875,
      "d": 464.84375,
      "v": 127
    },
    {
      "midi": 36,
      "hit": false,
      "t": 40546.875,
      "d": 230.46875,
      "v": 127
    },
    {
      "midi": 42,
      "hit": false,
      "t": 40546.875,
      "d": 113.28125,
      "v": 127
    },
    {
      "midi": 42,
      "hit": false,
      "t": 40664.0625,
      "d": 113.28125,
      "v": 127
    },
    {
      "midi": 62,
      "hit": false,
      "t": 40781.25,
      "d": 230.46875,
      "v": 127
    },
    {
      "midi": 36,
      "hit": false,
      "t": 40781.25,
      "d": 230.46875,
      "v": 127
    },
    {
      "midi": 35,
      "hit": false,
      "t": 40781.25,
      "d": 464.84375,
      "v": 127
    },
    {
      "midi": 38,
      "hit": false,
      "t": 40781.25,
      "d": 464.84375,
      "v": 127
    },
    {
      "midi": 42,
      "hit": false,
      "t": 40781.25,
      "d": 230.46875,
      "v": 127
    },
    {
      "midi": 60,
      "hit": false,
      "t": 41015.625,
      "d": 230.46875,
      "v": 127
    },
    {
      "midi": 58,
      "hit": false,
      "t": 41015.625,
      "d": 699.21875,
      "v": 127
    },
    {
      "midi": 60,
      "hit": false,
      "t": 41015.625,
      "d": 230.46875,
      "v": 127
    },
    {
      "midi": 36,
      "hit": false,
      "t": 41015.625,
      "d": 230.46875,
      "v": 127
    },
    {
      "midi": 42,
      "hit": false,
      "t": 41015.625,
      "d": 113.28125,
      "v": 127
    },
    {
      "midi": 42,
      "hit": false,
      "t": 41132.8125,
      "d": 113.28125,
      "v": 127
    },
    {
      "midi": 67,
      "hit": false,
      "t": 41250,
      "d": 464.84375,
      "v": 127
    },
    {
      "midi": 67,
      "hit": false,
      "t": 41250,
      "d": 464.84375,
      "v": 127
    },
    {
      "midi": 60,
      "hit": false,
      "t": 41250,
      "d": 1871.09375,
      "v": 114
    },
    {
      "midi": 56,
      "hit": false,
      "t": 41250,
      "d": 1871.09375,
      "v": 124
    },
    {
      "midi": 32,
      "hit": false,
      "t": 41250,
      "d": 230.46875,
      "v": 127
    },
    {
      "midi": 35,
      "hit": false,
      "t": 41250,
      "d": 464.84375,
      "v": 127
    },
    {
      "midi": 42,
      "hit": false,
      "t": 41250,
      "d": 230.46875,
      "v": 127
    },
    {
      "midi": 32,
      "hit": false,
      "t": 41484.375,
      "d": 230.46875,
      "v": 127
    },
    {
      "midi": 42,
      "hit": false,
      "t": 41484.375,
      "d": 113.28125,
      "v": 127
    },
    {
      "midi": 42,
      "hit": false,
      "t": 41601.5625,
      "d": 113.28125,
      "v": 127
    },
    {
      "midi": 67,
      "hit": false,
      "t": 41718.75,
      "d": 230.46875,
      "v": 127
    },
    {
      "midi": 67,
      "hit": false,
      "t": 41718.75,
      "d": 230.46875,
      "v": 127
    },
    {
      "midi": 32,
      "hit": false,
      "t": 41718.75,
      "d": 230.46875,
      "v": 127
    },
    {
      "midi": 35,
      "hit": false,
      "t": 41718.75,
      "d": 464.84375,
      "v": 127
    },
    {
      "midi": 38,
      "hit": false,
      "t": 41718.75,
      "d": 464.84375,
      "v": 127
    },
    {
      "midi": 42,
      "hit": false,
      "t": 41718.75,
      "d": 230.46875,
      "v": 127
    },
    {
      "midi": 65,
      "hit": false,
      "t": 41953.125,
      "d": 699.21875,
      "v": 127
    },
    {
      "midi": 67,
      "hit": false,
      "t": 41953.125,
      "d": 230.46875,
      "v": 127
    },
    {
      "midi": 65,
      "hit": false,
      "t": 41953.125,
      "d": 699.21875,
      "v": 127
    },
    {
      "midi": 32,
      "hit": false,
      "t": 41953.125,
      "d": 230.46875,
      "v": 127
    },
    {
      "midi": 42,
      "hit": false,
      "t": 41953.125,
      "d": 113.28125,
      "v": 127
    },
    {
      "midi": 42,
      "hit": false,
      "t": 42070.3125,
      "d": 113.28125,
      "v": 127
    },
    {
      "midi": 68,
      "hit": false,
      "t": 42187.5,
      "d": 230.46875,
      "v": 127
    },
    {
      "midi": 32,
      "hit": false,
      "t": 42187.5,
      "d": 230.46875,
      "v": 127
    },
    {
      "midi": 35,
      "hit": false,
      "t": 42187.5,
      "d": 464.84375,
      "v": 127
    },
    {
      "midi": 42,
      "hit": false,
      "t": 42187.5,
      "d": 230.46875,
      "v": 127
    },
    {
      "midi": 67,
      "hit": false,
      "t": 42421.875,
      "d": 230.46875,
      "v": 127
    },
    {
      "midi": 32,
      "hit": false,
      "t": 42421.875,
      "d": 230.46875,
      "v": 127
    },
    {
      "midi": 42,
      "hit": false,
      "t": 42421.875,
      "d": 113.28125,
      "v": 127
    },
    {
      "midi": 42,
      "hit": false,
      "t": 42539.0625,
      "d": 113.28125,
      "v": 127
    },
    {
      "midi": 60,
      "hit": false,
      "t": 42656.25,
      "d": 464.84375,
      "v": 127
    },
    {
      "midi": 63,
      "hit": false,
      "t": 42656.25,
      "d": 230.46875,
      "v": 127
    },
    {
      "midi": 60,
      "hit": false,
      "t": 42656.25,
      "d": 464.84375,
      "v": 127
    },
    {
      "midi": 32,
      "hit": false,
      "t": 42656.25,
      "d": 230.46875,
      "v": 127
    },
    {
      "midi": 35,
      "hit": false,
      "t": 42656.25,
      "d": 464.84375,
      "v": 127
    },
    {
      "midi": 38,
      "hit": false,
      "t": 42656.25,
      "d": 464.84375,
      "v": 127
    },
    {
      "midi": 42,
      "hit": false,
      "t": 42656.25,
      "d": 230.46875,
      "v": 127
    },
    {
      "midi": 60,
      "hit": false,
      "t": 42890.625,
      "d": 230.46875,
      "v": 127
    },
    {
      "midi": 32,
      "hit": false,
      "t": 42890.625,
      "d": 230.46875,
      "v": 127
    },
    {
      "midi": 42,
      "hit": false,
      "t": 42890.625,
      "d": 113.28125,
      "v": 127
    },
    {
      "midi": 42,
      "hit": false,
      "t": 43007.8125,
      "d": 113.28125,
      "v": 127
    },
    {
      "midi": 68,
      "hit": false,
      "t": 43125,
      "d": 464.84375,
      "v": 127
    },
    {
      "midi": 68,
      "hit": false,
      "t": 43125,
      "d": 464.84375,
      "v": 127
    },
    {
      "midi": 62,
      "hit": false,
      "t": 43125,
      "d": 1871.09375,
      "v": 114
    },
    {
      "midi": 58,
      "hit": false,
      "t": 43125,
      "d": 1871.09375,
      "v": 124
    },
    {
      "midi": 34,
      "hit": false,
      "t": 43125,
      "d": 230.46875,
      "v": 127
    },
    {
      "midi": 35,
      "hit": false,
      "t": 43125,
      "d": 464.84375,
      "v": 127
    },
    {
      "midi": 42,
      "hit": false,
      "t": 43125,
      "d": 230.46875,
      "v": 127
    },
    {
      "midi": 34,
      "hit": false,
      "t": 43359.375,
      "d": 230.46875,
      "v": 127
    },
    {
      "midi": 42,
      "hit": false,
      "t": 43359.375,
      "d": 113.28125,
      "v": 127
    },
    {
      "midi": 42,
      "hit": false,
      "t": 43476.5625,
      "d": 113.28125,
      "v": 127
    },
    {
      "midi": 68,
      "hit": false,
      "t": 43593.75,
      "d": 230.46875,
      "v": 127
    },
    {
      "midi": 68,
      "hit": false,
      "t": 43593.75,
      "d": 230.46875,
      "v": 127
    },
    {
      "midi": 34,
      "hit": false,
      "t": 43593.75,
      "d": 230.46875,
      "v": 127
    },
    {
      "midi": 35,
      "hit": false,
      "t": 43593.75,
      "d": 464.84375,
      "v": 127
    },
    {
      "midi": 38,
      "hit": false,
      "t": 43593.75,
      "d": 464.84375,
      "v": 127
    },
    {
      "midi": 42,
      "hit": false,
      "t": 43593.75,
      "d": 230.46875,
      "v": 127
    },
    {
      "midi": 67,
      "hit": false,
      "t": 43828.125,
      "d": 464.84375,
      "v": 127
    },
    {
      "midi": 67,
      "hit": false,
      "t": 43828.125,
      "d": 464.84375,
      "v": 127
    },
    {
      "midi": 34,
      "hit": false,
      "t": 43828.125,
      "d": 230.46875,
      "v": 127
    },
    {
      "midi": 42,
      "hit": false,
      "t": 43828.125,
      "d": 113.28125,
      "v": 127
    },
    {
      "midi": 42,
      "hit": false,
      "t": 43945.3125,
      "d": 113.28125,
      "v": 127
    },
    {
      "midi": 34,
      "hit": false,
      "t": 44062.5,
      "d": 230.46875,
      "v": 127
    },
    {
      "midi": 35,
      "hit": false,
      "t": 44062.5,
      "d": 464.84375,
      "v": 127
    },
    {
      "midi": 42,
      "hit": false,
      "t": 44062.5,
      "d": 230.46875,
      "v": 127
    },
    {
      "midi": 63,
      "hit": false,
      "t": 44296.875,
      "d": 230.46875,
      "v": 127
    },
    {
      "midi": 63,
      "hit": false,
      "t": 44296.875,
      "d": 230.46875,
      "v": 127
    },
    {
      "midi": 34,
      "hit": false,
      "t": 44296.875,
      "d": 230.46875,
      "v": 127
    },
    {
      "midi": 42,
      "hit": false,
      "t": 44296.875,
      "d": 113.28125,
      "v": 127
    },
    {
      "midi": 42,
      "hit": false,
      "t": 44414.0625,
      "d": 113.28125,
      "v": 127
    },
    {
      "midi": 65,
      "hit": false,
      "t": 44531.25,
      "d": 464.84375,
      "v": 127
    },
    {
      "midi": 65,
      "hit": false,
      "t": 44531.25,
      "d": 464.84375,
      "v": 127
    },
    {
      "midi": 34,
      "hit": false,
      "t": 44531.25,
      "d": 230.46875,
      "v": 127
    },
    {
      "midi": 35,
      "hit": false,
      "t": 44531.25,
      "d": 464.84375,
      "v": 127
    },
    {
      "midi": 38,
      "hit": false,
      "t": 44531.25,
      "d": 464.84375,
      "v": 127
    },
    {
      "midi": 42,
      "hit": false,
      "t": 44531.25,
      "d": 230.46875,
      "v": 127
    },
    {
      "midi": 34,
      "hit": false,
      "t": 44765.625,
      "d": 230.46875,
      "v": 127
    },
    {
      "midi": 42,
      "hit": false,
      "t": 44765.625,
      "d": 113.28125,
      "v": 127
    },
    {
      "midi": 42,
      "hit": false,
      "t": 44882.8125,
      "d": 113.28125,
      "v": 127
    },
    {
      "midi": 63,
      "hit": false,
      "t": 45000,
      "d": 1402.34375,
      "v": 127
    },
    {
      "midi": 63,
      "hit": false,
      "t": 45000,
      "d": 1402.34375,
      "v": 127
    },
    {
      "midi": 63,
      "hit": false,
      "t": 45000,
      "d": 1871.09375,
      "v": 114
    },
    {
      "midi": 27,
      "hit": false,
      "t": 45000,
      "d": 230.46875,
      "v": 127
    },
    {
      "midi": 35,
      "hit": false,
      "t": 45000,
      "d": 464.84375,
      "v": 127
    },
    {
      "midi": 42,
      "hit": false,
      "t": 45000,
      "d": 230.46875,
      "v": 127
    },
    {
      "midi": 66,
      "hit": false,
      "t": 45234.375,
      "d": 113.28125,
      "v": 127
    },
    {
      "midi": 66,
      "hit": false,
      "t": 45234.375,
      "d": 113.28125,
      "v": 124
    },
    {
      "midi": 27,
      "hit": false,
      "t": 45234.375,
      "d": 230.46875,
      "v": 127
    },
    {
      "midi": 42,
      "hit": false,
      "t": 45234.375,
      "d": 113.28125,
      "v": 127
    },
    {
      "midi": 66,
      "hit": false,
      "t": 45351.5625,
      "d": 113.28125,
      "v": 127
    },
    {
      "midi": 66,
      "hit": false,
      "t": 45351.5625,
      "d": 113.28125,
      "v": 124
    },
    {
      "midi": 42,
      "hit": false,
      "t": 45351.5625,
      "d": 113.28125,
      "v": 127
    },
    {
      "midi": 72,
      "hit": false,
      "t": 45468.75,
      "d": 230.46875,
      "v": 127
    },
    {
      "midi": 72,
      "hit": false,
      "t": 45468.75,
      "d": 230.46875,
      "v": 124
    },
    {
      "midi": 27,
      "hit": false,
      "t": 45468.75,
      "d": 230.46875,
      "v": 127
    },
    {
      "midi": 35,
      "hit": false,
      "t": 45468.75,
      "d": 464.84375,
      "v": 127
    },
    {
      "midi": 38,
      "hit": false,
      "t": 45468.75,
      "d": 464.84375,
      "v": 127
    },
    {
      "midi": 42,
      "hit": false,
      "t": 45468.75,
      "d": 230.46875,
      "v": 127
    },
    {
      "midi": 75,
      "hit": false,
      "t": 45703.125,
      "d": 230.46875,
      "v": 127
    },
    {
      "midi": 75,
      "hit": false,
      "t": 45703.125,
      "d": 230.46875,
      "v": 124
    },
    {
      "midi": 27,
      "hit": false,
      "t": 45703.125,
      "d": 230.46875,
      "v": 127
    },
    {
      "midi": 42,
      "hit": false,
      "t": 45703.125,
      "d": 113.28125,
      "v": 127
    },
    {
      "midi": 42,
      "hit": false,
      "t": 45820.3125,
      "d": 113.28125,
      "v": 127
    },
    {
      "midi": 77,
      "hit": false,
      "t": 45937.5,
      "d": 230.46875,
      "v": 127
    },
    {
      "midi": 77,
      "hit": false,
      "t": 45937.5,
      "d": 230.46875,
      "v": 124
    },
    {
      "midi": 27,
      "hit": false,
      "t": 45937.5,
      "d": 230.46875,
      "v": 127
    },
    {
      "midi": 35,
      "hit": false,
      "t": 45937.5,
      "d": 464.84375,
      "v": 127
    },
    {
      "midi": 42,
      "hit": false,
      "t": 45937.5,
      "d": 230.46875,
      "v": 127
    },
    {
      "midi": 75,
      "hit": false,
      "t": 46171.875,
      "d": 230.46875,
      "v": 127
    },
    {
      "midi": 75,
      "hit": false,
      "t": 46171.875,
      "d": 230.46875,
      "v": 124
    },
    {
      "midi": 27,
      "hit": false,
      "t": 46171.875,
      "d": 230.46875,
      "v": 127
    },
    {
      "midi": 42,
      "hit": false,
      "t": 46171.875,
      "d": 113.28125,
      "v": 127
    },
    {
      "midi": 42,
      "hit": false,
      "t": 46289.0625,
      "d": 113.28125,
      "v": 127
    },
    {
      "midi": 77,
      "hit": false,
      "t": 46406.25,
      "d": 230.46875,
      "v": 127
    },
    {
      "midi": 77,
      "hit": false,
      "t": 46406.25,
      "d": 230.46875,
      "v": 124
    },
    {
      "midi": 27,
      "hit": false,
      "t": 46406.25,
      "d": 230.46875,
      "v": 127
    },
    {
      "midi": 35,
      "hit": false,
      "t": 46406.25,
      "d": 464.84375,
      "v": 127
    },
    {
      "midi": 38,
      "hit": false,
      "t": 46406.25,
      "d": 464.84375,
      "v": 127
    },
    {
      "midi": 42,
      "hit": false,
      "t": 46406.25,
      "d": 230.46875,
      "v": 127
    },
    {
      "midi": 80,
      "hit": false,
      "t": 46640.625,
      "d": 230.46875,
      "v": 127
    },
    {
      "midi": 80,
      "hit": false,
      "t": 46640.625,
      "d": 230.46875,
      "v": 124
    },
    {
      "midi": 27,
      "hit": false,
      "t": 46640.625,
      "d": 230.46875,
      "v": 127
    },
    {
      "midi": 42,
      "hit": false,
      "t": 46640.625,
      "d": 113.28125,
      "v": 127
    },
    {
      "midi": 42,
      "hit": false,
      "t": 46757.8125,
      "d": 113.28125,
      "v": 127
    },
    {
      "midi": 79,
      "hit": false,
      "t": 46875,
      "d": 230.46875,
      "v": 127
    },
    {
      "midi": 63,
      "hit": false,
      "t": 46875,
      "d": 1871.09375,
      "v": 114
    },
    {
      "midi": 79,
      "hit": false,
      "t": 46875,
      "d": 230.46875,
      "v": 124
    },
    {
      "midi": 31,
      "hit": false,
      "t": 46875,
      "d": 230.46875,
      "v": 127
    },
    {
      "midi": 35,
      "hit": false,
      "t": 46875,
      "d": 230.46875,
      "v": 127
    },
    {
      "midi": 38,
      "hit": false,
      "t": 46875,
      "d": 230.46875,
      "v": 127
    },
    {
      "midi": 42,
      "hit": false,
      "t": 46875,
      "d": 230.46875,
      "v": 127
    },
    {
      "midi": 79,
      "hit": false,
      "t": 47109.375,
      "d": 230.46875,
      "v": 127
    },
    {
      "midi": 79,
      "hit": false,
      "t": 47109.375,
      "d": 230.46875,
      "v": 124
    },
    {
      "midi": 31,
      "hit": false,
      "t": 47109.375,
      "d": 230.46875,
      "v": 127
    },
    {
      "midi": 35,
      "hit": false,
      "t": 47109.375,
      "d": 230.46875,
      "v": 127
    },
    {
      "midi": 38,
      "hit": false,
      "t": 47109.375,
      "d": 230.46875,
      "v": 127
    },
    {
      "midi": 42,
      "hit": false,
      "t": 47109.375,
      "d": 230.46875,
      "v": 127
    },
    {
      "midi": 79,
      "hit": false,
      "t": 47343.75,
      "d": 464.84375,
      "v": 127
    },
    {
      "midi": 79,
      "hit": false,
      "t": 47343.75,
      "d": 464.84375,
      "v": 124
    },
    {
      "midi": 31,
      "hit": false,
      "t": 47343.75,
      "d": 230.46875,
      "v": 127
    },
    {
      "midi": 35,
      "hit": false,
      "t": 47343.75,
      "d": 464.84375,
      "v": 127
    },
    {
      "midi": 38,
      "hit": false,
      "t": 47343.75,
      "d": 230.46875,
      "v": 127
    },
    {
      "midi": 42,
      "hit": false,
      "t": 47343.75,
      "d": 230.46875,
      "v": 127
    },
    {
      "midi": 38,
      "hit": false,
      "t": 47578.125,
      "d": 230.46875,
      "v": 127
    },
    {
      "midi": 63,
      "hit": false,
      "t": 47812.5,
      "d": 464.84375,
      "v": 127
    },
    {
      "midi": 35,
      "hit": false,
      "t": 47812.5,
      "d": 464.84375,
      "v": 127
    },
    {
      "midi": 38,
      "hit": false,
      "t": 48046.875,
      "d": 230.46875,
      "v": 127
    },
    {
      "midi": 65,
      "hit": false,
      "t": 48281.25,
      "d": 464.84375,
      "v": 127
    },
    {
      "midi": 35,
      "hit": false,
      "t": 48281.25,
      "d": 464.84375,
      "v": 127
    },
    {
      "midi": 38,
      "hit": false,
      "t": 48281.25,
      "d": 230.46875,
      "v": 127
    },
    {
      "midi": 38,
      "hit": false,
      "t": 48515.625,
      "d": 230.46875,
      "v": 127
    },
    {
      "midi": 67,
      "hit": false,
      "t": 48750,
      "d": 464.84375,
      "v": 127
    },
    {
      "midi": 74,
      "hit": false,
      "t": 48750,
      "d": 933.59375,
      "v": 127
    },
    {
      "midi": 67,
      "hit": false,
      "t": 48750,
      "d": 1871.09375,
      "v": 127
    },
    {
      "midi": 62,
      "hit": false,
      "t": 48750,
      "d": 1871.09375,
      "v": 114
    },
    {
      "midi": 38,
      "hit": false,
      "t": 48750,
      "d": 699.21875,
      "v": 127
    },
    {
      "midi": 35,
      "hit": false,
      "t": 48750,
      "d": 464.84375,
      "v": 127
    },
    {
      "midi": 42,
      "hit": false,
      "t": 48750,
      "d": 464.84375,
      "v": 127
    },
    {
      "midi": 62,
      "hit": false,
      "t": 49218.75,
      "d": 464.84375,
      "v": 127
    },
    {
      "midi": 35,
      "hit": false,
      "t": 49218.75,
      "d": 230.46875,
      "v": 127
    },
    {
      "midi": 42,
      "hit": false,
      "t": 49218.75,
      "d": 230.46875,
      "v": 127
    },
    {
      "midi": 38,
      "hit": false,
      "t": 49453.125,
      "d": 230.46875,
      "v": 127
    },
    {
      "midi": 35,
      "hit": false,
      "t": 49453.125,
      "d": 464.84375,
      "v": 127
    },
    {
      "midi": 42,
      "hit": false,
      "t": 49453.125,
      "d": 464.84375,
      "v": 127
    },
    {
      "midi": 62,
      "hit": false,
      "t": 49687.5,
      "d": 464.84375,
      "v": 127
    },
    {
      "midi": 67,
      "hit": false,
      "t": 49687.5,
      "d": 933.59375,
      "v": 127
    },
    {
      "midi": 38,
      "hit": false,
      "t": 49687.5,
      "d": 933.59375,
      "v": 127
    },
    {
      "midi": 65,
      "hit": false,
      "t": 50156.25,
      "d": 464.84375,
      "v": 127
    },
    {
      "midi": 35,
      "hit": false,
      "t": 50156.25,
      "d": 464.84375,
      "v": 127
    },
    {
      "midi": 38,
      "hit": false,
      "t": 50156.25,
      "d": 464.84375,
      "v": 127
    },
    {
      "midi": 63,
      "hit": false,
      "t": 50625,
      "d": 230.46875,
      "v": 127
    },
    {
      "midi": 72,
      "hit": false,
      "t": 50625,
      "d": 933.59375,
      "v": 127
    },
    {
      "midi": 67,
      "hit": false,
      "t": 50625,
      "d": 933.59375,
      "v": 127
    },
    {
      "midi": 63,
      "hit": false,
      "t": 50625,
      "d": 1871.09375,
      "v": 114
    },
    {
      "midi": 36,
      "hit": false,
      "t": 50625,
      "d": 699.21875,
      "v": 127
    },
    {
      "midi": 35,
      "hit": false,
      "t": 50625,
      "d": 464.84375,
      "v": 127
    },
    {
      "midi": 42,
      "hit": false,
      "t": 50625,
      "d": 464.84375,
      "v": 127
    },
    {
      "midi": 65,
      "hit": false,
      "t": 50859.375,
      "d": 230.46875,
      "v": 127
    },
    {
      "midi": 63,
      "hit": false,
      "t": 51093.75,
      "d": 230.46875,
      "v": 127
    },
    {
      "midi": 35,
      "hit": false,
      "t": 51093.75,
      "d": 230.46875,
      "v": 127
    },
    {
      "midi": 42,
      "hit": false,
      "t": 51093.75,
      "d": 230.46875,
      "v": 127
    },
    {
      "midi": 62,
      "hit": false,
      "t": 51328.125,
      "d": 230.46875,
      "v": 127
    },
    {
      "midi": 36,
      "hit": false,
      "t": 51328.125,
      "d": 230.46875,
      "v": 127
    },
    {
      "midi": 35,
      "hit": false,
      "t": 51328.125,
      "d": 464.84375,
      "v": 127
    },
    {
      "midi": 42,
      "hit": false,
      "t": 51328.125,
      "d": 464.84375,
      "v": 127
    },
    {
      "midi": 60,
      "hit": false,
      "t": 51562.5,
      "d": 464.84375,
      "v": 127
    },
    {
      "midi": 79,
      "hit": false,
      "t": 51562.5,
      "d": 933.59375,
      "v": 127
    },
    {
      "midi": 67,
      "hit": false,
      "t": 51562.5,
      "d": 933.59375,
      "v": 127
    },
    {
      "midi": 36,
      "hit": false,
      "t": 51562.5,
      "d": 933.59375,
      "v": 127
    },
    {
      "midi": 35,
      "hit": false,
      "t": 52031.25,
      "d": 464.84375,
      "v": 127
    },
    {
      "midi": 38,
      "hit": false,
      "t": 52031.25,
      "d": 464.84375,
      "v": 127
    },
    {
      "midi": 67,
      "hit": false,
      "t": 52500,
      "d": 464.84375,
      "v": 127
    },
    {
      "midi": 74,
      "hit": false,
      "t": 52500,
      "d": 933.59375,
      "v": 127
    },
    {
      "midi": 67,
      "hit": false,
      "t": 52500,
      "d": 1871.09375,
      "v": 127
    },
    {
      "midi": 62,
      "hit": false,
      "t": 52500,
      "d": 1871.09375,
      "v": 114
    },
    {
      "midi": 36,
      "hit": false,
      "t": 52500,
      "d": 699.21875,
      "v": 127
    },
    {
      "midi": 35,
      "hit": false,
      "t": 52500,
      "d": 464.84375,
      "v": 127
    },
    {
      "midi": 42,
      "hit": false,
      "t": 52500,
      "d": 464.84375,
      "v": 127
    },
    {
      "midi": 62,
      "hit": false,
      "t": 52968.75,
      "d": 464.84375,
      "v": 127
    },
    {
      "midi": 35,
      "hit": false,
      "t": 52968.75,
      "d": 230.46875,
      "v": 127
    },
    {
      "midi": 42,
      "hit": false,
      "t": 52968.75,
      "d": 230.46875,
      "v": 127
    },
    {
      "midi": 38,
      "hit": false,
      "t": 53203.125,
      "d": 230.46875,
      "v": 127
    },
    {
      "midi": 35,
      "hit": false,
      "t": 53203.125,
      "d": 464.84375,
      "v": 127
    },
    {
      "midi": 42,
      "hit": false,
      "t": 53203.125,
      "d": 464.84375,
      "v": 127
    },
    {
      "midi": 62,
      "hit": false,
      "t": 53437.5,
      "d": 464.84375,
      "v": 127
    },
    {
      "midi": 67,
      "hit": false,
      "t": 53437.5,
      "d": 933.59375,
      "v": 127
    },
    {
      "midi": 38,
      "hit": false,
      "t": 53437.5,
      "d": 933.59375,
      "v": 127
    },
    {
      "midi": 65,
      "hit": false,
      "t": 53906.25,
      "d": 464.84375,
      "v": 127
    },
    {
      "midi": 35,
      "hit": false,
      "t": 53906.25,
      "d": 464.84375,
      "v": 127
    },
    {
      "midi": 38,
      "hit": false,
      "t": 53906.25,
      "d": 464.84375,
      "v": 127
    },
    {
      "midi": 63,
      "hit": false,
      "t": 54375,
      "d": 230.46875,
      "v": 127
    },
    {
      "midi": 72,
      "hit": false,
      "t": 54375,
      "d": 933.59375,
      "v": 127
    },
    {
      "midi": 67,
      "hit": false,
      "t": 54375,
      "d": 933.59375,
      "v": 127
    },
    {
      "midi": 63,
      "hit": false,
      "t": 54375,
      "d": 1871.09375,
      "v": 114
    },
    {
      "midi": 39,
      "hit": false,
      "t": 54375,
      "d": 699.21875,
      "v": 127
    },
    {
      "midi": 35,
      "hit": false,
      "t": 54375,
      "d": 464.84375,
      "v": 127
    },
    {
      "midi": 42,
      "hit": false,
      "t": 54375,
      "d": 464.84375,
      "v": 127
    },
    {
      "midi": 62,
      "hit": false,
      "t": 54609.375,
      "d": 230.46875,
      "v": 127
    },
    {
      "midi": 63,
      "hit": false,
      "t": 54843.75,
      "d": 230.46875,
      "v": 127
    },
    {
      "midi": 35,
      "hit": false,
      "t": 54843.75,
      "d": 230.46875,
      "v": 127
    },
    {
      "midi": 42,
      "hit": false,
      "t": 54843.75,
      "d": 230.46875,
      "v": 127
    },
    {
      "midi": 65,
      "hit": false,
      "t": 55078.125,
      "d": 230.46875,
      "v": 127
    },
    {
      "midi": 39,
      "hit": false,
      "t": 55078.125,
      "d": 230.46875,
      "v": 127
    },
    {
      "midi": 35,
      "hit": false,
      "t": 55078.125,
      "d": 464.84375,
      "v": 127
    },
    {
      "midi": 42,
      "hit": false,
      "t": 55078.125,
      "d": 464.84375,
      "v": 127
    },
    {
      "midi": 67,
      "hit": false,
      "t": 55312.5,
      "d": 464.84375,
      "v": 127
    },
    {
      "midi": 72,
      "hit": false,
      "t": 55312.5,
      "d": 933.59375,
      "v": 127
    },
    {
      "midi": 67,
      "hit": false,
      "t": 55312.5,
      "d": 933.59375,
      "v": 127
    },
    {
      "midi": 39,
      "hit": false,
      "t": 55312.5,
      "d": 933.59375,
      "v": 127
    },
    {
      "midi": 35,
      "hit": false,
      "t": 55781.25,
      "d": 464.84375,
      "v": 127
    },
    {
      "midi": 38,
      "hit": false,
      "t": 55781.25,
      "d": 464.84375,
      "v": 127
    },
    {
      "midi": 65,
      "hit": false,
      "t": 56250,
      "d": 464.84375,
      "v": 127
    },
    {
      "midi": 77,
      "hit": false,
      "t": 56250,
      "d": 933.59375,
      "v": 127
    },
    {
      "midi": 65,
      "hit": false,
      "t": 56250,
      "d": 1871.09375,
      "v": 127
    },
    {
      "midi": 62,
      "hit": false,
      "t": 56250,
      "d": 1871.09375,
      "v": 114
    },
    {
      "midi": 41,
      "hit": false,
      "t": 56250,
      "d": 699.21875,
      "v": 127
    },
    {
      "midi": 35,
      "hit": false,
      "t": 56250,
      "d": 464.84375,
      "v": 127
    },
    {
      "midi": 42,
      "hit": false,
      "t": 56250,
      "d": 464.84375,
      "v": 127
    },
    {
      "midi": 65,
      "hit": false,
      "t": 56718.75,
      "d": 464.84375,
      "v": 127
    },
    {
      "midi": 35,
      "hit": false,
      "t": 56718.75,
      "d": 230.46875,
      "v": 127
    },
    {
      "midi": 42,
      "hit": false,
      "t": 56718.75,
      "d": 230.46875,
      "v": 127
    },
    {
      "midi": 41,
      "hit": false,
      "t": 56953.125,
      "d": 230.46875,
      "v": 127
    },
    {
      "midi": 35,
      "hit": false,
      "t": 56953.125,
      "d": 464.84375,
      "v": 127
    },
    {
      "midi": 42,
      "hit": false,
      "t": 56953.125,
      "d": 464.84375,
      "v": 127
    },
    {
      "midi": 65,
      "hit": false,
      "t": 57187.5,
      "d": 464.84375,
      "v": 127
    },
    {
      "midi": 77,
      "hit": false,
      "t": 57187.5,
      "d": 933.59375,
      "v": 127
    },
    {
      "midi": 39,
      "hit": false,
      "t": 57187.5,
      "d": 933.59375,
      "v": 127
    },
    {
      "midi": 65,
      "hit": false,
      "t": 57656.25,
      "d": 464.84375,
      "v": 127
    },
    {
      "midi": 35,
      "hit": false,
      "t": 57656.25,
      "d": 464.84375,
      "v": 127
    },
    {
      "midi": 38,
      "hit": false,
      "t": 57656.25,
      "d": 464.84375,
      "v": 127
    },
    {
      "midi": 65,
      "hit": false,
      "t": 58125,
      "d": 230.46875,
      "v": 127
    },
    {
      "midi": 72,
      "hit": false,
      "t": 58125,
      "d": 699.21875,
      "v": 127
    },
    {
      "midi": 65,
      "hit": false,
      "t": 58125,
      "d": 1871.09375,
      "v": 127
    },
    {
      "midi": 62,
      "hit": false,
      "t": 58125,
      "d": 1871.09375,
      "v": 114
    },
    {
      "midi": 38,
      "hit": false,
      "t": 58125,
      "d": 699.21875,
      "v": 127
    },
    {
      "midi": 35,
      "hit": false,
      "t": 58125,
      "d": 464.84375,
      "v": 127
    },
    {
      "midi": 42,
      "hit": false,
      "t": 58125,
      "d": 464.84375,
      "v": 127
    },
    {
      "midi": 67,
      "hit": false,
      "t": 58359.375,
      "d": 230.46875,
      "v": 127
    },
    {
      "midi": 65,
      "hit": false,
      "t": 58593.75,
      "d": 230.46875,
      "v": 127
    },
    {
      "midi": 35,
      "hit": false,
      "t": 58593.75,
      "d": 230.46875,
      "v": 127
    },
    {
      "midi": 42,
      "hit": false,
      "t": 58593.75,
      "d": 230.46875,
      "v": 127
    },
    {
      "midi": 63,
      "hit": false,
      "t": 58828.125,
      "d": 230.46875,
      "v": 127
    },
    {
      "midi": 77,
      "hit": false,
      "t": 58828.125,
      "d": 699.21875,
      "v": 127
    },
    {
      "midi": 38,
      "hit": false,
      "t": 58828.125,
      "d": 230.46875,
      "v": 127
    },
    {
      "midi": 35,
      "hit": false,
      "t": 58828.125,
      "d": 464.84375,
      "v": 127
    },
    {
      "midi": 42,
      "hit": false,
      "t": 58828.125,
      "d": 464.84375,
      "v": 127
    },
    {
      "midi": 62,
      "hit": false,
      "t": 59062.5,
      "d": 933.59375,
      "v": 127
    },
    {
      "midi": 39,
      "hit": false,
      "t": 59062.5,
      "d": 933.59375,
      "v": 127
    },
    {
      "midi": 75,
      "hit": false,
      "t": 59531.25,
      "d": 464.84375,
      "v": 127
    },
    {
      "midi": 35,
      "hit": false,
      "t": 59531.25,
      "d": 464.84375,
      "v": 127
    },
    {
      "midi": 38,
      "hit": false,
      "t": 59531.25,
      "d": 464.84375,
      "v": 127
    },
    {
      "midi": 60,
      "hit": false,
      "t": 60000,
      "d": 464.84375,
      "v": 127
    },
    {
      "midi": 74,
      "hit": false,
      "t": 60000,
      "d": 933.59375,
      "v": 127
    },
    {
      "midi": 68,
      "hit": false,
      "t": 60000,
      "d": 1871.09375,
      "v": 127
    },
    {
      "midi": 63,
      "hit": false,
      "t": 60000,
      "d": 1871.09375,
      "v": 114
    },
    {
      "midi": 41,
      "hit": false,
      "t": 60000,
      "d": 699.21875,
      "v": 127
    },
    {
      "midi": 35,
      "hit": false,
      "t": 60000,
      "d": 464.84375,
      "v": 127
    },
    {
      "midi": 42,
      "hit": false,
      "t": 60000,
      "d": 464.84375,
      "v": 127
    },
    {
      "midi": 62,
      "hit": false,
      "t": 60468.75,
      "d": 464.84375,
      "v": 127
    },
    {
      "midi": 35,
      "hit": false,
      "t": 60468.75,
      "d": 230.46875,
      "v": 127
    },
    {
      "midi": 42,
      "hit": false,
      "t": 60468.75,
      "d": 230.46875,
      "v": 127
    },
    {
      "midi": 41,
      "hit": false,
      "t": 60703.125,
      "d": 230.46875,
      "v": 127
    },
    {
      "midi": 35,
      "hit": false,
      "t": 60703.125,
      "d": 464.84375,
      "v": 127
    },
    {
      "midi": 42,
      "hit": false,
      "t": 60703.125,
      "d": 464.84375,
      "v": 127
    },
    {
      "midi": 63,
      "hit": false,
      "t": 60937.5,
      "d": 464.84375,
      "v": 127
    },
    {
      "midi": 72,
      "hit": false,
      "t": 60937.5,
      "d": 933.59375,
      "v": 127
    },
    {
      "midi": 39,
      "hit": false,
      "t": 60937.5,
      "d": 933.59375,
      "v": 127
    },
    {
      "midi": 67,
      "hit": false,
      "t": 61406.25,
      "d": 464.84375,
      "v": 127
    },
    {
      "midi": 35,
      "hit": false,
      "t": 61406.25,
      "d": 464.84375,
      "v": 127
    },
    {
      "midi": 38,
      "hit": false,
      "t": 61406.25,
      "d": 464.84375,
      "v": 127
    },
    {
      "midi": 65,
      "hit": false,
      "t": 61875,
      "d": 933.59375,
      "v": 127
    },
    {
      "midi": 65,
      "hit": false,
      "t": 61875,
      "d": 1402.34375,
      "v": 127
    },
    {
      "midi": 70,
      "hit": false,
      "t": 61875,
      "d": 1871.09375,
      "v": 127
    },
    {
      "midi": 65,
      "hit": false,
      "t": 61875,
      "d": 1871.09375,
      "v": 114
    },
    {
      "midi": 29,
      "hit": false,
      "t": 61875,
      "d": 230.46875,
      "v": 127
    },
    {
      "midi": 35,
      "hit": false,
      "t": 61875,
      "d": 464.84375,
      "v": 127
    },
    {
      "midi": 38,
      "hit": false,
      "t": 61875,
      "d": 230.46875,
      "v": 127
    },
    {
      "midi": 29,
      "hit": false,
      "t": 62109.375,
      "d": 230.46875,
      "v": 127
    },
    {
      "midi": 38,
      "hit": false,
      "t": 62109.375,
      "d": 230.46875,
      "v": 127
    },
    {
      "midi": 29,
      "hit": false,
      "t": 62343.75,
      "d": 230.46875,
      "v": 127
    },
    {
      "midi": 35,
      "hit": false,
      "t": 62343.75,
      "d": 464.84375,
      "v": 127
    },
    {
      "midi": 38,
      "hit": false,
      "t": 62343.75,
      "d": 230.46875,
      "v": 127
    },
    {
      "midi": 29,
      "hit": false,
      "t": 62578.125,
      "d": 230.46875,
      "v": 127
    },
    {
      "midi": 23,
      "hit": false,
      "t": 62578.125,
      "d": 230.46875,
      "v": 127
    },
    {
      "midi": 63,
      "hit": false,
      "t": 62812.5,
      "d": 464.84375,
      "v": 127
    },
    {
      "midi": 29,
      "hit": false,
      "t": 62812.5,
      "d": 230.46875,
      "v": 127
    },
    {
      "midi": 35,
      "hit": false,
      "t": 62812.5,
      "d": 464.84375,
      "v": 127
    },
    {
      "midi": 38,
      "hit": false,
      "t": 62812.5,
      "d": 230.46875,
      "v": 127
    },
    {
      "midi": 29,
      "hit": false,
      "t": 63046.875,
      "d": 230.46875,
      "v": 127
    },
    {
      "midi": 23,
      "hit": false,
      "t": 63046.875,
      "d": 230.46875,
      "v": 127
    },
    {
      "midi": 65,
      "hit": false,
      "t": 63281.25,
      "d": 464.84375,
      "v": 127
    },
    {
      "midi": 29,
      "hit": false,
      "t": 63281.25,
      "d": 230.46875,
      "v": 127
    },
    {
      "midi": 35,
      "hit": false,
      "t": 63281.25,
      "d": 464.84375,
      "v": 127
    },
    {
      "midi": 38,
      "hit": false,
      "t": 63281.25,
      "d": 230.46875,
      "v": 127
    },
    {
      "midi": 29,
      "hit": false,
      "t": 63515.625,
      "d": 230.46875,
      "v": 127
    },
    {
      "midi": 23,
      "hit": false,
      "t": 63515.625,
      "d": 230.46875,
      "v": 127
    },
    {
      "midi": 67,
      "hit": false,
      "t": 63750,
      "d": 699.21875,
      "v": 127
    },
    {
      "midi": 63,
      "hit": false,
      "t": 63750,
      "d": 3746.09375,
      "v": 127
    },
    {
      "midi": 82,
      "hit": false,
      "t": 63750,
      "d": 230.46875,
      "v": 114
    },
    {
      "midi": 75,
      "hit": false,
      "t": 63750,
      "d": 230.46875,
      "v": 124
    },
    {
      "midi": 27,
      "hit": false,
      "t": 63750,
      "d": 230.46875,
      "v": 127
    },
    {
      "midi": 35,
      "hit": false,
      "t": 63750,
      "d": 464.84375,
      "v": 127
    },
    {
      "midi": 42,
      "hit": false,
      "t": 63750,
      "d": 230.46875,
      "v": 127
    },
    {
      "midi": 82,
      "hit": false,
      "t": 63984.375,
      "d": 230.46875,
      "v": 114
    },
    {
      "midi": 75,
      "hit": false,
      "t": 63984.375,
      "d": 230.46875,
      "v": 124
    },
    {
      "midi": 27,
      "hit": false,
      "t": 63984.375,
      "d": 230.46875,
      "v": 127
    },
    {
      "midi": 42,
      "hit": false,
      "t": 63984.375,
      "d": 113.28125,
      "v": 127
    },
    {
      "midi": 42,
      "hit": false,
      "t": 64101.5625,
      "d": 113.28125,
      "v": 127
    },
    {
      "midi": 82,
      "hit": false,
      "t": 64218.75,
      "d": 230.46875,
      "v": 114
    },
    {
      "midi": 75,
      "hit": false,
      "t": 64218.75,
      "d": 230.46875,
      "v": 124
    },
    {
      "midi": 27,
      "hit": false,
      "t": 64218.75,
      "d": 230.46875,
      "v": 127
    },
    {
      "midi": 35,
      "hit": false,
      "t": 64218.75,
      "d": 464.84375,
      "v": 127
    },
    {
      "midi": 38,
      "hit": false,
      "t": 64218.75,
      "d": 464.84375,
      "v": 127
    },
    {
      "midi": 42,
      "hit": false,
      "t": 64218.75,
      "d": 230.46875,
      "v": 127
    },
    {
      "midi": 63,
      "hit": false,
      "t": 64453.125,
      "d": 230.46875,
      "v": 127
    },
    {
      "midi": 79,
      "hit": false,
      "t": 64453.125,
      "d": 230.46875,
      "v": 114
    },
    {
      "midi": 75,
      "hit": false,
      "t": 64453.125,
      "d": 230.46875,
      "v": 124
    },
    {
      "midi": 27,
      "hit": false,
      "t": 64453.125,
      "d": 230.46875,
      "v": 127
    },
    {
      "midi": 42,
      "hit": false,
      "t": 64453.125,
      "d": 113.28125,
      "v": 127
    },
    {
      "midi": 42,
      "hit": false,
      "t": 64570.3125,
      "d": 113.28125,
      "v": 127
    },
    {
      "midi": 70,
      "hit": false,
      "t": 64687.5,
      "d": 933.59375,
      "v": 127
    },
    {
      "midi": 82,
      "hit": false,
      "t": 64687.5,
      "d": 699.21875,
      "v": 114
    },
    {
      "midi": 75,
      "hit": false,
      "t": 64687.5,
      "d": 699.21875,
      "v": 124
    },
    {
      "midi": 27,
      "hit": false,
      "t": 64687.5,
      "d": 230.46875,
      "v": 127
    },
    {
      "midi": 35,
      "hit": false,
      "t": 64687.5,
      "d": 464.84375,
      "v": 127
    },
    {
      "midi": 42,
      "hit": false,
      "t": 64687.5,
      "d": 230.46875,
      "v": 127
    },
    {
      "midi": 27,
      "hit": false,
      "t": 64921.875,
      "d": 230.46875,
      "v": 127
    },
    {
      "midi": 42,
      "hit": false,
      "t": 64921.875,
      "d": 113.28125,
      "v": 127
    },
    {
      "midi": 42,
      "hit": false,
      "t": 65039.0625,
      "d": 113.28125,
      "v": 127
    },
    {
      "midi": 27,
      "hit": false,
      "t": 65156.25,
      "d": 230.46875,
      "v": 127
    },
    {
      "midi": 35,
      "hit": false,
      "t": 65156.25,
      "d": 464.84375,
      "v": 127
    },
    {
      "midi": 38,
      "hit": false,
      "t": 65156.25,
      "d": 464.84375,
      "v": 127
    },
    {
      "midi": 42,
      "hit": false,
      "t": 65156.25,
      "d": 230.46875,
      "v": 127
    },
    {
      "midi": 27,
      "hit": false,
      "t": 65390.625,
      "d": 230.46875,
      "v": 127
    },
    {
      "midi": 42,
      "hit": false,
      "t": 65390.625,
      "d": 113.28125,
      "v": 127
    },
    {
      "midi": 42,
      "hit": false,
      "t": 65507.8125,
      "d": 113.28125,
      "v": 127
    },
    {
      "midi": 70,
      "hit": false,
      "t": 65625,
      "d": 230.46875,
      "v": 127
    },
    {
      "midi": 70,
      "hit": false,
      "t": 65625,
      "d": 230.46875,
      "v": 127
    },
    {
      "midi": 79,
      "hit": false,
      "t": 65625,
      "d": 464.84375,
      "v": 114
    },
    {
      "midi": 75,
      "hit": false,
      "t": 65625,
      "d": 464.84375,
      "v": 124
    },
    {
      "midi": 27,
      "hit": false,
      "t": 65625,
      "d": 230.46875,
      "v": 127
    },
    {
      "midi": 35,
      "hit": false,
      "t": 65625,
      "d": 464.84375,
      "v": 127
    },
    {
      "midi": 42,
      "hit": false,
      "t": 65625,
      "d": 230.46875,
      "v": 127
    },
    {
      "midi": 72,
      "hit": false,
      "t": 65859.375,
      "d": 230.46875,
      "v": 127
    },
    {
      "midi": 72,
      "hit": false,
      "t": 65859.375,
      "d": 230.46875,
      "v": 127
    },
    {
      "midi": 27,
      "hit": false,
      "t": 65859.375,
      "d": 230.46875,
      "v": 127
    },
    {
      "midi": 42,
      "hit": false,
      "t": 65859.375,
      "d": 113.28125,
      "v": 127
    },
    {
      "midi": 42,
      "hit": false,
      "t": 65976.5625,
      "d": 113.28125,
      "v": 127
    },
    {
      "midi": 70,
      "hit": false,
      "t": 66093.75,
      "d": 230.46875,
      "v": 127
    },
    {
      "midi": 70,
      "hit": false,
      "t": 66093.75,
      "d": 230.46875,
      "v": 127
    },
    {
      "midi": 79,
      "hit": false,
      "t": 66093.75,
      "d": 464.84375,
      "v": 114
    },
    {
      "midi": 75,
      "hit": false,
      "t": 66093.75,
      "d": 464.84375,
      "v": 124
    },
    {
      "midi": 27,
      "hit": false,
      "t": 66093.75,
      "d": 230.46875,
      "v": 127
    },
    {
      "midi": 35,
      "hit": false,
      "t": 66093.75,
      "d": 464.84375,
      "v": 127
    },
    {
      "midi": 38,
      "hit": false,
      "t": 66093.75,
      "d": 464.84375,
      "v": 127
    },
    {
      "midi": 42,
      "hit": false,
      "t": 66093.75,
      "d": 230.46875,
      "v": 127
    },
    {
      "midi": 72,
      "hit": false,
      "t": 66328.125,
      "d": 230.46875,
      "v": 127
    },
    {
      "midi": 72,
      "hit": false,
      "t": 66328.125,
      "d": 230.46875,
      "v": 127
    },
    {
      "midi": 27,
      "hit": false,
      "t": 66328.125,
      "d": 230.46875,
      "v": 127
    },
    {
      "midi": 42,
      "hit": false,
      "t": 66328.125,
      "d": 113.28125,
      "v": 127
    },
    {
      "midi": 42,
      "hit": false,
      "t": 66445.3125,
      "d": 113.28125,
      "v": 127
    },
    {
      "midi": 70,
      "hit": false,
      "t": 66562.5,
      "d": 464.84375,
      "v": 127
    },
    {
      "midi": 70,
      "hit": false,
      "t": 66562.5,
      "d": 464.84375,
      "v": 127
    },
    {
      "midi": 82,
      "hit": false,
      "t": 66562.5,
      "d": 230.46875,
      "v": 114
    },
    {
      "midi": 75,
      "hit": false,
      "t": 66562.5,
      "d": 230.46875,
      "v": 124
    },
    {
      "midi": 27,
      "hit": false,
      "t": 66562.5,
      "d": 230.46875,
      "v": 127
    },
    {
      "midi": 35,
      "hit": false,
      "t": 66562.5,
      "d": 464.84375,
      "v": 127
    },
    {
      "midi": 42,
      "hit": false,
      "t": 66562.5,
      "d": 230.46875,
      "v": 127
    },
    {
      "midi": 79,
      "hit": false,
      "t": 66796.875,
      "d": 699.21875,
      "v": 114
    },
    {
      "midi": 75,
      "hit": false,
      "t": 66796.875,
      "d": 699.21875,
      "v": 124
    },
    {
      "midi": 27,
      "hit": false,
      "t": 66796.875,
      "d": 230.46875,
      "v": 127
    },
    {
      "midi": 42,
      "hit": false,
      "t": 66796.875,
      "d": 113.28125,
      "v": 127
    },
    {
      "midi": 42,
      "hit": false,
      "t": 66914.0625,
      "d": 113.28125,
      "v": 127
    },
    {
      "midi": 63,
      "hit": false,
      "t": 67031.25,
      "d": 230.46875,
      "v": 127
    },
    {
      "midi": 27,
      "hit": false,
      "t": 67031.25,
      "d": 230.46875,
      "v": 127
    },
    {
      "midi": 35,
      "hit": false,
      "t": 67031.25,
      "d": 464.84375,
      "v": 127
    },
    {
      "midi": 38,
      "hit": false,
      "t": 67031.25,
      "d": 464.84375,
      "v": 127
    },
    {
      "midi": 42,
      "hit": false,
      "t": 67031.25,
      "d": 230.46875,
      "v": 127
    },
    {
      "midi": 65,
      "hit": false,
      "t": 67265.625,
      "d": 230.46875,
      "v": 127
    },
    {
      "midi": 27,
      "hit": false,
      "t": 67265.625,
      "d": 230.46875,
      "v": 127
    },
    {
      "midi": 42,
      "hit": false,
      "t": 67265.625,
      "d": 113.28125,
      "v": 127
    },
    {
      "midi": 42,
      "hit": false,
      "t": 67382.8125,
      "d": 113.28125,
      "v": 127
    },
    {
      "midi": 67,
      "hit": false,
      "t": 67500,
      "d": 699.21875,
      "v": 127
    },
    {
      "midi": 62,
      "hit": false,
      "t": 67500,
      "d": 1871.09375,
      "v": 127
    },
    {
      "midi": 82,
      "hit": false,
      "t": 67500,
      "d": 230.46875,
      "v": 114
    },
    {
      "midi": 74,
      "hit": false,
      "t": 67500,
      "d": 230.46875,
      "v": 124
    },
    {
      "midi": 26,
      "hit": false,
      "t": 67500,
      "d": 230.46875,
      "v": 127
    },
    {
      "midi": 35,
      "hit": false,
      "t": 67500,
      "d": 464.84375,
      "v": 127
    },
    {
      "midi": 42,
      "hit": false,
      "t": 67500,
      "d": 230.46875,
      "v": 127
    },
    {
      "midi": 82,
      "hit": false,
      "t": 67734.375,
      "d": 230.46875,
      "v": 114
    },
    {
      "midi": 74,
      "hit": false,
      "t": 67734.375,
      "d": 230.46875,
      "v": 124
    },
    {
      "midi": 26,
      "hit": false,
      "t": 67734.375,
      "d": 230.46875,
      "v": 127
    },
    {
      "midi": 42,
      "hit": false,
      "t": 67734.375,
      "d": 113.28125,
      "v": 127
    },
    {
      "midi": 42,
      "hit": false,
      "t": 67851.5625,
      "d": 113.28125,
      "v": 127
    },
    {
      "midi": 82,
      "hit": false,
      "t": 67968.75,
      "d": 230.46875,
      "v": 114
    },
    {
      "midi": 74,
      "hit": false,
      "t": 67968.75,
      "d": 230.46875,
      "v": 124
    },
    {
      "midi": 26,
      "hit": false,
      "t": 67968.75,
      "d": 230.46875,
      "v": 127
    },
    {
      "midi": 35,
      "hit": false,
      "t": 67968.75,
      "d": 464.84375,
      "v": 127
    },
    {
      "midi": 38,
      "hit": false,
      "t": 67968.75,
      "d": 464.84375,
      "v": 127
    },
    {
      "midi": 42,
      "hit": false,
      "t": 67968.75,
      "d": 230.46875,
      "v": 127
    },
    {
      "midi": 63,
      "hit": false,
      "t": 68203.125,
      "d": 230.46875,
      "v": 127
    },
    {
      "midi": 79,
      "hit": false,
      "t": 68203.125,
      "d": 230.46875,
      "v": 114
    },
    {
      "midi": 74,
      "hit": false,
      "t": 68203.125,
      "d": 230.46875,
      "v": 124
    },
    {
      "midi": 26,
      "hit": false,
      "t": 68203.125,
      "d": 230.46875,
      "v": 127
    },
    {
      "midi": 42,
      "hit": false,
      "t": 68203.125,
      "d": 113.28125,
      "v": 127
    },
    {
      "midi": 42,
      "hit": false,
      "t": 68320.3125,
      "d": 113.28125,
      "v": 127
    },
    {
      "midi": 70,
      "hit": false,
      "t": 68437.5,
      "d": 933.59375,
      "v": 127
    },
    {
      "midi": 82,
      "hit": false,
      "t": 68437.5,
      "d": 816.40625,
      "v": 114
    },
    {
      "midi": 74,
      "hit": false,
      "t": 68437.5,
      "d": 816.40625,
      "v": 124
    },
    {
      "midi": 26,
      "hit": false,
      "t": 68437.5,
      "d": 230.46875,
      "v": 127
    },
    {
      "midi": 35,
      "hit": false,
      "t": 68437.5,
      "d": 464.84375,
      "v": 127
    },
    {
      "midi": 42,
      "hit": false,
      "t": 68437.5,
      "d": 230.46875,
      "v": 127
    },
    {
      "midi": 26,
      "hit": false,
      "t": 68671.875,
      "d": 230.46875,
      "v": 127
    },
    {
      "midi": 42,
      "hit": false,
      "t": 68671.875,
      "d": 113.28125,
      "v": 127
    },
    {
      "midi": 42,
      "hit": false,
      "t": 68789.0625,
      "d": 113.28125,
      "v": 127
    },
    {
      "midi": 26,
      "hit": false,
      "t": 68906.25,
      "d": 230.46875,
      "v": 127
    },
    {
      "midi": 35,
      "hit": false,
      "t": 68906.25,
      "d": 464.84375,
      "v": 127
    },
    {
      "midi": 38,
      "hit": false,
      "t": 68906.25,
      "d": 464.84375,
      "v": 127
    },
    {
      "midi": 42,
      "hit": false,
      "t": 68906.25,
      "d": 230.46875,
      "v": 127
    },
    {
      "midi": 26,
      "hit": false,
      "t": 69140.625,
      "d": 230.46875,
      "v": 127
    },
    {
      "midi": 42,
      "hit": false,
      "t": 69140.625,
      "d": 113.28125,
      "v": 127
    },
    {
      "midi": 42,
      "hit": false,
      "t": 69257.8125,
      "d": 113.28125,
      "v": 127
    },
    {
      "midi": 70,
      "hit": false,
      "t": 69375,
      "d": 230.46875,
      "v": 127
    },
    {
      "midi": 70,
      "hit": false,
      "t": 69375,
      "d": 230.46875,
      "v": 127
    },
    {
      "midi": 58,
      "hit": false,
      "t": 69375,
      "d": 933.59375,
      "v": 127
    },
    {
      "midi": 79,
      "hit": false,
      "t": 69375,
      "d": 464.84375,
      "v": 114
    },
    {
      "midi": 74,
      "hit": false,
      "t": 69375,
      "d": 464.84375,
      "v": 124
    },
    {
      "midi": 22,
      "hit": false,
      "t": 69375,
      "d": 230.46875,
      "v": 127
    },
    {
      "midi": 35,
      "hit": false,
      "t": 69375,
      "d": 464.84375,
      "v": 127
    },
    {
      "midi": 42,
      "hit": false,
      "t": 69375,
      "d": 230.46875,
      "v": 127
    },
    {
      "midi": 72,
      "hit": false,
      "t": 69609.375,
      "d": 230.46875,
      "v": 127
    },
    {
      "midi": 72,
      "hit": false,
      "t": 69609.375,
      "d": 230.46875,
      "v": 127
    },
    {
      "midi": 22,
      "hit": false,
      "t": 69609.375,
      "d": 230.46875,
      "v": 127
    },
    {
      "midi": 42,
      "hit": false,
      "t": 69609.375,
      "d": 113.28125,
      "v": 127
    },
    {
      "midi": 42,
      "hit": false,
      "t": 69726.5625,
      "d": 113.28125,
      "v": 127
    },
    {
      "midi": 70,
      "hit": false,
      "t": 69843.75,
      "d": 230.46875,
      "v": 127
    },
    {
      "midi": 70,
      "hit": false,
      "t": 69843.75,
      "d": 230.46875,
      "v": 127
    },
    {
      "midi": 79,
      "hit": false,
      "t": 69843.75,
      "d": 464.84375,
      "v": 114
    },
    {
      "midi": 74,
      "hit": false,
      "t": 69843.75,
      "d": 464.84375,
      "v": 124
    },
    {
      "midi": 22,
      "hit": false,
      "t": 69843.75,
      "d": 230.46875,
      "v": 127
    },
    {
      "midi": 35,
      "hit": false,
      "t": 69843.75,
      "d": 464.84375,
      "v": 127
    },
    {
      "midi": 38,
      "hit": false,
      "t": 69843.75,
      "d": 464.84375,
      "v": 127
    },
    {
      "midi": 42,
      "hit": false,
      "t": 69843.75,
      "d": 230.46875,
      "v": 127
    },
    {
      "midi": 72,
      "hit": false,
      "t": 70078.125,
      "d": 230.46875,
      "v": 127
    },
    {
      "midi": 72,
      "hit": false,
      "t": 70078.125,
      "d": 230.46875,
      "v": 127
    },
    {
      "midi": 22,
      "hit": false,
      "t": 70078.125,
      "d": 230.46875,
      "v": 127
    },
    {
      "midi": 42,
      "hit": false,
      "t": 70078.125,
      "d": 113.28125,
      "v": 127
    },
    {
      "midi": 42,
      "hit": false,
      "t": 70195.3125,
      "d": 113.28125,
      "v": 127
    },
    {
      "midi": 70,
      "hit": false,
      "t": 70312.5,
      "d": 464.84375,
      "v": 127
    },
    {
      "midi": 70,
      "hit": false,
      "t": 70312.5,
      "d": 464.84375,
      "v": 127
    },
    {
      "midi": 60,
      "hit": false,
      "t": 70312.5,
      "d": 933.59375,
      "v": 127
    },
    {
      "midi": 82,
      "hit": false,
      "t": 70312.5,
      "d": 230.46875,
      "v": 114
    },
    {
      "midi": 74,
      "hit": false,
      "t": 70312.5,
      "d": 230.46875,
      "v": 124
    },
    {
      "midi": 24,
      "hit": false,
      "t": 70312.5,
      "d": 230.46875,
      "v": 127
    },
    {
      "midi": 35,
      "hit": false,
      "t": 70312.5,
      "d": 464.84375,
      "v": 127
    },
    {
      "midi": 42,
      "hit": false,
      "t": 70312.5,
      "d": 230.46875,
      "v": 127
    },
    {
      "midi": 79,
      "hit": false,
      "t": 70546.875,
      "d": 699.21875,
      "v": 114
    },
    {
      "midi": 74,
      "hit": false,
      "t": 70546.875,
      "d": 699.21875,
      "v": 124
    },
    {
      "midi": 24,
      "hit": false,
      "t": 70546.875,
      "d": 230.46875,
      "v": 127
    },
    {
      "midi": 42,
      "hit": false,
      "t": 70546.875,
      "d": 113.28125,
      "v": 127
    },
    {
      "midi": 42,
      "hit": false,
      "t": 70664.0625,
      "d": 113.28125,
      "v": 127
    },
    {
      "midi": 67,
      "hit": false,
      "t": 70781.25,
      "d": 230.46875,
      "v": 127
    },
    {
      "midi": 24,
      "hit": false,
      "t": 70781.25,
      "d": 230.46875,
      "v": 127
    },
    {
      "midi": 35,
      "hit": false,
      "t": 70781.25,
      "d": 464.84375,
      "v": 127
    },
    {
      "midi": 38,
      "hit": false,
      "t": 70781.25,
      "d": 464.84375,
      "v": 127
    },
    {
      "midi": 42,
      "hit": false,
      "t": 70781.25,
      "d": 230.46875,
      "v": 127
    },
    {
      "midi": 70,
      "hit": false,
      "t": 71015.625,
      "d": 230.46875,
      "v": 127
    },
    {
      "midi": 24,
      "hit": false,
      "t": 71015.625,
      "d": 230.46875,
      "v": 127
    },
    {
      "midi": 42,
      "hit": false,
      "t": 71015.625,
      "d": 113.28125,
      "v": 127
    },
    {
      "midi": 42,
      "hit": false,
      "t": 71132.8125,
      "d": 113.28125,
      "v": 127
    },
    {
      "midi": 72,
      "hit": false,
      "t": 71250,
      "d": 464.84375,
      "v": 127
    },
    {
      "midi": 68,
      "hit": false,
      "t": 71250,
      "d": 1871.09375,
      "v": 127
    },
    {
      "midi": 63,
      "hit": false,
      "t": 71250,
      "d": 1871.09375,
      "v": 127
    },
    {
      "midi": 60,
      "hit": false,
      "t": 71250,
      "d": 1871.09375,
      "v": 114
    },
    {
      "midi": 32,
      "hit": false,
      "t": 71250,
      "d": 230.46875,
      "v": 127
    },
    {
      "midi": 35,
      "hit": false,
      "t": 71250,
      "d": 464.84375,
      "v": 127
    },
    {
      "midi": 42,
      "hit": false,
      "t": 71250,
      "d": 230.46875,
      "v": 127
    },
    {
      "midi": 32,
      "hit": false,
      "t": 71484.375,
      "d": 230.46875,
      "v": 127
    },
    {
      "midi": 42,
      "hit": false,
      "t": 71484.375,
      "d": 113.28125,
      "v": 127
    },
    {
      "midi": 42,
      "hit": false,
      "t": 71601.5625,
      "d": 113.28125,
      "v": 127
    },
    {
      "midi": 72,
      "hit": false,
      "t": 71718.75,
      "d": 230.46875,
      "v": 127
    },
    {
      "midi": 32,
      "hit": false,
      "t": 71718.75,
      "d": 230.46875,
      "v": 127
    },
    {
      "midi": 35,
      "hit": false,
      "t": 71718.75,
      "d": 464.84375,
      "v": 127
    },
    {
      "midi": 38,
      "hit": false,
      "t": 71718.75,
      "d": 464.84375,
      "v": 127
    },
    {
      "midi": 42,
      "hit": false,
      "t": 71718.75,
      "d": 230.46875,
      "v": 127
    },
    {
      "midi": 72,
      "hit": false,
      "t": 71953.125,
      "d": 464.84375,
      "v": 127
    },
    {
      "midi": 32,
      "hit": false,
      "t": 71953.125,
      "d": 230.46875,
      "v": 127
    },
    {
      "midi": 42,
      "hit": false,
      "t": 71953.125,
      "d": 113.28125,
      "v": 127
    },
    {
      "midi": 42,
      "hit": false,
      "t": 72070.3125,
      "d": 113.28125,
      "v": 127
    },
    {
      "midi": 32,
      "hit": false,
      "t": 72187.5,
      "d": 230.46875,
      "v": 127
    },
    {
      "midi": 35,
      "hit": false,
      "t": 72187.5,
      "d": 464.84375,
      "v": 127
    },
    {
      "midi": 42,
      "hit": false,
      "t": 72187.5,
      "d": 230.46875,
      "v": 127
    },
    {
      "midi": 72,
      "hit": false,
      "t": 72421.875,
      "d": 699.21875,
      "v": 127
    },
    {
      "midi": 32,
      "hit": false,
      "t": 72421.875,
      "d": 230.46875,
      "v": 127
    },
    {
      "midi": 42,
      "hit": false,
      "t": 72421.875,
      "d": 113.28125,
      "v": 127
    },
    {
      "midi": 42,
      "hit": false,
      "t": 72539.0625,
      "d": 113.28125,
      "v": 127
    },
    {
      "midi": 32,
      "hit": false,
      "t": 72656.25,
      "d": 230.46875,
      "v": 127
    },
    {
      "midi": 35,
      "hit": false,
      "t": 72656.25,
      "d": 464.84375,
      "v": 127
    },
    {
      "midi": 38,
      "hit": false,
      "t": 72656.25,
      "d": 464.84375,
      "v": 127
    },
    {
      "midi": 42,
      "hit": false,
      "t": 72656.25,
      "d": 230.46875,
      "v": 127
    },
    {
      "midi": 32,
      "hit": false,
      "t": 72890.625,
      "d": 230.46875,
      "v": 127
    },
    {
      "midi": 42,
      "hit": false,
      "t": 72890.625,
      "d": 113.28125,
      "v": 127
    },
    {
      "midi": 42,
      "hit": false,
      "t": 73007.8125,
      "d": 113.28125,
      "v": 127
    },
    {
      "midi": 72,
      "hit": false,
      "t": 73125,
      "d": 464.84375,
      "v": 127
    },
    {
      "midi": 68,
      "hit": false,
      "t": 73125,
      "d": 699.21875,
      "v": 127
    },
    {
      "midi": 63,
      "hit": false,
      "t": 73125,
      "d": 699.21875,
      "v": 127
    },
    {
      "midi": 60,
      "hit": false,
      "t": 73125,
      "d": 699.21875,
      "v": 114
    },
    {
      "midi": 34,
      "hit": false,
      "t": 73125,
      "d": 230.46875,
      "v": 127
    },
    {
      "midi": 35,
      "hit": false,
      "t": 73125,
      "d": 464.84375,
      "v": 127
    },
    {
      "midi": 42,
      "hit": false,
      "t": 73125,
      "d": 230.46875,
      "v": 127
    },
    {
      "midi": 34,
      "hit": false,
      "t": 73359.375,
      "d": 230.46875,
      "v": 127
    },
    {
      "midi": 42,
      "hit": false,
      "t": 73359.375,
      "d": 113.28125,
      "v": 127
    },
    {
      "midi": 42,
      "hit": false,
      "t": 73476.5625,
      "d": 113.28125,
      "v": 127
    },
    {
      "midi": 72,
      "hit": false,
      "t": 73593.75,
      "d": 230.46875,
      "v": 127
    },
    {
      "midi": 34,
      "hit": false,
      "t": 73593.75,
      "d": 230.46875,
      "v": 127
    },
    {
      "midi": 35,
      "hit": false,
      "t": 73593.75,
      "d": 464.84375,
      "v": 127
    },
    {
      "midi": 38,
      "hit": false,
      "t": 73593.75,
      "d": 464.84375,
      "v": 127
    },
    {
      "midi": 42,
      "hit": false,
      "t": 73593.75,
      "d": 230.46875,
      "v": 127
    },
    {
      "midi": 70,
      "hit": false,
      "t": 73828.125,
      "d": 464.84375,
      "v": 127
    },
    {
      "midi": 72,
      "hit": false,
      "t": 73828.125,
      "d": 933.59375,
      "v": 127
    },
    {
      "midi": 69,
      "hit": false,
      "t": 73828.125,
      "d": 933.59375,
      "v": 127
    },
    {
      "midi": 63,
      "hit": false,
      "t": 73828.125,
      "d": 933.59375,
      "v": 114
    },
    {
      "midi": 34,
      "hit": false,
      "t": 73828.125,
      "d": 230.46875,
      "v": 127
    },
    {
      "midi": 42,
      "hit": false,
      "t": 73828.125,
      "d": 113.28125,
      "v": 127
    },
    {
      "midi": 42,
      "hit": false,
      "t": 73945.3125,
      "d": 113.28125,
      "v": 127
    },
    {
      "midi": 38,
      "hit": false,
      "t": 74062.5,
      "d": 230.46875,
      "v": 127
    },
    {
      "midi": 35,
      "hit": false,
      "t": 74062.5,
      "d": 464.84375,
      "v": 127
    },
    {
      "midi": 42,
      "hit": false,
      "t": 74062.5,
      "d": 230.46875,
      "v": 127
    },
    {
      "midi": 69,
      "hit": false,
      "t": 74296.875,
      "d": 699.21875,
      "v": 127
    },
    {
      "midi": 38,
      "hit": false,
      "t": 74296.875,
      "d": 230.46875,
      "v": 127
    },
    {
      "midi": 42,
      "hit": false,
      "t": 74296.875,
      "d": 113.28125,
      "v": 127
    },
    {
      "midi": 42,
      "hit": false,
      "t": 74414.0625,
      "d": 113.28125,
      "v": 127
    },
    {
      "midi": 38,
      "hit": false,
      "t": 74531.25,
      "d": 230.46875,
      "v": 127
    },
    {
      "midi": 35,
      "hit": false,
      "t": 74531.25,
      "d": 464.84375,
      "v": 127
    },
    {
      "midi": 38,
      "hit": false,
      "t": 74531.25,
      "d": 464.84375,
      "v": 127
    },
    {
      "midi": 42,
      "hit": false,
      "t": 74531.25,
      "d": 230.46875,
      "v": 127
    },
    {
      "midi": 38,
      "hit": false,
      "t": 74765.625,
      "d": 230.46875,
      "v": 127
    },
    {
      "midi": 42,
      "hit": false,
      "t": 74765.625,
      "d": 113.28125,
      "v": 127
    },
    {
      "midi": 42,
      "hit": false,
      "t": 74882.8125,
      "d": 113.28125,
      "v": 127
    },
    {
      "midi": 70,
      "hit": false,
      "t": 75000,
      "d": 464.84375,
      "v": 127
    },
    {
      "midi": 67,
      "hit": false,
      "t": 75000,
      "d": 699.21875,
      "v": 127
    },
    {
      "midi": 62,
      "hit": false,
      "t": 75000,
      "d": 699.21875,
      "v": 127
    },
    {
      "midi": 58,
      "hit": false,
      "t": 75000,
      "d": 699.21875,
      "v": 114
    },
    {
      "midi": 31,
      "hit": false,
      "t": 75000,
      "d": 230.46875,
      "v": 127
    },
    {
      "midi": 35,
      "hit": false,
      "t": 75000,
      "d": 464.84375,
      "v": 127
    },
    {
      "midi": 42,
      "hit": false,
      "t": 75000,
      "d": 230.46875,
      "v": 127
    },
    {
      "midi": 31,
      "hit": false,
      "t": 75234.375,
      "d": 230.46875,
      "v": 127
    },
    {
      "midi": 42,
      "hit": false,
      "t": 75234.375,
      "d": 113.28125,
      "v": 127
    },
    {
      "midi": 42,
      "hit": false,
      "t": 75351.5625,
      "d": 113.28125,
      "v": 127
    },
    {
      "midi": 72,
      "hit": false,
      "t": 75468.75,
      "d": 230.46875,
      "v": 127
    },
    {
      "midi": 31,
      "hit": false,
      "t": 75468.75,
      "d": 230.46875,
      "v": 127
    },
    {
      "midi": 35,
      "hit": false,
      "t": 75468.75,
      "d": 464.84375,
      "v": 127
    },
    {
      "midi": 38,
      "hit": false,
      "t": 75468.75,
      "d": 464.84375,
      "v": 127
    },
    {
      "midi": 42,
      "hit": false,
      "t": 75468.75,
      "d": 230.46875,
      "v": 127
    },
    {
      "midi": 70,
      "hit": false,
      "t": 75703.125,
      "d": 464.84375,
      "v": 127
    },
    {
      "midi": 70,
      "hit": false,
      "t": 75703.125,
      "d": 933.59375,
      "v": 127
    },
    {
      "midi": 67,
      "hit": false,
      "t": 75703.125,
      "d": 933.59375,
      "v": 127
    },
    {
      "midi": 63,
      "hit": false,
      "t": 75703.125,
      "d": 933.59375,
      "v": 114
    },
    {
      "midi": 31,
      "hit": false,
      "t": 75703.125,
      "d": 230.46875,
      "v": 127
    },
    {
      "midi": 42,
      "hit": false,
      "t": 75703.125,
      "d": 113.28125,
      "v": 127
    },
    {
      "midi": 42,
      "hit": false,
      "t": 75820.3125,
      "d": 113.28125,
      "v": 127
    },
    {
      "midi": 36,
      "hit": false,
      "t": 75937.5,
      "d": 230.46875,
      "v": 127
    },
    {
      "midi": 35,
      "hit": false,
      "t": 75937.5,
      "d": 464.84375,
      "v": 127
    },
    {
      "midi": 42,
      "hit": false,
      "t": 75937.5,
      "d": 230.46875,
      "v": 127
    },
    {
      "midi": 67,
      "hit": false,
      "t": 76171.875,
      "d": 699.21875,
      "v": 127
    },
    {
      "midi": 36,
      "hit": false,
      "t": 76171.875,
      "d": 230.46875,
      "v": 127
    },
    {
      "midi": 42,
      "hit": false,
      "t": 76171.875,
      "d": 113.28125,
      "v": 127
    },
    {
      "midi": 42,
      "hit": false,
      "t": 76289.0625,
      "d": 113.28125,
      "v": 127
    },
    {
      "midi": 36,
      "hit": false,
      "t": 76406.25,
      "d": 230.46875,
      "v": 127
    },
    {
      "midi": 35,
      "hit": false,
      "t": 76406.25,
      "d": 464.84375,
      "v": 127
    },
    {
      "midi": 38,
      "hit": false,
      "t": 76406.25,
      "d": 464.84375,
      "v": 127
    },
    {
      "midi": 42,
      "hit": false,
      "t": 76406.25,
      "d": 230.46875,
      "v": 127
    },
    {
      "midi": 36,
      "hit": false,
      "t": 76640.625,
      "d": 230.46875,
      "v": 127
    },
    {
      "midi": 42,
      "hit": false,
      "t": 76640.625,
      "d": 113.28125,
      "v": 127
    },
    {
      "midi": 42,
      "hit": false,
      "t": 76757.8125,
      "d": 113.28125,
      "v": 127
    },
    {
      "midi": 68,
      "hit": false,
      "t": 76875,
      "d": 464.84375,
      "v": 127
    },
    {
      "midi": 65,
      "hit": false,
      "t": 76875,
      "d": 699.21875,
      "v": 127
    },
    {
      "midi": 62,
      "hit": false,
      "t": 76875,
      "d": 1636.71875,
      "v": 127
    },
    {
      "midi": 58,
      "hit": false,
      "t": 76875,
      "d": 1636.71875,
      "v": 114
    },
    {
      "midi": 29,
      "hit": false,
      "t": 76875,
      "d": 230.46875,
      "v": 127
    },
    {
      "midi": 35,
      "hit": false,
      "t": 76875,
      "d": 464.84375,
      "v": 127
    },
    {
      "midi": 42,
      "hit": false,
      "t": 76875,
      "d": 230.46875,
      "v": 127
    },
    {
      "midi": 29,
      "hit": false,
      "t": 77109.375,
      "d": 230.46875,
      "v": 127
    },
    {
      "midi": 42,
      "hit": false,
      "t": 77109.375,
      "d": 113.28125,
      "v": 127
    },
    {
      "midi": 42,
      "hit": false,
      "t": 77226.5625,
      "d": 113.28125,
      "v": 127
    },
    {
      "midi": 65,
      "hit": false,
      "t": 77343.75,
      "d": 230.46875,
      "v": 127
    },
    {
      "midi": 29,
      "hit": false,
      "t": 77343.75,
      "d": 230.46875,
      "v": 127
    },
    {
      "midi": 35,
      "hit": false,
      "t": 77343.75,
      "d": 464.84375,
      "v": 127
    },
    {
      "midi": 38,
      "hit": false,
      "t": 77343.75,
      "d": 464.84375,
      "v": 127
    },
    {
      "midi": 42,
      "hit": false,
      "t": 77343.75,
      "d": 230.46875,
      "v": 127
    },
    {
      "midi": 70,
      "hit": false,
      "t": 77578.125,
      "d": 699.21875,
      "v": 127
    },
    {
      "midi": 70,
      "hit": false,
      "t": 77578.125,
      "d": 933.59375,
      "v": 127
    },
    {
      "midi": 29,
      "hit": false,
      "t": 77578.125,
      "d": 230.46875,
      "v": 127
    },
    {
      "midi": 42,
      "hit": false,
      "t": 77578.125,
      "d": 113.28125,
      "v": 127
    },
    {
      "midi": 42,
      "hit": false,
      "t": 77695.3125,
      "d": 113.28125,
      "v": 127
    },
    {
      "midi": 34,
      "hit": false,
      "t": 77812.5,
      "d": 230.46875,
      "v": 127
    },
    {
      "midi": 35,
      "hit": false,
      "t": 77812.5,
      "d": 464.84375,
      "v": 127
    },
    {
      "midi": 42,
      "hit": false,
      "t": 77812.5,
      "d": 230.46875,
      "v": 127
    },
    {
      "midi": 34,
      "hit": false,
      "t": 78046.875,
      "d": 230.46875,
      "v": 127
    },
    {
      "midi": 42,
      "hit": false,
      "t": 78046.875,
      "d": 113.28125,
      "v": 127
    },
    {
      "midi": 42,
      "hit": false,
      "t": 78164.0625,
      "d": 113.28125,
      "v": 127
    },
    {
      "midi": 63,
      "hit": false,
      "t": 78281.25,
      "d": 230.46875,
      "v": 127
    },
    {
      "midi": 34,
      "hit": false,
      "t": 78281.25,
      "d": 230.46875,
      "v": 127
    },
    {
      "midi": 35,
      "hit": false,
      "t": 78281.25,
      "d": 464.84375,
      "v": 127
    },
    {
      "midi": 38,
      "hit": false,
      "t": 78281.25,
      "d": 464.84375,
      "v": 127
    },
    {
      "midi": 42,
      "hit": false,
      "t": 78281.25,
      "d": 230.46875,
      "v": 127
    },
    {
      "midi": 65,
      "hit": false,
      "t": 78515.625,
      "d": 230.46875,
      "v": 127
    },
    {
      "midi": 34,
      "hit": false,
      "t": 78515.625,
      "d": 230.46875,
      "v": 127
    },
    {
      "midi": 42,
      "hit": false,
      "t": 78515.625,
      "d": 113.28125,
      "v": 127
    },
    {
      "midi": 42,
      "hit": false,
      "t": 78632.8125,
      "d": 113.28125,
      "v": 127
    },
    {
      "midi": 67,
      "hit": false,
      "t": 78750,
      "d": 699.21875,
      "v": 127
    },
    {
      "midi": 87,
      "hit": false,
      "t": 78750,
      "d": 230.46875,
      "v": 127
    },
    {
      "midi": 79,
      "hit": false,
      "t": 78750,
      "d": 230.46875,
      "v": 127
    },
    {
      "midi": 63,
      "hit": false,
      "t": 78750,
      "d": 3746.09375,
      "v": 124
    },
    {
      "midi": 27,
      "hit": false,
      "t": 78750,
      "d": 230.46875,
      "v": 127
    },
    {
      "midi": 35,
      "hit": false,
      "t": 78750,
      "d": 464.84375,
      "v": 127
    },
    {
      "midi": 26,
      "hit": false,
      "t": 78750,
      "d": 113.28125,
      "v": 127
    },
    {
      "midi": 42,
      "hit": false,
      "t": 78750,
      "d": 230.46875,
      "v": 127
    },
    {
      "midi": 87,
      "hit": false,
      "t": 78984.375,
      "d": 230.46875,
      "v": 127
    },
    {
      "midi": 79,
      "hit": false,
      "t": 78984.375,
      "d": 230.46875,
      "v": 127
    },
    {
      "midi": 27,
      "hit": false,
      "t": 78984.375,
      "d": 230.46875,
      "v": 127
    },
    {
      "midi": 42,
      "hit": false,
      "t": 78984.375,
      "d": 113.28125,
      "v": 127
    },
    {
      "midi": 42,
      "hit": false,
      "t": 79101.5625,
      "d": 113.28125,
      "v": 127
    },
    {
      "midi": 87,
      "hit": false,
      "t": 79218.75,
      "d": 230.46875,
      "v": 127
    },
    {
      "midi": 79,
      "hit": false,
      "t": 79218.75,
      "d": 230.46875,
      "v": 127
    },
    {
      "midi": 27,
      "hit": false,
      "t": 79218.75,
      "d": 230.46875,
      "v": 127
    },
    {
      "midi": 35,
      "hit": false,
      "t": 79218.75,
      "d": 464.84375,
      "v": 127
    },
    {
      "midi": 38,
      "hit": false,
      "t": 79218.75,
      "d": 464.84375,
      "v": 127
    },
    {
      "midi": 42,
      "hit": false,
      "t": 79218.75,
      "d": 230.46875,
      "v": 127
    },
    {
      "midi": 63,
      "hit": false,
      "t": 79453.125,
      "d": 230.46875,
      "v": 127
    },
    {
      "midi": 84,
      "hit": false,
      "t": 79453.125,
      "d": 230.46875,
      "v": 127
    },
    {
      "midi": 79,
      "hit": false,
      "t": 79453.125,
      "d": 230.46875,
      "v": 127
    },
    {
      "midi": 27,
      "hit": false,
      "t": 79453.125,
      "d": 230.46875,
      "v": 127
    },
    {
      "midi": 42,
      "hit": false,
      "t": 79453.125,
      "d": 113.28125,
      "v": 127
    },
    {
      "midi": 42,
      "hit": false,
      "t": 79570.3125,
      "d": 113.28125,
      "v": 127
    },
    {
      "midi": 70,
      "hit": false,
      "t": 79687.5,
      "d": 933.59375,
      "v": 127
    },
    {
      "midi": 82,
      "hit": false,
      "t": 79687.5,
      "d": 230.46875,
      "v": 127
    },
    {
      "midi": 75,
      "hit": false,
      "t": 79687.5,
      "d": 230.46875,
      "v": 127
    },
    {
      "midi": 27,
      "hit": false,
      "t": 79687.5,
      "d": 230.46875,
      "v": 127
    },
    {
      "midi": 35,
      "hit": false,
      "t": 79687.5,
      "d": 464.84375,
      "v": 127
    },
    {
      "midi": 42,
      "hit": false,
      "t": 79687.5,
      "d": 230.46875,
      "v": 127
    },
    {
      "midi": 79,
      "hit": false,
      "t": 79921.875,
      "d": 464.84375,
      "v": 127
    },
    {
      "midi": 75,
      "hit": false,
      "t": 79921.875,
      "d": 464.84375,
      "v": 127
    },
    {
      "midi": 27,
      "hit": false,
      "t": 79921.875,
      "d": 230.46875,
      "v": 127
    },
    {
      "midi": 42,
      "hit": false,
      "t": 79921.875,
      "d": 113.28125,
      "v": 127
    },
    {
      "midi": 42,
      "hit": false,
      "t": 80039.0625,
      "d": 113.28125,
      "v": 127
    },
    {
      "midi": 27,
      "hit": false,
      "t": 80156.25,
      "d": 230.46875,
      "v": 127
    },
    {
      "midi": 35,
      "hit": false,
      "t": 80156.25,
      "d": 464.84375,
      "v": 127
    },
    {
      "midi": 38,
      "hit": false,
      "t": 80156.25,
      "d": 464.84375,
      "v": 127
    },
    {
      "midi": 42,
      "hit": false,
      "t": 80156.25,
      "d": 230.46875,
      "v": 127
    },
    {
      "midi": 82,
      "hit": false,
      "t": 80390.625,
      "d": 230.46875,
      "v": 127
    },
    {
      "midi": 75,
      "hit": false,
      "t": 80390.625,
      "d": 230.46875,
      "v": 127
    },
    {
      "midi": 27,
      "hit": false,
      "t": 80390.625,
      "d": 230.46875,
      "v": 127
    },
    {
      "midi": 42,
      "hit": false,
      "t": 80390.625,
      "d": 113.28125,
      "v": 127
    },
    {
      "midi": 42,
      "hit": false,
      "t": 80507.8125,
      "d": 113.28125,
      "v": 127
    },
    {
      "midi": 70,
      "hit": false,
      "t": 80625,
      "d": 230.46875,
      "v": 127
    },
    {
      "midi": 87,
      "hit": false,
      "t": 80625,
      "d": 464.84375,
      "v": 127
    },
    {
      "midi": 75,
      "hit": false,
      "t": 80625,
      "d": 464.84375,
      "v": 127
    },
    {
      "midi": 70,
      "hit": false,
      "t": 80625,
      "d": 230.46875,
      "v": 114
    },
    {
      "midi": 27,
      "hit": false,
      "t": 80625,
      "d": 230.46875,
      "v": 127
    },
    {
      "midi": 35,
      "hit": false,
      "t": 80625,
      "d": 464.84375,
      "v": 127
    },
    {
      "midi": 42,
      "hit": false,
      "t": 80625,
      "d": 230.46875,
      "v": 127
    },
    {
      "midi": 72,
      "hit": false,
      "t": 80859.375,
      "d": 230.46875,
      "v": 127
    },
    {
      "midi": 72,
      "hit": false,
      "t": 80859.375,
      "d": 230.46875,
      "v": 114
    },
    {
      "midi": 27,
      "hit": false,
      "t": 80859.375,
      "d": 230.46875,
      "v": 127
    },
    {
      "midi": 42,
      "hit": false,
      "t": 80859.375,
      "d": 113.28125,
      "v": 127
    },
    {
      "midi": 42,
      "hit": false,
      "t": 80976.5625,
      "d": 113.28125,
      "v": 127
    },
    {
      "midi": 70,
      "hit": false,
      "t": 81093.75,
      "d": 230.46875,
      "v": 127
    },
    {
      "midi": 84,
      "hit": false,
      "t": 81093.75,
      "d": 464.84375,
      "v": 127
    },
    {
      "midi": 75,
      "hit": false,
      "t": 81093.75,
      "d": 464.84375,
      "v": 127
    },
    {
      "midi": 70,
      "hit": false,
      "t": 81093.75,
      "d": 230.46875,
      "v": 114
    },
    {
      "midi": 27,
      "hit": false,
      "t": 81093.75,
      "d": 230.46875,
      "v": 127
    },
    {
      "midi": 35,
      "hit": false,
      "t": 81093.75,
      "d": 464.84375,
      "v": 127
    },
    {
      "midi": 38,
      "hit": false,
      "t": 81093.75,
      "d": 464.84375,
      "v": 127
    },
    {
      "midi": 42,
      "hit": false,
      "t": 81093.75,
      "d": 230.46875,
      "v": 127
    },
    {
      "midi": 72,
      "hit": false,
      "t": 81328.125,
      "d": 230.46875,
      "v": 127
    },
    {
      "midi": 72,
      "hit": false,
      "t": 81328.125,
      "d": 230.46875,
      "v": 114
    },
    {
      "midi": 27,
      "hit": false,
      "t": 81328.125,
      "d": 230.46875,
      "v": 127
    },
    {
      "midi": 42,
      "hit": false,
      "t": 81328.125,
      "d": 113.28125,
      "v": 127
    },
    {
      "midi": 42,
      "hit": false,
      "t": 81445.3125,
      "d": 113.28125,
      "v": 127
    },
    {
      "midi": 70,
      "hit": false,
      "t": 81562.5,
      "d": 464.84375,
      "v": 127
    },
    {
      "midi": 82,
      "hit": false,
      "t": 81562.5,
      "d": 230.46875,
      "v": 127
    },
    {
      "midi": 75,
      "hit": false,
      "t": 81562.5,
      "d": 230.46875,
      "v": 127
    },
    {
      "midi": 70,
      "hit": false,
      "t": 81562.5,
      "d": 464.84375,
      "v": 114
    },
    {
      "midi": 27,
      "hit": false,
      "t": 81562.5,
      "d": 230.46875,
      "v": 127
    },
    {
      "midi": 35,
      "hit": false,
      "t": 81562.5,
      "d": 464.84375,
      "v": 127
    },
    {
      "midi": 42,
      "hit": false,
      "t": 81562.5,
      "d": 230.46875,
      "v": 127
    },
    {
      "midi": 79,
      "hit": false,
      "t": 81796.875,
      "d": 230.46875,
      "v": 127
    },
    {
      "midi": 75,
      "hit": false,
      "t": 81796.875,
      "d": 230.46875,
      "v": 127
    },
    {
      "midi": 27,
      "hit": false,
      "t": 81796.875,
      "d": 230.46875,
      "v": 127
    },
    {
      "midi": 42,
      "hit": false,
      "t": 81796.875,
      "d": 113.28125,
      "v": 127
    },
    {
      "midi": 42,
      "hit": false,
      "t": 81914.0625,
      "d": 113.28125,
      "v": 127
    },
    {
      "midi": 63,
      "hit": false,
      "t": 82031.25,
      "d": 230.46875,
      "v": 127
    },
    {
      "midi": 75,
      "hit": false,
      "t": 82031.25,
      "d": 230.46875,
      "v": 127
    },
    {
      "midi": 75,
      "hit": false,
      "t": 82031.25,
      "d": 230.46875,
      "v": 127
    },
    {
      "midi": 27,
      "hit": false,
      "t": 82031.25,
      "d": 230.46875,
      "v": 127
    },
    {
      "midi": 35,
      "hit": false,
      "t": 82031.25,
      "d": 464.84375,
      "v": 127
    },
    {
      "midi": 38,
      "hit": false,
      "t": 82031.25,
      "d": 464.84375,
      "v": 127
    },
    {
      "midi": 42,
      "hit": false,
      "t": 82031.25,
      "d": 230.46875,
      "v": 127
    },
    {
      "midi": 65,
      "hit": false,
      "t": 82265.625,
      "d": 230.46875,
      "v": 127
    },
    {
      "midi": 77,
      "hit": false,
      "t": 82265.625,
      "d": 230.46875,
      "v": 127
    },
    {
      "midi": 75,
      "hit": false,
      "t": 82265.625,
      "d": 230.46875,
      "v": 127
    },
    {
      "midi": 27,
      "hit": false,
      "t": 82265.625,
      "d": 230.46875,
      "v": 127
    },
    {
      "midi": 42,
      "hit": false,
      "t": 82265.625,
      "d": 113.28125,
      "v": 127
    },
    {
      "midi": 42,
      "hit": false,
      "t": 82382.8125,
      "d": 113.28125,
      "v": 127
    },
    {
      "midi": 67,
      "hit": false,
      "t": 82500,
      "d": 699.21875,
      "v": 127
    },
    {
      "midi": 79,
      "hit": false,
      "t": 82500,
      "d": 230.46875,
      "v": 127
    },
    {
      "midi": 74,
      "hit": false,
      "t": 82500,
      "d": 230.46875,
      "v": 127
    },
    {
      "midi": 62,
      "hit": false,
      "t": 82500,
      "d": 1871.09375,
      "v": 124
    },
    {
      "midi": 26,
      "hit": false,
      "t": 82500,
      "d": 230.46875,
      "v": 127
    },
    {
      "midi": 35,
      "hit": false,
      "t": 82500,
      "d": 464.84375,
      "v": 127
    },
    {
      "midi": 42,
      "hit": false,
      "t": 82500,
      "d": 230.46875,
      "v": 127
    },
    {
      "midi": 79,
      "hit": false,
      "t": 82734.375,
      "d": 230.46875,
      "v": 127
    },
    {
      "midi": 74,
      "hit": false,
      "t": 82734.375,
      "d": 230.46875,
      "v": 127
    },
    {
      "midi": 26,
      "hit": false,
      "t": 82734.375,
      "d": 230.46875,
      "v": 127
    },
    {
      "midi": 42,
      "hit": false,
      "t": 82734.375,
      "d": 113.28125,
      "v": 127
    },
    {
      "midi": 42,
      "hit": false,
      "t": 82851.5625,
      "d": 113.28125,
      "v": 127
    },
    {
      "midi": 79,
      "hit": false,
      "t": 82968.75,
      "d": 230.46875,
      "v": 127
    },
    {
      "midi": 74,
      "hit": false,
      "t": 82968.75,
      "d": 230.46875,
      "v": 127
    },
    {
      "midi": 26,
      "hit": false,
      "t": 82968.75,
      "d": 230.46875,
      "v": 127
    },
    {
      "midi": 35,
      "hit": false,
      "t": 82968.75,
      "d": 464.84375,
      "v": 127
    },
    {
      "midi": 38,
      "hit": false,
      "t": 82968.75,
      "d": 464.84375,
      "v": 127
    },
    {
      "midi": 42,
      "hit": false,
      "t": 82968.75,
      "d": 230.46875,
      "v": 127
    },
    {
      "midi": 63,
      "hit": false,
      "t": 83203.125,
      "d": 230.46875,
      "v": 127
    },
    {
      "midi": 80,
      "hit": false,
      "t": 83203.125,
      "d": 230.46875,
      "v": 127
    },
    {
      "midi": 74,
      "hit": false,
      "t": 83203.125,
      "d": 230.46875,
      "v": 127
    },
    {
      "midi": 26,
      "hit": false,
      "t": 83203.125,
      "d": 230.46875,
      "v": 127
    },
    {
      "midi": 42,
      "hit": false,
      "t": 83203.125,
      "d": 113.28125,
      "v": 127
    },
    {
      "midi": 42,
      "hit": false,
      "t": 83320.3125,
      "d": 113.28125,
      "v": 127
    },
    {
      "midi": 70,
      "hit": false,
      "t": 83437.5,
      "d": 933.59375,
      "v": 127
    },
    {
      "midi": 79,
      "hit": false,
      "t": 83437.5,
      "d": 464.84375,
      "v": 127
    },
    {
      "midi": 74,
      "hit": false,
      "t": 83437.5,
      "d": 464.84375,
      "v": 127
    },
    {
      "midi": 26,
      "hit": false,
      "t": 83437.5,
      "d": 230.46875,
      "v": 127
    },
    {
      "midi": 35,
      "hit": false,
      "t": 83437.5,
      "d": 464.84375,
      "v": 127
    },
    {
      "midi": 42,
      "hit": false,
      "t": 83437.5,
      "d": 230.46875,
      "v": 127
    },
    {
      "midi": 26,
      "hit": false,
      "t": 83671.875,
      "d": 230.46875,
      "v": 127
    },
    {
      "midi": 42,
      "hit": false,
      "t": 83671.875,
      "d": 113.28125,
      "v": 127
    },
    {
      "midi": 42,
      "hit": false,
      "t": 83789.0625,
      "d": 113.28125,
      "v": 127
    },
    {
      "midi": 75,
      "hit": false,
      "t": 83906.25,
      "d": 230.46875,
      "v": 127
    },
    {
      "midi": 74,
      "hit": false,
      "t": 83906.25,
      "d": 230.46875,
      "v": 127
    },
    {
      "midi": 26,
      "hit": false,
      "t": 83906.25,
      "d": 230.46875,
      "v": 127
    },
    {
      "midi": 35,
      "hit": false,
      "t": 83906.25,
      "d": 464.84375,
      "v": 127
    },
    {
      "midi": 38,
      "hit": false,
      "t": 83906.25,
      "d": 464.84375,
      "v": 127
    },
    {
      "midi": 42,
      "hit": false,
      "t": 83906.25,
      "d": 230.46875,
      "v": 127
    },
    {
      "midi": 75,
      "hit": false,
      "t": 84140.625,
      "d": 230.46875,
      "v": 127
    },
    {
      "midi": 74,
      "hit": false,
      "t": 84140.625,
      "d": 230.46875,
      "v": 127
    },
    {
      "midi": 26,
      "hit": false,
      "t": 84140.625,
      "d": 230.46875,
      "v": 127
    },
    {
      "midi": 42,
      "hit": false,
      "t": 84140.625,
      "d": 113.28125,
      "v": 127
    },
    {
      "midi": 42,
      "hit": false,
      "t": 84257.8125,
      "d": 113.28125,
      "v": 127
    },
    {
      "midi": 70,
      "hit": false,
      "t": 84375,
      "d": 230.46875,
      "v": 127
    },
    {
      "midi": 75,
      "hit": false,
      "t": 84375,
      "d": 464.84375,
      "v": 127
    },
    {
      "midi": 74,
      "hit": false,
      "t": 84375,
      "d": 464.84375,
      "v": 127
    },
    {
      "midi": 70,
      "hit": false,
      "t": 84375,
      "d": 230.46875,
      "v": 114
    },
    {
      "midi": 58,
      "hit": false,
      "t": 84375,
      "d": 933.59375,
      "v": 124
    },
    {
      "midi": 22,
      "hit": false,
      "t": 84375,
      "d": 230.46875,
      "v": 127
    },
    {
      "midi": 35,
      "hit": false,
      "t": 84375,
      "d": 464.84375,
      "v": 127
    },
    {
      "midi": 42,
      "hit": false,
      "t": 84375,
      "d": 230.46875,
      "v": 127
    },
    {
      "midi": 72,
      "hit": false,
      "t": 84609.375,
      "d": 230.46875,
      "v": 127
    },
    {
      "midi": 72,
      "hit": false,
      "t": 84609.375,
      "d": 230.46875,
      "v": 114
    },
    {
      "midi": 22,
      "hit": false,
      "t": 84609.375,
      "d": 230.46875,
      "v": 127
    },
    {
      "midi": 42,
      "hit": false,
      "t": 84609.375,
      "d": 113.28125,
      "v": 127
    },
    {
      "midi": 42,
      "hit": false,
      "t": 84726.5625,
      "d": 113.28125,
      "v": 127
    },
    {
      "midi": 70,
      "hit": false,
      "t": 84843.75,
      "d": 230.46875,
      "v": 127
    },
    {
      "midi": 77,
      "hit": false,
      "t": 84843.75,
      "d": 464.84375,
      "v": 127
    },
    {
      "midi": 74,
      "hit": false,
      "t": 84843.75,
      "d": 464.84375,
      "v": 127
    },
    {
      "midi": 70,
      "hit": false,
      "t": 84843.75,
      "d": 230.46875,
      "v": 114
    },
    {
      "midi": 22,
      "hit": false,
      "t": 84843.75,
      "d": 230.46875,
      "v": 127
    },
    {
      "midi": 35,
      "hit": false,
      "t": 84843.75,
      "d": 464.84375,
      "v": 127
    },
    {
      "midi": 38,
      "hit": false,
      "t": 84843.75,
      "d": 464.84375,
      "v": 127
    },
    {
      "midi": 42,
      "hit": false,
      "t": 84843.75,
      "d": 230.46875,
      "v": 127
    },
    {
      "midi": 72,
      "hit": false,
      "t": 85078.125,
      "d": 230.46875,
      "v": 127
    },
    {
      "midi": 72,
      "hit": false,
      "t": 85078.125,
      "d": 230.46875,
      "v": 114
    },
    {
      "midi": 22,
      "hit": false,
      "t": 85078.125,
      "d": 230.46875,
      "v": 127
    },
    {
      "midi": 42,
      "hit": false,
      "t": 85078.125,
      "d": 113.28125,
      "v": 127
    },
    {
      "midi": 42,
      "hit": false,
      "t": 85195.3125,
      "d": 113.28125,
      "v": 127
    },
    {
      "midi": 70,
      "hit": false,
      "t": 85312.5,
      "d": 347.65625,
      "v": 127
    },
    {
      "midi": 82,
      "hit": false,
      "t": 85312.5,
      "d": 230.46875,
      "v": 127
    },
    {
      "midi": 70,
      "hit": false,
      "t": 85312.5,
      "d": 347.65625,
      "v": 114
    },
    {
      "midi": 60,
      "hit": false,
      "t": 85312.5,
      "d": 933.59375,
      "v": 124
    },
    {
      "midi": 27,
      "hit": false,
      "t": 85312.5,
      "d": 230.46875,
      "v": 127
    },
    {
      "midi": 35,
      "hit": false,
      "t": 85312.5,
      "d": 464.84375,
      "v": 127
    },
    {
      "midi": 42,
      "hit": false,
      "t": 85312.5,
      "d": 230.46875,
      "v": 127
    },
    {
      "midi": 87,
      "hit": false,
      "t": 85546.875,
      "d": 582.03125,
      "v": 127
    },
    {
      "midi": 27,
      "hit": false,
      "t": 85546.875,
      "d": 230.46875,
      "v": 127
    },
    {
      "midi": 42,
      "hit": false,
      "t": 85546.875,
      "d": 113.28125,
      "v": 127
    },
    {
      "midi": 42,
      "hit": false,
      "t": 85664.0625,
      "d": 113.28125,
      "v": 127
    },
    {
      "midi": 67,
      "hit": false,
      "t": 85781.25,
      "d": 464.84375,
      "v": 127
    },
    {
      "midi": 67,
      "hit": false,
      "t": 85781.25,
      "d": 464.84375,
      "v": 114
    },
    {
      "midi": 27,
      "hit": false,
      "t": 85781.25,
      "d": 230.46875,
      "v": 127
    },
    {
      "midi": 35,
      "hit": false,
      "t": 85781.25,
      "d": 464.84375,
      "v": 127
    },
    {
      "midi": 38,
      "hit": false,
      "t": 85781.25,
      "d": 464.84375,
      "v": 127
    },
    {
      "midi": 42,
      "hit": false,
      "t": 85781.25,
      "d": 230.46875,
      "v": 127
    },
    {
      "midi": 27,
      "hit": false,
      "t": 86015.625,
      "d": 230.46875,
      "v": 127
    },
    {
      "midi": 42,
      "hit": false,
      "t": 86015.625,
      "d": 113.28125,
      "v": 127
    },
    {
      "midi": 42,
      "hit": false,
      "t": 86132.8125,
      "d": 113.28125,
      "v": 127
    },
    {
      "midi": 60,
      "hit": false,
      "t": 86250,
      "d": 464.84375,
      "v": 127
    },
    {
      "midi": 63,
      "hit": false,
      "t": 86250,
      "d": 1871.09375,
      "v": 127
    },
    {
      "midi": 68,
      "hit": false,
      "t": 86250,
      "d": 1871.09375,
      "v": 127
    },
    {
      "midi": 60,
      "hit": false,
      "t": 86250,
      "d": 1871.09375,
      "v": 114
    },
    {
      "midi": 60,
      "hit": false,
      "t": 86250,
      "d": 464.84375,
      "v": 124
    },
    {
      "midi": 20,
      "hit": false,
      "t": 86250,
      "d": 230.46875,
      "v": 127
    },
    {
      "midi": 35,
      "hit": false,
      "t": 86250,
      "d": 464.84375,
      "v": 127
    },
    {
      "midi": 42,
      "hit": false,
      "t": 86250,
      "d": 230.46875,
      "v": 127
    },
    {
      "midi": 20,
      "hit": false,
      "t": 86484.375,
      "d": 230.46875,
      "v": 127
    },
    {
      "midi": 42,
      "hit": false,
      "t": 86484.375,
      "d": 113.28125,
      "v": 127
    },
    {
      "midi": 42,
      "hit": false,
      "t": 86601.5625,
      "d": 113.28125,
      "v": 127
    },
    {
      "midi": 60,
      "hit": false,
      "t": 86718.75,
      "d": 230.46875,
      "v": 127
    },
    {
      "midi": 60,
      "hit": false,
      "t": 86718.75,
      "d": 230.46875,
      "v": 124
    },
    {
      "midi": 20,
      "hit": false,
      "t": 86718.75,
      "d": 230.46875,
      "v": 127
    },
    {
      "midi": 35,
      "hit": false,
      "t": 86718.75,
      "d": 464.84375,
      "v": 127
    },
    {
      "midi": 38,
      "hit": false,
      "t": 86718.75,
      "d": 464.84375,
      "v": 127
    },
    {
      "midi": 42,
      "hit": false,
      "t": 86718.75,
      "d": 230.46875,
      "v": 127
    },
    {
      "midi": 63,
      "hit": false,
      "t": 86953.125,
      "d": 464.84375,
      "v": 127
    },
    {
      "midi": 63,
      "hit": false,
      "t": 86953.125,
      "d": 464.84375,
      "v": 124
    },
    {
      "midi": 20,
      "hit": false,
      "t": 86953.125,
      "d": 230.46875,
      "v": 127
    },
    {
      "midi": 42,
      "hit": false,
      "t": 86953.125,
      "d": 113.28125,
      "v": 127
    },
    {
      "midi": 42,
      "hit": false,
      "t": 87070.3125,
      "d": 113.28125,
      "v": 127
    },
    {
      "midi": 20,
      "hit": false,
      "t": 87187.5,
      "d": 230.46875,
      "v": 127
    },
    {
      "midi": 35,
      "hit": false,
      "t": 87187.5,
      "d": 464.84375,
      "v": 127
    },
    {
      "midi": 42,
      "hit": false,
      "t": 87187.5,
      "d": 230.46875,
      "v": 127
    },
    {
      "midi": 67,
      "hit": false,
      "t": 87421.875,
      "d": 699.21875,
      "v": 127
    },
    {
      "midi": 67,
      "hit": false,
      "t": 87421.875,
      "d": 699.21875,
      "v": 124
    },
    {
      "midi": 20,
      "hit": false,
      "t": 87421.875,
      "d": 230.46875,
      "v": 127
    },
    {
      "midi": 42,
      "hit": false,
      "t": 87421.875,
      "d": 113.28125,
      "v": 127
    },
    {
      "midi": 42,
      "hit": false,
      "t": 87539.0625,
      "d": 113.28125,
      "v": 127
    },
    {
      "midi": 20,
      "hit": false,
      "t": 87656.25,
      "d": 230.46875,
      "v": 127
    },
    {
      "midi": 35,
      "hit": false,
      "t": 87656.25,
      "d": 464.84375,
      "v": 127
    },
    {
      "midi": 38,
      "hit": false,
      "t": 87656.25,
      "d": 464.84375,
      "v": 127
    },
    {
      "midi": 42,
      "hit": false,
      "t": 87656.25,
      "d": 230.46875,
      "v": 127
    },
    {
      "midi": 20,
      "hit": false,
      "t": 87890.625,
      "d": 230.46875,
      "v": 127
    },
    {
      "midi": 42,
      "hit": false,
      "t": 87890.625,
      "d": 113.28125,
      "v": 127
    },
    {
      "midi": 42,
      "hit": false,
      "t": 88007.8125,
      "d": 113.28125,
      "v": 127
    },
    {
      "midi": 70,
      "hit": false,
      "t": 88125,
      "d": 464.84375,
      "v": 127
    },
    {
      "midi": 62,
      "hit": false,
      "t": 88125,
      "d": 1871.09375,
      "v": 127
    },
    {
      "midi": 65,
      "hit": false,
      "t": 88125,
      "d": 1871.09375,
      "v": 127
    },
    {
      "midi": 58,
      "hit": false,
      "t": 88125,
      "d": 1871.09375,
      "v": 114
    },
    {
      "midi": 70,
      "hit": false,
      "t": 88125,
      "d": 464.84375,
      "v": 124
    },
    {
      "midi": 22,
      "hit": false,
      "t": 88125,
      "d": 230.46875,
      "v": 127
    },
    {
      "midi": 35,
      "hit": false,
      "t": 88125,
      "d": 464.84375,
      "v": 127
    },
    {
      "midi": 31,
      "hit": false,
      "t": 88125,
      "d": 230.46875,
      "v": 127
    },
    {
      "midi": 42,
      "hit": false,
      "t": 88125,
      "d": 230.46875,
      "v": 127
    },
    {
      "midi": 22,
      "hit": false,
      "t": 88359.375,
      "d": 230.46875,
      "v": 127
    },
    {
      "midi": 42,
      "hit": false,
      "t": 88359.375,
      "d": 113.28125,
      "v": 127
    },
    {
      "midi": 42,
      "hit": false,
      "t": 88476.5625,
      "d": 113.28125,
      "v": 127
    },
    {
      "midi": 72,
      "hit": false,
      "t": 88593.75,
      "d": 230.46875,
      "v": 127
    },
    {
      "midi": 72,
      "hit": false,
      "t": 88593.75,
      "d": 230.46875,
      "v": 124
    },
    {
      "midi": 22,
      "hit": false,
      "t": 88593.75,
      "d": 230.46875,
      "v": 127
    },
    {
      "midi": 35,
      "hit": false,
      "t": 88593.75,
      "d": 464.84375,
      "v": 127
    },
    {
      "midi": 38,
      "hit": false,
      "t": 88593.75,
      "d": 464.84375,
      "v": 127
    },
    {
      "midi": 42,
      "hit": false,
      "t": 88593.75,
      "d": 230.46875,
      "v": 127
    },
    {
      "midi": 63,
      "hit": false,
      "t": 88828.125,
      "d": 230.46875,
      "v": 127
    },
    {
      "midi": 63,
      "hit": false,
      "t": 88828.125,
      "d": 230.46875,
      "v": 124
    },
    {
      "midi": 22,
      "hit": false,
      "t": 88828.125,
      "d": 230.46875,
      "v": 127
    },
    {
      "midi": 42,
      "hit": false,
      "t": 88828.125,
      "d": 113.28125,
      "v": 127
    },
    {
      "midi": 42,
      "hit": false,
      "t": 88945.3125,
      "d": 113.28125,
      "v": 127
    },
    {
      "midi": 63,
      "hit": false,
      "t": 89062.5,
      "d": 230.46875,
      "v": 127
    },
    {
      "midi": 63,
      "hit": false,
      "t": 89062.5,
      "d": 230.46875,
      "v": 124
    },
    {
      "midi": 22,
      "hit": false,
      "t": 89062.5,
      "d": 230.46875,
      "v": 127
    },
    {
      "midi": 35,
      "hit": false,
      "t": 89062.5,
      "d": 464.84375,
      "v": 127
    },
    {
      "midi": 42,
      "hit": false,
      "t": 89062.5,
      "d": 230.46875,
      "v": 127
    },
    {
      "midi": 63,
      "hit": false,
      "t": 89296.875,
      "d": 230.46875,
      "v": 127
    },
    {
      "midi": 63,
      "hit": false,
      "t": 89296.875,
      "d": 230.46875,
      "v": 124
    },
    {
      "midi": 22,
      "hit": false,
      "t": 89296.875,
      "d": 230.46875,
      "v": 127
    },
    {
      "midi": 42,
      "hit": false,
      "t": 89296.875,
      "d": 113.28125,
      "v": 127
    },
    {
      "midi": 42,
      "hit": false,
      "t": 89414.0625,
      "d": 113.28125,
      "v": 127
    },
    {
      "midi": 65,
      "hit": false,
      "t": 89531.25,
      "d": 464.84375,
      "v": 127
    },
    {
      "midi": 65,
      "hit": false,
      "t": 89531.25,
      "d": 464.84375,
      "v": 124
    },
    {
      "midi": 22,
      "hit": false,
      "t": 89531.25,
      "d": 230.46875,
      "v": 127
    },
    {
      "midi": 35,
      "hit": false,
      "t": 89531.25,
      "d": 464.84375,
      "v": 127
    },
    {
      "midi": 38,
      "hit": false,
      "t": 89531.25,
      "d": 464.84375,
      "v": 127
    },
    {
      "midi": 42,
      "hit": false,
      "t": 89531.25,
      "d": 230.46875,
      "v": 127
    },
    {
      "midi": 22,
      "hit": false,
      "t": 89765.625,
      "d": 230.46875,
      "v": 127
    },
    {
      "midi": 42,
      "hit": false,
      "t": 89765.625,
      "d": 113.28125,
      "v": 127
    },
    {
      "midi": 42,
      "hit": false,
      "t": 89882.8125,
      "d": 113.28125,
      "v": 127
    },
    {
      "midi": 70,
      "hit": false,
      "t": 90000,
      "d": 699.21875,
      "v": 127
    },
    {
      "midi": 77,
      "hit": false,
      "t": 90000,
      "d": 230.46875,
      "v": 127
    },
    {
      "midi": 77,
      "hit": false,
      "t": 90000,
      "d": 230.46875,
      "v": 127
    },
    {
      "midi": 67,
      "hit": false,
      "t": 90000,
      "d": 699.21875,
      "v": 114
    },
    {
      "midi": 63,
      "hit": false,
      "t": 90000,
      "d": 699.21875,
      "v": 124
    },
    {
      "midi": 39,
      "hit": false,
      "t": 90000,
      "d": 230.46875,
      "v": 127
    },
    {
      "midi": 35,
      "hit": false,
      "t": 90000,
      "d": 464.84375,
      "v": 127
    },
    {
      "midi": 42,
      "hit": false,
      "t": 90000,
      "d": 230.46875,
      "v": 127
    },
    {
      "midi": 79,
      "hit": false,
      "t": 90234.375,
      "d": 230.46875,
      "v": 127
    },
    {
      "midi": 79,
      "hit": false,
      "t": 90234.375,
      "d": 230.46875,
      "v": 127
    },
    {
      "midi": 39,
      "hit": false,
      "t": 90234.375,
      "d": 230.46875,
      "v": 127
    },
    {
      "midi": 42,
      "hit": false,
      "t": 90234.375,
      "d": 113.28125,
      "v": 127
    },
    {
      "midi": 42,
      "hit": false,
      "t": 90351.5625,
      "d": 113.28125,
      "v": 127
    },
    {
      "midi": 79,
      "hit": false,
      "t": 90468.75,
      "d": 230.46875,
      "v": 127
    },
    {
      "midi": 79,
      "hit": false,
      "t": 90468.75,
      "d": 230.46875,
      "v": 127
    },
    {
      "midi": 39,
      "hit": false,
      "t": 90468.75,
      "d": 230.46875,
      "v": 127
    },
    {
      "midi": 35,
      "hit": false,
      "t": 90468.75,
      "d": 464.84375,
      "v": 127
    },
    {
      "midi": 38,
      "hit": false,
      "t": 90468.75,
      "d": 464.84375,
      "v": 127
    },
    {
      "midi": 42,
      "hit": false,
      "t": 90468.75,
      "d": 230.46875,
      "v": 127
    },
    {
      "midi": 70,
      "hit": false,
      "t": 90703.125,
      "d": 230.46875,
      "v": 127
    },
    {
      "midi": 77,
      "hit": false,
      "t": 90703.125,
      "d": 230.46875,
      "v": 127
    },
    {
      "midi": 77,
      "hit": false,
      "t": 90703.125,
      "d": 230.46875,
      "v": 127
    },
    {
      "midi": 67,
      "hit": false,
      "t": 90703.125,
      "d": 230.46875,
      "v": 114
    },
    {
      "midi": 63,
      "hit": false,
      "t": 90703.125,
      "d": 230.46875,
      "v": 124
    },
    {
      "midi": 39,
      "hit": false,
      "t": 90703.125,
      "d": 230.46875,
      "v": 127
    },
    {
      "midi": 42,
      "hit": false,
      "t": 90703.125,
      "d": 113.28125,
      "v": 127
    },
    {
      "midi": 42,
      "hit": false,
      "t": 90820.3125,
      "d": 113.28125,
      "v": 127
    },
    {
      "midi": 70,
      "hit": false,
      "t": 90937.5,
      "d": 933.59375,
      "v": 127
    },
    {
      "midi": 79,
      "hit": false,
      "t": 90937.5,
      "d": 1167.96875,
      "v": 127
    },
    {
      "midi": 79,
      "hit": false,
      "t": 90937.5,
      "d": 1167.96875,
      "v": 127
    },
    {
      "midi": 67,
      "hit": false,
      "t": 90937.5,
      "d": 933.59375,
      "v": 114
    },
    {
      "midi": 63,
      "hit": false,
      "t": 90937.5,
      "d": 933.59375,
      "v": 124
    },
    {
      "midi": 39,
      "hit": false,
      "t": 90937.5,
      "d": 230.46875,
      "v": 127
    },
    {
      "midi": 35,
      "hit": false,
      "t": 90937.5,
      "d": 464.84375,
      "v": 127
    },
    {
      "midi": 42,
      "hit": false,
      "t": 90937.5,
      "d": 230.46875,
      "v": 127
    },
    {
      "midi": 39,
      "hit": false,
      "t": 91171.875,
      "d": 230.46875,
      "v": 127
    },
    {
      "midi": 42,
      "hit": false,
      "t": 91171.875,
      "d": 113.28125,
      "v": 127
    },
    {
      "midi": 42,
      "hit": false,
      "t": 91289.0625,
      "d": 113.28125,
      "v": 127
    },
    {
      "midi": 39,
      "hit": false,
      "t": 91406.25,
      "d": 230.46875,
      "v": 127
    },
    {
      "midi": 35,
      "hit": false,
      "t": 91406.25,
      "d": 464.84375,
      "v": 127
    },
    {
      "midi": 38,
      "hit": false,
      "t": 91406.25,
      "d": 464.84375,
      "v": 127
    },
    {
      "midi": 42,
      "hit": false,
      "t": 91406.25,
      "d": 230.46875,
      "v": 127
    },
    {
      "midi": 39,
      "hit": false,
      "t": 91640.625,
      "d": 230.46875,
      "v": 127
    },
    {
      "midi": 42,
      "hit": false,
      "t": 91640.625,
      "d": 113.28125,
      "v": 127
    },
    {
      "midi": 42,
      "hit": false,
      "t": 91757.8125,
      "d": 113.28125,
      "v": 127
    },
    {
      "midi": 70,
      "hit": false,
      "t": 91875,
      "d": 933.59375,
      "v": 127
    },
    {
      "midi": 67,
      "hit": false,
      "t": 91875,
      "d": 933.59375,
      "v": 114
    },
    {
      "midi": 63,
      "hit": false,
      "t": 91875,
      "d": 933.59375,
      "v": 124
    },
    {
      "midi": 39,
      "hit": false,
      "t": 91875,
      "d": 230.46875,
      "v": 127
    },
    {
      "midi": 35,
      "hit": false,
      "t": 91875,
      "d": 464.84375,
      "v": 127
    },
    {
      "midi": 42,
      "hit": false,
      "t": 91875,
      "d": 230.46875,
      "v": 127
    },
    {
      "midi": 77,
      "hit": false,
      "t": 92109.375,
      "d": 230.46875,
      "v": 127
    },
    {
      "midi": 77,
      "hit": false,
      "t": 92109.375,
      "d": 230.46875,
      "v": 127
    },
    {
      "midi": 39,
      "hit": false,
      "t": 92109.375,
      "d": 230.46875,
      "v": 127
    },
    {
      "midi": 42,
      "hit": false,
      "t": 92109.375,
      "d": 113.28125,
      "v": 127
    },
    {
      "midi": 42,
      "hit": false,
      "t": 92226.5625,
      "d": 113.28125,
      "v": 127
    },
    {
      "midi": 79,
      "hit": false,
      "t": 92343.75,
      "d": 230.46875,
      "v": 127
    },
    {
      "midi": 79,
      "hit": false,
      "t": 92343.75,
      "d": 230.46875,
      "v": 127
    },
    {
      "midi": 39,
      "hit": false,
      "t": 92343.75,
      "d": 230.46875,
      "v": 127
    },
    {
      "midi": 35,
      "hit": false,
      "t": 92343.75,
      "d": 464.84375,
      "v": 127
    },
    {
      "midi": 38,
      "hit": false,
      "t": 92343.75,
      "d": 464.84375,
      "v": 127
    },
    {
      "midi": 42,
      "hit": false,
      "t": 92343.75,
      "d": 230.46875,
      "v": 127
    },
    {
      "midi": 80,
      "hit": false,
      "t": 92578.125,
      "d": 230.46875,
      "v": 127
    },
    {
      "midi": 80,
      "hit": false,
      "t": 92578.125,
      "d": 230.46875,
      "v": 127
    },
    {
      "midi": 39,
      "hit": false,
      "t": 92578.125,
      "d": 230.46875,
      "v": 127
    },
    {
      "midi": 42,
      "hit": false,
      "t": 92578.125,
      "d": 113.28125,
      "v": 127
    },
    {
      "midi": 42,
      "hit": false,
      "t": 92695.3125,
      "d": 113.28125,
      "v": 127
    },
    {
      "midi": 70,
      "hit": false,
      "t": 92812.5,
      "d": 464.84375,
      "v": 127
    },
    {
      "midi": 79,
      "hit": false,
      "t": 92812.5,
      "d": 464.84375,
      "v": 127
    },
    {
      "midi": 79,
      "hit": false,
      "t": 92812.5,
      "d": 464.84375,
      "v": 127
    },
    {
      "midi": 67,
      "hit": false,
      "t": 92812.5,
      "d": 464.84375,
      "v": 114
    },
    {
      "midi": 63,
      "hit": false,
      "t": 92812.5,
      "d": 464.84375,
      "v": 124
    },
    {
      "midi": 39,
      "hit": false,
      "t": 92812.5,
      "d": 230.46875,
      "v": 127
    },
    {
      "midi": 35,
      "hit": false,
      "t": 92812.5,
      "d": 464.84375,
      "v": 127
    },
    {
      "midi": 42,
      "hit": false,
      "t": 92812.5,
      "d": 230.46875,
      "v": 127
    },
    {
      "midi": 39,
      "hit": false,
      "t": 93046.875,
      "d": 230.46875,
      "v": 127
    },
    {
      "midi": 42,
      "hit": false,
      "t": 93046.875,
      "d": 113.28125,
      "v": 127
    },
    {
      "midi": 42,
      "hit": false,
      "t": 93164.0625,
      "d": 113.28125,
      "v": 127
    },
    {
      "midi": 70,
      "hit": false,
      "t": 93281.25,
      "d": 464.84375,
      "v": 127
    },
    {
      "midi": 77,
      "hit": false,
      "t": 93281.25,
      "d": 464.84375,
      "v": 127
    },
    {
      "midi": 77,
      "hit": false,
      "t": 93281.25,
      "d": 699.21875,
      "v": 127
    },
    {
      "midi": 65,
      "hit": false,
      "t": 93281.25,
      "d": 464.84375,
      "v": 114
    },
    {
      "midi": 62,
      "hit": false,
      "t": 93281.25,
      "d": 464.84375,
      "v": 124
    },
    {
      "midi": 38,
      "hit": false,
      "t": 93281.25,
      "d": 230.46875,
      "v": 127
    },
    {
      "midi": 35,
      "hit": false,
      "t": 93281.25,
      "d": 464.84375,
      "v": 127
    },
    {
      "midi": 38,
      "hit": false,
      "t": 93281.25,
      "d": 464.84375,
      "v": 127
    },
    {
      "midi": 42,
      "hit": false,
      "t": 93281.25,
      "d": 230.46875,
      "v": 127
    },
    {
      "midi": 38,
      "hit": false,
      "t": 93515.625,
      "d": 230.46875,
      "v": 127
    },
    {
      "midi": 42,
      "hit": false,
      "t": 93515.625,
      "d": 113.28125,
      "v": 127
    },
    {
      "midi": 42,
      "hit": false,
      "t": 93632.8125,
      "d": 113.28125,
      "v": 127
    },
    {
      "midi": 67,
      "hit": false,
      "t": 93750,
      "d": 699.21875,
      "v": 127
    },
    {
      "midi": 77,
      "hit": false,
      "t": 93750,
      "d": 230.46875,
      "v": 127
    },
    {
      "midi": 63,
      "hit": false,
      "t": 93750,
      "d": 699.21875,
      "v": 114
    },
    {
      "midi": 60,
      "hit": false,
      "t": 93750,
      "d": 699.21875,
      "v": 124
    },
    {
      "midi": 36,
      "hit": false,
      "t": 93750,
      "d": 230.46875,
      "v": 127
    },
    {
      "midi": 35,
      "hit": false,
      "t": 93750,
      "d": 464.84375,
      "v": 127
    },
    {
      "midi": 42,
      "hit": false,
      "t": 93750,
      "d": 230.46875,
      "v": 127
    },
    {
      "midi": 79,
      "hit": false,
      "t": 93984.375,
      "d": 230.46875,
      "v": 127
    },
    {
      "midi": 79,
      "hit": false,
      "t": 93984.375,
      "d": 230.46875,
      "v": 127
    },
    {
      "midi": 36,
      "hit": false,
      "t": 93984.375,
      "d": 230.46875,
      "v": 127
    },
    {
      "midi": 42,
      "hit": false,
      "t": 93984.375,
      "d": 113.28125,
      "v": 127
    },
    {
      "midi": 42,
      "hit": false,
      "t": 94101.5625,
      "d": 113.28125,
      "v": 127
    },
    {
      "midi": 79,
      "hit": false,
      "t": 94218.75,
      "d": 230.46875,
      "v": 127
    },
    {
      "midi": 79,
      "hit": false,
      "t": 94218.75,
      "d": 230.46875,
      "v": 127
    },
    {
      "midi": 36,
      "hit": false,
      "t": 94218.75,
      "d": 230.46875,
      "v": 127
    },
    {
      "midi": 35,
      "hit": false,
      "t": 94218.75,
      "d": 464.84375,
      "v": 127
    },
    {
      "midi": 38,
      "hit": false,
      "t": 94218.75,
      "d": 464.84375,
      "v": 127
    },
    {
      "midi": 42,
      "hit": false,
      "t": 94218.75,
      "d": 230.46875,
      "v": 127
    },
    {
      "midi": 67,
      "hit": false,
      "t": 94453.125,
      "d": 230.46875,
      "v": 127
    },
    {
      "midi": 77,
      "hit": false,
      "t": 94453.125,
      "d": 230.46875,
      "v": 127
    },
    {
      "midi": 77,
      "hit": false,
      "t": 94453.125,
      "d": 230.46875,
      "v": 127
    },
    {
      "midi": 63,
      "hit": false,
      "t": 94453.125,
      "d": 230.46875,
      "v": 114
    },
    {
      "midi": 60,
      "hit": false,
      "t": 94453.125,
      "d": 230.46875,
      "v": 124
    },
    {
      "midi": 36,
      "hit": false,
      "t": 94453.125,
      "d": 230.46875,
      "v": 127
    },
    {
      "midi": 42,
      "hit": false,
      "t": 94453.125,
      "d": 113.28125,
      "v": 127
    },
    {
      "midi": 42,
      "hit": false,
      "t": 94570.3125,
      "d": 113.28125,
      "v": 127
    },
    {
      "midi": 67,
      "hit": false,
      "t": 94687.5,
      "d": 933.59375,
      "v": 127
    },
    {
      "midi": 79,
      "hit": false,
      "t": 94687.5,
      "d": 1167.96875,
      "v": 127
    },
    {
      "midi": 79,
      "hit": false,
      "t": 94687.5,
      "d": 1167.96875,
      "v": 127
    },
    {
      "midi": 63,
      "hit": false,
      "t": 94687.5,
      "d": 933.59375,
      "v": 114
    },
    {
      "midi": 60,
      "hit": false,
      "t": 94687.5,
      "d": 933.59375,
      "v": 124
    },
    {
      "midi": 36,
      "hit": false,
      "t": 94687.5,
      "d": 230.46875,
      "v": 127
    },
    {
      "midi": 35,
      "hit": false,
      "t": 94687.5,
      "d": 464.84375,
      "v": 127
    },
    {
      "midi": 42,
      "hit": false,
      "t": 94687.5,
      "d": 230.46875,
      "v": 127
    },
    {
      "midi": 36,
      "hit": false,
      "t": 94921.875,
      "d": 230.46875,
      "v": 127
    },
    {
      "midi": 42,
      "hit": false,
      "t": 94921.875,
      "d": 113.28125,
      "v": 127
    },
    {
      "midi": 42,
      "hit": false,
      "t": 95039.0625,
      "d": 113.28125,
      "v": 127
    },
    {
      "midi": 36,
      "hit": false,
      "t": 95156.25,
      "d": 230.46875,
      "v": 127
    },
    {
      "midi": 35,
      "hit": false,
      "t": 95156.25,
      "d": 464.84375,
      "v": 127
    },
    {
      "midi": 38,
      "hit": false,
      "t": 95156.25,
      "d": 464.84375,
      "v": 127
    },
    {
      "midi": 42,
      "hit": false,
      "t": 95156.25,
      "d": 230.46875,
      "v": 127
    },
    {
      "midi": 36,
      "hit": false,
      "t": 95390.625,
      "d": 230.46875,
      "v": 127
    },
    {
      "midi": 42,
      "hit": false,
      "t": 95390.625,
      "d": 113.28125,
      "v": 127
    },
    {
      "midi": 42,
      "hit": false,
      "t": 95507.8125,
      "d": 113.28125,
      "v": 127
    },
    {
      "midi": 67,
      "hit": false,
      "t": 95625,
      "d": 933.59375,
      "v": 127
    },
    {
      "midi": 63,
      "hit": false,
      "t": 95625,
      "d": 933.59375,
      "v": 114
    },
    {
      "midi": 60,
      "hit": false,
      "t": 95625,
      "d": 933.59375,
      "v": 124
    },
    {
      "midi": 36,
      "hit": false,
      "t": 95625,
      "d": 230.46875,
      "v": 127
    },
    {
      "midi": 35,
      "hit": false,
      "t": 95625,
      "d": 464.84375,
      "v": 127
    },
    {
      "midi": 42,
      "hit": false,
      "t": 95625,
      "d": 230.46875,
      "v": 127
    },
    {
      "midi": 77,
      "hit": false,
      "t": 95859.375,
      "d": 230.46875,
      "v": 127
    },
    {
      "midi": 77,
      "hit": false,
      "t": 95859.375,
      "d": 230.46875,
      "v": 127
    },
    {
      "midi": 36,
      "hit": false,
      "t": 95859.375,
      "d": 230.46875,
      "v": 127
    },
    {
      "midi": 42,
      "hit": false,
      "t": 95859.375,
      "d": 113.28125,
      "v": 127
    },
    {
      "midi": 42,
      "hit": false,
      "t": 95976.5625,
      "d": 113.28125,
      "v": 127
    },
    {
      "midi": 79,
      "hit": false,
      "t": 96093.75,
      "d": 230.46875,
      "v": 127
    },
    {
      "midi": 79,
      "hit": false,
      "t": 96093.75,
      "d": 230.46875,
      "v": 127
    },
    {
      "midi": 36,
      "hit": false,
      "t": 96093.75,
      "d": 230.46875,
      "v": 127
    },
    {
      "midi": 35,
      "hit": false,
      "t": 96093.75,
      "d": 464.84375,
      "v": 127
    },
    {
      "midi": 38,
      "hit": false,
      "t": 96093.75,
      "d": 464.84375,
      "v": 127
    },
    {
      "midi": 42,
      "hit": false,
      "t": 96093.75,
      "d": 230.46875,
      "v": 127
    },
    {
      "midi": 82,
      "hit": false,
      "t": 96328.125,
      "d": 230.46875,
      "v": 127
    },
    {
      "midi": 82,
      "hit": false,
      "t": 96328.125,
      "d": 230.46875,
      "v": 127
    },
    {
      "midi": 36,
      "hit": false,
      "t": 96328.125,
      "d": 230.46875,
      "v": 127
    },
    {
      "midi": 42,
      "hit": false,
      "t": 96328.125,
      "d": 113.28125,
      "v": 127
    },
    {
      "midi": 42,
      "hit": false,
      "t": 96445.3125,
      "d": 113.28125,
      "v": 127
    },
    {
      "midi": 67,
      "hit": false,
      "t": 96562.5,
      "d": 464.84375,
      "v": 127
    },
    {
      "midi": 79,
      "hit": false,
      "t": 96562.5,
      "d": 464.84375,
      "v": 127
    },
    {
      "midi": 79,
      "hit": false,
      "t": 96562.5,
      "d": 230.46875,
      "v": 127
    },
    {
      "midi": 63,
      "hit": false,
      "t": 96562.5,
      "d": 464.84375,
      "v": 114
    },
    {
      "midi": 60,
      "hit": false,
      "t": 96562.5,
      "d": 464.84375,
      "v": 124
    },
    {
      "midi": 36,
      "hit": false,
      "t": 96562.5,
      "d": 230.46875,
      "v": 127
    },
    {
      "midi": 35,
      "hit": false,
      "t": 96562.5,
      "d": 464.84375,
      "v": 127
    },
    {
      "midi": 42,
      "hit": false,
      "t": 96562.5,
      "d": 230.46875,
      "v": 127
    },
    {
      "midi": 80,
      "hit": false,
      "t": 96796.875,
      "d": 113.28125,
      "v": 127
    },
    {
      "midi": 36,
      "hit": false,
      "t": 96796.875,
      "d": 230.46875,
      "v": 127
    },
    {
      "midi": 42,
      "hit": false,
      "t": 96796.875,
      "d": 113.28125,
      "v": 127
    },
    {
      "midi": 79,
      "hit": false,
      "t": 96914.0625,
      "d": 113.28125,
      "v": 127
    },
    {
      "midi": 42,
      "hit": false,
      "t": 96914.0625,
      "d": 113.28125,
      "v": 127
    },
    {
      "midi": 65,
      "hit": false,
      "t": 97031.25,
      "d": 464.84375,
      "v": 127
    },
    {
      "midi": 77,
      "hit": false,
      "t": 97031.25,
      "d": 464.84375,
      "v": 127
    },
    {
      "midi": 77,
      "hit": false,
      "t": 97031.25,
      "d": 464.84375,
      "v": 127
    },
    {
      "midi": 62,
      "hit": false,
      "t": 97031.25,
      "d": 464.84375,
      "v": 114
    },
    {
      "midi": 58,
      "hit": false,
      "t": 97031.25,
      "d": 464.84375,
      "v": 124
    },
    {
      "midi": 34,
      "hit": false,
      "t": 97031.25,
      "d": 230.46875,
      "v": 127
    },
    {
      "midi": 35,
      "hit": false,
      "t": 97031.25,
      "d": 464.84375,
      "v": 127
    },
    {
      "midi": 38,
      "hit": false,
      "t": 97031.25,
      "d": 464.84375,
      "v": 127
    },
    {
      "midi": 42,
      "hit": false,
      "t": 97031.25,
      "d": 230.46875,
      "v": 127
    },
    {
      "midi": 34,
      "hit": false,
      "t": 97265.625,
      "d": 230.46875,
      "v": 127
    },
    {
      "midi": 42,
      "hit": false,
      "t": 97265.625,
      "d": 113.28125,
      "v": 127
    },
    {
      "midi": 42,
      "hit": false,
      "t": 97382.8125,
      "d": 113.28125,
      "v": 127
    },
    {
      "midi": 68,
      "hit": false,
      "t": 97500,
      "d": 699.21875,
      "v": 127
    },
    {
      "midi": 79,
      "hit": false,
      "t": 97500,
      "d": 230.46875,
      "v": 127
    },
    {
      "midi": 79,
      "hit": false,
      "t": 97500,
      "d": 230.46875,
      "v": 127
    },
    {
      "midi": 63,
      "hit": false,
      "t": 97500,
      "d": 699.21875,
      "v": 114
    },
    {
      "midi": 60,
      "hit": false,
      "t": 97500,
      "d": 699.21875,
      "v": 124
    },
    {
      "midi": 32,
      "hit": false,
      "t": 97500,
      "d": 230.46875,
      "v": 127
    },
    {
      "midi": 35,
      "hit": false,
      "t": 97500,
      "d": 464.84375,
      "v": 127
    },
    {
      "midi": 42,
      "hit": false,
      "t": 97500,
      "d": 230.46875,
      "v": 127
    },
    {
      "midi": 80,
      "hit": false,
      "t": 97734.375,
      "d": 230.46875,
      "v": 127
    },
    {
      "midi": 80,
      "hit": false,
      "t": 97734.375,
      "d": 230.46875,
      "v": 127
    },
    {
      "midi": 32,
      "hit": false,
      "t": 97734.375,
      "d": 230.46875,
      "v": 127
    },
    {
      "midi": 42,
      "hit": false,
      "t": 97734.375,
      "d": 113.28125,
      "v": 127
    },
    {
      "midi": 42,
      "hit": false,
      "t": 97851.5625,
      "d": 113.28125,
      "v": 127
    },
    {
      "midi": 80,
      "hit": false,
      "t": 97968.75,
      "d": 230.46875,
      "v": 127
    },
    {
      "midi": 80,
      "hit": false,
      "t": 97968.75,
      "d": 230.46875,
      "v": 127
    },
    {
      "midi": 32,
      "hit": false,
      "t": 97968.75,
      "d": 230.46875,
      "v": 127
    },
    {
      "midi": 35,
      "hit": false,
      "t": 97968.75,
      "d": 464.84375,
      "v": 127
    },
    {
      "midi": 38,
      "hit": false,
      "t": 97968.75,
      "d": 464.84375,
      "v": 127
    },
    {
      "midi": 42,
      "hit": false,
      "t": 97968.75,
      "d": 230.46875,
      "v": 127
    },
    {
      "midi": 68,
      "hit": false,
      "t": 98203.125,
      "d": 230.46875,
      "v": 127
    },
    {
      "midi": 79,
      "hit": false,
      "t": 98203.125,
      "d": 230.46875,
      "v": 127
    },
    {
      "midi": 79,
      "hit": false,
      "t": 98203.125,
      "d": 230.46875,
      "v": 127
    },
    {
      "midi": 63,
      "hit": false,
      "t": 98203.125,
      "d": 230.46875,
      "v": 114
    },
    {
      "midi": 60,
      "hit": false,
      "t": 98203.125,
      "d": 230.46875,
      "v": 124
    },
    {
      "midi": 32,
      "hit": false,
      "t": 98203.125,
      "d": 230.46875,
      "v": 127
    },
    {
      "midi": 42,
      "hit": false,
      "t": 98203.125,
      "d": 113.28125,
      "v": 127
    },
    {
      "midi": 42,
      "hit": false,
      "t": 98320.3125,
      "d": 113.28125,
      "v": 127
    },
    {
      "midi": 68,
      "hit": false,
      "t": 98437.5,
      "d": 933.59375,
      "v": 127
    },
    {
      "midi": 80,
      "hit": false,
      "t": 98437.5,
      "d": 1167.96875,
      "v": 127
    },
    {
      "midi": 80,
      "hit": false,
      "t": 98437.5,
      "d": 1167.96875,
      "v": 127
    },
    {
      "midi": 63,
      "hit": false,
      "t": 98437.5,
      "d": 933.59375,
      "v": 114
    },
    {
      "midi": 60,
      "hit": false,
      "t": 98437.5,
      "d": 933.59375,
      "v": 124
    },
    {
      "midi": 32,
      "hit": false,
      "t": 98437.5,
      "d": 230.46875,
      "v": 127
    },
    {
      "midi": 35,
      "hit": false,
      "t": 98437.5,
      "d": 464.84375,
      "v": 127
    },
    {
      "midi": 42,
      "hit": false,
      "t": 98437.5,
      "d": 230.46875,
      "v": 127
    },
    {
      "midi": 32,
      "hit": false,
      "t": 98671.875,
      "d": 230.46875,
      "v": 127
    },
    {
      "midi": 42,
      "hit": false,
      "t": 98671.875,
      "d": 113.28125,
      "v": 127
    },
    {
      "midi": 42,
      "hit": false,
      "t": 98789.0625,
      "d": 113.28125,
      "v": 127
    },
    {
      "midi": 32,
      "hit": false,
      "t": 98906.25,
      "d": 230.46875,
      "v": 127
    },
    {
      "midi": 35,
      "hit": false,
      "t": 98906.25,
      "d": 464.84375,
      "v": 127
    },
    {
      "midi": 38,
      "hit": false,
      "t": 98906.25,
      "d": 464.84375,
      "v": 127
    },
    {
      "midi": 42,
      "hit": false,
      "t": 98906.25,
      "d": 230.46875,
      "v": 127
    },
    {
      "midi": 32,
      "hit": false,
      "t": 99140.625,
      "d": 230.46875,
      "v": 127
    },
    {
      "midi": 42,
      "hit": false,
      "t": 99140.625,
      "d": 113.28125,
      "v": 127
    },
    {
      "midi": 42,
      "hit": false,
      "t": 99257.8125,
      "d": 113.28125,
      "v": 127
    },
    {
      "midi": 68,
      "hit": false,
      "t": 99375,
      "d": 933.59375,
      "v": 127
    },
    {
      "midi": 63,
      "hit": false,
      "t": 99375,
      "d": 933.59375,
      "v": 114
    },
    {
      "midi": 60,
      "hit": false,
      "t": 99375,
      "d": 933.59375,
      "v": 124
    },
    {
      "midi": 32,
      "hit": false,
      "t": 99375,
      "d": 230.46875,
      "v": 127
    },
    {
      "midi": 35,
      "hit": false,
      "t": 99375,
      "d": 464.84375,
      "v": 127
    },
    {
      "midi": 42,
      "hit": false,
      "t": 99375,
      "d": 230.46875,
      "v": 127
    },
    {
      "midi": 79,
      "hit": false,
      "t": 99609.375,
      "d": 230.46875,
      "v": 127
    },
    {
      "midi": 79,
      "hit": false,
      "t": 99609.375,
      "d": 230.46875,
      "v": 127
    },
    {
      "midi": 32,
      "hit": false,
      "t": 99609.375,
      "d": 230.46875,
      "v": 127
    },
    {
      "midi": 42,
      "hit": false,
      "t": 99609.375,
      "d": 113.28125,
      "v": 127
    },
    {
      "midi": 42,
      "hit": false,
      "t": 99726.5625,
      "d": 113.28125,
      "v": 127
    },
    {
      "midi": 80,
      "hit": false,
      "t": 99843.75,
      "d": 230.46875,
      "v": 127
    },
    {
      "midi": 80,
      "hit": false,
      "t": 99843.75,
      "d": 230.46875,
      "v": 127
    },
    {
      "midi": 32,
      "hit": false,
      "t": 99843.75,
      "d": 230.46875,
      "v": 127
    },
    {
      "midi": 35,
      "hit": false,
      "t": 99843.75,
      "d": 464.84375,
      "v": 127
    },
    {
      "midi": 38,
      "hit": false,
      "t": 99843.75,
      "d": 464.84375,
      "v": 127
    },
    {
      "midi": 42,
      "hit": false,
      "t": 99843.75,
      "d": 230.46875,
      "v": 127
    },
    {
      "midi": 82,
      "hit": false,
      "t": 100078.125,
      "d": 230.46875,
      "v": 127
    },
    {
      "midi": 82,
      "hit": false,
      "t": 100078.125,
      "d": 230.46875,
      "v": 127
    },
    {
      "midi": 32,
      "hit": false,
      "t": 100078.125,
      "d": 230.46875,
      "v": 127
    },
    {
      "midi": 42,
      "hit": false,
      "t": 100078.125,
      "d": 113.28125,
      "v": 127
    },
    {
      "midi": 42,
      "hit": false,
      "t": 100195.3125,
      "d": 113.28125,
      "v": 127
    },
    {
      "midi": 68,
      "hit": false,
      "t": 100312.5,
      "d": 464.84375,
      "v": 127
    },
    {
      "midi": 80,
      "hit": false,
      "t": 100312.5,
      "d": 464.84375,
      "v": 127
    },
    {
      "midi": 80,
      "hit": false,
      "t": 100312.5,
      "d": 464.84375,
      "v": 127
    },
    {
      "midi": 63,
      "hit": false,
      "t": 100312.5,
      "d": 464.84375,
      "v": 114
    },
    {
      "midi": 60,
      "hit": false,
      "t": 100312.5,
      "d": 464.84375,
      "v": 124
    },
    {
      "midi": 32,
      "hit": false,
      "t": 100312.5,
      "d": 230.46875,
      "v": 127
    },
    {
      "midi": 35,
      "hit": false,
      "t": 100312.5,
      "d": 464.84375,
      "v": 127
    },
    {
      "midi": 42,
      "hit": false,
      "t": 100312.5,
      "d": 230.46875,
      "v": 127
    },
    {
      "midi": 32,
      "hit": false,
      "t": 100546.875,
      "d": 230.46875,
      "v": 127
    },
    {
      "midi": 42,
      "hit": false,
      "t": 100546.875,
      "d": 113.28125,
      "v": 127
    },
    {
      "midi": 42,
      "hit": false,
      "t": 100664.0625,
      "d": 113.28125,
      "v": 127
    },
    {
      "midi": 67,
      "hit": false,
      "t": 100781.25,
      "d": 464.84375,
      "v": 127
    },
    {
      "midi": 79,
      "hit": false,
      "t": 100781.25,
      "d": 464.84375,
      "v": 127
    },
    {
      "midi": 79,
      "hit": false,
      "t": 100781.25,
      "d": 464.84375,
      "v": 127
    },
    {
      "midi": 63,
      "hit": false,
      "t": 100781.25,
      "d": 464.84375,
      "v": 114
    },
    {
      "midi": 60,
      "hit": false,
      "t": 100781.25,
      "d": 464.84375,
      "v": 124
    },
    {
      "midi": 31,
      "hit": false,
      "t": 100781.25,
      "d": 230.46875,
      "v": 127
    },
    {
      "midi": 35,
      "hit": false,
      "t": 100781.25,
      "d": 464.84375,
      "v": 127
    },
    {
      "midi": 38,
      "hit": false,
      "t": 100781.25,
      "d": 464.84375,
      "v": 127
    },
    {
      "midi": 42,
      "hit": false,
      "t": 100781.25,
      "d": 230.46875,
      "v": 127
    },
    {
      "midi": 31,
      "hit": false,
      "t": 101015.625,
      "d": 230.46875,
      "v": 127
    },
    {
      "midi": 42,
      "hit": false,
      "t": 101015.625,
      "d": 113.28125,
      "v": 127
    },
    {
      "midi": 42,
      "hit": false,
      "t": 101132.8125,
      "d": 113.28125,
      "v": 127
    },
    {
      "midi": 68,
      "hit": false,
      "t": 101250,
      "d": 699.21875,
      "v": 127
    },
    {
      "midi": 80,
      "hit": false,
      "t": 101250,
      "d": 1402.34375,
      "v": 127
    },
    {
      "midi": 80,
      "hit": false,
      "t": 101250,
      "d": 1402.34375,
      "v": 127
    },
    {
      "midi": 63,
      "hit": false,
      "t": 101250,
      "d": 699.21875,
      "v": 114
    },
    {
      "midi": 60,
      "hit": false,
      "t": 101250,
      "d": 699.21875,
      "v": 124
    },
    {
      "midi": 29,
      "hit": false,
      "t": 101250,
      "d": 230.46875,
      "v": 127
    },
    {
      "midi": 35,
      "hit": false,
      "t": 101250,
      "d": 464.84375,
      "v": 127
    },
    {
      "midi": 42,
      "hit": false,
      "t": 101250,
      "d": 230.46875,
      "v": 127
    },
    {
      "midi": 29,
      "hit": false,
      "t": 101484.375,
      "d": 230.46875,
      "v": 127
    },
    {
      "midi": 42,
      "hit": false,
      "t": 101484.375,
      "d": 113.28125,
      "v": 127
    },
    {
      "midi": 42,
      "hit": false,
      "t": 101601.5625,
      "d": 113.28125,
      "v": 127
    },
    {
      "midi": 29,
      "hit": false,
      "t": 101718.75,
      "d": 230.46875,
      "v": 127
    },
    {
      "midi": 35,
      "hit": false,
      "t": 101718.75,
      "d": 464.84375,
      "v": 127
    },
    {
      "midi": 38,
      "hit": false,
      "t": 101718.75,
      "d": 464.84375,
      "v": 127
    },
    {
      "midi": 42,
      "hit": false,
      "t": 101718.75,
      "d": 230.46875,
      "v": 127
    },
    {
      "midi": 68,
      "hit": false,
      "t": 101953.125,
      "d": 1167.96875,
      "v": 127
    },
    {
      "midi": 63,
      "hit": false,
      "t": 101953.125,
      "d": 1167.96875,
      "v": 114
    },
    {
      "midi": 60,
      "hit": false,
      "t": 101953.125,
      "d": 1167.96875,
      "v": 124
    },
    {
      "midi": 29,
      "hit": false,
      "t": 101953.125,
      "d": 230.46875,
      "v": 127
    },
    {
      "midi": 42,
      "hit": false,
      "t": 101953.125,
      "d": 113.28125,
      "v": 127
    },
    {
      "midi": 42,
      "hit": false,
      "t": 102070.3125,
      "d": 113.28125,
      "v": 127
    },
    {
      "midi": 29,
      "hit": false,
      "t": 102187.5,
      "d": 230.46875,
      "v": 127
    },
    {
      "midi": 35,
      "hit": false,
      "t": 102187.5,
      "d": 464.84375,
      "v": 127
    },
    {
      "midi": 42,
      "hit": false,
      "t": 102187.5,
      "d": 230.46875,
      "v": 127
    },
    {
      "midi": 29,
      "hit": false,
      "t": 102421.875,
      "d": 230.46875,
      "v": 127
    },
    {
      "midi": 42,
      "hit": false,
      "t": 102421.875,
      "d": 113.28125,
      "v": 127
    },
    {
      "midi": 42,
      "hit": false,
      "t": 102539.0625,
      "d": 113.28125,
      "v": 127
    },
    {
      "midi": 75,
      "hit": false,
      "t": 102656.25,
      "d": 464.84375,
      "v": 127
    },
    {
      "midi": 75,
      "hit": false,
      "t": 102656.25,
      "d": 464.84375,
      "v": 127
    },
    {
      "midi": 32,
      "hit": false,
      "t": 102656.25,
      "d": 230.46875,
      "v": 127
    },
    {
      "midi": 35,
      "hit": false,
      "t": 102656.25,
      "d": 464.84375,
      "v": 127
    },
    {
      "midi": 38,
      "hit": false,
      "t": 102656.25,
      "d": 464.84375,
      "v": 127
    },
    {
      "midi": 42,
      "hit": false,
      "t": 102656.25,
      "d": 230.46875,
      "v": 127
    },
    {
      "midi": 32,
      "hit": false,
      "t": 102890.625,
      "d": 230.46875,
      "v": 127
    },
    {
      "midi": 42,
      "hit": false,
      "t": 102890.625,
      "d": 113.28125,
      "v": 127
    },
    {
      "midi": 42,
      "hit": false,
      "t": 103007.8125,
      "d": 113.28125,
      "v": 127
    },
    {
      "midi": 70,
      "hit": false,
      "t": 103125,
      "d": 699.21875,
      "v": 127
    },
    {
      "midi": 77,
      "hit": false,
      "t": 103125,
      "d": 933.59375,
      "v": 127
    },
    {
      "midi": 77,
      "hit": false,
      "t": 103125,
      "d": 933.59375,
      "v": 127
    },
    {
      "midi": 65,
      "hit": false,
      "t": 103125,
      "d": 699.21875,
      "v": 114
    },
    {
      "midi": 62,
      "hit": false,
      "t": 103125,
      "d": 699.21875,
      "v": 124
    },
    {
      "midi": 34,
      "hit": false,
      "t": 103125,
      "d": 230.46875,
      "v": 127
    },
    {
      "midi": 35,
      "hit": false,
      "t": 103125,
      "d": 464.84375,
      "v": 127
    },
    {
      "midi": 42,
      "hit": false,
      "t": 103125,
      "d": 230.46875,
      "v": 127
    },
    {
      "midi": 34,
      "hit": false,
      "t": 103359.375,
      "d": 230.46875,
      "v": 127
    },
    {
      "midi": 42,
      "hit": false,
      "t": 103359.375,
      "d": 113.28125,
      "v": 127
    },
    {
      "midi": 42,
      "hit": false,
      "t": 103476.5625,
      "d": 113.28125,
      "v": 127
    },
    {
      "midi": 34,
      "hit": false,
      "t": 103593.75,
      "d": 230.46875,
      "v": 127
    },
    {
      "midi": 35,
      "hit": false,
      "t": 103593.75,
      "d": 464.84375,
      "v": 127
    },
    {
      "midi": 38,
      "hit": false,
      "t": 103593.75,
      "d": 464.84375,
      "v": 127
    },
    {
      "midi": 42,
      "hit": false,
      "t": 103593.75,
      "d": 230.46875,
      "v": 127
    },
    {
      "midi": 70,
      "hit": false,
      "t": 103828.125,
      "d": 1167.96875,
      "v": 127
    },
    {
      "midi": 65,
      "hit": false,
      "t": 103828.125,
      "d": 1167.96875,
      "v": 114
    },
    {
      "midi": 62,
      "hit": false,
      "t": 103828.125,
      "d": 1167.96875,
      "v": 124
    },
    {
      "midi": 34,
      "hit": false,
      "t": 103828.125,
      "d": 230.46875,
      "v": 127
    },
    {
      "midi": 42,
      "hit": false,
      "t": 103828.125,
      "d": 113.28125,
      "v": 127
    },
    {
      "midi": 42,
      "hit": false,
      "t": 103945.3125,
      "d": 113.28125,
      "v": 127
    },
    {
      "midi": 34,
      "hit": false,
      "t": 104062.5,
      "d": 230.46875,
      "v": 127
    },
    {
      "midi": 35,
      "hit": false,
      "t": 104062.5,
      "d": 464.84375,
      "v": 127
    },
    {
      "midi": 29,
      "hit": false,
      "t": 104062.5,
      "d": 230.46875,
      "v": 127
    },
    {
      "midi": 77,
      "hit": false,
      "t": 104296.875,
      "d": 113.28125,
      "v": 127
    },
    {
      "midi": 34,
      "hit": false,
      "t": 104296.875,
      "d": 230.46875,
      "v": 127
    },
    {
      "midi": 29,
      "hit": false,
      "t": 104296.875,
      "d": 230.46875,
      "v": 127
    },
    {
      "midi": 76,
      "hit": false,
      "t": 104414.0625,
      "d": 113.28125,
      "v": 127
    },
    {
      "midi": 74,
      "hit": false,
      "t": 104531.25,
      "d": 230.46875,
      "v": 127
    },
    {
      "midi": 34,
      "hit": false,
      "t": 104531.25,
      "d": 230.46875,
      "v": 127
    },
    {
      "midi": 35,
      "hit": false,
      "t": 104531.25,
      "d": 464.84375,
      "v": 127
    },
    {
      "midi": 38,
      "hit": false,
      "t": 104531.25,
      "d": 230.46875,
      "v": 127
    },
    {
      "midi": 70,
      "hit": false,
      "t": 104765.625,
      "d": 230.46875,
      "v": 127
    },
    {
      "midi": 34,
      "hit": false,
      "t": 104765.625,
      "d": 230.46875,
      "v": 127
    },
    {
      "midi": 38,
      "hit": false,
      "t": 104765.625,
      "d": 230.46875,
      "v": 127
    },
    {
      "midi": 63,
      "hit": false,
      "t": 105000,
      "d": 230.46875,
      "v": 127
    },
    {
      "midi": 63,
      "hit": false,
      "t": 105000,
      "d": 230.46875,
      "v": 127
    },
    {
      "midi": 67,
      "hit": false,
      "t": 105000,
      "d": 1871.09375,
      "v": 114
    },
    {
      "midi": 63,
      "hit": false,
      "t": 105000,
      "d": 1871.09375,
      "v": 124
    },
    {
      "midi": 39,
      "hit": false,
      "t": 105000,
      "d": 230.46875,
      "v": 127
    },
    {
      "midi": 35,
      "hit": false,
      "t": 105000,
      "d": 464.84375,
      "v": 127
    },
    {
      "midi": 42,
      "hit": false,
      "t": 105000,
      "d": 230.46875,
      "v": 127
    },
    {
      "midi": 63,
      "hit": false,
      "t": 105234.375,
      "d": 230.46875,
      "v": 127
    },
    {
      "midi": 63,
      "hit": false,
      "t": 105234.375,
      "d": 230.46875,
      "v": 127
    },
    {
      "midi": 39,
      "hit": false,
      "t": 105234.375,
      "d": 230.46875,
      "v": 127
    },
    {
      "midi": 42,
      "hit": false,
      "t": 105234.375,
      "d": 113.28125,
      "v": 127
    },
    {
      "midi": 42,
      "hit": false,
      "t": 105351.5625,
      "d": 113.28125,
      "v": 127
    },
    {
      "midi": 63,
      "hit": false,
      "t": 105468.75,
      "d": 230.46875,
      "v": 127
    },
    {
      "midi": 63,
      "hit": false,
      "t": 105468.75,
      "d": 230.46875,
      "v": 127
    },
    {
      "midi": 39,
      "hit": false,
      "t": 105468.75,
      "d": 230.46875,
      "v": 127
    },
    {
      "midi": 35,
      "hit": false,
      "t": 105468.75,
      "d": 464.84375,
      "v": 127
    },
    {
      "midi": 38,
      "hit": false,
      "t": 105468.75,
      "d": 464.84375,
      "v": 127
    },
    {
      "midi": 42,
      "hit": false,
      "t": 105468.75,
      "d": 230.46875,
      "v": 127
    },
    {
      "midi": 62,
      "hit": false,
      "t": 105703.125,
      "d": 464.84375,
      "v": 127
    },
    {
      "midi": 63,
      "hit": false,
      "t": 105703.125,
      "d": 230.46875,
      "v": 127
    },
    {
      "midi": 62,
      "hit": false,
      "t": 105703.125,
      "d": 464.84375,
      "v": 127
    },
    {
      "midi": 39,
      "hit": false,
      "t": 105703.125,
      "d": 230.46875,
      "v": 127
    },
    {
      "midi": 42,
      "hit": false,
      "t": 105703.125,
      "d": 113.28125,
      "v": 127
    },
    {
      "midi": 42,
      "hit": false,
      "t": 105820.3125,
      "d": 113.28125,
      "v": 127
    },
    {
      "midi": 65,
      "hit": false,
      "t": 105937.5,
      "d": 230.46875,
      "v": 127
    },
    {
      "midi": 39,
      "hit": false,
      "t": 105937.5,
      "d": 230.46875,
      "v": 127
    },
    {
      "midi": 35,
      "hit": false,
      "t": 105937.5,
      "d": 464.84375,
      "v": 127
    },
    {
      "midi": 42,
      "hit": false,
      "t": 105937.5,
      "d": 230.46875,
      "v": 127
    },
    {
      "midi": 58,
      "hit": false,
      "t": 106171.875,
      "d": 464.84375,
      "v": 127
    },
    {
      "midi": 63,
      "hit": false,
      "t": 106171.875,
      "d": 230.46875,
      "v": 127
    },
    {
      "midi": 58,
      "hit": false,
      "t": 106171.875,
      "d": 464.84375,
      "v": 127
    },
    {
      "midi": 39,
      "hit": false,
      "t": 106171.875,
      "d": 230.46875,
      "v": 127
    },
    {
      "midi": 42,
      "hit": false,
      "t": 106171.875,
      "d": 113.28125,
      "v": 127
    },
    {
      "midi": 42,
      "hit": false,
      "t": 106289.0625,
      "d": 113.28125,
      "v": 127
    },
    {
      "midi": 62,
      "hit": false,
      "t": 106406.25,
      "d": 230.46875,
      "v": 127
    },
    {
      "midi": 39,
      "hit": false,
      "t": 106406.25,
      "d": 230.46875,
      "v": 127
    },
    {
      "midi": 35,
      "hit": false,
      "t": 106406.25,
      "d": 464.84375,
      "v": 127
    },
    {
      "midi": 38,
      "hit": false,
      "t": 106406.25,
      "d": 464.84375,
      "v": 127
    },
    {
      "midi": 42,
      "hit": false,
      "t": 106406.25,
      "d": 230.46875,
      "v": 127
    },
    {
      "midi": 58,
      "hit": false,
      "t": 106640.625,
      "d": 230.46875,
      "v": 127
    },
    {
      "midi": 58,
      "hit": false,
      "t": 106640.625,
      "d": 699.21875,
      "v": 127
    },
    {
      "midi": 58,
      "hit": false,
      "t": 106640.625,
      "d": 230.46875,
      "v": 127
    },
    {
      "midi": 39,
      "hit": false,
      "t": 106640.625,
      "d": 230.46875,
      "v": 127
    },
    {
      "midi": 42,
      "hit": false,
      "t": 106640.625,
      "d": 113.28125,
      "v": 127
    },
    {
      "midi": 42,
      "hit": false,
      "t": 106757.8125,
      "d": 113.28125,
      "v": 127
    },
    {
      "midi": 65,
      "hit": false,
      "t": 106875,
      "d": 230.46875,
      "v": 127
    },
    {
      "midi": 65,
      "hit": false,
      "t": 106875,
      "d": 230.46875,
      "v": 127
    },
    {
      "midi": 63,
      "hit": false,
      "t": 106875,
      "d": 1871.09375,
      "v": 114
    },
    {
      "midi": 60,
      "hit": false,
      "t": 106875,
      "d": 1871.09375,
      "v": 124
    },
    {
      "midi": 36,
      "hit": false,
      "t": 106875,
      "d": 230.46875,
      "v": 127
    },
    {
      "midi": 35,
      "hit": false,
      "t": 106875,
      "d": 464.84375,
      "v": 127
    },
    {
      "midi": 42,
      "hit": false,
      "t": 106875,
      "d": 230.46875,
      "v": 127
    },
    {
      "midi": 65,
      "hit": false,
      "t": 107109.375,
      "d": 230.46875,
      "v": 127
    },
    {
      "midi": 65,
      "hit": false,
      "t": 107109.375,
      "d": 230.46875,
      "v": 127
    },
    {
      "midi": 36,
      "hit": false,
      "t": 107109.375,
      "d": 230.46875,
      "v": 127
    },
    {
      "midi": 42,
      "hit": false,
      "t": 107109.375,
      "d": 113.28125,
      "v": 127
    },
    {
      "midi": 42,
      "hit": false,
      "t": 107226.5625,
      "d": 113.28125,
      "v": 127
    },
    {
      "midi": 65,
      "hit": false,
      "t": 107343.75,
      "d": 230.46875,
      "v": 127
    },
    {
      "midi": 65,
      "hit": false,
      "t": 107343.75,
      "d": 230.46875,
      "v": 127
    },
    {
      "midi": 36,
      "hit": false,
      "t": 107343.75,
      "d": 230.46875,
      "v": 127
    },
    {
      "midi": 35,
      "hit": false,
      "t": 107343.75,
      "d": 464.84375,
      "v": 127
    },
    {
      "midi": 38,
      "hit": false,
      "t": 107343.75,
      "d": 464.84375,
      "v": 127
    },
    {
      "midi": 42,
      "hit": false,
      "t": 107343.75,
      "d": 230.46875,
      "v": 127
    },
    {
      "midi": 63,
      "hit": false,
      "t": 107578.125,
      "d": 464.84375,
      "v": 127
    },
    {
      "midi": 63,
      "hit": false,
      "t": 107578.125,
      "d": 230.46875,
      "v": 127
    },
    {
      "midi": 63,
      "hit": false,
      "t": 107578.125,
      "d": 464.84375,
      "v": 127
    },
    {
      "midi": 36,
      "hit": false,
      "t": 107578.125,
      "d": 230.46875,
      "v": 127
    },
    {
      "midi": 42,
      "hit": false,
      "t": 107578.125,
      "d": 113.28125,
      "v": 127
    },
    {
      "midi": 42,
      "hit": false,
      "t": 107695.3125,
      "d": 113.28125,
      "v": 127
    },
    {
      "midi": 65,
      "hit": false,
      "t": 107812.5,
      "d": 230.46875,
      "v": 127
    },
    {
      "midi": 36,
      "hit": false,
      "t": 107812.5,
      "d": 230.46875,
      "v": 127
    },
    {
      "midi": 35,
      "hit": false,
      "t": 107812.5,
      "d": 464.84375,
      "v": 127
    },
    {
      "midi": 42,
      "hit": false,
      "t": 107812.5,
      "d": 230.46875,
      "v": 127
    },
    {
      "midi": 60,
      "hit": false,
      "t": 108046.875,
      "d": 699.21875,
      "v": 127
    },
    {
      "midi": 63,
      "hit": false,
      "t": 108046.875,
      "d": 230.46875,
      "v": 127
    },
    {
      "midi": 60,
      "hit": false,
      "t": 108046.875,
      "d": 699.21875,
      "v": 127
    },
    {
      "midi": 36,
      "hit": false,
      "t": 108046.875,
      "d": 230.46875,
      "v": 127
    },
    {
      "midi": 42,
      "hit": false,
      "t": 108046.875,
      "d": 113.28125,
      "v": 127
    },
    {
      "midi": 42,
      "hit": false,
      "t": 108164.0625,
      "d": 113.28125,
      "v": 127
    },
    {
      "midi": 62,
      "hit": false,
      "t": 108281.25,
      "d": 230.46875,
      "v": 127
    },
    {
      "midi": 36,
      "hit": false,
      "t": 108281.25,
      "d": 230.46875,
      "v": 127
    },
    {
      "midi": 35,
      "hit": false,
      "t": 108281.25,
      "d": 464.84375,
      "v": 127
    },
    {
      "midi": 38,
      "hit": false,
      "t": 108281.25,
      "d": 464.84375,
      "v": 127
    },
    {
      "midi": 42,
      "hit": false,
      "t": 108281.25,
      "d": 230.46875,
      "v": 127
    },
    {
      "midi": 58,
      "hit": false,
      "t": 108515.625,
      "d": 699.21875,
      "v": 127
    },
    {
      "midi": 36,
      "hit": false,
      "t": 108515.625,
      "d": 230.46875,
      "v": 127
    },
    {
      "midi": 42,
      "hit": false,
      "t": 108515.625,
      "d": 113.28125,
      "v": 127
    },
    {
      "midi": 42,
      "hit": false,
      "t": 108632.8125,
      "d": 113.28125,
      "v": 127
    },
    {
      "midi": 63,
      "hit": false,
      "t": 108750,
      "d": 230.46875,
      "v": 127
    },
    {
      "midi": 63,
      "hit": false,
      "t": 108750,
      "d": 230.46875,
      "v": 127
    },
    {
      "midi": 67,
      "hit": false,
      "t": 108750,
      "d": 1871.09375,
      "v": 114
    },
    {
      "midi": 63,
      "hit": false,
      "t": 108750,
      "d": 1871.09375,
      "v": 124
    },
    {
      "midi": 39,
      "hit": false,
      "t": 108750,
      "d": 230.46875,
      "v": 127
    },
    {
      "midi": 35,
      "hit": false,
      "t": 108750,
      "d": 464.84375,
      "v": 127
    },
    {
      "midi": 42,
      "hit": false,
      "t": 108750,
      "d": 230.46875,
      "v": 127
    },
    {
      "midi": 63,
      "hit": false,
      "t": 108984.375,
      "d": 230.46875,
      "v": 127
    },
    {
      "midi": 63,
      "hit": false,
      "t": 108984.375,
      "d": 230.46875,
      "v": 127
    },
    {
      "midi": 39,
      "hit": false,
      "t": 108984.375,
      "d": 230.46875,
      "v": 127
    },
    {
      "midi": 42,
      "hit": false,
      "t": 108984.375,
      "d": 113.28125,
      "v": 127
    },
    {
      "midi": 42,
      "hit": false,
      "t": 109101.5625,
      "d": 113.28125,
      "v": 127
    },
    {
      "midi": 63,
      "hit": false,
      "t": 109218.75,
      "d": 230.46875,
      "v": 127
    },
    {
      "midi": 63,
      "hit": false,
      "t": 109218.75,
      "d": 230.46875,
      "v": 127
    },
    {
      "midi": 39,
      "hit": false,
      "t": 109218.75,
      "d": 230.46875,
      "v": 127
    },
    {
      "midi": 35,
      "hit": false,
      "t": 109218.75,
      "d": 464.84375,
      "v": 127
    },
    {
      "midi": 38,
      "hit": false,
      "t": 109218.75,
      "d": 464.84375,
      "v": 127
    },
    {
      "midi": 42,
      "hit": false,
      "t": 109218.75,
      "d": 230.46875,
      "v": 127
    },
    {
      "midi": 62,
      "hit": false,
      "t": 109453.125,
      "d": 464.84375,
      "v": 127
    },
    {
      "midi": 63,
      "hit": false,
      "t": 109453.125,
      "d": 230.46875,
      "v": 127
    },
    {
      "midi": 62,
      "hit": false,
      "t": 109453.125,
      "d": 464.84375,
      "v": 127
    },
    {
      "midi": 39,
      "hit": false,
      "t": 109453.125,
      "d": 230.46875,
      "v": 127
    },
    {
      "midi": 42,
      "hit": false,
      "t": 109453.125,
      "d": 113.28125,
      "v": 127
    },
    {
      "midi": 42,
      "hit": false,
      "t": 109570.3125,
      "d": 113.28125,
      "v": 127
    },
    {
      "midi": 65,
      "hit": false,
      "t": 109687.5,
      "d": 230.46875,
      "v": 127
    },
    {
      "midi": 39,
      "hit": false,
      "t": 109687.5,
      "d": 230.46875,
      "v": 127
    },
    {
      "midi": 35,
      "hit": false,
      "t": 109687.5,
      "d": 464.84375,
      "v": 127
    },
    {
      "midi": 42,
      "hit": false,
      "t": 109687.5,
      "d": 230.46875,
      "v": 127
    },
    {
      "midi": 58,
      "hit": false,
      "t": 109921.875,
      "d": 464.84375,
      "v": 127
    },
    {
      "midi": 63,
      "hit": false,
      "t": 109921.875,
      "d": 230.46875,
      "v": 127
    },
    {
      "midi": 58,
      "hit": false,
      "t": 109921.875,
      "d": 464.84375,
      "v": 127
    },
    {
      "midi": 39,
      "hit": false,
      "t": 109921.875,
      "d": 230.46875,
      "v": 127
    },
    {
      "midi": 42,
      "hit": false,
      "t": 109921.875,
      "d": 113.28125,
      "v": 127
    },
    {
      "midi": 42,
      "hit": false,
      "t": 110039.0625,
      "d": 113.28125,
      "v": 127
    },
    {
      "midi": 62,
      "hit": false,
      "t": 110156.25,
      "d": 230.46875,
      "v": 127
    },
    {
      "midi": 39,
      "hit": false,
      "t": 110156.25,
      "d": 230.46875,
      "v": 127
    },
    {
      "midi": 35,
      "hit": false,
      "t": 110156.25,
      "d": 464.84375,
      "v": 127
    },
    {
      "midi": 38,
      "hit": false,
      "t": 110156.25,
      "d": 464.84375,
      "v": 127
    },
    {
      "midi": 42,
      "hit": false,
      "t": 110156.25,
      "d": 230.46875,
      "v": 127
    },
    {
      "midi": 58,
      "hit": false,
      "t": 110390.625,
      "d": 230.46875,
      "v": 127
    },
    {
      "midi": 58,
      "hit": false,
      "t": 110390.625,
      "d": 699.21875,
      "v": 127
    },
    {
      "midi": 58,
      "hit": false,
      "t": 110390.625,
      "d": 230.46875,
      "v": 127
    },
    {
      "midi": 39,
      "hit": false,
      "t": 110390.625,
      "d": 230.46875,
      "v": 127
    },
    {
      "midi": 42,
      "hit": false,
      "t": 110390.625,
      "d": 113.28125,
      "v": 127
    },
    {
      "midi": 42,
      "hit": false,
      "t": 110507.8125,
      "d": 113.28125,
      "v": 127
    },
    {
      "midi": 65,
      "hit": false,
      "t": 110625,
      "d": 230.46875,
      "v": 127
    },
    {
      "midi": 65,
      "hit": false,
      "t": 110625,
      "d": 230.46875,
      "v": 127
    },
    {
      "midi": 63,
      "hit": false,
      "t": 110625,
      "d": 1871.09375,
      "v": 114
    },
    {
      "midi": 60,
      "hit": false,
      "t": 110625,
      "d": 1871.09375,
      "v": 124
    },
    {
      "midi": 36,
      "hit": false,
      "t": 110625,
      "d": 230.46875,
      "v": 127
    },
    {
      "midi": 35,
      "hit": false,
      "t": 110625,
      "d": 464.84375,
      "v": 127
    },
    {
      "midi": 42,
      "hit": false,
      "t": 110625,
      "d": 230.46875,
      "v": 127
    },
    {
      "midi": 65,
      "hit": false,
      "t": 110859.375,
      "d": 230.46875,
      "v": 127
    },
    {
      "midi": 65,
      "hit": false,
      "t": 110859.375,
      "d": 230.46875,
      "v": 127
    },
    {
      "midi": 36,
      "hit": false,
      "t": 110859.375,
      "d": 230.46875,
      "v": 127
    },
    {
      "midi": 42,
      "hit": false,
      "t": 110859.375,
      "d": 113.28125,
      "v": 127
    },
    {
      "midi": 42,
      "hit": false,
      "t": 110976.5625,
      "d": 113.28125,
      "v": 127
    },
    {
      "midi": 65,
      "hit": false,
      "t": 111093.75,
      "d": 230.46875,
      "v": 127
    },
    {
      "midi": 65,
      "hit": false,
      "t": 111093.75,
      "d": 230.46875,
      "v": 127
    },
    {
      "midi": 36,
      "hit": false,
      "t": 111093.75,
      "d": 230.46875,
      "v": 127
    },
    {
      "midi": 35,
      "hit": false,
      "t": 111093.75,
      "d": 464.84375,
      "v": 127
    },
    {
      "midi": 38,
      "hit": false,
      "t": 111093.75,
      "d": 464.84375,
      "v": 127
    },
    {
      "midi": 42,
      "hit": false,
      "t": 111093.75,
      "d": 230.46875,
      "v": 127
    },
    {
      "midi": 63,
      "hit": false,
      "t": 111328.125,
      "d": 464.84375,
      "v": 127
    },
    {
      "midi": 63,
      "hit": false,
      "t": 111328.125,
      "d": 230.46875,
      "v": 127
    },
    {
      "midi": 63,
      "hit": false,
      "t": 111328.125,
      "d": 464.84375,
      "v": 127
    },
    {
      "midi": 36,
      "hit": false,
      "t": 111328.125,
      "d": 230.46875,
      "v": 127
    },
    {
      "midi": 42,
      "hit": false,
      "t": 111328.125,
      "d": 113.28125,
      "v": 127
    },
    {
      "midi": 42,
      "hit": false,
      "t": 111445.3125,
      "d": 113.28125,
      "v": 127
    },
    {
      "midi": 65,
      "hit": false,
      "t": 111562.5,
      "d": 230.46875,
      "v": 127
    },
    {
      "midi": 36,
      "hit": false,
      "t": 111562.5,
      "d": 230.46875,
      "v": 127
    },
    {
      "midi": 35,
      "hit": false,
      "t": 111562.5,
      "d": 464.84375,
      "v": 127
    },
    {
      "midi": 42,
      "hit": false,
      "t": 111562.5,
      "d": 230.46875,
      "v": 127
    },
    {
      "midi": 60,
      "hit": false,
      "t": 111796.875,
      "d": 464.84375,
      "v": 127
    },
    {
      "midi": 63,
      "hit": false,
      "t": 111796.875,
      "d": 230.46875,
      "v": 127
    },
    {
      "midi": 60,
      "hit": false,
      "t": 111796.875,
      "d": 464.84375,
      "v": 127
    },
    {
      "midi": 36,
      "hit": false,
      "t": 111796.875,
      "d": 230.46875,
      "v": 127
    },
    {
      "midi": 42,
      "hit": false,
      "t": 111796.875,
      "d": 113.28125,
      "v": 127
    },
    {
      "midi": 42,
      "hit": false,
      "t": 111914.0625,
      "d": 113.28125,
      "v": 127
    },
    {
      "midi": 62,
      "hit": false,
      "t": 112031.25,
      "d": 230.46875,
      "v": 127
    },
    {
      "midi": 36,
      "hit": false,
      "t": 112031.25,
      "d": 230.46875,
      "v": 127
    },
    {
      "midi": 35,
      "hit": false,
      "t": 112031.25,
      "d": 464.84375,
      "v": 127
    },
    {
      "midi": 38,
      "hit": false,
      "t": 112031.25,
      "d": 464.84375,
      "v": 127
    },
    {
      "midi": 42,
      "hit": false,
      "t": 112031.25,
      "d": 230.46875,
      "v": 127
    },
    {
      "midi": 60,
      "hit": false,
      "t": 112265.625,
      "d": 230.46875,
      "v": 127
    },
    {
      "midi": 58,
      "hit": false,
      "t": 112265.625,
      "d": 699.21875,
      "v": 127
    },
    {
      "midi": 60,
      "hit": false,
      "t": 112265.625,
      "d": 230.46875,
      "v": 127
    },
    {
      "midi": 36,
      "hit": false,
      "t": 112265.625,
      "d": 230.46875,
      "v": 127
    },
    {
      "midi": 42,
      "hit": false,
      "t": 112265.625,
      "d": 113.28125,
      "v": 127
    },
    {
      "midi": 42,
      "hit": false,
      "t": 112382.8125,
      "d": 113.28125,
      "v": 127
    },
    {
      "midi": 67,
      "hit": false,
      "t": 112500,
      "d": 464.84375,
      "v": 127
    },
    {
      "midi": 67,
      "hit": false,
      "t": 112500,
      "d": 464.84375,
      "v": 127
    },
    {
      "midi": 60,
      "hit": false,
      "t": 112500,
      "d": 1871.09375,
      "v": 114
    },
    {
      "midi": 56,
      "hit": false,
      "t": 112500,
      "d": 1871.09375,
      "v": 124
    },
    {
      "midi": 32,
      "hit": false,
      "t": 112500,
      "d": 230.46875,
      "v": 127
    },
    {
      "midi": 35,
      "hit": false,
      "t": 112500,
      "d": 464.84375,
      "v": 127
    },
    {
      "midi": 42,
      "hit": false,
      "t": 112500,
      "d": 230.46875,
      "v": 127
    },
    {
      "midi": 32,
      "hit": false,
      "t": 112734.375,
      "d": 230.46875,
      "v": 127
    },
    {
      "midi": 42,
      "hit": false,
      "t": 112734.375,
      "d": 113.28125,
      "v": 127
    },
    {
      "midi": 42,
      "hit": false,
      "t": 112851.5625,
      "d": 113.28125,
      "v": 127
    },
    {
      "midi": 67,
      "hit": false,
      "t": 112968.75,
      "d": 230.46875,
      "v": 127
    },
    {
      "midi": 67,
      "hit": false,
      "t": 112968.75,
      "d": 230.46875,
      "v": 127
    },
    {
      "midi": 32,
      "hit": false,
      "t": 112968.75,
      "d": 230.46875,
      "v": 127
    },
    {
      "midi": 35,
      "hit": false,
      "t": 112968.75,
      "d": 464.84375,
      "v": 127
    },
    {
      "midi": 38,
      "hit": false,
      "t": 112968.75,
      "d": 464.84375,
      "v": 127
    },
    {
      "midi": 42,
      "hit": false,
      "t": 112968.75,
      "d": 230.46875,
      "v": 127
    },
    {
      "midi": 65,
      "hit": false,
      "t": 113203.125,
      "d": 699.21875,
      "v": 127
    },
    {
      "midi": 67,
      "hit": false,
      "t": 113203.125,
      "d": 230.46875,
      "v": 127
    },
    {
      "midi": 65,
      "hit": false,
      "t": 113203.125,
      "d": 699.21875,
      "v": 127
    },
    {
      "midi": 32,
      "hit": false,
      "t": 113203.125,
      "d": 230.46875,
      "v": 127
    },
    {
      "midi": 42,
      "hit": false,
      "t": 113203.125,
      "d": 113.28125,
      "v": 127
    },
    {
      "midi": 42,
      "hit": false,
      "t": 113320.3125,
      "d": 113.28125,
      "v": 127
    },
    {
      "midi": 68,
      "hit": false,
      "t": 113437.5,
      "d": 230.46875,
      "v": 127
    },
    {
      "midi": 32,
      "hit": false,
      "t": 113437.5,
      "d": 230.46875,
      "v": 127
    },
    {
      "midi": 35,
      "hit": false,
      "t": 113437.5,
      "d": 464.84375,
      "v": 127
    },
    {
      "midi": 42,
      "hit": false,
      "t": 113437.5,
      "d": 230.46875,
      "v": 127
    },
    {
      "midi": 67,
      "hit": false,
      "t": 113671.875,
      "d": 230.46875,
      "v": 127
    },
    {
      "midi": 32,
      "hit": false,
      "t": 113671.875,
      "d": 230.46875,
      "v": 127
    },
    {
      "midi": 42,
      "hit": false,
      "t": 113671.875,
      "d": 113.28125,
      "v": 127
    },
    {
      "midi": 42,
      "hit": false,
      "t": 113789.0625,
      "d": 113.28125,
      "v": 127
    },
    {
      "midi": 60,
      "hit": false,
      "t": 113906.25,
      "d": 464.84375,
      "v": 127
    },
    {
      "midi": 63,
      "hit": false,
      "t": 113906.25,
      "d": 230.46875,
      "v": 127
    },
    {
      "midi": 60,
      "hit": false,
      "t": 113906.25,
      "d": 464.84375,
      "v": 127
    },
    {
      "midi": 32,
      "hit": false,
      "t": 113906.25,
      "d": 230.46875,
      "v": 127
    },
    {
      "midi": 35,
      "hit": false,
      "t": 113906.25,
      "d": 464.84375,
      "v": 127
    },
    {
      "midi": 38,
      "hit": false,
      "t": 113906.25,
      "d": 464.84375,
      "v": 127
    },
    {
      "midi": 42,
      "hit": false,
      "t": 113906.25,
      "d": 230.46875,
      "v": 127
    },
    {
      "midi": 60,
      "hit": false,
      "t": 114140.625,
      "d": 230.46875,
      "v": 127
    },
    {
      "midi": 32,
      "hit": false,
      "t": 114140.625,
      "d": 230.46875,
      "v": 127
    },
    {
      "midi": 42,
      "hit": false,
      "t": 114140.625,
      "d": 113.28125,
      "v": 127
    },
    {
      "midi": 42,
      "hit": false,
      "t": 114257.8125,
      "d": 113.28125,
      "v": 127
    },
    {
      "midi": 68,
      "hit": false,
      "t": 114375,
      "d": 1402.34375,
      "v": 127
    },
    {
      "midi": 68,
      "hit": false,
      "t": 114375,
      "d": 1402.34375,
      "v": 127
    },
    {
      "midi": 62,
      "hit": false,
      "t": 114375,
      "d": 1871.09375,
      "v": 114
    },
    {
      "midi": 58,
      "hit": false,
      "t": 114375,
      "d": 1871.09375,
      "v": 124
    },
    {
      "midi": 34,
      "hit": false,
      "t": 114375,
      "d": 230.46875,
      "v": 127
    },
    {
      "midi": 35,
      "hit": false,
      "t": 114375,
      "d": 464.84375,
      "v": 127
    },
    {
      "midi": 42,
      "hit": false,
      "t": 114375,
      "d": 230.46875,
      "v": 127
    },
    {
      "midi": 34,
      "hit": false,
      "t": 114609.375,
      "d": 230.46875,
      "v": 127
    },
    {
      "midi": 42,
      "hit": false,
      "t": 114609.375,
      "d": 113.28125,
      "v": 127
    },
    {
      "midi": 42,
      "hit": false,
      "t": 114726.5625,
      "d": 113.28125,
      "v": 127
    },
    {
      "midi": 34,
      "hit": false,
      "t": 114843.75,
      "d": 230.46875,
      "v": 127
    },
    {
      "midi": 35,
      "hit": false,
      "t": 114843.75,
      "d": 464.84375,
      "v": 127
    },
    {
      "midi": 38,
      "hit": false,
      "t": 114843.75,
      "d": 464.84375,
      "v": 127
    },
    {
      "midi": 42,
      "hit": false,
      "t": 114843.75,
      "d": 230.46875,
      "v": 127
    },
    {
      "midi": 34,
      "hit": false,
      "t": 115078.125,
      "d": 230.46875,
      "v": 127
    },
    {
      "midi": 42,
      "hit": false,
      "t": 115078.125,
      "d": 113.28125,
      "v": 127
    },
    {
      "midi": 42,
      "hit": false,
      "t": 115195.3125,
      "d": 113.28125,
      "v": 127
    },
    {
      "midi": 34,
      "hit": false,
      "t": 115312.5,
      "d": 230.46875,
      "v": 127
    },
    {
      "midi": 35,
      "hit": false,
      "t": 115312.5,
      "d": 464.84375,
      "v": 127
    },
    {
      "midi": 42,
      "hit": false,
      "t": 115312.5,
      "d": 230.46875,
      "v": 127
    },
    {
      "midi": 34,
      "hit": false,
      "t": 115546.875,
      "d": 230.46875,
      "v": 127
    },
    {
      "midi": 42,
      "hit": false,
      "t": 115546.875,
      "d": 113.28125,
      "v": 127
    },
    {
      "midi": 42,
      "hit": false,
      "t": 115664.0625,
      "d": 113.28125,
      "v": 127
    },
    {
      "midi": 67,
      "hit": false,
      "t": 115781.25,
      "d": 464.84375,
      "v": 127
    },
    {
      "midi": 67,
      "hit": false,
      "t": 115781.25,
      "d": 464.84375,
      "v": 127
    },
    {
      "midi": 34,
      "hit": false,
      "t": 115781.25,
      "d": 230.46875,
      "v": 127
    },
    {
      "midi": 35,
      "hit": false,
      "t": 115781.25,
      "d": 464.84375,
      "v": 127
    },
    {
      "midi": 38,
      "hit": false,
      "t": 115781.25,
      "d": 464.84375,
      "v": 127
    },
    {
      "midi": 42,
      "hit": false,
      "t": 115781.25,
      "d": 230.46875,
      "v": 127
    },
    {
      "midi": 34,
      "hit": false,
      "t": 116015.625,
      "d": 230.46875,
      "v": 127
    },
    {
      "midi": 42,
      "hit": false,
      "t": 116015.625,
      "d": 113.28125,
      "v": 127
    },
    {
      "midi": 42,
      "hit": false,
      "t": 116132.8125,
      "d": 113.28125,
      "v": 127
    },
    {
      "midi": 70,
      "hit": false,
      "t": 116250,
      "d": 1871.09375,
      "v": 127
    },
    {
      "midi": 70,
      "hit": false,
      "t": 116250,
      "d": 1871.09375,
      "v": 127
    },
    {
      "midi": 58,
      "hit": false,
      "t": 116250,
      "d": 1871.09375,
      "v": 114
    },
    {
      "midi": 55,
      "hit": false,
      "t": 116250,
      "d": 1871.09375,
      "v": 124
    },
    {
      "midi": 31,
      "hit": false,
      "t": 116250,
      "d": 230.46875,
      "v": 127
    },
    {
      "midi": 35,
      "hit": false,
      "t": 116250,
      "d": 464.84375,
      "v": 127
    },
    {
      "midi": 42,
      "hit": false,
      "t": 116250,
      "d": 230.46875,
      "v": 127
    },
    {
      "midi": 31,
      "hit": false,
      "t": 116484.375,
      "d": 230.46875,
      "v": 127
    },
    {
      "midi": 42,
      "hit": false,
      "t": 116484.375,
      "d": 113.28125,
      "v": 127
    },
    {
      "midi": 42,
      "hit": false,
      "t": 116601.5625,
      "d": 113.28125,
      "v": 127
    },
    {
      "midi": 31,
      "hit": false,
      "t": 116718.75,
      "d": 230.46875,
      "v": 127
    },
    {
      "midi": 35,
      "hit": false,
      "t": 116718.75,
      "d": 464.84375,
      "v": 127
    },
    {
      "midi": 38,
      "hit": false,
      "t": 116718.75,
      "d": 464.84375,
      "v": 127
    },
    {
      "midi": 42,
      "hit": false,
      "t": 116718.75,
      "d": 230.46875,
      "v": 127
    },
    {
      "midi": 31,
      "hit": false,
      "t": 116953.125,
      "d": 230.46875,
      "v": 127
    },
    {
      "midi": 42,
      "hit": false,
      "t": 116953.125,
      "d": 113.28125,
      "v": 127
    },
    {
      "midi": 42,
      "hit": false,
      "t": 117070.3125,
      "d": 113.28125,
      "v": 127
    },
    {
      "midi": 68,
      "hit": false,
      "t": 117187.5,
      "d": 230.46875,
      "v": 127
    },
    {
      "midi": 31,
      "hit": false,
      "t": 117187.5,
      "d": 230.46875,
      "v": 127
    },
    {
      "midi": 35,
      "hit": false,
      "t": 117187.5,
      "d": 464.84375,
      "v": 127
    },
    {
      "midi": 42,
      "hit": false,
      "t": 117187.5,
      "d": 230.46875,
      "v": 127
    },
    {
      "midi": 67,
      "hit": false,
      "t": 117421.875,
      "d": 230.46875,
      "v": 127
    },
    {
      "midi": 31,
      "hit": false,
      "t": 117421.875,
      "d": 230.46875,
      "v": 127
    },
    {
      "midi": 42,
      "hit": false,
      "t": 117421.875,
      "d": 113.28125,
      "v": 127
    },
    {
      "midi": 42,
      "hit": false,
      "t": 117539.0625,
      "d": 113.28125,
      "v": 127
    },
    {
      "midi": 65,
      "hit": false,
      "t": 117656.25,
      "d": 230.46875,
      "v": 127
    },
    {
      "midi": 31,
      "hit": false,
      "t": 117656.25,
      "d": 230.46875,
      "v": 127
    },
    {
      "midi": 35,
      "hit": false,
      "t": 117656.25,
      "d": 464.84375,
      "v": 127
    },
    {
      "midi": 38,
      "hit": false,
      "t": 117656.25,
      "d": 464.84375,
      "v": 127
    },
    {
      "midi": 42,
      "hit": false,
      "t": 117656.25,
      "d": 230.46875,
      "v": 127
    },
    {
      "midi": 67,
      "hit": false,
      "t": 117890.625,
      "d": 230.46875,
      "v": 127
    },
    {
      "midi": 31,
      "hit": false,
      "t": 117890.625,
      "d": 230.46875,
      "v": 127
    },
    {
      "midi": 42,
      "hit": false,
      "t": 117890.625,
      "d": 113.28125,
      "v": 127
    },
    {
      "midi": 42,
      "hit": false,
      "t": 118007.8125,
      "d": 113.28125,
      "v": 127
    },
    {
      "midi": 68,
      "hit": false,
      "t": 118125,
      "d": 230.46875,
      "v": 127
    },
    {
      "midi": 63,
      "hit": false,
      "t": 118125,
      "d": 933.59375,
      "v": 114
    },
    {
      "midi": 60,
      "hit": false,
      "t": 118125,
      "d": 933.59375,
      "v": 124
    },
    {
      "midi": 32,
      "hit": false,
      "t": 118125,
      "d": 464.84375,
      "v": 127
    },
    {
      "midi": 35,
      "hit": false,
      "t": 118125,
      "d": 464.84375,
      "v": 127
    },
    {
      "midi": 42,
      "hit": false,
      "t": 118125,
      "d": 230.46875,
      "v": 127
    },
    {
      "midi": 42,
      "hit": false,
      "t": 118359.375,
      "d": 113.28125,
      "v": 127
    },
    {
      "midi": 42,
      "hit": false,
      "t": 118476.5625,
      "d": 113.28125,
      "v": 127
    },
    {
      "midi": 65,
      "hit": false,
      "t": 118593.75,
      "d": 230.46875,
      "v": 127
    },
    {
      "midi": 35,
      "hit": false,
      "t": 118593.75,
      "d": 464.84375,
      "v": 127
    },
    {
      "midi": 42,
      "hit": false,
      "t": 118593.75,
      "d": 230.46875,
      "v": 127
    },
    {
      "midi": 42,
      "hit": false,
      "t": 118828.125,
      "d": 113.28125,
      "v": 127
    },
    {
      "midi": 42,
      "hit": false,
      "t": 118945.3125,
      "d": 113.28125,
      "v": 127
    },
    {
      "midi": 62,
      "hit": false,
      "t": 119062.5,
      "d": 230.46875,
      "v": 127
    },
    {
      "midi": 58,
      "hit": false,
      "t": 119062.5,
      "d": 113.28125,
      "v": 127
    },
    {
      "midi": 62,
      "hit": false,
      "t": 119062.5,
      "d": 933.59375,
      "v": 114
    },
    {
      "midi": 58,
      "hit": false,
      "t": 119062.5,
      "d": 933.59375,
      "v": 124
    },
    {
      "midi": 34,
      "hit": false,
      "t": 119062.5,
      "d": 464.84375,
      "v": 127
    },
    {
      "midi": 35,
      "hit": false,
      "t": 119062.5,
      "d": 464.84375,
      "v": 127
    },
    {
      "midi": 42,
      "hit": false,
      "t": 119062.5,
      "d": 230.46875,
      "v": 127
    },
    {
      "midi": 62,
      "hit": false,
      "t": 119179.6875,
      "d": 113.28125,
      "v": 127
    },
    {
      "midi": 65,
      "hit": false,
      "t": 119296.875,
      "d": 699.21875,
      "v": 127
    },
    {
      "midi": 38,
      "hit": false,
      "t": 119296.875,
      "d": 230.46875,
      "v": 127
    },
    {
      "midi": 42,
      "hit": false,
      "t": 119296.875,
      "d": 113.28125,
      "v": 127
    },
    {
      "midi": 42,
      "hit": false,
      "t": 119414.0625,
      "d": 113.28125,
      "v": 127
    },
    {
      "midi": 58,
      "hit": false,
      "t": 119531.25,
      "d": 347.65625,
      "v": 127
    },
    {
      "midi": 35,
      "hit": false,
      "t": 119531.25,
      "d": 464.84375,
      "v": 127
    },
    {
      "midi": 38,
      "hit": false,
      "t": 119531.25,
      "d": 230.46875,
      "v": 127
    },
    {
      "midi": 42,
      "hit": false,
      "t": 119531.25,
      "d": 230.46875,
      "v": 127
    },
    {
      "midi": 38,
      "hit": false,
      "t": 119765.625,
      "d": 230.46875,
      "v": 127
    },
    {
      "midi": 42,
      "hit": false,
      "t": 119765.625,
      "d": 113.28125,
      "v": 127
    },
    {
      "midi": 42,
      "hit": false,
      "t": 119882.8125,
      "d": 113.28125,
      "v": 127
    },
    {
      "midi": 63,
      "hit": false,
      "t": 120000,
      "d": 230.46875,
      "v": 127
    },
    {
      "midi": 63,
      "hit": false,
      "t": 120000,
      "d": 230.46875,
      "v": 127
    },
    {
      "midi": 67,
      "hit": false,
      "t": 120000,
      "d": 1871.09375,
      "v": 114
    },
    {
      "midi": 63,
      "hit": false,
      "t": 120000,
      "d": 1871.09375,
      "v": 124
    },
    {
      "midi": 39,
      "hit": false,
      "t": 120000,
      "d": 230.46875,
      "v": 127
    },
    {
      "midi": 35,
      "hit": false,
      "t": 120000,
      "d": 464.84375,
      "v": 127
    },
    {
      "midi": 42,
      "hit": false,
      "t": 120000,
      "d": 230.46875,
      "v": 127
    },
    {
      "midi": 63,
      "hit": false,
      "t": 120234.375,
      "d": 230.46875,
      "v": 127
    },
    {
      "midi": 63,
      "hit": false,
      "t": 120234.375,
      "d": 230.46875,
      "v": 127
    },
    {
      "midi": 39,
      "hit": false,
      "t": 120234.375,
      "d": 230.46875,
      "v": 127
    },
    {
      "midi": 42,
      "hit": false,
      "t": 120234.375,
      "d": 113.28125,
      "v": 127
    },
    {
      "midi": 42,
      "hit": false,
      "t": 120351.5625,
      "d": 113.28125,
      "v": 127
    },
    {
      "midi": 63,
      "hit": false,
      "t": 120468.75,
      "d": 230.46875,
      "v": 127
    },
    {
      "midi": 63,
      "hit": false,
      "t": 120468.75,
      "d": 230.46875,
      "v": 127
    },
    {
      "midi": 39,
      "hit": false,
      "t": 120468.75,
      "d": 230.46875,
      "v": 127
    },
    {
      "midi": 35,
      "hit": false,
      "t": 120468.75,
      "d": 464.84375,
      "v": 127
    },
    {
      "midi": 38,
      "hit": false,
      "t": 120468.75,
      "d": 464.84375,
      "v": 127
    },
    {
      "midi": 42,
      "hit": false,
      "t": 120468.75,
      "d": 230.46875,
      "v": 127
    },
    {
      "midi": 62,
      "hit": false,
      "t": 120703.125,
      "d": 464.84375,
      "v": 127
    },
    {
      "midi": 63,
      "hit": false,
      "t": 120703.125,
      "d": 230.46875,
      "v": 127
    },
    {
      "midi": 62,
      "hit": false,
      "t": 120703.125,
      "d": 464.84375,
      "v": 127
    },
    {
      "midi": 39,
      "hit": false,
      "t": 120703.125,
      "d": 230.46875,
      "v": 127
    },
    {
      "midi": 42,
      "hit": false,
      "t": 120703.125,
      "d": 113.28125,
      "v": 127
    },
    {
      "midi": 42,
      "hit": false,
      "t": 120820.3125,
      "d": 113.28125,
      "v": 127
    },
    {
      "midi": 65,
      "hit": false,
      "t": 120937.5,
      "d": 230.46875,
      "v": 127
    },
    {
      "midi": 39,
      "hit": false,
      "t": 120937.5,
      "d": 230.46875,
      "v": 127
    },
    {
      "midi": 35,
      "hit": false,
      "t": 120937.5,
      "d": 464.84375,
      "v": 127
    },
    {
      "midi": 42,
      "hit": false,
      "t": 120937.5,
      "d": 230.46875,
      "v": 127
    },
    {
      "midi": 58,
      "hit": false,
      "t": 121171.875,
      "d": 464.84375,
      "v": 127
    },
    {
      "midi": 63,
      "hit": false,
      "t": 121171.875,
      "d": 230.46875,
      "v": 127
    },
    {
      "midi": 58,
      "hit": false,
      "t": 121171.875,
      "d": 464.84375,
      "v": 127
    },
    {
      "midi": 39,
      "hit": false,
      "t": 121171.875,
      "d": 230.46875,
      "v": 127
    },
    {
      "midi": 42,
      "hit": false,
      "t": 121171.875,
      "d": 113.28125,
      "v": 127
    },
    {
      "midi": 42,
      "hit": false,
      "t": 121289.0625,
      "d": 113.28125,
      "v": 127
    },
    {
      "midi": 62,
      "hit": false,
      "t": 121406.25,
      "d": 230.46875,
      "v": 127
    },
    {
      "midi": 39,
      "hit": false,
      "t": 121406.25,
      "d": 230.46875,
      "v": 127
    },
    {
      "midi": 35,
      "hit": false,
      "t": 121406.25,
      "d": 464.84375,
      "v": 127
    },
    {
      "midi": 38,
      "hit": false,
      "t": 121406.25,
      "d": 464.84375,
      "v": 127
    },
    {
      "midi": 42,
      "hit": false,
      "t": 121406.25,
      "d": 230.46875,
      "v": 127
    },
    {
      "midi": 58,
      "hit": false,
      "t": 121640.625,
      "d": 230.46875,
      "v": 127
    },
    {
      "midi": 58,
      "hit": false,
      "t": 121640.625,
      "d": 699.21875,
      "v": 127
    },
    {
      "midi": 58,
      "hit": false,
      "t": 121640.625,
      "d": 230.46875,
      "v": 127
    },
    {
      "midi": 39,
      "hit": false,
      "t": 121640.625,
      "d": 230.46875,
      "v": 127
    },
    {
      "midi": 42,
      "hit": false,
      "t": 121640.625,
      "d": 113.28125,
      "v": 127
    },
    {
      "midi": 42,
      "hit": false,
      "t": 121757.8125,
      "d": 113.28125,
      "v": 127
    },
    {
      "midi": 65,
      "hit": false,
      "t": 121875,
      "d": 230.46875,
      "v": 127
    },
    {
      "midi": 65,
      "hit": false,
      "t": 121875,
      "d": 230.46875,
      "v": 127
    },
    {
      "midi": 63,
      "hit": false,
      "t": 121875,
      "d": 1871.09375,
      "v": 114
    },
    {
      "midi": 60,
      "hit": false,
      "t": 121875,
      "d": 1871.09375,
      "v": 124
    },
    {
      "midi": 36,
      "hit": false,
      "t": 121875,
      "d": 230.46875,
      "v": 127
    },
    {
      "midi": 35,
      "hit": false,
      "t": 121875,
      "d": 464.84375,
      "v": 127
    },
    {
      "midi": 42,
      "hit": false,
      "t": 121875,
      "d": 230.46875,
      "v": 127
    },
    {
      "midi": 65,
      "hit": false,
      "t": 122109.375,
      "d": 230.46875,
      "v": 127
    },
    {
      "midi": 65,
      "hit": false,
      "t": 122109.375,
      "d": 230.46875,
      "v": 127
    },
    {
      "midi": 36,
      "hit": false,
      "t": 122109.375,
      "d": 230.46875,
      "v": 127
    },
    {
      "midi": 42,
      "hit": false,
      "t": 122109.375,
      "d": 113.28125,
      "v": 127
    },
    {
      "midi": 42,
      "hit": false,
      "t": 122226.5625,
      "d": 113.28125,
      "v": 127
    },
    {
      "midi": 65,
      "hit": false,
      "t": 122343.75,
      "d": 230.46875,
      "v": 127
    },
    {
      "midi": 65,
      "hit": false,
      "t": 122343.75,
      "d": 230.46875,
      "v": 127
    },
    {
      "midi": 36,
      "hit": false,
      "t": 122343.75,
      "d": 230.46875,
      "v": 127
    },
    {
      "midi": 35,
      "hit": false,
      "t": 122343.75,
      "d": 464.84375,
      "v": 127
    },
    {
      "midi": 38,
      "hit": false,
      "t": 122343.75,
      "d": 464.84375,
      "v": 127
    },
    {
      "midi": 42,
      "hit": false,
      "t": 122343.75,
      "d": 230.46875,
      "v": 127
    },
    {
      "midi": 63,
      "hit": false,
      "t": 122578.125,
      "d": 464.84375,
      "v": 127
    },
    {
      "midi": 63,
      "hit": false,
      "t": 122578.125,
      "d": 230.46875,
      "v": 127
    },
    {
      "midi": 63,
      "hit": false,
      "t": 122578.125,
      "d": 464.84375,
      "v": 127
    },
    {
      "midi": 36,
      "hit": false,
      "t": 122578.125,
      "d": 230.46875,
      "v": 127
    },
    {
      "midi": 42,
      "hit": false,
      "t": 122578.125,
      "d": 113.28125,
      "v": 127
    },
    {
      "midi": 42,
      "hit": false,
      "t": 122695.3125,
      "d": 113.28125,
      "v": 127
    },
    {
      "midi": 65,
      "hit": false,
      "t": 122812.5,
      "d": 230.46875,
      "v": 127
    },
    {
      "midi": 36,
      "hit": false,
      "t": 122812.5,
      "d": 230.46875,
      "v": 127
    },
    {
      "midi": 35,
      "hit": false,
      "t": 122812.5,
      "d": 464.84375,
      "v": 127
    },
    {
      "midi": 42,
      "hit": false,
      "t": 122812.5,
      "d": 230.46875,
      "v": 127
    },
    {
      "midi": 60,
      "hit": false,
      "t": 123046.875,
      "d": 699.21875,
      "v": 127
    },
    {
      "midi": 63,
      "hit": false,
      "t": 123046.875,
      "d": 230.46875,
      "v": 127
    },
    {
      "midi": 60,
      "hit": false,
      "t": 123046.875,
      "d": 699.21875,
      "v": 127
    },
    {
      "midi": 36,
      "hit": false,
      "t": 123046.875,
      "d": 230.46875,
      "v": 127
    },
    {
      "midi": 42,
      "hit": false,
      "t": 123046.875,
      "d": 113.28125,
      "v": 127
    },
    {
      "midi": 42,
      "hit": false,
      "t": 123164.0625,
      "d": 113.28125,
      "v": 127
    },
    {
      "midi": 62,
      "hit": false,
      "t": 123281.25,
      "d": 230.46875,
      "v": 127
    },
    {
      "midi": 36,
      "hit": false,
      "t": 123281.25,
      "d": 230.46875,
      "v": 127
    },
    {
      "midi": 35,
      "hit": false,
      "t": 123281.25,
      "d": 464.84375,
      "v": 127
    },
    {
      "midi": 38,
      "hit": false,
      "t": 123281.25,
      "d": 464.84375,
      "v": 127
    },
    {
      "midi": 42,
      "hit": false,
      "t": 123281.25,
      "d": 230.46875,
      "v": 127
    },
    {
      "midi": 58,
      "hit": false,
      "t": 123515.625,
      "d": 699.21875,
      "v": 127
    },
    {
      "midi": 36,
      "hit": false,
      "t": 123515.625,
      "d": 230.46875,
      "v": 127
    },
    {
      "midi": 42,
      "hit": false,
      "t": 123515.625,
      "d": 113.28125,
      "v": 127
    },
    {
      "midi": 42,
      "hit": false,
      "t": 123632.8125,
      "d": 113.28125,
      "v": 127
    },
    {
      "midi": 63,
      "hit": false,
      "t": 123750,
      "d": 230.46875,
      "v": 127
    },
    {
      "midi": 63,
      "hit": false,
      "t": 123750,
      "d": 230.46875,
      "v": 127
    },
    {
      "midi": 67,
      "hit": false,
      "t": 123750,
      "d": 1871.09375,
      "v": 114
    },
    {
      "midi": 63,
      "hit": false,
      "t": 123750,
      "d": 1871.09375,
      "v": 124
    },
    {
      "midi": 39,
      "hit": false,
      "t": 123750,
      "d": 230.46875,
      "v": 127
    },
    {
      "midi": 35,
      "hit": false,
      "t": 123750,
      "d": 464.84375,
      "v": 127
    },
    {
      "midi": 42,
      "hit": false,
      "t": 123750,
      "d": 230.46875,
      "v": 127
    },
    {
      "midi": 63,
      "hit": false,
      "t": 123984.375,
      "d": 230.46875,
      "v": 127
    },
    {
      "midi": 63,
      "hit": false,
      "t": 123984.375,
      "d": 230.46875,
      "v": 127
    },
    {
      "midi": 39,
      "hit": false,
      "t": 123984.375,
      "d": 230.46875,
      "v": 127
    },
    {
      "midi": 42,
      "hit": false,
      "t": 123984.375,
      "d": 113.28125,
      "v": 127
    },
    {
      "midi": 42,
      "hit": false,
      "t": 124101.5625,
      "d": 113.28125,
      "v": 127
    },
    {
      "midi": 63,
      "hit": false,
      "t": 124218.75,
      "d": 230.46875,
      "v": 127
    },
    {
      "midi": 63,
      "hit": false,
      "t": 124218.75,
      "d": 230.46875,
      "v": 127
    },
    {
      "midi": 39,
      "hit": false,
      "t": 124218.75,
      "d": 230.46875,
      "v": 127
    },
    {
      "midi": 35,
      "hit": false,
      "t": 124218.75,
      "d": 464.84375,
      "v": 127
    },
    {
      "midi": 38,
      "hit": false,
      "t": 124218.75,
      "d": 464.84375,
      "v": 127
    },
    {
      "midi": 42,
      "hit": false,
      "t": 124218.75,
      "d": 230.46875,
      "v": 127
    },
    {
      "midi": 62,
      "hit": false,
      "t": 124453.125,
      "d": 464.84375,
      "v": 127
    },
    {
      "midi": 63,
      "hit": false,
      "t": 124453.125,
      "d": 230.46875,
      "v": 127
    },
    {
      "midi": 62,
      "hit": false,
      "t": 124453.125,
      "d": 464.84375,
      "v": 127
    },
    {
      "midi": 39,
      "hit": false,
      "t": 124453.125,
      "d": 230.46875,
      "v": 127
    },
    {
      "midi": 42,
      "hit": false,
      "t": 124453.125,
      "d": 113.28125,
      "v": 127
    },
    {
      "midi": 42,
      "hit": false,
      "t": 124570.3125,
      "d": 113.28125,
      "v": 127
    },
    {
      "midi": 65,
      "hit": false,
      "t": 124687.5,
      "d": 230.46875,
      "v": 127
    },
    {
      "midi": 39,
      "hit": false,
      "t": 124687.5,
      "d": 230.46875,
      "v": 127
    },
    {
      "midi": 35,
      "hit": false,
      "t": 124687.5,
      "d": 464.84375,
      "v": 127
    },
    {
      "midi": 42,
      "hit": false,
      "t": 124687.5,
      "d": 230.46875,
      "v": 127
    },
    {
      "midi": 58,
      "hit": false,
      "t": 124921.875,
      "d": 464.84375,
      "v": 127
    },
    {
      "midi": 63,
      "hit": false,
      "t": 124921.875,
      "d": 230.46875,
      "v": 127
    },
    {
      "midi": 58,
      "hit": false,
      "t": 124921.875,
      "d": 464.84375,
      "v": 127
    },
    {
      "midi": 39,
      "hit": false,
      "t": 124921.875,
      "d": 230.46875,
      "v": 127
    },
    {
      "midi": 42,
      "hit": false,
      "t": 124921.875,
      "d": 113.28125,
      "v": 127
    },
    {
      "midi": 42,
      "hit": false,
      "t": 125039.0625,
      "d": 113.28125,
      "v": 127
    },
    {
      "midi": 62,
      "hit": false,
      "t": 125156.25,
      "d": 230.46875,
      "v": 127
    },
    {
      "midi": 39,
      "hit": false,
      "t": 125156.25,
      "d": 230.46875,
      "v": 127
    },
    {
      "midi": 35,
      "hit": false,
      "t": 125156.25,
      "d": 464.84375,
      "v": 127
    },
    {
      "midi": 38,
      "hit": false,
      "t": 125156.25,
      "d": 464.84375,
      "v": 127
    },
    {
      "midi": 42,
      "hit": false,
      "t": 125156.25,
      "d": 230.46875,
      "v": 127
    },
    {
      "midi": 58,
      "hit": false,
      "t": 125390.625,
      "d": 230.46875,
      "v": 127
    },
    {
      "midi": 58,
      "hit": false,
      "t": 125390.625,
      "d": 699.21875,
      "v": 127
    },
    {
      "midi": 58,
      "hit": false,
      "t": 125390.625,
      "d": 230.46875,
      "v": 127
    },
    {
      "midi": 39,
      "hit": false,
      "t": 125390.625,
      "d": 230.46875,
      "v": 127
    },
    {
      "midi": 42,
      "hit": false,
      "t": 125390.625,
      "d": 113.28125,
      "v": 127
    },
    {
      "midi": 42,
      "hit": false,
      "t": 125507.8125,
      "d": 113.28125,
      "v": 127
    },
    {
      "midi": 65,
      "hit": false,
      "t": 125625,
      "d": 230.46875,
      "v": 127
    },
    {
      "midi": 65,
      "hit": false,
      "t": 125625,
      "d": 230.46875,
      "v": 127
    },
    {
      "midi": 63,
      "hit": false,
      "t": 125625,
      "d": 1871.09375,
      "v": 114
    },
    {
      "midi": 60,
      "hit": false,
      "t": 125625,
      "d": 1871.09375,
      "v": 124
    },
    {
      "midi": 36,
      "hit": false,
      "t": 125625,
      "d": 230.46875,
      "v": 127
    },
    {
      "midi": 35,
      "hit": false,
      "t": 125625,
      "d": 464.84375,
      "v": 127
    },
    {
      "midi": 42,
      "hit": false,
      "t": 125625,
      "d": 230.46875,
      "v": 127
    },
    {
      "midi": 65,
      "hit": false,
      "t": 125859.375,
      "d": 230.46875,
      "v": 127
    },
    {
      "midi": 65,
      "hit": false,
      "t": 125859.375,
      "d": 230.46875,
      "v": 127
    },
    {
      "midi": 36,
      "hit": false,
      "t": 125859.375,
      "d": 230.46875,
      "v": 127
    },
    {
      "midi": 42,
      "hit": false,
      "t": 125859.375,
      "d": 113.28125,
      "v": 127
    },
    {
      "midi": 42,
      "hit": false,
      "t": 125976.5625,
      "d": 113.28125,
      "v": 127
    },
    {
      "midi": 65,
      "hit": false,
      "t": 126093.75,
      "d": 230.46875,
      "v": 127
    },
    {
      "midi": 65,
      "hit": false,
      "t": 126093.75,
      "d": 230.46875,
      "v": 127
    },
    {
      "midi": 36,
      "hit": false,
      "t": 126093.75,
      "d": 230.46875,
      "v": 127
    },
    {
      "midi": 35,
      "hit": false,
      "t": 126093.75,
      "d": 464.84375,
      "v": 127
    },
    {
      "midi": 38,
      "hit": false,
      "t": 126093.75,
      "d": 464.84375,
      "v": 127
    },
    {
      "midi": 42,
      "hit": false,
      "t": 126093.75,
      "d": 230.46875,
      "v": 127
    },
    {
      "midi": 63,
      "hit": false,
      "t": 126328.125,
      "d": 464.84375,
      "v": 127
    },
    {
      "midi": 63,
      "hit": false,
      "t": 126328.125,
      "d": 230.46875,
      "v": 127
    },
    {
      "midi": 63,
      "hit": false,
      "t": 126328.125,
      "d": 464.84375,
      "v": 127
    },
    {
      "midi": 36,
      "hit": false,
      "t": 126328.125,
      "d": 230.46875,
      "v": 127
    },
    {
      "midi": 42,
      "hit": false,
      "t": 126328.125,
      "d": 113.28125,
      "v": 127
    },
    {
      "midi": 42,
      "hit": false,
      "t": 126445.3125,
      "d": 113.28125,
      "v": 127
    },
    {
      "midi": 65,
      "hit": false,
      "t": 126562.5,
      "d": 230.46875,
      "v": 127
    },
    {
      "midi": 36,
      "hit": false,
      "t": 126562.5,
      "d": 230.46875,
      "v": 127
    },
    {
      "midi": 35,
      "hit": false,
      "t": 126562.5,
      "d": 464.84375,
      "v": 127
    },
    {
      "midi": 42,
      "hit": false,
      "t": 126562.5,
      "d": 230.46875,
      "v": 127
    },
    {
      "midi": 60,
      "hit": false,
      "t": 126796.875,
      "d": 464.84375,
      "v": 127
    },
    {
      "midi": 63,
      "hit": false,
      "t": 126796.875,
      "d": 230.46875,
      "v": 127
    },
    {
      "midi": 60,
      "hit": false,
      "t": 126796.875,
      "d": 464.84375,
      "v": 127
    },
    {
      "midi": 36,
      "hit": false,
      "t": 126796.875,
      "d": 230.46875,
      "v": 127
    },
    {
      "midi": 42,
      "hit": false,
      "t": 126796.875,
      "d": 113.28125,
      "v": 127
    },
    {
      "midi": 42,
      "hit": false,
      "t": 126914.0625,
      "d": 113.28125,
      "v": 127
    },
    {
      "midi": 62,
      "hit": false,
      "t": 127031.25,
      "d": 230.46875,
      "v": 127
    },
    {
      "midi": 36,
      "hit": false,
      "t": 127031.25,
      "d": 230.46875,
      "v": 127
    },
    {
      "midi": 35,
      "hit": false,
      "t": 127031.25,
      "d": 464.84375,
      "v": 127
    },
    {
      "midi": 38,
      "hit": false,
      "t": 127031.25,
      "d": 464.84375,
      "v": 127
    },
    {
      "midi": 42,
      "hit": false,
      "t": 127031.25,
      "d": 230.46875,
      "v": 127
    },
    {
      "midi": 60,
      "hit": false,
      "t": 127265.625,
      "d": 230.46875,
      "v": 127
    },
    {
      "midi": 58,
      "hit": false,
      "t": 127265.625,
      "d": 699.21875,
      "v": 127
    },
    {
      "midi": 60,
      "hit": false,
      "t": 127265.625,
      "d": 230.46875,
      "v": 127
    },
    {
      "midi": 36,
      "hit": false,
      "t": 127265.625,
      "d": 230.46875,
      "v": 127
    },
    {
      "midi": 42,
      "hit": false,
      "t": 127265.625,
      "d": 113.28125,
      "v": 127
    },
    {
      "midi": 42,
      "hit": false,
      "t": 127382.8125,
      "d": 113.28125,
      "v": 127
    },
    {
      "midi": 67,
      "hit": false,
      "t": 127500,
      "d": 464.84375,
      "v": 127
    },
    {
      "midi": 67,
      "hit": false,
      "t": 127500,
      "d": 464.84375,
      "v": 127
    },
    {
      "midi": 60,
      "hit": false,
      "t": 127500,
      "d": 1871.09375,
      "v": 114
    },
    {
      "midi": 56,
      "hit": false,
      "t": 127500,
      "d": 1871.09375,
      "v": 124
    },
    {
      "midi": 32,
      "hit": false,
      "t": 127500,
      "d": 230.46875,
      "v": 127
    },
    {
      "midi": 35,
      "hit": false,
      "t": 127500,
      "d": 464.84375,
      "v": 127
    },
    {
      "midi": 42,
      "hit": false,
      "t": 127500,
      "d": 230.46875,
      "v": 127
    },
    {
      "midi": 32,
      "hit": false,
      "t": 127734.375,
      "d": 230.46875,
      "v": 127
    },
    {
      "midi": 42,
      "hit": false,
      "t": 127734.375,
      "d": 113.28125,
      "v": 127
    },
    {
      "midi": 42,
      "hit": false,
      "t": 127851.5625,
      "d": 113.28125,
      "v": 127
    },
    {
      "midi": 67,
      "hit": false,
      "t": 127968.75,
      "d": 230.46875,
      "v": 127
    },
    {
      "midi": 67,
      "hit": false,
      "t": 127968.75,
      "d": 230.46875,
      "v": 127
    },
    {
      "midi": 32,
      "hit": false,
      "t": 127968.75,
      "d": 230.46875,
      "v": 127
    },
    {
      "midi": 35,
      "hit": false,
      "t": 127968.75,
      "d": 464.84375,
      "v": 127
    },
    {
      "midi": 38,
      "hit": false,
      "t": 127968.75,
      "d": 464.84375,
      "v": 127
    },
    {
      "midi": 42,
      "hit": false,
      "t": 127968.75,
      "d": 230.46875,
      "v": 127
    },
    {
      "midi": 65,
      "hit": false,
      "t": 128203.125,
      "d": 699.21875,
      "v": 127
    },
    {
      "midi": 67,
      "hit": false,
      "t": 128203.125,
      "d": 230.46875,
      "v": 127
    },
    {
      "midi": 65,
      "hit": false,
      "t": 128203.125,
      "d": 699.21875,
      "v": 127
    },
    {
      "midi": 32,
      "hit": false,
      "t": 128203.125,
      "d": 230.46875,
      "v": 127
    },
    {
      "midi": 42,
      "hit": false,
      "t": 128203.125,
      "d": 113.28125,
      "v": 127
    },
    {
      "midi": 42,
      "hit": false,
      "t": 128320.3125,
      "d": 113.28125,
      "v": 127
    },
    {
      "midi": 68,
      "hit": false,
      "t": 128437.5,
      "d": 230.46875,
      "v": 127
    },
    {
      "midi": 32,
      "hit": false,
      "t": 128437.5,
      "d": 230.46875,
      "v": 127
    },
    {
      "midi": 35,
      "hit": false,
      "t": 128437.5,
      "d": 464.84375,
      "v": 127
    },
    {
      "midi": 42,
      "hit": false,
      "t": 128437.5,
      "d": 230.46875,
      "v": 127
    },
    {
      "midi": 67,
      "hit": false,
      "t": 128671.875,
      "d": 230.46875,
      "v": 127
    },
    {
      "midi": 32,
      "hit": false,
      "t": 128671.875,
      "d": 230.46875,
      "v": 127
    },
    {
      "midi": 42,
      "hit": false,
      "t": 128671.875,
      "d": 113.28125,
      "v": 127
    },
    {
      "midi": 42,
      "hit": false,
      "t": 128789.0625,
      "d": 113.28125,
      "v": 127
    },
    {
      "midi": 60,
      "hit": false,
      "t": 128906.25,
      "d": 464.84375,
      "v": 127
    },
    {
      "midi": 63,
      "hit": false,
      "t": 128906.25,
      "d": 230.46875,
      "v": 127
    },
    {
      "midi": 60,
      "hit": false,
      "t": 128906.25,
      "d": 464.84375,
      "v": 127
    },
    {
      "midi": 32,
      "hit": false,
      "t": 128906.25,
      "d": 230.46875,
      "v": 127
    },
    {
      "midi": 35,
      "hit": false,
      "t": 128906.25,
      "d": 464.84375,
      "v": 127
    },
    {
      "midi": 38,
      "hit": false,
      "t": 128906.25,
      "d": 464.84375,
      "v": 127
    },
    {
      "midi": 42,
      "hit": false,
      "t": 128906.25,
      "d": 230.46875,
      "v": 127
    },
    {
      "midi": 60,
      "hit": false,
      "t": 129140.625,
      "d": 230.46875,
      "v": 127
    },
    {
      "midi": 32,
      "hit": false,
      "t": 129140.625,
      "d": 230.46875,
      "v": 127
    },
    {
      "midi": 42,
      "hit": false,
      "t": 129140.625,
      "d": 113.28125,
      "v": 127
    },
    {
      "midi": 42,
      "hit": false,
      "t": 129257.8125,
      "d": 113.28125,
      "v": 127
    },
    {
      "midi": 68,
      "hit": false,
      "t": 129375,
      "d": 464.84375,
      "v": 127
    },
    {
      "midi": 68,
      "hit": false,
      "t": 129375,
      "d": 464.84375,
      "v": 127
    },
    {
      "midi": 62,
      "hit": false,
      "t": 129375,
      "d": 1871.09375,
      "v": 114
    },
    {
      "midi": 58,
      "hit": false,
      "t": 129375,
      "d": 1871.09375,
      "v": 124
    },
    {
      "midi": 34,
      "hit": false,
      "t": 129375,
      "d": 230.46875,
      "v": 127
    },
    {
      "midi": 35,
      "hit": false,
      "t": 129375,
      "d": 464.84375,
      "v": 127
    },
    {
      "midi": 42,
      "hit": false,
      "t": 129375,
      "d": 230.46875,
      "v": 127
    },
    {
      "midi": 34,
      "hit": false,
      "t": 129609.375,
      "d": 230.46875,
      "v": 127
    },
    {
      "midi": 42,
      "hit": false,
      "t": 129609.375,
      "d": 113.28125,
      "v": 127
    },
    {
      "midi": 42,
      "hit": false,
      "t": 129726.5625,
      "d": 113.28125,
      "v": 127
    },
    {
      "midi": 68,
      "hit": false,
      "t": 129843.75,
      "d": 230.46875,
      "v": 127
    },
    {
      "midi": 68,
      "hit": false,
      "t": 129843.75,
      "d": 230.46875,
      "v": 127
    },
    {
      "midi": 34,
      "hit": false,
      "t": 129843.75,
      "d": 230.46875,
      "v": 127
    },
    {
      "midi": 35,
      "hit": false,
      "t": 129843.75,
      "d": 464.84375,
      "v": 127
    },
    {
      "midi": 38,
      "hit": false,
      "t": 129843.75,
      "d": 464.84375,
      "v": 127
    },
    {
      "midi": 42,
      "hit": false,
      "t": 129843.75,
      "d": 230.46875,
      "v": 127
    },
    {
      "midi": 67,
      "hit": false,
      "t": 130078.125,
      "d": 464.84375,
      "v": 127
    },
    {
      "midi": 67,
      "hit": false,
      "t": 130078.125,
      "d": 464.84375,
      "v": 127
    },
    {
      "midi": 34,
      "hit": false,
      "t": 130078.125,
      "d": 230.46875,
      "v": 127
    },
    {
      "midi": 42,
      "hit": false,
      "t": 130078.125,
      "d": 113.28125,
      "v": 127
    },
    {
      "midi": 42,
      "hit": false,
      "t": 130195.3125,
      "d": 113.28125,
      "v": 127
    },
    {
      "midi": 34,
      "hit": false,
      "t": 130312.5,
      "d": 230.46875,
      "v": 127
    },
    {
      "midi": 35,
      "hit": false,
      "t": 130312.5,
      "d": 464.84375,
      "v": 127
    },
    {
      "midi": 42,
      "hit": false,
      "t": 130312.5,
      "d": 230.46875,
      "v": 127
    },
    {
      "midi": 63,
      "hit": false,
      "t": 130546.875,
      "d": 230.46875,
      "v": 127
    },
    {
      "midi": 63,
      "hit": false,
      "t": 130546.875,
      "d": 230.46875,
      "v": 127
    },
    {
      "midi": 34,
      "hit": false,
      "t": 130546.875,
      "d": 230.46875,
      "v": 127
    },
    {
      "midi": 42,
      "hit": false,
      "t": 130546.875,
      "d": 113.28125,
      "v": 127
    },
    {
      "midi": 42,
      "hit": false,
      "t": 130664.0625,
      "d": 113.28125,
      "v": 127
    },
    {
      "midi": 65,
      "hit": false,
      "t": 130781.25,
      "d": 464.84375,
      "v": 127
    },
    {
      "midi": 65,
      "hit": false,
      "t": 130781.25,
      "d": 464.84375,
      "v": 127
    },
    {
      "midi": 34,
      "hit": false,
      "t": 130781.25,
      "d": 230.46875,
      "v": 127
    },
    {
      "midi": 35,
      "hit": false,
      "t": 130781.25,
      "d": 464.84375,
      "v": 127
    },
    {
      "midi": 38,
      "hit": false,
      "t": 130781.25,
      "d": 464.84375,
      "v": 127
    },
    {
      "midi": 42,
      "hit": false,
      "t": 130781.25,
      "d": 230.46875,
      "v": 127
    },
    {
      "midi": 34,
      "hit": false,
      "t": 131015.625,
      "d": 230.46875,
      "v": 127
    },
    {
      "midi": 42,
      "hit": false,
      "t": 131015.625,
      "d": 113.28125,
      "v": 127
    },
    {
      "midi": 42,
      "hit": false,
      "t": 131132.8125,
      "d": 113.28125,
      "v": 127
    },
    {
      "midi": 63,
      "hit": false,
      "t": 131250,
      "d": 1402.34375,
      "v": 127
    },
    {
      "midi": 63,
      "hit": false,
      "t": 131250,
      "d": 1402.34375,
      "v": 127
    },
    {
      "midi": 63,
      "hit": false,
      "t": 131250,
      "d": 1871.09375,
      "v": 114
    },
    {
      "midi": 27,
      "hit": false,
      "t": 131250,
      "d": 230.46875,
      "v": 127
    },
    {
      "midi": 35,
      "hit": false,
      "t": 131250,
      "d": 464.84375,
      "v": 127
    },
    {
      "midi": 42,
      "hit": false,
      "t": 131250,
      "d": 230.46875,
      "v": 127
    },
    {
      "midi": 66,
      "hit": false,
      "t": 131484.375,
      "d": 113.28125,
      "v": 127
    },
    {
      "midi": 66,
      "hit": false,
      "t": 131484.375,
      "d": 113.28125,
      "v": 124
    },
    {
      "midi": 27,
      "hit": false,
      "t": 131484.375,
      "d": 230.46875,
      "v": 127
    },
    {
      "midi": 42,
      "hit": false,
      "t": 131484.375,
      "d": 113.28125,
      "v": 127
    },
    {
      "midi": 66,
      "hit": false,
      "t": 131601.5625,
      "d": 113.28125,
      "v": 127
    },
    {
      "midi": 66,
      "hit": false,
      "t": 131601.5625,
      "d": 113.28125,
      "v": 124
    },
    {
      "midi": 42,
      "hit": false,
      "t": 131601.5625,
      "d": 113.28125,
      "v": 127
    },
    {
      "midi": 72,
      "hit": false,
      "t": 131718.75,
      "d": 230.46875,
      "v": 127
    },
    {
      "midi": 72,
      "hit": false,
      "t": 131718.75,
      "d": 230.46875,
      "v": 124
    },
    {
      "midi": 27,
      "hit": false,
      "t": 131718.75,
      "d": 230.46875,
      "v": 127
    },
    {
      "midi": 35,
      "hit": false,
      "t": 131718.75,
      "d": 464.84375,
      "v": 127
    },
    {
      "midi": 38,
      "hit": false,
      "t": 131718.75,
      "d": 464.84375,
      "v": 127
    },
    {
      "midi": 42,
      "hit": false,
      "t": 131718.75,
      "d": 230.46875,
      "v": 127
    },
    {
      "midi": 75,
      "hit": false,
      "t": 131953.125,
      "d": 230.46875,
      "v": 127
    },
    {
      "midi": 75,
      "hit": false,
      "t": 131953.125,
      "d": 230.46875,
      "v": 124
    },
    {
      "midi": 27,
      "hit": false,
      "t": 131953.125,
      "d": 230.46875,
      "v": 127
    },
    {
      "midi": 42,
      "hit": false,
      "t": 131953.125,
      "d": 113.28125,
      "v": 127
    },
    {
      "midi": 42,
      "hit": false,
      "t": 132070.3125,
      "d": 113.28125,
      "v": 127
    },
    {
      "midi": 77,
      "hit": false,
      "t": 132187.5,
      "d": 230.46875,
      "v": 127
    },
    {
      "midi": 77,
      "hit": false,
      "t": 132187.5,
      "d": 230.46875,
      "v": 124
    },
    {
      "midi": 27,
      "hit": false,
      "t": 132187.5,
      "d": 230.46875,
      "v": 127
    },
    {
      "midi": 35,
      "hit": false,
      "t": 132187.5,
      "d": 464.84375,
      "v": 127
    },
    {
      "midi": 42,
      "hit": false,
      "t": 132187.5,
      "d": 230.46875,
      "v": 127
    },
    {
      "midi": 75,
      "hit": false,
      "t": 132421.875,
      "d": 230.46875,
      "v": 127
    },
    {
      "midi": 75,
      "hit": false,
      "t": 132421.875,
      "d": 230.46875,
      "v": 124
    },
    {
      "midi": 27,
      "hit": false,
      "t": 132421.875,
      "d": 230.46875,
      "v": 127
    },
    {
      "midi": 42,
      "hit": false,
      "t": 132421.875,
      "d": 113.28125,
      "v": 127
    },
    {
      "midi": 42,
      "hit": false,
      "t": 132539.0625,
      "d": 113.28125,
      "v": 127
    },
    {
      "midi": 77,
      "hit": false,
      "t": 132656.25,
      "d": 230.46875,
      "v": 127
    },
    {
      "midi": 77,
      "hit": false,
      "t": 132656.25,
      "d": 230.46875,
      "v": 124
    },
    {
      "midi": 27,
      "hit": false,
      "t": 132656.25,
      "d": 230.46875,
      "v": 127
    },
    {
      "midi": 35,
      "hit": false,
      "t": 132656.25,
      "d": 464.84375,
      "v": 127
    },
    {
      "midi": 38,
      "hit": false,
      "t": 132656.25,
      "d": 464.84375,
      "v": 127
    },
    {
      "midi": 42,
      "hit": false,
      "t": 132656.25,
      "d": 230.46875,
      "v": 127
    },
    {
      "midi": 80,
      "hit": false,
      "t": 132890.625,
      "d": 230.46875,
      "v": 127
    },
    {
      "midi": 80,
      "hit": false,
      "t": 132890.625,
      "d": 230.46875,
      "v": 124
    },
    {
      "midi": 27,
      "hit": false,
      "t": 132890.625,
      "d": 230.46875,
      "v": 127
    },
    {
      "midi": 42,
      "hit": false,
      "t": 132890.625,
      "d": 113.28125,
      "v": 127
    },
    {
      "midi": 42,
      "hit": false,
      "t": 133007.8125,
      "d": 113.28125,
      "v": 127
    },
    {
      "midi": 79,
      "hit": false,
      "t": 133125,
      "d": 230.46875,
      "v": 127
    },
    {
      "midi": 63,
      "hit": false,
      "t": 133125,
      "d": 1871.09375,
      "v": 114
    },
    {
      "midi": 79,
      "hit": false,
      "t": 133125,
      "d": 230.46875,
      "v": 124
    },
    {
      "midi": 31,
      "hit": false,
      "t": 133125,
      "d": 230.46875,
      "v": 127
    },
    {
      "midi": 35,
      "hit": false,
      "t": 133125,
      "d": 230.46875,
      "v": 127
    },
    {
      "midi": 38,
      "hit": false,
      "t": 133125,
      "d": 230.46875,
      "v": 127
    },
    {
      "midi": 42,
      "hit": false,
      "t": 133125,
      "d": 230.46875,
      "v": 127
    },
    {
      "midi": 79,
      "hit": false,
      "t": 133359.375,
      "d": 230.46875,
      "v": 127
    },
    {
      "midi": 79,
      "hit": false,
      "t": 133359.375,
      "d": 230.46875,
      "v": 124
    },
    {
      "midi": 31,
      "hit": false,
      "t": 133359.375,
      "d": 230.46875,
      "v": 127
    },
    {
      "midi": 35,
      "hit": false,
      "t": 133359.375,
      "d": 230.46875,
      "v": 127
    },
    {
      "midi": 38,
      "hit": false,
      "t": 133359.375,
      "d": 230.46875,
      "v": 127
    },
    {
      "midi": 42,
      "hit": false,
      "t": 133359.375,
      "d": 230.46875,
      "v": 127
    },
    {
      "midi": 79,
      "hit": false,
      "t": 133593.75,
      "d": 464.84375,
      "v": 127
    },
    {
      "midi": 79,
      "hit": false,
      "t": 133593.75,
      "d": 464.84375,
      "v": 124
    },
    {
      "midi": 31,
      "hit": false,
      "t": 133593.75,
      "d": 230.46875,
      "v": 127
    },
    {
      "midi": 35,
      "hit": false,
      "t": 133593.75,
      "d": 464.84375,
      "v": 127
    },
    {
      "midi": 38,
      "hit": false,
      "t": 133593.75,
      "d": 230.46875,
      "v": 127
    },
    {
      "midi": 42,
      "hit": false,
      "t": 133593.75,
      "d": 230.46875,
      "v": 127
    },
    {
      "midi": 38,
      "hit": false,
      "t": 133828.125,
      "d": 230.46875,
      "v": 127
    },
    {
      "midi": 63,
      "hit": false,
      "t": 134062.5,
      "d": 464.84375,
      "v": 127
    },
    {
      "midi": 35,
      "hit": false,
      "t": 134062.5,
      "d": 464.84375,
      "v": 127
    },
    {
      "midi": 38,
      "hit": false,
      "t": 134296.875,
      "d": 230.46875,
      "v": 127
    },
    {
      "midi": 65,
      "hit": false,
      "t": 134531.25,
      "d": 464.84375,
      "v": 127
    },
    {
      "midi": 35,
      "hit": false,
      "t": 134531.25,
      "d": 464.84375,
      "v": 127
    },
    {
      "midi": 38,
      "hit": false,
      "t": 134531.25,
      "d": 230.46875,
      "v": 127
    },
    {
      "midi": 38,
      "hit": false,
      "t": 134765.625,
      "d": 230.46875,
      "v": 127
    },
    {
      "midi": 67,
      "hit": false,
      "t": 135000,
      "d": 464.84375,
      "v": 127
    },
    {
      "midi": 74,
      "hit": false,
      "t": 135000,
      "d": 933.59375,
      "v": 127
    },
    {
      "midi": 67,
      "hit": false,
      "t": 135000,
      "d": 1871.09375,
      "v": 127
    },
    {
      "midi": 62,
      "hit": false,
      "t": 135000,
      "d": 1871.09375,
      "v": 114
    },
    {
      "midi": 38,
      "hit": false,
      "t": 135000,
      "d": 699.21875,
      "v": 127
    },
    {
      "midi": 35,
      "hit": false,
      "t": 135000,
      "d": 464.84375,
      "v": 127
    },
    {
      "midi": 42,
      "hit": false,
      "t": 135000,
      "d": 464.84375,
      "v": 127
    },
    {
      "midi": 62,
      "hit": false,
      "t": 135468.75,
      "d": 464.84375,
      "v": 127
    },
    {
      "midi": 35,
      "hit": false,
      "t": 135468.75,
      "d": 230.46875,
      "v": 127
    },
    {
      "midi": 42,
      "hit": false,
      "t": 135468.75,
      "d": 230.46875,
      "v": 127
    },
    {
      "midi": 38,
      "hit": false,
      "t": 135703.125,
      "d": 230.46875,
      "v": 127
    },
    {
      "midi": 35,
      "hit": false,
      "t": 135703.125,
      "d": 464.84375,
      "v": 127
    },
    {
      "midi": 42,
      "hit": false,
      "t": 135703.125,
      "d": 464.84375,
      "v": 127
    },
    {
      "midi": 62,
      "hit": false,
      "t": 135937.5,
      "d": 464.84375,
      "v": 127
    },
    {
      "midi": 67,
      "hit": false,
      "t": 135937.5,
      "d": 933.59375,
      "v": 127
    },
    {
      "midi": 38,
      "hit": false,
      "t": 135937.5,
      "d": 933.59375,
      "v": 127
    },
    {
      "midi": 65,
      "hit": false,
      "t": 136406.25,
      "d": 464.84375,
      "v": 127
    },
    {
      "midi": 35,
      "hit": false,
      "t": 136406.25,
      "d": 464.84375,
      "v": 127
    },
    {
      "midi": 38,
      "hit": false,
      "t": 136406.25,
      "d": 464.84375,
      "v": 127
    },
    {
      "midi": 63,
      "hit": false,
      "t": 136875,
      "d": 230.46875,
      "v": 127
    },
    {
      "midi": 72,
      "hit": false,
      "t": 136875,
      "d": 933.59375,
      "v": 127
    },
    {
      "midi": 67,
      "hit": false,
      "t": 136875,
      "d": 933.59375,
      "v": 127
    },
    {
      "midi": 63,
      "hit": false,
      "t": 136875,
      "d": 1871.09375,
      "v": 114
    },
    {
      "midi": 36,
      "hit": false,
      "t": 136875,
      "d": 699.21875,
      "v": 127
    },
    {
      "midi": 35,
      "hit": false,
      "t": 136875,
      "d": 464.84375,
      "v": 127
    },
    {
      "midi": 42,
      "hit": false,
      "t": 136875,
      "d": 464.84375,
      "v": 127
    },
    {
      "midi": 65,
      "hit": false,
      "t": 137109.375,
      "d": 230.46875,
      "v": 127
    },
    {
      "midi": 63,
      "hit": false,
      "t": 137343.75,
      "d": 230.46875,
      "v": 127
    },
    {
      "midi": 35,
      "hit": false,
      "t": 137343.75,
      "d": 230.46875,
      "v": 127
    },
    {
      "midi": 42,
      "hit": false,
      "t": 137343.75,
      "d": 230.46875,
      "v": 127
    },
    {
      "midi": 62,
      "hit": false,
      "t": 137578.125,
      "d": 230.46875,
      "v": 127
    },
    {
      "midi": 36,
      "hit": false,
      "t": 137578.125,
      "d": 230.46875,
      "v": 127
    },
    {
      "midi": 35,
      "hit": false,
      "t": 137578.125,
      "d": 464.84375,
      "v": 127
    },
    {
      "midi": 42,
      "hit": false,
      "t": 137578.125,
      "d": 464.84375,
      "v": 127
    },
    {
      "midi": 60,
      "hit": false,
      "t": 137812.5,
      "d": 464.84375,
      "v": 127
    },
    {
      "midi": 79,
      "hit": false,
      "t": 137812.5,
      "d": 933.59375,
      "v": 127
    },
    {
      "midi": 67,
      "hit": false,
      "t": 137812.5,
      "d": 933.59375,
      "v": 127
    },
    {
      "midi": 36,
      "hit": false,
      "t": 137812.5,
      "d": 933.59375,
      "v": 127
    },
    {
      "midi": 35,
      "hit": false,
      "t": 138281.25,
      "d": 464.84375,
      "v": 127
    },
    {
      "midi": 38,
      "hit": false,
      "t": 138281.25,
      "d": 464.84375,
      "v": 127
    },
    {
      "midi": 67,
      "hit": false,
      "t": 138750,
      "d": 464.84375,
      "v": 127
    },
    {
      "midi": 74,
      "hit": false,
      "t": 138750,
      "d": 933.59375,
      "v": 127
    },
    {
      "midi": 67,
      "hit": false,
      "t": 138750,
      "d": 1871.09375,
      "v": 127
    },
    {
      "midi": 62,
      "hit": false,
      "t": 138750,
      "d": 1871.09375,
      "v": 114
    },
    {
      "midi": 36,
      "hit": false,
      "t": 138750,
      "d": 699.21875,
      "v": 127
    },
    {
      "midi": 35,
      "hit": false,
      "t": 138750,
      "d": 464.84375,
      "v": 127
    },
    {
      "midi": 42,
      "hit": false,
      "t": 138750,
      "d": 464.84375,
      "v": 127
    },
    {
      "midi": 62,
      "hit": false,
      "t": 139218.75,
      "d": 464.84375,
      "v": 127
    },
    {
      "midi": 35,
      "hit": false,
      "t": 139218.75,
      "d": 230.46875,
      "v": 127
    },
    {
      "midi": 42,
      "hit": false,
      "t": 139218.75,
      "d": 230.46875,
      "v": 127
    },
    {
      "midi": 38,
      "hit": false,
      "t": 139453.125,
      "d": 230.46875,
      "v": 127
    },
    {
      "midi": 35,
      "hit": false,
      "t": 139453.125,
      "d": 464.84375,
      "v": 127
    },
    {
      "midi": 42,
      "hit": false,
      "t": 139453.125,
      "d": 464.84375,
      "v": 127
    },
    {
      "midi": 62,
      "hit": false,
      "t": 139687.5,
      "d": 464.84375,
      "v": 127
    },
    {
      "midi": 67,
      "hit": false,
      "t": 139687.5,
      "d": 933.59375,
      "v": 127
    },
    {
      "midi": 38,
      "hit": false,
      "t": 139687.5,
      "d": 933.59375,
      "v": 127
    },
    {
      "midi": 65,
      "hit": false,
      "t": 140156.25,
      "d": 464.84375,
      "v": 127
    },
    {
      "midi": 35,
      "hit": false,
      "t": 140156.25,
      "d": 464.84375,
      "v": 127
    },
    {
      "midi": 38,
      "hit": false,
      "t": 140156.25,
      "d": 464.84375,
      "v": 127
    },
    {
      "midi": 63,
      "hit": false,
      "t": 140625,
      "d": 230.46875,
      "v": 127
    },
    {
      "midi": 72,
      "hit": false,
      "t": 140625,
      "d": 933.59375,
      "v": 127
    },
    {
      "midi": 67,
      "hit": false,
      "t": 140625,
      "d": 933.59375,
      "v": 127
    },
    {
      "midi": 63,
      "hit": false,
      "t": 140625,
      "d": 1871.09375,
      "v": 114
    },
    {
      "midi": 39,
      "hit": false,
      "t": 140625,
      "d": 699.21875,
      "v": 127
    },
    {
      "midi": 35,
      "hit": false,
      "t": 140625,
      "d": 464.84375,
      "v": 127
    },
    {
      "midi": 42,
      "hit": false,
      "t": 140625,
      "d": 464.84375,
      "v": 127
    },
    {
      "midi": 62,
      "hit": false,
      "t": 140859.375,
      "d": 230.46875,
      "v": 127
    },
    {
      "midi": 63,
      "hit": false,
      "t": 141093.75,
      "d": 230.46875,
      "v": 127
    },
    {
      "midi": 35,
      "hit": false,
      "t": 141093.75,
      "d": 230.46875,
      "v": 127
    },
    {
      "midi": 42,
      "hit": false,
      "t": 141093.75,
      "d": 230.46875,
      "v": 127
    },
    {
      "midi": 65,
      "hit": false,
      "t": 141328.125,
      "d": 230.46875,
      "v": 127
    },
    {
      "midi": 39,
      "hit": false,
      "t": 141328.125,
      "d": 230.46875,
      "v": 127
    },
    {
      "midi": 35,
      "hit": false,
      "t": 141328.125,
      "d": 464.84375,
      "v": 127
    },
    {
      "midi": 42,
      "hit": false,
      "t": 141328.125,
      "d": 464.84375,
      "v": 127
    },
    {
      "midi": 67,
      "hit": false,
      "t": 141562.5,
      "d": 464.84375,
      "v": 127
    },
    {
      "midi": 72,
      "hit": false,
      "t": 141562.5,
      "d": 933.59375,
      "v": 127
    },
    {
      "midi": 67,
      "hit": false,
      "t": 141562.5,
      "d": 933.59375,
      "v": 127
    },
    {
      "midi": 39,
      "hit": false,
      "t": 141562.5,
      "d": 933.59375,
      "v": 127
    },
    {
      "midi": 35,
      "hit": false,
      "t": 142031.25,
      "d": 464.84375,
      "v": 127
    },
    {
      "midi": 38,
      "hit": false,
      "t": 142031.25,
      "d": 464.84375,
      "v": 127
    },
    {
      "midi": 65,
      "hit": false,
      "t": 142500,
      "d": 464.84375,
      "v": 127
    },
    {
      "midi": 77,
      "hit": false,
      "t": 142500,
      "d": 933.59375,
      "v": 127
    },
    {
      "midi": 65,
      "hit": false,
      "t": 142500,
      "d": 3746.09375,
      "v": 127
    },
    {
      "midi": 62,
      "hit": false,
      "t": 142500,
      "d": 3746.09375,
      "v": 114
    },
    {
      "midi": 41,
      "hit": false,
      "t": 142500,
      "d": 699.21875,
      "v": 127
    },
    {
      "midi": 35,
      "hit": false,
      "t": 142500,
      "d": 464.84375,
      "v": 127
    },
    {
      "midi": 42,
      "hit": false,
      "t": 142500,
      "d": 464.84375,
      "v": 127
    },
    {
      "midi": 65,
      "hit": false,
      "t": 142968.75,
      "d": 464.84375,
      "v": 127
    },
    {
      "midi": 35,
      "hit": false,
      "t": 142968.75,
      "d": 230.46875,
      "v": 127
    },
    {
      "midi": 42,
      "hit": false,
      "t": 142968.75,
      "d": 230.46875,
      "v": 127
    },
    {
      "midi": 41,
      "hit": false,
      "t": 143203.125,
      "d": 230.46875,
      "v": 127
    },
    {
      "midi": 35,
      "hit": false,
      "t": 143203.125,
      "d": 464.84375,
      "v": 127
    },
    {
      "midi": 42,
      "hit": false,
      "t": 143203.125,
      "d": 464.84375,
      "v": 127
    },
    {
      "midi": 65,
      "hit": false,
      "t": 143437.5,
      "d": 464.84375,
      "v": 127
    },
    {
      "midi": 77,
      "hit": false,
      "t": 143437.5,
      "d": 933.59375,
      "v": 127
    },
    {
      "midi": 39,
      "hit": false,
      "t": 143437.5,
      "d": 933.59375,
      "v": 127
    },
    {
      "midi": 65,
      "hit": false,
      "t": 143906.25,
      "d": 464.84375,
      "v": 127
    },
    {
      "midi": 35,
      "hit": false,
      "t": 143906.25,
      "d": 464.84375,
      "v": 127
    },
    {
      "midi": 38,
      "hit": false,
      "t": 143906.25,
      "d": 464.84375,
      "v": 127
    },
    {
      "midi": 65,
      "hit": false,
      "t": 144375,
      "d": 230.46875,
      "v": 127
    },
    {
      "midi": 72,
      "hit": false,
      "t": 144375,
      "d": 699.21875,
      "v": 127
    },
    {
      "midi": 38,
      "hit": false,
      "t": 144375,
      "d": 699.21875,
      "v": 127
    },
    {
      "midi": 35,
      "hit": false,
      "t": 144375,
      "d": 464.84375,
      "v": 127
    },
    {
      "midi": 42,
      "hit": false,
      "t": 144375,
      "d": 464.84375,
      "v": 127
    },
    {
      "midi": 67,
      "hit": false,
      "t": 144609.375,
      "d": 230.46875,
      "v": 127
    },
    {
      "midi": 65,
      "hit": false,
      "t": 144843.75,
      "d": 230.46875,
      "v": 127
    },
    {
      "midi": 35,
      "hit": false,
      "t": 144843.75,
      "d": 230.46875,
      "v": 127
    },
    {
      "midi": 42,
      "hit": false,
      "t": 144843.75,
      "d": 230.46875,
      "v": 127
    },
    {
      "midi": 63,
      "hit": false,
      "t": 145078.125,
      "d": 230.46875,
      "v": 127
    },
    {
      "midi": 77,
      "hit": false,
      "t": 145078.125,
      "d": 699.21875,
      "v": 127
    },
    {
      "midi": 38,
      "hit": false,
      "t": 145078.125,
      "d": 230.46875,
      "v": 127
    },
    {
      "midi": 35,
      "hit": false,
      "t": 145078.125,
      "d": 464.84375,
      "v": 127
    },
    {
      "midi": 42,
      "hit": false,
      "t": 145078.125,
      "d": 464.84375,
      "v": 127
    },
    {
      "midi": 62,
      "hit": false,
      "t": 145312.5,
      "d": 933.59375,
      "v": 127
    },
    {
      "midi": 39,
      "hit": false,
      "t": 145312.5,
      "d": 933.59375,
      "v": 127
    },
    {
      "midi": 75,
      "hit": false,
      "t": 145781.25,
      "d": 464.84375,
      "v": 127
    },
    {
      "midi": 35,
      "hit": false,
      "t": 145781.25,
      "d": 464.84375,
      "v": 127
    },
    {
      "midi": 38,
      "hit": false,
      "t": 145781.25,
      "d": 464.84375,
      "v": 127
    },
    {
      "midi": 60,
      "hit": false,
      "t": 146250,
      "d": 464.84375,
      "v": 127
    },
    {
      "midi": 74,
      "hit": false,
      "t": 146250,
      "d": 933.59375,
      "v": 127
    },
    {
      "midi": 68,
      "hit": false,
      "t": 146250,
      "d": 1871.09375,
      "v": 127
    },
    {
      "midi": 63,
      "hit": false,
      "t": 146250,
      "d": 1871.09375,
      "v": 114
    },
    {
      "midi": 41,
      "hit": false,
      "t": 146250,
      "d": 699.21875,
      "v": 127
    },
    {
      "midi": 35,
      "hit": false,
      "t": 146250,
      "d": 464.84375,
      "v": 127
    },
    {
      "midi": 42,
      "hit": false,
      "t": 146250,
      "d": 464.84375,
      "v": 127
    },
    {
      "midi": 62,
      "hit": false,
      "t": 146718.75,
      "d": 464.84375,
      "v": 127
    },
    {
      "midi": 35,
      "hit": false,
      "t": 146718.75,
      "d": 230.46875,
      "v": 127
    },
    {
      "midi": 42,
      "hit": false,
      "t": 146718.75,
      "d": 230.46875,
      "v": 127
    },
    {
      "midi": 41,
      "hit": false,
      "t": 146953.125,
      "d": 230.46875,
      "v": 127
    },
    {
      "midi": 35,
      "hit": false,
      "t": 146953.125,
      "d": 464.84375,
      "v": 127
    },
    {
      "midi": 42,
      "hit": false,
      "t": 146953.125,
      "d": 464.84375,
      "v": 127
    },
    {
      "midi": 63,
      "hit": false,
      "t": 147187.5,
      "d": 464.84375,
      "v": 127
    },
    {
      "midi": 72,
      "hit": false,
      "t": 147187.5,
      "d": 933.59375,
      "v": 127
    },
    {
      "midi": 39,
      "hit": false,
      "t": 147187.5,
      "d": 933.59375,
      "v": 127
    },
    {
      "midi": 67,
      "hit": false,
      "t": 147656.25,
      "d": 464.84375,
      "v": 127
    },
    {
      "midi": 35,
      "hit": false,
      "t": 147656.25,
      "d": 464.84375,
      "v": 127
    },
    {
      "midi": 38,
      "hit": false,
      "t": 147656.25,
      "d": 464.84375,
      "v": 127
    },
    {
      "midi": 65,
      "hit": false,
      "t": 148125,
      "d": 933.59375,
      "v": 127
    },
    {
      "midi": 65,
      "hit": false,
      "t": 148125,
      "d": 1402.34375,
      "v": 127
    },
    {
      "midi": 70,
      "hit": false,
      "t": 148125,
      "d": 1871.09375,
      "v": 127
    },
    {
      "midi": 65,
      "hit": false,
      "t": 148125,
      "d": 1871.09375,
      "v": 114
    },
    {
      "midi": 29,
      "hit": false,
      "t": 148125,
      "d": 230.46875,
      "v": 127
    },
    {
      "midi": 35,
      "hit": false,
      "t": 148125,
      "d": 464.84375,
      "v": 127
    },
    {
      "midi": 38,
      "hit": false,
      "t": 148125,
      "d": 230.46875,
      "v": 127
    },
    {
      "midi": 29,
      "hit": false,
      "t": 148359.375,
      "d": 230.46875,
      "v": 127
    },
    {
      "midi": 38,
      "hit": false,
      "t": 148359.375,
      "d": 230.46875,
      "v": 127
    },
    {
      "midi": 29,
      "hit": false,
      "t": 148593.75,
      "d": 230.46875,
      "v": 127
    },
    {
      "midi": 35,
      "hit": false,
      "t": 148593.75,
      "d": 464.84375,
      "v": 127
    },
    {
      "midi": 38,
      "hit": false,
      "t": 148593.75,
      "d": 230.46875,
      "v": 127
    },
    {
      "midi": 29,
      "hit": false,
      "t": 148828.125,
      "d": 230.46875,
      "v": 127
    },
    {
      "midi": 23,
      "hit": false,
      "t": 148828.125,
      "d": 230.46875,
      "v": 127
    },
    {
      "midi": 63,
      "hit": false,
      "t": 149062.5,
      "d": 464.84375,
      "v": 127
    },
    {
      "midi": 29,
      "hit": false,
      "t": 149062.5,
      "d": 230.46875,
      "v": 127
    },
    {
      "midi": 35,
      "hit": false,
      "t": 149062.5,
      "d": 464.84375,
      "v": 127
    },
    {
      "midi": 38,
      "hit": false,
      "t": 149062.5,
      "d": 230.46875,
      "v": 127
    },
    {
      "midi": 29,
      "hit": false,
      "t": 149296.875,
      "d": 230.46875,
      "v": 127
    },
    {
      "midi": 23,
      "hit": false,
      "t": 149296.875,
      "d": 230.46875,
      "v": 127
    },
    {
      "midi": 65,
      "hit": false,
      "t": 149531.25,
      "d": 464.84375,
      "v": 127
    },
    {
      "midi": 29,
      "hit": false,
      "t": 149531.25,
      "d": 230.46875,
      "v": 127
    },
    {
      "midi": 35,
      "hit": false,
      "t": 149531.25,
      "d": 464.84375,
      "v": 127
    },
    {
      "midi": 38,
      "hit": false,
      "t": 149531.25,
      "d": 230.46875,
      "v": 127
    },
    {
      "midi": 29,
      "hit": false,
      "t": 149765.625,
      "d": 230.46875,
      "v": 127
    },
    {
      "midi": 23,
      "hit": false,
      "t": 149765.625,
      "d": 230.46875,
      "v": 127
    },
    {
      "midi": 67,
      "hit": false,
      "t": 150000,
      "d": 699.21875,
      "v": 127
    },
    {
      "midi": 63,
      "hit": false,
      "t": 150000,
      "d": 3746.09375,
      "v": 127
    },
    {
      "midi": 82,
      "hit": false,
      "t": 150000,
      "d": 230.46875,
      "v": 114
    },
    {
      "midi": 75,
      "hit": false,
      "t": 150000,
      "d": 230.46875,
      "v": 124
    },
    {
      "midi": 27,
      "hit": false,
      "t": 150000,
      "d": 230.46875,
      "v": 127
    },
    {
      "midi": 35,
      "hit": false,
      "t": 150000,
      "d": 464.84375,
      "v": 127
    },
    {
      "midi": 42,
      "hit": false,
      "t": 150000,
      "d": 230.46875,
      "v": 127
    },
    {
      "midi": 82,
      "hit": false,
      "t": 150234.375,
      "d": 230.46875,
      "v": 114
    },
    {
      "midi": 75,
      "hit": false,
      "t": 150234.375,
      "d": 230.46875,
      "v": 124
    },
    {
      "midi": 27,
      "hit": false,
      "t": 150234.375,
      "d": 230.46875,
      "v": 127
    },
    {
      "midi": 42,
      "hit": false,
      "t": 150234.375,
      "d": 113.28125,
      "v": 127
    },
    {
      "midi": 42,
      "hit": false,
      "t": 150351.5625,
      "d": 113.28125,
      "v": 127
    },
    {
      "midi": 82,
      "hit": false,
      "t": 150468.75,
      "d": 230.46875,
      "v": 114
    },
    {
      "midi": 75,
      "hit": false,
      "t": 150468.75,
      "d": 230.46875,
      "v": 124
    },
    {
      "midi": 27,
      "hit": false,
      "t": 150468.75,
      "d": 230.46875,
      "v": 127
    },
    {
      "midi": 35,
      "hit": false,
      "t": 150468.75,
      "d": 464.84375,
      "v": 127
    },
    {
      "midi": 38,
      "hit": false,
      "t": 150468.75,
      "d": 464.84375,
      "v": 127
    },
    {
      "midi": 42,
      "hit": false,
      "t": 150468.75,
      "d": 230.46875,
      "v": 127
    },
    {
      "midi": 63,
      "hit": false,
      "t": 150703.125,
      "d": 230.46875,
      "v": 127
    },
    {
      "midi": 79,
      "hit": false,
      "t": 150703.125,
      "d": 230.46875,
      "v": 114
    },
    {
      "midi": 75,
      "hit": false,
      "t": 150703.125,
      "d": 230.46875,
      "v": 124
    },
    {
      "midi": 27,
      "hit": false,
      "t": 150703.125,
      "d": 230.46875,
      "v": 127
    },
    {
      "midi": 42,
      "hit": false,
      "t": 150703.125,
      "d": 113.28125,
      "v": 127
    },
    {
      "midi": 42,
      "hit": false,
      "t": 150820.3125,
      "d": 113.28125,
      "v": 127
    },
    {
      "midi": 70,
      "hit": false,
      "t": 150937.5,
      "d": 933.59375,
      "v": 127
    },
    {
      "midi": 82,
      "hit": false,
      "t": 150937.5,
      "d": 699.21875,
      "v": 114
    },
    {
      "midi": 75,
      "hit": false,
      "t": 150937.5,
      "d": 699.21875,
      "v": 124
    },
    {
      "midi": 27,
      "hit": false,
      "t": 150937.5,
      "d": 230.46875,
      "v": 127
    },
    {
      "midi": 35,
      "hit": false,
      "t": 150937.5,
      "d": 464.84375,
      "v": 127
    },
    {
      "midi": 42,
      "hit": false,
      "t": 150937.5,
      "d": 230.46875,
      "v": 127
    },
    {
      "midi": 27,
      "hit": false,
      "t": 151171.875,
      "d": 230.46875,
      "v": 127
    },
    {
      "midi": 42,
      "hit": false,
      "t": 151171.875,
      "d": 113.28125,
      "v": 127
    },
    {
      "midi": 42,
      "hit": false,
      "t": 151289.0625,
      "d": 113.28125,
      "v": 127
    },
    {
      "midi": 27,
      "hit": false,
      "t": 151406.25,
      "d": 230.46875,
      "v": 127
    },
    {
      "midi": 35,
      "hit": false,
      "t": 151406.25,
      "d": 464.84375,
      "v": 127
    },
    {
      "midi": 38,
      "hit": false,
      "t": 151406.25,
      "d": 464.84375,
      "v": 127
    },
    {
      "midi": 42,
      "hit": false,
      "t": 151406.25,
      "d": 230.46875,
      "v": 127
    },
    {
      "midi": 27,
      "hit": false,
      "t": 151640.625,
      "d": 230.46875,
      "v": 127
    },
    {
      "midi": 42,
      "hit": false,
      "t": 151640.625,
      "d": 113.28125,
      "v": 127
    },
    {
      "midi": 42,
      "hit": false,
      "t": 151757.8125,
      "d": 113.28125,
      "v": 127
    },
    {
      "midi": 70,
      "hit": false,
      "t": 151875,
      "d": 230.46875,
      "v": 127
    },
    {
      "midi": 70,
      "hit": false,
      "t": 151875,
      "d": 230.46875,
      "v": 127
    },
    {
      "midi": 79,
      "hit": false,
      "t": 151875,
      "d": 464.84375,
      "v": 114
    },
    {
      "midi": 75,
      "hit": false,
      "t": 151875,
      "d": 464.84375,
      "v": 124
    },
    {
      "midi": 27,
      "hit": false,
      "t": 151875,
      "d": 230.46875,
      "v": 127
    },
    {
      "midi": 35,
      "hit": false,
      "t": 151875,
      "d": 464.84375,
      "v": 127
    },
    {
      "midi": 42,
      "hit": false,
      "t": 151875,
      "d": 230.46875,
      "v": 127
    },
    {
      "midi": 72,
      "hit": false,
      "t": 152109.375,
      "d": 230.46875,
      "v": 127
    },
    {
      "midi": 72,
      "hit": false,
      "t": 152109.375,
      "d": 230.46875,
      "v": 127
    },
    {
      "midi": 27,
      "hit": false,
      "t": 152109.375,
      "d": 230.46875,
      "v": 127
    },
    {
      "midi": 42,
      "hit": false,
      "t": 152109.375,
      "d": 113.28125,
      "v": 127
    },
    {
      "midi": 42,
      "hit": false,
      "t": 152226.5625,
      "d": 113.28125,
      "v": 127
    },
    {
      "midi": 70,
      "hit": false,
      "t": 152343.75,
      "d": 230.46875,
      "v": 127
    },
    {
      "midi": 70,
      "hit": false,
      "t": 152343.75,
      "d": 230.46875,
      "v": 127
    },
    {
      "midi": 79,
      "hit": false,
      "t": 152343.75,
      "d": 464.84375,
      "v": 114
    },
    {
      "midi": 75,
      "hit": false,
      "t": 152343.75,
      "d": 464.84375,
      "v": 124
    },
    {
      "midi": 27,
      "hit": false,
      "t": 152343.75,
      "d": 230.46875,
      "v": 127
    },
    {
      "midi": 35,
      "hit": false,
      "t": 152343.75,
      "d": 464.84375,
      "v": 127
    },
    {
      "midi": 38,
      "hit": false,
      "t": 152343.75,
      "d": 464.84375,
      "v": 127
    },
    {
      "midi": 42,
      "hit": false,
      "t": 152343.75,
      "d": 230.46875,
      "v": 127
    },
    {
      "midi": 72,
      "hit": false,
      "t": 152578.125,
      "d": 230.46875,
      "v": 127
    },
    {
      "midi": 72,
      "hit": false,
      "t": 152578.125,
      "d": 230.46875,
      "v": 127
    },
    {
      "midi": 27,
      "hit": false,
      "t": 152578.125,
      "d": 230.46875,
      "v": 127
    },
    {
      "midi": 42,
      "hit": false,
      "t": 152578.125,
      "d": 113.28125,
      "v": 127
    },
    {
      "midi": 42,
      "hit": false,
      "t": 152695.3125,
      "d": 113.28125,
      "v": 127
    },
    {
      "midi": 70,
      "hit": false,
      "t": 152812.5,
      "d": 464.84375,
      "v": 127
    },
    {
      "midi": 70,
      "hit": false,
      "t": 152812.5,
      "d": 464.84375,
      "v": 127
    },
    {
      "midi": 82,
      "hit": false,
      "t": 152812.5,
      "d": 230.46875,
      "v": 114
    },
    {
      "midi": 75,
      "hit": false,
      "t": 152812.5,
      "d": 230.46875,
      "v": 124
    },
    {
      "midi": 27,
      "hit": false,
      "t": 152812.5,
      "d": 230.46875,
      "v": 127
    },
    {
      "midi": 35,
      "hit": false,
      "t": 152812.5,
      "d": 464.84375,
      "v": 127
    },
    {
      "midi": 42,
      "hit": false,
      "t": 152812.5,
      "d": 230.46875,
      "v": 127
    },
    {
      "midi": 79,
      "hit": false,
      "t": 153046.875,
      "d": 699.21875,
      "v": 114
    },
    {
      "midi": 75,
      "hit": false,
      "t": 153046.875,
      "d": 699.21875,
      "v": 124
    },
    {
      "midi": 27,
      "hit": false,
      "t": 153046.875,
      "d": 230.46875,
      "v": 127
    },
    {
      "midi": 42,
      "hit": false,
      "t": 153046.875,
      "d": 113.28125,
      "v": 127
    },
    {
      "midi": 42,
      "hit": false,
      "t": 153164.0625,
      "d": 113.28125,
      "v": 127
    },
    {
      "midi": 63,
      "hit": false,
      "t": 153281.25,
      "d": 230.46875,
      "v": 127
    },
    {
      "midi": 27,
      "hit": false,
      "t": 153281.25,
      "d": 230.46875,
      "v": 127
    },
    {
      "midi": 35,
      "hit": false,
      "t": 153281.25,
      "d": 464.84375,
      "v": 127
    },
    {
      "midi": 38,
      "hit": false,
      "t": 153281.25,
      "d": 464.84375,
      "v": 127
    },
    {
      "midi": 42,
      "hit": false,
      "t": 153281.25,
      "d": 230.46875,
      "v": 127
    },
    {
      "midi": 65,
      "hit": false,
      "t": 153515.625,
      "d": 230.46875,
      "v": 127
    },
    {
      "midi": 27,
      "hit": false,
      "t": 153515.625,
      "d": 230.46875,
      "v": 127
    },
    {
      "midi": 42,
      "hit": false,
      "t": 153515.625,
      "d": 113.28125,
      "v": 127
    },
    {
      "midi": 42,
      "hit": false,
      "t": 153632.8125,
      "d": 113.28125,
      "v": 127
    },
    {
      "midi": 67,
      "hit": false,
      "t": 153750,
      "d": 699.21875,
      "v": 127
    },
    {
      "midi": 62,
      "hit": false,
      "t": 153750,
      "d": 1871.09375,
      "v": 127
    },
    {
      "midi": 82,
      "hit": false,
      "t": 153750,
      "d": 230.46875,
      "v": 114
    },
    {
      "midi": 74,
      "hit": false,
      "t": 153750,
      "d": 230.46875,
      "v": 124
    },
    {
      "midi": 26,
      "hit": false,
      "t": 153750,
      "d": 230.46875,
      "v": 127
    },
    {
      "midi": 35,
      "hit": false,
      "t": 153750,
      "d": 464.84375,
      "v": 127
    },
    {
      "midi": 42,
      "hit": false,
      "t": 153750,
      "d": 230.46875,
      "v": 127
    },
    {
      "midi": 82,
      "hit": false,
      "t": 153984.375,
      "d": 230.46875,
      "v": 114
    },
    {
      "midi": 74,
      "hit": false,
      "t": 153984.375,
      "d": 230.46875,
      "v": 124
    },
    {
      "midi": 26,
      "hit": false,
      "t": 153984.375,
      "d": 230.46875,
      "v": 127
    },
    {
      "midi": 42,
      "hit": false,
      "t": 153984.375,
      "d": 113.28125,
      "v": 127
    },
    {
      "midi": 42,
      "hit": false,
      "t": 154101.5625,
      "d": 113.28125,
      "v": 127
    },
    {
      "midi": 82,
      "hit": false,
      "t": 154218.75,
      "d": 230.46875,
      "v": 114
    },
    {
      "midi": 74,
      "hit": false,
      "t": 154218.75,
      "d": 230.46875,
      "v": 124
    },
    {
      "midi": 26,
      "hit": false,
      "t": 154218.75,
      "d": 230.46875,
      "v": 127
    },
    {
      "midi": 35,
      "hit": false,
      "t": 154218.75,
      "d": 464.84375,
      "v": 127
    },
    {
      "midi": 38,
      "hit": false,
      "t": 154218.75,
      "d": 464.84375,
      "v": 127
    },
    {
      "midi": 42,
      "hit": false,
      "t": 154218.75,
      "d": 230.46875,
      "v": 127
    },
    {
      "midi": 63,
      "hit": false,
      "t": 154453.125,
      "d": 230.46875,
      "v": 127
    },
    {
      "midi": 79,
      "hit": false,
      "t": 154453.125,
      "d": 230.46875,
      "v": 114
    },
    {
      "midi": 74,
      "hit": false,
      "t": 154453.125,
      "d": 230.46875,
      "v": 124
    },
    {
      "midi": 26,
      "hit": false,
      "t": 154453.125,
      "d": 230.46875,
      "v": 127
    },
    {
      "midi": 42,
      "hit": false,
      "t": 154453.125,
      "d": 113.28125,
      "v": 127
    },
    {
      "midi": 42,
      "hit": false,
      "t": 154570.3125,
      "d": 113.28125,
      "v": 127
    },
    {
      "midi": 70,
      "hit": false,
      "t": 154687.5,
      "d": 933.59375,
      "v": 127
    },
    {
      "midi": 82,
      "hit": false,
      "t": 154687.5,
      "d": 816.40625,
      "v": 114
    },
    {
      "midi": 74,
      "hit": false,
      "t": 154687.5,
      "d": 816.40625,
      "v": 124
    },
    {
      "midi": 26,
      "hit": false,
      "t": 154687.5,
      "d": 230.46875,
      "v": 127
    },
    {
      "midi": 35,
      "hit": false,
      "t": 154687.5,
      "d": 464.84375,
      "v": 127
    },
    {
      "midi": 42,
      "hit": false,
      "t": 154687.5,
      "d": 230.46875,
      "v": 127
    },
    {
      "midi": 26,
      "hit": false,
      "t": 154921.875,
      "d": 230.46875,
      "v": 127
    },
    {
      "midi": 42,
      "hit": false,
      "t": 154921.875,
      "d": 113.28125,
      "v": 127
    },
    {
      "midi": 42,
      "hit": false,
      "t": 155039.0625,
      "d": 113.28125,
      "v": 127
    },
    {
      "midi": 26,
      "hit": false,
      "t": 155156.25,
      "d": 230.46875,
      "v": 127
    },
    {
      "midi": 35,
      "hit": false,
      "t": 155156.25,
      "d": 464.84375,
      "v": 127
    },
    {
      "midi": 38,
      "hit": false,
      "t": 155156.25,
      "d": 464.84375,
      "v": 127
    },
    {
      "midi": 42,
      "hit": false,
      "t": 155156.25,
      "d": 230.46875,
      "v": 127
    },
    {
      "midi": 26,
      "hit": false,
      "t": 155390.625,
      "d": 230.46875,
      "v": 127
    },
    {
      "midi": 42,
      "hit": false,
      "t": 155390.625,
      "d": 113.28125,
      "v": 127
    },
    {
      "midi": 42,
      "hit": false,
      "t": 155507.8125,
      "d": 113.28125,
      "v": 127
    },
    {
      "midi": 70,
      "hit": false,
      "t": 155625,
      "d": 230.46875,
      "v": 127
    },
    {
      "midi": 70,
      "hit": false,
      "t": 155625,
      "d": 230.46875,
      "v": 127
    },
    {
      "midi": 58,
      "hit": false,
      "t": 155625,
      "d": 933.59375,
      "v": 127
    },
    {
      "midi": 79,
      "hit": false,
      "t": 155625,
      "d": 464.84375,
      "v": 114
    },
    {
      "midi": 74,
      "hit": false,
      "t": 155625,
      "d": 464.84375,
      "v": 124
    },
    {
      "midi": 22,
      "hit": false,
      "t": 155625,
      "d": 230.46875,
      "v": 127
    },
    {
      "midi": 35,
      "hit": false,
      "t": 155625,
      "d": 464.84375,
      "v": 127
    },
    {
      "midi": 42,
      "hit": false,
      "t": 155625,
      "d": 230.46875,
      "v": 127
    },
    {
      "midi": 72,
      "hit": false,
      "t": 155859.375,
      "d": 230.46875,
      "v": 127
    },
    {
      "midi": 72,
      "hit": false,
      "t": 155859.375,
      "d": 230.46875,
      "v": 127
    },
    {
      "midi": 22,
      "hit": false,
      "t": 155859.375,
      "d": 230.46875,
      "v": 127
    },
    {
      "midi": 42,
      "hit": false,
      "t": 155859.375,
      "d": 113.28125,
      "v": 127
    },
    {
      "midi": 42,
      "hit": false,
      "t": 155976.5625,
      "d": 113.28125,
      "v": 127
    },
    {
      "midi": 70,
      "hit": false,
      "t": 156093.75,
      "d": 230.46875,
      "v": 127
    },
    {
      "midi": 70,
      "hit": false,
      "t": 156093.75,
      "d": 230.46875,
      "v": 127
    },
    {
      "midi": 79,
      "hit": false,
      "t": 156093.75,
      "d": 464.84375,
      "v": 114
    },
    {
      "midi": 74,
      "hit": false,
      "t": 156093.75,
      "d": 464.84375,
      "v": 124
    },
    {
      "midi": 22,
      "hit": false,
      "t": 156093.75,
      "d": 230.46875,
      "v": 127
    },
    {
      "midi": 35,
      "hit": false,
      "t": 156093.75,
      "d": 464.84375,
      "v": 127
    },
    {
      "midi": 38,
      "hit": false,
      "t": 156093.75,
      "d": 464.84375,
      "v": 127
    },
    {
      "midi": 42,
      "hit": false,
      "t": 156093.75,
      "d": 230.46875,
      "v": 127
    },
    {
      "midi": 72,
      "hit": false,
      "t": 156328.125,
      "d": 230.46875,
      "v": 127
    },
    {
      "midi": 72,
      "hit": false,
      "t": 156328.125,
      "d": 230.46875,
      "v": 127
    },
    {
      "midi": 22,
      "hit": false,
      "t": 156328.125,
      "d": 230.46875,
      "v": 127
    },
    {
      "midi": 42,
      "hit": false,
      "t": 156328.125,
      "d": 113.28125,
      "v": 127
    },
    {
      "midi": 42,
      "hit": false,
      "t": 156445.3125,
      "d": 113.28125,
      "v": 127
    },
    {
      "midi": 70,
      "hit": false,
      "t": 156562.5,
      "d": 464.84375,
      "v": 127
    },
    {
      "midi": 70,
      "hit": false,
      "t": 156562.5,
      "d": 464.84375,
      "v": 127
    },
    {
      "midi": 60,
      "hit": false,
      "t": 156562.5,
      "d": 933.59375,
      "v": 127
    },
    {
      "midi": 82,
      "hit": false,
      "t": 156562.5,
      "d": 230.46875,
      "v": 114
    },
    {
      "midi": 74,
      "hit": false,
      "t": 156562.5,
      "d": 230.46875,
      "v": 124
    },
    {
      "midi": 24,
      "hit": false,
      "t": 156562.5,
      "d": 230.46875,
      "v": 127
    },
    {
      "midi": 35,
      "hit": false,
      "t": 156562.5,
      "d": 464.84375,
      "v": 127
    },
    {
      "midi": 42,
      "hit": false,
      "t": 156562.5,
      "d": 230.46875,
      "v": 127
    },
    {
      "midi": 79,
      "hit": false,
      "t": 156796.875,
      "d": 699.21875,
      "v": 114
    },
    {
      "midi": 74,
      "hit": false,
      "t": 156796.875,
      "d": 699.21875,
      "v": 124
    },
    {
      "midi": 24,
      "hit": false,
      "t": 156796.875,
      "d": 230.46875,
      "v": 127
    },
    {
      "midi": 42,
      "hit": false,
      "t": 156796.875,
      "d": 113.28125,
      "v": 127
    },
    {
      "midi": 42,
      "hit": false,
      "t": 156914.0625,
      "d": 113.28125,
      "v": 127
    },
    {
      "midi": 67,
      "hit": false,
      "t": 157031.25,
      "d": 230.46875,
      "v": 127
    },
    {
      "midi": 24,
      "hit": false,
      "t": 157031.25,
      "d": 230.46875,
      "v": 127
    },
    {
      "midi": 35,
      "hit": false,
      "t": 157031.25,
      "d": 464.84375,
      "v": 127
    },
    {
      "midi": 38,
      "hit": false,
      "t": 157031.25,
      "d": 464.84375,
      "v": 127
    },
    {
      "midi": 42,
      "hit": false,
      "t": 157031.25,
      "d": 230.46875,
      "v": 127
    },
    {
      "midi": 70,
      "hit": false,
      "t": 157265.625,
      "d": 230.46875,
      "v": 127
    },
    {
      "midi": 24,
      "hit": false,
      "t": 157265.625,
      "d": 230.46875,
      "v": 127
    },
    {
      "midi": 42,
      "hit": false,
      "t": 157265.625,
      "d": 113.28125,
      "v": 127
    },
    {
      "midi": 42,
      "hit": false,
      "t": 157382.8125,
      "d": 113.28125,
      "v": 127
    },
    {
      "midi": 72,
      "hit": false,
      "t": 157500,
      "d": 464.84375,
      "v": 127
    },
    {
      "midi": 68,
      "hit": false,
      "t": 157500,
      "d": 1871.09375,
      "v": 127
    },
    {
      "midi": 63,
      "hit": false,
      "t": 157500,
      "d": 1871.09375,
      "v": 127
    },
    {
      "midi": 60,
      "hit": false,
      "t": 157500,
      "d": 1871.09375,
      "v": 114
    },
    {
      "midi": 32,
      "hit": false,
      "t": 157500,
      "d": 230.46875,
      "v": 127
    },
    {
      "midi": 35,
      "hit": false,
      "t": 157500,
      "d": 464.84375,
      "v": 127
    },
    {
      "midi": 42,
      "hit": false,
      "t": 157500,
      "d": 230.46875,
      "v": 127
    },
    {
      "midi": 32,
      "hit": false,
      "t": 157734.375,
      "d": 230.46875,
      "v": 127
    },
    {
      "midi": 42,
      "hit": false,
      "t": 157734.375,
      "d": 113.28125,
      "v": 127
    },
    {
      "midi": 42,
      "hit": false,
      "t": 157851.5625,
      "d": 113.28125,
      "v": 127
    },
    {
      "midi": 72,
      "hit": false,
      "t": 157968.75,
      "d": 230.46875,
      "v": 127
    },
    {
      "midi": 32,
      "hit": false,
      "t": 157968.75,
      "d": 230.46875,
      "v": 127
    },
    {
      "midi": 35,
      "hit": false,
      "t": 157968.75,
      "d": 464.84375,
      "v": 127
    },
    {
      "midi": 38,
      "hit": false,
      "t": 157968.75,
      "d": 464.84375,
      "v": 127
    },
    {
      "midi": 42,
      "hit": false,
      "t": 157968.75,
      "d": 230.46875,
      "v": 127
    },
    {
      "midi": 72,
      "hit": false,
      "t": 158203.125,
      "d": 464.84375,
      "v": 127
    },
    {
      "midi": 32,
      "hit": false,
      "t": 158203.125,
      "d": 230.46875,
      "v": 127
    },
    {
      "midi": 42,
      "hit": false,
      "t": 158203.125,
      "d": 113.28125,
      "v": 127
    },
    {
      "midi": 42,
      "hit": false,
      "t": 158320.3125,
      "d": 113.28125,
      "v": 127
    },
    {
      "midi": 32,
      "hit": false,
      "t": 158437.5,
      "d": 230.46875,
      "v": 127
    },
    {
      "midi": 35,
      "hit": false,
      "t": 158437.5,
      "d": 464.84375,
      "v": 127
    },
    {
      "midi": 42,
      "hit": false,
      "t": 158437.5,
      "d": 230.46875,
      "v": 127
    },
    {
      "midi": 72,
      "hit": false,
      "t": 158671.875,
      "d": 699.21875,
      "v": 127
    },
    {
      "midi": 32,
      "hit": false,
      "t": 158671.875,
      "d": 230.46875,
      "v": 127
    },
    {
      "midi": 42,
      "hit": false,
      "t": 158671.875,
      "d": 113.28125,
      "v": 127
    },
    {
      "midi": 42,
      "hit": false,
      "t": 158789.0625,
      "d": 113.28125,
      "v": 127
    },
    {
      "midi": 32,
      "hit": false,
      "t": 158906.25,
      "d": 230.46875,
      "v": 127
    },
    {
      "midi": 35,
      "hit": false,
      "t": 158906.25,
      "d": 464.84375,
      "v": 127
    },
    {
      "midi": 38,
      "hit": false,
      "t": 158906.25,
      "d": 464.84375,
      "v": 127
    },
    {
      "midi": 42,
      "hit": false,
      "t": 158906.25,
      "d": 230.46875,
      "v": 127
    },
    {
      "midi": 32,
      "hit": false,
      "t": 159140.625,
      "d": 230.46875,
      "v": 127
    },
    {
      "midi": 42,
      "hit": false,
      "t": 159140.625,
      "d": 113.28125,
      "v": 127
    },
    {
      "midi": 42,
      "hit": false,
      "t": 159257.8125,
      "d": 113.28125,
      "v": 127
    },
    {
      "midi": 72,
      "hit": false,
      "t": 159375,
      "d": 464.84375,
      "v": 127
    },
    {
      "midi": 68,
      "hit": false,
      "t": 159375,
      "d": 699.21875,
      "v": 127
    },
    {
      "midi": 63,
      "hit": false,
      "t": 159375,
      "d": 699.21875,
      "v": 127
    },
    {
      "midi": 60,
      "hit": false,
      "t": 159375,
      "d": 699.21875,
      "v": 114
    },
    {
      "midi": 34,
      "hit": false,
      "t": 159375,
      "d": 230.46875,
      "v": 127
    },
    {
      "midi": 35,
      "hit": false,
      "t": 159375,
      "d": 464.84375,
      "v": 127
    },
    {
      "midi": 42,
      "hit": false,
      "t": 159375,
      "d": 230.46875,
      "v": 127
    },
    {
      "midi": 34,
      "hit": false,
      "t": 159609.375,
      "d": 230.46875,
      "v": 127
    },
    {
      "midi": 42,
      "hit": false,
      "t": 159609.375,
      "d": 113.28125,
      "v": 127
    },
    {
      "midi": 42,
      "hit": false,
      "t": 159726.5625,
      "d": 113.28125,
      "v": 127
    },
    {
      "midi": 72,
      "hit": false,
      "t": 159843.75,
      "d": 230.46875,
      "v": 127
    },
    {
      "midi": 34,
      "hit": false,
      "t": 159843.75,
      "d": 230.46875,
      "v": 127
    },
    {
      "midi": 35,
      "hit": false,
      "t": 159843.75,
      "d": 464.84375,
      "v": 127
    },
    {
      "midi": 38,
      "hit": false,
      "t": 159843.75,
      "d": 464.84375,
      "v": 127
    },
    {
      "midi": 42,
      "hit": false,
      "t": 159843.75,
      "d": 230.46875,
      "v": 127
    },
    {
      "midi": 70,
      "hit": false,
      "t": 160078.125,
      "d": 464.84375,
      "v": 127
    },
    {
      "midi": 72,
      "hit": false,
      "t": 160078.125,
      "d": 933.59375,
      "v": 127
    },
    {
      "midi": 69,
      "hit": false,
      "t": 160078.125,
      "d": 933.59375,
      "v": 127
    },
    {
      "midi": 63,
      "hit": false,
      "t": 160078.125,
      "d": 933.59375,
      "v": 114
    },
    {
      "midi": 34,
      "hit": false,
      "t": 160078.125,
      "d": 230.46875,
      "v": 127
    },
    {
      "midi": 42,
      "hit": false,
      "t": 160078.125,
      "d": 113.28125,
      "v": 127
    },
    {
      "midi": 42,
      "hit": false,
      "t": 160195.3125,
      "d": 113.28125,
      "v": 127
    },
    {
      "midi": 38,
      "hit": false,
      "t": 160312.5,
      "d": 230.46875,
      "v": 127
    },
    {
      "midi": 35,
      "hit": false,
      "t": 160312.5,
      "d": 464.84375,
      "v": 127
    },
    {
      "midi": 42,
      "hit": false,
      "t": 160312.5,
      "d": 230.46875,
      "v": 127
    },
    {
      "midi": 69,
      "hit": false,
      "t": 160546.875,
      "d": 699.21875,
      "v": 127
    },
    {
      "midi": 38,
      "hit": false,
      "t": 160546.875,
      "d": 230.46875,
      "v": 127
    },
    {
      "midi": 42,
      "hit": false,
      "t": 160546.875,
      "d": 113.28125,
      "v": 127
    },
    {
      "midi": 42,
      "hit": false,
      "t": 160664.0625,
      "d": 113.28125,
      "v": 127
    },
    {
      "midi": 38,
      "hit": false,
      "t": 160781.25,
      "d": 230.46875,
      "v": 127
    },
    {
      "midi": 35,
      "hit": false,
      "t": 160781.25,
      "d": 464.84375,
      "v": 127
    },
    {
      "midi": 38,
      "hit": false,
      "t": 160781.25,
      "d": 464.84375,
      "v": 127
    },
    {
      "midi": 42,
      "hit": false,
      "t": 160781.25,
      "d": 230.46875,
      "v": 127
    },
    {
      "midi": 38,
      "hit": false,
      "t": 161015.625,
      "d": 230.46875,
      "v": 127
    },
    {
      "midi": 42,
      "hit": false,
      "t": 161015.625,
      "d": 113.28125,
      "v": 127
    },
    {
      "midi": 42,
      "hit": false,
      "t": 161132.8125,
      "d": 113.28125,
      "v": 127
    },
    {
      "midi": 70,
      "hit": false,
      "t": 161250,
      "d": 464.84375,
      "v": 127
    },
    {
      "midi": 67,
      "hit": false,
      "t": 161250,
      "d": 699.21875,
      "v": 127
    },
    {
      "midi": 62,
      "hit": false,
      "t": 161250,
      "d": 699.21875,
      "v": 127
    },
    {
      "midi": 58,
      "hit": false,
      "t": 161250,
      "d": 699.21875,
      "v": 114
    },
    {
      "midi": 31,
      "hit": false,
      "t": 161250,
      "d": 230.46875,
      "v": 127
    },
    {
      "midi": 35,
      "hit": false,
      "t": 161250,
      "d": 464.84375,
      "v": 127
    },
    {
      "midi": 42,
      "hit": false,
      "t": 161250,
      "d": 230.46875,
      "v": 127
    },
    {
      "midi": 31,
      "hit": false,
      "t": 161484.375,
      "d": 230.46875,
      "v": 127
    },
    {
      "midi": 42,
      "hit": false,
      "t": 161484.375,
      "d": 113.28125,
      "v": 127
    },
    {
      "midi": 42,
      "hit": false,
      "t": 161601.5625,
      "d": 113.28125,
      "v": 127
    },
    {
      "midi": 72,
      "hit": false,
      "t": 161718.75,
      "d": 230.46875,
      "v": 127
    },
    {
      "midi": 31,
      "hit": false,
      "t": 161718.75,
      "d": 230.46875,
      "v": 127
    },
    {
      "midi": 35,
      "hit": false,
      "t": 161718.75,
      "d": 464.84375,
      "v": 127
    },
    {
      "midi": 38,
      "hit": false,
      "t": 161718.75,
      "d": 464.84375,
      "v": 127
    },
    {
      "midi": 42,
      "hit": false,
      "t": 161718.75,
      "d": 230.46875,
      "v": 127
    },
    {
      "midi": 70,
      "hit": false,
      "t": 161953.125,
      "d": 464.84375,
      "v": 127
    },
    {
      "midi": 70,
      "hit": false,
      "t": 161953.125,
      "d": 933.59375,
      "v": 127
    },
    {
      "midi": 67,
      "hit": false,
      "t": 161953.125,
      "d": 933.59375,
      "v": 127
    },
    {
      "midi": 63,
      "hit": false,
      "t": 161953.125,
      "d": 933.59375,
      "v": 114
    },
    {
      "midi": 31,
      "hit": false,
      "t": 161953.125,
      "d": 230.46875,
      "v": 127
    },
    {
      "midi": 42,
      "hit": false,
      "t": 161953.125,
      "d": 113.28125,
      "v": 127
    },
    {
      "midi": 42,
      "hit": false,
      "t": 162070.3125,
      "d": 113.28125,
      "v": 127
    },
    {
      "midi": 36,
      "hit": false,
      "t": 162187.5,
      "d": 230.46875,
      "v": 127
    },
    {
      "midi": 35,
      "hit": false,
      "t": 162187.5,
      "d": 464.84375,
      "v": 127
    },
    {
      "midi": 42,
      "hit": false,
      "t": 162187.5,
      "d": 230.46875,
      "v": 127
    },
    {
      "midi": 67,
      "hit": false,
      "t": 162421.875,
      "d": 699.21875,
      "v": 127
    },
    {
      "midi": 36,
      "hit": false,
      "t": 162421.875,
      "d": 230.46875,
      "v": 127
    },
    {
      "midi": 42,
      "hit": false,
      "t": 162421.875,
      "d": 113.28125,
      "v": 127
    },
    {
      "midi": 42,
      "hit": false,
      "t": 162539.0625,
      "d": 113.28125,
      "v": 127
    },
    {
      "midi": 36,
      "hit": false,
      "t": 162656.25,
      "d": 230.46875,
      "v": 127
    },
    {
      "midi": 35,
      "hit": false,
      "t": 162656.25,
      "d": 464.84375,
      "v": 127
    },
    {
      "midi": 38,
      "hit": false,
      "t": 162656.25,
      "d": 464.84375,
      "v": 127
    },
    {
      "midi": 42,
      "hit": false,
      "t": 162656.25,
      "d": 230.46875,
      "v": 127
    },
    {
      "midi": 36,
      "hit": false,
      "t": 162890.625,
      "d": 230.46875,
      "v": 127
    },
    {
      "midi": 42,
      "hit": false,
      "t": 162890.625,
      "d": 113.28125,
      "v": 127
    },
    {
      "midi": 42,
      "hit": false,
      "t": 163007.8125,
      "d": 113.28125,
      "v": 127
    },
    {
      "midi": 68,
      "hit": false,
      "t": 163125,
      "d": 464.84375,
      "v": 127
    },
    {
      "midi": 65,
      "hit": false,
      "t": 163125,
      "d": 699.21875,
      "v": 127
    },
    {
      "midi": 62,
      "hit": false,
      "t": 163125,
      "d": 1636.71875,
      "v": 127
    },
    {
      "midi": 58,
      "hit": false,
      "t": 163125,
      "d": 1636.71875,
      "v": 114
    },
    {
      "midi": 29,
      "hit": false,
      "t": 163125,
      "d": 230.46875,
      "v": 127
    },
    {
      "midi": 35,
      "hit": false,
      "t": 163125,
      "d": 464.84375,
      "v": 127
    },
    {
      "midi": 42,
      "hit": false,
      "t": 163125,
      "d": 230.46875,
      "v": 127
    },
    {
      "midi": 29,
      "hit": false,
      "t": 163359.375,
      "d": 230.46875,
      "v": 127
    },
    {
      "midi": 42,
      "hit": false,
      "t": 163359.375,
      "d": 113.28125,
      "v": 127
    },
    {
      "midi": 42,
      "hit": false,
      "t": 163476.5625,
      "d": 113.28125,
      "v": 127
    },
    {
      "midi": 65,
      "hit": false,
      "t": 163593.75,
      "d": 230.46875,
      "v": 127
    },
    {
      "midi": 29,
      "hit": false,
      "t": 163593.75,
      "d": 230.46875,
      "v": 127
    },
    {
      "midi": 35,
      "hit": false,
      "t": 163593.75,
      "d": 464.84375,
      "v": 127
    },
    {
      "midi": 38,
      "hit": false,
      "t": 163593.75,
      "d": 464.84375,
      "v": 127
    },
    {
      "midi": 42,
      "hit": false,
      "t": 163593.75,
      "d": 230.46875,
      "v": 127
    },
    {
      "midi": 70,
      "hit": false,
      "t": 163828.125,
      "d": 699.21875,
      "v": 127
    },
    {
      "midi": 70,
      "hit": false,
      "t": 163828.125,
      "d": 933.59375,
      "v": 127
    },
    {
      "midi": 29,
      "hit": false,
      "t": 163828.125,
      "d": 230.46875,
      "v": 127
    },
    {
      "midi": 42,
      "hit": false,
      "t": 163828.125,
      "d": 113.28125,
      "v": 127
    },
    {
      "midi": 42,
      "hit": false,
      "t": 163945.3125,
      "d": 113.28125,
      "v": 127
    },
    {
      "midi": 34,
      "hit": false,
      "t": 164062.5,
      "d": 230.46875,
      "v": 127
    },
    {
      "midi": 35,
      "hit": false,
      "t": 164062.5,
      "d": 464.84375,
      "v": 127
    },
    {
      "midi": 42,
      "hit": false,
      "t": 164062.5,
      "d": 230.46875,
      "v": 127
    },
    {
      "midi": 34,
      "hit": false,
      "t": 164296.875,
      "d": 230.46875,
      "v": 127
    },
    {
      "midi": 42,
      "hit": false,
      "t": 164296.875,
      "d": 113.28125,
      "v": 127
    },
    {
      "midi": 42,
      "hit": false,
      "t": 164414.0625,
      "d": 113.28125,
      "v": 127
    },
    {
      "midi": 63,
      "hit": false,
      "t": 164531.25,
      "d": 230.46875,
      "v": 127
    },
    {
      "midi": 34,
      "hit": false,
      "t": 164531.25,
      "d": 230.46875,
      "v": 127
    },
    {
      "midi": 35,
      "hit": false,
      "t": 164531.25,
      "d": 464.84375,
      "v": 127
    },
    {
      "midi": 38,
      "hit": false,
      "t": 164531.25,
      "d": 464.84375,
      "v": 127
    },
    {
      "midi": 42,
      "hit": false,
      "t": 164531.25,
      "d": 230.46875,
      "v": 127
    },
    {
      "midi": 65,
      "hit": false,
      "t": 164765.625,
      "d": 230.46875,
      "v": 127
    },
    {
      "midi": 34,
      "hit": false,
      "t": 164765.625,
      "d": 230.46875,
      "v": 127
    },
    {
      "midi": 42,
      "hit": false,
      "t": 164765.625,
      "d": 113.28125,
      "v": 127
    },
    {
      "midi": 42,
      "hit": false,
      "t": 164882.8125,
      "d": 113.28125,
      "v": 127
    },
    {
      "midi": 67,
      "hit": false,
      "t": 165000,
      "d": 699.21875,
      "v": 127
    },
    {
      "midi": 87,
      "hit": false,
      "t": 165000,
      "d": 230.46875,
      "v": 127
    },
    {
      "midi": 79,
      "hit": false,
      "t": 165000,
      "d": 230.46875,
      "v": 127
    },
    {
      "midi": 63,
      "hit": false,
      "t": 165000,
      "d": 3746.09375,
      "v": 124
    },
    {
      "midi": 27,
      "hit": false,
      "t": 165000,
      "d": 230.46875,
      "v": 127
    },
    {
      "midi": 35,
      "hit": false,
      "t": 165000,
      "d": 464.84375,
      "v": 127
    },
    {
      "midi": 26,
      "hit": false,
      "t": 165000,
      "d": 113.28125,
      "v": 127
    },
    {
      "midi": 42,
      "hit": false,
      "t": 165000,
      "d": 230.46875,
      "v": 127
    },
    {
      "midi": 87,
      "hit": false,
      "t": 165234.375,
      "d": 230.46875,
      "v": 127
    },
    {
      "midi": 79,
      "hit": false,
      "t": 165234.375,
      "d": 230.46875,
      "v": 127
    },
    {
      "midi": 27,
      "hit": false,
      "t": 165234.375,
      "d": 230.46875,
      "v": 127
    },
    {
      "midi": 42,
      "hit": false,
      "t": 165234.375,
      "d": 113.28125,
      "v": 127
    },
    {
      "midi": 42,
      "hit": false,
      "t": 165351.5625,
      "d": 113.28125,
      "v": 127
    },
    {
      "midi": 87,
      "hit": false,
      "t": 165468.75,
      "d": 230.46875,
      "v": 127
    },
    {
      "midi": 79,
      "hit": false,
      "t": 165468.75,
      "d": 230.46875,
      "v": 127
    },
    {
      "midi": 27,
      "hit": false,
      "t": 165468.75,
      "d": 230.46875,
      "v": 127
    },
    {
      "midi": 35,
      "hit": false,
      "t": 165468.75,
      "d": 464.84375,
      "v": 127
    },
    {
      "midi": 38,
      "hit": false,
      "t": 165468.75,
      "d": 464.84375,
      "v": 127
    },
    {
      "midi": 42,
      "hit": false,
      "t": 165468.75,
      "d": 230.46875,
      "v": 127
    },
    {
      "midi": 63,
      "hit": false,
      "t": 165703.125,
      "d": 230.46875,
      "v": 127
    },
    {
      "midi": 84,
      "hit": false,
      "t": 165703.125,
      "d": 230.46875,
      "v": 127
    },
    {
      "midi": 79,
      "hit": false,
      "t": 165703.125,
      "d": 230.46875,
      "v": 127
    },
    {
      "midi": 27,
      "hit": false,
      "t": 165703.125,
      "d": 230.46875,
      "v": 127
    },
    {
      "midi": 42,
      "hit": false,
      "t": 165703.125,
      "d": 113.28125,
      "v": 127
    },
    {
      "midi": 42,
      "hit": false,
      "t": 165820.3125,
      "d": 113.28125,
      "v": 127
    },
    {
      "midi": 70,
      "hit": false,
      "t": 165937.5,
      "d": 933.59375,
      "v": 127
    },
    {
      "midi": 82,
      "hit": false,
      "t": 165937.5,
      "d": 230.46875,
      "v": 127
    },
    {
      "midi": 75,
      "hit": false,
      "t": 165937.5,
      "d": 230.46875,
      "v": 127
    },
    {
      "midi": 27,
      "hit": false,
      "t": 165937.5,
      "d": 230.46875,
      "v": 127
    },
    {
      "midi": 35,
      "hit": false,
      "t": 165937.5,
      "d": 464.84375,
      "v": 127
    },
    {
      "midi": 42,
      "hit": false,
      "t": 165937.5,
      "d": 230.46875,
      "v": 127
    },
    {
      "midi": 79,
      "hit": false,
      "t": 166171.875,
      "d": 464.84375,
      "v": 127
    },
    {
      "midi": 75,
      "hit": false,
      "t": 166171.875,
      "d": 464.84375,
      "v": 127
    },
    {
      "midi": 27,
      "hit": false,
      "t": 166171.875,
      "d": 230.46875,
      "v": 127
    },
    {
      "midi": 42,
      "hit": false,
      "t": 166171.875,
      "d": 113.28125,
      "v": 127
    },
    {
      "midi": 42,
      "hit": false,
      "t": 166289.0625,
      "d": 113.28125,
      "v": 127
    },
    {
      "midi": 27,
      "hit": false,
      "t": 166406.25,
      "d": 230.46875,
      "v": 127
    },
    {
      "midi": 35,
      "hit": false,
      "t": 166406.25,
      "d": 464.84375,
      "v": 127
    },
    {
      "midi": 38,
      "hit": false,
      "t": 166406.25,
      "d": 464.84375,
      "v": 127
    },
    {
      "midi": 42,
      "hit": false,
      "t": 166406.25,
      "d": 230.46875,
      "v": 127
    },
    {
      "midi": 82,
      "hit": false,
      "t": 166640.625,
      "d": 230.46875,
      "v": 127
    },
    {
      "midi": 75,
      "hit": false,
      "t": 166640.625,
      "d": 230.46875,
      "v": 127
    },
    {
      "midi": 27,
      "hit": false,
      "t": 166640.625,
      "d": 230.46875,
      "v": 127
    },
    {
      "midi": 42,
      "hit": false,
      "t": 166640.625,
      "d": 113.28125,
      "v": 127
    },
    {
      "midi": 42,
      "hit": false,
      "t": 166757.8125,
      "d": 113.28125,
      "v": 127
    },
    {
      "midi": 70,
      "hit": false,
      "t": 166875,
      "d": 230.46875,
      "v": 127
    },
    {
      "midi": 87,
      "hit": false,
      "t": 166875,
      "d": 464.84375,
      "v": 127
    },
    {
      "midi": 75,
      "hit": false,
      "t": 166875,
      "d": 464.84375,
      "v": 127
    },
    {
      "midi": 70,
      "hit": false,
      "t": 166875,
      "d": 230.46875,
      "v": 114
    },
    {
      "midi": 27,
      "hit": false,
      "t": 166875,
      "d": 230.46875,
      "v": 127
    },
    {
      "midi": 35,
      "hit": false,
      "t": 166875,
      "d": 464.84375,
      "v": 127
    },
    {
      "midi": 42,
      "hit": false,
      "t": 166875,
      "d": 230.46875,
      "v": 127
    },
    {
      "midi": 72,
      "hit": false,
      "t": 167109.375,
      "d": 230.46875,
      "v": 127
    },
    {
      "midi": 72,
      "hit": false,
      "t": 167109.375,
      "d": 230.46875,
      "v": 114
    },
    {
      "midi": 27,
      "hit": false,
      "t": 167109.375,
      "d": 230.46875,
      "v": 127
    },
    {
      "midi": 42,
      "hit": false,
      "t": 167109.375,
      "d": 113.28125,
      "v": 127
    },
    {
      "midi": 42,
      "hit": false,
      "t": 167226.5625,
      "d": 113.28125,
      "v": 127
    },
    {
      "midi": 70,
      "hit": false,
      "t": 167343.75,
      "d": 230.46875,
      "v": 127
    },
    {
      "midi": 84,
      "hit": false,
      "t": 167343.75,
      "d": 464.84375,
      "v": 127
    },
    {
      "midi": 75,
      "hit": false,
      "t": 167343.75,
      "d": 464.84375,
      "v": 127
    },
    {
      "midi": 70,
      "hit": false,
      "t": 167343.75,
      "d": 230.46875,
      "v": 114
    },
    {
      "midi": 27,
      "hit": false,
      "t": 167343.75,
      "d": 230.46875,
      "v": 127
    },
    {
      "midi": 35,
      "hit": false,
      "t": 167343.75,
      "d": 464.84375,
      "v": 127
    },
    {
      "midi": 38,
      "hit": false,
      "t": 167343.75,
      "d": 464.84375,
      "v": 127
    },
    {
      "midi": 42,
      "hit": false,
      "t": 167343.75,
      "d": 230.46875,
      "v": 127
    },
    {
      "midi": 72,
      "hit": false,
      "t": 167578.125,
      "d": 230.46875,
      "v": 127
    },
    {
      "midi": 72,
      "hit": false,
      "t": 167578.125,
      "d": 230.46875,
      "v": 114
    },
    {
      "midi": 27,
      "hit": false,
      "t": 167578.125,
      "d": 230.46875,
      "v": 127
    },
    {
      "midi": 42,
      "hit": false,
      "t": 167578.125,
      "d": 113.28125,
      "v": 127
    },
    {
      "midi": 42,
      "hit": false,
      "t": 167695.3125,
      "d": 113.28125,
      "v": 127
    },
    {
      "midi": 70,
      "hit": false,
      "t": 167812.5,
      "d": 464.84375,
      "v": 127
    },
    {
      "midi": 82,
      "hit": false,
      "t": 167812.5,
      "d": 230.46875,
      "v": 127
    },
    {
      "midi": 75,
      "hit": false,
      "t": 167812.5,
      "d": 230.46875,
      "v": 127
    },
    {
      "midi": 70,
      "hit": false,
      "t": 167812.5,
      "d": 464.84375,
      "v": 114
    },
    {
      "midi": 27,
      "hit": false,
      "t": 167812.5,
      "d": 230.46875,
      "v": 127
    },
    {
      "midi": 35,
      "hit": false,
      "t": 167812.5,
      "d": 464.84375,
      "v": 127
    },
    {
      "midi": 42,
      "hit": false,
      "t": 167812.5,
      "d": 230.46875,
      "v": 127
    },
    {
      "midi": 79,
      "hit": false,
      "t": 168046.875,
      "d": 230.46875,
      "v": 127
    },
    {
      "midi": 75,
      "hit": false,
      "t": 168046.875,
      "d": 230.46875,
      "v": 127
    },
    {
      "midi": 27,
      "hit": false,
      "t": 168046.875,
      "d": 230.46875,
      "v": 127
    },
    {
      "midi": 42,
      "hit": false,
      "t": 168046.875,
      "d": 113.28125,
      "v": 127
    },
    {
      "midi": 42,
      "hit": false,
      "t": 168164.0625,
      "d": 113.28125,
      "v": 127
    },
    {
      "midi": 63,
      "hit": false,
      "t": 168281.25,
      "d": 230.46875,
      "v": 127
    },
    {
      "midi": 75,
      "hit": false,
      "t": 168281.25,
      "d": 230.46875,
      "v": 127
    },
    {
      "midi": 75,
      "hit": false,
      "t": 168281.25,
      "d": 230.46875,
      "v": 127
    },
    {
      "midi": 27,
      "hit": false,
      "t": 168281.25,
      "d": 230.46875,
      "v": 127
    },
    {
      "midi": 35,
      "hit": false,
      "t": 168281.25,
      "d": 464.84375,
      "v": 127
    },
    {
      "midi": 38,
      "hit": false,
      "t": 168281.25,
      "d": 464.84375,
      "v": 127
    },
    {
      "midi": 42,
      "hit": false,
      "t": 168281.25,
      "d": 230.46875,
      "v": 127
    },
    {
      "midi": 65,
      "hit": false,
      "t": 168515.625,
      "d": 230.46875,
      "v": 127
    },
    {
      "midi": 77,
      "hit": false,
      "t": 168515.625,
      "d": 230.46875,
      "v": 127
    },
    {
      "midi": 75,
      "hit": false,
      "t": 168515.625,
      "d": 230.46875,
      "v": 127
    },
    {
      "midi": 27,
      "hit": false,
      "t": 168515.625,
      "d": 230.46875,
      "v": 127
    },
    {
      "midi": 42,
      "hit": false,
      "t": 168515.625,
      "d": 113.28125,
      "v": 127
    },
    {
      "midi": 42,
      "hit": false,
      "t": 168632.8125,
      "d": 113.28125,
      "v": 127
    },
    {
      "midi": 67,
      "hit": false,
      "t": 168750,
      "d": 699.21875,
      "v": 127
    },
    {
      "midi": 79,
      "hit": false,
      "t": 168750,
      "d": 230.46875,
      "v": 127
    },
    {
      "midi": 74,
      "hit": false,
      "t": 168750,
      "d": 230.46875,
      "v": 127
    },
    {
      "midi": 62,
      "hit": false,
      "t": 168750,
      "d": 1871.09375,
      "v": 124
    },
    {
      "midi": 26,
      "hit": false,
      "t": 168750,
      "d": 230.46875,
      "v": 127
    },
    {
      "midi": 35,
      "hit": false,
      "t": 168750,
      "d": 464.84375,
      "v": 127
    },
    {
      "midi": 42,
      "hit": false,
      "t": 168750,
      "d": 230.46875,
      "v": 127
    },
    {
      "midi": 79,
      "hit": false,
      "t": 168984.375,
      "d": 230.46875,
      "v": 127
    },
    {
      "midi": 74,
      "hit": false,
      "t": 168984.375,
      "d": 230.46875,
      "v": 127
    },
    {
      "midi": 26,
      "hit": false,
      "t": 168984.375,
      "d": 230.46875,
      "v": 127
    },
    {
      "midi": 42,
      "hit": false,
      "t": 168984.375,
      "d": 113.28125,
      "v": 127
    },
    {
      "midi": 42,
      "hit": false,
      "t": 169101.5625,
      "d": 113.28125,
      "v": 127
    },
    {
      "midi": 79,
      "hit": false,
      "t": 169218.75,
      "d": 230.46875,
      "v": 127
    },
    {
      "midi": 74,
      "hit": false,
      "t": 169218.75,
      "d": 230.46875,
      "v": 127
    },
    {
      "midi": 26,
      "hit": false,
      "t": 169218.75,
      "d": 230.46875,
      "v": 127
    },
    {
      "midi": 35,
      "hit": false,
      "t": 169218.75,
      "d": 464.84375,
      "v": 127
    },
    {
      "midi": 38,
      "hit": false,
      "t": 169218.75,
      "d": 464.84375,
      "v": 127
    },
    {
      "midi": 42,
      "hit": false,
      "t": 169218.75,
      "d": 230.46875,
      "v": 127
    },
    {
      "midi": 63,
      "hit": false,
      "t": 169453.125,
      "d": 230.46875,
      "v": 127
    },
    {
      "midi": 80,
      "hit": false,
      "t": 169453.125,
      "d": 230.46875,
      "v": 127
    },
    {
      "midi": 74,
      "hit": false,
      "t": 169453.125,
      "d": 230.46875,
      "v": 127
    },
    {
      "midi": 26,
      "hit": false,
      "t": 169453.125,
      "d": 230.46875,
      "v": 127
    },
    {
      "midi": 42,
      "hit": false,
      "t": 169453.125,
      "d": 113.28125,
      "v": 127
    },
    {
      "midi": 42,
      "hit": false,
      "t": 169570.3125,
      "d": 113.28125,
      "v": 127
    },
    {
      "midi": 70,
      "hit": false,
      "t": 169687.5,
      "d": 933.59375,
      "v": 127
    },
    {
      "midi": 79,
      "hit": false,
      "t": 169687.5,
      "d": 464.84375,
      "v": 127
    },
    {
      "midi": 74,
      "hit": false,
      "t": 169687.5,
      "d": 464.84375,
      "v": 127
    },
    {
      "midi": 26,
      "hit": false,
      "t": 169687.5,
      "d": 230.46875,
      "v": 127
    },
    {
      "midi": 35,
      "hit": false,
      "t": 169687.5,
      "d": 464.84375,
      "v": 127
    },
    {
      "midi": 42,
      "hit": false,
      "t": 169687.5,
      "d": 230.46875,
      "v": 127
    },
    {
      "midi": 26,
      "hit": false,
      "t": 169921.875,
      "d": 230.46875,
      "v": 127
    },
    {
      "midi": 42,
      "hit": false,
      "t": 169921.875,
      "d": 113.28125,
      "v": 127
    },
    {
      "midi": 42,
      "hit": false,
      "t": 170039.0625,
      "d": 113.28125,
      "v": 127
    },
    {
      "midi": 75,
      "hit": false,
      "t": 170156.25,
      "d": 230.46875,
      "v": 127
    },
    {
      "midi": 74,
      "hit": false,
      "t": 170156.25,
      "d": 230.46875,
      "v": 127
    },
    {
      "midi": 26,
      "hit": false,
      "t": 170156.25,
      "d": 230.46875,
      "v": 127
    },
    {
      "midi": 35,
      "hit": false,
      "t": 170156.25,
      "d": 464.84375,
      "v": 127
    },
    {
      "midi": 38,
      "hit": false,
      "t": 170156.25,
      "d": 464.84375,
      "v": 127
    },
    {
      "midi": 42,
      "hit": false,
      "t": 170156.25,
      "d": 230.46875,
      "v": 127
    },
    {
      "midi": 75,
      "hit": false,
      "t": 170390.625,
      "d": 230.46875,
      "v": 127
    },
    {
      "midi": 74,
      "hit": false,
      "t": 170390.625,
      "d": 230.46875,
      "v": 127
    },
    {
      "midi": 26,
      "hit": false,
      "t": 170390.625,
      "d": 230.46875,
      "v": 127
    },
    {
      "midi": 42,
      "hit": false,
      "t": 170390.625,
      "d": 113.28125,
      "v": 127
    },
    {
      "midi": 42,
      "hit": false,
      "t": 170507.8125,
      "d": 113.28125,
      "v": 127
    },
    {
      "midi": 70,
      "hit": false,
      "t": 170625,
      "d": 230.46875,
      "v": 127
    },
    {
      "midi": 75,
      "hit": false,
      "t": 170625,
      "d": 464.84375,
      "v": 127
    },
    {
      "midi": 74,
      "hit": false,
      "t": 170625,
      "d": 464.84375,
      "v": 127
    },
    {
      "midi": 70,
      "hit": false,
      "t": 170625,
      "d": 230.46875,
      "v": 114
    },
    {
      "midi": 58,
      "hit": false,
      "t": 170625,
      "d": 933.59375,
      "v": 124
    },
    {
      "midi": 22,
      "hit": false,
      "t": 170625,
      "d": 230.46875,
      "v": 127
    },
    {
      "midi": 35,
      "hit": false,
      "t": 170625,
      "d": 464.84375,
      "v": 127
    },
    {
      "midi": 42,
      "hit": false,
      "t": 170625,
      "d": 230.46875,
      "v": 127
    },
    {
      "midi": 72,
      "hit": false,
      "t": 170859.375,
      "d": 230.46875,
      "v": 127
    },
    {
      "midi": 72,
      "hit": false,
      "t": 170859.375,
      "d": 230.46875,
      "v": 114
    },
    {
      "midi": 22,
      "hit": false,
      "t": 170859.375,
      "d": 230.46875,
      "v": 127
    },
    {
      "midi": 42,
      "hit": false,
      "t": 170859.375,
      "d": 113.28125,
      "v": 127
    },
    {
      "midi": 42,
      "hit": false,
      "t": 170976.5625,
      "d": 113.28125,
      "v": 127
    },
    {
      "midi": 70,
      "hit": false,
      "t": 171093.75,
      "d": 230.46875,
      "v": 127
    },
    {
      "midi": 77,
      "hit": false,
      "t": 171093.75,
      "d": 464.84375,
      "v": 127
    },
    {
      "midi": 74,
      "hit": false,
      "t": 171093.75,
      "d": 464.84375,
      "v": 127
    },
    {
      "midi": 70,
      "hit": false,
      "t": 171093.75,
      "d": 230.46875,
      "v": 114
    },
    {
      "midi": 22,
      "hit": false,
      "t": 171093.75,
      "d": 230.46875,
      "v": 127
    },
    {
      "midi": 35,
      "hit": false,
      "t": 171093.75,
      "d": 464.84375,
      "v": 127
    },
    {
      "midi": 38,
      "hit": false,
      "t": 171093.75,
      "d": 464.84375,
      "v": 127
    },
    {
      "midi": 42,
      "hit": false,
      "t": 171093.75,
      "d": 230.46875,
      "v": 127
    },
    {
      "midi": 72,
      "hit": false,
      "t": 171328.125,
      "d": 230.46875,
      "v": 127
    },
    {
      "midi": 72,
      "hit": false,
      "t": 171328.125,
      "d": 230.46875,
      "v": 114
    },
    {
      "midi": 22,
      "hit": false,
      "t": 171328.125,
      "d": 230.46875,
      "v": 127
    },
    {
      "midi": 42,
      "hit": false,
      "t": 171328.125,
      "d": 113.28125,
      "v": 127
    },
    {
      "midi": 42,
      "hit": false,
      "t": 171445.3125,
      "d": 113.28125,
      "v": 127
    },
    {
      "midi": 70,
      "hit": false,
      "t": 171562.5,
      "d": 347.65625,
      "v": 127
    },
    {
      "midi": 82,
      "hit": false,
      "t": 171562.5,
      "d": 230.46875,
      "v": 127
    },
    {
      "midi": 70,
      "hit": false,
      "t": 171562.5,
      "d": 347.65625,
      "v": 114
    },
    {
      "midi": 60,
      "hit": false,
      "t": 171562.5,
      "d": 933.59375,
      "v": 124
    },
    {
      "midi": 27,
      "hit": false,
      "t": 171562.5,
      "d": 230.46875,
      "v": 127
    },
    {
      "midi": 35,
      "hit": false,
      "t": 171562.5,
      "d": 464.84375,
      "v": 127
    },
    {
      "midi": 42,
      "hit": false,
      "t": 171562.5,
      "d": 230.46875,
      "v": 127
    },
    {
      "midi": 87,
      "hit": false,
      "t": 171796.875,
      "d": 582.03125,
      "v": 127
    },
    {
      "midi": 27,
      "hit": false,
      "t": 171796.875,
      "d": 230.46875,
      "v": 127
    },
    {
      "midi": 42,
      "hit": false,
      "t": 171796.875,
      "d": 113.28125,
      "v": 127
    },
    {
      "midi": 42,
      "hit": false,
      "t": 171914.0625,
      "d": 113.28125,
      "v": 127
    },
    {
      "midi": 67,
      "hit": false,
      "t": 172031.25,
      "d": 464.84375,
      "v": 127
    },
    {
      "midi": 67,
      "hit": false,
      "t": 172031.25,
      "d": 464.84375,
      "v": 114
    },
    {
      "midi": 27,
      "hit": false,
      "t": 172031.25,
      "d": 230.46875,
      "v": 127
    },
    {
      "midi": 35,
      "hit": false,
      "t": 172031.25,
      "d": 464.84375,
      "v": 127
    },
    {
      "midi": 38,
      "hit": false,
      "t": 172031.25,
      "d": 464.84375,
      "v": 127
    },
    {
      "midi": 42,
      "hit": false,
      "t": 172031.25,
      "d": 230.46875,
      "v": 127
    },
    {
      "midi": 27,
      "hit": false,
      "t": 172265.625,
      "d": 230.46875,
      "v": 127
    },
    {
      "midi": 42,
      "hit": false,
      "t": 172265.625,
      "d": 113.28125,
      "v": 127
    },
    {
      "midi": 42,
      "hit": false,
      "t": 172382.8125,
      "d": 113.28125,
      "v": 127
    },
    {
      "midi": 60,
      "hit": false,
      "t": 172500,
      "d": 464.84375,
      "v": 127
    },
    {
      "midi": 63,
      "hit": false,
      "t": 172500,
      "d": 1871.09375,
      "v": 127
    },
    {
      "midi": 68,
      "hit": false,
      "t": 172500,
      "d": 1871.09375,
      "v": 127
    },
    {
      "midi": 60,
      "hit": false,
      "t": 172500,
      "d": 1871.09375,
      "v": 114
    },
    {
      "midi": 60,
      "hit": false,
      "t": 172500,
      "d": 464.84375,
      "v": 124
    },
    {
      "midi": 20,
      "hit": false,
      "t": 172500,
      "d": 230.46875,
      "v": 127
    },
    {
      "midi": 35,
      "hit": false,
      "t": 172500,
      "d": 464.84375,
      "v": 127
    },
    {
      "midi": 42,
      "hit": false,
      "t": 172500,
      "d": 230.46875,
      "v": 127
    },
    {
      "midi": 20,
      "hit": false,
      "t": 172734.375,
      "d": 230.46875,
      "v": 127
    },
    {
      "midi": 42,
      "hit": false,
      "t": 172734.375,
      "d": 113.28125,
      "v": 127
    },
    {
      "midi": 42,
      "hit": false,
      "t": 172851.5625,
      "d": 113.28125,
      "v": 127
    },
    {
      "midi": 60,
      "hit": false,
      "t": 172968.75,
      "d": 230.46875,
      "v": 127
    },
    {
      "midi": 60,
      "hit": false,
      "t": 172968.75,
      "d": 230.46875,
      "v": 124
    },
    {
      "midi": 20,
      "hit": false,
      "t": 172968.75,
      "d": 230.46875,
      "v": 127
    },
    {
      "midi": 35,
      "hit": false,
      "t": 172968.75,
      "d": 464.84375,
      "v": 127
    },
    {
      "midi": 38,
      "hit": false,
      "t": 172968.75,
      "d": 464.84375,
      "v": 127
    },
    {
      "midi": 42,
      "hit": false,
      "t": 172968.75,
      "d": 230.46875,
      "v": 127
    },
    {
      "midi": 63,
      "hit": false,
      "t": 173203.125,
      "d": 464.84375,
      "v": 127
    },
    {
      "midi": 63,
      "hit": false,
      "t": 173203.125,
      "d": 464.84375,
      "v": 124
    },
    {
      "midi": 20,
      "hit": false,
      "t": 173203.125,
      "d": 230.46875,
      "v": 127
    },
    {
      "midi": 42,
      "hit": false,
      "t": 173203.125,
      "d": 113.28125,
      "v": 127
    },
    {
      "midi": 42,
      "hit": false,
      "t": 173320.3125,
      "d": 113.28125,
      "v": 127
    },
    {
      "midi": 20,
      "hit": false,
      "t": 173437.5,
      "d": 230.46875,
      "v": 127
    },
    {
      "midi": 35,
      "hit": false,
      "t": 173437.5,
      "d": 464.84375,
      "v": 127
    },
    {
      "midi": 42,
      "hit": false,
      "t": 173437.5,
      "d": 230.46875,
      "v": 127
    },
    {
      "midi": 67,
      "hit": false,
      "t": 173671.875,
      "d": 699.21875,
      "v": 127
    },
    {
      "midi": 67,
      "hit": false,
      "t": 173671.875,
      "d": 699.21875,
      "v": 124
    },
    {
      "midi": 20,
      "hit": false,
      "t": 173671.875,
      "d": 230.46875,
      "v": 127
    },
    {
      "midi": 42,
      "hit": false,
      "t": 173671.875,
      "d": 113.28125,
      "v": 127
    },
    {
      "midi": 42,
      "hit": false,
      "t": 173789.0625,
      "d": 113.28125,
      "v": 127
    },
    {
      "midi": 20,
      "hit": false,
      "t": 173906.25,
      "d": 230.46875,
      "v": 127
    },
    {
      "midi": 35,
      "hit": false,
      "t": 173906.25,
      "d": 464.84375,
      "v": 127
    },
    {
      "midi": 38,
      "hit": false,
      "t": 173906.25,
      "d": 464.84375,
      "v": 127
    },
    {
      "midi": 42,
      "hit": false,
      "t": 173906.25,
      "d": 230.46875,
      "v": 127
    },
    {
      "midi": 20,
      "hit": false,
      "t": 174140.625,
      "d": 230.46875,
      "v": 127
    },
    {
      "midi": 42,
      "hit": false,
      "t": 174140.625,
      "d": 113.28125,
      "v": 127
    },
    {
      "midi": 42,
      "hit": false,
      "t": 174257.8125,
      "d": 113.28125,
      "v": 127
    },
    {
      "midi": 70,
      "hit": false,
      "t": 174375,
      "d": 464.84375,
      "v": 127
    },
    {
      "midi": 62,
      "hit": false,
      "t": 174375,
      "d": 1871.09375,
      "v": 127
    },
    {
      "midi": 65,
      "hit": false,
      "t": 174375,
      "d": 1871.09375,
      "v": 127
    },
    {
      "midi": 58,
      "hit": false,
      "t": 174375,
      "d": 1871.09375,
      "v": 114
    },
    {
      "midi": 70,
      "hit": false,
      "t": 174375,
      "d": 464.84375,
      "v": 124
    },
    {
      "midi": 22,
      "hit": false,
      "t": 174375,
      "d": 230.46875,
      "v": 127
    },
    {
      "midi": 35,
      "hit": false,
      "t": 174375,
      "d": 464.84375,
      "v": 127
    },
    {
      "midi": 42,
      "hit": false,
      "t": 174375,
      "d": 230.46875,
      "v": 127
    },
    {
      "midi": 22,
      "hit": false,
      "t": 174609.375,
      "d": 230.46875,
      "v": 127
    },
    {
      "midi": 42,
      "hit": false,
      "t": 174609.375,
      "d": 113.28125,
      "v": 127
    },
    {
      "midi": 42,
      "hit": false,
      "t": 174726.5625,
      "d": 113.28125,
      "v": 127
    },
    {
      "midi": 72,
      "hit": false,
      "t": 174843.75,
      "d": 230.46875,
      "v": 127
    },
    {
      "midi": 72,
      "hit": false,
      "t": 174843.75,
      "d": 230.46875,
      "v": 124
    },
    {
      "midi": 22,
      "hit": false,
      "t": 174843.75,
      "d": 230.46875,
      "v": 127
    },
    {
      "midi": 35,
      "hit": false,
      "t": 174843.75,
      "d": 464.84375,
      "v": 127
    },
    {
      "midi": 42,
      "hit": false,
      "t": 174843.75,
      "d": 230.46875,
      "v": 127
    },
    {
      "midi": 63,
      "hit": false,
      "t": 175078.125,
      "d": 464.84375,
      "v": 127
    },
    {
      "midi": 63,
      "hit": false,
      "t": 175078.125,
      "d": 464.84375,
      "v": 124
    },
    {
      "midi": 22,
      "hit": false,
      "t": 175078.125,
      "d": 230.46875,
      "v": 127
    },
    {
      "midi": 42,
      "hit": false,
      "t": 175078.125,
      "d": 113.28125,
      "v": 127
    },
    {
      "midi": 42,
      "hit": false,
      "t": 175195.3125,
      "d": 113.28125,
      "v": 127
    },
    {
      "midi": 22,
      "hit": false,
      "t": 175312.5,
      "d": 230.46875,
      "v": 127
    },
    {
      "midi": 35,
      "hit": false,
      "t": 175312.5,
      "d": 464.84375,
      "v": 127
    },
    {
      "midi": 42,
      "hit": false,
      "t": 175312.5,
      "d": 230.46875,
      "v": 127
    },
    {
      "midi": 63,
      "hit": false,
      "t": 175546.875,
      "d": 230.46875,
      "v": 127
    },
    {
      "midi": 63,
      "hit": false,
      "t": 175546.875,
      "d": 230.46875,
      "v": 124
    },
    {
      "midi": 22,
      "hit": false,
      "t": 175546.875,
      "d": 230.46875,
      "v": 127
    },
    {
      "midi": 38,
      "hit": false,
      "t": 175546.875,
      "d": 230.46875,
      "v": 127
    },
    {
      "midi": 42,
      "hit": false,
      "t": 175546.875,
      "d": 113.28125,
      "v": 127
    },
    {
      "midi": 42,
      "hit": false,
      "t": 175664.0625,
      "d": 113.28125,
      "v": 127
    },
    {
      "midi": 65,
      "hit": false,
      "t": 175781.25,
      "d": 464.84375,
      "v": 127
    },
    {
      "midi": 65,
      "hit": false,
      "t": 175781.25,
      "d": 464.84375,
      "v": 124
    },
    {
      "midi": 22,
      "hit": false,
      "t": 175781.25,
      "d": 230.46875,
      "v": 127
    },
    {
      "midi": 35,
      "hit": false,
      "t": 175781.25,
      "d": 464.84375,
      "v": 127
    },
    {
      "midi": 38,
      "hit": false,
      "t": 175781.25,
      "d": 230.46875,
      "v": 127
    },
    {
      "midi": 42,
      "hit": false,
      "t": 175781.25,
      "d": 230.46875,
      "v": 127
    },
    {
      "midi": 22,
      "hit": false,
      "t": 176015.625,
      "d": 230.46875,
      "v": 127
    },
    {
      "midi": 38,
      "hit": false,
      "t": 176015.625,
      "d": 230.46875,
      "v": 127
    },
    {
      "midi": 42,
      "hit": false,
      "t": 176015.625,
      "d": 113.28125,
      "v": 127
    },
    {
      "midi": 42,
      "hit": false,
      "t": 176132.8125,
      "d": 113.28125,
      "v": 127
    },
    {
      "midi": 67,
      "hit": false,
      "t": 176250,
      "d": 1402.34375,
      "v": 127
    },
    {
      "midi": 67,
      "hit": false,
      "t": 176250,
      "d": 1871.09375,
      "v": 127
    },
    {
      "midi": 70,
      "hit": false,
      "t": 176250,
      "d": 1871.09375,
      "v": 127
    },
    {
      "midi": 31,
      "hit": false,
      "t": 176250,
      "d": 230.46875,
      "v": 127
    },
    {
      "midi": 35,
      "hit": false,
      "t": 176250,
      "d": 464.84375,
      "v": 127
    },
    {
      "midi": 42,
      "hit": false,
      "t": 176250,
      "d": 230.46875,
      "v": 127
    },
    {
      "midi": 31,
      "hit": false,
      "t": 176484.375,
      "d": 230.46875,
      "v": 127
    },
    {
      "midi": 42,
      "hit": false,
      "t": 176484.375,
      "d": 113.28125,
      "v": 127
    },
    {
      "midi": 42,
      "hit": false,
      "t": 176601.5625,
      "d": 113.28125,
      "v": 127
    },
    {
      "midi": 31,
      "hit": false,
      "t": 176718.75,
      "d": 230.46875,
      "v": 127
    },
    {
      "midi": 35,
      "hit": false,
      "t": 176718.75,
      "d": 464.84375,
      "v": 127
    },
    {
      "midi": 42,
      "hit": false,
      "t": 176718.75,
      "d": 230.46875,
      "v": 127
    },
    {
      "midi": 31,
      "hit": false,
      "t": 176953.125,
      "d": 230.46875,
      "v": 127
    },
    {
      "midi": 42,
      "hit": false,
      "t": 176953.125,
      "d": 113.28125,
      "v": 127
    },
    {
      "midi": 42,
      "hit": false,
      "t": 177070.3125,
      "d": 113.28125,
      "v": 127
    },
    {
      "midi": 31,
      "hit": false,
      "t": 177187.5,
      "d": 230.46875,
      "v": 127
    },
    {
      "midi": 35,
      "hit": false,
      "t": 177187.5,
      "d": 464.84375,
      "v": 127
    },
    {
      "midi": 42,
      "hit": false,
      "t": 177187.5,
      "d": 230.46875,
      "v": 127
    },
    {
      "midi": 31,
      "hit": false,
      "t": 177421.875,
      "d": 230.46875,
      "v": 127
    },
    {
      "midi": 42,
      "hit": false,
      "t": 177421.875,
      "d": 113.28125,
      "v": 127
    },
    {
      "midi": 42,
      "hit": false,
      "t": 177539.0625,
      "d": 113.28125,
      "v": 127
    },
    {
      "midi": 31,
      "hit": false,
      "t": 177656.25,
      "d": 230.46875,
      "v": 127
    },
    {
      "midi": 35,
      "hit": false,
      "t": 177656.25,
      "d": 464.84375,
      "v": 127
    },
    {
      "midi": 38,
      "hit": false,
      "t": 177656.25,
      "d": 464.84375,
      "v": 127
    },
    {
      "midi": 42,
      "hit": false,
      "t": 177656.25,
      "d": 230.46875,
      "v": 127
    },
    {
      "midi": 31,
      "hit": false,
      "t": 177890.625,
      "d": 230.46875,
      "v": 127
    },
    {
      "midi": 42,
      "hit": false,
      "t": 177890.625,
      "d": 113.28125,
      "v": 127
    },
    {
      "midi": 42,
      "hit": false,
      "t": 178007.8125,
      "d": 113.28125,
      "v": 127
    },
    {
      "midi": 68,
      "hit": false,
      "t": 178125,
      "d": 1871.09375,
      "v": 127
    },
    {
      "midi": 72,
      "hit": false,
      "t": 178125,
      "d": 1871.09375,
      "v": 127
    },
    {
      "midi": 32,
      "hit": false,
      "t": 178125,
      "d": 230.46875,
      "v": 127
    },
    {
      "midi": 35,
      "hit": false,
      "t": 178125,
      "d": 464.84375,
      "v": 127
    },
    {
      "midi": 42,
      "hit": false,
      "t": 178125,
      "d": 230.46875,
      "v": 127
    },
    {
      "midi": 32,
      "hit": false,
      "t": 178359.375,
      "d": 230.46875,
      "v": 127
    },
    {
      "midi": 42,
      "hit": false,
      "t": 178359.375,
      "d": 113.28125,
      "v": 127
    },
    {
      "midi": 42,
      "hit": false,
      "t": 178476.5625,
      "d": 113.28125,
      "v": 127
    },
    {
      "midi": 32,
      "hit": false,
      "t": 178593.75,
      "d": 230.46875,
      "v": 127
    },
    {
      "midi": 35,
      "hit": false,
      "t": 178593.75,
      "d": 464.84375,
      "v": 127
    },
    {
      "midi": 42,
      "hit": false,
      "t": 178593.75,
      "d": 230.46875,
      "v": 127
    },
    {
      "midi": 32,
      "hit": false,
      "t": 178828.125,
      "d": 230.46875,
      "v": 127
    },
    {
      "midi": 42,
      "hit": false,
      "t": 178828.125,
      "d": 113.28125,
      "v": 127
    },
    {
      "midi": 42,
      "hit": false,
      "t": 178945.3125,
      "d": 113.28125,
      "v": 127
    },
    {
      "midi": 32,
      "hit": false,
      "t": 179062.5,
      "d": 230.46875,
      "v": 127
    },
    {
      "midi": 35,
      "hit": false,
      "t": 179062.5,
      "d": 464.84375,
      "v": 127
    },
    {
      "midi": 42,
      "hit": false,
      "t": 179062.5,
      "d": 230.46875,
      "v": 127
    },
    {
      "midi": 32,
      "hit": false,
      "t": 179296.875,
      "d": 230.46875,
      "v": 127
    },
    {
      "midi": 42,
      "hit": false,
      "t": 179296.875,
      "d": 113.28125,
      "v": 127
    },
    {
      "midi": 42,
      "hit": false,
      "t": 179414.0625,
      "d": 113.28125,
      "v": 127
    },
    {
      "midi": 32,
      "hit": false,
      "t": 179531.25,
      "d": 230.46875,
      "v": 127
    },
    {
      "midi": 35,
      "hit": false,
      "t": 179531.25,
      "d": 464.84375,
      "v": 127
    },
    {
      "midi": 38,
      "hit": false,
      "t": 179531.25,
      "d": 464.84375,
      "v": 127
    },
    {
      "midi": 42,
      "hit": false,
      "t": 179531.25,
      "d": 230.46875,
      "v": 127
    },
    {
      "midi": 32,
      "hit": false,
      "t": 179765.625,
      "d": 230.46875,
      "v": 127
    },
    {
      "midi": 42,
      "hit": false,
      "t": 179765.625,
      "d": 113.28125,
      "v": 127
    },
    {
      "midi": 42,
      "hit": false,
      "t": 179882.8125,
      "d": 113.28125,
      "v": 127
    },
    {
      "midi": 70,
      "hit": false,
      "t": 180000,
      "d": 1871.09375,
      "v": 127
    },
    {
      "midi": 74,
      "hit": false,
      "t": 180000,
      "d": 1871.09375,
      "v": 127
    },
    {
      "midi": 34,
      "hit": false,
      "t": 180000,
      "d": 230.46875,
      "v": 127
    },
    {
      "midi": 35,
      "hit": false,
      "t": 180000,
      "d": 464.84375,
      "v": 127
    },
    {
      "midi": 42,
      "hit": false,
      "t": 180000,
      "d": 230.46875,
      "v": 127
    },
    {
      "midi": 34,
      "hit": false,
      "t": 180234.375,
      "d": 230.46875,
      "v": 127
    },
    {
      "midi": 42,
      "hit": false,
      "t": 180234.375,
      "d": 113.28125,
      "v": 127
    },
    {
      "midi": 42,
      "hit": false,
      "t": 180351.5625,
      "d": 113.28125,
      "v": 127
    },
    {
      "midi": 34,
      "hit": false,
      "t": 180468.75,
      "d": 230.46875,
      "v": 127
    },
    {
      "midi": 35,
      "hit": false,
      "t": 180468.75,
      "d": 464.84375,
      "v": 127
    },
    {
      "midi": 42,
      "hit": false,
      "t": 180468.75,
      "d": 230.46875,
      "v": 127
    },
    {
      "midi": 34,
      "hit": false,
      "t": 180703.125,
      "d": 230.46875,
      "v": 127
    },
    {
      "midi": 42,
      "hit": false,
      "t": 180703.125,
      "d": 113.28125,
      "v": 127
    },
    {
      "midi": 42,
      "hit": false,
      "t": 180820.3125,
      "d": 113.28125,
      "v": 127
    },
    {
      "midi": 34,
      "hit": false,
      "t": 180937.5,
      "d": 230.46875,
      "v": 127
    },
    {
      "midi": 35,
      "hit": false,
      "t": 180937.5,
      "d": 464.84375,
      "v": 127
    },
    {
      "midi": 42,
      "hit": false,
      "t": 180937.5,
      "d": 230.46875,
      "v": 127
    },
    {
      "midi": 34,
      "hit": false,
      "t": 181171.875,
      "d": 230.46875,
      "v": 127
    },
    {
      "midi": 42,
      "hit": false,
      "t": 181171.875,
      "d": 113.28125,
      "v": 127
    },
    {
      "midi": 42,
      "hit": false,
      "t": 181289.0625,
      "d": 113.28125,
      "v": 127
    },
    {
      "midi": 34,
      "hit": false,
      "t": 181406.25,
      "d": 230.46875,
      "v": 127
    },
    {
      "midi": 35,
      "hit": false,
      "t": 181406.25,
      "d": 464.84375,
      "v": 127
    },
    {
      "midi": 38,
      "hit": false,
      "t": 181406.25,
      "d": 464.84375,
      "v": 127
    },
    {
      "midi": 42,
      "hit": false,
      "t": 181406.25,
      "d": 230.46875,
      "v": 127
    },
    {
      "midi": 34,
      "hit": false,
      "t": 181640.625,
      "d": 230.46875,
      "v": 127
    },
    {
      "midi": 42,
      "hit": false,
      "t": 181640.625,
      "d": 113.28125,
      "v": 127
    },
    {
      "midi": 42,
      "hit": false,
      "t": 181757.8125,
      "d": 113.28125,
      "v": 127
    },
    {
      "midi": 71,
      "hit": false,
      "t": 181875,
      "d": 933.59375,
      "v": 127
    },
    {
      "midi": 74,
      "hit": false,
      "t": 181875,
      "d": 933.59375,
      "v": 127
    },
    {
      "midi": 35,
      "hit": false,
      "t": 181875,
      "d": 230.46875,
      "v": 127
    },
    {
      "midi": 35,
      "hit": false,
      "t": 181875,
      "d": 230.46875,
      "v": 127
    },
    {
      "midi": 42,
      "hit": false,
      "t": 181875,
      "d": 230.46875,
      "v": 127
    },
    {
      "midi": 35,
      "hit": false,
      "t": 182109.375,
      "d": 230.46875,
      "v": 127
    },
    {
      "midi": 35,
      "hit": false,
      "t": 182109.375,
      "d": 230.46875,
      "v": 127
    },
    {
      "midi": 42,
      "hit": false,
      "t": 182109.375,
      "d": 113.28125,
      "v": 127
    },
    {
      "midi": 42,
      "hit": false,
      "t": 182226.5625,
      "d": 113.28125,
      "v": 127
    },
    {
      "midi": 35,
      "hit": false,
      "t": 182343.75,
      "d": 230.46875,
      "v": 127
    },
    {
      "midi": 35,
      "hit": false,
      "t": 182343.75,
      "d": 230.46875,
      "v": 127
    },
    {
      "midi": 42,
      "hit": false,
      "t": 182343.75,
      "d": 230.46875,
      "v": 127
    },
    {
      "midi": 35,
      "hit": false,
      "t": 182578.125,
      "d": 230.46875,
      "v": 127
    },
    {
      "midi": 35,
      "hit": false,
      "t": 182578.125,
      "d": 230.46875,
      "v": 127
    },
    {
      "midi": 42,
      "hit": false,
      "t": 182578.125,
      "d": 113.28125,
      "v": 127
    },
    {
      "midi": 42,
      "hit": false,
      "t": 182695.3125,
      "d": 113.28125,
      "v": 127
    },
    {
      "midi": 63,
      "hit": false,
      "t": 182812.5,
      "d": 464.84375,
      "v": 127
    },
    {
      "midi": 72,
      "hit": false,
      "t": 182812.5,
      "d": 933.59375,
      "v": 127
    },
    {
      "midi": 75,
      "hit": false,
      "t": 182812.5,
      "d": 933.59375,
      "v": 127
    },
    {
      "midi": 36,
      "hit": false,
      "t": 182812.5,
      "d": 230.46875,
      "v": 127
    },
    {
      "midi": 35,
      "hit": false,
      "t": 182812.5,
      "d": 230.46875,
      "v": 127
    },
    {
      "midi": 38,
      "hit": false,
      "t": 182812.5,
      "d": 230.46875,
      "v": 127
    },
    {
      "midi": 42,
      "hit": false,
      "t": 182812.5,
      "d": 230.46875,
      "v": 127
    },
    {
      "midi": 36,
      "hit": false,
      "t": 183046.875,
      "d": 230.46875,
      "v": 127
    },
    {
      "midi": 35,
      "hit": false,
      "t": 183046.875,
      "d": 230.46875,
      "v": 127
    },
    {
      "midi": 38,
      "hit": false,
      "t": 183046.875,
      "d": 230.46875,
      "v": 127
    },
    {
      "midi": 42,
      "hit": false,
      "t": 183046.875,
      "d": 113.28125,
      "v": 127
    },
    {
      "midi": 42,
      "hit": false,
      "t": 183164.0625,
      "d": 113.28125,
      "v": 127
    },
    {
      "midi": 65,
      "hit": false,
      "t": 183281.25,
      "d": 464.84375,
      "v": 127
    },
    {
      "midi": 36,
      "hit": false,
      "t": 183281.25,
      "d": 230.46875,
      "v": 127
    },
    {
      "midi": 35,
      "hit": false,
      "t": 183281.25,
      "d": 230.46875,
      "v": 127
    },
    {
      "midi": 38,
      "hit": false,
      "t": 183281.25,
      "d": 230.46875,
      "v": 127
    },
    {
      "midi": 42,
      "hit": false,
      "t": 183281.25,
      "d": 230.46875,
      "v": 127
    },
    {
      "midi": 36,
      "hit": false,
      "t": 183515.625,
      "d": 230.46875,
      "v": 127
    },
    {
      "midi": 35,
      "hit": false,
      "t": 183515.625,
      "d": 230.46875,
      "v": 127
    },
    {
      "midi": 38,
      "hit": false,
      "t": 183515.625,
      "d": 230.46875,
      "v": 127
    },
    {
      "midi": 42,
      "hit": false,
      "t": 183515.625,
      "d": 113.28125,
      "v": 127
    },
    {
      "midi": 42,
      "hit": false,
      "t": 183632.8125,
      "d": 113.28125,
      "v": 127
    },
    {
      "midi": 67,
      "hit": false,
      "t": 183750,
      "d": 699.21875,
      "v": 127
    },
    {
      "midi": 63,
      "hit": false,
      "t": 183750,
      "d": 3746.09375,
      "v": 127
    },
    {
      "midi": 82,
      "hit": false,
      "t": 183750,
      "d": 230.46875,
      "v": 114
    },
    {
      "midi": 75,
      "hit": false,
      "t": 183750,
      "d": 230.46875,
      "v": 124
    },
    {
      "midi": 27,
      "hit": false,
      "t": 183750,
      "d": 230.46875,
      "v": 127
    },
    {
      "midi": 35,
      "hit": false,
      "t": 183750,
      "d": 464.84375,
      "v": 127
    },
    {
      "midi": 42,
      "hit": false,
      "t": 183750,
      "d": 230.46875,
      "v": 127
    },
    {
      "midi": 82,
      "hit": false,
      "t": 183984.375,
      "d": 230.46875,
      "v": 114
    },
    {
      "midi": 75,
      "hit": false,
      "t": 183984.375,
      "d": 230.46875,
      "v": 124
    },
    {
      "midi": 27,
      "hit": false,
      "t": 183984.375,
      "d": 230.46875,
      "v": 127
    },
    {
      "midi": 42,
      "hit": false,
      "t": 183984.375,
      "d": 113.28125,
      "v": 127
    },
    {
      "midi": 42,
      "hit": false,
      "t": 184101.5625,
      "d": 113.28125,
      "v": 127
    },
    {
      "midi": 82,
      "hit": false,
      "t": 184218.75,
      "d": 230.46875,
      "v": 114
    },
    {
      "midi": 75,
      "hit": false,
      "t": 184218.75,
      "d": 230.46875,
      "v": 124
    },
    {
      "midi": 27,
      "hit": false,
      "t": 184218.75,
      "d": 230.46875,
      "v": 127
    },
    {
      "midi": 35,
      "hit": false,
      "t": 184218.75,
      "d": 464.84375,
      "v": 127
    },
    {
      "midi": 38,
      "hit": false,
      "t": 184218.75,
      "d": 464.84375,
      "v": 127
    },
    {
      "midi": 42,
      "hit": false,
      "t": 184218.75,
      "d": 230.46875,
      "v": 127
    },
    {
      "midi": 63,
      "hit": false,
      "t": 184453.125,
      "d": 230.46875,
      "v": 127
    },
    {
      "midi": 79,
      "hit": false,
      "t": 184453.125,
      "d": 230.46875,
      "v": 114
    },
    {
      "midi": 75,
      "hit": false,
      "t": 184453.125,
      "d": 230.46875,
      "v": 124
    },
    {
      "midi": 27,
      "hit": false,
      "t": 184453.125,
      "d": 230.46875,
      "v": 127
    },
    {
      "midi": 42,
      "hit": false,
      "t": 184453.125,
      "d": 113.28125,
      "v": 127
    },
    {
      "midi": 42,
      "hit": false,
      "t": 184570.3125,
      "d": 113.28125,
      "v": 127
    },
    {
      "midi": 70,
      "hit": false,
      "t": 184687.5,
      "d": 933.59375,
      "v": 127
    },
    {
      "midi": 82,
      "hit": false,
      "t": 184687.5,
      "d": 699.21875,
      "v": 114
    },
    {
      "midi": 75,
      "hit": false,
      "t": 184687.5,
      "d": 699.21875,
      "v": 124
    },
    {
      "midi": 27,
      "hit": false,
      "t": 184687.5,
      "d": 230.46875,
      "v": 127
    },
    {
      "midi": 35,
      "hit": false,
      "t": 184687.5,
      "d": 464.84375,
      "v": 127
    },
    {
      "midi": 42,
      "hit": false,
      "t": 184687.5,
      "d": 230.46875,
      "v": 127
    },
    {
      "midi": 27,
      "hit": false,
      "t": 184921.875,
      "d": 230.46875,
      "v": 127
    },
    {
      "midi": 42,
      "hit": false,
      "t": 184921.875,
      "d": 113.28125,
      "v": 127
    },
    {
      "midi": 42,
      "hit": false,
      "t": 185039.0625,
      "d": 113.28125,
      "v": 127
    },
    {
      "midi": 27,
      "hit": false,
      "t": 185156.25,
      "d": 230.46875,
      "v": 127
    },
    {
      "midi": 35,
      "hit": false,
      "t": 185156.25,
      "d": 464.84375,
      "v": 127
    },
    {
      "midi": 38,
      "hit": false,
      "t": 185156.25,
      "d": 464.84375,
      "v": 127
    },
    {
      "midi": 42,
      "hit": false,
      "t": 185156.25,
      "d": 230.46875,
      "v": 127
    },
    {
      "midi": 27,
      "hit": false,
      "t": 185390.625,
      "d": 230.46875,
      "v": 127
    },
    {
      "midi": 42,
      "hit": false,
      "t": 185390.625,
      "d": 113.28125,
      "v": 127
    },
    {
      "midi": 42,
      "hit": false,
      "t": 185507.8125,
      "d": 113.28125,
      "v": 127
    },
    {
      "midi": 70,
      "hit": false,
      "t": 185625,
      "d": 230.46875,
      "v": 127
    },
    {
      "midi": 70,
      "hit": false,
      "t": 185625,
      "d": 230.46875,
      "v": 127
    },
    {
      "midi": 79,
      "hit": false,
      "t": 185625,
      "d": 464.84375,
      "v": 114
    },
    {
      "midi": 75,
      "hit": false,
      "t": 185625,
      "d": 464.84375,
      "v": 124
    },
    {
      "midi": 27,
      "hit": false,
      "t": 185625,
      "d": 230.46875,
      "v": 127
    },
    {
      "midi": 35,
      "hit": false,
      "t": 185625,
      "d": 464.84375,
      "v": 127
    },
    {
      "midi": 42,
      "hit": false,
      "t": 185625,
      "d": 230.46875,
      "v": 127
    },
    {
      "midi": 72,
      "hit": false,
      "t": 185859.375,
      "d": 230.46875,
      "v": 127
    },
    {
      "midi": 72,
      "hit": false,
      "t": 185859.375,
      "d": 230.46875,
      "v": 127
    },
    {
      "midi": 27,
      "hit": false,
      "t": 185859.375,
      "d": 230.46875,
      "v": 127
    },
    {
      "midi": 42,
      "hit": false,
      "t": 185859.375,
      "d": 113.28125,
      "v": 127
    },
    {
      "midi": 42,
      "hit": false,
      "t": 185976.5625,
      "d": 113.28125,
      "v": 127
    },
    {
      "midi": 70,
      "hit": false,
      "t": 186093.75,
      "d": 230.46875,
      "v": 127
    },
    {
      "midi": 70,
      "hit": false,
      "t": 186093.75,
      "d": 230.46875,
      "v": 127
    },
    {
      "midi": 79,
      "hit": false,
      "t": 186093.75,
      "d": 464.84375,
      "v": 114
    },
    {
      "midi": 75,
      "hit": false,
      "t": 186093.75,
      "d": 464.84375,
      "v": 124
    },
    {
      "midi": 27,
      "hit": false,
      "t": 186093.75,
      "d": 230.46875,
      "v": 127
    },
    {
      "midi": 35,
      "hit": false,
      "t": 186093.75,
      "d": 464.84375,
      "v": 127
    },
    {
      "midi": 38,
      "hit": false,
      "t": 186093.75,
      "d": 464.84375,
      "v": 127
    },
    {
      "midi": 42,
      "hit": false,
      "t": 186093.75,
      "d": 230.46875,
      "v": 127
    },
    {
      "midi": 72,
      "hit": false,
      "t": 186328.125,
      "d": 230.46875,
      "v": 127
    },
    {
      "midi": 72,
      "hit": false,
      "t": 186328.125,
      "d": 230.46875,
      "v": 127
    },
    {
      "midi": 27,
      "hit": false,
      "t": 186328.125,
      "d": 230.46875,
      "v": 127
    },
    {
      "midi": 42,
      "hit": false,
      "t": 186328.125,
      "d": 113.28125,
      "v": 127
    },
    {
      "midi": 42,
      "hit": false,
      "t": 186445.3125,
      "d": 113.28125,
      "v": 127
    },
    {
      "midi": 70,
      "hit": false,
      "t": 186562.5,
      "d": 464.84375,
      "v": 127
    },
    {
      "midi": 70,
      "hit": false,
      "t": 186562.5,
      "d": 464.84375,
      "v": 127
    },
    {
      "midi": 82,
      "hit": false,
      "t": 186562.5,
      "d": 230.46875,
      "v": 114
    },
    {
      "midi": 75,
      "hit": false,
      "t": 186562.5,
      "d": 230.46875,
      "v": 124
    },
    {
      "midi": 27,
      "hit": false,
      "t": 186562.5,
      "d": 230.46875,
      "v": 127
    },
    {
      "midi": 35,
      "hit": false,
      "t": 186562.5,
      "d": 464.84375,
      "v": 127
    },
    {
      "midi": 42,
      "hit": false,
      "t": 186562.5,
      "d": 230.46875,
      "v": 127
    },
    {
      "midi": 79,
      "hit": false,
      "t": 186796.875,
      "d": 699.21875,
      "v": 114
    },
    {
      "midi": 75,
      "hit": false,
      "t": 186796.875,
      "d": 699.21875,
      "v": 124
    },
    {
      "midi": 27,
      "hit": false,
      "t": 186796.875,
      "d": 230.46875,
      "v": 127
    },
    {
      "midi": 42,
      "hit": false,
      "t": 186796.875,
      "d": 113.28125,
      "v": 127
    },
    {
      "midi": 42,
      "hit": false,
      "t": 186914.0625,
      "d": 113.28125,
      "v": 127
    },
    {
      "midi": 63,
      "hit": false,
      "t": 187031.25,
      "d": 230.46875,
      "v": 127
    },
    {
      "midi": 27,
      "hit": false,
      "t": 187031.25,
      "d": 230.46875,
      "v": 127
    },
    {
      "midi": 35,
      "hit": false,
      "t": 187031.25,
      "d": 464.84375,
      "v": 127
    },
    {
      "midi": 38,
      "hit": false,
      "t": 187031.25,
      "d": 464.84375,
      "v": 127
    },
    {
      "midi": 42,
      "hit": false,
      "t": 187031.25,
      "d": 230.46875,
      "v": 127
    },
    {
      "midi": 65,
      "hit": false,
      "t": 187265.625,
      "d": 230.46875,
      "v": 127
    },
    {
      "midi": 27,
      "hit": false,
      "t": 187265.625,
      "d": 230.46875,
      "v": 127
    },
    {
      "midi": 42,
      "hit": false,
      "t": 187265.625,
      "d": 113.28125,
      "v": 127
    },
    {
      "midi": 42,
      "hit": false,
      "t": 187382.8125,
      "d": 113.28125,
      "v": 127
    },
    {
      "midi": 67,
      "hit": false,
      "t": 187500,
      "d": 699.21875,
      "v": 127
    },
    {
      "midi": 62,
      "hit": false,
      "t": 187500,
      "d": 1871.09375,
      "v": 127
    },
    {
      "midi": 82,
      "hit": false,
      "t": 187500,
      "d": 230.46875,
      "v": 114
    },
    {
      "midi": 74,
      "hit": false,
      "t": 187500,
      "d": 230.46875,
      "v": 124
    },
    {
      "midi": 26,
      "hit": false,
      "t": 187500,
      "d": 230.46875,
      "v": 127
    },
    {
      "midi": 35,
      "hit": false,
      "t": 187500,
      "d": 464.84375,
      "v": 127
    },
    {
      "midi": 42,
      "hit": false,
      "t": 187500,
      "d": 230.46875,
      "v": 127
    },
    {
      "midi": 82,
      "hit": false,
      "t": 187734.375,
      "d": 230.46875,
      "v": 114
    },
    {
      "midi": 74,
      "hit": false,
      "t": 187734.375,
      "d": 230.46875,
      "v": 124
    },
    {
      "midi": 26,
      "hit": false,
      "t": 187734.375,
      "d": 230.46875,
      "v": 127
    },
    {
      "midi": 42,
      "hit": false,
      "t": 187734.375,
      "d": 113.28125,
      "v": 127
    },
    {
      "midi": 42,
      "hit": false,
      "t": 187851.5625,
      "d": 113.28125,
      "v": 127
    },
    {
      "midi": 82,
      "hit": false,
      "t": 187968.75,
      "d": 230.46875,
      "v": 114
    },
    {
      "midi": 74,
      "hit": false,
      "t": 187968.75,
      "d": 230.46875,
      "v": 124
    },
    {
      "midi": 26,
      "hit": false,
      "t": 187968.75,
      "d": 230.46875,
      "v": 127
    },
    {
      "midi": 35,
      "hit": false,
      "t": 187968.75,
      "d": 464.84375,
      "v": 127
    },
    {
      "midi": 38,
      "hit": false,
      "t": 187968.75,
      "d": 464.84375,
      "v": 127
    },
    {
      "midi": 42,
      "hit": false,
      "t": 187968.75,
      "d": 230.46875,
      "v": 127
    },
    {
      "midi": 63,
      "hit": false,
      "t": 188203.125,
      "d": 230.46875,
      "v": 127
    },
    {
      "midi": 79,
      "hit": false,
      "t": 188203.125,
      "d": 230.46875,
      "v": 114
    },
    {
      "midi": 74,
      "hit": false,
      "t": 188203.125,
      "d": 230.46875,
      "v": 124
    },
    {
      "midi": 26,
      "hit": false,
      "t": 188203.125,
      "d": 230.46875,
      "v": 127
    },
    {
      "midi": 42,
      "hit": false,
      "t": 188203.125,
      "d": 113.28125,
      "v": 127
    },
    {
      "midi": 42,
      "hit": false,
      "t": 188320.3125,
      "d": 113.28125,
      "v": 127
    },
    {
      "midi": 70,
      "hit": false,
      "t": 188437.5,
      "d": 933.59375,
      "v": 127
    },
    {
      "midi": 82,
      "hit": false,
      "t": 188437.5,
      "d": 816.40625,
      "v": 114
    },
    {
      "midi": 74,
      "hit": false,
      "t": 188437.5,
      "d": 816.40625,
      "v": 124
    },
    {
      "midi": 26,
      "hit": false,
      "t": 188437.5,
      "d": 230.46875,
      "v": 127
    },
    {
      "midi": 35,
      "hit": false,
      "t": 188437.5,
      "d": 464.84375,
      "v": 127
    },
    {
      "midi": 42,
      "hit": false,
      "t": 188437.5,
      "d": 230.46875,
      "v": 127
    },
    {
      "midi": 26,
      "hit": false,
      "t": 188671.875,
      "d": 230.46875,
      "v": 127
    },
    {
      "midi": 42,
      "hit": false,
      "t": 188671.875,
      "d": 113.28125,
      "v": 127
    },
    {
      "midi": 42,
      "hit": false,
      "t": 188789.0625,
      "d": 113.28125,
      "v": 127
    },
    {
      "midi": 26,
      "hit": false,
      "t": 188906.25,
      "d": 230.46875,
      "v": 127
    },
    {
      "midi": 35,
      "hit": false,
      "t": 188906.25,
      "d": 464.84375,
      "v": 127
    },
    {
      "midi": 38,
      "hit": false,
      "t": 188906.25,
      "d": 464.84375,
      "v": 127
    },
    {
      "midi": 42,
      "hit": false,
      "t": 188906.25,
      "d": 230.46875,
      "v": 127
    },
    {
      "midi": 26,
      "hit": false,
      "t": 189140.625,
      "d": 230.46875,
      "v": 127
    },
    {
      "midi": 42,
      "hit": false,
      "t": 189140.625,
      "d": 113.28125,
      "v": 127
    },
    {
      "midi": 42,
      "hit": false,
      "t": 189257.8125,
      "d": 113.28125,
      "v": 127
    },
    {
      "midi": 70,
      "hit": false,
      "t": 189375,
      "d": 230.46875,
      "v": 127
    },
    {
      "midi": 70,
      "hit": false,
      "t": 189375,
      "d": 230.46875,
      "v": 127
    },
    {
      "midi": 58,
      "hit": false,
      "t": 189375,
      "d": 933.59375,
      "v": 127
    },
    {
      "midi": 79,
      "hit": false,
      "t": 189375,
      "d": 464.84375,
      "v": 114
    },
    {
      "midi": 74,
      "hit": false,
      "t": 189375,
      "d": 464.84375,
      "v": 124
    },
    {
      "midi": 22,
      "hit": false,
      "t": 189375,
      "d": 230.46875,
      "v": 127
    },
    {
      "midi": 35,
      "hit": false,
      "t": 189375,
      "d": 464.84375,
      "v": 127
    },
    {
      "midi": 42,
      "hit": false,
      "t": 189375,
      "d": 230.46875,
      "v": 127
    },
    {
      "midi": 72,
      "hit": false,
      "t": 189609.375,
      "d": 230.46875,
      "v": 127
    },
    {
      "midi": 72,
      "hit": false,
      "t": 189609.375,
      "d": 230.46875,
      "v": 127
    },
    {
      "midi": 22,
      "hit": false,
      "t": 189609.375,
      "d": 230.46875,
      "v": 127
    },
    {
      "midi": 42,
      "hit": false,
      "t": 189609.375,
      "d": 113.28125,
      "v": 127
    },
    {
      "midi": 42,
      "hit": false,
      "t": 189726.5625,
      "d": 113.28125,
      "v": 127
    },
    {
      "midi": 70,
      "hit": false,
      "t": 189843.75,
      "d": 230.46875,
      "v": 127
    },
    {
      "midi": 70,
      "hit": false,
      "t": 189843.75,
      "d": 230.46875,
      "v": 127
    },
    {
      "midi": 79,
      "hit": false,
      "t": 189843.75,
      "d": 464.84375,
      "v": 114
    },
    {
      "midi": 74,
      "hit": false,
      "t": 189843.75,
      "d": 464.84375,
      "v": 124
    },
    {
      "midi": 22,
      "hit": false,
      "t": 189843.75,
      "d": 230.46875,
      "v": 127
    },
    {
      "midi": 35,
      "hit": false,
      "t": 189843.75,
      "d": 464.84375,
      "v": 127
    },
    {
      "midi": 38,
      "hit": false,
      "t": 189843.75,
      "d": 464.84375,
      "v": 127
    },
    {
      "midi": 42,
      "hit": false,
      "t": 189843.75,
      "d": 230.46875,
      "v": 127
    },
    {
      "midi": 72,
      "hit": false,
      "t": 190078.125,
      "d": 230.46875,
      "v": 127
    },
    {
      "midi": 72,
      "hit": false,
      "t": 190078.125,
      "d": 230.46875,
      "v": 127
    },
    {
      "midi": 22,
      "hit": false,
      "t": 190078.125,
      "d": 230.46875,
      "v": 127
    },
    {
      "midi": 42,
      "hit": false,
      "t": 190078.125,
      "d": 113.28125,
      "v": 127
    },
    {
      "midi": 42,
      "hit": false,
      "t": 190195.3125,
      "d": 113.28125,
      "v": 127
    },
    {
      "midi": 70,
      "hit": false,
      "t": 190312.5,
      "d": 464.84375,
      "v": 127
    },
    {
      "midi": 70,
      "hit": false,
      "t": 190312.5,
      "d": 464.84375,
      "v": 127
    },
    {
      "midi": 60,
      "hit": false,
      "t": 190312.5,
      "d": 933.59375,
      "v": 127
    },
    {
      "midi": 82,
      "hit": false,
      "t": 190312.5,
      "d": 230.46875,
      "v": 114
    },
    {
      "midi": 74,
      "hit": false,
      "t": 190312.5,
      "d": 230.46875,
      "v": 124
    },
    {
      "midi": 24,
      "hit": false,
      "t": 190312.5,
      "d": 230.46875,
      "v": 127
    },
    {
      "midi": 35,
      "hit": false,
      "t": 190312.5,
      "d": 464.84375,
      "v": 127
    },
    {
      "midi": 42,
      "hit": false,
      "t": 190312.5,
      "d": 230.46875,
      "v": 127
    },
    {
      "midi": 79,
      "hit": false,
      "t": 190546.875,
      "d": 699.21875,
      "v": 114
    },
    {
      "midi": 74,
      "hit": false,
      "t": 190546.875,
      "d": 699.21875,
      "v": 124
    },
    {
      "midi": 24,
      "hit": false,
      "t": 190546.875,
      "d": 230.46875,
      "v": 127
    },
    {
      "midi": 42,
      "hit": false,
      "t": 190546.875,
      "d": 113.28125,
      "v": 127
    },
    {
      "midi": 42,
      "hit": false,
      "t": 190664.0625,
      "d": 113.28125,
      "v": 127
    },
    {
      "midi": 67,
      "hit": false,
      "t": 190781.25,
      "d": 230.46875,
      "v": 127
    },
    {
      "midi": 24,
      "hit": false,
      "t": 190781.25,
      "d": 230.46875,
      "v": 127
    },
    {
      "midi": 35,
      "hit": false,
      "t": 190781.25,
      "d": 464.84375,
      "v": 127
    },
    {
      "midi": 38,
      "hit": false,
      "t": 190781.25,
      "d": 464.84375,
      "v": 127
    },
    {
      "midi": 42,
      "hit": false,
      "t": 190781.25,
      "d": 230.46875,
      "v": 127
    },
    {
      "midi": 70,
      "hit": false,
      "t": 191015.625,
      "d": 230.46875,
      "v": 127
    },
    {
      "midi": 24,
      "hit": false,
      "t": 191015.625,
      "d": 230.46875,
      "v": 127
    },
    {
      "midi": 42,
      "hit": false,
      "t": 191015.625,
      "d": 113.28125,
      "v": 127
    },
    {
      "midi": 42,
      "hit": false,
      "t": 191132.8125,
      "d": 113.28125,
      "v": 127
    },
    {
      "midi": 72,
      "hit": false,
      "t": 191250,
      "d": 464.84375,
      "v": 127
    },
    {
      "midi": 68,
      "hit": false,
      "t": 191250,
      "d": 1871.09375,
      "v": 127
    },
    {
      "midi": 63,
      "hit": false,
      "t": 191250,
      "d": 1871.09375,
      "v": 127
    },
    {
      "midi": 60,
      "hit": false,
      "t": 191250,
      "d": 1871.09375,
      "v": 114
    },
    {
      "midi": 32,
      "hit": false,
      "t": 191250,
      "d": 230.46875,
      "v": 127
    },
    {
      "midi": 35,
      "hit": false,
      "t": 191250,
      "d": 464.84375,
      "v": 127
    },
    {
      "midi": 42,
      "hit": false,
      "t": 191250,
      "d": 230.46875,
      "v": 127
    },
    {
      "midi": 32,
      "hit": false,
      "t": 191484.375,
      "d": 230.46875,
      "v": 127
    },
    {
      "midi": 42,
      "hit": false,
      "t": 191484.375,
      "d": 113.28125,
      "v": 127
    },
    {
      "midi": 42,
      "hit": false,
      "t": 191601.5625,
      "d": 113.28125,
      "v": 127
    },
    {
      "midi": 72,
      "hit": false,
      "t": 191718.75,
      "d": 230.46875,
      "v": 127
    },
    {
      "midi": 32,
      "hit": false,
      "t": 191718.75,
      "d": 230.46875,
      "v": 127
    },
    {
      "midi": 35,
      "hit": false,
      "t": 191718.75,
      "d": 464.84375,
      "v": 127
    },
    {
      "midi": 38,
      "hit": false,
      "t": 191718.75,
      "d": 464.84375,
      "v": 127
    },
    {
      "midi": 42,
      "hit": false,
      "t": 191718.75,
      "d": 230.46875,
      "v": 127
    },
    {
      "midi": 72,
      "hit": false,
      "t": 191953.125,
      "d": 464.84375,
      "v": 127
    },
    {
      "midi": 32,
      "hit": false,
      "t": 191953.125,
      "d": 230.46875,
      "v": 127
    },
    {
      "midi": 42,
      "hit": false,
      "t": 191953.125,
      "d": 113.28125,
      "v": 127
    },
    {
      "midi": 42,
      "hit": false,
      "t": 192070.3125,
      "d": 113.28125,
      "v": 127
    },
    {
      "midi": 32,
      "hit": false,
      "t": 192187.5,
      "d": 230.46875,
      "v": 127
    },
    {
      "midi": 35,
      "hit": false,
      "t": 192187.5,
      "d": 464.84375,
      "v": 127
    },
    {
      "midi": 42,
      "hit": false,
      "t": 192187.5,
      "d": 230.46875,
      "v": 127
    },
    {
      "midi": 72,
      "hit": false,
      "t": 192421.875,
      "d": 699.21875,
      "v": 127
    },
    {
      "midi": 32,
      "hit": false,
      "t": 192421.875,
      "d": 230.46875,
      "v": 127
    },
    {
      "midi": 42,
      "hit": false,
      "t": 192421.875,
      "d": 113.28125,
      "v": 127
    },
    {
      "midi": 42,
      "hit": false,
      "t": 192539.0625,
      "d": 113.28125,
      "v": 127
    },
    {
      "midi": 32,
      "hit": false,
      "t": 192656.25,
      "d": 230.46875,
      "v": 127
    },
    {
      "midi": 35,
      "hit": false,
      "t": 192656.25,
      "d": 464.84375,
      "v": 127
    },
    {
      "midi": 38,
      "hit": false,
      "t": 192656.25,
      "d": 464.84375,
      "v": 127
    },
    {
      "midi": 42,
      "hit": false,
      "t": 192656.25,
      "d": 230.46875,
      "v": 127
    },
    {
      "midi": 32,
      "hit": false,
      "t": 192890.625,
      "d": 230.46875,
      "v": 127
    },
    {
      "midi": 42,
      "hit": false,
      "t": 192890.625,
      "d": 113.28125,
      "v": 127
    },
    {
      "midi": 42,
      "hit": false,
      "t": 193007.8125,
      "d": 113.28125,
      "v": 127
    },
    {
      "midi": 72,
      "hit": false,
      "t": 193125,
      "d": 464.84375,
      "v": 127
    },
    {
      "midi": 68,
      "hit": false,
      "t": 193125,
      "d": 699.21875,
      "v": 127
    },
    {
      "midi": 63,
      "hit": false,
      "t": 193125,
      "d": 699.21875,
      "v": 127
    },
    {
      "midi": 60,
      "hit": false,
      "t": 193125,
      "d": 699.21875,
      "v": 114
    },
    {
      "midi": 34,
      "hit": false,
      "t": 193125,
      "d": 230.46875,
      "v": 127
    },
    {
      "midi": 35,
      "hit": false,
      "t": 193125,
      "d": 464.84375,
      "v": 127
    },
    {
      "midi": 42,
      "hit": false,
      "t": 193125,
      "d": 230.46875,
      "v": 127
    },
    {
      "midi": 34,
      "hit": false,
      "t": 193359.375,
      "d": 230.46875,
      "v": 127
    },
    {
      "midi": 42,
      "hit": false,
      "t": 193359.375,
      "d": 113.28125,
      "v": 127
    },
    {
      "midi": 42,
      "hit": false,
      "t": 193476.5625,
      "d": 113.28125,
      "v": 127
    },
    {
      "midi": 72,
      "hit": false,
      "t": 193593.75,
      "d": 230.46875,
      "v": 127
    },
    {
      "midi": 34,
      "hit": false,
      "t": 193593.75,
      "d": 230.46875,
      "v": 127
    },
    {
      "midi": 35,
      "hit": false,
      "t": 193593.75,
      "d": 464.84375,
      "v": 127
    },
    {
      "midi": 38,
      "hit": false,
      "t": 193593.75,
      "d": 464.84375,
      "v": 127
    },
    {
      "midi": 42,
      "hit": false,
      "t": 193593.75,
      "d": 230.46875,
      "v": 127
    },
    {
      "midi": 70,
      "hit": false,
      "t": 193828.125,
      "d": 464.84375,
      "v": 127
    },
    {
      "midi": 72,
      "hit": false,
      "t": 193828.125,
      "d": 933.59375,
      "v": 127
    },
    {
      "midi": 69,
      "hit": false,
      "t": 193828.125,
      "d": 933.59375,
      "v": 127
    },
    {
      "midi": 63,
      "hit": false,
      "t": 193828.125,
      "d": 933.59375,
      "v": 114
    },
    {
      "midi": 34,
      "hit": false,
      "t": 193828.125,
      "d": 230.46875,
      "v": 127
    },
    {
      "midi": 42,
      "hit": false,
      "t": 193828.125,
      "d": 113.28125,
      "v": 127
    },
    {
      "midi": 42,
      "hit": false,
      "t": 193945.3125,
      "d": 113.28125,
      "v": 127
    },
    {
      "midi": 38,
      "hit": false,
      "t": 194062.5,
      "d": 230.46875,
      "v": 127
    },
    {
      "midi": 35,
      "hit": false,
      "t": 194062.5,
      "d": 464.84375,
      "v": 127
    },
    {
      "midi": 42,
      "hit": false,
      "t": 194062.5,
      "d": 230.46875,
      "v": 127
    },
    {
      "midi": 69,
      "hit": false,
      "t": 194296.875,
      "d": 699.21875,
      "v": 127
    },
    {
      "midi": 38,
      "hit": false,
      "t": 194296.875,
      "d": 230.46875,
      "v": 127
    },
    {
      "midi": 42,
      "hit": false,
      "t": 194296.875,
      "d": 113.28125,
      "v": 127
    },
    {
      "midi": 42,
      "hit": false,
      "t": 194414.0625,
      "d": 113.28125,
      "v": 127
    },
    {
      "midi": 38,
      "hit": false,
      "t": 194531.25,
      "d": 230.46875,
      "v": 127
    },
    {
      "midi": 35,
      "hit": false,
      "t": 194531.25,
      "d": 464.84375,
      "v": 127
    },
    {
      "midi": 38,
      "hit": false,
      "t": 194531.25,
      "d": 464.84375,
      "v": 127
    },
    {
      "midi": 42,
      "hit": false,
      "t": 194531.25,
      "d": 230.46875,
      "v": 127
    },
    {
      "midi": 38,
      "hit": false,
      "t": 194765.625,
      "d": 230.46875,
      "v": 127
    },
    {
      "midi": 42,
      "hit": false,
      "t": 194765.625,
      "d": 113.28125,
      "v": 127
    },
    {
      "midi": 42,
      "hit": false,
      "t": 194882.8125,
      "d": 113.28125,
      "v": 127
    },
    {
      "midi": 70,
      "hit": false,
      "t": 195000,
      "d": 464.84375,
      "v": 127
    },
    {
      "midi": 67,
      "hit": false,
      "t": 195000,
      "d": 699.21875,
      "v": 127
    },
    {
      "midi": 62,
      "hit": false,
      "t": 195000,
      "d": 699.21875,
      "v": 127
    },
    {
      "midi": 58,
      "hit": false,
      "t": 195000,
      "d": 699.21875,
      "v": 114
    },
    {
      "midi": 31,
      "hit": false,
      "t": 195000,
      "d": 230.46875,
      "v": 127
    },
    {
      "midi": 35,
      "hit": false,
      "t": 195000,
      "d": 464.84375,
      "v": 127
    },
    {
      "midi": 42,
      "hit": false,
      "t": 195000,
      "d": 230.46875,
      "v": 127
    },
    {
      "midi": 31,
      "hit": false,
      "t": 195234.375,
      "d": 230.46875,
      "v": 127
    },
    {
      "midi": 42,
      "hit": false,
      "t": 195234.375,
      "d": 113.28125,
      "v": 127
    },
    {
      "midi": 42,
      "hit": false,
      "t": 195351.5625,
      "d": 113.28125,
      "v": 127
    },
    {
      "midi": 72,
      "hit": false,
      "t": 195468.75,
      "d": 230.46875,
      "v": 127
    },
    {
      "midi": 31,
      "hit": false,
      "t": 195468.75,
      "d": 230.46875,
      "v": 127
    },
    {
      "midi": 35,
      "hit": false,
      "t": 195468.75,
      "d": 464.84375,
      "v": 127
    },
    {
      "midi": 38,
      "hit": false,
      "t": 195468.75,
      "d": 464.84375,
      "v": 127
    },
    {
      "midi": 42,
      "hit": false,
      "t": 195468.75,
      "d": 230.46875,
      "v": 127
    },
    {
      "midi": 70,
      "hit": false,
      "t": 195703.125,
      "d": 464.84375,
      "v": 127
    },
    {
      "midi": 70,
      "hit": false,
      "t": 195703.125,
      "d": 933.59375,
      "v": 127
    },
    {
      "midi": 67,
      "hit": false,
      "t": 195703.125,
      "d": 933.59375,
      "v": 127
    },
    {
      "midi": 63,
      "hit": false,
      "t": 195703.125,
      "d": 933.59375,
      "v": 114
    },
    {
      "midi": 31,
      "hit": false,
      "t": 195703.125,
      "d": 230.46875,
      "v": 127
    },
    {
      "midi": 42,
      "hit": false,
      "t": 195703.125,
      "d": 113.28125,
      "v": 127
    },
    {
      "midi": 42,
      "hit": false,
      "t": 195820.3125,
      "d": 113.28125,
      "v": 127
    },
    {
      "midi": 36,
      "hit": false,
      "t": 195937.5,
      "d": 230.46875,
      "v": 127
    },
    {
      "midi": 35,
      "hit": false,
      "t": 195937.5,
      "d": 464.84375,
      "v": 127
    },
    {
      "midi": 42,
      "hit": false,
      "t": 195937.5,
      "d": 230.46875,
      "v": 127
    },
    {
      "midi": 67,
      "hit": false,
      "t": 196171.875,
      "d": 699.21875,
      "v": 127
    },
    {
      "midi": 36,
      "hit": false,
      "t": 196171.875,
      "d": 230.46875,
      "v": 127
    },
    {
      "midi": 42,
      "hit": false,
      "t": 196171.875,
      "d": 113.28125,
      "v": 127
    },
    {
      "midi": 42,
      "hit": false,
      "t": 196289.0625,
      "d": 113.28125,
      "v": 127
    },
    {
      "midi": 36,
      "hit": false,
      "t": 196406.25,
      "d": 230.46875,
      "v": 127
    },
    {
      "midi": 35,
      "hit": false,
      "t": 196406.25,
      "d": 464.84375,
      "v": 127
    },
    {
      "midi": 38,
      "hit": false,
      "t": 196406.25,
      "d": 464.84375,
      "v": 127
    },
    {
      "midi": 42,
      "hit": false,
      "t": 196406.25,
      "d": 230.46875,
      "v": 127
    },
    {
      "midi": 36,
      "hit": false,
      "t": 196640.625,
      "d": 230.46875,
      "v": 127
    },
    {
      "midi": 42,
      "hit": false,
      "t": 196640.625,
      "d": 113.28125,
      "v": 127
    },
    {
      "midi": 42,
      "hit": false,
      "t": 196757.8125,
      "d": 113.28125,
      "v": 127
    },
    {
      "midi": 68,
      "hit": false,
      "t": 196875,
      "d": 464.84375,
      "v": 127
    },
    {
      "midi": 65,
      "hit": false,
      "t": 196875,
      "d": 699.21875,
      "v": 127
    },
    {
      "midi": 62,
      "hit": false,
      "t": 196875,
      "d": 1636.71875,
      "v": 127
    },
    {
      "midi": 58,
      "hit": false,
      "t": 196875,
      "d": 1636.71875,
      "v": 114
    },
    {
      "midi": 29,
      "hit": false,
      "t": 196875,
      "d": 230.46875,
      "v": 127
    },
    {
      "midi": 35,
      "hit": false,
      "t": 196875,
      "d": 464.84375,
      "v": 127
    },
    {
      "midi": 42,
      "hit": false,
      "t": 196875,
      "d": 230.46875,
      "v": 127
    },
    {
      "midi": 29,
      "hit": false,
      "t": 197109.375,
      "d": 230.46875,
      "v": 127
    },
    {
      "midi": 42,
      "hit": false,
      "t": 197109.375,
      "d": 113.28125,
      "v": 127
    },
    {
      "midi": 42,
      "hit": false,
      "t": 197226.5625,
      "d": 113.28125,
      "v": 127
    },
    {
      "midi": 65,
      "hit": false,
      "t": 197343.75,
      "d": 230.46875,
      "v": 127
    },
    {
      "midi": 29,
      "hit": false,
      "t": 197343.75,
      "d": 230.46875,
      "v": 127
    },
    {
      "midi": 35,
      "hit": false,
      "t": 197343.75,
      "d": 464.84375,
      "v": 127
    },
    {
      "midi": 38,
      "hit": false,
      "t": 197343.75,
      "d": 464.84375,
      "v": 127
    },
    {
      "midi": 42,
      "hit": false,
      "t": 197343.75,
      "d": 230.46875,
      "v": 127
    },
    {
      "midi": 70,
      "hit": false,
      "t": 197578.125,
      "d": 699.21875,
      "v": 127
    },
    {
      "midi": 70,
      "hit": false,
      "t": 197578.125,
      "d": 933.59375,
      "v": 127
    },
    {
      "midi": 29,
      "hit": false,
      "t": 197578.125,
      "d": 230.46875,
      "v": 127
    },
    {
      "midi": 42,
      "hit": false,
      "t": 197578.125,
      "d": 113.28125,
      "v": 127
    },
    {
      "midi": 42,
      "hit": false,
      "t": 197695.3125,
      "d": 113.28125,
      "v": 127
    },
    {
      "midi": 34,
      "hit": false,
      "t": 197812.5,
      "d": 230.46875,
      "v": 127
    },
    {
      "midi": 35,
      "hit": false,
      "t": 197812.5,
      "d": 464.84375,
      "v": 127
    },
    {
      "midi": 42,
      "hit": false,
      "t": 197812.5,
      "d": 230.46875,
      "v": 127
    },
    {
      "midi": 34,
      "hit": false,
      "t": 198046.875,
      "d": 230.46875,
      "v": 127
    },
    {
      "midi": 42,
      "hit": false,
      "t": 198046.875,
      "d": 113.28125,
      "v": 127
    },
    {
      "midi": 42,
      "hit": false,
      "t": 198164.0625,
      "d": 113.28125,
      "v": 127
    },
    {
      "midi": 63,
      "hit": false,
      "t": 198281.25,
      "d": 230.46875,
      "v": 127
    },
    {
      "midi": 34,
      "hit": false,
      "t": 198281.25,
      "d": 230.46875,
      "v": 127
    },
    {
      "midi": 35,
      "hit": false,
      "t": 198281.25,
      "d": 464.84375,
      "v": 127
    },
    {
      "midi": 38,
      "hit": false,
      "t": 198281.25,
      "d": 464.84375,
      "v": 127
    },
    {
      "midi": 42,
      "hit": false,
      "t": 198281.25,
      "d": 230.46875,
      "v": 127
    },
    {
      "midi": 65,
      "hit": false,
      "t": 198515.625,
      "d": 230.46875,
      "v": 127
    },
    {
      "midi": 34,
      "hit": false,
      "t": 198515.625,
      "d": 230.46875,
      "v": 127
    },
    {
      "midi": 42,
      "hit": false,
      "t": 198515.625,
      "d": 113.28125,
      "v": 127
    },
    {
      "midi": 42,
      "hit": false,
      "t": 198632.8125,
      "d": 113.28125,
      "v": 127
    },
    {
      "midi": 67,
      "hit": false,
      "t": 198750,
      "d": 699.21875,
      "v": 127
    },
    {
      "midi": 87,
      "hit": false,
      "t": 198750,
      "d": 230.46875,
      "v": 127
    },
    {
      "midi": 79,
      "hit": false,
      "t": 198750,
      "d": 230.46875,
      "v": 127
    },
    {
      "midi": 63,
      "hit": false,
      "t": 198750,
      "d": 3746.09375,
      "v": 124
    },
    {
      "midi": 27,
      "hit": false,
      "t": 198750,
      "d": 230.46875,
      "v": 127
    },
    {
      "midi": 35,
      "hit": false,
      "t": 198750,
      "d": 464.84375,
      "v": 127
    },
    {
      "midi": 26,
      "hit": false,
      "t": 198750,
      "d": 113.28125,
      "v": 127
    },
    {
      "midi": 42,
      "hit": false,
      "t": 198750,
      "d": 230.46875,
      "v": 127
    },
    {
      "midi": 87,
      "hit": false,
      "t": 198984.375,
      "d": 230.46875,
      "v": 127
    },
    {
      "midi": 79,
      "hit": false,
      "t": 198984.375,
      "d": 230.46875,
      "v": 127
    },
    {
      "midi": 27,
      "hit": false,
      "t": 198984.375,
      "d": 230.46875,
      "v": 127
    },
    {
      "midi": 42,
      "hit": false,
      "t": 198984.375,
      "d": 113.28125,
      "v": 127
    },
    {
      "midi": 42,
      "hit": false,
      "t": 199101.5625,
      "d": 113.28125,
      "v": 127
    },
    {
      "midi": 87,
      "hit": false,
      "t": 199218.75,
      "d": 230.46875,
      "v": 127
    },
    {
      "midi": 79,
      "hit": false,
      "t": 199218.75,
      "d": 230.46875,
      "v": 127
    },
    {
      "midi": 27,
      "hit": false,
      "t": 199218.75,
      "d": 230.46875,
      "v": 127
    },
    {
      "midi": 35,
      "hit": false,
      "t": 199218.75,
      "d": 464.84375,
      "v": 127
    },
    {
      "midi": 38,
      "hit": false,
      "t": 199218.75,
      "d": 464.84375,
      "v": 127
    },
    {
      "midi": 42,
      "hit": false,
      "t": 199218.75,
      "d": 230.46875,
      "v": 127
    },
    {
      "midi": 63,
      "hit": false,
      "t": 199453.125,
      "d": 230.46875,
      "v": 127
    },
    {
      "midi": 84,
      "hit": false,
      "t": 199453.125,
      "d": 230.46875,
      "v": 127
    },
    {
      "midi": 79,
      "hit": false,
      "t": 199453.125,
      "d": 230.46875,
      "v": 127
    },
    {
      "midi": 27,
      "hit": false,
      "t": 199453.125,
      "d": 230.46875,
      "v": 127
    },
    {
      "midi": 42,
      "hit": false,
      "t": 199453.125,
      "d": 113.28125,
      "v": 127
    },
    {
      "midi": 42,
      "hit": false,
      "t": 199570.3125,
      "d": 113.28125,
      "v": 127
    },
    {
      "midi": 70,
      "hit": false,
      "t": 199687.5,
      "d": 933.59375,
      "v": 127
    },
    {
      "midi": 82,
      "hit": false,
      "t": 199687.5,
      "d": 230.46875,
      "v": 127
    },
    {
      "midi": 75,
      "hit": false,
      "t": 199687.5,
      "d": 230.46875,
      "v": 127
    },
    {
      "midi": 27,
      "hit": false,
      "t": 199687.5,
      "d": 230.46875,
      "v": 127
    },
    {
      "midi": 35,
      "hit": false,
      "t": 199687.5,
      "d": 464.84375,
      "v": 127
    },
    {
      "midi": 42,
      "hit": false,
      "t": 199687.5,
      "d": 230.46875,
      "v": 127
    },
    {
      "midi": 79,
      "hit": false,
      "t": 199921.875,
      "d": 464.84375,
      "v": 127
    },
    {
      "midi": 75,
      "hit": false,
      "t": 199921.875,
      "d": 464.84375,
      "v": 127
    },
    {
      "midi": 27,
      "hit": false,
      "t": 199921.875,
      "d": 230.46875,
      "v": 127
    },
    {
      "midi": 42,
      "hit": false,
      "t": 199921.875,
      "d": 113.28125,
      "v": 127
    },
    {
      "midi": 42,
      "hit": false,
      "t": 200039.0625,
      "d": 113.28125,
      "v": 127
    },
    {
      "midi": 27,
      "hit": false,
      "t": 200156.25,
      "d": 230.46875,
      "v": 127
    },
    {
      "midi": 35,
      "hit": false,
      "t": 200156.25,
      "d": 464.84375,
      "v": 127
    },
    {
      "midi": 38,
      "hit": false,
      "t": 200156.25,
      "d": 464.84375,
      "v": 127
    },
    {
      "midi": 42,
      "hit": false,
      "t": 200156.25,
      "d": 230.46875,
      "v": 127
    },
    {
      "midi": 82,
      "hit": false,
      "t": 200390.625,
      "d": 230.46875,
      "v": 127
    },
    {
      "midi": 75,
      "hit": false,
      "t": 200390.625,
      "d": 230.46875,
      "v": 127
    },
    {
      "midi": 27,
      "hit": false,
      "t": 200390.625,
      "d": 230.46875,
      "v": 127
    },
    {
      "midi": 42,
      "hit": false,
      "t": 200390.625,
      "d": 113.28125,
      "v": 127
    },
    {
      "midi": 42,
      "hit": false,
      "t": 200507.8125,
      "d": 113.28125,
      "v": 127
    },
    {
      "midi": 70,
      "hit": false,
      "t": 200625,
      "d": 230.46875,
      "v": 127
    },
    {
      "midi": 87,
      "hit": false,
      "t": 200625,
      "d": 464.84375,
      "v": 127
    },
    {
      "midi": 75,
      "hit": false,
      "t": 200625,
      "d": 464.84375,
      "v": 127
    },
    {
      "midi": 70,
      "hit": false,
      "t": 200625,
      "d": 230.46875,
      "v": 114
    },
    {
      "midi": 27,
      "hit": false,
      "t": 200625,
      "d": 230.46875,
      "v": 127
    },
    {
      "midi": 35,
      "hit": false,
      "t": 200625,
      "d": 464.84375,
      "v": 127
    },
    {
      "midi": 42,
      "hit": false,
      "t": 200625,
      "d": 230.46875,
      "v": 127
    },
    {
      "midi": 72,
      "hit": false,
      "t": 200859.375,
      "d": 230.46875,
      "v": 127
    },
    {
      "midi": 72,
      "hit": false,
      "t": 200859.375,
      "d": 230.46875,
      "v": 114
    },
    {
      "midi": 27,
      "hit": false,
      "t": 200859.375,
      "d": 230.46875,
      "v": 127
    },
    {
      "midi": 42,
      "hit": false,
      "t": 200859.375,
      "d": 113.28125,
      "v": 127
    },
    {
      "midi": 42,
      "hit": false,
      "t": 200976.5625,
      "d": 113.28125,
      "v": 127
    },
    {
      "midi": 70,
      "hit": false,
      "t": 201093.75,
      "d": 230.46875,
      "v": 127
    },
    {
      "midi": 84,
      "hit": false,
      "t": 201093.75,
      "d": 464.84375,
      "v": 127
    },
    {
      "midi": 75,
      "hit": false,
      "t": 201093.75,
      "d": 464.84375,
      "v": 127
    },
    {
      "midi": 70,
      "hit": false,
      "t": 201093.75,
      "d": 230.46875,
      "v": 114
    },
    {
      "midi": 27,
      "hit": false,
      "t": 201093.75,
      "d": 230.46875,
      "v": 127
    },
    {
      "midi": 35,
      "hit": false,
      "t": 201093.75,
      "d": 464.84375,
      "v": 127
    },
    {
      "midi": 38,
      "hit": false,
      "t": 201093.75,
      "d": 464.84375,
      "v": 127
    },
    {
      "midi": 42,
      "hit": false,
      "t": 201093.75,
      "d": 230.46875,
      "v": 127
    },
    {
      "midi": 72,
      "hit": false,
      "t": 201328.125,
      "d": 230.46875,
      "v": 127
    },
    {
      "midi": 72,
      "hit": false,
      "t": 201328.125,
      "d": 230.46875,
      "v": 114
    },
    {
      "midi": 27,
      "hit": false,
      "t": 201328.125,
      "d": 230.46875,
      "v": 127
    },
    {
      "midi": 42,
      "hit": false,
      "t": 201328.125,
      "d": 113.28125,
      "v": 127
    },
    {
      "midi": 42,
      "hit": false,
      "t": 201445.3125,
      "d": 113.28125,
      "v": 127
    },
    {
      "midi": 70,
      "hit": false,
      "t": 201562.5,
      "d": 464.84375,
      "v": 127
    },
    {
      "midi": 82,
      "hit": false,
      "t": 201562.5,
      "d": 230.46875,
      "v": 127
    },
    {
      "midi": 75,
      "hit": false,
      "t": 201562.5,
      "d": 230.46875,
      "v": 127
    },
    {
      "midi": 70,
      "hit": false,
      "t": 201562.5,
      "d": 464.84375,
      "v": 114
    },
    {
      "midi": 27,
      "hit": false,
      "t": 201562.5,
      "d": 230.46875,
      "v": 127
    },
    {
      "midi": 35,
      "hit": false,
      "t": 201562.5,
      "d": 464.84375,
      "v": 127
    },
    {
      "midi": 42,
      "hit": false,
      "t": 201562.5,
      "d": 230.46875,
      "v": 127
    },
    {
      "midi": 79,
      "hit": false,
      "t": 201796.875,
      "d": 230.46875,
      "v": 127
    },
    {
      "midi": 75,
      "hit": false,
      "t": 201796.875,
      "d": 230.46875,
      "v": 127
    },
    {
      "midi": 27,
      "hit": false,
      "t": 201796.875,
      "d": 230.46875,
      "v": 127
    },
    {
      "midi": 42,
      "hit": false,
      "t": 201796.875,
      "d": 113.28125,
      "v": 127
    },
    {
      "midi": 42,
      "hit": false,
      "t": 201914.0625,
      "d": 113.28125,
      "v": 127
    },
    {
      "midi": 63,
      "hit": false,
      "t": 202031.25,
      "d": 230.46875,
      "v": 127
    },
    {
      "midi": 75,
      "hit": false,
      "t": 202031.25,
      "d": 230.46875,
      "v": 127
    },
    {
      "midi": 75,
      "hit": false,
      "t": 202031.25,
      "d": 230.46875,
      "v": 127
    },
    {
      "midi": 27,
      "hit": false,
      "t": 202031.25,
      "d": 230.46875,
      "v": 127
    },
    {
      "midi": 35,
      "hit": false,
      "t": 202031.25,
      "d": 464.84375,
      "v": 127
    },
    {
      "midi": 38,
      "hit": false,
      "t": 202031.25,
      "d": 464.84375,
      "v": 127
    },
    {
      "midi": 42,
      "hit": false,
      "t": 202031.25,
      "d": 230.46875,
      "v": 127
    },
    {
      "midi": 65,
      "hit": false,
      "t": 202265.625,
      "d": 230.46875,
      "v": 127
    },
    {
      "midi": 77,
      "hit": false,
      "t": 202265.625,
      "d": 230.46875,
      "v": 127
    },
    {
      "midi": 75,
      "hit": false,
      "t": 202265.625,
      "d": 230.46875,
      "v": 127
    },
    {
      "midi": 27,
      "hit": false,
      "t": 202265.625,
      "d": 230.46875,
      "v": 127
    },
    {
      "midi": 42,
      "hit": false,
      "t": 202265.625,
      "d": 113.28125,
      "v": 127
    },
    {
      "midi": 42,
      "hit": false,
      "t": 202382.8125,
      "d": 113.28125,
      "v": 127
    },
    {
      "midi": 67,
      "hit": false,
      "t": 202500,
      "d": 699.21875,
      "v": 127
    },
    {
      "midi": 79,
      "hit": false,
      "t": 202500,
      "d": 230.46875,
      "v": 127
    },
    {
      "midi": 74,
      "hit": false,
      "t": 202500,
      "d": 230.46875,
      "v": 127
    },
    {
      "midi": 62,
      "hit": false,
      "t": 202500,
      "d": 1871.09375,
      "v": 124
    },
    {
      "midi": 26,
      "hit": false,
      "t": 202500,
      "d": 230.46875,
      "v": 127
    },
    {
      "midi": 35,
      "hit": false,
      "t": 202500,
      "d": 464.84375,
      "v": 127
    },
    {
      "midi": 42,
      "hit": false,
      "t": 202500,
      "d": 230.46875,
      "v": 127
    },
    {
      "midi": 79,
      "hit": false,
      "t": 202734.375,
      "d": 230.46875,
      "v": 127
    },
    {
      "midi": 74,
      "hit": false,
      "t": 202734.375,
      "d": 230.46875,
      "v": 127
    },
    {
      "midi": 26,
      "hit": false,
      "t": 202734.375,
      "d": 230.46875,
      "v": 127
    },
    {
      "midi": 42,
      "hit": false,
      "t": 202734.375,
      "d": 113.28125,
      "v": 127
    },
    {
      "midi": 42,
      "hit": false,
      "t": 202851.5625,
      "d": 113.28125,
      "v": 127
    },
    {
      "midi": 79,
      "hit": false,
      "t": 202968.75,
      "d": 230.46875,
      "v": 127
    },
    {
      "midi": 74,
      "hit": false,
      "t": 202968.75,
      "d": 230.46875,
      "v": 127
    },
    {
      "midi": 26,
      "hit": false,
      "t": 202968.75,
      "d": 230.46875,
      "v": 127
    },
    {
      "midi": 35,
      "hit": false,
      "t": 202968.75,
      "d": 464.84375,
      "v": 127
    },
    {
      "midi": 38,
      "hit": false,
      "t": 202968.75,
      "d": 464.84375,
      "v": 127
    },
    {
      "midi": 42,
      "hit": false,
      "t": 202968.75,
      "d": 230.46875,
      "v": 127
    },
    {
      "midi": 63,
      "hit": false,
      "t": 203203.125,
      "d": 230.46875,
      "v": 127
    },
    {
      "midi": 80,
      "hit": false,
      "t": 203203.125,
      "d": 230.46875,
      "v": 127
    },
    {
      "midi": 74,
      "hit": false,
      "t": 203203.125,
      "d": 230.46875,
      "v": 127
    },
    {
      "midi": 26,
      "hit": false,
      "t": 203203.125,
      "d": 230.46875,
      "v": 127
    },
    {
      "midi": 42,
      "hit": false,
      "t": 203203.125,
      "d": 113.28125,
      "v": 127
    },
    {
      "midi": 42,
      "hit": false,
      "t": 203320.3125,
      "d": 113.28125,
      "v": 127
    },
    {
      "midi": 70,
      "hit": false,
      "t": 203437.5,
      "d": 933.59375,
      "v": 127
    },
    {
      "midi": 79,
      "hit": false,
      "t": 203437.5,
      "d": 464.84375,
      "v": 127
    },
    {
      "midi": 74,
      "hit": false,
      "t": 203437.5,
      "d": 464.84375,
      "v": 127
    },
    {
      "midi": 26,
      "hit": false,
      "t": 203437.5,
      "d": 230.46875,
      "v": 127
    },
    {
      "midi": 35,
      "hit": false,
      "t": 203437.5,
      "d": 464.84375,
      "v": 127
    },
    {
      "midi": 42,
      "hit": false,
      "t": 203437.5,
      "d": 230.46875,
      "v": 127
    },
    {
      "midi": 26,
      "hit": false,
      "t": 203671.875,
      "d": 230.46875,
      "v": 127
    },
    {
      "midi": 42,
      "hit": false,
      "t": 203671.875,
      "d": 113.28125,
      "v": 127
    },
    {
      "midi": 42,
      "hit": false,
      "t": 203789.0625,
      "d": 113.28125,
      "v": 127
    },
    {
      "midi": 75,
      "hit": false,
      "t": 203906.25,
      "d": 230.46875,
      "v": 127
    },
    {
      "midi": 74,
      "hit": false,
      "t": 203906.25,
      "d": 230.46875,
      "v": 127
    },
    {
      "midi": 26,
      "hit": false,
      "t": 203906.25,
      "d": 230.46875,
      "v": 127
    },
    {
      "midi": 35,
      "hit": false,
      "t": 203906.25,
      "d": 464.84375,
      "v": 127
    },
    {
      "midi": 38,
      "hit": false,
      "t": 203906.25,
      "d": 464.84375,
      "v": 127
    },
    {
      "midi": 42,
      "hit": false,
      "t": 203906.25,
      "d": 230.46875,
      "v": 127
    },
    {
      "midi": 75,
      "hit": false,
      "t": 204140.625,
      "d": 230.46875,
      "v": 127
    },
    {
      "midi": 74,
      "hit": false,
      "t": 204140.625,
      "d": 230.46875,
      "v": 127
    },
    {
      "midi": 26,
      "hit": false,
      "t": 204140.625,
      "d": 230.46875,
      "v": 127
    },
    {
      "midi": 42,
      "hit": false,
      "t": 204140.625,
      "d": 113.28125,
      "v": 127
    },
    {
      "midi": 42,
      "hit": false,
      "t": 204257.8125,
      "d": 113.28125,
      "v": 127
    },
    {
      "midi": 70,
      "hit": false,
      "t": 204375,
      "d": 230.46875,
      "v": 127
    },
    {
      "midi": 75,
      "hit": false,
      "t": 204375,
      "d": 464.84375,
      "v": 127
    },
    {
      "midi": 74,
      "hit": false,
      "t": 204375,
      "d": 464.84375,
      "v": 127
    },
    {
      "midi": 70,
      "hit": false,
      "t": 204375,
      "d": 230.46875,
      "v": 114
    },
    {
      "midi": 58,
      "hit": false,
      "t": 204375,
      "d": 933.59375,
      "v": 124
    },
    {
      "midi": 22,
      "hit": false,
      "t": 204375,
      "d": 230.46875,
      "v": 127
    },
    {
      "midi": 35,
      "hit": false,
      "t": 204375,
      "d": 464.84375,
      "v": 127
    },
    {
      "midi": 42,
      "hit": false,
      "t": 204375,
      "d": 230.46875,
      "v": 127
    },
    {
      "midi": 72,
      "hit": false,
      "t": 204609.375,
      "d": 230.46875,
      "v": 127
    },
    {
      "midi": 72,
      "hit": false,
      "t": 204609.375,
      "d": 230.46875,
      "v": 114
    },
    {
      "midi": 22,
      "hit": false,
      "t": 204609.375,
      "d": 230.46875,
      "v": 127
    },
    {
      "midi": 42,
      "hit": false,
      "t": 204609.375,
      "d": 113.28125,
      "v": 127
    },
    {
      "midi": 42,
      "hit": false,
      "t": 204726.5625,
      "d": 113.28125,
      "v": 127
    },
    {
      "midi": 70,
      "hit": false,
      "t": 204843.75,
      "d": 230.46875,
      "v": 127
    },
    {
      "midi": 77,
      "hit": false,
      "t": 204843.75,
      "d": 464.84375,
      "v": 127
    },
    {
      "midi": 74,
      "hit": false,
      "t": 204843.75,
      "d": 464.84375,
      "v": 127
    },
    {
      "midi": 70,
      "hit": false,
      "t": 204843.75,
      "d": 230.46875,
      "v": 114
    },
    {
      "midi": 22,
      "hit": false,
      "t": 204843.75,
      "d": 230.46875,
      "v": 127
    },
    {
      "midi": 35,
      "hit": false,
      "t": 204843.75,
      "d": 464.84375,
      "v": 127
    },
    {
      "midi": 38,
      "hit": false,
      "t": 204843.75,
      "d": 464.84375,
      "v": 127
    },
    {
      "midi": 42,
      "hit": false,
      "t": 204843.75,
      "d": 230.46875,
      "v": 127
    },
    {
      "midi": 72,
      "hit": false,
      "t": 205078.125,
      "d": 230.46875,
      "v": 127
    },
    {
      "midi": 72,
      "hit": false,
      "t": 205078.125,
      "d": 230.46875,
      "v": 114
    },
    {
      "midi": 22,
      "hit": false,
      "t": 205078.125,
      "d": 230.46875,
      "v": 127
    },
    {
      "midi": 42,
      "hit": false,
      "t": 205078.125,
      "d": 113.28125,
      "v": 127
    },
    {
      "midi": 42,
      "hit": false,
      "t": 205195.3125,
      "d": 113.28125,
      "v": 127
    },
    {
      "midi": 70,
      "hit": false,
      "t": 205312.5,
      "d": 347.65625,
      "v": 127
    },
    {
      "midi": 82,
      "hit": false,
      "t": 205312.5,
      "d": 230.46875,
      "v": 127
    },
    {
      "midi": 70,
      "hit": false,
      "t": 205312.5,
      "d": 347.65625,
      "v": 114
    },
    {
      "midi": 60,
      "hit": false,
      "t": 205312.5,
      "d": 933.59375,
      "v": 124
    },
    {
      "midi": 27,
      "hit": false,
      "t": 205312.5,
      "d": 230.46875,
      "v": 127
    },
    {
      "midi": 35,
      "hit": false,
      "t": 205312.5,
      "d": 464.84375,
      "v": 127
    },
    {
      "midi": 42,
      "hit": false,
      "t": 205312.5,
      "d": 230.46875,
      "v": 127
    },
    {
      "midi": 87,
      "hit": false,
      "t": 205546.875,
      "d": 582.03125,
      "v": 127
    },
    {
      "midi": 27,
      "hit": false,
      "t": 205546.875,
      "d": 230.46875,
      "v": 127
    },
    {
      "midi": 42,
      "hit": false,
      "t": 205546.875,
      "d": 113.28125,
      "v": 127
    },
    {
      "midi": 42,
      "hit": false,
      "t": 205664.0625,
      "d": 113.28125,
      "v": 127
    },
    {
      "midi": 67,
      "hit": false,
      "t": 205781.25,
      "d": 464.84375,
      "v": 127
    },
    {
      "midi": 67,
      "hit": false,
      "t": 205781.25,
      "d": 464.84375,
      "v": 114
    },
    {
      "midi": 27,
      "hit": false,
      "t": 205781.25,
      "d": 230.46875,
      "v": 127
    },
    {
      "midi": 35,
      "hit": false,
      "t": 205781.25,
      "d": 464.84375,
      "v": 127
    },
    {
      "midi": 38,
      "hit": false,
      "t": 205781.25,
      "d": 464.84375,
      "v": 127
    },
    {
      "midi": 42,
      "hit": false,
      "t": 205781.25,
      "d": 230.46875,
      "v": 127
    },
    {
      "midi": 27,
      "hit": false,
      "t": 206015.625,
      "d": 230.46875,
      "v": 127
    },
    {
      "midi": 42,
      "hit": false,
      "t": 206015.625,
      "d": 113.28125,
      "v": 127
    },
    {
      "midi": 42,
      "hit": false,
      "t": 206132.8125,
      "d": 113.28125,
      "v": 127
    },
    {
      "midi": 60,
      "hit": false,
      "t": 206250,
      "d": 464.84375,
      "v": 127
    },
    {
      "midi": 63,
      "hit": false,
      "t": 206250,
      "d": 1871.09375,
      "v": 127
    },
    {
      "midi": 68,
      "hit": false,
      "t": 206250,
      "d": 1871.09375,
      "v": 127
    },
    {
      "midi": 60,
      "hit": false,
      "t": 206250,
      "d": 1871.09375,
      "v": 114
    },
    {
      "midi": 60,
      "hit": false,
      "t": 206250,
      "d": 464.84375,
      "v": 124
    },
    {
      "midi": 20,
      "hit": false,
      "t": 206250,
      "d": 230.46875,
      "v": 127
    },
    {
      "midi": 35,
      "hit": false,
      "t": 206250,
      "d": 464.84375,
      "v": 127
    },
    {
      "midi": 42,
      "hit": false,
      "t": 206250,
      "d": 230.46875,
      "v": 127
    },
    {
      "midi": 20,
      "hit": false,
      "t": 206484.375,
      "d": 230.46875,
      "v": 127
    },
    {
      "midi": 42,
      "hit": false,
      "t": 206484.375,
      "d": 113.28125,
      "v": 127
    },
    {
      "midi": 42,
      "hit": false,
      "t": 206601.5625,
      "d": 113.28125,
      "v": 127
    },
    {
      "midi": 60,
      "hit": false,
      "t": 206718.75,
      "d": 230.46875,
      "v": 127
    },
    {
      "midi": 60,
      "hit": false,
      "t": 206718.75,
      "d": 230.46875,
      "v": 124
    },
    {
      "midi": 20,
      "hit": false,
      "t": 206718.75,
      "d": 230.46875,
      "v": 127
    },
    {
      "midi": 35,
      "hit": false,
      "t": 206718.75,
      "d": 464.84375,
      "v": 127
    },
    {
      "midi": 38,
      "hit": false,
      "t": 206718.75,
      "d": 464.84375,
      "v": 127
    },
    {
      "midi": 42,
      "hit": false,
      "t": 206718.75,
      "d": 230.46875,
      "v": 127
    },
    {
      "midi": 63,
      "hit": false,
      "t": 206953.125,
      "d": 464.84375,
      "v": 127
    },
    {
      "midi": 63,
      "hit": false,
      "t": 206953.125,
      "d": 464.84375,
      "v": 124
    },
    {
      "midi": 20,
      "hit": false,
      "t": 206953.125,
      "d": 230.46875,
      "v": 127
    },
    {
      "midi": 42,
      "hit": false,
      "t": 206953.125,
      "d": 113.28125,
      "v": 127
    },
    {
      "midi": 42,
      "hit": false,
      "t": 207070.3125,
      "d": 113.28125,
      "v": 127
    },
    {
      "midi": 20,
      "hit": false,
      "t": 207187.5,
      "d": 230.46875,
      "v": 127
    },
    {
      "midi": 35,
      "hit": false,
      "t": 207187.5,
      "d": 464.84375,
      "v": 127
    },
    {
      "midi": 42,
      "hit": false,
      "t": 207187.5,
      "d": 230.46875,
      "v": 127
    },
    {
      "midi": 67,
      "hit": false,
      "t": 207421.875,
      "d": 699.21875,
      "v": 127
    },
    {
      "midi": 67,
      "hit": false,
      "t": 207421.875,
      "d": 699.21875,
      "v": 124
    },
    {
      "midi": 20,
      "hit": false,
      "t": 207421.875,
      "d": 230.46875,
      "v": 127
    },
    {
      "midi": 42,
      "hit": false,
      "t": 207421.875,
      "d": 113.28125,
      "v": 127
    },
    {
      "midi": 42,
      "hit": false,
      "t": 207539.0625,
      "d": 113.28125,
      "v": 127
    },
    {
      "midi": 20,
      "hit": false,
      "t": 207656.25,
      "d": 230.46875,
      "v": 127
    },
    {
      "midi": 35,
      "hit": false,
      "t": 207656.25,
      "d": 464.84375,
      "v": 127
    },
    {
      "midi": 38,
      "hit": false,
      "t": 207656.25,
      "d": 464.84375,
      "v": 127
    },
    {
      "midi": 42,
      "hit": false,
      "t": 207656.25,
      "d": 230.46875,
      "v": 127
    },
    {
      "midi": 20,
      "hit": false,
      "t": 207890.625,
      "d": 230.46875,
      "v": 127
    },
    {
      "midi": 42,
      "hit": false,
      "t": 207890.625,
      "d": 113.28125,
      "v": 127
    },
    {
      "midi": 42,
      "hit": false,
      "t": 208007.8125,
      "d": 113.28125,
      "v": 127
    },
    {
      "midi": 70,
      "hit": false,
      "t": 208125,
      "d": 464.84375,
      "v": 127
    },
    {
      "midi": 62,
      "hit": false,
      "t": 208125,
      "d": 1871.09375,
      "v": 127
    },
    {
      "midi": 65,
      "hit": false,
      "t": 208125,
      "d": 1871.09375,
      "v": 127
    },
    {
      "midi": 58,
      "hit": false,
      "t": 208125,
      "d": 1871.09375,
      "v": 114
    },
    {
      "midi": 70,
      "hit": false,
      "t": 208125,
      "d": 464.84375,
      "v": 124
    },
    {
      "midi": 22,
      "hit": false,
      "t": 208125,
      "d": 230.46875,
      "v": 127
    },
    {
      "midi": 35,
      "hit": false,
      "t": 208125,
      "d": 464.84375,
      "v": 127
    },
    {
      "midi": 42,
      "hit": false,
      "t": 208125,
      "d": 230.46875,
      "v": 127
    },
    {
      "midi": 22,
      "hit": false,
      "t": 208359.375,
      "d": 230.46875,
      "v": 127
    },
    {
      "midi": 42,
      "hit": false,
      "t": 208359.375,
      "d": 113.28125,
      "v": 127
    },
    {
      "midi": 42,
      "hit": false,
      "t": 208476.5625,
      "d": 113.28125,
      "v": 127
    },
    {
      "midi": 72,
      "hit": false,
      "t": 208593.75,
      "d": 230.46875,
      "v": 127
    },
    {
      "midi": 72,
      "hit": false,
      "t": 208593.75,
      "d": 230.46875,
      "v": 124
    },
    {
      "midi": 22,
      "hit": false,
      "t": 208593.75,
      "d": 230.46875,
      "v": 127
    },
    {
      "midi": 35,
      "hit": false,
      "t": 208593.75,
      "d": 464.84375,
      "v": 127
    },
    {
      "midi": 38,
      "hit": false,
      "t": 208593.75,
      "d": 464.84375,
      "v": 127
    },
    {
      "midi": 42,
      "hit": false,
      "t": 208593.75,
      "d": 230.46875,
      "v": 127
    },
    {
      "midi": 63,
      "hit": false,
      "t": 208828.125,
      "d": 464.84375,
      "v": 127
    },
    {
      "midi": 63,
      "hit": false,
      "t": 208828.125,
      "d": 464.84375,
      "v": 124
    },
    {
      "midi": 22,
      "hit": false,
      "t": 208828.125,
      "d": 230.46875,
      "v": 127
    },
    {
      "midi": 42,
      "hit": false,
      "t": 208828.125,
      "d": 113.28125,
      "v": 127
    },
    {
      "midi": 42,
      "hit": false,
      "t": 208945.3125,
      "d": 113.28125,
      "v": 127
    },
    {
      "midi": 22,
      "hit": false,
      "t": 209062.5,
      "d": 230.46875,
      "v": 127
    },
    {
      "midi": 35,
      "hit": false,
      "t": 209062.5,
      "d": 464.84375,
      "v": 127
    },
    {
      "midi": 42,
      "hit": false,
      "t": 209062.5,
      "d": 230.46875,
      "v": 127
    },
    {
      "midi": 63,
      "hit": false,
      "t": 209296.875,
      "d": 230.46875,
      "v": 127
    },
    {
      "midi": 63,
      "hit": false,
      "t": 209296.875,
      "d": 230.46875,
      "v": 124
    },
    {
      "midi": 22,
      "hit": false,
      "t": 209296.875,
      "d": 230.46875,
      "v": 127
    },
    {
      "midi": 42,
      "hit": false,
      "t": 209296.875,
      "d": 113.28125,
      "v": 127
    },
    {
      "midi": 42,
      "hit": false,
      "t": 209414.0625,
      "d": 113.28125,
      "v": 127
    },
    {
      "midi": 65,
      "hit": false,
      "t": 209531.25,
      "d": 464.84375,
      "v": 127
    },
    {
      "midi": 65,
      "hit": false,
      "t": 209531.25,
      "d": 464.84375,
      "v": 124
    },
    {
      "midi": 22,
      "hit": false,
      "t": 209531.25,
      "d": 230.46875,
      "v": 127
    },
    {
      "midi": 35,
      "hit": false,
      "t": 209531.25,
      "d": 464.84375,
      "v": 127
    },
    {
      "midi": 38,
      "hit": false,
      "t": 209531.25,
      "d": 464.84375,
      "v": 127
    },
    {
      "midi": 42,
      "hit": false,
      "t": 209531.25,
      "d": 230.46875,
      "v": 127
    },
    {
      "midi": 22,
      "hit": false,
      "t": 209765.625,
      "d": 230.46875,
      "v": 127
    },
    {
      "midi": 42,
      "hit": false,
      "t": 209765.625,
      "d": 113.28125,
      "v": 127
    },
    {
      "midi": 42,
      "hit": false,
      "t": 209882.8125,
      "d": 113.28125,
      "v": 127
    },
    {
      "midi": 63,
      "hit": false,
      "t": 210000,
      "d": 699.21875,
      "v": 127
    },
    {
      "midi": 77,
      "hit": false,
      "t": 210000,
      "d": 230.46875,
      "v": 127
    },
    {
      "midi": 77,
      "hit": false,
      "t": 210000,
      "d": 230.46875,
      "v": 127
    },
    {
      "midi": 67,
      "hit": false,
      "t": 210000,
      "d": 699.21875,
      "v": 114
    },
    {
      "midi": 63,
      "hit": false,
      "t": 210000,
      "d": 699.21875,
      "v": 124
    },
    {
      "midi": 39,
      "hit": false,
      "t": 210000,
      "d": 230.46875,
      "v": 127
    },
    {
      "midi": 35,
      "hit": false,
      "t": 210000,
      "d": 464.84375,
      "v": 127
    },
    {
      "midi": 42,
      "hit": false,
      "t": 210000,
      "d": 230.46875,
      "v": 127
    },
    {
      "midi": 79,
      "hit": false,
      "t": 210234.375,
      "d": 230.46875,
      "v": 127
    },
    {
      "midi": 79,
      "hit": false,
      "t": 210234.375,
      "d": 230.46875,
      "v": 127
    },
    {
      "midi": 39,
      "hit": false,
      "t": 210234.375,
      "d": 230.46875,
      "v": 127
    },
    {
      "midi": 42,
      "hit": false,
      "t": 210234.375,
      "d": 113.28125,
      "v": 127
    },
    {
      "midi": 42,
      "hit": false,
      "t": 210351.5625,
      "d": 113.28125,
      "v": 127
    },
    {
      "midi": 79,
      "hit": false,
      "t": 210468.75,
      "d": 230.46875,
      "v": 127
    },
    {
      "midi": 79,
      "hit": false,
      "t": 210468.75,
      "d": 230.46875,
      "v": 127
    },
    {
      "midi": 39,
      "hit": false,
      "t": 210468.75,
      "d": 230.46875,
      "v": 127
    },
    {
      "midi": 35,
      "hit": false,
      "t": 210468.75,
      "d": 464.84375,
      "v": 127
    },
    {
      "midi": 38,
      "hit": false,
      "t": 210468.75,
      "d": 464.84375,
      "v": 127
    },
    {
      "midi": 42,
      "hit": false,
      "t": 210468.75,
      "d": 230.46875,
      "v": 127
    },
    {
      "midi": 70,
      "hit": false,
      "t": 210703.125,
      "d": 230.46875,
      "v": 127
    },
    {
      "midi": 77,
      "hit": false,
      "t": 210703.125,
      "d": 230.46875,
      "v": 127
    },
    {
      "midi": 77,
      "hit": false,
      "t": 210703.125,
      "d": 230.46875,
      "v": 127
    },
    {
      "midi": 67,
      "hit": false,
      "t": 210703.125,
      "d": 230.46875,
      "v": 114
    },
    {
      "midi": 63,
      "hit": false,
      "t": 210703.125,
      "d": 230.46875,
      "v": 124
    },
    {
      "midi": 39,
      "hit": false,
      "t": 210703.125,
      "d": 230.46875,
      "v": 127
    },
    {
      "midi": 42,
      "hit": false,
      "t": 210703.125,
      "d": 113.28125,
      "v": 127
    },
    {
      "midi": 42,
      "hit": false,
      "t": 210820.3125,
      "d": 113.28125,
      "v": 127
    },
    {
      "midi": 70,
      "hit": false,
      "t": 210937.5,
      "d": 933.59375,
      "v": 127
    },
    {
      "midi": 79,
      "hit": false,
      "t": 210937.5,
      "d": 1167.96875,
      "v": 127
    },
    {
      "midi": 79,
      "hit": false,
      "t": 210937.5,
      "d": 1167.96875,
      "v": 127
    },
    {
      "midi": 67,
      "hit": false,
      "t": 210937.5,
      "d": 933.59375,
      "v": 114
    },
    {
      "midi": 63,
      "hit": false,
      "t": 210937.5,
      "d": 933.59375,
      "v": 124
    },
    {
      "midi": 39,
      "hit": false,
      "t": 210937.5,
      "d": 230.46875,
      "v": 127
    },
    {
      "midi": 35,
      "hit": false,
      "t": 210937.5,
      "d": 464.84375,
      "v": 127
    },
    {
      "midi": 42,
      "hit": false,
      "t": 210937.5,
      "d": 230.46875,
      "v": 127
    },
    {
      "midi": 39,
      "hit": false,
      "t": 211171.875,
      "d": 230.46875,
      "v": 127
    },
    {
      "midi": 42,
      "hit": false,
      "t": 211171.875,
      "d": 113.28125,
      "v": 127
    },
    {
      "midi": 42,
      "hit": false,
      "t": 211289.0625,
      "d": 113.28125,
      "v": 127
    },
    {
      "midi": 39,
      "hit": false,
      "t": 211406.25,
      "d": 230.46875,
      "v": 127
    },
    {
      "midi": 35,
      "hit": false,
      "t": 211406.25,
      "d": 464.84375,
      "v": 127
    },
    {
      "midi": 38,
      "hit": false,
      "t": 211406.25,
      "d": 464.84375,
      "v": 127
    },
    {
      "midi": 42,
      "hit": false,
      "t": 211406.25,
      "d": 230.46875,
      "v": 127
    },
    {
      "midi": 39,
      "hit": false,
      "t": 211640.625,
      "d": 230.46875,
      "v": 127
    },
    {
      "midi": 42,
      "hit": false,
      "t": 211640.625,
      "d": 113.28125,
      "v": 127
    },
    {
      "midi": 42,
      "hit": false,
      "t": 211757.8125,
      "d": 113.28125,
      "v": 127
    },
    {
      "midi": 70,
      "hit": false,
      "t": 211875,
      "d": 933.59375,
      "v": 127
    },
    {
      "midi": 67,
      "hit": false,
      "t": 211875,
      "d": 933.59375,
      "v": 114
    },
    {
      "midi": 63,
      "hit": false,
      "t": 211875,
      "d": 933.59375,
      "v": 124
    },
    {
      "midi": 39,
      "hit": false,
      "t": 211875,
      "d": 230.46875,
      "v": 127
    },
    {
      "midi": 35,
      "hit": false,
      "t": 211875,
      "d": 464.84375,
      "v": 127
    },
    {
      "midi": 42,
      "hit": false,
      "t": 211875,
      "d": 230.46875,
      "v": 127
    },
    {
      "midi": 77,
      "hit": false,
      "t": 212109.375,
      "d": 230.46875,
      "v": 127
    },
    {
      "midi": 77,
      "hit": false,
      "t": 212109.375,
      "d": 230.46875,
      "v": 127
    },
    {
      "midi": 39,
      "hit": false,
      "t": 212109.375,
      "d": 230.46875,
      "v": 127
    },
    {
      "midi": 42,
      "hit": false,
      "t": 212109.375,
      "d": 113.28125,
      "v": 127
    },
    {
      "midi": 42,
      "hit": false,
      "t": 212226.5625,
      "d": 113.28125,
      "v": 127
    },
    {
      "midi": 79,
      "hit": false,
      "t": 212343.75,
      "d": 230.46875,
      "v": 127
    },
    {
      "midi": 79,
      "hit": false,
      "t": 212343.75,
      "d": 230.46875,
      "v": 127
    },
    {
      "midi": 39,
      "hit": false,
      "t": 212343.75,
      "d": 230.46875,
      "v": 127
    },
    {
      "midi": 35,
      "hit": false,
      "t": 212343.75,
      "d": 464.84375,
      "v": 127
    },
    {
      "midi": 38,
      "hit": false,
      "t": 212343.75,
      "d": 464.84375,
      "v": 127
    },
    {
      "midi": 42,
      "hit": false,
      "t": 212343.75,
      "d": 230.46875,
      "v": 127
    },
    {
      "midi": 80,
      "hit": false,
      "t": 212578.125,
      "d": 230.46875,
      "v": 127
    },
    {
      "midi": 80,
      "hit": false,
      "t": 212578.125,
      "d": 230.46875,
      "v": 127
    },
    {
      "midi": 39,
      "hit": false,
      "t": 212578.125,
      "d": 230.46875,
      "v": 127
    },
    {
      "midi": 42,
      "hit": false,
      "t": 212578.125,
      "d": 113.28125,
      "v": 127
    },
    {
      "midi": 42,
      "hit": false,
      "t": 212695.3125,
      "d": 113.28125,
      "v": 127
    },
    {
      "midi": 70,
      "hit": false,
      "t": 212812.5,
      "d": 464.84375,
      "v": 127
    },
    {
      "midi": 79,
      "hit": false,
      "t": 212812.5,
      "d": 464.84375,
      "v": 127
    },
    {
      "midi": 79,
      "hit": false,
      "t": 212812.5,
      "d": 464.84375,
      "v": 127
    },
    {
      "midi": 67,
      "hit": false,
      "t": 212812.5,
      "d": 464.84375,
      "v": 114
    },
    {
      "midi": 63,
      "hit": false,
      "t": 212812.5,
      "d": 464.84375,
      "v": 124
    },
    {
      "midi": 39,
      "hit": false,
      "t": 212812.5,
      "d": 230.46875,
      "v": 127
    },
    {
      "midi": 35,
      "hit": false,
      "t": 212812.5,
      "d": 464.84375,
      "v": 127
    },
    {
      "midi": 42,
      "hit": false,
      "t": 212812.5,
      "d": 230.46875,
      "v": 127
    },
    {
      "midi": 39,
      "hit": false,
      "t": 213046.875,
      "d": 230.46875,
      "v": 127
    },
    {
      "midi": 42,
      "hit": false,
      "t": 213046.875,
      "d": 113.28125,
      "v": 127
    },
    {
      "midi": 42,
      "hit": false,
      "t": 213164.0625,
      "d": 113.28125,
      "v": 127
    },
    {
      "midi": 70,
      "hit": false,
      "t": 213281.25,
      "d": 464.84375,
      "v": 127
    },
    {
      "midi": 77,
      "hit": false,
      "t": 213281.25,
      "d": 464.84375,
      "v": 127
    },
    {
      "midi": 77,
      "hit": false,
      "t": 213281.25,
      "d": 699.21875,
      "v": 127
    },
    {
      "midi": 65,
      "hit": false,
      "t": 213281.25,
      "d": 464.84375,
      "v": 114
    },
    {
      "midi": 62,
      "hit": false,
      "t": 213281.25,
      "d": 464.84375,
      "v": 124
    },
    {
      "midi": 38,
      "hit": false,
      "t": 213281.25,
      "d": 230.46875,
      "v": 127
    },
    {
      "midi": 35,
      "hit": false,
      "t": 213281.25,
      "d": 464.84375,
      "v": 127
    },
    {
      "midi": 38,
      "hit": false,
      "t": 213281.25,
      "d": 464.84375,
      "v": 127
    },
    {
      "midi": 42,
      "hit": false,
      "t": 213281.25,
      "d": 230.46875,
      "v": 127
    },
    {
      "midi": 38,
      "hit": false,
      "t": 213515.625,
      "d": 230.46875,
      "v": 127
    },
    {
      "midi": 42,
      "hit": false,
      "t": 213515.625,
      "d": 113.28125,
      "v": 127
    },
    {
      "midi": 42,
      "hit": false,
      "t": 213632.8125,
      "d": 113.28125,
      "v": 127
    },
    {
      "midi": 67,
      "hit": false,
      "t": 213750,
      "d": 699.21875,
      "v": 127
    },
    {
      "midi": 77,
      "hit": false,
      "t": 213750,
      "d": 230.46875,
      "v": 127
    },
    {
      "midi": 63,
      "hit": false,
      "t": 213750,
      "d": 699.21875,
      "v": 114
    },
    {
      "midi": 60,
      "hit": false,
      "t": 213750,
      "d": 699.21875,
      "v": 124
    },
    {
      "midi": 36,
      "hit": false,
      "t": 213750,
      "d": 230.46875,
      "v": 127
    },
    {
      "midi": 35,
      "hit": false,
      "t": 213750,
      "d": 464.84375,
      "v": 127
    },
    {
      "midi": 42,
      "hit": false,
      "t": 213750,
      "d": 230.46875,
      "v": 127
    },
    {
      "midi": 79,
      "hit": false,
      "t": 213984.375,
      "d": 230.46875,
      "v": 127
    },
    {
      "midi": 79,
      "hit": false,
      "t": 213984.375,
      "d": 230.46875,
      "v": 127
    },
    {
      "midi": 36,
      "hit": false,
      "t": 213984.375,
      "d": 230.46875,
      "v": 127
    },
    {
      "midi": 42,
      "hit": false,
      "t": 213984.375,
      "d": 113.28125,
      "v": 127
    },
    {
      "midi": 42,
      "hit": false,
      "t": 214101.5625,
      "d": 113.28125,
      "v": 127
    },
    {
      "midi": 79,
      "hit": false,
      "t": 214218.75,
      "d": 230.46875,
      "v": 127
    },
    {
      "midi": 79,
      "hit": false,
      "t": 214218.75,
      "d": 230.46875,
      "v": 127
    },
    {
      "midi": 36,
      "hit": false,
      "t": 214218.75,
      "d": 230.46875,
      "v": 127
    },
    {
      "midi": 35,
      "hit": false,
      "t": 214218.75,
      "d": 464.84375,
      "v": 127
    },
    {
      "midi": 38,
      "hit": false,
      "t": 214218.75,
      "d": 464.84375,
      "v": 127
    },
    {
      "midi": 42,
      "hit": false,
      "t": 214218.75,
      "d": 230.46875,
      "v": 127
    },
    {
      "midi": 67,
      "hit": false,
      "t": 214453.125,
      "d": 230.46875,
      "v": 127
    },
    {
      "midi": 77,
      "hit": false,
      "t": 214453.125,
      "d": 230.46875,
      "v": 127
    },
    {
      "midi": 77,
      "hit": false,
      "t": 214453.125,
      "d": 230.46875,
      "v": 127
    },
    {
      "midi": 63,
      "hit": false,
      "t": 214453.125,
      "d": 230.46875,
      "v": 114
    },
    {
      "midi": 60,
      "hit": false,
      "t": 214453.125,
      "d": 230.46875,
      "v": 124
    },
    {
      "midi": 36,
      "hit": false,
      "t": 214453.125,
      "d": 230.46875,
      "v": 127
    },
    {
      "midi": 42,
      "hit": false,
      "t": 214453.125,
      "d": 113.28125,
      "v": 127
    },
    {
      "midi": 42,
      "hit": false,
      "t": 214570.3125,
      "d": 113.28125,
      "v": 127
    },
    {
      "midi": 67,
      "hit": false,
      "t": 214687.5,
      "d": 933.59375,
      "v": 127
    },
    {
      "midi": 79,
      "hit": false,
      "t": 214687.5,
      "d": 1167.96875,
      "v": 127
    },
    {
      "midi": 79,
      "hit": false,
      "t": 214687.5,
      "d": 1167.96875,
      "v": 127
    },
    {
      "midi": 63,
      "hit": false,
      "t": 214687.5,
      "d": 933.59375,
      "v": 114
    },
    {
      "midi": 60,
      "hit": false,
      "t": 214687.5,
      "d": 933.59375,
      "v": 124
    },
    {
      "midi": 36,
      "hit": false,
      "t": 214687.5,
      "d": 230.46875,
      "v": 127
    },
    {
      "midi": 35,
      "hit": false,
      "t": 214687.5,
      "d": 464.84375,
      "v": 127
    },
    {
      "midi": 42,
      "hit": false,
      "t": 214687.5,
      "d": 230.46875,
      "v": 127
    },
    {
      "midi": 36,
      "hit": false,
      "t": 214921.875,
      "d": 230.46875,
      "v": 127
    },
    {
      "midi": 42,
      "hit": false,
      "t": 214921.875,
      "d": 113.28125,
      "v": 127
    },
    {
      "midi": 42,
      "hit": false,
      "t": 215039.0625,
      "d": 113.28125,
      "v": 127
    },
    {
      "midi": 36,
      "hit": false,
      "t": 215156.25,
      "d": 230.46875,
      "v": 127
    },
    {
      "midi": 35,
      "hit": false,
      "t": 215156.25,
      "d": 464.84375,
      "v": 127
    },
    {
      "midi": 38,
      "hit": false,
      "t": 215156.25,
      "d": 464.84375,
      "v": 127
    },
    {
      "midi": 42,
      "hit": false,
      "t": 215156.25,
      "d": 230.46875,
      "v": 127
    },
    {
      "midi": 36,
      "hit": false,
      "t": 215390.625,
      "d": 230.46875,
      "v": 127
    },
    {
      "midi": 42,
      "hit": false,
      "t": 215390.625,
      "d": 113.28125,
      "v": 127
    },
    {
      "midi": 42,
      "hit": false,
      "t": 215507.8125,
      "d": 113.28125,
      "v": 127
    },
    {
      "midi": 67,
      "hit": false,
      "t": 215625,
      "d": 933.59375,
      "v": 127
    },
    {
      "midi": 63,
      "hit": false,
      "t": 215625,
      "d": 933.59375,
      "v": 114
    },
    {
      "midi": 60,
      "hit": false,
      "t": 215625,
      "d": 933.59375,
      "v": 124
    },
    {
      "midi": 36,
      "hit": false,
      "t": 215625,
      "d": 230.46875,
      "v": 127
    },
    {
      "midi": 35,
      "hit": false,
      "t": 215625,
      "d": 464.84375,
      "v": 127
    },
    {
      "midi": 42,
      "hit": false,
      "t": 215625,
      "d": 230.46875,
      "v": 127
    },
    {
      "midi": 77,
      "hit": false,
      "t": 215859.375,
      "d": 230.46875,
      "v": 127
    },
    {
      "midi": 77,
      "hit": false,
      "t": 215859.375,
      "d": 230.46875,
      "v": 127
    },
    {
      "midi": 36,
      "hit": false,
      "t": 215859.375,
      "d": 230.46875,
      "v": 127
    },
    {
      "midi": 42,
      "hit": false,
      "t": 215859.375,
      "d": 113.28125,
      "v": 127
    },
    {
      "midi": 42,
      "hit": false,
      "t": 215976.5625,
      "d": 113.28125,
      "v": 127
    },
    {
      "midi": 79,
      "hit": false,
      "t": 216093.75,
      "d": 230.46875,
      "v": 127
    },
    {
      "midi": 79,
      "hit": false,
      "t": 216093.75,
      "d": 230.46875,
      "v": 127
    },
    {
      "midi": 36,
      "hit": false,
      "t": 216093.75,
      "d": 230.46875,
      "v": 127
    },
    {
      "midi": 35,
      "hit": false,
      "t": 216093.75,
      "d": 464.84375,
      "v": 127
    },
    {
      "midi": 38,
      "hit": false,
      "t": 216093.75,
      "d": 464.84375,
      "v": 127
    },
    {
      "midi": 42,
      "hit": false,
      "t": 216093.75,
      "d": 230.46875,
      "v": 127
    },
    {
      "midi": 82,
      "hit": false,
      "t": 216328.125,
      "d": 230.46875,
      "v": 127
    },
    {
      "midi": 82,
      "hit": false,
      "t": 216328.125,
      "d": 230.46875,
      "v": 127
    },
    {
      "midi": 36,
      "hit": false,
      "t": 216328.125,
      "d": 230.46875,
      "v": 127
    },
    {
      "midi": 42,
      "hit": false,
      "t": 216328.125,
      "d": 113.28125,
      "v": 127
    },
    {
      "midi": 42,
      "hit": false,
      "t": 216445.3125,
      "d": 113.28125,
      "v": 127
    },
    {
      "midi": 67,
      "hit": false,
      "t": 216562.5,
      "d": 464.84375,
      "v": 127
    },
    {
      "midi": 79,
      "hit": false,
      "t": 216562.5,
      "d": 464.84375,
      "v": 127
    },
    {
      "midi": 79,
      "hit": false,
      "t": 216562.5,
      "d": 230.46875,
      "v": 127
    },
    {
      "midi": 63,
      "hit": false,
      "t": 216562.5,
      "d": 464.84375,
      "v": 114
    },
    {
      "midi": 60,
      "hit": false,
      "t": 216562.5,
      "d": 464.84375,
      "v": 124
    },
    {
      "midi": 36,
      "hit": false,
      "t": 216562.5,
      "d": 230.46875,
      "v": 127
    },
    {
      "midi": 35,
      "hit": false,
      "t": 216562.5,
      "d": 464.84375,
      "v": 127
    },
    {
      "midi": 42,
      "hit": false,
      "t": 216562.5,
      "d": 230.46875,
      "v": 127
    },
    {
      "midi": 80,
      "hit": false,
      "t": 216796.875,
      "d": 113.28125,
      "v": 127
    },
    {
      "midi": 36,
      "hit": false,
      "t": 216796.875,
      "d": 230.46875,
      "v": 127
    },
    {
      "midi": 42,
      "hit": false,
      "t": 216796.875,
      "d": 113.28125,
      "v": 127
    },
    {
      "midi": 79,
      "hit": false,
      "t": 216914.0625,
      "d": 113.28125,
      "v": 127
    },
    {
      "midi": 42,
      "hit": false,
      "t": 216914.0625,
      "d": 113.28125,
      "v": 127
    },
    {
      "midi": 65,
      "hit": false,
      "t": 217031.25,
      "d": 464.84375,
      "v": 127
    },
    {
      "midi": 77,
      "hit": false,
      "t": 217031.25,
      "d": 464.84375,
      "v": 127
    },
    {
      "midi": 77,
      "hit": false,
      "t": 217031.25,
      "d": 464.84375,
      "v": 127
    },
    {
      "midi": 62,
      "hit": false,
      "t": 217031.25,
      "d": 464.84375,
      "v": 114
    },
    {
      "midi": 58,
      "hit": false,
      "t": 217031.25,
      "d": 464.84375,
      "v": 124
    },
    {
      "midi": 34,
      "hit": false,
      "t": 217031.25,
      "d": 230.46875,
      "v": 127
    },
    {
      "midi": 35,
      "hit": false,
      "t": 217031.25,
      "d": 464.84375,
      "v": 127
    },
    {
      "midi": 38,
      "hit": false,
      "t": 217031.25,
      "d": 464.84375,
      "v": 127
    },
    {
      "midi": 42,
      "hit": false,
      "t": 217031.25,
      "d": 230.46875,
      "v": 127
    },
    {
      "midi": 34,
      "hit": false,
      "t": 217265.625,
      "d": 230.46875,
      "v": 127
    },
    {
      "midi": 42,
      "hit": false,
      "t": 217265.625,
      "d": 113.28125,
      "v": 127
    },
    {
      "midi": 42,
      "hit": false,
      "t": 217382.8125,
      "d": 113.28125,
      "v": 127
    },
    {
      "midi": 68,
      "hit": false,
      "t": 217500,
      "d": 699.21875,
      "v": 127
    },
    {
      "midi": 79,
      "hit": false,
      "t": 217500,
      "d": 230.46875,
      "v": 127
    },
    {
      "midi": 79,
      "hit": false,
      "t": 217500,
      "d": 230.46875,
      "v": 127
    },
    {
      "midi": 63,
      "hit": false,
      "t": 217500,
      "d": 699.21875,
      "v": 114
    },
    {
      "midi": 60,
      "hit": false,
      "t": 217500,
      "d": 699.21875,
      "v": 124
    },
    {
      "midi": 32,
      "hit": false,
      "t": 217500,
      "d": 230.46875,
      "v": 127
    },
    {
      "midi": 35,
      "hit": false,
      "t": 217500,
      "d": 464.84375,
      "v": 127
    },
    {
      "midi": 42,
      "hit": false,
      "t": 217500,
      "d": 230.46875,
      "v": 127
    },
    {
      "midi": 80,
      "hit": false,
      "t": 217734.375,
      "d": 230.46875,
      "v": 127
    },
    {
      "midi": 80,
      "hit": false,
      "t": 217734.375,
      "d": 230.46875,
      "v": 127
    },
    {
      "midi": 32,
      "hit": false,
      "t": 217734.375,
      "d": 230.46875,
      "v": 127
    },
    {
      "midi": 42,
      "hit": false,
      "t": 217734.375,
      "d": 113.28125,
      "v": 127
    },
    {
      "midi": 42,
      "hit": false,
      "t": 217851.5625,
      "d": 113.28125,
      "v": 127
    },
    {
      "midi": 80,
      "hit": false,
      "t": 217968.75,
      "d": 230.46875,
      "v": 127
    },
    {
      "midi": 80,
      "hit": false,
      "t": 217968.75,
      "d": 230.46875,
      "v": 127
    },
    {
      "midi": 32,
      "hit": false,
      "t": 217968.75,
      "d": 230.46875,
      "v": 127
    },
    {
      "midi": 35,
      "hit": false,
      "t": 217968.75,
      "d": 464.84375,
      "v": 127
    },
    {
      "midi": 38,
      "hit": false,
      "t": 217968.75,
      "d": 464.84375,
      "v": 127
    },
    {
      "midi": 42,
      "hit": false,
      "t": 217968.75,
      "d": 230.46875,
      "v": 127
    },
    {
      "midi": 68,
      "hit": false,
      "t": 218203.125,
      "d": 230.46875,
      "v": 127
    },
    {
      "midi": 79,
      "hit": false,
      "t": 218203.125,
      "d": 230.46875,
      "v": 127
    },
    {
      "midi": 79,
      "hit": false,
      "t": 218203.125,
      "d": 230.46875,
      "v": 127
    },
    {
      "midi": 63,
      "hit": false,
      "t": 218203.125,
      "d": 230.46875,
      "v": 114
    },
    {
      "midi": 60,
      "hit": false,
      "t": 218203.125,
      "d": 230.46875,
      "v": 124
    },
    {
      "midi": 32,
      "hit": false,
      "t": 218203.125,
      "d": 230.46875,
      "v": 127
    },
    {
      "midi": 42,
      "hit": false,
      "t": 218203.125,
      "d": 113.28125,
      "v": 127
    },
    {
      "midi": 42,
      "hit": false,
      "t": 218320.3125,
      "d": 113.28125,
      "v": 127
    },
    {
      "midi": 68,
      "hit": false,
      "t": 218437.5,
      "d": 933.59375,
      "v": 127
    },
    {
      "midi": 80,
      "hit": false,
      "t": 218437.5,
      "d": 1167.96875,
      "v": 127
    },
    {
      "midi": 80,
      "hit": false,
      "t": 218437.5,
      "d": 1167.96875,
      "v": 127
    },
    {
      "midi": 63,
      "hit": false,
      "t": 218437.5,
      "d": 933.59375,
      "v": 114
    },
    {
      "midi": 60,
      "hit": false,
      "t": 218437.5,
      "d": 933.59375,
      "v": 124
    },
    {
      "midi": 32,
      "hit": false,
      "t": 218437.5,
      "d": 230.46875,
      "v": 127
    },
    {
      "midi": 35,
      "hit": false,
      "t": 218437.5,
      "d": 464.84375,
      "v": 127
    },
    {
      "midi": 42,
      "hit": false,
      "t": 218437.5,
      "d": 230.46875,
      "v": 127
    },
    {
      "midi": 32,
      "hit": false,
      "t": 218671.875,
      "d": 230.46875,
      "v": 127
    },
    {
      "midi": 42,
      "hit": false,
      "t": 218671.875,
      "d": 113.28125,
      "v": 127
    },
    {
      "midi": 42,
      "hit": false,
      "t": 218789.0625,
      "d": 113.28125,
      "v": 127
    },
    {
      "midi": 32,
      "hit": false,
      "t": 218906.25,
      "d": 230.46875,
      "v": 127
    },
    {
      "midi": 35,
      "hit": false,
      "t": 218906.25,
      "d": 464.84375,
      "v": 127
    },
    {
      "midi": 38,
      "hit": false,
      "t": 218906.25,
      "d": 464.84375,
      "v": 127
    },
    {
      "midi": 42,
      "hit": false,
      "t": 218906.25,
      "d": 230.46875,
      "v": 127
    },
    {
      "midi": 32,
      "hit": false,
      "t": 219140.625,
      "d": 230.46875,
      "v": 127
    },
    {
      "midi": 42,
      "hit": false,
      "t": 219140.625,
      "d": 113.28125,
      "v": 127
    },
    {
      "midi": 42,
      "hit": false,
      "t": 219257.8125,
      "d": 113.28125,
      "v": 127
    },
    {
      "midi": 68,
      "hit": false,
      "t": 219375,
      "d": 933.59375,
      "v": 127
    },
    {
      "midi": 63,
      "hit": false,
      "t": 219375,
      "d": 933.59375,
      "v": 114
    },
    {
      "midi": 60,
      "hit": false,
      "t": 219375,
      "d": 933.59375,
      "v": 124
    },
    {
      "midi": 32,
      "hit": false,
      "t": 219375,
      "d": 230.46875,
      "v": 127
    },
    {
      "midi": 35,
      "hit": false,
      "t": 219375,
      "d": 464.84375,
      "v": 127
    },
    {
      "midi": 42,
      "hit": false,
      "t": 219375,
      "d": 230.46875,
      "v": 127
    },
    {
      "midi": 79,
      "hit": false,
      "t": 219609.375,
      "d": 230.46875,
      "v": 127
    },
    {
      "midi": 79,
      "hit": false,
      "t": 219609.375,
      "d": 230.46875,
      "v": 127
    },
    {
      "midi": 32,
      "hit": false,
      "t": 219609.375,
      "d": 230.46875,
      "v": 127
    },
    {
      "midi": 42,
      "hit": false,
      "t": 219609.375,
      "d": 113.28125,
      "v": 127
    },
    {
      "midi": 42,
      "hit": false,
      "t": 219726.5625,
      "d": 113.28125,
      "v": 127
    },
    {
      "midi": 80,
      "hit": false,
      "t": 219843.75,
      "d": 230.46875,
      "v": 127
    },
    {
      "midi": 80,
      "hit": false,
      "t": 219843.75,
      "d": 230.46875,
      "v": 127
    },
    {
      "midi": 32,
      "hit": false,
      "t": 219843.75,
      "d": 230.46875,
      "v": 127
    },
    {
      "midi": 35,
      "hit": false,
      "t": 219843.75,
      "d": 464.84375,
      "v": 127
    },
    {
      "midi": 38,
      "hit": false,
      "t": 219843.75,
      "d": 464.84375,
      "v": 127
    },
    {
      "midi": 42,
      "hit": false,
      "t": 219843.75,
      "d": 230.46875,
      "v": 127
    },
    {
      "midi": 82,
      "hit": false,
      "t": 220078.125,
      "d": 230.46875,
      "v": 127
    },
    {
      "midi": 82,
      "hit": false,
      "t": 220078.125,
      "d": 230.46875,
      "v": 127
    },
    {
      "midi": 32,
      "hit": false,
      "t": 220078.125,
      "d": 230.46875,
      "v": 127
    },
    {
      "midi": 42,
      "hit": false,
      "t": 220078.125,
      "d": 113.28125,
      "v": 127
    },
    {
      "midi": 42,
      "hit": false,
      "t": 220195.3125,
      "d": 113.28125,
      "v": 127
    },
    {
      "midi": 68,
      "hit": false,
      "t": 220312.5,
      "d": 464.84375,
      "v": 127
    },
    {
      "midi": 80,
      "hit": false,
      "t": 220312.5,
      "d": 464.84375,
      "v": 127
    },
    {
      "midi": 80,
      "hit": false,
      "t": 220312.5,
      "d": 464.84375,
      "v": 127
    },
    {
      "midi": 63,
      "hit": false,
      "t": 220312.5,
      "d": 464.84375,
      "v": 114
    },
    {
      "midi": 60,
      "hit": false,
      "t": 220312.5,
      "d": 464.84375,
      "v": 124
    },
    {
      "midi": 32,
      "hit": false,
      "t": 220312.5,
      "d": 230.46875,
      "v": 127
    },
    {
      "midi": 35,
      "hit": false,
      "t": 220312.5,
      "d": 464.84375,
      "v": 127
    },
    {
      "midi": 42,
      "hit": false,
      "t": 220312.5,
      "d": 230.46875,
      "v": 127
    },
    {
      "midi": 32,
      "hit": false,
      "t": 220546.875,
      "d": 230.46875,
      "v": 127
    },
    {
      "midi": 42,
      "hit": false,
      "t": 220546.875,
      "d": 113.28125,
      "v": 127
    },
    {
      "midi": 42,
      "hit": false,
      "t": 220664.0625,
      "d": 113.28125,
      "v": 127
    },
    {
      "midi": 67,
      "hit": false,
      "t": 220781.25,
      "d": 464.84375,
      "v": 127
    },
    {
      "midi": 79,
      "hit": false,
      "t": 220781.25,
      "d": 464.84375,
      "v": 127
    },
    {
      "midi": 79,
      "hit": false,
      "t": 220781.25,
      "d": 464.84375,
      "v": 127
    },
    {
      "midi": 63,
      "hit": false,
      "t": 220781.25,
      "d": 464.84375,
      "v": 114
    },
    {
      "midi": 60,
      "hit": false,
      "t": 220781.25,
      "d": 464.84375,
      "v": 124
    },
    {
      "midi": 31,
      "hit": false,
      "t": 220781.25,
      "d": 230.46875,
      "v": 127
    },
    {
      "midi": 35,
      "hit": false,
      "t": 220781.25,
      "d": 464.84375,
      "v": 127
    },
    {
      "midi": 38,
      "hit": false,
      "t": 220781.25,
      "d": 464.84375,
      "v": 127
    },
    {
      "midi": 42,
      "hit": false,
      "t": 220781.25,
      "d": 230.46875,
      "v": 127
    },
    {
      "midi": 31,
      "hit": false,
      "t": 221015.625,
      "d": 230.46875,
      "v": 127
    },
    {
      "midi": 42,
      "hit": false,
      "t": 221015.625,
      "d": 113.28125,
      "v": 127
    },
    {
      "midi": 42,
      "hit": false,
      "t": 221132.8125,
      "d": 113.28125,
      "v": 127
    },
    {
      "midi": 68,
      "hit": false,
      "t": 221250,
      "d": 699.21875,
      "v": 127
    },
    {
      "midi": 80,
      "hit": false,
      "t": 221250,
      "d": 1402.34375,
      "v": 127
    },
    {
      "midi": 80,
      "hit": false,
      "t": 221250,
      "d": 1402.34375,
      "v": 127
    },
    {
      "midi": 63,
      "hit": false,
      "t": 221250,
      "d": 699.21875,
      "v": 114
    },
    {
      "midi": 60,
      "hit": false,
      "t": 221250,
      "d": 699.21875,
      "v": 124
    },
    {
      "midi": 29,
      "hit": false,
      "t": 221250,
      "d": 230.46875,
      "v": 127
    },
    {
      "midi": 35,
      "hit": false,
      "t": 221250,
      "d": 464.84375,
      "v": 127
    },
    {
      "midi": 42,
      "hit": false,
      "t": 221250,
      "d": 230.46875,
      "v": 127
    },
    {
      "midi": 29,
      "hit": false,
      "t": 221484.375,
      "d": 230.46875,
      "v": 127
    },
    {
      "midi": 42,
      "hit": false,
      "t": 221484.375,
      "d": 113.28125,
      "v": 127
    },
    {
      "midi": 42,
      "hit": false,
      "t": 221601.5625,
      "d": 113.28125,
      "v": 127
    },
    {
      "midi": 29,
      "hit": false,
      "t": 221718.75,
      "d": 230.46875,
      "v": 127
    },
    {
      "midi": 35,
      "hit": false,
      "t": 221718.75,
      "d": 464.84375,
      "v": 127
    },
    {
      "midi": 38,
      "hit": false,
      "t": 221718.75,
      "d": 464.84375,
      "v": 127
    },
    {
      "midi": 42,
      "hit": false,
      "t": 221718.75,
      "d": 230.46875,
      "v": 127
    },
    {
      "midi": 68,
      "hit": false,
      "t": 221953.125,
      "d": 1167.96875,
      "v": 127
    },
    {
      "midi": 63,
      "hit": false,
      "t": 221953.125,
      "d": 1167.96875,
      "v": 114
    },
    {
      "midi": 60,
      "hit": false,
      "t": 221953.125,
      "d": 1167.96875,
      "v": 124
    },
    {
      "midi": 29,
      "hit": false,
      "t": 221953.125,
      "d": 230.46875,
      "v": 127
    },
    {
      "midi": 42,
      "hit": false,
      "t": 221953.125,
      "d": 113.28125,
      "v": 127
    },
    {
      "midi": 42,
      "hit": false,
      "t": 222070.3125,
      "d": 113.28125,
      "v": 127
    },
    {
      "midi": 29,
      "hit": false,
      "t": 222187.5,
      "d": 230.46875,
      "v": 127
    },
    {
      "midi": 35,
      "hit": false,
      "t": 222187.5,
      "d": 464.84375,
      "v": 127
    },
    {
      "midi": 42,
      "hit": false,
      "t": 222187.5,
      "d": 230.46875,
      "v": 127
    },
    {
      "midi": 29,
      "hit": false,
      "t": 222421.875,
      "d": 230.46875,
      "v": 127
    },
    {
      "midi": 42,
      "hit": false,
      "t": 222421.875,
      "d": 113.28125,
      "v": 127
    },
    {
      "midi": 42,
      "hit": false,
      "t": 222539.0625,
      "d": 113.28125,
      "v": 127
    },
    {
      "midi": 75,
      "hit": false,
      "t": 222656.25,
      "d": 464.84375,
      "v": 127
    },
    {
      "midi": 75,
      "hit": false,
      "t": 222656.25,
      "d": 464.84375,
      "v": 127
    },
    {
      "midi": 32,
      "hit": false,
      "t": 222656.25,
      "d": 230.46875,
      "v": 127
    },
    {
      "midi": 35,
      "hit": false,
      "t": 222656.25,
      "d": 464.84375,
      "v": 127
    },
    {
      "midi": 38,
      "hit": false,
      "t": 222656.25,
      "d": 464.84375,
      "v": 127
    },
    {
      "midi": 42,
      "hit": false,
      "t": 222656.25,
      "d": 230.46875,
      "v": 127
    },
    {
      "midi": 32,
      "hit": false,
      "t": 222890.625,
      "d": 230.46875,
      "v": 127
    },
    {
      "midi": 42,
      "hit": false,
      "t": 222890.625,
      "d": 113.28125,
      "v": 127
    },
    {
      "midi": 42,
      "hit": false,
      "t": 223007.8125,
      "d": 113.28125,
      "v": 127
    },
    {
      "midi": 70,
      "hit": false,
      "t": 223125,
      "d": 699.21875,
      "v": 127
    },
    {
      "midi": 77,
      "hit": false,
      "t": 223125,
      "d": 1871.09375,
      "v": 127
    },
    {
      "midi": 77,
      "hit": false,
      "t": 223125,
      "d": 1871.09375,
      "v": 127
    },
    {
      "midi": 65,
      "hit": false,
      "t": 223125,
      "d": 699.21875,
      "v": 114
    },
    {
      "midi": 62,
      "hit": false,
      "t": 223125,
      "d": 699.21875,
      "v": 124
    },
    {
      "midi": 34,
      "hit": false,
      "t": 223125,
      "d": 230.46875,
      "v": 127
    },
    {
      "midi": 35,
      "hit": false,
      "t": 223125,
      "d": 464.84375,
      "v": 127
    },
    {
      "midi": 42,
      "hit": false,
      "t": 223125,
      "d": 230.46875,
      "v": 127
    },
    {
      "midi": 34,
      "hit": false,
      "t": 223359.375,
      "d": 230.46875,
      "v": 127
    },
    {
      "midi": 42,
      "hit": false,
      "t": 223359.375,
      "d": 113.28125,
      "v": 127
    },
    {
      "midi": 42,
      "hit": false,
      "t": 223476.5625,
      "d": 113.28125,
      "v": 127
    },
    {
      "midi": 34,
      "hit": false,
      "t": 223593.75,
      "d": 230.46875,
      "v": 127
    },
    {
      "midi": 35,
      "hit": false,
      "t": 223593.75,
      "d": 464.84375,
      "v": 127
    },
    {
      "midi": 38,
      "hit": false,
      "t": 223593.75,
      "d": 464.84375,
      "v": 127
    },
    {
      "midi": 42,
      "hit": false,
      "t": 223593.75,
      "d": 230.46875,
      "v": 127
    },
    {
      "midi": 70,
      "hit": false,
      "t": 223828.125,
      "d": 1167.96875,
      "v": 127
    },
    {
      "midi": 65,
      "hit": false,
      "t": 223828.125,
      "d": 1167.96875,
      "v": 114
    },
    {
      "midi": 62,
      "hit": false,
      "t": 223828.125,
      "d": 1167.96875,
      "v": 124
    },
    {
      "midi": 34,
      "hit": false,
      "t": 223828.125,
      "d": 230.46875,
      "v": 127
    },
    {
      "midi": 42,
      "hit": false,
      "t": 223828.125,
      "d": 113.28125,
      "v": 127
    },
    {
      "midi": 42,
      "hit": false,
      "t": 223945.3125,
      "d": 113.28125,
      "v": 127
    },
    {
      "midi": 34,
      "hit": false,
      "t": 224062.5,
      "d": 230.46875,
      "v": 127
    },
    {
      "midi": 35,
      "hit": false,
      "t": 224062.5,
      "d": 230.46875,
      "v": 127
    },
    {
      "midi": 29,
      "hit": false,
      "t": 224062.5,
      "d": 230.46875,
      "v": 127
    },
    {
      "midi": 34,
      "hit": false,
      "t": 224296.875,
      "d": 230.46875,
      "v": 127
    },
    {
      "midi": 35,
      "hit": false,
      "t": 224296.875,
      "d": 230.46875,
      "v": 127
    },
    {
      "midi": 38,
      "hit": false,
      "t": 224296.875,
      "d": 230.46875,
      "v": 127
    },
    {
      "midi": 29,
      "hit": false,
      "t": 224296.875,
      "d": 230.46875,
      "v": 127
    },
    {
      "midi": 34,
      "hit": false,
      "t": 224531.25,
      "d": 230.46875,
      "v": 127
    },
    {
      "midi": 35,
      "hit": false,
      "t": 224531.25,
      "d": 230.46875,
      "v": 127
    },
    {
      "midi": 38,
      "hit": false,
      "t": 224531.25,
      "d": 230.46875,
      "v": 127
    },
    {
      "midi": 34,
      "hit": false,
      "t": 224765.625,
      "d": 230.46875,
      "v": 127
    },
    {
      "midi": 35,
      "hit": false,
      "t": 224765.625,
      "d": 230.46875,
      "v": 127
    },
    {
      "midi": 38,
      "hit": false,
      "t": 224765.625,
      "d": 230.46875,
      "v": 127
    },
    {
      "midi": 70,
      "hit": false,
      "t": 225468.75,
      "d": 1402.34375,
      "v": 127
    },
    {
      "midi": 82,
      "hit": false,
      "t": 225468.75,
      "d": 1402.34375,
      "v": 127
    },
    {
      "midi": 79,
      "hit": false,
      "t": 225468.75,
      "d": 1402.34375,
      "v": 127
    },
    {
      "midi": 67,
      "hit": false,
      "t": 225468.75,
      "d": 1402.34375,
      "v": 114
    },
    {
      "midi": 63,
      "hit": false,
      "t": 225468.75,
      "d": 1402.34375,
      "v": 124
    },
    {
      "midi": 39,
      "hit": false,
      "t": 225468.75,
      "d": 1402.34375,
      "v": 127
    },
    {
      "midi": 29,
      "hit": false,
      "t": 225468.75,
      "d": 1402.34375,
      "v": 127
    },
    {
      "midi": 31,
      "hit": false,
      "t": 225468.75,
      "d": 1402.34375,
      "v": 127
    },
    {
      "midi": 28,
      "hit": false,
      "t": 225468.75,
      "d": 1402.34375,
      "v": 127
    }
  ]
}