{
  "jsonPath": "Soundtracks/Video Game Music/Final Fantasy/final-fantasy-matoyascave.json",
  "path": "Soundtracks\\Video Game Music\\Final Fantasy\\Final_Fantasy_MatoyasCave.mid",
  "name": "Final_Fantasy_MatoyasCave",
  "difficulty": "Advanced",
  "bpm": 120,
  "notes": [
    {
      "midi": 71,
      "hit": false,
      "t": 0,
      "d": 244.79166666666666,
      "v": 110
    },
    {
      "midi": 35,
      "hit": false,
      "t": 0,
      "d": 875,
      "v": 110
    },
    {
      "midi": 47,
      "hit": false,
      "t": 0,
      "d": 875,
      "v": 110
    },
    {
      "midi": 74,
      "hit": false,
      "t": 250,
      "d": 244.79166666666663,
      "v": 110
    },
    {
      "midi": 78,
      "hit": false,
      "t": 499.99999999999994,
      "d": 244.79166666666669,
      "v": 110
    },
    {
      "midi": 71,
      "hit": false,
      "t": 750,
      "d": 244.79166666666663,
      "v": 110
    },
    {
      "midi": 79,
      "hit": false,
      "t": 1000,
      "d": 416.66666666666674,
      "v": 110
    },
    {
      "midi": 40,
      "hit": false,
      "t": 1000,
      "d": 875,
      "v": 110
    },
    {
      "midi": 52,
      "hit": false,
      "t": 1000,
      "d": 875,
      "v": 110
    },
    {
      "midi": 78,
      "hit": false,
      "t": 1500,
      "d": 244.79166666666674,
      "v": 110
    },
    {
      "midi": 76,
      "hit": false,
      "t": 1750,
      "d": 244.79166666666674,
      "v": 110
    },
    {
      "midi": 74,
      "hit": false,
      "t": 2000,
      "d": 416.6666666666665,
      "v": 110
    },
    {
      "midi": 43,
      "hit": false,
      "t": 2000,
      "d": 875,
      "v": 110
    },
    {
      "midi": 55,
      "hit": false,
      "t": 2000,
      "d": 875,
      "v": 110
    },
    {
      "midi": 76,
      "hit": false,
      "t": 2500,
      "d": 244.79166666666652,
      "v": 110
    },
    {
      "midi": 74,
      "hit": false,
      "t": 2750,
      "d": 244.79166666666652,
      "v": 110
    },
    {
      "midi": 73,
      "hit": false,
      "t": 3000,
      "d": 875,
      "v": 110
    },
    {
      "midi": 45,
      "hit": false,
      "t": 3000,
      "d": 416.6666666666665,
      "v": 110
    },
    {
      "midi": 57,
      "hit": false,
      "t": 3000,
      "d": 416.6666666666665,
      "v": 110
    },
    {
      "midi": 43,
      "hit": false,
      "t": 3500,
      "d": 416.6666666666665,
      "v": 110
    },
    {
      "midi": 55,
      "hit": false,
      "t": 3500,
      "d": 416.6666666666665,
      "v": 110
    },
    {
      "midi": 74,
      "hit": false,
      "t": 4000,
      "d": 244.79166666666697,
      "v": 110
    },
    {
      "midi": 38,
      "hit": false,
      "t": 4000,
      "d": 875,
      "v": 110
    },
    {
      "midi": 50,
      "hit": false,
      "t": 4000,
      "d": 875,
      "v": 110
    },
    {
      "midi": 78,
      "hit": false,
      "t": 4250,
      "d": 244.79166666666697,
      "v": 110
    },
    {
      "midi": 81,
      "hit": false,
      "t": 4500,
      "d": 244.79166666666697,
      "v": 110
    },
    {
      "midi": 74,
      "hit": false,
      "t": 4750,
      "d": 244.79166666666697,
      "v": 110
    },
    {
      "midi": 83,
      "hit": false,
      "t": 5000,
      "d": 416.66666666666697,
      "v": 110
    },
    {
      "midi": 43,
      "hit": false,
      "t": 5000,
      "d": 875,
      "v": 110
    },
    {
      "midi": 55,
      "hit": false,
      "t": 5000,
      "d": 875,
      "v": 110
    },
    {
      "midi": 81,
      "hit": false,
      "t": 5500,
      "d": 244.79166666666697,
      "v": 110
    },
    {
      "midi": 79,
      "hit": false,
      "t": 5750,
      "d": 244.79166666666697,
      "v": 110
    },
    {
      "midi": 78,
      "hit": false,
      "t": 6000,
      "d": 416.66666666666697,
      "v": 110
    },
    {
      "midi": 47,
      "hit": false,
      "t": 6000,
      "d": 875,
      "v": 110
    },
    {
      "midi": 59,
      "hit": false,
      "t": 6000,
      "d": 875,
      "v": 110
    },
    {
      "midi": 79,
      "hit": false,
      "t": 6500,
      "d": 244.79166666666697,
      "v": 110
    },
    {
      "midi": 78,
      "hit": false,
      "t": 6750,
      "d": 244.79166666666697,
      "v": 110
    },
    {
      "midi": 76,
      "hit": false,
      "t": 7000,
      "d": 416.66666666666697,
      "v": 110
    },
    {
      "midi": 45,
      "hit": false,
      "t": 7000,
      "d": 244.79166666666697,
      "v": 110
    },
    {
      "midi": 57,
      "hit": false,
      "t": 7000,
      "d": 244.79166666666697,
      "v": 110
    },
    {
      "midi": 40,
      "hit": false,
      "t": 7250,
      "d": 244.79166666666697,
      "v": 110
    },
    {
      "midi": 52,
      "hit": false,
      "t": 7250,
      "d": 244.79166666666697,
      "v": 110
    },
    {
      "midi": 78,
      "hit": false,
      "t": 7500,
      "d": 244.79166666666697,
      "v": 110
    },
    {
      "midi": 37,
      "hit": false,
      "t": 7500,
      "d": 244.79166666666697,
      "v": 110
    },
    {
      "midi": 49,
      "hit": false,
      "t": 7500,
      "d": 244.79166666666697,
      "v": 110
    },
    {
      "midi": 79,
      "hit": false,
      "t": 7750,
      "d": 244.79166666666697,
      "v": 110
    },
    {
      "midi": 33,
      "hit": false,
      "t": 7750,
      "d": 244.79166666666697,
      "v": 110
    },
    {
      "midi": 45,
      "hit": false,
      "t": 7750,
      "d": 244.79166666666697,
      "v": 110
    },
    {
      "midi": 81,
      "hit": false,
      "t": 8000,
      "d": 875,
      "v": 110
    },
    {
      "midi": 42,
      "hit": false,
      "t": 8000,
      "d": 244.79166666666606,
      "v": 110
    },
    {
      "midi": 42,
      "hit": false,
      "t": 8250,
      "d": 244.79166666666606,
      "v": 110
    },
    {
      "midi": 49,
      "hit": false,
      "t": 8500,
      "d": 244.79166666666606,
      "v": 110
    },
    {
      "midi": 54,
      "hit": false,
      "t": 8750,
      "d": 244.79166666666606,
      "v": 110
    },
    {
      "midi": 73,
      "hit": false,
      "t": 9000,
      "d": 416.66666666666606,
      "v": 110
    },
    {
      "midi": 42,
      "hit": false,
      "t": 9000,
      "d": 244.79166666666606,
      "v": 110
    },
    {
      "midi": 42,
      "hit": false,
      "t": 9250,
      "d": 244.79166666666606,
      "v": 110
    },
    {
      "midi": 76,
      "hit": false,
      "t": 9500,
      "d": 416.66666666666606,
      "v": 110
    },
    {
      "midi": 54,
      "hit": false,
      "t": 9500,
      "d": 244.79166666666606,
      "v": 110
    },
    {
      "midi": 49,
      "hit": false,
      "t": 9750,
      "d": 244.79166666666606,
      "v": 110
    },
    {
      "midi": 74,
      "hit": false,
      "t": 10000,
      "d": 161.45833333333394,
      "v": 110
    },
    {
      "midi": 47,
      "hit": false,
      "t": 10000,
      "d": 244.79166666666606,
      "v": 110
    },
    {
      "midi": 73,
      "hit": false,
      "t": 10166.666666666668,
      "d": 161.45833333333394,
      "v": 110
    },
    {
      "midi": 47,
      "hit": false,
      "t": 10250,
      "d": 244.79166666666606,
      "v": 110
    },
    {
      "midi": 74,
      "hit": false,
      "t": 10333.333333333336,
      "d": 161.45833333333394,
      "v": 110
    },
    {
      "midi": 54,
      "hit": false,
      "t": 10500,
      "d": 244.79166666666606,
      "v": 110
    },
    {
      "midi": 71,
      "hit": false,
      "t": 10500.000000000004,
      "d": 875,
      "v": 110
    },
    {
      "midi": 59,
      "hit": false,
      "t": 10750,
      "d": 244.79166666666606,
      "v": 110
    },
    {
      "midi": 47,
      "hit": false,
      "t": 11000,
      "d": 244.79166666666606,
      "v": 110
    },
    {
      "midi": 47,
      "hit": false,
      "t": 11250,
      "d": 244.79166666666606,
      "v": 110
    },
    {
      "midi": 59,
      "hit": false,
      "t": 11500,
      "d": 244.79166666666606,
      "v": 110
    },
    {
      "midi": 79,
      "hit": false,
      "t": 11500.000000000004,
      "d": 244.79166666666606,
      "v": 110
    },
    {
      "midi": 54,
      "hit": false,
      "t": 11750,
      "d": 244.79166666666606,
      "v": 110
    },
    {
      "midi": 81,
      "hit": false,
      "t": 11750.000000000004,
      "d": 244.79166666666606,
      "v": 110
    },
    {
      "midi": 43,
      "hit": false,
      "t": 12000,
      "d": 244.79166666666606,
      "v": 110
    },
    {
      "midi": 83,
      "hit": false,
      "t": 12000.000000000004,
      "d": 875,
      "v": 110
    },
    {
      "midi": 43,
      "hit": false,
      "t": 12250,
      "d": 244.79166666666606,
      "v": 110
    },
    {
      "midi": 50,
      "hit": false,
      "t": 12500,
      "d": 244.79166666666606,
      "v": 110
    },
    {
      "midi": 55,
      "hit": false,
      "t": 12750,
      "d": 244.79166666666606,
      "v": 110
    },
    {
      "midi": 43,
      "hit": false,
      "t": 13000,
      "d": 244.79166666666606,
      "v": 110
    },
    {
      "midi": 74,
      "hit": false,
      "t": 13000.000000000004,
      "d": 416.66666666666606,
      "v": 110
    },
    {
      "midi": 43,
      "hit": false,
      "t": 13250,
      "d": 244.79166666666606,
      "v": 110
    },
    {
      "midi": 55,
      "hit": false,
      "t": 13500,
      "d": 244.79166666666606,
      "v": 110
    },
    {
      "midi": 79,
      "hit": false,
      "t": 13500.000000000004,
      "d": 416.66666666666606,
      "v": 110
    },
    {
      "midi": 50,
      "hit": false,
      "t": 13750,
      "d": 244.79166666666606,
      "v": 110
    },
    {
      "midi": 45,
      "hit": false,
      "t": 14000,
      "d": 244.79166666666606,
      "v": 110
    },
    {
      "midi": 78,
      "hit": false,
      "t": 14000.000000000004,
      "d": 161.45833333333394,
      "v": 110
    },
    {
      "midi": 79,
      "hit": false,
      "t": 14166.666666666672,
      "d": 161.45833333333394,
      "v": 110
    },
    {
      "midi": 45,
      "hit": false,
      "t": 14250,
      "d": 244.79166666666606,
      "v": 110
    },
    {
      "midi": 78,
      "hit": false,
      "t": 14333.33333333334,
      "d": 161.45833333333394,
      "v": 110
    },
    {
      "midi": 52,
      "hit": false,
      "t": 14500,
      "d": 244.79166666666606,
      "v": 110
    },
    {
      "midi": 76,
      "hit": false,
      "t": 14500.000000000007,
      "d": 875,
      "v": 110
    },
    {
      "midi": 57,
      "hit": false,
      "t": 14750,
      "d": 244.79166666666606,
      "v": 110
    },
    {
      "midi": 45,
      "hit": false,
      "t": 15000,
      "d": 244.79166666666606,
      "v": 110
    },
    {
      "midi": 45,
      "hit": false,
      "t": 15250,
      "d": 244.79166666666606,
      "v": 110
    },
    {
      "midi": 57,
      "hit": false,
      "t": 15500,
      "d": 244.79166666666606,
      "v": 110
    },
    {
      "midi": 81,
      "hit": false,
      "t": 15500.000000000007,
      "d": 244.79166666666606,
      "v": 110
    },
    {
      "midi": 52,
      "hit": false,
      "t": 15750,
      "d": 244.79166666666606,
      "v": 110
    },
    {
      "midi": 83,
      "hit": false,
      "t": 15750.000000000007,
      "d": 244.79166666666606,
      "v": 110
    },
    {
      "midi": 42,
      "hit": false,
      "t": 16000,
      "d": 244.79166666666606,
      "v": 110
    },
    {
      "midi": 85,
      "hit": false,
      "t": 16000.000000000007,
      "d": 1244.7916666666679,
      "v": 110
    },
    {
      "midi": 42,
      "hit": false,
      "t": 16250,
      "d": 244.79166666666788,
      "v": 110
    },
    {
      "midi": 49,
      "hit": false,
      "t": 16500,
      "d": 244.79166666666788,
      "v": 110
    },
    {
      "midi": 54,
      "hit": false,
      "t": 16750,
      "d": 244.79166666666788,
      "v": 110
    },
    {
      "midi": 42,
      "hit": false,
      "t": 17000,
      "d": 244.79166666666788,
      "v": 110
    },
    {
      "midi": 42,
      "hit": false,
      "t": 17250,
      "d": 244.79166666666788,
      "v": 110
    },
    {
      "midi": 81,
      "hit": false,
      "t": 17250.000000000007,
      "d": 244.79166666666788,
      "v": 110
    },
    {
      "midi": 54,
      "hit": false,
      "t": 17500,
      "d": 244.79166666666788,
      "v": 110
    },
    {
      "midi": 83,
      "hit": false,
      "t": 17500.000000000007,
      "d": 244.79166666666788,
      "v": 110
    },
    {
      "midi": 49,
      "hit": false,
      "t": 17750,
      "d": 244.79166666666788,
      "v": 110
    },
    {
      "midi": 85,
      "hit": false,
      "t": 17750.000000000007,
      "d": 244.79166666666788,
      "v": 110
    },
    {
      "midi": 47,
      "hit": false,
      "t": 18000,
      "d": 244.79166666666788,
      "v": 110
    },
    {
      "midi": 88,
      "hit": false,
      "t": 18000.000000000007,
      "d": 119.79166666666788,
      "v": 110
    },
    {
      "midi": 86,
      "hit": false,
      "t": 18125.000000000007,
      "d": 119.79166666666788,
      "v": 110
    },
    {
      "midi": 47,
      "hit": false,
      "t": 18250,
      "d": 244.79166666666788,
      "v": 110
    },
    {
      "midi": 85,
      "hit": false,
      "t": 18250.000000000007,
      "d": 119.79166666666788,
      "v": 110
    },
    {
      "midi": 86,
      "hit": false,
      "t": 18375.000000000007,
      "d": 119.79166666666788,
      "v": 110
    },
    {
      "midi": 54,
      "hit": false,
      "t": 18500,
      "d": 244.79166666666788,
      "v": 110
    },
    {
      "midi": 83,
      "hit": false,
      "t": 18500.000000000007,
      "d": 744.7916666666679,
      "v": 110
    },
    {
      "midi": 59,
      "hit": false,
      "t": 18750,
      "d": 244.79166666666788,
      "v": 110
    },
    {
      "midi": 47,
      "hit": false,
      "t": 19000,
      "d": 244.79166666666788,
      "v": 110
    },
    {
      "midi": 47,
      "hit": false,
      "t": 19250,
      "d": 244.79166666666788,
      "v": 110
    },
    {
      "midi": 81,
      "hit": false,
      "t": 19250.000000000007,
      "d": 244.79166666666788,
      "v": 110
    },
    {
      "midi": 59,
      "hit": false,
      "t": 19500,
      "d": 244.79166666666788,
      "v": 110
    },
    {
      "midi": 79,
      "hit": false,
      "t": 19500.000000000007,
      "d": 244.79166666666788,
      "v": 110
    },
    {
      "midi": 54,
      "hit": false,
      "t": 19750,
      "d": 244.79166666666788,
      "v": 110
    },
    {
      "midi": 78,
      "hit": false,
      "t": 19750.000000000007,
      "d": 244.79166666666788,
      "v": 110
    },
    {
      "midi": 36,
      "hit": false,
      "t": 20000,
      "d": 244.79166666666788,
      "v": 110
    },
    {
      "midi": 76,
      "hit": false,
      "t": 20000.000000000007,
      "d": 1244.7916666666679,
      "v": 110
    },
    {
      "midi": 48,
      "hit": false,
      "t": 20250,
      "d": 244.79166666666788,
      "v": 110
    },
    {
      "midi": 36,
      "hit": false,
      "t": 20500,
      "d": 244.79166666666788,
      "v": 110
    },
    {
      "midi": 48,
      "hit": false,
      "t": 20750,
      "d": 244.79166666666788,
      "v": 110
    },
    {
      "midi": 36,
      "hit": false,
      "t": 21000,
      "d": 244.79166666666788,
      "v": 110
    },
    {
      "midi": 48,
      "hit": false,
      "t": 21250,
      "d": 244.79166666666788,
      "v": 110
    },
    {
      "midi": 72,
      "hit": false,
      "t": 21250.000000000007,
      "d": 244.79166666666788,
      "v": 110
    },
    {
      "midi": 36,
      "hit": false,
      "t": 21500,
      "d": 244.79166666666788,
      "v": 110
    },
    {
      "midi": 74,
      "hit": false,
      "t": 21500.000000000007,
      "d": 244.79166666666788,
      "v": 110
    },
    {
      "midi": 48,
      "hit": false,
      "t": 21750,
      "d": 244.79166666666788,
      "v": 110
    },
    {
      "midi": 76,
      "hit": false,
      "t": 21750.000000000007,
      "d": 244.79166666666788,
      "v": 110
    },
    {
      "midi": 45,
      "hit": false,
      "t": 22000,
      "d": 244.79166666666788,
      "v": 110
    },
    {
      "midi": 74,
      "hit": false,
      "t": 22000.000000000007,
      "d": 875,
      "v": 110
    },
    {
      "midi": 57,
      "hit": false,
      "t": 22250,
      "d": 244.79166666666788,
      "v": 110
    },
    {
      "midi": 45,
      "hit": false,
      "t": 22500,
      "d": 244.79166666666788,
      "v": 110
    },
    {
      "midi": 57,
      "hit": false,
      "t": 22750,
      "d": 244.79166666666788,
      "v": 110
    },
    {
      "midi": 45,
      "hit": false,
      "t": 23000,
      "d": 244.79166666666788,
      "v": 110
    },
    {
      "midi": 73,
      "hit": false,
      "t": 23000.000000000007,
      "d": 416.6666666666679,
      "v": 110
    },
    {
      "midi": 57,
      "hit": false,
      "t": 23250,
      "d": 244.79166666666788,
      "v": 110
    },
    {
      "midi": 45,
      "hit": false,
      "t": 23500,
      "d": 244.79166666666788,
      "v": 110
    },
    {
      "midi": 69,
      "hit": false,
      "t": 23500.000000000007,
      "d": 416.6666666666679,
      "v": 110
    },
    {
      "midi": 57,
      "hit": false,
      "t": 23750,
      "d": 244.79166666666788,
      "v": 110
    },
    {
      "midi": 38,
      "hit": false,
      "t": 24000,
      "d": 244.79166666666788,
      "v": 110
    },
    {
      "midi": 66,
      "hit": false,
      "t": 24000.000000000007,
      "d": 416.6666666666679,
      "v": 110
    },
    {
      "midi": 74,
      "hit": false,
      "t": 24000.000000000007,
      "d": 416.6666666666679,
      "v": 110
    },
    {
      "midi": 38,
      "hit": false,
      "t": 24250,
      "d": 244.79166666666788,
      "v": 110
    },
    {
      "midi": 45,
      "hit": false,
      "t": 24250,
      "d": 244.79166666666788,
      "v": 110
    },
    {
      "midi": 62,
      "hit": false,
      "t": 24500.000000000007,
      "d": 416.6666666666679,
      "v": 110
    },
    {
      "midi": 45,
      "hit": false,
      "t": 24750,
      "d": 244.79166666666788,
      "v": 110
    },
    {
      "midi": 38,
      "hit": false,
      "t": 25000,
      "d": 244.79166666666788,
      "v": 110
    },
    {
      "midi": 67,
      "hit": false,
      "t": 25000.000000000007,
      "d": 416.6666666666679,
      "v": 110
    },
    {
      "midi": 38,
      "hit": false,
      "t": 25250,
      "d": 244.79166666666788,
      "v": 110
    },
    {
      "midi": 47,
      "hit": false,
      "t": 25250,
      "d": 244.79166666666788,
      "v": 110
    },
    {
      "midi": 62,
      "hit": false,
      "t": 25500.000000000007,
      "d": 416.6666666666679,
      "v": 110
    },
    {
      "midi": 47,
      "hit": false,
      "t": 25750,
      "d": 244.79166666666788,
      "v": 110
    },
    {
      "midi": 38,
      "hit": false,
      "t": 26000,
      "d": 244.79166666666788,
      "v": 110
    },
    {
      "midi": 69,
      "hit": false,
      "t": 26000.000000000007,
      "d": 244.79166666666788,
      "v": 110
    },
    {
      "midi": 74,
      "hit": false,
      "t": 26000.000000000007,
      "d": 244.79166666666788,
      "v": 110
    },
    {
      "midi": 38,
      "hit": false,
      "t": 26250,
      "d": 244.79166666666788,
      "v": 110
    },
    {
      "midi": 49,
      "hit": false,
      "t": 26250,
      "d": 244.79166666666788,
      "v": 110
    },
    {
      "midi": 69,
      "hit": false,
      "t": 26250.000000000007,
      "d": 244.79166666666788,
      "v": 110
    },
    {
      "midi": 62,
      "hit": false,
      "t": 26500.000000000007,
      "d": 244.79166666666788,
      "v": 110
    },
    {
      "midi": 49,
      "hit": false,
      "t": 26750,
      "d": 244.79166666666788,
      "v": 110
    },
    {
      "midi": 69,
      "hit": false,
      "t": 26750.000000000007,
      "d": 244.79166666666788,
      "v": 110
    },
    {
      "midi": 38,
      "hit": false,
      "t": 27000,
      "d": 244.79166666666788,
      "v": 110
    },
    {
      "midi": 67,
      "hit": false,
      "t": 27000.000000000007,
      "d": 416.6666666666679,
      "v": 110
    },
    {
      "midi": 38,
      "hit": false,
      "t": 27250,
      "d": 244.79166666666788,
      "v": 110
    },
    {
      "midi": 47,
      "hit": false,
      "t": 27250,
      "d": 244.79166666666788,
      "v": 110
    },
    {
      "midi": 64,
      "hit": false,
      "t": 27500.000000000007,
      "d": 119.79166666666788,
      "v": 110
    },
    {
      "midi": 74,
      "hit": false,
      "t": 27500.000000000007,
      "d": 119.79166666666788,
      "v": 110
    },
    {
      "midi": 73,
      "hit": false,
      "t": 27625.000000000007,
      "d": 119.79166666666788,
      "v": 110
    },
    {
      "midi": 47,
      "hit": false,
      "t": 27750,
      "d": 244.79166666666788,
      "v": 110
    },
    {
      "midi": 71,
      "hit": false,
      "t": 27750.000000000007,
      "d": 119.79166666666788,
      "v": 110
    },
    {
      "midi": 73,
      "hit": false,
      "t": 27875.000000000007,
      "d": 119.79166666666788,
      "v": 110
    },
    {
      "midi": 38,
      "hit": false,
      "t": 28000,
      "d": 244.79166666666788,
      "v": 110
    },
    {
      "midi": 66,
      "hit": false,
      "t": 28000.000000000007,
      "d": 416.6666666666679,
      "v": 110
    },
    {
      "midi": 74,
      "hit": false,
      "t": 28000.000000000007,
      "d": 416.6666666666679,
      "v": 110
    },
    {
      "midi": 38,
      "hit": false,
      "t": 28250,
      "d": 244.79166666666788,
      "v": 110
    },
    {
      "midi": 45,
      "hit": false,
      "t": 28250,
      "d": 244.79166666666788,
      "v": 110
    },
    {
      "midi": 62,
      "hit": false,
      "t": 28500.000000000007,
      "d": 416.6666666666679,
      "v": 110
    },
    {
      "midi": 45,
      "hit": false,
      "t": 28750,
      "d": 244.79166666666788,
      "v": 110
    },
    {
      "midi": 38,
      "hit": false,
      "t": 29000,
      "d": 244.79166666666788,
      "v": 110
    },
    {
      "midi": 67,
      "hit": false,
      "t": 29000.000000000007,
      "d": 416.6666666666679,
      "v": 110
    },
    {
      "midi": 38,
      "hit": false,
      "t": 29250,
      "d": 244.79166666666788,
      "v": 110
    },
    {
      "midi": 47,
      "hit": false,
      "t": 29250,
      "d": 244.79166666666788,
      "v": 110
    },
    {
      "midi": 62,
      "hit": false,
      "t": 29500.000000000007,
      "d": 416.6666666666679,
      "v": 110
    },
    {
      "midi": 47,
      "hit": false,
      "t": 29750,
      "d": 244.79166666666788,
      "v": 110
    },
    {
      "midi": 38,
      "hit": false,
      "t": 30000,
      "d": 244.79166666666788,
      "v": 110
    },
    {
      "midi": 69,
      "hit": false,
      "t": 30000.000000000007,
      "d": 244.79166666666788,
      "v": 110
    },
    {
      "midi": 74,
      "hit": false,
      "t": 30000.000000000007,
      "d": 244.79166666666788,
      "v": 110
    },
    {
      "midi": 38,
      "hit": false,
      "t": 30250,
      "d": 244.79166666666788,
      "v": 110
    },
    {
      "midi": 49,
      "hit": false,
      "t": 30250,
      "d": 244.79166666666788,
      "v": 110
    },
    {
      "midi": 69,
      "hit": false,
      "t": 30250.000000000007,
      "d": 244.79166666666788,
      "v": 110
    },
    {
      "midi": 62,
      "hit": false,
      "t": 30500.000000000007,
      "d": 244.79166666666788,
      "v": 110
    },
    {
      "midi": 49,
      "hit": false,
      "t": 30750,
      "d": 244.79166666666788,
      "v": 110
    },
    {
      "midi": 69,
      "hit": false,
      "t": 30750.000000000007,
      "d": 244.79166666666788,
      "v": 110
    },
    {
      "midi": 38,
      "hit": false,
      "t": 31000,
      "d": 244.79166666666788,
      "v": 110
    },
    {
      "midi": 67,
      "hit": false,
      "t": 31000.000000000007,
      "d": 416.6666666666679,
      "v": 110
    },
    {
      "midi": 38,
      "hit": false,
      "t": 31250,
      "d": 244.79166666666788,
      "v": 110
    },
    {
      "midi": 47,
      "hit": false,
      "t": 31250,
      "d": 244.79166666666788,
      "v": 110
    },
    {
      "midi": 64,
      "hit": false,
      "t": 31500.000000000007,
      "d": 119.79166666666788,
      "v": 110
    },
    {
      "midi": 78,
      "hit": false,
      "t": 31500.000000000007,
      "d": 119.79166666666788,
      "v": 110
    },
    {
      "midi": 76,
      "hit": false,
      "t": 31625.000000000007,
      "d": 119.79166666666788,
      "v": 110
    },
    {
      "midi": 47,
      "hit": false,
      "t": 31750,
      "d": 244.79166666666788,
      "v": 110
    },
    {
      "midi": 74,
      "hit": false,
      "t": 31750.000000000007,
      "d": 119.79166666666788,
      "v": 110
    },
    {
      "midi": 76,
      "hit": false,
      "t": 31875.000000000007,
      "d": 119.79166666666788,
      "v": 110
    },
    {
      "midi": 38,
      "hit": false,
      "t": 32000,
      "d": 244.79166666666788,
      "v": 110
    },
    {
      "midi": 66,
      "hit": false,
      "t": 32000.000000000007,
      "d": 416.6666666666679,
      "v": 110
    },
    {
      "midi": 78,
      "hit": false,
      "t": 32000.000000000007,
      "d": 416.6666666666679,
      "v": 110
    },
    {
      "midi": 38,
      "hit": false,
      "t": 32250,
      "d": 244.79166666666788,
      "v": 110
    },
    {
      "midi": 45,
      "hit": false,
      "t": 32250,
      "d": 244.79166666666788,
      "v": 110
    },
    {
      "midi": 62,
      "hit": false,
      "t": 32500.000000000007,
      "d": 416.66666666666424,
      "v": 110
    },
    {
      "midi": 45,
      "hit": false,
      "t": 32750,
      "d": 244.79166666666424,
      "v": 110
    },
    {
      "midi": 38,
      "hit": false,
      "t": 33000,
      "d": 244.79166666666424,
      "v": 110
    },
    {
      "midi": 67,
      "hit": false,
      "t": 33000.00000000001,
      "d": 416.66666666666424,
      "v": 110
    },
    {
      "midi": 38,
      "hit": false,
      "t": 33250,
      "d": 244.79166666666424,
      "v": 110
    },
    {
      "midi": 47,
      "hit": false,
      "t": 33250,
      "d": 244.79166666666424,
      "v": 110
    },
    {
      "midi": 62,
      "hit": false,
      "t": 33500.00000000001,
      "d": 416.66666666666424,
      "v": 110
    },
    {
      "midi": 47,
      "hit": false,
      "t": 33750,
      "d": 244.79166666666424,
      "v": 110
    },
    {
      "midi": 38,
      "hit": false,
      "t": 34000,
      "d": 244.79166666666424,
      "v": 110
    },
    {
      "midi": 69,
      "hit": false,
      "t": 34000.00000000001,
      "d": 244.79166666666424,
      "v": 110
    },
    {
      "midi": 78,
      "hit": false,
      "t": 34000.00000000001,
      "d": 244.79166666666424,
      "v": 110
    },
    {
      "midi": 38,
      "hit": false,
      "t": 34250,
      "d": 244.79166666666424,
      "v": 110
    },
    {
      "midi": 49,
      "hit": false,
      "t": 34250,
      "d": 244.79166666666424,
      "v": 110
    },
    {
      "midi": 69,
      "hit": false,
      "t": 34250.00000000001,
      "d": 244.79166666666424,
      "v": 110
    },
    {
      "midi": 62,
      "hit": false,
      "t": 34500.00000000001,
      "d": 244.79166666666424,
      "v": 110
    },
    {
      "midi": 49,
      "hit": false,
      "t": 34750,
      "d": 244.79166666666424,
      "v": 110
    },
    {
      "midi": 69,
      "hit": false,
      "t": 34750.00000000001,
      "d": 244.79166666666424,
      "v": 110
    },
    {
      "midi": 38,
      "hit": false,
      "t": 35000,
      "d": 244.79166666666424,
      "v": 110
    },
    {
      "midi": 67,
      "hit": false,
      "t": 35000.00000000001,
      "d": 416.66666666666424,
      "v": 110
    },
    {
      "midi": 38,
      "hit": false,
      "t": 35250,
      "d": 244.79166666666424,
      "v": 110
    },
    {
      "midi": 47,
      "hit": false,
      "t": 35250,
      "d": 244.79166666666424,
      "v": 110
    },
    {
      "midi": 76,
      "hit": false,
      "t": 35500.00000000001,
      "d": 119.79166666666424,
      "v": 110
    },
    {
      "midi": 81,
      "hit": false,
      "t": 35500.00000000001,
      "d": 119.79166666666424,
      "v": 110
    },
    {
      "midi": 79,
      "hit": false,
      "t": 35625.00000000001,
      "d": 119.79166666666424,
      "v": 110
    },
    {
      "midi": 47,
      "hit": false,
      "t": 35750,
      "d": 244.79166666666424,
      "v": 110
    },
    {
      "midi": 78,
      "hit": false,
      "t": 35750.00000000001,
      "d": 119.79166666666424,
      "v": 110
    },
    {
      "midi": 79,
      "hit": false,
      "t": 35875.00000000001,
      "d": 119.79166666666424,
      "v": 110
    },
    {
      "midi": 38,
      "hit": false,
      "t": 36000,
      "d": 244.79166666666424,
      "v": 110
    },
    {
      "midi": 78,
      "hit": false,
      "t": 36000.00000000001,
      "d": 416.66666666666424,
      "v": 110
    },
    {
      "midi": 81,
      "hit": false,
      "t": 36000.00000000001,
      "d": 416.66666666666424,
      "v": 110
    },
    {
      "midi": 38,
      "hit": false,
      "t": 36250,
      "d": 244.79166666666424,
      "v": 110
    },
    {
      "midi": 45,
      "hit": false,
      "t": 36250,
      "d": 244.79166666666424,
      "v": 110
    },
    {
      "midi": 74,
      "hit": false,
      "t": 36500.00000000001,
      "d": 416.66666666666424,
      "v": 110
    },
    {
      "midi": 45,
      "hit": false,
      "t": 36750,
      "d": 244.79166666666424,
      "v": 110
    },
    {
      "midi": 38,
      "hit": false,
      "t": 37000,
      "d": 244.79166666666424,
      "v": 110
    },
    {
      "midi": 79,
      "hit": false,
      "t": 37000.00000000001,
      "d": 416.66666666666424,
      "v": 110
    },
    {
      "midi": 38,
      "hit": false,
      "t": 37250,
      "d": 244.79166666666424,
      "v": 110
    },
    {
      "midi": 47,
      "hit": false,
      "t": 37250,
      "d": 244.79166666666424,
      "v": 110
    },
    {
      "midi": 74,
      "hit": false,
      "t": 37500.00000000001,
      "d": 416.66666666666424,
      "v": 110
    },
    {
      "midi": 47,
      "hit": false,
      "t": 37750,
      "d": 244.79166666666424,
      "v": 110
    },
    {
      "midi": 38,
      "hit": false,
      "t": 38000,
      "d": 244.79166666666424,
      "v": 110
    },
    {
      "midi": 81,
      "hit": false,
      "t": 38000.00000000001,
      "d": 244.79166666666424,
      "v": 110
    },
    {
      "midi": 38,
      "hit": false,
      "t": 38250,
      "d": 244.79166666666424,
      "v": 110
    },
    {
      "midi": 49,
      "hit": false,
      "t": 38250,
      "d": 244.79166666666424,
      "v": 110
    },
    {
      "midi": 81,
      "hit": false,
      "t": 38250.00000000001,
      "d": 244.79166666666424,
      "v": 110
    },
    {
      "midi": 74,
      "hit": false,
      "t": 38500.00000000001,
      "d": 244.79166666666424,
      "v": 110
    },
    {
      "midi": 49,
      "hit": false,
      "t": 38750,
      "d": 244.79166666666424,
      "v": 110
    },
    {
      "midi": 81,
      "hit": false,
      "t": 38750.00000000001,
      "d": 244.79166666666424,
      "v": 110
    },
    {
      "midi": 42,
      "hit": false,
      "t": 39000,
      "d": 244.79166666666424,
      "v": 110
    },
    {
      "midi": 78,
      "hit": false,
      "t": 39000.00000000001,
      "d": 119.79166666666424,
      "v": 110
    },
    {
      "midi": 76,
      "hit": false,
      "t": 39125.00000000001,
      "d": 119.79166666666424,
      "v": 110
    },
    {
      "midi": 54,
      "hit": false,
      "t": 39250,
      "d": 244.79166666666424,
      "v": 110
    },
    {
      "midi": 74,
      "hit": false,
      "t": 39250.00000000001,
      "d": 119.79166666666424,
      "v": 110
    },
    {
      "midi": 73,
      "hit": false,
      "t": 39375.00000000001,
      "d": 119.79166666666424,
      "v": 110
    },
    {
      "midi": 42,
      "hit": false,
      "t": 39500,
      "d": 244.79166666666424,
      "v": 110
    },
    {
      "midi": 76,
      "hit": false,
      "t": 39500.00000000001,
      "d": 119.79166666666424,
      "v": 110
    },
    {
      "midi": 74,
      "hit": false,
      "t": 39625.00000000001,
      "d": 119.79166666666424,
      "v": 110
    },
    {
      "midi": 54,
      "hit": false,
      "t": 39750,
      "d": 244.79166666666424,
      "v": 110
    },
    {
      "midi": 73,
      "hit": false,
      "t": 39750.00000000001,
      "d": 119.79166666666424,
      "v": 110
    },
    {
      "midi": 70,
      "hit": false,
      "t": 39875.00000000001,
      "d": 119.79166666666424,
      "v": 110
    },
    {
      "midi": 35,
      "hit": false,
      "t": 40000,
      "d": 875,
      "v": 110
    },
    {
      "midi": 47,
      "hit": false,
      "t": 40000,
      "d": 875,
      "v": 110
    },
    {
      "midi": 71,
      "hit": false,
      "t": 40000.00000000001,
      "d": 244.79166666666424,
      "v": 110
    },
    {
      "midi": 74,
      "hit": false,
      "t": 40250.00000000001,
      "d": 244.79166666666424,
      "v": 110
    },
    {
      "midi": 78,
      "hit": false,
      "t": 40500.00000000001,
      "d": 244.79166666666424,
      "v": 110
    },
    {
      "midi": 71,
      "hit": false,
      "t": 40750.00000000001,
      "d": 244.79166666666424,
      "v": 110
    },
    {
      "midi": 40,
      "hit": false,
      "t": 41000,
      "d": 875,
      "v": 110
    },
    {
      "midi": 52,
      "hit": false,
      "t": 41000,
      "d": 875,
      "v": 110
    },
    {
      "midi": 79,
      "hit": false,
      "t": 41000.00000000001,
      "d": 416.66666666666424,
      "v": 110
    },
    {
      "midi": 78,
      "hit": false,
      "t": 41500.00000000001,
      "d": 244.79166666666424,
      "v": 110
    },
    {
      "midi": 76,
      "hit": false,
      "t": 41750.00000000001,
      "d": 244.79166666666424,
      "v": 110
    },
    {
      "midi": 43,
      "hit": false,
      "t": 42000,
      "d": 875,
      "v": 110
    },
    {
      "midi": 55,
      "hit": false,
      "t": 42000,
      "d": 875,
      "v": 110
    },
    {
      "midi": 74,
      "hit": false,
      "t": 42000.00000000001,
      "d": 416.66666666666424,
      "v": 110
    },
    {
      "midi": 76,
      "hit": false,
      "t": 42500.00000000001,
      "d": 244.79166666666424,
      "v": 110
    },
    {
      "midi": 74,
      "hit": false,
      "t": 42750.00000000001,
      "d": 244.79166666666424,
      "v": 110
    },
    {
      "midi": 45,
      "hit": false,
      "t": 43000,
      "d": 416.66666666666424,
      "v": 110
    },
    {
      "midi": 57,
      "hit": false,
      "t": 43000,
      "d": 416.66666666666424,
      "v": 110
    },
    {
      "midi": 73,
      "hit": false,
      "t": 43000.00000000001,
      "d": 875,
      "v": 110
    },
    {
      "midi": 43,
      "hit": false,
      "t": 43500,
      "d": 416.66666666666424,
      "v": 110
    },
    {
      "midi": 55,
      "hit": false,
      "t": 43500,
      "d": 416.66666666666424,
      "v": 110
    },
    {
      "midi": 38,
      "hit": false,
      "t": 44000,
      "d": 875,
      "v": 110
    },
    {
      "midi": 50,
      "hit": false,
      "t": 44000,
      "d": 875,
      "v": 110
    },
    {
      "midi": 74,
      "hit": false,
      "t": 44000.00000000001,
      "d": 244.79166666666424,
      "v": 110
    },
    {
      "midi": 78,
      "hit": false,
      "t": 44250.00000000001,
      "d": 244.79166666666424,
      "v": 110
    },
    {
      "midi": 81,
      "hit": false,
      "t": 44500.00000000001,
      "d": 244.79166666666424,
      "v": 110
    },
    {
      "midi": 74,
      "hit": false,
      "t": 44750.00000000001,
      "d": 244.79166666666424,
      "v": 110
    },
    {
      "midi": 43,
      "hit": false,
      "t": 45000,
      "d": 875,
      "v": 110
    },
    {
      "midi": 55,
      "hit": false,
      "t": 45000,
      "d": 875,
      "v": 110
    },
    {
      "midi": 83,
      "hit": false,
      "t": 45000.00000000001,
      "d": 416.66666666666424,
      "v": 110
    },
    {
      "midi": 81,
      "hit": false,
      "t": 45500.00000000001,
      "d": 244.79166666666424,
      "v": 110
    },
    {
      "midi": 79,
      "hit": false,
      "t": 45750.00000000001,
      "d": 244.79166666666424,
      "v": 110
    },
    {
      "midi": 47,
      "hit": false,
      "t": 46000,
      "d": 875,
      "v": 110
    },
    {
      "midi": 59,
      "hit": false,
      "t": 46000,
      "d": 875,
      "v": 110
    },
    {
      "midi": 78,
      "hit": false,
      "t": 46000.00000000001,
      "d": 416.66666666666424,
      "v": 110
    },
    {
      "midi": 79,
      "hit": false,
      "t": 46500.00000000001,
      "d": 244.79166666666424,
      "v": 110
    },
    {
      "midi": 78,
      "hit": false,
      "t": 46750.00000000001,
      "d": 244.79166666666424,
      "v": 110
    },
    {
      "midi": 45,
      "hit": false,
      "t": 47000,
      "d": 244.79166666666424,
      "v": 110
    },
    {
      "midi": 57,
      "hit": false,
      "t": 47000,
      "d": 244.79166666666424,
      "v": 110
    },
    {
      "midi": 76,
      "hit": false,
      "t": 47000.00000000001,
      "d": 416.66666666666424,
      "v": 110
    },
    {
      "midi": 40,
      "hit": false,
      "t": 47250,
      "d": 244.79166666666424,
      "v": 110
    },
    {
      "midi": 52,
      "hit": false,
      "t": 47250,
      "d": 244.79166666666424,
      "v": 110
    },
    {
      "midi": 37,
      "hit": false,
      "t": 47500,
      "d": 244.79166666666424,
      "v": 110
    },
    {
      "midi": 49,
      "hit": false,
      "t": 47500,
      "d": 244.79166666666424,
      "v": 110
    },
    {
      "midi": 78,
      "hit": false,
      "t": 47500.00000000001,
      "d": 244.79166666666424,
      "v": 110
    },
    {
      "midi": 33,
      "hit": false,
      "t": 47750,
      "d": 244.79166666666424,
      "v": 110
    },
    {
      "midi": 45,
      "hit": false,
      "t": 47750,
      "d": 244.79166666666424,
      "v": 110
    },
    {
      "midi": 79,
      "hit": false,
      "t": 47750.00000000001,
      "d": 244.79166666666424,
      "v": 110
    },
    {
      "midi": 42,
      "hit": false,
      "t": 48000,
      "d": 244.79166666666424,
      "v": 110
    },
    {
      "midi": 81,
      "hit": false,
      "t": 48000.00000000001,
      "d": 875,
      "v": 110
    },
    {
      "midi": 42,
      "hit": false,
      "t": 48250,
      "d": 244.79166666666424,
      "v": 110
    },
    {
      "midi": 49,
      "hit": false,
      "t": 48500,
      "d": 244.79166666666424,
      "v": 110
    },
    {
      "midi": 54,
      "hit": false,
      "t": 48750,
      "d": 244.79166666666424,
      "v": 110
    },
    {
      "midi": 42,
      "hit": false,
      "t": 49000,
      "d": 244.79166666666424,
      "v": 110
    },
    {
      "midi": 73,
      "hit": false,
      "t": 49000.00000000001,
      "d": 416.66666666666424,
      "v": 110
    },
    {
      "midi": 42,
      "hit": false,
      "t": 49250,
      "d": 244.79166666666424,
      "v": 110
    },
    {
      "midi": 54,
      "hit": false,
      "t": 49500,
      "d": 244.79166666666424,
      "v": 110
    },
    {
      "midi": 76,
      "hit": false,
      "t": 49500.00000000001,
      "d": 416.66666666666424,
      "v": 110
    },
    {
      "midi": 49,
      "hit": false,
      "t": 49750,
      "d": 244.79166666666424,
      "v": 110
    },
    {
      "midi": 47,
      "hit": false,
      "t": 50000,
      "d": 244.79166666666424,
      "v": 110
    },
    {
      "midi": 74,
      "hit": false,
      "t": 50000.00000000001,
      "d": 161.45833333333576,
      "v": 110
    },
    {
      "midi": 73,
      "hit": false,
      "t": 50166.66666666668,
      "d": 161.45833333333576,
      "v": 110
    },
    {
      "midi": 47,
      "hit": false,
      "t": 50250,
      "d": 244.79166666666424,
      "v": 110
    },
    {
      "midi": 74,
      "hit": false,
      "t": 50333.33333333335,
      "d": 161.45833333333576,
      "v": 110
    },
    {
      "midi": 54,
      "hit": false,
      "t": 50500,
      "d": 244.79166666666424,
      "v": 110
    },
    {
      "midi": 71,
      "hit": false,
      "t": 50500.00000000002,
      "d": 875,
      "v": 110
    },
    {
      "midi": 59,
      "hit": false,
      "t": 50750,
      "d": 244.79166666666424,
      "v": 110
    },
    {
      "midi": 47,
      "hit": false,
      "t": 51000,
      "d": 244.79166666666424,
      "v": 110
    },
    {
      "midi": 47,
      "hit": false,
      "t": 51250,
      "d": 244.79166666666424,
      "v": 110
    },
    {
      "midi": 59,
      "hit": false,
      "t": 51500,
      "d": 244.79166666666424,
      "v": 110
    },
    {
      "midi": 79,
      "hit": false,
      "t": 51500.00000000002,
      "d": 244.79166666666424,
      "v": 110
    },
    {
      "midi": 54,
      "hit": false,
      "t": 51750,
      "d": 244.79166666666424,
      "v": 110
    },
    {
      "midi": 81,
      "hit": false,
      "t": 51750.00000000002,
      "d": 244.79166666666424,
      "v": 110
    },
    {
      "midi": 43,
      "hit": false,
      "t": 52000,
      "d": 244.79166666666424,
      "v": 110
    },
    {
      "midi": 83,
      "hit": false,
      "t": 52000.00000000002,
      "d": 875,
      "v": 110
    },
    {
      "midi": 43,
      "hit": false,
      "t": 52250,
      "d": 244.79166666666424,
      "v": 110
    },
    {
      "midi": 50,
      "hit": false,
      "t": 52500,
      "d": 244.79166666666424,
      "v": 110
    },
    {
      "midi": 55,
      "hit": false,
      "t": 52750,
      "d": 244.79166666666424,
      "v": 110
    },
    {
      "midi": 43,
      "hit": false,
      "t": 53000,
      "d": 244.79166666666424,
      "v": 110
    },
    {
      "midi": 74,
      "hit": false,
      "t": 53000.00000000002,
      "d": 416.66666666666424,
      "v": 110
    },
    {
      "midi": 43,
      "hit": false,
      "t": 53250,
      "d": 244.79166666666424,
      "v": 110
    },
    {
      "midi": 55,
      "hit": false,
      "t": 53500,
      "d": 244.79166666666424,
      "v": 110
    },
    {
      "midi": 79,
      "hit": false,
      "t": 53500.00000000002,
      "d": 416.66666666666424,
      "v": 110
    },
    {
      "midi": 50,
      "hit": false,
      "t": 53750,
      "d": 244.79166666666424,
      "v": 110
    },
    {
      "midi": 45,
      "hit": false,
      "t": 54000,
      "d": 244.79166666666424,
      "v": 110
    },
    {
      "midi": 78,
      "hit": false,
      "t": 54000.00000000002,
      "d": 161.45833333333576,
      "v": 110
    },
    {
      "midi": 79,
      "hit": false,
      "t": 54166.66666666669,
      "d": 161.45833333333576,
      "v": 110
    },
    {
      "midi": 45,
      "hit": false,
      "t": 54250,
      "d": 244.79166666666424,
      "v": 110
    },
    {
      "midi": 78,
      "hit": false,
      "t": 54333.333333333365,
      "d": 161.45833333333576,
      "v": 110
    },
    {
      "midi": 52,
      "hit": false,
      "t": 54500,
      "d": 244.79166666666424,
      "v": 110
    },
    {
      "midi": 76,
      "hit": false,
      "t": 54500.00000000004,
      "d": 875,
      "v": 110
    },
    {
      "midi": 57,
      "hit": false,
      "t": 54750,
      "d": 244.79166666666424,
      "v": 110
    },
    {
      "midi": 45,
      "hit": false,
      "t": 55000,
      "d": 244.79166666666424,
      "v": 110
    },
    {
      "midi": 45,
      "hit": false,
      "t": 55250,
      "d": 244.79166666666424,
      "v": 110
    },
    {
      "midi": 57,
      "hit": false,
      "t": 55500,
      "d": 244.79166666666424,
      "v": 110
    },
    {
      "midi": 81,
      "hit": false,
      "t": 55500.00000000004,
      "d": 244.79166666666424,
      "v": 110
    },
    {
      "midi": 52,
      "hit": false,
      "t": 55750,
      "d": 244.79166666666424,
      "v": 110
    },
    {
      "midi": 83,
      "hit": false,
      "t": 55750.00000000004,
      "d": 244.79166666666424,
      "v": 110
    },
    {
      "midi": 42,
      "hit": false,
      "t": 56000,
      "d": 244.79166666666424,
      "v": 110
    },
    {
      "midi": 85,
      "hit": false,
      "t": 56000.00000000004,
      "d": 1244.7916666666642,
      "v": 110
    },
    {
      "midi": 42,
      "hit": false,
      "t": 56250,
      "d": 244.79166666666424,
      "v": 110
    },
    {
      "midi": 49,
      "hit": false,
      "t": 56500,
      "d": 244.79166666666424,
      "v": 110
    },
    {
      "midi": 54,
      "hit": false,
      "t": 56750,
      "d": 244.79166666666424,
      "v": 110
    },
    {
      "midi": 42,
      "hit": false,
      "t": 57000,
      "d": 244.79166666666424,
      "v": 110
    },
    {
      "midi": 42,
      "hit": false,
      "t": 57250,
      "d": 244.79166666666424,
      "v": 110
    },
    {
      "midi": 81,
      "hit": false,
      "t": 57250.00000000004,
      "d": 244.79166666666424,
      "v": 110
    },
    {
      "midi": 54,
      "hit": false,
      "t": 57500,
      "d": 244.79166666666424,
      "v": 110
    },
    {
      "midi": 83,
      "hit": false,
      "t": 57500.00000000004,
      "d": 244.79166666666424,
      "v": 110
    },
    {
      "midi": 49,
      "hit": false,
      "t": 57750,
      "d": 244.79166666666424,
      "v": 110
    },
    {
      "midi": 85,
      "hit": false,
      "t": 57750.00000000004,
      "d": 244.79166666666424,
      "v": 110
    },
    {
      "midi": 47,
      "hit": false,
      "t": 58000,
      "d": 244.79166666666424,
      "v": 110
    },
    {
      "midi": 88,
      "hit": false,
      "t": 58000.00000000004,
      "d": 119.79166666666424,
      "v": 110
    },
    {
      "midi": 86,
      "hit": false,
      "t": 58125.00000000004,
      "d": 119.79166666666424,
      "v": 110
    },
    {
      "midi": 47,
      "hit": false,
      "t": 58250,
      "d": 244.79166666666424,
      "v": 110
    },
    {
      "midi": 85,
      "hit": false,
      "t": 58250.00000000004,
      "d": 119.79166666666424,
      "v": 110
    },
    {
      "midi": 86,
      "hit": false,
      "t": 58375.00000000004,
      "d": 119.79166666666424,
      "v": 110
    },
    {
      "midi": 54,
      "hit": false,
      "t": 58500,
      "d": 244.79166666666424,
      "v": 110
    },
    {
      "midi": 83,
      "hit": false,
      "t": 58500.00000000004,
      "d": 744.7916666666642,
      "v": 110
    },
    {
      "midi": 59,
      "hit": false,
      "t": 58750,
      "d": 244.79166666666424,
      "v": 110
    },
    {
      "midi": 47,
      "hit": false,
      "t": 59000,
      "d": 244.79166666666424,
      "v": 110
    },
    {
      "midi": 47,
      "hit": false,
      "t": 59250,
      "d": 244.79166666666424,
      "v": 110
    },
    {
      "midi": 81,
      "hit": false,
      "t": 59250.00000000004,
      "d": 244.79166666666424,
      "v": 110
    },
    {
      "midi": 59,
      "hit": false,
      "t": 59500,
      "d": 244.79166666666424,
      "v": 110
    },
    {
      "midi": 79,
      "hit": false,
      "t": 59500.00000000004,
      "d": 244.79166666666424,
      "v": 110
    },
    {
      "midi": 54,
      "hit": false,
      "t": 59750,
      "d": 244.79166666666424,
      "v": 110
    },
    {
      "midi": 78,
      "hit": false,
      "t": 59750.00000000004,
      "d": 244.79166666666424,
      "v": 110
    },
    {
      "midi": 36,
      "hit": false,
      "t": 60000,
      "d": 244.79166666666424,
      "v": 110
    },
    {
      "midi": 76,
      "hit": false,
      "t": 60000.00000000004,
      "d": 875,
      "v": 110
    },
    {
      "midi": 48,
      "hit": false,
      "t": 60250,
      "d": 244.79166666666424,
      "v": 110
    },
    {
      "midi": 36,
      "hit": false,
      "t": 60500,
      "d": 244.79166666666424,
      "v": 110
    },
    {
      "midi": 48,
      "hit": false,
      "t": 60750,
      "d": 244.79166666666424,
      "v": 110
    },
    {
      "midi": 36,
      "hit": false,
      "t": 61000,
      "d": 244.79166666666424,
      "v": 110
    },
    {
      "midi": 76,
      "hit": false,
      "t": 61000.00000000004,
      "d": 244.79166666666424,
      "v": 110
    },
    {
      "midi": 48,
      "hit": false,
      "t": 61250,
      "d": 244.79166666666424,
      "v": 110
    },
    {
      "midi": 72,
      "hit": false,
      "t": 61250.00000000004,
      "d": 244.79166666666424,
      "v": 110
    },
    {
      "midi": 36,
      "hit": false,
      "t": 61500,
      "d": 244.79166666666424,
      "v": 110
    },
    {
      "midi": 74,
      "hit": false,
      "t": 61500.00000000004,
      "d": 244.79166666666424,
      "v": 110
    },
    {
      "midi": 48,
      "hit": false,
      "t": 61750,
      "d": 244.79166666666424,
      "v": 110
    },
    {
      "midi": 76,
      "hit": false,
      "t": 61750.00000000004,
      "d": 244.79166666666424,
      "v": 110
    },
    {
      "midi": 45,
      "hit": false,
      "t": 62000,
      "d": 244.79166666666424,
      "v": 110
    },
    {
      "midi": 74,
      "hit": false,
      "t": 62000.00000000004,
      "d": 875,
      "v": 110
    },
    {
      "midi": 57,
      "hit": false,
      "t": 62250,
      "d": 244.79166666666424,
      "v": 110
    },
    {
      "midi": 45,
      "hit": false,
      "t": 62500,
      "d": 244.79166666666424,
      "v": 110
    },
    {
      "midi": 57,
      "hit": false,
      "t": 62750,
      "d": 244.79166666666424,
      "v": 110
    },
    {
      "midi": 45,
      "hit": false,
      "t": 63000,
      "d": 244.79166666666424,
      "v": 110
    },
    {
      "midi": 73,
      "hit": false,
      "t": 63000.00000000004,
      "d": 416.66666666666424,
      "v": 110
    },
    {
      "midi": 57,
      "hit": false,
      "t": 63250,
      "d": 244.79166666666424,
      "v": 110
    },
    {
      "midi": 45,
      "hit": false,
      "t": 63500,
      "d": 244.79166666666424,
      "v": 110
    },
    {
      "midi": 69,
      "hit": false,
      "t": 63500.00000000004,
      "d": 416.66666666666424,
      "v": 110
    },
    {
      "midi": 57,
      "hit": false,
      "t": 63750,
      "d": 244.79166666666424,
      "v": 110
    },
    {
      "midi": 38,
      "hit": false,
      "t": 64000,
      "d": 244.79166666666424,
      "v": 110
    },
    {
      "midi": 66,
      "hit": false,
      "t": 64000.00000000004,
      "d": 416.66666666666424,
      "v": 110
    },
    {
      "midi": 74,
      "hit": false,
      "t": 64000.00000000004,
      "d": 416.66666666666424,
      "v": 110
    },
    {
      "midi": 38,
      "hit": false,
      "t": 64250,
      "d": 244.79166666666424,
      "v": 110
    },
    {
      "midi": 45,
      "hit": false,
      "t": 64250,
      "d": 244.79166666666424,
      "v": 110
    },
    {
      "midi": 62,
      "hit": false,
      "t": 64500.00000000004,
      "d": 416.66666666666424,
      "v": 110
    },
    {
      "midi": 45,
      "hit": false,
      "t": 64750,
      "d": 244.79166666666424,
      "v": 110
    },
    {
      "midi": 38,
      "hit": false,
      "t": 65000,
      "d": 244.79166666666424,
      "v": 110
    },
    {
      "midi": 67,
      "hit": false,
      "t": 65000.00000000004,
      "d": 416.66666666666424,
      "v": 110
    },
    {
      "midi": 38,
      "hit": false,
      "t": 65250,
      "d": 244.79166666666424,
      "v": 110
    },
    {
      "midi": 47,
      "hit": false,
      "t": 65250,
      "d": 244.79166666666424,
      "v": 110
    },
    {
      "midi": 62,
      "hit": false,
      "t": 65500.00000000004,
      "d": 416.66666666666424,
      "v": 110
    },
    {
      "midi": 47,
      "hit": false,
      "t": 65750,
      "d": 244.79166666667152,
      "v": 110
    },
    {
      "midi": 38,
      "hit": false,
      "t": 66000,
      "d": 244.79166666667152,
      "v": 110
    },
    {
      "midi": 69,
      "hit": false,
      "t": 66000.00000000003,
      "d": 244.79166666667152,
      "v": 110
    },
    {
      "midi": 74,
      "hit": false,
      "t": 66000.00000000003,
      "d": 244.79166666667152,
      "v": 110
    },
    {
      "midi": 38,
      "hit": false,
      "t": 66250,
      "d": 244.79166666667152,
      "v": 110
    },
    {
      "midi": 49,
      "hit": false,
      "t": 66250,
      "d": 244.79166666667152,
      "v": 110
    },
    {
      "midi": 69,
      "hit": false,
      "t": 66250.00000000003,
      "d": 244.79166666667152,
      "v": 110
    },
    {
      "midi": 62,
      "hit": false,
      "t": 66500.00000000003,
      "d": 244.79166666667152,
      "v": 110
    },
    {
      "midi": 49,
      "hit": false,
      "t": 66750,
      "d": 244.79166666667152,
      "v": 110
    },
    {
      "midi": 69,
      "hit": false,
      "t": 66750.00000000003,
      "d": 244.79166666667152,
      "v": 110
    },
    {
      "midi": 38,
      "hit": false,
      "t": 67000,
      "d": 244.79166666667152,
      "v": 110
    },
    {
      "midi": 67,
      "hit": false,
      "t": 67000.00000000003,
      "d": 416.6666666666715,
      "v": 110
    },
    {
      "midi": 38,
      "hit": false,
      "t": 67250,
      "d": 244.79166666667152,
      "v": 110
    },
    {
      "midi": 47,
      "hit": false,
      "t": 67250,
      "d": 244.79166666667152,
      "v": 110
    },
    {
      "midi": 64,
      "hit": false,
      "t": 67500.00000000003,
      "d": 119.79166666667152,
      "v": 110
    },
    {
      "midi": 74,
      "hit": false,
      "t": 67500.00000000003,
      "d": 119.79166666667152,
      "v": 110
    },
    {
      "midi": 73,
      "hit": false,
      "t": 67625.00000000003,
      "d": 119.79166666667152,
      "v": 110
    },
    {
      "midi": 47,
      "hit": false,
      "t": 67750,
      "d": 244.79166666667152,
      "v": 110
    },
    {
      "midi": 71,
      "hit": false,
      "t": 67750.00000000003,
      "d": 119.79166666667152,
      "v": 110
    },
    {
      "midi": 73,
      "hit": false,
      "t": 67875.00000000003,
      "d": 119.79166666667152,
      "v": 110
    },
    {
      "midi": 38,
      "hit": false,
      "t": 68000,
      "d": 244.79166666667152,
      "v": 110
    },
    {
      "midi": 66,
      "hit": false,
      "t": 68000.00000000003,
      "d": 416.6666666666715,
      "v": 110
    },
    {
      "midi": 74,
      "hit": false,
      "t": 68000.00000000003,
      "d": 416.6666666666715,
      "v": 110
    },
    {
      "midi": 38,
      "hit": false,
      "t": 68250,
      "d": 244.79166666667152,
      "v": 110
    },
    {
      "midi": 45,
      "hit": false,
      "t": 68250,
      "d": 244.79166666667152,
      "v": 110
    },
    {
      "midi": 62,
      "hit": false,
      "t": 68500.00000000003,
      "d": 416.6666666666715,
      "v": 110
    },
    {
      "midi": 45,
      "hit": false,
      "t": 68750,
      "d": 244.79166666667152,
      "v": 110
    },
    {
      "midi": 38,
      "hit": false,
      "t": 69000,
      "d": 244.79166666667152,
      "v": 110
    },
    {
      "midi": 67,
      "hit": false,
      "t": 69000.00000000003,
      "d": 416.6666666666715,
      "v": 110
    },
    {
      "midi": 38,
      "hit": false,
      "t": 69250,
      "d": 244.79166666667152,
      "v": 110
    },
    {
      "midi": 47,
      "hit": false,
      "t": 69250,
      "d": 244.79166666667152,
      "v": 110
    },
    {
      "midi": 62,
      "hit": false,
      "t": 69500.00000000003,
      "d": 416.6666666666715,
      "v": 110
    },
    {
      "midi": 47,
      "hit": false,
      "t": 69750,
      "d": 244.79166666667152,
      "v": 110
    },
    {
      "midi": 38,
      "hit": false,
      "t": 70000,
      "d": 244.79166666667152,
      "v": 110
    },
    {
      "midi": 69,
      "hit": false,
      "t": 70000.00000000003,
      "d": 244.79166666667152,
      "v": 110
    },
    {
      "midi": 74,
      "hit": false,
      "t": 70000.00000000003,
      "d": 244.79166666667152,
      "v": 110
    },
    {
      "midi": 38,
      "hit": false,
      "t": 70250,
      "d": 244.79166666667152,
      "v": 110
    },
    {
      "midi": 49,
      "hit": false,
      "t": 70250,
      "d": 244.79166666667152,
      "v": 110
    },
    {
      "midi": 69,
      "hit": false,
      "t": 70250.00000000003,
      "d": 244.79166666667152,
      "v": 110
    },
    {
      "midi": 62,
      "hit": false,
      "t": 70500.00000000003,
      "d": 244.79166666667152,
      "v": 110
    },
    {
      "midi": 49,
      "hit": false,
      "t": 70750,
      "d": 244.79166666667152,
      "v": 110
    },
    {
      "midi": 69,
      "hit": false,
      "t": 70750.00000000003,
      "d": 244.79166666667152,
      "v": 110
    },
    {
      "midi": 38,
      "hit": false,
      "t": 71000,
      "d": 244.79166666667152,
      "v": 110
    },
    {
      "midi": 67,
      "hit": false,
      "t": 71000.00000000003,
      "d": 416.6666666666715,
      "v": 110
    },
    {
      "midi": 38,
      "hit": false,
      "t": 71250,
      "d": 244.79166666667152,
      "v": 110
    },
    {
      "midi": 47,
      "hit": false,
      "t": 71250,
      "d": 244.79166666667152,
      "v": 110
    },
    {
      "midi": 61,
      "hit": false,
      "t": 71500,
      "d": 244.79166666667152,
      "v": 110
    },
    {
      "midi": 64,
      "hit": false,
      "t": 71500,
      "d": 244.79166666667152,
      "v": 110
    },
    {
      "midi": 78,
      "hit": false,
      "t": 71500.00000000003,
      "d": 119.79166666667152,
      "v": 110
    },
    {
      "midi": 76,
      "hit": false,
      "t": 71625.00000000003,
      "d": 119.79166666667152,
      "v": 110
    },
    {
      "midi": 47,
      "hit": false,
      "t": 71750,
      "d": 244.79166666667152,
      "v": 110
    },
    {
      "midi": 74,
      "hit": false,
      "t": 71750.00000000003,
      "d": 119.79166666667152,
      "v": 110
    },
    {
      "midi": 76,
      "hit": false,
      "t": 71875.00000000003,
      "d": 119.79166666667152,
      "v": 110
    },
    {
      "midi": 38,
      "hit": false,
      "t": 72000,
      "d": 244.79166666667152,
      "v": 110
    },
    {
      "midi": 66,
      "hit": false,
      "t": 72000.00000000003,
      "d": 416.6666666666715,
      "v": 110
    },
    {
      "midi": 78,
      "hit": false,
      "t": 72000.00000000003,
      "d": 416.6666666666715,
      "v": 110
    },
    {
      "midi": 38,
      "hit": false,
      "t": 72250,
      "d": 244.79166666667152,
      "v": 110
    },
    {
      "midi": 45,
      "hit": false,
      "t": 72250,
      "d": 244.79166666667152,
      "v": 110
    },
    {
      "midi": 62,
      "hit": false,
      "t": 72500.00000000003,
      "d": 416.6666666666715,
      "v": 110
    },
    {
      "midi": 45,
      "hit": false,
      "t": 72750,
      "d": 244.79166666667152,
      "v": 110
    },
    {
      "midi": 38,
      "hit": false,
      "t": 73000,
      "d": 244.79166666667152,
      "v": 110
    },
    {
      "midi": 67,
      "hit": false,
      "t": 73000.00000000003,
      "d": 416.6666666666715,
      "v": 110
    },
    {
      "midi": 38,
      "hit": false,
      "t": 73250,
      "d": 244.79166666667152,
      "v": 110
    },
    {
      "midi": 47,
      "hit": false,
      "t": 73250,
      "d": 244.79166666667152,
      "v": 110
    },
    {
      "midi": 62,
      "hit": false,
      "t": 73500.00000000003,
      "d": 416.6666666666715,
      "v": 110
    },
    {
      "midi": 47,
      "hit": false,
      "t": 73750,
      "d": 244.79166666667152,
      "v": 110
    },
    {
      "midi": 38,
      "hit": false,
      "t": 74000,
      "d": 244.79166666667152,
      "v": 110
    },
    {
      "midi": 69,
      "hit": false,
      "t": 74000.00000000003,
      "d": 244.79166666667152,
      "v": 110
    },
    {
      "midi": 78,
      "hit": false,
      "t": 74000.00000000003,
      "d": 244.79166666667152,
      "v": 110
    },
    {
      "midi": 38,
      "hit": false,
      "t": 74250,
      "d": 244.79166666667152,
      "v": 110
    },
    {
      "midi": 49,
      "hit": false,
      "t": 74250,
      "d": 244.79166666667152,
      "v": 110
    },
    {
      "midi": 69,
      "hit": false,
      "t": 74250.00000000003,
      "d": 244.79166666667152,
      "v": 110
    },
    {
      "midi": 62,
      "hit": false,
      "t": 74500.00000000003,
      "d": 244.79166666667152,
      "v": 110
    },
    {
      "midi": 49,
      "hit": false,
      "t": 74750,
      "d": 244.79166666667152,
      "v": 110
    },
    {
      "midi": 69,
      "hit": false,
      "t": 74750.00000000003,
      "d": 244.79166666667152,
      "v": 110
    },
    {
      "midi": 38,
      "hit": false,
      "t": 75000,
      "d": 244.79166666667152,
      "v": 110
    },
    {
      "midi": 67,
      "hit": false,
      "t": 75000.00000000003,
      "d": 416.6666666666715,
      "v": 110
    },
    {
      "midi": 38,
      "hit": false,
      "t": 75250,
      "d": 244.79166666667152,
      "v": 110
    },
    {
      "midi": 47,
      "hit": false,
      "t": 75250,
      "d": 244.79166666667152,
      "v": 110
    },
    {
      "midi": 61,
      "hit": false,
      "t": 75500,
      "d": 244.79166666667152,
      "v": 110
    },
    {
      "midi": 64,
      "hit": false,
      "t": 75500,
      "d": 244.79166666667152,
      "v": 110
    },
    {
      "midi": 81,
      "hit": false,
      "t": 75500.00000000003,
      "d": 119.79166666667152,
      "v": 110
    },
    {
      "midi": 79,
      "hit": false,
      "t": 75625.00000000003,
      "d": 119.79166666667152,
      "v": 110
    },
    {
      "midi": 47,
      "hit": false,
      "t": 75750,
      "d": 244.79166666667152,
      "v": 110
    },
    {
      "midi": 78,
      "hit": false,
      "t": 75750.00000000003,
      "d": 119.79166666667152,
      "v": 110
    },
    {
      "midi": 79,
      "hit": false,
      "t": 75875.00000000003,
      "d": 119.79166666667152,
      "v": 110
    },
    {
      "midi": 38,
      "hit": false,
      "t": 76000,
      "d": 244.79166666667152,
      "v": 110
    },
    {
      "midi": 78,
      "hit": false,
      "t": 76000.00000000003,
      "d": 416.6666666666715,
      "v": 110
    },
    {
      "midi": 81,
      "hit": false,
      "t": 76000.00000000003,
      "d": 416.6666666666715,
      "v": 110
    },
    {
      "midi": 38,
      "hit": false,
      "t": 76250,
      "d": 244.79166666667152,
      "v": 110
    },
    {
      "midi": 45,
      "hit": false,
      "t": 76250,
      "d": 244.79166666667152,
      "v": 110
    },
    {
      "midi": 74,
      "hit": false,
      "t": 76500.00000000003,
      "d": 416.6666666666715,
      "v": 110
    },
    {
      "midi": 45,
      "hit": false,
      "t": 76750,
      "d": 244.79166666667152,
      "v": 110
    },
    {
      "midi": 38,
      "hit": false,
      "t": 77000,
      "d": 244.79166666667152,
      "v": 110
    },
    {
      "midi": 79,
      "hit": false,
      "t": 77000.00000000003,
      "d": 416.6666666666715,
      "v": 110
    },
    {
      "midi": 38,
      "hit": false,
      "t": 77250,
      "d": 244.79166666667152,
      "v": 110
    },
    {
      "midi": 47,
      "hit": false,
      "t": 77250,
      "d": 244.79166666667152,
      "v": 110
    },
    {
      "midi": 74,
      "hit": false,
      "t": 77500.00000000003,
      "d": 416.6666666666715,
      "v": 110
    },
    {
      "midi": 47,
      "hit": false,
      "t": 77750,
      "d": 244.79166666667152,
      "v": 110
    },
    {
      "midi": 38,
      "hit": false,
      "t": 78000,
      "d": 244.79166666667152,
      "v": 110
    },
    {
      "midi": 81,
      "hit": false,
      "t": 78000.00000000003,
      "d": 244.79166666667152,
      "v": 110
    },
    {
      "midi": 38,
      "hit": false,
      "t": 78250,
      "d": 244.79166666667152,
      "v": 110
    },
    {
      "midi": 49,
      "hit": false,
      "t": 78250,
      "d": 244.79166666667152,
      "v": 110
    },
    {
      "midi": 81,
      "hit": false,
      "t": 78250.00000000003,
      "d": 244.79166666667152,
      "v": 110
    },
    {
      "midi": 74,
      "hit": false,
      "t": 78500.00000000003,
      "d": 244.79166666667152,
      "v": 110
    },
    {
      "midi": 49,
      "hit": false,
      "t": 78750,
      "d": 244.79166666667152,
      "v": 110
    },
    {
      "midi": 81,
      "hit": false,
      "t": 78750.00000000003,
      "d": 244.79166666667152,
      "v": 110
    },
    {
      "midi": 42,
      "hit": false,
      "t": 79000,
      "d": 244.79166666667152,
      "v": 110
    },
    {
      "midi": 78,
      "hit": false,
      "t": 79000.00000000003,
      "d": 119.79166666667152,
      "v": 110
    },
    {
      "midi": 76,
      "hit": false,
      "t": 79125.00000000003,
      "d": 119.79166666667152,
      "v": 110
    },
    {
      "midi": 54,
      "hit": false,
      "t": 79250,
      "d": 244.79166666667152,
      "v": 110
    },
    {
      "midi": 74,
      "hit": false,
      "t": 79250.00000000003,
      "d": 119.79166666667152,
      "v": 110
    },
    {
      "midi": 73,
      "hit": false,
      "t": 79375.00000000003,
      "d": 119.79166666667152,
      "v": 110
    },
    {
      "midi": 42,
      "hit": false,
      "t": 79500,
      "d": 244.79166666667152,
      "v": 110
    },
    {
      "midi": 76,
      "hit": false,
      "t": 79500.00000000003,
      "d": 119.79166666667152,
      "v": 110
    },
    {
      "midi": 74,
      "hit": false,
      "t": 79625.00000000003,
      "d": 119.79166666667152,
      "v": 110
    },
    {
      "midi": 54,
      "hit": false,
      "t": 79750,
      "d": 244.79166666667152,
      "v": 110
    },
    {
      "midi": 73,
      "hit": false,
      "t": 79750.00000000003,
      "d": 119.79166666667152,
      "v": 110
    },
    {
      "midi": 70,
      "hit": false,
      "t": 79875.00000000003,
      "d": 119.79166666667152,
      "v": 110
    },
    {
      "midi": 35,
      "hit": false,
      "t": 80000,
      "d": 1375,
      "v": 110
    },
    {
      "midi": 47,
      "hit": false,
      "t": 80000,
      "d": 1375,
      "v": 110
    },
    {
      "midi": 59,
      "hit": false,
      "t": 80000.00000000003,
      "d": 1375,
      "v": 110
    },
    {
      "midi": 62,
      "hit": false,
      "t": 80000.00000000003,
      "d": 1375,
      "v": 110
    },
    {
      "midi": 71,
      "hit": false,
      "t": 80000.00000000003,
      "d": 1375,
      "v": 110
    }
  ]
}