{
  "jsonPath": "World/Canadian Pop/Justin Bieber/down-to-earth.json",
  "path": "World\\Canadian Pop\\Justin Bieber\\Down To Earth.mid",
  "name": "Down To Earth",
  "difficulty": "Advanced",
  "bpm": 80,
  "notes": [
    {
      "midi": 59,
      "hit": false,
      "t": 0,
      "d": 2000,
      "v": 80
    },
    {
      "midi": 62,
      "hit": false,
      "t": 0,
      "d": 2000,
      "v": 80
    },
    {
      "midi": 67,
      "hit": false,
      "t": 0,
      "d": 2000,
      "v": 80
    },
    {
      "midi": 43,
      "hit": false,
      "t": 0,
      "d": 12000,
      "v": 80
    },
    {
      "midi": 55,
      "hit": false,
      "t": 2000,
      "d": 2000,
      "v": 80
    },
    {
      "midi": 59,
      "hit": false,
      "t": 4000,
      "d": 2000,
      "v": 80
    },
    {
      "midi": 62,
      "hit": false,
      "t": 4000,
      "d": 2000,
      "v": 80
    },
    {
      "midi": 67,
      "hit": false,
      "t": 4000,
      "d": 2000,
      "v": 80
    },
    {
      "midi": 55,
      "hit": false,
      "t": 6000,
      "d": 2000,
      "v": 80
    },
    {
      "midi": 59,
      "hit": false,
      "t": 8000,
      "d": 2000,
      "v": 80
    },
    {
      "midi": 62,
      "hit": false,
      "t": 8000,
      "d": 2000,
      "v": 80
    },
    {
      "midi": 67,
      "hit": false,
      "t": 8000,
      "d": 2000,
      "v": 80
    },
    {
      "midi": 55,
      "hit": false,
      "t": 10000,
      "d": 2000,
      "v": 80
    },
    {
      "midi": 59,
      "hit": false,
      "t": 12000,
      "d": 2000,
      "v": 80
    },
    {
      "midi": 62,
      "hit": false,
      "t": 12000,
      "d": 2000,
      "v": 80
    },
    {
      "midi": 67,
      "hit": false,
      "t": 12000,
      "d": 2000,
      "v": 80
    },
    {
      "midi": 43,
      "hit": false,
      "t": 12000,
      "d": 4000,
      "v": 80
    },
    {
      "midi": 55,
      "hit": false,
      "t": 14000,
      "d": 2000,
      "v": 80
    },
    {
      "midi": 66,
      "hit": false,
      "t": 14000,
      "d": 2000,
      "v": 80
    },
    {
      "midi": 57,
      "hit": false,
      "t": 16000,
      "d": 2000,
      "v": 80
    },
    {
      "midi": 62,
      "hit": false,
      "t": 16000,
      "d": 2000,
      "v": 80
    },
    {
      "midi": 66,
      "hit": false,
      "t": 16000,
      "d": 2000,
      "v": 80
    },
    {
      "midi": 50,
      "hit": false,
      "t": 16000,
      "d": 12000,
      "v": 80
    },
    {
      "midi": 54,
      "hit": false,
      "t": 18000,
      "d": 2000,
      "v": 80
    },
    {
      "midi": 57,
      "hit": false,
      "t": 20000,
      "d": 2000,
      "v": 80
    },
    {
      "midi": 62,
      "hit": false,
      "t": 20000,
      "d": 2000,
      "v": 80
    },
    {
      "midi": 66,
      "hit": false,
      "t": 20000,
      "d": 2000,
      "v": 80
    },
    {
      "midi": 54,
      "hit": false,
      "t": 22000,
      "d": 2000,
      "v": 80
    },
    {
      "midi": 57,
      "hit": false,
      "t": 24000,
      "d": 2000,
      "v": 80
    },
    {
      "midi": 62,
      "hit": false,
      "t": 24000,
      "d": 2000,
      "v": 80
    },
    {
      "midi": 66,
      "hit": false,
      "t": 24000,
      "d": 2000,
      "v": 80
    },
    {
      "midi": 54,
      "hit": false,
      "t": 26000,
      "d": 2000,
      "v": 80
    },
    {
      "midi": 57,
      "hit": false,
      "t": 28000,
      "d": 2000,
      "v": 80
    },
    {
      "midi": 62,
      "hit": false,
      "t": 28000,
      "d": 2000,
      "v": 80
    },
    {
      "midi": 66,
      "hit": false,
      "t": 28000,
      "d": 2000,
      "v": 80
    },
    {
      "midi": 50,
      "hit": false,
      "t": 28000,
      "d": 4000,
      "v": 80
    },
    {
      "midi": 54,
      "hit": false,
      "t": 30000,
      "d": 2000,
      "v": 80
    },
    {
      "midi": 67,
      "hit": false,
      "t": 30000,
      "d": 2000,
      "v": 80
    },
    {
      "midi": 57,
      "hit": false,
      "t": 32000,
      "d": 2000,
      "v": 80
    },
    {
      "midi": 61,
      "hit": false,
      "t": 32000,
      "d": 2000,
      "v": 80
    },
    {
      "midi": 64,
      "hit": false,
      "t": 32000,
      "d": 2000,
      "v": 80
    },
    {
      "midi": 45,
      "hit": false,
      "t": 32000,
      "d": 12000,
      "v": 80
    },
    {
      "midi": 57,
      "hit": false,
      "t": 34000,
      "d": 2000,
      "v": 80
    },
    {
      "midi": 57,
      "hit": false,
      "t": 36000,
      "d": 2000,
      "v": 80
    },
    {
      "midi": 61,
      "hit": false,
      "t": 36000,
      "d": 2000,
      "v": 80
    },
    {
      "midi": 64,
      "hit": false,
      "t": 36000,
      "d": 2000,
      "v": 80
    },
    {
      "midi": 57,
      "hit": false,
      "t": 38000,
      "d": 2000,
      "v": 80
    },
    {
      "midi": 57,
      "hit": false,
      "t": 40000,
      "d": 2000,
      "v": 80
    },
    {
      "midi": 61,
      "hit": false,
      "t": 40000,
      "d": 2000,
      "v": 80
    },
    {
      "midi": 64,
      "hit": false,
      "t": 40000,
      "d": 2000,
      "v": 80
    },
    {
      "midi": 57,
      "hit": false,
      "t": 42000,
      "d": 2000,
      "v": 80
    },
    {
      "midi": 57,
      "hit": false,
      "t": 44000,
      "d": 2000,
      "v": 80
    },
    {
      "midi": 61,
      "hit": false,
      "t": 44000,
      "d": 2000,
      "v": 80
    },
    {
      "midi": 64,
      "hit": false,
      "t": 44000,
      "d": 2000,
      "v": 80
    },
    {
      "midi": 45,
      "hit": false,
      "t": 44000,
      "d": 4000,
      "v": 80
    },
    {
      "midi": 57,
      "hit": false,
      "t": 46000,
      "d": 2000,
      "v": 80
    },
    {
      "midi": 62,
      "hit": false,
      "t": 46000,
      "d": 2000,
      "v": 80
    },
    {
      "midi": 57,
      "hit": false,
      "t": 48000,
      "d": 2000,
      "v": 80
    },
    {
      "midi": 61,
      "hit": false,
      "t": 48000,
      "d": 2000,
      "v": 80
    },
    {
      "midi": 64,
      "hit": false,
      "t": 48000,
      "d": 2000,
      "v": 80
    },
    {
      "midi": 45,
      "hit": false,
      "t": 48000,
      "d": 12000,
      "v": 80
    },
    {
      "midi": 57,
      "hit": false,
      "t": 50000,
      "d": 2000,
      "v": 80
    },
    {
      "midi": 57,
      "hit": false,
      "t": 52000,
      "d": 2000,
      "v": 80
    },
    {
      "midi": 61,
      "hit": false,
      "t": 52000,
      "d": 2000,
      "v": 80
    },
    {
      "midi": 64,
      "hit": false,
      "t": 52000,
      "d": 2000,
      "v": 80
    },
    {
      "midi": 57,
      "hit": false,
      "t": 54000,
      "d": 2000,
      "v": 80
    },
    {
      "midi": 57,
      "hit": false,
      "t": 56000,
      "d": 2000,
      "v": 80
    },
    {
      "midi": 61,
      "hit": false,
      "t": 56000,
      "d": 2000,
      "v": 80
    },
    {
      "midi": 64,
      "hit": false,
      "t": 56000,
      "d": 2000,
      "v": 80
    },
    {
      "midi": 57,
      "hit": false,
      "t": 58000,
      "d": 2000,
      "v": 80
    },
    {
      "midi": 59,
      "hit": false,
      "t": 60000,
      "d": 2000,
      "v": 80
    },
    {
      "midi": 62,
      "hit": false,
      "t": 60000,
      "d": 2000,
      "v": 80
    },
    {
      "midi": 67,
      "hit": false,
      "t": 60000,
      "d": 2000,
      "v": 80
    },
    {
      "midi": 47,
      "hit": false,
      "t": 60000,
      "d": 4000,
      "v": 80
    },
    {
      "midi": 59,
      "hit": false,
      "t": 62000,
      "d": 2000,
      "v": 80
    },
    {
      "midi": 69,
      "hit": false,
      "t": 62000,
      "d": 2000,
      "v": 80
    },
    {
      "midi": 59,
      "hit": false,
      "t": 64000,
      "d": 2000,
      "v": 80
    },
    {
      "midi": 62,
      "hit": false,
      "t": 64000,
      "d": 2000,
      "v": 80
    },
    {
      "midi": 67,
      "hit": false,
      "t": 64000,
      "d": 2000,
      "v": 80
    },
    {
      "midi": 43,
      "hit": false,
      "t": 64000,
      "d": 12000,
      "v": 80
    },
    {
      "midi": 55,
      "hit": false,
      "t": 66000,
      "d": 2000,
      "v": 80
    },
    {
      "midi": 59,
      "hit": false,
      "t": 68000,
      "d": 2000,
      "v": 80
    },
    {
      "midi": 62,
      "hit": false,
      "t": 68000,
      "d": 2000,
      "v": 80
    },
    {
      "midi": 67,
      "hit": false,
      "t": 68000,
      "d": 2000,
      "v": 80
    },
    {
      "midi": 55,
      "hit": false,
      "t": 70000,
      "d": 2000,
      "v": 80
    },
    {
      "midi": 59,
      "hit": false,
      "t": 72000,
      "d": 2000,
      "v": 80
    },
    {
      "midi": 62,
      "hit": false,
      "t": 72000,
      "d": 2000,
      "v": 80
    },
    {
      "midi": 67,
      "hit": false,
      "t": 72000,
      "d": 2000,
      "v": 80
    },
    {
      "midi": 55,
      "hit": false,
      "t": 74000,
      "d": 2000,
      "v": 80
    },
    {
      "midi": 59,
      "hit": false,
      "t": 76000,
      "d": 2000,
      "v": 80
    },
    {
      "midi": 62,
      "hit": false,
      "t": 76000,
      "d": 2000,
      "v": 80
    },
    {
      "midi": 67,
      "hit": false,
      "t": 76000,
      "d": 2000,
      "v": 80
    },
    {
      "midi": 43,
      "hit": false,
      "t": 76000,
      "d": 4000,
      "v": 80
    },
    {
      "midi": 55,
      "hit": false,
      "t": 78000,
      "d": 2000,
      "v": 80
    },
    {
      "midi": 66,
      "hit": false,
      "t": 78000,
      "d": 2000,
      "v": 80
    },
    {
      "midi": 57,
      "hit": false,
      "t": 80000,
      "d": 2000,
      "v": 80
    },
    {
      "midi": 62,
      "hit": false,
      "t": 80000,
      "d": 2000,
      "v": 80
    },
    {
      "midi": 66,
      "hit": false,
      "t": 80000,
      "d": 2000,
      "v": 80
    },
    {
      "midi": 50,
      "hit": false,
      "t": 80000,
      "d": 12000,
      "v": 80
    },
    {
      "midi": 54,
      "hit": false,
      "t": 82000,
      "d": 2000,
      "v": 80
    },
    {
      "midi": 57,
      "hit": false,
      "t": 84000,
      "d": 2000,
      "v": 80
    },
    {
      "midi": 62,
      "hit": false,
      "t": 84000,
      "d": 2000,
      "v": 80
    },
    {
      "midi": 66,
      "hit": false,
      "t": 84000,
      "d": 2000,
      "v": 80
    },
    {
      "midi": 54,
      "hit": false,
      "t": 86000,
      "d": 2000,
      "v": 80
    },
    {
      "midi": 57,
      "hit": false,
      "t": 88000,
      "d": 2000,
      "v": 80
    },
    {
      "midi": 62,
      "hit": false,
      "t": 88000,
      "d": 2000,
      "v": 80
    },
    {
      "midi": 66,
      "hit": false,
      "t": 88000,
      "d": 2000,
      "v": 80
    },
    {
      "midi": 54,
      "hit": false,
      "t": 90000,
      "d": 2000,
      "v": 80
    },
    {
      "midi": 57,
      "hit": false,
      "t": 92000,
      "d": 2000,
      "v": 80
    },
    {
      "midi": 62,
      "hit": false,
      "t": 92000,
      "d": 2000,
      "v": 80
    },
    {
      "midi": 66,
      "hit": false,
      "t": 92000,
      "d": 2000,
      "v": 80
    },
    {
      "midi": 50,
      "hit": false,
      "t": 92000,
      "d": 4000,
      "v": 80
    },
    {
      "midi": 54,
      "hit": false,
      "t": 94000,
      "d": 2000,
      "v": 80
    },
    {
      "midi": 67,
      "hit": false,
      "t": 94000,
      "d": 2000,
      "v": 80
    },
    {
      "midi": 57,
      "hit": false,
      "t": 96000,
      "d": 2000,
      "v": 80
    },
    {
      "midi": 61,
      "hit": false,
      "t": 96000,
      "d": 2000,
      "v": 80
    },
    {
      "midi": 64,
      "hit": false,
      "t": 96000,
      "d": 2000,
      "v": 80
    },
    {
      "midi": 45,
      "hit": false,
      "t": 96000,
      "d": 12000,
      "v": 80
    },
    {
      "midi": 57,
      "hit": false,
      "t": 98000,
      "d": 2000,
      "v": 80
    },
    {
      "midi": 57,
      "hit": false,
      "t": 100000,
      "d": 2000,
      "v": 80
    },
    {
      "midi": 61,
      "hit": false,
      "t": 100000,
      "d": 2000,
      "v": 80
    },
    {
      "midi": 64,
      "hit": false,
      "t": 100000,
      "d": 2000,
      "v": 80
    },
    {
      "midi": 57,
      "hit": false,
      "t": 102000,
      "d": 2000,
      "v": 80
    },
    {
      "midi": 57,
      "hit": false,
      "t": 104000,
      "d": 2000,
      "v": 80
    },
    {
      "midi": 61,
      "hit": false,
      "t": 104000,
      "d": 2000,
      "v": 80
    },
    {
      "midi": 64,
      "hit": false,
      "t": 104000,
      "d": 2000,
      "v": 80
    },
    {
      "midi": 57,
      "hit": false,
      "t": 106000,
      "d": 2000,
      "v": 80
    },
    {
      "midi": 57,
      "hit": false,
      "t": 108000,
      "d": 2000,
      "v": 80
    },
    {
      "midi": 61,
      "hit": false,
      "t": 108000,
      "d": 2000,
      "v": 80
    },
    {
      "midi": 64,
      "hit": false,
      "t": 108000,
      "d": 2000,
      "v": 80
    },
    {
      "midi": 45,
      "hit": false,
      "t": 108000,
      "d": 4000,
      "v": 80
    },
    {
      "midi": 57,
      "hit": false,
      "t": 110000,
      "d": 2000,
      "v": 80
    },
    {
      "midi": 62,
      "hit": false,
      "t": 110000,
      "d": 2000,
      "v": 80
    },
    {
      "midi": 57,
      "hit": false,
      "t": 112000,
      "d": 2000,
      "v": 80
    },
    {
      "midi": 61,
      "hit": false,
      "t": 112000,
      "d": 2000,
      "v": 80
    },
    {
      "midi": 64,
      "hit": false,
      "t": 112000,
      "d": 2000,
      "v": 80
    },
    {
      "midi": 45,
      "hit": false,
      "t": 112000,
      "d": 12000,
      "v": 80
    },
    {
      "midi": 57,
      "hit": false,
      "t": 114000,
      "d": 2000,
      "v": 80
    },
    {
      "midi": 57,
      "hit": false,
      "t": 116000,
      "d": 2000,
      "v": 80
    },
    {
      "midi": 61,
      "hit": false,
      "t": 116000,
      "d": 2000,
      "v": 80
    },
    {
      "midi": 64,
      "hit": false,
      "t": 116000,
      "d": 2000,
      "v": 80
    },
    {
      "midi": 57,
      "hit": false,
      "t": 118000,
      "d": 2000,
      "v": 80
    },
    {
      "midi": 57,
      "hit": false,
      "t": 120000,
      "d": 2000,
      "v": 80
    },
    {
      "midi": 61,
      "hit": false,
      "t": 120000,
      "d": 2000,
      "v": 80
    },
    {
      "midi": 64,
      "hit": false,
      "t": 120000,
      "d": 2000,
      "v": 80
    },
    {
      "midi": 57,
      "hit": false,
      "t": 122000,
      "d": 2000,
      "v": 80
    },
    {
      "midi": 59,
      "hit": false,
      "t": 124000,
      "d": 2000,
      "v": 80
    },
    {
      "midi": 62,
      "hit": false,
      "t": 124000,
      "d": 2000,
      "v": 80
    },
    {
      "midi": 67,
      "hit": false,
      "t": 124000,
      "d": 2000,
      "v": 80
    },
    {
      "midi": 47,
      "hit": false,
      "t": 124000,
      "d": 4000,
      "v": 80
    },
    {
      "midi": 59,
      "hit": false,
      "t": 126000,
      "d": 2000,
      "v": 80
    },
    {
      "midi": 69,
      "hit": false,
      "t": 126000,
      "d": 2000,
      "v": 80
    },
    {
      "midi": 59,
      "hit": false,
      "t": 128000,
      "d": 2000,
      "v": 80
    },
    {
      "midi": 62,
      "hit": false,
      "t": 128000,
      "d": 2000,
      "v": 80
    },
    {
      "midi": 67,
      "hit": false,
      "t": 128000,
      "d": 2000,
      "v": 80
    },
    {
      "midi": 43,
      "hit": false,
      "t": 128000,
      "d": 12000,
      "v": 80
    },
    {
      "midi": 55,
      "hit": false,
      "t": 130000,
      "d": 2000,
      "v": 80
    },
    {
      "midi": 59,
      "hit": false,
      "t": 132000,
      "d": 2000,
      "v": 80
    },
    {
      "midi": 62,
      "hit": false,
      "t": 132000,
      "d": 2000,
      "v": 80
    },
    {
      "midi": 67,
      "hit": false,
      "t": 132000,
      "d": 2000,
      "v": 80
    },
    {
      "midi": 55,
      "hit": false,
      "t": 134000,
      "d": 2000,
      "v": 80
    },
    {
      "midi": 59,
      "hit": false,
      "t": 136000,
      "d": 2000,
      "v": 80
    },
    {
      "midi": 62,
      "hit": false,
      "t": 136000,
      "d": 2000,
      "v": 80
    },
    {
      "midi": 67,
      "hit": false,
      "t": 136000,
      "d": 2000,
      "v": 80
    },
    {
      "midi": 55,
      "hit": false,
      "t": 138000,
      "d": 2000,
      "v": 80
    },
    {
      "midi": 59,
      "hit": false,
      "t": 140000,
      "d": 2000,
      "v": 80
    },
    {
      "midi": 62,
      "hit": false,
      "t": 140000,
      "d": 2000,
      "v": 80
    },
    {
      "midi": 67,
      "hit": false,
      "t": 140000,
      "d": 2000,
      "v": 80
    },
    {
      "midi": 43,
      "hit": false,
      "t": 140000,
      "d": 4000,
      "v": 80
    },
    {
      "midi": 55,
      "hit": false,
      "t": 142000,
      "d": 2000,
      "v": 80
    },
    {
      "midi": 66,
      "hit": false,
      "t": 142000,
      "d": 2000,
      "v": 80
    },
    {
      "midi": 57,
      "hit": false,
      "t": 144000,
      "d": 2000,
      "v": 80
    },
    {
      "midi": 62,
      "hit": false,
      "t": 144000,
      "d": 2000,
      "v": 80
    },
    {
      "midi": 66,
      "hit": false,
      "t": 144000,
      "d": 2000,
      "v": 80
    },
    {
      "midi": 50,
      "hit": false,
      "t": 144000,
      "d": 12000,
      "v": 80
    },
    {
      "midi": 54,
      "hit": false,
      "t": 146000,
      "d": 2000,
      "v": 80
    },
    {
      "midi": 57,
      "hit": false,
      "t": 148000,
      "d": 2000,
      "v": 80
    },
    {
      "midi": 62,
      "hit": false,
      "t": 148000,
      "d": 2000,
      "v": 80
    },
    {
      "midi": 66,
      "hit": false,
      "t": 148000,
      "d": 2000,
      "v": 80
    },
    {
      "midi": 54,
      "hit": false,
      "t": 150000,
      "d": 2000,
      "v": 80
    },
    {
      "midi": 57,
      "hit": false,
      "t": 152000,
      "d": 2000,
      "v": 80
    },
    {
      "midi": 62,
      "hit": false,
      "t": 152000,
      "d": 2000,
      "v": 80
    },
    {
      "midi": 66,
      "hit": false,
      "t": 152000,
      "d": 2000,
      "v": 80
    },
    {
      "midi": 54,
      "hit": false,
      "t": 154000,
      "d": 2000,
      "v": 80
    },
    {
      "midi": 57,
      "hit": false,
      "t": 156000,
      "d": 2000,
      "v": 80
    },
    {
      "midi": 62,
      "hit": false,
      "t": 156000,
      "d": 2000,
      "v": 80
    },
    {
      "midi": 66,
      "hit": false,
      "t": 156000,
      "d": 2000,
      "v": 80
    },
    {
      "midi": 50,
      "hit": false,
      "t": 156000,
      "d": 4000,
      "v": 80
    },
    {
      "midi": 54,
      "hit": false,
      "t": 158000,
      "d": 2000,
      "v": 80
    },
    {
      "midi": 67,
      "hit": false,
      "t": 158000,
      "d": 2000,
      "v": 80
    },
    {
      "midi": 57,
      "hit": false,
      "t": 160000,
      "d": 2000,
      "v": 80
    },
    {
      "midi": 61,
      "hit": false,
      "t": 160000,
      "d": 2000,
      "v": 80
    },
    {
      "midi": 64,
      "hit": false,
      "t": 160000,
      "d": 2000,
      "v": 80
    },
    {
      "midi": 45,
      "hit": false,
      "t": 160000,
      "d": 12000,
      "v": 80
    },
    {
      "midi": 57,
      "hit": false,
      "t": 162000,
      "d": 2000,
      "v": 80
    },
    {
      "midi": 57,
      "hit": false,
      "t": 164000,
      "d": 2000,
      "v": 80
    },
    {
      "midi": 61,
      "hit": false,
      "t": 164000,
      "d": 2000,
      "v": 80
    },
    {
      "midi": 64,
      "hit": false,
      "t": 164000,
      "d": 2000,
      "v": 80
    },
    {
      "midi": 57,
      "hit": false,
      "t": 166000,
      "d": 2000,
      "v": 80
    },
    {
      "midi": 57,
      "hit": false,
      "t": 168000,
      "d": 2000,
      "v": 80
    },
    {
      "midi": 61,
      "hit": false,
      "t": 168000,
      "d": 2000,
      "v": 80
    },
    {
      "midi": 64,
      "hit": false,
      "t": 168000,
      "d": 2000,
      "v": 80
    },
    {
      "midi": 57,
      "hit": false,
      "t": 170000,
      "d": 2000,
      "v": 80
    },
    {
      "midi": 57,
      "hit": false,
      "t": 172000,
      "d": 2000,
      "v": 80
    },
    {
      "midi": 61,
      "hit": false,
      "t": 172000,
      "d": 2000,
      "v": 80
    },
    {
      "midi": 64,
      "hit": false,
      "t": 172000,
      "d": 2000,
      "v": 80
    },
    {
      "midi": 45,
      "hit": false,
      "t": 172000,
      "d": 4000,
      "v": 80
    },
    {
      "midi": 57,
      "hit": false,
      "t": 174000,
      "d": 2000,
      "v": 80
    },
    {
      "midi": 62,
      "hit": false,
      "t": 174000,
      "d": 2000,
      "v": 80
    },
    {
      "midi": 57,
      "hit": false,
      "t": 176000,
      "d": 2000,
      "v": 80
    },
    {
      "midi": 61,
      "hit": false,
      "t": 176000,
      "d": 2000,
      "v": 80
    },
    {
      "midi": 64,
      "hit": false,
      "t": 176000,
      "d": 2000,
      "v": 80
    },
    {
      "midi": 45,
      "hit": false,
      "t": 176000,
      "d": 12000,
      "v": 80
    },
    {
      "midi": 57,
      "hit": false,
      "t": 178000,
      "d": 2000,
      "v": 80
    },
    {
      "midi": 57,
      "hit": false,
      "t": 180000,
      "d": 2000,
      "v": 80
    },
    {
      "midi": 61,
      "hit": false,
      "t": 180000,
      "d": 2000,
      "v": 80
    },
    {
      "midi": 64,
      "hit": false,
      "t": 180000,
      "d": 2000,
      "v": 80
    },
    {
      "midi": 57,
      "hit": false,
      "t": 182000,
      "d": 2000,
      "v": 80
    },
    {
      "midi": 57,
      "hit": false,
      "t": 184000,
      "d": 2000,
      "v": 80
    },
    {
      "midi": 61,
      "hit": false,
      "t": 184000,
      "d": 2000,
      "v": 80
    },
    {
      "midi": 64,
      "hit": false,
      "t": 184000,
      "d": 2000,
      "v": 80
    },
    {
      "midi": 57,
      "hit": false,
      "t": 186000,
      "d": 2000,
      "v": 80
    },
    {
      "midi": 59,
      "hit": false,
      "t": 188000,
      "d": 2000,
      "v": 80
    },
    {
      "midi": 62,
      "hit": false,
      "t": 188000,
      "d": 2000,
      "v": 80
    },
    {
      "midi": 67,
      "hit": false,
      "t": 188000,
      "d": 2000,
      "v": 80
    },
    {
      "midi": 47,
      "hit": false,
      "t": 188000,
      "d": 4000,
      "v": 80
    },
    {
      "midi": 59,
      "hit": false,
      "t": 190000,
      "d": 2000,
      "v": 80
    },
    {
      "midi": 69,
      "hit": false,
      "t": 190000,
      "d": 2000,
      "v": 80
    },
    {
      "midi": 59,
      "hit": false,
      "t": 192000,
      "d": 2000,
      "v": 80
    },
    {
      "midi": 62,
      "hit": false,
      "t": 192000,
      "d": 2000,
      "v": 80
    },
    {
      "midi": 67,
      "hit": false,
      "t": 192000,
      "d": 2000,
      "v": 80
    },
    {
      "midi": 43,
      "hit": false,
      "t": 192000,
      "d": 12000,
      "v": 80
    },
    {
      "midi": 55,
      "hit": false,
      "t": 194000,
      "d": 2000,
      "v": 80
    },
    {
      "midi": 59,
      "hit": false,
      "t": 196000,
      "d": 2000,
      "v": 80
    },
    {
      "midi": 62,
      "hit": false,
      "t": 196000,
      "d": 2000,
      "v": 80
    },
    {
      "midi": 67,
      "hit": false,
      "t": 196000,
      "d": 2000,
      "v": 80
    },
    {
      "midi": 55,
      "hit": false,
      "t": 198000,
      "d": 2000,
      "v": 80
    },
    {
      "midi": 59,
      "hit": false,
      "t": 200000,
      "d": 2000,
      "v": 80
    },
    {
      "midi": 62,
      "hit": false,
      "t": 200000,
      "d": 2000,
      "v": 80
    },
    {
      "midi": 67,
      "hit": false,
      "t": 200000,
      "d": 2000,
      "v": 80
    },
    {
      "midi": 55,
      "hit": false,
      "t": 202000,
      "d": 2000,
      "v": 80
    },
    {
      "midi": 59,
      "hit": false,
      "t": 204000,
      "d": 2000,
      "v": 80
    },
    {
      "midi": 62,
      "hit": false,
      "t": 204000,
      "d": 2000,
      "v": 80
    },
    {
      "midi": 67,
      "hit": false,
      "t": 204000,
      "d": 2000,
      "v": 80
    },
    {
      "midi": 43,
      "hit": false,
      "t": 204000,
      "d": 4000,
      "v": 80
    },
    {
      "midi": 55,
      "hit": false,
      "t": 206000,
      "d": 2000,
      "v": 80
    },
    {
      "midi": 66,
      "hit": false,
      "t": 206000,
      "d": 2000,
      "v": 80
    },
    {
      "midi": 57,
      "hit": false,
      "t": 208000,
      "d": 2000,
      "v": 80
    },
    {
      "midi": 62,
      "hit": false,
      "t": 208000,
      "d": 2000,
      "v": 80
    },
    {
      "midi": 66,
      "hit": false,
      "t": 208000,
      "d": 2000,
      "v": 80
    },
    {
      "midi": 50,
      "hit": false,
      "t": 208000,
      "d": 12000,
      "v": 80
    },
    {
      "midi": 54,
      "hit": false,
      "t": 210000,
      "d": 2000,
      "v": 80
    },
    {
      "midi": 57,
      "hit": false,
      "t": 212000,
      "d": 2000,
      "v": 80
    },
    {
      "midi": 62,
      "hit": false,
      "t": 212000,
      "d": 2000,
      "v": 80
    },
    {
      "midi": 66,
      "hit": false,
      "t": 212000,
      "d": 2000,
      "v": 80
    },
    {
      "midi": 54,
      "hit": false,
      "t": 214000,
      "d": 2000,
      "v": 80
    },
    {
      "midi": 57,
      "hit": false,
      "t": 216000,
      "d": 2000,
      "v": 80
    },
    {
      "midi": 62,
      "hit": false,
      "t": 216000,
      "d": 2000,
      "v": 80
    },
    {
      "midi": 66,
      "hit": false,
      "t": 216000,
      "d": 2000,
      "v": 80
    },
    {
      "midi": 54,
      "hit": false,
      "t": 218000,
      "d": 2000,
      "v": 80
    },
    {
      "midi": 57,
      "hit": false,
      "t": 220000,
      "d": 2000,
      "v": 80
    },
    {
      "midi": 62,
      "hit": false,
      "t": 220000,
      "d": 2000,
      "v": 80
    },
    {
      "midi": 66,
      "hit": false,
      "t": 220000,
      "d": 2000,
      "v": 80
    },
    {
      "midi": 50,
      "hit": false,
      "t": 220000,
      "d": 4000,
      "v": 80
    },
    {
      "midi": 54,
      "hit": false,
      "t": 222000,
      "d": 2000,
      "v": 80
    },
    {
      "midi": 67,
      "hit": false,
      "t": 222000,
      "d": 2000,
      "v": 80
    },
    {
      "midi": 57,
      "hit": false,
      "t": 224000,
      "d": 2000,
      "v": 80
    },
    {
      "midi": 61,
      "hit": false,
      "t": 224000,
      "d": 2000,
      "v": 80
    },
    {
      "midi": 64,
      "hit": false,
      "t": 224000,
      "d": 2000,
      "v": 80
    },
    {
      "midi": 45,
      "hit": false,
      "t": 224000,
      "d": 12000,
      "v": 80
    },
    {
      "midi": 57,
      "hit": false,
      "t": 226000,
      "d": 2000,
      "v": 80
    },
    {
      "midi": 57,
      "hit": false,
      "t": 228000,
      "d": 2000,
      "v": 80
    },
    {
      "midi": 61,
      "hit": false,
      "t": 228000,
      "d": 2000,
      "v": 80
    },
    {
      "midi": 64,
      "hit": false,
      "t": 228000,
      "d": 2000,
      "v": 80
    },
    {
      "midi": 57,
      "hit": false,
      "t": 230000,
      "d": 2000,
      "v": 80
    },
    {
      "midi": 57,
      "hit": false,
      "t": 232000,
      "d": 2000,
      "v": 80
    },
    {
      "midi": 61,
      "hit": false,
      "t": 232000,
      "d": 2000,
      "v": 80
    },
    {
      "midi": 64,
      "hit": false,
      "t": 232000,
      "d": 2000,
      "v": 80
    },
    {
      "midi": 57,
      "hit": false,
      "t": 234000,
      "d": 2000,
      "v": 80
    },
    {
      "midi": 57,
      "hit": false,
      "t": 236000,
      "d": 2000,
      "v": 80
    },
    {
      "midi": 61,
      "hit": false,
      "t": 236000,
      "d": 2000,
      "v": 80
    },
    {
      "midi": 64,
      "hit": false,
      "t": 236000,
      "d": 2000,
      "v": 80
    },
    {
      "midi": 45,
      "hit": false,
      "t": 236000,
      "d": 4000,
      "v": 80
    },
    {
      "midi": 57,
      "hit": false,
      "t": 238000,
      "d": 2000,
      "v": 80
    },
    {
      "midi": 62,
      "hit": false,
      "t": 238000,
      "d": 2000,
      "v": 80
    },
    {
      "midi": 57,
      "hit": false,
      "t": 240000,
      "d": 2000,
      "v": 80
    },
    {
      "midi": 61,
      "hit": false,
      "t": 240000,
      "d": 2000,
      "v": 80
    },
    {
      "midi": 64,
      "hit": false,
      "t": 240000,
      "d": 2000,
      "v": 80
    },
    {
      "midi": 45,
      "hit": false,
      "t": 240000,
      "d": 12000,
      "v": 80
    },
    {
      "midi": 57,
      "hit": false,
      "t": 242000,
      "d": 2000,
      "v": 80
    },
    {
      "midi": 57,
      "hit": false,
      "t": 244000,
      "d": 2000,
      "v": 80
    },
    {
      "midi": 61,
      "hit": false,
      "t": 244000,
      "d": 2000,
      "v": 80
    },
    {
      "midi": 64,
      "hit": false,
      "t": 244000,
      "d": 2000,
      "v": 80
    },
    {
      "midi": 57,
      "hit": false,
      "t": 246000,
      "d": 2000,
      "v": 80
    },
    {
      "midi": 57,
      "hit": false,
      "t": 248000,
      "d": 2000,
      "v": 80
    },
    {
      "midi": 61,
      "hit": false,
      "t": 248000,
      "d": 2000,
      "v": 80
    },
    {
      "midi": 64,
      "hit": false,
      "t": 248000,
      "d": 2000,
      "v": 80
    },
    {
      "midi": 57,
      "hit": false,
      "t": 250000,
      "d": 2000,
      "v": 80
    },
    {
      "midi": 59,
      "hit": false,
      "t": 252000,
      "d": 2000,
      "v": 80
    },
    {
      "midi": 62,
      "hit": false,
      "t": 252000,
      "d": 2000,
      "v": 80
    },
    {
      "midi": 67,
      "hit": false,
      "t": 252000,
      "d": 2000,
      "v": 80
    },
    {
      "midi": 47,
      "hit": false,
      "t": 252000,
      "d": 4000,
      "v": 80
    },
    {
      "midi": 59,
      "hit": false,
      "t": 254000,
      "d": 2000,
      "v": 80
    },
    {
      "midi": 69,
      "hit": false,
      "t": 254000,
      "d": 2000,
      "v": 80
    },
    {
      "midi": 59,
      "hit": false,
      "t": 256000,
      "d": 2000,
      "v": 80
    },
    {
      "midi": 62,
      "hit": false,
      "t": 256000,
      "d": 2000,
      "v": 80
    },
    {
      "midi": 67,
      "hit": false,
      "t": 256000,
      "d": 2000,
      "v": 80
    },
    {
      "midi": 43,
      "hit": false,
      "t": 256000,
      "d": 12000,
      "v": 80
    },
    {
      "midi": 55,
      "hit": false,
      "t": 258000,
      "d": 2000,
      "v": 80
    },
    {
      "midi": 59,
      "hit": false,
      "t": 260000,
      "d": 2000,
      "v": 80
    },
    {
      "midi": 62,
      "hit": false,
      "t": 260000,
      "d": 2000,
      "v": 80
    },
    {
      "midi": 67,
      "hit": false,
      "t": 260000,
      "d": 2000,
      "v": 80
    },
    {
      "midi": 55,
      "hit": false,
      "t": 262000,
      "d": 2000,
      "v": 80
    },
    {
      "midi": 59,
      "hit": false,
      "t": 264000,
      "d": 2000,
      "v": 80
    },
    {
      "midi": 62,
      "hit": false,
      "t": 264000,
      "d": 2000,
      "v": 80
    },
    {
      "midi": 67,
      "hit": false,
      "t": 264000,
      "d": 2000,
      "v": 80
    },
    {
      "midi": 55,
      "hit": false,
      "t": 266000,
      "d": 2000,
      "v": 80
    },
    {
      "midi": 59,
      "hit": false,
      "t": 268000,
      "d": 2000,
      "v": 80
    },
    {
      "midi": 62,
      "hit": false,
      "t": 268000,
      "d": 2000,
      "v": 80
    },
    {
      "midi": 67,
      "hit": false,
      "t": 268000,
      "d": 2000,
      "v": 80
    },
    {
      "midi": 43,
      "hit": false,
      "t": 268000,
      "d": 4000,
      "v": 80
    },
    {
      "midi": 55,
      "hit": false,
      "t": 270000,
      "d": 2000,
      "v": 80
    },
    {
      "midi": 66,
      "hit": false,
      "t": 270000,
      "d": 2000,
      "v": 80
    },
    {
      "midi": 57,
      "hit": false,
      "t": 272000,
      "d": 2000,
      "v": 80
    },
    {
      "midi": 62,
      "hit": false,
      "t": 272000,
      "d": 2000,
      "v": 80
    },
    {
      "midi": 66,
      "hit": false,
      "t": 272000,
      "d": 2000,
      "v": 80
    },
    {
      "midi": 50,
      "hit": false,
      "t": 272000,
      "d": 12000,
      "v": 80
    },
    {
      "midi": 54,
      "hit": false,
      "t": 274000,
      "d": 2000,
      "v": 80
    },
    {
      "midi": 57,
      "hit": false,
      "t": 276000,
      "d": 2000,
      "v": 80
    },
    {
      "midi": 62,
      "hit": false,
      "t": 276000,
      "d": 2000,
      "v": 80
    },
    {
      "midi": 66,
      "hit": false,
      "t": 276000,
      "d": 2000,
      "v": 80
    },
    {
      "midi": 54,
      "hit": false,
      "t": 278000,
      "d": 2000,
      "v": 80
    },
    {
      "midi": 57,
      "hit": false,
      "t": 280000,
      "d": 2000,
      "v": 80
    },
    {
      "midi": 62,
      "hit": false,
      "t": 280000,
      "d": 2000,
      "v": 80
    },
    {
      "midi": 66,
      "hit": false,
      "t": 280000,
      "d": 2000,
      "v": 80
    },
    {
      "midi": 54,
      "hit": false,
      "t": 282000,
      "d": 2000,
      "v": 80
    },
    {
      "midi": 57,
      "hit": false,
      "t": 284000,
      "d": 2000,
      "v": 80
    },
    {
      "midi": 62,
      "hit": false,
      "t": 284000,
      "d": 2000,
      "v": 80
    },
    {
      "midi": 66,
      "hit": false,
      "t": 284000,
      "d": 2000,
      "v": 80
    },
    {
      "midi": 50,
      "hit": false,
      "t": 284000,
      "d": 4000,
      "v": 80
    },
    {
      "midi": 54,
      "hit": false,
      "t": 286000,
      "d": 2000,
      "v": 80
    },
    {
      "midi": 67,
      "hit": false,
      "t": 286000,
      "d": 2000,
      "v": 80
    },
    {
      "midi": 57,
      "hit": false,
      "t": 288000,
      "d": 2000,
      "v": 80
    },
    {
      "midi": 61,
      "hit": false,
      "t": 288000,
      "d": 2000,
      "v": 80
    },
    {
      "midi": 64,
      "hit": false,
      "t": 288000,
      "d": 2000,
      "v": 80
    },
    {
      "midi": 45,
      "hit": false,
      "t": 288000,
      "d": 12000,
      "v": 80
    },
    {
      "midi": 57,
      "hit": false,
      "t": 290000,
      "d": 2000,
      "v": 80
    },
    {
      "midi": 57,
      "hit": false,
      "t": 292000,
      "d": 2000,
      "v": 80
    },
    {
      "midi": 61,
      "hit": false,
      "t": 292000,
      "d": 2000,
      "v": 80
    },
    {
      "midi": 64,
      "hit": false,
      "t": 292000,
      "d": 2000,
      "v": 80
    },
    {
      "midi": 57,
      "hit": false,
      "t": 294000,
      "d": 2000,
      "v": 80
    },
    {
      "midi": 57,
      "hit": false,
      "t": 296000,
      "d": 2000,
      "v": 80
    },
    {
      "midi": 61,
      "hit": false,
      "t": 296000,
      "d": 2000,
      "v": 80
    },
    {
      "midi": 64,
      "hit": false,
      "t": 296000,
      "d": 2000,
      "v": 80
    },
    {
      "midi": 57,
      "hit": false,
      "t": 298000,
      "d": 2000,
      "v": 80
    },
    {
      "midi": 57,
      "hit": false,
      "t": 300000,
      "d": 2000,
      "v": 80
    },
    {
      "midi": 61,
      "hit": false,
      "t": 300000,
      "d": 2000,
      "v": 80
    },
    {
      "midi": 64,
      "hit": false,
      "t": 300000,
      "d": 2000,
      "v": 80
    },
    {
      "midi": 45,
      "hit": false,
      "t": 300000,
      "d": 4000,
      "v": 80
    },
    {
      "midi": 57,
      "hit": false,
      "t": 302000,
      "d": 2000,
      "v": 80
    },
    {
      "midi": 62,
      "hit": false,
      "t": 302000,
      "d": 2000,
      "v": 80
    },
    {
      "midi": 57,
      "hit": false,
      "t": 304000,
      "d": 2000,
      "v": 80
    },
    {
      "midi": 61,
      "hit": false,
      "t": 304000,
      "d": 2000,
      "v": 80
    },
    {
      "midi": 64,
      "hit": false,
      "t": 304000,
      "d": 2000,
      "v": 80
    },
    {
      "midi": 45,
      "hit": false,
      "t": 304000,
      "d": 12000,
      "v": 80
    },
    {
      "midi": 57,
      "hit": false,
      "t": 306000,
      "d": 2000,
      "v": 80
    },
    {
      "midi": 57,
      "hit": false,
      "t": 308000,
      "d": 2000,
      "v": 80
    },
    {
      "midi": 61,
      "hit": false,
      "t": 308000,
      "d": 2000,
      "v": 80
    },
    {
      "midi": 64,
      "hit": false,
      "t": 308000,
      "d": 2000,
      "v": 80
    },
    {
      "midi": 57,
      "hit": false,
      "t": 310000,
      "d": 2000,
      "v": 80
    },
    {
      "midi": 57,
      "hit": false,
      "t": 312000,
      "d": 2000,
      "v": 80
    },
    {
      "midi": 61,
      "hit": false,
      "t": 312000,
      "d": 2000,
      "v": 80
    },
    {
      "midi": 64,
      "hit": false,
      "t": 312000,
      "d": 2000,
      "v": 80
    },
    {
      "midi": 57,
      "hit": false,
      "t": 314000,
      "d": 2000,
      "v": 80
    },
    {
      "midi": 59,
      "hit": false,
      "t": 316000,
      "d": 2000,
      "v": 80
    },
    {
      "midi": 62,
      "hit": false,
      "t": 316000,
      "d": 2000,
      "v": 80
    },
    {
      "midi": 67,
      "hit": false,
      "t": 316000,
      "d": 2000,
      "v": 80
    },
    {
      "midi": 47,
      "hit": false,
      "t": 316000,
      "d": 4000,
      "v": 80
    },
    {
      "midi": 59,
      "hit": false,
      "t": 318000,
      "d": 2000,
      "v": 80
    },
    {
      "midi": 69,
      "hit": false,
      "t": 318000,
      "d": 2000,
      "v": 80
    },
    {
      "midi": 59,
      "hit": false,
      "t": 320000,
      "d": 2000,
      "v": 80
    },
    {
      "midi": 62,
      "hit": false,
      "t": 320000,
      "d": 2000,
      "v": 80
    },
    {
      "midi": 67,
      "hit": false,
      "t": 320000,
      "d": 2000,
      "v": 80
    },
    {
      "midi": 43,
      "hit": false,
      "t": 320000,
      "d": 12000,
      "v": 80
    },
    {
      "midi": 86,
      "hit": false,
      "t": 320000,
      "d": 4000,
      "v": 80
    },
    {
      "midi": 55,
      "hit": false,
      "t": 322000,
      "d": 2000,
      "v": 80
    },
    {
      "midi": 59,
      "hit": false,
      "t": 324000,
      "d": 2000,
      "v": 80
    },
    {
      "midi": 62,
      "hit": false,
      "t": 324000,
      "d": 2000,
      "v": 80
    },
    {
      "midi": 67,
      "hit": false,
      "t": 324000,
      "d": 2000,
      "v": 80
    },
    {
      "midi": 85,
      "hit": false,
      "t": 324000,
      "d": 2000,
      "v": 80
    },
    {
      "midi": 55,
      "hit": false,
      "t": 326000,
      "d": 2000,
      "v": 80
    },
    {
      "midi": 86,
      "hit": false,
      "t": 326000,
      "d": 2000,
      "v": 80
    },
    {
      "midi": 59,
      "hit": false,
      "t": 328000,
      "d": 2000,
      "v": 80
    },
    {
      "midi": 62,
      "hit": false,
      "t": 328000,
      "d": 2000,
      "v": 80
    },
    {
      "midi": 67,
      "hit": false,
      "t": 328000,
      "d": 2000,
      "v": 80
    },
    {
      "midi": 83,
      "hit": false,
      "t": 328000,
      "d": 2000,
      "v": 80
    },
    {
      "midi": 55,
      "hit": false,
      "t": 330000,
      "d": 2000,
      "v": 80
    },
    {
      "midi": 79,
      "hit": false,
      "t": 330000,
      "d": 2000,
      "v": 80
    },
    {
      "midi": 59,
      "hit": false,
      "t": 332000,
      "d": 2000,
      "v": 80
    },
    {
      "midi": 62,
      "hit": false,
      "t": 332000,
      "d": 2000,
      "v": 80
    },
    {
      "midi": 67,
      "hit": false,
      "t": 332000,
      "d": 2000,
      "v": 80
    },
    {
      "midi": 43,
      "hit": false,
      "t": 332000,
      "d": 4000,
      "v": 80
    },
    {
      "midi": 74,
      "hit": false,
      "t": 332000,
      "d": 2000,
      "v": 80
    },
    {
      "midi": 55,
      "hit": false,
      "t": 334000,
      "d": 2000,
      "v": 80
    },
    {
      "midi": 66,
      "hit": false,
      "t": 334000,
      "d": 2000,
      "v": 80
    },
    {
      "midi": 86,
      "hit": false,
      "t": 334000,
      "d": 2000,
      "v": 80
    },
    {
      "midi": 57,
      "hit": false,
      "t": 336000,
      "d": 2000,
      "v": 80
    },
    {
      "midi": 62,
      "hit": false,
      "t": 336000,
      "d": 2000,
      "v": 80
    },
    {
      "midi": 66,
      "hit": false,
      "t": 336000,
      "d": 2000,
      "v": 80
    },
    {
      "midi": 50,
      "hit": false,
      "t": 336000,
      "d": 12000,
      "v": 80
    },
    {
      "midi": 54,
      "hit": false,
      "t": 338000,
      "d": 2000,
      "v": 80
    },
    {
      "midi": 85,
      "hit": false,
      "t": 338000,
      "d": 2000,
      "v": 80
    },
    {
      "midi": 57,
      "hit": false,
      "t": 340000,
      "d": 2000,
      "v": 80
    },
    {
      "midi": 62,
      "hit": false,
      "t": 340000,
      "d": 2000,
      "v": 80
    },
    {
      "midi": 66,
      "hit": false,
      "t": 340000,
      "d": 2000,
      "v": 80
    },
    {
      "midi": 86,
      "hit": false,
      "t": 340000,
      "d": 2000,
      "v": 80
    },
    {
      "midi": 54,
      "hit": false,
      "t": 342000,
      "d": 2000,
      "v": 80
    },
    {
      "midi": 81,
      "hit": false,
      "t": 342000,
      "d": 2000,
      "v": 80
    },
    {
      "midi": 57,
      "hit": false,
      "t": 344000,
      "d": 2000,
      "v": 80
    },
    {
      "midi": 62,
      "hit": false,
      "t": 344000,
      "d": 2000,
      "v": 80
    },
    {
      "midi": 66,
      "hit": false,
      "t": 344000,
      "d": 2000,
      "v": 80
    },
    {
      "midi": 78,
      "hit": false,
      "t": 344000,
      "d": 2000,
      "v": 80
    },
    {
      "midi": 54,
      "hit": false,
      "t": 346000,
      "d": 2000,
      "v": 80
    },
    {
      "midi": 74,
      "hit": false,
      "t": 346000,
      "d": 4000,
      "v": 80
    },
    {
      "midi": 57,
      "hit": false,
      "t": 348000,
      "d": 2000,
      "v": 80
    },
    {
      "midi": 62,
      "hit": false,
      "t": 348000,
      "d": 2000,
      "v": 80
    },
    {
      "midi": 66,
      "hit": false,
      "t": 348000,
      "d": 2000,
      "v": 80
    },
    {
      "midi": 50,
      "hit": false,
      "t": 348000,
      "d": 4000,
      "v": 80
    },
    {
      "midi": 54,
      "hit": false,
      "t": 350000,
      "d": 2000,
      "v": 80
    },
    {
      "midi": 67,
      "hit": false,
      "t": 350000,
      "d": 2000,
      "v": 80
    },
    {
      "midi": 88,
      "hit": false,
      "t": 350000,
      "d": 2000,
      "v": 80
    },
    {
      "midi": 57,
      "hit": false,
      "t": 352000,
      "d": 2000,
      "v": 80
    },
    {
      "midi": 61,
      "hit": false,
      "t": 352000,
      "d": 2000,
      "v": 80
    },
    {
      "midi": 64,
      "hit": false,
      "t": 352000,
      "d": 2000,
      "v": 80
    },
    {
      "midi": 45,
      "hit": false,
      "t": 352000,
      "d": 12000,
      "v": 80
    },
    {
      "midi": 57,
      "hit": false,
      "t": 354000,
      "d": 2000,
      "v": 80
    },
    {
      "midi": 57,
      "hit": false,
      "t": 356000,
      "d": 2000,
      "v": 80
    },
    {
      "midi": 61,
      "hit": false,
      "t": 356000,
      "d": 2000,
      "v": 80
    },
    {
      "midi": 64,
      "hit": false,
      "t": 356000,
      "d": 2000,
      "v": 80
    },
    {
      "midi": 57,
      "hit": false,
      "t": 358000,
      "d": 2000,
      "v": 80
    },
    {
      "midi": 57,
      "hit": false,
      "t": 360000,
      "d": 2000,
      "v": 80
    },
    {
      "midi": 61,
      "hit": false,
      "t": 360000,
      "d": 2000,
      "v": 80
    },
    {
      "midi": 64,
      "hit": false,
      "t": 360000,
      "d": 2000,
      "v": 80
    },
    {
      "midi": 57,
      "hit": false,
      "t": 362000,
      "d": 2000,
      "v": 80
    },
    {
      "midi": 57,
      "hit": false,
      "t": 364000,
      "d": 2000,
      "v": 80
    },
    {
      "midi": 61,
      "hit": false,
      "t": 364000,
      "d": 2000,
      "v": 80
    },
    {
      "midi": 64,
      "hit": false,
      "t": 364000,
      "d": 2000,
      "v": 80
    },
    {
      "midi": 45,
      "hit": false,
      "t": 364000,
      "d": 4000,
      "v": 80
    },
    {
      "midi": 57,
      "hit": false,
      "t": 366000,
      "d": 2000,
      "v": 80
    },
    {
      "midi": 62,
      "hit": false,
      "t": 366000,
      "d": 2000,
      "v": 80
    },
    {
      "midi": 57,
      "hit": false,
      "t": 368000,
      "d": 2000,
      "v": 80
    },
    {
      "midi": 61,
      "hit": false,
      "t": 368000,
      "d": 2000,
      "v": 80
    },
    {
      "midi": 64,
      "hit": false,
      "t": 368000,
      "d": 2000,
      "v": 80
    },
    {
      "midi": 45,
      "hit": false,
      "t": 368000,
      "d": 12000,
      "v": 80
    },
    {
      "midi": 88,
      "hit": false,
      "t": 368000,
      "d": 2000,
      "v": 80
    },
    {
      "midi": 57,
      "hit": false,
      "t": 370000,
      "d": 2000,
      "v": 80
    },
    {
      "midi": 86,
      "hit": false,
      "t": 370000,
      "d": 1000,
      "v": 80
    },
    {
      "midi": 88,
      "hit": false,
      "t": 371000,
      "d": 1000,
      "v": 80
    },
    {
      "midi": 57,
      "hit": false,
      "t": 372000,
      "d": 2000,
      "v": 80
    },
    {
      "midi": 61,
      "hit": false,
      "t": 372000,
      "d": 2000,
      "v": 80
    },
    {
      "midi": 64,
      "hit": false,
      "t": 372000,
      "d": 2000,
      "v": 80
    },
    {
      "midi": 86,
      "hit": false,
      "t": 372000,
      "d": 2000,
      "v": 80
    },
    {
      "midi": 57,
      "hit": false,
      "t": 374000,
      "d": 2000,
      "v": 80
    },
    {
      "midi": 85,
      "hit": false,
      "t": 374000,
      "d": 1000,
      "v": 80
    },
    {
      "midi": 86,
      "hit": false,
      "t": 375000,
      "d": 1000,
      "v": 80
    },
    {
      "midi": 57,
      "hit": false,
      "t": 376000,
      "d": 2000,
      "v": 80
    },
    {
      "midi": 61,
      "hit": false,
      "t": 376000,
      "d": 2000,
      "v": 80
    },
    {
      "midi": 64,
      "hit": false,
      "t": 376000,
      "d": 2000,
      "v": 80
    },
    {
      "midi": 85,
      "hit": false,
      "t": 376000,
      "d": 2000,
      "v": 80
    },
    {
      "midi": 57,
      "hit": false,
      "t": 378000,
      "d": 2000,
      "v": 80
    },
    {
      "midi": 83,
      "hit": false,
      "t": 378000,
      "d": 1000,
      "v": 80
    },
    {
      "midi": 85,
      "hit": false,
      "t": 379000,
      "d": 1000,
      "v": 80
    },
    {
      "midi": 59,
      "hit": false,
      "t": 380000,
      "d": 2000,
      "v": 80
    },
    {
      "midi": 62,
      "hit": false,
      "t": 380000,
      "d": 2000,
      "v": 80
    },
    {
      "midi": 67,
      "hit": false,
      "t": 380000,
      "d": 2000,
      "v": 80
    },
    {
      "midi": 47,
      "hit": false,
      "t": 380000,
      "d": 4000,
      "v": 80
    },
    {
      "midi": 83,
      "hit": false,
      "t": 380000,
      "d": 2000,
      "v": 80
    },
    {
      "midi": 59,
      "hit": false,
      "t": 382000,
      "d": 2000,
      "v": 80
    },
    {
      "midi": 69,
      "hit": false,
      "t": 382000,
      "d": 2000,
      "v": 80
    },
    {
      "midi": 79,
      "hit": false,
      "t": 382000,
      "d": 2000,
      "v": 80
    },
    {
      "midi": 59,
      "hit": false,
      "t": 384000,
      "d": 2000,
      "v": 80
    },
    {
      "midi": 62,
      "hit": false,
      "t": 384000,
      "d": 2000,
      "v": 80
    },
    {
      "midi": 67,
      "hit": false,
      "t": 384000,
      "d": 2000,
      "v": 80
    },
    {
      "midi": 43,
      "hit": false,
      "t": 384000,
      "d": 12000,
      "v": 80
    },
    {
      "midi": 86,
      "hit": false,
      "t": 384000,
      "d": 4000,
      "v": 80
    },
    {
      "midi": 55,
      "hit": false,
      "t": 386000,
      "d": 2000,
      "v": 80
    },
    {
      "midi": 59,
      "hit": false,
      "t": 388000,
      "d": 2000,
      "v": 80
    },
    {
      "midi": 62,
      "hit": false,
      "t": 388000,
      "d": 2000,
      "v": 80
    },
    {
      "midi": 67,
      "hit": false,
      "t": 388000,
      "d": 2000,
      "v": 80
    },
    {
      "midi": 85,
      "hit": false,
      "t": 388000,
      "d": 2000,
      "v": 80
    },
    {
      "midi": 55,
      "hit": false,
      "t": 390000,
      "d": 2000,
      "v": 80
    },
    {
      "midi": 86,
      "hit": false,
      "t": 390000,
      "d": 2000,
      "v": 80
    },
    {
      "midi": 59,
      "hit": false,
      "t": 392000,
      "d": 2000,
      "v": 80
    },
    {
      "midi": 62,
      "hit": false,
      "t": 392000,
      "d": 2000,
      "v": 80
    },
    {
      "midi": 67,
      "hit": false,
      "t": 392000,
      "d": 2000,
      "v": 80
    },
    {
      "midi": 83,
      "hit": false,
      "t": 392000,
      "d": 2000,
      "v": 80
    },
    {
      "midi": 55,
      "hit": false,
      "t": 394000,
      "d": 2000,
      "v": 80
    },
    {
      "midi": 79,
      "hit": false,
      "t": 394000,
      "d": 2000,
      "v": 80
    },
    {
      "midi": 59,
      "hit": false,
      "t": 396000,
      "d": 2000,
      "v": 80
    },
    {
      "midi": 62,
      "hit": false,
      "t": 396000,
      "d": 2000,
      "v": 80
    },
    {
      "midi": 67,
      "hit": false,
      "t": 396000,
      "d": 2000,
      "v": 80
    },
    {
      "midi": 43,
      "hit": false,
      "t": 396000,
      "d": 4000,
      "v": 80
    },
    {
      "midi": 74,
      "hit": false,
      "t": 396000,
      "d": 2000,
      "v": 80
    },
    {
      "midi": 55,
      "hit": false,
      "t": 398000,
      "d": 2000,
      "v": 80
    },
    {
      "midi": 66,
      "hit": false,
      "t": 398000,
      "d": 2000,
      "v": 80
    },
    {
      "midi": 86,
      "hit": false,
      "t": 398000,
      "d": 2000,
      "v": 80
    },
    {
      "midi": 57,
      "hit": false,
      "t": 400000,
      "d": 2000,
      "v": 80
    },
    {
      "midi": 62,
      "hit": false,
      "t": 400000,
      "d": 2000,
      "v": 80
    },
    {
      "midi": 66,
      "hit": false,
      "t": 400000,
      "d": 2000,
      "v": 80
    },
    {
      "midi": 50,
      "hit": false,
      "t": 400000,
      "d": 12000,
      "v": 80
    },
    {
      "midi": 54,
      "hit": false,
      "t": 402000,
      "d": 2000,
      "v": 80
    },
    {
      "midi": 85,
      "hit": false,
      "t": 402000,
      "d": 2000,
      "v": 80
    },
    {
      "midi": 57,
      "hit": false,
      "t": 404000,
      "d": 2000,
      "v": 80
    },
    {
      "midi": 62,
      "hit": false,
      "t": 404000,
      "d": 2000,
      "v": 80
    },
    {
      "midi": 66,
      "hit": false,
      "t": 404000,
      "d": 2000,
      "v": 80
    },
    {
      "midi": 86,
      "hit": false,
      "t": 404000,
      "d": 2000,
      "v": 80
    },
    {
      "midi": 54,
      "hit": false,
      "t": 406000,
      "d": 2000,
      "v": 80
    },
    {
      "midi": 81,
      "hit": false,
      "t": 406000,
      "d": 2000,
      "v": 80
    },
    {
      "midi": 57,
      "hit": false,
      "t": 408000,
      "d": 2000,
      "v": 80
    },
    {
      "midi": 62,
      "hit": false,
      "t": 408000,
      "d": 2000,
      "v": 80
    },
    {
      "midi": 66,
      "hit": false,
      "t": 408000,
      "d": 2000,
      "v": 80
    },
    {
      "midi": 78,
      "hit": false,
      "t": 408000,
      "d": 2000,
      "v": 80
    },
    {
      "midi": 54,
      "hit": false,
      "t": 410000,
      "d": 2000,
      "v": 80
    },
    {
      "midi": 74,
      "hit": false,
      "t": 410000,
      "d": 4000,
      "v": 80
    },
    {
      "midi": 57,
      "hit": false,
      "t": 412000,
      "d": 2000,
      "v": 80
    },
    {
      "midi": 62,
      "hit": false,
      "t": 412000,
      "d": 2000,
      "v": 80
    },
    {
      "midi": 66,
      "hit": false,
      "t": 412000,
      "d": 2000,
      "v": 80
    },
    {
      "midi": 50,
      "hit": false,
      "t": 412000,
      "d": 4000,
      "v": 80
    },
    {
      "midi": 54,
      "hit": false,
      "t": 414000,
      "d": 2000,
      "v": 80
    },
    {
      "midi": 67,
      "hit": false,
      "t": 414000,
      "d": 2000,
      "v": 80
    },
    {
      "midi": 88,
      "hit": false,
      "t": 414000,
      "d": 2000,
      "v": 80
    },
    {
      "midi": 57,
      "hit": false,
      "t": 416000,
      "d": 2000,
      "v": 80
    },
    {
      "midi": 61,
      "hit": false,
      "t": 416000,
      "d": 2000,
      "v": 80
    },
    {
      "midi": 64,
      "hit": false,
      "t": 416000,
      "d": 2000,
      "v": 80
    },
    {
      "midi": 45,
      "hit": false,
      "t": 416000,
      "d": 12000,
      "v": 80
    },
    {
      "midi": 57,
      "hit": false,
      "t": 418000,
      "d": 2000,
      "v": 80
    },
    {
      "midi": 57,
      "hit": false,
      "t": 420000,
      "d": 2000,
      "v": 80
    },
    {
      "midi": 61,
      "hit": false,
      "t": 420000,
      "d": 2000,
      "v": 80
    },
    {
      "midi": 64,
      "hit": false,
      "t": 420000,
      "d": 2000,
      "v": 80
    },
    {
      "midi": 57,
      "hit": false,
      "t": 422000,
      "d": 2000,
      "v": 80
    },
    {
      "midi": 57,
      "hit": false,
      "t": 424000,
      "d": 2000,
      "v": 80
    },
    {
      "midi": 61,
      "hit": false,
      "t": 424000,
      "d": 2000,
      "v": 80
    },
    {
      "midi": 64,
      "hit": false,
      "t": 424000,
      "d": 2000,
      "v": 80
    },
    {
      "midi": 57,
      "hit": false,
      "t": 426000,
      "d": 2000,
      "v": 80
    },
    {
      "midi": 57,
      "hit": false,
      "t": 428000,
      "d": 2000,
      "v": 80
    },
    {
      "midi": 61,
      "hit": false,
      "t": 428000,
      "d": 2000,
      "v": 80
    },
    {
      "midi": 64,
      "hit": false,
      "t": 428000,
      "d": 2000,
      "v": 80
    },
    {
      "midi": 45,
      "hit": false,
      "t": 428000,
      "d": 4000,
      "v": 80
    },
    {
      "midi": 57,
      "hit": false,
      "t": 430000,
      "d": 2000,
      "v": 80
    },
    {
      "midi": 62,
      "hit": false,
      "t": 430000,
      "d": 2000,
      "v": 80
    },
    {
      "midi": 57,
      "hit": false,
      "t": 432000,
      "d": 2000,
      "v": 80
    },
    {
      "midi": 61,
      "hit": false,
      "t": 432000,
      "d": 2000,
      "v": 80
    },
    {
      "midi": 64,
      "hit": false,
      "t": 432000,
      "d": 2000,
      "v": 80
    },
    {
      "midi": 45,
      "hit": false,
      "t": 432000,
      "d": 12000,
      "v": 80
    },
    {
      "midi": 88,
      "hit": false,
      "t": 432000,
      "d": 2000,
      "v": 80
    },
    {
      "midi": 57,
      "hit": false,
      "t": 434000,
      "d": 2000,
      "v": 80
    },
    {
      "midi": 86,
      "hit": false,
      "t": 434000,
      "d": 1000,
      "v": 80
    },
    {
      "midi": 88,
      "hit": false,
      "t": 435000,
      "d": 1000,
      "v": 80
    },
    {
      "midi": 57,
      "hit": false,
      "t": 436000,
      "d": 2000,
      "v": 80
    },
    {
      "midi": 61,
      "hit": false,
      "t": 436000,
      "d": 2000,
      "v": 80
    },
    {
      "midi": 64,
      "hit": false,
      "t": 436000,
      "d": 2000,
      "v": 80
    },
    {
      "midi": 86,
      "hit": false,
      "t": 436000,
      "d": 2000,
      "v": 80
    },
    {
      "midi": 57,
      "hit": false,
      "t": 438000,
      "d": 2000,
      "v": 80
    },
    {
      "midi": 85,
      "hit": false,
      "t": 438000,
      "d": 1000,
      "v": 80
    },
    {
      "midi": 86,
      "hit": false,
      "t": 439000,
      "d": 1000,
      "v": 80
    },
    {
      "midi": 57,
      "hit": false,
      "t": 440000,
      "d": 2000,
      "v": 80
    },
    {
      "midi": 61,
      "hit": false,
      "t": 440000,
      "d": 2000,
      "v": 80
    },
    {
      "midi": 64,
      "hit": false,
      "t": 440000,
      "d": 2000,
      "v": 80
    },
    {
      "midi": 85,
      "hit": false,
      "t": 440000,
      "d": 2000,
      "v": 80
    },
    {
      "midi": 57,
      "hit": false,
      "t": 442000,
      "d": 2000,
      "v": 80
    },
    {
      "midi": 83,
      "hit": false,
      "t": 442000,
      "d": 1000,
      "v": 80
    },
    {
      "midi": 85,
      "hit": false,
      "t": 443000,
      "d": 1000,
      "v": 80
    },
    {
      "midi": 59,
      "hit": false,
      "t": 444000,
      "d": 2000,
      "v": 80
    },
    {
      "midi": 62,
      "hit": false,
      "t": 444000,
      "d": 2000,
      "v": 80
    },
    {
      "midi": 67,
      "hit": false,
      "t": 444000,
      "d": 2000,
      "v": 80
    },
    {
      "midi": 47,
      "hit": false,
      "t": 444000,
      "d": 4000,
      "v": 80
    },
    {
      "midi": 83,
      "hit": false,
      "t": 444000,
      "d": 2000,
      "v": 80
    },
    {
      "midi": 59,
      "hit": false,
      "t": 446000,
      "d": 2000,
      "v": 80
    },
    {
      "midi": 69,
      "hit": false,
      "t": 446000,
      "d": 2000,
      "v": 80
    },
    {
      "midi": 79,
      "hit": false,
      "t": 446000,
      "d": 2000,
      "v": 80
    },
    {
      "midi": 59,
      "hit": false,
      "t": 448000,
      "d": 2000,
      "v": 80
    },
    {
      "midi": 62,
      "hit": false,
      "t": 448000,
      "d": 2000,
      "v": 80
    },
    {
      "midi": 67,
      "hit": false,
      "t": 448000,
      "d": 2000,
      "v": 80
    },
    {
      "midi": 43,
      "hit": false,
      "t": 448000,
      "d": 12000,
      "v": 80
    },
    {
      "midi": 86,
      "hit": false,
      "t": 448000,
      "d": 4000,
      "v": 80
    },
    {
      "midi": 55,
      "hit": false,
      "t": 450000,
      "d": 2000,
      "v": 80
    },
    {
      "midi": 59,
      "hit": false,
      "t": 452000,
      "d": 2000,
      "v": 80
    },
    {
      "midi": 62,
      "hit": false,
      "t": 452000,
      "d": 2000,
      "v": 80
    },
    {
      "midi": 67,
      "hit": false,
      "t": 452000,
      "d": 2000,
      "v": 80
    },
    {
      "midi": 85,
      "hit": false,
      "t": 452000,
      "d": 2000,
      "v": 80
    },
    {
      "midi": 55,
      "hit": false,
      "t": 454000,
      "d": 2000,
      "v": 80
    },
    {
      "midi": 86,
      "hit": false,
      "t": 454000,
      "d": 2000,
      "v": 80
    },
    {
      "midi": 59,
      "hit": false,
      "t": 456000,
      "d": 2000,
      "v": 80
    },
    {
      "midi": 62,
      "hit": false,
      "t": 456000,
      "d": 2000,
      "v": 80
    },
    {
      "midi": 67,
      "hit": false,
      "t": 456000,
      "d": 2000,
      "v": 80
    },
    {
      "midi": 83,
      "hit": false,
      "t": 456000,
      "d": 2000,
      "v": 80
    },
    {
      "midi": 55,
      "hit": false,
      "t": 458000,
      "d": 2000,
      "v": 80
    },
    {
      "midi": 79,
      "hit": false,
      "t": 458000,
      "d": 2000,
      "v": 80
    },
    {
      "midi": 59,
      "hit": false,
      "t": 460000,
      "d": 2000,
      "v": 80
    },
    {
      "midi": 62,
      "hit": false,
      "t": 460000,
      "d": 2000,
      "v": 80
    },
    {
      "midi": 67,
      "hit": false,
      "t": 460000,
      "d": 2000,
      "v": 80
    },
    {
      "midi": 43,
      "hit": false,
      "t": 460000,
      "d": 4000,
      "v": 80
    },
    {
      "midi": 74,
      "hit": false,
      "t": 460000,
      "d": 2000,
      "v": 80
    },
    {
      "midi": 55,
      "hit": false,
      "t": 462000,
      "d": 2000,
      "v": 80
    },
    {
      "midi": 66,
      "hit": false,
      "t": 462000,
      "d": 2000,
      "v": 80
    },
    {
      "midi": 86,
      "hit": false,
      "t": 462000,
      "d": 2000,
      "v": 80
    },
    {
      "midi": 57,
      "hit": false,
      "t": 464000,
      "d": 2000,
      "v": 80
    },
    {
      "midi": 62,
      "hit": false,
      "t": 464000,
      "d": 2000,
      "v": 80
    },
    {
      "midi": 66,
      "hit": false,
      "t": 464000,
      "d": 2000,
      "v": 80
    },
    {
      "midi": 50,
      "hit": false,
      "t": 464000,
      "d": 12000,
      "v": 80
    },
    {
      "midi": 54,
      "hit": false,
      "t": 466000,
      "d": 2000,
      "v": 80
    },
    {
      "midi": 85,
      "hit": false,
      "t": 466000,
      "d": 2000,
      "v": 80
    },
    {
      "midi": 57,
      "hit": false,
      "t": 468000,
      "d": 2000,
      "v": 80
    },
    {
      "midi": 62,
      "hit": false,
      "t": 468000,
      "d": 2000,
      "v": 80
    },
    {
      "midi": 66,
      "hit": false,
      "t": 468000,
      "d": 2000,
      "v": 80
    },
    {
      "midi": 86,
      "hit": false,
      "t": 468000,
      "d": 2000,
      "v": 80
    },
    {
      "midi": 54,
      "hit": false,
      "t": 470000,
      "d": 2000,
      "v": 80
    },
    {
      "midi": 81,
      "hit": false,
      "t": 470000,
      "d": 2000,
      "v": 80
    },
    {
      "midi": 57,
      "hit": false,
      "t": 472000,
      "d": 2000,
      "v": 80
    },
    {
      "midi": 62,
      "hit": false,
      "t": 472000,
      "d": 2000,
      "v": 80
    },
    {
      "midi": 66,
      "hit": false,
      "t": 472000,
      "d": 2000,
      "v": 80
    },
    {
      "midi": 78,
      "hit": false,
      "t": 472000,
      "d": 2000,
      "v": 80
    },
    {
      "midi": 54,
      "hit": false,
      "t": 474000,
      "d": 2000,
      "v": 80
    },
    {
      "midi": 74,
      "hit": false,
      "t": 474000,
      "d": 4000,
      "v": 80
    },
    {
      "midi": 57,
      "hit": false,
      "t": 476000,
      "d": 2000,
      "v": 80
    },
    {
      "midi": 62,
      "hit": false,
      "t": 476000,
      "d": 2000,
      "v": 80
    },
    {
      "midi": 66,
      "hit": false,
      "t": 476000,
      "d": 2000,
      "v": 80
    },
    {
      "midi": 50,
      "hit": false,
      "t": 476000,
      "d": 4000,
      "v": 80
    },
    {
      "midi": 54,
      "hit": false,
      "t": 478000,
      "d": 2000,
      "v": 80
    },
    {
      "midi": 67,
      "hit": false,
      "t": 478000,
      "d": 2000,
      "v": 80
    },
    {
      "midi": 88,
      "hit": false,
      "t": 478000,
      "d": 2000,
      "v": 80
    },
    {
      "midi": 57,
      "hit": false,
      "t": 480000,
      "d": 2000,
      "v": 80
    },
    {
      "midi": 61,
      "hit": false,
      "t": 480000,
      "d": 2000,
      "v": 80
    },
    {
      "midi": 64,
      "hit": false,
      "t": 480000,
      "d": 2000,
      "v": 80
    },
    {
      "midi": 45,
      "hit": false,
      "t": 480000,
      "d": 12000,
      "v": 80
    },
    {
      "midi": 57,
      "hit": false,
      "t": 482000,
      "d": 2000,
      "v": 80
    },
    {
      "midi": 57,
      "hit": false,
      "t": 484000,
      "d": 2000,
      "v": 80
    },
    {
      "midi": 61,
      "hit": false,
      "t": 484000,
      "d": 2000,
      "v": 80
    },
    {
      "midi": 64,
      "hit": false,
      "t": 484000,
      "d": 2000,
      "v": 80
    },
    {
      "midi": 57,
      "hit": false,
      "t": 486000,
      "d": 2000,
      "v": 80
    },
    {
      "midi": 57,
      "hit": false,
      "t": 488000,
      "d": 2000,
      "v": 80
    },
    {
      "midi": 61,
      "hit": false,
      "t": 488000,
      "d": 2000,
      "v": 80
    },
    {
      "midi": 64,
      "hit": false,
      "t": 488000,
      "d": 2000,
      "v": 80
    },
    {
      "midi": 57,
      "hit": false,
      "t": 490000,
      "d": 2000,
      "v": 80
    },
    {
      "midi": 57,
      "hit": false,
      "t": 492000,
      "d": 2000,
      "v": 80
    },
    {
      "midi": 61,
      "hit": false,
      "t": 492000,
      "d": 2000,
      "v": 80
    },
    {
      "midi": 64,
      "hit": false,
      "t": 492000,
      "d": 2000,
      "v": 80
    },
    {
      "midi": 45,
      "hit": false,
      "t": 492000,
      "d": 4000,
      "v": 80
    },
    {
      "midi": 57,
      "hit": false,
      "t": 494000,
      "d": 2000,
      "v": 80
    },
    {
      "midi": 62,
      "hit": false,
      "t": 494000,
      "d": 2000,
      "v": 80
    },
    {
      "midi": 57,
      "hit": false,
      "t": 496000,
      "d": 2000,
      "v": 80
    },
    {
      "midi": 61,
      "hit": false,
      "t": 496000,
      "d": 2000,
      "v": 80
    },
    {
      "midi": 64,
      "hit": false,
      "t": 496000,
      "d": 2000,
      "v": 80
    },
    {
      "midi": 45,
      "hit": false,
      "t": 496000,
      "d": 12000,
      "v": 80
    },
    {
      "midi": 88,
      "hit": false,
      "t": 496000,
      "d": 2000,
      "v": 80
    },
    {
      "midi": 57,
      "hit": false,
      "t": 498000,
      "d": 2000,
      "v": 80
    },
    {
      "midi": 86,
      "hit": false,
      "t": 498000,
      "d": 1000,
      "v": 80
    },
    {
      "midi": 88,
      "hit": false,
      "t": 499000,
      "d": 1000,
      "v": 80
    },
    {
      "midi": 57,
      "hit": false,
      "t": 500000,
      "d": 2000,
      "v": 80
    },
    {
      "midi": 61,
      "hit": false,
      "t": 500000,
      "d": 2000,
      "v": 80
    },
    {
      "midi": 64,
      "hit": false,
      "t": 500000,
      "d": 2000,
      "v": 80
    },
    {
      "midi": 86,
      "hit": false,
      "t": 500000,
      "d": 2000,
      "v": 80
    },
    {
      "midi": 57,
      "hit": false,
      "t": 502000,
      "d": 2000,
      "v": 80
    },
    {
      "midi": 85,
      "hit": false,
      "t": 502000,
      "d": 1000,
      "v": 80
    },
    {
      "midi": 86,
      "hit": false,
      "t": 503000,
      "d": 1000,
      "v": 80
    },
    {
      "midi": 57,
      "hit": false,
      "t": 504000,
      "d": 2000,
      "v": 80
    },
    {
      "midi": 61,
      "hit": false,
      "t": 504000,
      "d": 2000,
      "v": 80
    },
    {
      "midi": 64,
      "hit": false,
      "t": 504000,
      "d": 2000,
      "v": 80
    },
    {
      "midi": 85,
      "hit": false,
      "t": 504000,
      "d": 2000,
      "v": 80
    },
    {
      "midi": 57,
      "hit": false,
      "t": 506000,
      "d": 2000,
      "v": 80
    },
    {
      "midi": 83,
      "hit": false,
      "t": 506000,
      "d": 1000,
      "v": 80
    },
    {
      "midi": 85,
      "hit": false,
      "t": 507000,
      "d": 1000,
      "v": 80
    },
    {
      "midi": 59,
      "hit": false,
      "t": 508000,
      "d": 2000,
      "v": 80
    },
    {
      "midi": 62,
      "hit": false,
      "t": 508000,
      "d": 2000,
      "v": 80
    },
    {
      "midi": 67,
      "hit": false,
      "t": 508000,
      "d": 2000,
      "v": 80
    },
    {
      "midi": 47,
      "hit": false,
      "t": 508000,
      "d": 4000,
      "v": 80
    },
    {
      "midi": 83,
      "hit": false,
      "t": 508000,
      "d": 2000,
      "v": 80
    },
    {
      "midi": 59,
      "hit": false,
      "t": 510000,
      "d": 2000,
      "v": 80
    },
    {
      "midi": 69,
      "hit": false,
      "t": 510000,
      "d": 2000,
      "v": 80
    },
    {
      "midi": 79,
      "hit": false,
      "t": 510000,
      "d": 2000,
      "v": 80
    },
    {
      "midi": 59,
      "hit": false,
      "t": 512000,
      "d": 2000,
      "v": 80
    },
    {
      "midi": 62,
      "hit": false,
      "t": 512000,
      "d": 2000,
      "v": 80
    },
    {
      "midi": 67,
      "hit": false,
      "t": 512000,
      "d": 2000,
      "v": 80
    },
    {
      "midi": 43,
      "hit": false,
      "t": 512000,
      "d": 12000,
      "v": 80
    },
    {
      "midi": 55,
      "hit": false,
      "t": 514000,
      "d": 2000,
      "v": 80
    },
    {
      "midi": 59,
      "hit": false,
      "t": 516000,
      "d": 2000,
      "v": 80
    },
    {
      "midi": 62,
      "hit": false,
      "t": 516000,
      "d": 2000,
      "v": 80
    },
    {
      "midi": 67,
      "hit": false,
      "t": 516000,
      "d": 2000,
      "v": 80
    },
    {
      "midi": 55,
      "hit": false,
      "t": 518000,
      "d": 2000,
      "v": 80
    },
    {
      "midi": 59,
      "hit": false,
      "t": 520000,
      "d": 2000,
      "v": 80
    },
    {
      "midi": 62,
      "hit": false,
      "t": 520000,
      "d": 2000,
      "v": 80
    },
    {
      "midi": 67,
      "hit": false,
      "t": 520000,
      "d": 2000,
      "v": 80
    },
    {
      "midi": 55,
      "hit": false,
      "t": 522000,
      "d": 2000,
      "v": 80
    },
    {
      "midi": 59,
      "hit": false,
      "t": 524000,
      "d": 2000,
      "v": 80
    },
    {
      "midi": 62,
      "hit": false,
      "t": 524000,
      "d": 2000,
      "v": 80
    },
    {
      "midi": 67,
      "hit": false,
      "t": 524000,
      "d": 2000,
      "v": 80
    },
    {
      "midi": 43,
      "hit": false,
      "t": 524000,
      "d": 4000,
      "v": 80
    },
    {
      "midi": 55,
      "hit": false,
      "t": 526000,
      "d": 2000,
      "v": 80
    },
    {
      "midi": 66,
      "hit": false,
      "t": 526000,
      "d": 2000,
      "v": 80
    },
    {
      "midi": 57,
      "hit": false,
      "t": 528000,
      "d": 2000,
      "v": 80
    },
    {
      "midi": 62,
      "hit": false,
      "t": 528000,
      "d": 2000,
      "v": 80
    },
    {
      "midi": 66,
      "hit": false,
      "t": 528000,
      "d": 2000,
      "v": 80
    },
    {
      "midi": 50,
      "hit": false,
      "t": 528000,
      "d": 12000,
      "v": 80
    },
    {
      "midi": 54,
      "hit": false,
      "t": 530000,
      "d": 2000,
      "v": 80
    },
    {
      "midi": 57,
      "hit": false,
      "t": 532000,
      "d": 2000,
      "v": 80
    },
    {
      "midi": 62,
      "hit": false,
      "t": 532000,
      "d": 2000,
      "v": 80
    },
    {
      "midi": 66,
      "hit": false,
      "t": 532000,
      "d": 2000,
      "v": 80
    },
    {
      "midi": 54,
      "hit": false,
      "t": 534000,
      "d": 2000,
      "v": 80
    },
    {
      "midi": 57,
      "hit": false,
      "t": 536000,
      "d": 2000,
      "v": 80
    },
    {
      "midi": 62,
      "hit": false,
      "t": 536000,
      "d": 2000,
      "v": 80
    },
    {
      "midi": 66,
      "hit": false,
      "t": 536000,
      "d": 2000,
      "v": 80
    },
    {
      "midi": 54,
      "hit": false,
      "t": 538000,
      "d": 2000,
      "v": 80
    },
    {
      "midi": 57,
      "hit": false,
      "t": 540000,
      "d": 2000,
      "v": 80
    },
    {
      "midi": 62,
      "hit": false,
      "t": 540000,
      "d": 2000,
      "v": 80
    },
    {
      "midi": 66,
      "hit": false,
      "t": 540000,
      "d": 2000,
      "v": 80
    },
    {
      "midi": 50,
      "hit": false,
      "t": 540000,
      "d": 4000,
      "v": 80
    },
    {
      "midi": 54,
      "hit": false,
      "t": 542000,
      "d": 2000,
      "v": 80
    },
    {
      "midi": 67,
      "hit": false,
      "t": 542000,
      "d": 2000,
      "v": 80
    },
    {
      "midi": 57,
      "hit": false,
      "t": 544000,
      "d": 2000,
      "v": 80
    },
    {
      "midi": 61,
      "hit": false,
      "t": 544000,
      "d": 2000,
      "v": 80
    },
    {
      "midi": 64,
      "hit": false,
      "t": 544000,
      "d": 2000,
      "v": 80
    },
    {
      "midi": 45,
      "hit": false,
      "t": 544000,
      "d": 12000,
      "v": 80
    },
    {
      "midi": 57,
      "hit": false,
      "t": 546000,
      "d": 2000,
      "v": 80
    },
    {
      "midi": 57,
      "hit": false,
      "t": 548000,
      "d": 2000,
      "v": 80
    },
    {
      "midi": 61,
      "hit": false,
      "t": 548000,
      "d": 2000,
      "v": 80
    },
    {
      "midi": 64,
      "hit": false,
      "t": 548000,
      "d": 2000,
      "v": 80
    },
    {
      "midi": 57,
      "hit": false,
      "t": 550000,
      "d": 2000,
      "v": 80
    },
    {
      "midi": 57,
      "hit": false,
      "t": 552000,
      "d": 2000,
      "v": 80
    },
    {
      "midi": 61,
      "hit": false,
      "t": 552000,
      "d": 2000,
      "v": 80
    },
    {
      "midi": 64,
      "hit": false,
      "t": 552000,
      "d": 2000,
      "v": 80
    },
    {
      "midi": 57,
      "hit": false,
      "t": 554000,
      "d": 2000,
      "v": 80
    },
    {
      "midi": 57,
      "hit": false,
      "t": 556000,
      "d": 2000,
      "v": 80
    },
    {
      "midi": 61,
      "hit": false,
      "t": 556000,
      "d": 2000,
      "v": 80
    },
    {
      "midi": 64,
      "hit": false,
      "t": 556000,
      "d": 2000,
      "v": 80
    },
    {
      "midi": 45,
      "hit": false,
      "t": 556000,
      "d": 4000,
      "v": 80
    },
    {
      "midi": 57,
      "hit": false,
      "t": 558000,
      "d": 2000,
      "v": 80
    },
    {
      "midi": 62,
      "hit": false,
      "t": 558000,
      "d": 2000,
      "v": 80
    },
    {
      "midi": 57,
      "hit": false,
      "t": 560000,
      "d": 2000,
      "v": 80
    },
    {
      "midi": 61,
      "hit": false,
      "t": 560000,
      "d": 2000,
      "v": 80
    },
    {
      "midi": 64,
      "hit": false,
      "t": 560000,
      "d": 2000,
      "v": 80
    },
    {
      "midi": 45,
      "hit": false,
      "t": 560000,
      "d": 12000,
      "v": 80
    },
    {
      "midi": 57,
      "hit": false,
      "t": 562000,
      "d": 2000,
      "v": 80
    },
    {
      "midi": 57,
      "hit": false,
      "t": 564000,
      "d": 2000,
      "v": 80
    },
    {
      "midi": 61,
      "hit": false,
      "t": 564000,
      "d": 2000,
      "v": 80
    },
    {
      "midi": 64,
      "hit": false,
      "t": 564000,
      "d": 2000,
      "v": 80
    },
    {
      "midi": 57,
      "hit": false,
      "t": 566000,
      "d": 2000,
      "v": 80
    },
    {
      "midi": 57,
      "hit": false,
      "t": 568000,
      "d": 2000,
      "v": 80
    },
    {
      "midi": 61,
      "hit": false,
      "t": 568000,
      "d": 2000,
      "v": 80
    },
    {
      "midi": 64,
      "hit": false,
      "t": 568000,
      "d": 2000,
      "v": 80
    },
    {
      "midi": 57,
      "hit": false,
      "t": 570000,
      "d": 2000,
      "v": 80
    },
    {
      "midi": 59,
      "hit": false,
      "t": 572000,
      "d": 2000,
      "v": 80
    },
    {
      "midi": 62,
      "hit": false,
      "t": 572000,
      "d": 2000,
      "v": 80
    },
    {
      "midi": 67,
      "hit": false,
      "t": 572000,
      "d": 2000,
      "v": 80
    },
    {
      "midi": 47,
      "hit": false,
      "t": 572000,
      "d": 4000,
      "v": 80
    },
    {
      "midi": 59,
      "hit": false,
      "t": 574000,
      "d": 2000,
      "v": 80
    },
    {
      "midi": 69,
      "hit": false,
      "t": 574000,
      "d": 2000,
      "v": 80
    },
    {
      "midi": 59,
      "hit": false,
      "t": 576000,
      "d": 2000,
      "v": 80
    },
    {
      "midi": 62,
      "hit": false,
      "t": 576000,
      "d": 2000,
      "v": 80
    },
    {
      "midi": 67,
      "hit": false,
      "t": 576000,
      "d": 2000,
      "v": 80
    },
    {
      "midi": 43,
      "hit": false,
      "t": 576000,
      "d": 12000,
      "v": 80
    },
    {
      "midi": 55,
      "hit": false,
      "t": 578000,
      "d": 2000,
      "v": 80
    },
    {
      "midi": 59,
      "hit": false,
      "t": 580000,
      "d": 2000,
      "v": 80
    },
    {
      "midi": 62,
      "hit": false,
      "t": 580000,
      "d": 2000,
      "v": 80
    },
    {
      "midi": 67,
      "hit": false,
      "t": 580000,
      "d": 2000,
      "v": 80
    },
    {
      "midi": 55,
      "hit": false,
      "t": 582000,
      "d": 2000,
      "v": 80
    },
    {
      "midi": 59,
      "hit": false,
      "t": 584000,
      "d": 2000,
      "v": 80
    },
    {
      "midi": 62,
      "hit": false,
      "t": 584000,
      "d": 2000,
      "v": 80
    },
    {
      "midi": 67,
      "hit": false,
      "t": 584000,
      "d": 2000,
      "v": 80
    },
    {
      "midi": 55,
      "hit": false,
      "t": 586000,
      "d": 2000,
      "v": 80
    },
    {
      "midi": 59,
      "hit": false,
      "t": 588000,
      "d": 2000,
      "v": 80
    },
    {
      "midi": 62,
      "hit": false,
      "t": 588000,
      "d": 2000,
      "v": 80
    },
    {
      "midi": 67,
      "hit": false,
      "t": 588000,
      "d": 2000,
      "v": 80
    },
    {
      "midi": 43,
      "hit": false,
      "t": 588000,
      "d": 4000,
      "v": 80
    },
    {
      "midi": 55,
      "hit": false,
      "t": 590000,
      "d": 2000,
      "v": 80
    },
    {
      "midi": 66,
      "hit": false,
      "t": 590000,
      "d": 2000,
      "v": 80
    },
    {
      "midi": 57,
      "hit": false,
      "t": 592000,
      "d": 2000,
      "v": 80
    },
    {
      "midi": 62,
      "hit": false,
      "t": 592000,
      "d": 2000,
      "v": 80
    },
    {
      "midi": 66,
      "hit": false,
      "t": 592000,
      "d": 2000,
      "v": 80
    },
    {
      "midi": 50,
      "hit": false,
      "t": 592000,
      "d": 12000,
      "v": 80
    },
    {
      "midi": 54,
      "hit": false,
      "t": 594000,
      "d": 2000,
      "v": 80
    },
    {
      "midi": 57,
      "hit": false,
      "t": 596000,
      "d": 2000,
      "v": 80
    },
    {
      "midi": 62,
      "hit": false,
      "t": 596000,
      "d": 2000,
      "v": 80
    },
    {
      "midi": 66,
      "hit": false,
      "t": 596000,
      "d": 2000,
      "v": 80
    },
    {
      "midi": 54,
      "hit": false,
      "t": 598000,
      "d": 2000,
      "v": 80
    },
    {
      "midi": 57,
      "hit": false,
      "t": 600000,
      "d": 2000,
      "v": 80
    },
    {
      "midi": 62,
      "hit": false,
      "t": 600000,
      "d": 2000,
      "v": 80
    },
    {
      "midi": 66,
      "hit": false,
      "t": 600000,
      "d": 2000,
      "v": 80
    },
    {
      "midi": 54,
      "hit": false,
      "t": 602000,
      "d": 2000,
      "v": 80
    },
    {
      "midi": 57,
      "hit": false,
      "t": 604000,
      "d": 2000,
      "v": 80
    },
    {
      "midi": 62,
      "hit": false,
      "t": 604000,
      "d": 2000,
      "v": 80
    },
    {
      "midi": 66,
      "hit": false,
      "t": 604000,
      "d": 2000,
      "v": 80
    },
    {
      "midi": 50,
      "hit": false,
      "t": 604000,
      "d": 4000,
      "v": 80
    },
    {
      "midi": 54,
      "hit": false,
      "t": 606000,
      "d": 2000,
      "v": 80
    },
    {
      "midi": 67,
      "hit": false,
      "t": 606000,
      "d": 2000,
      "v": 80
    },
    {
      "midi": 57,
      "hit": false,
      "t": 608000,
      "d": 2000,
      "v": 80
    },
    {
      "midi": 61,
      "hit": false,
      "t": 608000,
      "d": 2000,
      "v": 80
    },
    {
      "midi": 64,
      "hit": false,
      "t": 608000,
      "d": 2000,
      "v": 80
    },
    {
      "midi": 45,
      "hit": false,
      "t": 608000,
      "d": 12000,
      "v": 80
    },
    {
      "midi": 57,
      "hit": false,
      "t": 610000,
      "d": 2000,
      "v": 80
    },
    {
      "midi": 57,
      "hit": false,
      "t": 612000,
      "d": 2000,
      "v": 80
    },
    {
      "midi": 61,
      "hit": false,
      "t": 612000,
      "d": 2000,
      "v": 80
    },
    {
      "midi": 64,
      "hit": false,
      "t": 612000,
      "d": 2000,
      "v": 80
    },
    {
      "midi": 57,
      "hit": false,
      "t": 614000,
      "d": 2000,
      "v": 80
    },
    {
      "midi": 57,
      "hit": false,
      "t": 616000,
      "d": 2000,
      "v": 80
    },
    {
      "midi": 61,
      "hit": false,
      "t": 616000,
      "d": 2000,
      "v": 80
    },
    {
      "midi": 64,
      "hit": false,
      "t": 616000,
      "d": 2000,
      "v": 80
    },
    {
      "midi": 57,
      "hit": false,
      "t": 618000,
      "d": 2000,
      "v": 80
    },
    {
      "midi": 57,
      "hit": false,
      "t": 620000,
      "d": 2000,
      "v": 80
    },
    {
      "midi": 61,
      "hit": false,
      "t": 620000,
      "d": 2000,
      "v": 80
    },
    {
      "midi": 64,
      "hit": false,
      "t": 620000,
      "d": 2000,
      "v": 80
    },
    {
      "midi": 45,
      "hit": false,
      "t": 620000,
      "d": 4000,
      "v": 80
    },
    {
      "midi": 57,
      "hit": false,
      "t": 622000,
      "d": 2000,
      "v": 80
    },
    {
      "midi": 62,
      "hit": false,
      "t": 622000,
      "d": 2000,
      "v": 80
    },
    {
      "midi": 57,
      "hit": false,
      "t": 624000,
      "d": 2000,
      "v": 80
    },
    {
      "midi": 61,
      "hit": false,
      "t": 624000,
      "d": 2000,
      "v": 80
    },
    {
      "midi": 64,
      "hit": false,
      "t": 624000,
      "d": 2000,
      "v": 80
    },
    {
      "midi": 45,
      "hit": false,
      "t": 624000,
      "d": 12000,
      "v": 80
    },
    {
      "midi": 57,
      "hit": false,
      "t": 626000,
      "d": 2000,
      "v": 80
    },
    {
      "midi": 57,
      "hit": false,
      "t": 628000,
      "d": 2000,
      "v": 80
    },
    {
      "midi": 61,
      "hit": false,
      "t": 628000,
      "d": 2000,
      "v": 80
    },
    {
      "midi": 64,
      "hit": false,
      "t": 628000,
      "d": 2000,
      "v": 80
    },
    {
      "midi": 57,
      "hit": false,
      "t": 630000,
      "d": 2000,
      "v": 80
    },
    {
      "midi": 57,
      "hit": false,
      "t": 632000,
      "d": 2000,
      "v": 80
    },
    {
      "midi": 61,
      "hit": false,
      "t": 632000,
      "d": 2000,
      "v": 80
    },
    {
      "midi": 64,
      "hit": false,
      "t": 632000,
      "d": 2000,
      "v": 80
    },
    {
      "midi": 57,
      "hit": false,
      "t": 634000,
      "d": 2000,
      "v": 80
    },
    {
      "midi": 59,
      "hit": false,
      "t": 636000,
      "d": 2000,
      "v": 80
    },
    {
      "midi": 62,
      "hit": false,
      "t": 636000,
      "d": 2000,
      "v": 80
    },
    {
      "midi": 67,
      "hit": false,
      "t": 636000,
      "d": 2000,
      "v": 80
    },
    {
      "midi": 47,
      "hit": false,
      "t": 636000,
      "d": 4000,
      "v": 80
    },
    {
      "midi": 59,
      "hit": false,
      "t": 638000,
      "d": 2000,
      "v": 80
    },
    {
      "midi": 69,
      "hit": false,
      "t": 638000,
      "d": 2000,
      "v": 80
    },
    {
      "midi": 59,
      "hit": false,
      "t": 640000,
      "d": 2000,
      "v": 80
    },
    {
      "midi": 62,
      "hit": false,
      "t": 640000,
      "d": 2000,
      "v": 80
    },
    {
      "midi": 67,
      "hit": false,
      "t": 640000,
      "d": 2000,
      "v": 80
    },
    {
      "midi": 43,
      "hit": false,
      "t": 640000,
      "d": 12000,
      "v": 80
    },
    {
      "midi": 55,
      "hit": false,
      "t": 642000,
      "d": 2000,
      "v": 80
    },
    {
      "midi": 59,
      "hit": false,
      "t": 644000,
      "d": 2000,
      "v": 80
    },
    {
      "midi": 62,
      "hit": false,
      "t": 644000,
      "d": 2000,
      "v": 80
    },
    {
      "midi": 67,
      "hit": false,
      "t": 644000,
      "d": 2000,
      "v": 80
    },
    {
      "midi": 55,
      "hit": false,
      "t": 646000,
      "d": 2000,
      "v": 80
    },
    {
      "midi": 59,
      "hit": false,
      "t": 648000,
      "d": 2000,
      "v": 80
    },
    {
      "midi": 62,
      "hit": false,
      "t": 648000,
      "d": 2000,
      "v": 80
    },
    {
      "midi": 67,
      "hit": false,
      "t": 648000,
      "d": 2000,
      "v": 80
    },
    {
      "midi": 55,
      "hit": false,
      "t": 650000,
      "d": 2000,
      "v": 80
    },
    {
      "midi": 59,
      "hit": false,
      "t": 652000,
      "d": 2000,
      "v": 80
    },
    {
      "midi": 62,
      "hit": false,
      "t": 652000,
      "d": 2000,
      "v": 80
    },
    {
      "midi": 67,
      "hit": false,
      "t": 652000,
      "d": 2000,
      "v": 80
    },
    {
      "midi": 43,
      "hit": false,
      "t": 652000,
      "d": 4000,
      "v": 80
    },
    {
      "midi": 55,
      "hit": false,
      "t": 654000,
      "d": 2000,
      "v": 80
    },
    {
      "midi": 66,
      "hit": false,
      "t": 654000,
      "d": 2000,
      "v": 80
    },
    {
      "midi": 57,
      "hit": false,
      "t": 656000,
      "d": 2000,
      "v": 80
    },
    {
      "midi": 62,
      "hit": false,
      "t": 656000,
      "d": 2000,
      "v": 80
    },
    {
      "midi": 66,
      "hit": false,
      "t": 656000,
      "d": 2000,
      "v": 80
    },
    {
      "midi": 50,
      "hit": false,
      "t": 656000,
      "d": 12000,
      "v": 80
    },
    {
      "midi": 54,
      "hit": false,
      "t": 658000,
      "d": 2000,
      "v": 80
    },
    {
      "midi": 57,
      "hit": false,
      "t": 660000,
      "d": 2000,
      "v": 80
    },
    {
      "midi": 62,
      "hit": false,
      "t": 660000,
      "d": 2000,
      "v": 80
    },
    {
      "midi": 66,
      "hit": false,
      "t": 660000,
      "d": 2000,
      "v": 80
    },
    {
      "midi": 54,
      "hit": false,
      "t": 662000,
      "d": 2000,
      "v": 80
    },
    {
      "midi": 57,
      "hit": false,
      "t": 664000,
      "d": 2000,
      "v": 80
    },
    {
      "midi": 62,
      "hit": false,
      "t": 664000,
      "d": 2000,
      "v": 80
    },
    {
      "midi": 66,
      "hit": false,
      "t": 664000,
      "d": 2000,
      "v": 80
    },
    {
      "midi": 54,
      "hit": false,
      "t": 666000,
      "d": 2000,
      "v": 80
    },
    {
      "midi": 57,
      "hit": false,
      "t": 668000,
      "d": 2000,
      "v": 80
    },
    {
      "midi": 62,
      "hit": false,
      "t": 668000,
      "d": 2000,
      "v": 80
    },
    {
      "midi": 66,
      "hit": false,
      "t": 668000,
      "d": 2000,
      "v": 80
    },
    {
      "midi": 50,
      "hit": false,
      "t": 668000,
      "d": 4000,
      "v": 80
    },
    {
      "midi": 54,
      "hit": false,
      "t": 670000,
      "d": 2000,
      "v": 80
    },
    {
      "midi": 67,
      "hit": false,
      "t": 670000,
      "d": 2000,
      "v": 80
    },
    {
      "midi": 57,
      "hit": false,
      "t": 672000,
      "d": 2000,
      "v": 80
    },
    {
      "midi": 61,
      "hit": false,
      "t": 672000,
      "d": 2000,
      "v": 80
    },
    {
      "midi": 64,
      "hit": false,
      "t": 672000,
      "d": 2000,
      "v": 80
    },
    {
      "midi": 45,
      "hit": false,
      "t": 672000,
      "d": 12000,
      "v": 80
    },
    {
      "midi": 57,
      "hit": false,
      "t": 674000,
      "d": 2000,
      "v": 80
    },
    {
      "midi": 57,
      "hit": false,
      "t": 676000,
      "d": 2000,
      "v": 80
    },
    {
      "midi": 61,
      "hit": false,
      "t": 676000,
      "d": 2000,
      "v": 80
    },
    {
      "midi": 64,
      "hit": false,
      "t": 676000,
      "d": 2000,
      "v": 80
    },
    {
      "midi": 57,
      "hit": false,
      "t": 678000,
      "d": 2000,
      "v": 80
    },
    {
      "midi": 57,
      "hit": false,
      "t": 680000,
      "d": 2000,
      "v": 80
    },
    {
      "midi": 61,
      "hit": false,
      "t": 680000,
      "d": 2000,
      "v": 80
    },
    {
      "midi": 64,
      "hit": false,
      "t": 680000,
      "d": 2000,
      "v": 80
    },
    {
      "midi": 57,
      "hit": false,
      "t": 682000,
      "d": 2000,
      "v": 80
    },
    {
      "midi": 57,
      "hit": false,
      "t": 684000,
      "d": 2000,
      "v": 80
    },
    {
      "midi": 61,
      "hit": false,
      "t": 684000,
      "d": 2000,
      "v": 80
    },
    {
      "midi": 64,
      "hit": false,
      "t": 684000,
      "d": 2000,
      "v": 80
    },
    {
      "midi": 45,
      "hit": false,
      "t": 684000,
      "d": 4000,
      "v": 80
    },
    {
      "midi": 57,
      "hit": false,
      "t": 686000,
      "d": 2000,
      "v": 80
    },
    {
      "midi": 62,
      "hit": false,
      "t": 686000,
      "d": 2000,
      "v": 80
    },
    {
      "midi": 57,
      "hit": false,
      "t": 688000,
      "d": 2000,
      "v": 80
    },
    {
      "midi": 61,
      "hit": false,
      "t": 688000,
      "d": 2000,
      "v": 80
    },
    {
      "midi": 64,
      "hit": false,
      "t": 688000,
      "d": 2000,
      "v": 80
    },
    {
      "midi": 45,
      "hit": false,
      "t": 688000,
      "d": 12000,
      "v": 80
    },
    {
      "midi": 57,
      "hit": false,
      "t": 690000,
      "d": 2000,
      "v": 80
    },
    {
      "midi": 57,
      "hit": false,
      "t": 692000,
      "d": 2000,
      "v": 80
    },
    {
      "midi": 61,
      "hit": false,
      "t": 692000,
      "d": 2000,
      "v": 80
    },
    {
      "midi": 64,
      "hit": false,
      "t": 692000,
      "d": 2000,
      "v": 80
    },
    {
      "midi": 57,
      "hit": false,
      "t": 694000,
      "d": 2000,
      "v": 80
    },
    {
      "midi": 57,
      "hit": false,
      "t": 696000,
      "d": 2000,
      "v": 80
    },
    {
      "midi": 61,
      "hit": false,
      "t": 696000,
      "d": 2000,
      "v": 80
    },
    {
      "midi": 64,
      "hit": false,
      "t": 696000,
      "d": 2000,
      "v": 80
    },
    {
      "midi": 57,
      "hit": false,
      "t": 698000,
      "d": 2000,
      "v": 80
    },
    {
      "midi": 59,
      "hit": false,
      "t": 700000,
      "d": 2000,
      "v": 80
    },
    {
      "midi": 62,
      "hit": false,
      "t": 700000,
      "d": 2000,
      "v": 80
    },
    {
      "midi": 67,
      "hit": false,
      "t": 700000,
      "d": 2000,
      "v": 80
    },
    {
      "midi": 47,
      "hit": false,
      "t": 700000,
      "d": 4000,
      "v": 80
    },
    {
      "midi": 59,
      "hit": false,
      "t": 702000,
      "d": 2000,
      "v": 80
    },
    {
      "midi": 69,
      "hit": false,
      "t": 702000,
      "d": 2000,
      "v": 80
    },
    {
      "midi": 59,
      "hit": false,
      "t": 704000,
      "d": 2000,
      "v": 80
    },
    {
      "midi": 62,
      "hit": false,
      "t": 704000,
      "d": 2000,
      "v": 80
    },
    {
      "midi": 67,
      "hit": false,
      "t": 704000,
      "d": 2000,
      "v": 80
    },
    {
      "midi": 43,
      "hit": false,
      "t": 704000,
      "d": 12000,
      "v": 80
    },
    {
      "midi": 55,
      "hit": false,
      "t": 706000,
      "d": 2000,
      "v": 80
    },
    {
      "midi": 59,
      "hit": false,
      "t": 708000,
      "d": 2000,
      "v": 80
    },
    {
      "midi": 62,
      "hit": false,
      "t": 708000,
      "d": 2000,
      "v": 80
    },
    {
      "midi": 67,
      "hit": false,
      "t": 708000,
      "d": 2000,
      "v": 80
    },
    {
      "midi": 55,
      "hit": false,
      "t": 710000,
      "d": 2000,
      "v": 80
    },
    {
      "midi": 59,
      "hit": false,
      "t": 712000,
      "d": 2000,
      "v": 80
    },
    {
      "midi": 62,
      "hit": false,
      "t": 712000,
      "d": 2000,
      "v": 80
    },
    {
      "midi": 67,
      "hit": false,
      "t": 712000,
      "d": 2000,
      "v": 80
    },
    {
      "midi": 55,
      "hit": false,
      "t": 714000,
      "d": 2000,
      "v": 80
    },
    {
      "midi": 59,
      "hit": false,
      "t": 716000,
      "d": 2000,
      "v": 80
    },
    {
      "midi": 62,
      "hit": false,
      "t": 716000,
      "d": 2000,
      "v": 80
    },
    {
      "midi": 67,
      "hit": false,
      "t": 716000,
      "d": 2000,
      "v": 80
    },
    {
      "midi": 43,
      "hit": false,
      "t": 716000,
      "d": 4000,
      "v": 80
    },
    {
      "midi": 55,
      "hit": false,
      "t": 718000,
      "d": 2000,
      "v": 80
    },
    {
      "midi": 66,
      "hit": false,
      "t": 718000,
      "d": 2000,
      "v": 80
    },
    {
      "midi": 57,
      "hit": false,
      "t": 720000,
      "d": 2000,
      "v": 80
    },
    {
      "midi": 62,
      "hit": false,
      "t": 720000,
      "d": 2000,
      "v": 80
    },
    {
      "midi": 66,
      "hit": false,
      "t": 720000,
      "d": 2000,
      "v": 80
    },
    {
      "midi": 50,
      "hit": false,
      "t": 720000,
      "d": 12000,
      "v": 80
    },
    {
      "midi": 54,
      "hit": false,
      "t": 722000,
      "d": 2000,
      "v": 80
    },
    {
      "midi": 57,
      "hit": false,
      "t": 724000,
      "d": 2000,
      "v": 80
    },
    {
      "midi": 62,
      "hit": false,
      "t": 724000,
      "d": 2000,
      "v": 80
    },
    {
      "midi": 66,
      "hit": false,
      "t": 724000,
      "d": 2000,
      "v": 80
    },
    {
      "midi": 54,
      "hit": false,
      "t": 726000,
      "d": 2000,
      "v": 80
    },
    {
      "midi": 57,
      "hit": false,
      "t": 728000,
      "d": 2000,
      "v": 80
    },
    {
      "midi": 62,
      "hit": false,
      "t": 728000,
      "d": 2000,
      "v": 80
    },
    {
      "midi": 66,
      "hit": false,
      "t": 728000,
      "d": 2000,
      "v": 80
    },
    {
      "midi": 54,
      "hit": false,
      "t": 730000,
      "d": 2000,
      "v": 80
    },
    {
      "midi": 57,
      "hit": false,
      "t": 732000,
      "d": 2000,
      "v": 80
    },
    {
      "midi": 62,
      "hit": false,
      "t": 732000,
      "d": 2000,
      "v": 80
    },
    {
      "midi": 66,
      "hit": false,
      "t": 732000,
      "d": 2000,
      "v": 80
    },
    {
      "midi": 50,
      "hit": false,
      "t": 732000,
      "d": 4000,
      "v": 80
    },
    {
      "midi": 54,
      "hit": false,
      "t": 734000,
      "d": 2000,
      "v": 80
    },
    {
      "midi": 67,
      "hit": false,
      "t": 734000,
      "d": 2000,
      "v": 80
    },
    {
      "midi": 57,
      "hit": false,
      "t": 736000,
      "d": 2000,
      "v": 80
    },
    {
      "midi": 61,
      "hit": false,
      "t": 736000,
      "d": 2000,
      "v": 80
    },
    {
      "midi": 64,
      "hit": false,
      "t": 736000,
      "d": 2000,
      "v": 80
    },
    {
      "midi": 45,
      "hit": false,
      "t": 736000,
      "d": 12000,
      "v": 80
    },
    {
      "midi": 57,
      "hit": false,
      "t": 738000,
      "d": 2000,
      "v": 80
    },
    {
      "midi": 57,
      "hit": false,
      "t": 740000,
      "d": 2000,
      "v": 80
    },
    {
      "midi": 61,
      "hit": false,
      "t": 740000,
      "d": 2000,
      "v": 80
    },
    {
      "midi": 64,
      "hit": false,
      "t": 740000,
      "d": 2000,
      "v": 80
    },
    {
      "midi": 57,
      "hit": false,
      "t": 742000,
      "d": 2000,
      "v": 80
    },
    {
      "midi": 57,
      "hit": false,
      "t": 744000,
      "d": 2000,
      "v": 80
    },
    {
      "midi": 61,
      "hit": false,
      "t": 744000,
      "d": 2000,
      "v": 80
    },
    {
      "midi": 64,
      "hit": false,
      "t": 744000,
      "d": 2000,
      "v": 80
    },
    {
      "midi": 57,
      "hit": false,
      "t": 746000,
      "d": 2000,
      "v": 80
    },
    {
      "midi": 57,
      "hit": false,
      "t": 748000,
      "d": 2000,
      "v": 80
    },
    {
      "midi": 61,
      "hit": false,
      "t": 748000,
      "d": 2000,
      "v": 80
    },
    {
      "midi": 64,
      "hit": false,
      "t": 748000,
      "d": 2000,
      "v": 80
    },
    {
      "midi": 45,
      "hit": false,
      "t": 748000,
      "d": 4000,
      "v": 80
    },
    {
      "midi": 57,
      "hit": false,
      "t": 750000,
      "d": 2000,
      "v": 80
    },
    {
      "midi": 62,
      "hit": false,
      "t": 750000,
      "d": 2000,
      "v": 80
    },
    {
      "midi": 57,
      "hit": false,
      "t": 752000,
      "d": 2000,
      "v": 80
    },
    {
      "midi": 61,
      "hit": false,
      "t": 752000,
      "d": 2000,
      "v": 80
    },
    {
      "midi": 64,
      "hit": false,
      "t": 752000,
      "d": 2000,
      "v": 80
    },
    {
      "midi": 45,
      "hit": false,
      "t": 752000,
      "d": 12000,
      "v": 80
    },
    {
      "midi": 57,
      "hit": false,
      "t": 754000,
      "d": 2000,
      "v": 80
    },
    {
      "midi": 57,
      "hit": false,
      "t": 756000,
      "d": 2000,
      "v": 80
    },
    {
      "midi": 61,
      "hit": false,
      "t": 756000,
      "d": 2000,
      "v": 80
    },
    {
      "midi": 64,
      "hit": false,
      "t": 756000,
      "d": 2000,
      "v": 80
    },
    {
      "midi": 57,
      "hit": false,
      "t": 758000,
      "d": 2000,
      "v": 80
    },
    {
      "midi": 57,
      "hit": false,
      "t": 760000,
      "d": 2000,
      "v": 80
    },
    {
      "midi": 61,
      "hit": false,
      "t": 760000,
      "d": 2000,
      "v": 80
    },
    {
      "midi": 64,
      "hit": false,
      "t": 760000,
      "d": 2000,
      "v": 80
    },
    {
      "midi": 57,
      "hit": false,
      "t": 762000,
      "d": 2000,
      "v": 80
    },
    {
      "midi": 59,
      "hit": false,
      "t": 764000,
      "d": 2000,
      "v": 80
    },
    {
      "midi": 62,
      "hit": false,
      "t": 764000,
      "d": 2000,
      "v": 80
    },
    {
      "midi": 67,
      "hit": false,
      "t": 764000,
      "d": 2000,
      "v": 80
    },
    {
      "midi": 47,
      "hit": false,
      "t": 764000,
      "d": 4000,
      "v": 80
    },
    {
      "midi": 59,
      "hit": false,
      "t": 766000,
      "d": 2000,
      "v": 80
    },
    {
      "midi": 69,
      "hit": false,
      "t": 766000,
      "d": 2000,
      "v": 80
    },
    {
      "midi": 59,
      "hit": false,
      "t": 768000,
      "d": 2000,
      "v": 80
    },
    {
      "midi": 62,
      "hit": false,
      "t": 768000,
      "d": 2000,
      "v": 80
    },
    {
      "midi": 67,
      "hit": false,
      "t": 768000,
      "d": 2000,
      "v": 80
    },
    {
      "midi": 43,
      "hit": false,
      "t": 768000,
      "d": 12000,
      "v": 80
    },
    {
      "midi": 86,
      "hit": false,
      "t": 768000,
      "d": 4000,
      "v": 80
    },
    {
      "midi": 55,
      "hit": false,
      "t": 770000,
      "d": 2000,
      "v": 80
    },
    {
      "midi": 59,
      "hit": false,
      "t": 772000,
      "d": 2000,
      "v": 80
    },
    {
      "midi": 62,
      "hit": false,
      "t": 772000,
      "d": 2000,
      "v": 80
    },
    {
      "midi": 67,
      "hit": false,
      "t": 772000,
      "d": 2000,
      "v": 80
    },
    {
      "midi": 85,
      "hit": false,
      "t": 772000,
      "d": 2000,
      "v": 80
    },
    {
      "midi": 55,
      "hit": false,
      "t": 774000,
      "d": 2000,
      "v": 80
    },
    {
      "midi": 86,
      "hit": false,
      "t": 774000,
      "d": 2000,
      "v": 80
    },
    {
      "midi": 59,
      "hit": false,
      "t": 776000,
      "d": 2000,
      "v": 80
    },
    {
      "midi": 62,
      "hit": false,
      "t": 776000,
      "d": 2000,
      "v": 80
    },
    {
      "midi": 67,
      "hit": false,
      "t": 776000,
      "d": 2000,
      "v": 80
    },
    {
      "midi": 83,
      "hit": false,
      "t": 776000,
      "d": 2000,
      "v": 80
    },
    {
      "midi": 55,
      "hit": false,
      "t": 778000,
      "d": 2000,
      "v": 80
    },
    {
      "midi": 79,
      "hit": false,
      "t": 778000,
      "d": 2000,
      "v": 80
    },
    {
      "midi": 59,
      "hit": false,
      "t": 780000,
      "d": 2000,
      "v": 80
    },
    {
      "midi": 62,
      "hit": false,
      "t": 780000,
      "d": 2000,
      "v": 80
    },
    {
      "midi": 67,
      "hit": false,
      "t": 780000,
      "d": 2000,
      "v": 80
    },
    {
      "midi": 43,
      "hit": false,
      "t": 780000,
      "d": 4000,
      "v": 80
    },
    {
      "midi": 74,
      "hit": false,
      "t": 780000,
      "d": 2000,
      "v": 80
    },
    {
      "midi": 55,
      "hit": false,
      "t": 782000,
      "d": 2000,
      "v": 80
    },
    {
      "midi": 66,
      "hit": false,
      "t": 782000,
      "d": 2000,
      "v": 80
    },
    {
      "midi": 86,
      "hit": false,
      "t": 782000,
      "d": 2000,
      "v": 80
    },
    {
      "midi": 57,
      "hit": false,
      "t": 784000,
      "d": 2000,
      "v": 80
    },
    {
      "midi": 62,
      "hit": false,
      "t": 784000,
      "d": 2000,
      "v": 80
    },
    {
      "midi": 66,
      "hit": false,
      "t": 784000,
      "d": 2000,
      "v": 80
    },
    {
      "midi": 50,
      "hit": false,
      "t": 784000,
      "d": 12000,
      "v": 80
    },
    {
      "midi": 54,
      "hit": false,
      "t": 786000,
      "d": 2000,
      "v": 80
    },
    {
      "midi": 85,
      "hit": false,
      "t": 786000,
      "d": 2000,
      "v": 80
    },
    {
      "midi": 57,
      "hit": false,
      "t": 788000,
      "d": 2000,
      "v": 80
    },
    {
      "midi": 62,
      "hit": false,
      "t": 788000,
      "d": 2000,
      "v": 80
    },
    {
      "midi": 66,
      "hit": false,
      "t": 788000,
      "d": 2000,
      "v": 80
    },
    {
      "midi": 86,
      "hit": false,
      "t": 788000,
      "d": 2000,
      "v": 80
    },
    {
      "midi": 54,
      "hit": false,
      "t": 790000,
      "d": 2000,
      "v": 80
    },
    {
      "midi": 81,
      "hit": false,
      "t": 790000,
      "d": 2000,
      "v": 80
    },
    {
      "midi": 57,
      "hit": false,
      "t": 792000,
      "d": 2000,
      "v": 80
    },
    {
      "midi": 62,
      "hit": false,
      "t": 792000,
      "d": 2000,
      "v": 80
    },
    {
      "midi": 66,
      "hit": false,
      "t": 792000,
      "d": 2000,
      "v": 80
    },
    {
      "midi": 78,
      "hit": false,
      "t": 792000,
      "d": 2000,
      "v": 80
    },
    {
      "midi": 54,
      "hit": false,
      "t": 794000,
      "d": 2000,
      "v": 80
    },
    {
      "midi": 74,
      "hit": false,
      "t": 794000,
      "d": 4000,
      "v": 80
    },
    {
      "midi": 57,
      "hit": false,
      "t": 796000,
      "d": 2000,
      "v": 80
    },
    {
      "midi": 62,
      "hit": false,
      "t": 796000,
      "d": 2000,
      "v": 80
    },
    {
      "midi": 66,
      "hit": false,
      "t": 796000,
      "d": 2000,
      "v": 80
    },
    {
      "midi": 50,
      "hit": false,
      "t": 796000,
      "d": 4000,
      "v": 80
    },
    {
      "midi": 54,
      "hit": false,
      "t": 798000,
      "d": 2000,
      "v": 80
    },
    {
      "midi": 67,
      "hit": false,
      "t": 798000,
      "d": 2000,
      "v": 80
    },
    {
      "midi": 88,
      "hit": false,
      "t": 798000,
      "d": 2000,
      "v": 80
    },
    {
      "midi": 57,
      "hit": false,
      "t": 800000,
      "d": 2000,
      "v": 80
    },
    {
      "midi": 61,
      "hit": false,
      "t": 800000,
      "d": 2000,
      "v": 80
    },
    {
      "midi": 64,
      "hit": false,
      "t": 800000,
      "d": 2000,
      "v": 80
    },
    {
      "midi": 45,
      "hit": false,
      "t": 800000,
      "d": 12000,
      "v": 80
    },
    {
      "midi": 57,
      "hit": false,
      "t": 802000,
      "d": 2000,
      "v": 80
    },
    {
      "midi": 57,
      "hit": false,
      "t": 804000,
      "d": 2000,
      "v": 80
    },
    {
      "midi": 61,
      "hit": false,
      "t": 804000,
      "d": 2000,
      "v": 80
    },
    {
      "midi": 64,
      "hit": false,
      "t": 804000,
      "d": 2000,
      "v": 80
    },
    {
      "midi": 57,
      "hit": false,
      "t": 806000,
      "d": 2000,
      "v": 80
    },
    {
      "midi": 57,
      "hit": false,
      "t": 808000,
      "d": 2000,
      "v": 80
    },
    {
      "midi": 61,
      "hit": false,
      "t": 808000,
      "d": 2000,
      "v": 80
    },
    {
      "midi": 64,
      "hit": false,
      "t": 808000,
      "d": 2000,
      "v": 80
    },
    {
      "midi": 57,
      "hit": false,
      "t": 810000,
      "d": 2000,
      "v": 80
    },
    {
      "midi": 57,
      "hit": false,
      "t": 812000,
      "d": 2000,
      "v": 80
    },
    {
      "midi": 61,
      "hit": false,
      "t": 812000,
      "d": 2000,
      "v": 80
    },
    {
      "midi": 64,
      "hit": false,
      "t": 812000,
      "d": 2000,
      "v": 80
    },
    {
      "midi": 45,
      "hit": false,
      "t": 812000,
      "d": 4000,
      "v": 80
    },
    {
      "midi": 57,
      "hit": false,
      "t": 814000,
      "d": 2000,
      "v": 80
    },
    {
      "midi": 62,
      "hit": false,
      "t": 814000,
      "d": 2000,
      "v": 80
    },
    {
      "midi": 57,
      "hit": false,
      "t": 816000,
      "d": 2000,
      "v": 80
    },
    {
      "midi": 61,
      "hit": false,
      "t": 816000,
      "d": 2000,
      "v": 80
    },
    {
      "midi": 64,
      "hit": false,
      "t": 816000,
      "d": 2000,
      "v": 80
    },
    {
      "midi": 45,
      "hit": false,
      "t": 816000,
      "d": 12000,
      "v": 80
    },
    {
      "midi": 88,
      "hit": false,
      "t": 816000,
      "d": 2000,
      "v": 80
    },
    {
      "midi": 57,
      "hit": false,
      "t": 818000,
      "d": 2000,
      "v": 80
    },
    {
      "midi": 86,
      "hit": false,
      "t": 818000,
      "d": 1000,
      "v": 80
    },
    {
      "midi": 88,
      "hit": false,
      "t": 819000,
      "d": 1000,
      "v": 80
    },
    {
      "midi": 57,
      "hit": false,
      "t": 820000,
      "d": 2000,
      "v": 80
    },
    {
      "midi": 61,
      "hit": false,
      "t": 820000,
      "d": 2000,
      "v": 80
    },
    {
      "midi": 64,
      "hit": false,
      "t": 820000,
      "d": 2000,
      "v": 80
    },
    {
      "midi": 86,
      "hit": false,
      "t": 820000,
      "d": 2000,
      "v": 80
    },
    {
      "midi": 57,
      "hit": false,
      "t": 822000,
      "d": 2000,
      "v": 80
    },
    {
      "midi": 85,
      "hit": false,
      "t": 822000,
      "d": 1000,
      "v": 80
    },
    {
      "midi": 86,
      "hit": false,
      "t": 823000,
      "d": 1000,
      "v": 80
    },
    {
      "midi": 57,
      "hit": false,
      "t": 824000,
      "d": 2000,
      "v": 80
    },
    {
      "midi": 61,
      "hit": false,
      "t": 824000,
      "d": 2000,
      "v": 80
    },
    {
      "midi": 64,
      "hit": false,
      "t": 824000,
      "d": 2000,
      "v": 80
    },
    {
      "midi": 85,
      "hit": false,
      "t": 824000,
      "d": 2000,
      "v": 80
    },
    {
      "midi": 57,
      "hit": false,
      "t": 826000,
      "d": 2000,
      "v": 80
    },
    {
      "midi": 83,
      "hit": false,
      "t": 826000,
      "d": 1000,
      "v": 80
    },
    {
      "midi": 85,
      "hit": false,
      "t": 827000,
      "d": 1000,
      "v": 80
    },
    {
      "midi": 59,
      "hit": false,
      "t": 828000,
      "d": 2000,
      "v": 80
    },
    {
      "midi": 62,
      "hit": false,
      "t": 828000,
      "d": 2000,
      "v": 80
    },
    {
      "midi": 67,
      "hit": false,
      "t": 828000,
      "d": 2000,
      "v": 80
    },
    {
      "midi": 47,
      "hit": false,
      "t": 828000,
      "d": 4000,
      "v": 80
    },
    {
      "midi": 83,
      "hit": false,
      "t": 828000,
      "d": 2000,
      "v": 80
    },
    {
      "midi": 59,
      "hit": false,
      "t": 830000,
      "d": 2000,
      "v": 80
    },
    {
      "midi": 69,
      "hit": false,
      "t": 830000,
      "d": 2000,
      "v": 80
    },
    {
      "midi": 79,
      "hit": false,
      "t": 830000,
      "d": 2000,
      "v": 80
    },
    {
      "midi": 59,
      "hit": false,
      "t": 832000,
      "d": 2000,
      "v": 80
    },
    {
      "midi": 62,
      "hit": false,
      "t": 832000,
      "d": 2000,
      "v": 80
    },
    {
      "midi": 67,
      "hit": false,
      "t": 832000,
      "d": 2000,
      "v": 80
    },
    {
      "midi": 43,
      "hit": false,
      "t": 832000,
      "d": 12000,
      "v": 80
    },
    {
      "midi": 86,
      "hit": false,
      "t": 832000,
      "d": 4000,
      "v": 80
    },
    {
      "midi": 55,
      "hit": false,
      "t": 834000,
      "d": 2000,
      "v": 80
    },
    {
      "midi": 59,
      "hit": false,
      "t": 836000,
      "d": 2000,
      "v": 80
    },
    {
      "midi": 62,
      "hit": false,
      "t": 836000,
      "d": 2000,
      "v": 80
    },
    {
      "midi": 67,
      "hit": false,
      "t": 836000,
      "d": 2000,
      "v": 80
    },
    {
      "midi": 85,
      "hit": false,
      "t": 836000,
      "d": 2000,
      "v": 80
    },
    {
      "midi": 55,
      "hit": false,
      "t": 838000,
      "d": 2000,
      "v": 80
    },
    {
      "midi": 86,
      "hit": false,
      "t": 838000,
      "d": 2000,
      "v": 80
    },
    {
      "midi": 59,
      "hit": false,
      "t": 840000,
      "d": 2000,
      "v": 80
    },
    {
      "midi": 62,
      "hit": false,
      "t": 840000,
      "d": 2000,
      "v": 80
    },
    {
      "midi": 67,
      "hit": false,
      "t": 840000,
      "d": 2000,
      "v": 80
    },
    {
      "midi": 83,
      "hit": false,
      "t": 840000,
      "d": 2000,
      "v": 80
    },
    {
      "midi": 55,
      "hit": false,
      "t": 842000,
      "d": 2000,
      "v": 80
    },
    {
      "midi": 79,
      "hit": false,
      "t": 842000,
      "d": 2000,
      "v": 80
    },
    {
      "midi": 59,
      "hit": false,
      "t": 844000,
      "d": 2000,
      "v": 80
    },
    {
      "midi": 62,
      "hit": false,
      "t": 844000,
      "d": 2000,
      "v": 80
    },
    {
      "midi": 67,
      "hit": false,
      "t": 844000,
      "d": 2000,
      "v": 80
    },
    {
      "midi": 43,
      "hit": false,
      "t": 844000,
      "d": 4000,
      "v": 80
    },
    {
      "midi": 74,
      "hit": false,
      "t": 844000,
      "d": 2000,
      "v": 80
    },
    {
      "midi": 55,
      "hit": false,
      "t": 846000,
      "d": 2000,
      "v": 80
    },
    {
      "midi": 66,
      "hit": false,
      "t": 846000,
      "d": 2000,
      "v": 80
    },
    {
      "midi": 86,
      "hit": false,
      "t": 846000,
      "d": 2000,
      "v": 80
    },
    {
      "midi": 57,
      "hit": false,
      "t": 848000,
      "d": 2000,
      "v": 80
    },
    {
      "midi": 62,
      "hit": false,
      "t": 848000,
      "d": 2000,
      "v": 80
    },
    {
      "midi": 66,
      "hit": false,
      "t": 848000,
      "d": 2000,
      "v": 80
    },
    {
      "midi": 50,
      "hit": false,
      "t": 848000,
      "d": 12000,
      "v": 80
    },
    {
      "midi": 54,
      "hit": false,
      "t": 850000,
      "d": 2000,
      "v": 80
    },
    {
      "midi": 85,
      "hit": false,
      "t": 850000,
      "d": 2000,
      "v": 80
    },
    {
      "midi": 57,
      "hit": false,
      "t": 852000,
      "d": 2000,
      "v": 80
    },
    {
      "midi": 62,
      "hit": false,
      "t": 852000,
      "d": 2000,
      "v": 80
    },
    {
      "midi": 66,
      "hit": false,
      "t": 852000,
      "d": 2000,
      "v": 80
    },
    {
      "midi": 86,
      "hit": false,
      "t": 852000,
      "d": 2000,
      "v": 80
    },
    {
      "midi": 54,
      "hit": false,
      "t": 854000,
      "d": 2000,
      "v": 80
    },
    {
      "midi": 81,
      "hit": false,
      "t": 854000,
      "d": 2000,
      "v": 80
    },
    {
      "midi": 57,
      "hit": false,
      "t": 856000,
      "d": 2000,
      "v": 80
    },
    {
      "midi": 62,
      "hit": false,
      "t": 856000,
      "d": 2000,
      "v": 80
    },
    {
      "midi": 66,
      "hit": false,
      "t": 856000,
      "d": 2000,
      "v": 80
    },
    {
      "midi": 78,
      "hit": false,
      "t": 856000,
      "d": 2000,
      "v": 80
    },
    {
      "midi": 54,
      "hit": false,
      "t": 858000,
      "d": 2000,
      "v": 80
    },
    {
      "midi": 74,
      "hit": false,
      "t": 858000,
      "d": 4000,
      "v": 80
    },
    {
      "midi": 57,
      "hit": false,
      "t": 860000,
      "d": 2000,
      "v": 80
    },
    {
      "midi": 62,
      "hit": false,
      "t": 860000,
      "d": 2000,
      "v": 80
    },
    {
      "midi": 66,
      "hit": false,
      "t": 860000,
      "d": 2000,
      "v": 80
    },
    {
      "midi": 50,
      "hit": false,
      "t": 860000,
      "d": 4000,
      "v": 80
    },
    {
      "midi": 54,
      "hit": false,
      "t": 862000,
      "d": 2000,
      "v": 80
    },
    {
      "midi": 67,
      "hit": false,
      "t": 862000,
      "d": 2000,
      "v": 80
    },
    {
      "midi": 88,
      "hit": false,
      "t": 862000,
      "d": 2000,
      "v": 80
    },
    {
      "midi": 57,
      "hit": false,
      "t": 864000,
      "d": 2000,
      "v": 80
    },
    {
      "midi": 61,
      "hit": false,
      "t": 864000,
      "d": 2000,
      "v": 80
    },
    {
      "midi": 64,
      "hit": false,
      "t": 864000,
      "d": 2000,
      "v": 80
    },
    {
      "midi": 45,
      "hit": false,
      "t": 864000,
      "d": 12000,
      "v": 80
    },
    {
      "midi": 57,
      "hit": false,
      "t": 866000,
      "d": 2000,
      "v": 80
    },
    {
      "midi": 57,
      "hit": false,
      "t": 868000,
      "d": 2000,
      "v": 80
    },
    {
      "midi": 61,
      "hit": false,
      "t": 868000,
      "d": 2000,
      "v": 80
    },
    {
      "midi": 64,
      "hit": false,
      "t": 868000,
      "d": 2000,
      "v": 80
    },
    {
      "midi": 57,
      "hit": false,
      "t": 870000,
      "d": 2000,
      "v": 80
    },
    {
      "midi": 57,
      "hit": false,
      "t": 872000,
      "d": 2000,
      "v": 80
    },
    {
      "midi": 61,
      "hit": false,
      "t": 872000,
      "d": 2000,
      "v": 80
    },
    {
      "midi": 64,
      "hit": false,
      "t": 872000,
      "d": 2000,
      "v": 80
    },
    {
      "midi": 57,
      "hit": false,
      "t": 874000,
      "d": 2000,
      "v": 80
    },
    {
      "midi": 57,
      "hit": false,
      "t": 876000,
      "d": 2000,
      "v": 80
    },
    {
      "midi": 61,
      "hit": false,
      "t": 876000,
      "d": 2000,
      "v": 80
    },
    {
      "midi": 64,
      "hit": false,
      "t": 876000,
      "d": 2000,
      "v": 80
    },
    {
      "midi": 45,
      "hit": false,
      "t": 876000,
      "d": 4000,
      "v": 80
    },
    {
      "midi": 57,
      "hit": false,
      "t": 878000,
      "d": 2000,
      "v": 80
    },
    {
      "midi": 62,
      "hit": false,
      "t": 878000,
      "d": 2000,
      "v": 80
    },
    {
      "midi": 57,
      "hit": false,
      "t": 880000,
      "d": 2000,
      "v": 80
    },
    {
      "midi": 61,
      "hit": false,
      "t": 880000,
      "d": 2000,
      "v": 80
    },
    {
      "midi": 64,
      "hit": false,
      "t": 880000,
      "d": 2000,
      "v": 80
    },
    {
      "midi": 45,
      "hit": false,
      "t": 880000,
      "d": 12000,
      "v": 80
    },
    {
      "midi": 88,
      "hit": false,
      "t": 880000,
      "d": 2000,
      "v": 80
    },
    {
      "midi": 57,
      "hit": false,
      "t": 882000,
      "d": 2000,
      "v": 80
    },
    {
      "midi": 86,
      "hit": false,
      "t": 882000,
      "d": 1000,
      "v": 80
    },
    {
      "midi": 88,
      "hit": false,
      "t": 883000,
      "d": 1000,
      "v": 80
    },
    {
      "midi": 57,
      "hit": false,
      "t": 884000,
      "d": 2000,
      "v": 80
    },
    {
      "midi": 61,
      "hit": false,
      "t": 884000,
      "d": 2000,
      "v": 80
    },
    {
      "midi": 64,
      "hit": false,
      "t": 884000,
      "d": 2000,
      "v": 80
    },
    {
      "midi": 86,
      "hit": false,
      "t": 884000,
      "d": 2000,
      "v": 80
    },
    {
      "midi": 57,
      "hit": false,
      "t": 886000,
      "d": 2000,
      "v": 80
    },
    {
      "midi": 85,
      "hit": false,
      "t": 886000,
      "d": 1000,
      "v": 80
    },
    {
      "midi": 86,
      "hit": false,
      "t": 887000,
      "d": 1000,
      "v": 80
    },
    {
      "midi": 57,
      "hit": false,
      "t": 888000,
      "d": 2000,
      "v": 80
    },
    {
      "midi": 61,
      "hit": false,
      "t": 888000,
      "d": 2000,
      "v": 80
    },
    {
      "midi": 64,
      "hit": false,
      "t": 888000,
      "d": 2000,
      "v": 80
    },
    {
      "midi": 85,
      "hit": false,
      "t": 888000,
      "d": 2000,
      "v": 80
    },
    {
      "midi": 57,
      "hit": false,
      "t": 890000,
      "d": 2000,
      "v": 80
    },
    {
      "midi": 83,
      "hit": false,
      "t": 890000,
      "d": 1000,
      "v": 80
    },
    {
      "midi": 85,
      "hit": false,
      "t": 891000,
      "d": 1000,
      "v": 80
    },
    {
      "midi": 59,
      "hit": false,
      "t": 892000,
      "d": 2000,
      "v": 80
    },
    {
      "midi": 62,
      "hit": false,
      "t": 892000,
      "d": 2000,
      "v": 80
    },
    {
      "midi": 67,
      "hit": false,
      "t": 892000,
      "d": 2000,
      "v": 80
    },
    {
      "midi": 47,
      "hit": false,
      "t": 892000,
      "d": 4000,
      "v": 80
    },
    {
      "midi": 83,
      "hit": false,
      "t": 892000,
      "d": 2000,
      "v": 80
    },
    {
      "midi": 59,
      "hit": false,
      "t": 894000,
      "d": 2000,
      "v": 80
    },
    {
      "midi": 69,
      "hit": false,
      "t": 894000,
      "d": 2000,
      "v": 80
    },
    {
      "midi": 79,
      "hit": false,
      "t": 894000,
      "d": 2000,
      "v": 80
    },
    {
      "midi": 59,
      "hit": false,
      "t": 896000,
      "d": 2000,
      "v": 80
    },
    {
      "midi": 62,
      "hit": false,
      "t": 896000,
      "d": 2000,
      "v": 80
    },
    {
      "midi": 67,
      "hit": false,
      "t": 896000,
      "d": 2000,
      "v": 80
    },
    {
      "midi": 43,
      "hit": false,
      "t": 896000,
      "d": 12000,
      "v": 80
    },
    {
      "midi": 86,
      "hit": false,
      "t": 896000,
      "d": 4000,
      "v": 80
    },
    {
      "midi": 55,
      "hit": false,
      "t": 898000,
      "d": 2000,
      "v": 80
    },
    {
      "midi": 59,
      "hit": false,
      "t": 900000,
      "d": 2000,
      "v": 80
    },
    {
      "midi": 62,
      "hit": false,
      "t": 900000,
      "d": 2000,
      "v": 80
    },
    {
      "midi": 67,
      "hit": false,
      "t": 900000,
      "d": 2000,
      "v": 80
    },
    {
      "midi": 85,
      "hit": false,
      "t": 900000,
      "d": 2000,
      "v": 80
    },
    {
      "midi": 55,
      "hit": false,
      "t": 902000,
      "d": 2000,
      "v": 80
    },
    {
      "midi": 86,
      "hit": false,
      "t": 902000,
      "d": 2000,
      "v": 80
    },
    {
      "midi": 59,
      "hit": false,
      "t": 904000,
      "d": 2000,
      "v": 80
    },
    {
      "midi": 62,
      "hit": false,
      "t": 904000,
      "d": 2000,
      "v": 80
    },
    {
      "midi": 67,
      "hit": false,
      "t": 904000,
      "d": 2000,
      "v": 80
    },
    {
      "midi": 83,
      "hit": false,
      "t": 904000,
      "d": 2000,
      "v": 80
    },
    {
      "midi": 55,
      "hit": false,
      "t": 906000,
      "d": 2000,
      "v": 80
    },
    {
      "midi": 79,
      "hit": false,
      "t": 906000,
      "d": 2000,
      "v": 80
    },
    {
      "midi": 59,
      "hit": false,
      "t": 908000,
      "d": 2000,
      "v": 80
    },
    {
      "midi": 62,
      "hit": false,
      "t": 908000,
      "d": 2000,
      "v": 80
    },
    {
      "midi": 67,
      "hit": false,
      "t": 908000,
      "d": 2000,
      "v": 80
    },
    {
      "midi": 43,
      "hit": false,
      "t": 908000,
      "d": 4000,
      "v": 80
    },
    {
      "midi": 74,
      "hit": false,
      "t": 908000,
      "d": 2000,
      "v": 80
    },
    {
      "midi": 55,
      "hit": false,
      "t": 910000,
      "d": 2000,
      "v": 80
    },
    {
      "midi": 66,
      "hit": false,
      "t": 910000,
      "d": 2000,
      "v": 80
    },
    {
      "midi": 86,
      "hit": false,
      "t": 910000,
      "d": 2000,
      "v": 80
    },
    {
      "midi": 57,
      "hit": false,
      "t": 912000,
      "d": 2000,
      "v": 80
    },
    {
      "midi": 62,
      "hit": false,
      "t": 912000,
      "d": 2000,
      "v": 80
    },
    {
      "midi": 66,
      "hit": false,
      "t": 912000,
      "d": 2000,
      "v": 80
    },
    {
      "midi": 50,
      "hit": false,
      "t": 912000,
      "d": 12000,
      "v": 80
    },
    {
      "midi": 54,
      "hit": false,
      "t": 914000,
      "d": 2000,
      "v": 80
    },
    {
      "midi": 85,
      "hit": false,
      "t": 914000,
      "d": 2000,
      "v": 80
    },
    {
      "midi": 57,
      "hit": false,
      "t": 916000,
      "d": 2000,
      "v": 80
    },
    {
      "midi": 62,
      "hit": false,
      "t": 916000,
      "d": 2000,
      "v": 80
    },
    {
      "midi": 66,
      "hit": false,
      "t": 916000,
      "d": 2000,
      "v": 80
    },
    {
      "midi": 86,
      "hit": false,
      "t": 916000,
      "d": 2000,
      "v": 80
    },
    {
      "midi": 54,
      "hit": false,
      "t": 918000,
      "d": 2000,
      "v": 80
    },
    {
      "midi": 81,
      "hit": false,
      "t": 918000,
      "d": 2000,
      "v": 80
    },
    {
      "midi": 57,
      "hit": false,
      "t": 920000,
      "d": 2000,
      "v": 80
    },
    {
      "midi": 62,
      "hit": false,
      "t": 920000,
      "d": 2000,
      "v": 80
    },
    {
      "midi": 66,
      "hit": false,
      "t": 920000,
      "d": 2000,
      "v": 80
    },
    {
      "midi": 78,
      "hit": false,
      "t": 920000,
      "d": 2000,
      "v": 80
    },
    {
      "midi": 54,
      "hit": false,
      "t": 922000,
      "d": 2000,
      "v": 80
    },
    {
      "midi": 74,
      "hit": false,
      "t": 922000,
      "d": 4000,
      "v": 80
    },
    {
      "midi": 57,
      "hit": false,
      "t": 924000,
      "d": 2000,
      "v": 80
    },
    {
      "midi": 62,
      "hit": false,
      "t": 924000,
      "d": 2000,
      "v": 80
    },
    {
      "midi": 66,
      "hit": false,
      "t": 924000,
      "d": 2000,
      "v": 80
    },
    {
      "midi": 50,
      "hit": false,
      "t": 924000,
      "d": 4000,
      "v": 80
    },
    {
      "midi": 54,
      "hit": false,
      "t": 926000,
      "d": 2000,
      "v": 80
    },
    {
      "midi": 67,
      "hit": false,
      "t": 926000,
      "d": 2000,
      "v": 80
    },
    {
      "midi": 88,
      "hit": false,
      "t": 926000,
      "d": 2000,
      "v": 80
    },
    {
      "midi": 57,
      "hit": false,
      "t": 928000,
      "d": 2000,
      "v": 80
    },
    {
      "midi": 61,
      "hit": false,
      "t": 928000,
      "d": 2000,
      "v": 80
    },
    {
      "midi": 64,
      "hit": false,
      "t": 928000,
      "d": 2000,
      "v": 80
    },
    {
      "midi": 45,
      "hit": false,
      "t": 928000,
      "d": 12000,
      "v": 80
    },
    {
      "midi": 57,
      "hit": false,
      "t": 930000,
      "d": 2000,
      "v": 80
    },
    {
      "midi": 57,
      "hit": false,
      "t": 932000,
      "d": 2000,
      "v": 80
    },
    {
      "midi": 61,
      "hit": false,
      "t": 932000,
      "d": 2000,
      "v": 80
    },
    {
      "midi": 64,
      "hit": false,
      "t": 932000,
      "d": 2000,
      "v": 80
    },
    {
      "midi": 57,
      "hit": false,
      "t": 934000,
      "d": 2000,
      "v": 80
    },
    {
      "midi": 57,
      "hit": false,
      "t": 936000,
      "d": 2000,
      "v": 80
    },
    {
      "midi": 61,
      "hit": false,
      "t": 936000,
      "d": 2000,
      "v": 80
    },
    {
      "midi": 64,
      "hit": false,
      "t": 936000,
      "d": 2000,
      "v": 80
    },
    {
      "midi": 57,
      "hit": false,
      "t": 938000,
      "d": 2000,
      "v": 80
    },
    {
      "midi": 57,
      "hit": false,
      "t": 940000,
      "d": 2000,
      "v": 80
    },
    {
      "midi": 61,
      "hit": false,
      "t": 940000,
      "d": 2000,
      "v": 80
    },
    {
      "midi": 64,
      "hit": false,
      "t": 940000,
      "d": 2000,
      "v": 80
    },
    {
      "midi": 45,
      "hit": false,
      "t": 940000,
      "d": 4000,
      "v": 80
    },
    {
      "midi": 57,
      "hit": false,
      "t": 942000,
      "d": 2000,
      "v": 80
    },
    {
      "midi": 62,
      "hit": false,
      "t": 942000,
      "d": 2000,
      "v": 80
    },
    {
      "midi": 57,
      "hit": false,
      "t": 944000,
      "d": 2000,
      "v": 80
    },
    {
      "midi": 61,
      "hit": false,
      "t": 944000,
      "d": 2000,
      "v": 80
    },
    {
      "midi": 64,
      "hit": false,
      "t": 944000,
      "d": 2000,
      "v": 80
    },
    {
      "midi": 45,
      "hit": false,
      "t": 944000,
      "d": 12000,
      "v": 80
    },
    {
      "midi": 88,
      "hit": false,
      "t": 944000,
      "d": 2000,
      "v": 80
    },
    {
      "midi": 57,
      "hit": false,
      "t": 946000,
      "d": 2000,
      "v": 80
    },
    {
      "midi": 86,
      "hit": false,
      "t": 946000,
      "d": 1000,
      "v": 80
    },
    {
      "midi": 88,
      "hit": false,
      "t": 947000,
      "d": 1000,
      "v": 80
    },
    {
      "midi": 57,
      "hit": false,
      "t": 948000,
      "d": 2000,
      "v": 80
    },
    {
      "midi": 61,
      "hit": false,
      "t": 948000,
      "d": 2000,
      "v": 80
    },
    {
      "midi": 64,
      "hit": false,
      "t": 948000,
      "d": 2000,
      "v": 80
    },
    {
      "midi": 86,
      "hit": false,
      "t": 948000,
      "d": 2000,
      "v": 80
    },
    {
      "midi": 57,
      "hit": false,
      "t": 950000,
      "d": 2000,
      "v": 80
    },
    {
      "midi": 85,
      "hit": false,
      "t": 950000,
      "d": 1000,
      "v": 80
    },
    {
      "midi": 86,
      "hit": false,
      "t": 951000,
      "d": 1000,
      "v": 80
    },
    {
      "midi": 57,
      "hit": false,
      "t": 952000,
      "d": 2000,
      "v": 80
    },
    {
      "midi": 61,
      "hit": false,
      "t": 952000,
      "d": 2000,
      "v": 80
    },
    {
      "midi": 64,
      "hit": false,
      "t": 952000,
      "d": 2000,
      "v": 80
    },
    {
      "midi": 85,
      "hit": false,
      "t": 952000,
      "d": 2000,
      "v": 80
    },
    {
      "midi": 57,
      "hit": false,
      "t": 954000,
      "d": 2000,
      "v": 80
    },
    {
      "midi": 83,
      "hit": false,
      "t": 954000,
      "d": 1000,
      "v": 80
    },
    {
      "midi": 85,
      "hit": false,
      "t": 955000,
      "d": 1000,
      "v": 80
    },
    {
      "midi": 59,
      "hit": false,
      "t": 956000,
      "d": 2000,
      "v": 80
    },
    {
      "midi": 62,
      "hit": false,
      "t": 956000,
      "d": 2000,
      "v": 80
    },
    {
      "midi": 67,
      "hit": false,
      "t": 956000,
      "d": 2000,
      "v": 80
    },
    {
      "midi": 47,
      "hit": false,
      "t": 956000,
      "d": 4000,
      "v": 80
    },
    {
      "midi": 83,
      "hit": false,
      "t": 956000,
      "d": 2000,
      "v": 80
    },
    {
      "midi": 59,
      "hit": false,
      "t": 958000,
      "d": 2000,
      "v": 80
    },
    {
      "midi": 69,
      "hit": false,
      "t": 958000,
      "d": 2000,
      "v": 80
    },
    {
      "midi": 79,
      "hit": false,
      "t": 958000,
      "d": 2000,
      "v": 80
    },
    {
      "midi": 57,
      "hit": false,
      "t": 960000,
      "d": 2000,
      "v": 80
    },
    {
      "midi": 62,
      "hit": false,
      "t": 960000,
      "d": 2000,
      "v": 80
    },
    {
      "midi": 66,
      "hit": false,
      "t": 960000,
      "d": 2000,
      "v": 80
    },
    {
      "midi": 50,
      "hit": false,
      "t": 960000,
      "d": 16000,
      "v": 80
    },
    {
      "midi": 54,
      "hit": false,
      "t": 962000,
      "d": 2000,
      "v": 80
    },
    {
      "midi": 57,
      "hit": false,
      "t": 964000,
      "d": 2000,
      "v": 80
    },
    {
      "midi": 62,
      "hit": false,
      "t": 964000,
      "d": 2000,
      "v": 80
    },
    {
      "midi": 66,
      "hit": false,
      "t": 964000,
      "d": 2000,
      "v": 80
    },
    {
      "midi": 54,
      "hit": false,
      "t": 966000,
      "d": 2000,
      "v": 80
    },
    {
      "midi": 57,
      "hit": false,
      "t": 968000,
      "d": 2000,
      "v": 80
    },
    {
      "midi": 62,
      "hit": false,
      "t": 968000,
      "d": 2000,
      "v": 80
    },
    {
      "midi": 66,
      "hit": false,
      "t": 968000,
      "d": 2000,
      "v": 80
    },
    {
      "midi": 54,
      "hit": false,
      "t": 970000,
      "d": 2000,
      "v": 80
    },
    {
      "midi": 57,
      "hit": false,
      "t": 972000,
      "d": 2000,
      "v": 80
    },
    {
      "midi": 62,
      "hit": false,
      "t": 972000,
      "d": 2000,
      "v": 80
    },
    {
      "midi": 66,
      "hit": false,
      "t": 972000,
      "d": 2000,
      "v": 80
    },
    {
      "midi": 54,
      "hit": false,
      "t": 974000,
      "d": 2000,
      "v": 80
    },
    {
      "midi": 57,
      "hit": false,
      "t": 976000,
      "d": 2000,
      "v": 80
    },
    {
      "midi": 61,
      "hit": false,
      "t": 976000,
      "d": 2000,
      "v": 80
    },
    {
      "midi": 64,
      "hit": false,
      "t": 976000,
      "d": 2000,
      "v": 80
    },
    {
      "midi": 45,
      "hit": false,
      "t": 976000,
      "d": 16000,
      "v": 80
    },
    {
      "midi": 52,
      "hit": false,
      "t": 978000,
      "d": 2000,
      "v": 80
    },
    {
      "midi": 57,
      "hit": false,
      "t": 980000,
      "d": 2000,
      "v": 80
    },
    {
      "midi": 61,
      "hit": false,
      "t": 980000,
      "d": 2000,
      "v": 80
    },
    {
      "midi": 64,
      "hit": false,
      "t": 980000,
      "d": 2000,
      "v": 80
    },
    {
      "midi": 52,
      "hit": false,
      "t": 982000,
      "d": 2000,
      "v": 80
    },
    {
      "midi": 57,
      "hit": false,
      "t": 984000,
      "d": 2000,
      "v": 80
    },
    {
      "midi": 61,
      "hit": false,
      "t": 984000,
      "d": 2000,
      "v": 80
    },
    {
      "midi": 64,
      "hit": false,
      "t": 984000,
      "d": 2000,
      "v": 80
    },
    {
      "midi": 52,
      "hit": false,
      "t": 986000,
      "d": 2000,
      "v": 80
    },
    {
      "midi": 57,
      "hit": false,
      "t": 988000,
      "d": 2000,
      "v": 80
    },
    {
      "midi": 61,
      "hit": false,
      "t": 988000,
      "d": 2000,
      "v": 80
    },
    {
      "midi": 64,
      "hit": false,
      "t": 988000,
      "d": 2000,
      "v": 80
    },
    {
      "midi": 52,
      "hit": false,
      "t": 990000,
      "d": 2000,
      "v": 80
    },
    {
      "midi": 54,
      "hit": false,
      "t": 992000,
      "d": 2000,
      "v": 80
    },
    {
      "midi": 59,
      "hit": false,
      "t": 992000,
      "d": 2000,
      "v": 80
    },
    {
      "midi": 62,
      "hit": false,
      "t": 992000,
      "d": 2000,
      "v": 80
    },
    {
      "midi": 47,
      "hit": false,
      "t": 992000,
      "d": 16000,
      "v": 80
    },
    {
      "midi": 50,
      "hit": false,
      "t": 994000,
      "d": 2000,
      "v": 80
    },
    {
      "midi": 54,
      "hit": false,
      "t": 996000,
      "d": 2000,
      "v": 80
    },
    {
      "midi": 59,
      "hit": false,
      "t": 996000,
      "d": 2000,
      "v": 80
    },
    {
      "midi": 62,
      "hit": false,
      "t": 996000,
      "d": 2000,
      "v": 80
    },
    {
      "midi": 50,
      "hit": false,
      "t": 998000,
      "d": 2000,
      "v": 80
    },
    {
      "midi": 54,
      "hit": false,
      "t": 1000000,
      "d": 2000,
      "v": 80
    },
    {
      "midi": 59,
      "hit": false,
      "t": 1000000,
      "d": 2000,
      "v": 80
    },
    {
      "midi": 62,
      "hit": false,
      "t": 1000000,
      "d": 2000,
      "v": 80
    },
    {
      "midi": 50,
      "hit": false,
      "t": 1002000,
      "d": 2000,
      "v": 80
    },
    {
      "midi": 54,
      "hit": false,
      "t": 1004000,
      "d": 2000,
      "v": 80
    },
    {
      "midi": 59,
      "hit": false,
      "t": 1004000,
      "d": 2000,
      "v": 80
    },
    {
      "midi": 62,
      "hit": false,
      "t": 1004000,
      "d": 2000,
      "v": 80
    },
    {
      "midi": 50,
      "hit": false,
      "t": 1006000,
      "d": 2000,
      "v": 80
    },
    {
      "midi": 55,
      "hit": false,
      "t": 1008000,
      "d": 2000,
      "v": 80
    },
    {
      "midi": 59,
      "hit": false,
      "t": 1008000,
      "d": 2000,
      "v": 80
    },
    {
      "midi": 62,
      "hit": false,
      "t": 1008000,
      "d": 2000,
      "v": 80
    },
    {
      "midi": 43,
      "hit": false,
      "t": 1008000,
      "d": 16000,
      "v": 80
    },
    {
      "midi": 50,
      "hit": false,
      "t": 1010000,
      "d": 2000,
      "v": 80
    },
    {
      "midi": 55,
      "hit": false,
      "t": 1012000,
      "d": 2000,
      "v": 80
    },
    {
      "midi": 59,
      "hit": false,
      "t": 1012000,
      "d": 2000,
      "v": 80
    },
    {
      "midi": 62,
      "hit": false,
      "t": 1012000,
      "d": 2000,
      "v": 80
    },
    {
      "midi": 50,
      "hit": false,
      "t": 1014000,
      "d": 2000,
      "v": 80
    },
    {
      "midi": 55,
      "hit": false,
      "t": 1016000,
      "d": 2000,
      "v": 80
    },
    {
      "midi": 59,
      "hit": false,
      "t": 1016000,
      "d": 2000,
      "v": 80
    },
    {
      "midi": 62,
      "hit": false,
      "t": 1016000,
      "d": 2000,
      "v": 80
    },
    {
      "midi": 50,
      "hit": false,
      "t": 1018000,
      "d": 2000,
      "v": 80
    },
    {
      "midi": 55,
      "hit": false,
      "t": 1020000,
      "d": 2000,
      "v": 80
    },
    {
      "midi": 59,
      "hit": false,
      "t": 1020000,
      "d": 2000,
      "v": 80
    },
    {
      "midi": 62,
      "hit": false,
      "t": 1020000,
      "d": 2000,
      "v": 80
    },
    {
      "midi": 50,
      "hit": false,
      "t": 1022000,
      "d": 2000,
      "v": 80
    },
    {
      "midi": 57,
      "hit": false,
      "t": 1024000,
      "d": 2000,
      "v": 80
    },
    {
      "midi": 62,
      "hit": false,
      "t": 1024000,
      "d": 2000,
      "v": 80
    },
    {
      "midi": 66,
      "hit": false,
      "t": 1024000,
      "d": 2000,
      "v": 80
    },
    {
      "midi": 50,
      "hit": false,
      "t": 1024000,
      "d": 16000,
      "v": 80
    },
    {
      "midi": 54,
      "hit": false,
      "t": 1026000,
      "d": 2000,
      "v": 80
    },
    {
      "midi": 57,
      "hit": false,
      "t": 1028000,
      "d": 2000,
      "v": 80
    },
    {
      "midi": 62,
      "hit": false,
      "t": 1028000,
      "d": 2000,
      "v": 80
    },
    {
      "midi": 66,
      "hit": false,
      "t": 1028000,
      "d": 2000,
      "v": 80
    },
    {
      "midi": 54,
      "hit": false,
      "t": 1030000,
      "d": 2000,
      "v": 80
    },
    {
      "midi": 57,
      "hit": false,
      "t": 1032000,
      "d": 2000,
      "v": 80
    },
    {
      "midi": 62,
      "hit": false,
      "t": 1032000,
      "d": 2000,
      "v": 80
    },
    {
      "midi": 66,
      "hit": false,
      "t": 1032000,
      "d": 2000,
      "v": 80
    },
    {
      "midi": 54,
      "hit": false,
      "t": 1034000,
      "d": 2000,
      "v": 80
    },
    {
      "midi": 57,
      "hit": false,
      "t": 1036000,
      "d": 2000,
      "v": 80
    },
    {
      "midi": 62,
      "hit": false,
      "t": 1036000,
      "d": 2000,
      "v": 80
    },
    {
      "midi": 66,
      "hit": false,
      "t": 1036000,
      "d": 2000,
      "v": 80
    },
    {
      "midi": 54,
      "hit": false,
      "t": 1038000,
      "d": 2000,
      "v": 80
    },
    {
      "midi": 57,
      "hit": false,
      "t": 1040000,
      "d": 2000,
      "v": 80
    },
    {
      "midi": 61,
      "hit": false,
      "t": 1040000,
      "d": 2000,
      "v": 80
    },
    {
      "midi": 64,
      "hit": false,
      "t": 1040000,
      "d": 2000,
      "v": 80
    },
    {
      "midi": 45,
      "hit": false,
      "t": 1040000,
      "d": 16000,
      "v": 80
    },
    {
      "midi": 52,
      "hit": false,
      "t": 1042000,
      "d": 2000,
      "v": 80
    },
    {
      "midi": 57,
      "hit": false,
      "t": 1044000,
      "d": 2000,
      "v": 80
    },
    {
      "midi": 61,
      "hit": false,
      "t": 1044000,
      "d": 2000,
      "v": 80
    },
    {
      "midi": 64,
      "hit": false,
      "t": 1044000,
      "d": 2000,
      "v": 80
    },
    {
      "midi": 52,
      "hit": false,
      "t": 1046000,
      "d": 2000,
      "v": 80
    },
    {
      "midi": 57,
      "hit": false,
      "t": 1048000,
      "d": 2000,
      "v": 80
    },
    {
      "midi": 61,
      "hit": false,
      "t": 1048000,
      "d": 2000,
      "v": 80
    },
    {
      "midi": 64,
      "hit": false,
      "t": 1048000,
      "d": 2000,
      "v": 80
    },
    {
      "midi": 52,
      "hit": false,
      "t": 1050000,
      "d": 2000,
      "v": 80
    },
    {
      "midi": 57,
      "hit": false,
      "t": 1052000,
      "d": 2000,
      "v": 80
    },
    {
      "midi": 61,
      "hit": false,
      "t": 1052000,
      "d": 2000,
      "v": 80
    },
    {
      "midi": 64,
      "hit": false,
      "t": 1052000,
      "d": 2000,
      "v": 80
    },
    {
      "midi": 52,
      "hit": false,
      "t": 1054000,
      "d": 2000,
      "v": 80
    },
    {
      "midi": 54,
      "hit": false,
      "t": 1056000,
      "d": 2000,
      "v": 80
    },
    {
      "midi": 59,
      "hit": false,
      "t": 1056000,
      "d": 2000,
      "v": 80
    },
    {
      "midi": 62,
      "hit": false,
      "t": 1056000,
      "d": 2000,
      "v": 80
    },
    {
      "midi": 47,
      "hit": false,
      "t": 1056000,
      "d": 16000,
      "v": 80
    },
    {
      "midi": 50,
      "hit": false,
      "t": 1058000,
      "d": 2000,
      "v": 80
    },
    {
      "midi": 54,
      "hit": false,
      "t": 1060000,
      "d": 2000,
      "v": 80
    },
    {
      "midi": 59,
      "hit": false,
      "t": 1060000,
      "d": 2000,
      "v": 80
    },
    {
      "midi": 62,
      "hit": false,
      "t": 1060000,
      "d": 2000,
      "v": 80
    },
    {
      "midi": 50,
      "hit": false,
      "t": 1062000,
      "d": 2000,
      "v": 80
    },
    {
      "midi": 54,
      "hit": false,
      "t": 1064000,
      "d": 2000,
      "v": 80
    },
    {
      "midi": 59,
      "hit": false,
      "t": 1064000,
      "d": 2000,
      "v": 80
    },
    {
      "midi": 62,
      "hit": false,
      "t": 1064000,
      "d": 2000,
      "v": 80
    },
    {
      "midi": 50,
      "hit": false,
      "t": 1066000,
      "d": 2000,
      "v": 80
    },
    {
      "midi": 54,
      "hit": false,
      "t": 1068000,
      "d": 2000,
      "v": 80
    },
    {
      "midi": 59,
      "hit": false,
      "t": 1068000,
      "d": 2000,
      "v": 80
    },
    {
      "midi": 62,
      "hit": false,
      "t": 1068000,
      "d": 2000,
      "v": 80
    },
    {
      "midi": 50,
      "hit": false,
      "t": 1070000,
      "d": 2000,
      "v": 80
    },
    {
      "midi": 55,
      "hit": false,
      "t": 1072000,
      "d": 2000,
      "v": 80
    },
    {
      "midi": 59,
      "hit": false,
      "t": 1072000,
      "d": 2000,
      "v": 80
    },
    {
      "midi": 62,
      "hit": false,
      "t": 1072000,
      "d": 2000,
      "v": 80
    },
    {
      "midi": 43,
      "hit": false,
      "t": 1072000,
      "d": 16000,
      "v": 80
    },
    {
      "midi": 50,
      "hit": false,
      "t": 1074000,
      "d": 2000,
      "v": 80
    },
    {
      "midi": 55,
      "hit": false,
      "t": 1076000,
      "d": 2000,
      "v": 80
    },
    {
      "midi": 59,
      "hit": false,
      "t": 1076000,
      "d": 2000,
      "v": 80
    },
    {
      "midi": 62,
      "hit": false,
      "t": 1076000,
      "d": 2000,
      "v": 80
    },
    {
      "midi": 50,
      "hit": false,
      "t": 1078000,
      "d": 2000,
      "v": 80
    },
    {
      "midi": 55,
      "hit": false,
      "t": 1080000,
      "d": 2000,
      "v": 80
    },
    {
      "midi": 59,
      "hit": false,
      "t": 1080000,
      "d": 2000,
      "v": 80
    },
    {
      "midi": 62,
      "hit": false,
      "t": 1080000,
      "d": 2000,
      "v": 80
    },
    {
      "midi": 50,
      "hit": false,
      "t": 1082000,
      "d": 2000,
      "v": 80
    },
    {
      "midi": 55,
      "hit": false,
      "t": 1084000,
      "d": 2000,
      "v": 80
    },
    {
      "midi": 59,
      "hit": false,
      "t": 1084000,
      "d": 2000,
      "v": 80
    },
    {
      "midi": 62,
      "hit": false,
      "t": 1084000,
      "d": 2000,
      "v": 80
    },
    {
      "midi": 50,
      "hit": false,
      "t": 1086000,
      "d": 2000,
      "v": 80
    },
    {
      "midi": 59,
      "hit": false,
      "t": 1088000,
      "d": 2000,
      "v": 80
    },
    {
      "midi": 62,
      "hit": false,
      "t": 1088000,
      "d": 2000,
      "v": 80
    },
    {
      "midi": 67,
      "hit": false,
      "t": 1088000,
      "d": 2000,
      "v": 80
    },
    {
      "midi": 43,
      "hit": false,
      "t": 1088000,
      "d": 12000,
      "v": 80
    },
    {
      "midi": 86,
      "hit": false,
      "t": 1088000,
      "d": 4000,
      "v": 80
    },
    {
      "midi": 55,
      "hit": false,
      "t": 1090000,
      "d": 2000,
      "v": 80
    },
    {
      "midi": 59,
      "hit": false,
      "t": 1092000,
      "d": 2000,
      "v": 80
    },
    {
      "midi": 62,
      "hit": false,
      "t": 1092000,
      "d": 2000,
      "v": 80
    },
    {
      "midi": 67,
      "hit": false,
      "t": 1092000,
      "d": 2000,
      "v": 80
    },
    {
      "midi": 85,
      "hit": false,
      "t": 1092000,
      "d": 2000,
      "v": 80
    },
    {
      "midi": 55,
      "hit": false,
      "t": 1094000,
      "d": 2000,
      "v": 80
    },
    {
      "midi": 86,
      "hit": false,
      "t": 1094000,
      "d": 2000,
      "v": 80
    },
    {
      "midi": 59,
      "hit": false,
      "t": 1096000,
      "d": 2000,
      "v": 80
    },
    {
      "midi": 62,
      "hit": false,
      "t": 1096000,
      "d": 2000,
      "v": 80
    },
    {
      "midi": 67,
      "hit": false,
      "t": 1096000,
      "d": 2000,
      "v": 80
    },
    {
      "midi": 83,
      "hit": false,
      "t": 1096000,
      "d": 2000,
      "v": 80
    },
    {
      "midi": 55,
      "hit": false,
      "t": 1098000,
      "d": 2000,
      "v": 80
    },
    {
      "midi": 79,
      "hit": false,
      "t": 1098000,
      "d": 2000,
      "v": 80
    },
    {
      "midi": 59,
      "hit": false,
      "t": 1100000,
      "d": 2000,
      "v": 80
    },
    {
      "midi": 62,
      "hit": false,
      "t": 1100000,
      "d": 2000,
      "v": 80
    },
    {
      "midi": 67,
      "hit": false,
      "t": 1100000,
      "d": 2000,
      "v": 80
    },
    {
      "midi": 43,
      "hit": false,
      "t": 1100000,
      "d": 4000,
      "v": 80
    },
    {
      "midi": 74,
      "hit": false,
      "t": 1100000,
      "d": 2000,
      "v": 80
    },
    {
      "midi": 55,
      "hit": false,
      "t": 1102000,
      "d": 2000,
      "v": 80
    },
    {
      "midi": 66,
      "hit": false,
      "t": 1102000,
      "d": 2000,
      "v": 80
    },
    {
      "midi": 86,
      "hit": false,
      "t": 1102000,
      "d": 2000,
      "v": 80
    },
    {
      "midi": 57,
      "hit": false,
      "t": 1104000,
      "d": 2000,
      "v": 80
    },
    {
      "midi": 62,
      "hit": false,
      "t": 1104000,
      "d": 2000,
      "v": 80
    },
    {
      "midi": 66,
      "hit": false,
      "t": 1104000,
      "d": 2000,
      "v": 80
    },
    {
      "midi": 50,
      "hit": false,
      "t": 1104000,
      "d": 12000,
      "v": 80
    },
    {
      "midi": 54,
      "hit": false,
      "t": 1106000,
      "d": 2000,
      "v": 80
    },
    {
      "midi": 85,
      "hit": false,
      "t": 1106000,
      "d": 2000,
      "v": 80
    },
    {
      "midi": 57,
      "hit": false,
      "t": 1108000,
      "d": 2000,
      "v": 80
    },
    {
      "midi": 62,
      "hit": false,
      "t": 1108000,
      "d": 2000,
      "v": 80
    },
    {
      "midi": 66,
      "hit": false,
      "t": 1108000,
      "d": 2000,
      "v": 80
    },
    {
      "midi": 86,
      "hit": false,
      "t": 1108000,
      "d": 2000,
      "v": 80
    },
    {
      "midi": 54,
      "hit": false,
      "t": 1110000,
      "d": 2000,
      "v": 80
    },
    {
      "midi": 81,
      "hit": false,
      "t": 1110000,
      "d": 2000,
      "v": 80
    },
    {
      "midi": 57,
      "hit": false,
      "t": 1112000,
      "d": 2000,
      "v": 80
    },
    {
      "midi": 62,
      "hit": false,
      "t": 1112000,
      "d": 2000,
      "v": 80
    },
    {
      "midi": 66,
      "hit": false,
      "t": 1112000,
      "d": 2000,
      "v": 80
    },
    {
      "midi": 78,
      "hit": false,
      "t": 1112000,
      "d": 2000,
      "v": 80
    },
    {
      "midi": 54,
      "hit": false,
      "t": 1114000,
      "d": 2000,
      "v": 80
    },
    {
      "midi": 74,
      "hit": false,
      "t": 1114000,
      "d": 4000,
      "v": 80
    },
    {
      "midi": 57,
      "hit": false,
      "t": 1116000,
      "d": 2000,
      "v": 80
    },
    {
      "midi": 62,
      "hit": false,
      "t": 1116000,
      "d": 2000,
      "v": 80
    },
    {
      "midi": 66,
      "hit": false,
      "t": 1116000,
      "d": 2000,
      "v": 80
    },
    {
      "midi": 50,
      "hit": false,
      "t": 1116000,
      "d": 4000,
      "v": 80
    },
    {
      "midi": 54,
      "hit": false,
      "t": 1118000,
      "d": 2000,
      "v": 80
    },
    {
      "midi": 67,
      "hit": false,
      "t": 1118000,
      "d": 2000,
      "v": 80
    },
    {
      "midi": 88,
      "hit": false,
      "t": 1118000,
      "d": 2000,
      "v": 80
    },
    {
      "midi": 57,
      "hit": false,
      "t": 1120000,
      "d": 2000,
      "v": 80
    },
    {
      "midi": 61,
      "hit": false,
      "t": 1120000,
      "d": 2000,
      "v": 80
    },
    {
      "midi": 64,
      "hit": false,
      "t": 1120000,
      "d": 2000,
      "v": 80
    },
    {
      "midi": 45,
      "hit": false,
      "t": 1120000,
      "d": 12000,
      "v": 80
    },
    {
      "midi": 57,
      "hit": false,
      "t": 1122000,
      "d": 2000,
      "v": 80
    },
    {
      "midi": 57,
      "hit": false,
      "t": 1124000,
      "d": 2000,
      "v": 80
    },
    {
      "midi": 61,
      "hit": false,
      "t": 1124000,
      "d": 2000,
      "v": 80
    },
    {
      "midi": 64,
      "hit": false,
      "t": 1124000,
      "d": 2000,
      "v": 80
    },
    {
      "midi": 57,
      "hit": false,
      "t": 1126000,
      "d": 2000,
      "v": 80
    },
    {
      "midi": 57,
      "hit": false,
      "t": 1128000,
      "d": 2000,
      "v": 80
    },
    {
      "midi": 61,
      "hit": false,
      "t": 1128000,
      "d": 2000,
      "v": 80
    },
    {
      "midi": 64,
      "hit": false,
      "t": 1128000,
      "d": 2000,
      "v": 80
    },
    {
      "midi": 57,
      "hit": false,
      "t": 1130000,
      "d": 2000,
      "v": 80
    },
    {
      "midi": 57,
      "hit": false,
      "t": 1132000,
      "d": 2000,
      "v": 80
    },
    {
      "midi": 61,
      "hit": false,
      "t": 1132000,
      "d": 2000,
      "v": 80
    },
    {
      "midi": 64,
      "hit": false,
      "t": 1132000,
      "d": 2000,
      "v": 80
    },
    {
      "midi": 45,
      "hit": false,
      "t": 1132000,
      "d": 4000,
      "v": 80
    },
    {
      "midi": 57,
      "hit": false,
      "t": 1134000,
      "d": 2000,
      "v": 80
    },
    {
      "midi": 62,
      "hit": false,
      "t": 1134000,
      "d": 2000,
      "v": 80
    },
    {
      "midi": 57,
      "hit": false,
      "t": 1136000,
      "d": 2000,
      "v": 80
    },
    {
      "midi": 61,
      "hit": false,
      "t": 1136000,
      "d": 2000,
      "v": 80
    },
    {
      "midi": 64,
      "hit": false,
      "t": 1136000,
      "d": 2000,
      "v": 80
    },
    {
      "midi": 45,
      "hit": false,
      "t": 1136000,
      "d": 12000,
      "v": 80
    },
    {
      "midi": 88,
      "hit": false,
      "t": 1136000,
      "d": 2000,
      "v": 80
    },
    {
      "midi": 57,
      "hit": false,
      "t": 1138000,
      "d": 2000,
      "v": 80
    },
    {
      "midi": 86,
      "hit": false,
      "t": 1138000,
      "d": 1000,
      "v": 80
    },
    {
      "midi": 88,
      "hit": false,
      "t": 1139000,
      "d": 1000,
      "v": 80
    },
    {
      "midi": 57,
      "hit": false,
      "t": 1140000,
      "d": 2000,
      "v": 80
    },
    {
      "midi": 61,
      "hit": false,
      "t": 1140000,
      "d": 2000,
      "v": 80
    },
    {
      "midi": 64,
      "hit": false,
      "t": 1140000,
      "d": 2000,
      "v": 80
    },
    {
      "midi": 86,
      "hit": false,
      "t": 1140000,
      "d": 2000,
      "v": 80
    },
    {
      "midi": 57,
      "hit": false,
      "t": 1142000,
      "d": 2000,
      "v": 80
    },
    {
      "midi": 85,
      "hit": false,
      "t": 1142000,
      "d": 1000,
      "v": 80
    },
    {
      "midi": 86,
      "hit": false,
      "t": 1143000,
      "d": 1000,
      "v": 80
    },
    {
      "midi": 57,
      "hit": false,
      "t": 1144000,
      "d": 2000,
      "v": 80
    },
    {
      "midi": 61,
      "hit": false,
      "t": 1144000,
      "d": 2000,
      "v": 80
    },
    {
      "midi": 64,
      "hit": false,
      "t": 1144000,
      "d": 2000,
      "v": 80
    },
    {
      "midi": 85,
      "hit": false,
      "t": 1144000,
      "d": 2000,
      "v": 80
    },
    {
      "midi": 57,
      "hit": false,
      "t": 1146000,
      "d": 2000,
      "v": 80
    },
    {
      "midi": 83,
      "hit": false,
      "t": 1146000,
      "d": 1000,
      "v": 80
    },
    {
      "midi": 85,
      "hit": false,
      "t": 1147000,
      "d": 1000,
      "v": 80
    },
    {
      "midi": 59,
      "hit": false,
      "t": 1148000,
      "d": 2000,
      "v": 80
    },
    {
      "midi": 62,
      "hit": false,
      "t": 1148000,
      "d": 2000,
      "v": 80
    },
    {
      "midi": 67,
      "hit": false,
      "t": 1148000,
      "d": 2000,
      "v": 80
    },
    {
      "midi": 47,
      "hit": false,
      "t": 1148000,
      "d": 4000,
      "v": 80
    },
    {
      "midi": 83,
      "hit": false,
      "t": 1148000,
      "d": 2000,
      "v": 80
    },
    {
      "midi": 59,
      "hit": false,
      "t": 1150000,
      "d": 2000,
      "v": 80
    },
    {
      "midi": 69,
      "hit": false,
      "t": 1150000,
      "d": 2000,
      "v": 80
    },
    {
      "midi": 79,
      "hit": false,
      "t": 1150000,
      "d": 2000,
      "v": 80
    },
    {
      "midi": 59,
      "hit": false,
      "t": 1152000,
      "d": 2000,
      "v": 80
    },
    {
      "midi": 62,
      "hit": false,
      "t": 1152000,
      "d": 2000,
      "v": 80
    },
    {
      "midi": 67,
      "hit": false,
      "t": 1152000,
      "d": 2000,
      "v": 80
    },
    {
      "midi": 43,
      "hit": false,
      "t": 1152000,
      "d": 12000,
      "v": 80
    },
    {
      "midi": 86,
      "hit": false,
      "t": 1152000,
      "d": 4000,
      "v": 80
    },
    {
      "midi": 55,
      "hit": false,
      "t": 1154000,
      "d": 2000,
      "v": 80
    },
    {
      "midi": 59,
      "hit": false,
      "t": 1156000,
      "d": 2000,
      "v": 80
    },
    {
      "midi": 62,
      "hit": false,
      "t": 1156000,
      "d": 2000,
      "v": 80
    },
    {
      "midi": 67,
      "hit": false,
      "t": 1156000,
      "d": 2000,
      "v": 80
    },
    {
      "midi": 85,
      "hit": false,
      "t": 1156000,
      "d": 2000,
      "v": 80
    },
    {
      "midi": 55,
      "hit": false,
      "t": 1158000,
      "d": 2000,
      "v": 80
    },
    {
      "midi": 86,
      "hit": false,
      "t": 1158000,
      "d": 2000,
      "v": 80
    },
    {
      "midi": 59,
      "hit": false,
      "t": 1160000,
      "d": 2000,
      "v": 80
    },
    {
      "midi": 62,
      "hit": false,
      "t": 1160000,
      "d": 2000,
      "v": 80
    },
    {
      "midi": 67,
      "hit": false,
      "t": 1160000,
      "d": 2000,
      "v": 80
    },
    {
      "midi": 83,
      "hit": false,
      "t": 1160000,
      "d": 2000,
      "v": 80
    },
    {
      "midi": 55,
      "hit": false,
      "t": 1162000,
      "d": 2000,
      "v": 80
    },
    {
      "midi": 79,
      "hit": false,
      "t": 1162000,
      "d": 2000,
      "v": 80
    },
    {
      "midi": 59,
      "hit": false,
      "t": 1164000,
      "d": 2000,
      "v": 80
    },
    {
      "midi": 62,
      "hit": false,
      "t": 1164000,
      "d": 2000,
      "v": 80
    },
    {
      "midi": 67,
      "hit": false,
      "t": 1164000,
      "d": 2000,
      "v": 80
    },
    {
      "midi": 43,
      "hit": false,
      "t": 1164000,
      "d": 4000,
      "v": 80
    },
    {
      "midi": 74,
      "hit": false,
      "t": 1164000,
      "d": 2000,
      "v": 80
    },
    {
      "midi": 55,
      "hit": false,
      "t": 1166000,
      "d": 2000,
      "v": 80
    },
    {
      "midi": 66,
      "hit": false,
      "t": 1166000,
      "d": 2000,
      "v": 80
    },
    {
      "midi": 86,
      "hit": false,
      "t": 1166000,
      "d": 2000,
      "v": 80
    },
    {
      "midi": 57,
      "hit": false,
      "t": 1168000,
      "d": 2000,
      "v": 80
    },
    {
      "midi": 62,
      "hit": false,
      "t": 1168000,
      "d": 2000,
      "v": 80
    },
    {
      "midi": 66,
      "hit": false,
      "t": 1168000,
      "d": 2000,
      "v": 80
    },
    {
      "midi": 50,
      "hit": false,
      "t": 1168000,
      "d": 12000,
      "v": 80
    },
    {
      "midi": 54,
      "hit": false,
      "t": 1170000,
      "d": 2000,
      "v": 80
    },
    {
      "midi": 85,
      "hit": false,
      "t": 1170000,
      "d": 2000,
      "v": 80
    },
    {
      "midi": 57,
      "hit": false,
      "t": 1172000,
      "d": 2000,
      "v": 80
    },
    {
      "midi": 62,
      "hit": false,
      "t": 1172000,
      "d": 2000,
      "v": 80
    },
    {
      "midi": 66,
      "hit": false,
      "t": 1172000,
      "d": 2000,
      "v": 80
    },
    {
      "midi": 86,
      "hit": false,
      "t": 1172000,
      "d": 2000,
      "v": 80
    },
    {
      "midi": 54,
      "hit": false,
      "t": 1174000,
      "d": 2000,
      "v": 80
    },
    {
      "midi": 81,
      "hit": false,
      "t": 1174000,
      "d": 2000,
      "v": 80
    },
    {
      "midi": 57,
      "hit": false,
      "t": 1176000,
      "d": 2000,
      "v": 80
    },
    {
      "midi": 62,
      "hit": false,
      "t": 1176000,
      "d": 2000,
      "v": 80
    },
    {
      "midi": 66,
      "hit": false,
      "t": 1176000,
      "d": 2000,
      "v": 80
    },
    {
      "midi": 78,
      "hit": false,
      "t": 1176000,
      "d": 2000,
      "v": 80
    },
    {
      "midi": 54,
      "hit": false,
      "t": 1178000,
      "d": 2000,
      "v": 80
    },
    {
      "midi": 74,
      "hit": false,
      "t": 1178000,
      "d": 4000,
      "v": 80
    },
    {
      "midi": 57,
      "hit": false,
      "t": 1180000,
      "d": 2000,
      "v": 80
    },
    {
      "midi": 62,
      "hit": false,
      "t": 1180000,
      "d": 2000,
      "v": 80
    },
    {
      "midi": 66,
      "hit": false,
      "t": 1180000,
      "d": 2000,
      "v": 80
    },
    {
      "midi": 50,
      "hit": false,
      "t": 1180000,
      "d": 4000,
      "v": 80
    },
    {
      "midi": 54,
      "hit": false,
      "t": 1182000,
      "d": 2000,
      "v": 80
    },
    {
      "midi": 67,
      "hit": false,
      "t": 1182000,
      "d": 2000,
      "v": 80
    },
    {
      "midi": 88,
      "hit": false,
      "t": 1182000,
      "d": 2000,
      "v": 80
    },
    {
      "midi": 57,
      "hit": false,
      "t": 1184000,
      "d": 2000,
      "v": 80
    },
    {
      "midi": 61,
      "hit": false,
      "t": 1184000,
      "d": 2000,
      "v": 80
    },
    {
      "midi": 64,
      "hit": false,
      "t": 1184000,
      "d": 2000,
      "v": 80
    },
    {
      "midi": 45,
      "hit": false,
      "t": 1184000,
      "d": 12000,
      "v": 80
    },
    {
      "midi": 57,
      "hit": false,
      "t": 1186000,
      "d": 2000,
      "v": 80
    },
    {
      "midi": 57,
      "hit": false,
      "t": 1188000,
      "d": 2000,
      "v": 80
    },
    {
      "midi": 61,
      "hit": false,
      "t": 1188000,
      "d": 2000,
      "v": 80
    },
    {
      "midi": 64,
      "hit": false,
      "t": 1188000,
      "d": 2000,
      "v": 80
    },
    {
      "midi": 57,
      "hit": false,
      "t": 1190000,
      "d": 2000,
      "v": 80
    },
    {
      "midi": 57,
      "hit": false,
      "t": 1192000,
      "d": 2000,
      "v": 80
    },
    {
      "midi": 61,
      "hit": false,
      "t": 1192000,
      "d": 2000,
      "v": 80
    },
    {
      "midi": 64,
      "hit": false,
      "t": 1192000,
      "d": 2000,
      "v": 80
    },
    {
      "midi": 57,
      "hit": false,
      "t": 1194000,
      "d": 2000,
      "v": 80
    },
    {
      "midi": 57,
      "hit": false,
      "t": 1196000,
      "d": 2000,
      "v": 80
    },
    {
      "midi": 61,
      "hit": false,
      "t": 1196000,
      "d": 2000,
      "v": 80
    },
    {
      "midi": 64,
      "hit": false,
      "t": 1196000,
      "d": 2000,
      "v": 80
    },
    {
      "midi": 45,
      "hit": false,
      "t": 1196000,
      "d": 4000,
      "v": 80
    },
    {
      "midi": 57,
      "hit": false,
      "t": 1198000,
      "d": 2000,
      "v": 80
    },
    {
      "midi": 62,
      "hit": false,
      "t": 1198000,
      "d": 2000,
      "v": 80
    },
    {
      "midi": 57,
      "hit": false,
      "t": 1200000,
      "d": 2000,
      "v": 80
    },
    {
      "midi": 61,
      "hit": false,
      "t": 1200000,
      "d": 2000,
      "v": 80
    },
    {
      "midi": 64,
      "hit": false,
      "t": 1200000,
      "d": 2000,
      "v": 80
    },
    {
      "midi": 45,
      "hit": false,
      "t": 1200000,
      "d": 12000,
      "v": 80
    },
    {
      "midi": 88,
      "hit": false,
      "t": 1200000,
      "d": 2000,
      "v": 80
    },
    {
      "midi": 57,
      "hit": false,
      "t": 1202000,
      "d": 2000,
      "v": 80
    },
    {
      "midi": 86,
      "hit": false,
      "t": 1202000,
      "d": 1000,
      "v": 80
    },
    {
      "midi": 88,
      "hit": false,
      "t": 1203000,
      "d": 1000,
      "v": 80
    },
    {
      "midi": 57,
      "hit": false,
      "t": 1204000,
      "d": 2000,
      "v": 80
    },
    {
      "midi": 61,
      "hit": false,
      "t": 1204000,
      "d": 2000,
      "v": 80
    },
    {
      "midi": 64,
      "hit": false,
      "t": 1204000,
      "d": 2000,
      "v": 80
    },
    {
      "midi": 86,
      "hit": false,
      "t": 1204000,
      "d": 2000,
      "v": 80
    },
    {
      "midi": 57,
      "hit": false,
      "t": 1206000,
      "d": 2000,
      "v": 80
    },
    {
      "midi": 85,
      "hit": false,
      "t": 1206000,
      "d": 1000,
      "v": 80
    },
    {
      "midi": 86,
      "hit": false,
      "t": 1207000,
      "d": 1000,
      "v": 80
    },
    {
      "midi": 57,
      "hit": false,
      "t": 1208000,
      "d": 2000,
      "v": 80
    },
    {
      "midi": 61,
      "hit": false,
      "t": 1208000,
      "d": 2000,
      "v": 80
    },
    {
      "midi": 64,
      "hit": false,
      "t": 1208000,
      "d": 2000,
      "v": 80
    },
    {
      "midi": 85,
      "hit": false,
      "t": 1208000,
      "d": 2000,
      "v": 80
    },
    {
      "midi": 57,
      "hit": false,
      "t": 1210000,
      "d": 2000,
      "v": 80
    },
    {
      "midi": 83,
      "hit": false,
      "t": 1210000,
      "d": 1000,
      "v": 80
    },
    {
      "midi": 85,
      "hit": false,
      "t": 1211000,
      "d": 1000,
      "v": 80
    },
    {
      "midi": 59,
      "hit": false,
      "t": 1212000,
      "d": 2000,
      "v": 80
    },
    {
      "midi": 62,
      "hit": false,
      "t": 1212000,
      "d": 2000,
      "v": 80
    },
    {
      "midi": 67,
      "hit": false,
      "t": 1212000,
      "d": 2000,
      "v": 80
    },
    {
      "midi": 47,
      "hit": false,
      "t": 1212000,
      "d": 4000,
      "v": 80
    },
    {
      "midi": 83,
      "hit": false,
      "t": 1212000,
      "d": 2000,
      "v": 80
    },
    {
      "midi": 59,
      "hit": false,
      "t": 1214000,
      "d": 2000,
      "v": 80
    },
    {
      "midi": 69,
      "hit": false,
      "t": 1214000,
      "d": 2000,
      "v": 80
    },
    {
      "midi": 79,
      "hit": false,
      "t": 1214000,
      "d": 2000,
      "v": 80
    },
    {
      "midi": 59,
      "hit": false,
      "t": 1216000,
      "d": 2000,
      "v": 80
    },
    {
      "midi": 62,
      "hit": false,
      "t": 1216000,
      "d": 2000,
      "v": 80
    },
    {
      "midi": 67,
      "hit": false,
      "t": 1216000,
      "d": 2000,
      "v": 80
    },
    {
      "midi": 43,
      "hit": false,
      "t": 1216000,
      "d": 12000,
      "v": 80
    },
    {
      "midi": 55,
      "hit": false,
      "t": 1218000,
      "d": 2000,
      "v": 80
    },
    {
      "midi": 59,
      "hit": false,
      "t": 1220000,
      "d": 2000,
      "v": 80
    },
    {
      "midi": 62,
      "hit": false,
      "t": 1220000,
      "d": 2000,
      "v": 80
    },
    {
      "midi": 67,
      "hit": false,
      "t": 1220000,
      "d": 2000,
      "v": 80
    },
    {
      "midi": 55,
      "hit": false,
      "t": 1222000,
      "d": 2000,
      "v": 80
    },
    {
      "midi": 59,
      "hit": false,
      "t": 1224000,
      "d": 2000,
      "v": 80
    },
    {
      "midi": 62,
      "hit": false,
      "t": 1224000,
      "d": 2000,
      "v": 80
    },
    {
      "midi": 67,
      "hit": false,
      "t": 1224000,
      "d": 2000,
      "v": 80
    },
    {
      "midi": 55,
      "hit": false,
      "t": 1226000,
      "d": 2000,
      "v": 80
    },
    {
      "midi": 59,
      "hit": false,
      "t": 1228000,
      "d": 2000,
      "v": 80
    },
    {
      "midi": 62,
      "hit": false,
      "t": 1228000,
      "d": 2000,
      "v": 80
    },
    {
      "midi": 67,
      "hit": false,
      "t": 1228000,
      "d": 2000,
      "v": 80
    },
    {
      "midi": 43,
      "hit": false,
      "t": 1228000,
      "d": 4000,
      "v": 80
    },
    {
      "midi": 55,
      "hit": false,
      "t": 1230000,
      "d": 2000,
      "v": 80
    },
    {
      "midi": 66,
      "hit": false,
      "t": 1230000,
      "d": 2000,
      "v": 80
    },
    {
      "midi": 57,
      "hit": false,
      "t": 1232000,
      "d": 2000,
      "v": 80
    },
    {
      "midi": 62,
      "hit": false,
      "t": 1232000,
      "d": 2000,
      "v": 80
    },
    {
      "midi": 66,
      "hit": false,
      "t": 1232000,
      "d": 2000,
      "v": 80
    },
    {
      "midi": 50,
      "hit": false,
      "t": 1232000,
      "d": 12000,
      "v": 80
    },
    {
      "midi": 54,
      "hit": false,
      "t": 1234000,
      "d": 2000,
      "v": 80
    },
    {
      "midi": 57,
      "hit": false,
      "t": 1236000,
      "d": 2000,
      "v": 80
    },
    {
      "midi": 62,
      "hit": false,
      "t": 1236000,
      "d": 2000,
      "v": 80
    },
    {
      "midi": 66,
      "hit": false,
      "t": 1236000,
      "d": 2000,
      "v": 80
    },
    {
      "midi": 54,
      "hit": false,
      "t": 1238000,
      "d": 2000,
      "v": 80
    },
    {
      "midi": 57,
      "hit": false,
      "t": 1240000,
      "d": 2000,
      "v": 80
    },
    {
      "midi": 62,
      "hit": false,
      "t": 1240000,
      "d": 2000,
      "v": 80
    },
    {
      "midi": 66,
      "hit": false,
      "t": 1240000,
      "d": 2000,
      "v": 80
    },
    {
      "midi": 54,
      "hit": false,
      "t": 1242000,
      "d": 2000,
      "v": 80
    },
    {
      "midi": 57,
      "hit": false,
      "t": 1244000,
      "d": 2000,
      "v": 80
    },
    {
      "midi": 62,
      "hit": false,
      "t": 1244000,
      "d": 2000,
      "v": 80
    },
    {
      "midi": 66,
      "hit": false,
      "t": 1244000,
      "d": 2000,
      "v": 80
    },
    {
      "midi": 50,
      "hit": false,
      "t": 1244000,
      "d": 4000,
      "v": 80
    },
    {
      "midi": 54,
      "hit": false,
      "t": 1246000,
      "d": 2000,
      "v": 80
    },
    {
      "midi": 67,
      "hit": false,
      "t": 1246000,
      "d": 2000,
      "v": 80
    },
    {
      "midi": 57,
      "hit": false,
      "t": 1248000,
      "d": 2000,
      "v": 80
    },
    {
      "midi": 61,
      "hit": false,
      "t": 1248000,
      "d": 2000,
      "v": 80
    },
    {
      "midi": 64,
      "hit": false,
      "t": 1248000,
      "d": 2000,
      "v": 80
    },
    {
      "midi": 45,
      "hit": false,
      "t": 1248000,
      "d": 12000,
      "v": 80
    },
    {
      "midi": 57,
      "hit": false,
      "t": 1250000,
      "d": 2000,
      "v": 80
    },
    {
      "midi": 57,
      "hit": false,
      "t": 1252000,
      "d": 2000,
      "v": 80
    },
    {
      "midi": 61,
      "hit": false,
      "t": 1252000,
      "d": 2000,
      "v": 80
    },
    {
      "midi": 64,
      "hit": false,
      "t": 1252000,
      "d": 2000,
      "v": 80
    },
    {
      "midi": 57,
      "hit": false,
      "t": 1254000,
      "d": 2000,
      "v": 80
    },
    {
      "midi": 57,
      "hit": false,
      "t": 1256000,
      "d": 2000,
      "v": 80
    },
    {
      "midi": 61,
      "hit": false,
      "t": 1256000,
      "d": 2000,
      "v": 80
    },
    {
      "midi": 64,
      "hit": false,
      "t": 1256000,
      "d": 2000,
      "v": 80
    },
    {
      "midi": 57,
      "hit": false,
      "t": 1258000,
      "d": 2000,
      "v": 80
    },
    {
      "midi": 57,
      "hit": false,
      "t": 1260000,
      "d": 2000,
      "v": 80
    },
    {
      "midi": 61,
      "hit": false,
      "t": 1260000,
      "d": 2000,
      "v": 80
    },
    {
      "midi": 64,
      "hit": false,
      "t": 1260000,
      "d": 2000,
      "v": 80
    },
    {
      "midi": 45,
      "hit": false,
      "t": 1260000,
      "d": 4000,
      "v": 80
    },
    {
      "midi": 57,
      "hit": false,
      "t": 1262000,
      "d": 2000,
      "v": 80
    },
    {
      "midi": 62,
      "hit": false,
      "t": 1262000,
      "d": 2000,
      "v": 80
    },
    {
      "midi": 57,
      "hit": false,
      "t": 1264000,
      "d": 2000,
      "v": 80
    },
    {
      "midi": 61,
      "hit": false,
      "t": 1264000,
      "d": 2000,
      "v": 80
    },
    {
      "midi": 64,
      "hit": false,
      "t": 1264000,
      "d": 2000,
      "v": 80
    },
    {
      "midi": 45,
      "hit": false,
      "t": 1264000,
      "d": 16000,
      "v": 80
    },
    {
      "midi": 57,
      "hit": false,
      "t": 1266000,
      "d": 2000,
      "v": 80
    },
    {
      "midi": 57,
      "hit": false,
      "t": 1268000,
      "d": 2000,
      "v": 80
    },
    {
      "midi": 61,
      "hit": false,
      "t": 1268000,
      "d": 2000,
      "v": 80
    },
    {
      "midi": 64,
      "hit": false,
      "t": 1268000,
      "d": 2000,
      "v": 80
    },
    {
      "midi": 57,
      "hit": false,
      "t": 1270000,
      "d": 2000,
      "v": 80
    },
    {
      "midi": 57,
      "hit": false,
      "t": 1272000,
      "d": 2000,
      "v": 80
    },
    {
      "midi": 61,
      "hit": false,
      "t": 1272000,
      "d": 2000,
      "v": 80
    },
    {
      "midi": 64,
      "hit": false,
      "t": 1272000,
      "d": 2000,
      "v": 80
    },
    {
      "midi": 57,
      "hit": false,
      "t": 1274000,
      "d": 2000,
      "v": 80
    },
    {
      "midi": 59,
      "hit": false,
      "t": 1276000,
      "d": 2000,
      "v": 80
    },
    {
      "midi": 62,
      "hit": false,
      "t": 1276000,
      "d": 2000,
      "v": 80
    },
    {
      "midi": 67,
      "hit": false,
      "t": 1276000,
      "d": 2000,
      "v": 80
    },
    {
      "midi": 59,
      "hit": false,
      "t": 1278000,
      "d": 2000,
      "v": 80
    },
    {
      "midi": 69,
      "hit": false,
      "t": 1278000,
      "d": 2000,
      "v": 80
    },
    {
      "midi": 62,
      "hit": false,
      "t": 1280000,
      "d": 16000,
      "v": 80
    },
    {
      "midi": 66,
      "hit": false,
      "t": 1280000,
      "d": 16000,
      "v": 80
    },
    {
      "midi": 69,
      "hit": false,
      "t": 1280000,
      "d": 16000,
      "v": 80
    },
    {
      "midi": 74,
      "hit": false,
      "t": 1280000,
      "d": 16000,
      "v": 80
    },
    {
      "midi": 78,
      "hit": false,
      "t": 1280000,
      "d": 16000,
      "v": 80
    },
    {
      "midi": 81,
      "hit": false,
      "t": 1280000,
      "d": 16000,
      "v": 80
    },
    {
      "midi": 86,
      "hit": false,
      "t": 1280000,
      "d": 16000,
      "v": 80
    },
    {
      "midi": 38,
      "hit": false,
      "t": 1280000,
      "d": 16000,
      "v": 80
    }
  ]
}