{
  "jsonPath": "Unknown/Unknown/The Beatles Tribute Band/tell-me-what-you-see.json",
  "path": "Unknown\\Unknown\\The Beatles Tribute Band\\Tell Me What You See.mid",
  "name": "Tell Me What You See",
  "difficulty": "Advanced",
  "bpm": 132.000132000132,
  "notes": [
    {
      "midi": 55,
      "hit": false,
      "t": 3636.36,
      "d": 227.27250000000004,
      "v": 24
    },
    {
      "midi": 59,
      "hit": false,
      "t": 3636.36,
      "d": 227.27250000000004,
      "v": 22
    },
    {
      "midi": 62,
      "hit": false,
      "t": 3636.36,
      "d": 227.27250000000004,
      "v": 27
    },
    {
      "midi": 67,
      "hit": false,
      "t": 3636.36,
      "d": 227.27250000000004,
      "v": 18
    },
    {
      "midi": 55,
      "hit": false,
      "t": 3863.6325,
      "d": 227.27250000000004,
      "v": 34
    },
    {
      "midi": 59,
      "hit": false,
      "t": 3863.6325,
      "d": 227.27250000000004,
      "v": 39
    },
    {
      "midi": 62,
      "hit": false,
      "t": 3863.6325,
      "d": 227.27250000000004,
      "v": 34
    },
    {
      "midi": 67,
      "hit": false,
      "t": 3863.6325,
      "d": 227.27250000000004,
      "v": 21
    },
    {
      "midi": 55,
      "hit": false,
      "t": 4090.905,
      "d": 227.27249999999958,
      "v": 38
    },
    {
      "midi": 59,
      "hit": false,
      "t": 4090.905,
      "d": 227.27249999999958,
      "v": 44
    },
    {
      "midi": 62,
      "hit": false,
      "t": 4090.905,
      "d": 227.27249999999958,
      "v": 41
    },
    {
      "midi": 67,
      "hit": false,
      "t": 4090.905,
      "d": 227.27249999999958,
      "v": 35
    },
    {
      "midi": 55,
      "hit": false,
      "t": 4318.1775,
      "d": 227.27250000000004,
      "v": 33
    },
    {
      "midi": 59,
      "hit": false,
      "t": 4318.1775,
      "d": 227.27250000000004,
      "v": 48
    },
    {
      "midi": 62,
      "hit": false,
      "t": 4318.1775,
      "d": 227.27250000000004,
      "v": 39
    },
    {
      "midi": 67,
      "hit": false,
      "t": 4318.1775,
      "d": 227.27250000000004,
      "v": 30
    },
    {
      "midi": 55,
      "hit": false,
      "t": 4545.45,
      "d": 227.27250000000004,
      "v": 40
    },
    {
      "midi": 59,
      "hit": false,
      "t": 4545.45,
      "d": 227.27250000000004,
      "v": 50
    },
    {
      "midi": 62,
      "hit": false,
      "t": 4545.45,
      "d": 227.27250000000004,
      "v": 46
    },
    {
      "midi": 67,
      "hit": false,
      "t": 4545.45,
      "d": 227.27250000000004,
      "v": 33
    },
    {
      "midi": 55,
      "hit": false,
      "t": 4772.7225,
      "d": 227.27250000000004,
      "v": 31
    },
    {
      "midi": 59,
      "hit": false,
      "t": 4772.7225,
      "d": 227.27250000000004,
      "v": 46
    },
    {
      "midi": 62,
      "hit": false,
      "t": 4772.7225,
      "d": 227.27250000000004,
      "v": 40
    },
    {
      "midi": 67,
      "hit": false,
      "t": 4772.7225,
      "d": 227.27250000000004,
      "v": 27
    },
    {
      "midi": 55,
      "hit": false,
      "t": 4999.995,
      "d": 227.27250000000004,
      "v": 33
    },
    {
      "midi": 59,
      "hit": false,
      "t": 4999.995,
      "d": 227.27250000000004,
      "v": 53
    },
    {
      "midi": 62,
      "hit": false,
      "t": 4999.995,
      "d": 227.27250000000004,
      "v": 43
    },
    {
      "midi": 67,
      "hit": false,
      "t": 4999.995,
      "d": 227.27250000000004,
      "v": 25
    },
    {
      "midi": 55,
      "hit": false,
      "t": 5227.2675,
      "d": 227.27250000000004,
      "v": 38
    },
    {
      "midi": 59,
      "hit": false,
      "t": 5227.2675,
      "d": 227.27250000000004,
      "v": 48
    },
    {
      "midi": 62,
      "hit": false,
      "t": 5227.2675,
      "d": 227.27250000000004,
      "v": 34
    },
    {
      "midi": 67,
      "hit": false,
      "t": 5227.2675,
      "d": 227.27250000000004,
      "v": 30
    },
    {
      "midi": 55,
      "hit": false,
      "t": 5454.54,
      "d": 227.27250000000004,
      "v": 46
    },
    {
      "midi": 59,
      "hit": false,
      "t": 5454.54,
      "d": 227.27250000000004,
      "v": 55
    },
    {
      "midi": 62,
      "hit": false,
      "t": 5454.54,
      "d": 227.27250000000004,
      "v": 43
    },
    {
      "midi": 67,
      "hit": false,
      "t": 5454.54,
      "d": 227.27250000000004,
      "v": 39
    },
    {
      "midi": 55,
      "hit": false,
      "t": 5681.8125,
      "d": 227.27250000000004,
      "v": 47
    },
    {
      "midi": 59,
      "hit": false,
      "t": 5681.8125,
      "d": 227.27250000000004,
      "v": 50
    },
    {
      "midi": 62,
      "hit": false,
      "t": 5681.8125,
      "d": 227.27250000000004,
      "v": 43
    },
    {
      "midi": 67,
      "hit": false,
      "t": 5681.8125,
      "d": 227.27250000000004,
      "v": 33
    },
    {
      "midi": 55,
      "hit": false,
      "t": 5909.085,
      "d": 227.27250000000004,
      "v": 47
    },
    {
      "midi": 59,
      "hit": false,
      "t": 5909.085,
      "d": 227.27250000000004,
      "v": 41
    },
    {
      "midi": 62,
      "hit": false,
      "t": 5909.085,
      "d": 227.27250000000004,
      "v": 51
    },
    {
      "midi": 67,
      "hit": false,
      "t": 5909.085,
      "d": 227.27250000000004,
      "v": 38
    },
    {
      "midi": 55,
      "hit": false,
      "t": 6136.3575,
      "d": 227.27250000000004,
      "v": 37
    },
    {
      "midi": 59,
      "hit": false,
      "t": 6136.3575,
      "d": 227.27250000000004,
      "v": 54
    },
    {
      "midi": 62,
      "hit": false,
      "t": 6136.3575,
      "d": 227.27250000000004,
      "v": 43
    },
    {
      "midi": 67,
      "hit": false,
      "t": 6136.3575,
      "d": 227.27250000000004,
      "v": 37
    },
    {
      "midi": 55,
      "hit": false,
      "t": 6363.63,
      "d": 227.27250000000004,
      "v": 48
    },
    {
      "midi": 59,
      "hit": false,
      "t": 6363.63,
      "d": 227.27250000000004,
      "v": 54
    },
    {
      "midi": 62,
      "hit": false,
      "t": 6363.63,
      "d": 227.27250000000004,
      "v": 50
    },
    {
      "midi": 67,
      "hit": false,
      "t": 6363.63,
      "d": 227.27250000000004,
      "v": 38
    },
    {
      "midi": 55,
      "hit": false,
      "t": 6590.9025,
      "d": 227.27250000000004,
      "v": 41
    },
    {
      "midi": 59,
      "hit": false,
      "t": 6590.9025,
      "d": 227.27250000000004,
      "v": 49
    },
    {
      "midi": 62,
      "hit": false,
      "t": 6590.9025,
      "d": 227.27250000000004,
      "v": 41
    },
    {
      "midi": 67,
      "hit": false,
      "t": 6590.9025,
      "d": 227.27250000000004,
      "v": 35
    },
    {
      "midi": 55,
      "hit": false,
      "t": 6818.175,
      "d": 227.27250000000004,
      "v": 41
    },
    {
      "midi": 59,
      "hit": false,
      "t": 6818.175,
      "d": 227.27250000000004,
      "v": 54
    },
    {
      "midi": 62,
      "hit": false,
      "t": 6818.175,
      "d": 227.27250000000004,
      "v": 46
    },
    {
      "midi": 67,
      "hit": false,
      "t": 6818.175,
      "d": 227.27250000000004,
      "v": 36
    },
    {
      "midi": 55,
      "hit": false,
      "t": 7045.4475,
      "d": 227.27250000000004,
      "v": 31
    },
    {
      "midi": 59,
      "hit": false,
      "t": 7045.4475,
      "d": 227.27250000000004,
      "v": 55
    },
    {
      "midi": 62,
      "hit": false,
      "t": 7045.4475,
      "d": 227.27250000000004,
      "v": 46
    },
    {
      "midi": 67,
      "hit": false,
      "t": 7045.4475,
      "d": 227.27250000000004,
      "v": 36
    },
    {
      "midi": 62,
      "hit": false,
      "t": 7272.72,
      "d": 227.27250000000004,
      "v": 62
    },
    {
      "midi": 55,
      "hit": false,
      "t": 7272.72,
      "d": 227.27250000000004,
      "v": 47
    },
    {
      "midi": 59,
      "hit": false,
      "t": 7272.72,
      "d": 227.27250000000004,
      "v": 56
    },
    {
      "midi": 62,
      "hit": false,
      "t": 7272.72,
      "d": 227.27250000000004,
      "v": 55
    },
    {
      "midi": 67,
      "hit": false,
      "t": 7272.72,
      "d": 227.27250000000004,
      "v": 46
    },
    {
      "midi": 74,
      "hit": false,
      "t": 7499.9925,
      "d": 454.5450000000001,
      "v": 62
    },
    {
      "midi": 79,
      "hit": false,
      "t": 7499.9925,
      "d": 454.5450000000001,
      "v": 62
    },
    {
      "midi": 55,
      "hit": false,
      "t": 7499.9925,
      "d": 227.27250000000004,
      "v": 47
    },
    {
      "midi": 59,
      "hit": false,
      "t": 7499.9925,
      "d": 227.27250000000004,
      "v": 55
    },
    {
      "midi": 62,
      "hit": false,
      "t": 7499.9925,
      "d": 227.27250000000004,
      "v": 51
    },
    {
      "midi": 67,
      "hit": false,
      "t": 7499.9925,
      "d": 227.27250000000004,
      "v": 37
    },
    {
      "midi": 55,
      "hit": false,
      "t": 7727.265,
      "d": 227.27250000000004,
      "v": 33
    },
    {
      "midi": 59,
      "hit": false,
      "t": 7727.265,
      "d": 227.27250000000004,
      "v": 49
    },
    {
      "midi": 62,
      "hit": false,
      "t": 7727.265,
      "d": 227.27250000000004,
      "v": 45
    },
    {
      "midi": 67,
      "hit": false,
      "t": 7727.265,
      "d": 227.27250000000004,
      "v": 34
    },
    {
      "midi": 72,
      "hit": false,
      "t": 7954.5375,
      "d": 454.5450000000001,
      "v": 62
    },
    {
      "midi": 76,
      "hit": false,
      "t": 7954.5375,
      "d": 454.5450000000001,
      "v": 62
    },
    {
      "midi": 55,
      "hit": false,
      "t": 7954.5375,
      "d": 227.27250000000004,
      "v": 47
    },
    {
      "midi": 59,
      "hit": false,
      "t": 7954.5375,
      "d": 227.27250000000004,
      "v": 59
    },
    {
      "midi": 62,
      "hit": false,
      "t": 7954.5375,
      "d": 227.27250000000004,
      "v": 57
    },
    {
      "midi": 67,
      "hit": false,
      "t": 7954.5375,
      "d": 227.27250000000004,
      "v": 51
    },
    {
      "midi": 48,
      "hit": false,
      "t": 8181.81,
      "d": 227.27250000000004,
      "v": 18
    },
    {
      "midi": 52,
      "hit": false,
      "t": 8181.81,
      "d": 227.27250000000004,
      "v": 37
    },
    {
      "midi": 55,
      "hit": false,
      "t": 8181.81,
      "d": 227.27250000000004,
      "v": 40
    },
    {
      "midi": 62,
      "hit": false,
      "t": 8181.81,
      "d": 227.27250000000004,
      "v": 25
    },
    {
      "midi": 67,
      "hit": false,
      "t": 8181.81,
      "d": 227.27250000000004,
      "v": 59
    },
    {
      "midi": 71,
      "hit": false,
      "t": 8409.0825,
      "d": 454.5450000000001,
      "v": 62
    },
    {
      "midi": 74,
      "hit": false,
      "t": 8409.0825,
      "d": 454.5450000000001,
      "v": 62
    },
    {
      "midi": 48,
      "hit": false,
      "t": 8409.0825,
      "d": 227.27249999999913,
      "v": 34
    },
    {
      "midi": 52,
      "hit": false,
      "t": 8409.0825,
      "d": 227.27249999999913,
      "v": 39
    },
    {
      "midi": 55,
      "hit": false,
      "t": 8409.0825,
      "d": 227.27249999999913,
      "v": 37
    },
    {
      "midi": 62,
      "hit": false,
      "t": 8409.0825,
      "d": 227.27249999999913,
      "v": 18
    },
    {
      "midi": 67,
      "hit": false,
      "t": 8409.0825,
      "d": 227.27249999999913,
      "v": 59
    },
    {
      "midi": 48,
      "hit": false,
      "t": 8636.355,
      "d": 227.27249999999913,
      "v": 39
    },
    {
      "midi": 52,
      "hit": false,
      "t": 8636.355,
      "d": 227.27249999999913,
      "v": 40
    },
    {
      "midi": 55,
      "hit": false,
      "t": 8636.355,
      "d": 227.27249999999913,
      "v": 39
    },
    {
      "midi": 62,
      "hit": false,
      "t": 8636.355,
      "d": 227.27249999999913,
      "v": 36
    },
    {
      "midi": 67,
      "hit": false,
      "t": 8636.355,
      "d": 227.27249999999913,
      "v": 59
    },
    {
      "midi": 50,
      "hit": false,
      "t": 8863.627499999999,
      "d": 454.5450000000001,
      "v": 59
    },
    {
      "midi": 54,
      "hit": false,
      "t": 8863.627499999999,
      "d": 454.5450000000001,
      "v": 59
    },
    {
      "midi": 57,
      "hit": false,
      "t": 8863.627499999999,
      "d": 454.5450000000001,
      "v": 59
    },
    {
      "midi": 62,
      "hit": false,
      "t": 8863.627499999999,
      "d": 454.5450000000001,
      "v": 59
    },
    {
      "midi": 67,
      "hit": false,
      "t": 8863.627499999999,
      "d": 454.5450000000001,
      "v": 59
    },
    {
      "midi": 69,
      "hit": false,
      "t": 8863.6275,
      "d": 454.5450000000001,
      "v": 62
    },
    {
      "midi": 72,
      "hit": false,
      "t": 8863.6275,
      "d": 454.5450000000001,
      "v": 62
    },
    {
      "midi": 50,
      "hit": false,
      "t": 9318.172499999999,
      "d": 227.27249999999913,
      "v": 29
    },
    {
      "midi": 54,
      "hit": false,
      "t": 9318.172499999999,
      "d": 227.27249999999913,
      "v": 25
    },
    {
      "midi": 57,
      "hit": false,
      "t": 9318.172499999999,
      "d": 227.27249999999913,
      "v": 41
    },
    {
      "midi": 62,
      "hit": false,
      "t": 9318.172499999999,
      "d": 227.27249999999913,
      "v": 14
    },
    {
      "midi": 67,
      "hit": false,
      "t": 9318.172499999999,
      "d": 227.27249999999913,
      "v": 59
    },
    {
      "midi": 67,
      "hit": false,
      "t": 9318.1725,
      "d": 454.5450000000001,
      "v": 62
    },
    {
      "midi": 71,
      "hit": false,
      "t": 9318.1725,
      "d": 454.5450000000001,
      "v": 62
    },
    {
      "midi": 50,
      "hit": false,
      "t": 9545.444999999998,
      "d": 227.27249999999913,
      "v": 23
    },
    {
      "midi": 54,
      "hit": false,
      "t": 9545.444999999998,
      "d": 227.27249999999913,
      "v": 33
    },
    {
      "midi": 57,
      "hit": false,
      "t": 9545.444999999998,
      "d": 227.27249999999913,
      "v": 40
    },
    {
      "midi": 62,
      "hit": false,
      "t": 9545.444999999998,
      "d": 227.27249999999913,
      "v": 23
    },
    {
      "midi": 67,
      "hit": false,
      "t": 9545.444999999998,
      "d": 227.27249999999913,
      "v": 59
    },
    {
      "midi": 55,
      "hit": false,
      "t": 9772.717499999997,
      "d": 454.5450000000001,
      "v": 59
    },
    {
      "midi": 59,
      "hit": false,
      "t": 9772.717499999997,
      "d": 454.5450000000001,
      "v": 59
    },
    {
      "midi": 62,
      "hit": false,
      "t": 9772.717499999997,
      "d": 454.5450000000001,
      "v": 59
    },
    {
      "midi": 67,
      "hit": false,
      "t": 9772.717499999997,
      "d": 454.5450000000001,
      "v": 59
    },
    {
      "midi": 67,
      "hit": false,
      "t": 9772.7175,
      "d": 681.8174999999992,
      "v": 62
    },
    {
      "midi": 71,
      "hit": false,
      "t": 9772.7175,
      "d": 681.8174999999992,
      "v": 62
    },
    {
      "midi": 55,
      "hit": false,
      "t": 10227.262499999997,
      "d": 227.27249999999913,
      "v": 26
    },
    {
      "midi": 59,
      "hit": false,
      "t": 10227.262499999997,
      "d": 227.27249999999913,
      "v": 39
    },
    {
      "midi": 62,
      "hit": false,
      "t": 10227.262499999997,
      "d": 227.27249999999913,
      "v": 38
    },
    {
      "midi": 67,
      "hit": false,
      "t": 10227.262499999997,
      "d": 227.27249999999913,
      "v": 20
    },
    {
      "midi": 55,
      "hit": false,
      "t": 10454.534999999996,
      "d": 227.27249999999913,
      "v": 11
    },
    {
      "midi": 59,
      "hit": false,
      "t": 10454.534999999996,
      "d": 227.27249999999913,
      "v": 26
    },
    {
      "midi": 62,
      "hit": false,
      "t": 10454.534999999996,
      "d": 227.27249999999913,
      "v": 29
    },
    {
      "midi": 67,
      "hit": false,
      "t": 10454.534999999996,
      "d": 227.27249999999913,
      "v": 11
    },
    {
      "midi": 55,
      "hit": false,
      "t": 10681.807499999995,
      "d": 227.27249999999913,
      "v": 36
    },
    {
      "midi": 59,
      "hit": false,
      "t": 10681.807499999995,
      "d": 227.27249999999913,
      "v": 50
    },
    {
      "midi": 62,
      "hit": false,
      "t": 10681.807499999995,
      "d": 227.27249999999913,
      "v": 49
    },
    {
      "midi": 67,
      "hit": false,
      "t": 10681.807499999995,
      "d": 227.27249999999913,
      "v": 40
    },
    {
      "midi": 55,
      "hit": false,
      "t": 10909.079999999994,
      "d": 227.27249999999913,
      "v": 35
    },
    {
      "midi": 59,
      "hit": false,
      "t": 10909.079999999994,
      "d": 227.27249999999913,
      "v": 50
    },
    {
      "midi": 62,
      "hit": false,
      "t": 10909.079999999994,
      "d": 227.27249999999913,
      "v": 50
    },
    {
      "midi": 67,
      "hit": false,
      "t": 10909.079999999994,
      "d": 227.27249999999913,
      "v": 34
    },
    {
      "midi": 64,
      "hit": false,
      "t": 10909.08,
      "d": 227.27249999999913,
      "v": 62
    },
    {
      "midi": 55,
      "hit": false,
      "t": 11136.352499999994,
      "d": 227.27249999999913,
      "v": 28
    },
    {
      "midi": 59,
      "hit": false,
      "t": 11136.352499999994,
      "d": 227.27249999999913,
      "v": 46
    },
    {
      "midi": 62,
      "hit": false,
      "t": 11136.352499999994,
      "d": 227.27249999999913,
      "v": 45
    },
    {
      "midi": 67,
      "hit": false,
      "t": 11136.352499999994,
      "d": 227.27249999999913,
      "v": 25
    },
    {
      "midi": 62,
      "hit": false,
      "t": 11136.352499999999,
      "d": 454.5450000000001,
      "v": 62
    },
    {
      "midi": 55,
      "hit": false,
      "t": 11363.624999999993,
      "d": 227.27249999999913,
      "v": 31
    },
    {
      "midi": 59,
      "hit": false,
      "t": 11363.624999999993,
      "d": 227.27249999999913,
      "v": 43
    },
    {
      "midi": 62,
      "hit": false,
      "t": 11363.624999999993,
      "d": 227.27249999999913,
      "v": 47
    },
    {
      "midi": 67,
      "hit": false,
      "t": 11363.624999999993,
      "d": 227.27249999999913,
      "v": 22
    },
    {
      "midi": 55,
      "hit": false,
      "t": 11590.897499999992,
      "d": 227.27249999999913,
      "v": 25
    },
    {
      "midi": 59,
      "hit": false,
      "t": 11590.897499999992,
      "d": 227.27249999999913,
      "v": 45
    },
    {
      "midi": 62,
      "hit": false,
      "t": 11590.897499999992,
      "d": 227.27249999999913,
      "v": 39
    },
    {
      "midi": 67,
      "hit": false,
      "t": 11590.897499999992,
      "d": 227.27249999999913,
      "v": 12
    },
    {
      "midi": 67,
      "hit": false,
      "t": 11590.8975,
      "d": 681.8174999999992,
      "v": 62
    },
    {
      "midi": 55,
      "hit": false,
      "t": 11818.169999999991,
      "d": 227.27249999999913,
      "v": 36
    },
    {
      "midi": 60,
      "hit": false,
      "t": 11818.169999999991,
      "d": 227.27249999999913,
      "v": 54
    },
    {
      "midi": 62,
      "hit": false,
      "t": 11818.169999999991,
      "d": 227.27249999999913,
      "v": 51
    },
    {
      "midi": 67,
      "hit": false,
      "t": 11818.169999999991,
      "d": 227.27249999999913,
      "v": 41
    },
    {
      "midi": 55,
      "hit": false,
      "t": 12045.44249999999,
      "d": 227.27249999999913,
      "v": 37
    },
    {
      "midi": 60,
      "hit": false,
      "t": 12045.44249999999,
      "d": 227.27249999999913,
      "v": 52
    },
    {
      "midi": 62,
      "hit": false,
      "t": 12045.44249999999,
      "d": 227.27249999999913,
      "v": 53
    },
    {
      "midi": 67,
      "hit": false,
      "t": 12045.44249999999,
      "d": 227.27249999999913,
      "v": 26
    },
    {
      "midi": 55,
      "hit": false,
      "t": 12272.71499999999,
      "d": 227.27249999999913,
      "v": 37
    },
    {
      "midi": 60,
      "hit": false,
      "t": 12272.71499999999,
      "d": 227.27249999999913,
      "v": 50
    },
    {
      "midi": 62,
      "hit": false,
      "t": 12272.71499999999,
      "d": 227.27249999999913,
      "v": 52
    },
    {
      "midi": 67,
      "hit": false,
      "t": 12272.71499999999,
      "d": 227.27249999999913,
      "v": 41
    },
    {
      "midi": 71,
      "hit": false,
      "t": 12272.714999999998,
      "d": 227.27249999999913,
      "v": 62
    },
    {
      "midi": 55,
      "hit": false,
      "t": 12499.987499999988,
      "d": 227.27249999999913,
      "v": 43
    },
    {
      "midi": 60,
      "hit": false,
      "t": 12499.987499999988,
      "d": 227.27249999999913,
      "v": 50
    },
    {
      "midi": 62,
      "hit": false,
      "t": 12499.987499999988,
      "d": 227.27249999999913,
      "v": 54
    },
    {
      "midi": 67,
      "hit": false,
      "t": 12499.987499999988,
      "d": 227.27249999999913,
      "v": 38
    },
    {
      "midi": 71,
      "hit": false,
      "t": 12499.987499999997,
      "d": 1136.3624999999993,
      "v": 62
    },
    {
      "midi": 55,
      "hit": false,
      "t": 12727.259999999987,
      "d": 227.27249999999913,
      "v": 43
    },
    {
      "midi": 59,
      "hit": false,
      "t": 12727.259999999987,
      "d": 227.27249999999913,
      "v": 49
    },
    {
      "midi": 62,
      "hit": false,
      "t": 12727.259999999987,
      "d": 227.27249999999913,
      "v": 57
    },
    {
      "midi": 67,
      "hit": false,
      "t": 12727.259999999987,
      "d": 227.27249999999913,
      "v": 27
    },
    {
      "midi": 55,
      "hit": false,
      "t": 12954.532499999987,
      "d": 227.27249999999913,
      "v": 31
    },
    {
      "midi": 59,
      "hit": false,
      "t": 12954.532499999987,
      "d": 227.27249999999913,
      "v": 41
    },
    {
      "midi": 62,
      "hit": false,
      "t": 12954.532499999987,
      "d": 227.27249999999913,
      "v": 50
    },
    {
      "midi": 67,
      "hit": false,
      "t": 12954.532499999987,
      "d": 227.27249999999913,
      "v": 17
    },
    {
      "midi": 55,
      "hit": false,
      "t": 13181.804999999986,
      "d": 227.27249999999913,
      "v": 37
    },
    {
      "midi": 59,
      "hit": false,
      "t": 13181.804999999986,
      "d": 227.27249999999913,
      "v": 49
    },
    {
      "midi": 62,
      "hit": false,
      "t": 13181.804999999986,
      "d": 227.27249999999913,
      "v": 51
    },
    {
      "midi": 67,
      "hit": false,
      "t": 13181.804999999986,
      "d": 227.27249999999913,
      "v": 24
    },
    {
      "midi": 55,
      "hit": false,
      "t": 13409.077499999985,
      "d": 227.27249999999913,
      "v": 39
    },
    {
      "midi": 59,
      "hit": false,
      "t": 13409.077499999985,
      "d": 227.27249999999913,
      "v": 53
    },
    {
      "midi": 62,
      "hit": false,
      "t": 13409.077499999985,
      "d": 227.27249999999913,
      "v": 55
    },
    {
      "midi": 67,
      "hit": false,
      "t": 13409.077499999985,
      "d": 227.27249999999913,
      "v": 33
    },
    {
      "midi": 55,
      "hit": false,
      "t": 13636.349999999984,
      "d": 227.27249999999913,
      "v": 37
    },
    {
      "midi": 59,
      "hit": false,
      "t": 13636.349999999984,
      "d": 227.27249999999913,
      "v": 48
    },
    {
      "midi": 62,
      "hit": false,
      "t": 13636.349999999984,
      "d": 227.27249999999913,
      "v": 54
    },
    {
      "midi": 67,
      "hit": false,
      "t": 13636.349999999984,
      "d": 227.27249999999913,
      "v": 33
    },
    {
      "midi": 55,
      "hit": false,
      "t": 13863.622499999983,
      "d": 227.27249999999913,
      "v": 40
    },
    {
      "midi": 59,
      "hit": false,
      "t": 13863.622499999983,
      "d": 227.27249999999913,
      "v": 54
    },
    {
      "midi": 62,
      "hit": false,
      "t": 13863.622499999983,
      "d": 227.27249999999913,
      "v": 55
    },
    {
      "midi": 67,
      "hit": false,
      "t": 13863.622499999983,
      "d": 227.27249999999913,
      "v": 33
    },
    {
      "midi": 55,
      "hit": false,
      "t": 14090.894999999982,
      "d": 227.27249999999913,
      "v": 37
    },
    {
      "midi": 59,
      "hit": false,
      "t": 14090.894999999982,
      "d": 227.27249999999913,
      "v": 52
    },
    {
      "midi": 62,
      "hit": false,
      "t": 14090.894999999982,
      "d": 227.27249999999913,
      "v": 56
    },
    {
      "midi": 67,
      "hit": false,
      "t": 14090.894999999982,
      "d": 227.27249999999913,
      "v": 74
    },
    {
      "midi": 55,
      "hit": false,
      "t": 14318.167499999981,
      "d": 227.27249999999913,
      "v": 41
    },
    {
      "midi": 59,
      "hit": false,
      "t": 14318.167499999981,
      "d": 227.27249999999913,
      "v": 56
    },
    {
      "midi": 62,
      "hit": false,
      "t": 14318.167499999981,
      "d": 227.27249999999913,
      "v": 54
    },
    {
      "midi": 67,
      "hit": false,
      "t": 14318.167499999981,
      "d": 227.27249999999913,
      "v": 44
    },
    {
      "midi": 55,
      "hit": false,
      "t": 14545.43999999998,
      "d": 227.27249999999913,
      "v": 43
    },
    {
      "midi": 59,
      "hit": false,
      "t": 14545.43999999998,
      "d": 227.27249999999913,
      "v": 52
    },
    {
      "midi": 62,
      "hit": false,
      "t": 14545.43999999998,
      "d": 227.27249999999913,
      "v": 54
    },
    {
      "midi": 67,
      "hit": false,
      "t": 14545.43999999998,
      "d": 227.27249999999913,
      "v": 33
    },
    {
      "midi": 62,
      "hit": false,
      "t": 14545.439999999997,
      "d": 227.27249999999913,
      "v": 62
    },
    {
      "midi": 55,
      "hit": false,
      "t": 14772.71249999998,
      "d": 227.27249999999913,
      "v": 32
    },
    {
      "midi": 59,
      "hit": false,
      "t": 14772.71249999998,
      "d": 227.27249999999913,
      "v": 50
    },
    {
      "midi": 62,
      "hit": false,
      "t": 14772.71249999998,
      "d": 227.27249999999913,
      "v": 51
    },
    {
      "midi": 67,
      "hit": false,
      "t": 14772.71249999998,
      "d": 227.27249999999913,
      "v": 35
    },
    {
      "midi": 74,
      "hit": false,
      "t": 14772.712499999996,
      "d": 454.5450000000001,
      "v": 62
    },
    {
      "midi": 79,
      "hit": false,
      "t": 14772.712499999996,
      "d": 454.5450000000001,
      "v": 62
    },
    {
      "midi": 55,
      "hit": false,
      "t": 14999.984999999979,
      "d": 227.27249999999913,
      "v": 40
    },
    {
      "midi": 59,
      "hit": false,
      "t": 14999.984999999979,
      "d": 227.27249999999913,
      "v": 47
    },
    {
      "midi": 62,
      "hit": false,
      "t": 14999.984999999979,
      "d": 227.27249999999913,
      "v": 51
    },
    {
      "midi": 67,
      "hit": false,
      "t": 14999.984999999979,
      "d": 227.27249999999913,
      "v": 31
    },
    {
      "midi": 55,
      "hit": false,
      "t": 15227.257499999978,
      "d": 227.27249999999913,
      "v": 37
    },
    {
      "midi": 59,
      "hit": false,
      "t": 15227.257499999978,
      "d": 227.27249999999913,
      "v": 46
    },
    {
      "midi": 62,
      "hit": false,
      "t": 15227.257499999978,
      "d": 227.27249999999913,
      "v": 47
    },
    {
      "midi": 67,
      "hit": false,
      "t": 15227.257499999978,
      "d": 227.27249999999913,
      "v": 30
    },
    {
      "midi": 72,
      "hit": false,
      "t": 15227.257499999996,
      "d": 454.5450000000001,
      "v": 62
    },
    {
      "midi": 76,
      "hit": false,
      "t": 15227.257499999996,
      "d": 454.5450000000001,
      "v": 62
    },
    {
      "midi": 55,
      "hit": false,
      "t": 15454.529999999977,
      "d": 227.27249999999913,
      "v": 40
    },
    {
      "midi": 60,
      "hit": false,
      "t": 15454.529999999977,
      "d": 227.27249999999913,
      "v": 51
    },
    {
      "midi": 62,
      "hit": false,
      "t": 15454.529999999977,
      "d": 227.27249999999913,
      "v": 55
    },
    {
      "midi": 67,
      "hit": false,
      "t": 15454.529999999977,
      "d": 227.27249999999913,
      "v": 36
    },
    {
      "midi": 55,
      "hit": false,
      "t": 15681.802499999976,
      "d": 227.27249999999913,
      "v": 36
    },
    {
      "midi": 60,
      "hit": false,
      "t": 15681.802499999976,
      "d": 227.27249999999913,
      "v": 47
    },
    {
      "midi": 62,
      "hit": false,
      "t": 15681.802499999976,
      "d": 227.27249999999913,
      "v": 47
    },
    {
      "midi": 67,
      "hit": false,
      "t": 15681.802499999976,
      "d": 227.27249999999913,
      "v": 22
    },
    {
      "midi": 71,
      "hit": false,
      "t": 15681.802499999996,
      "d": 454.5450000000001,
      "v": 62
    },
    {
      "midi": 74,
      "hit": false,
      "t": 15681.802499999996,
      "d": 454.5450000000001,
      "v": 62
    },
    {
      "midi": 55,
      "hit": false,
      "t": 15909.074999999975,
      "d": 227.27249999999913,
      "v": 41
    },
    {
      "midi": 60,
      "hit": false,
      "t": 15909.074999999975,
      "d": 227.27249999999913,
      "v": 55
    },
    {
      "midi": 62,
      "hit": false,
      "t": 15909.074999999975,
      "d": 227.27249999999913,
      "v": 55
    },
    {
      "midi": 67,
      "hit": false,
      "t": 15909.074999999975,
      "d": 227.27249999999913,
      "v": 44
    },
    {
      "midi": 50,
      "hit": false,
      "t": 16136.347499999974,
      "d": 454.54499999999825,
      "v": 55
    },
    {
      "midi": 54,
      "hit": false,
      "t": 16136.347499999974,
      "d": 454.54499999999825,
      "v": 55
    },
    {
      "midi": 57,
      "hit": false,
      "t": 16136.347499999974,
      "d": 454.54499999999825,
      "v": 55
    },
    {
      "midi": 62,
      "hit": false,
      "t": 16136.347499999974,
      "d": 454.54499999999825,
      "v": 55
    },
    {
      "midi": 69,
      "hit": false,
      "t": 16136.347499999996,
      "d": 454.54499999999825,
      "v": 62
    },
    {
      "midi": 72,
      "hit": false,
      "t": 16136.347499999996,
      "d": 454.54499999999825,
      "v": 62
    },
    {
      "midi": 50,
      "hit": false,
      "t": 16590.892499999973,
      "d": 227.27249999999913,
      "v": 55
    },
    {
      "midi": 54,
      "hit": false,
      "t": 16590.892499999973,
      "d": 227.27249999999913,
      "v": 55
    },
    {
      "midi": 57,
      "hit": false,
      "t": 16590.892499999973,
      "d": 227.27249999999913,
      "v": 55
    },
    {
      "midi": 62,
      "hit": false,
      "t": 16590.892499999973,
      "d": 227.27249999999913,
      "v": 55
    },
    {
      "midi": 66,
      "hit": false,
      "t": 16590.892499999973,
      "d": 227.27249999999913,
      "v": 55
    },
    {
      "midi": 67,
      "hit": false,
      "t": 16590.892499999994,
      "d": 454.54499999999825,
      "v": 62
    },
    {
      "midi": 71,
      "hit": false,
      "t": 16590.892499999994,
      "d": 454.54499999999825,
      "v": 62
    },
    {
      "midi": 50,
      "hit": false,
      "t": 16818.16499999997,
      "d": 227.27249999999913,
      "v": 55
    },
    {
      "midi": 54,
      "hit": false,
      "t": 16818.16499999997,
      "d": 227.27249999999913,
      "v": 55
    },
    {
      "midi": 57,
      "hit": false,
      "t": 16818.16499999997,
      "d": 227.27249999999913,
      "v": 55
    },
    {
      "midi": 62,
      "hit": false,
      "t": 16818.16499999997,
      "d": 227.27249999999913,
      "v": 55
    },
    {
      "midi": 66,
      "hit": false,
      "t": 16818.16499999997,
      "d": 227.27249999999913,
      "v": 55
    },
    {
      "midi": 43,
      "hit": false,
      "t": 17045.43749999997,
      "d": 454.54499999999825,
      "v": 55
    },
    {
      "midi": 47,
      "hit": false,
      "t": 17045.43749999997,
      "d": 454.54499999999825,
      "v": 55
    },
    {
      "midi": 50,
      "hit": false,
      "t": 17045.43749999997,
      "d": 454.54499999999825,
      "v": 55
    },
    {
      "midi": 55,
      "hit": false,
      "t": 17045.43749999997,
      "d": 454.54499999999825,
      "v": 55
    },
    {
      "midi": 59,
      "hit": false,
      "t": 17045.43749999997,
      "d": 454.54499999999825,
      "v": 55
    },
    {
      "midi": 62,
      "hit": false,
      "t": 17045.43749999997,
      "d": 454.54499999999825,
      "v": 55
    },
    {
      "midi": 67,
      "hit": false,
      "t": 17045.43749999997,
      "d": 454.54499999999825,
      "v": 55
    },
    {
      "midi": 67,
      "hit": false,
      "t": 17045.437499999993,
      "d": 681.817500000001,
      "v": 62
    },
    {
      "midi": 71,
      "hit": false,
      "t": 17045.437499999993,
      "d": 681.817500000001,
      "v": 62
    },
    {
      "midi": 50,
      "hit": false,
      "t": 17499.98249999997,
      "d": 227.27249999999913,
      "v": 55
    },
    {
      "midi": 55,
      "hit": false,
      "t": 17499.98249999997,
      "d": 227.27249999999913,
      "v": 55
    },
    {
      "midi": 59,
      "hit": false,
      "t": 17499.98249999997,
      "d": 227.27249999999913,
      "v": 55
    },
    {
      "midi": 62,
      "hit": false,
      "t": 17499.98249999997,
      "d": 227.27249999999913,
      "v": 55
    },
    {
      "midi": 67,
      "hit": false,
      "t": 17499.98249999997,
      "d": 227.27249999999913,
      "v": 55
    },
    {
      "midi": 50,
      "hit": false,
      "t": 17727.25499999997,
      "d": 227.27249999999913,
      "v": 55
    },
    {
      "midi": 55,
      "hit": false,
      "t": 17727.25499999997,
      "d": 227.27249999999913,
      "v": 55
    },
    {
      "midi": 59,
      "hit": false,
      "t": 17727.25499999997,
      "d": 227.27249999999913,
      "v": 55
    },
    {
      "midi": 62,
      "hit": false,
      "t": 17727.25499999997,
      "d": 227.27249999999913,
      "v": 55
    },
    {
      "midi": 67,
      "hit": false,
      "t": 17727.25499999997,
      "d": 227.27249999999913,
      "v": 55
    },
    {
      "midi": 50,
      "hit": false,
      "t": 17954.527499999967,
      "d": 227.27249999999913,
      "v": 55
    },
    {
      "midi": 59,
      "hit": false,
      "t": 17954.527499999967,
      "d": 227.27249999999913,
      "v": 55
    },
    {
      "midi": 62,
      "hit": false,
      "t": 17954.527499999967,
      "d": 227.27249999999913,
      "v": 55
    },
    {
      "midi": 67,
      "hit": false,
      "t": 17954.527499999967,
      "d": 227.27249999999913,
      "v": 55
    },
    {
      "midi": 48,
      "hit": false,
      "t": 18181.799999999967,
      "d": 227.27249999999913,
      "v": 55
    },
    {
      "midi": 52,
      "hit": false,
      "t": 18181.799999999967,
      "d": 227.27249999999913,
      "v": 55
    },
    {
      "midi": 55,
      "hit": false,
      "t": 18181.799999999967,
      "d": 227.27249999999913,
      "v": 55
    },
    {
      "midi": 60,
      "hit": false,
      "t": 18181.799999999967,
      "d": 227.27249999999913,
      "v": 55
    },
    {
      "midi": 62,
      "hit": false,
      "t": 18181.799999999967,
      "d": 227.27249999999913,
      "v": 55
    },
    {
      "midi": 67,
      "hit": false,
      "t": 18181.799999999967,
      "d": 227.27249999999913,
      "v": 55
    },
    {
      "midi": 69,
      "hit": false,
      "t": 18181.799999999992,
      "d": 227.27249999999913,
      "v": 62
    },
    {
      "midi": 48,
      "hit": false,
      "t": 18409.072499999966,
      "d": 227.27249999999913,
      "v": 55
    },
    {
      "midi": 52,
      "hit": false,
      "t": 18409.072499999966,
      "d": 227.27249999999913,
      "v": 55
    },
    {
      "midi": 55,
      "hit": false,
      "t": 18409.072499999966,
      "d": 227.27249999999913,
      "v": 55
    },
    {
      "midi": 60,
      "hit": false,
      "t": 18409.072499999966,
      "d": 227.27249999999913,
      "v": 55
    },
    {
      "midi": 62,
      "hit": false,
      "t": 18409.072499999966,
      "d": 227.27249999999913,
      "v": 55
    },
    {
      "midi": 67,
      "hit": false,
      "t": 18409.072499999966,
      "d": 227.27249999999913,
      "v": 55
    },
    {
      "midi": 67,
      "hit": false,
      "t": 18409.07249999999,
      "d": 454.54499999999825,
      "v": 62
    },
    {
      "midi": 48,
      "hit": false,
      "t": 18636.344999999965,
      "d": 227.27249999999913,
      "v": 55
    },
    {
      "midi": 52,
      "hit": false,
      "t": 18636.344999999965,
      "d": 227.27249999999913,
      "v": 55
    },
    {
      "midi": 55,
      "hit": false,
      "t": 18636.344999999965,
      "d": 227.27249999999913,
      "v": 55
    },
    {
      "midi": 60,
      "hit": false,
      "t": 18636.344999999965,
      "d": 227.27249999999913,
      "v": 55
    },
    {
      "midi": 62,
      "hit": false,
      "t": 18636.344999999965,
      "d": 227.27249999999913,
      "v": 55
    },
    {
      "midi": 67,
      "hit": false,
      "t": 18636.344999999965,
      "d": 227.27249999999913,
      "v": 55
    },
    {
      "midi": 50,
      "hit": false,
      "t": 18863.617499999964,
      "d": 454.54499999999825,
      "v": 55
    },
    {
      "midi": 54,
      "hit": false,
      "t": 18863.617499999964,
      "d": 454.54499999999825,
      "v": 55
    },
    {
      "midi": 57,
      "hit": false,
      "t": 18863.617499999964,
      "d": 454.54499999999825,
      "v": 55
    },
    {
      "midi": 62,
      "hit": false,
      "t": 18863.617499999964,
      "d": 454.54499999999825,
      "v": 55
    },
    {
      "midi": 66,
      "hit": false,
      "t": 18863.617499999964,
      "d": 454.54499999999825,
      "v": 55
    },
    {
      "midi": 70,
      "hit": false,
      "t": 18863.61749999999,
      "d": 227.27249999999913,
      "v": 62
    },
    {
      "midi": 69,
      "hit": false,
      "t": 19090.88999999999,
      "d": 227.27249999999913,
      "v": 62
    },
    {
      "midi": 50,
      "hit": false,
      "t": 19318.162499999962,
      "d": 227.27249999999913,
      "v": 55
    },
    {
      "midi": 54,
      "hit": false,
      "t": 19318.162499999962,
      "d": 227.27249999999913,
      "v": 55
    },
    {
      "midi": 57,
      "hit": false,
      "t": 19318.162499999962,
      "d": 227.27249999999913,
      "v": 55
    },
    {
      "midi": 62,
      "hit": false,
      "t": 19318.162499999962,
      "d": 227.27249999999913,
      "v": 55
    },
    {
      "midi": 66,
      "hit": false,
      "t": 19318.162499999962,
      "d": 227.27249999999913,
      "v": 55
    },
    {
      "midi": 67,
      "hit": false,
      "t": 19318.162499999988,
      "d": 454.54499999999825,
      "v": 62
    },
    {
      "midi": 50,
      "hit": false,
      "t": 19545.43499999996,
      "d": 227.27249999999913,
      "v": 55
    },
    {
      "midi": 57,
      "hit": false,
      "t": 19545.43499999996,
      "d": 227.27249999999913,
      "v": 55
    },
    {
      "midi": 62,
      "hit": false,
      "t": 19545.43499999996,
      "d": 227.27249999999913,
      "v": 55
    },
    {
      "midi": 66,
      "hit": false,
      "t": 19545.43499999996,
      "d": 227.27249999999913,
      "v": 55
    },
    {
      "midi": 43,
      "hit": false,
      "t": 19772.70749999996,
      "d": 454.54499999999825,
      "v": 55
    },
    {
      "midi": 47,
      "hit": false,
      "t": 19772.70749999996,
      "d": 454.54499999999825,
      "v": 55
    },
    {
      "midi": 50,
      "hit": false,
      "t": 19772.70749999996,
      "d": 454.54499999999825,
      "v": 55
    },
    {
      "midi": 55,
      "hit": false,
      "t": 19772.70749999996,
      "d": 454.54499999999825,
      "v": 55
    },
    {
      "midi": 62,
      "hit": false,
      "t": 19772.70749999996,
      "d": 454.54499999999825,
      "v": 55
    },
    {
      "midi": 67,
      "hit": false,
      "t": 19772.70749999996,
      "d": 454.54499999999825,
      "v": 61
    },
    {
      "midi": 67,
      "hit": false,
      "t": 19772.707499999986,
      "d": 1136.3624999999993,
      "v": 62
    },
    {
      "midi": 43,
      "hit": false,
      "t": 20227.25249999996,
      "d": 227.27249999999913,
      "v": 55
    },
    {
      "midi": 47,
      "hit": false,
      "t": 20227.25249999996,
      "d": 227.27249999999913,
      "v": 55
    },
    {
      "midi": 50,
      "hit": false,
      "t": 20227.25249999996,
      "d": 227.27249999999913,
      "v": 55
    },
    {
      "midi": 55,
      "hit": false,
      "t": 20227.25249999996,
      "d": 227.27249999999913,
      "v": 55
    },
    {
      "midi": 62,
      "hit": false,
      "t": 20227.25249999996,
      "d": 227.27249999999913,
      "v": 55
    },
    {
      "midi": 67,
      "hit": false,
      "t": 20227.25249999996,
      "d": 227.27249999999913,
      "v": 55
    },
    {
      "midi": 43,
      "hit": false,
      "t": 20454.524999999958,
      "d": 681.817500000001,
      "v": 55
    },
    {
      "midi": 47,
      "hit": false,
      "t": 20454.524999999958,
      "d": 681.817500000001,
      "v": 55
    },
    {
      "midi": 50,
      "hit": false,
      "t": 20454.524999999958,
      "d": 681.817500000001,
      "v": 55
    },
    {
      "midi": 55,
      "hit": false,
      "t": 20454.524999999958,
      "d": 681.817500000001,
      "v": 55
    },
    {
      "midi": 62,
      "hit": false,
      "t": 20454.524999999958,
      "d": 681.817500000001,
      "v": 55
    },
    {
      "midi": 67,
      "hit": false,
      "t": 20454.524999999958,
      "d": 681.817500000001,
      "v": 55
    },
    {
      "midi": 43,
      "hit": false,
      "t": 21136.34249999996,
      "d": 227.27249999999913,
      "v": 55
    },
    {
      "midi": 47,
      "hit": false,
      "t": 21136.34249999996,
      "d": 227.27249999999913,
      "v": 55
    },
    {
      "midi": 50,
      "hit": false,
      "t": 21136.34249999996,
      "d": 227.27249999999913,
      "v": 55
    },
    {
      "midi": 55,
      "hit": false,
      "t": 21136.34249999996,
      "d": 227.27249999999913,
      "v": 55
    },
    {
      "midi": 62,
      "hit": false,
      "t": 21136.34249999996,
      "d": 227.27249999999913,
      "v": 55
    },
    {
      "midi": 67,
      "hit": false,
      "t": 21136.34249999996,
      "d": 227.27249999999913,
      "v": 55
    },
    {
      "midi": 43,
      "hit": false,
      "t": 21363.614999999958,
      "d": 227.27249999999913,
      "v": 55
    },
    {
      "midi": 47,
      "hit": false,
      "t": 21363.614999999958,
      "d": 227.27249999999913,
      "v": 55
    },
    {
      "midi": 50,
      "hit": false,
      "t": 21363.614999999958,
      "d": 227.27249999999913,
      "v": 55
    },
    {
      "midi": 55,
      "hit": false,
      "t": 21363.614999999958,
      "d": 227.27249999999913,
      "v": 55
    },
    {
      "midi": 62,
      "hit": false,
      "t": 21363.614999999958,
      "d": 227.27249999999913,
      "v": 55
    },
    {
      "midi": 67,
      "hit": false,
      "t": 21363.614999999958,
      "d": 227.27249999999913,
      "v": 55
    },
    {
      "midi": 43,
      "hit": false,
      "t": 21590.887499999957,
      "d": 227.27249999999913,
      "v": 55
    },
    {
      "midi": 47,
      "hit": false,
      "t": 21590.887499999957,
      "d": 227.27249999999913,
      "v": 55
    },
    {
      "midi": 50,
      "hit": false,
      "t": 21590.887499999957,
      "d": 227.27249999999913,
      "v": 55
    },
    {
      "midi": 55,
      "hit": false,
      "t": 21590.887499999957,
      "d": 227.27249999999913,
      "v": 55
    },
    {
      "midi": 62,
      "hit": false,
      "t": 21590.887499999957,
      "d": 227.27249999999913,
      "v": 55
    },
    {
      "midi": 67,
      "hit": false,
      "t": 21590.887499999957,
      "d": 227.27249999999913,
      "v": 55
    },
    {
      "midi": 48,
      "hit": false,
      "t": 21818.159999999956,
      "d": 227.27249999999913,
      "v": 59
    },
    {
      "midi": 52,
      "hit": false,
      "t": 21818.159999999956,
      "d": 227.27249999999913,
      "v": 59
    },
    {
      "midi": 55,
      "hit": false,
      "t": 21818.159999999956,
      "d": 227.27249999999913,
      "v": 59
    },
    {
      "midi": 62,
      "hit": false,
      "t": 21818.159999999956,
      "d": 227.27249999999913,
      "v": 59
    },
    {
      "midi": 67,
      "hit": false,
      "t": 21818.159999999956,
      "d": 227.27249999999913,
      "v": 59
    },
    {
      "midi": 69,
      "hit": false,
      "t": 21818.159999999985,
      "d": 227.27250000000276,
      "v": 62
    },
    {
      "midi": 67,
      "hit": false,
      "t": 22026.493124999986,
      "d": 454.5450000000019,
      "v": 62
    },
    {
      "midi": 48,
      "hit": false,
      "t": 22045.432499999955,
      "d": 227.27249999999913,
      "v": 59
    },
    {
      "midi": 52,
      "hit": false,
      "t": 22045.432499999955,
      "d": 227.27249999999913,
      "v": 59
    },
    {
      "midi": 55,
      "hit": false,
      "t": 22045.432499999955,
      "d": 227.27249999999913,
      "v": 59
    },
    {
      "midi": 62,
      "hit": false,
      "t": 22045.432499999955,
      "d": 227.27249999999913,
      "v": 59
    },
    {
      "midi": 67,
      "hit": false,
      "t": 22045.432499999955,
      "d": 227.27249999999913,
      "v": 59
    },
    {
      "midi": 48,
      "hit": false,
      "t": 22272.704999999954,
      "d": 227.27249999999913,
      "v": 59
    },
    {
      "midi": 52,
      "hit": false,
      "t": 22272.704999999954,
      "d": 227.27249999999913,
      "v": 59
    },
    {
      "midi": 55,
      "hit": false,
      "t": 22272.704999999954,
      "d": 227.27249999999913,
      "v": 59
    },
    {
      "midi": 62,
      "hit": false,
      "t": 22272.704999999954,
      "d": 227.27249999999913,
      "v": 59
    },
    {
      "midi": 67,
      "hit": false,
      "t": 22272.704999999954,
      "d": 227.27249999999913,
      "v": 59
    },
    {
      "midi": 64,
      "hit": false,
      "t": 22471.568437499987,
      "d": 454.5450000000019,
      "v": 62
    },
    {
      "midi": 48,
      "hit": false,
      "t": 22499.977499999954,
      "d": 227.27249999999913,
      "v": 59
    },
    {
      "midi": 52,
      "hit": false,
      "t": 22499.977499999954,
      "d": 227.27249999999913,
      "v": 59
    },
    {
      "midi": 55,
      "hit": false,
      "t": 22499.977499999954,
      "d": 227.27249999999913,
      "v": 59
    },
    {
      "midi": 62,
      "hit": false,
      "t": 22499.977499999954,
      "d": 227.27249999999913,
      "v": 59
    },
    {
      "midi": 67,
      "hit": false,
      "t": 22499.977499999954,
      "d": 227.27249999999913,
      "v": 59
    },
    {
      "midi": 48,
      "hit": false,
      "t": 22727.249999999953,
      "d": 227.27249999999913,
      "v": 59
    },
    {
      "midi": 52,
      "hit": false,
      "t": 22727.249999999953,
      "d": 227.27249999999913,
      "v": 59
    },
    {
      "midi": 55,
      "hit": false,
      "t": 22727.249999999953,
      "d": 227.27249999999913,
      "v": 59
    },
    {
      "midi": 62,
      "hit": false,
      "t": 22727.249999999953,
      "d": 227.27249999999913,
      "v": 59
    },
    {
      "midi": 67,
      "hit": false,
      "t": 22727.249999999953,
      "d": 227.27249999999913,
      "v": 59
    },
    {
      "midi": 48,
      "hit": false,
      "t": 22954.522499999952,
      "d": 227.27249999999913,
      "v": 59
    },
    {
      "midi": 52,
      "hit": false,
      "t": 22954.522499999952,
      "d": 227.27249999999913,
      "v": 59
    },
    {
      "midi": 55,
      "hit": false,
      "t": 22954.522499999952,
      "d": 227.27249999999913,
      "v": 59
    },
    {
      "midi": 62,
      "hit": false,
      "t": 22954.522499999952,
      "d": 227.27249999999913,
      "v": 59
    },
    {
      "midi": 67,
      "hit": false,
      "t": 22954.522499999952,
      "d": 227.27249999999913,
      "v": 59
    },
    {
      "midi": 60,
      "hit": false,
      "t": 22978.19671874999,
      "d": 454.5450000000019,
      "v": 62
    },
    {
      "midi": 48,
      "hit": false,
      "t": 23181.79499999995,
      "d": 227.27249999999913,
      "v": 59
    },
    {
      "midi": 52,
      "hit": false,
      "t": 23181.79499999995,
      "d": 227.27249999999913,
      "v": 59
    },
    {
      "midi": 55,
      "hit": false,
      "t": 23181.79499999995,
      "d": 227.27249999999913,
      "v": 59
    },
    {
      "midi": 62,
      "hit": false,
      "t": 23181.79499999995,
      "d": 227.27249999999913,
      "v": 59
    },
    {
      "midi": 67,
      "hit": false,
      "t": 23181.79499999995,
      "d": 227.27249999999913,
      "v": 59
    },
    {
      "midi": 62,
      "hit": false,
      "t": 23390.128124999992,
      "d": 909.0900000000001,
      "v": 62
    },
    {
      "midi": 48,
      "hit": false,
      "t": 23409.06749999995,
      "d": 227.27249999999913,
      "v": 59
    },
    {
      "midi": 52,
      "hit": false,
      "t": 23409.06749999995,
      "d": 227.27249999999913,
      "v": 59
    },
    {
      "midi": 55,
      "hit": false,
      "t": 23409.06749999995,
      "d": 227.27249999999913,
      "v": 59
    },
    {
      "midi": 62,
      "hit": false,
      "t": 23409.06749999995,
      "d": 227.27249999999913,
      "v": 59
    },
    {
      "midi": 67,
      "hit": false,
      "t": 23409.06749999995,
      "d": 227.27249999999913,
      "v": 59
    },
    {
      "midi": 43,
      "hit": false,
      "t": 23636.33999999995,
      "d": 227.27249999999913,
      "v": 59
    },
    {
      "midi": 47,
      "hit": false,
      "t": 23636.33999999995,
      "d": 227.27249999999913,
      "v": 59
    },
    {
      "midi": 50,
      "hit": false,
      "t": 23636.33999999995,
      "d": 227.27249999999913,
      "v": 59
    },
    {
      "midi": 55,
      "hit": false,
      "t": 23636.33999999995,
      "d": 227.27249999999913,
      "v": 59
    },
    {
      "midi": 62,
      "hit": false,
      "t": 23636.33999999995,
      "d": 227.27249999999913,
      "v": 59
    },
    {
      "midi": 67,
      "hit": false,
      "t": 23636.33999999995,
      "d": 227.27249999999913,
      "v": 59
    },
    {
      "midi": 43,
      "hit": false,
      "t": 23863.61249999995,
      "d": 227.27249999999913,
      "v": 59
    },
    {
      "midi": 47,
      "hit": false,
      "t": 23863.61249999995,
      "d": 227.27249999999913,
      "v": 59
    },
    {
      "midi": 50,
      "hit": false,
      "t": 23863.61249999995,
      "d": 227.27249999999913,
      "v": 59
    },
    {
      "midi": 55,
      "hit": false,
      "t": 23863.61249999995,
      "d": 227.27249999999913,
      "v": 59
    },
    {
      "midi": 62,
      "hit": false,
      "t": 23863.61249999995,
      "d": 227.27249999999913,
      "v": 59
    },
    {
      "midi": 67,
      "hit": false,
      "t": 23863.61249999995,
      "d": 227.27249999999913,
      "v": 59
    },
    {
      "midi": 43,
      "hit": false,
      "t": 24090.884999999947,
      "d": 227.27249999999913,
      "v": 59
    },
    {
      "midi": 47,
      "hit": false,
      "t": 24090.884999999947,
      "d": 227.27249999999913,
      "v": 59
    },
    {
      "midi": 50,
      "hit": false,
      "t": 24090.884999999947,
      "d": 227.27249999999913,
      "v": 59
    },
    {
      "midi": 55,
      "hit": false,
      "t": 24090.884999999947,
      "d": 227.27249999999913,
      "v": 59
    },
    {
      "midi": 62,
      "hit": false,
      "t": 24090.884999999947,
      "d": 227.27249999999913,
      "v": 59
    },
    {
      "midi": 67,
      "hit": false,
      "t": 24090.884999999947,
      "d": 227.27249999999913,
      "v": 59
    },
    {
      "midi": 62,
      "hit": false,
      "t": 24299.218124999992,
      "d": 681.817500000001,
      "v": 62
    },
    {
      "midi": 43,
      "hit": false,
      "t": 24318.157499999947,
      "d": 227.27249999999913,
      "v": 59
    },
    {
      "midi": 47,
      "hit": false,
      "t": 24318.157499999947,
      "d": 227.27249999999913,
      "v": 59
    },
    {
      "midi": 50,
      "hit": false,
      "t": 24318.157499999947,
      "d": 227.27249999999913,
      "v": 59
    },
    {
      "midi": 55,
      "hit": false,
      "t": 24318.157499999947,
      "d": 227.27249999999913,
      "v": 59
    },
    {
      "midi": 62,
      "hit": false,
      "t": 24318.157499999947,
      "d": 227.27249999999913,
      "v": 59
    },
    {
      "midi": 67,
      "hit": false,
      "t": 24318.157499999947,
      "d": 227.27249999999913,
      "v": 59
    },
    {
      "midi": 43,
      "hit": false,
      "t": 24545.429999999946,
      "d": 227.27249999999913,
      "v": 59
    },
    {
      "midi": 47,
      "hit": false,
      "t": 24545.429999999946,
      "d": 227.27249999999913,
      "v": 59
    },
    {
      "midi": 50,
      "hit": false,
      "t": 24545.429999999946,
      "d": 227.27249999999913,
      "v": 59
    },
    {
      "midi": 55,
      "hit": false,
      "t": 24545.429999999946,
      "d": 227.27249999999913,
      "v": 59
    },
    {
      "midi": 62,
      "hit": false,
      "t": 24545.429999999946,
      "d": 227.27249999999913,
      "v": 59
    },
    {
      "midi": 67,
      "hit": false,
      "t": 24545.429999999946,
      "d": 227.27249999999913,
      "v": 59
    },
    {
      "midi": 43,
      "hit": false,
      "t": 24772.702499999945,
      "d": 227.27249999999913,
      "v": 59
    },
    {
      "midi": 47,
      "hit": false,
      "t": 24772.702499999945,
      "d": 227.27249999999913,
      "v": 59
    },
    {
      "midi": 50,
      "hit": false,
      "t": 24772.702499999945,
      "d": 227.27249999999913,
      "v": 59
    },
    {
      "midi": 55,
      "hit": false,
      "t": 24772.702499999945,
      "d": 227.27249999999913,
      "v": 59
    },
    {
      "midi": 62,
      "hit": false,
      "t": 24772.702499999945,
      "d": 227.27249999999913,
      "v": 59
    },
    {
      "midi": 67,
      "hit": false,
      "t": 24772.702499999945,
      "d": 227.27249999999913,
      "v": 59
    },
    {
      "midi": 43,
      "hit": false,
      "t": 24999.974999999944,
      "d": 227.27249999999913,
      "v": 59
    },
    {
      "midi": 47,
      "hit": false,
      "t": 24999.974999999944,
      "d": 227.27249999999913,
      "v": 59
    },
    {
      "midi": 50,
      "hit": false,
      "t": 24999.974999999944,
      "d": 227.27249999999913,
      "v": 59
    },
    {
      "midi": 55,
      "hit": false,
      "t": 24999.974999999944,
      "d": 227.27249999999913,
      "v": 59
    },
    {
      "midi": 62,
      "hit": false,
      "t": 24999.974999999944,
      "d": 227.27249999999913,
      "v": 59
    },
    {
      "midi": 67,
      "hit": false,
      "t": 24999.974999999944,
      "d": 227.27249999999913,
      "v": 59
    },
    {
      "midi": 43,
      "hit": false,
      "t": 25227.247499999943,
      "d": 227.27249999999913,
      "v": 59
    },
    {
      "midi": 47,
      "hit": false,
      "t": 25227.247499999943,
      "d": 227.27249999999913,
      "v": 59
    },
    {
      "midi": 50,
      "hit": false,
      "t": 25227.247499999943,
      "d": 227.27249999999913,
      "v": 59
    },
    {
      "midi": 55,
      "hit": false,
      "t": 25227.247499999943,
      "d": 227.27249999999913,
      "v": 59
    },
    {
      "midi": 62,
      "hit": false,
      "t": 25227.247499999943,
      "d": 227.27249999999913,
      "v": 59
    },
    {
      "midi": 67,
      "hit": false,
      "t": 25227.247499999943,
      "d": 227.27249999999913,
      "v": 59
    },
    {
      "midi": 48,
      "hit": false,
      "t": 25454.519999999942,
      "d": 227.27249999999913,
      "v": 59
    },
    {
      "midi": 52,
      "hit": false,
      "t": 25454.519999999942,
      "d": 227.27249999999913,
      "v": 59
    },
    {
      "midi": 55,
      "hit": false,
      "t": 25454.519999999942,
      "d": 227.27249999999913,
      "v": 59
    },
    {
      "midi": 62,
      "hit": false,
      "t": 25454.519999999942,
      "d": 227.27249999999913,
      "v": 59
    },
    {
      "midi": 67,
      "hit": false,
      "t": 25454.519999999942,
      "d": 227.27249999999913,
      "v": 59
    },
    {
      "midi": 69,
      "hit": false,
      "t": 25454.519999999993,
      "d": 227.27249999999913,
      "v": 62
    },
    {
      "midi": 48,
      "hit": false,
      "t": 25681.79249999994,
      "d": 227.27249999999913,
      "v": 59
    },
    {
      "midi": 52,
      "hit": false,
      "t": 25681.79249999994,
      "d": 227.27249999999913,
      "v": 59
    },
    {
      "midi": 55,
      "hit": false,
      "t": 25681.79249999994,
      "d": 227.27249999999913,
      "v": 59
    },
    {
      "midi": 62,
      "hit": false,
      "t": 25681.79249999994,
      "d": 227.27249999999913,
      "v": 59
    },
    {
      "midi": 67,
      "hit": false,
      "t": 25681.79249999994,
      "d": 227.27249999999913,
      "v": 59
    },
    {
      "midi": 67,
      "hit": false,
      "t": 25681.792499999992,
      "d": 454.54499999999825,
      "v": 62
    },
    {
      "midi": 48,
      "hit": false,
      "t": 25909.06499999994,
      "d": 227.27249999999913,
      "v": 59
    },
    {
      "midi": 52,
      "hit": false,
      "t": 25909.06499999994,
      "d": 227.27249999999913,
      "v": 59
    },
    {
      "midi": 55,
      "hit": false,
      "t": 25909.06499999994,
      "d": 227.27249999999913,
      "v": 59
    },
    {
      "midi": 62,
      "hit": false,
      "t": 25909.06499999994,
      "d": 227.27249999999913,
      "v": 59
    },
    {
      "midi": 67,
      "hit": false,
      "t": 25909.06499999994,
      "d": 227.27249999999913,
      "v": 59
    },
    {
      "midi": 48,
      "hit": false,
      "t": 26136.33749999994,
      "d": 227.27249999999913,
      "v": 59
    },
    {
      "midi": 52,
      "hit": false,
      "t": 26136.33749999994,
      "d": 227.27249999999913,
      "v": 59
    },
    {
      "midi": 55,
      "hit": false,
      "t": 26136.33749999994,
      "d": 227.27249999999913,
      "v": 59
    },
    {
      "midi": 62,
      "hit": false,
      "t": 26136.33749999994,
      "d": 227.27249999999913,
      "v": 59
    },
    {
      "midi": 67,
      "hit": false,
      "t": 26136.33749999994,
      "d": 227.27249999999913,
      "v": 59
    },
    {
      "midi": 71,
      "hit": false,
      "t": 26150.542031249992,
      "d": 454.54499999999825,
      "v": 62
    },
    {
      "midi": 48,
      "hit": false,
      "t": 26363.60999999994,
      "d": 227.27249999999913,
      "v": 59
    },
    {
      "midi": 52,
      "hit": false,
      "t": 26363.60999999994,
      "d": 227.27249999999913,
      "v": 59
    },
    {
      "midi": 55,
      "hit": false,
      "t": 26363.60999999994,
      "d": 227.27249999999913,
      "v": 59
    },
    {
      "midi": 62,
      "hit": false,
      "t": 26363.60999999994,
      "d": 227.27249999999913,
      "v": 59
    },
    {
      "midi": 67,
      "hit": false,
      "t": 26363.60999999994,
      "d": 227.27249999999913,
      "v": 59
    },
    {
      "midi": 48,
      "hit": false,
      "t": 26590.882499999938,
      "d": 227.27249999999913,
      "v": 59
    },
    {
      "midi": 52,
      "hit": false,
      "t": 26590.882499999938,
      "d": 227.27249999999913,
      "v": 59
    },
    {
      "midi": 55,
      "hit": false,
      "t": 26590.882499999938,
      "d": 227.27249999999913,
      "v": 59
    },
    {
      "midi": 62,
      "hit": false,
      "t": 26590.882499999938,
      "d": 227.27249999999913,
      "v": 59
    },
    {
      "midi": 67,
      "hit": false,
      "t": 26590.882499999938,
      "d": 227.27249999999913,
      "v": 59
    },
    {
      "midi": 48,
      "hit": false,
      "t": 26818.154999999937,
      "d": 227.27249999999913,
      "v": 59
    },
    {
      "midi": 52,
      "hit": false,
      "t": 26818.154999999937,
      "d": 227.27249999999913,
      "v": 59
    },
    {
      "midi": 55,
      "hit": false,
      "t": 26818.154999999937,
      "d": 227.27249999999913,
      "v": 59
    },
    {
      "midi": 62,
      "hit": false,
      "t": 26818.154999999937,
      "d": 227.27249999999913,
      "v": 59
    },
    {
      "midi": 67,
      "hit": false,
      "t": 26818.154999999937,
      "d": 227.27249999999913,
      "v": 59
    },
    {
      "midi": 67,
      "hit": false,
      "t": 27017.01843749999,
      "d": 42.61359375000029,
      "v": 62
    },
    {
      "midi": 48,
      "hit": false,
      "t": 27045.427499999936,
      "d": 227.27249999999913,
      "v": 59
    },
    {
      "midi": 52,
      "hit": false,
      "t": 27045.427499999936,
      "d": 227.27249999999913,
      "v": 59
    },
    {
      "midi": 55,
      "hit": false,
      "t": 27045.427499999936,
      "d": 227.27249999999913,
      "v": 59
    },
    {
      "midi": 62,
      "hit": false,
      "t": 27045.427499999936,
      "d": 227.27249999999913,
      "v": 59
    },
    {
      "midi": 67,
      "hit": false,
      "t": 27045.427499999936,
      "d": 227.27249999999913,
      "v": 59
    },
    {
      "midi": 43,
      "hit": false,
      "t": 27272.699999999935,
      "d": 227.27249999999913,
      "v": 59
    },
    {
      "midi": 47,
      "hit": false,
      "t": 27272.699999999935,
      "d": 227.27249999999913,
      "v": 59
    },
    {
      "midi": 50,
      "hit": false,
      "t": 27272.699999999935,
      "d": 227.27249999999913,
      "v": 59
    },
    {
      "midi": 55,
      "hit": false,
      "t": 27272.699999999935,
      "d": 227.27249999999913,
      "v": 59
    },
    {
      "midi": 62,
      "hit": false,
      "t": 27272.699999999935,
      "d": 227.27249999999913,
      "v": 59
    },
    {
      "midi": 67,
      "hit": false,
      "t": 27272.699999999935,
      "d": 227.27249999999913,
      "v": 59
    },
    {
      "midi": 43,
      "hit": false,
      "t": 27499.972499999934,
      "d": 227.27249999999913,
      "v": 59
    },
    {
      "midi": 47,
      "hit": false,
      "t": 27499.972499999934,
      "d": 227.27249999999913,
      "v": 59
    },
    {
      "midi": 50,
      "hit": false,
      "t": 27499.972499999934,
      "d": 227.27249999999913,
      "v": 59
    },
    {
      "midi": 55,
      "hit": false,
      "t": 27499.972499999934,
      "d": 227.27249999999913,
      "v": 59
    },
    {
      "midi": 62,
      "hit": false,
      "t": 27499.972499999934,
      "d": 227.27249999999913,
      "v": 59
    },
    {
      "midi": 67,
      "hit": false,
      "t": 27499.972499999934,
      "d": 227.27249999999913,
      "v": 59
    },
    {
      "midi": 43,
      "hit": false,
      "t": 27727.244999999933,
      "d": 227.27249999999913,
      "v": 59
    },
    {
      "midi": 47,
      "hit": false,
      "t": 27727.244999999933,
      "d": 227.27249999999913,
      "v": 59
    },
    {
      "midi": 50,
      "hit": false,
      "t": 27727.244999999933,
      "d": 227.27249999999913,
      "v": 59
    },
    {
      "midi": 55,
      "hit": false,
      "t": 27727.244999999933,
      "d": 227.27249999999913,
      "v": 59
    },
    {
      "midi": 62,
      "hit": false,
      "t": 27727.244999999933,
      "d": 227.27249999999913,
      "v": 59
    },
    {
      "midi": 67,
      "hit": false,
      "t": 27727.244999999933,
      "d": 227.27249999999913,
      "v": 59
    },
    {
      "midi": 43,
      "hit": false,
      "t": 27954.517499999933,
      "d": 227.27249999999913,
      "v": 59
    },
    {
      "midi": 47,
      "hit": false,
      "t": 27954.517499999933,
      "d": 227.27249999999913,
      "v": 59
    },
    {
      "midi": 50,
      "hit": false,
      "t": 27954.517499999933,
      "d": 227.27249999999913,
      "v": 59
    },
    {
      "midi": 55,
      "hit": false,
      "t": 27954.517499999933,
      "d": 227.27249999999913,
      "v": 59
    },
    {
      "midi": 62,
      "hit": false,
      "t": 27954.517499999933,
      "d": 227.27249999999913,
      "v": 59
    },
    {
      "midi": 67,
      "hit": false,
      "t": 27954.517499999933,
      "d": 227.27249999999913,
      "v": 59
    },
    {
      "midi": 43,
      "hit": false,
      "t": 28181.78999999993,
      "d": 227.27249999999913,
      "v": 59
    },
    {
      "midi": 47,
      "hit": false,
      "t": 28181.78999999993,
      "d": 227.27249999999913,
      "v": 59
    },
    {
      "midi": 50,
      "hit": false,
      "t": 28181.78999999993,
      "d": 227.27249999999913,
      "v": 59
    },
    {
      "midi": 55,
      "hit": false,
      "t": 28181.78999999993,
      "d": 227.27249999999913,
      "v": 59
    },
    {
      "midi": 62,
      "hit": false,
      "t": 28181.78999999993,
      "d": 227.27249999999913,
      "v": 59
    },
    {
      "midi": 67,
      "hit": false,
      "t": 28181.78999999993,
      "d": 227.27249999999913,
      "v": 59
    },
    {
      "midi": 43,
      "hit": false,
      "t": 28409.06249999993,
      "d": 227.27249999999913,
      "v": 59
    },
    {
      "midi": 47,
      "hit": false,
      "t": 28409.06249999993,
      "d": 227.27249999999913,
      "v": 59
    },
    {
      "midi": 50,
      "hit": false,
      "t": 28409.06249999993,
      "d": 227.27249999999913,
      "v": 59
    },
    {
      "midi": 55,
      "hit": false,
      "t": 28409.06249999993,
      "d": 227.27249999999913,
      "v": 59
    },
    {
      "midi": 62,
      "hit": false,
      "t": 28409.06249999993,
      "d": 227.27249999999913,
      "v": 59
    },
    {
      "midi": 67,
      "hit": false,
      "t": 28409.06249999993,
      "d": 227.27249999999913,
      "v": 59
    },
    {
      "midi": 43,
      "hit": false,
      "t": 28636.33499999993,
      "d": 227.27249999999913,
      "v": 59
    },
    {
      "midi": 47,
      "hit": false,
      "t": 28636.33499999993,
      "d": 227.27249999999913,
      "v": 59
    },
    {
      "midi": 50,
      "hit": false,
      "t": 28636.33499999993,
      "d": 227.27249999999913,
      "v": 59
    },
    {
      "midi": 55,
      "hit": false,
      "t": 28636.33499999993,
      "d": 227.27249999999913,
      "v": 59
    },
    {
      "midi": 62,
      "hit": false,
      "t": 28636.33499999993,
      "d": 227.27249999999913,
      "v": 59
    },
    {
      "midi": 67,
      "hit": false,
      "t": 28636.33499999993,
      "d": 227.27249999999913,
      "v": 59
    },
    {
      "midi": 43,
      "hit": false,
      "t": 28863.60749999993,
      "d": 227.27249999999913,
      "v": 59
    },
    {
      "midi": 47,
      "hit": false,
      "t": 28863.60749999993,
      "d": 227.27249999999913,
      "v": 59
    },
    {
      "midi": 50,
      "hit": false,
      "t": 28863.60749999993,
      "d": 227.27249999999913,
      "v": 59
    },
    {
      "midi": 55,
      "hit": false,
      "t": 28863.60749999993,
      "d": 227.27249999999913,
      "v": 59
    },
    {
      "midi": 62,
      "hit": false,
      "t": 28863.60749999993,
      "d": 227.27249999999913,
      "v": 59
    },
    {
      "midi": 67,
      "hit": false,
      "t": 28863.60749999993,
      "d": 227.27249999999913,
      "v": 59
    },
    {
      "midi": 48,
      "hit": false,
      "t": 29090.87999999993,
      "d": 227.27249999999913,
      "v": 59
    },
    {
      "midi": 52,
      "hit": false,
      "t": 29090.87999999993,
      "d": 227.27249999999913,
      "v": 59
    },
    {
      "midi": 55,
      "hit": false,
      "t": 29090.87999999993,
      "d": 227.27249999999913,
      "v": 59
    },
    {
      "midi": 62,
      "hit": false,
      "t": 29090.87999999993,
      "d": 227.27249999999913,
      "v": 59
    },
    {
      "midi": 67,
      "hit": false,
      "t": 29090.87999999993,
      "d": 227.27249999999913,
      "v": 59
    },
    {
      "midi": 69,
      "hit": false,
      "t": 29090.87999999999,
      "d": 227.27250000000276,
      "v": 62
    },
    {
      "midi": 67,
      "hit": false,
      "t": 29299.21312499999,
      "d": 454.5450000000019,
      "v": 62
    },
    {
      "midi": 48,
      "hit": false,
      "t": 29318.152499999927,
      "d": 227.27249999999913,
      "v": 59
    },
    {
      "midi": 52,
      "hit": false,
      "t": 29318.152499999927,
      "d": 227.27249999999913,
      "v": 59
    },
    {
      "midi": 55,
      "hit": false,
      "t": 29318.152499999927,
      "d": 227.27249999999913,
      "v": 59
    },
    {
      "midi": 62,
      "hit": false,
      "t": 29318.152499999927,
      "d": 227.27249999999913,
      "v": 59
    },
    {
      "midi": 67,
      "hit": false,
      "t": 29318.152499999927,
      "d": 227.27249999999913,
      "v": 59
    },
    {
      "midi": 48,
      "hit": false,
      "t": 29545.424999999927,
      "d": 227.27249999999913,
      "v": 59
    },
    {
      "midi": 52,
      "hit": false,
      "t": 29545.424999999927,
      "d": 227.27249999999913,
      "v": 59
    },
    {
      "midi": 55,
      "hit": false,
      "t": 29545.424999999927,
      "d": 227.27249999999913,
      "v": 59
    },
    {
      "midi": 62,
      "hit": false,
      "t": 29545.424999999927,
      "d": 227.27249999999913,
      "v": 59
    },
    {
      "midi": 67,
      "hit": false,
      "t": 29545.424999999927,
      "d": 227.27249999999913,
      "v": 59
    },
    {
      "midi": 64,
      "hit": false,
      "t": 29744.288437499992,
      "d": 454.5450000000019,
      "v": 62
    },
    {
      "midi": 48,
      "hit": false,
      "t": 29772.697499999926,
      "d": 227.27249999999913,
      "v": 59
    },
    {
      "midi": 52,
      "hit": false,
      "t": 29772.697499999926,
      "d": 227.27249999999913,
      "v": 59
    },
    {
      "midi": 55,
      "hit": false,
      "t": 29772.697499999926,
      "d": 227.27249999999913,
      "v": 59
    },
    {
      "midi": 62,
      "hit": false,
      "t": 29772.697499999926,
      "d": 227.27249999999913,
      "v": 59
    },
    {
      "midi": 67,
      "hit": false,
      "t": 29772.697499999926,
      "d": 227.27249999999913,
      "v": 59
    },
    {
      "midi": 48,
      "hit": false,
      "t": 29999.969999999925,
      "d": 227.27249999999913,
      "v": 59
    },
    {
      "midi": 52,
      "hit": false,
      "t": 29999.969999999925,
      "d": 227.27249999999913,
      "v": 59
    },
    {
      "midi": 55,
      "hit": false,
      "t": 29999.969999999925,
      "d": 227.27249999999913,
      "v": 59
    },
    {
      "midi": 62,
      "hit": false,
      "t": 29999.969999999925,
      "d": 227.27249999999913,
      "v": 59
    },
    {
      "midi": 67,
      "hit": false,
      "t": 29999.969999999925,
      "d": 227.27249999999913,
      "v": 59
    },
    {
      "midi": 48,
      "hit": false,
      "t": 30227.242499999924,
      "d": 227.27249999999913,
      "v": 59
    },
    {
      "midi": 52,
      "hit": false,
      "t": 30227.242499999924,
      "d": 227.27249999999913,
      "v": 59
    },
    {
      "midi": 55,
      "hit": false,
      "t": 30227.242499999924,
      "d": 227.27249999999913,
      "v": 59
    },
    {
      "midi": 62,
      "hit": false,
      "t": 30227.242499999924,
      "d": 227.27249999999913,
      "v": 59
    },
    {
      "midi": 67,
      "hit": false,
      "t": 30227.242499999924,
      "d": 227.27249999999913,
      "v": 59
    },
    {
      "midi": 60,
      "hit": false,
      "t": 30250.916718749995,
      "d": 454.5450000000019,
      "v": 62
    },
    {
      "midi": 48,
      "hit": false,
      "t": 30454.514999999923,
      "d": 227.27249999999913,
      "v": 59
    },
    {
      "midi": 52,
      "hit": false,
      "t": 30454.514999999923,
      "d": 227.27249999999913,
      "v": 59
    },
    {
      "midi": 55,
      "hit": false,
      "t": 30454.514999999923,
      "d": 227.27249999999913,
      "v": 59
    },
    {
      "midi": 62,
      "hit": false,
      "t": 30454.514999999923,
      "d": 227.27249999999913,
      "v": 59
    },
    {
      "midi": 67,
      "hit": false,
      "t": 30454.514999999923,
      "d": 227.27249999999913,
      "v": 59
    },
    {
      "midi": 62,
      "hit": false,
      "t": 30662.848124999997,
      "d": 909.0900000000001,
      "v": 62
    },
    {
      "midi": 48,
      "hit": false,
      "t": 30681.787499999922,
      "d": 227.27249999999913,
      "v": 59
    },
    {
      "midi": 52,
      "hit": false,
      "t": 30681.787499999922,
      "d": 227.27249999999913,
      "v": 59
    },
    {
      "midi": 55,
      "hit": false,
      "t": 30681.787499999922,
      "d": 227.27249999999913,
      "v": 59
    },
    {
      "midi": 62,
      "hit": false,
      "t": 30681.787499999922,
      "d": 227.27249999999913,
      "v": 59
    },
    {
      "midi": 67,
      "hit": false,
      "t": 30681.787499999922,
      "d": 227.27249999999913,
      "v": 59
    },
    {
      "midi": 43,
      "hit": false,
      "t": 30909.05999999992,
      "d": 227.27249999999913,
      "v": 59
    },
    {
      "midi": 47,
      "hit": false,
      "t": 30909.05999999992,
      "d": 227.27249999999913,
      "v": 59
    },
    {
      "midi": 50,
      "hit": false,
      "t": 30909.05999999992,
      "d": 227.27249999999913,
      "v": 59
    },
    {
      "midi": 55,
      "hit": false,
      "t": 30909.05999999992,
      "d": 227.27249999999913,
      "v": 59
    },
    {
      "midi": 62,
      "hit": false,
      "t": 30909.05999999992,
      "d": 227.27249999999913,
      "v": 59
    },
    {
      "midi": 67,
      "hit": false,
      "t": 30909.05999999992,
      "d": 227.27249999999913,
      "v": 59
    },
    {
      "midi": 43,
      "hit": false,
      "t": 31136.33249999992,
      "d": 227.27249999999913,
      "v": 59
    },
    {
      "midi": 47,
      "hit": false,
      "t": 31136.33249999992,
      "d": 227.27249999999913,
      "v": 59
    },
    {
      "midi": 50,
      "hit": false,
      "t": 31136.33249999992,
      "d": 227.27249999999913,
      "v": 59
    },
    {
      "midi": 55,
      "hit": false,
      "t": 31136.33249999992,
      "d": 227.27249999999913,
      "v": 59
    },
    {
      "midi": 62,
      "hit": false,
      "t": 31136.33249999992,
      "d": 227.27249999999913,
      "v": 59
    },
    {
      "midi": 67,
      "hit": false,
      "t": 31136.33249999992,
      "d": 227.27249999999913,
      "v": 59
    },
    {
      "midi": 43,
      "hit": false,
      "t": 31363.60499999992,
      "d": 227.27249999999913,
      "v": 59
    },
    {
      "midi": 47,
      "hit": false,
      "t": 31363.60499999992,
      "d": 227.27249999999913,
      "v": 59
    },
    {
      "midi": 50,
      "hit": false,
      "t": 31363.60499999992,
      "d": 227.27249999999913,
      "v": 59
    },
    {
      "midi": 55,
      "hit": false,
      "t": 31363.60499999992,
      "d": 227.27249999999913,
      "v": 59
    },
    {
      "midi": 62,
      "hit": false,
      "t": 31363.60499999992,
      "d": 227.27249999999913,
      "v": 59
    },
    {
      "midi": 67,
      "hit": false,
      "t": 31363.60499999992,
      "d": 227.27249999999913,
      "v": 59
    },
    {
      "midi": 62,
      "hit": false,
      "t": 31571.938124999997,
      "d": 681.817500000001,
      "v": 62
    },
    {
      "midi": 43,
      "hit": false,
      "t": 31590.87749999992,
      "d": 227.27249999999913,
      "v": 59
    },
    {
      "midi": 47,
      "hit": false,
      "t": 31590.87749999992,
      "d": 227.27249999999913,
      "v": 59
    },
    {
      "midi": 50,
      "hit": false,
      "t": 31590.87749999992,
      "d": 227.27249999999913,
      "v": 59
    },
    {
      "midi": 55,
      "hit": false,
      "t": 31590.87749999992,
      "d": 227.27249999999913,
      "v": 59
    },
    {
      "midi": 62,
      "hit": false,
      "t": 31590.87749999992,
      "d": 227.27249999999913,
      "v": 59
    },
    {
      "midi": 67,
      "hit": false,
      "t": 31590.87749999992,
      "d": 227.27249999999913,
      "v": 59
    },
    {
      "midi": 43,
      "hit": false,
      "t": 31818.149999999918,
      "d": 227.27249999999913,
      "v": 59
    },
    {
      "midi": 47,
      "hit": false,
      "t": 31818.149999999918,
      "d": 227.27249999999913,
      "v": 59
    },
    {
      "midi": 50,
      "hit": false,
      "t": 31818.149999999918,
      "d": 227.27249999999913,
      "v": 59
    },
    {
      "midi": 55,
      "hit": false,
      "t": 31818.149999999918,
      "d": 227.27249999999913,
      "v": 59
    },
    {
      "midi": 62,
      "hit": false,
      "t": 31818.149999999918,
      "d": 227.27249999999913,
      "v": 59
    },
    {
      "midi": 67,
      "hit": false,
      "t": 31818.149999999918,
      "d": 227.27249999999913,
      "v": 59
    },
    {
      "midi": 43,
      "hit": false,
      "t": 32045.422499999917,
      "d": 227.27249999999913,
      "v": 59
    },
    {
      "midi": 47,
      "hit": false,
      "t": 32045.422499999917,
      "d": 227.27249999999913,
      "v": 59
    },
    {
      "midi": 50,
      "hit": false,
      "t": 32045.422499999917,
      "d": 227.27249999999913,
      "v": 59
    },
    {
      "midi": 55,
      "hit": false,
      "t": 32045.422499999917,
      "d": 227.27249999999913,
      "v": 59
    },
    {
      "midi": 62,
      "hit": false,
      "t": 32045.422499999917,
      "d": 227.27249999999913,
      "v": 59
    },
    {
      "midi": 67,
      "hit": false,
      "t": 32045.422499999917,
      "d": 227.27249999999913,
      "v": 59
    },
    {
      "midi": 43,
      "hit": false,
      "t": 32272.694999999916,
      "d": 227.27249999999913,
      "v": 59
    },
    {
      "midi": 47,
      "hit": false,
      "t": 32272.694999999916,
      "d": 227.27249999999913,
      "v": 59
    },
    {
      "midi": 50,
      "hit": false,
      "t": 32272.694999999916,
      "d": 227.27249999999913,
      "v": 59
    },
    {
      "midi": 55,
      "hit": false,
      "t": 32272.694999999916,
      "d": 227.27249999999913,
      "v": 59
    },
    {
      "midi": 62,
      "hit": false,
      "t": 32272.694999999916,
      "d": 227.27249999999913,
      "v": 59
    },
    {
      "midi": 67,
      "hit": false,
      "t": 32272.694999999916,
      "d": 227.27249999999913,
      "v": 59
    },
    {
      "midi": 43,
      "hit": false,
      "t": 32499.967499999915,
      "d": 227.27249999999913,
      "v": 59
    },
    {
      "midi": 47,
      "hit": false,
      "t": 32499.967499999915,
      "d": 227.27249999999913,
      "v": 59
    },
    {
      "midi": 50,
      "hit": false,
      "t": 32499.967499999915,
      "d": 227.27249999999913,
      "v": 59
    },
    {
      "midi": 55,
      "hit": false,
      "t": 32499.967499999915,
      "d": 227.27249999999913,
      "v": 59
    },
    {
      "midi": 62,
      "hit": false,
      "t": 32499.967499999915,
      "d": 227.27249999999913,
      "v": 59
    },
    {
      "midi": 67,
      "hit": false,
      "t": 32499.967499999915,
      "d": 227.27249999999913,
      "v": 59
    },
    {
      "midi": 48,
      "hit": false,
      "t": 32727.239999999914,
      "d": 227.27250000000276,
      "v": 59
    },
    {
      "midi": 52,
      "hit": false,
      "t": 32727.239999999914,
      "d": 227.27250000000276,
      "v": 59
    },
    {
      "midi": 55,
      "hit": false,
      "t": 32727.239999999914,
      "d": 227.27250000000276,
      "v": 59
    },
    {
      "midi": 62,
      "hit": false,
      "t": 32727.239999999914,
      "d": 227.27250000000276,
      "v": 59
    },
    {
      "midi": 67,
      "hit": false,
      "t": 32727.239999999914,
      "d": 227.27250000000276,
      "v": 59
    },
    {
      "midi": 69,
      "hit": false,
      "t": 32727.239999999998,
      "d": 227.27249999999913,
      "v": 62
    },
    {
      "midi": 48,
      "hit": false,
      "t": 32954.51249999992,
      "d": 227.27249999999913,
      "v": 59
    },
    {
      "midi": 52,
      "hit": false,
      "t": 32954.51249999992,
      "d": 227.27249999999913,
      "v": 59
    },
    {
      "midi": 55,
      "hit": false,
      "t": 32954.51249999992,
      "d": 227.27249999999913,
      "v": 59
    },
    {
      "midi": 62,
      "hit": false,
      "t": 32954.51249999992,
      "d": 227.27249999999913,
      "v": 59
    },
    {
      "midi": 67,
      "hit": false,
      "t": 32954.51249999992,
      "d": 227.27249999999913,
      "v": 59
    },
    {
      "midi": 67,
      "hit": false,
      "t": 32954.5125,
      "d": 454.54499999999825,
      "v": 62
    },
    {
      "midi": 48,
      "hit": false,
      "t": 33181.784999999916,
      "d": 227.27249999999913,
      "v": 59
    },
    {
      "midi": 52,
      "hit": false,
      "t": 33181.784999999916,
      "d": 227.27249999999913,
      "v": 59
    },
    {
      "midi": 55,
      "hit": false,
      "t": 33181.784999999916,
      "d": 227.27249999999913,
      "v": 59
    },
    {
      "midi": 62,
      "hit": false,
      "t": 33181.784999999916,
      "d": 227.27249999999913,
      "v": 59
    },
    {
      "midi": 67,
      "hit": false,
      "t": 33181.784999999916,
      "d": 227.27249999999913,
      "v": 59
    },
    {
      "midi": 50,
      "hit": false,
      "t": 33409.057499999915,
      "d": 454.54499999999825,
      "v": 59
    },
    {
      "midi": 54,
      "hit": false,
      "t": 33409.057499999915,
      "d": 454.54499999999825,
      "v": 59
    },
    {
      "midi": 57,
      "hit": false,
      "t": 33409.057499999915,
      "d": 454.54499999999825,
      "v": 59
    },
    {
      "midi": 62,
      "hit": false,
      "t": 33409.057499999915,
      "d": 454.54499999999825,
      "v": 59
    },
    {
      "midi": 66,
      "hit": false,
      "t": 33409.057499999915,
      "d": 454.54499999999825,
      "v": 59
    },
    {
      "midi": 71,
      "hit": false,
      "t": 33423.26203124999,
      "d": 454.54499999999825,
      "v": 62
    },
    {
      "midi": 50,
      "hit": false,
      "t": 33863.60249999991,
      "d": 227.27249999999913,
      "v": 59
    },
    {
      "midi": 54,
      "hit": false,
      "t": 33863.60249999991,
      "d": 227.27249999999913,
      "v": 59
    },
    {
      "midi": 57,
      "hit": false,
      "t": 33863.60249999991,
      "d": 227.27249999999913,
      "v": 59
    },
    {
      "midi": 62,
      "hit": false,
      "t": 33863.60249999991,
      "d": 227.27249999999913,
      "v": 59
    },
    {
      "midi": 66,
      "hit": false,
      "t": 33863.60249999991,
      "d": 227.27249999999913,
      "v": 59
    },
    {
      "midi": 50,
      "hit": false,
      "t": 34090.87499999991,
      "d": 227.27249999999913,
      "v": 59
    },
    {
      "midi": 54,
      "hit": false,
      "t": 34090.87499999991,
      "d": 227.27249999999913,
      "v": 59
    },
    {
      "midi": 57,
      "hit": false,
      "t": 34090.87499999991,
      "d": 227.27249999999913,
      "v": 59
    },
    {
      "midi": 62,
      "hit": false,
      "t": 34090.87499999991,
      "d": 227.27249999999913,
      "v": 59
    },
    {
      "midi": 66,
      "hit": false,
      "t": 34090.87499999991,
      "d": 227.27249999999913,
      "v": 59
    },
    {
      "midi": 67,
      "hit": false,
      "t": 34289.73843749999,
      "d": 42.61359375000029,
      "v": 62
    },
    {
      "midi": 43,
      "hit": false,
      "t": 34318.14749999991,
      "d": 454.54499999999825,
      "v": 59
    },
    {
      "midi": 47,
      "hit": false,
      "t": 34318.14749999991,
      "d": 454.54499999999825,
      "v": 59
    },
    {
      "midi": 50,
      "hit": false,
      "t": 34318.14749999991,
      "d": 454.54499999999825,
      "v": 59
    },
    {
      "midi": 55,
      "hit": false,
      "t": 34318.14749999991,
      "d": 454.54499999999825,
      "v": 59
    },
    {
      "midi": 62,
      "hit": false,
      "t": 34318.14749999991,
      "d": 454.54499999999825,
      "v": 59
    },
    {
      "midi": 67,
      "hit": false,
      "t": 34318.14749999991,
      "d": 454.54499999999825,
      "v": 59
    },
    {
      "midi": 43,
      "hit": false,
      "t": 34772.69249999991,
      "d": 227.27249999999913,
      "v": 59
    },
    {
      "midi": 47,
      "hit": false,
      "t": 34772.69249999991,
      "d": 227.27249999999913,
      "v": 59
    },
    {
      "midi": 50,
      "hit": false,
      "t": 34772.69249999991,
      "d": 227.27249999999913,
      "v": 59
    },
    {
      "midi": 55,
      "hit": false,
      "t": 34772.69249999991,
      "d": 227.27249999999913,
      "v": 59
    },
    {
      "midi": 62,
      "hit": false,
      "t": 34772.69249999991,
      "d": 227.27249999999913,
      "v": 59
    },
    {
      "midi": 67,
      "hit": false,
      "t": 34772.69249999991,
      "d": 227.27249999999913,
      "v": 59
    },
    {
      "midi": 43,
      "hit": false,
      "t": 34999.96499999991,
      "d": 454.54499999999825,
      "v": 59
    },
    {
      "midi": 47,
      "hit": false,
      "t": 34999.96499999991,
      "d": 454.54499999999825,
      "v": 59
    },
    {
      "midi": 50,
      "hit": false,
      "t": 34999.96499999991,
      "d": 454.54499999999825,
      "v": 59
    },
    {
      "midi": 55,
      "hit": false,
      "t": 34999.96499999991,
      "d": 454.54499999999825,
      "v": 59
    },
    {
      "midi": 62,
      "hit": false,
      "t": 34999.96499999991,
      "d": 454.54499999999825,
      "v": 59
    },
    {
      "midi": 67,
      "hit": false,
      "t": 34999.96499999991,
      "d": 454.54499999999825,
      "v": 59
    },
    {
      "midi": 43,
      "hit": false,
      "t": 35454.50999999991,
      "d": 227.27249999999913,
      "v": 59
    },
    {
      "midi": 47,
      "hit": false,
      "t": 35454.50999999991,
      "d": 227.27249999999913,
      "v": 59
    },
    {
      "midi": 50,
      "hit": false,
      "t": 35454.50999999991,
      "d": 227.27249999999913,
      "v": 59
    },
    {
      "midi": 55,
      "hit": false,
      "t": 35454.50999999991,
      "d": 227.27249999999913,
      "v": 59
    },
    {
      "midi": 62,
      "hit": false,
      "t": 35454.50999999991,
      "d": 227.27249999999913,
      "v": 59
    },
    {
      "midi": 67,
      "hit": false,
      "t": 35454.50999999991,
      "d": 227.27249999999913,
      "v": 59
    },
    {
      "midi": 43,
      "hit": false,
      "t": 35681.78249999991,
      "d": 227.27249999999913,
      "v": 59
    },
    {
      "midi": 47,
      "hit": false,
      "t": 35681.78249999991,
      "d": 227.27249999999913,
      "v": 59
    },
    {
      "midi": 50,
      "hit": false,
      "t": 35681.78249999991,
      "d": 227.27249999999913,
      "v": 59
    },
    {
      "midi": 55,
      "hit": false,
      "t": 35681.78249999991,
      "d": 227.27249999999913,
      "v": 59
    },
    {
      "midi": 62,
      "hit": false,
      "t": 35681.78249999991,
      "d": 227.27249999999913,
      "v": 59
    },
    {
      "midi": 67,
      "hit": false,
      "t": 35681.78249999991,
      "d": 227.27249999999913,
      "v": 59
    },
    {
      "midi": 43,
      "hit": false,
      "t": 35909.054999999906,
      "d": 227.27249999999913,
      "v": 59
    },
    {
      "midi": 47,
      "hit": false,
      "t": 35909.054999999906,
      "d": 227.27249999999913,
      "v": 59
    },
    {
      "midi": 50,
      "hit": false,
      "t": 35909.054999999906,
      "d": 227.27249999999913,
      "v": 59
    },
    {
      "midi": 55,
      "hit": false,
      "t": 35909.054999999906,
      "d": 227.27249999999913,
      "v": 59
    },
    {
      "midi": 62,
      "hit": false,
      "t": 35909.054999999906,
      "d": 227.27249999999913,
      "v": 59
    },
    {
      "midi": 67,
      "hit": false,
      "t": 35909.054999999906,
      "d": 227.27249999999913,
      "v": 59
    },
    {
      "midi": 43,
      "hit": false,
      "t": 36136.327499999905,
      "d": 227.27249999999913,
      "v": 59
    },
    {
      "midi": 47,
      "hit": false,
      "t": 36136.327499999905,
      "d": 227.27249999999913,
      "v": 59
    },
    {
      "midi": 50,
      "hit": false,
      "t": 36136.327499999905,
      "d": 227.27249999999913,
      "v": 59
    },
    {
      "midi": 55,
      "hit": false,
      "t": 36136.327499999905,
      "d": 227.27249999999913,
      "v": 59
    },
    {
      "midi": 62,
      "hit": false,
      "t": 36136.327499999905,
      "d": 227.27249999999913,
      "v": 59
    },
    {
      "midi": 67,
      "hit": false,
      "t": 36136.327499999905,
      "d": 227.27249999999913,
      "v": 59
    },
    {
      "midi": 55,
      "hit": false,
      "t": 36363.599999999904,
      "d": 227.27249999999913,
      "v": 47
    },
    {
      "midi": 59,
      "hit": false,
      "t": 36363.599999999904,
      "d": 227.27249999999913,
      "v": 56
    },
    {
      "midi": 62,
      "hit": false,
      "t": 36363.599999999904,
      "d": 227.27249999999913,
      "v": 55
    },
    {
      "midi": 67,
      "hit": false,
      "t": 36363.599999999904,
      "d": 227.27249999999913,
      "v": 46
    },
    {
      "midi": 62,
      "hit": false,
      "t": 36363.59999999999,
      "d": 227.27249999999913,
      "v": 62
    },
    {
      "midi": 55,
      "hit": false,
      "t": 36590.8724999999,
      "d": 227.27249999999913,
      "v": 47
    },
    {
      "midi": 59,
      "hit": false,
      "t": 36590.8724999999,
      "d": 227.27249999999913,
      "v": 55
    },
    {
      "midi": 62,
      "hit": false,
      "t": 36590.8724999999,
      "d": 227.27249999999913,
      "v": 51
    },
    {
      "midi": 67,
      "hit": false,
      "t": 36590.8724999999,
      "d": 227.27249999999913,
      "v": 37
    },
    {
      "midi": 74,
      "hit": false,
      "t": 36590.87249999999,
      "d": 454.54499999999825,
      "v": 62
    },
    {
      "midi": 79,
      "hit": false,
      "t": 36590.87249999999,
      "d": 454.54499999999825,
      "v": 62
    },
    {
      "midi": 55,
      "hit": false,
      "t": 36818.1449999999,
      "d": 227.27249999999913,
      "v": 33
    },
    {
      "midi": 59,
      "hit": false,
      "t": 36818.1449999999,
      "d": 227.27249999999913,
      "v": 49
    },
    {
      "midi": 62,
      "hit": false,
      "t": 36818.1449999999,
      "d": 227.27249999999913,
      "v": 45
    },
    {
      "midi": 67,
      "hit": false,
      "t": 36818.1449999999,
      "d": 227.27249999999913,
      "v": 34
    },
    {
      "midi": 55,
      "hit": false,
      "t": 37045.4174999999,
      "d": 227.27249999999913,
      "v": 47
    },
    {
      "midi": 59,
      "hit": false,
      "t": 37045.4174999999,
      "d": 227.27249999999913,
      "v": 59
    },
    {
      "midi": 62,
      "hit": false,
      "t": 37045.4174999999,
      "d": 227.27249999999913,
      "v": 57
    },
    {
      "midi": 67,
      "hit": false,
      "t": 37045.4174999999,
      "d": 227.27249999999913,
      "v": 51
    },
    {
      "midi": 72,
      "hit": false,
      "t": 37045.41749999999,
      "d": 454.54499999999825,
      "v": 62
    },
    {
      "midi": 76,
      "hit": false,
      "t": 37045.41749999999,
      "d": 454.54499999999825,
      "v": 62
    },
    {
      "midi": 48,
      "hit": false,
      "t": 37272.6899999999,
      "d": 227.27249999999913,
      "v": 18
    },
    {
      "midi": 52,
      "hit": false,
      "t": 37272.6899999999,
      "d": 227.27249999999913,
      "v": 37
    },
    {
      "midi": 55,
      "hit": false,
      "t": 37272.6899999999,
      "d": 227.27249999999913,
      "v": 40
    },
    {
      "midi": 62,
      "hit": false,
      "t": 37272.6899999999,
      "d": 227.27249999999913,
      "v": 25
    },
    {
      "midi": 67,
      "hit": false,
      "t": 37272.6899999999,
      "d": 227.27249999999913,
      "v": 59
    },
    {
      "midi": 48,
      "hit": false,
      "t": 37499.9624999999,
      "d": 227.27249999999913,
      "v": 34
    },
    {
      "midi": 52,
      "hit": false,
      "t": 37499.9624999999,
      "d": 227.27249999999913,
      "v": 39
    },
    {
      "midi": 55,
      "hit": false,
      "t": 37499.9624999999,
      "d": 227.27249999999913,
      "v": 37
    },
    {
      "midi": 62,
      "hit": false,
      "t": 37499.9624999999,
      "d": 227.27249999999913,
      "v": 18
    },
    {
      "midi": 67,
      "hit": false,
      "t": 37499.9624999999,
      "d": 227.27249999999913,
      "v": 59
    },
    {
      "midi": 71,
      "hit": false,
      "t": 37499.96249999999,
      "d": 454.54499999999825,
      "v": 62
    },
    {
      "midi": 74,
      "hit": false,
      "t": 37499.96249999999,
      "d": 454.54499999999825,
      "v": 62
    },
    {
      "midi": 48,
      "hit": false,
      "t": 37727.2349999999,
      "d": 227.27249999999913,
      "v": 39
    },
    {
      "midi": 52,
      "hit": false,
      "t": 37727.2349999999,
      "d": 227.27249999999913,
      "v": 40
    },
    {
      "midi": 55,
      "hit": false,
      "t": 37727.2349999999,
      "d": 227.27249999999913,
      "v": 39
    },
    {
      "midi": 62,
      "hit": false,
      "t": 37727.2349999999,
      "d": 227.27249999999913,
      "v": 36
    },
    {
      "midi": 67,
      "hit": false,
      "t": 37727.2349999999,
      "d": 227.27249999999913,
      "v": 59
    },
    {
      "midi": 50,
      "hit": false,
      "t": 37954.5074999999,
      "d": 454.54499999999825,
      "v": 59
    },
    {
      "midi": 54,
      "hit": false,
      "t": 37954.5074999999,
      "d": 454.54499999999825,
      "v": 59
    },
    {
      "midi": 57,
      "hit": false,
      "t": 37954.5074999999,
      "d": 454.54499999999825,
      "v": 59
    },
    {
      "midi": 62,
      "hit": false,
      "t": 37954.5074999999,
      "d": 454.54499999999825,
      "v": 59
    },
    {
      "midi": 67,
      "hit": false,
      "t": 37954.5074999999,
      "d": 454.54499999999825,
      "v": 59
    },
    {
      "midi": 69,
      "hit": false,
      "t": 37954.507499999985,
      "d": 454.54499999999825,
      "v": 62
    },
    {
      "midi": 72,
      "hit": false,
      "t": 37954.507499999985,
      "d": 454.54499999999825,
      "v": 62
    },
    {
      "midi": 50,
      "hit": false,
      "t": 38409.052499999896,
      "d": 227.27249999999913,
      "v": 29
    },
    {
      "midi": 54,
      "hit": false,
      "t": 38409.052499999896,
      "d": 227.27249999999913,
      "v": 25
    },
    {
      "midi": 57,
      "hit": false,
      "t": 38409.052499999896,
      "d": 227.27249999999913,
      "v": 41
    },
    {
      "midi": 62,
      "hit": false,
      "t": 38409.052499999896,
      "d": 227.27249999999913,
      "v": 14
    },
    {
      "midi": 67,
      "hit": false,
      "t": 38409.052499999896,
      "d": 227.27249999999913,
      "v": 59
    },
    {
      "midi": 67,
      "hit": false,
      "t": 38409.05249999998,
      "d": 454.54499999999825,
      "v": 62
    },
    {
      "midi": 71,
      "hit": false,
      "t": 38409.05249999998,
      "d": 454.54499999999825,
      "v": 62
    },
    {
      "midi": 50,
      "hit": false,
      "t": 38636.324999999895,
      "d": 227.27249999999913,
      "v": 23
    },
    {
      "midi": 54,
      "hit": false,
      "t": 38636.324999999895,
      "d": 227.27249999999913,
      "v": 33
    },
    {
      "midi": 57,
      "hit": false,
      "t": 38636.324999999895,
      "d": 227.27249999999913,
      "v": 40
    },
    {
      "midi": 62,
      "hit": false,
      "t": 38636.324999999895,
      "d": 227.27249999999913,
      "v": 23
    },
    {
      "midi": 67,
      "hit": false,
      "t": 38636.324999999895,
      "d": 227.27249999999913,
      "v": 59
    },
    {
      "midi": 55,
      "hit": false,
      "t": 38863.597499999894,
      "d": 454.54499999999825,
      "v": 59
    },
    {
      "midi": 59,
      "hit": false,
      "t": 38863.597499999894,
      "d": 454.54499999999825,
      "v": 59
    },
    {
      "midi": 62,
      "hit": false,
      "t": 38863.597499999894,
      "d": 454.54499999999825,
      "v": 59
    },
    {
      "midi": 67,
      "hit": false,
      "t": 38863.597499999894,
      "d": 454.54499999999825,
      "v": 59
    },
    {
      "midi": 67,
      "hit": false,
      "t": 38863.59749999998,
      "d": 681.8174999999974,
      "v": 62
    },
    {
      "midi": 71,
      "hit": false,
      "t": 38863.59749999998,
      "d": 681.8174999999974,
      "v": 62
    },
    {
      "midi": 55,
      "hit": false,
      "t": 39318.14249999989,
      "d": 227.27249999999913,
      "v": 26
    },
    {
      "midi": 59,
      "hit": false,
      "t": 39318.14249999989,
      "d": 227.27249999999913,
      "v": 39
    },
    {
      "midi": 62,
      "hit": false,
      "t": 39318.14249999989,
      "d": 227.27249999999913,
      "v": 38
    },
    {
      "midi": 67,
      "hit": false,
      "t": 39318.14249999989,
      "d": 227.27249999999913,
      "v": 20
    },
    {
      "midi": 55,
      "hit": false,
      "t": 39545.41499999989,
      "d": 227.27249999999913,
      "v": 11
    },
    {
      "midi": 59,
      "hit": false,
      "t": 39545.41499999989,
      "d": 227.27249999999913,
      "v": 26
    },
    {
      "midi": 62,
      "hit": false,
      "t": 39545.41499999989,
      "d": 227.27249999999913,
      "v": 29
    },
    {
      "midi": 67,
      "hit": false,
      "t": 39545.41499999989,
      "d": 227.27249999999913,
      "v": 11
    },
    {
      "midi": 55,
      "hit": false,
      "t": 39772.68749999989,
      "d": 227.27249999999913,
      "v": 36
    },
    {
      "midi": 59,
      "hit": false,
      "t": 39772.68749999989,
      "d": 227.27249999999913,
      "v": 50
    },
    {
      "midi": 62,
      "hit": false,
      "t": 39772.68749999989,
      "d": 227.27249999999913,
      "v": 49
    },
    {
      "midi": 67,
      "hit": false,
      "t": 39772.68749999989,
      "d": 227.27249999999913,
      "v": 40
    },
    {
      "midi": 55,
      "hit": false,
      "t": 39999.95999999989,
      "d": 227.27249999999913,
      "v": 35
    },
    {
      "midi": 59,
      "hit": false,
      "t": 39999.95999999989,
      "d": 227.27249999999913,
      "v": 50
    },
    {
      "midi": 62,
      "hit": false,
      "t": 39999.95999999989,
      "d": 227.27249999999913,
      "v": 50
    },
    {
      "midi": 67,
      "hit": false,
      "t": 39999.95999999989,
      "d": 227.27249999999913,
      "v": 34
    },
    {
      "midi": 64,
      "hit": false,
      "t": 39999.95999999998,
      "d": 227.27249999999913,
      "v": 62
    },
    {
      "midi": 55,
      "hit": false,
      "t": 40227.23249999989,
      "d": 227.27249999999913,
      "v": 28
    },
    {
      "midi": 59,
      "hit": false,
      "t": 40227.23249999989,
      "d": 227.27249999999913,
      "v": 46
    },
    {
      "midi": 62,
      "hit": false,
      "t": 40227.23249999989,
      "d": 227.27249999999913,
      "v": 45
    },
    {
      "midi": 67,
      "hit": false,
      "t": 40227.23249999989,
      "d": 227.27249999999913,
      "v": 25
    },
    {
      "midi": 62,
      "hit": false,
      "t": 40227.23249999998,
      "d": 454.54499999999825,
      "v": 62
    },
    {
      "midi": 55,
      "hit": false,
      "t": 40454.50499999989,
      "d": 227.27249999999913,
      "v": 31
    },
    {
      "midi": 59,
      "hit": false,
      "t": 40454.50499999989,
      "d": 227.27249999999913,
      "v": 43
    },
    {
      "midi": 62,
      "hit": false,
      "t": 40454.50499999989,
      "d": 227.27249999999913,
      "v": 47
    },
    {
      "midi": 67,
      "hit": false,
      "t": 40454.50499999989,
      "d": 227.27249999999913,
      "v": 22
    },
    {
      "midi": 55,
      "hit": false,
      "t": 40681.77749999989,
      "d": 227.27249999999913,
      "v": 25
    },
    {
      "midi": 59,
      "hit": false,
      "t": 40681.77749999989,
      "d": 227.27249999999913,
      "v": 45
    },
    {
      "midi": 62,
      "hit": false,
      "t": 40681.77749999989,
      "d": 227.27249999999913,
      "v": 39
    },
    {
      "midi": 67,
      "hit": false,
      "t": 40681.77749999989,
      "d": 227.27249999999913,
      "v": 12
    },
    {
      "midi": 67,
      "hit": false,
      "t": 40681.777499999975,
      "d": 681.8174999999974,
      "v": 62
    },
    {
      "midi": 55,
      "hit": false,
      "t": 40909.04999999989,
      "d": 227.27249999999913,
      "v": 36
    },
    {
      "midi": 60,
      "hit": false,
      "t": 40909.04999999989,
      "d": 227.27249999999913,
      "v": 54
    },
    {
      "midi": 62,
      "hit": false,
      "t": 40909.04999999989,
      "d": 227.27249999999913,
      "v": 51
    },
    {
      "midi": 67,
      "hit": false,
      "t": 40909.04999999989,
      "d": 227.27249999999913,
      "v": 41
    },
    {
      "midi": 55,
      "hit": false,
      "t": 41136.322499999886,
      "d": 227.27249999999913,
      "v": 37
    },
    {
      "midi": 60,
      "hit": false,
      "t": 41136.322499999886,
      "d": 227.27249999999913,
      "v": 52
    },
    {
      "midi": 62,
      "hit": false,
      "t": 41136.322499999886,
      "d": 227.27249999999913,
      "v": 53
    },
    {
      "midi": 67,
      "hit": false,
      "t": 41136.322499999886,
      "d": 227.27249999999913,
      "v": 26
    },
    {
      "midi": 55,
      "hit": false,
      "t": 41363.594999999885,
      "d": 227.27249999999913,
      "v": 37
    },
    {
      "midi": 60,
      "hit": false,
      "t": 41363.594999999885,
      "d": 227.27249999999913,
      "v": 50
    },
    {
      "midi": 62,
      "hit": false,
      "t": 41363.594999999885,
      "d": 227.27249999999913,
      "v": 52
    },
    {
      "midi": 67,
      "hit": false,
      "t": 41363.594999999885,
      "d": 227.27249999999913,
      "v": 41
    },
    {
      "midi": 71,
      "hit": false,
      "t": 41363.59499999997,
      "d": 227.27249999999913,
      "v": 62
    },
    {
      "midi": 55,
      "hit": false,
      "t": 41590.867499999884,
      "d": 227.27249999999913,
      "v": 43
    },
    {
      "midi": 60,
      "hit": false,
      "t": 41590.867499999884,
      "d": 227.27249999999913,
      "v": 50
    },
    {
      "midi": 62,
      "hit": false,
      "t": 41590.867499999884,
      "d": 227.27249999999913,
      "v": 54
    },
    {
      "midi": 67,
      "hit": false,
      "t": 41590.867499999884,
      "d": 227.27249999999913,
      "v": 38
    },
    {
      "midi": 71,
      "hit": false,
      "t": 41590.86749999997,
      "d": 1136.362500000003,
      "v": 62
    },
    {
      "midi": 55,
      "hit": false,
      "t": 41818.13999999988,
      "d": 227.27249999999913,
      "v": 43
    },
    {
      "midi": 59,
      "hit": false,
      "t": 41818.13999999988,
      "d": 227.27249999999913,
      "v": 49
    },
    {
      "midi": 62,
      "hit": false,
      "t": 41818.13999999988,
      "d": 227.27249999999913,
      "v": 57
    },
    {
      "midi": 67,
      "hit": false,
      "t": 41818.13999999988,
      "d": 227.27249999999913,
      "v": 27
    },
    {
      "midi": 55,
      "hit": false,
      "t": 42045.41249999988,
      "d": 227.27249999999913,
      "v": 31
    },
    {
      "midi": 59,
      "hit": false,
      "t": 42045.41249999988,
      "d": 227.27249999999913,
      "v": 41
    },
    {
      "midi": 62,
      "hit": false,
      "t": 42045.41249999988,
      "d": 227.27249999999913,
      "v": 50
    },
    {
      "midi": 67,
      "hit": false,
      "t": 42045.41249999988,
      "d": 227.27249999999913,
      "v": 17
    },
    {
      "midi": 55,
      "hit": false,
      "t": 42272.68499999988,
      "d": 227.27249999999913,
      "v": 37
    },
    {
      "midi": 59,
      "hit": false,
      "t": 42272.68499999988,
      "d": 227.27249999999913,
      "v": 49
    },
    {
      "midi": 62,
      "hit": false,
      "t": 42272.68499999988,
      "d": 227.27249999999913,
      "v": 51
    },
    {
      "midi": 67,
      "hit": false,
      "t": 42272.68499999988,
      "d": 227.27249999999913,
      "v": 24
    },
    {
      "midi": 55,
      "hit": false,
      "t": 42499.95749999988,
      "d": 227.27249999999913,
      "v": 39
    },
    {
      "midi": 59,
      "hit": false,
      "t": 42499.95749999988,
      "d": 227.27249999999913,
      "v": 53
    },
    {
      "midi": 62,
      "hit": false,
      "t": 42499.95749999988,
      "d": 227.27249999999913,
      "v": 55
    },
    {
      "midi": 67,
      "hit": false,
      "t": 42499.95749999988,
      "d": 227.27249999999913,
      "v": 33
    },
    {
      "midi": 55,
      "hit": false,
      "t": 42727.22999999988,
      "d": 227.27249999999913,
      "v": 37
    },
    {
      "midi": 59,
      "hit": false,
      "t": 42727.22999999988,
      "d": 227.27249999999913,
      "v": 48
    },
    {
      "midi": 62,
      "hit": false,
      "t": 42727.22999999988,
      "d": 227.27249999999913,
      "v": 54
    },
    {
      "midi": 67,
      "hit": false,
      "t": 42727.22999999988,
      "d": 227.27249999999913,
      "v": 33
    },
    {
      "midi": 55,
      "hit": false,
      "t": 42954.50249999988,
      "d": 227.27249999999913,
      "v": 40
    },
    {
      "midi": 59,
      "hit": false,
      "t": 42954.50249999988,
      "d": 227.27249999999913,
      "v": 54
    },
    {
      "midi": 62,
      "hit": false,
      "t": 42954.50249999988,
      "d": 227.27249999999913,
      "v": 55
    },
    {
      "midi": 67,
      "hit": false,
      "t": 42954.50249999988,
      "d": 227.27249999999913,
      "v": 33
    },
    {
      "midi": 55,
      "hit": false,
      "t": 43181.77499999988,
      "d": 227.27249999999913,
      "v": 37
    },
    {
      "midi": 59,
      "hit": false,
      "t": 43181.77499999988,
      "d": 227.27249999999913,
      "v": 52
    },
    {
      "midi": 62,
      "hit": false,
      "t": 43181.77499999988,
      "d": 227.27249999999913,
      "v": 56
    },
    {
      "midi": 67,
      "hit": false,
      "t": 43181.77499999988,
      "d": 227.27249999999913,
      "v": 74
    },
    {
      "midi": 55,
      "hit": false,
      "t": 43409.04749999988,
      "d": 227.27249999999913,
      "v": 41
    },
    {
      "midi": 59,
      "hit": false,
      "t": 43409.04749999988,
      "d": 227.27249999999913,
      "v": 56
    },
    {
      "midi": 62,
      "hit": false,
      "t": 43409.04749999988,
      "d": 227.27249999999913,
      "v": 54
    },
    {
      "midi": 67,
      "hit": false,
      "t": 43409.04749999988,
      "d": 227.27249999999913,
      "v": 44
    },
    {
      "midi": 55,
      "hit": false,
      "t": 43636.319999999876,
      "d": 227.27249999999913,
      "v": 43
    },
    {
      "midi": 59,
      "hit": false,
      "t": 43636.319999999876,
      "d": 227.27249999999913,
      "v": 52
    },
    {
      "midi": 62,
      "hit": false,
      "t": 43636.319999999876,
      "d": 227.27249999999913,
      "v": 54
    },
    {
      "midi": 67,
      "hit": false,
      "t": 43636.319999999876,
      "d": 227.27249999999913,
      "v": 33
    },
    {
      "midi": 62,
      "hit": false,
      "t": 43636.31999999997,
      "d": 227.27249999999913,
      "v": 62
    },
    {
      "midi": 55,
      "hit": false,
      "t": 43863.592499999875,
      "d": 227.27249999999913,
      "v": 32
    },
    {
      "midi": 59,
      "hit": false,
      "t": 43863.592499999875,
      "d": 227.27249999999913,
      "v": 50
    },
    {
      "midi": 62,
      "hit": false,
      "t": 43863.592499999875,
      "d": 227.27249999999913,
      "v": 51
    },
    {
      "midi": 67,
      "hit": false,
      "t": 43863.592499999875,
      "d": 227.27249999999913,
      "v": 35
    },
    {
      "midi": 74,
      "hit": false,
      "t": 43863.59249999997,
      "d": 454.54499999999825,
      "v": 62
    },
    {
      "midi": 79,
      "hit": false,
      "t": 43863.59249999997,
      "d": 454.54499999999825,
      "v": 62
    },
    {
      "midi": 55,
      "hit": false,
      "t": 44090.864999999874,
      "d": 227.27249999999913,
      "v": 40
    },
    {
      "midi": 59,
      "hit": false,
      "t": 44090.864999999874,
      "d": 227.27249999999913,
      "v": 47
    },
    {
      "midi": 62,
      "hit": false,
      "t": 44090.864999999874,
      "d": 227.27249999999913,
      "v": 51
    },
    {
      "midi": 67,
      "hit": false,
      "t": 44090.864999999874,
      "d": 227.27249999999913,
      "v": 31
    },
    {
      "midi": 55,
      "hit": false,
      "t": 44318.13749999987,
      "d": 227.27249999999913,
      "v": 37
    },
    {
      "midi": 59,
      "hit": false,
      "t": 44318.13749999987,
      "d": 227.27249999999913,
      "v": 46
    },
    {
      "midi": 62,
      "hit": false,
      "t": 44318.13749999987,
      "d": 227.27249999999913,
      "v": 47
    },
    {
      "midi": 67,
      "hit": false,
      "t": 44318.13749999987,
      "d": 227.27249999999913,
      "v": 30
    },
    {
      "midi": 72,
      "hit": false,
      "t": 44318.13749999997,
      "d": 454.54499999999825,
      "v": 62
    },
    {
      "midi": 76,
      "hit": false,
      "t": 44318.13749999997,
      "d": 454.54499999999825,
      "v": 62
    },
    {
      "midi": 55,
      "hit": false,
      "t": 44545.40999999987,
      "d": 227.27249999999913,
      "v": 40
    },
    {
      "midi": 60,
      "hit": false,
      "t": 44545.40999999987,
      "d": 227.27249999999913,
      "v": 51
    },
    {
      "midi": 62,
      "hit": false,
      "t": 44545.40999999987,
      "d": 227.27249999999913,
      "v": 55
    },
    {
      "midi": 67,
      "hit": false,
      "t": 44545.40999999987,
      "d": 227.27249999999913,
      "v": 36
    },
    {
      "midi": 55,
      "hit": false,
      "t": 44772.68249999987,
      "d": 227.27249999999913,
      "v": 36
    },
    {
      "midi": 60,
      "hit": false,
      "t": 44772.68249999987,
      "d": 227.27249999999913,
      "v": 47
    },
    {
      "midi": 62,
      "hit": false,
      "t": 44772.68249999987,
      "d": 227.27249999999913,
      "v": 47
    },
    {
      "midi": 67,
      "hit": false,
      "t": 44772.68249999987,
      "d": 227.27249999999913,
      "v": 22
    },
    {
      "midi": 71,
      "hit": false,
      "t": 44772.682499999966,
      "d": 454.54499999999825,
      "v": 62
    },
    {
      "midi": 74,
      "hit": false,
      "t": 44772.682499999966,
      "d": 454.54499999999825,
      "v": 62
    },
    {
      "midi": 55,
      "hit": false,
      "t": 44999.95499999987,
      "d": 227.27249999999913,
      "v": 41
    },
    {
      "midi": 60,
      "hit": false,
      "t": 44999.95499999987,
      "d": 227.27249999999913,
      "v": 55
    },
    {
      "midi": 62,
      "hit": false,
      "t": 44999.95499999987,
      "d": 227.27249999999913,
      "v": 55
    },
    {
      "midi": 67,
      "hit": false,
      "t": 44999.95499999987,
      "d": 227.27249999999913,
      "v": 44
    },
    {
      "midi": 50,
      "hit": false,
      "t": 45227.22749999987,
      "d": 454.54499999999825,
      "v": 55
    },
    {
      "midi": 54,
      "hit": false,
      "t": 45227.22749999987,
      "d": 454.54499999999825,
      "v": 55
    },
    {
      "midi": 57,
      "hit": false,
      "t": 45227.22749999987,
      "d": 454.54499999999825,
      "v": 55
    },
    {
      "midi": 62,
      "hit": false,
      "t": 45227.22749999987,
      "d": 454.54499999999825,
      "v": 55
    },
    {
      "midi": 69,
      "hit": false,
      "t": 45227.227499999964,
      "d": 454.54499999999825,
      "v": 62
    },
    {
      "midi": 72,
      "hit": false,
      "t": 45227.227499999964,
      "d": 454.54499999999825,
      "v": 62
    },
    {
      "midi": 50,
      "hit": false,
      "t": 45681.77249999987,
      "d": 227.27249999999913,
      "v": 55
    },
    {
      "midi": 54,
      "hit": false,
      "t": 45681.77249999987,
      "d": 227.27249999999913,
      "v": 55
    },
    {
      "midi": 57,
      "hit": false,
      "t": 45681.77249999987,
      "d": 227.27249999999913,
      "v": 55
    },
    {
      "midi": 62,
      "hit": false,
      "t": 45681.77249999987,
      "d": 227.27249999999913,
      "v": 55
    },
    {
      "midi": 66,
      "hit": false,
      "t": 45681.77249999987,
      "d": 227.27249999999913,
      "v": 55
    },
    {
      "midi": 67,
      "hit": false,
      "t": 45681.77249999996,
      "d": 454.54499999999825,
      "v": 62
    },
    {
      "midi": 71,
      "hit": false,
      "t": 45681.77249999996,
      "d": 454.54499999999825,
      "v": 62
    },
    {
      "midi": 50,
      "hit": false,
      "t": 45909.04499999987,
      "d": 227.27249999999913,
      "v": 55
    },
    {
      "midi": 54,
      "hit": false,
      "t": 45909.04499999987,
      "d": 227.27249999999913,
      "v": 55
    },
    {
      "midi": 57,
      "hit": false,
      "t": 45909.04499999987,
      "d": 227.27249999999913,
      "v": 55
    },
    {
      "midi": 62,
      "hit": false,
      "t": 45909.04499999987,
      "d": 227.27249999999913,
      "v": 55
    },
    {
      "midi": 66,
      "hit": false,
      "t": 45909.04499999987,
      "d": 227.27249999999913,
      "v": 55
    },
    {
      "midi": 43,
      "hit": false,
      "t": 46136.31749999987,
      "d": 454.54499999999825,
      "v": 55
    },
    {
      "midi": 47,
      "hit": false,
      "t": 46136.31749999987,
      "d": 454.54499999999825,
      "v": 55
    },
    {
      "midi": 50,
      "hit": false,
      "t": 46136.31749999987,
      "d": 454.54499999999825,
      "v": 55
    },
    {
      "midi": 55,
      "hit": false,
      "t": 46136.31749999987,
      "d": 454.54499999999825,
      "v": 55
    },
    {
      "midi": 59,
      "hit": false,
      "t": 46136.31749999987,
      "d": 454.54499999999825,
      "v": 55
    },
    {
      "midi": 62,
      "hit": false,
      "t": 46136.31749999987,
      "d": 454.54499999999825,
      "v": 55
    },
    {
      "midi": 67,
      "hit": false,
      "t": 46136.31749999987,
      "d": 454.54499999999825,
      "v": 55
    },
    {
      "midi": 67,
      "hit": false,
      "t": 46136.31749999996,
      "d": 681.8174999999974,
      "v": 62
    },
    {
      "midi": 71,
      "hit": false,
      "t": 46136.31749999996,
      "d": 681.8174999999974,
      "v": 62
    },
    {
      "midi": 50,
      "hit": false,
      "t": 46590.862499999865,
      "d": 227.27249999999913,
      "v": 55
    },
    {
      "midi": 55,
      "hit": false,
      "t": 46590.862499999865,
      "d": 227.27249999999913,
      "v": 55
    },
    {
      "midi": 59,
      "hit": false,
      "t": 46590.862499999865,
      "d": 227.27249999999913,
      "v": 55
    },
    {
      "midi": 62,
      "hit": false,
      "t": 46590.862499999865,
      "d": 227.27249999999913,
      "v": 55
    },
    {
      "midi": 67,
      "hit": false,
      "t": 46590.862499999865,
      "d": 227.27249999999913,
      "v": 55
    },
    {
      "midi": 50,
      "hit": false,
      "t": 46818.134999999864,
      "d": 227.27249999999913,
      "v": 55
    },
    {
      "midi": 55,
      "hit": false,
      "t": 46818.134999999864,
      "d": 227.27249999999913,
      "v": 55
    },
    {
      "midi": 59,
      "hit": false,
      "t": 46818.134999999864,
      "d": 227.27249999999913,
      "v": 55
    },
    {
      "midi": 62,
      "hit": false,
      "t": 46818.134999999864,
      "d": 227.27249999999913,
      "v": 55
    },
    {
      "midi": 67,
      "hit": false,
      "t": 46818.134999999864,
      "d": 227.27249999999913,
      "v": 55
    },
    {
      "midi": 50,
      "hit": false,
      "t": 47045.40749999986,
      "d": 227.27249999999913,
      "v": 55
    },
    {
      "midi": 59,
      "hit": false,
      "t": 47045.40749999986,
      "d": 227.27249999999913,
      "v": 55
    },
    {
      "midi": 62,
      "hit": false,
      "t": 47045.40749999986,
      "d": 227.27249999999913,
      "v": 55
    },
    {
      "midi": 67,
      "hit": false,
      "t": 47045.40749999986,
      "d": 227.27249999999913,
      "v": 55
    },
    {
      "midi": 48,
      "hit": false,
      "t": 47272.67999999986,
      "d": 227.27249999999913,
      "v": 55
    },
    {
      "midi": 52,
      "hit": false,
      "t": 47272.67999999986,
      "d": 227.27249999999913,
      "v": 55
    },
    {
      "midi": 55,
      "hit": false,
      "t": 47272.67999999986,
      "d": 227.27249999999913,
      "v": 55
    },
    {
      "midi": 60,
      "hit": false,
      "t": 47272.67999999986,
      "d": 227.27249999999913,
      "v": 55
    },
    {
      "midi": 62,
      "hit": false,
      "t": 47272.67999999986,
      "d": 227.27249999999913,
      "v": 55
    },
    {
      "midi": 67,
      "hit": false,
      "t": 47272.67999999986,
      "d": 227.27249999999913,
      "v": 55
    },
    {
      "midi": 69,
      "hit": false,
      "t": 47272.67999999996,
      "d": 227.27249999999913,
      "v": 62
    },
    {
      "midi": 48,
      "hit": false,
      "t": 47499.95249999986,
      "d": 227.27249999999913,
      "v": 55
    },
    {
      "midi": 52,
      "hit": false,
      "t": 47499.95249999986,
      "d": 227.27249999999913,
      "v": 55
    },
    {
      "midi": 55,
      "hit": false,
      "t": 47499.95249999986,
      "d": 227.27249999999913,
      "v": 55
    },
    {
      "midi": 60,
      "hit": false,
      "t": 47499.95249999986,
      "d": 227.27249999999913,
      "v": 55
    },
    {
      "midi": 62,
      "hit": false,
      "t": 47499.95249999986,
      "d": 227.27249999999913,
      "v": 55
    },
    {
      "midi": 67,
      "hit": false,
      "t": 47499.95249999986,
      "d": 227.27249999999913,
      "v": 55
    },
    {
      "midi": 67,
      "hit": false,
      "t": 47499.952499999956,
      "d": 454.54499999999825,
      "v": 62
    },
    {
      "midi": 48,
      "hit": false,
      "t": 47727.22499999986,
      "d": 227.27249999999913,
      "v": 55
    },
    {
      "midi": 52,
      "hit": false,
      "t": 47727.22499999986,
      "d": 227.27249999999913,
      "v": 55
    },
    {
      "midi": 55,
      "hit": false,
      "t": 47727.22499999986,
      "d": 227.27249999999913,
      "v": 55
    },
    {
      "midi": 60,
      "hit": false,
      "t": 47727.22499999986,
      "d": 227.27249999999913,
      "v": 55
    },
    {
      "midi": 62,
      "hit": false,
      "t": 47727.22499999986,
      "d": 227.27249999999913,
      "v": 55
    },
    {
      "midi": 67,
      "hit": false,
      "t": 47727.22499999986,
      "d": 227.27249999999913,
      "v": 55
    },
    {
      "midi": 50,
      "hit": false,
      "t": 47954.49749999986,
      "d": 454.54499999999825,
      "v": 55
    },
    {
      "midi": 54,
      "hit": false,
      "t": 47954.49749999986,
      "d": 454.54499999999825,
      "v": 55
    },
    {
      "midi": 57,
      "hit": false,
      "t": 47954.49749999986,
      "d": 454.54499999999825,
      "v": 55
    },
    {
      "midi": 62,
      "hit": false,
      "t": 47954.49749999986,
      "d": 454.54499999999825,
      "v": 55
    },
    {
      "midi": 66,
      "hit": false,
      "t": 47954.49749999986,
      "d": 454.54499999999825,
      "v": 55
    },
    {
      "midi": 70,
      "hit": false,
      "t": 47954.497499999954,
      "d": 227.27249999999913,
      "v": 62
    },
    {
      "midi": 69,
      "hit": false,
      "t": 48181.76999999995,
      "d": 227.27249999999913,
      "v": 62
    },
    {
      "midi": 50,
      "hit": false,
      "t": 48409.04249999986,
      "d": 227.27249999999913,
      "v": 55
    },
    {
      "midi": 54,
      "hit": false,
      "t": 48409.04249999986,
      "d": 227.27249999999913,
      "v": 55
    },
    {
      "midi": 57,
      "hit": false,
      "t": 48409.04249999986,
      "d": 227.27249999999913,
      "v": 55
    },
    {
      "midi": 62,
      "hit": false,
      "t": 48409.04249999986,
      "d": 227.27249999999913,
      "v": 55
    },
    {
      "midi": 66,
      "hit": false,
      "t": 48409.04249999986,
      "d": 227.27249999999913,
      "v": 55
    },
    {
      "midi": 67,
      "hit": false,
      "t": 48409.04249999995,
      "d": 454.54499999999825,
      "v": 62
    },
    {
      "midi": 50,
      "hit": false,
      "t": 48636.31499999986,
      "d": 227.27249999999913,
      "v": 55
    },
    {
      "midi": 57,
      "hit": false,
      "t": 48636.31499999986,
      "d": 227.27249999999913,
      "v": 55
    },
    {
      "midi": 62,
      "hit": false,
      "t": 48636.31499999986,
      "d": 227.27249999999913,
      "v": 55
    },
    {
      "midi": 66,
      "hit": false,
      "t": 48636.31499999986,
      "d": 227.27249999999913,
      "v": 55
    },
    {
      "midi": 43,
      "hit": false,
      "t": 48863.587499999856,
      "d": 454.54499999999825,
      "v": 55
    },
    {
      "midi": 47,
      "hit": false,
      "t": 48863.587499999856,
      "d": 454.54499999999825,
      "v": 55
    },
    {
      "midi": 50,
      "hit": false,
      "t": 48863.587499999856,
      "d": 454.54499999999825,
      "v": 55
    },
    {
      "midi": 55,
      "hit": false,
      "t": 48863.587499999856,
      "d": 454.54499999999825,
      "v": 55
    },
    {
      "midi": 62,
      "hit": false,
      "t": 48863.587499999856,
      "d": 454.54499999999825,
      "v": 55
    },
    {
      "midi": 67,
      "hit": false,
      "t": 48863.587499999856,
      "d": 454.54499999999825,
      "v": 61
    },
    {
      "midi": 67,
      "hit": false,
      "t": 48863.58749999995,
      "d": 1136.362500000003,
      "v": 62
    },
    {
      "midi": 43,
      "hit": false,
      "t": 49318.132499999854,
      "d": 227.27249999999913,
      "v": 55
    },
    {
      "midi": 47,
      "hit": false,
      "t": 49318.132499999854,
      "d": 227.27249999999913,
      "v": 55
    },
    {
      "midi": 50,
      "hit": false,
      "t": 49318.132499999854,
      "d": 227.27249999999913,
      "v": 55
    },
    {
      "midi": 55,
      "hit": false,
      "t": 49318.132499999854,
      "d": 227.27249999999913,
      "v": 55
    },
    {
      "midi": 62,
      "hit": false,
      "t": 49318.132499999854,
      "d": 227.27249999999913,
      "v": 55
    },
    {
      "midi": 67,
      "hit": false,
      "t": 49318.132499999854,
      "d": 227.27249999999913,
      "v": 55
    },
    {
      "midi": 43,
      "hit": false,
      "t": 49545.40499999985,
      "d": 681.8174999999974,
      "v": 55
    },
    {
      "midi": 47,
      "hit": false,
      "t": 49545.40499999985,
      "d": 681.8174999999974,
      "v": 55
    },
    {
      "midi": 50,
      "hit": false,
      "t": 49545.40499999985,
      "d": 681.8174999999974,
      "v": 55
    },
    {
      "midi": 55,
      "hit": false,
      "t": 49545.40499999985,
      "d": 681.8174999999974,
      "v": 55
    },
    {
      "midi": 62,
      "hit": false,
      "t": 49545.40499999985,
      "d": 681.8174999999974,
      "v": 55
    },
    {
      "midi": 67,
      "hit": false,
      "t": 49545.40499999985,
      "d": 681.8174999999974,
      "v": 55
    },
    {
      "midi": 43,
      "hit": false,
      "t": 50227.22249999985,
      "d": 227.27249999999913,
      "v": 55
    },
    {
      "midi": 47,
      "hit": false,
      "t": 50227.22249999985,
      "d": 227.27249999999913,
      "v": 55
    },
    {
      "midi": 50,
      "hit": false,
      "t": 50227.22249999985,
      "d": 227.27249999999913,
      "v": 55
    },
    {
      "midi": 55,
      "hit": false,
      "t": 50227.22249999985,
      "d": 227.27249999999913,
      "v": 55
    },
    {
      "midi": 62,
      "hit": false,
      "t": 50227.22249999985,
      "d": 227.27249999999913,
      "v": 55
    },
    {
      "midi": 67,
      "hit": false,
      "t": 50227.22249999985,
      "d": 227.27249999999913,
      "v": 55
    },
    {
      "midi": 43,
      "hit": false,
      "t": 50454.49499999985,
      "d": 227.27249999999913,
      "v": 55
    },
    {
      "midi": 47,
      "hit": false,
      "t": 50454.49499999985,
      "d": 227.27249999999913,
      "v": 55
    },
    {
      "midi": 50,
      "hit": false,
      "t": 50454.49499999985,
      "d": 227.27249999999913,
      "v": 55
    },
    {
      "midi": 55,
      "hit": false,
      "t": 50454.49499999985,
      "d": 227.27249999999913,
      "v": 55
    },
    {
      "midi": 62,
      "hit": false,
      "t": 50454.49499999985,
      "d": 227.27249999999913,
      "v": 55
    },
    {
      "midi": 67,
      "hit": false,
      "t": 50454.49499999985,
      "d": 227.27249999999913,
      "v": 55
    },
    {
      "midi": 43,
      "hit": false,
      "t": 50681.76749999985,
      "d": 227.27249999999913,
      "v": 55
    },
    {
      "midi": 47,
      "hit": false,
      "t": 50681.76749999985,
      "d": 227.27249999999913,
      "v": 55
    },
    {
      "midi": 50,
      "hit": false,
      "t": 50681.76749999985,
      "d": 227.27249999999913,
      "v": 55
    },
    {
      "midi": 55,
      "hit": false,
      "t": 50681.76749999985,
      "d": 227.27249999999913,
      "v": 55
    },
    {
      "midi": 62,
      "hit": false,
      "t": 50681.76749999985,
      "d": 227.27249999999913,
      "v": 55
    },
    {
      "midi": 67,
      "hit": false,
      "t": 50681.76749999985,
      "d": 227.27249999999913,
      "v": 55
    },
    {
      "midi": 48,
      "hit": false,
      "t": 50909.03999999985,
      "d": 227.27249999999913,
      "v": 59
    },
    {
      "midi": 52,
      "hit": false,
      "t": 50909.03999999985,
      "d": 227.27249999999913,
      "v": 59
    },
    {
      "midi": 55,
      "hit": false,
      "t": 50909.03999999985,
      "d": 227.27249999999913,
      "v": 59
    },
    {
      "midi": 62,
      "hit": false,
      "t": 50909.03999999985,
      "d": 227.27249999999913,
      "v": 59
    },
    {
      "midi": 67,
      "hit": false,
      "t": 50909.03999999985,
      "d": 227.27249999999913,
      "v": 59
    },
    {
      "midi": 69,
      "hit": false,
      "t": 50909.03999999995,
      "d": 227.27249999999913,
      "v": 62
    },
    {
      "midi": 67,
      "hit": false,
      "t": 51117.37312499995,
      "d": 454.54500000000553,
      "v": 62
    },
    {
      "midi": 48,
      "hit": false,
      "t": 51136.31249999985,
      "d": 227.27249999999913,
      "v": 59
    },
    {
      "midi": 52,
      "hit": false,
      "t": 51136.31249999985,
      "d": 227.27249999999913,
      "v": 59
    },
    {
      "midi": 55,
      "hit": false,
      "t": 51136.31249999985,
      "d": 227.27249999999913,
      "v": 59
    },
    {
      "midi": 62,
      "hit": false,
      "t": 51136.31249999985,
      "d": 227.27249999999913,
      "v": 59
    },
    {
      "midi": 67,
      "hit": false,
      "t": 51136.31249999985,
      "d": 227.27249999999913,
      "v": 59
    },
    {
      "midi": 48,
      "hit": false,
      "t": 51363.584999999846,
      "d": 227.27249999999913,
      "v": 59
    },
    {
      "midi": 52,
      "hit": false,
      "t": 51363.584999999846,
      "d": 227.27249999999913,
      "v": 59
    },
    {
      "midi": 55,
      "hit": false,
      "t": 51363.584999999846,
      "d": 227.27249999999913,
      "v": 59
    },
    {
      "midi": 62,
      "hit": false,
      "t": 51363.584999999846,
      "d": 227.27249999999913,
      "v": 59
    },
    {
      "midi": 67,
      "hit": false,
      "t": 51363.584999999846,
      "d": 227.27249999999913,
      "v": 59
    },
    {
      "midi": 64,
      "hit": false,
      "t": 51562.44843749995,
      "d": 454.54499999999825,
      "v": 62
    },
    {
      "midi": 48,
      "hit": false,
      "t": 51590.857499999845,
      "d": 227.27249999999913,
      "v": 59
    },
    {
      "midi": 52,
      "hit": false,
      "t": 51590.857499999845,
      "d": 227.27249999999913,
      "v": 59
    },
    {
      "midi": 55,
      "hit": false,
      "t": 51590.857499999845,
      "d": 227.27249999999913,
      "v": 59
    },
    {
      "midi": 62,
      "hit": false,
      "t": 51590.857499999845,
      "d": 227.27249999999913,
      "v": 59
    },
    {
      "midi": 67,
      "hit": false,
      "t": 51590.857499999845,
      "d": 227.27249999999913,
      "v": 59
    },
    {
      "midi": 48,
      "hit": false,
      "t": 51818.129999999845,
      "d": 227.27249999999913,
      "v": 59
    },
    {
      "midi": 52,
      "hit": false,
      "t": 51818.129999999845,
      "d": 227.27249999999913,
      "v": 59
    },
    {
      "midi": 55,
      "hit": false,
      "t": 51818.129999999845,
      "d": 227.27249999999913,
      "v": 59
    },
    {
      "midi": 62,
      "hit": false,
      "t": 51818.129999999845,
      "d": 227.27249999999913,
      "v": 59
    },
    {
      "midi": 67,
      "hit": false,
      "t": 51818.129999999845,
      "d": 227.27249999999913,
      "v": 59
    },
    {
      "midi": 48,
      "hit": false,
      "t": 52045.402499999844,
      "d": 227.27249999999913,
      "v": 59
    },
    {
      "midi": 52,
      "hit": false,
      "t": 52045.402499999844,
      "d": 227.27249999999913,
      "v": 59
    },
    {
      "midi": 55,
      "hit": false,
      "t": 52045.402499999844,
      "d": 227.27249999999913,
      "v": 59
    },
    {
      "midi": 62,
      "hit": false,
      "t": 52045.402499999844,
      "d": 227.27249999999913,
      "v": 59
    },
    {
      "midi": 67,
      "hit": false,
      "t": 52045.402499999844,
      "d": 227.27249999999913,
      "v": 59
    },
    {
      "midi": 60,
      "hit": false,
      "t": 52069.07671874995,
      "d": 454.54499999999825,
      "v": 62
    },
    {
      "midi": 48,
      "hit": false,
      "t": 52272.67499999984,
      "d": 227.27249999999913,
      "v": 59
    },
    {
      "midi": 52,
      "hit": false,
      "t": 52272.67499999984,
      "d": 227.27249999999913,
      "v": 59
    },
    {
      "midi": 55,
      "hit": false,
      "t": 52272.67499999984,
      "d": 227.27249999999913,
      "v": 59
    },
    {
      "midi": 62,
      "hit": false,
      "t": 52272.67499999984,
      "d": 227.27249999999913,
      "v": 59
    },
    {
      "midi": 67,
      "hit": false,
      "t": 52272.67499999984,
      "d": 227.27249999999913,
      "v": 59
    },
    {
      "midi": 62,
      "hit": false,
      "t": 52481.00812499995,
      "d": 909.0900000000038,
      "v": 62
    },
    {
      "midi": 48,
      "hit": false,
      "t": 52499.94749999984,
      "d": 227.27249999999913,
      "v": 59
    },
    {
      "midi": 52,
      "hit": false,
      "t": 52499.94749999984,
      "d": 227.27249999999913,
      "v": 59
    },
    {
      "midi": 55,
      "hit": false,
      "t": 52499.94749999984,
      "d": 227.27249999999913,
      "v": 59
    },
    {
      "midi": 62,
      "hit": false,
      "t": 52499.94749999984,
      "d": 227.27249999999913,
      "v": 59
    },
    {
      "midi": 67,
      "hit": false,
      "t": 52499.94749999984,
      "d": 227.27249999999913,
      "v": 59
    },
    {
      "midi": 43,
      "hit": false,
      "t": 52727.21999999984,
      "d": 227.27249999999913,
      "v": 59
    },
    {
      "midi": 47,
      "hit": false,
      "t": 52727.21999999984,
      "d": 227.27249999999913,
      "v": 59
    },
    {
      "midi": 50,
      "hit": false,
      "t": 52727.21999999984,
      "d": 227.27249999999913,
      "v": 59
    },
    {
      "midi": 55,
      "hit": false,
      "t": 52727.21999999984,
      "d": 227.27249999999913,
      "v": 59
    },
    {
      "midi": 62,
      "hit": false,
      "t": 52727.21999999984,
      "d": 227.27249999999913,
      "v": 59
    },
    {
      "midi": 67,
      "hit": false,
      "t": 52727.21999999984,
      "d": 227.27249999999913,
      "v": 59
    },
    {
      "midi": 43,
      "hit": false,
      "t": 52954.49249999984,
      "d": 227.27249999999913,
      "v": 59
    },
    {
      "midi": 47,
      "hit": false,
      "t": 52954.49249999984,
      "d": 227.27249999999913,
      "v": 59
    },
    {
      "midi": 50,
      "hit": false,
      "t": 52954.49249999984,
      "d": 227.27249999999913,
      "v": 59
    },
    {
      "midi": 55,
      "hit": false,
      "t": 52954.49249999984,
      "d": 227.27249999999913,
      "v": 59
    },
    {
      "midi": 62,
      "hit": false,
      "t": 52954.49249999984,
      "d": 227.27249999999913,
      "v": 59
    },
    {
      "midi": 67,
      "hit": false,
      "t": 52954.49249999984,
      "d": 227.27249999999913,
      "v": 59
    },
    {
      "midi": 43,
      "hit": false,
      "t": 53181.76499999984,
      "d": 227.27249999999913,
      "v": 59
    },
    {
      "midi": 47,
      "hit": false,
      "t": 53181.76499999984,
      "d": 227.27249999999913,
      "v": 59
    },
    {
      "midi": 50,
      "hit": false,
      "t": 53181.76499999984,
      "d": 227.27249999999913,
      "v": 59
    },
    {
      "midi": 55,
      "hit": false,
      "t": 53181.76499999984,
      "d": 227.27249999999913,
      "v": 59
    },
    {
      "midi": 62,
      "hit": false,
      "t": 53181.76499999984,
      "d": 227.27249999999913,
      "v": 59
    },
    {
      "midi": 67,
      "hit": false,
      "t": 53181.76499999984,
      "d": 227.27249999999913,
      "v": 59
    },
    {
      "midi": 62,
      "hit": false,
      "t": 53390.09812499995,
      "d": 681.8174999999974,
      "v": 62
    },
    {
      "midi": 43,
      "hit": false,
      "t": 53409.03749999984,
      "d": 227.27249999999913,
      "v": 59
    },
    {
      "midi": 47,
      "hit": false,
      "t": 53409.03749999984,
      "d": 227.27249999999913,
      "v": 59
    },
    {
      "midi": 50,
      "hit": false,
      "t": 53409.03749999984,
      "d": 227.27249999999913,
      "v": 59
    },
    {
      "midi": 55,
      "hit": false,
      "t": 53409.03749999984,
      "d": 227.27249999999913,
      "v": 59
    },
    {
      "midi": 62,
      "hit": false,
      "t": 53409.03749999984,
      "d": 227.27249999999913,
      "v": 59
    },
    {
      "midi": 67,
      "hit": false,
      "t": 53409.03749999984,
      "d": 227.27249999999913,
      "v": 59
    },
    {
      "midi": 43,
      "hit": false,
      "t": 53636.30999999984,
      "d": 227.27249999999913,
      "v": 59
    },
    {
      "midi": 47,
      "hit": false,
      "t": 53636.30999999984,
      "d": 227.27249999999913,
      "v": 59
    },
    {
      "midi": 50,
      "hit": false,
      "t": 53636.30999999984,
      "d": 227.27249999999913,
      "v": 59
    },
    {
      "midi": 55,
      "hit": false,
      "t": 53636.30999999984,
      "d": 227.27249999999913,
      "v": 59
    },
    {
      "midi": 62,
      "hit": false,
      "t": 53636.30999999984,
      "d": 227.27249999999913,
      "v": 59
    },
    {
      "midi": 67,
      "hit": false,
      "t": 53636.30999999984,
      "d": 227.27249999999913,
      "v": 59
    },
    {
      "midi": 43,
      "hit": false,
      "t": 53863.58249999984,
      "d": 227.27249999999913,
      "v": 59
    },
    {
      "midi": 47,
      "hit": false,
      "t": 53863.58249999984,
      "d": 227.27249999999913,
      "v": 59
    },
    {
      "midi": 50,
      "hit": false,
      "t": 53863.58249999984,
      "d": 227.27249999999913,
      "v": 59
    },
    {
      "midi": 55,
      "hit": false,
      "t": 53863.58249999984,
      "d": 227.27249999999913,
      "v": 59
    },
    {
      "midi": 62,
      "hit": false,
      "t": 53863.58249999984,
      "d": 227.27249999999913,
      "v": 59
    },
    {
      "midi": 67,
      "hit": false,
      "t": 53863.58249999984,
      "d": 227.27249999999913,
      "v": 59
    },
    {
      "midi": 43,
      "hit": false,
      "t": 54090.854999999836,
      "d": 227.27249999999913,
      "v": 59
    },
    {
      "midi": 47,
      "hit": false,
      "t": 54090.854999999836,
      "d": 227.27249999999913,
      "v": 59
    },
    {
      "midi": 50,
      "hit": false,
      "t": 54090.854999999836,
      "d": 227.27249999999913,
      "v": 59
    },
    {
      "midi": 55,
      "hit": false,
      "t": 54090.854999999836,
      "d": 227.27249999999913,
      "v": 59
    },
    {
      "midi": 62,
      "hit": false,
      "t": 54090.854999999836,
      "d": 227.27249999999913,
      "v": 59
    },
    {
      "midi": 67,
      "hit": false,
      "t": 54090.854999999836,
      "d": 227.27249999999913,
      "v": 59
    },
    {
      "midi": 43,
      "hit": false,
      "t": 54318.127499999835,
      "d": 227.27249999999913,
      "v": 59
    },
    {
      "midi": 47,
      "hit": false,
      "t": 54318.127499999835,
      "d": 227.27249999999913,
      "v": 59
    },
    {
      "midi": 50,
      "hit": false,
      "t": 54318.127499999835,
      "d": 227.27249999999913,
      "v": 59
    },
    {
      "midi": 55,
      "hit": false,
      "t": 54318.127499999835,
      "d": 227.27249999999913,
      "v": 59
    },
    {
      "midi": 62,
      "hit": false,
      "t": 54318.127499999835,
      "d": 227.27249999999913,
      "v": 59
    },
    {
      "midi": 67,
      "hit": false,
      "t": 54318.127499999835,
      "d": 227.27249999999913,
      "v": 59
    },
    {
      "midi": 48,
      "hit": false,
      "t": 54545.399999999834,
      "d": 227.27249999999913,
      "v": 59
    },
    {
      "midi": 52,
      "hit": false,
      "t": 54545.399999999834,
      "d": 227.27249999999913,
      "v": 59
    },
    {
      "midi": 55,
      "hit": false,
      "t": 54545.399999999834,
      "d": 227.27249999999913,
      "v": 59
    },
    {
      "midi": 62,
      "hit": false,
      "t": 54545.399999999834,
      "d": 227.27249999999913,
      "v": 59
    },
    {
      "midi": 67,
      "hit": false,
      "t": 54545.399999999834,
      "d": 227.27249999999913,
      "v": 59
    },
    {
      "midi": 69,
      "hit": false,
      "t": 54545.39999999995,
      "d": 227.27249999999913,
      "v": 62
    },
    {
      "midi": 48,
      "hit": false,
      "t": 54772.67249999983,
      "d": 227.27249999999913,
      "v": 59
    },
    {
      "midi": 52,
      "hit": false,
      "t": 54772.67249999983,
      "d": 227.27249999999913,
      "v": 59
    },
    {
      "midi": 55,
      "hit": false,
      "t": 54772.67249999983,
      "d": 227.27249999999913,
      "v": 59
    },
    {
      "midi": 62,
      "hit": false,
      "t": 54772.67249999983,
      "d": 227.27249999999913,
      "v": 59
    },
    {
      "midi": 67,
      "hit": false,
      "t": 54772.67249999983,
      "d": 227.27249999999913,
      "v": 59
    },
    {
      "midi": 67,
      "hit": false,
      "t": 54772.67249999995,
      "d": 454.54499999999825,
      "v": 62
    },
    {
      "midi": 48,
      "hit": false,
      "t": 54999.94499999983,
      "d": 227.27249999999913,
      "v": 59
    },
    {
      "midi": 52,
      "hit": false,
      "t": 54999.94499999983,
      "d": 227.27249999999913,
      "v": 59
    },
    {
      "midi": 55,
      "hit": false,
      "t": 54999.94499999983,
      "d": 227.27249999999913,
      "v": 59
    },
    {
      "midi": 62,
      "hit": false,
      "t": 54999.94499999983,
      "d": 227.27249999999913,
      "v": 59
    },
    {
      "midi": 67,
      "hit": false,
      "t": 54999.94499999983,
      "d": 227.27249999999913,
      "v": 59
    },
    {
      "midi": 48,
      "hit": false,
      "t": 55227.21749999983,
      "d": 227.27249999999913,
      "v": 59
    },
    {
      "midi": 52,
      "hit": false,
      "t": 55227.21749999983,
      "d": 227.27249999999913,
      "v": 59
    },
    {
      "midi": 55,
      "hit": false,
      "t": 55227.21749999983,
      "d": 227.27249999999913,
      "v": 59
    },
    {
      "midi": 62,
      "hit": false,
      "t": 55227.21749999983,
      "d": 227.27249999999913,
      "v": 59
    },
    {
      "midi": 67,
      "hit": false,
      "t": 55227.21749999983,
      "d": 227.27249999999913,
      "v": 59
    },
    {
      "midi": 71,
      "hit": false,
      "t": 55241.422031249946,
      "d": 454.54499999999825,
      "v": 62
    },
    {
      "midi": 48,
      "hit": false,
      "t": 55454.48999999983,
      "d": 227.27249999999913,
      "v": 59
    },
    {
      "midi": 52,
      "hit": false,
      "t": 55454.48999999983,
      "d": 227.27249999999913,
      "v": 59
    },
    {
      "midi": 55,
      "hit": false,
      "t": 55454.48999999983,
      "d": 227.27249999999913,
      "v": 59
    },
    {
      "midi": 62,
      "hit": false,
      "t": 55454.48999999983,
      "d": 227.27249999999913,
      "v": 59
    },
    {
      "midi": 67,
      "hit": false,
      "t": 55454.48999999983,
      "d": 227.27249999999913,
      "v": 59
    },
    {
      "midi": 48,
      "hit": false,
      "t": 55681.76249999983,
      "d": 227.27249999999913,
      "v": 59
    },
    {
      "midi": 52,
      "hit": false,
      "t": 55681.76249999983,
      "d": 227.27249999999913,
      "v": 59
    },
    {
      "midi": 55,
      "hit": false,
      "t": 55681.76249999983,
      "d": 227.27249999999913,
      "v": 59
    },
    {
      "midi": 62,
      "hit": false,
      "t": 55681.76249999983,
      "d": 227.27249999999913,
      "v": 59
    },
    {
      "midi": 67,
      "hit": false,
      "t": 55681.76249999983,
      "d": 227.27249999999913,
      "v": 59
    },
    {
      "midi": 48,
      "hit": false,
      "t": 55909.03499999983,
      "d": 227.27249999999913,
      "v": 59
    },
    {
      "midi": 52,
      "hit": false,
      "t": 55909.03499999983,
      "d": 227.27249999999913,
      "v": 59
    },
    {
      "midi": 55,
      "hit": false,
      "t": 55909.03499999983,
      "d": 227.27249999999913,
      "v": 59
    },
    {
      "midi": 62,
      "hit": false,
      "t": 55909.03499999983,
      "d": 227.27249999999913,
      "v": 59
    },
    {
      "midi": 67,
      "hit": false,
      "t": 55909.03499999983,
      "d": 227.27249999999913,
      "v": 59
    },
    {
      "midi": 67,
      "hit": false,
      "t": 56107.89843749994,
      "d": 42.61359375000029,
      "v": 62
    },
    {
      "midi": 48,
      "hit": false,
      "t": 56136.30749999983,
      "d": 227.27249999999913,
      "v": 59
    },
    {
      "midi": 52,
      "hit": false,
      "t": 56136.30749999983,
      "d": 227.27249999999913,
      "v": 59
    },
    {
      "midi": 55,
      "hit": false,
      "t": 56136.30749999983,
      "d": 227.27249999999913,
      "v": 59
    },
    {
      "midi": 62,
      "hit": false,
      "t": 56136.30749999983,
      "d": 227.27249999999913,
      "v": 59
    },
    {
      "midi": 67,
      "hit": false,
      "t": 56136.30749999983,
      "d": 227.27249999999913,
      "v": 59
    },
    {
      "midi": 43,
      "hit": false,
      "t": 56363.57999999983,
      "d": 227.27249999999913,
      "v": 59
    },
    {
      "midi": 47,
      "hit": false,
      "t": 56363.57999999983,
      "d": 227.27249999999913,
      "v": 59
    },
    {
      "midi": 50,
      "hit": false,
      "t": 56363.57999999983,
      "d": 227.27249999999913,
      "v": 59
    },
    {
      "midi": 55,
      "hit": false,
      "t": 56363.57999999983,
      "d": 227.27249999999913,
      "v": 59
    },
    {
      "midi": 62,
      "hit": false,
      "t": 56363.57999999983,
      "d": 227.27249999999913,
      "v": 59
    },
    {
      "midi": 67,
      "hit": false,
      "t": 56363.57999999983,
      "d": 227.27249999999913,
      "v": 59
    },
    {
      "midi": 43,
      "hit": false,
      "t": 56590.852499999826,
      "d": 227.27249999999913,
      "v": 59
    },
    {
      "midi": 47,
      "hit": false,
      "t": 56590.852499999826,
      "d": 227.27249999999913,
      "v": 59
    },
    {
      "midi": 50,
      "hit": false,
      "t": 56590.852499999826,
      "d": 227.27249999999913,
      "v": 59
    },
    {
      "midi": 55,
      "hit": false,
      "t": 56590.852499999826,
      "d": 227.27249999999913,
      "v": 59
    },
    {
      "midi": 62,
      "hit": false,
      "t": 56590.852499999826,
      "d": 227.27249999999913,
      "v": 59
    },
    {
      "midi": 67,
      "hit": false,
      "t": 56590.852499999826,
      "d": 227.27249999999913,
      "v": 59
    },
    {
      "midi": 43,
      "hit": false,
      "t": 56818.124999999825,
      "d": 227.27249999999913,
      "v": 59
    },
    {
      "midi": 47,
      "hit": false,
      "t": 56818.124999999825,
      "d": 227.27249999999913,
      "v": 59
    },
    {
      "midi": 50,
      "hit": false,
      "t": 56818.124999999825,
      "d": 227.27249999999913,
      "v": 59
    },
    {
      "midi": 55,
      "hit": false,
      "t": 56818.124999999825,
      "d": 227.27249999999913,
      "v": 59
    },
    {
      "midi": 62,
      "hit": false,
      "t": 56818.124999999825,
      "d": 227.27249999999913,
      "v": 59
    },
    {
      "midi": 67,
      "hit": false,
      "t": 56818.124999999825,
      "d": 227.27249999999913,
      "v": 59
    },
    {
      "midi": 43,
      "hit": false,
      "t": 57045.397499999825,
      "d": 227.27249999999913,
      "v": 59
    },
    {
      "midi": 47,
      "hit": false,
      "t": 57045.397499999825,
      "d": 227.27249999999913,
      "v": 59
    },
    {
      "midi": 50,
      "hit": false,
      "t": 57045.397499999825,
      "d": 227.27249999999913,
      "v": 59
    },
    {
      "midi": 55,
      "hit": false,
      "t": 57045.397499999825,
      "d": 227.27249999999913,
      "v": 59
    },
    {
      "midi": 62,
      "hit": false,
      "t": 57045.397499999825,
      "d": 227.27249999999913,
      "v": 59
    },
    {
      "midi": 67,
      "hit": false,
      "t": 57045.397499999825,
      "d": 227.27249999999913,
      "v": 59
    },
    {
      "midi": 43,
      "hit": false,
      "t": 57272.66999999982,
      "d": 227.27249999999913,
      "v": 59
    },
    {
      "midi": 47,
      "hit": false,
      "t": 57272.66999999982,
      "d": 227.27249999999913,
      "v": 59
    },
    {
      "midi": 50,
      "hit": false,
      "t": 57272.66999999982,
      "d": 227.27249999999913,
      "v": 59
    },
    {
      "midi": 55,
      "hit": false,
      "t": 57272.66999999982,
      "d": 227.27249999999913,
      "v": 59
    },
    {
      "midi": 62,
      "hit": false,
      "t": 57272.66999999982,
      "d": 227.27249999999913,
      "v": 59
    },
    {
      "midi": 67,
      "hit": false,
      "t": 57272.66999999982,
      "d": 227.27249999999913,
      "v": 59
    },
    {
      "midi": 43,
      "hit": false,
      "t": 57499.94249999982,
      "d": 227.27249999999913,
      "v": 59
    },
    {
      "midi": 47,
      "hit": false,
      "t": 57499.94249999982,
      "d": 227.27249999999913,
      "v": 59
    },
    {
      "midi": 50,
      "hit": false,
      "t": 57499.94249999982,
      "d": 227.27249999999913,
      "v": 59
    },
    {
      "midi": 55,
      "hit": false,
      "t": 57499.94249999982,
      "d": 227.27249999999913,
      "v": 59
    },
    {
      "midi": 62,
      "hit": false,
      "t": 57499.94249999982,
      "d": 227.27249999999913,
      "v": 59
    },
    {
      "midi": 67,
      "hit": false,
      "t": 57499.94249999982,
      "d": 227.27249999999913,
      "v": 59
    },
    {
      "midi": 43,
      "hit": false,
      "t": 57727.21499999982,
      "d": 227.27249999999913,
      "v": 59
    },
    {
      "midi": 47,
      "hit": false,
      "t": 57727.21499999982,
      "d": 227.27249999999913,
      "v": 59
    },
    {
      "midi": 50,
      "hit": false,
      "t": 57727.21499999982,
      "d": 227.27249999999913,
      "v": 59
    },
    {
      "midi": 55,
      "hit": false,
      "t": 57727.21499999982,
      "d": 227.27249999999913,
      "v": 59
    },
    {
      "midi": 62,
      "hit": false,
      "t": 57727.21499999982,
      "d": 227.27249999999913,
      "v": 59
    },
    {
      "midi": 67,
      "hit": false,
      "t": 57727.21499999982,
      "d": 227.27249999999913,
      "v": 59
    },
    {
      "midi": 43,
      "hit": false,
      "t": 57954.48749999982,
      "d": 227.27249999999913,
      "v": 59
    },
    {
      "midi": 47,
      "hit": false,
      "t": 57954.48749999982,
      "d": 227.27249999999913,
      "v": 59
    },
    {
      "midi": 50,
      "hit": false,
      "t": 57954.48749999982,
      "d": 227.27249999999913,
      "v": 59
    },
    {
      "midi": 55,
      "hit": false,
      "t": 57954.48749999982,
      "d": 227.27249999999913,
      "v": 59
    },
    {
      "midi": 62,
      "hit": false,
      "t": 57954.48749999982,
      "d": 227.27249999999913,
      "v": 59
    },
    {
      "midi": 67,
      "hit": false,
      "t": 57954.48749999982,
      "d": 227.27249999999913,
      "v": 59
    },
    {
      "midi": 48,
      "hit": false,
      "t": 58181.75999999982,
      "d": 227.27249999999913,
      "v": 59
    },
    {
      "midi": 52,
      "hit": false,
      "t": 58181.75999999982,
      "d": 227.27249999999913,
      "v": 59
    },
    {
      "midi": 55,
      "hit": false,
      "t": 58181.75999999982,
      "d": 227.27249999999913,
      "v": 59
    },
    {
      "midi": 62,
      "hit": false,
      "t": 58181.75999999982,
      "d": 227.27249999999913,
      "v": 59
    },
    {
      "midi": 67,
      "hit": false,
      "t": 58181.75999999982,
      "d": 227.27249999999913,
      "v": 59
    },
    {
      "midi": 69,
      "hit": false,
      "t": 58181.759999999944,
      "d": 227.27249999999913,
      "v": 62
    },
    {
      "midi": 67,
      "hit": false,
      "t": 58390.09312499994,
      "d": 454.54500000000553,
      "v": 62
    },
    {
      "midi": 48,
      "hit": false,
      "t": 58409.03249999982,
      "d": 227.27249999999913,
      "v": 59
    },
    {
      "midi": 52,
      "hit": false,
      "t": 58409.03249999982,
      "d": 227.27249999999913,
      "v": 59
    },
    {
      "midi": 55,
      "hit": false,
      "t": 58409.03249999982,
      "d": 227.27249999999913,
      "v": 59
    },
    {
      "midi": 62,
      "hit": false,
      "t": 58409.03249999982,
      "d": 227.27249999999913,
      "v": 59
    },
    {
      "midi": 67,
      "hit": false,
      "t": 58409.03249999982,
      "d": 227.27249999999913,
      "v": 59
    },
    {
      "midi": 48,
      "hit": false,
      "t": 58636.30499999982,
      "d": 227.27249999999913,
      "v": 59
    },
    {
      "midi": 52,
      "hit": false,
      "t": 58636.30499999982,
      "d": 227.27249999999913,
      "v": 59
    },
    {
      "midi": 55,
      "hit": false,
      "t": 58636.30499999982,
      "d": 227.27249999999913,
      "v": 59
    },
    {
      "midi": 62,
      "hit": false,
      "t": 58636.30499999982,
      "d": 227.27249999999913,
      "v": 59
    },
    {
      "midi": 67,
      "hit": false,
      "t": 58636.30499999982,
      "d": 227.27249999999913,
      "v": 59
    },
    {
      "midi": 64,
      "hit": false,
      "t": 58835.168437499946,
      "d": 454.54499999999825,
      "v": 62
    },
    {
      "midi": 48,
      "hit": false,
      "t": 58863.57749999982,
      "d": 227.27249999999913,
      "v": 59
    },
    {
      "midi": 52,
      "hit": false,
      "t": 58863.57749999982,
      "d": 227.27249999999913,
      "v": 59
    },
    {
      "midi": 55,
      "hit": false,
      "t": 58863.57749999982,
      "d": 227.27249999999913,
      "v": 59
    },
    {
      "midi": 62,
      "hit": false,
      "t": 58863.57749999982,
      "d": 227.27249999999913,
      "v": 59
    },
    {
      "midi": 67,
      "hit": false,
      "t": 58863.57749999982,
      "d": 227.27249999999913,
      "v": 59
    },
    {
      "midi": 48,
      "hit": false,
      "t": 59090.84999999982,
      "d": 227.27249999999913,
      "v": 59
    },
    {
      "midi": 52,
      "hit": false,
      "t": 59090.84999999982,
      "d": 227.27249999999913,
      "v": 59
    },
    {
      "midi": 55,
      "hit": false,
      "t": 59090.84999999982,
      "d": 227.27249999999913,
      "v": 59
    },
    {
      "midi": 62,
      "hit": false,
      "t": 59090.84999999982,
      "d": 227.27249999999913,
      "v": 59
    },
    {
      "midi": 67,
      "hit": false,
      "t": 59090.84999999982,
      "d": 227.27249999999913,
      "v": 59
    },
    {
      "midi": 48,
      "hit": false,
      "t": 59318.122499999816,
      "d": 227.27249999999913,
      "v": 59
    },
    {
      "midi": 52,
      "hit": false,
      "t": 59318.122499999816,
      "d": 227.27249999999913,
      "v": 59
    },
    {
      "midi": 55,
      "hit": false,
      "t": 59318.122499999816,
      "d": 227.27249999999913,
      "v": 59
    },
    {
      "midi": 62,
      "hit": false,
      "t": 59318.122499999816,
      "d": 227.27249999999913,
      "v": 59
    },
    {
      "midi": 67,
      "hit": false,
      "t": 59318.122499999816,
      "d": 227.27249999999913,
      "v": 59
    },
    {
      "midi": 60,
      "hit": false,
      "t": 59341.796718749945,
      "d": 454.54499999999825,
      "v": 62
    },
    {
      "midi": 48,
      "hit": false,
      "t": 59545.394999999815,
      "d": 227.27249999999913,
      "v": 59
    },
    {
      "midi": 52,
      "hit": false,
      "t": 59545.394999999815,
      "d": 227.27249999999913,
      "v": 59
    },
    {
      "midi": 55,
      "hit": false,
      "t": 59545.394999999815,
      "d": 227.27249999999913,
      "v": 59
    },
    {
      "midi": 62,
      "hit": false,
      "t": 59545.394999999815,
      "d": 227.27249999999913,
      "v": 59
    },
    {
      "midi": 67,
      "hit": false,
      "t": 59545.394999999815,
      "d": 227.27249999999913,
      "v": 59
    },
    {
      "midi": 62,
      "hit": false,
      "t": 59753.72812499994,
      "d": 909.0900000000038,
      "v": 62
    },
    {
      "midi": 48,
      "hit": false,
      "t": 59772.667499999814,
      "d": 227.27249999999913,
      "v": 59
    },
    {
      "midi": 52,
      "hit": false,
      "t": 59772.667499999814,
      "d": 227.27249999999913,
      "v": 59
    },
    {
      "midi": 55,
      "hit": false,
      "t": 59772.667499999814,
      "d": 227.27249999999913,
      "v": 59
    },
    {
      "midi": 62,
      "hit": false,
      "t": 59772.667499999814,
      "d": 227.27249999999913,
      "v": 59
    },
    {
      "midi": 67,
      "hit": false,
      "t": 59772.667499999814,
      "d": 227.27249999999913,
      "v": 59
    },
    {
      "midi": 43,
      "hit": false,
      "t": 59999.93999999981,
      "d": 227.27249999999913,
      "v": 59
    },
    {
      "midi": 47,
      "hit": false,
      "t": 59999.93999999981,
      "d": 227.27249999999913,
      "v": 59
    },
    {
      "midi": 50,
      "hit": false,
      "t": 59999.93999999981,
      "d": 227.27249999999913,
      "v": 59
    },
    {
      "midi": 55,
      "hit": false,
      "t": 59999.93999999981,
      "d": 227.27249999999913,
      "v": 59
    },
    {
      "midi": 62,
      "hit": false,
      "t": 59999.93999999981,
      "d": 227.27249999999913,
      "v": 59
    },
    {
      "midi": 67,
      "hit": false,
      "t": 59999.93999999981,
      "d": 227.27249999999913,
      "v": 59
    },
    {
      "midi": 43,
      "hit": false,
      "t": 60227.21249999981,
      "d": 227.27249999999913,
      "v": 59
    },
    {
      "midi": 47,
      "hit": false,
      "t": 60227.21249999981,
      "d": 227.27249999999913,
      "v": 59
    },
    {
      "midi": 50,
      "hit": false,
      "t": 60227.21249999981,
      "d": 227.27249999999913,
      "v": 59
    },
    {
      "midi": 55,
      "hit": false,
      "t": 60227.21249999981,
      "d": 227.27249999999913,
      "v": 59
    },
    {
      "midi": 62,
      "hit": false,
      "t": 60227.21249999981,
      "d": 227.27249999999913,
      "v": 59
    },
    {
      "midi": 67,
      "hit": false,
      "t": 60227.21249999981,
      "d": 227.27249999999913,
      "v": 59
    },
    {
      "midi": 43,
      "hit": false,
      "t": 60454.48499999981,
      "d": 227.27249999999913,
      "v": 59
    },
    {
      "midi": 47,
      "hit": false,
      "t": 60454.48499999981,
      "d": 227.27249999999913,
      "v": 59
    },
    {
      "midi": 50,
      "hit": false,
      "t": 60454.48499999981,
      "d": 227.27249999999913,
      "v": 59
    },
    {
      "midi": 55,
      "hit": false,
      "t": 60454.48499999981,
      "d": 227.27249999999913,
      "v": 59
    },
    {
      "midi": 62,
      "hit": false,
      "t": 60454.48499999981,
      "d": 227.27249999999913,
      "v": 59
    },
    {
      "midi": 67,
      "hit": false,
      "t": 60454.48499999981,
      "d": 227.27249999999913,
      "v": 59
    },
    {
      "midi": 62,
      "hit": false,
      "t": 60662.81812499995,
      "d": 681.8174999999974,
      "v": 62
    },
    {
      "midi": 43,
      "hit": false,
      "t": 60681.75749999981,
      "d": 227.27249999999913,
      "v": 59
    },
    {
      "midi": 47,
      "hit": false,
      "t": 60681.75749999981,
      "d": 227.27249999999913,
      "v": 59
    },
    {
      "midi": 50,
      "hit": false,
      "t": 60681.75749999981,
      "d": 227.27249999999913,
      "v": 59
    },
    {
      "midi": 55,
      "hit": false,
      "t": 60681.75749999981,
      "d": 227.27249999999913,
      "v": 59
    },
    {
      "midi": 62,
      "hit": false,
      "t": 60681.75749999981,
      "d": 227.27249999999913,
      "v": 59
    },
    {
      "midi": 67,
      "hit": false,
      "t": 60681.75749999981,
      "d": 227.27249999999913,
      "v": 59
    },
    {
      "midi": 43,
      "hit": false,
      "t": 60909.02999999981,
      "d": 227.27249999999913,
      "v": 59
    },
    {
      "midi": 47,
      "hit": false,
      "t": 60909.02999999981,
      "d": 227.27249999999913,
      "v": 59
    },
    {
      "midi": 50,
      "hit": false,
      "t": 60909.02999999981,
      "d": 227.27249999999913,
      "v": 59
    },
    {
      "midi": 55,
      "hit": false,
      "t": 60909.02999999981,
      "d": 227.27249999999913,
      "v": 59
    },
    {
      "midi": 62,
      "hit": false,
      "t": 60909.02999999981,
      "d": 227.27249999999913,
      "v": 59
    },
    {
      "midi": 67,
      "hit": false,
      "t": 60909.02999999981,
      "d": 227.27249999999913,
      "v": 59
    },
    {
      "midi": 43,
      "hit": false,
      "t": 61136.30249999981,
      "d": 227.27249999999913,
      "v": 59
    },
    {
      "midi": 47,
      "hit": false,
      "t": 61136.30249999981,
      "d": 227.27249999999913,
      "v": 59
    },
    {
      "midi": 50,
      "hit": false,
      "t": 61136.30249999981,
      "d": 227.27249999999913,
      "v": 59
    },
    {
      "midi": 55,
      "hit": false,
      "t": 61136.30249999981,
      "d": 227.27249999999913,
      "v": 59
    },
    {
      "midi": 62,
      "hit": false,
      "t": 61136.30249999981,
      "d": 227.27249999999913,
      "v": 59
    },
    {
      "midi": 67,
      "hit": false,
      "t": 61136.30249999981,
      "d": 227.27249999999913,
      "v": 59
    },
    {
      "midi": 43,
      "hit": false,
      "t": 61363.57499999981,
      "d": 227.27249999999913,
      "v": 59
    },
    {
      "midi": 47,
      "hit": false,
      "t": 61363.57499999981,
      "d": 227.27249999999913,
      "v": 59
    },
    {
      "midi": 50,
      "hit": false,
      "t": 61363.57499999981,
      "d": 227.27249999999913,
      "v": 59
    },
    {
      "midi": 55,
      "hit": false,
      "t": 61363.57499999981,
      "d": 227.27249999999913,
      "v": 59
    },
    {
      "midi": 62,
      "hit": false,
      "t": 61363.57499999981,
      "d": 227.27249999999913,
      "v": 59
    },
    {
      "midi": 67,
      "hit": false,
      "t": 61363.57499999981,
      "d": 227.27249999999913,
      "v": 59
    },
    {
      "midi": 43,
      "hit": false,
      "t": 61590.84749999981,
      "d": 227.27249999999913,
      "v": 59
    },
    {
      "midi": 47,
      "hit": false,
      "t": 61590.84749999981,
      "d": 227.27249999999913,
      "v": 59
    },
    {
      "midi": 50,
      "hit": false,
      "t": 61590.84749999981,
      "d": 227.27249999999913,
      "v": 59
    },
    {
      "midi": 55,
      "hit": false,
      "t": 61590.84749999981,
      "d": 227.27249999999913,
      "v": 59
    },
    {
      "midi": 62,
      "hit": false,
      "t": 61590.84749999981,
      "d": 227.27249999999913,
      "v": 59
    },
    {
      "midi": 67,
      "hit": false,
      "t": 61590.84749999981,
      "d": 227.27249999999913,
      "v": 59
    },
    {
      "midi": 48,
      "hit": false,
      "t": 61818.119999999806,
      "d": 227.27249999999913,
      "v": 59
    },
    {
      "midi": 52,
      "hit": false,
      "t": 61818.119999999806,
      "d": 227.27249999999913,
      "v": 59
    },
    {
      "midi": 55,
      "hit": false,
      "t": 61818.119999999806,
      "d": 227.27249999999913,
      "v": 59
    },
    {
      "midi": 62,
      "hit": false,
      "t": 61818.119999999806,
      "d": 227.27249999999913,
      "v": 59
    },
    {
      "midi": 67,
      "hit": false,
      "t": 61818.119999999806,
      "d": 227.27249999999913,
      "v": 59
    },
    {
      "midi": 69,
      "hit": false,
      "t": 61818.119999999944,
      "d": 227.27249999999913,
      "v": 62
    },
    {
      "midi": 48,
      "hit": false,
      "t": 62045.392499999805,
      "d": 227.27249999999913,
      "v": 59
    },
    {
      "midi": 52,
      "hit": false,
      "t": 62045.392499999805,
      "d": 227.27249999999913,
      "v": 59
    },
    {
      "midi": 55,
      "hit": false,
      "t": 62045.392499999805,
      "d": 227.27249999999913,
      "v": 59
    },
    {
      "midi": 62,
      "hit": false,
      "t": 62045.392499999805,
      "d": 227.27249999999913,
      "v": 59
    },
    {
      "midi": 67,
      "hit": false,
      "t": 62045.392499999805,
      "d": 227.27249999999913,
      "v": 59
    },
    {
      "midi": 67,
      "hit": false,
      "t": 62045.39249999994,
      "d": 454.54499999999825,
      "v": 62
    },
    {
      "midi": 48,
      "hit": false,
      "t": 62272.664999999804,
      "d": 227.27249999999913,
      "v": 59
    },
    {
      "midi": 52,
      "hit": false,
      "t": 62272.664999999804,
      "d": 227.27249999999913,
      "v": 59
    },
    {
      "midi": 55,
      "hit": false,
      "t": 62272.664999999804,
      "d": 227.27249999999913,
      "v": 59
    },
    {
      "midi": 62,
      "hit": false,
      "t": 62272.664999999804,
      "d": 227.27249999999913,
      "v": 59
    },
    {
      "midi": 67,
      "hit": false,
      "t": 62272.664999999804,
      "d": 227.27249999999913,
      "v": 59
    },
    {
      "midi": 50,
      "hit": false,
      "t": 62499.9374999998,
      "d": 454.54499999999825,
      "v": 59
    },
    {
      "midi": 54,
      "hit": false,
      "t": 62499.9374999998,
      "d": 454.54499999999825,
      "v": 59
    },
    {
      "midi": 57,
      "hit": false,
      "t": 62499.9374999998,
      "d": 454.54499999999825,
      "v": 59
    },
    {
      "midi": 62,
      "hit": false,
      "t": 62499.9374999998,
      "d": 454.54499999999825,
      "v": 59
    },
    {
      "midi": 66,
      "hit": false,
      "t": 62499.9374999998,
      "d": 454.54499999999825,
      "v": 59
    },
    {
      "midi": 71,
      "hit": false,
      "t": 62514.14203124994,
      "d": 454.54499999999825,
      "v": 62
    },
    {
      "midi": 50,
      "hit": false,
      "t": 62954.4824999998,
      "d": 227.27249999999913,
      "v": 59
    },
    {
      "midi": 54,
      "hit": false,
      "t": 62954.4824999998,
      "d": 227.27249999999913,
      "v": 59
    },
    {
      "midi": 57,
      "hit": false,
      "t": 62954.4824999998,
      "d": 227.27249999999913,
      "v": 59
    },
    {
      "midi": 62,
      "hit": false,
      "t": 62954.4824999998,
      "d": 227.27249999999913,
      "v": 59
    },
    {
      "midi": 66,
      "hit": false,
      "t": 62954.4824999998,
      "d": 227.27249999999913,
      "v": 59
    },
    {
      "midi": 50,
      "hit": false,
      "t": 63181.7549999998,
      "d": 227.27249999999913,
      "v": 59
    },
    {
      "midi": 54,
      "hit": false,
      "t": 63181.7549999998,
      "d": 227.27249999999913,
      "v": 59
    },
    {
      "midi": 57,
      "hit": false,
      "t": 63181.7549999998,
      "d": 227.27249999999913,
      "v": 59
    },
    {
      "midi": 62,
      "hit": false,
      "t": 63181.7549999998,
      "d": 227.27249999999913,
      "v": 59
    },
    {
      "midi": 66,
      "hit": false,
      "t": 63181.7549999998,
      "d": 227.27249999999913,
      "v": 59
    },
    {
      "midi": 67,
      "hit": false,
      "t": 63380.618437499936,
      "d": 42.61359375000029,
      "v": 62
    },
    {
      "midi": 43,
      "hit": false,
      "t": 63409.0274999998,
      "d": 454.54499999999825,
      "v": 59
    },
    {
      "midi": 47,
      "hit": false,
      "t": 63409.0274999998,
      "d": 454.54499999999825,
      "v": 59
    },
    {
      "midi": 50,
      "hit": false,
      "t": 63409.0274999998,
      "d": 454.54499999999825,
      "v": 59
    },
    {
      "midi": 55,
      "hit": false,
      "t": 63409.0274999998,
      "d": 454.54499999999825,
      "v": 59
    },
    {
      "midi": 62,
      "hit": false,
      "t": 63409.0274999998,
      "d": 454.54499999999825,
      "v": 59
    },
    {
      "midi": 67,
      "hit": false,
      "t": 63409.0274999998,
      "d": 454.54499999999825,
      "v": 59
    },
    {
      "midi": 43,
      "hit": false,
      "t": 63863.5724999998,
      "d": 227.27249999999913,
      "v": 59
    },
    {
      "midi": 47,
      "hit": false,
      "t": 63863.5724999998,
      "d": 227.27249999999913,
      "v": 59
    },
    {
      "midi": 50,
      "hit": false,
      "t": 63863.5724999998,
      "d": 227.27249999999913,
      "v": 59
    },
    {
      "midi": 55,
      "hit": false,
      "t": 63863.5724999998,
      "d": 227.27249999999913,
      "v": 59
    },
    {
      "midi": 62,
      "hit": false,
      "t": 63863.5724999998,
      "d": 227.27249999999913,
      "v": 59
    },
    {
      "midi": 67,
      "hit": false,
      "t": 63863.5724999998,
      "d": 227.27249999999913,
      "v": 59
    },
    {
      "midi": 43,
      "hit": false,
      "t": 64090.8449999998,
      "d": 454.54499999999825,
      "v": 59
    },
    {
      "midi": 47,
      "hit": false,
      "t": 64090.8449999998,
      "d": 454.54499999999825,
      "v": 59
    },
    {
      "midi": 50,
      "hit": false,
      "t": 64090.8449999998,
      "d": 454.54499999999825,
      "v": 59
    },
    {
      "midi": 55,
      "hit": false,
      "t": 64090.8449999998,
      "d": 454.54499999999825,
      "v": 59
    },
    {
      "midi": 62,
      "hit": false,
      "t": 64090.8449999998,
      "d": 454.54499999999825,
      "v": 59
    },
    {
      "midi": 67,
      "hit": false,
      "t": 64090.8449999998,
      "d": 454.54499999999825,
      "v": 59
    },
    {
      "midi": 43,
      "hit": false,
      "t": 64545.389999999796,
      "d": 227.27249999999913,
      "v": 59
    },
    {
      "midi": 47,
      "hit": false,
      "t": 64545.389999999796,
      "d": 227.27249999999913,
      "v": 59
    },
    {
      "midi": 50,
      "hit": false,
      "t": 64545.389999999796,
      "d": 227.27249999999913,
      "v": 59
    },
    {
      "midi": 55,
      "hit": false,
      "t": 64545.389999999796,
      "d": 227.27249999999913,
      "v": 59
    },
    {
      "midi": 62,
      "hit": false,
      "t": 64545.389999999796,
      "d": 227.27249999999913,
      "v": 59
    },
    {
      "midi": 67,
      "hit": false,
      "t": 64545.389999999796,
      "d": 227.27249999999913,
      "v": 59
    },
    {
      "midi": 43,
      "hit": false,
      "t": 64772.662499999795,
      "d": 227.27249999999913,
      "v": 59
    },
    {
      "midi": 47,
      "hit": false,
      "t": 64772.662499999795,
      "d": 227.27249999999913,
      "v": 59
    },
    {
      "midi": 50,
      "hit": false,
      "t": 64772.662499999795,
      "d": 227.27249999999913,
      "v": 59
    },
    {
      "midi": 55,
      "hit": false,
      "t": 64772.662499999795,
      "d": 227.27249999999913,
      "v": 59
    },
    {
      "midi": 62,
      "hit": false,
      "t": 64772.662499999795,
      "d": 227.27249999999913,
      "v": 59
    },
    {
      "midi": 67,
      "hit": false,
      "t": 64772.662499999795,
      "d": 227.27249999999913,
      "v": 59
    },
    {
      "midi": 43,
      "hit": false,
      "t": 64999.934999999794,
      "d": 227.27249999999913,
      "v": 59
    },
    {
      "midi": 47,
      "hit": false,
      "t": 64999.934999999794,
      "d": 227.27249999999913,
      "v": 59
    },
    {
      "midi": 50,
      "hit": false,
      "t": 64999.934999999794,
      "d": 227.27249999999913,
      "v": 59
    },
    {
      "midi": 55,
      "hit": false,
      "t": 64999.934999999794,
      "d": 227.27249999999913,
      "v": 59
    },
    {
      "midi": 62,
      "hit": false,
      "t": 64999.934999999794,
      "d": 227.27249999999913,
      "v": 59
    },
    {
      "midi": 67,
      "hit": false,
      "t": 64999.934999999794,
      "d": 227.27249999999913,
      "v": 59
    },
    {
      "midi": 43,
      "hit": false,
      "t": 65227.20749999979,
      "d": 227.27249999999913,
      "v": 59
    },
    {
      "midi": 47,
      "hit": false,
      "t": 65227.20749999979,
      "d": 227.27249999999913,
      "v": 59
    },
    {
      "midi": 50,
      "hit": false,
      "t": 65227.20749999979,
      "d": 227.27249999999913,
      "v": 59
    },
    {
      "midi": 55,
      "hit": false,
      "t": 65227.20749999979,
      "d": 227.27249999999913,
      "v": 59
    },
    {
      "midi": 62,
      "hit": false,
      "t": 65227.20749999979,
      "d": 227.27249999999913,
      "v": 59
    },
    {
      "midi": 67,
      "hit": false,
      "t": 65227.20749999979,
      "d": 227.27249999999913,
      "v": 59
    },
    {
      "midi": 43,
      "hit": false,
      "t": 65454.47999999979,
      "d": 454.54499999999825,
      "v": 59
    },
    {
      "midi": 47,
      "hit": false,
      "t": 65454.47999999979,
      "d": 454.54499999999825,
      "v": 59
    },
    {
      "midi": 50,
      "hit": false,
      "t": 65454.47999999979,
      "d": 454.54499999999825,
      "v": 59
    },
    {
      "midi": 55,
      "hit": false,
      "t": 65454.47999999979,
      "d": 454.54499999999825,
      "v": 59
    },
    {
      "midi": 62,
      "hit": false,
      "t": 65454.47999999979,
      "d": 454.54499999999825,
      "v": 59
    },
    {
      "midi": 67,
      "hit": false,
      "t": 65454.47999999979,
      "d": 454.54499999999825,
      "v": 59
    },
    {
      "midi": 74,
      "hit": false,
      "t": 65454.47999999994,
      "d": 909.0899999999965,
      "v": 62
    },
    {
      "midi": 77,
      "hit": false,
      "t": 65454.47999999994,
      "d": 909.0899999999965,
      "v": 62
    },
    {
      "midi": 81,
      "hit": false,
      "t": 65454.47999999994,
      "d": 909.0899999999965,
      "v": 62
    },
    {
      "midi": 43,
      "hit": false,
      "t": 65909.02499999979,
      "d": 681.8175000000047,
      "v": 59
    },
    {
      "midi": 47,
      "hit": false,
      "t": 65909.02499999979,
      "d": 681.8175000000047,
      "v": 59
    },
    {
      "midi": 50,
      "hit": false,
      "t": 65909.02499999979,
      "d": 681.8175000000047,
      "v": 59
    },
    {
      "midi": 55,
      "hit": false,
      "t": 65909.02499999979,
      "d": 681.8175000000047,
      "v": 59
    },
    {
      "midi": 62,
      "hit": false,
      "t": 65909.02499999979,
      "d": 681.8175000000047,
      "v": 59
    },
    {
      "midi": 67,
      "hit": false,
      "t": 65909.02499999979,
      "d": 681.8175000000047,
      "v": 59
    },
    {
      "midi": 74,
      "hit": false,
      "t": 66363.56999999993,
      "d": 909.0899999999965,
      "v": 62
    },
    {
      "midi": 77,
      "hit": false,
      "t": 66363.56999999993,
      "d": 909.0899999999965,
      "v": 62
    },
    {
      "midi": 81,
      "hit": false,
      "t": 66363.56999999993,
      "d": 909.0899999999965,
      "v": 62
    },
    {
      "midi": 43,
      "hit": false,
      "t": 66590.8424999998,
      "d": 227.2725000000064,
      "v": 59
    },
    {
      "midi": 47,
      "hit": false,
      "t": 66590.8424999998,
      "d": 227.2725000000064,
      "v": 59
    },
    {
      "midi": 50,
      "hit": false,
      "t": 66590.8424999998,
      "d": 227.2725000000064,
      "v": 59
    },
    {
      "midi": 55,
      "hit": false,
      "t": 66590.8424999998,
      "d": 227.2725000000064,
      "v": 59
    },
    {
      "midi": 62,
      "hit": false,
      "t": 66590.8424999998,
      "d": 227.2725000000064,
      "v": 59
    },
    {
      "midi": 67,
      "hit": false,
      "t": 66590.8424999998,
      "d": 227.2725000000064,
      "v": 59
    },
    {
      "midi": 43,
      "hit": false,
      "t": 66818.1149999998,
      "d": 227.2725000000064,
      "v": 59
    },
    {
      "midi": 47,
      "hit": false,
      "t": 66818.1149999998,
      "d": 227.2725000000064,
      "v": 59
    },
    {
      "midi": 50,
      "hit": false,
      "t": 66818.1149999998,
      "d": 227.2725000000064,
      "v": 59
    },
    {
      "midi": 55,
      "hit": false,
      "t": 66818.1149999998,
      "d": 227.2725000000064,
      "v": 59
    },
    {
      "midi": 62,
      "hit": false,
      "t": 66818.1149999998,
      "d": 227.2725000000064,
      "v": 59
    },
    {
      "midi": 67,
      "hit": false,
      "t": 66818.1149999998,
      "d": 227.2725000000064,
      "v": 59
    },
    {
      "midi": 43,
      "hit": false,
      "t": 67045.38749999981,
      "d": 227.2725000000064,
      "v": 59
    },
    {
      "midi": 47,
      "hit": false,
      "t": 67045.38749999981,
      "d": 227.2725000000064,
      "v": 59
    },
    {
      "midi": 50,
      "hit": false,
      "t": 67045.38749999981,
      "d": 227.2725000000064,
      "v": 59
    },
    {
      "midi": 55,
      "hit": false,
      "t": 67045.38749999981,
      "d": 227.2725000000064,
      "v": 59
    },
    {
      "midi": 62,
      "hit": false,
      "t": 67045.38749999981,
      "d": 227.2725000000064,
      "v": 59
    },
    {
      "midi": 67,
      "hit": false,
      "t": 67045.38749999981,
      "d": 227.2725000000064,
      "v": 59
    },
    {
      "midi": 43,
      "hit": false,
      "t": 67272.65999999981,
      "d": 454.54499999999825,
      "v": 59
    },
    {
      "midi": 47,
      "hit": false,
      "t": 67272.65999999981,
      "d": 454.54499999999825,
      "v": 59
    },
    {
      "midi": 50,
      "hit": false,
      "t": 67272.65999999981,
      "d": 454.54499999999825,
      "v": 59
    },
    {
      "midi": 55,
      "hit": false,
      "t": 67272.65999999981,
      "d": 454.54499999999825,
      "v": 59
    },
    {
      "midi": 62,
      "hit": false,
      "t": 67272.65999999981,
      "d": 454.54499999999825,
      "v": 59
    },
    {
      "midi": 67,
      "hit": false,
      "t": 67272.65999999981,
      "d": 454.54499999999825,
      "v": 59
    },
    {
      "midi": 74,
      "hit": false,
      "t": 67272.65999999993,
      "d": 909.0899999999965,
      "v": 62
    },
    {
      "midi": 77,
      "hit": false,
      "t": 67272.65999999993,
      "d": 909.0899999999965,
      "v": 62
    },
    {
      "midi": 81,
      "hit": false,
      "t": 67272.65999999993,
      "d": 909.0899999999965,
      "v": 62
    },
    {
      "midi": 43,
      "hit": false,
      "t": 67727.20499999981,
      "d": 681.8175000000047,
      "v": 59
    },
    {
      "midi": 47,
      "hit": false,
      "t": 67727.20499999981,
      "d": 681.8175000000047,
      "v": 59
    },
    {
      "midi": 50,
      "hit": false,
      "t": 67727.20499999981,
      "d": 681.8175000000047,
      "v": 59
    },
    {
      "midi": 55,
      "hit": false,
      "t": 67727.20499999981,
      "d": 681.8175000000047,
      "v": 59
    },
    {
      "midi": 62,
      "hit": false,
      "t": 67727.20499999981,
      "d": 681.8175000000047,
      "v": 59
    },
    {
      "midi": 67,
      "hit": false,
      "t": 67727.20499999981,
      "d": 681.8175000000047,
      "v": 59
    },
    {
      "midi": 74,
      "hit": false,
      "t": 68181.74999999993,
      "d": 909.0899999999965,
      "v": 62
    },
    {
      "midi": 77,
      "hit": false,
      "t": 68181.74999999993,
      "d": 909.0899999999965,
      "v": 62
    },
    {
      "midi": 81,
      "hit": false,
      "t": 68181.74999999993,
      "d": 909.0899999999965,
      "v": 62
    },
    {
      "midi": 43,
      "hit": false,
      "t": 68409.02249999982,
      "d": 227.2725000000064,
      "v": 59
    },
    {
      "midi": 47,
      "hit": false,
      "t": 68409.02249999982,
      "d": 227.2725000000064,
      "v": 59
    },
    {
      "midi": 50,
      "hit": false,
      "t": 68409.02249999982,
      "d": 227.2725000000064,
      "v": 59
    },
    {
      "midi": 55,
      "hit": false,
      "t": 68409.02249999982,
      "d": 227.2725000000064,
      "v": 59
    },
    {
      "midi": 62,
      "hit": false,
      "t": 68409.02249999982,
      "d": 227.2725000000064,
      "v": 59
    },
    {
      "midi": 67,
      "hit": false,
      "t": 68409.02249999982,
      "d": 227.2725000000064,
      "v": 59
    },
    {
      "midi": 43,
      "hit": false,
      "t": 68636.29499999982,
      "d": 227.2725000000064,
      "v": 59
    },
    {
      "midi": 47,
      "hit": false,
      "t": 68636.29499999982,
      "d": 227.2725000000064,
      "v": 59
    },
    {
      "midi": 50,
      "hit": false,
      "t": 68636.29499999982,
      "d": 227.2725000000064,
      "v": 59
    },
    {
      "midi": 55,
      "hit": false,
      "t": 68636.29499999982,
      "d": 227.2725000000064,
      "v": 59
    },
    {
      "midi": 62,
      "hit": false,
      "t": 68636.29499999982,
      "d": 227.2725000000064,
      "v": 59
    },
    {
      "midi": 67,
      "hit": false,
      "t": 68636.29499999982,
      "d": 227.2725000000064,
      "v": 59
    },
    {
      "midi": 43,
      "hit": false,
      "t": 68863.56749999983,
      "d": 227.2725000000064,
      "v": 59
    },
    {
      "midi": 47,
      "hit": false,
      "t": 68863.56749999983,
      "d": 227.2725000000064,
      "v": 59
    },
    {
      "midi": 50,
      "hit": false,
      "t": 68863.56749999983,
      "d": 227.2725000000064,
      "v": 59
    },
    {
      "midi": 55,
      "hit": false,
      "t": 68863.56749999983,
      "d": 227.2725000000064,
      "v": 59
    },
    {
      "midi": 62,
      "hit": false,
      "t": 68863.56749999983,
      "d": 227.2725000000064,
      "v": 59
    },
    {
      "midi": 67,
      "hit": false,
      "t": 68863.56749999983,
      "d": 227.2725000000064,
      "v": 59
    },
    {
      "midi": 48,
      "hit": false,
      "t": 69090.83999999984,
      "d": 3636.3600000000006,
      "v": 59
    },
    {
      "midi": 52,
      "hit": false,
      "t": 69090.83999999984,
      "d": 3636.3600000000006,
      "v": 59
    },
    {
      "midi": 55,
      "hit": false,
      "t": 69090.83999999984,
      "d": 3636.3600000000006,
      "v": 59
    },
    {
      "midi": 60,
      "hit": false,
      "t": 69090.83999999984,
      "d": 3636.3600000000006,
      "v": 59
    },
    {
      "midi": 64,
      "hit": false,
      "t": 69090.83999999984,
      "d": 3636.3600000000006,
      "v": 59
    },
    {
      "midi": 74,
      "hit": false,
      "t": 69090.83999999992,
      "d": 227.2725000000064,
      "v": 62
    },
    {
      "midi": 77,
      "hit": false,
      "t": 69090.83999999992,
      "d": 227.2725000000064,
      "v": 62
    },
    {
      "midi": 81,
      "hit": false,
      "t": 69090.83999999992,
      "d": 227.2725000000064,
      "v": 62
    },
    {
      "midi": 72,
      "hit": false,
      "t": 69318.11249999993,
      "d": 681.8175000000047,
      "v": 62
    },
    {
      "midi": 76,
      "hit": false,
      "t": 69318.11249999993,
      "d": 681.8175000000047,
      "v": 62
    },
    {
      "midi": 79,
      "hit": false,
      "t": 69318.11249999993,
      "d": 681.8175000000047,
      "v": 62
    },
    {
      "midi": 55,
      "hit": false,
      "t": 70227.2025,
      "d": 227.2725000000064,
      "v": 59
    },
    {
      "midi": 60,
      "hit": false,
      "t": 70454.475,
      "d": 227.2725000000064,
      "v": 59
    },
    {
      "midi": 64,
      "hit": false,
      "t": 70454.475,
      "d": 227.2725000000064,
      "v": 59
    },
    {
      "midi": 62,
      "hit": false,
      "t": 70681.74750000001,
      "d": 227.2725000000064,
      "v": 59
    },
    {
      "midi": 65,
      "hit": false,
      "t": 70681.74750000001,
      "d": 227.2725000000064,
      "v": 59
    },
    {
      "midi": 64,
      "hit": false,
      "t": 70909.02000000002,
      "d": 303.02999999999884,
      "v": 59
    },
    {
      "midi": 67,
      "hit": false,
      "t": 70909.02000000002,
      "d": 303.02999999999884,
      "v": 59
    },
    {
      "midi": 62,
      "hit": false,
      "t": 71212.05000000002,
      "d": 303.02999999999884,
      "v": 59
    },
    {
      "midi": 65,
      "hit": false,
      "t": 71212.05000000002,
      "d": 303.02999999999884,
      "v": 59
    },
    {
      "midi": 60,
      "hit": false,
      "t": 71515.08000000002,
      "d": 303.02999999999884,
      "v": 59
    },
    {
      "midi": 64,
      "hit": false,
      "t": 71515.08000000002,
      "d": 303.02999999999884,
      "v": 59
    },
    {
      "midi": 62,
      "hit": false,
      "t": 71818.11000000002,
      "d": 454.54499999999825,
      "v": 59
    },
    {
      "midi": 65,
      "hit": false,
      "t": 71818.11000000002,
      "d": 454.54499999999825,
      "v": 59
    },
    {
      "midi": 60,
      "hit": false,
      "t": 72272.65500000001,
      "d": 454.54499999999825,
      "v": 59
    },
    {
      "midi": 64,
      "hit": false,
      "t": 72272.65500000001,
      "d": 454.54499999999825,
      "v": 59
    },
    {
      "midi": 60,
      "hit": false,
      "t": 72727.20000000001,
      "d": 227.27249999999185,
      "v": 59
    },
    {
      "midi": 64,
      "hit": false,
      "t": 72727.20000000001,
      "d": 227.27249999999185,
      "v": 59
    },
    {
      "midi": 62,
      "hit": false,
      "t": 72926.06343750001,
      "d": 833.3325000000041,
      "v": 59
    },
    {
      "midi": 59,
      "hit": false,
      "t": 72959.20734375001,
      "d": 833.3325000000041,
      "v": 59
    },
    {
      "midi": 60,
      "hit": false,
      "t": 73636.29000000001,
      "d": 303.02999999999884,
      "v": 59
    },
    {
      "midi": 64,
      "hit": false,
      "t": 73636.29000000001,
      "d": 303.02999999999884,
      "v": 59
    },
    {
      "midi": 60,
      "hit": false,
      "t": 73939.32,
      "d": 303.02999999999884,
      "v": 59
    },
    {
      "midi": 64,
      "hit": false,
      "t": 73939.32,
      "d": 303.02999999999884,
      "v": 59
    },
    {
      "midi": 59,
      "hit": false,
      "t": 74545.38,
      "d": 18.939375000001746,
      "v": 59
    },
    {
      "midi": 62,
      "hit": false,
      "t": 74545.38,
      "d": 18.939375000001746,
      "v": 59
    },
    {
      "midi": 60,
      "hit": false,
      "t": 74772.65250000001,
      "d": 719.6962500000081,
      "v": 59
    },
    {
      "midi": 57,
      "hit": false,
      "t": 75454.47000000002,
      "d": 37.87875000000349,
      "v": 59
    },
    {
      "midi": 62,
      "hit": false,
      "t": 75681.74250000002,
      "d": 75.75750000000698,
      "v": 59
    },
    {
      "midi": 59,
      "hit": false,
      "t": 75795.37875000003,
      "d": 303.02999999999884,
      "v": 59
    },
    {
      "midi": 57,
      "hit": false,
      "t": 76060.53000000003,
      "d": 303.02999999999884,
      "v": 59
    },
    {
      "midi": 43,
      "hit": false,
      "t": 76363.55999999984,
      "d": 1136.362500000003,
      "v": 59
    },
    {
      "midi": 47,
      "hit": false,
      "t": 76363.55999999984,
      "d": 1136.362500000003,
      "v": 59
    },
    {
      "midi": 50,
      "hit": false,
      "t": 76363.55999999984,
      "d": 1136.362500000003,
      "v": 59
    },
    {
      "midi": 55,
      "hit": false,
      "t": 76363.55999999984,
      "d": 1136.362500000003,
      "v": 59
    },
    {
      "midi": 59,
      "hit": false,
      "t": 76363.55999999984,
      "d": 1136.362500000003,
      "v": 59
    },
    {
      "midi": 62,
      "hit": false,
      "t": 76363.55999999984,
      "d": 1136.362500000003,
      "v": 59
    },
    {
      "midi": 67,
      "hit": false,
      "t": 76363.55999999984,
      "d": 1136.362500000003,
      "v": 59
    },
    {
      "midi": 60,
      "hit": false,
      "t": 76363.56000000003,
      "d": 18.939375000001746,
      "v": 59
    },
    {
      "midi": 57,
      "hit": false,
      "t": 76363.56000000003,
      "d": 340.9087499999878,
      "v": 59
    },
    {
      "midi": 59,
      "hit": false,
      "t": 76685.52937500003,
      "d": 909.089999999982,
      "v": 59
    },
    {
      "midi": 55,
      "hit": false,
      "t": 76694.99906250002,
      "d": 909.089999999982,
      "v": 59
    },
    {
      "midi": 43,
      "hit": false,
      "t": 77499.92249999984,
      "d": 227.2725000000064,
      "v": 59
    },
    {
      "midi": 47,
      "hit": false,
      "t": 77499.92249999984,
      "d": 227.2725000000064,
      "v": 59
    },
    {
      "midi": 50,
      "hit": false,
      "t": 77499.92249999984,
      "d": 227.2725000000064,
      "v": 59
    },
    {
      "midi": 55,
      "hit": false,
      "t": 77499.92249999984,
      "d": 227.2725000000064,
      "v": 59
    },
    {
      "midi": 59,
      "hit": false,
      "t": 77499.92249999984,
      "d": 227.2725000000064,
      "v": 59
    },
    {
      "midi": 62,
      "hit": false,
      "t": 77499.92249999984,
      "d": 227.2725000000064,
      "v": 59
    },
    {
      "midi": 67,
      "hit": false,
      "t": 77499.92249999984,
      "d": 227.2725000000064,
      "v": 59
    },
    {
      "midi": 43,
      "hit": false,
      "t": 77727.19499999985,
      "d": 227.2725000000064,
      "v": 59
    },
    {
      "midi": 47,
      "hit": false,
      "t": 77727.19499999985,
      "d": 227.2725000000064,
      "v": 59
    },
    {
      "midi": 50,
      "hit": false,
      "t": 77727.19499999985,
      "d": 227.2725000000064,
      "v": 59
    },
    {
      "midi": 55,
      "hit": false,
      "t": 77727.19499999985,
      "d": 227.2725000000064,
      "v": 59
    },
    {
      "midi": 59,
      "hit": false,
      "t": 77727.19499999985,
      "d": 227.2725000000064,
      "v": 59
    },
    {
      "midi": 62,
      "hit": false,
      "t": 77727.19499999985,
      "d": 227.2725000000064,
      "v": 59
    },
    {
      "midi": 67,
      "hit": false,
      "t": 77727.19499999985,
      "d": 227.2725000000064,
      "v": 59
    },
    {
      "midi": 43,
      "hit": false,
      "t": 77954.46749999985,
      "d": 227.2725000000064,
      "v": 59
    },
    {
      "midi": 47,
      "hit": false,
      "t": 77954.46749999985,
      "d": 227.2725000000064,
      "v": 59
    },
    {
      "midi": 50,
      "hit": false,
      "t": 77954.46749999985,
      "d": 227.2725000000064,
      "v": 59
    },
    {
      "midi": 55,
      "hit": false,
      "t": 77954.46749999985,
      "d": 227.2725000000064,
      "v": 59
    },
    {
      "midi": 59,
      "hit": false,
      "t": 77954.46749999985,
      "d": 227.2725000000064,
      "v": 59
    },
    {
      "midi": 62,
      "hit": false,
      "t": 77954.46749999985,
      "d": 227.2725000000064,
      "v": 59
    },
    {
      "midi": 67,
      "hit": false,
      "t": 77954.46749999985,
      "d": 227.2725000000064,
      "v": 59
    },
    {
      "midi": 43,
      "hit": false,
      "t": 78181.73999999986,
      "d": 454.54499999999825,
      "v": 59
    },
    {
      "midi": 47,
      "hit": false,
      "t": 78181.73999999986,
      "d": 454.54499999999825,
      "v": 59
    },
    {
      "midi": 50,
      "hit": false,
      "t": 78181.73999999986,
      "d": 454.54499999999825,
      "v": 59
    },
    {
      "midi": 55,
      "hit": false,
      "t": 78181.73999999986,
      "d": 454.54499999999825,
      "v": 59
    },
    {
      "midi": 59,
      "hit": false,
      "t": 78181.73999999986,
      "d": 454.54499999999825,
      "v": 59
    },
    {
      "midi": 62,
      "hit": false,
      "t": 78181.73999999986,
      "d": 454.54499999999825,
      "v": 59
    },
    {
      "midi": 67,
      "hit": false,
      "t": 78181.73999999986,
      "d": 454.54499999999825,
      "v": 59
    },
    {
      "midi": 55,
      "hit": false,
      "t": 78181.74,
      "d": 1818.179999999993,
      "v": 59
    },
    {
      "midi": 62,
      "hit": false,
      "t": 78423.21703125001,
      "d": 113.63624999999593,
      "v": 59
    },
    {
      "midi": 71,
      "hit": false,
      "t": 78503.709375,
      "d": 1363.6349999999948,
      "v": 59
    },
    {
      "midi": 74,
      "hit": false,
      "t": 78522.64875000001,
      "d": 1363.6349999999948,
      "v": 59
    },
    {
      "midi": 43,
      "hit": false,
      "t": 78636.28499999986,
      "d": 681.8175000000047,
      "v": 59
    },
    {
      "midi": 47,
      "hit": false,
      "t": 78636.28499999986,
      "d": 681.8175000000047,
      "v": 59
    },
    {
      "midi": 50,
      "hit": false,
      "t": 78636.28499999986,
      "d": 681.8175000000047,
      "v": 59
    },
    {
      "midi": 55,
      "hit": false,
      "t": 78636.28499999986,
      "d": 681.8175000000047,
      "v": 59
    },
    {
      "midi": 59,
      "hit": false,
      "t": 78636.28499999986,
      "d": 681.8175000000047,
      "v": 59
    },
    {
      "midi": 62,
      "hit": false,
      "t": 78636.28499999986,
      "d": 681.8175000000047,
      "v": 59
    },
    {
      "midi": 67,
      "hit": false,
      "t": 78636.28499999986,
      "d": 681.8175000000047,
      "v": 59
    },
    {
      "midi": 43,
      "hit": false,
      "t": 79318.10249999986,
      "d": 227.2725000000064,
      "v": 59
    },
    {
      "midi": 47,
      "hit": false,
      "t": 79318.10249999986,
      "d": 227.2725000000064,
      "v": 59
    },
    {
      "midi": 50,
      "hit": false,
      "t": 79318.10249999986,
      "d": 227.2725000000064,
      "v": 59
    },
    {
      "midi": 55,
      "hit": false,
      "t": 79318.10249999986,
      "d": 227.2725000000064,
      "v": 59
    },
    {
      "midi": 59,
      "hit": false,
      "t": 79318.10249999986,
      "d": 227.2725000000064,
      "v": 59
    },
    {
      "midi": 62,
      "hit": false,
      "t": 79318.10249999986,
      "d": 227.2725000000064,
      "v": 59
    },
    {
      "midi": 67,
      "hit": false,
      "t": 79318.10249999986,
      "d": 227.2725000000064,
      "v": 59
    },
    {
      "midi": 43,
      "hit": false,
      "t": 79545.37499999987,
      "d": 227.2725000000064,
      "v": 59
    },
    {
      "midi": 47,
      "hit": false,
      "t": 79545.37499999987,
      "d": 227.2725000000064,
      "v": 59
    },
    {
      "midi": 50,
      "hit": false,
      "t": 79545.37499999987,
      "d": 227.2725000000064,
      "v": 59
    },
    {
      "midi": 55,
      "hit": false,
      "t": 79545.37499999987,
      "d": 227.2725000000064,
      "v": 59
    },
    {
      "midi": 59,
      "hit": false,
      "t": 79545.37499999987,
      "d": 227.2725000000064,
      "v": 59
    },
    {
      "midi": 62,
      "hit": false,
      "t": 79545.37499999987,
      "d": 227.2725000000064,
      "v": 59
    },
    {
      "midi": 67,
      "hit": false,
      "t": 79545.37499999987,
      "d": 227.2725000000064,
      "v": 59
    },
    {
      "midi": 43,
      "hit": false,
      "t": 79772.64749999988,
      "d": 227.2725000000064,
      "v": 59
    },
    {
      "midi": 47,
      "hit": false,
      "t": 79772.64749999988,
      "d": 227.2725000000064,
      "v": 59
    },
    {
      "midi": 50,
      "hit": false,
      "t": 79772.64749999988,
      "d": 227.2725000000064,
      "v": 59
    },
    {
      "midi": 55,
      "hit": false,
      "t": 79772.64749999988,
      "d": 227.2725000000064,
      "v": 59
    },
    {
      "midi": 59,
      "hit": false,
      "t": 79772.64749999988,
      "d": 227.2725000000064,
      "v": 59
    },
    {
      "midi": 62,
      "hit": false,
      "t": 79772.64749999988,
      "d": 227.2725000000064,
      "v": 59
    },
    {
      "midi": 67,
      "hit": false,
      "t": 79772.64749999988,
      "d": 227.2725000000064,
      "v": 59
    },
    {
      "midi": 55,
      "hit": false,
      "t": 79999.91999999988,
      "d": 227.2725000000064,
      "v": 47
    },
    {
      "midi": 59,
      "hit": false,
      "t": 79999.91999999988,
      "d": 227.2725000000064,
      "v": 56
    },
    {
      "midi": 62,
      "hit": false,
      "t": 79999.91999999988,
      "d": 227.2725000000064,
      "v": 55
    },
    {
      "midi": 67,
      "hit": false,
      "t": 79999.91999999988,
      "d": 227.2725000000064,
      "v": 46
    },
    {
      "midi": 62,
      "hit": false,
      "t": 79999.91999999994,
      "d": 227.2725000000064,
      "v": 62
    },
    {
      "midi": 55,
      "hit": false,
      "t": 80227.19249999989,
      "d": 227.2725000000064,
      "v": 47
    },
    {
      "midi": 59,
      "hit": false,
      "t": 80227.19249999989,
      "d": 227.2725000000064,
      "v": 55
    },
    {
      "midi": 62,
      "hit": false,
      "t": 80227.19249999989,
      "d": 227.2725000000064,
      "v": 51
    },
    {
      "midi": 67,
      "hit": false,
      "t": 80227.19249999989,
      "d": 227.2725000000064,
      "v": 37
    },
    {
      "midi": 74,
      "hit": false,
      "t": 80227.19249999995,
      "d": 454.54499999999825,
      "v": 62
    },
    {
      "midi": 79,
      "hit": false,
      "t": 80227.19249999995,
      "d": 454.54499999999825,
      "v": 62
    },
    {
      "midi": 55,
      "hit": false,
      "t": 80454.4649999999,
      "d": 227.2725000000064,
      "v": 33
    },
    {
      "midi": 59,
      "hit": false,
      "t": 80454.4649999999,
      "d": 227.2725000000064,
      "v": 49
    },
    {
      "midi": 62,
      "hit": false,
      "t": 80454.4649999999,
      "d": 227.2725000000064,
      "v": 45
    },
    {
      "midi": 67,
      "hit": false,
      "t": 80454.4649999999,
      "d": 227.2725000000064,
      "v": 34
    },
    {
      "midi": 55,
      "hit": false,
      "t": 80681.7374999999,
      "d": 227.2725000000064,
      "v": 47
    },
    {
      "midi": 59,
      "hit": false,
      "t": 80681.7374999999,
      "d": 227.2725000000064,
      "v": 59
    },
    {
      "midi": 62,
      "hit": false,
      "t": 80681.7374999999,
      "d": 227.2725000000064,
      "v": 57
    },
    {
      "midi": 67,
      "hit": false,
      "t": 80681.7374999999,
      "d": 227.2725000000064,
      "v": 51
    },
    {
      "midi": 72,
      "hit": false,
      "t": 80681.73749999994,
      "d": 454.54499999999825,
      "v": 62
    },
    {
      "midi": 76,
      "hit": false,
      "t": 80681.73749999994,
      "d": 454.54499999999825,
      "v": 62
    },
    {
      "midi": 48,
      "hit": false,
      "t": 80909.00999999991,
      "d": 227.2725000000064,
      "v": 18
    },
    {
      "midi": 52,
      "hit": false,
      "t": 80909.00999999991,
      "d": 227.2725000000064,
      "v": 37
    },
    {
      "midi": 55,
      "hit": false,
      "t": 80909.00999999991,
      "d": 227.2725000000064,
      "v": 40
    },
    {
      "midi": 62,
      "hit": false,
      "t": 80909.00999999991,
      "d": 227.2725000000064,
      "v": 25
    },
    {
      "midi": 67,
      "hit": false,
      "t": 80909.00999999991,
      "d": 227.2725000000064,
      "v": 59
    },
    {
      "midi": 48,
      "hit": false,
      "t": 81136.28249999991,
      "d": 227.2725000000064,
      "v": 34
    },
    {
      "midi": 52,
      "hit": false,
      "t": 81136.28249999991,
      "d": 227.2725000000064,
      "v": 39
    },
    {
      "midi": 55,
      "hit": false,
      "t": 81136.28249999991,
      "d": 227.2725000000064,
      "v": 37
    },
    {
      "midi": 62,
      "hit": false,
      "t": 81136.28249999991,
      "d": 227.2725000000064,
      "v": 18
    },
    {
      "midi": 67,
      "hit": false,
      "t": 81136.28249999991,
      "d": 227.2725000000064,
      "v": 59
    },
    {
      "midi": 71,
      "hit": false,
      "t": 81136.28249999994,
      "d": 454.54499999999825,
      "v": 62
    },
    {
      "midi": 74,
      "hit": false,
      "t": 81136.28249999994,
      "d": 454.54499999999825,
      "v": 62
    },
    {
      "midi": 48,
      "hit": false,
      "t": 81363.55499999992,
      "d": 227.2725000000064,
      "v": 39
    },
    {
      "midi": 52,
      "hit": false,
      "t": 81363.55499999992,
      "d": 227.2725000000064,
      "v": 40
    },
    {
      "midi": 55,
      "hit": false,
      "t": 81363.55499999992,
      "d": 227.2725000000064,
      "v": 39
    },
    {
      "midi": 62,
      "hit": false,
      "t": 81363.55499999992,
      "d": 227.2725000000064,
      "v": 36
    },
    {
      "midi": 67,
      "hit": false,
      "t": 81363.55499999992,
      "d": 227.2725000000064,
      "v": 59
    },
    {
      "midi": 50,
      "hit": false,
      "t": 81590.82749999993,
      "d": 454.54499999999825,
      "v": 59
    },
    {
      "midi": 54,
      "hit": false,
      "t": 81590.82749999993,
      "d": 454.54499999999825,
      "v": 59
    },
    {
      "midi": 57,
      "hit": false,
      "t": 81590.82749999993,
      "d": 454.54499999999825,
      "v": 59
    },
    {
      "midi": 62,
      "hit": false,
      "t": 81590.82749999993,
      "d": 454.54499999999825,
      "v": 59
    },
    {
      "midi": 67,
      "hit": false,
      "t": 81590.82749999993,
      "d": 454.54499999999825,
      "v": 59
    },
    {
      "midi": 69,
      "hit": false,
      "t": 81590.82749999994,
      "d": 454.54499999999825,
      "v": 62
    },
    {
      "midi": 72,
      "hit": false,
      "t": 81590.82749999994,
      "d": 454.54499999999825,
      "v": 62
    },
    {
      "midi": 50,
      "hit": false,
      "t": 82045.37249999992,
      "d": 227.2725000000064,
      "v": 29
    },
    {
      "midi": 54,
      "hit": false,
      "t": 82045.37249999992,
      "d": 227.2725000000064,
      "v": 25
    },
    {
      "midi": 57,
      "hit": false,
      "t": 82045.37249999992,
      "d": 227.2725000000064,
      "v": 41
    },
    {
      "midi": 62,
      "hit": false,
      "t": 82045.37249999992,
      "d": 227.2725000000064,
      "v": 14
    },
    {
      "midi": 67,
      "hit": false,
      "t": 82045.37249999992,
      "d": 227.2725000000064,
      "v": 59
    },
    {
      "midi": 67,
      "hit": false,
      "t": 82045.37249999994,
      "d": 454.54499999999825,
      "v": 62
    },
    {
      "midi": 71,
      "hit": false,
      "t": 82045.37249999994,
      "d": 454.54499999999825,
      "v": 62
    },
    {
      "midi": 50,
      "hit": false,
      "t": 82272.64499999993,
      "d": 227.2725000000064,
      "v": 23
    },
    {
      "midi": 54,
      "hit": false,
      "t": 82272.64499999993,
      "d": 227.2725000000064,
      "v": 33
    },
    {
      "midi": 57,
      "hit": false,
      "t": 82272.64499999993,
      "d": 227.2725000000064,
      "v": 40
    },
    {
      "midi": 62,
      "hit": false,
      "t": 82272.64499999993,
      "d": 227.2725000000064,
      "v": 23
    },
    {
      "midi": 67,
      "hit": false,
      "t": 82272.64499999993,
      "d": 227.2725000000064,
      "v": 59
    },
    {
      "midi": 67,
      "hit": false,
      "t": 82499.91749999994,
      "d": 681.8175000000047,
      "v": 62
    },
    {
      "midi": 71,
      "hit": false,
      "t": 82499.91749999994,
      "d": 681.8175000000047,
      "v": 62
    },
    {
      "midi": 55,
      "hit": false,
      "t": 82499.91749999994,
      "d": 454.54499999999825,
      "v": 59
    },
    {
      "midi": 59,
      "hit": false,
      "t": 82499.91749999994,
      "d": 454.54499999999825,
      "v": 59
    },
    {
      "midi": 62,
      "hit": false,
      "t": 82499.91749999994,
      "d": 454.54499999999825,
      "v": 59
    },
    {
      "midi": 67,
      "hit": false,
      "t": 82499.91749999994,
      "d": 454.54499999999825,
      "v": 59
    },
    {
      "midi": 55,
      "hit": false,
      "t": 82954.46249999994,
      "d": 227.2725000000064,
      "v": 26
    },
    {
      "midi": 59,
      "hit": false,
      "t": 82954.46249999994,
      "d": 227.2725000000064,
      "v": 39
    },
    {
      "midi": 62,
      "hit": false,
      "t": 82954.46249999994,
      "d": 227.2725000000064,
      "v": 38
    },
    {
      "midi": 67,
      "hit": false,
      "t": 82954.46249999994,
      "d": 227.2725000000064,
      "v": 20
    },
    {
      "midi": 55,
      "hit": false,
      "t": 83181.73499999994,
      "d": 227.2725000000064,
      "v": 11
    },
    {
      "midi": 59,
      "hit": false,
      "t": 83181.73499999994,
      "d": 227.2725000000064,
      "v": 26
    },
    {
      "midi": 62,
      "hit": false,
      "t": 83181.73499999994,
      "d": 227.2725000000064,
      "v": 29
    },
    {
      "midi": 67,
      "hit": false,
      "t": 83181.73499999994,
      "d": 227.2725000000064,
      "v": 11
    },
    {
      "midi": 55,
      "hit": false,
      "t": 83409.00749999995,
      "d": 227.2725000000064,
      "v": 36
    },
    {
      "midi": 59,
      "hit": false,
      "t": 83409.00749999995,
      "d": 227.2725000000064,
      "v": 50
    },
    {
      "midi": 62,
      "hit": false,
      "t": 83409.00749999995,
      "d": 227.2725000000064,
      "v": 49
    },
    {
      "midi": 67,
      "hit": false,
      "t": 83409.00749999995,
      "d": 227.2725000000064,
      "v": 40
    },
    {
      "midi": 64,
      "hit": false,
      "t": 83636.27999999994,
      "d": 227.2725000000064,
      "v": 62
    },
    {
      "midi": 55,
      "hit": false,
      "t": 83636.27999999996,
      "d": 227.2725000000064,
      "v": 35
    },
    {
      "midi": 59,
      "hit": false,
      "t": 83636.27999999996,
      "d": 227.2725000000064,
      "v": 50
    },
    {
      "midi": 62,
      "hit": false,
      "t": 83636.27999999996,
      "d": 227.2725000000064,
      "v": 50
    },
    {
      "midi": 67,
      "hit": false,
      "t": 83636.27999999996,
      "d": 227.2725000000064,
      "v": 34
    },
    {
      "midi": 62,
      "hit": false,
      "t": 83863.55249999995,
      "d": 454.54499999999825,
      "v": 62
    },
    {
      "midi": 55,
      "hit": false,
      "t": 83863.55249999996,
      "d": 227.2725000000064,
      "v": 28
    },
    {
      "midi": 59,
      "hit": false,
      "t": 83863.55249999996,
      "d": 227.2725000000064,
      "v": 46
    },
    {
      "midi": 62,
      "hit": false,
      "t": 83863.55249999996,
      "d": 227.2725000000064,
      "v": 45
    },
    {
      "midi": 67,
      "hit": false,
      "t": 83863.55249999996,
      "d": 227.2725000000064,
      "v": 25
    },
    {
      "midi": 55,
      "hit": false,
      "t": 84090.82499999997,
      "d": 227.2725000000064,
      "v": 31
    },
    {
      "midi": 59,
      "hit": false,
      "t": 84090.82499999997,
      "d": 227.2725000000064,
      "v": 43
    },
    {
      "midi": 62,
      "hit": false,
      "t": 84090.82499999997,
      "d": 227.2725000000064,
      "v": 47
    },
    {
      "midi": 67,
      "hit": false,
      "t": 84090.82499999997,
      "d": 227.2725000000064,
      "v": 22
    },
    {
      "midi": 67,
      "hit": false,
      "t": 84318.09749999995,
      "d": 681.8175000000047,
      "v": 62
    },
    {
      "midi": 55,
      "hit": false,
      "t": 84318.09749999997,
      "d": 227.2725000000064,
      "v": 25
    },
    {
      "midi": 59,
      "hit": false,
      "t": 84318.09749999997,
      "d": 227.2725000000064,
      "v": 45
    },
    {
      "midi": 62,
      "hit": false,
      "t": 84318.09749999997,
      "d": 227.2725000000064,
      "v": 39
    },
    {
      "midi": 67,
      "hit": false,
      "t": 84318.09749999997,
      "d": 227.2725000000064,
      "v": 12
    },
    {
      "midi": 55,
      "hit": false,
      "t": 84545.36999999998,
      "d": 227.2725000000064,
      "v": 36
    },
    {
      "midi": 60,
      "hit": false,
      "t": 84545.36999999998,
      "d": 227.2725000000064,
      "v": 54
    },
    {
      "midi": 62,
      "hit": false,
      "t": 84545.36999999998,
      "d": 227.2725000000064,
      "v": 51
    },
    {
      "midi": 67,
      "hit": false,
      "t": 84545.36999999998,
      "d": 227.2725000000064,
      "v": 41
    },
    {
      "midi": 55,
      "hit": false,
      "t": 84772.64249999999,
      "d": 227.2725000000064,
      "v": 37
    },
    {
      "midi": 60,
      "hit": false,
      "t": 84772.64249999999,
      "d": 227.2725000000064,
      "v": 52
    },
    {
      "midi": 62,
      "hit": false,
      "t": 84772.64249999999,
      "d": 227.2725000000064,
      "v": 53
    },
    {
      "midi": 67,
      "hit": false,
      "t": 84772.64249999999,
      "d": 227.2725000000064,
      "v": 26
    },
    {
      "midi": 71,
      "hit": false,
      "t": 84999.91499999995,
      "d": 227.2725000000064,
      "v": 62
    },
    {
      "midi": 55,
      "hit": false,
      "t": 84999.915,
      "d": 227.2725000000064,
      "v": 37
    },
    {
      "midi": 60,
      "hit": false,
      "t": 84999.915,
      "d": 227.2725000000064,
      "v": 50
    },
    {
      "midi": 62,
      "hit": false,
      "t": 84999.915,
      "d": 227.2725000000064,
      "v": 52
    },
    {
      "midi": 67,
      "hit": false,
      "t": 84999.915,
      "d": 227.2725000000064,
      "v": 41
    },
    {
      "midi": 71,
      "hit": false,
      "t": 85227.18749999996,
      "d": 1136.362500000003,
      "v": 62
    },
    {
      "midi": 55,
      "hit": false,
      "t": 85227.1875,
      "d": 227.2725000000064,
      "v": 43
    },
    {
      "midi": 60,
      "hit": false,
      "t": 85227.1875,
      "d": 227.2725000000064,
      "v": 50
    },
    {
      "midi": 62,
      "hit": false,
      "t": 85227.1875,
      "d": 227.2725000000064,
      "v": 54
    },
    {
      "midi": 67,
      "hit": false,
      "t": 85227.1875,
      "d": 227.2725000000064,
      "v": 38
    },
    {
      "midi": 55,
      "hit": false,
      "t": 85454.46,
      "d": 227.2725000000064,
      "v": 43
    },
    {
      "midi": 59,
      "hit": false,
      "t": 85454.46,
      "d": 227.2725000000064,
      "v": 49
    },
    {
      "midi": 62,
      "hit": false,
      "t": 85454.46,
      "d": 227.2725000000064,
      "v": 57
    },
    {
      "midi": 67,
      "hit": false,
      "t": 85454.46,
      "d": 227.2725000000064,
      "v": 27
    },
    {
      "midi": 55,
      "hit": false,
      "t": 85681.73250000001,
      "d": 227.2725000000064,
      "v": 31
    },
    {
      "midi": 59,
      "hit": false,
      "t": 85681.73250000001,
      "d": 227.2725000000064,
      "v": 41
    },
    {
      "midi": 62,
      "hit": false,
      "t": 85681.73250000001,
      "d": 227.2725000000064,
      "v": 50
    },
    {
      "midi": 67,
      "hit": false,
      "t": 85681.73250000001,
      "d": 227.2725000000064,
      "v": 17
    },
    {
      "midi": 55,
      "hit": false,
      "t": 85909.00500000002,
      "d": 227.2725000000064,
      "v": 37
    },
    {
      "midi": 59,
      "hit": false,
      "t": 85909.00500000002,
      "d": 227.2725000000064,
      "v": 49
    },
    {
      "midi": 62,
      "hit": false,
      "t": 85909.00500000002,
      "d": 227.2725000000064,
      "v": 51
    },
    {
      "midi": 67,
      "hit": false,
      "t": 85909.00500000002,
      "d": 227.2725000000064,
      "v": 24
    },
    {
      "midi": 55,
      "hit": false,
      "t": 86136.27750000003,
      "d": 227.2725000000064,
      "v": 39
    },
    {
      "midi": 59,
      "hit": false,
      "t": 86136.27750000003,
      "d": 227.2725000000064,
      "v": 53
    },
    {
      "midi": 62,
      "hit": false,
      "t": 86136.27750000003,
      "d": 227.2725000000064,
      "v": 55
    },
    {
      "midi": 67,
      "hit": false,
      "t": 86136.27750000003,
      "d": 227.2725000000064,
      "v": 33
    },
    {
      "midi": 55,
      "hit": false,
      "t": 86363.55000000003,
      "d": 227.2725000000064,
      "v": 37
    },
    {
      "midi": 59,
      "hit": false,
      "t": 86363.55000000003,
      "d": 227.2725000000064,
      "v": 48
    },
    {
      "midi": 62,
      "hit": false,
      "t": 86363.55000000003,
      "d": 227.2725000000064,
      "v": 54
    },
    {
      "midi": 67,
      "hit": false,
      "t": 86363.55000000003,
      "d": 227.2725000000064,
      "v": 33
    },
    {
      "midi": 55,
      "hit": false,
      "t": 86590.82250000004,
      "d": 227.2725000000064,
      "v": 40
    },
    {
      "midi": 59,
      "hit": false,
      "t": 86590.82250000004,
      "d": 227.2725000000064,
      "v": 54
    },
    {
      "midi": 62,
      "hit": false,
      "t": 86590.82250000004,
      "d": 227.2725000000064,
      "v": 55
    },
    {
      "midi": 67,
      "hit": false,
      "t": 86590.82250000004,
      "d": 227.2725000000064,
      "v": 33
    },
    {
      "midi": 55,
      "hit": false,
      "t": 86818.09500000004,
      "d": 227.2725000000064,
      "v": 37
    },
    {
      "midi": 59,
      "hit": false,
      "t": 86818.09500000004,
      "d": 227.2725000000064,
      "v": 52
    },
    {
      "midi": 62,
      "hit": false,
      "t": 86818.09500000004,
      "d": 227.2725000000064,
      "v": 56
    },
    {
      "midi": 67,
      "hit": false,
      "t": 86818.09500000004,
      "d": 227.2725000000064,
      "v": 74
    },
    {
      "midi": 55,
      "hit": false,
      "t": 87045.36750000005,
      "d": 227.2725000000064,
      "v": 41
    },
    {
      "midi": 59,
      "hit": false,
      "t": 87045.36750000005,
      "d": 227.2725000000064,
      "v": 56
    },
    {
      "midi": 62,
      "hit": false,
      "t": 87045.36750000005,
      "d": 227.2725000000064,
      "v": 54
    },
    {
      "midi": 67,
      "hit": false,
      "t": 87045.36750000005,
      "d": 227.2725000000064,
      "v": 44
    },
    {
      "midi": 62,
      "hit": false,
      "t": 87272.63999999996,
      "d": 227.2725000000064,
      "v": 62
    },
    {
      "midi": 55,
      "hit": false,
      "t": 87272.64000000006,
      "d": 227.2725000000064,
      "v": 43
    },
    {
      "midi": 59,
      "hit": false,
      "t": 87272.64000000006,
      "d": 227.2725000000064,
      "v": 52
    },
    {
      "midi": 62,
      "hit": false,
      "t": 87272.64000000006,
      "d": 227.2725000000064,
      "v": 54
    },
    {
      "midi": 67,
      "hit": false,
      "t": 87272.64000000006,
      "d": 227.2725000000064,
      "v": 33
    },
    {
      "midi": 74,
      "hit": false,
      "t": 87499.91249999996,
      "d": 454.54499999999825,
      "v": 62
    },
    {
      "midi": 79,
      "hit": false,
      "t": 87499.91249999996,
      "d": 454.54499999999825,
      "v": 62
    },
    {
      "midi": 55,
      "hit": false,
      "t": 87499.91250000006,
      "d": 227.2725000000064,
      "v": 32
    },
    {
      "midi": 59,
      "hit": false,
      "t": 87499.91250000006,
      "d": 227.2725000000064,
      "v": 50
    },
    {
      "midi": 62,
      "hit": false,
      "t": 87499.91250000006,
      "d": 227.2725000000064,
      "v": 51
    },
    {
      "midi": 67,
      "hit": false,
      "t": 87499.91250000006,
      "d": 227.2725000000064,
      "v": 35
    },
    {
      "midi": 55,
      "hit": false,
      "t": 87727.18500000007,
      "d": 227.2725000000064,
      "v": 40
    },
    {
      "midi": 59,
      "hit": false,
      "t": 87727.18500000007,
      "d": 227.2725000000064,
      "v": 47
    },
    {
      "midi": 62,
      "hit": false,
      "t": 87727.18500000007,
      "d": 227.2725000000064,
      "v": 51
    },
    {
      "midi": 67,
      "hit": false,
      "t": 87727.18500000007,
      "d": 227.2725000000064,
      "v": 31
    },
    {
      "midi": 72,
      "hit": false,
      "t": 87954.45749999996,
      "d": 454.54499999999825,
      "v": 62
    },
    {
      "midi": 76,
      "hit": false,
      "t": 87954.45749999996,
      "d": 454.54499999999825,
      "v": 62
    },
    {
      "midi": 55,
      "hit": false,
      "t": 87954.45750000008,
      "d": 227.2725000000064,
      "v": 37
    },
    {
      "midi": 59,
      "hit": false,
      "t": 87954.45750000008,
      "d": 227.2725000000064,
      "v": 46
    },
    {
      "midi": 62,
      "hit": false,
      "t": 87954.45750000008,
      "d": 227.2725000000064,
      "v": 47
    },
    {
      "midi": 67,
      "hit": false,
      "t": 87954.45750000008,
      "d": 227.2725000000064,
      "v": 30
    },
    {
      "midi": 55,
      "hit": false,
      "t": 88181.73000000008,
      "d": 227.2725000000064,
      "v": 40
    },
    {
      "midi": 60,
      "hit": false,
      "t": 88181.73000000008,
      "d": 227.2725000000064,
      "v": 51
    },
    {
      "midi": 62,
      "hit": false,
      "t": 88181.73000000008,
      "d": 227.2725000000064,
      "v": 55
    },
    {
      "midi": 67,
      "hit": false,
      "t": 88181.73000000008,
      "d": 227.2725000000064,
      "v": 36
    },
    {
      "midi": 71,
      "hit": false,
      "t": 88409.00249999996,
      "d": 454.54499999999825,
      "v": 62
    },
    {
      "midi": 74,
      "hit": false,
      "t": 88409.00249999996,
      "d": 454.54499999999825,
      "v": 62
    },
    {
      "midi": 55,
      "hit": false,
      "t": 88409.00250000009,
      "d": 227.2725000000064,
      "v": 36
    },
    {
      "midi": 60,
      "hit": false,
      "t": 88409.00250000009,
      "d": 227.2725000000064,
      "v": 47
    },
    {
      "midi": 62,
      "hit": false,
      "t": 88409.00250000009,
      "d": 227.2725000000064,
      "v": 47
    },
    {
      "midi": 67,
      "hit": false,
      "t": 88409.00250000009,
      "d": 227.2725000000064,
      "v": 22
    },
    {
      "midi": 55,
      "hit": false,
      "t": 88636.2750000001,
      "d": 227.2725000000064,
      "v": 41
    },
    {
      "midi": 60,
      "hit": false,
      "t": 88636.2750000001,
      "d": 227.2725000000064,
      "v": 55
    },
    {
      "midi": 62,
      "hit": false,
      "t": 88636.2750000001,
      "d": 227.2725000000064,
      "v": 55
    },
    {
      "midi": 67,
      "hit": false,
      "t": 88636.2750000001,
      "d": 227.2725000000064,
      "v": 44
    },
    {
      "midi": 69,
      "hit": false,
      "t": 88863.54749999996,
      "d": 454.54499999999825,
      "v": 62
    },
    {
      "midi": 72,
      "hit": false,
      "t": 88863.54749999996,
      "d": 454.54499999999825,
      "v": 62
    },
    {
      "midi": 50,
      "hit": false,
      "t": 88863.5475000001,
      "d": 454.54499999999825,
      "v": 55
    },
    {
      "midi": 54,
      "hit": false,
      "t": 88863.5475000001,
      "d": 454.54499999999825,
      "v": 55
    },
    {
      "midi": 57,
      "hit": false,
      "t": 88863.5475000001,
      "d": 454.54499999999825,
      "v": 55
    },
    {
      "midi": 62,
      "hit": false,
      "t": 88863.5475000001,
      "d": 454.54499999999825,
      "v": 55
    },
    {
      "midi": 67,
      "hit": false,
      "t": 89318.09249999996,
      "d": 454.54499999999825,
      "v": 62
    },
    {
      "midi": 71,
      "hit": false,
      "t": 89318.09249999996,
      "d": 454.54499999999825,
      "v": 62
    },
    {
      "midi": 50,
      "hit": false,
      "t": 89318.0925000001,
      "d": 227.2725000000064,
      "v": 55
    },
    {
      "midi": 54,
      "hit": false,
      "t": 89318.0925000001,
      "d": 227.2725000000064,
      "v": 55
    },
    {
      "midi": 57,
      "hit": false,
      "t": 89318.0925000001,
      "d": 227.2725000000064,
      "v": 55
    },
    {
      "midi": 62,
      "hit": false,
      "t": 89318.0925000001,
      "d": 227.2725000000064,
      "v": 55
    },
    {
      "midi": 66,
      "hit": false,
      "t": 89318.0925000001,
      "d": 227.2725000000064,
      "v": 55
    },
    {
      "midi": 50,
      "hit": false,
      "t": 89545.3650000001,
      "d": 227.2725000000064,
      "v": 55
    },
    {
      "midi": 54,
      "hit": false,
      "t": 89545.3650000001,
      "d": 227.2725000000064,
      "v": 55
    },
    {
      "midi": 57,
      "hit": false,
      "t": 89545.3650000001,
      "d": 227.2725000000064,
      "v": 55
    },
    {
      "midi": 62,
      "hit": false,
      "t": 89545.3650000001,
      "d": 227.2725000000064,
      "v": 55
    },
    {
      "midi": 66,
      "hit": false,
      "t": 89545.3650000001,
      "d": 227.2725000000064,
      "v": 55
    },
    {
      "midi": 67,
      "hit": false,
      "t": 89772.63749999995,
      "d": 681.8175000000047,
      "v": 62
    },
    {
      "midi": 71,
      "hit": false,
      "t": 89772.63749999995,
      "d": 681.8175000000047,
      "v": 62
    },
    {
      "midi": 43,
      "hit": false,
      "t": 89772.63750000011,
      "d": 454.54499999999825,
      "v": 55
    },
    {
      "midi": 47,
      "hit": false,
      "t": 89772.63750000011,
      "d": 454.54499999999825,
      "v": 55
    },
    {
      "midi": 50,
      "hit": false,
      "t": 89772.63750000011,
      "d": 454.54499999999825,
      "v": 55
    },
    {
      "midi": 55,
      "hit": false,
      "t": 89772.63750000011,
      "d": 454.54499999999825,
      "v": 55
    },
    {
      "midi": 59,
      "hit": false,
      "t": 89772.63750000011,
      "d": 454.54499999999825,
      "v": 55
    },
    {
      "midi": 62,
      "hit": false,
      "t": 89772.63750000011,
      "d": 454.54499999999825,
      "v": 55
    },
    {
      "midi": 67,
      "hit": false,
      "t": 89772.63750000011,
      "d": 454.54499999999825,
      "v": 55
    },
    {
      "midi": 50,
      "hit": false,
      "t": 90227.18250000011,
      "d": 227.2725000000064,
      "v": 55
    },
    {
      "midi": 55,
      "hit": false,
      "t": 90227.18250000011,
      "d": 227.2725000000064,
      "v": 55
    },
    {
      "midi": 59,
      "hit": false,
      "t": 90227.18250000011,
      "d": 227.2725000000064,
      "v": 55
    },
    {
      "midi": 62,
      "hit": false,
      "t": 90227.18250000011,
      "d": 227.2725000000064,
      "v": 55
    },
    {
      "midi": 67,
      "hit": false,
      "t": 90227.18250000011,
      "d": 227.2725000000064,
      "v": 55
    },
    {
      "midi": 50,
      "hit": false,
      "t": 90454.45500000012,
      "d": 227.2725000000064,
      "v": 55
    },
    {
      "midi": 55,
      "hit": false,
      "t": 90454.45500000012,
      "d": 227.2725000000064,
      "v": 55
    },
    {
      "midi": 59,
      "hit": false,
      "t": 90454.45500000012,
      "d": 227.2725000000064,
      "v": 55
    },
    {
      "midi": 62,
      "hit": false,
      "t": 90454.45500000012,
      "d": 227.2725000000064,
      "v": 55
    },
    {
      "midi": 67,
      "hit": false,
      "t": 90454.45500000012,
      "d": 227.2725000000064,
      "v": 55
    },
    {
      "midi": 50,
      "hit": false,
      "t": 90681.72750000012,
      "d": 227.2725000000064,
      "v": 55
    },
    {
      "midi": 59,
      "hit": false,
      "t": 90681.72750000012,
      "d": 227.2725000000064,
      "v": 55
    },
    {
      "midi": 62,
      "hit": false,
      "t": 90681.72750000012,
      "d": 227.2725000000064,
      "v": 55
    },
    {
      "midi": 67,
      "hit": false,
      "t": 90681.72750000012,
      "d": 227.2725000000064,
      "v": 55
    },
    {
      "midi": 69,
      "hit": false,
      "t": 90908.99999999996,
      "d": 227.2725000000064,
      "v": 62
    },
    {
      "midi": 48,
      "hit": false,
      "t": 90909.00000000013,
      "d": 227.2725000000064,
      "v": 55
    },
    {
      "midi": 52,
      "hit": false,
      "t": 90909.00000000013,
      "d": 227.2725000000064,
      "v": 55
    },
    {
      "midi": 55,
      "hit": false,
      "t": 90909.00000000013,
      "d": 227.2725000000064,
      "v": 55
    },
    {
      "midi": 60,
      "hit": false,
      "t": 90909.00000000013,
      "d": 227.2725000000064,
      "v": 55
    },
    {
      "midi": 62,
      "hit": false,
      "t": 90909.00000000013,
      "d": 227.2725000000064,
      "v": 55
    },
    {
      "midi": 67,
      "hit": false,
      "t": 90909.00000000013,
      "d": 227.2725000000064,
      "v": 55
    },
    {
      "midi": 67,
      "hit": false,
      "t": 91136.27249999996,
      "d": 454.54499999999825,
      "v": 62
    },
    {
      "midi": 48,
      "hit": false,
      "t": 91136.27250000014,
      "d": 227.2725000000064,
      "v": 55
    },
    {
      "midi": 52,
      "hit": false,
      "t": 91136.27250000014,
      "d": 227.2725000000064,
      "v": 55
    },
    {
      "midi": 55,
      "hit": false,
      "t": 91136.27250000014,
      "d": 227.2725000000064,
      "v": 55
    },
    {
      "midi": 60,
      "hit": false,
      "t": 91136.27250000014,
      "d": 227.2725000000064,
      "v": 55
    },
    {
      "midi": 62,
      "hit": false,
      "t": 91136.27250000014,
      "d": 227.2725000000064,
      "v": 55
    },
    {
      "midi": 67,
      "hit": false,
      "t": 91136.27250000014,
      "d": 227.2725000000064,
      "v": 55
    },
    {
      "midi": 48,
      "hit": false,
      "t": 91363.54500000014,
      "d": 227.2725000000064,
      "v": 55
    },
    {
      "midi": 52,
      "hit": false,
      "t": 91363.54500000014,
      "d": 227.2725000000064,
      "v": 55
    },
    {
      "midi": 55,
      "hit": false,
      "t": 91363.54500000014,
      "d": 227.2725000000064,
      "v": 55
    },
    {
      "midi": 60,
      "hit": false,
      "t": 91363.54500000014,
      "d": 227.2725000000064,
      "v": 55
    },
    {
      "midi": 62,
      "hit": false,
      "t": 91363.54500000014,
      "d": 227.2725000000064,
      "v": 55
    },
    {
      "midi": 67,
      "hit": false,
      "t": 91363.54500000014,
      "d": 227.2725000000064,
      "v": 55
    },
    {
      "midi": 70,
      "hit": false,
      "t": 91590.81749999996,
      "d": 227.2725000000064,
      "v": 62
    },
    {
      "midi": 50,
      "hit": false,
      "t": 91590.81750000015,
      "d": 454.54499999999825,
      "v": 55
    },
    {
      "midi": 54,
      "hit": false,
      "t": 91590.81750000015,
      "d": 454.54499999999825,
      "v": 55
    },
    {
      "midi": 57,
      "hit": false,
      "t": 91590.81750000015,
      "d": 454.54499999999825,
      "v": 55
    },
    {
      "midi": 62,
      "hit": false,
      "t": 91590.81750000015,
      "d": 454.54499999999825,
      "v": 55
    },
    {
      "midi": 66,
      "hit": false,
      "t": 91590.81750000015,
      "d": 454.54499999999825,
      "v": 55
    },
    {
      "midi": 69,
      "hit": false,
      "t": 91818.08999999997,
      "d": 227.2725000000064,
      "v": 62
    },
    {
      "midi": 67,
      "hit": false,
      "t": 92045.36249999997,
      "d": 454.54499999999825,
      "v": 62
    },
    {
      "midi": 50,
      "hit": false,
      "t": 92045.36250000015,
      "d": 227.2725000000064,
      "v": 55
    },
    {
      "midi": 54,
      "hit": false,
      "t": 92045.36250000015,
      "d": 227.2725000000064,
      "v": 55
    },
    {
      "midi": 57,
      "hit": false,
      "t": 92045.36250000015,
      "d": 227.2725000000064,
      "v": 55
    },
    {
      "midi": 62,
      "hit": false,
      "t": 92045.36250000015,
      "d": 227.2725000000064,
      "v": 55
    },
    {
      "midi": 66,
      "hit": false,
      "t": 92045.36250000015,
      "d": 227.2725000000064,
      "v": 55
    },
    {
      "midi": 50,
      "hit": false,
      "t": 92272.63500000015,
      "d": 227.2725000000064,
      "v": 55
    },
    {
      "midi": 57,
      "hit": false,
      "t": 92272.63500000015,
      "d": 227.2725000000064,
      "v": 55
    },
    {
      "midi": 62,
      "hit": false,
      "t": 92272.63500000015,
      "d": 227.2725000000064,
      "v": 55
    },
    {
      "midi": 66,
      "hit": false,
      "t": 92272.63500000015,
      "d": 227.2725000000064,
      "v": 55
    },
    {
      "midi": 67,
      "hit": false,
      "t": 92499.90749999997,
      "d": 1136.362500000003,
      "v": 62
    },
    {
      "midi": 43,
      "hit": false,
      "t": 92499.90750000016,
      "d": 454.54499999999825,
      "v": 55
    },
    {
      "midi": 47,
      "hit": false,
      "t": 92499.90750000016,
      "d": 454.54499999999825,
      "v": 55
    },
    {
      "midi": 50,
      "hit": false,
      "t": 92499.90750000016,
      "d": 454.54499999999825,
      "v": 55
    },
    {
      "midi": 55,
      "hit": false,
      "t": 92499.90750000016,
      "d": 454.54499999999825,
      "v": 55
    },
    {
      "midi": 62,
      "hit": false,
      "t": 92499.90750000016,
      "d": 454.54499999999825,
      "v": 55
    },
    {
      "midi": 67,
      "hit": false,
      "t": 92499.90750000016,
      "d": 454.54499999999825,
      "v": 61
    },
    {
      "midi": 43,
      "hit": false,
      "t": 92954.45250000016,
      "d": 227.2725000000064,
      "v": 55
    },
    {
      "midi": 47,
      "hit": false,
      "t": 92954.45250000016,
      "d": 227.2725000000064,
      "v": 55
    },
    {
      "midi": 50,
      "hit": false,
      "t": 92954.45250000016,
      "d": 227.2725000000064,
      "v": 55
    },
    {
      "midi": 55,
      "hit": false,
      "t": 92954.45250000016,
      "d": 227.2725000000064,
      "v": 55
    },
    {
      "midi": 62,
      "hit": false,
      "t": 92954.45250000016,
      "d": 227.2725000000064,
      "v": 55
    },
    {
      "midi": 67,
      "hit": false,
      "t": 92954.45250000016,
      "d": 227.2725000000064,
      "v": 55
    },
    {
      "midi": 43,
      "hit": false,
      "t": 93181.72500000017,
      "d": 681.8175000000047,
      "v": 55
    },
    {
      "midi": 47,
      "hit": false,
      "t": 93181.72500000017,
      "d": 681.8175000000047,
      "v": 55
    },
    {
      "midi": 50,
      "hit": false,
      "t": 93181.72500000017,
      "d": 681.8175000000047,
      "v": 55
    },
    {
      "midi": 55,
      "hit": false,
      "t": 93181.72500000017,
      "d": 681.8175000000047,
      "v": 55
    },
    {
      "midi": 62,
      "hit": false,
      "t": 93181.72500000017,
      "d": 681.8175000000047,
      "v": 55
    },
    {
      "midi": 67,
      "hit": false,
      "t": 93181.72500000017,
      "d": 681.8175000000047,
      "v": 55
    },
    {
      "midi": 43,
      "hit": false,
      "t": 93863.54250000017,
      "d": 227.2725000000064,
      "v": 55
    },
    {
      "midi": 47,
      "hit": false,
      "t": 93863.54250000017,
      "d": 227.2725000000064,
      "v": 55
    },
    {
      "midi": 50,
      "hit": false,
      "t": 93863.54250000017,
      "d": 227.2725000000064,
      "v": 55
    },
    {
      "midi": 55,
      "hit": false,
      "t": 93863.54250000017,
      "d": 227.2725000000064,
      "v": 55
    },
    {
      "midi": 62,
      "hit": false,
      "t": 93863.54250000017,
      "d": 227.2725000000064,
      "v": 55
    },
    {
      "midi": 67,
      "hit": false,
      "t": 93863.54250000017,
      "d": 227.2725000000064,
      "v": 55
    },
    {
      "midi": 43,
      "hit": false,
      "t": 94090.81500000018,
      "d": 227.2725000000064,
      "v": 55
    },
    {
      "midi": 47,
      "hit": false,
      "t": 94090.81500000018,
      "d": 227.2725000000064,
      "v": 55
    },
    {
      "midi": 50,
      "hit": false,
      "t": 94090.81500000018,
      "d": 227.2725000000064,
      "v": 55
    },
    {
      "midi": 55,
      "hit": false,
      "t": 94090.81500000018,
      "d": 227.2725000000064,
      "v": 55
    },
    {
      "midi": 62,
      "hit": false,
      "t": 94090.81500000018,
      "d": 227.2725000000064,
      "v": 55
    },
    {
      "midi": 67,
      "hit": false,
      "t": 94090.81500000018,
      "d": 227.2725000000064,
      "v": 55
    },
    {
      "midi": 43,
      "hit": false,
      "t": 94318.08750000018,
      "d": 227.2725000000064,
      "v": 55
    },
    {
      "midi": 47,
      "hit": false,
      "t": 94318.08750000018,
      "d": 227.2725000000064,
      "v": 55
    },
    {
      "midi": 50,
      "hit": false,
      "t": 94318.08750000018,
      "d": 227.2725000000064,
      "v": 55
    },
    {
      "midi": 55,
      "hit": false,
      "t": 94318.08750000018,
      "d": 227.2725000000064,
      "v": 55
    },
    {
      "midi": 62,
      "hit": false,
      "t": 94318.08750000018,
      "d": 227.2725000000064,
      "v": 55
    },
    {
      "midi": 67,
      "hit": false,
      "t": 94318.08750000018,
      "d": 227.2725000000064,
      "v": 55
    },
    {
      "midi": 69,
      "hit": false,
      "t": 94545.35999999997,
      "d": 227.2725000000064,
      "v": 62
    },
    {
      "midi": 48,
      "hit": false,
      "t": 94545.36000000019,
      "d": 227.2725000000064,
      "v": 59
    },
    {
      "midi": 52,
      "hit": false,
      "t": 94545.36000000019,
      "d": 227.2725000000064,
      "v": 59
    },
    {
      "midi": 55,
      "hit": false,
      "t": 94545.36000000019,
      "d": 227.2725000000064,
      "v": 59
    },
    {
      "midi": 62,
      "hit": false,
      "t": 94545.36000000019,
      "d": 227.2725000000064,
      "v": 59
    },
    {
      "midi": 67,
      "hit": false,
      "t": 94545.36000000019,
      "d": 227.2725000000064,
      "v": 59
    },
    {
      "midi": 67,
      "hit": false,
      "t": 94753.69312499998,
      "d": 454.54499999999825,
      "v": 62
    },
    {
      "midi": 48,
      "hit": false,
      "t": 94772.6325000002,
      "d": 227.2725000000064,
      "v": 59
    },
    {
      "midi": 52,
      "hit": false,
      "t": 94772.6325000002,
      "d": 227.2725000000064,
      "v": 59
    },
    {
      "midi": 55,
      "hit": false,
      "t": 94772.6325000002,
      "d": 227.2725000000064,
      "v": 59
    },
    {
      "midi": 62,
      "hit": false,
      "t": 94772.6325000002,
      "d": 227.2725000000064,
      "v": 59
    },
    {
      "midi": 67,
      "hit": false,
      "t": 94772.6325000002,
      "d": 227.2725000000064,
      "v": 59
    },
    {
      "midi": 48,
      "hit": false,
      "t": 94999.9050000002,
      "d": 227.2725000000064,
      "v": 59
    },
    {
      "midi": 52,
      "hit": false,
      "t": 94999.9050000002,
      "d": 227.2725000000064,
      "v": 59
    },
    {
      "midi": 55,
      "hit": false,
      "t": 94999.9050000002,
      "d": 227.2725000000064,
      "v": 59
    },
    {
      "midi": 62,
      "hit": false,
      "t": 94999.9050000002,
      "d": 227.2725000000064,
      "v": 59
    },
    {
      "midi": 67,
      "hit": false,
      "t": 94999.9050000002,
      "d": 227.2725000000064,
      "v": 59
    },
    {
      "midi": 64,
      "hit": false,
      "t": 95198.76843749998,
      "d": 454.54499999999825,
      "v": 62
    },
    {
      "midi": 48,
      "hit": false,
      "t": 95227.17750000021,
      "d": 227.2725000000064,
      "v": 59
    },
    {
      "midi": 52,
      "hit": false,
      "t": 95227.17750000021,
      "d": 227.2725000000064,
      "v": 59
    },
    {
      "midi": 55,
      "hit": false,
      "t": 95227.17750000021,
      "d": 227.2725000000064,
      "v": 59
    },
    {
      "midi": 62,
      "hit": false,
      "t": 95227.17750000021,
      "d": 227.2725000000064,
      "v": 59
    },
    {
      "midi": 67,
      "hit": false,
      "t": 95227.17750000021,
      "d": 227.2725000000064,
      "v": 59
    },
    {
      "midi": 48,
      "hit": false,
      "t": 95454.45000000022,
      "d": 227.2725000000064,
      "v": 59
    },
    {
      "midi": 52,
      "hit": false,
      "t": 95454.45000000022,
      "d": 227.2725000000064,
      "v": 59
    },
    {
      "midi": 55,
      "hit": false,
      "t": 95454.45000000022,
      "d": 227.2725000000064,
      "v": 59
    },
    {
      "midi": 62,
      "hit": false,
      "t": 95454.45000000022,
      "d": 227.2725000000064,
      "v": 59
    },
    {
      "midi": 67,
      "hit": false,
      "t": 95454.45000000022,
      "d": 227.2725000000064,
      "v": 59
    },
    {
      "midi": 48,
      "hit": false,
      "t": 95681.72250000022,
      "d": 227.2725000000064,
      "v": 59
    },
    {
      "midi": 52,
      "hit": false,
      "t": 95681.72250000022,
      "d": 227.2725000000064,
      "v": 59
    },
    {
      "midi": 55,
      "hit": false,
      "t": 95681.72250000022,
      "d": 227.2725000000064,
      "v": 59
    },
    {
      "midi": 62,
      "hit": false,
      "t": 95681.72250000022,
      "d": 227.2725000000064,
      "v": 59
    },
    {
      "midi": 67,
      "hit": false,
      "t": 95681.72250000022,
      "d": 227.2725000000064,
      "v": 59
    },
    {
      "midi": 60,
      "hit": false,
      "t": 95705.39671874998,
      "d": 454.54499999999825,
      "v": 62
    },
    {
      "midi": 48,
      "hit": false,
      "t": 95908.99500000023,
      "d": 227.2725000000064,
      "v": 59
    },
    {
      "midi": 52,
      "hit": false,
      "t": 95908.99500000023,
      "d": 227.2725000000064,
      "v": 59
    },
    {
      "midi": 55,
      "hit": false,
      "t": 95908.99500000023,
      "d": 227.2725000000064,
      "v": 59
    },
    {
      "midi": 62,
      "hit": false,
      "t": 95908.99500000023,
      "d": 227.2725000000064,
      "v": 59
    },
    {
      "midi": 67,
      "hit": false,
      "t": 95908.99500000023,
      "d": 227.2725000000064,
      "v": 59
    },
    {
      "midi": 62,
      "hit": false,
      "t": 96117.32812499999,
      "d": 909.0899999999965,
      "v": 62
    },
    {
      "midi": 48,
      "hit": false,
      "t": 96136.26750000023,
      "d": 227.2725000000064,
      "v": 59
    },
    {
      "midi": 52,
      "hit": false,
      "t": 96136.26750000023,
      "d": 227.2725000000064,
      "v": 59
    },
    {
      "midi": 55,
      "hit": false,
      "t": 96136.26750000023,
      "d": 227.2725000000064,
      "v": 59
    },
    {
      "midi": 62,
      "hit": false,
      "t": 96136.26750000023,
      "d": 227.2725000000064,
      "v": 59
    },
    {
      "midi": 67,
      "hit": false,
      "t": 96136.26750000023,
      "d": 227.2725000000064,
      "v": 59
    },
    {
      "midi": 43,
      "hit": false,
      "t": 96363.54000000024,
      "d": 227.2725000000064,
      "v": 59
    },
    {
      "midi": 47,
      "hit": false,
      "t": 96363.54000000024,
      "d": 227.2725000000064,
      "v": 59
    },
    {
      "midi": 50,
      "hit": false,
      "t": 96363.54000000024,
      "d": 227.2725000000064,
      "v": 59
    },
    {
      "midi": 55,
      "hit": false,
      "t": 96363.54000000024,
      "d": 227.2725000000064,
      "v": 59
    },
    {
      "midi": 62,
      "hit": false,
      "t": 96363.54000000024,
      "d": 227.2725000000064,
      "v": 59
    },
    {
      "midi": 67,
      "hit": false,
      "t": 96363.54000000024,
      "d": 227.2725000000064,
      "v": 59
    },
    {
      "midi": 43,
      "hit": false,
      "t": 96590.81250000025,
      "d": 227.2725000000064,
      "v": 59
    },
    {
      "midi": 47,
      "hit": false,
      "t": 96590.81250000025,
      "d": 227.2725000000064,
      "v": 59
    },
    {
      "midi": 50,
      "hit": false,
      "t": 96590.81250000025,
      "d": 227.2725000000064,
      "v": 59
    },
    {
      "midi": 55,
      "hit": false,
      "t": 96590.81250000025,
      "d": 227.2725000000064,
      "v": 59
    },
    {
      "midi": 62,
      "hit": false,
      "t": 96590.81250000025,
      "d": 227.2725000000064,
      "v": 59
    },
    {
      "midi": 67,
      "hit": false,
      "t": 96590.81250000025,
      "d": 227.2725000000064,
      "v": 59
    },
    {
      "midi": 43,
      "hit": false,
      "t": 96818.08500000025,
      "d": 227.2725000000064,
      "v": 59
    },
    {
      "midi": 47,
      "hit": false,
      "t": 96818.08500000025,
      "d": 227.2725000000064,
      "v": 59
    },
    {
      "midi": 50,
      "hit": false,
      "t": 96818.08500000025,
      "d": 227.2725000000064,
      "v": 59
    },
    {
      "midi": 55,
      "hit": false,
      "t": 96818.08500000025,
      "d": 227.2725000000064,
      "v": 59
    },
    {
      "midi": 62,
      "hit": false,
      "t": 96818.08500000025,
      "d": 227.2725000000064,
      "v": 59
    },
    {
      "midi": 67,
      "hit": false,
      "t": 96818.08500000025,
      "d": 227.2725000000064,
      "v": 59
    },
    {
      "midi": 62,
      "hit": false,
      "t": 97026.41812499998,
      "d": 681.8175000000047,
      "v": 62
    },
    {
      "midi": 43,
      "hit": false,
      "t": 97045.35750000026,
      "d": 227.2725000000064,
      "v": 59
    },
    {
      "midi": 47,
      "hit": false,
      "t": 97045.35750000026,
      "d": 227.2725000000064,
      "v": 59
    },
    {
      "midi": 50,
      "hit": false,
      "t": 97045.35750000026,
      "d": 227.2725000000064,
      "v": 59
    },
    {
      "midi": 55,
      "hit": false,
      "t": 97045.35750000026,
      "d": 227.2725000000064,
      "v": 59
    },
    {
      "midi": 62,
      "hit": false,
      "t": 97045.35750000026,
      "d": 227.2725000000064,
      "v": 59
    },
    {
      "midi": 67,
      "hit": false,
      "t": 97045.35750000026,
      "d": 227.2725000000064,
      "v": 59
    },
    {
      "midi": 43,
      "hit": false,
      "t": 97272.63000000027,
      "d": 227.2725000000064,
      "v": 59
    },
    {
      "midi": 47,
      "hit": false,
      "t": 97272.63000000027,
      "d": 227.2725000000064,
      "v": 59
    },
    {
      "midi": 50,
      "hit": false,
      "t": 97272.63000000027,
      "d": 227.2725000000064,
      "v": 59
    },
    {
      "midi": 55,
      "hit": false,
      "t": 97272.63000000027,
      "d": 227.2725000000064,
      "v": 59
    },
    {
      "midi": 62,
      "hit": false,
      "t": 97272.63000000027,
      "d": 227.2725000000064,
      "v": 59
    },
    {
      "midi": 67,
      "hit": false,
      "t": 97272.63000000027,
      "d": 227.2725000000064,
      "v": 59
    },
    {
      "midi": 43,
      "hit": false,
      "t": 97499.90250000027,
      "d": 227.2725000000064,
      "v": 59
    },
    {
      "midi": 47,
      "hit": false,
      "t": 97499.90250000027,
      "d": 227.2725000000064,
      "v": 59
    },
    {
      "midi": 50,
      "hit": false,
      "t": 97499.90250000027,
      "d": 227.2725000000064,
      "v": 59
    },
    {
      "midi": 55,
      "hit": false,
      "t": 97499.90250000027,
      "d": 227.2725000000064,
      "v": 59
    },
    {
      "midi": 62,
      "hit": false,
      "t": 97499.90250000027,
      "d": 227.2725000000064,
      "v": 59
    },
    {
      "midi": 67,
      "hit": false,
      "t": 97499.90250000027,
      "d": 227.2725000000064,
      "v": 59
    },
    {
      "midi": 43,
      "hit": false,
      "t": 97727.17500000028,
      "d": 227.2725000000064,
      "v": 59
    },
    {
      "midi": 47,
      "hit": false,
      "t": 97727.17500000028,
      "d": 227.2725000000064,
      "v": 59
    },
    {
      "midi": 50,
      "hit": false,
      "t": 97727.17500000028,
      "d": 227.2725000000064,
      "v": 59
    },
    {
      "midi": 55,
      "hit": false,
      "t": 97727.17500000028,
      "d": 227.2725000000064,
      "v": 59
    },
    {
      "midi": 62,
      "hit": false,
      "t": 97727.17500000028,
      "d": 227.2725000000064,
      "v": 59
    },
    {
      "midi": 67,
      "hit": false,
      "t": 97727.17500000028,
      "d": 227.2725000000064,
      "v": 59
    },
    {
      "midi": 43,
      "hit": false,
      "t": 97954.44750000029,
      "d": 227.2725000000064,
      "v": 59
    },
    {
      "midi": 47,
      "hit": false,
      "t": 97954.44750000029,
      "d": 227.2725000000064,
      "v": 59
    },
    {
      "midi": 50,
      "hit": false,
      "t": 97954.44750000029,
      "d": 227.2725000000064,
      "v": 59
    },
    {
      "midi": 55,
      "hit": false,
      "t": 97954.44750000029,
      "d": 227.2725000000064,
      "v": 59
    },
    {
      "midi": 62,
      "hit": false,
      "t": 97954.44750000029,
      "d": 227.2725000000064,
      "v": 59
    },
    {
      "midi": 67,
      "hit": false,
      "t": 97954.44750000029,
      "d": 227.2725000000064,
      "v": 59
    },
    {
      "midi": 69,
      "hit": false,
      "t": 98181.71999999999,
      "d": 227.2725000000064,
      "v": 62
    },
    {
      "midi": 48,
      "hit": false,
      "t": 98181.72000000029,
      "d": 227.2725000000064,
      "v": 59
    },
    {
      "midi": 52,
      "hit": false,
      "t": 98181.72000000029,
      "d": 227.2725000000064,
      "v": 59
    },
    {
      "midi": 55,
      "hit": false,
      "t": 98181.72000000029,
      "d": 227.2725000000064,
      "v": 59
    },
    {
      "midi": 62,
      "hit": false,
      "t": 98181.72000000029,
      "d": 227.2725000000064,
      "v": 59
    },
    {
      "midi": 67,
      "hit": false,
      "t": 98181.72000000029,
      "d": 227.2725000000064,
      "v": 59
    },
    {
      "midi": 67,
      "hit": false,
      "t": 98408.9925,
      "d": 454.54499999999825,
      "v": 62
    },
    {
      "midi": 48,
      "hit": false,
      "t": 98408.9925000003,
      "d": 227.2725000000064,
      "v": 59
    },
    {
      "midi": 52,
      "hit": false,
      "t": 98408.9925000003,
      "d": 227.2725000000064,
      "v": 59
    },
    {
      "midi": 55,
      "hit": false,
      "t": 98408.9925000003,
      "d": 227.2725000000064,
      "v": 59
    },
    {
      "midi": 62,
      "hit": false,
      "t": 98408.9925000003,
      "d": 227.2725000000064,
      "v": 59
    },
    {
      "midi": 67,
      "hit": false,
      "t": 98408.9925000003,
      "d": 227.2725000000064,
      "v": 59
    },
    {
      "midi": 48,
      "hit": false,
      "t": 98636.2650000003,
      "d": 227.2725000000064,
      "v": 59
    },
    {
      "midi": 52,
      "hit": false,
      "t": 98636.2650000003,
      "d": 227.2725000000064,
      "v": 59
    },
    {
      "midi": 55,
      "hit": false,
      "t": 98636.2650000003,
      "d": 227.2725000000064,
      "v": 59
    },
    {
      "midi": 62,
      "hit": false,
      "t": 98636.2650000003,
      "d": 227.2725000000064,
      "v": 59
    },
    {
      "midi": 67,
      "hit": false,
      "t": 98636.2650000003,
      "d": 227.2725000000064,
      "v": 59
    },
    {
      "midi": 48,
      "hit": false,
      "t": 98863.53750000031,
      "d": 227.2725000000064,
      "v": 59
    },
    {
      "midi": 52,
      "hit": false,
      "t": 98863.53750000031,
      "d": 227.2725000000064,
      "v": 59
    },
    {
      "midi": 55,
      "hit": false,
      "t": 98863.53750000031,
      "d": 227.2725000000064,
      "v": 59
    },
    {
      "midi": 62,
      "hit": false,
      "t": 98863.53750000031,
      "d": 227.2725000000064,
      "v": 59
    },
    {
      "midi": 67,
      "hit": false,
      "t": 98863.53750000031,
      "d": 227.2725000000064,
      "v": 59
    },
    {
      "midi": 71,
      "hit": false,
      "t": 98877.74203124999,
      "d": 454.54499999999825,
      "v": 62
    },
    {
      "midi": 48,
      "hit": false,
      "t": 99090.81000000032,
      "d": 227.2725000000064,
      "v": 59
    },
    {
      "midi": 52,
      "hit": false,
      "t": 99090.81000000032,
      "d": 227.2725000000064,
      "v": 59
    },
    {
      "midi": 55,
      "hit": false,
      "t": 99090.81000000032,
      "d": 227.2725000000064,
      "v": 59
    },
    {
      "midi": 62,
      "hit": false,
      "t": 99090.81000000032,
      "d": 227.2725000000064,
      "v": 59
    },
    {
      "midi": 67,
      "hit": false,
      "t": 99090.81000000032,
      "d": 227.2725000000064,
      "v": 59
    },
    {
      "midi": 48,
      "hit": false,
      "t": 99318.08250000032,
      "d": 227.2725000000064,
      "v": 59
    },
    {
      "midi": 52,
      "hit": false,
      "t": 99318.08250000032,
      "d": 227.2725000000064,
      "v": 59
    },
    {
      "midi": 55,
      "hit": false,
      "t": 99318.08250000032,
      "d": 227.2725000000064,
      "v": 59
    },
    {
      "midi": 62,
      "hit": false,
      "t": 99318.08250000032,
      "d": 227.2725000000064,
      "v": 59
    },
    {
      "midi": 67,
      "hit": false,
      "t": 99318.08250000032,
      "d": 227.2725000000064,
      "v": 59
    },
    {
      "midi": 48,
      "hit": false,
      "t": 99545.35500000033,
      "d": 227.2725000000064,
      "v": 59
    },
    {
      "midi": 52,
      "hit": false,
      "t": 99545.35500000033,
      "d": 227.2725000000064,
      "v": 59
    },
    {
      "midi": 55,
      "hit": false,
      "t": 99545.35500000033,
      "d": 227.2725000000064,
      "v": 59
    },
    {
      "midi": 62,
      "hit": false,
      "t": 99545.35500000033,
      "d": 227.2725000000064,
      "v": 59
    },
    {
      "midi": 67,
      "hit": false,
      "t": 99545.35500000033,
      "d": 227.2725000000064,
      "v": 59
    },
    {
      "midi": 67,
      "hit": false,
      "t": 99744.21843749999,
      "d": 42.613593749993015,
      "v": 62
    },
    {
      "midi": 48,
      "hit": false,
      "t": 99772.62750000034,
      "d": 227.2725000000064,
      "v": 59
    },
    {
      "midi": 52,
      "hit": false,
      "t": 99772.62750000034,
      "d": 227.2725000000064,
      "v": 59
    },
    {
      "midi": 55,
      "hit": false,
      "t": 99772.62750000034,
      "d": 227.2725000000064,
      "v": 59
    },
    {
      "midi": 62,
      "hit": false,
      "t": 99772.62750000034,
      "d": 227.2725000000064,
      "v": 59
    },
    {
      "midi": 67,
      "hit": false,
      "t": 99772.62750000034,
      "d": 227.2725000000064,
      "v": 59
    },
    {
      "midi": 43,
      "hit": false,
      "t": 99999.90000000034,
      "d": 227.2725000000064,
      "v": 59
    },
    {
      "midi": 47,
      "hit": false,
      "t": 99999.90000000034,
      "d": 227.2725000000064,
      "v": 59
    },
    {
      "midi": 50,
      "hit": false,
      "t": 99999.90000000034,
      "d": 227.2725000000064,
      "v": 59
    },
    {
      "midi": 55,
      "hit": false,
      "t": 99999.90000000034,
      "d": 227.2725000000064,
      "v": 59
    },
    {
      "midi": 62,
      "hit": false,
      "t": 99999.90000000034,
      "d": 227.2725000000064,
      "v": 59
    },
    {
      "midi": 67,
      "hit": false,
      "t": 99999.90000000034,
      "d": 227.2725000000064,
      "v": 59
    },
    {
      "midi": 43,
      "hit": false,
      "t": 100227.17250000035,
      "d": 227.2725000000064,
      "v": 59
    },
    {
      "midi": 47,
      "hit": false,
      "t": 100227.17250000035,
      "d": 227.2725000000064,
      "v": 59
    },
    {
      "midi": 50,
      "hit": false,
      "t": 100227.17250000035,
      "d": 227.2725000000064,
      "v": 59
    },
    {
      "midi": 55,
      "hit": false,
      "t": 100227.17250000035,
      "d": 227.2725000000064,
      "v": 59
    },
    {
      "midi": 62,
      "hit": false,
      "t": 100227.17250000035,
      "d": 227.2725000000064,
      "v": 59
    },
    {
      "midi": 67,
      "hit": false,
      "t": 100227.17250000035,
      "d": 227.2725000000064,
      "v": 59
    },
    {
      "midi": 43,
      "hit": false,
      "t": 100454.44500000036,
      "d": 227.2725000000064,
      "v": 59
    },
    {
      "midi": 47,
      "hit": false,
      "t": 100454.44500000036,
      "d": 227.2725000000064,
      "v": 59
    },
    {
      "midi": 50,
      "hit": false,
      "t": 100454.44500000036,
      "d": 227.2725000000064,
      "v": 59
    },
    {
      "midi": 55,
      "hit": false,
      "t": 100454.44500000036,
      "d": 227.2725000000064,
      "v": 59
    },
    {
      "midi": 62,
      "hit": false,
      "t": 100454.44500000036,
      "d": 227.2725000000064,
      "v": 59
    },
    {
      "midi": 67,
      "hit": false,
      "t": 100454.44500000036,
      "d": 227.2725000000064,
      "v": 59
    },
    {
      "midi": 43,
      "hit": false,
      "t": 100681.71750000036,
      "d": 227.2725000000064,
      "v": 59
    },
    {
      "midi": 47,
      "hit": false,
      "t": 100681.71750000036,
      "d": 227.2725000000064,
      "v": 59
    },
    {
      "midi": 50,
      "hit": false,
      "t": 100681.71750000036,
      "d": 227.2725000000064,
      "v": 59
    },
    {
      "midi": 55,
      "hit": false,
      "t": 100681.71750000036,
      "d": 227.2725000000064,
      "v": 59
    },
    {
      "midi": 62,
      "hit": false,
      "t": 100681.71750000036,
      "d": 227.2725000000064,
      "v": 59
    },
    {
      "midi": 67,
      "hit": false,
      "t": 100681.71750000036,
      "d": 227.2725000000064,
      "v": 59
    },
    {
      "midi": 43,
      "hit": false,
      "t": 100908.99000000037,
      "d": 227.2725000000064,
      "v": 59
    },
    {
      "midi": 47,
      "hit": false,
      "t": 100908.99000000037,
      "d": 227.2725000000064,
      "v": 59
    },
    {
      "midi": 50,
      "hit": false,
      "t": 100908.99000000037,
      "d": 227.2725000000064,
      "v": 59
    },
    {
      "midi": 55,
      "hit": false,
      "t": 100908.99000000037,
      "d": 227.2725000000064,
      "v": 59
    },
    {
      "midi": 62,
      "hit": false,
      "t": 100908.99000000037,
      "d": 227.2725000000064,
      "v": 59
    },
    {
      "midi": 67,
      "hit": false,
      "t": 100908.99000000037,
      "d": 227.2725000000064,
      "v": 59
    },
    {
      "midi": 43,
      "hit": false,
      "t": 101136.26250000038,
      "d": 227.2725000000064,
      "v": 59
    },
    {
      "midi": 47,
      "hit": false,
      "t": 101136.26250000038,
      "d": 227.2725000000064,
      "v": 59
    },
    {
      "midi": 50,
      "hit": false,
      "t": 101136.26250000038,
      "d": 227.2725000000064,
      "v": 59
    },
    {
      "midi": 55,
      "hit": false,
      "t": 101136.26250000038,
      "d": 227.2725000000064,
      "v": 59
    },
    {
      "midi": 62,
      "hit": false,
      "t": 101136.26250000038,
      "d": 227.2725000000064,
      "v": 59
    },
    {
      "midi": 67,
      "hit": false,
      "t": 101136.26250000038,
      "d": 227.2725000000064,
      "v": 59
    },
    {
      "midi": 43,
      "hit": false,
      "t": 101363.53500000038,
      "d": 227.2725000000064,
      "v": 59
    },
    {
      "midi": 47,
      "hit": false,
      "t": 101363.53500000038,
      "d": 227.2725000000064,
      "v": 59
    },
    {
      "midi": 50,
      "hit": false,
      "t": 101363.53500000038,
      "d": 227.2725000000064,
      "v": 59
    },
    {
      "midi": 55,
      "hit": false,
      "t": 101363.53500000038,
      "d": 227.2725000000064,
      "v": 59
    },
    {
      "midi": 62,
      "hit": false,
      "t": 101363.53500000038,
      "d": 227.2725000000064,
      "v": 59
    },
    {
      "midi": 67,
      "hit": false,
      "t": 101363.53500000038,
      "d": 227.2725000000064,
      "v": 59
    },
    {
      "midi": 43,
      "hit": false,
      "t": 101590.80750000039,
      "d": 227.2725000000064,
      "v": 59
    },
    {
      "midi": 47,
      "hit": false,
      "t": 101590.80750000039,
      "d": 227.2725000000064,
      "v": 59
    },
    {
      "midi": 50,
      "hit": false,
      "t": 101590.80750000039,
      "d": 227.2725000000064,
      "v": 59
    },
    {
      "midi": 55,
      "hit": false,
      "t": 101590.80750000039,
      "d": 227.2725000000064,
      "v": 59
    },
    {
      "midi": 62,
      "hit": false,
      "t": 101590.80750000039,
      "d": 227.2725000000064,
      "v": 59
    },
    {
      "midi": 67,
      "hit": false,
      "t": 101590.80750000039,
      "d": 227.2725000000064,
      "v": 59
    },
    {
      "midi": 69,
      "hit": false,
      "t": 101818.07999999999,
      "d": 227.2725000000064,
      "v": 62
    },
    {
      "midi": 48,
      "hit": false,
      "t": 101818.0800000004,
      "d": 227.2725000000064,
      "v": 59
    },
    {
      "midi": 52,
      "hit": false,
      "t": 101818.0800000004,
      "d": 227.2725000000064,
      "v": 59
    },
    {
      "midi": 55,
      "hit": false,
      "t": 101818.0800000004,
      "d": 227.2725000000064,
      "v": 59
    },
    {
      "midi": 62,
      "hit": false,
      "t": 101818.0800000004,
      "d": 227.2725000000064,
      "v": 59
    },
    {
      "midi": 67,
      "hit": false,
      "t": 101818.0800000004,
      "d": 227.2725000000064,
      "v": 59
    },
    {
      "midi": 67,
      "hit": false,
      "t": 102026.41312499999,
      "d": 454.54499999999825,
      "v": 62
    },
    {
      "midi": 48,
      "hit": false,
      "t": 102045.3525000004,
      "d": 227.2725000000064,
      "v": 59
    },
    {
      "midi": 52,
      "hit": false,
      "t": 102045.3525000004,
      "d": 227.2725000000064,
      "v": 59
    },
    {
      "midi": 55,
      "hit": false,
      "t": 102045.3525000004,
      "d": 227.2725000000064,
      "v": 59
    },
    {
      "midi": 62,
      "hit": false,
      "t": 102045.3525000004,
      "d": 227.2725000000064,
      "v": 59
    },
    {
      "midi": 67,
      "hit": false,
      "t": 102045.3525000004,
      "d": 227.2725000000064,
      "v": 59
    },
    {
      "midi": 48,
      "hit": false,
      "t": 102272.62500000041,
      "d": 227.2725000000064,
      "v": 59
    },
    {
      "midi": 52,
      "hit": false,
      "t": 102272.62500000041,
      "d": 227.2725000000064,
      "v": 59
    },
    {
      "midi": 55,
      "hit": false,
      "t": 102272.62500000041,
      "d": 227.2725000000064,
      "v": 59
    },
    {
      "midi": 62,
      "hit": false,
      "t": 102272.62500000041,
      "d": 227.2725000000064,
      "v": 59
    },
    {
      "midi": 67,
      "hit": false,
      "t": 102272.62500000041,
      "d": 227.2725000000064,
      "v": 59
    },
    {
      "midi": 64,
      "hit": false,
      "t": 102471.4884375,
      "d": 454.54499999999825,
      "v": 62
    },
    {
      "midi": 48,
      "hit": false,
      "t": 102499.89750000041,
      "d": 227.2725000000064,
      "v": 59
    },
    {
      "midi": 52,
      "hit": false,
      "t": 102499.89750000041,
      "d": 227.2725000000064,
      "v": 59
    },
    {
      "midi": 55,
      "hit": false,
      "t": 102499.89750000041,
      "d": 227.2725000000064,
      "v": 59
    },
    {
      "midi": 62,
      "hit": false,
      "t": 102499.89750000041,
      "d": 227.2725000000064,
      "v": 59
    },
    {
      "midi": 67,
      "hit": false,
      "t": 102499.89750000041,
      "d": 227.2725000000064,
      "v": 59
    },
    {
      "midi": 48,
      "hit": false,
      "t": 102727.17000000042,
      "d": 227.2725000000064,
      "v": 59
    },
    {
      "midi": 52,
      "hit": false,
      "t": 102727.17000000042,
      "d": 227.2725000000064,
      "v": 59
    },
    {
      "midi": 55,
      "hit": false,
      "t": 102727.17000000042,
      "d": 227.2725000000064,
      "v": 59
    },
    {
      "midi": 62,
      "hit": false,
      "t": 102727.17000000042,
      "d": 227.2725000000064,
      "v": 59
    },
    {
      "midi": 67,
      "hit": false,
      "t": 102727.17000000042,
      "d": 227.2725000000064,
      "v": 59
    },
    {
      "midi": 48,
      "hit": false,
      "t": 102954.44250000043,
      "d": 227.2725000000064,
      "v": 59
    },
    {
      "midi": 52,
      "hit": false,
      "t": 102954.44250000043,
      "d": 227.2725000000064,
      "v": 59
    },
    {
      "midi": 55,
      "hit": false,
      "t": 102954.44250000043,
      "d": 227.2725000000064,
      "v": 59
    },
    {
      "midi": 62,
      "hit": false,
      "t": 102954.44250000043,
      "d": 227.2725000000064,
      "v": 59
    },
    {
      "midi": 67,
      "hit": false,
      "t": 102954.44250000043,
      "d": 227.2725000000064,
      "v": 59
    },
    {
      "midi": 60,
      "hit": false,
      "t": 102978.11671875,
      "d": 454.54499999999825,
      "v": 62
    },
    {
      "midi": 48,
      "hit": false,
      "t": 103181.71500000043,
      "d": 227.2725000000064,
      "v": 59
    },
    {
      "midi": 52,
      "hit": false,
      "t": 103181.71500000043,
      "d": 227.2725000000064,
      "v": 59
    },
    {
      "midi": 55,
      "hit": false,
      "t": 103181.71500000043,
      "d": 227.2725000000064,
      "v": 59
    },
    {
      "midi": 62,
      "hit": false,
      "t": 103181.71500000043,
      "d": 227.2725000000064,
      "v": 59
    },
    {
      "midi": 67,
      "hit": false,
      "t": 103181.71500000043,
      "d": 227.2725000000064,
      "v": 59
    },
    {
      "midi": 62,
      "hit": false,
      "t": 103390.048125,
      "d": 909.0899999999965,
      "v": 62
    },
    {
      "midi": 48,
      "hit": false,
      "t": 103408.98750000044,
      "d": 227.2725000000064,
      "v": 59
    },
    {
      "midi": 52,
      "hit": false,
      "t": 103408.98750000044,
      "d": 227.2725000000064,
      "v": 59
    },
    {
      "midi": 55,
      "hit": false,
      "t": 103408.98750000044,
      "d": 227.2725000000064,
      "v": 59
    },
    {
      "midi": 62,
      "hit": false,
      "t": 103408.98750000044,
      "d": 227.2725000000064,
      "v": 59
    },
    {
      "midi": 67,
      "hit": false,
      "t": 103408.98750000044,
      "d": 227.2725000000064,
      "v": 59
    },
    {
      "midi": 43,
      "hit": false,
      "t": 103636.26000000045,
      "d": 227.2725000000064,
      "v": 59
    },
    {
      "midi": 47,
      "hit": false,
      "t": 103636.26000000045,
      "d": 227.2725000000064,
      "v": 59
    },
    {
      "midi": 50,
      "hit": false,
      "t": 103636.26000000045,
      "d": 227.2725000000064,
      "v": 59
    },
    {
      "midi": 55,
      "hit": false,
      "t": 103636.26000000045,
      "d": 227.2725000000064,
      "v": 59
    },
    {
      "midi": 62,
      "hit": false,
      "t": 103636.26000000045,
      "d": 227.2725000000064,
      "v": 59
    },
    {
      "midi": 67,
      "hit": false,
      "t": 103636.26000000045,
      "d": 227.2725000000064,
      "v": 59
    },
    {
      "midi": 43,
      "hit": false,
      "t": 103863.53250000045,
      "d": 227.2725000000064,
      "v": 59
    },
    {
      "midi": 47,
      "hit": false,
      "t": 103863.53250000045,
      "d": 227.2725000000064,
      "v": 59
    },
    {
      "midi": 50,
      "hit": false,
      "t": 103863.53250000045,
      "d": 227.2725000000064,
      "v": 59
    },
    {
      "midi": 55,
      "hit": false,
      "t": 103863.53250000045,
      "d": 227.2725000000064,
      "v": 59
    },
    {
      "midi": 62,
      "hit": false,
      "t": 103863.53250000045,
      "d": 227.2725000000064,
      "v": 59
    },
    {
      "midi": 67,
      "hit": false,
      "t": 103863.53250000045,
      "d": 227.2725000000064,
      "v": 59
    },
    {
      "midi": 43,
      "hit": false,
      "t": 104090.80500000046,
      "d": 227.2725000000064,
      "v": 59
    },
    {
      "midi": 47,
      "hit": false,
      "t": 104090.80500000046,
      "d": 227.2725000000064,
      "v": 59
    },
    {
      "midi": 50,
      "hit": false,
      "t": 104090.80500000046,
      "d": 227.2725000000064,
      "v": 59
    },
    {
      "midi": 55,
      "hit": false,
      "t": 104090.80500000046,
      "d": 227.2725000000064,
      "v": 59
    },
    {
      "midi": 62,
      "hit": false,
      "t": 104090.80500000046,
      "d": 227.2725000000064,
      "v": 59
    },
    {
      "midi": 67,
      "hit": false,
      "t": 104090.80500000046,
      "d": 227.2725000000064,
      "v": 59
    },
    {
      "midi": 62,
      "hit": false,
      "t": 104299.138125,
      "d": 681.8175000000047,
      "v": 62
    },
    {
      "midi": 43,
      "hit": false,
      "t": 104318.07750000047,
      "d": 227.2725000000064,
      "v": 59
    },
    {
      "midi": 47,
      "hit": false,
      "t": 104318.07750000047,
      "d": 227.2725000000064,
      "v": 59
    },
    {
      "midi": 50,
      "hit": false,
      "t": 104318.07750000047,
      "d": 227.2725000000064,
      "v": 59
    },
    {
      "midi": 55,
      "hit": false,
      "t": 104318.07750000047,
      "d": 227.2725000000064,
      "v": 59
    },
    {
      "midi": 62,
      "hit": false,
      "t": 104318.07750000047,
      "d": 227.2725000000064,
      "v": 59
    },
    {
      "midi": 67,
      "hit": false,
      "t": 104318.07750000047,
      "d": 227.2725000000064,
      "v": 59
    },
    {
      "midi": 43,
      "hit": false,
      "t": 104545.35000000047,
      "d": 227.2725000000064,
      "v": 59
    },
    {
      "midi": 47,
      "hit": false,
      "t": 104545.35000000047,
      "d": 227.2725000000064,
      "v": 59
    },
    {
      "midi": 50,
      "hit": false,
      "t": 104545.35000000047,
      "d": 227.2725000000064,
      "v": 59
    },
    {
      "midi": 55,
      "hit": false,
      "t": 104545.35000000047,
      "d": 227.2725000000064,
      "v": 59
    },
    {
      "midi": 62,
      "hit": false,
      "t": 104545.35000000047,
      "d": 227.2725000000064,
      "v": 59
    },
    {
      "midi": 67,
      "hit": false,
      "t": 104545.35000000047,
      "d": 227.2725000000064,
      "v": 59
    },
    {
      "midi": 43,
      "hit": false,
      "t": 104772.62250000048,
      "d": 227.2725000000064,
      "v": 59
    },
    {
      "midi": 47,
      "hit": false,
      "t": 104772.62250000048,
      "d": 227.2725000000064,
      "v": 59
    },
    {
      "midi": 50,
      "hit": false,
      "t": 104772.62250000048,
      "d": 227.2725000000064,
      "v": 59
    },
    {
      "midi": 55,
      "hit": false,
      "t": 104772.62250000048,
      "d": 227.2725000000064,
      "v": 59
    },
    {
      "midi": 62,
      "hit": false,
      "t": 104772.62250000048,
      "d": 227.2725000000064,
      "v": 59
    },
    {
      "midi": 67,
      "hit": false,
      "t": 104772.62250000048,
      "d": 227.2725000000064,
      "v": 59
    },
    {
      "midi": 43,
      "hit": false,
      "t": 104999.89500000048,
      "d": 227.2725000000064,
      "v": 59
    },
    {
      "midi": 47,
      "hit": false,
      "t": 104999.89500000048,
      "d": 227.2725000000064,
      "v": 59
    },
    {
      "midi": 50,
      "hit": false,
      "t": 104999.89500000048,
      "d": 227.2725000000064,
      "v": 59
    },
    {
      "midi": 55,
      "hit": false,
      "t": 104999.89500000048,
      "d": 227.2725000000064,
      "v": 59
    },
    {
      "midi": 62,
      "hit": false,
      "t": 104999.89500000048,
      "d": 227.2725000000064,
      "v": 59
    },
    {
      "midi": 67,
      "hit": false,
      "t": 104999.89500000048,
      "d": 227.2725000000064,
      "v": 59
    },
    {
      "midi": 43,
      "hit": false,
      "t": 105227.16750000049,
      "d": 227.2725000000064,
      "v": 59
    },
    {
      "midi": 47,
      "hit": false,
      "t": 105227.16750000049,
      "d": 227.2725000000064,
      "v": 59
    },
    {
      "midi": 50,
      "hit": false,
      "t": 105227.16750000049,
      "d": 227.2725000000064,
      "v": 59
    },
    {
      "midi": 55,
      "hit": false,
      "t": 105227.16750000049,
      "d": 227.2725000000064,
      "v": 59
    },
    {
      "midi": 62,
      "hit": false,
      "t": 105227.16750000049,
      "d": 227.2725000000064,
      "v": 59
    },
    {
      "midi": 67,
      "hit": false,
      "t": 105227.16750000049,
      "d": 227.2725000000064,
      "v": 59
    },
    {
      "midi": 69,
      "hit": false,
      "t": 105454.44,
      "d": 227.2725000000064,
      "v": 62
    },
    {
      "midi": 48,
      "hit": false,
      "t": 105454.4400000005,
      "d": 227.2725000000064,
      "v": 59
    },
    {
      "midi": 52,
      "hit": false,
      "t": 105454.4400000005,
      "d": 227.2725000000064,
      "v": 59
    },
    {
      "midi": 55,
      "hit": false,
      "t": 105454.4400000005,
      "d": 227.2725000000064,
      "v": 59
    },
    {
      "midi": 62,
      "hit": false,
      "t": 105454.4400000005,
      "d": 227.2725000000064,
      "v": 59
    },
    {
      "midi": 67,
      "hit": false,
      "t": 105454.4400000005,
      "d": 227.2725000000064,
      "v": 59
    },
    {
      "midi": 67,
      "hit": false,
      "t": 105681.71250000001,
      "d": 454.54499999999825,
      "v": 62
    },
    {
      "midi": 48,
      "hit": false,
      "t": 105681.7125000005,
      "d": 227.2725000000064,
      "v": 59
    },
    {
      "midi": 52,
      "hit": false,
      "t": 105681.7125000005,
      "d": 227.2725000000064,
      "v": 59
    },
    {
      "midi": 55,
      "hit": false,
      "t": 105681.7125000005,
      "d": 227.2725000000064,
      "v": 59
    },
    {
      "midi": 62,
      "hit": false,
      "t": 105681.7125000005,
      "d": 227.2725000000064,
      "v": 59
    },
    {
      "midi": 67,
      "hit": false,
      "t": 105681.7125000005,
      "d": 227.2725000000064,
      "v": 59
    },
    {
      "midi": 48,
      "hit": false,
      "t": 105908.98500000051,
      "d": 227.2725000000064,
      "v": 59
    },
    {
      "midi": 52,
      "hit": false,
      "t": 105908.98500000051,
      "d": 227.2725000000064,
      "v": 59
    },
    {
      "midi": 55,
      "hit": false,
      "t": 105908.98500000051,
      "d": 227.2725000000064,
      "v": 59
    },
    {
      "midi": 62,
      "hit": false,
      "t": 105908.98500000051,
      "d": 227.2725000000064,
      "v": 59
    },
    {
      "midi": 67,
      "hit": false,
      "t": 105908.98500000051,
      "d": 227.2725000000064,
      "v": 59
    },
    {
      "midi": 50,
      "hit": false,
      "t": 106136.25750000052,
      "d": 454.54499999999825,
      "v": 59
    },
    {
      "midi": 54,
      "hit": false,
      "t": 106136.25750000052,
      "d": 454.54499999999825,
      "v": 59
    },
    {
      "midi": 57,
      "hit": false,
      "t": 106136.25750000052,
      "d": 454.54499999999825,
      "v": 59
    },
    {
      "midi": 62,
      "hit": false,
      "t": 106136.25750000052,
      "d": 454.54499999999825,
      "v": 59
    },
    {
      "midi": 66,
      "hit": false,
      "t": 106136.25750000052,
      "d": 454.54499999999825,
      "v": 59
    },
    {
      "midi": 71,
      "hit": false,
      "t": 106150.46203125,
      "d": 454.54499999999825,
      "v": 62
    },
    {
      "midi": 50,
      "hit": false,
      "t": 106590.80250000051,
      "d": 227.2725000000064,
      "v": 59
    },
    {
      "midi": 54,
      "hit": false,
      "t": 106590.80250000051,
      "d": 227.2725000000064,
      "v": 59
    },
    {
      "midi": 57,
      "hit": false,
      "t": 106590.80250000051,
      "d": 227.2725000000064,
      "v": 59
    },
    {
      "midi": 62,
      "hit": false,
      "t": 106590.80250000051,
      "d": 227.2725000000064,
      "v": 59
    },
    {
      "midi": 66,
      "hit": false,
      "t": 106590.80250000051,
      "d": 227.2725000000064,
      "v": 59
    },
    {
      "midi": 50,
      "hit": false,
      "t": 106818.07500000052,
      "d": 227.2725000000064,
      "v": 59
    },
    {
      "midi": 54,
      "hit": false,
      "t": 106818.07500000052,
      "d": 227.2725000000064,
      "v": 59
    },
    {
      "midi": 57,
      "hit": false,
      "t": 106818.07500000052,
      "d": 227.2725000000064,
      "v": 59
    },
    {
      "midi": 62,
      "hit": false,
      "t": 106818.07500000052,
      "d": 227.2725000000064,
      "v": 59
    },
    {
      "midi": 66,
      "hit": false,
      "t": 106818.07500000052,
      "d": 227.2725000000064,
      "v": 59
    },
    {
      "midi": 67,
      "hit": false,
      "t": 107016.93843750001,
      "d": 42.613593749993015,
      "v": 62
    },
    {
      "midi": 43,
      "hit": false,
      "t": 107045.34750000053,
      "d": 454.54499999999825,
      "v": 59
    },
    {
      "midi": 47,
      "hit": false,
      "t": 107045.34750000053,
      "d": 454.54499999999825,
      "v": 59
    },
    {
      "midi": 50,
      "hit": false,
      "t": 107045.34750000053,
      "d": 454.54499999999825,
      "v": 59
    },
    {
      "midi": 55,
      "hit": false,
      "t": 107045.34750000053,
      "d": 454.54499999999825,
      "v": 59
    },
    {
      "midi": 62,
      "hit": false,
      "t": 107045.34750000053,
      "d": 454.54499999999825,
      "v": 59
    },
    {
      "midi": 67,
      "hit": false,
      "t": 107045.34750000053,
      "d": 454.54499999999825,
      "v": 59
    },
    {
      "midi": 43,
      "hit": false,
      "t": 107499.89250000053,
      "d": 227.2725000000064,
      "v": 59
    },
    {
      "midi": 47,
      "hit": false,
      "t": 107499.89250000053,
      "d": 227.2725000000064,
      "v": 59
    },
    {
      "midi": 50,
      "hit": false,
      "t": 107499.89250000053,
      "d": 227.2725000000064,
      "v": 59
    },
    {
      "midi": 55,
      "hit": false,
      "t": 107499.89250000053,
      "d": 227.2725000000064,
      "v": 59
    },
    {
      "midi": 62,
      "hit": false,
      "t": 107499.89250000053,
      "d": 227.2725000000064,
      "v": 59
    },
    {
      "midi": 67,
      "hit": false,
      "t": 107499.89250000053,
      "d": 227.2725000000064,
      "v": 59
    },
    {
      "midi": 43,
      "hit": false,
      "t": 107727.16500000053,
      "d": 454.54499999999825,
      "v": 59
    },
    {
      "midi": 47,
      "hit": false,
      "t": 107727.16500000053,
      "d": 454.54499999999825,
      "v": 59
    },
    {
      "midi": 50,
      "hit": false,
      "t": 107727.16500000053,
      "d": 454.54499999999825,
      "v": 59
    },
    {
      "midi": 55,
      "hit": false,
      "t": 107727.16500000053,
      "d": 454.54499999999825,
      "v": 59
    },
    {
      "midi": 62,
      "hit": false,
      "t": 107727.16500000053,
      "d": 454.54499999999825,
      "v": 59
    },
    {
      "midi": 67,
      "hit": false,
      "t": 107727.16500000053,
      "d": 454.54499999999825,
      "v": 59
    },
    {
      "midi": 43,
      "hit": false,
      "t": 108181.71000000053,
      "d": 227.2725000000064,
      "v": 59
    },
    {
      "midi": 47,
      "hit": false,
      "t": 108181.71000000053,
      "d": 227.2725000000064,
      "v": 59
    },
    {
      "midi": 50,
      "hit": false,
      "t": 108181.71000000053,
      "d": 227.2725000000064,
      "v": 59
    },
    {
      "midi": 55,
      "hit": false,
      "t": 108181.71000000053,
      "d": 227.2725000000064,
      "v": 59
    },
    {
      "midi": 62,
      "hit": false,
      "t": 108181.71000000053,
      "d": 227.2725000000064,
      "v": 59
    },
    {
      "midi": 67,
      "hit": false,
      "t": 108181.71000000053,
      "d": 227.2725000000064,
      "v": 59
    },
    {
      "midi": 43,
      "hit": false,
      "t": 108408.98250000054,
      "d": 227.2725000000064,
      "v": 59
    },
    {
      "midi": 47,
      "hit": false,
      "t": 108408.98250000054,
      "d": 227.2725000000064,
      "v": 59
    },
    {
      "midi": 50,
      "hit": false,
      "t": 108408.98250000054,
      "d": 227.2725000000064,
      "v": 59
    },
    {
      "midi": 55,
      "hit": false,
      "t": 108408.98250000054,
      "d": 227.2725000000064,
      "v": 59
    },
    {
      "midi": 62,
      "hit": false,
      "t": 108408.98250000054,
      "d": 227.2725000000064,
      "v": 59
    },
    {
      "midi": 67,
      "hit": false,
      "t": 108408.98250000054,
      "d": 227.2725000000064,
      "v": 59
    },
    {
      "midi": 43,
      "hit": false,
      "t": 108636.25500000054,
      "d": 227.2725000000064,
      "v": 59
    },
    {
      "midi": 47,
      "hit": false,
      "t": 108636.25500000054,
      "d": 227.2725000000064,
      "v": 59
    },
    {
      "midi": 50,
      "hit": false,
      "t": 108636.25500000054,
      "d": 227.2725000000064,
      "v": 59
    },
    {
      "midi": 55,
      "hit": false,
      "t": 108636.25500000054,
      "d": 227.2725000000064,
      "v": 59
    },
    {
      "midi": 62,
      "hit": false,
      "t": 108636.25500000054,
      "d": 227.2725000000064,
      "v": 59
    },
    {
      "midi": 67,
      "hit": false,
      "t": 108636.25500000054,
      "d": 227.2725000000064,
      "v": 59
    },
    {
      "midi": 43,
      "hit": false,
      "t": 108863.52750000055,
      "d": 227.2725000000064,
      "v": 59
    },
    {
      "midi": 47,
      "hit": false,
      "t": 108863.52750000055,
      "d": 227.2725000000064,
      "v": 59
    },
    {
      "midi": 50,
      "hit": false,
      "t": 108863.52750000055,
      "d": 227.2725000000064,
      "v": 59
    },
    {
      "midi": 55,
      "hit": false,
      "t": 108863.52750000055,
      "d": 227.2725000000064,
      "v": 59
    },
    {
      "midi": 62,
      "hit": false,
      "t": 108863.52750000055,
      "d": 227.2725000000064,
      "v": 59
    },
    {
      "midi": 67,
      "hit": false,
      "t": 108863.52750000055,
      "d": 227.2725000000064,
      "v": 59
    },
    {
      "midi": 74,
      "hit": false,
      "t": 109090.8,
      "d": 909.0899999999965,
      "v": 62
    },
    {
      "midi": 77,
      "hit": false,
      "t": 109090.8,
      "d": 909.0899999999965,
      "v": 62
    },
    {
      "midi": 81,
      "hit": false,
      "t": 109090.8,
      "d": 909.0899999999965,
      "v": 62
    },
    {
      "midi": 43,
      "hit": false,
      "t": 109090.80000000056,
      "d": 454.54499999999825,
      "v": 59
    },
    {
      "midi": 47,
      "hit": false,
      "t": 109090.80000000056,
      "d": 454.54499999999825,
      "v": 59
    },
    {
      "midi": 50,
      "hit": false,
      "t": 109090.80000000056,
      "d": 454.54499999999825,
      "v": 59
    },
    {
      "midi": 55,
      "hit": false,
      "t": 109090.80000000056,
      "d": 454.54499999999825,
      "v": 59
    },
    {
      "midi": 62,
      "hit": false,
      "t": 109090.80000000056,
      "d": 454.54499999999825,
      "v": 59
    },
    {
      "midi": 67,
      "hit": false,
      "t": 109090.80000000056,
      "d": 454.54499999999825,
      "v": 59
    },
    {
      "midi": 43,
      "hit": false,
      "t": 109545.34500000055,
      "d": 681.8175000000047,
      "v": 59
    },
    {
      "midi": 47,
      "hit": false,
      "t": 109545.34500000055,
      "d": 681.8175000000047,
      "v": 59
    },
    {
      "midi": 50,
      "hit": false,
      "t": 109545.34500000055,
      "d": 681.8175000000047,
      "v": 59
    },
    {
      "midi": 55,
      "hit": false,
      "t": 109545.34500000055,
      "d": 681.8175000000047,
      "v": 59
    },
    {
      "midi": 62,
      "hit": false,
      "t": 109545.34500000055,
      "d": 681.8175000000047,
      "v": 59
    },
    {
      "midi": 67,
      "hit": false,
      "t": 109545.34500000055,
      "d": 681.8175000000047,
      "v": 59
    },
    {
      "midi": 74,
      "hit": false,
      "t": 109999.89,
      "d": 909.0899999999965,
      "v": 62
    },
    {
      "midi": 77,
      "hit": false,
      "t": 109999.89,
      "d": 909.0899999999965,
      "v": 62
    },
    {
      "midi": 81,
      "hit": false,
      "t": 109999.89,
      "d": 909.0899999999965,
      "v": 62
    },
    {
      "midi": 43,
      "hit": false,
      "t": 110227.16250000056,
      "d": 227.2725000000064,
      "v": 59
    },
    {
      "midi": 47,
      "hit": false,
      "t": 110227.16250000056,
      "d": 227.2725000000064,
      "v": 59
    },
    {
      "midi": 50,
      "hit": false,
      "t": 110227.16250000056,
      "d": 227.2725000000064,
      "v": 59
    },
    {
      "midi": 55,
      "hit": false,
      "t": 110227.16250000056,
      "d": 227.2725000000064,
      "v": 59
    },
    {
      "midi": 62,
      "hit": false,
      "t": 110227.16250000056,
      "d": 227.2725000000064,
      "v": 59
    },
    {
      "midi": 67,
      "hit": false,
      "t": 110227.16250000056,
      "d": 227.2725000000064,
      "v": 59
    },
    {
      "midi": 43,
      "hit": false,
      "t": 110454.43500000057,
      "d": 227.2725000000064,
      "v": 59
    },
    {
      "midi": 47,
      "hit": false,
      "t": 110454.43500000057,
      "d": 227.2725000000064,
      "v": 59
    },
    {
      "midi": 50,
      "hit": false,
      "t": 110454.43500000057,
      "d": 227.2725000000064,
      "v": 59
    },
    {
      "midi": 55,
      "hit": false,
      "t": 110454.43500000057,
      "d": 227.2725000000064,
      "v": 59
    },
    {
      "midi": 62,
      "hit": false,
      "t": 110454.43500000057,
      "d": 227.2725000000064,
      "v": 59
    },
    {
      "midi": 67,
      "hit": false,
      "t": 110454.43500000057,
      "d": 227.2725000000064,
      "v": 59
    },
    {
      "midi": 43,
      "hit": false,
      "t": 110681.70750000057,
      "d": 227.2725000000064,
      "v": 59
    },
    {
      "midi": 47,
      "hit": false,
      "t": 110681.70750000057,
      "d": 227.2725000000064,
      "v": 59
    },
    {
      "midi": 50,
      "hit": false,
      "t": 110681.70750000057,
      "d": 227.2725000000064,
      "v": 59
    },
    {
      "midi": 55,
      "hit": false,
      "t": 110681.70750000057,
      "d": 227.2725000000064,
      "v": 59
    },
    {
      "midi": 62,
      "hit": false,
      "t": 110681.70750000057,
      "d": 227.2725000000064,
      "v": 59
    },
    {
      "midi": 67,
      "hit": false,
      "t": 110681.70750000057,
      "d": 227.2725000000064,
      "v": 59
    },
    {
      "midi": 74,
      "hit": false,
      "t": 110908.98,
      "d": 909.0899999999965,
      "v": 62
    },
    {
      "midi": 77,
      "hit": false,
      "t": 110908.98,
      "d": 909.0899999999965,
      "v": 62
    },
    {
      "midi": 81,
      "hit": false,
      "t": 110908.98,
      "d": 909.0899999999965,
      "v": 62
    },
    {
      "midi": 43,
      "hit": false,
      "t": 110908.98000000058,
      "d": 454.54499999999825,
      "v": 59
    },
    {
      "midi": 47,
      "hit": false,
      "t": 110908.98000000058,
      "d": 454.54499999999825,
      "v": 59
    },
    {
      "midi": 50,
      "hit": false,
      "t": 110908.98000000058,
      "d": 454.54499999999825,
      "v": 59
    },
    {
      "midi": 55,
      "hit": false,
      "t": 110908.98000000058,
      "d": 454.54499999999825,
      "v": 59
    },
    {
      "midi": 62,
      "hit": false,
      "t": 110908.98000000058,
      "d": 454.54499999999825,
      "v": 59
    },
    {
      "midi": 67,
      "hit": false,
      "t": 110908.98000000058,
      "d": 454.54499999999825,
      "v": 59
    },
    {
      "midi": 43,
      "hit": false,
      "t": 111363.52500000058,
      "d": 681.8175000000047,
      "v": 59
    },
    {
      "midi": 47,
      "hit": false,
      "t": 111363.52500000058,
      "d": 681.8175000000047,
      "v": 59
    },
    {
      "midi": 50,
      "hit": false,
      "t": 111363.52500000058,
      "d": 681.8175000000047,
      "v": 59
    },
    {
      "midi": 55,
      "hit": false,
      "t": 111363.52500000058,
      "d": 681.8175000000047,
      "v": 59
    },
    {
      "midi": 62,
      "hit": false,
      "t": 111363.52500000058,
      "d": 681.8175000000047,
      "v": 59
    },
    {
      "midi": 67,
      "hit": false,
      "t": 111363.52500000058,
      "d": 681.8175000000047,
      "v": 59
    },
    {
      "midi": 74,
      "hit": false,
      "t": 111818.06999999999,
      "d": 909.0899999999965,
      "v": 62
    },
    {
      "midi": 77,
      "hit": false,
      "t": 111818.06999999999,
      "d": 909.0899999999965,
      "v": 62
    },
    {
      "midi": 81,
      "hit": false,
      "t": 111818.06999999999,
      "d": 909.0899999999965,
      "v": 62
    },
    {
      "midi": 43,
      "hit": false,
      "t": 112045.34250000058,
      "d": 227.2725000000064,
      "v": 59
    },
    {
      "midi": 47,
      "hit": false,
      "t": 112045.34250000058,
      "d": 227.2725000000064,
      "v": 59
    },
    {
      "midi": 50,
      "hit": false,
      "t": 112045.34250000058,
      "d": 227.2725000000064,
      "v": 59
    },
    {
      "midi": 55,
      "hit": false,
      "t": 112045.34250000058,
      "d": 227.2725000000064,
      "v": 59
    },
    {
      "midi": 62,
      "hit": false,
      "t": 112045.34250000058,
      "d": 227.2725000000064,
      "v": 59
    },
    {
      "midi": 67,
      "hit": false,
      "t": 112045.34250000058,
      "d": 227.2725000000064,
      "v": 59
    },
    {
      "midi": 43,
      "hit": false,
      "t": 112272.61500000059,
      "d": 227.2725000000064,
      "v": 59
    },
    {
      "midi": 47,
      "hit": false,
      "t": 112272.61500000059,
      "d": 227.2725000000064,
      "v": 59
    },
    {
      "midi": 50,
      "hit": false,
      "t": 112272.61500000059,
      "d": 227.2725000000064,
      "v": 59
    },
    {
      "midi": 55,
      "hit": false,
      "t": 112272.61500000059,
      "d": 227.2725000000064,
      "v": 59
    },
    {
      "midi": 62,
      "hit": false,
      "t": 112272.61500000059,
      "d": 227.2725000000064,
      "v": 59
    },
    {
      "midi": 67,
      "hit": false,
      "t": 112272.61500000059,
      "d": 227.2725000000064,
      "v": 59
    },
    {
      "midi": 43,
      "hit": false,
      "t": 112499.8875000006,
      "d": 227.2725000000064,
      "v": 59
    },
    {
      "midi": 47,
      "hit": false,
      "t": 112499.8875000006,
      "d": 227.2725000000064,
      "v": 59
    },
    {
      "midi": 50,
      "hit": false,
      "t": 112499.8875000006,
      "d": 227.2725000000064,
      "v": 59
    },
    {
      "midi": 55,
      "hit": false,
      "t": 112499.8875000006,
      "d": 227.2725000000064,
      "v": 59
    },
    {
      "midi": 62,
      "hit": false,
      "t": 112499.8875000006,
      "d": 227.2725000000064,
      "v": 59
    },
    {
      "midi": 67,
      "hit": false,
      "t": 112499.8875000006,
      "d": 227.2725000000064,
      "v": 59
    },
    {
      "midi": 74,
      "hit": false,
      "t": 112727.15999999999,
      "d": 227.2725000000064,
      "v": 62
    },
    {
      "midi": 77,
      "hit": false,
      "t": 112727.15999999999,
      "d": 227.2725000000064,
      "v": 62
    },
    {
      "midi": 81,
      "hit": false,
      "t": 112727.15999999999,
      "d": 227.2725000000064,
      "v": 62
    },
    {
      "midi": 48,
      "hit": false,
      "t": 112727.1600000006,
      "d": 3636.3600000000006,
      "v": 59
    },
    {
      "midi": 52,
      "hit": false,
      "t": 112727.1600000006,
      "d": 3636.3600000000006,
      "v": 59
    },
    {
      "midi": 55,
      "hit": false,
      "t": 112727.1600000006,
      "d": 3636.3600000000006,
      "v": 59
    },
    {
      "midi": 60,
      "hit": false,
      "t": 112727.1600000006,
      "d": 3636.3600000000006,
      "v": 59
    },
    {
      "midi": 64,
      "hit": false,
      "t": 112727.1600000006,
      "d": 3636.3600000000006,
      "v": 59
    },
    {
      "midi": 72,
      "hit": false,
      "t": 112954.4325,
      "d": 681.8175000000047,
      "v": 62
    },
    {
      "midi": 76,
      "hit": false,
      "t": 112954.4325,
      "d": 681.8175000000047,
      "v": 62
    },
    {
      "midi": 79,
      "hit": false,
      "t": 112954.4325,
      "d": 681.8175000000047,
      "v": 62
    },
    {
      "midi": 55,
      "hit": false,
      "t": 113863.52249999999,
      "d": 227.2725000000064,
      "v": 59
    },
    {
      "midi": 60,
      "hit": false,
      "t": 114090.795,
      "d": 227.2725000000064,
      "v": 59
    },
    {
      "midi": 64,
      "hit": false,
      "t": 114090.795,
      "d": 227.2725000000064,
      "v": 59
    },
    {
      "midi": 62,
      "hit": false,
      "t": 114318.0675,
      "d": 227.2725000000064,
      "v": 59
    },
    {
      "midi": 65,
      "hit": false,
      "t": 114318.0675,
      "d": 227.2725000000064,
      "v": 59
    },
    {
      "midi": 64,
      "hit": false,
      "t": 114545.34000000001,
      "d": 303.02999999999884,
      "v": 59
    },
    {
      "midi": 67,
      "hit": false,
      "t": 114545.34000000001,
      "d": 303.02999999999884,
      "v": 59
    },
    {
      "midi": 62,
      "hit": false,
      "t": 114848.37000000001,
      "d": 303.02999999999884,
      "v": 59
    },
    {
      "midi": 65,
      "hit": false,
      "t": 114848.37000000001,
      "d": 303.02999999999884,
      "v": 59
    },
    {
      "midi": 60,
      "hit": false,
      "t": 115151.40000000001,
      "d": 303.02999999999884,
      "v": 59
    },
    {
      "midi": 64,
      "hit": false,
      "t": 115151.40000000001,
      "d": 303.02999999999884,
      "v": 59
    },
    {
      "midi": 62,
      "hit": false,
      "t": 115454.43000000001,
      "d": 454.54499999999825,
      "v": 59
    },
    {
      "midi": 65,
      "hit": false,
      "t": 115454.43000000001,
      "d": 454.54499999999825,
      "v": 59
    },
    {
      "midi": 60,
      "hit": false,
      "t": 115908.975,
      "d": 454.54499999999825,
      "v": 59
    },
    {
      "midi": 64,
      "hit": false,
      "t": 115908.975,
      "d": 454.54499999999825,
      "v": 59
    },
    {
      "midi": 60,
      "hit": false,
      "t": 116363.52,
      "d": 227.27249999999185,
      "v": 59
    },
    {
      "midi": 64,
      "hit": false,
      "t": 116363.52,
      "d": 227.27249999999185,
      "v": 59
    },
    {
      "midi": 62,
      "hit": false,
      "t": 116562.3834375,
      "d": 833.3325000000041,
      "v": 59
    },
    {
      "midi": 59,
      "hit": false,
      "t": 116595.52734375,
      "d": 833.3325000000041,
      "v": 59
    },
    {
      "midi": 60,
      "hit": false,
      "t": 117272.61,
      "d": 303.02999999999884,
      "v": 59
    },
    {
      "midi": 64,
      "hit": false,
      "t": 117272.61,
      "d": 303.02999999999884,
      "v": 59
    },
    {
      "midi": 60,
      "hit": false,
      "t": 117575.64,
      "d": 303.02999999999884,
      "v": 59
    },
    {
      "midi": 64,
      "hit": false,
      "t": 117575.64,
      "d": 303.02999999999884,
      "v": 59
    },
    {
      "midi": 59,
      "hit": false,
      "t": 118181.7,
      "d": 18.939375000001746,
      "v": 59
    },
    {
      "midi": 62,
      "hit": false,
      "t": 118181.7,
      "d": 18.939375000001746,
      "v": 59
    },
    {
      "midi": 60,
      "hit": false,
      "t": 118408.9725,
      "d": 719.6962500000081,
      "v": 59
    },
    {
      "midi": 57,
      "hit": false,
      "t": 119090.79000000001,
      "d": 37.87875000000349,
      "v": 59
    },
    {
      "midi": 62,
      "hit": false,
      "t": 119318.06250000001,
      "d": 75.75750000000698,
      "v": 59
    },
    {
      "midi": 59,
      "hit": false,
      "t": 119431.69875000003,
      "d": 303.02999999999884,
      "v": 59
    },
    {
      "midi": 57,
      "hit": false,
      "t": 119696.85000000002,
      "d": 303.02999999999884,
      "v": 59
    },
    {
      "midi": 60,
      "hit": false,
      "t": 119999.88000000002,
      "d": 18.939375000001746,
      "v": 59
    },
    {
      "midi": 57,
      "hit": false,
      "t": 119999.88000000002,
      "d": 340.9087499999878,
      "v": 59
    },
    {
      "midi": 43,
      "hit": false,
      "t": 119999.8800000006,
      "d": 1136.362500000003,
      "v": 59
    },
    {
      "midi": 47,
      "hit": false,
      "t": 119999.8800000006,
      "d": 1136.362500000003,
      "v": 59
    },
    {
      "midi": 50,
      "hit": false,
      "t": 119999.8800000006,
      "d": 1136.362500000003,
      "v": 59
    },
    {
      "midi": 55,
      "hit": false,
      "t": 119999.8800000006,
      "d": 1136.362500000003,
      "v": 59
    },
    {
      "midi": 59,
      "hit": false,
      "t": 119999.8800000006,
      "d": 1136.362500000003,
      "v": 59
    },
    {
      "midi": 62,
      "hit": false,
      "t": 119999.8800000006,
      "d": 1136.362500000003,
      "v": 59
    },
    {
      "midi": 67,
      "hit": false,
      "t": 119999.8800000006,
      "d": 1136.362500000003,
      "v": 59
    },
    {
      "midi": 59,
      "hit": false,
      "t": 120321.84937500002,
      "d": 909.089999999982,
      "v": 59
    },
    {
      "midi": 55,
      "hit": false,
      "t": 120331.31906250001,
      "d": 909.089999999982,
      "v": 59
    },
    {
      "midi": 43,
      "hit": false,
      "t": 121136.2425000006,
      "d": 227.2725000000064,
      "v": 59
    },
    {
      "midi": 47,
      "hit": false,
      "t": 121136.2425000006,
      "d": 227.2725000000064,
      "v": 59
    },
    {
      "midi": 50,
      "hit": false,
      "t": 121136.2425000006,
      "d": 227.2725000000064,
      "v": 59
    },
    {
      "midi": 55,
      "hit": false,
      "t": 121136.2425000006,
      "d": 227.2725000000064,
      "v": 59
    },
    {
      "midi": 59,
      "hit": false,
      "t": 121136.2425000006,
      "d": 227.2725000000064,
      "v": 59
    },
    {
      "midi": 62,
      "hit": false,
      "t": 121136.2425000006,
      "d": 227.2725000000064,
      "v": 59
    },
    {
      "midi": 67,
      "hit": false,
      "t": 121136.2425000006,
      "d": 227.2725000000064,
      "v": 59
    },
    {
      "midi": 43,
      "hit": false,
      "t": 121363.51500000061,
      "d": 227.2725000000064,
      "v": 59
    },
    {
      "midi": 47,
      "hit": false,
      "t": 121363.51500000061,
      "d": 227.2725000000064,
      "v": 59
    },
    {
      "midi": 50,
      "hit": false,
      "t": 121363.51500000061,
      "d": 227.2725000000064,
      "v": 59
    },
    {
      "midi": 55,
      "hit": false,
      "t": 121363.51500000061,
      "d": 227.2725000000064,
      "v": 59
    },
    {
      "midi": 59,
      "hit": false,
      "t": 121363.51500000061,
      "d": 227.2725000000064,
      "v": 59
    },
    {
      "midi": 62,
      "hit": false,
      "t": 121363.51500000061,
      "d": 227.2725000000064,
      "v": 59
    },
    {
      "midi": 67,
      "hit": false,
      "t": 121363.51500000061,
      "d": 227.2725000000064,
      "v": 59
    },
    {
      "midi": 43,
      "hit": false,
      "t": 121590.78750000062,
      "d": 227.2725000000064,
      "v": 59
    },
    {
      "midi": 47,
      "hit": false,
      "t": 121590.78750000062,
      "d": 227.2725000000064,
      "v": 59
    },
    {
      "midi": 50,
      "hit": false,
      "t": 121590.78750000062,
      "d": 227.2725000000064,
      "v": 59
    },
    {
      "midi": 55,
      "hit": false,
      "t": 121590.78750000062,
      "d": 227.2725000000064,
      "v": 59
    },
    {
      "midi": 59,
      "hit": false,
      "t": 121590.78750000062,
      "d": 227.2725000000064,
      "v": 59
    },
    {
      "midi": 62,
      "hit": false,
      "t": 121590.78750000062,
      "d": 227.2725000000064,
      "v": 59
    },
    {
      "midi": 67,
      "hit": false,
      "t": 121590.78750000062,
      "d": 227.2725000000064,
      "v": 59
    },
    {
      "midi": 55,
      "hit": false,
      "t": 121818.06,
      "d": 1818.179999999993,
      "v": 59
    },
    {
      "midi": 43,
      "hit": false,
      "t": 121818.06000000062,
      "d": 454.54499999999825,
      "v": 59
    },
    {
      "midi": 47,
      "hit": false,
      "t": 121818.06000000062,
      "d": 454.54499999999825,
      "v": 59
    },
    {
      "midi": 50,
      "hit": false,
      "t": 121818.06000000062,
      "d": 454.54499999999825,
      "v": 59
    },
    {
      "midi": 55,
      "hit": false,
      "t": 121818.06000000062,
      "d": 454.54499999999825,
      "v": 59
    },
    {
      "midi": 59,
      "hit": false,
      "t": 121818.06000000062,
      "d": 454.54499999999825,
      "v": 59
    },
    {
      "midi": 62,
      "hit": false,
      "t": 121818.06000000062,
      "d": 454.54499999999825,
      "v": 59
    },
    {
      "midi": 67,
      "hit": false,
      "t": 121818.06000000062,
      "d": 454.54499999999825,
      "v": 59
    },
    {
      "midi": 62,
      "hit": false,
      "t": 122059.53703125,
      "d": 113.63624999999593,
      "v": 59
    },
    {
      "midi": 71,
      "hit": false,
      "t": 122140.029375,
      "d": 1363.6349999999948,
      "v": 59
    },
    {
      "midi": 74,
      "hit": false,
      "t": 122158.96875,
      "d": 1363.6349999999948,
      "v": 59
    },
    {
      "midi": 43,
      "hit": false,
      "t": 122272.60500000062,
      "d": 681.8175000000047,
      "v": 59
    },
    {
      "midi": 47,
      "hit": false,
      "t": 122272.60500000062,
      "d": 681.8175000000047,
      "v": 59
    },
    {
      "midi": 50,
      "hit": false,
      "t": 122272.60500000062,
      "d": 681.8175000000047,
      "v": 59
    },
    {
      "midi": 55,
      "hit": false,
      "t": 122272.60500000062,
      "d": 681.8175000000047,
      "v": 59
    },
    {
      "midi": 59,
      "hit": false,
      "t": 122272.60500000062,
      "d": 681.8175000000047,
      "v": 59
    },
    {
      "midi": 62,
      "hit": false,
      "t": 122272.60500000062,
      "d": 681.8175000000047,
      "v": 59
    },
    {
      "midi": 67,
      "hit": false,
      "t": 122272.60500000062,
      "d": 681.8175000000047,
      "v": 59
    },
    {
      "midi": 43,
      "hit": false,
      "t": 122954.42250000063,
      "d": 227.2725000000064,
      "v": 59
    },
    {
      "midi": 47,
      "hit": false,
      "t": 122954.42250000063,
      "d": 227.2725000000064,
      "v": 59
    },
    {
      "midi": 50,
      "hit": false,
      "t": 122954.42250000063,
      "d": 227.2725000000064,
      "v": 59
    },
    {
      "midi": 55,
      "hit": false,
      "t": 122954.42250000063,
      "d": 227.2725000000064,
      "v": 59
    },
    {
      "midi": 59,
      "hit": false,
      "t": 122954.42250000063,
      "d": 227.2725000000064,
      "v": 59
    },
    {
      "midi": 62,
      "hit": false,
      "t": 122954.42250000063,
      "d": 227.2725000000064,
      "v": 59
    },
    {
      "midi": 67,
      "hit": false,
      "t": 122954.42250000063,
      "d": 227.2725000000064,
      "v": 59
    },
    {
      "midi": 43,
      "hit": false,
      "t": 123181.69500000063,
      "d": 227.2725000000064,
      "v": 59
    },
    {
      "midi": 47,
      "hit": false,
      "t": 123181.69500000063,
      "d": 227.2725000000064,
      "v": 59
    },
    {
      "midi": 50,
      "hit": false,
      "t": 123181.69500000063,
      "d": 227.2725000000064,
      "v": 59
    },
    {
      "midi": 55,
      "hit": false,
      "t": 123181.69500000063,
      "d": 227.2725000000064,
      "v": 59
    },
    {
      "midi": 59,
      "hit": false,
      "t": 123181.69500000063,
      "d": 227.2725000000064,
      "v": 59
    },
    {
      "midi": 62,
      "hit": false,
      "t": 123181.69500000063,
      "d": 227.2725000000064,
      "v": 59
    },
    {
      "midi": 67,
      "hit": false,
      "t": 123181.69500000063,
      "d": 227.2725000000064,
      "v": 59
    },
    {
      "midi": 43,
      "hit": false,
      "t": 123408.96750000064,
      "d": 227.2725000000064,
      "v": 59
    },
    {
      "midi": 47,
      "hit": false,
      "t": 123408.96750000064,
      "d": 227.2725000000064,
      "v": 59
    },
    {
      "midi": 50,
      "hit": false,
      "t": 123408.96750000064,
      "d": 227.2725000000064,
      "v": 59
    },
    {
      "midi": 55,
      "hit": false,
      "t": 123408.96750000064,
      "d": 227.2725000000064,
      "v": 59
    },
    {
      "midi": 59,
      "hit": false,
      "t": 123408.96750000064,
      "d": 227.2725000000064,
      "v": 59
    },
    {
      "midi": 62,
      "hit": false,
      "t": 123408.96750000064,
      "d": 227.2725000000064,
      "v": 59
    },
    {
      "midi": 67,
      "hit": false,
      "t": 123408.96750000064,
      "d": 227.2725000000064,
      "v": 59
    },
    {
      "midi": 62,
      "hit": false,
      "t": 123636.24,
      "d": 227.2725000000064,
      "v": 62
    },
    {
      "midi": 55,
      "hit": false,
      "t": 123636.24000000065,
      "d": 227.2725000000064,
      "v": 47
    },
    {
      "midi": 59,
      "hit": false,
      "t": 123636.24000000065,
      "d": 227.2725000000064,
      "v": 56
    },
    {
      "midi": 62,
      "hit": false,
      "t": 123636.24000000065,
      "d": 227.2725000000064,
      "v": 55
    },
    {
      "midi": 67,
      "hit": false,
      "t": 123636.24000000065,
      "d": 227.2725000000064,
      "v": 46
    },
    {
      "midi": 74,
      "hit": false,
      "t": 123863.51250000001,
      "d": 454.54499999999825,
      "v": 62
    },
    {
      "midi": 79,
      "hit": false,
      "t": 123863.51250000001,
      "d": 454.54499999999825,
      "v": 62
    },
    {
      "midi": 55,
      "hit": false,
      "t": 123863.51250000065,
      "d": 227.2725000000064,
      "v": 47
    },
    {
      "midi": 59,
      "hit": false,
      "t": 123863.51250000065,
      "d": 227.2725000000064,
      "v": 55
    },
    {
      "midi": 62,
      "hit": false,
      "t": 123863.51250000065,
      "d": 227.2725000000064,
      "v": 51
    },
    {
      "midi": 67,
      "hit": false,
      "t": 123863.51250000065,
      "d": 227.2725000000064,
      "v": 37
    },
    {
      "midi": 55,
      "hit": false,
      "t": 124090.78500000066,
      "d": 227.2725000000064,
      "v": 33
    },
    {
      "midi": 59,
      "hit": false,
      "t": 124090.78500000066,
      "d": 227.2725000000064,
      "v": 49
    },
    {
      "midi": 62,
      "hit": false,
      "t": 124090.78500000066,
      "d": 227.2725000000064,
      "v": 45
    },
    {
      "midi": 67,
      "hit": false,
      "t": 124090.78500000066,
      "d": 227.2725000000064,
      "v": 34
    },
    {
      "midi": 72,
      "hit": false,
      "t": 124318.05750000001,
      "d": 454.54499999999825,
      "v": 62
    },
    {
      "midi": 76,
      "hit": false,
      "t": 124318.05750000001,
      "d": 454.54499999999825,
      "v": 62
    },
    {
      "midi": 55,
      "hit": false,
      "t": 124318.05750000066,
      "d": 227.2725000000064,
      "v": 47
    },
    {
      "midi": 59,
      "hit": false,
      "t": 124318.05750000066,
      "d": 227.2725000000064,
      "v": 59
    },
    {
      "midi": 62,
      "hit": false,
      "t": 124318.05750000066,
      "d": 227.2725000000064,
      "v": 57
    },
    {
      "midi": 67,
      "hit": false,
      "t": 124318.05750000066,
      "d": 227.2725000000064,
      "v": 51
    },
    {
      "midi": 48,
      "hit": false,
      "t": 124545.33000000067,
      "d": 227.2725000000064,
      "v": 18
    },
    {
      "midi": 52,
      "hit": false,
      "t": 124545.33000000067,
      "d": 227.2725000000064,
      "v": 37
    },
    {
      "midi": 55,
      "hit": false,
      "t": 124545.33000000067,
      "d": 227.2725000000064,
      "v": 40
    },
    {
      "midi": 62,
      "hit": false,
      "t": 124545.33000000067,
      "d": 227.2725000000064,
      "v": 25
    },
    {
      "midi": 67,
      "hit": false,
      "t": 124545.33000000067,
      "d": 227.2725000000064,
      "v": 59
    },
    {
      "midi": 71,
      "hit": false,
      "t": 124772.60250000001,
      "d": 454.54499999999825,
      "v": 62
    },
    {
      "midi": 74,
      "hit": false,
      "t": 124772.60250000001,
      "d": 454.54499999999825,
      "v": 62
    },
    {
      "midi": 48,
      "hit": false,
      "t": 124772.60250000068,
      "d": 227.2725000000064,
      "v": 34
    },
    {
      "midi": 52,
      "hit": false,
      "t": 124772.60250000068,
      "d": 227.2725000000064,
      "v": 39
    },
    {
      "midi": 55,
      "hit": false,
      "t": 124772.60250000068,
      "d": 227.2725000000064,
      "v": 37
    },
    {
      "midi": 62,
      "hit": false,
      "t": 124772.60250000068,
      "d": 227.2725000000064,
      "v": 18
    },
    {
      "midi": 67,
      "hit": false,
      "t": 124772.60250000068,
      "d": 227.2725000000064,
      "v": 59
    },
    {
      "midi": 48,
      "hit": false,
      "t": 124999.87500000068,
      "d": 227.2725000000064,
      "v": 39
    },
    {
      "midi": 52,
      "hit": false,
      "t": 124999.87500000068,
      "d": 227.2725000000064,
      "v": 40
    },
    {
      "midi": 55,
      "hit": false,
      "t": 124999.87500000068,
      "d": 227.2725000000064,
      "v": 39
    },
    {
      "midi": 62,
      "hit": false,
      "t": 124999.87500000068,
      "d": 227.2725000000064,
      "v": 36
    },
    {
      "midi": 67,
      "hit": false,
      "t": 124999.87500000068,
      "d": 227.2725000000064,
      "v": 59
    },
    {
      "midi": 69,
      "hit": false,
      "t": 125227.1475,
      "d": 454.54499999999825,
      "v": 62
    },
    {
      "midi": 72,
      "hit": false,
      "t": 125227.1475,
      "d": 454.54499999999825,
      "v": 62
    },
    {
      "midi": 50,
      "hit": false,
      "t": 125227.14750000069,
      "d": 454.54499999999825,
      "v": 59
    },
    {
      "midi": 54,
      "hit": false,
      "t": 125227.14750000069,
      "d": 454.54499999999825,
      "v": 59
    },
    {
      "midi": 57,
      "hit": false,
      "t": 125227.14750000069,
      "d": 454.54499999999825,
      "v": 59
    },
    {
      "midi": 62,
      "hit": false,
      "t": 125227.14750000069,
      "d": 454.54499999999825,
      "v": 59
    },
    {
      "midi": 67,
      "hit": false,
      "t": 125227.14750000069,
      "d": 454.54499999999825,
      "v": 59
    },
    {
      "midi": 67,
      "hit": false,
      "t": 125681.6925,
      "d": 454.54499999999825,
      "v": 62
    },
    {
      "midi": 71,
      "hit": false,
      "t": 125681.6925,
      "d": 454.54499999999825,
      "v": 62
    },
    {
      "midi": 50,
      "hit": false,
      "t": 125681.69250000069,
      "d": 227.2725000000064,
      "v": 29
    },
    {
      "midi": 54,
      "hit": false,
      "t": 125681.69250000069,
      "d": 227.2725000000064,
      "v": 25
    },
    {
      "midi": 57,
      "hit": false,
      "t": 125681.69250000069,
      "d": 227.2725000000064,
      "v": 41
    },
    {
      "midi": 62,
      "hit": false,
      "t": 125681.69250000069,
      "d": 227.2725000000064,
      "v": 14
    },
    {
      "midi": 67,
      "hit": false,
      "t": 125681.69250000069,
      "d": 227.2725000000064,
      "v": 59
    },
    {
      "midi": 50,
      "hit": false,
      "t": 125908.9650000007,
      "d": 227.2725000000064,
      "v": 23
    },
    {
      "midi": 54,
      "hit": false,
      "t": 125908.9650000007,
      "d": 227.2725000000064,
      "v": 33
    },
    {
      "midi": 57,
      "hit": false,
      "t": 125908.9650000007,
      "d": 227.2725000000064,
      "v": 40
    },
    {
      "midi": 62,
      "hit": false,
      "t": 125908.9650000007,
      "d": 227.2725000000064,
      "v": 23
    },
    {
      "midi": 67,
      "hit": false,
      "t": 125908.9650000007,
      "d": 227.2725000000064,
      "v": 59
    },
    {
      "midi": 67,
      "hit": false,
      "t": 126136.2375,
      "d": 681.8175000000047,
      "v": 62
    },
    {
      "midi": 71,
      "hit": false,
      "t": 126136.2375,
      "d": 681.8175000000047,
      "v": 62
    },
    {
      "midi": 55,
      "hit": false,
      "t": 126136.2375000007,
      "d": 454.54499999999825,
      "v": 59
    },
    {
      "midi": 59,
      "hit": false,
      "t": 126136.2375000007,
      "d": 454.54499999999825,
      "v": 59
    },
    {
      "midi": 62,
      "hit": false,
      "t": 126136.2375000007,
      "d": 454.54499999999825,
      "v": 59
    },
    {
      "midi": 67,
      "hit": false,
      "t": 126136.2375000007,
      "d": 454.54499999999825,
      "v": 59
    },
    {
      "midi": 55,
      "hit": false,
      "t": 126590.7825000007,
      "d": 227.2725000000064,
      "v": 26
    },
    {
      "midi": 59,
      "hit": false,
      "t": 126590.7825000007,
      "d": 227.2725000000064,
      "v": 39
    },
    {
      "midi": 62,
      "hit": false,
      "t": 126590.7825000007,
      "d": 227.2725000000064,
      "v": 38
    },
    {
      "midi": 67,
      "hit": false,
      "t": 126590.7825000007,
      "d": 227.2725000000064,
      "v": 20
    },
    {
      "midi": 55,
      "hit": false,
      "t": 126818.0550000007,
      "d": 227.2725000000064,
      "v": 11
    },
    {
      "midi": 59,
      "hit": false,
      "t": 126818.0550000007,
      "d": 227.2725000000064,
      "v": 26
    },
    {
      "midi": 62,
      "hit": false,
      "t": 126818.0550000007,
      "d": 227.2725000000064,
      "v": 29
    },
    {
      "midi": 67,
      "hit": false,
      "t": 126818.0550000007,
      "d": 227.2725000000064,
      "v": 11
    },
    {
      "midi": 55,
      "hit": false,
      "t": 127045.32750000071,
      "d": 227.2725000000064,
      "v": 36
    },
    {
      "midi": 59,
      "hit": false,
      "t": 127045.32750000071,
      "d": 227.2725000000064,
      "v": 50
    },
    {
      "midi": 62,
      "hit": false,
      "t": 127045.32750000071,
      "d": 227.2725000000064,
      "v": 49
    },
    {
      "midi": 67,
      "hit": false,
      "t": 127045.32750000071,
      "d": 227.2725000000064,
      "v": 40
    },
    {
      "midi": 64,
      "hit": false,
      "t": 127272.6,
      "d": 227.2725000000064,
      "v": 62
    },
    {
      "midi": 55,
      "hit": false,
      "t": 127272.60000000072,
      "d": 227.2725000000064,
      "v": 35
    },
    {
      "midi": 59,
      "hit": false,
      "t": 127272.60000000072,
      "d": 227.2725000000064,
      "v": 50
    },
    {
      "midi": 62,
      "hit": false,
      "t": 127272.60000000072,
      "d": 227.2725000000064,
      "v": 50
    },
    {
      "midi": 67,
      "hit": false,
      "t": 127272.60000000072,
      "d": 227.2725000000064,
      "v": 34
    },
    {
      "midi": 62,
      "hit": false,
      "t": 127499.87250000001,
      "d": 454.54499999999825,
      "v": 62
    },
    {
      "midi": 55,
      "hit": false,
      "t": 127499.87250000073,
      "d": 227.2725000000064,
      "v": 28
    },
    {
      "midi": 59,
      "hit": false,
      "t": 127499.87250000073,
      "d": 227.2725000000064,
      "v": 46
    },
    {
      "midi": 62,
      "hit": false,
      "t": 127499.87250000073,
      "d": 227.2725000000064,
      "v": 45
    },
    {
      "midi": 67,
      "hit": false,
      "t": 127499.87250000073,
      "d": 227.2725000000064,
      "v": 25
    },
    {
      "midi": 55,
      "hit": false,
      "t": 127727.14500000073,
      "d": 227.2725000000064,
      "v": 31
    },
    {
      "midi": 59,
      "hit": false,
      "t": 127727.14500000073,
      "d": 227.2725000000064,
      "v": 43
    },
    {
      "midi": 62,
      "hit": false,
      "t": 127727.14500000073,
      "d": 227.2725000000064,
      "v": 47
    },
    {
      "midi": 67,
      "hit": false,
      "t": 127727.14500000073,
      "d": 227.2725000000064,
      "v": 22
    },
    {
      "midi": 67,
      "hit": false,
      "t": 127954.41750000001,
      "d": 681.8175000000047,
      "v": 62
    },
    {
      "midi": 55,
      "hit": false,
      "t": 127954.41750000074,
      "d": 227.2725000000064,
      "v": 25
    },
    {
      "midi": 59,
      "hit": false,
      "t": 127954.41750000074,
      "d": 227.2725000000064,
      "v": 45
    },
    {
      "midi": 62,
      "hit": false,
      "t": 127954.41750000074,
      "d": 227.2725000000064,
      "v": 39
    },
    {
      "midi": 67,
      "hit": false,
      "t": 127954.41750000074,
      "d": 227.2725000000064,
      "v": 12
    },
    {
      "midi": 55,
      "hit": false,
      "t": 128181.69000000074,
      "d": 227.2725000000064,
      "v": 36
    },
    {
      "midi": 60,
      "hit": false,
      "t": 128181.69000000074,
      "d": 227.2725000000064,
      "v": 54
    },
    {
      "midi": 62,
      "hit": false,
      "t": 128181.69000000074,
      "d": 227.2725000000064,
      "v": 51
    },
    {
      "midi": 67,
      "hit": false,
      "t": 128181.69000000074,
      "d": 227.2725000000064,
      "v": 41
    },
    {
      "midi": 55,
      "hit": false,
      "t": 128408.96250000075,
      "d": 227.2725000000064,
      "v": 37
    },
    {
      "midi": 60,
      "hit": false,
      "t": 128408.96250000075,
      "d": 227.2725000000064,
      "v": 52
    },
    {
      "midi": 62,
      "hit": false,
      "t": 128408.96250000075,
      "d": 227.2725000000064,
      "v": 53
    },
    {
      "midi": 67,
      "hit": false,
      "t": 128408.96250000075,
      "d": 227.2725000000064,
      "v": 26
    },
    {
      "midi": 71,
      "hit": false,
      "t": 128636.23500000002,
      "d": 227.2725000000064,
      "v": 62
    },
    {
      "midi": 55,
      "hit": false,
      "t": 128636.23500000076,
      "d": 227.2725000000064,
      "v": 37
    },
    {
      "midi": 60,
      "hit": false,
      "t": 128636.23500000076,
      "d": 227.2725000000064,
      "v": 50
    },
    {
      "midi": 62,
      "hit": false,
      "t": 128636.23500000076,
      "d": 227.2725000000064,
      "v": 52
    },
    {
      "midi": 67,
      "hit": false,
      "t": 128636.23500000076,
      "d": 227.2725000000064,
      "v": 41
    },
    {
      "midi": 71,
      "hit": false,
      "t": 128863.50750000002,
      "d": 1136.362500000003,
      "v": 62
    },
    {
      "midi": 55,
      "hit": false,
      "t": 128863.50750000076,
      "d": 227.2725000000064,
      "v": 43
    },
    {
      "midi": 60,
      "hit": false,
      "t": 128863.50750000076,
      "d": 227.2725000000064,
      "v": 50
    },
    {
      "midi": 62,
      "hit": false,
      "t": 128863.50750000076,
      "d": 227.2725000000064,
      "v": 54
    },
    {
      "midi": 67,
      "hit": false,
      "t": 128863.50750000076,
      "d": 227.2725000000064,
      "v": 38
    },
    {
      "midi": 55,
      "hit": false,
      "t": 129090.78000000077,
      "d": 227.2725000000064,
      "v": 43
    },
    {
      "midi": 59,
      "hit": false,
      "t": 129090.78000000077,
      "d": 227.2725000000064,
      "v": 49
    },
    {
      "midi": 62,
      "hit": false,
      "t": 129090.78000000077,
      "d": 227.2725000000064,
      "v": 57
    },
    {
      "midi": 67,
      "hit": false,
      "t": 129090.78000000077,
      "d": 227.2725000000064,
      "v": 27
    },
    {
      "midi": 55,
      "hit": false,
      "t": 129318.05250000078,
      "d": 227.2725000000064,
      "v": 31
    },
    {
      "midi": 59,
      "hit": false,
      "t": 129318.05250000078,
      "d": 227.2725000000064,
      "v": 41
    },
    {
      "midi": 62,
      "hit": false,
      "t": 129318.05250000078,
      "d": 227.2725000000064,
      "v": 50
    },
    {
      "midi": 67,
      "hit": false,
      "t": 129318.05250000078,
      "d": 227.2725000000064,
      "v": 17
    },
    {
      "midi": 55,
      "hit": false,
      "t": 129545.32500000078,
      "d": 227.2725000000064,
      "v": 37
    },
    {
      "midi": 59,
      "hit": false,
      "t": 129545.32500000078,
      "d": 227.2725000000064,
      "v": 49
    },
    {
      "midi": 62,
      "hit": false,
      "t": 129545.32500000078,
      "d": 227.2725000000064,
      "v": 51
    },
    {
      "midi": 67,
      "hit": false,
      "t": 129545.32500000078,
      "d": 227.2725000000064,
      "v": 24
    },
    {
      "midi": 55,
      "hit": false,
      "t": 129772.59750000079,
      "d": 227.2725000000064,
      "v": 39
    },
    {
      "midi": 59,
      "hit": false,
      "t": 129772.59750000079,
      "d": 227.2725000000064,
      "v": 53
    },
    {
      "midi": 62,
      "hit": false,
      "t": 129772.59750000079,
      "d": 227.2725000000064,
      "v": 55
    },
    {
      "midi": 67,
      "hit": false,
      "t": 129772.59750000079,
      "d": 227.2725000000064,
      "v": 33
    },
    {
      "midi": 55,
      "hit": false,
      "t": 129999.8700000008,
      "d": 227.2725000000064,
      "v": 37
    },
    {
      "midi": 59,
      "hit": false,
      "t": 129999.8700000008,
      "d": 227.2725000000064,
      "v": 48
    },
    {
      "midi": 62,
      "hit": false,
      "t": 129999.8700000008,
      "d": 227.2725000000064,
      "v": 54
    },
    {
      "midi": 67,
      "hit": false,
      "t": 129999.8700000008,
      "d": 227.2725000000064,
      "v": 33
    },
    {
      "midi": 55,
      "hit": false,
      "t": 130227.1425000008,
      "d": 227.2725000000064,
      "v": 40
    },
    {
      "midi": 59,
      "hit": false,
      "t": 130227.1425000008,
      "d": 227.2725000000064,
      "v": 54
    },
    {
      "midi": 62,
      "hit": false,
      "t": 130227.1425000008,
      "d": 227.2725000000064,
      "v": 55
    },
    {
      "midi": 67,
      "hit": false,
      "t": 130227.1425000008,
      "d": 227.2725000000064,
      "v": 33
    },
    {
      "midi": 55,
      "hit": false,
      "t": 130454.41500000081,
      "d": 227.2725000000064,
      "v": 37
    },
    {
      "midi": 59,
      "hit": false,
      "t": 130454.41500000081,
      "d": 227.2725000000064,
      "v": 52
    },
    {
      "midi": 62,
      "hit": false,
      "t": 130454.41500000081,
      "d": 227.2725000000064,
      "v": 56
    },
    {
      "midi": 67,
      "hit": false,
      "t": 130454.41500000081,
      "d": 227.2725000000064,
      "v": 74
    },
    {
      "midi": 55,
      "hit": false,
      "t": 130681.68750000081,
      "d": 227.2725000000064,
      "v": 41
    },
    {
      "midi": 59,
      "hit": false,
      "t": 130681.68750000081,
      "d": 227.2725000000064,
      "v": 56
    },
    {
      "midi": 62,
      "hit": false,
      "t": 130681.68750000081,
      "d": 227.2725000000064,
      "v": 54
    },
    {
      "midi": 67,
      "hit": false,
      "t": 130681.68750000081,
      "d": 227.2725000000064,
      "v": 44
    },
    {
      "midi": 62,
      "hit": false,
      "t": 130908.96000000002,
      "d": 227.27249999999185,
      "v": 62
    },
    {
      "midi": 55,
      "hit": false,
      "t": 130908.96000000082,
      "d": 227.2725000000064,
      "v": 43
    },
    {
      "midi": 59,
      "hit": false,
      "t": 130908.96000000082,
      "d": 227.2725000000064,
      "v": 52
    },
    {
      "midi": 62,
      "hit": false,
      "t": 130908.96000000082,
      "d": 227.2725000000064,
      "v": 54
    },
    {
      "midi": 67,
      "hit": false,
      "t": 130908.96000000082,
      "d": 227.2725000000064,
      "v": 33
    },
    {
      "midi": 74,
      "hit": false,
      "t": 131136.2325,
      "d": 454.5450000000128,
      "v": 62
    },
    {
      "midi": 79,
      "hit": false,
      "t": 131136.2325,
      "d": 454.5450000000128,
      "v": 62
    },
    {
      "midi": 55,
      "hit": false,
      "t": 131136.23250000083,
      "d": 227.27249999999185,
      "v": 32
    },
    {
      "midi": 59,
      "hit": false,
      "t": 131136.23250000083,
      "d": 227.27249999999185,
      "v": 50
    },
    {
      "midi": 62,
      "hit": false,
      "t": 131136.23250000083,
      "d": 227.27249999999185,
      "v": 51
    },
    {
      "midi": 67,
      "hit": false,
      "t": 131136.23250000083,
      "d": 227.27249999999185,
      "v": 35
    },
    {
      "midi": 55,
      "hit": false,
      "t": 131363.50500000082,
      "d": 227.27249999999185,
      "v": 40
    },
    {
      "midi": 59,
      "hit": false,
      "t": 131363.50500000082,
      "d": 227.27249999999185,
      "v": 47
    },
    {
      "midi": 62,
      "hit": false,
      "t": 131363.50500000082,
      "d": 227.27249999999185,
      "v": 51
    },
    {
      "midi": 67,
      "hit": false,
      "t": 131363.50500000082,
      "d": 227.27249999999185,
      "v": 31
    },
    {
      "midi": 72,
      "hit": false,
      "t": 131590.77750000003,
      "d": 454.5450000000128,
      "v": 62
    },
    {
      "midi": 76,
      "hit": false,
      "t": 131590.77750000003,
      "d": 454.5450000000128,
      "v": 62
    },
    {
      "midi": 55,
      "hit": false,
      "t": 131590.7775000008,
      "d": 227.27249999999185,
      "v": 37
    },
    {
      "midi": 59,
      "hit": false,
      "t": 131590.7775000008,
      "d": 227.27249999999185,
      "v": 46
    },
    {
      "midi": 62,
      "hit": false,
      "t": 131590.7775000008,
      "d": 227.27249999999185,
      "v": 47
    },
    {
      "midi": 67,
      "hit": false,
      "t": 131590.7775000008,
      "d": 227.27249999999185,
      "v": 30
    },
    {
      "midi": 55,
      "hit": false,
      "t": 131818.0500000008,
      "d": 227.27249999999185,
      "v": 40
    },
    {
      "midi": 60,
      "hit": false,
      "t": 131818.0500000008,
      "d": 227.27249999999185,
      "v": 51
    },
    {
      "midi": 62,
      "hit": false,
      "t": 131818.0500000008,
      "d": 227.27249999999185,
      "v": 55
    },
    {
      "midi": 67,
      "hit": false,
      "t": 131818.0500000008,
      "d": 227.27249999999185,
      "v": 36
    },
    {
      "midi": 71,
      "hit": false,
      "t": 132045.32250000004,
      "d": 454.5450000000128,
      "v": 62
    },
    {
      "midi": 74,
      "hit": false,
      "t": 132045.32250000004,
      "d": 454.5450000000128,
      "v": 62
    },
    {
      "midi": 55,
      "hit": false,
      "t": 132045.3225000008,
      "d": 227.27249999999185,
      "v": 36
    },
    {
      "midi": 60,
      "hit": false,
      "t": 132045.3225000008,
      "d": 227.27249999999185,
      "v": 47
    },
    {
      "midi": 62,
      "hit": false,
      "t": 132045.3225000008,
      "d": 227.27249999999185,
      "v": 47
    },
    {
      "midi": 67,
      "hit": false,
      "t": 132045.3225000008,
      "d": 227.27249999999185,
      "v": 22
    },
    {
      "midi": 55,
      "hit": false,
      "t": 132272.5950000008,
      "d": 227.27249999999185,
      "v": 41
    },
    {
      "midi": 60,
      "hit": false,
      "t": 132272.5950000008,
      "d": 227.27249999999185,
      "v": 55
    },
    {
      "midi": 62,
      "hit": false,
      "t": 132272.5950000008,
      "d": 227.27249999999185,
      "v": 55
    },
    {
      "midi": 67,
      "hit": false,
      "t": 132272.5950000008,
      "d": 227.27249999999185,
      "v": 44
    },
    {
      "midi": 69,
      "hit": false,
      "t": 132499.86750000005,
      "d": 454.5450000000128,
      "v": 62
    },
    {
      "midi": 72,
      "hit": false,
      "t": 132499.86750000005,
      "d": 454.5450000000128,
      "v": 62
    },
    {
      "midi": 50,
      "hit": false,
      "t": 132499.86750000078,
      "d": 454.5450000000128,
      "v": 55
    },
    {
      "midi": 54,
      "hit": false,
      "t": 132499.86750000078,
      "d": 454.5450000000128,
      "v": 55
    },
    {
      "midi": 57,
      "hit": false,
      "t": 132499.86750000078,
      "d": 454.5450000000128,
      "v": 55
    },
    {
      "midi": 62,
      "hit": false,
      "t": 132499.86750000078,
      "d": 454.5450000000128,
      "v": 55
    },
    {
      "midi": 67,
      "hit": false,
      "t": 132954.41250000006,
      "d": 454.5450000000128,
      "v": 62
    },
    {
      "midi": 71,
      "hit": false,
      "t": 132954.41250000006,
      "d": 454.5450000000128,
      "v": 62
    },
    {
      "midi": 50,
      "hit": false,
      "t": 132954.4125000008,
      "d": 227.27249999999185,
      "v": 55
    },
    {
      "midi": 54,
      "hit": false,
      "t": 132954.4125000008,
      "d": 227.27249999999185,
      "v": 55
    },
    {
      "midi": 57,
      "hit": false,
      "t": 132954.4125000008,
      "d": 227.27249999999185,
      "v": 55
    },
    {
      "midi": 62,
      "hit": false,
      "t": 132954.4125000008,
      "d": 227.27249999999185,
      "v": 55
    },
    {
      "midi": 66,
      "hit": false,
      "t": 132954.4125000008,
      "d": 227.27249999999185,
      "v": 55
    },
    {
      "midi": 50,
      "hit": false,
      "t": 133181.68500000078,
      "d": 227.27249999999185,
      "v": 55
    },
    {
      "midi": 54,
      "hit": false,
      "t": 133181.68500000078,
      "d": 227.27249999999185,
      "v": 55
    },
    {
      "midi": 57,
      "hit": false,
      "t": 133181.68500000078,
      "d": 227.27249999999185,
      "v": 55
    },
    {
      "midi": 62,
      "hit": false,
      "t": 133181.68500000078,
      "d": 227.27249999999185,
      "v": 55
    },
    {
      "midi": 66,
      "hit": false,
      "t": 133181.68500000078,
      "d": 227.27249999999185,
      "v": 55
    },
    {
      "midi": 67,
      "hit": false,
      "t": 133408.95750000008,
      "d": 681.8175000000047,
      "v": 62
    },
    {
      "midi": 71,
      "hit": false,
      "t": 133408.95750000008,
      "d": 681.8175000000047,
      "v": 62
    },
    {
      "midi": 43,
      "hit": false,
      "t": 133408.95750000078,
      "d": 454.5450000000128,
      "v": 55
    },
    {
      "midi": 47,
      "hit": false,
      "t": 133408.95750000078,
      "d": 454.5450000000128,
      "v": 55
    },
    {
      "midi": 50,
      "hit": false,
      "t": 133408.95750000078,
      "d": 454.5450000000128,
      "v": 55
    },
    {
      "midi": 55,
      "hit": false,
      "t": 133408.95750000078,
      "d": 454.5450000000128,
      "v": 55
    },
    {
      "midi": 59,
      "hit": false,
      "t": 133408.95750000078,
      "d": 454.5450000000128,
      "v": 55
    },
    {
      "midi": 62,
      "hit": false,
      "t": 133408.95750000078,
      "d": 454.5450000000128,
      "v": 55
    },
    {
      "midi": 67,
      "hit": false,
      "t": 133408.95750000078,
      "d": 454.5450000000128,
      "v": 55
    },
    {
      "midi": 50,
      "hit": false,
      "t": 133863.5025000008,
      "d": 227.27249999999185,
      "v": 55
    },
    {
      "midi": 55,
      "hit": false,
      "t": 133863.5025000008,
      "d": 227.27249999999185,
      "v": 55
    },
    {
      "midi": 59,
      "hit": false,
      "t": 133863.5025000008,
      "d": 227.27249999999185,
      "v": 55
    },
    {
      "midi": 62,
      "hit": false,
      "t": 133863.5025000008,
      "d": 227.27249999999185,
      "v": 55
    },
    {
      "midi": 67,
      "hit": false,
      "t": 133863.5025000008,
      "d": 227.27249999999185,
      "v": 55
    },
    {
      "midi": 50,
      "hit": false,
      "t": 134090.77500000078,
      "d": 227.27249999999185,
      "v": 55
    },
    {
      "midi": 55,
      "hit": false,
      "t": 134090.77500000078,
      "d": 227.27249999999185,
      "v": 55
    },
    {
      "midi": 59,
      "hit": false,
      "t": 134090.77500000078,
      "d": 227.27249999999185,
      "v": 55
    },
    {
      "midi": 62,
      "hit": false,
      "t": 134090.77500000078,
      "d": 227.27249999999185,
      "v": 55
    },
    {
      "midi": 67,
      "hit": false,
      "t": 134090.77500000078,
      "d": 227.27249999999185,
      "v": 55
    },
    {
      "midi": 50,
      "hit": false,
      "t": 134318.04750000077,
      "d": 227.27249999999185,
      "v": 55
    },
    {
      "midi": 59,
      "hit": false,
      "t": 134318.04750000077,
      "d": 227.27249999999185,
      "v": 55
    },
    {
      "midi": 62,
      "hit": false,
      "t": 134318.04750000077,
      "d": 227.27249999999185,
      "v": 55
    },
    {
      "midi": 67,
      "hit": false,
      "t": 134318.04750000077,
      "d": 227.27249999999185,
      "v": 55
    },
    {
      "midi": 69,
      "hit": false,
      "t": 134545.3200000001,
      "d": 227.27249999999185,
      "v": 62
    },
    {
      "midi": 48,
      "hit": false,
      "t": 134545.32000000076,
      "d": 227.27249999999185,
      "v": 55
    },
    {
      "midi": 52,
      "hit": false,
      "t": 134545.32000000076,
      "d": 227.27249999999185,
      "v": 55
    },
    {
      "midi": 55,
      "hit": false,
      "t": 134545.32000000076,
      "d": 227.27249999999185,
      "v": 55
    },
    {
      "midi": 60,
      "hit": false,
      "t": 134545.32000000076,
      "d": 227.27249999999185,
      "v": 55
    },
    {
      "midi": 62,
      "hit": false,
      "t": 134545.32000000076,
      "d": 227.27249999999185,
      "v": 55
    },
    {
      "midi": 67,
      "hit": false,
      "t": 134545.32000000076,
      "d": 227.27249999999185,
      "v": 55
    },
    {
      "midi": 67,
      "hit": false,
      "t": 134772.5925000001,
      "d": 454.5450000000128,
      "v": 62
    },
    {
      "midi": 48,
      "hit": false,
      "t": 134772.59250000076,
      "d": 227.27249999999185,
      "v": 55
    },
    {
      "midi": 52,
      "hit": false,
      "t": 134772.59250000076,
      "d": 227.27249999999185,
      "v": 55
    },
    {
      "midi": 55,
      "hit": false,
      "t": 134772.59250000076,
      "d": 227.27249999999185,
      "v": 55
    },
    {
      "midi": 60,
      "hit": false,
      "t": 134772.59250000076,
      "d": 227.27249999999185,
      "v": 55
    },
    {
      "midi": 62,
      "hit": false,
      "t": 134772.59250000076,
      "d": 227.27249999999185,
      "v": 55
    },
    {
      "midi": 67,
      "hit": false,
      "t": 134772.59250000076,
      "d": 227.27249999999185,
      "v": 55
    },
    {
      "midi": 48,
      "hit": false,
      "t": 134999.86500000075,
      "d": 227.27249999999185,
      "v": 55
    },
    {
      "midi": 52,
      "hit": false,
      "t": 134999.86500000075,
      "d": 227.27249999999185,
      "v": 55
    },
    {
      "midi": 55,
      "hit": false,
      "t": 134999.86500000075,
      "d": 227.27249999999185,
      "v": 55
    },
    {
      "midi": 60,
      "hit": false,
      "t": 134999.86500000075,
      "d": 227.27249999999185,
      "v": 55
    },
    {
      "midi": 62,
      "hit": false,
      "t": 134999.86500000075,
      "d": 227.27249999999185,
      "v": 55
    },
    {
      "midi": 67,
      "hit": false,
      "t": 134999.86500000075,
      "d": 227.27249999999185,
      "v": 55
    },
    {
      "midi": 70,
      "hit": false,
      "t": 135227.1375000001,
      "d": 227.27249999999185,
      "v": 62
    },
    {
      "midi": 50,
      "hit": false,
      "t": 135227.13750000074,
      "d": 454.5450000000128,
      "v": 55
    },
    {
      "midi": 54,
      "hit": false,
      "t": 135227.13750000074,
      "d": 454.5450000000128,
      "v": 55
    },
    {
      "midi": 57,
      "hit": false,
      "t": 135227.13750000074,
      "d": 454.5450000000128,
      "v": 55
    },
    {
      "midi": 62,
      "hit": false,
      "t": 135227.13750000074,
      "d": 454.5450000000128,
      "v": 55
    },
    {
      "midi": 66,
      "hit": false,
      "t": 135227.13750000074,
      "d": 454.5450000000128,
      "v": 55
    },
    {
      "midi": 69,
      "hit": false,
      "t": 135454.4100000001,
      "d": 227.27249999999185,
      "v": 62
    },
    {
      "midi": 67,
      "hit": false,
      "t": 135681.68250000008,
      "d": 454.5450000000128,
      "v": 62
    },
    {
      "midi": 50,
      "hit": false,
      "t": 135681.68250000075,
      "d": 227.27249999999185,
      "v": 55
    },
    {
      "midi": 54,
      "hit": false,
      "t": 135681.68250000075,
      "d": 227.27249999999185,
      "v": 55
    },
    {
      "midi": 57,
      "hit": false,
      "t": 135681.68250000075,
      "d": 227.27249999999185,
      "v": 55
    },
    {
      "midi": 62,
      "hit": false,
      "t": 135681.68250000075,
      "d": 227.27249999999185,
      "v": 55
    },
    {
      "midi": 66,
      "hit": false,
      "t": 135681.68250000075,
      "d": 227.27249999999185,
      "v": 55
    },
    {
      "midi": 50,
      "hit": false,
      "t": 135908.95500000074,
      "d": 227.27249999999185,
      "v": 55
    },
    {
      "midi": 57,
      "hit": false,
      "t": 135908.95500000074,
      "d": 227.27249999999185,
      "v": 55
    },
    {
      "midi": 62,
      "hit": false,
      "t": 135908.95500000074,
      "d": 227.27249999999185,
      "v": 55
    },
    {
      "midi": 66,
      "hit": false,
      "t": 135908.95500000074,
      "d": 227.27249999999185,
      "v": 55
    },
    {
      "midi": 67,
      "hit": false,
      "t": 136136.2275000001,
      "d": 1136.3624999999884,
      "v": 62
    },
    {
      "midi": 43,
      "hit": false,
      "t": 136136.22750000074,
      "d": 454.5450000000128,
      "v": 55
    },
    {
      "midi": 47,
      "hit": false,
      "t": 136136.22750000074,
      "d": 454.5450000000128,
      "v": 55
    },
    {
      "midi": 50,
      "hit": false,
      "t": 136136.22750000074,
      "d": 454.5450000000128,
      "v": 55
    },
    {
      "midi": 55,
      "hit": false,
      "t": 136136.22750000074,
      "d": 454.5450000000128,
      "v": 55
    },
    {
      "midi": 62,
      "hit": false,
      "t": 136136.22750000074,
      "d": 454.5450000000128,
      "v": 55
    },
    {
      "midi": 67,
      "hit": false,
      "t": 136136.22750000074,
      "d": 454.5450000000128,
      "v": 61
    },
    {
      "midi": 43,
      "hit": false,
      "t": 136590.77250000075,
      "d": 227.27249999999185,
      "v": 55
    },
    {
      "midi": 47,
      "hit": false,
      "t": 136590.77250000075,
      "d": 227.27249999999185,
      "v": 55
    },
    {
      "midi": 50,
      "hit": false,
      "t": 136590.77250000075,
      "d": 227.27249999999185,
      "v": 55
    },
    {
      "midi": 55,
      "hit": false,
      "t": 136590.77250000075,
      "d": 227.27249999999185,
      "v": 55
    },
    {
      "midi": 62,
      "hit": false,
      "t": 136590.77250000075,
      "d": 227.27249999999185,
      "v": 55
    },
    {
      "midi": 67,
      "hit": false,
      "t": 136590.77250000075,
      "d": 227.27249999999185,
      "v": 55
    },
    {
      "midi": 43,
      "hit": false,
      "t": 136818.04500000074,
      "d": 681.8175000000047,
      "v": 55
    },
    {
      "midi": 47,
      "hit": false,
      "t": 136818.04500000074,
      "d": 681.8175000000047,
      "v": 55
    },
    {
      "midi": 50,
      "hit": false,
      "t": 136818.04500000074,
      "d": 681.8175000000047,
      "v": 55
    },
    {
      "midi": 55,
      "hit": false,
      "t": 136818.04500000074,
      "d": 681.8175000000047,
      "v": 55
    },
    {
      "midi": 62,
      "hit": false,
      "t": 136818.04500000074,
      "d": 681.8175000000047,
      "v": 55
    },
    {
      "midi": 67,
      "hit": false,
      "t": 136818.04500000074,
      "d": 681.8175000000047,
      "v": 55
    },
    {
      "midi": 43,
      "hit": false,
      "t": 137499.86250000075,
      "d": 227.27249999999185,
      "v": 55
    },
    {
      "midi": 47,
      "hit": false,
      "t": 137499.86250000075,
      "d": 227.27249999999185,
      "v": 55
    },
    {
      "midi": 50,
      "hit": false,
      "t": 137499.86250000075,
      "d": 227.27249999999185,
      "v": 55
    },
    {
      "midi": 55,
      "hit": false,
      "t": 137499.86250000075,
      "d": 227.27249999999185,
      "v": 55
    },
    {
      "midi": 62,
      "hit": false,
      "t": 137499.86250000075,
      "d": 227.27249999999185,
      "v": 55
    },
    {
      "midi": 67,
      "hit": false,
      "t": 137499.86250000075,
      "d": 227.27249999999185,
      "v": 55
    },
    {
      "midi": 43,
      "hit": false,
      "t": 137727.13500000074,
      "d": 227.27249999999185,
      "v": 55
    },
    {
      "midi": 47,
      "hit": false,
      "t": 137727.13500000074,
      "d": 227.27249999999185,
      "v": 55
    },
    {
      "midi": 50,
      "hit": false,
      "t": 137727.13500000074,
      "d": 227.27249999999185,
      "v": 55
    },
    {
      "midi": 55,
      "hit": false,
      "t": 137727.13500000074,
      "d": 227.27249999999185,
      "v": 55
    },
    {
      "midi": 62,
      "hit": false,
      "t": 137727.13500000074,
      "d": 227.27249999999185,
      "v": 55
    },
    {
      "midi": 67,
      "hit": false,
      "t": 137727.13500000074,
      "d": 227.27249999999185,
      "v": 55
    },
    {
      "midi": 43,
      "hit": false,
      "t": 137954.40750000073,
      "d": 227.27249999999185,
      "v": 55
    },
    {
      "midi": 47,
      "hit": false,
      "t": 137954.40750000073,
      "d": 227.27249999999185,
      "v": 55
    },
    {
      "midi": 50,
      "hit": false,
      "t": 137954.40750000073,
      "d": 227.27249999999185,
      "v": 55
    },
    {
      "midi": 55,
      "hit": false,
      "t": 137954.40750000073,
      "d": 227.27249999999185,
      "v": 55
    },
    {
      "midi": 62,
      "hit": false,
      "t": 137954.40750000073,
      "d": 227.27249999999185,
      "v": 55
    },
    {
      "midi": 67,
      "hit": false,
      "t": 137954.40750000073,
      "d": 227.27249999999185,
      "v": 55
    },
    {
      "midi": 69,
      "hit": false,
      "t": 138181.68000000008,
      "d": 227.27249999999185,
      "v": 62
    },
    {
      "midi": 48,
      "hit": false,
      "t": 138181.68000000072,
      "d": 227.27249999999185,
      "v": 59
    },
    {
      "midi": 52,
      "hit": false,
      "t": 138181.68000000072,
      "d": 227.27249999999185,
      "v": 59
    },
    {
      "midi": 55,
      "hit": false,
      "t": 138181.68000000072,
      "d": 227.27249999999185,
      "v": 59
    },
    {
      "midi": 62,
      "hit": false,
      "t": 138181.68000000072,
      "d": 227.27249999999185,
      "v": 59
    },
    {
      "midi": 67,
      "hit": false,
      "t": 138181.68000000072,
      "d": 227.27249999999185,
      "v": 59
    },
    {
      "midi": 67,
      "hit": false,
      "t": 138390.01312500008,
      "d": 454.5449999999837,
      "v": 62
    },
    {
      "midi": 48,
      "hit": false,
      "t": 138408.9525000007,
      "d": 227.27249999999185,
      "v": 59
    },
    {
      "midi": 52,
      "hit": false,
      "t": 138408.9525000007,
      "d": 227.27249999999185,
      "v": 59
    },
    {
      "midi": 55,
      "hit": false,
      "t": 138408.9525000007,
      "d": 227.27249999999185,
      "v": 59
    },
    {
      "midi": 62,
      "hit": false,
      "t": 138408.9525000007,
      "d": 227.27249999999185,
      "v": 59
    },
    {
      "midi": 67,
      "hit": false,
      "t": 138408.9525000007,
      "d": 227.27249999999185,
      "v": 59
    },
    {
      "midi": 48,
      "hit": false,
      "t": 138636.2250000007,
      "d": 227.27249999999185,
      "v": 59
    },
    {
      "midi": 52,
      "hit": false,
      "t": 138636.2250000007,
      "d": 227.27249999999185,
      "v": 59
    },
    {
      "midi": 55,
      "hit": false,
      "t": 138636.2250000007,
      "d": 227.27249999999185,
      "v": 59
    },
    {
      "midi": 62,
      "hit": false,
      "t": 138636.2250000007,
      "d": 227.27249999999185,
      "v": 59
    },
    {
      "midi": 67,
      "hit": false,
      "t": 138636.2250000007,
      "d": 227.27249999999185,
      "v": 59
    },
    {
      "midi": 64,
      "hit": false,
      "t": 138835.08843750006,
      "d": 454.5450000000128,
      "v": 62
    },
    {
      "midi": 48,
      "hit": false,
      "t": 138863.4975000007,
      "d": 227.27249999999185,
      "v": 59
    },
    {
      "midi": 52,
      "hit": false,
      "t": 138863.4975000007,
      "d": 227.27249999999185,
      "v": 59
    },
    {
      "midi": 55,
      "hit": false,
      "t": 138863.4975000007,
      "d": 227.27249999999185,
      "v": 59
    },
    {
      "midi": 62,
      "hit": false,
      "t": 138863.4975000007,
      "d": 227.27249999999185,
      "v": 59
    },
    {
      "midi": 67,
      "hit": false,
      "t": 138863.4975000007,
      "d": 227.27249999999185,
      "v": 59
    },
    {
      "midi": 48,
      "hit": false,
      "t": 139090.7700000007,
      "d": 227.27249999999185,
      "v": 59
    },
    {
      "midi": 52,
      "hit": false,
      "t": 139090.7700000007,
      "d": 227.27249999999185,
      "v": 59
    },
    {
      "midi": 55,
      "hit": false,
      "t": 139090.7700000007,
      "d": 227.27249999999185,
      "v": 59
    },
    {
      "midi": 62,
      "hit": false,
      "t": 139090.7700000007,
      "d": 227.27249999999185,
      "v": 59
    },
    {
      "midi": 67,
      "hit": false,
      "t": 139090.7700000007,
      "d": 227.27249999999185,
      "v": 59
    },
    {
      "midi": 48,
      "hit": false,
      "t": 139318.04250000068,
      "d": 227.27249999999185,
      "v": 59
    },
    {
      "midi": 52,
      "hit": false,
      "t": 139318.04250000068,
      "d": 227.27249999999185,
      "v": 59
    },
    {
      "midi": 55,
      "hit": false,
      "t": 139318.04250000068,
      "d": 227.27249999999185,
      "v": 59
    },
    {
      "midi": 62,
      "hit": false,
      "t": 139318.04250000068,
      "d": 227.27249999999185,
      "v": 59
    },
    {
      "midi": 67,
      "hit": false,
      "t": 139318.04250000068,
      "d": 227.27249999999185,
      "v": 59
    },
    {
      "midi": 60,
      "hit": false,
      "t": 139341.71671875007,
      "d": 454.5449999999837,
      "v": 62
    },
    {
      "midi": 48,
      "hit": false,
      "t": 139545.31500000067,
      "d": 227.27249999999185,
      "v": 59
    },
    {
      "midi": 52,
      "hit": false,
      "t": 139545.31500000067,
      "d": 227.27249999999185,
      "v": 59
    },
    {
      "midi": 55,
      "hit": false,
      "t": 139545.31500000067,
      "d": 227.27249999999185,
      "v": 59
    },
    {
      "midi": 62,
      "hit": false,
      "t": 139545.31500000067,
      "d": 227.27249999999185,
      "v": 59
    },
    {
      "midi": 67,
      "hit": false,
      "t": 139545.31500000067,
      "d": 227.27249999999185,
      "v": 59
    },
    {
      "midi": 62,
      "hit": false,
      "t": 139753.64812500007,
      "d": 909.0899999999965,
      "v": 62
    },
    {
      "midi": 48,
      "hit": false,
      "t": 139772.58750000066,
      "d": 227.27249999999185,
      "v": 59
    },
    {
      "midi": 52,
      "hit": false,
      "t": 139772.58750000066,
      "d": 227.27249999999185,
      "v": 59
    },
    {
      "midi": 55,
      "hit": false,
      "t": 139772.58750000066,
      "d": 227.27249999999185,
      "v": 59
    },
    {
      "midi": 62,
      "hit": false,
      "t": 139772.58750000066,
      "d": 227.27249999999185,
      "v": 59
    },
    {
      "midi": 67,
      "hit": false,
      "t": 139772.58750000066,
      "d": 227.27249999999185,
      "v": 59
    },
    {
      "midi": 43,
      "hit": false,
      "t": 139999.86000000066,
      "d": 227.27249999999185,
      "v": 59
    },
    {
      "midi": 47,
      "hit": false,
      "t": 139999.86000000066,
      "d": 227.27249999999185,
      "v": 59
    },
    {
      "midi": 50,
      "hit": false,
      "t": 139999.86000000066,
      "d": 227.27249999999185,
      "v": 59
    },
    {
      "midi": 55,
      "hit": false,
      "t": 139999.86000000066,
      "d": 227.27249999999185,
      "v": 59
    },
    {
      "midi": 62,
      "hit": false,
      "t": 139999.86000000066,
      "d": 227.27249999999185,
      "v": 59
    },
    {
      "midi": 67,
      "hit": false,
      "t": 139999.86000000066,
      "d": 227.27249999999185,
      "v": 59
    },
    {
      "midi": 43,
      "hit": false,
      "t": 140227.13250000065,
      "d": 227.27249999999185,
      "v": 59
    },
    {
      "midi": 47,
      "hit": false,
      "t": 140227.13250000065,
      "d": 227.27249999999185,
      "v": 59
    },
    {
      "midi": 50,
      "hit": false,
      "t": 140227.13250000065,
      "d": 227.27249999999185,
      "v": 59
    },
    {
      "midi": 55,
      "hit": false,
      "t": 140227.13250000065,
      "d": 227.27249999999185,
      "v": 59
    },
    {
      "midi": 62,
      "hit": false,
      "t": 140227.13250000065,
      "d": 227.27249999999185,
      "v": 59
    },
    {
      "midi": 67,
      "hit": false,
      "t": 140227.13250000065,
      "d": 227.27249999999185,
      "v": 59
    },
    {
      "midi": 43,
      "hit": false,
      "t": 140454.40500000064,
      "d": 227.27249999999185,
      "v": 59
    },
    {
      "midi": 47,
      "hit": false,
      "t": 140454.40500000064,
      "d": 227.27249999999185,
      "v": 59
    },
    {
      "midi": 50,
      "hit": false,
      "t": 140454.40500000064,
      "d": 227.27249999999185,
      "v": 59
    },
    {
      "midi": 55,
      "hit": false,
      "t": 140454.40500000064,
      "d": 227.27249999999185,
      "v": 59
    },
    {
      "midi": 62,
      "hit": false,
      "t": 140454.40500000064,
      "d": 227.27249999999185,
      "v": 59
    },
    {
      "midi": 67,
      "hit": false,
      "t": 140454.40500000064,
      "d": 227.27249999999185,
      "v": 59
    },
    {
      "midi": 62,
      "hit": false,
      "t": 140662.73812500006,
      "d": 681.8175000000047,
      "v": 62
    },
    {
      "midi": 43,
      "hit": false,
      "t": 140681.67750000063,
      "d": 227.27249999999185,
      "v": 59
    },
    {
      "midi": 47,
      "hit": false,
      "t": 140681.67750000063,
      "d": 227.27249999999185,
      "v": 59
    },
    {
      "midi": 50,
      "hit": false,
      "t": 140681.67750000063,
      "d": 227.27249999999185,
      "v": 59
    },
    {
      "midi": 55,
      "hit": false,
      "t": 140681.67750000063,
      "d": 227.27249999999185,
      "v": 59
    },
    {
      "midi": 62,
      "hit": false,
      "t": 140681.67750000063,
      "d": 227.27249999999185,
      "v": 59
    },
    {
      "midi": 67,
      "hit": false,
      "t": 140681.67750000063,
      "d": 227.27249999999185,
      "v": 59
    },
    {
      "midi": 43,
      "hit": false,
      "t": 140908.95000000062,
      "d": 227.27249999999185,
      "v": 59
    },
    {
      "midi": 47,
      "hit": false,
      "t": 140908.95000000062,
      "d": 227.27249999999185,
      "v": 59
    },
    {
      "midi": 50,
      "hit": false,
      "t": 140908.95000000062,
      "d": 227.27249999999185,
      "v": 59
    },
    {
      "midi": 55,
      "hit": false,
      "t": 140908.95000000062,
      "d": 227.27249999999185,
      "v": 59
    },
    {
      "midi": 62,
      "hit": false,
      "t": 140908.95000000062,
      "d": 227.27249999999185,
      "v": 59
    },
    {
      "midi": 67,
      "hit": false,
      "t": 140908.95000000062,
      "d": 227.27249999999185,
      "v": 59
    },
    {
      "midi": 43,
      "hit": false,
      "t": 141136.22250000061,
      "d": 227.27249999999185,
      "v": 59
    },
    {
      "midi": 47,
      "hit": false,
      "t": 141136.22250000061,
      "d": 227.27249999999185,
      "v": 59
    },
    {
      "midi": 50,
      "hit": false,
      "t": 141136.22250000061,
      "d": 227.27249999999185,
      "v": 59
    },
    {
      "midi": 55,
      "hit": false,
      "t": 141136.22250000061,
      "d": 227.27249999999185,
      "v": 59
    },
    {
      "midi": 62,
      "hit": false,
      "t": 141136.22250000061,
      "d": 227.27249999999185,
      "v": 59
    },
    {
      "midi": 67,
      "hit": false,
      "t": 141136.22250000061,
      "d": 227.27249999999185,
      "v": 59
    },
    {
      "midi": 43,
      "hit": false,
      "t": 141363.4950000006,
      "d": 227.27249999999185,
      "v": 59
    },
    {
      "midi": 47,
      "hit": false,
      "t": 141363.4950000006,
      "d": 227.27249999999185,
      "v": 59
    },
    {
      "midi": 50,
      "hit": false,
      "t": 141363.4950000006,
      "d": 227.27249999999185,
      "v": 59
    },
    {
      "midi": 55,
      "hit": false,
      "t": 141363.4950000006,
      "d": 227.27249999999185,
      "v": 59
    },
    {
      "midi": 62,
      "hit": false,
      "t": 141363.4950000006,
      "d": 227.27249999999185,
      "v": 59
    },
    {
      "midi": 67,
      "hit": false,
      "t": 141363.4950000006,
      "d": 227.27249999999185,
      "v": 59
    },
    {
      "midi": 43,
      "hit": false,
      "t": 141590.7675000006,
      "d": 227.27249999999185,
      "v": 59
    },
    {
      "midi": 47,
      "hit": false,
      "t": 141590.7675000006,
      "d": 227.27249999999185,
      "v": 59
    },
    {
      "midi": 50,
      "hit": false,
      "t": 141590.7675000006,
      "d": 227.27249999999185,
      "v": 59
    },
    {
      "midi": 55,
      "hit": false,
      "t": 141590.7675000006,
      "d": 227.27249999999185,
      "v": 59
    },
    {
      "midi": 62,
      "hit": false,
      "t": 141590.7675000006,
      "d": 227.27249999999185,
      "v": 59
    },
    {
      "midi": 67,
      "hit": false,
      "t": 141590.7675000006,
      "d": 227.27249999999185,
      "v": 59
    },
    {
      "midi": 69,
      "hit": false,
      "t": 141818.04000000007,
      "d": 227.27249999999185,
      "v": 62
    },
    {
      "midi": 48,
      "hit": false,
      "t": 141818.0400000006,
      "d": 227.27249999999185,
      "v": 59
    },
    {
      "midi": 52,
      "hit": false,
      "t": 141818.0400000006,
      "d": 227.27249999999185,
      "v": 59
    },
    {
      "midi": 55,
      "hit": false,
      "t": 141818.0400000006,
      "d": 227.27249999999185,
      "v": 59
    },
    {
      "midi": 62,
      "hit": false,
      "t": 141818.0400000006,
      "d": 227.27249999999185,
      "v": 59
    },
    {
      "midi": 67,
      "hit": false,
      "t": 141818.0400000006,
      "d": 227.27249999999185,
      "v": 59
    },
    {
      "midi": 67,
      "hit": false,
      "t": 142045.31250000006,
      "d": 454.5450000000128,
      "v": 62
    },
    {
      "midi": 48,
      "hit": false,
      "t": 142045.31250000058,
      "d": 227.27249999999185,
      "v": 59
    },
    {
      "midi": 52,
      "hit": false,
      "t": 142045.31250000058,
      "d": 227.27249999999185,
      "v": 59
    },
    {
      "midi": 55,
      "hit": false,
      "t": 142045.31250000058,
      "d": 227.27249999999185,
      "v": 59
    },
    {
      "midi": 62,
      "hit": false,
      "t": 142045.31250000058,
      "d": 227.27249999999185,
      "v": 59
    },
    {
      "midi": 67,
      "hit": false,
      "t": 142045.31250000058,
      "d": 227.27249999999185,
      "v": 59
    },
    {
      "midi": 48,
      "hit": false,
      "t": 142272.58500000057,
      "d": 227.27249999999185,
      "v": 59
    },
    {
      "midi": 52,
      "hit": false,
      "t": 142272.58500000057,
      "d": 227.27249999999185,
      "v": 59
    },
    {
      "midi": 55,
      "hit": false,
      "t": 142272.58500000057,
      "d": 227.27249999999185,
      "v": 59
    },
    {
      "midi": 62,
      "hit": false,
      "t": 142272.58500000057,
      "d": 227.27249999999185,
      "v": 59
    },
    {
      "midi": 67,
      "hit": false,
      "t": 142272.58500000057,
      "d": 227.27249999999185,
      "v": 59
    },
    {
      "midi": 48,
      "hit": false,
      "t": 142499.85750000057,
      "d": 227.27249999999185,
      "v": 59
    },
    {
      "midi": 52,
      "hit": false,
      "t": 142499.85750000057,
      "d": 227.27249999999185,
      "v": 59
    },
    {
      "midi": 55,
      "hit": false,
      "t": 142499.85750000057,
      "d": 227.27249999999185,
      "v": 59
    },
    {
      "midi": 62,
      "hit": false,
      "t": 142499.85750000057,
      "d": 227.27249999999185,
      "v": 59
    },
    {
      "midi": 67,
      "hit": false,
      "t": 142499.85750000057,
      "d": 227.27249999999185,
      "v": 59
    },
    {
      "midi": 71,
      "hit": false,
      "t": 142514.06203125007,
      "d": 454.5450000000128,
      "v": 62
    },
    {
      "midi": 48,
      "hit": false,
      "t": 142727.13000000056,
      "d": 227.27249999999185,
      "v": 59
    },
    {
      "midi": 52,
      "hit": false,
      "t": 142727.13000000056,
      "d": 227.27249999999185,
      "v": 59
    },
    {
      "midi": 55,
      "hit": false,
      "t": 142727.13000000056,
      "d": 227.27249999999185,
      "v": 59
    },
    {
      "midi": 62,
      "hit": false,
      "t": 142727.13000000056,
      "d": 227.27249999999185,
      "v": 59
    },
    {
      "midi": 67,
      "hit": false,
      "t": 142727.13000000056,
      "d": 227.27249999999185,
      "v": 59
    },
    {
      "midi": 48,
      "hit": false,
      "t": 142954.40250000055,
      "d": 227.27249999999185,
      "v": 59
    },
    {
      "midi": 52,
      "hit": false,
      "t": 142954.40250000055,
      "d": 227.27249999999185,
      "v": 59
    },
    {
      "midi": 55,
      "hit": false,
      "t": 142954.40250000055,
      "d": 227.27249999999185,
      "v": 59
    },
    {
      "midi": 62,
      "hit": false,
      "t": 142954.40250000055,
      "d": 227.27249999999185,
      "v": 59
    },
    {
      "midi": 67,
      "hit": false,
      "t": 142954.40250000055,
      "d": 227.27249999999185,
      "v": 59
    },
    {
      "midi": 48,
      "hit": false,
      "t": 143181.67500000054,
      "d": 227.27249999999185,
      "v": 59
    },
    {
      "midi": 52,
      "hit": false,
      "t": 143181.67500000054,
      "d": 227.27249999999185,
      "v": 59
    },
    {
      "midi": 55,
      "hit": false,
      "t": 143181.67500000054,
      "d": 227.27249999999185,
      "v": 59
    },
    {
      "midi": 62,
      "hit": false,
      "t": 143181.67500000054,
      "d": 227.27249999999185,
      "v": 59
    },
    {
      "midi": 67,
      "hit": false,
      "t": 143181.67500000054,
      "d": 227.27249999999185,
      "v": 59
    },
    {
      "midi": 67,
      "hit": false,
      "t": 143380.53843750007,
      "d": 42.613593749993015,
      "v": 62
    },
    {
      "midi": 48,
      "hit": false,
      "t": 143408.94750000053,
      "d": 227.27249999999185,
      "v": 59
    },
    {
      "midi": 52,
      "hit": false,
      "t": 143408.94750000053,
      "d": 227.27249999999185,
      "v": 59
    },
    {
      "midi": 55,
      "hit": false,
      "t": 143408.94750000053,
      "d": 227.27249999999185,
      "v": 59
    },
    {
      "midi": 62,
      "hit": false,
      "t": 143408.94750000053,
      "d": 227.27249999999185,
      "v": 59
    },
    {
      "midi": 67,
      "hit": false,
      "t": 143408.94750000053,
      "d": 227.27249999999185,
      "v": 59
    },
    {
      "midi": 43,
      "hit": false,
      "t": 143636.22000000053,
      "d": 227.27249999999185,
      "v": 59
    },
    {
      "midi": 47,
      "hit": false,
      "t": 143636.22000000053,
      "d": 227.27249999999185,
      "v": 59
    },
    {
      "midi": 50,
      "hit": false,
      "t": 143636.22000000053,
      "d": 227.27249999999185,
      "v": 59
    },
    {
      "midi": 55,
      "hit": false,
      "t": 143636.22000000053,
      "d": 227.27249999999185,
      "v": 59
    },
    {
      "midi": 62,
      "hit": false,
      "t": 143636.22000000053,
      "d": 227.27249999999185,
      "v": 59
    },
    {
      "midi": 67,
      "hit": false,
      "t": 143636.22000000053,
      "d": 227.27249999999185,
      "v": 59
    },
    {
      "midi": 43,
      "hit": false,
      "t": 143863.49250000052,
      "d": 227.27249999999185,
      "v": 59
    },
    {
      "midi": 47,
      "hit": false,
      "t": 143863.49250000052,
      "d": 227.27249999999185,
      "v": 59
    },
    {
      "midi": 50,
      "hit": false,
      "t": 143863.49250000052,
      "d": 227.27249999999185,
      "v": 59
    },
    {
      "midi": 55,
      "hit": false,
      "t": 143863.49250000052,
      "d": 227.27249999999185,
      "v": 59
    },
    {
      "midi": 62,
      "hit": false,
      "t": 143863.49250000052,
      "d": 227.27249999999185,
      "v": 59
    },
    {
      "midi": 67,
      "hit": false,
      "t": 143863.49250000052,
      "d": 227.27249999999185,
      "v": 59
    },
    {
      "midi": 43,
      "hit": false,
      "t": 144090.7650000005,
      "d": 227.27249999999185,
      "v": 59
    },
    {
      "midi": 47,
      "hit": false,
      "t": 144090.7650000005,
      "d": 227.27249999999185,
      "v": 59
    },
    {
      "midi": 50,
      "hit": false,
      "t": 144090.7650000005,
      "d": 227.27249999999185,
      "v": 59
    },
    {
      "midi": 55,
      "hit": false,
      "t": 144090.7650000005,
      "d": 227.27249999999185,
      "v": 59
    },
    {
      "midi": 62,
      "hit": false,
      "t": 144090.7650000005,
      "d": 227.27249999999185,
      "v": 59
    },
    {
      "midi": 67,
      "hit": false,
      "t": 144090.7650000005,
      "d": 227.27249999999185,
      "v": 59
    },
    {
      "midi": 43,
      "hit": false,
      "t": 144318.0375000005,
      "d": 227.27249999999185,
      "v": 59
    },
    {
      "midi": 47,
      "hit": false,
      "t": 144318.0375000005,
      "d": 227.27249999999185,
      "v": 59
    },
    {
      "midi": 50,
      "hit": false,
      "t": 144318.0375000005,
      "d": 227.27249999999185,
      "v": 59
    },
    {
      "midi": 55,
      "hit": false,
      "t": 144318.0375000005,
      "d": 227.27249999999185,
      "v": 59
    },
    {
      "midi": 62,
      "hit": false,
      "t": 144318.0375000005,
      "d": 227.27249999999185,
      "v": 59
    },
    {
      "midi": 67,
      "hit": false,
      "t": 144318.0375000005,
      "d": 227.27249999999185,
      "v": 59
    },
    {
      "midi": 43,
      "hit": false,
      "t": 144545.3100000005,
      "d": 227.27249999999185,
      "v": 59
    },
    {
      "midi": 47,
      "hit": false,
      "t": 144545.3100000005,
      "d": 227.27249999999185,
      "v": 59
    },
    {
      "midi": 50,
      "hit": false,
      "t": 144545.3100000005,
      "d": 227.27249999999185,
      "v": 59
    },
    {
      "midi": 55,
      "hit": false,
      "t": 144545.3100000005,
      "d": 227.27249999999185,
      "v": 59
    },
    {
      "midi": 62,
      "hit": false,
      "t": 144545.3100000005,
      "d": 227.27249999999185,
      "v": 59
    },
    {
      "midi": 67,
      "hit": false,
      "t": 144545.3100000005,
      "d": 227.27249999999185,
      "v": 59
    },
    {
      "midi": 43,
      "hit": false,
      "t": 144772.58250000048,
      "d": 227.27249999999185,
      "v": 59
    },
    {
      "midi": 47,
      "hit": false,
      "t": 144772.58250000048,
      "d": 227.27249999999185,
      "v": 59
    },
    {
      "midi": 50,
      "hit": false,
      "t": 144772.58250000048,
      "d": 227.27249999999185,
      "v": 59
    },
    {
      "midi": 55,
      "hit": false,
      "t": 144772.58250000048,
      "d": 227.27249999999185,
      "v": 59
    },
    {
      "midi": 62,
      "hit": false,
      "t": 144772.58250000048,
      "d": 227.27249999999185,
      "v": 59
    },
    {
      "midi": 67,
      "hit": false,
      "t": 144772.58250000048,
      "d": 227.27249999999185,
      "v": 59
    },
    {
      "midi": 43,
      "hit": false,
      "t": 144999.85500000048,
      "d": 227.27249999999185,
      "v": 59
    },
    {
      "midi": 47,
      "hit": false,
      "t": 144999.85500000048,
      "d": 227.27249999999185,
      "v": 59
    },
    {
      "midi": 50,
      "hit": false,
      "t": 144999.85500000048,
      "d": 227.27249999999185,
      "v": 59
    },
    {
      "midi": 55,
      "hit": false,
      "t": 144999.85500000048,
      "d": 227.27249999999185,
      "v": 59
    },
    {
      "midi": 62,
      "hit": false,
      "t": 144999.85500000048,
      "d": 227.27249999999185,
      "v": 59
    },
    {
      "midi": 67,
      "hit": false,
      "t": 144999.85500000048,
      "d": 227.27249999999185,
      "v": 59
    },
    {
      "midi": 43,
      "hit": false,
      "t": 145227.12750000047,
      "d": 227.27249999999185,
      "v": 59
    },
    {
      "midi": 47,
      "hit": false,
      "t": 145227.12750000047,
      "d": 227.27249999999185,
      "v": 59
    },
    {
      "midi": 50,
      "hit": false,
      "t": 145227.12750000047,
      "d": 227.27249999999185,
      "v": 59
    },
    {
      "midi": 55,
      "hit": false,
      "t": 145227.12750000047,
      "d": 227.27249999999185,
      "v": 59
    },
    {
      "midi": 62,
      "hit": false,
      "t": 145227.12750000047,
      "d": 227.27249999999185,
      "v": 59
    },
    {
      "midi": 67,
      "hit": false,
      "t": 145227.12750000047,
      "d": 227.27249999999185,
      "v": 59
    },
    {
      "midi": 69,
      "hit": false,
      "t": 145454.40000000005,
      "d": 227.27249999999185,
      "v": 62
    },
    {
      "midi": 48,
      "hit": false,
      "t": 145454.40000000046,
      "d": 227.27249999999185,
      "v": 59
    },
    {
      "midi": 52,
      "hit": false,
      "t": 145454.40000000046,
      "d": 227.27249999999185,
      "v": 59
    },
    {
      "midi": 55,
      "hit": false,
      "t": 145454.40000000046,
      "d": 227.27249999999185,
      "v": 59
    },
    {
      "midi": 62,
      "hit": false,
      "t": 145454.40000000046,
      "d": 227.27249999999185,
      "v": 59
    },
    {
      "midi": 67,
      "hit": false,
      "t": 145454.40000000046,
      "d": 227.27249999999185,
      "v": 59
    },
    {
      "midi": 67,
      "hit": false,
      "t": 145662.73312500006,
      "d": 454.5449999999837,
      "v": 62
    },
    {
      "midi": 48,
      "hit": false,
      "t": 145681.67250000045,
      "d": 227.27249999999185,
      "v": 59
    },
    {
      "midi": 52,
      "hit": false,
      "t": 145681.67250000045,
      "d": 227.27249999999185,
      "v": 59
    },
    {
      "midi": 55,
      "hit": false,
      "t": 145681.67250000045,
      "d": 227.27249999999185,
      "v": 59
    },
    {
      "midi": 62,
      "hit": false,
      "t": 145681.67250000045,
      "d": 227.27249999999185,
      "v": 59
    },
    {
      "midi": 67,
      "hit": false,
      "t": 145681.67250000045,
      "d": 227.27249999999185,
      "v": 59
    },
    {
      "midi": 48,
      "hit": false,
      "t": 145908.94500000044,
      "d": 227.27249999999185,
      "v": 59
    },
    {
      "midi": 52,
      "hit": false,
      "t": 145908.94500000044,
      "d": 227.27249999999185,
      "v": 59
    },
    {
      "midi": 55,
      "hit": false,
      "t": 145908.94500000044,
      "d": 227.27249999999185,
      "v": 59
    },
    {
      "midi": 62,
      "hit": false,
      "t": 145908.94500000044,
      "d": 227.27249999999185,
      "v": 59
    },
    {
      "midi": 67,
      "hit": false,
      "t": 145908.94500000044,
      "d": 227.27249999999185,
      "v": 59
    },
    {
      "midi": 64,
      "hit": false,
      "t": 146107.80843750003,
      "d": 454.5450000000128,
      "v": 62
    },
    {
      "midi": 48,
      "hit": false,
      "t": 146136.21750000044,
      "d": 227.27249999999185,
      "v": 59
    },
    {
      "midi": 52,
      "hit": false,
      "t": 146136.21750000044,
      "d": 227.27249999999185,
      "v": 59
    },
    {
      "midi": 55,
      "hit": false,
      "t": 146136.21750000044,
      "d": 227.27249999999185,
      "v": 59
    },
    {
      "midi": 62,
      "hit": false,
      "t": 146136.21750000044,
      "d": 227.27249999999185,
      "v": 59
    },
    {
      "midi": 67,
      "hit": false,
      "t": 146136.21750000044,
      "d": 227.27249999999185,
      "v": 59
    },
    {
      "midi": 48,
      "hit": false,
      "t": 146363.49000000043,
      "d": 227.27249999999185,
      "v": 59
    },
    {
      "midi": 52,
      "hit": false,
      "t": 146363.49000000043,
      "d": 227.27249999999185,
      "v": 59
    },
    {
      "midi": 55,
      "hit": false,
      "t": 146363.49000000043,
      "d": 227.27249999999185,
      "v": 59
    },
    {
      "midi": 62,
      "hit": false,
      "t": 146363.49000000043,
      "d": 227.27249999999185,
      "v": 59
    },
    {
      "midi": 67,
      "hit": false,
      "t": 146363.49000000043,
      "d": 227.27249999999185,
      "v": 59
    },
    {
      "midi": 48,
      "hit": false,
      "t": 146590.76250000042,
      "d": 227.27249999999185,
      "v": 59
    },
    {
      "midi": 52,
      "hit": false,
      "t": 146590.76250000042,
      "d": 227.27249999999185,
      "v": 59
    },
    {
      "midi": 55,
      "hit": false,
      "t": 146590.76250000042,
      "d": 227.27249999999185,
      "v": 59
    },
    {
      "midi": 62,
      "hit": false,
      "t": 146590.76250000042,
      "d": 227.27249999999185,
      "v": 59
    },
    {
      "midi": 67,
      "hit": false,
      "t": 146590.76250000042,
      "d": 227.27249999999185,
      "v": 59
    },
    {
      "midi": 60,
      "hit": false,
      "t": 146614.43671875005,
      "d": 454.5449999999837,
      "v": 62
    },
    {
      "midi": 48,
      "hit": false,
      "t": 146818.0350000004,
      "d": 227.27249999999185,
      "v": 59
    },
    {
      "midi": 52,
      "hit": false,
      "t": 146818.0350000004,
      "d": 227.27249999999185,
      "v": 59
    },
    {
      "midi": 55,
      "hit": false,
      "t": 146818.0350000004,
      "d": 227.27249999999185,
      "v": 59
    },
    {
      "midi": 62,
      "hit": false,
      "t": 146818.0350000004,
      "d": 227.27249999999185,
      "v": 59
    },
    {
      "midi": 67,
      "hit": false,
      "t": 146818.0350000004,
      "d": 227.27249999999185,
      "v": 59
    },
    {
      "midi": 62,
      "hit": false,
      "t": 147026.36812500004,
      "d": 909.0899999999965,
      "v": 62
    },
    {
      "midi": 48,
      "hit": false,
      "t": 147045.3075000004,
      "d": 227.27249999999185,
      "v": 59
    },
    {
      "midi": 52,
      "hit": false,
      "t": 147045.3075000004,
      "d": 227.27249999999185,
      "v": 59
    },
    {
      "midi": 55,
      "hit": false,
      "t": 147045.3075000004,
      "d": 227.27249999999185,
      "v": 59
    },
    {
      "midi": 62,
      "hit": false,
      "t": 147045.3075000004,
      "d": 227.27249999999185,
      "v": 59
    },
    {
      "midi": 67,
      "hit": false,
      "t": 147045.3075000004,
      "d": 227.27249999999185,
      "v": 59
    },
    {
      "midi": 43,
      "hit": false,
      "t": 147272.5800000004,
      "d": 227.27249999999185,
      "v": 59
    },
    {
      "midi": 47,
      "hit": false,
      "t": 147272.5800000004,
      "d": 227.27249999999185,
      "v": 59
    },
    {
      "midi": 50,
      "hit": false,
      "t": 147272.5800000004,
      "d": 227.27249999999185,
      "v": 59
    },
    {
      "midi": 55,
      "hit": false,
      "t": 147272.5800000004,
      "d": 227.27249999999185,
      "v": 59
    },
    {
      "midi": 62,
      "hit": false,
      "t": 147272.5800000004,
      "d": 227.27249999999185,
      "v": 59
    },
    {
      "midi": 67,
      "hit": false,
      "t": 147272.5800000004,
      "d": 227.27249999999185,
      "v": 59
    },
    {
      "midi": 43,
      "hit": false,
      "t": 147499.8525000004,
      "d": 227.27249999999185,
      "v": 59
    },
    {
      "midi": 47,
      "hit": false,
      "t": 147499.8525000004,
      "d": 227.27249999999185,
      "v": 59
    },
    {
      "midi": 50,
      "hit": false,
      "t": 147499.8525000004,
      "d": 227.27249999999185,
      "v": 59
    },
    {
      "midi": 55,
      "hit": false,
      "t": 147499.8525000004,
      "d": 227.27249999999185,
      "v": 59
    },
    {
      "midi": 62,
      "hit": false,
      "t": 147499.8525000004,
      "d": 227.27249999999185,
      "v": 59
    },
    {
      "midi": 67,
      "hit": false,
      "t": 147499.8525000004,
      "d": 227.27249999999185,
      "v": 59
    },
    {
      "midi": 43,
      "hit": false,
      "t": 147727.12500000038,
      "d": 227.27249999999185,
      "v": 59
    },
    {
      "midi": 47,
      "hit": false,
      "t": 147727.12500000038,
      "d": 227.27249999999185,
      "v": 59
    },
    {
      "midi": 50,
      "hit": false,
      "t": 147727.12500000038,
      "d": 227.27249999999185,
      "v": 59
    },
    {
      "midi": 55,
      "hit": false,
      "t": 147727.12500000038,
      "d": 227.27249999999185,
      "v": 59
    },
    {
      "midi": 62,
      "hit": false,
      "t": 147727.12500000038,
      "d": 227.27249999999185,
      "v": 59
    },
    {
      "midi": 67,
      "hit": false,
      "t": 147727.12500000038,
      "d": 227.27249999999185,
      "v": 59
    },
    {
      "midi": 62,
      "hit": false,
      "t": 147935.45812500003,
      "d": 681.8175000000047,
      "v": 62
    },
    {
      "midi": 43,
      "hit": false,
      "t": 147954.39750000037,
      "d": 227.27249999999185,
      "v": 59
    },
    {
      "midi": 47,
      "hit": false,
      "t": 147954.39750000037,
      "d": 227.27249999999185,
      "v": 59
    },
    {
      "midi": 50,
      "hit": false,
      "t": 147954.39750000037,
      "d": 227.27249999999185,
      "v": 59
    },
    {
      "midi": 55,
      "hit": false,
      "t": 147954.39750000037,
      "d": 227.27249999999185,
      "v": 59
    },
    {
      "midi": 62,
      "hit": false,
      "t": 147954.39750000037,
      "d": 227.27249999999185,
      "v": 59
    },
    {
      "midi": 67,
      "hit": false,
      "t": 147954.39750000037,
      "d": 227.27249999999185,
      "v": 59
    },
    {
      "midi": 43,
      "hit": false,
      "t": 148181.67000000036,
      "d": 227.27249999999185,
      "v": 59
    },
    {
      "midi": 47,
      "hit": false,
      "t": 148181.67000000036,
      "d": 227.27249999999185,
      "v": 59
    },
    {
      "midi": 50,
      "hit": false,
      "t": 148181.67000000036,
      "d": 227.27249999999185,
      "v": 59
    },
    {
      "midi": 55,
      "hit": false,
      "t": 148181.67000000036,
      "d": 227.27249999999185,
      "v": 59
    },
    {
      "midi": 62,
      "hit": false,
      "t": 148181.67000000036,
      "d": 227.27249999999185,
      "v": 59
    },
    {
      "midi": 67,
      "hit": false,
      "t": 148181.67000000036,
      "d": 227.27249999999185,
      "v": 59
    },
    {
      "midi": 43,
      "hit": false,
      "t": 148408.94250000035,
      "d": 227.27249999999185,
      "v": 59
    },
    {
      "midi": 47,
      "hit": false,
      "t": 148408.94250000035,
      "d": 227.27249999999185,
      "v": 59
    },
    {
      "midi": 50,
      "hit": false,
      "t": 148408.94250000035,
      "d": 227.27249999999185,
      "v": 59
    },
    {
      "midi": 55,
      "hit": false,
      "t": 148408.94250000035,
      "d": 227.27249999999185,
      "v": 59
    },
    {
      "midi": 62,
      "hit": false,
      "t": 148408.94250000035,
      "d": 227.27249999999185,
      "v": 59
    },
    {
      "midi": 67,
      "hit": false,
      "t": 148408.94250000035,
      "d": 227.27249999999185,
      "v": 59
    },
    {
      "midi": 43,
      "hit": false,
      "t": 148636.21500000035,
      "d": 227.27249999999185,
      "v": 59
    },
    {
      "midi": 47,
      "hit": false,
      "t": 148636.21500000035,
      "d": 227.27249999999185,
      "v": 59
    },
    {
      "midi": 50,
      "hit": false,
      "t": 148636.21500000035,
      "d": 227.27249999999185,
      "v": 59
    },
    {
      "midi": 55,
      "hit": false,
      "t": 148636.21500000035,
      "d": 227.27249999999185,
      "v": 59
    },
    {
      "midi": 62,
      "hit": false,
      "t": 148636.21500000035,
      "d": 227.27249999999185,
      "v": 59
    },
    {
      "midi": 67,
      "hit": false,
      "t": 148636.21500000035,
      "d": 227.27249999999185,
      "v": 59
    },
    {
      "midi": 43,
      "hit": false,
      "t": 148863.48750000034,
      "d": 227.27249999999185,
      "v": 59
    },
    {
      "midi": 47,
      "hit": false,
      "t": 148863.48750000034,
      "d": 227.27249999999185,
      "v": 59
    },
    {
      "midi": 50,
      "hit": false,
      "t": 148863.48750000034,
      "d": 227.27249999999185,
      "v": 59
    },
    {
      "midi": 55,
      "hit": false,
      "t": 148863.48750000034,
      "d": 227.27249999999185,
      "v": 59
    },
    {
      "midi": 62,
      "hit": false,
      "t": 148863.48750000034,
      "d": 227.27249999999185,
      "v": 59
    },
    {
      "midi": 67,
      "hit": false,
      "t": 148863.48750000034,
      "d": 227.27249999999185,
      "v": 59
    },
    {
      "midi": 69,
      "hit": false,
      "t": 149090.76000000004,
      "d": 227.27249999999185,
      "v": 62
    },
    {
      "midi": 48,
      "hit": false,
      "t": 149090.76000000033,
      "d": 227.27249999999185,
      "v": 59
    },
    {
      "midi": 52,
      "hit": false,
      "t": 149090.76000000033,
      "d": 227.27249999999185,
      "v": 59
    },
    {
      "midi": 55,
      "hit": false,
      "t": 149090.76000000033,
      "d": 227.27249999999185,
      "v": 59
    },
    {
      "midi": 62,
      "hit": false,
      "t": 149090.76000000033,
      "d": 227.27249999999185,
      "v": 59
    },
    {
      "midi": 67,
      "hit": false,
      "t": 149090.76000000033,
      "d": 227.27249999999185,
      "v": 59
    },
    {
      "midi": 67,
      "hit": false,
      "t": 149318.03250000003,
      "d": 454.5450000000128,
      "v": 62
    },
    {
      "midi": 48,
      "hit": false,
      "t": 149318.03250000032,
      "d": 227.27249999999185,
      "v": 59
    },
    {
      "midi": 52,
      "hit": false,
      "t": 149318.03250000032,
      "d": 227.27249999999185,
      "v": 59
    },
    {
      "midi": 55,
      "hit": false,
      "t": 149318.03250000032,
      "d": 227.27249999999185,
      "v": 59
    },
    {
      "midi": 62,
      "hit": false,
      "t": 149318.03250000032,
      "d": 227.27249999999185,
      "v": 59
    },
    {
      "midi": 67,
      "hit": false,
      "t": 149318.03250000032,
      "d": 227.27249999999185,
      "v": 59
    },
    {
      "midi": 48,
      "hit": false,
      "t": 149545.3050000003,
      "d": 227.27249999999185,
      "v": 59
    },
    {
      "midi": 52,
      "hit": false,
      "t": 149545.3050000003,
      "d": 227.27249999999185,
      "v": 59
    },
    {
      "midi": 55,
      "hit": false,
      "t": 149545.3050000003,
      "d": 227.27249999999185,
      "v": 59
    },
    {
      "midi": 62,
      "hit": false,
      "t": 149545.3050000003,
      "d": 227.27249999999185,
      "v": 59
    },
    {
      "midi": 67,
      "hit": false,
      "t": 149545.3050000003,
      "d": 227.27249999999185,
      "v": 59
    },
    {
      "midi": 50,
      "hit": false,
      "t": 149772.5775000003,
      "d": 454.5450000000128,
      "v": 59
    },
    {
      "midi": 54,
      "hit": false,
      "t": 149772.5775000003,
      "d": 454.5450000000128,
      "v": 59
    },
    {
      "midi": 57,
      "hit": false,
      "t": 149772.5775000003,
      "d": 454.5450000000128,
      "v": 59
    },
    {
      "midi": 62,
      "hit": false,
      "t": 149772.5775000003,
      "d": 454.5450000000128,
      "v": 59
    },
    {
      "midi": 66,
      "hit": false,
      "t": 149772.5775000003,
      "d": 454.5450000000128,
      "v": 59
    },
    {
      "midi": 71,
      "hit": false,
      "t": 149786.78203125004,
      "d": 454.5450000000128,
      "v": 62
    },
    {
      "midi": 50,
      "hit": false,
      "t": 150227.12250000032,
      "d": 227.27249999999185,
      "v": 59
    },
    {
      "midi": 54,
      "hit": false,
      "t": 150227.12250000032,
      "d": 227.27249999999185,
      "v": 59
    },
    {
      "midi": 57,
      "hit": false,
      "t": 150227.12250000032,
      "d": 227.27249999999185,
      "v": 59
    },
    {
      "midi": 62,
      "hit": false,
      "t": 150227.12250000032,
      "d": 227.27249999999185,
      "v": 59
    },
    {
      "midi": 66,
      "hit": false,
      "t": 150227.12250000032,
      "d": 227.27249999999185,
      "v": 59
    },
    {
      "midi": 50,
      "hit": false,
      "t": 150454.3950000003,
      "d": 227.27249999999185,
      "v": 59
    },
    {
      "midi": 54,
      "hit": false,
      "t": 150454.3950000003,
      "d": 227.27249999999185,
      "v": 59
    },
    {
      "midi": 57,
      "hit": false,
      "t": 150454.3950000003,
      "d": 227.27249999999185,
      "v": 59
    },
    {
      "midi": 62,
      "hit": false,
      "t": 150454.3950000003,
      "d": 227.27249999999185,
      "v": 59
    },
    {
      "midi": 66,
      "hit": false,
      "t": 150454.3950000003,
      "d": 227.27249999999185,
      "v": 59
    },
    {
      "midi": 67,
      "hit": false,
      "t": 150653.25843750004,
      "d": 42.613593749993015,
      "v": 62
    },
    {
      "midi": 43,
      "hit": false,
      "t": 150681.6675000003,
      "d": 454.5450000000128,
      "v": 59
    },
    {
      "midi": 47,
      "hit": false,
      "t": 150681.6675000003,
      "d": 454.5450000000128,
      "v": 59
    },
    {
      "midi": 50,
      "hit": false,
      "t": 150681.6675000003,
      "d": 454.5450000000128,
      "v": 59
    },
    {
      "midi": 55,
      "hit": false,
      "t": 150681.6675000003,
      "d": 454.5450000000128,
      "v": 59
    },
    {
      "midi": 62,
      "hit": false,
      "t": 150681.6675000003,
      "d": 454.5450000000128,
      "v": 59
    },
    {
      "midi": 67,
      "hit": false,
      "t": 150681.6675000003,
      "d": 454.5450000000128,
      "v": 59
    },
    {
      "midi": 43,
      "hit": false,
      "t": 151136.2125000003,
      "d": 227.27249999999185,
      "v": 59
    },
    {
      "midi": 47,
      "hit": false,
      "t": 151136.2125000003,
      "d": 227.27249999999185,
      "v": 59
    },
    {
      "midi": 50,
      "hit": false,
      "t": 151136.2125000003,
      "d": 227.27249999999185,
      "v": 59
    },
    {
      "midi": 55,
      "hit": false,
      "t": 151136.2125000003,
      "d": 227.27249999999185,
      "v": 59
    },
    {
      "midi": 62,
      "hit": false,
      "t": 151136.2125000003,
      "d": 227.27249999999185,
      "v": 59
    },
    {
      "midi": 67,
      "hit": false,
      "t": 151136.2125000003,
      "d": 227.27249999999185,
      "v": 59
    },
    {
      "midi": 43,
      "hit": false,
      "t": 151363.4850000003,
      "d": 454.5450000000128,
      "v": 59
    },
    {
      "midi": 47,
      "hit": false,
      "t": 151363.4850000003,
      "d": 454.5450000000128,
      "v": 59
    },
    {
      "midi": 50,
      "hit": false,
      "t": 151363.4850000003,
      "d": 454.5450000000128,
      "v": 59
    },
    {
      "midi": 55,
      "hit": false,
      "t": 151363.4850000003,
      "d": 454.5450000000128,
      "v": 59
    },
    {
      "midi": 62,
      "hit": false,
      "t": 151363.4850000003,
      "d": 454.5450000000128,
      "v": 59
    },
    {
      "midi": 67,
      "hit": false,
      "t": 151363.4850000003,
      "d": 454.5450000000128,
      "v": 59
    },
    {
      "midi": 43,
      "hit": false,
      "t": 151818.03000000032,
      "d": 227.27249999999185,
      "v": 59
    },
    {
      "midi": 47,
      "hit": false,
      "t": 151818.03000000032,
      "d": 227.27249999999185,
      "v": 59
    },
    {
      "midi": 50,
      "hit": false,
      "t": 151818.03000000032,
      "d": 227.27249999999185,
      "v": 59
    },
    {
      "midi": 55,
      "hit": false,
      "t": 151818.03000000032,
      "d": 227.27249999999185,
      "v": 59
    },
    {
      "midi": 62,
      "hit": false,
      "t": 151818.03000000032,
      "d": 227.27249999999185,
      "v": 59
    },
    {
      "midi": 67,
      "hit": false,
      "t": 151818.03000000032,
      "d": 227.27249999999185,
      "v": 59
    },
    {
      "midi": 43,
      "hit": false,
      "t": 152045.3025000003,
      "d": 227.27249999999185,
      "v": 59
    },
    {
      "midi": 47,
      "hit": false,
      "t": 152045.3025000003,
      "d": 227.27249999999185,
      "v": 59
    },
    {
      "midi": 50,
      "hit": false,
      "t": 152045.3025000003,
      "d": 227.27249999999185,
      "v": 59
    },
    {
      "midi": 55,
      "hit": false,
      "t": 152045.3025000003,
      "d": 227.27249999999185,
      "v": 59
    },
    {
      "midi": 62,
      "hit": false,
      "t": 152045.3025000003,
      "d": 227.27249999999185,
      "v": 59
    },
    {
      "midi": 67,
      "hit": false,
      "t": 152045.3025000003,
      "d": 227.27249999999185,
      "v": 59
    },
    {
      "midi": 43,
      "hit": false,
      "t": 152272.5750000003,
      "d": 227.27249999999185,
      "v": 59
    },
    {
      "midi": 47,
      "hit": false,
      "t": 152272.5750000003,
      "d": 227.27249999999185,
      "v": 59
    },
    {
      "midi": 50,
      "hit": false,
      "t": 152272.5750000003,
      "d": 227.27249999999185,
      "v": 59
    },
    {
      "midi": 55,
      "hit": false,
      "t": 152272.5750000003,
      "d": 227.27249999999185,
      "v": 59
    },
    {
      "midi": 62,
      "hit": false,
      "t": 152272.5750000003,
      "d": 227.27249999999185,
      "v": 59
    },
    {
      "midi": 67,
      "hit": false,
      "t": 152272.5750000003,
      "d": 227.27249999999185,
      "v": 59
    },
    {
      "midi": 43,
      "hit": false,
      "t": 152499.8475000003,
      "d": 227.27249999999185,
      "v": 59
    },
    {
      "midi": 47,
      "hit": false,
      "t": 152499.8475000003,
      "d": 227.27249999999185,
      "v": 59
    },
    {
      "midi": 50,
      "hit": false,
      "t": 152499.8475000003,
      "d": 227.27249999999185,
      "v": 59
    },
    {
      "midi": 55,
      "hit": false,
      "t": 152499.8475000003,
      "d": 227.27249999999185,
      "v": 59
    },
    {
      "midi": 62,
      "hit": false,
      "t": 152499.8475000003,
      "d": 227.27249999999185,
      "v": 59
    },
    {
      "midi": 67,
      "hit": false,
      "t": 152499.8475000003,
      "d": 227.27249999999185,
      "v": 59
    },
    {
      "midi": 74,
      "hit": false,
      "t": 152727.12000000002,
      "d": 904.355156250007,
      "v": 62
    },
    {
      "midi": 77,
      "hit": false,
      "t": 152727.12000000002,
      "d": 904.355156250007,
      "v": 62
    },
    {
      "midi": 81,
      "hit": false,
      "t": 152727.12000000002,
      "d": 904.355156250007,
      "v": 62
    },
    {
      "midi": 43,
      "hit": false,
      "t": 152727.1200000003,
      "d": 454.5450000000128,
      "v": 59
    },
    {
      "midi": 47,
      "hit": false,
      "t": 152727.1200000003,
      "d": 454.5450000000128,
      "v": 59
    },
    {
      "midi": 50,
      "hit": false,
      "t": 152727.1200000003,
      "d": 454.5450000000128,
      "v": 59
    },
    {
      "midi": 55,
      "hit": false,
      "t": 152727.1200000003,
      "d": 454.5450000000128,
      "v": 59
    },
    {
      "midi": 62,
      "hit": false,
      "t": 152727.1200000003,
      "d": 454.5450000000128,
      "v": 59
    },
    {
      "midi": 67,
      "hit": false,
      "t": 152727.1200000003,
      "d": 454.5450000000128,
      "v": 59
    },
    {
      "midi": 43,
      "hit": false,
      "t": 153181.6650000003,
      "d": 681.8175000000047,
      "v": 59
    },
    {
      "midi": 47,
      "hit": false,
      "t": 153181.6650000003,
      "d": 681.8175000000047,
      "v": 59
    },
    {
      "midi": 50,
      "hit": false,
      "t": 153181.6650000003,
      "d": 681.8175000000047,
      "v": 59
    },
    {
      "midi": 55,
      "hit": false,
      "t": 153181.6650000003,
      "d": 681.8175000000047,
      "v": 59
    },
    {
      "midi": 62,
      "hit": false,
      "t": 153181.6650000003,
      "d": 681.8175000000047,
      "v": 59
    },
    {
      "midi": 67,
      "hit": false,
      "t": 153181.6650000003,
      "d": 681.8175000000047,
      "v": 59
    },
    {
      "midi": 74,
      "hit": false,
      "t": 153636.21000000002,
      "d": 904.355156250007,
      "v": 62
    },
    {
      "midi": 77,
      "hit": false,
      "t": 153636.21000000002,
      "d": 904.355156250007,
      "v": 62
    },
    {
      "midi": 81,
      "hit": false,
      "t": 153636.21000000002,
      "d": 904.355156250007,
      "v": 62
    },
    {
      "midi": 43,
      "hit": false,
      "t": 153863.4825000003,
      "d": 227.27249999999185,
      "v": 59
    },
    {
      "midi": 47,
      "hit": false,
      "t": 153863.4825000003,
      "d": 227.27249999999185,
      "v": 59
    },
    {
      "midi": 50,
      "hit": false,
      "t": 153863.4825000003,
      "d": 227.27249999999185,
      "v": 59
    },
    {
      "midi": 55,
      "hit": false,
      "t": 153863.4825000003,
      "d": 227.27249999999185,
      "v": 59
    },
    {
      "midi": 62,
      "hit": false,
      "t": 153863.4825000003,
      "d": 227.27249999999185,
      "v": 59
    },
    {
      "midi": 67,
      "hit": false,
      "t": 153863.4825000003,
      "d": 227.27249999999185,
      "v": 59
    },
    {
      "midi": 43,
      "hit": false,
      "t": 154090.7550000003,
      "d": 227.27249999999185,
      "v": 59
    },
    {
      "midi": 47,
      "hit": false,
      "t": 154090.7550000003,
      "d": 227.27249999999185,
      "v": 59
    },
    {
      "midi": 50,
      "hit": false,
      "t": 154090.7550000003,
      "d": 227.27249999999185,
      "v": 59
    },
    {
      "midi": 55,
      "hit": false,
      "t": 154090.7550000003,
      "d": 227.27249999999185,
      "v": 59
    },
    {
      "midi": 62,
      "hit": false,
      "t": 154090.7550000003,
      "d": 227.27249999999185,
      "v": 59
    },
    {
      "midi": 67,
      "hit": false,
      "t": 154090.7550000003,
      "d": 227.27249999999185,
      "v": 59
    },
    {
      "midi": 43,
      "hit": false,
      "t": 154318.0275000003,
      "d": 227.27249999999185,
      "v": 59
    },
    {
      "midi": 47,
      "hit": false,
      "t": 154318.0275000003,
      "d": 227.27249999999185,
      "v": 59
    },
    {
      "midi": 50,
      "hit": false,
      "t": 154318.0275000003,
      "d": 227.27249999999185,
      "v": 59
    },
    {
      "midi": 55,
      "hit": false,
      "t": 154318.0275000003,
      "d": 227.27249999999185,
      "v": 59
    },
    {
      "midi": 62,
      "hit": false,
      "t": 154318.0275000003,
      "d": 227.27249999999185,
      "v": 59
    },
    {
      "midi": 67,
      "hit": false,
      "t": 154318.0275000003,
      "d": 227.27249999999185,
      "v": 59
    },
    {
      "midi": 74,
      "hit": false,
      "t": 154545.30000000002,
      "d": 904.355156250007,
      "v": 62
    },
    {
      "midi": 77,
      "hit": false,
      "t": 154545.30000000002,
      "d": 904.355156250007,
      "v": 62
    },
    {
      "midi": 81,
      "hit": false,
      "t": 154545.30000000002,
      "d": 904.355156250007,
      "v": 62
    },
    {
      "midi": 43,
      "hit": false,
      "t": 154545.30000000028,
      "d": 454.5450000000128,
      "v": 59
    },
    {
      "midi": 47,
      "hit": false,
      "t": 154545.30000000028,
      "d": 454.5450000000128,
      "v": 59
    },
    {
      "midi": 50,
      "hit": false,
      "t": 154545.30000000028,
      "d": 454.5450000000128,
      "v": 59
    },
    {
      "midi": 55,
      "hit": false,
      "t": 154545.30000000028,
      "d": 454.5450000000128,
      "v": 59
    },
    {
      "midi": 62,
      "hit": false,
      "t": 154545.30000000028,
      "d": 454.5450000000128,
      "v": 59
    },
    {
      "midi": 67,
      "hit": false,
      "t": 154545.30000000028,
      "d": 454.5450000000128,
      "v": 59
    },
    {
      "midi": 43,
      "hit": false,
      "t": 154999.8450000003,
      "d": 681.8175000000047,
      "v": 59
    },
    {
      "midi": 47,
      "hit": false,
      "t": 154999.8450000003,
      "d": 681.8175000000047,
      "v": 59
    },
    {
      "midi": 50,
      "hit": false,
      "t": 154999.8450000003,
      "d": 681.8175000000047,
      "v": 59
    },
    {
      "midi": 55,
      "hit": false,
      "t": 154999.8450000003,
      "d": 681.8175000000047,
      "v": 59
    },
    {
      "midi": 62,
      "hit": false,
      "t": 154999.8450000003,
      "d": 681.8175000000047,
      "v": 59
    },
    {
      "midi": 67,
      "hit": false,
      "t": 154999.8450000003,
      "d": 681.8175000000047,
      "v": 59
    },
    {
      "midi": 74,
      "hit": false,
      "t": 155454.39,
      "d": 904.355156250007,
      "v": 62
    },
    {
      "midi": 77,
      "hit": false,
      "t": 155454.39,
      "d": 904.355156250007,
      "v": 62
    },
    {
      "midi": 81,
      "hit": false,
      "t": 155454.39,
      "d": 904.355156250007,
      "v": 62
    },
    {
      "midi": 43,
      "hit": false,
      "t": 155681.6625000003,
      "d": 227.27249999999185,
      "v": 59
    },
    {
      "midi": 47,
      "hit": false,
      "t": 155681.6625000003,
      "d": 227.27249999999185,
      "v": 59
    },
    {
      "midi": 50,
      "hit": false,
      "t": 155681.6625000003,
      "d": 227.27249999999185,
      "v": 59
    },
    {
      "midi": 55,
      "hit": false,
      "t": 155681.6625000003,
      "d": 227.27249999999185,
      "v": 59
    },
    {
      "midi": 62,
      "hit": false,
      "t": 155681.6625000003,
      "d": 227.27249999999185,
      "v": 59
    },
    {
      "midi": 67,
      "hit": false,
      "t": 155681.6625000003,
      "d": 227.27249999999185,
      "v": 59
    },
    {
      "midi": 43,
      "hit": false,
      "t": 155908.9350000003,
      "d": 227.27249999999185,
      "v": 59
    },
    {
      "midi": 47,
      "hit": false,
      "t": 155908.9350000003,
      "d": 227.27249999999185,
      "v": 59
    },
    {
      "midi": 50,
      "hit": false,
      "t": 155908.9350000003,
      "d": 227.27249999999185,
      "v": 59
    },
    {
      "midi": 55,
      "hit": false,
      "t": 155908.9350000003,
      "d": 227.27249999999185,
      "v": 59
    },
    {
      "midi": 62,
      "hit": false,
      "t": 155908.9350000003,
      "d": 227.27249999999185,
      "v": 59
    },
    {
      "midi": 67,
      "hit": false,
      "t": 155908.9350000003,
      "d": 227.27249999999185,
      "v": 59
    },
    {
      "midi": 43,
      "hit": false,
      "t": 156136.20750000028,
      "d": 227.27249999999185,
      "v": 59
    },
    {
      "midi": 47,
      "hit": false,
      "t": 156136.20750000028,
      "d": 227.27249999999185,
      "v": 59
    },
    {
      "midi": 50,
      "hit": false,
      "t": 156136.20750000028,
      "d": 227.27249999999185,
      "v": 59
    },
    {
      "midi": 55,
      "hit": false,
      "t": 156136.20750000028,
      "d": 227.27249999999185,
      "v": 59
    },
    {
      "midi": 62,
      "hit": false,
      "t": 156136.20750000028,
      "d": 227.27249999999185,
      "v": 59
    },
    {
      "midi": 67,
      "hit": false,
      "t": 156136.20750000028,
      "d": 227.27249999999185,
      "v": 59
    },
    {
      "midi": 72,
      "hit": false,
      "t": 156363.48,
      "d": 1818.179999999993,
      "v": 62
    },
    {
      "midi": 76,
      "hit": false,
      "t": 156363.48,
      "d": 1818.179999999993,
      "v": 62
    },
    {
      "midi": 79,
      "hit": false,
      "t": 156363.48,
      "d": 1818.179999999993,
      "v": 62
    },
    {
      "midi": 43,
      "hit": false,
      "t": 156363.48000000027,
      "d": 3636.359999999986,
      "v": 59
    },
    {
      "midi": 48,
      "hit": false,
      "t": 156363.48000000027,
      "d": 3636.359999999986,
      "v": 59
    },
    {
      "midi": 52,
      "hit": false,
      "t": 156363.48000000027,
      "d": 3636.359999999986,
      "v": 59
    },
    {
      "midi": 55,
      "hit": false,
      "t": 156363.48000000027,
      "d": 3636.359999999986,
      "v": 59
    },
    {
      "midi": 60,
      "hit": false,
      "t": 156363.48000000027,
      "d": 3636.359999999986,
      "v": 59
    },
    {
      "midi": 64,
      "hit": false,
      "t": 156363.48000000027,
      "d": 3636.359999999986,
      "v": 59
    },
    {
      "midi": 55,
      "hit": false,
      "t": 157499.8425,
      "d": 227.27249999999185,
      "v": 59
    },
    {
      "midi": 60,
      "hit": false,
      "t": 157727.115,
      "d": 227.27249999999185,
      "v": 59
    },
    {
      "midi": 64,
      "hit": false,
      "t": 157727.115,
      "d": 227.27249999999185,
      "v": 59
    },
    {
      "midi": 62,
      "hit": false,
      "t": 157954.38749999998,
      "d": 227.27249999999185,
      "v": 59
    },
    {
      "midi": 65,
      "hit": false,
      "t": 157954.38749999998,
      "d": 227.27249999999185,
      "v": 59
    },
    {
      "midi": 64,
      "hit": false,
      "t": 158181.65999999997,
      "d": 303.02999999999884,
      "v": 59
    },
    {
      "midi": 67,
      "hit": false,
      "t": 158181.65999999997,
      "d": 303.02999999999884,
      "v": 59
    },
    {
      "midi": 62,
      "hit": false,
      "t": 158484.68999999997,
      "d": 303.02999999999884,
      "v": 59
    },
    {
      "midi": 65,
      "hit": false,
      "t": 158484.68999999997,
      "d": 303.02999999999884,
      "v": 59
    },
    {
      "midi": 60,
      "hit": false,
      "t": 158787.71999999997,
      "d": 303.02999999999884,
      "v": 59
    },
    {
      "midi": 64,
      "hit": false,
      "t": 158787.71999999997,
      "d": 303.02999999999884,
      "v": 59
    },
    {
      "midi": 62,
      "hit": false,
      "t": 159090.74999999997,
      "d": 454.5450000000128,
      "v": 59
    },
    {
      "midi": 65,
      "hit": false,
      "t": 159090.74999999997,
      "d": 454.5450000000128,
      "v": 59
    },
    {
      "midi": 60,
      "hit": false,
      "t": 159545.29499999998,
      "d": 454.5450000000128,
      "v": 59
    },
    {
      "midi": 64,
      "hit": false,
      "t": 159545.29499999998,
      "d": 454.5450000000128,
      "v": 59
    },
    {
      "midi": 55,
      "hit": false,
      "t": 159999.84,
      "d": 2727.2699999999895,
      "v": 59
    },
    {
      "midi": 59,
      "hit": false,
      "t": 159999.84,
      "d": 2727.2699999999895,
      "v": 59
    },
    {
      "midi": 62,
      "hit": false,
      "t": 159999.84,
      "d": 2727.2699999999895,
      "v": 59
    }
  ]
}