{
  "jsonPath": "Rock/Tassie Indie/All India Radio/morning-drops.json",
  "path": "Rock\\Tassie Indie\\All India Radio\\Morning Drops.mid",
  "name": "Morning Drops",
  "difficulty": "Advanced",
  "bpm": 62.00005993339127,
  "notes": [
    {
      "midi": 64,
      "hit": false,
      "t": 11612.892,
      "d": 3412.2950885416667,
      "v": 62
    },
    {
      "midi": 60,
      "hit": false,
      "t": 11612.892,
      "d": 3442.536994791666,
      "v": 65
    },
    {
      "midi": 64,
      "hit": false,
      "t": 11612.892,
      "d": 2651.2071145833343,
      "v": 70
    },
    {
      "midi": 60,
      "hit": false,
      "t": 11612.892,
      "d": 2691.5296562500007,
      "v": 65
    },
    {
      "midi": 55,
      "hit": false,
      "t": 11612.892,
      "d": 2883.0617291666676,
      "v": 73
    },
    {
      "midi": 48,
      "hit": false,
      "t": 11612.892,
      "d": 3870.9640000000036,
      "v": 68
    },
    {
      "midi": 64,
      "hit": false,
      "t": 11612.892,
      "d": 2651.2071145833343,
      "v": 70
    },
    {
      "midi": 60,
      "hit": false,
      "t": 11612.892,
      "d": 2691.5296562500007,
      "v": 65
    },
    {
      "midi": 55,
      "hit": false,
      "t": 11612.892,
      "d": 2883.0617291666676,
      "v": 73
    },
    {
      "midi": 48,
      "hit": false,
      "t": 11612.892,
      "d": 3870.9640000000036,
      "v": 68
    },
    {
      "midi": 60,
      "hit": false,
      "t": 14516.115000000002,
      "d": 544.3543125000015,
      "v": 94
    },
    {
      "midi": 60,
      "hit": false,
      "t": 14516.115000000002,
      "d": 544.3543125000015,
      "v": 94
    },
    {
      "midi": 64,
      "hit": false,
      "t": 14999.985500000003,
      "d": 100.806354166667,
      "v": 73
    },
    {
      "midi": 64,
      "hit": false,
      "t": 14999.985500000003,
      "d": 100.806354166667,
      "v": 73
    },
    {
      "midi": 60,
      "hit": false,
      "t": 15483.856,
      "d": 1769.1515156249989,
      "v": 70
    },
    {
      "midi": 64,
      "hit": false,
      "t": 15483.856,
      "d": 1814.5143749999988,
      "v": 64
    },
    {
      "midi": 64,
      "hit": false,
      "t": 15483.856000000003,
      "d": 1108.8698958333334,
      "v": 72
    },
    {
      "midi": 60,
      "hit": false,
      "t": 15483.856000000003,
      "d": 1209.6762500000004,
      "v": 80
    },
    {
      "midi": 57,
      "hit": false,
      "t": 15483.856000000003,
      "d": 1255.0391093750004,
      "v": 75
    },
    {
      "midi": 41,
      "hit": false,
      "t": 15483.856000000003,
      "d": 1935.4819999999963,
      "v": 85
    },
    {
      "midi": 64,
      "hit": false,
      "t": 15483.856000000003,
      "d": 1108.8698958333334,
      "v": 72
    },
    {
      "midi": 60,
      "hit": false,
      "t": 15483.856000000003,
      "d": 1209.6762500000004,
      "v": 80
    },
    {
      "midi": 57,
      "hit": false,
      "t": 15483.856000000003,
      "d": 1255.0391093750004,
      "v": 75
    },
    {
      "midi": 41,
      "hit": false,
      "t": 15483.856000000003,
      "d": 1935.4819999999963,
      "v": 85
    },
    {
      "midi": 52,
      "hit": false,
      "t": 16693.532250000004,
      "d": 645.160666666663,
      "v": 70
    },
    {
      "midi": 52,
      "hit": false,
      "t": 16693.532250000004,
      "d": 645.160666666663,
      "v": 70
    },
    {
      "midi": 57,
      "hit": false,
      "t": 16935.467500000002,
      "d": 287.2981093749986,
      "v": 87
    },
    {
      "midi": 57,
      "hit": false,
      "t": 16935.467500000002,
      "d": 287.2981093749986,
      "v": 87
    },
    {
      "midi": 60,
      "hit": false,
      "t": 17177.40275,
      "d": 216.7336614583328,
      "v": 87
    },
    {
      "midi": 60,
      "hit": false,
      "t": 17177.40275,
      "d": 216.7336614583328,
      "v": 87
    },
    {
      "midi": 62,
      "hit": false,
      "t": 17419.338,
      "d": 987.9022708333323,
      "v": 93
    },
    {
      "midi": 62,
      "hit": false,
      "t": 17419.338,
      "d": 478.8301822916619,
      "v": 58
    },
    {
      "midi": 57,
      "hit": false,
      "t": 17419.338,
      "d": 730.8460677083276,
      "v": 67
    },
    {
      "midi": 53,
      "hit": false,
      "t": 17419.338,
      "d": 1370.9664166666626,
      "v": 68
    },
    {
      "midi": 43,
      "hit": false,
      "t": 17419.338,
      "d": 1612.9016666666612,
      "v": 52
    },
    {
      "midi": 60,
      "hit": false,
      "t": 17419.338,
      "d": 1653.2242083333294,
      "v": 60
    },
    {
      "midi": 62,
      "hit": false,
      "t": 17419.338,
      "d": 478.8301822916619,
      "v": 58
    },
    {
      "midi": 57,
      "hit": false,
      "t": 17419.338,
      "d": 730.8460677083276,
      "v": 67
    },
    {
      "midi": 53,
      "hit": false,
      "t": 17419.338,
      "d": 1370.9664166666626,
      "v": 68
    },
    {
      "midi": 43,
      "hit": false,
      "t": 17419.338,
      "d": 1612.9016666666612,
      "v": 52
    },
    {
      "midi": 60,
      "hit": false,
      "t": 17419.338,
      "d": 1653.2242083333294,
      "v": 60
    },
    {
      "midi": 64,
      "hit": false,
      "t": 18387.078999999994,
      "d": 317.5400156249998,
      "v": 78
    },
    {
      "midi": 57,
      "hit": false,
      "t": 18387.078999999994,
      "d": 428.42700520833387,
      "v": 44
    },
    {
      "midi": 64,
      "hit": false,
      "t": 18387.078999999994,
      "d": 317.5400156249998,
      "v": 78
    },
    {
      "midi": 57,
      "hit": false,
      "t": 18387.078999999994,
      "d": 428.42700520833387,
      "v": 44
    },
    {
      "midi": 64,
      "hit": false,
      "t": 18387.078999999998,
      "d": 957.6603645833347,
      "v": 78
    },
    {
      "midi": 62,
      "hit": false,
      "t": 19354.819999999996,
      "d": 912.2975052083348,
      "v": 55
    },
    {
      "midi": 59,
      "hit": false,
      "t": 19354.819999999996,
      "d": 982.8619531250006,
      "v": 71
    },
    {
      "midi": 55,
      "hit": false,
      "t": 19354.819999999996,
      "d": 1018.1441770833335,
      "v": 67
    },
    {
      "midi": 43,
      "hit": false,
      "t": 19354.819999999996,
      "d": 1300.4019687500004,
      "v": 67
    },
    {
      "midi": 62,
      "hit": false,
      "t": 19354.819999999996,
      "d": 912.2975052083348,
      "v": 55
    },
    {
      "midi": 59,
      "hit": false,
      "t": 19354.819999999996,
      "d": 982.8619531250006,
      "v": 71
    },
    {
      "midi": 55,
      "hit": false,
      "t": 19354.819999999996,
      "d": 1018.1441770833335,
      "v": 67
    },
    {
      "midi": 43,
      "hit": false,
      "t": 19354.819999999996,
      "d": 1300.4019687500004,
      "v": 67
    },
    {
      "midi": 62,
      "hit": false,
      "t": 19354.82,
      "d": 1008.0635416666664,
      "v": 84
    },
    {
      "midi": 60,
      "hit": false,
      "t": 20322.560999999998,
      "d": 100.806354166667,
      "v": 88
    },
    {
      "midi": 60,
      "hit": false,
      "t": 20322.560999999998,
      "d": 267.1368385416645,
      "v": 82
    },
    {
      "midi": 60,
      "hit": false,
      "t": 20322.560999999998,
      "d": 267.1368385416645,
      "v": 82
    },
    {
      "midi": 55,
      "hit": false,
      "t": 21290.301999999996,
      "d": 2505.0379010416655,
      "v": 71
    },
    {
      "midi": 52,
      "hit": false,
      "t": 21290.301999999996,
      "d": 2580.6426666666666,
      "v": 61
    },
    {
      "midi": 60,
      "hit": false,
      "t": 21290.301999999996,
      "d": 2580.6426666666666,
      "v": 66
    },
    {
      "midi": 36,
      "hit": false,
      "t": 21290.301999999996,
      "d": 3437.4966770833344,
      "v": 58
    },
    {
      "midi": 48,
      "hit": false,
      "t": 21290.301999999996,
      "d": 3639.1093854166684,
      "v": 62
    },
    {
      "midi": 55,
      "hit": false,
      "t": 21290.301999999996,
      "d": 2505.0379010416655,
      "v": 71
    },
    {
      "midi": 52,
      "hit": false,
      "t": 21290.301999999996,
      "d": 2580.6426666666666,
      "v": 61
    },
    {
      "midi": 60,
      "hit": false,
      "t": 21290.301999999996,
      "d": 2580.6426666666666,
      "v": 66
    },
    {
      "midi": 36,
      "hit": false,
      "t": 21290.301999999996,
      "d": 3437.4966770833344,
      "v": 58
    },
    {
      "midi": 48,
      "hit": false,
      "t": 21290.301999999996,
      "d": 3639.1093854166684,
      "v": 62
    },
    {
      "midi": 60,
      "hit": false,
      "t": 21290.302,
      "d": 3447.577312499998,
      "v": 83
    },
    {
      "midi": 55,
      "hit": false,
      "t": 21290.302,
      "d": 3593.7465260416648,
      "v": 78
    },
    {
      "midi": 52,
      "hit": false,
      "t": 21290.302,
      "d": 3649.190020833332,
      "v": 53
    },
    {
      "midi": 55,
      "hit": false,
      "t": 25161.265999999996,
      "d": 2404.231546875002,
      "v": 84
    },
    {
      "midi": 52,
      "hit": false,
      "t": 25161.265999999996,
      "d": 2555.441078125001,
      "v": 76
    },
    {
      "midi": 62,
      "hit": false,
      "t": 25161.265999999996,
      "d": 287.2981093749986,
      "v": 70
    },
    {
      "midi": 48,
      "hit": false,
      "t": 25161.265999999996,
      "d": 2399.191229166663,
      "v": 73
    },
    {
      "midi": 36,
      "hit": false,
      "t": 25161.265999999996,
      "d": 2535.279807291663,
      "v": 58
    },
    {
      "midi": 55,
      "hit": false,
      "t": 25161.265999999996,
      "d": 2973.787447916664,
      "v": 79
    },
    {
      "midi": 52,
      "hit": false,
      "t": 25161.265999999996,
      "d": 3084.674437499998,
      "v": 72
    },
    {
      "midi": 62,
      "hit": false,
      "t": 25161.265999999996,
      "d": 287.2981093749986,
      "v": 70
    },
    {
      "midi": 48,
      "hit": false,
      "t": 25161.265999999996,
      "d": 2399.191229166663,
      "v": 73
    },
    {
      "midi": 36,
      "hit": false,
      "t": 25161.265999999996,
      "d": 2535.279807291663,
      "v": 58
    },
    {
      "midi": 55,
      "hit": false,
      "t": 25161.265999999996,
      "d": 2973.787447916664,
      "v": 79
    },
    {
      "midi": 52,
      "hit": false,
      "t": 25161.265999999996,
      "d": 3084.674437499998,
      "v": 72
    },
    {
      "midi": 60,
      "hit": false,
      "t": 25403.201249999995,
      "d": 136.0885781249999,
      "v": 80
    },
    {
      "midi": 60,
      "hit": false,
      "t": 25403.201249999995,
      "d": 136.0885781249999,
      "v": 80
    },
    {
      "midi": 60,
      "hit": false,
      "t": 25645.136499999993,
      "d": 2600.8039375000008,
      "v": 72
    },
    {
      "midi": 60,
      "hit": false,
      "t": 25645.136499999993,
      "d": 2600.8039375000008,
      "v": 72
    },
    {
      "midi": 64,
      "hit": false,
      "t": 29032.229999999992,
      "d": 1154.2327552083334,
      "v": 73
    },
    {
      "midi": 60,
      "hit": false,
      "t": 29032.229999999992,
      "d": 1164.3133906250005,
      "v": 71
    },
    {
      "midi": 45,
      "hit": false,
      "t": 29032.229999999992,
      "d": 3482.859536458338,
      "v": 71
    },
    {
      "midi": 64,
      "hit": false,
      "t": 29032.229999999992,
      "d": 1154.2327552083334,
      "v": 73
    },
    {
      "midi": 60,
      "hit": false,
      "t": 29032.229999999992,
      "d": 1164.3133906250005,
      "v": 71
    },
    {
      "midi": 45,
      "hit": false,
      "t": 29032.229999999992,
      "d": 3482.859536458338,
      "v": 71
    },
    {
      "midi": 60,
      "hit": false,
      "t": 29032.229999999996,
      "d": 3729.8351041666683,
      "v": 70
    },
    {
      "midi": 64,
      "hit": false,
      "t": 29032.229999999996,
      "d": 3790.3189166666707,
      "v": 72
    },
    {
      "midi": 52,
      "hit": false,
      "t": 29516.100499999993,
      "d": 2641.126479166669,
      "v": 58
    },
    {
      "midi": 52,
      "hit": false,
      "t": 29516.100499999993,
      "d": 2641.126479166669,
      "v": 58
    },
    {
      "midi": 72,
      "hit": false,
      "t": 29999.970999999994,
      "d": 141.12889583333163,
      "v": 78
    },
    {
      "midi": 57,
      "hit": false,
      "t": 29999.970999999994,
      "d": 1290.3213333333333,
      "v": 72
    },
    {
      "midi": 72,
      "hit": false,
      "t": 29999.970999999994,
      "d": 141.12889583333163,
      "v": 78
    },
    {
      "midi": 57,
      "hit": false,
      "t": 29999.970999999994,
      "d": 1290.3213333333333,
      "v": 72
    },
    {
      "midi": 60,
      "hit": false,
      "t": 30483.84149999999,
      "d": 136.0885781249999,
      "v": 58
    },
    {
      "midi": 71,
      "hit": false,
      "t": 30483.84149999999,
      "d": 685.4832083333349,
      "v": 71
    },
    {
      "midi": 60,
      "hit": false,
      "t": 30483.84149999999,
      "d": 136.0885781249999,
      "v": 58
    },
    {
      "midi": 71,
      "hit": false,
      "t": 30483.84149999999,
      "d": 685.4832083333349,
      "v": 71
    },
    {
      "midi": 64,
      "hit": false,
      "t": 32661.258749999997,
      "d": 191.53207291666695,
      "v": 75
    },
    {
      "midi": 64,
      "hit": false,
      "t": 32661.258749999997,
      "d": 191.53207291666695,
      "v": 75
    },
    {
      "midi": 67,
      "hit": false,
      "t": 32903.193999999996,
      "d": 90.72571874999994,
      "v": 76
    },
    {
      "midi": 60,
      "hit": false,
      "t": 32903.193999999996,
      "d": 100.80635416666337,
      "v": 64
    },
    {
      "midi": 57,
      "hit": false,
      "t": 32903.193999999996,
      "d": 120.9676249999975,
      "v": 61
    },
    {
      "midi": 48,
      "hit": false,
      "t": 32903.193999999996,
      "d": 3427.4160416666855,
      "v": 73
    },
    {
      "midi": 41,
      "hit": false,
      "t": 32903.193999999996,
      "d": 3603.82716145835,
      "v": 54
    },
    {
      "midi": 67,
      "hit": false,
      "t": 32903.193999999996,
      "d": 90.72571874999994,
      "v": 76
    },
    {
      "midi": 60,
      "hit": false,
      "t": 32903.193999999996,
      "d": 100.80635416666337,
      "v": 64
    },
    {
      "midi": 57,
      "hit": false,
      "t": 32903.193999999996,
      "d": 120.9676249999975,
      "v": 61
    },
    {
      "midi": 48,
      "hit": false,
      "t": 32903.193999999996,
      "d": 3427.4160416666855,
      "v": 73
    },
    {
      "midi": 41,
      "hit": false,
      "t": 32903.193999999996,
      "d": 3603.82716145835,
      "v": 54
    },
    {
      "midi": 60,
      "hit": false,
      "t": 32903.194,
      "d": 3402.2144531250015,
      "v": 77
    },
    {
      "midi": 57,
      "hit": false,
      "t": 32903.194,
      "d": 3407.254770833337,
      "v": 75
    },
    {
      "midi": 60,
      "hit": false,
      "t": 33145.12924999999,
      "d": 75.60476562500116,
      "v": 69
    },
    {
      "midi": 57,
      "hit": false,
      "t": 33145.12924999999,
      "d": 100.80635416667064,
      "v": 57
    },
    {
      "midi": 65,
      "hit": false,
      "t": 33145.12924999999,
      "d": 126.00794270834012,
      "v": 86
    },
    {
      "midi": 60,
      "hit": false,
      "t": 33145.12924999999,
      "d": 75.60476562500116,
      "v": 69
    },
    {
      "midi": 57,
      "hit": false,
      "t": 33145.12924999999,
      "d": 100.80635416667064,
      "v": 57
    },
    {
      "midi": 65,
      "hit": false,
      "t": 33145.12924999999,
      "d": 126.00794270834012,
      "v": 86
    },
    {
      "midi": 53,
      "hit": false,
      "t": 33387.0645,
      "d": 836.6927395833336,
      "v": 60
    },
    {
      "midi": 65,
      "hit": false,
      "t": 33387.0645,
      "d": 1325.6035572916662,
      "v": 79
    },
    {
      "midi": 60,
      "hit": false,
      "t": 33387.0645,
      "d": 1436.4905468750003,
      "v": 69
    },
    {
      "midi": 57,
      "hit": false,
      "t": 33387.0645,
      "d": 2212.699473958339,
      "v": 62
    },
    {
      "midi": 53,
      "hit": false,
      "t": 33387.0645,
      "d": 836.6927395833336,
      "v": 60
    },
    {
      "midi": 65,
      "hit": false,
      "t": 33387.0645,
      "d": 1325.6035572916662,
      "v": 79
    },
    {
      "midi": 60,
      "hit": false,
      "t": 33387.0645,
      "d": 1436.4905468750003,
      "v": 69
    },
    {
      "midi": 57,
      "hit": false,
      "t": 33387.0645,
      "d": 2212.699473958339,
      "v": 62
    },
    {
      "midi": 64,
      "hit": false,
      "t": 34838.676,
      "d": 302.41906250000466,
      "v": 65
    },
    {
      "midi": 64,
      "hit": false,
      "t": 34838.676,
      "d": 302.41906250000466,
      "v": 65
    },
    {
      "midi": 62,
      "hit": false,
      "t": 35080.61125,
      "d": 408.2657343750034,
      "v": 73
    },
    {
      "midi": 62,
      "hit": false,
      "t": 35080.61125,
      "d": 408.2657343750034,
      "v": 73
    },
    {
      "midi": 62,
      "hit": false,
      "t": 35806.41700000001,
      "d": 201.612708333334,
      "v": 77
    },
    {
      "midi": 62,
      "hit": false,
      "t": 35806.41700000001,
      "d": 201.612708333334,
      "v": 77
    },
    {
      "midi": 60,
      "hit": false,
      "t": 36048.35225000001,
      "d": 206.65302604166936,
      "v": 72
    },
    {
      "midi": 60,
      "hit": false,
      "t": 36048.35225000001,
      "d": 206.65302604166936,
      "v": 72
    },
    {
      "midi": 64,
      "hit": false,
      "t": 36290.28750000001,
      "d": 483.87049999999726,
      "v": 82
    },
    {
      "midi": 64,
      "hit": false,
      "t": 36290.28750000001,
      "d": 483.87049999999726,
      "v": 82
    },
    {
      "midi": 60,
      "hit": false,
      "t": 36774.15800000001,
      "d": 2353.8283697916704,
      "v": 84
    },
    {
      "midi": 55,
      "hit": false,
      "t": 36774.15800000001,
      "d": 2459.675041666669,
      "v": 76
    },
    {
      "midi": 60,
      "hit": false,
      "t": 36774.15800000001,
      "d": 453.6285937499997,
      "v": 79
    },
    {
      "midi": 55,
      "hit": false,
      "t": 36774.15800000001,
      "d": 579.6365364583326,
      "v": 71
    },
    {
      "midi": 36,
      "hit": false,
      "t": 36774.15800000001,
      "d": 3679.431927083351,
      "v": 51
    },
    {
      "midi": 60,
      "hit": false,
      "t": 36774.15800000001,
      "d": 453.6285937499997,
      "v": 79
    },
    {
      "midi": 55,
      "hit": false,
      "t": 36774.15800000001,
      "d": 579.6365364583326,
      "v": 71
    },
    {
      "midi": 36,
      "hit": false,
      "t": 36774.15800000001,
      "d": 3679.431927083351,
      "v": 51
    },
    {
      "midi": 43,
      "hit": false,
      "t": 37258.02850000001,
      "d": 3225.8033333333515,
      "v": 73
    },
    {
      "midi": 43,
      "hit": false,
      "t": 37258.02850000001,
      "d": 3225.8033333333515,
      "v": 73
    },
    {
      "midi": 48,
      "hit": false,
      "t": 37741.89900000001,
      "d": 1376.0067343750052,
      "v": 73
    },
    {
      "midi": 48,
      "hit": false,
      "t": 37741.89900000001,
      "d": 1376.0067343750052,
      "v": 73
    },
    {
      "midi": 52,
      "hit": false,
      "t": 37983.834250000014,
      "d": 1411.288958333338,
      "v": 68
    },
    {
      "midi": 52,
      "hit": false,
      "t": 37983.834250000014,
      "d": 1411.288958333338,
      "v": 68
    },
    {
      "midi": 55,
      "hit": false,
      "t": 38225.76950000002,
      "d": 1456.6518177083417,
      "v": 87
    },
    {
      "midi": 55,
      "hit": false,
      "t": 38225.76950000002,
      "d": 1456.6518177083417,
      "v": 87
    },
    {
      "midi": 48,
      "hit": false,
      "t": 39435.44575000002,
      "d": 1018.1441770833408,
      "v": 73
    },
    {
      "midi": 48,
      "hit": false,
      "t": 39435.44575000002,
      "d": 1018.1441770833408,
      "v": 73
    },
    {
      "midi": 52,
      "hit": false,
      "t": 39677.38100000002,
      "d": 776.2089270833385,
      "v": 83
    },
    {
      "midi": 52,
      "hit": false,
      "t": 39677.38100000002,
      "d": 776.2089270833385,
      "v": 83
    },
    {
      "midi": 57,
      "hit": false,
      "t": 39919.316250000025,
      "d": 277.2174739583352,
      "v": 82
    },
    {
      "midi": 57,
      "hit": false,
      "t": 39919.316250000025,
      "d": 277.2174739583352,
      "v": 82
    },
    {
      "midi": 60,
      "hit": false,
      "t": 40161.25150000003,
      "d": 307.45938020833273,
      "v": 100
    },
    {
      "midi": 60,
      "hit": false,
      "t": 40161.25150000003,
      "d": 307.45938020833273,
      "v": 100
    },
    {
      "midi": 62,
      "hit": false,
      "t": 40645.12200000001,
      "d": 3210.682380208331,
      "v": 78
    },
    {
      "midi": 57,
      "hit": false,
      "t": 40645.12200000001,
      "d": 3266.125874999998,
      "v": 71
    },
    {
      "midi": 53,
      "hit": false,
      "t": 40645.12200000001,
      "d": 3387.0934999999954,
      "v": 71
    },
    {
      "midi": 62,
      "hit": false,
      "t": 40645.122000000025,
      "d": 685.4832083333313,
      "v": 64
    },
    {
      "midi": 57,
      "hit": false,
      "t": 40645.122000000025,
      "d": 700.60416145833,
      "v": 52
    },
    {
      "midi": 53,
      "hit": false,
      "t": 40645.122000000025,
      "d": 745.9670208333337,
      "v": 68
    },
    {
      "midi": 38,
      "hit": false,
      "t": 40645.122000000025,
      "d": 3452.617630208333,
      "v": 68
    },
    {
      "midi": 62,
      "hit": false,
      "t": 40645.122000000025,
      "d": 685.4832083333313,
      "v": 64
    },
    {
      "midi": 57,
      "hit": false,
      "t": 40645.122000000025,
      "d": 700.60416145833,
      "v": 52
    },
    {
      "midi": 53,
      "hit": false,
      "t": 40645.122000000025,
      "d": 745.9670208333337,
      "v": 68
    },
    {
      "midi": 38,
      "hit": false,
      "t": 40645.122000000025,
      "d": 3452.617630208333,
      "v": 68
    },
    {
      "midi": 57,
      "hit": false,
      "t": 41612.86300000003,
      "d": 231.85461458333157,
      "v": 79
    },
    {
      "midi": 62,
      "hit": false,
      "t": 41612.86300000003,
      "d": 282.25779166666325,
      "v": 85
    },
    {
      "midi": 57,
      "hit": false,
      "t": 41612.86300000003,
      "d": 231.85461458333157,
      "v": 79
    },
    {
      "midi": 62,
      "hit": false,
      "t": 41612.86300000003,
      "d": 282.25779166666325,
      "v": 85
    },
    {
      "midi": 64,
      "hit": false,
      "t": 41854.79825000002,
      "d": 110.88698958333407,
      "v": 77
    },
    {
      "midi": 64,
      "hit": false,
      "t": 41854.79825000002,
      "d": 110.88698958333407,
      "v": 77
    },
    {
      "midi": 65,
      "hit": false,
      "t": 42096.733500000024,
      "d": 201.612708333334,
      "v": 94
    },
    {
      "midi": 65,
      "hit": false,
      "t": 42096.733500000024,
      "d": 201.612708333334,
      "v": 94
    },
    {
      "midi": 64,
      "hit": false,
      "t": 44032.21550000003,
      "d": 246.97556770833035,
      "v": 85
    },
    {
      "midi": 64,
      "hit": false,
      "t": 44032.21550000003,
      "d": 246.97556770833035,
      "v": 85
    },
    {
      "midi": 62,
      "hit": false,
      "t": 44274.15075000002,
      "d": 226.8142968750035,
      "v": 82
    },
    {
      "midi": 62,
      "hit": false,
      "t": 44274.15075000002,
      "d": 226.8142968750035,
      "v": 82
    },
    {
      "midi": 57,
      "hit": false,
      "t": 44516.08600000001,
      "d": 3079.6341197916627,
      "v": 68
    },
    {
      "midi": 60,
      "hit": false,
      "t": 44516.08600000001,
      "d": 3185.4807916666614,
      "v": 76
    },
    {
      "midi": 60,
      "hit": false,
      "t": 44516.086000000025,
      "d": 362.90287499999977,
      "v": 67
    },
    {
      "midi": 57,
      "hit": false,
      "t": 44516.086000000025,
      "d": 569.5559010416619,
      "v": 64
    },
    {
      "midi": 33,
      "hit": false,
      "t": 44516.086000000025,
      "d": 3437.49667708332,
      "v": 68
    },
    {
      "midi": 60,
      "hit": false,
      "t": 44516.086000000025,
      "d": 362.90287499999977,
      "v": 67
    },
    {
      "midi": 57,
      "hit": false,
      "t": 44516.086000000025,
      "d": 569.5559010416619,
      "v": 64
    },
    {
      "midi": 33,
      "hit": false,
      "t": 44516.086000000025,
      "d": 3437.49667708332,
      "v": 68
    },
    {
      "midi": 60,
      "hit": false,
      "t": 44999.95650000002,
      "d": 141.12889583333163,
      "v": 72
    },
    {
      "midi": 60,
      "hit": false,
      "t": 44999.95650000002,
      "d": 141.12889583333163,
      "v": 72
    },
    {
      "midi": 60,
      "hit": false,
      "t": 45483.82700000002,
      "d": 50.403177083331684,
      "v": 85
    },
    {
      "midi": 60,
      "hit": false,
      "t": 45483.82700000002,
      "d": 50.403177083331684,
      "v": 85
    },
    {
      "midi": 72,
      "hit": false,
      "t": 45725.762250000014,
      "d": 231.85461458333157,
      "v": 91
    },
    {
      "midi": 72,
      "hit": false,
      "t": 45725.762250000014,
      "d": 231.85461458333157,
      "v": 91
    },
    {
      "midi": 71,
      "hit": false,
      "t": 45967.69750000001,
      "d": 146.16921354166698,
      "v": 79
    },
    {
      "midi": 71,
      "hit": false,
      "t": 45967.69750000001,
      "d": 146.16921354166698,
      "v": 79
    },
    {
      "midi": 62,
      "hit": false,
      "t": 48387.05,
      "d": 3377.012864583332,
      "v": 76
    },
    {
      "midi": 59,
      "hit": false,
      "t": 48387.05,
      "d": 3921.3671770833316,
      "v": 75
    },
    {
      "midi": 69,
      "hit": false,
      "t": 48387.05000000001,
      "d": 403.225416666668,
      "v": 70
    },
    {
      "midi": 43,
      "hit": false,
      "t": 48387.05000000001,
      "d": 1189.51497916667,
      "v": 62
    },
    {
      "midi": 59,
      "hit": false,
      "t": 48387.05000000001,
      "d": 1310.4826041666674,
      "v": 65
    },
    {
      "midi": 62,
      "hit": false,
      "t": 48387.05000000001,
      "d": 1512.0953125000015,
      "v": 72
    },
    {
      "midi": 31,
      "hit": false,
      "t": 48387.05000000001,
      "d": 3870.964000000007,
      "v": 60
    },
    {
      "midi": 69,
      "hit": false,
      "t": 48387.05000000001,
      "d": 403.225416666668,
      "v": 70
    },
    {
      "midi": 43,
      "hit": false,
      "t": 48387.05000000001,
      "d": 1189.51497916667,
      "v": 62
    },
    {
      "midi": 59,
      "hit": false,
      "t": 48387.05000000001,
      "d": 1310.4826041666674,
      "v": 65
    },
    {
      "midi": 62,
      "hit": false,
      "t": 48387.05000000001,
      "d": 1512.0953125000015,
      "v": 72
    },
    {
      "midi": 31,
      "hit": false,
      "t": 48387.05000000001,
      "d": 3870.964000000007,
      "v": 60
    },
    {
      "midi": 67,
      "hit": false,
      "t": 48870.920500000015,
      "d": 947.5797291666604,
      "v": 64
    },
    {
      "midi": 67,
      "hit": false,
      "t": 48870.920500000015,
      "d": 947.5797291666604,
      "v": 64
    },
    {
      "midi": 43,
      "hit": false,
      "t": 49838.66150000001,
      "d": 811.4911510416714,
      "v": 52
    },
    {
      "midi": 43,
      "hit": false,
      "t": 49838.66150000001,
      "d": 811.4911510416714,
      "v": 52
    },
    {
      "midi": 59,
      "hit": false,
      "t": 50080.59675000001,
      "d": 695.563843750002,
      "v": 43
    },
    {
      "midi": 59,
      "hit": false,
      "t": 50080.59675000001,
      "d": 695.563843750002,
      "v": 43
    },
    {
      "midi": 67,
      "hit": false,
      "t": 50322.532000000014,
      "d": 337.7012864583303,
      "v": 82
    },
    {
      "midi": 62,
      "hit": false,
      "t": 50322.532000000014,
      "d": 357.8625572916644,
      "v": 86
    },
    {
      "midi": 67,
      "hit": false,
      "t": 50322.532000000014,
      "d": 337.7012864583303,
      "v": 82
    },
    {
      "midi": 62,
      "hit": false,
      "t": 50322.532000000014,
      "d": 357.8625572916644,
      "v": 86
    },
    {
      "midi": 43,
      "hit": false,
      "t": 51290.273000000016,
      "d": 952.620046875003,
      "v": 73
    },
    {
      "midi": 43,
      "hit": false,
      "t": 51290.273000000016,
      "d": 952.620046875003,
      "v": 73
    },
    {
      "midi": 55,
      "hit": false,
      "t": 51774.14350000001,
      "d": 151.20953125000233,
      "v": 73
    },
    {
      "midi": 55,
      "hit": false,
      "t": 51774.14350000001,
      "d": 151.20953125000233,
      "v": 73
    },
    {
      "midi": 55,
      "hit": false,
      "t": 52016.078750000015,
      "d": 241.93525000000227,
      "v": 79
    },
    {
      "midi": 55,
      "hit": false,
      "t": 52016.078750000015,
      "d": 241.93525000000227,
      "v": 79
    },
    {
      "midi": 55,
      "hit": false,
      "t": 52258.014,
      "d": 1108.8698958333334,
      "v": 86
    },
    {
      "midi": 50,
      "hit": false,
      "t": 52258.014,
      "d": 3482.8595364583307,
      "v": 72
    },
    {
      "midi": 62,
      "hit": false,
      "t": 52258.01400000002,
      "d": 776.2089270833312,
      "v": 61
    },
    {
      "midi": 67,
      "hit": false,
      "t": 52258.01400000002,
      "d": 826.6121041666629,
      "v": 62
    },
    {
      "midi": 55,
      "hit": false,
      "t": 52258.01400000002,
      "d": 2258.0623333333206,
      "v": 52
    },
    {
      "midi": 43,
      "hit": false,
      "t": 52258.01400000002,
      "d": 3850.8027291666513,
      "v": 53
    },
    {
      "midi": 50,
      "hit": false,
      "t": 52258.01400000002,
      "d": 3865.92368229165,
      "v": 61
    },
    {
      "midi": 62,
      "hit": false,
      "t": 52258.01400000002,
      "d": 776.2089270833312,
      "v": 61
    },
    {
      "midi": 67,
      "hit": false,
      "t": 52258.01400000002,
      "d": 826.6121041666629,
      "v": 62
    },
    {
      "midi": 55,
      "hit": false,
      "t": 52258.01400000002,
      "d": 2258.0623333333206,
      "v": 52
    },
    {
      "midi": 43,
      "hit": false,
      "t": 52258.01400000002,
      "d": 3850.8027291666513,
      "v": 53
    },
    {
      "midi": 50,
      "hit": false,
      "t": 52258.01400000002,
      "d": 3865.92368229165,
      "v": 61
    },
    {
      "midi": 69,
      "hit": false,
      "t": 53225.75500000001,
      "d": 534.273677083329,
      "v": 76
    },
    {
      "midi": 62,
      "hit": false,
      "t": 53225.75500000001,
      "d": 2096.772166666662,
      "v": 70
    },
    {
      "midi": 69,
      "hit": false,
      "t": 53225.75500000001,
      "d": 534.273677083329,
      "v": 76
    },
    {
      "midi": 62,
      "hit": false,
      "t": 53225.75500000001,
      "d": 2096.772166666662,
      "v": 70
    },
    {
      "midi": 53,
      "hit": false,
      "t": 53709.6255,
      "d": 2137.0947083333303,
      "v": 76
    },
    {
      "midi": 71,
      "hit": false,
      "t": 53709.62550000001,
      "d": 1577.619442708332,
      "v": 84
    },
    {
      "midi": 71,
      "hit": false,
      "t": 53709.62550000001,
      "d": 1577.619442708332,
      "v": 84
    },
    {
      "midi": 55,
      "hit": false,
      "t": 55161.23700000001,
      "d": 917.3378229166628,
      "v": 71
    },
    {
      "midi": 55,
      "hit": false,
      "t": 55161.23700000001,
      "d": 917.3378229166628,
      "v": 71
    },
    {
      "midi": 62,
      "hit": false,
      "t": 55887.04275000001,
      "d": 206.6530260416621,
      "v": 65
    },
    {
      "midi": 62,
      "hit": false,
      "t": 55887.04275000001,
      "d": 206.6530260416621,
      "v": 65
    },
    {
      "midi": 52,
      "hit": false,
      "t": 56128.977999999996,
      "d": 3205.642062500003,
      "v": 72
    },
    {
      "midi": 55,
      "hit": false,
      "t": 56128.977999999996,
      "d": 3215.722697916666,
      "v": 80
    },
    {
      "midi": 62,
      "hit": false,
      "t": 56128.978,
      "d": 171.37080208333646,
      "v": 80
    },
    {
      "midi": 55,
      "hit": false,
      "t": 56128.978,
      "d": 524.1930416666728,
      "v": 75
    },
    {
      "midi": 52,
      "hit": false,
      "t": 56128.978,
      "d": 544.3543125000069,
      "v": 68
    },
    {
      "midi": 36,
      "hit": false,
      "t": 56128.978,
      "d": 2419.3525000000227,
      "v": 62
    },
    {
      "midi": 48,
      "hit": false,
      "t": 56128.978,
      "d": 2444.554088541692,
      "v": 68
    },
    {
      "midi": 43,
      "hit": false,
      "t": 56128.978,
      "d": 2641.126479166691,
      "v": 70
    },
    {
      "midi": 62,
      "hit": false,
      "t": 56128.978,
      "d": 171.37080208333646,
      "v": 80
    },
    {
      "midi": 55,
      "hit": false,
      "t": 56128.978,
      "d": 524.1930416666728,
      "v": 75
    },
    {
      "midi": 52,
      "hit": false,
      "t": 56128.978,
      "d": 544.3543125000069,
      "v": 68
    },
    {
      "midi": 36,
      "hit": false,
      "t": 56128.978,
      "d": 2419.3525000000227,
      "v": 62
    },
    {
      "midi": 48,
      "hit": false,
      "t": 56128.978,
      "d": 2444.554088541692,
      "v": 68
    },
    {
      "midi": 43,
      "hit": false,
      "t": 56128.978,
      "d": 2641.126479166691,
      "v": 70
    },
    {
      "midi": 60,
      "hit": false,
      "t": 56612.84850000001,
      "d": 141.1288958333389,
      "v": 82
    },
    {
      "midi": 60,
      "hit": false,
      "t": 56612.84850000001,
      "d": 141.1288958333389,
      "v": 82
    },
    {
      "midi": 64,
      "hit": false,
      "t": 57580.58950000002,
      "d": 564.515583333341,
      "v": 51
    },
    {
      "midi": 64,
      "hit": false,
      "t": 57580.58950000002,
      "d": 564.515583333341,
      "v": 51
    },
    {
      "midi": 67,
      "hit": false,
      "t": 57822.52475000002,
      "d": 282.2577916666705,
      "v": 72
    },
    {
      "midi": 67,
      "hit": false,
      "t": 57822.52475000002,
      "d": 282.2577916666705,
      "v": 72
    },
    {
      "midi": 76,
      "hit": false,
      "t": 58064.46000000002,
      "d": 75.60476562500116,
      "v": 96
    },
    {
      "midi": 76,
      "hit": false,
      "t": 58064.46000000002,
      "d": 75.60476562500116,
      "v": 96
    },
    {
      "midi": 57,
      "hit": false,
      "t": 59999.941999999995,
      "d": 3427.416041666671,
      "v": 68
    },
    {
      "midi": 60,
      "hit": false,
      "t": 59999.941999999995,
      "d": 3467.738583333339,
      "v": 77
    },
    {
      "midi": 64,
      "hit": false,
      "t": 59999.942000000025,
      "d": 2767.1344218749946,
      "v": 53
    },
    {
      "midi": 60,
      "hit": false,
      "t": 59999.942000000025,
      "d": 3407.2547708333223,
      "v": 59
    },
    {
      "midi": 45,
      "hit": false,
      "t": 59999.942000000025,
      "d": 3669.3512916666587,
      "v": 67
    },
    {
      "midi": 64,
      "hit": false,
      "t": 59999.942000000025,
      "d": 2767.1344218749946,
      "v": 53
    },
    {
      "midi": 60,
      "hit": false,
      "t": 59999.942000000025,
      "d": 3407.2547708333223,
      "v": 59
    },
    {
      "midi": 45,
      "hit": false,
      "t": 59999.942000000025,
      "d": 3669.3512916666587,
      "v": 67
    },
    {
      "midi": 52,
      "hit": false,
      "t": 60483.81250000002,
      "d": 3346.770958333327,
      "v": 68
    },
    {
      "midi": 52,
      "hit": false,
      "t": 60483.81250000002,
      "d": 3346.770958333327,
      "v": 68
    },
    {
      "midi": 72,
      "hit": false,
      "t": 60967.68300000002,
      "d": 181.45143749999988,
      "v": 94
    },
    {
      "midi": 57,
      "hit": false,
      "t": 60967.68300000002,
      "d": 1633.062937499999,
      "v": 82
    },
    {
      "midi": 72,
      "hit": false,
      "t": 60967.68300000002,
      "d": 181.45143749999988,
      "v": 94
    },
    {
      "midi": 57,
      "hit": false,
      "t": 60967.68300000002,
      "d": 1633.062937499999,
      "v": 82
    },
    {
      "midi": 71,
      "hit": false,
      "t": 61451.553500000016,
      "d": 483.87050000000454,
      "v": 81
    },
    {
      "midi": 71,
      "hit": false,
      "t": 61451.553500000016,
      "d": 483.87050000000454,
      "v": 81
    },
    {
      "midi": 69,
      "hit": false,
      "t": 61693.48875000002,
      "d": 1612.9016666666648,
      "v": 67
    },
    {
      "midi": 69,
      "hit": false,
      "t": 61693.48875000002,
      "d": 1612.9016666666648,
      "v": 67
    },
    {
      "midi": 60,
      "hit": false,
      "t": 63628.970750000015,
      "d": 231.85461458333157,
      "v": 80
    },
    {
      "midi": 60,
      "hit": false,
      "t": 63628.970750000015,
      "d": 231.85461458333157,
      "v": 80
    },
    {
      "midi": 57,
      "hit": false,
      "t": 63870.906,
      "d": 2958.6664947916724,
      "v": 76
    },
    {
      "midi": 60,
      "hit": false,
      "t": 63870.906,
      "d": 3054.4325312500005,
      "v": 79
    },
    {
      "midi": 67,
      "hit": false,
      "t": 63870.90600000001,
      "d": 529.2333593750009,
      "v": 73
    },
    {
      "midi": 60,
      "hit": false,
      "t": 63870.90600000001,
      "d": 655.2413020833337,
      "v": 76
    },
    {
      "midi": 57,
      "hit": false,
      "t": 63870.90600000001,
      "d": 675.4025729166679,
      "v": 72
    },
    {
      "midi": 41,
      "hit": false,
      "t": 63870.90600000001,
      "d": 3472.778901041682,
      "v": 76
    },
    {
      "midi": 48,
      "hit": false,
      "t": 63870.90600000001,
      "d": 3588.7062083333512,
      "v": 73
    },
    {
      "midi": 53,
      "hit": false,
      "t": 63870.90600000001,
      "d": 3618.948114583349,
      "v": 76
    },
    {
      "midi": 67,
      "hit": false,
      "t": 63870.90600000001,
      "d": 529.2333593750009,
      "v": 73
    },
    {
      "midi": 60,
      "hit": false,
      "t": 63870.90600000001,
      "d": 655.2413020833337,
      "v": 76
    },
    {
      "midi": 57,
      "hit": false,
      "t": 63870.90600000001,
      "d": 675.4025729166679,
      "v": 72
    },
    {
      "midi": 41,
      "hit": false,
      "t": 63870.90600000001,
      "d": 3472.778901041682,
      "v": 76
    },
    {
      "midi": 48,
      "hit": false,
      "t": 63870.90600000001,
      "d": 3588.7062083333512,
      "v": 73
    },
    {
      "midi": 53,
      "hit": false,
      "t": 63870.90600000001,
      "d": 3618.948114583349,
      "v": 76
    },
    {
      "midi": 65,
      "hit": false,
      "t": 64354.77650000001,
      "d": 267.13683854167175,
      "v": 62
    },
    {
      "midi": 65,
      "hit": false,
      "t": 64354.77650000001,
      "d": 267.13683854167175,
      "v": 62
    },
    {
      "midi": 65,
      "hit": false,
      "t": 65322.51750000001,
      "d": 438.50764062499366,
      "v": 79
    },
    {
      "midi": 65,
      "hit": false,
      "t": 65322.51750000001,
      "d": 438.50764062499366,
      "v": 79
    },
    {
      "midi": 67,
      "hit": false,
      "t": 65806.388,
      "d": 645.160666666663,
      "v": 92
    },
    {
      "midi": 67,
      "hit": false,
      "t": 65806.388,
      "d": 645.160666666663,
      "v": 92
    },
    {
      "midi": 65,
      "hit": false,
      "t": 66532.19375,
      "d": 80.64508333333652,
      "v": 69
    },
    {
      "midi": 65,
      "hit": false,
      "t": 66532.19375,
      "d": 80.64508333333652,
      "v": 69
    },
    {
      "midi": 65,
      "hit": false,
      "t": 66774.12900000002,
      "d": 201.61270833332674,
      "v": 85
    },
    {
      "midi": 65,
      "hit": false,
      "t": 66774.12900000002,
      "d": 201.61270833332674,
      "v": 85
    },
    {
      "midi": 67,
      "hit": false,
      "t": 67016.06425000001,
      "d": 226.8142968750035,
      "v": 73
    },
    {
      "midi": 67,
      "hit": false,
      "t": 67016.06425000001,
      "d": 226.8142968750035,
      "v": 73
    },
    {
      "midi": 64,
      "hit": false,
      "t": 67257.99950000002,
      "d": 403.2254166666826,
      "v": 91
    },
    {
      "midi": 64,
      "hit": false,
      "t": 67257.99950000002,
      "d": 403.2254166666826,
      "v": 91
    },
    {
      "midi": 60,
      "hit": false,
      "t": 67741.87000000001,
      "d": 2923.384270833325,
      "v": 82
    },
    {
      "midi": 55,
      "hit": false,
      "t": 67741.87000000001,
      "d": 3029.2309427083237,
      "v": 83
    },
    {
      "midi": 55,
      "hit": false,
      "t": 67741.87000000004,
      "d": 1219.7568854166748,
      "v": 70
    },
    {
      "midi": 60,
      "hit": false,
      "t": 67741.87000000004,
      "d": 1365.9260989583418,
      "v": 75
    },
    {
      "midi": 36,
      "hit": false,
      "t": 67741.87000000004,
      "d": 3805.4398697916913,
      "v": 68
    },
    {
      "midi": 55,
      "hit": false,
      "t": 67741.87000000004,
      "d": 1219.7568854166748,
      "v": 70
    },
    {
      "midi": 60,
      "hit": false,
      "t": 67741.87000000004,
      "d": 1365.9260989583418,
      "v": 75
    },
    {
      "midi": 36,
      "hit": false,
      "t": 67741.87000000004,
      "d": 3805.4398697916913,
      "v": 68
    },
    {
      "midi": 43,
      "hit": false,
      "t": 68225.74050000004,
      "d": 3165.319520833349,
      "v": 70
    },
    {
      "midi": 43,
      "hit": false,
      "t": 68225.74050000004,
      "d": 3165.319520833349,
      "v": 70
    },
    {
      "midi": 48,
      "hit": false,
      "t": 68709.61100000005,
      "d": 75.60476562500116,
      "v": 67
    },
    {
      "midi": 48,
      "hit": false,
      "t": 68709.61100000005,
      "d": 75.60476562500116,
      "v": 67
    },
    {
      "midi": 52,
      "hit": false,
      "t": 69193.48150000005,
      "d": 1451.611499999999,
      "v": 48
    },
    {
      "midi": 52,
      "hit": false,
      "t": 69193.48150000005,
      "d": 1451.611499999999,
      "v": 48
    },
    {
      "midi": 55,
      "hit": false,
      "t": 70161.22250000005,
      "d": 1370.966416666677,
      "v": 64
    },
    {
      "midi": 55,
      "hit": false,
      "t": 70161.22250000005,
      "d": 1370.966416666677,
      "v": 64
    },
    {
      "midi": 60,
      "hit": false,
      "t": 70645.09300000005,
      "d": 524.1930416666728,
      "v": 88
    },
    {
      "midi": 60,
      "hit": false,
      "t": 70645.09300000005,
      "d": 524.1930416666728,
      "v": 88
    },
    {
      "midi": 62,
      "hit": false,
      "t": 71128.96350000006,
      "d": 413.3060520833387,
      "v": 82
    },
    {
      "midi": 62,
      "hit": false,
      "t": 71128.96350000006,
      "d": 413.3060520833387,
      "v": 82
    },
    {
      "midi": 57,
      "hit": false,
      "t": 71612.834,
      "d": 3205.642062500003,
      "v": 89
    },
    {
      "midi": 53,
      "hit": false,
      "t": 71612.834,
      "d": 3245.964604166671,
      "v": 72
    },
    {
      "midi": 53,
      "hit": false,
      "t": 71612.83400000006,
      "d": 1260.079427083343,
      "v": 68
    },
    {
      "midi": 57,
      "hit": false,
      "t": 71612.83400000006,
      "d": 1350.8051458333357,
      "v": 79
    },
    {
      "midi": 38,
      "hit": false,
      "t": 71612.83400000006,
      "d": 3855.8430468749866,
      "v": 77
    },
    {
      "midi": 53,
      "hit": false,
      "t": 71612.83400000006,
      "d": 1260.079427083343,
      "v": 68
    },
    {
      "midi": 57,
      "hit": false,
      "t": 71612.83400000006,
      "d": 1350.8051458333357,
      "v": 79
    },
    {
      "midi": 38,
      "hit": false,
      "t": 71612.83400000006,
      "d": 3855.8430468749866,
      "v": 77
    },
    {
      "midi": 62,
      "hit": false,
      "t": 72096.70450000007,
      "d": 811.4911510416714,
      "v": 75
    },
    {
      "midi": 62,
      "hit": false,
      "t": 72096.70450000007,
      "d": 811.4911510416714,
      "v": 75
    },
    {
      "midi": 45,
      "hit": false,
      "t": 72580.57500000007,
      "d": 2893.142364583313,
      "v": 65
    },
    {
      "midi": 45,
      "hit": false,
      "t": 72580.57500000007,
      "d": 2893.142364583313,
      "v": 65
    },
    {
      "midi": 50,
      "hit": false,
      "t": 72822.51025000006,
      "d": 2610.8845729166496,
      "v": 75
    },
    {
      "midi": 50,
      "hit": false,
      "t": 72822.51025000006,
      "d": 2610.8845729166496,
      "v": 75
    },
    {
      "midi": 62,
      "hit": false,
      "t": 73064.44550000006,
      "d": 1209.676250000004,
      "v": 73
    },
    {
      "midi": 57,
      "hit": false,
      "t": 73064.44550000006,
      "d": 1310.4826041666674,
      "v": 68
    },
    {
      "midi": 53,
      "hit": false,
      "t": 73064.44550000006,
      "d": 2338.707416666657,
      "v": 67
    },
    {
      "midi": 62,
      "hit": false,
      "t": 73064.44550000006,
      "d": 1209.676250000004,
      "v": 73
    },
    {
      "midi": 57,
      "hit": false,
      "t": 73064.44550000006,
      "d": 1310.4826041666674,
      "v": 68
    },
    {
      "midi": 53,
      "hit": false,
      "t": 73064.44550000006,
      "d": 2338.707416666657,
      "v": 67
    },
    {
      "midi": 62,
      "hit": false,
      "t": 73548.316,
      "d": 1350.8051458333357,
      "v": 76
    },
    {
      "midi": 65,
      "hit": false,
      "t": 74274.12175000006,
      "d": 408.2657343749888,
      "v": 88
    },
    {
      "midi": 65,
      "hit": false,
      "t": 74274.12175000006,
      "d": 408.2657343749888,
      "v": 88
    },
    {
      "midi": 62,
      "hit": false,
      "t": 74516.05700000006,
      "d": 831.6524218749983,
      "v": 66
    },
    {
      "midi": 62,
      "hit": false,
      "t": 74516.05700000006,
      "d": 831.6524218749983,
      "v": 66
    },
    {
      "midi": 57,
      "hit": false,
      "t": 75241.86275000006,
      "d": 186.49175520832068,
      "v": 64
    },
    {
      "midi": 57,
      "hit": false,
      "t": 75241.86275000006,
      "d": 186.49175520832068,
      "v": 64
    },
    {
      "midi": 57,
      "hit": false,
      "t": 75483.79800000001,
      "d": 1144.1521197916736,
      "v": 75
    },
    {
      "midi": 60,
      "hit": false,
      "t": 75483.79800000001,
      "d": 3467.738583333339,
      "v": 73
    },
    {
      "midi": 60,
      "hit": false,
      "t": 75483.79800000005,
      "d": 982.8619531250006,
      "v": 65
    },
    {
      "midi": 57,
      "hit": false,
      "t": 75483.79800000005,
      "d": 997.9829062500066,
      "v": 62
    },
    {
      "midi": 45,
      "hit": false,
      "t": 75483.79800000005,
      "d": 3780.238281250029,
      "v": 76
    },
    {
      "midi": 60,
      "hit": false,
      "t": 75483.79800000005,
      "d": 982.8619531250006,
      "v": 65
    },
    {
      "midi": 57,
      "hit": false,
      "t": 75483.79800000005,
      "d": 997.9829062500066,
      "v": 62
    },
    {
      "midi": 45,
      "hit": false,
      "t": 75483.79800000005,
      "d": 3780.238281250029,
      "v": 76
    },
    {
      "midi": 57,
      "hit": false,
      "t": 76935.40950000002,
      "d": 2217.7397916666523,
      "v": 18
    },
    {
      "midi": 72,
      "hit": false,
      "t": 77903.15050000006,
      "d": 519.1527239583374,
      "v": 87
    },
    {
      "midi": 72,
      "hit": false,
      "t": 77903.15050000006,
      "d": 519.1527239583374,
      "v": 87
    },
    {
      "midi": 71,
      "hit": false,
      "t": 78387.02100000007,
      "d": 534.2736770833435,
      "v": 79
    },
    {
      "midi": 71,
      "hit": false,
      "t": 78387.02100000007,
      "d": 534.2736770833435,
      "v": 79
    },
    {
      "midi": 69,
      "hit": false,
      "t": 78870.89150000007,
      "d": 483.8705000000191,
      "v": 79
    },
    {
      "midi": 69,
      "hit": false,
      "t": 78870.89150000007,
      "d": 483.8705000000191,
      "v": 79
    },
    {
      "midi": 59,
      "hit": false,
      "t": 79354.762,
      "d": 2434.4734531249997,
      "v": 72
    },
    {
      "midi": 62,
      "hit": false,
      "t": 79354.762,
      "d": 2469.7556770833326,
      "v": 80
    },
    {
      "midi": 69,
      "hit": false,
      "t": 79354.76200000009,
      "d": 468.7495468749985,
      "v": 67
    },
    {
      "midi": 59,
      "hit": false,
      "t": 79354.76200000009,
      "d": 1436.4905468750076,
      "v": 67
    },
    {
      "midi": 62,
      "hit": false,
      "t": 79354.76200000009,
      "d": 1688.5064322916733,
      "v": 74
    },
    {
      "midi": 43,
      "hit": false,
      "t": 79354.76200000009,
      "d": 3870.9639999999927,
      "v": 70
    },
    {
      "midi": 69,
      "hit": false,
      "t": 79354.76200000009,
      "d": 468.7495468749985,
      "v": 67
    },
    {
      "midi": 59,
      "hit": false,
      "t": 79354.76200000009,
      "d": 1436.4905468750076,
      "v": 67
    },
    {
      "midi": 62,
      "hit": false,
      "t": 79354.76200000009,
      "d": 1688.5064322916733,
      "v": 74
    },
    {
      "midi": 43,
      "hit": false,
      "t": 79354.76200000009,
      "d": 3870.9639999999927,
      "v": 70
    },
    {
      "midi": 67,
      "hit": false,
      "t": 79838.6325000001,
      "d": 1149.192437500009,
      "v": 64
    },
    {
      "midi": 50,
      "hit": false,
      "t": 79838.6325000001,
      "d": 3150.198567708314,
      "v": 52
    },
    {
      "midi": 67,
      "hit": false,
      "t": 79838.6325000001,
      "d": 1149.192437500009,
      "v": 64
    },
    {
      "midi": 50,
      "hit": false,
      "t": 79838.6325000001,
      "d": 3150.198567708314,
      "v": 52
    },
    {
      "midi": 55,
      "hit": false,
      "t": 80806.3735000001,
      "d": 1441.5308645833284,
      "v": 62
    },
    {
      "midi": 55,
      "hit": false,
      "t": 80806.3735000001,
      "d": 1441.5308645833284,
      "v": 62
    },
    {
      "midi": 59,
      "hit": false,
      "t": 81048.3087500001,
      "d": 1834.6756458333257,
      "v": 49
    },
    {
      "midi": 59,
      "hit": false,
      "t": 81048.3087500001,
      "d": 1834.6756458333257,
      "v": 49
    },
    {
      "midi": 62,
      "hit": false,
      "t": 81290.2440000001,
      "d": 1648.1838906249905,
      "v": 70
    },
    {
      "midi": 62,
      "hit": false,
      "t": 81290.2440000001,
      "d": 1648.1838906249905,
      "v": 70
    },
    {
      "midi": 67,
      "hit": false,
      "t": 82741.85550000009,
      "d": 221.7739791666536,
      "v": 75
    },
    {
      "midi": 67,
      "hit": false,
      "t": 82741.85550000009,
      "d": 221.7739791666536,
      "v": 75
    },
    {
      "midi": 55,
      "hit": false,
      "t": 82983.79075000007,
      "d": 201.6127083333413,
      "v": 72
    },
    {
      "midi": 55,
      "hit": false,
      "t": 82983.79075000007,
      "d": 201.6127083333413,
      "v": 72
    },
    {
      "midi": 71,
      "hit": false,
      "t": 83225.726,
      "d": 1068.5473541666724,
      "v": 75
    },
    {
      "midi": 67,
      "hit": false,
      "t": 83225.726,
      "d": 1134.071484375003,
      "v": 72
    },
    {
      "midi": 71,
      "hit": false,
      "t": 83225.72600000008,
      "d": 917.3378229166701,
      "v": 82
    },
    {
      "midi": 67,
      "hit": false,
      "t": 83225.72600000008,
      "d": 1103.8295781250054,
      "v": 71
    },
    {
      "midi": 43,
      "hit": false,
      "t": 83225.72600000008,
      "d": 3870.9639999999927,
      "v": 77
    },
    {
      "midi": 71,
      "hit": false,
      "t": 83225.72600000008,
      "d": 917.3378229166701,
      "v": 82
    },
    {
      "midi": 67,
      "hit": false,
      "t": 83225.72600000008,
      "d": 1103.8295781250054,
      "v": 71
    },
    {
      "midi": 43,
      "hit": false,
      "t": 83225.72600000008,
      "d": 3870.9639999999927,
      "v": 77
    },
    {
      "midi": 50,
      "hit": false,
      "t": 83709.59650000009,
      "d": 3387.093499999988,
      "v": 76
    },
    {
      "midi": 50,
      "hit": false,
      "t": 83709.59650000009,
      "d": 3387.093499999988,
      "v": 76
    },
    {
      "midi": 55,
      "hit": false,
      "t": 84193.46700000009,
      "d": 146.16921354166698,
      "v": 76
    },
    {
      "midi": 72,
      "hit": false,
      "t": 84193.46700000009,
      "d": 196.57239062500594,
      "v": 73
    },
    {
      "midi": 55,
      "hit": false,
      "t": 84193.46700000009,
      "d": 146.16921354166698,
      "v": 76
    },
    {
      "midi": 72,
      "hit": false,
      "t": 84193.46700000009,
      "d": 196.57239062500594,
      "v": 73
    },
    {
      "midi": 67,
      "hit": false,
      "t": 84677.3375,
      "d": 1280.24069791667,
      "v": 71
    },
    {
      "midi": 65,
      "hit": false,
      "t": 84677.3375,
      "d": 1295.361651041676,
      "v": 62
    },
    {
      "midi": 65,
      "hit": false,
      "t": 84677.3375000001,
      "d": 1718.7483385416563,
      "v": 79
    },
    {
      "midi": 72,
      "hit": false,
      "t": 84677.3375000001,
      "d": 1743.9499270833185,
      "v": 81
    },
    {
      "midi": 67,
      "hit": false,
      "t": 84677.3375000001,
      "d": 1759.0708802083245,
      "v": 84
    },
    {
      "midi": 65,
      "hit": false,
      "t": 84677.3375000001,
      "d": 1718.7483385416563,
      "v": 79
    },
    {
      "midi": 72,
      "hit": false,
      "t": 84677.3375000001,
      "d": 1743.9499270833185,
      "v": 81
    },
    {
      "midi": 67,
      "hit": false,
      "t": 84677.3375000001,
      "d": 1759.0708802083245,
      "v": 84
    },
    {
      "midi": 57,
      "hit": false,
      "t": 86370.88425000009,
      "d": 670.3622552083252,
      "v": 76
    },
    {
      "midi": 57,
      "hit": false,
      "t": 86370.88425000009,
      "d": 670.3622552083252,
      "v": 76
    },
    {
      "midi": 72,
      "hit": false,
      "t": 86612.81950000009,
      "d": 221.77397916666814,
      "v": 98
    },
    {
      "midi": 72,
      "hit": false,
      "t": 86612.81950000009,
      "d": 221.77397916666814,
      "v": 98
    },
    {
      "midi": 74,
      "hit": false,
      "t": 86854.75475000008,
      "d": 241.935249999995,
      "v": 94
    },
    {
      "midi": 74,
      "hit": false,
      "t": 86854.75475000008,
      "d": 241.935249999995,
      "v": 94
    },
    {
      "midi": 55,
      "hit": false,
      "t": 87096.69,
      "d": 3482.8595364583452,
      "v": 96
    },
    {
      "midi": 77,
      "hit": false,
      "t": 87096.69000000008,
      "d": 433.4673229166656,
      "v": 94
    },
    {
      "midi": 72,
      "hit": false,
      "t": 87096.69000000008,
      "d": 740.9267031250056,
      "v": 94
    },
    {
      "midi": 67,
      "hit": false,
      "t": 87096.69000000008,
      "d": 781.2492447916738,
      "v": 85
    },
    {
      "midi": 48,
      "hit": false,
      "t": 87096.69000000008,
      "d": 3840.722093749966,
      "v": 86
    },
    {
      "midi": 77,
      "hit": false,
      "t": 87096.69000000008,
      "d": 433.4673229166656,
      "v": 94
    },
    {
      "midi": 72,
      "hit": false,
      "t": 87096.69000000008,
      "d": 740.9267031250056,
      "v": 94
    },
    {
      "midi": 67,
      "hit": false,
      "t": 87096.69000000008,
      "d": 781.2492447916738,
      "v": 85
    },
    {
      "midi": 48,
      "hit": false,
      "t": 87096.69000000008,
      "d": 3840.722093749966,
      "v": 86
    },
    {
      "midi": 76,
      "hit": false,
      "t": 87580.56050000008,
      "d": 241.935249999995,
      "v": 73
    },
    {
      "midi": 55,
      "hit": false,
      "t": 87580.56050000008,
      "d": 498.9914531250106,
      "v": 76
    },
    {
      "midi": 76,
      "hit": false,
      "t": 87580.56050000008,
      "d": 241.935249999995,
      "v": 73
    },
    {
      "midi": 55,
      "hit": false,
      "t": 87580.56050000008,
      "d": 498.9914531250106,
      "v": 76
    },
    {
      "midi": 72,
      "hit": false,
      "t": 88064.43100000008,
      "d": 115.92730729166942,
      "v": 98
    },
    {
      "midi": 76,
      "hit": false,
      "t": 88064.43100000008,
      "d": 221.77397916666814,
      "v": 96
    },
    {
      "midi": 67,
      "hit": false,
      "t": 88064.43100000008,
      "d": 423.38668750000943,
      "v": 82
    },
    {
      "midi": 60,
      "hit": false,
      "t": 88064.43100000008,
      "d": 831.6524218749983,
      "v": 86
    },
    {
      "midi": 72,
      "hit": false,
      "t": 88064.43100000008,
      "d": 115.92730729166942,
      "v": 98
    },
    {
      "midi": 76,
      "hit": false,
      "t": 88064.43100000008,
      "d": 221.77397916666814,
      "v": 96
    },
    {
      "midi": 67,
      "hit": false,
      "t": 88064.43100000008,
      "d": 423.38668750000943,
      "v": 82
    },
    {
      "midi": 60,
      "hit": false,
      "t": 88064.43100000008,
      "d": 831.6524218749983,
      "v": 86
    },
    {
      "midi": 72,
      "hit": false,
      "t": 88306.36625000008,
      "d": 90.72571875000722,
      "v": 80
    },
    {
      "midi": 72,
      "hit": false,
      "t": 88306.36625000008,
      "d": 90.72571875000722,
      "v": 80
    },
    {
      "midi": 72,
      "hit": false,
      "t": 88548.30150000009,
      "d": 1391.1276874999894,
      "v": 100
    },
    {
      "midi": 67,
      "hit": false,
      "t": 88548.30150000009,
      "d": 1431.4502291666577,
      "v": 76
    },
    {
      "midi": 72,
      "hit": false,
      "t": 88548.30150000009,
      "d": 1391.1276874999894,
      "v": 100
    },
    {
      "midi": 67,
      "hit": false,
      "t": 88548.30150000009,
      "d": 1431.4502291666577,
      "v": 76
    },
    {
      "midi": 60,
      "hit": false,
      "t": 89516.04250000001,
      "d": 524.1930416666728,
      "v": 61
    },
    {
      "midi": 55,
      "hit": false,
      "t": 89757.97775000008,
      "d": 1169.3537083332922,
      "v": 79
    },
    {
      "midi": 55,
      "hit": false,
      "t": 89757.97775000008,
      "d": 1169.3537083332922,
      "v": 79
    },
    {
      "midi": 62,
      "hit": false,
      "t": 89999.91300000002,
      "d": 524.1930416666728,
      "v": 85
    },
    {
      "midi": 60,
      "hit": false,
      "t": 89999.91300000007,
      "d": 902.216869791635,
      "v": 91
    },
    {
      "midi": 60,
      "hit": false,
      "t": 89999.91300000007,
      "d": 902.216869791635,
      "v": 91
    },
    {
      "midi": 67,
      "hit": false,
      "t": 90241.84825000007,
      "d": 690.5235260416375,
      "v": 81
    },
    {
      "midi": 67,
      "hit": false,
      "t": 90241.84825000007,
      "d": 690.5235260416375,
      "v": 81
    },
    {
      "midi": 72,
      "hit": false,
      "t": 90483.78350000006,
      "d": 262.09652083332185,
      "v": 91
    },
    {
      "midi": 72,
      "hit": false,
      "t": 90483.78350000006,
      "d": 262.09652083332185,
      "v": 91
    },
    {
      "midi": 74,
      "hit": false,
      "t": 90725.71875000006,
      "d": 231.85461458330974,
      "v": 82
    },
    {
      "midi": 74,
      "hit": false,
      "t": 90725.71875000006,
      "d": 231.85461458330974,
      "v": 82
    },
    {
      "midi": 55,
      "hit": false,
      "t": 90967.65400000001,
      "d": 3825.6011406250036,
      "v": 78
    },
    {
      "midi": 59,
      "hit": false,
      "t": 90967.65400000001,
      "d": 3830.641458333339,
      "v": 83
    },
    {
      "midi": 76,
      "hit": false,
      "t": 90967.65400000004,
      "d": 393.1447812499973,
      "v": 103
    },
    {
      "midi": 71,
      "hit": false,
      "t": 90967.65400000004,
      "d": 564.515583333341,
      "v": 97
    },
    {
      "midi": 67,
      "hit": false,
      "t": 90967.65400000004,
      "d": 715.7251145833434,
      "v": 92
    },
    {
      "midi": 47,
      "hit": false,
      "t": 90967.65400000004,
      "d": 3790.3189166666416,
      "v": 87
    },
    {
      "midi": 76,
      "hit": false,
      "t": 90967.65400000004,
      "d": 393.1447812499973,
      "v": 103
    },
    {
      "midi": 71,
      "hit": false,
      "t": 90967.65400000004,
      "d": 564.515583333341,
      "v": 97
    },
    {
      "midi": 67,
      "hit": false,
      "t": 90967.65400000004,
      "d": 715.7251145833434,
      "v": 92
    },
    {
      "midi": 47,
      "hit": false,
      "t": 90967.65400000004,
      "d": 3790.3189166666416,
      "v": 87
    },
    {
      "midi": 74,
      "hit": false,
      "t": 91451.52450000004,
      "d": 282.2577916666778,
      "v": 76
    },
    {
      "midi": 55,
      "hit": false,
      "t": 91451.52450000004,
      "d": 514.1124062500021,
      "v": 77
    },
    {
      "midi": 74,
      "hit": false,
      "t": 91451.52450000004,
      "d": 282.2577916666778,
      "v": 76
    },
    {
      "midi": 55,
      "hit": false,
      "t": 91451.52450000004,
      "d": 514.1124062500021,
      "v": 77
    },
    {
      "midi": 71,
      "hit": false,
      "t": 91935.39500000005,
      "d": 50.40317708332441,
      "v": 94
    },
    {
      "midi": 67,
      "hit": false,
      "t": 91935.39500000005,
      "d": 85.68540104165731,
      "v": 91
    },
    {
      "midi": 74,
      "hit": false,
      "t": 91935.39500000005,
      "d": 85.68540104165731,
      "v": 92
    },
    {
      "midi": 59,
      "hit": false,
      "t": 91935.39500000005,
      "d": 1169.3537083333213,
      "v": 89
    },
    {
      "midi": 71,
      "hit": false,
      "t": 91935.39500000005,
      "d": 50.40317708332441,
      "v": 94
    },
    {
      "midi": 67,
      "hit": false,
      "t": 91935.39500000005,
      "d": 85.68540104165731,
      "v": 91
    },
    {
      "midi": 74,
      "hit": false,
      "t": 91935.39500000005,
      "d": 85.68540104165731,
      "v": 92
    },
    {
      "midi": 59,
      "hit": false,
      "t": 91935.39500000005,
      "d": 1169.3537083333213,
      "v": 89
    },
    {
      "midi": 62,
      "hit": false,
      "t": 92177.33025000004,
      "d": 30.241906249997555,
      "v": 83
    },
    {
      "midi": 62,
      "hit": false,
      "t": 92177.33025000004,
      "d": 30.241906249997555,
      "v": 83
    },
    {
      "midi": 62,
      "hit": false,
      "t": 92419.26550000004,
      "d": 1053.4264010416664,
      "v": 103
    },
    {
      "midi": 62,
      "hit": false,
      "t": 92419.26550000004,
      "d": 1053.4264010416664,
      "v": 103
    },
    {
      "midi": 55,
      "hit": false,
      "t": 93387.00650000003,
      "d": 1270.1600624999846,
      "v": 85
    },
    {
      "midi": 55,
      "hit": false,
      "t": 93387.00650000003,
      "d": 1270.1600624999846,
      "v": 85
    },
    {
      "midi": 59,
      "hit": false,
      "t": 93628.94175000004,
      "d": 1083.6683072916348,
      "v": 82
    },
    {
      "midi": 59,
      "hit": false,
      "t": 93628.94175000004,
      "d": 1083.6683072916348,
      "v": 82
    },
    {
      "midi": 62,
      "hit": false,
      "t": 93870.87700000004,
      "d": 756.0476562499825,
      "v": 85
    },
    {
      "midi": 62,
      "hit": false,
      "t": 93870.87700000004,
      "d": 756.0476562499825,
      "v": 85
    },
    {
      "midi": 74,
      "hit": false,
      "t": 94112.81225000003,
      "d": 302.4190624999901,
      "v": 97
    },
    {
      "midi": 74,
      "hit": false,
      "t": 94112.81225000003,
      "d": 302.4190624999901,
      "v": 97
    },
    {
      "midi": 71,
      "hit": false,
      "t": 94354.74750000003,
      "d": 241.935249999995,
      "v": 67
    },
    {
      "midi": 71,
      "hit": false,
      "t": 94354.74750000003,
      "d": 241.935249999995,
      "v": 67
    },
    {
      "midi": 74,
      "hit": false,
      "t": 94838.618,
      "d": 418.3463697916741,
      "v": 96
    },
    {
      "midi": 69,
      "hit": false,
      "t": 94838.618,
      "d": 680.4428906250105,
      "v": 86
    },
    {
      "midi": 64,
      "hit": false,
      "t": 94838.618,
      "d": 826.6121041666775,
      "v": 84
    },
    {
      "midi": 45,
      "hit": false,
      "t": 94838.618,
      "d": 3825.601140624989,
      "v": 85
    },
    {
      "midi": 74,
      "hit": false,
      "t": 94838.618,
      "d": 418.3463697916741,
      "v": 96
    },
    {
      "midi": 69,
      "hit": false,
      "t": 94838.618,
      "d": 680.4428906250105,
      "v": 86
    },
    {
      "midi": 64,
      "hit": false,
      "t": 94838.618,
      "d": 826.6121041666775,
      "v": 84
    },
    {
      "midi": 45,
      "hit": false,
      "t": 94838.618,
      "d": 3825.601140624989,
      "v": 85
    },
    {
      "midi": 72,
      "hit": false,
      "t": 95322.4885,
      "d": 292.33842708333395,
      "v": 75
    },
    {
      "midi": 52,
      "hit": false,
      "t": 95322.4885,
      "d": 504.0317708333314,
      "v": 76
    },
    {
      "midi": 72,
      "hit": false,
      "t": 95322.4885,
      "d": 292.33842708333395,
      "v": 75
    },
    {
      "midi": 52,
      "hit": false,
      "t": 95322.4885,
      "d": 504.0317708333314,
      "v": 76
    },
    {
      "midi": 69,
      "hit": false,
      "t": 95806.35900000001,
      "d": 65.52413020833046,
      "v": 81
    },
    {
      "midi": 64,
      "hit": false,
      "t": 95806.35900000001,
      "d": 70.56444791666581,
      "v": 81
    },
    {
      "midi": 72,
      "hit": false,
      "t": 95806.35900000001,
      "d": 206.6530260416621,
      "v": 92
    },
    {
      "midi": 57,
      "hit": false,
      "t": 95806.35900000001,
      "d": 680.4428906249959,
      "v": 88
    },
    {
      "midi": 69,
      "hit": false,
      "t": 95806.35900000001,
      "d": 65.52413020833046,
      "v": 81
    },
    {
      "midi": 64,
      "hit": false,
      "t": 95806.35900000001,
      "d": 70.56444791666581,
      "v": 81
    },
    {
      "midi": 72,
      "hit": false,
      "t": 95806.35900000001,
      "d": 206.6530260416621,
      "v": 92
    },
    {
      "midi": 57,
      "hit": false,
      "t": 95806.35900000001,
      "d": 680.4428906249959,
      "v": 88
    },
    {
      "midi": 64,
      "hit": false,
      "t": 96048.29425,
      "d": 95.76603645832802,
      "v": 73
    },
    {
      "midi": 64,
      "hit": false,
      "t": 96048.29425,
      "d": 95.76603645832802,
      "v": 73
    },
    {
      "midi": 64,
      "hit": false,
      "t": 96290.2295,
      "d": 892.1362343750079,
      "v": 96
    },
    {
      "midi": 64,
      "hit": false,
      "t": 96290.2295,
      "d": 892.1362343750079,
      "v": 96
    },
    {
      "midi": 52,
      "hit": false,
      "t": 97257.97050000001,
      "d": 1381.0470520833187,
      "v": 79
    },
    {
      "midi": 52,
      "hit": false,
      "t": 97257.97050000001,
      "d": 1381.0470520833187,
      "v": 79
    },
    {
      "midi": 57,
      "hit": false,
      "t": 97499.90575,
      "d": 1129.031166666653,
      "v": 76
    },
    {
      "midi": 57,
      "hit": false,
      "t": 97499.90575,
      "d": 1129.031166666653,
      "v": 76
    },
    {
      "midi": 60,
      "hit": false,
      "t": 97741.841,
      "d": 806.4508333333215,
      "v": 82
    },
    {
      "midi": 60,
      "hit": false,
      "t": 97741.841,
      "d": 806.4508333333215,
      "v": 82
    },
    {
      "midi": 64,
      "hit": false,
      "t": 97983.77625,
      "d": 544.3543124999997,
      "v": 82
    },
    {
      "midi": 64,
      "hit": false,
      "t": 97983.77625,
      "d": 544.3543124999997,
      "v": 82
    },
    {
      "midi": 72,
      "hit": false,
      "t": 98225.71149999999,
      "d": 176.41111979166453,
      "v": 80
    },
    {
      "midi": 72,
      "hit": false,
      "t": 98225.71149999999,
      "d": 176.41111979166453,
      "v": 80
    },
    {
      "midi": 62,
      "hit": false,
      "t": 98709.58199999998,
      "d": 1068.547354166658,
      "v": 73
    },
    {
      "midi": 71,
      "hit": false,
      "t": 98709.58199999998,
      "d": 1149.1924374999944,
      "v": 92
    },
    {
      "midi": 43,
      "hit": false,
      "t": 98709.58199999998,
      "d": 3775.19796354165,
      "v": 82
    },
    {
      "midi": 62,
      "hit": false,
      "t": 98709.58199999998,
      "d": 1068.547354166658,
      "v": 73
    },
    {
      "midi": 71,
      "hit": false,
      "t": 98709.58199999998,
      "d": 1149.1924374999944,
      "v": 92
    },
    {
      "midi": 43,
      "hit": false,
      "t": 98709.58199999998,
      "d": 3775.19796354165,
      "v": 82
    },
    {
      "midi": 50,
      "hit": false,
      "t": 98709.58200000001,
      "d": 2111.893119791668,
      "v": 63
    },
    {
      "midi": 55,
      "hit": false,
      "t": 98709.58200000001,
      "d": 2116.9334375000035,
      "v": 78
    },
    {
      "midi": 50,
      "hit": false,
      "t": 99193.45249999997,
      "d": 509.07208854166674,
      "v": 67
    },
    {
      "midi": 50,
      "hit": false,
      "t": 99193.45249999997,
      "d": 509.07208854166674,
      "v": 67
    },
    {
      "midi": 55,
      "hit": false,
      "t": 99677.32299999997,
      "d": 987.9022708333214,
      "v": 80
    },
    {
      "midi": 55,
      "hit": false,
      "t": 99677.32299999997,
      "d": 987.9022708333214,
      "v": 80
    },
    {
      "midi": 62,
      "hit": false,
      "t": 99919.25824999997,
      "d": 1522.1759479166649,
      "v": 77
    },
    {
      "midi": 62,
      "hit": false,
      "t": 99919.25824999997,
      "d": 1522.1759479166649,
      "v": 77
    },
    {
      "midi": 69,
      "hit": false,
      "t": 100161.19349999996,
      "d": 473.78986458333384,
      "v": 82
    },
    {
      "midi": 69,
      "hit": false,
      "t": 100161.19349999996,
      "d": 473.78986458333384,
      "v": 82
    },
    {
      "midi": 50,
      "hit": false,
      "t": 100403.12874999996,
      "d": 927.4184583333408,
      "v": 79
    },
    {
      "midi": 50,
      "hit": false,
      "t": 100403.12874999996,
      "d": 927.4184583333408,
      "v": 79
    },
    {
      "midi": 71,
      "hit": false,
      "t": 100645.06399999997,
      "d": 745.9670208333264,
      "v": 94
    },
    {
      "midi": 71,
      "hit": false,
      "t": 100645.06399999997,
      "d": 745.9670208333264,
      "v": 94
    },
    {
      "midi": 55,
      "hit": false,
      "t": 101370.86974999997,
      "d": 1134.0714843749884,
      "v": 76
    },
    {
      "midi": 55,
      "hit": false,
      "t": 101370.86974999997,
      "d": 1134.0714843749884,
      "v": 76
    },
    {
      "midi": 72,
      "hit": false,
      "t": 101612.80499999996,
      "d": 322.5803333333315,
      "v": 96
    },
    {
      "midi": 72,
      "hit": false,
      "t": 101612.80499999996,
      "d": 322.5803333333315,
      "v": 96
    },
    {
      "midi": 71,
      "hit": false,
      "t": 101854.74024999996,
      "d": 241.93525000000955,
      "v": 73
    },
    {
      "midi": 71,
      "hit": false,
      "t": 101854.74024999996,
      "d": 241.93525000000955,
      "v": 73
    },
    {
      "midi": 69,
      "hit": false,
      "t": 102096.67549999997,
      "d": 211.69334374999744,
      "v": 82
    },
    {
      "midi": 69,
      "hit": false,
      "t": 102096.67549999997,
      "d": 211.69334374999744,
      "v": 82
    },
    {
      "midi": 67,
      "hit": false,
      "t": 102338.61074999996,
      "d": 216.7336614583328,
      "v": 78
    },
    {
      "midi": 67,
      "hit": false,
      "t": 102338.61074999996,
      "d": 216.7336614583328,
      "v": 78
    },
    {
      "midi": 65,
      "hit": false,
      "t": 102580.54599999996,
      "d": 786.2895624999946,
      "v": 91
    },
    {
      "midi": 60,
      "hit": false,
      "t": 102580.54599999996,
      "d": 836.6927395833336,
      "v": 83
    },
    {
      "midi": 71,
      "hit": false,
      "t": 102580.54599999996,
      "d": 937.499093749997,
      "v": 96
    },
    {
      "midi": 41,
      "hit": false,
      "t": 102580.54599999996,
      "d": 3613.907796874977,
      "v": 85
    },
    {
      "midi": 65,
      "hit": false,
      "t": 102580.54599999996,
      "d": 786.2895624999946,
      "v": 91
    },
    {
      "midi": 60,
      "hit": false,
      "t": 102580.54599999996,
      "d": 836.6927395833336,
      "v": 83
    },
    {
      "midi": 71,
      "hit": false,
      "t": 102580.54599999996,
      "d": 937.499093749997,
      "v": 96
    },
    {
      "midi": 41,
      "hit": false,
      "t": 102580.54599999996,
      "d": 3613.907796874977,
      "v": 85
    },
    {
      "midi": 65,
      "hit": false,
      "t": 102580.54600000002,
      "d": 1396.1680052083393,
      "v": 81
    },
    {
      "midi": 60,
      "hit": false,
      "t": 102580.54600000002,
      "d": 2711.6909270833276,
      "v": 77
    },
    {
      "midi": 48,
      "hit": false,
      "t": 103064.41649999996,
      "d": 3130.0372968749725,
      "v": 84
    },
    {
      "midi": 48,
      "hit": false,
      "t": 103064.41649999996,
      "d": 3130.0372968749725,
      "v": 84
    },
    {
      "midi": 53,
      "hit": false,
      "t": 103306.35174999996,
      "d": 1209.6762499999895,
      "v": 79
    },
    {
      "midi": 53,
      "hit": false,
      "t": 103306.35174999996,
      "d": 1209.6762499999895,
      "v": 79
    },
    {
      "midi": 60,
      "hit": false,
      "t": 103548.28699999995,
      "d": 1527.2162656250002,
      "v": 82
    },
    {
      "midi": 60,
      "hit": false,
      "t": 103548.28699999995,
      "d": 1527.2162656250002,
      "v": 82
    },
    {
      "midi": 67,
      "hit": false,
      "t": 103790.22224999995,
      "d": 277.2174739583279,
      "v": 76
    },
    {
      "midi": 67,
      "hit": false,
      "t": 103790.22224999995,
      "d": 277.2174739583279,
      "v": 76
    },
    {
      "midi": 69,
      "hit": false,
      "t": 104032.15749999994,
      "d": 1073.5876718750078,
      "v": 101
    },
    {
      "midi": 69,
      "hit": false,
      "t": 104032.15749999994,
      "d": 1073.5876718750078,
      "v": 101
    },
    {
      "midi": 69,
      "hit": false,
      "t": 104032.15750000002,
      "d": 1300.4019687499967,
      "v": 90
    },
    {
      "midi": 53,
      "hit": false,
      "t": 105241.83374999995,
      "d": 967.7409999999945,
      "v": 77
    },
    {
      "midi": 53,
      "hit": false,
      "t": 105241.83374999995,
      "d": 967.7409999999945,
      "v": 77
    },
    {
      "midi": 67,
      "hit": false,
      "t": 105483.76899999994,
      "d": 317.54001562499616,
      "v": 105
    },
    {
      "midi": 67,
      "hit": false,
      "t": 105483.76899999994,
      "d": 317.54001562499616,
      "v": 105
    },
    {
      "midi": 65,
      "hit": false,
      "t": 105725.70424999994,
      "d": 287.2981093749986,
      "v": 98
    },
    {
      "midi": 65,
      "hit": false,
      "t": 105725.70424999994,
      "d": 287.2981093749986,
      "v": 98
    },
    {
      "midi": 64,
      "hit": false,
      "t": 105967.63949999993,
      "d": 241.93525000000955,
      "v": 91
    },
    {
      "midi": 64,
      "hit": false,
      "t": 105967.63949999993,
      "d": 241.93525000000955,
      "v": 91
    },
    {
      "midi": 62,
      "hit": false,
      "t": 106209.57474999994,
      "d": 196.57239062500594,
      "v": 82
    },
    {
      "midi": 62,
      "hit": false,
      "t": 106209.57474999994,
      "d": 196.57239062500594,
      "v": 82
    },
    {
      "midi": 60,
      "hit": false,
      "t": 106451.50999999995,
      "d": 226.8142968750035,
      "v": 79
    },
    {
      "midi": 64,
      "hit": false,
      "t": 106451.50999999995,
      "d": 252.0158854166657,
      "v": 86
    },
    {
      "midi": 67,
      "hit": false,
      "t": 106451.50999999995,
      "d": 312.4996979166608,
      "v": 86
    },
    {
      "midi": 48,
      "hit": false,
      "t": 106451.50999999995,
      "d": 1895.1594583333208,
      "v": 91
    },
    {
      "midi": 60,
      "hit": false,
      "t": 106451.50999999995,
      "d": 226.8142968750035,
      "v": 79
    },
    {
      "midi": 64,
      "hit": false,
      "t": 106451.50999999995,
      "d": 252.0158854166657,
      "v": 86
    },
    {
      "midi": 67,
      "hit": false,
      "t": 106451.50999999995,
      "d": 312.4996979166608,
      "v": 86
    },
    {
      "midi": 48,
      "hit": false,
      "t": 106451.50999999995,
      "d": 1895.1594583333208,
      "v": 91
    },
    {
      "midi": 60,
      "hit": false,
      "t": 107419.251,
      "d": 2409.271864583323,
      "v": 68
    },
    {
      "midi": 64,
      "hit": false,
      "t": 107661.18624999994,
      "d": 357.8625572916644,
      "v": 89
    },
    {
      "midi": 64,
      "hit": false,
      "t": 107661.18624999994,
      "d": 357.8625572916644,
      "v": 89
    },
    {
      "midi": 64,
      "hit": false,
      "t": 107661.18625,
      "d": 262.09652083332185,
      "v": 70
    },
    {
      "midi": 67,
      "hit": false,
      "t": 107903.12149999994,
      "d": 241.93525000000955,
      "v": 73
    },
    {
      "midi": 67,
      "hit": false,
      "t": 107903.12149999994,
      "d": 241.93525000000955,
      "v": 73
    },
    {
      "midi": 67,
      "hit": false,
      "t": 107903.1215,
      "d": 1970.7642239583365,
      "v": 76
    },
    {
      "midi": 72,
      "hit": false,
      "t": 108145.05674999995,
      "d": 70.56444791666581,
      "v": 82
    },
    {
      "midi": 72,
      "hit": false,
      "t": 108145.05674999995,
      "d": 70.56444791666581,
      "v": 82
    },
    {
      "midi": 64,
      "hit": false,
      "t": 108386.99199999994,
      "d": 524.1930416666582,
      "v": 82
    },
    {
      "midi": 60,
      "hit": false,
      "t": 108386.99199999994,
      "d": 599.7978072916594,
      "v": 86
    },
    {
      "midi": 57,
      "hit": false,
      "t": 108386.99199999994,
      "d": 1365.9260989583127,
      "v": 82
    },
    {
      "midi": 64,
      "hit": false,
      "t": 108386.99199999994,
      "d": 524.1930416666582,
      "v": 82
    },
    {
      "midi": 60,
      "hit": false,
      "t": 108386.99199999994,
      "d": 599.7978072916594,
      "v": 86
    },
    {
      "midi": 57,
      "hit": false,
      "t": 108386.99199999994,
      "d": 1365.9260989583127,
      "v": 82
    },
    {
      "midi": 60,
      "hit": false,
      "t": 109112.79774999994,
      "d": 105.84667187499872,
      "v": 73
    },
    {
      "midi": 60,
      "hit": false,
      "t": 109112.79774999994,
      "d": 105.84667187499872,
      "v": 73
    },
    {
      "midi": 65,
      "hit": false,
      "t": 109354.73299999993,
      "d": 262.09652083332185,
      "v": 103
    },
    {
      "midi": 65,
      "hit": false,
      "t": 109354.73299999993,
      "d": 262.09652083332185,
      "v": 103
    },
    {
      "midi": 64,
      "hit": false,
      "t": 109596.66824999993,
      "d": 216.73366145831824,
      "v": 80
    },
    {
      "midi": 64,
      "hit": false,
      "t": 109596.66824999993,
      "d": 216.73366145831824,
      "v": 80
    },
    {
      "midi": 62,
      "hit": false,
      "t": 109838.60349999991,
      "d": 252.0158854166657,
      "v": 76
    },
    {
      "midi": 62,
      "hit": false,
      "t": 109838.60349999991,
      "d": 252.0158854166657,
      "v": 76
    },
    {
      "midi": 60,
      "hit": false,
      "t": 110080.5387499999,
      "d": 141.12889583333163,
      "v": 70
    },
    {
      "midi": 60,
      "hit": false,
      "t": 110080.5387499999,
      "d": 141.12889583333163,
      "v": 70
    },
    {
      "midi": 60,
      "hit": false,
      "t": 110322.4739999999,
      "d": 3150.1985677083576,
      "v": 80
    },
    {
      "midi": 64,
      "hit": false,
      "t": 110322.4739999999,
      "d": 3165.3195208333636,
      "v": 79
    },
    {
      "midi": 67,
      "hit": false,
      "t": 110322.4739999999,
      "d": 3165.3195208333636,
      "v": 85
    },
    {
      "midi": 36,
      "hit": false,
      "t": 110322.4739999999,
      "d": 3870.9640000000363,
      "v": 85
    },
    {
      "midi": 60,
      "hit": false,
      "t": 110322.4739999999,
      "d": 3150.1985677083576,
      "v": 80
    },
    {
      "midi": 64,
      "hit": false,
      "t": 110322.4739999999,
      "d": 3165.3195208333636,
      "v": 79
    },
    {
      "midi": 67,
      "hit": false,
      "t": 110322.4739999999,
      "d": 3165.3195208333636,
      "v": 85
    },
    {
      "midi": 36,
      "hit": false,
      "t": 110322.4739999999,
      "d": 3870.9640000000363,
      "v": 85
    },
    {
      "midi": 64,
      "hit": false,
      "t": 110322.474,
      "d": 1769.1515156249952,
      "v": 70
    },
    {
      "midi": 67,
      "hit": false,
      "t": 110322.474,
      "d": 1779.232151041666,
      "v": 67
    },
    {
      "midi": 60,
      "hit": false,
      "t": 110322.474,
      "d": 1804.4337395833281,
      "v": 68
    },
    {
      "midi": 43,
      "hit": false,
      "t": 110806.3444999999,
      "d": 3387.093500000032,
      "v": 75
    },
    {
      "midi": 43,
      "hit": false,
      "t": 110806.3444999999,
      "d": 3387.093500000032,
      "v": 75
    },
    {
      "midi": 48,
      "hit": false,
      "t": 111290.21499999991,
      "d": 141.12889583333163,
      "v": 72
    },
    {
      "midi": 48,
      "hit": false,
      "t": 111290.21499999991,
      "d": 141.12889583333163,
      "v": 72
    },
    {
      "midi": 50,
      "hit": false,
      "t": 111774.08549999991,
      "d": 156.24984895833768,
      "v": 60
    },
    {
      "midi": 50,
      "hit": false,
      "t": 111774.08549999991,
      "d": 156.24984895833768,
      "v": 60
    },
    {
      "midi": 57,
      "hit": false,
      "t": 113467.63224999992,
      "d": 690.5235260416812,
      "v": 64
    },
    {
      "midi": 57,
      "hit": false,
      "t": 113467.63224999992,
      "d": 690.5235260416812,
      "v": 64
    },
    {
      "midi": 62,
      "hit": false,
      "t": 113709.56749999993,
      "d": 196.57239062500594,
      "v": 98
    },
    {
      "midi": 62,
      "hit": false,
      "t": 113709.56749999993,
      "d": 196.57239062500594,
      "v": 98
    },
    {
      "midi": 64,
      "hit": false,
      "t": 113951.50274999994,
      "d": 226.81429687498894,
      "v": 81
    },
    {
      "midi": 64,
      "hit": false,
      "t": 113951.50274999994,
      "d": 226.81429687498894,
      "v": 81
    },
    {
      "midi": 65,
      "hit": false,
      "t": 114193.43799999994,
      "d": 337.70128645833756,
      "v": 87
    },
    {
      "midi": 57,
      "hit": false,
      "t": 114193.43799999994,
      "d": 1844.756281250011,
      "v": 77
    },
    {
      "midi": 60,
      "hit": false,
      "t": 114193.43799999994,
      "d": 1910.2804114583414,
      "v": 85
    },
    {
      "midi": 31,
      "hit": false,
      "t": 114193.43799999994,
      "d": 3770.157645833344,
      "v": 80
    },
    {
      "midi": 43,
      "hit": false,
      "t": 114193.43799999994,
      "d": 3785.27859895835,
      "v": 80
    },
    {
      "midi": 65,
      "hit": false,
      "t": 114193.43799999994,
      "d": 337.70128645833756,
      "v": 87
    },
    {
      "midi": 57,
      "hit": false,
      "t": 114193.43799999994,
      "d": 1844.756281250011,
      "v": 77
    },
    {
      "midi": 60,
      "hit": false,
      "t": 114193.43799999994,
      "d": 1910.2804114583414,
      "v": 85
    },
    {
      "midi": 31,
      "hit": false,
      "t": 114193.43799999994,
      "d": 3770.157645833344,
      "v": 80
    },
    {
      "midi": 43,
      "hit": false,
      "t": 114193.43799999994,
      "d": 3785.27859895835,
      "v": 80
    },
    {
      "midi": 57,
      "hit": false,
      "t": 114193.438,
      "d": 1416.3292760416662,
      "v": 63
    },
    {
      "midi": 65,
      "hit": false,
      "t": 114193.438,
      "d": 1416.3292760416662,
      "v": 63
    },
    {
      "midi": 60,
      "hit": false,
      "t": 114193.438,
      "d": 1431.4502291666722,
      "v": 70
    },
    {
      "midi": 65,
      "hit": false,
      "t": 114677.30849999994,
      "d": 1275.2003802083345,
      "v": 89
    },
    {
      "midi": 65,
      "hit": false,
      "t": 114677.30849999994,
      "d": 1275.2003802083345,
      "v": 89
    },
    {
      "midi": 64,
      "hit": false,
      "t": 116128.91999999994,
      "d": 690.5235260416666,
      "v": 94
    },
    {
      "midi": 57,
      "hit": false,
      "t": 116128.91999999994,
      "d": 756.0476562499971,
      "v": 52
    },
    {
      "midi": 64,
      "hit": false,
      "t": 116128.91999999994,
      "d": 690.5235260416666,
      "v": 94
    },
    {
      "midi": 57,
      "hit": false,
      "t": 116128.91999999994,
      "d": 756.0476562499971,
      "v": 52
    },
    {
      "midi": 60,
      "hit": false,
      "t": 116128.92,
      "d": 776.2089270833385,
      "v": 71
    },
    {
      "midi": 55,
      "hit": false,
      "t": 116128.92,
      "d": 887.0959166666726,
      "v": 71
    },
    {
      "midi": 62,
      "hit": false,
      "t": 116854.72574999994,
      "d": 181.45143749999988,
      "v": 72
    },
    {
      "midi": 62,
      "hit": false,
      "t": 116854.72574999994,
      "d": 181.45143749999988,
      "v": 72
    },
    {
      "midi": 60,
      "hit": false,
      "t": 117096.66099999993,
      "d": 534.2736770833435,
      "v": 84
    },
    {
      "midi": 55,
      "hit": false,
      "t": 117096.66099999993,
      "d": 907.257187500014,
      "v": 82
    },
    {
      "midi": 60,
      "hit": false,
      "t": 117096.66099999993,
      "d": 534.2736770833435,
      "v": 84
    },
    {
      "midi": 55,
      "hit": false,
      "t": 117096.66099999993,
      "d": 907.257187500014,
      "v": 82
    },
    {
      "midi": 62,
      "hit": false,
      "t": 117580.53149999994,
      "d": 423.38668750000943,
      "v": 94
    },
    {
      "midi": 62,
      "hit": false,
      "t": 117580.53149999994,
      "d": 423.38668750000943,
      "v": 94
    },
    {
      "midi": 55,
      "hit": false,
      "t": 118064.40199999994,
      "d": 120.96762500000477,
      "v": 78
    },
    {
      "midi": 52,
      "hit": false,
      "t": 118064.40199999994,
      "d": 136.08857812501083,
      "v": 79
    },
    {
      "midi": 60,
      "hit": false,
      "t": 118064.40199999994,
      "d": 206.65302604167664,
      "v": 88
    },
    {
      "midi": 36,
      "hit": false,
      "t": 118064.40199999994,
      "d": 3608.867479166671,
      "v": 72
    },
    {
      "midi": 48,
      "hit": false,
      "t": 118064.40199999994,
      "d": 3669.351291666666,
      "v": 72
    },
    {
      "midi": 43,
      "hit": false,
      "t": 118064.40199999994,
      "d": 3704.633515624999,
      "v": 69
    },
    {
      "midi": 55,
      "hit": false,
      "t": 118064.40199999994,
      "d": 120.96762500000477,
      "v": 78
    },
    {
      "midi": 52,
      "hit": false,
      "t": 118064.40199999994,
      "d": 136.08857812501083,
      "v": 79
    },
    {
      "midi": 60,
      "hit": false,
      "t": 118064.40199999994,
      "d": 206.65302604167664,
      "v": 88
    },
    {
      "midi": 36,
      "hit": false,
      "t": 118064.40199999994,
      "d": 3608.867479166671,
      "v": 72
    },
    {
      "midi": 48,
      "hit": false,
      "t": 118064.40199999994,
      "d": 3669.351291666666,
      "v": 72
    },
    {
      "midi": 43,
      "hit": false,
      "t": 118064.40199999994,
      "d": 3704.633515624999,
      "v": 69
    },
    {
      "midi": 55,
      "hit": false,
      "t": 118064.402,
      "d": 3281.2468281249894,
      "v": 86
    },
    {
      "midi": 52,
      "hit": false,
      "t": 118064.402,
      "d": 3301.4080989583163,
      "v": 77
    },
    {
      "midi": 60,
      "hit": false,
      "t": 118064.402,
      "d": 3331.650005208314,
      "v": 83
    },
    {
      "midi": 67,
      "hit": false,
      "t": 119274.07824999995,
      "d": 327.62065104166686,
      "v": 89
    },
    {
      "midi": 67,
      "hit": false,
      "t": 119274.07824999995,
      "d": 327.62065104166686,
      "v": 89
    },
    {
      "midi": 72,
      "hit": false,
      "t": 119516.01349999994,
      "d": 216.7336614583328,
      "v": 89
    },
    {
      "midi": 72,
      "hit": false,
      "t": 119516.01349999994,
      "d": 216.7336614583328,
      "v": 89
    },
    {
      "midi": 74,
      "hit": false,
      "t": 119757.94874999994,
      "d": 156.24984895833768,
      "v": 84
    },
    {
      "midi": 74,
      "hit": false,
      "t": 119757.94874999994,
      "d": 156.24984895833768,
      "v": 84
    },
    {
      "midi": 76,
      "hit": false,
      "t": 119999.88399999995,
      "d": 932.4587760416616,
      "v": 105
    },
    {
      "midi": 76,
      "hit": false,
      "t": 119999.88399999995,
      "d": 932.4587760416616,
      "v": 105
    },
    {
      "midi": 74,
      "hit": false,
      "t": 120967.62499999994,
      "d": 932.4587760416762,
      "v": 101
    },
    {
      "midi": 74,
      "hit": false,
      "t": 120967.62499999994,
      "d": 932.4587760416762,
      "v": 101
    },
    {
      "midi": 76,
      "hit": false,
      "t": 121935.36599999995,
      "d": 866.9346458333457,
      "v": 91
    },
    {
      "midi": 72,
      "hit": false,
      "t": 121935.36599999995,
      "d": 871.9749635416811,
      "v": 96
    },
    {
      "midi": 69,
      "hit": false,
      "t": 121935.36599999995,
      "d": 917.3378229166847,
      "v": 86
    },
    {
      "midi": 76,
      "hit": false,
      "t": 121935.36599999995,
      "d": 866.9346458333457,
      "v": 91
    },
    {
      "midi": 72,
      "hit": false,
      "t": 121935.36599999995,
      "d": 871.9749635416811,
      "v": 96
    },
    {
      "midi": 69,
      "hit": false,
      "t": 121935.36599999995,
      "d": 917.3378229166847,
      "v": 86
    },
    {
      "midi": 64,
      "hit": false,
      "t": 121935.36599999998,
      "d": 1955.6432708333305,
      "v": 117
    },
    {
      "midi": 72,
      "hit": false,
      "t": 123870.84799999997,
      "d": 982.8619531250006,
      "v": 73
    },
    {
      "midi": 69,
      "hit": false,
      "t": 123870.84799999997,
      "d": 1023.1844947916688,
      "v": 64
    },
    {
      "midi": 65,
      "hit": false,
      "t": 123870.84799999997,
      "d": 1038.305447916675,
      "v": 68
    },
    {
      "midi": 72,
      "hit": false,
      "t": 123870.84799999997,
      "d": 982.8619531250006,
      "v": 73
    },
    {
      "midi": 69,
      "hit": false,
      "t": 123870.84799999997,
      "d": 1023.1844947916688,
      "v": 64
    },
    {
      "midi": 65,
      "hit": false,
      "t": 123870.84799999997,
      "d": 1038.305447916675,
      "v": 68
    },
    {
      "midi": 60,
      "hit": false,
      "t": 123870.84799999998,
      "d": 987.9022708333068,
      "v": 89
    },
    {
      "midi": 62,
      "hit": false,
      "t": 124838.58899999996,
      "d": 957.6603645833384,
      "v": 88
    },
    {
      "midi": 74,
      "hit": false,
      "t": 124838.58899999996,
      "d": 85.68540104168642,
      "v": 89
    },
    {
      "midi": 74,
      "hit": false,
      "t": 124838.58899999996,
      "d": 85.68540104168642,
      "v": 89
    },
    {
      "midi": 55,
      "hit": false,
      "t": 125806.32999999997,
      "d": 1920.3610468749976,
      "v": 104
    },
    {
      "midi": 67,
      "hit": false,
      "t": 125806.32999999999,
      "d": 1068.5473541666724,
      "v": 87
    },
    {
      "midi": 57,
      "hit": false,
      "t": 125806.32999999999,
      "d": 1486.893723958332,
      "v": 82
    },
    {
      "midi": 67,
      "hit": false,
      "t": 125806.32999999999,
      "d": 1068.5473541666724,
      "v": 87
    },
    {
      "midi": 57,
      "hit": false,
      "t": 125806.32999999999,
      "d": 1486.893723958332,
      "v": 82
    },
    {
      "midi": 60,
      "hit": false,
      "t": 126774.071,
      "d": 458.6689114583278,
      "v": 89
    },
    {
      "midi": 60,
      "hit": false,
      "t": 126774.071,
      "d": 458.6689114583278,
      "v": 89
    },
    {
      "midi": 52,
      "hit": false,
      "t": 127741.81199999998,
      "d": 3205.642062500003,
      "v": 72
    },
    {
      "midi": 55,
      "hit": false,
      "t": 127741.81199999998,
      "d": 3215.7226979166735,
      "v": 80
    },
    {
      "midi": 62,
      "hit": false,
      "t": 127741.81199999999,
      "d": 171.37080208332918,
      "v": 80
    },
    {
      "midi": 55,
      "hit": false,
      "t": 127741.81199999999,
      "d": 524.1930416666582,
      "v": 75
    },
    {
      "midi": 52,
      "hit": false,
      "t": 127741.81199999999,
      "d": 544.3543124999851,
      "v": 68
    },
    {
      "midi": 36,
      "hit": false,
      "t": 127741.81199999999,
      "d": 2419.352499999979,
      "v": 62
    },
    {
      "midi": 48,
      "hit": false,
      "t": 127741.81199999999,
      "d": 2444.5540885416412,
      "v": 68
    },
    {
      "midi": 43,
      "hit": false,
      "t": 127741.81199999999,
      "d": 2641.126479166647,
      "v": 70
    },
    {
      "midi": 62,
      "hit": false,
      "t": 127741.81199999999,
      "d": 171.37080208332918,
      "v": 80
    },
    {
      "midi": 55,
      "hit": false,
      "t": 127741.81199999999,
      "d": 524.1930416666582,
      "v": 75
    },
    {
      "midi": 52,
      "hit": false,
      "t": 127741.81199999999,
      "d": 544.3543124999851,
      "v": 68
    },
    {
      "midi": 36,
      "hit": false,
      "t": 127741.81199999999,
      "d": 2419.352499999979,
      "v": 62
    },
    {
      "midi": 48,
      "hit": false,
      "t": 127741.81199999999,
      "d": 2444.5540885416412,
      "v": 68
    },
    {
      "midi": 43,
      "hit": false,
      "t": 127741.81199999999,
      "d": 2641.126479166647,
      "v": 70
    },
    {
      "midi": 60,
      "hit": false,
      "t": 128225.68249999998,
      "d": 141.12889583333163,
      "v": 82
    },
    {
      "midi": 60,
      "hit": false,
      "t": 128225.68249999998,
      "d": 141.12889583333163,
      "v": 82
    },
    {
      "midi": 64,
      "hit": false,
      "t": 129193.42349999998,
      "d": 564.5155833333265,
      "v": 51
    },
    {
      "midi": 64,
      "hit": false,
      "t": 129193.42349999998,
      "d": 564.5155833333265,
      "v": 51
    },
    {
      "midi": 67,
      "hit": false,
      "t": 129435.35874999997,
      "d": 282.25779166666325,
      "v": 72
    },
    {
      "midi": 67,
      "hit": false,
      "t": 129435.35874999997,
      "d": 282.25779166666325,
      "v": 72
    },
    {
      "midi": 76,
      "hit": false,
      "t": 129677.29399999997,
      "d": 75.60476562500116,
      "v": 96
    },
    {
      "midi": 76,
      "hit": false,
      "t": 129677.29399999997,
      "d": 75.60476562500116,
      "v": 96
    },
    {
      "midi": 57,
      "hit": false,
      "t": 131612.77599999998,
      "d": 3427.416041666671,
      "v": 68
    },
    {
      "midi": 60,
      "hit": false,
      "t": 131612.77599999998,
      "d": 3467.7385833333246,
      "v": 77
    },
    {
      "midi": 64,
      "hit": false,
      "t": 131612.77599999998,
      "d": 2767.134421875031,
      "v": 53
    },
    {
      "midi": 60,
      "hit": false,
      "t": 131612.77599999998,
      "d": 3407.2547708333877,
      "v": 59
    },
    {
      "midi": 45,
      "hit": false,
      "t": 131612.77599999998,
      "d": 3669.3512916667096,
      "v": 67
    },
    {
      "midi": 64,
      "hit": false,
      "t": 131612.77599999998,
      "d": 2767.134421875031,
      "v": 53
    },
    {
      "midi": 60,
      "hit": false,
      "t": 131612.77599999998,
      "d": 3407.2547708333877,
      "v": 59
    },
    {
      "midi": 45,
      "hit": false,
      "t": 131612.77599999998,
      "d": 3669.3512916667096,
      "v": 67
    },
    {
      "midi": 52,
      "hit": false,
      "t": 132096.64649999997,
      "d": 3346.7709583333926,
      "v": 68
    },
    {
      "midi": 52,
      "hit": false,
      "t": 132096.64649999997,
      "d": 3346.7709583333926,
      "v": 68
    },
    {
      "midi": 72,
      "hit": false,
      "t": 132580.51699999996,
      "d": 181.45143750001444,
      "v": 94
    },
    {
      "midi": 57,
      "hit": false,
      "t": 132580.51699999996,
      "d": 1633.0629375000426,
      "v": 82
    },
    {
      "midi": 72,
      "hit": false,
      "t": 132580.51699999996,
      "d": 181.45143750001444,
      "v": 94
    },
    {
      "midi": 57,
      "hit": false,
      "t": 132580.51699999996,
      "d": 1633.0629375000426,
      "v": 82
    },
    {
      "midi": 71,
      "hit": false,
      "t": 133064.38749999998,
      "d": 483.8705000000191,
      "v": 81
    },
    {
      "midi": 71,
      "hit": false,
      "t": 133064.38749999998,
      "d": 483.8705000000191,
      "v": 81
    },
    {
      "midi": 69,
      "hit": false,
      "t": 133306.32275,
      "d": 1612.9016666667012,
      "v": 67
    },
    {
      "midi": 69,
      "hit": false,
      "t": 133306.32275,
      "d": 1612.9016666667012,
      "v": 67
    },
    {
      "midi": 60,
      "hit": false,
      "t": 135241.80475000004,
      "d": 231.85461458333884,
      "v": 80
    },
    {
      "midi": 60,
      "hit": false,
      "t": 135241.80475000004,
      "d": 231.85461458333884,
      "v": 80
    },
    {
      "midi": 57,
      "hit": false,
      "t": 135483.73999999996,
      "d": 2958.666494791658,
      "v": 76
    },
    {
      "midi": 60,
      "hit": false,
      "t": 135483.73999999996,
      "d": 3054.4325312500005,
      "v": 79
    },
    {
      "midi": 67,
      "hit": false,
      "t": 135483.74000000005,
      "d": 529.233359374979,
      "v": 73
    },
    {
      "midi": 60,
      "hit": false,
      "t": 135483.74000000005,
      "d": 655.2413020833046,
      "v": 76
    },
    {
      "midi": 57,
      "hit": false,
      "t": 135483.74000000005,
      "d": 675.402572916646,
      "v": 72
    },
    {
      "midi": 41,
      "hit": false,
      "t": 135483.74000000005,
      "d": 3472.778901041631,
      "v": 76
    },
    {
      "midi": 48,
      "hit": false,
      "t": 135483.74000000005,
      "d": 3588.7062083332858,
      "v": 73
    },
    {
      "midi": 53,
      "hit": false,
      "t": 135483.74000000005,
      "d": 3618.948114583298,
      "v": 76
    },
    {
      "midi": 67,
      "hit": false,
      "t": 135483.74000000005,
      "d": 529.233359374979,
      "v": 73
    },
    {
      "midi": 60,
      "hit": false,
      "t": 135483.74000000005,
      "d": 655.2413020833046,
      "v": 76
    },
    {
      "midi": 57,
      "hit": false,
      "t": 135483.74000000005,
      "d": 675.402572916646,
      "v": 72
    },
    {
      "midi": 41,
      "hit": false,
      "t": 135483.74000000005,
      "d": 3472.778901041631,
      "v": 76
    },
    {
      "midi": 48,
      "hit": false,
      "t": 135483.74000000005,
      "d": 3588.7062083332858,
      "v": 73
    },
    {
      "midi": 53,
      "hit": false,
      "t": 135483.74000000005,
      "d": 3618.948114583298,
      "v": 76
    },
    {
      "midi": 65,
      "hit": false,
      "t": 135967.61050000004,
      "d": 267.1368385416572,
      "v": 62
    },
    {
      "midi": 65,
      "hit": false,
      "t": 135967.61050000004,
      "d": 267.1368385416572,
      "v": 62
    },
    {
      "midi": 65,
      "hit": false,
      "t": 136935.35150000002,
      "d": 438.50764062500093,
      "v": 79
    },
    {
      "midi": 65,
      "hit": false,
      "t": 136935.35150000002,
      "d": 438.50764062500093,
      "v": 79
    },
    {
      "midi": 67,
      "hit": false,
      "t": 137419.222,
      "d": 645.160666666663,
      "v": 92
    },
    {
      "midi": 67,
      "hit": false,
      "t": 137419.222,
      "d": 645.160666666663,
      "v": 92
    },
    {
      "midi": 65,
      "hit": false,
      "t": 138145.02775,
      "d": 80.64508333333652,
      "v": 69
    },
    {
      "midi": 65,
      "hit": false,
      "t": 138145.02775,
      "d": 80.64508333333652,
      "v": 69
    },
    {
      "midi": 65,
      "hit": false,
      "t": 138386.96300000002,
      "d": 201.61270833332674,
      "v": 85
    },
    {
      "midi": 65,
      "hit": false,
      "t": 138386.96300000002,
      "d": 201.61270833332674,
      "v": 85
    },
    {
      "midi": 67,
      "hit": false,
      "t": 138628.89825,
      "d": 226.8142968750035,
      "v": 73
    },
    {
      "midi": 67,
      "hit": false,
      "t": 138628.89825,
      "d": 226.8142968750035,
      "v": 73
    },
    {
      "midi": 64,
      "hit": false,
      "t": 138870.8335,
      "d": 403.2254166666826,
      "v": 91
    },
    {
      "midi": 64,
      "hit": false,
      "t": 138870.8335,
      "d": 403.2254166666826,
      "v": 91
    },
    {
      "midi": 60,
      "hit": false,
      "t": 139354.70399999997,
      "d": 2923.3842708333395,
      "v": 82
    },
    {
      "midi": 55,
      "hit": false,
      "t": 139354.70399999997,
      "d": 3029.230942708353,
      "v": 83
    },
    {
      "midi": 55,
      "hit": false,
      "t": 139354.70400000003,
      "d": 1219.7568854166602,
      "v": 70
    },
    {
      "midi": 60,
      "hit": false,
      "t": 139354.70400000003,
      "d": 1365.9260989583272,
      "v": 75
    },
    {
      "midi": 36,
      "hit": false,
      "t": 139354.70400000003,
      "d": 3805.4398697916477,
      "v": 68
    },
    {
      "midi": 55,
      "hit": false,
      "t": 139354.70400000003,
      "d": 1219.7568854166602,
      "v": 70
    },
    {
      "midi": 60,
      "hit": false,
      "t": 139354.70400000003,
      "d": 1365.9260989583272,
      "v": 75
    },
    {
      "midi": 36,
      "hit": false,
      "t": 139354.70400000003,
      "d": 3805.4398697916477,
      "v": 68
    },
    {
      "midi": 43,
      "hit": false,
      "t": 139838.57450000002,
      "d": 3165.31952083332,
      "v": 70
    },
    {
      "midi": 43,
      "hit": false,
      "t": 139838.57450000002,
      "d": 3165.31952083332,
      "v": 70
    },
    {
      "midi": 48,
      "hit": false,
      "t": 140322.445,
      "d": 75.60476562500116,
      "v": 67
    },
    {
      "midi": 48,
      "hit": false,
      "t": 140322.445,
      "d": 75.60476562500116,
      "v": 67
    },
    {
      "midi": 52,
      "hit": false,
      "t": 140806.31550000003,
      "d": 1451.611499999999,
      "v": 48
    },
    {
      "midi": 52,
      "hit": false,
      "t": 140806.31550000003,
      "d": 1451.611499999999,
      "v": 48
    },
    {
      "midi": 55,
      "hit": false,
      "t": 141774.05650000004,
      "d": 1370.9664166666334,
      "v": 64
    },
    {
      "midi": 55,
      "hit": false,
      "t": 141774.05650000004,
      "d": 1370.9664166666334,
      "v": 64
    },
    {
      "midi": 60,
      "hit": false,
      "t": 142257.92700000003,
      "d": 524.1930416666437,
      "v": 88
    },
    {
      "midi": 60,
      "hit": false,
      "t": 142257.92700000003,
      "d": 524.1930416666437,
      "v": 88
    },
    {
      "midi": 62,
      "hit": false,
      "t": 142741.79750000002,
      "d": 413.3060520833242,
      "v": 82
    },
    {
      "midi": 62,
      "hit": false,
      "t": 142741.79750000002,
      "d": 413.3060520833242,
      "v": 82
    },
    {
      "midi": 57,
      "hit": false,
      "t": 143225.66799999998,
      "d": 3205.642062500003,
      "v": 89
    },
    {
      "midi": 53,
      "hit": false,
      "t": 143225.66799999998,
      "d": 3245.9646041666565,
      "v": 72
    },
    {
      "midi": 53,
      "hit": false,
      "t": 143225.668,
      "d": 1260.079427083314,
      "v": 68
    },
    {
      "midi": 57,
      "hit": false,
      "t": 143225.668,
      "d": 1350.8051458333211,
      "v": 79
    },
    {
      "midi": 38,
      "hit": false,
      "t": 143225.668,
      "d": 3855.8430468750594,
      "v": 77
    },
    {
      "midi": 53,
      "hit": false,
      "t": 143225.668,
      "d": 1260.079427083314,
      "v": 68
    },
    {
      "midi": 57,
      "hit": false,
      "t": 143225.668,
      "d": 1350.8051458333211,
      "v": 79
    },
    {
      "midi": 38,
      "hit": false,
      "t": 143225.668,
      "d": 3855.8430468750594,
      "v": 77
    },
    {
      "midi": 62,
      "hit": false,
      "t": 143709.5385,
      "d": 811.4911510416714,
      "v": 75
    },
    {
      "midi": 62,
      "hit": false,
      "t": 143709.5385,
      "d": 811.4911510416714,
      "v": 75
    },
    {
      "midi": 45,
      "hit": false,
      "t": 144193.40899999999,
      "d": 2893.1423645834147,
      "v": 65
    },
    {
      "midi": 45,
      "hit": false,
      "t": 144193.40899999999,
      "d": 2893.1423645834147,
      "v": 65
    },
    {
      "midi": 50,
      "hit": false,
      "t": 144435.34425,
      "d": 2610.8845729167224,
      "v": 75
    },
    {
      "midi": 50,
      "hit": false,
      "t": 144435.34425,
      "d": 2610.8845729167224,
      "v": 75
    },
    {
      "midi": 62,
      "hit": false,
      "t": 144677.2795,
      "d": 1209.6762499999895,
      "v": 73
    },
    {
      "midi": 57,
      "hit": false,
      "t": 144677.2795,
      "d": 1310.4826041666674,
      "v": 68
    },
    {
      "midi": 53,
      "hit": false,
      "t": 144677.2795,
      "d": 2338.7074166667007,
      "v": 67
    },
    {
      "midi": 62,
      "hit": false,
      "t": 144677.2795,
      "d": 1209.6762499999895,
      "v": 73
    },
    {
      "midi": 57,
      "hit": false,
      "t": 144677.2795,
      "d": 1310.4826041666674,
      "v": 68
    },
    {
      "midi": 53,
      "hit": false,
      "t": 144677.2795,
      "d": 2338.7074166667007,
      "v": 67
    },
    {
      "midi": 62,
      "hit": false,
      "t": 145161.14999999997,
      "d": 1350.8051458333211,
      "v": 76
    },
    {
      "midi": 65,
      "hit": false,
      "t": 145886.95575,
      "d": 408.2657343750179,
      "v": 88
    },
    {
      "midi": 65,
      "hit": false,
      "t": 145886.95575,
      "d": 408.2657343750179,
      "v": 88
    },
    {
      "midi": 62,
      "hit": false,
      "t": 146128.891,
      "d": 831.6524218750128,
      "v": 66
    },
    {
      "midi": 62,
      "hit": false,
      "t": 146128.891,
      "d": 831.6524218750128,
      "v": 66
    },
    {
      "midi": 57,
      "hit": false,
      "t": 146854.69675,
      "d": 186.4917552083789,
      "v": 64
    },
    {
      "midi": 57,
      "hit": false,
      "t": 146854.69675,
      "d": 186.4917552083789,
      "v": 64
    },
    {
      "midi": 57,
      "hit": false,
      "t": 147096.63199999995,
      "d": 1144.152119791659,
      "v": 75
    },
    {
      "midi": 60,
      "hit": false,
      "t": 147096.63199999995,
      "d": 3467.7385833333246,
      "v": 73
    },
    {
      "midi": 60,
      "hit": false,
      "t": 147096.63200000007,
      "d": 982.8619531250151,
      "v": 65
    },
    {
      "midi": 57,
      "hit": false,
      "t": 147096.63200000007,
      "d": 997.9829062500212,
      "v": 62
    },
    {
      "midi": 45,
      "hit": false,
      "t": 147096.63200000007,
      "d": 3780.23828125,
      "v": 76
    },
    {
      "midi": 60,
      "hit": false,
      "t": 147096.63200000007,
      "d": 982.8619531250151,
      "v": 65
    },
    {
      "midi": 57,
      "hit": false,
      "t": 147096.63200000007,
      "d": 997.9829062500212,
      "v": 62
    },
    {
      "midi": 45,
      "hit": false,
      "t": 147096.63200000007,
      "d": 3780.23828125,
      "v": 76
    },
    {
      "midi": 57,
      "hit": false,
      "t": 148548.24349999995,
      "d": 2217.7397916666523,
      "v": 18
    },
    {
      "midi": 72,
      "hit": false,
      "t": 149515.98450000008,
      "d": 519.1527239583374,
      "v": 87
    },
    {
      "midi": 72,
      "hit": false,
      "t": 149515.98450000008,
      "d": 519.1527239583374,
      "v": 87
    },
    {
      "midi": 71,
      "hit": false,
      "t": 149999.85500000007,
      "d": 534.2736770833435,
      "v": 79
    },
    {
      "midi": 71,
      "hit": false,
      "t": 149999.85500000007,
      "d": 534.2736770833435,
      "v": 79
    },
    {
      "midi": 69,
      "hit": false,
      "t": 150483.7255000001,
      "d": 483.87049999999,
      "v": 79
    },
    {
      "midi": 69,
      "hit": false,
      "t": 150483.7255000001,
      "d": 483.87049999999,
      "v": 79
    },
    {
      "midi": 59,
      "hit": false,
      "t": 150967.59599999993,
      "d": 2434.473453124985,
      "v": 72
    },
    {
      "midi": 62,
      "hit": false,
      "t": 150967.59599999993,
      "d": 2469.7556770833326,
      "v": 80
    },
    {
      "midi": 69,
      "hit": false,
      "t": 150967.59600000008,
      "d": 468.74954687501304,
      "v": 67
    },
    {
      "midi": 59,
      "hit": false,
      "t": 150967.59600000008,
      "d": 1436.4905468750221,
      "v": 67
    },
    {
      "midi": 62,
      "hit": false,
      "t": 150967.59600000008,
      "d": 1688.5064322917024,
      "v": 74
    },
    {
      "midi": 43,
      "hit": false,
      "t": 150967.59600000008,
      "d": 3870.9640000000363,
      "v": 70
    },
    {
      "midi": 69,
      "hit": false,
      "t": 150967.59600000008,
      "d": 468.74954687501304,
      "v": 67
    },
    {
      "midi": 59,
      "hit": false,
      "t": 150967.59600000008,
      "d": 1436.4905468750221,
      "v": 67
    },
    {
      "midi": 62,
      "hit": false,
      "t": 150967.59600000008,
      "d": 1688.5064322917024,
      "v": 74
    },
    {
      "midi": 43,
      "hit": false,
      "t": 150967.59600000008,
      "d": 3870.9640000000363,
      "v": 70
    },
    {
      "midi": 67,
      "hit": false,
      "t": 151451.4665000001,
      "d": 1149.1924375000235,
      "v": 64
    },
    {
      "midi": 50,
      "hit": false,
      "t": 151451.4665000001,
      "d": 3150.198567708372,
      "v": 52
    },
    {
      "midi": 67,
      "hit": false,
      "t": 151451.4665000001,
      "d": 1149.1924375000235,
      "v": 64
    },
    {
      "midi": 50,
      "hit": false,
      "t": 151451.4665000001,
      "d": 3150.198567708372,
      "v": 52
    },
    {
      "midi": 55,
      "hit": false,
      "t": 152419.2075000001,
      "d": 1441.5308645833575,
      "v": 62
    },
    {
      "midi": 55,
      "hit": false,
      "t": 152419.2075000001,
      "d": 1441.5308645833575,
      "v": 62
    },
    {
      "midi": 59,
      "hit": false,
      "t": 152661.14275000012,
      "d": 1834.6756458333402,
      "v": 49
    },
    {
      "midi": 59,
      "hit": false,
      "t": 152661.14275000012,
      "d": 1834.6756458333402,
      "v": 49
    },
    {
      "midi": 62,
      "hit": false,
      "t": 152903.07800000013,
      "d": 1648.1838906249905,
      "v": 70
    },
    {
      "midi": 62,
      "hit": false,
      "t": 152903.07800000013,
      "d": 1648.1838906249905,
      "v": 70
    },
    {
      "midi": 67,
      "hit": false,
      "t": 154354.68950000012,
      "d": 221.77397916666814,
      "v": 75
    },
    {
      "midi": 67,
      "hit": false,
      "t": 154354.68950000012,
      "d": 221.77397916666814,
      "v": 75
    },
    {
      "midi": 55,
      "hit": false,
      "t": 154596.62475000013,
      "d": 201.61270833332674,
      "v": 72
    },
    {
      "midi": 55,
      "hit": false,
      "t": 154596.62475000013,
      "d": 201.61270833332674,
      "v": 72
    },
    {
      "midi": 71,
      "hit": false,
      "t": 154838.55999999994,
      "d": 1068.547354166658,
      "v": 75
    },
    {
      "midi": 67,
      "hit": false,
      "t": 154838.55999999994,
      "d": 1134.0714843749884,
      "v": 72
    },
    {
      "midi": 71,
      "hit": false,
      "t": 154838.5600000001,
      "d": 917.3378229166847,
      "v": 82
    },
    {
      "midi": 67,
      "hit": false,
      "t": 154838.5600000001,
      "d": 1103.8295781250054,
      "v": 71
    },
    {
      "midi": 43,
      "hit": false,
      "t": 154838.5600000001,
      "d": 3870.9640000000363,
      "v": 77
    },
    {
      "midi": 71,
      "hit": false,
      "t": 154838.5600000001,
      "d": 917.3378229166847,
      "v": 82
    },
    {
      "midi": 67,
      "hit": false,
      "t": 154838.5600000001,
      "d": 1103.8295781250054,
      "v": 71
    },
    {
      "midi": 43,
      "hit": false,
      "t": 154838.5600000001,
      "d": 3870.9640000000363,
      "v": 77
    },
    {
      "midi": 50,
      "hit": false,
      "t": 155322.43050000013,
      "d": 3387.0935000000172,
      "v": 76
    },
    {
      "midi": 50,
      "hit": false,
      "t": 155322.43050000013,
      "d": 3387.0935000000172,
      "v": 76
    },
    {
      "midi": 55,
      "hit": false,
      "t": 155806.30100000012,
      "d": 146.16921354166698,
      "v": 76
    },
    {
      "midi": 72,
      "hit": false,
      "t": 155806.30100000012,
      "d": 196.57239062499139,
      "v": 73
    },
    {
      "midi": 55,
      "hit": false,
      "t": 155806.30100000012,
      "d": 146.16921354166698,
      "v": 76
    },
    {
      "midi": 72,
      "hit": false,
      "t": 155806.30100000012,
      "d": 196.57239062499139,
      "v": 73
    },
    {
      "midi": 67,
      "hit": false,
      "t": 156290.17149999994,
      "d": 1280.2406979166553,
      "v": 71
    },
    {
      "midi": 65,
      "hit": false,
      "t": 156290.17149999994,
      "d": 1295.3616510416614,
      "v": 62
    },
    {
      "midi": 65,
      "hit": false,
      "t": 156290.1715000001,
      "d": 1718.7483385416854,
      "v": 79
    },
    {
      "midi": 72,
      "hit": false,
      "t": 156290.1715000001,
      "d": 1743.9499270833621,
      "v": 81
    },
    {
      "midi": 67,
      "hit": false,
      "t": 156290.1715000001,
      "d": 1759.0708802083682,
      "v": 84
    },
    {
      "midi": 65,
      "hit": false,
      "t": 156290.1715000001,
      "d": 1718.7483385416854,
      "v": 79
    },
    {
      "midi": 72,
      "hit": false,
      "t": 156290.1715000001,
      "d": 1743.9499270833621,
      "v": 81
    },
    {
      "midi": 67,
      "hit": false,
      "t": 156290.1715000001,
      "d": 1759.0708802083682,
      "v": 84
    },
    {
      "midi": 57,
      "hit": false,
      "t": 157983.71825000012,
      "d": 670.3622552083689,
      "v": 76
    },
    {
      "midi": 57,
      "hit": false,
      "t": 157983.71825000012,
      "d": 670.3622552083689,
      "v": 76
    },
    {
      "midi": 72,
      "hit": false,
      "t": 158225.65350000016,
      "d": 221.77397916666814,
      "v": 98
    },
    {
      "midi": 72,
      "hit": false,
      "t": 158225.65350000016,
      "d": 221.77397916666814,
      "v": 98
    },
    {
      "midi": 74,
      "hit": false,
      "t": 158467.58875000017,
      "d": 241.93524999998044,
      "v": 94
    },
    {
      "midi": 74,
      "hit": false,
      "t": 158467.58875000017,
      "d": 241.93524999998044,
      "v": 94
    },
    {
      "midi": 55,
      "hit": false,
      "t": 158709.52399999995,
      "d": 3482.8595364583016,
      "v": 96
    },
    {
      "midi": 77,
      "hit": false,
      "t": 158709.52400000015,
      "d": 433.4673229166656,
      "v": 94
    },
    {
      "midi": 72,
      "hit": false,
      "t": 158709.52400000015,
      "d": 740.9267031250056,
      "v": 94
    },
    {
      "midi": 67,
      "hit": false,
      "t": 158709.52400000015,
      "d": 781.2492447916593,
      "v": 85
    },
    {
      "midi": 48,
      "hit": false,
      "t": 158709.52400000015,
      "d": 3840.7220937500824,
      "v": 86
    },
    {
      "midi": 77,
      "hit": false,
      "t": 158709.52400000015,
      "d": 433.4673229166656,
      "v": 94
    },
    {
      "midi": 72,
      "hit": false,
      "t": 158709.52400000015,
      "d": 740.9267031250056,
      "v": 94
    },
    {
      "midi": 67,
      "hit": false,
      "t": 158709.52400000015,
      "d": 781.2492447916593,
      "v": 85
    },
    {
      "midi": 48,
      "hit": false,
      "t": 158709.52400000015,
      "d": 3840.7220937500824,
      "v": 86
    },
    {
      "midi": 76,
      "hit": false,
      "t": 159193.39450000014,
      "d": 241.93525000000955,
      "v": 73
    },
    {
      "midi": 55,
      "hit": false,
      "t": 159193.39450000014,
      "d": 498.99145312499604,
      "v": 76
    },
    {
      "midi": 76,
      "hit": false,
      "t": 159193.39450000014,
      "d": 241.93525000000955,
      "v": 73
    },
    {
      "midi": 55,
      "hit": false,
      "t": 159193.39450000014,
      "d": 498.99145312499604,
      "v": 76
    },
    {
      "midi": 72,
      "hit": false,
      "t": 159677.26500000013,
      "d": 115.92730729168397,
      "v": 98
    },
    {
      "midi": 76,
      "hit": false,
      "t": 159677.26500000013,
      "d": 221.77397916669725,
      "v": 96
    },
    {
      "midi": 67,
      "hit": false,
      "t": 159677.26500000013,
      "d": 423.3866875000531,
      "v": 82
    },
    {
      "midi": 60,
      "hit": false,
      "t": 159677.26500000013,
      "d": 831.6524218750419,
      "v": 86
    },
    {
      "midi": 72,
      "hit": false,
      "t": 159677.26500000013,
      "d": 115.92730729168397,
      "v": 98
    },
    {
      "midi": 76,
      "hit": false,
      "t": 159677.26500000013,
      "d": 221.77397916669725,
      "v": 96
    },
    {
      "midi": 67,
      "hit": false,
      "t": 159677.26500000013,
      "d": 423.3866875000531,
      "v": 82
    },
    {
      "midi": 60,
      "hit": false,
      "t": 159677.26500000013,
      "d": 831.6524218750419,
      "v": 86
    },
    {
      "midi": 72,
      "hit": false,
      "t": 159919.20025000017,
      "d": 90.72571875000722,
      "v": 80
    },
    {
      "midi": 72,
      "hit": false,
      "t": 159919.20025000017,
      "d": 90.72571875000722,
      "v": 80
    },
    {
      "midi": 72,
      "hit": false,
      "t": 160161.13550000018,
      "d": 1391.127687500004,
      "v": 100
    },
    {
      "midi": 67,
      "hit": false,
      "t": 160161.13550000018,
      "d": 1431.4502291666577,
      "v": 76
    },
    {
      "midi": 72,
      "hit": false,
      "t": 160161.13550000018,
      "d": 1391.127687500004,
      "v": 100
    },
    {
      "midi": 67,
      "hit": false,
      "t": 160161.13550000018,
      "d": 1431.4502291666577,
      "v": 76
    },
    {
      "midi": 60,
      "hit": false,
      "t": 161128.87649999995,
      "d": 524.1930416666437,
      "v": 61
    },
    {
      "midi": 55,
      "hit": false,
      "t": 161370.81175000017,
      "d": 1169.353708333394,
      "v": 79
    },
    {
      "midi": 55,
      "hit": false,
      "t": 161370.81175000017,
      "d": 1169.353708333394,
      "v": 79
    },
    {
      "midi": 62,
      "hit": false,
      "t": 161612.74699999994,
      "d": 524.1930416666437,
      "v": 85
    },
    {
      "midi": 60,
      "hit": false,
      "t": 161612.74700000018,
      "d": 902.2168697917077,
      "v": 91
    },
    {
      "midi": 60,
      "hit": false,
      "t": 161612.74700000018,
      "d": 902.2168697917077,
      "v": 91
    },
    {
      "midi": 67,
      "hit": false,
      "t": 161854.6822500002,
      "d": 690.5235260417103,
      "v": 81
    },
    {
      "midi": 67,
      "hit": false,
      "t": 161854.6822500002,
      "d": 690.5235260417103,
      "v": 81
    },
    {
      "midi": 72,
      "hit": false,
      "t": 162096.6175000002,
      "d": 262.09652083335095,
      "v": 91
    },
    {
      "midi": 72,
      "hit": false,
      "t": 162096.6175000002,
      "d": 262.09652083335095,
      "v": 91
    },
    {
      "midi": 74,
      "hit": false,
      "t": 162338.5527500002,
      "d": 231.85461458336795,
      "v": 82
    },
    {
      "midi": 74,
      "hit": false,
      "t": 162338.5527500002,
      "d": 231.85461458336795,
      "v": 82
    },
    {
      "midi": 55,
      "hit": false,
      "t": 162580.48799999992,
      "d": 3825.601140624989,
      "v": 78
    },
    {
      "midi": 59,
      "hit": false,
      "t": 162580.48799999992,
      "d": 3830.6414583333244,
      "v": 83
    },
    {
      "midi": 76,
      "hit": false,
      "t": 162580.48800000024,
      "d": 393.1447812500119,
      "v": 103
    },
    {
      "midi": 71,
      "hit": false,
      "t": 162580.48800000024,
      "d": 564.5155833333556,
      "v": 97
    },
    {
      "midi": 67,
      "hit": false,
      "t": 162580.48800000024,
      "d": 715.7251145833579,
      "v": 92
    },
    {
      "midi": 47,
      "hit": false,
      "t": 162580.48800000024,
      "d": 3790.318916666787,
      "v": 87
    },
    {
      "midi": 76,
      "hit": false,
      "t": 162580.48800000024,
      "d": 393.1447812500119,
      "v": 103
    },
    {
      "midi": 71,
      "hit": false,
      "t": 162580.48800000024,
      "d": 564.5155833333556,
      "v": 97
    },
    {
      "midi": 67,
      "hit": false,
      "t": 162580.48800000024,
      "d": 715.7251145833579,
      "v": 92
    },
    {
      "midi": 47,
      "hit": false,
      "t": 162580.48800000024,
      "d": 3790.318916666787,
      "v": 87
    },
    {
      "midi": 74,
      "hit": false,
      "t": 163064.35850000026,
      "d": 282.25779166666325,
      "v": 76
    },
    {
      "midi": 55,
      "hit": false,
      "t": 163064.35850000026,
      "d": 514.1124062500021,
      "v": 77
    },
    {
      "midi": 74,
      "hit": false,
      "t": 163064.35850000026,
      "d": 282.25779166666325,
      "v": 76
    },
    {
      "midi": 55,
      "hit": false,
      "t": 163064.35850000026,
      "d": 514.1124062500021,
      "v": 77
    },
    {
      "midi": 71,
      "hit": false,
      "t": 163548.22900000025,
      "d": 50.40317708335351,
      "v": 94
    },
    {
      "midi": 67,
      "hit": false,
      "t": 163548.22900000025,
      "d": 85.68540104170097,
      "v": 91
    },
    {
      "midi": 74,
      "hit": false,
      "t": 163548.22900000025,
      "d": 85.68540104170097,
      "v": 92
    },
    {
      "midi": 59,
      "hit": false,
      "t": 163548.22900000025,
      "d": 1169.353708333394,
      "v": 89
    },
    {
      "midi": 71,
      "hit": false,
      "t": 163548.22900000025,
      "d": 50.40317708335351,
      "v": 94
    },
    {
      "midi": 67,
      "hit": false,
      "t": 163548.22900000025,
      "d": 85.68540104170097,
      "v": 91
    },
    {
      "midi": 74,
      "hit": false,
      "t": 163548.22900000025,
      "d": 85.68540104170097,
      "v": 92
    },
    {
      "midi": 59,
      "hit": false,
      "t": 163548.22900000025,
      "d": 1169.353708333394,
      "v": 89
    },
    {
      "midi": 62,
      "hit": false,
      "t": 163790.1642500003,
      "d": 30.241906250012107,
      "v": 83
    },
    {
      "midi": 62,
      "hit": false,
      "t": 163790.1642500003,
      "d": 30.241906250012107,
      "v": 83
    },
    {
      "midi": 62,
      "hit": false,
      "t": 164032.0995000003,
      "d": 1053.426401041681,
      "v": 103
    },
    {
      "midi": 62,
      "hit": false,
      "t": 164032.0995000003,
      "d": 1053.426401041681,
      "v": 103
    },
    {
      "midi": 55,
      "hit": false,
      "t": 164999.8405000003,
      "d": 1270.160062500072,
      "v": 85
    },
    {
      "midi": 55,
      "hit": false,
      "t": 164999.8405000003,
      "d": 1270.160062500072,
      "v": 85
    },
    {
      "midi": 59,
      "hit": false,
      "t": 165241.77575000032,
      "d": 1083.6683072917222,
      "v": 82
    },
    {
      "midi": 59,
      "hit": false,
      "t": 165241.77575000032,
      "d": 1083.6683072917222,
      "v": 82
    },
    {
      "midi": 62,
      "hit": false,
      "t": 165483.71100000033,
      "d": 756.0476562500407,
      "v": 85
    },
    {
      "midi": 62,
      "hit": false,
      "t": 165483.71100000033,
      "d": 756.0476562500407,
      "v": 85
    },
    {
      "midi": 74,
      "hit": false,
      "t": 165725.64625000034,
      "d": 302.41906250000466,
      "v": 97
    },
    {
      "midi": 74,
      "hit": false,
      "t": 165725.64625000034,
      "d": 302.41906250000466,
      "v": 97
    },
    {
      "midi": 71,
      "hit": false,
      "t": 165967.58150000035,
      "d": 241.93525000000955,
      "v": 67
    },
    {
      "midi": 71,
      "hit": false,
      "t": 165967.58150000035,
      "d": 241.93525000000955,
      "v": 67
    },
    {
      "midi": 74,
      "hit": false,
      "t": 166451.45200000037,
      "d": 418.3463697916595,
      "v": 96
    },
    {
      "midi": 69,
      "hit": false,
      "t": 166451.45200000037,
      "d": 680.4428906249814,
      "v": 86
    },
    {
      "midi": 64,
      "hit": false,
      "t": 166451.45200000037,
      "d": 826.6121041666484,
      "v": 84
    },
    {
      "midi": 45,
      "hit": false,
      "t": 166451.45200000037,
      "d": 3825.6011406250473,
      "v": 85
    },
    {
      "midi": 74,
      "hit": false,
      "t": 166451.45200000037,
      "d": 418.3463697916595,
      "v": 96
    },
    {
      "midi": 69,
      "hit": false,
      "t": 166451.45200000037,
      "d": 680.4428906249814,
      "v": 86
    },
    {
      "midi": 64,
      "hit": false,
      "t": 166451.45200000037,
      "d": 826.6121041666484,
      "v": 84
    },
    {
      "midi": 45,
      "hit": false,
      "t": 166451.45200000037,
      "d": 3825.6011406250473,
      "v": 85
    },
    {
      "midi": 72,
      "hit": false,
      "t": 166935.32250000036,
      "d": 292.33842708333395,
      "v": 75
    },
    {
      "midi": 52,
      "hit": false,
      "t": 166935.32250000036,
      "d": 504.0317708333314,
      "v": 76
    },
    {
      "midi": 72,
      "hit": false,
      "t": 166935.32250000036,
      "d": 292.33842708333395,
      "v": 75
    },
    {
      "midi": 52,
      "hit": false,
      "t": 166935.32250000036,
      "d": 504.0317708333314,
      "v": 76
    },
    {
      "midi": 69,
      "hit": false,
      "t": 167419.19300000035,
      "d": 65.52413020833046,
      "v": 81
    },
    {
      "midi": 64,
      "hit": false,
      "t": 167419.19300000035,
      "d": 70.56444791666581,
      "v": 81
    },
    {
      "midi": 72,
      "hit": false,
      "t": 167419.19300000035,
      "d": 206.6530260416621,
      "v": 92
    },
    {
      "midi": 57,
      "hit": false,
      "t": 167419.19300000035,
      "d": 680.4428906250105,
      "v": 88
    },
    {
      "midi": 69,
      "hit": false,
      "t": 167419.19300000035,
      "d": 65.52413020833046,
      "v": 81
    },
    {
      "midi": 64,
      "hit": false,
      "t": 167419.19300000035,
      "d": 70.56444791666581,
      "v": 81
    },
    {
      "midi": 72,
      "hit": false,
      "t": 167419.19300000035,
      "d": 206.6530260416621,
      "v": 92
    },
    {
      "midi": 57,
      "hit": false,
      "t": 167419.19300000035,
      "d": 680.4428906250105,
      "v": 88
    },
    {
      "midi": 64,
      "hit": false,
      "t": 167661.12825000036,
      "d": 95.76603645834257,
      "v": 73
    },
    {
      "midi": 64,
      "hit": false,
      "t": 167661.12825000036,
      "d": 95.76603645834257,
      "v": 73
    },
    {
      "midi": 64,
      "hit": false,
      "t": 167903.06350000037,
      "d": 892.1362343749788,
      "v": 96
    },
    {
      "midi": 64,
      "hit": false,
      "t": 167903.06350000037,
      "d": 892.1362343749788,
      "v": 96
    },
    {
      "midi": 52,
      "hit": false,
      "t": 168870.80450000035,
      "d": 1381.0470520833915,
      "v": 79
    },
    {
      "midi": 52,
      "hit": false,
      "t": 168870.80450000035,
      "d": 1381.0470520833915,
      "v": 79
    },
    {
      "midi": 57,
      "hit": false,
      "t": 169112.73975000036,
      "d": 1129.0311666667112,
      "v": 76
    },
    {
      "midi": 57,
      "hit": false,
      "t": 169112.73975000036,
      "d": 1129.0311666667112,
      "v": 76
    },
    {
      "midi": 60,
      "hit": false,
      "t": 169354.67500000037,
      "d": 806.4508333333652,
      "v": 82
    },
    {
      "midi": 60,
      "hit": false,
      "t": 169354.67500000037,
      "d": 806.4508333333652,
      "v": 82
    },
    {
      "midi": 64,
      "hit": false,
      "t": 169596.61025000038,
      "d": 544.3543125000142,
      "v": 82
    },
    {
      "midi": 64,
      "hit": false,
      "t": 169596.61025000038,
      "d": 544.3543125000142,
      "v": 82
    },
    {
      "midi": 72,
      "hit": false,
      "t": 169838.5455000004,
      "d": 176.41111979167908,
      "v": 80
    },
    {
      "midi": 72,
      "hit": false,
      "t": 169838.5455000004,
      "d": 176.41111979167908,
      "v": 80
    },
    {
      "midi": 50,
      "hit": false,
      "t": 170322.4159999999,
      "d": 2111.893119791668,
      "v": 63
    },
    {
      "midi": 55,
      "hit": false,
      "t": 170322.4159999999,
      "d": 2116.9334375000035,
      "v": 78
    },
    {
      "midi": 62,
      "hit": false,
      "t": 170322.41600000043,
      "d": 1068.547354166658,
      "v": 73
    },
    {
      "midi": 71,
      "hit": false,
      "t": 170322.41600000043,
      "d": 1149.1924374999944,
      "v": 92
    },
    {
      "midi": 43,
      "hit": false,
      "t": 170322.41600000043,
      "d": 3775.197963541723,
      "v": 82
    },
    {
      "midi": 62,
      "hit": false,
      "t": 170322.41600000043,
      "d": 1068.547354166658,
      "v": 73
    },
    {
      "midi": 71,
      "hit": false,
      "t": 170322.41600000043,
      "d": 1149.1924374999944,
      "v": 92
    },
    {
      "midi": 43,
      "hit": false,
      "t": 170322.41600000043,
      "d": 3775.197963541723,
      "v": 82
    },
    {
      "midi": 50,
      "hit": false,
      "t": 170806.28650000042,
      "d": 509.07208854166674,
      "v": 67
    },
    {
      "midi": 50,
      "hit": false,
      "t": 170806.28650000042,
      "d": 509.07208854166674,
      "v": 67
    },
    {
      "midi": 55,
      "hit": false,
      "t": 171290.1570000004,
      "d": 987.9022708333796,
      "v": 80
    },
    {
      "midi": 55,
      "hit": false,
      "t": 171290.1570000004,
      "d": 987.9022708333796,
      "v": 80
    },
    {
      "midi": 62,
      "hit": false,
      "t": 171532.09225000042,
      "d": 1522.175947916694,
      "v": 77
    },
    {
      "midi": 62,
      "hit": false,
      "t": 171532.09225000042,
      "d": 1522.175947916694,
      "v": 77
    },
    {
      "midi": 69,
      "hit": false,
      "t": 171774.02750000043,
      "d": 473.7898645833484,
      "v": 82
    },
    {
      "midi": 69,
      "hit": false,
      "t": 171774.02750000043,
      "d": 473.7898645833484,
      "v": 82
    },
    {
      "midi": 50,
      "hit": false,
      "t": 172015.96275000044,
      "d": 927.4184583333554,
      "v": 79
    },
    {
      "midi": 50,
      "hit": false,
      "t": 172015.96275000044,
      "d": 927.4184583333554,
      "v": 79
    },
    {
      "midi": 71,
      "hit": false,
      "t": 172257.89800000045,
      "d": 745.9670208333409,
      "v": 94
    },
    {
      "midi": 71,
      "hit": false,
      "t": 172257.89800000045,
      "d": 745.9670208333409,
      "v": 94
    },
    {
      "midi": 55,
      "hit": false,
      "t": 172983.70375000045,
      "d": 1134.0714843750466,
      "v": 76
    },
    {
      "midi": 55,
      "hit": false,
      "t": 172983.70375000045,
      "d": 1134.0714843750466,
      "v": 76
    },
    {
      "midi": 72,
      "hit": false,
      "t": 173225.63900000046,
      "d": 322.58033333334606,
      "v": 96
    },
    {
      "midi": 72,
      "hit": false,
      "t": 173225.63900000046,
      "d": 322.58033333334606,
      "v": 96
    },
    {
      "midi": 71,
      "hit": false,
      "t": 173467.57425000047,
      "d": 241.93525000000955,
      "v": 73
    },
    {
      "midi": 71,
      "hit": false,
      "t": 173467.57425000047,
      "d": 241.93525000000955,
      "v": 73
    },
    {
      "midi": 69,
      "hit": false,
      "t": 173709.50950000048,
      "d": 211.69334374999744,
      "v": 82
    },
    {
      "midi": 69,
      "hit": false,
      "t": 173709.50950000048,
      "d": 211.69334374999744,
      "v": 82
    },
    {
      "midi": 67,
      "hit": false,
      "t": 173951.4447500005,
      "d": 216.7336614583328,
      "v": 78
    },
    {
      "midi": 67,
      "hit": false,
      "t": 173951.4447500005,
      "d": 216.7336614583328,
      "v": 78
    },
    {
      "midi": 65,
      "hit": false,
      "t": 174193.37999999992,
      "d": 1396.1680052083393,
      "v": 81
    },
    {
      "midi": 60,
      "hit": false,
      "t": 174193.37999999992,
      "d": 2711.690927083342,
      "v": 77
    },
    {
      "midi": 65,
      "hit": false,
      "t": 174193.3800000005,
      "d": 786.2895624999946,
      "v": 91
    },
    {
      "midi": 60,
      "hit": false,
      "t": 174193.3800000005,
      "d": 836.692739583319,
      "v": 83
    },
    {
      "midi": 71,
      "hit": false,
      "t": 174193.3800000005,
      "d": 937.499093749997,
      "v": 96
    },
    {
      "midi": 41,
      "hit": false,
      "t": 174193.3800000005,
      "d": 3613.907796875079,
      "v": 85
    },
    {
      "midi": 65,
      "hit": false,
      "t": 174193.3800000005,
      "d": 786.2895624999946,
      "v": 91
    },
    {
      "midi": 60,
      "hit": false,
      "t": 174193.3800000005,
      "d": 836.692739583319,
      "v": 83
    },
    {
      "midi": 71,
      "hit": false,
      "t": 174193.3800000005,
      "d": 937.499093749997,
      "v": 96
    },
    {
      "midi": 41,
      "hit": false,
      "t": 174193.3800000005,
      "d": 3613.907796875079,
      "v": 85
    },
    {
      "midi": 48,
      "hit": false,
      "t": 174677.2505000005,
      "d": 3130.037296875089,
      "v": 84
    },
    {
      "midi": 48,
      "hit": false,
      "t": 174677.2505000005,
      "d": 3130.037296875089,
      "v": 84
    },
    {
      "midi": 53,
      "hit": false,
      "t": 174919.1857500005,
      "d": 1209.6762500000477,
      "v": 79
    },
    {
      "midi": 53,
      "hit": false,
      "t": 174919.1857500005,
      "d": 1209.6762500000477,
      "v": 79
    },
    {
      "midi": 60,
      "hit": false,
      "t": 175161.1210000005,
      "d": 1527.2162656250293,
      "v": 82
    },
    {
      "midi": 60,
      "hit": false,
      "t": 175161.1210000005,
      "d": 1527.2162656250293,
      "v": 82
    },
    {
      "midi": 67,
      "hit": false,
      "t": 175403.05625000052,
      "d": 277.217473958357,
      "v": 76
    },
    {
      "midi": 67,
      "hit": false,
      "t": 175403.05625000052,
      "d": 277.217473958357,
      "v": 76
    },
    {
      "midi": 69,
      "hit": false,
      "t": 175644.99149999992,
      "d": 1300.4019687499967,
      "v": 90
    },
    {
      "midi": 69,
      "hit": false,
      "t": 175644.99150000053,
      "d": 1073.5876718750224,
      "v": 101
    },
    {
      "midi": 69,
      "hit": false,
      "t": 175644.99150000053,
      "d": 1073.5876718750224,
      "v": 101
    },
    {
      "midi": 53,
      "hit": false,
      "t": 176854.66775000055,
      "d": 967.7410000000382,
      "v": 77
    },
    {
      "midi": 53,
      "hit": false,
      "t": 176854.66775000055,
      "d": 967.7410000000382,
      "v": 77
    },
    {
      "midi": 67,
      "hit": false,
      "t": 177096.60300000056,
      "d": 317.5400156250107,
      "v": 105
    },
    {
      "midi": 67,
      "hit": false,
      "t": 177096.60300000056,
      "d": 317.5400156250107,
      "v": 105
    },
    {
      "midi": 65,
      "hit": false,
      "t": 177338.53825000057,
      "d": 287.2981093749986,
      "v": 98
    },
    {
      "midi": 65,
      "hit": false,
      "t": 177338.53825000057,
      "d": 287.2981093749986,
      "v": 98
    },
    {
      "midi": 64,
      "hit": false,
      "t": 177580.47350000057,
      "d": 241.93525000000955,
      "v": 91
    },
    {
      "midi": 64,
      "hit": false,
      "t": 177580.47350000057,
      "d": 241.93525000000955,
      "v": 91
    },
    {
      "midi": 62,
      "hit": false,
      "t": 177822.40875000058,
      "d": 196.57239062499139,
      "v": 82
    },
    {
      "midi": 62,
      "hit": false,
      "t": 177822.40875000058,
      "d": 196.57239062499139,
      "v": 82
    },
    {
      "midi": 60,
      "hit": false,
      "t": 178064.34400000056,
      "d": 226.8142968750035,
      "v": 79
    },
    {
      "midi": 64,
      "hit": false,
      "t": 178064.34400000056,
      "d": 252.01588541668025,
      "v": 86
    },
    {
      "midi": 67,
      "hit": false,
      "t": 178064.34400000056,
      "d": 312.49969791667536,
      "v": 86
    },
    {
      "midi": 48,
      "hit": false,
      "t": 178064.34400000056,
      "d": 1895.1594583333354,
      "v": 91
    },
    {
      "midi": 60,
      "hit": false,
      "t": 178064.34400000056,
      "d": 226.8142968750035,
      "v": 79
    },
    {
      "midi": 64,
      "hit": false,
      "t": 178064.34400000056,
      "d": 252.01588541668025,
      "v": 86
    },
    {
      "midi": 67,
      "hit": false,
      "t": 178064.34400000056,
      "d": 312.49969791667536,
      "v": 86
    },
    {
      "midi": 48,
      "hit": false,
      "t": 178064.34400000056,
      "d": 1895.1594583333354,
      "v": 91
    },
    {
      "midi": 60,
      "hit": false,
      "t": 179032.0849999999,
      "d": 2409.2718645833666,
      "v": 68
    },
    {
      "midi": 64,
      "hit": false,
      "t": 179274.0202499999,
      "d": 262.09652083335095,
      "v": 70
    },
    {
      "midi": 64,
      "hit": false,
      "t": 179274.02025000058,
      "d": 357.8625572916644,
      "v": 89
    },
    {
      "midi": 64,
      "hit": false,
      "t": 179274.02025000058,
      "d": 357.8625572916644,
      "v": 89
    },
    {
      "midi": 67,
      "hit": false,
      "t": 179515.95549999992,
      "d": 1970.7642239583365,
      "v": 76
    },
    {
      "midi": 67,
      "hit": false,
      "t": 179515.9555000006,
      "d": 241.93524999998044,
      "v": 73
    },
    {
      "midi": 67,
      "hit": false,
      "t": 179515.9555000006,
      "d": 241.93524999998044,
      "v": 73
    },
    {
      "midi": 72,
      "hit": false,
      "t": 179757.89075000057,
      "d": 70.56444791666581,
      "v": 82
    },
    {
      "midi": 72,
      "hit": false,
      "t": 179757.89075000057,
      "d": 70.56444791666581,
      "v": 82
    },
    {
      "midi": 64,
      "hit": false,
      "t": 179999.82600000058,
      "d": 524.1930416666728,
      "v": 82
    },
    {
      "midi": 60,
      "hit": false,
      "t": 179999.82600000058,
      "d": 599.797807291674,
      "v": 86
    },
    {
      "midi": 57,
      "hit": false,
      "t": 179999.82600000058,
      "d": 1365.9260989583563,
      "v": 82
    },
    {
      "midi": 64,
      "hit": false,
      "t": 179999.82600000058,
      "d": 524.1930416666728,
      "v": 82
    },
    {
      "midi": 60,
      "hit": false,
      "t": 179999.82600000058,
      "d": 599.797807291674,
      "v": 86
    },
    {
      "midi": 57,
      "hit": false,
      "t": 179999.82600000058,
      "d": 1365.9260989583563,
      "v": 82
    },
    {
      "midi": 60,
      "hit": false,
      "t": 180725.63175000058,
      "d": 105.84667187501327,
      "v": 73
    },
    {
      "midi": 60,
      "hit": false,
      "t": 180725.63175000058,
      "d": 105.84667187501327,
      "v": 73
    },
    {
      "midi": 65,
      "hit": false,
      "t": 180967.5670000006,
      "d": 262.09652083335095,
      "v": 103
    },
    {
      "midi": 65,
      "hit": false,
      "t": 180967.5670000006,
      "d": 262.09652083335095,
      "v": 103
    },
    {
      "midi": 64,
      "hit": false,
      "t": 181209.5022500006,
      "d": 216.7336614583328,
      "v": 80
    },
    {
      "midi": 64,
      "hit": false,
      "t": 181209.5022500006,
      "d": 216.7336614583328,
      "v": 80
    },
    {
      "midi": 62,
      "hit": false,
      "t": 181451.4375000006,
      "d": 252.01588541668025,
      "v": 76
    },
    {
      "midi": 62,
      "hit": false,
      "t": 181451.4375000006,
      "d": 252.01588541668025,
      "v": 76
    },
    {
      "midi": 60,
      "hit": false,
      "t": 181693.37275000062,
      "d": 141.12889583333163,
      "v": 70
    },
    {
      "midi": 60,
      "hit": false,
      "t": 181693.37275000062,
      "d": 141.12889583333163,
      "v": 70
    },
    {
      "midi": 64,
      "hit": false,
      "t": 181935.30799999993,
      "d": 1769.1515156249807,
      "v": 70
    },
    {
      "midi": 67,
      "hit": false,
      "t": 181935.30799999993,
      "d": 1779.2321510416514,
      "v": 67
    },
    {
      "midi": 60,
      "hit": false,
      "t": 181935.30799999993,
      "d": 1804.4337395833281,
      "v": 68
    },
    {
      "midi": 60,
      "hit": false,
      "t": 181935.30800000063,
      "d": 3150.198567708314,
      "v": 80
    },
    {
      "midi": 64,
      "hit": false,
      "t": 181935.30800000063,
      "d": 3165.31952083332,
      "v": 79
    },
    {
      "midi": 67,
      "hit": false,
      "t": 181935.30800000063,
      "d": 3165.31952083332,
      "v": 85
    },
    {
      "midi": 36,
      "hit": false,
      "t": 181935.30800000063,
      "d": 3870.964000000007,
      "v": 85
    },
    {
      "midi": 60,
      "hit": false,
      "t": 181935.30800000063,
      "d": 3150.198567708314,
      "v": 80
    },
    {
      "midi": 64,
      "hit": false,
      "t": 181935.30800000063,
      "d": 3165.31952083332,
      "v": 79
    },
    {
      "midi": 67,
      "hit": false,
      "t": 181935.30800000063,
      "d": 3165.31952083332,
      "v": 85
    },
    {
      "midi": 36,
      "hit": false,
      "t": 181935.30800000063,
      "d": 3870.964000000007,
      "v": 85
    },
    {
      "midi": 43,
      "hit": false,
      "t": 182419.17850000062,
      "d": 3387.0935000000172,
      "v": 75
    },
    {
      "midi": 43,
      "hit": false,
      "t": 182419.17850000062,
      "d": 3387.0935000000172,
      "v": 75
    },
    {
      "midi": 48,
      "hit": false,
      "t": 182903.0490000006,
      "d": 141.12889583333163,
      "v": 72
    },
    {
      "midi": 48,
      "hit": false,
      "t": 182903.0490000006,
      "d": 141.12889583333163,
      "v": 72
    },
    {
      "midi": 50,
      "hit": false,
      "t": 183386.9195000006,
      "d": 156.24984895833768,
      "v": 60
    },
    {
      "midi": 50,
      "hit": false,
      "t": 183386.9195000006,
      "d": 156.24984895833768,
      "v": 60
    },
    {
      "midi": 57,
      "hit": false,
      "t": 185080.4662500006,
      "d": 690.5235260416812,
      "v": 64
    },
    {
      "midi": 57,
      "hit": false,
      "t": 185080.4662500006,
      "d": 690.5235260416812,
      "v": 64
    },
    {
      "midi": 62,
      "hit": false,
      "t": 185322.40150000062,
      "d": 196.57239062499139,
      "v": 98
    },
    {
      "midi": 62,
      "hit": false,
      "t": 185322.40150000062,
      "d": 196.57239062499139,
      "v": 98
    },
    {
      "midi": 64,
      "hit": false,
      "t": 185564.3367500006,
      "d": 226.8142968750326,
      "v": 81
    },
    {
      "midi": 64,
      "hit": false,
      "t": 185564.3367500006,
      "d": 226.8142968750326,
      "v": 81
    },
    {
      "midi": 65,
      "hit": false,
      "t": 185806.27200000064,
      "d": 337.701286458323,
      "v": 87
    },
    {
      "midi": 57,
      "hit": false,
      "t": 185806.27200000064,
      "d": 1844.7562812499818,
      "v": 77
    },
    {
      "midi": 60,
      "hit": false,
      "t": 185806.27200000064,
      "d": 1910.2804114583123,
      "v": 85
    },
    {
      "midi": 31,
      "hit": false,
      "t": 185806.27200000064,
      "d": 3770.1576458333293,
      "v": 80
    },
    {
      "midi": 43,
      "hit": false,
      "t": 185806.27200000064,
      "d": 3785.2785989583354,
      "v": 80
    },
    {
      "midi": 65,
      "hit": false,
      "t": 185806.27200000064,
      "d": 337.701286458323,
      "v": 87
    },
    {
      "midi": 57,
      "hit": false,
      "t": 185806.27200000064,
      "d": 1844.7562812499818,
      "v": 77
    },
    {
      "midi": 60,
      "hit": false,
      "t": 185806.27200000064,
      "d": 1910.2804114583123,
      "v": 85
    },
    {
      "midi": 31,
      "hit": false,
      "t": 185806.27200000064,
      "d": 3770.1576458333293,
      "v": 80
    },
    {
      "midi": 43,
      "hit": false,
      "t": 185806.27200000064,
      "d": 3785.2785989583354,
      "v": 80
    },
    {
      "midi": 65,
      "hit": false,
      "t": 186290.14250000063,
      "d": 1275.20038020832,
      "v": 89
    },
    {
      "midi": 65,
      "hit": false,
      "t": 186290.14250000063,
      "d": 1275.20038020832,
      "v": 89
    },
    {
      "midi": 64,
      "hit": false,
      "t": 187741.75400000063,
      "d": 690.5235260416812,
      "v": 94
    },
    {
      "midi": 57,
      "hit": false,
      "t": 187741.75400000063,
      "d": 756.0476562500407,
      "v": 52
    },
    {
      "midi": 64,
      "hit": false,
      "t": 187741.75400000063,
      "d": 690.5235260416812,
      "v": 94
    },
    {
      "midi": 57,
      "hit": false,
      "t": 187741.75400000063,
      "d": 756.0476562500407,
      "v": 52
    },
    {
      "midi": 62,
      "hit": false,
      "t": 188467.55975000066,
      "d": 181.45143750001444,
      "v": 72
    },
    {
      "midi": 62,
      "hit": false,
      "t": 188467.55975000066,
      "d": 181.45143750001444,
      "v": 72
    },
    {
      "midi": 60,
      "hit": false,
      "t": 188709.49500000066,
      "d": 534.2736770833144,
      "v": 84
    },
    {
      "midi": 55,
      "hit": false,
      "t": 188709.49500000066,
      "d": 907.2571874999849,
      "v": 82
    },
    {
      "midi": 60,
      "hit": false,
      "t": 188709.49500000066,
      "d": 534.2736770833144,
      "v": 84
    },
    {
      "midi": 55,
      "hit": false,
      "t": 188709.49500000066,
      "d": 907.2571874999849,
      "v": 82
    },
    {
      "midi": 62,
      "hit": false,
      "t": 189193.36550000065,
      "d": 423.3866874999949,
      "v": 94
    },
    {
      "midi": 62,
      "hit": false,
      "t": 189193.36550000065,
      "d": 423.3866874999949,
      "v": 94
    },
    {
      "midi": 55,
      "hit": false,
      "t": 189677.23600000064,
      "d": 120.96762499999022,
      "v": 78
    },
    {
      "midi": 52,
      "hit": false,
      "t": 189677.23600000064,
      "d": 136.08857812499627,
      "v": 79
    },
    {
      "midi": 60,
      "hit": false,
      "t": 189677.23600000064,
      "d": 206.6530260416621,
      "v": 88
    },
    {
      "midi": 36,
      "hit": false,
      "t": 189677.23600000064,
      "d": 3608.8674791666563,
      "v": 72
    },
    {
      "midi": 48,
      "hit": false,
      "t": 189677.23600000064,
      "d": 3669.3512916666514,
      "v": 72
    },
    {
      "midi": 43,
      "hit": false,
      "t": 189677.23600000064,
      "d": 3704.633515624999,
      "v": 69
    },
    {
      "midi": 55,
      "hit": false,
      "t": 189677.23600000064,
      "d": 120.96762499999022,
      "v": 78
    },
    {
      "midi": 52,
      "hit": false,
      "t": 189677.23600000064,
      "d": 136.08857812499627,
      "v": 79
    },
    {
      "midi": 60,
      "hit": false,
      "t": 189677.23600000064,
      "d": 206.6530260416621,
      "v": 88
    },
    {
      "midi": 36,
      "hit": false,
      "t": 189677.23600000064,
      "d": 3608.8674791666563,
      "v": 72
    },
    {
      "midi": 48,
      "hit": false,
      "t": 189677.23600000064,
      "d": 3669.3512916666514,
      "v": 72
    },
    {
      "midi": 43,
      "hit": false,
      "t": 189677.23600000064,
      "d": 3704.633515624999,
      "v": 69
    }
  ]
}