{
  "jsonPath": "Rock/Merseybeat/Billy Joe Royal/whats-the-matter-baby-lp-version.json",
  "path": "Rock\\Merseybeat\\Billy Joe Royal\\Whats The Matter Baby (LP Version).mid",
  "name": "Whats The Matter Baby (LP Version)",
  "difficulty": "Intermediate",
  "bpm": 106.00144868646538,
  "notes": [
    {
      "midi": 43,
      "hit": false,
      "t": 6792.36,
      "d": 589.614583333333,
      "v": 125
    },
    {
      "midi": 50,
      "hit": false,
      "t": 7358.389999999999,
      "d": 919.7987499999999,
      "v": 115
    },
    {
      "midi": 55,
      "hit": false,
      "t": 7358.389999999999,
      "d": 919.7987499999999,
      "v": 122
    },
    {
      "midi": 59,
      "hit": false,
      "t": 7358.389999999999,
      "d": 919.7987499999999,
      "v": 116
    },
    {
      "midi": 43,
      "hit": false,
      "t": 8207.435,
      "d": 283.0149999999994,
      "v": 117
    },
    {
      "midi": 50,
      "hit": false,
      "t": 8490.449999999999,
      "d": 518.8608333333341,
      "v": 127
    },
    {
      "midi": 55,
      "hit": false,
      "t": 8490.449999999999,
      "d": 778.2912500000002,
      "v": 127
    },
    {
      "midi": 59,
      "hit": false,
      "t": 8490.449999999999,
      "d": 919.7987499999999,
      "v": 127
    },
    {
      "midi": 43,
      "hit": false,
      "t": 9056.48,
      "d": 518.8608333333323,
      "v": 127
    },
    {
      "midi": 50,
      "hit": false,
      "t": 9315.910416666666,
      "d": 990.5524999999998,
      "v": 127
    },
    {
      "midi": 59,
      "hit": false,
      "t": 9598.925416666665,
      "d": 731.1220833333336,
      "v": 127
    },
    {
      "midi": 55,
      "hit": false,
      "t": 9598.925416666665,
      "d": 754.7066666666669,
      "v": 127
    },
    {
      "midi": 55,
      "hit": false,
      "t": 10424.385833333332,
      "d": 235.84583333333285,
      "v": 127
    },
    {
      "midi": 52,
      "hit": false,
      "t": 10447.970416666665,
      "d": 188.67666666666628,
      "v": 127
    },
    {
      "midi": 60,
      "hit": false,
      "t": 10447.970416666665,
      "d": 188.67666666666628,
      "v": 127
    },
    {
      "midi": 36,
      "hit": false,
      "t": 10447.970416666665,
      "d": 212.26124999999956,
      "v": 127
    },
    {
      "midi": 52,
      "hit": false,
      "t": 10707.400833333331,
      "d": 542.4454166666674,
      "v": 127
    },
    {
      "midi": 36,
      "hit": false,
      "t": 10730.985416666665,
      "d": 471.6916666666675,
      "v": 127
    },
    {
      "midi": 60,
      "hit": false,
      "t": 10730.985416666665,
      "d": 518.8608333333341,
      "v": 127
    },
    {
      "midi": 55,
      "hit": false,
      "t": 10730.985416666665,
      "d": 542.4454166666674,
      "v": 127
    },
    {
      "midi": 43,
      "hit": false,
      "t": 11297.015416666665,
      "d": 589.6145833333339,
      "v": 127
    },
    {
      "midi": 41,
      "hit": false,
      "t": 11320.599999999999,
      "d": 1.4740364583340124,
      "v": 116
    },
    {
      "midi": 50,
      "hit": false,
      "t": 11863.045416666666,
      "d": 872.6295833333334,
      "v": 108
    },
    {
      "midi": 59,
      "hit": false,
      "t": 11863.045416666666,
      "d": 1249.982916666666,
      "v": 115
    },
    {
      "midi": 55,
      "hit": false,
      "t": 11886.63,
      "d": 1061.3062499999996,
      "v": 123
    },
    {
      "midi": 43,
      "hit": false,
      "t": 12735.675,
      "d": 259.43041666666613,
      "v": 127
    },
    {
      "midi": 52,
      "hit": false,
      "t": 13018.689999999999,
      "d": 471.6916666666657,
      "v": 127
    },
    {
      "midi": 55,
      "hit": false,
      "t": 13278.120416666665,
      "d": 2499.9658333333336,
      "v": 127
    },
    {
      "midi": 43,
      "hit": false,
      "t": 13561.135416666664,
      "d": 1627.3362500000003,
      "v": 127
    },
    {
      "midi": 59,
      "hit": false,
      "t": 13561.135416666664,
      "d": 2216.9508333333342,
      "v": 127
    },
    {
      "midi": 50,
      "hit": false,
      "t": 13584.719999999998,
      "d": 2193.366250000001,
      "v": 127
    },
    {
      "midi": 40,
      "hit": false,
      "t": 15801.670833333332,
      "d": 542.4454166666656,
      "v": 127
    },
    {
      "midi": 52,
      "hit": false,
      "t": 15848.839999999998,
      "d": 2287.704583333334,
      "v": 127
    },
    {
      "midi": 55,
      "hit": false,
      "t": 16108.270416666664,
      "d": 1933.9358333333348,
      "v": 127
    },
    {
      "midi": 59,
      "hit": false,
      "t": 16391.285416666666,
      "d": 1627.3362500000003,
      "v": 127
    },
    {
      "midi": 62,
      "hit": false,
      "t": 16697.885,
      "d": 1320.7366666666676,
      "v": 127
    },
    {
      "midi": 50,
      "hit": false,
      "t": 18112.96,
      "d": 2264.119999999999,
      "v": 127
    },
    {
      "midi": 54,
      "hit": false,
      "t": 18395.975,
      "d": 1886.7666666666664,
      "v": 119
    },
    {
      "midi": 57,
      "hit": false,
      "t": 18678.989999999998,
      "d": 1603.751666666667,
      "v": 127
    },
    {
      "midi": 62,
      "hit": false,
      "t": 18938.420416666664,
      "d": 1320.7366666666676,
      "v": 127
    },
    {
      "midi": 48,
      "hit": false,
      "t": 20353.495416666665,
      "d": 2287.7045833333323,
      "v": 127
    },
    {
      "midi": 52,
      "hit": false,
      "t": 20636.510416666664,
      "d": 1957.5204166666663,
      "v": 119
    },
    {
      "midi": 55,
      "hit": false,
      "t": 20919.525416666664,
      "d": 1674.5054166666669,
      "v": 127
    },
    {
      "midi": 60,
      "hit": false,
      "t": 21202.540416666663,
      "d": 1367.9058333333342,
      "v": 127
    },
    {
      "midi": 43,
      "hit": false,
      "t": 22617.615416666664,
      "d": 2169.781666666666,
      "v": 127
    },
    {
      "midi": 50,
      "hit": false,
      "t": 22900.630416666663,
      "d": 1839.5974999999999,
      "v": 111
    },
    {
      "midi": 55,
      "hit": false,
      "t": 23183.645416666663,
      "d": 1603.751666666667,
      "v": 124
    },
    {
      "midi": 59,
      "hit": false,
      "t": 23466.660416666662,
      "d": 1297.1520833333343,
      "v": 127
    },
    {
      "midi": 52,
      "hit": false,
      "t": 24881.735416666663,
      "d": 23.584583333333285,
      "v": 127
    },
    {
      "midi": 55,
      "hit": false,
      "t": 24881.735416666663,
      "d": 23.584583333333285,
      "v": 120
    },
    {
      "midi": 60,
      "hit": false,
      "t": 24881.735416666663,
      "d": 23.584583333333285,
      "v": 123
    },
    {
      "midi": 48,
      "hit": false,
      "t": 24905.319999999996,
      "d": 613.1991666666654,
      "v": 127
    },
    {
      "midi": 52,
      "hit": false,
      "t": 24905.319999999996,
      "d": 1108.4754166666644,
      "v": 123
    },
    {
      "midi": 55,
      "hit": false,
      "t": 24905.319999999996,
      "d": 1391.4904166666638,
      "v": 127
    },
    {
      "midi": 60,
      "hit": false,
      "t": 24905.319999999996,
      "d": 1674.5054166666632,
      "v": 125
    },
    {
      "midi": 48,
      "hit": false,
      "t": 25707.195833333328,
      "d": 896.2141666666648,
      "v": 127
    },
    {
      "midi": 52,
      "hit": false,
      "t": 26013.79541666666,
      "d": 1014.1370833333312,
      "v": 127
    },
    {
      "midi": 55,
      "hit": false,
      "t": 26296.81041666666,
      "d": 731.1220833333318,
      "v": 127
    },
    {
      "midi": 60,
      "hit": false,
      "t": 26579.82541666666,
      "d": 448.1070833333324,
      "v": 127
    },
    {
      "midi": 54,
      "hit": false,
      "t": 27122.270833333325,
      "d": 1132.0600000000013,
      "v": 120
    },
    {
      "midi": 50,
      "hit": false,
      "t": 27145.855416666658,
      "d": 872.6295833333352,
      "v": 127
    },
    {
      "midi": 57,
      "hit": false,
      "t": 27145.855416666658,
      "d": 1344.3212500000009,
      "v": 127
    },
    {
      "midi": 62,
      "hit": false,
      "t": 27145.855416666658,
      "d": 2099.027916666666,
      "v": 127
    },
    {
      "midi": 50,
      "hit": false,
      "t": 28301.499999999993,
      "d": 235.84583333333285,
      "v": 127
    },
    {
      "midi": 54,
      "hit": false,
      "t": 28560.93041666666,
      "d": 707.5374999999985,
      "v": 127
    },
    {
      "midi": 57,
      "hit": false,
      "t": 28867.52999999999,
      "d": 400.93791666666584,
      "v": 127
    },
    {
      "midi": 43,
      "hit": false,
      "t": 29386.390833333324,
      "d": 1344.3212500000009,
      "v": 115
    },
    {
      "midi": 55,
      "hit": false,
      "t": 29409.975416666657,
      "d": 2782.980833333335,
      "v": 116
    },
    {
      "midi": 59,
      "hit": false,
      "t": 29409.975416666657,
      "d": 3183.9187500000007,
      "v": 111
    },
    {
      "midi": 50,
      "hit": false,
      "t": 29433.55999999999,
      "d": 2570.7195833333353,
      "v": 124
    },
    {
      "midi": 43,
      "hit": false,
      "t": 31980.694999999992,
      "d": 1839.5975000000035,
      "v": 97
    },
    {
      "midi": 50,
      "hit": false,
      "t": 32240.12541666666,
      "d": 1580.1670833333374,
      "v": 124
    },
    {
      "midi": 55,
      "hit": false,
      "t": 32546.72499999999,
      "d": 754.7066666666651,
      "v": 127
    },
    {
      "midi": 55,
      "hit": false,
      "t": 33372.18541666666,
      "d": 70.75375000000349,
      "v": 111
    },
    {
      "midi": 54,
      "hit": false,
      "t": 33372.18541666666,
      "d": 471.691666666673,
      "v": 114
    },
    {
      "midi": 52,
      "hit": false,
      "t": 33961.8,
      "d": 2264.12000000001,
      "v": 127
    },
    {
      "midi": 55,
      "hit": false,
      "t": 34221.23041666667,
      "d": 1957.5204166666736,
      "v": 121
    },
    {
      "midi": 59,
      "hit": false,
      "t": 34480.66083333334,
      "d": 1698.0900000000038,
      "v": 127
    },
    {
      "midi": 62,
      "hit": false,
      "t": 34787.26041666668,
      "d": 1391.4904166666674,
      "v": 127
    },
    {
      "midi": 50,
      "hit": false,
      "t": 36178.750833333346,
      "d": 2311.2891666666765,
      "v": 127
    },
    {
      "midi": 54,
      "hit": false,
      "t": 36461.765833333346,
      "d": 1933.9358333333366,
      "v": 118
    },
    {
      "midi": 57,
      "hit": false,
      "t": 36768.36541666668,
      "d": 1627.3362500000003,
      "v": 127
    },
    {
      "midi": 62,
      "hit": false,
      "t": 37051.38041666668,
      "d": 1344.3212500000009,
      "v": 127
    },
    {
      "midi": 48,
      "hit": false,
      "t": 38466.455416666686,
      "d": 2287.7045833333395,
      "v": 127
    },
    {
      "midi": 52,
      "hit": false,
      "t": 38773.05500000002,
      "d": 1933.9358333333366,
      "v": 123
    },
    {
      "midi": 55,
      "hit": false,
      "t": 39032.48541666669,
      "d": 1674.5054166666669,
      "v": 127
    },
    {
      "midi": 60,
      "hit": false,
      "t": 39315.50041666669,
      "d": 1367.9058333333305,
      "v": 127
    },
    {
      "midi": 43,
      "hit": false,
      "t": 40754.160000000025,
      "d": 2216.950833333336,
      "v": 127
    },
    {
      "midi": 50,
      "hit": false,
      "t": 41037.175000000025,
      "d": 1863.1820833333331,
      "v": 107
    },
    {
      "midi": 55,
      "hit": false,
      "t": 41320.190000000024,
      "d": 1674.5054166666741,
      "v": 124
    },
    {
      "midi": 59,
      "hit": false,
      "t": 41579.620416666694,
      "d": 1462.244166666671,
      "v": 127
    },
    {
      "midi": 48,
      "hit": false,
      "t": 42971.11083333336,
      "d": 2334.873750000006,
      "v": 127
    },
    {
      "midi": 52,
      "hit": false,
      "t": 43254.12583333337,
      "d": 2287.7045833333323,
      "v": 125
    },
    {
      "midi": 55,
      "hit": false,
      "t": 43537.14083333337,
      "d": 2240.5354166666657,
      "v": 127
    },
    {
      "midi": 60,
      "hit": false,
      "t": 43843.740416666704,
      "d": 1981.104999999996,
      "v": 127
    },
    {
      "midi": 48,
      "hit": false,
      "t": 45541.8304166667,
      "d": 1981.1050000000105,
      "v": 127
    },
    {
      "midi": 52,
      "hit": false,
      "t": 45824.8454166667,
      "d": 1650.9208333333372,
      "v": 127
    },
    {
      "midi": 55,
      "hit": false,
      "t": 46131.445000000036,
      "d": 1367.9058333333378,
      "v": 127
    },
    {
      "midi": 60,
      "hit": false,
      "t": 46390.875416666706,
      "d": 1155.6445833333419,
      "v": 127
    },
    {
      "midi": 50,
      "hit": false,
      "t": 47546.52000000005,
      "d": 2193.3662500000064,
      "v": 127
    },
    {
      "midi": 54,
      "hit": false,
      "t": 47805.95041666672,
      "d": 1910.3512499999997,
      "v": 120
    },
    {
      "midi": 57,
      "hit": false,
      "t": 48088.96541666672,
      "d": 1627.3362500000003,
      "v": 127
    },
    {
      "midi": 62,
      "hit": false,
      "t": 48371.980416666716,
      "d": 1344.3212500000009,
      "v": 127
    },
    {
      "midi": 54,
      "hit": false,
      "t": 49787.05541666672,
      "d": 2122.612500000003,
      "v": 115
    },
    {
      "midi": 57,
      "hit": false,
      "t": 49787.05541666672,
      "d": 2146.19708333334,
      "v": 127
    },
    {
      "midi": 62,
      "hit": false,
      "t": 49787.05541666672,
      "d": 2169.7816666666768,
      "v": 127
    },
    {
      "midi": 50,
      "hit": false,
      "t": 49810.64000000006,
      "d": 2122.612500000003,
      "v": 127
    },
    {
      "midi": 43,
      "hit": false,
      "t": 52074.76000000007,
      "d": 566.0300000000061,
      "v": 127
    },
    {
      "midi": 50,
      "hit": false,
      "t": 52617.20541666674,
      "d": 919.798750000009,
      "v": 124
    },
    {
      "midi": 55,
      "hit": false,
      "t": 52617.20541666674,
      "d": 919.798750000009,
      "v": 127
    },
    {
      "midi": 59,
      "hit": false,
      "t": 52617.20541666674,
      "d": 919.798750000009,
      "v": 120
    },
    {
      "midi": 43,
      "hit": false,
      "t": 53466.25041666674,
      "d": 589.614583333343,
      "v": 127
    },
    {
      "midi": 50,
      "hit": false,
      "t": 53749.26541666675,
      "d": 1367.9058333333378,
      "v": 127
    },
    {
      "midi": 55,
      "hit": false,
      "t": 54032.28041666675,
      "d": 1367.905833333345,
      "v": 127
    },
    {
      "midi": 59,
      "hit": false,
      "t": 54032.28041666675,
      "d": 1367.905833333345,
      "v": 127
    },
    {
      "midi": 43,
      "hit": false,
      "t": 55140.755833333424,
      "d": 589.6145833333358,
      "v": 127
    },
    {
      "midi": 50,
      "hit": false,
      "t": 55447.35541666676,
      "d": 1084.890833333331,
      "v": 127
    },
    {
      "midi": 55,
      "hit": false,
      "t": 55730.37041666676,
      "d": 825.4604166666686,
      "v": 127
    },
    {
      "midi": 59,
      "hit": false,
      "t": 56013.38541666676,
      "d": 518.8608333333323,
      "v": 127
    },
    {
      "midi": 40,
      "hit": false,
      "t": 56579.415416666765,
      "d": 542.4454166666692,
      "v": 127
    },
    {
      "midi": 59,
      "hit": false,
      "t": 57121.860833333434,
      "d": 1108.4754166666753,
      "v": 122
    },
    {
      "midi": 52,
      "hit": false,
      "t": 57145.44541666677,
      "d": 801.8758333333317,
      "v": 121
    },
    {
      "midi": 55,
      "hit": false,
      "t": 57145.44541666677,
      "d": 1084.8908333333384,
      "v": 127
    },
    {
      "midi": 40,
      "hit": false,
      "t": 58018.075000000106,
      "d": 542.4454166666692,
      "v": 127
    },
    {
      "midi": 52,
      "hit": false,
      "t": 58277.505416666776,
      "d": 1674.5054166666669,
      "v": 127
    },
    {
      "midi": 55,
      "hit": false,
      "t": 58560.520416666775,
      "d": 1650.9208333333372,
      "v": 127
    },
    {
      "midi": 59,
      "hit": false,
      "t": 58560.520416666775,
      "d": 1650.9208333333372,
      "v": 127
    },
    {
      "midi": 40,
      "hit": false,
      "t": 59975.59541666678,
      "d": 542.4454166666692,
      "v": 127
    },
    {
      "midi": 52,
      "hit": false,
      "t": 60258.61041666678,
      "d": 825.4604166666759,
      "v": 127
    },
    {
      "midi": 55,
      "hit": false,
      "t": 60541.625416666786,
      "d": 542.4454166666692,
      "v": 127
    },
    {
      "midi": 59,
      "hit": false,
      "t": 60541.625416666786,
      "d": 542.4454166666692,
      "v": 127
    },
    {
      "midi": 36,
      "hit": false,
      "t": 61107.65541666679,
      "d": 518.8608333333323,
      "v": 127
    },
    {
      "midi": 48,
      "hit": false,
      "t": 61650.10083333346,
      "d": 825.4604166666686,
      "v": 127
    },
    {
      "midi": 52,
      "hit": false,
      "t": 61650.10083333346,
      "d": 1132.060000000005,
      "v": 126
    },
    {
      "midi": 55,
      "hit": false,
      "t": 61650.10083333346,
      "d": 1132.060000000005,
      "v": 126
    },
    {
      "midi": 36,
      "hit": false,
      "t": 62546.31500000013,
      "d": 542.4454166666692,
      "v": 127
    },
    {
      "midi": 48,
      "hit": false,
      "t": 62805.7454166668,
      "d": 1391.4904166666674,
      "v": 127
    },
    {
      "midi": 52,
      "hit": false,
      "t": 63088.7604166668,
      "d": 1367.905833333345,
      "v": 127
    },
    {
      "midi": 55,
      "hit": false,
      "t": 63088.7604166668,
      "d": 1391.490416666682,
      "v": 127
    },
    {
      "midi": 36,
      "hit": false,
      "t": 64220.82041666681,
      "d": 212.2612500000032,
      "v": 127
    },
    {
      "midi": 48,
      "hit": false,
      "t": 64503.83541666682,
      "d": 1108.4754166666753,
      "v": 127
    },
    {
      "midi": 52,
      "hit": false,
      "t": 64810.43500000016,
      "d": 778.2912500000093,
      "v": 127
    },
    {
      "midi": 55,
      "hit": false,
      "t": 65069.86541666683,
      "d": 542.4454166666692,
      "v": 127
    },
    {
      "midi": 43,
      "hit": false,
      "t": 65659.48000000017,
      "d": 518.8608333333395,
      "v": 127
    },
    {
      "midi": 50,
      "hit": false,
      "t": 66201.92541666684,
      "d": 1698.0899999999965,
      "v": 124
    },
    {
      "midi": 59,
      "hit": false,
      "t": 66201.92541666684,
      "d": 1933.9358333333366,
      "v": 126
    },
    {
      "midi": 55,
      "hit": false,
      "t": 66225.51000000017,
      "d": 1933.9358333333366,
      "v": 127
    },
    {
      "midi": 43,
      "hit": false,
      "t": 67947.18458333351,
      "d": 542.4454166666692,
      "v": 127
    },
    {
      "midi": 50,
      "hit": false,
      "t": 68206.61500000018,
      "d": 990.5525000000052,
      "v": 127
    },
    {
      "midi": 59,
      "hit": false,
      "t": 68466.04541666685,
      "d": 731.1220833333355,
      "v": 127
    },
    {
      "midi": 55,
      "hit": false,
      "t": 68489.63000000018,
      "d": 731.1220833333355,
      "v": 127
    },
    {
      "midi": 55,
      "hit": false,
      "t": 69315.09041666685,
      "d": 235.84583333332557,
      "v": 127
    },
    {
      "midi": 52,
      "hit": false,
      "t": 69338.67500000018,
      "d": 188.67666666666628,
      "v": 127
    },
    {
      "midi": 60,
      "hit": false,
      "t": 69338.67500000018,
      "d": 188.67666666666628,
      "v": 127
    },
    {
      "midi": 36,
      "hit": false,
      "t": 69338.67500000018,
      "d": 212.26124999999593,
      "v": 127
    },
    {
      "midi": 52,
      "hit": false,
      "t": 69621.69000000018,
      "d": 542.4454166666692,
      "v": 127
    },
    {
      "midi": 55,
      "hit": false,
      "t": 69621.69000000018,
      "d": 542.4454166666692,
      "v": 127
    },
    {
      "midi": 60,
      "hit": false,
      "t": 69621.69000000018,
      "d": 542.4454166666692,
      "v": 127
    },
    {
      "midi": 36,
      "hit": false,
      "t": 69645.2745833335,
      "d": 471.6916666666657,
      "v": 127
    },
    {
      "midi": 43,
      "hit": false,
      "t": 70211.30458333352,
      "d": 566.0299999999988,
      "v": 127
    },
    {
      "midi": 50,
      "hit": false,
      "t": 70777.33458333352,
      "d": 872.6295833333425,
      "v": 126
    },
    {
      "midi": 55,
      "hit": false,
      "t": 70777.33458333352,
      "d": 872.6295833333425,
      "v": 127
    },
    {
      "midi": 59,
      "hit": false,
      "t": 70777.33458333352,
      "d": 872.6295833333425,
      "v": 127
    },
    {
      "midi": 43,
      "hit": false,
      "t": 71602.79500000019,
      "d": 283.01500000001397,
      "v": 127
    },
    {
      "midi": 50,
      "hit": false,
      "t": 71885.8100000002,
      "d": 1674.5054166666669,
      "v": 127
    },
    {
      "midi": 55,
      "hit": false,
      "t": 71885.8100000002,
      "d": 1910.3512499999924,
      "v": 127
    },
    {
      "midi": 59,
      "hit": false,
      "t": 71885.8100000002,
      "d": 1981.1049999999814,
      "v": 127
    },
    {
      "midi": 43,
      "hit": false,
      "t": 73583.9000000002,
      "d": 235.84583333332557,
      "v": 127
    },
    {
      "midi": 50,
      "hit": false,
      "t": 73843.33041666685,
      "d": 801.875833333339,
      "v": 127
    },
    {
      "midi": 55,
      "hit": false,
      "t": 74126.34541666685,
      "d": 542.4454166666692,
      "v": 127
    },
    {
      "midi": 40,
      "hit": false,
      "t": 74692.37541666685,
      "d": 542.4454166666692,
      "v": 127
    },
    {
      "midi": 52,
      "hit": false,
      "t": 75258.40541666685,
      "d": 896.2141666666575,
      "v": 127
    },
    {
      "midi": 55,
      "hit": false,
      "t": 75258.40541666685,
      "d": 919.7987499999872,
      "v": 127
    },
    {
      "midi": 59,
      "hit": false,
      "t": 75258.40541666685,
      "d": 919.7987499999872,
      "v": 127
    },
    {
      "midi": 40,
      "hit": false,
      "t": 76131.03500000018,
      "d": 235.84583333332557,
      "v": 125
    },
    {
      "midi": 52,
      "hit": false,
      "t": 76366.8808333335,
      "d": 613.1991666666581,
      "v": 124
    },
    {
      "midi": 55,
      "hit": false,
      "t": 76390.46541666683,
      "d": 589.6145833333285,
      "v": 127
    },
    {
      "midi": 59,
      "hit": false,
      "t": 76390.46541666683,
      "d": 589.6145833333285,
      "v": 126
    },
    {
      "midi": 40,
      "hit": false,
      "t": 77003.66458333349,
      "d": 495.27624999999534,
      "v": 127
    },
    {
      "midi": 55,
      "hit": false,
      "t": 77522.52541666682,
      "d": 1108.475416666668,
      "v": 127
    },
    {
      "midi": 59,
      "hit": false,
      "t": 77522.52541666682,
      "d": 1674.5054166666814,
      "v": 127
    },
    {
      "midi": 52,
      "hit": false,
      "t": 77546.11000000015,
      "d": 754.7066666666651,
      "v": 127
    },
    {
      "midi": 40,
      "hit": false,
      "t": 78395.15500000014,
      "d": 235.84583333334012,
      "v": 127
    },
    {
      "midi": 52,
      "hit": false,
      "t": 78678.17000000016,
      "d": 518.8608333333395,
      "v": 127
    },
    {
      "midi": 55,
      "hit": false,
      "t": 78937.60041666683,
      "d": 259.43041666666977,
      "v": 127
    },
    {
      "midi": 36,
      "hit": false,
      "t": 79220.61541666683,
      "d": 518.8608333333395,
      "v": 127
    },
    {
      "midi": 48,
      "hit": false,
      "t": 79763.0608333335,
      "d": 1721.6745833333407,
      "v": 127
    },
    {
      "midi": 52,
      "hit": false,
      "t": 79763.0608333335,
      "d": 1816.0129166666884,
      "v": 127
    },
    {
      "midi": 55,
      "hit": false,
      "t": 79763.0608333335,
      "d": 1816.0129166666884,
      "v": 127
    },
    {
      "midi": 36,
      "hit": false,
      "t": 81531.90458333351,
      "d": 518.8608333333395,
      "v": 127
    },
    {
      "midi": 48,
      "hit": false,
      "t": 81791.33500000018,
      "d": 1061.3062500000087,
      "v": 127
    },
    {
      "midi": 52,
      "hit": false,
      "t": 82050.76541666685,
      "d": 1084.8908333333384,
      "v": 127
    },
    {
      "midi": 55,
      "hit": false,
      "t": 82050.76541666685,
      "d": 1650.9208333333518,
      "v": 127
    },
    {
      "midi": 36,
      "hit": false,
      "t": 82923.3950000002,
      "d": 188.67666666666628,
      "v": 127
    },
    {
      "midi": 48,
      "hit": false,
      "t": 83182.82541666686,
      "d": 518.8608333333395,
      "v": 127
    },
    {
      "midi": 52,
      "hit": false,
      "t": 83465.84041666686,
      "d": 235.84583333334012,
      "v": 127
    },
    {
      "midi": 43,
      "hit": false,
      "t": 83748.85541666688,
      "d": 542.4454166666692,
      "v": 127
    },
    {
      "midi": 50,
      "hit": false,
      "t": 84314.88541666688,
      "d": 1438.6595833333267,
      "v": 122
    },
    {
      "midi": 55,
      "hit": false,
      "t": 84314.88541666688,
      "d": 1438.6595833333267,
      "v": 127
    },
    {
      "midi": 59,
      "hit": false,
      "t": 84314.88541666688,
      "d": 1438.6595833333267,
      "v": 123
    },
    {
      "midi": 43,
      "hit": false,
      "t": 85753.5450000002,
      "d": 259.43041666666977,
      "v": 127
    },
    {
      "midi": 50,
      "hit": false,
      "t": 86036.5600000002,
      "d": 2028.2741666666698,
      "v": 122
    },
    {
      "midi": 55,
      "hit": false,
      "t": 86036.5600000002,
      "d": 2051.8587499999994,
      "v": 127
    },
    {
      "midi": 43,
      "hit": false,
      "t": 86036.5600000002,
      "d": 2075.443333333329,
      "v": 127
    },
    {
      "midi": 59,
      "hit": false,
      "t": 86036.5600000002,
      "d": 2075.443333333329,
      "v": 122
    },
    {
      "midi": 52,
      "hit": false,
      "t": 88300.6800000002,
      "d": 2287.7045833333395,
      "v": 127
    },
    {
      "midi": 55,
      "hit": false,
      "t": 88583.6950000002,
      "d": 1910.3512499999924,
      "v": 127
    },
    {
      "midi": 59,
      "hit": false,
      "t": 88866.7100000002,
      "d": 1627.336249999993,
      "v": 127
    },
    {
      "midi": 62,
      "hit": false,
      "t": 89149.7250000002,
      "d": 1344.3212499999936,
      "v": 127
    },
    {
      "midi": 50,
      "hit": false,
      "t": 90541.21541666686,
      "d": 2287.7045833333395,
      "v": 127
    },
    {
      "midi": 54,
      "hit": false,
      "t": 90847.8150000002,
      "d": 1863.1820833333331,
      "v": 127
    },
    {
      "midi": 57,
      "hit": false,
      "t": 91130.8300000002,
      "d": 1603.7516666666634,
      "v": 127
    },
    {
      "midi": 62,
      "hit": false,
      "t": 91413.8450000002,
      "d": 1297.1520833333343,
      "v": 127
    },
    {
      "midi": 48,
      "hit": false,
      "t": 92805.33541666687,
      "d": 23.584583333329647,
      "v": 127
    },
    {
      "midi": 48,
      "hit": false,
      "t": 92828.9200000002,
      "d": 1816.0129166666738,
      "v": 127
    },
    {
      "midi": 52,
      "hit": false,
      "t": 93088.35041666687,
      "d": 1532.9979166666744,
      "v": 123
    },
    {
      "midi": 55,
      "hit": false,
      "t": 93347.78083333354,
      "d": 1344.3212499999936,
      "v": 127
    },
    {
      "midi": 60,
      "hit": false,
      "t": 93630.79583333354,
      "d": 1037.7216666666645,
      "v": 127
    },
    {
      "midi": 52,
      "hit": false,
      "t": 94880.7787500002,
      "d": 2287.7045833333395,
      "v": 127
    },
    {
      "midi": 48,
      "hit": false,
      "t": 94880.7787500002,
      "d": 2334.8737500000134,
      "v": 127
    },
    {
      "midi": 55,
      "hit": false,
      "t": 94998.70166666686,
      "d": 2216.9508333333506,
      "v": 127
    },
    {
      "midi": 60,
      "hit": false,
      "t": 95045.87083333354,
      "d": 2193.3662500000064,
      "v": 127
    },
    {
      "midi": 43,
      "hit": false,
      "t": 97357.1600000002,
      "d": 542.4454166666692,
      "v": 112
    },
    {
      "midi": 50,
      "hit": false,
      "t": 97923.1900000002,
      "d": 872.6295833333425,
      "v": 111
    },
    {
      "midi": 55,
      "hit": false,
      "t": 97923.1900000002,
      "d": 872.6295833333425,
      "v": 116
    },
    {
      "midi": 59,
      "hit": false,
      "t": 97923.1900000002,
      "d": 872.6295833333425,
      "v": 109
    },
    {
      "midi": 43,
      "hit": false,
      "t": 98748.65041666687,
      "d": 283.01500000001397,
      "v": 110
    },
    {
      "midi": 50,
      "hit": false,
      "t": 99031.66541666689,
      "d": 778.2912499999948,
      "v": 123
    },
    {
      "midi": 55,
      "hit": false,
      "t": 99031.66541666689,
      "d": 1084.8908333333384,
      "v": 127
    },
    {
      "midi": 59,
      "hit": false,
      "t": 99031.66541666689,
      "d": 1108.475416666668,
      "v": 120
    },
    {
      "midi": 43,
      "hit": false,
      "t": 99880.71041666689,
      "d": 283.0149999999994,
      "v": 127
    },
    {
      "midi": 50,
      "hit": false,
      "t": 100163.72541666689,
      "d": 1462.244166666671,
      "v": 127
    },
    {
      "midi": 55,
      "hit": false,
      "t": 100446.74041666689,
      "d": 1226.3983333333454,
      "v": 127
    },
    {
      "midi": 52,
      "hit": false,
      "t": 101885.40000000023,
      "d": 2264.1199999999953,
      "v": 127
    },
    {
      "midi": 55,
      "hit": false,
      "t": 102168.41500000023,
      "d": 1910.3512499999924,
      "v": 122
    },
    {
      "midi": 59,
      "hit": false,
      "t": 102451.43000000023,
      "d": 1627.336249999993,
      "v": 127
    },
    {
      "midi": 62,
      "hit": false,
      "t": 102734.44500000023,
      "d": 1344.3212499999936,
      "v": 127
    },
    {
      "midi": 50,
      "hit": false,
      "t": 104102.35083333355,
      "d": 2311.289166666669,
      "v": 127
    },
    {
      "midi": 54,
      "hit": false,
      "t": 104408.95041666689,
      "d": 1863.1820833333331,
      "v": 110
    },
    {
      "midi": 57,
      "hit": false,
      "t": 104691.96541666689,
      "d": 1580.1670833333337,
      "v": 127
    },
    {
      "midi": 62,
      "hit": false,
      "t": 104998.56500000022,
      "d": 1273.5675000000047,
      "v": 127
    },
    {
      "midi": 48,
      "hit": false,
      "t": 106390.05541666689,
      "d": 2311.289166666669,
      "v": 127
    },
    {
      "midi": 52,
      "hit": false,
      "t": 106696.65500000022,
      "d": 1910.351250000007,
      "v": 120
    },
    {
      "midi": 55,
      "hit": false,
      "t": 106956.08541666689,
      "d": 1650.9208333333372,
      "v": 127
    },
    {
      "midi": 60,
      "hit": false,
      "t": 107286.26958333356,
      "d": 1297.1520833333343,
      "v": 127
    },
    {
      "midi": 43,
      "hit": false,
      "t": 108677.76000000023,
      "d": 2264.1199999999953,
      "v": 127
    },
    {
      "midi": 50,
      "hit": false,
      "t": 108960.77500000023,
      "d": 1910.3512499999924,
      "v": 107
    },
    {
      "midi": 55,
      "hit": false,
      "t": 109243.79000000023,
      "d": 1721.6745833333262,
      "v": 121
    },
    {
      "midi": 59,
      "hit": false,
      "t": 109526.80500000023,
      "d": 1556.5824999999895,
      "v": 127
    },
    {
      "midi": 48,
      "hit": false,
      "t": 110941.88000000022,
      "d": 2240.535416666651,
      "v": 127
    },
    {
      "midi": 52,
      "hit": false,
      "t": 111201.31041666688,
      "d": 1910.3512499999924,
      "v": 123
    },
    {
      "midi": 55,
      "hit": false,
      "t": 111484.32541666688,
      "d": 1650.9208333333227,
      "v": 127
    },
    {
      "midi": 60,
      "hit": false,
      "t": 111767.34041666688,
      "d": 1367.9058333333232,
      "v": 127
    },
    {
      "midi": 50,
      "hit": false,
      "t": 113206.0000000002,
      "d": 1580.1670833333337,
      "v": 127
    },
    {
      "midi": 54,
      "hit": false,
      "t": 113465.43041666687,
      "d": 1933.935833333322,
      "v": 118
    },
    {
      "midi": 57,
      "hit": false,
      "t": 113748.44541666687,
      "d": 1650.9208333333227,
      "v": 127
    },
    {
      "midi": 62,
      "hit": false,
      "t": 114031.46041666687,
      "d": 1344.3212499999936,
      "v": 127
    },
    {
      "midi": 43,
      "hit": false,
      "t": 115493.70458333353,
      "d": 3490.5183333333407,
      "v": 127
    },
    {
      "midi": 50,
      "hit": false,
      "t": 115729.55041666687,
      "d": 3561.2720833333296,
      "v": 113
    },
    {
      "midi": 55,
      "hit": false,
      "t": 116012.56541666687,
      "d": 3278.2570833333302,
      "v": 127
    },
    {
      "midi": 59,
      "hit": false,
      "t": 116295.58041666687,
      "d": 2995.242083333331,
      "v": 127
    },
    {
      "midi": 52,
      "hit": false,
      "t": 120021.94458333353,
      "d": 2216.9508333333506,
      "v": 127
    },
    {
      "midi": 55,
      "hit": false,
      "t": 120281.3750000002,
      "d": 1910.351250000007,
      "v": 126
    },
    {
      "midi": 59,
      "hit": false,
      "t": 120564.3900000002,
      "d": 1627.3362500000076,
      "v": 127
    },
    {
      "midi": 62,
      "hit": false,
      "t": 120823.82041666687,
      "d": 1367.9058333333378,
      "v": 127
    },
    {
      "midi": 50,
      "hit": false,
      "t": 122286.06458333356,
      "d": 2216.950833333336,
      "v": 127
    },
    {
      "midi": 54,
      "hit": false,
      "t": 122545.49500000023,
      "d": 1863.1820833333331,
      "v": 116
    },
    {
      "midi": 57,
      "hit": false,
      "t": 122828.51000000023,
      "d": 1580.1670833333337,
      "v": 127
    },
    {
      "midi": 62,
      "hit": false,
      "t": 123111.52500000023,
      "d": 1297.1520833333343,
      "v": 127
    },
    {
      "midi": 48,
      "hit": false,
      "t": 124526.60000000022,
      "d": 2264.1199999999953,
      "v": 127
    },
    {
      "midi": 52,
      "hit": false,
      "t": 124809.61500000022,
      "d": 1910.3512499999924,
      "v": 117
    },
    {
      "midi": 55,
      "hit": false,
      "t": 125069.0454166669,
      "d": 1627.336249999993,
      "v": 127
    },
    {
      "midi": 60,
      "hit": false,
      "t": 125352.06041666689,
      "d": 1344.3212499999936,
      "v": 127
    },
    {
      "midi": 43,
      "hit": false,
      "t": 126790.72000000022,
      "d": 2240.5354166666657,
      "v": 127
    },
    {
      "midi": 50,
      "hit": false,
      "t": 127073.73500000022,
      "d": 1863.1820833333331,
      "v": 111
    },
    {
      "midi": 55,
      "hit": false,
      "t": 127356.75000000022,
      "d": 1603.7516666666634,
      "v": 127
    },
    {
      "midi": 59,
      "hit": false,
      "t": 127616.18041666689,
      "d": 1344.3212499999936,
      "v": 127
    },
    {
      "midi": 48,
      "hit": false,
      "t": 129054.84000000021,
      "d": 2264.12000000001,
      "v": 127
    },
    {
      "midi": 52,
      "hit": false,
      "t": 129314.27041666688,
      "d": 2240.5354166666657,
      "v": 118
    },
    {
      "midi": 55,
      "hit": false,
      "t": 129597.28541666688,
      "d": 2240.5354166666802,
      "v": 127
    },
    {
      "midi": 60,
      "hit": false,
      "t": 129880.30041666688,
      "d": 1981.105000000025,
      "v": 127
    },
    {
      "midi": 48,
      "hit": false,
      "t": 131625.55958333355,
      "d": 1933.9358333334094,
      "v": 127
    },
    {
      "midi": 52,
      "hit": false,
      "t": 131884.99000000025,
      "d": 1580.1670833333628,
      "v": 127
    },
    {
      "midi": 55,
      "hit": false,
      "t": 132168.00500000027,
      "d": 1320.736666666693,
      "v": 127
    },
    {
      "midi": 60,
      "hit": false,
      "t": 132451.02000000028,
      "d": 1084.8908333333384,
      "v": 127
    },
    {
      "midi": 50,
      "hit": false,
      "t": 133583.0800000003,
      "d": 1933.9358333333512,
      "v": 127
    },
    {
      "midi": 54,
      "hit": false,
      "t": 133842.51041666698,
      "d": 1886.766666666692,
      "v": 124
    },
    {
      "midi": 57,
      "hit": false,
      "t": 134125.525416667,
      "d": 1745.259166666685,
      "v": 127
    },
    {
      "midi": 62,
      "hit": false,
      "t": 134408.540416667,
      "d": 1580.1670833333337,
      "v": 127
    },
    {
      "midi": 50,
      "hit": false,
      "t": 135776.44625000033,
      "d": 896.2141666667012,
      "v": 127
    },
    {
      "midi": 54,
      "hit": false,
      "t": 136083.0458333337,
      "d": 1084.8908333333384,
      "v": 127
    },
    {
      "midi": 57,
      "hit": false,
      "t": 136389.64541666702,
      "d": 1108.4754166666826,
      "v": 127
    },
    {
      "midi": 62,
      "hit": false,
      "t": 136649.07583333369,
      "d": 849.0450000000128,
      "v": 127
    },
    {
      "midi": 50,
      "hit": false,
      "t": 137262.27500000037,
      "d": 235.84583333332557,
      "v": 127
    },
    {
      "midi": 54,
      "hit": false,
      "t": 137521.70541666704,
      "d": 542.4454166666837,
      "v": 127
    },
    {
      "midi": 57,
      "hit": false,
      "t": 137804.72041666706,
      "d": 259.43041666666977,
      "v": 127
    },
    {
      "midi": 43,
      "hit": false,
      "t": 138087.73541666707,
      "d": 2169.7816666666477,
      "v": 127
    },
    {
      "midi": 50,
      "hit": false,
      "t": 138347.16583333374,
      "d": 2311.2891666666546,
      "v": 112
    },
    {
      "midi": 55,
      "hit": false,
      "t": 138653.76541666707,
      "d": 2240.535416666651,
      "v": 127
    },
    {
      "midi": 59,
      "hit": false,
      "t": 138960.3650000004,
      "d": 2004.6895833333256,
      "v": 127
    },
    {
      "midi": 43,
      "hit": false,
      "t": 140634.87041666705,
      "d": 1155.644583333371,
      "v": 127
    },
    {
      "midi": 50,
      "hit": false,
      "t": 140941.47000000038,
      "d": 1627.3362500000512,
      "v": 127
    },
    {
      "midi": 55,
      "hit": false,
      "t": 141224.4850000004,
      "d": 1367.9058333333815,
      "v": 127
    },
    {
      "midi": 59,
      "hit": false,
      "t": 141507.5000000004,
      "d": 1061.3062500000233,
      "v": 127
    },
    {
      "midi": 40,
      "hit": false,
      "t": 142639.56000000043,
      "d": 2193.366250000021,
      "v": 127
    },
    {
      "midi": 52,
      "hit": false,
      "t": 142898.9904166671,
      "d": 2287.7045833333395,
      "v": 122
    },
    {
      "midi": 55,
      "hit": false,
      "t": 143182.00541666712,
      "d": 2240.535416666651,
      "v": 127
    },
    {
      "midi": 59,
      "hit": false,
      "t": 143465.02041666713,
      "d": 2004.6895833333256,
      "v": 127
    },
    {
      "midi": 40,
      "hit": false,
      "t": 145186.69500000044,
      "d": 2051.858750000014,
      "v": 127
    },
    {
      "midi": 52,
      "hit": false,
      "t": 145446.1254166671,
      "d": 1580.1670833333628,
      "v": 127
    },
    {
      "midi": 55,
      "hit": false,
      "t": 145729.14041666713,
      "d": 1273.5675000000047,
      "v": 127
    },
    {
      "midi": 59,
      "hit": false,
      "t": 146035.74000000046,
      "d": 943.3833333333314,
      "v": 127
    },
    {
      "midi": 36,
      "hit": false,
      "t": 147191.3845833338,
      "d": 2264.1200000000244,
      "v": 124
    },
    {
      "midi": 48,
      "hit": false,
      "t": 147450.81500000047,
      "d": 2240.5354166666802,
      "v": 120
    },
    {
      "midi": 52,
      "hit": false,
      "t": 147733.83000000048,
      "d": 2216.950833333336,
      "v": 127
    },
    {
      "midi": 55,
      "hit": false,
      "t": 148016.8450000005,
      "d": 1981.1050000000105,
      "v": 127
    },
    {
      "midi": 36,
      "hit": false,
      "t": 149691.35041666715,
      "d": 1037.7216666667082,
      "v": 127
    },
    {
      "midi": 48,
      "hit": false,
      "t": 149974.36541666716,
      "d": 849.0450000000419,
      "v": 127
    },
    {
      "midi": 52,
      "hit": false,
      "t": 150257.38041666718,
      "d": 825.4604166666977,
      "v": 127
    },
    {
      "midi": 55,
      "hit": false,
      "t": 150257.38041666718,
      "d": 1415.0750000000407,
      "v": 127
    },
    {
      "midi": 36,
      "hit": false,
      "t": 150846.99500000055,
      "d": 330.18416666667326,
      "v": 127
    },
    {
      "midi": 48,
      "hit": false,
      "t": 151106.42541666722,
      "d": 542.4454166666546,
      "v": 127
    },
    {
      "midi": 52,
      "hit": false,
      "t": 151413.02500000055,
      "d": 235.84583333332557,
      "v": 127
    },
    {
      "midi": 43,
      "hit": false,
      "t": 151672.45541666722,
      "d": 2004.6895833333547,
      "v": 127
    },
    {
      "midi": 52,
      "hit": false,
      "t": 151955.47041666723,
      "d": 47.169166666659294,
      "v": 105
    },
    {
      "midi": 50,
      "hit": false,
      "t": 151955.47041666723,
      "d": 1981.1050000000105,
      "v": 110
    },
    {
      "midi": 55,
      "hit": false,
      "t": 152214.9008333339,
      "d": 2004.6895833333547,
      "v": 119
    },
    {
      "midi": 59,
      "hit": false,
      "t": 152521.50041666723,
      "d": 1721.6745833333698,
      "v": 127
    },
    {
      "midi": 43,
      "hit": false,
      "t": 153936.57541666724,
      "d": 1344.3212500000664,
      "v": 127
    },
    {
      "midi": 50,
      "hit": false,
      "t": 154219.59041666726,
      "d": 966.9679166667047,
      "v": 127
    },
    {
      "midi": 59,
      "hit": false,
      "t": 154526.1900000006,
      "d": 683.9529166666907,
      "v": 127
    },
    {
      "midi": 55,
      "hit": false,
      "t": 154526.1900000006,
      "d": 731.12208333335,
      "v": 127
    },
    {
      "midi": 52,
      "hit": false,
      "t": 155351.6504166673,
      "d": 188.67666666666628,
      "v": 127
    },
    {
      "midi": 55,
      "hit": false,
      "t": 155351.6504166673,
      "d": 188.67666666666628,
      "v": 127
    },
    {
      "midi": 60,
      "hit": false,
      "t": 155351.6504166673,
      "d": 188.67666666666628,
      "v": 127
    },
    {
      "midi": 36,
      "hit": false,
      "t": 155351.6504166673,
      "d": 212.26125000001048,
      "v": 127
    },
    {
      "midi": 36,
      "hit": false,
      "t": 155634.66541666733,
      "d": 566.0299999999988,
      "v": 126
    },
    {
      "midi": 52,
      "hit": false,
      "t": 155634.66541666733,
      "d": 566.0299999999988,
      "v": 123
    },
    {
      "midi": 60,
      "hit": false,
      "t": 155658.25000000067,
      "d": 542.4454166666546,
      "v": 127
    },
    {
      "midi": 55,
      "hit": false,
      "t": 155658.25000000067,
      "d": 566.0299999999988,
      "v": 127
    },
    {
      "midi": 43,
      "hit": false,
      "t": 156224.28000000067,
      "d": 2240.5354166667094,
      "v": 127
    },
    {
      "midi": 50,
      "hit": false,
      "t": 156483.71041666734,
      "d": 2287.7045833333977,
      "v": 105
    },
    {
      "midi": 55,
      "hit": false,
      "t": 156766.72541666735,
      "d": 2240.5354166667094,
      "v": 127
    },
    {
      "midi": 59,
      "hit": false,
      "t": 157049.74041666737,
      "d": 2028.2741666666989,
      "v": 127
    },
    {
      "midi": 43,
      "hit": false,
      "t": 158747.8304166674,
      "d": 1014.1370833333349,
      "v": 127
    },
    {
      "midi": 50,
      "hit": false,
      "t": 159030.8454166674,
      "d": 1650.920833333308,
      "v": 127
    },
    {
      "midi": 55,
      "hit": false,
      "t": 159337.44500000073,
      "d": 1485.828749999986,
      "v": 127
    },
    {
      "midi": 59,
      "hit": false,
      "t": 159644.04458333406,
      "d": 1249.9829166666605,
      "v": 127
    },
    {
      "midi": 40,
      "hit": false,
      "t": 160776.10458333406,
      "d": 2193.366250000021,
      "v": 127
    },
    {
      "midi": 52,
      "hit": false,
      "t": 161035.53500000073,
      "d": 2240.5354166666802,
      "v": 127
    },
    {
      "midi": 55,
      "hit": false,
      "t": 161318.55000000075,
      "d": 2216.950833333336,
      "v": 127
    },
    {
      "midi": 59,
      "hit": false,
      "t": 161577.98041666741,
      "d": 2028.2741666666698,
      "v": 127
    },
    {
      "midi": 40,
      "hit": false,
      "t": 163299.65500000076,
      "d": 2004.6895833333547,
      "v": 127
    },
    {
      "midi": 52,
      "hit": false,
      "t": 163559.08541666743,
      "d": 1580.1670833333337,
      "v": 127
    },
    {
      "midi": 55,
      "hit": false,
      "t": 163842.1004166674,
      "d": 1273.5675000000047,
      "v": 127
    },
    {
      "midi": 59,
      "hit": false,
      "t": 164148.70000000074,
      "d": 943.3833333333314,
      "v": 127
    },
    {
      "midi": 35,
      "hit": false,
      "t": 165280.76000000077,
      "d": 165.09208333335118,
      "v": 124
    },
    {
      "midi": 36,
      "hit": false,
      "t": 165280.76000000077,
      "d": 1863.182083333406,
      "v": 118
    },
    {
      "midi": 48,
      "hit": false,
      "t": 165540.19041666746,
      "d": 2240.5354166667094,
      "v": 123
    },
    {
      "midi": 52,
      "hit": false,
      "t": 165823.20541666748,
      "d": 2311.289166666713,
      "v": 127
    },
    {
      "midi": 55,
      "hit": false,
      "t": 166106.2204166675,
      "d": 2146.1970833333617,
      "v": 127
    },
    {
      "midi": 36,
      "hit": false,
      "t": 167804.31041666752,
      "d": 1415.0750000000116,
      "v": 127
    },
    {
      "midi": 48,
      "hit": false,
      "t": 168370.34041666752,
      "d": 1391.4904166666674,
      "v": 127
    },
    {
      "midi": 52,
      "hit": false,
      "t": 168936.37041666752,
      "d": 825.4604166666686,
      "v": 127
    },
    {
      "midi": 55,
      "hit": false,
      "t": 169195.8008333342,
      "d": 566.0299999999988,
      "v": 127
    },
    {
      "midi": 43,
      "hit": false,
      "t": 169785.41541666753,
      "d": 1816.0129166666884,
      "v": 127
    },
    {
      "midi": 50,
      "hit": false,
      "t": 170068.43041666754,
      "d": 2004.6895833333547,
      "v": 104
    },
    {
      "midi": 55,
      "hit": false,
      "t": 170351.44541666756,
      "d": 1957.5204166666663,
      "v": 127
    },
    {
      "midi": 59,
      "hit": false,
      "t": 170658.0450000009,
      "d": 1674.5054166666814,
      "v": 127
    },
    {
      "midi": 43,
      "hit": false,
      "t": 172049.53541666755,
      "d": 1391.4904166666674,
      "v": 127
    },
    {
      "midi": 50,
      "hit": false,
      "t": 172332.55041666757,
      "d": 1037.72166666665,
      "v": 127
    },
    {
      "midi": 59,
      "hit": false,
      "t": 172639.1500000009,
      "d": 731.1220833333209,
      "v": 127
    },
    {
      "midi": 55,
      "hit": false,
      "t": 172639.1500000009,
      "d": 754.7066666666651,
      "v": 127
    },
    {
      "midi": 55,
      "hit": false,
      "t": 173464.61041666757,
      "d": 212.26125000001048,
      "v": 127
    },
    {
      "midi": 52,
      "hit": false,
      "t": 173488.1950000009,
      "d": 188.67666666666628,
      "v": 127
    },
    {
      "midi": 60,
      "hit": false,
      "t": 173488.1950000009,
      "d": 188.67666666666628,
      "v": 127
    },
    {
      "midi": 36,
      "hit": false,
      "t": 173488.1950000009,
      "d": 212.26125000001048,
      "v": 127
    },
    {
      "midi": 36,
      "hit": false,
      "t": 173747.62541666758,
      "d": 566.0299999999988,
      "v": 110
    },
    {
      "midi": 52,
      "hit": false,
      "t": 173747.62541666758,
      "d": 566.0299999999988,
      "v": 127
    },
    {
      "midi": 60,
      "hit": false,
      "t": 173771.21000000092,
      "d": 542.4454166666546,
      "v": 127
    },
    {
      "midi": 55,
      "hit": false,
      "t": 173771.21000000092,
      "d": 566.0299999999988,
      "v": 127
    },
    {
      "midi": 43,
      "hit": false,
      "t": 174313.65541666758,
      "d": 2264.1200000000536,
      "v": 127
    },
    {
      "midi": 50,
      "hit": false,
      "t": 174620.25500000094,
      "d": 2264.1200000000244,
      "v": 121
    },
    {
      "midi": 55,
      "hit": false,
      "t": 174903.27000000095,
      "d": 2240.5354166666802,
      "v": 127
    },
    {
      "midi": 59,
      "hit": false,
      "t": 175162.70041666762,
      "d": 1981.1050000000105,
      "v": 127
    },
    {
      "midi": 43,
      "hit": false,
      "t": 176884.37500000096,
      "d": 943.3833333333896,
      "v": 127
    },
    {
      "midi": 50,
      "hit": false,
      "t": 177167.39000000097,
      "d": 1627.3362500000512,
      "v": 127
    },
    {
      "midi": 55,
      "hit": false,
      "t": 177450.405000001,
      "d": 1438.659583333385,
      "v": 127
    },
    {
      "midi": 59,
      "hit": false,
      "t": 177733.420000001,
      "d": 1155.644583333371,
      "v": 127
    },
    {
      "midi": 40,
      "hit": false,
      "t": 178865.48000000103,
      "d": 2287.7045833333686,
      "v": 127
    },
    {
      "midi": 52,
      "hit": false,
      "t": 179124.9104166677,
      "d": 2264.1200000000536,
      "v": 127
    },
    {
      "midi": 55,
      "hit": false,
      "t": 179407.9254166677,
      "d": 2240.5354166667094,
      "v": 127
    },
    {
      "midi": 59,
      "hit": false,
      "t": 179690.94041666773,
      "d": 1981.1050000000396,
      "v": 127
    },
    {
      "midi": 40,
      "hit": false,
      "t": 181365.4458333344,
      "d": 919.7987500000454,
      "v": 127
    },
    {
      "midi": 52,
      "hit": false,
      "t": 181672.04541666777,
      "d": 849.0450000000128,
      "v": 127
    },
    {
      "midi": 55,
      "hit": false,
      "t": 181955.06041666778,
      "d": 849.0449999999837,
      "v": 127
    },
    {
      "midi": 59,
      "hit": false,
      "t": 181955.06041666778,
      "d": 1391.4904166666674,
      "v": 127
    },
    {
      "midi": 40,
      "hit": false,
      "t": 182568.25958333444,
      "d": 259.43041666666977,
      "v": 127
    },
    {
      "midi": 52,
      "hit": false,
      "t": 182804.10541666776,
      "d": 566.0300000000279,
      "v": 127
    },
    {
      "midi": 55,
      "hit": false,
      "t": 183087.12041666778,
      "d": 259.43041666666977,
      "v": 127
    },
    {
      "midi": 36,
      "hit": false,
      "t": 183393.72000000114,
      "d": 2240.5354166667094,
      "v": 127
    },
    {
      "midi": 48,
      "hit": false,
      "t": 183653.1504166678,
      "d": 2264.1200000000536,
      "v": 122
    },
    {
      "midi": 52,
      "hit": false,
      "t": 183936.16541666782,
      "d": 2216.950833333365,
      "v": 127
    },
    {
      "midi": 55,
      "hit": false,
      "t": 184219.18041666783,
      "d": 2028.2741666666698,
      "v": 127
    },
    {
      "midi": 36,
      "hit": false,
      "t": 185917.27041666786,
      "d": 613.199166666629,
      "v": 127
    },
    {
      "midi": 48,
      "hit": false,
      "t": 186200.28541666784,
      "d": 1532.9979166666453,
      "v": 127
    },
    {
      "midi": 52,
      "hit": false,
      "t": 186483.30041666783,
      "d": 1249.9829166666605,
      "v": 127
    },
    {
      "midi": 55,
      "hit": false,
      "t": 186483.30041666783,
      "d": 1273.5675000000047,
      "v": 127
    },
    {
      "midi": 43,
      "hit": false,
      "t": 187921.96000000116,
      "d": 2075.443333333358,
      "v": 127
    },
    {
      "midi": 50,
      "hit": false,
      "t": 188204.97500000117,
      "d": 1957.5204166666663,
      "v": 127
    },
    {
      "midi": 55,
      "hit": false,
      "t": 188464.40541666784,
      "d": 1957.5204166666663,
      "v": 127
    },
    {
      "midi": 59,
      "hit": false,
      "t": 188771.00500000117,
      "d": 1674.5054166666814,
      "v": 127
    },
    {
      "midi": 43,
      "hit": false,
      "t": 190162.49541666784,
      "d": 896.2141666667012,
      "v": 127
    },
    {
      "midi": 50,
      "hit": false,
      "t": 190445.51041666785,
      "d": 966.9679166666756,
      "v": 127
    },
    {
      "midi": 55,
      "hit": false,
      "t": 190728.52541666786,
      "d": 731.1220833333209,
      "v": 127
    },
    {
      "midi": 59,
      "hit": false,
      "t": 191011.54041666788,
      "d": 400.93791666664765,
      "v": 127
    },
    {
      "midi": 60,
      "hit": false,
      "t": 191553.98583333453,
      "d": 188.67666666666628,
      "v": 127
    },
    {
      "midi": 55,
      "hit": false,
      "t": 191553.98583333453,
      "d": 212.26125000001048,
      "v": 127
    },
    {
      "midi": 52,
      "hit": false,
      "t": 191577.57041666788,
      "d": 165.09208333332208,
      "v": 127
    },
    {
      "midi": 48,
      "hit": false,
      "t": 191577.57041666788,
      "d": 212.26125000001048,
      "v": 127
    },
    {
      "midi": 52,
      "hit": false,
      "t": 191837.00083333455,
      "d": 518.8608333333686,
      "v": 126
    },
    {
      "midi": 48,
      "hit": false,
      "t": 191860.5854166679,
      "d": 471.69166666668025,
      "v": 127
    },
    {
      "midi": 60,
      "hit": false,
      "t": 191860.5854166679,
      "d": 471.69166666668025,
      "v": 127
    },
    {
      "midi": 55,
      "hit": false,
      "t": 191860.5854166679,
      "d": 495.27625000002445,
      "v": 127
    },
    {
      "midi": 43,
      "hit": false,
      "t": 192426.61541666792,
      "d": 4433.901666666701,
      "v": 127
    },
    {
      "midi": 50,
      "hit": false,
      "t": 192450.20000000126,
      "d": 4363.147916666669,
      "v": 127
    },
    {
      "midi": 55,
      "hit": false,
      "t": 192450.20000000126,
      "d": 4386.732500000013,
      "v": 126
    },
    {
      "midi": 59,
      "hit": false,
      "t": 192450.20000000126,
      "d": 4386.732500000013,
      "v": 127
    },
    {
      "midi": 50,
      "hit": false,
      "t": 196954.85541666797,
      "d": 542.4454166666837,
      "v": 112
    },
    {
      "midi": 55,
      "hit": false,
      "t": 196954.85541666797,
      "d": 542.4454166666837,
      "v": 123
    },
    {
      "midi": 59,
      "hit": false,
      "t": 196954.85541666797,
      "d": 566.0300000000279,
      "v": 118
    },
    {
      "midi": 43,
      "hit": false,
      "t": 196978.4400000013,
      "d": 542.4454166666837,
      "v": 127
    }
  ]
}