{
  "jsonPath": "Reggae/Reggae/Bob Marley  The Wailers/could-you-be-loved.json",
  "path": "Reggae\\Reggae\\Bob Marley  The Wailers\\Could You Be Loved.mid",
  "name": "Could You Be Loved",
  "difficulty": "Advanced",
  "bpm": 105.000105000105,
  "notes": [
    {
      "midi": 35,
      "hit": false,
      "t": 13714.272000000003,
      "d": 285.71399999999994,
      "v": 127
    },
    {
      "midi": 47,
      "hit": false,
      "t": 13999.986000000003,
      "d": 32.738062500000524,
      "v": 127
    },
    {
      "midi": 54,
      "hit": false,
      "t": 13999.986000000003,
      "d": 56.54756249999991,
      "v": 127
    },
    {
      "midi": 47,
      "hit": false,
      "t": 14142.843000000003,
      "d": 59.52375000000029,
      "v": 127
    },
    {
      "midi": 54,
      "hit": false,
      "t": 14142.843000000003,
      "d": 83.33324999999968,
      "v": 127
    },
    {
      "midi": 35,
      "hit": false,
      "t": 14285.700000000003,
      "d": 196.4283749999995,
      "v": 127
    },
    {
      "midi": 47,
      "hit": false,
      "t": 14428.557000000003,
      "d": 95.23799999999937,
      "v": 127
    },
    {
      "midi": 50,
      "hit": false,
      "t": 14571.414000000002,
      "d": 124.99987499999952,
      "v": 127
    },
    {
      "midi": 47,
      "hit": false,
      "t": 14714.271000000002,
      "d": 71.42849999999999,
      "v": 127
    },
    {
      "midi": 35,
      "hit": false,
      "t": 14857.128000000002,
      "d": 261.90450000000055,
      "v": 127
    },
    {
      "midi": 54,
      "hit": false,
      "t": 15142.842000000002,
      "d": 53.571374999999534,
      "v": 127
    },
    {
      "midi": 47,
      "hit": false,
      "t": 15142.842000000002,
      "d": 65.47612499999923,
      "v": 127
    },
    {
      "midi": 54,
      "hit": false,
      "t": 15285.699000000002,
      "d": 68.4523124999996,
      "v": 127
    },
    {
      "midi": 47,
      "hit": false,
      "t": 15285.699000000002,
      "d": 77.38087499999892,
      "v": 127
    },
    {
      "midi": 35,
      "hit": false,
      "t": 15428.556,
      "d": 175.5950625000005,
      "v": 127
    },
    {
      "midi": 47,
      "hit": false,
      "t": 15571.413,
      "d": 95.2380000000012,
      "v": 127
    },
    {
      "midi": 50,
      "hit": false,
      "t": 15714.270000000002,
      "d": 74.40468750000036,
      "v": 127
    },
    {
      "midi": 47,
      "hit": false,
      "t": 15857.127000000002,
      "d": 53.571374999999534,
      "v": 127
    },
    {
      "midi": 35,
      "hit": false,
      "t": 15999.984000000002,
      "d": 267.8568749999995,
      "v": 127
    },
    {
      "midi": 54,
      "hit": false,
      "t": 16285.698000000002,
      "d": 38.69043749999946,
      "v": 127
    },
    {
      "midi": 47,
      "hit": false,
      "t": 16285.698000000002,
      "d": 65.47612499999923,
      "v": 127
    },
    {
      "midi": 47,
      "hit": false,
      "t": 16428.555,
      "d": 56.54756249999991,
      "v": 127
    },
    {
      "midi": 54,
      "hit": false,
      "t": 16428.555,
      "d": 74.40468749999854,
      "v": 127
    },
    {
      "midi": 35,
      "hit": false,
      "t": 16571.412,
      "d": 163.69031249999898,
      "v": 127
    },
    {
      "midi": 47,
      "hit": false,
      "t": 16714.269,
      "d": 74.40468749999854,
      "v": 127
    },
    {
      "midi": 50,
      "hit": false,
      "t": 16857.126,
      "d": 68.45231250000143,
      "v": 127
    },
    {
      "midi": 47,
      "hit": false,
      "t": 16999.983,
      "d": 77.38087499999892,
      "v": 127
    },
    {
      "midi": 35,
      "hit": false,
      "t": 17142.84,
      "d": 261.90450000000055,
      "v": 127
    },
    {
      "midi": 54,
      "hit": false,
      "t": 17428.554,
      "d": 53.571374999999534,
      "v": 127
    },
    {
      "midi": 47,
      "hit": false,
      "t": 17428.554,
      "d": 71.42849999999817,
      "v": 127
    },
    {
      "midi": 47,
      "hit": false,
      "t": 17571.411,
      "d": 71.4285000000018,
      "v": 127
    },
    {
      "midi": 54,
      "hit": false,
      "t": 17571.411,
      "d": 86.30943750000006,
      "v": 127
    },
    {
      "midi": 35,
      "hit": false,
      "t": 17714.268,
      "d": 157.73793749999822,
      "v": 127
    },
    {
      "midi": 47,
      "hit": false,
      "t": 17857.125,
      "d": 92.26181249999718,
      "v": 127
    },
    {
      "midi": 50,
      "hit": false,
      "t": 17999.981999999996,
      "d": 86.30943750000006,
      "v": 127
    },
    {
      "midi": 47,
      "hit": false,
      "t": 18142.838999999996,
      "d": 62.49993750000067,
      "v": 127
    },
    {
      "midi": 38,
      "hit": false,
      "t": 18285.695999999996,
      "d": 291.6663750000007,
      "v": 127
    },
    {
      "midi": 71,
      "hit": false,
      "t": 18285.696,
      "d": 288.6901875000003,
      "v": 120
    },
    {
      "midi": 66,
      "hit": false,
      "t": 18285.696,
      "d": 297.61875000000146,
      "v": 124
    },
    {
      "midi": 54,
      "hit": false,
      "t": 18571.409999999996,
      "d": 71.4285000000018,
      "v": 127
    },
    {
      "midi": 50,
      "hit": false,
      "t": 18571.409999999996,
      "d": 107.1427500000027,
      "v": 127
    },
    {
      "midi": 66,
      "hit": false,
      "t": 18714.267,
      "d": 95.2380000000012,
      "v": 121
    },
    {
      "midi": 69,
      "hit": false,
      "t": 18714.267,
      "d": 95.2380000000012,
      "v": 112
    },
    {
      "midi": 45,
      "hit": false,
      "t": 18714.267,
      "d": 77.38087499999892,
      "v": 127
    },
    {
      "midi": 42,
      "hit": false,
      "t": 18857.124,
      "d": 142.85699999999997,
      "v": 127
    },
    {
      "midi": 64,
      "hit": false,
      "t": 18999.981,
      "d": 56.54756249999991,
      "v": 103
    },
    {
      "midi": 67,
      "hit": false,
      "t": 18999.981,
      "d": 68.45231250000143,
      "v": 105
    },
    {
      "midi": 45,
      "hit": false,
      "t": 18999.981,
      "d": 92.26181250000081,
      "v": 127
    },
    {
      "midi": 62,
      "hit": false,
      "t": 19142.838,
      "d": 110.11893749999945,
      "v": 94
    },
    {
      "midi": 66,
      "hit": false,
      "t": 19142.838,
      "d": 116.0713125000002,
      "v": 118
    },
    {
      "midi": 50,
      "hit": false,
      "t": 19142.838,
      "d": 95.2380000000012,
      "v": 127
    },
    {
      "midi": 54,
      "hit": false,
      "t": 19142.838,
      "d": 101.19037500000195,
      "v": 127
    },
    {
      "midi": 45,
      "hit": false,
      "t": 19285.695000000003,
      "d": 74.40468749999854,
      "v": 127
    },
    {
      "midi": 38,
      "hit": false,
      "t": 19428.552000000003,
      "d": 306.54731249999895,
      "v": 127
    },
    {
      "midi": 50,
      "hit": false,
      "t": 19714.266000000003,
      "d": 74.40468749999854,
      "v": 127
    },
    {
      "midi": 54,
      "hit": false,
      "t": 19714.266000000003,
      "d": 80.3570624999993,
      "v": 127
    },
    {
      "midi": 45,
      "hit": false,
      "t": 19857.123000000003,
      "d": 89.28562500000044,
      "v": 127
    },
    {
      "midi": 42,
      "hit": false,
      "t": 19999.980000000003,
      "d": 157.73793749999822,
      "v": 127
    },
    {
      "midi": 45,
      "hit": false,
      "t": 20142.837000000003,
      "d": 89.2856249999968,
      "v": 127
    },
    {
      "midi": 50,
      "hit": false,
      "t": 20285.694,
      "d": 101.19037499999831,
      "v": 127
    },
    {
      "midi": 54,
      "hit": false,
      "t": 20285.694,
      "d": 101.19037499999831,
      "v": 127
    },
    {
      "midi": 45,
      "hit": false,
      "t": 20428.551,
      "d": 89.28562500000044,
      "v": 127
    },
    {
      "midi": 35,
      "hit": false,
      "t": 20571.408,
      "d": 276.7854374999988,
      "v": 127
    },
    {
      "midi": 66,
      "hit": false,
      "t": 20857.122,
      "d": 38.69043750000128,
      "v": 107
    },
    {
      "midi": 62,
      "hit": false,
      "t": 20857.122,
      "d": 50.595187500002794,
      "v": 92
    },
    {
      "midi": 71,
      "hit": false,
      "t": 20857.122,
      "d": 50.595187500002794,
      "v": 109
    },
    {
      "midi": 54,
      "hit": false,
      "t": 20857.122,
      "d": 86.30943750000006,
      "v": 127
    },
    {
      "midi": 50,
      "hit": false,
      "t": 20857.122,
      "d": 95.2380000000012,
      "v": 127
    },
    {
      "midi": 47,
      "hit": false,
      "t": 20999.979,
      "d": 77.38087499999892,
      "v": 127
    },
    {
      "midi": 42,
      "hit": false,
      "t": 21142.836,
      "d": 148.80937500000073,
      "v": 127
    },
    {
      "midi": 47,
      "hit": false,
      "t": 21285.693,
      "d": 83.33324999999968,
      "v": 127
    },
    {
      "midi": 50,
      "hit": false,
      "t": 21428.55,
      "d": 98.21418750000157,
      "v": 127
    },
    {
      "midi": 54,
      "hit": false,
      "t": 21428.55,
      "d": 101.19037500000195,
      "v": 127
    },
    {
      "midi": 71,
      "hit": false,
      "t": 21428.550000000003,
      "d": 35.7142500000009,
      "v": 89
    },
    {
      "midi": 66,
      "hit": false,
      "t": 21428.550000000003,
      "d": 47.619000000002416,
      "v": 97
    },
    {
      "midi": 62,
      "hit": false,
      "t": 21428.550000000003,
      "d": 53.57137500000317,
      "v": 86
    },
    {
      "midi": 47,
      "hit": false,
      "t": 21571.407000000003,
      "d": 80.3570624999993,
      "v": 127
    },
    {
      "midi": 35,
      "hit": false,
      "t": 21714.264000000003,
      "d": 270.8330625000017,
      "v": 127
    },
    {
      "midi": 54,
      "hit": false,
      "t": 21999.978000000003,
      "d": 80.3570624999993,
      "v": 127
    },
    {
      "midi": 50,
      "hit": false,
      "t": 21999.978000000003,
      "d": 86.30943750000006,
      "v": 127
    },
    {
      "midi": 66,
      "hit": false,
      "t": 21999.978000000006,
      "d": 29.761875000000146,
      "v": 58
    },
    {
      "midi": 47,
      "hit": false,
      "t": 22142.835000000003,
      "d": 74.40468749999854,
      "v": 127
    },
    {
      "midi": 42,
      "hit": false,
      "t": 22285.692000000003,
      "d": 119.04750000000058,
      "v": 127
    },
    {
      "midi": 47,
      "hit": false,
      "t": 22428.549000000003,
      "d": 83.33324999999968,
      "v": 127
    },
    {
      "midi": 50,
      "hit": false,
      "t": 22571.406000000003,
      "d": 95.2380000000012,
      "v": 127
    },
    {
      "midi": 54,
      "hit": false,
      "t": 22571.406000000003,
      "d": 104.16656250000233,
      "v": 127
    },
    {
      "midi": 62,
      "hit": false,
      "t": 22571.406000000006,
      "d": 29.761875000000146,
      "v": 80
    },
    {
      "midi": 66,
      "hit": false,
      "t": 22571.406000000006,
      "d": 32.738062500000524,
      "v": 87
    },
    {
      "midi": 47,
      "hit": false,
      "t": 22714.263000000006,
      "d": 68.45231250000143,
      "v": 127
    },
    {
      "midi": 55,
      "hit": false,
      "t": 22857.120000000006,
      "d": 351.190125000001,
      "v": 125
    },
    {
      "midi": 31,
      "hit": false,
      "t": 22857.120000000006,
      "d": 303.5711249999986,
      "v": 127
    },
    {
      "midi": 55,
      "hit": false,
      "t": 23142.834000000006,
      "d": 83.33324999999968,
      "v": 127
    },
    {
      "midi": 50,
      "hit": false,
      "t": 23142.834000000006,
      "d": 107.14274999999907,
      "v": 127
    },
    {
      "midi": 59,
      "hit": false,
      "t": 23285.691000000006,
      "d": 139.8808124999996,
      "v": 127
    },
    {
      "midi": 47,
      "hit": false,
      "t": 23285.691000000006,
      "d": 74.40468749999854,
      "v": 127
    },
    {
      "midi": 38,
      "hit": false,
      "t": 23428.548000000006,
      "d": 136.9046249999992,
      "v": 127
    },
    {
      "midi": 62,
      "hit": false,
      "t": 23571.405000000006,
      "d": 50.595187499999156,
      "v": 115
    },
    {
      "midi": 47,
      "hit": false,
      "t": 23571.405000000006,
      "d": 77.38087499999892,
      "v": 127
    },
    {
      "midi": 62,
      "hit": false,
      "t": 23714.262000000006,
      "d": 53.571374999999534,
      "v": 127
    },
    {
      "midi": 55,
      "hit": false,
      "t": 23714.262000000006,
      "d": 98.21418750000157,
      "v": 127
    },
    {
      "midi": 50,
      "hit": false,
      "t": 23714.262000000006,
      "d": 101.19037500000195,
      "v": 127
    },
    {
      "midi": 47,
      "hit": false,
      "t": 23857.11900000001,
      "d": 74.40468749999854,
      "v": 127
    },
    {
      "midi": 31,
      "hit": false,
      "t": 23999.97600000001,
      "d": 300.5949374999982,
      "v": 127
    },
    {
      "midi": 62,
      "hit": false,
      "t": 24285.690000000006,
      "d": 44.6428124999984,
      "v": 112
    },
    {
      "midi": 59,
      "hit": false,
      "t": 24285.690000000006,
      "d": 47.61899999999878,
      "v": 115
    },
    {
      "midi": 67,
      "hit": false,
      "t": 24285.690000000006,
      "d": 50.595187499999156,
      "v": 103
    },
    {
      "midi": 55,
      "hit": false,
      "t": 24285.69000000001,
      "d": 89.2856249999968,
      "v": 127
    },
    {
      "midi": 50,
      "hit": false,
      "t": 24285.69000000001,
      "d": 107.14274999999543,
      "v": 127
    },
    {
      "midi": 47,
      "hit": false,
      "t": 24428.547000000006,
      "d": 74.40468749999854,
      "v": 127
    },
    {
      "midi": 38,
      "hit": false,
      "t": 24571.404000000006,
      "d": 160.7141249999986,
      "v": 127
    },
    {
      "midi": 47,
      "hit": false,
      "t": 24714.261000000006,
      "d": 86.30943750000006,
      "v": 127
    },
    {
      "midi": 62,
      "hit": false,
      "t": 24857.118000000006,
      "d": 53.571374999999534,
      "v": 109
    },
    {
      "midi": 59,
      "hit": false,
      "t": 24857.118000000006,
      "d": 62.49993750000067,
      "v": 107
    },
    {
      "midi": 67,
      "hit": false,
      "t": 24857.118000000006,
      "d": 68.45231250000143,
      "v": 99
    },
    {
      "midi": 50,
      "hit": false,
      "t": 24857.118000000006,
      "d": 98.21418750000157,
      "v": 127
    },
    {
      "midi": 55,
      "hit": false,
      "t": 24857.118000000006,
      "d": 101.19037500000195,
      "v": 127
    },
    {
      "midi": 47,
      "hit": false,
      "t": 24999.97500000001,
      "d": 83.33324999999968,
      "v": 127
    },
    {
      "midi": 38,
      "hit": false,
      "t": 25142.83200000001,
      "d": 291.6663750000007,
      "v": 127
    },
    {
      "midi": 62,
      "hit": false,
      "t": 25428.546000000006,
      "d": 41.66662500000166,
      "v": 88
    },
    {
      "midi": 57,
      "hit": false,
      "t": 25428.546000000006,
      "d": 47.619000000002416,
      "v": 88
    },
    {
      "midi": 66,
      "hit": false,
      "t": 25428.546000000006,
      "d": 56.54756250000355,
      "v": 89
    },
    {
      "midi": 54,
      "hit": false,
      "t": 25428.54600000001,
      "d": 71.4285000000018,
      "v": 127
    },
    {
      "midi": 50,
      "hit": false,
      "t": 25428.54600000001,
      "d": 77.38087500000256,
      "v": 127
    },
    {
      "midi": 45,
      "hit": false,
      "t": 25571.403000000013,
      "d": 80.3570624999993,
      "v": 127
    },
    {
      "midi": 33,
      "hit": false,
      "t": 25714.260000000013,
      "d": 163.69031249999898,
      "v": 127
    },
    {
      "midi": 45,
      "hit": false,
      "t": 25857.117000000013,
      "d": 89.28562500000044,
      "v": 127
    },
    {
      "midi": 57,
      "hit": false,
      "t": 25999.97400000001,
      "d": 44.6428124999984,
      "v": 99
    },
    {
      "midi": 62,
      "hit": false,
      "t": 25999.97400000001,
      "d": 44.6428124999984,
      "v": 101
    },
    {
      "midi": 66,
      "hit": false,
      "t": 25999.97400000001,
      "d": 56.54756249999991,
      "v": 104
    },
    {
      "midi": 54,
      "hit": false,
      "t": 25999.974000000013,
      "d": 83.33324999999968,
      "v": 127
    },
    {
      "midi": 50,
      "hit": false,
      "t": 25999.974000000013,
      "d": 98.21418749999793,
      "v": 127
    },
    {
      "midi": 45,
      "hit": false,
      "t": 26142.83100000001,
      "d": 74.40468749999854,
      "v": 127
    },
    {
      "midi": 38,
      "hit": false,
      "t": 26285.68800000001,
      "d": 247.02356249999866,
      "v": 127
    },
    {
      "midi": 54,
      "hit": false,
      "t": 26571.40200000001,
      "d": 77.38087499999892,
      "v": 127
    },
    {
      "midi": 50,
      "hit": false,
      "t": 26571.40200000001,
      "d": 89.28562500000044,
      "v": 127
    },
    {
      "midi": 45,
      "hit": false,
      "t": 26714.25900000001,
      "d": 86.30943750000006,
      "v": 127
    },
    {
      "midi": 42,
      "hit": false,
      "t": 26857.11600000001,
      "d": 124.99987500000134,
      "v": 127
    },
    {
      "midi": 45,
      "hit": false,
      "t": 26999.97300000001,
      "d": 92.26181250000081,
      "v": 127
    },
    {
      "midi": 54,
      "hit": false,
      "t": 27142.83000000001,
      "d": 89.28562500000044,
      "v": 127
    },
    {
      "midi": 50,
      "hit": false,
      "t": 27142.83000000001,
      "d": 95.2380000000012,
      "v": 127
    },
    {
      "midi": 45,
      "hit": false,
      "t": 27285.68700000001,
      "d": 47.61899999999878,
      "v": 127
    },
    {
      "midi": 71,
      "hit": false,
      "t": 27428.54400000001,
      "d": 288.6901875000003,
      "v": 120
    },
    {
      "midi": 66,
      "hit": false,
      "t": 27428.54400000001,
      "d": 297.61875000000146,
      "v": 124
    },
    {
      "midi": 38,
      "hit": false,
      "t": 27428.54400000001,
      "d": 291.6663750000007,
      "v": 127
    },
    {
      "midi": 54,
      "hit": false,
      "t": 27714.25800000001,
      "d": 71.4285000000018,
      "v": 127
    },
    {
      "midi": 50,
      "hit": false,
      "t": 27714.25800000001,
      "d": 107.1427500000027,
      "v": 127
    },
    {
      "midi": 66,
      "hit": false,
      "t": 27857.11500000001,
      "d": 95.2380000000012,
      "v": 121
    },
    {
      "midi": 69,
      "hit": false,
      "t": 27857.11500000001,
      "d": 95.2380000000012,
      "v": 112
    },
    {
      "midi": 45,
      "hit": false,
      "t": 27857.115000000013,
      "d": 77.38087499999892,
      "v": 127
    },
    {
      "midi": 42,
      "hit": false,
      "t": 27999.972000000012,
      "d": 142.85699999999997,
      "v": 127
    },
    {
      "midi": 64,
      "hit": false,
      "t": 28142.82900000001,
      "d": 56.54756249999991,
      "v": 103
    },
    {
      "midi": 67,
      "hit": false,
      "t": 28142.82900000001,
      "d": 68.45231250000143,
      "v": 105
    },
    {
      "midi": 45,
      "hit": false,
      "t": 28142.829000000012,
      "d": 92.26181250000081,
      "v": 127
    },
    {
      "midi": 62,
      "hit": false,
      "t": 28285.68600000001,
      "d": 110.11893749999945,
      "v": 94
    },
    {
      "midi": 66,
      "hit": false,
      "t": 28285.68600000001,
      "d": 116.0713125000002,
      "v": 118
    },
    {
      "midi": 50,
      "hit": false,
      "t": 28285.686000000012,
      "d": 95.2380000000012,
      "v": 127
    },
    {
      "midi": 54,
      "hit": false,
      "t": 28285.686000000012,
      "d": 101.19037500000195,
      "v": 127
    },
    {
      "midi": 45,
      "hit": false,
      "t": 28428.543000000016,
      "d": 74.40468749999854,
      "v": 127
    },
    {
      "midi": 38,
      "hit": false,
      "t": 28571.400000000016,
      "d": 306.54731249999895,
      "v": 127
    },
    {
      "midi": 50,
      "hit": false,
      "t": 28857.114000000016,
      "d": 74.40468749999854,
      "v": 127
    },
    {
      "midi": 54,
      "hit": false,
      "t": 28857.114000000016,
      "d": 80.3570624999993,
      "v": 127
    },
    {
      "midi": 45,
      "hit": false,
      "t": 28999.971000000016,
      "d": 89.28562500000044,
      "v": 127
    },
    {
      "midi": 42,
      "hit": false,
      "t": 29142.828000000016,
      "d": 157.73793749999822,
      "v": 127
    },
    {
      "midi": 45,
      "hit": false,
      "t": 29285.685000000016,
      "d": 89.2856249999968,
      "v": 127
    },
    {
      "midi": 50,
      "hit": false,
      "t": 29428.542000000012,
      "d": 101.19037499999831,
      "v": 127
    },
    {
      "midi": 54,
      "hit": false,
      "t": 29428.542000000012,
      "d": 101.19037499999831,
      "v": 127
    },
    {
      "midi": 45,
      "hit": false,
      "t": 29571.399000000012,
      "d": 89.28562500000044,
      "v": 127
    },
    {
      "midi": 35,
      "hit": false,
      "t": 29714.256000000012,
      "d": 276.7854374999988,
      "v": 127
    },
    {
      "midi": 66,
      "hit": false,
      "t": 29999.97000000001,
      "d": 38.69043750000128,
      "v": 107
    },
    {
      "midi": 62,
      "hit": false,
      "t": 29999.97000000001,
      "d": 50.595187500002794,
      "v": 92
    },
    {
      "midi": 71,
      "hit": false,
      "t": 29999.97000000001,
      "d": 50.595187500002794,
      "v": 109
    },
    {
      "midi": 54,
      "hit": false,
      "t": 29999.970000000012,
      "d": 86.30943750000006,
      "v": 127
    },
    {
      "midi": 50,
      "hit": false,
      "t": 29999.970000000012,
      "d": 95.2380000000012,
      "v": 127
    },
    {
      "midi": 47,
      "hit": false,
      "t": 30142.827000000012,
      "d": 77.38087499999892,
      "v": 127
    },
    {
      "midi": 42,
      "hit": false,
      "t": 30285.684000000012,
      "d": 148.80937500000073,
      "v": 127
    },
    {
      "midi": 47,
      "hit": false,
      "t": 30428.541000000012,
      "d": 83.33324999999968,
      "v": 127
    },
    {
      "midi": 71,
      "hit": false,
      "t": 30571.398000000012,
      "d": 35.7142500000009,
      "v": 89
    },
    {
      "midi": 66,
      "hit": false,
      "t": 30571.398000000012,
      "d": 47.619000000002416,
      "v": 97
    },
    {
      "midi": 62,
      "hit": false,
      "t": 30571.398000000012,
      "d": 53.57137500000317,
      "v": 86
    },
    {
      "midi": 50,
      "hit": false,
      "t": 30571.398000000012,
      "d": 98.21418750000157,
      "v": 127
    },
    {
      "midi": 54,
      "hit": false,
      "t": 30571.398000000012,
      "d": 101.19037500000195,
      "v": 127
    },
    {
      "midi": 47,
      "hit": false,
      "t": 30714.255000000016,
      "d": 80.3570624999993,
      "v": 127
    },
    {
      "midi": 35,
      "hit": false,
      "t": 30857.112000000016,
      "d": 270.8330625000017,
      "v": 127
    },
    {
      "midi": 66,
      "hit": false,
      "t": 31142.826000000015,
      "d": 29.761875000000146,
      "v": 58
    },
    {
      "midi": 54,
      "hit": false,
      "t": 31142.826000000015,
      "d": 80.3570624999993,
      "v": 127
    },
    {
      "midi": 50,
      "hit": false,
      "t": 31142.826000000015,
      "d": 86.30943750000006,
      "v": 127
    },
    {
      "midi": 47,
      "hit": false,
      "t": 31285.683000000015,
      "d": 74.40468749999854,
      "v": 127
    },
    {
      "midi": 42,
      "hit": false,
      "t": 31428.540000000015,
      "d": 119.04750000000058,
      "v": 127
    },
    {
      "midi": 47,
      "hit": false,
      "t": 31571.397000000015,
      "d": 83.33324999999968,
      "v": 127
    },
    {
      "midi": 62,
      "hit": false,
      "t": 31714.254000000015,
      "d": 29.761875000000146,
      "v": 80
    },
    {
      "midi": 66,
      "hit": false,
      "t": 31714.254000000015,
      "d": 32.738062500000524,
      "v": 87
    },
    {
      "midi": 50,
      "hit": false,
      "t": 31714.254000000015,
      "d": 95.2380000000012,
      "v": 127
    },
    {
      "midi": 54,
      "hit": false,
      "t": 31714.254000000015,
      "d": 104.16656250000233,
      "v": 127
    },
    {
      "midi": 47,
      "hit": false,
      "t": 31857.11100000002,
      "d": 68.45231250000143,
      "v": 127
    },
    {
      "midi": 55,
      "hit": false,
      "t": 31999.968000000015,
      "d": 351.190125000001,
      "v": 125
    },
    {
      "midi": 31,
      "hit": false,
      "t": 31999.96800000002,
      "d": 303.5711249999986,
      "v": 127
    },
    {
      "midi": 55,
      "hit": false,
      "t": 32285.68200000002,
      "d": 83.33324999999968,
      "v": 127
    },
    {
      "midi": 50,
      "hit": false,
      "t": 32285.68200000002,
      "d": 107.14274999999907,
      "v": 127
    },
    {
      "midi": 59,
      "hit": false,
      "t": 32428.539000000015,
      "d": 139.8808124999996,
      "v": 127
    },
    {
      "midi": 47,
      "hit": false,
      "t": 32428.53900000002,
      "d": 74.40468749999854,
      "v": 127
    },
    {
      "midi": 38,
      "hit": false,
      "t": 32571.39600000002,
      "d": 136.9046249999992,
      "v": 127
    },
    {
      "midi": 62,
      "hit": false,
      "t": 32714.253000000015,
      "d": 50.595187499999156,
      "v": 115
    },
    {
      "midi": 47,
      "hit": false,
      "t": 32714.25300000002,
      "d": 77.38087500000256,
      "v": 127
    },
    {
      "midi": 62,
      "hit": false,
      "t": 32857.110000000015,
      "d": 53.571374999999534,
      "v": 127
    },
    {
      "midi": 55,
      "hit": false,
      "t": 32857.11000000002,
      "d": 98.21418750000157,
      "v": 127
    },
    {
      "midi": 50,
      "hit": false,
      "t": 32857.11000000002,
      "d": 101.19037499999831,
      "v": 127
    },
    {
      "midi": 47,
      "hit": false,
      "t": 32999.96700000002,
      "d": 74.40468749999854,
      "v": 127
    },
    {
      "midi": 31,
      "hit": false,
      "t": 33142.824000000015,
      "d": 300.5949374999982,
      "v": 127
    },
    {
      "midi": 62,
      "hit": false,
      "t": 33428.538000000015,
      "d": 44.64281250000204,
      "v": 112
    },
    {
      "midi": 59,
      "hit": false,
      "t": 33428.538000000015,
      "d": 47.61899999999878,
      "v": 115
    },
    {
      "midi": 67,
      "hit": false,
      "t": 33428.538000000015,
      "d": 50.59518749999552,
      "v": 103
    },
    {
      "midi": 55,
      "hit": false,
      "t": 33428.538000000015,
      "d": 89.2856249999968,
      "v": 127
    },
    {
      "midi": 50,
      "hit": false,
      "t": 33428.538000000015,
      "d": 107.14274999999907,
      "v": 127
    },
    {
      "midi": 47,
      "hit": false,
      "t": 33571.39500000001,
      "d": 74.40468749999854,
      "v": 127
    },
    {
      "midi": 38,
      "hit": false,
      "t": 33714.25200000001,
      "d": 160.71412500000588,
      "v": 127
    },
    {
      "midi": 47,
      "hit": false,
      "t": 33857.10900000001,
      "d": 86.30943750000006,
      "v": 127
    },
    {
      "midi": 62,
      "hit": false,
      "t": 33999.96600000001,
      "d": 53.571374999999534,
      "v": 109
    },
    {
      "midi": 59,
      "hit": false,
      "t": 33999.96600000001,
      "d": 62.49993749999703,
      "v": 107
    },
    {
      "midi": 67,
      "hit": false,
      "t": 33999.96600000001,
      "d": 68.45231249999779,
      "v": 99
    },
    {
      "midi": 50,
      "hit": false,
      "t": 33999.966000000015,
      "d": 98.21418750000157,
      "v": 127
    },
    {
      "midi": 55,
      "hit": false,
      "t": 33999.966000000015,
      "d": 101.19037499999831,
      "v": 127
    },
    {
      "midi": 47,
      "hit": false,
      "t": 34142.82300000001,
      "d": 83.33325000000332,
      "v": 127
    },
    {
      "midi": 38,
      "hit": false,
      "t": 34285.680000000015,
      "d": 291.6663750000007,
      "v": 127
    },
    {
      "midi": 62,
      "hit": false,
      "t": 34571.39400000001,
      "d": 41.66662499999802,
      "v": 88
    },
    {
      "midi": 57,
      "hit": false,
      "t": 34571.39400000001,
      "d": 47.61899999999878,
      "v": 88
    },
    {
      "midi": 66,
      "hit": false,
      "t": 34571.39400000001,
      "d": 56.547562499996275,
      "v": 89
    },
    {
      "midi": 54,
      "hit": false,
      "t": 34571.394000000015,
      "d": 71.4285000000018,
      "v": 127
    },
    {
      "midi": 50,
      "hit": false,
      "t": 34571.394000000015,
      "d": 77.38087500000256,
      "v": 127
    },
    {
      "midi": 45,
      "hit": false,
      "t": 34714.25100000002,
      "d": 80.3570624999993,
      "v": 127
    },
    {
      "midi": 33,
      "hit": false,
      "t": 34857.108000000015,
      "d": 163.69031250000262,
      "v": 127
    },
    {
      "midi": 45,
      "hit": false,
      "t": 34999.96500000002,
      "d": 89.2856249999968,
      "v": 127
    },
    {
      "midi": 57,
      "hit": false,
      "t": 35142.82200000001,
      "d": 44.64281250000204,
      "v": 99
    },
    {
      "midi": 62,
      "hit": false,
      "t": 35142.82200000001,
      "d": 44.64281250000204,
      "v": 101
    },
    {
      "midi": 66,
      "hit": false,
      "t": 35142.82200000001,
      "d": 56.54756250000355,
      "v": 104
    },
    {
      "midi": 54,
      "hit": false,
      "t": 35142.822000000015,
      "d": 83.33325000000332,
      "v": 127
    },
    {
      "midi": 50,
      "hit": false,
      "t": 35142.822000000015,
      "d": 98.21418750000157,
      "v": 127
    },
    {
      "midi": 45,
      "hit": false,
      "t": 35285.67900000002,
      "d": 74.40468749999854,
      "v": 127
    },
    {
      "midi": 38,
      "hit": false,
      "t": 35428.536000000015,
      "d": 247.02356249999866,
      "v": 127
    },
    {
      "midi": 54,
      "hit": false,
      "t": 35714.250000000015,
      "d": 77.38087500000256,
      "v": 127
    },
    {
      "midi": 50,
      "hit": false,
      "t": 35714.250000000015,
      "d": 89.28562500000407,
      "v": 127
    },
    {
      "midi": 45,
      "hit": false,
      "t": 35857.10700000002,
      "d": 86.30943750000006,
      "v": 127
    },
    {
      "midi": 42,
      "hit": false,
      "t": 35999.96400000002,
      "d": 124.99987500000134,
      "v": 127
    },
    {
      "midi": 45,
      "hit": false,
      "t": 36142.821000000025,
      "d": 92.26181250000081,
      "v": 127
    },
    {
      "midi": 54,
      "hit": false,
      "t": 36285.67800000003,
      "d": 89.2856249999968,
      "v": 127
    },
    {
      "midi": 50,
      "hit": false,
      "t": 36285.67800000003,
      "d": 95.23799999999756,
      "v": 127
    },
    {
      "midi": 45,
      "hit": false,
      "t": 36428.535000000025,
      "d": 47.61899999999878,
      "v": 127
    },
    {
      "midi": 47,
      "hit": false,
      "t": 36571.392000000014,
      "d": 62.49993749999703,
      "v": 123
    },
    {
      "midi": 35,
      "hit": false,
      "t": 36571.39200000002,
      "d": 101.19037499999831,
      "v": 127
    },
    {
      "midi": 47,
      "hit": false,
      "t": 36714.24900000001,
      "d": 65.47612500000105,
      "v": 109
    },
    {
      "midi": 47,
      "hit": false,
      "t": 36714.24900000002,
      "d": 59.52375000000029,
      "v": 127
    },
    {
      "midi": 47,
      "hit": false,
      "t": 36857.106000000014,
      "d": 68.45231249999779,
      "v": 127
    },
    {
      "midi": 50,
      "hit": false,
      "t": 36857.10600000002,
      "d": 68.45231249999779,
      "v": 127
    },
    {
      "midi": 54,
      "hit": false,
      "t": 36857.10600000002,
      "d": 80.3570624999993,
      "v": 127
    },
    {
      "midi": 47,
      "hit": false,
      "t": 36999.96300000001,
      "d": 23.809500000003027,
      "v": 89
    },
    {
      "midi": 42,
      "hit": false,
      "t": 37142.82000000002,
      "d": 77.38087500000256,
      "v": 127
    },
    {
      "midi": 47,
      "hit": false,
      "t": 37285.677000000025,
      "d": 56.54756250000355,
      "v": 127
    },
    {
      "midi": 50,
      "hit": false,
      "t": 37428.53400000003,
      "d": 65.47612500000105,
      "v": 127
    },
    {
      "midi": 54,
      "hit": false,
      "t": 37428.53400000003,
      "d": 89.28562500000407,
      "v": 127
    },
    {
      "midi": 47,
      "hit": false,
      "t": 37571.39100000003,
      "d": 29.761874999996508,
      "v": 127
    },
    {
      "midi": 35,
      "hit": false,
      "t": 37714.24800000003,
      "d": 122.02368749999732,
      "v": 127
    },
    {
      "midi": 47,
      "hit": false,
      "t": 37857.105000000025,
      "d": 65.47612500000105,
      "v": 127
    },
    {
      "midi": 50,
      "hit": false,
      "t": 37999.96200000003,
      "d": 56.54756250000355,
      "v": 127
    },
    {
      "midi": 54,
      "hit": false,
      "t": 37999.96200000003,
      "d": 80.35706250000658,
      "v": 127
    },
    {
      "midi": 47,
      "hit": false,
      "t": 38142.81900000003,
      "d": 35.714249999997264,
      "v": 127
    },
    {
      "midi": 66,
      "hit": false,
      "t": 38285.676000000014,
      "d": 249.99975000000268,
      "v": 114
    },
    {
      "midi": 59,
      "hit": false,
      "t": 38285.676000000014,
      "d": 255.95212500000343,
      "v": 112
    },
    {
      "midi": 62,
      "hit": false,
      "t": 38285.676000000014,
      "d": 255.95212500000343,
      "v": 109
    },
    {
      "midi": 42,
      "hit": false,
      "t": 38285.67600000003,
      "d": 71.4285000000018,
      "v": 127
    },
    {
      "midi": 47,
      "hit": false,
      "t": 38428.53300000003,
      "d": 56.54756250000355,
      "v": 127
    },
    {
      "midi": 54,
      "hit": false,
      "t": 38571.390000000036,
      "d": 65.47612500000105,
      "v": 127
    },
    {
      "midi": 50,
      "hit": false,
      "t": 38571.390000000036,
      "d": 71.4285000000018,
      "v": 127
    },
    {
      "midi": 47,
      "hit": false,
      "t": 38714.24700000004,
      "d": 56.54756250000355,
      "v": 127
    },
    {
      "midi": 47,
      "hit": false,
      "t": 38857.104000000014,
      "d": 80.3570624999993,
      "v": 127
    },
    {
      "midi": 35,
      "hit": false,
      "t": 38857.10400000004,
      "d": 127.97606249999808,
      "v": 127
    },
    {
      "midi": 47,
      "hit": false,
      "t": 38999.96100000001,
      "d": 71.4285000000018,
      "v": 112
    },
    {
      "midi": 47,
      "hit": false,
      "t": 38999.96100000004,
      "d": 56.54756250000355,
      "v": 127
    },
    {
      "midi": 47,
      "hit": false,
      "t": 39142.818000000014,
      "d": 68.45231249999779,
      "v": 127
    },
    {
      "midi": 50,
      "hit": false,
      "t": 39142.81800000004,
      "d": 47.61899999999878,
      "v": 127
    },
    {
      "midi": 54,
      "hit": false,
      "t": 39142.81800000004,
      "d": 74.40468749999854,
      "v": 127
    },
    {
      "midi": 47,
      "hit": false,
      "t": 39285.67500000001,
      "d": 50.595187500002794,
      "v": 117
    },
    {
      "midi": 47,
      "hit": false,
      "t": 39285.67500000004,
      "d": 50.595187500002794,
      "v": 127
    },
    {
      "midi": 42,
      "hit": false,
      "t": 39428.53200000004,
      "d": 65.47612500000105,
      "v": 127
    },
    {
      "midi": 47,
      "hit": false,
      "t": 39571.38900000005,
      "d": 44.64281250000204,
      "v": 127
    },
    {
      "midi": 50,
      "hit": false,
      "t": 39714.24600000005,
      "d": 35.714249999997264,
      "v": 127
    },
    {
      "midi": 54,
      "hit": false,
      "t": 39714.24600000005,
      "d": 74.40468749999854,
      "v": 127
    },
    {
      "midi": 47,
      "hit": false,
      "t": 39857.10300000005,
      "d": 56.54756250000355,
      "v": 127
    },
    {
      "midi": 35,
      "hit": false,
      "t": 39999.96000000005,
      "d": 133.92843749999884,
      "v": 127
    },
    {
      "midi": 47,
      "hit": false,
      "t": 40142.81700000005,
      "d": 71.4285000000018,
      "v": 127
    },
    {
      "midi": 50,
      "hit": false,
      "t": 40285.67400000005,
      "d": 50.595187500002794,
      "v": 127
    },
    {
      "midi": 54,
      "hit": false,
      "t": 40285.67400000005,
      "d": 71.4285000000018,
      "v": 127
    },
    {
      "midi": 47,
      "hit": false,
      "t": 40428.53100000005,
      "d": 44.64281250000204,
      "v": 127
    },
    {
      "midi": 66,
      "hit": false,
      "t": 40571.38800000001,
      "d": 285.71399999999994,
      "v": 100
    },
    {
      "midi": 59,
      "hit": false,
      "t": 40571.38800000001,
      "d": 288.6901874999967,
      "v": 105
    },
    {
      "midi": 62,
      "hit": false,
      "t": 40571.38800000001,
      "d": 294.64256249999744,
      "v": 97
    },
    {
      "midi": 42,
      "hit": false,
      "t": 40571.38800000006,
      "d": 65.47612500000105,
      "v": 127
    },
    {
      "midi": 47,
      "hit": false,
      "t": 40714.24500000006,
      "d": 59.52375000000029,
      "v": 127
    },
    {
      "midi": 50,
      "hit": false,
      "t": 40857.102000000064,
      "d": 62.49993749999703,
      "v": 127
    },
    {
      "midi": 54,
      "hit": false,
      "t": 40857.102000000064,
      "d": 80.3570624999993,
      "v": 127
    },
    {
      "midi": 47,
      "hit": false,
      "t": 40999.95900000006,
      "d": 83.33325000000332,
      "v": 127
    },
    {
      "midi": 40,
      "hit": false,
      "t": 41142.81600000001,
      "d": 71.4285000000018,
      "v": 123
    },
    {
      "midi": 35,
      "hit": false,
      "t": 41142.816000000064,
      "d": 116.07131249999657,
      "v": 127
    },
    {
      "midi": 40,
      "hit": false,
      "t": 41285.67300000002,
      "d": 68.45231249999779,
      "v": 107
    },
    {
      "midi": 47,
      "hit": false,
      "t": 41285.67300000006,
      "d": 68.45231249999779,
      "v": 127
    },
    {
      "midi": 52,
      "hit": false,
      "t": 41428.53000000006,
      "d": 71.4285000000018,
      "v": 127
    },
    {
      "midi": 55,
      "hit": false,
      "t": 41428.53000000006,
      "d": 71.4285000000018,
      "v": 127
    },
    {
      "midi": 40,
      "hit": false,
      "t": 41571.38700000002,
      "d": 71.4285000000018,
      "v": 117
    },
    {
      "midi": 47,
      "hit": false,
      "t": 41571.38700000006,
      "d": 74.40468749999854,
      "v": 127
    },
    {
      "midi": 40,
      "hit": false,
      "t": 41714.24400000006,
      "d": 95.23799999999756,
      "v": 127
    },
    {
      "midi": 40,
      "hit": false,
      "t": 41857.10100000002,
      "d": 68.45231249999779,
      "v": 103
    },
    {
      "midi": 47,
      "hit": false,
      "t": 41857.10100000005,
      "d": 77.38087500000256,
      "v": 127
    },
    {
      "midi": 40,
      "hit": false,
      "t": 41999.95800000001,
      "d": 107.14274999999907,
      "v": 103
    },
    {
      "midi": 55,
      "hit": false,
      "t": 41999.95800000006,
      "d": 62.49993749999703,
      "v": 127
    },
    {
      "midi": 52,
      "hit": false,
      "t": 41999.95800000006,
      "d": 77.38087499999529,
      "v": 127
    },
    {
      "midi": 47,
      "hit": false,
      "t": 42142.81500000005,
      "d": 77.38087500000256,
      "v": 127
    },
    {
      "midi": 40,
      "hit": false,
      "t": 42285.67200000001,
      "d": 83.33325000000332,
      "v": 92
    },
    {
      "midi": 40,
      "hit": false,
      "t": 42285.67200000006,
      "d": 83.33325000000332,
      "v": 127
    },
    {
      "midi": 40,
      "hit": false,
      "t": 42428.52900000002,
      "d": 77.38087500000256,
      "v": 120
    },
    {
      "midi": 47,
      "hit": false,
      "t": 42428.52900000006,
      "d": 77.38087500000256,
      "v": 127
    },
    {
      "midi": 40,
      "hit": false,
      "t": 42571.38600000002,
      "d": 62.49993749999703,
      "v": 103
    },
    {
      "midi": 55,
      "hit": false,
      "t": 42571.386000000064,
      "d": 62.49993749999703,
      "v": 127
    },
    {
      "midi": 52,
      "hit": false,
      "t": 42571.386000000064,
      "d": 71.42849999999453,
      "v": 127
    },
    {
      "midi": 40,
      "hit": false,
      "t": 42714.24300000002,
      "d": 74.40468749999854,
      "v": 99
    },
    {
      "midi": 47,
      "hit": false,
      "t": 42714.24300000006,
      "d": 74.40468749999854,
      "v": 127
    },
    {
      "midi": 40,
      "hit": false,
      "t": 42857.10000000001,
      "d": 71.4285000000018,
      "v": 103
    },
    {
      "midi": 59,
      "hit": false,
      "t": 42857.10000000001,
      "d": 199.40456250000716,
      "v": 89
    },
    {
      "midi": 67,
      "hit": false,
      "t": 42857.10000000001,
      "d": 208.33312500000466,
      "v": 94
    },
    {
      "midi": 64,
      "hit": false,
      "t": 42857.10000000001,
      "d": 211.3093125000014,
      "v": 112
    },
    {
      "midi": 35,
      "hit": false,
      "t": 42857.10000000006,
      "d": 110.11893750000309,
      "v": 127
    },
    {
      "midi": 40,
      "hit": false,
      "t": 42999.95700000002,
      "d": 65.47612500000105,
      "v": 97
    },
    {
      "midi": 47,
      "hit": false,
      "t": 42999.95700000006,
      "d": 65.47612500000105,
      "v": 127
    },
    {
      "midi": 40,
      "hit": false,
      "t": 43142.81400000001,
      "d": 80.3570624999993,
      "v": 107
    },
    {
      "midi": 55,
      "hit": false,
      "t": 43142.814000000064,
      "d": 53.571374999999534,
      "v": 127
    },
    {
      "midi": 52,
      "hit": false,
      "t": 43142.814000000064,
      "d": 68.45231249999779,
      "v": 127
    },
    {
      "midi": 40,
      "hit": false,
      "t": 43285.67100000001,
      "d": 56.54756250000355,
      "v": 101
    },
    {
      "midi": 47,
      "hit": false,
      "t": 43285.67100000006,
      "d": 50.595187500002794,
      "v": 127
    },
    {
      "midi": 40,
      "hit": false,
      "t": 43428.52800000001,
      "d": 65.47612500000105,
      "v": 117
    },
    {
      "midi": 40,
      "hit": false,
      "t": 43428.528000000064,
      "d": 86.30943750000006,
      "v": 127
    },
    {
      "midi": 40,
      "hit": false,
      "t": 43571.38500000002,
      "d": 68.45231249999779,
      "v": 109
    },
    {
      "midi": 47,
      "hit": false,
      "t": 43571.38500000007,
      "d": 68.45231249999779,
      "v": 127
    },
    {
      "midi": 55,
      "hit": false,
      "t": 43714.242000000064,
      "d": 68.45231249999779,
      "v": 127
    },
    {
      "midi": 52,
      "hit": false,
      "t": 43714.242000000064,
      "d": 89.2856249999968,
      "v": 127
    },
    {
      "midi": 40,
      "hit": false,
      "t": 43857.09900000002,
      "d": 80.3570624999993,
      "v": 115
    },
    {
      "midi": 47,
      "hit": false,
      "t": 43857.09900000006,
      "d": 83.33325000000332,
      "v": 127
    },
    {
      "midi": 40,
      "hit": false,
      "t": 43999.95600000001,
      "d": 80.3570624999993,
      "v": 123
    },
    {
      "midi": 35,
      "hit": false,
      "t": 43999.956000000064,
      "d": 122.02368749999732,
      "v": 127
    },
    {
      "midi": 40,
      "hit": false,
      "t": 44142.81300000001,
      "d": 65.47612500000105,
      "v": 107
    },
    {
      "midi": 47,
      "hit": false,
      "t": 44142.81300000006,
      "d": 71.4285000000018,
      "v": 127
    },
    {
      "midi": 40,
      "hit": false,
      "t": 44285.67000000001,
      "d": 74.40468749999854,
      "v": 101
    },
    {
      "midi": 55,
      "hit": false,
      "t": 44285.670000000064,
      "d": 65.47612500000105,
      "v": 127
    },
    {
      "midi": 52,
      "hit": false,
      "t": 44285.670000000064,
      "d": 89.28562500000407,
      "v": 127
    },
    {
      "midi": 40,
      "hit": false,
      "t": 44428.52700000001,
      "d": 77.38087500000256,
      "v": 101
    },
    {
      "midi": 47,
      "hit": false,
      "t": 44428.52700000007,
      "d": 86.30943750000006,
      "v": 127
    },
    {
      "midi": 40,
      "hit": false,
      "t": 44571.38400000001,
      "d": 74.40468749999854,
      "v": 99
    },
    {
      "midi": 40,
      "hit": false,
      "t": 44571.38400000007,
      "d": 80.3570624999993,
      "v": 127
    },
    {
      "midi": 40,
      "hit": false,
      "t": 44714.24100000001,
      "d": 71.4285000000018,
      "v": 107
    },
    {
      "midi": 47,
      "hit": false,
      "t": 44714.24100000007,
      "d": 68.45231249999779,
      "v": 127
    },
    {
      "midi": 40,
      "hit": false,
      "t": 44857.09800000001,
      "d": 83.33325000000332,
      "v": 107
    },
    {
      "midi": 55,
      "hit": false,
      "t": 44857.09800000006,
      "d": 53.571374999999534,
      "v": 127
    },
    {
      "midi": 52,
      "hit": false,
      "t": 44857.09800000006,
      "d": 95.23799999999756,
      "v": 127
    },
    {
      "midi": 40,
      "hit": false,
      "t": 44999.955000000016,
      "d": 68.45231249999779,
      "v": 109
    },
    {
      "midi": 47,
      "hit": false,
      "t": 44999.95500000006,
      "d": 77.38087500000256,
      "v": 127
    },
    {
      "midi": 40,
      "hit": false,
      "t": 45142.81200000001,
      "d": 107.14274999999907,
      "v": 107
    },
    {
      "midi": 67,
      "hit": false,
      "t": 45142.81200000001,
      "d": 226.19024999999965,
      "v": 95
    },
    {
      "midi": 64,
      "hit": false,
      "t": 45142.81200000001,
      "d": 235.11881249999715,
      "v": 115
    },
    {
      "midi": 59,
      "hit": false,
      "t": 45142.81200000001,
      "d": 238.0949999999939,
      "v": 97
    },
    {
      "midi": 35,
      "hit": false,
      "t": 45142.81200000006,
      "d": 86.30943750000006,
      "v": 127
    },
    {
      "midi": 47,
      "hit": false,
      "t": 45285.66900000007,
      "d": 65.47612500000105,
      "v": 127
    },
    {
      "midi": 40,
      "hit": false,
      "t": 45428.526000000005,
      "d": 68.45231249999779,
      "v": 123
    },
    {
      "midi": 55,
      "hit": false,
      "t": 45428.52600000007,
      "d": 80.3570624999993,
      "v": 127
    },
    {
      "midi": 52,
      "hit": false,
      "t": 45428.52600000007,
      "d": 86.30943750000006,
      "v": 127
    },
    {
      "midi": 47,
      "hit": false,
      "t": 45571.383000000074,
      "d": 83.33325000000332,
      "v": 127
    },
    {
      "midi": 47,
      "hit": false,
      "t": 45714.240000000005,
      "d": 77.38087500000256,
      "v": 107
    },
    {
      "midi": 35,
      "hit": false,
      "t": 45714.24000000008,
      "d": 136.90462500000285,
      "v": 127
    },
    {
      "midi": 47,
      "hit": false,
      "t": 45857.09700000001,
      "d": 65.47612500000105,
      "v": 101
    },
    {
      "midi": 47,
      "hit": false,
      "t": 45857.09700000008,
      "d": 56.54756250000355,
      "v": 127
    },
    {
      "midi": 47,
      "hit": false,
      "t": 45999.95400000001,
      "d": 71.4285000000018,
      "v": 95
    },
    {
      "midi": 50,
      "hit": false,
      "t": 45999.954000000085,
      "d": 68.45231249999779,
      "v": 127
    },
    {
      "midi": 54,
      "hit": false,
      "t": 45999.954000000085,
      "d": 77.38087499999529,
      "v": 127
    },
    {
      "midi": 47,
      "hit": false,
      "t": 46142.811000000016,
      "d": 77.38087500000256,
      "v": 95
    },
    {
      "midi": 47,
      "hit": false,
      "t": 46142.81100000008,
      "d": 62.49993749999703,
      "v": 127
    },
    {
      "midi": 47,
      "hit": false,
      "t": 46285.66800000002,
      "d": 71.4285000000018,
      "v": 107
    },
    {
      "midi": 42,
      "hit": false,
      "t": 46285.66800000008,
      "d": 71.4285000000018,
      "v": 127
    },
    {
      "midi": 47,
      "hit": false,
      "t": 46428.52500000002,
      "d": 77.38087500000256,
      "v": 109
    },
    {
      "midi": 47,
      "hit": false,
      "t": 46428.52500000008,
      "d": 53.571374999999534,
      "v": 127
    },
    {
      "midi": 47,
      "hit": false,
      "t": 46571.38200000003,
      "d": 74.40468749999854,
      "v": 117
    },
    {
      "midi": 50,
      "hit": false,
      "t": 46571.38200000008,
      "d": 62.49993749999703,
      "v": 127
    },
    {
      "midi": 54,
      "hit": false,
      "t": 46571.38200000008,
      "d": 77.38087499999529,
      "v": 127
    },
    {
      "midi": 47,
      "hit": false,
      "t": 46714.239000000074,
      "d": 77.38087500000256,
      "v": 127
    },
    {
      "midi": 35,
      "hit": false,
      "t": 46857.09600000008,
      "d": 130.9522500000021,
      "v": 127
    },
    {
      "midi": 47,
      "hit": false,
      "t": 46999.95300000008,
      "d": 32.738062500000524,
      "v": 127
    },
    {
      "midi": 50,
      "hit": false,
      "t": 47142.810000000085,
      "d": 35.714249999997264,
      "v": 127
    },
    {
      "midi": 54,
      "hit": false,
      "t": 47142.810000000085,
      "d": 74.40468749999854,
      "v": 127
    },
    {
      "midi": 47,
      "hit": false,
      "t": 47285.66700000008,
      "d": 50.595187500002794,
      "v": 127
    },
    {
      "midi": 71,
      "hit": false,
      "t": 47428.52400000003,
      "d": 205.35693750000064,
      "v": 117
    },
    {
      "midi": 62,
      "hit": false,
      "t": 47428.52400000003,
      "d": 241.0711874999979,
      "v": 105
    },
    {
      "midi": 66,
      "hit": false,
      "t": 47428.52400000003,
      "d": 241.0711874999979,
      "v": 118
    },
    {
      "midi": 42,
      "hit": false,
      "t": 47428.524000000085,
      "d": 68.45231249999779,
      "v": 127
    },
    {
      "midi": 47,
      "hit": false,
      "t": 47571.38100000008,
      "d": 53.571374999999534,
      "v": 127
    },
    {
      "midi": 59,
      "hit": false,
      "t": 47714.23800000003,
      "d": 41.66662499999802,
      "v": 117
    },
    {
      "midi": 54,
      "hit": false,
      "t": 47714.23800000008,
      "d": 38.69043750000128,
      "v": 127
    },
    {
      "midi": 50,
      "hit": false,
      "t": 47714.23800000008,
      "d": 56.54756250000355,
      "v": 127
    },
    {
      "midi": 47,
      "hit": false,
      "t": 47857.09500000008,
      "d": 53.571374999999534,
      "v": 127
    },
    {
      "midi": 47,
      "hit": false,
      "t": 47999.95200000003,
      "d": 83.33325000000332,
      "v": 120
    },
    {
      "midi": 35,
      "hit": false,
      "t": 47999.95200000008,
      "d": 127.97606249999808,
      "v": 127
    },
    {
      "midi": 47,
      "hit": false,
      "t": 48142.80900000003,
      "d": 74.40468749999854,
      "v": 91
    },
    {
      "midi": 47,
      "hit": false,
      "t": 48142.809000000074,
      "d": 74.40468749999854,
      "v": 127
    },
    {
      "midi": 47,
      "hit": false,
      "t": 48285.66600000003,
      "d": 86.30943750000006,
      "v": 103
    },
    {
      "midi": 50,
      "hit": false,
      "t": 48285.66600000007,
      "d": 41.66662499999802,
      "v": 127
    },
    {
      "midi": 54,
      "hit": false,
      "t": 48285.66600000007,
      "d": 56.547562499996275,
      "v": 127
    },
    {
      "midi": 47,
      "hit": false,
      "t": 48428.52300000003,
      "d": 80.3570624999993,
      "v": 83
    },
    {
      "midi": 47,
      "hit": false,
      "t": 48428.52300000007,
      "d": 65.47612500000105,
      "v": 127
    },
    {
      "midi": 47,
      "hit": false,
      "t": 48571.38000000003,
      "d": 80.3570624999993,
      "v": 105
    },
    {
      "midi": 42,
      "hit": false,
      "t": 48571.38000000007,
      "d": 68.45231249999779,
      "v": 127
    },
    {
      "midi": 47,
      "hit": false,
      "t": 48714.23700000002,
      "d": 98.21418750000157,
      "v": 92
    },
    {
      "midi": 47,
      "hit": false,
      "t": 48714.23700000007,
      "d": 74.40468749999854,
      "v": 127
    },
    {
      "midi": 47,
      "hit": false,
      "t": 48857.09400000003,
      "d": 89.2856249999968,
      "v": 109
    },
    {
      "midi": 50,
      "hit": false,
      "t": 48857.09400000006,
      "d": 68.45231249999779,
      "v": 127
    },
    {
      "midi": 54,
      "hit": false,
      "t": 48857.09400000006,
      "d": 71.42849999999453,
      "v": 127
    },
    {
      "midi": 47,
      "hit": false,
      "t": 48999.95100000006,
      "d": 50.595187500002794,
      "v": 127
    },
    {
      "midi": 35,
      "hit": false,
      "t": 49142.80800000006,
      "d": 148.80937500000437,
      "v": 127
    },
    {
      "midi": 47,
      "hit": false,
      "t": 49285.665000000066,
      "d": 65.47612500000105,
      "v": 127
    },
    {
      "midi": 50,
      "hit": false,
      "t": 49428.52200000007,
      "d": 59.52375000000029,
      "v": 127
    },
    {
      "midi": 54,
      "hit": false,
      "t": 49428.52200000007,
      "d": 74.40468749999854,
      "v": 127
    },
    {
      "midi": 47,
      "hit": false,
      "t": 49571.379000000066,
      "d": 65.47612500000105,
      "v": 127
    },
    {
      "midi": 71,
      "hit": false,
      "t": 49714.236000000026,
      "d": 202.38074999999662,
      "v": 101
    },
    {
      "midi": 62,
      "hit": false,
      "t": 49714.236000000026,
      "d": 241.0711874999979,
      "v": 91
    },
    {
      "midi": 66,
      "hit": false,
      "t": 49714.236000000026,
      "d": 252.97593749999942,
      "v": 95
    },
    {
      "midi": 42,
      "hit": false,
      "t": 49714.23600000007,
      "d": 83.33325000000332,
      "v": 127
    },
    {
      "midi": 47,
      "hit": false,
      "t": 49857.09300000007,
      "d": 89.2856249999968,
      "v": 127
    },
    {
      "midi": 50,
      "hit": false,
      "t": 49999.95000000007,
      "d": 74.40468749999854,
      "v": 127
    },
    {
      "midi": 54,
      "hit": false,
      "t": 49999.95000000007,
      "d": 80.3570624999993,
      "v": 127
    },
    {
      "midi": 47,
      "hit": false,
      "t": 50142.807000000066,
      "d": 56.54756250000355,
      "v": 127
    },
    {
      "midi": 40,
      "hit": false,
      "t": 50285.664000000026,
      "d": 92.26181250000081,
      "v": 107
    },
    {
      "midi": 40,
      "hit": false,
      "t": 50285.66400000007,
      "d": 86.30943750000006,
      "v": 127
    },
    {
      "midi": 40,
      "hit": false,
      "t": 50428.52100000003,
      "d": 89.2856249999968,
      "v": 105
    },
    {
      "midi": 47,
      "hit": false,
      "t": 50428.52100000007,
      "d": 80.3570624999993,
      "v": 127
    },
    {
      "midi": 40,
      "hit": false,
      "t": 50571.378000000026,
      "d": 74.40468749999854,
      "v": 99
    },
    {
      "midi": 55,
      "hit": false,
      "t": 50571.37800000007,
      "d": 59.52375000000029,
      "v": 127
    },
    {
      "midi": 52,
      "hit": false,
      "t": 50571.37800000007,
      "d": 77.38087500000256,
      "v": 127
    },
    {
      "midi": 40,
      "hit": false,
      "t": 50714.23500000002,
      "d": 83.33325000000332,
      "v": 70
    },
    {
      "midi": 47,
      "hit": false,
      "t": 50714.23500000007,
      "d": 80.3570624999993,
      "v": 127
    },
    {
      "midi": 40,
      "hit": false,
      "t": 50857.092000000026,
      "d": 83.33325000000332,
      "v": 95
    },
    {
      "midi": 35,
      "hit": false,
      "t": 50857.09200000007,
      "d": 116.07131249999657,
      "v": 127
    },
    {
      "midi": 40,
      "hit": false,
      "t": 50999.94900000003,
      "d": 80.3570624999993,
      "v": 80
    },
    {
      "midi": 47,
      "hit": false,
      "t": 50999.949000000066,
      "d": 56.54756250000355,
      "v": 127
    },
    {
      "midi": 40,
      "hit": false,
      "t": 51142.806000000026,
      "d": 74.40468749999854,
      "v": 97
    },
    {
      "midi": 52,
      "hit": false,
      "t": 51142.80600000007,
      "d": 74.40468749999854,
      "v": 127
    },
    {
      "midi": 55,
      "hit": false,
      "t": 51142.80600000007,
      "d": 77.38087499999529,
      "v": 127
    },
    {
      "midi": 40,
      "hit": false,
      "t": 51285.66300000002,
      "d": 71.4285000000018,
      "v": 88
    },
    {
      "midi": 47,
      "hit": false,
      "t": 51285.663000000066,
      "d": 80.3570624999993,
      "v": 127
    },
    {
      "midi": 40,
      "hit": false,
      "t": 51428.520000000026,
      "d": 80.3570624999993,
      "v": 89
    },
    {
      "midi": 40,
      "hit": false,
      "t": 51428.52000000006,
      "d": 89.2856249999968,
      "v": 127
    },
    {
      "midi": 40,
      "hit": false,
      "t": 51571.37700000002,
      "d": 83.33325000000332,
      "v": 86
    },
    {
      "midi": 47,
      "hit": false,
      "t": 51571.37700000006,
      "d": 77.38087500000256,
      "v": 127
    },
    {
      "midi": 40,
      "hit": false,
      "t": 51714.234000000026,
      "d": 83.33325000000332,
      "v": 97
    },
    {
      "midi": 55,
      "hit": false,
      "t": 51714.23400000006,
      "d": 68.45231249999779,
      "v": 127
    },
    {
      "midi": 52,
      "hit": false,
      "t": 51714.23400000006,
      "d": 86.30943750000006,
      "v": 127
    },
    {
      "midi": 40,
      "hit": false,
      "t": 51857.09100000003,
      "d": 77.38087500000256,
      "v": 83
    },
    {
      "midi": 47,
      "hit": false,
      "t": 51857.091000000066,
      "d": 71.4285000000018,
      "v": 127
    },
    {
      "midi": 40,
      "hit": false,
      "t": 51999.94800000003,
      "d": 77.38087500000256,
      "v": 95
    },
    {
      "midi": 67,
      "hit": false,
      "t": 51999.94800000003,
      "d": 175.59506250000413,
      "v": 75
    },
    {
      "midi": 64,
      "hit": false,
      "t": 51999.94800000003,
      "d": 217.26168750000215,
      "v": 88
    },
    {
      "midi": 35,
      "hit": false,
      "t": 51999.94800000007,
      "d": 110.11893750000309,
      "v": 127
    },
    {
      "midi": 40,
      "hit": false,
      "t": 52142.80500000004,
      "d": 74.40468749999854,
      "v": 77
    },
    {
      "midi": 47,
      "hit": false,
      "t": 52142.80500000007,
      "d": 74.40468749999854,
      "v": 127
    },
    {
      "midi": 40,
      "hit": false,
      "t": 52285.66200000003,
      "d": 80.3570624999993,
      "v": 101
    },
    {
      "midi": 55,
      "hit": false,
      "t": 52285.66200000007,
      "d": 59.52375000000029,
      "v": 127
    },
    {
      "midi": 52,
      "hit": false,
      "t": 52285.66200000007,
      "d": 80.3570624999993,
      "v": 127
    },
    {
      "midi": 40,
      "hit": false,
      "t": 52428.51900000003,
      "d": 53.571374999999534,
      "v": 86
    },
    {
      "midi": 47,
      "hit": false,
      "t": 52428.519000000066,
      "d": 68.45231249999779,
      "v": 127
    },
    {
      "midi": 40,
      "hit": false,
      "t": 52571.376000000026,
      "d": 83.33325000000332,
      "v": 91
    },
    {
      "midi": 40,
      "hit": false,
      "t": 52571.37600000006,
      "d": 80.3570624999993,
      "v": 127
    },
    {
      "midi": 40,
      "hit": false,
      "t": 52714.23300000003,
      "d": 71.4285000000018,
      "v": 86
    },
    {
      "midi": 47,
      "hit": false,
      "t": 52714.23300000006,
      "d": 68.45231249999779,
      "v": 127
    },
    {
      "midi": 40,
      "hit": false,
      "t": 52857.09000000003,
      "d": 74.40468749999854,
      "v": 97
    },
    {
      "midi": 55,
      "hit": false,
      "t": 52857.090000000055,
      "d": 62.49993749999703,
      "v": 127
    },
    {
      "midi": 52,
      "hit": false,
      "t": 52857.090000000055,
      "d": 68.45231249999779,
      "v": 127
    },
    {
      "midi": 40,
      "hit": false,
      "t": 52999.94700000003,
      "d": 74.40468749999854,
      "v": 65
    },
    {
      "midi": 47,
      "hit": false,
      "t": 52999.94700000005,
      "d": 92.26181250000081,
      "v": 127
    },
    {
      "midi": 40,
      "hit": false,
      "t": 53142.804000000026,
      "d": 80.3570624999993,
      "v": 94
    },
    {
      "midi": 35,
      "hit": false,
      "t": 53142.804000000055,
      "d": 116.07131249999657,
      "v": 127
    },
    {
      "midi": 40,
      "hit": false,
      "t": 53285.66100000002,
      "d": 56.54756250000355,
      "v": 79
    },
    {
      "midi": 47,
      "hit": false,
      "t": 53285.66100000005,
      "d": 77.38087500000256,
      "v": 127
    },
    {
      "midi": 40,
      "hit": false,
      "t": 53428.518000000025,
      "d": 77.38087500000256,
      "v": 99
    },
    {
      "midi": 52,
      "hit": false,
      "t": 53428.518000000055,
      "d": 71.4285000000018,
      "v": 127
    },
    {
      "midi": 55,
      "hit": false,
      "t": 53428.518000000055,
      "d": 83.33325000000332,
      "v": 127
    },
    {
      "midi": 40,
      "hit": false,
      "t": 53571.37500000003,
      "d": 56.54756250000355,
      "v": 92
    },
    {
      "midi": 47,
      "hit": false,
      "t": 53571.37500000006,
      "d": 74.40468749999854,
      "v": 127
    },
    {
      "midi": 40,
      "hit": false,
      "t": 53714.23200000003,
      "d": 77.38087500000256,
      "v": 97
    },
    {
      "midi": 40,
      "hit": false,
      "t": 53714.232000000055,
      "d": 92.26181250000081,
      "v": 127
    },
    {
      "midi": 40,
      "hit": false,
      "t": 53857.089000000036,
      "d": 74.40468749999854,
      "v": 89
    },
    {
      "midi": 47,
      "hit": false,
      "t": 53857.08900000006,
      "d": 71.4285000000018,
      "v": 127
    },
    {
      "midi": 40,
      "hit": false,
      "t": 53999.94600000003,
      "d": 77.38087500000256,
      "v": 97
    },
    {
      "midi": 52,
      "hit": false,
      "t": 53999.94600000006,
      "d": 53.571374999999534,
      "v": 127
    },
    {
      "midi": 55,
      "hit": false,
      "t": 53999.94600000006,
      "d": 77.38087500000256,
      "v": 127
    },
    {
      "midi": 40,
      "hit": false,
      "t": 54142.803000000036,
      "d": 62.49993749999703,
      "v": 80
    },
    {
      "midi": 47,
      "hit": false,
      "t": 54142.803000000065,
      "d": 77.38087500000256,
      "v": 127
    },
    {
      "midi": 40,
      "hit": false,
      "t": 54285.66000000003,
      "d": 77.38087500000256,
      "v": 95
    },
    {
      "midi": 67,
      "hit": false,
      "t": 54285.66000000003,
      "d": 184.52362500000163,
      "v": 94
    },
    {
      "midi": 64,
      "hit": false,
      "t": 54285.66000000003,
      "d": 223.21406249999563,
      "v": 109
    },
    {
      "midi": 35,
      "hit": false,
      "t": 54285.66000000007,
      "d": 113.09512499999983,
      "v": 127
    },
    {
      "midi": 40,
      "hit": false,
      "t": 54428.517000000036,
      "d": 71.42849999999453,
      "v": 89
    },
    {
      "midi": 47,
      "hit": false,
      "t": 54428.517000000065,
      "d": 80.3570624999993,
      "v": 127
    },
    {
      "midi": 59,
      "hit": false,
      "t": 54571.374000000025,
      "d": 38.69043750000128,
      "v": 103
    },
    {
      "midi": 40,
      "hit": false,
      "t": 54571.374000000025,
      "d": 56.54756250000355,
      "v": 112
    },
    {
      "midi": 55,
      "hit": false,
      "t": 54571.37400000006,
      "d": 77.38087500000256,
      "v": 127
    },
    {
      "midi": 52,
      "hit": false,
      "t": 54571.37400000006,
      "d": 98.21418750000157,
      "v": 127
    },
    {
      "midi": 47,
      "hit": false,
      "t": 54714.231000000065,
      "d": 26.785687499999767,
      "v": 127
    },
    {
      "midi": 47,
      "hit": false,
      "t": 54857.08800000003,
      "d": 62.49993749999703,
      "v": 123
    },
    {
      "midi": 35,
      "hit": false,
      "t": 54857.08800000006,
      "d": 101.19037499999831,
      "v": 127
    },
    {
      "midi": 47,
      "hit": false,
      "t": 54999.94500000003,
      "d": 65.47612500000105,
      "v": 109
    },
    {
      "midi": 47,
      "hit": false,
      "t": 54999.94500000006,
      "d": 59.52375000000029,
      "v": 127
    },
    {
      "midi": 47,
      "hit": false,
      "t": 55142.80200000003,
      "d": 68.45231249999779,
      "v": 127
    },
    {
      "midi": 50,
      "hit": false,
      "t": 55142.80200000006,
      "d": 68.45231249999779,
      "v": 127
    },
    {
      "midi": 54,
      "hit": false,
      "t": 55142.80200000006,
      "d": 80.3570624999993,
      "v": 127
    },
    {
      "midi": 47,
      "hit": false,
      "t": 55285.65900000003,
      "d": 23.809500000003027,
      "v": 89
    },
    {
      "midi": 42,
      "hit": false,
      "t": 55428.51600000006,
      "d": 77.38087500000256,
      "v": 127
    },
    {
      "midi": 47,
      "hit": false,
      "t": 55571.373000000065,
      "d": 56.54756250000355,
      "v": 127
    },
    {
      "midi": 50,
      "hit": false,
      "t": 55714.23000000007,
      "d": 65.47612500000105,
      "v": 127
    },
    {
      "midi": 54,
      "hit": false,
      "t": 55714.23000000007,
      "d": 89.28562500000407,
      "v": 127
    },
    {
      "midi": 47,
      "hit": false,
      "t": 55857.08700000007,
      "d": 29.761874999996508,
      "v": 127
    },
    {
      "midi": 35,
      "hit": false,
      "t": 55999.94400000007,
      "d": 122.02368749999732,
      "v": 127
    },
    {
      "midi": 47,
      "hit": false,
      "t": 56142.801000000065,
      "d": 65.47612500000105,
      "v": 127
    },
    {
      "midi": 50,
      "hit": false,
      "t": 56285.65800000007,
      "d": 56.54756250000355,
      "v": 127
    },
    {
      "midi": 54,
      "hit": false,
      "t": 56285.65800000007,
      "d": 80.35706250000658,
      "v": 127
    },
    {
      "midi": 47,
      "hit": false,
      "t": 56428.51500000007,
      "d": 35.714249999997264,
      "v": 127
    },
    {
      "midi": 66,
      "hit": false,
      "t": 56571.37200000003,
      "d": 249.99975000000268,
      "v": 114
    },
    {
      "midi": 59,
      "hit": false,
      "t": 56571.37200000003,
      "d": 255.95212500000343,
      "v": 112
    },
    {
      "midi": 62,
      "hit": false,
      "t": 56571.37200000003,
      "d": 255.95212500000343,
      "v": 109
    },
    {
      "midi": 42,
      "hit": false,
      "t": 56571.37200000007,
      "d": 71.4285000000018,
      "v": 127
    },
    {
      "midi": 47,
      "hit": false,
      "t": 56714.22900000007,
      "d": 56.54756250000355,
      "v": 127
    },
    {
      "midi": 54,
      "hit": false,
      "t": 56857.086000000076,
      "d": 65.47612500000105,
      "v": 127
    },
    {
      "midi": 50,
      "hit": false,
      "t": 56857.086000000076,
      "d": 71.4285000000018,
      "v": 127
    },
    {
      "midi": 47,
      "hit": false,
      "t": 56999.94300000008,
      "d": 56.54756250000355,
      "v": 127
    },
    {
      "midi": 47,
      "hit": false,
      "t": 57142.80000000003,
      "d": 80.3570624999993,
      "v": 127
    },
    {
      "midi": 35,
      "hit": false,
      "t": 57142.80000000008,
      "d": 127.97606249999808,
      "v": 127
    },
    {
      "midi": 47,
      "hit": false,
      "t": 57285.65700000003,
      "d": 71.4285000000018,
      "v": 112
    },
    {
      "midi": 47,
      "hit": false,
      "t": 57285.65700000008,
      "d": 56.54756250000355,
      "v": 127
    },
    {
      "midi": 47,
      "hit": false,
      "t": 57428.51400000003,
      "d": 68.45231249999779,
      "v": 127
    },
    {
      "midi": 50,
      "hit": false,
      "t": 57428.51400000008,
      "d": 47.61899999999878,
      "v": 127
    },
    {
      "midi": 54,
      "hit": false,
      "t": 57428.51400000008,
      "d": 74.40468749999854,
      "v": 127
    },
    {
      "midi": 47,
      "hit": false,
      "t": 57571.37100000003,
      "d": 50.595187500002794,
      "v": 117
    },
    {
      "midi": 47,
      "hit": false,
      "t": 57571.37100000008,
      "d": 50.595187500002794,
      "v": 127
    },
    {
      "midi": 42,
      "hit": false,
      "t": 57714.22800000008,
      "d": 65.47612500000105,
      "v": 127
    },
    {
      "midi": 47,
      "hit": false,
      "t": 57857.08500000009,
      "d": 44.64281250000204,
      "v": 127
    },
    {
      "midi": 50,
      "hit": false,
      "t": 57999.94200000009,
      "d": 35.714249999997264,
      "v": 127
    },
    {
      "midi": 54,
      "hit": false,
      "t": 57999.94200000009,
      "d": 74.40468749999854,
      "v": 127
    },
    {
      "midi": 47,
      "hit": false,
      "t": 58142.79900000009,
      "d": 56.54756250000355,
      "v": 127
    },
    {
      "midi": 35,
      "hit": false,
      "t": 58285.65600000009,
      "d": 133.92843749999884,
      "v": 127
    },
    {
      "midi": 47,
      "hit": false,
      "t": 58428.513000000086,
      "d": 71.4285000000018,
      "v": 127
    },
    {
      "midi": 50,
      "hit": false,
      "t": 58571.37000000009,
      "d": 50.595187500002794,
      "v": 127
    },
    {
      "midi": 54,
      "hit": false,
      "t": 58571.37000000009,
      "d": 71.4285000000018,
      "v": 127
    },
    {
      "midi": 47,
      "hit": false,
      "t": 58714.22700000009,
      "d": 44.64281250000204,
      "v": 127
    },
    {
      "midi": 66,
      "hit": false,
      "t": 58857.08400000003,
      "d": 285.71399999999994,
      "v": 100
    },
    {
      "midi": 59,
      "hit": false,
      "t": 58857.08400000003,
      "d": 288.6901874999967,
      "v": 105
    },
    {
      "midi": 62,
      "hit": false,
      "t": 58857.08400000003,
      "d": 294.64256249999744,
      "v": 97
    },
    {
      "midi": 42,
      "hit": false,
      "t": 58857.0840000001,
      "d": 65.47612500000105,
      "v": 127
    },
    {
      "midi": 47,
      "hit": false,
      "t": 58999.9410000001,
      "d": 59.52375000000029,
      "v": 127
    },
    {
      "midi": 50,
      "hit": false,
      "t": 59142.798000000104,
      "d": 62.49993749999703,
      "v": 127
    },
    {
      "midi": 54,
      "hit": false,
      "t": 59142.798000000104,
      "d": 80.3570624999993,
      "v": 127
    },
    {
      "midi": 47,
      "hit": false,
      "t": 59285.6550000001,
      "d": 83.33325000000332,
      "v": 127
    },
    {
      "midi": 43,
      "hit": false,
      "t": 59428.512000000104,
      "d": 124.99987500000134,
      "v": 127
    },
    {
      "midi": 50,
      "hit": false,
      "t": 59571.36900000011,
      "d": 59.52375000000029,
      "v": 127
    },
    {
      "midi": 43,
      "hit": false,
      "t": 59714.22600000003,
      "d": 71.4285000000018,
      "v": 125
    },
    {
      "midi": 59,
      "hit": false,
      "t": 59714.22600000011,
      "d": 68.45231249999779,
      "v": 127
    },
    {
      "midi": 55,
      "hit": false,
      "t": 59714.22600000011,
      "d": 86.30943750000006,
      "v": 127
    },
    {
      "midi": 43,
      "hit": false,
      "t": 59857.083000000035,
      "d": 71.4285000000018,
      "v": 117
    },
    {
      "midi": 50,
      "hit": false,
      "t": 59857.083000000115,
      "d": 74.40468749999854,
      "v": 127
    },
    {
      "midi": 43,
      "hit": false,
      "t": 59999.94000000004,
      "d": 74.40468749999854,
      "v": 112
    },
    {
      "midi": 43,
      "hit": false,
      "t": 59999.94000000011,
      "d": 98.21418750000157,
      "v": 127
    },
    {
      "midi": 43,
      "hit": false,
      "t": 60142.797000000035,
      "d": 92.26181250000081,
      "v": 99
    },
    {
      "midi": 50,
      "hit": false,
      "t": 60142.797000000115,
      "d": 65.47612500000105,
      "v": 127
    },
    {
      "midi": 43,
      "hit": false,
      "t": 60285.65400000004,
      "d": 92.26181250000081,
      "v": 123
    },
    {
      "midi": 55,
      "hit": false,
      "t": 60285.65400000012,
      "d": 83.33325000000332,
      "v": 127
    },
    {
      "midi": 59,
      "hit": false,
      "t": 60285.65400000012,
      "d": 86.30943750000006,
      "v": 127
    },
    {
      "midi": 43,
      "hit": false,
      "t": 60428.51100000004,
      "d": 86.30943750000006,
      "v": 127
    },
    {
      "midi": 50,
      "hit": false,
      "t": 60428.51100000012,
      "d": 89.2856249999968,
      "v": 127
    },
    {
      "midi": 42,
      "hit": false,
      "t": 60571.36800000012,
      "d": 133.92843749999884,
      "v": 127
    },
    {
      "midi": 49,
      "hit": false,
      "t": 60714.225000000115,
      "d": 80.3570624999993,
      "v": 127
    },
    {
      "midi": 42,
      "hit": false,
      "t": 60857.082000000046,
      "d": 74.40468749999854,
      "v": 127
    },
    {
      "midi": 57,
      "hit": false,
      "t": 60857.08200000011,
      "d": 95.23799999999756,
      "v": 127
    },
    {
      "midi": 54,
      "hit": false,
      "t": 60857.08200000011,
      "d": 101.19037499999831,
      "v": 127
    },
    {
      "midi": 42,
      "hit": false,
      "t": 60999.93900000004,
      "d": 74.40468749999854,
      "v": 118
    },
    {
      "midi": 49,
      "hit": false,
      "t": 60999.93900000011,
      "d": 77.38087500000256,
      "v": 127
    },
    {
      "midi": 42,
      "hit": false,
      "t": 61142.79600000004,
      "d": 77.38087500000256,
      "v": 124
    },
    {
      "midi": 42,
      "hit": false,
      "t": 61142.79600000011,
      "d": 110.11893750000309,
      "v": 127
    },
    {
      "midi": 42,
      "hit": false,
      "t": 61285.65300000004,
      "d": 74.40468749999854,
      "v": 118
    },
    {
      "midi": 49,
      "hit": false,
      "t": 61285.653000000115,
      "d": 77.38087500000256,
      "v": 127
    },
    {
      "midi": 42,
      "hit": false,
      "t": 61428.51000000004,
      "d": 71.4285000000018,
      "v": 121
    },
    {
      "midi": 57,
      "hit": false,
      "t": 61428.51000000012,
      "d": 101.19037499999831,
      "v": 127
    },
    {
      "midi": 54,
      "hit": false,
      "t": 61428.51000000012,
      "d": 110.11893749999581,
      "v": 127
    },
    {
      "midi": 42,
      "hit": false,
      "t": 61571.36700000004,
      "d": 77.38087500000256,
      "v": 127
    },
    {
      "midi": 49,
      "hit": false,
      "t": 61571.367000000115,
      "d": 77.38087500000256,
      "v": 127
    },
    {
      "midi": 40,
      "hit": false,
      "t": 61714.22400000012,
      "d": 133.92843749999884,
      "v": 127
    },
    {
      "midi": 47,
      "hit": false,
      "t": 61857.081000000115,
      "d": 56.54756250000355,
      "v": 127
    },
    {
      "midi": 40,
      "hit": false,
      "t": 61999.938000000046,
      "d": 77.38087500000256,
      "v": 115
    },
    {
      "midi": 55,
      "hit": false,
      "t": 61999.93800000012,
      "d": 53.571374999999534,
      "v": 127
    },
    {
      "midi": 52,
      "hit": false,
      "t": 61999.93800000012,
      "d": 71.4285000000018,
      "v": 127
    },
    {
      "midi": 40,
      "hit": false,
      "t": 62142.79500000005,
      "d": 92.26181250000081,
      "v": 112
    },
    {
      "midi": 47,
      "hit": false,
      "t": 62142.79500000012,
      "d": 56.54756250000355,
      "v": 127
    },
    {
      "midi": 40,
      "hit": false,
      "t": 62285.65200000005,
      "d": 77.38087500000256,
      "v": 109
    },
    {
      "midi": 40,
      "hit": false,
      "t": 62285.652000000126,
      "d": 104.16656250000233,
      "v": 127
    },
    {
      "midi": 40,
      "hit": false,
      "t": 62428.50900000006,
      "d": 92.26181250000081,
      "v": 109
    },
    {
      "midi": 47,
      "hit": false,
      "t": 62428.50900000013,
      "d": 35.714249999997264,
      "v": 127
    },
    {
      "midi": 40,
      "hit": false,
      "t": 62571.36600000006,
      "d": 86.30943750000006,
      "v": 117
    },
    {
      "midi": 55,
      "hit": false,
      "t": 62571.366000000125,
      "d": 50.595187500002794,
      "v": 127
    },
    {
      "midi": 52,
      "hit": false,
      "t": 62571.366000000125,
      "d": 65.47612500000105,
      "v": 127
    },
    {
      "midi": 40,
      "hit": false,
      "t": 62714.22300000006,
      "d": 101.19037499999831,
      "v": 127
    },
    {
      "midi": 47,
      "hit": false,
      "t": 62714.22300000013,
      "d": 65.47612500000105,
      "v": 127
    },
    {
      "midi": 40,
      "hit": false,
      "t": 62857.08000000013,
      "d": 122.02368749999732,
      "v": 127
    },
    {
      "midi": 47,
      "hit": false,
      "t": 62999.93700000013,
      "d": 59.52375000000029,
      "v": 127
    },
    {
      "midi": 40,
      "hit": false,
      "t": 63142.79400000006,
      "d": 83.33325000000332,
      "v": 123
    },
    {
      "midi": 55,
      "hit": false,
      "t": 63142.79400000013,
      "d": 50.595187500002794,
      "v": 127
    },
    {
      "midi": 52,
      "hit": false,
      "t": 63142.79400000013,
      "d": 56.54756250000355,
      "v": 127
    },
    {
      "midi": 40,
      "hit": false,
      "t": 63285.65100000006,
      "d": 86.30943750000006,
      "v": 115
    },
    {
      "midi": 47,
      "hit": false,
      "t": 63285.651000000136,
      "d": 68.45231249999779,
      "v": 127
    },
    {
      "midi": 40,
      "hit": false,
      "t": 63428.50800000007,
      "d": 77.38087500000256,
      "v": 115
    },
    {
      "midi": 40,
      "hit": false,
      "t": 63428.50800000013,
      "d": 113.09512499999983,
      "v": 127
    },
    {
      "midi": 40,
      "hit": false,
      "t": 63571.36500000007,
      "d": 83.33325000000332,
      "v": 115
    },
    {
      "midi": 47,
      "hit": false,
      "t": 63571.36500000013,
      "d": 71.4285000000018,
      "v": 127
    },
    {
      "midi": 40,
      "hit": false,
      "t": 63714.222000000074,
      "d": 77.38087500000256,
      "v": 120
    },
    {
      "midi": 55,
      "hit": false,
      "t": 63714.22200000013,
      "d": 71.4285000000018,
      "v": 127
    },
    {
      "midi": 52,
      "hit": false,
      "t": 63714.22200000013,
      "d": 83.33325000000332,
      "v": 127
    },
    {
      "midi": 40,
      "hit": false,
      "t": 63857.07900000008,
      "d": 71.4285000000018,
      "v": 127
    },
    {
      "midi": 47,
      "hit": false,
      "t": 63857.079000000136,
      "d": 50.595187500002794,
      "v": 127
    },
    {
      "midi": 47,
      "hit": false,
      "t": 63999.93600000008,
      "d": 62.49993749999703,
      "v": 123
    },
    {
      "midi": 35,
      "hit": false,
      "t": 63999.93600000014,
      "d": 101.19037499999831,
      "v": 127
    },
    {
      "midi": 47,
      "hit": false,
      "t": 64142.79300000008,
      "d": 65.47612500000105,
      "v": 109
    },
    {
      "midi": 47,
      "hit": false,
      "t": 64142.793000000136,
      "d": 59.52375000000029,
      "v": 127
    },
    {
      "midi": 47,
      "hit": false,
      "t": 64285.65000000008,
      "d": 68.45231249999779,
      "v": 127
    },
    {
      "midi": 50,
      "hit": false,
      "t": 64285.65000000014,
      "d": 68.45231249999779,
      "v": 127
    },
    {
      "midi": 54,
      "hit": false,
      "t": 64285.65000000014,
      "d": 80.3570624999993,
      "v": 127
    },
    {
      "midi": 47,
      "hit": false,
      "t": 64428.50700000008,
      "d": 23.809500000003027,
      "v": 89
    },
    {
      "midi": 42,
      "hit": false,
      "t": 64571.36400000014,
      "d": 77.38087500000256,
      "v": 127
    },
    {
      "midi": 47,
      "hit": false,
      "t": 64714.22100000014,
      "d": 56.54756250000355,
      "v": 127
    },
    {
      "midi": 50,
      "hit": false,
      "t": 64857.07800000015,
      "d": 65.47612500000105,
      "v": 127
    },
    {
      "midi": 54,
      "hit": false,
      "t": 64857.07800000015,
      "d": 89.28562500000407,
      "v": 127
    },
    {
      "midi": 47,
      "hit": false,
      "t": 64999.93500000015,
      "d": 29.761874999996508,
      "v": 127
    },
    {
      "midi": 35,
      "hit": false,
      "t": 65142.79200000015,
      "d": 122.02368749999732,
      "v": 127
    },
    {
      "midi": 47,
      "hit": false,
      "t": 65285.64900000014,
      "d": 65.47612500000105,
      "v": 127
    },
    {
      "midi": 50,
      "hit": false,
      "t": 65428.50600000015,
      "d": 56.54756250000355,
      "v": 127
    },
    {
      "midi": 54,
      "hit": false,
      "t": 65428.50600000015,
      "d": 80.35706250000658,
      "v": 127
    },
    {
      "midi": 47,
      "hit": false,
      "t": 65571.36300000016,
      "d": 35.71425000000454,
      "v": 127
    },
    {
      "midi": 66,
      "hit": false,
      "t": 65714.22000000007,
      "d": 249.99975000000268,
      "v": 114
    },
    {
      "midi": 59,
      "hit": false,
      "t": 65714.22000000007,
      "d": 255.95212499999616,
      "v": 112
    },
    {
      "midi": 62,
      "hit": false,
      "t": 65714.22000000007,
      "d": 255.95212499999616,
      "v": 109
    },
    {
      "midi": 42,
      "hit": false,
      "t": 65714.22000000016,
      "d": 71.42849999999453,
      "v": 127
    },
    {
      "midi": 47,
      "hit": false,
      "t": 65857.07700000015,
      "d": 56.547562499996275,
      "v": 127
    },
    {
      "midi": 54,
      "hit": false,
      "t": 65999.93400000014,
      "d": 65.47612500000105,
      "v": 127
    },
    {
      "midi": 50,
      "hit": false,
      "t": 65999.93400000014,
      "d": 71.42849999999453,
      "v": 127
    },
    {
      "midi": 47,
      "hit": false,
      "t": 66142.79100000013,
      "d": 56.547562499996275,
      "v": 127
    },
    {
      "midi": 47,
      "hit": false,
      "t": 66285.64800000007,
      "d": 80.3570624999993,
      "v": 127
    },
    {
      "midi": 35,
      "hit": false,
      "t": 66285.64800000012,
      "d": 127.97606250000536,
      "v": 127
    },
    {
      "midi": 47,
      "hit": false,
      "t": 66428.50500000008,
      "d": 71.42849999999453,
      "v": 112
    },
    {
      "midi": 47,
      "hit": false,
      "t": 66428.50500000012,
      "d": 56.547562499996275,
      "v": 127
    },
    {
      "midi": 47,
      "hit": false,
      "t": 66571.36200000007,
      "d": 68.45231249999779,
      "v": 127
    },
    {
      "midi": 50,
      "hit": false,
      "t": 66571.36200000011,
      "d": 47.619000000006054,
      "v": 127
    },
    {
      "midi": 54,
      "hit": false,
      "t": 66571.36200000011,
      "d": 74.40468750000582,
      "v": 127
    },
    {
      "midi": 47,
      "hit": false,
      "t": 66714.21900000007,
      "d": 50.595187500002794,
      "v": 117
    },
    {
      "midi": 47,
      "hit": false,
      "t": 66714.21900000011,
      "d": 50.595187500002794,
      "v": 127
    },
    {
      "midi": 42,
      "hit": false,
      "t": 66857.07600000012,
      "d": 65.47612500000105,
      "v": 127
    },
    {
      "midi": 47,
      "hit": false,
      "t": 66999.93300000012,
      "d": 44.64281249999476,
      "v": 127
    },
    {
      "midi": 50,
      "hit": false,
      "t": 67142.79000000011,
      "d": 35.71425000000454,
      "v": 127
    },
    {
      "midi": 54,
      "hit": false,
      "t": 67142.79000000011,
      "d": 74.40468750000582,
      "v": 127
    },
    {
      "midi": 47,
      "hit": false,
      "t": 67285.64700000011,
      "d": 56.547562499996275,
      "v": 127
    },
    {
      "midi": 35,
      "hit": false,
      "t": 67428.5040000001,
      "d": 133.92843749999884,
      "v": 127
    },
    {
      "midi": 47,
      "hit": false,
      "t": 67571.3610000001,
      "d": 71.42849999999453,
      "v": 127
    },
    {
      "midi": 50,
      "hit": false,
      "t": 67714.2180000001,
      "d": 50.595187500002794,
      "v": 127
    },
    {
      "midi": 54,
      "hit": false,
      "t": 67714.2180000001,
      "d": 71.42850000000908,
      "v": 127
    },
    {
      "midi": 47,
      "hit": false,
      "t": 67857.0750000001,
      "d": 44.64281249999476,
      "v": 127
    },
    {
      "midi": 66,
      "hit": false,
      "t": 67999.93200000007,
      "d": 285.7140000000072,
      "v": 100
    },
    {
      "midi": 59,
      "hit": false,
      "t": 67999.93200000007,
      "d": 288.69018750000396,
      "v": 105
    },
    {
      "midi": 62,
      "hit": false,
      "t": 67999.93200000007,
      "d": 294.64256249999744,
      "v": 97
    },
    {
      "midi": 42,
      "hit": false,
      "t": 67999.93200000009,
      "d": 65.47612500000105,
      "v": 127
    },
    {
      "midi": 47,
      "hit": false,
      "t": 68142.78900000009,
      "d": 59.523749999993015,
      "v": 127
    },
    {
      "midi": 50,
      "hit": false,
      "t": 68285.64600000008,
      "d": 62.49993750000431,
      "v": 127
    },
    {
      "midi": 54,
      "hit": false,
      "t": 68285.64600000008,
      "d": 80.3570624999993,
      "v": 127
    },
    {
      "midi": 47,
      "hit": false,
      "t": 68428.50300000008,
      "d": 83.33324999999604,
      "v": 127
    },
    {
      "midi": 43,
      "hit": false,
      "t": 68571.36000000007,
      "d": 124.99987499999406,
      "v": 127
    },
    {
      "midi": 50,
      "hit": false,
      "t": 68714.21700000006,
      "d": 59.523749999993015,
      "v": 127
    },
    {
      "midi": 59,
      "hit": false,
      "t": 68857.07400000005,
      "d": 68.45231249999779,
      "v": 127
    },
    {
      "midi": 55,
      "hit": false,
      "t": 68857.07400000005,
      "d": 86.30943749999278,
      "v": 127
    },
    {
      "midi": 43,
      "hit": false,
      "t": 68857.07400000007,
      "d": 71.42849999999453,
      "v": 125
    },
    {
      "midi": 50,
      "hit": false,
      "t": 68999.93100000004,
      "d": 74.40468750000582,
      "v": 127
    },
    {
      "midi": 43,
      "hit": false,
      "t": 68999.93100000006,
      "d": 71.42849999999453,
      "v": 117
    },
    {
      "midi": 43,
      "hit": false,
      "t": 69142.78800000004,
      "d": 74.40468750000582,
      "v": 112
    },
    {
      "midi": 43,
      "hit": false,
      "t": 69142.78800000004,
      "d": 98.2141874999943,
      "v": 127
    },
    {
      "midi": 50,
      "hit": false,
      "t": 69285.64500000003,
      "d": 65.47612500000105,
      "v": 127
    },
    {
      "midi": 43,
      "hit": false,
      "t": 69285.64500000005,
      "d": 92.26181250000081,
      "v": 99
    },
    {
      "midi": 55,
      "hit": false,
      "t": 69428.50200000004,
      "d": 83.33324999999604,
      "v": 127
    },
    {
      "midi": 59,
      "hit": false,
      "t": 69428.50200000004,
      "d": 86.30943749999278,
      "v": 127
    },
    {
      "midi": 43,
      "hit": false,
      "t": 69428.50200000005,
      "d": 92.26181250000081,
      "v": 123
    },
    {
      "midi": 50,
      "hit": false,
      "t": 69571.35900000003,
      "d": 89.28562500000407,
      "v": 127
    },
    {
      "midi": 43,
      "hit": false,
      "t": 69571.35900000005,
      "d": 86.30943749999278,
      "v": 127
    },
    {
      "midi": 42,
      "hit": false,
      "t": 69714.21600000003,
      "d": 133.92843749999884,
      "v": 127
    },
    {
      "midi": 49,
      "hit": false,
      "t": 69857.07300000003,
      "d": 80.3570624999993,
      "v": 127
    },
    {
      "midi": 57,
      "hit": false,
      "t": 69999.93000000004,
      "d": 95.23799999999756,
      "v": 127
    },
    {
      "midi": 54,
      "hit": false,
      "t": 69999.93000000004,
      "d": 101.19037499999104,
      "v": 127
    },
    {
      "midi": 42,
      "hit": false,
      "t": 69999.93000000005,
      "d": 74.40468750000582,
      "v": 127
    },
    {
      "midi": 49,
      "hit": false,
      "t": 70142.78700000003,
      "d": 77.38087500000256,
      "v": 127
    },
    {
      "midi": 42,
      "hit": false,
      "t": 70142.78700000005,
      "d": 74.40468750000582,
      "v": 118
    },
    {
      "midi": 42,
      "hit": false,
      "t": 70285.64400000003,
      "d": 110.11893749999581,
      "v": 127
    },
    {
      "midi": 42,
      "hit": false,
      "t": 70285.64400000006,
      "d": 77.38087500000256,
      "v": 124
    },
    {
      "midi": 49,
      "hit": false,
      "t": 70428.50100000002,
      "d": 77.38087500000256,
      "v": 127
    },
    {
      "midi": 42,
      "hit": false,
      "t": 70428.50100000006,
      "d": 74.40468750000582,
      "v": 118
    },
    {
      "midi": 57,
      "hit": false,
      "t": 70571.35800000002,
      "d": 101.19037500000559,
      "v": 127
    },
    {
      "midi": 54,
      "hit": false,
      "t": 70571.35800000002,
      "d": 110.11893750001036,
      "v": 127
    },
    {
      "midi": 42,
      "hit": false,
      "t": 70571.35800000007,
      "d": 71.42849999999453,
      "v": 121
    },
    {
      "midi": 49,
      "hit": false,
      "t": 70714.21500000003,
      "d": 77.38087500000256,
      "v": 127
    },
    {
      "midi": 42,
      "hit": false,
      "t": 70714.21500000005,
      "d": 77.38087500000256,
      "v": 127
    },
    {
      "midi": 33,
      "hit": false,
      "t": 70857.07200000003,
      "d": 124.99987499999406,
      "v": 127
    },
    {
      "midi": 33,
      "hit": false,
      "t": 70857.07200000006,
      "d": 50.595187500002794,
      "v": 105
    },
    {
      "midi": 45,
      "hit": false,
      "t": 70999.92900000002,
      "d": 80.3570624999993,
      "v": 127
    },
    {
      "midi": 33,
      "hit": false,
      "t": 70999.92900000006,
      "d": 50.595187500002794,
      "v": 95
    },
    {
      "midi": 52,
      "hit": false,
      "t": 71142.78600000002,
      "d": 101.19037500000559,
      "v": 127
    },
    {
      "midi": 49,
      "hit": false,
      "t": 71142.78600000002,
      "d": 107.14274999999907,
      "v": 127
    },
    {
      "midi": 33,
      "hit": false,
      "t": 71142.78600000007,
      "d": 56.547562499996275,
      "v": 97
    },
    {
      "midi": 45,
      "hit": false,
      "t": 71285.64300000003,
      "d": 86.30943749999278,
      "v": 127
    },
    {
      "midi": 33,
      "hit": false,
      "t": 71285.64300000005,
      "d": 44.64281249999476,
      "v": 91
    },
    {
      "midi": 40,
      "hit": false,
      "t": 71428.50000000001,
      "d": 83.33324999999604,
      "v": 127
    },
    {
      "midi": 33,
      "hit": false,
      "t": 71428.50000000004,
      "d": 65.47612500000105,
      "v": 117
    },
    {
      "midi": 45,
      "hit": false,
      "t": 71571.357,
      "d": 77.38087500000256,
      "v": 127
    },
    {
      "midi": 33,
      "hit": false,
      "t": 71571.35700000005,
      "d": 56.547562499996275,
      "v": 91
    },
    {
      "midi": 52,
      "hit": false,
      "t": 71714.214,
      "d": 80.3570624999993,
      "v": 127
    },
    {
      "midi": 49,
      "hit": false,
      "t": 71714.214,
      "d": 98.2141874999943,
      "v": 127
    },
    {
      "midi": 33,
      "hit": false,
      "t": 71714.21400000004,
      "d": 59.523749999993015,
      "v": 103
    },
    {
      "midi": 45,
      "hit": false,
      "t": 71857.071,
      "d": 80.3570624999993,
      "v": 127
    },
    {
      "midi": 33,
      "hit": false,
      "t": 71857.07100000003,
      "d": 44.64281249999476,
      "v": 92
    },
    {
      "midi": 33,
      "hit": false,
      "t": 71999.928,
      "d": 130.9522500000021,
      "v": 127
    },
    {
      "midi": 33,
      "hit": false,
      "t": 71999.92800000001,
      "d": 62.49993750000431,
      "v": 83
    },
    {
      "midi": 45,
      "hit": false,
      "t": 72142.785,
      "d": 83.33324999999604,
      "v": 127
    },
    {
      "midi": 33,
      "hit": false,
      "t": 72142.78500000002,
      "d": 47.619000000006054,
      "v": 91
    },
    {
      "midi": 52,
      "hit": false,
      "t": 72285.64199999999,
      "d": 65.47612500000105,
      "v": 127
    },
    {
      "midi": 49,
      "hit": false,
      "t": 72285.64199999999,
      "d": 71.42849999999453,
      "v": 127
    },
    {
      "midi": 33,
      "hit": false,
      "t": 72285.64200000002,
      "d": 68.45231249999779,
      "v": 115
    },
    {
      "midi": 45,
      "hit": false,
      "t": 72428.49899999998,
      "d": 68.45231249999779,
      "v": 127
    },
    {
      "midi": 33,
      "hit": false,
      "t": 72428.49900000003,
      "d": 71.42849999999453,
      "v": 120
    },
    {
      "midi": 40,
      "hit": false,
      "t": 72571.35599999999,
      "d": 71.42849999999453,
      "v": 127
    },
    {
      "midi": 33,
      "hit": false,
      "t": 72571.35600000001,
      "d": 68.45231249999779,
      "v": 112
    },
    {
      "midi": 45,
      "hit": false,
      "t": 72714.21299999997,
      "d": 74.40468750000582,
      "v": 127
    },
    {
      "midi": 33,
      "hit": false,
      "t": 72714.21300000002,
      "d": 59.523749999993015,
      "v": 109
    },
    {
      "midi": 52,
      "hit": false,
      "t": 72857.06999999998,
      "d": 53.571374999999534,
      "v": 127
    },
    {
      "midi": 49,
      "hit": false,
      "t": 72857.06999999998,
      "d": 65.47612500000105,
      "v": 127
    },
    {
      "midi": 33,
      "hit": false,
      "t": 72857.07,
      "d": 74.40468750000582,
      "v": 117
    },
    {
      "midi": 45,
      "hit": false,
      "t": 72999.92699999998,
      "d": 56.547562499996275,
      "v": 127
    },
    {
      "midi": 33,
      "hit": false,
      "t": 72999.92700000001,
      "d": 56.547562499996275,
      "v": 127
    },
    {
      "midi": 38,
      "hit": false,
      "t": 73142.78399999997,
      "d": 291.6663750000007,
      "v": 127
    },
    {
      "midi": 71,
      "hit": false,
      "t": 73142.784,
      "d": 288.69018750000396,
      "v": 120
    },
    {
      "midi": 66,
      "hit": false,
      "t": 73142.784,
      "d": 297.61875000000873,
      "v": 124
    },
    {
      "midi": 54,
      "hit": false,
      "t": 73428.49799999998,
      "d": 71.42849999999453,
      "v": 127
    },
    {
      "midi": 50,
      "hit": false,
      "t": 73428.49799999998,
      "d": 107.14274999999907,
      "v": 127
    },
    {
      "midi": 45,
      "hit": false,
      "t": 73571.35499999998,
      "d": 77.38087500000256,
      "v": 127
    },
    {
      "midi": 66,
      "hit": false,
      "t": 73571.35500000001,
      "d": 95.23799999999756,
      "v": 121
    },
    {
      "midi": 69,
      "hit": false,
      "t": 73571.35500000001,
      "d": 95.23799999999756,
      "v": 112
    },
    {
      "midi": 42,
      "hit": false,
      "t": 73714.21199999998,
      "d": 142.8570000000036,
      "v": 127
    },
    {
      "midi": 45,
      "hit": false,
      "t": 73857.06899999999,
      "d": 92.26181250000081,
      "v": 127
    },
    {
      "midi": 64,
      "hit": false,
      "t": 73857.069,
      "d": 56.547562499996275,
      "v": 103
    },
    {
      "midi": 67,
      "hit": false,
      "t": 73857.069,
      "d": 68.45231249999779,
      "v": 105
    },
    {
      "midi": 50,
      "hit": false,
      "t": 73999.92599999999,
      "d": 95.23799999999756,
      "v": 127
    },
    {
      "midi": 54,
      "hit": false,
      "t": 73999.92599999999,
      "d": 101.19037499999104,
      "v": 127
    },
    {
      "midi": 62,
      "hit": false,
      "t": 73999.926,
      "d": 110.11893749999581,
      "v": 94
    },
    {
      "midi": 66,
      "hit": false,
      "t": 73999.926,
      "d": 116.07131249998929,
      "v": 118
    },
    {
      "midi": 45,
      "hit": false,
      "t": 74142.78299999998,
      "d": 74.40468750000582,
      "v": 127
    },
    {
      "midi": 38,
      "hit": false,
      "t": 74285.63999999998,
      "d": 306.5473125000135,
      "v": 127
    },
    {
      "midi": 50,
      "hit": false,
      "t": 74571.35399999999,
      "d": 74.40468750000582,
      "v": 127
    },
    {
      "midi": 54,
      "hit": false,
      "t": 74571.35399999999,
      "d": 80.3570624999993,
      "v": 127
    },
    {
      "midi": 45,
      "hit": false,
      "t": 74714.211,
      "d": 89.28562500000407,
      "v": 127
    },
    {
      "midi": 42,
      "hit": false,
      "t": 74857.068,
      "d": 157.73793750000186,
      "v": 127
    },
    {
      "midi": 45,
      "hit": false,
      "t": 74999.925,
      "d": 89.28562500000407,
      "v": 127
    },
    {
      "midi": 50,
      "hit": false,
      "t": 75142.782,
      "d": 101.19037500000559,
      "v": 127
    },
    {
      "midi": 54,
      "hit": false,
      "t": 75142.782,
      "d": 101.19037500000559,
      "v": 127
    },
    {
      "midi": 45,
      "hit": false,
      "t": 75285.63900000001,
      "d": 89.28562500000407,
      "v": 127
    },
    {
      "midi": 35,
      "hit": false,
      "t": 75428.49600000001,
      "d": 276.78543750000244,
      "v": 127
    },
    {
      "midi": 66,
      "hit": false,
      "t": 75714.20999999999,
      "d": 38.69043750000128,
      "v": 107
    },
    {
      "midi": 62,
      "hit": false,
      "t": 75714.20999999999,
      "d": 50.595187500002794,
      "v": 92
    },
    {
      "midi": 71,
      "hit": false,
      "t": 75714.20999999999,
      "d": 50.595187500002794,
      "v": 109
    },
    {
      "midi": 54,
      "hit": false,
      "t": 75714.21000000002,
      "d": 86.30943749999278,
      "v": 127
    },
    {
      "midi": 50,
      "hit": false,
      "t": 75714.21000000002,
      "d": 95.23799999999756,
      "v": 127
    },
    {
      "midi": 47,
      "hit": false,
      "t": 75857.06700000002,
      "d": 77.38087500000256,
      "v": 127
    },
    {
      "midi": 42,
      "hit": false,
      "t": 75999.92400000003,
      "d": 148.8093749999971,
      "v": 127
    },
    {
      "midi": 47,
      "hit": false,
      "t": 76142.78100000003,
      "d": 83.33324999999604,
      "v": 127
    },
    {
      "midi": 71,
      "hit": false,
      "t": 76285.63799999999,
      "d": 35.71425000000454,
      "v": 89
    },
    {
      "midi": 66,
      "hit": false,
      "t": 76285.63799999999,
      "d": 47.619000000006054,
      "v": 97
    },
    {
      "midi": 62,
      "hit": false,
      "t": 76285.63799999999,
      "d": 53.571374999999534,
      "v": 86
    },
    {
      "midi": 50,
      "hit": false,
      "t": 76285.63800000002,
      "d": 98.2141874999943,
      "v": 127
    },
    {
      "midi": 54,
      "hit": false,
      "t": 76285.63800000002,
      "d": 101.19037499999104,
      "v": 127
    },
    {
      "midi": 47,
      "hit": false,
      "t": 76428.49500000001,
      "d": 80.3570624999993,
      "v": 127
    },
    {
      "midi": 35,
      "hit": false,
      "t": 76571.35200000001,
      "d": 270.8330624999944,
      "v": 127
    },
    {
      "midi": 66,
      "hit": false,
      "t": 76857.06599999999,
      "d": 29.761874999996508,
      "v": 58
    },
    {
      "midi": 54,
      "hit": false,
      "t": 76857.066,
      "d": 80.3570624999993,
      "v": 127
    },
    {
      "midi": 50,
      "hit": false,
      "t": 76857.066,
      "d": 86.30943749999278,
      "v": 127
    },
    {
      "midi": 47,
      "hit": false,
      "t": 76999.923,
      "d": 74.40468750000582,
      "v": 127
    },
    {
      "midi": 42,
      "hit": false,
      "t": 77142.78,
      "d": 119.04750000000058,
      "v": 127
    },
    {
      "midi": 47,
      "hit": false,
      "t": 77285.637,
      "d": 83.33324999999604,
      "v": 127
    },
    {
      "midi": 62,
      "hit": false,
      "t": 77428.49399999999,
      "d": 29.761874999996508,
      "v": 80
    },
    {
      "midi": 66,
      "hit": false,
      "t": 77428.49399999999,
      "d": 32.73806249999325,
      "v": 87
    },
    {
      "midi": 50,
      "hit": false,
      "t": 77428.49399999999,
      "d": 95.23799999999756,
      "v": 127
    },
    {
      "midi": 54,
      "hit": false,
      "t": 77428.49399999999,
      "d": 104.16656250000233,
      "v": 127
    },
    {
      "midi": 47,
      "hit": false,
      "t": 77571.351,
      "d": 68.45231249999779,
      "v": 127
    },
    {
      "midi": 55,
      "hit": false,
      "t": 77714.20799999998,
      "d": 351.1901249999937,
      "v": 125
    },
    {
      "midi": 31,
      "hit": false,
      "t": 77714.208,
      "d": 303.5711250000022,
      "v": 127
    },
    {
      "midi": 55,
      "hit": false,
      "t": 77999.922,
      "d": 83.33324999999604,
      "v": 127
    },
    {
      "midi": 50,
      "hit": false,
      "t": 77999.922,
      "d": 107.14274999999907,
      "v": 127
    },
    {
      "midi": 59,
      "hit": false,
      "t": 78142.77899999998,
      "d": 139.88081250000687,
      "v": 127
    },
    {
      "midi": 47,
      "hit": false,
      "t": 78142.77900000001,
      "d": 74.40468750000582,
      "v": 127
    },
    {
      "midi": 38,
      "hit": false,
      "t": 78285.63600000001,
      "d": 136.90462499999558,
      "v": 127
    },
    {
      "midi": 62,
      "hit": false,
      "t": 78428.49299999999,
      "d": 50.595187500002794,
      "v": 115
    },
    {
      "midi": 47,
      "hit": false,
      "t": 78428.493,
      "d": 77.38087500000256,
      "v": 127
    },
    {
      "midi": 62,
      "hit": false,
      "t": 78571.34999999999,
      "d": 53.571374999999534,
      "v": 127
    },
    {
      "midi": 55,
      "hit": false,
      "t": 78571.35,
      "d": 98.2141874999943,
      "v": 127
    },
    {
      "midi": 50,
      "hit": false,
      "t": 78571.35,
      "d": 101.19037499999104,
      "v": 127
    },
    {
      "midi": 47,
      "hit": false,
      "t": 78714.207,
      "d": 74.40468750000582,
      "v": 127
    },
    {
      "midi": 31,
      "hit": false,
      "t": 78857.064,
      "d": 300.59493750000547,
      "v": 127
    },
    {
      "midi": 62,
      "hit": false,
      "t": 79142.77799999999,
      "d": 44.64281249999476,
      "v": 112
    },
    {
      "midi": 59,
      "hit": false,
      "t": 79142.77799999999,
      "d": 47.6189999999915,
      "v": 115
    },
    {
      "midi": 67,
      "hit": false,
      "t": 79142.77799999999,
      "d": 50.59518749998824,
      "v": 103
    },
    {
      "midi": 55,
      "hit": false,
      "t": 79142.778,
      "d": 89.28562500000407,
      "v": 127
    },
    {
      "midi": 50,
      "hit": false,
      "t": 79142.778,
      "d": 107.14274999999907,
      "v": 127
    },
    {
      "midi": 47,
      "hit": false,
      "t": 79285.63500000001,
      "d": 74.40468750000582,
      "v": 127
    },
    {
      "midi": 38,
      "hit": false,
      "t": 79428.49200000001,
      "d": 160.7141249999986,
      "v": 127
    },
    {
      "midi": 47,
      "hit": false,
      "t": 79571.34900000002,
      "d": 86.30943749999278,
      "v": 127
    },
    {
      "midi": 62,
      "hit": false,
      "t": 79714.20599999998,
      "d": 53.571374999999534,
      "v": 109
    },
    {
      "midi": 59,
      "hit": false,
      "t": 79714.20599999998,
      "d": 62.49993750000431,
      "v": 107
    },
    {
      "midi": 67,
      "hit": false,
      "t": 79714.20599999998,
      "d": 68.45231249999779,
      "v": 99
    },
    {
      "midi": 50,
      "hit": false,
      "t": 79714.206,
      "d": 98.2141874999943,
      "v": 127
    },
    {
      "midi": 55,
      "hit": false,
      "t": 79714.206,
      "d": 101.19037499999104,
      "v": 127
    },
    {
      "midi": 47,
      "hit": false,
      "t": 79857.063,
      "d": 83.33324999999604,
      "v": 127
    },
    {
      "midi": 38,
      "hit": false,
      "t": 79999.91999999998,
      "d": 291.6663750000007,
      "v": 127
    },
    {
      "midi": 62,
      "hit": false,
      "t": 80285.63399999998,
      "d": 41.66662499999802,
      "v": 88
    },
    {
      "midi": 57,
      "hit": false,
      "t": 80285.63399999998,
      "d": 47.6189999999915,
      "v": 88
    },
    {
      "midi": 66,
      "hit": false,
      "t": 80285.63399999998,
      "d": 56.547562499996275,
      "v": 89
    },
    {
      "midi": 54,
      "hit": false,
      "t": 80285.63399999999,
      "d": 71.42849999999453,
      "v": 127
    },
    {
      "midi": 50,
      "hit": false,
      "t": 80285.63399999999,
      "d": 77.38087499998801,
      "v": 127
    },
    {
      "midi": 45,
      "hit": false,
      "t": 80428.49099999998,
      "d": 80.3570624999993,
      "v": 127
    },
    {
      "midi": 33,
      "hit": false,
      "t": 80571.34799999998,
      "d": 163.6903125000099,
      "v": 127
    },
    {
      "midi": 45,
      "hit": false,
      "t": 80714.20499999999,
      "d": 89.28562500000407,
      "v": 127
    },
    {
      "midi": 57,
      "hit": false,
      "t": 80857.06199999998,
      "d": 44.64281249999476,
      "v": 99
    },
    {
      "midi": 62,
      "hit": false,
      "t": 80857.06199999998,
      "d": 44.64281249999476,
      "v": 101
    },
    {
      "midi": 66,
      "hit": false,
      "t": 80857.06199999998,
      "d": 56.547562499996275,
      "v": 104
    },
    {
      "midi": 54,
      "hit": false,
      "t": 80857.06199999999,
      "d": 83.33324999999604,
      "v": 127
    },
    {
      "midi": 50,
      "hit": false,
      "t": 80857.06199999999,
      "d": 98.2141874999943,
      "v": 127
    },
    {
      "midi": 45,
      "hit": false,
      "t": 80999.91899999998,
      "d": 74.40468750000582,
      "v": 127
    },
    {
      "midi": 38,
      "hit": false,
      "t": 81142.77599999998,
      "d": 247.02356250000594,
      "v": 127
    },
    {
      "midi": 54,
      "hit": false,
      "t": 81428.48999999999,
      "d": 77.38087500000256,
      "v": 127
    },
    {
      "midi": 50,
      "hit": false,
      "t": 81428.48999999999,
      "d": 89.28562500000407,
      "v": 127
    },
    {
      "midi": 45,
      "hit": false,
      "t": 81571.347,
      "d": 86.30943749999278,
      "v": 127
    },
    {
      "midi": 42,
      "hit": false,
      "t": 81714.20399999998,
      "d": 124.99987499999406,
      "v": 127
    },
    {
      "midi": 45,
      "hit": false,
      "t": 81857.06099999997,
      "d": 92.26181250000081,
      "v": 127
    },
    {
      "midi": 54,
      "hit": false,
      "t": 81999.91799999998,
      "d": 89.28562500000407,
      "v": 127
    },
    {
      "midi": 50,
      "hit": false,
      "t": 81999.91799999998,
      "d": 95.23799999999756,
      "v": 127
    },
    {
      "midi": 45,
      "hit": false,
      "t": 82142.77499999998,
      "d": 47.619000000006054,
      "v": 127
    },
    {
      "midi": 71,
      "hit": false,
      "t": 82285.63199999997,
      "d": 288.69018750000396,
      "v": 120
    },
    {
      "midi": 66,
      "hit": false,
      "t": 82285.63199999997,
      "d": 297.61875000000873,
      "v": 124
    },
    {
      "midi": 38,
      "hit": false,
      "t": 82285.63199999998,
      "d": 291.6663750000007,
      "v": 127
    },
    {
      "midi": 54,
      "hit": false,
      "t": 82571.34599999999,
      "d": 71.42849999999453,
      "v": 127
    },
    {
      "midi": 50,
      "hit": false,
      "t": 82571.34599999999,
      "d": 107.14274999999907,
      "v": 127
    },
    {
      "midi": 66,
      "hit": false,
      "t": 82714.20299999998,
      "d": 95.23799999999756,
      "v": 121
    },
    {
      "midi": 69,
      "hit": false,
      "t": 82714.20299999998,
      "d": 95.23799999999756,
      "v": 112
    },
    {
      "midi": 45,
      "hit": false,
      "t": 82714.203,
      "d": 77.38087500000256,
      "v": 127
    },
    {
      "midi": 42,
      "hit": false,
      "t": 82857.06,
      "d": 142.8570000000036,
      "v": 127
    },
    {
      "midi": 64,
      "hit": false,
      "t": 82999.91699999997,
      "d": 56.547562499996275,
      "v": 103
    },
    {
      "midi": 67,
      "hit": false,
      "t": 82999.91699999997,
      "d": 68.45231249999779,
      "v": 105
    },
    {
      "midi": 45,
      "hit": false,
      "t": 82999.917,
      "d": 92.26181250000081,
      "v": 127
    },
    {
      "midi": 62,
      "hit": false,
      "t": 83142.77399999998,
      "d": 110.11893749999581,
      "v": 94
    },
    {
      "midi": 66,
      "hit": false,
      "t": 83142.77399999998,
      "d": 116.07131249998929,
      "v": 118
    },
    {
      "midi": 50,
      "hit": false,
      "t": 83142.774,
      "d": 95.23799999999756,
      "v": 127
    },
    {
      "midi": 54,
      "hit": false,
      "t": 83142.774,
      "d": 101.19037499999104,
      "v": 127
    },
    {
      "midi": 45,
      "hit": false,
      "t": 83285.631,
      "d": 74.40468750000582,
      "v": 127
    },
    {
      "midi": 38,
      "hit": false,
      "t": 83428.488,
      "d": 306.5473125000135,
      "v": 127
    },
    {
      "midi": 50,
      "hit": false,
      "t": 83714.202,
      "d": 74.40468750000582,
      "v": 127
    },
    {
      "midi": 54,
      "hit": false,
      "t": 83714.202,
      "d": 80.3570624999993,
      "v": 127
    },
    {
      "midi": 45,
      "hit": false,
      "t": 83857.05900000001,
      "d": 89.28562500000407,
      "v": 127
    },
    {
      "midi": 42,
      "hit": false,
      "t": 83999.91600000001,
      "d": 157.73793750000186,
      "v": 127
    },
    {
      "midi": 45,
      "hit": false,
      "t": 84142.77300000002,
      "d": 89.28562500000407,
      "v": 127
    },
    {
      "midi": 50,
      "hit": false,
      "t": 84285.63000000002,
      "d": 101.19037500000559,
      "v": 127
    },
    {
      "midi": 54,
      "hit": false,
      "t": 84285.63000000002,
      "d": 101.19037500000559,
      "v": 127
    },
    {
      "midi": 45,
      "hit": false,
      "t": 84428.48700000002,
      "d": 89.28562500000407,
      "v": 127
    },
    {
      "midi": 35,
      "hit": false,
      "t": 84571.34400000003,
      "d": 276.78543750000244,
      "v": 127
    },
    {
      "midi": 66,
      "hit": false,
      "t": 84857.05799999996,
      "d": 38.69043750000128,
      "v": 107
    },
    {
      "midi": 62,
      "hit": false,
      "t": 84857.05799999996,
      "d": 50.595187500002794,
      "v": 92
    },
    {
      "midi": 71,
      "hit": false,
      "t": 84857.05799999996,
      "d": 50.595187500002794,
      "v": 109
    },
    {
      "midi": 54,
      "hit": false,
      "t": 84857.05800000003,
      "d": 86.30943749999278,
      "v": 127
    },
    {
      "midi": 50,
      "hit": false,
      "t": 84857.05800000003,
      "d": 95.23799999999756,
      "v": 127
    },
    {
      "midi": 47,
      "hit": false,
      "t": 84999.91500000004,
      "d": 77.38087500000256,
      "v": 127
    },
    {
      "midi": 42,
      "hit": false,
      "t": 85142.77200000004,
      "d": 148.8093749999971,
      "v": 127
    },
    {
      "midi": 47,
      "hit": false,
      "t": 85285.62900000004,
      "d": 83.33324999999604,
      "v": 127
    },
    {
      "midi": 71,
      "hit": false,
      "t": 85428.48599999996,
      "d": 35.71425000000454,
      "v": 89
    },
    {
      "midi": 66,
      "hit": false,
      "t": 85428.48599999996,
      "d": 47.619000000006054,
      "v": 97
    },
    {
      "midi": 62,
      "hit": false,
      "t": 85428.48599999996,
      "d": 53.571374999999534,
      "v": 86
    },
    {
      "midi": 50,
      "hit": false,
      "t": 85428.48600000003,
      "d": 98.2141874999943,
      "v": 127
    },
    {
      "midi": 54,
      "hit": false,
      "t": 85428.48600000003,
      "d": 101.19037499999104,
      "v": 127
    },
    {
      "midi": 47,
      "hit": false,
      "t": 85571.34300000002,
      "d": 80.3570624999993,
      "v": 127
    },
    {
      "midi": 35,
      "hit": false,
      "t": 85714.20000000003,
      "d": 270.8330624999944,
      "v": 127
    },
    {
      "midi": 66,
      "hit": false,
      "t": 85999.91399999996,
      "d": 29.761874999996508,
      "v": 58
    },
    {
      "midi": 54,
      "hit": false,
      "t": 85999.91400000002,
      "d": 80.3570624999993,
      "v": 127
    },
    {
      "midi": 50,
      "hit": false,
      "t": 85999.91400000002,
      "d": 86.30943749999278,
      "v": 127
    },
    {
      "midi": 47,
      "hit": false,
      "t": 86142.77100000001,
      "d": 74.40468750000582,
      "v": 127
    },
    {
      "midi": 42,
      "hit": false,
      "t": 86285.62800000001,
      "d": 119.04750000000058,
      "v": 127
    },
    {
      "midi": 47,
      "hit": false,
      "t": 86428.48500000002,
      "d": 83.33324999999604,
      "v": 127
    },
    {
      "midi": 62,
      "hit": false,
      "t": 86571.34199999996,
      "d": 29.761874999996508,
      "v": 80
    },
    {
      "midi": 66,
      "hit": false,
      "t": 86571.34199999996,
      "d": 32.73806249999325,
      "v": 87
    },
    {
      "midi": 50,
      "hit": false,
      "t": 86571.342,
      "d": 95.23799999999756,
      "v": 127
    },
    {
      "midi": 54,
      "hit": false,
      "t": 86571.342,
      "d": 104.16656250000233,
      "v": 127
    },
    {
      "midi": 47,
      "hit": false,
      "t": 86714.19900000001,
      "d": 68.45231249999779,
      "v": 127
    },
    {
      "midi": 55,
      "hit": false,
      "t": 86857.05599999995,
      "d": 351.1901249999937,
      "v": 125
    },
    {
      "midi": 31,
      "hit": false,
      "t": 86857.05600000001,
      "d": 303.5711250000022,
      "v": 127
    },
    {
      "midi": 55,
      "hit": false,
      "t": 87142.77000000002,
      "d": 83.33324999999604,
      "v": 127
    },
    {
      "midi": 50,
      "hit": false,
      "t": 87142.77000000002,
      "d": 107.14274999999907,
      "v": 127
    },
    {
      "midi": 59,
      "hit": false,
      "t": 87285.62699999995,
      "d": 139.88081250000687,
      "v": 127
    },
    {
      "midi": 47,
      "hit": false,
      "t": 87285.62700000002,
      "d": 74.40468750000582,
      "v": 127
    },
    {
      "midi": 38,
      "hit": false,
      "t": 87428.48400000003,
      "d": 136.90462499999558,
      "v": 127
    },
    {
      "midi": 62,
      "hit": false,
      "t": 87571.34099999996,
      "d": 50.595187500002794,
      "v": 115
    },
    {
      "midi": 47,
      "hit": false,
      "t": 87571.34100000001,
      "d": 77.38087500000256,
      "v": 127
    },
    {
      "midi": 62,
      "hit": false,
      "t": 87714.19799999996,
      "d": 53.571374999999534,
      "v": 127
    },
    {
      "midi": 55,
      "hit": false,
      "t": 87714.19800000002,
      "d": 98.2141874999943,
      "v": 127
    },
    {
      "midi": 50,
      "hit": false,
      "t": 87714.19800000002,
      "d": 101.19037499999104,
      "v": 127
    },
    {
      "midi": 47,
      "hit": false,
      "t": 87857.05500000001,
      "d": 74.40468750000582,
      "v": 127
    },
    {
      "midi": 31,
      "hit": false,
      "t": 87999.91200000001,
      "d": 300.59493750000547,
      "v": 127
    },
    {
      "midi": 62,
      "hit": false,
      "t": 88285.62599999996,
      "d": 44.64281249999476,
      "v": 112
    },
    {
      "midi": 59,
      "hit": false,
      "t": 88285.62599999996,
      "d": 47.6189999999915,
      "v": 115
    },
    {
      "midi": 67,
      "hit": false,
      "t": 88285.62599999996,
      "d": 50.59518749998824,
      "v": 103
    },
    {
      "midi": 55,
      "hit": false,
      "t": 88285.62600000002,
      "d": 89.28562500000407,
      "v": 127
    },
    {
      "midi": 50,
      "hit": false,
      "t": 88285.62600000002,
      "d": 107.14274999999907,
      "v": 127
    },
    {
      "midi": 47,
      "hit": false,
      "t": 88428.48300000002,
      "d": 74.40468750000582,
      "v": 127
    },
    {
      "midi": 38,
      "hit": false,
      "t": 88571.34000000003,
      "d": 160.7141249999986,
      "v": 127
    },
    {
      "midi": 47,
      "hit": false,
      "t": 88714.19700000003,
      "d": 86.30943749999278,
      "v": 127
    },
    {
      "midi": 62,
      "hit": false,
      "t": 88857.05399999995,
      "d": 53.571374999999534,
      "v": 109
    },
    {
      "midi": 59,
      "hit": false,
      "t": 88857.05399999995,
      "d": 62.49993750000431,
      "v": 107
    },
    {
      "midi": 67,
      "hit": false,
      "t": 88857.05399999995,
      "d": 68.45231249999779,
      "v": 99
    },
    {
      "midi": 50,
      "hit": false,
      "t": 88857.05400000002,
      "d": 98.2141874999943,
      "v": 127
    },
    {
      "midi": 55,
      "hit": false,
      "t": 88857.05400000002,
      "d": 101.19037499999104,
      "v": 127
    },
    {
      "midi": 47,
      "hit": false,
      "t": 88999.91100000001,
      "d": 83.33324999999604,
      "v": 127
    },
    {
      "midi": 38,
      "hit": false,
      "t": 89142.768,
      "d": 291.6663750000007,
      "v": 127
    },
    {
      "midi": 62,
      "hit": false,
      "t": 89428.48199999995,
      "d": 41.66662499999802,
      "v": 88
    },
    {
      "midi": 57,
      "hit": false,
      "t": 89428.48199999995,
      "d": 47.6189999999915,
      "v": 88
    },
    {
      "midi": 66,
      "hit": false,
      "t": 89428.48199999995,
      "d": 56.547562499996275,
      "v": 89
    },
    {
      "midi": 54,
      "hit": false,
      "t": 89428.482,
      "d": 71.42849999999453,
      "v": 127
    },
    {
      "midi": 50,
      "hit": false,
      "t": 89428.482,
      "d": 77.38087499998801,
      "v": 127
    },
    {
      "midi": 45,
      "hit": false,
      "t": 89571.33899999999,
      "d": 80.3570624999993,
      "v": 127
    },
    {
      "midi": 33,
      "hit": false,
      "t": 89714.196,
      "d": 163.6903125000099,
      "v": 127
    },
    {
      "midi": 45,
      "hit": false,
      "t": 89857.053,
      "d": 89.28562500000407,
      "v": 127
    },
    {
      "midi": 57,
      "hit": false,
      "t": 89999.90999999995,
      "d": 44.64281249999476,
      "v": 99
    },
    {
      "midi": 62,
      "hit": false,
      "t": 89999.90999999995,
      "d": 44.64281249999476,
      "v": 101
    },
    {
      "midi": 66,
      "hit": false,
      "t": 89999.90999999995,
      "d": 56.547562499996275,
      "v": 104
    },
    {
      "midi": 54,
      "hit": false,
      "t": 89999.91,
      "d": 83.33324999999604,
      "v": 127
    },
    {
      "midi": 50,
      "hit": false,
      "t": 89999.91,
      "d": 98.2141874999943,
      "v": 127
    },
    {
      "midi": 45,
      "hit": false,
      "t": 90142.76699999999,
      "d": 74.40468750000582,
      "v": 127
    },
    {
      "midi": 38,
      "hit": false,
      "t": 90285.624,
      "d": 247.02356250000594,
      "v": 127
    },
    {
      "midi": 54,
      "hit": false,
      "t": 90571.338,
      "d": 77.38087500000256,
      "v": 127
    },
    {
      "midi": 50,
      "hit": false,
      "t": 90571.338,
      "d": 89.28562500000407,
      "v": 127
    },
    {
      "midi": 45,
      "hit": false,
      "t": 90714.195,
      "d": 86.30943749999278,
      "v": 127
    },
    {
      "midi": 42,
      "hit": false,
      "t": 90857.052,
      "d": 124.99987499999406,
      "v": 127
    },
    {
      "midi": 45,
      "hit": false,
      "t": 90999.90899999999,
      "d": 92.26181250000081,
      "v": 127
    },
    {
      "midi": 54,
      "hit": false,
      "t": 91142.76599999999,
      "d": 89.28562500000407,
      "v": 127
    },
    {
      "midi": 50,
      "hit": false,
      "t": 91142.76599999999,
      "d": 95.23799999999756,
      "v": 127
    },
    {
      "midi": 45,
      "hit": false,
      "t": 91285.62299999999,
      "d": 47.619000000006054,
      "v": 127
    },
    {
      "midi": 47,
      "hit": false,
      "t": 91428.47999999994,
      "d": 62.49993750000431,
      "v": 117
    },
    {
      "midi": 36,
      "hit": false,
      "t": 91428.48,
      "d": 68.45231249999779,
      "v": 127
    },
    {
      "midi": 35,
      "hit": false,
      "t": 91428.48,
      "d": 80.3570624999993,
      "v": 127
    },
    {
      "midi": 66,
      "hit": false,
      "t": 91571.33699999994,
      "d": 50.595187500002794,
      "v": 83
    },
    {
      "midi": 62,
      "hit": false,
      "t": 91571.33699999994,
      "d": 56.547562499996275,
      "v": 83
    },
    {
      "midi": 71,
      "hit": false,
      "t": 91571.33699999994,
      "d": 59.523749999993015,
      "v": 94
    },
    {
      "midi": 47,
      "hit": false,
      "t": 91571.33699999994,
      "d": 74.40468749999127,
      "v": 101
    },
    {
      "midi": 47,
      "hit": false,
      "t": 91571.337,
      "d": 56.547562499996275,
      "v": 127
    },
    {
      "midi": 47,
      "hit": false,
      "t": 91714.19399999993,
      "d": 77.38087500000256,
      "v": 97
    },
    {
      "midi": 50,
      "hit": false,
      "t": 91714.19399999999,
      "d": 95.23799999999756,
      "v": 127
    },
    {
      "midi": 54,
      "hit": false,
      "t": 91714.19399999999,
      "d": 95.23799999999756,
      "v": 127
    },
    {
      "midi": 66,
      "hit": false,
      "t": 91857.05099999993,
      "d": 32.73806249999325,
      "v": 50
    },
    {
      "midi": 71,
      "hit": false,
      "t": 91857.05099999993,
      "d": 41.66662499999802,
      "v": 74
    },
    {
      "midi": 62,
      "hit": false,
      "t": 91857.05099999993,
      "d": 44.64281249999476,
      "v": 50
    },
    {
      "midi": 47,
      "hit": false,
      "t": 91857.05099999993,
      "d": 92.26181250000081,
      "v": 112
    },
    {
      "midi": 47,
      "hit": false,
      "t": 91857.05099999999,
      "d": 59.523749999993015,
      "v": 127
    },
    {
      "midi": 35,
      "hit": false,
      "t": 91999.90799999998,
      "d": 119.04750000000058,
      "v": 127
    },
    {
      "midi": 45,
      "hit": false,
      "t": 92142.76499999994,
      "d": 53.571374999999534,
      "v": 89
    },
    {
      "midi": 66,
      "hit": false,
      "t": 92142.76499999994,
      "d": 53.571374999999534,
      "v": 83
    },
    {
      "midi": 62,
      "hit": false,
      "t": 92142.76499999994,
      "d": 56.547562499996275,
      "v": 79
    },
    {
      "midi": 71,
      "hit": false,
      "t": 92142.76499999994,
      "d": 56.547562499996275,
      "v": 91
    },
    {
      "midi": 47,
      "hit": false,
      "t": 92142.76499999998,
      "d": 68.45231249999779,
      "v": 127
    },
    {
      "midi": 47,
      "hit": false,
      "t": 92285.62199999993,
      "d": 142.8570000000036,
      "v": 107
    },
    {
      "midi": 50,
      "hit": false,
      "t": 92285.62199999999,
      "d": 65.47612500000105,
      "v": 127
    },
    {
      "midi": 54,
      "hit": false,
      "t": 92285.62199999999,
      "d": 71.42849999999453,
      "v": 127
    },
    {
      "midi": 71,
      "hit": false,
      "t": 92428.47899999993,
      "d": 59.523749999993015,
      "v": 89
    },
    {
      "midi": 66,
      "hit": false,
      "t": 92428.47899999993,
      "d": 62.499937499989755,
      "v": 83
    },
    {
      "midi": 62,
      "hit": false,
      "t": 92428.47899999993,
      "d": 68.45231249998324,
      "v": 74
    },
    {
      "midi": 47,
      "hit": false,
      "t": 92428.47899999998,
      "d": 68.45231249999779,
      "v": 127
    },
    {
      "midi": 35,
      "hit": false,
      "t": 92571.33599999998,
      "d": 107.14274999999907,
      "v": 127
    },
    {
      "midi": 47,
      "hit": false,
      "t": 92714.19299999991,
      "d": 53.571374999999534,
      "v": 79
    },
    {
      "midi": 71,
      "hit": false,
      "t": 92714.19299999991,
      "d": 62.49993750000431,
      "v": 82
    },
    {
      "midi": 66,
      "hit": false,
      "t": 92714.19299999991,
      "d": 65.47612500000105,
      "v": 72
    },
    {
      "midi": 62,
      "hit": false,
      "t": 92714.19299999991,
      "d": 74.40468750000582,
      "v": 60
    },
    {
      "midi": 47,
      "hit": false,
      "t": 92714.19299999998,
      "d": 65.47612500000105,
      "v": 127
    },
    {
      "midi": 49,
      "hit": false,
      "t": 92857.04999999992,
      "d": 157.73793750000186,
      "v": 121
    },
    {
      "midi": 50,
      "hit": false,
      "t": 92857.04999999999,
      "d": 59.523749999993015,
      "v": 127
    },
    {
      "midi": 54,
      "hit": false,
      "t": 92857.04999999999,
      "d": 83.33324999999604,
      "v": 127
    },
    {
      "midi": 71,
      "hit": false,
      "t": 92999.90699999992,
      "d": 62.49993750000431,
      "v": 83
    },
    {
      "midi": 66,
      "hit": false,
      "t": 92999.90699999992,
      "d": 65.47612500000105,
      "v": 75
    },
    {
      "midi": 62,
      "hit": false,
      "t": 92999.90699999992,
      "d": 74.40468750000582,
      "v": 65
    },
    {
      "midi": 47,
      "hit": false,
      "t": 92999.90699999998,
      "d": 65.47612500000105,
      "v": 127
    },
    {
      "midi": 50,
      "hit": false,
      "t": 93142.76399999992,
      "d": 190.47600000000966,
      "v": 107
    },
    {
      "midi": 74,
      "hit": false,
      "t": 93142.76399999992,
      "d": 241.07118750001246,
      "v": 101
    },
    {
      "midi": 35,
      "hit": false,
      "t": 93142.76399999998,
      "d": 107.14274999999907,
      "v": 127
    },
    {
      "midi": 71,
      "hit": false,
      "t": 93285.62099999993,
      "d": 62.49993750000431,
      "v": 74
    },
    {
      "midi": 66,
      "hit": false,
      "t": 93285.62099999993,
      "d": 68.45231249999779,
      "v": 69
    },
    {
      "midi": 62,
      "hit": false,
      "t": 93285.62099999993,
      "d": 77.38087500000256,
      "v": 58
    },
    {
      "midi": 47,
      "hit": false,
      "t": 93285.62099999998,
      "d": 77.38087500000256,
      "v": 127
    },
    {
      "midi": 69,
      "hit": false,
      "t": 93428.47799999993,
      "d": 56.547562499996275,
      "v": 107
    },
    {
      "midi": 49,
      "hit": false,
      "t": 93428.47799999993,
      "d": 136.90462499999558,
      "v": 124
    },
    {
      "midi": 50,
      "hit": false,
      "t": 93428.47799999999,
      "d": 80.3570624999993,
      "v": 127
    },
    {
      "midi": 54,
      "hit": false,
      "t": 93428.47799999999,
      "d": 89.28562500000407,
      "v": 127
    },
    {
      "midi": 71,
      "hit": false,
      "t": 93571.33499999992,
      "d": 59.523749999993015,
      "v": 85
    },
    {
      "midi": 66,
      "hit": false,
      "t": 93571.33499999992,
      "d": 62.499937499989755,
      "v": 79
    },
    {
      "midi": 62,
      "hit": false,
      "t": 93571.33499999992,
      "d": 71.42849999999453,
      "v": 66
    },
    {
      "midi": 47,
      "hit": false,
      "t": 93571.33499999999,
      "d": 77.38087500000256,
      "v": 127
    },
    {
      "midi": 47,
      "hit": false,
      "t": 93714.19199999991,
      "d": 104.16656250000233,
      "v": 117
    },
    {
      "midi": 35,
      "hit": false,
      "t": 93714.192,
      "d": 119.04750000000058,
      "v": 127
    },
    {
      "midi": 66,
      "hit": false,
      "t": 93857.04899999991,
      "d": 62.49993750000431,
      "v": 79
    },
    {
      "midi": 62,
      "hit": false,
      "t": 93857.04899999991,
      "d": 68.45231249999779,
      "v": 60
    },
    {
      "midi": 71,
      "hit": false,
      "t": 93857.04899999991,
      "d": 68.45231249999779,
      "v": 83
    },
    {
      "midi": 47,
      "hit": false,
      "t": 93857.04899999991,
      "d": 74.40468749999127,
      "v": 101
    },
    {
      "midi": 47,
      "hit": false,
      "t": 93857.049,
      "d": 65.47612500000105,
      "v": 127
    },
    {
      "midi": 47,
      "hit": false,
      "t": 93999.9059999999,
      "d": 89.28562500000407,
      "v": 103
    },
    {
      "midi": 50,
      "hit": false,
      "t": 93999.906,
      "d": 62.49993750000431,
      "v": 127
    },
    {
      "midi": 54,
      "hit": false,
      "t": 93999.906,
      "d": 83.3332500000106,
      "v": 127
    },
    {
      "midi": 71,
      "hit": false,
      "t": 94142.7629999999,
      "d": 59.523749999993015,
      "v": 82
    },
    {
      "midi": 62,
      "hit": false,
      "t": 94142.7629999999,
      "d": 62.499937499989755,
      "v": 58
    },
    {
      "midi": 66,
      "hit": false,
      "t": 94142.7629999999,
      "d": 65.4761249999865,
      "v": 75
    },
    {
      "midi": 47,
      "hit": false,
      "t": 94142.7629999999,
      "d": 89.28562499998952,
      "v": 117
    },
    {
      "midi": 47,
      "hit": false,
      "t": 94142.763,
      "d": 77.38087500000256,
      "v": 127
    },
    {
      "midi": 35,
      "hit": false,
      "t": 94285.62000000001,
      "d": 116.07131250000384,
      "v": 127
    },
    {
      "midi": 45,
      "hit": false,
      "t": 94428.4769999999,
      "d": 62.49993750000431,
      "v": 94
    },
    {
      "midi": 71,
      "hit": false,
      "t": 94428.4769999999,
      "d": 62.49993750000431,
      "v": 86
    },
    {
      "midi": 66,
      "hit": false,
      "t": 94428.4769999999,
      "d": 65.47612500000105,
      "v": 77
    },
    {
      "midi": 62,
      "hit": false,
      "t": 94428.4769999999,
      "d": 68.45231249999779,
      "v": 67
    },
    {
      "midi": 47,
      "hit": false,
      "t": 94428.47700000001,
      "d": 80.3570624999993,
      "v": 127
    },
    {
      "midi": 47,
      "hit": false,
      "t": 94571.3339999999,
      "d": 160.7141249999986,
      "v": 103
    },
    {
      "midi": 50,
      "hit": false,
      "t": 94571.33400000002,
      "d": 71.42849999999453,
      "v": 127
    },
    {
      "midi": 54,
      "hit": false,
      "t": 94571.33400000002,
      "d": 86.30943749999278,
      "v": 127
    },
    {
      "midi": 71,
      "hit": false,
      "t": 94714.1909999999,
      "d": 53.571374999999534,
      "v": 79
    },
    {
      "midi": 62,
      "hit": false,
      "t": 94714.1909999999,
      "d": 62.49993750000431,
      "v": 60
    },
    {
      "midi": 66,
      "hit": false,
      "t": 94714.1909999999,
      "d": 65.47612500000105,
      "v": 81
    },
    {
      "midi": 47,
      "hit": false,
      "t": 94714.191,
      "d": 68.45231249999779,
      "v": 127
    },
    {
      "midi": 35,
      "hit": false,
      "t": 94857.04800000001,
      "d": 122.02368749999732,
      "v": 127
    },
    {
      "midi": 71,
      "hit": false,
      "t": 94999.90499999991,
      "d": 53.571374999999534,
      "v": 83
    },
    {
      "midi": 66,
      "hit": false,
      "t": 94999.90499999991,
      "d": 59.523749999993015,
      "v": 77
    },
    {
      "midi": 62,
      "hit": false,
      "t": 94999.90499999991,
      "d": 62.499937499989755,
      "v": 66
    },
    {
      "midi": 47,
      "hit": false,
      "t": 94999.90499999991,
      "d": 80.35706249998475,
      "v": 85
    },
    {
      "midi": 47,
      "hit": false,
      "t": 94999.90500000001,
      "d": 68.45231249999779,
      "v": 127
    },
    {
      "midi": 49,
      "hit": false,
      "t": 95142.7619999999,
      "d": 124.99987499999406,
      "v": 127
    },
    {
      "midi": 50,
      "hit": false,
      "t": 95142.76200000002,
      "d": 77.38087500000256,
      "v": 127
    },
    {
      "midi": 54,
      "hit": false,
      "t": 95142.76200000002,
      "d": 83.33324999999604,
      "v": 127
    },
    {
      "midi": 66,
      "hit": false,
      "t": 95285.61899999989,
      "d": 53.571374999999534,
      "v": 81
    },
    {
      "midi": 71,
      "hit": false,
      "t": 95285.61899999989,
      "d": 53.571374999999534,
      "v": 85
    },
    {
      "midi": 62,
      "hit": false,
      "t": 95285.61899999989,
      "d": 59.523749999993015,
      "v": 68
    },
    {
      "midi": 47,
      "hit": false,
      "t": 95285.619,
      "d": 71.42849999999453,
      "v": 127
    },
    {
      "midi": 71,
      "hit": false,
      "t": 95428.47599999988,
      "d": 133.92843749999884,
      "v": 112
    },
    {
      "midi": 50,
      "hit": false,
      "t": 95428.47599999988,
      "d": 154.76175000000512,
      "v": 109
    },
    {
      "midi": 74,
      "hit": false,
      "t": 95428.47599999988,
      "d": 178.57125000000815,
      "v": 105
    },
    {
      "midi": 35,
      "hit": false,
      "t": 95428.476,
      "d": 122.02368749999732,
      "v": 127
    },
    {
      "midi": 71,
      "hit": false,
      "t": 95571.33299999988,
      "d": 56.54756250001083,
      "v": 85
    },
    {
      "midi": 66,
      "hit": false,
      "t": 95571.33299999988,
      "d": 59.52375000000757,
      "v": 77
    },
    {
      "midi": 62,
      "hit": false,
      "t": 95571.33299999988,
      "d": 65.47612500000105,
      "v": 65
    },
    {
      "midi": 69,
      "hit": false,
      "t": 95571.33299999988,
      "d": 98.2141874999943,
      "v": 115
    },
    {
      "midi": 47,
      "hit": false,
      "t": 95571.333,
      "d": 80.3570624999993,
      "v": 127
    },
    {
      "midi": 49,
      "hit": false,
      "t": 95714.18999999987,
      "d": 104.16656250000233,
      "v": 127
    },
    {
      "midi": 50,
      "hit": false,
      "t": 95714.19,
      "d": 71.42849999999453,
      "v": 127
    },
    {
      "midi": 54,
      "hit": false,
      "t": 95714.19,
      "d": 80.3570624999993,
      "v": 127
    },
    {
      "midi": 71,
      "hit": false,
      "t": 95857.04699999987,
      "d": 56.547562499996275,
      "v": 83
    },
    {
      "midi": 66,
      "hit": false,
      "t": 95857.04699999987,
      "d": 59.523749999993015,
      "v": 79
    },
    {
      "midi": 62,
      "hit": false,
      "t": 95857.04699999987,
      "d": 62.499937499989755,
      "v": 68
    },
    {
      "midi": 47,
      "hit": false,
      "t": 95857.047,
      "d": 62.49993750000431,
      "v": 127
    },
    {
      "midi": 47,
      "hit": false,
      "t": 95999.90399999986,
      "d": 95.23799999999756,
      "v": 123
    },
    {
      "midi": 35,
      "hit": false,
      "t": 95999.90400000001,
      "d": 122.02368749999732,
      "v": 127
    },
    {
      "midi": 66,
      "hit": false,
      "t": 96142.76099999987,
      "d": 50.595187500002794,
      "v": 73
    },
    {
      "midi": 71,
      "hit": false,
      "t": 96142.76099999987,
      "d": 50.595187500002794,
      "v": 83
    },
    {
      "midi": 62,
      "hit": false,
      "t": 96142.76099999987,
      "d": 56.547562499996275,
      "v": 67
    },
    {
      "midi": 47,
      "hit": false,
      "t": 96142.76099999987,
      "d": 83.33324999999604,
      "v": 95
    },
    {
      "midi": 47,
      "hit": false,
      "t": 96142.76100000001,
      "d": 86.30943749999278,
      "v": 127
    },
    {
      "midi": 47,
      "hit": false,
      "t": 96285.61799999986,
      "d": 119.04750000000058,
      "v": 125
    },
    {
      "midi": 50,
      "hit": false,
      "t": 96285.618,
      "d": 74.40468750000582,
      "v": 127
    },
    {
      "midi": 54,
      "hit": false,
      "t": 96285.618,
      "d": 83.3332500000106,
      "v": 127
    },
    {
      "midi": 71,
      "hit": false,
      "t": 96428.47499999986,
      "d": 56.547562499996275,
      "v": 85
    },
    {
      "midi": 66,
      "hit": false,
      "t": 96428.47499999986,
      "d": 59.523749999993015,
      "v": 81
    },
    {
      "midi": 62,
      "hit": false,
      "t": 96428.47499999986,
      "d": 68.45231249999779,
      "v": 70
    },
    {
      "midi": 47,
      "hit": false,
      "t": 96428.47499999986,
      "d": 92.26181250000081,
      "v": 123
    },
    {
      "midi": 47,
      "hit": false,
      "t": 96428.475,
      "d": 86.30943749999278,
      "v": 127
    },
    {
      "midi": 35,
      "hit": false,
      "t": 96571.332,
      "d": 122.02368749999732,
      "v": 127
    },
    {
      "midi": 45,
      "hit": false,
      "t": 96714.18899999987,
      "d": 56.547562499996275,
      "v": 77
    },
    {
      "midi": 71,
      "hit": false,
      "t": 96714.18899999987,
      "d": 59.523749999993015,
      "v": 85
    },
    {
      "midi": 66,
      "hit": false,
      "t": 96714.18899999987,
      "d": 62.499937499989755,
      "v": 77
    },
    {
      "midi": 62,
      "hit": false,
      "t": 96714.18899999987,
      "d": 68.45231249998324,
      "v": 61
    },
    {
      "midi": 47,
      "hit": false,
      "t": 96714.189,
      "d": 92.26181250000081,
      "v": 127
    },
    {
      "midi": 47,
      "hit": false,
      "t": 96857.04599999986,
      "d": 139.88081250000687,
      "v": 109
    },
    {
      "midi": 50,
      "hit": false,
      "t": 96857.046,
      "d": 77.38087500000256,
      "v": 127
    },
    {
      "midi": 54,
      "hit": false,
      "t": 96857.046,
      "d": 77.38087500000256,
      "v": 127
    },
    {
      "midi": 71,
      "hit": false,
      "t": 96999.90299999986,
      "d": 56.547562499996275,
      "v": 88
    },
    {
      "midi": 62,
      "hit": false,
      "t": 96999.90299999986,
      "d": 62.499937499989755,
      "v": 71
    },
    {
      "midi": 66,
      "hit": false,
      "t": 96999.90299999986,
      "d": 62.499937499989755,
      "v": 85
    },
    {
      "midi": 47,
      "hit": false,
      "t": 96999.903,
      "d": 74.40468750000582,
      "v": 127
    },
    {
      "midi": 35,
      "hit": false,
      "t": 97142.76000000001,
      "d": 127.97606250000536,
      "v": 127
    },
    {
      "midi": 66,
      "hit": false,
      "t": 97285.61699999985,
      "d": 65.47612500000105,
      "v": 81
    },
    {
      "midi": 71,
      "hit": false,
      "t": 97285.61699999985,
      "d": 65.47612500000105,
      "v": 86
    },
    {
      "midi": 62,
      "hit": false,
      "t": 97285.61699999985,
      "d": 68.45231249999779,
      "v": 66
    },
    {
      "midi": 47,
      "hit": false,
      "t": 97285.61699999985,
      "d": 80.3570624999993,
      "v": 115
    },
    {
      "midi": 47,
      "hit": false,
      "t": 97285.61700000001,
      "d": 89.28562500000407,
      "v": 127
    },
    {
      "midi": 49,
      "hit": false,
      "t": 97428.47399999986,
      "d": 136.90462499999558,
      "v": 127
    },
    {
      "midi": 54,
      "hit": false,
      "t": 97428.47400000002,
      "d": 74.40468750000582,
      "v": 127
    },
    {
      "midi": 50,
      "hit": false,
      "t": 97428.47400000002,
      "d": 80.3570624999993,
      "v": 127
    },
    {
      "midi": 62,
      "hit": false,
      "t": 97571.33099999985,
      "d": 59.523749999993015,
      "v": 53
    },
    {
      "midi": 71,
      "hit": false,
      "t": 97571.33099999985,
      "d": 59.523749999993015,
      "v": 80
    },
    {
      "midi": 66,
      "hit": false,
      "t": 97571.33099999985,
      "d": 65.4761249999865,
      "v": 77
    },
    {
      "midi": 47,
      "hit": false,
      "t": 97571.33100000002,
      "d": 71.42849999999453,
      "v": 127
    },
    {
      "midi": 50,
      "hit": false,
      "t": 97714.18799999983,
      "d": 172.61887500000012,
      "v": 103
    },
    {
      "midi": 74,
      "hit": false,
      "t": 97714.18799999983,
      "d": 264.8806874999864,
      "v": 103
    },
    {
      "midi": 35,
      "hit": false,
      "t": 97714.18800000001,
      "d": 107.14274999999907,
      "v": 127
    },
    {
      "midi": 66,
      "hit": false,
      "t": 97857.04499999984,
      "d": 71.42849999999453,
      "v": 83
    },
    {
      "midi": 71,
      "hit": false,
      "t": 97857.04499999984,
      "d": 71.42849999999453,
      "v": 91
    },
    {
      "midi": 62,
      "hit": false,
      "t": 97857.04499999984,
      "d": 77.38087499998801,
      "v": 72
    },
    {
      "midi": 47,
      "hit": false,
      "t": 97857.04500000001,
      "d": 77.38087500000256,
      "v": 127
    },
    {
      "midi": 69,
      "hit": false,
      "t": 97999.90199999983,
      "d": 53.571374999999534,
      "v": 105
    },
    {
      "midi": 49,
      "hit": false,
      "t": 97999.90199999983,
      "d": 92.26181250000081,
      "v": 127
    },
    {
      "midi": 50,
      "hit": false,
      "t": 97999.90200000002,
      "d": 71.42849999999453,
      "v": 127
    },
    {
      "midi": 54,
      "hit": false,
      "t": 97999.90200000002,
      "d": 74.40468749999127,
      "v": 127
    },
    {
      "midi": 71,
      "hit": false,
      "t": 98142.75899999983,
      "d": 47.619000000006054,
      "v": 85
    },
    {
      "midi": 62,
      "hit": false,
      "t": 98142.75899999983,
      "d": 53.571374999999534,
      "v": 70
    },
    {
      "midi": 66,
      "hit": false,
      "t": 98142.75899999983,
      "d": 65.47612500000105,
      "v": 89
    },
    {
      "midi": 47,
      "hit": false,
      "t": 98142.759,
      "d": 83.33324999999604,
      "v": 127
    },
    {
      "midi": 47,
      "hit": false,
      "t": 98285.61599999983,
      "d": 89.28562500000407,
      "v": 123
    },
    {
      "midi": 35,
      "hit": false,
      "t": 98285.616,
      "d": 122.02368749999732,
      "v": 127
    },
    {
      "midi": 66,
      "hit": false,
      "t": 98428.47299999984,
      "d": 65.47612500000105,
      "v": 79
    },
    {
      "midi": 71,
      "hit": false,
      "t": 98428.47299999984,
      "d": 68.45231249999779,
      "v": 89
    },
    {
      "midi": 62,
      "hit": false,
      "t": 98428.47299999984,
      "d": 74.40468749999127,
      "v": 70
    },
    {
      "midi": 47,
      "hit": false,
      "t": 98428.47299999984,
      "d": 86.30943749999278,
      "v": 86
    },
    {
      "midi": 47,
      "hit": false,
      "t": 98428.473,
      "d": 74.40468750000582,
      "v": 127
    },
    {
      "midi": 47,
      "hit": false,
      "t": 98571.32999999983,
      "d": 95.23799999999756,
      "v": 115
    },
    {
      "midi": 50,
      "hit": false,
      "t": 98571.33,
      "d": 71.42849999999453,
      "v": 127
    },
    {
      "midi": 54,
      "hit": false,
      "t": 98571.33,
      "d": 80.3570624999993,
      "v": 127
    },
    {
      "midi": 62,
      "hit": false,
      "t": 98714.18699999983,
      "d": 68.45231249999779,
      "v": 66
    },
    {
      "midi": 71,
      "hit": false,
      "t": 98714.18699999983,
      "d": 68.45231249999779,
      "v": 85
    },
    {
      "midi": 66,
      "hit": false,
      "t": 98714.18699999983,
      "d": 74.40468749999127,
      "v": 83
    },
    {
      "midi": 47,
      "hit": false,
      "t": 98714.18699999983,
      "d": 95.23799999999756,
      "v": 112
    },
    {
      "midi": 47,
      "hit": false,
      "t": 98714.187,
      "d": 77.38087500000256,
      "v": 127
    },
    {
      "midi": 35,
      "hit": false,
      "t": 98857.04400000001,
      "d": 127.97606250000536,
      "v": 127
    },
    {
      "midi": 45,
      "hit": false,
      "t": 98999.90099999982,
      "d": 50.595187500002794,
      "v": 92
    },
    {
      "midi": 66,
      "hit": false,
      "t": 98999.90099999982,
      "d": 74.40468750000582,
      "v": 77
    },
    {
      "midi": 71,
      "hit": false,
      "t": 98999.90099999982,
      "d": 74.40468750000582,
      "v": 88
    },
    {
      "midi": 62,
      "hit": false,
      "t": 98999.90099999982,
      "d": 80.3570624999993,
      "v": 68
    },
    {
      "midi": 47,
      "hit": false,
      "t": 98999.90100000001,
      "d": 80.3570624999993,
      "v": 127
    },
    {
      "midi": 47,
      "hit": false,
      "t": 99142.75799999983,
      "d": 145.83318750000035,
      "v": 109
    },
    {
      "midi": 50,
      "hit": false,
      "t": 99142.75800000002,
      "d": 59.523749999993015,
      "v": 127
    },
    {
      "midi": 54,
      "hit": false,
      "t": 99142.75800000002,
      "d": 86.30943749999278,
      "v": 127
    },
    {
      "midi": 71,
      "hit": false,
      "t": 99285.61499999983,
      "d": 71.42849999999453,
      "v": 88
    },
    {
      "midi": 62,
      "hit": false,
      "t": 99285.61499999983,
      "d": 74.40468749999127,
      "v": 70
    },
    {
      "midi": 66,
      "hit": false,
      "t": 99285.61499999983,
      "d": 74.40468749999127,
      "v": 81
    },
    {
      "midi": 47,
      "hit": false,
      "t": 99285.615,
      "d": 83.33324999999604,
      "v": 127
    },
    {
      "midi": 35,
      "hit": false,
      "t": 99428.472,
      "d": 136.90462499999558,
      "v": 127
    },
    {
      "midi": 47,
      "hit": false,
      "t": 99571.32899999982,
      "d": 65.47612500000105,
      "v": 103
    },
    {
      "midi": 71,
      "hit": false,
      "t": 99571.32899999982,
      "d": 68.45231249999779,
      "v": 89
    },
    {
      "midi": 62,
      "hit": false,
      "t": 99571.32899999982,
      "d": 71.42849999999453,
      "v": 68
    },
    {
      "midi": 66,
      "hit": false,
      "t": 99571.32899999982,
      "d": 71.42849999999453,
      "v": 85
    },
    {
      "midi": 47,
      "hit": false,
      "t": 99571.32899999998,
      "d": 95.23799999999756,
      "v": 127
    },
    {
      "midi": 49,
      "hit": false,
      "t": 99714.18599999981,
      "d": 151.78556250000838,
      "v": 124
    },
    {
      "midi": 50,
      "hit": false,
      "t": 99714.18599999999,
      "d": 77.38087500000256,
      "v": 127
    },
    {
      "midi": 54,
      "hit": false,
      "t": 99714.18599999999,
      "d": 86.30943750000733,
      "v": 127
    },
    {
      "midi": 71,
      "hit": false,
      "t": 99857.04299999982,
      "d": 53.571374999999534,
      "v": 85
    },
    {
      "midi": 62,
      "hit": false,
      "t": 99857.04299999982,
      "d": 65.47612500000105,
      "v": 66
    },
    {
      "midi": 66,
      "hit": false,
      "t": 99857.04299999982,
      "d": 68.45231249999779,
      "v": 85
    },
    {
      "midi": 47,
      "hit": false,
      "t": 99857.04299999999,
      "d": 86.30943749999278,
      "v": 127
    },
    {
      "midi": 71,
      "hit": false,
      "t": 99999.89999999982,
      "d": 104.16656250000233,
      "v": 117
    },
    {
      "midi": 74,
      "hit": false,
      "t": 99999.89999999982,
      "d": 145.83318750000035,
      "v": 97
    },
    {
      "midi": 50,
      "hit": false,
      "t": 99999.89999999982,
      "d": 187.49981249999837,
      "v": 103
    },
    {
      "midi": 35,
      "hit": false,
      "t": 99999.89999999998,
      "d": 148.8093749999971,
      "v": 127
    },
    {
      "midi": 66,
      "hit": false,
      "t": 100142.75699999982,
      "d": 68.45231249999779,
      "v": 81
    },
    {
      "midi": 69,
      "hit": false,
      "t": 100142.75699999982,
      "d": 68.45231249999779,
      "v": 120
    },
    {
      "midi": 71,
      "hit": false,
      "t": 100142.75699999982,
      "d": 68.45231249999779,
      "v": 88
    },
    {
      "midi": 62,
      "hit": false,
      "t": 100142.75699999982,
      "d": 74.40468749999127,
      "v": 67
    },
    {
      "midi": 47,
      "hit": false,
      "t": 100142.75699999998,
      "d": 89.28562499998952,
      "v": 127
    },
    {
      "midi": 49,
      "hit": false,
      "t": 100285.61399999981,
      "d": 68.45231249999779,
      "v": 124
    },
    {
      "midi": 50,
      "hit": false,
      "t": 100285.61399999997,
      "d": 71.42849999999453,
      "v": 127
    },
    {
      "midi": 54,
      "hit": false,
      "t": 100285.61399999997,
      "d": 83.33324999999604,
      "v": 127
    },
    {
      "midi": 62,
      "hit": false,
      "t": 100428.47099999982,
      "d": 53.571374999999534,
      "v": 80
    },
    {
      "midi": 66,
      "hit": false,
      "t": 100428.47099999982,
      "d": 56.547562499996275,
      "v": 85
    },
    {
      "midi": 71,
      "hit": false,
      "t": 100428.47099999982,
      "d": 59.523749999993015,
      "v": 92
    },
    {
      "midi": 47,
      "hit": false,
      "t": 100428.47099999996,
      "d": 53.571374999999534,
      "v": 127
    },
    {
      "midi": 47,
      "hit": false,
      "t": 100571.3279999998,
      "d": 62.49993750000431,
      "v": 117
    },
    {
      "midi": 36,
      "hit": false,
      "t": 100571.32799999996,
      "d": 68.45231249999779,
      "v": 127
    },
    {
      "midi": 35,
      "hit": false,
      "t": 100571.32799999996,
      "d": 80.3570624999993,
      "v": 127
    },
    {
      "midi": 66,
      "hit": false,
      "t": 100714.18499999981,
      "d": 50.595187500002794,
      "v": 83
    },
    {
      "midi": 62,
      "hit": false,
      "t": 100714.18499999981,
      "d": 56.547562499996275,
      "v": 83
    },
    {
      "midi": 71,
      "hit": false,
      "t": 100714.18499999981,
      "d": 59.523749999993015,
      "v": 94
    },
    {
      "midi": 47,
      "hit": false,
      "t": 100714.18499999981,
      "d": 74.40468749999127,
      "v": 101
    },
    {
      "midi": 47,
      "hit": false,
      "t": 100714.18499999997,
      "d": 56.547562499996275,
      "v": 127
    },
    {
      "midi": 47,
      "hit": false,
      "t": 100857.0419999998,
      "d": 77.38087500000256,
      "v": 97
    },
    {
      "midi": 50,
      "hit": false,
      "t": 100857.04199999996,
      "d": 95.23799999999756,
      "v": 127
    },
    {
      "midi": 54,
      "hit": false,
      "t": 100857.04199999996,
      "d": 95.23799999999756,
      "v": 127
    },
    {
      "midi": 66,
      "hit": false,
      "t": 100999.8989999998,
      "d": 32.73806249999325,
      "v": 50
    },
    {
      "midi": 71,
      "hit": false,
      "t": 100999.8989999998,
      "d": 41.66662499999802,
      "v": 74
    },
    {
      "midi": 62,
      "hit": false,
      "t": 100999.8989999998,
      "d": 44.64281249999476,
      "v": 50
    },
    {
      "midi": 47,
      "hit": false,
      "t": 100999.8989999998,
      "d": 92.26181250000081,
      "v": 112
    },
    {
      "midi": 47,
      "hit": false,
      "t": 100999.89899999996,
      "d": 59.523749999993015,
      "v": 127
    },
    {
      "midi": 35,
      "hit": false,
      "t": 101142.75599999995,
      "d": 119.04750000000058,
      "v": 127
    },
    {
      "midi": 45,
      "hit": false,
      "t": 101285.61299999981,
      "d": 53.571374999999534,
      "v": 89
    },
    {
      "midi": 66,
      "hit": false,
      "t": 101285.61299999981,
      "d": 53.571374999999534,
      "v": 83
    },
    {
      "midi": 62,
      "hit": false,
      "t": 101285.61299999981,
      "d": 56.547562499996275,
      "v": 79
    },
    {
      "midi": 71,
      "hit": false,
      "t": 101285.61299999981,
      "d": 56.547562499996275,
      "v": 91
    },
    {
      "midi": 47,
      "hit": false,
      "t": 101285.61299999995,
      "d": 68.45231249999779,
      "v": 127
    },
    {
      "midi": 47,
      "hit": false,
      "t": 101428.4699999998,
      "d": 142.8570000000036,
      "v": 107
    },
    {
      "midi": 50,
      "hit": false,
      "t": 101428.46999999996,
      "d": 65.47612500000105,
      "v": 127
    },
    {
      "midi": 54,
      "hit": false,
      "t": 101428.46999999996,
      "d": 71.42849999999453,
      "v": 127
    },
    {
      "midi": 71,
      "hit": false,
      "t": 101571.3269999998,
      "d": 59.523749999993015,
      "v": 89
    },
    {
      "midi": 66,
      "hit": false,
      "t": 101571.3269999998,
      "d": 62.499937499989755,
      "v": 83
    },
    {
      "midi": 62,
      "hit": false,
      "t": 101571.3269999998,
      "d": 68.45231249998324,
      "v": 74
    },
    {
      "midi": 47,
      "hit": false,
      "t": 101571.32699999995,
      "d": 68.45231249999779,
      "v": 127
    },
    {
      "midi": 35,
      "hit": false,
      "t": 101714.18399999995,
      "d": 107.14274999999907,
      "v": 127
    },
    {
      "midi": 47,
      "hit": false,
      "t": 101857.04099999978,
      "d": 53.571374999999534,
      "v": 79
    },
    {
      "midi": 71,
      "hit": false,
      "t": 101857.04099999978,
      "d": 62.49993750000431,
      "v": 82
    },
    {
      "midi": 66,
      "hit": false,
      "t": 101857.04099999978,
      "d": 65.47612500000105,
      "v": 72
    },
    {
      "midi": 62,
      "hit": false,
      "t": 101857.04099999978,
      "d": 74.40468750000582,
      "v": 60
    },
    {
      "midi": 47,
      "hit": false,
      "t": 101857.04099999995,
      "d": 65.47612500000105,
      "v": 127
    },
    {
      "midi": 49,
      "hit": false,
      "t": 101999.89799999978,
      "d": 157.73793750000186,
      "v": 121
    },
    {
      "midi": 50,
      "hit": false,
      "t": 101999.89799999996,
      "d": 59.523749999993015,
      "v": 127
    },
    {
      "midi": 54,
      "hit": false,
      "t": 101999.89799999996,
      "d": 83.33324999999604,
      "v": 127
    },
    {
      "midi": 71,
      "hit": false,
      "t": 102142.75499999979,
      "d": 62.49993750000431,
      "v": 83
    },
    {
      "midi": 66,
      "hit": false,
      "t": 102142.75499999979,
      "d": 65.47612500000105,
      "v": 75
    },
    {
      "midi": 62,
      "hit": false,
      "t": 102142.75499999979,
      "d": 74.40468750000582,
      "v": 65
    },
    {
      "midi": 47,
      "hit": false,
      "t": 102142.75499999995,
      "d": 65.47612500000105,
      "v": 127
    },
    {
      "midi": 50,
      "hit": false,
      "t": 102285.61199999979,
      "d": 190.47600000000966,
      "v": 107
    },
    {
      "midi": 74,
      "hit": false,
      "t": 102285.61199999979,
      "d": 241.07118750001246,
      "v": 101
    },
    {
      "midi": 35,
      "hit": false,
      "t": 102285.61199999995,
      "d": 107.14274999999907,
      "v": 127
    },
    {
      "midi": 71,
      "hit": false,
      "t": 102428.4689999998,
      "d": 62.49993750000431,
      "v": 74
    },
    {
      "midi": 66,
      "hit": false,
      "t": 102428.4689999998,
      "d": 68.45231249999779,
      "v": 69
    },
    {
      "midi": 62,
      "hit": false,
      "t": 102428.4689999998,
      "d": 77.38087500000256,
      "v": 58
    },
    {
      "midi": 47,
      "hit": false,
      "t": 102428.46899999995,
      "d": 77.38087500000256,
      "v": 127
    },
    {
      "midi": 69,
      "hit": false,
      "t": 102571.3259999998,
      "d": 56.547562499996275,
      "v": 107
    },
    {
      "midi": 49,
      "hit": false,
      "t": 102571.3259999998,
      "d": 136.90462499999558,
      "v": 124
    },
    {
      "midi": 50,
      "hit": false,
      "t": 102571.32599999996,
      "d": 80.3570624999993,
      "v": 127
    },
    {
      "midi": 54,
      "hit": false,
      "t": 102571.32599999996,
      "d": 89.28562500000407,
      "v": 127
    },
    {
      "midi": 71,
      "hit": false,
      "t": 102714.18299999979,
      "d": 59.523749999993015,
      "v": 85
    },
    {
      "midi": 66,
      "hit": false,
      "t": 102714.18299999979,
      "d": 62.499937499989755,
      "v": 79
    },
    {
      "midi": 62,
      "hit": false,
      "t": 102714.18299999979,
      "d": 71.42849999999453,
      "v": 66
    },
    {
      "midi": 47,
      "hit": false,
      "t": 102714.18299999996,
      "d": 77.38087500000256,
      "v": 127
    },
    {
      "midi": 47,
      "hit": false,
      "t": 102857.03999999978,
      "d": 104.16656250000233,
      "v": 117
    },
    {
      "midi": 35,
      "hit": false,
      "t": 102857.03999999996,
      "d": 119.04750000000058,
      "v": 127
    },
    {
      "midi": 66,
      "hit": false,
      "t": 102999.89699999978,
      "d": 62.49993750000431,
      "v": 79
    },
    {
      "midi": 62,
      "hit": false,
      "t": 102999.89699999978,
      "d": 68.45231249999779,
      "v": 60
    },
    {
      "midi": 71,
      "hit": false,
      "t": 102999.89699999978,
      "d": 68.45231249999779,
      "v": 83
    },
    {
      "midi": 47,
      "hit": false,
      "t": 102999.89699999978,
      "d": 74.40468749999127,
      "v": 101
    },
    {
      "midi": 47,
      "hit": false,
      "t": 102999.89699999997,
      "d": 65.47612500000105,
      "v": 127
    },
    {
      "midi": 47,
      "hit": false,
      "t": 103142.75399999977,
      "d": 89.28562500000407,
      "v": 103
    },
    {
      "midi": 50,
      "hit": false,
      "t": 103142.75399999997,
      "d": 62.49993750000431,
      "v": 127
    },
    {
      "midi": 54,
      "hit": false,
      "t": 103142.75399999997,
      "d": 83.3332500000106,
      "v": 127
    },
    {
      "midi": 71,
      "hit": false,
      "t": 103285.61099999977,
      "d": 59.523749999993015,
      "v": 82
    },
    {
      "midi": 62,
      "hit": false,
      "t": 103285.61099999977,
      "d": 62.499937499989755,
      "v": 58
    },
    {
      "midi": 66,
      "hit": false,
      "t": 103285.61099999977,
      "d": 65.4761249999865,
      "v": 75
    },
    {
      "midi": 47,
      "hit": false,
      "t": 103285.61099999977,
      "d": 89.28562499998952,
      "v": 117
    },
    {
      "midi": 47,
      "hit": false,
      "t": 103285.61099999998,
      "d": 77.38087500000256,
      "v": 127
    },
    {
      "midi": 35,
      "hit": false,
      "t": 103428.46799999998,
      "d": 116.07131250000384,
      "v": 127
    },
    {
      "midi": 45,
      "hit": false,
      "t": 103571.32499999976,
      "d": 62.49993750000431,
      "v": 94
    },
    {
      "midi": 71,
      "hit": false,
      "t": 103571.32499999976,
      "d": 62.49993750000431,
      "v": 86
    },
    {
      "midi": 66,
      "hit": false,
      "t": 103571.32499999976,
      "d": 65.47612500000105,
      "v": 77
    },
    {
      "midi": 62,
      "hit": false,
      "t": 103571.32499999976,
      "d": 68.45231249999779,
      "v": 67
    },
    {
      "midi": 47,
      "hit": false,
      "t": 103571.32499999998,
      "d": 80.3570624999993,
      "v": 127
    },
    {
      "midi": 47,
      "hit": false,
      "t": 103714.18199999977,
      "d": 160.7141249999986,
      "v": 103
    },
    {
      "midi": 50,
      "hit": false,
      "t": 103714.18199999999,
      "d": 71.42849999999453,
      "v": 127
    },
    {
      "midi": 54,
      "hit": false,
      "t": 103714.18199999999,
      "d": 86.30943749999278,
      "v": 127
    },
    {
      "midi": 71,
      "hit": false,
      "t": 103857.03899999977,
      "d": 53.571374999999534,
      "v": 79
    },
    {
      "midi": 62,
      "hit": false,
      "t": 103857.03899999977,
      "d": 62.49993750000431,
      "v": 60
    },
    {
      "midi": 66,
      "hit": false,
      "t": 103857.03899999977,
      "d": 65.47612500000105,
      "v": 81
    },
    {
      "midi": 47,
      "hit": false,
      "t": 103857.03899999998,
      "d": 68.45231249999779,
      "v": 127
    },
    {
      "midi": 35,
      "hit": false,
      "t": 103999.89599999998,
      "d": 122.02368749999732,
      "v": 127
    },
    {
      "midi": 71,
      "hit": false,
      "t": 104142.75299999978,
      "d": 53.571374999999534,
      "v": 83
    },
    {
      "midi": 66,
      "hit": false,
      "t": 104142.75299999978,
      "d": 59.523749999993015,
      "v": 77
    },
    {
      "midi": 62,
      "hit": false,
      "t": 104142.75299999978,
      "d": 62.499937499989755,
      "v": 66
    },
    {
      "midi": 47,
      "hit": false,
      "t": 104142.75299999978,
      "d": 80.35706249998475,
      "v": 85
    },
    {
      "midi": 47,
      "hit": false,
      "t": 104142.75299999998,
      "d": 68.45231249999779,
      "v": 127
    },
    {
      "midi": 49,
      "hit": false,
      "t": 104285.60999999977,
      "d": 124.99987499999406,
      "v": 127
    },
    {
      "midi": 50,
      "hit": false,
      "t": 104285.60999999999,
      "d": 77.38087500000256,
      "v": 127
    },
    {
      "midi": 54,
      "hit": false,
      "t": 104285.60999999999,
      "d": 83.33324999999604,
      "v": 127
    },
    {
      "midi": 66,
      "hit": false,
      "t": 104428.46699999976,
      "d": 53.571374999999534,
      "v": 81
    },
    {
      "midi": 71,
      "hit": false,
      "t": 104428.46699999976,
      "d": 53.571374999999534,
      "v": 85
    },
    {
      "midi": 62,
      "hit": false,
      "t": 104428.46699999976,
      "d": 59.523749999993015,
      "v": 68
    },
    {
      "midi": 47,
      "hit": false,
      "t": 104428.46699999998,
      "d": 71.42849999999453,
      "v": 127
    },
    {
      "midi": 71,
      "hit": false,
      "t": 104571.32399999975,
      "d": 133.92843749999884,
      "v": 112
    },
    {
      "midi": 50,
      "hit": false,
      "t": 104571.32399999975,
      "d": 154.76175000000512,
      "v": 109
    },
    {
      "midi": 74,
      "hit": false,
      "t": 104571.32399999975,
      "d": 178.57125000000815,
      "v": 105
    },
    {
      "midi": 35,
      "hit": false,
      "t": 104571.32399999996,
      "d": 122.02368749999732,
      "v": 127
    },
    {
      "midi": 71,
      "hit": false,
      "t": 104714.18099999975,
      "d": 56.54756250001083,
      "v": 85
    },
    {
      "midi": 66,
      "hit": false,
      "t": 104714.18099999975,
      "d": 59.52375000000757,
      "v": 77
    },
    {
      "midi": 62,
      "hit": false,
      "t": 104714.18099999975,
      "d": 65.47612500000105,
      "v": 65
    },
    {
      "midi": 69,
      "hit": false,
      "t": 104714.18099999975,
      "d": 98.2141874999943,
      "v": 115
    },
    {
      "midi": 47,
      "hit": false,
      "t": 104714.18099999997,
      "d": 80.3570624999993,
      "v": 127
    },
    {
      "midi": 49,
      "hit": false,
      "t": 104857.03799999974,
      "d": 104.16656250000233,
      "v": 127
    },
    {
      "midi": 50,
      "hit": false,
      "t": 104857.03799999997,
      "d": 71.42849999999453,
      "v": 127
    },
    {
      "midi": 54,
      "hit": false,
      "t": 104857.03799999997,
      "d": 80.3570624999993,
      "v": 127
    },
    {
      "midi": 71,
      "hit": false,
      "t": 104999.89499999974,
      "d": 56.547562499996275,
      "v": 83
    },
    {
      "midi": 66,
      "hit": false,
      "t": 104999.89499999974,
      "d": 59.523749999993015,
      "v": 79
    },
    {
      "midi": 62,
      "hit": false,
      "t": 104999.89499999974,
      "d": 62.499937499989755,
      "v": 68
    },
    {
      "midi": 47,
      "hit": false,
      "t": 104999.89499999997,
      "d": 62.49993750000431,
      "v": 127
    },
    {
      "midi": 47,
      "hit": false,
      "t": 105142.75199999973,
      "d": 95.23799999999756,
      "v": 123
    },
    {
      "midi": 35,
      "hit": false,
      "t": 105142.75199999998,
      "d": 122.02368749999732,
      "v": 127
    },
    {
      "midi": 66,
      "hit": false,
      "t": 105285.60899999973,
      "d": 50.595187500002794,
      "v": 73
    },
    {
      "midi": 71,
      "hit": false,
      "t": 105285.60899999973,
      "d": 50.595187500002794,
      "v": 83
    },
    {
      "midi": 62,
      "hit": false,
      "t": 105285.60899999973,
      "d": 56.547562499996275,
      "v": 67
    },
    {
      "midi": 47,
      "hit": false,
      "t": 105285.60899999973,
      "d": 83.33324999999604,
      "v": 95
    },
    {
      "midi": 47,
      "hit": false,
      "t": 105285.60899999998,
      "d": 86.30943749999278,
      "v": 127
    },
    {
      "midi": 47,
      "hit": false,
      "t": 105428.46599999972,
      "d": 119.04750000000058,
      "v": 125
    },
    {
      "midi": 50,
      "hit": false,
      "t": 105428.46599999997,
      "d": 74.40468750000582,
      "v": 127
    },
    {
      "midi": 54,
      "hit": false,
      "t": 105428.46599999997,
      "d": 83.3332500000106,
      "v": 127
    },
    {
      "midi": 71,
      "hit": false,
      "t": 105571.32299999973,
      "d": 56.547562499996275,
      "v": 85
    },
    {
      "midi": 66,
      "hit": false,
      "t": 105571.32299999973,
      "d": 59.523749999993015,
      "v": 81
    },
    {
      "midi": 62,
      "hit": false,
      "t": 105571.32299999973,
      "d": 68.45231249999779,
      "v": 70
    },
    {
      "midi": 47,
      "hit": false,
      "t": 105571.32299999973,
      "d": 92.26181250000081,
      "v": 123
    },
    {
      "midi": 47,
      "hit": false,
      "t": 105571.32299999997,
      "d": 86.30943749999278,
      "v": 127
    },
    {
      "midi": 35,
      "hit": false,
      "t": 105714.17999999996,
      "d": 122.02368749999732,
      "v": 127
    },
    {
      "midi": 45,
      "hit": false,
      "t": 105857.03699999973,
      "d": 56.547562499996275,
      "v": 77
    },
    {
      "midi": 71,
      "hit": false,
      "t": 105857.03699999973,
      "d": 59.523749999993015,
      "v": 85
    },
    {
      "midi": 66,
      "hit": false,
      "t": 105857.03699999973,
      "d": 62.499937499989755,
      "v": 77
    },
    {
      "midi": 62,
      "hit": false,
      "t": 105857.03699999973,
      "d": 68.45231249998324,
      "v": 61
    },
    {
      "midi": 47,
      "hit": false,
      "t": 105857.03699999997,
      "d": 92.26181250000081,
      "v": 127
    },
    {
      "midi": 47,
      "hit": false,
      "t": 105999.89399999972,
      "d": 139.88081250000687,
      "v": 109
    },
    {
      "midi": 50,
      "hit": false,
      "t": 105999.89399999997,
      "d": 77.38087500000256,
      "v": 127
    },
    {
      "midi": 54,
      "hit": false,
      "t": 105999.89399999997,
      "d": 77.38087500000256,
      "v": 127
    },
    {
      "midi": 71,
      "hit": false,
      "t": 106142.75099999973,
      "d": 56.547562499996275,
      "v": 88
    },
    {
      "midi": 62,
      "hit": false,
      "t": 106142.75099999973,
      "d": 62.499937499989755,
      "v": 71
    },
    {
      "midi": 66,
      "hit": false,
      "t": 106142.75099999973,
      "d": 62.499937499989755,
      "v": 85
    },
    {
      "midi": 47,
      "hit": false,
      "t": 106142.75099999997,
      "d": 74.40468750000582,
      "v": 127
    },
    {
      "midi": 35,
      "hit": false,
      "t": 106285.60799999998,
      "d": 127.97606250000536,
      "v": 127
    },
    {
      "midi": 66,
      "hit": false,
      "t": 106428.46499999972,
      "d": 65.47612500000105,
      "v": 81
    },
    {
      "midi": 71,
      "hit": false,
      "t": 106428.46499999972,
      "d": 65.47612500000105,
      "v": 86
    },
    {
      "midi": 62,
      "hit": false,
      "t": 106428.46499999972,
      "d": 68.45231249999779,
      "v": 66
    },
    {
      "midi": 47,
      "hit": false,
      "t": 106428.46499999972,
      "d": 80.3570624999993,
      "v": 115
    },
    {
      "midi": 47,
      "hit": false,
      "t": 106428.46499999998,
      "d": 89.28562500000407,
      "v": 127
    },
    {
      "midi": 49,
      "hit": false,
      "t": 106571.32199999972,
      "d": 136.90462499999558,
      "v": 127
    },
    {
      "midi": 54,
      "hit": false,
      "t": 106571.32199999999,
      "d": 74.40468750000582,
      "v": 127
    },
    {
      "midi": 50,
      "hit": false,
      "t": 106571.32199999999,
      "d": 80.3570624999993,
      "v": 127
    },
    {
      "midi": 62,
      "hit": false,
      "t": 106714.17899999971,
      "d": 59.523749999993015,
      "v": 53
    },
    {
      "midi": 71,
      "hit": false,
      "t": 106714.17899999971,
      "d": 59.523749999993015,
      "v": 80
    },
    {
      "midi": 66,
      "hit": false,
      "t": 106714.17899999971,
      "d": 65.4761249999865,
      "v": 77
    },
    {
      "midi": 47,
      "hit": false,
      "t": 106714.17899999999,
      "d": 71.42849999999453,
      "v": 127
    },
    {
      "midi": 50,
      "hit": false,
      "t": 106857.0359999997,
      "d": 172.61887500000012,
      "v": 103
    },
    {
      "midi": 74,
      "hit": false,
      "t": 106857.0359999997,
      "d": 264.8806874999864,
      "v": 103
    },
    {
      "midi": 35,
      "hit": false,
      "t": 106857.03599999998,
      "d": 107.14274999999907,
      "v": 127
    },
    {
      "midi": 66,
      "hit": false,
      "t": 106999.8929999997,
      "d": 71.42849999999453,
      "v": 83
    },
    {
      "midi": 71,
      "hit": false,
      "t": 106999.8929999997,
      "d": 71.42849999999453,
      "v": 91
    },
    {
      "midi": 62,
      "hit": false,
      "t": 106999.8929999997,
      "d": 77.38087499998801,
      "v": 72
    },
    {
      "midi": 47,
      "hit": false,
      "t": 106999.89299999998,
      "d": 77.38087500000256,
      "v": 127
    },
    {
      "midi": 69,
      "hit": false,
      "t": 107142.7499999997,
      "d": 53.571374999999534,
      "v": 105
    },
    {
      "midi": 49,
      "hit": false,
      "t": 107142.7499999997,
      "d": 92.26181250000081,
      "v": 127
    },
    {
      "midi": 50,
      "hit": false,
      "t": 107142.74999999999,
      "d": 71.42849999999453,
      "v": 127
    },
    {
      "midi": 54,
      "hit": false,
      "t": 107142.74999999999,
      "d": 74.40468749999127,
      "v": 127
    },
    {
      "midi": 71,
      "hit": false,
      "t": 107285.6069999997,
      "d": 47.619000000006054,
      "v": 85
    },
    {
      "midi": 62,
      "hit": false,
      "t": 107285.6069999997,
      "d": 53.571374999999534,
      "v": 70
    },
    {
      "midi": 66,
      "hit": false,
      "t": 107285.6069999997,
      "d": 65.47612500000105,
      "v": 89
    },
    {
      "midi": 47,
      "hit": false,
      "t": 107285.60699999997,
      "d": 83.33324999999604,
      "v": 127
    },
    {
      "midi": 47,
      "hit": false,
      "t": 107428.4639999997,
      "d": 89.28562500000407,
      "v": 123
    },
    {
      "midi": 35,
      "hit": false,
      "t": 107428.46399999996,
      "d": 122.02368749999732,
      "v": 127
    },
    {
      "midi": 66,
      "hit": false,
      "t": 107571.3209999997,
      "d": 65.47612500000105,
      "v": 79
    },
    {
      "midi": 71,
      "hit": false,
      "t": 107571.3209999997,
      "d": 68.45231249999779,
      "v": 89
    },
    {
      "midi": 62,
      "hit": false,
      "t": 107571.3209999997,
      "d": 74.40468749999127,
      "v": 70
    },
    {
      "midi": 47,
      "hit": false,
      "t": 107571.3209999997,
      "d": 86.30943749999278,
      "v": 86
    },
    {
      "midi": 47,
      "hit": false,
      "t": 107571.32099999997,
      "d": 74.40468750000582,
      "v": 127
    },
    {
      "midi": 47,
      "hit": false,
      "t": 107714.1779999997,
      "d": 95.23799999999756,
      "v": 115
    },
    {
      "midi": 50,
      "hit": false,
      "t": 107714.17799999997,
      "d": 71.42849999999453,
      "v": 127
    },
    {
      "midi": 54,
      "hit": false,
      "t": 107714.17799999997,
      "d": 80.3570624999993,
      "v": 127
    },
    {
      "midi": 62,
      "hit": false,
      "t": 107857.0349999997,
      "d": 68.45231249999779,
      "v": 66
    },
    {
      "midi": 71,
      "hit": false,
      "t": 107857.0349999997,
      "d": 68.45231249999779,
      "v": 85
    },
    {
      "midi": 66,
      "hit": false,
      "t": 107857.0349999997,
      "d": 74.40468749999127,
      "v": 83
    },
    {
      "midi": 47,
      "hit": false,
      "t": 107857.0349999997,
      "d": 95.23799999999756,
      "v": 112
    },
    {
      "midi": 47,
      "hit": false,
      "t": 107857.03499999997,
      "d": 77.38087500000256,
      "v": 127
    },
    {
      "midi": 35,
      "hit": false,
      "t": 107999.89199999998,
      "d": 127.97606250000536,
      "v": 127
    },
    {
      "midi": 45,
      "hit": false,
      "t": 108142.74899999969,
      "d": 50.595187500002794,
      "v": 92
    },
    {
      "midi": 66,
      "hit": false,
      "t": 108142.74899999969,
      "d": 74.40468750000582,
      "v": 77
    },
    {
      "midi": 71,
      "hit": false,
      "t": 108142.74899999969,
      "d": 74.40468750000582,
      "v": 88
    },
    {
      "midi": 62,
      "hit": false,
      "t": 108142.74899999969,
      "d": 80.3570624999993,
      "v": 68
    },
    {
      "midi": 47,
      "hit": false,
      "t": 108142.74899999998,
      "d": 80.3570624999993,
      "v": 127
    },
    {
      "midi": 47,
      "hit": false,
      "t": 108285.6059999997,
      "d": 145.83318750000035,
      "v": 109
    },
    {
      "midi": 50,
      "hit": false,
      "t": 108285.60599999999,
      "d": 59.523749999993015,
      "v": 127
    },
    {
      "midi": 54,
      "hit": false,
      "t": 108285.60599999999,
      "d": 86.30943749999278,
      "v": 127
    },
    {
      "midi": 71,
      "hit": false,
      "t": 108428.4629999997,
      "d": 71.42849999999453,
      "v": 88
    },
    {
      "midi": 62,
      "hit": false,
      "t": 108428.4629999997,
      "d": 74.40468749999127,
      "v": 70
    },
    {
      "midi": 66,
      "hit": false,
      "t": 108428.4629999997,
      "d": 74.40468749999127,
      "v": 81
    },
    {
      "midi": 47,
      "hit": false,
      "t": 108428.46299999997,
      "d": 83.33324999999604,
      "v": 127
    },
    {
      "midi": 35,
      "hit": false,
      "t": 108571.31999999996,
      "d": 136.90462499999558,
      "v": 127
    },
    {
      "midi": 47,
      "hit": false,
      "t": 108714.17699999969,
      "d": 65.47612500000105,
      "v": 103
    },
    {
      "midi": 71,
      "hit": false,
      "t": 108714.17699999969,
      "d": 68.45231249999779,
      "v": 89
    },
    {
      "midi": 62,
      "hit": false,
      "t": 108714.17699999969,
      "d": 71.42849999999453,
      "v": 68
    },
    {
      "midi": 66,
      "hit": false,
      "t": 108714.17699999969,
      "d": 71.42849999999453,
      "v": 85
    },
    {
      "midi": 47,
      "hit": false,
      "t": 108714.17699999995,
      "d": 95.23799999999756,
      "v": 127
    },
    {
      "midi": 49,
      "hit": false,
      "t": 108857.03399999968,
      "d": 151.78556250000838,
      "v": 124
    },
    {
      "midi": 50,
      "hit": false,
      "t": 108857.03399999996,
      "d": 77.38087500000256,
      "v": 127
    },
    {
      "midi": 54,
      "hit": false,
      "t": 108857.03399999996,
      "d": 86.30943750000733,
      "v": 127
    },
    {
      "midi": 71,
      "hit": false,
      "t": 108999.89099999968,
      "d": 53.571374999999534,
      "v": 85
    },
    {
      "midi": 62,
      "hit": false,
      "t": 108999.89099999968,
      "d": 65.47612500000105,
      "v": 66
    },
    {
      "midi": 66,
      "hit": false,
      "t": 108999.89099999968,
      "d": 68.45231249999779,
      "v": 85
    },
    {
      "midi": 47,
      "hit": false,
      "t": 108999.89099999996,
      "d": 86.30943749999278,
      "v": 127
    },
    {
      "midi": 71,
      "hit": false,
      "t": 109142.74799999969,
      "d": 104.16656250000233,
      "v": 117
    },
    {
      "midi": 74,
      "hit": false,
      "t": 109142.74799999969,
      "d": 145.83318750000035,
      "v": 97
    },
    {
      "midi": 50,
      "hit": false,
      "t": 109142.74799999969,
      "d": 187.49981249999837,
      "v": 103
    },
    {
      "midi": 35,
      "hit": false,
      "t": 109142.74799999995,
      "d": 148.8093749999971,
      "v": 127
    },
    {
      "midi": 66,
      "hit": false,
      "t": 109285.60499999969,
      "d": 68.45231249999779,
      "v": 81
    },
    {
      "midi": 69,
      "hit": false,
      "t": 109285.60499999969,
      "d": 68.45231249999779,
      "v": 120
    },
    {
      "midi": 71,
      "hit": false,
      "t": 109285.60499999969,
      "d": 68.45231249999779,
      "v": 88
    },
    {
      "midi": 62,
      "hit": false,
      "t": 109285.60499999969,
      "d": 74.40468749999127,
      "v": 67
    },
    {
      "midi": 47,
      "hit": false,
      "t": 109285.60499999995,
      "d": 89.28562499998952,
      "v": 127
    },
    {
      "midi": 49,
      "hit": false,
      "t": 109428.46199999968,
      "d": 68.45231249999779,
      "v": 124
    },
    {
      "midi": 50,
      "hit": false,
      "t": 109428.46199999994,
      "d": 71.42849999999453,
      "v": 127
    },
    {
      "midi": 54,
      "hit": false,
      "t": 109428.46199999994,
      "d": 83.33324999999604,
      "v": 127
    },
    {
      "midi": 62,
      "hit": false,
      "t": 109571.31899999968,
      "d": 53.571374999999534,
      "v": 80
    },
    {
      "midi": 66,
      "hit": false,
      "t": 109571.31899999968,
      "d": 56.547562499996275,
      "v": 85
    },
    {
      "midi": 71,
      "hit": false,
      "t": 109571.31899999968,
      "d": 59.523749999993015,
      "v": 92
    },
    {
      "midi": 47,
      "hit": false,
      "t": 109571.31899999993,
      "d": 53.571374999999534,
      "v": 127
    },
    {
      "midi": 47,
      "hit": false,
      "t": 109714.17599999967,
      "d": 62.49993750000431,
      "v": 117
    },
    {
      "midi": 36,
      "hit": false,
      "t": 109714.17599999993,
      "d": 68.45231249999779,
      "v": 127
    },
    {
      "midi": 35,
      "hit": false,
      "t": 109714.17599999993,
      "d": 80.3570624999993,
      "v": 127
    },
    {
      "midi": 66,
      "hit": false,
      "t": 109857.03299999968,
      "d": 50.595187500002794,
      "v": 83
    },
    {
      "midi": 62,
      "hit": false,
      "t": 109857.03299999968,
      "d": 56.547562499996275,
      "v": 83
    },
    {
      "midi": 71,
      "hit": false,
      "t": 109857.03299999968,
      "d": 59.523749999993015,
      "v": 94
    },
    {
      "midi": 47,
      "hit": false,
      "t": 109857.03299999968,
      "d": 74.40468749999127,
      "v": 101
    },
    {
      "midi": 47,
      "hit": false,
      "t": 109857.03299999994,
      "d": 56.547562499996275,
      "v": 127
    },
    {
      "midi": 47,
      "hit": false,
      "t": 109999.88999999966,
      "d": 77.38087500000256,
      "v": 97
    },
    {
      "midi": 50,
      "hit": false,
      "t": 109999.88999999993,
      "d": 95.23799999999756,
      "v": 127
    },
    {
      "midi": 54,
      "hit": false,
      "t": 109999.88999999993,
      "d": 95.23799999999756,
      "v": 127
    },
    {
      "midi": 66,
      "hit": false,
      "t": 110142.74699999967,
      "d": 32.73806249999325,
      "v": 50
    },
    {
      "midi": 71,
      "hit": false,
      "t": 110142.74699999967,
      "d": 41.66662499999802,
      "v": 74
    },
    {
      "midi": 62,
      "hit": false,
      "t": 110142.74699999967,
      "d": 44.64281249999476,
      "v": 50
    },
    {
      "midi": 47,
      "hit": false,
      "t": 110142.74699999967,
      "d": 92.26181250000081,
      "v": 112
    },
    {
      "midi": 47,
      "hit": false,
      "t": 110142.74699999993,
      "d": 59.523749999993015,
      "v": 127
    },
    {
      "midi": 35,
      "hit": false,
      "t": 110285.60399999992,
      "d": 119.04750000000058,
      "v": 127
    },
    {
      "midi": 45,
      "hit": false,
      "t": 110428.46099999968,
      "d": 53.571374999999534,
      "v": 89
    },
    {
      "midi": 66,
      "hit": false,
      "t": 110428.46099999968,
      "d": 53.571374999999534,
      "v": 83
    },
    {
      "midi": 62,
      "hit": false,
      "t": 110428.46099999968,
      "d": 56.547562499996275,
      "v": 79
    },
    {
      "midi": 71,
      "hit": false,
      "t": 110428.46099999968,
      "d": 56.547562499996275,
      "v": 91
    },
    {
      "midi": 47,
      "hit": false,
      "t": 110428.46099999992,
      "d": 68.45231249999779,
      "v": 127
    },
    {
      "midi": 47,
      "hit": false,
      "t": 110571.31799999966,
      "d": 142.8570000000036,
      "v": 107
    },
    {
      "midi": 50,
      "hit": false,
      "t": 110571.31799999993,
      "d": 65.47612500000105,
      "v": 127
    },
    {
      "midi": 54,
      "hit": false,
      "t": 110571.31799999993,
      "d": 71.42849999999453,
      "v": 127
    },
    {
      "midi": 71,
      "hit": false,
      "t": 110714.17499999967,
      "d": 59.523749999993015,
      "v": 89
    },
    {
      "midi": 66,
      "hit": false,
      "t": 110714.17499999967,
      "d": 62.499937499989755,
      "v": 83
    },
    {
      "midi": 62,
      "hit": false,
      "t": 110714.17499999967,
      "d": 68.45231249998324,
      "v": 74
    },
    {
      "midi": 47,
      "hit": false,
      "t": 110714.17499999992,
      "d": 68.45231249999779,
      "v": 127
    },
    {
      "midi": 35,
      "hit": false,
      "t": 110857.03199999992,
      "d": 107.14274999999907,
      "v": 127
    },
    {
      "midi": 47,
      "hit": false,
      "t": 110999.88899999965,
      "d": 53.571374999999534,
      "v": 79
    },
    {
      "midi": 71,
      "hit": false,
      "t": 110999.88899999965,
      "d": 62.49993750000431,
      "v": 82
    },
    {
      "midi": 66,
      "hit": false,
      "t": 110999.88899999965,
      "d": 65.47612500000105,
      "v": 72
    },
    {
      "midi": 62,
      "hit": false,
      "t": 110999.88899999965,
      "d": 74.40468750000582,
      "v": 60
    },
    {
      "midi": 47,
      "hit": false,
      "t": 110999.88899999992,
      "d": 65.47612500000105,
      "v": 127
    },
    {
      "midi": 49,
      "hit": false,
      "t": 111142.74599999965,
      "d": 157.73793750000186,
      "v": 121
    },
    {
      "midi": 50,
      "hit": false,
      "t": 111142.74599999993,
      "d": 59.523749999993015,
      "v": 127
    },
    {
      "midi": 54,
      "hit": false,
      "t": 111142.74599999993,
      "d": 83.33324999999604,
      "v": 127
    },
    {
      "midi": 71,
      "hit": false,
      "t": 111285.60299999965,
      "d": 62.49993750000431,
      "v": 83
    },
    {
      "midi": 66,
      "hit": false,
      "t": 111285.60299999965,
      "d": 65.47612500000105,
      "v": 75
    },
    {
      "midi": 62,
      "hit": false,
      "t": 111285.60299999965,
      "d": 74.40468750000582,
      "v": 65
    },
    {
      "midi": 47,
      "hit": false,
      "t": 111285.60299999992,
      "d": 65.47612500000105,
      "v": 127
    },
    {
      "midi": 50,
      "hit": false,
      "t": 111428.45999999966,
      "d": 190.47600000000966,
      "v": 107
    },
    {
      "midi": 74,
      "hit": false,
      "t": 111428.45999999966,
      "d": 241.07118750001246,
      "v": 101
    },
    {
      "midi": 35,
      "hit": false,
      "t": 111428.45999999992,
      "d": 107.14274999999907,
      "v": 127
    },
    {
      "midi": 71,
      "hit": false,
      "t": 111571.31699999966,
      "d": 62.49993750000431,
      "v": 74
    },
    {
      "midi": 66,
      "hit": false,
      "t": 111571.31699999966,
      "d": 68.45231249999779,
      "v": 69
    },
    {
      "midi": 62,
      "hit": false,
      "t": 111571.31699999966,
      "d": 77.38087500000256,
      "v": 58
    },
    {
      "midi": 47,
      "hit": false,
      "t": 111571.31699999992,
      "d": 77.38087500000256,
      "v": 127
    },
    {
      "midi": 69,
      "hit": false,
      "t": 111714.17399999966,
      "d": 56.547562499996275,
      "v": 107
    },
    {
      "midi": 49,
      "hit": false,
      "t": 111714.17399999966,
      "d": 136.90462499999558,
      "v": 124
    },
    {
      "midi": 50,
      "hit": false,
      "t": 111714.17399999993,
      "d": 80.3570624999993,
      "v": 127
    },
    {
      "midi": 54,
      "hit": false,
      "t": 111714.17399999993,
      "d": 89.28562500000407,
      "v": 127
    },
    {
      "midi": 71,
      "hit": false,
      "t": 111857.03099999965,
      "d": 59.523749999993015,
      "v": 85
    },
    {
      "midi": 66,
      "hit": false,
      "t": 111857.03099999965,
      "d": 62.499937499989755,
      "v": 79
    },
    {
      "midi": 62,
      "hit": false,
      "t": 111857.03099999965,
      "d": 71.42849999999453,
      "v": 66
    },
    {
      "midi": 47,
      "hit": false,
      "t": 111857.03099999993,
      "d": 77.38087500000256,
      "v": 127
    },
    {
      "midi": 47,
      "hit": false,
      "t": 111999.88799999964,
      "d": 104.16656250000233,
      "v": 117
    },
    {
      "midi": 35,
      "hit": false,
      "t": 111999.88799999993,
      "d": 119.04750000000058,
      "v": 127
    },
    {
      "midi": 66,
      "hit": false,
      "t": 112142.74499999965,
      "d": 62.49993750000431,
      "v": 79
    },
    {
      "midi": 62,
      "hit": false,
      "t": 112142.74499999965,
      "d": 68.45231249999779,
      "v": 60
    },
    {
      "midi": 71,
      "hit": false,
      "t": 112142.74499999965,
      "d": 68.45231249999779,
      "v": 83
    },
    {
      "midi": 47,
      "hit": false,
      "t": 112142.74499999965,
      "d": 74.40468749999127,
      "v": 101
    },
    {
      "midi": 47,
      "hit": false,
      "t": 112142.74499999994,
      "d": 65.47612500000105,
      "v": 127
    },
    {
      "midi": 47,
      "hit": false,
      "t": 112285.60199999964,
      "d": 89.28562500000407,
      "v": 103
    },
    {
      "midi": 50,
      "hit": false,
      "t": 112285.60199999994,
      "d": 62.49993750000431,
      "v": 127
    },
    {
      "midi": 54,
      "hit": false,
      "t": 112285.60199999994,
      "d": 83.3332500000106,
      "v": 127
    },
    {
      "midi": 71,
      "hit": false,
      "t": 112428.45899999964,
      "d": 59.523749999993015,
      "v": 82
    },
    {
      "midi": 62,
      "hit": false,
      "t": 112428.45899999964,
      "d": 62.499937499989755,
      "v": 58
    },
    {
      "midi": 66,
      "hit": false,
      "t": 112428.45899999964,
      "d": 65.4761249999865,
      "v": 75
    },
    {
      "midi": 47,
      "hit": false,
      "t": 112428.45899999964,
      "d": 89.28562499998952,
      "v": 117
    },
    {
      "midi": 47,
      "hit": false,
      "t": 112428.45899999994,
      "d": 77.38087500000256,
      "v": 127
    },
    {
      "midi": 35,
      "hit": false,
      "t": 112571.31599999995,
      "d": 116.07131250000384,
      "v": 127
    },
    {
      "midi": 45,
      "hit": false,
      "t": 112714.17299999963,
      "d": 62.49993750000431,
      "v": 94
    },
    {
      "midi": 71,
      "hit": false,
      "t": 112714.17299999963,
      "d": 62.49993750000431,
      "v": 86
    },
    {
      "midi": 66,
      "hit": false,
      "t": 112714.17299999963,
      "d": 65.47612500000105,
      "v": 77
    },
    {
      "midi": 62,
      "hit": false,
      "t": 112714.17299999963,
      "d": 68.45231249999779,
      "v": 67
    },
    {
      "midi": 47,
      "hit": false,
      "t": 112714.17299999995,
      "d": 80.3570624999993,
      "v": 127
    },
    {
      "midi": 47,
      "hit": false,
      "t": 112857.02999999964,
      "d": 160.7141249999986,
      "v": 103
    },
    {
      "midi": 50,
      "hit": false,
      "t": 112857.02999999996,
      "d": 71.42849999999453,
      "v": 127
    },
    {
      "midi": 54,
      "hit": false,
      "t": 112857.02999999996,
      "d": 86.30943749999278,
      "v": 127
    },
    {
      "midi": 71,
      "hit": false,
      "t": 112999.88699999964,
      "d": 53.571374999999534,
      "v": 79
    },
    {
      "midi": 62,
      "hit": false,
      "t": 112999.88699999964,
      "d": 62.49993750000431,
      "v": 60
    },
    {
      "midi": 66,
      "hit": false,
      "t": 112999.88699999964,
      "d": 65.47612500000105,
      "v": 81
    },
    {
      "midi": 47,
      "hit": false,
      "t": 112999.88699999994,
      "d": 68.45231249999779,
      "v": 127
    },
    {
      "midi": 35,
      "hit": false,
      "t": 113142.74399999995,
      "d": 122.02368749999732,
      "v": 127
    },
    {
      "midi": 71,
      "hit": false,
      "t": 113285.60099999965,
      "d": 53.571374999999534,
      "v": 83
    },
    {
      "midi": 66,
      "hit": false,
      "t": 113285.60099999965,
      "d": 59.523749999993015,
      "v": 77
    },
    {
      "midi": 62,
      "hit": false,
      "t": 113285.60099999965,
      "d": 62.499937499989755,
      "v": 66
    },
    {
      "midi": 47,
      "hit": false,
      "t": 113285.60099999965,
      "d": 80.35706249998475,
      "v": 85
    },
    {
      "midi": 47,
      "hit": false,
      "t": 113285.60099999995,
      "d": 68.45231249999779,
      "v": 127
    },
    {
      "midi": 49,
      "hit": false,
      "t": 113428.45799999963,
      "d": 124.99987499999406,
      "v": 127
    },
    {
      "midi": 50,
      "hit": false,
      "t": 113428.45799999996,
      "d": 77.38087500000256,
      "v": 127
    },
    {
      "midi": 54,
      "hit": false,
      "t": 113428.45799999996,
      "d": 83.33324999999604,
      "v": 127
    },
    {
      "midi": 66,
      "hit": false,
      "t": 113571.31499999962,
      "d": 53.571374999999534,
      "v": 81
    },
    {
      "midi": 71,
      "hit": false,
      "t": 113571.31499999962,
      "d": 53.571374999999534,
      "v": 85
    },
    {
      "midi": 62,
      "hit": false,
      "t": 113571.31499999962,
      "d": 59.523749999993015,
      "v": 68
    },
    {
      "midi": 47,
      "hit": false,
      "t": 113571.31499999994,
      "d": 71.42849999999453,
      "v": 127
    },
    {
      "midi": 71,
      "hit": false,
      "t": 113714.17199999961,
      "d": 133.92843749999884,
      "v": 112
    },
    {
      "midi": 50,
      "hit": false,
      "t": 113714.17199999961,
      "d": 154.76175000000512,
      "v": 109
    },
    {
      "midi": 74,
      "hit": false,
      "t": 113714.17199999961,
      "d": 178.57125000000815,
      "v": 105
    },
    {
      "midi": 35,
      "hit": false,
      "t": 113714.17199999993,
      "d": 122.02368749999732,
      "v": 127
    },
    {
      "midi": 71,
      "hit": false,
      "t": 113857.02899999962,
      "d": 56.54756250001083,
      "v": 85
    },
    {
      "midi": 66,
      "hit": false,
      "t": 113857.02899999962,
      "d": 59.52375000000757,
      "v": 77
    },
    {
      "midi": 62,
      "hit": false,
      "t": 113857.02899999962,
      "d": 65.47612500000105,
      "v": 65
    },
    {
      "midi": 69,
      "hit": false,
      "t": 113857.02899999962,
      "d": 98.2141874999943,
      "v": 115
    },
    {
      "midi": 47,
      "hit": false,
      "t": 113857.02899999994,
      "d": 80.3570624999993,
      "v": 127
    },
    {
      "midi": 49,
      "hit": false,
      "t": 113999.8859999996,
      "d": 104.16656250000233,
      "v": 127
    },
    {
      "midi": 50,
      "hit": false,
      "t": 113999.88599999994,
      "d": 71.42849999999453,
      "v": 127
    },
    {
      "midi": 54,
      "hit": false,
      "t": 113999.88599999994,
      "d": 80.3570624999993,
      "v": 127
    },
    {
      "midi": 71,
      "hit": false,
      "t": 114142.74299999961,
      "d": 56.547562499996275,
      "v": 83
    },
    {
      "midi": 66,
      "hit": false,
      "t": 114142.74299999961,
      "d": 59.523749999993015,
      "v": 79
    },
    {
      "midi": 62,
      "hit": false,
      "t": 114142.74299999961,
      "d": 62.499937499989755,
      "v": 68
    },
    {
      "midi": 47,
      "hit": false,
      "t": 114142.74299999994,
      "d": 62.49993750000431,
      "v": 127
    },
    {
      "midi": 47,
      "hit": false,
      "t": 114285.5999999996,
      "d": 95.23799999999756,
      "v": 123
    },
    {
      "midi": 35,
      "hit": false,
      "t": 114285.59999999995,
      "d": 122.02368749999732,
      "v": 127
    },
    {
      "midi": 66,
      "hit": false,
      "t": 114428.4569999996,
      "d": 50.595187500002794,
      "v": 73
    },
    {
      "midi": 71,
      "hit": false,
      "t": 114428.4569999996,
      "d": 50.595187500002794,
      "v": 83
    },
    {
      "midi": 62,
      "hit": false,
      "t": 114428.4569999996,
      "d": 56.547562499996275,
      "v": 67
    },
    {
      "midi": 47,
      "hit": false,
      "t": 114428.4569999996,
      "d": 83.33324999999604,
      "v": 95
    },
    {
      "midi": 47,
      "hit": false,
      "t": 114428.45699999995,
      "d": 86.30943749999278,
      "v": 127
    },
    {
      "midi": 47,
      "hit": false,
      "t": 114571.31399999959,
      "d": 119.04750000000058,
      "v": 125
    },
    {
      "midi": 50,
      "hit": false,
      "t": 114571.31399999994,
      "d": 74.40468750000582,
      "v": 127
    },
    {
      "midi": 54,
      "hit": false,
      "t": 114571.31399999994,
      "d": 83.3332500000106,
      "v": 127
    },
    {
      "midi": 71,
      "hit": false,
      "t": 114714.1709999996,
      "d": 56.547562499996275,
      "v": 85
    },
    {
      "midi": 66,
      "hit": false,
      "t": 114714.1709999996,
      "d": 59.523749999993015,
      "v": 81
    },
    {
      "midi": 62,
      "hit": false,
      "t": 114714.1709999996,
      "d": 68.45231249999779,
      "v": 70
    },
    {
      "midi": 47,
      "hit": false,
      "t": 114714.1709999996,
      "d": 92.26181250000081,
      "v": 123
    },
    {
      "midi": 47,
      "hit": false,
      "t": 114714.17099999994,
      "d": 86.30943749999278,
      "v": 127
    },
    {
      "midi": 35,
      "hit": false,
      "t": 114857.02799999993,
      "d": 122.02368749999732,
      "v": 127
    },
    {
      "midi": 45,
      "hit": false,
      "t": 114999.8849999996,
      "d": 56.547562499996275,
      "v": 77
    },
    {
      "midi": 71,
      "hit": false,
      "t": 114999.8849999996,
      "d": 59.523749999993015,
      "v": 85
    },
    {
      "midi": 66,
      "hit": false,
      "t": 114999.8849999996,
      "d": 62.499937499989755,
      "v": 77
    },
    {
      "midi": 62,
      "hit": false,
      "t": 114999.8849999996,
      "d": 68.45231249998324,
      "v": 61
    },
    {
      "midi": 47,
      "hit": false,
      "t": 114999.88499999994,
      "d": 92.26181250000081,
      "v": 127
    },
    {
      "midi": 47,
      "hit": false,
      "t": 115142.74199999959,
      "d": 139.88081250000687,
      "v": 109
    },
    {
      "midi": 50,
      "hit": false,
      "t": 115142.74199999994,
      "d": 77.38087500000256,
      "v": 127
    },
    {
      "midi": 54,
      "hit": false,
      "t": 115142.74199999994,
      "d": 77.38087500000256,
      "v": 127
    },
    {
      "midi": 71,
      "hit": false,
      "t": 115285.5989999996,
      "d": 56.547562499996275,
      "v": 88
    },
    {
      "midi": 62,
      "hit": false,
      "t": 115285.5989999996,
      "d": 62.499937499989755,
      "v": 71
    },
    {
      "midi": 66,
      "hit": false,
      "t": 115285.5989999996,
      "d": 62.499937499989755,
      "v": 85
    },
    {
      "midi": 47,
      "hit": false,
      "t": 115285.59899999994,
      "d": 74.40468750000582,
      "v": 127
    },
    {
      "midi": 35,
      "hit": false,
      "t": 115428.45599999995,
      "d": 127.97606250000536,
      "v": 127
    },
    {
      "midi": 66,
      "hit": false,
      "t": 115571.31299999959,
      "d": 65.47612500000105,
      "v": 81
    },
    {
      "midi": 71,
      "hit": false,
      "t": 115571.31299999959,
      "d": 65.47612500000105,
      "v": 86
    },
    {
      "midi": 62,
      "hit": false,
      "t": 115571.31299999959,
      "d": 68.45231249999779,
      "v": 66
    },
    {
      "midi": 47,
      "hit": false,
      "t": 115571.31299999959,
      "d": 80.3570624999993,
      "v": 115
    },
    {
      "midi": 47,
      "hit": false,
      "t": 115571.31299999995,
      "d": 89.28562500000407,
      "v": 127
    },
    {
      "midi": 49,
      "hit": false,
      "t": 115714.16999999959,
      "d": 136.90462499999558,
      "v": 127
    },
    {
      "midi": 54,
      "hit": false,
      "t": 115714.16999999995,
      "d": 74.40468750000582,
      "v": 127
    },
    {
      "midi": 50,
      "hit": false,
      "t": 115714.16999999995,
      "d": 80.3570624999993,
      "v": 127
    },
    {
      "midi": 62,
      "hit": false,
      "t": 115857.02699999958,
      "d": 59.523749999993015,
      "v": 53
    },
    {
      "midi": 71,
      "hit": false,
      "t": 115857.02699999958,
      "d": 59.523749999993015,
      "v": 80
    },
    {
      "midi": 66,
      "hit": false,
      "t": 115857.02699999958,
      "d": 65.4761249999865,
      "v": 77
    },
    {
      "midi": 47,
      "hit": false,
      "t": 115857.02699999996,
      "d": 71.42849999999453,
      "v": 127
    },
    {
      "midi": 50,
      "hit": false,
      "t": 115999.88399999957,
      "d": 172.61887500000012,
      "v": 103
    },
    {
      "midi": 74,
      "hit": false,
      "t": 115999.88399999957,
      "d": 264.8806874999864,
      "v": 103
    },
    {
      "midi": 35,
      "hit": false,
      "t": 115999.88399999995,
      "d": 107.14274999999907,
      "v": 127
    },
    {
      "midi": 66,
      "hit": false,
      "t": 116142.74099999957,
      "d": 71.42849999999453,
      "v": 83
    },
    {
      "midi": 71,
      "hit": false,
      "t": 116142.74099999957,
      "d": 71.42849999999453,
      "v": 91
    },
    {
      "midi": 62,
      "hit": false,
      "t": 116142.74099999957,
      "d": 77.38087499998801,
      "v": 72
    },
    {
      "midi": 47,
      "hit": false,
      "t": 116142.74099999995,
      "d": 77.38087500000256,
      "v": 127
    },
    {
      "midi": 69,
      "hit": false,
      "t": 116285.59799999956,
      "d": 53.571374999999534,
      "v": 105
    },
    {
      "midi": 49,
      "hit": false,
      "t": 116285.59799999956,
      "d": 92.26181250000081,
      "v": 127
    },
    {
      "midi": 50,
      "hit": false,
      "t": 116285.59799999995,
      "d": 71.42849999999453,
      "v": 127
    },
    {
      "midi": 54,
      "hit": false,
      "t": 116285.59799999995,
      "d": 74.40468749999127,
      "v": 127
    },
    {
      "midi": 71,
      "hit": false,
      "t": 116428.45499999957,
      "d": 47.619000000006054,
      "v": 85
    },
    {
      "midi": 62,
      "hit": false,
      "t": 116428.45499999957,
      "d": 53.571374999999534,
      "v": 70
    },
    {
      "midi": 66,
      "hit": false,
      "t": 116428.45499999957,
      "d": 65.47612500000105,
      "v": 89
    },
    {
      "midi": 47,
      "hit": false,
      "t": 116428.45499999994,
      "d": 83.33324999999604,
      "v": 127
    },
    {
      "midi": 47,
      "hit": false,
      "t": 116571.31199999957,
      "d": 89.28562500000407,
      "v": 123
    },
    {
      "midi": 35,
      "hit": false,
      "t": 116571.31199999993,
      "d": 122.02368749999732,
      "v": 127
    },
    {
      "midi": 66,
      "hit": false,
      "t": 116714.16899999957,
      "d": 65.47612500000105,
      "v": 79
    },
    {
      "midi": 71,
      "hit": false,
      "t": 116714.16899999957,
      "d": 68.45231249999779,
      "v": 89
    },
    {
      "midi": 62,
      "hit": false,
      "t": 116714.16899999957,
      "d": 74.40468749999127,
      "v": 70
    },
    {
      "midi": 47,
      "hit": false,
      "t": 116714.16899999957,
      "d": 86.30943749999278,
      "v": 86
    },
    {
      "midi": 47,
      "hit": false,
      "t": 116714.16899999994,
      "d": 74.40468750000582,
      "v": 127
    },
    {
      "midi": 47,
      "hit": false,
      "t": 116857.02599999956,
      "d": 95.23799999999756,
      "v": 115
    },
    {
      "midi": 50,
      "hit": false,
      "t": 116857.02599999994,
      "d": 71.42849999999453,
      "v": 127
    },
    {
      "midi": 54,
      "hit": false,
      "t": 116857.02599999994,
      "d": 80.3570624999993,
      "v": 127
    },
    {
      "midi": 62,
      "hit": false,
      "t": 116999.88299999957,
      "d": 68.45231249999779,
      "v": 66
    },
    {
      "midi": 71,
      "hit": false,
      "t": 116999.88299999957,
      "d": 68.45231249999779,
      "v": 85
    },
    {
      "midi": 66,
      "hit": false,
      "t": 116999.88299999957,
      "d": 74.40468749999127,
      "v": 83
    },
    {
      "midi": 47,
      "hit": false,
      "t": 116999.88299999957,
      "d": 95.23799999999756,
      "v": 112
    },
    {
      "midi": 47,
      "hit": false,
      "t": 116999.88299999994,
      "d": 77.38087500000256,
      "v": 127
    },
    {
      "midi": 35,
      "hit": false,
      "t": 117142.73999999995,
      "d": 127.97606250000536,
      "v": 127
    },
    {
      "midi": 45,
      "hit": false,
      "t": 117285.59699999956,
      "d": 50.595187500002794,
      "v": 92
    },
    {
      "midi": 66,
      "hit": false,
      "t": 117285.59699999956,
      "d": 74.40468750000582,
      "v": 77
    },
    {
      "midi": 71,
      "hit": false,
      "t": 117285.59699999956,
      "d": 74.40468750000582,
      "v": 88
    },
    {
      "midi": 62,
      "hit": false,
      "t": 117285.59699999956,
      "d": 80.3570624999993,
      "v": 68
    },
    {
      "midi": 47,
      "hit": false,
      "t": 117285.59699999995,
      "d": 80.3570624999993,
      "v": 127
    },
    {
      "midi": 47,
      "hit": false,
      "t": 117428.45399999956,
      "d": 145.83318750000035,
      "v": 109
    },
    {
      "midi": 50,
      "hit": false,
      "t": 117428.45399999995,
      "d": 59.523749999993015,
      "v": 127
    },
    {
      "midi": 54,
      "hit": false,
      "t": 117428.45399999995,
      "d": 86.30943749999278,
      "v": 127
    },
    {
      "midi": 71,
      "hit": false,
      "t": 117571.31099999956,
      "d": 71.42849999999453,
      "v": 88
    },
    {
      "midi": 62,
      "hit": false,
      "t": 117571.31099999956,
      "d": 74.40468749999127,
      "v": 70
    },
    {
      "midi": 66,
      "hit": false,
      "t": 117571.31099999956,
      "d": 74.40468749999127,
      "v": 81
    },
    {
      "midi": 47,
      "hit": false,
      "t": 117571.31099999994,
      "d": 83.33324999999604,
      "v": 127
    },
    {
      "midi": 35,
      "hit": false,
      "t": 117714.16799999993,
      "d": 136.90462499999558,
      "v": 127
    },
    {
      "midi": 47,
      "hit": false,
      "t": 117857.02499999956,
      "d": 65.47612500000105,
      "v": 103
    },
    {
      "midi": 71,
      "hit": false,
      "t": 117857.02499999956,
      "d": 68.45231249999779,
      "v": 89
    },
    {
      "midi": 62,
      "hit": false,
      "t": 117857.02499999956,
      "d": 71.42849999999453,
      "v": 68
    },
    {
      "midi": 66,
      "hit": false,
      "t": 117857.02499999956,
      "d": 71.42849999999453,
      "v": 85
    },
    {
      "midi": 47,
      "hit": false,
      "t": 117857.02499999992,
      "d": 95.23799999999756,
      "v": 127
    },
    {
      "midi": 49,
      "hit": false,
      "t": 117999.88199999955,
      "d": 151.78556250000838,
      "v": 124
    },
    {
      "midi": 50,
      "hit": false,
      "t": 117999.88199999993,
      "d": 77.38087500000256,
      "v": 127
    },
    {
      "midi": 54,
      "hit": false,
      "t": 117999.88199999993,
      "d": 86.30943750000733,
      "v": 127
    },
    {
      "midi": 71,
      "hit": false,
      "t": 118142.73899999955,
      "d": 53.571374999999534,
      "v": 85
    },
    {
      "midi": 62,
      "hit": false,
      "t": 118142.73899999955,
      "d": 65.47612500000105,
      "v": 66
    },
    {
      "midi": 66,
      "hit": false,
      "t": 118142.73899999955,
      "d": 68.45231249999779,
      "v": 85
    },
    {
      "midi": 47,
      "hit": false,
      "t": 118142.73899999993,
      "d": 86.30943749999278,
      "v": 127
    },
    {
      "midi": 71,
      "hit": false,
      "t": 118285.59599999955,
      "d": 104.16656250000233,
      "v": 117
    },
    {
      "midi": 74,
      "hit": false,
      "t": 118285.59599999955,
      "d": 145.83318750000035,
      "v": 97
    },
    {
      "midi": 50,
      "hit": false,
      "t": 118285.59599999955,
      "d": 187.49981249999837,
      "v": 103
    },
    {
      "midi": 35,
      "hit": false,
      "t": 118285.59599999992,
      "d": 148.8093749999971,
      "v": 127
    },
    {
      "midi": 66,
      "hit": false,
      "t": 118428.45299999956,
      "d": 68.45231249999779,
      "v": 81
    },
    {
      "midi": 69,
      "hit": false,
      "t": 118428.45299999956,
      "d": 68.45231249999779,
      "v": 120
    },
    {
      "midi": 71,
      "hit": false,
      "t": 118428.45299999956,
      "d": 68.45231249999779,
      "v": 88
    },
    {
      "midi": 62,
      "hit": false,
      "t": 118428.45299999956,
      "d": 74.40468749999127,
      "v": 67
    },
    {
      "midi": 47,
      "hit": false,
      "t": 118428.45299999992,
      "d": 89.28562499998952,
      "v": 127
    },
    {
      "midi": 49,
      "hit": false,
      "t": 118571.30999999955,
      "d": 68.45231249999779,
      "v": 124
    },
    {
      "midi": 50,
      "hit": false,
      "t": 118571.30999999991,
      "d": 71.42849999999453,
      "v": 127
    },
    {
      "midi": 54,
      "hit": false,
      "t": 118571.30999999991,
      "d": 83.33324999999604,
      "v": 127
    },
    {
      "midi": 62,
      "hit": false,
      "t": 118714.16699999955,
      "d": 53.571374999999534,
      "v": 80
    },
    {
      "midi": 66,
      "hit": false,
      "t": 118714.16699999955,
      "d": 56.547562499996275,
      "v": 85
    },
    {
      "midi": 71,
      "hit": false,
      "t": 118714.16699999955,
      "d": 59.523749999993015,
      "v": 92
    },
    {
      "midi": 47,
      "hit": false,
      "t": 118714.1669999999,
      "d": 53.571374999999534,
      "v": 127
    },
    {
      "midi": 47,
      "hit": false,
      "t": 118857.02399999954,
      "d": 62.49993750000431,
      "v": 123
    },
    {
      "midi": 35,
      "hit": false,
      "t": 118857.0239999999,
      "d": 101.19037500000559,
      "v": 127
    },
    {
      "midi": 47,
      "hit": false,
      "t": 118999.88099999954,
      "d": 65.47612500000105,
      "v": 109
    },
    {
      "midi": 47,
      "hit": false,
      "t": 118999.8809999999,
      "d": 59.523749999993015,
      "v": 127
    },
    {
      "midi": 47,
      "hit": false,
      "t": 119142.73799999955,
      "d": 68.45231249999779,
      "v": 127
    },
    {
      "midi": 50,
      "hit": false,
      "t": 119142.7379999999,
      "d": 68.45231249999779,
      "v": 127
    },
    {
      "midi": 54,
      "hit": false,
      "t": 119142.7379999999,
      "d": 80.3570624999993,
      "v": 127
    },
    {
      "midi": 47,
      "hit": false,
      "t": 119285.59499999955,
      "d": 23.809500000003027,
      "v": 89
    },
    {
      "midi": 42,
      "hit": false,
      "t": 119428.45199999989,
      "d": 77.38087500000256,
      "v": 127
    },
    {
      "midi": 47,
      "hit": false,
      "t": 119571.30899999989,
      "d": 56.547562499996275,
      "v": 127
    },
    {
      "midi": 50,
      "hit": false,
      "t": 119714.16599999988,
      "d": 65.47612500000105,
      "v": 127
    },
    {
      "midi": 54,
      "hit": false,
      "t": 119714.16599999988,
      "d": 89.28562500000407,
      "v": 127
    },
    {
      "midi": 47,
      "hit": false,
      "t": 119857.02299999988,
      "d": 29.761874999996508,
      "v": 127
    },
    {
      "midi": 35,
      "hit": false,
      "t": 119999.87999999989,
      "d": 122.02368749999732,
      "v": 127
    },
    {
      "midi": 47,
      "hit": false,
      "t": 120142.73699999989,
      "d": 65.47612500000105,
      "v": 127
    },
    {
      "midi": 50,
      "hit": false,
      "t": 120285.5939999999,
      "d": 56.547562499996275,
      "v": 127
    },
    {
      "midi": 54,
      "hit": false,
      "t": 120285.5939999999,
      "d": 80.3570624999993,
      "v": 127
    },
    {
      "midi": 47,
      "hit": false,
      "t": 120428.4509999999,
      "d": 35.71425000000454,
      "v": 127
    },
    {
      "midi": 66,
      "hit": false,
      "t": 120571.30799999955,
      "d": 249.99975000000268,
      "v": 114
    },
    {
      "midi": 59,
      "hit": false,
      "t": 120571.30799999955,
      "d": 255.95212499999616,
      "v": 112
    },
    {
      "midi": 62,
      "hit": false,
      "t": 120571.30799999955,
      "d": 255.95212499999616,
      "v": 109
    },
    {
      "midi": 42,
      "hit": false,
      "t": 120571.3079999999,
      "d": 71.42849999999453,
      "v": 127
    },
    {
      "midi": 47,
      "hit": false,
      "t": 120714.16499999989,
      "d": 56.547562499996275,
      "v": 127
    },
    {
      "midi": 54,
      "hit": false,
      "t": 120857.02199999988,
      "d": 65.47612500000105,
      "v": 127
    },
    {
      "midi": 50,
      "hit": false,
      "t": 120857.02199999988,
      "d": 71.42849999999453,
      "v": 127
    },
    {
      "midi": 47,
      "hit": false,
      "t": 120999.87899999987,
      "d": 56.547562499996275,
      "v": 127
    },
    {
      "midi": 47,
      "hit": false,
      "t": 121142.73599999955,
      "d": 80.3570624999993,
      "v": 127
    },
    {
      "midi": 35,
      "hit": false,
      "t": 121142.73599999986,
      "d": 127.97606250000536,
      "v": 127
    },
    {
      "midi": 47,
      "hit": false,
      "t": 121285.59299999956,
      "d": 71.42849999999453,
      "v": 112
    },
    {
      "midi": 47,
      "hit": false,
      "t": 121285.59299999986,
      "d": 56.547562499996275,
      "v": 127
    },
    {
      "midi": 47,
      "hit": false,
      "t": 121428.44999999955,
      "d": 68.45231249999779,
      "v": 127
    },
    {
      "midi": 50,
      "hit": false,
      "t": 121428.44999999985,
      "d": 47.619000000006054,
      "v": 127
    },
    {
      "midi": 54,
      "hit": false,
      "t": 121428.44999999985,
      "d": 74.40468750000582,
      "v": 127
    },
    {
      "midi": 47,
      "hit": false,
      "t": 121571.30699999955,
      "d": 50.595187500002794,
      "v": 117
    },
    {
      "midi": 47,
      "hit": false,
      "t": 121571.30699999986,
      "d": 50.595187500002794,
      "v": 127
    },
    {
      "midi": 42,
      "hit": false,
      "t": 121714.16399999986,
      "d": 65.47612500000105,
      "v": 127
    },
    {
      "midi": 47,
      "hit": false,
      "t": 121857.02099999986,
      "d": 44.64281249999476,
      "v": 127
    },
    {
      "midi": 50,
      "hit": false,
      "t": 121999.87799999985,
      "d": 35.71425000000454,
      "v": 127
    },
    {
      "midi": 54,
      "hit": false,
      "t": 121999.87799999985,
      "d": 74.40468750000582,
      "v": 127
    },
    {
      "midi": 47,
      "hit": false,
      "t": 122142.73499999986,
      "d": 56.547562499996275,
      "v": 127
    },
    {
      "midi": 35,
      "hit": false,
      "t": 122285.59199999984,
      "d": 133.92843749999884,
      "v": 127
    },
    {
      "midi": 47,
      "hit": false,
      "t": 122428.44899999985,
      "d": 71.42849999999453,
      "v": 127
    },
    {
      "midi": 50,
      "hit": false,
      "t": 122571.30599999984,
      "d": 50.595187500002794,
      "v": 127
    },
    {
      "midi": 54,
      "hit": false,
      "t": 122571.30599999984,
      "d": 71.42850000000908,
      "v": 127
    },
    {
      "midi": 47,
      "hit": false,
      "t": 122714.16299999984,
      "d": 44.64281249999476,
      "v": 127
    },
    {
      "midi": 66,
      "hit": false,
      "t": 122857.01999999955,
      "d": 285.7140000000072,
      "v": 100
    },
    {
      "midi": 59,
      "hit": false,
      "t": 122857.01999999955,
      "d": 288.69018750000396,
      "v": 105
    },
    {
      "midi": 62,
      "hit": false,
      "t": 122857.01999999955,
      "d": 294.64256249999744,
      "v": 97
    },
    {
      "midi": 42,
      "hit": false,
      "t": 122857.01999999983,
      "d": 65.47612500000105,
      "v": 127
    },
    {
      "midi": 47,
      "hit": false,
      "t": 122999.87699999983,
      "d": 59.523749999993015,
      "v": 127
    },
    {
      "midi": 50,
      "hit": false,
      "t": 123142.73399999982,
      "d": 62.49993750000431,
      "v": 127
    },
    {
      "midi": 54,
      "hit": false,
      "t": 123142.73399999982,
      "d": 80.3570624999993,
      "v": 127
    },
    {
      "midi": 47,
      "hit": false,
      "t": 123285.59099999983,
      "d": 83.33324999999604,
      "v": 127
    },
    {
      "midi": 40,
      "hit": false,
      "t": 123428.44799999955,
      "d": 71.42849999999453,
      "v": 123
    },
    {
      "midi": 35,
      "hit": false,
      "t": 123428.44799999981,
      "d": 116.07131250000384,
      "v": 127
    },
    {
      "midi": 40,
      "hit": false,
      "t": 123571.30499999954,
      "d": 68.45231249999779,
      "v": 107
    },
    {
      "midi": 47,
      "hit": false,
      "t": 123571.30499999982,
      "d": 68.45231249999779,
      "v": 127
    },
    {
      "midi": 52,
      "hit": false,
      "t": 123714.16199999982,
      "d": 71.42849999999453,
      "v": 127
    },
    {
      "midi": 55,
      "hit": false,
      "t": 123714.16199999982,
      "d": 71.42849999999453,
      "v": 127
    },
    {
      "midi": 40,
      "hit": false,
      "t": 123857.01899999953,
      "d": 71.42849999999453,
      "v": 117
    },
    {
      "midi": 47,
      "hit": false,
      "t": 123857.01899999981,
      "d": 74.40468750000582,
      "v": 127
    },
    {
      "midi": 40,
      "hit": false,
      "t": 123999.87599999981,
      "d": 95.23799999999756,
      "v": 127
    },
    {
      "midi": 40,
      "hit": false,
      "t": 124142.73299999953,
      "d": 68.45231249999779,
      "v": 103
    },
    {
      "midi": 47,
      "hit": false,
      "t": 124142.73299999982,
      "d": 77.38087500000256,
      "v": 127
    },
    {
      "midi": 40,
      "hit": false,
      "t": 124285.58999999953,
      "d": 107.14274999999907,
      "v": 103
    },
    {
      "midi": 55,
      "hit": false,
      "t": 124285.58999999982,
      "d": 62.49993750000431,
      "v": 127
    },
    {
      "midi": 52,
      "hit": false,
      "t": 124285.58999999982,
      "d": 77.38087500000256,
      "v": 127
    },
    {
      "midi": 47,
      "hit": false,
      "t": 124428.44699999983,
      "d": 77.38087500000256,
      "v": 127
    },
    {
      "midi": 40,
      "hit": false,
      "t": 124571.30399999952,
      "d": 83.33324999999604,
      "v": 92
    },
    {
      "midi": 40,
      "hit": false,
      "t": 124571.30399999983,
      "d": 83.33324999999604,
      "v": 127
    },
    {
      "midi": 40,
      "hit": false,
      "t": 124714.16099999951,
      "d": 77.38087500000256,
      "v": 120
    },
    {
      "midi": 47,
      "hit": false,
      "t": 124714.16099999982,
      "d": 77.38087500000256,
      "v": 127
    },
    {
      "midi": 40,
      "hit": false,
      "t": 124857.01799999952,
      "d": 62.49993750000431,
      "v": 103
    },
    {
      "midi": 55,
      "hit": false,
      "t": 124857.01799999982,
      "d": 62.49993750000431,
      "v": 127
    },
    {
      "midi": 52,
      "hit": false,
      "t": 124857.01799999982,
      "d": 71.42850000000908,
      "v": 127
    },
    {
      "midi": 40,
      "hit": false,
      "t": 124999.87499999952,
      "d": 74.40468750000582,
      "v": 99
    },
    {
      "midi": 47,
      "hit": false,
      "t": 124999.87499999983,
      "d": 74.40468750000582,
      "v": 127
    },
    {
      "midi": 40,
      "hit": false,
      "t": 125142.73199999952,
      "d": 71.42849999999453,
      "v": 103
    },
    {
      "midi": 59,
      "hit": false,
      "t": 125142.73199999952,
      "d": 199.40456249998533,
      "v": 89
    },
    {
      "midi": 67,
      "hit": false,
      "t": 125142.73199999952,
      "d": 208.3331249999901,
      "v": 94
    },
    {
      "midi": 64,
      "hit": false,
      "t": 125142.73199999952,
      "d": 211.30931249998685,
      "v": 112
    },
    {
      "midi": 35,
      "hit": false,
      "t": 125142.73199999983,
      "d": 110.11893749999581,
      "v": 127
    },
    {
      "midi": 40,
      "hit": false,
      "t": 125285.58899999951,
      "d": 65.47612500000105,
      "v": 97
    },
    {
      "midi": 47,
      "hit": false,
      "t": 125285.58899999982,
      "d": 65.47612500000105,
      "v": 127
    },
    {
      "midi": 40,
      "hit": false,
      "t": 125428.44599999952,
      "d": 80.3570624999993,
      "v": 107
    },
    {
      "midi": 55,
      "hit": false,
      "t": 125428.44599999982,
      "d": 53.571374999999534,
      "v": 127
    },
    {
      "midi": 52,
      "hit": false,
      "t": 125428.44599999982,
      "d": 68.45231249999779,
      "v": 127
    },
    {
      "midi": 40,
      "hit": false,
      "t": 125571.30299999952,
      "d": 56.547562499996275,
      "v": 101
    },
    {
      "midi": 47,
      "hit": false,
      "t": 125571.30299999983,
      "d": 50.595187500002794,
      "v": 127
    },
    {
      "midi": 40,
      "hit": false,
      "t": 125714.15999999951,
      "d": 65.47612500000105,
      "v": 117
    },
    {
      "midi": 40,
      "hit": false,
      "t": 125714.15999999983,
      "d": 86.30943749999278,
      "v": 127
    },
    {
      "midi": 40,
      "hit": false,
      "t": 125857.01699999951,
      "d": 68.45231249999779,
      "v": 109
    },
    {
      "midi": 47,
      "hit": false,
      "t": 125857.01699999982,
      "d": 68.45231249999779,
      "v": 127
    },
    {
      "midi": 55,
      "hit": false,
      "t": 125999.87399999982,
      "d": 68.45231249999779,
      "v": 127
    },
    {
      "midi": 52,
      "hit": false,
      "t": 125999.87399999982,
      "d": 89.28562500000407,
      "v": 127
    },
    {
      "midi": 40,
      "hit": false,
      "t": 126142.7309999995,
      "d": 80.3570624999993,
      "v": 115
    },
    {
      "midi": 47,
      "hit": false,
      "t": 126142.73099999983,
      "d": 83.33324999999604,
      "v": 127
    },
    {
      "midi": 40,
      "hit": false,
      "t": 126285.58799999951,
      "d": 80.3570624999993,
      "v": 123
    },
    {
      "midi": 35,
      "hit": false,
      "t": 126285.58799999981,
      "d": 122.02368749999732,
      "v": 127
    },
    {
      "midi": 40,
      "hit": false,
      "t": 126428.44499999951,
      "d": 65.47612500000105,
      "v": 107
    },
    {
      "midi": 47,
      "hit": false,
      "t": 126428.44499999982,
      "d": 71.42849999999453,
      "v": 127
    },
    {
      "midi": 40,
      "hit": false,
      "t": 126571.30199999952,
      "d": 74.40468750000582,
      "v": 101
    },
    {
      "midi": 55,
      "hit": false,
      "t": 126571.3019999998,
      "d": 65.47612500000105,
      "v": 127
    },
    {
      "midi": 52,
      "hit": false,
      "t": 126571.3019999998,
      "d": 89.28562500000407,
      "v": 127
    },
    {
      "midi": 40,
      "hit": false,
      "t": 126714.15899999952,
      "d": 77.38087500000256,
      "v": 101
    },
    {
      "midi": 47,
      "hit": false,
      "t": 126714.15899999981,
      "d": 86.30943749999278,
      "v": 127
    },
    {
      "midi": 40,
      "hit": false,
      "t": 126857.01599999952,
      "d": 74.40468750000582,
      "v": 99
    },
    {
      "midi": 40,
      "hit": false,
      "t": 126857.0159999998,
      "d": 80.3570624999993,
      "v": 127
    },
    {
      "midi": 40,
      "hit": false,
      "t": 126999.87299999953,
      "d": 71.42849999999453,
      "v": 107
    },
    {
      "midi": 47,
      "hit": false,
      "t": 126999.8729999998,
      "d": 68.45231249999779,
      "v": 127
    },
    {
      "midi": 40,
      "hit": false,
      "t": 127142.72999999952,
      "d": 83.33324999999604,
      "v": 107
    },
    {
      "midi": 55,
      "hit": false,
      "t": 127142.7299999998,
      "d": 53.571374999999534,
      "v": 127
    },
    {
      "midi": 52,
      "hit": false,
      "t": 127142.7299999998,
      "d": 95.23799999999756,
      "v": 127
    },
    {
      "midi": 40,
      "hit": false,
      "t": 127285.5869999995,
      "d": 68.45231249999779,
      "v": 109
    },
    {
      "midi": 47,
      "hit": false,
      "t": 127285.58699999981,
      "d": 77.38087500000256,
      "v": 127
    },
    {
      "midi": 40,
      "hit": false,
      "t": 127428.44399999951,
      "d": 107.14274999999907,
      "v": 107
    },
    {
      "midi": 67,
      "hit": false,
      "t": 127428.44399999951,
      "d": 226.19024999999965,
      "v": 95
    },
    {
      "midi": 64,
      "hit": false,
      "t": 127428.44399999951,
      "d": 235.11881250000442,
      "v": 115
    },
    {
      "midi": 59,
      "hit": false,
      "t": 127428.44399999951,
      "d": 238.09500000000116,
      "v": 97
    },
    {
      "midi": 35,
      "hit": false,
      "t": 127428.44399999981,
      "d": 86.30943749999278,
      "v": 127
    },
    {
      "midi": 47,
      "hit": false,
      "t": 127571.3009999998,
      "d": 65.47612500000105,
      "v": 127
    },
    {
      "midi": 40,
      "hit": false,
      "t": 127714.15799999952,
      "d": 68.45231249999779,
      "v": 123
    },
    {
      "midi": 55,
      "hit": false,
      "t": 127714.1579999998,
      "d": 80.3570624999993,
      "v": 127
    },
    {
      "midi": 52,
      "hit": false,
      "t": 127714.1579999998,
      "d": 86.30943749999278,
      "v": 127
    },
    {
      "midi": 47,
      "hit": false,
      "t": 127857.0149999998,
      "d": 83.33324999999604,
      "v": 127
    },
    {
      "midi": 47,
      "hit": false,
      "t": 127999.87199999951,
      "d": 77.38087500000256,
      "v": 107
    },
    {
      "midi": 35,
      "hit": false,
      "t": 127999.87199999978,
      "d": 136.90462499999558,
      "v": 127
    },
    {
      "midi": 47,
      "hit": false,
      "t": 128142.72899999951,
      "d": 65.47612500000105,
      "v": 101
    },
    {
      "midi": 47,
      "hit": false,
      "t": 128142.72899999977,
      "d": 56.547562499996275,
      "v": 127
    },
    {
      "midi": 47,
      "hit": false,
      "t": 128285.58599999952,
      "d": 71.42849999999453,
      "v": 95
    },
    {
      "midi": 50,
      "hit": false,
      "t": 128285.58599999976,
      "d": 68.45231249999779,
      "v": 127
    },
    {
      "midi": 54,
      "hit": false,
      "t": 128285.58599999976,
      "d": 77.38087500000256,
      "v": 127
    },
    {
      "midi": 47,
      "hit": false,
      "t": 128428.4429999995,
      "d": 77.38087500000256,
      "v": 95
    },
    {
      "midi": 47,
      "hit": false,
      "t": 128428.44299999977,
      "d": 62.49993750000431,
      "v": 127
    },
    {
      "midi": 47,
      "hit": false,
      "t": 128571.29999999951,
      "d": 71.42849999999453,
      "v": 107
    },
    {
      "midi": 42,
      "hit": false,
      "t": 128571.29999999977,
      "d": 71.42849999999453,
      "v": 127
    },
    {
      "midi": 47,
      "hit": false,
      "t": 128714.1569999995,
      "d": 77.38087500000256,
      "v": 109
    },
    {
      "midi": 47,
      "hit": false,
      "t": 128714.15699999976,
      "d": 53.571374999999534,
      "v": 127
    },
    {
      "midi": 47,
      "hit": false,
      "t": 128857.0139999995,
      "d": 74.40468750000582,
      "v": 117
    },
    {
      "midi": 50,
      "hit": false,
      "t": 128857.01399999976,
      "d": 62.49993750000431,
      "v": 127
    },
    {
      "midi": 54,
      "hit": false,
      "t": 128857.01399999976,
      "d": 77.38087500000256,
      "v": 127
    },
    {
      "midi": 47,
      "hit": false,
      "t": 128999.87099999977,
      "d": 77.38087500000256,
      "v": 127
    },
    {
      "midi": 35,
      "hit": false,
      "t": 129142.72799999977,
      "d": 130.9522500000021,
      "v": 127
    },
    {
      "midi": 47,
      "hit": false,
      "t": 129285.58499999977,
      "d": 32.73806249999325,
      "v": 127
    },
    {
      "midi": 50,
      "hit": false,
      "t": 129428.44199999976,
      "d": 35.71425000000454,
      "v": 127
    },
    {
      "midi": 54,
      "hit": false,
      "t": 129428.44199999976,
      "d": 74.40468750000582,
      "v": 127
    },
    {
      "midi": 47,
      "hit": false,
      "t": 129571.29899999977,
      "d": 50.595187500002794,
      "v": 127
    },
    {
      "midi": 71,
      "hit": false,
      "t": 129714.15599999951,
      "d": 205.35693749999336,
      "v": 117
    },
    {
      "midi": 62,
      "hit": false,
      "t": 129714.15599999951,
      "d": 241.0711874999979,
      "v": 105
    },
    {
      "midi": 66,
      "hit": false,
      "t": 129714.15599999951,
      "d": 241.0711874999979,
      "v": 118
    },
    {
      "midi": 42,
      "hit": false,
      "t": 129714.15599999977,
      "d": 68.45231249999779,
      "v": 127
    },
    {
      "midi": 47,
      "hit": false,
      "t": 129857.01299999977,
      "d": 53.571374999999534,
      "v": 127
    },
    {
      "midi": 59,
      "hit": false,
      "t": 129999.8699999995,
      "d": 41.66662499999802,
      "v": 117
    },
    {
      "midi": 54,
      "hit": false,
      "t": 129999.86999999978,
      "d": 38.69043750000128,
      "v": 127
    },
    {
      "midi": 50,
      "hit": false,
      "t": 129999.86999999978,
      "d": 56.547562499996275,
      "v": 127
    },
    {
      "midi": 47,
      "hit": false,
      "t": 130142.72699999977,
      "d": 53.571374999999534,
      "v": 127
    },
    {
      "midi": 47,
      "hit": false,
      "t": 130285.5839999995,
      "d": 83.33324999999604,
      "v": 120
    },
    {
      "midi": 35,
      "hit": false,
      "t": 130285.58399999977,
      "d": 127.97606250000536,
      "v": 127
    },
    {
      "midi": 47,
      "hit": false,
      "t": 130428.44099999948,
      "d": 74.40468750000582,
      "v": 91
    },
    {
      "midi": 47,
      "hit": false,
      "t": 130428.44099999977,
      "d": 74.40468750000582,
      "v": 127
    },
    {
      "midi": 47,
      "hit": false,
      "t": 130571.29799999949,
      "d": 86.30943749999278,
      "v": 103
    },
    {
      "midi": 50,
      "hit": false,
      "t": 130571.29799999978,
      "d": 41.66662499999802,
      "v": 127
    },
    {
      "midi": 54,
      "hit": false,
      "t": 130571.29799999978,
      "d": 56.547562499996275,
      "v": 127
    },
    {
      "midi": 47,
      "hit": false,
      "t": 130714.15499999947,
      "d": 80.3570624999993,
      "v": 83
    },
    {
      "midi": 47,
      "hit": false,
      "t": 130714.15499999977,
      "d": 65.47612500000105,
      "v": 127
    },
    {
      "midi": 47,
      "hit": false,
      "t": 130857.01199999948,
      "d": 80.3570624999993,
      "v": 105
    },
    {
      "midi": 42,
      "hit": false,
      "t": 130857.01199999977,
      "d": 68.45231249999779,
      "v": 127
    },
    {
      "midi": 47,
      "hit": false,
      "t": 130999.86899999948,
      "d": 98.21418750000885,
      "v": 92
    },
    {
      "midi": 47,
      "hit": false,
      "t": 130999.86899999977,
      "d": 74.40468750000582,
      "v": 127
    },
    {
      "midi": 47,
      "hit": false,
      "t": 131142.7259999995,
      "d": 89.28562499998952,
      "v": 109
    },
    {
      "midi": 50,
      "hit": false,
      "t": 131142.7259999998,
      "d": 68.45231250001234,
      "v": 127
    },
    {
      "midi": 54,
      "hit": false,
      "t": 131142.7259999998,
      "d": 71.42850000000908,
      "v": 127
    },
    {
      "midi": 47,
      "hit": false,
      "t": 131285.5829999998,
      "d": 50.595187500002794,
      "v": 127
    },
    {
      "midi": 35,
      "hit": false,
      "t": 131428.4399999998,
      "d": 148.80937499998254,
      "v": 127
    },
    {
      "midi": 47,
      "hit": false,
      "t": 131571.2969999998,
      "d": 65.4761249999865,
      "v": 127
    },
    {
      "midi": 50,
      "hit": false,
      "t": 131714.15399999978,
      "d": 59.523749999993015,
      "v": 127
    },
    {
      "midi": 54,
      "hit": false,
      "t": 131714.15399999978,
      "d": 74.40468750000582,
      "v": 127
    },
    {
      "midi": 47,
      "hit": false,
      "t": 131857.0109999998,
      "d": 65.4761249999865,
      "v": 127
    },
    {
      "midi": 71,
      "hit": false,
      "t": 131999.8679999995,
      "d": 202.38075000001118,
      "v": 101
    },
    {
      "midi": 62,
      "hit": false,
      "t": 131999.8679999995,
      "d": 241.0711874999979,
      "v": 91
    },
    {
      "midi": 66,
      "hit": false,
      "t": 131999.8679999995,
      "d": 252.97593749998487,
      "v": 95
    },
    {
      "midi": 42,
      "hit": false,
      "t": 131999.86799999978,
      "d": 83.33324999999604,
      "v": 127
    },
    {
      "midi": 47,
      "hit": false,
      "t": 132142.72499999977,
      "d": 89.28562499998952,
      "v": 127
    },
    {
      "midi": 50,
      "hit": false,
      "t": 132285.58199999976,
      "d": 74.40468750000582,
      "v": 127
    },
    {
      "midi": 54,
      "hit": false,
      "t": 132285.58199999976,
      "d": 80.3570624999993,
      "v": 127
    },
    {
      "midi": 47,
      "hit": false,
      "t": 132428.43899999975,
      "d": 56.547562499996275,
      "v": 127
    },
    {
      "midi": 40,
      "hit": false,
      "t": 132571.29599999948,
      "d": 92.26181249998626,
      "v": 107
    },
    {
      "midi": 40,
      "hit": false,
      "t": 132571.29599999974,
      "d": 86.30943749999278,
      "v": 127
    },
    {
      "midi": 40,
      "hit": false,
      "t": 132714.15299999947,
      "d": 89.28562499998952,
      "v": 105
    },
    {
      "midi": 47,
      "hit": false,
      "t": 132714.15299999973,
      "d": 80.3570624999993,
      "v": 127
    },
    {
      "midi": 40,
      "hit": false,
      "t": 132857.00999999946,
      "d": 74.40468750000582,
      "v": 99
    },
    {
      "midi": 55,
      "hit": false,
      "t": 132857.00999999972,
      "d": 59.523749999993015,
      "v": 127
    },
    {
      "midi": 52,
      "hit": false,
      "t": 132857.00999999972,
      "d": 77.38087500000256,
      "v": 127
    },
    {
      "midi": 40,
      "hit": false,
      "t": 132999.86699999947,
      "d": 83.33324999999604,
      "v": 70
    },
    {
      "midi": 47,
      "hit": false,
      "t": 132999.8669999997,
      "d": 80.3570624999993,
      "v": 127
    },
    {
      "midi": 40,
      "hit": false,
      "t": 133142.72399999946,
      "d": 83.33324999999604,
      "v": 95
    },
    {
      "midi": 35,
      "hit": false,
      "t": 133142.7239999997,
      "d": 116.07131249998929,
      "v": 127
    },
    {
      "midi": 40,
      "hit": false,
      "t": 133285.58099999945,
      "d": 80.3570624999993,
      "v": 80
    },
    {
      "midi": 47,
      "hit": false,
      "t": 133285.58099999969,
      "d": 56.547562499996275,
      "v": 127
    },
    {
      "midi": 40,
      "hit": false,
      "t": 133428.43799999944,
      "d": 74.40468750000582,
      "v": 97
    },
    {
      "midi": 52,
      "hit": false,
      "t": 133428.43799999967,
      "d": 74.40468750000582,
      "v": 127
    },
    {
      "midi": 55,
      "hit": false,
      "t": 133428.43799999967,
      "d": 77.38087500000256,
      "v": 127
    },
    {
      "midi": 40,
      "hit": false,
      "t": 133571.29499999946,
      "d": 71.42850000000908,
      "v": 88
    },
    {
      "midi": 47,
      "hit": false,
      "t": 133571.29499999966,
      "d": 80.3570624999993,
      "v": 127
    },
    {
      "midi": 40,
      "hit": false,
      "t": 133714.15199999948,
      "d": 80.3570624999993,
      "v": 89
    },
    {
      "midi": 40,
      "hit": false,
      "t": 133714.15199999965,
      "d": 89.28562499998952,
      "v": 127
    },
    {
      "midi": 40,
      "hit": false,
      "t": 133857.00899999947,
      "d": 83.33324999999604,
      "v": 86
    },
    {
      "midi": 47,
      "hit": false,
      "t": 133857.00899999964,
      "d": 77.38087500000256,
      "v": 127
    },
    {
      "midi": 40,
      "hit": false,
      "t": 133999.86599999946,
      "d": 83.33324999999604,
      "v": 97
    },
    {
      "midi": 55,
      "hit": false,
      "t": 133999.86599999963,
      "d": 68.45231250001234,
      "v": 127
    },
    {
      "midi": 52,
      "hit": false,
      "t": 133999.86599999963,
      "d": 86.30943750002189,
      "v": 127
    },
    {
      "midi": 40,
      "hit": false,
      "t": 134142.72299999945,
      "d": 77.38087500000256,
      "v": 83
    },
    {
      "midi": 47,
      "hit": false,
      "t": 134142.72299999965,
      "d": 71.42850000000908,
      "v": 127
    },
    {
      "midi": 40,
      "hit": false,
      "t": 134285.57999999943,
      "d": 77.38087500000256,
      "v": 95
    },
    {
      "midi": 67,
      "hit": false,
      "t": 134285.57999999943,
      "d": 175.5950624999823,
      "v": 75
    },
    {
      "midi": 64,
      "hit": false,
      "t": 134285.57999999943,
      "d": 217.26168749999488,
      "v": 88
    },
    {
      "midi": 35,
      "hit": false,
      "t": 134285.57999999967,
      "d": 110.11893749999581,
      "v": 127
    },
    {
      "midi": 40,
      "hit": false,
      "t": 134428.43699999942,
      "d": 74.40468750000582,
      "v": 77
    },
    {
      "midi": 47,
      "hit": false,
      "t": 134428.43699999966,
      "d": 74.40468750000582,
      "v": 127
    },
    {
      "midi": 40,
      "hit": false,
      "t": 134571.29399999944,
      "d": 80.3570624999993,
      "v": 101
    },
    {
      "midi": 55,
      "hit": false,
      "t": 134571.29399999967,
      "d": 59.523749999993015,
      "v": 127
    },
    {
      "midi": 52,
      "hit": false,
      "t": 134571.29399999967,
      "d": 80.3570624999993,
      "v": 127
    },
    {
      "midi": 40,
      "hit": false,
      "t": 134714.15099999943,
      "d": 53.571374999999534,
      "v": 86
    },
    {
      "midi": 47,
      "hit": false,
      "t": 134714.15099999966,
      "d": 68.45231250001234,
      "v": 127
    },
    {
      "midi": 40,
      "hit": false,
      "t": 134857.00799999942,
      "d": 83.33324999999604,
      "v": 91
    },
    {
      "midi": 40,
      "hit": false,
      "t": 134857.00799999968,
      "d": 80.3570624999993,
      "v": 127
    },
    {
      "midi": 40,
      "hit": false,
      "t": 134999.8649999994,
      "d": 71.42850000000908,
      "v": 86
    },
    {
      "midi": 47,
      "hit": false,
      "t": 134999.86499999967,
      "d": 68.45231250001234,
      "v": 127
    },
    {
      "midi": 40,
      "hit": false,
      "t": 135142.72199999943,
      "d": 74.40468750000582,
      "v": 97
    },
    {
      "midi": 55,
      "hit": false,
      "t": 135142.7219999997,
      "d": 62.499937499989755,
      "v": 127
    },
    {
      "midi": 52,
      "hit": false,
      "t": 135142.7219999997,
      "d": 68.45231249998324,
      "v": 127
    },
    {
      "midi": 40,
      "hit": false,
      "t": 135285.57899999944,
      "d": 74.40468750000582,
      "v": 65
    },
    {
      "midi": 47,
      "hit": false,
      "t": 135285.57899999968,
      "d": 92.26181249998626,
      "v": 127
    },
    {
      "midi": 40,
      "hit": false,
      "t": 135428.43599999946,
      "d": 80.3570624999993,
      "v": 94
    },
    {
      "midi": 35,
      "hit": false,
      "t": 135428.43599999967,
      "d": 116.07131249998929,
      "v": 127
    },
    {
      "midi": 40,
      "hit": false,
      "t": 135571.29299999945,
      "d": 56.547562499996275,
      "v": 79
    },
    {
      "midi": 47,
      "hit": false,
      "t": 135571.29299999966,
      "d": 77.38087500000256,
      "v": 127
    },
    {
      "midi": 40,
      "hit": false,
      "t": 135714.14999999944,
      "d": 77.38087500000256,
      "v": 99
    },
    {
      "midi": 52,
      "hit": false,
      "t": 135714.14999999964,
      "d": 71.42850000000908,
      "v": 127
    },
    {
      "midi": 55,
      "hit": false,
      "t": 135714.14999999964,
      "d": 83.33324999999604,
      "v": 127
    },
    {
      "midi": 40,
      "hit": false,
      "t": 135857.00699999943,
      "d": 56.547562499996275,
      "v": 92
    },
    {
      "midi": 47,
      "hit": false,
      "t": 135857.00699999963,
      "d": 74.40468750000582,
      "v": 127
    },
    {
      "midi": 40,
      "hit": false,
      "t": 135999.86399999942,
      "d": 77.38087500000256,
      "v": 97
    },
    {
      "midi": 40,
      "hit": false,
      "t": 135999.86399999965,
      "d": 92.26181249998626,
      "v": 127
    },
    {
      "midi": 40,
      "hit": false,
      "t": 136142.7209999994,
      "d": 74.40468750000582,
      "v": 89
    },
    {
      "midi": 47,
      "hit": false,
      "t": 136142.72099999964,
      "d": 71.42850000000908,
      "v": 127
    },
    {
      "midi": 40,
      "hit": false,
      "t": 136285.57799999943,
      "d": 77.38087500000256,
      "v": 97
    },
    {
      "midi": 52,
      "hit": false,
      "t": 136285.57799999966,
      "d": 53.571374999999534,
      "v": 127
    },
    {
      "midi": 55,
      "hit": false,
      "t": 136285.57799999966,
      "d": 77.38087500000256,
      "v": 127
    },
    {
      "midi": 40,
      "hit": false,
      "t": 136428.43499999942,
      "d": 62.499937499989755,
      "v": 80
    },
    {
      "midi": 47,
      "hit": false,
      "t": 136428.43499999965,
      "d": 77.38087500000256,
      "v": 127
    },
    {
      "midi": 40,
      "hit": false,
      "t": 136571.2919999994,
      "d": 77.38087500000256,
      "v": 95
    },
    {
      "midi": 67,
      "hit": false,
      "t": 136571.2919999994,
      "d": 184.52362500000163,
      "v": 94
    },
    {
      "midi": 64,
      "hit": false,
      "t": 136571.2919999994,
      "d": 223.21406249998836,
      "v": 109
    },
    {
      "midi": 35,
      "hit": false,
      "t": 136571.29199999964,
      "d": 113.09512499999255,
      "v": 127
    },
    {
      "midi": 40,
      "hit": false,
      "t": 136714.1489999994,
      "d": 71.42850000000908,
      "v": 89
    },
    {
      "midi": 47,
      "hit": false,
      "t": 136714.14899999963,
      "d": 80.3570624999993,
      "v": 127
    },
    {
      "midi": 59,
      "hit": false,
      "t": 136857.00599999938,
      "d": 38.69043749998673,
      "v": 103
    },
    {
      "midi": 40,
      "hit": false,
      "t": 136857.00599999938,
      "d": 56.547562499996275,
      "v": 112
    },
    {
      "midi": 55,
      "hit": false,
      "t": 136857.00599999962,
      "d": 77.38087500000256,
      "v": 127
    },
    {
      "midi": 52,
      "hit": false,
      "t": 136857.00599999962,
      "d": 98.21418750000885,
      "v": 127
    },
    {
      "midi": 47,
      "hit": false,
      "t": 136999.86299999963,
      "d": 26.785687499999767,
      "v": 127
    },
    {
      "midi": 47,
      "hit": false,
      "t": 137142.7199999994,
      "d": 62.499937499989755,
      "v": 123
    },
    {
      "midi": 35,
      "hit": false,
      "t": 137142.71999999962,
      "d": 101.19037500000559,
      "v": 127
    },
    {
      "midi": 47,
      "hit": false,
      "t": 137285.57699999938,
      "d": 65.4761249999865,
      "v": 109
    },
    {
      "midi": 47,
      "hit": false,
      "t": 137285.57699999964,
      "d": 59.523749999993015,
      "v": 127
    },
    {
      "midi": 47,
      "hit": false,
      "t": 137428.43399999937,
      "d": 68.45231250001234,
      "v": 127
    },
    {
      "midi": 50,
      "hit": false,
      "t": 137428.43399999963,
      "d": 68.45231250001234,
      "v": 127
    },
    {
      "midi": 54,
      "hit": false,
      "t": 137428.43399999963,
      "d": 80.3570624999993,
      "v": 127
    },
    {
      "midi": 47,
      "hit": false,
      "t": 137571.2909999994,
      "d": 23.809500000003027,
      "v": 89
    },
    {
      "midi": 42,
      "hit": false,
      "t": 137714.14799999964,
      "d": 77.38087500000256,
      "v": 127
    },
    {
      "midi": 47,
      "hit": false,
      "t": 137857.00499999963,
      "d": 56.547562499996275,
      "v": 127
    },
    {
      "midi": 50,
      "hit": false,
      "t": 137999.86199999962,
      "d": 65.4761249999865,
      "v": 127
    },
    {
      "midi": 54,
      "hit": false,
      "t": 137999.86199999962,
      "d": 89.28562499998952,
      "v": 127
    },
    {
      "midi": 47,
      "hit": false,
      "t": 138142.7189999996,
      "d": 29.761874999996508,
      "v": 127
    },
    {
      "midi": 35,
      "hit": false,
      "t": 138285.5759999996,
      "d": 122.02368750001187,
      "v": 127
    },
    {
      "midi": 47,
      "hit": false,
      "t": 138428.4329999996,
      "d": 65.4761249999865,
      "v": 127
    },
    {
      "midi": 50,
      "hit": false,
      "t": 138571.2899999996,
      "d": 56.547562499996275,
      "v": 127
    },
    {
      "midi": 54,
      "hit": false,
      "t": 138571.2899999996,
      "d": 80.3570624999993,
      "v": 127
    },
    {
      "midi": 47,
      "hit": false,
      "t": 138714.1469999996,
      "d": 35.71424999998999,
      "v": 127
    },
    {
      "midi": 66,
      "hit": false,
      "t": 138857.00399999938,
      "d": 249.99974999998813,
      "v": 114
    },
    {
      "midi": 59,
      "hit": false,
      "t": 138857.00399999938,
      "d": 255.9521249999816,
      "v": 112
    },
    {
      "midi": 62,
      "hit": false,
      "t": 138857.00399999938,
      "d": 255.9521249999816,
      "v": 109
    },
    {
      "midi": 42,
      "hit": false,
      "t": 138857.00399999958,
      "d": 71.42850000000908,
      "v": 127
    },
    {
      "midi": 47,
      "hit": false,
      "t": 138999.8609999996,
      "d": 56.547562499996275,
      "v": 127
    },
    {
      "midi": 54,
      "hit": false,
      "t": 139142.7179999996,
      "d": 65.4761249999865,
      "v": 127
    },
    {
      "midi": 50,
      "hit": false,
      "t": 139142.7179999996,
      "d": 71.42849999997998,
      "v": 127
    },
    {
      "midi": 47,
      "hit": false,
      "t": 139285.57499999958,
      "d": 56.547562499996275,
      "v": 127
    },
    {
      "midi": 47,
      "hit": false,
      "t": 139428.43199999936,
      "d": 80.3570624999993,
      "v": 127
    },
    {
      "midi": 35,
      "hit": false,
      "t": 139428.43199999956,
      "d": 127.97606250000536,
      "v": 127
    },
    {
      "midi": 47,
      "hit": false,
      "t": 139571.28899999935,
      "d": 71.42850000000908,
      "v": 112
    },
    {
      "midi": 47,
      "hit": false,
      "t": 139571.28899999958,
      "d": 56.547562499996275,
      "v": 127
    },
    {
      "midi": 47,
      "hit": false,
      "t": 139714.14599999937,
      "d": 68.45231250001234,
      "v": 127
    },
    {
      "midi": 50,
      "hit": false,
      "t": 139714.14599999957,
      "d": 47.619000000006054,
      "v": 127
    },
    {
      "midi": 54,
      "hit": false,
      "t": 139714.14599999957,
      "d": 74.40468750000582,
      "v": 127
    },
    {
      "midi": 47,
      "hit": false,
      "t": 139857.0029999994,
      "d": 50.595187500002794,
      "v": 117
    },
    {
      "midi": 47,
      "hit": false,
      "t": 139857.0029999996,
      "d": 50.595187500002794,
      "v": 127
    },
    {
      "midi": 42,
      "hit": false,
      "t": 139999.85999999958,
      "d": 65.4761249999865,
      "v": 127
    },
    {
      "midi": 47,
      "hit": false,
      "t": 140142.71699999957,
      "d": 44.64281250000931,
      "v": 127
    },
    {
      "midi": 50,
      "hit": false,
      "t": 140285.5739999996,
      "d": 35.71424999998999,
      "v": 127
    },
    {
      "midi": 54,
      "hit": false,
      "t": 140285.5739999996,
      "d": 74.40468749997672,
      "v": 127
    },
    {
      "midi": 47,
      "hit": false,
      "t": 140428.43099999957,
      "d": 56.547562499996275,
      "v": 127
    },
    {
      "midi": 35,
      "hit": false,
      "t": 140571.28799999956,
      "d": 133.92843749999884,
      "v": 127
    },
    {
      "midi": 47,
      "hit": false,
      "t": 140714.14499999955,
      "d": 71.42850000000908,
      "v": 127
    },
    {
      "midi": 50,
      "hit": false,
      "t": 140857.00199999957,
      "d": 50.595187500002794,
      "v": 127
    },
    {
      "midi": 54,
      "hit": false,
      "t": 140857.00199999957,
      "d": 71.42850000000908,
      "v": 127
    },
    {
      "midi": 47,
      "hit": false,
      "t": 140999.8589999996,
      "d": 44.64281250000931,
      "v": 127
    },
    {
      "midi": 66,
      "hit": false,
      "t": 141142.71599999937,
      "d": 285.7140000000072,
      "v": 100
    },
    {
      "midi": 59,
      "hit": false,
      "t": 141142.71599999937,
      "d": 288.69018750000396,
      "v": 105
    },
    {
      "midi": 62,
      "hit": false,
      "t": 141142.71599999937,
      "d": 294.64256249999744,
      "v": 97
    },
    {
      "midi": 42,
      "hit": false,
      "t": 141142.7159999996,
      "d": 65.4761249999865,
      "v": 127
    },
    {
      "midi": 47,
      "hit": false,
      "t": 141285.5729999996,
      "d": 59.523749999993015,
      "v": 127
    },
    {
      "midi": 50,
      "hit": false,
      "t": 141428.4299999996,
      "d": 62.499937499989755,
      "v": 127
    },
    {
      "midi": 54,
      "hit": false,
      "t": 141428.4299999996,
      "d": 80.3570624999993,
      "v": 127
    },
    {
      "midi": 47,
      "hit": false,
      "t": 141571.28699999957,
      "d": 83.33324999999604,
      "v": 127
    },
    {
      "midi": 43,
      "hit": false,
      "t": 141714.14399999956,
      "d": 124.99987500000861,
      "v": 127
    },
    {
      "midi": 50,
      "hit": false,
      "t": 141857.00099999958,
      "d": 59.523749999993015,
      "v": 127
    },
    {
      "midi": 43,
      "hit": false,
      "t": 141999.85799999937,
      "d": 71.42850000000908,
      "v": 125
    },
    {
      "midi": 59,
      "hit": false,
      "t": 141999.85799999957,
      "d": 68.45231250001234,
      "v": 127
    },
    {
      "midi": 55,
      "hit": false,
      "t": 141999.85799999957,
      "d": 86.30943750002189,
      "v": 127
    },
    {
      "midi": 43,
      "hit": false,
      "t": 142142.71499999939,
      "d": 71.42850000000908,
      "v": 117
    },
    {
      "midi": 50,
      "hit": false,
      "t": 142142.7149999996,
      "d": 74.40468750000582,
      "v": 127
    },
    {
      "midi": 43,
      "hit": false,
      "t": 142285.5719999994,
      "d": 74.40468750000582,
      "v": 112
    },
    {
      "midi": 43,
      "hit": false,
      "t": 142285.5719999996,
      "d": 98.21418750000885,
      "v": 127
    },
    {
      "midi": 43,
      "hit": false,
      "t": 142428.42899999942,
      "d": 92.26181249998626,
      "v": 99
    },
    {
      "midi": 50,
      "hit": false,
      "t": 142428.42899999963,
      "d": 65.4761249999865,
      "v": 127
    },
    {
      "midi": 43,
      "hit": false,
      "t": 142571.2859999994,
      "d": 92.26181249998626,
      "v": 123
    },
    {
      "midi": 55,
      "hit": false,
      "t": 142571.2859999996,
      "d": 83.33324999999604,
      "v": 127
    },
    {
      "midi": 59,
      "hit": false,
      "t": 142571.2859999996,
      "d": 86.30943749999278,
      "v": 127
    },
    {
      "midi": 43,
      "hit": false,
      "t": 142714.1429999994,
      "d": 86.30943749999278,
      "v": 127
    },
    {
      "midi": 50,
      "hit": false,
      "t": 142714.1429999996,
      "d": 89.28562499998952,
      "v": 127
    },
    {
      "midi": 42,
      "hit": false,
      "t": 142856.9999999996,
      "d": 133.92843749999884,
      "v": 127
    },
    {
      "midi": 49,
      "hit": false,
      "t": 142999.85699999958,
      "d": 80.3570624999993,
      "v": 127
    },
    {
      "midi": 42,
      "hit": false,
      "t": 143142.7139999994,
      "d": 74.40468750000582,
      "v": 127
    },
    {
      "midi": 57,
      "hit": false,
      "t": 143142.71399999957,
      "d": 95.23800000001211,
      "v": 127
    },
    {
      "midi": 54,
      "hit": false,
      "t": 143142.71399999957,
      "d": 101.19037500000559,
      "v": 127
    },
    {
      "midi": 42,
      "hit": false,
      "t": 143285.5709999994,
      "d": 74.40468750000582,
      "v": 118
    },
    {
      "midi": 49,
      "hit": false,
      "t": 143285.5709999996,
      "d": 77.38087500000256,
      "v": 127
    },
    {
      "midi": 42,
      "hit": false,
      "t": 143428.42799999943,
      "d": 77.38087500000256,
      "v": 124
    },
    {
      "midi": 42,
      "hit": false,
      "t": 143428.42799999958,
      "d": 110.11893749999581,
      "v": 127
    },
    {
      "midi": 42,
      "hit": false,
      "t": 143571.28499999942,
      "d": 74.40468750000582,
      "v": 118
    },
    {
      "midi": 49,
      "hit": false,
      "t": 143571.28499999957,
      "d": 77.38087500000256,
      "v": 127
    },
    {
      "midi": 42,
      "hit": false,
      "t": 143714.14199999944,
      "d": 71.42850000000908,
      "v": 121
    },
    {
      "midi": 57,
      "hit": false,
      "t": 143714.14199999956,
      "d": 101.19037500000559,
      "v": 127
    },
    {
      "midi": 54,
      "hit": false,
      "t": 143714.14199999956,
      "d": 110.11893749999581,
      "v": 127
    },
    {
      "midi": 42,
      "hit": false,
      "t": 143856.99899999946,
      "d": 77.38087500000256,
      "v": 127
    },
    {
      "midi": 49,
      "hit": false,
      "t": 143856.99899999955,
      "d": 77.38087500000256,
      "v": 127
    },
    {
      "midi": 40,
      "hit": false,
      "t": 143999.85599999953,
      "d": 133.92843749999884,
      "v": 127
    },
    {
      "midi": 47,
      "hit": false,
      "t": 144142.71299999952,
      "d": 56.547562499996275,
      "v": 127
    },
    {
      "midi": 40,
      "hit": false,
      "t": 144285.56999999945,
      "d": 77.38087500000256,
      "v": 115
    },
    {
      "midi": 55,
      "hit": false,
      "t": 144285.5699999995,
      "d": 53.571374999999534,
      "v": 127
    },
    {
      "midi": 52,
      "hit": false,
      "t": 144285.5699999995,
      "d": 71.42850000000908,
      "v": 127
    },
    {
      "midi": 40,
      "hit": false,
      "t": 144428.42699999944,
      "d": 92.26181249998626,
      "v": 112
    },
    {
      "midi": 47,
      "hit": false,
      "t": 144428.42699999953,
      "d": 56.547562499996275,
      "v": 127
    },
    {
      "midi": 40,
      "hit": false,
      "t": 144571.28399999943,
      "d": 77.38087500000256,
      "v": 109
    },
    {
      "midi": 40,
      "hit": false,
      "t": 144571.28399999952,
      "d": 104.16656250000233,
      "v": 127
    },
    {
      "midi": 40,
      "hit": false,
      "t": 144714.14099999942,
      "d": 92.26181249998626,
      "v": 109
    },
    {
      "midi": 47,
      "hit": false,
      "t": 144714.1409999995,
      "d": 35.71424999998999,
      "v": 127
    },
    {
      "midi": 40,
      "hit": false,
      "t": 144856.9979999994,
      "d": 86.30943749999278,
      "v": 117
    },
    {
      "midi": 55,
      "hit": false,
      "t": 144856.9979999995,
      "d": 50.595187500002794,
      "v": 127
    },
    {
      "midi": 52,
      "hit": false,
      "t": 144856.9979999995,
      "d": 65.4761250000156,
      "v": 127
    },
    {
      "midi": 40,
      "hit": false,
      "t": 144999.8549999994,
      "d": 101.19037500000559,
      "v": 127
    },
    {
      "midi": 47,
      "hit": false,
      "t": 144999.85499999952,
      "d": 65.4761249999865,
      "v": 127
    },
    {
      "midi": 40,
      "hit": false,
      "t": 145142.7119999995,
      "d": 122.02368750001187,
      "v": 127
    },
    {
      "midi": 47,
      "hit": false,
      "t": 145285.56899999952,
      "d": 59.523749999993015,
      "v": 127
    },
    {
      "midi": 40,
      "hit": false,
      "t": 145428.4259999994,
      "d": 83.33324999999604,
      "v": 123
    },
    {
      "midi": 55,
      "hit": false,
      "t": 145428.4259999995,
      "d": 50.595187500002794,
      "v": 127
    },
    {
      "midi": 52,
      "hit": false,
      "t": 145428.4259999995,
      "d": 56.547562499996275,
      "v": 127
    },
    {
      "midi": 40,
      "hit": false,
      "t": 145571.28299999938,
      "d": 86.30943749999278,
      "v": 115
    },
    {
      "midi": 47,
      "hit": false,
      "t": 145571.2829999995,
      "d": 68.45231250001234,
      "v": 127
    },
    {
      "midi": 40,
      "hit": false,
      "t": 145714.13999999937,
      "d": 77.38087500000256,
      "v": 115
    },
    {
      "midi": 40,
      "hit": false,
      "t": 145714.13999999952,
      "d": 113.09512499999255,
      "v": 127
    },
    {
      "midi": 40,
      "hit": false,
      "t": 145856.99699999936,
      "d": 83.33324999999604,
      "v": 115
    },
    {
      "midi": 47,
      "hit": false,
      "t": 145856.9969999995,
      "d": 71.42850000000908,
      "v": 127
    },
    {
      "midi": 40,
      "hit": false,
      "t": 145999.85399999935,
      "d": 77.38087500000256,
      "v": 120
    },
    {
      "midi": 55,
      "hit": false,
      "t": 145999.85399999953,
      "d": 71.42850000000908,
      "v": 127
    },
    {
      "midi": 52,
      "hit": false,
      "t": 145999.85399999953,
      "d": 83.33324999999604,
      "v": 127
    },
    {
      "midi": 40,
      "hit": false,
      "t": 146142.71099999934,
      "d": 71.42850000000908,
      "v": 127
    },
    {
      "midi": 47,
      "hit": false,
      "t": 146142.71099999952,
      "d": 50.595187500002794,
      "v": 127
    },
    {
      "midi": 47,
      "hit": false,
      "t": 146285.56799999936,
      "d": 62.499937499989755,
      "v": 123
    },
    {
      "midi": 35,
      "hit": false,
      "t": 146285.5679999995,
      "d": 101.19037500000559,
      "v": 127
    },
    {
      "midi": 47,
      "hit": false,
      "t": 146428.42499999935,
      "d": 65.4761249999865,
      "v": 109
    },
    {
      "midi": 47,
      "hit": false,
      "t": 146428.42499999952,
      "d": 59.523749999993015,
      "v": 127
    },
    {
      "midi": 47,
      "hit": false,
      "t": 146571.28199999934,
      "d": 68.45231250001234,
      "v": 127
    },
    {
      "midi": 50,
      "hit": false,
      "t": 146571.2819999995,
      "d": 68.45231250001234,
      "v": 127
    },
    {
      "midi": 54,
      "hit": false,
      "t": 146571.2819999995,
      "d": 80.3570624999993,
      "v": 127
    },
    {
      "midi": 47,
      "hit": false,
      "t": 146714.13899999936,
      "d": 23.809500000003027,
      "v": 89
    },
    {
      "midi": 42,
      "hit": false,
      "t": 146856.99599999952,
      "d": 77.38087500000256,
      "v": 127
    },
    {
      "midi": 47,
      "hit": false,
      "t": 146999.8529999995,
      "d": 56.547562499996275,
      "v": 127
    },
    {
      "midi": 50,
      "hit": false,
      "t": 147142.7099999995,
      "d": 65.4761249999865,
      "v": 127
    },
    {
      "midi": 54,
      "hit": false,
      "t": 147142.7099999995,
      "d": 89.28562499998952,
      "v": 127
    },
    {
      "midi": 47,
      "hit": false,
      "t": 147285.5669999995,
      "d": 29.761874999996508,
      "v": 127
    },
    {
      "midi": 35,
      "hit": false,
      "t": 147428.42399999948,
      "d": 122.02368750001187,
      "v": 127
    },
    {
      "midi": 47,
      "hit": false,
      "t": 147571.2809999995,
      "d": 65.4761249999865,
      "v": 127
    },
    {
      "midi": 50,
      "hit": false,
      "t": 147714.13799999948,
      "d": 56.547562499996275,
      "v": 127
    },
    {
      "midi": 54,
      "hit": false,
      "t": 147714.13799999948,
      "d": 80.3570624999993,
      "v": 127
    },
    {
      "midi": 47,
      "hit": false,
      "t": 147856.99499999947,
      "d": 35.71424999998999,
      "v": 127
    },
    {
      "midi": 66,
      "hit": false,
      "t": 147999.85199999934,
      "d": 249.99974999998813,
      "v": 114
    },
    {
      "midi": 59,
      "hit": false,
      "t": 147999.85199999934,
      "d": 255.9521249999816,
      "v": 112
    },
    {
      "midi": 62,
      "hit": false,
      "t": 147999.85199999934,
      "d": 255.9521249999816,
      "v": 109
    },
    {
      "midi": 42,
      "hit": false,
      "t": 147999.85199999946,
      "d": 71.42850000000908,
      "v": 127
    },
    {
      "midi": 47,
      "hit": false,
      "t": 148142.70899999948,
      "d": 56.547562499996275,
      "v": 127
    },
    {
      "midi": 54,
      "hit": false,
      "t": 148285.56599999947,
      "d": 65.4761249999865,
      "v": 127
    },
    {
      "midi": 50,
      "hit": false,
      "t": 148285.56599999947,
      "d": 71.42849999997998,
      "v": 127
    },
    {
      "midi": 47,
      "hit": false,
      "t": 148428.42299999946,
      "d": 56.547562499996275,
      "v": 127
    },
    {
      "midi": 47,
      "hit": false,
      "t": 148571.27999999933,
      "d": 80.3570624999993,
      "v": 127
    },
    {
      "midi": 35,
      "hit": false,
      "t": 148571.27999999945,
      "d": 127.97606250000536,
      "v": 127
    },
    {
      "midi": 47,
      "hit": false,
      "t": 148714.13699999932,
      "d": 71.42850000000908,
      "v": 112
    },
    {
      "midi": 47,
      "hit": false,
      "t": 148714.13699999946,
      "d": 56.547562499996275,
      "v": 127
    },
    {
      "midi": 47,
      "hit": false,
      "t": 148856.99399999934,
      "d": 68.45231250001234,
      "v": 127
    },
    {
      "midi": 50,
      "hit": false,
      "t": 148856.99399999945,
      "d": 47.619000000006054,
      "v": 127
    },
    {
      "midi": 54,
      "hit": false,
      "t": 148856.99399999945,
      "d": 74.40468750000582,
      "v": 127
    },
    {
      "midi": 47,
      "hit": false,
      "t": 148999.85099999935,
      "d": 50.595187500002794,
      "v": 117
    },
    {
      "midi": 47,
      "hit": false,
      "t": 148999.85099999947,
      "d": 50.595187500002794,
      "v": 127
    },
    {
      "midi": 42,
      "hit": false,
      "t": 149142.70799999946,
      "d": 65.4761249999865,
      "v": 127
    },
    {
      "midi": 47,
      "hit": false,
      "t": 149285.56499999945,
      "d": 44.64281250000931,
      "v": 127
    },
    {
      "midi": 50,
      "hit": false,
      "t": 149428.42199999947,
      "d": 35.71424999998999,
      "v": 127
    },
    {
      "midi": 54,
      "hit": false,
      "t": 149428.42199999947,
      "d": 74.40468749997672,
      "v": 127
    },
    {
      "midi": 47,
      "hit": false,
      "t": 149571.27899999946,
      "d": 56.547562499996275,
      "v": 127
    },
    {
      "midi": 35,
      "hit": false,
      "t": 149714.13599999945,
      "d": 133.92843749999884,
      "v": 127
    },
    {
      "midi": 47,
      "hit": false,
      "t": 149856.99299999943,
      "d": 71.42850000000908,
      "v": 127
    },
    {
      "midi": 50,
      "hit": false,
      "t": 149999.84999999945,
      "d": 50.595187500002794,
      "v": 127
    },
    {
      "midi": 54,
      "hit": false,
      "t": 149999.84999999945,
      "d": 71.42850000000908,
      "v": 127
    },
    {
      "midi": 47,
      "hit": false,
      "t": 150142.70699999947,
      "d": 44.64281250000931,
      "v": 127
    },
    {
      "midi": 66,
      "hit": false,
      "t": 150285.56399999934,
      "d": 285.7140000000072,
      "v": 100
    },
    {
      "midi": 59,
      "hit": false,
      "t": 150285.56399999934,
      "d": 288.69018750000396,
      "v": 105
    },
    {
      "midi": 62,
      "hit": false,
      "t": 150285.56399999934,
      "d": 294.64256249999744,
      "v": 97
    },
    {
      "midi": 42,
      "hit": false,
      "t": 150285.5639999995,
      "d": 65.4761249999865,
      "v": 127
    },
    {
      "midi": 47,
      "hit": false,
      "t": 150428.42099999948,
      "d": 59.523749999993015,
      "v": 127
    },
    {
      "midi": 50,
      "hit": false,
      "t": 150571.27799999947,
      "d": 62.499937499989755,
      "v": 127
    },
    {
      "midi": 54,
      "hit": false,
      "t": 150571.27799999947,
      "d": 80.3570624999993,
      "v": 127
    },
    {
      "midi": 47,
      "hit": false,
      "t": 150714.13499999946,
      "d": 83.33324999999604,
      "v": 127
    },
    {
      "midi": 43,
      "hit": false,
      "t": 150856.99199999945,
      "d": 124.99987500000861,
      "v": 127
    },
    {
      "midi": 50,
      "hit": false,
      "t": 150999.84899999946,
      "d": 59.523749999993015,
      "v": 127
    },
    {
      "midi": 43,
      "hit": false,
      "t": 151142.70599999934,
      "d": 71.42850000000908,
      "v": 125
    },
    {
      "midi": 59,
      "hit": false,
      "t": 151142.70599999945,
      "d": 68.45231250001234,
      "v": 127
    },
    {
      "midi": 55,
      "hit": false,
      "t": 151142.70599999945,
      "d": 86.30943750002189,
      "v": 127
    },
    {
      "midi": 43,
      "hit": false,
      "t": 151285.56299999935,
      "d": 71.42850000000908,
      "v": 117
    },
    {
      "midi": 50,
      "hit": false,
      "t": 151285.56299999947,
      "d": 74.40468750000582,
      "v": 127
    },
    {
      "midi": 43,
      "hit": false,
      "t": 151428.41999999937,
      "d": 74.40468750000582,
      "v": 112
    },
    {
      "midi": 43,
      "hit": false,
      "t": 151428.4199999995,
      "d": 98.21418750000885,
      "v": 127
    },
    {
      "midi": 43,
      "hit": false,
      "t": 151571.2769999994,
      "d": 92.26181249998626,
      "v": 99
    },
    {
      "midi": 50,
      "hit": false,
      "t": 151571.2769999995,
      "d": 65.4761249999865,
      "v": 127
    },
    {
      "midi": 43,
      "hit": false,
      "t": 151714.13399999938,
      "d": 92.26181249998626,
      "v": 123
    },
    {
      "midi": 55,
      "hit": false,
      "t": 151714.1339999995,
      "d": 83.33324999999604,
      "v": 127
    },
    {
      "midi": 59,
      "hit": false,
      "t": 151714.1339999995,
      "d": 86.30943749999278,
      "v": 127
    },
    {
      "midi": 43,
      "hit": false,
      "t": 151856.99099999937,
      "d": 86.30943749999278,
      "v": 127
    },
    {
      "midi": 50,
      "hit": false,
      "t": 151856.99099999949,
      "d": 89.28562499998952,
      "v": 127
    },
    {
      "midi": 42,
      "hit": false,
      "t": 151999.84799999947,
      "d": 133.92843749999884,
      "v": 127
    },
    {
      "midi": 49,
      "hit": false,
      "t": 152142.70499999946,
      "d": 80.3570624999993,
      "v": 127
    },
    {
      "midi": 42,
      "hit": false,
      "t": 152285.56199999937,
      "d": 74.40468750000582,
      "v": 127
    },
    {
      "midi": 57,
      "hit": false,
      "t": 152285.56199999945,
      "d": 95.23800000001211,
      "v": 127
    },
    {
      "midi": 54,
      "hit": false,
      "t": 152285.56199999945,
      "d": 101.19037500000559,
      "v": 127
    },
    {
      "midi": 42,
      "hit": false,
      "t": 152428.41899999938,
      "d": 74.40468750000582,
      "v": 118
    },
    {
      "midi": 49,
      "hit": false,
      "t": 152428.41899999947,
      "d": 77.38087500000256,
      "v": 127
    },
    {
      "midi": 42,
      "hit": false,
      "t": 152571.2759999994,
      "d": 77.38087500000256,
      "v": 124
    },
    {
      "midi": 42,
      "hit": false,
      "t": 152571.27599999946,
      "d": 110.11893749999581,
      "v": 127
    },
    {
      "midi": 42,
      "hit": false,
      "t": 152714.1329999994,
      "d": 74.40468750000582,
      "v": 118
    },
    {
      "midi": 49,
      "hit": false,
      "t": 152714.13299999945,
      "d": 77.38087500000256,
      "v": 127
    },
    {
      "midi": 42,
      "hit": false,
      "t": 152856.9899999994,
      "d": 71.42850000000908,
      "v": 121
    },
    {
      "midi": 57,
      "hit": false,
      "t": 152856.98999999944,
      "d": 101.19037500000559,
      "v": 127
    },
    {
      "midi": 54,
      "hit": false,
      "t": 152856.98999999944,
      "d": 110.11893749999581,
      "v": 127
    },
    {
      "midi": 42,
      "hit": false,
      "t": 152999.84699999943,
      "d": 77.38087500000256,
      "v": 127
    },
    {
      "midi": 49,
      "hit": false,
      "t": 152999.84699999943,
      "d": 77.38087500000256,
      "v": 127
    },
    {
      "midi": 33,
      "hit": false,
      "t": 153142.70399999942,
      "d": 50.595187500002794,
      "v": 105
    },
    {
      "midi": 33,
      "hit": false,
      "t": 153142.70399999942,
      "d": 124.99987500000861,
      "v": 127
    },
    {
      "midi": 33,
      "hit": false,
      "t": 153285.5609999994,
      "d": 50.595187500002794,
      "v": 95
    },
    {
      "midi": 45,
      "hit": false,
      "t": 153285.56099999943,
      "d": 80.3570624999993,
      "v": 127
    },
    {
      "midi": 33,
      "hit": false,
      "t": 153428.4179999994,
      "d": 56.547562499996275,
      "v": 97
    },
    {
      "midi": 52,
      "hit": false,
      "t": 153428.41799999942,
      "d": 101.19037500000559,
      "v": 127
    },
    {
      "midi": 49,
      "hit": false,
      "t": 153428.41799999942,
      "d": 107.14274999999907,
      "v": 127
    },
    {
      "midi": 33,
      "hit": false,
      "t": 153571.27499999938,
      "d": 44.64281250000931,
      "v": 91
    },
    {
      "midi": 45,
      "hit": false,
      "t": 153571.2749999994,
      "d": 86.30943749999278,
      "v": 127
    },
    {
      "midi": 33,
      "hit": false,
      "t": 153714.1319999994,
      "d": 65.4761249999865,
      "v": 117
    },
    {
      "midi": 40,
      "hit": false,
      "t": 153714.1319999994,
      "d": 83.33324999999604,
      "v": 127
    },
    {
      "midi": 33,
      "hit": false,
      "t": 153856.9889999994,
      "d": 56.547562499996275,
      "v": 91
    },
    {
      "midi": 45,
      "hit": false,
      "t": 153856.9889999994,
      "d": 77.38087500000256,
      "v": 127
    },
    {
      "midi": 33,
      "hit": false,
      "t": 153999.84599999938,
      "d": 59.523749999993015,
      "v": 103
    },
    {
      "midi": 52,
      "hit": false,
      "t": 153999.84599999938,
      "d": 80.3570624999993,
      "v": 127
    },
    {
      "midi": 49,
      "hit": false,
      "t": 153999.84599999938,
      "d": 98.21418750000885,
      "v": 127
    },
    {
      "midi": 33,
      "hit": false,
      "t": 154142.70299999937,
      "d": 44.64281250000931,
      "v": 92
    },
    {
      "midi": 45,
      "hit": false,
      "t": 154142.7029999994,
      "d": 80.3570624999993,
      "v": 127
    },
    {
      "midi": 33,
      "hit": false,
      "t": 154285.5599999994,
      "d": 62.499937499989755,
      "v": 83
    },
    {
      "midi": 33,
      "hit": false,
      "t": 154285.5599999994,
      "d": 130.9522500000021,
      "v": 127
    },
    {
      "midi": 33,
      "hit": false,
      "t": 154428.41699999938,
      "d": 47.619000000006054,
      "v": 91
    },
    {
      "midi": 45,
      "hit": false,
      "t": 154428.41699999938,
      "d": 83.33324999999604,
      "v": 127
    },
    {
      "midi": 52,
      "hit": false,
      "t": 154571.27399999936,
      "d": 65.4761249999865,
      "v": 127
    },
    {
      "midi": 49,
      "hit": false,
      "t": 154571.27399999936,
      "d": 71.42849999997998,
      "v": 127
    },
    {
      "midi": 33,
      "hit": false,
      "t": 154571.2739999994,
      "d": 68.45231250001234,
      "v": 115
    },
    {
      "midi": 45,
      "hit": false,
      "t": 154714.13099999935,
      "d": 68.45231250001234,
      "v": 127
    },
    {
      "midi": 33,
      "hit": false,
      "t": 154714.1309999994,
      "d": 71.42850000000908,
      "v": 120
    },
    {
      "midi": 40,
      "hit": false,
      "t": 154856.98799999937,
      "d": 71.42850000000908,
      "v": 127
    },
    {
      "midi": 33,
      "hit": false,
      "t": 154856.98799999943,
      "d": 68.45231250001234,
      "v": 112
    },
    {
      "midi": 45,
      "hit": false,
      "t": 154999.8449999994,
      "d": 74.40468750000582,
      "v": 127
    },
    {
      "midi": 33,
      "hit": false,
      "t": 154999.84499999945,
      "d": 59.523749999993015,
      "v": 109
    },
    {
      "midi": 52,
      "hit": false,
      "t": 155142.7019999994,
      "d": 53.571374999999534,
      "v": 127
    },
    {
      "midi": 49,
      "hit": false,
      "t": 155142.7019999994,
      "d": 65.4761249999865,
      "v": 127
    },
    {
      "midi": 33,
      "hit": false,
      "t": 155142.70199999944,
      "d": 74.40468750000582,
      "v": 117
    },
    {
      "midi": 45,
      "hit": false,
      "t": 155285.5589999994,
      "d": 56.547562499996275,
      "v": 127
    },
    {
      "midi": 33,
      "hit": false,
      "t": 155285.55899999946,
      "d": 56.547562499996275,
      "v": 127
    },
    {
      "midi": 33,
      "hit": false,
      "t": 155428.4159999994,
      "d": 124.99987500000861,
      "v": 127
    },
    {
      "midi": 33,
      "hit": false,
      "t": 155428.41599999944,
      "d": 50.595187500002794,
      "v": 105
    },
    {
      "midi": 45,
      "hit": false,
      "t": 155571.2729999994,
      "d": 80.3570624999993,
      "v": 127
    },
    {
      "midi": 33,
      "hit": false,
      "t": 155571.27299999943,
      "d": 50.595187500002794,
      "v": 95
    },
    {
      "midi": 52,
      "hit": false,
      "t": 155714.1299999994,
      "d": 101.19037500000559,
      "v": 127
    },
    {
      "midi": 49,
      "hit": false,
      "t": 155714.1299999994,
      "d": 107.14274999999907,
      "v": 127
    },
    {
      "midi": 33,
      "hit": false,
      "t": 155714.12999999942,
      "d": 56.547562499996275,
      "v": 97
    },
    {
      "midi": 45,
      "hit": false,
      "t": 155856.98699999938,
      "d": 86.30943749999278,
      "v": 127
    },
    {
      "midi": 33,
      "hit": false,
      "t": 155856.9869999994,
      "d": 44.64281250000931,
      "v": 91
    },
    {
      "midi": 40,
      "hit": false,
      "t": 155999.84399999937,
      "d": 83.33324999999604,
      "v": 127
    },
    {
      "midi": 33,
      "hit": false,
      "t": 155999.84399999943,
      "d": 65.4761249999865,
      "v": 117
    },
    {
      "midi": 45,
      "hit": false,
      "t": 156142.70099999936,
      "d": 77.38087500000256,
      "v": 127
    },
    {
      "midi": 33,
      "hit": false,
      "t": 156142.70099999942,
      "d": 56.547562499996275,
      "v": 91
    },
    {
      "midi": 52,
      "hit": false,
      "t": 156285.55799999935,
      "d": 80.3570624999993,
      "v": 127
    },
    {
      "midi": 49,
      "hit": false,
      "t": 156285.55799999935,
      "d": 98.21418750000885,
      "v": 127
    },
    {
      "midi": 33,
      "hit": false,
      "t": 156285.5579999994,
      "d": 59.523749999993015,
      "v": 103
    },
    {
      "midi": 45,
      "hit": false,
      "t": 156428.41499999937,
      "d": 80.3570624999993,
      "v": 127
    },
    {
      "midi": 33,
      "hit": false,
      "t": 156428.4149999994,
      "d": 44.64281250000931,
      "v": 92
    },
    {
      "midi": 33,
      "hit": false,
      "t": 156571.27199999936,
      "d": 130.9522500000021,
      "v": 127
    },
    {
      "midi": 33,
      "hit": false,
      "t": 156571.27199999942,
      "d": 62.499937499989755,
      "v": 83
    },
    {
      "midi": 45,
      "hit": false,
      "t": 156714.12899999935,
      "d": 83.33324999999604,
      "v": 127
    },
    {
      "midi": 33,
      "hit": false,
      "t": 156714.1289999994,
      "d": 47.619000000006054,
      "v": 91
    },
    {
      "midi": 52,
      "hit": false,
      "t": 156856.98599999934,
      "d": 65.4761249999865,
      "v": 127
    },
    {
      "midi": 49,
      "hit": false,
      "t": 156856.98599999934,
      "d": 71.42849999997998,
      "v": 127
    },
    {
      "midi": 33,
      "hit": false,
      "t": 156856.98599999942,
      "d": 68.45231250001234,
      "v": 115
    },
    {
      "midi": 45,
      "hit": false,
      "t": 156999.84299999932,
      "d": 68.45231250001234,
      "v": 127
    },
    {
      "midi": 33,
      "hit": false,
      "t": 156999.84299999944,
      "d": 71.42850000000908,
      "v": 120
    },
    {
      "midi": 40,
      "hit": false,
      "t": 157142.69999999934,
      "d": 71.42850000000908,
      "v": 127
    },
    {
      "midi": 33,
      "hit": false,
      "t": 157142.69999999946,
      "d": 68.45231250001234,
      "v": 112
    },
    {
      "midi": 45,
      "hit": false,
      "t": 157285.55699999936,
      "d": 74.40468750000582,
      "v": 127
    },
    {
      "midi": 33,
      "hit": false,
      "t": 157285.55699999948,
      "d": 59.523749999993015,
      "v": 109
    },
    {
      "midi": 52,
      "hit": false,
      "t": 157428.41399999938,
      "d": 53.571374999999534,
      "v": 127
    },
    {
      "midi": 49,
      "hit": false,
      "t": 157428.41399999938,
      "d": 65.4761249999865,
      "v": 127
    },
    {
      "midi": 33,
      "hit": false,
      "t": 157428.41399999947,
      "d": 74.40468750000582,
      "v": 117
    },
    {
      "midi": 45,
      "hit": false,
      "t": 157571.27099999937,
      "d": 56.547562499996275,
      "v": 127
    },
    {
      "midi": 33,
      "hit": false,
      "t": 157571.27099999948,
      "d": 56.547562499996275,
      "v": 127
    },
    {
      "midi": 38,
      "hit": false,
      "t": 157714.12799999936,
      "d": 291.6663750000007,
      "v": 127
    },
    {
      "midi": 71,
      "hit": false,
      "t": 157714.12799999947,
      "d": 288.69018750000396,
      "v": 120
    },
    {
      "midi": 66,
      "hit": false,
      "t": 157714.12799999947,
      "d": 297.6187499999942,
      "v": 124
    },
    {
      "midi": 54,
      "hit": false,
      "t": 157999.84199999936,
      "d": 71.42849999997998,
      "v": 127
    },
    {
      "midi": 50,
      "hit": false,
      "t": 157999.84199999936,
      "d": 107.14274999996996,
      "v": 127
    },
    {
      "midi": 45,
      "hit": false,
      "t": 158142.69899999932,
      "d": 77.38087500000256,
      "v": 127
    },
    {
      "midi": 66,
      "hit": false,
      "t": 158142.69899999947,
      "d": 95.23800000001211,
      "v": 121
    },
    {
      "midi": 69,
      "hit": false,
      "t": 158142.69899999947,
      "d": 95.23800000001211,
      "v": 112
    },
    {
      "midi": 42,
      "hit": false,
      "t": 158285.5559999993,
      "d": 142.85699999998906,
      "v": 127
    },
    {
      "midi": 45,
      "hit": false,
      "t": 158428.4129999993,
      "d": 92.26181249998626,
      "v": 127
    },
    {
      "midi": 64,
      "hit": false,
      "t": 158428.41299999948,
      "d": 56.547562499996275,
      "v": 103
    },
    {
      "midi": 67,
      "hit": false,
      "t": 158428.41299999948,
      "d": 68.45231249998324,
      "v": 105
    },
    {
      "midi": 50,
      "hit": false,
      "t": 158571.2699999993,
      "d": 95.23800000001211,
      "v": 127
    },
    {
      "midi": 54,
      "hit": false,
      "t": 158571.2699999993,
      "d": 101.19037500000559,
      "v": 127
    },
    {
      "midi": 62,
      "hit": false,
      "t": 158571.26999999947,
      "d": 110.11893749999581,
      "v": 94
    },
    {
      "midi": 66,
      "hit": false,
      "t": 158571.26999999947,
      "d": 116.07131249998929,
      "v": 118
    },
    {
      "midi": 45,
      "hit": false,
      "t": 158714.1269999993,
      "d": 74.40468750000582,
      "v": 127
    },
    {
      "midi": 38,
      "hit": false,
      "t": 158856.98399999933,
      "d": 306.5473125000135,
      "v": 127
    },
    {
      "midi": 50,
      "hit": false,
      "t": 159142.69799999933,
      "d": 74.40468750000582,
      "v": 127
    },
    {
      "midi": 54,
      "hit": false,
      "t": 159142.69799999933,
      "d": 80.3570624999993,
      "v": 127
    },
    {
      "midi": 45,
      "hit": false,
      "t": 159285.55499999932,
      "d": 89.28562499998952,
      "v": 127
    },
    {
      "midi": 42,
      "hit": false,
      "t": 159428.4119999993,
      "d": 157.73793750000186,
      "v": 127
    },
    {
      "midi": 45,
      "hit": false,
      "t": 159571.2689999993,
      "d": 89.28562500001863,
      "v": 127
    },
    {
      "midi": 50,
      "hit": false,
      "t": 159714.12599999932,
      "d": 101.19037500000559,
      "v": 127
    },
    {
      "midi": 54,
      "hit": false,
      "t": 159714.12599999932,
      "d": 101.19037500000559,
      "v": 127
    },
    {
      "midi": 45,
      "hit": false,
      "t": 159856.98299999934,
      "d": 89.28562499998952,
      "v": 127
    },
    {
      "midi": 35,
      "hit": false,
      "t": 159999.83999999933,
      "d": 276.7854374999879,
      "v": 127
    },
    {
      "midi": 54,
      "hit": false,
      "t": 160285.5539999993,
      "d": 86.30943749999278,
      "v": 127
    },
    {
      "midi": 50,
      "hit": false,
      "t": 160285.5539999993,
      "d": 95.237999999983,
      "v": 127
    },
    {
      "midi": 66,
      "hit": false,
      "t": 160285.55399999945,
      "d": 38.69043749998673,
      "v": 107
    },
    {
      "midi": 62,
      "hit": false,
      "t": 160285.55399999945,
      "d": 50.59518749997369,
      "v": 92
    },
    {
      "midi": 71,
      "hit": false,
      "t": 160285.55399999945,
      "d": 50.59518749997369,
      "v": 109
    },
    {
      "midi": 47,
      "hit": false,
      "t": 160428.4109999993,
      "d": 77.38087500000256,
      "v": 127
    },
    {
      "midi": 42,
      "hit": false,
      "t": 160571.26799999928,
      "d": 148.80937499998254,
      "v": 127
    },
    {
      "midi": 47,
      "hit": false,
      "t": 160714.12499999927,
      "d": 83.33324999999604,
      "v": 127
    },
    {
      "midi": 50,
      "hit": false,
      "t": 160856.98199999926,
      "d": 98.21418750000885,
      "v": 127
    },
    {
      "midi": 54,
      "hit": false,
      "t": 160856.98199999926,
      "d": 101.19037500000559,
      "v": 127
    },
    {
      "midi": 71,
      "hit": false,
      "t": 160856.98199999944,
      "d": 35.71424999998999,
      "v": 89
    },
    {
      "midi": 66,
      "hit": false,
      "t": 160856.98199999944,
      "d": 47.61899999997695,
      "v": 97
    },
    {
      "midi": 62,
      "hit": false,
      "t": 160856.98199999944,
      "d": 53.57137499997043,
      "v": 86
    },
    {
      "midi": 47,
      "hit": false,
      "t": 160999.83899999928,
      "d": 80.3570624999993,
      "v": 127
    },
    {
      "midi": 35,
      "hit": false,
      "t": 161142.69599999927,
      "d": 270.8330624999944,
      "v": 127
    },
    {
      "midi": 54,
      "hit": false,
      "t": 161428.40999999928,
      "d": 80.3570624999993,
      "v": 127
    },
    {
      "midi": 50,
      "hit": false,
      "t": 161428.40999999928,
      "d": 86.30943749999278,
      "v": 127
    },
    {
      "midi": 66,
      "hit": false,
      "t": 161428.4099999994,
      "d": 29.761874999996508,
      "v": 58
    },
    {
      "midi": 47,
      "hit": false,
      "t": 161571.26699999926,
      "d": 74.40468750000582,
      "v": 127
    },
    {
      "midi": 42,
      "hit": false,
      "t": 161714.12399999928,
      "d": 119.04749999998603,
      "v": 127
    },
    {
      "midi": 47,
      "hit": false,
      "t": 161856.98099999927,
      "d": 83.33324999999604,
      "v": 127
    },
    {
      "midi": 50,
      "hit": false,
      "t": 161999.83799999926,
      "d": 95.23800000001211,
      "v": 127
    },
    {
      "midi": 54,
      "hit": false,
      "t": 161999.83799999926,
      "d": 104.16656250000233,
      "v": 127
    },
    {
      "midi": 62,
      "hit": false,
      "t": 161999.83799999938,
      "d": 29.761874999996508,
      "v": 80
    },
    {
      "midi": 66,
      "hit": false,
      "t": 161999.83799999938,
      "d": 32.73806249999325,
      "v": 87
    },
    {
      "midi": 47,
      "hit": false,
      "t": 162142.69499999925,
      "d": 68.45231250001234,
      "v": 127
    },
    {
      "midi": 31,
      "hit": false,
      "t": 162285.55199999927,
      "d": 303.57112500001676,
      "v": 127
    },
    {
      "midi": 55,
      "hit": false,
      "t": 162285.55199999938,
      "d": 351.1901249999937,
      "v": 125
    },
    {
      "midi": 55,
      "hit": false,
      "t": 162571.26599999928,
      "d": 83.33324999999604,
      "v": 127
    },
    {
      "midi": 50,
      "hit": false,
      "t": 162571.26599999928,
      "d": 107.14274999999907,
      "v": 127
    },
    {
      "midi": 47,
      "hit": false,
      "t": 162714.12299999926,
      "d": 74.40468750000582,
      "v": 127
    },
    {
      "midi": 59,
      "hit": false,
      "t": 162714.12299999938,
      "d": 139.88081249999232,
      "v": 127
    },
    {
      "midi": 38,
      "hit": false,
      "t": 162856.97999999928,
      "d": 136.90462499999558,
      "v": 127
    },
    {
      "midi": 47,
      "hit": false,
      "t": 162999.83699999927,
      "d": 77.38087500000256,
      "v": 127
    },
    {
      "midi": 62,
      "hit": false,
      "t": 162999.83699999936,
      "d": 50.595187500002794,
      "v": 115
    },
    {
      "midi": 55,
      "hit": false,
      "t": 163142.69399999926,
      "d": 98.21418750000885,
      "v": 127
    },
    {
      "midi": 50,
      "hit": false,
      "t": 163142.69399999926,
      "d": 101.19037500000559,
      "v": 127
    },
    {
      "midi": 62,
      "hit": false,
      "t": 163142.69399999935,
      "d": 53.571374999999534,
      "v": 127
    },
    {
      "midi": 47,
      "hit": false,
      "t": 163285.55099999928,
      "d": 74.40468750000582,
      "v": 127
    },
    {
      "midi": 31,
      "hit": false,
      "t": 163428.4079999993,
      "d": 300.59493750002,
      "v": 127
    },
    {
      "midi": 55,
      "hit": false,
      "t": 163714.1219999993,
      "d": 89.28562500001863,
      "v": 127
    },
    {
      "midi": 50,
      "hit": false,
      "t": 163714.1219999993,
      "d": 107.14275000002817,
      "v": 127
    },
    {
      "midi": 62,
      "hit": false,
      "t": 163714.12199999933,
      "d": 44.64281250000931,
      "v": 112
    },
    {
      "midi": 59,
      "hit": false,
      "t": 163714.12199999933,
      "d": 47.619000000006054,
      "v": 115
    },
    {
      "midi": 67,
      "hit": false,
      "t": 163714.12199999933,
      "d": 50.595187500002794,
      "v": 103
    },
    {
      "midi": 47,
      "hit": false,
      "t": 163856.97899999932,
      "d": 74.40468750000582,
      "v": 127
    },
    {
      "midi": 38,
      "hit": false,
      "t": 163999.83599999934,
      "d": 160.7141249999986,
      "v": 127
    },
    {
      "midi": 47,
      "hit": false,
      "t": 164142.69299999933,
      "d": 86.30943750002189,
      "v": 127
    },
    {
      "midi": 62,
      "hit": false,
      "t": 164285.54999999935,
      "d": 53.571374999999534,
      "v": 109
    },
    {
      "midi": 59,
      "hit": false,
      "t": 164285.54999999935,
      "d": 62.499937499989755,
      "v": 107
    },
    {
      "midi": 67,
      "hit": false,
      "t": 164285.54999999935,
      "d": 68.45231249998324,
      "v": 99
    },
    {
      "midi": 50,
      "hit": false,
      "t": 164285.54999999935,
      "d": 98.21418750000885,
      "v": 127
    },
    {
      "midi": 55,
      "hit": false,
      "t": 164285.54999999935,
      "d": 101.19037500000559,
      "v": 127
    },
    {
      "midi": 47,
      "hit": false,
      "t": 164428.40699999937,
      "d": 83.33324999999604,
      "v": 127
    },
    {
      "midi": 38,
      "hit": false,
      "t": 164571.26399999936,
      "d": 291.6663750000007,
      "v": 127
    },
    {
      "midi": 62,
      "hit": false,
      "t": 164856.97799999933,
      "d": 41.66662500001257,
      "v": 88
    },
    {
      "midi": 57,
      "hit": false,
      "t": 164856.97799999933,
      "d": 47.619000000006054,
      "v": 88
    },
    {
      "midi": 66,
      "hit": false,
      "t": 164856.97799999933,
      "d": 56.547562499996275,
      "v": 89
    },
    {
      "midi": 54,
      "hit": false,
      "t": 164856.97799999936,
      "d": 71.42849999997998,
      "v": 127
    },
    {
      "midi": 50,
      "hit": false,
      "t": 164856.97799999936,
      "d": 77.38087499997346,
      "v": 127
    },
    {
      "midi": 45,
      "hit": false,
      "t": 164999.83499999932,
      "d": 80.3570624999993,
      "v": 127
    },
    {
      "midi": 33,
      "hit": false,
      "t": 165142.6919999993,
      "d": 163.69031249999534,
      "v": 127
    },
    {
      "midi": 45,
      "hit": false,
      "t": 165285.5489999993,
      "d": 89.28562500001863,
      "v": 127
    },
    {
      "midi": 57,
      "hit": false,
      "t": 165428.40599999932,
      "d": 44.64281250000931,
      "v": 99
    },
    {
      "midi": 62,
      "hit": false,
      "t": 165428.40599999932,
      "d": 44.64281250000931,
      "v": 101
    },
    {
      "midi": 66,
      "hit": false,
      "t": 165428.40599999932,
      "d": 56.547562499996275,
      "v": 104
    },
    {
      "midi": 54,
      "hit": false,
      "t": 165428.40599999932,
      "d": 83.33324999999604,
      "v": 127
    },
    {
      "midi": 50,
      "hit": false,
      "t": 165428.40599999932,
      "d": 98.21418750000885,
      "v": 127
    },
    {
      "midi": 45,
      "hit": false,
      "t": 165571.26299999934,
      "d": 74.40468750000582,
      "v": 127
    },
    {
      "midi": 38,
      "hit": false,
      "t": 165714.11999999936,
      "d": 247.02356249999139,
      "v": 127
    },
    {
      "midi": 54,
      "hit": false,
      "t": 165999.83399999933,
      "d": 77.38087500000256,
      "v": 127
    },
    {
      "midi": 50,
      "hit": false,
      "t": 165999.83399999933,
      "d": 89.28562499998952,
      "v": 127
    },
    {
      "midi": 45,
      "hit": false,
      "t": 166142.69099999932,
      "d": 86.30943749999278,
      "v": 127
    },
    {
      "midi": 42,
      "hit": false,
      "t": 166285.5479999993,
      "d": 124.99987500000861,
      "v": 127
    },
    {
      "midi": 45,
      "hit": false,
      "t": 166428.40499999933,
      "d": 92.26181249998626,
      "v": 127
    },
    {
      "midi": 54,
      "hit": false,
      "t": 166571.26199999932,
      "d": 89.28562499998952,
      "v": 127
    },
    {
      "midi": 50,
      "hit": false,
      "t": 166571.26199999932,
      "d": 95.237999999983,
      "v": 127
    },
    {
      "midi": 45,
      "hit": false,
      "t": 166714.1189999993,
      "d": 47.619000000006054,
      "v": 127
    },
    {
      "midi": 71,
      "hit": false,
      "t": 166856.97599999933,
      "d": 288.69018750000396,
      "v": 120
    },
    {
      "midi": 66,
      "hit": false,
      "t": 166856.97599999933,
      "d": 297.6187499999942,
      "v": 124
    },
    {
      "midi": 38,
      "hit": false,
      "t": 166856.97599999933,
      "d": 291.6663750000007,
      "v": 127
    },
    {
      "midi": 54,
      "hit": false,
      "t": 167142.68999999933,
      "d": 71.42849999997998,
      "v": 127
    },
    {
      "midi": 50,
      "hit": false,
      "t": 167142.68999999933,
      "d": 107.14274999996996,
      "v": 127
    },
    {
      "midi": 45,
      "hit": false,
      "t": 167285.5469999993,
      "d": 77.38087500000256,
      "v": 127
    },
    {
      "midi": 66,
      "hit": false,
      "t": 167285.54699999932,
      "d": 95.23800000001211,
      "v": 121
    },
    {
      "midi": 69,
      "hit": false,
      "t": 167285.54699999932,
      "d": 95.23800000001211,
      "v": 112
    },
    {
      "midi": 42,
      "hit": false,
      "t": 167428.40399999928,
      "d": 142.85699999998906,
      "v": 127
    },
    {
      "midi": 45,
      "hit": false,
      "t": 167571.26099999927,
      "d": 92.26181249998626,
      "v": 127
    },
    {
      "midi": 64,
      "hit": false,
      "t": 167571.26099999933,
      "d": 56.547562499996275,
      "v": 103
    },
    {
      "midi": 67,
      "hit": false,
      "t": 167571.26099999933,
      "d": 68.45231249998324,
      "v": 105
    },
    {
      "midi": 50,
      "hit": false,
      "t": 167714.11799999926,
      "d": 95.23800000001211,
      "v": 127
    },
    {
      "midi": 54,
      "hit": false,
      "t": 167714.11799999926,
      "d": 101.19037500000559,
      "v": 127
    },
    {
      "midi": 62,
      "hit": false,
      "t": 167714.11799999932,
      "d": 110.11893749999581,
      "v": 94
    },
    {
      "midi": 66,
      "hit": false,
      "t": 167714.11799999932,
      "d": 116.07131249998929,
      "v": 118
    },
    {
      "midi": 45,
      "hit": false,
      "t": 167856.97499999928,
      "d": 74.40468750000582,
      "v": 127
    },
    {
      "midi": 38,
      "hit": false,
      "t": 167999.8319999993,
      "d": 306.5473125000135,
      "v": 127
    },
    {
      "midi": 50,
      "hit": false,
      "t": 168285.5459999993,
      "d": 74.40468750000582,
      "v": 127
    },
    {
      "midi": 54,
      "hit": false,
      "t": 168285.5459999993,
      "d": 80.3570624999993,
      "v": 127
    },
    {
      "midi": 45,
      "hit": false,
      "t": 168428.4029999993,
      "d": 89.28562499998952,
      "v": 127
    },
    {
      "midi": 42,
      "hit": false,
      "t": 168571.25999999928,
      "d": 157.73793750000186,
      "v": 127
    },
    {
      "midi": 45,
      "hit": false,
      "t": 168714.11699999927,
      "d": 89.28562500001863,
      "v": 127
    },
    {
      "midi": 50,
      "hit": false,
      "t": 168856.9739999993,
      "d": 101.19037500000559,
      "v": 127
    },
    {
      "midi": 54,
      "hit": false,
      "t": 168856.9739999993,
      "d": 101.19037500000559,
      "v": 127
    },
    {
      "midi": 45,
      "hit": false,
      "t": 168999.8309999993,
      "d": 89.28562499998952,
      "v": 127
    },
    {
      "midi": 35,
      "hit": false,
      "t": 169142.6879999993,
      "d": 276.7854374999879,
      "v": 127
    },
    {
      "midi": 54,
      "hit": false,
      "t": 169428.40199999927,
      "d": 86.30943749999278,
      "v": 127
    },
    {
      "midi": 50,
      "hit": false,
      "t": 169428.40199999927,
      "d": 95.237999999983,
      "v": 127
    },
    {
      "midi": 66,
      "hit": false,
      "t": 169428.4019999993,
      "d": 38.69043749998673,
      "v": 107
    },
    {
      "midi": 62,
      "hit": false,
      "t": 169428.4019999993,
      "d": 50.59518749997369,
      "v": 92
    },
    {
      "midi": 71,
      "hit": false,
      "t": 169428.4019999993,
      "d": 50.59518749997369,
      "v": 109
    },
    {
      "midi": 47,
      "hit": false,
      "t": 169571.25899999926,
      "d": 77.38087500000256,
      "v": 127
    },
    {
      "midi": 42,
      "hit": false,
      "t": 169714.11599999925,
      "d": 148.80937499998254,
      "v": 127
    },
    {
      "midi": 47,
      "hit": false,
      "t": 169856.97299999924,
      "d": 83.33324999999604,
      "v": 127
    },
    {
      "midi": 50,
      "hit": false,
      "t": 169999.82999999923,
      "d": 98.21418750000885,
      "v": 127
    },
    {
      "midi": 54,
      "hit": false,
      "t": 169999.82999999923,
      "d": 101.19037500000559,
      "v": 127
    },
    {
      "midi": 71,
      "hit": false,
      "t": 169999.8299999993,
      "d": 35.71424999998999,
      "v": 89
    },
    {
      "midi": 66,
      "hit": false,
      "t": 169999.8299999993,
      "d": 47.61899999997695,
      "v": 97
    },
    {
      "midi": 62,
      "hit": false,
      "t": 169999.8299999993,
      "d": 53.57137499997043,
      "v": 86
    },
    {
      "midi": 47,
      "hit": false,
      "t": 170142.68699999925,
      "d": 80.3570624999993,
      "v": 127
    },
    {
      "midi": 35,
      "hit": false,
      "t": 170285.54399999924,
      "d": 270.8330624999944,
      "v": 127
    },
    {
      "midi": 66,
      "hit": false,
      "t": 170571.25799999924,
      "d": 29.761874999996508,
      "v": 58
    },
    {
      "midi": 54,
      "hit": false,
      "t": 170571.25799999924,
      "d": 80.3570624999993,
      "v": 127
    },
    {
      "midi": 50,
      "hit": false,
      "t": 170571.25799999924,
      "d": 86.30943749999278,
      "v": 127
    },
    {
      "midi": 47,
      "hit": false,
      "t": 170714.11499999923,
      "d": 74.40468750000582,
      "v": 127
    },
    {
      "midi": 42,
      "hit": false,
      "t": 170856.97199999925,
      "d": 119.04749999998603,
      "v": 127
    },
    {
      "midi": 47,
      "hit": false,
      "t": 170999.82899999924,
      "d": 83.33324999999604,
      "v": 127
    },
    {
      "midi": 62,
      "hit": false,
      "t": 171142.68599999923,
      "d": 29.761874999996508,
      "v": 80
    },
    {
      "midi": 66,
      "hit": false,
      "t": 171142.68599999923,
      "d": 32.73806249999325,
      "v": 87
    },
    {
      "midi": 50,
      "hit": false,
      "t": 171142.68599999923,
      "d": 95.23800000001211,
      "v": 127
    },
    {
      "midi": 54,
      "hit": false,
      "t": 171142.68599999923,
      "d": 104.16656250000233,
      "v": 127
    },
    {
      "midi": 47,
      "hit": false,
      "t": 171285.54299999922,
      "d": 68.45231250001234,
      "v": 127
    },
    {
      "midi": 55,
      "hit": false,
      "t": 171428.39999999924,
      "d": 351.1901249999937,
      "v": 125
    },
    {
      "midi": 31,
      "hit": false,
      "t": 171428.39999999924,
      "d": 303.57112500001676,
      "v": 127
    },
    {
      "midi": 55,
      "hit": false,
      "t": 171714.11399999924,
      "d": 83.33324999999604,
      "v": 127
    },
    {
      "midi": 50,
      "hit": false,
      "t": 171714.11399999924,
      "d": 107.14274999999907,
      "v": 127
    },
    {
      "midi": 59,
      "hit": false,
      "t": 171856.97099999923,
      "d": 139.88081249999232,
      "v": 127
    },
    {
      "midi": 47,
      "hit": false,
      "t": 171856.97099999923,
      "d": 74.40468750000582,
      "v": 127
    },
    {
      "midi": 38,
      "hit": false,
      "t": 171999.82799999925,
      "d": 136.90462499999558,
      "v": 127
    },
    {
      "midi": 62,
      "hit": false,
      "t": 172142.6849999992,
      "d": 50.595187500002794,
      "v": 115
    },
    {
      "midi": 47,
      "hit": false,
      "t": 172142.68499999924,
      "d": 77.38087500000256,
      "v": 127
    },
    {
      "midi": 62,
      "hit": false,
      "t": 172285.5419999992,
      "d": 53.571374999999534,
      "v": 127
    },
    {
      "midi": 55,
      "hit": false,
      "t": 172285.54199999923,
      "d": 98.21418750000885,
      "v": 127
    },
    {
      "midi": 50,
      "hit": false,
      "t": 172285.54199999923,
      "d": 101.19037500000559,
      "v": 127
    },
    {
      "midi": 47,
      "hit": false,
      "t": 172428.39899999925,
      "d": 74.40468750000582,
      "v": 127
    },
    {
      "midi": 31,
      "hit": false,
      "t": 172571.25599999927,
      "d": 300.59493750002,
      "v": 127
    },
    {
      "midi": 62,
      "hit": false,
      "t": 172856.9699999992,
      "d": 44.64281250000931,
      "v": 112
    },
    {
      "midi": 59,
      "hit": false,
      "t": 172856.9699999992,
      "d": 47.619000000006054,
      "v": 115
    },
    {
      "midi": 67,
      "hit": false,
      "t": 172856.9699999992,
      "d": 50.595187500002794,
      "v": 103
    },
    {
      "midi": 55,
      "hit": false,
      "t": 172856.96999999927,
      "d": 89.28562500001863,
      "v": 127
    },
    {
      "midi": 50,
      "hit": false,
      "t": 172856.96999999927,
      "d": 107.14275000002817,
      "v": 127
    },
    {
      "midi": 47,
      "hit": false,
      "t": 172999.8269999993,
      "d": 74.40468750000582,
      "v": 127
    },
    {
      "midi": 38,
      "hit": false,
      "t": 173142.6839999993,
      "d": 160.7141249999986,
      "v": 127
    },
    {
      "midi": 47,
      "hit": false,
      "t": 173285.5409999993,
      "d": 86.30943750002189,
      "v": 127
    },
    {
      "midi": 62,
      "hit": false,
      "t": 173428.3979999992,
      "d": 53.571374999999534,
      "v": 109
    },
    {
      "midi": 59,
      "hit": false,
      "t": 173428.3979999992,
      "d": 62.499937499989755,
      "v": 107
    },
    {
      "midi": 67,
      "hit": false,
      "t": 173428.3979999992,
      "d": 68.45231249998324,
      "v": 99
    },
    {
      "midi": 50,
      "hit": false,
      "t": 173428.39799999932,
      "d": 98.21418750000885,
      "v": 127
    },
    {
      "midi": 55,
      "hit": false,
      "t": 173428.39799999932,
      "d": 101.19037500000559,
      "v": 127
    },
    {
      "midi": 47,
      "hit": false,
      "t": 173571.25499999934,
      "d": 83.33324999999604,
      "v": 127
    },
    {
      "midi": 38,
      "hit": false,
      "t": 173714.11199999932,
      "d": 291.6663750000007,
      "v": 127
    },
    {
      "midi": 62,
      "hit": false,
      "t": 173999.8259999992,
      "d": 41.66662500001257,
      "v": 88
    },
    {
      "midi": 57,
      "hit": false,
      "t": 173999.8259999992,
      "d": 47.619000000006054,
      "v": 88
    },
    {
      "midi": 66,
      "hit": false,
      "t": 173999.8259999992,
      "d": 56.547562499996275,
      "v": 89
    },
    {
      "midi": 54,
      "hit": false,
      "t": 173999.82599999933,
      "d": 71.42849999997998,
      "v": 127
    },
    {
      "midi": 50,
      "hit": false,
      "t": 173999.82599999933,
      "d": 77.38087499997346,
      "v": 127
    },
    {
      "midi": 45,
      "hit": false,
      "t": 174142.6829999993,
      "d": 80.3570624999993,
      "v": 127
    },
    {
      "midi": 33,
      "hit": false,
      "t": 174285.53999999928,
      "d": 163.69031249999534,
      "v": 127
    },
    {
      "midi": 45,
      "hit": false,
      "t": 174428.39699999927,
      "d": 89.28562500001863,
      "v": 127
    },
    {
      "midi": 57,
      "hit": false,
      "t": 174571.25399999917,
      "d": 44.64281250000931,
      "v": 99
    },
    {
      "midi": 62,
      "hit": false,
      "t": 174571.25399999917,
      "d": 44.64281250000931,
      "v": 101
    },
    {
      "midi": 66,
      "hit": false,
      "t": 174571.25399999917,
      "d": 56.547562499996275,
      "v": 104
    },
    {
      "midi": 54,
      "hit": false,
      "t": 174571.2539999993,
      "d": 83.33324999999604,
      "v": 127
    },
    {
      "midi": 50,
      "hit": false,
      "t": 174571.2539999993,
      "d": 98.21418750000885,
      "v": 127
    },
    {
      "midi": 45,
      "hit": false,
      "t": 174714.1109999993,
      "d": 74.40468750000582,
      "v": 127
    },
    {
      "midi": 38,
      "hit": false,
      "t": 174856.96799999932,
      "d": 247.02356249999139,
      "v": 127
    },
    {
      "midi": 54,
      "hit": false,
      "t": 175142.6819999993,
      "d": 77.38087500000256,
      "v": 127
    },
    {
      "midi": 50,
      "hit": false,
      "t": 175142.6819999993,
      "d": 89.28562499998952,
      "v": 127
    },
    {
      "midi": 45,
      "hit": false,
      "t": 175285.5389999993,
      "d": 86.30943749999278,
      "v": 127
    },
    {
      "midi": 42,
      "hit": false,
      "t": 175428.39599999928,
      "d": 124.99987500000861,
      "v": 127
    },
    {
      "midi": 45,
      "hit": false,
      "t": 175571.2529999993,
      "d": 92.26181249998626,
      "v": 127
    },
    {
      "midi": 54,
      "hit": false,
      "t": 175714.1099999993,
      "d": 89.28562499998952,
      "v": 127
    },
    {
      "midi": 50,
      "hit": false,
      "t": 175714.1099999993,
      "d": 95.237999999983,
      "v": 127
    },
    {
      "midi": 45,
      "hit": false,
      "t": 175856.96699999928,
      "d": 47.619000000006054,
      "v": 127
    },
    {
      "midi": 47,
      "hit": false,
      "t": 175999.82399999918,
      "d": 62.499937499989755,
      "v": 117
    },
    {
      "midi": 36,
      "hit": false,
      "t": 175999.8239999993,
      "d": 68.45231250001234,
      "v": 127
    },
    {
      "midi": 35,
      "hit": false,
      "t": 175999.8239999993,
      "d": 80.3570624999993,
      "v": 127
    },
    {
      "midi": 66,
      "hit": false,
      "t": 176142.68099999917,
      "d": 50.595187500002794,
      "v": 83
    },
    {
      "midi": 62,
      "hit": false,
      "t": 176142.68099999917,
      "d": 56.547562499996275,
      "v": 83
    },
    {
      "midi": 71,
      "hit": false,
      "t": 176142.68099999917,
      "d": 59.523749999993015,
      "v": 94
    },
    {
      "midi": 47,
      "hit": false,
      "t": 176142.68099999917,
      "d": 74.40468750000582,
      "v": 101
    },
    {
      "midi": 47,
      "hit": false,
      "t": 176142.68099999928,
      "d": 56.547562499996275,
      "v": 127
    },
    {
      "midi": 47,
      "hit": false,
      "t": 176285.5379999992,
      "d": 77.38087500000256,
      "v": 97
    },
    {
      "midi": 50,
      "hit": false,
      "t": 176285.53799999927,
      "d": 95.23800000001211,
      "v": 127
    },
    {
      "midi": 54,
      "hit": false,
      "t": 176285.53799999927,
      "d": 95.23800000001211,
      "v": 127
    },
    {
      "midi": 66,
      "hit": false,
      "t": 176428.39499999917,
      "d": 32.73806249999325,
      "v": 50
    },
    {
      "midi": 71,
      "hit": false,
      "t": 176428.39499999917,
      "d": 41.66662499998347,
      "v": 74
    },
    {
      "midi": 62,
      "hit": false,
      "t": 176428.39499999917,
      "d": 44.64281249998021,
      "v": 50
    },
    {
      "midi": 47,
      "hit": false,
      "t": 176428.39499999917,
      "d": 92.26181249998626,
      "v": 112
    },
    {
      "midi": 47,
      "hit": false,
      "t": 176428.3949999993,
      "d": 59.523749999993015,
      "v": 127
    },
    {
      "midi": 35,
      "hit": false,
      "t": 176571.25199999928,
      "d": 119.04749999998603,
      "v": 127
    },
    {
      "midi": 45,
      "hit": false,
      "t": 176714.10899999915,
      "d": 53.571374999999534,
      "v": 89
    },
    {
      "midi": 66,
      "hit": false,
      "t": 176714.10899999915,
      "d": 53.571374999999534,
      "v": 83
    },
    {
      "midi": 62,
      "hit": false,
      "t": 176714.10899999915,
      "d": 56.547562499996275,
      "v": 79
    },
    {
      "midi": 71,
      "hit": false,
      "t": 176714.10899999915,
      "d": 56.547562499996275,
      "v": 91
    },
    {
      "midi": 47,
      "hit": false,
      "t": 176714.10899999927,
      "d": 68.45231250001234,
      "v": 127
    },
    {
      "midi": 47,
      "hit": false,
      "t": 176856.96599999914,
      "d": 142.85699999998906,
      "v": 107
    },
    {
      "midi": 50,
      "hit": false,
      "t": 176856.9659999993,
      "d": 65.4761249999865,
      "v": 127
    },
    {
      "midi": 54,
      "hit": false,
      "t": 176856.9659999993,
      "d": 71.42849999997998,
      "v": 127
    },
    {
      "midi": 71,
      "hit": false,
      "t": 176999.82299999913,
      "d": 59.523749999993015,
      "v": 89
    },
    {
      "midi": 66,
      "hit": false,
      "t": 176999.82299999913,
      "d": 62.499937499989755,
      "v": 83
    },
    {
      "midi": 62,
      "hit": false,
      "t": 176999.82299999913,
      "d": 68.45231249998324,
      "v": 74
    },
    {
      "midi": 47,
      "hit": false,
      "t": 176999.82299999928,
      "d": 68.45231250001234,
      "v": 127
    },
    {
      "midi": 35,
      "hit": false,
      "t": 177142.6799999993,
      "d": 107.14274999999907,
      "v": 127
    },
    {
      "midi": 47,
      "hit": false,
      "t": 177285.5369999991,
      "d": 53.571374999999534,
      "v": 79
    },
    {
      "midi": 71,
      "hit": false,
      "t": 177285.5369999991,
      "d": 62.499937499989755,
      "v": 82
    },
    {
      "midi": 66,
      "hit": false,
      "t": 177285.5369999991,
      "d": 65.4761249999865,
      "v": 72
    },
    {
      "midi": 62,
      "hit": false,
      "t": 177285.5369999991,
      "d": 74.40468749997672,
      "v": 60
    },
    {
      "midi": 47,
      "hit": false,
      "t": 177285.53699999928,
      "d": 65.4761249999865,
      "v": 127
    },
    {
      "midi": 49,
      "hit": false,
      "t": 177428.3939999991,
      "d": 157.73793750000186,
      "v": 121
    },
    {
      "midi": 50,
      "hit": false,
      "t": 177428.39399999927,
      "d": 59.523749999993015,
      "v": 127
    },
    {
      "midi": 54,
      "hit": false,
      "t": 177428.39399999927,
      "d": 83.33324999999604,
      "v": 127
    },
    {
      "midi": 71,
      "hit": false,
      "t": 177571.2509999991,
      "d": 62.49993750001886,
      "v": 83
    },
    {
      "midi": 66,
      "hit": false,
      "t": 177571.2509999991,
      "d": 65.4761250000156,
      "v": 75
    },
    {
      "midi": 62,
      "hit": false,
      "t": 177571.2509999991,
      "d": 74.40468750000582,
      "v": 65
    },
    {
      "midi": 47,
      "hit": false,
      "t": 177571.25099999926,
      "d": 65.4761249999865,
      "v": 127
    },
    {
      "midi": 50,
      "hit": false,
      "t": 177714.1079999991,
      "d": 190.4759999999951,
      "v": 107
    },
    {
      "midi": 74,
      "hit": false,
      "t": 177714.1079999991,
      "d": 241.0711874999979,
      "v": 101
    },
    {
      "midi": 35,
      "hit": false,
      "t": 177714.10799999925,
      "d": 107.14274999999907,
      "v": 127
    },
    {
      "midi": 71,
      "hit": false,
      "t": 177856.9649999991,
      "d": 62.49993750001886,
      "v": 74
    },
    {
      "midi": 66,
      "hit": false,
      "t": 177856.9649999991,
      "d": 68.45231250001234,
      "v": 69
    },
    {
      "midi": 62,
      "hit": false,
      "t": 177856.9649999991,
      "d": 77.38087500000256,
      "v": 58
    },
    {
      "midi": 47,
      "hit": false,
      "t": 177856.96499999924,
      "d": 77.38087500000256,
      "v": 127
    },
    {
      "midi": 69,
      "hit": false,
      "t": 177999.8219999991,
      "d": 56.547562499996275,
      "v": 107
    },
    {
      "midi": 49,
      "hit": false,
      "t": 177999.8219999991,
      "d": 136.90462499999558,
      "v": 124
    },
    {
      "midi": 50,
      "hit": false,
      "t": 177999.82199999923,
      "d": 80.3570624999993,
      "v": 127
    },
    {
      "midi": 54,
      "hit": false,
      "t": 177999.82199999923,
      "d": 89.28562499998952,
      "v": 127
    },
    {
      "midi": 71,
      "hit": false,
      "t": 178142.6789999991,
      "d": 59.523749999993015,
      "v": 85
    },
    {
      "midi": 66,
      "hit": false,
      "t": 178142.6789999991,
      "d": 62.499937499989755,
      "v": 79
    },
    {
      "midi": 62,
      "hit": false,
      "t": 178142.6789999991,
      "d": 71.42849999997998,
      "v": 66
    },
    {
      "midi": 47,
      "hit": false,
      "t": 178142.67899999922,
      "d": 77.38087500000256,
      "v": 127
    },
    {
      "midi": 47,
      "hit": false,
      "t": 178285.5359999991,
      "d": 104.16656250000233,
      "v": 117
    },
    {
      "midi": 35,
      "hit": false,
      "t": 178285.5359999992,
      "d": 119.04749999998603,
      "v": 127
    },
    {
      "midi": 66,
      "hit": false,
      "t": 178428.39299999908,
      "d": 62.499937499989755,
      "v": 79
    },
    {
      "midi": 62,
      "hit": false,
      "t": 178428.39299999908,
      "d": 68.45231249998324,
      "v": 60
    },
    {
      "midi": 71,
      "hit": false,
      "t": 178428.39299999908,
      "d": 68.45231249998324,
      "v": 83
    },
    {
      "midi": 47,
      "hit": false,
      "t": 178428.39299999908,
      "d": 74.40468749997672,
      "v": 101
    },
    {
      "midi": 47,
      "hit": false,
      "t": 178428.3929999992,
      "d": 65.4761249999865,
      "v": 127
    },
    {
      "midi": 47,
      "hit": false,
      "t": 178571.24999999907,
      "d": 89.28562499998952,
      "v": 103
    },
    {
      "midi": 50,
      "hit": false,
      "t": 178571.24999999919,
      "d": 62.499937499989755,
      "v": 127
    },
    {
      "midi": 54,
      "hit": false,
      "t": 178571.24999999919,
      "d": 83.33324999999604,
      "v": 127
    },
    {
      "midi": 71,
      "hit": false,
      "t": 178714.10699999906,
      "d": 59.523749999993015,
      "v": 82
    },
    {
      "midi": 62,
      "hit": false,
      "t": 178714.10699999906,
      "d": 62.499937499989755,
      "v": 58
    },
    {
      "midi": 66,
      "hit": false,
      "t": 178714.10699999906,
      "d": 65.4761249999865,
      "v": 75
    },
    {
      "midi": 47,
      "hit": false,
      "t": 178714.10699999906,
      "d": 89.28562499998952,
      "v": 117
    },
    {
      "midi": 47,
      "hit": false,
      "t": 178714.10699999917,
      "d": 77.38087500000256,
      "v": 127
    },
    {
      "midi": 35,
      "hit": false,
      "t": 178856.96399999916,
      "d": 116.07131249998929,
      "v": 127
    },
    {
      "midi": 45,
      "hit": false,
      "t": 178999.82099999904,
      "d": 62.499937499989755,
      "v": 94
    },
    {
      "midi": 71,
      "hit": false,
      "t": 178999.82099999904,
      "d": 62.499937499989755,
      "v": 86
    },
    {
      "midi": 66,
      "hit": false,
      "t": 178999.82099999904,
      "d": 65.4761249999865,
      "v": 77
    },
    {
      "midi": 62,
      "hit": false,
      "t": 178999.82099999904,
      "d": 68.45231249998324,
      "v": 67
    },
    {
      "midi": 47,
      "hit": false,
      "t": 178999.82099999915,
      "d": 80.3570624999993,
      "v": 127
    },
    {
      "midi": 47,
      "hit": false,
      "t": 179142.67799999902,
      "d": 160.7141249999986,
      "v": 103
    },
    {
      "midi": 50,
      "hit": false,
      "t": 179142.67799999914,
      "d": 71.42850000000908,
      "v": 127
    },
    {
      "midi": 54,
      "hit": false,
      "t": 179142.67799999914,
      "d": 86.30943750002189,
      "v": 127
    },
    {
      "midi": 71,
      "hit": false,
      "t": 179285.534999999,
      "d": 53.571374999999534,
      "v": 79
    },
    {
      "midi": 62,
      "hit": false,
      "t": 179285.534999999,
      "d": 62.499937499989755,
      "v": 60
    },
    {
      "midi": 66,
      "hit": false,
      "t": 179285.534999999,
      "d": 65.4761249999865,
      "v": 81
    },
    {
      "midi": 47,
      "hit": false,
      "t": 179285.53499999916,
      "d": 68.45231250001234,
      "v": 127
    },
    {
      "midi": 35,
      "hit": false,
      "t": 179428.39199999918,
      "d": 122.02368750001187,
      "v": 127
    },
    {
      "midi": 71,
      "hit": false,
      "t": 179571.248999999,
      "d": 53.571374999999534,
      "v": 83
    },
    {
      "midi": 66,
      "hit": false,
      "t": 179571.248999999,
      "d": 59.523749999993015,
      "v": 77
    },
    {
      "midi": 62,
      "hit": false,
      "t": 179571.248999999,
      "d": 62.499937499989755,
      "v": 66
    },
    {
      "midi": 47,
      "hit": false,
      "t": 179571.248999999,
      "d": 80.3570624999993,
      "v": 85
    },
    {
      "midi": 47,
      "hit": false,
      "t": 179571.2489999992,
      "d": 68.45231250001234,
      "v": 127
    },
    {
      "midi": 49,
      "hit": false,
      "t": 179714.10599999898,
      "d": 124.99987500000861,
      "v": 127
    },
    {
      "midi": 50,
      "hit": false,
      "t": 179714.1059999992,
      "d": 77.38087500000256,
      "v": 127
    },
    {
      "midi": 54,
      "hit": false,
      "t": 179714.1059999992,
      "d": 83.33324999999604,
      "v": 127
    },
    {
      "midi": 66,
      "hit": false,
      "t": 179856.962999999,
      "d": 53.571374999999534,
      "v": 81
    },
    {
      "midi": 71,
      "hit": false,
      "t": 179856.962999999,
      "d": 53.571374999999534,
      "v": 85
    },
    {
      "midi": 62,
      "hit": false,
      "t": 179856.962999999,
      "d": 59.523749999993015,
      "v": 68
    },
    {
      "midi": 47,
      "hit": false,
      "t": 179856.9629999992,
      "d": 71.42850000000908,
      "v": 127
    },
    {
      "midi": 71,
      "hit": false,
      "t": 179999.819999999,
      "d": 133.92843749999884,
      "v": 112
    },
    {
      "midi": 50,
      "hit": false,
      "t": 179999.819999999,
      "d": 154.76174999997602,
      "v": 109
    },
    {
      "midi": 74,
      "hit": false,
      "t": 179999.819999999,
      "d": 178.57124999997905,
      "v": 105
    },
    {
      "midi": 35,
      "hit": false,
      "t": 179999.81999999922,
      "d": 122.02368750001187,
      "v": 127
    },
    {
      "midi": 71,
      "hit": false,
      "t": 180142.67699999898,
      "d": 56.547562499996275,
      "v": 85
    },
    {
      "midi": 66,
      "hit": false,
      "t": 180142.67699999898,
      "d": 59.523749999993015,
      "v": 77
    },
    {
      "midi": 62,
      "hit": false,
      "t": 180142.67699999898,
      "d": 65.4761249999865,
      "v": 65
    },
    {
      "midi": 69,
      "hit": false,
      "t": 180142.67699999898,
      "d": 98.21418749997974,
      "v": 115
    },
    {
      "midi": 47,
      "hit": false,
      "t": 180142.67699999924,
      "d": 80.3570624999993,
      "v": 127
    },
    {
      "midi": 49,
      "hit": false,
      "t": 180285.53399999897,
      "d": 104.16656250000233,
      "v": 127
    },
    {
      "midi": 50,
      "hit": false,
      "t": 180285.53399999923,
      "d": 71.42850000000908,
      "v": 127
    },
    {
      "midi": 54,
      "hit": false,
      "t": 180285.53399999923,
      "d": 80.3570624999993,
      "v": 127
    },
    {
      "midi": 71,
      "hit": false,
      "t": 180428.39099999896,
      "d": 56.547562499996275,
      "v": 83
    },
    {
      "midi": 66,
      "hit": false,
      "t": 180428.39099999896,
      "d": 59.523749999993015,
      "v": 79
    },
    {
      "midi": 62,
      "hit": false,
      "t": 180428.39099999896,
      "d": 62.499937499989755,
      "v": 68
    },
    {
      "midi": 47,
      "hit": false,
      "t": 180428.39099999922,
      "d": 62.499937499989755,
      "v": 127
    },
    {
      "midi": 47,
      "hit": false,
      "t": 180571.24799999894,
      "d": 95.23800000001211,
      "v": 123
    },
    {
      "midi": 35,
      "hit": false,
      "t": 180571.2479999992,
      "d": 122.02368750001187,
      "v": 127
    },
    {
      "midi": 66,
      "hit": false,
      "t": 180714.10499999896,
      "d": 50.595187500002794,
      "v": 73
    },
    {
      "midi": 71,
      "hit": false,
      "t": 180714.10499999896,
      "d": 50.595187500002794,
      "v": 83
    },
    {
      "midi": 62,
      "hit": false,
      "t": 180714.10499999896,
      "d": 56.547562499996275,
      "v": 67
    },
    {
      "midi": 47,
      "hit": false,
      "t": 180714.10499999896,
      "d": 83.33324999999604,
      "v": 95
    },
    {
      "midi": 47,
      "hit": false,
      "t": 180714.10499999922,
      "d": 86.30943749999278,
      "v": 127
    },
    {
      "midi": 47,
      "hit": false,
      "t": 180856.96199999895,
      "d": 119.04749999998603,
      "v": 125
    },
    {
      "midi": 50,
      "hit": false,
      "t": 180856.9619999992,
      "d": 74.40468750000582,
      "v": 127
    },
    {
      "midi": 54,
      "hit": false,
      "t": 180856.9619999992,
      "d": 83.33324999999604,
      "v": 127
    },
    {
      "midi": 71,
      "hit": false,
      "t": 180999.81899999894,
      "d": 56.547562499996275,
      "v": 85
    },
    {
      "midi": 66,
      "hit": false,
      "t": 180999.81899999894,
      "d": 59.523749999993015,
      "v": 81
    },
    {
      "midi": 62,
      "hit": false,
      "t": 180999.81899999894,
      "d": 68.45231249998324,
      "v": 70
    },
    {
      "midi": 47,
      "hit": false,
      "t": 180999.81899999894,
      "d": 92.26181249998626,
      "v": 123
    },
    {
      "midi": 47,
      "hit": false,
      "t": 180999.8189999992,
      "d": 86.30943749999278,
      "v": 127
    },
    {
      "midi": 35,
      "hit": false,
      "t": 181142.6759999992,
      "d": 122.02368750001187,
      "v": 127
    },
    {
      "midi": 45,
      "hit": false,
      "t": 181285.53299999892,
      "d": 56.547562499996275,
      "v": 77
    },
    {
      "midi": 71,
      "hit": false,
      "t": 181285.53299999892,
      "d": 59.523749999993015,
      "v": 85
    },
    {
      "midi": 66,
      "hit": false,
      "t": 181285.53299999892,
      "d": 62.499937499989755,
      "v": 77
    },
    {
      "midi": 62,
      "hit": false,
      "t": 181285.53299999892,
      "d": 68.45231249998324,
      "v": 61
    },
    {
      "midi": 47,
      "hit": false,
      "t": 181285.5329999992,
      "d": 92.26181249998626,
      "v": 127
    },
    {
      "midi": 47,
      "hit": false,
      "t": 181428.3899999989,
      "d": 139.88081249999232,
      "v": 109
    },
    {
      "midi": 50,
      "hit": false,
      "t": 181428.3899999992,
      "d": 77.38087500000256,
      "v": 127
    },
    {
      "midi": 54,
      "hit": false,
      "t": 181428.3899999992,
      "d": 77.38087500000256,
      "v": 127
    },
    {
      "midi": 71,
      "hit": false,
      "t": 181571.2469999989,
      "d": 56.547562499996275,
      "v": 88
    },
    {
      "midi": 62,
      "hit": false,
      "t": 181571.2469999989,
      "d": 62.499937499989755,
      "v": 71
    },
    {
      "midi": 66,
      "hit": false,
      "t": 181571.2469999989,
      "d": 62.499937499989755,
      "v": 85
    },
    {
      "midi": 47,
      "hit": false,
      "t": 181571.2469999992,
      "d": 74.40468750000582,
      "v": 127
    },
    {
      "midi": 35,
      "hit": false,
      "t": 181714.1039999992,
      "d": 127.97606250000536,
      "v": 127
    },
    {
      "midi": 66,
      "hit": false,
      "t": 181856.96099999888,
      "d": 65.4761249999865,
      "v": 81
    },
    {
      "midi": 71,
      "hit": false,
      "t": 181856.96099999888,
      "d": 65.4761249999865,
      "v": 86
    },
    {
      "midi": 62,
      "hit": false,
      "t": 181856.96099999888,
      "d": 68.45231249998324,
      "v": 66
    },
    {
      "midi": 47,
      "hit": false,
      "t": 181856.96099999888,
      "d": 80.3570624999702,
      "v": 115
    },
    {
      "midi": 47,
      "hit": false,
      "t": 181856.96099999922,
      "d": 89.28562499998952,
      "v": 127
    },
    {
      "midi": 49,
      "hit": false,
      "t": 181999.81799999884,
      "d": 136.90462499999558,
      "v": 127
    },
    {
      "midi": 54,
      "hit": false,
      "t": 181999.8179999992,
      "d": 74.40468750000582,
      "v": 127
    },
    {
      "midi": 50,
      "hit": false,
      "t": 181999.8179999992,
      "d": 80.3570624999993,
      "v": 127
    },
    {
      "midi": 62,
      "hit": false,
      "t": 182142.67499999882,
      "d": 59.523749999993015,
      "v": 53
    },
    {
      "midi": 71,
      "hit": false,
      "t": 182142.67499999882,
      "d": 59.523749999993015,
      "v": 80
    },
    {
      "midi": 66,
      "hit": false,
      "t": 182142.67499999882,
      "d": 65.4761249999865,
      "v": 77
    },
    {
      "midi": 47,
      "hit": false,
      "t": 182142.6749999992,
      "d": 71.42850000000908,
      "v": 127
    },
    {
      "midi": 50,
      "hit": false,
      "t": 182285.5319999988,
      "d": 172.61887499998556,
      "v": 103
    },
    {
      "midi": 74,
      "hit": false,
      "t": 182285.5319999988,
      "d": 264.88068750000093,
      "v": 103
    },
    {
      "midi": 35,
      "hit": false,
      "t": 182285.53199999922,
      "d": 107.14274999999907,
      "v": 127
    },
    {
      "midi": 66,
      "hit": false,
      "t": 182428.3889999988,
      "d": 71.42850000000908,
      "v": 83
    },
    {
      "midi": 71,
      "hit": false,
      "t": 182428.3889999988,
      "d": 71.42850000000908,
      "v": 91
    },
    {
      "midi": 62,
      "hit": false,
      "t": 182428.3889999988,
      "d": 77.38087500000256,
      "v": 72
    },
    {
      "midi": 47,
      "hit": false,
      "t": 182428.3889999992,
      "d": 77.38087500000256,
      "v": 127
    },
    {
      "midi": 69,
      "hit": false,
      "t": 182571.24599999882,
      "d": 53.571374999999534,
      "v": 105
    },
    {
      "midi": 49,
      "hit": false,
      "t": 182571.24599999882,
      "d": 92.26181249998626,
      "v": 127
    },
    {
      "midi": 50,
      "hit": false,
      "t": 182571.2459999992,
      "d": 71.42850000000908,
      "v": 127
    },
    {
      "midi": 54,
      "hit": false,
      "t": 182571.2459999992,
      "d": 74.40468750000582,
      "v": 127
    },
    {
      "midi": 71,
      "hit": false,
      "t": 182714.1029999988,
      "d": 47.619000000006054,
      "v": 85
    },
    {
      "midi": 62,
      "hit": false,
      "t": 182714.1029999988,
      "d": 53.571374999999534,
      "v": 70
    },
    {
      "midi": 66,
      "hit": false,
      "t": 182714.1029999988,
      "d": 65.4761249999865,
      "v": 89
    },
    {
      "midi": 47,
      "hit": false,
      "t": 182714.10299999922,
      "d": 83.33324999999604,
      "v": 127
    },
    {
      "midi": 47,
      "hit": false,
      "t": 182856.9599999988,
      "d": 89.28562499998952,
      "v": 123
    },
    {
      "midi": 35,
      "hit": false,
      "t": 182856.9599999992,
      "d": 122.02368750001187,
      "v": 127
    },
    {
      "midi": 66,
      "hit": false,
      "t": 182999.8169999988,
      "d": 65.4761249999865,
      "v": 79
    },
    {
      "midi": 71,
      "hit": false,
      "t": 182999.8169999988,
      "d": 68.45231249998324,
      "v": 89
    },
    {
      "midi": 62,
      "hit": false,
      "t": 182999.8169999988,
      "d": 74.40468749997672,
      "v": 70
    },
    {
      "midi": 47,
      "hit": false,
      "t": 182999.8169999988,
      "d": 86.30943749996368,
      "v": 86
    },
    {
      "midi": 47,
      "hit": false,
      "t": 182999.81699999922,
      "d": 74.40468750000582,
      "v": 127
    },
    {
      "midi": 47,
      "hit": false,
      "t": 183142.67399999875,
      "d": 95.23800000001211,
      "v": 115
    },
    {
      "midi": 50,
      "hit": false,
      "t": 183142.67399999924,
      "d": 71.42850000000908,
      "v": 127
    },
    {
      "midi": 54,
      "hit": false,
      "t": 183142.67399999924,
      "d": 80.3570624999993,
      "v": 127
    },
    {
      "midi": 62,
      "hit": false,
      "t": 183285.53099999877,
      "d": 68.45231250001234,
      "v": 66
    },
    {
      "midi": 71,
      "hit": false,
      "t": 183285.53099999877,
      "d": 68.45231250001234,
      "v": 85
    },
    {
      "midi": 66,
      "hit": false,
      "t": 183285.53099999877,
      "d": 74.40468750000582,
      "v": 83
    },
    {
      "midi": 47,
      "hit": false,
      "t": 183285.53099999877,
      "d": 95.23800000001211,
      "v": 112
    },
    {
      "midi": 47,
      "hit": false,
      "t": 183285.53099999923,
      "d": 77.38087500000256,
      "v": 127
    },
    {
      "midi": 35,
      "hit": false,
      "t": 183428.38799999922,
      "d": 127.97606250000536,
      "v": 127
    },
    {
      "midi": 45,
      "hit": false,
      "t": 183571.24499999877,
      "d": 50.595187500002794,
      "v": 92
    },
    {
      "midi": 66,
      "hit": false,
      "t": 183571.24499999877,
      "d": 74.40468750000582,
      "v": 77
    },
    {
      "midi": 71,
      "hit": false,
      "t": 183571.24499999877,
      "d": 74.40468750000582,
      "v": 88
    },
    {
      "midi": 62,
      "hit": false,
      "t": 183571.24499999877,
      "d": 80.3570624999993,
      "v": 68
    },
    {
      "midi": 47,
      "hit": false,
      "t": 183571.24499999924,
      "d": 80.3570624999993,
      "v": 127
    },
    {
      "midi": 47,
      "hit": false,
      "t": 183714.10199999876,
      "d": 145.8331874999858,
      "v": 109
    },
    {
      "midi": 50,
      "hit": false,
      "t": 183714.10199999923,
      "d": 59.523749999993015,
      "v": 127
    },
    {
      "midi": 54,
      "hit": false,
      "t": 183714.10199999923,
      "d": 86.30943749999278,
      "v": 127
    },
    {
      "midi": 71,
      "hit": false,
      "t": 183856.95899999875,
      "d": 71.42850000000908,
      "v": 88
    },
    {
      "midi": 62,
      "hit": false,
      "t": 183856.95899999875,
      "d": 74.40468750000582,
      "v": 70
    },
    {
      "midi": 66,
      "hit": false,
      "t": 183856.95899999875,
      "d": 74.40468750000582,
      "v": 81
    },
    {
      "midi": 47,
      "hit": false,
      "t": 183856.95899999922,
      "d": 83.33324999999604,
      "v": 127
    },
    {
      "midi": 35,
      "hit": false,
      "t": 183999.8159999992,
      "d": 136.90462499999558,
      "v": 127
    },
    {
      "midi": 47,
      "hit": false,
      "t": 184142.67299999876,
      "d": 65.4761249999865,
      "v": 103
    },
    {
      "midi": 71,
      "hit": false,
      "t": 184142.67299999876,
      "d": 68.45231249998324,
      "v": 89
    },
    {
      "midi": 62,
      "hit": false,
      "t": 184142.67299999876,
      "d": 71.42849999997998,
      "v": 68
    },
    {
      "midi": 66,
      "hit": false,
      "t": 184142.67299999876,
      "d": 71.42849999997998,
      "v": 85
    },
    {
      "midi": 47,
      "hit": false,
      "t": 184142.6729999992,
      "d": 95.23800000001211,
      "v": 127
    },
    {
      "midi": 49,
      "hit": false,
      "t": 184285.52999999875,
      "d": 151.78556249997928,
      "v": 124
    },
    {
      "midi": 50,
      "hit": false,
      "t": 184285.5299999992,
      "d": 77.38087500000256,
      "v": 127
    },
    {
      "midi": 54,
      "hit": false,
      "t": 184285.5299999992,
      "d": 86.30943749999278,
      "v": 127
    },
    {
      "midi": 71,
      "hit": false,
      "t": 184428.38699999874,
      "d": 53.571374999999534,
      "v": 85
    },
    {
      "midi": 62,
      "hit": false,
      "t": 184428.38699999874,
      "d": 65.4761249999865,
      "v": 66
    },
    {
      "midi": 66,
      "hit": false,
      "t": 184428.38699999874,
      "d": 68.45231249998324,
      "v": 85
    },
    {
      "midi": 47,
      "hit": false,
      "t": 184428.3869999992,
      "d": 86.30943749999278,
      "v": 127
    },
    {
      "midi": 71,
      "hit": false,
      "t": 184571.24399999873,
      "d": 104.16656250000233,
      "v": 117
    },
    {
      "midi": 74,
      "hit": false,
      "t": 184571.24399999873,
      "d": 145.8331874999858,
      "v": 97
    },
    {
      "midi": 50,
      "hit": false,
      "t": 184571.24399999873,
      "d": 187.49981249999837,
      "v": 103
    },
    {
      "midi": 35,
      "hit": false,
      "t": 184571.2439999992,
      "d": 148.80937499998254,
      "v": 127
    },
    {
      "midi": 66,
      "hit": false,
      "t": 184714.1009999987,
      "d": 68.45231250001234,
      "v": 81
    },
    {
      "midi": 69,
      "hit": false,
      "t": 184714.1009999987,
      "d": 68.45231250001234,
      "v": 120
    },
    {
      "midi": 71,
      "hit": false,
      "t": 184714.1009999987,
      "d": 68.45231250001234,
      "v": 88
    },
    {
      "midi": 62,
      "hit": false,
      "t": 184714.1009999987,
      "d": 74.40468750000582,
      "v": 67
    },
    {
      "midi": 47,
      "hit": false,
      "t": 184714.10099999918,
      "d": 89.28562499998952,
      "v": 127
    },
    {
      "midi": 49,
      "hit": false,
      "t": 184856.95799999873,
      "d": 68.45231250001234,
      "v": 124
    },
    {
      "midi": 50,
      "hit": false,
      "t": 184856.95799999917,
      "d": 71.42850000000908,
      "v": 127
    },
    {
      "midi": 54,
      "hit": false,
      "t": 184856.95799999917,
      "d": 83.33324999999604,
      "v": 127
    },
    {
      "midi": 62,
      "hit": false,
      "t": 184999.81499999875,
      "d": 53.571374999999534,
      "v": 80
    },
    {
      "midi": 66,
      "hit": false,
      "t": 184999.81499999875,
      "d": 56.547562499996275,
      "v": 85
    },
    {
      "midi": 71,
      "hit": false,
      "t": 184999.81499999875,
      "d": 59.523749999993015,
      "v": 92
    },
    {
      "midi": 47,
      "hit": false,
      "t": 184999.81499999916,
      "d": 53.571374999999534,
      "v": 127
    },
    {
      "midi": 47,
      "hit": false,
      "t": 185142.67199999874,
      "d": 62.499937499989755,
      "v": 117
    },
    {
      "midi": 36,
      "hit": false,
      "t": 185142.67199999915,
      "d": 68.45231250001234,
      "v": 127
    },
    {
      "midi": 35,
      "hit": false,
      "t": 185142.67199999915,
      "d": 80.3570624999993,
      "v": 127
    },
    {
      "midi": 66,
      "hit": false,
      "t": 185285.52899999873,
      "d": 50.595187500002794,
      "v": 83
    },
    {
      "midi": 62,
      "hit": false,
      "t": 185285.52899999873,
      "d": 56.547562499996275,
      "v": 83
    },
    {
      "midi": 71,
      "hit": false,
      "t": 185285.52899999873,
      "d": 59.523749999993015,
      "v": 94
    },
    {
      "midi": 47,
      "hit": false,
      "t": 185285.52899999873,
      "d": 74.40468750000582,
      "v": 101
    },
    {
      "midi": 47,
      "hit": false,
      "t": 185285.52899999914,
      "d": 56.547562499996275,
      "v": 127
    },
    {
      "midi": 47,
      "hit": false,
      "t": 185428.38599999875,
      "d": 77.38087500000256,
      "v": 97
    },
    {
      "midi": 50,
      "hit": false,
      "t": 185428.38599999913,
      "d": 95.23800000001211,
      "v": 127
    },
    {
      "midi": 54,
      "hit": false,
      "t": 185428.38599999913,
      "d": 95.23800000001211,
      "v": 127
    },
    {
      "midi": 66,
      "hit": false,
      "t": 185571.24299999874,
      "d": 32.73806249999325,
      "v": 50
    },
    {
      "midi": 71,
      "hit": false,
      "t": 185571.24299999874,
      "d": 41.66662499998347,
      "v": 74
    },
    {
      "midi": 62,
      "hit": false,
      "t": 185571.24299999874,
      "d": 44.64281249998021,
      "v": 50
    },
    {
      "midi": 47,
      "hit": false,
      "t": 185571.24299999874,
      "d": 92.26181249998626,
      "v": 112
    },
    {
      "midi": 47,
      "hit": false,
      "t": 185571.24299999914,
      "d": 59.523749999993015,
      "v": 127
    },
    {
      "midi": 35,
      "hit": false,
      "t": 185714.09999999913,
      "d": 119.04749999998603,
      "v": 127
    },
    {
      "midi": 45,
      "hit": false,
      "t": 185856.9569999987,
      "d": 53.571374999999534,
      "v": 89
    },
    {
      "midi": 66,
      "hit": false,
      "t": 185856.9569999987,
      "d": 53.571374999999534,
      "v": 83
    },
    {
      "midi": 62,
      "hit": false,
      "t": 185856.9569999987,
      "d": 56.547562499996275,
      "v": 79
    },
    {
      "midi": 71,
      "hit": false,
      "t": 185856.9569999987,
      "d": 56.547562499996275,
      "v": 91
    },
    {
      "midi": 47,
      "hit": false,
      "t": 185856.95699999912,
      "d": 68.45231250001234,
      "v": 127
    },
    {
      "midi": 47,
      "hit": false,
      "t": 185999.8139999987,
      "d": 142.85699999998906,
      "v": 107
    },
    {
      "midi": 50,
      "hit": false,
      "t": 185999.81399999914,
      "d": 65.4761249999865,
      "v": 127
    },
    {
      "midi": 54,
      "hit": false,
      "t": 185999.81399999914,
      "d": 71.42849999997998,
      "v": 127
    },
    {
      "midi": 71,
      "hit": false,
      "t": 186142.6709999987,
      "d": 59.523749999993015,
      "v": 89
    },
    {
      "midi": 66,
      "hit": false,
      "t": 186142.6709999987,
      "d": 62.499937499989755,
      "v": 83
    },
    {
      "midi": 62,
      "hit": false,
      "t": 186142.6709999987,
      "d": 68.45231249998324,
      "v": 74
    },
    {
      "midi": 47,
      "hit": false,
      "t": 186142.67099999913,
      "d": 68.45231250001234,
      "v": 127
    },
    {
      "midi": 35,
      "hit": false,
      "t": 186285.52799999915,
      "d": 107.14274999999907,
      "v": 127
    },
    {
      "midi": 47,
      "hit": false,
      "t": 186428.38499999867,
      "d": 53.571374999999534,
      "v": 79
    },
    {
      "midi": 71,
      "hit": false,
      "t": 186428.38499999867,
      "d": 62.499937499989755,
      "v": 82
    },
    {
      "midi": 66,
      "hit": false,
      "t": 186428.38499999867,
      "d": 65.4761249999865,
      "v": 72
    },
    {
      "midi": 62,
      "hit": false,
      "t": 186428.38499999867,
      "d": 74.40468749997672,
      "v": 60
    },
    {
      "midi": 47,
      "hit": false,
      "t": 186428.38499999914,
      "d": 65.4761249999865,
      "v": 127
    },
    {
      "midi": 49,
      "hit": false,
      "t": 186571.24199999866,
      "d": 157.73793750000186,
      "v": 121
    },
    {
      "midi": 50,
      "hit": false,
      "t": 186571.24199999913,
      "d": 59.523749999993015,
      "v": 127
    },
    {
      "midi": 54,
      "hit": false,
      "t": 186571.24199999913,
      "d": 83.33324999999604,
      "v": 127
    },
    {
      "midi": 71,
      "hit": false,
      "t": 186714.09899999865,
      "d": 62.49993750001886,
      "v": 83
    },
    {
      "midi": 66,
      "hit": false,
      "t": 186714.09899999865,
      "d": 65.4761250000156,
      "v": 75
    },
    {
      "midi": 62,
      "hit": false,
      "t": 186714.09899999865,
      "d": 74.40468750000582,
      "v": 65
    },
    {
      "midi": 47,
      "hit": false,
      "t": 186714.0989999991,
      "d": 65.4761249999865,
      "v": 127
    },
    {
      "midi": 50,
      "hit": false,
      "t": 186856.95599999867,
      "d": 190.4759999999951,
      "v": 107
    },
    {
      "midi": 74,
      "hit": false,
      "t": 186856.95599999867,
      "d": 241.0711874999979,
      "v": 101
    },
    {
      "midi": 35,
      "hit": false,
      "t": 186856.9559999991,
      "d": 107.14274999999907,
      "v": 127
    },
    {
      "midi": 71,
      "hit": false,
      "t": 186999.81299999866,
      "d": 62.49993750001886,
      "v": 74
    },
    {
      "midi": 66,
      "hit": false,
      "t": 186999.81299999866,
      "d": 68.45231250001234,
      "v": 69
    },
    {
      "midi": 62,
      "hit": false,
      "t": 186999.81299999866,
      "d": 77.38087500000256,
      "v": 58
    },
    {
      "midi": 47,
      "hit": false,
      "t": 186999.8129999991,
      "d": 77.38087500000256,
      "v": 127
    },
    {
      "midi": 69,
      "hit": false,
      "t": 187142.66999999867,
      "d": 56.547562499996275,
      "v": 107
    },
    {
      "midi": 49,
      "hit": false,
      "t": 187142.66999999867,
      "d": 136.90462499999558,
      "v": 124
    },
    {
      "midi": 50,
      "hit": false,
      "t": 187142.66999999908,
      "d": 80.3570624999993,
      "v": 127
    },
    {
      "midi": 54,
      "hit": false,
      "t": 187142.66999999908,
      "d": 89.28562499998952,
      "v": 127
    },
    {
      "midi": 71,
      "hit": false,
      "t": 187285.52699999866,
      "d": 59.523749999993015,
      "v": 85
    },
    {
      "midi": 66,
      "hit": false,
      "t": 187285.52699999866,
      "d": 62.499937499989755,
      "v": 79
    },
    {
      "midi": 62,
      "hit": false,
      "t": 187285.52699999866,
      "d": 71.42849999997998,
      "v": 66
    },
    {
      "midi": 47,
      "hit": false,
      "t": 187285.52699999907,
      "d": 77.38087500000256,
      "v": 127
    },
    {
      "midi": 47,
      "hit": false,
      "t": 187428.38399999865,
      "d": 104.16656250000233,
      "v": 117
    },
    {
      "midi": 35,
      "hit": false,
      "t": 187428.38399999906,
      "d": 119.04749999998603,
      "v": 127
    },
    {
      "midi": 66,
      "hit": false,
      "t": 187571.24099999864,
      "d": 62.499937499989755,
      "v": 79
    },
    {
      "midi": 62,
      "hit": false,
      "t": 187571.24099999864,
      "d": 68.45231249998324,
      "v": 60
    },
    {
      "midi": 71,
      "hit": false,
      "t": 187571.24099999864,
      "d": 68.45231249998324,
      "v": 83
    },
    {
      "midi": 47,
      "hit": false,
      "t": 187571.24099999864,
      "d": 74.40468749997672,
      "v": 101
    },
    {
      "midi": 47,
      "hit": false,
      "t": 187571.24099999905,
      "d": 65.4761249999865,
      "v": 127
    },
    {
      "midi": 47,
      "hit": false,
      "t": 187714.09799999863,
      "d": 89.28562499998952,
      "v": 103
    },
    {
      "midi": 50,
      "hit": false,
      "t": 187714.09799999904,
      "d": 62.499937499989755,
      "v": 127
    },
    {
      "midi": 54,
      "hit": false,
      "t": 187714.09799999904,
      "d": 83.33324999999604,
      "v": 127
    },
    {
      "midi": 71,
      "hit": false,
      "t": 187856.95499999862,
      "d": 59.523749999993015,
      "v": 82
    },
    {
      "midi": 62,
      "hit": false,
      "t": 187856.95499999862,
      "d": 62.499937499989755,
      "v": 58
    },
    {
      "midi": 66,
      "hit": false,
      "t": 187856.95499999862,
      "d": 65.4761249999865,
      "v": 75
    },
    {
      "midi": 47,
      "hit": false,
      "t": 187856.95499999862,
      "d": 89.28562499998952,
      "v": 117
    },
    {
      "midi": 47,
      "hit": false,
      "t": 187856.95499999903,
      "d": 77.38087500000256,
      "v": 127
    },
    {
      "midi": 35,
      "hit": false,
      "t": 187999.81199999902,
      "d": 116.07131249998929,
      "v": 127
    },
    {
      "midi": 45,
      "hit": false,
      "t": 188142.6689999986,
      "d": 62.499937499989755,
      "v": 94
    },
    {
      "midi": 71,
      "hit": false,
      "t": 188142.6689999986,
      "d": 62.499937499989755,
      "v": 86
    },
    {
      "midi": 66,
      "hit": false,
      "t": 188142.6689999986,
      "d": 65.4761249999865,
      "v": 77
    },
    {
      "midi": 62,
      "hit": false,
      "t": 188142.6689999986,
      "d": 68.45231249998324,
      "v": 67
    },
    {
      "midi": 47,
      "hit": false,
      "t": 188142.668999999,
      "d": 80.3570624999993,
      "v": 127
    },
    {
      "midi": 47,
      "hit": false,
      "t": 188285.5259999986,
      "d": 160.7141249999986,
      "v": 103
    },
    {
      "midi": 50,
      "hit": false,
      "t": 188285.525999999,
      "d": 71.42850000000908,
      "v": 127
    },
    {
      "midi": 54,
      "hit": false,
      "t": 188285.525999999,
      "d": 86.30943750002189,
      "v": 127
    },
    {
      "midi": 71,
      "hit": false,
      "t": 188428.38299999858,
      "d": 53.571374999999534,
      "v": 79
    },
    {
      "midi": 62,
      "hit": false,
      "t": 188428.38299999858,
      "d": 62.499937499989755,
      "v": 60
    },
    {
      "midi": 66,
      "hit": false,
      "t": 188428.38299999858,
      "d": 65.4761249999865,
      "v": 81
    },
    {
      "midi": 47,
      "hit": false,
      "t": 188428.382999999,
      "d": 68.45231250001234,
      "v": 127
    },
    {
      "midi": 35,
      "hit": false,
      "t": 188571.23999999903,
      "d": 122.02368750001187,
      "v": 127
    },
    {
      "midi": 71,
      "hit": false,
      "t": 188714.09699999855,
      "d": 53.571374999999534,
      "v": 83
    },
    {
      "midi": 66,
      "hit": false,
      "t": 188714.09699999855,
      "d": 59.523749999993015,
      "v": 77
    },
    {
      "midi": 62,
      "hit": false,
      "t": 188714.09699999855,
      "d": 62.499937499989755,
      "v": 66
    },
    {
      "midi": 47,
      "hit": false,
      "t": 188714.09699999855,
      "d": 80.3570624999993,
      "v": 85
    },
    {
      "midi": 47,
      "hit": false,
      "t": 188714.09699999905,
      "d": 68.45231250001234,
      "v": 127
    },
    {
      "midi": 49,
      "hit": false,
      "t": 188856.95399999854,
      "d": 124.99987500000861,
      "v": 127
    },
    {
      "midi": 50,
      "hit": false,
      "t": 188856.95399999907,
      "d": 77.38087500000256,
      "v": 127
    },
    {
      "midi": 54,
      "hit": false,
      "t": 188856.95399999907,
      "d": 83.33324999999604,
      "v": 127
    },
    {
      "midi": 66,
      "hit": false,
      "t": 188999.81099999856,
      "d": 53.571374999999534,
      "v": 81
    },
    {
      "midi": 71,
      "hit": false,
      "t": 188999.81099999856,
      "d": 53.571374999999534,
      "v": 85
    },
    {
      "midi": 62,
      "hit": false,
      "t": 188999.81099999856,
      "d": 59.523749999993015,
      "v": 68
    },
    {
      "midi": 47,
      "hit": false,
      "t": 188999.81099999906,
      "d": 71.42850000000908,
      "v": 127
    },
    {
      "midi": 71,
      "hit": false,
      "t": 189142.66799999855,
      "d": 133.92843749999884,
      "v": 112
    },
    {
      "midi": 50,
      "hit": false,
      "t": 189142.66799999855,
      "d": 154.76174999997602,
      "v": 109
    },
    {
      "midi": 74,
      "hit": false,
      "t": 189142.66799999855,
      "d": 178.57124999997905,
      "v": 105
    },
    {
      "midi": 35,
      "hit": false,
      "t": 189142.66799999907,
      "d": 122.02368750001187,
      "v": 127
    },
    {
      "midi": 71,
      "hit": false,
      "t": 189285.52499999854,
      "d": 56.547562499996275,
      "v": 85
    },
    {
      "midi": 66,
      "hit": false,
      "t": 189285.52499999854,
      "d": 59.523749999993015,
      "v": 77
    },
    {
      "midi": 62,
      "hit": false,
      "t": 189285.52499999854,
      "d": 65.4761249999865,
      "v": 65
    },
    {
      "midi": 69,
      "hit": false,
      "t": 189285.52499999854,
      "d": 98.21418749997974,
      "v": 115
    },
    {
      "midi": 47,
      "hit": false,
      "t": 189285.5249999991,
      "d": 80.3570624999993,
      "v": 127
    },
    {
      "midi": 49,
      "hit": false,
      "t": 189428.38199999853,
      "d": 104.16656250000233,
      "v": 127
    },
    {
      "midi": 50,
      "hit": false,
      "t": 189428.38199999908,
      "d": 71.42850000000908,
      "v": 127
    },
    {
      "midi": 54,
      "hit": false,
      "t": 189428.38199999908,
      "d": 80.3570624999993,
      "v": 127
    },
    {
      "midi": 71,
      "hit": false,
      "t": 189571.23899999852,
      "d": 56.547562499996275,
      "v": 83
    },
    {
      "midi": 66,
      "hit": false,
      "t": 189571.23899999852,
      "d": 59.523749999993015,
      "v": 79
    },
    {
      "midi": 62,
      "hit": false,
      "t": 189571.23899999852,
      "d": 62.499937499989755,
      "v": 68
    },
    {
      "midi": 47,
      "hit": false,
      "t": 189571.23899999907,
      "d": 62.499937499989755,
      "v": 127
    },
    {
      "midi": 47,
      "hit": false,
      "t": 189714.0959999985,
      "d": 95.23800000001211,
      "v": 123
    },
    {
      "midi": 35,
      "hit": false,
      "t": 189714.09599999906,
      "d": 122.02368750001187,
      "v": 127
    },
    {
      "midi": 66,
      "hit": false,
      "t": 189856.95299999852,
      "d": 50.595187500002794,
      "v": 73
    },
    {
      "midi": 71,
      "hit": false,
      "t": 189856.95299999852,
      "d": 50.595187500002794,
      "v": 83
    },
    {
      "midi": 62,
      "hit": false,
      "t": 189856.95299999852,
      "d": 56.547562499996275,
      "v": 67
    },
    {
      "midi": 47,
      "hit": false,
      "t": 189856.95299999852,
      "d": 83.33324999999604,
      "v": 95
    },
    {
      "midi": 47,
      "hit": false,
      "t": 189856.95299999908,
      "d": 86.30943749999278,
      "v": 127
    },
    {
      "midi": 47,
      "hit": false,
      "t": 189999.8099999985,
      "d": 119.04749999998603,
      "v": 125
    },
    {
      "midi": 50,
      "hit": false,
      "t": 189999.80999999907,
      "d": 74.40468750000582,
      "v": 127
    },
    {
      "midi": 54,
      "hit": false,
      "t": 189999.80999999907,
      "d": 83.33324999999604,
      "v": 127
    },
    {
      "midi": 71,
      "hit": false,
      "t": 190142.6669999985,
      "d": 56.547562499996275,
      "v": 85
    },
    {
      "midi": 66,
      "hit": false,
      "t": 190142.6669999985,
      "d": 59.523749999993015,
      "v": 81
    },
    {
      "midi": 62,
      "hit": false,
      "t": 190142.6669999985,
      "d": 68.45231249998324,
      "v": 70
    },
    {
      "midi": 47,
      "hit": false,
      "t": 190142.6669999985,
      "d": 92.26181249998626,
      "v": 123
    },
    {
      "midi": 47,
      "hit": false,
      "t": 190142.66699999906,
      "d": 86.30943749999278,
      "v": 127
    },
    {
      "midi": 35,
      "hit": false,
      "t": 190285.52399999904,
      "d": 122.02368750001187,
      "v": 127
    },
    {
      "midi": 45,
      "hit": false,
      "t": 190428.38099999848,
      "d": 56.547562499996275,
      "v": 77
    },
    {
      "midi": 71,
      "hit": false,
      "t": 190428.38099999848,
      "d": 59.523749999993015,
      "v": 85
    },
    {
      "midi": 66,
      "hit": false,
      "t": 190428.38099999848,
      "d": 62.499937499989755,
      "v": 77
    },
    {
      "midi": 62,
      "hit": false,
      "t": 190428.38099999848,
      "d": 68.45231249998324,
      "v": 61
    },
    {
      "midi": 47,
      "hit": false,
      "t": 190428.38099999906,
      "d": 92.26181249998626,
      "v": 127
    },
    {
      "midi": 47,
      "hit": false,
      "t": 190571.23799999847,
      "d": 139.88081249999232,
      "v": 109
    },
    {
      "midi": 50,
      "hit": false,
      "t": 190571.23799999905,
      "d": 77.38087500000256,
      "v": 127
    },
    {
      "midi": 54,
      "hit": false,
      "t": 190571.23799999905,
      "d": 77.38087500000256,
      "v": 127
    },
    {
      "midi": 71,
      "hit": false,
      "t": 190714.09499999846,
      "d": 56.547562499996275,
      "v": 88
    },
    {
      "midi": 62,
      "hit": false,
      "t": 190714.09499999846,
      "d": 62.499937499989755,
      "v": 71
    },
    {
      "midi": 66,
      "hit": false,
      "t": 190714.09499999846,
      "d": 62.499937499989755,
      "v": 85
    },
    {
      "midi": 47,
      "hit": false,
      "t": 190714.09499999904,
      "d": 74.40468750000582,
      "v": 127
    },
    {
      "midi": 35,
      "hit": false,
      "t": 190856.95199999906,
      "d": 127.97606250000536,
      "v": 127
    },
    {
      "midi": 66,
      "hit": false,
      "t": 190999.80899999844,
      "d": 65.4761249999865,
      "v": 81
    },
    {
      "midi": 71,
      "hit": false,
      "t": 190999.80899999844,
      "d": 65.4761249999865,
      "v": 86
    },
    {
      "midi": 62,
      "hit": false,
      "t": 190999.80899999844,
      "d": 68.45231249998324,
      "v": 66
    },
    {
      "midi": 47,
      "hit": false,
      "t": 190999.80899999844,
      "d": 80.3570624999702,
      "v": 115
    },
    {
      "midi": 47,
      "hit": false,
      "t": 190999.80899999908,
      "d": 89.28562499998952,
      "v": 127
    },
    {
      "midi": 49,
      "hit": false,
      "t": 191142.6659999984,
      "d": 136.90462499999558,
      "v": 127
    },
    {
      "midi": 54,
      "hit": false,
      "t": 191142.66599999907,
      "d": 74.40468750000582,
      "v": 127
    },
    {
      "midi": 50,
      "hit": false,
      "t": 191142.66599999907,
      "d": 80.3570624999993,
      "v": 127
    },
    {
      "midi": 62,
      "hit": false,
      "t": 191285.5229999984,
      "d": 59.523749999993015,
      "v": 53
    },
    {
      "midi": 71,
      "hit": false,
      "t": 191285.5229999984,
      "d": 59.523749999993015,
      "v": 80
    },
    {
      "midi": 66,
      "hit": false,
      "t": 191285.5229999984,
      "d": 65.4761249999865,
      "v": 77
    },
    {
      "midi": 47,
      "hit": false,
      "t": 191285.52299999906,
      "d": 71.42850000000908,
      "v": 127
    },
    {
      "midi": 50,
      "hit": false,
      "t": 191428.37999999837,
      "d": 172.61887499998556,
      "v": 103
    },
    {
      "midi": 74,
      "hit": false,
      "t": 191428.37999999837,
      "d": 264.88068750000093,
      "v": 103
    },
    {
      "midi": 35,
      "hit": false,
      "t": 191428.37999999907,
      "d": 107.14274999999907,
      "v": 127
    },
    {
      "midi": 66,
      "hit": false,
      "t": 191571.23699999836,
      "d": 71.42850000000908,
      "v": 83
    },
    {
      "midi": 71,
      "hit": false,
      "t": 191571.23699999836,
      "d": 71.42850000000908,
      "v": 91
    },
    {
      "midi": 62,
      "hit": false,
      "t": 191571.23699999836,
      "d": 77.38087500000256,
      "v": 72
    },
    {
      "midi": 47,
      "hit": false,
      "t": 191571.23699999906,
      "d": 77.38087500000256,
      "v": 127
    },
    {
      "midi": 69,
      "hit": false,
      "t": 191714.09399999838,
      "d": 53.571374999999534,
      "v": 105
    },
    {
      "midi": 49,
      "hit": false,
      "t": 191714.09399999838,
      "d": 92.26181249998626,
      "v": 127
    },
    {
      "midi": 50,
      "hit": false,
      "t": 191714.09399999905,
      "d": 71.42850000000908,
      "v": 127
    },
    {
      "midi": 54,
      "hit": false,
      "t": 191714.09399999905,
      "d": 74.40468750000582,
      "v": 127
    },
    {
      "midi": 71,
      "hit": false,
      "t": 191856.95099999837,
      "d": 47.619000000006054,
      "v": 85
    },
    {
      "midi": 62,
      "hit": false,
      "t": 191856.95099999837,
      "d": 53.571374999999534,
      "v": 70
    },
    {
      "midi": 66,
      "hit": false,
      "t": 191856.95099999837,
      "d": 65.4761249999865,
      "v": 89
    },
    {
      "midi": 47,
      "hit": false,
      "t": 191856.95099999907,
      "d": 83.33324999999604,
      "v": 127
    },
    {
      "midi": 47,
      "hit": false,
      "t": 191999.80799999836,
      "d": 89.28562499998952,
      "v": 123
    },
    {
      "midi": 35,
      "hit": false,
      "t": 191999.80799999906,
      "d": 122.02368750001187,
      "v": 127
    },
    {
      "midi": 66,
      "hit": false,
      "t": 192142.66499999835,
      "d": 65.4761249999865,
      "v": 79
    },
    {
      "midi": 71,
      "hit": false,
      "t": 192142.66499999835,
      "d": 68.45231249998324,
      "v": 89
    },
    {
      "midi": 62,
      "hit": false,
      "t": 192142.66499999835,
      "d": 74.40468749997672,
      "v": 70
    },
    {
      "midi": 47,
      "hit": false,
      "t": 192142.66499999835,
      "d": 86.30943749996368,
      "v": 86
    },
    {
      "midi": 47,
      "hit": false,
      "t": 192142.66499999908,
      "d": 74.40468750000582,
      "v": 127
    },
    {
      "midi": 47,
      "hit": false,
      "t": 192285.5219999983,
      "d": 95.23800000001211,
      "v": 115
    },
    {
      "midi": 50,
      "hit": false,
      "t": 192285.5219999991,
      "d": 71.42850000000908,
      "v": 127
    },
    {
      "midi": 54,
      "hit": false,
      "t": 192285.5219999991,
      "d": 80.3570624999993,
      "v": 127
    },
    {
      "midi": 62,
      "hit": false,
      "t": 192428.37899999833,
      "d": 68.45231250001234,
      "v": 66
    },
    {
      "midi": 71,
      "hit": false,
      "t": 192428.37899999833,
      "d": 68.45231250001234,
      "v": 85
    },
    {
      "midi": 66,
      "hit": false,
      "t": 192428.37899999833,
      "d": 74.40468750000582,
      "v": 83
    },
    {
      "midi": 47,
      "hit": false,
      "t": 192428.37899999833,
      "d": 95.23800000001211,
      "v": 112
    },
    {
      "midi": 47,
      "hit": false,
      "t": 192428.37899999908,
      "d": 77.38087500000256,
      "v": 127
    },
    {
      "midi": 35,
      "hit": false,
      "t": 192571.23599999907,
      "d": 127.97606250000536,
      "v": 127
    },
    {
      "midi": 45,
      "hit": false,
      "t": 192714.09299999833,
      "d": 50.595187500002794,
      "v": 92
    },
    {
      "midi": 66,
      "hit": false,
      "t": 192714.09299999833,
      "d": 74.40468750000582,
      "v": 77
    },
    {
      "midi": 71,
      "hit": false,
      "t": 192714.09299999833,
      "d": 74.40468750000582,
      "v": 88
    },
    {
      "midi": 62,
      "hit": false,
      "t": 192714.09299999833,
      "d": 80.3570624999993,
      "v": 68
    },
    {
      "midi": 47,
      "hit": false,
      "t": 192714.0929999991,
      "d": 80.3570624999993,
      "v": 127
    },
    {
      "midi": 47,
      "hit": false,
      "t": 192856.94999999832,
      "d": 145.8331874999858,
      "v": 109
    },
    {
      "midi": 50,
      "hit": false,
      "t": 192856.94999999908,
      "d": 59.523749999993015,
      "v": 127
    },
    {
      "midi": 54,
      "hit": false,
      "t": 192856.94999999908,
      "d": 86.30943749999278,
      "v": 127
    },
    {
      "midi": 71,
      "hit": false,
      "t": 192999.8069999983,
      "d": 71.42850000000908,
      "v": 88
    },
    {
      "midi": 62,
      "hit": false,
      "t": 192999.8069999983,
      "d": 74.40468750000582,
      "v": 70
    },
    {
      "midi": 66,
      "hit": false,
      "t": 192999.8069999983,
      "d": 74.40468750000582,
      "v": 81
    },
    {
      "midi": 47,
      "hit": false,
      "t": 192999.80699999907,
      "d": 83.33324999999604,
      "v": 127
    },
    {
      "midi": 35,
      "hit": false,
      "t": 193142.66399999906,
      "d": 136.90462499999558,
      "v": 127
    },
    {
      "midi": 47,
      "hit": false,
      "t": 193285.52099999832,
      "d": 65.4761249999865,
      "v": 103
    },
    {
      "midi": 71,
      "hit": false,
      "t": 193285.52099999832,
      "d": 68.45231249998324,
      "v": 89
    },
    {
      "midi": 62,
      "hit": false,
      "t": 193285.52099999832,
      "d": 71.42849999997998,
      "v": 68
    },
    {
      "midi": 66,
      "hit": false,
      "t": 193285.52099999832,
      "d": 71.42849999997998,
      "v": 85
    },
    {
      "midi": 47,
      "hit": false,
      "t": 193285.52099999905,
      "d": 95.23800000001211,
      "v": 127
    },
    {
      "midi": 49,
      "hit": false,
      "t": 193428.3779999983,
      "d": 151.78556249997928,
      "v": 124
    },
    {
      "midi": 50,
      "hit": false,
      "t": 193428.37799999907,
      "d": 77.38087500000256,
      "v": 127
    },
    {
      "midi": 54,
      "hit": false,
      "t": 193428.37799999907,
      "d": 86.30943749999278,
      "v": 127
    },
    {
      "midi": 71,
      "hit": false,
      "t": 193571.2349999983,
      "d": 53.571374999999534,
      "v": 85
    },
    {
      "midi": 62,
      "hit": false,
      "t": 193571.2349999983,
      "d": 65.4761249999865,
      "v": 66
    },
    {
      "midi": 66,
      "hit": false,
      "t": 193571.2349999983,
      "d": 68.45231249998324,
      "v": 85
    },
    {
      "midi": 47,
      "hit": false,
      "t": 193571.23499999905,
      "d": 86.30943749999278,
      "v": 127
    },
    {
      "midi": 71,
      "hit": false,
      "t": 193714.0919999983,
      "d": 104.16656250000233,
      "v": 117
    },
    {
      "midi": 74,
      "hit": false,
      "t": 193714.0919999983,
      "d": 145.8331874999858,
      "v": 97
    },
    {
      "midi": 50,
      "hit": false,
      "t": 193714.0919999983,
      "d": 187.49981249999837,
      "v": 103
    },
    {
      "midi": 35,
      "hit": false,
      "t": 193714.09199999904,
      "d": 148.80937499998254,
      "v": 127
    },
    {
      "midi": 66,
      "hit": false,
      "t": 193856.94899999828,
      "d": 68.45231250001234,
      "v": 81
    },
    {
      "midi": 69,
      "hit": false,
      "t": 193856.94899999828,
      "d": 68.45231250001234,
      "v": 120
    },
    {
      "midi": 71,
      "hit": false,
      "t": 193856.94899999828,
      "d": 68.45231250001234,
      "v": 88
    },
    {
      "midi": 62,
      "hit": false,
      "t": 193856.94899999828,
      "d": 74.40468750000582,
      "v": 67
    },
    {
      "midi": 47,
      "hit": false,
      "t": 193856.94899999903,
      "d": 89.28562499998952,
      "v": 127
    },
    {
      "midi": 49,
      "hit": false,
      "t": 193999.8059999983,
      "d": 68.45231250001234,
      "v": 124
    },
    {
      "midi": 50,
      "hit": false,
      "t": 193999.80599999902,
      "d": 71.42850000000908,
      "v": 127
    },
    {
      "midi": 54,
      "hit": false,
      "t": 193999.80599999902,
      "d": 83.33324999999604,
      "v": 127
    },
    {
      "midi": 62,
      "hit": false,
      "t": 194142.6629999983,
      "d": 53.571374999999534,
      "v": 80
    },
    {
      "midi": 66,
      "hit": false,
      "t": 194142.6629999983,
      "d": 56.547562499996275,
      "v": 85
    },
    {
      "midi": 71,
      "hit": false,
      "t": 194142.6629999983,
      "d": 59.523749999993015,
      "v": 92
    },
    {
      "midi": 47,
      "hit": false,
      "t": 194142.662999999,
      "d": 53.571374999999534,
      "v": 127
    },
    {
      "midi": 47,
      "hit": false,
      "t": 194285.5199999983,
      "d": 62.499937499989755,
      "v": 117
    },
    {
      "midi": 36,
      "hit": false,
      "t": 194285.519999999,
      "d": 68.45231250001234,
      "v": 127
    },
    {
      "midi": 35,
      "hit": false,
      "t": 194285.519999999,
      "d": 80.3570624999993,
      "v": 127
    },
    {
      "midi": 66,
      "hit": false,
      "t": 194428.3769999983,
      "d": 50.595187500002794,
      "v": 83
    },
    {
      "midi": 62,
      "hit": false,
      "t": 194428.3769999983,
      "d": 56.547562499996275,
      "v": 83
    },
    {
      "midi": 71,
      "hit": false,
      "t": 194428.3769999983,
      "d": 59.523749999993015,
      "v": 94
    },
    {
      "midi": 47,
      "hit": false,
      "t": 194428.3769999983,
      "d": 74.40468750000582,
      "v": 101
    },
    {
      "midi": 47,
      "hit": false,
      "t": 194428.376999999,
      "d": 56.547562499996275,
      "v": 127
    },
    {
      "midi": 47,
      "hit": false,
      "t": 194571.2339999983,
      "d": 77.38087500000256,
      "v": 97
    },
    {
      "midi": 50,
      "hit": false,
      "t": 194571.23399999898,
      "d": 95.23800000001211,
      "v": 127
    },
    {
      "midi": 54,
      "hit": false,
      "t": 194571.23399999898,
      "d": 95.23800000001211,
      "v": 127
    },
    {
      "midi": 66,
      "hit": false,
      "t": 194714.0909999983,
      "d": 32.73806249999325,
      "v": 50
    },
    {
      "midi": 71,
      "hit": false,
      "t": 194714.0909999983,
      "d": 41.66662499998347,
      "v": 74
    },
    {
      "midi": 62,
      "hit": false,
      "t": 194714.0909999983,
      "d": 44.64281249998021,
      "v": 50
    },
    {
      "midi": 47,
      "hit": false,
      "t": 194714.0909999983,
      "d": 92.26181249998626,
      "v": 112
    },
    {
      "midi": 47,
      "hit": false,
      "t": 194714.090999999,
      "d": 59.523749999993015,
      "v": 127
    },
    {
      "midi": 35,
      "hit": false,
      "t": 194856.94799999899,
      "d": 119.04749999998603,
      "v": 127
    },
    {
      "midi": 45,
      "hit": false,
      "t": 194999.80499999828,
      "d": 53.571374999999534,
      "v": 89
    },
    {
      "midi": 66,
      "hit": false,
      "t": 194999.80499999828,
      "d": 53.571374999999534,
      "v": 83
    },
    {
      "midi": 62,
      "hit": false,
      "t": 194999.80499999828,
      "d": 56.547562499996275,
      "v": 79
    },
    {
      "midi": 71,
      "hit": false,
      "t": 194999.80499999828,
      "d": 56.547562499996275,
      "v": 91
    },
    {
      "midi": 47,
      "hit": false,
      "t": 194999.80499999897,
      "d": 68.45231250001234,
      "v": 127
    },
    {
      "midi": 47,
      "hit": false,
      "t": 195142.66199999826,
      "d": 142.85699999998906,
      "v": 107
    },
    {
      "midi": 50,
      "hit": false,
      "t": 195142.661999999,
      "d": 65.4761249999865,
      "v": 127
    },
    {
      "midi": 54,
      "hit": false,
      "t": 195142.661999999,
      "d": 71.42849999997998,
      "v": 127
    },
    {
      "midi": 71,
      "hit": false,
      "t": 195285.51899999825,
      "d": 59.523749999993015,
      "v": 89
    },
    {
      "midi": 66,
      "hit": false,
      "t": 195285.51899999825,
      "d": 62.499937499989755,
      "v": 83
    },
    {
      "midi": 62,
      "hit": false,
      "t": 195285.51899999825,
      "d": 68.45231249998324,
      "v": 74
    },
    {
      "midi": 47,
      "hit": false,
      "t": 195285.51899999898,
      "d": 68.45231250001234,
      "v": 127
    },
    {
      "midi": 35,
      "hit": false,
      "t": 195428.375999999,
      "d": 107.14274999999907,
      "v": 127
    },
    {
      "midi": 47,
      "hit": false,
      "t": 195571.23299999823,
      "d": 53.571374999999534,
      "v": 79
    },
    {
      "midi": 71,
      "hit": false,
      "t": 195571.23299999823,
      "d": 62.499937499989755,
      "v": 82
    },
    {
      "midi": 66,
      "hit": false,
      "t": 195571.23299999823,
      "d": 65.4761249999865,
      "v": 72
    },
    {
      "midi": 62,
      "hit": false,
      "t": 195571.23299999823,
      "d": 74.40468749997672,
      "v": 60
    },
    {
      "midi": 47,
      "hit": false,
      "t": 195571.232999999,
      "d": 65.4761249999865,
      "v": 127
    },
    {
      "midi": 49,
      "hit": false,
      "t": 195714.08999999822,
      "d": 157.73793750000186,
      "v": 121
    },
    {
      "midi": 50,
      "hit": false,
      "t": 195714.08999999898,
      "d": 59.523749999993015,
      "v": 127
    },
    {
      "midi": 54,
      "hit": false,
      "t": 195714.08999999898,
      "d": 83.33324999999604,
      "v": 127
    },
    {
      "midi": 71,
      "hit": false,
      "t": 195856.9469999982,
      "d": 62.49993750001886,
      "v": 83
    },
    {
      "midi": 66,
      "hit": false,
      "t": 195856.9469999982,
      "d": 65.4761250000156,
      "v": 75
    },
    {
      "midi": 62,
      "hit": false,
      "t": 195856.9469999982,
      "d": 74.40468750000582,
      "v": 65
    },
    {
      "midi": 47,
      "hit": false,
      "t": 195856.94699999897,
      "d": 65.4761249999865,
      "v": 127
    },
    {
      "midi": 50,
      "hit": false,
      "t": 195999.80399999823,
      "d": 190.4759999999951,
      "v": 107
    },
    {
      "midi": 74,
      "hit": false,
      "t": 195999.80399999823,
      "d": 241.0711874999979,
      "v": 101
    },
    {
      "midi": 35,
      "hit": false,
      "t": 195999.80399999896,
      "d": 107.14274999999907,
      "v": 127
    },
    {
      "midi": 71,
      "hit": false,
      "t": 196142.66099999822,
      "d": 62.49993750001886,
      "v": 74
    },
    {
      "midi": 66,
      "hit": false,
      "t": 196142.66099999822,
      "d": 68.45231250001234,
      "v": 69
    },
    {
      "midi": 62,
      "hit": false,
      "t": 196142.66099999822,
      "d": 77.38087500000256,
      "v": 58
    },
    {
      "midi": 47,
      "hit": false,
      "t": 196142.66099999895,
      "d": 77.38087500000256,
      "v": 127
    },
    {
      "midi": 69,
      "hit": false,
      "t": 196285.51799999824,
      "d": 56.547562499996275,
      "v": 107
    },
    {
      "midi": 49,
      "hit": false,
      "t": 196285.51799999824,
      "d": 136.90462499999558,
      "v": 124
    },
    {
      "midi": 50,
      "hit": false,
      "t": 196285.51799999893,
      "d": 80.3570624999993,
      "v": 127
    },
    {
      "midi": 54,
      "hit": false,
      "t": 196285.51799999893,
      "d": 89.28562499998952,
      "v": 127
    },
    {
      "midi": 71,
      "hit": false,
      "t": 196428.37499999822,
      "d": 59.523749999993015,
      "v": 85
    },
    {
      "midi": 66,
      "hit": false,
      "t": 196428.37499999822,
      "d": 62.499937499989755,
      "v": 79
    },
    {
      "midi": 62,
      "hit": false,
      "t": 196428.37499999822,
      "d": 71.42849999997998,
      "v": 66
    },
    {
      "midi": 47,
      "hit": false,
      "t": 196428.37499999892,
      "d": 77.38087500000256,
      "v": 127
    },
    {
      "midi": 47,
      "hit": false,
      "t": 196571.2319999982,
      "d": 104.16656250000233,
      "v": 117
    },
    {
      "midi": 35,
      "hit": false,
      "t": 196571.2319999989,
      "d": 119.04749999998603,
      "v": 127
    },
    {
      "midi": 66,
      "hit": false,
      "t": 196714.0889999982,
      "d": 62.499937499989755,
      "v": 79
    },
    {
      "midi": 62,
      "hit": false,
      "t": 196714.0889999982,
      "d": 68.45231249998324,
      "v": 60
    },
    {
      "midi": 71,
      "hit": false,
      "t": 196714.0889999982,
      "d": 68.45231249998324,
      "v": 83
    },
    {
      "midi": 47,
      "hit": false,
      "t": 196714.0889999982,
      "d": 74.40468749997672,
      "v": 101
    },
    {
      "midi": 47,
      "hit": false,
      "t": 196714.0889999989,
      "d": 65.4761249999865,
      "v": 127
    },
    {
      "midi": 47,
      "hit": false,
      "t": 196856.9459999982,
      "d": 89.28562499998952,
      "v": 103
    },
    {
      "midi": 50,
      "hit": false,
      "t": 196856.9459999989,
      "d": 62.499937499989755,
      "v": 127
    },
    {
      "midi": 54,
      "hit": false,
      "t": 196856.9459999989,
      "d": 83.33324999999604,
      "v": 127
    },
    {
      "midi": 71,
      "hit": false,
      "t": 196999.80299999818,
      "d": 59.523749999993015,
      "v": 82
    },
    {
      "midi": 62,
      "hit": false,
      "t": 196999.80299999818,
      "d": 62.499937499989755,
      "v": 58
    },
    {
      "midi": 66,
      "hit": false,
      "t": 196999.80299999818,
      "d": 65.4761249999865,
      "v": 75
    },
    {
      "midi": 47,
      "hit": false,
      "t": 196999.80299999818,
      "d": 89.28562499998952,
      "v": 117
    },
    {
      "midi": 47,
      "hit": false,
      "t": 196999.80299999888,
      "d": 77.38087500000256,
      "v": 127
    },
    {
      "midi": 35,
      "hit": false,
      "t": 197142.65999999887,
      "d": 116.07131249998929,
      "v": 127
    },
    {
      "midi": 45,
      "hit": false,
      "t": 197285.51699999816,
      "d": 62.499937499989755,
      "v": 94
    },
    {
      "midi": 71,
      "hit": false,
      "t": 197285.51699999816,
      "d": 62.499937499989755,
      "v": 86
    },
    {
      "midi": 66,
      "hit": false,
      "t": 197285.51699999816,
      "d": 65.4761249999865,
      "v": 77
    },
    {
      "midi": 62,
      "hit": false,
      "t": 197285.51699999816,
      "d": 68.45231249998324,
      "v": 67
    },
    {
      "midi": 47,
      "hit": false,
      "t": 197285.51699999886,
      "d": 80.3570624999993,
      "v": 127
    },
    {
      "midi": 47,
      "hit": false,
      "t": 197428.37399999815,
      "d": 160.7141249999986,
      "v": 103
    },
    {
      "midi": 50,
      "hit": false,
      "t": 197428.37399999885,
      "d": 71.42850000000908,
      "v": 127
    },
    {
      "midi": 54,
      "hit": false,
      "t": 197428.37399999885,
      "d": 86.30943750002189,
      "v": 127
    },
    {
      "midi": 71,
      "hit": false,
      "t": 197571.23099999814,
      "d": 53.571374999999534,
      "v": 79
    },
    {
      "midi": 62,
      "hit": false,
      "t": 197571.23099999814,
      "d": 62.499937499989755,
      "v": 60
    },
    {
      "midi": 66,
      "hit": false,
      "t": 197571.23099999814,
      "d": 65.4761249999865,
      "v": 81
    },
    {
      "midi": 47,
      "hit": false,
      "t": 197571.23099999886,
      "d": 68.45231250001234,
      "v": 127
    },
    {
      "midi": 35,
      "hit": false,
      "t": 197714.08799999888,
      "d": 122.02368750001187,
      "v": 127
    },
    {
      "midi": 71,
      "hit": false,
      "t": 197856.94499999812,
      "d": 53.571374999999534,
      "v": 83
    },
    {
      "midi": 66,
      "hit": false,
      "t": 197856.94499999812,
      "d": 59.523749999993015,
      "v": 77
    },
    {
      "midi": 62,
      "hit": false,
      "t": 197856.94499999812,
      "d": 62.499937499989755,
      "v": 66
    },
    {
      "midi": 47,
      "hit": false,
      "t": 197856.94499999812,
      "d": 80.3570624999993,
      "v": 85
    },
    {
      "midi": 47,
      "hit": false,
      "t": 197856.9449999989,
      "d": 68.45231250001234,
      "v": 127
    },
    {
      "midi": 49,
      "hit": false,
      "t": 197999.8019999981,
      "d": 124.99987500000861,
      "v": 127
    },
    {
      "midi": 50,
      "hit": false,
      "t": 197999.80199999892,
      "d": 77.38087500000256,
      "v": 127
    },
    {
      "midi": 54,
      "hit": false,
      "t": 197999.80199999892,
      "d": 83.33324999999604,
      "v": 127
    },
    {
      "midi": 66,
      "hit": false,
      "t": 198142.65899999812,
      "d": 53.571374999999534,
      "v": 81
    },
    {
      "midi": 71,
      "hit": false,
      "t": 198142.65899999812,
      "d": 53.571374999999534,
      "v": 85
    },
    {
      "midi": 62,
      "hit": false,
      "t": 198142.65899999812,
      "d": 59.523749999993015,
      "v": 68
    },
    {
      "midi": 47,
      "hit": false,
      "t": 198142.6589999989,
      "d": 71.42850000000908,
      "v": 127
    },
    {
      "midi": 71,
      "hit": false,
      "t": 198285.5159999981,
      "d": 133.92843749999884,
      "v": 112
    },
    {
      "midi": 50,
      "hit": false,
      "t": 198285.5159999981,
      "d": 154.76174999997602,
      "v": 109
    },
    {
      "midi": 74,
      "hit": false,
      "t": 198285.5159999981,
      "d": 178.57124999997905,
      "v": 105
    },
    {
      "midi": 35,
      "hit": false,
      "t": 198285.51599999893,
      "d": 122.02368750001187,
      "v": 127
    },
    {
      "midi": 71,
      "hit": false,
      "t": 198428.3729999981,
      "d": 56.547562499996275,
      "v": 85
    },
    {
      "midi": 66,
      "hit": false,
      "t": 198428.3729999981,
      "d": 59.523749999993015,
      "v": 77
    },
    {
      "midi": 62,
      "hit": false,
      "t": 198428.3729999981,
      "d": 65.4761249999865,
      "v": 65
    },
    {
      "midi": 69,
      "hit": false,
      "t": 198428.3729999981,
      "d": 98.21418749997974,
      "v": 115
    },
    {
      "midi": 47,
      "hit": false,
      "t": 198428.37299999894,
      "d": 80.3570624999993,
      "v": 127
    },
    {
      "midi": 49,
      "hit": false,
      "t": 198571.2299999981,
      "d": 104.16656250000233,
      "v": 127
    },
    {
      "midi": 50,
      "hit": false,
      "t": 198571.22999999893,
      "d": 71.42850000000908,
      "v": 127
    },
    {
      "midi": 54,
      "hit": false,
      "t": 198571.22999999893,
      "d": 80.3570624999993,
      "v": 127
    },
    {
      "midi": 71,
      "hit": false,
      "t": 198714.08699999808,
      "d": 56.547562499996275,
      "v": 83
    },
    {
      "midi": 66,
      "hit": false,
      "t": 198714.08699999808,
      "d": 59.523749999993015,
      "v": 79
    },
    {
      "midi": 62,
      "hit": false,
      "t": 198714.08699999808,
      "d": 62.499937499989755,
      "v": 68
    },
    {
      "midi": 47,
      "hit": false,
      "t": 198714.08699999892,
      "d": 62.499937499989755,
      "v": 127
    },
    {
      "midi": 47,
      "hit": false,
      "t": 198856.94399999807,
      "d": 95.23800000001211,
      "v": 123
    },
    {
      "midi": 35,
      "hit": false,
      "t": 198856.9439999989,
      "d": 122.02368750001187,
      "v": 127
    },
    {
      "midi": 66,
      "hit": false,
      "t": 198999.8009999981,
      "d": 50.595187500002794,
      "v": 73
    },
    {
      "midi": 71,
      "hit": false,
      "t": 198999.8009999981,
      "d": 50.595187500002794,
      "v": 83
    },
    {
      "midi": 62,
      "hit": false,
      "t": 198999.8009999981,
      "d": 56.547562499996275,
      "v": 67
    },
    {
      "midi": 47,
      "hit": false,
      "t": 198999.8009999981,
      "d": 83.33324999999604,
      "v": 95
    },
    {
      "midi": 47,
      "hit": false,
      "t": 198999.80099999893,
      "d": 86.30943749999278,
      "v": 127
    },
    {
      "midi": 47,
      "hit": false,
      "t": 199142.65799999807,
      "d": 119.04749999998603,
      "v": 125
    },
    {
      "midi": 50,
      "hit": false,
      "t": 199142.65799999892,
      "d": 74.40468750000582,
      "v": 127
    },
    {
      "midi": 54,
      "hit": false,
      "t": 199142.65799999892,
      "d": 83.33324999999604,
      "v": 127
    },
    {
      "midi": 71,
      "hit": false,
      "t": 199285.51499999806,
      "d": 56.547562499996275,
      "v": 85
    },
    {
      "midi": 66,
      "hit": false,
      "t": 199285.51499999806,
      "d": 59.523749999993015,
      "v": 81
    },
    {
      "midi": 62,
      "hit": false,
      "t": 199285.51499999806,
      "d": 68.45231249998324,
      "v": 70
    },
    {
      "midi": 47,
      "hit": false,
      "t": 199285.51499999806,
      "d": 92.26181249998626,
      "v": 123
    },
    {
      "midi": 47,
      "hit": false,
      "t": 199285.5149999989,
      "d": 86.30943749999278,
      "v": 127
    },
    {
      "midi": 35,
      "hit": false,
      "t": 199428.3719999989,
      "d": 122.02368750001187,
      "v": 127
    },
    {
      "midi": 45,
      "hit": false,
      "t": 199571.22899999804,
      "d": 56.547562499996275,
      "v": 77
    },
    {
      "midi": 71,
      "hit": false,
      "t": 199571.22899999804,
      "d": 59.523749999993015,
      "v": 85
    },
    {
      "midi": 66,
      "hit": false,
      "t": 199571.22899999804,
      "d": 62.499937499989755,
      "v": 77
    },
    {
      "midi": 62,
      "hit": false,
      "t": 199571.22899999804,
      "d": 68.45231249998324,
      "v": 61
    },
    {
      "midi": 47,
      "hit": false,
      "t": 199571.22899999892,
      "d": 92.26181249998626,
      "v": 127
    },
    {
      "midi": 47,
      "hit": false,
      "t": 199714.08599999803,
      "d": 139.88081249999232,
      "v": 109
    },
    {
      "midi": 50,
      "hit": false,
      "t": 199714.0859999989,
      "d": 77.38087500000256,
      "v": 127
    },
    {
      "midi": 54,
      "hit": false,
      "t": 199714.0859999989,
      "d": 77.38087500000256,
      "v": 127
    },
    {
      "midi": 71,
      "hit": false,
      "t": 199856.94299999802,
      "d": 56.547562499996275,
      "v": 88
    },
    {
      "midi": 62,
      "hit": false,
      "t": 199856.94299999802,
      "d": 62.499937499989755,
      "v": 71
    },
    {
      "midi": 66,
      "hit": false,
      "t": 199856.94299999802,
      "d": 62.499937499989755,
      "v": 85
    },
    {
      "midi": 47,
      "hit": false,
      "t": 199856.9429999989,
      "d": 74.40468750000582,
      "v": 127
    },
    {
      "midi": 35,
      "hit": false,
      "t": 199999.7999999989,
      "d": 127.97606250000536,
      "v": 127
    },
    {
      "midi": 66,
      "hit": false,
      "t": 200142.656999998,
      "d": 65.4761249999865,
      "v": 81
    },
    {
      "midi": 71,
      "hit": false,
      "t": 200142.656999998,
      "d": 65.4761249999865,
      "v": 86
    },
    {
      "midi": 62,
      "hit": false,
      "t": 200142.656999998,
      "d": 68.45231249998324,
      "v": 66
    },
    {
      "midi": 47,
      "hit": false,
      "t": 200142.656999998,
      "d": 80.3570624999702,
      "v": 115
    },
    {
      "midi": 47,
      "hit": false,
      "t": 200142.65699999893,
      "d": 89.28562499998952,
      "v": 127
    },
    {
      "midi": 49,
      "hit": false,
      "t": 200285.51399999796,
      "d": 136.90462499999558,
      "v": 127
    },
    {
      "midi": 54,
      "hit": false,
      "t": 200285.51399999892,
      "d": 74.40468750000582,
      "v": 127
    },
    {
      "midi": 50,
      "hit": false,
      "t": 200285.51399999892,
      "d": 80.3570624999993,
      "v": 127
    },
    {
      "midi": 62,
      "hit": false,
      "t": 200428.37099999795,
      "d": 59.523749999993015,
      "v": 53
    },
    {
      "midi": 71,
      "hit": false,
      "t": 200428.37099999795,
      "d": 59.523749999993015,
      "v": 80
    },
    {
      "midi": 66,
      "hit": false,
      "t": 200428.37099999795,
      "d": 65.4761249999865,
      "v": 77
    },
    {
      "midi": 47,
      "hit": false,
      "t": 200428.3709999989,
      "d": 71.42850000000908,
      "v": 127
    },
    {
      "midi": 50,
      "hit": false,
      "t": 200571.22799999794,
      "d": 172.61887499998556,
      "v": 103
    },
    {
      "midi": 74,
      "hit": false,
      "t": 200571.22799999794,
      "d": 264.88068750000093,
      "v": 103
    },
    {
      "midi": 35,
      "hit": false,
      "t": 200571.22799999893,
      "d": 107.14274999999907,
      "v": 127
    },
    {
      "midi": 66,
      "hit": false,
      "t": 200714.08499999793,
      "d": 71.42850000000908,
      "v": 83
    },
    {
      "midi": 71,
      "hit": false,
      "t": 200714.08499999793,
      "d": 71.42850000000908,
      "v": 91
    },
    {
      "midi": 62,
      "hit": false,
      "t": 200714.08499999793,
      "d": 77.38087500000256,
      "v": 72
    },
    {
      "midi": 47,
      "hit": false,
      "t": 200714.08499999892,
      "d": 77.38087500000256,
      "v": 127
    },
    {
      "midi": 69,
      "hit": false,
      "t": 200856.94199999794,
      "d": 53.571374999999534,
      "v": 105
    },
    {
      "midi": 49,
      "hit": false,
      "t": 200856.94199999794,
      "d": 92.26181249998626,
      "v": 127
    },
    {
      "midi": 50,
      "hit": false,
      "t": 200856.9419999989,
      "d": 71.42850000000908,
      "v": 127
    },
    {
      "midi": 54,
      "hit": false,
      "t": 200856.9419999989,
      "d": 74.40468750000582,
      "v": 127
    },
    {
      "midi": 71,
      "hit": false,
      "t": 200999.79899999793,
      "d": 47.619000000006054,
      "v": 85
    },
    {
      "midi": 62,
      "hit": false,
      "t": 200999.79899999793,
      "d": 53.571374999999534,
      "v": 70
    },
    {
      "midi": 66,
      "hit": false,
      "t": 200999.79899999793,
      "d": 65.4761249999865,
      "v": 89
    },
    {
      "midi": 47,
      "hit": false,
      "t": 200999.79899999892,
      "d": 83.33324999999604,
      "v": 127
    },
    {
      "midi": 47,
      "hit": false,
      "t": 201142.65599999792,
      "d": 89.28562499998952,
      "v": 123
    },
    {
      "midi": 35,
      "hit": false,
      "t": 201142.6559999989,
      "d": 122.02368750001187,
      "v": 127
    },
    {
      "midi": 66,
      "hit": false,
      "t": 201285.5129999979,
      "d": 65.4761249999865,
      "v": 79
    },
    {
      "midi": 71,
      "hit": false,
      "t": 201285.5129999979,
      "d": 68.45231249998324,
      "v": 89
    },
    {
      "midi": 62,
      "hit": false,
      "t": 201285.5129999979,
      "d": 74.40468749997672,
      "v": 70
    },
    {
      "midi": 47,
      "hit": false,
      "t": 201285.5129999979,
      "d": 86.30943749996368,
      "v": 86
    },
    {
      "midi": 47,
      "hit": false,
      "t": 201285.51299999893,
      "d": 74.40468750000582,
      "v": 127
    },
    {
      "midi": 47,
      "hit": false,
      "t": 201428.36999999787,
      "d": 95.23800000001211,
      "v": 115
    },
    {
      "midi": 50,
      "hit": false,
      "t": 201428.36999999895,
      "d": 71.42850000000908,
      "v": 127
    },
    {
      "midi": 54,
      "hit": false,
      "t": 201428.36999999895,
      "d": 80.3570624999993,
      "v": 127
    },
    {
      "midi": 62,
      "hit": false,
      "t": 201571.2269999979,
      "d": 68.45231250001234,
      "v": 66
    },
    {
      "midi": 71,
      "hit": false,
      "t": 201571.2269999979,
      "d": 68.45231250001234,
      "v": 85
    },
    {
      "midi": 66,
      "hit": false,
      "t": 201571.2269999979,
      "d": 74.40468750000582,
      "v": 83
    },
    {
      "midi": 47,
      "hit": false,
      "t": 201571.2269999979,
      "d": 95.23800000001211,
      "v": 112
    },
    {
      "midi": 47,
      "hit": false,
      "t": 201571.22699999894,
      "d": 77.38087500000256,
      "v": 127
    },
    {
      "midi": 35,
      "hit": false,
      "t": 201714.08399999893,
      "d": 127.97606250000536,
      "v": 127
    },
    {
      "midi": 45,
      "hit": false,
      "t": 201856.9409999979,
      "d": 50.595187500002794,
      "v": 92
    },
    {
      "midi": 66,
      "hit": false,
      "t": 201856.9409999979,
      "d": 74.40468750000582,
      "v": 77
    },
    {
      "midi": 71,
      "hit": false,
      "t": 201856.9409999979,
      "d": 74.40468750000582,
      "v": 88
    },
    {
      "midi": 62,
      "hit": false,
      "t": 201856.9409999979,
      "d": 80.3570624999993,
      "v": 68
    },
    {
      "midi": 47,
      "hit": false,
      "t": 201856.94099999894,
      "d": 80.3570624999993,
      "v": 127
    },
    {
      "midi": 47,
      "hit": false,
      "t": 201999.79799999789,
      "d": 145.8331874999858,
      "v": 109
    },
    {
      "midi": 50,
      "hit": false,
      "t": 201999.79799999893,
      "d": 59.523749999993015,
      "v": 127
    },
    {
      "midi": 54,
      "hit": false,
      "t": 201999.79799999893,
      "d": 86.30943749999278,
      "v": 127
    },
    {
      "midi": 71,
      "hit": false,
      "t": 202142.65499999787,
      "d": 71.42850000000908,
      "v": 88
    },
    {
      "midi": 62,
      "hit": false,
      "t": 202142.65499999787,
      "d": 74.40468750000582,
      "v": 70
    },
    {
      "midi": 66,
      "hit": false,
      "t": 202142.65499999787,
      "d": 74.40468750000582,
      "v": 81
    },
    {
      "midi": 47,
      "hit": false,
      "t": 202142.65499999892,
      "d": 83.33324999999604,
      "v": 127
    },
    {
      "midi": 35,
      "hit": false,
      "t": 202285.5119999989,
      "d": 136.90462499999558,
      "v": 127
    },
    {
      "midi": 47,
      "hit": false,
      "t": 202428.36899999788,
      "d": 65.4761249999865,
      "v": 103
    },
    {
      "midi": 71,
      "hit": false,
      "t": 202428.36899999788,
      "d": 68.45231249998324,
      "v": 89
    },
    {
      "midi": 62,
      "hit": false,
      "t": 202428.36899999788,
      "d": 71.42849999997998,
      "v": 68
    },
    {
      "midi": 66,
      "hit": false,
      "t": 202428.36899999788,
      "d": 71.42849999997998,
      "v": 85
    },
    {
      "midi": 47,
      "hit": false,
      "t": 202428.3689999989,
      "d": 95.23800000001211,
      "v": 127
    },
    {
      "midi": 49,
      "hit": false,
      "t": 202571.22599999787,
      "d": 151.78556249997928,
      "v": 124
    },
    {
      "midi": 50,
      "hit": false,
      "t": 202571.22599999892,
      "d": 77.38087500000256,
      "v": 127
    },
    {
      "midi": 54,
      "hit": false,
      "t": 202571.22599999892,
      "d": 86.30943749999278,
      "v": 127
    },
    {
      "midi": 71,
      "hit": false,
      "t": 202714.08299999786,
      "d": 53.571374999999534,
      "v": 85
    },
    {
      "midi": 62,
      "hit": false,
      "t": 202714.08299999786,
      "d": 65.4761249999865,
      "v": 66
    },
    {
      "midi": 66,
      "hit": false,
      "t": 202714.08299999786,
      "d": 68.45231249998324,
      "v": 85
    },
    {
      "midi": 47,
      "hit": false,
      "t": 202714.0829999989,
      "d": 86.30943749999278,
      "v": 127
    },
    {
      "midi": 71,
      "hit": false,
      "t": 202856.93999999785,
      "d": 104.16656250000233,
      "v": 117
    },
    {
      "midi": 74,
      "hit": false,
      "t": 202856.93999999785,
      "d": 145.8331874999858,
      "v": 97
    },
    {
      "midi": 50,
      "hit": false,
      "t": 202856.93999999785,
      "d": 187.49981249999837,
      "v": 103
    },
    {
      "midi": 35,
      "hit": false,
      "t": 202856.9399999989,
      "d": 148.80937499998254,
      "v": 127
    },
    {
      "midi": 66,
      "hit": false,
      "t": 202999.79699999784,
      "d": 68.45231250001234,
      "v": 81
    },
    {
      "midi": 69,
      "hit": false,
      "t": 202999.79699999784,
      "d": 68.45231250001234,
      "v": 120
    },
    {
      "midi": 71,
      "hit": false,
      "t": 202999.79699999784,
      "d": 68.45231250001234,
      "v": 88
    },
    {
      "midi": 62,
      "hit": false,
      "t": 202999.79699999784,
      "d": 74.40468750000582,
      "v": 67
    },
    {
      "midi": 47,
      "hit": false,
      "t": 202999.79699999889,
      "d": 89.28562499998952,
      "v": 127
    },
    {
      "midi": 49,
      "hit": false,
      "t": 203142.65399999786,
      "d": 68.45231250001234,
      "v": 124
    },
    {
      "midi": 50,
      "hit": false,
      "t": 203142.65399999887,
      "d": 71.42850000000908,
      "v": 127
    },
    {
      "midi": 54,
      "hit": false,
      "t": 203142.65399999887,
      "d": 83.33324999999604,
      "v": 127
    },
    {
      "midi": 62,
      "hit": false,
      "t": 203285.51099999787,
      "d": 53.571374999999534,
      "v": 80
    },
    {
      "midi": 66,
      "hit": false,
      "t": 203285.51099999787,
      "d": 56.547562499996275,
      "v": 85
    },
    {
      "midi": 71,
      "hit": false,
      "t": 203285.51099999787,
      "d": 59.523749999993015,
      "v": 92
    },
    {
      "midi": 47,
      "hit": false,
      "t": 203285.51099999886,
      "d": 53.571374999999534,
      "v": 127
    },
    {
      "midi": 71,
      "hit": false,
      "t": 203428.36799999786,
      "d": 288.69018750000396,
      "v": 120
    },
    {
      "midi": 66,
      "hit": false,
      "t": 203428.36799999786,
      "d": 297.6187499999942,
      "v": 124
    },
    {
      "midi": 38,
      "hit": false,
      "t": 203428.36799999885,
      "d": 291.6663750000007,
      "v": 127
    },
    {
      "midi": 54,
      "hit": false,
      "t": 203714.08199999886,
      "d": 71.42849999997998,
      "v": 127
    },
    {
      "midi": 50,
      "hit": false,
      "t": 203714.08199999886,
      "d": 107.14274999996996,
      "v": 127
    },
    {
      "midi": 66,
      "hit": false,
      "t": 203856.93899999786,
      "d": 95.23800000001211,
      "v": 121
    },
    {
      "midi": 69,
      "hit": false,
      "t": 203856.93899999786,
      "d": 95.23800000001211,
      "v": 112
    },
    {
      "midi": 45,
      "hit": false,
      "t": 203856.93899999882,
      "d": 77.38087500000256,
      "v": 127
    },
    {
      "midi": 42,
      "hit": false,
      "t": 203999.7959999988,
      "d": 142.85699999998906,
      "v": 127
    },
    {
      "midi": 64,
      "hit": false,
      "t": 204142.65299999787,
      "d": 56.547562499996275,
      "v": 103
    },
    {
      "midi": 67,
      "hit": false,
      "t": 204142.65299999787,
      "d": 68.45231249998324,
      "v": 105
    },
    {
      "midi": 45,
      "hit": false,
      "t": 204142.6529999988,
      "d": 92.26181249998626,
      "v": 127
    },
    {
      "midi": 62,
      "hit": false,
      "t": 204285.50999999786,
      "d": 110.11893749999581,
      "v": 94
    },
    {
      "midi": 66,
      "hit": false,
      "t": 204285.50999999786,
      "d": 116.07131249998929,
      "v": 118
    },
    {
      "midi": 50,
      "hit": false,
      "t": 204285.5099999988,
      "d": 95.23800000001211,
      "v": 127
    },
    {
      "midi": 54,
      "hit": false,
      "t": 204285.5099999988,
      "d": 101.19037500000559,
      "v": 127
    },
    {
      "midi": 45,
      "hit": false,
      "t": 204428.3669999988,
      "d": 74.40468750000582,
      "v": 127
    },
    {
      "midi": 38,
      "hit": false,
      "t": 204571.22399999882,
      "d": 306.5473125000135,
      "v": 127
    },
    {
      "midi": 50,
      "hit": false,
      "t": 204856.93799999883,
      "d": 74.40468750000582,
      "v": 127
    },
    {
      "midi": 54,
      "hit": false,
      "t": 204856.93799999883,
      "d": 80.3570624999993,
      "v": 127
    },
    {
      "midi": 45,
      "hit": false,
      "t": 204999.79499999882,
      "d": 89.28562499998952,
      "v": 127
    },
    {
      "midi": 42,
      "hit": false,
      "t": 205142.6519999988,
      "d": 157.73793750000186,
      "v": 127
    },
    {
      "midi": 45,
      "hit": false,
      "t": 205285.5089999988,
      "d": 89.28562500001863,
      "v": 127
    },
    {
      "midi": 50,
      "hit": false,
      "t": 205428.36599999882,
      "d": 101.19037500000559,
      "v": 127
    },
    {
      "midi": 54,
      "hit": false,
      "t": 205428.36599999882,
      "d": 101.19037500000559,
      "v": 127
    },
    {
      "midi": 45,
      "hit": false,
      "t": 205571.22299999883,
      "d": 89.28562499998952,
      "v": 127
    },
    {
      "midi": 35,
      "hit": false,
      "t": 205714.07999999882,
      "d": 276.7854374999879,
      "v": 127
    },
    {
      "midi": 66,
      "hit": false,
      "t": 205999.79399999784,
      "d": 38.69043749998673,
      "v": 107
    },
    {
      "midi": 62,
      "hit": false,
      "t": 205999.79399999784,
      "d": 50.59518749997369,
      "v": 92
    },
    {
      "midi": 71,
      "hit": false,
      "t": 205999.79399999784,
      "d": 50.59518749997369,
      "v": 109
    },
    {
      "midi": 54,
      "hit": false,
      "t": 205999.7939999988,
      "d": 86.30943749999278,
      "v": 127
    },
    {
      "midi": 50,
      "hit": false,
      "t": 205999.7939999988,
      "d": 95.237999999983,
      "v": 127
    },
    {
      "midi": 47,
      "hit": false,
      "t": 206142.6509999988,
      "d": 77.38087500000256,
      "v": 127
    },
    {
      "midi": 42,
      "hit": false,
      "t": 206285.50799999878,
      "d": 148.80937499998254,
      "v": 127
    },
    {
      "midi": 47,
      "hit": false,
      "t": 206428.36499999877,
      "d": 83.33324999999604,
      "v": 127
    },
    {
      "midi": 71,
      "hit": false,
      "t": 206571.22199999783,
      "d": 35.71424999998999,
      "v": 89
    },
    {
      "midi": 66,
      "hit": false,
      "t": 206571.22199999783,
      "d": 47.61899999997695,
      "v": 97
    },
    {
      "midi": 62,
      "hit": false,
      "t": 206571.22199999783,
      "d": 53.57137499997043,
      "v": 86
    },
    {
      "midi": 50,
      "hit": false,
      "t": 206571.22199999876,
      "d": 98.21418750000885,
      "v": 127
    },
    {
      "midi": 54,
      "hit": false,
      "t": 206571.22199999876,
      "d": 101.19037500000559,
      "v": 127
    },
    {
      "midi": 47,
      "hit": false,
      "t": 206714.07899999878,
      "d": 80.3570624999993,
      "v": 127
    },
    {
      "midi": 35,
      "hit": false,
      "t": 206856.93599999876,
      "d": 270.8330624999944,
      "v": 127
    },
    {
      "midi": 66,
      "hit": false,
      "t": 207142.64999999778,
      "d": 29.761874999996508,
      "v": 58
    },
    {
      "midi": 54,
      "hit": false,
      "t": 207142.64999999877,
      "d": 80.3570624999993,
      "v": 127
    },
    {
      "midi": 50,
      "hit": false,
      "t": 207142.64999999877,
      "d": 86.30943749999278,
      "v": 127
    },
    {
      "midi": 47,
      "hit": false,
      "t": 207285.50699999876,
      "d": 74.40468750000582,
      "v": 127
    },
    {
      "midi": 42,
      "hit": false,
      "t": 207428.36399999878,
      "d": 119.04749999998603,
      "v": 127
    },
    {
      "midi": 47,
      "hit": false,
      "t": 207571.22099999877,
      "d": 83.33324999999604,
      "v": 127
    },
    {
      "midi": 62,
      "hit": false,
      "t": 207714.07799999777,
      "d": 29.761874999996508,
      "v": 80
    },
    {
      "midi": 66,
      "hit": false,
      "t": 207714.07799999777,
      "d": 32.73806249999325,
      "v": 87
    },
    {
      "midi": 50,
      "hit": false,
      "t": 207714.07799999876,
      "d": 95.23800000001211,
      "v": 127
    },
    {
      "midi": 54,
      "hit": false,
      "t": 207714.07799999876,
      "d": 104.16656250000233,
      "v": 127
    },
    {
      "midi": 47,
      "hit": false,
      "t": 207856.93499999875,
      "d": 68.45231250001234,
      "v": 127
    },
    {
      "midi": 55,
      "hit": false,
      "t": 207999.79199999777,
      "d": 351.1901249999937,
      "v": 125
    },
    {
      "midi": 31,
      "hit": false,
      "t": 207999.79199999876,
      "d": 303.57112500001676,
      "v": 127
    },
    {
      "midi": 55,
      "hit": false,
      "t": 208285.50599999877,
      "d": 83.33324999999604,
      "v": 127
    },
    {
      "midi": 50,
      "hit": false,
      "t": 208285.50599999877,
      "d": 107.14274999999907,
      "v": 127
    },
    {
      "midi": 59,
      "hit": false,
      "t": 208428.36299999777,
      "d": 139.88081249999232,
      "v": 127
    },
    {
      "midi": 47,
      "hit": false,
      "t": 208428.36299999876,
      "d": 74.40468750000582,
      "v": 127
    },
    {
      "midi": 38,
      "hit": false,
      "t": 208571.21999999878,
      "d": 136.90462499999558,
      "v": 127
    },
    {
      "midi": 62,
      "hit": false,
      "t": 208714.07699999775,
      "d": 50.595187500002794,
      "v": 115
    },
    {
      "midi": 47,
      "hit": false,
      "t": 208714.07699999877,
      "d": 77.38087500000256,
      "v": 127
    },
    {
      "midi": 62,
      "hit": false,
      "t": 208856.93399999774,
      "d": 53.571374999999534,
      "v": 127
    },
    {
      "midi": 55,
      "hit": false,
      "t": 208856.93399999876,
      "d": 98.21418750000885,
      "v": 127
    },
    {
      "midi": 50,
      "hit": false,
      "t": 208856.93399999876,
      "d": 101.19037500000559,
      "v": 127
    },
    {
      "midi": 47,
      "hit": false,
      "t": 208999.79099999878,
      "d": 74.40468750000582,
      "v": 127
    },
    {
      "midi": 31,
      "hit": false,
      "t": 209142.6479999988,
      "d": 300.59493750002,
      "v": 127
    },
    {
      "midi": 62,
      "hit": false,
      "t": 209428.36199999772,
      "d": 44.64281250000931,
      "v": 112
    },
    {
      "midi": 59,
      "hit": false,
      "t": 209428.36199999772,
      "d": 47.619000000006054,
      "v": 115
    },
    {
      "midi": 67,
      "hit": false,
      "t": 209428.36199999772,
      "d": 50.595187500002794,
      "v": 103
    },
    {
      "midi": 55,
      "hit": false,
      "t": 209428.3619999988,
      "d": 89.28562500001863,
      "v": 127
    },
    {
      "midi": 50,
      "hit": false,
      "t": 209428.3619999988,
      "d": 107.14275000002817,
      "v": 127
    },
    {
      "midi": 47,
      "hit": false,
      "t": 209571.21899999882,
      "d": 74.40468750000582,
      "v": 127
    },
    {
      "midi": 38,
      "hit": false,
      "t": 209714.07599999884,
      "d": 160.7141249999986,
      "v": 127
    },
    {
      "midi": 47,
      "hit": false,
      "t": 209856.93299999883,
      "d": 86.30943750002189,
      "v": 127
    },
    {
      "midi": 62,
      "hit": false,
      "t": 209999.78999999774,
      "d": 53.571374999999534,
      "v": 109
    },
    {
      "midi": 59,
      "hit": false,
      "t": 209999.78999999774,
      "d": 62.499937499989755,
      "v": 107
    },
    {
      "midi": 67,
      "hit": false,
      "t": 209999.78999999774,
      "d": 68.45231249998324,
      "v": 99
    },
    {
      "midi": 50,
      "hit": false,
      "t": 209999.78999999884,
      "d": 98.21418750000885,
      "v": 127
    },
    {
      "midi": 55,
      "hit": false,
      "t": 209999.78999999884,
      "d": 101.19037500000559,
      "v": 127
    },
    {
      "midi": 47,
      "hit": false,
      "t": 210142.64699999886,
      "d": 83.33324999999604,
      "v": 127
    },
    {
      "midi": 38,
      "hit": false,
      "t": 210285.50399999885,
      "d": 291.6663750000007,
      "v": 127
    },
    {
      "midi": 62,
      "hit": false,
      "t": 210571.21799999772,
      "d": 41.66662500001257,
      "v": 88
    },
    {
      "midi": 57,
      "hit": false,
      "t": 210571.21799999772,
      "d": 47.619000000006054,
      "v": 88
    },
    {
      "midi": 66,
      "hit": false,
      "t": 210571.21799999772,
      "d": 56.547562499996275,
      "v": 89
    },
    {
      "midi": 54,
      "hit": false,
      "t": 210571.21799999886,
      "d": 71.42849999997998,
      "v": 127
    },
    {
      "midi": 50,
      "hit": false,
      "t": 210571.21799999886,
      "d": 77.38087499997346,
      "v": 127
    },
    {
      "midi": 45,
      "hit": false,
      "t": 210714.07499999882,
      "d": 80.3570624999993,
      "v": 127
    },
    {
      "midi": 33,
      "hit": false,
      "t": 210856.9319999988,
      "d": 163.69031249999534,
      "v": 127
    },
    {
      "midi": 45,
      "hit": false,
      "t": 210999.7889999988,
      "d": 89.28562500001863,
      "v": 127
    },
    {
      "midi": 57,
      "hit": false,
      "t": 211142.6459999977,
      "d": 44.64281250000931,
      "v": 99
    },
    {
      "midi": 62,
      "hit": false,
      "t": 211142.6459999977,
      "d": 44.64281250000931,
      "v": 101
    },
    {
      "midi": 66,
      "hit": false,
      "t": 211142.6459999977,
      "d": 56.547562499996275,
      "v": 104
    },
    {
      "midi": 54,
      "hit": false,
      "t": 211142.64599999881,
      "d": 83.33324999999604,
      "v": 127
    },
    {
      "midi": 50,
      "hit": false,
      "t": 211142.64599999881,
      "d": 98.21418750000885,
      "v": 127
    },
    {
      "midi": 45,
      "hit": false,
      "t": 211285.50299999883,
      "d": 74.40468750000582,
      "v": 127
    },
    {
      "midi": 38,
      "hit": false,
      "t": 211428.35999999885,
      "d": 247.02356249999139,
      "v": 127
    },
    {
      "midi": 54,
      "hit": false,
      "t": 211714.07399999883,
      "d": 77.38087500000256,
      "v": 127
    },
    {
      "midi": 50,
      "hit": false,
      "t": 211714.07399999883,
      "d": 89.28562499998952,
      "v": 127
    },
    {
      "midi": 45,
      "hit": false,
      "t": 211856.93099999882,
      "d": 86.30943749999278,
      "v": 127
    },
    {
      "midi": 42,
      "hit": false,
      "t": 211999.7879999988,
      "d": 124.99987500000861,
      "v": 127
    },
    {
      "midi": 45,
      "hit": false,
      "t": 212142.64499999883,
      "d": 92.26181249998626,
      "v": 127
    },
    {
      "midi": 54,
      "hit": false,
      "t": 212285.5019999988,
      "d": 89.28562499998952,
      "v": 127
    },
    {
      "midi": 50,
      "hit": false,
      "t": 212285.5019999988,
      "d": 95.237999999983,
      "v": 127
    },
    {
      "midi": 45,
      "hit": false,
      "t": 212428.3589999988,
      "d": 47.619000000006054,
      "v": 127
    },
    {
      "midi": 71,
      "hit": false,
      "t": 212571.21599999772,
      "d": 288.69018750000396,
      "v": 120
    },
    {
      "midi": 66,
      "hit": false,
      "t": 212571.21599999772,
      "d": 297.6187499999942,
      "v": 124
    },
    {
      "midi": 38,
      "hit": false,
      "t": 212571.21599999882,
      "d": 291.6663750000007,
      "v": 127
    },
    {
      "midi": 54,
      "hit": false,
      "t": 212856.92999999883,
      "d": 71.42849999997998,
      "v": 127
    },
    {
      "midi": 50,
      "hit": false,
      "t": 212856.92999999883,
      "d": 107.14274999996996,
      "v": 127
    },
    {
      "midi": 66,
      "hit": false,
      "t": 212999.7869999977,
      "d": 95.23800000001211,
      "v": 121
    },
    {
      "midi": 69,
      "hit": false,
      "t": 212999.7869999977,
      "d": 95.23800000001211,
      "v": 112
    },
    {
      "midi": 45,
      "hit": false,
      "t": 212999.7869999988,
      "d": 77.38087500000256,
      "v": 127
    },
    {
      "midi": 42,
      "hit": false,
      "t": 213142.64399999878,
      "d": 142.85699999998906,
      "v": 127
    },
    {
      "midi": 64,
      "hit": false,
      "t": 213285.50099999772,
      "d": 56.547562499996275,
      "v": 103
    },
    {
      "midi": 67,
      "hit": false,
      "t": 213285.50099999772,
      "d": 68.45231249998324,
      "v": 105
    },
    {
      "midi": 45,
      "hit": false,
      "t": 213285.50099999877,
      "d": 92.26181249998626,
      "v": 127
    },
    {
      "midi": 62,
      "hit": false,
      "t": 213428.3579999977,
      "d": 110.11893749999581,
      "v": 94
    },
    {
      "midi": 66,
      "hit": false,
      "t": 213428.3579999977,
      "d": 116.07131249998929,
      "v": 118
    },
    {
      "midi": 50,
      "hit": false,
      "t": 213428.35799999876,
      "d": 95.23800000001211,
      "v": 127
    },
    {
      "midi": 54,
      "hit": false,
      "t": 213428.35799999876,
      "d": 101.19037500000559,
      "v": 127
    },
    {
      "midi": 45,
      "hit": false,
      "t": 213571.21499999877,
      "d": 74.40468750000582,
      "v": 127
    },
    {
      "midi": 38,
      "hit": false,
      "t": 213714.0719999988,
      "d": 306.5473125000135,
      "v": 127
    },
    {
      "midi": 50,
      "hit": false,
      "t": 213999.7859999988,
      "d": 74.40468750000582,
      "v": 127
    },
    {
      "midi": 54,
      "hit": false,
      "t": 213999.7859999988,
      "d": 80.3570624999993,
      "v": 127
    },
    {
      "midi": 45,
      "hit": false,
      "t": 214142.6429999988,
      "d": 89.28562499998952,
      "v": 127
    },
    {
      "midi": 42,
      "hit": false,
      "t": 214285.49999999878,
      "d": 157.73793750000186,
      "v": 127
    },
    {
      "midi": 45,
      "hit": false,
      "t": 214428.35699999877,
      "d": 89.28562500001863,
      "v": 127
    },
    {
      "midi": 50,
      "hit": false,
      "t": 214571.21399999878,
      "d": 101.19037500000559,
      "v": 127
    },
    {
      "midi": 54,
      "hit": false,
      "t": 214571.21399999878,
      "d": 101.19037500000559,
      "v": 127
    },
    {
      "midi": 45,
      "hit": false,
      "t": 214714.0709999988,
      "d": 89.28562499998952,
      "v": 127
    },
    {
      "midi": 35,
      "hit": false,
      "t": 214856.9279999988,
      "d": 276.7854374999879,
      "v": 127
    },
    {
      "midi": 66,
      "hit": false,
      "t": 215142.6419999977,
      "d": 38.69043749998673,
      "v": 107
    },
    {
      "midi": 62,
      "hit": false,
      "t": 215142.6419999977,
      "d": 50.59518749997369,
      "v": 92
    },
    {
      "midi": 71,
      "hit": false,
      "t": 215142.6419999977,
      "d": 50.59518749997369,
      "v": 109
    },
    {
      "midi": 54,
      "hit": false,
      "t": 215142.64199999877,
      "d": 86.30943749999278,
      "v": 127
    },
    {
      "midi": 50,
      "hit": false,
      "t": 215142.64199999877,
      "d": 95.237999999983,
      "v": 127
    },
    {
      "midi": 47,
      "hit": false,
      "t": 215285.49899999876,
      "d": 77.38087500000256,
      "v": 127
    },
    {
      "midi": 42,
      "hit": false,
      "t": 215428.35599999875,
      "d": 148.80937499998254,
      "v": 127
    },
    {
      "midi": 47,
      "hit": false,
      "t": 215571.21299999874,
      "d": 83.33324999999604,
      "v": 127
    },
    {
      "midi": 71,
      "hit": false,
      "t": 215714.06999999768,
      "d": 35.71424999998999,
      "v": 89
    },
    {
      "midi": 66,
      "hit": false,
      "t": 215714.06999999768,
      "d": 47.61899999997695,
      "v": 97
    },
    {
      "midi": 62,
      "hit": false,
      "t": 215714.06999999768,
      "d": 53.57137499997043,
      "v": 86
    },
    {
      "midi": 50,
      "hit": false,
      "t": 215714.06999999873,
      "d": 98.21418750000885,
      "v": 127
    },
    {
      "midi": 54,
      "hit": false,
      "t": 215714.06999999873,
      "d": 101.19037500000559,
      "v": 127
    },
    {
      "midi": 47,
      "hit": false,
      "t": 215856.92699999874,
      "d": 80.3570624999993,
      "v": 127
    },
    {
      "midi": 35,
      "hit": false,
      "t": 215999.78399999873,
      "d": 270.8330624999944,
      "v": 127
    },
    {
      "midi": 66,
      "hit": false,
      "t": 216285.49799999763,
      "d": 29.761874999996508,
      "v": 58
    },
    {
      "midi": 54,
      "hit": false,
      "t": 216285.49799999874,
      "d": 80.3570624999993,
      "v": 127
    },
    {
      "midi": 50,
      "hit": false,
      "t": 216285.49799999874,
      "d": 86.30943749999278,
      "v": 127
    },
    {
      "midi": 47,
      "hit": false,
      "t": 216428.35499999873,
      "d": 74.40468750000582,
      "v": 127
    },
    {
      "midi": 42,
      "hit": false,
      "t": 216571.21199999875,
      "d": 119.04749999998603,
      "v": 127
    },
    {
      "midi": 47,
      "hit": false,
      "t": 216714.06899999874,
      "d": 83.33324999999604,
      "v": 127
    },
    {
      "midi": 62,
      "hit": false,
      "t": 216856.92599999762,
      "d": 29.761874999996508,
      "v": 80
    },
    {
      "midi": 66,
      "hit": false,
      "t": 216856.92599999762,
      "d": 32.73806249999325,
      "v": 87
    },
    {
      "midi": 50,
      "hit": false,
      "t": 216856.92599999873,
      "d": 95.23800000001211,
      "v": 127
    },
    {
      "midi": 54,
      "hit": false,
      "t": 216856.92599999873,
      "d": 104.16656250000233,
      "v": 127
    },
    {
      "midi": 47,
      "hit": false,
      "t": 216999.78299999872,
      "d": 68.45231250001234,
      "v": 127
    },
    {
      "midi": 55,
      "hit": false,
      "t": 217142.63999999763,
      "d": 351.1901249999937,
      "v": 125
    },
    {
      "midi": 31,
      "hit": false,
      "t": 217142.63999999873,
      "d": 303.57112500001676,
      "v": 127
    },
    {
      "midi": 55,
      "hit": false,
      "t": 217428.35399999874,
      "d": 83.33324999999604,
      "v": 127
    },
    {
      "midi": 50,
      "hit": false,
      "t": 217428.35399999874,
      "d": 107.14274999999907,
      "v": 127
    },
    {
      "midi": 59,
      "hit": false,
      "t": 217571.21099999762,
      "d": 139.88081249999232,
      "v": 127
    },
    {
      "midi": 47,
      "hit": false,
      "t": 217571.21099999873,
      "d": 74.40468750000582,
      "v": 127
    },
    {
      "midi": 38,
      "hit": false,
      "t": 217714.06799999875,
      "d": 136.90462499999558,
      "v": 127
    },
    {
      "midi": 62,
      "hit": false,
      "t": 217856.9249999976,
      "d": 50.595187500002794,
      "v": 115
    },
    {
      "midi": 47,
      "hit": false,
      "t": 217856.92499999874,
      "d": 77.38087500000256,
      "v": 127
    },
    {
      "midi": 62,
      "hit": false,
      "t": 217999.7819999976,
      "d": 53.571374999999534,
      "v": 127
    },
    {
      "midi": 55,
      "hit": false,
      "t": 217999.78199999873,
      "d": 98.21418750000885,
      "v": 127
    },
    {
      "midi": 50,
      "hit": false,
      "t": 217999.78199999873,
      "d": 101.19037500000559,
      "v": 127
    },
    {
      "midi": 47,
      "hit": false,
      "t": 218142.63899999874,
      "d": 74.40468750000582,
      "v": 127
    },
    {
      "midi": 31,
      "hit": false,
      "t": 218285.49599999876,
      "d": 300.59493750002,
      "v": 127
    },
    {
      "midi": 62,
      "hit": false,
      "t": 218571.20999999758,
      "d": 44.64281250000931,
      "v": 112
    },
    {
      "midi": 59,
      "hit": false,
      "t": 218571.20999999758,
      "d": 47.619000000006054,
      "v": 115
    },
    {
      "midi": 67,
      "hit": false,
      "t": 218571.20999999758,
      "d": 50.595187500002794,
      "v": 103
    },
    {
      "midi": 55,
      "hit": false,
      "t": 218571.20999999877,
      "d": 89.28562500001863,
      "v": 127
    },
    {
      "midi": 50,
      "hit": false,
      "t": 218571.20999999877,
      "d": 107.14275000002817,
      "v": 127
    },
    {
      "midi": 47,
      "hit": false,
      "t": 218714.0669999988,
      "d": 74.40468750000582,
      "v": 127
    },
    {
      "midi": 38,
      "hit": false,
      "t": 218856.9239999988,
      "d": 160.7141249999986,
      "v": 127
    },
    {
      "midi": 47,
      "hit": false,
      "t": 218999.7809999988,
      "d": 86.30943750002189,
      "v": 127
    },
    {
      "midi": 62,
      "hit": false,
      "t": 219142.6379999976,
      "d": 53.571374999999534,
      "v": 109
    },
    {
      "midi": 59,
      "hit": false,
      "t": 219142.6379999976,
      "d": 62.499937499989755,
      "v": 107
    },
    {
      "midi": 67,
      "hit": false,
      "t": 219142.6379999976,
      "d": 68.45231249998324,
      "v": 99
    },
    {
      "midi": 50,
      "hit": false,
      "t": 219142.6379999988,
      "d": 98.21418750000885,
      "v": 127
    },
    {
      "midi": 55,
      "hit": false,
      "t": 219142.6379999988,
      "d": 101.19037500000559,
      "v": 127
    },
    {
      "midi": 47,
      "hit": false,
      "t": 219285.49499999883,
      "d": 83.33324999999604,
      "v": 127
    },
    {
      "midi": 38,
      "hit": false,
      "t": 219428.35199999882,
      "d": 291.6663750000007,
      "v": 127
    },
    {
      "midi": 62,
      "hit": false,
      "t": 219714.06599999758,
      "d": 41.66662500001257,
      "v": 88
    },
    {
      "midi": 57,
      "hit": false,
      "t": 219714.06599999758,
      "d": 47.619000000006054,
      "v": 88
    },
    {
      "midi": 66,
      "hit": false,
      "t": 219714.06599999758,
      "d": 56.547562499996275,
      "v": 89
    },
    {
      "midi": 54,
      "hit": false,
      "t": 219714.06599999883,
      "d": 71.42849999997998,
      "v": 127
    },
    {
      "midi": 50,
      "hit": false,
      "t": 219714.06599999883,
      "d": 77.38087499997346,
      "v": 127
    },
    {
      "midi": 45,
      "hit": false,
      "t": 219856.9229999988,
      "d": 80.3570624999993,
      "v": 127
    },
    {
      "midi": 33,
      "hit": false,
      "t": 219999.77999999878,
      "d": 163.69031249999534,
      "v": 127
    },
    {
      "midi": 45,
      "hit": false,
      "t": 220142.63699999877,
      "d": 89.28562500001863,
      "v": 127
    },
    {
      "midi": 57,
      "hit": false,
      "t": 220285.49399999756,
      "d": 44.64281250000931,
      "v": 99
    },
    {
      "midi": 62,
      "hit": false,
      "t": 220285.49399999756,
      "d": 44.64281250000931,
      "v": 101
    },
    {
      "midi": 66,
      "hit": false,
      "t": 220285.49399999756,
      "d": 56.547562499996275,
      "v": 104
    },
    {
      "midi": 54,
      "hit": false,
      "t": 220285.49399999878,
      "d": 83.33324999999604,
      "v": 127
    },
    {
      "midi": 50,
      "hit": false,
      "t": 220285.49399999878,
      "d": 98.21418750000885,
      "v": 127
    },
    {
      "midi": 45,
      "hit": false,
      "t": 220428.3509999988,
      "d": 74.40468750000582,
      "v": 127
    },
    {
      "midi": 38,
      "hit": false,
      "t": 220571.20799999882,
      "d": 247.02356249999139,
      "v": 127
    },
    {
      "midi": 54,
      "hit": false,
      "t": 220856.9219999988,
      "d": 77.38087500000256,
      "v": 127
    },
    {
      "midi": 50,
      "hit": false,
      "t": 220856.9219999988,
      "d": 89.28562499998952,
      "v": 127
    },
    {
      "midi": 45,
      "hit": false,
      "t": 220999.7789999988,
      "d": 86.30943749999278,
      "v": 127
    },
    {
      "midi": 42,
      "hit": false,
      "t": 221142.63599999878,
      "d": 124.99987500000861,
      "v": 127
    },
    {
      "midi": 45,
      "hit": false,
      "t": 221285.4929999988,
      "d": 92.26181249998626,
      "v": 127
    },
    {
      "midi": 54,
      "hit": false,
      "t": 221428.34999999878,
      "d": 89.28562499998952,
      "v": 127
    },
    {
      "midi": 50,
      "hit": false,
      "t": 221428.34999999878,
      "d": 95.237999999983,
      "v": 127
    },
    {
      "midi": 45,
      "hit": false,
      "t": 221571.20699999877,
      "d": 47.619000000006054,
      "v": 127
    },
    {
      "midi": 71,
      "hit": false,
      "t": 221714.06399999757,
      "d": 288.69018750000396,
      "v": 120
    },
    {
      "midi": 66,
      "hit": false,
      "t": 221714.06399999757,
      "d": 297.6187499999942,
      "v": 124
    },
    {
      "midi": 38,
      "hit": false,
      "t": 221714.0639999988,
      "d": 291.6663750000007,
      "v": 127
    },
    {
      "midi": 54,
      "hit": false,
      "t": 221999.7779999988,
      "d": 71.42849999997998,
      "v": 127
    },
    {
      "midi": 50,
      "hit": false,
      "t": 221999.7779999988,
      "d": 107.14274999996996,
      "v": 127
    },
    {
      "midi": 66,
      "hit": false,
      "t": 222142.63499999756,
      "d": 95.23800000001211,
      "v": 121
    },
    {
      "midi": 69,
      "hit": false,
      "t": 222142.63499999756,
      "d": 95.23800000001211,
      "v": 112
    },
    {
      "midi": 45,
      "hit": false,
      "t": 222142.63499999876,
      "d": 77.38087500000256,
      "v": 127
    },
    {
      "midi": 42,
      "hit": false,
      "t": 222285.49199999875,
      "d": 142.85699999998906,
      "v": 127
    },
    {
      "midi": 64,
      "hit": false,
      "t": 222428.34899999757,
      "d": 56.547562499996275,
      "v": 103
    },
    {
      "midi": 67,
      "hit": false,
      "t": 222428.34899999757,
      "d": 68.45231249998324,
      "v": 105
    },
    {
      "midi": 45,
      "hit": false,
      "t": 222428.34899999874,
      "d": 92.26181249998626,
      "v": 127
    },
    {
      "midi": 62,
      "hit": false,
      "t": 222571.20599999756,
      "d": 110.11893749999581,
      "v": 94
    },
    {
      "midi": 66,
      "hit": false,
      "t": 222571.20599999756,
      "d": 116.07131249998929,
      "v": 118
    },
    {
      "midi": 50,
      "hit": false,
      "t": 222571.20599999873,
      "d": 95.23800000001211,
      "v": 127
    },
    {
      "midi": 54,
      "hit": false,
      "t": 222571.20599999873,
      "d": 101.19037500000559,
      "v": 127
    },
    {
      "midi": 45,
      "hit": false,
      "t": 222714.06299999874,
      "d": 74.40468750000582,
      "v": 127
    },
    {
      "midi": 38,
      "hit": false,
      "t": 222856.91999999876,
      "d": 306.5473125000135,
      "v": 127
    },
    {
      "midi": 50,
      "hit": false,
      "t": 223142.63399999877,
      "d": 74.40468750000582,
      "v": 127
    },
    {
      "midi": 54,
      "hit": false,
      "t": 223142.63399999877,
      "d": 80.3570624999993,
      "v": 127
    },
    {
      "midi": 45,
      "hit": false,
      "t": 223285.49099999876,
      "d": 89.28562499998952,
      "v": 127
    },
    {
      "midi": 42,
      "hit": false,
      "t": 223428.34799999875,
      "d": 157.73793750000186,
      "v": 127
    },
    {
      "midi": 45,
      "hit": false,
      "t": 223571.20499999874,
      "d": 89.28562500001863,
      "v": 127
    },
    {
      "midi": 50,
      "hit": false,
      "t": 223714.06199999875,
      "d": 101.19037500000559,
      "v": 127
    },
    {
      "midi": 54,
      "hit": false,
      "t": 223714.06199999875,
      "d": 101.19037500000559,
      "v": 127
    },
    {
      "midi": 45,
      "hit": false,
      "t": 223856.91899999877,
      "d": 89.28562499998952,
      "v": 127
    },
    {
      "midi": 35,
      "hit": false,
      "t": 223999.77599999876,
      "d": 276.7854374999879,
      "v": 127
    },
    {
      "midi": 66,
      "hit": false,
      "t": 224285.48999999755,
      "d": 38.69043749998673,
      "v": 107
    },
    {
      "midi": 62,
      "hit": false,
      "t": 224285.48999999755,
      "d": 50.59518749997369,
      "v": 92
    },
    {
      "midi": 71,
      "hit": false,
      "t": 224285.48999999755,
      "d": 50.59518749997369,
      "v": 109
    },
    {
      "midi": 54,
      "hit": false,
      "t": 224285.48999999874,
      "d": 86.30943749999278,
      "v": 127
    },
    {
      "midi": 50,
      "hit": false,
      "t": 224285.48999999874,
      "d": 95.237999999983,
      "v": 127
    },
    {
      "midi": 47,
      "hit": false,
      "t": 224428.34699999873,
      "d": 77.38087500000256,
      "v": 127
    },
    {
      "midi": 42,
      "hit": false,
      "t": 224571.20399999872,
      "d": 148.80937499998254,
      "v": 127
    },
    {
      "midi": 47,
      "hit": false,
      "t": 224714.0609999987,
      "d": 83.33324999999604,
      "v": 127
    },
    {
      "midi": 71,
      "hit": false,
      "t": 224856.91799999753,
      "d": 35.71424999998999,
      "v": 89
    },
    {
      "midi": 66,
      "hit": false,
      "t": 224856.91799999753,
      "d": 47.61899999997695,
      "v": 97
    },
    {
      "midi": 62,
      "hit": false,
      "t": 224856.91799999753,
      "d": 53.57137499997043,
      "v": 86
    },
    {
      "midi": 50,
      "hit": false,
      "t": 224856.9179999987,
      "d": 98.21418750000885,
      "v": 127
    },
    {
      "midi": 54,
      "hit": false,
      "t": 224856.9179999987,
      "d": 101.19037500000559,
      "v": 127
    },
    {
      "midi": 47,
      "hit": false,
      "t": 224999.7749999987,
      "d": 80.3570624999993,
      "v": 127
    },
    {
      "midi": 35,
      "hit": false,
      "t": 225142.6319999987,
      "d": 270.8330624999944,
      "v": 127
    },
    {
      "midi": 66,
      "hit": false,
      "t": 225428.3459999975,
      "d": 29.761874999996508,
      "v": 58
    },
    {
      "midi": 54,
      "hit": false,
      "t": 225428.3459999987,
      "d": 80.3570624999993,
      "v": 127
    },
    {
      "midi": 50,
      "hit": false,
      "t": 225428.3459999987,
      "d": 86.30943749999278,
      "v": 127
    },
    {
      "midi": 47,
      "hit": false,
      "t": 225571.2029999987,
      "d": 74.40468750000582,
      "v": 127
    },
    {
      "midi": 42,
      "hit": false,
      "t": 225714.05999999872,
      "d": 119.04749999998603,
      "v": 127
    },
    {
      "midi": 47,
      "hit": false,
      "t": 225856.9169999987,
      "d": 83.33324999999604,
      "v": 127
    },
    {
      "midi": 62,
      "hit": false,
      "t": 225999.77399999747,
      "d": 29.761874999996508,
      "v": 80
    },
    {
      "midi": 66,
      "hit": false,
      "t": 225999.77399999747,
      "d": 32.73806249999325,
      "v": 87
    },
    {
      "midi": 50,
      "hit": false,
      "t": 225999.7739999987,
      "d": 95.23800000001211,
      "v": 127
    },
    {
      "midi": 54,
      "hit": false,
      "t": 225999.7739999987,
      "d": 104.16656250000233,
      "v": 127
    },
    {
      "midi": 47,
      "hit": false,
      "t": 226142.63099999868,
      "d": 68.45231250001234,
      "v": 127
    },
    {
      "midi": 55,
      "hit": false,
      "t": 226285.48799999748,
      "d": 351.1901249999937,
      "v": 125
    },
    {
      "midi": 31,
      "hit": false,
      "t": 226285.4879999987,
      "d": 303.57112500001676,
      "v": 127
    },
    {
      "midi": 55,
      "hit": false,
      "t": 226571.2019999987,
      "d": 83.33324999999604,
      "v": 127
    },
    {
      "midi": 50,
      "hit": false,
      "t": 226571.2019999987,
      "d": 107.14274999999907,
      "v": 127
    },
    {
      "midi": 59,
      "hit": false,
      "t": 226714.05899999748,
      "d": 139.88081249999232,
      "v": 127
    },
    {
      "midi": 47,
      "hit": false,
      "t": 226714.0589999987,
      "d": 74.40468750000582,
      "v": 127
    },
    {
      "midi": 38,
      "hit": false,
      "t": 226856.91599999872,
      "d": 136.90462499999558,
      "v": 127
    },
    {
      "midi": 62,
      "hit": false,
      "t": 226999.77299999745,
      "d": 50.595187500002794,
      "v": 115
    },
    {
      "midi": 47,
      "hit": false,
      "t": 226999.7729999987,
      "d": 77.38087500000256,
      "v": 127
    },
    {
      "midi": 62,
      "hit": false,
      "t": 227142.62999999744,
      "d": 53.571374999999534,
      "v": 127
    },
    {
      "midi": 55,
      "hit": false,
      "t": 227142.6299999987,
      "d": 98.21418750000885,
      "v": 127
    },
    {
      "midi": 50,
      "hit": false,
      "t": 227142.6299999987,
      "d": 101.19037500000559,
      "v": 127
    },
    {
      "midi": 47,
      "hit": false,
      "t": 227285.4869999987,
      "d": 74.40468750000582,
      "v": 127
    },
    {
      "midi": 31,
      "hit": false,
      "t": 227428.34399999873,
      "d": 300.59493750002,
      "v": 127
    },
    {
      "midi": 62,
      "hit": false,
      "t": 227714.05799999743,
      "d": 44.64281250000931,
      "v": 112
    },
    {
      "midi": 59,
      "hit": false,
      "t": 227714.05799999743,
      "d": 47.619000000006054,
      "v": 115
    },
    {
      "midi": 67,
      "hit": false,
      "t": 227714.05799999743,
      "d": 50.595187500002794,
      "v": 103
    },
    {
      "midi": 55,
      "hit": false,
      "t": 227714.05799999874,
      "d": 89.28562500001863,
      "v": 127
    },
    {
      "midi": 50,
      "hit": false,
      "t": 227714.05799999874,
      "d": 107.14275000002817,
      "v": 127
    },
    {
      "midi": 47,
      "hit": false,
      "t": 227856.91499999876,
      "d": 74.40468750000582,
      "v": 127
    },
    {
      "midi": 38,
      "hit": false,
      "t": 227999.77199999877,
      "d": 160.7141249999986,
      "v": 127
    },
    {
      "midi": 47,
      "hit": false,
      "t": 228142.62899999876,
      "d": 86.30943750002189,
      "v": 127
    },
    {
      "midi": 62,
      "hit": false,
      "t": 228285.48599999744,
      "d": 53.571374999999534,
      "v": 109
    },
    {
      "midi": 59,
      "hit": false,
      "t": 228285.48599999744,
      "d": 62.499937499989755,
      "v": 107
    },
    {
      "midi": 67,
      "hit": false,
      "t": 228285.48599999744,
      "d": 68.45231249998324,
      "v": 99
    },
    {
      "midi": 50,
      "hit": false,
      "t": 228285.48599999878,
      "d": 98.21418750000885,
      "v": 127
    },
    {
      "midi": 55,
      "hit": false,
      "t": 228285.48599999878,
      "d": 101.19037500000559,
      "v": 127
    },
    {
      "midi": 47,
      "hit": false,
      "t": 228428.3429999988,
      "d": 83.33324999999604,
      "v": 127
    },
    {
      "midi": 38,
      "hit": false,
      "t": 228571.1999999988,
      "d": 291.6663750000007,
      "v": 127
    },
    {
      "midi": 62,
      "hit": false,
      "t": 228856.91399999743,
      "d": 41.66662500001257,
      "v": 88
    },
    {
      "midi": 57,
      "hit": false,
      "t": 228856.91399999743,
      "d": 47.619000000006054,
      "v": 88
    },
    {
      "midi": 66,
      "hit": false,
      "t": 228856.91399999743,
      "d": 56.547562499996275,
      "v": 89
    },
    {
      "midi": 54,
      "hit": false,
      "t": 228856.9139999988,
      "d": 71.42849999997998,
      "v": 127
    },
    {
      "midi": 50,
      "hit": false,
      "t": 228856.9139999988,
      "d": 77.38087499997346,
      "v": 127
    },
    {
      "midi": 45,
      "hit": false,
      "t": 228999.77099999876,
      "d": 80.3570624999993,
      "v": 127
    },
    {
      "midi": 33,
      "hit": false,
      "t": 229142.62799999875,
      "d": 163.69031249999534,
      "v": 127
    },
    {
      "midi": 45,
      "hit": false,
      "t": 229285.48499999873,
      "d": 89.28562500001863,
      "v": 127
    },
    {
      "midi": 57,
      "hit": false,
      "t": 229428.3419999974,
      "d": 44.64281250000931,
      "v": 99
    },
    {
      "midi": 62,
      "hit": false,
      "t": 229428.3419999974,
      "d": 44.64281250000931,
      "v": 101
    },
    {
      "midi": 66,
      "hit": false,
      "t": 229428.3419999974,
      "d": 56.547562499996275,
      "v": 104
    },
    {
      "midi": 54,
      "hit": false,
      "t": 229428.34199999875,
      "d": 83.33324999999604,
      "v": 127
    },
    {
      "midi": 50,
      "hit": false,
      "t": 229428.34199999875,
      "d": 98.21418750000885,
      "v": 127
    },
    {
      "midi": 45,
      "hit": false,
      "t": 229571.19899999877,
      "d": 74.40468750000582,
      "v": 127
    },
    {
      "midi": 38,
      "hit": false,
      "t": 229714.0559999988,
      "d": 247.02356249999139,
      "v": 127
    },
    {
      "midi": 54,
      "hit": false,
      "t": 229999.76999999877,
      "d": 77.38087500000256,
      "v": 127
    },
    {
      "midi": 50,
      "hit": false,
      "t": 229999.76999999877,
      "d": 89.28562499998952,
      "v": 127
    },
    {
      "midi": 45,
      "hit": false,
      "t": 230142.62699999876,
      "d": 86.30943749999278,
      "v": 127
    },
    {
      "midi": 42,
      "hit": false,
      "t": 230285.48399999875,
      "d": 124.99987500000861,
      "v": 127
    },
    {
      "midi": 45,
      "hit": false,
      "t": 230428.34099999876,
      "d": 92.26181249998626,
      "v": 127
    },
    {
      "midi": 54,
      "hit": false,
      "t": 230571.19799999875,
      "d": 89.28562499998952,
      "v": 127
    },
    {
      "midi": 50,
      "hit": false,
      "t": 230571.19799999875,
      "d": 95.237999999983,
      "v": 127
    },
    {
      "midi": 45,
      "hit": false,
      "t": 230714.05499999874,
      "d": 47.619000000006054,
      "v": 127
    },
    {
      "midi": 71,
      "hit": false,
      "t": 230856.91199999742,
      "d": 288.69018750000396,
      "v": 120
    },
    {
      "midi": 66,
      "hit": false,
      "t": 230856.91199999742,
      "d": 297.6187499999942,
      "v": 124
    },
    {
      "midi": 38,
      "hit": false,
      "t": 230856.91199999876,
      "d": 291.6663750000007,
      "v": 127
    },
    {
      "midi": 54,
      "hit": false,
      "t": 231142.62599999877,
      "d": 71.42849999997998,
      "v": 127
    },
    {
      "midi": 50,
      "hit": false,
      "t": 231142.62599999877,
      "d": 107.14274999996996,
      "v": 127
    },
    {
      "midi": 66,
      "hit": false,
      "t": 231285.48299999742,
      "d": 95.23800000001211,
      "v": 121
    },
    {
      "midi": 69,
      "hit": false,
      "t": 231285.48299999742,
      "d": 95.23800000001211,
      "v": 112
    },
    {
      "midi": 45,
      "hit": false,
      "t": 231285.48299999873,
      "d": 77.38087500000256,
      "v": 127
    },
    {
      "midi": 42,
      "hit": false,
      "t": 231428.33999999872,
      "d": 142.85699999998906,
      "v": 127
    },
    {
      "midi": 64,
      "hit": false,
      "t": 231571.19699999742,
      "d": 56.547562499996275,
      "v": 103
    },
    {
      "midi": 67,
      "hit": false,
      "t": 231571.19699999742,
      "d": 68.45231249998324,
      "v": 105
    },
    {
      "midi": 45,
      "hit": false,
      "t": 231571.1969999987,
      "d": 92.26181249998626,
      "v": 127
    },
    {
      "midi": 62,
      "hit": false,
      "t": 231714.0539999974,
      "d": 110.11893749999581,
      "v": 94
    },
    {
      "midi": 66,
      "hit": false,
      "t": 231714.0539999974,
      "d": 116.07131249998929,
      "v": 118
    },
    {
      "midi": 50,
      "hit": false,
      "t": 231714.0539999987,
      "d": 95.23800000001211,
      "v": 127
    },
    {
      "midi": 54,
      "hit": false,
      "t": 231714.0539999987,
      "d": 101.19037500000559,
      "v": 127
    },
    {
      "midi": 45,
      "hit": false,
      "t": 231856.9109999987,
      "d": 74.40468750000582,
      "v": 127
    },
    {
      "midi": 38,
      "hit": false,
      "t": 231999.76799999873,
      "d": 306.5473125000135,
      "v": 127
    },
    {
      "midi": 50,
      "hit": false,
      "t": 232285.48199999874,
      "d": 74.40468750000582,
      "v": 127
    },
    {
      "midi": 54,
      "hit": false,
      "t": 232285.48199999874,
      "d": 80.3570624999993,
      "v": 127
    },
    {
      "midi": 45,
      "hit": false,
      "t": 232428.33899999873,
      "d": 89.28562499998952,
      "v": 127
    },
    {
      "midi": 42,
      "hit": false,
      "t": 232571.19599999872,
      "d": 157.73793750000186,
      "v": 127
    },
    {
      "midi": 45,
      "hit": false,
      "t": 232714.0529999987,
      "d": 89.28562500001863,
      "v": 127
    },
    {
      "midi": 50,
      "hit": false,
      "t": 232856.90999999872,
      "d": 101.19037500000559,
      "v": 127
    },
    {
      "midi": 54,
      "hit": false,
      "t": 232856.90999999872,
      "d": 101.19037500000559,
      "v": 127
    },
    {
      "midi": 45,
      "hit": false,
      "t": 232999.76699999874,
      "d": 89.28562499998952,
      "v": 127
    },
    {
      "midi": 35,
      "hit": false,
      "t": 233142.62399999873,
      "d": 276.7854374999879,
      "v": 127
    },
    {
      "midi": 66,
      "hit": false,
      "t": 233428.3379999974,
      "d": 38.69043749998673,
      "v": 107
    },
    {
      "midi": 62,
      "hit": false,
      "t": 233428.3379999974,
      "d": 50.59518749997369,
      "v": 92
    },
    {
      "midi": 71,
      "hit": false,
      "t": 233428.3379999974,
      "d": 50.59518749997369,
      "v": 109
    },
    {
      "midi": 54,
      "hit": false,
      "t": 233428.3379999987,
      "d": 86.30943749999278,
      "v": 127
    },
    {
      "midi": 50,
      "hit": false,
      "t": 233428.3379999987,
      "d": 95.237999999983,
      "v": 127
    },
    {
      "midi": 47,
      "hit": false,
      "t": 233571.1949999987,
      "d": 77.38087500000256,
      "v": 127
    },
    {
      "midi": 42,
      "hit": false,
      "t": 233714.0519999987,
      "d": 148.80937499998254,
      "v": 127
    },
    {
      "midi": 47,
      "hit": false,
      "t": 233856.90899999868,
      "d": 83.33324999999604,
      "v": 127
    },
    {
      "midi": 71,
      "hit": false,
      "t": 233999.76599999738,
      "d": 35.71424999998999,
      "v": 89
    },
    {
      "midi": 66,
      "hit": false,
      "t": 233999.76599999738,
      "d": 47.61899999997695,
      "v": 97
    },
    {
      "midi": 62,
      "hit": false,
      "t": 233999.76599999738,
      "d": 53.57137499997043,
      "v": 86
    },
    {
      "midi": 50,
      "hit": false,
      "t": 233999.76599999866,
      "d": 98.21418750000885,
      "v": 127
    },
    {
      "midi": 54,
      "hit": false,
      "t": 233999.76599999866,
      "d": 101.19037500000559,
      "v": 127
    },
    {
      "midi": 47,
      "hit": false,
      "t": 234142.62299999868,
      "d": 80.3570624999993,
      "v": 127
    },
    {
      "midi": 35,
      "hit": false,
      "t": 234285.47999999867,
      "d": 270.8330624999944,
      "v": 127
    },
    {
      "midi": 66,
      "hit": false,
      "t": 234571.19399999734,
      "d": 29.761874999996508,
      "v": 58
    },
    {
      "midi": 54,
      "hit": false,
      "t": 234571.19399999868,
      "d": 80.3570624999993,
      "v": 127
    },
    {
      "midi": 50,
      "hit": false,
      "t": 234571.19399999868,
      "d": 86.30943749999278,
      "v": 127
    },
    {
      "midi": 47,
      "hit": false,
      "t": 234714.05099999867,
      "d": 74.40468750000582,
      "v": 127
    },
    {
      "midi": 42,
      "hit": false,
      "t": 234856.9079999987,
      "d": 119.04749999998603,
      "v": 127
    },
    {
      "midi": 47,
      "hit": false,
      "t": 234999.76499999868,
      "d": 83.33324999999604,
      "v": 127
    },
    {
      "midi": 62,
      "hit": false,
      "t": 235142.62199999733,
      "d": 29.761874999996508,
      "v": 80
    },
    {
      "midi": 66,
      "hit": false,
      "t": 235142.62199999733,
      "d": 32.73806249999325,
      "v": 87
    },
    {
      "midi": 50,
      "hit": false,
      "t": 235142.62199999866,
      "d": 95.23800000001211,
      "v": 127
    },
    {
      "midi": 54,
      "hit": false,
      "t": 235142.62199999866,
      "d": 104.16656250000233,
      "v": 127
    },
    {
      "midi": 47,
      "hit": false,
      "t": 235285.47899999865,
      "d": 68.45231250001234,
      "v": 127
    },
    {
      "midi": 55,
      "hit": false,
      "t": 235428.33599999733,
      "d": 351.1901249999937,
      "v": 125
    },
    {
      "midi": 31,
      "hit": false,
      "t": 235428.33599999867,
      "d": 303.57112500001676,
      "v": 127
    },
    {
      "midi": 55,
      "hit": false,
      "t": 235714.04999999868,
      "d": 83.33324999999604,
      "v": 127
    },
    {
      "midi": 50,
      "hit": false,
      "t": 235714.04999999868,
      "d": 107.14274999999907,
      "v": 127
    },
    {
      "midi": 59,
      "hit": false,
      "t": 235856.90699999733,
      "d": 139.88081249999232,
      "v": 127
    },
    {
      "midi": 47,
      "hit": false,
      "t": 235856.90699999867,
      "d": 74.40468750000582,
      "v": 127
    },
    {
      "midi": 38,
      "hit": false,
      "t": 235999.7639999987,
      "d": 136.90462499999558,
      "v": 127
    },
    {
      "midi": 62,
      "hit": false,
      "t": 236142.6209999973,
      "d": 50.595187500002794,
      "v": 115
    },
    {
      "midi": 47,
      "hit": false,
      "t": 236142.62099999867,
      "d": 77.38087500000256,
      "v": 127
    },
    {
      "midi": 62,
      "hit": false,
      "t": 236285.4779999973,
      "d": 53.571374999999534,
      "v": 127
    },
    {
      "midi": 55,
      "hit": false,
      "t": 236285.47799999866,
      "d": 98.21418750000885,
      "v": 127
    },
    {
      "midi": 50,
      "hit": false,
      "t": 236285.47799999866,
      "d": 101.19037500000559,
      "v": 127
    },
    {
      "midi": 47,
      "hit": false,
      "t": 236428.33499999868,
      "d": 74.40468750000582,
      "v": 127
    },
    {
      "midi": 31,
      "hit": false,
      "t": 236571.1919999987,
      "d": 300.59493750002,
      "v": 127
    },
    {
      "midi": 62,
      "hit": false,
      "t": 236856.90599999728,
      "d": 44.64281250000931,
      "v": 112
    },
    {
      "midi": 59,
      "hit": false,
      "t": 236856.90599999728,
      "d": 47.619000000006054,
      "v": 115
    },
    {
      "midi": 67,
      "hit": false,
      "t": 236856.90599999728,
      "d": 50.595187500002794,
      "v": 103
    },
    {
      "midi": 55,
      "hit": false,
      "t": 236856.9059999987,
      "d": 89.28562500001863,
      "v": 127
    },
    {
      "midi": 50,
      "hit": false,
      "t": 236856.9059999987,
      "d": 107.14275000002817,
      "v": 127
    },
    {
      "midi": 47,
      "hit": false,
      "t": 236999.76299999873,
      "d": 74.40468750000582,
      "v": 127
    },
    {
      "midi": 38,
      "hit": false,
      "t": 237142.61999999874,
      "d": 160.7141249999986,
      "v": 127
    },
    {
      "midi": 47,
      "hit": false,
      "t": 237285.47699999873,
      "d": 86.30943750002189,
      "v": 127
    },
    {
      "midi": 62,
      "hit": false,
      "t": 237428.3339999973,
      "d": 53.571374999999534,
      "v": 109
    },
    {
      "midi": 59,
      "hit": false,
      "t": 237428.3339999973,
      "d": 62.499937499989755,
      "v": 107
    },
    {
      "midi": 67,
      "hit": false,
      "t": 237428.3339999973,
      "d": 68.45231249998324,
      "v": 99
    },
    {
      "midi": 50,
      "hit": false,
      "t": 237428.33399999875,
      "d": 98.21418750000885,
      "v": 127
    },
    {
      "midi": 55,
      "hit": false,
      "t": 237428.33399999875,
      "d": 101.19037500000559,
      "v": 127
    },
    {
      "midi": 47,
      "hit": false,
      "t": 237571.19099999877,
      "d": 83.33324999999604,
      "v": 127
    },
    {
      "midi": 38,
      "hit": false,
      "t": 237714.04799999876,
      "d": 291.6663750000007,
      "v": 127
    },
    {
      "midi": 62,
      "hit": false,
      "t": 237999.76199999728,
      "d": 41.66662500001257,
      "v": 88
    },
    {
      "midi": 57,
      "hit": false,
      "t": 237999.76199999728,
      "d": 47.619000000006054,
      "v": 88
    },
    {
      "midi": 66,
      "hit": false,
      "t": 237999.76199999728,
      "d": 56.547562499996275,
      "v": 89
    },
    {
      "midi": 54,
      "hit": false,
      "t": 237999.76199999877,
      "d": 71.42849999997998,
      "v": 127
    },
    {
      "midi": 50,
      "hit": false,
      "t": 237999.76199999877,
      "d": 77.38087499997346,
      "v": 127
    },
    {
      "midi": 45,
      "hit": false,
      "t": 238142.61899999873,
      "d": 80.3570624999993,
      "v": 127
    },
    {
      "midi": 33,
      "hit": false,
      "t": 238285.4759999987,
      "d": 163.69031249999534,
      "v": 127
    },
    {
      "midi": 45,
      "hit": false,
      "t": 238428.3329999987,
      "d": 89.28562500001863,
      "v": 127
    },
    {
      "midi": 57,
      "hit": false,
      "t": 238571.18999999727,
      "d": 44.64281250000931,
      "v": 99
    },
    {
      "midi": 62,
      "hit": false,
      "t": 238571.18999999727,
      "d": 44.64281250000931,
      "v": 101
    },
    {
      "midi": 66,
      "hit": false,
      "t": 238571.18999999727,
      "d": 56.547562499996275,
      "v": 104
    },
    {
      "midi": 54,
      "hit": false,
      "t": 238571.18999999872,
      "d": 83.33324999999604,
      "v": 127
    },
    {
      "midi": 50,
      "hit": false,
      "t": 238571.18999999872,
      "d": 98.21418750000885,
      "v": 127
    },
    {
      "midi": 45,
      "hit": false,
      "t": 238714.04699999874,
      "d": 74.40468750000582,
      "v": 127
    },
    {
      "midi": 38,
      "hit": false,
      "t": 238856.90399999876,
      "d": 247.02356249999139,
      "v": 127
    },
    {
      "midi": 54,
      "hit": false,
      "t": 239142.61799999874,
      "d": 77.38087500000256,
      "v": 127
    },
    {
      "midi": 50,
      "hit": false,
      "t": 239142.61799999874,
      "d": 89.28562499998952,
      "v": 127
    },
    {
      "midi": 45,
      "hit": false,
      "t": 239285.47499999873,
      "d": 86.30943749999278,
      "v": 127
    },
    {
      "midi": 42,
      "hit": false,
      "t": 239428.3319999987,
      "d": 124.99987500000861,
      "v": 127
    },
    {
      "midi": 45,
      "hit": false,
      "t": 239571.18899999873,
      "d": 92.26181249998626,
      "v": 127
    },
    {
      "midi": 54,
      "hit": false,
      "t": 239714.04599999872,
      "d": 89.28562499998952,
      "v": 127
    },
    {
      "midi": 50,
      "hit": false,
      "t": 239714.04599999872,
      "d": 95.237999999983,
      "v": 127
    },
    {
      "midi": 45,
      "hit": false,
      "t": 239856.9029999987,
      "d": 47.619000000006054,
      "v": 127
    },
    {
      "midi": 47,
      "hit": false,
      "t": 239999.75999999727,
      "d": 92.26181249998626,
      "v": 127
    },
    {
      "midi": 35,
      "hit": false,
      "t": 239999.75999999873,
      "d": 71.42850000000908,
      "v": 127
    },
    {
      "midi": 47,
      "hit": false,
      "t": 240142.61699999726,
      "d": 98.21418750000885,
      "v": 127
    },
    {
      "midi": 35,
      "hit": false,
      "t": 240142.61699999875,
      "d": 59.523749999993015,
      "v": 127
    },
    {
      "midi": 35,
      "hit": false,
      "t": 240285.47399999874,
      "d": 62.499937499989755,
      "v": 127
    },
    {
      "midi": 47,
      "hit": false,
      "t": 240428.33099999727,
      "d": 89.28562499998952,
      "v": 127
    },
    {
      "midi": 35,
      "hit": false,
      "t": 240428.33099999873,
      "d": 71.42850000000908,
      "v": 127
    },
    {
      "midi": 47,
      "hit": false,
      "t": 240571.18799999726,
      "d": 92.26181249998626,
      "v": 127
    },
    {
      "midi": 35,
      "hit": false,
      "t": 240571.18799999874,
      "d": 74.40468750000582,
      "v": 127
    },
    {
      "midi": 47,
      "hit": false,
      "t": 240714.04499999725,
      "d": 92.26181249998626,
      "v": 127
    },
    {
      "midi": 35,
      "hit": false,
      "t": 240714.04499999876,
      "d": 74.40468750000582,
      "v": 127
    },
    {
      "midi": 35,
      "hit": false,
      "t": 240856.90199999878,
      "d": 95.23800000001211,
      "v": 127
    },
    {
      "midi": 47,
      "hit": false,
      "t": 240999.75899999723,
      "d": 83.33324999999604,
      "v": 127
    },
    {
      "midi": 35,
      "hit": false,
      "t": 240999.7589999988,
      "d": 74.40468750000582,
      "v": 127
    },
    {
      "midi": 47,
      "hit": false,
      "t": 241142.61599999722,
      "d": 71.42850000000908,
      "v": 127
    },
    {
      "midi": 35,
      "hit": false,
      "t": 241142.61599999882,
      "d": 77.38087500000256,
      "v": 127
    },
    {
      "midi": 47,
      "hit": false,
      "t": 241285.47299999723,
      "d": 71.42850000000908,
      "v": 107
    },
    {
      "midi": 35,
      "hit": false,
      "t": 241285.4729999988,
      "d": 92.26181249998626,
      "v": 127
    },
    {
      "midi": 49,
      "hit": false,
      "t": 241428.32999999725,
      "d": 74.40468750000582,
      "v": 127
    },
    {
      "midi": 35,
      "hit": false,
      "t": 241428.3299999988,
      "d": 92.26181249998626,
      "v": 127
    },
    {
      "midi": 50,
      "hit": false,
      "t": 241571.18699999727,
      "d": 98.21418750000885,
      "v": 127
    },
    {
      "midi": 35,
      "hit": false,
      "t": 241571.18699999878,
      "d": 80.3570624999993,
      "v": 127
    },
    {
      "midi": 35,
      "hit": false,
      "t": 241714.04399999877,
      "d": 74.40468750000582,
      "v": 127
    },
    {
      "midi": 50,
      "hit": false,
      "t": 241856.90099999728,
      "d": 68.45231250001234,
      "v": 125
    },
    {
      "midi": 35,
      "hit": false,
      "t": 241856.9009999988,
      "d": 80.3570624999993,
      "v": 127
    },
    {
      "midi": 49,
      "hit": false,
      "t": 241999.7579999973,
      "d": 62.499937499989755,
      "v": 121
    },
    {
      "midi": 35,
      "hit": false,
      "t": 241999.75799999878,
      "d": 89.28562499998952,
      "v": 127
    },
    {
      "midi": 47,
      "hit": false,
      "t": 242142.61499999728,
      "d": 56.547562499996275,
      "v": 127
    },
    {
      "midi": 35,
      "hit": false,
      "t": 242142.61499999877,
      "d": 86.30943749999278,
      "v": 127
    },
    {
      "midi": 35,
      "hit": false,
      "t": 242285.47199999876,
      "d": 83.33324999999604,
      "v": 127
    }
  ]
}