{
  "jsonPath": "Rock/Rock/Bon Jovi/wanted-dead-or-alive.json",
  "path": "Rock\\Rock\\Bon Jovi\\Wanted Dead Or Alive.mid",
  "name": "Wanted Dead Or Alive",
  "difficulty": "Advanced",
  "bpm": 76.00035466832179,
  "notes": [
    {
      "midi": 81,
      "hit": false,
      "t": 14465.464683333335,
      "d": 2661.6282604166663,
      "v": 86
    },
    {
      "midi": 77,
      "hit": false,
      "t": 14724.084433333335,
      "d": 2079.7338229166653,
      "v": 87
    },
    {
      "midi": 74,
      "hit": false,
      "t": 15010.721322916668,
      "d": 2504.301245833334,
      "v": 82
    },
    {
      "midi": 76,
      "hit": false,
      "t": 15269.341072916668,
      "d": 1814.6485791666673,
      "v": 86
    },
    {
      "midi": 81,
      "hit": false,
      "t": 24838.27182291667,
      "d": 2661.62826041667,
      "v": 90
    },
    {
      "midi": 77,
      "hit": false,
      "t": 25068.874433333338,
      "d": 2079.733822916667,
      "v": 84
    },
    {
      "midi": 74,
      "hit": false,
      "t": 25355.51132291667,
      "d": 2504.301245833336,
      "v": 84
    },
    {
      "midi": 76,
      "hit": false,
      "t": 25614.131072916673,
      "d": 1814.6485791666673,
      "v": 84
    },
    {
      "midi": 79,
      "hit": false,
      "t": 138883.11607916668,
      "d": 284.48172499999055,
      "v": 109
    },
    {
      "midi": 78,
      "hit": false,
      "t": 139137.4255,
      "d": 262.930079166661,
      "v": 103
    },
    {
      "midi": 74,
      "hit": false,
      "t": 139406.82107291667,
      "d": 241.3784333333315,
      "v": 106
    },
    {
      "midi": 69,
      "hit": false,
      "t": 139669.75115208334,
      "d": 241.3784333333315,
      "v": 112
    },
    {
      "midi": 67,
      "hit": false,
      "t": 139906.81925625,
      "d": 262.9300791666901,
      "v": 110
    },
    {
      "midi": 66,
      "hit": false,
      "t": 140186.99065208336,
      "d": 219.82678750000196,
      "v": 104
    },
    {
      "midi": 62,
      "hit": false,
      "t": 140445.61040208337,
      "d": 284.48172499999055,
      "v": 103
    },
    {
      "midi": 57,
      "hit": false,
      "t": 140689.14400000003,
      "d": 2051.716683333332,
      "v": 109
    },
    {
      "midi": 50,
      "hit": false,
      "t": 140710.69564583336,
      "d": 3818.951641666674,
      "v": 111
    },
    {
      "midi": 66,
      "hit": false,
      "t": 144051.20075000002,
      "d": 528.0153229166754,
      "v": 126
    },
    {
      "midi": 69,
      "hit": false,
      "t": 144051.20075000002,
      "d": 532.3256520833529,
      "v": 127
    },
    {
      "midi": 62,
      "hit": false,
      "t": 144051.20075000002,
      "d": 543.1014750000322,
      "v": 107
    },
    {
      "midi": 60,
      "hit": false,
      "t": 144816.28417708338,
      "d": 732.7559583333496,
      "v": 114
    },
    {
      "midi": 64,
      "hit": false,
      "t": 144816.28417708338,
      "d": 1314.6503958333924,
      "v": 89
    },
    {
      "midi": 67,
      "hit": false,
      "t": 144816.28417708338,
      "d": 1314.6503958333924,
      "v": 115
    },
    {
      "midi": 48,
      "hit": false,
      "t": 144820.59450625005,
      "d": 1469.8222458333767,
      "v": 116
    },
    {
      "midi": 60,
      "hit": false,
      "t": 145596.45375625006,
      "d": 262.9300791666901,
      "v": 111
    },
    {
      "midi": 62,
      "hit": false,
      "t": 145855.07350625008,
      "d": 258.6197500000126,
      "v": 101
    },
    {
      "midi": 60,
      "hit": false,
      "t": 146109.3829270834,
      "d": 295.25754791666986,
      "v": 104
    },
    {
      "midi": 59,
      "hit": false,
      "t": 146361.53718333342,
      "d": 2219.81952083332,
      "v": 107
    },
    {
      "midi": 55,
      "hit": false,
      "t": 146361.53718333342,
      "d": 2234.9056729166477,
      "v": 86
    },
    {
      "midi": 43,
      "hit": false,
      "t": 146368.00267708342,
      "d": 2262.922812499979,
      "v": 102
    },
    {
      "midi": 67,
      "hit": false,
      "t": 148441.27100625008,
      "d": 306.0333708333201,
      "v": 108
    },
    {
      "midi": 71,
      "hit": false,
      "t": 148441.27100625008,
      "d": 306.0333708333201,
      "v": 103
    },
    {
      "midi": 62,
      "hit": false,
      "t": 148441.27100625008,
      "d": 312.49886458332185,
      "v": 95
    },
    {
      "midi": 47,
      "hit": false,
      "t": 148706.35625000007,
      "d": 118.53405208332697,
      "v": 98
    },
    {
      "midi": 60,
      "hit": false,
      "t": 148964.97600000005,
      "d": 732.7559583333205,
      "v": 111
    },
    {
      "midi": 48,
      "hit": false,
      "t": 148964.97600000005,
      "d": 1260.771281250025,
      "v": 111
    },
    {
      "midi": 64,
      "hit": false,
      "t": 148964.97600000005,
      "d": 1314.6503958333924,
      "v": 92
    },
    {
      "midi": 67,
      "hit": false,
      "t": 148964.97600000005,
      "d": 1314.6503958333924,
      "v": 115
    },
    {
      "midi": 60,
      "hit": false,
      "t": 149745.1455791667,
      "d": 262.9300791666901,
      "v": 106
    },
    {
      "midi": 62,
      "hit": false,
      "t": 150003.76532916672,
      "d": 258.6197500000417,
      "v": 102
    },
    {
      "midi": 60,
      "hit": false,
      "t": 150258.0747500001,
      "d": 295.25754791669897,
      "v": 108
    },
    {
      "midi": 43,
      "hit": false,
      "t": 150505.91867708345,
      "d": 1749.9936416666606,
      "v": 110
    },
    {
      "midi": 59,
      "hit": false,
      "t": 150510.22900625013,
      "d": 2219.81952083332,
      "v": 105
    },
    {
      "midi": 55,
      "hit": false,
      "t": 150510.22900625013,
      "d": 2234.9056729166477,
      "v": 89
    },
    {
      "midi": 67,
      "hit": false,
      "t": 152589.9628291668,
      "d": 306.033370833291,
      "v": 110
    },
    {
      "midi": 71,
      "hit": false,
      "t": 152589.9628291668,
      "d": 306.033370833291,
      "v": 105
    },
    {
      "midi": 62,
      "hit": false,
      "t": 152589.9628291668,
      "d": 312.49886458329274,
      "v": 95
    },
    {
      "midi": 38,
      "hit": false,
      "t": 152837.8067562501,
      "d": 144.39602708333405,
      "v": 98
    },
    {
      "midi": 57,
      "hit": false,
      "t": 152837.8067562501,
      "d": 172.41316666666535,
      "v": 99
    },
    {
      "midi": 59,
      "hit": false,
      "t": 153085.65068333343,
      "d": 183.18898958334466,
      "v": 108
    },
    {
      "midi": 62,
      "hit": false,
      "t": 153085.65068333343,
      "d": 193.96481250002398,
      "v": 105
    },
    {
      "midi": 55,
      "hit": false,
      "t": 153085.65068333343,
      "d": 204.7406354167033,
      "v": 102
    },
    {
      "midi": 43,
      "hit": false,
      "t": 153096.4265062501,
      "d": 219.82678750003106,
      "v": 114
    },
    {
      "midi": 57,
      "hit": false,
      "t": 153609.35567708348,
      "d": 344.8263333333307,
      "v": 111
    },
    {
      "midi": 53,
      "hit": false,
      "t": 153609.35567708348,
      "d": 355.60215625001,
      "v": 100
    },
    {
      "midi": 60,
      "hit": false,
      "t": 153609.35567708348,
      "d": 359.91248541668756,
      "v": 105
    },
    {
      "midi": 41,
      "hit": false,
      "t": 153613.66600625016,
      "d": 829.738364583347,
      "v": 113
    },
    {
      "midi": 50,
      "hit": false,
      "t": 154643.8346770835,
      "d": 2040.940860416682,
      "v": 98
    },
    {
      "midi": 57,
      "hit": false,
      "t": 154648.14500625018,
      "d": 2008.6133916666731,
      "v": 86
    },
    {
      "midi": 62,
      "hit": false,
      "t": 154648.14500625018,
      "d": 2295.250281250017,
      "v": 99
    },
    {
      "midi": 66,
      "hit": false,
      "t": 154648.14500625018,
      "d": 2299.5606104166945,
      "v": 90
    },
    {
      "midi": 57,
      "hit": false,
      "t": 156717.1030062502,
      "d": 499.99818333334406,
      "v": 100
    },
    {
      "midi": 48,
      "hit": false,
      "t": 156997.27440208354,
      "d": 193.96481249999488,
      "v": 94
    },
    {
      "midi": 57,
      "hit": false,
      "t": 157240.8080000002,
      "d": 715.5146416666685,
      "v": 106
    },
    {
      "midi": 50,
      "hit": false,
      "t": 157262.35964583352,
      "d": 3512.918270833441,
      "v": 113
    },
    {
      "midi": 57,
      "hit": false,
      "t": 158005.89142708352,
      "d": 532.3256520833529,
      "v": 90
    },
    {
      "midi": 62,
      "hit": false,
      "t": 158275.2870000002,
      "d": 172.41316666666535,
      "v": 99
    },
    {
      "midi": 67,
      "hit": false,
      "t": 158275.2870000002,
      "d": 183.18898958334466,
      "v": 105
    },
    {
      "midi": 62,
      "hit": false,
      "t": 158792.5265000002,
      "d": 995.6860375000106,
      "v": 100
    },
    {
      "midi": 66,
      "hit": false,
      "t": 158792.5265000002,
      "d": 995.6860375000106,
      "v": 100
    },
    {
      "midi": 66,
      "hit": false,
      "t": 159827.00550000023,
      "d": 86.20658333334723,
      "v": 78
    },
    {
      "midi": 62,
      "hit": false,
      "t": 159827.00550000023,
      "d": 90.51691250002477,
      "v": 81
    },
    {
      "midi": 62,
      "hit": false,
      "t": 160085.62525000024,
      "d": 86.20658333334723,
      "v": 91
    },
    {
      "midi": 66,
      "hit": false,
      "t": 160085.62525000024,
      "d": 90.51691250002477,
      "v": 78
    },
    {
      "midi": 62,
      "hit": false,
      "t": 160327.0036833336,
      "d": 122.84438125000452,
      "v": 86
    },
    {
      "midi": 66,
      "hit": false,
      "t": 160327.0036833336,
      "d": 133.62020416668383,
      "v": 93
    },
    {
      "midi": 66,
      "hit": false,
      "t": 160581.31310416697,
      "d": 327.5850166666787,
      "v": 106
    },
    {
      "midi": 62,
      "hit": false,
      "t": 160581.31310416697,
      "d": 338.36083958335803,
      "v": 107
    },
    {
      "midi": 50,
      "hit": false,
      "t": 160855.0190062503,
      "d": 155.17185000001336,
      "v": 104
    },
    {
      "midi": 50,
      "hit": false,
      "t": 161113.63875625032,
      "d": 172.41316666666535,
      "v": 102
    },
    {
      "midi": 60,
      "hit": false,
      "t": 161367.94817708366,
      "d": 732.7559583333496,
      "v": 115
    },
    {
      "midi": 64,
      "hit": false,
      "t": 161367.94817708366,
      "d": 1314.6503958333924,
      "v": 92
    },
    {
      "midi": 67,
      "hit": false,
      "t": 161367.94817708366,
      "d": 1314.6503958333924,
      "v": 112
    },
    {
      "midi": 48,
      "hit": false,
      "t": 161372.25850625033,
      "d": 1469.8222458333767,
      "v": 113
    },
    {
      "midi": 60,
      "hit": false,
      "t": 162148.11775625034,
      "d": 262.9300791666901,
      "v": 112
    },
    {
      "midi": 62,
      "hit": false,
      "t": 162406.73750625036,
      "d": 258.6197500000126,
      "v": 105
    },
    {
      "midi": 60,
      "hit": false,
      "t": 162661.0469270837,
      "d": 295.25754791666986,
      "v": 101
    },
    {
      "midi": 59,
      "hit": false,
      "t": 162913.2011833337,
      "d": 2219.81952083332,
      "v": 106
    },
    {
      "midi": 55,
      "hit": false,
      "t": 162913.2011833337,
      "d": 2234.9056729166477,
      "v": 85
    },
    {
      "midi": 43,
      "hit": false,
      "t": 162919.6666770837,
      "d": 2262.922812499979,
      "v": 105
    },
    {
      "midi": 67,
      "hit": false,
      "t": 164992.93500625037,
      "d": 306.0333708333201,
      "v": 111
    },
    {
      "midi": 71,
      "hit": false,
      "t": 164992.93500625037,
      "d": 306.0333708333201,
      "v": 103
    },
    {
      "midi": 62,
      "hit": false,
      "t": 164992.93500625037,
      "d": 312.49886458332185,
      "v": 101
    },
    {
      "midi": 47,
      "hit": false,
      "t": 165258.02025000035,
      "d": 118.53405208332697,
      "v": 102
    },
    {
      "midi": 60,
      "hit": false,
      "t": 165516.64000000033,
      "d": 732.7559583333205,
      "v": 115
    },
    {
      "midi": 48,
      "hit": false,
      "t": 165516.64000000033,
      "d": 1260.771281250025,
      "v": 107
    },
    {
      "midi": 64,
      "hit": false,
      "t": 165516.64000000033,
      "d": 1314.6503958333924,
      "v": 93
    },
    {
      "midi": 67,
      "hit": false,
      "t": 165516.64000000033,
      "d": 1314.6503958333924,
      "v": 111
    },
    {
      "midi": 60,
      "hit": false,
      "t": 166296.809579167,
      "d": 262.9300791666901,
      "v": 110
    },
    {
      "midi": 62,
      "hit": false,
      "t": 166555.429329167,
      "d": 258.6197500000417,
      "v": 105
    },
    {
      "midi": 60,
      "hit": false,
      "t": 166809.73875000037,
      "d": 295.25754791669897,
      "v": 105
    },
    {
      "midi": 43,
      "hit": false,
      "t": 167057.58267708373,
      "d": 1749.9936416666606,
      "v": 107
    },
    {
      "midi": 59,
      "hit": false,
      "t": 167061.8930062504,
      "d": 2219.81952083332,
      "v": 105
    },
    {
      "midi": 55,
      "hit": false,
      "t": 167061.8930062504,
      "d": 2234.9056729166477,
      "v": 90
    },
    {
      "midi": 67,
      "hit": false,
      "t": 169141.62682916707,
      "d": 306.033370833291,
      "v": 107
    },
    {
      "midi": 71,
      "hit": false,
      "t": 169141.62682916707,
      "d": 306.033370833291,
      "v": 105
    },
    {
      "midi": 62,
      "hit": false,
      "t": 169141.62682916707,
      "d": 312.49886458329274,
      "v": 95
    },
    {
      "midi": 38,
      "hit": false,
      "t": 169389.47075625038,
      "d": 144.39602708333405,
      "v": 103
    },
    {
      "midi": 57,
      "hit": false,
      "t": 169389.47075625038,
      "d": 172.41316666666535,
      "v": 105
    },
    {
      "midi": 59,
      "hit": false,
      "t": 169637.3146833337,
      "d": 183.18898958334466,
      "v": 111
    },
    {
      "midi": 62,
      "hit": false,
      "t": 169637.3146833337,
      "d": 193.96481250002398,
      "v": 103
    },
    {
      "midi": 55,
      "hit": false,
      "t": 169637.3146833337,
      "d": 204.7406354167033,
      "v": 102
    },
    {
      "midi": 43,
      "hit": false,
      "t": 169648.0905062504,
      "d": 219.82678750003106,
      "v": 110
    },
    {
      "midi": 57,
      "hit": false,
      "t": 170161.01967708376,
      "d": 344.8263333333307,
      "v": 111
    },
    {
      "midi": 53,
      "hit": false,
      "t": 170161.01967708376,
      "d": 355.60215625001,
      "v": 101
    },
    {
      "midi": 60,
      "hit": false,
      "t": 170161.01967708376,
      "d": 359.91248541668756,
      "v": 104
    },
    {
      "midi": 41,
      "hit": false,
      "t": 170165.33000625044,
      "d": 829.738364583347,
      "v": 118
    },
    {
      "midi": 50,
      "hit": false,
      "t": 171195.4986770838,
      "d": 2040.940860416682,
      "v": 93
    },
    {
      "midi": 57,
      "hit": false,
      "t": 171199.80900625046,
      "d": 2008.6133916666731,
      "v": 89
    },
    {
      "midi": 62,
      "hit": false,
      "t": 171199.80900625046,
      "d": 2295.250281250017,
      "v": 96
    },
    {
      "midi": 66,
      "hit": false,
      "t": 171199.80900625046,
      "d": 2299.5606104166945,
      "v": 95
    },
    {
      "midi": 57,
      "hit": false,
      "t": 173268.76700625048,
      "d": 499.99818333337316,
      "v": 97
    },
    {
      "midi": 60,
      "hit": false,
      "t": 173544.62807291717,
      "d": 1487.0635624999995,
      "v": 100
    },
    {
      "midi": 48,
      "hit": false,
      "t": 173548.93840208385,
      "d": 193.96481249999488,
      "v": 93
    },
    {
      "midi": 64,
      "hit": false,
      "t": 173786.00650625053,
      "d": 1221.9783187499852,
      "v": 120
    },
    {
      "midi": 67,
      "hit": false,
      "t": 173786.00650625053,
      "d": 1243.5299645833147,
      "v": 126
    },
    {
      "midi": 48,
      "hit": false,
      "t": 173792.47200000053,
      "d": 1368.5295104166435,
      "v": 127
    },
    {
      "midi": 76,
      "hit": false,
      "t": 174594.19322500052,
      "d": 230.60261041665217,
      "v": 104
    },
    {
      "midi": 79,
      "hit": false,
      "t": 174852.8129750005,
      "d": 247.84392708333326,
      "v": 118
    },
    {
      "midi": 76,
      "hit": false,
      "t": 175107.12239583384,
      "d": 230.60261041668127,
      "v": 101
    },
    {
      "midi": 74,
      "hit": false,
      "t": 175344.19050000052,
      "d": 797.4108958333672,
      "v": 93
    },
    {
      "midi": 43,
      "hit": false,
      "t": 175348.5008291672,
      "d": 2084.04415208337,
      "v": 121
    },
    {
      "midi": 67,
      "hit": false,
      "t": 175359.27665208388,
      "d": 1728.441995833331,
      "v": 97
    },
    {
      "midi": 62,
      "hit": false,
      "t": 175359.27665208388,
      "d": 2058.182177083334,
      "v": 117
    },
    {
      "midi": 59,
      "hit": false,
      "t": 175359.27665208388,
      "d": 2079.7338229166926,
      "v": 102
    },
    {
      "midi": 71,
      "hit": false,
      "t": 176130.8255729172,
      "d": 198.27514166667243,
      "v": 104
    },
    {
      "midi": 71,
      "hit": false,
      "t": 176378.66950000054,
      "d": 112.0685583333252,
      "v": 103
    },
    {
      "midi": 71,
      "hit": false,
      "t": 176626.51342708388,
      "d": 241.3784333333315,
      "v": 98
    },
    {
      "midi": 69,
      "hit": false,
      "t": 176900.21932916722,
      "d": 215.5164583333244,
      "v": 101
    },
    {
      "midi": 67,
      "hit": false,
      "t": 177143.75292708387,
      "d": 284.48172500001965,
      "v": 102
    },
    {
      "midi": 66,
      "hit": false,
      "t": 177413.14850000053,
      "d": 161.63734375004424,
      "v": 91
    },
    {
      "midi": 67,
      "hit": false,
      "t": 177639.44078125057,
      "d": 172.41316666666535,
      "v": 91
    },
    {
      "midi": 48,
      "hit": false,
      "t": 177671.76825000058,
      "d": 284.48172499999055,
      "v": 94
    },
    {
      "midi": 53,
      "hit": false,
      "t": 177930.38800000056,
      "d": 1293.0987500000047,
      "v": 118
    },
    {
      "midi": 60,
      "hit": false,
      "t": 177941.16382291724,
      "d": 1163.7888749999984,
      "v": 110
    },
    {
      "midi": 65,
      "hit": false,
      "t": 177941.16382291724,
      "d": 1163.7888749999984,
      "v": 110
    },
    {
      "midi": 57,
      "hit": false,
      "t": 177941.16382291724,
      "d": 1189.6508500000054,
      "v": 101
    },
    {
      "midi": 57,
      "hit": false,
      "t": 179471.3306770839,
      "d": 2234.905672916735,
      "v": 93
    },
    {
      "midi": 50,
      "hit": false,
      "t": 179471.3306770839,
      "d": 2321.1122562500823,
      "v": 122
    },
    {
      "midi": 62,
      "hit": false,
      "t": 179475.64100625057,
      "d": 2198.2678750000487,
      "v": 107
    },
    {
      "midi": 66,
      "hit": false,
      "t": 179475.64100625057,
      "d": 2198.2678750000487,
      "v": 113
    },
    {
      "midi": 79,
      "hit": false,
      "t": 180240.7244333339,
      "d": 101.29273541667499,
      "v": 108
    },
    {
      "midi": 79,
      "hit": false,
      "t": 180505.80967708392,
      "d": 176.7234958333429,
      "v": 105
    },
    {
      "midi": 79,
      "hit": false,
      "t": 180736.4122875006,
      "d": 1006.4618604166899,
      "v": 95
    },
    {
      "midi": 78,
      "hit": false,
      "t": 180995.0320375006,
      "d": 747.8421104166773,
      "v": 90
    },
    {
      "midi": 74,
      "hit": false,
      "t": 181253.65178750062,
      "d": 499.99818333334406,
      "v": 90
    },
    {
      "midi": 69,
      "hit": false,
      "t": 181529.5128541673,
      "d": 237.06810416668304,
      "v": 85
    },
    {
      "midi": 67,
      "hit": false,
      "t": 181788.1326041673,
      "d": 262.930079166661,
      "v": 90
    },
    {
      "midi": 60,
      "hit": false,
      "t": 181820.4600729173,
      "d": 1351.2881937500206,
      "v": 100
    },
    {
      "midi": 48,
      "hit": false,
      "t": 182057.52817708396,
      "d": 1351.2881937500206,
      "v": 119
    },
    {
      "midi": 67,
      "hit": false,
      "t": 182068.30400000064,
      "d": 1534.4771833333361,
      "v": 113
    },
    {
      "midi": 64,
      "hit": false,
      "t": 182072.61432916732,
      "d": 1060.3409749999992,
      "v": 111
    },
    {
      "midi": 43,
      "hit": false,
      "t": 183613.55700625066,
      "d": 1825.4244020833285,
      "v": 118
    },
    {
      "midi": 67,
      "hit": false,
      "t": 183613.55700625066,
      "d": 2306.026104166667,
      "v": 103
    },
    {
      "midi": 62,
      "hit": false,
      "t": 183613.55700625066,
      "d": 2316.8019270833465,
      "v": 104
    },
    {
      "midi": 59,
      "hit": false,
      "t": 183613.55700625066,
      "d": 2331.8880791666743,
      "v": 102
    },
    {
      "midi": 64,
      "hit": false,
      "t": 186163.11670833334,
      "d": 564.6531208333327,
      "v": 1
    },
    {
      "midi": 48,
      "hit": false,
      "t": 186195.444177084,
      "d": 327.5850166666787,
      "v": 102
    },
    {
      "midi": 55,
      "hit": false,
      "t": 186195.444177084,
      "d": 349.13666250000824,
      "v": 107
    },
    {
      "midi": 57,
      "hit": false,
      "t": 186712.683677084,
      "d": 316.8091937500285,
      "v": 110
    },
    {
      "midi": 62,
      "hit": false,
      "t": 186712.683677084,
      "d": 327.5850166667078,
      "v": 120
    },
    {
      "midi": 66,
      "hit": false,
      "t": 186712.683677084,
      "d": 344.8263333333889,
      "v": 126
    },
    {
      "midi": 50,
      "hit": false,
      "t": 186716.99400625066,
      "d": 295.25754791666986,
      "v": 96
    },
    {
      "midi": 65,
      "hit": false,
      "t": 186727.76982916667,
      "d": 506.46367708334583,
      "v": 1
    },
    {
      "midi": 69,
      "hit": false,
      "t": 187240.69900000002,
      "d": 499.99818333334406,
      "v": 1
    },
    {
      "midi": 53,
      "hit": false,
      "t": 187240.69900000072,
      "d": 129.3098750000063,
      "v": 100
    },
    {
      "midi": 60,
      "hit": false,
      "t": 187240.69900000072,
      "d": 140.0856979166856,
      "v": 125
    },
    {
      "midi": 66,
      "hit": false,
      "t": 187740.69718333337,
      "d": 2181.0265583333385,
      "v": 1
    },
    {
      "midi": 62,
      "hit": false,
      "t": 187757.93850000075,
      "d": 1706.8903500000015,
      "v": 101
    },
    {
      "midi": 66,
      "hit": false,
      "t": 187757.93850000075,
      "d": 1724.1316666666826,
      "v": 109
    },
    {
      "midi": 50,
      "hit": false,
      "t": 187762.24882916742,
      "d": 2252.146989583329,
      "v": 102
    },
    {
      "midi": 57,
      "hit": false,
      "t": 187762.24882916742,
      "d": 2252.146989583329,
      "v": 121
    },
    {
      "midi": 66,
      "hit": false,
      "t": 189572.58707916742,
      "d": 144.39602708333405,
      "v": 121
    },
    {
      "midi": 62,
      "hit": false,
      "t": 189572.58707916742,
      "d": 172.41316666666535,
      "v": 121
    },
    {
      "midi": 62,
      "hit": false,
      "t": 189820.43100625076,
      "d": 140.0856979166565,
      "v": 84
    },
    {
      "midi": 66,
      "hit": false,
      "t": 189820.43100625076,
      "d": 150.86152083333582,
      "v": 85
    },
    {
      "midi": 62,
      "hit": false,
      "t": 190074.7404270841,
      "d": 150.86152083333582,
      "v": 121
    },
    {
      "midi": 66,
      "hit": false,
      "t": 190074.7404270841,
      "d": 155.17185000001336,
      "v": 124
    },
    {
      "midi": 60,
      "hit": false,
      "t": 190096.29207291742,
      "d": 1351.2881937500497,
      "v": 101
    },
    {
      "midi": 48,
      "hit": false,
      "t": 190333.3601770841,
      "d": 1351.2881937500206,
      "v": 124
    },
    {
      "midi": 67,
      "hit": false,
      "t": 190344.13600000078,
      "d": 1077.5822916666802,
      "v": 113
    },
    {
      "midi": 64,
      "hit": false,
      "t": 190348.44632916746,
      "d": 1060.3409749999992,
      "v": 111
    },
    {
      "midi": 69,
      "hit": false,
      "t": 191867.8373604167,
      "d": 969.8240625000035,
      "v": 1
    },
    {
      "midi": 43,
      "hit": false,
      "t": 191889.3890062508,
      "d": 1825.4244020833285,
      "v": 118
    },
    {
      "midi": 67,
      "hit": false,
      "t": 191889.3890062508,
      "d": 2306.026104166667,
      "v": 103
    },
    {
      "midi": 62,
      "hit": false,
      "t": 191889.3890062508,
      "d": 2316.8019270833465,
      "v": 105
    },
    {
      "midi": 59,
      "hit": false,
      "t": 191889.3890062508,
      "d": 2331.8880791666743,
      "v": 101
    },
    {
      "midi": 67,
      "hit": false,
      "t": 192837.66142291672,
      "d": 732.7559583333496,
      "v": 1
    },
    {
      "midi": 65,
      "hit": false,
      "t": 193566.1070520834,
      "d": 219.82678750000196,
      "v": 1
    },
    {
      "midi": 62,
      "hit": false,
      "t": 193792.3993333334,
      "d": 672.4113500000094,
      "v": 1
    },
    {
      "midi": 64,
      "hit": false,
      "t": 194471.2761770834,
      "d": 596.9805895833415,
      "v": 1
    },
    {
      "midi": 48,
      "hit": false,
      "t": 194471.27617708413,
      "d": 327.5850166666787,
      "v": 95
    },
    {
      "midi": 55,
      "hit": false,
      "t": 194471.27617708413,
      "d": 349.13666250000824,
      "v": 111
    },
    {
      "midi": 57,
      "hit": false,
      "t": 194988.51567708413,
      "d": 316.8091937500285,
      "v": 106
    },
    {
      "midi": 62,
      "hit": false,
      "t": 194988.51567708413,
      "d": 327.5850166667078,
      "v": 126
    },
    {
      "midi": 66,
      "hit": false,
      "t": 194988.51567708413,
      "d": 344.8263333333889,
      "v": 127
    },
    {
      "midi": 65,
      "hit": false,
      "t": 194992.82600625008,
      "d": 517.239499999996,
      "v": 1
    },
    {
      "midi": 50,
      "hit": false,
      "t": 194992.8260062508,
      "d": 295.25754791666986,
      "v": 99
    },
    {
      "midi": 69,
      "hit": false,
      "t": 195516.53100000008,
      "d": 517.239499999996,
      "v": 1
    },
    {
      "midi": 53,
      "hit": false,
      "t": 195516.53100000086,
      "d": 129.3098750000063,
      "v": 98
    },
    {
      "midi": 60,
      "hit": false,
      "t": 195516.53100000086,
      "d": 140.0856979166856,
      "v": 125
    },
    {
      "midi": 66,
      "hit": false,
      "t": 196005.75336041674,
      "d": 4234.898406249995,
      "v": 1
    },
    {
      "midi": 62,
      "hit": false,
      "t": 196033.7705000009,
      "d": 1706.8903500000015,
      "v": 104
    },
    {
      "midi": 66,
      "hit": false,
      "t": 196033.7705000009,
      "d": 1724.1316666666826,
      "v": 108
    },
    {
      "midi": 50,
      "hit": false,
      "t": 196038.08082916756,
      "d": 2252.146989583329,
      "v": 107
    },
    {
      "midi": 57,
      "hit": false,
      "t": 196038.08082916756,
      "d": 2252.146989583329,
      "v": 117
    },
    {
      "midi": 64,
      "hit": false,
      "t": 200165.22100625007,
      "d": 4379.294433333329,
      "v": 1
    },
    {
      "midi": 72,
      "hit": false,
      "t": 206895.80000000002,
      "d": 484.9120312500163,
      "v": 120
    },
    {
      "midi": 60,
      "hit": false,
      "t": 206943.21362083335,
      "d": 484.9120312500163,
      "v": 124
    },
    {
      "midi": 71,
      "hit": false,
      "t": 207413.03950000004,
      "d": 463.36038541668677,
      "v": 113
    },
    {
      "midi": 59,
      "hit": false,
      "t": 207438.90147500005,
      "d": 463.36038541668677,
      "v": 120
    },
    {
      "midi": 67,
      "hit": false,
      "t": 207930.27900000007,
      "d": 543.1014750000322,
      "v": 120
    },
    {
      "midi": 55,
      "hit": false,
      "t": 207941.05482291675,
      "d": 543.1014750000322,
      "v": 123
    },
    {
      "midi": 69,
      "hit": false,
      "t": 208447.5185000001,
      "d": 959.0482395833533,
      "v": 118
    },
    {
      "midi": 57,
      "hit": false,
      "t": 208451.82882916677,
      "d": 963.3585687500017,
      "v": 119
    },
    {
      "midi": 53,
      "hit": false,
      "t": 209464.75618333343,
      "d": 1023.7031770833419,
      "v": 113
    },
    {
      "midi": 65,
      "hit": false,
      "t": 209481.9975000001,
      "d": 1023.7031770833419,
      "v": 116
    },
    {
      "midi": 55,
      "hit": false,
      "t": 210494.92485416678,
      "d": 478.44653750001453,
      "v": 118
    },
    {
      "midi": 67,
      "hit": false,
      "t": 210516.47650000014,
      "d": 474.136208333337,
      "v": 117
    },
    {
      "midi": 60,
      "hit": false,
      "t": 211001.38853125015,
      "d": 1038.7893291666696,
      "v": 118
    },
    {
      "midi": 72,
      "hit": false,
      "t": 211033.71600000016,
      "d": 1038.7893291666696,
      "v": 114
    },
    {
      "midi": 71,
      "hit": false,
      "t": 212068.19500000015,
      "d": 668.1010208333319,
      "v": 124
    },
    {
      "midi": 59,
      "hit": false,
      "t": 212068.19500000015,
      "d": 672.4113500000094,
      "v": 120
    },
    {
      "midi": 69,
      "hit": false,
      "t": 215171.6320000009,
      "d": 1017.2376833333401,
      "v": 124
    },
    {
      "midi": 74,
      "hit": false,
      "t": 215171.6320000009,
      "d": 1038.7893291666696,
      "v": 127
    },
    {
      "midi": 66,
      "hit": false,
      "t": 215171.6320000009,
      "d": 1060.3409749999992,
      "v": 127
    },
    {
      "midi": 57,
      "hit": false,
      "t": 215171.6320000009,
      "d": 1491.373891666677,
      "v": 107
    },
    {
      "midi": 54,
      "hit": false,
      "t": 216727.66082916755,
      "d": 1918.0964791666775,
      "v": 118
    },
    {
      "midi": 62,
      "hit": false,
      "t": 216727.66082916755,
      "d": 1918.0964791666775,
      "v": 126
    },
    {
      "midi": 57,
      "hit": false,
      "t": 216727.66082916755,
      "d": 1922.406808333355,
      "v": 121
    },
    {
      "midi": 66,
      "hit": false,
      "t": 218792.30850000092,
      "d": 528.0153229167045,
      "v": 127
    },
    {
      "midi": 69,
      "hit": false,
      "t": 218792.30850000092,
      "d": 532.325652083382,
      "v": 126
    },
    {
      "midi": 62,
      "hit": false,
      "t": 218792.30850000092,
      "d": 543.1014750000613,
      "v": 108
    },
    {
      "midi": 60,
      "hit": false,
      "t": 219298.77217708426,
      "d": 732.7559583333787,
      "v": 115
    },
    {
      "midi": 67,
      "hit": false,
      "t": 219298.77217708426,
      "d": 952.5827458333806,
      "v": 111
    },
    {
      "midi": 64,
      "hit": false,
      "t": 219298.77217708426,
      "d": 995.6860375000397,
      "v": 111
    },
    {
      "midi": 48,
      "hit": false,
      "t": 219303.08250625094,
      "d": 1469.8222458333767,
      "v": 111
    },
    {
      "midi": 55,
      "hit": false,
      "t": 220369.88897500097,
      "d": 456.894891666685,
      "v": 108
    },
    {
      "midi": 60,
      "hit": false,
      "t": 220369.88897500097,
      "d": 517.239499999996,
      "v": 122
    },
    {
      "midi": 64,
      "hit": false,
      "t": 220369.88897500097,
      "d": 528.0153229166754,
      "v": 122
    },
    {
      "midi": 43,
      "hit": false,
      "t": 220850.4906770843,
      "d": 2262.922812500008,
      "v": 102
    },
    {
      "midi": 59,
      "hit": false,
      "t": 220893.59396875097,
      "d": 1448.270600000018,
      "v": 126
    },
    {
      "midi": 62,
      "hit": false,
      "t": 220893.59396875097,
      "d": 1448.270600000018,
      "v": 124
    },
    {
      "midi": 55,
      "hit": false,
      "t": 220897.90429791764,
      "d": 1448.270600000018,
      "v": 112
    },
    {
      "midi": 62,
      "hit": false,
      "t": 222395.74368333432,
      "d": 495.6878541666665,
      "v": 120
    },
    {
      "midi": 59,
      "hit": false,
      "t": 222395.74368333432,
      "d": 543.1014750000031,
      "v": 127
    },
    {
      "midi": 55,
      "hit": false,
      "t": 222395.74368333432,
      "d": 564.6531208333327,
      "v": 118
    },
    {
      "midi": 67,
      "hit": false,
      "t": 222923.759006251,
      "d": 306.0333708333201,
      "v": 127
    },
    {
      "midi": 71,
      "hit": false,
      "t": 222923.759006251,
      "d": 306.0333708333201,
      "v": 125
    },
    {
      "midi": 62,
      "hit": false,
      "t": 222923.759006251,
      "d": 312.49886458332185,
      "v": 124
    },
    {
      "midi": 47,
      "hit": false,
      "t": 223188.84425000098,
      "d": 118.53405208332697,
      "v": 98
    },
    {
      "midi": 60,
      "hit": false,
      "t": 223425.91235416764,
      "d": 732.7559583333496,
      "v": 119
    },
    {
      "midi": 67,
      "hit": false,
      "t": 223425.91235416764,
      "d": 952.5827458333515,
      "v": 113
    },
    {
      "midi": 64,
      "hit": false,
      "t": 223425.91235416764,
      "d": 995.6860375000106,
      "v": 113
    },
    {
      "midi": 48,
      "hit": false,
      "t": 223430.22268333432,
      "d": 1469.8222458333476,
      "v": 111
    },
    {
      "midi": 55,
      "hit": false,
      "t": 224497.02915208432,
      "d": 456.894891666685,
      "v": 108
    },
    {
      "midi": 60,
      "hit": false,
      "t": 224497.02915208432,
      "d": 517.239499999996,
      "v": 120
    },
    {
      "midi": 64,
      "hit": false,
      "t": 224497.02915208432,
      "d": 528.0153229166754,
      "v": 124
    },
    {
      "midi": 43,
      "hit": false,
      "t": 224977.63085416766,
      "d": 2262.922812499979,
      "v": 101
    },
    {
      "midi": 59,
      "hit": false,
      "t": 225020.7341458343,
      "d": 1383.6156625000003,
      "v": 125
    },
    {
      "midi": 62,
      "hit": false,
      "t": 225020.7341458343,
      "d": 1448.270599999989,
      "v": 126
    },
    {
      "midi": 55,
      "hit": false,
      "t": 225025.044475001,
      "d": 1448.270599999989,
      "v": 112
    },
    {
      "midi": 62,
      "hit": false,
      "t": 226522.88386041764,
      "d": 219.82678750000196,
      "v": 123
    },
    {
      "midi": 59,
      "hit": false,
      "t": 226522.88386041764,
      "d": 262.930079166661,
      "v": 127
    },
    {
      "midi": 55,
      "hit": false,
      "t": 226522.88386041764,
      "d": 489.22236041666474,
      "v": 114
    },
    {
      "midi": 62,
      "hit": false,
      "t": 226792.2794333343,
      "d": 435.34324583332636,
      "v": 117
    },
    {
      "midi": 67,
      "hit": false,
      "t": 226792.2794333343,
      "d": 435.34324583332636,
      "v": 119
    },
    {
      "midi": 71,
      "hit": false,
      "t": 226792.2794333343,
      "d": 456.8948916666559,
      "v": 115
    },
    {
      "midi": 38,
      "hit": false,
      "t": 227320.29475625095,
      "d": 144.39602708333405,
      "v": 99
    },
    {
      "midi": 62,
      "hit": false,
      "t": 227320.29475625095,
      "d": 176.7234958333429,
      "v": 104
    },
    {
      "midi": 67,
      "hit": false,
      "t": 227320.29475625095,
      "d": 273.70590208334033,
      "v": 117
    },
    {
      "midi": 71,
      "hit": false,
      "t": 227320.29475625095,
      "d": 284.48172500001965,
      "v": 117
    },
    {
      "midi": 59,
      "hit": false,
      "t": 227568.13868333428,
      "d": 183.18898958334466,
      "v": 121
    },
    {
      "midi": 62,
      "hit": false,
      "t": 227568.13868333428,
      "d": 193.96481250002398,
      "v": 118
    },
    {
      "midi": 55,
      "hit": false,
      "t": 227568.13868333428,
      "d": 204.7406354167033,
      "v": 111
    },
    {
      "midi": 43,
      "hit": false,
      "t": 227578.91450625096,
      "d": 219.82678750003106,
      "v": 122
    },
    {
      "midi": 57,
      "hit": false,
      "t": 228091.84367708434,
      "d": 344.8263333333307,
      "v": 127
    },
    {
      "midi": 53,
      "hit": false,
      "t": 228091.84367708434,
      "d": 355.60215625001,
      "v": 125
    },
    {
      "midi": 60,
      "hit": false,
      "t": 228091.84367708434,
      "d": 359.91248541668756,
      "v": 123
    },
    {
      "midi": 41,
      "hit": false,
      "t": 228096.15400625102,
      "d": 829.738364583347,
      "v": 126
    },
    {
      "midi": 50,
      "hit": false,
      "t": 229126.32267708436,
      "d": 2040.940860416682,
      "v": 126
    },
    {
      "midi": 57,
      "hit": false,
      "t": 229130.63300625104,
      "d": 2008.6133916666731,
      "v": 117
    },
    {
      "midi": 62,
      "hit": false,
      "t": 229130.63300625104,
      "d": 2295.250281250017,
      "v": 127
    },
    {
      "midi": 66,
      "hit": false,
      "t": 229130.63300625104,
      "d": 2299.5606104166945,
      "v": 125
    },
    {
      "midi": 57,
      "hit": false,
      "t": 231199.59100625105,
      "d": 499.99818333334406,
      "v": 104
    },
    {
      "midi": 48,
      "hit": false,
      "t": 231479.7624020844,
      "d": 193.96481249999488,
      "v": 89
    },
    {
      "midi": 69,
      "hit": false,
      "t": 231723.29600000105,
      "d": 1017.2376833333401,
      "v": 120
    },
    {
      "midi": 74,
      "hit": false,
      "t": 231723.29600000105,
      "d": 1038.7893291666696,
      "v": 127
    },
    {
      "midi": 66,
      "hit": false,
      "t": 231723.29600000105,
      "d": 1060.3409749999992,
      "v": 124
    },
    {
      "midi": 57,
      "hit": false,
      "t": 231723.29600000105,
      "d": 1491.373891666677,
      "v": 107
    },
    {
      "midi": 54,
      "hit": false,
      "t": 233279.32482916772,
      "d": 1918.0964791666775,
      "v": 121
    },
    {
      "midi": 62,
      "hit": false,
      "t": 233279.32482916772,
      "d": 1918.0964791666775,
      "v": 124
    },
    {
      "midi": 57,
      "hit": false,
      "t": 233279.32482916772,
      "d": 1922.406808333355,
      "v": 118
    },
    {
      "midi": 66,
      "hit": false,
      "t": 235343.97250000108,
      "d": 528.0153229167045,
      "v": 122
    },
    {
      "midi": 69,
      "hit": false,
      "t": 235343.97250000108,
      "d": 532.325652083382,
      "v": 127
    },
    {
      "midi": 62,
      "hit": false,
      "t": 235343.97250000108,
      "d": 543.1014750000613,
      "v": 104
    },
    {
      "midi": 60,
      "hit": false,
      "t": 235850.43617708443,
      "d": 732.7559583333787,
      "v": 118
    },
    {
      "midi": 67,
      "hit": false,
      "t": 235850.43617708443,
      "d": 952.5827458333806,
      "v": 110
    },
    {
      "midi": 64,
      "hit": false,
      "t": 235850.43617708443,
      "d": 995.6860375000397,
      "v": 117
    },
    {
      "midi": 48,
      "hit": false,
      "t": 235854.7465062511,
      "d": 1469.8222458333767,
      "v": 114
    },
    {
      "midi": 55,
      "hit": false,
      "t": 236921.55297500113,
      "d": 456.894891666685,
      "v": 107
    },
    {
      "midi": 60,
      "hit": false,
      "t": 236921.55297500113,
      "d": 517.239499999996,
      "v": 120
    },
    {
      "midi": 64,
      "hit": false,
      "t": 236921.55297500113,
      "d": 528.0153229166754,
      "v": 119
    },
    {
      "midi": 43,
      "hit": false,
      "t": 237402.15467708447,
      "d": 2262.922812500008,
      "v": 106
    },
    {
      "midi": 59,
      "hit": false,
      "t": 237445.25796875113,
      "d": 1448.270600000018,
      "v": 122
    },
    {
      "midi": 62,
      "hit": false,
      "t": 237445.25796875113,
      "d": 1448.270600000018,
      "v": 120
    },
    {
      "midi": 55,
      "hit": false,
      "t": 237449.5682979178,
      "d": 1448.270600000018,
      "v": 113
    },
    {
      "midi": 62,
      "hit": false,
      "t": 238947.4076833345,
      "d": 495.6878541666665,
      "v": 127
    },
    {
      "midi": 59,
      "hit": false,
      "t": 238947.4076833345,
      "d": 543.1014750000031,
      "v": 127
    },
    {
      "midi": 55,
      "hit": false,
      "t": 238947.4076833345,
      "d": 564.6531208333327,
      "v": 118
    },
    {
      "midi": 67,
      "hit": false,
      "t": 239475.42300625116,
      "d": 306.0333708333201,
      "v": 126
    },
    {
      "midi": 71,
      "hit": false,
      "t": 239475.42300625116,
      "d": 306.0333708333201,
      "v": 123
    },
    {
      "midi": 62,
      "hit": false,
      "t": 239475.42300625116,
      "d": 312.49886458332185,
      "v": 121
    },
    {
      "midi": 47,
      "hit": false,
      "t": 239740.50825000115,
      "d": 118.53405208332697,
      "v": 103
    },
    {
      "midi": 60,
      "hit": false,
      "t": 239977.5763541678,
      "d": 732.7559583333496,
      "v": 121
    },
    {
      "midi": 67,
      "hit": false,
      "t": 239977.5763541678,
      "d": 952.5827458333515,
      "v": 112
    },
    {
      "midi": 64,
      "hit": false,
      "t": 239977.5763541678,
      "d": 995.6860375000106,
      "v": 111
    },
    {
      "midi": 48,
      "hit": false,
      "t": 239981.88668333448,
      "d": 1469.8222458333476,
      "v": 116
    },
    {
      "midi": 55,
      "hit": false,
      "t": 241048.69315208448,
      "d": 456.894891666685,
      "v": 114
    },
    {
      "midi": 60,
      "hit": false,
      "t": 241048.69315208448,
      "d": 517.239499999996,
      "v": 125
    },
    {
      "midi": 64,
      "hit": false,
      "t": 241048.69315208448,
      "d": 528.0153229166754,
      "v": 124
    },
    {
      "midi": 43,
      "hit": false,
      "t": 241529.29485416782,
      "d": 2262.922812499979,
      "v": 107
    },
    {
      "midi": 59,
      "hit": false,
      "t": 241572.39814583448,
      "d": 1383.6156625000003,
      "v": 127
    },
    {
      "midi": 62,
      "hit": false,
      "t": 241572.39814583448,
      "d": 1448.270599999989,
      "v": 120
    },
    {
      "midi": 55,
      "hit": false,
      "t": 241576.70847500116,
      "d": 1448.270599999989,
      "v": 111
    },
    {
      "midi": 62,
      "hit": false,
      "t": 243074.5478604178,
      "d": 219.82678750000196,
      "v": 121
    },
    {
      "midi": 59,
      "hit": false,
      "t": 243074.5478604178,
      "d": 262.930079166661,
      "v": 127
    },
    {
      "midi": 55,
      "hit": false,
      "t": 243074.5478604178,
      "d": 489.22236041666474,
      "v": 115
    },
    {
      "midi": 62,
      "hit": false,
      "t": 243343.94343333447,
      "d": 435.34324583332636,
      "v": 119
    },
    {
      "midi": 67,
      "hit": false,
      "t": 243343.94343333447,
      "d": 435.34324583332636,
      "v": 121
    },
    {
      "midi": 71,
      "hit": false,
      "t": 243343.94343333447,
      "d": 456.8948916666559,
      "v": 116
    },
    {
      "midi": 38,
      "hit": false,
      "t": 243871.95875625112,
      "d": 144.39602708333405,
      "v": 98
    },
    {
      "midi": 62,
      "hit": false,
      "t": 243871.95875625112,
      "d": 176.7234958333429,
      "v": 108
    },
    {
      "midi": 67,
      "hit": false,
      "t": 243871.95875625112,
      "d": 273.70590208334033,
      "v": 111
    },
    {
      "midi": 71,
      "hit": false,
      "t": 243871.95875625112,
      "d": 284.48172500001965,
      "v": 119
    },
    {
      "midi": 59,
      "hit": false,
      "t": 244119.80268333445,
      "d": 183.18898958334466,
      "v": 119
    },
    {
      "midi": 62,
      "hit": false,
      "t": 244119.80268333445,
      "d": 193.96481250002398,
      "v": 118
    },
    {
      "midi": 55,
      "hit": false,
      "t": 244119.80268333445,
      "d": 204.7406354167033,
      "v": 107
    },
    {
      "midi": 43,
      "hit": false,
      "t": 244130.57850625113,
      "d": 219.82678750003106,
      "v": 121
    },
    {
      "midi": 57,
      "hit": false,
      "t": 244643.5076770845,
      "d": 344.8263333333307,
      "v": 126
    },
    {
      "midi": 53,
      "hit": false,
      "t": 244643.5076770845,
      "d": 355.60215625001,
      "v": 127
    },
    {
      "midi": 60,
      "hit": false,
      "t": 244643.5076770845,
      "d": 359.91248541668756,
      "v": 125
    },
    {
      "midi": 41,
      "hit": false,
      "t": 244647.81800625118,
      "d": 829.738364583347,
      "v": 127
    },
    {
      "midi": 50,
      "hit": false,
      "t": 245677.98667708453,
      "d": 2040.940860416682,
      "v": 123
    },
    {
      "midi": 57,
      "hit": false,
      "t": 245682.2970062512,
      "d": 2008.6133916666731,
      "v": 119
    },
    {
      "midi": 62,
      "hit": false,
      "t": 245682.2970062512,
      "d": 2295.250281250017,
      "v": 127
    },
    {
      "midi": 66,
      "hit": false,
      "t": 245682.2970062512,
      "d": 2299.5606104166945,
      "v": 120
    },
    {
      "midi": 57,
      "hit": false,
      "t": 247751.25500625122,
      "d": 122.84438125000452,
      "v": 96
    },
    {
      "midi": 60,
      "hit": false,
      "t": 248027.1160729179,
      "d": 1487.0635624999995,
      "v": 100
    },
    {
      "midi": 48,
      "hit": false,
      "t": 248031.4264020846,
      "d": 122.84438125000452,
      "v": 90
    },
    {
      "midi": 64,
      "hit": false,
      "t": 248268.49450625127,
      "d": 1221.9783187499852,
      "v": 119
    },
    {
      "midi": 67,
      "hit": false,
      "t": 248268.49450625127,
      "d": 1243.5299645833147,
      "v": 123
    },
    {
      "midi": 48,
      "hit": false,
      "t": 248274.96000000127,
      "d": 1368.5295104166435,
      "v": 127
    },
    {
      "midi": 76,
      "hit": false,
      "t": 249076.68122500126,
      "d": 230.60261041665217,
      "v": 103
    },
    {
      "midi": 79,
      "hit": false,
      "t": 249335.30097500124,
      "d": 247.84392708333326,
      "v": 117
    },
    {
      "midi": 76,
      "hit": false,
      "t": 249589.61039583458,
      "d": 230.60261041668127,
      "v": 102
    },
    {
      "midi": 74,
      "hit": false,
      "t": 249826.67850000126,
      "d": 797.4108958333672,
      "v": 88
    },
    {
      "midi": 43,
      "hit": false,
      "t": 249830.98882916794,
      "d": 2084.04415208337,
      "v": 121
    },
    {
      "midi": 67,
      "hit": false,
      "t": 249841.76465208462,
      "d": 1728.441995833331,
      "v": 101
    },
    {
      "midi": 62,
      "hit": false,
      "t": 249841.76465208462,
      "d": 2058.182177083334,
      "v": 111
    },
    {
      "midi": 59,
      "hit": false,
      "t": 249841.76465208462,
      "d": 2079.7338229166926,
      "v": 100
    },
    {
      "midi": 71,
      "hit": false,
      "t": 250613.31357291795,
      "d": 198.27514166667243,
      "v": 105
    },
    {
      "midi": 71,
      "hit": false,
      "t": 250861.15750000128,
      "d": 112.0685583333252,
      "v": 101
    },
    {
      "midi": 71,
      "hit": false,
      "t": 251109.00142708461,
      "d": 241.3784333333315,
      "v": 97
    },
    {
      "midi": 69,
      "hit": false,
      "t": 251382.70732916796,
      "d": 215.5164583333244,
      "v": 99
    },
    {
      "midi": 67,
      "hit": false,
      "t": 251626.2409270846,
      "d": 284.48172500001965,
      "v": 99
    },
    {
      "midi": 65,
      "hit": false,
      "t": 251884.8606770834,
      "d": 495.6878541666665,
      "v": 1
    },
    {
      "midi": 66,
      "hit": false,
      "t": 251895.63650000127,
      "d": 161.63734375004424,
      "v": 94
    },
    {
      "midi": 67,
      "hit": false,
      "t": 252121.9287812513,
      "d": 172.41316666666535,
      "v": 90
    },
    {
      "midi": 48,
      "hit": false,
      "t": 252154.25625000132,
      "d": 284.48172499999055,
      "v": 91
    },
    {
      "midi": 72,
      "hit": false,
      "t": 252384.85886041675,
      "d": 273.70590208334033,
      "v": 1
    },
    {
      "midi": 53,
      "hit": false,
      "t": 252412.8760000013,
      "d": 1293.0987500000047,
      "v": 117
    },
    {
      "midi": 60,
      "hit": false,
      "t": 252423.65182291798,
      "d": 1163.7888749999984,
      "v": 110
    },
    {
      "midi": 65,
      "hit": false,
      "t": 252423.65182291798,
      "d": 1163.7888749999984,
      "v": 113
    },
    {
      "midi": 57,
      "hit": false,
      "t": 252423.65182291798,
      "d": 1189.6508500000054,
      "v": 101
    },
    {
      "midi": 71,
      "hit": false,
      "t": 252665.0302562501,
      "d": 528.0153229166754,
      "v": 1
    },
    {
      "midi": 69,
      "hit": false,
      "t": 253199.51107291676,
      "d": 506.46367708334583,
      "v": 1
    },
    {
      "midi": 71,
      "hit": false,
      "t": 253688.73343333343,
      "d": 532.3256520833529,
      "v": 1
    },
    {
      "midi": 57,
      "hit": false,
      "t": 253953.81867708464,
      "d": 2234.905672916735,
      "v": 93
    },
    {
      "midi": 50,
      "hit": false,
      "t": 253953.81867708464,
      "d": 2321.1122562500823,
      "v": 127
    },
    {
      "midi": 62,
      "hit": false,
      "t": 253958.1290062513,
      "d": 2198.2678750000487,
      "v": 110
    },
    {
      "midi": 66,
      "hit": false,
      "t": 253958.1290062513,
      "d": 2198.2678750000487,
      "v": 108
    },
    {
      "midi": 69,
      "hit": false,
      "t": 254227.52457916678,
      "d": 1540.942677083338,
      "v": 1
    },
    {
      "midi": 79,
      "hit": false,
      "t": 254723.21243333464,
      "d": 101.29273541667499,
      "v": 104
    },
    {
      "midi": 79,
      "hit": false,
      "t": 254988.29767708466,
      "d": 176.7234958333429,
      "v": 102
    },
    {
      "midi": 79,
      "hit": false,
      "t": 255218.90028750134,
      "d": 1006.4618604166899,
      "v": 92
    },
    {
      "midi": 78,
      "hit": false,
      "t": 255477.52003750135,
      "d": 747.8421104166773,
      "v": 89
    },
    {
      "midi": 74,
      "hit": false,
      "t": 255736.13978750136,
      "d": 499.99818333334406,
      "v": 88
    },
    {
      "midi": 69,
      "hit": false,
      "t": 256012.00085416803,
      "d": 237.06810416668304,
      "v": 88
    },
    {
      "midi": 67,
      "hit": false,
      "t": 256270.62060416804,
      "d": 262.930079166661,
      "v": 89
    },
    {
      "midi": 60,
      "hit": false,
      "t": 256302.94807291805,
      "d": 1351.2881937500206,
      "v": 97
    },
    {
      "midi": 48,
      "hit": false,
      "t": 256540.0161770847,
      "d": 1351.2881937500206,
      "v": 118
    },
    {
      "midi": 67,
      "hit": false,
      "t": 256550.79200000138,
      "d": 1534.4771833333361,
      "v": 117
    },
    {
      "midi": 64,
      "hit": false,
      "t": 256555.10232916806,
      "d": 1060.3409749999992,
      "v": 109
    },
    {
      "midi": 43,
      "hit": false,
      "t": 258096.0450062514,
      "d": 1825.4244020833285,
      "v": 124
    },
    {
      "midi": 67,
      "hit": false,
      "t": 258096.0450062514,
      "d": 2306.026104166667,
      "v": 98
    },
    {
      "midi": 62,
      "hit": false,
      "t": 258096.0450062514,
      "d": 2316.8019270833465,
      "v": 100
    },
    {
      "midi": 59,
      "hit": false,
      "t": 258096.0450062514,
      "d": 2331.8880791666743,
      "v": 103
    },
    {
      "midi": 64,
      "hit": false,
      "t": 260671.46668333345,
      "d": 528.0153229166754,
      "v": 1
    },
    {
      "midi": 65,
      "hit": false,
      "t": 261205.94750000013,
      "d": 549.5669687500049,
      "v": 1
    },
    {
      "midi": 69,
      "hit": false,
      "t": 261712.41117708347,
      "d": 495.6878541666374,
      "v": 1
    },
    {
      "midi": 66,
      "hit": false,
      "t": 262208.0990312501,
      "d": 2870.679225000029,
      "v": 1
    },
    {
      "midi": 86,
      "hit": false,
      "t": 266895.5820000014,
      "d": 1017.2376833333401,
      "v": 113
    },
    {
      "midi": 78,
      "hit": false,
      "t": 266895.5820000014,
      "d": 1038.7893291666987,
      "v": 116
    },
    {
      "midi": 81,
      "hit": false,
      "t": 266895.5820000014,
      "d": 1060.3409750000574,
      "v": 114
    },
    {
      "midi": 74,
      "hit": false,
      "t": 266895.5820000014,
      "d": 1491.3738916667062,
      "v": 96
    },
    {
      "midi": 78,
      "hit": false,
      "t": 268451.6108291681,
      "d": 1918.0964791666484,
      "v": 109
    },
    {
      "midi": 86,
      "hit": false,
      "t": 268451.6108291681,
      "d": 1918.0964791666484,
      "v": 121
    },
    {
      "midi": 81,
      "hit": false,
      "t": 268451.6108291681,
      "d": 1922.4068083332968,
      "v": 110
    },
    {
      "midi": 78,
      "hit": false,
      "t": 270516.2585000014,
      "d": 528.0153229166172,
      "v": 116
    },
    {
      "midi": 81,
      "hit": false,
      "t": 270516.2585000014,
      "d": 532.3256520832656,
      "v": 121
    },
    {
      "midi": 74,
      "hit": false,
      "t": 270516.2585000014,
      "d": 543.1014749999158,
      "v": 94
    },
    {
      "midi": 72,
      "hit": false,
      "t": 271022.7221770847,
      "d": 732.7559583332622,
      "v": 108
    },
    {
      "midi": 79,
      "hit": false,
      "t": 271022.7221770847,
      "d": 952.5827458332642,
      "v": 101
    },
    {
      "midi": 76,
      "hit": false,
      "t": 271022.7221770847,
      "d": 995.6860374999233,
      "v": 103
    },
    {
      "midi": 60,
      "hit": false,
      "t": 271027.03250625136,
      "d": 1469.8222458332893,
      "v": 101
    },
    {
      "midi": 67,
      "hit": false,
      "t": 272093.8389750013,
      "d": 456.8948916666559,
      "v": 97
    },
    {
      "midi": 72,
      "hit": false,
      "t": 272093.8389750013,
      "d": 517.2394999999669,
      "v": 116
    },
    {
      "midi": 76,
      "hit": false,
      "t": 272093.8389750013,
      "d": 528.0153229166172,
      "v": 110
    },
    {
      "midi": 55,
      "hit": false,
      "t": 272574.4406770846,
      "d": 2262.9228125000373,
      "v": 98
    },
    {
      "midi": 74,
      "hit": false,
      "t": 272617.54396875127,
      "d": 1448.270599999989,
      "v": 116
    },
    {
      "midi": 71,
      "hit": false,
      "t": 272617.54396875127,
      "d": 1487.0635624999995,
      "v": 112
    },
    {
      "midi": 67,
      "hit": false,
      "t": 272621.8542979179,
      "d": 1480.5980687499978,
      "v": 106
    },
    {
      "midi": 67,
      "hit": false,
      "t": 274119.6936833346,
      "d": 4.310329166648444,
      "v": 111
    },
    {
      "midi": 74,
      "hit": false,
      "t": 274119.6936833346,
      "d": 495.6878541666665,
      "v": 110
    },
    {
      "midi": 71,
      "hit": false,
      "t": 274119.6936833346,
      "d": 2612.059474999958,
      "v": 119
    },
    {
      "midi": 79,
      "hit": false,
      "t": 274647.7090062513,
      "d": 306.0333708333201,
      "v": 114
    },
    {
      "midi": 83,
      "hit": false,
      "t": 274647.7090062513,
      "d": 306.0333708333201,
      "v": 116
    },
    {
      "midi": 74,
      "hit": false,
      "t": 274647.7090062513,
      "d": 312.49886458332185,
      "v": 116
    },
    {
      "midi": 59,
      "hit": false,
      "t": 274912.7942500013,
      "d": 118.53405208332697,
      "v": 91
    },
    {
      "midi": 72,
      "hit": false,
      "t": 275149.86235416797,
      "d": 732.7559583333205,
      "v": 109
    },
    {
      "midi": 79,
      "hit": false,
      "t": 275149.86235416797,
      "d": 952.5827458333224,
      "v": 106
    },
    {
      "midi": 76,
      "hit": false,
      "t": 275149.86235416797,
      "d": 995.6860374999815,
      "v": 103
    },
    {
      "midi": 60,
      "hit": false,
      "t": 275154.1726833346,
      "d": 1469.8222458333476,
      "v": 108
    },
    {
      "midi": 67,
      "hit": false,
      "t": 276220.9791520846,
      "d": 456.8948916666559,
      "v": 98
    },
    {
      "midi": 72,
      "hit": false,
      "t": 276220.9791520846,
      "d": 517.2394999999669,
      "v": 111
    },
    {
      "midi": 76,
      "hit": false,
      "t": 276220.9791520846,
      "d": 528.0153229166172,
      "v": 108
    },
    {
      "midi": 55,
      "hit": false,
      "t": 276701.5808541679,
      "d": 2262.922812499979,
      "v": 93
    },
    {
      "midi": 71,
      "hit": false,
      "t": 276744.6841458346,
      "d": 1383.6156624999712,
      "v": 116
    },
    {
      "midi": 74,
      "hit": false,
      "t": 276744.6841458346,
      "d": 1448.270599999989,
      "v": 113
    },
    {
      "midi": 67,
      "hit": false,
      "t": 276748.99447500124,
      "d": 1448.270599999989,
      "v": 108
    },
    {
      "midi": 74,
      "hit": false,
      "t": 278246.8338604179,
      "d": 219.82678750000196,
      "v": 114
    },
    {
      "midi": 71,
      "hit": false,
      "t": 278246.8338604179,
      "d": 262.930079166661,
      "v": 120
    },
    {
      "midi": 67,
      "hit": false,
      "t": 278246.8338604179,
      "d": 489.22236041666474,
      "v": 105
    },
    {
      "midi": 74,
      "hit": false,
      "t": 278516.22943333455,
      "d": 435.34324583335547,
      "v": 106
    },
    {
      "midi": 79,
      "hit": false,
      "t": 278516.22943333455,
      "d": 435.34324583335547,
      "v": 110
    },
    {
      "midi": 83,
      "hit": false,
      "t": 278516.22943333455,
      "d": 456.8948916667141,
      "v": 106
    },
    {
      "midi": 50,
      "hit": false,
      "t": 279044.2447562513,
      "d": 144.39602708333405,
      "v": 92
    },
    {
      "midi": 74,
      "hit": false,
      "t": 279044.2447562513,
      "d": 176.7234958333429,
      "v": 94
    },
    {
      "midi": 79,
      "hit": false,
      "t": 279044.2447562513,
      "d": 273.70590208336944,
      "v": 105
    },
    {
      "midi": 83,
      "hit": false,
      "t": 279044.2447562513,
      "d": 284.48172500001965,
      "v": 108
    },
    {
      "midi": 71,
      "hit": false,
      "t": 279292.08868333464,
      "d": 183.18898958334466,
      "v": 112
    },
    {
      "midi": 74,
      "hit": false,
      "t": 279292.08868333464,
      "d": 193.96481249999488,
      "v": 107
    },
    {
      "midi": 67,
      "hit": false,
      "t": 279292.08868333464,
      "d": 204.7406354166451,
      "v": 101
    },
    {
      "midi": 55,
      "hit": false,
      "t": 279302.8645062513,
      "d": 219.82678750000196,
      "v": 111
    },
    {
      "midi": 69,
      "hit": false,
      "t": 279815.7936770846,
      "d": 344.8263333333307,
      "v": 115
    },
    {
      "midi": 65,
      "hit": false,
      "t": 279815.7936770846,
      "d": 355.6021562499809,
      "v": 118
    },
    {
      "midi": 72,
      "hit": false,
      "t": 279815.7936770846,
      "d": 359.91248541662935,
      "v": 120
    },
    {
      "midi": 53,
      "hit": false,
      "t": 279820.10400625126,
      "d": 829.7383645832888,
      "v": 113
    },
    {
      "midi": 62,
      "hit": false,
      "t": 280850.27267708455,
      "d": 2040.940860416682,
      "v": 111
    },
    {
      "midi": 69,
      "hit": false,
      "t": 280854.5830062512,
      "d": 2008.6133916666731,
      "v": 106
    },
    {
      "midi": 74,
      "hit": false,
      "t": 280854.5830062512,
      "d": 2295.250281250046,
      "v": 115
    },
    {
      "midi": 78,
      "hit": false,
      "t": 280854.5830062512,
      "d": 2299.5606104166945,
      "v": 111
    },
    {
      "midi": 69,
      "hit": false,
      "t": 282923.54100625124,
      "d": 499.99818333331496,
      "v": 90
    },
    {
      "midi": 60,
      "hit": false,
      "t": 283203.71240208455,
      "d": 193.96481249999488,
      "v": 78
    },
    {
      "midi": 81,
      "hit": false,
      "t": 283447.2460000012,
      "d": 1017.2376833333401,
      "v": 114
    },
    {
      "midi": 86,
      "hit": false,
      "t": 283447.2460000012,
      "d": 1038.7893291666987,
      "v": 123
    },
    {
      "midi": 78,
      "hit": false,
      "t": 283447.2460000012,
      "d": 1060.3409750000574,
      "v": 117
    },
    {
      "midi": 69,
      "hit": false,
      "t": 283447.2460000012,
      "d": 1491.3738916667062,
      "v": 100
    },
    {
      "midi": 66,
      "hit": false,
      "t": 285003.27482916793,
      "d": 1918.0964791666484,
      "v": 111
    },
    {
      "midi": 74,
      "hit": false,
      "t": 285003.27482916793,
      "d": 1918.0964791666484,
      "v": 121
    },
    {
      "midi": 69,
      "hit": false,
      "t": 285003.27482916793,
      "d": 1922.4068083332968,
      "v": 115
    },
    {
      "midi": 78,
      "hit": false,
      "t": 287067.9225000012,
      "d": 528.0153229166172,
      "v": 114
    },
    {
      "midi": 81,
      "hit": false,
      "t": 287067.9225000012,
      "d": 532.3256520832656,
      "v": 118
    },
    {
      "midi": 74,
      "hit": false,
      "t": 287067.9225000012,
      "d": 543.1014749999158,
      "v": 96
    },
    {
      "midi": 72,
      "hit": false,
      "t": 287574.3861770845,
      "d": 732.7559583332622,
      "v": 111
    },
    {
      "midi": 79,
      "hit": false,
      "t": 287574.3861770845,
      "d": 952.5827458332642,
      "v": 104
    },
    {
      "midi": 76,
      "hit": false,
      "t": 287574.3861770845,
      "d": 995.6860374999233,
      "v": 100
    },
    {
      "midi": 60,
      "hit": false,
      "t": 287578.6965062512,
      "d": 1469.8222458332893,
      "v": 103
    },
    {
      "midi": 67,
      "hit": false,
      "t": 288645.5029750011,
      "d": 456.8948916666559,
      "v": 100
    },
    {
      "midi": 72,
      "hit": false,
      "t": 288645.5029750011,
      "d": 517.2394999999669,
      "v": 116
    },
    {
      "midi": 76,
      "hit": false,
      "t": 288645.5029750011,
      "d": 528.0153229166172,
      "v": 113
    },
    {
      "midi": 55,
      "hit": false,
      "t": 289126.1046770844,
      "d": 2262.9228125000373,
      "v": 95
    },
    {
      "midi": 74,
      "hit": false,
      "t": 289169.2079687511,
      "d": 1448.270599999989,
      "v": 113
    },
    {
      "midi": 71,
      "hit": false,
      "t": 289169.2079687511,
      "d": 1487.0635624999995,
      "v": 118
    },
    {
      "midi": 67,
      "hit": false,
      "t": 289173.51829791773,
      "d": 1480.5980687499978,
      "v": 102
    },
    {
      "midi": 67,
      "hit": false,
      "t": 290671.35768333444,
      "d": 4.310329166648444,
      "v": 106
    },
    {
      "midi": 74,
      "hit": false,
      "t": 290671.35768333444,
      "d": 495.6878541666665,
      "v": 110
    },
    {
      "midi": 71,
      "hit": false,
      "t": 290671.35768333444,
      "d": 2612.059474999958,
      "v": 123
    },
    {
      "midi": 79,
      "hit": false,
      "t": 291199.3730062511,
      "d": 306.0333708333201,
      "v": 113
    },
    {
      "midi": 83,
      "hit": false,
      "t": 291199.3730062511,
      "d": 306.0333708333201,
      "v": 111
    },
    {
      "midi": 74,
      "hit": false,
      "t": 291199.3730062511,
      "d": 312.49886458332185,
      "v": 112
    },
    {
      "midi": 71,
      "hit": false,
      "t": 291464.45825000014,
      "d": 295.25754791666986,
      "v": 1
    },
    {
      "midi": 59,
      "hit": false,
      "t": 291464.45825000113,
      "d": 118.53405208332697,
      "v": 87
    },
    {
      "midi": 72,
      "hit": false,
      "t": 291701.5263541678,
      "d": 732.7559583333205,
      "v": 104
    },
    {
      "midi": 79,
      "hit": false,
      "t": 291701.5263541678,
      "d": 952.5827458333224,
      "v": 101
    },
    {
      "midi": 76,
      "hit": false,
      "t": 291701.5263541678,
      "d": 995.6860374999815,
      "v": 105
    },
    {
      "midi": 60,
      "hit": false,
      "t": 291705.83668333443,
      "d": 1469.8222458333476,
      "v": 104
    },
    {
      "midi": 72,
      "hit": false,
      "t": 291766.1812916668,
      "d": 474.1362083333079,
      "v": 1
    },
    {
      "midi": 71,
      "hit": false,
      "t": 292244.62782916677,
      "d": 247.84392708336236,
      "v": 1
    },
    {
      "midi": 72,
      "hit": false,
      "t": 292498.93725000013,
      "d": 506.4636770833167,
      "v": 1
    },
    {
      "midi": 67,
      "hit": false,
      "t": 292772.64315208443,
      "d": 456.8948916666559,
      "v": 99
    },
    {
      "midi": 72,
      "hit": false,
      "t": 292772.64315208443,
      "d": 517.2394999999669,
      "v": 111
    },
    {
      "midi": 76,
      "hit": false,
      "t": 292772.64315208443,
      "d": 528.0153229166172,
      "v": 110
    },
    {
      "midi": 71,
      "hit": false,
      "t": 293009.7112562501,
      "d": 258.6197500000126,
      "v": 1
    },
    {
      "midi": 55,
      "hit": false,
      "t": 293253.24485416774,
      "d": 2262.922812499979,
      "v": 95
    },
    {
      "midi": 74,
      "hit": false,
      "t": 293274.7965000001,
      "d": 510.7740062500234,
      "v": 1
    },
    {
      "midi": 71,
      "hit": false,
      "t": 293296.3481458344,
      "d": 1383.6156624999712,
      "v": 119
    },
    {
      "midi": 74,
      "hit": false,
      "t": 293296.3481458344,
      "d": 1448.270599999989,
      "v": 110
    },
    {
      "midi": 67,
      "hit": false,
      "t": 293300.65847500105,
      "d": 1448.270599999989,
      "v": 107
    },
    {
      "midi": 67,
      "hit": false,
      "t": 293792.03600000014,
      "d": 1308.1849020833615,
      "v": 1
    },
    {
      "midi": 74,
      "hit": false,
      "t": 294798.4978604177,
      "d": 219.82678750000196,
      "v": 110
    },
    {
      "midi": 71,
      "hit": false,
      "t": 294798.4978604177,
      "d": 262.930079166661,
      "v": 121
    },
    {
      "midi": 67,
      "hit": false,
      "t": 294798.4978604177,
      "d": 489.22236041666474,
      "v": 107
    },
    {
      "midi": 74,
      "hit": false,
      "t": 295067.89343333436,
      "d": 435.34324583335547,
      "v": 108
    },
    {
      "midi": 79,
      "hit": false,
      "t": 295067.89343333436,
      "d": 435.34324583335547,
      "v": 108
    },
    {
      "midi": 83,
      "hit": false,
      "t": 295067.89343333436,
      "d": 456.8948916667141,
      "v": 109
    },
    {
      "midi": 64,
      "hit": false,
      "t": 295106.6863958335,
      "d": 226.29228125000373,
      "v": 1
    },
    {
      "midi": 65,
      "hit": false,
      "t": 295337.28900625015,
      "d": 543.101474999974,
      "v": 1
    },
    {
      "midi": 50,
      "hit": false,
      "t": 295595.9087562511,
      "d": 144.39602708333405,
      "v": 89
    },
    {
      "midi": 74,
      "hit": false,
      "t": 295595.9087562511,
      "d": 176.7234958333429,
      "v": 96
    },
    {
      "midi": 79,
      "hit": false,
      "t": 295595.9087562511,
      "d": 273.70590208336944,
      "v": 108
    },
    {
      "midi": 83,
      "hit": false,
      "t": 295595.9087562511,
      "d": 284.48172500001965,
      "v": 106
    },
    {
      "midi": 71,
      "hit": false,
      "t": 295843.75268333446,
      "d": 183.18898958334466,
      "v": 109
    },
    {
      "midi": 74,
      "hit": false,
      "t": 295843.75268333446,
      "d": 193.96481249999488,
      "v": 101
    },
    {
      "midi": 67,
      "hit": false,
      "t": 295843.75268333446,
      "d": 204.7406354166451,
      "v": 100
    },
    {
      "midi": 55,
      "hit": false,
      "t": 295854.5285062511,
      "d": 219.82678750000196,
      "v": 113
    },
    {
      "midi": 69,
      "hit": false,
      "t": 295886.85597500013,
      "d": 463.36038541665766,
      "v": 1
    },
    {
      "midi": 64,
      "hit": false,
      "t": 296356.6818541668,
      "d": 237.06810416665394,
      "v": 1
    },
    {
      "midi": 69,
      "hit": false,
      "t": 296367.4576770844,
      "d": 344.8263333333307,
      "v": 117
    },
    {
      "midi": 65,
      "hit": false,
      "t": 296367.4576770844,
      "d": 355.6021562499809,
      "v": 120
    },
    {
      "midi": 72,
      "hit": false,
      "t": 296367.4576770844,
      "d": 359.91248541662935,
      "v": 118
    },
    {
      "midi": 53,
      "hit": false,
      "t": 296371.7680062511,
      "d": 829.7383645832888,
      "v": 119
    },
    {
      "midi": 65,
      "hit": false,
      "t": 296598.0602875001,
      "d": 1325.4262187500135,
      "v": 1
    },
    {
      "midi": 62,
      "hit": false,
      "t": 297401.93667708436,
      "d": 2040.940860416682,
      "v": 114
    },
    {
      "midi": 69,
      "hit": false,
      "t": 297406.247006251,
      "d": 2008.6133916666731,
      "v": 106
    },
    {
      "midi": 74,
      "hit": false,
      "t": 297406.247006251,
      "d": 2295.250281250046,
      "v": 119
    },
    {
      "midi": 78,
      "hit": false,
      "t": 297406.247006251,
      "d": 2299.5606104166945,
      "v": 112
    },
    {
      "midi": 69,
      "hit": false,
      "t": 299475.20500625105,
      "d": 478.4465374999563,
      "v": 86
    },
    {
      "midi": 60,
      "hit": false,
      "t": 299751.0660729177,
      "d": 1487.0635624999995,
      "v": 86
    },
    {
      "midi": 48,
      "hit": false,
      "t": 299755.37640208437,
      "d": 155.17184999998426,
      "v": 81
    },
    {
      "midi": 64,
      "hit": false,
      "t": 299992.444506251,
      "d": 1221.9783187499852,
      "v": 114
    },
    {
      "midi": 67,
      "hit": false,
      "t": 299992.444506251,
      "d": 1243.5299645833438,
      "v": 114
    },
    {
      "midi": 48,
      "hit": false,
      "t": 299998.910000001,
      "d": 1368.5295104166726,
      "v": 118
    },
    {
      "midi": 76,
      "hit": false,
      "t": 300800.631225001,
      "d": 230.60261041665217,
      "v": 91
    },
    {
      "midi": 79,
      "hit": false,
      "t": 301059.250975001,
      "d": 247.84392708336236,
      "v": 107
    },
    {
      "midi": 76,
      "hit": false,
      "t": 301313.5603958344,
      "d": 230.60261041665217,
      "v": 89
    },
    {
      "midi": 74,
      "hit": false,
      "t": 301550.62850000104,
      "d": 797.4108958332799,
      "v": 78
    },
    {
      "midi": 43,
      "hit": false,
      "t": 301554.9388291677,
      "d": 2084.044152083283,
      "v": 110
    },
    {
      "midi": 67,
      "hit": false,
      "t": 301565.71465208434,
      "d": 1728.441995833302,
      "v": 91
    },
    {
      "midi": 62,
      "hit": false,
      "t": 301565.71465208434,
      "d": 2058.182177083334,
      "v": 105
    },
    {
      "midi": 59,
      "hit": false,
      "t": 301565.71465208434,
      "d": 2079.7338229166344,
      "v": 89
    },
    {
      "midi": 71,
      "hit": false,
      "t": 302337.26357291767,
      "d": 198.27514166664332,
      "v": 93
    },
    {
      "midi": 71,
      "hit": false,
      "t": 302585.107500001,
      "d": 112.0685583333252,
      "v": 89
    },
    {
      "midi": 71,
      "hit": false,
      "t": 302832.9514270843,
      "d": 241.3784333333606,
      "v": 87
    },
    {
      "midi": 69,
      "hit": false,
      "t": 303106.65732916765,
      "d": 215.5164583333535,
      "v": 87
    },
    {
      "midi": 67,
      "hit": false,
      "t": 303350.19092708436,
      "d": 284.48172499996144,
      "v": 86
    },
    {
      "midi": 65,
      "hit": false,
      "t": 303608.81067708344,
      "d": 495.6878541666665,
      "v": 1
    },
    {
      "midi": 66,
      "hit": false,
      "t": 303619.586500001,
      "d": 161.63734374992782,
      "v": 79
    },
    {
      "midi": 67,
      "hit": false,
      "t": 303845.87878125097,
      "d": 172.41316666669445,
      "v": 81
    },
    {
      "midi": 48,
      "hit": false,
      "t": 303878.206250001,
      "d": 284.48172500001965,
      "v": 79
    },
    {
      "midi": 72,
      "hit": false,
      "t": 304108.80886041676,
      "d": 273.70590208331123,
      "v": 1
    },
    {
      "midi": 53,
      "hit": false,
      "t": 304136.826000001,
      "d": 1293.0987500000047,
      "v": 110
    },
    {
      "midi": 60,
      "hit": false,
      "t": 304147.60182291764,
      "d": 1163.7888750000275,
      "v": 100
    },
    {
      "midi": 65,
      "hit": false,
      "t": 304147.60182291764,
      "d": 1163.7888750000275,
      "v": 99
    },
    {
      "midi": 57,
      "hit": false,
      "t": 304147.60182291764,
      "d": 1189.6508500000346,
      "v": 94
    },
    {
      "midi": 71,
      "hit": false,
      "t": 304388.98025625007,
      "d": 528.0153229166754,
      "v": 1
    },
    {
      "midi": 69,
      "hit": false,
      "t": 304923.46107291675,
      "d": 506.4636770833167,
      "v": 1
    },
    {
      "midi": 71,
      "hit": false,
      "t": 305412.6834333334,
      "d": 532.3256520833238,
      "v": 1
    },
    {
      "midi": 57,
      "hit": false,
      "t": 305677.76867708436,
      "d": 2234.905672916677,
      "v": 85
    },
    {
      "midi": 50,
      "hit": false,
      "t": 305677.76867708436,
      "d": 2321.112256249995,
      "v": 112
    },
    {
      "midi": 62,
      "hit": false,
      "t": 305682.079006251,
      "d": 2198.2678750000196,
      "v": 100
    },
    {
      "midi": 66,
      "hit": false,
      "t": 305682.079006251,
      "d": 2198.2678750000196,
      "v": 98
    },
    {
      "midi": 69,
      "hit": false,
      "t": 305951.47457916674,
      "d": 1540.9426770833088,
      "v": 1
    },
    {
      "midi": 79,
      "hit": false,
      "t": 306447.16243333434,
      "d": 101.29273541667499,
      "v": 98
    },
    {
      "midi": 79,
      "hit": false,
      "t": 306712.24767708435,
      "d": 176.7234958333429,
      "v": 91
    },
    {
      "midi": 79,
      "hit": false,
      "t": 306942.850287501,
      "d": 1006.4618604166899,
      "v": 82
    },
    {
      "midi": 78,
      "hit": false,
      "t": 307201.470037501,
      "d": 747.8421104166773,
      "v": 77
    },
    {
      "midi": 74,
      "hit": false,
      "t": 307460.089787501,
      "d": 499.99818333331496,
      "v": 79
    },
    {
      "midi": 69,
      "hit": false,
      "t": 307735.9508541677,
      "d": 237.06810416665394,
      "v": 75
    },
    {
      "midi": 67,
      "hit": false,
      "t": 307994.5706041677,
      "d": 219.82678750000196,
      "v": 80
    },
    {
      "midi": 60,
      "hit": false,
      "t": 308026.8980729177,
      "d": 1351.2881937499624,
      "v": 88
    },
    {
      "midi": 48,
      "hit": false,
      "t": 308263.96617708437,
      "d": 1351.2881937499624,
      "v": 109
    },
    {
      "midi": 67,
      "hit": false,
      "t": 308274.742000001,
      "d": 1017.2376833333401,
      "v": 102
    },
    {
      "midi": 64,
      "hit": false,
      "t": 308279.05232916767,
      "d": 1060.3409749999992,
      "v": 97
    },
    {
      "midi": 43,
      "hit": false,
      "t": 309819.995006251,
      "d": 1825.4244020833285,
      "v": 112
    },
    {
      "midi": 67,
      "hit": false,
      "t": 309819.995006251,
      "d": 2306.026104166638,
      "v": 93
    },
    {
      "midi": 62,
      "hit": false,
      "t": 309819.995006251,
      "d": 2316.8019270832883,
      "v": 93
    },
    {
      "midi": 59,
      "hit": false,
      "t": 309819.995006251,
      "d": 2331.888079166645,
      "v": 91
    },
    {
      "midi": 48,
      "hit": false,
      "t": 312412.6580000009,
      "d": 327.5850166666787,
      "v": 96
    },
    {
      "midi": 55,
      "hit": false,
      "t": 312412.6580000009,
      "d": 349.13666250003735,
      "v": 109
    },
    {
      "midi": 64,
      "hit": false,
      "t": 312449.2957979167,
      "d": 463.36038541665766,
      "v": 1
    },
    {
      "midi": 65,
      "hit": false,
      "t": 312919.12167708337,
      "d": 495.6878541666665,
      "v": 1
    },
    {
      "midi": 57,
      "hit": false,
      "t": 312929.89750000095,
      "d": 316.8091937499703,
      "v": 106
    },
    {
      "midi": 62,
      "hit": false,
      "t": 312929.89750000095,
      "d": 327.5850166666205,
      "v": 125
    },
    {
      "midi": 66,
      "hit": false,
      "t": 312929.89750000095,
      "d": 344.8263333332725,
      "v": 124
    },
    {
      "midi": 50,
      "hit": false,
      "t": 312934.2078291676,
      "d": 295.25754791666986,
      "v": 98
    },
    {
      "midi": 69,
      "hit": false,
      "t": 313419.1198604167,
      "d": 528.0153229166754,
      "v": 1
    },
    {
      "midi": 53,
      "hit": false,
      "t": 313457.91282291757,
      "d": 129.30987499997718,
      "v": 102
    },
    {
      "midi": 60,
      "hit": false,
      "t": 313457.91282291757,
      "d": 140.0856979166274,
      "v": 127
    },
    {
      "midi": 66,
      "hit": false,
      "t": 313942.8248541667,
      "d": 2342.6639020832954,
      "v": 1
    },
    {
      "midi": 62,
      "hit": false,
      "t": 313975.15232291754,
      "d": 1706.8903500000015,
      "v": 101
    },
    {
      "midi": 66,
      "hit": false,
      "t": 313975.15232291754,
      "d": 1724.1316666666535,
      "v": 107
    },
    {
      "midi": 50,
      "hit": false,
      "t": 313979.4626520842,
      "d": 2252.146989583329,
      "v": 104
    },
    {
      "midi": 57,
      "hit": false,
      "t": 313979.4626520842,
      "d": 2252.146989583329,
      "v": 120
    },
    {
      "midi": 69,
      "hit": false,
      "t": 316026.86900625087,
      "d": 478.4465374999563,
      "v": 92
    },
    {
      "midi": 60,
      "hit": false,
      "t": 316302.73007291753,
      "d": 1487.0635624999995,
      "v": 91
    },
    {
      "midi": 48,
      "hit": false,
      "t": 316307.0404020842,
      "d": 155.17184999998426,
      "v": 78
    },
    {
      "midi": 64,
      "hit": false,
      "t": 316544.10850625084,
      "d": 1221.9783187499852,
      "v": 109
    },
    {
      "midi": 67,
      "hit": false,
      "t": 316544.10850625084,
      "d": 1243.5299645833438,
      "v": 112
    },
    {
      "midi": 48,
      "hit": false,
      "t": 316550.57400000084,
      "d": 1368.5295104166726,
      "v": 114
    },
    {
      "midi": 76,
      "hit": false,
      "t": 317352.2952250008,
      "d": 230.60261041665217,
      "v": 91
    },
    {
      "midi": 79,
      "hit": false,
      "t": 317610.91497500084,
      "d": 247.84392708336236,
      "v": 103
    },
    {
      "midi": 76,
      "hit": false,
      "t": 317865.2243958342,
      "d": 230.60261041665217,
      "v": 88
    },
    {
      "midi": 74,
      "hit": false,
      "t": 318102.29250000085,
      "d": 797.4108958332799,
      "v": 80
    },
    {
      "midi": 43,
      "hit": false,
      "t": 318106.6028291675,
      "d": 2084.044152083283,
      "v": 114
    },
    {
      "midi": 67,
      "hit": false,
      "t": 318117.37865208415,
      "d": 1728.441995833302,
      "v": 90
    },
    {
      "midi": 62,
      "hit": false,
      "t": 318117.37865208415,
      "d": 2058.182177083334,
      "v": 102
    },
    {
      "midi": 59,
      "hit": false,
      "t": 318117.37865208415,
      "d": 2079.7338229166344,
      "v": 91
    },
    {
      "midi": 71,
      "hit": false,
      "t": 318888.9275729175,
      "d": 198.27514166664332,
      "v": 99
    },
    {
      "midi": 71,
      "hit": false,
      "t": 319136.7715000008,
      "d": 112.0685583333252,
      "v": 95
    },
    {
      "midi": 71,
      "hit": false,
      "t": 319384.6154270841,
      "d": 241.3784333333606,
      "v": 93
    },
    {
      "midi": 69,
      "hit": false,
      "t": 319658.32132916746,
      "d": 215.5164583333535,
      "v": 91
    },
    {
      "midi": 67,
      "hit": false,
      "t": 319901.8549270842,
      "d": 284.48172499996144,
      "v": 88
    },
    {
      "midi": 65,
      "hit": false,
      "t": 320160.4746770833,
      "d": 495.6878541666665,
      "v": 1
    },
    {
      "midi": 66,
      "hit": false,
      "t": 320171.25050000084,
      "d": 161.63734374992782,
      "v": 80
    },
    {
      "midi": 67,
      "hit": false,
      "t": 320397.5427812508,
      "d": 172.41316666669445,
      "v": 86
    },
    {
      "midi": 48,
      "hit": false,
      "t": 320429.8702500008,
      "d": 284.48172500001965,
      "v": 81
    },
    {
      "midi": 72,
      "hit": false,
      "t": 320660.47286041663,
      "d": 273.70590208331123,
      "v": 1
    },
    {
      "midi": 53,
      "hit": false,
      "t": 320688.4900000008,
      "d": 1293.0987500000047,
      "v": 109
    },
    {
      "midi": 60,
      "hit": false,
      "t": 320699.26582291746,
      "d": 1163.7888750000275,
      "v": 102
    },
    {
      "midi": 65,
      "hit": false,
      "t": 320699.26582291746,
      "d": 1163.7888750000275,
      "v": 102
    },
    {
      "midi": 57,
      "hit": false,
      "t": 320699.26582291746,
      "d": 1189.6508500000346,
      "v": 88
    },
    {
      "midi": 71,
      "hit": false,
      "t": 320940.64425624994,
      "d": 528.0153229166754,
      "v": 1
    },
    {
      "midi": 69,
      "hit": false,
      "t": 321475.1250729166,
      "d": 506.4636770833167,
      "v": 1
    },
    {
      "midi": 71,
      "hit": false,
      "t": 321964.3474333333,
      "d": 532.3256520833238,
      "v": 1
    },
    {
      "midi": 57,
      "hit": false,
      "t": 322229.4326770842,
      "d": 2234.905672916677,
      "v": 82
    },
    {
      "midi": 50,
      "hit": false,
      "t": 322229.4326770842,
      "d": 2321.112256249995,
      "v": 111
    },
    {
      "midi": 62,
      "hit": false,
      "t": 322233.7430062508,
      "d": 2198.2678750000196,
      "v": 98
    },
    {
      "midi": 66,
      "hit": false,
      "t": 322233.7430062508,
      "d": 2198.2678750000196,
      "v": 104
    },
    {
      "midi": 69,
      "hit": false,
      "t": 322503.1385791666,
      "d": 1540.9426770833088,
      "v": 1
    },
    {
      "midi": 79,
      "hit": false,
      "t": 322998.82643333415,
      "d": 101.29273541667499,
      "v": 92
    },
    {
      "midi": 79,
      "hit": false,
      "t": 323263.91167708416,
      "d": 176.7234958333429,
      "v": 91
    },
    {
      "midi": 79,
      "hit": false,
      "t": 323494.5142875008,
      "d": 1006.4618604166899,
      "v": 85
    },
    {
      "midi": 78,
      "hit": false,
      "t": 323753.13403750083,
      "d": 747.8421104166773,
      "v": 81
    },
    {
      "midi": 74,
      "hit": false,
      "t": 324011.75378750084,
      "d": 499.99818333331496,
      "v": 82
    },
    {
      "midi": 69,
      "hit": false,
      "t": 324287.6148541675,
      "d": 237.06810416665394,
      "v": 83
    },
    {
      "midi": 67,
      "hit": false,
      "t": 324546.2346041675,
      "d": 219.82678750000196,
      "v": 81
    },
    {
      "midi": 60,
      "hit": false,
      "t": 324578.5620729175,
      "d": 1351.2881937499624,
      "v": 88
    },
    {
      "midi": 48,
      "hit": false,
      "t": 324815.6301770842,
      "d": 1351.2881937499624,
      "v": 111
    },
    {
      "midi": 67,
      "hit": false,
      "t": 324826.40600000083,
      "d": 1017.2376833333401,
      "v": 103
    },
    {
      "midi": 64,
      "hit": false,
      "t": 324830.7163291675,
      "d": 1060.3409749999992,
      "v": 97
    },
    {
      "midi": 43,
      "hit": false,
      "t": 326371.6590062508,
      "d": 1825.4244020833285,
      "v": 107
    },
    {
      "midi": 67,
      "hit": false,
      "t": 326371.6590062508,
      "d": 2306.026104166638,
      "v": 90
    },
    {
      "midi": 62,
      "hit": false,
      "t": 326371.6590062508,
      "d": 2316.8019270832883,
      "v": 94
    },
    {
      "midi": 59,
      "hit": false,
      "t": 326371.6590062508,
      "d": 2331.888079166645,
      "v": 91
    },
    {
      "midi": 48,
      "hit": false,
      "t": 328964.32200000074,
      "d": 327.5850166666787,
      "v": 100
    },
    {
      "midi": 55,
      "hit": false,
      "t": 328964.32200000074,
      "d": 349.13666250003735,
      "v": 113
    },
    {
      "midi": 64,
      "hit": false,
      "t": 329000.9597979166,
      "d": 463.36038541665766,
      "v": 1
    },
    {
      "midi": 65,
      "hit": false,
      "t": 329470.78567708324,
      "d": 495.6878541666665,
      "v": 1
    },
    {
      "midi": 57,
      "hit": false,
      "t": 329481.56150000077,
      "d": 316.8091937499703,
      "v": 110
    },
    {
      "midi": 62,
      "hit": false,
      "t": 329481.56150000077,
      "d": 327.5850166666205,
      "v": 121
    },
    {
      "midi": 66,
      "hit": false,
      "t": 329481.56150000077,
      "d": 344.8263333332725,
      "v": 122
    },
    {
      "midi": 50,
      "hit": false,
      "t": 329485.8718291674,
      "d": 295.25754791666986,
      "v": 93
    },
    {
      "midi": 69,
      "hit": false,
      "t": 329970.78386041656,
      "d": 528.0153229166754,
      "v": 1
    },
    {
      "midi": 53,
      "hit": false,
      "t": 330009.5768229174,
      "d": 129.30987499997718,
      "v": 101
    },
    {
      "midi": 60,
      "hit": false,
      "t": 330009.5768229174,
      "d": 140.0856979166274,
      "v": 121
    },
    {
      "midi": 66,
      "hit": false,
      "t": 330494.4888541666,
      "d": 2342.6639020832954,
      "v": 1
    },
    {
      "midi": 62,
      "hit": false,
      "t": 330526.81632291735,
      "d": 1706.8903500000015,
      "v": 102
    },
    {
      "midi": 66,
      "hit": false,
      "t": 330526.81632291735,
      "d": 1724.1316666666535,
      "v": 108
    },
    {
      "midi": 50,
      "hit": false,
      "t": 330531.126652084,
      "d": 2252.146989583329,
      "v": 105
    },
    {
      "midi": 57,
      "hit": false,
      "t": 330531.126652084,
      "d": 2252.146989583329,
      "v": 117
    },
    {
      "midi": 60,
      "hit": false,
      "t": 332854.39407291735,
      "d": 1351.2881937499624,
      "v": 89
    },
    {
      "midi": 48,
      "hit": false,
      "t": 333091.462177084,
      "d": 1351.2881937499624,
      "v": 108
    },
    {
      "midi": 67,
      "hit": false,
      "t": 333102.23800000065,
      "d": 1017.2376833333401,
      "v": 107
    },
    {
      "midi": 64,
      "hit": false,
      "t": 333106.5483291673,
      "d": 1060.3409749999992,
      "v": 99
    },
    {
      "midi": 43,
      "hit": false,
      "t": 334647.4910062506,
      "d": 1825.4244020833285,
      "v": 114
    },
    {
      "midi": 67,
      "hit": false,
      "t": 334647.4910062506,
      "d": 2306.026104166638,
      "v": 90
    },
    {
      "midi": 62,
      "hit": false,
      "t": 334647.4910062506,
      "d": 2316.8019270832883,
      "v": 89
    },
    {
      "midi": 59,
      "hit": false,
      "t": 334647.4910062506,
      "d": 2331.888079166645,
      "v": 91
    },
    {
      "midi": 48,
      "hit": false,
      "t": 337240.15400000056,
      "d": 327.5850166666787,
      "v": 95
    },
    {
      "midi": 55,
      "hit": false,
      "t": 337240.15400000056,
      "d": 349.13666250003735,
      "v": 107
    },
    {
      "midi": 64,
      "hit": false,
      "t": 337276.7917979165,
      "d": 463.36038541665766,
      "v": 1
    },
    {
      "midi": 65,
      "hit": false,
      "t": 337746.6176770832,
      "d": 495.6878541666665,
      "v": 1
    },
    {
      "midi": 57,
      "hit": false,
      "t": 337757.3935000006,
      "d": 316.8091937499703,
      "v": 110
    },
    {
      "midi": 62,
      "hit": false,
      "t": 337757.3935000006,
      "d": 327.5850166666205,
      "v": 125
    },
    {
      "midi": 66,
      "hit": false,
      "t": 337757.3935000006,
      "d": 344.8263333332725,
      "v": 124
    },
    {
      "midi": 50,
      "hit": false,
      "t": 337761.70382916724,
      "d": 295.25754791666986,
      "v": 93
    },
    {
      "midi": 69,
      "hit": false,
      "t": 338246.6158604165,
      "d": 528.0153229166754,
      "v": 1
    },
    {
      "midi": 53,
      "hit": false,
      "t": 338285.4088229172,
      "d": 129.30987499997718,
      "v": 99
    },
    {
      "midi": 60,
      "hit": false,
      "t": 338285.4088229172,
      "d": 140.0856979166274,
      "v": 124
    },
    {
      "midi": 66,
      "hit": false,
      "t": 338770.3208541665,
      "d": 2342.6639020832954,
      "v": 1
    },
    {
      "midi": 62,
      "hit": false,
      "t": 338802.6483229172,
      "d": 1706.8903500000015,
      "v": 102
    },
    {
      "midi": 66,
      "hit": false,
      "t": 338802.6483229172,
      "d": 1724.1316666666535,
      "v": 107
    },
    {
      "midi": 50,
      "hit": false,
      "t": 338806.9586520838,
      "d": 2252.146989583329,
      "v": 105
    },
    {
      "midi": 57,
      "hit": false,
      "t": 338806.9586520838,
      "d": 2252.146989583329,
      "v": 116
    },
    {
      "midi": 79,
      "hit": false,
      "t": 339550.49043333385,
      "d": 101.29273541667499,
      "v": 96
    },
    {
      "midi": 79,
      "hit": false,
      "t": 339815.57567708386,
      "d": 176.7234958333429,
      "v": 92
    },
    {
      "midi": 79,
      "hit": false,
      "t": 340046.1782875005,
      "d": 1006.4618604166317,
      "v": 81
    },
    {
      "midi": 78,
      "hit": false,
      "t": 340304.7980375005,
      "d": 747.8421104166191,
      "v": 81
    },
    {
      "midi": 74,
      "hit": false,
      "t": 340563.4177875005,
      "d": 499.99818333331496,
      "v": 75
    },
    {
      "midi": 69,
      "hit": false,
      "t": 340839.27885416715,
      "d": 237.06810416665394,
      "v": 79
    },
    {
      "midi": 67,
      "hit": false,
      "t": 341097.89860416716,
      "d": 219.82678750000196,
      "v": 78
    },
    {
      "midi": 60,
      "hit": false,
      "t": 341130.22607291717,
      "d": 1351.2881937499624,
      "v": 91
    },
    {
      "midi": 48,
      "hit": false,
      "t": 341367.2941770838,
      "d": 1351.2881937499624,
      "v": 111
    },
    {
      "midi": 67,
      "hit": false,
      "t": 341378.0700000005,
      "d": 1017.2376833333401,
      "v": 107
    },
    {
      "midi": 64,
      "hit": false,
      "t": 341382.3803291671,
      "d": 1060.3409749999992,
      "v": 104
    },
    {
      "midi": 43,
      "hit": false,
      "t": 342923.32300625043,
      "d": 1825.4244020833285,
      "v": 111
    },
    {
      "midi": 67,
      "hit": false,
      "t": 342923.32300625043,
      "d": 2306.026104166638,
      "v": 86
    },
    {
      "midi": 62,
      "hit": false,
      "t": 342923.32300625043,
      "d": 2316.8019270832883,
      "v": 93
    },
    {
      "midi": 59,
      "hit": false,
      "t": 342923.32300625043,
      "d": 2331.888079166645,
      "v": 95
    },
    {
      "midi": 48,
      "hit": false,
      "t": 345515.9860000004,
      "d": 327.5850166666787,
      "v": 100
    },
    {
      "midi": 55,
      "hit": false,
      "t": 345515.9860000004,
      "d": 349.13666250003735,
      "v": 113
    },
    {
      "midi": 64,
      "hit": false,
      "t": 345552.62379791646,
      "d": 463.36038541665766,
      "v": 1
    },
    {
      "midi": 65,
      "hit": false,
      "t": 346022.4496770831,
      "d": 495.6878541666665,
      "v": 1
    },
    {
      "midi": 57,
      "hit": false,
      "t": 346033.2255000004,
      "d": 316.8091937499703,
      "v": 106
    },
    {
      "midi": 62,
      "hit": false,
      "t": 346033.2255000004,
      "d": 327.5850166666205,
      "v": 121
    },
    {
      "midi": 66,
      "hit": false,
      "t": 346033.2255000004,
      "d": 344.8263333332725,
      "v": 122
    },
    {
      "midi": 50,
      "hit": false,
      "t": 346037.53582916706,
      "d": 295.25754791666986,
      "v": 91
    },
    {
      "midi": 69,
      "hit": false,
      "t": 346522.44786041643,
      "d": 528.0153229166754,
      "v": 1
    },
    {
      "midi": 53,
      "hit": false,
      "t": 346561.240822917,
      "d": 129.30987499997718,
      "v": 103
    },
    {
      "midi": 60,
      "hit": false,
      "t": 346561.240822917,
      "d": 140.0856979166274,
      "v": 120
    },
    {
      "midi": 66,
      "hit": false,
      "t": 347046.15285416646,
      "d": 2342.6639020832954,
      "v": 1
    },
    {
      "midi": 62,
      "hit": false,
      "t": 347078.480322917,
      "d": 1706.8903500000015,
      "v": 105
    },
    {
      "midi": 66,
      "hit": false,
      "t": 347078.480322917,
      "d": 1724.1316666666535,
      "v": 103
    },
    {
      "midi": 50,
      "hit": false,
      "t": 347082.79065208364,
      "d": 2252.146989583329,
      "v": 105
    },
    {
      "midi": 57,
      "hit": false,
      "t": 347082.79065208364,
      "d": 2252.146989583329,
      "v": 120
    },
    {
      "midi": 60,
      "hit": false,
      "t": 349406.058072917,
      "d": 1351.2881937499624,
      "v": 88
    },
    {
      "midi": 48,
      "hit": false,
      "t": 349643.12617708364,
      "d": 1351.2881937499624,
      "v": 108
    },
    {
      "midi": 67,
      "hit": false,
      "t": 349653.9020000003,
      "d": 1017.2376833333401,
      "v": 103
    },
    {
      "midi": 64,
      "hit": false,
      "t": 349658.21232916694,
      "d": 1060.3409749999992,
      "v": 99
    },
    {
      "midi": 64,
      "hit": false,
      "t": 349664.6778229164,
      "d": 549.566968750034,
      "v": 1
    },
    {
      "midi": 65,
      "hit": false,
      "t": 350186.2276520831,
      "d": 495.6878541666665,
      "v": 1
    },
    {
      "midi": 69,
      "hit": false,
      "t": 350688.38099999976,
      "d": 484.9120312500163,
      "v": 1
    },
    {
      "midi": 67,
      "hit": false,
      "t": 351177.6033604164,
      "d": 829.738364583347,
      "v": 1
    },
    {
      "midi": 43,
      "hit": false,
      "t": 351199.15500625025,
      "d": 1825.4244020833285,
      "v": 110
    },
    {
      "midi": 67,
      "hit": false,
      "t": 351199.15500625025,
      "d": 2306.026104166638,
      "v": 90
    },
    {
      "midi": 62,
      "hit": false,
      "t": 351199.15500625025,
      "d": 2316.8019270832883,
      "v": 95
    },
    {
      "midi": 59,
      "hit": false,
      "t": 351199.15500625025,
      "d": 2331.888079166645,
      "v": 92
    },
    {
      "midi": 65,
      "hit": false,
      "t": 352007.3417249998,
      "d": 252.1542562500108,
      "v": 1
    },
    {
      "midi": 62,
      "hit": false,
      "t": 352265.9614749998,
      "d": 1609.907943749975,
      "v": 1
    },
    {
      "midi": 48,
      "hit": false,
      "t": 353791.8180000002,
      "d": 327.5850166666787,
      "v": 95
    },
    {
      "midi": 55,
      "hit": false,
      "t": 353791.8180000002,
      "d": 349.13666250003735,
      "v": 107
    },
    {
      "midi": 64,
      "hit": false,
      "t": 353882.33491249976,
      "d": 431.0329166666488,
      "v": 1
    },
    {
      "midi": 65,
      "hit": false,
      "t": 354302.59200624976,
      "d": 517.2394999999669,
      "v": 1
    },
    {
      "midi": 57,
      "hit": false,
      "t": 354309.0575000002,
      "d": 316.8091937499703,
      "v": 108
    },
    {
      "midi": 62,
      "hit": false,
      "t": 354309.0575000002,
      "d": 327.5850166666205,
      "v": 123
    },
    {
      "midi": 66,
      "hit": false,
      "t": 354309.0575000002,
      "d": 344.8263333332725,
      "v": 127
    },
    {
      "midi": 50,
      "hit": false,
      "t": 354313.3678291669,
      "d": 295.25754791666986,
      "v": 94
    },
    {
      "midi": 69,
      "hit": false,
      "t": 354826.29699999973,
      "d": 474.1362083333079,
      "v": 1
    },
    {
      "midi": 53,
      "hit": false,
      "t": 354837.07282291685,
      "d": 129.30987499997718,
      "v": 99
    },
    {
      "midi": 60,
      "hit": false,
      "t": 354837.07282291685,
      "d": 140.0856979166274,
      "v": 120
    },
    {
      "midi": 66,
      "hit": false,
      "t": 355304.7435374997,
      "d": 2640.0766145833186,
      "v": 1
    },
    {
      "midi": 62,
      "hit": false,
      "t": 355354.3123229168,
      "d": 1706.8903500000015,
      "v": 105
    },
    {
      "midi": 66,
      "hit": false,
      "t": 355354.3123229168,
      "d": 1724.1316666666535,
      "v": 105
    },
    {
      "midi": 50,
      "hit": false,
      "t": 355358.62265208346,
      "d": 2252.146989583329,
      "v": 104
    },
    {
      "midi": 57,
      "hit": false,
      "t": 355358.62265208346,
      "d": 2252.146989583329,
      "v": 115
    },
    {
      "midi": 60,
      "hit": false,
      "t": 357681.8900729168,
      "d": 1351.2881937499624,
      "v": 89
    },
    {
      "midi": 48,
      "hit": false,
      "t": 357918.95817708346,
      "d": 1351.2881937499624,
      "v": 112
    },
    {
      "midi": 67,
      "hit": false,
      "t": 357929.7340000001,
      "d": 1017.2376833333401,
      "v": 101
    },
    {
      "midi": 64,
      "hit": false,
      "t": 357934.04432916676,
      "d": 1060.3409749999992,
      "v": 97
    },
    {
      "midi": 64,
      "hit": false,
      "t": 357951.285645833,
      "d": 510.7740062500234,
      "v": 1
    },
    {
      "midi": 65,
      "hit": false,
      "t": 358440.50800624967,
      "d": 489.22236041666474,
      "v": 1
    },
    {
      "midi": 69,
      "hit": false,
      "t": 358925.4200374997,
      "d": 506.4636770833167,
      "v": 1
    },
    {
      "midi": 67,
      "hit": false,
      "t": 359438.349208333,
      "d": 851.2900104166474,
      "v": 1
    },
    {
      "midi": 43,
      "hit": false,
      "t": 359474.98700625007,
      "d": 1825.4244020833285,
      "v": 114
    },
    {
      "midi": 67,
      "hit": false,
      "t": 359474.98700625007,
      "d": 2306.026104166638,
      "v": 89
    },
    {
      "midi": 62,
      "hit": false,
      "t": 359474.98700625007,
      "d": 2316.8019270832883,
      "v": 92
    },
    {
      "midi": 59,
      "hit": false,
      "t": 359474.98700625007,
      "d": 2331.888079166645,
      "v": 88
    },
    {
      "midi": 65,
      "hit": false,
      "t": 360289.63921874965,
      "d": 241.3784333333606,
      "v": 1
    },
    {
      "midi": 62,
      "hit": false,
      "t": 360537.483145833,
      "d": 1566.804652083316,
      "v": 1
    },
    {
      "midi": 48,
      "hit": false,
      "t": 362067.65,
      "d": 327.5850166666787,
      "v": 100
    },
    {
      "midi": 55,
      "hit": false,
      "t": 362067.65,
      "d": 349.13666250003735,
      "v": 107
    },
    {
      "midi": 64,
      "hit": false,
      "t": 362110.75329166633,
      "d": 489.22236041666474,
      "v": 1
    },
    {
      "midi": 65,
      "hit": false,
      "t": 362574.113677083,
      "d": 499.99818333331496,
      "v": 1
    },
    {
      "midi": 57,
      "hit": false,
      "t": 362584.88950000005,
      "d": 316.8091937499703,
      "v": 106
    },
    {
      "midi": 62,
      "hit": false,
      "t": 362584.88950000005,
      "d": 327.5850166666205,
      "v": 123
    },
    {
      "midi": 66,
      "hit": false,
      "t": 362584.88950000005,
      "d": 344.8263333332725,
      "v": 126
    },
    {
      "midi": 50,
      "hit": false,
      "t": 362589.1998291667,
      "d": 295.25754791666986,
      "v": 95
    },
    {
      "midi": 69,
      "hit": false,
      "t": 363080.5773541663,
      "d": 484.9120312500163,
      "v": 1
    },
    {
      "midi": 53,
      "hit": false,
      "t": 363112.90482291667,
      "d": 129.30987499997718,
      "v": 99
    },
    {
      "midi": 60,
      "hit": false,
      "t": 363112.90482291667,
      "d": 140.0856979166274,
      "v": 126
    },
    {
      "midi": 66,
      "hit": false,
      "t": 363559.0238916663,
      "d": 4267.225875000004,
      "v": 1
    },
    {
      "midi": 62,
      "hit": false,
      "t": 363630.14432291663,
      "d": 4681.017475000001,
      "v": 103
    },
    {
      "midi": 66,
      "hit": false,
      "t": 363630.14432291663,
      "d": 4719.810437500011,
      "v": 103
    },
    {
      "midi": 50,
      "hit": false,
      "t": 363634.4546520833,
      "d": 4633.603854166693,
      "v": 102
    },
    {
      "midi": 57,
      "hit": false,
      "t": 363634.4546520833,
      "d": 4659.4658291667,
      "v": 120
    },
    {
      "midi": 64,
      "hit": false,
      "t": 367761.5948291663,
      "d": 4644.379677083343,
      "v": 1
    }
  ]
}