{
  "jsonPath": "Rock/Rock/Bon Jovi/you-give-love-a-bad-name.json",
  "path": "Rock\\Rock\\Bon Jovi\\You Give Love A Bad Name.mid",
  "name": "You Give Love A Bad Name",
  "difficulty": "Advanced",
  "bpm": 120,
  "notes": [
    {
      "midi": 48,
      "hit": false,
      "t": 26994.791666666668,
      "d": 98.95833333333212,
      "v": 107
    },
    {
      "midi": 24,
      "hit": false,
      "t": 26994.791666666668,
      "d": 109.375,
      "v": 107
    },
    {
      "midi": 84,
      "hit": false,
      "t": 27234.375,
      "d": 229.16666666666424,
      "v": 107
    },
    {
      "midi": 60,
      "hit": false,
      "t": 27239.583333333332,
      "d": 229.16666666666424,
      "v": 107
    },
    {
      "midi": 36,
      "hit": false,
      "t": 87880.20833333333,
      "d": 72.91666666665697,
      "v": 107
    },
    {
      "midi": 48,
      "hit": false,
      "t": 87885.41666666666,
      "d": 67.70833333332848,
      "v": 107
    },
    {
      "midi": 84,
      "hit": false,
      "t": 88145.83333333331,
      "d": 62.5,
      "v": 107
    },
    {
      "midi": 60,
      "hit": false,
      "t": 88145.83333333331,
      "d": 78.125,
      "v": 107
    },
    {
      "midi": 72,
      "hit": false,
      "t": 88630.20833333331,
      "d": 1994.7916666666715,
      "v": 30
    },
    {
      "midi": 67,
      "hit": false,
      "t": 88645.83333333331,
      "d": 1984.375,
      "v": 30
    },
    {
      "midi": 67,
      "hit": false,
      "t": 90635.41666666664,
      "d": 1984.375,
      "v": 30
    },
    {
      "midi": 70,
      "hit": false,
      "t": 90635.41666666664,
      "d": 1989.5833333333285,
      "v": 30
    },
    {
      "midi": 72,
      "hit": false,
      "t": 92640.62499999997,
      "d": 1979.1666666666715,
      "v": 30
    },
    {
      "midi": 65,
      "hit": false,
      "t": 92640.62499999997,
      "d": 1994.7916666666715,
      "v": 30
    },
    {
      "midi": 72,
      "hit": false,
      "t": 94624.99999999997,
      "d": 1989.583333333343,
      "v": 30
    },
    {
      "midi": 63,
      "hit": false,
      "t": 94635.41666666664,
      "d": 1984.375,
      "v": 30
    },
    {
      "midi": 72,
      "hit": false,
      "t": 96619.79166666664,
      "d": 1989.583333333343,
      "v": 30
    },
    {
      "midi": 67,
      "hit": false,
      "t": 96630.20833333331,
      "d": 1994.7916666666715,
      "v": 30
    },
    {
      "midi": 70,
      "hit": false,
      "t": 98630.20833333331,
      "d": 1989.5833333333285,
      "v": 30
    },
    {
      "midi": 67,
      "hit": false,
      "t": 98635.41666666664,
      "d": 1979.1666666666715,
      "v": 30
    },
    {
      "midi": 67,
      "hit": false,
      "t": 100614.58333333331,
      "d": 1994.791666666657,
      "v": 30
    },
    {
      "midi": 75,
      "hit": false,
      "t": 100619.79166666664,
      "d": 1989.5833333333285,
      "v": 30
    },
    {
      "midi": 72,
      "hit": false,
      "t": 102609.37499999997,
      "d": 1989.5833333333285,
      "v": 30
    },
    {
      "midi": 67,
      "hit": false,
      "t": 102614.5833333333,
      "d": 1989.5833333333285,
      "v": 30
    },
    {
      "midi": 72,
      "hit": false,
      "t": 104609.37499999996,
      "d": 2979.1666666666715,
      "v": 30
    },
    {
      "midi": 65,
      "hit": false,
      "t": 104624.99999999996,
      "d": 2916.6666666666715,
      "v": 30
    },
    {
      "midi": 72,
      "hit": false,
      "t": 108604.16666666663,
      "d": 1947.916666666657,
      "v": 30
    },
    {
      "midi": 75,
      "hit": false,
      "t": 108604.16666666663,
      "d": 1979.166666666657,
      "v": 30
    },
    {
      "midi": 70,
      "hit": false,
      "t": 108609.37499999996,
      "d": 1994.791666666657,
      "v": 30
    },
    {
      "midi": 77,
      "hit": false,
      "t": 112593.74999999994,
      "d": 3260.4166666666715,
      "v": 30
    },
    {
      "midi": 70,
      "hit": false,
      "t": 112604.16666666661,
      "d": 3270.8333333333285,
      "v": 30
    },
    {
      "midi": 72,
      "hit": false,
      "t": 116593.74999999994,
      "d": 1609.375,
      "v": 30
    },
    {
      "midi": 65,
      "hit": false,
      "t": 116593.74999999994,
      "d": 1656.25,
      "v": 30
    },
    {
      "midi": 74,
      "hit": false,
      "t": 118583.33333333327,
      "d": 1135.4166666666715,
      "v": 30
    },
    {
      "midi": 67,
      "hit": false,
      "t": 118598.95833333327,
      "d": 1177.083333333343,
      "v": 30
    },
    {
      "midi": 72,
      "hit": false,
      "t": 166499.99999999994,
      "d": 119.79166666665697,
      "v": 107
    },
    {
      "midi": 84,
      "hit": false,
      "t": 166515.62499999994,
      "d": 119.79166666665697,
      "v": 107
    },
    {
      "midi": 72,
      "hit": false,
      "t": 167015.62499999994,
      "d": 119.79166666665697,
      "v": 107
    },
    {
      "midi": 84,
      "hit": false,
      "t": 167015.62499999994,
      "d": 119.79166666665697,
      "v": 107
    },
    {
      "midi": 84,
      "hit": false,
      "t": 167505.20833333326,
      "d": 119.79166666665697,
      "v": 107
    },
    {
      "midi": 72,
      "hit": false,
      "t": 167515.6249999999,
      "d": 119.79166666665697,
      "v": 107
    },
    {
      "midi": 72,
      "hit": false,
      "t": 168005.20833333323,
      "d": 119.79166666668607,
      "v": 107
    },
    {
      "midi": 84,
      "hit": false,
      "t": 168010.41666666657,
      "d": 119.79166666668607,
      "v": 107
    },
    {
      "midi": 72,
      "hit": false,
      "t": 168510.4166666666,
      "d": 114.58333333334303,
      "v": 107
    },
    {
      "midi": 84,
      "hit": false,
      "t": 168515.62499999994,
      "d": 114.58333333334303,
      "v": 107
    },
    {
      "midi": 72,
      "hit": false,
      "t": 168999.99999999994,
      "d": 114.58333333334303,
      "v": 107
    },
    {
      "midi": 84,
      "hit": false,
      "t": 168999.99999999994,
      "d": 119.79166666668607,
      "v": 107
    },
    {
      "midi": 84,
      "hit": false,
      "t": 169499.99999999997,
      "d": 114.58333333331393,
      "v": 107
    },
    {
      "midi": 72,
      "hit": false,
      "t": 169510.41666666663,
      "d": 109.375,
      "v": 107
    },
    {
      "midi": 84,
      "hit": false,
      "t": 169999.99999999997,
      "d": 119.79166666665697,
      "v": 107
    },
    {
      "midi": 72,
      "hit": false,
      "t": 170010.41666666663,
      "d": 119.79166666665697,
      "v": 107
    },
    {
      "midi": 72,
      "hit": false,
      "t": 170505.20833333328,
      "d": 114.58333333334303,
      "v": 107
    },
    {
      "midi": 84,
      "hit": false,
      "t": 170505.20833333328,
      "d": 114.58333333334303,
      "v": 107
    },
    {
      "midi": 72,
      "hit": false,
      "t": 170994.79166666663,
      "d": 119.79166666668607,
      "v": 107
    },
    {
      "midi": 84,
      "hit": false,
      "t": 170999.99999999997,
      "d": 119.79166666668607,
      "v": 107
    },
    {
      "midi": 72,
      "hit": false,
      "t": 171510.41666666666,
      "d": 119.79166666665697,
      "v": 107
    },
    {
      "midi": 84,
      "hit": false,
      "t": 171510.41666666666,
      "d": 119.79166666665697,
      "v": 107
    },
    {
      "midi": 72,
      "hit": false,
      "t": 171999.99999999997,
      "d": 119.79166666665697,
      "v": 107
    },
    {
      "midi": 84,
      "hit": false,
      "t": 172010.41666666663,
      "d": 119.79166666665697,
      "v": 107
    },
    {
      "midi": 84,
      "hit": false,
      "t": 172489.58333333328,
      "d": 119.79166666665697,
      "v": 107
    },
    {
      "midi": 72,
      "hit": false,
      "t": 172505.20833333328,
      "d": 114.58333333331393,
      "v": 107
    },
    {
      "midi": 84,
      "hit": false,
      "t": 172994.7916666666,
      "d": 119.79166666665697,
      "v": 107
    },
    {
      "midi": 72,
      "hit": false,
      "t": 173010.4166666666,
      "d": 119.79166666665697,
      "v": 107
    },
    {
      "midi": 72,
      "hit": false,
      "t": 173505.20833333326,
      "d": 119.79166666668607,
      "v": 107
    },
    {
      "midi": 84,
      "hit": false,
      "t": 173510.4166666666,
      "d": 119.79166666668607,
      "v": 107
    },
    {
      "midi": 72,
      "hit": false,
      "t": 173994.79166666663,
      "d": 119.79166666665697,
      "v": 107
    },
    {
      "midi": 84,
      "hit": false,
      "t": 174005.20833333328,
      "d": 119.79166666665697,
      "v": 107
    },
    {
      "midi": 60,
      "hit": false,
      "t": 190463.5416666666,
      "d": 109.375,
      "v": 60
    },
    {
      "midi": 72,
      "hit": false,
      "t": 190463.5416666666,
      "d": 151.04166666665697,
      "v": 60
    },
    {
      "midi": 72,
      "hit": false,
      "t": 190963.5416666666,
      "d": 156.25,
      "v": 60
    },
    {
      "midi": 60,
      "hit": false,
      "t": 190968.74999999994,
      "d": 166.66666666665697,
      "v": 60
    },
    {
      "midi": 60,
      "hit": false,
      "t": 191473.95833333326,
      "d": 125,
      "v": 60
    },
    {
      "midi": 72,
      "hit": false,
      "t": 191473.95833333326,
      "d": 135.41666666665697,
      "v": 60
    },
    {
      "midi": 60,
      "hit": false,
      "t": 191963.54166666657,
      "d": 125,
      "v": 60
    },
    {
      "midi": 72,
      "hit": false,
      "t": 191979.16666666657,
      "d": 109.375,
      "v": 60
    },
    {
      "midi": 60,
      "hit": false,
      "t": 192463.54166666657,
      "d": 104.16666666665697,
      "v": 60
    },
    {
      "midi": 72,
      "hit": false,
      "t": 192479.16666666657,
      "d": 98.95833333331393,
      "v": 60
    },
    {
      "midi": 60,
      "hit": false,
      "t": 192963.54166666654,
      "d": 104.16666666665697,
      "v": 60
    },
    {
      "midi": 72,
      "hit": false,
      "t": 192963.54166666654,
      "d": 104.16666666665697,
      "v": 60
    },
    {
      "midi": 60,
      "hit": false,
      "t": 193468.74999999985,
      "d": 109.3750000000291,
      "v": 60
    },
    {
      "midi": 72,
      "hit": false,
      "t": 193473.9583333332,
      "d": 98.95833333334303,
      "v": 60
    },
    {
      "midi": 72,
      "hit": false,
      "t": 193973.95833333323,
      "d": 98.95833333334303,
      "v": 60
    },
    {
      "midi": 60,
      "hit": false,
      "t": 193973.95833333323,
      "d": 114.58333333334303,
      "v": 60
    },
    {
      "midi": 72,
      "hit": false,
      "t": 194468.7499999999,
      "d": 98.95833333334303,
      "v": 60
    },
    {
      "midi": 60,
      "hit": false,
      "t": 194468.7499999999,
      "d": 104.16666666668607,
      "v": 60
    },
    {
      "midi": 72,
      "hit": false,
      "t": 194968.74999999994,
      "d": 83.33333333334303,
      "v": 60
    },
    {
      "midi": 60,
      "hit": false,
      "t": 194968.74999999994,
      "d": 109.375,
      "v": 60
    },
    {
      "midi": 60,
      "hit": false,
      "t": 195463.5416666666,
      "d": 109.3749999999709,
      "v": 60
    },
    {
      "midi": 72,
      "hit": false,
      "t": 195473.95833333326,
      "d": 88.54166666665697,
      "v": 60
    },
    {
      "midi": 72,
      "hit": false,
      "t": 195963.54166666657,
      "d": 88.54166666665697,
      "v": 60
    },
    {
      "midi": 60,
      "hit": false,
      "t": 195963.54166666657,
      "d": 98.95833333331393,
      "v": 60
    },
    {
      "midi": 60,
      "hit": false,
      "t": 196463.54166666654,
      "d": 93.7500000000291,
      "v": 60
    },
    {
      "midi": 72,
      "hit": false,
      "t": 196468.74999999988,
      "d": 67.70833333334303,
      "v": 60
    },
    {
      "midi": 72,
      "hit": false,
      "t": 196958.33333333323,
      "d": 72.91666666668607,
      "v": 60
    },
    {
      "midi": 60,
      "hit": false,
      "t": 196963.54166666657,
      "d": 88.54166666668607,
      "v": 60
    },
    {
      "midi": 72,
      "hit": false,
      "t": 197453.1249999999,
      "d": 72.91666666668607,
      "v": 60
    },
    {
      "midi": 60,
      "hit": false,
      "t": 197458.33333333326,
      "d": 88.54166666668607,
      "v": 60
    },
    {
      "midi": 72,
      "hit": false,
      "t": 197958.33333333328,
      "d": 72.91666666668607,
      "v": 60
    },
    {
      "midi": 60,
      "hit": false,
      "t": 197963.54166666663,
      "d": 88.54166666668607,
      "v": 60
    },
    {
      "midi": 84,
      "hit": false,
      "t": 198458.3333333333,
      "d": 67.70833333334303,
      "v": 60
    },
    {
      "midi": 72,
      "hit": false,
      "t": 198458.3333333333,
      "d": 88.54166666668607,
      "v": 60
    },
    {
      "midi": 84,
      "hit": false,
      "t": 198953.125,
      "d": 78.125,
      "v": 60
    },
    {
      "midi": 72,
      "hit": false,
      "t": 198953.125,
      "d": 88.54166666665697,
      "v": 60
    },
    {
      "midi": 84,
      "hit": false,
      "t": 199453.125,
      "d": 78.125,
      "v": 60
    },
    {
      "midi": 72,
      "hit": false,
      "t": 199453.125,
      "d": 83.33333333334303,
      "v": 60
    },
    {
      "midi": 84,
      "hit": false,
      "t": 199958.33333333334,
      "d": 78.125,
      "v": 60
    },
    {
      "midi": 72,
      "hit": false,
      "t": 199958.33333333334,
      "d": 83.33333333334303,
      "v": 60
    },
    {
      "midi": 72,
      "hit": false,
      "t": 200458.33333333334,
      "d": 88.54166666668607,
      "v": 60
    },
    {
      "midi": 84,
      "hit": false,
      "t": 200463.5416666667,
      "d": 67.70833333334303,
      "v": 60
    },
    {
      "midi": 84,
      "hit": false,
      "t": 200942.70833333337,
      "d": 72.91666666665697,
      "v": 60
    },
    {
      "midi": 72,
      "hit": false,
      "t": 200958.33333333337,
      "d": 78.125,
      "v": 60
    },
    {
      "midi": 84,
      "hit": false,
      "t": 201458.33333333337,
      "d": 83.33333333334303,
      "v": 60
    },
    {
      "midi": 72,
      "hit": false,
      "t": 201463.54166666672,
      "d": 72.91666666665697,
      "v": 60
    },
    {
      "midi": 84,
      "hit": false,
      "t": 201947.91666666672,
      "d": 72.91666666665697,
      "v": 60
    },
    {
      "midi": 72,
      "hit": false,
      "t": 201958.33333333337,
      "d": 88.54166666665697,
      "v": 60
    },
    {
      "midi": 72,
      "hit": false,
      "t": 202458.33333333337,
      "d": 83.33333333334303,
      "v": 60
    },
    {
      "midi": 84,
      "hit": false,
      "t": 202458.33333333337,
      "d": 83.33333333334303,
      "v": 60
    },
    {
      "midi": 72,
      "hit": false,
      "t": 202947.91666666672,
      "d": 83.33333333331393,
      "v": 60
    },
    {
      "midi": 84,
      "hit": false,
      "t": 202958.33333333337,
      "d": 83.33333333331393,
      "v": 60
    },
    {
      "midi": 72,
      "hit": false,
      "t": 203458.33333333334,
      "d": 83.33333333334303,
      "v": 60
    },
    {
      "midi": 84,
      "hit": false,
      "t": 203458.33333333334,
      "d": 83.33333333334303,
      "v": 60
    },
    {
      "midi": 72,
      "hit": false,
      "t": 203958.33333333334,
      "d": 78.125,
      "v": 60
    },
    {
      "midi": 84,
      "hit": false,
      "t": 203958.33333333334,
      "d": 88.54166666665697,
      "v": 60
    },
    {
      "midi": 72,
      "hit": false,
      "t": 204447.91666666666,
      "d": 83.33333333331393,
      "v": 60
    },
    {
      "midi": 84,
      "hit": false,
      "t": 204458.3333333333,
      "d": 88.54166666665697,
      "v": 60
    },
    {
      "midi": 84,
      "hit": false,
      "t": 204958.3333333333,
      "d": 67.70833333334303,
      "v": 60
    },
    {
      "midi": 72,
      "hit": false,
      "t": 204958.3333333333,
      "d": 78.125,
      "v": 60
    },
    {
      "midi": 72,
      "hit": false,
      "t": 205447.91666666666,
      "d": 78.125,
      "v": 60
    },
    {
      "midi": 84,
      "hit": false,
      "t": 205453.125,
      "d": 88.54166666665697,
      "v": 60
    },
    {
      "midi": 72,
      "hit": false,
      "t": 205942.7083333333,
      "d": 88.54166666668607,
      "v": 60
    },
    {
      "midi": 84,
      "hit": false,
      "t": 205947.91666666666,
      "d": 98.95833333334303,
      "v": 60
    },
    {
      "midi": 84,
      "hit": false,
      "t": 206442.70833333334,
      "d": 88.54166666665697,
      "v": 60
    },
    {
      "midi": 72,
      "hit": false,
      "t": 206453.125,
      "d": 83.33333333334303,
      "v": 60
    },
    {
      "midi": 72,
      "hit": false,
      "t": 206953.125,
      "d": 78.125,
      "v": 60
    },
    {
      "midi": 84,
      "hit": false,
      "t": 206953.125,
      "d": 83.33333333334303,
      "v": 60
    },
    {
      "midi": 72,
      "hit": false,
      "t": 207432.2916666667,
      "d": 88.54166666665697,
      "v": 60
    },
    {
      "midi": 84,
      "hit": false,
      "t": 207447.9166666667,
      "d": 88.54166666665697,
      "v": 60
    },
    {
      "midi": 72,
      "hit": false,
      "t": 207937.5,
      "d": 78.125,
      "v": 60
    },
    {
      "midi": 84,
      "hit": false,
      "t": 207937.5,
      "d": 78.125,
      "v": 60
    },
    {
      "midi": 84,
      "hit": false,
      "t": 208442.70833333334,
      "d": 83.33333333334303,
      "v": 60
    },
    {
      "midi": 72,
      "hit": false,
      "t": 208447.9166666667,
      "d": 72.91666666665697,
      "v": 60
    },
    {
      "midi": 84,
      "hit": false,
      "t": 208942.70833333334,
      "d": 78.125,
      "v": 60
    },
    {
      "midi": 72,
      "hit": false,
      "t": 208947.9166666667,
      "d": 83.33333333331393,
      "v": 60
    },
    {
      "midi": 72,
      "hit": false,
      "t": 209432.29166666666,
      "d": 83.33333333334303,
      "v": 60
    },
    {
      "midi": 84,
      "hit": false,
      "t": 209437.5,
      "d": 83.33333333334303,
      "v": 60
    },
    {
      "midi": 84,
      "hit": false,
      "t": 209932.2916666667,
      "d": 78.125,
      "v": 60
    },
    {
      "midi": 72,
      "hit": false,
      "t": 209942.70833333334,
      "d": 78.125,
      "v": 60
    },
    {
      "midi": 84,
      "hit": false,
      "t": 210432.2916666667,
      "d": 88.54166666665697,
      "v": 60
    },
    {
      "midi": 72,
      "hit": false,
      "t": 210447.9166666667,
      "d": 72.91666666665697,
      "v": 60
    },
    {
      "midi": 84,
      "hit": false,
      "t": 210932.2916666667,
      "d": 67.70833333334303,
      "v": 60
    },
    {
      "midi": 72,
      "hit": false,
      "t": 210932.2916666667,
      "d": 72.91666666668607,
      "v": 60
    },
    {
      "midi": 72,
      "hit": false,
      "t": 211437.50000000003,
      "d": 88.54166666665697,
      "v": 60
    },
    {
      "midi": 84,
      "hit": false,
      "t": 211442.70833333337,
      "d": 72.91666666665697,
      "v": 60
    },
    {
      "midi": 84,
      "hit": false,
      "t": 211942.70833333334,
      "d": 78.125,
      "v": 60
    },
    {
      "midi": 72,
      "hit": false,
      "t": 211942.70833333334,
      "d": 93.75,
      "v": 60
    },
    {
      "midi": 72,
      "hit": false,
      "t": 212437.50000000003,
      "d": 88.54166666665697,
      "v": 60
    },
    {
      "midi": 84,
      "hit": false,
      "t": 212442.70833333337,
      "d": 72.91666666665697,
      "v": 60
    },
    {
      "midi": 84,
      "hit": false,
      "t": 212942.70833333337,
      "d": 62.5,
      "v": 60
    },
    {
      "midi": 72,
      "hit": false,
      "t": 212942.70833333337,
      "d": 78.125,
      "v": 60
    },
    {
      "midi": 72,
      "hit": false,
      "t": 213432.29166666666,
      "d": 88.54166666665697,
      "v": 60
    },
    {
      "midi": 84,
      "hit": false,
      "t": 213447.91666666666,
      "d": 83.33333333331393,
      "v": 60
    },
    {
      "midi": 84,
      "hit": false,
      "t": 213921.875,
      "d": 78.125,
      "v": 60
    },
    {
      "midi": 72,
      "hit": false,
      "t": 213937.5,
      "d": 72.91666666665697,
      "v": 60
    },
    {
      "midi": 72,
      "hit": false,
      "t": 214437.5,
      "d": 67.70833333334303,
      "v": 60
    },
    {
      "midi": 84,
      "hit": false,
      "t": 214442.70833333334,
      "d": 83.33333333334303,
      "v": 60
    },
    {
      "midi": 84,
      "hit": false,
      "t": 214927.08333333337,
      "d": 67.70833333331393,
      "v": 60
    },
    {
      "midi": 72,
      "hit": false,
      "t": 214937.50000000003,
      "d": 88.54166666665697,
      "v": 60
    },
    {
      "midi": 84,
      "hit": false,
      "t": 215432.2916666667,
      "d": 78.125,
      "v": 60
    },
    {
      "midi": 72,
      "hit": false,
      "t": 215442.70833333334,
      "d": 83.33333333334303,
      "v": 60
    },
    {
      "midi": 72,
      "hit": false,
      "t": 215932.2916666667,
      "d": 72.91666666665697,
      "v": 60
    },
    {
      "midi": 84,
      "hit": false,
      "t": 215942.70833333334,
      "d": 78.125,
      "v": 60
    },
    {
      "midi": 72,
      "hit": false,
      "t": 216432.29166666663,
      "d": 78.125,
      "v": 60
    },
    {
      "midi": 84,
      "hit": false,
      "t": 216442.70833333328,
      "d": 83.33333333334303,
      "v": 60
    },
    {
      "midi": 72,
      "hit": false,
      "t": 216921.87499999997,
      "d": 88.54166666668607,
      "v": 60
    },
    {
      "midi": 84,
      "hit": false,
      "t": 216927.0833333333,
      "d": 67.70833333334303,
      "v": 60
    },
    {
      "midi": 72,
      "hit": false,
      "t": 217427.08333333328,
      "d": 78.125,
      "v": 60
    },
    {
      "midi": 84,
      "hit": false,
      "t": 217442.70833333328,
      "d": 67.70833333334303,
      "v": 60
    },
    {
      "midi": 84,
      "hit": false,
      "t": 217916.66666666663,
      "d": 88.54166666665697,
      "v": 60
    },
    {
      "midi": 72,
      "hit": false,
      "t": 217927.08333333328,
      "d": 72.91666666665697,
      "v": 60
    },
    {
      "midi": 84,
      "hit": false,
      "t": 218437.49999999994,
      "d": 72.91666666665697,
      "v": 60
    },
    {
      "midi": 72,
      "hit": false,
      "t": 218437.49999999994,
      "d": 83.33333333331393,
      "v": 60
    },
    {
      "midi": 84,
      "hit": false,
      "t": 218921.8749999999,
      "d": 78.125,
      "v": 60
    },
    {
      "midi": 72,
      "hit": false,
      "t": 218932.29166666657,
      "d": 67.70833333334303,
      "v": 60
    },
    {
      "midi": 84,
      "hit": false,
      "t": 219416.66666666657,
      "d": 78.125,
      "v": 60
    },
    {
      "midi": 72,
      "hit": false,
      "t": 219421.8749999999,
      "d": 83.33333333331393,
      "v": 60
    },
    {
      "midi": 72,
      "hit": false,
      "t": 219916.66666666657,
      "d": 88.54166666668607,
      "v": 60
    },
    {
      "midi": 84,
      "hit": false,
      "t": 219921.8749999999,
      "d": 88.54166666668607,
      "v": 60
    },
    {
      "midi": 84,
      "hit": false,
      "t": 220416.6666666666,
      "d": 93.75,
      "v": 60
    },
    {
      "midi": 72,
      "hit": false,
      "t": 220427.08333333326,
      "d": 93.75,
      "v": 60
    },
    {
      "midi": 84,
      "hit": false,
      "t": 220916.6666666666,
      "d": 83.33333333331393,
      "v": 60
    },
    {
      "midi": 72,
      "hit": false,
      "t": 220927.08333333326,
      "d": 93.75,
      "v": 60
    }
  ]
}