{
  "jsonPath": "Unknown/Unknown/Mordecai Shehori/minuet-in-g-major-j-s-bach.json",
  "path": "Unknown\\Unknown\\Mordecai Shehori\\Minuet in G major (J S Bach).mid",
  "name": "Minuet in G major (J S Bach)",
  "difficulty": "Advanced",
  "bpm": 168.00087360454273,
  "notes": [
    {
      "midi": 74,
      "hit": false,
      "t": 1383.9213750000001,
      "d": 340.40001562500015,
      "v": 110
    },
    {
      "midi": 55,
      "hit": false,
      "t": 1383.9213750000001,
      "d": 665.9191562500002,
      "v": 91
    },
    {
      "midi": 59,
      "hit": false,
      "t": 1383.9213750000001,
      "d": 703.1213437500003,
      "v": 91
    },
    {
      "midi": 62,
      "hit": false,
      "t": 1383.9213750000001,
      "d": 712.4218906250001,
      "v": 87
    },
    {
      "midi": 67,
      "hit": false,
      "t": 1744.7825937500004,
      "d": 165.54973437500007,
      "v": 113
    },
    {
      "midi": 69,
      "hit": false,
      "t": 1910.3323281250005,
      "d": 193.45137499999964,
      "v": 107
    },
    {
      "midi": 57,
      "hit": false,
      "t": 2083.3225,
      "d": 388.7628593749996,
      "v": 89
    },
    {
      "midi": 71,
      "hit": false,
      "t": 2087.0427187500004,
      "d": 174.85028124999963,
      "v": 102
    },
    {
      "midi": 72,
      "hit": false,
      "t": 2261.893,
      "d": 200.89181250000001,
      "v": 100
    },
    {
      "midi": 74,
      "hit": false,
      "t": 2440.4635,
      "d": 91.14535937499977,
      "v": 110
    },
    {
      "midi": 59,
      "hit": false,
      "t": 2459.06459375,
      "d": 1058.4022343749998,
      "v": 85
    },
    {
      "midi": 67,
      "hit": false,
      "t": 2795.7443906249996,
      "d": 74.40437500000007,
      "v": 110
    },
    {
      "midi": 67,
      "hit": false,
      "t": 3164.046046875,
      "d": 55.803281250000055,
      "v": 116
    },
    {
      "midi": 60,
      "hit": false,
      "t": 3511.8864999999996,
      "d": 1077.0033281249998,
      "v": 91
    },
    {
      "midi": 76,
      "hit": false,
      "t": 3519.3269374999995,
      "d": 366.4415468750003,
      "v": 110
    },
    {
      "midi": 72,
      "hit": false,
      "t": 3874.6078281249997,
      "d": 182.29071875,
      "v": 102
    },
    {
      "midi": 74,
      "hit": false,
      "t": 4056.8985468749997,
      "d": 174.85028125000008,
      "v": 102
    },
    {
      "midi": 76,
      "hit": false,
      "t": 4222.44828125,
      "d": 195.31148437499996,
      "v": 100
    },
    {
      "midi": 78,
      "hit": false,
      "t": 4410.319328125,
      "d": 208.33224999999948,
      "v": 105
    },
    {
      "midi": 59,
      "hit": false,
      "t": 4579.58928125,
      "d": 1110.4852968750001,
      "v": 76
    },
    {
      "midi": 79,
      "hit": false,
      "t": 4592.610046874999,
      "d": 100.44590625000001,
      "v": 102
    },
    {
      "midi": 67,
      "hit": false,
      "t": 4944.17071875,
      "d": 74.40437500000007,
      "v": 100
    },
    {
      "midi": 67,
      "hit": false,
      "t": 5310.612265625,
      "d": 59.52350000000024,
      "v": 102
    },
    {
      "midi": 72,
      "hit": false,
      "t": 5660.312828125,
      "d": 364.5814375,
      "v": 102
    },
    {
      "midi": 57,
      "hit": false,
      "t": 5671.473484375,
      "d": 1071.4230000000007,
      "v": 74
    },
    {
      "midi": 74,
      "hit": false,
      "t": 6013.733609375,
      "d": 197.17159375000028,
      "v": 102
    },
    {
      "midi": 72,
      "hit": false,
      "t": 6197.8844375,
      "d": 212.05246875000103,
      "v": 95
    },
    {
      "midi": 71,
      "hit": false,
      "t": 6376.454937500001,
      "d": 178.5704999999998,
      "v": 102
    },
    {
      "midi": 69,
      "hit": false,
      "t": 6545.724890625001,
      "d": 208.33225000000039,
      "v": 87
    },
    {
      "midi": 55,
      "hit": false,
      "t": 6720.575171875001,
      "d": 1080.7235468750014,
      "v": 82
    },
    {
      "midi": 71,
      "hit": false,
      "t": 6733.595937500001,
      "d": 364.5814375,
      "v": 100
    },
    {
      "midi": 72,
      "hit": false,
      "t": 7090.736937500001,
      "d": 208.33225000000039,
      "v": 100
    },
    {
      "midi": 71,
      "hit": false,
      "t": 7269.3074375000015,
      "d": 189.7311562499999,
      "v": 105
    },
    {
      "midi": 69,
      "hit": false,
      "t": 7449.738046875002,
      "d": 171.13006250000035,
      "v": 100
    },
    {
      "midi": 67,
      "hit": false,
      "t": 7619.008000000002,
      "d": 199.0317031250006,
      "v": 93
    },
    {
      "midi": 66,
      "hit": false,
      "t": 7805.018937500002,
      "d": 360.86121875000117,
      "v": 102
    },
    {
      "midi": 62,
      "hit": false,
      "t": 7806.879046875002,
      "d": 375.742093750001,
      "v": 89
    },
    {
      "midi": 67,
      "hit": false,
      "t": 8158.439718750003,
      "d": 197.17159375000028,
      "v": 100
    },
    {
      "midi": 59,
      "hit": false,
      "t": 8165.880156250003,
      "d": 368.3016562499997,
      "v": 85
    },
    {
      "midi": 69,
      "hit": false,
      "t": 8337.010218750003,
      "d": 202.75192187499852,
      "v": 98
    },
    {
      "midi": 71,
      "hit": false,
      "t": 8515.580718750003,
      "d": 176.7103906249995,
      "v": 91
    },
    {
      "midi": 55,
      "hit": false,
      "t": 8521.161046875002,
      "d": 360.86121875000026,
      "v": 78
    },
    {
      "midi": 67,
      "hit": false,
      "t": 8688.570890625002,
      "d": 195.31148437500087,
      "v": 98
    },
    {
      "midi": 71,
      "hit": false,
      "t": 8874.581828125003,
      "d": 381.3224218749983,
      "v": 107
    },
    {
      "midi": 62,
      "hit": false,
      "t": 8893.182921875003,
      "d": 355.2808906249993,
      "v": 87
    },
    {
      "midi": 69,
      "hit": false,
      "t": 9242.883484375003,
      "d": 481.76832812499924,
      "v": 105
    },
    {
      "midi": 50,
      "hit": false,
      "t": 9254.044140625001,
      "d": 171.13006250000035,
      "v": 98
    },
    {
      "midi": 60,
      "hit": false,
      "t": 9408.433218750002,
      "d": 197.17159374999937,
      "v": 87
    },
    {
      "midi": 59,
      "hit": false,
      "t": 9590.7239375,
      "d": 184.15082812500077,
      "v": 85
    },
    {
      "midi": 57,
      "hit": false,
      "t": 9765.574218750002,
      "d": 202.75192187499852,
      "v": 70
    },
    {
      "midi": 74,
      "hit": false,
      "t": 9951.585156250001,
      "d": 325.51914062499964,
      "v": 107
    },
    {
      "midi": 59,
      "hit": false,
      "t": 9957.165484375,
      "d": 710.5617812500004,
      "v": 91
    },
    {
      "midi": 67,
      "hit": false,
      "t": 10295.705390625,
      "d": 169.26995312500003,
      "v": 100
    },
    {
      "midi": 69,
      "hit": false,
      "t": 10472.41578125,
      "d": 178.5704999999998,
      "v": 100
    },
    {
      "midi": 71,
      "hit": false,
      "t": 10647.266062499999,
      "d": 191.59126562500205,
      "v": 98
    },
    {
      "midi": 57,
      "hit": false,
      "t": 10665.86715625,
      "d": 385.0426406250008,
      "v": 68
    },
    {
      "midi": 72,
      "hit": false,
      "t": 10827.696671875,
      "d": 208.33224999999948,
      "v": 87
    },
    {
      "midi": 74,
      "hit": false,
      "t": 11006.267171875,
      "d": 104.16612499999974,
      "v": 102
    },
    {
      "midi": 55,
      "hit": false,
      "t": 11039.749140625001,
      "d": 368.3016562499997,
      "v": 76
    },
    {
      "midi": 67,
      "hit": false,
      "t": 11367.128390625001,
      "d": 89.285249999999,
      "v": 100
    },
    {
      "midi": 59,
      "hit": false,
      "t": 11404.330578125,
      "d": 351.5606718750005,
      "v": 66
    },
    {
      "midi": 67,
      "hit": false,
      "t": 11733.5699375,
      "d": 74.40437500000007,
      "v": 98
    },
    {
      "midi": 55,
      "hit": false,
      "t": 11737.290156250001,
      "d": 345.9803437499995,
      "v": 72
    },
    {
      "midi": 60,
      "hit": false,
      "t": 12083.2705,
      "d": 1099.324640625,
      "v": 82
    },
    {
      "midi": 76,
      "hit": false,
      "t": 12086.990718750001,
      "d": 355.2808906250011,
      "v": 110
    },
    {
      "midi": 72,
      "hit": false,
      "t": 12438.551390625002,
      "d": 178.5704999999998,
      "v": 100
    },
    {
      "midi": 74,
      "hit": false,
      "t": 12617.121890625001,
      "d": 186.01093749999927,
      "v": 87
    },
    {
      "midi": 76,
      "hit": false,
      "t": 12795.692390625001,
      "d": 186.01093749999927,
      "v": 100
    },
    {
      "midi": 78,
      "hit": false,
      "t": 12970.542671875,
      "d": 212.05246875000012,
      "v": 105
    },
    {
      "midi": 79,
      "hit": false,
      "t": 13160.273828125,
      "d": 94.86557812499996,
      "v": 100
    },
    {
      "midi": 59,
      "hit": false,
      "t": 13167.714265625,
      "d": 385.0426406250008,
      "v": 89
    },
    {
      "midi": 67,
      "hit": false,
      "t": 13528.575484375,
      "d": 83.70492187499985,
      "v": 91
    },
    {
      "midi": 60,
      "hit": false,
      "t": 13549.0366875,
      "d": 176.7103906250013,
      "v": 82
    },
    {
      "midi": 59,
      "hit": false,
      "t": 13699.705546875,
      "d": 174.850281250001,
      "v": 72
    },
    {
      "midi": 57,
      "hit": false,
      "t": 13867.115390625002,
      "d": 176.71039062499767,
      "v": 70
    },
    {
      "midi": 67,
      "hit": false,
      "t": 13880.13615625,
      "d": 66.96393750000061,
      "v": 100
    },
    {
      "midi": 55,
      "hit": false,
      "t": 14027.084796875,
      "d": 197.17159374999937,
      "v": 66
    },
    {
      "midi": 72,
      "hit": false,
      "t": 14214.95584375,
      "d": 364.5814374999991,
      "v": 100
    },
    {
      "midi": 57,
      "hit": false,
      "t": 14220.536171875,
      "d": 753.3442968750023,
      "v": 66
    },
    {
      "midi": 74,
      "hit": false,
      "t": 14573.956953125,
      "d": 210.1923593749998,
      "v": 93
    },
    {
      "midi": 72,
      "hit": false,
      "t": 14758.107781249999,
      "d": 212.05246875000194,
      "v": 82
    },
    {
      "midi": 71,
      "hit": false,
      "t": 14944.11871875,
      "d": 178.57050000000163,
      "v": 91
    },
    {
      "midi": 54,
      "hit": false,
      "t": 14955.279375,
      "d": 368.30165625000154,
      "v": 87
    },
    {
      "midi": 69,
      "hit": false,
      "t": 15115.248781250002,
      "d": 208.33224999999948,
      "v": 82
    },
    {
      "midi": 71,
      "hit": false,
      "t": 15306.840046875002,
      "d": 364.5814374999991,
      "v": 100
    },
    {
      "midi": 72,
      "hit": false,
      "t": 15660.260828125001,
      "d": 210.1923593749998,
      "v": 89
    },
    {
      "midi": 71,
      "hit": false,
      "t": 15851.852093750002,
      "d": 186.01093749999927,
      "v": 100
    },
    {
      "midi": 59,
      "hit": false,
      "t": 16011.821500000002,
      "d": 394.34318749999875,
      "v": 85
    },
    {
      "midi": 69,
      "hit": false,
      "t": 16030.422593750001,
      "d": 171.13006250000035,
      "v": 91
    },
    {
      "midi": 67,
      "hit": false,
      "t": 16197.832437500001,
      "d": 180.43060937500013,
      "v": 89
    },
    {
      "midi": 69,
      "hit": false,
      "t": 16376.402937500001,
      "d": 366.44154687500304,
      "v": 98
    },
    {
      "midi": 60,
      "hit": false,
      "t": 16380.123156250002,
      "d": 353.4207812500008,
      "v": 80
    },
    {
      "midi": 71,
      "hit": false,
      "t": 16731.683828125002,
      "d": 200.89181250000183,
      "v": 93
    },
    {
      "midi": 62,
      "hit": false,
      "t": 16739.124265625003,
      "d": 357.14100000000326,
      "v": 80
    },
    {
      "midi": 69,
      "hit": false,
      "t": 16912.114437500004,
      "d": 180.43060937500195,
      "v": 91
    },
    {
      "midi": 67,
      "hit": false,
      "t": 17088.824828125005,
      "d": 186.0109375000029,
      "v": 93
    },
    {
      "midi": 50,
      "hit": false,
      "t": 17090.684937500006,
      "d": 377.60220312500314,
      "v": 82
    },
    {
      "midi": 66,
      "hit": false,
      "t": 17250.654343750008,
      "d": 206.4721406250028,
      "v": 98
    },
    {
      "midi": 55,
      "hit": false,
      "t": 17453.40626562501,
      "d": 716.1421093749996,
      "v": 70
    },
    {
      "midi": 67,
      "hit": false,
      "t": 17457.12648437501,
      "d": 721.7224375000005,
      "v": 107
    },
    {
      "midi": 43,
      "hit": false,
      "t": 18171.40848437501,
      "d": 115.32678125000166,
      "v": 85
    },
    {
      "midi": 59,
      "hit": false,
      "t": 18517.38882812501,
      "d": 718.0022187499999,
      "v": 64
    },
    {
      "midi": 74,
      "hit": false,
      "t": 18519.24893750001,
      "d": 345.98034375000134,
      "v": 110
    },
    {
      "midi": 55,
      "hit": false,
      "t": 18521.10904687501,
      "d": 734.7432031249991,
      "v": 60
    },
    {
      "midi": 62,
      "hit": false,
      "t": 18524.829265625012,
      "d": 708.7016718749983,
      "v": 60
    },
    {
      "midi": 67,
      "hit": false,
      "t": 18874.529828125014,
      "d": 165.5497343749994,
      "v": 100
    },
    {
      "midi": 69,
      "hit": false,
      "t": 19054.960437500013,
      "d": 178.570499999998,
      "v": 100
    },
    {
      "midi": 57,
      "hit": false,
      "t": 19218.65006250001,
      "d": 383.1825312499932,
      "v": 74
    },
    {
      "midi": 71,
      "hit": false,
      "t": 19229.81071875001,
      "d": 184.15082812499895,
      "v": 93
    },
    {
      "midi": 72,
      "hit": false,
      "t": 19402.80089062501,
      "d": 199.03170312499424,
      "v": 98
    },
    {
      "midi": 74,
      "hit": false,
      "t": 19577.651171875008,
      "d": 96.72568749999846,
      "v": 102
    },
    {
      "midi": 59,
      "hit": false,
      "t": 19588.811828125006,
      "d": 1084.443765625001,
      "v": 85
    },
    {
      "midi": 67,
      "hit": false,
      "t": 19938.51239062501,
      "d": 81.84481249999953,
      "v": 100
    },
    {
      "midi": 67,
      "hit": false,
      "t": 20308.674156250006,
      "d": 66.96393750000061,
      "v": 100
    },
    {
      "midi": 76,
      "hit": false,
      "t": 20665.815156250006,
      "d": 359.00110937499994,
      "v": 105
    },
    {
      "midi": 60,
      "hit": false,
      "t": 20667.675265625006,
      "d": 1073.2831093750028,
      "v": 85
    },
    {
      "midi": 72,
      "hit": false,
      "t": 21024.816265625006,
      "d": 174.850281250001,
      "v": 95
    },
    {
      "midi": 74,
      "hit": false,
      "t": 21199.666546875007,
      "d": 167.4098437499997,
      "v": 82
    },
    {
      "midi": 76,
      "hit": false,
      "t": 21359.635953125005,
      "d": 195.31148437500087,
      "v": 91
    },
    {
      "midi": 78,
      "hit": false,
      "t": 21547.507000000005,
      "d": 215.7726875000044,
      "v": 102
    },
    {
      "midi": 59,
      "hit": false,
      "t": 21726.077500000007,
      "d": 1084.443765625001,
      "v": 78
    },
    {
      "midi": 79,
      "hit": false,
      "t": 21733.517937500008,
      "d": 107.88634375000038,
      "v": 98
    },
    {
      "midi": 67,
      "hit": false,
      "t": 22090.658937500008,
      "d": 85.56503125000017,
      "v": 100
    },
    {
      "midi": 67,
      "hit": false,
      "t": 22447.799937500007,
      "d": 70.68415625000125,
      "v": 91
    },
    {
      "midi": 57,
      "hit": false,
      "t": 22791.92017187501,
      "d": 1090.024093750002,
      "v": 78
    },
    {
      "midi": 72,
      "hit": false,
      "t": 22803.080828125007,
      "d": 370.16176562500186,
      "v": 100
    },
    {
      "midi": 74,
      "hit": false,
      "t": 23169.522375000008,
      "d": 189.7311562499999,
      "v": 95
    },
    {
      "midi": 72,
      "hit": false,
      "t": 23336.932218750007,
      "d": 210.1923593749998,
      "v": 85
    },
    {
      "midi": 71,
      "hit": false,
      "t": 23521.083046875006,
      "d": 172.99017187500067,
      "v": 98
    },
    {
      "midi": 69,
      "hit": false,
      "t": 23688.492890625006,
      "d": 204.61203125000247,
      "v": 85
    },
    {
      "midi": 71,
      "hit": false,
      "t": 23868.923500000008,
      "d": 351.5606718750023,
      "v": 95
    },
    {
      "midi": 55,
      "hit": false,
      "t": 23872.64371875001,
      "d": 1075.1432187499995,
      "v": 70
    },
    {
      "midi": 72,
      "hit": false,
      "t": 24211.18362500001,
      "d": 221.35301562500172,
      "v": 82
    },
    {
      "midi": 71,
      "hit": false,
      "t": 24412.07543750001,
      "d": 186.01093749999927,
      "v": 85
    },
    {
      "midi": 69,
      "hit": false,
      "t": 24581.34539062501,
      "d": 182.29071874999863,
      "v": 93
    },
    {
      "midi": 67,
      "hit": false,
      "t": 24752.47545312501,
      "d": 200.8918124999982,
      "v": 80
    },
    {
      "midi": 66,
      "hit": false,
      "t": 24934.76617187501,
      "d": 364.5814375000009,
      "v": 100
    },
    {
      "midi": 62,
      "hit": false,
      "t": 24945.926828125008,
      "d": 379.46231250000346,
      "v": 87
    },
    {
      "midi": 67,
      "hit": false,
      "t": 25291.90717187501,
      "d": 193.45137500000055,
      "v": 98
    },
    {
      "midi": 59,
      "hit": false,
      "t": 25306.78804687501,
      "d": 381.3224218749965,
      "v": 66
    },
    {
      "midi": 69,
      "hit": false,
      "t": 25470.47767187501,
      "d": 195.31148437499724,
      "v": 85
    },
    {
      "midi": 71,
      "hit": false,
      "t": 25645.32795312501,
      "d": 174.850281250001,
      "v": 87
    },
    {
      "midi": 55,
      "hit": false,
      "t": 25663.929046875008,
      "d": 360.8612187500039,
      "v": 72
    },
    {
      "midi": 67,
      "hit": false,
      "t": 25827.61867187501,
      "d": 189.7311562499999,
      "v": 93
    },
    {
      "midi": 71,
      "hit": false,
      "t": 26006.189171875012,
      "d": 375.7420937500028,
      "v": 102
    },
    {
      "midi": 62,
      "hit": false,
      "t": 26026.650375000012,
      "d": 195.31148437500087,
      "v": 82
    },
    {
      "midi": 69,
      "hit": false,
      "t": 26378.211046875014,
      "d": 546.8721562500032,
      "v": 100
    },
    {
      "midi": 50,
      "hit": false,
      "t": 26385.651484375016,
      "d": 167.4098437499997,
      "v": 87
    },
    {
      "midi": 60,
      "hit": false,
      "t": 26545.620890625014,
      "d": 204.61203125000247,
      "v": 87
    },
    {
      "midi": 59,
      "hit": false,
      "t": 26729.771718750017,
      "d": 187.8710468749996,
      "v": 72
    },
    {
      "midi": 57,
      "hit": false,
      "t": 26910.202328125015,
      "d": 204.61203124999884,
      "v": 68
    },
    {
      "midi": 74,
      "hit": false,
      "t": 27088.772828125017,
      "d": 338.5399062499964,
      "v": 105
    },
    {
      "midi": 59,
      "hit": false,
      "t": 27099.933484375015,
      "d": 716.1421093749959,
      "v": 85
    },
    {
      "midi": 67,
      "hit": false,
      "t": 27445.913828125013,
      "d": 171.13006250000035,
      "v": 91
    },
    {
      "midi": 69,
      "hit": false,
      "t": 27628.20454687501,
      "d": 187.8710468749996,
      "v": 87
    },
    {
      "midi": 57,
      "hit": false,
      "t": 27801.19471875001,
      "d": 383.1825312499968,
      "v": 74
    },
    {
      "midi": 71,
      "hit": false,
      "t": 27812.35537500001,
      "d": 186.01093749999927,
      "v": 89
    },
    {
      "midi": 72,
      "hit": false,
      "t": 27983.48543750001,
      "d": 212.05246874999648,
      "v": 87
    },
    {
      "midi": 74,
      "hit": false,
      "t": 28162.05593750001,
      "d": 109.74645312499706,
      "v": 102
    },
    {
      "midi": 55,
      "hit": false,
      "t": 28169.49637500001,
      "d": 355.28089062499566,
      "v": 78
    },
    {
      "midi": 59,
      "hit": false,
      "t": 28521.057046875005,
      "d": 360.8612187500039,
      "v": 72
    },
    {
      "midi": 67,
      "hit": false,
      "t": 28522.917156250005,
      "d": 79.98470312499921,
      "v": 95
    },
    {
      "midi": 67,
      "hit": false,
      "t": 28867.037390625006,
      "d": 66.96393750000425,
      "v": 102
    },
    {
      "midi": 55,
      "hit": false,
      "t": 28874.477828125007,
      "d": 360.8612187500039,
      "v": 72
    },
    {
      "midi": 76,
      "hit": false,
      "t": 29239.059265625012,
      "d": 359.00110937499994,
      "v": 105
    },
    {
      "midi": 60,
      "hit": false,
      "t": 29239.059265625012,
      "d": 1062.1224531250045,
      "v": 82
    },
    {
      "midi": 72,
      "hit": false,
      "t": 29599.920484375012,
      "d": 172.99017187500067,
      "v": 100
    },
    {
      "midi": 74,
      "hit": false,
      "t": 29767.330328125012,
      "d": 187.87104687500323,
      "v": 89
    },
    {
      "midi": 76,
      "hit": false,
      "t": 29951.481156250014,
      "d": 171.13006250000035,
      "v": 98
    },
    {
      "midi": 78,
      "hit": false,
      "t": 30115.170781250014,
      "d": 206.4721406250028,
      "v": 100
    },
    {
      "midi": 59,
      "hit": false,
      "t": 30295.601390625015,
      "d": 383.18253125000047,
      "v": 82
    },
    {
      "midi": 79,
      "hit": false,
      "t": 30308.622156250018,
      "d": 102.30601562499942,
      "v": 100
    },
    {
      "midi": 67,
      "hit": false,
      "t": 30654.602500000015,
      "d": 78.1245937499989,
      "v": 91
    },
    {
      "midi": 60,
      "hit": false,
      "t": 30669.483375000014,
      "d": 186.0109375000029,
      "v": 85
    },
    {
      "midi": 59,
      "hit": false,
      "t": 30827.592671875016,
      "d": 187.8710468749996,
      "v": 70
    },
    {
      "midi": 57,
      "hit": false,
      "t": 30995.002515625016,
      "d": 184.1508281250026,
      "v": 70
    },
    {
      "midi": 67,
      "hit": false,
      "t": 31006.163171875014,
      "d": 72.54426562500157,
      "v": 91
    },
    {
      "midi": 55,
      "hit": false,
      "t": 31171.712906250017,
      "d": 200.89181250000183,
      "v": 66
    },
    {
      "midi": 72,
      "hit": false,
      "t": 31350.28340625002,
      "d": 368.30165625000154,
      "v": 98
    },
    {
      "midi": 57,
      "hit": false,
      "t": 31374.46482812502,
      "d": 745.9038593749974,
      "v": 72
    },
    {
      "midi": 74,
      "hit": false,
      "t": 31718.58506250002,
      "d": 197.17159374999756,
      "v": 87
    },
    {
      "midi": 72,
      "hit": false,
      "t": 31899.01567187502,
      "d": 206.47214062499916,
      "v": 82
    },
    {
      "midi": 71,
      "hit": false,
      "t": 32072.00584375002,
      "d": 189.7311562499999,
      "v": 91
    },
    {
      "midi": 54,
      "hit": false,
      "t": 32086.88671875002,
      "d": 353.4207812500026,
      "v": 63
    },
    {
      "midi": 69,
      "hit": false,
      "t": 32252.436453125018,
      "d": 197.17159375000483,
      "v": 78
    },
    {
      "midi": 71,
      "hit": false,
      "t": 32436.58728125002,
      "d": 359.0011093750036,
      "v": 98
    },
    {
      "midi": 55,
      "hit": false,
      "t": 32436.58728125002,
      "d": 731.0229843750094,
      "v": 76
    },
    {
      "midi": 72,
      "hit": false,
      "t": 32784.42773437502,
      "d": 221.35301562500536,
      "v": 85
    },
    {
      "midi": 71,
      "hit": false,
      "t": 32974.158890625025,
      "d": 195.31148437500087,
      "v": 91
    },
    {
      "midi": 69,
      "hit": false,
      "t": 33150.86928125003,
      "d": 189.73115624999627,
      "v": 98
    },
    {
      "midi": 59,
      "hit": false,
      "t": 33165.75015625003,
      "d": 379.46231249999255,
      "v": 82
    },
    {
      "midi": 67,
      "hit": false,
      "t": 33329.439781250025,
      "d": 186.0109375000029,
      "v": 78
    },
    {
      "midi": 69,
      "hit": false,
      "t": 33508.010281250026,
      "d": 364.58143749999726,
      "v": 87
    },
    {
      "midi": 60,
      "hit": false,
      "t": 33522.89115625003,
      "d": 360.8612187499966,
      "v": 68
    },
    {
      "midi": 71,
      "hit": false,
      "t": 33865.15128125002,
      "d": 210.19235937500343,
      "v": 85
    },
    {
      "midi": 62,
      "hit": false,
      "t": 33885.61248437502,
      "d": 349.700562500002,
      "v": 80
    },
    {
      "midi": 69,
      "hit": false,
      "t": 34051.162218750025,
      "d": 186.01093749999563,
      "v": 87
    },
    {
      "midi": 67,
      "hit": false,
      "t": 34235.313046875024,
      "d": 180.4306093749983,
      "v": 93
    },
    {
      "midi": 50,
      "hit": false,
      "t": 34239.03326562502,
      "d": 355.2808906250066,
      "v": 93
    },
    {
      "midi": 66,
      "hit": false,
      "t": 34400.86278125002,
      "d": 208.33225000000675,
      "v": 82
    },
    {
      "midi": 55,
      "hit": false,
      "t": 34590.59393750002,
      "d": 719.8623281250038,
      "v": 85
    },
    {
      "midi": 67,
      "hit": false,
      "t": 34598.034375000025,
      "d": 701.2612343750006,
      "v": 102
    },
    {
      "midi": 43,
      "hit": false,
      "t": 35317.89670312503,
      "d": 345.98034375000134,
      "v": 85
    },
    {
      "midi": 55,
      "hit": false,
      "t": 35665.73715625003,
      "d": 1091.884203124995,
      "v": 100
    },
    {
      "midi": 83,
      "hit": false,
      "t": 35671.317484375024,
      "d": 351.56067187499866,
      "v": 113
    },
    {
      "midi": 79,
      "hit": false,
      "t": 36024.73826562502,
      "d": 172.99017187499703,
      "v": 100
    },
    {
      "midi": 81,
      "hit": false,
      "t": 36201.44865625002,
      "d": 208.33224999999948,
      "v": 102
    },
    {
      "midi": 83,
      "hit": false,
      "t": 36380.01915625002,
      "d": 174.850281250001,
      "v": 98
    },
    {
      "midi": 79,
      "hit": false,
      "t": 36558.58965625002,
      "d": 184.15082812499895,
      "v": 100
    },
    {
      "midi": 54,
      "hit": false,
      "t": 36737.16015625002,
      "d": 1047.2415781249874,
      "v": 76
    },
    {
      "midi": 81,
      "hit": false,
      "t": 36740.88037500002,
      "d": 331.0994687499988,
      "v": 102
    },
    {
      "midi": 74,
      "hit": false,
      "t": 37077.56017187502,
      "d": 193.45137499999691,
      "v": 98
    },
    {
      "midi": 76,
      "hit": false,
      "t": 37257.99078125002,
      "d": 204.61203124999884,
      "v": 95
    },
    {
      "midi": 78,
      "hit": false,
      "t": 37432.84106250002,
      "d": 178.57049999999435,
      "v": 91
    },
    {
      "midi": 74,
      "hit": false,
      "t": 37611.41156250001,
      "d": 187.8710468749996,
      "v": 87
    },
    {
      "midi": 52,
      "hit": false,
      "t": 37788.12195312501,
      "d": 373.8819843749952,
      "v": 85
    },
    {
      "midi": 79,
      "hit": false,
      "t": 37801.14271875001,
      "d": 340.40001562499674,
      "v": 100
    },
    {
      "midi": 76,
      "hit": false,
      "t": 38147.1230625,
      "d": 200.8918124999982,
      "v": 91
    },
    {
      "midi": 55,
      "hit": false,
      "t": 38154.563500000004,
      "d": 368.3016562499979,
      "v": 68
    },
    {
      "midi": 78,
      "hit": false,
      "t": 38321.97334375,
      "d": 204.61203124999884,
      "v": 91
    },
    {
      "midi": 79,
      "hit": false,
      "t": 38504.2640625,
      "d": 163.68962500000634,
      "v": 93
    },
    {
      "midi": 52,
      "hit": false,
      "t": 38507.98428125,
      "d": 355.2808906250066,
      "v": 66
    },
    {
      "midi": 74,
      "hit": false,
      "t": 38675.394125000006,
      "d": 208.33224999999948,
      "v": 91
    },
    {
      "midi": 57,
      "hit": false,
      "t": 38861.40506250001,
      "d": 753.344296874995,
      "v": 82
    },
    {
      "midi": 73,
      "hit": false,
      "t": 38870.70560937501,
      "d": 362.7213281249933,
      "v": 102
    },
    {
      "midi": 71,
      "hit": false,
      "t": 39231.566828125004,
      "d": 195.31148437500087,
      "v": 95
    },
    {
      "midi": 73,
      "hit": false,
      "t": 39408.27721875,
      "d": 178.57050000000163,
      "v": 100
    },
    {
      "midi": 69,
      "hit": false,
      "t": 39586.84771875,
      "d": 98.58579687499878,
      "v": 100
    },
    {
      "midi": 45,
      "hit": false,
      "t": 39616.60946875,
      "d": 338.53990625000006,
      "v": 80
    },
    {
      "midi": 69,
      "hit": false,
      "t": 39951.42915625,
      "d": 195.31148437500087,
      "v": 102
    },
    {
      "midi": 57,
      "hit": false,
      "t": 39957.009484375,
      "d": 1043.5213593750013,
      "v": 89
    },
    {
      "midi": 71,
      "hit": false,
      "t": 40131.859765625,
      "d": 189.73115625000355,
      "v": 87
    },
    {
      "midi": 73,
      "hit": false,
      "t": 40302.989828125,
      "d": 174.850281250001,
      "v": 85
    },
    {
      "midi": 74,
      "hit": false,
      "t": 40477.840109375,
      "d": 208.33224999999948,
      "v": 100
    },
    {
      "midi": 76,
      "hit": false,
      "t": 40661.9909375,
      "d": 189.73115625000355,
      "v": 98
    },
    {
      "midi": 78,
      "hit": false,
      "t": 40831.260890625,
      "d": 199.0317031250015,
      "v": 98
    },
    {
      "midi": 79,
      "hit": false,
      "t": 41007.97128125,
      "d": 91.1453593749975,
      "v": 89
    },
    {
      "midi": 59,
      "hit": false,
      "t": 41011.6915,
      "d": 85.56503125000017,
      "v": 85
    },
    {
      "midi": 78,
      "hit": false,
      "t": 41357.671843749995,
      "d": 83.70492187500349,
      "v": 107
    },
    {
      "midi": 62,
      "hit": false,
      "t": 41372.55271875,
      "d": 76.26448437500221,
      "v": 85
    },
    {
      "midi": 76,
      "hit": false,
      "t": 41731.553828125,
      "d": 74.40437499999825,
      "v": 102
    },
    {
      "midi": 61,
      "hit": false,
      "t": 41735.274046875,
      "d": 78.1245937499989,
      "v": 80
    },
    {
      "midi": 62,
      "hit": false,
      "t": 42084.974609375,
      "d": 85.56503125000017,
      "v": 85
    },
    {
      "midi": 78,
      "hit": false,
      "t": 42088.694828125,
      "d": 59.52350000000297,
      "v": 105
    },
    {
      "midi": 54,
      "hit": false,
      "t": 42440.2555,
      "d": 78.1245937499989,
      "v": 78
    },
    {
      "midi": 69,
      "hit": false,
      "t": 42445.835828125,
      "d": 63.24371875000361,
      "v": 102
    },
    {
      "midi": 57,
      "hit": false,
      "t": 42797.396499999995,
      "d": 63.24371874999633,
      "v": 76
    },
    {
      "midi": 73,
      "hit": false,
      "t": 42806.69704687499,
      "d": 52.08306250000169,
      "v": 107
    },
    {
      "midi": 62,
      "hit": false,
      "t": 43152.677390624995,
      "d": 375.7420937499992,
      "v": 89
    },
    {
      "midi": 74,
      "hit": false,
      "t": 43156.397609374995,
      "d": 749.6240781249944,
      "v": 105
    },
    {
      "midi": 50,
      "hit": false,
      "t": 43530.27959374999,
      "d": 338.53990625000006,
      "v": 85
    },
    {
      "midi": 60,
      "hit": false,
      "t": 43861.37906249999,
      "d": 375.74209375000646,
      "v": 87
    },
    {
      "midi": 74,
      "hit": false,
      "t": 44218.52006249999,
      "d": 342.2601250000007,
      "v": 107
    },
    {
      "midi": 59,
      "hit": false,
      "t": 44225.960499999994,
      "d": 370.1617656249946,
      "v": 76
    },
    {
      "midi": 67,
      "hit": false,
      "t": 44586.82171874999,
      "d": 184.15082812499895,
      "v": 102
    },
    {
      "midi": 62,
      "hit": false,
      "t": 44588.68182812499,
      "d": 710.5617812499986,
      "v": 82
    },
    {
      "midi": 66,
      "hit": false,
      "t": 44756.09167187499,
      "d": 187.8710468749996,
      "v": 87
    },
    {
      "midi": 67,
      "hit": false,
      "t": 44943.96271874999,
      "d": 113.46667187500134,
      "v": 105
    },
    {
      "midi": 59,
      "hit": false,
      "t": 44943.96271874999,
      "d": 357.140999999996,
      "v": 62
    },
    {
      "midi": 76,
      "hit": false,
      "t": 45295.523390624985,
      "d": 329.2393593749948,
      "v": 105
    },
    {
      "midi": 60,
      "hit": false,
      "t": 45299.243609374986,
      "d": 595.2349999999933,
      "v": 78
    },
    {
      "midi": 67,
      "hit": false,
      "t": 45643.36384374998,
      "d": 200.8918124999982,
      "v": 100
    },
    {
      "midi": 64,
      "hit": false,
      "t": 45647.084062499984,
      "d": 379.4623124999853,
      "v": 87
    },
    {
      "midi": 66,
      "hit": false,
      "t": 45821.934343749985,
      "d": 193.45137499998964,
      "v": 89
    },
    {
      "midi": 67,
      "hit": false,
      "t": 46013.52560937498,
      "d": 124.62732812498871,
      "v": 102
    },
    {
      "midi": 60,
      "hit": false,
      "t": 46017.24582812497,
      "d": 357.140999999996,
      "v": 70
    },
    {
      "midi": 59,
      "hit": false,
      "t": 46353.92562499997,
      "d": 377.60220312500314,
      "v": 66
    },
    {
      "midi": 74,
      "hit": false,
      "t": 46365.08628124997,
      "d": 109.7464531250007,
      "v": 100
    },
    {
      "midi": 72,
      "hit": false,
      "t": 46709.20651562497,
      "d": 375.7420937499992,
      "v": 87
    },
    {
      "midi": 57,
      "hit": false,
      "t": 46724.08739062497,
      "d": 366.44154687499395,
      "v": 63
    },
    {
      "midi": 71,
      "hit": false,
      "t": 47083.08849999997,
      "d": 360.86121874998935,
      "v": 85
    },
    {
      "midi": 55,
      "hit": false,
      "t": 47088.668828124966,
      "d": 342.2601249999934,
      "v": 68
    },
    {
      "midi": 62,
      "hit": false,
      "t": 47430.92895312496,
      "d": 706.841562499998,
      "v": 85
    },
    {
      "midi": 69,
      "hit": false,
      "t": 47443.94971874996,
      "d": 204.61203124999884,
      "v": 98
    },
    {
      "midi": 67,
      "hit": false,
      "t": 47615.07978124996,
      "d": 204.61203124999884,
      "v": 87
    },
    {
      "midi": 66,
      "hit": false,
      "t": 47802.95082812496,
      "d": 191.59126562500023,
      "v": 78
    },
    {
      "midi": 67,
      "hit": false,
      "t": 47974.08089062496,
      "d": 212.05246875000012,
      "v": 91
    },
    {
      "midi": 69,
      "hit": false,
      "t": 48156.37160937496,
      "d": 89.28525000000081,
      "v": 105
    },
    {
      "midi": 62,
      "hit": false,
      "t": 48502.35195312496,
      "d": 200.8918124999982,
      "v": 93
    },
    {
      "midi": 50,
      "hit": false,
      "t": 48511.65249999996,
      "d": 710.5617812500059,
      "v": 87
    },
    {
      "midi": 64,
      "hit": false,
      "t": 48692.08310937496,
      "d": 191.5912656250075,
      "v": 87
    },
    {
      "midi": 66,
      "hit": false,
      "t": 48868.79349999996,
      "d": 174.850281250001,
      "v": 85
    },
    {
      "midi": 67,
      "hit": false,
      "t": 49036.20334374996,
      "d": 208.33224999999948,
      "v": 89
    },
    {
      "midi": 69,
      "hit": false,
      "t": 49222.214281249966,
      "d": 212.05246874999284,
      "v": 87
    },
    {
      "midi": 54,
      "hit": false,
      "t": 49227.79460937496,
      "d": 372.02187499999854,
      "v": 87
    },
    {
      "midi": 71,
      "hit": false,
      "t": 49400.78478124996,
      "d": 212.05246875000012,
      "v": 93
    },
    {
      "midi": 72,
      "hit": false,
      "t": 49588.65582812496,
      "d": 381.32242187498923,
      "v": 91
    },
    {
      "midi": 52,
      "hit": false,
      "t": 49599.81648437496,
      "d": 87.42514062499686,
      "v": 91
    },
    {
      "midi": 55,
      "hit": false,
      "t": 49945.796828124956,
      "d": 83.70492187499622,
      "v": 85
    },
    {
      "midi": 71,
      "hit": false,
      "t": 49947.65693749995,
      "d": 81.84481249999953,
      "v": 100
    },
    {
      "midi": 54,
      "hit": false,
      "t": 50299.21760937495,
      "d": 70.68415624999761,
      "v": 78
    },
    {
      "midi": 69,
      "hit": false,
      "t": 50302.93782812495,
      "d": 79.98470312499558,
      "v": 91
    },
    {
      "midi": 71,
      "hit": false,
      "t": 50632.17718749995,
      "d": 197.17159374999756,
      "v": 93
    },
    {
      "midi": 55,
      "hit": false,
      "t": 50654.49849999994,
      "d": 355.2808906249993,
      "v": 82
    },
    {
      "midi": 74,
      "hit": false,
      "t": 50829.348781249944,
      "d": 180.4306093749983,
      "v": 93
    },
    {
      "midi": 47,
      "hit": false,
      "t": 50996.758624999944,
      "d": 74.40437499999825,
      "v": 74
    },
    {
      "midi": 67,
      "hit": false,
      "t": 51009.77939062494,
      "d": 83.70492187499622,
      "v": 100
    },
    {
      "midi": 50,
      "hit": false,
      "t": 51357.61984374994,
      "d": 65.10382812500029,
      "v": 85
    },
    {
      "midi": 66,
      "hit": false,
      "t": 51368.78049999994,
      "d": 65.10382812500029,
      "v": 102
    },
    {
      "midi": 55,
      "hit": false,
      "t": 51709.18051562494,
      "d": 76.26448437500221,
      "v": 87
    },
    {
      "midi": 59,
      "hit": false,
      "t": 51718.48106249994,
      "d": 686.3803593750126,
      "v": 95
    },
    {
      "midi": 62,
      "hit": false,
      "t": 51722.20128124994,
      "d": 701.2612343750152,
      "v": 100
    },
    {
      "midi": 67,
      "hit": false,
      "t": 51722.20128124994,
      "d": 712.4218906250171,
      "v": 98
    },
    {
      "midi": 50,
      "hit": false,
      "t": 52081.202390624945,
      "d": 63.24371875000361,
      "v": 82
    },
    {
      "midi": 43,
      "hit": false,
      "t": 52423.46251562495,
      "d": 46.502734375004366,
      "v": 85
    },
    {
      "midi": 55,
      "hit": false,
      "t": 52782.46362499996,
      "d": 1110.4852968749983,
      "v": 85
    },
    {
      "midi": 83,
      "hit": false,
      "t": 52799.20460937496,
      "d": 355.2808906249993,
      "v": 110
    },
    {
      "midi": 79,
      "hit": false,
      "t": 53150.76528124996,
      "d": 182.29071875000227,
      "v": 98
    },
    {
      "midi": 81,
      "hit": false,
      "t": 53325.61556249996,
      "d": 212.05246875000012,
      "v": 95
    },
    {
      "midi": 83,
      "hit": false,
      "t": 53509.76639062496,
      "d": 178.57050000000163,
      "v": 95
    },
    {
      "midi": 79,
      "hit": false,
      "t": 53690.19699999996,
      "d": 195.31148437500087,
      "v": 102
    },
    {
      "midi": 81,
      "hit": false,
      "t": 53868.76749999996,
      "d": 347.840453124998,
      "v": 100
    },
    {
      "midi": 54,
      "hit": false,
      "t": 53878.068046874956,
      "d": 1050.9617968750026,
      "v": 85
    },
    {
      "midi": 74,
      "hit": false,
      "t": 54216.607953124956,
      "d": 186.0109375000029,
      "v": 87
    },
    {
      "midi": 76,
      "hit": false,
      "t": 54391.45823437496,
      "d": 208.33224999999948,
      "v": 80
    },
    {
      "midi": 78,
      "hit": false,
      "t": 54566.30851562496,
      "d": 171.13006250000035,
      "v": 85
    },
    {
      "midi": 74,
      "hit": false,
      "t": 54744.87901562496,
      "d": 178.57050000000163,
      "v": 80
    },
    {
      "midi": 52,
      "hit": false,
      "t": 54929.02984374996,
      "d": 372.02187499999854,
      "v": 78
    },
    {
      "midi": 79,
      "hit": false,
      "t": 54930.889953124955,
      "d": 351.56067187499866,
      "v": 102
    },
    {
      "midi": 76,
      "hit": false,
      "t": 55286.170843749955,
      "d": 197.17159374999756,
      "v": 93
    },
    {
      "midi": 55,
      "hit": false,
      "t": 55297.33149999996,
      "d": 379.4623124999998,
      "v": 66
    },
    {
      "midi": 78,
      "hit": false,
      "t": 55453.580687499954,
      "d": 212.05246875000012,
      "v": 89
    },
    {
      "midi": 79,
      "hit": false,
      "t": 55643.31184374995,
      "d": 165.54973437500303,
      "v": 93
    },
    {
      "midi": 52,
      "hit": false,
      "t": 55658.19271874995,
      "d": 345.98034375000134,
      "v": 68
    },
    {
      "midi": 74,
      "hit": false,
      "t": 55818.16212499995,
      "d": 199.03170312499424,
      "v": 91
    },
    {
      "midi": 57,
      "hit": false,
      "t": 56006.03317187495,
      "d": 732.8830937499879,
      "v": 80
    },
    {
      "midi": 73,
      "hit": false,
      "t": 56007.89328124995,
      "d": 351.56067187499866,
      "v": 107
    },
    {
      "midi": 71,
      "hit": false,
      "t": 56352.013515624945,
      "d": 210.19235937499616,
      "v": 89
    },
    {
      "midi": 73,
      "hit": false,
      "t": 56536.164343749944,
      "d": 180.4306093749983,
      "v": 95
    },
    {
      "midi": 69,
      "hit": false,
      "t": 56709.15451562494,
      "d": 126.48743749999267,
      "v": 105
    },
    {
      "midi": 45,
      "hit": false,
      "t": 56740.776374999936,
      "d": 332.95957812499546,
      "v": 76
    },
    {
      "midi": 69,
      "hit": false,
      "t": 57073.73595312493,
      "d": 199.0317031250015,
      "v": 100
    },
    {
      "midi": 57,
      "hit": false,
      "t": 57081.17639062493,
      "d": 1056.542125,
      "v": 87
    },
    {
      "midi": 71,
      "hit": false,
      "t": 57254.16656249993,
      "d": 186.0109375000029,
      "v": 85
    },
    {
      "midi": 73,
      "hit": false,
      "t": 57427.156734374934,
      "d": 186.01093749999563,
      "v": 85
    },
    {
      "midi": 74,
      "hit": false,
      "t": 57611.30756249993,
      "d": 210.19235937499616,
      "v": 98
    },
    {
      "midi": 76,
      "hit": false,
      "t": 57801.03871874993,
      "d": 197.17159375000483,
      "v": 98
    },
    {
      "midi": 78,
      "hit": false,
      "t": 57966.58845312493,
      "d": 212.05246875000012,
      "v": 95
    },
    {
      "midi": 59,
      "hit": false,
      "t": 58135.858406249936,
      "d": 72.5442656249943,
      "v": 85
    },
    {
      "midi": 79,
      "hit": false,
      "t": 58148.879171874934,
      "d": 126.48743749999267,
      "v": 93
    },
    {
      "midi": 62,
      "hit": false,
      "t": 58483.69885937493,
      "d": 79.98470312500285,
      "v": 80
    },
    {
      "midi": 78,
      "hit": false,
      "t": 58491.13929687493,
      "d": 98.58579687499878,
      "v": 102
    },
    {
      "midi": 76,
      "hit": false,
      "t": 58853.86062499993,
      "d": 94.86557812499814,
      "v": 91
    },
    {
      "midi": 61,
      "hit": false,
      "t": 58863.16117187493,
      "d": 74.40437499999825,
      "v": 76
    },
    {
      "midi": 78,
      "hit": false,
      "t": 59201.70107812493,
      "d": 83.70492187500349,
      "v": 102
    },
    {
      "midi": 62,
      "hit": false,
      "t": 59220.30217187493,
      "d": 81.84481249999953,
      "v": 80
    },
    {
      "midi": 54,
      "hit": false,
      "t": 59573.72295312493,
      "d": 70.68415624999761,
      "v": 66
    },
    {
      "midi": 69,
      "hit": false,
      "t": 59575.58306249993,
      "d": 72.54426562500157,
      "v": 102
    },
    {
      "midi": 73,
      "hit": false,
      "t": 59927.14373437493,
      "d": 63.24371875000361,
      "v": 98
    },
    {
      "midi": 57,
      "hit": false,
      "t": 59938.30439062493,
      "d": 59.52350000000297,
      "v": 74
    },
    {
      "midi": 62,
      "hit": false,
      "t": 60288.00495312493,
      "d": 364.58143750000454,
      "v": 78
    },
    {
      "midi": 74,
      "hit": false,
      "t": 60288.00495312493,
      "d": 807.2874687500007,
      "v": 107
    },
    {
      "midi": 50,
      "hit": false,
      "t": 60645.145953124935,
      "d": 359.00110937499994,
      "v": 80
    },
    {
      "midi": 60,
      "hit": false,
      "t": 61002.28695312494,
      "d": 357.140999999996,
      "v": 82
    },
    {
      "midi": 59,
      "hit": false,
      "t": 61346.407187499935,
      "d": 377.60220312499587,
      "v": 74
    },
    {
      "midi": 74,
      "hit": false,
      "t": 61359.427953124934,
      "d": 355.2808906249993,
      "v": 110
    },
    {
      "midi": 62,
      "hit": false,
      "t": 61707.26840624993,
      "d": 734.7432031249991,
      "v": 70
    },
    {
      "midi": 67,
      "hit": false,
      "t": 61724.00939062493,
      "d": 187.8710468749996,
      "v": 98
    },
    {
      "midi": 66,
      "hit": false,
      "t": 61896.99956249993,
      "d": 195.31148437500087,
      "v": 82
    },
    {
      "midi": 59,
      "hit": false,
      "t": 62068.12962499993,
      "d": 370.16176562500186,
      "v": 64
    },
    {
      "midi": 67,
      "hit": false,
      "t": 62084.87060937493,
      "d": 133.92787500000122,
      "v": 98
    },
    {
      "midi": 60,
      "hit": false,
      "t": 62428.99084374993,
      "d": 591.5147812499927,
      "v": 78
    },
    {
      "midi": 76,
      "hit": false,
      "t": 62436.431281249934,
      "d": 349.7005624999947,
      "v": 98
    },
    {
      "midi": 64,
      "hit": false,
      "t": 62776.83129687493,
      "d": 386.90274999999383,
      "v": 70
    },
    {
      "midi": 67,
      "hit": false,
      "t": 62789.85206249993,
      "d": 193.45137499999691,
      "v": 89
    },
    {
      "midi": 66,
      "hit": false,
      "t": 62960.98212499993,
      "d": 191.59126562499296,
      "v": 85
    },
    {
      "midi": 67,
      "hit": false,
      "t": 63150.713281249926,
      "d": 169.2699531249964,
      "v": 98
    },
    {
      "midi": 60,
      "hit": false,
      "t": 63150.713281249926,
      "d": 366.4415468750012,
      "v": 70
    },
    {
      "midi": 74,
      "hit": false,
      "t": 63494.83351562492,
      "d": 390.62296874999447,
      "v": 93
    },
    {
      "midi": 59,
      "hit": false,
      "t": 63505.994171874925,
      "d": 377.60220312499587,
      "v": 70
    },
    {
      "midi": 72,
      "hit": false,
      "t": 63861.275062499924,
      "d": 364.58143749999726,
      "v": 85
    },
    {
      "midi": 57,
      "hit": false,
      "t": 63866.85539062492,
      "d": 359.00110937499994,
      "v": 74
    },
    {
      "midi": 71,
      "hit": false,
      "t": 64214.69584374992,
      "d": 353.4207812500026,
      "v": 85
    },
    {
      "midi": 55,
      "hit": false,
      "t": 64225.85649999992,
      "d": 372.02187499999854,
      "v": 78
    },
    {
      "midi": 69,
      "hit": false,
      "t": 64564.39640624992,
      "d": 215.77268749999348,
      "v": 95
    },
    {
      "midi": 62,
      "hit": false,
      "t": 64597.87837499992,
      "d": 686.3803593749908,
      "v": 82
    },
    {
      "midi": 67,
      "hit": false,
      "t": 64754.12756249992,
      "d": 186.01093749999563,
      "v": 91
    },
    {
      "midi": 66,
      "hit": false,
      "t": 64936.41828124991,
      "d": 212.05246875000012,
      "v": 89
    },
    {
      "midi": 67,
      "hit": false,
      "t": 65122.429218749916,
      "d": 210.19235937499616,
      "v": 87
    },
    {
      "midi": 69,
      "hit": false,
      "t": 65304.71993749991,
      "d": 102.30601562499942,
      "v": 82
    },
    {
      "midi": 62,
      "hit": false,
      "t": 65650.70028124991,
      "d": 200.89181250000547,
      "v": 95
    },
    {
      "midi": 50,
      "hit": false,
      "t": 65652.56039062492,
      "d": 731.022984375013,
      "v": 80
    },
    {
      "midi": 64,
      "hit": false,
      "t": 65832.99099999992,
      "d": 178.57050000000163,
      "v": 89
    },
    {
      "midi": 66,
      "hit": false,
      "t": 65996.68062499992,
      "d": 184.15082812499895,
      "v": 85
    },
    {
      "midi": 67,
      "hit": false,
      "t": 66180.83145312492,
      "d": 200.89181250000547,
      "v": 87
    },
    {
      "midi": 69,
      "hit": false,
      "t": 66355.68173437491,
      "d": 204.6120312500134,
      "v": 87
    },
    {
      "midi": 54,
      "hit": false,
      "t": 66372.42271874992,
      "d": 351.56067187500594,
      "v": 78
    },
    {
      "midi": 71,
      "hit": false,
      "t": 66526.81179687493,
      "d": 215.77268749999348,
      "v": 93
    },
    {
      "midi": 72,
      "hit": false,
      "t": 66720.26317187493,
      "d": 133.9278749999794,
      "v": 98
    },
    {
      "midi": 52,
      "hit": false,
      "t": 66723.98339062493,
      "d": 70.68415624999034,
      "v": 85
    },
    {
      "midi": 55,
      "hit": false,
      "t": 67071.82384374991,
      "d": 68.82404687500093,
      "v": 82
    },
    {
      "midi": 71,
      "hit": false,
      "t": 67077.4041718749,
      "d": 100.44590625001001,
      "v": 105
    },
    {
      "midi": 69,
      "hit": false,
      "t": 67436.40528124991,
      "d": 70.68415625000489,
      "v": 100
    },
    {
      "midi": 54,
      "hit": false,
      "t": 67438.26539062492,
      "d": 57.663390625006286,
      "v": 87
    },
    {
      "midi": 71,
      "hit": false,
      "t": 67791.68617187491,
      "d": 180.4306093750056,
      "v": 105
    },
    {
      "midi": 55,
      "hit": false,
      "t": 67800.98671874992,
      "d": 336.6797968749888,
      "v": 76
    },
    {
      "midi": 74,
      "hit": false,
      "t": 67975.83699999991,
      "d": 174.8502812499937,
      "v": 98
    },
    {
      "midi": 47,
      "hit": false,
      "t": 68130.2260781249,
      "d": 377.6022031249886,
      "v": 68
    },
    {
      "midi": 67,
      "hit": false,
      "t": 68154.4074999999,
      "d": 85.5650312499929,
      "v": 102
    },
    {
      "midi": 66,
      "hit": false,
      "t": 68500.3878437499,
      "d": 65.10382812499302,
      "v": 100
    },
    {
      "midi": 50,
      "hit": false,
      "t": 68502.2479531249,
      "d": 57.663390624991735,
      "v": 87
    },
    {
      "midi": 55,
      "hit": false,
      "t": 68846.36818749989,
      "d": 55.80328125000233,
      "v": 85
    },
    {
      "midi": 59,
      "hit": false,
      "t": 68846.36818749989,
      "d": 745.903859375001,
      "v": 102
    },
    {
      "midi": 62,
      "hit": false,
      "t": 68846.36818749989,
      "d": 745.903859375001,
      "v": 100
    },
    {
      "midi": 67,
      "hit": false,
      "t": 68846.36818749989,
      "d": 745.903859375001,
      "v": 100
    },
    {
      "midi": 50,
      "hit": false,
      "t": 69197.9288593749,
      "d": 55.80328125000233,
      "v": 82
    },
    {
      "midi": 43,
      "hit": false,
      "t": 69547.6294218749,
      "d": 40.92240624999977,
      "v": 85
    }
  ]
}