{
  "jsonPath": "Rock/Austindie/Household Names/secrecy.json",
  "path": "Rock\\Austindie\\Household Names\\Secrecy.mid",
  "name": "Secrecy",
  "difficulty": "Advanced",
  "bpm": 120,
  "notes": [
    {
      "midi": 79,
      "hit": false,
      "t": 6000,
      "d": 200,
      "v": 119
    },
    {
      "midi": 78,
      "hit": false,
      "t": 6200,
      "d": 200,
      "v": 114
    },
    {
      "midi": 76,
      "hit": false,
      "t": 6400,
      "d": 1533.333333333333,
      "v": 100
    },
    {
      "midi": 52,
      "hit": false,
      "t": 6400,
      "d": 1560,
      "v": 100
    },
    {
      "midi": 59,
      "hit": false,
      "t": 6600,
      "d": 1360,
      "v": 63
    },
    {
      "midi": 64,
      "hit": false,
      "t": 6800,
      "d": 200,
      "v": 63
    },
    {
      "midi": 71,
      "hit": false,
      "t": 7000,
      "d": 200,
      "v": 100
    },
    {
      "midi": 67,
      "hit": false,
      "t": 7400,
      "d": 200,
      "v": 100
    },
    {
      "midi": 79,
      "hit": false,
      "t": 7600,
      "d": 200,
      "v": 111
    },
    {
      "midi": 78,
      "hit": false,
      "t": 7800,
      "d": 200,
      "v": 114
    },
    {
      "midi": 48,
      "hit": false,
      "t": 7993.333333333333,
      "d": 1559.999999999999,
      "v": 100
    },
    {
      "midi": 76,
      "hit": false,
      "t": 8013.333333333333,
      "d": 1526.6666666666652,
      "v": 100
    },
    {
      "midi": 55,
      "hit": false,
      "t": 8200,
      "d": 1226.666666666666,
      "v": 63
    },
    {
      "midi": 60,
      "hit": false,
      "t": 8400,
      "d": 1053.3333333333321,
      "v": 70
    },
    {
      "midi": 72,
      "hit": false,
      "t": 8600,
      "d": 200,
      "v": 94
    },
    {
      "midi": 67,
      "hit": false,
      "t": 9000,
      "d": 200,
      "v": 94
    },
    {
      "midi": 79,
      "hit": false,
      "t": 9200,
      "d": 200,
      "v": 113
    },
    {
      "midi": 78,
      "hit": false,
      "t": 9400,
      "d": 199.99999999999818,
      "v": 113
    },
    {
      "midi": 76,
      "hit": false,
      "t": 9599.999999999998,
      "d": 1526.666666666666,
      "v": 100
    },
    {
      "midi": 45,
      "hit": false,
      "t": 9599.999999999998,
      "d": 1560,
      "v": 100
    },
    {
      "midi": 52,
      "hit": false,
      "t": 9799.999999999998,
      "d": 1226.666666666666,
      "v": 63
    },
    {
      "midi": 60,
      "hit": false,
      "t": 9999.999999999998,
      "d": 1226.666666666666,
      "v": 63
    },
    {
      "midi": 72,
      "hit": false,
      "t": 10199.999999999998,
      "d": 1526.666666666666,
      "v": 100
    },
    {
      "midi": 67,
      "hit": false,
      "t": 10599.999999999998,
      "d": 999.9999999999982,
      "v": 89
    },
    {
      "midi": 74,
      "hit": false,
      "t": 10799.999999999998,
      "d": 1226.666666666666,
      "v": 88
    },
    {
      "midi": 57,
      "hit": false,
      "t": 10999.999999999998,
      "d": 200,
      "v": 94
    },
    {
      "midi": 50,
      "hit": false,
      "t": 11199.999999999998,
      "d": 793.3333333333339,
      "v": 104
    },
    {
      "midi": 57,
      "hit": false,
      "t": 11399.999999999996,
      "d": 1226.6666666666679,
      "v": 97
    },
    {
      "midi": 62,
      "hit": false,
      "t": 11599.999999999996,
      "d": 1226.666666666666,
      "v": 89
    },
    {
      "midi": 67,
      "hit": false,
      "t": 11799.999999999998,
      "d": 320,
      "v": 83
    },
    {
      "midi": 66,
      "hit": false,
      "t": 11999.999999999998,
      "d": 600,
      "v": 82
    },
    {
      "midi": 51,
      "hit": false,
      "t": 12006.666666666664,
      "d": 1226.6666666666642,
      "v": 82
    },
    {
      "midi": 59,
      "hit": false,
      "t": 12199.999999999998,
      "d": 599.9999999999982,
      "v": 91
    },
    {
      "midi": 79,
      "hit": false,
      "t": 12399.999999999998,
      "d": 399.9999999999982,
      "v": 116
    },
    {
      "midi": 78,
      "hit": false,
      "t": 12599.999999999998,
      "d": 399.99999999999636,
      "v": 117
    },
    {
      "midi": 76,
      "hit": false,
      "t": 12799.999999999996,
      "d": 1533.3333333333321,
      "v": 100
    },
    {
      "midi": 52,
      "hit": false,
      "t": 12799.999999999996,
      "d": 1559.9999999999982,
      "v": 100
    },
    {
      "midi": 59,
      "hit": false,
      "t": 12999.999999999995,
      "d": 1360,
      "v": 63
    },
    {
      "midi": 64,
      "hit": false,
      "t": 13199.999999999995,
      "d": 200,
      "v": 63
    },
    {
      "midi": 71,
      "hit": false,
      "t": 13399.999999999995,
      "d": 200,
      "v": 100
    },
    {
      "midi": 67,
      "hit": false,
      "t": 13799.999999999995,
      "d": 200,
      "v": 100
    },
    {
      "midi": 79,
      "hit": false,
      "t": 13999.999999999995,
      "d": 200,
      "v": 111
    },
    {
      "midi": 78,
      "hit": false,
      "t": 14199.999999999995,
      "d": 200,
      "v": 114
    },
    {
      "midi": 48,
      "hit": false,
      "t": 14393.333333333328,
      "d": 1559.9999999999982,
      "v": 100
    },
    {
      "midi": 76,
      "hit": false,
      "t": 14413.333333333328,
      "d": 1526.6666666666642,
      "v": 100
    },
    {
      "midi": 55,
      "hit": false,
      "t": 14599.999999999995,
      "d": 1226.666666666666,
      "v": 63
    },
    {
      "midi": 60,
      "hit": false,
      "t": 14799.999999999995,
      "d": 1053.3333333333321,
      "v": 70
    },
    {
      "midi": 72,
      "hit": false,
      "t": 14999.999999999995,
      "d": 200,
      "v": 94
    },
    {
      "midi": 67,
      "hit": false,
      "t": 15399.999999999995,
      "d": 200,
      "v": 94
    },
    {
      "midi": 79,
      "hit": false,
      "t": 15599.999999999995,
      "d": 200,
      "v": 113
    },
    {
      "midi": 78,
      "hit": false,
      "t": 15799.999999999995,
      "d": 199.99999999999818,
      "v": 113
    },
    {
      "midi": 76,
      "hit": false,
      "t": 15999.999999999993,
      "d": 1526.6666666666679,
      "v": 100
    },
    {
      "midi": 45,
      "hit": false,
      "t": 15999.999999999993,
      "d": 1560,
      "v": 100
    },
    {
      "midi": 52,
      "hit": false,
      "t": 16199.999999999993,
      "d": 1226.6666666666679,
      "v": 63
    },
    {
      "midi": 60,
      "hit": false,
      "t": 16399.999999999993,
      "d": 1226.6666666666679,
      "v": 63
    },
    {
      "midi": 72,
      "hit": false,
      "t": 16599.999999999993,
      "d": 1526.6666666666679,
      "v": 118
    },
    {
      "midi": 67,
      "hit": false,
      "t": 16999.999999999993,
      "d": 1000,
      "v": 89
    },
    {
      "midi": 74,
      "hit": false,
      "t": 17199.999999999993,
      "d": 1226.6666666666679,
      "v": 88
    },
    {
      "midi": 57,
      "hit": false,
      "t": 17399.999999999993,
      "d": 200,
      "v": 94
    },
    {
      "midi": 50,
      "hit": false,
      "t": 17599.999999999993,
      "d": 793.3333333333321,
      "v": 104
    },
    {
      "midi": 57,
      "hit": false,
      "t": 17799.999999999993,
      "d": 1226.6666666666679,
      "v": 63
    },
    {
      "midi": 62,
      "hit": false,
      "t": 17999.999999999993,
      "d": 1226.6666666666642,
      "v": 63
    },
    {
      "midi": 67,
      "hit": false,
      "t": 18199.999999999993,
      "d": 320,
      "v": 83
    },
    {
      "midi": 66,
      "hit": false,
      "t": 18399.999999999993,
      "d": 600,
      "v": 82
    },
    {
      "midi": 51,
      "hit": false,
      "t": 18406.66666666666,
      "d": 1226.6666666666606,
      "v": 82
    },
    {
      "midi": 59,
      "hit": false,
      "t": 18599.999999999993,
      "d": 600,
      "v": 91
    },
    {
      "midi": 63,
      "hit": false,
      "t": 18799.999999999993,
      "d": 200,
      "v": 68
    },
    {
      "midi": 66,
      "hit": false,
      "t": 18999.999999999993,
      "d": 200,
      "v": 74
    },
    {
      "midi": 67,
      "hit": false,
      "t": 19199.999999999993,
      "d": 799.9999999999964,
      "v": 79
    },
    {
      "midi": 52,
      "hit": false,
      "t": 19213.333333333325,
      "d": 799.9999999999964,
      "v": 53
    },
    {
      "midi": 59,
      "hit": false,
      "t": 19599.99999999999,
      "d": 800,
      "v": 53
    },
    {
      "midi": 64,
      "hit": false,
      "t": 19799.99999999999,
      "d": 800,
      "v": 53
    },
    {
      "midi": 67,
      "hit": false,
      "t": 19999.99999999999,
      "d": 200,
      "v": 79
    },
    {
      "midi": 67,
      "hit": false,
      "t": 20199.99999999999,
      "d": 1200,
      "v": 96
    },
    {
      "midi": 59,
      "hit": false,
      "t": 20599.99999999999,
      "d": 800,
      "v": 53
    },
    {
      "midi": 60,
      "hit": false,
      "t": 20813.33333333332,
      "d": 800,
      "v": 53
    },
    {
      "midi": 67,
      "hit": false,
      "t": 21399.99999999999,
      "d": 400,
      "v": 61
    },
    {
      "midi": 67,
      "hit": false,
      "t": 21799.99999999999,
      "d": 600,
      "v": 88
    },
    {
      "midi": 66,
      "hit": false,
      "t": 22413.33333333332,
      "d": 753.3333333333358,
      "v": 90
    },
    {
      "midi": 57,
      "hit": false,
      "t": 22799.99999999999,
      "d": 600,
      "v": 73
    },
    {
      "midi": 62,
      "hit": false,
      "t": 22999.99999999999,
      "d": 600,
      "v": 91
    },
    {
      "midi": 66,
      "hit": false,
      "t": 23399.99999999999,
      "d": 400,
      "v": 91
    },
    {
      "midi": 57,
      "hit": false,
      "t": 23599.99999999999,
      "d": 400,
      "v": 70
    },
    {
      "midi": 66,
      "hit": false,
      "t": 23999.99999999999,
      "d": 400,
      "v": 91
    },
    {
      "midi": 59,
      "hit": false,
      "t": 24399.99999999999,
      "d": 400,
      "v": 91
    },
    {
      "midi": 63,
      "hit": false,
      "t": 24799.99999999999,
      "d": 400,
      "v": 91
    },
    {
      "midi": 69,
      "hit": false,
      "t": 24999.99999999999,
      "d": 600,
      "v": 91
    },
    {
      "midi": 59,
      "hit": false,
      "t": 25199.99999999999,
      "d": 400,
      "v": 76
    },
    {
      "midi": 63,
      "hit": false,
      "t": 25399.99999999999,
      "d": 400,
      "v": 52
    },
    {
      "midi": 67,
      "hit": false,
      "t": 25599.99999999999,
      "d": 600,
      "v": 85
    },
    {
      "midi": 52,
      "hit": false,
      "t": 25599.99999999999,
      "d": 1000,
      "v": 61
    },
    {
      "midi": 59,
      "hit": false,
      "t": 25606.666666666657,
      "d": 1000,
      "v": 61
    },
    {
      "midi": 64,
      "hit": false,
      "t": 26199.99999999999,
      "d": 800,
      "v": 79
    },
    {
      "midi": 67,
      "hit": false,
      "t": 26599.99999999999,
      "d": 400,
      "v": 76
    },
    {
      "midi": 67,
      "hit": false,
      "t": 26999.99999999999,
      "d": 1000,
      "v": 61
    },
    {
      "midi": 48,
      "hit": false,
      "t": 27599.99999999999,
      "d": 1000,
      "v": 69
    },
    {
      "midi": 64,
      "hit": false,
      "t": 27799.99999999999,
      "d": 700,
      "v": 61
    },
    {
      "midi": 67,
      "hit": false,
      "t": 28199.99999999999,
      "d": 593.3333333333321,
      "v": 86
    },
    {
      "midi": 48,
      "hit": false,
      "t": 28599.99999999999,
      "d": 200,
      "v": 49
    },
    {
      "midi": 54,
      "hit": false,
      "t": 28799.99999999999,
      "d": 600,
      "v": 65
    },
    {
      "midi": 66,
      "hit": false,
      "t": 28799.99999999999,
      "d": 600,
      "v": 85
    },
    {
      "midi": 50,
      "hit": false,
      "t": 28799.99999999999,
      "d": 1600,
      "v": 58
    },
    {
      "midi": 57,
      "hit": false,
      "t": 29199.99999999999,
      "d": 600,
      "v": 85
    },
    {
      "midi": 62,
      "hit": false,
      "t": 29399.99999999999,
      "d": 600,
      "v": 65
    },
    {
      "midi": 66,
      "hit": false,
      "t": 29799.99999999999,
      "d": 600,
      "v": 60
    },
    {
      "midi": 54,
      "hit": false,
      "t": 30399.99999999999,
      "d": 600,
      "v": 65
    },
    {
      "midi": 51,
      "hit": false,
      "t": 30399.99999999999,
      "d": 1600,
      "v": 58
    },
    {
      "midi": 63,
      "hit": false,
      "t": 30999.99999999999,
      "d": 200,
      "v": 55
    },
    {
      "midi": 63,
      "hit": false,
      "t": 31199.99999999999,
      "d": 320,
      "v": 55
    },
    {
      "midi": 64,
      "hit": false,
      "t": 31399.99999999999,
      "d": 320,
      "v": 55
    },
    {
      "midi": 66,
      "hit": false,
      "t": 31599.99999999999,
      "d": 320,
      "v": 55
    },
    {
      "midi": 59,
      "hit": false,
      "t": 31799.99999999999,
      "d": 320,
      "v": 55
    },
    {
      "midi": 67,
      "hit": false,
      "t": 31999.99999999999,
      "d": 979.9999999999964,
      "v": 79
    },
    {
      "midi": 52,
      "hit": false,
      "t": 32013.33333333332,
      "d": 800,
      "v": 53
    },
    {
      "midi": 59,
      "hit": false,
      "t": 32399.99999999999,
      "d": 799.9999999999964,
      "v": 61
    },
    {
      "midi": 64,
      "hit": false,
      "t": 32599.99999999999,
      "d": 799.9999999999964,
      "v": 62
    },
    {
      "midi": 67,
      "hit": false,
      "t": 32999.999999999985,
      "d": 1200,
      "v": 96
    },
    {
      "midi": 59,
      "hit": false,
      "t": 33399.999999999985,
      "d": 800,
      "v": 53
    },
    {
      "midi": 60,
      "hit": false,
      "t": 33613.33333333332,
      "d": 800,
      "v": 53
    },
    {
      "midi": 67,
      "hit": false,
      "t": 34199.999999999985,
      "d": 400,
      "v": 61
    },
    {
      "midi": 67,
      "hit": false,
      "t": 34599.999999999985,
      "d": 600,
      "v": 88
    },
    {
      "midi": 50,
      "hit": false,
      "t": 35199.999999999985,
      "d": 1933.3333333333285,
      "v": 52
    },
    {
      "midi": 66,
      "hit": false,
      "t": 35213.33333333332,
      "d": 753.3333333333285,
      "v": 90
    },
    {
      "midi": 57,
      "hit": false,
      "t": 35599.999999999985,
      "d": 600,
      "v": 73
    },
    {
      "midi": 62,
      "hit": false,
      "t": 35799.999999999985,
      "d": 600,
      "v": 91
    },
    {
      "midi": 66,
      "hit": false,
      "t": 36199.999999999985,
      "d": 400,
      "v": 91
    },
    {
      "midi": 57,
      "hit": false,
      "t": 36399.999999999985,
      "d": 400,
      "v": 70
    },
    {
      "midi": 66,
      "hit": false,
      "t": 36799.999999999985,
      "d": 399.9999999999927,
      "v": 91
    },
    {
      "midi": 63,
      "hit": false,
      "t": 36806.66666666665,
      "d": 399.9999999999927,
      "v": 91
    },
    {
      "midi": 59,
      "hit": false,
      "t": 37199.99999999998,
      "d": 400,
      "v": 91
    },
    {
      "midi": 71,
      "hit": false,
      "t": 37399.99999999998,
      "d": 400,
      "v": 91
    },
    {
      "midi": 63,
      "hit": false,
      "t": 37599.99999999998,
      "d": 400,
      "v": 91
    },
    {
      "midi": 69,
      "hit": false,
      "t": 37799.99999999998,
      "d": 600,
      "v": 91
    },
    {
      "midi": 59,
      "hit": false,
      "t": 37999.99999999998,
      "d": 400,
      "v": 76
    },
    {
      "midi": 63,
      "hit": false,
      "t": 38199.99999999998,
      "d": 400,
      "v": 52
    },
    {
      "midi": 67,
      "hit": false,
      "t": 38399.99999999998,
      "d": 600,
      "v": 74
    },
    {
      "midi": 52,
      "hit": false,
      "t": 38399.99999999998,
      "d": 1000,
      "v": 74
    },
    {
      "midi": 59,
      "hit": false,
      "t": 38406.66666666664,
      "d": 1000,
      "v": 74
    },
    {
      "midi": 64,
      "hit": false,
      "t": 38999.99999999998,
      "d": 800,
      "v": 79
    },
    {
      "midi": 67,
      "hit": false,
      "t": 39399.99999999998,
      "d": 400,
      "v": 76
    },
    {
      "midi": 67,
      "hit": false,
      "t": 39799.99999999998,
      "d": 1000,
      "v": 61
    },
    {
      "midi": 48,
      "hit": false,
      "t": 40399.99999999998,
      "d": 1000,
      "v": 69
    },
    {
      "midi": 64,
      "hit": false,
      "t": 40599.99999999998,
      "d": 700,
      "v": 61
    },
    {
      "midi": 67,
      "hit": false,
      "t": 40999.99999999998,
      "d": 593.3333333333358,
      "v": 86
    },
    {
      "midi": 48,
      "hit": false,
      "t": 41399.99999999998,
      "d": 200,
      "v": 49
    },
    {
      "midi": 54,
      "hit": false,
      "t": 41599.99999999998,
      "d": 600,
      "v": 65
    },
    {
      "midi": 66,
      "hit": false,
      "t": 41599.99999999998,
      "d": 600,
      "v": 85
    },
    {
      "midi": 50,
      "hit": false,
      "t": 41599.99999999998,
      "d": 1600,
      "v": 58
    },
    {
      "midi": 57,
      "hit": false,
      "t": 41999.99999999998,
      "d": 600,
      "v": 85
    },
    {
      "midi": 62,
      "hit": false,
      "t": 42199.99999999998,
      "d": 600,
      "v": 65
    },
    {
      "midi": 66,
      "hit": false,
      "t": 42599.99999999998,
      "d": 600,
      "v": 60
    },
    {
      "midi": 54,
      "hit": false,
      "t": 43199.99999999998,
      "d": 600,
      "v": 65
    },
    {
      "midi": 51,
      "hit": false,
      "t": 43199.99999999998,
      "d": 1600,
      "v": 58
    },
    {
      "midi": 63,
      "hit": false,
      "t": 43799.99999999998,
      "d": 200,
      "v": 55
    },
    {
      "midi": 63,
      "hit": false,
      "t": 43999.99999999998,
      "d": 320,
      "v": 55
    },
    {
      "midi": 64,
      "hit": false,
      "t": 44199.99999999998,
      "d": 320,
      "v": 55
    },
    {
      "midi": 66,
      "hit": false,
      "t": 44399.99999999998,
      "d": 320,
      "v": 55
    },
    {
      "midi": 59,
      "hit": false,
      "t": 44599.99999999998,
      "d": 320,
      "v": 55
    },
    {
      "midi": 52,
      "hit": false,
      "t": 44799.99999999998,
      "d": 3139.9999999999854,
      "v": 85
    },
    {
      "midi": 48,
      "hit": false,
      "t": 44806.66666666664,
      "d": 2993.333333333321,
      "v": 85
    },
    {
      "midi": 55,
      "hit": false,
      "t": 45386.66666666664,
      "d": 1599.9999999999927,
      "v": 54
    },
    {
      "midi": 64,
      "hit": false,
      "t": 45393.33333333331,
      "d": 1406.6666666666642,
      "v": 54
    },
    {
      "midi": 60,
      "hit": false,
      "t": 45393.33333333331,
      "d": 1599.9999999999927,
      "v": 54
    },
    {
      "midi": 67,
      "hit": false,
      "t": 45799.99999999997,
      "d": 600,
      "v": 85
    },
    {
      "midi": 67,
      "hit": false,
      "t": 46399.99999999997,
      "d": 400,
      "v": 85
    },
    {
      "midi": 64,
      "hit": false,
      "t": 46999.99999999996,
      "d": 940,
      "v": 70
    },
    {
      "midi": 45,
      "hit": false,
      "t": 47799.99999999996,
      "d": 246.66666666666424,
      "v": 48
    },
    {
      "midi": 50,
      "hit": false,
      "t": 47993.3333333333,
      "d": 2993.3333333333285,
      "v": 85
    },
    {
      "midi": 57,
      "hit": false,
      "t": 48013.3333333333,
      "d": 1853.3333333333285,
      "v": 63
    },
    {
      "midi": 62,
      "hit": false,
      "t": 48039.99999999996,
      "d": 1760,
      "v": 56
    },
    {
      "midi": 57,
      "hit": false,
      "t": 49999.99999999996,
      "d": 226.66666666666424,
      "v": 63
    },
    {
      "midi": 62,
      "hit": false,
      "t": 50199.99999999996,
      "d": 226.66666666666424,
      "v": 63
    },
    {
      "midi": 57,
      "hit": false,
      "t": 50399.99999999996,
      "d": 226.66666666666424,
      "v": 63
    },
    {
      "midi": 52,
      "hit": false,
      "t": 51199.99999999996,
      "d": 2993.3333333333358,
      "v": 85
    },
    {
      "midi": 67,
      "hit": false,
      "t": 52806.66666666663,
      "d": 600,
      "v": 72
    },
    {
      "midi": 59,
      "hit": false,
      "t": 53159.99999999996,
      "d": 173.33333333333576,
      "v": 72
    },
    {
      "midi": 64,
      "hit": false,
      "t": 53393.3333333333,
      "d": 359.9999999999927,
      "v": 72
    },
    {
      "midi": 59,
      "hit": false,
      "t": 53399.99999999996,
      "d": 140,
      "v": 72
    },
    {
      "midi": 59,
      "hit": false,
      "t": 53606.66666666663,
      "d": 346.6666666666715,
      "v": 72
    },
    {
      "midi": 67,
      "hit": false,
      "t": 53766.66666666663,
      "d": 600,
      "v": 72
    },
    {
      "midi": 64,
      "hit": false,
      "t": 53779.99999999996,
      "d": 600,
      "v": 72
    },
    {
      "midi": 59,
      "hit": false,
      "t": 54013.3333333333,
      "d": 346.66666666666424,
      "v": 72
    },
    {
      "midi": 47,
      "hit": false,
      "t": 54199.99999999996,
      "d": 800,
      "v": 73
    },
    {
      "midi": 59,
      "hit": false,
      "t": 54393.3333333333,
      "d": 800,
      "v": 75
    },
    {
      "midi": 64,
      "hit": false,
      "t": 54413.3333333333,
      "d": 800,
      "v": 75
    },
    {
      "midi": 67,
      "hit": false,
      "t": 54799.99999999996,
      "d": 373.33333333333576,
      "v": 75
    },
    {
      "midi": 62,
      "hit": false,
      "t": 55179.99999999996,
      "d": 800,
      "v": 75
    },
    {
      "midi": 66,
      "hit": false,
      "t": 55193.3333333333,
      "d": 800,
      "v": 75
    },
    {
      "midi": 69,
      "hit": false,
      "t": 55599.99999999996,
      "d": 400,
      "v": 71
    },
    {
      "midi": 62,
      "hit": false,
      "t": 55999.99999999996,
      "d": 800,
      "v": 75
    },
    {
      "midi": 71,
      "hit": false,
      "t": 56006.66666666663,
      "d": 193.33333333333576,
      "v": 67
    },
    {
      "midi": 67,
      "hit": false,
      "t": 56006.66666666663,
      "d": 800,
      "v": 75
    },
    {
      "midi": 69,
      "hit": false,
      "t": 56199.99999999996,
      "d": 600,
      "v": 71
    },
    {
      "midi": 71,
      "hit": false,
      "t": 56399.99999999996,
      "d": 600,
      "v": 71
    },
    {
      "midi": 66,
      "hit": false,
      "t": 56799.99999999996,
      "d": 373.3333333333285,
      "v": 75
    },
    {
      "midi": 67,
      "hit": false,
      "t": 57166.66666666663,
      "d": 406.66666666666424,
      "v": 75
    },
    {
      "midi": 64,
      "hit": false,
      "t": 57599.999999999956,
      "d": 1540,
      "v": 75
    },
    {
      "midi": 48,
      "hit": false,
      "t": 57606.66666666662,
      "d": 1540,
      "v": 75
    },
    {
      "midi": 55,
      "hit": false,
      "t": 57619.999999999956,
      "d": 1540,
      "v": 75
    },
    {
      "midi": 60,
      "hit": false,
      "t": 57639.999999999956,
      "d": 1540,
      "v": 75
    },
    {
      "midi": 60,
      "hit": false,
      "t": 59799.999999999956,
      "d": 800,
      "v": 74
    },
    {
      "midi": 64,
      "hit": false,
      "t": 60199.999999999956,
      "d": 799.9999999999927,
      "v": 74
    },
    {
      "midi": 45,
      "hit": false,
      "t": 60599.999999999956,
      "d": 799.9999999999927,
      "v": 46
    },
    {
      "midi": 54,
      "hit": false,
      "t": 60766.66666666662,
      "d": 1539.9999999999927,
      "v": 75
    },
    {
      "midi": 50,
      "hit": false,
      "t": 60773.333333333285,
      "d": 1346.6666666666642,
      "v": 75
    },
    {
      "midi": 62,
      "hit": false,
      "t": 60779.99999999995,
      "d": 1540,
      "v": 75
    },
    {
      "midi": 57,
      "hit": false,
      "t": 60826.66666666661,
      "d": 1540,
      "v": 75
    },
    {
      "midi": 38,
      "hit": false,
      "t": 61966.66666666661,
      "d": 193.33333333333576,
      "v": 73
    },
    {
      "midi": 38,
      "hit": false,
      "t": 62166.66666666661,
      "d": 1033.3333333333285,
      "v": 73
    },
    {
      "midi": 45,
      "hit": false,
      "t": 62179.99999999995,
      "d": 1000,
      "v": 73
    },
    {
      "midi": 50,
      "hit": false,
      "t": 62199.99999999995,
      "d": 960,
      "v": 75
    },
    {
      "midi": 45,
      "hit": false,
      "t": 63186.66666666661,
      "d": 413.3333333333285,
      "v": 73
    },
    {
      "midi": 64,
      "hit": false,
      "t": 63186.66666666661,
      "d": 413.3333333333285,
      "v": 73
    },
    {
      "midi": 57,
      "hit": false,
      "t": 63193.33333333328,
      "d": 726.6666666666642,
      "v": 73
    },
    {
      "midi": 38,
      "hit": false,
      "t": 63199.99999999994,
      "d": 753.3333333333358,
      "v": 73
    },
    {
      "midi": 50,
      "hit": false,
      "t": 63206.666666666606,
      "d": 780,
      "v": 73
    },
    {
      "midi": 45,
      "hit": false,
      "t": 63599.99999999994,
      "d": 413.3333333333285,
      "v": 73
    },
    {
      "midi": 66,
      "hit": false,
      "t": 63619.99999999994,
      "d": 413.3333333333285,
      "v": 73
    },
    {
      "midi": 59,
      "hit": false,
      "t": 63979.99999999994,
      "d": 419.9999999999927,
      "v": 75
    },
    {
      "midi": 47,
      "hit": false,
      "t": 63986.666666666606,
      "d": 1586.6666666666642,
      "v": 75
    },
    {
      "midi": 55,
      "hit": false,
      "t": 63999.99999999994,
      "d": 1573.3333333333285,
      "v": 75
    },
    {
      "midi": 52,
      "hit": false,
      "t": 64006.666666666606,
      "d": 1526.6666666666642,
      "v": 75
    },
    {
      "midi": 59,
      "hit": false,
      "t": 64399.999999999935,
      "d": 200,
      "v": 75
    },
    {
      "midi": 64,
      "hit": false,
      "t": 64599.999999999935,
      "d": 200,
      "v": 62
    },
    {
      "midi": 64,
      "hit": false,
      "t": 64799.999999999935,
      "d": 400,
      "v": 62
    },
    {
      "midi": 59,
      "hit": false,
      "t": 65199.999999999935,
      "d": 399.9999999999927,
      "v": 64
    },
    {
      "midi": 48,
      "hit": false,
      "t": 65586.6666666666,
      "d": 1573.3333333333285,
      "v": 75
    },
    {
      "midi": 55,
      "hit": false,
      "t": 65586.6666666666,
      "d": 1573.3333333333285,
      "v": 75
    },
    {
      "midi": 52,
      "hit": false,
      "t": 65599.99999999993,
      "d": 1573.3333333333285,
      "v": 75
    },
    {
      "midi": 60,
      "hit": false,
      "t": 65606.6666666666,
      "d": 393.3333333333285,
      "v": 75
    },
    {
      "midi": 60,
      "hit": false,
      "t": 65999.99999999993,
      "d": 200,
      "v": 62
    },
    {
      "midi": 64,
      "hit": false,
      "t": 66199.99999999993,
      "d": 200,
      "v": 62
    },
    {
      "midi": 67,
      "hit": false,
      "t": 66399.99999999993,
      "d": 200,
      "v": 62
    },
    {
      "midi": 67,
      "hit": false,
      "t": 66599.99999999993,
      "d": 400,
      "v": 62
    },
    {
      "midi": 64,
      "hit": false,
      "t": 66999.99999999993,
      "d": 200,
      "v": 64
    },
    {
      "midi": 55,
      "hit": false,
      "t": 67206.6666666666,
      "d": 1573.3333333333285,
      "v": 75
    },
    {
      "midi": 48,
      "hit": false,
      "t": 67213.33333333327,
      "d": 1573.3333333333285,
      "v": 75
    },
    {
      "midi": 64,
      "hit": false,
      "t": 67226.6666666666,
      "d": 353.3333333333285,
      "v": 75
    },
    {
      "midi": 60,
      "hit": false,
      "t": 67226.6666666666,
      "d": 1573.3333333333285,
      "v": 75
    },
    {
      "midi": 64,
      "hit": false,
      "t": 67599.99999999993,
      "d": 173.33333333332848,
      "v": 75
    },
    {
      "midi": 64,
      "hit": false,
      "t": 67799.99999999993,
      "d": 173.33333333332848,
      "v": 75
    },
    {
      "midi": 67,
      "hit": false,
      "t": 67999.99999999993,
      "d": 360,
      "v": 75
    },
    {
      "midi": 67,
      "hit": false,
      "t": 68413.33333333326,
      "d": 360,
      "v": 75
    },
    {
      "midi": 66,
      "hit": false,
      "t": 68799.99999999993,
      "d": 1000,
      "v": 75
    },
    {
      "midi": 50,
      "hit": false,
      "t": 68799.99999999993,
      "d": 1573.3333333333285,
      "v": 75
    },
    {
      "midi": 57,
      "hit": false,
      "t": 68799.99999999993,
      "d": 1573.3333333333285,
      "v": 75
    },
    {
      "midi": 62,
      "hit": false,
      "t": 68799.99999999993,
      "d": 1573.3333333333285,
      "v": 75
    },
    {
      "midi": 66,
      "hit": false,
      "t": 69799.99999999993,
      "d": 400,
      "v": 75
    },
    {
      "midi": 66,
      "hit": false,
      "t": 70199.99999999993,
      "d": 186.66666666667152,
      "v": 75
    },
    {
      "midi": 59,
      "hit": false,
      "t": 70379.99999999993,
      "d": 420,
      "v": 75
    },
    {
      "midi": 47,
      "hit": false,
      "t": 70386.6666666666,
      "d": 1586.666666666657,
      "v": 75
    },
    {
      "midi": 55,
      "hit": false,
      "t": 70399.99999999993,
      "d": 1573.3333333333285,
      "v": 75
    },
    {
      "midi": 52,
      "hit": false,
      "t": 70406.6666666666,
      "d": 1526.666666666657,
      "v": 75
    },
    {
      "midi": 59,
      "hit": false,
      "t": 70799.99999999993,
      "d": 200,
      "v": 75
    },
    {
      "midi": 64,
      "hit": false,
      "t": 70999.99999999993,
      "d": 200,
      "v": 62
    },
    {
      "midi": 64,
      "hit": false,
      "t": 71199.99999999993,
      "d": 400,
      "v": 62
    },
    {
      "midi": 67,
      "hit": false,
      "t": 71399.99999999993,
      "d": 799.9999999999854,
      "v": 99
    },
    {
      "midi": 59,
      "hit": false,
      "t": 71599.99999999993,
      "d": 200,
      "v": 64
    },
    {
      "midi": 59,
      "hit": false,
      "t": 71799.99999999993,
      "d": 199.99999999998545,
      "v": 81
    },
    {
      "midi": 48,
      "hit": false,
      "t": 71986.66666666658,
      "d": 1573.3333333333285,
      "v": 75
    },
    {
      "midi": 55,
      "hit": false,
      "t": 71986.66666666658,
      "d": 1573.3333333333285,
      "v": 75
    },
    {
      "midi": 52,
      "hit": false,
      "t": 71999.99999999991,
      "d": 1573.3333333333285,
      "v": 75
    },
    {
      "midi": 60,
      "hit": false,
      "t": 72006.66666666658,
      "d": 393.3333333333285,
      "v": 75
    },
    {
      "midi": 60,
      "hit": false,
      "t": 72399.99999999991,
      "d": 200,
      "v": 62
    },
    {
      "midi": 64,
      "hit": false,
      "t": 72599.99999999991,
      "d": 200,
      "v": 62
    },
    {
      "midi": 64,
      "hit": false,
      "t": 72799.99999999991,
      "d": 200,
      "v": 62
    },
    {
      "midi": 67,
      "hit": false,
      "t": 72999.99999999991,
      "d": 400,
      "v": 96
    },
    {
      "midi": 64,
      "hit": false,
      "t": 73399.99999999991,
      "d": 200,
      "v": 64
    },
    {
      "midi": 55,
      "hit": false,
      "t": 73606.66666666658,
      "d": 1573.333333333314,
      "v": 75
    },
    {
      "midi": 48,
      "hit": false,
      "t": 73613.33333333326,
      "d": 1573.333333333314,
      "v": 75
    },
    {
      "midi": 64,
      "hit": false,
      "t": 73626.66666666658,
      "d": 560,
      "v": 75
    },
    {
      "midi": 60,
      "hit": false,
      "t": 73626.66666666658,
      "d": 1573.333333333314,
      "v": 75
    },
    {
      "midi": 64,
      "hit": false,
      "t": 74199.99999999991,
      "d": 173.33333333332848,
      "v": 75
    },
    {
      "midi": 64,
      "hit": false,
      "t": 74399.99999999991,
      "d": 220,
      "v": 75
    },
    {
      "midi": 67,
      "hit": false,
      "t": 74813.33333333324,
      "d": 13.333333333328483,
      "v": 94
    },
    {
      "midi": 66,
      "hit": false,
      "t": 75199.9999999999,
      "d": 1000,
      "v": 75
    },
    {
      "midi": 50,
      "hit": false,
      "t": 75199.9999999999,
      "d": 1573.333333333343,
      "v": 75
    },
    {
      "midi": 57,
      "hit": false,
      "t": 75199.9999999999,
      "d": 1573.333333333343,
      "v": 75
    },
    {
      "midi": 62,
      "hit": false,
      "t": 75199.9999999999,
      "d": 1573.333333333343,
      "v": 75
    },
    {
      "midi": 66,
      "hit": false,
      "t": 76199.9999999999,
      "d": 400,
      "v": 75
    },
    {
      "midi": 66,
      "hit": false,
      "t": 76599.9999999999,
      "d": 186.66666666668607,
      "v": 75
    },
    {
      "midi": 55,
      "hit": false,
      "t": 76766.66666666657,
      "d": 1573.333333333343,
      "v": 75
    },
    {
      "midi": 50,
      "hit": false,
      "t": 76779.99999999991,
      "d": 1573.333333333343,
      "v": 75
    },
    {
      "midi": 67,
      "hit": false,
      "t": 76793.33333333326,
      "d": 380,
      "v": 75
    },
    {
      "midi": 59,
      "hit": false,
      "t": 76799.99999999993,
      "d": 380,
      "v": 75
    },
    {
      "midi": 59,
      "hit": false,
      "t": 77213.33333333326,
      "d": 380,
      "v": 75
    },
    {
      "midi": 62,
      "hit": false,
      "t": 77386.66666666658,
      "d": 380,
      "v": 75
    },
    {
      "midi": 59,
      "hit": false,
      "t": 77986.66666666658,
      "d": 360,
      "v": 75
    },
    {
      "midi": 55,
      "hit": false,
      "t": 78359.99999999993,
      "d": 1573.3333333333285,
      "v": 75
    },
    {
      "midi": 50,
      "hit": false,
      "t": 78373.33333333326,
      "d": 1573.3333333333285,
      "v": 75
    },
    {
      "midi": 60,
      "hit": false,
      "t": 78399.99999999993,
      "d": 1573.3333333333285,
      "v": 75
    },
    {
      "midi": 67,
      "hit": false,
      "t": 79013.33333333326,
      "d": 380,
      "v": 75
    },
    {
      "midi": 62,
      "hit": false,
      "t": 79379.99999999993,
      "d": 360,
      "v": 75
    },
    {
      "midi": 52,
      "hit": false,
      "t": 80006.66666666658,
      "d": 1566.6666666666715,
      "v": 75
    },
    {
      "midi": 55,
      "hit": false,
      "t": 80006.66666666658,
      "d": 1566.6666666666715,
      "v": 75
    },
    {
      "midi": 60,
      "hit": false,
      "t": 80006.66666666658,
      "d": 1566.6666666666715,
      "v": 75
    },
    {
      "midi": 50,
      "hit": false,
      "t": 81586.66666666658,
      "d": 1566.6666666666715,
      "v": 75
    },
    {
      "midi": 62,
      "hit": false,
      "t": 81593.33333333326,
      "d": 1566.6666666666715,
      "v": 75
    },
    {
      "midi": 57,
      "hit": false,
      "t": 81613.33333333326,
      "d": 1566.6666666666715,
      "v": 75
    },
    {
      "midi": 57,
      "hit": false,
      "t": 83186.6666666666,
      "d": 3133.333333333343,
      "v": 75
    },
    {
      "midi": 60,
      "hit": false,
      "t": 83186.6666666666,
      "d": 3173.333333333343,
      "v": 75
    },
    {
      "midi": 52,
      "hit": false,
      "t": 83193.33333333327,
      "d": 3153.333333333343,
      "v": 75
    },
    {
      "midi": 64,
      "hit": false,
      "t": 83199.99999999994,
      "d": 3120,
      "v": 75
    },
    {
      "midi": 48,
      "hit": false,
      "t": 86399.99999999994,
      "d": 400,
      "v": 63
    },
    {
      "midi": 55,
      "hit": false,
      "t": 86399.99999999994,
      "d": 400,
      "v": 63
    },
    {
      "midi": 60,
      "hit": false,
      "t": 86399.99999999994,
      "d": 400,
      "v": 63
    },
    {
      "midi": 79,
      "hit": false,
      "t": 89199.99999999994,
      "d": 146.66666666667152,
      "v": 63
    },
    {
      "midi": 78,
      "hit": false,
      "t": 89399.99999999994,
      "d": 146.66666666667152,
      "v": 63
    },
    {
      "midi": 76,
      "hit": false,
      "t": 89599.99999999994,
      "d": 1533.3333333333285,
      "v": 58
    },
    {
      "midi": 52,
      "hit": false,
      "t": 89599.99999999994,
      "d": 1560,
      "v": 58
    },
    {
      "midi": 59,
      "hit": false,
      "t": 89799.99999999994,
      "d": 1360,
      "v": 44
    },
    {
      "midi": 64,
      "hit": false,
      "t": 89999.99999999994,
      "d": 200,
      "v": 44
    },
    {
      "midi": 71,
      "hit": false,
      "t": 90199.99999999994,
      "d": 200,
      "v": 70
    },
    {
      "midi": 67,
      "hit": false,
      "t": 90599.99999999994,
      "d": 200,
      "v": 70
    },
    {
      "midi": 79,
      "hit": false,
      "t": 90799.99999999994,
      "d": 200,
      "v": 77
    },
    {
      "midi": 78,
      "hit": false,
      "t": 90999.99999999994,
      "d": 200,
      "v": 79
    },
    {
      "midi": 48,
      "hit": false,
      "t": 91193.33333333327,
      "d": 1560.0000000000146,
      "v": 47
    },
    {
      "midi": 76,
      "hit": false,
      "t": 91213.33333333327,
      "d": 1526.666666666686,
      "v": 47
    },
    {
      "midi": 55,
      "hit": false,
      "t": 91399.99999999994,
      "d": 1226.6666666666715,
      "v": 44
    },
    {
      "midi": 60,
      "hit": false,
      "t": 91599.99999999994,
      "d": 1053.333333333343,
      "v": 49
    },
    {
      "midi": 72,
      "hit": false,
      "t": 91799.99999999994,
      "d": 200,
      "v": 65
    },
    {
      "midi": 67,
      "hit": false,
      "t": 92199.99999999994,
      "d": 200,
      "v": 65
    },
    {
      "midi": 79,
      "hit": false,
      "t": 92399.99999999994,
      "d": 200,
      "v": 79
    },
    {
      "midi": 78,
      "hit": false,
      "t": 92599.99999999994,
      "d": 200.00000000001455,
      "v": 79
    },
    {
      "midi": 76,
      "hit": false,
      "t": 92799.99999999996,
      "d": 1526.6666666666715,
      "v": 46
    },
    {
      "midi": 45,
      "hit": false,
      "t": 92799.99999999996,
      "d": 1560,
      "v": 46
    },
    {
      "midi": 52,
      "hit": false,
      "t": 92999.99999999996,
      "d": 1226.6666666666715,
      "v": 44
    },
    {
      "midi": 60,
      "hit": false,
      "t": 93199.99999999996,
      "d": 1226.6666666666715,
      "v": 44
    },
    {
      "midi": 72,
      "hit": false,
      "t": 93399.99999999996,
      "d": 1526.6666666666715,
      "v": 70
    },
    {
      "midi": 67,
      "hit": false,
      "t": 93799.99999999996,
      "d": 1000,
      "v": 62
    },
    {
      "midi": 74,
      "hit": false,
      "t": 93999.99999999996,
      "d": 1226.6666666666715,
      "v": 61
    },
    {
      "midi": 57,
      "hit": false,
      "t": 94199.99999999996,
      "d": 200,
      "v": 65
    },
    {
      "midi": 50,
      "hit": false,
      "t": 94399.99999999996,
      "d": 793.3333333333285,
      "v": 72
    },
    {
      "midi": 57,
      "hit": false,
      "t": 94599.99999999996,
      "d": 1226.6666666666715,
      "v": 67
    },
    {
      "midi": 62,
      "hit": false,
      "t": 94799.99999999996,
      "d": 1226.6666666666715,
      "v": 62
    },
    {
      "midi": 67,
      "hit": false,
      "t": 94999.99999999996,
      "d": 320,
      "v": 58
    },
    {
      "midi": 66,
      "hit": false,
      "t": 95199.99999999996,
      "d": 600,
      "v": 57
    },
    {
      "midi": 51,
      "hit": false,
      "t": 95206.66666666663,
      "d": 1226.666666666657,
      "v": 57
    },
    {
      "midi": 59,
      "hit": false,
      "t": 95399.99999999996,
      "d": 600,
      "v": 63
    },
    {
      "midi": 79,
      "hit": false,
      "t": 95599.99999999996,
      "d": 400,
      "v": 81
    },
    {
      "midi": 78,
      "hit": false,
      "t": 95799.99999999996,
      "d": 400,
      "v": 81
    },
    {
      "midi": 76,
      "hit": false,
      "t": 95999.99999999996,
      "d": 1533.3333333333285,
      "v": 70
    },
    {
      "midi": 52,
      "hit": false,
      "t": 95999.99999999996,
      "d": 1560,
      "v": 70
    },
    {
      "midi": 59,
      "hit": false,
      "t": 96199.99999999996,
      "d": 1360,
      "v": 44
    },
    {
      "midi": 64,
      "hit": false,
      "t": 96399.99999999996,
      "d": 200,
      "v": 44
    },
    {
      "midi": 71,
      "hit": false,
      "t": 96599.99999999996,
      "d": 200,
      "v": 70
    },
    {
      "midi": 67,
      "hit": false,
      "t": 96999.99999999996,
      "d": 200,
      "v": 70
    },
    {
      "midi": 79,
      "hit": false,
      "t": 97199.99999999996,
      "d": 200,
      "v": 77
    },
    {
      "midi": 78,
      "hit": false,
      "t": 97399.99999999996,
      "d": 200,
      "v": 79
    },
    {
      "midi": 48,
      "hit": false,
      "t": 97593.33333333328,
      "d": 1560.0000000000146,
      "v": 70
    },
    {
      "midi": 76,
      "hit": false,
      "t": 97613.33333333328,
      "d": 1526.666666666686,
      "v": 70
    },
    {
      "midi": 55,
      "hit": false,
      "t": 97799.99999999996,
      "d": 1226.6666666666715,
      "v": 44
    },
    {
      "midi": 60,
      "hit": false,
      "t": 97999.99999999996,
      "d": 1053.333333333343,
      "v": 49
    },
    {
      "midi": 72,
      "hit": false,
      "t": 98199.99999999996,
      "d": 200,
      "v": 65
    },
    {
      "midi": 67,
      "hit": false,
      "t": 98599.99999999996,
      "d": 200,
      "v": 65
    },
    {
      "midi": 79,
      "hit": false,
      "t": 98799.99999999996,
      "d": 200,
      "v": 79
    },
    {
      "midi": 78,
      "hit": false,
      "t": 98999.99999999996,
      "d": 200.00000000001455,
      "v": 79
    },
    {
      "midi": 76,
      "hit": false,
      "t": 99199.99999999997,
      "d": 1526.6666666666715,
      "v": 70
    },
    {
      "midi": 45,
      "hit": false,
      "t": 99199.99999999997,
      "d": 1560,
      "v": 70
    },
    {
      "midi": 52,
      "hit": false,
      "t": 99399.99999999997,
      "d": 1226.6666666666715,
      "v": 44
    },
    {
      "midi": 60,
      "hit": false,
      "t": 99599.99999999997,
      "d": 1226.6666666666715,
      "v": 44
    },
    {
      "midi": 72,
      "hit": false,
      "t": 99799.99999999997,
      "d": 1526.6666666666715,
      "v": 82
    },
    {
      "midi": 67,
      "hit": false,
      "t": 100199.99999999997,
      "d": 1000,
      "v": 62
    },
    {
      "midi": 74,
      "hit": false,
      "t": 100399.99999999997,
      "d": 1226.6666666666715,
      "v": 61
    },
    {
      "midi": 57,
      "hit": false,
      "t": 100599.99999999997,
      "d": 200,
      "v": 65
    },
    {
      "midi": 50,
      "hit": false,
      "t": 100799.99999999997,
      "d": 793.3333333333285,
      "v": 72
    },
    {
      "midi": 57,
      "hit": false,
      "t": 100999.99999999997,
      "d": 1226.6666666666715,
      "v": 44
    },
    {
      "midi": 62,
      "hit": false,
      "t": 101199.99999999997,
      "d": 1226.666666666657,
      "v": 44
    },
    {
      "midi": 67,
      "hit": false,
      "t": 101399.99999999997,
      "d": 320,
      "v": 58
    },
    {
      "midi": 66,
      "hit": false,
      "t": 101599.99999999997,
      "d": 600,
      "v": 57
    },
    {
      "midi": 51,
      "hit": false,
      "t": 101606.66666666664,
      "d": 1226.6666666666424,
      "v": 57
    },
    {
      "midi": 59,
      "hit": false,
      "t": 101799.99999999997,
      "d": 600,
      "v": 63
    },
    {
      "midi": 63,
      "hit": false,
      "t": 101999.99999999997,
      "d": 200,
      "v": 47
    },
    {
      "midi": 66,
      "hit": false,
      "t": 102199.99999999997,
      "d": 200,
      "v": 51
    },
    {
      "midi": 67,
      "hit": false,
      "t": 102399.99999999997,
      "d": 979.9999999999854,
      "v": 79
    },
    {
      "midi": 52,
      "hit": false,
      "t": 102413.3333333333,
      "d": 799.9999999999854,
      "v": 53
    },
    {
      "midi": 59,
      "hit": false,
      "t": 102799.99999999996,
      "d": 800,
      "v": 61
    },
    {
      "midi": 64,
      "hit": false,
      "t": 102999.99999999996,
      "d": 800,
      "v": 62
    },
    {
      "midi": 67,
      "hit": false,
      "t": 103399.99999999996,
      "d": 1200,
      "v": 96
    },
    {
      "midi": 59,
      "hit": false,
      "t": 103799.99999999996,
      "d": 800,
      "v": 53
    },
    {
      "midi": 60,
      "hit": false,
      "t": 104013.33333333328,
      "d": 800,
      "v": 53
    },
    {
      "midi": 67,
      "hit": false,
      "t": 104599.99999999996,
      "d": 400,
      "v": 61
    },
    {
      "midi": 67,
      "hit": false,
      "t": 104999.99999999996,
      "d": 600,
      "v": 88
    },
    {
      "midi": 50,
      "hit": false,
      "t": 105599.99999999996,
      "d": 1933.333333333343,
      "v": 52
    },
    {
      "midi": 66,
      "hit": false,
      "t": 105613.33333333328,
      "d": 753.333333333343,
      "v": 90
    },
    {
      "midi": 57,
      "hit": false,
      "t": 105999.99999999996,
      "d": 600,
      "v": 73
    },
    {
      "midi": 62,
      "hit": false,
      "t": 106199.99999999996,
      "d": 600,
      "v": 91
    },
    {
      "midi": 66,
      "hit": false,
      "t": 106599.99999999996,
      "d": 400,
      "v": 91
    },
    {
      "midi": 57,
      "hit": false,
      "t": 106799.99999999996,
      "d": 400,
      "v": 70
    },
    {
      "midi": 66,
      "hit": false,
      "t": 107199.99999999996,
      "d": 400.00000000001455,
      "v": 91
    },
    {
      "midi": 63,
      "hit": false,
      "t": 107206.66666666663,
      "d": 400.00000000001455,
      "v": 64
    },
    {
      "midi": 59,
      "hit": false,
      "t": 107599.99999999997,
      "d": 400,
      "v": 91
    },
    {
      "midi": 71,
      "hit": false,
      "t": 107799.99999999997,
      "d": 400,
      "v": 91
    },
    {
      "midi": 63,
      "hit": false,
      "t": 107999.99999999997,
      "d": 400,
      "v": 91
    },
    {
      "midi": 69,
      "hit": false,
      "t": 108199.99999999997,
      "d": 600,
      "v": 91
    },
    {
      "midi": 59,
      "hit": false,
      "t": 108399.99999999997,
      "d": 400,
      "v": 76
    },
    {
      "midi": 63,
      "hit": false,
      "t": 108599.99999999997,
      "d": 400,
      "v": 52
    },
    {
      "midi": 67,
      "hit": false,
      "t": 108799.99999999997,
      "d": 600,
      "v": 74
    },
    {
      "midi": 52,
      "hit": false,
      "t": 108799.99999999997,
      "d": 1000,
      "v": 74
    },
    {
      "midi": 59,
      "hit": false,
      "t": 108806.66666666664,
      "d": 1000,
      "v": 74
    },
    {
      "midi": 64,
      "hit": false,
      "t": 109399.99999999997,
      "d": 800,
      "v": 79
    },
    {
      "midi": 67,
      "hit": false,
      "t": 109799.99999999997,
      "d": 400,
      "v": 76
    },
    {
      "midi": 67,
      "hit": false,
      "t": 110399.99999999997,
      "d": 1000,
      "v": 81
    },
    {
      "midi": 60,
      "hit": false,
      "t": 110793.3333333333,
      "d": 700,
      "v": 61
    },
    {
      "midi": 48,
      "hit": false,
      "t": 110799.99999999997,
      "d": 1000,
      "v": 69
    },
    {
      "midi": 64,
      "hit": false,
      "t": 110999.99999999997,
      "d": 700,
      "v": 61
    },
    {
      "midi": 67,
      "hit": false,
      "t": 111399.99999999997,
      "d": 593.3333333333285,
      "v": 86
    },
    {
      "midi": 48,
      "hit": false,
      "t": 111799.99999999997,
      "d": 200,
      "v": 49
    },
    {
      "midi": 54,
      "hit": false,
      "t": 111999.99999999997,
      "d": 600,
      "v": 65
    },
    {
      "midi": 66,
      "hit": false,
      "t": 111999.99999999997,
      "d": 600,
      "v": 85
    },
    {
      "midi": 50,
      "hit": false,
      "t": 111999.99999999997,
      "d": 1600,
      "v": 58
    },
    {
      "midi": 57,
      "hit": false,
      "t": 112399.99999999997,
      "d": 600,
      "v": 85
    },
    {
      "midi": 62,
      "hit": false,
      "t": 112599.99999999997,
      "d": 600,
      "v": 65
    },
    {
      "midi": 66,
      "hit": false,
      "t": 112999.99999999997,
      "d": 600,
      "v": 60
    },
    {
      "midi": 54,
      "hit": false,
      "t": 113599.99999999997,
      "d": 600,
      "v": 65
    },
    {
      "midi": 51,
      "hit": false,
      "t": 113599.99999999997,
      "d": 1600,
      "v": 58
    },
    {
      "midi": 63,
      "hit": false,
      "t": 114199.99999999997,
      "d": 200,
      "v": 55
    },
    {
      "midi": 63,
      "hit": false,
      "t": 114399.99999999997,
      "d": 320,
      "v": 55
    },
    {
      "midi": 64,
      "hit": false,
      "t": 114599.99999999997,
      "d": 320,
      "v": 55
    },
    {
      "midi": 66,
      "hit": false,
      "t": 114799.99999999997,
      "d": 320,
      "v": 55
    },
    {
      "midi": 59,
      "hit": false,
      "t": 114999.99999999997,
      "d": 320,
      "v": 55
    },
    {
      "midi": 67,
      "hit": false,
      "t": 115199.99999999997,
      "d": 800,
      "v": 79
    },
    {
      "midi": 52,
      "hit": false,
      "t": 115213.3333333333,
      "d": 800,
      "v": 53
    },
    {
      "midi": 59,
      "hit": false,
      "t": 115599.99999999997,
      "d": 800,
      "v": 53
    },
    {
      "midi": 64,
      "hit": false,
      "t": 115799.99999999997,
      "d": 800,
      "v": 53
    },
    {
      "midi": 67,
      "hit": false,
      "t": 115999.99999999997,
      "d": 200,
      "v": 79
    },
    {
      "midi": 67,
      "hit": false,
      "t": 116199.99999999997,
      "d": 1200,
      "v": 96
    },
    {
      "midi": 59,
      "hit": false,
      "t": 116599.99999999997,
      "d": 800,
      "v": 53
    },
    {
      "midi": 60,
      "hit": false,
      "t": 116813.3333333333,
      "d": 800,
      "v": 53
    },
    {
      "midi": 67,
      "hit": false,
      "t": 117399.99999999997,
      "d": 400,
      "v": 61
    },
    {
      "midi": 67,
      "hit": false,
      "t": 117799.99999999997,
      "d": 600,
      "v": 88
    },
    {
      "midi": 66,
      "hit": false,
      "t": 118413.3333333333,
      "d": 753.333333333343,
      "v": 90
    },
    {
      "midi": 57,
      "hit": false,
      "t": 118799.99999999997,
      "d": 600,
      "v": 73
    },
    {
      "midi": 62,
      "hit": false,
      "t": 118999.99999999997,
      "d": 600,
      "v": 91
    },
    {
      "midi": 66,
      "hit": false,
      "t": 119399.99999999997,
      "d": 400,
      "v": 91
    },
    {
      "midi": 57,
      "hit": false,
      "t": 119599.99999999997,
      "d": 400,
      "v": 70
    },
    {
      "midi": 66,
      "hit": false,
      "t": 119999.99999999997,
      "d": 400,
      "v": 91
    },
    {
      "midi": 59,
      "hit": false,
      "t": 120399.99999999997,
      "d": 400,
      "v": 91
    },
    {
      "midi": 63,
      "hit": false,
      "t": 120799.99999999997,
      "d": 400,
      "v": 91
    },
    {
      "midi": 69,
      "hit": false,
      "t": 120999.99999999997,
      "d": 600,
      "v": 91
    },
    {
      "midi": 59,
      "hit": false,
      "t": 121199.99999999997,
      "d": 400,
      "v": 76
    },
    {
      "midi": 63,
      "hit": false,
      "t": 121399.99999999997,
      "d": 400,
      "v": 52
    },
    {
      "midi": 67,
      "hit": false,
      "t": 121599.99999999997,
      "d": 600,
      "v": 85
    },
    {
      "midi": 52,
      "hit": false,
      "t": 121599.99999999997,
      "d": 1000,
      "v": 61
    },
    {
      "midi": 59,
      "hit": false,
      "t": 121606.66666666664,
      "d": 1000,
      "v": 61
    },
    {
      "midi": 64,
      "hit": false,
      "t": 122199.99999999997,
      "d": 800,
      "v": 79
    },
    {
      "midi": 67,
      "hit": false,
      "t": 122599.99999999997,
      "d": 400,
      "v": 76
    },
    {
      "midi": 67,
      "hit": false,
      "t": 122999.99999999997,
      "d": 1000,
      "v": 61
    },
    {
      "midi": 48,
      "hit": false,
      "t": 123599.99999999997,
      "d": 1000,
      "v": 69
    },
    {
      "midi": 64,
      "hit": false,
      "t": 123799.99999999997,
      "d": 700,
      "v": 61
    },
    {
      "midi": 67,
      "hit": false,
      "t": 124199.99999999997,
      "d": 593.3333333333285,
      "v": 86
    },
    {
      "midi": 48,
      "hit": false,
      "t": 124599.99999999997,
      "d": 200,
      "v": 49
    },
    {
      "midi": 54,
      "hit": false,
      "t": 124799.99999999997,
      "d": 600,
      "v": 65
    },
    {
      "midi": 66,
      "hit": false,
      "t": 124799.99999999997,
      "d": 600,
      "v": 85
    },
    {
      "midi": 50,
      "hit": false,
      "t": 124799.99999999997,
      "d": 1600,
      "v": 58
    },
    {
      "midi": 57,
      "hit": false,
      "t": 125199.99999999997,
      "d": 600,
      "v": 85
    },
    {
      "midi": 62,
      "hit": false,
      "t": 125399.99999999997,
      "d": 600,
      "v": 65
    },
    {
      "midi": 66,
      "hit": false,
      "t": 125799.99999999997,
      "d": 600,
      "v": 60
    },
    {
      "midi": 54,
      "hit": false,
      "t": 126399.99999999997,
      "d": 600,
      "v": 65
    },
    {
      "midi": 51,
      "hit": false,
      "t": 126399.99999999997,
      "d": 1600,
      "v": 58
    },
    {
      "midi": 63,
      "hit": false,
      "t": 126999.99999999997,
      "d": 200,
      "v": 55
    },
    {
      "midi": 63,
      "hit": false,
      "t": 127199.99999999997,
      "d": 320,
      "v": 55
    },
    {
      "midi": 64,
      "hit": false,
      "t": 127399.99999999997,
      "d": 320,
      "v": 55
    },
    {
      "midi": 66,
      "hit": false,
      "t": 127599.99999999997,
      "d": 320,
      "v": 55
    },
    {
      "midi": 59,
      "hit": false,
      "t": 127799.99999999997,
      "d": 320,
      "v": 55
    },
    {
      "midi": 52,
      "hit": false,
      "t": 127999.99999999997,
      "d": 3140.000000000029,
      "v": 85
    },
    {
      "midi": 48,
      "hit": false,
      "t": 128006.66666666664,
      "d": 2993.3333333333576,
      "v": 85
    },
    {
      "midi": 55,
      "hit": false,
      "t": 128586.66666666664,
      "d": 1600.0000000000146,
      "v": 54
    },
    {
      "midi": 64,
      "hit": false,
      "t": 128593.33333333331,
      "d": 1406.6666666666715,
      "v": 54
    },
    {
      "midi": 60,
      "hit": false,
      "t": 128593.33333333331,
      "d": 1600.0000000000146,
      "v": 54
    },
    {
      "midi": 67,
      "hit": false,
      "t": 128999.99999999999,
      "d": 600,
      "v": 85
    },
    {
      "midi": 67,
      "hit": false,
      "t": 129599.99999999999,
      "d": 400,
      "v": 85
    },
    {
      "midi": 64,
      "hit": false,
      "t": 130200,
      "d": 940,
      "v": 70
    },
    {
      "midi": 45,
      "hit": false,
      "t": 131000,
      "d": 246.66666666665697,
      "v": 48
    },
    {
      "midi": 50,
      "hit": false,
      "t": 131193.33333333334,
      "d": 2993.333333333314,
      "v": 85
    },
    {
      "midi": 57,
      "hit": false,
      "t": 131213.33333333334,
      "d": 1853.333333333314,
      "v": 63
    },
    {
      "midi": 62,
      "hit": false,
      "t": 131240,
      "d": 1760,
      "v": 56
    },
    {
      "midi": 57,
      "hit": false,
      "t": 133200,
      "d": 226.66666666665697,
      "v": 63
    },
    {
      "midi": 62,
      "hit": false,
      "t": 133400,
      "d": 226.66666666665697,
      "v": 63
    },
    {
      "midi": 57,
      "hit": false,
      "t": 133600,
      "d": 226.66666666665697,
      "v": 63
    },
    {
      "midi": 52,
      "hit": false,
      "t": 134400,
      "d": 2993.333333333343,
      "v": 85
    },
    {
      "midi": 67,
      "hit": false,
      "t": 136006.66666666666,
      "d": 600,
      "v": 72
    },
    {
      "midi": 59,
      "hit": false,
      "t": 136360,
      "d": 173.33333333334303,
      "v": 72
    },
    {
      "midi": 64,
      "hit": false,
      "t": 136593.33333333334,
      "d": 359.9999999999709,
      "v": 72
    },
    {
      "midi": 59,
      "hit": false,
      "t": 136600,
      "d": 140,
      "v": 72
    },
    {
      "midi": 59,
      "hit": false,
      "t": 136806.66666666666,
      "d": 346.66666666668607,
      "v": 72
    },
    {
      "midi": 67,
      "hit": false,
      "t": 136966.66666666666,
      "d": 600,
      "v": 72
    },
    {
      "midi": 64,
      "hit": false,
      "t": 136980,
      "d": 600,
      "v": 72
    },
    {
      "midi": 59,
      "hit": false,
      "t": 137213.33333333334,
      "d": 346.66666666665697,
      "v": 72
    },
    {
      "midi": 47,
      "hit": false,
      "t": 137400,
      "d": 800,
      "v": 73
    },
    {
      "midi": 59,
      "hit": false,
      "t": 137593.33333333334,
      "d": 800,
      "v": 75
    },
    {
      "midi": 64,
      "hit": false,
      "t": 137613.33333333334,
      "d": 800,
      "v": 75
    },
    {
      "midi": 67,
      "hit": false,
      "t": 138000,
      "d": 373.33333333334303,
      "v": 75
    },
    {
      "midi": 62,
      "hit": false,
      "t": 138380,
      "d": 800,
      "v": 75
    },
    {
      "midi": 66,
      "hit": false,
      "t": 138393.33333333334,
      "d": 800,
      "v": 75
    },
    {
      "midi": 69,
      "hit": false,
      "t": 138800,
      "d": 400,
      "v": 71
    },
    {
      "midi": 62,
      "hit": false,
      "t": 139200,
      "d": 800,
      "v": 75
    },
    {
      "midi": 71,
      "hit": false,
      "t": 139206.66666666666,
      "d": 193.33333333334303,
      "v": 67
    },
    {
      "midi": 67,
      "hit": false,
      "t": 139206.66666666666,
      "d": 800,
      "v": 75
    },
    {
      "midi": 69,
      "hit": false,
      "t": 139400,
      "d": 600,
      "v": 71
    },
    {
      "midi": 71,
      "hit": false,
      "t": 139600,
      "d": 600,
      "v": 71
    },
    {
      "midi": 66,
      "hit": false,
      "t": 140000,
      "d": 373.33333333331393,
      "v": 75
    },
    {
      "midi": 67,
      "hit": false,
      "t": 140366.66666666666,
      "d": 406.66666666665697,
      "v": 75
    },
    {
      "midi": 64,
      "hit": false,
      "t": 140799.99999999997,
      "d": 1540,
      "v": 75
    },
    {
      "midi": 48,
      "hit": false,
      "t": 140806.66666666663,
      "d": 1540,
      "v": 75
    },
    {
      "midi": 55,
      "hit": false,
      "t": 140819.99999999997,
      "d": 1540,
      "v": 75
    },
    {
      "midi": 60,
      "hit": false,
      "t": 140839.99999999997,
      "d": 1540,
      "v": 75
    },
    {
      "midi": 60,
      "hit": false,
      "t": 142999.99999999997,
      "d": 800,
      "v": 74
    },
    {
      "midi": 64,
      "hit": false,
      "t": 143399.99999999997,
      "d": 799.9999999999709,
      "v": 74
    },
    {
      "midi": 45,
      "hit": false,
      "t": 143799.99999999997,
      "d": 799.9999999999709,
      "v": 46
    },
    {
      "midi": 54,
      "hit": false,
      "t": 143966.66666666663,
      "d": 1539.999999999971,
      "v": 75
    },
    {
      "midi": 50,
      "hit": false,
      "t": 143973.33333333328,
      "d": 1346.666666666657,
      "v": 75
    },
    {
      "midi": 62,
      "hit": false,
      "t": 143979.99999999994,
      "d": 1540,
      "v": 75
    },
    {
      "midi": 57,
      "hit": false,
      "t": 144026.6666666666,
      "d": 1540,
      "v": 75
    },
    {
      "midi": 38,
      "hit": false,
      "t": 145166.6666666666,
      "d": 193.33333333334303,
      "v": 73
    },
    {
      "midi": 38,
      "hit": false,
      "t": 145366.6666666666,
      "d": 1033.333333333314,
      "v": 73
    },
    {
      "midi": 45,
      "hit": false,
      "t": 145379.99999999994,
      "d": 1000,
      "v": 73
    },
    {
      "midi": 50,
      "hit": false,
      "t": 145399.99999999994,
      "d": 960,
      "v": 75
    },
    {
      "midi": 45,
      "hit": false,
      "t": 146386.6666666666,
      "d": 413.33333333331393,
      "v": 73
    },
    {
      "midi": 64,
      "hit": false,
      "t": 146386.6666666666,
      "d": 413.33333333331393,
      "v": 73
    },
    {
      "midi": 57,
      "hit": false,
      "t": 146393.33333333326,
      "d": 726.666666666657,
      "v": 73
    },
    {
      "midi": 38,
      "hit": false,
      "t": 146399.9999999999,
      "d": 753.333333333343,
      "v": 73
    },
    {
      "midi": 50,
      "hit": false,
      "t": 146406.66666666657,
      "d": 780,
      "v": 73
    },
    {
      "midi": 45,
      "hit": false,
      "t": 146799.9999999999,
      "d": 413.33333333331393,
      "v": 73
    },
    {
      "midi": 66,
      "hit": false,
      "t": 146819.9999999999,
      "d": 380,
      "v": 73
    },
    {
      "midi": 59,
      "hit": false,
      "t": 147179.9999999999,
      "d": 419.9999999999709,
      "v": 75
    },
    {
      "midi": 47,
      "hit": false,
      "t": 147186.66666666657,
      "d": 1586.666666666657,
      "v": 75
    },
    {
      "midi": 64,
      "hit": false,
      "t": 147199.9999999999,
      "d": 379.9999999999709,
      "v": 87
    },
    {
      "midi": 55,
      "hit": false,
      "t": 147199.9999999999,
      "d": 1573.333333333314,
      "v": 75
    },
    {
      "midi": 52,
      "hit": false,
      "t": 147206.66666666657,
      "d": 1526.666666666657,
      "v": 75
    },
    {
      "midi": 59,
      "hit": false,
      "t": 147599.99999999988,
      "d": 200,
      "v": 75
    },
    {
      "midi": 67,
      "hit": false,
      "t": 147599.99999999988,
      "d": 380,
      "v": 87
    },
    {
      "midi": 64,
      "hit": false,
      "t": 147799.99999999988,
      "d": 200,
      "v": 62
    },
    {
      "midi": 71,
      "hit": false,
      "t": 147999.99999999988,
      "d": 380,
      "v": 90
    },
    {
      "midi": 64,
      "hit": false,
      "t": 147999.99999999988,
      "d": 400,
      "v": 62
    },
    {
      "midi": 59,
      "hit": false,
      "t": 148399.99999999988,
      "d": 400.0000000000291,
      "v": 64
    },
    {
      "midi": 48,
      "hit": false,
      "t": 148786.66666666657,
      "d": 1573.333333333343,
      "v": 75
    },
    {
      "midi": 55,
      "hit": false,
      "t": 148786.66666666657,
      "d": 1573.333333333343,
      "v": 75
    },
    {
      "midi": 67,
      "hit": false,
      "t": 148799.9999999999,
      "d": 400,
      "v": 90
    },
    {
      "midi": 52,
      "hit": false,
      "t": 148799.9999999999,
      "d": 1573.333333333343,
      "v": 75
    },
    {
      "midi": 60,
      "hit": false,
      "t": 148806.66666666657,
      "d": 393.33333333334303,
      "v": 75
    },
    {
      "midi": 60,
      "hit": false,
      "t": 149199.9999999999,
      "d": 200,
      "v": 62
    },
    {
      "midi": 72,
      "hit": false,
      "t": 149199.9999999999,
      "d": 400,
      "v": 90
    },
    {
      "midi": 64,
      "hit": false,
      "t": 149399.9999999999,
      "d": 200,
      "v": 62
    },
    {
      "midi": 67,
      "hit": false,
      "t": 149599.9999999999,
      "d": 200,
      "v": 87
    },
    {
      "midi": 67,
      "hit": false,
      "t": 149799.9999999999,
      "d": 400,
      "v": 62
    },
    {
      "midi": 64,
      "hit": false,
      "t": 150199.9999999999,
      "d": 200,
      "v": 64
    },
    {
      "midi": 55,
      "hit": false,
      "t": 150406.66666666657,
      "d": 1573.333333333343,
      "v": 75
    },
    {
      "midi": 48,
      "hit": false,
      "t": 150413.33333333323,
      "d": 1573.333333333343,
      "v": 75
    },
    {
      "midi": 64,
      "hit": false,
      "t": 150426.66666666657,
      "d": 353.33333333334303,
      "v": 75
    },
    {
      "midi": 60,
      "hit": false,
      "t": 150426.66666666657,
      "d": 1573.333333333343,
      "v": 75
    },
    {
      "midi": 64,
      "hit": false,
      "t": 150799.9999999999,
      "d": 173.33333333334303,
      "v": 75
    },
    {
      "midi": 64,
      "hit": false,
      "t": 150999.9999999999,
      "d": 173.33333333334303,
      "v": 75
    },
    {
      "midi": 72,
      "hit": false,
      "t": 150999.9999999999,
      "d": 200,
      "v": 87
    },
    {
      "midi": 72,
      "hit": false,
      "t": 151199.9999999999,
      "d": 200,
      "v": 87
    },
    {
      "midi": 67,
      "hit": false,
      "t": 151199.9999999999,
      "d": 360,
      "v": 75
    },
    {
      "midi": 67,
      "hit": false,
      "t": 151613.33333333326,
      "d": 360,
      "v": 75
    },
    {
      "midi": 66,
      "hit": false,
      "t": 151999.9999999999,
      "d": 1000,
      "v": 75
    },
    {
      "midi": 50,
      "hit": false,
      "t": 151999.9999999999,
      "d": 1573.333333333343,
      "v": 75
    },
    {
      "midi": 57,
      "hit": false,
      "t": 151999.9999999999,
      "d": 1573.333333333343,
      "v": 75
    },
    {
      "midi": 62,
      "hit": false,
      "t": 151999.9999999999,
      "d": 1573.333333333343,
      "v": 75
    },
    {
      "midi": 74,
      "hit": false,
      "t": 152399.9999999999,
      "d": 200,
      "v": 87
    },
    {
      "midi": 69,
      "hit": false,
      "t": 152999.9999999999,
      "d": 200,
      "v": 87
    },
    {
      "midi": 66,
      "hit": false,
      "t": 152999.9999999999,
      "d": 400,
      "v": 75
    },
    {
      "midi": 66,
      "hit": false,
      "t": 153399.9999999999,
      "d": 186.66666666665697,
      "v": 75
    },
    {
      "midi": 59,
      "hit": false,
      "t": 153579.9999999999,
      "d": 420,
      "v": 75
    },
    {
      "midi": 47,
      "hit": false,
      "t": 153586.66666666657,
      "d": 1586.666666666686,
      "v": 75
    },
    {
      "midi": 71,
      "hit": false,
      "t": 153599.9999999999,
      "d": 200,
      "v": 87
    },
    {
      "midi": 55,
      "hit": false,
      "t": 153599.9999999999,
      "d": 1573.333333333343,
      "v": 75
    },
    {
      "midi": 52,
      "hit": false,
      "t": 153606.66666666657,
      "d": 1526.666666666686,
      "v": 75
    },
    {
      "midi": 59,
      "hit": false,
      "t": 153999.9999999999,
      "d": 200,
      "v": 75
    },
    {
      "midi": 64,
      "hit": false,
      "t": 154199.9999999999,
      "d": 200,
      "v": 62
    },
    {
      "midi": 71,
      "hit": false,
      "t": 154199.9999999999,
      "d": 200,
      "v": 87
    },
    {
      "midi": 64,
      "hit": false,
      "t": 154399.9999999999,
      "d": 400,
      "v": 62
    },
    {
      "midi": 67,
      "hit": false,
      "t": 154599.9999999999,
      "d": 800.0000000000291,
      "v": 99
    },
    {
      "midi": 59,
      "hit": false,
      "t": 154799.9999999999,
      "d": 200,
      "v": 64
    },
    {
      "midi": 59,
      "hit": false,
      "t": 154999.9999999999,
      "d": 200.0000000000291,
      "v": 81
    },
    {
      "midi": 48,
      "hit": false,
      "t": 155186.6666666666,
      "d": 1573.333333333343,
      "v": 75
    },
    {
      "midi": 55,
      "hit": false,
      "t": 155186.6666666666,
      "d": 1573.333333333343,
      "v": 75
    },
    {
      "midi": 52,
      "hit": false,
      "t": 155199.99999999994,
      "d": 1573.333333333343,
      "v": 75
    },
    {
      "midi": 60,
      "hit": false,
      "t": 155206.6666666666,
      "d": 393.33333333334303,
      "v": 75
    },
    {
      "midi": 60,
      "hit": false,
      "t": 155599.99999999994,
      "d": 200,
      "v": 62
    },
    {
      "midi": 72,
      "hit": false,
      "t": 155599.99999999994,
      "d": 200,
      "v": 87
    },
    {
      "midi": 64,
      "hit": false,
      "t": 155799.99999999994,
      "d": 200,
      "v": 62
    },
    {
      "midi": 64,
      "hit": false,
      "t": 155999.99999999994,
      "d": 200,
      "v": 62
    },
    {
      "midi": 67,
      "hit": false,
      "t": 156199.99999999994,
      "d": 400,
      "v": 96
    },
    {
      "midi": 72,
      "hit": false,
      "t": 156399.99999999994,
      "d": 200,
      "v": 87
    },
    {
      "midi": 64,
      "hit": false,
      "t": 156599.99999999994,
      "d": 200,
      "v": 64
    },
    {
      "midi": 55,
      "hit": false,
      "t": 156806.6666666666,
      "d": 1573.3333333333721,
      "v": 75
    },
    {
      "midi": 48,
      "hit": false,
      "t": 156813.33333333326,
      "d": 1573.3333333333721,
      "v": 75
    },
    {
      "midi": 64,
      "hit": false,
      "t": 156826.6666666666,
      "d": 560,
      "v": 75
    },
    {
      "midi": 60,
      "hit": false,
      "t": 156826.6666666666,
      "d": 1573.3333333333721,
      "v": 75
    },
    {
      "midi": 64,
      "hit": false,
      "t": 157399.99999999994,
      "d": 173.33333333334303,
      "v": 75
    },
    {
      "midi": 64,
      "hit": false,
      "t": 157599.99999999994,
      "d": 220,
      "v": 75
    },
    {
      "midi": 67,
      "hit": false,
      "t": 158013.33333333328,
      "d": 13.333333333343035,
      "v": 94
    },
    {
      "midi": 66,
      "hit": false,
      "t": 158399.99999999997,
      "d": 1000,
      "v": 75
    },
    {
      "midi": 50,
      "hit": false,
      "t": 158399.99999999997,
      "d": 1573.333333333314,
      "v": 75
    },
    {
      "midi": 57,
      "hit": false,
      "t": 158399.99999999997,
      "d": 1573.333333333314,
      "v": 75
    },
    {
      "midi": 62,
      "hit": false,
      "t": 158399.99999999997,
      "d": 1573.333333333314,
      "v": 75
    },
    {
      "midi": 69,
      "hit": false,
      "t": 158799.99999999997,
      "d": 200,
      "v": 87
    },
    {
      "midi": 71,
      "hit": false,
      "t": 158999.99999999997,
      "d": 200,
      "v": 87
    },
    {
      "midi": 72,
      "hit": false,
      "t": 159199.99999999997,
      "d": 799.9999999999418,
      "v": 87
    },
    {
      "midi": 66,
      "hit": false,
      "t": 159399.99999999997,
      "d": 400,
      "v": 75
    },
    {
      "midi": 66,
      "hit": false,
      "t": 159799.99999999997,
      "d": 186.66666666662786,
      "v": 75
    },
    {
      "midi": 55,
      "hit": false,
      "t": 159966.66666666663,
      "d": 1573.333333333314,
      "v": 75
    },
    {
      "midi": 50,
      "hit": false,
      "t": 159979.99999999994,
      "d": 1573.333333333314,
      "v": 75
    },
    {
      "midi": 67,
      "hit": false,
      "t": 159993.33333333326,
      "d": 380,
      "v": 75
    },
    {
      "midi": 59,
      "hit": false,
      "t": 159999.9999999999,
      "d": 380,
      "v": 75
    },
    {
      "midi": 59,
      "hit": false,
      "t": 160413.33333333326,
      "d": 380,
      "v": 75
    },
    {
      "midi": 62,
      "hit": false,
      "t": 160586.6666666666,
      "d": 380,
      "v": 75
    },
    {
      "midi": 59,
      "hit": false,
      "t": 161186.6666666666,
      "d": 360,
      "v": 75
    },
    {
      "midi": 55,
      "hit": false,
      "t": 161559.9999999999,
      "d": 1573.333333333343,
      "v": 75
    },
    {
      "midi": 50,
      "hit": false,
      "t": 161573.33333333326,
      "d": 1573.333333333343,
      "v": 75
    },
    {
      "midi": 60,
      "hit": false,
      "t": 161599.9999999999,
      "d": 1573.333333333343,
      "v": 75
    },
    {
      "midi": 67,
      "hit": false,
      "t": 162213.33333333326,
      "d": 380,
      "v": 75
    },
    {
      "midi": 62,
      "hit": false,
      "t": 162579.9999999999,
      "d": 360,
      "v": 75
    },
    {
      "midi": 52,
      "hit": false,
      "t": 163206.6666666666,
      "d": 1566.666666666657,
      "v": 75
    },
    {
      "midi": 55,
      "hit": false,
      "t": 163206.6666666666,
      "d": 1566.666666666657,
      "v": 75
    },
    {
      "midi": 60,
      "hit": false,
      "t": 163206.6666666666,
      "d": 1566.666666666657,
      "v": 75
    },
    {
      "midi": 50,
      "hit": false,
      "t": 164786.6666666666,
      "d": 1566.666666666657,
      "v": 75
    },
    {
      "midi": 62,
      "hit": false,
      "t": 164793.33333333326,
      "d": 1566.666666666657,
      "v": 75
    },
    {
      "midi": 57,
      "hit": false,
      "t": 164813.33333333326,
      "d": 1566.666666666657,
      "v": 75
    },
    {
      "midi": 60,
      "hit": false,
      "t": 166386.66666666657,
      "d": 2013.333333333314,
      "v": 75
    },
    {
      "midi": 57,
      "hit": false,
      "t": 166386.66666666657,
      "d": 3013.333333333314,
      "v": 75
    },
    {
      "midi": 52,
      "hit": false,
      "t": 166393.33333333323,
      "d": 2406.666666666657,
      "v": 75
    },
    {
      "midi": 64,
      "hit": false,
      "t": 166399.99999999988,
      "d": 2000,
      "v": 75
    },
    {
      "midi": 67,
      "hit": false,
      "t": 167186.66666666654,
      "d": 1413.333333333343,
      "v": 75
    },
    {
      "midi": 64,
      "hit": false,
      "t": 168399.99999999988,
      "d": 400,
      "v": 75
    },
    {
      "midi": 60,
      "hit": false,
      "t": 168799.99999999988,
      "d": 200,
      "v": 75
    },
    {
      "midi": 67,
      "hit": false,
      "t": 168799.99999999988,
      "d": 200,
      "v": 75
    },
    {
      "midi": 52,
      "hit": false,
      "t": 168799.99999999988,
      "d": 786.666666666657,
      "v": 75
    },
    {
      "midi": 59,
      "hit": false,
      "t": 168999.99999999988,
      "d": 200,
      "v": 75
    },
    {
      "midi": 66,
      "hit": false,
      "t": 168999.99999999988,
      "d": 200,
      "v": 75
    },
    {
      "midi": 60,
      "hit": false,
      "t": 169199.99999999988,
      "d": 200,
      "v": 75
    },
    {
      "midi": 67,
      "hit": false,
      "t": 169199.99999999988,
      "d": 200,
      "v": 75
    },
    {
      "midi": 57,
      "hit": false,
      "t": 169399.99999999988,
      "d": 200,
      "v": 75
    },
    {
      "midi": 66,
      "hit": false,
      "t": 169399.99999999988,
      "d": 200,
      "v": 75
    },
    {
      "midi": 48,
      "hit": false,
      "t": 169599.99999999988,
      "d": 400,
      "v": 63
    },
    {
      "midi": 55,
      "hit": false,
      "t": 169599.99999999988,
      "d": 400,
      "v": 63
    },
    {
      "midi": 60,
      "hit": false,
      "t": 169599.99999999988,
      "d": 400,
      "v": 63
    },
    {
      "midi": 79,
      "hit": false,
      "t": 172399.99999999988,
      "d": 146.66666666665697,
      "v": 63
    },
    {
      "midi": 78,
      "hit": false,
      "t": 172599.99999999988,
      "d": 146.66666666665697,
      "v": 63
    },
    {
      "midi": 76,
      "hit": false,
      "t": 172799.99999999988,
      "d": 1533.333333333343,
      "v": 70
    },
    {
      "midi": 52,
      "hit": false,
      "t": 172799.99999999988,
      "d": 1560,
      "v": 70
    },
    {
      "midi": 59,
      "hit": false,
      "t": 172999.99999999988,
      "d": 1360,
      "v": 44
    },
    {
      "midi": 64,
      "hit": false,
      "t": 173199.99999999988,
      "d": 200,
      "v": 44
    },
    {
      "midi": 71,
      "hit": false,
      "t": 173399.99999999988,
      "d": 200,
      "v": 83
    },
    {
      "midi": 67,
      "hit": false,
      "t": 173799.99999999988,
      "d": 200,
      "v": 81
    },
    {
      "midi": 79,
      "hit": false,
      "t": 173999.99999999988,
      "d": 200,
      "v": 77
    },
    {
      "midi": 78,
      "hit": false,
      "t": 174199.99999999988,
      "d": 200,
      "v": 79
    },
    {
      "midi": 48,
      "hit": false,
      "t": 174393.33333333323,
      "d": 1559.999999999971,
      "v": 70
    },
    {
      "midi": 76,
      "hit": false,
      "t": 174413.33333333323,
      "d": 1526.6666666666279,
      "v": 70
    },
    {
      "midi": 55,
      "hit": false,
      "t": 174599.99999999988,
      "d": 1226.666666666657,
      "v": 44
    },
    {
      "midi": 60,
      "hit": false,
      "t": 174799.99999999988,
      "d": 1053.333333333314,
      "v": 49
    },
    {
      "midi": 72,
      "hit": false,
      "t": 174999.99999999988,
      "d": 200,
      "v": 77
    },
    {
      "midi": 67,
      "hit": false,
      "t": 175399.99999999988,
      "d": 200,
      "v": 77
    },
    {
      "midi": 79,
      "hit": false,
      "t": 175599.99999999988,
      "d": 200,
      "v": 79
    },
    {
      "midi": 78,
      "hit": false,
      "t": 175799.99999999988,
      "d": 199.9999999999709,
      "v": 79
    },
    {
      "midi": 76,
      "hit": false,
      "t": 175999.99999999985,
      "d": 1526.666666666657,
      "v": 70
    },
    {
      "midi": 45,
      "hit": false,
      "t": 175999.99999999985,
      "d": 1560,
      "v": 70
    },
    {
      "midi": 52,
      "hit": false,
      "t": 176199.99999999985,
      "d": 1226.666666666657,
      "v": 44
    },
    {
      "midi": 60,
      "hit": false,
      "t": 176399.99999999985,
      "d": 1226.666666666657,
      "v": 44
    },
    {
      "midi": 72,
      "hit": false,
      "t": 176599.99999999985,
      "d": 1526.666666666657,
      "v": 98
    },
    {
      "midi": 67,
      "hit": false,
      "t": 176999.99999999985,
      "d": 400,
      "v": 89
    },
    {
      "midi": 74,
      "hit": false,
      "t": 177199.99999999985,
      "d": 1226.666666666657,
      "v": 89
    },
    {
      "midi": 57,
      "hit": false,
      "t": 177399.99999999985,
      "d": 200,
      "v": 65
    },
    {
      "midi": 62,
      "hit": false,
      "t": 177599.99999999985,
      "d": 200,
      "v": 87
    },
    {
      "midi": 50,
      "hit": false,
      "t": 177599.99999999985,
      "d": 793.333333333343,
      "v": 72
    },
    {
      "midi": 57,
      "hit": false,
      "t": 177799.99999999985,
      "d": 1226.666666666657,
      "v": 44
    },
    {
      "midi": 67,
      "hit": false,
      "t": 177999.99999999985,
      "d": 320,
      "v": 87
    },
    {
      "midi": 62,
      "hit": false,
      "t": 177999.99999999985,
      "d": 400,
      "v": 44
    },
    {
      "midi": 62,
      "hit": false,
      "t": 178399.99999999985,
      "d": 800,
      "v": 71
    },
    {
      "midi": 50,
      "hit": false,
      "t": 178406.6666666665,
      "d": 1226.666666666686,
      "v": 57
    },
    {
      "midi": 71,
      "hit": false,
      "t": 178799.99999999985,
      "d": 200,
      "v": 64
    },
    {
      "midi": 66,
      "hit": false,
      "t": 178999.99999999985,
      "d": 200,
      "v": 64
    },
    {
      "midi": 69,
      "hit": false,
      "t": 178999.99999999985,
      "d": 200,
      "v": 64
    },
    {
      "midi": 67,
      "hit": false,
      "t": 179199.99999999985,
      "d": 380,
      "v": 87
    },
    {
      "midi": 58,
      "hit": false,
      "t": 179199.99999999985,
      "d": 1573.333333333343,
      "v": 75
    },
    {
      "midi": 55,
      "hit": false,
      "t": 179206.6666666665,
      "d": 1526.666666666686,
      "v": 75
    },
    {
      "midi": 62,
      "hit": false,
      "t": 179219.99999999985,
      "d": 1166.666666666657,
      "v": 75
    },
    {
      "midi": 70,
      "hit": false,
      "t": 179599.99999999985,
      "d": 380,
      "v": 87
    },
    {
      "midi": 67,
      "hit": false,
      "t": 179799.99999999985,
      "d": 200,
      "v": 62
    },
    {
      "midi": 74,
      "hit": false,
      "t": 179999.99999999985,
      "d": 380,
      "v": 90
    },
    {
      "midi": 67,
      "hit": false,
      "t": 179999.99999999985,
      "d": 400,
      "v": 62
    },
    {
      "midi": 62,
      "hit": false,
      "t": 180399.99999999985,
      "d": 400.0000000000291,
      "v": 64
    },
    {
      "midi": 51,
      "hit": false,
      "t": 180786.66666666654,
      "d": 1573.333333333343,
      "v": 75
    },
    {
      "midi": 58,
      "hit": false,
      "t": 180786.66666666654,
      "d": 1573.333333333343,
      "v": 75
    },
    {
      "midi": 70,
      "hit": false,
      "t": 180799.99999999988,
      "d": 400,
      "v": 90
    },
    {
      "midi": 55,
      "hit": false,
      "t": 180799.99999999988,
      "d": 1573.333333333343,
      "v": 75
    },
    {
      "midi": 63,
      "hit": false,
      "t": 180806.66666666654,
      "d": 393.33333333334303,
      "v": 75
    },
    {
      "midi": 63,
      "hit": false,
      "t": 181199.99999999988,
      "d": 200,
      "v": 62
    },
    {
      "midi": 75,
      "hit": false,
      "t": 181199.99999999988,
      "d": 400,
      "v": 90
    },
    {
      "midi": 67,
      "hit": false,
      "t": 181399.99999999988,
      "d": 200,
      "v": 62
    },
    {
      "midi": 70,
      "hit": false,
      "t": 181599.99999999988,
      "d": 200,
      "v": 87
    },
    {
      "midi": 70,
      "hit": false,
      "t": 181799.99999999988,
      "d": 400,
      "v": 62
    },
    {
      "midi": 67,
      "hit": false,
      "t": 182199.99999999988,
      "d": 200,
      "v": 64
    },
    {
      "midi": 60,
      "hit": false,
      "t": 182406.66666666654,
      "d": 1573.333333333343,
      "v": 75
    },
    {
      "midi": 51,
      "hit": false,
      "t": 182413.3333333332,
      "d": 1573.333333333343,
      "v": 75
    },
    {
      "midi": 67,
      "hit": false,
      "t": 182426.66666666654,
      "d": 353.33333333334303,
      "v": 75
    },
    {
      "midi": 63,
      "hit": false,
      "t": 182426.66666666654,
      "d": 1573.333333333343,
      "v": 75
    },
    {
      "midi": 67,
      "hit": false,
      "t": 182799.99999999988,
      "d": 173.33333333334303,
      "v": 75
    },
    {
      "midi": 67,
      "hit": false,
      "t": 182999.99999999988,
      "d": 173.33333333334303,
      "v": 75
    },
    {
      "midi": 70,
      "hit": false,
      "t": 182999.99999999988,
      "d": 200,
      "v": 87
    },
    {
      "midi": 70,
      "hit": false,
      "t": 183199.99999999988,
      "d": 360,
      "v": 75
    },
    {
      "midi": 67,
      "hit": false,
      "t": 183613.33333333323,
      "d": 360,
      "v": 88
    },
    {
      "midi": 53,
      "hit": false,
      "t": 183999.99999999988,
      "d": 813.3333333333139,
      "v": 75
    },
    {
      "midi": 65,
      "hit": false,
      "t": 183999.99999999988,
      "d": 999.9999999999709,
      "v": 75
    },
    {
      "midi": 70,
      "hit": false,
      "t": 183999.99999999988,
      "d": 999.9999999999709,
      "v": 75
    },
    {
      "midi": 60,
      "hit": false,
      "t": 183999.99999999988,
      "d": 1573.333333333314,
      "v": 75
    },
    {
      "midi": 77,
      "hit": false,
      "t": 184399.99999999988,
      "d": 200,
      "v": 87
    },
    {
      "midi": 54,
      "hit": false,
      "t": 184786.66666666654,
      "d": 813.3333333333139,
      "v": 75
    },
    {
      "midi": 63,
      "hit": false,
      "t": 184993.3333333332,
      "d": 400,
      "v": 75
    },
    {
      "midi": 69,
      "hit": false,
      "t": 184999.99999999985,
      "d": 400,
      "v": 75
    },
    {
      "midi": 69,
      "hit": false,
      "t": 185399.99999999985,
      "d": 186.66666666665697,
      "v": 75
    },
    {
      "midi": 62,
      "hit": false,
      "t": 185579.99999999985,
      "d": 419.9999999999709,
      "v": 75
    },
    {
      "midi": 50,
      "hit": false,
      "t": 185586.6666666665,
      "d": 1586.666666666657,
      "v": 75
    },
    {
      "midi": 70,
      "hit": false,
      "t": 185599.99999999985,
      "d": 519.9999999999709,
      "v": 87
    },
    {
      "midi": 58,
      "hit": false,
      "t": 185599.99999999985,
      "d": 1573.333333333314,
      "v": 75
    },
    {
      "midi": 55,
      "hit": false,
      "t": 185606.6666666665,
      "d": 1526.666666666657,
      "v": 75
    },
    {
      "midi": 67,
      "hit": false,
      "t": 185613.33333333317,
      "d": 200,
      "v": 87
    },
    {
      "midi": 62,
      "hit": false,
      "t": 185999.99999999983,
      "d": 200,
      "v": 75
    },
    {
      "midi": 67,
      "hit": false,
      "t": 186199.99999999983,
      "d": 200,
      "v": 62
    },
    {
      "midi": 70,
      "hit": false,
      "t": 186199.99999999983,
      "d": 200,
      "v": 87
    },
    {
      "midi": 67,
      "hit": false,
      "t": 186399.99999999983,
      "d": 400,
      "v": 62
    },
    {
      "midi": 70,
      "hit": false,
      "t": 186599.99999999983,
      "d": 800.0000000000291,
      "v": 99
    },
    {
      "midi": 62,
      "hit": false,
      "t": 186799.99999999983,
      "d": 200,
      "v": 64
    },
    {
      "midi": 62,
      "hit": false,
      "t": 186999.99999999983,
      "d": 200.0000000000291,
      "v": 81
    },
    {
      "midi": 51,
      "hit": false,
      "t": 187186.6666666665,
      "d": 1573.333333333343,
      "v": 75
    },
    {
      "midi": 58,
      "hit": false,
      "t": 187186.6666666665,
      "d": 1573.333333333343,
      "v": 75
    },
    {
      "midi": 67,
      "hit": false,
      "t": 187199.99999999985,
      "d": 393.33333333334303,
      "v": 75
    },
    {
      "midi": 55,
      "hit": false,
      "t": 187199.99999999985,
      "d": 1573.333333333343,
      "v": 75
    },
    {
      "midi": 63,
      "hit": false,
      "t": 187206.6666666665,
      "d": 393.33333333334303,
      "v": 75
    },
    {
      "midi": 63,
      "hit": false,
      "t": 187599.99999999985,
      "d": 200,
      "v": 62
    },
    {
      "midi": 67,
      "hit": false,
      "t": 187799.99999999985,
      "d": 200,
      "v": 62
    },
    {
      "midi": 70,
      "hit": false,
      "t": 187813.3333333332,
      "d": 400,
      "v": 87
    },
    {
      "midi": 67,
      "hit": false,
      "t": 187999.99999999985,
      "d": 200,
      "v": 62
    },
    {
      "midi": 70,
      "hit": false,
      "t": 188399.99999999985,
      "d": 200,
      "v": 74
    },
    {
      "midi": 67,
      "hit": false,
      "t": 188599.99999999985,
      "d": 200,
      "v": 64
    },
    {
      "midi": 70,
      "hit": false,
      "t": 188599.99999999985,
      "d": 200,
      "v": 62
    },
    {
      "midi": 70,
      "hit": false,
      "t": 188799.99999999985,
      "d": 560,
      "v": 91
    },
    {
      "midi": 55,
      "hit": false,
      "t": 188806.6666666665,
      "d": 1573.3333333334012,
      "v": 75
    },
    {
      "midi": 51,
      "hit": false,
      "t": 188813.33333333317,
      "d": 1573.3333333334012,
      "v": 75
    },
    {
      "midi": 63,
      "hit": false,
      "t": 188826.6666666665,
      "d": 373.33333333334303,
      "v": 75
    },
    {
      "midi": 67,
      "hit": false,
      "t": 188826.6666666665,
      "d": 560,
      "v": 75
    },
    {
      "midi": 63,
      "hit": false,
      "t": 189199.99999999985,
      "d": 373.33333333334303,
      "v": 84
    },
    {
      "midi": 67,
      "hit": false,
      "t": 189399.99999999985,
      "d": 173.33333333334303,
      "v": 91
    },
    {
      "midi": 70,
      "hit": false,
      "t": 189399.99999999985,
      "d": 373.33333333334303,
      "v": 91
    },
    {
      "midi": 67,
      "hit": false,
      "t": 189599.99999999985,
      "d": 220.0000000000291,
      "v": 75
    },
    {
      "midi": 70,
      "hit": false,
      "t": 190013.33333333323,
      "d": 13.333333333343035,
      "v": 94
    },
    {
      "midi": 60,
      "hit": false,
      "t": 190399.9999999999,
      "d": 200,
      "v": 75
    },
    {
      "midi": 70,
      "hit": false,
      "t": 190399.9999999999,
      "d": 800,
      "v": 75
    },
    {
      "midi": 53,
      "hit": false,
      "t": 190399.9999999999,
      "d": 1573.333333333343,
      "v": 75
    },
    {
      "midi": 65,
      "hit": false,
      "t": 190399.9999999999,
      "d": 1573.333333333343,
      "v": 75
    },
    {
      "midi": 60,
      "hit": false,
      "t": 190599.9999999999,
      "d": 200,
      "v": 88
    },
    {
      "midi": 60,
      "hit": false,
      "t": 190799.9999999999,
      "d": 200,
      "v": 75
    },
    {
      "midi": 60,
      "hit": false,
      "t": 190999.9999999999,
      "d": 200,
      "v": 75
    },
    {
      "midi": 69,
      "hit": false,
      "t": 191173.33333333326,
      "d": 813.333333333343,
      "v": 75
    },
    {
      "midi": 60,
      "hit": false,
      "t": 191399.9999999999,
      "d": 200,
      "v": 87
    },
    {
      "midi": 60,
      "hit": false,
      "t": 191599.9999999999,
      "d": 200,
      "v": 87
    },
    {
      "midi": 60,
      "hit": false,
      "t": 191799.9999999999,
      "d": 200.0000000000291,
      "v": 87
    },
    {
      "midi": 55,
      "hit": false,
      "t": 192006.6666666666,
      "d": 1526.666666666686,
      "v": 75
    },
    {
      "midi": 70,
      "hit": false,
      "t": 192019.99999999994,
      "d": 380,
      "v": 75
    },
    {
      "midi": 62,
      "hit": false,
      "t": 192019.99999999994,
      "d": 1166.666666666657,
      "v": 75
    },
    {
      "midi": 70,
      "hit": false,
      "t": 192619.99999999994,
      "d": 180,
      "v": 87
    },
    {
      "midi": 70,
      "hit": false,
      "t": 192799.99999999994,
      "d": 380,
      "v": 90
    },
    {
      "midi": 62,
      "hit": false,
      "t": 193199.99999999994,
      "d": 400.0000000000291,
      "v": 77
    },
    {
      "midi": 51,
      "hit": false,
      "t": 193586.66666666663,
      "d": 1573.333333333314,
      "v": 75
    },
    {
      "midi": 58,
      "hit": false,
      "t": 193586.66666666663,
      "d": 1573.333333333314,
      "v": 75
    },
    {
      "midi": 70,
      "hit": false,
      "t": 193599.99999999997,
      "d": 400,
      "v": 90
    },
    {
      "midi": 55,
      "hit": false,
      "t": 193599.99999999997,
      "d": 1573.333333333314,
      "v": 75
    },
    {
      "midi": 63,
      "hit": false,
      "t": 193999.99999999997,
      "d": 400,
      "v": 62
    },
    {
      "midi": 75,
      "hit": false,
      "t": 193999.99999999997,
      "d": 400,
      "v": 90
    },
    {
      "midi": 70,
      "hit": false,
      "t": 194399.99999999997,
      "d": 200,
      "v": 87
    },
    {
      "midi": 63,
      "hit": false,
      "t": 194406.66666666663,
      "d": 400,
      "v": 62
    },
    {
      "midi": 70,
      "hit": false,
      "t": 194599.99999999997,
      "d": 206.66666666665697,
      "v": 62
    },
    {
      "midi": 72,
      "hit": false,
      "t": 194793.3333333333,
      "d": 199.9999999999709,
      "v": 64
    },
    {
      "midi": 65,
      "hit": false,
      "t": 194799.99999999997,
      "d": 206.66666666662786,
      "v": 62
    },
    {
      "midi": 69,
      "hit": false,
      "t": 194799.99999999997,
      "d": 206.66666666662786,
      "v": 62
    },
    {
      "midi": 74,
      "hit": false,
      "t": 194993.33333333328,
      "d": 200,
      "v": 64
    },
    {
      "midi": 67,
      "hit": false,
      "t": 194999.99999999994,
      "d": 200,
      "v": 64
    },
    {
      "midi": 70,
      "hit": false,
      "t": 194999.99999999994,
      "d": 206.66666666665697,
      "v": 62
    },
    {
      "midi": 75,
      "hit": false,
      "t": 195199.99999999994,
      "d": 593.333333333343,
      "v": 90
    },
    {
      "midi": 60,
      "hit": false,
      "t": 195206.6666666666,
      "d": 1573.333333333314,
      "v": 75
    },
    {
      "midi": 51,
      "hit": false,
      "t": 195213.33333333326,
      "d": 1573.333333333314,
      "v": 75
    },
    {
      "midi": 67,
      "hit": false,
      "t": 195226.6666666666,
      "d": 353.33333333334303,
      "v": 75
    },
    {
      "midi": 63,
      "hit": false,
      "t": 195226.6666666666,
      "d": 1573.333333333314,
      "v": 75
    },
    {
      "midi": 67,
      "hit": false,
      "t": 195599.99999999994,
      "d": 173.33333333334303,
      "v": 75
    },
    {
      "midi": 67,
      "hit": false,
      "t": 195799.99999999994,
      "d": 173.33333333331393,
      "v": 75
    },
    {
      "midi": 72,
      "hit": false,
      "t": 195806.6666666666,
      "d": 593.3333333333139,
      "v": 87
    },
    {
      "midi": 70,
      "hit": false,
      "t": 196413.33333333326,
      "d": 360,
      "v": 88
    },
    {
      "midi": 70,
      "hit": false,
      "t": 196799.9999999999,
      "d": 813.3333333333139,
      "v": 75
    },
    {
      "midi": 65,
      "hit": false,
      "t": 196799.9999999999,
      "d": 999.9999999999709,
      "v": 75
    },
    {
      "midi": 60,
      "hit": false,
      "t": 196799.9999999999,
      "d": 1573.3333333332848,
      "v": 75
    },
    {
      "midi": 77,
      "hit": false,
      "t": 197199.9999999999,
      "d": 200,
      "v": 87
    },
    {
      "midi": 63,
      "hit": false,
      "t": 197226.66666666657,
      "d": 799.9999999999709,
      "v": 72
    },
    {
      "midi": 53,
      "hit": false,
      "t": 197586.66666666657,
      "d": 26.666666666656965,
      "v": 75
    },
    {
      "midi": 69,
      "hit": false,
      "t": 197593.33333333323,
      "d": 793.3333333332848,
      "v": 75
    },
    {
      "midi": 62,
      "hit": false,
      "t": 198379.99999999985,
      "d": 420,
      "v": 75
    },
    {
      "midi": 50,
      "hit": false,
      "t": 198386.6666666665,
      "d": 1586.666666666686,
      "v": 75
    },
    {
      "midi": 58,
      "hit": false,
      "t": 198399.99999999985,
      "d": 1573.333333333343,
      "v": 75
    },
    {
      "midi": 55,
      "hit": false,
      "t": 198406.6666666665,
      "d": 1526.666666666686,
      "v": 75
    },
    {
      "midi": 62,
      "hit": false,
      "t": 198799.99999999985,
      "d": 200,
      "v": 75
    },
    {
      "midi": 62,
      "hit": false,
      "t": 199599.99999999985,
      "d": 200,
      "v": 64
    },
    {
      "midi": 72,
      "hit": false,
      "t": 199606.6666666665,
      "d": 800.0000000000291,
      "v": 63
    },
    {
      "midi": 62,
      "hit": false,
      "t": 199799.99999999985,
      "d": 200.0000000000291,
      "v": 81
    },
    {
      "midi": 51,
      "hit": false,
      "t": 199986.66666666654,
      "d": 1573.333333333343,
      "v": 75
    },
    {
      "midi": 58,
      "hit": false,
      "t": 199986.66666666654,
      "d": 1573.333333333343,
      "v": 75
    },
    {
      "midi": 55,
      "hit": false,
      "t": 199999.99999999988,
      "d": 1573.333333333343,
      "v": 75
    },
    {
      "midi": 63,
      "hit": false,
      "t": 200006.66666666654,
      "d": 393.33333333334303,
      "v": 75
    },
    {
      "midi": 63,
      "hit": false,
      "t": 200399.99999999988,
      "d": 200,
      "v": 62
    },
    {
      "midi": 72,
      "hit": false,
      "t": 201399.99999999988,
      "d": 206.66666666665697,
      "v": 82
    },
    {
      "midi": 69,
      "hit": false,
      "t": 201599.99999999988,
      "d": 560,
      "v": 91
    },
    {
      "midi": 54,
      "hit": false,
      "t": 201606.66666666654,
      "d": 1573.333333333343,
      "v": 75
    },
    {
      "midi": 50,
      "hit": false,
      "t": 201613.3333333332,
      "d": 1533.3333333333721,
      "v": 75
    },
    {
      "midi": 62,
      "hit": false,
      "t": 201626.66666666654,
      "d": 373.33333333334303,
      "v": 75
    },
    {
      "midi": 66,
      "hit": false,
      "t": 201626.66666666654,
      "d": 560,
      "v": 75
    },
    {
      "midi": 62,
      "hit": false,
      "t": 201999.99999999988,
      "d": 373.33333333334303,
      "v": 84
    },
    {
      "midi": 66,
      "hit": false,
      "t": 202199.99999999988,
      "d": 173.33333333334303,
      "v": 91
    },
    {
      "midi": 69,
      "hit": false,
      "t": 202199.99999999988,
      "d": 200,
      "v": 91
    },
    {
      "midi": 67,
      "hit": false,
      "t": 202399.99999999988,
      "d": 400,
      "v": 89
    },
    {
      "midi": 67,
      "hit": false,
      "t": 202813.33333333323,
      "d": 360,
      "v": 94
    },
    {
      "midi": 62,
      "hit": false,
      "t": 203166.66666666657,
      "d": 359.9999999999709,
      "v": 83
    },
    {
      "midi": 50,
      "hit": false,
      "t": 203179.99999999988,
      "d": 360,
      "v": 83
    },
    {
      "midi": 57,
      "hit": false,
      "t": 203186.66666666654,
      "d": 360,
      "v": 83
    },
    {
      "midi": 66,
      "hit": false,
      "t": 203199.99999999988,
      "d": 600,
      "v": 83
    },
    {
      "midi": 64,
      "hit": false,
      "t": 203799.99999999988,
      "d": 200,
      "v": 83
    },
    {
      "midi": 66,
      "hit": false,
      "t": 203993.33333333323,
      "d": 380,
      "v": 83
    },
    {
      "midi": 63,
      "hit": false,
      "t": 204386.66666666657,
      "d": 380,
      "v": 83
    },
    {
      "midi": 76,
      "hit": false,
      "t": 204799.9999999999,
      "d": 1533.333333333343,
      "v": 70
    },
    {
      "midi": 52,
      "hit": false,
      "t": 204799.9999999999,
      "d": 1560,
      "v": 70
    },
    {
      "midi": 59,
      "hit": false,
      "t": 204999.9999999999,
      "d": 1360,
      "v": 44
    },
    {
      "midi": 64,
      "hit": false,
      "t": 205199.9999999999,
      "d": 200,
      "v": 44
    },
    {
      "midi": 71,
      "hit": false,
      "t": 205399.9999999999,
      "d": 200,
      "v": 70
    },
    {
      "midi": 67,
      "hit": false,
      "t": 205799.9999999999,
      "d": 200,
      "v": 70
    },
    {
      "midi": 79,
      "hit": false,
      "t": 205999.9999999999,
      "d": 200,
      "v": 77
    },
    {
      "midi": 78,
      "hit": false,
      "t": 206199.9999999999,
      "d": 200,
      "v": 79
    },
    {
      "midi": 48,
      "hit": false,
      "t": 206393.33333333326,
      "d": 1559.999999999971,
      "v": 70
    },
    {
      "midi": 76,
      "hit": false,
      "t": 206413.33333333326,
      "d": 1526.6666666666279,
      "v": 70
    },
    {
      "midi": 55,
      "hit": false,
      "t": 206599.9999999999,
      "d": 1226.666666666657,
      "v": 44
    },
    {
      "midi": 60,
      "hit": false,
      "t": 206799.9999999999,
      "d": 1053.333333333314,
      "v": 49
    },
    {
      "midi": 72,
      "hit": false,
      "t": 206999.9999999999,
      "d": 200,
      "v": 65
    },
    {
      "midi": 67,
      "hit": false,
      "t": 207399.9999999999,
      "d": 200,
      "v": 65
    },
    {
      "midi": 79,
      "hit": false,
      "t": 207599.9999999999,
      "d": 200,
      "v": 79
    },
    {
      "midi": 78,
      "hit": false,
      "t": 207799.9999999999,
      "d": 199.9999999999709,
      "v": 79
    },
    {
      "midi": 76,
      "hit": false,
      "t": 207999.99999999988,
      "d": 1526.666666666657,
      "v": 70
    },
    {
      "midi": 45,
      "hit": false,
      "t": 207999.99999999988,
      "d": 1560,
      "v": 70
    },
    {
      "midi": 52,
      "hit": false,
      "t": 208199.99999999988,
      "d": 1226.666666666657,
      "v": 44
    },
    {
      "midi": 60,
      "hit": false,
      "t": 208399.99999999988,
      "d": 1226.666666666657,
      "v": 44
    },
    {
      "midi": 72,
      "hit": false,
      "t": 208599.99999999988,
      "d": 1526.666666666657,
      "v": 82
    },
    {
      "midi": 67,
      "hit": false,
      "t": 208999.99999999988,
      "d": 1000,
      "v": 62
    },
    {
      "midi": 74,
      "hit": false,
      "t": 209199.99999999988,
      "d": 1226.666666666657,
      "v": 61
    },
    {
      "midi": 57,
      "hit": false,
      "t": 209399.99999999988,
      "d": 200,
      "v": 65
    },
    {
      "midi": 50,
      "hit": false,
      "t": 209599.99999999988,
      "d": 793.333333333343,
      "v": 72
    },
    {
      "midi": 57,
      "hit": false,
      "t": 209799.99999999988,
      "d": 1226.666666666657,
      "v": 44
    },
    {
      "midi": 62,
      "hit": false,
      "t": 209999.99999999988,
      "d": 1226.666666666657,
      "v": 44
    },
    {
      "midi": 67,
      "hit": false,
      "t": 210199.99999999988,
      "d": 320,
      "v": 58
    },
    {
      "midi": 66,
      "hit": false,
      "t": 210399.99999999988,
      "d": 600,
      "v": 57
    },
    {
      "midi": 51,
      "hit": false,
      "t": 210406.66666666654,
      "d": 1226.666666666686,
      "v": 57
    },
    {
      "midi": 59,
      "hit": false,
      "t": 210599.99999999988,
      "d": 600,
      "v": 63
    },
    {
      "midi": 63,
      "hit": false,
      "t": 210799.99999999988,
      "d": 200,
      "v": 47
    },
    {
      "midi": 66,
      "hit": false,
      "t": 210999.99999999988,
      "d": 200,
      "v": 51
    },
    {
      "midi": 64,
      "hit": false,
      "t": 211199.99999999988,
      "d": 380,
      "v": 87
    },
    {
      "midi": 55,
      "hit": false,
      "t": 211199.99999999988,
      "d": 1573.333333333343,
      "v": 75
    },
    {
      "midi": 52,
      "hit": false,
      "t": 211206.66666666654,
      "d": 1526.666666666686,
      "v": 75
    },
    {
      "midi": 59,
      "hit": false,
      "t": 211599.99999999988,
      "d": 200,
      "v": 75
    },
    {
      "midi": 67,
      "hit": false,
      "t": 211599.99999999988,
      "d": 380,
      "v": 87
    },
    {
      "midi": 64,
      "hit": false,
      "t": 211799.99999999988,
      "d": 200,
      "v": 62
    },
    {
      "midi": 71,
      "hit": false,
      "t": 211999.99999999988,
      "d": 380,
      "v": 90
    },
    {
      "midi": 64,
      "hit": false,
      "t": 211999.99999999988,
      "d": 400,
      "v": 62
    },
    {
      "midi": 59,
      "hit": false,
      "t": 212399.99999999988,
      "d": 400.0000000000291,
      "v": 64
    },
    {
      "midi": 48,
      "hit": false,
      "t": 212786.66666666657,
      "d": 1573.333333333343,
      "v": 75
    },
    {
      "midi": 55,
      "hit": false,
      "t": 212786.66666666657,
      "d": 1573.333333333343,
      "v": 75
    },
    {
      "midi": 67,
      "hit": false,
      "t": 212799.9999999999,
      "d": 400,
      "v": 90
    },
    {
      "midi": 52,
      "hit": false,
      "t": 212799.9999999999,
      "d": 1573.333333333343,
      "v": 75
    },
    {
      "midi": 60,
      "hit": false,
      "t": 212806.66666666657,
      "d": 393.33333333334303,
      "v": 75
    },
    {
      "midi": 60,
      "hit": false,
      "t": 213199.9999999999,
      "d": 200,
      "v": 62
    },
    {
      "midi": 72,
      "hit": false,
      "t": 213199.9999999999,
      "d": 400,
      "v": 90
    },
    {
      "midi": 64,
      "hit": false,
      "t": 213399.9999999999,
      "d": 200,
      "v": 62
    },
    {
      "midi": 67,
      "hit": false,
      "t": 213599.9999999999,
      "d": 200,
      "v": 87
    },
    {
      "midi": 67,
      "hit": false,
      "t": 213799.9999999999,
      "d": 400,
      "v": 62
    },
    {
      "midi": 64,
      "hit": false,
      "t": 214199.9999999999,
      "d": 200,
      "v": 64
    },
    {
      "midi": 55,
      "hit": false,
      "t": 214406.66666666657,
      "d": 1573.333333333343,
      "v": 75
    },
    {
      "midi": 48,
      "hit": false,
      "t": 214413.33333333323,
      "d": 1573.333333333343,
      "v": 75
    },
    {
      "midi": 64,
      "hit": false,
      "t": 214426.66666666657,
      "d": 353.33333333334303,
      "v": 75
    },
    {
      "midi": 60,
      "hit": false,
      "t": 214426.66666666657,
      "d": 1573.333333333343,
      "v": 75
    },
    {
      "midi": 64,
      "hit": false,
      "t": 214799.9999999999,
      "d": 173.33333333334303,
      "v": 75
    },
    {
      "midi": 64,
      "hit": false,
      "t": 214999.9999999999,
      "d": 173.33333333334303,
      "v": 75
    },
    {
      "midi": 72,
      "hit": false,
      "t": 214999.9999999999,
      "d": 200,
      "v": 87
    },
    {
      "midi": 72,
      "hit": false,
      "t": 215199.9999999999,
      "d": 200,
      "v": 87
    },
    {
      "midi": 67,
      "hit": false,
      "t": 215199.9999999999,
      "d": 360,
      "v": 75
    },
    {
      "midi": 67,
      "hit": false,
      "t": 215613.33333333326,
      "d": 360,
      "v": 75
    },
    {
      "midi": 66,
      "hit": false,
      "t": 215999.9999999999,
      "d": 1000,
      "v": 75
    },
    {
      "midi": 50,
      "hit": false,
      "t": 215999.9999999999,
      "d": 1573.333333333343,
      "v": 75
    },
    {
      "midi": 57,
      "hit": false,
      "t": 215999.9999999999,
      "d": 1573.333333333343,
      "v": 75
    },
    {
      "midi": 62,
      "hit": false,
      "t": 215999.9999999999,
      "d": 1573.333333333343,
      "v": 75
    },
    {
      "midi": 74,
      "hit": false,
      "t": 216399.9999999999,
      "d": 200,
      "v": 87
    },
    {
      "midi": 69,
      "hit": false,
      "t": 216999.9999999999,
      "d": 200,
      "v": 87
    },
    {
      "midi": 66,
      "hit": false,
      "t": 216999.9999999999,
      "d": 400,
      "v": 75
    },
    {
      "midi": 66,
      "hit": false,
      "t": 217399.9999999999,
      "d": 186.66666666665697,
      "v": 75
    },
    {
      "midi": 59,
      "hit": false,
      "t": 217579.9999999999,
      "d": 420,
      "v": 75
    },
    {
      "midi": 47,
      "hit": false,
      "t": 217586.66666666657,
      "d": 1586.666666666686,
      "v": 75
    },
    {
      "midi": 71,
      "hit": false,
      "t": 217599.9999999999,
      "d": 200,
      "v": 87
    },
    {
      "midi": 55,
      "hit": false,
      "t": 217599.9999999999,
      "d": 1573.333333333343,
      "v": 75
    },
    {
      "midi": 52,
      "hit": false,
      "t": 217606.66666666657,
      "d": 1526.666666666686,
      "v": 75
    },
    {
      "midi": 59,
      "hit": false,
      "t": 217999.9999999999,
      "d": 200,
      "v": 75
    },
    {
      "midi": 64,
      "hit": false,
      "t": 218199.9999999999,
      "d": 200,
      "v": 62
    },
    {
      "midi": 71,
      "hit": false,
      "t": 218199.9999999999,
      "d": 200,
      "v": 87
    },
    {
      "midi": 64,
      "hit": false,
      "t": 218399.9999999999,
      "d": 400,
      "v": 62
    },
    {
      "midi": 67,
      "hit": false,
      "t": 218599.9999999999,
      "d": 800.0000000000291,
      "v": 99
    },
    {
      "midi": 59,
      "hit": false,
      "t": 218799.9999999999,
      "d": 200,
      "v": 64
    },
    {
      "midi": 59,
      "hit": false,
      "t": 218999.9999999999,
      "d": 200.0000000000291,
      "v": 81
    },
    {
      "midi": 48,
      "hit": false,
      "t": 219186.6666666666,
      "d": 1573.333333333343,
      "v": 75
    },
    {
      "midi": 55,
      "hit": false,
      "t": 219186.6666666666,
      "d": 1573.333333333343,
      "v": 75
    },
    {
      "midi": 52,
      "hit": false,
      "t": 219199.99999999994,
      "d": 1573.333333333343,
      "v": 75
    },
    {
      "midi": 60,
      "hit": false,
      "t": 219206.6666666666,
      "d": 393.33333333334303,
      "v": 75
    },
    {
      "midi": 60,
      "hit": false,
      "t": 219599.99999999994,
      "d": 200,
      "v": 62
    },
    {
      "midi": 72,
      "hit": false,
      "t": 219599.99999999994,
      "d": 200,
      "v": 87
    },
    {
      "midi": 64,
      "hit": false,
      "t": 219799.99999999994,
      "d": 200,
      "v": 62
    },
    {
      "midi": 64,
      "hit": false,
      "t": 219999.99999999994,
      "d": 200,
      "v": 62
    },
    {
      "midi": 67,
      "hit": false,
      "t": 220199.99999999994,
      "d": 400,
      "v": 96
    },
    {
      "midi": 72,
      "hit": false,
      "t": 220399.99999999994,
      "d": 200,
      "v": 87
    },
    {
      "midi": 64,
      "hit": false,
      "t": 220599.99999999994,
      "d": 200,
      "v": 64
    },
    {
      "midi": 55,
      "hit": false,
      "t": 220806.6666666666,
      "d": 1573.3333333333721,
      "v": 75
    },
    {
      "midi": 48,
      "hit": false,
      "t": 220813.33333333326,
      "d": 1573.3333333333721,
      "v": 75
    },
    {
      "midi": 64,
      "hit": false,
      "t": 220826.6666666666,
      "d": 560,
      "v": 75
    },
    {
      "midi": 60,
      "hit": false,
      "t": 220826.6666666666,
      "d": 1573.3333333333721,
      "v": 75
    },
    {
      "midi": 64,
      "hit": false,
      "t": 221399.99999999994,
      "d": 173.33333333334303,
      "v": 75
    },
    {
      "midi": 64,
      "hit": false,
      "t": 221599.99999999994,
      "d": 220,
      "v": 75
    },
    {
      "midi": 67,
      "hit": false,
      "t": 222013.33333333328,
      "d": 13.333333333343035,
      "v": 94
    },
    {
      "midi": 66,
      "hit": false,
      "t": 222399.99999999997,
      "d": 1000,
      "v": 75
    },
    {
      "midi": 50,
      "hit": false,
      "t": 222399.99999999997,
      "d": 1573.333333333314,
      "v": 75
    },
    {
      "midi": 57,
      "hit": false,
      "t": 222399.99999999997,
      "d": 1573.333333333314,
      "v": 75
    },
    {
      "midi": 62,
      "hit": false,
      "t": 222399.99999999997,
      "d": 1573.333333333314,
      "v": 75
    },
    {
      "midi": 69,
      "hit": false,
      "t": 222799.99999999997,
      "d": 200,
      "v": 87
    },
    {
      "midi": 71,
      "hit": false,
      "t": 222999.99999999997,
      "d": 200,
      "v": 87
    },
    {
      "midi": 72,
      "hit": false,
      "t": 223199.99999999997,
      "d": 799.9999999999418,
      "v": 87
    },
    {
      "midi": 66,
      "hit": false,
      "t": 223399.99999999997,
      "d": 400,
      "v": 75
    },
    {
      "midi": 66,
      "hit": false,
      "t": 223799.99999999997,
      "d": 186.66666666662786,
      "v": 75
    },
    {
      "midi": 55,
      "hit": false,
      "t": 223966.66666666663,
      "d": 1573.333333333314,
      "v": 75
    },
    {
      "midi": 50,
      "hit": false,
      "t": 223979.99999999994,
      "d": 1573.333333333314,
      "v": 75
    },
    {
      "midi": 67,
      "hit": false,
      "t": 223993.33333333326,
      "d": 380,
      "v": 75
    },
    {
      "midi": 59,
      "hit": false,
      "t": 223999.9999999999,
      "d": 380,
      "v": 75
    },
    {
      "midi": 59,
      "hit": false,
      "t": 224413.33333333326,
      "d": 380,
      "v": 75
    },
    {
      "midi": 62,
      "hit": false,
      "t": 224586.6666666666,
      "d": 380,
      "v": 75
    },
    {
      "midi": 59,
      "hit": false,
      "t": 225186.6666666666,
      "d": 360,
      "v": 75
    },
    {
      "midi": 55,
      "hit": false,
      "t": 225559.9999999999,
      "d": 1573.333333333343,
      "v": 75
    },
    {
      "midi": 50,
      "hit": false,
      "t": 225573.33333333326,
      "d": 1573.333333333343,
      "v": 75
    },
    {
      "midi": 60,
      "hit": false,
      "t": 225599.9999999999,
      "d": 1573.333333333343,
      "v": 75
    },
    {
      "midi": 67,
      "hit": false,
      "t": 226213.33333333326,
      "d": 380,
      "v": 75
    },
    {
      "midi": 62,
      "hit": false,
      "t": 226579.9999999999,
      "d": 360,
      "v": 75
    },
    {
      "midi": 52,
      "hit": false,
      "t": 227206.6666666666,
      "d": 1566.666666666657,
      "v": 75
    },
    {
      "midi": 55,
      "hit": false,
      "t": 227206.6666666666,
      "d": 1566.666666666657,
      "v": 75
    },
    {
      "midi": 60,
      "hit": false,
      "t": 227206.6666666666,
      "d": 1566.666666666657,
      "v": 75
    },
    {
      "midi": 50,
      "hit": false,
      "t": 228786.6666666666,
      "d": 1566.666666666657,
      "v": 75
    },
    {
      "midi": 62,
      "hit": false,
      "t": 228793.33333333326,
      "d": 1566.666666666657,
      "v": 75
    },
    {
      "midi": 57,
      "hit": false,
      "t": 228813.33333333326,
      "d": 1566.666666666657,
      "v": 75
    },
    {
      "midi": 60,
      "hit": false,
      "t": 230386.66666666657,
      "d": 2013.333333333314,
      "v": 75
    },
    {
      "midi": 57,
      "hit": false,
      "t": 230386.66666666657,
      "d": 3013.333333333314,
      "v": 75
    },
    {
      "midi": 52,
      "hit": false,
      "t": 230393.33333333323,
      "d": 2406.666666666657,
      "v": 75
    },
    {
      "midi": 64,
      "hit": false,
      "t": 230399.99999999988,
      "d": 2000,
      "v": 75
    },
    {
      "midi": 67,
      "hit": false,
      "t": 231186.66666666654,
      "d": 1413.333333333343,
      "v": 75
    },
    {
      "midi": 64,
      "hit": false,
      "t": 232399.99999999988,
      "d": 400,
      "v": 75
    },
    {
      "midi": 60,
      "hit": false,
      "t": 232799.99999999988,
      "d": 200,
      "v": 75
    },
    {
      "midi": 67,
      "hit": false,
      "t": 232799.99999999988,
      "d": 200,
      "v": 75
    },
    {
      "midi": 52,
      "hit": false,
      "t": 232799.99999999988,
      "d": 786.6666666666861,
      "v": 75
    },
    {
      "midi": 59,
      "hit": false,
      "t": 232999.99999999988,
      "d": 200,
      "v": 75
    },
    {
      "midi": 66,
      "hit": false,
      "t": 232999.99999999988,
      "d": 200,
      "v": 75
    },
    {
      "midi": 60,
      "hit": false,
      "t": 233199.99999999988,
      "d": 200,
      "v": 75
    },
    {
      "midi": 67,
      "hit": false,
      "t": 233199.99999999988,
      "d": 200,
      "v": 75
    },
    {
      "midi": 57,
      "hit": false,
      "t": 233399.99999999988,
      "d": 200.0000000000291,
      "v": 75
    },
    {
      "midi": 66,
      "hit": false,
      "t": 233399.99999999988,
      "d": 200.0000000000291,
      "v": 75
    },
    {
      "midi": 72,
      "hit": false,
      "t": 233573.33333333323,
      "d": 626.6666666666861,
      "v": 80
    },
    {
      "midi": 76,
      "hit": false,
      "t": 233586.66666666657,
      "d": 626.666666666657,
      "v": 80
    },
    {
      "midi": 60,
      "hit": false,
      "t": 233599.9999999999,
      "d": 1139.999999999971,
      "v": 81
    },
    {
      "midi": 55,
      "hit": false,
      "t": 233599.9999999999,
      "d": 1206.6666666666279,
      "v": 81
    },
    {
      "midi": 48,
      "hit": false,
      "t": 233599.9999999999,
      "d": 1246.6666666666279,
      "v": 81
    },
    {
      "midi": 74,
      "hit": false,
      "t": 234206.66666666657,
      "d": 626.6666666666279,
      "v": 90
    },
    {
      "midi": 60,
      "hit": false,
      "t": 234799.99999999988,
      "d": 1246.666666666657,
      "v": 57
    },
    {
      "midi": 76,
      "hit": false,
      "t": 234813.3333333332,
      "d": 586.6666666666861,
      "v": 88
    },
    {
      "midi": 64,
      "hit": false,
      "t": 234813.3333333332,
      "d": 1246.666666666686,
      "v": 57
    },
    {
      "midi": 67,
      "hit": false,
      "t": 234819.99999999985,
      "d": 1246.666666666686,
      "v": 57
    },
    {
      "midi": 74,
      "hit": false,
      "t": 235399.99999999988,
      "d": 600,
      "v": 88
    },
    {
      "midi": 72,
      "hit": false,
      "t": 235999.99999999988,
      "d": 393.33333333334303,
      "v": 88
    },
    {
      "midi": 71,
      "hit": false,
      "t": 236379.99999999988,
      "d": 433.33333333334303,
      "v": 88
    },
    {
      "midi": 79,
      "hit": false,
      "t": 236399.99999999988,
      "d": 146.66666666665697,
      "v": 63
    },
    {
      "midi": 78,
      "hit": false,
      "t": 236599.99999999988,
      "d": 146.66666666665697,
      "v": 63
    },
    {
      "midi": 64,
      "hit": false,
      "t": 236799.99999999988,
      "d": 1999.999999999971,
      "v": 75
    },
    {
      "midi": 72,
      "hit": false,
      "t": 236819.99999999988,
      "d": 600,
      "v": 75
    },
    {
      "midi": 71,
      "hit": false,
      "t": 237426.66666666654,
      "d": 600,
      "v": 75
    },
    {
      "midi": 67,
      "hit": false,
      "t": 237586.66666666654,
      "d": 1413.333333333314,
      "v": 75
    },
    {
      "midi": 72,
      "hit": false,
      "t": 237993.3333333332,
      "d": 420,
      "v": 75
    },
    {
      "midi": 71,
      "hit": false,
      "t": 238406.66666666654,
      "d": 419.9999999999709,
      "v": 75
    },
    {
      "midi": 64,
      "hit": false,
      "t": 238799.99999999985,
      "d": 400,
      "v": 75
    },
    {
      "midi": 60,
      "hit": false,
      "t": 239199.99999999985,
      "d": 200,
      "v": 75
    },
    {
      "midi": 67,
      "hit": false,
      "t": 239199.99999999985,
      "d": 200,
      "v": 75
    },
    {
      "midi": 52,
      "hit": false,
      "t": 239199.99999999985,
      "d": 786.6666666666861,
      "v": 75
    },
    {
      "midi": 59,
      "hit": false,
      "t": 239399.99999999985,
      "d": 200,
      "v": 75
    },
    {
      "midi": 66,
      "hit": false,
      "t": 239399.99999999985,
      "d": 200,
      "v": 75
    },
    {
      "midi": 60,
      "hit": false,
      "t": 239599.99999999985,
      "d": 200,
      "v": 75
    },
    {
      "midi": 67,
      "hit": false,
      "t": 239599.99999999985,
      "d": 200,
      "v": 75
    },
    {
      "midi": 57,
      "hit": false,
      "t": 239799.99999999985,
      "d": 200.0000000000291,
      "v": 75
    },
    {
      "midi": 66,
      "hit": false,
      "t": 239799.99999999985,
      "d": 200.0000000000291,
      "v": 75
    },
    {
      "midi": 67,
      "hit": false,
      "t": 239973.3333333332,
      "d": 180,
      "v": 80
    },
    {
      "midi": 71,
      "hit": false,
      "t": 239986.66666666654,
      "d": 160,
      "v": 80
    },
    {
      "midi": 60,
      "hit": false,
      "t": 240019.99999999988,
      "d": 179.9999999999709,
      "v": 80
    },
    {
      "midi": 79,
      "hit": false,
      "t": 242799.99999999985,
      "d": 160,
      "v": 91
    },
    {
      "midi": 78,
      "hit": false,
      "t": 242999.99999999985,
      "d": 160,
      "v": 91
    },
    {
      "midi": 71,
      "hit": false,
      "t": 243199.99999999985,
      "d": 200,
      "v": 63
    },
    {
      "midi": 76,
      "hit": false,
      "t": 243199.99999999985,
      "d": 1533.333333333343,
      "v": 74
    },
    {
      "midi": 52,
      "hit": false,
      "t": 243199.99999999985,
      "d": 1560,
      "v": 74
    },
    {
      "midi": 59,
      "hit": false,
      "t": 243399.99999999985,
      "d": 1360,
      "v": 63
    },
    {
      "midi": 64,
      "hit": false,
      "t": 243599.99999999985,
      "d": 200,
      "v": 63
    },
    {
      "midi": 71,
      "hit": false,
      "t": 243799.99999999985,
      "d": 200,
      "v": 100
    },
    {
      "midi": 67,
      "hit": false,
      "t": 244199.99999999985,
      "d": 200,
      "v": 100
    },
    {
      "midi": 79,
      "hit": false,
      "t": 244399.99999999985,
      "d": 200,
      "v": 111
    },
    {
      "midi": 78,
      "hit": false,
      "t": 244599.99999999985,
      "d": 200,
      "v": 114
    },
    {
      "midi": 48,
      "hit": false,
      "t": 244793.3333333332,
      "d": 1559.999999999971,
      "v": 74
    },
    {
      "midi": 67,
      "hit": false,
      "t": 244799.99999999985,
      "d": 200,
      "v": 63
    },
    {
      "midi": 76,
      "hit": false,
      "t": 244813.3333333332,
      "d": 1526.6666666666279,
      "v": 74
    },
    {
      "midi": 55,
      "hit": false,
      "t": 244999.99999999985,
      "d": 1226.666666666657,
      "v": 63
    },
    {
      "midi": 60,
      "hit": false,
      "t": 245199.99999999985,
      "d": 1053.333333333314,
      "v": 70
    },
    {
      "midi": 72,
      "hit": false,
      "t": 245399.99999999985,
      "d": 200,
      "v": 94
    },
    {
      "midi": 67,
      "hit": false,
      "t": 245799.99999999985,
      "d": 200,
      "v": 94
    },
    {
      "midi": 79,
      "hit": false,
      "t": 245999.99999999985,
      "d": 200,
      "v": 113
    },
    {
      "midi": 78,
      "hit": false,
      "t": 246199.99999999985,
      "d": 199.9999999999709,
      "v": 113
    },
    {
      "midi": 67,
      "hit": false,
      "t": 246399.99999999983,
      "d": 200,
      "v": 63
    },
    {
      "midi": 76,
      "hit": false,
      "t": 246399.99999999983,
      "d": 1526.666666666657,
      "v": 73
    },
    {
      "midi": 45,
      "hit": false,
      "t": 246399.99999999983,
      "d": 1560,
      "v": 73
    },
    {
      "midi": 52,
      "hit": false,
      "t": 246599.99999999983,
      "d": 1226.666666666657,
      "v": 63
    },
    {
      "midi": 60,
      "hit": false,
      "t": 246799.99999999983,
      "d": 1226.666666666657,
      "v": 63
    },
    {
      "midi": 72,
      "hit": false,
      "t": 246999.99999999983,
      "d": 1526.666666666657,
      "v": 100
    },
    {
      "midi": 67,
      "hit": false,
      "t": 247399.99999999983,
      "d": 1000,
      "v": 89
    },
    {
      "midi": 74,
      "hit": false,
      "t": 247599.99999999983,
      "d": 1226.666666666657,
      "v": 88
    },
    {
      "midi": 57,
      "hit": false,
      "t": 247799.99999999983,
      "d": 200,
      "v": 94
    },
    {
      "midi": 50,
      "hit": false,
      "t": 247999.99999999983,
      "d": 793.333333333343,
      "v": 67
    },
    {
      "midi": 57,
      "hit": false,
      "t": 248199.99999999983,
      "d": 1226.666666666657,
      "v": 97
    },
    {
      "midi": 62,
      "hit": false,
      "t": 248399.99999999983,
      "d": 1226.666666666657,
      "v": 89
    },
    {
      "midi": 67,
      "hit": false,
      "t": 248599.99999999983,
      "d": 320,
      "v": 83
    },
    {
      "midi": 66,
      "hit": false,
      "t": 248799.99999999983,
      "d": 600,
      "v": 82
    },
    {
      "midi": 51,
      "hit": false,
      "t": 248806.66666666648,
      "d": 1226.666666666686,
      "v": 82
    },
    {
      "midi": 59,
      "hit": false,
      "t": 248999.99999999983,
      "d": 600,
      "v": 91
    },
    {
      "midi": 79,
      "hit": false,
      "t": 249199.99999999983,
      "d": 400,
      "v": 103
    },
    {
      "midi": 78,
      "hit": false,
      "t": 249399.99999999983,
      "d": 400,
      "v": 94
    },
    {
      "midi": 76,
      "hit": false,
      "t": 249599.99999999983,
      "d": 1533.333333333343,
      "v": 84
    },
    {
      "midi": 52,
      "hit": false,
      "t": 249599.99999999983,
      "d": 1560,
      "v": 84
    },
    {
      "midi": 59,
      "hit": false,
      "t": 249799.99999999983,
      "d": 1360,
      "v": 63
    },
    {
      "midi": 64,
      "hit": false,
      "t": 249999.99999999983,
      "d": 200,
      "v": 63
    },
    {
      "midi": 71,
      "hit": false,
      "t": 250199.99999999983,
      "d": 200,
      "v": 100
    },
    {
      "midi": 67,
      "hit": false,
      "t": 250599.99999999983,
      "d": 200,
      "v": 100
    },
    {
      "midi": 79,
      "hit": false,
      "t": 250799.99999999983,
      "d": 200,
      "v": 99
    },
    {
      "midi": 78,
      "hit": false,
      "t": 250999.99999999983,
      "d": 200,
      "v": 98
    },
    {
      "midi": 48,
      "hit": false,
      "t": 251193.33333333317,
      "d": 1559.999999999971,
      "v": 100
    },
    {
      "midi": 76,
      "hit": false,
      "t": 251213.33333333317,
      "d": 1526.6666666666279,
      "v": 100
    },
    {
      "midi": 55,
      "hit": false,
      "t": 251399.99999999983,
      "d": 1226.666666666657,
      "v": 63
    },
    {
      "midi": 60,
      "hit": false,
      "t": 251599.99999999983,
      "d": 1053.333333333314,
      "v": 70
    },
    {
      "midi": 72,
      "hit": false,
      "t": 251799.99999999983,
      "d": 200,
      "v": 94
    },
    {
      "midi": 67,
      "hit": false,
      "t": 252199.99999999983,
      "d": 200,
      "v": 98
    },
    {
      "midi": 79,
      "hit": false,
      "t": 252399.99999999983,
      "d": 200,
      "v": 98
    },
    {
      "midi": 78,
      "hit": false,
      "t": 252599.99999999983,
      "d": 199.9999999999709,
      "v": 98
    },
    {
      "midi": 76,
      "hit": false,
      "t": 252799.9999999998,
      "d": 1526.666666666657,
      "v": 82
    },
    {
      "midi": 45,
      "hit": false,
      "t": 252799.9999999998,
      "d": 1560,
      "v": 82
    },
    {
      "midi": 52,
      "hit": false,
      "t": 252999.9999999998,
      "d": 1226.666666666657,
      "v": 63
    },
    {
      "midi": 60,
      "hit": false,
      "t": 253199.9999999998,
      "d": 1226.666666666657,
      "v": 96
    },
    {
      "midi": 72,
      "hit": false,
      "t": 253399.9999999998,
      "d": 1526.666666666657,
      "v": 100
    },
    {
      "midi": 67,
      "hit": false,
      "t": 253799.9999999998,
      "d": 1000,
      "v": 89
    },
    {
      "midi": 74,
      "hit": false,
      "t": 253999.9999999998,
      "d": 1226.666666666657,
      "v": 88
    },
    {
      "midi": 57,
      "hit": false,
      "t": 254199.9999999998,
      "d": 200,
      "v": 94
    },
    {
      "midi": 50,
      "hit": false,
      "t": 254399.9999999998,
      "d": 793.333333333343,
      "v": 104
    },
    {
      "midi": 57,
      "hit": false,
      "t": 254599.9999999998,
      "d": 1226.666666666657,
      "v": 63
    },
    {
      "midi": 62,
      "hit": false,
      "t": 254799.9999999998,
      "d": 1226.666666666657,
      "v": 63
    },
    {
      "midi": 67,
      "hit": false,
      "t": 254999.9999999998,
      "d": 320,
      "v": 83
    },
    {
      "midi": 66,
      "hit": false,
      "t": 255199.9999999998,
      "d": 600,
      "v": 82
    },
    {
      "midi": 51,
      "hit": false,
      "t": 255206.66666666645,
      "d": 1226.666666666686,
      "v": 82
    },
    {
      "midi": 59,
      "hit": false,
      "t": 255399.9999999998,
      "d": 600,
      "v": 91
    },
    {
      "midi": 63,
      "hit": false,
      "t": 255599.9999999998,
      "d": 200,
      "v": 68
    },
    {
      "midi": 66,
      "hit": false,
      "t": 255799.9999999998,
      "d": 200,
      "v": 74
    },
    {
      "midi": 71,
      "hit": false,
      "t": 255999.9999999998,
      "d": 200,
      "v": 63
    },
    {
      "midi": 76,
      "hit": false,
      "t": 255999.9999999998,
      "d": 1533.333333333343,
      "v": 74
    },
    {
      "midi": 52,
      "hit": false,
      "t": 255999.9999999998,
      "d": 1560,
      "v": 74
    },
    {
      "midi": 59,
      "hit": false,
      "t": 256199.9999999998,
      "d": 1360,
      "v": 63
    },
    {
      "midi": 64,
      "hit": false,
      "t": 256399.9999999998,
      "d": 200,
      "v": 62
    },
    {
      "midi": 71,
      "hit": false,
      "t": 256599.9999999998,
      "d": 200,
      "v": 99
    },
    {
      "midi": 67,
      "hit": false,
      "t": 256999.9999999998,
      "d": 200,
      "v": 98
    },
    {
      "midi": 79,
      "hit": false,
      "t": 257199.9999999998,
      "d": 200,
      "v": 107
    },
    {
      "midi": 78,
      "hit": false,
      "t": 257399.9999999998,
      "d": 200,
      "v": 110
    },
    {
      "midi": 48,
      "hit": false,
      "t": 257593.33333333314,
      "d": 1559.999999999971,
      "v": 71
    },
    {
      "midi": 67,
      "hit": false,
      "t": 257599.9999999998,
      "d": 200,
      "v": 61
    },
    {
      "midi": 76,
      "hit": false,
      "t": 257613.33333333314,
      "d": 1526.6666666666279,
      "v": 71
    },
    {
      "midi": 55,
      "hit": false,
      "t": 257799.9999999998,
      "d": 1226.666666666657,
      "v": 60
    },
    {
      "midi": 60,
      "hit": false,
      "t": 257999.9999999998,
      "d": 1053.333333333314,
      "v": 67
    },
    {
      "midi": 72,
      "hit": false,
      "t": 258199.9999999998,
      "d": 200,
      "v": 89
    },
    {
      "midi": 67,
      "hit": false,
      "t": 258599.9999999998,
      "d": 200,
      "v": 88
    },
    {
      "midi": 79,
      "hit": false,
      "t": 258799.9999999998,
      "d": 200,
      "v": 106
    },
    {
      "midi": 78,
      "hit": false,
      "t": 258999.9999999998,
      "d": 199.9999999999709,
      "v": 106
    },
    {
      "midi": 67,
      "hit": false,
      "t": 259199.99999999977,
      "d": 200,
      "v": 58
    },
    {
      "midi": 76,
      "hit": false,
      "t": 259199.99999999977,
      "d": 1526.666666666657,
      "v": 67
    },
    {
      "midi": 45,
      "hit": false,
      "t": 259199.99999999977,
      "d": 1560,
      "v": 67
    },
    {
      "midi": 52,
      "hit": false,
      "t": 259399.99999999977,
      "d": 1226.666666666657,
      "v": 58
    },
    {
      "midi": 60,
      "hit": false,
      "t": 259599.99999999977,
      "d": 1226.666666666657,
      "v": 57
    },
    {
      "midi": 72,
      "hit": false,
      "t": 259799.99999999977,
      "d": 1526.666666666657,
      "v": 92
    },
    {
      "midi": 67,
      "hit": false,
      "t": 260199.99999999977,
      "d": 1000,
      "v": 80
    },
    {
      "midi": 74,
      "hit": false,
      "t": 260399.99999999977,
      "d": 1226.666666666657,
      "v": 80
    },
    {
      "midi": 57,
      "hit": false,
      "t": 260599.99999999977,
      "d": 200,
      "v": 84
    },
    {
      "midi": 50,
      "hit": false,
      "t": 260799.99999999977,
      "d": 793.333333333343,
      "v": 60
    },
    {
      "midi": 57,
      "hit": false,
      "t": 260999.99999999977,
      "d": 1226.666666666686,
      "v": 86
    },
    {
      "midi": 62,
      "hit": false,
      "t": 261199.99999999977,
      "d": 1226.666666666686,
      "v": 79
    },
    {
      "midi": 67,
      "hit": false,
      "t": 261399.99999999977,
      "d": 320,
      "v": 73
    },
    {
      "midi": 66,
      "hit": false,
      "t": 261599.99999999977,
      "d": 600,
      "v": 72
    },
    {
      "midi": 51,
      "hit": false,
      "t": 261606.66666666642,
      "d": 1226.666666666657,
      "v": 72
    },
    {
      "midi": 59,
      "hit": false,
      "t": 261799.99999999977,
      "d": 600,
      "v": 80
    },
    {
      "midi": 79,
      "hit": false,
      "t": 261999.99999999977,
      "d": 400,
      "v": 89
    },
    {
      "midi": 78,
      "hit": false,
      "t": 262199.99999999977,
      "d": 400,
      "v": 81
    },
    {
      "midi": 76,
      "hit": false,
      "t": 262399.99999999977,
      "d": 1533.333333333314,
      "v": 72
    },
    {
      "midi": 52,
      "hit": false,
      "t": 262399.99999999977,
      "d": 1560,
      "v": 72
    },
    {
      "midi": 59,
      "hit": false,
      "t": 262599.99999999977,
      "d": 1360,
      "v": 54
    },
    {
      "midi": 64,
      "hit": false,
      "t": 262799.99999999977,
      "d": 200,
      "v": 53
    },
    {
      "midi": 71,
      "hit": false,
      "t": 262999.99999999977,
      "d": 200,
      "v": 85
    },
    {
      "midi": 67,
      "hit": false,
      "t": 263399.99999999977,
      "d": 200,
      "v": 84
    },
    {
      "midi": 79,
      "hit": false,
      "t": 263599.99999999977,
      "d": 200,
      "v": 83
    },
    {
      "midi": 78,
      "hit": false,
      "t": 263799.99999999977,
      "d": 200,
      "v": 81
    },
    {
      "midi": 48,
      "hit": false,
      "t": 263993.3333333331,
      "d": 1560.0000000000582,
      "v": 83
    },
    {
      "midi": 76,
      "hit": false,
      "t": 264013.3333333331,
      "d": 1526.6666666667443,
      "v": 83
    },
    {
      "midi": 55,
      "hit": false,
      "t": 264199.99999999977,
      "d": 1226.666666666686,
      "v": 51
    },
    {
      "midi": 60,
      "hit": false,
      "t": 264399.99999999977,
      "d": 1053.3333333333721,
      "v": 57
    },
    {
      "midi": 72,
      "hit": false,
      "t": 264599.99999999977,
      "d": 200,
      "v": 77
    },
    {
      "midi": 67,
      "hit": false,
      "t": 264999.99999999977,
      "d": 200,
      "v": 79
    },
    {
      "midi": 79,
      "hit": false,
      "t": 265199.99999999977,
      "d": 200,
      "v": 78
    },
    {
      "midi": 78,
      "hit": false,
      "t": 265399.99999999977,
      "d": 200.0000000000582,
      "v": 78
    },
    {
      "midi": 76,
      "hit": false,
      "t": 265599.9999999998,
      "d": 1526.666666666686,
      "v": 64
    },
    {
      "midi": 45,
      "hit": false,
      "t": 265599.9999999998,
      "d": 1560,
      "v": 64
    },
    {
      "midi": 52,
      "hit": false,
      "t": 265799.9999999998,
      "d": 1226.666666666686,
      "v": 49
    },
    {
      "midi": 60,
      "hit": false,
      "t": 265999.9999999998,
      "d": 1226.666666666686,
      "v": 75
    },
    {
      "midi": 72,
      "hit": false,
      "t": 266199.9999999998,
      "d": 1526.666666666686,
      "v": 78
    },
    {
      "midi": 67,
      "hit": false,
      "t": 266599.9999999998,
      "d": 1000,
      "v": 68
    },
    {
      "midi": 74,
      "hit": false,
      "t": 266859.9999999998,
      "d": 1226.666666666686,
      "v": 67
    },
    {
      "midi": 69,
      "hit": false,
      "t": 267019.9999999998,
      "d": 1226.666666666686,
      "v": 67
    },
    {
      "midi": 57,
      "hit": false,
      "t": 267106.6666666665,
      "d": 200,
      "v": 71
    },
    {
      "midi": 50,
      "hit": false,
      "t": 267326.6666666665,
      "d": 1033.333333333314,
      "v": 79
    },
    {
      "midi": 57,
      "hit": false,
      "t": 267459.9999999998,
      "d": 1593.333333333314,
      "v": 47
    },
    {
      "midi": 62,
      "hit": false,
      "t": 267719.9999999998,
      "d": 1779.9999999999418,
      "v": 47
    },
    {
      "midi": 67,
      "hit": false,
      "t": 267979.9999999998,
      "d": 413.33333333331393,
      "v": 62
    },
    {
      "midi": 66,
      "hit": false,
      "t": 268239.9999999998,
      "d": 780,
      "v": 60
    },
    {
      "midi": 51,
      "hit": false,
      "t": 268246.6666666665,
      "d": 1593.333333333314,
      "v": 60
    },
    {
      "midi": 59,
      "hit": false,
      "t": 268499.9999999998,
      "d": 493.33333333331393,
      "v": 67
    },
    {
      "midi": 63,
      "hit": false,
      "t": 268759.9999999998,
      "d": 260,
      "v": 49
    },
    {
      "midi": 66,
      "hit": false,
      "t": 269019.9999999998,
      "d": 439.9999999999418,
      "v": 54
    },
    {
      "midi": 59,
      "hit": false,
      "t": 269066.66666666645,
      "d": 4193.333333333372,
      "v": 44
    },
    {
      "midi": 57,
      "hit": false,
      "t": 269366.66666666645,
      "d": 260,
      "v": 49
    },
    {
      "midi": 52,
      "hit": false,
      "t": 269379.99999999977,
      "d": 4193.333333333372,
      "v": 45
    },
    {
      "midi": 64,
      "hit": false,
      "t": 269693.33333333314,
      "d": 3906.666666666686,
      "v": 45
    },
    {
      "midi": 56,
      "hit": false,
      "t": 269719.9999999998,
      "d": 260,
      "v": 49
    },
    {
      "midi": 47,
      "hit": false,
      "t": 270399.9999999998,
      "d": 4193.333333333314,
      "v": 45
    },
    {
      "midi": 40,
      "hit": false,
      "t": 271606.6666666665,
      "d": 4193.333333333314,
      "v": 45
    }
  ]
}