{
  "jsonPath": "Soul/Funk/Stephanie Mills/feel-the-fire.json",
  "path": "Soul\\Funk\\Stephanie Mills\\Feel The Fire.mid",
  "name": "Feel The Fire",
  "difficulty": "Advanced",
  "bpm": 250,
  "notes": [
    {
      "midi": 65,
      "hit": false,
      "t": 16000,
      "d": 58.33333333333394,
      "v": 70
    },
    {
      "midi": 64,
      "hit": false,
      "t": 16000,
      "d": 66.66666666666788,
      "v": 63
    },
    {
      "midi": 69,
      "hit": false,
      "t": 16000,
      "d": 66.66666666666788,
      "v": 65
    },
    {
      "midi": 64,
      "hit": false,
      "t": 16800,
      "d": 66.66666666666788,
      "v": 61
    },
    {
      "midi": 65,
      "hit": false,
      "t": 16800,
      "d": 66.66666666666788,
      "v": 68
    },
    {
      "midi": 69,
      "hit": false,
      "t": 16800,
      "d": 91.66666666666788,
      "v": 65
    },
    {
      "midi": 64,
      "hit": false,
      "t": 17600,
      "d": 66.66666666666788,
      "v": 61
    },
    {
      "midi": 65,
      "hit": false,
      "t": 17600,
      "d": 75,
      "v": 65
    },
    {
      "midi": 69,
      "hit": false,
      "t": 17600,
      "d": 83.33333333333212,
      "v": 65
    },
    {
      "midi": 64,
      "hit": false,
      "t": 18400,
      "d": 66.66666666666788,
      "v": 61
    },
    {
      "midi": 65,
      "hit": false,
      "t": 18400,
      "d": 66.66666666666788,
      "v": 65
    },
    {
      "midi": 69,
      "hit": false,
      "t": 18400,
      "d": 91.66666666666788,
      "v": 61
    },
    {
      "midi": 64,
      "hit": false,
      "t": 19200,
      "d": 66.66666666666788,
      "v": 61
    },
    {
      "midi": 65,
      "hit": false,
      "t": 19200,
      "d": 75,
      "v": 65
    },
    {
      "midi": 69,
      "hit": false,
      "t": 19200,
      "d": 83.33333333333212,
      "v": 63
    },
    {
      "midi": 64,
      "hit": false,
      "t": 20000,
      "d": 66.66666666666788,
      "v": 60
    },
    {
      "midi": 65,
      "hit": false,
      "t": 20000,
      "d": 66.66666666666788,
      "v": 61
    },
    {
      "midi": 69,
      "hit": false,
      "t": 20000,
      "d": 91.66666666666788,
      "v": 61
    },
    {
      "midi": 64,
      "hit": false,
      "t": 20800,
      "d": 66.66666666666788,
      "v": 60
    },
    {
      "midi": 65,
      "hit": false,
      "t": 20800,
      "d": 66.66666666666788,
      "v": 63
    },
    {
      "midi": 69,
      "hit": false,
      "t": 20800,
      "d": 91.66666666666788,
      "v": 63
    },
    {
      "midi": 64,
      "hit": false,
      "t": 21600,
      "d": 66.66666666666788,
      "v": 60
    },
    {
      "midi": 65,
      "hit": false,
      "t": 21600,
      "d": 75,
      "v": 65
    },
    {
      "midi": 69,
      "hit": false,
      "t": 21600,
      "d": 91.66666666666788,
      "v": 61
    },
    {
      "midi": 62,
      "hit": false,
      "t": 22400,
      "d": 66.66666666666788,
      "v": 63
    },
    {
      "midi": 59,
      "hit": false,
      "t": 22400,
      "d": 83.33333333333576,
      "v": 60
    },
    {
      "midi": 67,
      "hit": false,
      "t": 22400,
      "d": 100.00000000000364,
      "v": 61
    },
    {
      "midi": 59,
      "hit": false,
      "t": 23200.000000000004,
      "d": 66.66666666666788,
      "v": 55
    },
    {
      "midi": 62,
      "hit": false,
      "t": 23200.000000000004,
      "d": 75,
      "v": 60
    },
    {
      "midi": 67,
      "hit": false,
      "t": 23200.000000000004,
      "d": 100,
      "v": 56
    },
    {
      "midi": 61,
      "hit": false,
      "t": 24000.000000000004,
      "d": 75,
      "v": 51
    },
    {
      "midi": 67,
      "hit": false,
      "t": 24000.000000000004,
      "d": 83.33333333333212,
      "v": 47
    },
    {
      "midi": 64,
      "hit": false,
      "t": 24000.000000000004,
      "d": 91.66666666666424,
      "v": 55
    },
    {
      "midi": 64,
      "hit": false,
      "t": 24800,
      "d": 75,
      "v": 57
    },
    {
      "midi": 61,
      "hit": false,
      "t": 24800,
      "d": 83.33333333333212,
      "v": 55
    },
    {
      "midi": 67,
      "hit": false,
      "t": 24800,
      "d": 91.66666666666424,
      "v": 55
    },
    {
      "midi": 65,
      "hit": false,
      "t": 25599.999999999996,
      "d": 66.66666666666788,
      "v": 61
    },
    {
      "midi": 64,
      "hit": false,
      "t": 25599.999999999996,
      "d": 75,
      "v": 60
    },
    {
      "midi": 69,
      "hit": false,
      "t": 25599.999999999996,
      "d": 100,
      "v": 57
    },
    {
      "midi": 64,
      "hit": false,
      "t": 26399.999999999996,
      "d": 66.66666666666788,
      "v": 63
    },
    {
      "midi": 65,
      "hit": false,
      "t": 26399.999999999996,
      "d": 75,
      "v": 61
    },
    {
      "midi": 69,
      "hit": false,
      "t": 26399.999999999996,
      "d": 75,
      "v": 57
    },
    {
      "midi": 64,
      "hit": false,
      "t": 27199.999999999996,
      "d": 66.66666666666788,
      "v": 61
    },
    {
      "midi": 69,
      "hit": false,
      "t": 27199.999999999996,
      "d": 66.66666666666788,
      "v": 57
    },
    {
      "midi": 65,
      "hit": false,
      "t": 27199.999999999996,
      "d": 83.33333333333576,
      "v": 63
    },
    {
      "midi": 64,
      "hit": false,
      "t": 28000,
      "d": 75,
      "v": 61
    },
    {
      "midi": 65,
      "hit": false,
      "t": 28000,
      "d": 83.33333333333212,
      "v": 63
    },
    {
      "midi": 69,
      "hit": false,
      "t": 28000,
      "d": 83.33333333333212,
      "v": 61
    },
    {
      "midi": 60,
      "hit": false,
      "t": 28800,
      "d": 75,
      "v": 54
    },
    {
      "midi": 63,
      "hit": false,
      "t": 28800,
      "d": 83.33333333333212,
      "v": 60
    },
    {
      "midi": 67,
      "hit": false,
      "t": 28800,
      "d": 100,
      "v": 60
    },
    {
      "midi": 60,
      "hit": false,
      "t": 29600,
      "d": 58.33333333333212,
      "v": 52
    },
    {
      "midi": 63,
      "hit": false,
      "t": 29600,
      "d": 66.66666666666424,
      "v": 60
    },
    {
      "midi": 67,
      "hit": false,
      "t": 29600,
      "d": 99.99999999999636,
      "v": 61
    },
    {
      "midi": 60,
      "hit": false,
      "t": 30399.999999999996,
      "d": 66.66666666666788,
      "v": 55
    },
    {
      "midi": 66,
      "hit": false,
      "t": 30399.999999999996,
      "d": 66.66666666666788,
      "v": 60
    },
    {
      "midi": 69,
      "hit": false,
      "t": 30399.999999999996,
      "d": 100,
      "v": 56
    },
    {
      "midi": 60,
      "hit": false,
      "t": 31199.999999999996,
      "d": 66.66666666666788,
      "v": 55
    },
    {
      "midi": 66,
      "hit": false,
      "t": 31199.999999999996,
      "d": 83.33333333333576,
      "v": 63
    },
    {
      "midi": 69,
      "hit": false,
      "t": 31199.999999999996,
      "d": 83.33333333333576,
      "v": 61
    },
    {
      "midi": 62,
      "hit": false,
      "t": 32000,
      "d": 66.66666666666788,
      "v": 60
    },
    {
      "midi": 58,
      "hit": false,
      "t": 32000,
      "d": 75,
      "v": 55
    },
    {
      "midi": 67,
      "hit": false,
      "t": 32000,
      "d": 100,
      "v": 56
    },
    {
      "midi": 62,
      "hit": false,
      "t": 32800,
      "d": 66.66666666666424,
      "v": 60
    },
    {
      "midi": 67,
      "hit": false,
      "t": 32800,
      "d": 66.66666666666424,
      "v": 52
    },
    {
      "midi": 58,
      "hit": false,
      "t": 32800,
      "d": 83.33333333332848,
      "v": 47
    },
    {
      "midi": 67,
      "hit": false,
      "t": 33599.99999999999,
      "d": 66.66666666666424,
      "v": 52
    },
    {
      "midi": 58,
      "hit": false,
      "t": 33599.99999999999,
      "d": 83.33333333332848,
      "v": 51
    },
    {
      "midi": 64,
      "hit": false,
      "t": 33599.99999999999,
      "d": 83.33333333332848,
      "v": 61
    },
    {
      "midi": 67,
      "hit": false,
      "t": 34399.999999999985,
      "d": 91.66666666666424,
      "v": 56
    },
    {
      "midi": 58,
      "hit": false,
      "t": 34399.999999999985,
      "d": 100,
      "v": 50
    },
    {
      "midi": 64,
      "hit": false,
      "t": 34399.999999999985,
      "d": 100,
      "v": 57
    },
    {
      "midi": 57,
      "hit": false,
      "t": 35199.999999999985,
      "d": 66.66666666666424,
      "v": 57
    },
    {
      "midi": 60,
      "hit": false,
      "t": 35199.999999999985,
      "d": 66.66666666666424,
      "v": 60
    },
    {
      "midi": 65,
      "hit": false,
      "t": 35199.999999999985,
      "d": 83.33333333332848,
      "v": 61
    },
    {
      "midi": 57,
      "hit": false,
      "t": 35999.99999999998,
      "d": 58.33333333333576,
      "v": 57
    },
    {
      "midi": 60,
      "hit": false,
      "t": 35999.99999999998,
      "d": 75,
      "v": 57
    },
    {
      "midi": 65,
      "hit": false,
      "t": 35999.99999999998,
      "d": 75,
      "v": 60
    },
    {
      "midi": 62,
      "hit": false,
      "t": 36799.99999999998,
      "d": 83.33333333333576,
      "v": 60
    },
    {
      "midi": 58,
      "hit": false,
      "t": 36799.99999999998,
      "d": 100,
      "v": 46
    },
    {
      "midi": 65,
      "hit": false,
      "t": 36799.99999999998,
      "d": 100,
      "v": 52
    },
    {
      "midi": 65,
      "hit": false,
      "t": 37599.99999999998,
      "d": 66.66666666666424,
      "v": 52
    },
    {
      "midi": 58,
      "hit": false,
      "t": 37599.99999999998,
      "d": 83.33333333332848,
      "v": 47
    },
    {
      "midi": 62,
      "hit": false,
      "t": 37599.99999999998,
      "d": 83.33333333332848,
      "v": 60
    },
    {
      "midi": 55,
      "hit": false,
      "t": 38399.99999999997,
      "d": 66.66666666666424,
      "v": 55
    },
    {
      "midi": 58,
      "hit": false,
      "t": 38399.99999999997,
      "d": 66.66666666666424,
      "v": 61
    },
    {
      "midi": 64,
      "hit": false,
      "t": 38399.99999999997,
      "d": 100,
      "v": 57
    },
    {
      "midi": 55,
      "hit": false,
      "t": 39199.99999999997,
      "d": 66.66666666666424,
      "v": 55
    },
    {
      "midi": 58,
      "hit": false,
      "t": 39199.99999999997,
      "d": 66.66666666666424,
      "v": 61
    },
    {
      "midi": 64,
      "hit": false,
      "t": 39199.99999999997,
      "d": 83.33333333332848,
      "v": 57
    },
    {
      "midi": 57,
      "hit": false,
      "t": 39999.99999999996,
      "d": 66.66666666666424,
      "v": 55
    },
    {
      "midi": 62,
      "hit": false,
      "t": 39999.99999999996,
      "d": 66.66666666666424,
      "v": 57
    },
    {
      "midi": 65,
      "hit": false,
      "t": 39999.99999999996,
      "d": 100,
      "v": 57
    },
    {
      "midi": 57,
      "hit": false,
      "t": 40799.99999999996,
      "d": 50,
      "v": 57
    },
    {
      "midi": 62,
      "hit": false,
      "t": 40799.99999999996,
      "d": 66.66666666666424,
      "v": 61
    },
    {
      "midi": 65,
      "hit": false,
      "t": 40799.99999999996,
      "d": 75,
      "v": 61
    },
    {
      "midi": 57,
      "hit": false,
      "t": 41599.99999999996,
      "d": 58.33333333333576,
      "v": 55
    },
    {
      "midi": 61,
      "hit": false,
      "t": 41599.99999999996,
      "d": 83.33333333333576,
      "v": 61
    },
    {
      "midi": 64,
      "hit": false,
      "t": 41599.99999999996,
      "d": 83.33333333333576,
      "v": 63
    },
    {
      "midi": 55,
      "hit": false,
      "t": 42399.99999999996,
      "d": 66.66666666666424,
      "v": 56
    },
    {
      "midi": 61,
      "hit": false,
      "t": 42399.99999999996,
      "d": 66.66666666666424,
      "v": 55
    },
    {
      "midi": 64,
      "hit": false,
      "t": 42399.99999999996,
      "d": 83.33333333332848,
      "v": 60
    },
    {
      "midi": 53,
      "hit": false,
      "t": 43199.999999999956,
      "d": 66.66666666666424,
      "v": 47
    },
    {
      "midi": 57,
      "hit": false,
      "t": 43199.999999999956,
      "d": 66.66666666666424,
      "v": 56
    },
    {
      "midi": 62,
      "hit": false,
      "t": 43199.999999999956,
      "d": 100,
      "v": 56
    },
    {
      "midi": 53,
      "hit": false,
      "t": 43999.999999999956,
      "d": 383.33333333333576,
      "v": 41
    },
    {
      "midi": 57,
      "hit": false,
      "t": 43999.999999999956,
      "d": 433.33333333333576,
      "v": 54
    },
    {
      "midi": 62,
      "hit": false,
      "t": 43999.999999999956,
      "d": 441.6666666666715,
      "v": 56
    },
    {
      "midi": 70,
      "hit": false,
      "t": 44799.99999999996,
      "d": 633.3333333333358,
      "v": 55
    },
    {
      "midi": 55,
      "hit": false,
      "t": 44799.99999999996,
      "d": 1458.3333333333358,
      "v": 50
    },
    {
      "midi": 79,
      "hit": false,
      "t": 44799.99999999996,
      "d": 3050,
      "v": 49
    },
    {
      "midi": 62,
      "hit": false,
      "t": 44999.99999999996,
      "d": 866.6666666666642,
      "v": 47
    },
    {
      "midi": 67,
      "hit": false,
      "t": 45199.99999999996,
      "d": 775,
      "v": 47
    },
    {
      "midi": 69,
      "hit": false,
      "t": 45399.99999999996,
      "d": 1400,
      "v": 46
    },
    {
      "midi": 70,
      "hit": false,
      "t": 45799.99999999996,
      "d": 1033.3333333333358,
      "v": 50
    },
    {
      "midi": 62,
      "hit": false,
      "t": 45999.99999999996,
      "d": 233.33333333333576,
      "v": 51
    },
    {
      "midi": 48,
      "hit": false,
      "t": 46399.99999999996,
      "d": 1150,
      "v": 47
    },
    {
      "midi": 76,
      "hit": false,
      "t": 46399.99999999996,
      "d": 1208.3333333333358,
      "v": 50
    },
    {
      "midi": 55,
      "hit": false,
      "t": 46799.99999999996,
      "d": 858.3333333333358,
      "v": 47
    },
    {
      "midi": 64,
      "hit": false,
      "t": 47199.99999999996,
      "d": 583.3333333333358,
      "v": 38
    },
    {
      "midi": 67,
      "hit": false,
      "t": 47399.99999999996,
      "d": 516.6666666666642,
      "v": 46
    },
    {
      "midi": 70,
      "hit": false,
      "t": 47599.99999999996,
      "d": 358.3333333333285,
      "v": 55
    },
    {
      "midi": 74,
      "hit": false,
      "t": 47799.99999999996,
      "d": 299.9999999999927,
      "v": 46
    },
    {
      "midi": 76,
      "hit": false,
      "t": 47999.999999999956,
      "d": 1300,
      "v": 47
    },
    {
      "midi": 53,
      "hit": false,
      "t": 47999.999999999956,
      "d": 1433.3333333333358,
      "v": 30
    },
    {
      "midi": 60,
      "hit": false,
      "t": 48399.999999999956,
      "d": 991.6666666666642,
      "v": 41
    },
    {
      "midi": 69,
      "hit": false,
      "t": 48599.999999999956,
      "d": 1100.0000000000073,
      "v": 46
    },
    {
      "midi": 72,
      "hit": false,
      "t": 49199.999999999956,
      "d": 433.33333333334303,
      "v": 60
    },
    {
      "midi": 65,
      "hit": false,
      "t": 49399.999999999956,
      "d": 116.66666666667152,
      "v": 47
    },
    {
      "midi": 46,
      "hit": false,
      "t": 49599.99999999996,
      "d": 1233.3333333333358,
      "v": 60
    },
    {
      "midi": 74,
      "hit": false,
      "t": 49599.99999999996,
      "d": 1266.6666666666715,
      "v": 47
    },
    {
      "midi": 53,
      "hit": false,
      "t": 49999.99999999996,
      "d": 883.3333333333358,
      "v": 28
    },
    {
      "midi": 58,
      "hit": false,
      "t": 50199.99999999996,
      "d": 500,
      "v": 44
    },
    {
      "midi": 62,
      "hit": false,
      "t": 50399.99999999996,
      "d": 741.6666666666715,
      "v": 46
    },
    {
      "midi": 65,
      "hit": false,
      "t": 50599.99999999996,
      "d": 550.0000000000073,
      "v": 54
    },
    {
      "midi": 58,
      "hit": false,
      "t": 50799.99999999996,
      "d": 116.66666666667152,
      "v": 36
    },
    {
      "midi": 70,
      "hit": false,
      "t": 50799.99999999996,
      "d": 766.6666666666715,
      "v": 55
    },
    {
      "midi": 52,
      "hit": false,
      "t": 51199.99999999997,
      "d": 1033.3333333333358,
      "v": 55
    },
    {
      "midi": 74,
      "hit": false,
      "t": 51199.99999999997,
      "d": 1700,
      "v": 54
    },
    {
      "midi": 64,
      "hit": false,
      "t": 51599.99999999997,
      "d": 266.66666666666424,
      "v": 45
    },
    {
      "midi": 67,
      "hit": false,
      "t": 51799.99999999997,
      "d": 858.3333333333358,
      "v": 57
    },
    {
      "midi": 70,
      "hit": false,
      "t": 52199.99999999997,
      "d": 533.3333333333358,
      "v": 55
    },
    {
      "midi": 52,
      "hit": false,
      "t": 52399.99999999997,
      "d": 258.33333333333576,
      "v": 55
    },
    {
      "midi": 64,
      "hit": false,
      "t": 52599.99999999997,
      "d": 891.6666666666642,
      "v": 43
    },
    {
      "midi": 45,
      "hit": false,
      "t": 52799.99999999997,
      "d": 466.66666666666424,
      "v": 45
    },
    {
      "midi": 73,
      "hit": false,
      "t": 52799.99999999997,
      "d": 1483.3333333333285,
      "v": 50
    },
    {
      "midi": 52,
      "hit": false,
      "t": 53199.99999999997,
      "d": 1166.6666666666642,
      "v": 40
    },
    {
      "midi": 61,
      "hit": false,
      "t": 53399.99999999997,
      "d": 650,
      "v": 45
    },
    {
      "midi": 64,
      "hit": false,
      "t": 53599.99999999997,
      "d": 666.6666666666642,
      "v": 46
    },
    {
      "midi": 67,
      "hit": false,
      "t": 53799.99999999997,
      "d": 316.66666666666424,
      "v": 46
    },
    {
      "midi": 74,
      "hit": false,
      "t": 54199.99999999997,
      "d": 325,
      "v": 46
    },
    {
      "midi": 61,
      "hit": false,
      "t": 54399.99999999997,
      "d": 100,
      "v": 29
    },
    {
      "midi": 50,
      "hit": false,
      "t": 54399.99999999997,
      "d": 1375,
      "v": 47
    },
    {
      "midi": 76,
      "hit": false,
      "t": 54399.99999999997,
      "d": 1550,
      "v": 40
    },
    {
      "midi": 69,
      "hit": false,
      "t": 54799.99999999997,
      "d": 608.3333333333358,
      "v": 45
    },
    {
      "midi": 57,
      "hit": false,
      "t": 54799.99999999997,
      "d": 1116.6666666666642,
      "v": 38
    },
    {
      "midi": 62,
      "hit": false,
      "t": 55199.99999999997,
      "d": 641.6666666666642,
      "v": 45
    },
    {
      "midi": 65,
      "hit": false,
      "t": 55399.99999999997,
      "d": 508.3333333333285,
      "v": 49
    },
    {
      "midi": 69,
      "hit": false,
      "t": 55599.99999999997,
      "d": 366.66666666666424,
      "v": 50
    },
    {
      "midi": 65,
      "hit": false,
      "t": 55999.99999999997,
      "d": 441.66666666666424,
      "v": 47
    },
    {
      "midi": 74,
      "hit": false,
      "t": 55999.99999999997,
      "d": 533.3333333333285,
      "v": 55
    },
    {
      "midi": 50,
      "hit": false,
      "t": 55999.99999999997,
      "d": 1366.6666666666642,
      "v": 46
    },
    {
      "midi": 57,
      "hit": false,
      "t": 56399.99999999997,
      "d": 900,
      "v": 46
    },
    {
      "midi": 67,
      "hit": false,
      "t": 56599.99999999996,
      "d": 408.33333333333576,
      "v": 46
    },
    {
      "midi": 76,
      "hit": false,
      "t": 56599.99999999996,
      "d": 466.6666666666715,
      "v": 49
    },
    {
      "midi": 62,
      "hit": false,
      "t": 57199.99999999997,
      "d": 100,
      "v": 46
    },
    {
      "midi": 77,
      "hit": false,
      "t": 57199.99999999997,
      "d": 275,
      "v": 46
    },
    {
      "midi": 69,
      "hit": false,
      "t": 57199.99999999997,
      "d": 333.33333333333576,
      "v": 46
    },
    {
      "midi": 70,
      "hit": false,
      "t": 57599.99999999997,
      "d": 800,
      "v": 47
    },
    {
      "midi": 43,
      "hit": false,
      "t": 57599.99999999997,
      "d": 1258.3333333333358,
      "v": 47
    },
    {
      "midi": 79,
      "hit": false,
      "t": 57599.99999999997,
      "d": 1283.3333333333358,
      "v": 56
    },
    {
      "midi": 50,
      "hit": false,
      "t": 57999.99999999997,
      "d": 866.6666666666715,
      "v": 46
    },
    {
      "midi": 58,
      "hit": false,
      "t": 58199.99999999997,
      "d": 400,
      "v": 35
    },
    {
      "midi": 67,
      "hit": false,
      "t": 58399.99999999997,
      "d": 1308.333333333343,
      "v": 47
    },
    {
      "midi": 70,
      "hit": false,
      "t": 58599.99999999997,
      "d": 366.6666666666715,
      "v": 55
    },
    {
      "midi": 58,
      "hit": false,
      "t": 58799.99999999997,
      "d": 133.33333333333576,
      "v": 39
    },
    {
      "midi": 74,
      "hit": false,
      "t": 58799.99999999997,
      "d": 316.6666666666715,
      "v": 55
    },
    {
      "midi": 76,
      "hit": false,
      "t": 58999.99999999998,
      "d": 1375,
      "v": 40
    },
    {
      "midi": 48,
      "hit": false,
      "t": 59399.99999999998,
      "d": 433.33333333333576,
      "v": 41
    },
    {
      "midi": 60,
      "hit": false,
      "t": 59599.99999999998,
      "d": 775,
      "v": 45
    },
    {
      "midi": 64,
      "hit": false,
      "t": 59999.99999999998,
      "d": 633.3333333333358,
      "v": 47
    },
    {
      "midi": 67,
      "hit": false,
      "t": 60199.99999999998,
      "d": 600.0000000000073,
      "v": 46
    },
    {
      "midi": 70,
      "hit": false,
      "t": 60399.99999999998,
      "d": 375.0000000000073,
      "v": 61
    },
    {
      "midi": 60,
      "hit": false,
      "t": 60599.99999999998,
      "d": 91.66666666667152,
      "v": 28
    },
    {
      "midi": 76,
      "hit": false,
      "t": 60599.99999999998,
      "d": 733.333333333343,
      "v": 51
    },
    {
      "midi": 79,
      "hit": false,
      "t": 60799.999999999985,
      "d": 508.33333333333576,
      "v": 57
    },
    {
      "midi": 53,
      "hit": false,
      "t": 60799.999999999985,
      "d": 1266.6666666666642,
      "v": 40
    },
    {
      "midi": 60,
      "hit": false,
      "t": 61199.999999999985,
      "d": 841.6666666666642,
      "v": 41
    },
    {
      "midi": 76,
      "hit": false,
      "t": 61399.999999999985,
      "d": 83.33333333333576,
      "v": 18
    },
    {
      "midi": 79,
      "hit": false,
      "t": 61399.999999999985,
      "d": 100,
      "v": 43
    },
    {
      "midi": 77,
      "hit": false,
      "t": 61599.999999999985,
      "d": 400,
      "v": 51
    },
    {
      "midi": 65,
      "hit": false,
      "t": 61799.999999999985,
      "d": 258.3333333333285,
      "v": 45
    },
    {
      "midi": 76,
      "hit": false,
      "t": 61999.999999999985,
      "d": 366.66666666666424,
      "v": 60
    },
    {
      "midi": 60,
      "hit": false,
      "t": 62199.999999999985,
      "d": 75,
      "v": 46
    },
    {
      "midi": 77,
      "hit": false,
      "t": 62199.999999999985,
      "d": 1633.3333333333358,
      "v": 50
    },
    {
      "midi": 46,
      "hit": false,
      "t": 62399.999999999985,
      "d": 1033.3333333333285,
      "v": 51
    },
    {
      "midi": 53,
      "hit": false,
      "t": 62799.999999999985,
      "d": 616.6666666666642,
      "v": 19
    },
    {
      "midi": 58,
      "hit": false,
      "t": 62999.999999999985,
      "d": 566.6666666666642,
      "v": 46
    },
    {
      "midi": 65,
      "hit": false,
      "t": 63199.999999999985,
      "d": 725.0000000000073,
      "v": 47
    },
    {
      "midi": 70,
      "hit": false,
      "t": 63399.999999999985,
      "d": 366.66666666666424,
      "v": 60
    },
    {
      "midi": 72,
      "hit": false,
      "t": 63599.999999999985,
      "d": 316.6666666666715,
      "v": 47
    },
    {
      "midi": 74,
      "hit": false,
      "t": 63799.999999999985,
      "d": 158.33333333334303,
      "v": 49
    },
    {
      "midi": 67,
      "hit": false,
      "t": 63999.99999999999,
      "d": 408.33333333333576,
      "v": 45
    },
    {
      "midi": 74,
      "hit": false,
      "t": 63999.99999999999,
      "d": 783.3333333333358,
      "v": 45
    },
    {
      "midi": 52,
      "hit": false,
      "t": 63999.99999999999,
      "d": 1466.6666666666642,
      "v": 47
    },
    {
      "midi": 77,
      "hit": false,
      "t": 63999.99999999999,
      "d": 2466.666666666679,
      "v": 46
    },
    {
      "midi": 64,
      "hit": false,
      "t": 64399.99999999999,
      "d": 566.6666666666642,
      "v": 41
    },
    {
      "midi": 67,
      "hit": false,
      "t": 64599.99999999999,
      "d": 650,
      "v": 45
    },
    {
      "midi": 70,
      "hit": false,
      "t": 64799.99999999999,
      "d": 391.66666666666424,
      "v": 57
    },
    {
      "midi": 74,
      "hit": false,
      "t": 64999.99999999999,
      "d": 525,
      "v": 57
    },
    {
      "midi": 64,
      "hit": false,
      "t": 65199.99999999999,
      "d": 550.0000000000073,
      "v": 45
    },
    {
      "midi": 67,
      "hit": false,
      "t": 65399.99999999999,
      "d": 691.6666666666788,
      "v": 43
    },
    {
      "midi": 55,
      "hit": false,
      "t": 65600,
      "d": 491.6666666666715,
      "v": 50
    },
    {
      "midi": 73,
      "hit": false,
      "t": 65600,
      "d": 700,
      "v": 46
    },
    {
      "midi": 57,
      "hit": false,
      "t": 66000,
      "d": 758.3333333333285,
      "v": 41
    },
    {
      "midi": 67,
      "hit": false,
      "t": 66200,
      "d": 1333.333333333343,
      "v": 46
    },
    {
      "midi": 73,
      "hit": false,
      "t": 66400,
      "d": 450,
      "v": 50
    },
    {
      "midi": 74,
      "hit": false,
      "t": 66600,
      "d": 400,
      "v": 46
    },
    {
      "midi": 57,
      "hit": false,
      "t": 66800,
      "d": 266.6666666666715,
      "v": 46
    },
    {
      "midi": 76,
      "hit": false,
      "t": 67000,
      "d": 316.6666666666715,
      "v": 51
    },
    {
      "midi": 50,
      "hit": false,
      "t": 67200,
      "d": 2908.333333333343,
      "v": 41
    },
    {
      "midi": 74,
      "hit": false,
      "t": 67200,
      "d": 3000,
      "v": 51
    },
    {
      "midi": 57,
      "hit": false,
      "t": 68000.00000000001,
      "d": 2266.6666666666424,
      "v": 40
    },
    {
      "midi": 62,
      "hit": false,
      "t": 68200.00000000001,
      "d": 1966.666666666657,
      "v": 36
    },
    {
      "midi": 65,
      "hit": false,
      "t": 68600.00000000001,
      "d": 1658.333333333314,
      "v": 43
    },
    {
      "midi": 69,
      "hit": false,
      "t": 68800.00000000001,
      "d": 1433.333333333314,
      "v": 46
    },
    {
      "midi": 67,
      "hit": false,
      "t": 70399.99999999999,
      "d": 466.6666666666715,
      "v": 47
    },
    {
      "midi": 70,
      "hit": false,
      "t": 70399.99999999999,
      "d": 566.6666666666715,
      "v": 52
    },
    {
      "midi": 74,
      "hit": false,
      "t": 70399.99999999999,
      "d": 700,
      "v": 54
    },
    {
      "midi": 55,
      "hit": false,
      "t": 70399.99999999999,
      "d": 1316.6666666666715,
      "v": 52
    },
    {
      "midi": 62,
      "hit": false,
      "t": 70599.99999999999,
      "d": 933.3333333333285,
      "v": 47
    },
    {
      "midi": 65,
      "hit": false,
      "t": 70799.99999999999,
      "d": 566.6666666666715,
      "v": 41
    },
    {
      "midi": 67,
      "hit": false,
      "t": 70999.99999999999,
      "d": 666.6666666666715,
      "v": 51
    },
    {
      "midi": 70,
      "hit": false,
      "t": 71199.99999999999,
      "d": 1050.0000000000146,
      "v": 65
    },
    {
      "midi": 74,
      "hit": false,
      "t": 71399.99999999999,
      "d": 525.0000000000146,
      "v": 63
    },
    {
      "midi": 65,
      "hit": false,
      "t": 71599.99999999999,
      "d": 216.66666666667152,
      "v": 46
    },
    {
      "midi": 62,
      "hit": false,
      "t": 71799.99999999999,
      "d": 108.33333333334303,
      "v": 51
    },
    {
      "midi": 67,
      "hit": false,
      "t": 72000,
      "d": 433.3333333333285,
      "v": 46
    },
    {
      "midi": 48,
      "hit": false,
      "t": 72000,
      "d": 1225,
      "v": 55
    },
    {
      "midi": 76,
      "hit": false,
      "t": 72000,
      "d": 2283.333333333343,
      "v": 54
    },
    {
      "midi": 55,
      "hit": false,
      "t": 72200,
      "d": 1100,
      "v": 46
    },
    {
      "midi": 60,
      "hit": false,
      "t": 72400,
      "d": 491.6666666666715,
      "v": 51
    },
    {
      "midi": 64,
      "hit": false,
      "t": 72600,
      "d": 458.3333333333285,
      "v": 56
    },
    {
      "midi": 67,
      "hit": false,
      "t": 72800,
      "d": 566.6666666666715,
      "v": 66
    },
    {
      "midi": 70,
      "hit": false,
      "t": 73000,
      "d": 516.6666666666715,
      "v": 52
    },
    {
      "midi": 60,
      "hit": false,
      "t": 73200,
      "d": 266.6666666666715,
      "v": 46
    },
    {
      "midi": 64,
      "hit": false,
      "t": 73400,
      "d": 233.33333333332848,
      "v": 57
    },
    {
      "midi": 69,
      "hit": false,
      "t": 73600,
      "d": 566.6666666666715,
      "v": 51
    },
    {
      "midi": 72,
      "hit": false,
      "t": 73600,
      "d": 666.6666666666715,
      "v": 54
    },
    {
      "midi": 53,
      "hit": false,
      "t": 73600,
      "d": 1333.333333333343,
      "v": 43
    },
    {
      "midi": 60,
      "hit": false,
      "t": 73800,
      "d": 983.333333333343,
      "v": 45
    },
    {
      "midi": 65,
      "hit": false,
      "t": 74000,
      "d": 533.333333333343,
      "v": 50
    },
    {
      "midi": 67,
      "hit": false,
      "t": 74200,
      "d": 600.0000000000146,
      "v": 56
    },
    {
      "midi": 69,
      "hit": false,
      "t": 74400.00000000001,
      "d": 766.666666666657,
      "v": 70
    },
    {
      "midi": 72,
      "hit": false,
      "t": 74600.00000000001,
      "d": 566.666666666657,
      "v": 65
    },
    {
      "midi": 65,
      "hit": false,
      "t": 74800.00000000001,
      "d": 191.66666666665697,
      "v": 52
    },
    {
      "midi": 60,
      "hit": false,
      "t": 75000,
      "d": 91.66666666667152,
      "v": 49
    },
    {
      "midi": 70,
      "hit": false,
      "t": 75200,
      "d": 500,
      "v": 47
    },
    {
      "midi": 46,
      "hit": false,
      "t": 75200,
      "d": 1333.3333333333285,
      "v": 55
    },
    {
      "midi": 74,
      "hit": false,
      "t": 75200,
      "d": 1574.9999999999854,
      "v": 47
    },
    {
      "midi": 53,
      "hit": false,
      "t": 75400,
      "d": 1166.666666666657,
      "v": 43
    },
    {
      "midi": 58,
      "hit": false,
      "t": 75600,
      "d": 416.6666666666715,
      "v": 59
    },
    {
      "midi": 62,
      "hit": false,
      "t": 75800,
      "d": 633.3333333333285,
      "v": 50
    },
    {
      "midi": 65,
      "hit": false,
      "t": 76000,
      "d": 599.9999999999854,
      "v": 63
    },
    {
      "midi": 70,
      "hit": false,
      "t": 76200,
      "d": 408.33333333331393,
      "v": 60
    },
    {
      "midi": 58,
      "hit": false,
      "t": 76400,
      "d": 258.33333333331393,
      "v": 55
    },
    {
      "midi": 62,
      "hit": false,
      "t": 76599.99999999999,
      "d": 100,
      "v": 52
    },
    {
      "midi": 67,
      "hit": false,
      "t": 76799.99999999999,
      "d": 433.3333333333285,
      "v": 57
    },
    {
      "midi": 70,
      "hit": false,
      "t": 76799.99999999999,
      "d": 516.666666666657,
      "v": 57
    },
    {
      "midi": 52,
      "hit": false,
      "t": 76799.99999999999,
      "d": 1249.9999999999854,
      "v": 55
    },
    {
      "midi": 74,
      "hit": false,
      "t": 76799.99999999999,
      "d": 1433.333333333314,
      "v": 50
    },
    {
      "midi": 64,
      "hit": false,
      "t": 77199.99999999999,
      "d": 441.66666666665697,
      "v": 52
    },
    {
      "midi": 67,
      "hit": false,
      "t": 77399.99999999997,
      "d": 366.6666666666715,
      "v": 60
    },
    {
      "midi": 58,
      "hit": false,
      "t": 77599.99999999997,
      "d": 458.3333333333285,
      "v": 65
    },
    {
      "midi": 64,
      "hit": false,
      "t": 77799.99999999997,
      "d": 508.3333333333285,
      "v": 55
    },
    {
      "midi": 67,
      "hit": false,
      "t": 77999.99999999997,
      "d": 383.3333333333285,
      "v": 61
    },
    {
      "midi": 70,
      "hit": false,
      "t": 78199.99999999997,
      "d": 166.66666666665697,
      "v": 46
    },
    {
      "midi": 45,
      "hit": false,
      "t": 78399.99999999997,
      "d": 166.66666666667152,
      "v": 47
    },
    {
      "midi": 64,
      "hit": false,
      "t": 78399.99999999997,
      "d": 400,
      "v": 50
    },
    {
      "midi": 67,
      "hit": false,
      "t": 78399.99999999997,
      "d": 533.3333333333285,
      "v": 43
    },
    {
      "midi": 73,
      "hit": false,
      "t": 78399.99999999997,
      "d": 633.3333333333285,
      "v": 60
    },
    {
      "midi": 57,
      "hit": false,
      "t": 78599.99999999997,
      "d": 733.3333333333285,
      "v": 49
    },
    {
      "midi": 61,
      "hit": false,
      "t": 78799.99999999997,
      "d": 833.3333333333285,
      "v": 57
    },
    {
      "midi": 64,
      "hit": false,
      "t": 78999.99999999997,
      "d": 591.6666666666715,
      "v": 52
    },
    {
      "midi": 67,
      "hit": false,
      "t": 79199.99999999997,
      "d": 583.3333333333285,
      "v": 66
    },
    {
      "midi": 73,
      "hit": false,
      "t": 79399.99999999997,
      "d": 483.3333333333285,
      "v": 67
    },
    {
      "midi": 57,
      "hit": false,
      "t": 79599.99999999997,
      "d": 208.33333333332848,
      "v": 44
    },
    {
      "midi": 64,
      "hit": false,
      "t": 79799.99999999997,
      "d": 300,
      "v": 56
    },
    {
      "midi": 50,
      "hit": false,
      "t": 79999.99999999997,
      "d": 1200,
      "v": 51
    },
    {
      "midi": 74,
      "hit": false,
      "t": 79999.99999999997,
      "d": 3166.6666666666715,
      "v": 52
    },
    {
      "midi": 57,
      "hit": false,
      "t": 80199.99999999997,
      "d": 991.6666666666715,
      "v": 50
    },
    {
      "midi": 62,
      "hit": false,
      "t": 80399.99999999997,
      "d": 600,
      "v": 61
    },
    {
      "midi": 64,
      "hit": false,
      "t": 80599.99999999997,
      "d": 700,
      "v": 56
    },
    {
      "midi": 65,
      "hit": false,
      "t": 80999.99999999997,
      "d": 1125,
      "v": 65
    },
    {
      "midi": 62,
      "hit": false,
      "t": 81199.99999999997,
      "d": 283.3333333333285,
      "v": 46
    },
    {
      "midi": 57,
      "hit": false,
      "t": 81399.99999999997,
      "d": 225,
      "v": 50
    },
    {
      "midi": 50,
      "hit": false,
      "t": 81599.99999999997,
      "d": 1200,
      "v": 46
    },
    {
      "midi": 57,
      "hit": false,
      "t": 81799.99999999997,
      "d": 1033.3333333333285,
      "v": 47
    },
    {
      "midi": 62,
      "hit": false,
      "t": 81999.99999999997,
      "d": 575,
      "v": 54
    },
    {
      "midi": 64,
      "hit": false,
      "t": 82199.99999999997,
      "d": 1000,
      "v": 54
    },
    {
      "midi": 65,
      "hit": false,
      "t": 82599.99999999997,
      "d": 566.6666666666715,
      "v": 54
    },
    {
      "midi": 62,
      "hit": false,
      "t": 82799.99999999997,
      "d": 266.6666666666715,
      "v": 46
    },
    {
      "midi": 57,
      "hit": false,
      "t": 82999.99999999997,
      "d": 166.66666666667152,
      "v": 46
    },
    {
      "midi": 74,
      "hit": false,
      "t": 83199.99999999997,
      "d": 516.6666666666715,
      "v": 52
    },
    {
      "midi": 65,
      "hit": false,
      "t": 83199.99999999997,
      "d": 550,
      "v": 49
    },
    {
      "midi": 69,
      "hit": false,
      "t": 83199.99999999997,
      "d": 558.3333333333285,
      "v": 50
    },
    {
      "midi": 50,
      "hit": false,
      "t": 83199.99999999997,
      "d": 1408.3333333333285,
      "v": 47
    },
    {
      "midi": 57,
      "hit": false,
      "t": 83599.99999999997,
      "d": 750,
      "v": 46
    },
    {
      "midi": 74,
      "hit": false,
      "t": 83999.99999999997,
      "d": 666.666666666657,
      "v": 49
    },
    {
      "midi": 65,
      "hit": false,
      "t": 83999.99999999997,
      "d": 699.9999999999854,
      "v": 54
    },
    {
      "midi": 69,
      "hit": false,
      "t": 83999.99999999997,
      "d": 733.3333333333139,
      "v": 52
    },
    {
      "midi": 62,
      "hit": false,
      "t": 84399.99999999997,
      "d": 233.33333333332848,
      "v": 41
    },
    {
      "midi": 57,
      "hit": false,
      "t": 84599.99999999997,
      "d": 241.66666666665697,
      "v": 40
    },
    {
      "midi": 69,
      "hit": false,
      "t": 84799.99999999996,
      "d": 408.3333333333285,
      "v": 46
    },
    {
      "midi": 74,
      "hit": false,
      "t": 84799.99999999996,
      "d": 566.666666666657,
      "v": 50
    },
    {
      "midi": 65,
      "hit": false,
      "t": 84799.99999999996,
      "d": 599.9999999999854,
      "v": 46
    },
    {
      "midi": 48,
      "hit": false,
      "t": 84799.99999999996,
      "d": 1333.333333333314,
      "v": 43
    },
    {
      "midi": 57,
      "hit": false,
      "t": 85199.99999999996,
      "d": 724.9999999999854,
      "v": 40
    },
    {
      "midi": 74,
      "hit": false,
      "t": 85599.99999999994,
      "d": 416.6666666666715,
      "v": 50
    },
    {
      "midi": 69,
      "hit": false,
      "t": 85599.99999999994,
      "d": 500,
      "v": 50
    },
    {
      "midi": 65,
      "hit": false,
      "t": 85599.99999999994,
      "d": 616.6666666666715,
      "v": 51
    },
    {
      "midi": 62,
      "hit": false,
      "t": 85999.99999999994,
      "d": 183.33333333332848,
      "v": 41
    },
    {
      "midi": 57,
      "hit": false,
      "t": 86199.99999999994,
      "d": 133.33333333334303,
      "v": 41
    },
    {
      "midi": 69,
      "hit": false,
      "t": 86399.99999999996,
      "d": 600,
      "v": 47
    },
    {
      "midi": 62,
      "hit": false,
      "t": 86399.99999999996,
      "d": 608.3333333333285,
      "v": 47
    },
    {
      "midi": 65,
      "hit": false,
      "t": 86399.99999999996,
      "d": 616.666666666657,
      "v": 46
    },
    {
      "midi": 47,
      "hit": false,
      "t": 86399.99999999996,
      "d": 1599.9999999999854,
      "v": 50
    },
    {
      "midi": 59,
      "hit": false,
      "t": 86799.99999999996,
      "d": 433.33333333331393,
      "v": 38
    },
    {
      "midi": 65,
      "hit": false,
      "t": 87199.99999999994,
      "d": 400,
      "v": 54
    },
    {
      "midi": 69,
      "hit": false,
      "t": 87199.99999999994,
      "d": 483.3333333333285,
      "v": 47
    },
    {
      "midi": 62,
      "hit": false,
      "t": 87199.99999999994,
      "d": 533.3333333333285,
      "v": 47
    },
    {
      "midi": 59,
      "hit": false,
      "t": 87599.99999999994,
      "d": 283.3333333333285,
      "v": 41
    },
    {
      "midi": 61,
      "hit": false,
      "t": 87999.99999999994,
      "d": 433.3333333333285,
      "v": 46
    },
    {
      "midi": 69,
      "hit": false,
      "t": 87999.99999999994,
      "d": 733.3333333333285,
      "v": 47
    },
    {
      "midi": 46,
      "hit": false,
      "t": 87999.99999999994,
      "d": 816.6666666666715,
      "v": 34
    },
    {
      "midi": 58,
      "hit": false,
      "t": 88399.99999999994,
      "d": 350,
      "v": 49
    },
    {
      "midi": 61,
      "hit": false,
      "t": 88599.99999999994,
      "d": 625,
      "v": 40
    },
    {
      "midi": 45,
      "hit": false,
      "t": 88799.99999999994,
      "d": 600,
      "v": 46
    },
    {
      "midi": 67,
      "hit": false,
      "t": 88799.99999999994,
      "d": 833.3333333333285,
      "v": 52
    },
    {
      "midi": 57,
      "hit": false,
      "t": 89199.99999999994,
      "d": 300,
      "v": 44
    },
    {
      "midi": 61,
      "hit": false,
      "t": 89399.99999999994,
      "d": 166.66666666667152,
      "v": 43
    },
    {
      "midi": 65,
      "hit": false,
      "t": 89599.99999999994,
      "d": 500,
      "v": 52
    },
    {
      "midi": 50,
      "hit": false,
      "t": 89599.99999999994,
      "d": 2866.6666666666424,
      "v": 46
    },
    {
      "midi": 57,
      "hit": false,
      "t": 89999.99999999994,
      "d": 1091.666666666657,
      "v": 41
    },
    {
      "midi": 62,
      "hit": false,
      "t": 90199.99999999994,
      "d": 425,
      "v": 49
    },
    {
      "midi": 65,
      "hit": false,
      "t": 90399.99999999994,
      "d": 500,
      "v": 46
    },
    {
      "midi": 74,
      "hit": false,
      "t": 90399.99999999994,
      "d": 558.3333333333285,
      "v": 38
    },
    {
      "midi": 62,
      "hit": false,
      "t": 90799.99999999994,
      "d": 266.66666666665697,
      "v": 41
    },
    {
      "midi": 74,
      "hit": false,
      "t": 91199.99999999993,
      "d": 666.6666666666715,
      "v": 52
    },
    {
      "midi": 65,
      "hit": false,
      "t": 91199.99999999993,
      "d": 691.6666666666715,
      "v": 50
    },
    {
      "midi": 57,
      "hit": false,
      "t": 91599.99999999993,
      "d": 583.3333333333285,
      "v": 41
    },
    {
      "midi": 65,
      "hit": false,
      "t": 91999.99999999993,
      "d": 300,
      "v": 51
    },
    {
      "midi": 74,
      "hit": false,
      "t": 91999.99999999993,
      "d": 458.3333333333285,
      "v": 54
    },
    {
      "midi": 69,
      "hit": false,
      "t": 91999.99999999993,
      "d": 483.3333333333285,
      "v": 55
    },
    {
      "midi": 62,
      "hit": false,
      "t": 92199.99999999993,
      "d": 300,
      "v": 47
    },
    {
      "midi": 57,
      "hit": false,
      "t": 92399.99999999993,
      "d": 333.33333333334303,
      "v": 45
    },
    {
      "midi": 65,
      "hit": false,
      "t": 92599.99999999993,
      "d": 66.66666666667152,
      "v": 28
    },
    {
      "midi": 63,
      "hit": false,
      "t": 92799.99999999994,
      "d": 366.6666666666715,
      "v": 46
    },
    {
      "midi": 69,
      "hit": false,
      "t": 92799.99999999994,
      "d": 466.6666666666715,
      "v": 57
    },
    {
      "midi": 48,
      "hit": false,
      "t": 92799.99999999994,
      "d": 2000,
      "v": 46
    },
    {
      "midi": 60,
      "hit": false,
      "t": 93199.99999999994,
      "d": 500,
      "v": 45
    },
    {
      "midi": 63,
      "hit": false,
      "t": 93399.99999999994,
      "d": 100,
      "v": 28
    },
    {
      "midi": 63,
      "hit": false,
      "t": 93599.99999999994,
      "d": 383.3333333333285,
      "v": 50
    },
    {
      "midi": 69,
      "hit": false,
      "t": 93599.99999999994,
      "d": 533.3333333333285,
      "v": 57
    },
    {
      "midi": 75,
      "hit": false,
      "t": 93599.99999999994,
      "d": 550,
      "v": 57
    },
    {
      "midi": 60,
      "hit": false,
      "t": 93999.99999999994,
      "d": 966.6666666666715,
      "v": 46
    },
    {
      "midi": 63,
      "hit": false,
      "t": 94199.99999999994,
      "d": 866.6666666666715,
      "v": 47
    },
    {
      "midi": 69,
      "hit": false,
      "t": 94399.99999999994,
      "d": 650,
      "v": 54
    },
    {
      "midi": 75,
      "hit": false,
      "t": 94799.99999999994,
      "d": 250,
      "v": 66
    },
    {
      "midi": 50,
      "hit": false,
      "t": 94999.99999999994,
      "d": 866.6666666666715,
      "v": 47
    },
    {
      "midi": 62,
      "hit": false,
      "t": 95199.99999999994,
      "d": 116.66666666667152,
      "v": 46
    },
    {
      "midi": 74,
      "hit": false,
      "t": 95199.99999999994,
      "d": 341.6666666666715,
      "v": 55
    },
    {
      "midi": 69,
      "hit": false,
      "t": 95199.99999999994,
      "d": 683.333333333343,
      "v": 54
    },
    {
      "midi": 66,
      "hit": false,
      "t": 95199.99999999994,
      "d": 716.6666666666715,
      "v": 52
    },
    {
      "midi": 62,
      "hit": false,
      "t": 95599.99999999994,
      "d": 100,
      "v": 18
    },
    {
      "midi": 72,
      "hit": false,
      "t": 95599.99999999994,
      "d": 241.66666666667152,
      "v": 49
    },
    {
      "midi": 41,
      "hit": false,
      "t": 95999.99999999994,
      "d": 100,
      "v": 49
    },
    {
      "midi": 62,
      "hit": false,
      "t": 95999.99999999994,
      "d": 641.6666666666715,
      "v": 40
    },
    {
      "midi": 70,
      "hit": false,
      "t": 95999.99999999994,
      "d": 850,
      "v": 55
    },
    {
      "midi": 43,
      "hit": false,
      "t": 95999.99999999994,
      "d": 1341.666666666657,
      "v": 45
    },
    {
      "midi": 50,
      "hit": false,
      "t": 96399.99999999994,
      "d": 650,
      "v": 47
    },
    {
      "midi": 58,
      "hit": false,
      "t": 96599.99999999994,
      "d": 575,
      "v": 45
    },
    {
      "midi": 62,
      "hit": false,
      "t": 96799.99999999994,
      "d": 533.3333333333285,
      "v": 55
    },
    {
      "midi": 67,
      "hit": false,
      "t": 96999.99999999994,
      "d": 533.3333333333285,
      "v": 52
    },
    {
      "midi": 70,
      "hit": false,
      "t": 97199.99999999994,
      "d": 266.66666666665697,
      "v": 63
    },
    {
      "midi": 62,
      "hit": false,
      "t": 97399.99999999993,
      "d": 41.66666666667152,
      "v": 31
    },
    {
      "midi": 58,
      "hit": false,
      "t": 97399.99999999993,
      "d": 66.66666666667152,
      "v": 52
    },
    {
      "midi": 50,
      "hit": false,
      "t": 97399.99999999993,
      "d": 116.66666666667152,
      "v": 49
    },
    {
      "midi": 62,
      "hit": false,
      "t": 97599.99999999994,
      "d": 266.6666666666715,
      "v": 47
    },
    {
      "midi": 70,
      "hit": false,
      "t": 97599.99999999994,
      "d": 500,
      "v": 55
    },
    {
      "midi": 67,
      "hit": false,
      "t": 97599.99999999994,
      "d": 675,
      "v": 51
    },
    {
      "midi": 48,
      "hit": false,
      "t": 97599.99999999994,
      "d": 1266.6666666666715,
      "v": 52
    },
    {
      "midi": 62,
      "hit": false,
      "t": 97999.99999999994,
      "d": 133.33333333332848,
      "v": 34
    },
    {
      "midi": 60,
      "hit": false,
      "t": 97999.99999999994,
      "d": 416.6666666666715,
      "v": 41
    },
    {
      "midi": 64,
      "hit": false,
      "t": 98399.99999999994,
      "d": 266.6666666666715,
      "v": 46
    },
    {
      "midi": 67,
      "hit": false,
      "t": 98399.99999999994,
      "d": 400,
      "v": 52
    },
    {
      "midi": 72,
      "hit": false,
      "t": 98399.99999999994,
      "d": 850,
      "v": 52
    },
    {
      "midi": 60,
      "hit": false,
      "t": 98799.99999999994,
      "d": 66.66666666667152,
      "v": 38
    },
    {
      "midi": 64,
      "hit": false,
      "t": 98799.99999999994,
      "d": 458.3333333333285,
      "v": 39
    },
    {
      "midi": 67,
      "hit": false,
      "t": 99199.99999999994,
      "d": 100,
      "v": 46
    },
    {
      "midi": 65,
      "hit": false,
      "t": 99199.99999999994,
      "d": 766.6666666666715,
      "v": 51
    },
    {
      "midi": 69,
      "hit": false,
      "t": 99199.99999999994,
      "d": 850,
      "v": 43
    },
    {
      "midi": 41,
      "hit": false,
      "t": 99199.99999999994,
      "d": 1250,
      "v": 31
    },
    {
      "midi": 48,
      "hit": false,
      "t": 99599.99999999994,
      "d": 1033.3333333333285,
      "v": 29
    },
    {
      "midi": 57,
      "hit": false,
      "t": 99799.99999999994,
      "d": 533.3333333333285,
      "v": 40
    },
    {
      "midi": 60,
      "hit": false,
      "t": 99999.99999999994,
      "d": 733.3333333333285,
      "v": 47
    },
    {
      "midi": 65,
      "hit": false,
      "t": 100199.99999999994,
      "d": 500,
      "v": 70
    },
    {
      "midi": 67,
      "hit": false,
      "t": 100399.99999999994,
      "d": 366.66666666665697,
      "v": 61
    },
    {
      "midi": 57,
      "hit": false,
      "t": 100599.99999999994,
      "d": 133.33333333332848,
      "v": 41
    },
    {
      "midi": 69,
      "hit": false,
      "t": 100599.99999999994,
      "d": 166.66666666665697,
      "v": 50
    },
    {
      "midi": 65,
      "hit": false,
      "t": 100799.99999999993,
      "d": 525,
      "v": 55
    },
    {
      "midi": 62,
      "hit": false,
      "t": 100799.99999999993,
      "d": 650,
      "v": 50
    },
    {
      "midi": 69,
      "hit": false,
      "t": 100799.99999999993,
      "d": 650,
      "v": 43
    },
    {
      "midi": 46,
      "hit": false,
      "t": 100799.99999999993,
      "d": 1383.3333333333285,
      "v": 41
    },
    {
      "midi": 53,
      "hit": false,
      "t": 101199.99999999993,
      "d": 708.3333333333285,
      "v": 23
    },
    {
      "midi": 62,
      "hit": false,
      "t": 101599.99999999993,
      "d": 458.3333333333285,
      "v": 50
    },
    {
      "midi": 69,
      "hit": false,
      "t": 101599.99999999993,
      "d": 724.9999999999854,
      "v": 52
    },
    {
      "midi": 58,
      "hit": false,
      "t": 101999.99999999993,
      "d": 208.33333333332848,
      "v": 41
    },
    {
      "midi": 53,
      "hit": false,
      "t": 102199.99999999993,
      "d": 66.66666666665697,
      "v": 27
    },
    {
      "midi": 58,
      "hit": false,
      "t": 102399.99999999991,
      "d": 375,
      "v": 46
    },
    {
      "midi": 62,
      "hit": false,
      "t": 102399.99999999991,
      "d": 466.6666666666715,
      "v": 56
    },
    {
      "midi": 67,
      "hit": false,
      "t": 102399.99999999991,
      "d": 633.333333333343,
      "v": 50
    },
    {
      "midi": 43,
      "hit": false,
      "t": 102399.99999999991,
      "d": 1283.3333333333285,
      "v": 54
    },
    {
      "midi": 55,
      "hit": false,
      "t": 102799.99999999991,
      "d": 433.33333333334303,
      "v": 39
    },
    {
      "midi": 58,
      "hit": false,
      "t": 103199.99999999993,
      "d": 216.66666666665697,
      "v": 46
    },
    {
      "midi": 62,
      "hit": false,
      "t": 103199.99999999993,
      "d": 566.6666666666424,
      "v": 60
    },
    {
      "midi": 67,
      "hit": false,
      "t": 103199.99999999993,
      "d": 866.6666666666279,
      "v": 55
    },
    {
      "midi": 55,
      "hit": false,
      "t": 103599.99999999991,
      "d": 291.66666666665697,
      "v": 43
    },
    {
      "midi": 58,
      "hit": false,
      "t": 103799.9999999999,
      "d": 233.33333333332848,
      "v": 50
    },
    {
      "midi": 62,
      "hit": false,
      "t": 103999.9999999999,
      "d": 533.3333333333285,
      "v": 55
    },
    {
      "midi": 65,
      "hit": false,
      "t": 103999.9999999999,
      "d": 600,
      "v": 55
    },
    {
      "midi": 45,
      "hit": false,
      "t": 103999.9999999999,
      "d": 1291.6666666666715,
      "v": 41
    },
    {
      "midi": 57,
      "hit": false,
      "t": 104399.99999999988,
      "d": 116.66666666667152,
      "v": 38
    },
    {
      "midi": 57,
      "hit": false,
      "t": 104799.9999999999,
      "d": 316.6666666666715,
      "v": 46
    },
    {
      "midi": 62,
      "hit": false,
      "t": 104799.9999999999,
      "d": 450,
      "v": 52
    },
    {
      "midi": 65,
      "hit": false,
      "t": 104799.9999999999,
      "d": 616.6666666666715,
      "v": 52
    },
    {
      "midi": 69,
      "hit": false,
      "t": 104799.9999999999,
      "d": 716.6666666666715,
      "v": 50
    },
    {
      "midi": 57,
      "hit": false,
      "t": 105199.9999999999,
      "d": 333.33333333334303,
      "v": 46
    },
    {
      "midi": 45,
      "hit": false,
      "t": 105399.9999999999,
      "d": 1100.0000000000146,
      "v": 46
    },
    {
      "midi": 57,
      "hit": false,
      "t": 105599.99999999991,
      "d": 258.3333333333285,
      "v": 41
    },
    {
      "midi": 64,
      "hit": false,
      "t": 105599.99999999991,
      "d": 466.6666666666715,
      "v": 50
    },
    {
      "midi": 61,
      "hit": false,
      "t": 105599.99999999991,
      "d": 500,
      "v": 45
    },
    {
      "midi": 69,
      "hit": false,
      "t": 105599.99999999991,
      "d": 600,
      "v": 46
    },
    {
      "midi": 57,
      "hit": false,
      "t": 105999.99999999991,
      "d": 275,
      "v": 45
    },
    {
      "midi": 61,
      "hit": false,
      "t": 106399.99999999991,
      "d": 416.6666666666715,
      "v": 50
    },
    {
      "midi": 57,
      "hit": false,
      "t": 106399.99999999991,
      "d": 600,
      "v": 51
    },
    {
      "midi": 64,
      "hit": false,
      "t": 106399.99999999991,
      "d": 600,
      "v": 51
    },
    {
      "midi": 69,
      "hit": false,
      "t": 106399.99999999991,
      "d": 633.3333333333285,
      "v": 55
    },
    {
      "midi": 45,
      "hit": false,
      "t": 106799.99999999991,
      "d": 350,
      "v": 40
    },
    {
      "midi": 57,
      "hit": false,
      "t": 107199.99999999991,
      "d": 458.3333333333285,
      "v": 50
    },
    {
      "midi": 65,
      "hit": false,
      "t": 107199.99999999991,
      "d": 583.3333333333285,
      "v": 50
    },
    {
      "midi": 69,
      "hit": false,
      "t": 107199.99999999991,
      "d": 591.666666666657,
      "v": 46
    },
    {
      "midi": 62,
      "hit": false,
      "t": 107199.99999999991,
      "d": 616.666666666657,
      "v": 52
    },
    {
      "midi": 50,
      "hit": false,
      "t": 107399.99999999991,
      "d": 841.6666666666424,
      "v": 52
    },
    {
      "midi": 53,
      "hit": false,
      "t": 107599.99999999991,
      "d": 633.3333333333139,
      "v": 61
    },
    {
      "midi": 57,
      "hit": false,
      "t": 107799.9999999999,
      "d": 899.9999999999854,
      "v": 61
    },
    {
      "midi": 62,
      "hit": false,
      "t": 107999.9999999999,
      "d": 766.6666666666424,
      "v": 68
    },
    {
      "midi": 65,
      "hit": false,
      "t": 108199.9999999999,
      "d": 558.3333333333139,
      "v": 63
    },
    {
      "midi": 69,
      "hit": false,
      "t": 108399.99999999988,
      "d": 350,
      "v": 68
    },
    {
      "midi": 74,
      "hit": false,
      "t": 108599.99999999988,
      "d": 133.33333333332848,
      "v": 61
    },
    {
      "midi": 70,
      "hit": false,
      "t": 108799.99999999987,
      "d": 475,
      "v": 70
    },
    {
      "midi": 67,
      "hit": false,
      "t": 108799.99999999987,
      "d": 500,
      "v": 61
    },
    {
      "midi": 79,
      "hit": false,
      "t": 108799.99999999987,
      "d": 516.6666666666715,
      "v": 60
    },
    {
      "midi": 55,
      "hit": false,
      "t": 108799.99999999987,
      "d": 1400.0000000000146,
      "v": 63
    },
    {
      "midi": 62,
      "hit": false,
      "t": 109199.99999999987,
      "d": 441.6666666666715,
      "v": 52
    },
    {
      "midi": 67,
      "hit": false,
      "t": 109599.99999999987,
      "d": 216.66666666667152,
      "v": 66
    },
    {
      "midi": 70,
      "hit": false,
      "t": 109599.99999999987,
      "d": 383.33333333334303,
      "v": 70
    },
    {
      "midi": 79,
      "hit": false,
      "t": 109599.99999999987,
      "d": 700.0000000000146,
      "v": 63
    },
    {
      "midi": 62,
      "hit": false,
      "t": 109799.99999999987,
      "d": 408.33333333334303,
      "v": 61
    },
    {
      "midi": 67,
      "hit": false,
      "t": 109999.99999999988,
      "d": 316.6666666666715,
      "v": 57
    },
    {
      "midi": 70,
      "hit": false,
      "t": 110199.99999999988,
      "d": 125,
      "v": 55
    },
    {
      "midi": 70,
      "hit": false,
      "t": 110399.99999999988,
      "d": 483.3333333333285,
      "v": 66
    },
    {
      "midi": 76,
      "hit": false,
      "t": 110399.99999999988,
      "d": 525,
      "v": 60
    },
    {
      "midi": 79,
      "hit": false,
      "t": 110399.99999999988,
      "d": 625,
      "v": 55
    },
    {
      "midi": 67,
      "hit": false,
      "t": 110399.99999999988,
      "d": 633.3333333333285,
      "v": 55
    },
    {
      "midi": 48,
      "hit": false,
      "t": 110399.99999999988,
      "d": 1558.3333333333285,
      "v": 65
    },
    {
      "midi": 60,
      "hit": false,
      "t": 110799.99999999988,
      "d": 516.6666666666715,
      "v": 52
    },
    {
      "midi": 67,
      "hit": false,
      "t": 111199.99999999988,
      "d": 400,
      "v": 61
    },
    {
      "midi": 70,
      "hit": false,
      "t": 111199.99999999988,
      "d": 600,
      "v": 70
    },
    {
      "midi": 79,
      "hit": false,
      "t": 111199.99999999988,
      "d": 633.3333333333285,
      "v": 61
    },
    {
      "midi": 76,
      "hit": false,
      "t": 111199.99999999988,
      "d": 666.666666666657,
      "v": 68
    },
    {
      "midi": 60,
      "hit": false,
      "t": 111599.99999999988,
      "d": 341.66666666665697,
      "v": 57
    },
    {
      "midi": 67,
      "hit": false,
      "t": 111799.99999999988,
      "d": 166.66666666665697,
      "v": 52
    },
    {
      "midi": 67,
      "hit": false,
      "t": 111999.99999999987,
      "d": 33.33333333332848,
      "v": 45
    },
    {
      "midi": 69,
      "hit": false,
      "t": 111999.99999999987,
      "d": 466.6666666666715,
      "v": 65
    },
    {
      "midi": 72,
      "hit": false,
      "t": 111999.99999999987,
      "d": 533.333333333343,
      "v": 65
    },
    {
      "midi": 77,
      "hit": false,
      "t": 111999.99999999987,
      "d": 550.0000000000146,
      "v": 60
    },
    {
      "midi": 60,
      "hit": false,
      "t": 111999.99999999987,
      "d": 833.333333333343,
      "v": 45
    },
    {
      "midi": 53,
      "hit": false,
      "t": 111999.99999999987,
      "d": 1441.666666666686,
      "v": 47
    },
    {
      "midi": 65,
      "hit": false,
      "t": 112399.99999999987,
      "d": 300.00000000001455,
      "v": 54
    },
    {
      "midi": 65,
      "hit": false,
      "t": 112799.99999999988,
      "d": 400,
      "v": 60
    },
    {
      "midi": 69,
      "hit": false,
      "t": 112799.99999999988,
      "d": 600,
      "v": 63
    },
    {
      "midi": 77,
      "hit": false,
      "t": 112799.99999999988,
      "d": 766.6666666666715,
      "v": 55
    },
    {
      "midi": 72,
      "hit": false,
      "t": 112799.99999999988,
      "d": 775,
      "v": 57
    },
    {
      "midi": 60,
      "hit": false,
      "t": 113199.99999999988,
      "d": 200,
      "v": 57
    },
    {
      "midi": 65,
      "hit": false,
      "t": 113399.99999999988,
      "d": 166.66666666667152,
      "v": 60
    },
    {
      "midi": 65,
      "hit": false,
      "t": 113599.99999999988,
      "d": 216.66666666667152,
      "v": 54
    },
    {
      "midi": 70,
      "hit": false,
      "t": 113599.99999999988,
      "d": 466.6666666666715,
      "v": 55
    },
    {
      "midi": 74,
      "hit": false,
      "t": 113599.99999999988,
      "d": 550,
      "v": 55
    },
    {
      "midi": 77,
      "hit": false,
      "t": 113599.99999999988,
      "d": 583.3333333333285,
      "v": 45
    },
    {
      "midi": 58,
      "hit": false,
      "t": 113599.99999999988,
      "d": 833.3333333333139,
      "v": 55
    },
    {
      "midi": 46,
      "hit": false,
      "t": 113599.99999999988,
      "d": 1191.6666666666424,
      "v": 55
    },
    {
      "midi": 65,
      "hit": false,
      "t": 113999.99999999988,
      "d": 216.66666666665697,
      "v": 47
    },
    {
      "midi": 65,
      "hit": false,
      "t": 114399.99999999987,
      "d": 383.3333333333285,
      "v": 60
    },
    {
      "midi": 70,
      "hit": false,
      "t": 114399.99999999987,
      "d": 466.66666666665697,
      "v": 57
    },
    {
      "midi": 74,
      "hit": false,
      "t": 114399.99999999987,
      "d": 499.99999999998545,
      "v": 56
    },
    {
      "midi": 77,
      "hit": false,
      "t": 114399.99999999987,
      "d": 599.9999999999854,
      "v": 55
    },
    {
      "midi": 58,
      "hit": false,
      "t": 114799.99999999985,
      "d": 100,
      "v": 55
    },
    {
      "midi": 67,
      "hit": false,
      "t": 115199.99999999985,
      "d": 283.3333333333285,
      "v": 51
    },
    {
      "midi": 70,
      "hit": false,
      "t": 115199.99999999985,
      "d": 400,
      "v": 57
    },
    {
      "midi": 74,
      "hit": false,
      "t": 115199.99999999985,
      "d": 508.3333333333285,
      "v": 56
    },
    {
      "midi": 77,
      "hit": false,
      "t": 115199.99999999985,
      "d": 575,
      "v": 57
    },
    {
      "midi": 64,
      "hit": false,
      "t": 115199.99999999985,
      "d": 866.6666666666715,
      "v": 52
    },
    {
      "midi": 52,
      "hit": false,
      "t": 115199.99999999985,
      "d": 1400.0000000000146,
      "v": 51
    },
    {
      "midi": 67,
      "hit": false,
      "t": 115599.99999999985,
      "d": 250,
      "v": 45
    },
    {
      "midi": 67,
      "hit": false,
      "t": 115999.99999999985,
      "d": 333.33333333334303,
      "v": 61
    },
    {
      "midi": 74,
      "hit": false,
      "t": 115999.99999999985,
      "d": 500.00000000001455,
      "v": 57
    },
    {
      "midi": 70,
      "hit": false,
      "t": 115999.99999999985,
      "d": 716.6666666666861,
      "v": 61
    },
    {
      "midi": 77,
      "hit": false,
      "t": 115999.99999999985,
      "d": 833.333333333343,
      "v": 57
    },
    {
      "midi": 64,
      "hit": false,
      "t": 116399.99999999987,
      "d": 116.66666666667152,
      "v": 50
    },
    {
      "midi": 67,
      "hit": false,
      "t": 116599.99999999987,
      "d": 166.66666666667152,
      "v": 43
    },
    {
      "midi": 70,
      "hit": false,
      "t": 116799.99999999987,
      "d": 8.333333333328483,
      "v": 46
    },
    {
      "midi": 67,
      "hit": false,
      "t": 116799.99999999987,
      "d": 216.66666666665697,
      "v": 55
    },
    {
      "midi": 73,
      "hit": false,
      "t": 116799.99999999987,
      "d": 483.33333333331393,
      "v": 59
    },
    {
      "midi": 76,
      "hit": false,
      "t": 116799.99999999987,
      "d": 574.9999999999854,
      "v": 56
    },
    {
      "midi": 57,
      "hit": false,
      "t": 116799.99999999987,
      "d": 866.666666666657,
      "v": 54
    },
    {
      "midi": 45,
      "hit": false,
      "t": 116799.99999999987,
      "d": 1250,
      "v": 51
    },
    {
      "midi": 67,
      "hit": false,
      "t": 117199.99999999985,
      "d": 283.3333333333285,
      "v": 47
    },
    {
      "midi": 67,
      "hit": false,
      "t": 117599.99999999985,
      "d": 308.33333333334303,
      "v": 52
    },
    {
      "midi": 76,
      "hit": false,
      "t": 117599.99999999985,
      "d": 466.66666666668607,
      "v": 56
    },
    {
      "midi": 73,
      "hit": false,
      "t": 117599.99999999985,
      "d": 541.6666666666861,
      "v": 55
    },
    {
      "midi": 69,
      "hit": false,
      "t": 117599.99999999985,
      "d": 683.3333333333576,
      "v": 61
    },
    {
      "midi": 67,
      "hit": false,
      "t": 117999.99999999987,
      "d": 50,
      "v": 28
    },
    {
      "midi": 57,
      "hit": false,
      "t": 117999.99999999987,
      "d": 116.66666666667152,
      "v": 57
    },
    {
      "midi": 65,
      "hit": false,
      "t": 118399.99999999988,
      "d": 166.66666666667152,
      "v": 55
    },
    {
      "midi": 69,
      "hit": false,
      "t": 118399.99999999988,
      "d": 566.6666666666715,
      "v": 60
    },
    {
      "midi": 74,
      "hit": false,
      "t": 118399.99999999988,
      "d": 575,
      "v": 56
    },
    {
      "midi": 77,
      "hit": false,
      "t": 118399.99999999988,
      "d": 608.3333333333285,
      "v": 55
    },
    {
      "midi": 62,
      "hit": false,
      "t": 118399.99999999988,
      "d": 899.9999999999854,
      "v": 56
    },
    {
      "midi": 50,
      "hit": false,
      "t": 118399.99999999988,
      "d": 3100,
      "v": 52
    },
    {
      "midi": 65,
      "hit": false,
      "t": 118799.99999999988,
      "d": 216.66666666665697,
      "v": 50
    },
    {
      "midi": 65,
      "hit": false,
      "t": 119199.99999999987,
      "d": 316.6666666666715,
      "v": 55
    },
    {
      "midi": 69,
      "hit": false,
      "t": 119199.99999999987,
      "d": 533.3333333333285,
      "v": 56
    },
    {
      "midi": 77,
      "hit": false,
      "t": 119199.99999999987,
      "d": 533.3333333333285,
      "v": 56
    },
    {
      "midi": 74,
      "hit": false,
      "t": 119199.99999999987,
      "d": 558.3333333333285,
      "v": 57
    },
    {
      "midi": 62,
      "hit": false,
      "t": 119599.99999999987,
      "d": 991.6666666666715,
      "v": 60
    },
    {
      "midi": 69,
      "hit": false,
      "t": 119999.99999999987,
      "d": 225,
      "v": 65
    },
    {
      "midi": 77,
      "hit": false,
      "t": 119999.99999999987,
      "d": 366.6666666666715,
      "v": 63
    },
    {
      "midi": 65,
      "hit": false,
      "t": 119999.99999999987,
      "d": 633.3333333333285,
      "v": 61
    },
    {
      "midi": 76,
      "hit": false,
      "t": 120199.99999999987,
      "d": 750,
      "v": 55
    },
    {
      "midi": 74,
      "hit": false,
      "t": 120399.99999999987,
      "d": 566.6666666666715,
      "v": 60
    },
    {
      "midi": 69,
      "hit": false,
      "t": 120599.99999999987,
      "d": 450,
      "v": 60
    },
    {
      "midi": 65,
      "hit": false,
      "t": 120799.99999999987,
      "d": 766.6666666666861,
      "v": 60
    },
    {
      "midi": 62,
      "hit": false,
      "t": 120999.99999999987,
      "d": 441.6666666666715,
      "v": 68
    },
    {
      "midi": 67,
      "hit": false,
      "t": 121199.99999999987,
      "d": 258.33333333334303,
      "v": 66
    },
    {
      "midi": 69,
      "hit": false,
      "t": 121399.99999999987,
      "d": 100.00000000001455,
      "v": 60
    },
    {
      "midi": 65,
      "hit": false,
      "t": 121599.99999999988,
      "d": 300,
      "v": 52
    },
    {
      "midi": 70,
      "hit": false,
      "t": 121599.99999999988,
      "d": 633.3333333333285,
      "v": 70
    },
    {
      "midi": 43,
      "hit": false,
      "t": 121599.99999999988,
      "d": 1333.333333333314,
      "v": 65
    },
    {
      "midi": 65,
      "hit": false,
      "t": 121999.99999999988,
      "d": 266.66666666665697,
      "v": 29
    },
    {
      "midi": 55,
      "hit": false,
      "t": 121999.99999999988,
      "d": 499.99999999998545,
      "v": 54
    },
    {
      "midi": 65,
      "hit": false,
      "t": 122399.99999999987,
      "d": 341.6666666666715,
      "v": 65
    },
    {
      "midi": 67,
      "hit": false,
      "t": 122399.99999999987,
      "d": 558.3333333333285,
      "v": 70
    },
    {
      "midi": 70,
      "hit": false,
      "t": 122399.99999999987,
      "d": 750,
      "v": 67
    },
    {
      "midi": 55,
      "hit": false,
      "t": 122799.99999999987,
      "d": 250,
      "v": 60
    },
    {
      "midi": 65,
      "hit": false,
      "t": 122999.99999999987,
      "d": 133.33333333332848,
      "v": 49
    },
    {
      "midi": 64,
      "hit": false,
      "t": 123199.99999999987,
      "d": 233.33333333332848,
      "v": 60
    },
    {
      "midi": 67,
      "hit": false,
      "t": 123199.99999999987,
      "d": 466.6666666666715,
      "v": 61
    },
    {
      "midi": 72,
      "hit": false,
      "t": 123199.99999999987,
      "d": 516.6666666666715,
      "v": 57
    },
    {
      "midi": 60,
      "hit": false,
      "t": 123199.99999999987,
      "d": 866.6666666666861,
      "v": 57
    },
    {
      "midi": 48,
      "hit": false,
      "t": 123199.99999999987,
      "d": 1433.333333333343,
      "v": 52
    },
    {
      "midi": 64,
      "hit": false,
      "t": 123599.99999999987,
      "d": 283.33333333334303,
      "v": 54
    },
    {
      "midi": 67,
      "hit": false,
      "t": 123799.99999999987,
      "d": 66.66666666667152,
      "v": 27
    },
    {
      "midi": 64,
      "hit": false,
      "t": 123999.99999999988,
      "d": 300,
      "v": 61
    },
    {
      "midi": 67,
      "hit": false,
      "t": 123999.99999999988,
      "d": 575,
      "v": 65
    },
    {
      "midi": 72,
      "hit": false,
      "t": 123999.99999999988,
      "d": 733.3333333333285,
      "v": 63
    },
    {
      "midi": 60,
      "hit": false,
      "t": 124399.99999999988,
      "d": 308.3333333333285,
      "v": 56
    },
    {
      "midi": 64,
      "hit": false,
      "t": 124599.99999999988,
      "d": 150,
      "v": 50
    },
    {
      "midi": 64,
      "hit": false,
      "t": 124799.99999999988,
      "d": 283.3333333333285,
      "v": 60
    },
    {
      "midi": 72,
      "hit": false,
      "t": 124799.99999999988,
      "d": 550,
      "v": 61
    },
    {
      "midi": 69,
      "hit": false,
      "t": 124799.99999999988,
      "d": 666.6666666666715,
      "v": 56
    },
    {
      "midi": 60,
      "hit": false,
      "t": 124799.99999999988,
      "d": 833.3333333333285,
      "v": 51
    },
    {
      "midi": 53,
      "hit": false,
      "t": 124799.99999999988,
      "d": 1275,
      "v": 55
    },
    {
      "midi": 64,
      "hit": false,
      "t": 125199.99999999988,
      "d": 250,
      "v": 46
    },
    {
      "midi": 64,
      "hit": false,
      "t": 125599.99999999988,
      "d": 450,
      "v": 63
    },
    {
      "midi": 72,
      "hit": false,
      "t": 125599.99999999988,
      "d": 616.6666666666715,
      "v": 57
    },
    {
      "midi": 69,
      "hit": false,
      "t": 125599.99999999988,
      "d": 633.333333333343,
      "v": 55
    },
    {
      "midi": 60,
      "hit": false,
      "t": 125999.99999999988,
      "d": 183.33333333332848,
      "v": 57
    },
    {
      "midi": 62,
      "hit": false,
      "t": 126199.99999999988,
      "d": 141.66666666667152,
      "v": 47
    },
    {
      "midi": 62,
      "hit": false,
      "t": 126399.99999999988,
      "d": 258.3333333333285,
      "v": 50
    },
    {
      "midi": 72,
      "hit": false,
      "t": 126399.99999999988,
      "d": 541.6666666666715,
      "v": 57
    },
    {
      "midi": 65,
      "hit": false,
      "t": 126399.99999999988,
      "d": 666.6666666666715,
      "v": 60
    },
    {
      "midi": 58,
      "hit": false,
      "t": 126399.99999999988,
      "d": 883.3333333333285,
      "v": 60
    },
    {
      "midi": 46,
      "hit": false,
      "t": 126399.99999999988,
      "d": 1416.666666666657,
      "v": 50
    },
    {
      "midi": 62,
      "hit": false,
      "t": 126799.99999999988,
      "d": 291.6666666666715,
      "v": 49
    },
    {
      "midi": 62,
      "hit": false,
      "t": 127199.99999999988,
      "d": 241.66666666665697,
      "v": 54
    },
    {
      "midi": 70,
      "hit": false,
      "t": 127199.99999999988,
      "d": 516.666666666657,
      "v": 63
    },
    {
      "midi": 65,
      "hit": false,
      "t": 127199.99999999988,
      "d": 733.3333333333285,
      "v": 61
    },
    {
      "midi": 58,
      "hit": false,
      "t": 127599.99999999987,
      "d": 183.33333333334303,
      "v": 60
    },
    {
      "midi": 62,
      "hit": false,
      "t": 127599.99999999987,
      "d": 283.33333333334303,
      "v": 46
    },
    {
      "midi": 62,
      "hit": false,
      "t": 127999.99999999988,
      "d": 633.3333333333285,
      "v": 57
    },
    {
      "midi": 70,
      "hit": false,
      "t": 127999.99999999988,
      "d": 750,
      "v": 61
    },
    {
      "midi": 40,
      "hit": false,
      "t": 127999.99999999988,
      "d": 1366.6666666666715,
      "v": 57
    },
    {
      "midi": 55,
      "hit": false,
      "t": 128399.99999999988,
      "d": 633.3333333333285,
      "v": 50
    },
    {
      "midi": 62,
      "hit": false,
      "t": 128799.99999999988,
      "d": 658.333333333343,
      "v": 63
    },
    {
      "midi": 67,
      "hit": false,
      "t": 128799.99999999988,
      "d": 733.333333333343,
      "v": 60
    },
    {
      "midi": 55,
      "hit": false,
      "t": 129199.99999999988,
      "d": 233.33333333334303,
      "v": 46
    },
    {
      "midi": 61,
      "hit": false,
      "t": 129599.9999999999,
      "d": 316.6666666666715,
      "v": 55
    },
    {
      "midi": 64,
      "hit": false,
      "t": 129599.9999999999,
      "d": 483.3333333333285,
      "v": 60
    },
    {
      "midi": 57,
      "hit": false,
      "t": 129599.9999999999,
      "d": 849.9999999999854,
      "v": 57
    },
    {
      "midi": 45,
      "hit": false,
      "t": 129599.9999999999,
      "d": 1149.9999999999854,
      "v": 45
    },
    {
      "midi": 61,
      "hit": false,
      "t": 129999.9999999999,
      "d": 266.66666666665697,
      "v": 40
    },
    {
      "midi": 61,
      "hit": false,
      "t": 130399.99999999988,
      "d": 358.3333333333285,
      "v": 52
    },
    {
      "midi": 69,
      "hit": false,
      "t": 130399.99999999988,
      "d": 408.3333333333285,
      "v": 61
    },
    {
      "midi": 57,
      "hit": false,
      "t": 130799.99999999988,
      "d": 100,
      "v": 50
    },
    {
      "midi": 45,
      "hit": false,
      "t": 130799.99999999988,
      "d": 116.66666666667152,
      "v": 34
    },
    {
      "midi": 57,
      "hit": false,
      "t": 131199.99999999988,
      "d": 316.66666666665697,
      "v": 50
    },
    {
      "midi": 65,
      "hit": false,
      "t": 131199.99999999988,
      "d": 566.666666666657,
      "v": 57
    },
    {
      "midi": 62,
      "hit": false,
      "t": 131199.99999999988,
      "d": 583.3333333333139,
      "v": 60
    },
    {
      "midi": 38,
      "hit": false,
      "t": 131199.99999999988,
      "d": 3016.6666666665988,
      "v": 56
    },
    {
      "midi": 50,
      "hit": false,
      "t": 131599.99999999988,
      "d": 549.9999999999709,
      "v": 60
    },
    {
      "midi": 62,
      "hit": false,
      "t": 131999.99999999985,
      "d": 550,
      "v": 57
    },
    {
      "midi": 65,
      "hit": false,
      "t": 131999.99999999985,
      "d": 566.666666666657,
      "v": 56
    },
    {
      "midi": 57,
      "hit": false,
      "t": 131999.99999999985,
      "d": 733.3333333333139,
      "v": 52
    },
    {
      "midi": 50,
      "hit": false,
      "t": 132399.99999999985,
      "d": 508.33333333331393,
      "v": 50
    },
    {
      "midi": 62,
      "hit": false,
      "t": 132799.99999999983,
      "d": 566.666666666657,
      "v": 61
    },
    {
      "midi": 57,
      "hit": false,
      "t": 132799.99999999983,
      "d": 600,
      "v": 55
    },
    {
      "midi": 65,
      "hit": false,
      "t": 132799.99999999983,
      "d": 633.333333333343,
      "v": 55
    },
    {
      "midi": 50,
      "hit": false,
      "t": 133199.99999999983,
      "d": 516.666666666657,
      "v": 56
    },
    {
      "midi": 57,
      "hit": false,
      "t": 133599.99999999983,
      "d": 466.66666666665697,
      "v": 50
    },
    {
      "midi": 62,
      "hit": false,
      "t": 133599.99999999983,
      "d": 500,
      "v": 60
    },
    {
      "midi": 65,
      "hit": false,
      "t": 133599.99999999983,
      "d": 541.666666666657,
      "v": 55
    },
    {
      "midi": 50,
      "hit": false,
      "t": 133999.99999999983,
      "d": 141.66666666665697,
      "v": 50
    },
    {
      "midi": 67,
      "hit": false,
      "t": 134399.99999999983,
      "d": 466.66666666665697,
      "v": 47
    },
    {
      "midi": 70,
      "hit": false,
      "t": 134399.99999999983,
      "d": 566.666666666657,
      "v": 52
    },
    {
      "midi": 74,
      "hit": false,
      "t": 134399.99999999983,
      "d": 700,
      "v": 54
    },
    {
      "midi": 55,
      "hit": false,
      "t": 134399.99999999983,
      "d": 1316.666666666657,
      "v": 52
    },
    {
      "midi": 62,
      "hit": false,
      "t": 134599.99999999983,
      "d": 933.333333333343,
      "v": 47
    },
    {
      "midi": 65,
      "hit": false,
      "t": 134799.99999999983,
      "d": 566.666666666657,
      "v": 41
    },
    {
      "midi": 67,
      "hit": false,
      "t": 134999.99999999983,
      "d": 666.666666666657,
      "v": 51
    },
    {
      "midi": 70,
      "hit": false,
      "t": 135199.99999999983,
      "d": 1049.999999999971,
      "v": 65
    },
    {
      "midi": 74,
      "hit": false,
      "t": 135399.99999999983,
      "d": 524.9999999999709,
      "v": 63
    },
    {
      "midi": 65,
      "hit": false,
      "t": 135599.99999999983,
      "d": 216.66666666665697,
      "v": 46
    },
    {
      "midi": 62,
      "hit": false,
      "t": 135799.99999999983,
      "d": 108.33333333331393,
      "v": 51
    },
    {
      "midi": 67,
      "hit": false,
      "t": 135999.9999999998,
      "d": 433.33333333334303,
      "v": 46
    },
    {
      "midi": 48,
      "hit": false,
      "t": 135999.9999999998,
      "d": 1225,
      "v": 55
    },
    {
      "midi": 76,
      "hit": false,
      "t": 135999.9999999998,
      "d": 2283.333333333314,
      "v": 54
    },
    {
      "midi": 55,
      "hit": false,
      "t": 136199.9999999998,
      "d": 1100,
      "v": 46
    },
    {
      "midi": 60,
      "hit": false,
      "t": 136399.9999999998,
      "d": 491.66666666665697,
      "v": 51
    },
    {
      "midi": 64,
      "hit": false,
      "t": 136599.9999999998,
      "d": 458.33333333334303,
      "v": 56
    },
    {
      "midi": 67,
      "hit": false,
      "t": 136799.9999999998,
      "d": 566.666666666657,
      "v": 66
    },
    {
      "midi": 70,
      "hit": false,
      "t": 136999.9999999998,
      "d": 516.666666666657,
      "v": 52
    },
    {
      "midi": 60,
      "hit": false,
      "t": 137199.9999999998,
      "d": 266.66666666665697,
      "v": 46
    },
    {
      "midi": 64,
      "hit": false,
      "t": 137399.9999999998,
      "d": 233.33333333334303,
      "v": 57
    },
    {
      "midi": 69,
      "hit": false,
      "t": 137599.9999999998,
      "d": 566.666666666657,
      "v": 51
    },
    {
      "midi": 72,
      "hit": false,
      "t": 137599.9999999998,
      "d": 666.666666666657,
      "v": 54
    },
    {
      "midi": 53,
      "hit": false,
      "t": 137599.9999999998,
      "d": 1333.333333333314,
      "v": 43
    },
    {
      "midi": 60,
      "hit": false,
      "t": 137799.9999999998,
      "d": 983.3333333333139,
      "v": 45
    },
    {
      "midi": 65,
      "hit": false,
      "t": 137999.9999999998,
      "d": 533.3333333333139,
      "v": 50
    },
    {
      "midi": 67,
      "hit": false,
      "t": 138199.9999999998,
      "d": 599.9999999999709,
      "v": 56
    },
    {
      "midi": 69,
      "hit": false,
      "t": 138399.99999999977,
      "d": 766.6666666666861,
      "v": 70
    },
    {
      "midi": 72,
      "hit": false,
      "t": 138599.99999999977,
      "d": 566.6666666666861,
      "v": 65
    },
    {
      "midi": 65,
      "hit": false,
      "t": 138799.99999999977,
      "d": 191.66666666668607,
      "v": 52
    },
    {
      "midi": 60,
      "hit": false,
      "t": 138999.9999999998,
      "d": 91.66666666665697,
      "v": 49
    },
    {
      "midi": 70,
      "hit": false,
      "t": 139199.9999999998,
      "d": 500,
      "v": 47
    },
    {
      "midi": 46,
      "hit": false,
      "t": 139199.9999999998,
      "d": 1333.333333333343,
      "v": 55
    },
    {
      "midi": 74,
      "hit": false,
      "t": 139199.9999999998,
      "d": 1575.000000000029,
      "v": 47
    },
    {
      "midi": 53,
      "hit": false,
      "t": 139399.9999999998,
      "d": 1166.666666666686,
      "v": 43
    },
    {
      "midi": 58,
      "hit": false,
      "t": 139599.9999999998,
      "d": 416.66666666665697,
      "v": 59
    },
    {
      "midi": 62,
      "hit": false,
      "t": 139799.9999999998,
      "d": 633.333333333343,
      "v": 50
    },
    {
      "midi": 65,
      "hit": false,
      "t": 139999.9999999998,
      "d": 600.0000000000291,
      "v": 63
    },
    {
      "midi": 70,
      "hit": false,
      "t": 140199.9999999998,
      "d": 408.33333333337214,
      "v": 60
    },
    {
      "midi": 58,
      "hit": false,
      "t": 140399.9999999998,
      "d": 258.33333333337214,
      "v": 55
    },
    {
      "midi": 62,
      "hit": false,
      "t": 140599.99999999983,
      "d": 100,
      "v": 52
    },
    {
      "midi": 67,
      "hit": false,
      "t": 140799.99999999983,
      "d": 433.33333333334303,
      "v": 57
    },
    {
      "midi": 70,
      "hit": false,
      "t": 140799.99999999983,
      "d": 516.6666666666861,
      "v": 57
    },
    {
      "midi": 52,
      "hit": false,
      "t": 140799.99999999983,
      "d": 1250.000000000029,
      "v": 55
    },
    {
      "midi": 74,
      "hit": false,
      "t": 140799.99999999983,
      "d": 1433.3333333333721,
      "v": 50
    },
    {
      "midi": 64,
      "hit": false,
      "t": 141199.99999999983,
      "d": 441.66666666668607,
      "v": 52
    },
    {
      "midi": 67,
      "hit": false,
      "t": 141399.99999999985,
      "d": 366.66666666665697,
      "v": 60
    },
    {
      "midi": 58,
      "hit": false,
      "t": 141599.99999999985,
      "d": 458.33333333334303,
      "v": 65
    },
    {
      "midi": 64,
      "hit": false,
      "t": 141799.99999999985,
      "d": 508.33333333334303,
      "v": 55
    },
    {
      "midi": 67,
      "hit": false,
      "t": 141999.99999999985,
      "d": 383.33333333334303,
      "v": 61
    },
    {
      "midi": 70,
      "hit": false,
      "t": 142199.99999999985,
      "d": 166.66666666668607,
      "v": 46
    },
    {
      "midi": 45,
      "hit": false,
      "t": 142399.99999999985,
      "d": 166.66666666665697,
      "v": 47
    },
    {
      "midi": 64,
      "hit": false,
      "t": 142399.99999999985,
      "d": 400,
      "v": 50
    },
    {
      "midi": 67,
      "hit": false,
      "t": 142399.99999999985,
      "d": 533.333333333343,
      "v": 43
    },
    {
      "midi": 73,
      "hit": false,
      "t": 142399.99999999985,
      "d": 633.333333333343,
      "v": 60
    },
    {
      "midi": 57,
      "hit": false,
      "t": 142599.99999999985,
      "d": 733.333333333343,
      "v": 49
    },
    {
      "midi": 61,
      "hit": false,
      "t": 142799.99999999985,
      "d": 833.333333333343,
      "v": 57
    },
    {
      "midi": 64,
      "hit": false,
      "t": 142999.99999999985,
      "d": 591.666666666657,
      "v": 52
    },
    {
      "midi": 67,
      "hit": false,
      "t": 143199.99999999985,
      "d": 583.333333333343,
      "v": 66
    },
    {
      "midi": 73,
      "hit": false,
      "t": 143399.99999999985,
      "d": 483.33333333334303,
      "v": 67
    },
    {
      "midi": 57,
      "hit": false,
      "t": 143599.99999999985,
      "d": 208.33333333334303,
      "v": 44
    },
    {
      "midi": 64,
      "hit": false,
      "t": 143799.99999999985,
      "d": 300,
      "v": 56
    },
    {
      "midi": 50,
      "hit": false,
      "t": 143999.99999999985,
      "d": 1200,
      "v": 51
    },
    {
      "midi": 74,
      "hit": false,
      "t": 143999.99999999985,
      "d": 3166.666666666657,
      "v": 52
    },
    {
      "midi": 57,
      "hit": false,
      "t": 144199.99999999985,
      "d": 991.666666666657,
      "v": 50
    },
    {
      "midi": 62,
      "hit": false,
      "t": 144399.99999999985,
      "d": 600,
      "v": 61
    },
    {
      "midi": 64,
      "hit": false,
      "t": 144599.99999999985,
      "d": 700,
      "v": 56
    },
    {
      "midi": 65,
      "hit": false,
      "t": 144999.99999999985,
      "d": 1125,
      "v": 65
    },
    {
      "midi": 62,
      "hit": false,
      "t": 145199.99999999985,
      "d": 283.33333333334303,
      "v": 46
    },
    {
      "midi": 57,
      "hit": false,
      "t": 145399.99999999985,
      "d": 225,
      "v": 50
    },
    {
      "midi": 50,
      "hit": false,
      "t": 145599.99999999985,
      "d": 1200,
      "v": 46
    },
    {
      "midi": 57,
      "hit": false,
      "t": 145799.99999999985,
      "d": 1033.333333333343,
      "v": 47
    },
    {
      "midi": 62,
      "hit": false,
      "t": 145999.99999999985,
      "d": 575,
      "v": 54
    },
    {
      "midi": 64,
      "hit": false,
      "t": 146199.99999999985,
      "d": 1000,
      "v": 54
    },
    {
      "midi": 65,
      "hit": false,
      "t": 146599.99999999985,
      "d": 566.666666666657,
      "v": 54
    },
    {
      "midi": 62,
      "hit": false,
      "t": 146799.99999999985,
      "d": 266.66666666665697,
      "v": 46
    },
    {
      "midi": 57,
      "hit": false,
      "t": 146999.99999999985,
      "d": 166.66666666665697,
      "v": 46
    },
    {
      "midi": 74,
      "hit": false,
      "t": 147199.99999999985,
      "d": 516.666666666657,
      "v": 52
    },
    {
      "midi": 65,
      "hit": false,
      "t": 147199.99999999985,
      "d": 550,
      "v": 49
    },
    {
      "midi": 69,
      "hit": false,
      "t": 147199.99999999985,
      "d": 558.333333333343,
      "v": 50
    },
    {
      "midi": 50,
      "hit": false,
      "t": 147199.99999999985,
      "d": 1408.333333333343,
      "v": 47
    },
    {
      "midi": 57,
      "hit": false,
      "t": 147599.99999999985,
      "d": 750,
      "v": 46
    },
    {
      "midi": 74,
      "hit": false,
      "t": 147999.99999999985,
      "d": 666.6666666666861,
      "v": 49
    },
    {
      "midi": 65,
      "hit": false,
      "t": 147999.99999999985,
      "d": 700.0000000000291,
      "v": 54
    },
    {
      "midi": 69,
      "hit": false,
      "t": 147999.99999999985,
      "d": 733.3333333333721,
      "v": 52
    },
    {
      "midi": 62,
      "hit": false,
      "t": 148399.99999999985,
      "d": 233.33333333334303,
      "v": 41
    },
    {
      "midi": 57,
      "hit": false,
      "t": 148599.99999999985,
      "d": 241.66666666668607,
      "v": 40
    },
    {
      "midi": 69,
      "hit": false,
      "t": 148799.99999999988,
      "d": 408.33333333334303,
      "v": 46
    },
    {
      "midi": 74,
      "hit": false,
      "t": 148799.99999999988,
      "d": 566.6666666666861,
      "v": 50
    },
    {
      "midi": 65,
      "hit": false,
      "t": 148799.99999999988,
      "d": 600.0000000000291,
      "v": 46
    },
    {
      "midi": 48,
      "hit": false,
      "t": 148799.99999999988,
      "d": 1333.3333333333721,
      "v": 43
    },
    {
      "midi": 57,
      "hit": false,
      "t": 149199.99999999988,
      "d": 725.0000000000291,
      "v": 40
    },
    {
      "midi": 74,
      "hit": false,
      "t": 149599.9999999999,
      "d": 416.66666666665697,
      "v": 50
    },
    {
      "midi": 69,
      "hit": false,
      "t": 149599.9999999999,
      "d": 500,
      "v": 50
    },
    {
      "midi": 65,
      "hit": false,
      "t": 149599.9999999999,
      "d": 616.666666666657,
      "v": 51
    },
    {
      "midi": 62,
      "hit": false,
      "t": 149999.9999999999,
      "d": 183.33333333334303,
      "v": 41
    },
    {
      "midi": 57,
      "hit": false,
      "t": 150199.9999999999,
      "d": 133.33333333331393,
      "v": 41
    },
    {
      "midi": 69,
      "hit": false,
      "t": 150399.99999999988,
      "d": 600,
      "v": 47
    },
    {
      "midi": 62,
      "hit": false,
      "t": 150399.99999999988,
      "d": 608.333333333343,
      "v": 47
    },
    {
      "midi": 65,
      "hit": false,
      "t": 150399.99999999988,
      "d": 616.6666666666861,
      "v": 46
    },
    {
      "midi": 47,
      "hit": false,
      "t": 150399.99999999988,
      "d": 1600.000000000029,
      "v": 50
    },
    {
      "midi": 59,
      "hit": false,
      "t": 150799.99999999988,
      "d": 433.33333333337214,
      "v": 38
    },
    {
      "midi": 65,
      "hit": false,
      "t": 151199.9999999999,
      "d": 400,
      "v": 54
    },
    {
      "midi": 69,
      "hit": false,
      "t": 151199.9999999999,
      "d": 483.33333333334303,
      "v": 47
    },
    {
      "midi": 62,
      "hit": false,
      "t": 151199.9999999999,
      "d": 533.333333333343,
      "v": 47
    },
    {
      "midi": 59,
      "hit": false,
      "t": 151599.9999999999,
      "d": 283.33333333334303,
      "v": 41
    },
    {
      "midi": 61,
      "hit": false,
      "t": 151999.9999999999,
      "d": 433.33333333334303,
      "v": 46
    },
    {
      "midi": 69,
      "hit": false,
      "t": 151999.9999999999,
      "d": 733.333333333343,
      "v": 47
    },
    {
      "midi": 46,
      "hit": false,
      "t": 151999.9999999999,
      "d": 816.666666666657,
      "v": 34
    },
    {
      "midi": 58,
      "hit": false,
      "t": 152399.9999999999,
      "d": 350,
      "v": 49
    },
    {
      "midi": 61,
      "hit": false,
      "t": 152599.9999999999,
      "d": 625,
      "v": 40
    },
    {
      "midi": 45,
      "hit": false,
      "t": 152799.9999999999,
      "d": 600,
      "v": 46
    },
    {
      "midi": 67,
      "hit": false,
      "t": 152799.9999999999,
      "d": 833.333333333343,
      "v": 52
    },
    {
      "midi": 57,
      "hit": false,
      "t": 153199.9999999999,
      "d": 300,
      "v": 44
    },
    {
      "midi": 61,
      "hit": false,
      "t": 153399.9999999999,
      "d": 166.66666666665697,
      "v": 43
    },
    {
      "midi": 65,
      "hit": false,
      "t": 153599.9999999999,
      "d": 500,
      "v": 52
    },
    {
      "midi": 50,
      "hit": false,
      "t": 153599.9999999999,
      "d": 2866.666666666715,
      "v": 46
    },
    {
      "midi": 57,
      "hit": false,
      "t": 153999.9999999999,
      "d": 1091.666666666686,
      "v": 41
    },
    {
      "midi": 62,
      "hit": false,
      "t": 154199.9999999999,
      "d": 425,
      "v": 49
    },
    {
      "midi": 65,
      "hit": false,
      "t": 154399.9999999999,
      "d": 500,
      "v": 46
    },
    {
      "midi": 74,
      "hit": false,
      "t": 154399.9999999999,
      "d": 558.333333333343,
      "v": 38
    },
    {
      "midi": 62,
      "hit": false,
      "t": 154799.9999999999,
      "d": 266.66666666668607,
      "v": 41
    },
    {
      "midi": 74,
      "hit": false,
      "t": 155199.99999999994,
      "d": 666.666666666657,
      "v": 52
    },
    {
      "midi": 65,
      "hit": false,
      "t": 155199.99999999994,
      "d": 691.666666666657,
      "v": 50
    },
    {
      "midi": 57,
      "hit": false,
      "t": 155599.99999999994,
      "d": 583.333333333343,
      "v": 41
    },
    {
      "midi": 65,
      "hit": false,
      "t": 155999.99999999994,
      "d": 300,
      "v": 51
    },
    {
      "midi": 74,
      "hit": false,
      "t": 155999.99999999994,
      "d": 458.33333333334303,
      "v": 54
    },
    {
      "midi": 69,
      "hit": false,
      "t": 155999.99999999994,
      "d": 483.33333333334303,
      "v": 55
    },
    {
      "midi": 62,
      "hit": false,
      "t": 156199.99999999994,
      "d": 300,
      "v": 47
    },
    {
      "midi": 57,
      "hit": false,
      "t": 156399.99999999994,
      "d": 333.33333333331393,
      "v": 45
    },
    {
      "midi": 65,
      "hit": false,
      "t": 156599.99999999994,
      "d": 66.66666666665697,
      "v": 28
    },
    {
      "midi": 63,
      "hit": false,
      "t": 156799.9999999999,
      "d": 366.66666666665697,
      "v": 46
    },
    {
      "midi": 69,
      "hit": false,
      "t": 156799.9999999999,
      "d": 466.66666666665697,
      "v": 57
    },
    {
      "midi": 48,
      "hit": false,
      "t": 156799.9999999999,
      "d": 2000,
      "v": 46
    },
    {
      "midi": 60,
      "hit": false,
      "t": 157199.9999999999,
      "d": 500,
      "v": 45
    },
    {
      "midi": 63,
      "hit": false,
      "t": 157399.9999999999,
      "d": 100,
      "v": 28
    },
    {
      "midi": 63,
      "hit": false,
      "t": 157599.9999999999,
      "d": 383.33333333334303,
      "v": 50
    },
    {
      "midi": 69,
      "hit": false,
      "t": 157599.9999999999,
      "d": 533.333333333343,
      "v": 57
    },
    {
      "midi": 75,
      "hit": false,
      "t": 157599.9999999999,
      "d": 550,
      "v": 57
    },
    {
      "midi": 60,
      "hit": false,
      "t": 157999.9999999999,
      "d": 966.666666666657,
      "v": 46
    },
    {
      "midi": 63,
      "hit": false,
      "t": 158199.9999999999,
      "d": 866.666666666657,
      "v": 47
    },
    {
      "midi": 69,
      "hit": false,
      "t": 158399.9999999999,
      "d": 650,
      "v": 54
    },
    {
      "midi": 75,
      "hit": false,
      "t": 158799.9999999999,
      "d": 250,
      "v": 66
    },
    {
      "midi": 50,
      "hit": false,
      "t": 158999.9999999999,
      "d": 866.666666666657,
      "v": 47
    },
    {
      "midi": 62,
      "hit": false,
      "t": 159199.9999999999,
      "d": 116.66666666665697,
      "v": 46
    },
    {
      "midi": 74,
      "hit": false,
      "t": 159199.9999999999,
      "d": 341.66666666665697,
      "v": 55
    },
    {
      "midi": 69,
      "hit": false,
      "t": 159199.9999999999,
      "d": 683.3333333333139,
      "v": 54
    },
    {
      "midi": 66,
      "hit": false,
      "t": 159199.9999999999,
      "d": 716.666666666657,
      "v": 52
    },
    {
      "midi": 62,
      "hit": false,
      "t": 159599.9999999999,
      "d": 100,
      "v": 18
    },
    {
      "midi": 72,
      "hit": false,
      "t": 159599.9999999999,
      "d": 241.66666666665697,
      "v": 49
    },
    {
      "midi": 41,
      "hit": false,
      "t": 159999.9999999999,
      "d": 100,
      "v": 49
    },
    {
      "midi": 62,
      "hit": false,
      "t": 159999.9999999999,
      "d": 641.666666666657,
      "v": 40
    },
    {
      "midi": 70,
      "hit": false,
      "t": 159999.9999999999,
      "d": 850,
      "v": 55
    },
    {
      "midi": 43,
      "hit": false,
      "t": 159999.9999999999,
      "d": 1341.666666666686,
      "v": 45
    },
    {
      "midi": 50,
      "hit": false,
      "t": 160399.9999999999,
      "d": 650,
      "v": 47
    },
    {
      "midi": 58,
      "hit": false,
      "t": 160599.9999999999,
      "d": 575,
      "v": 45
    },
    {
      "midi": 62,
      "hit": false,
      "t": 160799.9999999999,
      "d": 533.333333333343,
      "v": 55
    },
    {
      "midi": 67,
      "hit": false,
      "t": 160999.9999999999,
      "d": 533.333333333343,
      "v": 52
    },
    {
      "midi": 70,
      "hit": false,
      "t": 161199.9999999999,
      "d": 266.66666666668607,
      "v": 63
    },
    {
      "midi": 62,
      "hit": false,
      "t": 161399.99999999994,
      "d": 41.666666666656965,
      "v": 31
    },
    {
      "midi": 58,
      "hit": false,
      "t": 161399.99999999994,
      "d": 66.66666666665697,
      "v": 52
    },
    {
      "midi": 50,
      "hit": false,
      "t": 161399.99999999994,
      "d": 116.66666666665697,
      "v": 49
    },
    {
      "midi": 62,
      "hit": false,
      "t": 161599.9999999999,
      "d": 266.66666666665697,
      "v": 47
    },
    {
      "midi": 70,
      "hit": false,
      "t": 161599.9999999999,
      "d": 500,
      "v": 55
    },
    {
      "midi": 67,
      "hit": false,
      "t": 161599.9999999999,
      "d": 675,
      "v": 51
    },
    {
      "midi": 48,
      "hit": false,
      "t": 161599.9999999999,
      "d": 1266.666666666657,
      "v": 52
    },
    {
      "midi": 62,
      "hit": false,
      "t": 161999.9999999999,
      "d": 133.33333333334303,
      "v": 34
    },
    {
      "midi": 60,
      "hit": false,
      "t": 161999.9999999999,
      "d": 416.66666666665697,
      "v": 41
    },
    {
      "midi": 64,
      "hit": false,
      "t": 162399.9999999999,
      "d": 266.66666666665697,
      "v": 46
    },
    {
      "midi": 67,
      "hit": false,
      "t": 162399.9999999999,
      "d": 400,
      "v": 52
    },
    {
      "midi": 72,
      "hit": false,
      "t": 162399.9999999999,
      "d": 850,
      "v": 52
    },
    {
      "midi": 60,
      "hit": false,
      "t": 162799.9999999999,
      "d": 66.66666666665697,
      "v": 38
    },
    {
      "midi": 64,
      "hit": false,
      "t": 162799.9999999999,
      "d": 458.33333333334303,
      "v": 39
    },
    {
      "midi": 67,
      "hit": false,
      "t": 163199.9999999999,
      "d": 100,
      "v": 46
    },
    {
      "midi": 65,
      "hit": false,
      "t": 163199.9999999999,
      "d": 766.666666666657,
      "v": 51
    },
    {
      "midi": 69,
      "hit": false,
      "t": 163199.9999999999,
      "d": 850,
      "v": 43
    },
    {
      "midi": 41,
      "hit": false,
      "t": 163199.9999999999,
      "d": 1250,
      "v": 31
    },
    {
      "midi": 48,
      "hit": false,
      "t": 163599.9999999999,
      "d": 1033.333333333343,
      "v": 29
    },
    {
      "midi": 57,
      "hit": false,
      "t": 163799.9999999999,
      "d": 533.333333333343,
      "v": 40
    },
    {
      "midi": 60,
      "hit": false,
      "t": 163999.9999999999,
      "d": 733.333333333343,
      "v": 47
    },
    {
      "midi": 65,
      "hit": false,
      "t": 164199.9999999999,
      "d": 500,
      "v": 70
    },
    {
      "midi": 67,
      "hit": false,
      "t": 164399.9999999999,
      "d": 366.66666666668607,
      "v": 61
    },
    {
      "midi": 57,
      "hit": false,
      "t": 164599.9999999999,
      "d": 133.33333333334303,
      "v": 41
    },
    {
      "midi": 69,
      "hit": false,
      "t": 164599.9999999999,
      "d": 166.66666666668607,
      "v": 50
    },
    {
      "midi": 65,
      "hit": false,
      "t": 164799.99999999994,
      "d": 525,
      "v": 55
    },
    {
      "midi": 62,
      "hit": false,
      "t": 164799.99999999994,
      "d": 650,
      "v": 50
    },
    {
      "midi": 69,
      "hit": false,
      "t": 164799.99999999994,
      "d": 650,
      "v": 43
    },
    {
      "midi": 46,
      "hit": false,
      "t": 164799.99999999994,
      "d": 1383.333333333343,
      "v": 41
    },
    {
      "midi": 53,
      "hit": false,
      "t": 165199.99999999994,
      "d": 708.333333333343,
      "v": 23
    },
    {
      "midi": 62,
      "hit": false,
      "t": 165599.99999999994,
      "d": 458.33333333334303,
      "v": 50
    },
    {
      "midi": 69,
      "hit": false,
      "t": 165599.99999999994,
      "d": 725.0000000000291,
      "v": 52
    },
    {
      "midi": 58,
      "hit": false,
      "t": 165999.99999999994,
      "d": 208.33333333334303,
      "v": 41
    },
    {
      "midi": 53,
      "hit": false,
      "t": 166199.99999999994,
      "d": 66.66666666668607,
      "v": 27
    },
    {
      "midi": 58,
      "hit": false,
      "t": 166399.99999999997,
      "d": 375,
      "v": 46
    },
    {
      "midi": 62,
      "hit": false,
      "t": 166399.99999999997,
      "d": 466.66666666665697,
      "v": 56
    },
    {
      "midi": 67,
      "hit": false,
      "t": 166399.99999999997,
      "d": 633.3333333333139,
      "v": 50
    },
    {
      "midi": 43,
      "hit": false,
      "t": 166399.99999999997,
      "d": 1283.333333333343,
      "v": 54
    },
    {
      "midi": 55,
      "hit": false,
      "t": 166799.99999999997,
      "d": 433.33333333331393,
      "v": 39
    },
    {
      "midi": 58,
      "hit": false,
      "t": 167199.99999999994,
      "d": 216.66666666668607,
      "v": 46
    },
    {
      "midi": 62,
      "hit": false,
      "t": 167199.99999999994,
      "d": 566.6666666667152,
      "v": 60
    },
    {
      "midi": 67,
      "hit": false,
      "t": 167199.99999999994,
      "d": 866.6666666667443,
      "v": 55
    },
    {
      "midi": 55,
      "hit": false,
      "t": 167599.99999999997,
      "d": 291.66666666668607,
      "v": 43
    },
    {
      "midi": 58,
      "hit": false,
      "t": 167800,
      "d": 233.33333333334303,
      "v": 50
    },
    {
      "midi": 62,
      "hit": false,
      "t": 168000,
      "d": 533.333333333343,
      "v": 55
    },
    {
      "midi": 65,
      "hit": false,
      "t": 168000,
      "d": 600,
      "v": 55
    },
    {
      "midi": 45,
      "hit": false,
      "t": 168000,
      "d": 1291.666666666657,
      "v": 41
    },
    {
      "midi": 57,
      "hit": false,
      "t": 168400.00000000003,
      "d": 116.66666666665697,
      "v": 38
    },
    {
      "midi": 57,
      "hit": false,
      "t": 168800,
      "d": 316.66666666665697,
      "v": 46
    },
    {
      "midi": 62,
      "hit": false,
      "t": 168800,
      "d": 450,
      "v": 52
    },
    {
      "midi": 65,
      "hit": false,
      "t": 168800,
      "d": 616.666666666657,
      "v": 52
    },
    {
      "midi": 69,
      "hit": false,
      "t": 168800,
      "d": 716.666666666657,
      "v": 50
    },
    {
      "midi": 57,
      "hit": false,
      "t": 169200,
      "d": 333.33333333331393,
      "v": 46
    },
    {
      "midi": 45,
      "hit": false,
      "t": 169400,
      "d": 1099.999999999971,
      "v": 46
    },
    {
      "midi": 57,
      "hit": false,
      "t": 169599.99999999997,
      "d": 258.33333333334303,
      "v": 41
    },
    {
      "midi": 64,
      "hit": false,
      "t": 169599.99999999997,
      "d": 466.66666666665697,
      "v": 50
    },
    {
      "midi": 61,
      "hit": false,
      "t": 169599.99999999997,
      "d": 500,
      "v": 45
    },
    {
      "midi": 69,
      "hit": false,
      "t": 169599.99999999997,
      "d": 600,
      "v": 46
    },
    {
      "midi": 57,
      "hit": false,
      "t": 169999.99999999997,
      "d": 275,
      "v": 45
    },
    {
      "midi": 61,
      "hit": false,
      "t": 170399.99999999997,
      "d": 416.66666666665697,
      "v": 50
    },
    {
      "midi": 57,
      "hit": false,
      "t": 170399.99999999997,
      "d": 600,
      "v": 51
    },
    {
      "midi": 64,
      "hit": false,
      "t": 170399.99999999997,
      "d": 600,
      "v": 51
    },
    {
      "midi": 69,
      "hit": false,
      "t": 170399.99999999997,
      "d": 633.333333333343,
      "v": 55
    },
    {
      "midi": 45,
      "hit": false,
      "t": 170799.99999999997,
      "d": 350,
      "v": 40
    },
    {
      "midi": 57,
      "hit": false,
      "t": 171199.99999999997,
      "d": 458.33333333334303,
      "v": 50
    },
    {
      "midi": 65,
      "hit": false,
      "t": 171199.99999999997,
      "d": 583.333333333343,
      "v": 50
    },
    {
      "midi": 69,
      "hit": false,
      "t": 171199.99999999997,
      "d": 591.6666666666861,
      "v": 46
    },
    {
      "midi": 62,
      "hit": false,
      "t": 171199.99999999997,
      "d": 616.6666666666861,
      "v": 52
    },
    {
      "midi": 50,
      "hit": false,
      "t": 171399.99999999997,
      "d": 841.6666666667152,
      "v": 52
    },
    {
      "midi": 53,
      "hit": false,
      "t": 171599.99999999997,
      "d": 633.3333333333721,
      "v": 61
    },
    {
      "midi": 57,
      "hit": false,
      "t": 171800,
      "d": 900.0000000000291,
      "v": 61
    },
    {
      "midi": 62,
      "hit": false,
      "t": 172000,
      "d": 766.6666666667152,
      "v": 68
    },
    {
      "midi": 65,
      "hit": false,
      "t": 172200,
      "d": 558.3333333333721,
      "v": 63
    },
    {
      "midi": 69,
      "hit": false,
      "t": 172400.00000000003,
      "d": 350,
      "v": 68
    },
    {
      "midi": 74,
      "hit": false,
      "t": 172600.00000000003,
      "d": 133.33333333334303,
      "v": 61
    },
    {
      "midi": 70,
      "hit": false,
      "t": 172800.00000000006,
      "d": 475,
      "v": 70
    },
    {
      "midi": 67,
      "hit": false,
      "t": 172800.00000000006,
      "d": 500,
      "v": 61
    },
    {
      "midi": 79,
      "hit": false,
      "t": 172800.00000000006,
      "d": 516.666666666657,
      "v": 60
    },
    {
      "midi": 55,
      "hit": false,
      "t": 172800.00000000006,
      "d": 1399.999999999971,
      "v": 63
    },
    {
      "midi": 62,
      "hit": false,
      "t": 173200.00000000006,
      "d": 441.66666666665697,
      "v": 52
    },
    {
      "midi": 67,
      "hit": false,
      "t": 173600.00000000006,
      "d": 216.66666666665697,
      "v": 66
    },
    {
      "midi": 70,
      "hit": false,
      "t": 173600.00000000006,
      "d": 383.33333333331393,
      "v": 70
    },
    {
      "midi": 79,
      "hit": false,
      "t": 173600.00000000006,
      "d": 699.9999999999709,
      "v": 63
    },
    {
      "midi": 62,
      "hit": false,
      "t": 173800.00000000006,
      "d": 408.33333333331393,
      "v": 61
    },
    {
      "midi": 67,
      "hit": false,
      "t": 174000.00000000003,
      "d": 316.66666666665697,
      "v": 57
    },
    {
      "midi": 70,
      "hit": false,
      "t": 174200.00000000003,
      "d": 125,
      "v": 55
    },
    {
      "midi": 70,
      "hit": false,
      "t": 174400.00000000003,
      "d": 483.33333333334303,
      "v": 66
    },
    {
      "midi": 76,
      "hit": false,
      "t": 174400.00000000003,
      "d": 525,
      "v": 60
    },
    {
      "midi": 79,
      "hit": false,
      "t": 174400.00000000003,
      "d": 625,
      "v": 55
    },
    {
      "midi": 67,
      "hit": false,
      "t": 174400.00000000003,
      "d": 633.333333333343,
      "v": 55
    },
    {
      "midi": 48,
      "hit": false,
      "t": 174400.00000000003,
      "d": 1558.333333333343,
      "v": 65
    },
    {
      "midi": 60,
      "hit": false,
      "t": 174800.00000000003,
      "d": 516.666666666657,
      "v": 52
    },
    {
      "midi": 67,
      "hit": false,
      "t": 175200.00000000003,
      "d": 400,
      "v": 61
    },
    {
      "midi": 70,
      "hit": false,
      "t": 175200.00000000003,
      "d": 600,
      "v": 70
    },
    {
      "midi": 79,
      "hit": false,
      "t": 175200.00000000003,
      "d": 633.333333333343,
      "v": 61
    },
    {
      "midi": 76,
      "hit": false,
      "t": 175200.00000000003,
      "d": 666.6666666666861,
      "v": 68
    },
    {
      "midi": 60,
      "hit": false,
      "t": 175600.00000000003,
      "d": 341.66666666668607,
      "v": 57
    },
    {
      "midi": 67,
      "hit": false,
      "t": 175800.00000000003,
      "d": 166.66666666668607,
      "v": 52
    },
    {
      "midi": 67,
      "hit": false,
      "t": 176000.00000000006,
      "d": 33.333333333343035,
      "v": 45
    },
    {
      "midi": 69,
      "hit": false,
      "t": 176000.00000000006,
      "d": 466.66666666665697,
      "v": 65
    },
    {
      "midi": 72,
      "hit": false,
      "t": 176000.00000000006,
      "d": 533.3333333333139,
      "v": 65
    },
    {
      "midi": 77,
      "hit": false,
      "t": 176000.00000000006,
      "d": 549.9999999999709,
      "v": 60
    },
    {
      "midi": 60,
      "hit": false,
      "t": 176000.00000000006,
      "d": 833.3333333333139,
      "v": 45
    },
    {
      "midi": 53,
      "hit": false,
      "t": 176000.00000000006,
      "d": 1441.6666666666279,
      "v": 47
    },
    {
      "midi": 65,
      "hit": false,
      "t": 176400.00000000006,
      "d": 299.9999999999709,
      "v": 54
    },
    {
      "midi": 65,
      "hit": false,
      "t": 176800.00000000003,
      "d": 400,
      "v": 60
    },
    {
      "midi": 69,
      "hit": false,
      "t": 176800.00000000003,
      "d": 600,
      "v": 63
    },
    {
      "midi": 77,
      "hit": false,
      "t": 176800.00000000003,
      "d": 766.666666666657,
      "v": 55
    },
    {
      "midi": 72,
      "hit": false,
      "t": 176800.00000000003,
      "d": 775,
      "v": 57
    },
    {
      "midi": 60,
      "hit": false,
      "t": 177200.00000000003,
      "d": 200,
      "v": 57
    },
    {
      "midi": 65,
      "hit": false,
      "t": 177400.00000000003,
      "d": 166.66666666665697,
      "v": 60
    },
    {
      "midi": 65,
      "hit": false,
      "t": 177600.00000000003,
      "d": 216.66666666665697,
      "v": 54
    },
    {
      "midi": 70,
      "hit": false,
      "t": 177600.00000000003,
      "d": 466.66666666665697,
      "v": 55
    },
    {
      "midi": 74,
      "hit": false,
      "t": 177600.00000000003,
      "d": 550,
      "v": 55
    },
    {
      "midi": 77,
      "hit": false,
      "t": 177600.00000000003,
      "d": 583.333333333343,
      "v": 45
    },
    {
      "midi": 58,
      "hit": false,
      "t": 177600.00000000003,
      "d": 833.3333333333721,
      "v": 55
    },
    {
      "midi": 46,
      "hit": false,
      "t": 177600.00000000003,
      "d": 1191.6666666667152,
      "v": 55
    },
    {
      "midi": 65,
      "hit": false,
      "t": 178000.00000000003,
      "d": 216.66666666668607,
      "v": 47
    },
    {
      "midi": 65,
      "hit": false,
      "t": 178400.00000000006,
      "d": 383.33333333334303,
      "v": 60
    },
    {
      "midi": 70,
      "hit": false,
      "t": 178400.00000000006,
      "d": 466.66666666668607,
      "v": 57
    },
    {
      "midi": 74,
      "hit": false,
      "t": 178400.00000000006,
      "d": 500.0000000000291,
      "v": 56
    },
    {
      "midi": 77,
      "hit": false,
      "t": 178400.00000000006,
      "d": 600.0000000000291,
      "v": 55
    },
    {
      "midi": 58,
      "hit": false,
      "t": 178800.0000000001,
      "d": 100,
      "v": 55
    },
    {
      "midi": 67,
      "hit": false,
      "t": 179200.0000000001,
      "d": 283.33333333334303,
      "v": 51
    },
    {
      "midi": 70,
      "hit": false,
      "t": 179200.0000000001,
      "d": 400,
      "v": 57
    },
    {
      "midi": 74,
      "hit": false,
      "t": 179200.0000000001,
      "d": 508.33333333334303,
      "v": 56
    },
    {
      "midi": 77,
      "hit": false,
      "t": 179200.0000000001,
      "d": 575,
      "v": 57
    },
    {
      "midi": 64,
      "hit": false,
      "t": 179200.0000000001,
      "d": 866.666666666657,
      "v": 52
    },
    {
      "midi": 52,
      "hit": false,
      "t": 179200.0000000001,
      "d": 1399.999999999971,
      "v": 51
    },
    {
      "midi": 67,
      "hit": false,
      "t": 179600.0000000001,
      "d": 250,
      "v": 45
    },
    {
      "midi": 67,
      "hit": false,
      "t": 180000.0000000001,
      "d": 333.33333333331393,
      "v": 61
    },
    {
      "midi": 74,
      "hit": false,
      "t": 180000.0000000001,
      "d": 499.9999999999709,
      "v": 57
    },
    {
      "midi": 70,
      "hit": false,
      "t": 180000.0000000001,
      "d": 716.6666666666279,
      "v": 61
    },
    {
      "midi": 77,
      "hit": false,
      "t": 180000.0000000001,
      "d": 833.3333333333139,
      "v": 57
    },
    {
      "midi": 64,
      "hit": false,
      "t": 180400.00000000006,
      "d": 116.66666666665697,
      "v": 50
    },
    {
      "midi": 67,
      "hit": false,
      "t": 180600.00000000006,
      "d": 166.66666666665697,
      "v": 43
    },
    {
      "midi": 70,
      "hit": false,
      "t": 180800.00000000006,
      "d": 8.333333333343035,
      "v": 46
    },
    {
      "midi": 67,
      "hit": false,
      "t": 180800.00000000006,
      "d": 216.66666666668607,
      "v": 55
    },
    {
      "midi": 73,
      "hit": false,
      "t": 180800.00000000006,
      "d": 483.33333333337214,
      "v": 59
    },
    {
      "midi": 76,
      "hit": false,
      "t": 180800.00000000006,
      "d": 575.0000000000291,
      "v": 56
    },
    {
      "midi": 57,
      "hit": false,
      "t": 180800.00000000006,
      "d": 866.6666666666861,
      "v": 54
    },
    {
      "midi": 45,
      "hit": false,
      "t": 180800.00000000006,
      "d": 1250,
      "v": 51
    },
    {
      "midi": 67,
      "hit": false,
      "t": 181200.0000000001,
      "d": 283.33333333334303,
      "v": 47
    },
    {
      "midi": 67,
      "hit": false,
      "t": 181600.0000000001,
      "d": 308.33333333331393,
      "v": 52
    },
    {
      "midi": 76,
      "hit": false,
      "t": 181600.0000000001,
      "d": 466.66666666662786,
      "v": 56
    },
    {
      "midi": 73,
      "hit": false,
      "t": 181600.0000000001,
      "d": 541.6666666666279,
      "v": 55
    },
    {
      "midi": 69,
      "hit": false,
      "t": 181600.0000000001,
      "d": 683.3333333332848,
      "v": 61
    },
    {
      "midi": 67,
      "hit": false,
      "t": 182000.00000000006,
      "d": 50,
      "v": 28
    },
    {
      "midi": 57,
      "hit": false,
      "t": 182000.00000000006,
      "d": 116.66666666665697,
      "v": 57
    },
    {
      "midi": 65,
      "hit": false,
      "t": 182400.00000000003,
      "d": 166.66666666665697,
      "v": 55
    },
    {
      "midi": 69,
      "hit": false,
      "t": 182400.00000000003,
      "d": 566.666666666657,
      "v": 60
    },
    {
      "midi": 74,
      "hit": false,
      "t": 182400.00000000003,
      "d": 575,
      "v": 56
    },
    {
      "midi": 77,
      "hit": false,
      "t": 182400.00000000003,
      "d": 608.333333333343,
      "v": 55
    },
    {
      "midi": 62,
      "hit": false,
      "t": 182400.00000000003,
      "d": 900.0000000000291,
      "v": 56
    },
    {
      "midi": 50,
      "hit": false,
      "t": 182400.00000000003,
      "d": 3100,
      "v": 52
    },
    {
      "midi": 65,
      "hit": false,
      "t": 182800.00000000003,
      "d": 216.66666666668607,
      "v": 50
    },
    {
      "midi": 65,
      "hit": false,
      "t": 183200.00000000006,
      "d": 316.66666666665697,
      "v": 55
    },
    {
      "midi": 69,
      "hit": false,
      "t": 183200.00000000006,
      "d": 533.333333333343,
      "v": 56
    },
    {
      "midi": 77,
      "hit": false,
      "t": 183200.00000000006,
      "d": 533.333333333343,
      "v": 56
    },
    {
      "midi": 74,
      "hit": false,
      "t": 183200.00000000006,
      "d": 558.333333333343,
      "v": 57
    },
    {
      "midi": 62,
      "hit": false,
      "t": 183600.00000000006,
      "d": 991.666666666657,
      "v": 60
    },
    {
      "midi": 69,
      "hit": false,
      "t": 184000.00000000006,
      "d": 225,
      "v": 65
    },
    {
      "midi": 77,
      "hit": false,
      "t": 184000.00000000006,
      "d": 366.66666666665697,
      "v": 63
    },
    {
      "midi": 65,
      "hit": false,
      "t": 184000.00000000006,
      "d": 633.333333333343,
      "v": 61
    },
    {
      "midi": 76,
      "hit": false,
      "t": 184200.00000000006,
      "d": 750,
      "v": 55
    },
    {
      "midi": 74,
      "hit": false,
      "t": 184400.00000000006,
      "d": 566.666666666657,
      "v": 60
    },
    {
      "midi": 69,
      "hit": false,
      "t": 184600.00000000006,
      "d": 450,
      "v": 60
    },
    {
      "midi": 65,
      "hit": false,
      "t": 184800.00000000006,
      "d": 766.6666666666279,
      "v": 60
    },
    {
      "midi": 62,
      "hit": false,
      "t": 185000.00000000006,
      "d": 441.66666666665697,
      "v": 68
    },
    {
      "midi": 67,
      "hit": false,
      "t": 185200.00000000006,
      "d": 258.33333333331393,
      "v": 66
    },
    {
      "midi": 69,
      "hit": false,
      "t": 185400.00000000006,
      "d": 99.9999999999709,
      "v": 60
    },
    {
      "midi": 65,
      "hit": false,
      "t": 185600.00000000003,
      "d": 300,
      "v": 52
    },
    {
      "midi": 70,
      "hit": false,
      "t": 185600.00000000003,
      "d": 633.333333333343,
      "v": 70
    },
    {
      "midi": 43,
      "hit": false,
      "t": 185600.00000000003,
      "d": 1333.3333333333721,
      "v": 65
    },
    {
      "midi": 65,
      "hit": false,
      "t": 186000.00000000003,
      "d": 266.66666666668607,
      "v": 29
    },
    {
      "midi": 55,
      "hit": false,
      "t": 186000.00000000003,
      "d": 500.0000000000291,
      "v": 54
    },
    {
      "midi": 65,
      "hit": false,
      "t": 186400.00000000006,
      "d": 341.66666666665697,
      "v": 65
    },
    {
      "midi": 67,
      "hit": false,
      "t": 186400.00000000006,
      "d": 558.333333333343,
      "v": 70
    },
    {
      "midi": 70,
      "hit": false,
      "t": 186400.00000000006,
      "d": 750,
      "v": 67
    },
    {
      "midi": 55,
      "hit": false,
      "t": 186800.00000000006,
      "d": 250,
      "v": 60
    },
    {
      "midi": 65,
      "hit": false,
      "t": 187000.00000000006,
      "d": 133.33333333334303,
      "v": 49
    },
    {
      "midi": 64,
      "hit": false,
      "t": 187200.00000000006,
      "d": 233.33333333334303,
      "v": 60
    },
    {
      "midi": 67,
      "hit": false,
      "t": 187200.00000000006,
      "d": 466.66666666665697,
      "v": 61
    },
    {
      "midi": 72,
      "hit": false,
      "t": 187200.00000000006,
      "d": 516.666666666657,
      "v": 57
    },
    {
      "midi": 60,
      "hit": false,
      "t": 187200.00000000006,
      "d": 866.6666666666279,
      "v": 57
    },
    {
      "midi": 48,
      "hit": false,
      "t": 187200.00000000006,
      "d": 1433.333333333314,
      "v": 52
    },
    {
      "midi": 64,
      "hit": false,
      "t": 187600.00000000006,
      "d": 283.33333333331393,
      "v": 54
    },
    {
      "midi": 67,
      "hit": false,
      "t": 187800.00000000006,
      "d": 66.66666666665697,
      "v": 27
    },
    {
      "midi": 64,
      "hit": false,
      "t": 188000.00000000003,
      "d": 300,
      "v": 61
    },
    {
      "midi": 67,
      "hit": false,
      "t": 188000.00000000003,
      "d": 575,
      "v": 65
    },
    {
      "midi": 72,
      "hit": false,
      "t": 188000.00000000003,
      "d": 733.333333333343,
      "v": 63
    },
    {
      "midi": 60,
      "hit": false,
      "t": 188400.00000000003,
      "d": 308.33333333334303,
      "v": 56
    },
    {
      "midi": 64,
      "hit": false,
      "t": 188600.00000000003,
      "d": 150,
      "v": 50
    },
    {
      "midi": 64,
      "hit": false,
      "t": 188800.00000000003,
      "d": 283.33333333334303,
      "v": 60
    },
    {
      "midi": 72,
      "hit": false,
      "t": 188800.00000000003,
      "d": 550,
      "v": 61
    },
    {
      "midi": 69,
      "hit": false,
      "t": 188800.00000000003,
      "d": 666.666666666657,
      "v": 56
    },
    {
      "midi": 60,
      "hit": false,
      "t": 188800.00000000003,
      "d": 833.333333333343,
      "v": 51
    },
    {
      "midi": 53,
      "hit": false,
      "t": 188800.00000000003,
      "d": 1275,
      "v": 55
    },
    {
      "midi": 64,
      "hit": false,
      "t": 189200.00000000003,
      "d": 250,
      "v": 46
    },
    {
      "midi": 64,
      "hit": false,
      "t": 189600.00000000003,
      "d": 450,
      "v": 63
    },
    {
      "midi": 72,
      "hit": false,
      "t": 189600.00000000003,
      "d": 616.666666666657,
      "v": 57
    },
    {
      "midi": 69,
      "hit": false,
      "t": 189600.00000000003,
      "d": 633.3333333333139,
      "v": 55
    },
    {
      "midi": 60,
      "hit": false,
      "t": 190000.00000000003,
      "d": 183.33333333334303,
      "v": 57
    },
    {
      "midi": 62,
      "hit": false,
      "t": 190200.00000000003,
      "d": 141.66666666665697,
      "v": 47
    },
    {
      "midi": 62,
      "hit": false,
      "t": 190400.00000000003,
      "d": 258.33333333334303,
      "v": 50
    },
    {
      "midi": 72,
      "hit": false,
      "t": 190400.00000000003,
      "d": 541.666666666657,
      "v": 57
    },
    {
      "midi": 65,
      "hit": false,
      "t": 190400.00000000003,
      "d": 666.666666666657,
      "v": 60
    },
    {
      "midi": 58,
      "hit": false,
      "t": 190400.00000000003,
      "d": 883.333333333343,
      "v": 60
    },
    {
      "midi": 46,
      "hit": false,
      "t": 190400.00000000003,
      "d": 1416.666666666686,
      "v": 50
    },
    {
      "midi": 62,
      "hit": false,
      "t": 190800.00000000003,
      "d": 291.66666666665697,
      "v": 49
    },
    {
      "midi": 62,
      "hit": false,
      "t": 191200.00000000003,
      "d": 241.66666666668607,
      "v": 54
    },
    {
      "midi": 70,
      "hit": false,
      "t": 191200.00000000003,
      "d": 516.6666666666861,
      "v": 63
    },
    {
      "midi": 65,
      "hit": false,
      "t": 191200.00000000003,
      "d": 733.333333333343,
      "v": 61
    },
    {
      "midi": 58,
      "hit": false,
      "t": 191600.00000000006,
      "d": 183.33333333331393,
      "v": 60
    },
    {
      "midi": 62,
      "hit": false,
      "t": 191600.00000000006,
      "d": 283.33333333331393,
      "v": 46
    },
    {
      "midi": 62,
      "hit": false,
      "t": 192000.00000000003,
      "d": 633.333333333343,
      "v": 57
    },
    {
      "midi": 70,
      "hit": false,
      "t": 192000.00000000003,
      "d": 750,
      "v": 61
    },
    {
      "midi": 40,
      "hit": false,
      "t": 192000.00000000003,
      "d": 1366.666666666657,
      "v": 57
    },
    {
      "midi": 55,
      "hit": false,
      "t": 192400.00000000003,
      "d": 633.333333333343,
      "v": 50
    },
    {
      "midi": 62,
      "hit": false,
      "t": 192800.00000000003,
      "d": 658.3333333333139,
      "v": 63
    },
    {
      "midi": 67,
      "hit": false,
      "t": 192800.00000000003,
      "d": 733.3333333333139,
      "v": 60
    },
    {
      "midi": 55,
      "hit": false,
      "t": 193200.00000000003,
      "d": 233.33333333331393,
      "v": 46
    },
    {
      "midi": 61,
      "hit": false,
      "t": 193600,
      "d": 316.66666666665697,
      "v": 55
    },
    {
      "midi": 64,
      "hit": false,
      "t": 193600,
      "d": 483.33333333334303,
      "v": 60
    },
    {
      "midi": 57,
      "hit": false,
      "t": 193600,
      "d": 850.0000000000291,
      "v": 57
    },
    {
      "midi": 45,
      "hit": false,
      "t": 193600,
      "d": 1150.000000000029,
      "v": 45
    },
    {
      "midi": 61,
      "hit": false,
      "t": 194000,
      "d": 266.66666666668607,
      "v": 40
    },
    {
      "midi": 61,
      "hit": false,
      "t": 194400.00000000003,
      "d": 358.33333333334303,
      "v": 52
    },
    {
      "midi": 69,
      "hit": false,
      "t": 194400.00000000003,
      "d": 408.33333333334303,
      "v": 61
    },
    {
      "midi": 57,
      "hit": false,
      "t": 194800.00000000003,
      "d": 100,
      "v": 50
    },
    {
      "midi": 45,
      "hit": false,
      "t": 194800.00000000003,
      "d": 116.66666666665697,
      "v": 34
    },
    {
      "midi": 57,
      "hit": false,
      "t": 195200.00000000003,
      "d": 316.66666666665697,
      "v": 50
    },
    {
      "midi": 65,
      "hit": false,
      "t": 195200.00000000003,
      "d": 566.666666666657,
      "v": 57
    },
    {
      "midi": 62,
      "hit": false,
      "t": 195200.00000000003,
      "d": 583.3333333333139,
      "v": 60
    },
    {
      "midi": 38,
      "hit": false,
      "t": 195200.00000000003,
      "d": 3016.6666666665988,
      "v": 56
    },
    {
      "midi": 50,
      "hit": false,
      "t": 195600.00000000003,
      "d": 549.9999999999709,
      "v": 60
    },
    {
      "midi": 62,
      "hit": false,
      "t": 196000,
      "d": 550,
      "v": 57
    },
    {
      "midi": 65,
      "hit": false,
      "t": 196000,
      "d": 566.666666666657,
      "v": 56
    },
    {
      "midi": 57,
      "hit": false,
      "t": 196000,
      "d": 733.3333333333139,
      "v": 52
    },
    {
      "midi": 50,
      "hit": false,
      "t": 196400,
      "d": 508.33333333331393,
      "v": 50
    },
    {
      "midi": 62,
      "hit": false,
      "t": 196799.99999999997,
      "d": 566.666666666657,
      "v": 61
    },
    {
      "midi": 57,
      "hit": false,
      "t": 196799.99999999997,
      "d": 600,
      "v": 55
    },
    {
      "midi": 65,
      "hit": false,
      "t": 196799.99999999997,
      "d": 633.333333333343,
      "v": 55
    },
    {
      "midi": 50,
      "hit": false,
      "t": 197199.99999999997,
      "d": 516.666666666657,
      "v": 56
    },
    {
      "midi": 57,
      "hit": false,
      "t": 197599.99999999997,
      "d": 466.66666666665697,
      "v": 50
    },
    {
      "midi": 62,
      "hit": false,
      "t": 197599.99999999997,
      "d": 500,
      "v": 60
    },
    {
      "midi": 65,
      "hit": false,
      "t": 197599.99999999997,
      "d": 541.666666666657,
      "v": 55
    },
    {
      "midi": 50,
      "hit": false,
      "t": 197999.99999999997,
      "d": 141.66666666665697,
      "v": 50
    },
    {
      "midi": 67,
      "hit": false,
      "t": 198399.99999999997,
      "d": 466.66666666665697,
      "v": 47
    },
    {
      "midi": 70,
      "hit": false,
      "t": 198399.99999999997,
      "d": 566.666666666657,
      "v": 52
    },
    {
      "midi": 74,
      "hit": false,
      "t": 198399.99999999997,
      "d": 700,
      "v": 54
    },
    {
      "midi": 55,
      "hit": false,
      "t": 198399.99999999997,
      "d": 1316.666666666657,
      "v": 52
    },
    {
      "midi": 62,
      "hit": false,
      "t": 198599.99999999997,
      "d": 933.333333333343,
      "v": 47
    },
    {
      "midi": 65,
      "hit": false,
      "t": 198799.99999999997,
      "d": 566.666666666657,
      "v": 41
    },
    {
      "midi": 67,
      "hit": false,
      "t": 198999.99999999997,
      "d": 666.666666666657,
      "v": 51
    },
    {
      "midi": 70,
      "hit": false,
      "t": 199199.99999999997,
      "d": 1049.999999999971,
      "v": 65
    },
    {
      "midi": 74,
      "hit": false,
      "t": 199399.99999999997,
      "d": 524.9999999999709,
      "v": 63
    },
    {
      "midi": 65,
      "hit": false,
      "t": 199599.99999999997,
      "d": 216.66666666665697,
      "v": 46
    },
    {
      "midi": 62,
      "hit": false,
      "t": 199799.99999999997,
      "d": 108.33333333331393,
      "v": 51
    },
    {
      "midi": 67,
      "hit": false,
      "t": 199999.99999999994,
      "d": 433.33333333334303,
      "v": 46
    },
    {
      "midi": 48,
      "hit": false,
      "t": 199999.99999999994,
      "d": 1225,
      "v": 55
    },
    {
      "midi": 76,
      "hit": false,
      "t": 199999.99999999994,
      "d": 2283.333333333314,
      "v": 54
    },
    {
      "midi": 55,
      "hit": false,
      "t": 200199.99999999994,
      "d": 1100,
      "v": 46
    },
    {
      "midi": 60,
      "hit": false,
      "t": 200399.99999999994,
      "d": 491.66666666665697,
      "v": 51
    },
    {
      "midi": 64,
      "hit": false,
      "t": 200599.99999999994,
      "d": 458.33333333334303,
      "v": 56
    },
    {
      "midi": 67,
      "hit": false,
      "t": 200799.99999999994,
      "d": 566.666666666657,
      "v": 66
    },
    {
      "midi": 70,
      "hit": false,
      "t": 200999.99999999994,
      "d": 516.666666666657,
      "v": 52
    },
    {
      "midi": 60,
      "hit": false,
      "t": 201199.99999999994,
      "d": 266.66666666665697,
      "v": 46
    },
    {
      "midi": 64,
      "hit": false,
      "t": 201399.99999999994,
      "d": 233.33333333334303,
      "v": 57
    },
    {
      "midi": 69,
      "hit": false,
      "t": 201599.99999999994,
      "d": 566.666666666657,
      "v": 51
    },
    {
      "midi": 72,
      "hit": false,
      "t": 201599.99999999994,
      "d": 666.666666666657,
      "v": 54
    },
    {
      "midi": 53,
      "hit": false,
      "t": 201599.99999999994,
      "d": 1333.333333333314,
      "v": 43
    },
    {
      "midi": 60,
      "hit": false,
      "t": 201799.99999999994,
      "d": 983.3333333333139,
      "v": 45
    },
    {
      "midi": 65,
      "hit": false,
      "t": 201999.99999999994,
      "d": 533.3333333333139,
      "v": 50
    },
    {
      "midi": 67,
      "hit": false,
      "t": 202199.99999999994,
      "d": 599.9999999999709,
      "v": 56
    },
    {
      "midi": 69,
      "hit": false,
      "t": 202399.9999999999,
      "d": 766.6666666666861,
      "v": 70
    },
    {
      "midi": 72,
      "hit": false,
      "t": 202599.9999999999,
      "d": 566.6666666666861,
      "v": 65
    },
    {
      "midi": 65,
      "hit": false,
      "t": 202799.9999999999,
      "d": 191.66666666668607,
      "v": 52
    },
    {
      "midi": 60,
      "hit": false,
      "t": 202999.99999999994,
      "d": 91.66666666665697,
      "v": 49
    },
    {
      "midi": 70,
      "hit": false,
      "t": 203199.99999999994,
      "d": 500,
      "v": 47
    },
    {
      "midi": 46,
      "hit": false,
      "t": 203199.99999999994,
      "d": 1333.333333333343,
      "v": 55
    },
    {
      "midi": 74,
      "hit": false,
      "t": 203199.99999999994,
      "d": 1575.000000000029,
      "v": 47
    },
    {
      "midi": 53,
      "hit": false,
      "t": 203399.99999999994,
      "d": 1166.666666666686,
      "v": 43
    },
    {
      "midi": 58,
      "hit": false,
      "t": 203599.99999999994,
      "d": 416.66666666665697,
      "v": 59
    },
    {
      "midi": 62,
      "hit": false,
      "t": 203799.99999999994,
      "d": 633.333333333343,
      "v": 50
    },
    {
      "midi": 65,
      "hit": false,
      "t": 203999.99999999994,
      "d": 600.0000000000291,
      "v": 63
    },
    {
      "midi": 70,
      "hit": false,
      "t": 204199.99999999994,
      "d": 408.33333333337214,
      "v": 60
    },
    {
      "midi": 58,
      "hit": false,
      "t": 204399.99999999994,
      "d": 258.33333333337214,
      "v": 55
    },
    {
      "midi": 62,
      "hit": false,
      "t": 204599.99999999997,
      "d": 100,
      "v": 52
    },
    {
      "midi": 67,
      "hit": false,
      "t": 204799.99999999997,
      "d": 433.33333333334303,
      "v": 57
    },
    {
      "midi": 70,
      "hit": false,
      "t": 204799.99999999997,
      "d": 516.6666666666861,
      "v": 57
    },
    {
      "midi": 52,
      "hit": false,
      "t": 204799.99999999997,
      "d": 1250.000000000029,
      "v": 55
    },
    {
      "midi": 74,
      "hit": false,
      "t": 204799.99999999997,
      "d": 1433.3333333333721,
      "v": 50
    },
    {
      "midi": 64,
      "hit": false,
      "t": 205199.99999999997,
      "d": 441.66666666668607,
      "v": 52
    },
    {
      "midi": 67,
      "hit": false,
      "t": 205400,
      "d": 366.66666666665697,
      "v": 60
    },
    {
      "midi": 58,
      "hit": false,
      "t": 205600,
      "d": 458.33333333334303,
      "v": 65
    },
    {
      "midi": 64,
      "hit": false,
      "t": 205800,
      "d": 508.33333333334303,
      "v": 55
    },
    {
      "midi": 67,
      "hit": false,
      "t": 206000,
      "d": 383.33333333334303,
      "v": 61
    },
    {
      "midi": 70,
      "hit": false,
      "t": 206200,
      "d": 166.66666666668607,
      "v": 46
    },
    {
      "midi": 45,
      "hit": false,
      "t": 206400,
      "d": 166.66666666665697,
      "v": 47
    },
    {
      "midi": 64,
      "hit": false,
      "t": 206400,
      "d": 400,
      "v": 50
    },
    {
      "midi": 67,
      "hit": false,
      "t": 206400,
      "d": 533.333333333343,
      "v": 43
    },
    {
      "midi": 73,
      "hit": false,
      "t": 206400,
      "d": 633.333333333343,
      "v": 60
    },
    {
      "midi": 57,
      "hit": false,
      "t": 206600,
      "d": 733.333333333343,
      "v": 49
    },
    {
      "midi": 61,
      "hit": false,
      "t": 206800,
      "d": 833.333333333343,
      "v": 57
    },
    {
      "midi": 64,
      "hit": false,
      "t": 207000,
      "d": 591.666666666657,
      "v": 52
    },
    {
      "midi": 67,
      "hit": false,
      "t": 207200,
      "d": 583.333333333343,
      "v": 66
    },
    {
      "midi": 73,
      "hit": false,
      "t": 207400,
      "d": 483.33333333334303,
      "v": 67
    },
    {
      "midi": 57,
      "hit": false,
      "t": 207600,
      "d": 208.33333333334303,
      "v": 44
    },
    {
      "midi": 64,
      "hit": false,
      "t": 207800,
      "d": 300,
      "v": 56
    },
    {
      "midi": 50,
      "hit": false,
      "t": 208000,
      "d": 1200,
      "v": 51
    },
    {
      "midi": 74,
      "hit": false,
      "t": 208000,
      "d": 3166.666666666657,
      "v": 52
    },
    {
      "midi": 57,
      "hit": false,
      "t": 208200,
      "d": 991.666666666657,
      "v": 50
    },
    {
      "midi": 62,
      "hit": false,
      "t": 208400,
      "d": 600,
      "v": 61
    },
    {
      "midi": 64,
      "hit": false,
      "t": 208600,
      "d": 700,
      "v": 56
    },
    {
      "midi": 65,
      "hit": false,
      "t": 209000,
      "d": 1125,
      "v": 65
    },
    {
      "midi": 62,
      "hit": false,
      "t": 209200,
      "d": 283.33333333334303,
      "v": 46
    },
    {
      "midi": 57,
      "hit": false,
      "t": 209400,
      "d": 225,
      "v": 50
    },
    {
      "midi": 50,
      "hit": false,
      "t": 209600,
      "d": 1200,
      "v": 46
    },
    {
      "midi": 57,
      "hit": false,
      "t": 209800,
      "d": 1033.333333333343,
      "v": 47
    },
    {
      "midi": 62,
      "hit": false,
      "t": 210000,
      "d": 575,
      "v": 54
    },
    {
      "midi": 64,
      "hit": false,
      "t": 210200,
      "d": 1000,
      "v": 54
    },
    {
      "midi": 65,
      "hit": false,
      "t": 210600,
      "d": 566.666666666657,
      "v": 54
    },
    {
      "midi": 62,
      "hit": false,
      "t": 210800,
      "d": 266.66666666665697,
      "v": 46
    },
    {
      "midi": 57,
      "hit": false,
      "t": 211000,
      "d": 166.66666666665697,
      "v": 46
    },
    {
      "midi": 67,
      "hit": false,
      "t": 211200,
      "d": 433.33333333334303,
      "v": 57
    },
    {
      "midi": 70,
      "hit": false,
      "t": 211200,
      "d": 516.6666666666861,
      "v": 57
    },
    {
      "midi": 52,
      "hit": false,
      "t": 211200,
      "d": 1250.000000000029,
      "v": 55
    },
    {
      "midi": 74,
      "hit": false,
      "t": 211200,
      "d": 1433.3333333333721,
      "v": 50
    },
    {
      "midi": 64,
      "hit": false,
      "t": 211600,
      "d": 441.66666666668607,
      "v": 52
    },
    {
      "midi": 67,
      "hit": false,
      "t": 211800.00000000003,
      "d": 366.66666666665697,
      "v": 60
    },
    {
      "midi": 58,
      "hit": false,
      "t": 212000.00000000003,
      "d": 458.33333333334303,
      "v": 65
    },
    {
      "midi": 64,
      "hit": false,
      "t": 212200.00000000003,
      "d": 508.33333333334303,
      "v": 55
    },
    {
      "midi": 67,
      "hit": false,
      "t": 212400.00000000003,
      "d": 383.33333333334303,
      "v": 61
    },
    {
      "midi": 70,
      "hit": false,
      "t": 212600.00000000003,
      "d": 166.66666666668607,
      "v": 46
    },
    {
      "midi": 45,
      "hit": false,
      "t": 212800.00000000003,
      "d": 166.66666666665697,
      "v": 47
    },
    {
      "midi": 64,
      "hit": false,
      "t": 212800.00000000003,
      "d": 400,
      "v": 50
    },
    {
      "midi": 67,
      "hit": false,
      "t": 212800.00000000003,
      "d": 533.333333333343,
      "v": 43
    },
    {
      "midi": 73,
      "hit": false,
      "t": 212800.00000000003,
      "d": 633.333333333343,
      "v": 60
    },
    {
      "midi": 57,
      "hit": false,
      "t": 213000.00000000003,
      "d": 733.333333333343,
      "v": 49
    },
    {
      "midi": 61,
      "hit": false,
      "t": 213200.00000000003,
      "d": 833.333333333343,
      "v": 57
    },
    {
      "midi": 64,
      "hit": false,
      "t": 213400.00000000003,
      "d": 591.666666666657,
      "v": 52
    },
    {
      "midi": 67,
      "hit": false,
      "t": 213600.00000000003,
      "d": 583.333333333343,
      "v": 66
    },
    {
      "midi": 73,
      "hit": false,
      "t": 213800.00000000003,
      "d": 483.33333333334303,
      "v": 67
    },
    {
      "midi": 57,
      "hit": false,
      "t": 214000.00000000003,
      "d": 208.33333333334303,
      "v": 44
    },
    {
      "midi": 64,
      "hit": false,
      "t": 214200.00000000003,
      "d": 300,
      "v": 56
    },
    {
      "midi": 50,
      "hit": false,
      "t": 214400.00000000003,
      "d": 1200,
      "v": 51
    },
    {
      "midi": 74,
      "hit": false,
      "t": 214400.00000000003,
      "d": 3166.666666666657,
      "v": 52
    },
    {
      "midi": 57,
      "hit": false,
      "t": 214600.00000000003,
      "d": 991.666666666657,
      "v": 50
    },
    {
      "midi": 62,
      "hit": false,
      "t": 214800.00000000003,
      "d": 600,
      "v": 61
    },
    {
      "midi": 64,
      "hit": false,
      "t": 215000.00000000003,
      "d": 700,
      "v": 56
    },
    {
      "midi": 65,
      "hit": false,
      "t": 215400.00000000003,
      "d": 1125,
      "v": 65
    },
    {
      "midi": 62,
      "hit": false,
      "t": 215600.00000000003,
      "d": 283.33333333334303,
      "v": 46
    },
    {
      "midi": 57,
      "hit": false,
      "t": 215800.00000000003,
      "d": 225,
      "v": 50
    },
    {
      "midi": 50,
      "hit": false,
      "t": 216000.00000000003,
      "d": 1200,
      "v": 46
    },
    {
      "midi": 57,
      "hit": false,
      "t": 216200.00000000003,
      "d": 1033.333333333343,
      "v": 47
    },
    {
      "midi": 62,
      "hit": false,
      "t": 216400.00000000003,
      "d": 575,
      "v": 54
    },
    {
      "midi": 64,
      "hit": false,
      "t": 216600.00000000003,
      "d": 1000,
      "v": 54
    },
    {
      "midi": 65,
      "hit": false,
      "t": 217000.00000000003,
      "d": 566.666666666657,
      "v": 54
    },
    {
      "midi": 62,
      "hit": false,
      "t": 217200.00000000003,
      "d": 266.66666666665697,
      "v": 46
    },
    {
      "midi": 57,
      "hit": false,
      "t": 217400.00000000003,
      "d": 166.66666666665697,
      "v": 46
    },
    {
      "midi": 43,
      "hit": false,
      "t": 217600.00000000003,
      "d": 2216.666666666657,
      "v": 45
    },
    {
      "midi": 62,
      "hit": false,
      "t": 217600.00000000003,
      "d": 2616.666666666657,
      "v": 46
    },
    {
      "midi": 67,
      "hit": false,
      "t": 217600.00000000003,
      "d": 2766.666666666657,
      "v": 47
    },
    {
      "midi": 70,
      "hit": false,
      "t": 217600.00000000003,
      "d": 2775,
      "v": 46
    },
    {
      "midi": 74,
      "hit": false,
      "t": 217600.00000000003,
      "d": 2800,
      "v": 47
    },
    {
      "midi": 50,
      "hit": false,
      "t": 218033.33333333337,
      "d": 1783.333333333314,
      "v": 43
    },
    {
      "midi": 58,
      "hit": false,
      "t": 218500.00000000003,
      "d": 1616.666666666657,
      "v": 38
    },
    {
      "midi": 45,
      "hit": false,
      "t": 220291.6666666667,
      "d": 2433.333333333314,
      "v": 52
    },
    {
      "midi": 52,
      "hit": false,
      "t": 220433.33333333337,
      "d": 2333.333333333285,
      "v": 50
    },
    {
      "midi": 64,
      "hit": false,
      "t": 220483.33333333337,
      "d": 2508.333333333285,
      "v": 35
    },
    {
      "midi": 67,
      "hit": false,
      "t": 220550.00000000003,
      "d": 2741.666666666628,
      "v": 43
    },
    {
      "midi": 73,
      "hit": false,
      "t": 220666.6666666667,
      "d": 2624.999999999971,
      "v": 51
    },
    {
      "midi": 61,
      "hit": false,
      "t": 220683.33333333334,
      "d": 2166.666666666657,
      "v": 22
    },
    {
      "midi": 65,
      "hit": false,
      "t": 223466.66666666666,
      "d": 1283.333333333314,
      "v": 31
    },
    {
      "midi": 50,
      "hit": false,
      "t": 223500,
      "d": 5733.333333333227,
      "v": 36
    },
    {
      "midi": 69,
      "hit": false,
      "t": 223550,
      "d": 1749.999999999971,
      "v": 39
    },
    {
      "midi": 74,
      "hit": false,
      "t": 223616.66666666666,
      "d": 1966.6666666666279,
      "v": 45
    },
    {
      "midi": 57,
      "hit": false,
      "t": 223933.3333333333,
      "d": 5316.666666666599,
      "v": 33
    },
    {
      "midi": 62,
      "hit": false,
      "t": 224324.99999999997,
      "d": 4916.666666666599,
      "v": 38
    },
    {
      "midi": 64,
      "hit": false,
      "t": 224699.99999999997,
      "d": 1666.6666666666279,
      "v": 36
    },
    {
      "midi": 65,
      "hit": false,
      "t": 225099.99999999997,
      "d": 1599.9999999999418,
      "v": 35
    },
    {
      "midi": 69,
      "hit": false,
      "t": 225516.66666666663,
      "d": 1266.6666666666279,
      "v": 33
    },
    {
      "midi": 74,
      "hit": false,
      "t": 225999.99999999994,
      "d": 241.66666666665697,
      "v": 34
    },
    {
      "midi": 76,
      "hit": false,
      "t": 226483.33333333326,
      "d": 300,
      "v": 38
    },
    {
      "midi": 69,
      "hit": false,
      "t": 227049.9999999999,
      "d": 2200,
      "v": 33
    },
    {
      "midi": 74,
      "hit": false,
      "t": 227116.66666666657,
      "d": 2133.333333333343,
      "v": 39
    },
    {
      "midi": 77,
      "hit": false,
      "t": 227208.33333333323,
      "d": 2033.333333333343,
      "v": 33
    }
  ]
}